{
  "track_name": "01 - Funky Options",
  "duration_sec": 41.398,
  "sample_rate": 44100,
  "note_count": 803,
  "unique_pitches": 39,
  "pitch_range": 79,
  "avg_note_duration": 0.2545,
  "reconstruction_stats": {
    "notes_reconstructed": 803,
    "keyon_events": 803,
    "keyoff_events": 768,
    "orphan_keyons": 5,
    "unique_pitches": 39,
    "pitch_range": 79,
    "avg_duration_sec": 0.2545
  },
  "metadata": {
    "source": "T\\The Second Samurai\\01 - Funky Options.vgz"
  },
  "notes": [
    {
      "channel": 0,
      "note": 91,
      "start": 0.0,
      "duration": 0.0819,
      "velocity": 117,
      "chip": "ym2612"
    },
    {
      "channel": 4,
      "note": 110,
      "start": 0.0,
      "duration": 0.1698,
      "velocity": 107,
      "chip": "ym2612"
    },
    {
      "channel": 0,
      "note": 89,
      "start": 0.0821,
      "duration": 0.0832,
      "velocity": 117,
      "chip": "ym2612"
    },
    {
      "channel": 0,
      "note": 91,
      "start": 0.1655,
      "duration": 0.0841,
      "velocity": 117,
      "chip": "ym2612"
    },
    {
      "channel": 1,
      "note": 61,
      "start": 0.1676,
      "duration": 0.0841,
      "velocity": 117,
      "chip": "ym2612"
    },
    {
      "channel": 4,
      "note": 110,
      "start": 0.17,
      "duration": 0.0825,
      "velocity": 107,
      "chip": "ym2612"
    },
    {
      "channel": 0,
      "note": 94,
      "start": 0.2498,
      "duration": 0.0843,
      "velocity": 117,
      "chip": "ym2612"
    },
    {
      "channel": 1,
      "note": 55,
      "start": 0.2519,
      "duration": 1.7417,
      "velocity": 114,
      "chip": "ym2612"
    },
    {
      "channel": 4,
      "note": 110,
      "start": 0.2526,
      "duration": 0.1693,
      "velocity": 107,
      "chip": "ym2612"
    },
    {
      "channel": 0,
      "note": 91,
      "start": 0.3342,
      "duration": 0.0848,
      "velocity": 117,
      "chip": "ym2612"
    },
    {
      "channel": 2,
      "note": 55,
      "start": 0.3364,
      "duration": 0.0848,
      "velocity": 117,
      "chip": "ym2612"
    },
    {
      "channel": 0,
      "note": 89,
      "start": 0.4192,
      "duration": 0.0846,
      "velocity": 117,
      "chip": "ym2612"
    },
    {
      "channel": 2,
      "note": 43,
      "start": 0.4214,
      "duration": 1.5744,
      "velocity": 114,
      "chip": "ym2612"
    },
    {
      "channel": 4,
      "note": 110,
      "start": 0.422,
      "duration": 0.0825,
      "velocity": 107,
      "chip": "ym2612"
    },
    {
      "channel": 0,
      "note": 91,
      "start": 0.5039,
      "duration": 0.0837,
      "velocity": 117,
      "chip": "ym2612"
    },
    {
      "channel": 4,
      "note": 110,
      "start": 0.5046,
      "duration": 0.1688,
      "velocity": 107,
      "chip": "ym2612"
    },
    {
      "channel": 0,
      "note": 89,
      "start": 0.5878,
      "duration": 0.085,
      "velocity": 117,
      "chip": "ym2612"
    },
    {
      "channel": 0,
      "note": 91,
      "start": 0.6729,
      "duration": 0.0844,
      "velocity": 117,
      "chip": "ym2612"
    },
    {
      "channel": 4,
      "note": 110,
      "start": 0.6736,
      "duration": 0.086,
      "velocity": 107,
      "chip": "ym2612"
    },
    {
      "channel": 0,
      "note": 94,
      "start": 0.7574,
      "duration": 0.084,
      "velocity": 117,
      "chip": "ym2612"
    },
    {
      "channel": 4,
      "note": 110,
      "start": 0.7598,
      "duration": 0.1682,
      "velocity": 107,
      "chip": "ym2612"
    },
    {
      "channel": 0,
      "note": 91,
      "start": 0.8416,
      "duration": 0.084,
      "velocity": 117,
      "chip": "ym2612"
    },
    {
      "channel": 0,
      "note": 89,
      "start": 0.9258,
      "duration": 0.0841,
      "velocity": 117,
      "chip": "ym2612"
    },
    {
      "channel": 4,
      "note": 110,
      "start": 0.9282,
      "duration": 0.0825,
      "velocity": 107,
      "chip": "ym2612"
    },
    {
      "channel": 0,
      "note": 91,
      "start": 1.0101,
      "duration": 0.0841,
      "velocity": 117,
      "chip": "ym2612"
    },
    {
      "channel": 4,
      "note": 110,
      "start": 1.0108,
      "duration": 0.1681,
      "velocity": 107,
      "chip": "ym2612"
    },
    {
      "channel": 0,
      "note": 89,
      "start": 1.0944,
      "duration": 0.0838,
      "velocity": 117,
      "chip": "ym2612"
    },
    {
      "channel": 0,
      "note": 91,
      "start": 1.1784,
      "duration": 0.0842,
      "velocity": 117,
      "chip": "ym2612"
    },
    {
      "channel": 4,
      "note": 110,
      "start": 1.1791,
      "duration": 0.0842,
      "velocity": 107,
      "chip": "ym2612"
    },
    {
      "channel": 0,
      "note": 94,
      "start": 1.2628,
      "duration": 0.084,
      "velocity": 117,
      "chip": "ym2612"
    },
    {
      "channel": 4,
      "note": 110,
      "start": 1.2635,
      "duration": 0.169,
      "velocity": 107,
      "chip": "ym2612"
    },
    {
      "channel": 0,
      "note": 91,
      "start": 1.3469,
      "duration": 0.0849,
      "velocity": 117,
      "chip": "ym2612"
    },
    {
      "channel": 0,
      "note": 89,
      "start": 1.432,
      "duration": 0.0846,
      "velocity": 117,
      "chip": "ym2612"
    },
    {
      "channel": 4,
      "note": 110,
      "start": 1.4327,
      "duration": 0.0862,
      "velocity": 107,
      "chip": "ym2612"
    },
    {
      "channel": 0,
      "note": 91,
      "start": 1.5168,
      "duration": 0.0851,
      "velocity": 117,
      "chip": "ym2612"
    },
    {
      "channel": 4,
      "note": 110,
      "start": 1.5192,
      "duration": 0.1767,
      "velocity": 107,
      "chip": "ym2612"
    },
    {
      "channel": 0,
      "note": 89,
      "start": 1.602,
      "duration": 0.0915,
      "velocity": 117,
      "chip": "ym2612"
    },
    {
      "channel": 0,
      "note": 91,
      "start": 1.6937,
      "duration": 0.0768,
      "velocity": 117,
      "chip": "ym2612"
    },
    {
      "channel": 4,
      "note": 110,
      "start": 1.696,
      "duration": 0.0752,
      "velocity": 107,
      "chip": "ym2612"
    },
    {
      "channel": 0,
      "note": 94,
      "start": 1.7707,
      "duration": 0.0725,
      "velocity": 117,
      "chip": "ym2612"
    },
    {
      "channel": 4,
      "note": 110,
      "start": 1.7714,
      "duration": 0.1456,
      "velocity": 107,
      "chip": "ym2612"
    },
    {
      "channel": 0,
      "note": 91,
      "start": 1.8434,
      "duration": 0.0729,
      "velocity": 117,
      "chip": "ym2612"
    },
    {
      "channel": 0,
      "note": 89,
      "start": 1.9164,
      "duration": 0.0751,
      "velocity": 127,
      "chip": "ym2612"
    },
    {
      "channel": 4,
      "note": 110,
      "start": 1.9172,
      "duration": 0.0829,
      "velocity": 107,
      "chip": "ym2612"
    },
    {
      "channel": 0,
      "note": 55,
      "start": 1.9917,
      "duration": 0.5346,
      "velocity": 127,
      "chip": "ym2612"
    },
    {
      "channel": 1,
      "note": 91,
      "start": 1.9938,
      "duration": 0.2524,
      "velocity": 114,
      "chip": "ym2612"
    },
    {
      "channel": 2,
      "note": 86,
      "start": 1.9959,
      "duration": 0.2508,
      "velocity": 114,
      "chip": "ym2612"
    },
    {
      "channel": 3,
      "note": 82,
      "start": 1.9981,
      "duration": 0.2492,
      "velocity": 114,
      "chip": "ym2612"
    },
    {
      "channel": 4,
      "note": 110,
      "start": 2.0002,
      "duration": 0.1476,
      "velocity": 107,
      "chip": "ym2612"
    },
    {
      "channel": 4,
      "note": 110,
      "start": 2.1481,
      "duration": 0.0998,
      "velocity": 107,
      "chip": "ym2612"
    },
    {
      "channel": 1,
      "note": 91,
      "start": 2.2463,
      "duration": 0.2806,
      "velocity": 114,
      "chip": "ym2612"
    },
    {
      "channel": 2,
      "note": 86,
      "start": 2.2469,
      "duration": 0.2806,
      "velocity": 114,
      "chip": "ym2612"
    },
    {
      "channel": 3,
      "note": 82,
      "start": 2.2474,
      "duration": 0.2806,
      "velocity": 114,
      "chip": "ym2612"
    },
    {
      "channel": 4,
      "note": 110,
      "start": 2.248,
      "duration": 0.1983,
      "velocity": 107,
      "chip": "ym2612"
    },
    {
      "channel": 4,
      "note": 110,
      "start": 2.4465,
      "duration": 0.0821,
      "velocity": 107,
      "chip": "ym2612"
    },
    {
      "channel": 0,
      "note": 31,
      "start": 2.5266,
      "duration": 0.1469,
      "velocity": 127,
      "chip": "ym2612"
    },
    {
      "channel": 1,
      "note": 91,
      "start": 2.5271,
      "duration": 0.2426,
      "velocity": 114,
      "chip": "ym2612"
    },
    {
      "channel": 2,
      "note": 86,
      "start": 2.5276,
      "duration": 0.2427,
      "velocity": 114,
      "chip": "ym2612"
    },
    {
      "channel": 3,
      "note": 82,
      "start": 2.5282,
      "duration": 0.2426,
      "velocity": 114,
      "chip": "ym2612"
    },
    {
      "channel": 4,
      "note": 110,
      "start": 2.5288,
      "duration": 0.1454,
      "velocity": 107,
      "chip": "ym2612"
    },
    {
      "channel": 0,
      "note": 46,
      "start": 2.6737,
      "duration": 0.0955,
      "velocity": 127,
      "chip": "ym2612"
    },
    {
      "channel": 4,
      "note": 110,
      "start": 2.6744,
      "duration": 0.0986,
      "velocity": 107,
      "chip": "ym2612"
    },
    {
      "channel": 0,
      "note": 58,
      "start": 2.7693,
      "duration": 0.1604,
      "velocity": 127,
      "chip": "ym2612"
    },
    {
      "channel": 1,
      "note": 91,
      "start": 2.7699,
      "duration": 0.26,
      "velocity": 114,
      "chip": "ym2612"
    },
    {
      "channel": 2,
      "note": 86,
      "start": 2.7704,
      "duration": 0.26,
      "velocity": 114,
      "chip": "ym2612"
    },
    {
      "channel": 3,
      "note": 82,
      "start": 2.771,
      "duration": 0.26,
      "velocity": 114,
      "chip": "ym2612"
    },
    {
      "channel": 4,
      "note": 110,
      "start": 2.7732,
      "duration": 0.1589,
      "velocity": 107,
      "chip": "ym2612"
    },
    {
      "channel": 0,
      "note": 58,
      "start": 2.93,
      "duration": 0.6383,
      "velocity": 127,
      "chip": "ym2612"
    },
    {
      "channel": 4,
      "note": 110,
      "start": 2.9322,
      "duration": 0.0994,
      "velocity": 107,
      "chip": "ym2612"
    },
    {
      "channel": 1,
      "note": 91,
      "start": 3.0301,
      "duration": 0.2998,
      "velocity": 114,
      "chip": "ym2612"
    },
    {
      "channel": 2,
      "note": 86,
      "start": 3.0307,
      "duration": 0.2998,
      "velocity": 114,
      "chip": "ym2612"
    },
    {
      "channel": 3,
      "note": 82,
      "start": 3.0312,
      "duration": 0.2998,
      "velocity": 114,
      "chip": "ym2612"
    },
    {
      "channel": 4,
      "note": 110,
      "start": 3.0317,
      "duration": 0.1982,
      "velocity": 107,
      "chip": "ym2612"
    },
    {
      "channel": 4,
      "note": 110,
      "start": 3.2301,
      "duration": 0.1015,
      "velocity": 107,
      "chip": "ym2612"
    },
    {
      "channel": 1,
      "note": 91,
      "start": 3.3301,
      "duration": 0.2388,
      "velocity": 114,
      "chip": "ym2612"
    },
    {
      "channel": 2,
      "note": 86,
      "start": 3.3307,
      "duration": 0.2387,
      "velocity": 114,
      "chip": "ym2612"
    },
    {
      "channel": 3,
      "note": 82,
      "start": 3.3312,
      "duration": 0.2387,
      "velocity": 114,
      "chip": "ym2612"
    },
    {
      "channel": 4,
      "note": 110,
      "start": 3.3317,
      "duration": 0.1557,
      "velocity": 107,
      "chip": "ym2612"
    },
    {
      "channel": 4,
      "note": 110,
      "start": 3.4876,
      "duration": 0.0845,
      "velocity": 107,
      "chip": "ym2612"
    },
    {
      "channel": 0,
      "note": 43,
      "start": 3.5685,
      "duration": 0.516,
      "velocity": 127,
      "chip": "ym2612"
    },
    {
      "channel": 1,
      "note": 91,
      "start": 3.569,
      "duration": 0.1444,
      "velocity": 114,
      "chip": "ym2612"
    },
    {
      "channel": 2,
      "note": 86,
      "start": 3.5696,
      "duration": 0.1444,
      "velocity": 114,
      "chip": "ym2612"
    },
    {
      "channel": 3,
      "note": 82,
      "start": 3.5701,
      "duration": 0.1444,
      "velocity": 114,
      "chip": "ym2612"
    },
    {
      "channel": 4,
      "note": 110,
      "start": 3.5723,
      "duration": 0.1444,
      "velocity": 107,
      "chip": "ym2612"
    },
    {
      "channel": 1,
      "note": 89,
      "start": 3.7135,
      "duration": 0.2964,
      "velocity": 114,
      "chip": "ym2612"
    },
    {
      "channel": 2,
      "note": 86,
      "start": 3.7141,
      "duration": 0.2963,
      "velocity": 114,
      "chip": "ym2612"
    },
    {
      "channel": 3,
      "note": 79,
      "start": 3.7147,
      "duration": 0.2964,
      "velocity": 114,
      "chip": "ym2612"
    },
    {
      "channel": 4,
      "note": 110,
      "start": 3.7168,
      "duration": 0.0933,
      "velocity": 107,
      "chip": "ym2612"
    },
    {
      "channel": 4,
      "note": 110,
      "start": 3.8103,
      "duration": 0.2013,
      "velocity": 107,
      "chip": "ym2612"
    },
    {
      "channel": 1,
      "note": 88,
      "start": 4.0101,
      "duration": 1.4101,
      "velocity": 102,
      "chip": "ym2612"
    },
    {
      "channel": 2,
      "note": 84,
      "start": 4.0107,
      "duration": 1.5703,
      "velocity": 102,
      "chip": "ym2612"
    },
    {
      "channel": 3,
      "note": 82,
      "start": 4.0112,
      "duration": 0.532,
      "velocity": 1,
      "chip": "ym2612"
    },
    {
      "channel": 4,
      "note": 110,
      "start": 4.0118,
      "duration": 0.0751,
      "velocity": 107,
      "chip": "ym2612"
    },
    {
      "channel": 0,
      "note": 55,
      "start": 4.0846,
      "duration": 0.535,
      "velocity": 127,
      "chip": "ym2612"
    },
    {
      "channel": 4,
      "note": 110,
      "start": 4.0869,
      "duration": 0.1595,
      "velocity": 107,
      "chip": "ym2612"
    },
    {
      "channel": 4,
      "note": 110,
      "start": 4.2466,
      "duration": 0.0951,
      "velocity": 107,
      "chip": "ym2612"
    },
    {
      "channel": 4,
      "note": 110,
      "start": 4.3419,
      "duration": 0.2019,
      "velocity": 107,
      "chip": "ym2612"
    },
    {
      "channel": 3,
      "note": 55,
      "start": 4.5434,
      "duration": 0.0785,
      "velocity": 117,
      "chip": "ym2612"
    },
    {
      "channel": 4,
      "note": 110,
      "start": 4.544,
      "duration": 0.0785,
      "velocity": 107,
      "chip": "ym2612"
    },
    {
      "channel": 0,
      "note": 43,
      "start": 4.6198,
      "duration": 0.1462,
      "velocity": 127,
      "chip": "ym2612"
    },
    {
      "channel": 3,
      "note": 55,
      "start": 4.6221,
      "duration": 5.659,
      "velocity": 114,
      "chip": "ym2612"
    },
    {
      "channel": 4,
      "note": 110,
      "start": 4.6227,
      "duration": 0.1441,
      "velocity": 107,
      "chip": "ym2612"
    },
    {
      "channel": 0,
      "note": 46,
      "start": 4.7662,
      "duration": 0.0954,
      "velocity": 127,
      "chip": "ym2612"
    },
    {
      "channel": 4,
      "note": 110,
      "start": 4.767,
      "duration": 0.0969,
      "velocity": 107,
      "chip": "ym2612"
    },
    {
      "channel": 0,
      "note": 58,
      "start": 4.8617,
      "duration": 0.1568,
      "velocity": 127,
      "chip": "ym2612"
    },
    {
      "channel": 4,
      "note": 110,
      "start": 4.8641,
      "duration": 0.1568,
      "velocity": 107,
      "chip": "ym2612"
    },
    {
      "channel": 0,
      "note": 58,
      "start": 5.0187,
      "duration": 0.6397,
      "velocity": 127,
      "chip": "ym2612"
    },
    {
      "channel": 4,
      "note": 110,
      "start": 5.021,
      "duration": 0.0978,
      "velocity": 107,
      "chip": "ym2612"
    },
    {
      "channel": 4,
      "note": 110,
      "start": 5.119,
      "duration": 0.2013,
      "velocity": 107,
      "chip": "ym2612"
    },
    {
      "channel": 4,
      "note": 110,
      "start": 5.3205,
      "duration": 0.102,
      "velocity": 107,
      "chip": "ym2612"
    },
    {
      "channel": 1,
      "note": 67,
      "start": 5.4204,
      "duration": 0.2386,
      "velocity": 102,
      "chip": "ym2612"
    },
    {
      "channel": 4,
      "note": 110,
      "start": 5.4227,
      "duration": 0.1589,
      "velocity": 107,
      "chip": "ym2612"
    },
    {
      "channel": 2,
      "note": 67,
      "start": 5.5812,
      "duration": 0.2234,
      "velocity": 102,
      "chip": "ym2612"
    },
    {
      "channel": 4,
      "note": 110,
      "start": 5.5818,
      "duration": 0.0795,
      "velocity": 107,
      "chip": "ym2612"
    },
    {
      "channel": 0,
      "note": 43,
      "start": 5.6586,
      "duration": 0.2256,
      "velocity": 127,
      "chip": "ym2612"
    },
    {
      "channel": 1,
      "note": 70,
      "start": 5.6591,
      "duration": 0.1449,
      "velocity": 102,
      "chip": "ym2612"
    },
    {
      "channel": 4,
      "note": 110,
      "start": 5.6615,
      "duration": 0.1453,
      "velocity": 107,
      "chip": "ym2612"
    },
    {
      "channel": 1,
      "note": 67,
      "start": 5.8042,
      "duration": 0.0805,
      "velocity": 102,
      "chip": "ym2612"
    },
    {
      "channel": 2,
      "note": 70,
      "start": 5.8048,
      "duration": 0.1553,
      "velocity": 102,
      "chip": "ym2612"
    },
    {
      "channel": 4,
      "note": 110,
      "start": 5.8069,
      "duration": 0.0785,
      "velocity": 107,
      "chip": "ym2612"
    },
    {
      "channel": 0,
      "note": 53,
      "start": 5.8843,
      "duration": 0.1752,
      "velocity": 127,
      "chip": "ym2612"
    },
    {
      "channel": 1,
      "note": 74,
      "start": 5.8849,
      "duration": 0.1752,
      "velocity": 102,
      "chip": "ym2612"
    },
    {
      "channel": 4,
      "note": 110,
      "start": 5.8856,
      "duration": 0.1757,
      "velocity": 107,
      "chip": "ym2612"
    },
    {
      "channel": 2,
      "note": 67,
      "start": 5.9603,
      "duration": 0.1003,
      "velocity": 102,
      "chip": "ym2612"
    },
    {
      "channel": 0,
      "note": 50,
      "start": 6.0597,
      "duration": 0.0731,
      "velocity": 127,
      "chip": "ym2612"
    },
    {
      "channel": 1,
      "note": 73,
      "start": 6.0602,
      "duration": 0.2307,
      "velocity": 102,
      "chip": "ym2612"
    },
    {
      "channel": 2,
      "note": 74,
      "start": 6.0608,
      "duration": 0.1501,
      "velocity": 102,
      "chip": "ym2612"
    },
    {
      "channel": 4,
      "note": 110,
      "start": 6.0615,
      "duration": 0.0737,
      "velocity": 107,
      "chip": "ym2612"
    },
    {
      "channel": 0,
      "note": 55,
      "start": 6.133,
      "duration": 0.5375,
      "velocity": 127,
      "chip": "ym2612"
    },
    {
      "channel": 4,
      "note": 110,
      "start": 6.1353,
      "duration": 0.1578,
      "velocity": 107,
      "chip": "ym2612"
    },
    {
      "channel": 2,
      "note": 73,
      "start": 6.2111,
      "duration": 0.2798,
      "velocity": 102,
      "chip": "ym2612"
    },
    {
      "channel": 1,
      "note": 74,
      "start": 6.291,
      "duration": 0.0998,
      "velocity": 102,
      "chip": "ym2612"
    },
    {
      "channel": 4,
      "note": 110,
      "start": 6.2933,
      "duration": 0.0981,
      "velocity": 107,
      "chip": "ym2612"
    },
    {
      "channel": 1,
      "note": 77,
      "start": 6.391,
      "duration": 0.1999,
      "velocity": 102,
      "chip": "ym2612"
    },
    {
      "channel": 4,
      "note": 110,
      "start": 6.3916,
      "duration": 0.2004,
      "velocity": 107,
      "chip": "ym2612"
    },
    {
      "channel": 2,
      "note": 74,
      "start": 6.491,
      "duration": 0.1004,
      "velocity": 102,
      "chip": "ym2612"
    },
    {
      "channel": 1,
      "note": 67,
      "start": 6.591,
      "duration": 0.0801,
      "velocity": 102,
      "chip": "ym2612"
    },
    {
      "channel": 2,
      "note": 77,
      "start": 6.5915,
      "duration": 0.1515,
      "velocity": 102,
      "chip": "ym2612"
    },
    {
      "channel": 4,
      "note": 110,
      "start": 6.5922,
      "duration": 0.0796,
      "velocity": 107,
      "chip": "ym2612"
    },
    {
      "channel": 0,
      "note": 31,
      "start": 6.6707,
      "duration": 0.1464,
      "velocity": 127,
      "chip": "ym2612"
    },
    {
      "channel": 1,
      "note": 73,
      "start": 6.6712,
      "duration": 0.1465,
      "velocity": 102,
      "chip": "ym2612"
    },
    {
      "channel": 4,
      "note": 110,
      "start": 6.6719,
      "duration": 0.1469,
      "velocity": 107,
      "chip": "ym2612"
    },
    {
      "channel": 2,
      "note": 67,
      "start": 6.7432,
      "duration": 0.075,
      "velocity": 102,
      "chip": "ym2612"
    },
    {
      "channel": 0,
      "note": 46,
      "start": 6.8173,
      "duration": 0.0955,
      "velocity": 127,
      "chip": "ym2612"
    },
    {
      "channel": 1,
      "note": 74,
      "start": 6.8179,
      "duration": 0.2543,
      "velocity": 102,
      "chip": "ym2612"
    },
    {
      "channel": 2,
      "note": 73,
      "start": 6.8184,
      "duration": 0.1723,
      "velocity": 102,
      "chip": "ym2612"
    },
    {
      "channel": 4,
      "note": 110,
      "start": 6.819,
      "duration": 0.0977,
      "velocity": 107,
      "chip": "ym2612"
    },
    {
      "channel": 0,
      "note": 58,
      "start": 6.9129,
      "duration": 0.1571,
      "velocity": 127,
      "chip": "ym2612"
    },
    {
      "channel": 4,
      "note": 110,
      "start": 6.9169,
      "duration": 0.1592,
      "velocity": 107,
      "chip": "ym2612"
    },
    {
      "channel": 2,
      "note": 74,
      "start": 6.9909,
      "duration": 0.2808,
      "velocity": 102,
      "chip": "ym2612"
    },
    {
      "channel": 0,
      "note": 58,
      "start": 7.0702,
      "duration": 0.6395,
      "velocity": 127,
      "chip": "ym2612"
    },
    {
      "channel": 1,
      "note": 74,
      "start": 7.0723,
      "duration": 0.2994,
      "velocity": 102,
      "chip": "ym2612"
    },
    {
      "channel": 4,
      "note": 110,
      "start": 7.0763,
      "duration": 0.0957,
      "velocity": 107,
      "chip": "ym2612"
    },
    {
      "channel": 4,
      "note": 110,
      "start": 7.172,
      "duration": 0.2019,
      "velocity": 107,
      "chip": "ym2612"
    },
    {
      "channel": 2,
      "note": 74,
      "start": 7.2719,
      "duration": 0.2783,
      "velocity": 102,
      "chip": "ym2612"
    },
    {
      "channel": 1,
      "note": 74,
      "start": 7.3718,
      "duration": 0.0983,
      "velocity": 102,
      "chip": "ym2612"
    },
    {
      "channel": 4,
      "note": 110,
      "start": 7.3741,
      "duration": 0.0966,
      "velocity": 107,
      "chip": "ym2612"
    },
    {
      "channel": 1,
      "note": 77,
      "start": 7.4702,
      "duration": 0.1585,
      "velocity": 102,
      "chip": "ym2612"
    },
    {
      "channel": 4,
      "note": 110,
      "start": 7.4709,
      "duration": 0.159,
      "velocity": 107,
      "chip": "ym2612"
    },
    {
      "channel": 2,
      "note": 74,
      "start": 7.5504,
      "duration": 0.0789,
      "velocity": 102,
      "chip": "ym2612"
    },
    {
      "channel": 1,
      "note": 67,
      "start": 7.6289,
      "duration": 0.0812,
      "velocity": 102,
      "chip": "ym2612"
    },
    {
      "channel": 2,
      "note": 77,
      "start": 7.6294,
      "duration": 0.1525,
      "velocity": 102,
      "chip": "ym2612"
    },
    {
      "channel": 4,
      "note": 110,
      "start": 7.6301,
      "duration": 0.0824,
      "velocity": 107,
      "chip": "ym2612"
    },
    {
      "channel": 0,
      "note": 43,
      "start": 7.7098,
      "duration": 0.5164,
      "velocity": 127,
      "chip": "ym2612"
    },
    {
      "channel": 1,
      "note": 73,
      "start": 7.7103,
      "duration": 0.1445,
      "velocity": 102,
      "chip": "ym2612"
    },
    {
      "channel": 4,
      "note": 110,
      "start": 7.7126,
      "duration": 0.145,
      "velocity": 107,
      "chip": "ym2612"
    },
    {
      "channel": 2,
      "note": 67,
      "start": 7.7822,
      "duration": 0.0732,
      "velocity": 102,
      "chip": "ym2612"
    },
    {
      "channel": 1,
      "note": 74,
      "start": 7.855,
      "duration": 0.0963,
      "velocity": 102,
      "chip": "ym2612"
    },
    {
      "channel": 2,
      "note": 73,
      "start": 7.8556,
      "duration": 0.1958,
      "velocity": 102,
      "chip": "ym2612"
    },
    {
      "channel": 4,
      "note": 110,
      "start": 7.8578,
      "duration": 0.0943,
      "velocity": 107,
      "chip": "ym2612"
    },
    {
      "channel": 1,
      "note": 65,
      "start": 7.9515,
      "duration": 0.1999,
      "velocity": 102,
      "chip": "ym2612"
    },
    {
      "channel": 4,
      "note": 110,
      "start": 7.9522,
      "duration": 0.2003,
      "velocity": 107,
      "chip": "ym2612"
    },
    {
      "channel": 2,
      "note": 74,
      "start": 8.0516,
      "duration": 0.1004,
      "velocity": 102,
      "chip": "ym2612"
    },
    {
      "channel": 1,
      "note": 64,
      "start": 8.1516,
      "duration": 2.1253,
      "velocity": 114,
      "chip": "ym2612"
    },
    {
      "channel": 2,
      "note": 65,
      "start": 8.1521,
      "duration": 0.1498,
      "velocity": 102,
      "chip": "ym2612"
    },
    {
      "channel": 4,
      "note": 110,
      "start": 8.1527,
      "duration": 0.0758,
      "velocity": 107,
      "chip": "ym2612"
    },
    {
      "channel": 0,
      "note": 55,
      "start": 8.2263,
      "duration": 0.537,
      "velocity": 127,
      "chip": "ym2612"
    },
    {
      "channel": 4,
      "note": 110,
      "start": 8.2287,
      "duration": 0.1558,
      "velocity": 107,
      "chip": "ym2612"
    },
    {
      "channel": 2,
      "note": 64,
      "start": 8.3021,
      "duration": 1.9769,
      "velocity": 114,
      "chip": "ym2612"
    },
    {
      "channel": 4,
      "note": 110,
      "start": 8.3847,
      "duration": 0.0982,
      "velocity": 107,
      "chip": "ym2612"
    },
    {
      "channel": 4,
      "note": 110,
      "start": 8.4831,
      "duration": 0.2015,
      "velocity": 107,
      "chip": "ym2612"
    },
    {
      "channel": 4,
      "note": 110,
      "start": 8.6847,
      "duration": 0.0794,
      "velocity": 107,
      "chip": "ym2612"
    },
    {
      "channel": 0,
      "note": 43,
      "start": 8.7635,
      "duration": 0.1459,
      "velocity": 127,
      "chip": "ym2612"
    },
    {
      "channel": 4,
      "note": 110,
      "start": 8.7643,
      "duration": 0.1459,
      "velocity": 107,
      "chip": "ym2612"
    },
    {
      "channel": 0,
      "note": 46,
      "start": 8.9097,
      "duration": 0.0957,
      "velocity": 127,
      "chip": "ym2612"
    },
    {
      "channel": 4,
      "note": 110,
      "start": 8.9104,
      "duration": 0.0973,
      "velocity": 107,
      "chip": "ym2612"
    },
    {
      "channel": 0,
      "note": 58,
      "start": 9.0055,
      "duration": 0.157,
      "velocity": 127,
      "chip": "ym2612"
    },
    {
      "channel": 4,
      "note": 110,
      "start": 9.0079,
      "duration": 0.157,
      "velocity": 107,
      "chip": "ym2612"
    },
    {
      "channel": 0,
      "note": 58,
      "start": 9.1627,
      "duration": 0.6381,
      "velocity": 127,
      "chip": "ym2612"
    },
    {
      "channel": 4,
      "note": 110,
      "start": 9.165,
      "duration": 0.0977,
      "velocity": 107,
      "chip": "ym2612"
    },
    {
      "channel": 4,
      "note": 110,
      "start": 9.2629,
      "duration": 0.2013,
      "velocity": 107,
      "chip": "ym2612"
    },
    {
      "channel": 4,
      "note": 110,
      "start": 9.4645,
      "duration": 0.0999,
      "velocity": 107,
      "chip": "ym2612"
    },
    {
      "channel": 4,
      "note": 110,
      "start": 9.5645,
      "duration": 0.1579,
      "velocity": 107,
      "chip": "ym2612"
    },
    {
      "channel": 4,
      "note": 110,
      "start": 9.7225,
      "duration": 0.0806,
      "velocity": 107,
      "chip": "ym2612"
    },
    {
      "channel": 0,
      "note": 43,
      "start": 9.801,
      "duration": 0.2249,
      "velocity": 127,
      "chip": "ym2612"
    },
    {
      "channel": 4,
      "note": 110,
      "start": 9.8033,
      "duration": 0.1446,
      "velocity": 107,
      "chip": "ym2612"
    },
    {
      "channel": 4,
      "note": 110,
      "start": 9.9481,
      "duration": 0.0785,
      "velocity": 107,
      "chip": "ym2612"
    },
    {
      "channel": 0,
      "note": 53,
      "start": 10.026,
      "duration": 0.1754,
      "velocity": 127,
      "chip": "ym2612"
    },
    {
      "channel": 4,
      "note": 110,
      "start": 10.0268,
      "duration": 0.1754,
      "velocity": 107,
      "chip": "ym2612"
    },
    {
      "channel": 0,
      "note": 50,
      "start": 10.2015,
      "duration": 0.0732,
      "velocity": 127,
      "chip": "ym2612"
    },
    {
      "channel": 4,
      "note": 110,
      "start": 10.2023,
      "duration": 0.0811,
      "velocity": 107,
      "chip": "ym2612"
    },
    {
      "channel": 0,
      "note": 55,
      "start": 10.2749,
      "duration": 0.5356,
      "velocity": 127,
      "chip": "ym2612"
    },
    {
      "channel": 1,
      "note": 91,
      "start": 10.277,
      "duration": 0.2555,
      "velocity": 114,
      "chip": "ym2612"
    },
    {
      "channel": 2,
      "note": 86,
      "start": 10.2792,
      "duration": 0.2539,
      "velocity": 114,
      "chip": "ym2612"
    },
    {
      "channel": 3,
      "note": 82,
      "start": 10.2814,
      "duration": 0.2522,
      "velocity": 114,
      "chip": "ym2612"
    },
    {
      "channel": 4,
      "note": 110,
      "start": 10.2835,
      "duration": 0.1507,
      "velocity": 107,
      "chip": "ym2612"
    },
    {
      "channel": 4,
      "note": 110,
      "start": 10.4344,
      "duration": 0.0998,
      "velocity": 107,
      "chip": "ym2612"
    },
    {
      "channel": 1,
      "note": 91,
      "start": 10.5327,
      "duration": 0.2783,
      "velocity": 114,
      "chip": "ym2612"
    },
    {
      "channel": 2,
      "note": 86,
      "start": 10.5332,
      "duration": 0.2784,
      "velocity": 114,
      "chip": "ym2612"
    },
    {
      "channel": 3,
      "note": 82,
      "start": 10.5338,
      "duration": 0.2784,
      "velocity": 114,
      "chip": "ym2612"
    },
    {
      "channel": 4,
      "note": 110,
      "start": 10.5344,
      "duration": 0.1983,
      "velocity": 107,
      "chip": "ym2612"
    },
    {
      "channel": 4,
      "note": 110,
      "start": 10.7328,
      "duration": 0.0799,
      "velocity": 107,
      "chip": "ym2612"
    },
    {
      "channel": 0,
      "note": 31,
      "start": 10.8107,
      "duration": 0.1464,
      "velocity": 127,
      "chip": "ym2612"
    },
    {
      "channel": 1,
      "note": 91,
      "start": 10.8112,
      "duration": 0.242,
      "velocity": 114,
      "chip": "ym2612"
    },
    {
      "channel": 2,
      "note": 86,
      "start": 10.8118,
      "duration": 0.242,
      "velocity": 114,
      "chip": "ym2612"
    },
    {
      "channel": 3,
      "note": 82,
      "start": 10.8124,
      "duration": 0.2419,
      "velocity": 114,
      "chip": "ym2612"
    },
    {
      "channel": 4,
      "note": 110,
      "start": 10.8129,
      "duration": 0.1449,
      "velocity": 107,
      "chip": "ym2612"
    },
    {
      "channel": 0,
      "note": 46,
      "start": 10.9572,
      "duration": 0.0954,
      "velocity": 127,
      "chip": "ym2612"
    },
    {
      "channel": 4,
      "note": 110,
      "start": 10.958,
      "duration": 0.0985,
      "velocity": 107,
      "chip": "ym2612"
    },
    {
      "channel": 0,
      "note": 58,
      "start": 11.0528,
      "duration": 0.1583,
      "velocity": 127,
      "chip": "ym2612"
    },
    {
      "channel": 1,
      "note": 91,
      "start": 11.0534,
      "duration": 0.2579,
      "velocity": 114,
      "chip": "ym2612"
    },
    {
      "channel": 2,
      "note": 86,
      "start": 11.0539,
      "duration": 0.258,
      "velocity": 114,
      "chip": "ym2612"
    },
    {
      "channel": 3,
      "note": 82,
      "start": 11.0545,
      "duration": 0.258,
      "velocity": 114,
      "chip": "ym2612"
    },
    {
      "channel": 4,
      "note": 110,
      "start": 11.0567,
      "duration": 0.1568,
      "velocity": 107,
      "chip": "ym2612"
    },
    {
      "channel": 0,
      "note": 58,
      "start": 11.2114,
      "duration": 0.6377,
      "velocity": 127,
      "chip": "ym2612"
    },
    {
      "channel": 4,
      "note": 110,
      "start": 11.2137,
      "duration": 0.0994,
      "velocity": 107,
      "chip": "ym2612"
    },
    {
      "channel": 1,
      "note": 91,
      "start": 11.3115,
      "duration": 0.2998,
      "velocity": 114,
      "chip": "ym2612"
    },
    {
      "channel": 2,
      "note": 86,
      "start": 11.3121,
      "duration": 0.2998,
      "velocity": 114,
      "chip": "ym2612"
    },
    {
      "channel": 3,
      "note": 82,
      "start": 11.3127,
      "duration": 0.2998,
      "velocity": 114,
      "chip": "ym2612"
    },
    {
      "channel": 4,
      "note": 110,
      "start": 11.3132,
      "duration": 0.1982,
      "velocity": 107,
      "chip": "ym2612"
    },
    {
      "channel": 4,
      "note": 110,
      "start": 11.5116,
      "duration": 0.1015,
      "velocity": 107,
      "chip": "ym2612"
    },
    {
      "channel": 1,
      "note": 91,
      "start": 11.6115,
      "duration": 0.2381,
      "velocity": 114,
      "chip": "ym2612"
    },
    {
      "channel": 2,
      "note": 86,
      "start": 11.6121,
      "duration": 0.238,
      "velocity": 114,
      "chip": "ym2612"
    },
    {
      "channel": 3,
      "note": 82,
      "start": 11.6127,
      "duration": 0.2381,
      "velocity": 114,
      "chip": "ym2612"
    },
    {
      "channel": 4,
      "note": 110,
      "start": 11.6132,
      "duration": 0.1579,
      "velocity": 107,
      "chip": "ym2612"
    },
    {
      "channel": 4,
      "note": 110,
      "start": 11.7713,
      "duration": 0.0815,
      "velocity": 107,
      "chip": "ym2612"
    },
    {
      "channel": 0,
      "note": 43,
      "start": 11.8492,
      "duration": 0.5178,
      "velocity": 127,
      "chip": "ym2612"
    },
    {
      "channel": 1,
      "note": 91,
      "start": 11.8498,
      "duration": 0.1447,
      "velocity": 114,
      "chip": "ym2612"
    },
    {
      "channel": 2,
      "note": 86,
      "start": 11.8503,
      "duration": 0.1447,
      "velocity": 114,
      "chip": "ym2612"
    },
    {
      "channel": 3,
      "note": 82,
      "start": 11.8509,
      "duration": 0.1446,
      "velocity": 114,
      "chip": "ym2612"
    },
    {
      "channel": 4,
      "note": 110,
      "start": 11.853,
      "duration": 0.1447,
      "velocity": 107,
      "chip": "ym2612"
    },
    {
      "channel": 1,
      "note": 89,
      "start": 11.9946,
      "duration": 0.2964,
      "velocity": 114,
      "chip": "ym2612"
    },
    {
      "channel": 2,
      "note": 86,
      "start": 11.9952,
      "duration": 0.2965,
      "velocity": 114,
      "chip": "ym2612"
    },
    {
      "channel": 3,
      "note": 79,
      "start": 11.9957,
      "duration": 0.2981,
      "velocity": 102,
      "chip": "ym2612"
    },
    {
      "channel": 4,
      "note": 110,
      "start": 11.9979,
      "duration": 0.0934,
      "velocity": 107,
      "chip": "ym2612"
    },
    {
      "channel": 4,
      "note": 110,
      "start": 12.0915,
      "duration": 0.2029,
      "velocity": 107,
      "chip": "ym2612"
    },
    {
      "channel": 1,
      "note": 88,
      "start": 12.2913,
      "duration": 1.4106,
      "velocity": 102,
      "chip": "ym2612"
    },
    {
      "channel": 2,
      "note": 84,
      "start": 12.2919,
      "duration": 1.5683,
      "velocity": 102,
      "chip": "ym2612"
    },
    {
      "channel": 3,
      "note": 72,
      "start": 12.294,
      "duration": 0.0014,
      "velocity": 102,
      "chip": "ym2612"
    },
    {
      "channel": 4,
      "note": 110,
      "start": 12.2946,
      "duration": 0.0752,
      "velocity": 107,
      "chip": "ym2612"
    },
    {
      "channel": 3,
      "note": 72,
      "start": 12.2954,
      "duration": 0.0112,
      "velocity": 102,
      "chip": "ym2612"
    },
    {
      "channel": 3,
      "note": 73,
      "start": 12.3065,
      "duration": 0.0146,
      "velocity": 102,
      "chip": "ym2612"
    },
    {
      "channel": 3,
      "note": 73,
      "start": 12.3212,
      "duration": 0.0146,
      "velocity": 102,
      "chip": "ym2612"
    },
    {
      "channel": 3,
      "note": 73,
      "start": 12.3357,
      "duration": 0.0145,
      "velocity": 102,
      "chip": "ym2612"
    },
    {
      "channel": 3,
      "note": 74,
      "start": 12.3502,
      "duration": 0.0175,
      "velocity": 102,
      "chip": "ym2612"
    },
    {
      "channel": 0,
      "note": 55,
      "start": 12.3672,
      "duration": 0.5335,
      "velocity": 127,
      "chip": "ym2612"
    },
    {
      "channel": 3,
      "note": 74,
      "start": 12.3678,
      "duration": 0.1581,
      "velocity": 102,
      "chip": "ym2612"
    },
    {
      "channel": 4,
      "note": 110,
      "start": 12.37,
      "duration": 0.1581,
      "velocity": 107,
      "chip": "ym2612"
    },
    {
      "channel": 3,
      "note": 72,
      "start": 12.5262,
      "duration": 0.0967,
      "velocity": 102,
      "chip": "ym2612"
    },
    {
      "channel": 4,
      "note": 110,
      "start": 12.5283,
      "duration": 0.0951,
      "velocity": 107,
      "chip": "ym2612"
    },
    {
      "channel": 3,
      "note": 70,
      "start": 12.623,
      "duration": 0.1998,
      "velocity": 102,
      "chip": "ym2612"
    },
    {
      "channel": 4,
      "note": 110,
      "start": 12.6236,
      "duration": 0.1998,
      "velocity": 107,
      "chip": "ym2612"
    },
    {
      "channel": 3,
      "note": 72,
      "start": 12.823,
      "duration": 0.2244,
      "velocity": 102,
      "chip": "ym2612"
    },
    {
      "channel": 4,
      "note": 110,
      "start": 12.8235,
      "duration": 0.0779,
      "velocity": 107,
      "chip": "ym2612"
    },
    {
      "channel": 0,
      "note": 43,
      "start": 12.9009,
      "duration": 0.1458,
      "velocity": 127,
      "chip": "ym2612"
    },
    {
      "channel": 4,
      "note": 110,
      "start": 12.9016,
      "duration": 0.1463,
      "velocity": 107,
      "chip": "ym2612"
    },
    {
      "channel": 0,
      "note": 46,
      "start": 13.0468,
      "duration": 0.0957,
      "velocity": 127,
      "chip": "ym2612"
    },
    {
      "channel": 3,
      "note": 74,
      "start": 13.0475,
      "duration": 0.255,
      "velocity": 102,
      "chip": "ym2612"
    },
    {
      "channel": 4,
      "note": 110,
      "start": 13.048,
      "duration": 0.0985,
      "velocity": 107,
      "chip": "ym2612"
    },
    {
      "channel": 0,
      "note": 58,
      "start": 13.1427,
      "duration": 0.1575,
      "velocity": 127,
      "chip": "ym2612"
    },
    {
      "channel": 4,
      "note": 110,
      "start": 13.1468,
      "duration": 0.1578,
      "velocity": 107,
      "chip": "ym2612"
    },
    {
      "channel": 0,
      "note": 58,
      "start": 13.3003,
      "duration": 0.6371,
      "velocity": 127,
      "chip": "ym2612"
    },
    {
      "channel": 3,
      "note": 77,
      "start": 13.3026,
      "duration": 0.2994,
      "velocity": 102,
      "chip": "ym2612"
    },
    {
      "channel": 4,
      "note": 110,
      "start": 13.3048,
      "duration": 0.0972,
      "velocity": 107,
      "chip": "ym2612"
    },
    {
      "channel": 4,
      "note": 110,
      "start": 13.4022,
      "duration": 0.2019,
      "velocity": 107,
      "chip": "ym2612"
    },
    {
      "channel": 3,
      "note": 74,
      "start": 13.6021,
      "duration": 0.1003,
      "velocity": 102,
      "chip": "ym2612"
    },
    {
      "channel": 4,
      "note": 110,
      "start": 13.6043,
      "duration": 0.1003,
      "velocity": 107,
      "chip": "ym2612"
    },
    {
      "channel": 1,
      "note": 67,
      "start": 13.702,
      "duration": 0.2359,
      "velocity": 102,
      "chip": "ym2612"
    },
    {
      "channel": 3,
      "note": 70,
      "start": 13.7026,
      "duration": 0.1581,
      "velocity": 102,
      "chip": "ym2612"
    },
    {
      "channel": 4,
      "note": 110,
      "start": 13.7048,
      "duration": 0.1566,
      "velocity": 107,
      "chip": "ym2612"
    },
    {
      "channel": 2,
      "note": 67,
      "start": 13.8604,
      "duration": 0.2224,
      "velocity": 102,
      "chip": "ym2612"
    },
    {
      "channel": 3,
      "note": 72,
      "start": 13.861,
      "duration": 0.2224,
      "velocity": 102,
      "chip": "ym2612"
    },
    {
      "channel": 4,
      "note": 110,
      "start": 13.8615,
      "duration": 0.0787,
      "velocity": 107,
      "chip": "ym2612"
    },
    {
      "channel": 0,
      "note": 43,
      "start": 13.9376,
      "duration": 0.2249,
      "velocity": 127,
      "chip": "ym2612"
    },
    {
      "channel": 1,
      "note": 70,
      "start": 13.9381,
      "duration": 0.1442,
      "velocity": 102,
      "chip": "ym2612"
    },
    {
      "channel": 4,
      "note": 110,
      "start": 13.9404,
      "duration": 0.1451,
      "velocity": 107,
      "chip": "ym2612"
    },
    {
      "channel": 1,
      "note": 67,
      "start": 14.0824,
      "duration": 0.0806,
      "velocity": 102,
      "chip": "ym2612"
    },
    {
      "channel": 2,
      "note": 70,
      "start": 14.083,
      "duration": 0.1575,
      "velocity": 102,
      "chip": "ym2612"
    },
    {
      "channel": 3,
      "note": 74,
      "start": 14.0836,
      "duration": 0.08,
      "velocity": 102,
      "chip": "ym2612"
    },
    {
      "channel": 4,
      "note": 110,
      "start": 14.0857,
      "duration": 0.0785,
      "velocity": 107,
      "chip": "ym2612"
    },
    {
      "channel": 0,
      "note": 53,
      "start": 14.1626,
      "duration": 0.1774,
      "velocity": 127,
      "chip": "ym2612"
    },
    {
      "channel": 1,
      "note": 74,
      "start": 14.1631,
      "duration": 0.1774,
      "velocity": 102,
      "chip": "ym2612"
    },
    {
      "channel": 3,
      "note": 77,
      "start": 14.1638,
      "duration": 0.2501,
      "velocity": 102,
      "chip": "ym2612"
    },
    {
      "channel": 4,
      "note": 110,
      "start": 14.1644,
      "duration": 0.1774,
      "velocity": 107,
      "chip": "ym2612"
    },
    {
      "channel": 2,
      "note": 67,
      "start": 14.2407,
      "duration": 0.1004,
      "velocity": 102,
      "chip": "ym2612"
    },
    {
      "channel": 0,
      "note": 50,
      "start": 14.3402,
      "duration": 0.0729,
      "velocity": 127,
      "chip": "ym2612"
    },
    {
      "channel": 1,
      "note": 73,
      "start": 14.3407,
      "duration": 0.2311,
      "velocity": 102,
      "chip": "ym2612"
    },
    {
      "channel": 2,
      "note": 74,
      "start": 14.3413,
      "duration": 0.15,
      "velocity": 102,
      "chip": "ym2612"
    },
    {
      "channel": 4,
      "note": 110,
      "start": 14.3419,
      "duration": 0.0741,
      "velocity": 107,
      "chip": "ym2612"
    },
    {
      "channel": 0,
      "note": 55,
      "start": 14.4133,
      "duration": 0.5372,
      "velocity": 127,
      "chip": "ym2612"
    },
    {
      "channel": 3,
      "note": 79,
      "start": 14.414,
      "duration": 2.5553,
      "velocity": 1,
      "chip": "ym2612"
    },
    {
      "channel": 4,
      "note": 110,
      "start": 14.4162,
      "duration": 0.1578,
      "velocity": 107,
      "chip": "ym2612"
    },
    {
      "channel": 2,
      "note": 73,
      "start": 14.4915,
      "duration": 0.2804,
      "velocity": 102,
      "chip": "ym2612"
    },
    {
      "channel": 1,
      "note": 74,
      "start": 14.5719,
      "duration": 0.0998,
      "velocity": 102,
      "chip": "ym2612"
    },
    {
      "channel": 4,
      "note": 110,
      "start": 14.5742,
      "duration": 0.0981,
      "velocity": 107,
      "chip": "ym2612"
    },
    {
      "channel": 1,
      "note": 77,
      "start": 14.6719,
      "duration": 0.2,
      "velocity": 102,
      "chip": "ym2612"
    },
    {
      "channel": 4,
      "note": 110,
      "start": 14.6725,
      "duration": 0.2004,
      "velocity": 107,
      "chip": "ym2612"
    },
    {
      "channel": 2,
      "note": 74,
      "start": 14.772,
      "duration": 0.1003,
      "velocity": 102,
      "chip": "ym2612"
    },
    {
      "channel": 1,
      "note": 67,
      "start": 14.8719,
      "duration": 0.0791,
      "velocity": 102,
      "chip": "ym2612"
    },
    {
      "channel": 2,
      "note": 77,
      "start": 14.8725,
      "duration": 0.1504,
      "velocity": 102,
      "chip": "ym2612"
    },
    {
      "channel": 4,
      "note": 110,
      "start": 14.8732,
      "duration": 0.0786,
      "velocity": 107,
      "chip": "ym2612"
    },
    {
      "channel": 0,
      "note": 31,
      "start": 14.9507,
      "duration": 0.1462,
      "velocity": 127,
      "chip": "ym2612"
    },
    {
      "channel": 1,
      "note": 73,
      "start": 14.9512,
      "duration": 0.1462,
      "velocity": 102,
      "chip": "ym2612"
    },
    {
      "channel": 4,
      "note": 110,
      "start": 14.9519,
      "duration": 0.1467,
      "velocity": 107,
      "chip": "ym2612"
    },
    {
      "channel": 2,
      "note": 67,
      "start": 15.0231,
      "duration": 0.0748,
      "velocity": 102,
      "chip": "ym2612"
    },
    {
      "channel": 0,
      "note": 46,
      "start": 15.0971,
      "duration": 0.0951,
      "velocity": 127,
      "chip": "ym2612"
    },
    {
      "channel": 1,
      "note": 74,
      "start": 15.0976,
      "duration": 0.2566,
      "velocity": 102,
      "chip": "ym2612"
    },
    {
      "channel": 2,
      "note": 73,
      "start": 15.0981,
      "duration": 0.173,
      "velocity": 102,
      "chip": "ym2612"
    },
    {
      "channel": 4,
      "note": 110,
      "start": 15.0988,
      "duration": 0.0975,
      "velocity": 107,
      "chip": "ym2612"
    },
    {
      "channel": 0,
      "note": 58,
      "start": 15.1924,
      "duration": 0.1596,
      "velocity": 127,
      "chip": "ym2612"
    },
    {
      "channel": 4,
      "note": 110,
      "start": 15.1963,
      "duration": 0.1617,
      "velocity": 107,
      "chip": "ym2612"
    },
    {
      "channel": 2,
      "note": 74,
      "start": 15.2713,
      "duration": 0.2824,
      "velocity": 102,
      "chip": "ym2612"
    },
    {
      "channel": 0,
      "note": 58,
      "start": 15.3522,
      "duration": 0.6392,
      "velocity": 127,
      "chip": "ym2612"
    },
    {
      "channel": 1,
      "note": 74,
      "start": 15.3543,
      "duration": 0.2994,
      "velocity": 102,
      "chip": "ym2612"
    },
    {
      "channel": 4,
      "note": 110,
      "start": 15.3583,
      "duration": 0.0957,
      "velocity": 107,
      "chip": "ym2612"
    },
    {
      "channel": 4,
      "note": 110,
      "start": 15.454,
      "duration": 0.2019,
      "velocity": 107,
      "chip": "ym2612"
    },
    {
      "channel": 2,
      "note": 74,
      "start": 15.5539,
      "duration": 0.2785,
      "velocity": 102,
      "chip": "ym2612"
    },
    {
      "channel": 1,
      "note": 74,
      "start": 15.6538,
      "duration": 0.0983,
      "velocity": 102,
      "chip": "ym2612"
    },
    {
      "channel": 4,
      "note": 110,
      "start": 15.6561,
      "duration": 0.0966,
      "velocity": 107,
      "chip": "ym2612"
    },
    {
      "channel": 1,
      "note": 77,
      "start": 15.7522,
      "duration": 0.1586,
      "velocity": 102,
      "chip": "ym2612"
    },
    {
      "channel": 4,
      "note": 110,
      "start": 15.7529,
      "duration": 0.1592,
      "velocity": 107,
      "chip": "ym2612"
    },
    {
      "channel": 2,
      "note": 74,
      "start": 15.8325,
      "duration": 0.079,
      "velocity": 102,
      "chip": "ym2612"
    },
    {
      "channel": 1,
      "note": 67,
      "start": 15.9111,
      "duration": 0.0808,
      "velocity": 102,
      "chip": "ym2612"
    },
    {
      "channel": 2,
      "note": 77,
      "start": 15.9116,
      "duration": 0.1521,
      "velocity": 102,
      "chip": "ym2612"
    },
    {
      "channel": 4,
      "note": 110,
      "start": 15.9122,
      "duration": 0.082,
      "velocity": 107,
      "chip": "ym2612"
    },
    {
      "channel": 0,
      "note": 43,
      "start": 15.9915,
      "duration": 0.5164,
      "velocity": 127,
      "chip": "ym2612"
    },
    {
      "channel": 1,
      "note": 73,
      "start": 15.9921,
      "duration": 0.1444,
      "velocity": 102,
      "chip": "ym2612"
    },
    {
      "channel": 4,
      "note": 110,
      "start": 15.9943,
      "duration": 0.1449,
      "velocity": 107,
      "chip": "ym2612"
    },
    {
      "channel": 2,
      "note": 67,
      "start": 16.0639,
      "duration": 0.0732,
      "velocity": 102,
      "chip": "ym2612"
    },
    {
      "channel": 1,
      "note": 74,
      "start": 16.1366,
      "duration": 0.0964,
      "velocity": 102,
      "chip": "ym2612"
    },
    {
      "channel": 2,
      "note": 73,
      "start": 16.1372,
      "duration": 0.1958,
      "velocity": 102,
      "chip": "ym2612"
    },
    {
      "channel": 4,
      "note": 110,
      "start": 16.1394,
      "duration": 0.0943,
      "velocity": 107,
      "chip": "ym2612"
    },
    {
      "channel": 1,
      "note": 65,
      "start": 16.2331,
      "duration": 0.1999,
      "velocity": 102,
      "chip": "ym2612"
    },
    {
      "channel": 4,
      "note": 110,
      "start": 16.2338,
      "duration": 0.2004,
      "velocity": 107,
      "chip": "ym2612"
    },
    {
      "channel": 2,
      "note": 74,
      "start": 16.3332,
      "duration": 0.1004,
      "velocity": 102,
      "chip": "ym2612"
    },
    {
      "channel": 1,
      "note": 64,
      "start": 16.4332,
      "duration": 2.1244,
      "velocity": 102,
      "chip": "ym2612"
    },
    {
      "channel": 2,
      "note": 65,
      "start": 16.4338,
      "duration": 0.1513,
      "velocity": 102,
      "chip": "ym2612"
    },
    {
      "channel": 4,
      "note": 110,
      "start": 16.4344,
      "duration": 0.0758,
      "velocity": 107,
      "chip": "ym2612"
    },
    {
      "channel": 0,
      "note": 55,
      "start": 16.5081,
      "duration": 0.5372,
      "velocity": 127,
      "chip": "ym2612"
    },
    {
      "channel": 4,
      "note": 110,
      "start": 16.5104,
      "duration": 0.1574,
      "velocity": 107,
      "chip": "ym2612"
    },
    {
      "channel": 2,
      "note": 64,
      "start": 16.5852,
      "duration": 1.9746,
      "velocity": 102,
      "chip": "ym2612"
    },
    {
      "channel": 4,
      "note": 110,
      "start": 16.6679,
      "duration": 0.0982,
      "velocity": 107,
      "chip": "ym2612"
    },
    {
      "channel": 4,
      "note": 110,
      "start": 16.7663,
      "duration": 0.2037,
      "velocity": 107,
      "chip": "ym2612"
    },
    {
      "channel": 3,
      "note": 67,
      "start": 16.9695,
      "duration": 0.078,
      "velocity": 117,
      "chip": "ym2612"
    },
    {
      "channel": 4,
      "note": 110,
      "start": 16.97,
      "duration": 0.0781,
      "velocity": 107,
      "chip": "ym2612"
    },
    {
      "channel": 0,
      "note": 43,
      "start": 17.0455,
      "duration": 0.1458,
      "velocity": 127,
      "chip": "ym2612"
    },
    {
      "channel": 3,
      "note": 60,
      "start": 17.0478,
      "duration": 1.5142,
      "velocity": 122,
      "chip": "ym2612"
    },
    {
      "channel": 4,
      "note": 110,
      "start": 17.0483,
      "duration": 0.1437,
      "velocity": 107,
      "chip": "ym2612"
    },
    {
      "channel": 0,
      "note": 46,
      "start": 17.1914,
      "duration": 0.0951,
      "velocity": 127,
      "chip": "ym2612"
    },
    {
      "channel": 4,
      "note": 110,
      "start": 17.1922,
      "duration": 0.0966,
      "velocity": 107,
      "chip": "ym2612"
    },
    {
      "channel": 0,
      "note": 58,
      "start": 17.2867,
      "duration": 0.1569,
      "velocity": 127,
      "chip": "ym2612"
    },
    {
      "channel": 4,
      "note": 110,
      "start": 17.289,
      "duration": 0.1568,
      "velocity": 107,
      "chip": "ym2612"
    },
    {
      "channel": 0,
      "note": 58,
      "start": 17.4437,
      "duration": 0.6376,
      "velocity": 127,
      "chip": "ym2612"
    },
    {
      "channel": 4,
      "note": 110,
      "start": 17.446,
      "duration": 0.0977,
      "velocity": 107,
      "chip": "ym2612"
    },
    {
      "channel": 4,
      "note": 110,
      "start": 17.5439,
      "duration": 0.2013,
      "velocity": 107,
      "chip": "ym2612"
    },
    {
      "channel": 4,
      "note": 110,
      "start": 17.7455,
      "duration": 0.0999,
      "velocity": 107,
      "chip": "ym2612"
    },
    {
      "channel": 4,
      "note": 110,
      "start": 17.8455,
      "duration": 0.1579,
      "velocity": 107,
      "chip": "ym2612"
    },
    {
      "channel": 4,
      "note": 110,
      "start": 18.0036,
      "duration": 0.08,
      "velocity": 107,
      "chip": "ym2612"
    },
    {
      "channel": 0,
      "note": 43,
      "start": 18.0814,
      "duration": 0.2244,
      "velocity": 127,
      "chip": "ym2612"
    },
    {
      "channel": 4,
      "note": 110,
      "start": 18.0838,
      "duration": 0.1451,
      "velocity": 107,
      "chip": "ym2612"
    },
    {
      "channel": 4,
      "note": 110,
      "start": 18.229,
      "duration": 0.0775,
      "velocity": 107,
      "chip": "ym2612"
    },
    {
      "channel": 0,
      "note": 53,
      "start": 18.3059,
      "duration": 0.1763,
      "velocity": 127,
      "chip": "ym2612"
    },
    {
      "channel": 4,
      "note": 110,
      "start": 18.3067,
      "duration": 0.1763,
      "velocity": 107,
      "chip": "ym2612"
    },
    {
      "channel": 0,
      "note": 50,
      "start": 18.4823,
      "duration": 0.0732,
      "velocity": 127,
      "chip": "ym2612"
    },
    {
      "channel": 4,
      "note": 110,
      "start": 18.4831,
      "duration": 0.0811,
      "velocity": 107,
      "chip": "ym2612"
    },
    {
      "channel": 0,
      "note": 60,
      "start": 18.5556,
      "duration": 0.6794,
      "velocity": 127,
      "chip": "ym2612"
    },
    {
      "channel": 1,
      "note": 72,
      "start": 18.5578,
      "duration": 0.1575,
      "velocity": 102,
      "chip": "ym2612"
    },
    {
      "channel": 2,
      "note": 67,
      "start": 18.5599,
      "duration": 0.1575,
      "velocity": 102,
      "chip": "ym2612"
    },
    {
      "channel": 3,
      "note": 36,
      "start": 18.5622,
      "duration": 0.2517,
      "velocity": 122,
      "chip": "ym2612"
    },
    {
      "channel": 4,
      "note": 110,
      "start": 18.5643,
      "duration": 0.1554,
      "velocity": 107,
      "chip": "ym2612"
    },
    {
      "channel": 1,
      "note": 72,
      "start": 18.7155,
      "duration": 0.5216,
      "velocity": 102,
      "chip": "ym2612"
    },
    {
      "channel": 2,
      "note": 67,
      "start": 18.7176,
      "duration": 0.5217,
      "velocity": 102,
      "chip": "ym2612"
    },
    {
      "channel": 4,
      "note": 110,
      "start": 18.7199,
      "duration": 0.0946,
      "velocity": 107,
      "chip": "ym2612"
    },
    {
      "channel": 3,
      "note": 48,
      "start": 18.8141,
      "duration": 0.1998,
      "velocity": 122,
      "chip": "ym2612"
    },
    {
      "channel": 4,
      "note": 110,
      "start": 18.8146,
      "duration": 0.1998,
      "velocity": 107,
      "chip": "ym2612"
    },
    {
      "channel": 3,
      "note": 36,
      "start": 19.014,
      "duration": 0.3208,
      "velocity": 122,
      "chip": "ym2612"
    },
    {
      "channel": 4,
      "note": 110,
      "start": 19.0146,
      "duration": 0.0758,
      "velocity": 107,
      "chip": "ym2612"
    },
    {
      "channel": 4,
      "note": 110,
      "start": 19.0905,
      "duration": 0.1494,
      "velocity": 107,
      "chip": "ym2612"
    },
    {
      "channel": 0,
      "note": 48,
      "start": 19.2352,
      "duration": 0.0979,
      "velocity": 127,
      "chip": "ym2612"
    },
    {
      "channel": 1,
      "note": 70,
      "start": 19.2373,
      "duration": 0.0963,
      "velocity": 102,
      "chip": "ym2612"
    },
    {
      "channel": 2,
      "note": 65,
      "start": 19.2395,
      "duration": 0.0948,
      "velocity": 102,
      "chip": "ym2612"
    },
    {
      "channel": 4,
      "note": 110,
      "start": 19.2401,
      "duration": 0.0968,
      "velocity": 107,
      "chip": "ym2612"
    },
    {
      "channel": 0,
      "note": 63,
      "start": 19.3333,
      "duration": 0.157,
      "velocity": 127,
      "chip": "ym2612"
    },
    {
      "channel": 1,
      "note": 67,
      "start": 19.3339,
      "duration": 0.0787,
      "velocity": 102,
      "chip": "ym2612"
    },
    {
      "channel": 2,
      "note": 60,
      "start": 19.3344,
      "duration": 0.0803,
      "velocity": 102,
      "chip": "ym2612"
    },
    {
      "channel": 3,
      "note": 48,
      "start": 19.335,
      "duration": 0.5555,
      "velocity": 122,
      "chip": "ym2612"
    },
    {
      "channel": 4,
      "note": 110,
      "start": 19.3371,
      "duration": 0.1596,
      "velocity": 107,
      "chip": "ym2612"
    },
    {
      "channel": 1,
      "note": 70,
      "start": 19.4127,
      "duration": 0.0798,
      "velocity": 102,
      "chip": "ym2612"
    },
    {
      "channel": 2,
      "note": 65,
      "start": 19.4148,
      "duration": 0.0797,
      "velocity": 102,
      "chip": "ym2612"
    },
    {
      "channel": 0,
      "note": 63,
      "start": 19.4904,
      "duration": 0.7844,
      "velocity": 127,
      "chip": "ym2612"
    },
    {
      "channel": 1,
      "note": 75,
      "start": 19.4925,
      "duration": 0.0994,
      "velocity": 102,
      "chip": "ym2612"
    },
    {
      "channel": 2,
      "note": 70,
      "start": 19.4947,
      "duration": 0.0993,
      "velocity": 102,
      "chip": "ym2612"
    },
    {
      "channel": 4,
      "note": 110,
      "start": 19.4969,
      "duration": 0.0978,
      "velocity": 107,
      "chip": "ym2612"
    },
    {
      "channel": 1,
      "note": 67,
      "start": 19.592,
      "duration": 0.0983,
      "velocity": 102,
      "chip": "ym2612"
    },
    {
      "channel": 2,
      "note": 60,
      "start": 19.5942,
      "duration": 0.0967,
      "velocity": 102,
      "chip": "ym2612"
    },
    {
      "channel": 4,
      "note": 110,
      "start": 19.5948,
      "duration": 0.1998,
      "velocity": 107,
      "chip": "ym2612"
    },
    {
      "channel": 1,
      "note": 75,
      "start": 19.6905,
      "duration": 0.1013,
      "velocity": 102,
      "chip": "ym2612"
    },
    {
      "channel": 2,
      "note": 70,
      "start": 19.6911,
      "duration": 0.1029,
      "velocity": 102,
      "chip": "ym2612"
    },
    {
      "channel": 1,
      "note": 72,
      "start": 19.792,
      "duration": 0.1782,
      "velocity": 102,
      "chip": "ym2612"
    },
    {
      "channel": 2,
      "note": 67,
      "start": 19.7941,
      "duration": 0.1782,
      "velocity": 102,
      "chip": "ym2612"
    },
    {
      "channel": 4,
      "note": 110,
      "start": 19.7948,
      "duration": 0.0962,
      "velocity": 107,
      "chip": "ym2612"
    },
    {
      "channel": 3,
      "note": 48,
      "start": 19.8906,
      "duration": 0.1591,
      "velocity": 122,
      "chip": "ym2612"
    },
    {
      "channel": 4,
      "note": 110,
      "start": 19.8912,
      "duration": 0.159,
      "velocity": 107,
      "chip": "ym2612"
    },
    {
      "channel": 1,
      "note": 72,
      "start": 19.9704,
      "duration": 0.935,
      "velocity": 102,
      "chip": "ym2612"
    },
    {
      "channel": 2,
      "note": 67,
      "start": 19.9726,
      "duration": 0.9349,
      "velocity": 102,
      "chip": "ym2612"
    },
    {
      "channel": 3,
      "note": 36,
      "start": 20.0499,
      "duration": 0.3232,
      "velocity": 122,
      "chip": "ym2612"
    },
    {
      "channel": 4,
      "note": 110,
      "start": 20.0504,
      "duration": 0.0802,
      "velocity": 107,
      "chip": "ym2612"
    },
    {
      "channel": 4,
      "note": 110,
      "start": 20.1308,
      "duration": 0.1463,
      "velocity": 107,
      "chip": "ym2612"
    },
    {
      "channel": 0,
      "note": 55,
      "start": 20.275,
      "duration": 0.0974,
      "velocity": 127,
      "chip": "ym2612"
    },
    {
      "channel": 4,
      "note": 110,
      "start": 20.2773,
      "duration": 0.0963,
      "velocity": 107,
      "chip": "ym2612"
    },
    {
      "channel": 0,
      "note": 58,
      "start": 20.3725,
      "duration": 0.1999,
      "velocity": 127,
      "chip": "ym2612"
    },
    {
      "channel": 3,
      "note": 48,
      "start": 20.3732,
      "duration": 0.2734,
      "velocity": 122,
      "chip": "ym2612"
    },
    {
      "channel": 4,
      "note": 110,
      "start": 20.3738,
      "duration": 0.1993,
      "velocity": 107,
      "chip": "ym2612"
    },
    {
      "channel": 0,
      "note": 55,
      "start": 20.5725,
      "duration": 0.0734,
      "velocity": 127,
      "chip": "ym2612"
    },
    {
      "channel": 4,
      "note": 110,
      "start": 20.5733,
      "duration": 0.0755,
      "velocity": 107,
      "chip": "ym2612"
    },
    {
      "channel": 0,
      "note": 60,
      "start": 20.6461,
      "duration": 0.6819,
      "velocity": 127,
      "chip": "ym2612"
    },
    {
      "channel": 3,
      "note": 36,
      "start": 20.6468,
      "duration": 0.2613,
      "velocity": 122,
      "chip": "ym2612"
    },
    {
      "channel": 4,
      "note": 110,
      "start": 20.649,
      "duration": 0.1565,
      "velocity": 107,
      "chip": "ym2612"
    },
    {
      "channel": 4,
      "note": 110,
      "start": 20.8057,
      "duration": 0.103,
      "velocity": 107,
      "chip": "ym2612"
    },
    {
      "channel": 1,
      "note": 72,
      "start": 20.9055,
      "duration": 0.1999,
      "velocity": 102,
      "chip": "ym2612"
    },
    {
      "channel": 2,
      "note": 67,
      "start": 20.9077,
      "duration": 0.1998,
      "velocity": 102,
      "chip": "ym2612"
    },
    {
      "channel": 3,
      "note": 48,
      "start": 20.9083,
      "duration": 0.1998,
      "velocity": 122,
      "chip": "ym2612"
    },
    {
      "channel": 4,
      "note": 110,
      "start": 20.9088,
      "duration": 0.1999,
      "velocity": 107,
      "chip": "ym2612"
    },
    {
      "channel": 1,
      "note": 72,
      "start": 21.1056,
      "duration": 0.0776,
      "velocity": 102,
      "chip": "ym2612"
    },
    {
      "channel": 2,
      "note": 67,
      "start": 21.1077,
      "duration": 0.0777,
      "velocity": 102,
      "chip": "ym2612"
    },
    {
      "channel": 3,
      "note": 36,
      "start": 21.1083,
      "duration": 0.3185,
      "velocity": 122,
      "chip": "ym2612"
    },
    {
      "channel": 4,
      "note": 110,
      "start": 21.1088,
      "duration": 0.0771,
      "velocity": 107,
      "chip": "ym2612"
    },
    {
      "channel": 1,
      "note": 75,
      "start": 21.1834,
      "duration": 0.1451,
      "velocity": 102,
      "chip": "ym2612"
    },
    {
      "channel": 2,
      "note": 70,
      "start": 21.1855,
      "duration": 0.1436,
      "velocity": 102,
      "chip": "ym2612"
    },
    {
      "channel": 4,
      "note": 110,
      "start": 21.1862,
      "duration": 0.1436,
      "velocity": 107,
      "chip": "ym2612"
    },
    {
      "channel": 0,
      "note": 48,
      "start": 21.3282,
      "duration": 0.0969,
      "velocity": 127,
      "chip": "ym2612"
    },
    {
      "channel": 1,
      "note": 72,
      "start": 21.3288,
      "duration": 0.0969,
      "velocity": 102,
      "chip": "ym2612"
    },
    {
      "channel": 2,
      "note": 67,
      "start": 21.3293,
      "duration": 0.0969,
      "velocity": 102,
      "chip": "ym2612"
    },
    {
      "channel": 4,
      "note": 110,
      "start": 21.33,
      "duration": 0.099,
      "velocity": 107,
      "chip": "ym2612"
    },
    {
      "channel": 0,
      "note": 65,
      "start": 21.4253,
      "duration": 0.1598,
      "velocity": 127,
      "chip": "ym2612"
    },
    {
      "channel": 1,
      "note": 77,
      "start": 21.4259,
      "duration": 0.1598,
      "velocity": 102,
      "chip": "ym2612"
    },
    {
      "channel": 2,
      "note": 72,
      "start": 21.4263,
      "duration": 0.1598,
      "velocity": 102,
      "chip": "ym2612"
    },
    {
      "channel": 3,
      "note": 48,
      "start": 21.4269,
      "duration": 0.5584,
      "velocity": 122,
      "chip": "ym2612"
    },
    {
      "channel": 4,
      "note": 110,
      "start": 21.4291,
      "duration": 0.1593,
      "velocity": 107,
      "chip": "ym2612"
    },
    {
      "channel": 0,
      "note": 66,
      "start": 21.5853,
      "duration": 0.2998,
      "velocity": 127,
      "chip": "ym2612"
    },
    {
      "channel": 1,
      "note": 78,
      "start": 21.5858,
      "duration": 0.2009,
      "velocity": 102,
      "chip": "ym2612"
    },
    {
      "channel": 2,
      "note": 73,
      "start": 21.5864,
      "duration": 0.2025,
      "velocity": 102,
      "chip": "ym2612"
    },
    {
      "channel": 4,
      "note": 110,
      "start": 21.5886,
      "duration": 0.0967,
      "velocity": 107,
      "chip": "ym2612"
    },
    {
      "channel": 4,
      "note": 110,
      "start": 21.6856,
      "duration": 0.206,
      "velocity": 107,
      "chip": "ym2612"
    },
    {
      "channel": 1,
      "note": 78,
      "start": 21.7869,
      "duration": 0.1003,
      "velocity": 102,
      "chip": "ym2612"
    },
    {
      "channel": 2,
      "note": 73,
      "start": 21.789,
      "duration": 0.1004,
      "velocity": 102,
      "chip": "ym2612"
    },
    {
      "channel": 0,
      "note": 65,
      "start": 21.8853,
      "duration": 0.2589,
      "velocity": 127,
      "chip": "ym2612"
    },
    {
      "channel": 1,
      "note": 77,
      "start": 21.8874,
      "duration": 0.1786,
      "velocity": 102,
      "chip": "ym2612"
    },
    {
      "channel": 2,
      "note": 72,
      "start": 21.8895,
      "duration": 0.1786,
      "velocity": 102,
      "chip": "ym2612"
    },
    {
      "channel": 4,
      "note": 110,
      "start": 21.8917,
      "duration": 0.0958,
      "velocity": 107,
      "chip": "ym2612"
    },
    {
      "channel": 3,
      "note": 48,
      "start": 21.9856,
      "duration": 0.1635,
      "velocity": 122,
      "chip": "ym2612"
    },
    {
      "channel": 4,
      "note": 110,
      "start": 21.9877,
      "duration": 0.1619,
      "velocity": 107,
      "chip": "ym2612"
    },
    {
      "channel": 1,
      "note": 77,
      "start": 22.0661,
      "duration": 0.0802,
      "velocity": 102,
      "chip": "ym2612"
    },
    {
      "channel": 2,
      "note": 72,
      "start": 22.0683,
      "duration": 0.0801,
      "velocity": 102,
      "chip": "ym2612"
    },
    {
      "channel": 0,
      "note": 63,
      "start": 22.1444,
      "duration": 0.2252,
      "velocity": 127,
      "chip": "ym2612"
    },
    {
      "channel": 1,
      "note": 75,
      "start": 22.1465,
      "duration": 0.1509,
      "velocity": 102,
      "chip": "ym2612"
    },
    {
      "channel": 2,
      "note": 70,
      "start": 22.1486,
      "duration": 0.1508,
      "velocity": 102,
      "chip": "ym2612"
    },
    {
      "channel": 3,
      "note": 36,
      "start": 22.1492,
      "duration": 0.2998,
      "velocity": 122,
      "chip": "ym2612"
    },
    {
      "channel": 4,
      "note": 110,
      "start": 22.1497,
      "duration": 0.0743,
      "velocity": 107,
      "chip": "ym2612"
    },
    {
      "channel": 4,
      "note": 110,
      "start": 22.2242,
      "duration": 0.1517,
      "velocity": 107,
      "chip": "ym2612"
    },
    {
      "channel": 1,
      "note": 75,
      "start": 22.2975,
      "duration": 0.0742,
      "velocity": 102,
      "chip": "ym2612"
    },
    {
      "channel": 2,
      "note": 70,
      "start": 22.2997,
      "duration": 0.0741,
      "velocity": 102,
      "chip": "ym2612"
    },
    {
      "channel": 0,
      "note": 60,
      "start": 22.3697,
      "duration": 0.2554,
      "velocity": 127,
      "chip": "ym2612"
    },
    {
      "channel": 1,
      "note": 72,
      "start": 22.3718,
      "duration": 0.1549,
      "velocity": 102,
      "chip": "ym2612"
    },
    {
      "channel": 2,
      "note": 67,
      "start": 22.374,
      "duration": 0.1549,
      "velocity": 102,
      "chip": "ym2612"
    },
    {
      "channel": 4,
      "note": 110,
      "start": 22.3762,
      "duration": 0.0734,
      "velocity": 107,
      "chip": "ym2612"
    },
    {
      "channel": 3,
      "note": 48,
      "start": 22.4492,
      "duration": 0.2518,
      "velocity": 122,
      "chip": "ym2612"
    },
    {
      "channel": 4,
      "note": 110,
      "start": 22.4498,
      "duration": 0.1803,
      "velocity": 107,
      "chip": "ym2612"
    },
    {
      "channel": 1,
      "note": 72,
      "start": 22.5269,
      "duration": 0.1003,
      "velocity": 102,
      "chip": "ym2612"
    },
    {
      "channel": 2,
      "note": 67,
      "start": 22.529,
      "duration": 0.1004,
      "velocity": 102,
      "chip": "ym2612"
    },
    {
      "channel": 0,
      "note": 58,
      "start": 22.6253,
      "duration": 0.0738,
      "velocity": 127,
      "chip": "ym2612"
    },
    {
      "channel": 1,
      "note": 70,
      "start": 22.6274,
      "duration": 0.0723,
      "velocity": 102,
      "chip": "ym2612"
    },
    {
      "channel": 2,
      "note": 65,
      "start": 22.6295,
      "duration": 0.0708,
      "velocity": 102,
      "chip": "ym2612"
    },
    {
      "channel": 4,
      "note": 110,
      "start": 22.6302,
      "duration": 0.0729,
      "velocity": 107,
      "chip": "ym2612"
    },
    {
      "channel": 0,
      "note": 60,
      "start": 22.6993,
      "duration": 0.6793,
      "velocity": 127,
      "chip": "ym2612"
    },
    {
      "channel": 1,
      "note": 72,
      "start": 22.6999,
      "duration": 0.1574,
      "velocity": 102,
      "chip": "ym2612"
    },
    {
      "channel": 2,
      "note": 67,
      "start": 22.7005,
      "duration": 0.1588,
      "velocity": 102,
      "chip": "ym2612"
    },
    {
      "channel": 3,
      "note": 36,
      "start": 22.7011,
      "duration": 0.2547,
      "velocity": 122,
      "chip": "ym2612"
    },
    {
      "channel": 4,
      "note": 110,
      "start": 22.7033,
      "duration": 0.1583,
      "velocity": 107,
      "chip": "ym2612"
    },
    {
      "channel": 1,
      "note": 72,
      "start": 22.8575,
      "duration": 1.0789,
      "velocity": 102,
      "chip": "ym2612"
    },
    {
      "channel": 2,
      "note": 67,
      "start": 22.8596,
      "duration": 1.2546,
      "velocity": 102,
      "chip": "ym2612"
    },
    {
      "channel": 4,
      "note": 110,
      "start": 22.8618,
      "duration": 0.0946,
      "velocity": 107,
      "chip": "ym2612"
    },
    {
      "channel": 3,
      "note": 48,
      "start": 22.956,
      "duration": 0.1998,
      "velocity": 122,
      "chip": "ym2612"
    },
    {
      "channel": 4,
      "note": 110,
      "start": 22.9566,
      "duration": 0.1998,
      "velocity": 107,
      "chip": "ym2612"
    },
    {
      "channel": 3,
      "note": 36,
      "start": 23.1559,
      "duration": 0.3212,
      "velocity": 122,
      "chip": "ym2612"
    },
    {
      "channel": 4,
      "note": 110,
      "start": 23.1565,
      "duration": 0.0767,
      "velocity": 107,
      "chip": "ym2612"
    },
    {
      "channel": 4,
      "note": 110,
      "start": 23.2333,
      "duration": 0.1461,
      "velocity": 107,
      "chip": "ym2612"
    },
    {
      "channel": 0,
      "note": 48,
      "start": 23.3788,
      "duration": 0.0977,
      "velocity": 127,
      "chip": "ym2612"
    },
    {
      "channel": 4,
      "note": 110,
      "start": 23.3795,
      "duration": 0.0998,
      "velocity": 107,
      "chip": "ym2612"
    },
    {
      "channel": 0,
      "note": 63,
      "start": 23.4767,
      "duration": 0.1581,
      "velocity": 127,
      "chip": "ym2612"
    },
    {
      "channel": 3,
      "note": 48,
      "start": 23.4774,
      "duration": 0.5581,
      "velocity": 122,
      "chip": "ym2612"
    },
    {
      "channel": 4,
      "note": 110,
      "start": 23.4795,
      "duration": 0.1576,
      "velocity": 107,
      "chip": "ym2612"
    },
    {
      "channel": 0,
      "note": 63,
      "start": 23.6349,
      "duration": 0.7837,
      "velocity": 127,
      "chip": "ym2612"
    },
    {
      "channel": 4,
      "note": 110,
      "start": 23.6372,
      "duration": 0.0978,
      "velocity": 107,
      "chip": "ym2612"
    },
    {
      "channel": 4,
      "note": 110,
      "start": 23.7352,
      "duration": 0.2019,
      "velocity": 107,
      "chip": "ym2612"
    },
    {
      "channel": 1,
      "note": 60,
      "start": 23.9365,
      "duration": 0.0983,
      "velocity": 102,
      "chip": "ym2612"
    },
    {
      "channel": 4,
      "note": 110,
      "start": 23.9372,
      "duration": 0.0988,
      "velocity": 107,
      "chip": "ym2612"
    },
    {
      "channel": 1,
      "note": 70,
      "start": 24.0351,
      "duration": 0.2385,
      "velocity": 102,
      "chip": "ym2612"
    },
    {
      "channel": 3,
      "note": 48,
      "start": 24.0356,
      "duration": 0.1598,
      "velocity": 122,
      "chip": "ym2612"
    },
    {
      "channel": 4,
      "note": 110,
      "start": 24.0362,
      "duration": 0.1598,
      "velocity": 107,
      "chip": "ym2612"
    },
    {
      "channel": 2,
      "note": 60,
      "start": 24.1143,
      "duration": 0.0806,
      "velocity": 102,
      "chip": "ym2612"
    },
    {
      "channel": 2,
      "note": 70,
      "start": 24.1951,
      "duration": 0.2262,
      "velocity": 102,
      "chip": "ym2612"
    },
    {
      "channel": 3,
      "note": 36,
      "start": 24.1956,
      "duration": 0.32,
      "velocity": 122,
      "chip": "ym2612"
    },
    {
      "channel": 4,
      "note": 110,
      "start": 24.1962,
      "duration": 0.0797,
      "velocity": 107,
      "chip": "ym2612"
    },
    {
      "channel": 1,
      "note": 70,
      "start": 24.2738,
      "duration": 0.147,
      "velocity": 102,
      "chip": "ym2612"
    },
    {
      "channel": 4,
      "note": 110,
      "start": 24.2761,
      "duration": 0.1474,
      "velocity": 107,
      "chip": "ym2612"
    },
    {
      "channel": 0,
      "note": 55,
      "start": 24.4188,
      "duration": 0.0956,
      "velocity": 127,
      "chip": "ym2612"
    },
    {
      "channel": 1,
      "note": 72,
      "start": 24.4209,
      "duration": 0.0941,
      "velocity": 102,
      "chip": "ym2612"
    },
    {
      "channel": 2,
      "note": 70,
      "start": 24.4215,
      "duration": 0.1931,
      "velocity": 102,
      "chip": "ym2612"
    },
    {
      "channel": 4,
      "note": 110,
      "start": 24.4237,
      "duration": 0.0925,
      "velocity": 107,
      "chip": "ym2612"
    },
    {
      "channel": 0,
      "note": 58,
      "start": 24.5146,
      "duration": 0.1998,
      "velocity": 127,
      "chip": "ym2612"
    },
    {
      "channel": 1,
      "note": 70,
      "start": 24.5152,
      "duration": 0.1999,
      "velocity": 102,
      "chip": "ym2612"
    },
    {
      "channel": 3,
      "note": 48,
      "start": 24.5158,
      "duration": 0.2731,
      "velocity": 122,
      "chip": "ym2612"
    },
    {
      "channel": 4,
      "note": 110,
      "start": 24.5163,
      "duration": 0.1999,
      "velocity": 107,
      "chip": "ym2612"
    },
    {
      "channel": 2,
      "note": 72,
      "start": 24.6147,
      "duration": 0.1008,
      "velocity": 102,
      "chip": "ym2612"
    },
    {
      "channel": 0,
      "note": 55,
      "start": 24.7146,
      "duration": 0.0736,
      "velocity": 127,
      "chip": "ym2612"
    },
    {
      "channel": 1,
      "note": 67,
      "start": 24.7152,
      "duration": 0.0019,
      "velocity": 102,
      "chip": "ym2612"
    },
    {
      "channel": 2,
      "note": 70,
      "start": 24.7158,
      "duration": 0.1512,
      "velocity": 102,
      "chip": "ym2612"
    },
    {
      "channel": 4,
      "note": 110,
      "start": 24.7164,
      "duration": 0.0747,
      "velocity": 107,
      "chip": "ym2612"
    },
    {
      "channel": 1,
      "note": 67,
      "start": 24.7171,
      "duration": 0.0125,
      "velocity": 102,
      "chip": "ym2612"
    },
    {
      "channel": 1,
      "note": 68,
      "start": 24.7296,
      "duration": 0.0147,
      "velocity": 102,
      "chip": "ym2612"
    },
    {
      "channel": 1,
      "note": 68,
      "start": 24.7443,
      "duration": 0.0146,
      "velocity": 102,
      "chip": "ym2612"
    },
    {
      "channel": 1,
      "note": 69,
      "start": 24.7588,
      "duration": 0.0146,
      "velocity": 102,
      "chip": "ym2612"
    },
    {
      "channel": 1,
      "note": 69,
      "start": 24.7735,
      "duration": 0.1741,
      "velocity": 102,
      "chip": "ym2612"
    },
    {
      "channel": 0,
      "note": 60,
      "start": 24.7884,
      "duration": 0.6794,
      "velocity": 127,
      "chip": "ym2612"
    },
    {
      "channel": 3,
      "note": 36,
      "start": 24.7891,
      "duration": 0.2586,
      "velocity": 122,
      "chip": "ym2612"
    },
    {
      "channel": 4,
      "note": 110,
      "start": 24.7913,
      "duration": 0.1587,
      "velocity": 107,
      "chip": "ym2612"
    },
    {
      "channel": 2,
      "note": 67,
      "start": 24.8672,
      "duration": 0.0006,
      "velocity": 102,
      "chip": "ym2612"
    },
    {
      "channel": 2,
      "note": 67,
      "start": 24.8678,
      "duration": 0.0139,
      "velocity": 102,
      "chip": "ym2612"
    },
    {
      "channel": 2,
      "note": 68,
      "start": 24.8817,
      "duration": 0.0153,
      "velocity": 102,
      "chip": "ym2612"
    },
    {
      "channel": 2,
      "note": 68,
      "start": 24.897,
      "duration": 0.0154,
      "velocity": 102,
      "chip": "ym2612"
    },
    {
      "channel": 2,
      "note": 69,
      "start": 24.9124,
      "duration": 0.0152,
      "velocity": 102,
      "chip": "ym2612"
    },
    {
      "channel": 2,
      "note": 69,
      "start": 24.9276,
      "duration": 0.2186,
      "velocity": 102,
      "chip": "ym2612"
    },
    {
      "channel": 1,
      "note": 65,
      "start": 24.9478,
      "duration": 1.8918,
      "velocity": 102,
      "chip": "ym2612"
    },
    {
      "channel": 4,
      "note": 110,
      "start": 24.9501,
      "duration": 0.0981,
      "velocity": 107,
      "chip": "ym2612"
    },
    {
      "channel": 3,
      "note": 48,
      "start": 25.0479,
      "duration": 0.1983,
      "velocity": 122,
      "chip": "ym2612"
    },
    {
      "channel": 4,
      "note": 110,
      "start": 25.0485,
      "duration": 0.1983,
      "velocity": 107,
      "chip": "ym2612"
    },
    {
      "channel": 2,
      "note": 65,
      "start": 25.1463,
      "duration": 0.8804,
      "velocity": 127,
      "chip": "ym2612"
    },
    {
      "channel": 3,
      "note": 36,
      "start": 25.2464,
      "duration": 0.3202,
      "velocity": 122,
      "chip": "ym2612"
    },
    {
      "channel": 4,
      "note": 110,
      "start": 25.2469,
      "duration": 0.0755,
      "velocity": 107,
      "chip": "ym2612"
    },
    {
      "channel": 4,
      "note": 110,
      "start": 25.3227,
      "duration": 0.1459,
      "velocity": 107,
      "chip": "ym2612"
    },
    {
      "channel": 0,
      "note": 48,
      "start": 25.4679,
      "duration": 0.0979,
      "velocity": 127,
      "chip": "ym2612"
    },
    {
      "channel": 4,
      "note": 110,
      "start": 25.4687,
      "duration": 0.1,
      "velocity": 107,
      "chip": "ym2612"
    },
    {
      "channel": 0,
      "note": 65,
      "start": 25.566,
      "duration": 0.1584,
      "velocity": 127,
      "chip": "ym2612"
    },
    {
      "channel": 3,
      "note": 48,
      "start": 25.5667,
      "duration": 0.5581,
      "velocity": 122,
      "chip": "ym2612"
    },
    {
      "channel": 4,
      "note": 110,
      "start": 25.5688,
      "duration": 0.158,
      "velocity": 107,
      "chip": "ym2612"
    },
    {
      "channel": 0,
      "note": 66,
      "start": 25.7246,
      "duration": 0.2999,
      "velocity": 127,
      "chip": "ym2612"
    },
    {
      "channel": 4,
      "note": 110,
      "start": 25.7269,
      "duration": 0.0978,
      "velocity": 107,
      "chip": "ym2612"
    },
    {
      "channel": 4,
      "note": 110,
      "start": 25.8249,
      "duration": 0.204,
      "velocity": 107,
      "chip": "ym2612"
    },
    {
      "channel": 0,
      "note": 65,
      "start": 26.0246,
      "duration": 0.258,
      "velocity": 127,
      "chip": "ym2612"
    },
    {
      "channel": 2,
      "note": 43,
      "start": 26.0269,
      "duration": 0.3342,
      "velocity": 127,
      "chip": "ym2612"
    },
    {
      "channel": 4,
      "note": 110,
      "start": 26.029,
      "duration": 0.0978,
      "velocity": 107,
      "chip": "ym2612"
    },
    {
      "channel": 3,
      "note": 48,
      "start": 26.1249,
      "duration": 0.1585,
      "velocity": 122,
      "chip": "ym2612"
    },
    {
      "channel": 4,
      "note": 110,
      "start": 26.1271,
      "duration": 0.1569,
      "velocity": 107,
      "chip": "ym2612"
    },
    {
      "channel": 0,
      "note": 63,
      "start": 26.2829,
      "duration": 0.2246,
      "velocity": 127,
      "chip": "ym2612"
    },
    {
      "channel": 3,
      "note": 36,
      "start": 26.2836,
      "duration": 0.3015,
      "velocity": 122,
      "chip": "ym2612"
    },
    {
      "channel": 4,
      "note": 110,
      "start": 26.2841,
      "duration": 0.0792,
      "velocity": 107,
      "chip": "ym2612"
    },
    {
      "channel": 2,
      "note": 43,
      "start": 26.3612,
      "duration": 0.1468,
      "velocity": 127,
      "chip": "ym2612"
    },
    {
      "channel": 4,
      "note": 110,
      "start": 26.3635,
      "duration": 0.1468,
      "velocity": 107,
      "chip": "ym2612"
    },
    {
      "channel": 0,
      "note": 60,
      "start": 26.5076,
      "duration": 0.2564,
      "velocity": 127,
      "chip": "ym2612"
    },
    {
      "channel": 2,
      "note": 43,
      "start": 26.5082,
      "duration": 0.2563,
      "velocity": 127,
      "chip": "ym2612"
    },
    {
      "channel": 4,
      "note": 110,
      "start": 26.5104,
      "duration": 0.0752,
      "velocity": 107,
      "chip": "ym2612"
    },
    {
      "channel": 3,
      "note": 48,
      "start": 26.5853,
      "duration": 0.2571,
      "velocity": 122,
      "chip": "ym2612"
    },
    {
      "channel": 4,
      "note": 110,
      "start": 26.5858,
      "duration": 0.1794,
      "velocity": 107,
      "chip": "ym2612"
    },
    {
      "channel": 0,
      "note": 58,
      "start": 26.7641,
      "duration": 0.0734,
      "velocity": 127,
      "chip": "ym2612"
    },
    {
      "channel": 2,
      "note": 43,
      "start": 26.7647,
      "duration": 0.077,
      "velocity": 102,
      "chip": "ym2612"
    },
    {
      "channel": 4,
      "note": 110,
      "start": 26.7654,
      "duration": 0.0791,
      "velocity": 107,
      "chip": "ym2612"
    },
    {
      "channel": 0,
      "note": 60,
      "start": 26.8376,
      "duration": 0.679,
      "velocity": 127,
      "chip": "ym2612"
    },
    {
      "channel": 1,
      "note": 72,
      "start": 26.8398,
      "duration": 0.1564,
      "velocity": 102,
      "chip": "ym2612"
    },
    {
      "channel": 2,
      "note": 67,
      "start": 26.8419,
      "duration": 0.1564,
      "velocity": 102,
      "chip": "ym2612"
    },
    {
      "channel": 3,
      "note": 36,
      "start": 26.8425,
      "duration": 0.2522,
      "velocity": 122,
      "chip": "ym2612"
    },
    {
      "channel": 4,
      "note": 110,
      "start": 26.8447,
      "duration": 0.1558,
      "velocity": 107,
      "chip": "ym2612"
    },
    {
      "channel": 1,
      "note": 72,
      "start": 26.9963,
      "duration": 0.5224,
      "velocity": 102,
      "chip": "ym2612"
    },
    {
      "channel": 2,
      "note": 67,
      "start": 26.9985,
      "duration": 0.5224,
      "velocity": 102,
      "chip": "ym2612"
    },
    {
      "channel": 4,
      "note": 110,
      "start": 27.0007,
      "duration": 0.0946,
      "velocity": 107,
      "chip": "ym2612"
    },
    {
      "channel": 3,
      "note": 48,
      "start": 27.0949,
      "duration": 0.1998,
      "velocity": 122,
      "chip": "ym2612"
    },
    {
      "channel": 4,
      "note": 110,
      "start": 27.0955,
      "duration": 0.1998,
      "velocity": 107,
      "chip": "ym2612"
    },
    {
      "channel": 3,
      "note": 36,
      "start": 27.2949,
      "duration": 0.3215,
      "velocity": 122,
      "chip": "ym2612"
    },
    {
      "channel": 4,
      "note": 110,
      "start": 27.2954,
      "duration": 0.0759,
      "velocity": 107,
      "chip": "ym2612"
    },
    {
      "channel": 4,
      "note": 110,
      "start": 27.3715,
      "duration": 0.15,
      "velocity": 107,
      "chip": "ym2612"
    },
    {
      "channel": 0,
      "note": 48,
      "start": 27.5168,
      "duration": 0.0979,
      "velocity": 127,
      "chip": "ym2612"
    },
    {
      "channel": 1,
      "note": 70,
      "start": 27.5189,
      "duration": 0.0963,
      "velocity": 102,
      "chip": "ym2612"
    },
    {
      "channel": 2,
      "note": 65,
      "start": 27.521,
      "duration": 0.0948,
      "velocity": 102,
      "chip": "ym2612"
    },
    {
      "channel": 4,
      "note": 110,
      "start": 27.5217,
      "duration": 0.0968,
      "velocity": 107,
      "chip": "ym2612"
    },
    {
      "channel": 0,
      "note": 63,
      "start": 27.6149,
      "duration": 0.1578,
      "velocity": 127,
      "chip": "ym2612"
    },
    {
      "channel": 1,
      "note": 67,
      "start": 27.6155,
      "duration": 0.0795,
      "velocity": 102,
      "chip": "ym2612"
    },
    {
      "channel": 2,
      "note": 60,
      "start": 27.616,
      "duration": 0.0811,
      "velocity": 102,
      "chip": "ym2612"
    },
    {
      "channel": 3,
      "note": 48,
      "start": 27.6166,
      "duration": 0.5563,
      "velocity": 122,
      "chip": "ym2612"
    },
    {
      "channel": 4,
      "note": 110,
      "start": 27.6187,
      "duration": 0.1605,
      "velocity": 107,
      "chip": "ym2612"
    },
    {
      "channel": 1,
      "note": 70,
      "start": 27.6951,
      "duration": 0.0798,
      "velocity": 102,
      "chip": "ym2612"
    },
    {
      "channel": 2,
      "note": 65,
      "start": 27.6973,
      "duration": 0.0798,
      "velocity": 102,
      "chip": "ym2612"
    },
    {
      "channel": 0,
      "note": 63,
      "start": 27.7729,
      "duration": 0.7815,
      "velocity": 127,
      "chip": "ym2612"
    },
    {
      "channel": 1,
      "note": 75,
      "start": 27.775,
      "duration": 0.0994,
      "velocity": 102,
      "chip": "ym2612"
    },
    {
      "channel": 2,
      "note": 70,
      "start": 27.7772,
      "duration": 0.0993,
      "velocity": 102,
      "chip": "ym2612"
    },
    {
      "channel": 4,
      "note": 110,
      "start": 27.7794,
      "duration": 0.0978,
      "velocity": 107,
      "chip": "ym2612"
    },
    {
      "channel": 1,
      "note": 67,
      "start": 27.8745,
      "duration": 0.0983,
      "velocity": 102,
      "chip": "ym2612"
    },
    {
      "channel": 2,
      "note": 60,
      "start": 27.8767,
      "duration": 0.0967,
      "velocity": 102,
      "chip": "ym2612"
    },
    {
      "channel": 4,
      "note": 110,
      "start": 27.8773,
      "duration": 0.1998,
      "velocity": 107,
      "chip": "ym2612"
    },
    {
      "channel": 1,
      "note": 75,
      "start": 27.973,
      "duration": 0.1013,
      "velocity": 102,
      "chip": "ym2612"
    },
    {
      "channel": 2,
      "note": 70,
      "start": 27.9736,
      "duration": 0.1029,
      "velocity": 102,
      "chip": "ym2612"
    },
    {
      "channel": 1,
      "note": 72,
      "start": 28.0745,
      "duration": 0.1764,
      "velocity": 102,
      "chip": "ym2612"
    },
    {
      "channel": 2,
      "note": 67,
      "start": 28.0766,
      "duration": 0.1764,
      "velocity": 102,
      "chip": "ym2612"
    },
    {
      "channel": 4,
      "note": 110,
      "start": 28.0773,
      "duration": 0.0962,
      "velocity": 107,
      "chip": "ym2612"
    },
    {
      "channel": 3,
      "note": 48,
      "start": 28.1731,
      "duration": 0.1574,
      "velocity": 122,
      "chip": "ym2612"
    },
    {
      "channel": 4,
      "note": 110,
      "start": 28.1737,
      "duration": 0.1574,
      "velocity": 107,
      "chip": "ym2612"
    },
    {
      "channel": 1,
      "note": 72,
      "start": 28.2511,
      "duration": 0.9338,
      "velocity": 102,
      "chip": "ym2612"
    },
    {
      "channel": 2,
      "note": 67,
      "start": 28.2532,
      "duration": 0.9338,
      "velocity": 102,
      "chip": "ym2612"
    },
    {
      "channel": 3,
      "note": 36,
      "start": 28.3307,
      "duration": 0.322,
      "velocity": 122,
      "chip": "ym2612"
    },
    {
      "channel": 4,
      "note": 110,
      "start": 28.3313,
      "duration": 0.0793,
      "velocity": 107,
      "chip": "ym2612"
    },
    {
      "channel": 4,
      "note": 110,
      "start": 28.4107,
      "duration": 0.1461,
      "velocity": 107,
      "chip": "ym2612"
    },
    {
      "channel": 0,
      "note": 55,
      "start": 28.5546,
      "duration": 0.0975,
      "velocity": 127,
      "chip": "ym2612"
    },
    {
      "channel": 4,
      "note": 110,
      "start": 28.557,
      "duration": 0.0963,
      "velocity": 107,
      "chip": "ym2612"
    },
    {
      "channel": 0,
      "note": 58,
      "start": 28.6522,
      "duration": 0.1999,
      "velocity": 127,
      "chip": "ym2612"
    },
    {
      "channel": 3,
      "note": 48,
      "start": 28.6529,
      "duration": 0.2732,
      "velocity": 122,
      "chip": "ym2612"
    },
    {
      "channel": 4,
      "note": 110,
      "start": 28.6535,
      "duration": 0.1993,
      "velocity": 107,
      "chip": "ym2612"
    },
    {
      "channel": 0,
      "note": 55,
      "start": 28.8522,
      "duration": 0.0732,
      "velocity": 127,
      "chip": "ym2612"
    },
    {
      "channel": 4,
      "note": 110,
      "start": 28.853,
      "duration": 0.0752,
      "velocity": 107,
      "chip": "ym2612"
    },
    {
      "channel": 0,
      "note": 60,
      "start": 28.9256,
      "duration": 0.6826,
      "velocity": 127,
      "chip": "ym2612"
    },
    {
      "channel": 3,
      "note": 36,
      "start": 28.9262,
      "duration": 0.2613,
      "velocity": 122,
      "chip": "ym2612"
    },
    {
      "channel": 4,
      "note": 110,
      "start": 28.9284,
      "duration": 0.1566,
      "velocity": 107,
      "chip": "ym2612"
    },
    {
      "channel": 4,
      "note": 110,
      "start": 29.0851,
      "duration": 0.103,
      "velocity": 107,
      "chip": "ym2612"
    },
    {
      "channel": 1,
      "note": 72,
      "start": 29.1851,
      "duration": 0.1998,
      "velocity": 102,
      "chip": "ym2612"
    },
    {
      "channel": 2,
      "note": 67,
      "start": 29.1872,
      "duration": 0.1999,
      "velocity": 102,
      "chip": "ym2612"
    },
    {
      "channel": 3,
      "note": 48,
      "start": 29.1878,
      "duration": 0.1998,
      "velocity": 122,
      "chip": "ym2612"
    },
    {
      "channel": 4,
      "note": 110,
      "start": 29.1883,
      "duration": 0.1998,
      "velocity": 107,
      "chip": "ym2612"
    },
    {
      "channel": 1,
      "note": 72,
      "start": 29.3851,
      "duration": 0.0782,
      "velocity": 102,
      "chip": "ym2612"
    },
    {
      "channel": 2,
      "note": 67,
      "start": 29.3872,
      "duration": 0.0782,
      "velocity": 102,
      "chip": "ym2612"
    },
    {
      "channel": 3,
      "note": 36,
      "start": 29.3878,
      "duration": 0.319,
      "velocity": 122,
      "chip": "ym2612"
    },
    {
      "channel": 4,
      "note": 110,
      "start": 29.3883,
      "duration": 0.0777,
      "velocity": 107,
      "chip": "ym2612"
    },
    {
      "channel": 1,
      "note": 75,
      "start": 29.4634,
      "duration": 0.1453,
      "velocity": 102,
      "chip": "ym2612"
    },
    {
      "channel": 2,
      "note": 70,
      "start": 29.4656,
      "duration": 0.1437,
      "velocity": 102,
      "chip": "ym2612"
    },
    {
      "channel": 4,
      "note": 110,
      "start": 29.4662,
      "duration": 0.1437,
      "velocity": 107,
      "chip": "ym2612"
    },
    {
      "channel": 0,
      "note": 48,
      "start": 29.6084,
      "duration": 0.0967,
      "velocity": 127,
      "chip": "ym2612"
    },
    {
      "channel": 1,
      "note": 72,
      "start": 29.6089,
      "duration": 0.0968,
      "velocity": 102,
      "chip": "ym2612"
    },
    {
      "channel": 2,
      "note": 67,
      "start": 29.6095,
      "duration": 0.0967,
      "velocity": 102,
      "chip": "ym2612"
    },
    {
      "channel": 4,
      "note": 110,
      "start": 29.6101,
      "duration": 0.0988,
      "velocity": 107,
      "chip": "ym2612"
    },
    {
      "channel": 0,
      "note": 65,
      "start": 29.7053,
      "duration": 0.16,
      "velocity": 127,
      "chip": "ym2612"
    },
    {
      "channel": 1,
      "note": 77,
      "start": 29.7058,
      "duration": 0.1601,
      "velocity": 102,
      "chip": "ym2612"
    },
    {
      "channel": 2,
      "note": 72,
      "start": 29.7064,
      "duration": 0.16,
      "velocity": 102,
      "chip": "ym2612"
    },
    {
      "channel": 3,
      "note": 48,
      "start": 29.707,
      "duration": 0.5586,
      "velocity": 122,
      "chip": "ym2612"
    },
    {
      "channel": 4,
      "note": 110,
      "start": 29.7091,
      "duration": 0.1595,
      "velocity": 107,
      "chip": "ym2612"
    },
    {
      "channel": 0,
      "note": 66,
      "start": 29.8655,
      "duration": 0.2998,
      "velocity": 127,
      "chip": "ym2612"
    },
    {
      "channel": 1,
      "note": 78,
      "start": 29.866,
      "duration": 0.2009,
      "velocity": 102,
      "chip": "ym2612"
    },
    {
      "channel": 2,
      "note": 73,
      "start": 29.8666,
      "duration": 0.2025,
      "velocity": 102,
      "chip": "ym2612"
    },
    {
      "channel": 4,
      "note": 110,
      "start": 29.8688,
      "duration": 0.0967,
      "velocity": 107,
      "chip": "ym2612"
    },
    {
      "channel": 4,
      "note": 110,
      "start": 29.9658,
      "duration": 0.206,
      "velocity": 107,
      "chip": "ym2612"
    },
    {
      "channel": 1,
      "note": 78,
      "start": 30.0671,
      "duration": 0.1004,
      "velocity": 102,
      "chip": "ym2612"
    },
    {
      "channel": 2,
      "note": 73,
      "start": 30.0692,
      "duration": 0.1004,
      "velocity": 102,
      "chip": "ym2612"
    },
    {
      "channel": 0,
      "note": 65,
      "start": 30.1655,
      "duration": 0.259,
      "velocity": 127,
      "chip": "ym2612"
    },
    {
      "channel": 1,
      "note": 77,
      "start": 30.1676,
      "duration": 0.1771,
      "velocity": 102,
      "chip": "ym2612"
    },
    {
      "channel": 2,
      "note": 72,
      "start": 30.1698,
      "duration": 0.1771,
      "velocity": 102,
      "chip": "ym2612"
    },
    {
      "channel": 4,
      "note": 110,
      "start": 30.172,
      "duration": 0.0958,
      "velocity": 107,
      "chip": "ym2612"
    },
    {
      "channel": 3,
      "note": 48,
      "start": 30.2658,
      "duration": 0.1635,
      "velocity": 122,
      "chip": "ym2612"
    },
    {
      "channel": 4,
      "note": 110,
      "start": 30.2679,
      "duration": 0.162,
      "velocity": 107,
      "chip": "ym2612"
    },
    {
      "channel": 1,
      "note": 77,
      "start": 30.345,
      "duration": 0.0817,
      "velocity": 102,
      "chip": "ym2612"
    },
    {
      "channel": 2,
      "note": 72,
      "start": 30.3471,
      "duration": 0.0817,
      "velocity": 102,
      "chip": "ym2612"
    },
    {
      "channel": 0,
      "note": 63,
      "start": 30.4247,
      "duration": 0.2273,
      "velocity": 127,
      "chip": "ym2612"
    },
    {
      "channel": 1,
      "note": 75,
      "start": 30.4268,
      "duration": 0.1526,
      "velocity": 102,
      "chip": "ym2612"
    },
    {
      "channel": 2,
      "note": 70,
      "start": 30.4289,
      "duration": 0.1526,
      "velocity": 102,
      "chip": "ym2612"
    },
    {
      "channel": 3,
      "note": 36,
      "start": 30.4295,
      "duration": 0.301,
      "velocity": 122,
      "chip": "ym2612"
    },
    {
      "channel": 4,
      "note": 110,
      "start": 30.4301,
      "duration": 0.0761,
      "velocity": 107,
      "chip": "ym2612"
    },
    {
      "channel": 4,
      "note": 110,
      "start": 30.5064,
      "duration": 0.1521,
      "velocity": 107,
      "chip": "ym2612"
    },
    {
      "channel": 1,
      "note": 75,
      "start": 30.5796,
      "duration": 0.0746,
      "velocity": 102,
      "chip": "ym2612"
    },
    {
      "channel": 2,
      "note": 70,
      "start": 30.5818,
      "duration": 0.0745,
      "velocity": 102,
      "chip": "ym2612"
    },
    {
      "channel": 0,
      "note": 60,
      "start": 30.6522,
      "duration": 0.2562,
      "velocity": 127,
      "chip": "ym2612"
    },
    {
      "channel": 1,
      "note": 72,
      "start": 30.6543,
      "duration": 0.1556,
      "velocity": 102,
      "chip": "ym2612"
    },
    {
      "channel": 2,
      "note": 67,
      "start": 30.6565,
      "duration": 0.1556,
      "velocity": 102,
      "chip": "ym2612"
    },
    {
      "channel": 4,
      "note": 110,
      "start": 30.6586,
      "duration": 0.0725,
      "velocity": 107,
      "chip": "ym2612"
    },
    {
      "channel": 3,
      "note": 48,
      "start": 30.7307,
      "duration": 0.2549,
      "velocity": 102,
      "chip": "ym2612"
    },
    {
      "channel": 4,
      "note": 110,
      "start": 30.7313,
      "duration": 0.182,
      "velocity": 107,
      "chip": "ym2612"
    },
    {
      "channel": 1,
      "note": 72,
      "start": 30.8101,
      "duration": 0.1003,
      "velocity": 102,
      "chip": "ym2612"
    },
    {
      "channel": 2,
      "note": 67,
      "start": 30.8122,
      "duration": 0.1004,
      "velocity": 102,
      "chip": "ym2612"
    },
    {
      "channel": 0,
      "note": 58,
      "start": 30.9085,
      "duration": 0.0737,
      "velocity": 127,
      "chip": "ym2612"
    },
    {
      "channel": 1,
      "note": 70,
      "start": 30.9107,
      "duration": 0.0722,
      "velocity": 102,
      "chip": "ym2612"
    },
    {
      "channel": 2,
      "note": 65,
      "start": 30.9128,
      "duration": 0.0707,
      "velocity": 102,
      "chip": "ym2612"
    },
    {
      "channel": 4,
      "note": 110,
      "start": 30.9134,
      "duration": 0.0744,
      "velocity": 107,
      "chip": "ym2612"
    },
    {
      "channel": 0,
      "note": 50,
      "start": 30.9824,
      "duration": 0.6839,
      "velocity": 127,
      "chip": "ym2612"
    },
    {
      "channel": 1,
      "note": 74,
      "start": 30.983,
      "duration": 0.2592,
      "velocity": 102,
      "chip": "ym2612"
    },
    {
      "channel": 2,
      "note": 69,
      "start": 30.9837,
      "duration": 0.2607,
      "velocity": 102,
      "chip": "ym2612"
    },
    {
      "channel": 3,
      "note": 77,
      "start": 30.9858,
      "duration": 0.2607,
      "velocity": 102,
      "chip": "ym2612"
    },
    {
      "channel": 4,
      "note": 110,
      "start": 30.9879,
      "duration": 0.1576,
      "velocity": 107,
      "chip": "ym2612"
    },
    {
      "channel": 4,
      "note": 110,
      "start": 31.1457,
      "duration": 0.1013,
      "velocity": 107,
      "chip": "ym2612"
    },
    {
      "channel": 1,
      "note": 74,
      "start": 31.2423,
      "duration": 0.2772,
      "velocity": 102,
      "chip": "ym2612"
    },
    {
      "channel": 2,
      "note": 69,
      "start": 31.2445,
      "duration": 0.2772,
      "velocity": 102,
      "chip": "ym2612"
    },
    {
      "channel": 3,
      "note": 77,
      "start": 31.2467,
      "duration": 0.2771,
      "velocity": 102,
      "chip": "ym2612"
    },
    {
      "channel": 4,
      "note": 110,
      "start": 31.2473,
      "duration": 0.1935,
      "velocity": 107,
      "chip": "ym2612"
    },
    {
      "channel": 4,
      "note": 110,
      "start": 31.441,
      "duration": 0.0834,
      "velocity": 107,
      "chip": "ym2612"
    },
    {
      "channel": 1,
      "note": 74,
      "start": 31.5197,
      "duration": 0.2435,
      "velocity": 102,
      "chip": "ym2612"
    },
    {
      "channel": 2,
      "note": 69,
      "start": 31.5219,
      "duration": 0.2435,
      "velocity": 102,
      "chip": "ym2612"
    },
    {
      "channel": 3,
      "note": 77,
      "start": 31.524,
      "duration": 0.2434,
      "velocity": 102,
      "chip": "ym2612"
    },
    {
      "channel": 4,
      "note": 110,
      "start": 31.5246,
      "duration": 0.1424,
      "velocity": 107,
      "chip": "ym2612"
    },
    {
      "channel": 0,
      "note": 48,
      "start": 31.6664,
      "duration": 0.0946,
      "velocity": 127,
      "chip": "ym2612"
    },
    {
      "channel": 4,
      "note": 110,
      "start": 31.6672,
      "duration": 0.1024,
      "velocity": 107,
      "chip": "ym2612"
    },
    {
      "channel": 0,
      "note": 60,
      "start": 31.7612,
      "duration": 0.1566,
      "velocity": 127,
      "chip": "ym2612"
    },
    {
      "channel": 1,
      "note": 74,
      "start": 31.7633,
      "duration": 0.2562,
      "velocity": 102,
      "chip": "ym2612"
    },
    {
      "channel": 2,
      "note": 69,
      "start": 31.7655,
      "duration": 0.2561,
      "velocity": 102,
      "chip": "ym2612"
    },
    {
      "channel": 3,
      "note": 77,
      "start": 31.7676,
      "duration": 0.2561,
      "velocity": 102,
      "chip": "ym2612"
    },
    {
      "channel": 4,
      "note": 110,
      "start": 31.7698,
      "duration": 0.1503,
      "velocity": 107,
      "chip": "ym2612"
    },
    {
      "channel": 0,
      "note": 50,
      "start": 31.9179,
      "duration": 1.0937,
      "velocity": 127,
      "chip": "ym2612"
    },
    {
      "channel": 4,
      "note": 110,
      "start": 31.9203,
      "duration": 0.104,
      "velocity": 107,
      "chip": "ym2612"
    },
    {
      "channel": 1,
      "note": 74,
      "start": 32.0196,
      "duration": 0.2998,
      "velocity": 102,
      "chip": "ym2612"
    },
    {
      "channel": 2,
      "note": 69,
      "start": 32.0218,
      "duration": 0.2998,
      "velocity": 102,
      "chip": "ym2612"
    },
    {
      "channel": 3,
      "note": 77,
      "start": 32.0239,
      "duration": 0.2998,
      "velocity": 102,
      "chip": "ym2612"
    },
    {
      "channel": 4,
      "note": 110,
      "start": 32.0245,
      "duration": 0.1935,
      "velocity": 107,
      "chip": "ym2612"
    },
    {
      "channel": 4,
      "note": 110,
      "start": 32.2182,
      "duration": 0.1061,
      "velocity": 107,
      "chip": "ym2612"
    },
    {
      "channel": 1,
      "note": 74,
      "start": 32.3196,
      "duration": 0.2348,
      "velocity": 102,
      "chip": "ym2612"
    },
    {
      "channel": 2,
      "note": 69,
      "start": 32.3217,
      "duration": 0.2349,
      "velocity": 102,
      "chip": "ym2612"
    },
    {
      "channel": 3,
      "note": 77,
      "start": 32.3239,
      "duration": 0.2347,
      "velocity": 102,
      "chip": "ym2612"
    },
    {
      "channel": 4,
      "note": 110,
      "start": 32.3245,
      "duration": 0.1519,
      "velocity": 107,
      "chip": "ym2612"
    },
    {
      "channel": 4,
      "note": 110,
      "start": 32.4766,
      "duration": 0.0843,
      "velocity": 107,
      "chip": "ym2612"
    },
    {
      "channel": 1,
      "note": 74,
      "start": 32.5545,
      "duration": 0.1491,
      "velocity": 102,
      "chip": "ym2612"
    },
    {
      "channel": 2,
      "note": 69,
      "start": 32.5567,
      "duration": 0.1491,
      "velocity": 102,
      "chip": "ym2612"
    },
    {
      "channel": 3,
      "note": 77,
      "start": 32.5589,
      "duration": 0.149,
      "velocity": 102,
      "chip": "ym2612"
    },
    {
      "channel": 4,
      "note": 110,
      "start": 32.561,
      "duration": 0.149,
      "velocity": 107,
      "chip": "ym2612"
    },
    {
      "channel": 1,
      "note": 77,
      "start": 32.7037,
      "duration": 0.1541,
      "velocity": 102,
      "chip": "ym2612"
    },
    {
      "channel": 2,
      "note": 72,
      "start": 32.7059,
      "duration": 0.1523,
      "velocity": 102,
      "chip": "ym2612"
    },
    {
      "channel": 3,
      "note": 74,
      "start": 32.7081,
      "duration": 0.1504,
      "velocity": 102,
      "chip": "ym2612"
    },
    {
      "channel": 4,
      "note": 110,
      "start": 32.7102,
      "duration": 0.0711,
      "velocity": 107,
      "chip": "ym2612"
    },
    {
      "channel": 4,
      "note": 110,
      "start": 32.7815,
      "duration": 0.1587,
      "velocity": 107,
      "chip": "ym2612"
    },
    {
      "channel": 1,
      "note": 76,
      "start": 32.8579,
      "duration": 0.0154,
      "velocity": 102,
      "chip": "ym2612"
    },
    {
      "channel": 2,
      "note": 71,
      "start": 32.8582,
      "duration": 0.0154,
      "velocity": 102,
      "chip": "ym2612"
    },
    {
      "channel": 3,
      "note": 73,
      "start": 32.8585,
      "duration": 0.0154,
      "velocity": 102,
      "chip": "ym2612"
    },
    {
      "channel": 1,
      "note": 76,
      "start": 32.8733,
      "duration": 0.0153,
      "velocity": 102,
      "chip": "ym2612"
    },
    {
      "channel": 2,
      "note": 70,
      "start": 32.8736,
      "duration": 0.0153,
      "velocity": 102,
      "chip": "ym2612"
    },
    {
      "channel": 3,
      "note": 72,
      "start": 32.8739,
      "duration": 0.0153,
      "velocity": 102,
      "chip": "ym2612"
    },
    {
      "channel": 1,
      "note": 75,
      "start": 32.8887,
      "duration": 0.0154,
      "velocity": 102,
      "chip": "ym2612"
    },
    {
      "channel": 2,
      "note": 69,
      "start": 32.8889,
      "duration": 0.0154,
      "velocity": 102,
      "chip": "ym2612"
    },
    {
      "channel": 3,
      "note": 71,
      "start": 32.8892,
      "duration": 0.0154,
      "velocity": 102,
      "chip": "ym2612"
    },
    {
      "channel": 1,
      "note": 74,
      "start": 32.9041,
      "duration": 0.0154,
      "velocity": 102,
      "chip": "ym2612"
    },
    {
      "channel": 2,
      "note": 68,
      "start": 32.9043,
      "duration": 0.0154,
      "velocity": 102,
      "chip": "ym2612"
    },
    {
      "channel": 3,
      "note": 70,
      "start": 32.9046,
      "duration": 0.0154,
      "velocity": 102,
      "chip": "ym2612"
    },
    {
      "channel": 1,
      "note": 73,
      "start": 32.9194,
      "duration": 0.0191,
      "velocity": 102,
      "chip": "ym2612"
    },
    {
      "channel": 2,
      "note": 67,
      "start": 32.9198,
      "duration": 0.0193,
      "velocity": 102,
      "chip": "ym2612"
    },
    {
      "channel": 3,
      "note": 69,
      "start": 32.92,
      "duration": 0.0197,
      "velocity": 102,
      "chip": "ym2612"
    },
    {
      "channel": 1,
      "note": 79,
      "start": 32.9387,
      "duration": 1.0308,
      "velocity": 1,
      "chip": "ym2612"
    },
    {
      "channel": 2,
      "note": 74,
      "start": 32.9393,
      "duration": 1.0323,
      "velocity": 1,
      "chip": "ym2612"
    },
    {
      "channel": 3,
      "note": 71,
      "start": 32.9398,
      "duration": 0.9319,
      "velocity": 1,
      "chip": "ym2612"
    },
    {
      "channel": 4,
      "note": 110,
      "start": 32.9404,
      "duration": 0.0767,
      "velocity": 107,
      "chip": "ym2612"
    },
    {
      "channel": 0,
      "note": 53,
      "start": 33.0118,
      "duration": 0.756,
      "velocity": 127,
      "chip": "ym2612"
    },
    {
      "channel": 4,
      "note": 110,
      "start": 33.0173,
      "duration": 0.1524,
      "velocity": 107,
      "chip": "ym2612"
    },
    {
      "channel": 4,
      "note": 110,
      "start": 33.1698,
      "duration": 0.0982,
      "velocity": 107,
      "chip": "ym2612"
    },
    {
      "channel": 4,
      "note": 110,
      "start": 33.2682,
      "duration": 0.1998,
      "velocity": 107,
      "chip": "ym2612"
    },
    {
      "channel": 4,
      "note": 110,
      "start": 33.4682,
      "duration": 0.0998,
      "velocity": 107,
      "chip": "ym2612"
    },
    {
      "channel": 4,
      "note": 110,
      "start": 33.5682,
      "duration": 0.2004,
      "velocity": 107,
      "chip": "ym2612"
    },
    {
      "channel": 0,
      "note": 53,
      "start": 33.768,
      "duration": 0.0999,
      "velocity": 127,
      "chip": "ym2612"
    },
    {
      "channel": 4,
      "note": 110,
      "start": 33.7687,
      "duration": 0.1051,
      "velocity": 107,
      "chip": "ym2612"
    },
    {
      "channel": 0,
      "note": 54,
      "start": 33.868,
      "duration": 0.1998,
      "velocity": 127,
      "chip": "ym2612"
    },
    {
      "channel": 3,
      "note": 91,
      "start": 33.8719,
      "duration": 0.1019,
      "velocity": 117,
      "chip": "ym2612"
    },
    {
      "channel": 4,
      "note": 110,
      "start": 33.874,
      "duration": 0.2008,
      "velocity": 107,
      "chip": "ym2612"
    },
    {
      "channel": 1,
      "note": 55,
      "start": 33.9697,
      "duration": 0.1003,
      "velocity": 117,
      "chip": "ym2612"
    },
    {
      "channel": 2,
      "note": 55,
      "start": 33.9718,
      "duration": 0.1003,
      "velocity": 117,
      "chip": "ym2612"
    },
    {
      "channel": 3,
      "note": 91,
      "start": 33.974,
      "duration": 0.0987,
      "velocity": 117,
      "chip": "ym2612"
    },
    {
      "channel": 0,
      "note": 55,
      "start": 34.068,
      "duration": 0.2592,
      "velocity": 127,
      "chip": "ym2612"
    },
    {
      "channel": 1,
      "note": 55,
      "start": 34.0702,
      "duration": 1.1165,
      "velocity": 114,
      "chip": "ym2612"
    },
    {
      "channel": 2,
      "note": 55,
      "start": 34.0723,
      "duration": 1.1165,
      "velocity": 114,
      "chip": "ym2612"
    },
    {
      "channel": 3,
      "note": 89,
      "start": 34.0729,
      "duration": 0.0968,
      "velocity": 117,
      "chip": "ym2612"
    },
    {
      "channel": 4,
      "note": 110,
      "start": 34.0751,
      "duration": 0.0952,
      "velocity": 107,
      "chip": "ym2612"
    },
    {
      "channel": 3,
      "note": 86,
      "start": 34.1699,
      "duration": 0.0777,
      "velocity": 117,
      "chip": "ym2612"
    },
    {
      "channel": 4,
      "note": 110,
      "start": 34.1704,
      "duration": 0.1596,
      "velocity": 107,
      "chip": "ym2612"
    },
    {
      "channel": 3,
      "note": 84,
      "start": 34.2478,
      "duration": 0.0801,
      "velocity": 117,
      "chip": "ym2612"
    },
    {
      "channel": 0,
      "note": 57,
      "start": 34.3274,
      "duration": 0.2999,
      "velocity": 127,
      "chip": "ym2612"
    },
    {
      "channel": 3,
      "note": 86,
      "start": 34.3281,
      "duration": 0.0993,
      "velocity": 117,
      "chip": "ym2612"
    },
    {
      "channel": 4,
      "note": 110,
      "start": 34.3302,
      "duration": 0.0993,
      "velocity": 107,
      "chip": "ym2612"
    },
    {
      "channel": 3,
      "note": 89,
      "start": 34.4276,
      "duration": 0.0998,
      "velocity": 117,
      "chip": "ym2612"
    },
    {
      "channel": 4,
      "note": 110,
      "start": 34.4297,
      "duration": 0.1987,
      "velocity": 107,
      "chip": "ym2612"
    },
    {
      "channel": 3,
      "note": 91,
      "start": 34.5276,
      "duration": 0.1003,
      "velocity": 117,
      "chip": "ym2612"
    },
    {
      "channel": 0,
      "note": 58,
      "start": 34.6274,
      "duration": 0.2593,
      "velocity": 127,
      "chip": "ym2612"
    },
    {
      "channel": 3,
      "note": 89,
      "start": 34.6281,
      "duration": 0.0993,
      "velocity": 117,
      "chip": "ym2612"
    },
    {
      "channel": 4,
      "note": 110,
      "start": 34.6286,
      "duration": 0.101,
      "velocity": 107,
      "chip": "ym2612"
    },
    {
      "channel": 3,
      "note": 86,
      "start": 34.7276,
      "duration": 0.0788,
      "velocity": 117,
      "chip": "ym2612"
    },
    {
      "channel": 4,
      "note": 110,
      "start": 34.7297,
      "duration": 0.1598,
      "velocity": 107,
      "chip": "ym2612"
    },
    {
      "channel": 3,
      "note": 84,
      "start": 34.8065,
      "duration": 0.0809,
      "velocity": 117,
      "chip": "ym2612"
    },
    {
      "channel": 0,
      "note": 59,
      "start": 34.8869,
      "duration": 0.2245,
      "velocity": 127,
      "chip": "ym2612"
    },
    {
      "channel": 3,
      "note": 86,
      "start": 34.8876,
      "duration": 0.0768,
      "velocity": 117,
      "chip": "ym2612"
    },
    {
      "channel": 4,
      "note": 110,
      "start": 34.8897,
      "duration": 0.0752,
      "velocity": 107,
      "chip": "ym2612"
    },
    {
      "channel": 3,
      "note": 89,
      "start": 34.9646,
      "duration": 0.0734,
      "velocity": 117,
      "chip": "ym2612"
    },
    {
      "channel": 4,
      "note": 110,
      "start": 34.9651,
      "duration": 0.1474,
      "velocity": 107,
      "chip": "ym2612"
    },
    {
      "channel": 3,
      "note": 91,
      "start": 35.0381,
      "duration": 0.0739,
      "velocity": 117,
      "chip": "ym2612"
    },
    {
      "channel": 0,
      "note": 60,
      "start": 35.1115,
      "duration": 0.0731,
      "velocity": 127,
      "chip": "ym2612"
    },
    {
      "channel": 3,
      "note": 89,
      "start": 35.1122,
      "duration": 0.0788,
      "velocity": 114,
      "chip": "ym2612"
    },
    {
      "channel": 4,
      "note": 110,
      "start": 35.1128,
      "duration": 0.0804,
      "velocity": 107,
      "chip": "ym2612"
    },
    {
      "channel": 0,
      "note": 55,
      "start": 35.1848,
      "duration": 0.5359,
      "velocity": 127,
      "chip": "ym2612"
    },
    {
      "channel": 1,
      "note": 91,
      "start": 35.1869,
      "duration": 0.2558,
      "velocity": 114,
      "chip": "ym2612"
    },
    {
      "channel": 2,
      "note": 86,
      "start": 35.189,
      "duration": 0.2542,
      "velocity": 114,
      "chip": "ym2612"
    },
    {
      "channel": 3,
      "note": 82,
      "start": 35.1912,
      "duration": 0.2526,
      "velocity": 114,
      "chip": "ym2612"
    },
    {
      "channel": 4,
      "note": 110,
      "start": 35.1933,
      "duration": 0.151,
      "velocity": 107,
      "chip": "ym2612"
    },
    {
      "channel": 4,
      "note": 110,
      "start": 35.3446,
      "duration": 0.0998,
      "velocity": 107,
      "chip": "ym2612"
    },
    {
      "channel": 1,
      "note": 91,
      "start": 35.4428,
      "duration": 5.9548,
      "velocity": 114,
      "chip": "ym2612"
    },
    {
      "channel": 2,
      "note": 86,
      "start": 35.4434,
      "duration": 5.9543,
      "velocity": 114,
      "chip": "ym2612"
    },
    {
      "channel": 3,
      "note": 82,
      "start": 35.4439,
      "duration": 5.9537,
      "velocity": 114,
      "chip": "ym2612"
    },
    {
      "channel": 4,
      "note": 110,
      "start": 35.4445,
      "duration": 0.1983,
      "velocity": 107,
      "chip": "ym2612"
    },
    {
      "channel": 4,
      "note": 110,
      "start": 35.643,
      "duration": 5.7546,
      "velocity": 107,
      "chip": "ym2612"
    },
    {
      "channel": 0,
      "note": 31,
      "start": 35.7208,
      "duration": 5.6768,
      "velocity": 127,
      "chip": "ym2612"
    }
  ]
}