{
  "track_name": "01 - Battle Theme 1",
  "duration_sec": 60.801,
  "sample_rate": 44100,
  "note_count": 1135,
  "unique_pitches": 58,
  "pitch_range": 67,
  "avg_note_duration": 0.2505,
  "reconstruction_stats": {
    "notes_reconstructed": 1135,
    "keyon_events": 1135,
    "keyoff_events": 1130,
    "orphan_keyons": 5,
    "unique_pitches": 58,
    "pitch_range": 67,
    "avg_duration_sec": 0.2505
  },
  "metadata": {
    "source": "S\\Shura no Mon\\01 - Battle Theme 1.vgz"
  },
  "notes": [
    {
      "channel": 1,
      "note": 54,
      "start": 0.0,
      "duration": 0.0906,
      "velocity": 90,
      "chip": "ym2612"
    },
    {
      "channel": 3,
      "note": 54,
      "start": 0.0066,
      "duration": 0.0848,
      "velocity": 90,
      "chip": "ym2612"
    },
    {
      "channel": 1,
      "note": 59,
      "start": 0.0911,
      "duration": 0.0843,
      "velocity": 90,
      "chip": "ym2612"
    },
    {
      "channel": 3,
      "note": 58,
      "start": 0.092,
      "duration": 0.0843,
      "velocity": 90,
      "chip": "ym2612"
    },
    {
      "channel": 1,
      "note": 61,
      "start": 0.176,
      "duration": 0.039,
      "velocity": 90,
      "chip": "ym2612"
    },
    {
      "channel": 3,
      "note": 61,
      "start": 0.1768,
      "duration": 0.039,
      "velocity": 90,
      "chip": "ym2612"
    },
    {
      "channel": 1,
      "note": 54,
      "start": 0.2155,
      "duration": 0.1274,
      "velocity": 90,
      "chip": "ym2612"
    },
    {
      "channel": 3,
      "note": 54,
      "start": 0.2163,
      "duration": 0.1274,
      "velocity": 90,
      "chip": "ym2612"
    },
    {
      "channel": 1,
      "note": 66,
      "start": 0.3435,
      "duration": 0.0846,
      "velocity": 90,
      "chip": "ym2612"
    },
    {
      "channel": 3,
      "note": 66,
      "start": 0.3443,
      "duration": 0.0846,
      "velocity": 90,
      "chip": "ym2612"
    },
    {
      "channel": 1,
      "note": 54,
      "start": 0.4287,
      "duration": 0.1751,
      "velocity": 90,
      "chip": "ym2612"
    },
    {
      "channel": 3,
      "note": 54,
      "start": 0.4295,
      "duration": 0.1751,
      "velocity": 90,
      "chip": "ym2612"
    },
    {
      "channel": 1,
      "note": 61,
      "start": 0.6043,
      "duration": 0.0399,
      "velocity": 90,
      "chip": "ym2612"
    },
    {
      "channel": 3,
      "note": 61,
      "start": 0.6051,
      "duration": 0.0399,
      "velocity": 90,
      "chip": "ym2612"
    },
    {
      "channel": 1,
      "note": 64,
      "start": 0.6448,
      "duration": 0.2601,
      "velocity": 90,
      "chip": "ym2612"
    },
    {
      "channel": 3,
      "note": 64,
      "start": 0.6461,
      "duration": 0.2596,
      "velocity": 90,
      "chip": "ym2612"
    },
    {
      "channel": 1,
      "note": 66,
      "start": 0.9055,
      "duration": 0.0847,
      "velocity": 90,
      "chip": "ym2612"
    },
    {
      "channel": 3,
      "note": 66,
      "start": 0.9063,
      "duration": 0.0847,
      "velocity": 90,
      "chip": "ym2612"
    },
    {
      "channel": 1,
      "note": 64,
      "start": 0.9908,
      "duration": 0.0403,
      "velocity": 90,
      "chip": "ym2612"
    },
    {
      "channel": 3,
      "note": 64,
      "start": 0.9916,
      "duration": 0.0404,
      "velocity": 90,
      "chip": "ym2612"
    },
    {
      "channel": 1,
      "note": 61,
      "start": 1.0317,
      "duration": 0.1258,
      "velocity": 90,
      "chip": "ym2612"
    },
    {
      "channel": 3,
      "note": 61,
      "start": 1.0325,
      "duration": 0.1263,
      "velocity": 90,
      "chip": "ym2612"
    },
    {
      "channel": 1,
      "note": 59,
      "start": 1.1584,
      "duration": 0.0841,
      "velocity": 90,
      "chip": "ym2612"
    },
    {
      "channel": 3,
      "note": 58,
      "start": 1.1595,
      "duration": 0.0839,
      "velocity": 90,
      "chip": "ym2612"
    },
    {
      "channel": 1,
      "note": 61,
      "start": 1.2432,
      "duration": 0.1755,
      "velocity": 90,
      "chip": "ym2612"
    },
    {
      "channel": 3,
      "note": 61,
      "start": 1.244,
      "duration": 0.1755,
      "velocity": 90,
      "chip": "ym2612"
    },
    {
      "channel": 1,
      "note": 59,
      "start": 1.4193,
      "duration": 0.039,
      "velocity": 90,
      "chip": "ym2612"
    },
    {
      "channel": 3,
      "note": 58,
      "start": 1.4201,
      "duration": 0.039,
      "velocity": 90,
      "chip": "ym2612"
    },
    {
      "channel": 1,
      "note": 52,
      "start": 1.4589,
      "duration": 0.1266,
      "velocity": 90,
      "chip": "ym2612"
    },
    {
      "channel": 3,
      "note": 52,
      "start": 1.4597,
      "duration": 0.1269,
      "velocity": 90,
      "chip": "ym2612"
    },
    {
      "channel": 1,
      "note": 54,
      "start": 1.5861,
      "duration": 0.0841,
      "velocity": 90,
      "chip": "ym2612"
    },
    {
      "channel": 3,
      "note": 54,
      "start": 1.5872,
      "duration": 0.0839,
      "velocity": 90,
      "chip": "ym2612"
    },
    {
      "channel": 1,
      "note": 59,
      "start": 1.6708,
      "duration": 0.0847,
      "velocity": 90,
      "chip": "ym2612"
    },
    {
      "channel": 3,
      "note": 58,
      "start": 1.6717,
      "duration": 0.0846,
      "velocity": 90,
      "chip": "ym2612"
    },
    {
      "channel": 1,
      "note": 61,
      "start": 1.7561,
      "duration": 0.038,
      "velocity": 90,
      "chip": "ym2612"
    },
    {
      "channel": 3,
      "note": 61,
      "start": 1.7569,
      "duration": 0.038,
      "velocity": 90,
      "chip": "ym2612"
    },
    {
      "channel": 1,
      "note": 54,
      "start": 1.7947,
      "duration": 0.1278,
      "velocity": 90,
      "chip": "ym2612"
    },
    {
      "channel": 3,
      "note": 54,
      "start": 1.7955,
      "duration": 0.1278,
      "velocity": 90,
      "chip": "ym2612"
    },
    {
      "channel": 1,
      "note": 66,
      "start": 1.923,
      "duration": 0.0846,
      "velocity": 90,
      "chip": "ym2612"
    },
    {
      "channel": 3,
      "note": 66,
      "start": 1.9239,
      "duration": 0.0846,
      "velocity": 90,
      "chip": "ym2612"
    },
    {
      "channel": 1,
      "note": 54,
      "start": 2.0082,
      "duration": 0.1751,
      "velocity": 90,
      "chip": "ym2612"
    },
    {
      "channel": 3,
      "note": 54,
      "start": 2.009,
      "duration": 0.1751,
      "velocity": 90,
      "chip": "ym2612"
    },
    {
      "channel": 1,
      "note": 61,
      "start": 2.1838,
      "duration": 0.0405,
      "velocity": 90,
      "chip": "ym2612"
    },
    {
      "channel": 3,
      "note": 61,
      "start": 2.1846,
      "duration": 0.0404,
      "velocity": 90,
      "chip": "ym2612"
    },
    {
      "channel": 1,
      "note": 64,
      "start": 2.2248,
      "duration": 0.2601,
      "velocity": 90,
      "chip": "ym2612"
    },
    {
      "channel": 3,
      "note": 64,
      "start": 2.2257,
      "duration": 0.2601,
      "velocity": 90,
      "chip": "ym2612"
    },
    {
      "channel": 1,
      "note": 66,
      "start": 2.4856,
      "duration": 0.0844,
      "velocity": 90,
      "chip": "ym2612"
    },
    {
      "channel": 3,
      "note": 66,
      "start": 2.487,
      "duration": 0.0838,
      "velocity": 90,
      "chip": "ym2612"
    },
    {
      "channel": 1,
      "note": 64,
      "start": 2.5706,
      "duration": 0.0395,
      "velocity": 90,
      "chip": "ym2612"
    },
    {
      "channel": 3,
      "note": 64,
      "start": 2.5714,
      "duration": 0.0395,
      "velocity": 90,
      "chip": "ym2612"
    },
    {
      "channel": 1,
      "note": 61,
      "start": 2.6107,
      "duration": 0.1273,
      "velocity": 90,
      "chip": "ym2612"
    },
    {
      "channel": 3,
      "note": 61,
      "start": 2.6115,
      "duration": 0.1273,
      "velocity": 90,
      "chip": "ym2612"
    },
    {
      "channel": 1,
      "note": 59,
      "start": 2.7386,
      "duration": 0.0851,
      "velocity": 90,
      "chip": "ym2612"
    },
    {
      "channel": 3,
      "note": 58,
      "start": 2.7394,
      "duration": 0.0862,
      "velocity": 90,
      "chip": "ym2612"
    },
    {
      "channel": 0,
      "note": 90,
      "start": 2.8235,
      "duration": 0.0492,
      "velocity": 98,
      "chip": "ym2612"
    },
    {
      "channel": 1,
      "note": 61,
      "start": 2.8242,
      "duration": 0.0488,
      "velocity": 90,
      "chip": "ym2612"
    },
    {
      "channel": 2,
      "note": 85,
      "start": 2.8255,
      "duration": 0.0483,
      "velocity": 98,
      "chip": "ym2612"
    },
    {
      "channel": 3,
      "note": 61,
      "start": 2.8262,
      "duration": 0.048,
      "velocity": 90,
      "chip": "ym2612"
    },
    {
      "channel": 1,
      "note": 59,
      "start": 2.8736,
      "duration": 0.0439,
      "velocity": 90,
      "chip": "ym2612"
    },
    {
      "channel": 3,
      "note": 58,
      "start": 2.8747,
      "duration": 0.0442,
      "velocity": 90,
      "chip": "ym2612"
    },
    {
      "channel": 4,
      "note": 90,
      "start": 2.8755,
      "duration": 0.0444,
      "velocity": 98,
      "chip": "ym2612"
    },
    {
      "channel": 0,
      "note": 90,
      "start": 2.9173,
      "duration": 0.0492,
      "velocity": 98,
      "chip": "ym2612"
    },
    {
      "channel": 1,
      "note": 52,
      "start": 2.9181,
      "duration": 0.0488,
      "velocity": 90,
      "chip": "ym2612"
    },
    {
      "channel": 2,
      "note": 85,
      "start": 2.9188,
      "duration": 0.0488,
      "velocity": 98,
      "chip": "ym2612"
    },
    {
      "channel": 3,
      "note": 52,
      "start": 2.9195,
      "duration": 0.0485,
      "velocity": 90,
      "chip": "ym2612"
    },
    {
      "channel": 1,
      "note": 54,
      "start": 2.9675,
      "duration": 0.0838,
      "velocity": 90,
      "chip": "ym2612"
    },
    {
      "channel": 3,
      "note": 54,
      "start": 2.9687,
      "duration": 0.0835,
      "velocity": 90,
      "chip": "ym2612"
    },
    {
      "channel": 4,
      "note": 90,
      "start": 2.9694,
      "duration": 0.0834,
      "velocity": 98,
      "chip": "ym2612"
    },
    {
      "channel": 1,
      "note": 59,
      "start": 3.0519,
      "duration": 0.0847,
      "velocity": 90,
      "chip": "ym2612"
    },
    {
      "channel": 3,
      "note": 58,
      "start": 3.0527,
      "duration": 0.0847,
      "velocity": 90,
      "chip": "ym2612"
    },
    {
      "channel": 1,
      "note": 61,
      "start": 3.1372,
      "duration": 0.0388,
      "velocity": 90,
      "chip": "ym2612"
    },
    {
      "channel": 3,
      "note": 61,
      "start": 3.138,
      "duration": 0.0387,
      "velocity": 90,
      "chip": "ym2612"
    },
    {
      "channel": 1,
      "note": 54,
      "start": 3.1765,
      "duration": 0.127,
      "velocity": 90,
      "chip": "ym2612"
    },
    {
      "channel": 3,
      "note": 54,
      "start": 3.1773,
      "duration": 0.127,
      "velocity": 90,
      "chip": "ym2612"
    },
    {
      "channel": 1,
      "note": 66,
      "start": 3.3041,
      "duration": 0.0851,
      "velocity": 90,
      "chip": "ym2612"
    },
    {
      "channel": 3,
      "note": 66,
      "start": 3.3049,
      "duration": 0.0851,
      "velocity": 90,
      "chip": "ym2612"
    },
    {
      "channel": 1,
      "note": 54,
      "start": 3.3898,
      "duration": 0.175,
      "velocity": 90,
      "chip": "ym2612"
    },
    {
      "channel": 3,
      "note": 54,
      "start": 3.3906,
      "duration": 0.175,
      "velocity": 90,
      "chip": "ym2612"
    },
    {
      "channel": 1,
      "note": 61,
      "start": 3.5654,
      "duration": 0.0403,
      "velocity": 90,
      "chip": "ym2612"
    },
    {
      "channel": 3,
      "note": 61,
      "start": 3.5664,
      "duration": 0.04,
      "velocity": 90,
      "chip": "ym2612"
    },
    {
      "channel": 1,
      "note": 64,
      "start": 3.6063,
      "duration": 0.2595,
      "velocity": 90,
      "chip": "ym2612"
    },
    {
      "channel": 3,
      "note": 64,
      "start": 3.6071,
      "duration": 0.2596,
      "velocity": 90,
      "chip": "ym2612"
    },
    {
      "channel": 1,
      "note": 66,
      "start": 3.8664,
      "duration": 0.0849,
      "velocity": 90,
      "chip": "ym2612"
    },
    {
      "channel": 3,
      "note": 66,
      "start": 3.8672,
      "duration": 0.085,
      "velocity": 90,
      "chip": "ym2612"
    },
    {
      "channel": 1,
      "note": 64,
      "start": 3.9519,
      "duration": 0.038,
      "velocity": 90,
      "chip": "ym2612"
    },
    {
      "channel": 3,
      "note": 64,
      "start": 3.9527,
      "duration": 0.0379,
      "velocity": 90,
      "chip": "ym2612"
    },
    {
      "channel": 1,
      "note": 61,
      "start": 3.9905,
      "duration": 0.1274,
      "velocity": 90,
      "chip": "ym2612"
    },
    {
      "channel": 3,
      "note": 61,
      "start": 3.9912,
      "duration": 0.1274,
      "velocity": 90,
      "chip": "ym2612"
    },
    {
      "channel": 1,
      "note": 59,
      "start": 4.1185,
      "duration": 0.0846,
      "velocity": 90,
      "chip": "ym2612"
    },
    {
      "channel": 3,
      "note": 58,
      "start": 4.1193,
      "duration": 0.0846,
      "velocity": 90,
      "chip": "ym2612"
    },
    {
      "channel": 1,
      "note": 61,
      "start": 4.2036,
      "duration": 0.1751,
      "velocity": 90,
      "chip": "ym2612"
    },
    {
      "channel": 3,
      "note": 61,
      "start": 4.2045,
      "duration": 0.175,
      "velocity": 90,
      "chip": "ym2612"
    },
    {
      "channel": 1,
      "note": 59,
      "start": 4.3793,
      "duration": 0.0394,
      "velocity": 90,
      "chip": "ym2612"
    },
    {
      "channel": 3,
      "note": 58,
      "start": 4.3801,
      "duration": 0.0393,
      "velocity": 90,
      "chip": "ym2612"
    },
    {
      "channel": 1,
      "note": 52,
      "start": 4.4192,
      "duration": 0.1273,
      "velocity": 90,
      "chip": "ym2612"
    },
    {
      "channel": 3,
      "note": 52,
      "start": 4.42,
      "duration": 0.128,
      "velocity": 90,
      "chip": "ym2612"
    },
    {
      "channel": 1,
      "note": 54,
      "start": 4.5471,
      "duration": 0.084,
      "velocity": 90,
      "chip": "ym2612"
    },
    {
      "channel": 3,
      "note": 54,
      "start": 4.5485,
      "duration": 0.0834,
      "velocity": 90,
      "chip": "ym2612"
    },
    {
      "channel": 1,
      "note": 59,
      "start": 4.6317,
      "duration": 0.084,
      "velocity": 90,
      "chip": "ym2612"
    },
    {
      "channel": 3,
      "note": 58,
      "start": 4.6326,
      "duration": 0.0841,
      "velocity": 90,
      "chip": "ym2612"
    },
    {
      "channel": 1,
      "note": 61,
      "start": 4.7163,
      "duration": 0.0395,
      "velocity": 90,
      "chip": "ym2612"
    },
    {
      "channel": 3,
      "note": 61,
      "start": 4.7172,
      "duration": 0.0395,
      "velocity": 90,
      "chip": "ym2612"
    },
    {
      "channel": 1,
      "note": 54,
      "start": 4.7564,
      "duration": 0.1275,
      "velocity": 90,
      "chip": "ym2612"
    },
    {
      "channel": 3,
      "note": 54,
      "start": 4.7573,
      "duration": 0.1275,
      "velocity": 90,
      "chip": "ym2612"
    },
    {
      "channel": 1,
      "note": 66,
      "start": 4.8845,
      "duration": 0.0847,
      "velocity": 90,
      "chip": "ym2612"
    },
    {
      "channel": 3,
      "note": 66,
      "start": 4.8853,
      "duration": 0.0853,
      "velocity": 90,
      "chip": "ym2612"
    },
    {
      "channel": 1,
      "note": 54,
      "start": 4.9698,
      "duration": 0.1751,
      "velocity": 90,
      "chip": "ym2612"
    },
    {
      "channel": 3,
      "note": 54,
      "start": 4.9712,
      "duration": 0.1745,
      "velocity": 90,
      "chip": "ym2612"
    },
    {
      "channel": 1,
      "note": 61,
      "start": 5.1454,
      "duration": 0.041,
      "velocity": 90,
      "chip": "ym2612"
    },
    {
      "channel": 3,
      "note": 61,
      "start": 5.1462,
      "duration": 0.041,
      "velocity": 90,
      "chip": "ym2612"
    },
    {
      "channel": 1,
      "note": 64,
      "start": 5.187,
      "duration": 0.2592,
      "velocity": 90,
      "chip": "ym2612"
    },
    {
      "channel": 3,
      "note": 64,
      "start": 5.1878,
      "duration": 0.2592,
      "velocity": 90,
      "chip": "ym2612"
    },
    {
      "channel": 1,
      "note": 66,
      "start": 5.4467,
      "duration": 0.085,
      "velocity": 90,
      "chip": "ym2612"
    },
    {
      "channel": 3,
      "note": 66,
      "start": 5.4476,
      "duration": 0.085,
      "velocity": 90,
      "chip": "ym2612"
    },
    {
      "channel": 1,
      "note": 64,
      "start": 5.5323,
      "duration": 0.039,
      "velocity": 90,
      "chip": "ym2612"
    },
    {
      "channel": 3,
      "note": 64,
      "start": 5.5331,
      "duration": 0.039,
      "velocity": 90,
      "chip": "ym2612"
    },
    {
      "channel": 1,
      "note": 61,
      "start": 5.5719,
      "duration": 0.1273,
      "velocity": 90,
      "chip": "ym2612"
    },
    {
      "channel": 3,
      "note": 61,
      "start": 5.5727,
      "duration": 0.1273,
      "velocity": 90,
      "chip": "ym2612"
    },
    {
      "channel": 1,
      "note": 59,
      "start": 5.6998,
      "duration": 0.0857,
      "velocity": 90,
      "chip": "ym2612"
    },
    {
      "channel": 3,
      "note": 58,
      "start": 5.7006,
      "duration": 0.0863,
      "velocity": 90,
      "chip": "ym2612"
    },
    {
      "channel": 0,
      "note": 90,
      "start": 5.7853,
      "duration": 0.0479,
      "velocity": 98,
      "chip": "ym2612"
    },
    {
      "channel": 1,
      "note": 61,
      "start": 5.7861,
      "duration": 0.0474,
      "velocity": 90,
      "chip": "ym2612"
    },
    {
      "channel": 2,
      "note": 85,
      "start": 5.7868,
      "duration": 0.0476,
      "velocity": 98,
      "chip": "ym2612"
    },
    {
      "channel": 3,
      "note": 61,
      "start": 5.7875,
      "duration": 0.0472,
      "velocity": 90,
      "chip": "ym2612"
    },
    {
      "channel": 1,
      "note": 59,
      "start": 5.8341,
      "duration": 0.0439,
      "velocity": 90,
      "chip": "ym2612"
    },
    {
      "channel": 3,
      "note": 58,
      "start": 5.8353,
      "duration": 0.0442,
      "velocity": 90,
      "chip": "ym2612"
    },
    {
      "channel": 4,
      "note": 90,
      "start": 5.836,
      "duration": 0.0443,
      "velocity": 98,
      "chip": "ym2612"
    },
    {
      "channel": 0,
      "note": 90,
      "start": 5.8778,
      "duration": 0.0545,
      "velocity": 101,
      "chip": "ym2612"
    },
    {
      "channel": 1,
      "note": 52,
      "start": 5.8785,
      "duration": 0.0547,
      "velocity": 90,
      "chip": "ym2612"
    },
    {
      "channel": 2,
      "note": 85,
      "start": 5.8793,
      "duration": 0.0578,
      "velocity": 100,
      "chip": "ym2612"
    },
    {
      "channel": 3,
      "note": 52,
      "start": 5.88,
      "duration": 0.0609,
      "velocity": 104,
      "chip": "ym2612"
    },
    {
      "channel": 0,
      "note": 85,
      "start": 5.9331,
      "duration": 0.4307,
      "velocity": 101,
      "chip": "ym2612"
    },
    {
      "channel": 1,
      "note": 54,
      "start": 5.9338,
      "duration": 0.0926,
      "velocity": 90,
      "chip": "ym2612"
    },
    {
      "channel": 2,
      "note": 78,
      "start": 5.9377,
      "duration": 0.0895,
      "velocity": 100,
      "chip": "ym2612"
    },
    {
      "channel": 3,
      "note": 68,
      "start": 5.9416,
      "duration": 0.6529,
      "velocity": 104,
      "chip": "ym2612"
    },
    {
      "channel": 4,
      "note": 90,
      "start": 5.9424,
      "duration": 0.0922,
      "velocity": 101,
      "chip": "ym2612"
    },
    {
      "channel": 1,
      "note": 59,
      "start": 6.0271,
      "duration": 0.0841,
      "velocity": 90,
      "chip": "ym2612"
    },
    {
      "channel": 2,
      "note": 85,
      "start": 6.0278,
      "duration": 0.084,
      "velocity": 100,
      "chip": "ym2612"
    },
    {
      "channel": 4,
      "note": 85,
      "start": 6.0352,
      "duration": 0.5075,
      "velocity": 101,
      "chip": "ym2612"
    },
    {
      "channel": 1,
      "note": 61,
      "start": 6.1117,
      "duration": 0.0504,
      "velocity": 90,
      "chip": "ym2612"
    },
    {
      "channel": 2,
      "note": 90,
      "start": 6.1125,
      "duration": 0.0504,
      "velocity": 100,
      "chip": "ym2612"
    },
    {
      "channel": 1,
      "note": 54,
      "start": 6.1627,
      "duration": 0.1161,
      "velocity": 90,
      "chip": "ym2612"
    },
    {
      "channel": 2,
      "note": 94,
      "start": 6.1634,
      "duration": 0.116,
      "velocity": 100,
      "chip": "ym2612"
    },
    {
      "channel": 1,
      "note": 66,
      "start": 6.2793,
      "duration": 0.0853,
      "velocity": 90,
      "chip": "ym2612"
    },
    {
      "channel": 2,
      "note": 97,
      "start": 6.2801,
      "duration": 0.0852,
      "velocity": 100,
      "chip": "ym2612"
    },
    {
      "channel": 0,
      "note": 82,
      "start": 6.3645,
      "duration": 0.1749,
      "velocity": 101,
      "chip": "ym2612"
    },
    {
      "channel": 1,
      "note": 54,
      "start": 6.3652,
      "duration": 0.1754,
      "velocity": 90,
      "chip": "ym2612"
    },
    {
      "channel": 2,
      "note": 94,
      "start": 6.3659,
      "duration": 0.1756,
      "velocity": 100,
      "chip": "ym2612"
    },
    {
      "channel": 0,
      "note": 83,
      "start": 6.54,
      "duration": 0.0522,
      "velocity": 101,
      "chip": "ym2612"
    },
    {
      "channel": 1,
      "note": 61,
      "start": 6.5414,
      "duration": 0.0517,
      "velocity": 90,
      "chip": "ym2612"
    },
    {
      "channel": 2,
      "note": 90,
      "start": 6.5421,
      "duration": 0.0517,
      "velocity": 100,
      "chip": "ym2612"
    },
    {
      "channel": 4,
      "note": 82,
      "start": 6.5434,
      "duration": 0.052,
      "velocity": 101,
      "chip": "ym2612"
    },
    {
      "channel": 0,
      "note": 85,
      "start": 6.5929,
      "duration": 0.2599,
      "velocity": 101,
      "chip": "ym2612"
    },
    {
      "channel": 1,
      "note": 64,
      "start": 6.5937,
      "duration": 0.26,
      "velocity": 90,
      "chip": "ym2612"
    },
    {
      "channel": 2,
      "note": 76,
      "start": 6.5944,
      "duration": 0.2601,
      "velocity": 100,
      "chip": "ym2612"
    },
    {
      "channel": 3,
      "note": 64,
      "start": 6.5952,
      "duration": 0.942,
      "velocity": 104,
      "chip": "ym2612"
    },
    {
      "channel": 4,
      "note": 83,
      "start": 6.5961,
      "duration": 0.0841,
      "velocity": 101,
      "chip": "ym2612"
    },
    {
      "channel": 4,
      "note": 85,
      "start": 6.6808,
      "duration": 0.2591,
      "velocity": 101,
      "chip": "ym2612"
    },
    {
      "channel": 0,
      "note": 83,
      "start": 6.8536,
      "duration": 0.1366,
      "velocity": 101,
      "chip": "ym2612"
    },
    {
      "channel": 1,
      "note": 66,
      "start": 6.8543,
      "duration": 0.0837,
      "velocity": 90,
      "chip": "ym2612"
    },
    {
      "channel": 2,
      "note": 83,
      "start": 6.855,
      "duration": 0.0837,
      "velocity": 100,
      "chip": "ym2612"
    },
    {
      "channel": 1,
      "note": 64,
      "start": 6.9386,
      "duration": 0.0524,
      "velocity": 90,
      "chip": "ym2612"
    },
    {
      "channel": 2,
      "note": 88,
      "start": 6.9393,
      "duration": 0.0524,
      "velocity": 100,
      "chip": "ym2612"
    },
    {
      "channel": 4,
      "note": 83,
      "start": 6.9406,
      "duration": 0.168,
      "velocity": 101,
      "chip": "ym2612"
    },
    {
      "channel": 0,
      "note": 82,
      "start": 6.9908,
      "duration": 0.2004,
      "velocity": 101,
      "chip": "ym2612"
    },
    {
      "channel": 1,
      "note": 61,
      "start": 6.9915,
      "duration": 0.1151,
      "velocity": 90,
      "chip": "ym2612"
    },
    {
      "channel": 2,
      "note": 92,
      "start": 6.9923,
      "duration": 0.1151,
      "velocity": 100,
      "chip": "ym2612"
    },
    {
      "channel": 1,
      "note": 59,
      "start": 7.1072,
      "duration": 0.0848,
      "velocity": 90,
      "chip": "ym2612"
    },
    {
      "channel": 2,
      "note": 95,
      "start": 7.1079,
      "duration": 0.0848,
      "velocity": 100,
      "chip": "ym2612"
    },
    {
      "channel": 4,
      "note": 82,
      "start": 7.1097,
      "duration": 0.2594,
      "velocity": 101,
      "chip": "ym2612"
    },
    {
      "channel": 0,
      "note": 83,
      "start": 7.1919,
      "duration": 0.2274,
      "velocity": 101,
      "chip": "ym2612"
    },
    {
      "channel": 1,
      "note": 61,
      "start": 7.1926,
      "duration": 0.1746,
      "velocity": 90,
      "chip": "ym2612"
    },
    {
      "channel": 2,
      "note": 92,
      "start": 7.1933,
      "duration": 0.1746,
      "velocity": 100,
      "chip": "ym2612"
    },
    {
      "channel": 1,
      "note": 59,
      "start": 7.3678,
      "duration": 0.0524,
      "velocity": 90,
      "chip": "ym2612"
    },
    {
      "channel": 2,
      "note": 88,
      "start": 7.3685,
      "duration": 0.0524,
      "velocity": 100,
      "chip": "ym2612"
    },
    {
      "channel": 4,
      "note": 83,
      "start": 7.3698,
      "duration": 0.1682,
      "velocity": 101,
      "chip": "ym2612"
    },
    {
      "channel": 0,
      "note": 81,
      "start": 7.42,
      "duration": 0.4523,
      "velocity": 101,
      "chip": "ym2612"
    },
    {
      "channel": 1,
      "note": 52,
      "start": 7.4207,
      "duration": 0.1151,
      "velocity": 90,
      "chip": "ym2612"
    },
    {
      "channel": 2,
      "note": 83,
      "start": 7.4215,
      "duration": 0.115,
      "velocity": 100,
      "chip": "ym2612"
    },
    {
      "channel": 1,
      "note": 52,
      "start": 7.5363,
      "duration": 0.0838,
      "velocity": 90,
      "chip": "ym2612"
    },
    {
      "channel": 2,
      "note": 74,
      "start": 7.5371,
      "duration": 0.0838,
      "velocity": 100,
      "chip": "ym2612"
    },
    {
      "channel": 3,
      "note": 62,
      "start": 7.5379,
      "duration": 1.5921,
      "velocity": 104,
      "chip": "ym2612"
    },
    {
      "channel": 4,
      "note": 81,
      "start": 7.5387,
      "duration": 0.4211,
      "velocity": 101,
      "chip": "ym2612"
    },
    {
      "channel": 1,
      "note": 57,
      "start": 7.6207,
      "duration": 0.0847,
      "velocity": 90,
      "chip": "ym2612"
    },
    {
      "channel": 2,
      "note": 81,
      "start": 7.6214,
      "duration": 0.0847,
      "velocity": 100,
      "chip": "ym2612"
    },
    {
      "channel": 1,
      "note": 59,
      "start": 7.7059,
      "duration": 0.0532,
      "velocity": 90,
      "chip": "ym2612"
    },
    {
      "channel": 2,
      "note": 86,
      "start": 7.7067,
      "duration": 0.0534,
      "velocity": 100,
      "chip": "ym2612"
    },
    {
      "channel": 1,
      "note": 52,
      "start": 7.7597,
      "duration": 0.1134,
      "velocity": 90,
      "chip": "ym2612"
    },
    {
      "channel": 2,
      "note": 90,
      "start": 7.761,
      "duration": 0.1129,
      "velocity": 100,
      "chip": "ym2612"
    },
    {
      "channel": 0,
      "note": 81,
      "start": 7.8729,
      "duration": 0.2596,
      "velocity": 101,
      "chip": "ym2612"
    },
    {
      "channel": 1,
      "note": 62,
      "start": 7.8737,
      "duration": 0.0842,
      "velocity": 90,
      "chip": "ym2612"
    },
    {
      "channel": 2,
      "note": 93,
      "start": 7.8744,
      "duration": 0.0842,
      "velocity": 100,
      "chip": "ym2612"
    },
    {
      "channel": 1,
      "note": 57,
      "start": 7.9584,
      "duration": 0.1749,
      "velocity": 90,
      "chip": "ym2612"
    },
    {
      "channel": 2,
      "note": 90,
      "start": 7.9592,
      "duration": 0.1749,
      "velocity": 100,
      "chip": "ym2612"
    },
    {
      "channel": 4,
      "note": 81,
      "start": 7.9605,
      "duration": 0.2274,
      "velocity": 101,
      "chip": "ym2612"
    },
    {
      "channel": 0,
      "note": 80,
      "start": 8.1332,
      "duration": 0.0519,
      "velocity": 101,
      "chip": "ym2612"
    },
    {
      "channel": 1,
      "note": 59,
      "start": 8.1339,
      "duration": 0.052,
      "velocity": 90,
      "chip": "ym2612"
    },
    {
      "channel": 2,
      "note": 86,
      "start": 8.1347,
      "duration": 0.052,
      "velocity": 100,
      "chip": "ym2612"
    },
    {
      "channel": 0,
      "note": 78,
      "start": 8.1858,
      "duration": 0.5129,
      "velocity": 101,
      "chip": "ym2612"
    },
    {
      "channel": 1,
      "note": 64,
      "start": 8.1865,
      "duration": 0.2605,
      "velocity": 90,
      "chip": "ym2612"
    },
    {
      "channel": 2,
      "note": 98,
      "start": 8.1873,
      "duration": 0.0849,
      "velocity": 100,
      "chip": "ym2612"
    },
    {
      "channel": 4,
      "note": 80,
      "start": 8.1886,
      "duration": 0.085,
      "velocity": 101,
      "chip": "ym2612"
    },
    {
      "channel": 2,
      "note": 86,
      "start": 8.2728,
      "duration": 0.175,
      "velocity": 100,
      "chip": "ym2612"
    },
    {
      "channel": 4,
      "note": 78,
      "start": 8.2743,
      "duration": 0.5124,
      "velocity": 101,
      "chip": "ym2612"
    },
    {
      "channel": 1,
      "note": 62,
      "start": 8.4476,
      "duration": 0.0846,
      "velocity": 90,
      "chip": "ym2612"
    },
    {
      "channel": 2,
      "note": 93,
      "start": 8.4483,
      "duration": 0.0846,
      "velocity": 100,
      "chip": "ym2612"
    },
    {
      "channel": 1,
      "note": 57,
      "start": 8.5328,
      "duration": 0.0509,
      "velocity": 90,
      "chip": "ym2612"
    },
    {
      "channel": 2,
      "note": 90,
      "start": 8.5336,
      "duration": 0.0509,
      "velocity": 100,
      "chip": "ym2612"
    },
    {
      "channel": 1,
      "note": 59,
      "start": 8.5842,
      "duration": 0.1152,
      "velocity": 90,
      "chip": "ym2612"
    },
    {
      "channel": 2,
      "note": 81,
      "start": 8.585,
      "duration": 0.1151,
      "velocity": 100,
      "chip": "ym2612"
    },
    {
      "channel": 0,
      "note": 73,
      "start": 8.6993,
      "duration": 0.0846,
      "velocity": 101,
      "chip": "ym2612"
    },
    {
      "channel": 1,
      "note": 52,
      "start": 8.7,
      "duration": 0.0848,
      "velocity": 90,
      "chip": "ym2612"
    },
    {
      "channel": 2,
      "note": 86,
      "start": 8.7008,
      "duration": 0.0847,
      "velocity": 100,
      "chip": "ym2612"
    },
    {
      "channel": 0,
      "note": 78,
      "start": 8.7846,
      "duration": 0.1749,
      "velocity": 101,
      "chip": "ym2612"
    },
    {
      "channel": 1,
      "note": 52,
      "start": 8.7854,
      "duration": 0.175,
      "velocity": 90,
      "chip": "ym2612"
    },
    {
      "channel": 2,
      "note": 90,
      "start": 8.7861,
      "duration": 0.175,
      "velocity": 100,
      "chip": "ym2612"
    },
    {
      "channel": 4,
      "note": 73,
      "start": 8.7874,
      "duration": 0.1749,
      "velocity": 101,
      "chip": "ym2612"
    },
    {
      "channel": 0,
      "note": 80,
      "start": 8.9602,
      "duration": 0.0528,
      "velocity": 101,
      "chip": "ym2612"
    },
    {
      "channel": 1,
      "note": 50,
      "start": 8.9609,
      "duration": 0.0529,
      "velocity": 90,
      "chip": "ym2612"
    },
    {
      "channel": 2,
      "note": 86,
      "start": 8.9617,
      "duration": 0.0529,
      "velocity": 100,
      "chip": "ym2612"
    },
    {
      "channel": 4,
      "note": 78,
      "start": 8.9636,
      "duration": 0.0522,
      "velocity": 101,
      "chip": "ym2612"
    },
    {
      "channel": 0,
      "note": 81,
      "start": 9.0137,
      "duration": 0.4515,
      "velocity": 101,
      "chip": "ym2612"
    },
    {
      "channel": 1,
      "note": 49,
      "start": 9.0144,
      "duration": 0.1135,
      "velocity": 90,
      "chip": "ym2612"
    },
    {
      "channel": 2,
      "note": 81,
      "start": 9.0152,
      "duration": 0.1135,
      "velocity": 100,
      "chip": "ym2612"
    },
    {
      "channel": 4,
      "note": 80,
      "start": 9.0165,
      "duration": 0.1143,
      "velocity": 101,
      "chip": "ym2612"
    },
    {
      "channel": 1,
      "note": 47,
      "start": 9.1285,
      "duration": 0.0843,
      "velocity": 90,
      "chip": "ym2612"
    },
    {
      "channel": 2,
      "note": 71,
      "start": 9.1298,
      "duration": 0.0836,
      "velocity": 100,
      "chip": "ym2612"
    },
    {
      "channel": 3,
      "note": 62,
      "start": 9.1307,
      "duration": 0.6508,
      "velocity": 104,
      "chip": "ym2612"
    },
    {
      "channel": 4,
      "note": 81,
      "start": 9.1315,
      "duration": 0.4214,
      "velocity": 101,
      "chip": "ym2612"
    },
    {
      "channel": 1,
      "note": 52,
      "start": 9.2133,
      "duration": 0.0846,
      "velocity": 90,
      "chip": "ym2612"
    },
    {
      "channel": 2,
      "note": 78,
      "start": 9.214,
      "duration": 0.0849,
      "velocity": 100,
      "chip": "ym2612"
    },
    {
      "channel": 1,
      "note": 54,
      "start": 9.2988,
      "duration": 0.0532,
      "velocity": 90,
      "chip": "ym2612"
    },
    {
      "channel": 2,
      "note": 83,
      "start": 9.2996,
      "duration": 0.0532,
      "velocity": 100,
      "chip": "ym2612"
    },
    {
      "channel": 1,
      "note": 47,
      "start": 9.3526,
      "duration": 0.1134,
      "velocity": 90,
      "chip": "ym2612"
    },
    {
      "channel": 2,
      "note": 86,
      "start": 9.3534,
      "duration": 0.1133,
      "velocity": 100,
      "chip": "ym2612"
    },
    {
      "channel": 0,
      "note": 78,
      "start": 9.4658,
      "duration": 0.0842,
      "velocity": 101,
      "chip": "ym2612"
    },
    {
      "channel": 1,
      "note": 59,
      "start": 9.4666,
      "duration": 0.0843,
      "velocity": 90,
      "chip": "ym2612"
    },
    {
      "channel": 2,
      "note": 90,
      "start": 9.4673,
      "duration": 0.0843,
      "velocity": 100,
      "chip": "ym2612"
    },
    {
      "channel": 0,
      "note": 81,
      "start": 9.5507,
      "duration": 0.1749,
      "velocity": 101,
      "chip": "ym2612"
    },
    {
      "channel": 1,
      "note": 47,
      "start": 9.5515,
      "duration": 0.1751,
      "velocity": 90,
      "chip": "ym2612"
    },
    {
      "channel": 2,
      "note": 93,
      "start": 9.5522,
      "duration": 0.175,
      "velocity": 100,
      "chip": "ym2612"
    },
    {
      "channel": 4,
      "note": 78,
      "start": 9.5536,
      "duration": 0.1749,
      "velocity": 101,
      "chip": "ym2612"
    },
    {
      "channel": 0,
      "note": 85,
      "start": 9.7264,
      "duration": 0.0527,
      "velocity": 101,
      "chip": "ym2612"
    },
    {
      "channel": 1,
      "note": 52,
      "start": 9.7271,
      "duration": 0.0528,
      "velocity": 90,
      "chip": "ym2612"
    },
    {
      "channel": 2,
      "note": 90,
      "start": 9.7278,
      "duration": 0.0528,
      "velocity": 100,
      "chip": "ym2612"
    },
    {
      "channel": 4,
      "note": 81,
      "start": 9.7291,
      "duration": 0.0531,
      "velocity": 101,
      "chip": "ym2612"
    },
    {
      "channel": 0,
      "note": 83,
      "start": 9.7798,
      "duration": 0.2602,
      "velocity": 101,
      "chip": "ym2612"
    },
    {
      "channel": 1,
      "note": 49,
      "start": 9.7805,
      "duration": 0.2603,
      "velocity": 90,
      "chip": "ym2612"
    },
    {
      "channel": 2,
      "note": 73,
      "start": 9.7812,
      "duration": 0.0842,
      "velocity": 100,
      "chip": "ym2612"
    },
    {
      "channel": 3,
      "note": 64,
      "start": 9.7821,
      "duration": 0.8265,
      "velocity": 104,
      "chip": "ym2612"
    },
    {
      "channel": 4,
      "note": 85,
      "start": 9.7829,
      "duration": 0.0839,
      "velocity": 101,
      "chip": "ym2612"
    },
    {
      "channel": 2,
      "note": 73,
      "start": 9.866,
      "duration": 0.1755,
      "velocity": 100,
      "chip": "ym2612"
    },
    {
      "channel": 4,
      "note": 83,
      "start": 9.8676,
      "duration": 0.26,
      "velocity": 101,
      "chip": "ym2612"
    },
    {
      "channel": 0,
      "note": 81,
      "start": 10.0406,
      "duration": 0.1366,
      "velocity": 101,
      "chip": "ym2612"
    },
    {
      "channel": 1,
      "note": 54,
      "start": 10.0414,
      "duration": 0.0842,
      "velocity": 90,
      "chip": "ym2612"
    },
    {
      "channel": 2,
      "note": 80,
      "start": 10.0421,
      "duration": 0.0842,
      "velocity": 100,
      "chip": "ym2612"
    },
    {
      "channel": 1,
      "note": 56,
      "start": 10.1262,
      "duration": 0.052,
      "velocity": 90,
      "chip": "ym2612"
    },
    {
      "channel": 2,
      "note": 85,
      "start": 10.1269,
      "duration": 0.0519,
      "velocity": 100,
      "chip": "ym2612"
    },
    {
      "channel": 4,
      "note": 81,
      "start": 10.1282,
      "duration": 0.1672,
      "velocity": 101,
      "chip": "ym2612"
    },
    {
      "channel": 0,
      "note": 80,
      "start": 10.178,
      "duration": 0.1998,
      "velocity": 101,
      "chip": "ym2612"
    },
    {
      "channel": 1,
      "note": 49,
      "start": 10.1787,
      "duration": 0.1148,
      "velocity": 90,
      "chip": "ym2612"
    },
    {
      "channel": 2,
      "note": 88,
      "start": 10.1795,
      "duration": 0.1147,
      "velocity": 100,
      "chip": "ym2612"
    },
    {
      "channel": 1,
      "note": 61,
      "start": 10.2941,
      "duration": 0.0845,
      "velocity": 90,
      "chip": "ym2612"
    },
    {
      "channel": 2,
      "note": 92,
      "start": 10.2948,
      "duration": 0.0844,
      "velocity": 100,
      "chip": "ym2612"
    },
    {
      "channel": 4,
      "note": 80,
      "start": 10.2961,
      "duration": 0.2595,
      "velocity": 101,
      "chip": "ym2612"
    },
    {
      "channel": 0,
      "note": 81,
      "start": 10.3784,
      "duration": 0.2273,
      "velocity": 101,
      "chip": "ym2612"
    },
    {
      "channel": 1,
      "note": 54,
      "start": 10.3791,
      "duration": 0.1746,
      "velocity": 90,
      "chip": "ym2612"
    },
    {
      "channel": 2,
      "note": 88,
      "start": 10.3802,
      "duration": 0.1742,
      "velocity": 100,
      "chip": "ym2612"
    },
    {
      "channel": 1,
      "note": 56,
      "start": 10.5543,
      "duration": 0.0523,
      "velocity": 90,
      "chip": "ym2612"
    },
    {
      "channel": 2,
      "note": 85,
      "start": 10.555,
      "duration": 0.0527,
      "velocity": 100,
      "chip": "ym2612"
    },
    {
      "channel": 4,
      "note": 81,
      "start": 10.5563,
      "duration": 0.1668,
      "velocity": 101,
      "chip": "ym2612"
    },
    {
      "channel": 0,
      "note": 83,
      "start": 10.6064,
      "duration": 0.5351,
      "velocity": 101,
      "chip": "ym2612"
    },
    {
      "channel": 1,
      "note": 54,
      "start": 10.6077,
      "duration": 0.1983,
      "velocity": 90,
      "chip": "ym2612"
    },
    {
      "channel": 2,
      "note": 76,
      "start": 10.6084,
      "duration": 0.1133,
      "velocity": 100,
      "chip": "ym2612"
    },
    {
      "channel": 3,
      "note": 68,
      "start": 10.6093,
      "duration": 0.7624,
      "velocity": 104,
      "chip": "ym2612"
    },
    {
      "channel": 2,
      "note": 76,
      "start": 10.7223,
      "duration": 0.0844,
      "velocity": 100,
      "chip": "ym2612"
    },
    {
      "channel": 4,
      "note": 83,
      "start": 10.7239,
      "duration": 0.5961,
      "velocity": 101,
      "chip": "ym2612"
    },
    {
      "channel": 1,
      "note": 54,
      "start": 10.8065,
      "duration": 0.084,
      "velocity": 90,
      "chip": "ym2612"
    },
    {
      "channel": 2,
      "note": 83,
      "start": 10.8073,
      "duration": 0.084,
      "velocity": 100,
      "chip": "ym2612"
    },
    {
      "channel": 1,
      "note": 59,
      "start": 10.8911,
      "duration": 0.0509,
      "velocity": 90,
      "chip": "ym2612"
    },
    {
      "channel": 2,
      "note": 88,
      "start": 10.8918,
      "duration": 0.0509,
      "velocity": 100,
      "chip": "ym2612"
    },
    {
      "channel": 1,
      "note": 59,
      "start": 10.9425,
      "duration": 0.1149,
      "velocity": 90,
      "chip": "ym2612"
    },
    {
      "channel": 2,
      "note": 92,
      "start": 10.9433,
      "duration": 0.1149,
      "velocity": 100,
      "chip": "ym2612"
    },
    {
      "channel": 1,
      "note": 61,
      "start": 11.058,
      "duration": 0.0849,
      "velocity": 90,
      "chip": "ym2612"
    },
    {
      "channel": 2,
      "note": 95,
      "start": 11.0588,
      "duration": 0.0848,
      "velocity": 100,
      "chip": "ym2612"
    },
    {
      "channel": 0,
      "note": 82,
      "start": 11.1427,
      "duration": 0.1744,
      "velocity": 101,
      "chip": "ym2612"
    },
    {
      "channel": 1,
      "note": 61,
      "start": 11.1434,
      "duration": 0.1746,
      "velocity": 90,
      "chip": "ym2612"
    },
    {
      "channel": 2,
      "note": 92,
      "start": 11.1442,
      "duration": 0.1745,
      "velocity": 100,
      "chip": "ym2612"
    },
    {
      "channel": 0,
      "note": 83,
      "start": 11.3178,
      "duration": 0.0516,
      "velocity": 101,
      "chip": "ym2612"
    },
    {
      "channel": 1,
      "note": 64,
      "start": 11.3186,
      "duration": 0.0517,
      "velocity": 90,
      "chip": "ym2612"
    },
    {
      "channel": 2,
      "note": 88,
      "start": 11.3193,
      "duration": 0.0517,
      "velocity": 100,
      "chip": "ym2612"
    },
    {
      "channel": 4,
      "note": 82,
      "start": 11.3206,
      "duration": 0.0519,
      "velocity": 101,
      "chip": "ym2612"
    },
    {
      "channel": 0,
      "note": 85,
      "start": 11.3701,
      "duration": 0.9416,
      "velocity": 101,
      "chip": "ym2612"
    },
    {
      "channel": 1,
      "note": 66,
      "start": 11.3708,
      "duration": 0.2596,
      "velocity": 90,
      "chip": "ym2612"
    },
    {
      "channel": 2,
      "note": 78,
      "start": 11.3716,
      "duration": 0.084,
      "velocity": 100,
      "chip": "ym2612"
    },
    {
      "channel": 3,
      "note": 70,
      "start": 11.3724,
      "duration": 0.9474,
      "velocity": 104,
      "chip": "ym2612"
    },
    {
      "channel": 4,
      "note": 83,
      "start": 11.3732,
      "duration": 0.0838,
      "velocity": 101,
      "chip": "ym2612"
    },
    {
      "channel": 2,
      "note": 78,
      "start": 11.4562,
      "duration": 0.175,
      "velocity": 100,
      "chip": "ym2612"
    },
    {
      "channel": 4,
      "note": 85,
      "start": 11.4577,
      "duration": 0.9421,
      "velocity": 101,
      "chip": "ym2612"
    },
    {
      "channel": 1,
      "note": 66,
      "start": 11.631,
      "duration": 0.0843,
      "velocity": 90,
      "chip": "ym2612"
    },
    {
      "channel": 2,
      "note": 85,
      "start": 11.6318,
      "duration": 0.0842,
      "velocity": 100,
      "chip": "ym2612"
    },
    {
      "channel": 1,
      "note": 61,
      "start": 11.7159,
      "duration": 0.0523,
      "velocity": 90,
      "chip": "ym2612"
    },
    {
      "channel": 2,
      "note": 90,
      "start": 11.7166,
      "duration": 0.0524,
      "velocity": 100,
      "chip": "ym2612"
    },
    {
      "channel": 1,
      "note": 61,
      "start": 11.7688,
      "duration": 0.1141,
      "velocity": 90,
      "chip": "ym2612"
    },
    {
      "channel": 2,
      "note": 94,
      "start": 11.7695,
      "duration": 0.114,
      "velocity": 100,
      "chip": "ym2612"
    },
    {
      "channel": 1,
      "note": 59,
      "start": 11.8834,
      "duration": 0.0847,
      "velocity": 90,
      "chip": "ym2612"
    },
    {
      "channel": 2,
      "note": 97,
      "start": 11.8848,
      "duration": 0.0841,
      "velocity": 100,
      "chip": "ym2612"
    },
    {
      "channel": 1,
      "note": 61,
      "start": 11.9688,
      "duration": 0.1756,
      "velocity": 90,
      "chip": "ym2612"
    },
    {
      "channel": 2,
      "note": 94,
      "start": 11.9695,
      "duration": 0.1756,
      "velocity": 100,
      "chip": "ym2612"
    },
    {
      "channel": 1,
      "note": 59,
      "start": 12.145,
      "duration": 0.0542,
      "velocity": 90,
      "chip": "ym2612"
    },
    {
      "channel": 2,
      "note": 90,
      "start": 12.1457,
      "duration": 0.0542,
      "velocity": 100,
      "chip": "ym2612"
    },
    {
      "channel": 1,
      "note": 54,
      "start": 12.1998,
      "duration": 0.1129,
      "velocity": 90,
      "chip": "ym2612"
    },
    {
      "channel": 2,
      "note": 85,
      "start": 12.2005,
      "duration": 0.1156,
      "velocity": 100,
      "chip": "ym2612"
    },
    {
      "channel": 0,
      "note": 85,
      "start": 12.3124,
      "duration": 0.4221,
      "velocity": 101,
      "chip": "ym2612"
    },
    {
      "channel": 1,
      "note": 54,
      "start": 12.3132,
      "duration": 0.0846,
      "velocity": 90,
      "chip": "ym2612"
    },
    {
      "channel": 2,
      "note": 78,
      "start": 12.3167,
      "duration": 0.0819,
      "velocity": 100,
      "chip": "ym2612"
    },
    {
      "channel": 3,
      "note": 68,
      "start": 12.3205,
      "duration": 0.6449,
      "velocity": 104,
      "chip": "ym2612"
    },
    {
      "channel": 1,
      "note": 59,
      "start": 12.3984,
      "duration": 0.0841,
      "velocity": 90,
      "chip": "ym2612"
    },
    {
      "channel": 2,
      "note": 85,
      "start": 12.3992,
      "duration": 0.0841,
      "velocity": 100,
      "chip": "ym2612"
    },
    {
      "channel": 4,
      "note": 85,
      "start": 12.4005,
      "duration": 0.5123,
      "velocity": 101,
      "chip": "ym2612"
    },
    {
      "channel": 1,
      "note": 61,
      "start": 12.4831,
      "duration": 0.052,
      "velocity": 90,
      "chip": "ym2612"
    },
    {
      "channel": 2,
      "note": 90,
      "start": 12.4839,
      "duration": 0.0519,
      "velocity": 100,
      "chip": "ym2612"
    },
    {
      "channel": 1,
      "note": 54,
      "start": 12.5357,
      "duration": 0.1146,
      "velocity": 90,
      "chip": "ym2612"
    },
    {
      "channel": 2,
      "note": 94,
      "start": 12.5364,
      "duration": 0.1146,
      "velocity": 100,
      "chip": "ym2612"
    },
    {
      "channel": 1,
      "note": 66,
      "start": 12.6508,
      "duration": 0.0845,
      "velocity": 90,
      "chip": "ym2612"
    },
    {
      "channel": 2,
      "note": 97,
      "start": 12.6516,
      "duration": 0.0844,
      "velocity": 100,
      "chip": "ym2612"
    },
    {
      "channel": 0,
      "note": 82,
      "start": 12.7351,
      "duration": 0.1749,
      "velocity": 101,
      "chip": "ym2612"
    },
    {
      "channel": 1,
      "note": 54,
      "start": 12.7359,
      "duration": 0.175,
      "velocity": 90,
      "chip": "ym2612"
    },
    {
      "channel": 2,
      "note": 94,
      "start": 12.7366,
      "duration": 0.175,
      "velocity": 100,
      "chip": "ym2612"
    },
    {
      "channel": 0,
      "note": 83,
      "start": 12.9107,
      "duration": 0.0524,
      "velocity": 101,
      "chip": "ym2612"
    },
    {
      "channel": 1,
      "note": 61,
      "start": 12.9114,
      "duration": 0.0526,
      "velocity": 90,
      "chip": "ym2612"
    },
    {
      "channel": 2,
      "note": 90,
      "start": 12.9122,
      "duration": 0.0526,
      "velocity": 100,
      "chip": "ym2612"
    },
    {
      "channel": 4,
      "note": 82,
      "start": 12.9135,
      "duration": 0.0534,
      "velocity": 101,
      "chip": "ym2612"
    },
    {
      "channel": 0,
      "note": 85,
      "start": 12.9639,
      "duration": 0.2606,
      "velocity": 101,
      "chip": "ym2612"
    },
    {
      "channel": 1,
      "note": 64,
      "start": 12.9646,
      "duration": 0.2607,
      "velocity": 90,
      "chip": "ym2612"
    },
    {
      "channel": 2,
      "note": 76,
      "start": 12.9654,
      "duration": 0.2607,
      "velocity": 100,
      "chip": "ym2612"
    },
    {
      "channel": 3,
      "note": 64,
      "start": 12.9664,
      "duration": 0.9397,
      "velocity": 104,
      "chip": "ym2612"
    },
    {
      "channel": 4,
      "note": 83,
      "start": 12.9676,
      "duration": 0.0841,
      "velocity": 101,
      "chip": "ym2612"
    },
    {
      "channel": 4,
      "note": 85,
      "start": 13.0523,
      "duration": 0.2595,
      "velocity": 101,
      "chip": "ym2612"
    },
    {
      "channel": 0,
      "note": 83,
      "start": 13.2252,
      "duration": 0.1347,
      "velocity": 101,
      "chip": "ym2612"
    },
    {
      "channel": 1,
      "note": 66,
      "start": 13.2259,
      "duration": 0.084,
      "velocity": 90,
      "chip": "ym2612"
    },
    {
      "channel": 2,
      "note": 83,
      "start": 13.2272,
      "duration": 0.0833,
      "velocity": 100,
      "chip": "ym2612"
    },
    {
      "channel": 1,
      "note": 64,
      "start": 13.3104,
      "duration": 0.0508,
      "velocity": 90,
      "chip": "ym2612"
    },
    {
      "channel": 2,
      "note": 88,
      "start": 13.3112,
      "duration": 0.0507,
      "velocity": 100,
      "chip": "ym2612"
    },
    {
      "channel": 4,
      "note": 83,
      "start": 13.3125,
      "duration": 0.1663,
      "velocity": 101,
      "chip": "ym2612"
    },
    {
      "channel": 0,
      "note": 82,
      "start": 13.3611,
      "duration": 0.2007,
      "velocity": 101,
      "chip": "ym2612"
    },
    {
      "channel": 1,
      "note": 61,
      "start": 13.3618,
      "duration": 0.1149,
      "velocity": 90,
      "chip": "ym2612"
    },
    {
      "channel": 2,
      "note": 92,
      "start": 13.3626,
      "duration": 0.115,
      "velocity": 100,
      "chip": "ym2612"
    },
    {
      "channel": 1,
      "note": 59,
      "start": 13.4774,
      "duration": 0.0852,
      "velocity": 90,
      "chip": "ym2612"
    },
    {
      "channel": 2,
      "note": 95,
      "start": 13.4781,
      "duration": 0.0853,
      "velocity": 100,
      "chip": "ym2612"
    },
    {
      "channel": 4,
      "note": 82,
      "start": 13.4795,
      "duration": 0.2598,
      "velocity": 101,
      "chip": "ym2612"
    },
    {
      "channel": 0,
      "note": 83,
      "start": 13.5625,
      "duration": 0.2268,
      "velocity": 101,
      "chip": "ym2612"
    },
    {
      "channel": 1,
      "note": 61,
      "start": 13.5632,
      "duration": 0.1741,
      "velocity": 90,
      "chip": "ym2612"
    },
    {
      "channel": 2,
      "note": 92,
      "start": 13.5639,
      "duration": 0.1741,
      "velocity": 100,
      "chip": "ym2612"
    },
    {
      "channel": 1,
      "note": 59,
      "start": 13.7379,
      "duration": 0.0522,
      "velocity": 90,
      "chip": "ym2612"
    },
    {
      "channel": 2,
      "note": 88,
      "start": 13.7386,
      "duration": 0.0522,
      "velocity": 100,
      "chip": "ym2612"
    },
    {
      "channel": 4,
      "note": 83,
      "start": 13.74,
      "duration": 0.167,
      "velocity": 101,
      "chip": "ym2612"
    },
    {
      "channel": 0,
      "note": 81,
      "start": 13.79,
      "duration": 0.4522,
      "velocity": 101,
      "chip": "ym2612"
    },
    {
      "channel": 1,
      "note": 52,
      "start": 13.7907,
      "duration": 0.114,
      "velocity": 90,
      "chip": "ym2612"
    },
    {
      "channel": 2,
      "note": 83,
      "start": 13.7914,
      "duration": 0.114,
      "velocity": 100,
      "chip": "ym2612"
    },
    {
      "channel": 1,
      "note": 52,
      "start": 13.9052,
      "duration": 0.0845,
      "velocity": 90,
      "chip": "ym2612"
    },
    {
      "channel": 2,
      "note": 74,
      "start": 13.906,
      "duration": 0.0844,
      "velocity": 100,
      "chip": "ym2612"
    },
    {
      "channel": 3,
      "note": 62,
      "start": 13.9068,
      "duration": 1.5941,
      "velocity": 104,
      "chip": "ym2612"
    },
    {
      "channel": 4,
      "note": 81,
      "start": 13.9076,
      "duration": 0.422,
      "velocity": 101,
      "chip": "ym2612"
    },
    {
      "channel": 1,
      "note": 57,
      "start": 13.9903,
      "duration": 0.0847,
      "velocity": 90,
      "chip": "ym2612"
    },
    {
      "channel": 2,
      "note": 81,
      "start": 13.9911,
      "duration": 0.0846,
      "velocity": 100,
      "chip": "ym2612"
    },
    {
      "channel": 1,
      "note": 59,
      "start": 14.0756,
      "duration": 0.0524,
      "velocity": 90,
      "chip": "ym2612"
    },
    {
      "channel": 2,
      "note": 86,
      "start": 14.0763,
      "duration": 0.0524,
      "velocity": 100,
      "chip": "ym2612"
    },
    {
      "channel": 1,
      "note": 52,
      "start": 14.1285,
      "duration": 0.1145,
      "velocity": 90,
      "chip": "ym2612"
    },
    {
      "channel": 2,
      "note": 90,
      "start": 14.1293,
      "duration": 0.1145,
      "velocity": 100,
      "chip": "ym2612"
    },
    {
      "channel": 0,
      "note": 81,
      "start": 14.2429,
      "duration": 0.2602,
      "velocity": 101,
      "chip": "ym2612"
    },
    {
      "channel": 1,
      "note": 62,
      "start": 14.2436,
      "duration": 0.0842,
      "velocity": 90,
      "chip": "ym2612"
    },
    {
      "channel": 2,
      "note": 93,
      "start": 14.2443,
      "duration": 0.0841,
      "velocity": 100,
      "chip": "ym2612"
    },
    {
      "channel": 1,
      "note": 57,
      "start": 14.3283,
      "duration": 0.1755,
      "velocity": 90,
      "chip": "ym2612"
    },
    {
      "channel": 2,
      "note": 90,
      "start": 14.3291,
      "duration": 0.1754,
      "velocity": 100,
      "chip": "ym2612"
    },
    {
      "channel": 4,
      "note": 81,
      "start": 14.3304,
      "duration": 0.2277,
      "velocity": 101,
      "chip": "ym2612"
    },
    {
      "channel": 0,
      "note": 80,
      "start": 14.5037,
      "duration": 0.0516,
      "velocity": 101,
      "chip": "ym2612"
    },
    {
      "channel": 1,
      "note": 59,
      "start": 14.5044,
      "duration": 0.0517,
      "velocity": 90,
      "chip": "ym2612"
    },
    {
      "channel": 2,
      "note": 86,
      "start": 14.5052,
      "duration": 0.0517,
      "velocity": 100,
      "chip": "ym2612"
    },
    {
      "channel": 0,
      "note": 78,
      "start": 14.5559,
      "duration": 0.5134,
      "velocity": 101,
      "chip": "ym2612"
    },
    {
      "channel": 1,
      "note": 64,
      "start": 14.5567,
      "duration": 0.2595,
      "velocity": 90,
      "chip": "ym2612"
    },
    {
      "channel": 2,
      "note": 98,
      "start": 14.5575,
      "duration": 0.0843,
      "velocity": 100,
      "chip": "ym2612"
    },
    {
      "channel": 4,
      "note": 80,
      "start": 14.5588,
      "duration": 0.0847,
      "velocity": 101,
      "chip": "ym2612"
    },
    {
      "channel": 2,
      "note": 86,
      "start": 14.6425,
      "duration": 0.1745,
      "velocity": 100,
      "chip": "ym2612"
    },
    {
      "channel": 4,
      "note": 78,
      "start": 14.6441,
      "duration": 0.5132,
      "velocity": 101,
      "chip": "ym2612"
    },
    {
      "channel": 1,
      "note": 62,
      "start": 14.8168,
      "duration": 0.0855,
      "velocity": 90,
      "chip": "ym2612"
    },
    {
      "channel": 2,
      "note": 93,
      "start": 14.8176,
      "duration": 0.0855,
      "velocity": 100,
      "chip": "ym2612"
    },
    {
      "channel": 1,
      "note": 57,
      "start": 14.9029,
      "duration": 0.0538,
      "velocity": 90,
      "chip": "ym2612"
    },
    {
      "channel": 2,
      "note": 90,
      "start": 14.9037,
      "duration": 0.0538,
      "velocity": 100,
      "chip": "ym2612"
    },
    {
      "channel": 1,
      "note": 59,
      "start": 14.9572,
      "duration": 0.1129,
      "velocity": 90,
      "chip": "ym2612"
    },
    {
      "channel": 2,
      "note": 81,
      "start": 14.958,
      "duration": 0.1128,
      "velocity": 100,
      "chip": "ym2612"
    },
    {
      "channel": 0,
      "note": 73,
      "start": 15.07,
      "duration": 0.0845,
      "velocity": 101,
      "chip": "ym2612"
    },
    {
      "channel": 1,
      "note": 52,
      "start": 15.0707,
      "duration": 0.0846,
      "velocity": 90,
      "chip": "ym2612"
    },
    {
      "channel": 2,
      "note": 86,
      "start": 15.0715,
      "duration": 0.0846,
      "velocity": 100,
      "chip": "ym2612"
    },
    {
      "channel": 0,
      "note": 78,
      "start": 15.1552,
      "duration": 0.1749,
      "velocity": 101,
      "chip": "ym2612"
    },
    {
      "channel": 1,
      "note": 52,
      "start": 15.1559,
      "duration": 0.1756,
      "velocity": 90,
      "chip": "ym2612"
    },
    {
      "channel": 2,
      "note": 90,
      "start": 15.1567,
      "duration": 0.1755,
      "velocity": 100,
      "chip": "ym2612"
    },
    {
      "channel": 4,
      "note": 73,
      "start": 15.158,
      "duration": 0.1754,
      "velocity": 101,
      "chip": "ym2612"
    },
    {
      "channel": 0,
      "note": 81,
      "start": 15.3313,
      "duration": 0.0533,
      "velocity": 101,
      "chip": "ym2612"
    },
    {
      "channel": 1,
      "note": 50,
      "start": 15.332,
      "duration": 0.0533,
      "velocity": 90,
      "chip": "ym2612"
    },
    {
      "channel": 2,
      "note": 86,
      "start": 15.3328,
      "duration": 0.0533,
      "velocity": 100,
      "chip": "ym2612"
    },
    {
      "channel": 4,
      "note": 78,
      "start": 15.3345,
      "duration": 0.0527,
      "velocity": 101,
      "chip": "ym2612"
    },
    {
      "channel": 0,
      "note": 85,
      "start": 15.3853,
      "duration": 0.4511,
      "velocity": 101,
      "chip": "ym2612"
    },
    {
      "channel": 1,
      "note": 49,
      "start": 15.3859,
      "duration": 0.1134,
      "velocity": 90,
      "chip": "ym2612"
    },
    {
      "channel": 2,
      "note": 81,
      "start": 15.3867,
      "duration": 0.1134,
      "velocity": 100,
      "chip": "ym2612"
    },
    {
      "channel": 4,
      "note": 81,
      "start": 15.388,
      "duration": 0.1137,
      "velocity": 101,
      "chip": "ym2612"
    },
    {
      "channel": 1,
      "note": 47,
      "start": 15.5,
      "duration": 0.0838,
      "velocity": 90,
      "chip": "ym2612"
    },
    {
      "channel": 2,
      "note": 71,
      "start": 15.5007,
      "duration": 0.0838,
      "velocity": 100,
      "chip": "ym2612"
    },
    {
      "channel": 3,
      "note": 62,
      "start": 15.5015,
      "duration": 0.65,
      "velocity": 104,
      "chip": "ym2612"
    },
    {
      "channel": 4,
      "note": 85,
      "start": 15.5024,
      "duration": 0.4219,
      "velocity": 101,
      "chip": "ym2612"
    },
    {
      "channel": 1,
      "note": 52,
      "start": 15.5844,
      "duration": 0.085,
      "velocity": 90,
      "chip": "ym2612"
    },
    {
      "channel": 2,
      "note": 78,
      "start": 15.5851,
      "duration": 0.085,
      "velocity": 100,
      "chip": "ym2612"
    },
    {
      "channel": 1,
      "note": 54,
      "start": 15.67,
      "duration": 0.0514,
      "velocity": 90,
      "chip": "ym2612"
    },
    {
      "channel": 2,
      "note": 83,
      "start": 15.6707,
      "duration": 0.0514,
      "velocity": 100,
      "chip": "ym2612"
    },
    {
      "channel": 1,
      "note": 47,
      "start": 15.722,
      "duration": 0.1153,
      "velocity": 90,
      "chip": "ym2612"
    },
    {
      "channel": 2,
      "note": 86,
      "start": 15.7227,
      "duration": 0.1152,
      "velocity": 100,
      "chip": "ym2612"
    },
    {
      "channel": 0,
      "note": 78,
      "start": 15.837,
      "duration": 0.0839,
      "velocity": 101,
      "chip": "ym2612"
    },
    {
      "channel": 1,
      "note": 59,
      "start": 15.8378,
      "duration": 0.0839,
      "velocity": 90,
      "chip": "ym2612"
    },
    {
      "channel": 2,
      "note": 90,
      "start": 15.8385,
      "duration": 0.0844,
      "velocity": 100,
      "chip": "ym2612"
    },
    {
      "channel": 0,
      "note": 81,
      "start": 15.9216,
      "duration": 0.1749,
      "velocity": 101,
      "chip": "ym2612"
    },
    {
      "channel": 1,
      "note": 47,
      "start": 15.9224,
      "duration": 0.1749,
      "velocity": 90,
      "chip": "ym2612"
    },
    {
      "channel": 2,
      "note": 93,
      "start": 15.9236,
      "duration": 0.1744,
      "velocity": 100,
      "chip": "ym2612"
    },
    {
      "channel": 4,
      "note": 78,
      "start": 15.925,
      "duration": 0.1743,
      "velocity": 101,
      "chip": "ym2612"
    },
    {
      "channel": 0,
      "note": 85,
      "start": 16.0972,
      "duration": 0.0516,
      "velocity": 101,
      "chip": "ym2612"
    },
    {
      "channel": 1,
      "note": 52,
      "start": 16.0979,
      "duration": 0.0523,
      "velocity": 90,
      "chip": "ym2612"
    },
    {
      "channel": 2,
      "note": 90,
      "start": 16.0986,
      "duration": 0.0522,
      "velocity": 100,
      "chip": "ym2612"
    },
    {
      "channel": 4,
      "note": 81,
      "start": 16.1,
      "duration": 0.0524,
      "velocity": 101,
      "chip": "ym2612"
    },
    {
      "channel": 0,
      "note": 83,
      "start": 16.15,
      "duration": 0.2603,
      "velocity": 101,
      "chip": "ym2612"
    },
    {
      "channel": 1,
      "note": 49,
      "start": 16.1507,
      "duration": 0.2604,
      "velocity": 90,
      "chip": "ym2612"
    },
    {
      "channel": 2,
      "note": 73,
      "start": 16.1515,
      "duration": 0.0841,
      "velocity": 100,
      "chip": "ym2612"
    },
    {
      "channel": 3,
      "note": 64,
      "start": 16.1523,
      "duration": 0.8249,
      "velocity": 104,
      "chip": "ym2612"
    },
    {
      "channel": 4,
      "note": 85,
      "start": 16.1531,
      "duration": 0.0838,
      "velocity": 101,
      "chip": "ym2612"
    },
    {
      "channel": 2,
      "note": 73,
      "start": 16.2361,
      "duration": 0.1757,
      "velocity": 100,
      "chip": "ym2612"
    },
    {
      "channel": 4,
      "note": 83,
      "start": 16.2376,
      "duration": 0.2604,
      "velocity": 101,
      "chip": "ym2612"
    },
    {
      "channel": 0,
      "note": 81,
      "start": 16.411,
      "duration": 0.1368,
      "velocity": 101,
      "chip": "ym2612"
    },
    {
      "channel": 1,
      "note": 54,
      "start": 16.4117,
      "duration": 0.0844,
      "velocity": 90,
      "chip": "ym2612"
    },
    {
      "channel": 2,
      "note": 80,
      "start": 16.4124,
      "duration": 0.0843,
      "velocity": 100,
      "chip": "ym2612"
    },
    {
      "channel": 1,
      "note": 56,
      "start": 16.4966,
      "duration": 0.0521,
      "velocity": 90,
      "chip": "ym2612"
    },
    {
      "channel": 2,
      "note": 85,
      "start": 16.4974,
      "duration": 0.052,
      "velocity": 100,
      "chip": "ym2612"
    },
    {
      "channel": 4,
      "note": 81,
      "start": 16.4987,
      "duration": 0.1662,
      "velocity": 101,
      "chip": "ym2612"
    },
    {
      "channel": 0,
      "note": 80,
      "start": 16.5485,
      "duration": 0.1988,
      "velocity": 101,
      "chip": "ym2612"
    },
    {
      "channel": 1,
      "note": 49,
      "start": 16.5492,
      "duration": 0.1137,
      "velocity": 90,
      "chip": "ym2612"
    },
    {
      "channel": 2,
      "note": 88,
      "start": 16.55,
      "duration": 0.1137,
      "velocity": 100,
      "chip": "ym2612"
    },
    {
      "channel": 1,
      "note": 61,
      "start": 16.6636,
      "duration": 0.0846,
      "velocity": 90,
      "chip": "ym2612"
    },
    {
      "channel": 2,
      "note": 92,
      "start": 16.6643,
      "duration": 0.0846,
      "velocity": 100,
      "chip": "ym2612"
    },
    {
      "channel": 4,
      "note": 80,
      "start": 16.6656,
      "duration": 0.2597,
      "velocity": 101,
      "chip": "ym2612"
    },
    {
      "channel": 0,
      "note": 88,
      "start": 16.7481,
      "duration": 0.2268,
      "velocity": 101,
      "chip": "ym2612"
    },
    {
      "channel": 1,
      "note": 54,
      "start": 16.7488,
      "duration": 0.1745,
      "velocity": 90,
      "chip": "ym2612"
    },
    {
      "channel": 2,
      "note": 88,
      "start": 16.7495,
      "duration": 0.1746,
      "velocity": 100,
      "chip": "ym2612"
    },
    {
      "channel": 1,
      "note": 56,
      "start": 16.9239,
      "duration": 0.0518,
      "velocity": 90,
      "chip": "ym2612"
    },
    {
      "channel": 2,
      "note": 85,
      "start": 16.9246,
      "duration": 0.0519,
      "velocity": 100,
      "chip": "ym2612"
    },
    {
      "channel": 4,
      "note": 88,
      "start": 16.926,
      "duration": 0.1674,
      "velocity": 101,
      "chip": "ym2612"
    },
    {
      "channel": 0,
      "note": 88,
      "start": 16.9756,
      "duration": 0.5384,
      "velocity": 101,
      "chip": "ym2612"
    },
    {
      "channel": 1,
      "note": 54,
      "start": 16.9763,
      "duration": 0.2005,
      "velocity": 90,
      "chip": "ym2612"
    },
    {
      "channel": 2,
      "note": 76,
      "start": 16.9771,
      "duration": 0.1149,
      "velocity": 100,
      "chip": "ym2612"
    },
    {
      "channel": 3,
      "note": 68,
      "start": 16.9779,
      "duration": 0.7673,
      "velocity": 104,
      "chip": "ym2612"
    },
    {
      "channel": 2,
      "note": 76,
      "start": 17.0926,
      "duration": 0.085,
      "velocity": 100,
      "chip": "ym2612"
    },
    {
      "channel": 4,
      "note": 88,
      "start": 17.0946,
      "duration": 0.5983,
      "velocity": 101,
      "chip": "ym2612"
    },
    {
      "channel": 1,
      "note": 54,
      "start": 17.1774,
      "duration": 0.0836,
      "velocity": 90,
      "chip": "ym2612"
    },
    {
      "channel": 2,
      "note": 83,
      "start": 17.1782,
      "duration": 0.0836,
      "velocity": 100,
      "chip": "ym2612"
    },
    {
      "channel": 1,
      "note": 59,
      "start": 17.2616,
      "duration": 0.0528,
      "velocity": 90,
      "chip": "ym2612"
    },
    {
      "channel": 2,
      "note": 88,
      "start": 17.2624,
      "duration": 0.0528,
      "velocity": 100,
      "chip": "ym2612"
    },
    {
      "channel": 1,
      "note": 59,
      "start": 17.3149,
      "duration": 0.1141,
      "velocity": 90,
      "chip": "ym2612"
    },
    {
      "channel": 2,
      "note": 92,
      "start": 17.3157,
      "duration": 0.1147,
      "velocity": 100,
      "chip": "ym2612"
    },
    {
      "channel": 1,
      "note": 61,
      "start": 17.4302,
      "duration": 0.0846,
      "velocity": 90,
      "chip": "ym2612"
    },
    {
      "channel": 2,
      "note": 95,
      "start": 17.431,
      "duration": 0.0846,
      "velocity": 100,
      "chip": "ym2612"
    },
    {
      "channel": 0,
      "note": 83,
      "start": 17.5147,
      "duration": 0.1754,
      "velocity": 101,
      "chip": "ym2612"
    },
    {
      "channel": 1,
      "note": 61,
      "start": 17.5154,
      "duration": 0.1756,
      "velocity": 90,
      "chip": "ym2612"
    },
    {
      "channel": 2,
      "note": 92,
      "start": 17.5162,
      "duration": 0.1756,
      "velocity": 100,
      "chip": "ym2612"
    },
    {
      "channel": 0,
      "note": 88,
      "start": 17.6909,
      "duration": 0.052,
      "velocity": 101,
      "chip": "ym2612"
    },
    {
      "channel": 1,
      "note": 64,
      "start": 17.6916,
      "duration": 0.0522,
      "velocity": 90,
      "chip": "ym2612"
    },
    {
      "channel": 2,
      "note": 88,
      "start": 17.6923,
      "duration": 0.0522,
      "velocity": 100,
      "chip": "ym2612"
    },
    {
      "channel": 4,
      "note": 83,
      "start": 17.6937,
      "duration": 0.0524,
      "velocity": 101,
      "chip": "ym2612"
    },
    {
      "channel": 0,
      "note": 90,
      "start": 17.7436,
      "duration": 0.7308,
      "velocity": 101,
      "chip": "ym2612"
    },
    {
      "channel": 1,
      "note": 66,
      "start": 17.7443,
      "duration": 0.2593,
      "velocity": 90,
      "chip": "ym2612"
    },
    {
      "channel": 2,
      "note": 78,
      "start": 17.745,
      "duration": 0.0837,
      "velocity": 100,
      "chip": "ym2612"
    },
    {
      "channel": 3,
      "note": 70,
      "start": 17.7459,
      "duration": 0.7336,
      "velocity": 104,
      "chip": "ym2612"
    },
    {
      "channel": 4,
      "note": 88,
      "start": 17.7467,
      "duration": 0.0834,
      "velocity": 101,
      "chip": "ym2612"
    },
    {
      "channel": 2,
      "note": 78,
      "start": 17.8293,
      "duration": 0.175,
      "velocity": 100,
      "chip": "ym2612"
    },
    {
      "channel": 4,
      "note": 90,
      "start": 17.8308,
      "duration": 0.7313,
      "velocity": 101,
      "chip": "ym2612"
    },
    {
      "channel": 1,
      "note": 66,
      "start": 18.0042,
      "duration": 0.0842,
      "velocity": 90,
      "chip": "ym2612"
    },
    {
      "channel": 2,
      "note": 85,
      "start": 18.0049,
      "duration": 0.0842,
      "velocity": 100,
      "chip": "ym2612"
    },
    {
      "channel": 1,
      "note": 61,
      "start": 18.089,
      "duration": 0.0521,
      "velocity": 90,
      "chip": "ym2612"
    },
    {
      "channel": 2,
      "note": 90,
      "start": 18.0898,
      "duration": 0.0521,
      "velocity": 100,
      "chip": "ym2612"
    },
    {
      "channel": 1,
      "note": 61,
      "start": 18.1417,
      "duration": 0.1148,
      "velocity": 90,
      "chip": "ym2612"
    },
    {
      "channel": 2,
      "note": 94,
      "start": 18.1425,
      "duration": 0.1148,
      "velocity": 100,
      "chip": "ym2612"
    },
    {
      "channel": 1,
      "note": 59,
      "start": 18.257,
      "duration": 0.0528,
      "velocity": 90,
      "chip": "ym2612"
    },
    {
      "channel": 2,
      "note": 97,
      "start": 18.2578,
      "duration": 0.0528,
      "velocity": 100,
      "chip": "ym2612"
    },
    {
      "channel": 1,
      "note": 61,
      "start": 18.3105,
      "duration": 0.0536,
      "velocity": 90,
      "chip": "ym2612"
    },
    {
      "channel": 2,
      "note": 94,
      "start": 18.3112,
      "duration": 0.0537,
      "velocity": 100,
      "chip": "ym2612"
    },
    {
      "channel": 1,
      "note": 59,
      "start": 18.3646,
      "duration": 0.0553,
      "velocity": 90,
      "chip": "ym2612"
    },
    {
      "channel": 2,
      "note": 90,
      "start": 18.3654,
      "duration": 0.0552,
      "velocity": 100,
      "chip": "ym2612"
    },
    {
      "channel": 1,
      "note": 54,
      "start": 18.4205,
      "duration": 0.0549,
      "velocity": 90,
      "chip": "ym2612"
    },
    {
      "channel": 2,
      "note": 85,
      "start": 18.4212,
      "duration": 0.0573,
      "velocity": 108,
      "chip": "ym2612"
    },
    {
      "channel": 0,
      "note": 85,
      "start": 18.4751,
      "duration": 0.3368,
      "velocity": 101,
      "chip": "ym2612"
    },
    {
      "channel": 1,
      "note": 50,
      "start": 18.4759,
      "duration": 0.0836,
      "velocity": 90,
      "chip": "ym2612"
    },
    {
      "channel": 2,
      "note": 102,
      "start": 18.4792,
      "duration": 0.0813,
      "velocity": 108,
      "chip": "ym2612"
    },
    {
      "channel": 3,
      "note": 69,
      "start": 18.4801,
      "duration": 0.2186,
      "velocity": 104,
      "chip": "ym2612"
    },
    {
      "channel": 1,
      "note": 50,
      "start": 18.5601,
      "duration": 0.085,
      "velocity": 90,
      "chip": "ym2612"
    },
    {
      "channel": 2,
      "note": 98,
      "start": 18.5615,
      "duration": 0.0844,
      "velocity": 108,
      "chip": "ym2612"
    },
    {
      "channel": 4,
      "note": 85,
      "start": 18.5628,
      "duration": 0.3366,
      "velocity": 101,
      "chip": "ym2612"
    },
    {
      "channel": 1,
      "note": 52,
      "start": 18.6457,
      "duration": 0.0516,
      "velocity": 90,
      "chip": "ym2612"
    },
    {
      "channel": 2,
      "note": 104,
      "start": 18.6464,
      "duration": 0.0515,
      "velocity": 108,
      "chip": "ym2612"
    },
    {
      "channel": 1,
      "note": 52,
      "start": 18.6978,
      "duration": 0.1149,
      "velocity": 90,
      "chip": "ym2612"
    },
    {
      "channel": 2,
      "note": 98,
      "start": 18.6986,
      "duration": 0.1148,
      "velocity": 108,
      "chip": "ym2612"
    },
    {
      "channel": 3,
      "note": 69,
      "start": 18.6994,
      "duration": 0.3751,
      "velocity": 104,
      "chip": "ym2612"
    },
    {
      "channel": 0,
      "note": 78,
      "start": 18.8126,
      "duration": 0.084,
      "velocity": 101,
      "chip": "ym2612"
    },
    {
      "channel": 1,
      "note": 54,
      "start": 18.8133,
      "duration": 0.0842,
      "velocity": 90,
      "chip": "ym2612"
    },
    {
      "channel": 2,
      "note": 105,
      "start": 18.814,
      "duration": 0.0841,
      "velocity": 108,
      "chip": "ym2612"
    },
    {
      "channel": 0,
      "note": 81,
      "start": 18.8973,
      "duration": 0.1749,
      "velocity": 101,
      "chip": "ym2612"
    },
    {
      "channel": 1,
      "note": 54,
      "start": 18.898,
      "duration": 0.1751,
      "velocity": 90,
      "chip": "ym2612"
    },
    {
      "channel": 2,
      "note": 98,
      "start": 18.8988,
      "duration": 0.175,
      "velocity": 108,
      "chip": "ym2612"
    },
    {
      "channel": 4,
      "note": 78,
      "start": 18.9001,
      "duration": 0.1752,
      "velocity": 101,
      "chip": "ym2612"
    },
    {
      "channel": 0,
      "note": 85,
      "start": 19.0729,
      "duration": 0.05,
      "velocity": 101,
      "chip": "ym2612"
    },
    {
      "channel": 1,
      "note": 50,
      "start": 19.0736,
      "duration": 0.0507,
      "velocity": 90,
      "chip": "ym2612"
    },
    {
      "channel": 2,
      "note": 107,
      "start": 19.0744,
      "duration": 0.0506,
      "velocity": 108,
      "chip": "ym2612"
    },
    {
      "channel": 3,
      "note": 81,
      "start": 19.0752,
      "duration": 0.0267,
      "velocity": 104,
      "chip": "ym2612"
    },
    {
      "channel": 4,
      "note": 81,
      "start": 19.0761,
      "duration": 0.051,
      "velocity": 101,
      "chip": "ym2612"
    },
    {
      "channel": 0,
      "note": 83,
      "start": 19.1242,
      "duration": 0.2596,
      "velocity": 101,
      "chip": "ym2612"
    },
    {
      "channel": 1,
      "note": 52,
      "start": 19.1249,
      "duration": 0.2597,
      "velocity": 90,
      "chip": "ym2612"
    },
    {
      "channel": 2,
      "note": 104,
      "start": 19.1256,
      "duration": 0.2597,
      "velocity": 108,
      "chip": "ym2612"
    },
    {
      "channel": 3,
      "note": 68,
      "start": 19.1265,
      "duration": 0.3976,
      "velocity": 104,
      "chip": "ym2612"
    },
    {
      "channel": 4,
      "note": 85,
      "start": 19.1278,
      "duration": 0.0825,
      "velocity": 101,
      "chip": "ym2612"
    },
    {
      "channel": 4,
      "note": 83,
      "start": 19.211,
      "duration": 0.2603,
      "velocity": 101,
      "chip": "ym2612"
    },
    {
      "channel": 0,
      "note": 81,
      "start": 19.3844,
      "duration": 0.1374,
      "velocity": 101,
      "chip": "ym2612"
    },
    {
      "channel": 1,
      "note": 52,
      "start": 19.3852,
      "duration": 0.0841,
      "velocity": 90,
      "chip": "ym2612"
    },
    {
      "channel": 2,
      "note": 100,
      "start": 19.3859,
      "duration": 0.0841,
      "velocity": 108,
      "chip": "ym2612"
    },
    {
      "channel": 1,
      "note": 54,
      "start": 19.4699,
      "duration": 0.0527,
      "velocity": 90,
      "chip": "ym2612"
    },
    {
      "channel": 2,
      "note": 105,
      "start": 19.4707,
      "duration": 0.0526,
      "velocity": 108,
      "chip": "ym2612"
    },
    {
      "channel": 4,
      "note": 81,
      "start": 19.472,
      "duration": 0.167,
      "velocity": 101,
      "chip": "ym2612"
    },
    {
      "channel": 0,
      "note": 80,
      "start": 19.5225,
      "duration": 0.1997,
      "velocity": 101,
      "chip": "ym2612"
    },
    {
      "channel": 1,
      "note": 54,
      "start": 19.5232,
      "duration": 0.1138,
      "velocity": 90,
      "chip": "ym2612"
    },
    {
      "channel": 2,
      "note": 100,
      "start": 19.524,
      "duration": 0.1137,
      "velocity": 108,
      "chip": "ym2612"
    },
    {
      "channel": 3,
      "note": 76,
      "start": 19.5248,
      "duration": 0.3754,
      "velocity": 104,
      "chip": "ym2612"
    },
    {
      "channel": 1,
      "note": 56,
      "start": 19.6376,
      "duration": 0.0855,
      "velocity": 90,
      "chip": "ym2612"
    },
    {
      "channel": 2,
      "note": 107,
      "start": 19.6384,
      "duration": 0.0854,
      "velocity": 108,
      "chip": "ym2612"
    },
    {
      "channel": 4,
      "note": 80,
      "start": 19.6402,
      "duration": 0.2608,
      "velocity": 101,
      "chip": "ym2612"
    },
    {
      "channel": 0,
      "note": 81,
      "start": 19.7229,
      "duration": 0.2249,
      "velocity": 101,
      "chip": "ym2612"
    },
    {
      "channel": 1,
      "note": 56,
      "start": 19.7237,
      "duration": 0.1746,
      "velocity": 90,
      "chip": "ym2612"
    },
    {
      "channel": 2,
      "note": 100,
      "start": 19.7244,
      "duration": 0.1745,
      "velocity": 108,
      "chip": "ym2612"
    },
    {
      "channel": 1,
      "note": 59,
      "start": 19.8988,
      "duration": 0.0498,
      "velocity": 90,
      "chip": "ym2612"
    },
    {
      "channel": 2,
      "note": 109,
      "start": 19.9001,
      "duration": 0.0492,
      "velocity": 108,
      "chip": "ym2612"
    },
    {
      "channel": 3,
      "note": 80,
      "start": 19.9009,
      "duration": 0.0249,
      "velocity": 104,
      "chip": "ym2612"
    },
    {
      "channel": 4,
      "note": 81,
      "start": 19.9018,
      "duration": 0.1661,
      "velocity": 101,
      "chip": "ym2612"
    },
    {
      "channel": 0,
      "note": 83,
      "start": 19.9484,
      "duration": 0.4549,
      "velocity": 101,
      "chip": "ym2612"
    },
    {
      "channel": 1,
      "note": 54,
      "start": 19.9491,
      "duration": 0.202,
      "velocity": 90,
      "chip": "ym2612"
    },
    {
      "channel": 2,
      "note": 104,
      "start": 19.9499,
      "duration": 0.2019,
      "velocity": 108,
      "chip": "ym2612"
    },
    {
      "channel": 3,
      "note": 71,
      "start": 19.9507,
      "duration": 0.3393,
      "velocity": 104,
      "chip": "ym2612"
    },
    {
      "channel": 4,
      "note": 83,
      "start": 20.0686,
      "duration": 0.4226,
      "velocity": 101,
      "chip": "ym2612"
    },
    {
      "channel": 1,
      "note": 54,
      "start": 20.1517,
      "duration": 0.0843,
      "velocity": 90,
      "chip": "ym2612"
    },
    {
      "channel": 2,
      "note": 100,
      "start": 20.1524,
      "duration": 0.0843,
      "velocity": 108,
      "chip": "ym2612"
    },
    {
      "channel": 1,
      "note": 56,
      "start": 20.2365,
      "duration": 0.0521,
      "velocity": 90,
      "chip": "ym2612"
    },
    {
      "channel": 2,
      "note": 105,
      "start": 20.2374,
      "duration": 0.0519,
      "velocity": 108,
      "chip": "ym2612"
    },
    {
      "channel": 1,
      "note": 56,
      "start": 20.2892,
      "duration": 0.1149,
      "velocity": 90,
      "chip": "ym2612"
    },
    {
      "channel": 2,
      "note": 100,
      "start": 20.2899,
      "duration": 0.1149,
      "velocity": 108,
      "chip": "ym2612"
    },
    {
      "channel": 3,
      "note": 68,
      "start": 20.2907,
      "duration": 0.3756,
      "velocity": 104,
      "chip": "ym2612"
    },
    {
      "channel": 0,
      "note": 83,
      "start": 20.404,
      "duration": 0.0844,
      "velocity": 101,
      "chip": "ym2612"
    },
    {
      "channel": 1,
      "note": 57,
      "start": 20.4047,
      "duration": 0.0846,
      "velocity": 90,
      "chip": "ym2612"
    },
    {
      "channel": 2,
      "note": 107,
      "start": 20.4054,
      "duration": 0.0846,
      "velocity": 108,
      "chip": "ym2612"
    },
    {
      "channel": 0,
      "note": 81,
      "start": 20.4891,
      "duration": 0.1749,
      "velocity": 101,
      "chip": "ym2612"
    },
    {
      "channel": 1,
      "note": 57,
      "start": 20.4898,
      "duration": 0.175,
      "velocity": 90,
      "chip": "ym2612"
    },
    {
      "channel": 2,
      "note": 100,
      "start": 20.4906,
      "duration": 0.175,
      "velocity": 108,
      "chip": "ym2612"
    },
    {
      "channel": 4,
      "note": 83,
      "start": 20.4919,
      "duration": 0.1752,
      "velocity": 101,
      "chip": "ym2612"
    },
    {
      "channel": 0,
      "note": 80,
      "start": 20.6647,
      "duration": 0.0517,
      "velocity": 101,
      "chip": "ym2612"
    },
    {
      "channel": 1,
      "note": 59,
      "start": 20.6655,
      "duration": 0.0518,
      "velocity": 90,
      "chip": "ym2612"
    },
    {
      "channel": 2,
      "note": 112,
      "start": 20.6662,
      "duration": 0.0518,
      "velocity": 108,
      "chip": "ym2612"
    },
    {
      "channel": 3,
      "note": 71,
      "start": 20.6671,
      "duration": 0.027,
      "velocity": 104,
      "chip": "ym2612"
    },
    {
      "channel": 4,
      "note": 81,
      "start": 20.6679,
      "duration": 0.0517,
      "velocity": 101,
      "chip": "ym2612"
    },
    {
      "channel": 0,
      "note": 78,
      "start": 20.7171,
      "duration": 0.5122,
      "velocity": 101,
      "chip": "ym2612"
    },
    {
      "channel": 1,
      "note": 61,
      "start": 20.7178,
      "duration": 0.2597,
      "velocity": 90,
      "chip": "ym2612"
    },
    {
      "channel": 2,
      "note": 114,
      "start": 20.7186,
      "duration": 0.2597,
      "velocity": 108,
      "chip": "ym2612"
    },
    {
      "channel": 3,
      "note": 81,
      "start": 20.7195,
      "duration": 0.3985,
      "velocity": 104,
      "chip": "ym2612"
    },
    {
      "channel": 4,
      "note": 80,
      "start": 20.7203,
      "duration": 0.0834,
      "velocity": 101,
      "chip": "ym2612"
    },
    {
      "channel": 4,
      "note": 78,
      "start": 20.8043,
      "duration": 0.5137,
      "velocity": 101,
      "chip": "ym2612"
    },
    {
      "channel": 1,
      "note": 61,
      "start": 20.9781,
      "duration": 0.0852,
      "velocity": 90,
      "chip": "ym2612"
    },
    {
      "channel": 2,
      "note": 112,
      "start": 20.9789,
      "duration": 0.0852,
      "velocity": 108,
      "chip": "ym2612"
    },
    {
      "channel": 1,
      "note": 59,
      "start": 21.0639,
      "duration": 0.0524,
      "velocity": 90,
      "chip": "ym2612"
    },
    {
      "channel": 2,
      "note": 109,
      "start": 21.0647,
      "duration": 0.0524,
      "velocity": 108,
      "chip": "ym2612"
    },
    {
      "channel": 1,
      "note": 59,
      "start": 21.1168,
      "duration": 0.1133,
      "velocity": 90,
      "chip": "ym2612"
    },
    {
      "channel": 2,
      "note": 107,
      "start": 21.1176,
      "duration": 0.1132,
      "velocity": 108,
      "chip": "ym2612"
    },
    {
      "channel": 3,
      "note": 73,
      "start": 21.119,
      "duration": 0.3736,
      "velocity": 104,
      "chip": "ym2612"
    },
    {
      "channel": 0,
      "note": 73,
      "start": 21.23,
      "duration": 0.0847,
      "velocity": 101,
      "chip": "ym2612"
    },
    {
      "channel": 1,
      "note": 57,
      "start": 21.2307,
      "duration": 0.085,
      "velocity": 90,
      "chip": "ym2612"
    },
    {
      "channel": 2,
      "note": 109,
      "start": 21.2315,
      "duration": 0.0853,
      "velocity": 108,
      "chip": "ym2612"
    },
    {
      "channel": 0,
      "note": 78,
      "start": 21.3154,
      "duration": 0.1749,
      "velocity": 101,
      "chip": "ym2612"
    },
    {
      "channel": 1,
      "note": 57,
      "start": 21.3167,
      "duration": 0.1745,
      "velocity": 90,
      "chip": "ym2612"
    },
    {
      "channel": 2,
      "note": 107,
      "start": 21.3174,
      "duration": 0.1744,
      "velocity": 108,
      "chip": "ym2612"
    },
    {
      "channel": 4,
      "note": 73,
      "start": 21.3193,
      "duration": 0.1742,
      "velocity": 101,
      "chip": "ym2612"
    },
    {
      "channel": 0,
      "note": 80,
      "start": 21.491,
      "duration": 0.0502,
      "velocity": 101,
      "chip": "ym2612"
    },
    {
      "channel": 1,
      "note": 56,
      "start": 21.4917,
      "duration": 0.0502,
      "velocity": 90,
      "chip": "ym2612"
    },
    {
      "channel": 2,
      "note": 105,
      "start": 21.4925,
      "duration": 0.0502,
      "velocity": 108,
      "chip": "ym2612"
    },
    {
      "channel": 3,
      "note": 69,
      "start": 21.4933,
      "duration": 0.0261,
      "velocity": 104,
      "chip": "ym2612"
    },
    {
      "channel": 4,
      "note": 78,
      "start": 21.4941,
      "duration": 0.0502,
      "velocity": 101,
      "chip": "ym2612"
    },
    {
      "channel": 0,
      "note": 81,
      "start": 21.5418,
      "duration": 0.453,
      "velocity": 101,
      "chip": "ym2612"
    },
    {
      "channel": 1,
      "note": 50,
      "start": 21.5425,
      "duration": 0.2002,
      "velocity": 90,
      "chip": "ym2612"
    },
    {
      "channel": 2,
      "note": 102,
      "start": 21.5433,
      "duration": 0.2002,
      "velocity": 108,
      "chip": "ym2612"
    },
    {
      "channel": 3,
      "note": 73,
      "start": 21.5441,
      "duration": 0.3376,
      "velocity": 104,
      "chip": "ym2612"
    },
    {
      "channel": 4,
      "note": 80,
      "start": 21.5449,
      "duration": 0.1146,
      "velocity": 101,
      "chip": "ym2612"
    },
    {
      "channel": 4,
      "note": 81,
      "start": 21.6603,
      "duration": 0.4226,
      "velocity": 101,
      "chip": "ym2612"
    },
    {
      "channel": 1,
      "note": 50,
      "start": 21.7433,
      "duration": 0.0846,
      "velocity": 90,
      "chip": "ym2612"
    },
    {
      "channel": 2,
      "note": 98,
      "start": 21.7441,
      "duration": 0.0846,
      "velocity": 108,
      "chip": "ym2612"
    },
    {
      "channel": 1,
      "note": 52,
      "start": 21.8286,
      "duration": 0.0517,
      "velocity": 90,
      "chip": "ym2612"
    },
    {
      "channel": 2,
      "note": 104,
      "start": 21.8293,
      "duration": 0.0516,
      "velocity": 108,
      "chip": "ym2612"
    },
    {
      "channel": 1,
      "note": 52,
      "start": 21.8808,
      "duration": 0.1149,
      "velocity": 90,
      "chip": "ym2612"
    },
    {
      "channel": 2,
      "note": 98,
      "start": 21.8816,
      "duration": 0.1148,
      "velocity": 108,
      "chip": "ym2612"
    },
    {
      "channel": 3,
      "note": 69,
      "start": 21.8824,
      "duration": 0.3756,
      "velocity": 104,
      "chip": "ym2612"
    },
    {
      "channel": 0,
      "note": 78,
      "start": 21.9955,
      "duration": 0.0846,
      "velocity": 101,
      "chip": "ym2612"
    },
    {
      "channel": 1,
      "note": 54,
      "start": 21.9962,
      "duration": 0.0847,
      "velocity": 90,
      "chip": "ym2612"
    },
    {
      "channel": 2,
      "note": 105,
      "start": 21.997,
      "duration": 0.0846,
      "velocity": 108,
      "chip": "ym2612"
    },
    {
      "channel": 0,
      "note": 81,
      "start": 22.0808,
      "duration": 0.1749,
      "velocity": 101,
      "chip": "ym2612"
    },
    {
      "channel": 1,
      "note": 54,
      "start": 22.0815,
      "duration": 0.175,
      "velocity": 90,
      "chip": "ym2612"
    },
    {
      "channel": 2,
      "note": 98,
      "start": 22.0823,
      "duration": 0.1749,
      "velocity": 108,
      "chip": "ym2612"
    },
    {
      "channel": 4,
      "note": 78,
      "start": 22.0836,
      "duration": 0.1753,
      "velocity": 101,
      "chip": "ym2612"
    },
    {
      "channel": 0,
      "note": 85,
      "start": 22.2564,
      "duration": 0.0534,
      "velocity": 101,
      "chip": "ym2612"
    },
    {
      "channel": 1,
      "note": 50,
      "start": 22.2571,
      "duration": 0.0535,
      "velocity": 90,
      "chip": "ym2612"
    },
    {
      "channel": 2,
      "note": 107,
      "start": 22.2578,
      "duration": 0.0534,
      "velocity": 108,
      "chip": "ym2612"
    },
    {
      "channel": 3,
      "note": 73,
      "start": 22.2587,
      "duration": 0.0534,
      "velocity": 104,
      "chip": "ym2612"
    },
    {
      "channel": 4,
      "note": 81,
      "start": 22.2601,
      "duration": 0.0529,
      "velocity": 101,
      "chip": "ym2612"
    },
    {
      "channel": 0,
      "note": 83,
      "start": 22.3105,
      "duration": 0.2603,
      "velocity": 101,
      "chip": "ym2612"
    },
    {
      "channel": 1,
      "note": 49,
      "start": 22.3112,
      "duration": 0.2604,
      "velocity": 90,
      "chip": "ym2612"
    },
    {
      "channel": 2,
      "note": 104,
      "start": 22.3119,
      "duration": 0.2604,
      "velocity": 108,
      "chip": "ym2612"
    },
    {
      "channel": 3,
      "note": 71,
      "start": 22.3128,
      "duration": 0.3962,
      "velocity": 104,
      "chip": "ym2612"
    },
    {
      "channel": 4,
      "note": 85,
      "start": 22.3136,
      "duration": 0.0837,
      "velocity": 101,
      "chip": "ym2612"
    },
    {
      "channel": 4,
      "note": 83,
      "start": 22.3985,
      "duration": 0.2597,
      "velocity": 101,
      "chip": "ym2612"
    },
    {
      "channel": 0,
      "note": 81,
      "start": 22.5715,
      "duration": 0.1352,
      "velocity": 101,
      "chip": "ym2612"
    },
    {
      "channel": 1,
      "note": 49,
      "start": 22.5722,
      "duration": 0.0836,
      "velocity": 90,
      "chip": "ym2612"
    },
    {
      "channel": 2,
      "note": 100,
      "start": 22.5729,
      "duration": 0.0836,
      "velocity": 108,
      "chip": "ym2612"
    },
    {
      "channel": 1,
      "note": 56,
      "start": 22.6563,
      "duration": 0.0512,
      "velocity": 90,
      "chip": "ym2612"
    },
    {
      "channel": 2,
      "note": 105,
      "start": 22.6576,
      "duration": 0.0506,
      "velocity": 108,
      "chip": "ym2612"
    },
    {
      "channel": 4,
      "note": 81,
      "start": 22.659,
      "duration": 0.1672,
      "velocity": 101,
      "chip": "ym2612"
    },
    {
      "channel": 0,
      "note": 80,
      "start": 22.7073,
      "duration": 0.2015,
      "velocity": 101,
      "chip": "ym2612"
    },
    {
      "channel": 1,
      "note": 56,
      "start": 22.708,
      "duration": 0.1162,
      "velocity": 90,
      "chip": "ym2612"
    },
    {
      "channel": 2,
      "note": 100,
      "start": 22.7088,
      "duration": 0.1161,
      "velocity": 108,
      "chip": "ym2612"
    },
    {
      "channel": 3,
      "note": 68,
      "start": 22.7096,
      "duration": 0.3768,
      "velocity": 104,
      "chip": "ym2612"
    },
    {
      "channel": 1,
      "note": 61,
      "start": 22.8248,
      "duration": 0.0849,
      "velocity": 90,
      "chip": "ym2612"
    },
    {
      "channel": 2,
      "note": 107,
      "start": 22.8256,
      "duration": 0.0849,
      "velocity": 108,
      "chip": "ym2612"
    },
    {
      "channel": 4,
      "note": 80,
      "start": 22.8269,
      "duration": 0.2603,
      "velocity": 101,
      "chip": "ym2612"
    },
    {
      "channel": 0,
      "note": 88,
      "start": 22.9096,
      "duration": 0.2279,
      "velocity": 101,
      "chip": "ym2612"
    },
    {
      "channel": 1,
      "note": 61,
      "start": 22.9103,
      "duration": 0.1746,
      "velocity": 90,
      "chip": "ym2612"
    },
    {
      "channel": 2,
      "note": 100,
      "start": 22.911,
      "duration": 0.1746,
      "velocity": 108,
      "chip": "ym2612"
    },
    {
      "channel": 1,
      "note": 49,
      "start": 23.0854,
      "duration": 0.0529,
      "velocity": 90,
      "chip": "ym2612"
    },
    {
      "channel": 2,
      "note": 109,
      "start": 23.0863,
      "duration": 0.168,
      "velocity": 108,
      "chip": "ym2612"
    },
    {
      "channel": 3,
      "note": 71,
      "start": 23.0871,
      "duration": 0.0523,
      "velocity": 104,
      "chip": "ym2612"
    },
    {
      "channel": 4,
      "note": 88,
      "start": 23.0879,
      "duration": 0.1674,
      "velocity": 101,
      "chip": "ym2612"
    },
    {
      "channel": 0,
      "note": 88,
      "start": 23.1382,
      "duration": 0.4732,
      "velocity": 101,
      "chip": "ym2612"
    },
    {
      "channel": 1,
      "note": 49,
      "start": 23.1389,
      "duration": 0.1142,
      "velocity": 90,
      "chip": "ym2612"
    },
    {
      "channel": 1,
      "note": 54,
      "start": 23.2541,
      "duration": 0.0842,
      "velocity": 90,
      "chip": "ym2612"
    },
    {
      "channel": 2,
      "note": 90,
      "start": 23.2549,
      "duration": 0.0841,
      "velocity": 108,
      "chip": "ym2612"
    },
    {
      "channel": 4,
      "note": 88,
      "start": 23.2561,
      "duration": 0.4427,
      "velocity": 101,
      "chip": "ym2612"
    },
    {
      "channel": 1,
      "note": 66,
      "start": 23.3389,
      "duration": 0.0498,
      "velocity": 90,
      "chip": "ym2612"
    },
    {
      "channel": 2,
      "note": 95,
      "start": 23.3397,
      "duration": 0.0498,
      "velocity": 108,
      "chip": "ym2612"
    },
    {
      "channel": 3,
      "note": 73,
      "start": 23.3405,
      "duration": 0.0254,
      "velocity": 104,
      "chip": "ym2612"
    },
    {
      "channel": 1,
      "note": 54,
      "start": 23.3893,
      "duration": 0.0846,
      "velocity": 90,
      "chip": "ym2612"
    },
    {
      "channel": 2,
      "note": 97,
      "start": 23.3901,
      "duration": 0.0846,
      "velocity": 108,
      "chip": "ym2612"
    },
    {
      "channel": 1,
      "note": 54,
      "start": 23.4745,
      "duration": 0.0847,
      "velocity": 90,
      "chip": "ym2612"
    },
    {
      "channel": 2,
      "note": 95,
      "start": 23.4753,
      "duration": 0.0847,
      "velocity": 108,
      "chip": "ym2612"
    },
    {
      "channel": 1,
      "note": 66,
      "start": 23.5598,
      "duration": 0.0524,
      "velocity": 90,
      "chip": "ym2612"
    },
    {
      "channel": 2,
      "note": 102,
      "start": 23.5605,
      "duration": 0.0523,
      "velocity": 108,
      "chip": "ym2612"
    },
    {
      "channel": 3,
      "note": 73,
      "start": 23.5614,
      "duration": 0.027,
      "velocity": 104,
      "chip": "ym2612"
    },
    {
      "channel": 0,
      "note": 83,
      "start": 23.612,
      "duration": 0.0844,
      "velocity": 101,
      "chip": "ym2612"
    },
    {
      "channel": 1,
      "note": 54,
      "start": 23.6127,
      "duration": 0.0845,
      "velocity": 90,
      "chip": "ym2612"
    },
    {
      "channel": 2,
      "note": 95,
      "start": 23.6135,
      "duration": 0.0844,
      "velocity": 108,
      "chip": "ym2612"
    },
    {
      "channel": 0,
      "note": 88,
      "start": 23.697,
      "duration": 0.0845,
      "velocity": 101,
      "chip": "ym2612"
    },
    {
      "channel": 1,
      "note": 54,
      "start": 23.6977,
      "duration": 0.0846,
      "velocity": 90,
      "chip": "ym2612"
    },
    {
      "channel": 2,
      "note": 97,
      "start": 23.6985,
      "duration": 0.0846,
      "velocity": 108,
      "chip": "ym2612"
    },
    {
      "channel": 4,
      "note": 83,
      "start": 23.6994,
      "duration": 0.0859,
      "velocity": 101,
      "chip": "ym2612"
    },
    {
      "channel": 0,
      "note": 90,
      "start": 23.7822,
      "duration": 0.4162,
      "velocity": 103,
      "chip": "ym2612"
    },
    {
      "channel": 1,
      "note": 66,
      "start": 23.7829,
      "duration": 0.1068,
      "velocity": 90,
      "chip": "ym2612"
    },
    {
      "channel": 2,
      "note": 102,
      "start": 23.7842,
      "duration": 0.0532,
      "velocity": 108,
      "chip": "ym2612"
    },
    {
      "channel": 3,
      "note": 78,
      "start": 23.7851,
      "duration": 0.0533,
      "velocity": 104,
      "chip": "ym2612"
    },
    {
      "channel": 4,
      "note": 88,
      "start": 23.7859,
      "duration": 0.0528,
      "velocity": 101,
      "chip": "ym2612"
    },
    {
      "channel": 2,
      "note": 85,
      "start": 23.8382,
      "duration": 0.0311,
      "velocity": 108,
      "chip": "ym2612"
    },
    {
      "channel": 4,
      "note": 90,
      "start": 23.8394,
      "duration": 0.4231,
      "velocity": 103,
      "chip": "ym2612"
    },
    {
      "channel": 2,
      "note": 90,
      "start": 23.8699,
      "duration": 0.0372,
      "velocity": 108,
      "chip": "ym2612"
    },
    {
      "channel": 1,
      "note": 66,
      "start": 23.8909,
      "duration": 0.0477,
      "velocity": 90,
      "chip": "ym2612"
    },
    {
      "channel": 2,
      "note": 92,
      "start": 23.9077,
      "duration": 0.0316,
      "velocity": 108,
      "chip": "ym2612"
    },
    {
      "channel": 1,
      "note": 64,
      "start": 23.9391,
      "duration": 0.0486,
      "velocity": 90,
      "chip": "ym2612"
    },
    {
      "channel": 2,
      "note": 97,
      "start": 23.9401,
      "duration": 0.0317,
      "velocity": 108,
      "chip": "ym2612"
    },
    {
      "channel": 2,
      "note": 90,
      "start": 23.9724,
      "duration": 0.0322,
      "velocity": 108,
      "chip": "ym2612"
    },
    {
      "channel": 1,
      "note": 61,
      "start": 23.9884,
      "duration": 0.0494,
      "velocity": 90,
      "chip": "ym2612"
    },
    {
      "channel": 2,
      "note": 92,
      "start": 24.0053,
      "duration": 0.0333,
      "velocity": 108,
      "chip": "ym2612"
    },
    {
      "channel": 1,
      "note": 59,
      "start": 24.0383,
      "duration": 0.0515,
      "velocity": 90,
      "chip": "ym2612"
    },
    {
      "channel": 2,
      "note": 97,
      "start": 24.0393,
      "duration": 0.0341,
      "velocity": 108,
      "chip": "ym2612"
    },
    {
      "channel": 2,
      "note": 102,
      "start": 24.074,
      "duration": 0.0333,
      "velocity": 108,
      "chip": "ym2612"
    },
    {
      "channel": 1,
      "note": 57,
      "start": 24.0904,
      "duration": 0.0505,
      "velocity": 90,
      "chip": "ym2612"
    },
    {
      "channel": 2,
      "note": 97,
      "start": 24.108,
      "duration": 0.0336,
      "velocity": 108,
      "chip": "ym2612"
    },
    {
      "channel": 1,
      "note": 54,
      "start": 24.1415,
      "duration": 0.0578,
      "velocity": 90,
      "chip": "ym2612"
    },
    {
      "channel": 2,
      "note": 102,
      "start": 24.1424,
      "duration": 0.0357,
      "velocity": 94,
      "chip": "ym2612"
    },
    {
      "channel": 2,
      "note": 92,
      "start": 24.1787,
      "duration": 0.0212,
      "velocity": 94,
      "chip": "ym2612"
    },
    {
      "channel": 0,
      "note": 86,
      "start": 24.1991,
      "duration": 0.5021,
      "velocity": 103,
      "chip": "ym2612"
    },
    {
      "channel": 1,
      "note": 55,
      "start": 24.1998,
      "duration": 0.1641,
      "velocity": 90,
      "chip": "ym2612"
    },
    {
      "channel": 2,
      "note": 86,
      "start": 24.2006,
      "duration": 0.0197,
      "velocity": 94,
      "chip": "ym2612"
    },
    {
      "channel": 3,
      "note": 66,
      "start": 24.2014,
      "duration": 0.5022,
      "velocity": 104,
      "chip": "ym2612"
    },
    {
      "channel": 2,
      "note": 90,
      "start": 24.2212,
      "duration": 0.0165,
      "velocity": 94,
      "chip": "ym2612"
    },
    {
      "channel": 2,
      "note": 95,
      "start": 24.2383,
      "duration": 0.0191,
      "velocity": 94,
      "chip": "ym2612"
    },
    {
      "channel": 2,
      "note": 90,
      "start": 24.258,
      "duration": 0.0205,
      "velocity": 94,
      "chip": "ym2612"
    },
    {
      "channel": 4,
      "note": 86,
      "start": 24.2632,
      "duration": 0.6169,
      "velocity": 103,
      "chip": "ym2612"
    },
    {
      "channel": 2,
      "note": 95,
      "start": 24.2793,
      "duration": 0.0263,
      "velocity": 94,
      "chip": "ym2612"
    },
    {
      "channel": 2,
      "note": 98,
      "start": 24.3063,
      "duration": 0.0584,
      "velocity": 94,
      "chip": "ym2612"
    },
    {
      "channel": 1,
      "note": 55,
      "start": 24.3646,
      "duration": 0.0847,
      "velocity": 90,
      "chip": "ym2612"
    },
    {
      "channel": 2,
      "note": 95,
      "start": 24.3653,
      "duration": 0.0173,
      "velocity": 94,
      "chip": "ym2612"
    },
    {
      "channel": 2,
      "note": 98,
      "start": 24.3833,
      "duration": 0.0178,
      "velocity": 94,
      "chip": "ym2612"
    },
    {
      "channel": 2,
      "note": 102,
      "start": 24.4018,
      "duration": 0.0483,
      "velocity": 94,
      "chip": "ym2612"
    },
    {
      "channel": 1,
      "note": 59,
      "start": 24.4498,
      "duration": 0.0531,
      "velocity": 90,
      "chip": "ym2612"
    },
    {
      "channel": 2,
      "note": 98,
      "start": 24.4507,
      "duration": 0.0169,
      "velocity": 94,
      "chip": "ym2612"
    },
    {
      "channel": 2,
      "note": 102,
      "start": 24.4684,
      "duration": 0.0169,
      "velocity": 94,
      "chip": "ym2612"
    },
    {
      "channel": 2,
      "note": 107,
      "start": 24.4859,
      "duration": 0.0178,
      "velocity": 94,
      "chip": "ym2612"
    },
    {
      "channel": 1,
      "note": 59,
      "start": 24.5035,
      "duration": 0.1133,
      "velocity": 90,
      "chip": "ym2612"
    },
    {
      "channel": 2,
      "note": 110,
      "start": 24.5043,
      "duration": 0.017,
      "velocity": 94,
      "chip": "ym2612"
    },
    {
      "channel": 2,
      "note": 107,
      "start": 24.5221,
      "duration": 0.0364,
      "velocity": 94,
      "chip": "ym2612"
    },
    {
      "channel": 2,
      "note": 102,
      "start": 24.5591,
      "duration": 0.0584,
      "velocity": 94,
      "chip": "ym2612"
    },
    {
      "channel": 1,
      "note": 62,
      "start": 24.6174,
      "duration": 0.0847,
      "velocity": 90,
      "chip": "ym2612"
    },
    {
      "channel": 2,
      "note": 107,
      "start": 24.6182,
      "duration": 0.0172,
      "velocity": 94,
      "chip": "ym2612"
    },
    {
      "channel": 2,
      "note": 102,
      "start": 24.6362,
      "duration": 0.0172,
      "velocity": 94,
      "chip": "ym2612"
    },
    {
      "channel": 2,
      "note": 98,
      "start": 24.654,
      "duration": 0.0488,
      "velocity": 94,
      "chip": "ym2612"
    },
    {
      "channel": 0,
      "note": 83,
      "start": 24.702,
      "duration": 0.1747,
      "velocity": 103,
      "chip": "ym2612"
    },
    {
      "channel": 1,
      "note": 62,
      "start": 24.7027,
      "duration": 0.1748,
      "velocity": 90,
      "chip": "ym2612"
    },
    {
      "channel": 2,
      "note": 102,
      "start": 24.7035,
      "duration": 0.0567,
      "velocity": 94,
      "chip": "ym2612"
    },
    {
      "channel": 3,
      "note": 66,
      "start": 24.7043,
      "duration": 0.1753,
      "velocity": 104,
      "chip": "ym2612"
    },
    {
      "channel": 2,
      "note": 98,
      "start": 24.7614,
      "duration": 0.0574,
      "velocity": 94,
      "chip": "ym2612"
    },
    {
      "channel": 2,
      "note": 95,
      "start": 24.8194,
      "duration": 0.0594,
      "velocity": 94,
      "chip": "ym2612"
    },
    {
      "channel": 0,
      "note": 85,
      "start": 24.8773,
      "duration": 0.0489,
      "velocity": 103,
      "chip": "ym2612"
    },
    {
      "channel": 1,
      "note": 59,
      "start": 24.8787,
      "duration": 0.0484,
      "velocity": 90,
      "chip": "ym2612"
    },
    {
      "channel": 2,
      "note": 98,
      "start": 24.8794,
      "duration": 0.0154,
      "velocity": 94,
      "chip": "ym2612"
    },
    {
      "channel": 4,
      "note": 83,
      "start": 24.8808,
      "duration": 0.0486,
      "velocity": 103,
      "chip": "ym2612"
    },
    {
      "channel": 2,
      "note": 95,
      "start": 24.8956,
      "duration": 0.0147,
      "velocity": 94,
      "chip": "ym2612"
    },
    {
      "channel": 2,
      "note": 90,
      "start": 24.911,
      "duration": 0.0168,
      "velocity": 94,
      "chip": "ym2612"
    },
    {
      "channel": 0,
      "note": 86,
      "start": 24.9269,
      "duration": 0.3998,
      "velocity": 103,
      "chip": "ym2612"
    },
    {
      "channel": 1,
      "note": 67,
      "start": 24.9276,
      "duration": 0.2592,
      "velocity": 90,
      "chip": "ym2612"
    },
    {
      "channel": 2,
      "note": 90,
      "start": 24.9284,
      "duration": 0.018,
      "velocity": 94,
      "chip": "ym2612"
    },
    {
      "channel": 3,
      "note": 66,
      "start": 24.9292,
      "duration": 0.5979,
      "velocity": 104,
      "chip": "ym2612"
    },
    {
      "channel": 4,
      "note": 85,
      "start": 24.9301,
      "duration": 0.0838,
      "velocity": 103,
      "chip": "ym2612"
    },
    {
      "channel": 2,
      "note": 95,
      "start": 24.9471,
      "duration": 0.0178,
      "velocity": 94,
      "chip": "ym2612"
    },
    {
      "channel": 2,
      "note": 98,
      "start": 24.9656,
      "duration": 0.0468,
      "velocity": 94,
      "chip": "ym2612"
    },
    {
      "channel": 2,
      "note": 95,
      "start": 25.013,
      "duration": 0.057,
      "velocity": 94,
      "chip": "ym2612"
    },
    {
      "channel": 4,
      "note": 86,
      "start": 25.0145,
      "duration": 0.4279,
      "velocity": 103,
      "chip": "ym2612"
    },
    {
      "channel": 2,
      "note": 98,
      "start": 25.0708,
      "duration": 0.0581,
      "velocity": 94,
      "chip": "ym2612"
    },
    {
      "channel": 2,
      "note": 102,
      "start": 25.1295,
      "duration": 0.058,
      "velocity": 94,
      "chip": "ym2612"
    },
    {
      "channel": 1,
      "note": 67,
      "start": 25.1874,
      "duration": 0.0846,
      "velocity": 90,
      "chip": "ym2612"
    },
    {
      "channel": 2,
      "note": 98,
      "start": 25.1882,
      "duration": 0.0175,
      "velocity": 94,
      "chip": "ym2612"
    },
    {
      "channel": 2,
      "note": 102,
      "start": 25.2066,
      "duration": 0.0173,
      "velocity": 94,
      "chip": "ym2612"
    },
    {
      "channel": 2,
      "note": 107,
      "start": 25.2246,
      "duration": 0.0481,
      "velocity": 94,
      "chip": "ym2612"
    },
    {
      "channel": 1,
      "note": 62,
      "start": 25.2726,
      "duration": 0.055,
      "velocity": 90,
      "chip": "ym2612"
    },
    {
      "channel": 2,
      "note": 102,
      "start": 25.2733,
      "duration": 0.0175,
      "velocity": 94,
      "chip": "ym2612"
    },
    {
      "channel": 2,
      "note": 107,
      "start": 25.2917,
      "duration": 0.0174,
      "velocity": 94,
      "chip": "ym2612"
    },
    {
      "channel": 2,
      "note": 110,
      "start": 25.3097,
      "duration": 0.0187,
      "velocity": 94,
      "chip": "ym2612"
    },
    {
      "channel": 0,
      "note": 88,
      "start": 25.3275,
      "duration": 0.1122,
      "velocity": 103,
      "chip": "ym2612"
    },
    {
      "channel": 1,
      "note": 62,
      "start": 25.3282,
      "duration": 0.1123,
      "velocity": 90,
      "chip": "ym2612"
    },
    {
      "channel": 2,
      "note": 114,
      "start": 25.329,
      "duration": 0.016,
      "velocity": 94,
      "chip": "ym2612"
    },
    {
      "channel": 2,
      "note": 110,
      "start": 25.3463,
      "duration": 0.0354,
      "velocity": 94,
      "chip": "ym2612"
    },
    {
      "channel": 2,
      "note": 107,
      "start": 25.3823,
      "duration": 0.0589,
      "velocity": 94,
      "chip": "ym2612"
    },
    {
      "channel": 0,
      "note": 90,
      "start": 25.4403,
      "duration": 0.0845,
      "velocity": 103,
      "chip": "ym2612"
    },
    {
      "channel": 1,
      "note": 59,
      "start": 25.441,
      "duration": 0.0846,
      "velocity": 90,
      "chip": "ym2612"
    },
    {
      "channel": 2,
      "note": 110,
      "start": 25.4418,
      "duration": 0.0186,
      "velocity": 94,
      "chip": "ym2612"
    },
    {
      "channel": 4,
      "note": 88,
      "start": 25.4431,
      "duration": 0.0849,
      "velocity": 103,
      "chip": "ym2612"
    },
    {
      "channel": 2,
      "note": 107,
      "start": 25.4612,
      "duration": 0.0163,
      "velocity": 94,
      "chip": "ym2612"
    },
    {
      "channel": 2,
      "note": 102,
      "start": 25.4782,
      "duration": 0.0483,
      "velocity": 94,
      "chip": "ym2612"
    },
    {
      "channel": 0,
      "note": 88,
      "start": 25.5255,
      "duration": 0.1749,
      "velocity": 103,
      "chip": "ym2612"
    },
    {
      "channel": 1,
      "note": 59,
      "start": 25.5262,
      "duration": 0.1751,
      "velocity": 90,
      "chip": "ym2612"
    },
    {
      "channel": 2,
      "note": 107,
      "start": 25.5271,
      "duration": 0.0569,
      "velocity": 94,
      "chip": "ym2612"
    },
    {
      "channel": 3,
      "note": 66,
      "start": 25.5279,
      "duration": 0.1749,
      "velocity": 104,
      "chip": "ym2612"
    },
    {
      "channel": 4,
      "note": 90,
      "start": 25.5287,
      "duration": 0.1744,
      "velocity": 103,
      "chip": "ym2612"
    },
    {
      "channel": 2,
      "note": 102,
      "start": 25.5847,
      "duration": 0.0578,
      "velocity": 94,
      "chip": "ym2612"
    },
    {
      "channel": 2,
      "note": 98,
      "start": 25.6431,
      "duration": 0.0588,
      "velocity": 94,
      "chip": "ym2612"
    },
    {
      "channel": 0,
      "note": 86,
      "start": 25.7012,
      "duration": 0.0497,
      "velocity": 103,
      "chip": "ym2612"
    },
    {
      "channel": 1,
      "note": 55,
      "start": 25.7019,
      "duration": 0.0498,
      "velocity": 90,
      "chip": "ym2612"
    },
    {
      "channel": 2,
      "note": 102,
      "start": 25.7026,
      "duration": 0.016,
      "velocity": 94,
      "chip": "ym2612"
    },
    {
      "channel": 4,
      "note": 88,
      "start": 25.7038,
      "duration": 0.0503,
      "velocity": 103,
      "chip": "ym2612"
    },
    {
      "channel": 2,
      "note": 98,
      "start": 25.7194,
      "duration": 0.0152,
      "velocity": 94,
      "chip": "ym2612"
    },
    {
      "channel": 2,
      "note": 95,
      "start": 25.7353,
      "duration": 0.0171,
      "velocity": 94,
      "chip": "ym2612"
    },
    {
      "channel": 0,
      "note": 85,
      "start": 25.7515,
      "duration": 0.598,
      "velocity": 103,
      "chip": "ym2612"
    },
    {
      "channel": 1,
      "note": 54,
      "start": 25.7522,
      "duration": 0.2602,
      "velocity": 90,
      "chip": "ym2612"
    },
    {
      "channel": 2,
      "note": 88,
      "start": 25.753,
      "duration": 0.0191,
      "velocity": 94,
      "chip": "ym2612"
    },
    {
      "channel": 3,
      "note": 73,
      "start": 25.7538,
      "duration": 0.5986,
      "velocity": 104,
      "chip": "ym2612"
    },
    {
      "channel": 4,
      "note": 86,
      "start": 25.7552,
      "duration": 0.0839,
      "velocity": 103,
      "chip": "ym2612"
    },
    {
      "channel": 2,
      "note": 93,
      "start": 25.773,
      "duration": 0.017,
      "velocity": 94,
      "chip": "ym2612"
    },
    {
      "channel": 2,
      "note": 97,
      "start": 25.7906,
      "duration": 0.047,
      "velocity": 94,
      "chip": "ym2612"
    },
    {
      "channel": 2,
      "note": 93,
      "start": 25.8383,
      "duration": 0.0574,
      "velocity": 94,
      "chip": "ym2612"
    },
    {
      "channel": 4,
      "note": 85,
      "start": 25.8398,
      "duration": 0.688,
      "velocity": 103,
      "chip": "ym2612"
    },
    {
      "channel": 2,
      "note": 97,
      "start": 25.8965,
      "duration": 0.0581,
      "velocity": 94,
      "chip": "ym2612"
    },
    {
      "channel": 2,
      "note": 100,
      "start": 25.9552,
      "duration": 0.058,
      "velocity": 94,
      "chip": "ym2612"
    },
    {
      "channel": 1,
      "note": 54,
      "start": 26.0131,
      "duration": 0.0847,
      "velocity": 90,
      "chip": "ym2612"
    },
    {
      "channel": 2,
      "note": 97,
      "start": 26.0138,
      "duration": 0.0167,
      "velocity": 94,
      "chip": "ym2612"
    },
    {
      "channel": 2,
      "note": 100,
      "start": 26.0313,
      "duration": 0.0178,
      "velocity": 94,
      "chip": "ym2612"
    },
    {
      "channel": 2,
      "note": 105,
      "start": 26.0497,
      "duration": 0.0488,
      "velocity": 94,
      "chip": "ym2612"
    },
    {
      "channel": 1,
      "note": 57,
      "start": 26.0984,
      "duration": 0.0546,
      "velocity": 90,
      "chip": "ym2612"
    },
    {
      "channel": 2,
      "note": 100,
      "start": 26.0992,
      "duration": 0.0178,
      "velocity": 94,
      "chip": "ym2612"
    },
    {
      "channel": 2,
      "note": 105,
      "start": 26.1179,
      "duration": 0.0169,
      "velocity": 94,
      "chip": "ym2612"
    },
    {
      "channel": 2,
      "note": 109,
      "start": 26.1354,
      "duration": 0.0184,
      "velocity": 94,
      "chip": "ym2612"
    },
    {
      "channel": 1,
      "note": 57,
      "start": 26.1536,
      "duration": 0.1113,
      "velocity": 90,
      "chip": "ym2612"
    },
    {
      "channel": 2,
      "note": 112,
      "start": 26.155,
      "duration": 0.017,
      "velocity": 94,
      "chip": "ym2612"
    },
    {
      "channel": 2,
      "note": 109,
      "start": 26.1727,
      "duration": 0.0338,
      "velocity": 94,
      "chip": "ym2612"
    },
    {
      "channel": 2,
      "note": 105,
      "start": 26.2078,
      "duration": 0.0579,
      "velocity": 94,
      "chip": "ym2612"
    },
    {
      "channel": 1,
      "note": 61,
      "start": 26.2655,
      "duration": 0.0855,
      "velocity": 90,
      "chip": "ym2612"
    },
    {
      "channel": 2,
      "note": 109,
      "start": 26.2663,
      "duration": 0.0172,
      "velocity": 94,
      "chip": "ym2612"
    },
    {
      "channel": 2,
      "note": 105,
      "start": 26.2843,
      "duration": 0.0187,
      "velocity": 94,
      "chip": "ym2612"
    },
    {
      "channel": 2,
      "note": 100,
      "start": 26.3036,
      "duration": 0.0481,
      "velocity": 94,
      "chip": "ym2612"
    },
    {
      "channel": 0,
      "note": 81,
      "start": 26.3507,
      "duration": 0.1744,
      "velocity": 103,
      "chip": "ym2612"
    },
    {
      "channel": 1,
      "note": 61,
      "start": 26.3515,
      "duration": 0.1744,
      "velocity": 90,
      "chip": "ym2612"
    },
    {
      "channel": 2,
      "note": 105,
      "start": 26.3523,
      "duration": 0.0564,
      "velocity": 94,
      "chip": "ym2612"
    },
    {
      "channel": 3,
      "note": 61,
      "start": 26.3531,
      "duration": 0.1744,
      "velocity": 104,
      "chip": "ym2612"
    },
    {
      "channel": 2,
      "note": 100,
      "start": 26.4095,
      "duration": 0.0583,
      "velocity": 94,
      "chip": "ym2612"
    },
    {
      "channel": 2,
      "note": 97,
      "start": 26.4684,
      "duration": 0.0583,
      "velocity": 94,
      "chip": "ym2612"
    },
    {
      "channel": 0,
      "note": 83,
      "start": 26.5258,
      "duration": 0.0484,
      "velocity": 103,
      "chip": "ym2612"
    },
    {
      "channel": 1,
      "note": 57,
      "start": 26.5265,
      "duration": 0.0485,
      "velocity": 90,
      "chip": "ym2612"
    },
    {
      "channel": 2,
      "note": 100,
      "start": 26.5273,
      "duration": 0.0151,
      "velocity": 94,
      "chip": "ym2612"
    },
    {
      "channel": 4,
      "note": 81,
      "start": 26.5285,
      "duration": 0.0489,
      "velocity": 103,
      "chip": "ym2612"
    },
    {
      "channel": 2,
      "note": 97,
      "start": 26.5432,
      "duration": 0.0147,
      "velocity": 94,
      "chip": "ym2612"
    },
    {
      "channel": 2,
      "note": 93,
      "start": 26.5585,
      "duration": 0.0173,
      "velocity": 94,
      "chip": "ym2612"
    },
    {
      "channel": 0,
      "note": 85,
      "start": 26.5749,
      "duration": 0.3985,
      "velocity": 103,
      "chip": "ym2612"
    },
    {
      "channel": 1,
      "note": 66,
      "start": 26.5756,
      "duration": 0.2599,
      "velocity": 90,
      "chip": "ym2612"
    },
    {
      "channel": 2,
      "note": 88,
      "start": 26.5764,
      "duration": 0.0189,
      "velocity": 94,
      "chip": "ym2612"
    },
    {
      "channel": 3,
      "note": 73,
      "start": 26.5773,
      "duration": 0.598,
      "velocity": 104,
      "chip": "ym2612"
    },
    {
      "channel": 4,
      "note": 83,
      "start": 26.5781,
      "duration": 0.0838,
      "velocity": 103,
      "chip": "ym2612"
    },
    {
      "channel": 2,
      "note": 93,
      "start": 26.5961,
      "duration": 0.0171,
      "velocity": 94,
      "chip": "ym2612"
    },
    {
      "channel": 2,
      "note": 97,
      "start": 26.6138,
      "duration": 0.0466,
      "velocity": 94,
      "chip": "ym2612"
    },
    {
      "channel": 2,
      "note": 93,
      "start": 26.6611,
      "duration": 0.0576,
      "velocity": 94,
      "chip": "ym2612"
    },
    {
      "channel": 4,
      "note": 85,
      "start": 26.6626,
      "duration": 0.4276,
      "velocity": 103,
      "chip": "ym2612"
    },
    {
      "channel": 2,
      "note": 97,
      "start": 26.7195,
      "duration": 0.0578,
      "velocity": 94,
      "chip": "ym2612"
    },
    {
      "channel": 2,
      "note": 100,
      "start": 26.7778,
      "duration": 0.0589,
      "velocity": 94,
      "chip": "ym2612"
    },
    {
      "channel": 1,
      "note": 66,
      "start": 26.8366,
      "duration": 0.0843,
      "velocity": 90,
      "chip": "ym2612"
    },
    {
      "channel": 2,
      "note": 97,
      "start": 26.8374,
      "duration": 0.0177,
      "velocity": 94,
      "chip": "ym2612"
    },
    {
      "channel": 2,
      "note": 100,
      "start": 26.8559,
      "duration": 0.0162,
      "velocity": 94,
      "chip": "ym2612"
    },
    {
      "channel": 2,
      "note": 105,
      "start": 26.8728,
      "duration": 0.0488,
      "velocity": 94,
      "chip": "ym2612"
    },
    {
      "channel": 1,
      "note": 61,
      "start": 26.9214,
      "duration": 0.0529,
      "velocity": 90,
      "chip": "ym2612"
    },
    {
      "channel": 2,
      "note": 100,
      "start": 26.9222,
      "duration": 0.0163,
      "velocity": 94,
      "chip": "ym2612"
    },
    {
      "channel": 2,
      "note": 105,
      "start": 26.9393,
      "duration": 0.0176,
      "velocity": 94,
      "chip": "ym2612"
    },
    {
      "channel": 2,
      "note": 109,
      "start": 26.9576,
      "duration": 0.0175,
      "velocity": 94,
      "chip": "ym2612"
    },
    {
      "channel": 0,
      "note": 86,
      "start": 26.9741,
      "duration": 0.1132,
      "velocity": 103,
      "chip": "ym2612"
    },
    {
      "channel": 1,
      "note": 61,
      "start": 26.9749,
      "duration": 0.1133,
      "velocity": 90,
      "chip": "ym2612"
    },
    {
      "channel": 2,
      "note": 112,
      "start": 26.9757,
      "duration": 0.0172,
      "velocity": 94,
      "chip": "ym2612"
    },
    {
      "channel": 2,
      "note": 109,
      "start": 26.9937,
      "duration": 0.0357,
      "velocity": 94,
      "chip": "ym2612"
    },
    {
      "channel": 2,
      "note": 105,
      "start": 27.03,
      "duration": 0.0589,
      "velocity": 94,
      "chip": "ym2612"
    },
    {
      "channel": 0,
      "note": 88,
      "start": 27.088,
      "duration": 0.085,
      "velocity": 103,
      "chip": "ym2612"
    },
    {
      "channel": 1,
      "note": 57,
      "start": 27.0888,
      "duration": 0.085,
      "velocity": 90,
      "chip": "ym2612"
    },
    {
      "channel": 2,
      "note": 109,
      "start": 27.0895,
      "duration": 0.0169,
      "velocity": 94,
      "chip": "ym2612"
    },
    {
      "channel": 4,
      "note": 86,
      "start": 27.0909,
      "duration": 0.0853,
      "velocity": 103,
      "chip": "ym2612"
    },
    {
      "channel": 2,
      "note": 105,
      "start": 27.1073,
      "duration": 0.0171,
      "velocity": 94,
      "chip": "ym2612"
    },
    {
      "channel": 2,
      "note": 100,
      "start": 27.1249,
      "duration": 0.0496,
      "velocity": 94,
      "chip": "ym2612"
    },
    {
      "channel": 0,
      "note": 86,
      "start": 27.1737,
      "duration": 0.1749,
      "velocity": 103,
      "chip": "ym2612"
    },
    {
      "channel": 1,
      "note": 57,
      "start": 27.1744,
      "duration": 0.175,
      "velocity": 90,
      "chip": "ym2612"
    },
    {
      "channel": 2,
      "note": 105,
      "start": 27.1752,
      "duration": 0.0569,
      "velocity": 94,
      "chip": "ym2612"
    },
    {
      "channel": 3,
      "note": 61,
      "start": 27.176,
      "duration": 0.1749,
      "velocity": 104,
      "chip": "ym2612"
    },
    {
      "channel": 4,
      "note": 88,
      "start": 27.1768,
      "duration": 0.1744,
      "velocity": 103,
      "chip": "ym2612"
    },
    {
      "channel": 2,
      "note": 100,
      "start": 27.2329,
      "duration": 0.0577,
      "velocity": 94,
      "chip": "ym2612"
    },
    {
      "channel": 2,
      "note": 97,
      "start": 27.2912,
      "duration": 0.0589,
      "velocity": 94,
      "chip": "ym2612"
    },
    {
      "channel": 0,
      "note": 85,
      "start": 27.3492,
      "duration": 0.0474,
      "velocity": 103,
      "chip": "ym2612"
    },
    {
      "channel": 1,
      "note": 54,
      "start": 27.3499,
      "duration": 0.0475,
      "velocity": 90,
      "chip": "ym2612"
    },
    {
      "channel": 2,
      "note": 100,
      "start": 27.3508,
      "duration": 0.0153,
      "velocity": 94,
      "chip": "ym2612"
    },
    {
      "channel": 4,
      "note": 86,
      "start": 27.3525,
      "duration": 0.0473,
      "velocity": 103,
      "chip": "ym2612"
    },
    {
      "channel": 2,
      "note": 97,
      "start": 27.3669,
      "duration": 0.0148,
      "velocity": 94,
      "chip": "ym2612"
    },
    {
      "channel": 2,
      "note": 93,
      "start": 27.3824,
      "duration": 0.0158,
      "velocity": 94,
      "chip": "ym2612"
    },
    {
      "channel": 0,
      "note": 86,
      "start": 27.3973,
      "duration": 0.5143,
      "velocity": 103,
      "chip": "ym2612"
    },
    {
      "channel": 1,
      "note": 55,
      "start": 27.398,
      "duration": 0.2606,
      "velocity": 90,
      "chip": "ym2612"
    },
    {
      "channel": 2,
      "note": 86,
      "start": 27.3988,
      "duration": 0.0196,
      "velocity": 94,
      "chip": "ym2612"
    },
    {
      "channel": 3,
      "note": 66,
      "start": 27.3996,
      "duration": 0.5992,
      "velocity": 104,
      "chip": "ym2612"
    },
    {
      "channel": 4,
      "note": 85,
      "start": 27.4004,
      "duration": 0.0853,
      "velocity": 103,
      "chip": "ym2612"
    },
    {
      "channel": 2,
      "note": 90,
      "start": 27.4191,
      "duration": 0.0171,
      "velocity": 94,
      "chip": "ym2612"
    },
    {
      "channel": 2,
      "note": 95,
      "start": 27.4369,
      "duration": 0.0468,
      "velocity": 94,
      "chip": "ym2612"
    },
    {
      "channel": 2,
      "note": 90,
      "start": 27.4843,
      "duration": 0.0574,
      "velocity": 94,
      "chip": "ym2612"
    },
    {
      "channel": 4,
      "note": 86,
      "start": 27.4864,
      "duration": 0.5132,
      "velocity": 103,
      "chip": "ym2612"
    },
    {
      "channel": 2,
      "note": 95,
      "start": 27.5425,
      "duration": 0.0578,
      "velocity": 94,
      "chip": "ym2612"
    },
    {
      "channel": 2,
      "note": 98,
      "start": 27.6009,
      "duration": 0.0584,
      "velocity": 94,
      "chip": "ym2612"
    },
    {
      "channel": 1,
      "note": 55,
      "start": 27.6591,
      "duration": 0.0846,
      "velocity": 90,
      "chip": "ym2612"
    },
    {
      "channel": 2,
      "note": 95,
      "start": 27.6599,
      "duration": 0.0164,
      "velocity": 94,
      "chip": "ym2612"
    },
    {
      "channel": 2,
      "note": 98,
      "start": 27.6778,
      "duration": 0.0178,
      "velocity": 94,
      "chip": "ym2612"
    },
    {
      "channel": 2,
      "note": 102,
      "start": 27.6962,
      "duration": 0.0489,
      "velocity": 94,
      "chip": "ym2612"
    },
    {
      "channel": 1,
      "note": 59,
      "start": 27.7449,
      "duration": 0.0552,
      "velocity": 90,
      "chip": "ym2612"
    },
    {
      "channel": 2,
      "note": 98,
      "start": 27.7456,
      "duration": 0.018,
      "velocity": 94,
      "chip": "ym2612"
    },
    {
      "channel": 2,
      "note": 102,
      "start": 27.7644,
      "duration": 0.017,
      "velocity": 94,
      "chip": "ym2612"
    },
    {
      "channel": 2,
      "note": 107,
      "start": 27.782,
      "duration": 0.0187,
      "velocity": 94,
      "chip": "ym2612"
    },
    {
      "channel": 1,
      "note": 59,
      "start": 27.8006,
      "duration": 0.1118,
      "velocity": 90,
      "chip": "ym2612"
    },
    {
      "channel": 2,
      "note": 110,
      "start": 27.8014,
      "duration": 0.017,
      "velocity": 94,
      "chip": "ym2612"
    },
    {
      "channel": 2,
      "note": 107,
      "start": 27.8191,
      "duration": 0.034,
      "velocity": 94,
      "chip": "ym2612"
    },
    {
      "channel": 2,
      "note": 102,
      "start": 27.8538,
      "duration": 0.0593,
      "velocity": 94,
      "chip": "ym2612"
    },
    {
      "channel": 0,
      "note": 78,
      "start": 27.9122,
      "duration": 0.0843,
      "velocity": 103,
      "chip": "ym2612"
    },
    {
      "channel": 1,
      "note": 62,
      "start": 27.9129,
      "duration": 0.0844,
      "velocity": 90,
      "chip": "ym2612"
    },
    {
      "channel": 2,
      "note": 107,
      "start": 27.9137,
      "duration": 0.0175,
      "velocity": 94,
      "chip": "ym2612"
    },
    {
      "channel": 2,
      "note": 102,
      "start": 27.932,
      "duration": 0.0175,
      "velocity": 94,
      "chip": "ym2612"
    },
    {
      "channel": 2,
      "note": 98,
      "start": 27.9502,
      "duration": 0.0479,
      "velocity": 94,
      "chip": "ym2612"
    },
    {
      "channel": 0,
      "note": 83,
      "start": 27.9972,
      "duration": 0.1749,
      "velocity": 103,
      "chip": "ym2612"
    },
    {
      "channel": 1,
      "note": 62,
      "start": 27.9979,
      "duration": 0.175,
      "velocity": 90,
      "chip": "ym2612"
    },
    {
      "channel": 2,
      "note": 102,
      "start": 27.9987,
      "duration": 0.0569,
      "velocity": 94,
      "chip": "ym2612"
    },
    {
      "channel": 3,
      "note": 66,
      "start": 27.9995,
      "duration": 0.1749,
      "velocity": 104,
      "chip": "ym2612"
    },
    {
      "channel": 4,
      "note": 78,
      "start": 28.0003,
      "duration": 0.1744,
      "velocity": 103,
      "chip": "ym2612"
    },
    {
      "channel": 2,
      "note": 98,
      "start": 28.0564,
      "duration": 0.0578,
      "velocity": 94,
      "chip": "ym2612"
    },
    {
      "channel": 2,
      "note": 95,
      "start": 28.1148,
      "duration": 0.0589,
      "velocity": 94,
      "chip": "ym2612"
    },
    {
      "channel": 0,
      "note": 85,
      "start": 28.1728,
      "duration": 0.0496,
      "velocity": 103,
      "chip": "ym2612"
    },
    {
      "channel": 1,
      "note": 59,
      "start": 28.1735,
      "duration": 0.0497,
      "velocity": 90,
      "chip": "ym2612"
    },
    {
      "channel": 2,
      "note": 98,
      "start": 28.1743,
      "duration": 0.016,
      "velocity": 94,
      "chip": "ym2612"
    },
    {
      "channel": 4,
      "note": 83,
      "start": 28.1755,
      "duration": 0.0501,
      "velocity": 103,
      "chip": "ym2612"
    },
    {
      "channel": 2,
      "note": 95,
      "start": 28.1911,
      "duration": 0.0142,
      "velocity": 94,
      "chip": "ym2612"
    },
    {
      "channel": 2,
      "note": 90,
      "start": 28.2064,
      "duration": 0.0176,
      "velocity": 94,
      "chip": "ym2612"
    },
    {
      "channel": 0,
      "note": 86,
      "start": 28.2231,
      "duration": 0.4001,
      "velocity": 103,
      "chip": "ym2612"
    },
    {
      "channel": 1,
      "note": 67,
      "start": 28.2238,
      "duration": 0.2597,
      "velocity": 90,
      "chip": "ym2612"
    },
    {
      "channel": 2,
      "note": 90,
      "start": 28.2245,
      "duration": 0.0181,
      "velocity": 94,
      "chip": "ym2612"
    },
    {
      "channel": 3,
      "note": 71,
      "start": 28.2254,
      "duration": 0.5979,
      "velocity": 104,
      "chip": "ym2612"
    },
    {
      "channel": 4,
      "note": 85,
      "start": 28.2263,
      "duration": 0.0836,
      "velocity": 103,
      "chip": "ym2612"
    },
    {
      "channel": 2,
      "note": 95,
      "start": 28.2434,
      "duration": 0.0181,
      "velocity": 94,
      "chip": "ym2612"
    },
    {
      "channel": 2,
      "note": 98,
      "start": 28.2622,
      "duration": 0.0462,
      "velocity": 94,
      "chip": "ym2612"
    },
    {
      "channel": 2,
      "note": 95,
      "start": 28.309,
      "duration": 0.0576,
      "velocity": 94,
      "chip": "ym2612"
    },
    {
      "channel": 4,
      "note": 86,
      "start": 28.3105,
      "duration": 0.4284,
      "velocity": 103,
      "chip": "ym2612"
    },
    {
      "channel": 2,
      "note": 98,
      "start": 28.3674,
      "duration": 0.0577,
      "velocity": 94,
      "chip": "ym2612"
    },
    {
      "channel": 2,
      "note": 102,
      "start": 28.4258,
      "duration": 0.0585,
      "velocity": 94,
      "chip": "ym2612"
    },
    {
      "channel": 1,
      "note": 67,
      "start": 28.484,
      "duration": 0.0842,
      "velocity": 90,
      "chip": "ym2612"
    },
    {
      "channel": 2,
      "note": 98,
      "start": 28.4849,
      "duration": 0.016,
      "velocity": 94,
      "chip": "ym2612"
    },
    {
      "channel": 2,
      "note": 102,
      "start": 28.5017,
      "duration": 0.0173,
      "velocity": 94,
      "chip": "ym2612"
    },
    {
      "channel": 2,
      "note": 107,
      "start": 28.5196,
      "duration": 0.0493,
      "velocity": 94,
      "chip": "ym2612"
    },
    {
      "channel": 1,
      "note": 62,
      "start": 28.5688,
      "duration": 0.0553,
      "velocity": 90,
      "chip": "ym2612"
    },
    {
      "channel": 2,
      "note": 102,
      "start": 28.5696,
      "duration": 0.0174,
      "velocity": 94,
      "chip": "ym2612"
    },
    {
      "channel": 2,
      "note": 107,
      "start": 28.5878,
      "duration": 0.018,
      "velocity": 94,
      "chip": "ym2612"
    },
    {
      "channel": 2,
      "note": 110,
      "start": 28.6065,
      "duration": 0.0183,
      "velocity": 94,
      "chip": "ym2612"
    },
    {
      "channel": 0,
      "note": 88,
      "start": 28.6239,
      "duration": 0.1118,
      "velocity": 103,
      "chip": "ym2612"
    },
    {
      "channel": 1,
      "note": 62,
      "start": 28.6246,
      "duration": 0.1124,
      "velocity": 90,
      "chip": "ym2612"
    },
    {
      "channel": 2,
      "note": 114,
      "start": 28.6254,
      "duration": 0.0177,
      "velocity": 94,
      "chip": "ym2612"
    },
    {
      "channel": 2,
      "note": 110,
      "start": 28.6439,
      "duration": 0.0339,
      "velocity": 94,
      "chip": "ym2612"
    },
    {
      "channel": 2,
      "note": 107,
      "start": 28.6784,
      "duration": 0.0593,
      "velocity": 94,
      "chip": "ym2612"
    },
    {
      "channel": 0,
      "note": 90,
      "start": 28.7369,
      "duration": 0.0836,
      "velocity": 103,
      "chip": "ym2612"
    },
    {
      "channel": 1,
      "note": 59,
      "start": 28.7376,
      "duration": 0.0837,
      "velocity": 90,
      "chip": "ym2612"
    },
    {
      "channel": 2,
      "note": 110,
      "start": 28.7384,
      "duration": 0.0169,
      "velocity": 94,
      "chip": "ym2612"
    },
    {
      "channel": 4,
      "note": 88,
      "start": 28.7397,
      "duration": 0.0846,
      "velocity": 103,
      "chip": "ym2612"
    },
    {
      "channel": 2,
      "note": 107,
      "start": 28.7561,
      "duration": 0.0165,
      "velocity": 94,
      "chip": "ym2612"
    },
    {
      "channel": 2,
      "note": 102,
      "start": 28.7732,
      "duration": 0.0488,
      "velocity": 94,
      "chip": "ym2612"
    },
    {
      "channel": 0,
      "note": 88,
      "start": 28.8212,
      "duration": 0.0552,
      "velocity": 103,
      "chip": "ym2612"
    },
    {
      "channel": 1,
      "note": 59,
      "start": 28.8219,
      "duration": 0.0552,
      "velocity": 90,
      "chip": "ym2612"
    },
    {
      "channel": 2,
      "note": 107,
      "start": 28.8229,
      "duration": 0.0176,
      "velocity": 94,
      "chip": "ym2612"
    },
    {
      "channel": 3,
      "note": 66,
      "start": 28.8241,
      "duration": 0.0546,
      "velocity": 104,
      "chip": "ym2612"
    },
    {
      "channel": 4,
      "note": 90,
      "start": 28.8249,
      "duration": 0.0541,
      "velocity": 103,
      "chip": "ym2612"
    },
    {
      "channel": 2,
      "note": 102,
      "start": 28.8413,
      "duration": 0.0175,
      "velocity": 94,
      "chip": "ym2612"
    },
    {
      "channel": 2,
      "note": 98,
      "start": 28.8595,
      "duration": 0.0184,
      "velocity": 94,
      "chip": "ym2612"
    },
    {
      "channel": 0,
      "note": 86,
      "start": 28.877,
      "duration": 0.0483,
      "velocity": 103,
      "chip": "ym2612"
    },
    {
      "channel": 1,
      "note": 55,
      "start": 28.8777,
      "duration": 0.0484,
      "velocity": 90,
      "chip": "ym2612"
    },
    {
      "channel": 2,
      "note": 102,
      "start": 28.8785,
      "duration": 0.0162,
      "velocity": 94,
      "chip": "ym2612"
    },
    {
      "channel": 4,
      "note": 88,
      "start": 28.8796,
      "duration": 0.0494,
      "velocity": 103,
      "chip": "ym2612"
    },
    {
      "channel": 2,
      "note": 98,
      "start": 28.8955,
      "duration": 0.0147,
      "velocity": 94,
      "chip": "ym2612"
    },
    {
      "channel": 2,
      "note": 95,
      "start": 28.9109,
      "duration": 0.0166,
      "velocity": 94,
      "chip": "ym2612"
    },
    {
      "channel": 0,
      "note": 88,
      "start": 28.926,
      "duration": 0.5666,
      "velocity": 103,
      "chip": "ym2612"
    },
    {
      "channel": 1,
      "note": 60,
      "start": 28.9273,
      "duration": 0.2602,
      "velocity": 90,
      "chip": "ym2612"
    },
    {
      "channel": 2,
      "note": 88,
      "start": 28.928,
      "duration": 0.019,
      "velocity": 94,
      "chip": "ym2612"
    },
    {
      "channel": 3,
      "note": 76,
      "start": 28.9289,
      "duration": 0.5661,
      "velocity": 104,
      "chip": "ym2612"
    },
    {
      "channel": 4,
      "note": 86,
      "start": 28.9302,
      "duration": 0.0832,
      "velocity": 103,
      "chip": "ym2612"
    },
    {
      "channel": 2,
      "note": 91,
      "start": 28.9479,
      "duration": 0.0169,
      "velocity": 94,
      "chip": "ym2612"
    },
    {
      "channel": 2,
      "note": 95,
      "start": 28.9655,
      "duration": 0.0465,
      "velocity": 94,
      "chip": "ym2612"
    },
    {
      "channel": 2,
      "note": 91,
      "start": 29.0126,
      "duration": 0.0579,
      "velocity": 94,
      "chip": "ym2612"
    },
    {
      "channel": 4,
      "note": 88,
      "start": 29.0141,
      "duration": 0.5373,
      "velocity": 103,
      "chip": "ym2612"
    },
    {
      "channel": 2,
      "note": 95,
      "start": 29.0714,
      "duration": 0.0572,
      "velocity": 94,
      "chip": "ym2612"
    },
    {
      "channel": 2,
      "note": 100,
      "start": 29.1292,
      "duration": 0.059,
      "velocity": 94,
      "chip": "ym2612"
    },
    {
      "channel": 1,
      "note": 60,
      "start": 29.188,
      "duration": 0.0844,
      "velocity": 90,
      "chip": "ym2612"
    },
    {
      "channel": 2,
      "note": 95,
      "start": 29.1888,
      "duration": 0.0178,
      "velocity": 94,
      "chip": "ym2612"
    },
    {
      "channel": 2,
      "note": 100,
      "start": 29.2073,
      "duration": 0.017,
      "velocity": 94,
      "chip": "ym2612"
    },
    {
      "channel": 2,
      "note": 103,
      "start": 29.2249,
      "duration": 0.0483,
      "velocity": 94,
      "chip": "ym2612"
    },
    {
      "channel": 1,
      "note": 67,
      "start": 29.2731,
      "duration": 0.0535,
      "velocity": 90,
      "chip": "ym2612"
    },
    {
      "channel": 2,
      "note": 100,
      "start": 29.2739,
      "duration": 0.0173,
      "velocity": 94,
      "chip": "ym2612"
    },
    {
      "channel": 2,
      "note": 103,
      "start": 29.292,
      "duration": 0.0175,
      "velocity": 94,
      "chip": "ym2612"
    },
    {
      "channel": 2,
      "note": 107,
      "start": 29.3102,
      "duration": 0.0171,
      "velocity": 94,
      "chip": "ym2612"
    },
    {
      "channel": 1,
      "note": 67,
      "start": 29.3271,
      "duration": 0.1123,
      "velocity": 90,
      "chip": "ym2612"
    },
    {
      "channel": 2,
      "note": 112,
      "start": 29.328,
      "duration": 0.0176,
      "velocity": 94,
      "chip": "ym2612"
    },
    {
      "channel": 2,
      "note": 107,
      "start": 29.3463,
      "duration": 0.0348,
      "velocity": 94,
      "chip": "ym2612"
    },
    {
      "channel": 2,
      "note": 103,
      "start": 29.3817,
      "duration": 0.0585,
      "velocity": 94,
      "chip": "ym2612"
    },
    {
      "channel": 1,
      "note": 72,
      "start": 29.44,
      "duration": 0.0535,
      "velocity": 90,
      "chip": "ym2612"
    },
    {
      "channel": 2,
      "note": 107,
      "start": 29.4408,
      "duration": 0.0166,
      "velocity": 94,
      "chip": "ym2612"
    },
    {
      "channel": 2,
      "note": 103,
      "start": 29.4582,
      "duration": 0.0179,
      "velocity": 94,
      "chip": "ym2612"
    },
    {
      "channel": 2,
      "note": 100,
      "start": 29.4767,
      "duration": 0.0175,
      "velocity": 94,
      "chip": "ym2612"
    },
    {
      "channel": 0,
      "note": 84,
      "start": 29.4933,
      "duration": 0.0554,
      "velocity": 103,
      "chip": "ym2612"
    },
    {
      "channel": 1,
      "note": 72,
      "start": 29.4941,
      "duration": 0.0555,
      "velocity": 90,
      "chip": "ym2612"
    },
    {
      "channel": 2,
      "note": 103,
      "start": 29.4949,
      "duration": 0.0188,
      "velocity": 94,
      "chip": "ym2612"
    },
    {
      "channel": 3,
      "note": 76,
      "start": 29.4957,
      "duration": 0.0554,
      "velocity": 104,
      "chip": "ym2612"
    },
    {
      "channel": 2,
      "note": 100,
      "start": 29.5144,
      "duration": 0.0164,
      "velocity": 94,
      "chip": "ym2612"
    },
    {
      "channel": 2,
      "note": 95,
      "start": 29.5315,
      "duration": 0.0188,
      "velocity": 94,
      "chip": "ym2612"
    },
    {
      "channel": 0,
      "note": 86,
      "start": 29.5495,
      "duration": 0.0467,
      "velocity": 103,
      "chip": "ym2612"
    },
    {
      "channel": 1,
      "note": 60,
      "start": 29.5501,
      "duration": 0.0469,
      "velocity": 90,
      "chip": "ym2612"
    },
    {
      "channel": 2,
      "note": 100,
      "start": 29.5509,
      "duration": 0.0149,
      "velocity": 94,
      "chip": "ym2612"
    },
    {
      "channel": 4,
      "note": 84,
      "start": 29.5521,
      "duration": 0.0473,
      "velocity": 103,
      "chip": "ym2612"
    },
    {
      "channel": 2,
      "note": 95,
      "start": 29.5666,
      "duration": 0.0153,
      "velocity": 94,
      "chip": "ym2612"
    },
    {
      "channel": 2,
      "note": 91,
      "start": 29.5825,
      "duration": 0.0152,
      "velocity": 94,
      "chip": "ym2612"
    },
    {
      "channel": 0,
      "note": 88,
      "start": 29.5969,
      "duration": 0.5975,
      "velocity": 103,
      "chip": "ym2612"
    },
    {
      "channel": 1,
      "note": 53,
      "start": 29.5976,
      "duration": 0.2591,
      "velocity": 90,
      "chip": "ym2612"
    },
    {
      "channel": 2,
      "note": 88,
      "start": 29.5984,
      "duration": 0.0184,
      "velocity": 94,
      "chip": "ym2612"
    },
    {
      "channel": 3,
      "note": 76,
      "start": 29.5992,
      "duration": 0.5975,
      "velocity": 104,
      "chip": "ym2612"
    },
    {
      "channel": 4,
      "note": 86,
      "start": 29.6,
      "duration": 0.0831,
      "velocity": 103,
      "chip": "ym2612"
    },
    {
      "channel": 2,
      "note": 93,
      "start": 29.6177,
      "duration": 0.0171,
      "velocity": 94,
      "chip": "ym2612"
    },
    {
      "channel": 2,
      "note": 96,
      "start": 29.6354,
      "duration": 0.0462,
      "velocity": 94,
      "chip": "ym2612"
    },
    {
      "channel": 2,
      "note": 93,
      "start": 29.6822,
      "duration": 0.0576,
      "velocity": 94,
      "chip": "ym2612"
    },
    {
      "channel": 4,
      "note": 88,
      "start": 29.6838,
      "duration": 0.57,
      "velocity": 103,
      "chip": "ym2612"
    },
    {
      "channel": 2,
      "note": 96,
      "start": 29.7406,
      "duration": 0.0578,
      "velocity": 94,
      "chip": "ym2612"
    },
    {
      "channel": 2,
      "note": 100,
      "start": 29.799,
      "duration": 0.0584,
      "velocity": 94,
      "chip": "ym2612"
    },
    {
      "channel": 1,
      "note": 53,
      "start": 29.8573,
      "duration": 0.0846,
      "velocity": 90,
      "chip": "ym2612"
    },
    {
      "channel": 2,
      "note": 96,
      "start": 29.858,
      "duration": 0.0168,
      "velocity": 94,
      "chip": "ym2612"
    },
    {
      "channel": 2,
      "note": 100,
      "start": 29.8756,
      "duration": 0.0181,
      "velocity": 94,
      "chip": "ym2612"
    },
    {
      "channel": 2,
      "note": 105,
      "start": 29.8944,
      "duration": 0.0483,
      "velocity": 94,
      "chip": "ym2612"
    },
    {
      "channel": 1,
      "note": 60,
      "start": 29.9425,
      "duration": 0.054,
      "velocity": 90,
      "chip": "ym2612"
    },
    {
      "channel": 2,
      "note": 100,
      "start": 29.9433,
      "duration": 0.017,
      "velocity": 94,
      "chip": "ym2612"
    },
    {
      "channel": 2,
      "note": 105,
      "start": 29.9611,
      "duration": 0.0179,
      "velocity": 94,
      "chip": "ym2612"
    },
    {
      "channel": 2,
      "note": 108,
      "start": 29.9796,
      "duration": 0.0178,
      "velocity": 94,
      "chip": "ym2612"
    },
    {
      "channel": 1,
      "note": 60,
      "start": 29.9971,
      "duration": 0.1117,
      "velocity": 90,
      "chip": "ym2612"
    },
    {
      "channel": 2,
      "note": 112,
      "start": 29.998,
      "duration": 0.0179,
      "velocity": 94,
      "chip": "ym2612"
    },
    {
      "channel": 2,
      "note": 108,
      "start": 30.0166,
      "duration": 0.0339,
      "velocity": 94,
      "chip": "ym2612"
    },
    {
      "channel": 2,
      "note": 105,
      "start": 30.0512,
      "duration": 0.0585,
      "velocity": 94,
      "chip": "ym2612"
    },
    {
      "channel": 1,
      "note": 65,
      "start": 30.1094,
      "duration": 0.0859,
      "velocity": 90,
      "chip": "ym2612"
    },
    {
      "channel": 2,
      "note": 108,
      "start": 30.1108,
      "duration": 0.0175,
      "velocity": 94,
      "chip": "ym2612"
    },
    {
      "channel": 2,
      "note": 105,
      "start": 30.1292,
      "duration": 0.017,
      "velocity": 94,
      "chip": "ym2612"
    },
    {
      "channel": 2,
      "note": 100,
      "start": 30.1474,
      "duration": 0.0486,
      "velocity": 94,
      "chip": "ym2612"
    },
    {
      "channel": 0,
      "note": 84,
      "start": 30.1951,
      "duration": 0.0554,
      "velocity": 103,
      "chip": "ym2612"
    },
    {
      "channel": 1,
      "note": 65,
      "start": 30.1959,
      "duration": 0.056,
      "velocity": 90,
      "chip": "ym2612"
    },
    {
      "channel": 2,
      "note": 105,
      "start": 30.1966,
      "duration": 0.0173,
      "velocity": 94,
      "chip": "ym2612"
    },
    {
      "channel": 3,
      "note": 72,
      "start": 30.1974,
      "duration": 0.0824,
      "velocity": 104,
      "chip": "ym2612"
    },
    {
      "channel": 2,
      "note": 100,
      "start": 30.2151,
      "duration": 0.0181,
      "velocity": 94,
      "chip": "ym2612"
    },
    {
      "channel": 2,
      "note": 96,
      "start": 30.2338,
      "duration": 0.0188,
      "velocity": 94,
      "chip": "ym2612"
    },
    {
      "channel": 0,
      "note": 86,
      "start": 30.2517,
      "duration": 0.0517,
      "velocity": 103,
      "chip": "ym2612"
    },
    {
      "channel": 1,
      "note": 53,
      "start": 30.2524,
      "duration": 0.0519,
      "velocity": 90,
      "chip": "ym2612"
    },
    {
      "channel": 2,
      "note": 100,
      "start": 30.2532,
      "duration": 0.0178,
      "velocity": 94,
      "chip": "ym2612"
    },
    {
      "channel": 4,
      "note": 84,
      "start": 30.2545,
      "duration": 0.0521,
      "velocity": 103,
      "chip": "ym2612"
    },
    {
      "channel": 2,
      "note": 96,
      "start": 30.2717,
      "duration": 0.0158,
      "velocity": 94,
      "chip": "ym2612"
    },
    {
      "channel": 2,
      "note": 93,
      "start": 30.2882,
      "duration": 0.0168,
      "velocity": 94,
      "chip": "ym2612"
    },
    {
      "channel": 0,
      "note": 88,
      "start": 30.3041,
      "duration": 0.5695,
      "velocity": 103,
      "chip": "ym2612"
    },
    {
      "channel": 1,
      "note": 50,
      "start": 30.3049,
      "duration": 0.2596,
      "velocity": 90,
      "chip": "ym2612"
    },
    {
      "channel": 2,
      "note": 88,
      "start": 30.3056,
      "duration": 0.0179,
      "velocity": 94,
      "chip": "ym2612"
    },
    {
      "channel": 3,
      "note": 76,
      "start": 30.3064,
      "duration": 0.681,
      "velocity": 104,
      "chip": "ym2612"
    },
    {
      "channel": 4,
      "note": 86,
      "start": 30.3073,
      "duration": 0.0841,
      "velocity": 103,
      "chip": "ym2612"
    },
    {
      "channel": 2,
      "note": 93,
      "start": 30.3243,
      "duration": 0.0173,
      "velocity": 94,
      "chip": "ym2612"
    },
    {
      "channel": 2,
      "note": 97,
      "start": 30.3422,
      "duration": 0.0477,
      "velocity": 94,
      "chip": "ym2612"
    },
    {
      "channel": 2,
      "note": 93,
      "start": 30.3905,
      "duration": 0.0571,
      "velocity": 94,
      "chip": "ym2612"
    },
    {
      "channel": 4,
      "note": 88,
      "start": 30.392,
      "duration": 0.5413,
      "velocity": 103,
      "chip": "ym2612"
    },
    {
      "channel": 2,
      "note": 97,
      "start": 30.4484,
      "duration": 0.0578,
      "velocity": 94,
      "chip": "ym2612"
    },
    {
      "channel": 2,
      "note": 100,
      "start": 30.5068,
      "duration": 0.0585,
      "velocity": 94,
      "chip": "ym2612"
    },
    {
      "channel": 1,
      "note": 50,
      "start": 30.5651,
      "duration": 0.0845,
      "velocity": 90,
      "chip": "ym2612"
    },
    {
      "channel": 2,
      "note": 97,
      "start": 30.5658,
      "duration": 0.0175,
      "velocity": 94,
      "chip": "ym2612"
    },
    {
      "channel": 2,
      "note": 100,
      "start": 30.5841,
      "duration": 0.0173,
      "velocity": 94,
      "chip": "ym2612"
    },
    {
      "channel": 2,
      "note": 105,
      "start": 30.602,
      "duration": 0.0487,
      "velocity": 94,
      "chip": "ym2612"
    },
    {
      "channel": 1,
      "note": 57,
      "start": 30.6506,
      "duration": 0.0554,
      "velocity": 90,
      "chip": "ym2612"
    },
    {
      "channel": 2,
      "note": 100,
      "start": 30.6514,
      "duration": 0.018,
      "velocity": 94,
      "chip": "ym2612"
    },
    {
      "channel": 2,
      "note": 105,
      "start": 30.6702,
      "duration": 0.0163,
      "velocity": 94,
      "chip": "ym2612"
    },
    {
      "channel": 2,
      "note": 109,
      "start": 30.6872,
      "duration": 0.0195,
      "velocity": 94,
      "chip": "ym2612"
    },
    {
      "channel": 1,
      "note": 57,
      "start": 30.7066,
      "duration": 0.111,
      "velocity": 90,
      "chip": "ym2612"
    },
    {
      "channel": 2,
      "note": 112,
      "start": 30.7074,
      "duration": 0.0164,
      "velocity": 94,
      "chip": "ym2612"
    },
    {
      "channel": 2,
      "note": 109,
      "start": 30.7245,
      "duration": 0.0347,
      "velocity": 94,
      "chip": "ym2612"
    },
    {
      "channel": 2,
      "note": 105,
      "start": 30.7599,
      "duration": 0.0584,
      "velocity": 94,
      "chip": "ym2612"
    },
    {
      "channel": 1,
      "note": 62,
      "start": 30.8181,
      "duration": 0.0563,
      "velocity": 90,
      "chip": "ym2612"
    },
    {
      "channel": 2,
      "note": 109,
      "start": 30.8189,
      "duration": 0.0188,
      "velocity": 94,
      "chip": "ym2612"
    },
    {
      "channel": 2,
      "note": 105,
      "start": 30.8385,
      "duration": 0.0169,
      "velocity": 94,
      "chip": "ym2612"
    },
    {
      "channel": 2,
      "note": 100,
      "start": 30.8561,
      "duration": 0.019,
      "velocity": 94,
      "chip": "ym2612"
    },
    {
      "channel": 0,
      "note": 85,
      "start": 30.8742,
      "duration": 0.0563,
      "velocity": 103,
      "chip": "ym2612"
    },
    {
      "channel": 1,
      "note": 62,
      "start": 30.8749,
      "duration": 0.0564,
      "velocity": 90,
      "chip": "ym2612"
    },
    {
      "channel": 2,
      "note": 105,
      "start": 30.8758,
      "duration": 0.0181,
      "velocity": 94,
      "chip": "ym2612"
    },
    {
      "channel": 2,
      "note": 100,
      "start": 30.8947,
      "duration": 0.0175,
      "velocity": 94,
      "chip": "ym2612"
    },
    {
      "channel": 2,
      "note": 97,
      "start": 30.9128,
      "duration": 0.0193,
      "velocity": 94,
      "chip": "ym2612"
    },
    {
      "channel": 0,
      "note": 81,
      "start": 30.9312,
      "duration": 0.0538,
      "velocity": 103,
      "chip": "ym2612"
    },
    {
      "channel": 1,
      "note": 57,
      "start": 30.932,
      "duration": 0.0539,
      "velocity": 90,
      "chip": "ym2612"
    },
    {
      "channel": 2,
      "note": 100,
      "start": 30.9327,
      "duration": 0.0176,
      "velocity": 94,
      "chip": "ym2612"
    },
    {
      "channel": 4,
      "note": 85,
      "start": 30.934,
      "duration": 0.0537,
      "velocity": 103,
      "chip": "ym2612"
    },
    {
      "channel": 2,
      "note": 97,
      "start": 30.951,
      "duration": 0.0175,
      "velocity": 94,
      "chip": "ym2612"
    },
    {
      "channel": 2,
      "note": 93,
      "start": 30.9691,
      "duration": 0.0175,
      "velocity": 94,
      "chip": "ym2612"
    },
    {
      "channel": 0,
      "note": 85,
      "start": 30.9858,
      "duration": 0.0505,
      "velocity": 103,
      "chip": "ym2612"
    },
    {
      "channel": 1,
      "note": 50,
      "start": 30.9865,
      "duration": 0.0507,
      "velocity": 90,
      "chip": "ym2612"
    },
    {
      "channel": 2,
      "note": 88,
      "start": 30.9872,
      "duration": 0.0165,
      "velocity": 94,
      "chip": "ym2612"
    },
    {
      "channel": 4,
      "note": 81,
      "start": 30.989,
      "duration": 0.0505,
      "velocity": 103,
      "chip": "ym2612"
    },
    {
      "channel": 2,
      "note": 93,
      "start": 31.005,
      "duration": 0.0149,
      "velocity": 94,
      "chip": "ym2612"
    },
    {
      "channel": 2,
      "note": 97,
      "start": 31.0205,
      "duration": 0.0174,
      "velocity": 94,
      "chip": "ym2612"
    },
    {
      "channel": 0,
      "note": 88,
      "start": 31.037,
      "duration": 0.0839,
      "velocity": 103,
      "chip": "ym2612"
    },
    {
      "channel": 1,
      "note": 59,
      "start": 31.0377,
      "duration": 0.1922,
      "velocity": 90,
      "chip": "ym2612"
    },
    {
      "channel": 2,
      "note": 88,
      "start": 31.0385,
      "duration": 0.0191,
      "velocity": 94,
      "chip": "ym2612"
    },
    {
      "channel": 3,
      "note": 73,
      "start": 31.0394,
      "duration": 0.1921,
      "velocity": 104,
      "chip": "ym2612"
    },
    {
      "channel": 4,
      "note": 85,
      "start": 31.0402,
      "duration": 0.0837,
      "velocity": 103,
      "chip": "ym2612"
    },
    {
      "channel": 2,
      "note": 93,
      "start": 31.0584,
      "duration": 0.0167,
      "velocity": 94,
      "chip": "ym2612"
    },
    {
      "channel": 2,
      "note": 97,
      "start": 31.0757,
      "duration": 0.0464,
      "velocity": 94,
      "chip": "ym2612"
    },
    {
      "channel": 0,
      "note": 85,
      "start": 31.1217,
      "duration": 0.0534,
      "velocity": 103,
      "chip": "ym2612"
    },
    {
      "channel": 2,
      "note": 93,
      "start": 31.1227,
      "duration": 0.0171,
      "velocity": 94,
      "chip": "ym2612"
    },
    {
      "channel": 4,
      "note": 88,
      "start": 31.1246,
      "duration": 0.0528,
      "velocity": 103,
      "chip": "ym2612"
    },
    {
      "channel": 2,
      "note": 97,
      "start": 31.1407,
      "duration": 0.0175,
      "velocity": 94,
      "chip": "ym2612"
    },
    {
      "channel": 2,
      "note": 100,
      "start": 31.1588,
      "duration": 0.0173,
      "velocity": 94,
      "chip": "ym2612"
    },
    {
      "channel": 0,
      "note": 81,
      "start": 31.1756,
      "duration": 0.0529,
      "velocity": 103,
      "chip": "ym2612"
    },
    {
      "channel": 2,
      "note": 100,
      "start": 31.1768,
      "duration": 0.0166,
      "velocity": 94,
      "chip": "ym2612"
    },
    {
      "channel": 4,
      "note": 85,
      "start": 31.1781,
      "duration": 0.0542,
      "velocity": 103,
      "chip": "ym2612"
    },
    {
      "channel": 2,
      "note": 105,
      "start": 31.1947,
      "duration": 0.0175,
      "velocity": 94,
      "chip": "ym2612"
    },
    {
      "channel": 2,
      "note": 100,
      "start": 31.2129,
      "duration": 0.0178,
      "velocity": 94,
      "chip": "ym2612"
    },
    {
      "channel": 0,
      "note": 90,
      "start": 31.2296,
      "duration": 0.9288,
      "velocity": 101,
      "chip": "ym2612"
    },
    {
      "channel": 1,
      "note": 61,
      "start": 31.2305,
      "duration": 0.4217,
      "velocity": 90,
      "chip": "ym2612"
    },
    {
      "channel": 2,
      "note": 83,
      "start": 31.2313,
      "duration": 0.0184,
      "velocity": 94,
      "chip": "ym2612"
    },
    {
      "channel": 3,
      "note": 78,
      "start": 31.2322,
      "duration": 0.8208,
      "velocity": 104,
      "chip": "ym2612"
    },
    {
      "channel": 4,
      "note": 81,
      "start": 31.233,
      "duration": 0.0533,
      "velocity": 103,
      "chip": "ym2612"
    },
    {
      "channel": 2,
      "note": 87,
      "start": 31.2505,
      "duration": 0.017,
      "velocity": 94,
      "chip": "ym2612"
    },
    {
      "channel": 2,
      "note": 90,
      "start": 31.2682,
      "duration": 0.0168,
      "velocity": 94,
      "chip": "ym2612"
    },
    {
      "channel": 2,
      "note": 87,
      "start": 31.2856,
      "duration": 0.017,
      "velocity": 94,
      "chip": "ym2612"
    },
    {
      "channel": 4,
      "note": 90,
      "start": 31.2869,
      "duration": 0.9726,
      "velocity": 101,
      "chip": "ym2612"
    },
    {
      "channel": 2,
      "note": 90,
      "start": 31.3034,
      "duration": 0.017,
      "velocity": 94,
      "chip": "ym2612"
    },
    {
      "channel": 2,
      "note": 95,
      "start": 31.321,
      "duration": 0.0167,
      "velocity": 94,
      "chip": "ym2612"
    },
    {
      "channel": 2,
      "note": 90,
      "start": 31.3383,
      "duration": 0.0568,
      "velocity": 94,
      "chip": "ym2612"
    },
    {
      "channel": 2,
      "note": 95,
      "start": 31.396,
      "duration": 0.0581,
      "velocity": 94,
      "chip": "ym2612"
    },
    {
      "channel": 2,
      "note": 99,
      "start": 31.4547,
      "duration": 0.0578,
      "velocity": 94,
      "chip": "ym2612"
    },
    {
      "channel": 2,
      "note": 95,
      "start": 31.5131,
      "duration": 0.0164,
      "velocity": 94,
      "chip": "ym2612"
    },
    {
      "channel": 2,
      "note": 99,
      "start": 31.5303,
      "duration": 0.0176,
      "velocity": 94,
      "chip": "ym2612"
    },
    {
      "channel": 2,
      "note": 102,
      "start": 31.5485,
      "duration": 0.0485,
      "velocity": 94,
      "chip": "ym2612"
    },
    {
      "channel": 2,
      "note": 99,
      "start": 31.5977,
      "duration": 0.0178,
      "velocity": 94,
      "chip": "ym2612"
    },
    {
      "channel": 2,
      "note": 102,
      "start": 31.6163,
      "duration": 0.0167,
      "velocity": 94,
      "chip": "ym2612"
    },
    {
      "channel": 2,
      "note": 107,
      "start": 31.6341,
      "duration": 0.0184,
      "velocity": 94,
      "chip": "ym2612"
    },
    {
      "channel": 2,
      "note": 95,
      "start": 31.6531,
      "duration": 0.016,
      "velocity": 94,
      "chip": "ym2612"
    },
    {
      "channel": 2,
      "note": 99,
      "start": 31.6698,
      "duration": 0.0363,
      "velocity": 94,
      "chip": "ym2612"
    },
    {
      "channel": 2,
      "note": 102,
      "start": 31.7068,
      "duration": 0.0587,
      "velocity": 94,
      "chip": "ym2612"
    },
    {
      "channel": 1,
      "note": 73,
      "start": 31.7653,
      "duration": 0.0578,
      "velocity": 90,
      "chip": "ym2612"
    },
    {
      "channel": 2,
      "note": 99,
      "start": 31.7662,
      "duration": 0.0191,
      "velocity": 94,
      "chip": "ym2612"
    },
    {
      "channel": 2,
      "note": 102,
      "start": 31.7861,
      "duration": 0.0169,
      "velocity": 94,
      "chip": "ym2612"
    },
    {
      "channel": 2,
      "note": 107,
      "start": 31.8036,
      "duration": 0.0203,
      "velocity": 94,
      "chip": "ym2612"
    },
    {
      "channel": 1,
      "note": 71,
      "start": 31.8238,
      "duration": 0.055,
      "velocity": 90,
      "chip": "ym2612"
    },
    {
      "channel": 2,
      "note": 102,
      "start": 31.8246,
      "duration": 0.0174,
      "velocity": 94,
      "chip": "ym2612"
    },
    {
      "channel": 2,
      "note": 107,
      "start": 31.8429,
      "duration": 0.0177,
      "velocity": 94,
      "chip": "ym2612"
    },
    {
      "channel": 2,
      "note": 111,
      "start": 31.8612,
      "duration": 0.0183,
      "velocity": 94,
      "chip": "ym2612"
    },
    {
      "channel": 1,
      "note": 68,
      "start": 31.8794,
      "duration": 0.0569,
      "velocity": 90,
      "chip": "ym2612"
    },
    {
      "channel": 2,
      "note": 114,
      "start": 31.8802,
      "duration": 0.0184,
      "velocity": 94,
      "chip": "ym2612"
    },
    {
      "channel": 2,
      "note": 111,
      "start": 31.8994,
      "duration": 0.0183,
      "velocity": 94,
      "chip": "ym2612"
    },
    {
      "channel": 2,
      "note": 107,
      "start": 31.9183,
      "duration": 0.0187,
      "velocity": 94,
      "chip": "ym2612"
    },
    {
      "channel": 1,
      "note": 71,
      "start": 31.9369,
      "duration": 0.057,
      "velocity": 90,
      "chip": "ym2612"
    },
    {
      "channel": 2,
      "note": 114,
      "start": 31.9377,
      "duration": 0.0186,
      "velocity": 94,
      "chip": "ym2612"
    },
    {
      "channel": 2,
      "note": 111,
      "start": 31.9571,
      "duration": 0.018,
      "velocity": 94,
      "chip": "ym2612"
    },
    {
      "channel": 2,
      "note": 107,
      "start": 31.9758,
      "duration": 0.0193,
      "velocity": 94,
      "chip": "ym2612"
    },
    {
      "channel": 1,
      "note": 68,
      "start": 31.9949,
      "duration": 0.0566,
      "velocity": 90,
      "chip": "ym2612"
    },
    {
      "channel": 2,
      "note": 111,
      "start": 31.9957,
      "duration": 0.0176,
      "velocity": 94,
      "chip": "ym2612"
    },
    {
      "channel": 2,
      "note": 107,
      "start": 32.0141,
      "duration": 0.0178,
      "velocity": 94,
      "chip": "ym2612"
    },
    {
      "channel": 2,
      "note": 102,
      "start": 32.0325,
      "duration": 0.0197,
      "velocity": 94,
      "chip": "ym2612"
    },
    {
      "channel": 1,
      "note": 66,
      "start": 32.052,
      "duration": 0.0509,
      "velocity": 90,
      "chip": "ym2612"
    },
    {
      "channel": 2,
      "note": 107,
      "start": 32.0528,
      "duration": 0.0163,
      "velocity": 94,
      "chip": "ym2612"
    },
    {
      "channel": 2,
      "note": 102,
      "start": 32.0699,
      "duration": 0.0167,
      "velocity": 94,
      "chip": "ym2612"
    },
    {
      "channel": 2,
      "note": 99,
      "start": 32.0873,
      "duration": 0.0164,
      "velocity": 94,
      "chip": "ym2612"
    },
    {
      "channel": 1,
      "note": 64,
      "start": 32.1035,
      "duration": 0.0563,
      "velocity": 90,
      "chip": "ym2612"
    },
    {
      "channel": 2,
      "note": 102,
      "start": 32.1043,
      "duration": 0.0173,
      "velocity": 94,
      "chip": "ym2612"
    },
    {
      "channel": 2,
      "note": 99,
      "start": 32.123,
      "duration": 0.0153,
      "velocity": 94,
      "chip": "ym2612"
    },
    {
      "channel": 2,
      "note": 95,
      "start": 32.1389,
      "duration": 0.0248,
      "velocity": 100,
      "chip": "ym2612"
    },
    {
      "channel": 0,
      "note": 85,
      "start": 32.1596,
      "duration": 28.6412,
      "velocity": 101,
      "chip": "ym2612"
    },
    {
      "channel": 1,
      "note": 54,
      "start": 32.1604,
      "duration": 0.0935,
      "velocity": 90,
      "chip": "ym2612"
    },
    {
      "channel": 2,
      "note": 78,
      "start": 32.1643,
      "duration": 0.0903,
      "velocity": 100,
      "chip": "ym2612"
    },
    {
      "channel": 3,
      "note": 68,
      "start": 32.168,
      "duration": 28.6327,
      "velocity": 104,
      "chip": "ym2612"
    },
    {
      "channel": 1,
      "note": 59,
      "start": 32.2545,
      "duration": 0.0842,
      "velocity": 90,
      "chip": "ym2612"
    },
    {
      "channel": 2,
      "note": 85,
      "start": 32.2552,
      "duration": 0.0841,
      "velocity": 100,
      "chip": "ym2612"
    },
    {
      "channel": 4,
      "note": 85,
      "start": 32.2602,
      "duration": 28.5406,
      "velocity": 101,
      "chip": "ym2612"
    },
    {
      "channel": 1,
      "note": 61,
      "start": 32.3392,
      "duration": 28.4616,
      "velocity": 90,
      "chip": "ym2612"
    },
    {
      "channel": 2,
      "note": 90,
      "start": 32.34,
      "duration": 28.4608,
      "velocity": 100,
      "chip": "ym2612"
    }
  ]
}