{
  "track_name": "01 - Ruins",
  "duration_sec": 117.85,
  "sample_rate": 44100,
  "note_count": 2694,
  "unique_pitches": 35,
  "pitch_range": 62,
  "avg_note_duration": 0.183,
  "reconstruction_stats": {
    "notes_reconstructed": 2694,
    "keyon_events": 2694,
    "keyoff_events": 2690,
    "orphan_keyons": 4,
    "unique_pitches": 35,
    "pitch_range": 62,
    "avg_duration_sec": 0.183
  },
  "metadata": {
    "source": "P\\Pier Solar and the Great Architects\\01 - Ruins.vgz"
  },
  "notes": [
    {
      "channel": 0,
      "note": 61,
      "start": 0.1055,
      "duration": 0.1039,
      "velocity": 90,
      "chip": "ym2612"
    },
    {
      "channel": 2,
      "note": 49,
      "start": 0.1058,
      "duration": 3.3633,
      "velocity": 114,
      "chip": "ym2612"
    },
    {
      "channel": 4,
      "note": 49,
      "start": 0.1062,
      "duration": 0.1036,
      "velocity": 108,
      "chip": "ym2612"
    },
    {
      "channel": 0,
      "note": 64,
      "start": 0.2095,
      "duration": 0.105,
      "velocity": 90,
      "chip": "ym2612"
    },
    {
      "channel": 4,
      "note": 49,
      "start": 0.21,
      "duration": 0.105,
      "velocity": 108,
      "chip": "ym2612"
    },
    {
      "channel": 0,
      "note": 66,
      "start": 0.3147,
      "duration": 0.105,
      "velocity": 90,
      "chip": "ym2612"
    },
    {
      "channel": 4,
      "note": 52,
      "start": 0.3151,
      "duration": 0.1063,
      "velocity": 108,
      "chip": "ym2612"
    },
    {
      "channel": 0,
      "note": 64,
      "start": 0.4198,
      "duration": 0.105,
      "velocity": 90,
      "chip": "ym2612"
    },
    {
      "channel": 1,
      "note": 61,
      "start": 0.4212,
      "duration": 0.1039,
      "velocity": 90,
      "chip": "ym2612"
    },
    {
      "channel": 4,
      "note": 52,
      "start": 0.4216,
      "duration": 0.1039,
      "velocity": 108,
      "chip": "ym2612"
    },
    {
      "channel": 0,
      "note": 66,
      "start": 0.5249,
      "duration": 0.105,
      "velocity": 90,
      "chip": "ym2612"
    },
    {
      "channel": 1,
      "note": 64,
      "start": 0.5252,
      "duration": 0.105,
      "velocity": 90,
      "chip": "ym2612"
    },
    {
      "channel": 4,
      "note": 54,
      "start": 0.5256,
      "duration": 0.1051,
      "velocity": 108,
      "chip": "ym2612"
    },
    {
      "channel": 0,
      "note": 68,
      "start": 0.6301,
      "duration": 0.105,
      "velocity": 90,
      "chip": "ym2612"
    },
    {
      "channel": 1,
      "note": 66,
      "start": 0.6303,
      "duration": 0.105,
      "velocity": 90,
      "chip": "ym2612"
    },
    {
      "channel": 4,
      "note": 54,
      "start": 0.6309,
      "duration": 0.1062,
      "velocity": 108,
      "chip": "ym2612"
    },
    {
      "channel": 0,
      "note": 66,
      "start": 0.7352,
      "duration": 0.105,
      "velocity": 90,
      "chip": "ym2612"
    },
    {
      "channel": 1,
      "note": 64,
      "start": 0.7354,
      "duration": 0.105,
      "velocity": 90,
      "chip": "ym2612"
    },
    {
      "channel": 3,
      "note": 61,
      "start": 0.7369,
      "duration": 0.1039,
      "velocity": 90,
      "chip": "ym2612"
    },
    {
      "channel": 4,
      "note": 56,
      "start": 0.7372,
      "duration": 0.1038,
      "velocity": 108,
      "chip": "ym2612"
    },
    {
      "channel": 0,
      "note": 68,
      "start": 0.8403,
      "duration": 0.1052,
      "velocity": 90,
      "chip": "ym2612"
    },
    {
      "channel": 1,
      "note": 66,
      "start": 0.8406,
      "duration": 0.1052,
      "velocity": 90,
      "chip": "ym2612"
    },
    {
      "channel": 3,
      "note": 64,
      "start": 0.8409,
      "duration": 0.1052,
      "velocity": 90,
      "chip": "ym2612"
    },
    {
      "channel": 4,
      "note": 56,
      "start": 0.8412,
      "duration": 0.1052,
      "velocity": 108,
      "chip": "ym2612"
    },
    {
      "channel": 0,
      "note": 71,
      "start": 0.9457,
      "duration": 0.1048,
      "velocity": 90,
      "chip": "ym2612"
    },
    {
      "channel": 1,
      "note": 68,
      "start": 0.9459,
      "duration": 0.1048,
      "velocity": 90,
      "chip": "ym2612"
    },
    {
      "channel": 3,
      "note": 66,
      "start": 0.9462,
      "duration": 0.1048,
      "velocity": 90,
      "chip": "ym2612"
    },
    {
      "channel": 4,
      "note": 59,
      "start": 0.9465,
      "duration": 0.1048,
      "velocity": 108,
      "chip": "ym2612"
    },
    {
      "channel": 0,
      "note": 68,
      "start": 1.0506,
      "duration": 0.105,
      "velocity": 90,
      "chip": "ym2612"
    },
    {
      "channel": 1,
      "note": 66,
      "start": 1.0508,
      "duration": 0.105,
      "velocity": 90,
      "chip": "ym2612"
    },
    {
      "channel": 3,
      "note": 64,
      "start": 1.0512,
      "duration": 0.105,
      "velocity": 90,
      "chip": "ym2612"
    },
    {
      "channel": 4,
      "note": 59,
      "start": 1.0514,
      "duration": 0.105,
      "velocity": 108,
      "chip": "ym2612"
    },
    {
      "channel": 0,
      "note": 71,
      "start": 1.1557,
      "duration": 0.105,
      "velocity": 90,
      "chip": "ym2612"
    },
    {
      "channel": 1,
      "note": 68,
      "start": 1.156,
      "duration": 0.105,
      "velocity": 90,
      "chip": "ym2612"
    },
    {
      "channel": 3,
      "note": 66,
      "start": 1.1563,
      "duration": 0.105,
      "velocity": 90,
      "chip": "ym2612"
    },
    {
      "channel": 4,
      "note": 61,
      "start": 1.1566,
      "duration": 0.105,
      "velocity": 108,
      "chip": "ym2612"
    },
    {
      "channel": 0,
      "note": 73,
      "start": 1.2609,
      "duration": 0.105,
      "velocity": 90,
      "chip": "ym2612"
    },
    {
      "channel": 1,
      "note": 71,
      "start": 1.2611,
      "duration": 0.105,
      "velocity": 90,
      "chip": "ym2612"
    },
    {
      "channel": 3,
      "note": 68,
      "start": 1.2614,
      "duration": 0.105,
      "velocity": 90,
      "chip": "ym2612"
    },
    {
      "channel": 4,
      "note": 61,
      "start": 1.2617,
      "duration": 0.105,
      "velocity": 108,
      "chip": "ym2612"
    },
    {
      "channel": 0,
      "note": 71,
      "start": 1.366,
      "duration": 0.105,
      "velocity": 90,
      "chip": "ym2612"
    },
    {
      "channel": 1,
      "note": 68,
      "start": 1.3662,
      "duration": 0.105,
      "velocity": 90,
      "chip": "ym2612"
    },
    {
      "channel": 3,
      "note": 66,
      "start": 1.3666,
      "duration": 0.105,
      "velocity": 90,
      "chip": "ym2612"
    },
    {
      "channel": 4,
      "note": 64,
      "start": 1.3668,
      "duration": 0.105,
      "velocity": 108,
      "chip": "ym2612"
    },
    {
      "channel": 0,
      "note": 73,
      "start": 1.4711,
      "duration": 0.105,
      "velocity": 90,
      "chip": "ym2612"
    },
    {
      "channel": 1,
      "note": 71,
      "start": 1.4714,
      "duration": 0.105,
      "velocity": 90,
      "chip": "ym2612"
    },
    {
      "channel": 3,
      "note": 68,
      "start": 1.4717,
      "duration": 0.105,
      "velocity": 90,
      "chip": "ym2612"
    },
    {
      "channel": 4,
      "note": 64,
      "start": 1.472,
      "duration": 0.105,
      "velocity": 108,
      "chip": "ym2612"
    },
    {
      "channel": 0,
      "note": 76,
      "start": 1.5763,
      "duration": 0.105,
      "velocity": 90,
      "chip": "ym2612"
    },
    {
      "channel": 1,
      "note": 73,
      "start": 1.5765,
      "duration": 0.105,
      "velocity": 90,
      "chip": "ym2612"
    },
    {
      "channel": 3,
      "note": 71,
      "start": 1.5768,
      "duration": 0.105,
      "velocity": 90,
      "chip": "ym2612"
    },
    {
      "channel": 4,
      "note": 68,
      "start": 1.5771,
      "duration": 0.105,
      "velocity": 108,
      "chip": "ym2612"
    },
    {
      "channel": 0,
      "note": 73,
      "start": 1.6814,
      "duration": 0.1052,
      "velocity": 90,
      "chip": "ym2612"
    },
    {
      "channel": 1,
      "note": 71,
      "start": 1.6816,
      "duration": 0.1052,
      "velocity": 90,
      "chip": "ym2612"
    },
    {
      "channel": 3,
      "note": 68,
      "start": 1.682,
      "duration": 0.1051,
      "velocity": 90,
      "chip": "ym2612"
    },
    {
      "channel": 4,
      "note": 68,
      "start": 1.6822,
      "duration": 0.1052,
      "velocity": 108,
      "chip": "ym2612"
    },
    {
      "channel": 0,
      "note": 76,
      "start": 1.7867,
      "duration": 0.1048,
      "velocity": 90,
      "chip": "ym2612"
    },
    {
      "channel": 1,
      "note": 73,
      "start": 1.7869,
      "duration": 0.1048,
      "velocity": 90,
      "chip": "ym2612"
    },
    {
      "channel": 3,
      "note": 71,
      "start": 1.7873,
      "duration": 0.1048,
      "velocity": 90,
      "chip": "ym2612"
    },
    {
      "channel": 4,
      "note": 49,
      "start": 1.7875,
      "duration": 0.1048,
      "velocity": 108,
      "chip": "ym2612"
    },
    {
      "channel": 0,
      "note": 80,
      "start": 1.8916,
      "duration": 0.105,
      "velocity": 90,
      "chip": "ym2612"
    },
    {
      "channel": 1,
      "note": 76,
      "start": 1.8919,
      "duration": 0.105,
      "velocity": 90,
      "chip": "ym2612"
    },
    {
      "channel": 3,
      "note": 73,
      "start": 1.8922,
      "duration": 0.105,
      "velocity": 90,
      "chip": "ym2612"
    },
    {
      "channel": 4,
      "note": 49,
      "start": 1.8925,
      "duration": 0.105,
      "velocity": 108,
      "chip": "ym2612"
    },
    {
      "channel": 0,
      "note": 76,
      "start": 1.9968,
      "duration": 0.105,
      "velocity": 90,
      "chip": "ym2612"
    },
    {
      "channel": 1,
      "note": 73,
      "start": 1.997,
      "duration": 0.105,
      "velocity": 90,
      "chip": "ym2612"
    },
    {
      "channel": 3,
      "note": 71,
      "start": 1.9973,
      "duration": 0.105,
      "velocity": 90,
      "chip": "ym2612"
    },
    {
      "channel": 4,
      "note": 52,
      "start": 1.9976,
      "duration": 0.105,
      "velocity": 108,
      "chip": "ym2612"
    },
    {
      "channel": 0,
      "note": 80,
      "start": 2.1019,
      "duration": 0.105,
      "velocity": 90,
      "chip": "ym2612"
    },
    {
      "channel": 1,
      "note": 76,
      "start": 2.1022,
      "duration": 0.105,
      "velocity": 90,
      "chip": "ym2612"
    },
    {
      "channel": 3,
      "note": 73,
      "start": 2.1025,
      "duration": 0.105,
      "velocity": 90,
      "chip": "ym2612"
    },
    {
      "channel": 4,
      "note": 52,
      "start": 2.1027,
      "duration": 0.105,
      "velocity": 108,
      "chip": "ym2612"
    },
    {
      "channel": 0,
      "note": 83,
      "start": 2.207,
      "duration": 0.105,
      "velocity": 90,
      "chip": "ym2612"
    },
    {
      "channel": 1,
      "note": 80,
      "start": 2.2073,
      "duration": 0.105,
      "velocity": 90,
      "chip": "ym2612"
    },
    {
      "channel": 3,
      "note": 76,
      "start": 2.2076,
      "duration": 0.105,
      "velocity": 90,
      "chip": "ym2612"
    },
    {
      "channel": 4,
      "note": 54,
      "start": 2.2079,
      "duration": 0.105,
      "velocity": 108,
      "chip": "ym2612"
    },
    {
      "channel": 0,
      "note": 80,
      "start": 2.3122,
      "duration": 0.105,
      "velocity": 90,
      "chip": "ym2612"
    },
    {
      "channel": 1,
      "note": 76,
      "start": 2.3124,
      "duration": 0.105,
      "velocity": 90,
      "chip": "ym2612"
    },
    {
      "channel": 3,
      "note": 73,
      "start": 2.3127,
      "duration": 0.105,
      "velocity": 90,
      "chip": "ym2612"
    },
    {
      "channel": 4,
      "note": 54,
      "start": 2.313,
      "duration": 0.105,
      "velocity": 108,
      "chip": "ym2612"
    },
    {
      "channel": 0,
      "note": 83,
      "start": 2.4173,
      "duration": 0.105,
      "velocity": 90,
      "chip": "ym2612"
    },
    {
      "channel": 1,
      "note": 80,
      "start": 2.4175,
      "duration": 0.105,
      "velocity": 90,
      "chip": "ym2612"
    },
    {
      "channel": 3,
      "note": 76,
      "start": 2.4179,
      "duration": 0.105,
      "velocity": 90,
      "chip": "ym2612"
    },
    {
      "channel": 4,
      "note": 56,
      "start": 2.4181,
      "duration": 0.105,
      "velocity": 108,
      "chip": "ym2612"
    },
    {
      "channel": 0,
      "note": 85,
      "start": 2.5224,
      "duration": 0.1052,
      "velocity": 90,
      "chip": "ym2612"
    },
    {
      "channel": 1,
      "note": 83,
      "start": 2.5227,
      "duration": 0.1052,
      "velocity": 90,
      "chip": "ym2612"
    },
    {
      "channel": 3,
      "note": 80,
      "start": 2.523,
      "duration": 0.1052,
      "velocity": 90,
      "chip": "ym2612"
    },
    {
      "channel": 4,
      "note": 56,
      "start": 2.5233,
      "duration": 0.1052,
      "velocity": 108,
      "chip": "ym2612"
    },
    {
      "channel": 0,
      "note": 83,
      "start": 2.6278,
      "duration": 0.1048,
      "velocity": 90,
      "chip": "ym2612"
    },
    {
      "channel": 1,
      "note": 80,
      "start": 2.628,
      "duration": 0.1048,
      "velocity": 90,
      "chip": "ym2612"
    },
    {
      "channel": 3,
      "note": 76,
      "start": 2.6283,
      "duration": 0.1048,
      "velocity": 90,
      "chip": "ym2612"
    },
    {
      "channel": 4,
      "note": 59,
      "start": 2.6286,
      "duration": 0.1048,
      "velocity": 108,
      "chip": "ym2612"
    },
    {
      "channel": 0,
      "note": 85,
      "start": 2.7327,
      "duration": 0.1051,
      "velocity": 90,
      "chip": "ym2612"
    },
    {
      "channel": 1,
      "note": 83,
      "start": 2.7329,
      "duration": 0.1051,
      "velocity": 90,
      "chip": "ym2612"
    },
    {
      "channel": 3,
      "note": 80,
      "start": 2.7333,
      "duration": 0.1051,
      "velocity": 90,
      "chip": "ym2612"
    },
    {
      "channel": 4,
      "note": 59,
      "start": 2.7335,
      "duration": 0.1051,
      "velocity": 108,
      "chip": "ym2612"
    },
    {
      "channel": 0,
      "note": 87,
      "start": 2.838,
      "duration": 0.1048,
      "velocity": 90,
      "chip": "ym2612"
    },
    {
      "channel": 1,
      "note": 85,
      "start": 2.8382,
      "duration": 0.1048,
      "velocity": 90,
      "chip": "ym2612"
    },
    {
      "channel": 3,
      "note": 83,
      "start": 2.8385,
      "duration": 0.1048,
      "velocity": 90,
      "chip": "ym2612"
    },
    {
      "channel": 4,
      "note": 61,
      "start": 2.8388,
      "duration": 0.1048,
      "velocity": 108,
      "chip": "ym2612"
    },
    {
      "channel": 0,
      "note": 85,
      "start": 2.9429,
      "duration": 0.105,
      "velocity": 90,
      "chip": "ym2612"
    },
    {
      "channel": 1,
      "note": 83,
      "start": 2.9432,
      "duration": 0.105,
      "velocity": 90,
      "chip": "ym2612"
    },
    {
      "channel": 3,
      "note": 80,
      "start": 2.9435,
      "duration": 0.105,
      "velocity": 90,
      "chip": "ym2612"
    },
    {
      "channel": 4,
      "note": 61,
      "start": 2.9438,
      "duration": 0.105,
      "velocity": 108,
      "chip": "ym2612"
    },
    {
      "channel": 0,
      "note": 88,
      "start": 3.0481,
      "duration": 0.105,
      "velocity": 90,
      "chip": "ym2612"
    },
    {
      "channel": 1,
      "note": 85,
      "start": 3.0483,
      "duration": 0.105,
      "velocity": 90,
      "chip": "ym2612"
    },
    {
      "channel": 3,
      "note": 83,
      "start": 3.0486,
      "duration": 0.105,
      "velocity": 90,
      "chip": "ym2612"
    },
    {
      "channel": 4,
      "note": 64,
      "start": 3.0489,
      "duration": 0.105,
      "velocity": 108,
      "chip": "ym2612"
    },
    {
      "channel": 0,
      "note": 90,
      "start": 3.1532,
      "duration": 0.105,
      "velocity": 90,
      "chip": "ym2612"
    },
    {
      "channel": 1,
      "note": 87,
      "start": 3.1534,
      "duration": 0.105,
      "velocity": 90,
      "chip": "ym2612"
    },
    {
      "channel": 3,
      "note": 85,
      "start": 3.1538,
      "duration": 0.105,
      "velocity": 90,
      "chip": "ym2612"
    },
    {
      "channel": 4,
      "note": 64,
      "start": 3.154,
      "duration": 0.105,
      "velocity": 108,
      "chip": "ym2612"
    },
    {
      "channel": 0,
      "note": 88,
      "start": 3.2583,
      "duration": 0.105,
      "velocity": 90,
      "chip": "ym2612"
    },
    {
      "channel": 1,
      "note": 85,
      "start": 3.2586,
      "duration": 0.105,
      "velocity": 90,
      "chip": "ym2612"
    },
    {
      "channel": 3,
      "note": 83,
      "start": 3.2589,
      "duration": 0.105,
      "velocity": 90,
      "chip": "ym2612"
    },
    {
      "channel": 4,
      "note": 68,
      "start": 3.2592,
      "duration": 0.105,
      "velocity": 108,
      "chip": "ym2612"
    },
    {
      "channel": 0,
      "note": 90,
      "start": 3.3635,
      "duration": 0.1052,
      "velocity": 90,
      "chip": "ym2612"
    },
    {
      "channel": 1,
      "note": 88,
      "start": 3.3637,
      "duration": 0.1052,
      "velocity": 90,
      "chip": "ym2612"
    },
    {
      "channel": 3,
      "note": 85,
      "start": 3.364,
      "duration": 0.1054,
      "velocity": 90,
      "chip": "ym2612"
    },
    {
      "channel": 4,
      "note": 68,
      "start": 3.3643,
      "duration": 0.1054,
      "velocity": 108,
      "chip": "ym2612"
    },
    {
      "channel": 0,
      "note": 92,
      "start": 3.4688,
      "duration": 0.1048,
      "velocity": 90,
      "chip": "ym2612"
    },
    {
      "channel": 1,
      "note": 90,
      "start": 3.469,
      "duration": 0.1048,
      "velocity": 90,
      "chip": "ym2612"
    },
    {
      "channel": 2,
      "note": 49,
      "start": 3.4693,
      "duration": 3.364,
      "velocity": 114,
      "chip": "ym2612"
    },
    {
      "channel": 3,
      "note": 87,
      "start": 3.4696,
      "duration": 0.1046,
      "velocity": 90,
      "chip": "ym2612"
    },
    {
      "channel": 4,
      "note": 49,
      "start": 3.4698,
      "duration": 0.1046,
      "velocity": 108,
      "chip": "ym2612"
    },
    {
      "channel": 0,
      "note": 90,
      "start": 3.5737,
      "duration": 0.105,
      "velocity": 90,
      "chip": "ym2612"
    },
    {
      "channel": 1,
      "note": 88,
      "start": 3.574,
      "duration": 0.105,
      "velocity": 90,
      "chip": "ym2612"
    },
    {
      "channel": 3,
      "note": 85,
      "start": 3.5743,
      "duration": 0.105,
      "velocity": 90,
      "chip": "ym2612"
    },
    {
      "channel": 4,
      "note": 49,
      "start": 3.5746,
      "duration": 0.105,
      "velocity": 108,
      "chip": "ym2612"
    },
    {
      "channel": 0,
      "note": 92,
      "start": 3.6788,
      "duration": 0.105,
      "velocity": 90,
      "chip": "ym2612"
    },
    {
      "channel": 1,
      "note": 90,
      "start": 3.6791,
      "duration": 0.105,
      "velocity": 90,
      "chip": "ym2612"
    },
    {
      "channel": 3,
      "note": 88,
      "start": 3.6794,
      "duration": 0.105,
      "velocity": 90,
      "chip": "ym2612"
    },
    {
      "channel": 4,
      "note": 52,
      "start": 3.6797,
      "duration": 0.105,
      "velocity": 108,
      "chip": "ym2612"
    },
    {
      "channel": 0,
      "note": 95,
      "start": 3.784,
      "duration": 0.105,
      "velocity": 90,
      "chip": "ym2612"
    },
    {
      "channel": 1,
      "note": 92,
      "start": 3.7842,
      "duration": 0.105,
      "velocity": 90,
      "chip": "ym2612"
    },
    {
      "channel": 3,
      "note": 90,
      "start": 3.7846,
      "duration": 0.105,
      "velocity": 90,
      "chip": "ym2612"
    },
    {
      "channel": 4,
      "note": 52,
      "start": 3.7848,
      "duration": 0.105,
      "velocity": 108,
      "chip": "ym2612"
    },
    {
      "channel": 0,
      "note": 92,
      "start": 3.8891,
      "duration": 0.105,
      "velocity": 90,
      "chip": "ym2612"
    },
    {
      "channel": 1,
      "note": 90,
      "start": 3.8894,
      "duration": 0.1051,
      "velocity": 90,
      "chip": "ym2612"
    },
    {
      "channel": 3,
      "note": 88,
      "start": 3.8897,
      "duration": 0.1051,
      "velocity": 90,
      "chip": "ym2612"
    },
    {
      "channel": 4,
      "note": 54,
      "start": 3.89,
      "duration": 0.1051,
      "velocity": 108,
      "chip": "ym2612"
    },
    {
      "channel": 0,
      "note": 95,
      "start": 3.9944,
      "duration": 0.1049,
      "velocity": 90,
      "chip": "ym2612"
    },
    {
      "channel": 1,
      "note": 92,
      "start": 3.9946,
      "duration": 0.1049,
      "velocity": 90,
      "chip": "ym2612"
    },
    {
      "channel": 3,
      "note": 90,
      "start": 3.9949,
      "duration": 0.1049,
      "velocity": 90,
      "chip": "ym2612"
    },
    {
      "channel": 4,
      "note": 54,
      "start": 3.9952,
      "duration": 0.1049,
      "velocity": 108,
      "chip": "ym2612"
    },
    {
      "channel": 0,
      "note": 97,
      "start": 4.0994,
      "duration": 0.105,
      "velocity": 90,
      "chip": "ym2612"
    },
    {
      "channel": 1,
      "note": 95,
      "start": 4.0996,
      "duration": 0.105,
      "velocity": 90,
      "chip": "ym2612"
    },
    {
      "channel": 3,
      "note": 92,
      "start": 4.1,
      "duration": 0.105,
      "velocity": 90,
      "chip": "ym2612"
    },
    {
      "channel": 4,
      "note": 56,
      "start": 4.1002,
      "duration": 0.105,
      "velocity": 108,
      "chip": "ym2612"
    },
    {
      "channel": 0,
      "note": 95,
      "start": 4.2045,
      "duration": 0.1052,
      "velocity": 90,
      "chip": "ym2612"
    },
    {
      "channel": 1,
      "note": 92,
      "start": 4.2048,
      "duration": 0.1052,
      "velocity": 90,
      "chip": "ym2612"
    },
    {
      "channel": 3,
      "note": 90,
      "start": 4.2051,
      "duration": 0.1053,
      "velocity": 90,
      "chip": "ym2612"
    },
    {
      "channel": 4,
      "note": 56,
      "start": 4.2054,
      "duration": 0.1053,
      "velocity": 108,
      "chip": "ym2612"
    },
    {
      "channel": 0,
      "note": 97,
      "start": 4.3098,
      "duration": 0.1048,
      "velocity": 90,
      "chip": "ym2612"
    },
    {
      "channel": 1,
      "note": 95,
      "start": 4.3102,
      "duration": 0.1047,
      "velocity": 90,
      "chip": "ym2612"
    },
    {
      "channel": 3,
      "note": 92,
      "start": 4.3105,
      "duration": 0.1047,
      "velocity": 90,
      "chip": "ym2612"
    },
    {
      "channel": 4,
      "note": 59,
      "start": 4.3108,
      "duration": 0.1047,
      "velocity": 108,
      "chip": "ym2612"
    },
    {
      "channel": 0,
      "note": 100,
      "start": 4.4148,
      "duration": 0.105,
      "velocity": 90,
      "chip": "ym2612"
    },
    {
      "channel": 1,
      "note": 97,
      "start": 4.415,
      "duration": 0.105,
      "velocity": 90,
      "chip": "ym2612"
    },
    {
      "channel": 3,
      "note": 95,
      "start": 4.4154,
      "duration": 0.105,
      "velocity": 90,
      "chip": "ym2612"
    },
    {
      "channel": 4,
      "note": 59,
      "start": 4.4156,
      "duration": 0.105,
      "velocity": 108,
      "chip": "ym2612"
    },
    {
      "channel": 0,
      "note": 97,
      "start": 4.5199,
      "duration": 0.105,
      "velocity": 90,
      "chip": "ym2612"
    },
    {
      "channel": 1,
      "note": 95,
      "start": 4.5202,
      "duration": 0.105,
      "velocity": 90,
      "chip": "ym2612"
    },
    {
      "channel": 3,
      "note": 92,
      "start": 4.5205,
      "duration": 0.105,
      "velocity": 90,
      "chip": "ym2612"
    },
    {
      "channel": 4,
      "note": 61,
      "start": 4.5207,
      "duration": 0.105,
      "velocity": 108,
      "chip": "ym2612"
    },
    {
      "channel": 0,
      "note": 100,
      "start": 4.625,
      "duration": 0.105,
      "velocity": 90,
      "chip": "ym2612"
    },
    {
      "channel": 1,
      "note": 97,
      "start": 4.6253,
      "duration": 0.105,
      "velocity": 90,
      "chip": "ym2612"
    },
    {
      "channel": 3,
      "note": 95,
      "start": 4.6256,
      "duration": 0.105,
      "velocity": 90,
      "chip": "ym2612"
    },
    {
      "channel": 4,
      "note": 61,
      "start": 4.6259,
      "duration": 0.105,
      "velocity": 108,
      "chip": "ym2612"
    },
    {
      "channel": 0,
      "note": 104,
      "start": 4.7302,
      "duration": 0.105,
      "velocity": 90,
      "chip": "ym2612"
    },
    {
      "channel": 1,
      "note": 100,
      "start": 4.7304,
      "duration": 0.105,
      "velocity": 90,
      "chip": "ym2612"
    },
    {
      "channel": 3,
      "note": 97,
      "start": 4.7307,
      "duration": 0.105,
      "velocity": 90,
      "chip": "ym2612"
    },
    {
      "channel": 4,
      "note": 64,
      "start": 4.731,
      "duration": 0.105,
      "velocity": 108,
      "chip": "ym2612"
    },
    {
      "channel": 0,
      "note": 100,
      "start": 4.8353,
      "duration": 0.105,
      "velocity": 90,
      "chip": "ym2612"
    },
    {
      "channel": 1,
      "note": 97,
      "start": 4.8356,
      "duration": 0.105,
      "velocity": 90,
      "chip": "ym2612"
    },
    {
      "channel": 3,
      "note": 95,
      "start": 4.8359,
      "duration": 0.105,
      "velocity": 90,
      "chip": "ym2612"
    },
    {
      "channel": 4,
      "note": 64,
      "start": 4.8361,
      "duration": 0.105,
      "velocity": 108,
      "chip": "ym2612"
    },
    {
      "channel": 0,
      "note": 104,
      "start": 4.9404,
      "duration": 0.105,
      "velocity": 90,
      "chip": "ym2612"
    },
    {
      "channel": 1,
      "note": 100,
      "start": 4.9407,
      "duration": 0.105,
      "velocity": 90,
      "chip": "ym2612"
    },
    {
      "channel": 3,
      "note": 97,
      "start": 4.941,
      "duration": 0.105,
      "velocity": 90,
      "chip": "ym2612"
    },
    {
      "channel": 4,
      "note": 68,
      "start": 4.9413,
      "duration": 0.105,
      "velocity": 108,
      "chip": "ym2612"
    },
    {
      "channel": 0,
      "note": 107,
      "start": 5.0456,
      "duration": 0.1052,
      "velocity": 90,
      "chip": "ym2612"
    },
    {
      "channel": 1,
      "note": 104,
      "start": 5.0458,
      "duration": 0.1052,
      "velocity": 90,
      "chip": "ym2612"
    },
    {
      "channel": 3,
      "note": 100,
      "start": 5.0461,
      "duration": 0.1052,
      "velocity": 90,
      "chip": "ym2612"
    },
    {
      "channel": 4,
      "note": 68,
      "start": 5.0464,
      "duration": 0.1052,
      "velocity": 108,
      "chip": "ym2612"
    },
    {
      "channel": 0,
      "note": 105,
      "start": 5.1509,
      "duration": 0.2099,
      "velocity": 90,
      "chip": "ym2612"
    },
    {
      "channel": 1,
      "note": 100,
      "start": 5.1512,
      "duration": 0.1046,
      "velocity": 90,
      "chip": "ym2612"
    },
    {
      "channel": 3,
      "note": 97,
      "start": 5.1515,
      "duration": 0.1046,
      "velocity": 90,
      "chip": "ym2612"
    },
    {
      "channel": 4,
      "note": 49,
      "start": 5.1517,
      "duration": 0.1046,
      "velocity": 108,
      "chip": "ym2612"
    },
    {
      "channel": 1,
      "note": 104,
      "start": 5.2559,
      "duration": 0.1052,
      "velocity": 90,
      "chip": "ym2612"
    },
    {
      "channel": 3,
      "note": 100,
      "start": 5.2562,
      "duration": 0.1052,
      "velocity": 90,
      "chip": "ym2612"
    },
    {
      "channel": 4,
      "note": 49,
      "start": 5.2565,
      "duration": 0.1052,
      "velocity": 108,
      "chip": "ym2612"
    },
    {
      "channel": 0,
      "note": 104,
      "start": 5.361,
      "duration": 0.4204,
      "velocity": 90,
      "chip": "ym2612"
    },
    {
      "channel": 1,
      "note": 107,
      "start": 5.3612,
      "duration": 0.1048,
      "velocity": 90,
      "chip": "ym2612"
    },
    {
      "channel": 3,
      "note": 104,
      "start": 5.3615,
      "duration": 0.1048,
      "velocity": 90,
      "chip": "ym2612"
    },
    {
      "channel": 4,
      "note": 52,
      "start": 5.3618,
      "duration": 0.1048,
      "velocity": 108,
      "chip": "ym2612"
    },
    {
      "channel": 1,
      "note": 105,
      "start": 5.4661,
      "duration": 0.2101,
      "velocity": 90,
      "chip": "ym2612"
    },
    {
      "channel": 3,
      "note": 100,
      "start": 5.4665,
      "duration": 0.1048,
      "velocity": 90,
      "chip": "ym2612"
    },
    {
      "channel": 4,
      "note": 52,
      "start": 5.4667,
      "duration": 0.1048,
      "velocity": 108,
      "chip": "ym2612"
    },
    {
      "channel": 3,
      "note": 104,
      "start": 5.5714,
      "duration": 0.1052,
      "velocity": 90,
      "chip": "ym2612"
    },
    {
      "channel": 4,
      "note": 54,
      "start": 5.5717,
      "duration": 0.1051,
      "velocity": 108,
      "chip": "ym2612"
    },
    {
      "channel": 1,
      "note": 104,
      "start": 5.6764,
      "duration": 0.4204,
      "velocity": 90,
      "chip": "ym2612"
    },
    {
      "channel": 3,
      "note": 107,
      "start": 5.6767,
      "duration": 0.105,
      "velocity": 90,
      "chip": "ym2612"
    },
    {
      "channel": 4,
      "note": 54,
      "start": 5.677,
      "duration": 0.105,
      "velocity": 108,
      "chip": "ym2612"
    },
    {
      "channel": 0,
      "note": 102,
      "start": 5.7815,
      "duration": 0.2103,
      "velocity": 90,
      "chip": "ym2612"
    },
    {
      "channel": 3,
      "note": 105,
      "start": 5.7819,
      "duration": 0.2103,
      "velocity": 90,
      "chip": "ym2612"
    },
    {
      "channel": 4,
      "note": 56,
      "start": 5.7821,
      "duration": 0.1046,
      "velocity": 108,
      "chip": "ym2612"
    },
    {
      "channel": 4,
      "note": 56,
      "start": 5.8869,
      "duration": 0.1056,
      "velocity": 108,
      "chip": "ym2612"
    },
    {
      "channel": 0,
      "note": 100,
      "start": 5.992,
      "duration": 0.4202,
      "velocity": 90,
      "chip": "ym2612"
    },
    {
      "channel": 3,
      "note": 104,
      "start": 5.9923,
      "duration": 0.4202,
      "velocity": 90,
      "chip": "ym2612"
    },
    {
      "channel": 4,
      "note": 59,
      "start": 5.9926,
      "duration": 0.1046,
      "velocity": 108,
      "chip": "ym2612"
    },
    {
      "channel": 1,
      "note": 102,
      "start": 6.0969,
      "duration": 0.2101,
      "velocity": 90,
      "chip": "ym2612"
    },
    {
      "channel": 4,
      "note": 59,
      "start": 6.0973,
      "duration": 0.1048,
      "velocity": 108,
      "chip": "ym2612"
    },
    {
      "channel": 4,
      "note": 61,
      "start": 6.2022,
      "duration": 0.1052,
      "velocity": 108,
      "chip": "ym2612"
    },
    {
      "channel": 1,
      "note": 100,
      "start": 6.3072,
      "duration": 0.4204,
      "velocity": 90,
      "chip": "ym2612"
    },
    {
      "channel": 4,
      "note": 61,
      "start": 6.3076,
      "duration": 0.1052,
      "velocity": 108,
      "chip": "ym2612"
    },
    {
      "channel": 0,
      "note": 99,
      "start": 6.4123,
      "duration": 0.4206,
      "velocity": 90,
      "chip": "ym2612"
    },
    {
      "channel": 3,
      "note": 102,
      "start": 6.4127,
      "duration": 0.2099,
      "velocity": 90,
      "chip": "ym2612"
    },
    {
      "channel": 4,
      "note": 64,
      "start": 6.4129,
      "duration": 0.1046,
      "velocity": 108,
      "chip": "ym2612"
    },
    {
      "channel": 4,
      "note": 64,
      "start": 6.5177,
      "duration": 0.1052,
      "velocity": 108,
      "chip": "ym2612"
    },
    {
      "channel": 3,
      "note": 100,
      "start": 6.6227,
      "duration": 0.2108,
      "velocity": 90,
      "chip": "ym2612"
    },
    {
      "channel": 4,
      "note": 68,
      "start": 6.623,
      "duration": 0.105,
      "velocity": 108,
      "chip": "ym2612"
    },
    {
      "channel": 1,
      "note": 99,
      "start": 6.7277,
      "duration": 0.1054,
      "velocity": 90,
      "chip": "ym2612"
    },
    {
      "channel": 4,
      "note": 68,
      "start": 6.7281,
      "duration": 0.1056,
      "velocity": 108,
      "chip": "ym2612"
    },
    {
      "channel": 0,
      "note": 97,
      "start": 6.833,
      "duration": 1.3791,
      "velocity": 90,
      "chip": "ym2612"
    },
    {
      "channel": 1,
      "note": 85,
      "start": 6.8332,
      "duration": 1.4203,
      "velocity": 90,
      "chip": "ym2612"
    },
    {
      "channel": 2,
      "note": 49,
      "start": 6.8335,
      "duration": 0.013,
      "velocity": 114,
      "chip": "ym2612"
    },
    {
      "channel": 4,
      "note": 49,
      "start": 6.8339,
      "duration": 0.0128,
      "velocity": 108,
      "chip": "ym2612"
    },
    {
      "channel": 4,
      "note": 49,
      "start": 6.8468,
      "duration": 0.0123,
      "velocity": 108,
      "chip": "ym2612"
    },
    {
      "channel": 2,
      "note": 49,
      "start": 6.8588,
      "duration": 0.0119,
      "velocity": 114,
      "chip": "ym2612"
    },
    {
      "channel": 4,
      "note": 52,
      "start": 6.8593,
      "duration": 0.013,
      "velocity": 108,
      "chip": "ym2612"
    },
    {
      "channel": 3,
      "note": 49,
      "start": 6.8722,
      "duration": 0.0123,
      "velocity": 108,
      "chip": "ym2612"
    },
    {
      "channel": 4,
      "note": 52,
      "start": 6.8724,
      "duration": 0.0125,
      "velocity": 108,
      "chip": "ym2612"
    },
    {
      "channel": 2,
      "note": 49,
      "start": 6.8844,
      "duration": 0.6383,
      "velocity": 114,
      "chip": "ym2612"
    },
    {
      "channel": 3,
      "note": 49,
      "start": 6.8848,
      "duration": 0.012,
      "velocity": 108,
      "chip": "ym2612"
    },
    {
      "channel": 4,
      "note": 54,
      "start": 6.885,
      "duration": 0.012,
      "velocity": 108,
      "chip": "ym2612"
    },
    {
      "channel": 3,
      "note": 52,
      "start": 6.8969,
      "duration": 0.0118,
      "velocity": 108,
      "chip": "ym2612"
    },
    {
      "channel": 4,
      "note": 54,
      "start": 6.8972,
      "duration": 0.0118,
      "velocity": 108,
      "chip": "ym2612"
    },
    {
      "channel": 3,
      "note": 52,
      "start": 6.9088,
      "duration": 0.0122,
      "velocity": 108,
      "chip": "ym2612"
    },
    {
      "channel": 4,
      "note": 56,
      "start": 6.9091,
      "duration": 0.0122,
      "velocity": 108,
      "chip": "ym2612"
    },
    {
      "channel": 3,
      "note": 54,
      "start": 6.9212,
      "duration": 0.0118,
      "velocity": 108,
      "chip": "ym2612"
    },
    {
      "channel": 4,
      "note": 56,
      "start": 6.9215,
      "duration": 0.0118,
      "velocity": 108,
      "chip": "ym2612"
    },
    {
      "channel": 3,
      "note": 54,
      "start": 6.9332,
      "duration": 0.0131,
      "velocity": 108,
      "chip": "ym2612"
    },
    {
      "channel": 4,
      "note": 59,
      "start": 6.9334,
      "duration": 0.0131,
      "velocity": 108,
      "chip": "ym2612"
    },
    {
      "channel": 3,
      "note": 56,
      "start": 6.9463,
      "duration": 0.012,
      "velocity": 108,
      "chip": "ym2612"
    },
    {
      "channel": 4,
      "note": 59,
      "start": 6.9466,
      "duration": 0.012,
      "velocity": 108,
      "chip": "ym2612"
    },
    {
      "channel": 3,
      "note": 56,
      "start": 6.9585,
      "duration": 0.0118,
      "velocity": 108,
      "chip": "ym2612"
    },
    {
      "channel": 4,
      "note": 61,
      "start": 6.9587,
      "duration": 0.0119,
      "velocity": 108,
      "chip": "ym2612"
    },
    {
      "channel": 3,
      "note": 59,
      "start": 6.9705,
      "duration": 0.012,
      "velocity": 108,
      "chip": "ym2612"
    },
    {
      "channel": 4,
      "note": 61,
      "start": 6.9707,
      "duration": 0.012,
      "velocity": 108,
      "chip": "ym2612"
    },
    {
      "channel": 3,
      "note": 59,
      "start": 6.9826,
      "duration": 0.0122,
      "velocity": 108,
      "chip": "ym2612"
    },
    {
      "channel": 4,
      "note": 64,
      "start": 6.9829,
      "duration": 0.0122,
      "velocity": 108,
      "chip": "ym2612"
    },
    {
      "channel": 3,
      "note": 61,
      "start": 6.995,
      "duration": 0.0117,
      "velocity": 108,
      "chip": "ym2612"
    },
    {
      "channel": 4,
      "note": 64,
      "start": 6.9952,
      "duration": 0.0117,
      "velocity": 108,
      "chip": "ym2612"
    },
    {
      "channel": 3,
      "note": 61,
      "start": 7.0068,
      "duration": 0.0913,
      "velocity": 108,
      "chip": "ym2612"
    },
    {
      "channel": 4,
      "note": 68,
      "start": 7.0071,
      "duration": 0.0913,
      "velocity": 108,
      "chip": "ym2612"
    },
    {
      "channel": 3,
      "note": 64,
      "start": 7.0983,
      "duration": 0.1052,
      "velocity": 108,
      "chip": "ym2612"
    },
    {
      "channel": 4,
      "note": 68,
      "start": 7.0985,
      "duration": 0.1052,
      "velocity": 108,
      "chip": "ym2612"
    },
    {
      "channel": 3,
      "note": 64,
      "start": 7.2036,
      "duration": 0.0129,
      "velocity": 108,
      "chip": "ym2612"
    },
    {
      "channel": 4,
      "note": 49,
      "start": 7.2038,
      "duration": 0.0129,
      "velocity": 108,
      "chip": "ym2612"
    },
    {
      "channel": 3,
      "note": 68,
      "start": 7.2167,
      "duration": 0.012,
      "velocity": 108,
      "chip": "ym2612"
    },
    {
      "channel": 4,
      "note": 49,
      "start": 7.2169,
      "duration": 0.0119,
      "velocity": 108,
      "chip": "ym2612"
    },
    {
      "channel": 3,
      "note": 68,
      "start": 7.2288,
      "duration": 0.0119,
      "velocity": 108,
      "chip": "ym2612"
    },
    {
      "channel": 4,
      "note": 52,
      "start": 7.229,
      "duration": 0.0119,
      "velocity": 108,
      "chip": "ym2612"
    },
    {
      "channel": 3,
      "note": 49,
      "start": 7.2408,
      "duration": 0.012,
      "velocity": 108,
      "chip": "ym2612"
    },
    {
      "channel": 4,
      "note": 52,
      "start": 7.2411,
      "duration": 0.012,
      "velocity": 108,
      "chip": "ym2612"
    },
    {
      "channel": 3,
      "note": 49,
      "start": 7.253,
      "duration": 0.0122,
      "velocity": 108,
      "chip": "ym2612"
    },
    {
      "channel": 4,
      "note": 54,
      "start": 7.2532,
      "duration": 0.0122,
      "velocity": 108,
      "chip": "ym2612"
    },
    {
      "channel": 3,
      "note": 52,
      "start": 7.2653,
      "duration": 0.0118,
      "velocity": 108,
      "chip": "ym2612"
    },
    {
      "channel": 4,
      "note": 54,
      "start": 7.2655,
      "duration": 0.0118,
      "velocity": 108,
      "chip": "ym2612"
    },
    {
      "channel": 3,
      "note": 52,
      "start": 7.2772,
      "duration": 0.012,
      "velocity": 108,
      "chip": "ym2612"
    },
    {
      "channel": 4,
      "note": 56,
      "start": 7.2775,
      "duration": 0.012,
      "velocity": 108,
      "chip": "ym2612"
    },
    {
      "channel": 3,
      "note": 54,
      "start": 7.2894,
      "duration": 0.0129,
      "velocity": 108,
      "chip": "ym2612"
    },
    {
      "channel": 4,
      "note": 56,
      "start": 7.2897,
      "duration": 0.0129,
      "velocity": 108,
      "chip": "ym2612"
    },
    {
      "channel": 3,
      "note": 54,
      "start": 7.3025,
      "duration": 0.0121,
      "velocity": 108,
      "chip": "ym2612"
    },
    {
      "channel": 4,
      "note": 59,
      "start": 7.3028,
      "duration": 0.0121,
      "velocity": 108,
      "chip": "ym2612"
    },
    {
      "channel": 3,
      "note": 56,
      "start": 7.3147,
      "duration": 0.0119,
      "velocity": 108,
      "chip": "ym2612"
    },
    {
      "channel": 4,
      "note": 59,
      "start": 7.315,
      "duration": 0.0119,
      "velocity": 108,
      "chip": "ym2612"
    },
    {
      "channel": 3,
      "note": 56,
      "start": 7.3268,
      "duration": 0.0119,
      "velocity": 108,
      "chip": "ym2612"
    },
    {
      "channel": 4,
      "note": 61,
      "start": 7.3271,
      "duration": 0.0118,
      "velocity": 108,
      "chip": "ym2612"
    },
    {
      "channel": 3,
      "note": 59,
      "start": 7.3388,
      "duration": 0.012,
      "velocity": 108,
      "chip": "ym2612"
    },
    {
      "channel": 4,
      "note": 61,
      "start": 7.339,
      "duration": 0.0119,
      "velocity": 108,
      "chip": "ym2612"
    },
    {
      "channel": 3,
      "note": 59,
      "start": 7.3509,
      "duration": 0.012,
      "velocity": 108,
      "chip": "ym2612"
    },
    {
      "channel": 4,
      "note": 64,
      "start": 7.3511,
      "duration": 0.0119,
      "velocity": 108,
      "chip": "ym2612"
    },
    {
      "channel": 3,
      "note": 61,
      "start": 7.3629,
      "duration": 0.0118,
      "velocity": 108,
      "chip": "ym2612"
    },
    {
      "channel": 4,
      "note": 64,
      "start": 7.3632,
      "duration": 0.0118,
      "velocity": 108,
      "chip": "ym2612"
    },
    {
      "channel": 3,
      "note": 61,
      "start": 7.3749,
      "duration": 0.0425,
      "velocity": 108,
      "chip": "ym2612"
    },
    {
      "channel": 4,
      "note": 68,
      "start": 7.3751,
      "duration": 0.0425,
      "velocity": 108,
      "chip": "ym2612"
    },
    {
      "channel": 3,
      "note": 64,
      "start": 7.4175,
      "duration": 0.1054,
      "velocity": 108,
      "chip": "ym2612"
    },
    {
      "channel": 4,
      "note": 68,
      "start": 7.4178,
      "duration": 0.1054,
      "velocity": 108,
      "chip": "ym2612"
    },
    {
      "channel": 2,
      "note": 49,
      "start": 7.5228,
      "duration": 0.0136,
      "velocity": 114,
      "chip": "ym2612"
    },
    {
      "channel": 3,
      "note": 64,
      "start": 7.5231,
      "duration": 0.0135,
      "velocity": 108,
      "chip": "ym2612"
    },
    {
      "channel": 4,
      "note": 49,
      "start": 7.5233,
      "duration": 0.0135,
      "velocity": 108,
      "chip": "ym2612"
    },
    {
      "channel": 3,
      "note": 68,
      "start": 7.5367,
      "duration": 0.0123,
      "velocity": 108,
      "chip": "ym2612"
    },
    {
      "channel": 4,
      "note": 49,
      "start": 7.537,
      "duration": 0.0123,
      "velocity": 108,
      "chip": "ym2612"
    },
    {
      "channel": 2,
      "note": 49,
      "start": 7.5488,
      "duration": 0.0119,
      "velocity": 114,
      "chip": "ym2612"
    },
    {
      "channel": 3,
      "note": 68,
      "start": 7.5491,
      "duration": 0.0118,
      "velocity": 108,
      "chip": "ym2612"
    },
    {
      "channel": 4,
      "note": 52,
      "start": 7.5494,
      "duration": 0.0118,
      "velocity": 108,
      "chip": "ym2612"
    },
    {
      "channel": 3,
      "note": 49,
      "start": 7.561,
      "duration": 0.0123,
      "velocity": 108,
      "chip": "ym2612"
    },
    {
      "channel": 4,
      "note": 52,
      "start": 7.5613,
      "duration": 0.0124,
      "velocity": 108,
      "chip": "ym2612"
    },
    {
      "channel": 2,
      "note": 49,
      "start": 7.5733,
      "duration": 0.6403,
      "velocity": 114,
      "chip": "ym2612"
    },
    {
      "channel": 3,
      "note": 49,
      "start": 7.5735,
      "duration": 0.0121,
      "velocity": 108,
      "chip": "ym2612"
    },
    {
      "channel": 4,
      "note": 54,
      "start": 7.5738,
      "duration": 0.0121,
      "velocity": 108,
      "chip": "ym2612"
    },
    {
      "channel": 3,
      "note": 52,
      "start": 7.5858,
      "duration": 0.0117,
      "velocity": 108,
      "chip": "ym2612"
    },
    {
      "channel": 4,
      "note": 54,
      "start": 7.586,
      "duration": 0.0118,
      "velocity": 108,
      "chip": "ym2612"
    },
    {
      "channel": 3,
      "note": 52,
      "start": 7.5976,
      "duration": 0.0122,
      "velocity": 108,
      "chip": "ym2612"
    },
    {
      "channel": 4,
      "note": 56,
      "start": 7.5979,
      "duration": 0.0122,
      "velocity": 108,
      "chip": "ym2612"
    },
    {
      "channel": 3,
      "note": 54,
      "start": 7.61,
      "duration": 0.0119,
      "velocity": 108,
      "chip": "ym2612"
    },
    {
      "channel": 4,
      "note": 56,
      "start": 7.6103,
      "duration": 0.0119,
      "velocity": 108,
      "chip": "ym2612"
    },
    {
      "channel": 3,
      "note": 54,
      "start": 7.6221,
      "duration": 0.013,
      "velocity": 108,
      "chip": "ym2612"
    },
    {
      "channel": 4,
      "note": 59,
      "start": 7.6223,
      "duration": 0.013,
      "velocity": 108,
      "chip": "ym2612"
    },
    {
      "channel": 3,
      "note": 56,
      "start": 7.6352,
      "duration": 0.0118,
      "velocity": 108,
      "chip": "ym2612"
    },
    {
      "channel": 4,
      "note": 59,
      "start": 7.6355,
      "duration": 0.0118,
      "velocity": 108,
      "chip": "ym2612"
    },
    {
      "channel": 3,
      "note": 56,
      "start": 7.6472,
      "duration": 0.0121,
      "velocity": 108,
      "chip": "ym2612"
    },
    {
      "channel": 4,
      "note": 61,
      "start": 7.6475,
      "duration": 0.0121,
      "velocity": 108,
      "chip": "ym2612"
    },
    {
      "channel": 3,
      "note": 59,
      "start": 7.6594,
      "duration": 0.0118,
      "velocity": 108,
      "chip": "ym2612"
    },
    {
      "channel": 4,
      "note": 61,
      "start": 7.6597,
      "duration": 0.0118,
      "velocity": 108,
      "chip": "ym2612"
    },
    {
      "channel": 3,
      "note": 59,
      "start": 7.6714,
      "duration": 0.0122,
      "velocity": 108,
      "chip": "ym2612"
    },
    {
      "channel": 4,
      "note": 64,
      "start": 7.6716,
      "duration": 0.0122,
      "velocity": 108,
      "chip": "ym2612"
    },
    {
      "channel": 3,
      "note": 61,
      "start": 7.6837,
      "duration": 0.0116,
      "velocity": 108,
      "chip": "ym2612"
    },
    {
      "channel": 4,
      "note": 64,
      "start": 7.6839,
      "duration": 0.0116,
      "velocity": 108,
      "chip": "ym2612"
    },
    {
      "channel": 3,
      "note": 61,
      "start": 7.6954,
      "duration": 0.0921,
      "velocity": 108,
      "chip": "ym2612"
    },
    {
      "channel": 4,
      "note": 68,
      "start": 7.6957,
      "duration": 0.0921,
      "velocity": 108,
      "chip": "ym2612"
    },
    {
      "channel": 3,
      "note": 64,
      "start": 7.7877,
      "duration": 0.1052,
      "velocity": 108,
      "chip": "ym2612"
    },
    {
      "channel": 4,
      "note": 68,
      "start": 7.7879,
      "duration": 0.1052,
      "velocity": 108,
      "chip": "ym2612"
    },
    {
      "channel": 3,
      "note": 64,
      "start": 7.893,
      "duration": 0.0129,
      "velocity": 108,
      "chip": "ym2612"
    },
    {
      "channel": 4,
      "note": 49,
      "start": 7.8933,
      "duration": 0.0129,
      "velocity": 108,
      "chip": "ym2612"
    },
    {
      "channel": 3,
      "note": 68,
      "start": 7.9061,
      "duration": 0.012,
      "velocity": 108,
      "chip": "ym2612"
    },
    {
      "channel": 4,
      "note": 49,
      "start": 7.9063,
      "duration": 0.012,
      "velocity": 108,
      "chip": "ym2612"
    },
    {
      "channel": 3,
      "note": 68,
      "start": 7.9182,
      "duration": 0.012,
      "velocity": 108,
      "chip": "ym2612"
    },
    {
      "channel": 4,
      "note": 52,
      "start": 7.9185,
      "duration": 0.012,
      "velocity": 108,
      "chip": "ym2612"
    },
    {
      "channel": 3,
      "note": 49,
      "start": 7.9303,
      "duration": 0.0121,
      "velocity": 108,
      "chip": "ym2612"
    },
    {
      "channel": 4,
      "note": 52,
      "start": 7.9306,
      "duration": 0.0121,
      "velocity": 108,
      "chip": "ym2612"
    },
    {
      "channel": 3,
      "note": 49,
      "start": 7.9425,
      "duration": 0.0121,
      "velocity": 108,
      "chip": "ym2612"
    },
    {
      "channel": 4,
      "note": 54,
      "start": 7.9428,
      "duration": 0.0121,
      "velocity": 108,
      "chip": "ym2612"
    },
    {
      "channel": 3,
      "note": 52,
      "start": 7.9548,
      "duration": 0.0118,
      "velocity": 108,
      "chip": "ym2612"
    },
    {
      "channel": 4,
      "note": 54,
      "start": 7.9551,
      "duration": 0.0118,
      "velocity": 108,
      "chip": "ym2612"
    },
    {
      "channel": 3,
      "note": 52,
      "start": 7.9667,
      "duration": 0.0121,
      "velocity": 108,
      "chip": "ym2612"
    },
    {
      "channel": 4,
      "note": 56,
      "start": 7.967,
      "duration": 0.0121,
      "velocity": 108,
      "chip": "ym2612"
    },
    {
      "channel": 3,
      "note": 54,
      "start": 7.9789,
      "duration": 0.013,
      "velocity": 108,
      "chip": "ym2612"
    },
    {
      "channel": 4,
      "note": 56,
      "start": 7.9792,
      "duration": 0.013,
      "velocity": 108,
      "chip": "ym2612"
    },
    {
      "channel": 3,
      "note": 54,
      "start": 7.9921,
      "duration": 0.012,
      "velocity": 108,
      "chip": "ym2612"
    },
    {
      "channel": 4,
      "note": 59,
      "start": 7.9924,
      "duration": 0.012,
      "velocity": 108,
      "chip": "ym2612"
    },
    {
      "channel": 3,
      "note": 56,
      "start": 8.0043,
      "duration": 0.0119,
      "velocity": 108,
      "chip": "ym2612"
    },
    {
      "channel": 4,
      "note": 59,
      "start": 8.0045,
      "duration": 0.0119,
      "velocity": 108,
      "chip": "ym2612"
    },
    {
      "channel": 3,
      "note": 56,
      "start": 8.0163,
      "duration": 0.0119,
      "velocity": 108,
      "chip": "ym2612"
    },
    {
      "channel": 4,
      "note": 61,
      "start": 8.0166,
      "duration": 0.0119,
      "velocity": 108,
      "chip": "ym2612"
    },
    {
      "channel": 3,
      "note": 59,
      "start": 8.0284,
      "duration": 0.0119,
      "velocity": 108,
      "chip": "ym2612"
    },
    {
      "channel": 4,
      "note": 61,
      "start": 8.0286,
      "duration": 0.0119,
      "velocity": 108,
      "chip": "ym2612"
    },
    {
      "channel": 3,
      "note": 59,
      "start": 8.0404,
      "duration": 0.0122,
      "velocity": 108,
      "chip": "ym2612"
    },
    {
      "channel": 4,
      "note": 64,
      "start": 8.0407,
      "duration": 0.0122,
      "velocity": 108,
      "chip": "ym2612"
    },
    {
      "channel": 3,
      "note": 61,
      "start": 8.0528,
      "duration": 0.0117,
      "velocity": 108,
      "chip": "ym2612"
    },
    {
      "channel": 4,
      "note": 64,
      "start": 8.0531,
      "duration": 0.0117,
      "velocity": 108,
      "chip": "ym2612"
    },
    {
      "channel": 3,
      "note": 61,
      "start": 8.0647,
      "duration": 0.0425,
      "velocity": 108,
      "chip": "ym2612"
    },
    {
      "channel": 4,
      "note": 68,
      "start": 8.065,
      "duration": 0.0425,
      "velocity": 108,
      "chip": "ym2612"
    },
    {
      "channel": 3,
      "note": 64,
      "start": 8.1073,
      "duration": 0.1066,
      "velocity": 108,
      "chip": "ym2612"
    },
    {
      "channel": 4,
      "note": 68,
      "start": 8.1076,
      "duration": 0.1066,
      "velocity": 108,
      "chip": "ym2612"
    },
    {
      "channel": 0,
      "note": 73,
      "start": 8.2134,
      "duration": 0.4784,
      "velocity": 108,
      "chip": "ym2612"
    },
    {
      "channel": 2,
      "note": 49,
      "start": 8.2137,
      "duration": 0.0132,
      "velocity": 114,
      "chip": "ym2612"
    },
    {
      "channel": 3,
      "note": 64,
      "start": 8.214,
      "duration": 0.0131,
      "velocity": 108,
      "chip": "ym2612"
    },
    {
      "channel": 4,
      "note": 49,
      "start": 8.2143,
      "duration": 0.0131,
      "velocity": 108,
      "chip": "ym2612"
    },
    {
      "channel": 3,
      "note": 68,
      "start": 8.2272,
      "duration": 0.0127,
      "velocity": 108,
      "chip": "ym2612"
    },
    {
      "channel": 4,
      "note": 49,
      "start": 8.2275,
      "duration": 0.0127,
      "velocity": 108,
      "chip": "ym2612"
    },
    {
      "channel": 2,
      "note": 49,
      "start": 8.2398,
      "duration": 0.0151,
      "velocity": 114,
      "chip": "ym2612"
    },
    {
      "channel": 3,
      "note": 68,
      "start": 8.24,
      "duration": 0.015,
      "velocity": 108,
      "chip": "ym2612"
    },
    {
      "channel": 4,
      "note": 52,
      "start": 8.2403,
      "duration": 0.015,
      "velocity": 108,
      "chip": "ym2612"
    },
    {
      "channel": 1,
      "note": 73,
      "start": 8.2549,
      "duration": 0.4493,
      "velocity": 108,
      "chip": "ym2612"
    },
    {
      "channel": 3,
      "note": 49,
      "start": 8.2552,
      "duration": 0.0117,
      "velocity": 108,
      "chip": "ym2612"
    },
    {
      "channel": 4,
      "note": 52,
      "start": 8.2555,
      "duration": 0.0117,
      "velocity": 108,
      "chip": "ym2612"
    },
    {
      "channel": 2,
      "note": 49,
      "start": 8.2668,
      "duration": 0.6956,
      "velocity": 114,
      "chip": "ym2612"
    },
    {
      "channel": 3,
      "note": 49,
      "start": 8.2671,
      "duration": 0.0139,
      "velocity": 108,
      "chip": "ym2612"
    },
    {
      "channel": 4,
      "note": 54,
      "start": 8.2674,
      "duration": 0.0139,
      "velocity": 108,
      "chip": "ym2612"
    },
    {
      "channel": 3,
      "note": 52,
      "start": 8.2811,
      "duration": 0.0125,
      "velocity": 108,
      "chip": "ym2612"
    },
    {
      "channel": 4,
      "note": 54,
      "start": 8.2814,
      "duration": 0.0124,
      "velocity": 108,
      "chip": "ym2612"
    },
    {
      "channel": 3,
      "note": 52,
      "start": 8.2937,
      "duration": 0.0127,
      "velocity": 108,
      "chip": "ym2612"
    },
    {
      "channel": 4,
      "note": 56,
      "start": 8.294,
      "duration": 0.0127,
      "velocity": 108,
      "chip": "ym2612"
    },
    {
      "channel": 3,
      "note": 54,
      "start": 8.3065,
      "duration": 0.0125,
      "velocity": 108,
      "chip": "ym2612"
    },
    {
      "channel": 4,
      "note": 56,
      "start": 8.3068,
      "duration": 0.0125,
      "velocity": 108,
      "chip": "ym2612"
    },
    {
      "channel": 3,
      "note": 54,
      "start": 8.3191,
      "duration": 0.0126,
      "velocity": 108,
      "chip": "ym2612"
    },
    {
      "channel": 4,
      "note": 59,
      "start": 8.3194,
      "duration": 0.0126,
      "velocity": 108,
      "chip": "ym2612"
    },
    {
      "channel": 3,
      "note": 56,
      "start": 8.3318,
      "duration": 0.0125,
      "velocity": 108,
      "chip": "ym2612"
    },
    {
      "channel": 4,
      "note": 59,
      "start": 8.3321,
      "duration": 0.0125,
      "velocity": 108,
      "chip": "ym2612"
    },
    {
      "channel": 3,
      "note": 56,
      "start": 8.3445,
      "duration": 0.0126,
      "velocity": 108,
      "chip": "ym2612"
    },
    {
      "channel": 4,
      "note": 61,
      "start": 8.3448,
      "duration": 0.0126,
      "velocity": 108,
      "chip": "ym2612"
    },
    {
      "channel": 3,
      "note": 59,
      "start": 8.3572,
      "duration": 0.0125,
      "velocity": 108,
      "chip": "ym2612"
    },
    {
      "channel": 4,
      "note": 61,
      "start": 8.3575,
      "duration": 0.0125,
      "velocity": 108,
      "chip": "ym2612"
    },
    {
      "channel": 3,
      "note": 59,
      "start": 8.3698,
      "duration": 0.0128,
      "velocity": 108,
      "chip": "ym2612"
    },
    {
      "channel": 4,
      "note": 64,
      "start": 8.3701,
      "duration": 0.0128,
      "velocity": 108,
      "chip": "ym2612"
    },
    {
      "channel": 3,
      "note": 61,
      "start": 8.3828,
      "duration": 0.0119,
      "velocity": 108,
      "chip": "ym2612"
    },
    {
      "channel": 4,
      "note": 64,
      "start": 8.383,
      "duration": 0.0119,
      "velocity": 108,
      "chip": "ym2612"
    },
    {
      "channel": 3,
      "note": 61,
      "start": 8.3948,
      "duration": 0.0926,
      "velocity": 108,
      "chip": "ym2612"
    },
    {
      "channel": 4,
      "note": 68,
      "start": 8.3951,
      "duration": 0.0926,
      "velocity": 108,
      "chip": "ym2612"
    },
    {
      "channel": 3,
      "note": 64,
      "start": 8.4876,
      "duration": 0.1052,
      "velocity": 108,
      "chip": "ym2612"
    },
    {
      "channel": 4,
      "note": 68,
      "start": 8.4878,
      "duration": 0.1052,
      "velocity": 108,
      "chip": "ym2612"
    },
    {
      "channel": 3,
      "note": 64,
      "start": 8.5929,
      "duration": 0.0135,
      "velocity": 108,
      "chip": "ym2612"
    },
    {
      "channel": 4,
      "note": 49,
      "start": 8.5932,
      "duration": 0.0134,
      "velocity": 108,
      "chip": "ym2612"
    },
    {
      "channel": 3,
      "note": 68,
      "start": 8.6065,
      "duration": 0.0119,
      "velocity": 108,
      "chip": "ym2612"
    },
    {
      "channel": 4,
      "note": 49,
      "start": 8.6068,
      "duration": 0.0119,
      "velocity": 108,
      "chip": "ym2612"
    },
    {
      "channel": 3,
      "note": 68,
      "start": 8.6185,
      "duration": 0.012,
      "velocity": 108,
      "chip": "ym2612"
    },
    {
      "channel": 4,
      "note": 52,
      "start": 8.6188,
      "duration": 0.012,
      "velocity": 108,
      "chip": "ym2612"
    },
    {
      "channel": 3,
      "note": 49,
      "start": 8.6307,
      "duration": 0.012,
      "velocity": 108,
      "chip": "ym2612"
    },
    {
      "channel": 4,
      "note": 52,
      "start": 8.6309,
      "duration": 0.012,
      "velocity": 108,
      "chip": "ym2612"
    },
    {
      "channel": 3,
      "note": 49,
      "start": 8.6428,
      "duration": 0.012,
      "velocity": 108,
      "chip": "ym2612"
    },
    {
      "channel": 4,
      "note": 54,
      "start": 8.6431,
      "duration": 0.012,
      "velocity": 108,
      "chip": "ym2612"
    },
    {
      "channel": 3,
      "note": 52,
      "start": 8.6549,
      "duration": 0.0119,
      "velocity": 108,
      "chip": "ym2612"
    },
    {
      "channel": 4,
      "note": 54,
      "start": 8.6552,
      "duration": 0.0119,
      "velocity": 108,
      "chip": "ym2612"
    },
    {
      "channel": 3,
      "note": 52,
      "start": 8.6669,
      "duration": 0.012,
      "velocity": 108,
      "chip": "ym2612"
    },
    {
      "channel": 4,
      "note": 56,
      "start": 8.6672,
      "duration": 0.012,
      "velocity": 108,
      "chip": "ym2612"
    },
    {
      "channel": 3,
      "note": 54,
      "start": 8.6791,
      "duration": 0.0132,
      "velocity": 108,
      "chip": "ym2612"
    },
    {
      "channel": 4,
      "note": 56,
      "start": 8.6794,
      "duration": 0.0132,
      "velocity": 108,
      "chip": "ym2612"
    },
    {
      "channel": 0,
      "note": 71,
      "start": 8.692,
      "duration": 0.0485,
      "velocity": 108,
      "chip": "ym2612"
    },
    {
      "channel": 3,
      "note": 54,
      "start": 8.6924,
      "duration": 0.0121,
      "velocity": 108,
      "chip": "ym2612"
    },
    {
      "channel": 4,
      "note": 59,
      "start": 8.6927,
      "duration": 0.0121,
      "velocity": 108,
      "chip": "ym2612"
    },
    {
      "channel": 1,
      "note": 71,
      "start": 8.7043,
      "duration": 0.0485,
      "velocity": 108,
      "chip": "ym2612"
    },
    {
      "channel": 3,
      "note": 56,
      "start": 8.7046,
      "duration": 0.0119,
      "velocity": 108,
      "chip": "ym2612"
    },
    {
      "channel": 4,
      "note": 59,
      "start": 8.7049,
      "duration": 0.0119,
      "velocity": 108,
      "chip": "ym2612"
    },
    {
      "channel": 3,
      "note": 56,
      "start": 8.7167,
      "duration": 0.0118,
      "velocity": 108,
      "chip": "ym2612"
    },
    {
      "channel": 4,
      "note": 61,
      "start": 8.7169,
      "duration": 0.0118,
      "velocity": 108,
      "chip": "ym2612"
    },
    {
      "channel": 3,
      "note": 59,
      "start": 8.7286,
      "duration": 0.0123,
      "velocity": 108,
      "chip": "ym2612"
    },
    {
      "channel": 4,
      "note": 61,
      "start": 8.7289,
      "duration": 0.0123,
      "velocity": 108,
      "chip": "ym2612"
    },
    {
      "channel": 0,
      "note": 68,
      "start": 8.7406,
      "duration": 0.0242,
      "velocity": 108,
      "chip": "ym2612"
    },
    {
      "channel": 3,
      "note": 59,
      "start": 8.741,
      "duration": 0.0121,
      "velocity": 108,
      "chip": "ym2612"
    },
    {
      "channel": 4,
      "note": 64,
      "start": 8.7413,
      "duration": 0.0122,
      "velocity": 108,
      "chip": "ym2612"
    },
    {
      "channel": 1,
      "note": 68,
      "start": 8.753,
      "duration": 0.1039,
      "velocity": 108,
      "chip": "ym2612"
    },
    {
      "channel": 3,
      "note": 61,
      "start": 8.7533,
      "duration": 0.0118,
      "velocity": 108,
      "chip": "ym2612"
    },
    {
      "channel": 4,
      "note": 64,
      "start": 8.7536,
      "duration": 0.0118,
      "velocity": 108,
      "chip": "ym2612"
    },
    {
      "channel": 3,
      "note": 61,
      "start": 8.7653,
      "duration": 0.0918,
      "velocity": 108,
      "chip": "ym2612"
    },
    {
      "channel": 4,
      "note": 68,
      "start": 8.7655,
      "duration": 0.0918,
      "velocity": 108,
      "chip": "ym2612"
    },
    {
      "channel": 3,
      "note": 64,
      "start": 8.8572,
      "duration": 0.1055,
      "velocity": 108,
      "chip": "ym2612"
    },
    {
      "channel": 4,
      "note": 68,
      "start": 8.8575,
      "duration": 0.1055,
      "velocity": 108,
      "chip": "ym2612"
    },
    {
      "channel": 0,
      "note": 61,
      "start": 8.9623,
      "duration": 0.6894,
      "velocity": 108,
      "chip": "ym2612"
    },
    {
      "channel": 2,
      "note": 49,
      "start": 8.9627,
      "duration": 0.0138,
      "velocity": 114,
      "chip": "ym2612"
    },
    {
      "channel": 3,
      "note": 64,
      "start": 8.9629,
      "duration": 0.0137,
      "velocity": 108,
      "chip": "ym2612"
    },
    {
      "channel": 4,
      "note": 49,
      "start": 8.9632,
      "duration": 0.0137,
      "velocity": 108,
      "chip": "ym2612"
    },
    {
      "channel": 1,
      "note": 61,
      "start": 8.9764,
      "duration": 0.6897,
      "velocity": 108,
      "chip": "ym2612"
    },
    {
      "channel": 3,
      "note": 68,
      "start": 8.9767,
      "duration": 0.0124,
      "velocity": 108,
      "chip": "ym2612"
    },
    {
      "channel": 4,
      "note": 49,
      "start": 8.977,
      "duration": 0.0123,
      "velocity": 108,
      "chip": "ym2612"
    },
    {
      "channel": 2,
      "note": 49,
      "start": 8.989,
      "duration": 0.012,
      "velocity": 114,
      "chip": "ym2612"
    },
    {
      "channel": 3,
      "note": 68,
      "start": 8.9892,
      "duration": 0.0119,
      "velocity": 108,
      "chip": "ym2612"
    },
    {
      "channel": 4,
      "note": 52,
      "start": 8.9895,
      "duration": 0.0119,
      "velocity": 108,
      "chip": "ym2612"
    },
    {
      "channel": 3,
      "note": 49,
      "start": 9.0013,
      "duration": 0.0124,
      "velocity": 108,
      "chip": "ym2612"
    },
    {
      "channel": 4,
      "note": 52,
      "start": 9.0016,
      "duration": 0.0124,
      "velocity": 108,
      "chip": "ym2612"
    },
    {
      "channel": 2,
      "note": 49,
      "start": 9.0136,
      "duration": 0.6384,
      "velocity": 114,
      "chip": "ym2612"
    },
    {
      "channel": 3,
      "note": 49,
      "start": 9.0139,
      "duration": 0.0121,
      "velocity": 108,
      "chip": "ym2612"
    },
    {
      "channel": 4,
      "note": 54,
      "start": 9.0141,
      "duration": 0.0121,
      "velocity": 108,
      "chip": "ym2612"
    },
    {
      "channel": 3,
      "note": 52,
      "start": 9.0261,
      "duration": 0.0118,
      "velocity": 108,
      "chip": "ym2612"
    },
    {
      "channel": 4,
      "note": 54,
      "start": 9.0264,
      "duration": 0.0118,
      "velocity": 108,
      "chip": "ym2612"
    },
    {
      "channel": 3,
      "note": 52,
      "start": 9.0381,
      "duration": 0.0122,
      "velocity": 108,
      "chip": "ym2612"
    },
    {
      "channel": 4,
      "note": 56,
      "start": 9.0383,
      "duration": 0.0122,
      "velocity": 108,
      "chip": "ym2612"
    },
    {
      "channel": 3,
      "note": 54,
      "start": 9.0504,
      "duration": 0.012,
      "velocity": 108,
      "chip": "ym2612"
    },
    {
      "channel": 4,
      "note": 56,
      "start": 9.0506,
      "duration": 0.012,
      "velocity": 108,
      "chip": "ym2612"
    },
    {
      "channel": 3,
      "note": 54,
      "start": 9.0625,
      "duration": 0.0129,
      "velocity": 108,
      "chip": "ym2612"
    },
    {
      "channel": 4,
      "note": 59,
      "start": 9.0628,
      "duration": 0.0129,
      "velocity": 108,
      "chip": "ym2612"
    },
    {
      "channel": 3,
      "note": 56,
      "start": 9.0756,
      "duration": 0.0119,
      "velocity": 108,
      "chip": "ym2612"
    },
    {
      "channel": 4,
      "note": 59,
      "start": 9.0758,
      "duration": 0.0119,
      "velocity": 108,
      "chip": "ym2612"
    },
    {
      "channel": 3,
      "note": 56,
      "start": 9.0876,
      "duration": 0.012,
      "velocity": 108,
      "chip": "ym2612"
    },
    {
      "channel": 4,
      "note": 61,
      "start": 9.0878,
      "duration": 0.012,
      "velocity": 108,
      "chip": "ym2612"
    },
    {
      "channel": 3,
      "note": 59,
      "start": 9.0997,
      "duration": 0.012,
      "velocity": 108,
      "chip": "ym2612"
    },
    {
      "channel": 4,
      "note": 61,
      "start": 9.1,
      "duration": 0.012,
      "velocity": 108,
      "chip": "ym2612"
    },
    {
      "channel": 3,
      "note": 59,
      "start": 9.1118,
      "duration": 0.0121,
      "velocity": 108,
      "chip": "ym2612"
    },
    {
      "channel": 4,
      "note": 64,
      "start": 9.1121,
      "duration": 0.0121,
      "velocity": 108,
      "chip": "ym2612"
    },
    {
      "channel": 3,
      "note": 61,
      "start": 9.124,
      "duration": 0.0117,
      "velocity": 108,
      "chip": "ym2612"
    },
    {
      "channel": 4,
      "note": 64,
      "start": 9.1243,
      "duration": 0.0117,
      "velocity": 108,
      "chip": "ym2612"
    },
    {
      "channel": 3,
      "note": 61,
      "start": 9.1358,
      "duration": 0.0916,
      "velocity": 108,
      "chip": "ym2612"
    },
    {
      "channel": 4,
      "note": 68,
      "start": 9.1361,
      "duration": 0.0916,
      "velocity": 108,
      "chip": "ym2612"
    },
    {
      "channel": 3,
      "note": 64,
      "start": 9.2276,
      "duration": 0.1052,
      "velocity": 108,
      "chip": "ym2612"
    },
    {
      "channel": 4,
      "note": 68,
      "start": 9.2278,
      "duration": 0.1052,
      "velocity": 108,
      "chip": "ym2612"
    },
    {
      "channel": 3,
      "note": 64,
      "start": 9.3329,
      "duration": 0.0135,
      "velocity": 108,
      "chip": "ym2612"
    },
    {
      "channel": 4,
      "note": 49,
      "start": 9.3332,
      "duration": 0.0135,
      "velocity": 108,
      "chip": "ym2612"
    },
    {
      "channel": 3,
      "note": 68,
      "start": 9.3465,
      "duration": 0.012,
      "velocity": 108,
      "chip": "ym2612"
    },
    {
      "channel": 4,
      "note": 49,
      "start": 9.3468,
      "duration": 0.012,
      "velocity": 108,
      "chip": "ym2612"
    },
    {
      "channel": 3,
      "note": 68,
      "start": 9.3587,
      "duration": 0.0121,
      "velocity": 108,
      "chip": "ym2612"
    },
    {
      "channel": 4,
      "note": 52,
      "start": 9.359,
      "duration": 0.0121,
      "velocity": 108,
      "chip": "ym2612"
    },
    {
      "channel": 3,
      "note": 49,
      "start": 9.3709,
      "duration": 0.012,
      "velocity": 108,
      "chip": "ym2612"
    },
    {
      "channel": 4,
      "note": 52,
      "start": 9.3712,
      "duration": 0.012,
      "velocity": 108,
      "chip": "ym2612"
    },
    {
      "channel": 3,
      "note": 49,
      "start": 9.3831,
      "duration": 0.012,
      "velocity": 108,
      "chip": "ym2612"
    },
    {
      "channel": 4,
      "note": 54,
      "start": 9.3833,
      "duration": 0.012,
      "velocity": 108,
      "chip": "ym2612"
    },
    {
      "channel": 3,
      "note": 52,
      "start": 9.3951,
      "duration": 0.0119,
      "velocity": 108,
      "chip": "ym2612"
    },
    {
      "channel": 4,
      "note": 54,
      "start": 9.3954,
      "duration": 0.0119,
      "velocity": 108,
      "chip": "ym2612"
    },
    {
      "channel": 3,
      "note": 52,
      "start": 9.4072,
      "duration": 0.012,
      "velocity": 108,
      "chip": "ym2612"
    },
    {
      "channel": 4,
      "note": 56,
      "start": 9.4074,
      "duration": 0.012,
      "velocity": 108,
      "chip": "ym2612"
    },
    {
      "channel": 3,
      "note": 54,
      "start": 9.4193,
      "duration": 0.013,
      "velocity": 108,
      "chip": "ym2612"
    },
    {
      "channel": 4,
      "note": 56,
      "start": 9.4196,
      "duration": 0.013,
      "velocity": 108,
      "chip": "ym2612"
    },
    {
      "channel": 3,
      "note": 54,
      "start": 9.4324,
      "duration": 0.0119,
      "velocity": 108,
      "chip": "ym2612"
    },
    {
      "channel": 4,
      "note": 59,
      "start": 9.4327,
      "duration": 0.0119,
      "velocity": 108,
      "chip": "ym2612"
    },
    {
      "channel": 3,
      "note": 56,
      "start": 9.4445,
      "duration": 0.0118,
      "velocity": 108,
      "chip": "ym2612"
    },
    {
      "channel": 4,
      "note": 59,
      "start": 9.4447,
      "duration": 0.0118,
      "velocity": 108,
      "chip": "ym2612"
    },
    {
      "channel": 3,
      "note": 56,
      "start": 9.4564,
      "duration": 0.0119,
      "velocity": 108,
      "chip": "ym2612"
    },
    {
      "channel": 4,
      "note": 61,
      "start": 9.4567,
      "duration": 0.0119,
      "velocity": 108,
      "chip": "ym2612"
    },
    {
      "channel": 3,
      "note": 59,
      "start": 9.4685,
      "duration": 0.012,
      "velocity": 108,
      "chip": "ym2612"
    },
    {
      "channel": 4,
      "note": 61,
      "start": 9.4688,
      "duration": 0.012,
      "velocity": 108,
      "chip": "ym2612"
    },
    {
      "channel": 3,
      "note": 59,
      "start": 9.4806,
      "duration": 0.0121,
      "velocity": 108,
      "chip": "ym2612"
    },
    {
      "channel": 4,
      "note": 64,
      "start": 9.4809,
      "duration": 0.0121,
      "velocity": 108,
      "chip": "ym2612"
    },
    {
      "channel": 3,
      "note": 61,
      "start": 9.4928,
      "duration": 0.0118,
      "velocity": 108,
      "chip": "ym2612"
    },
    {
      "channel": 4,
      "note": 64,
      "start": 9.4931,
      "duration": 0.0118,
      "velocity": 108,
      "chip": "ym2612"
    },
    {
      "channel": 3,
      "note": 61,
      "start": 9.5047,
      "duration": 0.0418,
      "velocity": 108,
      "chip": "ym2612"
    },
    {
      "channel": 4,
      "note": 68,
      "start": 9.505,
      "duration": 0.0418,
      "velocity": 108,
      "chip": "ym2612"
    },
    {
      "channel": 3,
      "note": 64,
      "start": 9.5467,
      "duration": 0.1056,
      "velocity": 108,
      "chip": "ym2612"
    },
    {
      "channel": 4,
      "note": 68,
      "start": 9.547,
      "duration": 0.1056,
      "velocity": 108,
      "chip": "ym2612"
    },
    {
      "channel": 0,
      "note": 73,
      "start": 9.6519,
      "duration": 0.4793,
      "velocity": 108,
      "chip": "ym2612"
    },
    {
      "channel": 2,
      "note": 47,
      "start": 9.6522,
      "duration": 0.0141,
      "velocity": 114,
      "chip": "ym2612"
    },
    {
      "channel": 3,
      "note": 64,
      "start": 9.6524,
      "duration": 0.014,
      "velocity": 108,
      "chip": "ym2612"
    },
    {
      "channel": 4,
      "note": 49,
      "start": 9.6527,
      "duration": 0.014,
      "velocity": 108,
      "chip": "ym2612"
    },
    {
      "channel": 1,
      "note": 73,
      "start": 9.6663,
      "duration": 0.4774,
      "velocity": 108,
      "chip": "ym2612"
    },
    {
      "channel": 3,
      "note": 68,
      "start": 9.6666,
      "duration": 0.0129,
      "velocity": 108,
      "chip": "ym2612"
    },
    {
      "channel": 4,
      "note": 49,
      "start": 9.6669,
      "duration": 0.0129,
      "velocity": 108,
      "chip": "ym2612"
    },
    {
      "channel": 2,
      "note": 47,
      "start": 9.6793,
      "duration": 0.0126,
      "velocity": 114,
      "chip": "ym2612"
    },
    {
      "channel": 3,
      "note": 68,
      "start": 9.6796,
      "duration": 0.0125,
      "velocity": 108,
      "chip": "ym2612"
    },
    {
      "channel": 4,
      "note": 52,
      "start": 9.6799,
      "duration": 0.0125,
      "velocity": 108,
      "chip": "ym2612"
    },
    {
      "channel": 3,
      "note": 49,
      "start": 9.6922,
      "duration": 0.0129,
      "velocity": 108,
      "chip": "ym2612"
    },
    {
      "channel": 4,
      "note": 52,
      "start": 9.6925,
      "duration": 0.0129,
      "velocity": 108,
      "chip": "ym2612"
    },
    {
      "channel": 2,
      "note": 47,
      "start": 9.705,
      "duration": 0.6971,
      "velocity": 114,
      "chip": "ym2612"
    },
    {
      "channel": 3,
      "note": 49,
      "start": 9.7053,
      "duration": 0.0127,
      "velocity": 108,
      "chip": "ym2612"
    },
    {
      "channel": 4,
      "note": 54,
      "start": 9.7055,
      "duration": 0.0126,
      "velocity": 108,
      "chip": "ym2612"
    },
    {
      "channel": 3,
      "note": 52,
      "start": 9.718,
      "duration": 0.0124,
      "velocity": 108,
      "chip": "ym2612"
    },
    {
      "channel": 4,
      "note": 54,
      "start": 9.7183,
      "duration": 0.0124,
      "velocity": 108,
      "chip": "ym2612"
    },
    {
      "channel": 3,
      "note": 52,
      "start": 9.7306,
      "duration": 0.0126,
      "velocity": 108,
      "chip": "ym2612"
    },
    {
      "channel": 4,
      "note": 56,
      "start": 9.7309,
      "duration": 0.0126,
      "velocity": 108,
      "chip": "ym2612"
    },
    {
      "channel": 3,
      "note": 54,
      "start": 9.7434,
      "duration": 0.0125,
      "velocity": 108,
      "chip": "ym2612"
    },
    {
      "channel": 4,
      "note": 56,
      "start": 9.7436,
      "duration": 0.0125,
      "velocity": 108,
      "chip": "ym2612"
    },
    {
      "channel": 3,
      "note": 54,
      "start": 9.756,
      "duration": 0.0126,
      "velocity": 108,
      "chip": "ym2612"
    },
    {
      "channel": 4,
      "note": 59,
      "start": 9.7563,
      "duration": 0.0126,
      "velocity": 108,
      "chip": "ym2612"
    },
    {
      "channel": 3,
      "note": 56,
      "start": 9.7688,
      "duration": 0.0124,
      "velocity": 108,
      "chip": "ym2612"
    },
    {
      "channel": 4,
      "note": 59,
      "start": 9.769,
      "duration": 0.0124,
      "velocity": 108,
      "chip": "ym2612"
    },
    {
      "channel": 3,
      "note": 56,
      "start": 9.7813,
      "duration": 0.0126,
      "velocity": 108,
      "chip": "ym2612"
    },
    {
      "channel": 4,
      "note": 61,
      "start": 9.7816,
      "duration": 0.0126,
      "velocity": 108,
      "chip": "ym2612"
    },
    {
      "channel": 3,
      "note": 59,
      "start": 9.7941,
      "duration": 0.0125,
      "velocity": 108,
      "chip": "ym2612"
    },
    {
      "channel": 4,
      "note": 61,
      "start": 9.7943,
      "duration": 0.0125,
      "velocity": 108,
      "chip": "ym2612"
    },
    {
      "channel": 3,
      "note": 59,
      "start": 9.8067,
      "duration": 0.0126,
      "velocity": 108,
      "chip": "ym2612"
    },
    {
      "channel": 4,
      "note": 64,
      "start": 9.8069,
      "duration": 0.0127,
      "velocity": 108,
      "chip": "ym2612"
    },
    {
      "channel": 3,
      "note": 61,
      "start": 9.8195,
      "duration": 0.0131,
      "velocity": 108,
      "chip": "ym2612"
    },
    {
      "channel": 4,
      "note": 64,
      "start": 9.8197,
      "duration": 0.0131,
      "velocity": 108,
      "chip": "ym2612"
    },
    {
      "channel": 3,
      "note": 61,
      "start": 9.8327,
      "duration": 0.0941,
      "velocity": 108,
      "chip": "ym2612"
    },
    {
      "channel": 4,
      "note": 68,
      "start": 9.833,
      "duration": 0.0941,
      "velocity": 108,
      "chip": "ym2612"
    },
    {
      "channel": 3,
      "note": 64,
      "start": 9.9269,
      "duration": 0.1052,
      "velocity": 108,
      "chip": "ym2612"
    },
    {
      "channel": 4,
      "note": 68,
      "start": 9.9272,
      "duration": 0.1052,
      "velocity": 108,
      "chip": "ym2612"
    },
    {
      "channel": 3,
      "note": 64,
      "start": 10.0323,
      "duration": 0.0135,
      "velocity": 108,
      "chip": "ym2612"
    },
    {
      "channel": 4,
      "note": 49,
      "start": 10.0325,
      "duration": 0.0134,
      "velocity": 108,
      "chip": "ym2612"
    },
    {
      "channel": 3,
      "note": 68,
      "start": 10.0459,
      "duration": 0.0119,
      "velocity": 108,
      "chip": "ym2612"
    },
    {
      "channel": 4,
      "note": 49,
      "start": 10.0461,
      "duration": 0.0119,
      "velocity": 108,
      "chip": "ym2612"
    },
    {
      "channel": 3,
      "note": 68,
      "start": 10.0579,
      "duration": 0.0119,
      "velocity": 108,
      "chip": "ym2612"
    },
    {
      "channel": 4,
      "note": 52,
      "start": 10.0582,
      "duration": 0.0119,
      "velocity": 108,
      "chip": "ym2612"
    },
    {
      "channel": 3,
      "note": 49,
      "start": 10.0699,
      "duration": 0.012,
      "velocity": 108,
      "chip": "ym2612"
    },
    {
      "channel": 4,
      "note": 52,
      "start": 10.0702,
      "duration": 0.012,
      "velocity": 108,
      "chip": "ym2612"
    },
    {
      "channel": 3,
      "note": 49,
      "start": 10.082,
      "duration": 0.012,
      "velocity": 108,
      "chip": "ym2612"
    },
    {
      "channel": 4,
      "note": 54,
      "start": 10.0823,
      "duration": 0.012,
      "velocity": 108,
      "chip": "ym2612"
    },
    {
      "channel": 3,
      "note": 52,
      "start": 10.0942,
      "duration": 0.0118,
      "velocity": 108,
      "chip": "ym2612"
    },
    {
      "channel": 4,
      "note": 54,
      "start": 10.0944,
      "duration": 0.0118,
      "velocity": 108,
      "chip": "ym2612"
    },
    {
      "channel": 3,
      "note": 52,
      "start": 10.1061,
      "duration": 0.0122,
      "velocity": 108,
      "chip": "ym2612"
    },
    {
      "channel": 4,
      "note": 56,
      "start": 10.1064,
      "duration": 0.0122,
      "velocity": 108,
      "chip": "ym2612"
    },
    {
      "channel": 3,
      "note": 54,
      "start": 10.1184,
      "duration": 0.0132,
      "velocity": 108,
      "chip": "ym2612"
    },
    {
      "channel": 4,
      "note": 56,
      "start": 10.1187,
      "duration": 0.0132,
      "velocity": 108,
      "chip": "ym2612"
    },
    {
      "channel": 0,
      "note": 75,
      "start": 10.1313,
      "duration": 0.0485,
      "velocity": 108,
      "chip": "ym2612"
    },
    {
      "channel": 3,
      "note": 54,
      "start": 10.1317,
      "duration": 0.0123,
      "velocity": 108,
      "chip": "ym2612"
    },
    {
      "channel": 4,
      "note": 59,
      "start": 10.132,
      "duration": 0.0122,
      "velocity": 108,
      "chip": "ym2612"
    },
    {
      "channel": 1,
      "note": 75,
      "start": 10.1438,
      "duration": 0.0485,
      "velocity": 108,
      "chip": "ym2612"
    },
    {
      "channel": 3,
      "note": 56,
      "start": 10.1441,
      "duration": 0.0118,
      "velocity": 108,
      "chip": "ym2612"
    },
    {
      "channel": 4,
      "note": 59,
      "start": 10.1444,
      "duration": 0.0118,
      "velocity": 108,
      "chip": "ym2612"
    },
    {
      "channel": 3,
      "note": 56,
      "start": 10.1561,
      "duration": 0.0119,
      "velocity": 108,
      "chip": "ym2612"
    },
    {
      "channel": 4,
      "note": 61,
      "start": 10.1563,
      "duration": 0.0118,
      "velocity": 108,
      "chip": "ym2612"
    },
    {
      "channel": 3,
      "note": 59,
      "start": 10.1681,
      "duration": 0.0121,
      "velocity": 108,
      "chip": "ym2612"
    },
    {
      "channel": 4,
      "note": 61,
      "start": 10.1683,
      "duration": 0.0121,
      "velocity": 108,
      "chip": "ym2612"
    },
    {
      "channel": 0,
      "note": 76,
      "start": 10.18,
      "duration": 0.0244,
      "velocity": 108,
      "chip": "ym2612"
    },
    {
      "channel": 3,
      "note": 59,
      "start": 10.1803,
      "duration": 0.0124,
      "velocity": 108,
      "chip": "ym2612"
    },
    {
      "channel": 4,
      "note": 64,
      "start": 10.1806,
      "duration": 0.0123,
      "velocity": 108,
      "chip": "ym2612"
    },
    {
      "channel": 1,
      "note": 76,
      "start": 10.1925,
      "duration": 0.1039,
      "velocity": 108,
      "chip": "ym2612"
    },
    {
      "channel": 3,
      "note": 61,
      "start": 10.1928,
      "duration": 0.0118,
      "velocity": 108,
      "chip": "ym2612"
    },
    {
      "channel": 4,
      "note": 64,
      "start": 10.1931,
      "duration": 0.0118,
      "velocity": 108,
      "chip": "ym2612"
    },
    {
      "channel": 3,
      "note": 61,
      "start": 10.2048,
      "duration": 0.0919,
      "velocity": 108,
      "chip": "ym2612"
    },
    {
      "channel": 4,
      "note": 68,
      "start": 10.2051,
      "duration": 0.0919,
      "velocity": 108,
      "chip": "ym2612"
    },
    {
      "channel": 3,
      "note": 64,
      "start": 10.2968,
      "duration": 0.1055,
      "velocity": 108,
      "chip": "ym2612"
    },
    {
      "channel": 4,
      "note": 68,
      "start": 10.2971,
      "duration": 0.1055,
      "velocity": 108,
      "chip": "ym2612"
    },
    {
      "channel": 0,
      "note": 73,
      "start": 10.4019,
      "duration": 0.4692,
      "velocity": 108,
      "chip": "ym2612"
    },
    {
      "channel": 2,
      "note": 49,
      "start": 10.4022,
      "duration": 0.0138,
      "velocity": 114,
      "chip": "ym2612"
    },
    {
      "channel": 3,
      "note": 64,
      "start": 10.4025,
      "duration": 0.0137,
      "velocity": 108,
      "chip": "ym2612"
    },
    {
      "channel": 4,
      "note": 49,
      "start": 10.4027,
      "duration": 0.0137,
      "velocity": 108,
      "chip": "ym2612"
    },
    {
      "channel": 1,
      "note": 73,
      "start": 10.416,
      "duration": 0.4673,
      "velocity": 108,
      "chip": "ym2612"
    },
    {
      "channel": 3,
      "note": 68,
      "start": 10.4163,
      "duration": 0.0123,
      "velocity": 108,
      "chip": "ym2612"
    },
    {
      "channel": 4,
      "note": 49,
      "start": 10.4166,
      "duration": 0.0122,
      "velocity": 108,
      "chip": "ym2612"
    },
    {
      "channel": 2,
      "note": 49,
      "start": 10.4285,
      "duration": 0.012,
      "velocity": 114,
      "chip": "ym2612"
    },
    {
      "channel": 3,
      "note": 68,
      "start": 10.4287,
      "duration": 0.0119,
      "velocity": 108,
      "chip": "ym2612"
    },
    {
      "channel": 4,
      "note": 52,
      "start": 10.429,
      "duration": 0.0119,
      "velocity": 108,
      "chip": "ym2612"
    },
    {
      "channel": 3,
      "note": 49,
      "start": 10.4408,
      "duration": 0.0123,
      "velocity": 108,
      "chip": "ym2612"
    },
    {
      "channel": 4,
      "note": 52,
      "start": 10.4411,
      "duration": 0.0123,
      "velocity": 108,
      "chip": "ym2612"
    },
    {
      "channel": 2,
      "note": 49,
      "start": 10.4529,
      "duration": 0.6379,
      "velocity": 114,
      "chip": "ym2612"
    },
    {
      "channel": 3,
      "note": 49,
      "start": 10.4532,
      "duration": 0.012,
      "velocity": 108,
      "chip": "ym2612"
    },
    {
      "channel": 4,
      "note": 54,
      "start": 10.4535,
      "duration": 0.012,
      "velocity": 108,
      "chip": "ym2612"
    },
    {
      "channel": 3,
      "note": 52,
      "start": 10.4653,
      "duration": 0.0117,
      "velocity": 108,
      "chip": "ym2612"
    },
    {
      "channel": 4,
      "note": 54,
      "start": 10.4656,
      "duration": 0.0117,
      "velocity": 108,
      "chip": "ym2612"
    },
    {
      "channel": 3,
      "note": 52,
      "start": 10.4771,
      "duration": 0.0121,
      "velocity": 108,
      "chip": "ym2612"
    },
    {
      "channel": 4,
      "note": 56,
      "start": 10.4774,
      "duration": 0.0121,
      "velocity": 108,
      "chip": "ym2612"
    },
    {
      "channel": 3,
      "note": 54,
      "start": 10.4894,
      "duration": 0.0119,
      "velocity": 108,
      "chip": "ym2612"
    },
    {
      "channel": 4,
      "note": 56,
      "start": 10.4897,
      "duration": 0.0119,
      "velocity": 108,
      "chip": "ym2612"
    },
    {
      "channel": 3,
      "note": 54,
      "start": 10.5014,
      "duration": 0.013,
      "velocity": 108,
      "chip": "ym2612"
    },
    {
      "channel": 4,
      "note": 59,
      "start": 10.5017,
      "duration": 0.013,
      "velocity": 108,
      "chip": "ym2612"
    },
    {
      "channel": 3,
      "note": 56,
      "start": 10.5146,
      "duration": 0.0118,
      "velocity": 108,
      "chip": "ym2612"
    },
    {
      "channel": 4,
      "note": 59,
      "start": 10.5149,
      "duration": 0.0118,
      "velocity": 108,
      "chip": "ym2612"
    },
    {
      "channel": 3,
      "note": 56,
      "start": 10.5266,
      "duration": 0.012,
      "velocity": 108,
      "chip": "ym2612"
    },
    {
      "channel": 4,
      "note": 61,
      "start": 10.5268,
      "duration": 0.012,
      "velocity": 108,
      "chip": "ym2612"
    },
    {
      "channel": 3,
      "note": 59,
      "start": 10.5387,
      "duration": 0.0119,
      "velocity": 108,
      "chip": "ym2612"
    },
    {
      "channel": 4,
      "note": 61,
      "start": 10.539,
      "duration": 0.0119,
      "velocity": 108,
      "chip": "ym2612"
    },
    {
      "channel": 3,
      "note": 59,
      "start": 10.5507,
      "duration": 0.0121,
      "velocity": 108,
      "chip": "ym2612"
    },
    {
      "channel": 4,
      "note": 64,
      "start": 10.551,
      "duration": 0.0121,
      "velocity": 108,
      "chip": "ym2612"
    },
    {
      "channel": 3,
      "note": 61,
      "start": 10.563,
      "duration": 0.0116,
      "velocity": 108,
      "chip": "ym2612"
    },
    {
      "channel": 4,
      "note": 64,
      "start": 10.5633,
      "duration": 0.0116,
      "velocity": 108,
      "chip": "ym2612"
    },
    {
      "channel": 3,
      "note": 61,
      "start": 10.5748,
      "duration": 0.0916,
      "velocity": 108,
      "chip": "ym2612"
    },
    {
      "channel": 4,
      "note": 68,
      "start": 10.575,
      "duration": 0.0916,
      "velocity": 108,
      "chip": "ym2612"
    },
    {
      "channel": 3,
      "note": 64,
      "start": 10.6665,
      "duration": 0.1052,
      "velocity": 108,
      "chip": "ym2612"
    },
    {
      "channel": 4,
      "note": 68,
      "start": 10.6668,
      "duration": 0.1052,
      "velocity": 108,
      "chip": "ym2612"
    },
    {
      "channel": 3,
      "note": 64,
      "start": 10.7719,
      "duration": 0.0135,
      "velocity": 108,
      "chip": "ym2612"
    },
    {
      "channel": 4,
      "note": 49,
      "start": 10.7721,
      "duration": 0.0135,
      "velocity": 108,
      "chip": "ym2612"
    },
    {
      "channel": 3,
      "note": 68,
      "start": 10.7855,
      "duration": 0.0119,
      "velocity": 108,
      "chip": "ym2612"
    },
    {
      "channel": 4,
      "note": 49,
      "start": 10.7858,
      "duration": 0.0119,
      "velocity": 108,
      "chip": "ym2612"
    },
    {
      "channel": 3,
      "note": 68,
      "start": 10.7975,
      "duration": 0.012,
      "velocity": 108,
      "chip": "ym2612"
    },
    {
      "channel": 4,
      "note": 52,
      "start": 10.7978,
      "duration": 0.012,
      "velocity": 108,
      "chip": "ym2612"
    },
    {
      "channel": 3,
      "note": 49,
      "start": 10.8096,
      "duration": 0.012,
      "velocity": 108,
      "chip": "ym2612"
    },
    {
      "channel": 4,
      "note": 52,
      "start": 10.8099,
      "duration": 0.012,
      "velocity": 108,
      "chip": "ym2612"
    },
    {
      "channel": 3,
      "note": 49,
      "start": 10.8218,
      "duration": 0.0121,
      "velocity": 108,
      "chip": "ym2612"
    },
    {
      "channel": 4,
      "note": 54,
      "start": 10.822,
      "duration": 0.0121,
      "velocity": 108,
      "chip": "ym2612"
    },
    {
      "channel": 3,
      "note": 52,
      "start": 10.8341,
      "duration": 0.0119,
      "velocity": 108,
      "chip": "ym2612"
    },
    {
      "channel": 4,
      "note": 54,
      "start": 10.8343,
      "duration": 0.0119,
      "velocity": 108,
      "chip": "ym2612"
    },
    {
      "channel": 3,
      "note": 52,
      "start": 10.8461,
      "duration": 0.0121,
      "velocity": 108,
      "chip": "ym2612"
    },
    {
      "channel": 4,
      "note": 56,
      "start": 10.8463,
      "duration": 0.0121,
      "velocity": 108,
      "chip": "ym2612"
    },
    {
      "channel": 3,
      "note": 54,
      "start": 10.8583,
      "duration": 0.0131,
      "velocity": 108,
      "chip": "ym2612"
    },
    {
      "channel": 4,
      "note": 56,
      "start": 10.8585,
      "duration": 0.0131,
      "velocity": 108,
      "chip": "ym2612"
    },
    {
      "channel": 3,
      "note": 54,
      "start": 10.8715,
      "duration": 0.012,
      "velocity": 108,
      "chip": "ym2612"
    },
    {
      "channel": 4,
      "note": 59,
      "start": 10.8718,
      "duration": 0.012,
      "velocity": 108,
      "chip": "ym2612"
    },
    {
      "channel": 3,
      "note": 56,
      "start": 10.8837,
      "duration": 0.012,
      "velocity": 108,
      "chip": "ym2612"
    },
    {
      "channel": 4,
      "note": 59,
      "start": 10.8839,
      "duration": 0.012,
      "velocity": 108,
      "chip": "ym2612"
    },
    {
      "channel": 3,
      "note": 56,
      "start": 10.8958,
      "duration": 0.0118,
      "velocity": 108,
      "chip": "ym2612"
    },
    {
      "channel": 4,
      "note": 61,
      "start": 10.896,
      "duration": 0.0118,
      "velocity": 108,
      "chip": "ym2612"
    },
    {
      "channel": 3,
      "note": 59,
      "start": 10.9077,
      "duration": 0.012,
      "velocity": 108,
      "chip": "ym2612"
    },
    {
      "channel": 4,
      "note": 61,
      "start": 10.9079,
      "duration": 0.012,
      "velocity": 108,
      "chip": "ym2612"
    },
    {
      "channel": 3,
      "note": 59,
      "start": 10.9198,
      "duration": 0.0121,
      "velocity": 108,
      "chip": "ym2612"
    },
    {
      "channel": 4,
      "note": 64,
      "start": 10.92,
      "duration": 0.012,
      "velocity": 108,
      "chip": "ym2612"
    },
    {
      "channel": 3,
      "note": 61,
      "start": 10.932,
      "duration": 0.0116,
      "velocity": 108,
      "chip": "ym2612"
    },
    {
      "channel": 4,
      "note": 64,
      "start": 10.9322,
      "duration": 0.0116,
      "velocity": 108,
      "chip": "ym2612"
    },
    {
      "channel": 3,
      "note": 61,
      "start": 10.9437,
      "duration": 0.0418,
      "velocity": 108,
      "chip": "ym2612"
    },
    {
      "channel": 4,
      "note": 68,
      "start": 10.944,
      "duration": 0.0417,
      "velocity": 108,
      "chip": "ym2612"
    },
    {
      "channel": 3,
      "note": 64,
      "start": 10.9856,
      "duration": 0.1056,
      "velocity": 108,
      "chip": "ym2612"
    },
    {
      "channel": 4,
      "note": 68,
      "start": 10.9859,
      "duration": 0.1056,
      "velocity": 108,
      "chip": "ym2612"
    },
    {
      "channel": 0,
      "note": 61,
      "start": 11.0907,
      "duration": 0.4799,
      "velocity": 108,
      "chip": "ym2612"
    },
    {
      "channel": 2,
      "note": 45,
      "start": 11.091,
      "duration": 0.0141,
      "velocity": 114,
      "chip": "ym2612"
    },
    {
      "channel": 3,
      "note": 64,
      "start": 11.0913,
      "duration": 0.0141,
      "velocity": 108,
      "chip": "ym2612"
    },
    {
      "channel": 4,
      "note": 49,
      "start": 11.0916,
      "duration": 0.014,
      "velocity": 108,
      "chip": "ym2612"
    },
    {
      "channel": 1,
      "note": 61,
      "start": 11.1051,
      "duration": 0.4779,
      "velocity": 108,
      "chip": "ym2612"
    },
    {
      "channel": 3,
      "note": 68,
      "start": 11.1055,
      "duration": 0.0129,
      "velocity": 108,
      "chip": "ym2612"
    },
    {
      "channel": 4,
      "note": 49,
      "start": 11.1058,
      "duration": 0.0129,
      "velocity": 108,
      "chip": "ym2612"
    },
    {
      "channel": 2,
      "note": 45,
      "start": 11.1182,
      "duration": 0.0126,
      "velocity": 114,
      "chip": "ym2612"
    },
    {
      "channel": 3,
      "note": 68,
      "start": 11.1185,
      "duration": 0.0125,
      "velocity": 108,
      "chip": "ym2612"
    },
    {
      "channel": 4,
      "note": 52,
      "start": 11.1188,
      "duration": 0.0124,
      "velocity": 108,
      "chip": "ym2612"
    },
    {
      "channel": 3,
      "note": 49,
      "start": 11.1311,
      "duration": 0.0129,
      "velocity": 108,
      "chip": "ym2612"
    },
    {
      "channel": 4,
      "note": 52,
      "start": 11.1313,
      "duration": 0.0129,
      "velocity": 108,
      "chip": "ym2612"
    },
    {
      "channel": 2,
      "note": 45,
      "start": 11.1439,
      "duration": 0.6979,
      "velocity": 114,
      "chip": "ym2612"
    },
    {
      "channel": 3,
      "note": 49,
      "start": 11.1441,
      "duration": 0.0126,
      "velocity": 108,
      "chip": "ym2612"
    },
    {
      "channel": 4,
      "note": 54,
      "start": 11.1444,
      "duration": 0.0127,
      "velocity": 108,
      "chip": "ym2612"
    },
    {
      "channel": 3,
      "note": 52,
      "start": 11.1569,
      "duration": 0.0124,
      "velocity": 108,
      "chip": "ym2612"
    },
    {
      "channel": 4,
      "note": 54,
      "start": 11.1572,
      "duration": 0.0124,
      "velocity": 108,
      "chip": "ym2612"
    },
    {
      "channel": 3,
      "note": 52,
      "start": 11.1695,
      "duration": 0.0127,
      "velocity": 108,
      "chip": "ym2612"
    },
    {
      "channel": 4,
      "note": 56,
      "start": 11.1698,
      "duration": 0.0127,
      "velocity": 108,
      "chip": "ym2612"
    },
    {
      "channel": 3,
      "note": 54,
      "start": 11.1823,
      "duration": 0.0125,
      "velocity": 108,
      "chip": "ym2612"
    },
    {
      "channel": 4,
      "note": 56,
      "start": 11.1826,
      "duration": 0.0125,
      "velocity": 108,
      "chip": "ym2612"
    },
    {
      "channel": 3,
      "note": 54,
      "start": 11.1949,
      "duration": 0.0126,
      "velocity": 108,
      "chip": "ym2612"
    },
    {
      "channel": 4,
      "note": 59,
      "start": 11.1952,
      "duration": 0.0126,
      "velocity": 108,
      "chip": "ym2612"
    },
    {
      "channel": 3,
      "note": 56,
      "start": 11.2077,
      "duration": 0.0125,
      "velocity": 108,
      "chip": "ym2612"
    },
    {
      "channel": 4,
      "note": 59,
      "start": 11.2079,
      "duration": 0.0125,
      "velocity": 108,
      "chip": "ym2612"
    },
    {
      "channel": 3,
      "note": 56,
      "start": 11.2203,
      "duration": 0.0125,
      "velocity": 108,
      "chip": "ym2612"
    },
    {
      "channel": 4,
      "note": 61,
      "start": 11.2206,
      "duration": 0.0126,
      "velocity": 108,
      "chip": "ym2612"
    },
    {
      "channel": 3,
      "note": 59,
      "start": 11.233,
      "duration": 0.0125,
      "velocity": 108,
      "chip": "ym2612"
    },
    {
      "channel": 4,
      "note": 61,
      "start": 11.2333,
      "duration": 0.0125,
      "velocity": 108,
      "chip": "ym2612"
    },
    {
      "channel": 3,
      "note": 59,
      "start": 11.2456,
      "duration": 0.0127,
      "velocity": 108,
      "chip": "ym2612"
    },
    {
      "channel": 4,
      "note": 64,
      "start": 11.2459,
      "duration": 0.0127,
      "velocity": 108,
      "chip": "ym2612"
    },
    {
      "channel": 3,
      "note": 61,
      "start": 11.2585,
      "duration": 0.0131,
      "velocity": 108,
      "chip": "ym2612"
    },
    {
      "channel": 4,
      "note": 64,
      "start": 11.2587,
      "duration": 0.0131,
      "velocity": 108,
      "chip": "ym2612"
    },
    {
      "channel": 3,
      "note": 61,
      "start": 11.2717,
      "duration": 0.0941,
      "velocity": 108,
      "chip": "ym2612"
    },
    {
      "channel": 4,
      "note": 68,
      "start": 11.272,
      "duration": 0.0941,
      "velocity": 108,
      "chip": "ym2612"
    },
    {
      "channel": 3,
      "note": 64,
      "start": 11.3659,
      "duration": 0.1052,
      "velocity": 108,
      "chip": "ym2612"
    },
    {
      "channel": 4,
      "note": 68,
      "start": 11.3662,
      "duration": 0.1052,
      "velocity": 108,
      "chip": "ym2612"
    },
    {
      "channel": 3,
      "note": 64,
      "start": 11.4713,
      "duration": 0.0135,
      "velocity": 108,
      "chip": "ym2612"
    },
    {
      "channel": 4,
      "note": 49,
      "start": 11.4715,
      "duration": 0.0135,
      "velocity": 108,
      "chip": "ym2612"
    },
    {
      "channel": 3,
      "note": 68,
      "start": 11.485,
      "duration": 0.0119,
      "velocity": 108,
      "chip": "ym2612"
    },
    {
      "channel": 4,
      "note": 49,
      "start": 11.4852,
      "duration": 0.0119,
      "velocity": 108,
      "chip": "ym2612"
    },
    {
      "channel": 3,
      "note": 68,
      "start": 11.497,
      "duration": 0.012,
      "velocity": 108,
      "chip": "ym2612"
    },
    {
      "channel": 4,
      "note": 52,
      "start": 11.4972,
      "duration": 0.012,
      "velocity": 108,
      "chip": "ym2612"
    },
    {
      "channel": 3,
      "note": 49,
      "start": 11.5091,
      "duration": 0.012,
      "velocity": 108,
      "chip": "ym2612"
    },
    {
      "channel": 4,
      "note": 52,
      "start": 11.5094,
      "duration": 0.012,
      "velocity": 108,
      "chip": "ym2612"
    },
    {
      "channel": 3,
      "note": 49,
      "start": 11.5213,
      "duration": 0.0121,
      "velocity": 108,
      "chip": "ym2612"
    },
    {
      "channel": 4,
      "note": 54,
      "start": 11.5215,
      "duration": 0.0121,
      "velocity": 108,
      "chip": "ym2612"
    },
    {
      "channel": 3,
      "note": 52,
      "start": 11.5335,
      "duration": 0.0119,
      "velocity": 108,
      "chip": "ym2612"
    },
    {
      "channel": 4,
      "note": 54,
      "start": 11.5338,
      "duration": 0.0119,
      "velocity": 108,
      "chip": "ym2612"
    },
    {
      "channel": 3,
      "note": 52,
      "start": 11.5456,
      "duration": 0.012,
      "velocity": 108,
      "chip": "ym2612"
    },
    {
      "channel": 4,
      "note": 56,
      "start": 11.5458,
      "duration": 0.012,
      "velocity": 108,
      "chip": "ym2612"
    },
    {
      "channel": 3,
      "note": 54,
      "start": 11.5577,
      "duration": 0.0133,
      "velocity": 108,
      "chip": "ym2612"
    },
    {
      "channel": 4,
      "note": 56,
      "start": 11.5579,
      "duration": 0.0133,
      "velocity": 108,
      "chip": "ym2612"
    },
    {
      "channel": 0,
      "note": 63,
      "start": 11.5707,
      "duration": 0.0488,
      "velocity": 108,
      "chip": "ym2612"
    },
    {
      "channel": 3,
      "note": 54,
      "start": 11.5711,
      "duration": 0.0122,
      "velocity": 108,
      "chip": "ym2612"
    },
    {
      "channel": 4,
      "note": 59,
      "start": 11.5714,
      "duration": 0.0122,
      "velocity": 108,
      "chip": "ym2612"
    },
    {
      "channel": 1,
      "note": 63,
      "start": 11.5832,
      "duration": 0.0488,
      "velocity": 108,
      "chip": "ym2612"
    },
    {
      "channel": 3,
      "note": 56,
      "start": 11.5835,
      "duration": 0.012,
      "velocity": 108,
      "chip": "ym2612"
    },
    {
      "channel": 4,
      "note": 59,
      "start": 11.5837,
      "duration": 0.012,
      "velocity": 108,
      "chip": "ym2612"
    },
    {
      "channel": 3,
      "note": 56,
      "start": 11.5956,
      "duration": 0.0119,
      "velocity": 108,
      "chip": "ym2612"
    },
    {
      "channel": 4,
      "note": 61,
      "start": 11.5958,
      "duration": 0.0119,
      "velocity": 108,
      "chip": "ym2612"
    },
    {
      "channel": 3,
      "note": 59,
      "start": 11.6076,
      "duration": 0.0123,
      "velocity": 108,
      "chip": "ym2612"
    },
    {
      "channel": 4,
      "note": 61,
      "start": 11.6079,
      "duration": 0.0123,
      "velocity": 108,
      "chip": "ym2612"
    },
    {
      "channel": 0,
      "note": 64,
      "start": 11.6196,
      "duration": 0.2218,
      "velocity": 108,
      "chip": "ym2612"
    },
    {
      "channel": 3,
      "note": 59,
      "start": 11.62,
      "duration": 0.0123,
      "velocity": 108,
      "chip": "ym2612"
    },
    {
      "channel": 4,
      "note": 64,
      "start": 11.6203,
      "duration": 0.0123,
      "velocity": 108,
      "chip": "ym2612"
    },
    {
      "channel": 1,
      "note": 64,
      "start": 11.6321,
      "duration": 0.2235,
      "velocity": 108,
      "chip": "ym2612"
    },
    {
      "channel": 3,
      "note": 61,
      "start": 11.6324,
      "duration": 0.0119,
      "velocity": 108,
      "chip": "ym2612"
    },
    {
      "channel": 4,
      "note": 64,
      "start": 11.6327,
      "duration": 0.0119,
      "velocity": 108,
      "chip": "ym2612"
    },
    {
      "channel": 3,
      "note": 61,
      "start": 11.6445,
      "duration": 0.0918,
      "velocity": 108,
      "chip": "ym2612"
    },
    {
      "channel": 4,
      "note": 68,
      "start": 11.6448,
      "duration": 0.0918,
      "velocity": 108,
      "chip": "ym2612"
    },
    {
      "channel": 3,
      "note": 64,
      "start": 11.7365,
      "duration": 0.1056,
      "velocity": 108,
      "chip": "ym2612"
    },
    {
      "channel": 4,
      "note": 68,
      "start": 11.7367,
      "duration": 0.1056,
      "velocity": 108,
      "chip": "ym2612"
    },
    {
      "channel": 0,
      "note": 66,
      "start": 11.8416,
      "duration": 0.6893,
      "velocity": 108,
      "chip": "ym2612"
    },
    {
      "channel": 2,
      "note": 47,
      "start": 11.8419,
      "duration": 0.014,
      "velocity": 114,
      "chip": "ym2612"
    },
    {
      "channel": 3,
      "note": 64,
      "start": 11.8422,
      "duration": 0.0138,
      "velocity": 108,
      "chip": "ym2612"
    },
    {
      "channel": 4,
      "note": 49,
      "start": 11.8424,
      "duration": 0.0139,
      "velocity": 108,
      "chip": "ym2612"
    },
    {
      "channel": 1,
      "note": 66,
      "start": 11.8558,
      "duration": 0.6895,
      "velocity": 108,
      "chip": "ym2612"
    },
    {
      "channel": 3,
      "note": 68,
      "start": 11.8562,
      "duration": 0.0122,
      "velocity": 108,
      "chip": "ym2612"
    },
    {
      "channel": 4,
      "note": 49,
      "start": 11.8564,
      "duration": 0.0122,
      "velocity": 108,
      "chip": "ym2612"
    },
    {
      "channel": 2,
      "note": 47,
      "start": 11.8682,
      "duration": 0.0119,
      "velocity": 114,
      "chip": "ym2612"
    },
    {
      "channel": 3,
      "note": 68,
      "start": 11.8685,
      "duration": 0.0118,
      "velocity": 108,
      "chip": "ym2612"
    },
    {
      "channel": 4,
      "note": 52,
      "start": 11.8687,
      "duration": 0.0118,
      "velocity": 108,
      "chip": "ym2612"
    },
    {
      "channel": 3,
      "note": 49,
      "start": 11.8804,
      "duration": 0.0122,
      "velocity": 108,
      "chip": "ym2612"
    },
    {
      "channel": 4,
      "note": 52,
      "start": 11.8807,
      "duration": 0.0122,
      "velocity": 108,
      "chip": "ym2612"
    },
    {
      "channel": 2,
      "note": 47,
      "start": 11.8925,
      "duration": 0.6387,
      "velocity": 114,
      "chip": "ym2612"
    },
    {
      "channel": 3,
      "note": 49,
      "start": 11.8927,
      "duration": 0.0121,
      "velocity": 108,
      "chip": "ym2612"
    },
    {
      "channel": 4,
      "note": 54,
      "start": 11.893,
      "duration": 0.0121,
      "velocity": 108,
      "chip": "ym2612"
    },
    {
      "channel": 3,
      "note": 52,
      "start": 11.905,
      "duration": 0.0116,
      "velocity": 108,
      "chip": "ym2612"
    },
    {
      "channel": 4,
      "note": 54,
      "start": 11.9053,
      "duration": 0.0116,
      "velocity": 108,
      "chip": "ym2612"
    },
    {
      "channel": 3,
      "note": 52,
      "start": 11.9167,
      "duration": 0.0122,
      "velocity": 108,
      "chip": "ym2612"
    },
    {
      "channel": 4,
      "note": 56,
      "start": 11.917,
      "duration": 0.0122,
      "velocity": 108,
      "chip": "ym2612"
    },
    {
      "channel": 3,
      "note": 54,
      "start": 11.9291,
      "duration": 0.0119,
      "velocity": 108,
      "chip": "ym2612"
    },
    {
      "channel": 4,
      "note": 56,
      "start": 11.9293,
      "duration": 0.0119,
      "velocity": 108,
      "chip": "ym2612"
    },
    {
      "channel": 3,
      "note": 54,
      "start": 11.9412,
      "duration": 0.0131,
      "velocity": 108,
      "chip": "ym2612"
    },
    {
      "channel": 4,
      "note": 59,
      "start": 11.9414,
      "duration": 0.0131,
      "velocity": 108,
      "chip": "ym2612"
    },
    {
      "channel": 3,
      "note": 56,
      "start": 11.9544,
      "duration": 0.012,
      "velocity": 108,
      "chip": "ym2612"
    },
    {
      "channel": 4,
      "note": 59,
      "start": 11.9546,
      "duration": 0.012,
      "velocity": 108,
      "chip": "ym2612"
    },
    {
      "channel": 3,
      "note": 56,
      "start": 11.9665,
      "duration": 0.012,
      "velocity": 108,
      "chip": "ym2612"
    },
    {
      "channel": 4,
      "note": 61,
      "start": 11.9667,
      "duration": 0.012,
      "velocity": 108,
      "chip": "ym2612"
    },
    {
      "channel": 3,
      "note": 59,
      "start": 11.9787,
      "duration": 0.0119,
      "velocity": 108,
      "chip": "ym2612"
    },
    {
      "channel": 4,
      "note": 61,
      "start": 11.9789,
      "duration": 0.0119,
      "velocity": 108,
      "chip": "ym2612"
    },
    {
      "channel": 3,
      "note": 59,
      "start": 11.9907,
      "duration": 0.0122,
      "velocity": 108,
      "chip": "ym2612"
    },
    {
      "channel": 4,
      "note": 64,
      "start": 11.991,
      "duration": 0.0122,
      "velocity": 108,
      "chip": "ym2612"
    },
    {
      "channel": 3,
      "note": 61,
      "start": 12.0031,
      "duration": 0.0117,
      "velocity": 108,
      "chip": "ym2612"
    },
    {
      "channel": 4,
      "note": 64,
      "start": 12.0033,
      "duration": 0.0117,
      "velocity": 108,
      "chip": "ym2612"
    },
    {
      "channel": 3,
      "note": 61,
      "start": 12.0149,
      "duration": 0.0915,
      "velocity": 108,
      "chip": "ym2612"
    },
    {
      "channel": 4,
      "note": 68,
      "start": 12.0152,
      "duration": 0.0915,
      "velocity": 108,
      "chip": "ym2612"
    },
    {
      "channel": 3,
      "note": 64,
      "start": 12.1066,
      "duration": 0.1052,
      "velocity": 108,
      "chip": "ym2612"
    },
    {
      "channel": 4,
      "note": 68,
      "start": 12.1069,
      "duration": 0.1052,
      "velocity": 108,
      "chip": "ym2612"
    },
    {
      "channel": 3,
      "note": 64,
      "start": 12.212,
      "duration": 0.0135,
      "velocity": 108,
      "chip": "ym2612"
    },
    {
      "channel": 4,
      "note": 49,
      "start": 12.2122,
      "duration": 0.0135,
      "velocity": 108,
      "chip": "ym2612"
    },
    {
      "channel": 3,
      "note": 68,
      "start": 12.2256,
      "duration": 0.012,
      "velocity": 108,
      "chip": "ym2612"
    },
    {
      "channel": 4,
      "note": 49,
      "start": 12.2259,
      "duration": 0.012,
      "velocity": 108,
      "chip": "ym2612"
    },
    {
      "channel": 3,
      "note": 68,
      "start": 12.2377,
      "duration": 0.012,
      "velocity": 108,
      "chip": "ym2612"
    },
    {
      "channel": 4,
      "note": 52,
      "start": 12.2379,
      "duration": 0.012,
      "velocity": 108,
      "chip": "ym2612"
    },
    {
      "channel": 3,
      "note": 49,
      "start": 12.2499,
      "duration": 0.012,
      "velocity": 108,
      "chip": "ym2612"
    },
    {
      "channel": 4,
      "note": 52,
      "start": 12.2501,
      "duration": 0.012,
      "velocity": 108,
      "chip": "ym2612"
    },
    {
      "channel": 3,
      "note": 49,
      "start": 12.262,
      "duration": 0.012,
      "velocity": 108,
      "chip": "ym2612"
    },
    {
      "channel": 4,
      "note": 54,
      "start": 12.2623,
      "duration": 0.0121,
      "velocity": 108,
      "chip": "ym2612"
    },
    {
      "channel": 3,
      "note": 52,
      "start": 12.2742,
      "duration": 0.0119,
      "velocity": 108,
      "chip": "ym2612"
    },
    {
      "channel": 4,
      "note": 54,
      "start": 12.2745,
      "duration": 0.0119,
      "velocity": 108,
      "chip": "ym2612"
    },
    {
      "channel": 3,
      "note": 52,
      "start": 12.2862,
      "duration": 0.012,
      "velocity": 108,
      "chip": "ym2612"
    },
    {
      "channel": 4,
      "note": 56,
      "start": 12.2865,
      "duration": 0.012,
      "velocity": 108,
      "chip": "ym2612"
    },
    {
      "channel": 3,
      "note": 54,
      "start": 12.2983,
      "duration": 0.013,
      "velocity": 108,
      "chip": "ym2612"
    },
    {
      "channel": 4,
      "note": 56,
      "start": 12.2986,
      "duration": 0.0129,
      "velocity": 108,
      "chip": "ym2612"
    },
    {
      "channel": 3,
      "note": 54,
      "start": 12.3114,
      "duration": 0.012,
      "velocity": 108,
      "chip": "ym2612"
    },
    {
      "channel": 4,
      "note": 59,
      "start": 12.3117,
      "duration": 0.012,
      "velocity": 108,
      "chip": "ym2612"
    },
    {
      "channel": 3,
      "note": 56,
      "start": 12.3236,
      "duration": 0.0118,
      "velocity": 108,
      "chip": "ym2612"
    },
    {
      "channel": 4,
      "note": 59,
      "start": 12.3239,
      "duration": 0.0118,
      "velocity": 108,
      "chip": "ym2612"
    },
    {
      "channel": 3,
      "note": 56,
      "start": 12.3355,
      "duration": 0.0118,
      "velocity": 108,
      "chip": "ym2612"
    },
    {
      "channel": 4,
      "note": 61,
      "start": 12.3358,
      "duration": 0.0118,
      "velocity": 108,
      "chip": "ym2612"
    },
    {
      "channel": 3,
      "note": 59,
      "start": 12.3475,
      "duration": 0.012,
      "velocity": 108,
      "chip": "ym2612"
    },
    {
      "channel": 4,
      "note": 61,
      "start": 12.3478,
      "duration": 0.012,
      "velocity": 108,
      "chip": "ym2612"
    },
    {
      "channel": 3,
      "note": 59,
      "start": 12.3597,
      "duration": 0.0121,
      "velocity": 108,
      "chip": "ym2612"
    },
    {
      "channel": 4,
      "note": 64,
      "start": 12.36,
      "duration": 0.0121,
      "velocity": 108,
      "chip": "ym2612"
    },
    {
      "channel": 3,
      "note": 61,
      "start": 12.372,
      "duration": 0.0118,
      "velocity": 108,
      "chip": "ym2612"
    },
    {
      "channel": 4,
      "note": 64,
      "start": 12.3722,
      "duration": 0.0118,
      "velocity": 108,
      "chip": "ym2612"
    },
    {
      "channel": 3,
      "note": 61,
      "start": 12.3839,
      "duration": 0.0419,
      "velocity": 108,
      "chip": "ym2612"
    },
    {
      "channel": 4,
      "note": 68,
      "start": 12.3841,
      "duration": 0.0419,
      "velocity": 108,
      "chip": "ym2612"
    },
    {
      "channel": 3,
      "note": 64,
      "start": 12.4259,
      "duration": 0.1055,
      "velocity": 108,
      "chip": "ym2612"
    },
    {
      "channel": 4,
      "note": 68,
      "start": 12.4262,
      "duration": 0.1055,
      "velocity": 108,
      "chip": "ym2612"
    },
    {
      "channel": 0,
      "note": 64,
      "start": 12.531,
      "duration": 0.4794,
      "velocity": 108,
      "chip": "ym2612"
    },
    {
      "channel": 2,
      "note": 45,
      "start": 12.5314,
      "duration": 0.0142,
      "velocity": 114,
      "chip": "ym2612"
    },
    {
      "channel": 3,
      "note": 64,
      "start": 12.5316,
      "duration": 0.0141,
      "velocity": 108,
      "chip": "ym2612"
    },
    {
      "channel": 4,
      "note": 49,
      "start": 12.5319,
      "duration": 0.0141,
      "velocity": 108,
      "chip": "ym2612"
    },
    {
      "channel": 1,
      "note": 64,
      "start": 12.5455,
      "duration": 0.4773,
      "velocity": 108,
      "chip": "ym2612"
    },
    {
      "channel": 3,
      "note": 68,
      "start": 12.5458,
      "duration": 0.0129,
      "velocity": 108,
      "chip": "ym2612"
    },
    {
      "channel": 4,
      "note": 49,
      "start": 12.5461,
      "duration": 0.0128,
      "velocity": 108,
      "chip": "ym2612"
    },
    {
      "channel": 2,
      "note": 45,
      "start": 12.5586,
      "duration": 0.0126,
      "velocity": 114,
      "chip": "ym2612"
    },
    {
      "channel": 3,
      "note": 68,
      "start": 12.5588,
      "duration": 0.0124,
      "velocity": 108,
      "chip": "ym2612"
    },
    {
      "channel": 4,
      "note": 52,
      "start": 12.5591,
      "duration": 0.0124,
      "velocity": 108,
      "chip": "ym2612"
    },
    {
      "channel": 3,
      "note": 49,
      "start": 12.5714,
      "duration": 0.0129,
      "velocity": 108,
      "chip": "ym2612"
    },
    {
      "channel": 4,
      "note": 52,
      "start": 12.5717,
      "duration": 0.0129,
      "velocity": 108,
      "chip": "ym2612"
    },
    {
      "channel": 2,
      "note": 45,
      "start": 12.5842,
      "duration": 0.6968,
      "velocity": 114,
      "chip": "ym2612"
    },
    {
      "channel": 3,
      "note": 49,
      "start": 12.5845,
      "duration": 0.0126,
      "velocity": 108,
      "chip": "ym2612"
    },
    {
      "channel": 4,
      "note": 54,
      "start": 12.5847,
      "duration": 0.0126,
      "velocity": 108,
      "chip": "ym2612"
    },
    {
      "channel": 3,
      "note": 52,
      "start": 12.5972,
      "duration": 0.0123,
      "velocity": 108,
      "chip": "ym2612"
    },
    {
      "channel": 4,
      "note": 54,
      "start": 12.5975,
      "duration": 0.0123,
      "velocity": 108,
      "chip": "ym2612"
    },
    {
      "channel": 3,
      "note": 52,
      "start": 12.6096,
      "duration": 0.0127,
      "velocity": 108,
      "chip": "ym2612"
    },
    {
      "channel": 4,
      "note": 56,
      "start": 12.6099,
      "duration": 0.0127,
      "velocity": 108,
      "chip": "ym2612"
    },
    {
      "channel": 3,
      "note": 54,
      "start": 12.6225,
      "duration": 0.0125,
      "velocity": 108,
      "chip": "ym2612"
    },
    {
      "channel": 4,
      "note": 56,
      "start": 12.6228,
      "duration": 0.0125,
      "velocity": 108,
      "chip": "ym2612"
    },
    {
      "channel": 3,
      "note": 54,
      "start": 12.6351,
      "duration": 0.0126,
      "velocity": 108,
      "chip": "ym2612"
    },
    {
      "channel": 4,
      "note": 59,
      "start": 12.6354,
      "duration": 0.0126,
      "velocity": 108,
      "chip": "ym2612"
    },
    {
      "channel": 3,
      "note": 56,
      "start": 12.6479,
      "duration": 0.0124,
      "velocity": 108,
      "chip": "ym2612"
    },
    {
      "channel": 4,
      "note": 59,
      "start": 12.6481,
      "duration": 0.0124,
      "velocity": 108,
      "chip": "ym2612"
    },
    {
      "channel": 3,
      "note": 56,
      "start": 12.6605,
      "duration": 0.0126,
      "velocity": 108,
      "chip": "ym2612"
    },
    {
      "channel": 4,
      "note": 61,
      "start": 12.6607,
      "duration": 0.0126,
      "velocity": 108,
      "chip": "ym2612"
    },
    {
      "channel": 3,
      "note": 59,
      "start": 12.6732,
      "duration": 0.0125,
      "velocity": 108,
      "chip": "ym2612"
    },
    {
      "channel": 4,
      "note": 61,
      "start": 12.6734,
      "duration": 0.0125,
      "velocity": 108,
      "chip": "ym2612"
    },
    {
      "channel": 3,
      "note": 59,
      "start": 12.6858,
      "duration": 0.0126,
      "velocity": 108,
      "chip": "ym2612"
    },
    {
      "channel": 4,
      "note": 64,
      "start": 12.6861,
      "duration": 0.0126,
      "velocity": 108,
      "chip": "ym2612"
    },
    {
      "channel": 3,
      "note": 61,
      "start": 12.6986,
      "duration": 0.0131,
      "velocity": 108,
      "chip": "ym2612"
    },
    {
      "channel": 4,
      "note": 64,
      "start": 12.6989,
      "duration": 0.0131,
      "velocity": 108,
      "chip": "ym2612"
    },
    {
      "channel": 3,
      "note": 61,
      "start": 12.7119,
      "duration": 0.0941,
      "velocity": 108,
      "chip": "ym2612"
    },
    {
      "channel": 4,
      "note": 68,
      "start": 12.7121,
      "duration": 0.0941,
      "velocity": 108,
      "chip": "ym2612"
    },
    {
      "channel": 3,
      "note": 64,
      "start": 12.8061,
      "duration": 0.1052,
      "velocity": 108,
      "chip": "ym2612"
    },
    {
      "channel": 4,
      "note": 68,
      "start": 12.8064,
      "duration": 0.1052,
      "velocity": 108,
      "chip": "ym2612"
    },
    {
      "channel": 3,
      "note": 64,
      "start": 12.9115,
      "duration": 0.0136,
      "velocity": 108,
      "chip": "ym2612"
    },
    {
      "channel": 4,
      "note": 49,
      "start": 12.9117,
      "duration": 0.0135,
      "velocity": 108,
      "chip": "ym2612"
    },
    {
      "channel": 3,
      "note": 68,
      "start": 12.9251,
      "duration": 0.0119,
      "velocity": 108,
      "chip": "ym2612"
    },
    {
      "channel": 4,
      "note": 49,
      "start": 12.9254,
      "duration": 0.0119,
      "velocity": 108,
      "chip": "ym2612"
    },
    {
      "channel": 3,
      "note": 68,
      "start": 12.9371,
      "duration": 0.012,
      "velocity": 108,
      "chip": "ym2612"
    },
    {
      "channel": 4,
      "note": 52,
      "start": 12.9374,
      "duration": 0.012,
      "velocity": 108,
      "chip": "ym2612"
    },
    {
      "channel": 3,
      "note": 49,
      "start": 12.9493,
      "duration": 0.012,
      "velocity": 108,
      "chip": "ym2612"
    },
    {
      "channel": 4,
      "note": 52,
      "start": 12.9495,
      "duration": 0.012,
      "velocity": 108,
      "chip": "ym2612"
    },
    {
      "channel": 3,
      "note": 49,
      "start": 12.9614,
      "duration": 0.012,
      "velocity": 108,
      "chip": "ym2612"
    },
    {
      "channel": 4,
      "note": 54,
      "start": 12.9617,
      "duration": 0.012,
      "velocity": 108,
      "chip": "ym2612"
    },
    {
      "channel": 3,
      "note": 52,
      "start": 12.9735,
      "duration": 0.0119,
      "velocity": 108,
      "chip": "ym2612"
    },
    {
      "channel": 4,
      "note": 54,
      "start": 12.9738,
      "duration": 0.0119,
      "velocity": 108,
      "chip": "ym2612"
    },
    {
      "channel": 3,
      "note": 52,
      "start": 12.9856,
      "duration": 0.012,
      "velocity": 108,
      "chip": "ym2612"
    },
    {
      "channel": 4,
      "note": 56,
      "start": 12.9858,
      "duration": 0.012,
      "velocity": 108,
      "chip": "ym2612"
    },
    {
      "channel": 3,
      "note": 54,
      "start": 12.9977,
      "duration": 0.0132,
      "velocity": 108,
      "chip": "ym2612"
    },
    {
      "channel": 4,
      "note": 56,
      "start": 12.9979,
      "duration": 0.0132,
      "velocity": 108,
      "chip": "ym2612"
    },
    {
      "channel": 0,
      "note": 63,
      "start": 13.0106,
      "duration": 0.0485,
      "velocity": 108,
      "chip": "ym2612"
    },
    {
      "channel": 3,
      "note": 54,
      "start": 13.011,
      "duration": 0.0121,
      "velocity": 108,
      "chip": "ym2612"
    },
    {
      "channel": 4,
      "note": 59,
      "start": 13.0113,
      "duration": 0.0121,
      "velocity": 108,
      "chip": "ym2612"
    },
    {
      "channel": 1,
      "note": 63,
      "start": 13.0229,
      "duration": 0.0485,
      "velocity": 108,
      "chip": "ym2612"
    },
    {
      "channel": 3,
      "note": 56,
      "start": 13.0233,
      "duration": 0.012,
      "velocity": 108,
      "chip": "ym2612"
    },
    {
      "channel": 4,
      "note": 59,
      "start": 13.0235,
      "duration": 0.012,
      "velocity": 108,
      "chip": "ym2612"
    },
    {
      "channel": 3,
      "note": 56,
      "start": 13.0354,
      "duration": 0.0118,
      "velocity": 108,
      "chip": "ym2612"
    },
    {
      "channel": 4,
      "note": 61,
      "start": 13.0356,
      "duration": 0.0118,
      "velocity": 108,
      "chip": "ym2612"
    },
    {
      "channel": 3,
      "note": 59,
      "start": 13.0473,
      "duration": 0.0122,
      "velocity": 108,
      "chip": "ym2612"
    },
    {
      "channel": 4,
      "note": 61,
      "start": 13.0476,
      "duration": 0.0122,
      "velocity": 108,
      "chip": "ym2612"
    },
    {
      "channel": 0,
      "note": 68,
      "start": 13.0592,
      "duration": 0.2216,
      "velocity": 108,
      "chip": "ym2612"
    },
    {
      "channel": 3,
      "note": 59,
      "start": 13.0596,
      "duration": 0.0122,
      "velocity": 108,
      "chip": "ym2612"
    },
    {
      "channel": 4,
      "note": 64,
      "start": 13.0599,
      "duration": 0.0122,
      "velocity": 108,
      "chip": "ym2612"
    },
    {
      "channel": 1,
      "note": 68,
      "start": 13.0716,
      "duration": 0.2232,
      "velocity": 108,
      "chip": "ym2612"
    },
    {
      "channel": 3,
      "note": 61,
      "start": 13.072,
      "duration": 0.0117,
      "velocity": 108,
      "chip": "ym2612"
    },
    {
      "channel": 4,
      "note": 64,
      "start": 13.0722,
      "duration": 0.0117,
      "velocity": 108,
      "chip": "ym2612"
    },
    {
      "channel": 3,
      "note": 61,
      "start": 13.0839,
      "duration": 0.0918,
      "velocity": 108,
      "chip": "ym2612"
    },
    {
      "channel": 4,
      "note": 68,
      "start": 13.0841,
      "duration": 0.0918,
      "velocity": 108,
      "chip": "ym2612"
    },
    {
      "channel": 3,
      "note": 64,
      "start": 13.1758,
      "duration": 0.1056,
      "velocity": 108,
      "chip": "ym2612"
    },
    {
      "channel": 4,
      "note": 68,
      "start": 13.176,
      "duration": 0.1056,
      "velocity": 108,
      "chip": "ym2612"
    },
    {
      "channel": 0,
      "note": 73,
      "start": 13.2809,
      "duration": 0.689,
      "velocity": 108,
      "chip": "ym2612"
    },
    {
      "channel": 2,
      "note": 49,
      "start": 13.2812,
      "duration": 0.0138,
      "velocity": 114,
      "chip": "ym2612"
    },
    {
      "channel": 3,
      "note": 64,
      "start": 13.2815,
      "duration": 0.0137,
      "velocity": 108,
      "chip": "ym2612"
    },
    {
      "channel": 4,
      "note": 49,
      "start": 13.2817,
      "duration": 0.0137,
      "velocity": 108,
      "chip": "ym2612"
    },
    {
      "channel": 1,
      "note": 73,
      "start": 13.295,
      "duration": 0.7189,
      "velocity": 108,
      "chip": "ym2612"
    },
    {
      "channel": 3,
      "note": 68,
      "start": 13.2954,
      "duration": 0.0124,
      "velocity": 108,
      "chip": "ym2612"
    },
    {
      "channel": 4,
      "note": 49,
      "start": 13.2956,
      "duration": 0.0123,
      "velocity": 108,
      "chip": "ym2612"
    },
    {
      "channel": 2,
      "note": 49,
      "start": 13.3076,
      "duration": 0.012,
      "velocity": 114,
      "chip": "ym2612"
    },
    {
      "channel": 3,
      "note": 68,
      "start": 13.3078,
      "duration": 0.0119,
      "velocity": 108,
      "chip": "ym2612"
    },
    {
      "channel": 4,
      "note": 52,
      "start": 13.3081,
      "duration": 0.0119,
      "velocity": 108,
      "chip": "ym2612"
    },
    {
      "channel": 3,
      "note": 49,
      "start": 13.3199,
      "duration": 0.0123,
      "velocity": 108,
      "chip": "ym2612"
    },
    {
      "channel": 4,
      "note": 52,
      "start": 13.3202,
      "duration": 0.0123,
      "velocity": 108,
      "chip": "ym2612"
    },
    {
      "channel": 2,
      "note": 49,
      "start": 13.3321,
      "duration": 0.4181,
      "velocity": 114,
      "chip": "ym2612"
    },
    {
      "channel": 3,
      "note": 49,
      "start": 13.3323,
      "duration": 0.012,
      "velocity": 108,
      "chip": "ym2612"
    },
    {
      "channel": 4,
      "note": 54,
      "start": 13.3326,
      "duration": 0.012,
      "velocity": 108,
      "chip": "ym2612"
    },
    {
      "channel": 3,
      "note": 52,
      "start": 13.3445,
      "duration": 0.0118,
      "velocity": 108,
      "chip": "ym2612"
    },
    {
      "channel": 4,
      "note": 54,
      "start": 13.3448,
      "duration": 0.0118,
      "velocity": 108,
      "chip": "ym2612"
    },
    {
      "channel": 3,
      "note": 52,
      "start": 13.3564,
      "duration": 0.0121,
      "velocity": 108,
      "chip": "ym2612"
    },
    {
      "channel": 4,
      "note": 56,
      "start": 13.3567,
      "duration": 0.0121,
      "velocity": 108,
      "chip": "ym2612"
    },
    {
      "channel": 3,
      "note": 54,
      "start": 13.3687,
      "duration": 0.0119,
      "velocity": 108,
      "chip": "ym2612"
    },
    {
      "channel": 4,
      "note": 56,
      "start": 13.369,
      "duration": 0.0119,
      "velocity": 108,
      "chip": "ym2612"
    },
    {
      "channel": 3,
      "note": 54,
      "start": 13.3807,
      "duration": 0.0129,
      "velocity": 108,
      "chip": "ym2612"
    },
    {
      "channel": 4,
      "note": 59,
      "start": 13.381,
      "duration": 0.0129,
      "velocity": 108,
      "chip": "ym2612"
    },
    {
      "channel": 3,
      "note": 56,
      "start": 13.3938,
      "duration": 0.0118,
      "velocity": 108,
      "chip": "ym2612"
    },
    {
      "channel": 4,
      "note": 59,
      "start": 13.394,
      "duration": 0.0118,
      "velocity": 108,
      "chip": "ym2612"
    },
    {
      "channel": 3,
      "note": 56,
      "start": 13.4057,
      "duration": 0.0119,
      "velocity": 108,
      "chip": "ym2612"
    },
    {
      "channel": 4,
      "note": 61,
      "start": 13.406,
      "duration": 0.0119,
      "velocity": 108,
      "chip": "ym2612"
    },
    {
      "channel": 3,
      "note": 59,
      "start": 13.4178,
      "duration": 0.0119,
      "velocity": 108,
      "chip": "ym2612"
    },
    {
      "channel": 4,
      "note": 61,
      "start": 13.418,
      "duration": 0.0119,
      "velocity": 108,
      "chip": "ym2612"
    },
    {
      "channel": 3,
      "note": 59,
      "start": 13.4298,
      "duration": 0.0121,
      "velocity": 108,
      "chip": "ym2612"
    },
    {
      "channel": 4,
      "note": 64,
      "start": 13.4301,
      "duration": 0.0121,
      "velocity": 108,
      "chip": "ym2612"
    },
    {
      "channel": 3,
      "note": 61,
      "start": 13.442,
      "duration": 0.0117,
      "velocity": 108,
      "chip": "ym2612"
    },
    {
      "channel": 4,
      "note": 64,
      "start": 13.4423,
      "duration": 0.0117,
      "velocity": 108,
      "chip": "ym2612"
    },
    {
      "channel": 3,
      "note": 61,
      "start": 13.4538,
      "duration": 0.0915,
      "velocity": 108,
      "chip": "ym2612"
    },
    {
      "channel": 4,
      "note": 68,
      "start": 13.4541,
      "duration": 0.0915,
      "velocity": 108,
      "chip": "ym2612"
    },
    {
      "channel": 3,
      "note": 64,
      "start": 13.5455,
      "duration": 0.1052,
      "velocity": 108,
      "chip": "ym2612"
    },
    {
      "channel": 4,
      "note": 68,
      "start": 13.5458,
      "duration": 0.1052,
      "velocity": 108,
      "chip": "ym2612"
    },
    {
      "channel": 3,
      "note": 64,
      "start": 13.6508,
      "duration": 0.0136,
      "velocity": 108,
      "chip": "ym2612"
    },
    {
      "channel": 4,
      "note": 49,
      "start": 13.6511,
      "duration": 0.0136,
      "velocity": 108,
      "chip": "ym2612"
    },
    {
      "channel": 3,
      "note": 68,
      "start": 13.6645,
      "duration": 0.0118,
      "velocity": 108,
      "chip": "ym2612"
    },
    {
      "channel": 4,
      "note": 49,
      "start": 13.6648,
      "duration": 0.0118,
      "velocity": 108,
      "chip": "ym2612"
    },
    {
      "channel": 3,
      "note": 68,
      "start": 13.6765,
      "duration": 0.0119,
      "velocity": 108,
      "chip": "ym2612"
    },
    {
      "channel": 4,
      "note": 52,
      "start": 13.6768,
      "duration": 0.0119,
      "velocity": 108,
      "chip": "ym2612"
    },
    {
      "channel": 3,
      "note": 49,
      "start": 13.6885,
      "duration": 0.012,
      "velocity": 108,
      "chip": "ym2612"
    },
    {
      "channel": 4,
      "note": 52,
      "start": 13.6888,
      "duration": 0.0119,
      "velocity": 108,
      "chip": "ym2612"
    },
    {
      "channel": 3,
      "note": 49,
      "start": 13.7006,
      "duration": 0.0122,
      "velocity": 108,
      "chip": "ym2612"
    },
    {
      "channel": 4,
      "note": 54,
      "start": 13.7009,
      "duration": 0.0122,
      "velocity": 108,
      "chip": "ym2612"
    },
    {
      "channel": 3,
      "note": 52,
      "start": 13.7129,
      "duration": 0.0118,
      "velocity": 108,
      "chip": "ym2612"
    },
    {
      "channel": 4,
      "note": 54,
      "start": 13.7132,
      "duration": 0.0118,
      "velocity": 108,
      "chip": "ym2612"
    },
    {
      "channel": 3,
      "note": 52,
      "start": 13.7249,
      "duration": 0.0122,
      "velocity": 108,
      "chip": "ym2612"
    },
    {
      "channel": 4,
      "note": 56,
      "start": 13.7251,
      "duration": 0.0122,
      "velocity": 108,
      "chip": "ym2612"
    },
    {
      "channel": 3,
      "note": 54,
      "start": 13.7372,
      "duration": 0.0131,
      "velocity": 108,
      "chip": "ym2612"
    },
    {
      "channel": 4,
      "note": 56,
      "start": 13.7374,
      "duration": 0.0132,
      "velocity": 108,
      "chip": "ym2612"
    },
    {
      "channel": 3,
      "note": 54,
      "start": 13.7505,
      "duration": 0.012,
      "velocity": 108,
      "chip": "ym2612"
    },
    {
      "channel": 4,
      "note": 59,
      "start": 13.7507,
      "duration": 0.012,
      "velocity": 108,
      "chip": "ym2612"
    },
    {
      "channel": 3,
      "note": 56,
      "start": 13.7627,
      "duration": 0.0119,
      "velocity": 108,
      "chip": "ym2612"
    },
    {
      "channel": 4,
      "note": 59,
      "start": 13.7629,
      "duration": 0.0119,
      "velocity": 108,
      "chip": "ym2612"
    },
    {
      "channel": 3,
      "note": 56,
      "start": 13.7747,
      "duration": 0.0118,
      "velocity": 108,
      "chip": "ym2612"
    },
    {
      "channel": 4,
      "note": 61,
      "start": 13.7749,
      "duration": 0.0118,
      "velocity": 108,
      "chip": "ym2612"
    },
    {
      "channel": 3,
      "note": 59,
      "start": 13.7866,
      "duration": 0.0121,
      "velocity": 108,
      "chip": "ym2612"
    },
    {
      "channel": 4,
      "note": 61,
      "start": 13.7869,
      "duration": 0.0121,
      "velocity": 108,
      "chip": "ym2612"
    },
    {
      "channel": 3,
      "note": 59,
      "start": 13.7989,
      "duration": 0.012,
      "velocity": 108,
      "chip": "ym2612"
    },
    {
      "channel": 4,
      "note": 64,
      "start": 13.7991,
      "duration": 0.012,
      "velocity": 108,
      "chip": "ym2612"
    },
    {
      "channel": 3,
      "note": 61,
      "start": 13.811,
      "duration": 0.0118,
      "velocity": 108,
      "chip": "ym2612"
    },
    {
      "channel": 4,
      "note": 64,
      "start": 13.8113,
      "duration": 0.0118,
      "velocity": 108,
      "chip": "ym2612"
    },
    {
      "channel": 3,
      "note": 61,
      "start": 13.8229,
      "duration": 0.0419,
      "velocity": 108,
      "chip": "ym2612"
    },
    {
      "channel": 4,
      "note": 68,
      "start": 13.8232,
      "duration": 0.0419,
      "velocity": 108,
      "chip": "ym2612"
    },
    {
      "channel": 3,
      "note": 64,
      "start": 13.8649,
      "duration": 0.1056,
      "velocity": 108,
      "chip": "ym2612"
    },
    {
      "channel": 4,
      "note": 68,
      "start": 13.8652,
      "duration": 0.1056,
      "velocity": 108,
      "chip": "ym2612"
    },
    {
      "channel": 0,
      "note": 88,
      "start": 13.9701,
      "duration": 0.665,
      "velocity": 108,
      "chip": "ym2612"
    },
    {
      "channel": 2,
      "note": 49,
      "start": 13.9704,
      "duration": 0.0437,
      "velocity": 114,
      "chip": "ym2612"
    },
    {
      "channel": 3,
      "note": 64,
      "start": 13.9707,
      "duration": 0.0436,
      "velocity": 108,
      "chip": "ym2612"
    },
    {
      "channel": 4,
      "note": 49,
      "start": 13.9709,
      "duration": 0.0436,
      "velocity": 108,
      "chip": "ym2612"
    },
    {
      "channel": 1,
      "note": 88,
      "start": 14.014,
      "duration": 0.6617,
      "velocity": 108,
      "chip": "ym2612"
    },
    {
      "channel": 3,
      "note": 68,
      "start": 14.0144,
      "duration": 0.105,
      "velocity": 108,
      "chip": "ym2612"
    },
    {
      "channel": 4,
      "note": 49,
      "start": 14.0146,
      "duration": 0.105,
      "velocity": 108,
      "chip": "ym2612"
    },
    {
      "channel": 2,
      "note": 49,
      "start": 14.1192,
      "duration": 0.0132,
      "velocity": 114,
      "chip": "ym2612"
    },
    {
      "channel": 3,
      "note": 68,
      "start": 14.1195,
      "duration": 0.0131,
      "velocity": 108,
      "chip": "ym2612"
    },
    {
      "channel": 4,
      "note": 52,
      "start": 14.1198,
      "duration": 0.0131,
      "velocity": 108,
      "chip": "ym2612"
    },
    {
      "channel": 3,
      "note": 49,
      "start": 14.1327,
      "duration": 0.0123,
      "velocity": 108,
      "chip": "ym2612"
    },
    {
      "channel": 4,
      "note": 52,
      "start": 14.1329,
      "duration": 0.0123,
      "velocity": 108,
      "chip": "ym2612"
    },
    {
      "channel": 2,
      "note": 49,
      "start": 14.1449,
      "duration": 0.896,
      "velocity": 114,
      "chip": "ym2612"
    },
    {
      "channel": 3,
      "note": 49,
      "start": 14.1451,
      "duration": 0.012,
      "velocity": 108,
      "chip": "ym2612"
    },
    {
      "channel": 4,
      "note": 54,
      "start": 14.1454,
      "duration": 0.012,
      "velocity": 108,
      "chip": "ym2612"
    },
    {
      "channel": 3,
      "note": 52,
      "start": 14.1573,
      "duration": 0.0117,
      "velocity": 108,
      "chip": "ym2612"
    },
    {
      "channel": 4,
      "note": 54,
      "start": 14.1576,
      "duration": 0.0117,
      "velocity": 108,
      "chip": "ym2612"
    },
    {
      "channel": 3,
      "note": 52,
      "start": 14.1691,
      "duration": 0.0127,
      "velocity": 108,
      "chip": "ym2612"
    },
    {
      "channel": 4,
      "note": 56,
      "start": 14.1694,
      "duration": 0.0127,
      "velocity": 108,
      "chip": "ym2612"
    },
    {
      "channel": 3,
      "note": 54,
      "start": 14.182,
      "duration": 0.0125,
      "velocity": 108,
      "chip": "ym2612"
    },
    {
      "channel": 4,
      "note": 56,
      "start": 14.1823,
      "duration": 0.0125,
      "velocity": 108,
      "chip": "ym2612"
    },
    {
      "channel": 3,
      "note": 54,
      "start": 14.1947,
      "duration": 0.04,
      "velocity": 108,
      "chip": "ym2612"
    },
    {
      "channel": 4,
      "note": 59,
      "start": 14.1949,
      "duration": 0.04,
      "velocity": 108,
      "chip": "ym2612"
    },
    {
      "channel": 3,
      "note": 56,
      "start": 14.2348,
      "duration": 0.105,
      "velocity": 108,
      "chip": "ym2612"
    },
    {
      "channel": 4,
      "note": 59,
      "start": 14.2351,
      "duration": 0.105,
      "velocity": 108,
      "chip": "ym2612"
    },
    {
      "channel": 3,
      "note": 56,
      "start": 14.34,
      "duration": 0.013,
      "velocity": 108,
      "chip": "ym2612"
    },
    {
      "channel": 4,
      "note": 61,
      "start": 14.3402,
      "duration": 0.013,
      "velocity": 108,
      "chip": "ym2612"
    },
    {
      "channel": 3,
      "note": 59,
      "start": 14.3531,
      "duration": 0.012,
      "velocity": 108,
      "chip": "ym2612"
    },
    {
      "channel": 4,
      "note": 61,
      "start": 14.3534,
      "duration": 0.012,
      "velocity": 108,
      "chip": "ym2612"
    },
    {
      "channel": 3,
      "note": 59,
      "start": 14.3653,
      "duration": 0.0121,
      "velocity": 108,
      "chip": "ym2612"
    },
    {
      "channel": 4,
      "note": 64,
      "start": 14.3655,
      "duration": 0.0121,
      "velocity": 108,
      "chip": "ym2612"
    },
    {
      "channel": 3,
      "note": 61,
      "start": 14.3775,
      "duration": 0.0117,
      "velocity": 108,
      "chip": "ym2612"
    },
    {
      "channel": 4,
      "note": 64,
      "start": 14.3778,
      "duration": 0.0116,
      "velocity": 108,
      "chip": "ym2612"
    },
    {
      "channel": 3,
      "note": 61,
      "start": 14.3893,
      "duration": 0.0128,
      "velocity": 108,
      "chip": "ym2612"
    },
    {
      "channel": 4,
      "note": 68,
      "start": 14.3896,
      "duration": 0.0128,
      "velocity": 108,
      "chip": "ym2612"
    },
    {
      "channel": 3,
      "note": 64,
      "start": 14.4022,
      "duration": 0.0125,
      "velocity": 108,
      "chip": "ym2612"
    },
    {
      "channel": 4,
      "note": 68,
      "start": 14.4025,
      "duration": 0.0125,
      "velocity": 108,
      "chip": "ym2612"
    },
    {
      "channel": 3,
      "note": 64,
      "start": 14.4149,
      "duration": 0.0404,
      "velocity": 108,
      "chip": "ym2612"
    },
    {
      "channel": 4,
      "note": 49,
      "start": 14.4152,
      "duration": 0.0404,
      "velocity": 108,
      "chip": "ym2612"
    },
    {
      "channel": 3,
      "note": 68,
      "start": 14.4554,
      "duration": 0.105,
      "velocity": 108,
      "chip": "ym2612"
    },
    {
      "channel": 4,
      "note": 49,
      "start": 14.4557,
      "duration": 0.105,
      "velocity": 108,
      "chip": "ym2612"
    },
    {
      "channel": 3,
      "note": 68,
      "start": 14.5606,
      "duration": 0.0129,
      "velocity": 108,
      "chip": "ym2612"
    },
    {
      "channel": 4,
      "note": 52,
      "start": 14.5608,
      "duration": 0.0129,
      "velocity": 108,
      "chip": "ym2612"
    },
    {
      "channel": 3,
      "note": 49,
      "start": 14.5736,
      "duration": 0.012,
      "velocity": 108,
      "chip": "ym2612"
    },
    {
      "channel": 4,
      "note": 52,
      "start": 14.5739,
      "duration": 0.012,
      "velocity": 108,
      "chip": "ym2612"
    },
    {
      "channel": 3,
      "note": 49,
      "start": 14.5858,
      "duration": 0.0121,
      "velocity": 108,
      "chip": "ym2612"
    },
    {
      "channel": 4,
      "note": 54,
      "start": 14.5861,
      "duration": 0.0121,
      "velocity": 108,
      "chip": "ym2612"
    },
    {
      "channel": 3,
      "note": 52,
      "start": 14.598,
      "duration": 0.0117,
      "velocity": 108,
      "chip": "ym2612"
    },
    {
      "channel": 4,
      "note": 54,
      "start": 14.5983,
      "duration": 0.0117,
      "velocity": 108,
      "chip": "ym2612"
    },
    {
      "channel": 3,
      "note": 52,
      "start": 14.6099,
      "duration": 0.0127,
      "velocity": 108,
      "chip": "ym2612"
    },
    {
      "channel": 4,
      "note": 56,
      "start": 14.6101,
      "duration": 0.0127,
      "velocity": 108,
      "chip": "ym2612"
    },
    {
      "channel": 3,
      "note": 54,
      "start": 14.6227,
      "duration": 0.0128,
      "velocity": 108,
      "chip": "ym2612"
    },
    {
      "channel": 4,
      "note": 56,
      "start": 14.6229,
      "duration": 0.0128,
      "velocity": 108,
      "chip": "ym2612"
    },
    {
      "channel": 0,
      "note": 83,
      "start": 14.6353,
      "duration": 0.4053,
      "velocity": 108,
      "chip": "ym2612"
    },
    {
      "channel": 3,
      "note": 54,
      "start": 14.6356,
      "duration": 0.0404,
      "velocity": 108,
      "chip": "ym2612"
    },
    {
      "channel": 4,
      "note": 59,
      "start": 14.6359,
      "duration": 0.0404,
      "velocity": 108,
      "chip": "ym2612"
    },
    {
      "channel": 1,
      "note": 83,
      "start": 14.6759,
      "duration": 0.4035,
      "velocity": 108,
      "chip": "ym2612"
    },
    {
      "channel": 3,
      "note": 56,
      "start": 14.6762,
      "duration": 0.1048,
      "velocity": 108,
      "chip": "ym2612"
    },
    {
      "channel": 4,
      "note": 59,
      "start": 14.6765,
      "duration": 0.1048,
      "velocity": 108,
      "chip": "ym2612"
    },
    {
      "channel": 3,
      "note": 56,
      "start": 14.7812,
      "duration": 0.105,
      "velocity": 108,
      "chip": "ym2612"
    },
    {
      "channel": 4,
      "note": 61,
      "start": 14.7814,
      "duration": 0.105,
      "velocity": 108,
      "chip": "ym2612"
    },
    {
      "channel": 3,
      "note": 59,
      "start": 14.8863,
      "duration": 0.105,
      "velocity": 108,
      "chip": "ym2612"
    },
    {
      "channel": 4,
      "note": 61,
      "start": 14.8866,
      "duration": 0.105,
      "velocity": 108,
      "chip": "ym2612"
    },
    {
      "channel": 3,
      "note": 59,
      "start": 14.9914,
      "duration": 0.0131,
      "velocity": 108,
      "chip": "ym2612"
    },
    {
      "channel": 4,
      "note": 64,
      "start": 14.9917,
      "duration": 0.0131,
      "velocity": 108,
      "chip": "ym2612"
    },
    {
      "channel": 3,
      "note": 61,
      "start": 15.0047,
      "duration": 0.0118,
      "velocity": 108,
      "chip": "ym2612"
    },
    {
      "channel": 4,
      "note": 64,
      "start": 15.0049,
      "duration": 0.0118,
      "velocity": 108,
      "chip": "ym2612"
    },
    {
      "channel": 3,
      "note": 61,
      "start": 15.0167,
      "duration": 0.012,
      "velocity": 108,
      "chip": "ym2612"
    },
    {
      "channel": 4,
      "note": 68,
      "start": 15.0169,
      "duration": 0.012,
      "velocity": 108,
      "chip": "ym2612"
    },
    {
      "channel": 3,
      "note": 64,
      "start": 15.0288,
      "duration": 0.0124,
      "velocity": 108,
      "chip": "ym2612"
    },
    {
      "channel": 4,
      "note": 68,
      "start": 15.029,
      "duration": 0.0124,
      "velocity": 108,
      "chip": "ym2612"
    },
    {
      "channel": 0,
      "note": 85,
      "start": 15.0407,
      "duration": 1.0749,
      "velocity": 108,
      "chip": "ym2612"
    },
    {
      "channel": 2,
      "note": 49,
      "start": 15.041,
      "duration": 0.0386,
      "velocity": 114,
      "chip": "ym2612"
    },
    {
      "channel": 3,
      "note": 64,
      "start": 15.0413,
      "duration": 0.0385,
      "velocity": 108,
      "chip": "ym2612"
    },
    {
      "channel": 4,
      "note": 49,
      "start": 15.0415,
      "duration": 0.0385,
      "velocity": 108,
      "chip": "ym2612"
    },
    {
      "channel": 1,
      "note": 85,
      "start": 15.0796,
      "duration": 1.0754,
      "velocity": 108,
      "chip": "ym2612"
    },
    {
      "channel": 3,
      "note": 68,
      "start": 15.0799,
      "duration": 0.105,
      "velocity": 108,
      "chip": "ym2612"
    },
    {
      "channel": 4,
      "note": 49,
      "start": 15.0802,
      "duration": 0.105,
      "velocity": 108,
      "chip": "ym2612"
    },
    {
      "channel": 2,
      "note": 49,
      "start": 15.1848,
      "duration": 0.013,
      "velocity": 114,
      "chip": "ym2612"
    },
    {
      "channel": 3,
      "note": 68,
      "start": 15.185,
      "duration": 0.0129,
      "velocity": 108,
      "chip": "ym2612"
    },
    {
      "channel": 4,
      "note": 52,
      "start": 15.1853,
      "duration": 0.0129,
      "velocity": 108,
      "chip": "ym2612"
    },
    {
      "channel": 3,
      "note": 49,
      "start": 15.1981,
      "duration": 0.0123,
      "velocity": 108,
      "chip": "ym2612"
    },
    {
      "channel": 4,
      "note": 52,
      "start": 15.1983,
      "duration": 0.0123,
      "velocity": 108,
      "chip": "ym2612"
    },
    {
      "channel": 2,
      "note": 49,
      "start": 15.2102,
      "duration": 0.9057,
      "velocity": 114,
      "chip": "ym2612"
    },
    {
      "channel": 3,
      "note": 49,
      "start": 15.2105,
      "duration": 0.012,
      "velocity": 108,
      "chip": "ym2612"
    },
    {
      "channel": 4,
      "note": 54,
      "start": 15.2108,
      "duration": 0.012,
      "velocity": 108,
      "chip": "ym2612"
    },
    {
      "channel": 3,
      "note": 52,
      "start": 15.2227,
      "duration": 0.0116,
      "velocity": 108,
      "chip": "ym2612"
    },
    {
      "channel": 4,
      "note": 54,
      "start": 15.2229,
      "duration": 0.0116,
      "velocity": 108,
      "chip": "ym2612"
    },
    {
      "channel": 3,
      "note": 52,
      "start": 15.2344,
      "duration": 0.0128,
      "velocity": 108,
      "chip": "ym2612"
    },
    {
      "channel": 4,
      "note": 56,
      "start": 15.2347,
      "duration": 0.0128,
      "velocity": 108,
      "chip": "ym2612"
    },
    {
      "channel": 3,
      "note": 54,
      "start": 15.2474,
      "duration": 0.0125,
      "velocity": 108,
      "chip": "ym2612"
    },
    {
      "channel": 4,
      "note": 56,
      "start": 15.2477,
      "duration": 0.0125,
      "velocity": 108,
      "chip": "ym2612"
    },
    {
      "channel": 3,
      "note": 54,
      "start": 15.2601,
      "duration": 0.04,
      "velocity": 108,
      "chip": "ym2612"
    },
    {
      "channel": 4,
      "note": 59,
      "start": 15.2603,
      "duration": 0.04,
      "velocity": 108,
      "chip": "ym2612"
    },
    {
      "channel": 3,
      "note": 56,
      "start": 15.3002,
      "duration": 0.105,
      "velocity": 108,
      "chip": "ym2612"
    },
    {
      "channel": 4,
      "note": 59,
      "start": 15.3005,
      "duration": 0.105,
      "velocity": 108,
      "chip": "ym2612"
    },
    {
      "channel": 3,
      "note": 56,
      "start": 15.4054,
      "duration": 0.0129,
      "velocity": 108,
      "chip": "ym2612"
    },
    {
      "channel": 4,
      "note": 61,
      "start": 15.4056,
      "duration": 0.0129,
      "velocity": 108,
      "chip": "ym2612"
    },
    {
      "channel": 3,
      "note": 59,
      "start": 15.4185,
      "duration": 0.012,
      "velocity": 108,
      "chip": "ym2612"
    },
    {
      "channel": 4,
      "note": 61,
      "start": 15.4187,
      "duration": 0.012,
      "velocity": 108,
      "chip": "ym2612"
    },
    {
      "channel": 3,
      "note": 59,
      "start": 15.4306,
      "duration": 0.0122,
      "velocity": 108,
      "chip": "ym2612"
    },
    {
      "channel": 4,
      "note": 64,
      "start": 15.4309,
      "duration": 0.0122,
      "velocity": 108,
      "chip": "ym2612"
    },
    {
      "channel": 3,
      "note": 61,
      "start": 15.4429,
      "duration": 0.0117,
      "velocity": 108,
      "chip": "ym2612"
    },
    {
      "channel": 4,
      "note": 64,
      "start": 15.4432,
      "duration": 0.0117,
      "velocity": 108,
      "chip": "ym2612"
    },
    {
      "channel": 3,
      "note": 61,
      "start": 15.4547,
      "duration": 0.0128,
      "velocity": 108,
      "chip": "ym2612"
    },
    {
      "channel": 4,
      "note": 68,
      "start": 15.455,
      "duration": 0.0128,
      "velocity": 108,
      "chip": "ym2612"
    },
    {
      "channel": 3,
      "note": 64,
      "start": 15.4677,
      "duration": 0.0125,
      "velocity": 108,
      "chip": "ym2612"
    },
    {
      "channel": 4,
      "note": 68,
      "start": 15.468,
      "duration": 0.0125,
      "velocity": 108,
      "chip": "ym2612"
    },
    {
      "channel": 3,
      "note": 64,
      "start": 15.4803,
      "duration": 0.0404,
      "velocity": 108,
      "chip": "ym2612"
    },
    {
      "channel": 4,
      "note": 49,
      "start": 15.4806,
      "duration": 0.0404,
      "velocity": 108,
      "chip": "ym2612"
    },
    {
      "channel": 3,
      "note": 68,
      "start": 15.5209,
      "duration": 0.105,
      "velocity": 108,
      "chip": "ym2612"
    },
    {
      "channel": 4,
      "note": 49,
      "start": 15.5212,
      "duration": 0.105,
      "velocity": 108,
      "chip": "ym2612"
    },
    {
      "channel": 3,
      "note": 68,
      "start": 15.6261,
      "duration": 0.013,
      "velocity": 108,
      "chip": "ym2612"
    },
    {
      "channel": 4,
      "note": 52,
      "start": 15.6263,
      "duration": 0.013,
      "velocity": 108,
      "chip": "ym2612"
    },
    {
      "channel": 3,
      "note": 49,
      "start": 15.6392,
      "duration": 0.0119,
      "velocity": 108,
      "chip": "ym2612"
    },
    {
      "channel": 4,
      "note": 52,
      "start": 15.6394,
      "duration": 0.0119,
      "velocity": 108,
      "chip": "ym2612"
    },
    {
      "channel": 3,
      "note": 49,
      "start": 15.6512,
      "duration": 0.0121,
      "velocity": 108,
      "chip": "ym2612"
    },
    {
      "channel": 4,
      "note": 54,
      "start": 15.6515,
      "duration": 0.0121,
      "velocity": 108,
      "chip": "ym2612"
    },
    {
      "channel": 3,
      "note": 52,
      "start": 15.6634,
      "duration": 0.0117,
      "velocity": 108,
      "chip": "ym2612"
    },
    {
      "channel": 4,
      "note": 54,
      "start": 15.6637,
      "duration": 0.0117,
      "velocity": 108,
      "chip": "ym2612"
    },
    {
      "channel": 3,
      "note": 52,
      "start": 15.6752,
      "duration": 0.0126,
      "velocity": 108,
      "chip": "ym2612"
    },
    {
      "channel": 4,
      "note": 56,
      "start": 15.6755,
      "duration": 0.0126,
      "velocity": 108,
      "chip": "ym2612"
    },
    {
      "channel": 3,
      "note": 54,
      "start": 15.688,
      "duration": 0.0127,
      "velocity": 108,
      "chip": "ym2612"
    },
    {
      "channel": 4,
      "note": 56,
      "start": 15.6883,
      "duration": 0.0126,
      "velocity": 108,
      "chip": "ym2612"
    },
    {
      "channel": 3,
      "note": 54,
      "start": 15.7008,
      "duration": 0.0404,
      "velocity": 108,
      "chip": "ym2612"
    },
    {
      "channel": 4,
      "note": 59,
      "start": 15.7011,
      "duration": 0.0404,
      "velocity": 108,
      "chip": "ym2612"
    },
    {
      "channel": 3,
      "note": 56,
      "start": 15.7413,
      "duration": 0.1051,
      "velocity": 108,
      "chip": "ym2612"
    },
    {
      "channel": 4,
      "note": 59,
      "start": 15.7416,
      "duration": 0.1051,
      "velocity": 108,
      "chip": "ym2612"
    },
    {
      "channel": 3,
      "note": 56,
      "start": 15.8466,
      "duration": 0.1049,
      "velocity": 108,
      "chip": "ym2612"
    },
    {
      "channel": 4,
      "note": 61,
      "start": 15.8469,
      "duration": 0.1048,
      "velocity": 108,
      "chip": "ym2612"
    },
    {
      "channel": 3,
      "note": 59,
      "start": 15.9516,
      "duration": 0.105,
      "velocity": 108,
      "chip": "ym2612"
    },
    {
      "channel": 4,
      "note": 61,
      "start": 15.9519,
      "duration": 0.105,
      "velocity": 108,
      "chip": "ym2612"
    },
    {
      "channel": 3,
      "note": 59,
      "start": 16.0567,
      "duration": 0.0132,
      "velocity": 108,
      "chip": "ym2612"
    },
    {
      "channel": 4,
      "note": 64,
      "start": 16.057,
      "duration": 0.0132,
      "velocity": 108,
      "chip": "ym2612"
    },
    {
      "channel": 3,
      "note": 61,
      "start": 16.07,
      "duration": 0.0118,
      "velocity": 108,
      "chip": "ym2612"
    },
    {
      "channel": 4,
      "note": 64,
      "start": 16.0703,
      "duration": 0.0118,
      "velocity": 108,
      "chip": "ym2612"
    },
    {
      "channel": 3,
      "note": 61,
      "start": 16.082,
      "duration": 0.0118,
      "velocity": 108,
      "chip": "ym2612"
    },
    {
      "channel": 4,
      "note": 68,
      "start": 16.0822,
      "duration": 0.0118,
      "velocity": 108,
      "chip": "ym2612"
    },
    {
      "channel": 3,
      "note": 64,
      "start": 16.0939,
      "duration": 0.0222,
      "velocity": 108,
      "chip": "ym2612"
    },
    {
      "channel": 4,
      "note": 68,
      "start": 16.0942,
      "duration": 0.0222,
      "velocity": 108,
      "chip": "ym2612"
    },
    {
      "channel": 0,
      "note": 88,
      "start": 16.1157,
      "duration": 0.6607,
      "velocity": 108,
      "chip": "ym2612"
    },
    {
      "channel": 2,
      "note": 47,
      "start": 16.116,
      "duration": 0.0391,
      "velocity": 114,
      "chip": "ym2612"
    },
    {
      "channel": 3,
      "note": 64,
      "start": 16.1163,
      "duration": 0.039,
      "velocity": 108,
      "chip": "ym2612"
    },
    {
      "channel": 4,
      "note": 49,
      "start": 16.1166,
      "duration": 0.039,
      "velocity": 108,
      "chip": "ym2612"
    },
    {
      "channel": 1,
      "note": 88,
      "start": 16.1551,
      "duration": 0.662,
      "velocity": 108,
      "chip": "ym2612"
    },
    {
      "channel": 3,
      "note": 68,
      "start": 16.1554,
      "duration": 0.105,
      "velocity": 108,
      "chip": "ym2612"
    },
    {
      "channel": 4,
      "note": 49,
      "start": 16.1557,
      "duration": 0.105,
      "velocity": 108,
      "chip": "ym2612"
    },
    {
      "channel": 2,
      "note": 47,
      "start": 16.2602,
      "duration": 0.0132,
      "velocity": 114,
      "chip": "ym2612"
    },
    {
      "channel": 3,
      "note": 68,
      "start": 16.2605,
      "duration": 0.0131,
      "velocity": 108,
      "chip": "ym2612"
    },
    {
      "channel": 4,
      "note": 52,
      "start": 16.2608,
      "duration": 0.0131,
      "velocity": 108,
      "chip": "ym2612"
    },
    {
      "channel": 3,
      "note": 49,
      "start": 16.2737,
      "duration": 0.0123,
      "velocity": 108,
      "chip": "ym2612"
    },
    {
      "channel": 4,
      "note": 52,
      "start": 16.274,
      "duration": 0.0123,
      "velocity": 108,
      "chip": "ym2612"
    },
    {
      "channel": 2,
      "note": 47,
      "start": 16.2859,
      "duration": 0.8963,
      "velocity": 114,
      "chip": "ym2612"
    },
    {
      "channel": 3,
      "note": 49,
      "start": 16.2862,
      "duration": 0.012,
      "velocity": 108,
      "chip": "ym2612"
    },
    {
      "channel": 4,
      "note": 54,
      "start": 16.2865,
      "duration": 0.012,
      "velocity": 108,
      "chip": "ym2612"
    },
    {
      "channel": 3,
      "note": 52,
      "start": 16.2983,
      "duration": 0.0117,
      "velocity": 108,
      "chip": "ym2612"
    },
    {
      "channel": 4,
      "note": 54,
      "start": 16.2986,
      "duration": 0.0117,
      "velocity": 108,
      "chip": "ym2612"
    },
    {
      "channel": 3,
      "note": 52,
      "start": 16.3102,
      "duration": 0.0128,
      "velocity": 108,
      "chip": "ym2612"
    },
    {
      "channel": 4,
      "note": 56,
      "start": 16.3104,
      "duration": 0.0128,
      "velocity": 108,
      "chip": "ym2612"
    },
    {
      "channel": 3,
      "note": 54,
      "start": 16.3231,
      "duration": 0.0125,
      "velocity": 108,
      "chip": "ym2612"
    },
    {
      "channel": 4,
      "note": 56,
      "start": 16.3234,
      "duration": 0.0125,
      "velocity": 108,
      "chip": "ym2612"
    },
    {
      "channel": 3,
      "note": 54,
      "start": 16.3358,
      "duration": 0.0401,
      "velocity": 108,
      "chip": "ym2612"
    },
    {
      "channel": 4,
      "note": 59,
      "start": 16.336,
      "duration": 0.0401,
      "velocity": 108,
      "chip": "ym2612"
    },
    {
      "channel": 3,
      "note": 56,
      "start": 16.376,
      "duration": 0.105,
      "velocity": 108,
      "chip": "ym2612"
    },
    {
      "channel": 4,
      "note": 59,
      "start": 16.3762,
      "duration": 0.105,
      "velocity": 108,
      "chip": "ym2612"
    },
    {
      "channel": 3,
      "note": 56,
      "start": 16.4811,
      "duration": 0.013,
      "velocity": 108,
      "chip": "ym2612"
    },
    {
      "channel": 4,
      "note": 61,
      "start": 16.4814,
      "duration": 0.013,
      "velocity": 108,
      "chip": "ym2612"
    },
    {
      "channel": 3,
      "note": 59,
      "start": 16.4942,
      "duration": 0.012,
      "velocity": 108,
      "chip": "ym2612"
    },
    {
      "channel": 4,
      "note": 61,
      "start": 16.4945,
      "duration": 0.012,
      "velocity": 108,
      "chip": "ym2612"
    },
    {
      "channel": 3,
      "note": 59,
      "start": 16.5063,
      "duration": 0.0122,
      "velocity": 108,
      "chip": "ym2612"
    },
    {
      "channel": 4,
      "note": 64,
      "start": 16.5066,
      "duration": 0.0122,
      "velocity": 108,
      "chip": "ym2612"
    },
    {
      "channel": 3,
      "note": 61,
      "start": 16.5187,
      "duration": 0.0117,
      "velocity": 108,
      "chip": "ym2612"
    },
    {
      "channel": 4,
      "note": 64,
      "start": 16.5189,
      "duration": 0.0117,
      "velocity": 108,
      "chip": "ym2612"
    },
    {
      "channel": 3,
      "note": 61,
      "start": 16.5305,
      "duration": 0.0128,
      "velocity": 108,
      "chip": "ym2612"
    },
    {
      "channel": 4,
      "note": 68,
      "start": 16.5308,
      "duration": 0.0128,
      "velocity": 108,
      "chip": "ym2612"
    },
    {
      "channel": 3,
      "note": 64,
      "start": 16.5434,
      "duration": 0.0125,
      "velocity": 108,
      "chip": "ym2612"
    },
    {
      "channel": 4,
      "note": 68,
      "start": 16.5437,
      "duration": 0.0125,
      "velocity": 108,
      "chip": "ym2612"
    },
    {
      "channel": 3,
      "note": 64,
      "start": 16.5561,
      "duration": 0.0405,
      "velocity": 108,
      "chip": "ym2612"
    },
    {
      "channel": 4,
      "note": 49,
      "start": 16.5563,
      "duration": 0.0404,
      "velocity": 108,
      "chip": "ym2612"
    },
    {
      "channel": 3,
      "note": 68,
      "start": 16.5966,
      "duration": 0.105,
      "velocity": 108,
      "chip": "ym2612"
    },
    {
      "channel": 4,
      "note": 49,
      "start": 16.5969,
      "duration": 0.105,
      "velocity": 108,
      "chip": "ym2612"
    },
    {
      "channel": 3,
      "note": 68,
      "start": 16.7018,
      "duration": 0.0131,
      "velocity": 108,
      "chip": "ym2612"
    },
    {
      "channel": 4,
      "note": 52,
      "start": 16.702,
      "duration": 0.013,
      "velocity": 108,
      "chip": "ym2612"
    },
    {
      "channel": 3,
      "note": 49,
      "start": 16.715,
      "duration": 0.0119,
      "velocity": 108,
      "chip": "ym2612"
    },
    {
      "channel": 4,
      "note": 52,
      "start": 16.7152,
      "duration": 0.0119,
      "velocity": 108,
      "chip": "ym2612"
    },
    {
      "channel": 3,
      "note": 49,
      "start": 16.727,
      "duration": 0.0122,
      "velocity": 108,
      "chip": "ym2612"
    },
    {
      "channel": 4,
      "note": 54,
      "start": 16.7273,
      "duration": 0.0122,
      "velocity": 108,
      "chip": "ym2612"
    },
    {
      "channel": 3,
      "note": 52,
      "start": 16.7393,
      "duration": 0.0117,
      "velocity": 108,
      "chip": "ym2612"
    },
    {
      "channel": 4,
      "note": 54,
      "start": 16.7396,
      "duration": 0.0117,
      "velocity": 108,
      "chip": "ym2612"
    },
    {
      "channel": 3,
      "note": 52,
      "start": 16.7512,
      "duration": 0.0126,
      "velocity": 108,
      "chip": "ym2612"
    },
    {
      "channel": 4,
      "note": 56,
      "start": 16.7514,
      "duration": 0.0126,
      "velocity": 108,
      "chip": "ym2612"
    },
    {
      "channel": 3,
      "note": 54,
      "start": 16.7639,
      "duration": 0.0128,
      "velocity": 108,
      "chip": "ym2612"
    },
    {
      "channel": 4,
      "note": 56,
      "start": 16.7642,
      "duration": 0.0129,
      "velocity": 108,
      "chip": "ym2612"
    },
    {
      "channel": 0,
      "note": 90,
      "start": 16.7765,
      "duration": 0.4055,
      "velocity": 108,
      "chip": "ym2612"
    },
    {
      "channel": 3,
      "note": 54,
      "start": 16.7769,
      "duration": 0.0405,
      "velocity": 108,
      "chip": "ym2612"
    },
    {
      "channel": 4,
      "note": 59,
      "start": 16.7772,
      "duration": 0.0405,
      "velocity": 108,
      "chip": "ym2612"
    },
    {
      "channel": 1,
      "note": 90,
      "start": 16.8172,
      "duration": 0.4036,
      "velocity": 108,
      "chip": "ym2612"
    },
    {
      "channel": 3,
      "note": 56,
      "start": 16.8175,
      "duration": 0.1049,
      "velocity": 108,
      "chip": "ym2612"
    },
    {
      "channel": 4,
      "note": 59,
      "start": 16.8178,
      "duration": 0.1049,
      "velocity": 108,
      "chip": "ym2612"
    },
    {
      "channel": 3,
      "note": 56,
      "start": 16.9226,
      "duration": 0.1049,
      "velocity": 108,
      "chip": "ym2612"
    },
    {
      "channel": 4,
      "note": 61,
      "start": 16.9229,
      "duration": 0.1049,
      "velocity": 108,
      "chip": "ym2612"
    },
    {
      "channel": 3,
      "note": 59,
      "start": 17.0276,
      "duration": 0.105,
      "velocity": 108,
      "chip": "ym2612"
    },
    {
      "channel": 4,
      "note": 61,
      "start": 17.0279,
      "duration": 0.105,
      "velocity": 108,
      "chip": "ym2612"
    },
    {
      "channel": 3,
      "note": 59,
      "start": 17.1327,
      "duration": 0.0131,
      "velocity": 108,
      "chip": "ym2612"
    },
    {
      "channel": 4,
      "note": 64,
      "start": 17.133,
      "duration": 0.0132,
      "velocity": 108,
      "chip": "ym2612"
    },
    {
      "channel": 3,
      "note": 61,
      "start": 17.146,
      "duration": 0.0119,
      "velocity": 108,
      "chip": "ym2612"
    },
    {
      "channel": 4,
      "note": 64,
      "start": 17.1463,
      "duration": 0.0119,
      "velocity": 108,
      "chip": "ym2612"
    },
    {
      "channel": 3,
      "note": 61,
      "start": 17.158,
      "duration": 0.012,
      "velocity": 108,
      "chip": "ym2612"
    },
    {
      "channel": 4,
      "note": 68,
      "start": 17.1583,
      "duration": 0.012,
      "velocity": 108,
      "chip": "ym2612"
    },
    {
      "channel": 3,
      "note": 64,
      "start": 17.1702,
      "duration": 0.0124,
      "velocity": 108,
      "chip": "ym2612"
    },
    {
      "channel": 4,
      "note": 68,
      "start": 17.1704,
      "duration": 0.0124,
      "velocity": 108,
      "chip": "ym2612"
    },
    {
      "channel": 0,
      "note": 93,
      "start": 17.1821,
      "duration": 0.4395,
      "velocity": 108,
      "chip": "ym2612"
    },
    {
      "channel": 2,
      "note": 49,
      "start": 17.1824,
      "duration": 0.0386,
      "velocity": 114,
      "chip": "ym2612"
    },
    {
      "channel": 3,
      "note": 64,
      "start": 17.1827,
      "duration": 0.0385,
      "velocity": 108,
      "chip": "ym2612"
    },
    {
      "channel": 4,
      "note": 49,
      "start": 17.1829,
      "duration": 0.0385,
      "velocity": 108,
      "chip": "ym2612"
    },
    {
      "channel": 1,
      "note": 93,
      "start": 17.221,
      "duration": 0.4413,
      "velocity": 108,
      "chip": "ym2612"
    },
    {
      "channel": 3,
      "note": 68,
      "start": 17.2213,
      "duration": 0.105,
      "velocity": 108,
      "chip": "ym2612"
    },
    {
      "channel": 4,
      "note": 49,
      "start": 17.2216,
      "duration": 0.1049,
      "velocity": 108,
      "chip": "ym2612"
    },
    {
      "channel": 2,
      "note": 49,
      "start": 17.3261,
      "duration": 0.0132,
      "velocity": 114,
      "chip": "ym2612"
    },
    {
      "channel": 3,
      "note": 68,
      "start": 17.3264,
      "duration": 0.013,
      "velocity": 108,
      "chip": "ym2612"
    },
    {
      "channel": 4,
      "note": 52,
      "start": 17.3267,
      "duration": 0.013,
      "velocity": 108,
      "chip": "ym2612"
    },
    {
      "channel": 3,
      "note": 49,
      "start": 17.3396,
      "duration": 0.0124,
      "velocity": 108,
      "chip": "ym2612"
    },
    {
      "channel": 4,
      "note": 52,
      "start": 17.3399,
      "duration": 0.0124,
      "velocity": 108,
      "chip": "ym2612"
    },
    {
      "channel": 2,
      "note": 49,
      "start": 17.3519,
      "duration": 0.9064,
      "velocity": 114,
      "chip": "ym2612"
    },
    {
      "channel": 3,
      "note": 49,
      "start": 17.3521,
      "duration": 0.012,
      "velocity": 108,
      "chip": "ym2612"
    },
    {
      "channel": 4,
      "note": 54,
      "start": 17.3524,
      "duration": 0.012,
      "velocity": 108,
      "chip": "ym2612"
    },
    {
      "channel": 3,
      "note": 52,
      "start": 17.3643,
      "duration": 0.0117,
      "velocity": 108,
      "chip": "ym2612"
    },
    {
      "channel": 4,
      "note": 54,
      "start": 17.3646,
      "duration": 0.0117,
      "velocity": 108,
      "chip": "ym2612"
    },
    {
      "channel": 3,
      "note": 52,
      "start": 17.3761,
      "duration": 0.0128,
      "velocity": 108,
      "chip": "ym2612"
    },
    {
      "channel": 4,
      "note": 56,
      "start": 17.3764,
      "duration": 0.0128,
      "velocity": 108,
      "chip": "ym2612"
    },
    {
      "channel": 3,
      "note": 54,
      "start": 17.389,
      "duration": 0.0125,
      "velocity": 108,
      "chip": "ym2612"
    },
    {
      "channel": 4,
      "note": 56,
      "start": 17.3893,
      "duration": 0.0125,
      "velocity": 108,
      "chip": "ym2612"
    },
    {
      "channel": 3,
      "note": 54,
      "start": 17.4017,
      "duration": 0.0401,
      "velocity": 108,
      "chip": "ym2612"
    },
    {
      "channel": 4,
      "note": 59,
      "start": 17.402,
      "duration": 0.0401,
      "velocity": 108,
      "chip": "ym2612"
    },
    {
      "channel": 3,
      "note": 56,
      "start": 17.4419,
      "duration": 0.105,
      "velocity": 108,
      "chip": "ym2612"
    },
    {
      "channel": 4,
      "note": 59,
      "start": 17.4422,
      "duration": 0.105,
      "velocity": 108,
      "chip": "ym2612"
    },
    {
      "channel": 3,
      "note": 56,
      "start": 17.5471,
      "duration": 0.0129,
      "velocity": 108,
      "chip": "ym2612"
    },
    {
      "channel": 4,
      "note": 61,
      "start": 17.5473,
      "duration": 0.0129,
      "velocity": 108,
      "chip": "ym2612"
    },
    {
      "channel": 3,
      "note": 59,
      "start": 17.5601,
      "duration": 0.012,
      "velocity": 108,
      "chip": "ym2612"
    },
    {
      "channel": 4,
      "note": 61,
      "start": 17.5604,
      "duration": 0.012,
      "velocity": 108,
      "chip": "ym2612"
    },
    {
      "channel": 3,
      "note": 59,
      "start": 17.5722,
      "duration": 0.0122,
      "velocity": 108,
      "chip": "ym2612"
    },
    {
      "channel": 4,
      "note": 64,
      "start": 17.5725,
      "duration": 0.0122,
      "velocity": 108,
      "chip": "ym2612"
    },
    {
      "channel": 3,
      "note": 61,
      "start": 17.5845,
      "duration": 0.0117,
      "velocity": 108,
      "chip": "ym2612"
    },
    {
      "channel": 4,
      "note": 64,
      "start": 17.5848,
      "duration": 0.0117,
      "velocity": 108,
      "chip": "ym2612"
    },
    {
      "channel": 3,
      "note": 61,
      "start": 17.5963,
      "duration": 0.0128,
      "velocity": 108,
      "chip": "ym2612"
    },
    {
      "channel": 4,
      "note": 68,
      "start": 17.5966,
      "duration": 0.0128,
      "velocity": 108,
      "chip": "ym2612"
    },
    {
      "channel": 3,
      "note": 64,
      "start": 17.6093,
      "duration": 0.0127,
      "velocity": 108,
      "chip": "ym2612"
    },
    {
      "channel": 4,
      "note": 68,
      "start": 17.6095,
      "duration": 0.0127,
      "velocity": 108,
      "chip": "ym2612"
    },
    {
      "channel": 0,
      "note": 92,
      "start": 17.6217,
      "duration": 0.5764,
      "velocity": 108,
      "chip": "ym2612"
    },
    {
      "channel": 3,
      "note": 64,
      "start": 17.6221,
      "duration": 0.0405,
      "velocity": 108,
      "chip": "ym2612"
    },
    {
      "channel": 4,
      "note": 49,
      "start": 17.6224,
      "duration": 0.0405,
      "velocity": 108,
      "chip": "ym2612"
    },
    {
      "channel": 1,
      "note": 92,
      "start": 17.6624,
      "duration": 0.5494,
      "velocity": 108,
      "chip": "ym2612"
    },
    {
      "channel": 3,
      "note": 68,
      "start": 17.6627,
      "duration": 0.1048,
      "velocity": 108,
      "chip": "ym2612"
    },
    {
      "channel": 4,
      "note": 49,
      "start": 17.663,
      "duration": 0.1048,
      "velocity": 108,
      "chip": "ym2612"
    },
    {
      "channel": 3,
      "note": 68,
      "start": 17.7676,
      "duration": 0.0131,
      "velocity": 108,
      "chip": "ym2612"
    },
    {
      "channel": 4,
      "note": 52,
      "start": 17.7679,
      "duration": 0.013,
      "velocity": 108,
      "chip": "ym2612"
    },
    {
      "channel": 3,
      "note": 49,
      "start": 17.7808,
      "duration": 0.0119,
      "velocity": 108,
      "chip": "ym2612"
    },
    {
      "channel": 4,
      "note": 52,
      "start": 17.7811,
      "duration": 0.0119,
      "velocity": 108,
      "chip": "ym2612"
    },
    {
      "channel": 3,
      "note": 49,
      "start": 17.7928,
      "duration": 0.0122,
      "velocity": 108,
      "chip": "ym2612"
    },
    {
      "channel": 4,
      "note": 54,
      "start": 17.7931,
      "duration": 0.0122,
      "velocity": 108,
      "chip": "ym2612"
    },
    {
      "channel": 3,
      "note": 52,
      "start": 17.8051,
      "duration": 0.0117,
      "velocity": 108,
      "chip": "ym2612"
    },
    {
      "channel": 4,
      "note": 54,
      "start": 17.8054,
      "duration": 0.0117,
      "velocity": 108,
      "chip": "ym2612"
    },
    {
      "channel": 3,
      "note": 52,
      "start": 17.817,
      "duration": 0.0126,
      "velocity": 108,
      "chip": "ym2612"
    },
    {
      "channel": 4,
      "note": 56,
      "start": 17.8172,
      "duration": 0.0126,
      "velocity": 108,
      "chip": "ym2612"
    },
    {
      "channel": 3,
      "note": 54,
      "start": 17.8297,
      "duration": 0.0127,
      "velocity": 108,
      "chip": "ym2612"
    },
    {
      "channel": 4,
      "note": 56,
      "start": 17.83,
      "duration": 0.0127,
      "velocity": 108,
      "chip": "ym2612"
    },
    {
      "channel": 3,
      "note": 54,
      "start": 17.8425,
      "duration": 0.0405,
      "velocity": 108,
      "chip": "ym2612"
    },
    {
      "channel": 4,
      "note": 59,
      "start": 17.8428,
      "duration": 0.0405,
      "velocity": 108,
      "chip": "ym2612"
    },
    {
      "channel": 3,
      "note": 56,
      "start": 17.8831,
      "duration": 0.105,
      "velocity": 108,
      "chip": "ym2612"
    },
    {
      "channel": 4,
      "note": 59,
      "start": 17.8834,
      "duration": 0.105,
      "velocity": 108,
      "chip": "ym2612"
    },
    {
      "channel": 3,
      "note": 56,
      "start": 17.9883,
      "duration": 0.105,
      "velocity": 108,
      "chip": "ym2612"
    },
    {
      "channel": 4,
      "note": 61,
      "start": 17.9885,
      "duration": 0.105,
      "velocity": 108,
      "chip": "ym2612"
    },
    {
      "channel": 3,
      "note": 59,
      "start": 18.0934,
      "duration": 0.1052,
      "velocity": 108,
      "chip": "ym2612"
    },
    {
      "channel": 4,
      "note": 61,
      "start": 18.0937,
      "duration": 0.1052,
      "velocity": 108,
      "chip": "ym2612"
    },
    {
      "channel": 0,
      "note": 93,
      "start": 18.1983,
      "duration": 0.0596,
      "velocity": 108,
      "chip": "ym2612"
    },
    {
      "channel": 3,
      "note": 59,
      "start": 18.1987,
      "duration": 0.0134,
      "velocity": 108,
      "chip": "ym2612"
    },
    {
      "channel": 4,
      "note": 64,
      "start": 18.199,
      "duration": 0.0134,
      "velocity": 108,
      "chip": "ym2612"
    },
    {
      "channel": 1,
      "note": 93,
      "start": 18.2119,
      "duration": 0.0849,
      "velocity": 108,
      "chip": "ym2612"
    },
    {
      "channel": 3,
      "note": 61,
      "start": 18.2122,
      "duration": 0.0118,
      "velocity": 108,
      "chip": "ym2612"
    },
    {
      "channel": 4,
      "note": 64,
      "start": 18.2125,
      "duration": 0.0118,
      "velocity": 108,
      "chip": "ym2612"
    },
    {
      "channel": 3,
      "note": 61,
      "start": 18.2242,
      "duration": 0.0119,
      "velocity": 108,
      "chip": "ym2612"
    },
    {
      "channel": 4,
      "note": 68,
      "start": 18.2245,
      "duration": 0.0119,
      "velocity": 108,
      "chip": "ym2612"
    },
    {
      "channel": 3,
      "note": 64,
      "start": 18.2362,
      "duration": 0.0223,
      "velocity": 108,
      "chip": "ym2612"
    },
    {
      "channel": 4,
      "note": 68,
      "start": 18.2365,
      "duration": 0.0222,
      "velocity": 108,
      "chip": "ym2612"
    },
    {
      "channel": 0,
      "note": 95,
      "start": 18.258,
      "duration": 0.4394,
      "velocity": 108,
      "chip": "ym2612"
    },
    {
      "channel": 2,
      "note": 45,
      "start": 18.2584,
      "duration": 0.0386,
      "velocity": 114,
      "chip": "ym2612"
    },
    {
      "channel": 3,
      "note": 64,
      "start": 18.2586,
      "duration": 0.0385,
      "velocity": 108,
      "chip": "ym2612"
    },
    {
      "channel": 4,
      "note": 49,
      "start": 18.2589,
      "duration": 0.0385,
      "velocity": 108,
      "chip": "ym2612"
    },
    {
      "channel": 1,
      "note": 95,
      "start": 18.2969,
      "duration": 0.4411,
      "velocity": 108,
      "chip": "ym2612"
    },
    {
      "channel": 3,
      "note": 68,
      "start": 18.2973,
      "duration": 0.105,
      "velocity": 108,
      "chip": "ym2612"
    },
    {
      "channel": 4,
      "note": 49,
      "start": 18.2976,
      "duration": 0.105,
      "velocity": 108,
      "chip": "ym2612"
    },
    {
      "channel": 2,
      "note": 45,
      "start": 18.4022,
      "duration": 0.0131,
      "velocity": 114,
      "chip": "ym2612"
    },
    {
      "channel": 3,
      "note": 68,
      "start": 18.4024,
      "duration": 0.0129,
      "velocity": 108,
      "chip": "ym2612"
    },
    {
      "channel": 4,
      "note": 52,
      "start": 18.4027,
      "duration": 0.0129,
      "velocity": 108,
      "chip": "ym2612"
    },
    {
      "channel": 3,
      "note": 49,
      "start": 18.4155,
      "duration": 0.0122,
      "velocity": 108,
      "chip": "ym2612"
    },
    {
      "channel": 4,
      "note": 52,
      "start": 18.4158,
      "duration": 0.0122,
      "velocity": 108,
      "chip": "ym2612"
    },
    {
      "channel": 2,
      "note": 45,
      "start": 18.4276,
      "duration": 0.8966,
      "velocity": 114,
      "chip": "ym2612"
    },
    {
      "channel": 3,
      "note": 49,
      "start": 18.4279,
      "duration": 0.012,
      "velocity": 108,
      "chip": "ym2612"
    },
    {
      "channel": 4,
      "note": 54,
      "start": 18.4281,
      "duration": 0.012,
      "velocity": 108,
      "chip": "ym2612"
    },
    {
      "channel": 3,
      "note": 52,
      "start": 18.44,
      "duration": 0.0117,
      "velocity": 108,
      "chip": "ym2612"
    },
    {
      "channel": 4,
      "note": 54,
      "start": 18.4403,
      "duration": 0.0116,
      "velocity": 108,
      "chip": "ym2612"
    },
    {
      "channel": 3,
      "note": 52,
      "start": 18.4518,
      "duration": 0.0129,
      "velocity": 108,
      "chip": "ym2612"
    },
    {
      "channel": 4,
      "note": 56,
      "start": 18.4521,
      "duration": 0.0129,
      "velocity": 108,
      "chip": "ym2612"
    },
    {
      "channel": 3,
      "note": 54,
      "start": 18.4648,
      "duration": 0.0125,
      "velocity": 108,
      "chip": "ym2612"
    },
    {
      "channel": 4,
      "note": 56,
      "start": 18.4651,
      "duration": 0.0125,
      "velocity": 108,
      "chip": "ym2612"
    },
    {
      "channel": 3,
      "note": 54,
      "start": 18.4774,
      "duration": 0.0401,
      "velocity": 108,
      "chip": "ym2612"
    },
    {
      "channel": 4,
      "note": 59,
      "start": 18.4777,
      "duration": 0.04,
      "velocity": 108,
      "chip": "ym2612"
    },
    {
      "channel": 3,
      "note": 56,
      "start": 18.5176,
      "duration": 0.105,
      "velocity": 108,
      "chip": "ym2612"
    },
    {
      "channel": 4,
      "note": 59,
      "start": 18.5179,
      "duration": 0.105,
      "velocity": 108,
      "chip": "ym2612"
    },
    {
      "channel": 3,
      "note": 56,
      "start": 18.6228,
      "duration": 0.0131,
      "velocity": 108,
      "chip": "ym2612"
    },
    {
      "channel": 4,
      "note": 61,
      "start": 18.623,
      "duration": 0.0131,
      "velocity": 108,
      "chip": "ym2612"
    },
    {
      "channel": 3,
      "note": 59,
      "start": 18.636,
      "duration": 0.0119,
      "velocity": 108,
      "chip": "ym2612"
    },
    {
      "channel": 4,
      "note": 61,
      "start": 18.6362,
      "duration": 0.0119,
      "velocity": 108,
      "chip": "ym2612"
    },
    {
      "channel": 3,
      "note": 59,
      "start": 18.648,
      "duration": 0.0122,
      "velocity": 108,
      "chip": "ym2612"
    },
    {
      "channel": 4,
      "note": 64,
      "start": 18.6483,
      "duration": 0.0122,
      "velocity": 108,
      "chip": "ym2612"
    },
    {
      "channel": 3,
      "note": 61,
      "start": 18.6604,
      "duration": 0.0117,
      "velocity": 108,
      "chip": "ym2612"
    },
    {
      "channel": 4,
      "note": 64,
      "start": 18.6607,
      "duration": 0.0116,
      "velocity": 108,
      "chip": "ym2612"
    },
    {
      "channel": 3,
      "note": 61,
      "start": 18.6722,
      "duration": 0.0128,
      "velocity": 108,
      "chip": "ym2612"
    },
    {
      "channel": 4,
      "note": 68,
      "start": 18.6724,
      "duration": 0.0128,
      "velocity": 108,
      "chip": "ym2612"
    },
    {
      "channel": 3,
      "note": 64,
      "start": 18.6851,
      "duration": 0.0127,
      "velocity": 108,
      "chip": "ym2612"
    },
    {
      "channel": 4,
      "note": 68,
      "start": 18.6854,
      "duration": 0.0127,
      "velocity": 108,
      "chip": "ym2612"
    },
    {
      "channel": 0,
      "note": 92,
      "start": 18.6976,
      "duration": 0.5765,
      "velocity": 108,
      "chip": "ym2612"
    },
    {
      "channel": 3,
      "note": 64,
      "start": 18.698,
      "duration": 0.0404,
      "velocity": 108,
      "chip": "ym2612"
    },
    {
      "channel": 4,
      "note": 49,
      "start": 18.6983,
      "duration": 0.0404,
      "velocity": 108,
      "chip": "ym2612"
    },
    {
      "channel": 1,
      "note": 92,
      "start": 18.7382,
      "duration": 0.5494,
      "velocity": 108,
      "chip": "ym2612"
    },
    {
      "channel": 3,
      "note": 68,
      "start": 18.7385,
      "duration": 0.1048,
      "velocity": 108,
      "chip": "ym2612"
    },
    {
      "channel": 4,
      "note": 49,
      "start": 18.7388,
      "duration": 0.1048,
      "velocity": 108,
      "chip": "ym2612"
    },
    {
      "channel": 3,
      "note": 68,
      "start": 18.8435,
      "duration": 0.013,
      "velocity": 108,
      "chip": "ym2612"
    },
    {
      "channel": 4,
      "note": 52,
      "start": 18.8438,
      "duration": 0.013,
      "velocity": 108,
      "chip": "ym2612"
    },
    {
      "channel": 3,
      "note": 49,
      "start": 18.8566,
      "duration": 0.012,
      "velocity": 108,
      "chip": "ym2612"
    },
    {
      "channel": 4,
      "note": 52,
      "start": 18.8569,
      "duration": 0.012,
      "velocity": 108,
      "chip": "ym2612"
    },
    {
      "channel": 3,
      "note": 49,
      "start": 18.8688,
      "duration": 0.0121,
      "velocity": 108,
      "chip": "ym2612"
    },
    {
      "channel": 4,
      "note": 54,
      "start": 18.869,
      "duration": 0.0121,
      "velocity": 108,
      "chip": "ym2612"
    },
    {
      "channel": 3,
      "note": 52,
      "start": 18.881,
      "duration": 0.0117,
      "velocity": 108,
      "chip": "ym2612"
    },
    {
      "channel": 4,
      "note": 54,
      "start": 18.8813,
      "duration": 0.0116,
      "velocity": 108,
      "chip": "ym2612"
    },
    {
      "channel": 3,
      "note": 52,
      "start": 18.8928,
      "duration": 0.0127,
      "velocity": 108,
      "chip": "ym2612"
    },
    {
      "channel": 4,
      "note": 56,
      "start": 18.8931,
      "duration": 0.0127,
      "velocity": 108,
      "chip": "ym2612"
    },
    {
      "channel": 3,
      "note": 54,
      "start": 18.9057,
      "duration": 0.0127,
      "velocity": 108,
      "chip": "ym2612"
    },
    {
      "channel": 4,
      "note": 56,
      "start": 18.9059,
      "duration": 0.0127,
      "velocity": 108,
      "chip": "ym2612"
    },
    {
      "channel": 3,
      "note": 54,
      "start": 18.9185,
      "duration": 0.0404,
      "velocity": 108,
      "chip": "ym2612"
    },
    {
      "channel": 4,
      "note": 59,
      "start": 18.9188,
      "duration": 0.0404,
      "velocity": 108,
      "chip": "ym2612"
    },
    {
      "channel": 3,
      "note": 56,
      "start": 18.959,
      "duration": 0.1051,
      "velocity": 108,
      "chip": "ym2612"
    },
    {
      "channel": 4,
      "note": 59,
      "start": 18.9593,
      "duration": 0.1051,
      "velocity": 108,
      "chip": "ym2612"
    },
    {
      "channel": 3,
      "note": 56,
      "start": 19.0643,
      "duration": 0.1048,
      "velocity": 108,
      "chip": "ym2612"
    },
    {
      "channel": 4,
      "note": 61,
      "start": 19.0646,
      "duration": 0.1048,
      "velocity": 108,
      "chip": "ym2612"
    },
    {
      "channel": 3,
      "note": 59,
      "start": 19.1693,
      "duration": 0.1052,
      "velocity": 108,
      "chip": "ym2612"
    },
    {
      "channel": 4,
      "note": 61,
      "start": 19.1695,
      "duration": 0.1052,
      "velocity": 108,
      "chip": "ym2612"
    },
    {
      "channel": 0,
      "note": 95,
      "start": 19.2742,
      "duration": 0.0497,
      "velocity": 108,
      "chip": "ym2612"
    },
    {
      "channel": 3,
      "note": 59,
      "start": 19.2746,
      "duration": 0.0134,
      "velocity": 108,
      "chip": "ym2612"
    },
    {
      "channel": 4,
      "note": 64,
      "start": 19.2749,
      "duration": 0.0134,
      "velocity": 108,
      "chip": "ym2612"
    },
    {
      "channel": 1,
      "note": 95,
      "start": 19.2878,
      "duration": 0.0746,
      "velocity": 108,
      "chip": "ym2612"
    },
    {
      "channel": 3,
      "note": 61,
      "start": 19.2881,
      "duration": 0.0118,
      "velocity": 108,
      "chip": "ym2612"
    },
    {
      "channel": 4,
      "note": 64,
      "start": 19.2884,
      "duration": 0.0118,
      "velocity": 108,
      "chip": "ym2612"
    },
    {
      "channel": 3,
      "note": 61,
      "start": 19.3001,
      "duration": 0.0119,
      "velocity": 108,
      "chip": "ym2612"
    },
    {
      "channel": 4,
      "note": 68,
      "start": 19.3004,
      "duration": 0.0119,
      "velocity": 108,
      "chip": "ym2612"
    },
    {
      "channel": 3,
      "note": 64,
      "start": 19.3121,
      "duration": 0.0124,
      "velocity": 108,
      "chip": "ym2612"
    },
    {
      "channel": 4,
      "note": 68,
      "start": 19.3124,
      "duration": 0.0124,
      "velocity": 108,
      "chip": "ym2612"
    },
    {
      "channel": 0,
      "note": 97,
      "start": 19.3241,
      "duration": 1.0156,
      "velocity": 108,
      "chip": "ym2612"
    },
    {
      "channel": 2,
      "note": 47,
      "start": 19.3244,
      "duration": 0.0383,
      "velocity": 114,
      "chip": "ym2612"
    },
    {
      "channel": 3,
      "note": 64,
      "start": 19.3246,
      "duration": 0.0381,
      "velocity": 108,
      "chip": "ym2612"
    },
    {
      "channel": 4,
      "note": 49,
      "start": 19.3249,
      "duration": 0.0382,
      "velocity": 108,
      "chip": "ym2612"
    },
    {
      "channel": 1,
      "note": 97,
      "start": 19.3626,
      "duration": 0.9905,
      "velocity": 108,
      "chip": "ym2612"
    },
    {
      "channel": 3,
      "note": 68,
      "start": 19.3629,
      "duration": 0.1049,
      "velocity": 108,
      "chip": "ym2612"
    },
    {
      "channel": 4,
      "note": 49,
      "start": 19.3632,
      "duration": 0.1049,
      "velocity": 108,
      "chip": "ym2612"
    },
    {
      "channel": 2,
      "note": 47,
      "start": 19.4678,
      "duration": 0.0131,
      "velocity": 114,
      "chip": "ym2612"
    },
    {
      "channel": 3,
      "note": 68,
      "start": 19.468,
      "duration": 0.013,
      "velocity": 108,
      "chip": "ym2612"
    },
    {
      "channel": 4,
      "note": 52,
      "start": 19.4683,
      "duration": 0.0129,
      "velocity": 108,
      "chip": "ym2612"
    },
    {
      "channel": 3,
      "note": 49,
      "start": 19.4811,
      "duration": 0.0123,
      "velocity": 108,
      "chip": "ym2612"
    },
    {
      "channel": 4,
      "note": 52,
      "start": 19.4814,
      "duration": 0.0123,
      "velocity": 108,
      "chip": "ym2612"
    },
    {
      "channel": 2,
      "note": 47,
      "start": 19.4933,
      "duration": 0.9065,
      "velocity": 114,
      "chip": "ym2612"
    },
    {
      "channel": 3,
      "note": 49,
      "start": 19.4936,
      "duration": 0.012,
      "velocity": 108,
      "chip": "ym2612"
    },
    {
      "channel": 4,
      "note": 54,
      "start": 19.4938,
      "duration": 0.012,
      "velocity": 108,
      "chip": "ym2612"
    },
    {
      "channel": 3,
      "note": 52,
      "start": 19.5057,
      "duration": 0.0117,
      "velocity": 108,
      "chip": "ym2612"
    },
    {
      "channel": 4,
      "note": 54,
      "start": 19.506,
      "duration": 0.0116,
      "velocity": 108,
      "chip": "ym2612"
    },
    {
      "channel": 3,
      "note": 52,
      "start": 19.5175,
      "duration": 0.0128,
      "velocity": 108,
      "chip": "ym2612"
    },
    {
      "channel": 4,
      "note": 56,
      "start": 19.5178,
      "duration": 0.0128,
      "velocity": 108,
      "chip": "ym2612"
    },
    {
      "channel": 3,
      "note": 54,
      "start": 19.5305,
      "duration": 0.0125,
      "velocity": 108,
      "chip": "ym2612"
    },
    {
      "channel": 4,
      "note": 56,
      "start": 19.5307,
      "duration": 0.0125,
      "velocity": 108,
      "chip": "ym2612"
    },
    {
      "channel": 3,
      "note": 54,
      "start": 19.5431,
      "duration": 0.0401,
      "velocity": 108,
      "chip": "ym2612"
    },
    {
      "channel": 4,
      "note": 59,
      "start": 19.5434,
      "duration": 0.0401,
      "velocity": 108,
      "chip": "ym2612"
    },
    {
      "channel": 3,
      "note": 56,
      "start": 19.5833,
      "duration": 0.105,
      "velocity": 108,
      "chip": "ym2612"
    },
    {
      "channel": 4,
      "note": 59,
      "start": 19.5836,
      "duration": 0.105,
      "velocity": 108,
      "chip": "ym2612"
    },
    {
      "channel": 3,
      "note": 56,
      "start": 19.6885,
      "duration": 0.0129,
      "velocity": 108,
      "chip": "ym2612"
    },
    {
      "channel": 4,
      "note": 61,
      "start": 19.6887,
      "duration": 0.0129,
      "velocity": 108,
      "chip": "ym2612"
    },
    {
      "channel": 3,
      "note": 59,
      "start": 19.7015,
      "duration": 0.012,
      "velocity": 108,
      "chip": "ym2612"
    },
    {
      "channel": 4,
      "note": 61,
      "start": 19.7018,
      "duration": 0.012,
      "velocity": 108,
      "chip": "ym2612"
    },
    {
      "channel": 3,
      "note": 59,
      "start": 19.7137,
      "duration": 0.0121,
      "velocity": 108,
      "chip": "ym2612"
    },
    {
      "channel": 4,
      "note": 64,
      "start": 19.7139,
      "duration": 0.0121,
      "velocity": 108,
      "chip": "ym2612"
    },
    {
      "channel": 3,
      "note": 61,
      "start": 19.726,
      "duration": 0.0117,
      "velocity": 108,
      "chip": "ym2612"
    },
    {
      "channel": 4,
      "note": 64,
      "start": 19.7262,
      "duration": 0.0116,
      "velocity": 108,
      "chip": "ym2612"
    },
    {
      "channel": 3,
      "note": 61,
      "start": 19.7378,
      "duration": 0.0128,
      "velocity": 108,
      "chip": "ym2612"
    },
    {
      "channel": 4,
      "note": 68,
      "start": 19.738,
      "duration": 0.0128,
      "velocity": 108,
      "chip": "ym2612"
    },
    {
      "channel": 3,
      "note": 64,
      "start": 19.7507,
      "duration": 0.0125,
      "velocity": 108,
      "chip": "ym2612"
    },
    {
      "channel": 4,
      "note": 68,
      "start": 19.751,
      "duration": 0.0125,
      "velocity": 108,
      "chip": "ym2612"
    },
    {
      "channel": 3,
      "note": 64,
      "start": 19.7634,
      "duration": 0.0404,
      "velocity": 108,
      "chip": "ym2612"
    },
    {
      "channel": 4,
      "note": 49,
      "start": 19.7636,
      "duration": 0.0404,
      "velocity": 108,
      "chip": "ym2612"
    },
    {
      "channel": 3,
      "note": 68,
      "start": 19.8039,
      "duration": 0.105,
      "velocity": 108,
      "chip": "ym2612"
    },
    {
      "channel": 4,
      "note": 49,
      "start": 19.8042,
      "duration": 0.105,
      "velocity": 108,
      "chip": "ym2612"
    },
    {
      "channel": 3,
      "note": 68,
      "start": 19.909,
      "duration": 0.0131,
      "velocity": 108,
      "chip": "ym2612"
    },
    {
      "channel": 4,
      "note": 52,
      "start": 19.9093,
      "duration": 0.0131,
      "velocity": 108,
      "chip": "ym2612"
    },
    {
      "channel": 3,
      "note": 49,
      "start": 19.9223,
      "duration": 0.0119,
      "velocity": 108,
      "chip": "ym2612"
    },
    {
      "channel": 4,
      "note": 52,
      "start": 19.9225,
      "duration": 0.0119,
      "velocity": 108,
      "chip": "ym2612"
    },
    {
      "channel": 3,
      "note": 49,
      "start": 19.9343,
      "duration": 0.0122,
      "velocity": 108,
      "chip": "ym2612"
    },
    {
      "channel": 4,
      "note": 54,
      "start": 19.9346,
      "duration": 0.0122,
      "velocity": 108,
      "chip": "ym2612"
    },
    {
      "channel": 3,
      "note": 52,
      "start": 19.9466,
      "duration": 0.0117,
      "velocity": 108,
      "chip": "ym2612"
    },
    {
      "channel": 4,
      "note": 54,
      "start": 19.9469,
      "duration": 0.0117,
      "velocity": 108,
      "chip": "ym2612"
    },
    {
      "channel": 3,
      "note": 52,
      "start": 19.9585,
      "duration": 0.0126,
      "velocity": 108,
      "chip": "ym2612"
    },
    {
      "channel": 4,
      "note": 56,
      "start": 19.9587,
      "duration": 0.0126,
      "velocity": 108,
      "chip": "ym2612"
    },
    {
      "channel": 3,
      "note": 54,
      "start": 19.9712,
      "duration": 0.0127,
      "velocity": 108,
      "chip": "ym2612"
    },
    {
      "channel": 4,
      "note": 56,
      "start": 19.9715,
      "duration": 0.0126,
      "velocity": 108,
      "chip": "ym2612"
    },
    {
      "channel": 3,
      "note": 54,
      "start": 19.984,
      "duration": 0.0404,
      "velocity": 108,
      "chip": "ym2612"
    },
    {
      "channel": 4,
      "note": 59,
      "start": 19.9843,
      "duration": 0.0404,
      "velocity": 108,
      "chip": "ym2612"
    },
    {
      "channel": 3,
      "note": 56,
      "start": 20.0246,
      "duration": 0.105,
      "velocity": 108,
      "chip": "ym2612"
    },
    {
      "channel": 4,
      "note": 59,
      "start": 20.0249,
      "duration": 0.105,
      "velocity": 108,
      "chip": "ym2612"
    },
    {
      "channel": 3,
      "note": 56,
      "start": 20.1297,
      "duration": 0.105,
      "velocity": 108,
      "chip": "ym2612"
    },
    {
      "channel": 4,
      "note": 61,
      "start": 20.13,
      "duration": 0.105,
      "velocity": 108,
      "chip": "ym2612"
    },
    {
      "channel": 3,
      "note": 59,
      "start": 20.2348,
      "duration": 0.1052,
      "velocity": 108,
      "chip": "ym2612"
    },
    {
      "channel": 4,
      "note": 61,
      "start": 20.2351,
      "duration": 0.1052,
      "velocity": 108,
      "chip": "ym2612"
    },
    {
      "channel": 0,
      "note": 93,
      "start": 20.3398,
      "duration": 0.0254,
      "velocity": 108,
      "chip": "ym2612"
    },
    {
      "channel": 3,
      "note": 59,
      "start": 20.3402,
      "duration": 0.0133,
      "velocity": 108,
      "chip": "ym2612"
    },
    {
      "channel": 4,
      "note": 64,
      "start": 20.3404,
      "duration": 0.0133,
      "velocity": 108,
      "chip": "ym2612"
    },
    {
      "channel": 1,
      "note": 93,
      "start": 20.3533,
      "duration": 0.0241,
      "velocity": 108,
      "chip": "ym2612"
    },
    {
      "channel": 3,
      "note": 61,
      "start": 20.3536,
      "duration": 0.0119,
      "velocity": 108,
      "chip": "ym2612"
    },
    {
      "channel": 4,
      "note": 64,
      "start": 20.3539,
      "duration": 0.0119,
      "velocity": 108,
      "chip": "ym2612"
    },
    {
      "channel": 0,
      "note": 92,
      "start": 20.3653,
      "duration": 0.0342,
      "velocity": 108,
      "chip": "ym2612"
    },
    {
      "channel": 3,
      "note": 61,
      "start": 20.3656,
      "duration": 0.0121,
      "velocity": 108,
      "chip": "ym2612"
    },
    {
      "channel": 4,
      "note": 68,
      "start": 20.3659,
      "duration": 0.0121,
      "velocity": 108,
      "chip": "ym2612"
    },
    {
      "channel": 1,
      "note": 92,
      "start": 20.3775,
      "duration": 0.0605,
      "velocity": 108,
      "chip": "ym2612"
    },
    {
      "channel": 3,
      "note": 64,
      "start": 20.3779,
      "duration": 0.0222,
      "velocity": 108,
      "chip": "ym2612"
    },
    {
      "channel": 4,
      "note": 68,
      "start": 20.3781,
      "duration": 0.0222,
      "velocity": 108,
      "chip": "ym2612"
    },
    {
      "channel": 0,
      "note": 90,
      "start": 20.3996,
      "duration": 0.2187,
      "velocity": 108,
      "chip": "ym2612"
    },
    {
      "channel": 2,
      "note": 45,
      "start": 20.3999,
      "duration": 0.0383,
      "velocity": 114,
      "chip": "ym2612"
    },
    {
      "channel": 3,
      "note": 64,
      "start": 20.4002,
      "duration": 0.0382,
      "velocity": 108,
      "chip": "ym2612"
    },
    {
      "channel": 4,
      "note": 49,
      "start": 20.4005,
      "duration": 0.0382,
      "velocity": 108,
      "chip": "ym2612"
    },
    {
      "channel": 1,
      "note": 90,
      "start": 20.4382,
      "duration": 0.2203,
      "velocity": 108,
      "chip": "ym2612"
    },
    {
      "channel": 3,
      "note": 68,
      "start": 20.4386,
      "duration": 0.105,
      "velocity": 108,
      "chip": "ym2612"
    },
    {
      "channel": 4,
      "note": 49,
      "start": 20.4388,
      "duration": 0.105,
      "velocity": 108,
      "chip": "ym2612"
    },
    {
      "channel": 2,
      "note": 45,
      "start": 20.5434,
      "duration": 0.0131,
      "velocity": 114,
      "chip": "ym2612"
    },
    {
      "channel": 3,
      "note": 68,
      "start": 20.5437,
      "duration": 0.0129,
      "velocity": 108,
      "chip": "ym2612"
    },
    {
      "channel": 4,
      "note": 52,
      "start": 20.5439,
      "duration": 0.0129,
      "velocity": 108,
      "chip": "ym2612"
    },
    {
      "channel": 3,
      "note": 49,
      "start": 20.5568,
      "duration": 0.0122,
      "velocity": 108,
      "chip": "ym2612"
    },
    {
      "channel": 4,
      "note": 52,
      "start": 20.557,
      "duration": 0.0122,
      "velocity": 108,
      "chip": "ym2612"
    },
    {
      "channel": 2,
      "note": 45,
      "start": 20.5688,
      "duration": 0.8961,
      "velocity": 114,
      "chip": "ym2612"
    },
    {
      "channel": 3,
      "note": 49,
      "start": 20.5691,
      "duration": 0.012,
      "velocity": 108,
      "chip": "ym2612"
    },
    {
      "channel": 4,
      "note": 54,
      "start": 20.5694,
      "duration": 0.012,
      "velocity": 108,
      "chip": "ym2612"
    },
    {
      "channel": 3,
      "note": 52,
      "start": 20.5812,
      "duration": 0.0117,
      "velocity": 108,
      "chip": "ym2612"
    },
    {
      "channel": 4,
      "note": 54,
      "start": 20.5815,
      "duration": 0.0117,
      "velocity": 108,
      "chip": "ym2612"
    },
    {
      "channel": 3,
      "note": 52,
      "start": 20.5931,
      "duration": 0.0128,
      "velocity": 108,
      "chip": "ym2612"
    },
    {
      "channel": 4,
      "note": 56,
      "start": 20.5933,
      "duration": 0.0128,
      "velocity": 108,
      "chip": "ym2612"
    },
    {
      "channel": 3,
      "note": 54,
      "start": 20.606,
      "duration": 0.0127,
      "velocity": 108,
      "chip": "ym2612"
    },
    {
      "channel": 4,
      "note": 56,
      "start": 20.6063,
      "duration": 0.0127,
      "velocity": 108,
      "chip": "ym2612"
    },
    {
      "channel": 0,
      "note": 88,
      "start": 20.6184,
      "duration": 0.22,
      "velocity": 108,
      "chip": "ym2612"
    },
    {
      "channel": 3,
      "note": 54,
      "start": 20.6188,
      "duration": 0.0401,
      "velocity": 108,
      "chip": "ym2612"
    },
    {
      "channel": 4,
      "note": 59,
      "start": 20.6191,
      "duration": 0.0401,
      "velocity": 108,
      "chip": "ym2612"
    },
    {
      "channel": 1,
      "note": 88,
      "start": 20.6587,
      "duration": 0.2204,
      "velocity": 108,
      "chip": "ym2612"
    },
    {
      "channel": 3,
      "note": 56,
      "start": 20.659,
      "duration": 0.1048,
      "velocity": 108,
      "chip": "ym2612"
    },
    {
      "channel": 4,
      "note": 59,
      "start": 20.6593,
      "duration": 0.1048,
      "velocity": 108,
      "chip": "ym2612"
    },
    {
      "channel": 3,
      "note": 56,
      "start": 20.764,
      "duration": 0.0129,
      "velocity": 108,
      "chip": "ym2612"
    },
    {
      "channel": 4,
      "note": 61,
      "start": 20.7642,
      "duration": 0.0129,
      "velocity": 108,
      "chip": "ym2612"
    },
    {
      "channel": 3,
      "note": 59,
      "start": 20.7771,
      "duration": 0.012,
      "velocity": 108,
      "chip": "ym2612"
    },
    {
      "channel": 4,
      "note": 61,
      "start": 20.7773,
      "duration": 0.012,
      "velocity": 108,
      "chip": "ym2612"
    },
    {
      "channel": 3,
      "note": 59,
      "start": 20.7892,
      "duration": 0.0121,
      "velocity": 108,
      "chip": "ym2612"
    },
    {
      "channel": 4,
      "note": 64,
      "start": 20.7895,
      "duration": 0.0121,
      "velocity": 108,
      "chip": "ym2612"
    },
    {
      "channel": 3,
      "note": 61,
      "start": 20.8015,
      "duration": 0.0117,
      "velocity": 108,
      "chip": "ym2612"
    },
    {
      "channel": 4,
      "note": 64,
      "start": 20.8017,
      "duration": 0.0116,
      "velocity": 108,
      "chip": "ym2612"
    },
    {
      "channel": 3,
      "note": 61,
      "start": 20.8133,
      "duration": 0.0128,
      "velocity": 108,
      "chip": "ym2612"
    },
    {
      "channel": 4,
      "note": 68,
      "start": 20.8135,
      "duration": 0.0128,
      "velocity": 108,
      "chip": "ym2612"
    },
    {
      "channel": 3,
      "note": 64,
      "start": 20.8262,
      "duration": 0.0127,
      "velocity": 108,
      "chip": "ym2612"
    },
    {
      "channel": 4,
      "note": 68,
      "start": 20.8265,
      "duration": 0.0127,
      "velocity": 108,
      "chip": "ym2612"
    },
    {
      "channel": 0,
      "note": 87,
      "start": 20.8386,
      "duration": 0.2206,
      "velocity": 108,
      "chip": "ym2612"
    },
    {
      "channel": 3,
      "note": 64,
      "start": 20.839,
      "duration": 0.0405,
      "velocity": 108,
      "chip": "ym2612"
    },
    {
      "channel": 4,
      "note": 49,
      "start": 20.8393,
      "duration": 0.0405,
      "velocity": 108,
      "chip": "ym2612"
    },
    {
      "channel": 1,
      "note": 87,
      "start": 20.8793,
      "duration": 0.2206,
      "velocity": 108,
      "chip": "ym2612"
    },
    {
      "channel": 3,
      "note": 68,
      "start": 20.8796,
      "duration": 0.1048,
      "velocity": 108,
      "chip": "ym2612"
    },
    {
      "channel": 4,
      "note": 49,
      "start": 20.8799,
      "duration": 0.1048,
      "velocity": 108,
      "chip": "ym2612"
    },
    {
      "channel": 3,
      "note": 68,
      "start": 20.9846,
      "duration": 0.013,
      "velocity": 108,
      "chip": "ym2612"
    },
    {
      "channel": 4,
      "note": 52,
      "start": 20.9849,
      "duration": 0.013,
      "velocity": 108,
      "chip": "ym2612"
    },
    {
      "channel": 3,
      "note": 49,
      "start": 20.9977,
      "duration": 0.012,
      "velocity": 108,
      "chip": "ym2612"
    },
    {
      "channel": 4,
      "note": 52,
      "start": 20.998,
      "duration": 0.012,
      "velocity": 108,
      "chip": "ym2612"
    },
    {
      "channel": 3,
      "note": 49,
      "start": 21.0099,
      "duration": 0.0122,
      "velocity": 108,
      "chip": "ym2612"
    },
    {
      "channel": 4,
      "note": 54,
      "start": 21.0101,
      "duration": 0.0122,
      "velocity": 108,
      "chip": "ym2612"
    },
    {
      "channel": 3,
      "note": 52,
      "start": 21.0222,
      "duration": 0.0117,
      "velocity": 108,
      "chip": "ym2612"
    },
    {
      "channel": 4,
      "note": 54,
      "start": 21.0224,
      "duration": 0.0117,
      "velocity": 108,
      "chip": "ym2612"
    },
    {
      "channel": 3,
      "note": 52,
      "start": 21.034,
      "duration": 0.0127,
      "velocity": 108,
      "chip": "ym2612"
    },
    {
      "channel": 4,
      "note": 56,
      "start": 21.0343,
      "duration": 0.0127,
      "velocity": 108,
      "chip": "ym2612"
    },
    {
      "channel": 3,
      "note": 54,
      "start": 21.0468,
      "duration": 0.0128,
      "velocity": 108,
      "chip": "ym2612"
    },
    {
      "channel": 4,
      "note": 56,
      "start": 21.0471,
      "duration": 0.0128,
      "velocity": 108,
      "chip": "ym2612"
    },
    {
      "channel": 0,
      "note": 83,
      "start": 21.0594,
      "duration": 0.4053,
      "velocity": 108,
      "chip": "ym2612"
    },
    {
      "channel": 3,
      "note": 54,
      "start": 21.0598,
      "duration": 0.0405,
      "velocity": 108,
      "chip": "ym2612"
    },
    {
      "channel": 4,
      "note": 59,
      "start": 21.06,
      "duration": 0.0405,
      "velocity": 108,
      "chip": "ym2612"
    },
    {
      "channel": 1,
      "note": 83,
      "start": 21.1001,
      "duration": 0.3776,
      "velocity": 108,
      "chip": "ym2612"
    },
    {
      "channel": 3,
      "note": 56,
      "start": 21.1004,
      "duration": 0.1048,
      "velocity": 108,
      "chip": "ym2612"
    },
    {
      "channel": 4,
      "note": 59,
      "start": 21.1007,
      "duration": 0.1048,
      "velocity": 108,
      "chip": "ym2612"
    },
    {
      "channel": 3,
      "note": 56,
      "start": 21.2053,
      "duration": 0.105,
      "velocity": 108,
      "chip": "ym2612"
    },
    {
      "channel": 4,
      "note": 61,
      "start": 21.2056,
      "duration": 0.105,
      "velocity": 108,
      "chip": "ym2612"
    },
    {
      "channel": 3,
      "note": 59,
      "start": 21.3105,
      "duration": 0.105,
      "velocity": 108,
      "chip": "ym2612"
    },
    {
      "channel": 4,
      "note": 61,
      "start": 21.3107,
      "duration": 0.105,
      "velocity": 108,
      "chip": "ym2612"
    },
    {
      "channel": 3,
      "note": 59,
      "start": 21.4156,
      "duration": 0.0132,
      "velocity": 108,
      "chip": "ym2612"
    },
    {
      "channel": 4,
      "note": 64,
      "start": 21.4159,
      "duration": 0.0132,
      "velocity": 108,
      "chip": "ym2612"
    },
    {
      "channel": 3,
      "note": 61,
      "start": 21.4289,
      "duration": 0.0118,
      "velocity": 108,
      "chip": "ym2612"
    },
    {
      "channel": 4,
      "note": 64,
      "start": 21.4292,
      "duration": 0.0118,
      "velocity": 108,
      "chip": "ym2612"
    },
    {
      "channel": 3,
      "note": 61,
      "start": 21.4408,
      "duration": 0.0119,
      "velocity": 108,
      "chip": "ym2612"
    },
    {
      "channel": 4,
      "note": 68,
      "start": 21.4411,
      "duration": 0.0119,
      "velocity": 108,
      "chip": "ym2612"
    },
    {
      "channel": 3,
      "note": 64,
      "start": 21.4529,
      "duration": 0.0124,
      "velocity": 108,
      "chip": "ym2612"
    },
    {
      "channel": 4,
      "note": 68,
      "start": 21.4531,
      "duration": 0.0124,
      "velocity": 108,
      "chip": "ym2612"
    },
    {
      "channel": 0,
      "note": 73,
      "start": 21.4648,
      "duration": 1.6604,
      "velocity": 108,
      "chip": "ym2612"
    },
    {
      "channel": 2,
      "note": 49,
      "start": 21.4651,
      "duration": 0.0128,
      "velocity": 114,
      "chip": "ym2612"
    },
    {
      "channel": 3,
      "note": 64,
      "start": 21.4654,
      "duration": 0.0127,
      "velocity": 108,
      "chip": "ym2612"
    },
    {
      "channel": 4,
      "note": 49,
      "start": 21.4656,
      "duration": 0.0127,
      "velocity": 108,
      "chip": "ym2612"
    },
    {
      "channel": 1,
      "note": 73,
      "start": 21.4778,
      "duration": 1.6914,
      "velocity": 108,
      "chip": "ym2612"
    },
    {
      "channel": 3,
      "note": 68,
      "start": 21.4782,
      "duration": 0.0121,
      "velocity": 108,
      "chip": "ym2612"
    },
    {
      "channel": 4,
      "note": 49,
      "start": 21.4785,
      "duration": 0.012,
      "velocity": 108,
      "chip": "ym2612"
    },
    {
      "channel": 2,
      "note": 49,
      "start": 21.4901,
      "duration": 0.0127,
      "velocity": 114,
      "chip": "ym2612"
    },
    {
      "channel": 3,
      "note": 68,
      "start": 21.4904,
      "duration": 0.0126,
      "velocity": 108,
      "chip": "ym2612"
    },
    {
      "channel": 4,
      "note": 52,
      "start": 21.4907,
      "duration": 0.0126,
      "velocity": 108,
      "chip": "ym2612"
    },
    {
      "channel": 3,
      "note": 49,
      "start": 21.5031,
      "duration": 0.0127,
      "velocity": 108,
      "chip": "ym2612"
    },
    {
      "channel": 4,
      "note": 52,
      "start": 21.5034,
      "duration": 0.0127,
      "velocity": 108,
      "chip": "ym2612"
    },
    {
      "channel": 2,
      "note": 49,
      "start": 21.5157,
      "duration": 0.8379,
      "velocity": 114,
      "chip": "ym2612"
    },
    {
      "channel": 3,
      "note": 49,
      "start": 21.516,
      "duration": 0.0121,
      "velocity": 108,
      "chip": "ym2612"
    },
    {
      "channel": 4,
      "note": 54,
      "start": 21.5162,
      "duration": 0.0122,
      "velocity": 108,
      "chip": "ym2612"
    },
    {
      "channel": 3,
      "note": 52,
      "start": 21.5283,
      "duration": 0.0128,
      "velocity": 108,
      "chip": "ym2612"
    },
    {
      "channel": 4,
      "note": 54,
      "start": 21.5285,
      "duration": 0.0128,
      "velocity": 108,
      "chip": "ym2612"
    },
    {
      "channel": 3,
      "note": 52,
      "start": 21.5412,
      "duration": 0.0127,
      "velocity": 108,
      "chip": "ym2612"
    },
    {
      "channel": 4,
      "note": 56,
      "start": 21.5415,
      "duration": 0.0127,
      "velocity": 108,
      "chip": "ym2612"
    },
    {
      "channel": 3,
      "note": 54,
      "start": 21.554,
      "duration": 0.0125,
      "velocity": 108,
      "chip": "ym2612"
    },
    {
      "channel": 4,
      "note": 56,
      "start": 21.5543,
      "duration": 0.0125,
      "velocity": 108,
      "chip": "ym2612"
    },
    {
      "channel": 3,
      "note": 54,
      "start": 21.5667,
      "duration": 0.0356,
      "velocity": 108,
      "chip": "ym2612"
    },
    {
      "channel": 4,
      "note": 59,
      "start": 21.5669,
      "duration": 0.0356,
      "velocity": 108,
      "chip": "ym2612"
    },
    {
      "channel": 3,
      "note": 56,
      "start": 21.6024,
      "duration": 0.105,
      "velocity": 108,
      "chip": "ym2612"
    },
    {
      "channel": 4,
      "note": 59,
      "start": 21.6027,
      "duration": 0.105,
      "velocity": 108,
      "chip": "ym2612"
    },
    {
      "channel": 3,
      "note": 56,
      "start": 21.7076,
      "duration": 0.013,
      "velocity": 108,
      "chip": "ym2612"
    },
    {
      "channel": 4,
      "note": 61,
      "start": 21.7078,
      "duration": 0.013,
      "velocity": 108,
      "chip": "ym2612"
    },
    {
      "channel": 3,
      "note": 59,
      "start": 21.7208,
      "duration": 0.0119,
      "velocity": 108,
      "chip": "ym2612"
    },
    {
      "channel": 4,
      "note": 61,
      "start": 21.721,
      "duration": 0.0119,
      "velocity": 108,
      "chip": "ym2612"
    },
    {
      "channel": 3,
      "note": 59,
      "start": 21.7328,
      "duration": 0.0968,
      "velocity": 108,
      "chip": "ym2612"
    },
    {
      "channel": 4,
      "note": 64,
      "start": 21.7331,
      "duration": 0.0968,
      "velocity": 108,
      "chip": "ym2612"
    },
    {
      "channel": 3,
      "note": 61,
      "start": 21.8298,
      "duration": 0.105,
      "velocity": 108,
      "chip": "ym2612"
    },
    {
      "channel": 4,
      "note": 64,
      "start": 21.83,
      "duration": 0.105,
      "velocity": 108,
      "chip": "ym2612"
    },
    {
      "channel": 3,
      "note": 61,
      "start": 21.9349,
      "duration": 0.0133,
      "velocity": 108,
      "chip": "ym2612"
    },
    {
      "channel": 4,
      "note": 68,
      "start": 21.9351,
      "duration": 0.0133,
      "velocity": 108,
      "chip": "ym2612"
    },
    {
      "channel": 3,
      "note": 64,
      "start": 21.9483,
      "duration": 0.012,
      "velocity": 108,
      "chip": "ym2612"
    },
    {
      "channel": 4,
      "note": 68,
      "start": 21.9485,
      "duration": 0.012,
      "velocity": 108,
      "chip": "ym2612"
    },
    {
      "channel": 3,
      "note": 64,
      "start": 21.9604,
      "duration": 0.0355,
      "velocity": 108,
      "chip": "ym2612"
    },
    {
      "channel": 4,
      "note": 49,
      "start": 21.9607,
      "duration": 0.0355,
      "velocity": 108,
      "chip": "ym2612"
    },
    {
      "channel": 3,
      "note": 68,
      "start": 21.9961,
      "duration": 0.105,
      "velocity": 108,
      "chip": "ym2612"
    },
    {
      "channel": 4,
      "note": 49,
      "start": 21.9963,
      "duration": 0.105,
      "velocity": 108,
      "chip": "ym2612"
    },
    {
      "channel": 3,
      "note": 68,
      "start": 22.1012,
      "duration": 0.013,
      "velocity": 108,
      "chip": "ym2612"
    },
    {
      "channel": 4,
      "note": 52,
      "start": 22.1015,
      "duration": 0.013,
      "velocity": 108,
      "chip": "ym2612"
    },
    {
      "channel": 3,
      "note": 49,
      "start": 22.1144,
      "duration": 0.0119,
      "velocity": 108,
      "chip": "ym2612"
    },
    {
      "channel": 4,
      "note": 52,
      "start": 22.1146,
      "duration": 0.0119,
      "velocity": 108,
      "chip": "ym2612"
    },
    {
      "channel": 3,
      "note": 49,
      "start": 22.1264,
      "duration": 0.0968,
      "velocity": 108,
      "chip": "ym2612"
    },
    {
      "channel": 4,
      "note": 54,
      "start": 22.1267,
      "duration": 0.0968,
      "velocity": 108,
      "chip": "ym2612"
    },
    {
      "channel": 3,
      "note": 52,
      "start": 22.2233,
      "duration": 0.105,
      "velocity": 108,
      "chip": "ym2612"
    },
    {
      "channel": 4,
      "note": 54,
      "start": 22.2236,
      "duration": 0.105,
      "velocity": 108,
      "chip": "ym2612"
    },
    {
      "channel": 3,
      "note": 52,
      "start": 22.3285,
      "duration": 0.0131,
      "velocity": 108,
      "chip": "ym2612"
    },
    {
      "channel": 4,
      "note": 56,
      "start": 22.3287,
      "duration": 0.0131,
      "velocity": 108,
      "chip": "ym2612"
    },
    {
      "channel": 3,
      "note": 54,
      "start": 22.3417,
      "duration": 0.012,
      "velocity": 108,
      "chip": "ym2612"
    },
    {
      "channel": 4,
      "note": 56,
      "start": 22.342,
      "duration": 0.012,
      "velocity": 108,
      "chip": "ym2612"
    },
    {
      "channel": 3,
      "note": 54,
      "start": 22.3539,
      "duration": 0.0355,
      "velocity": 108,
      "chip": "ym2612"
    },
    {
      "channel": 4,
      "note": 59,
      "start": 22.3541,
      "duration": 0.0355,
      "velocity": 108,
      "chip": "ym2612"
    },
    {
      "channel": 3,
      "note": 56,
      "start": 22.3895,
      "duration": 0.1051,
      "velocity": 108,
      "chip": "ym2612"
    },
    {
      "channel": 4,
      "note": 59,
      "start": 22.3898,
      "duration": 0.1051,
      "velocity": 108,
      "chip": "ym2612"
    },
    {
      "channel": 3,
      "note": 56,
      "start": 22.4948,
      "duration": 0.1049,
      "velocity": 108,
      "chip": "ym2612"
    },
    {
      "channel": 4,
      "note": 61,
      "start": 22.4951,
      "duration": 0.1049,
      "velocity": 108,
      "chip": "ym2612"
    },
    {
      "channel": 3,
      "note": 59,
      "start": 22.5998,
      "duration": 0.105,
      "velocity": 108,
      "chip": "ym2612"
    },
    {
      "channel": 4,
      "note": 61,
      "start": 22.6001,
      "duration": 0.105,
      "velocity": 108,
      "chip": "ym2612"
    },
    {
      "channel": 3,
      "note": 59,
      "start": 22.7049,
      "duration": 0.105,
      "velocity": 108,
      "chip": "ym2612"
    },
    {
      "channel": 4,
      "note": 64,
      "start": 22.7052,
      "duration": 0.105,
      "velocity": 108,
      "chip": "ym2612"
    },
    {
      "channel": 3,
      "note": 61,
      "start": 22.8101,
      "duration": 0.105,
      "velocity": 108,
      "chip": "ym2612"
    },
    {
      "channel": 4,
      "note": 64,
      "start": 22.8103,
      "duration": 0.105,
      "velocity": 108,
      "chip": "ym2612"
    },
    {
      "channel": 3,
      "note": 61,
      "start": 22.9152,
      "duration": 0.105,
      "velocity": 108,
      "chip": "ym2612"
    },
    {
      "channel": 4,
      "note": 68,
      "start": 22.9155,
      "duration": 0.105,
      "velocity": 108,
      "chip": "ym2612"
    },
    {
      "channel": 3,
      "note": 64,
      "start": 23.0203,
      "duration": 0.1052,
      "velocity": 108,
      "chip": "ym2612"
    },
    {
      "channel": 4,
      "note": 68,
      "start": 23.0206,
      "duration": 0.1052,
      "velocity": 108,
      "chip": "ym2612"
    },
    {
      "channel": 3,
      "note": 64,
      "start": 23.1257,
      "duration": 0.0438,
      "velocity": 108,
      "chip": "ym2612"
    },
    {
      "channel": 4,
      "note": 49,
      "start": 23.1259,
      "duration": 0.0438,
      "velocity": 108,
      "chip": "ym2612"
    },
    {
      "channel": 3,
      "note": 68,
      "start": 23.1696,
      "duration": 0.105,
      "velocity": 108,
      "chip": "ym2612"
    },
    {
      "channel": 4,
      "note": 49,
      "start": 23.1698,
      "duration": 0.105,
      "velocity": 108,
      "chip": "ym2612"
    },
    {
      "channel": 3,
      "note": 68,
      "start": 23.2747,
      "duration": 0.0131,
      "velocity": 108,
      "chip": "ym2612"
    },
    {
      "channel": 4,
      "note": 52,
      "start": 23.2749,
      "duration": 0.0131,
      "velocity": 108,
      "chip": "ym2612"
    },
    {
      "channel": 3,
      "note": 49,
      "start": 23.2879,
      "duration": 0.012,
      "velocity": 108,
      "chip": "ym2612"
    },
    {
      "channel": 4,
      "note": 52,
      "start": 23.2882,
      "duration": 0.012,
      "velocity": 108,
      "chip": "ym2612"
    },
    {
      "channel": 3,
      "note": 49,
      "start": 23.3001,
      "duration": 0.0966,
      "velocity": 108,
      "chip": "ym2612"
    },
    {
      "channel": 4,
      "note": 54,
      "start": 23.3003,
      "duration": 0.0966,
      "velocity": 108,
      "chip": "ym2612"
    },
    {
      "channel": 3,
      "note": 52,
      "start": 23.3968,
      "duration": 0.105,
      "velocity": 108,
      "chip": "ym2612"
    },
    {
      "channel": 4,
      "note": 54,
      "start": 23.3971,
      "duration": 0.105,
      "velocity": 108,
      "chip": "ym2612"
    },
    {
      "channel": 3,
      "note": 52,
      "start": 23.502,
      "duration": 0.013,
      "velocity": 108,
      "chip": "ym2612"
    },
    {
      "channel": 4,
      "note": 56,
      "start": 23.5022,
      "duration": 0.013,
      "velocity": 108,
      "chip": "ym2612"
    },
    {
      "channel": 3,
      "note": 54,
      "start": 23.5151,
      "duration": 0.0119,
      "velocity": 108,
      "chip": "ym2612"
    },
    {
      "channel": 4,
      "note": 56,
      "start": 23.5154,
      "duration": 0.0119,
      "velocity": 108,
      "chip": "ym2612"
    },
    {
      "channel": 3,
      "note": 54,
      "start": 23.5272,
      "duration": 0.0357,
      "velocity": 108,
      "chip": "ym2612"
    },
    {
      "channel": 4,
      "note": 59,
      "start": 23.5274,
      "duration": 0.0357,
      "velocity": 108,
      "chip": "ym2612"
    },
    {
      "channel": 3,
      "note": 56,
      "start": 23.563,
      "duration": 0.105,
      "velocity": 108,
      "chip": "ym2612"
    },
    {
      "channel": 4,
      "note": 59,
      "start": 23.5632,
      "duration": 0.105,
      "velocity": 108,
      "chip": "ym2612"
    },
    {
      "channel": 3,
      "note": 56,
      "start": 23.6681,
      "duration": 0.0129,
      "velocity": 108,
      "chip": "ym2612"
    },
    {
      "channel": 4,
      "note": 61,
      "start": 23.6684,
      "duration": 0.0128,
      "velocity": 108,
      "chip": "ym2612"
    },
    {
      "channel": 3,
      "note": 59,
      "start": 23.6811,
      "duration": 0.0119,
      "velocity": 108,
      "chip": "ym2612"
    },
    {
      "channel": 4,
      "note": 61,
      "start": 23.6814,
      "duration": 0.0119,
      "velocity": 108,
      "chip": "ym2612"
    },
    {
      "channel": 3,
      "note": 59,
      "start": 23.6932,
      "duration": 0.0969,
      "velocity": 108,
      "chip": "ym2612"
    },
    {
      "channel": 4,
      "note": 64,
      "start": 23.6934,
      "duration": 0.0969,
      "velocity": 108,
      "chip": "ym2612"
    },
    {
      "channel": 3,
      "note": 61,
      "start": 23.7902,
      "duration": 0.105,
      "velocity": 108,
      "chip": "ym2612"
    },
    {
      "channel": 4,
      "note": 64,
      "start": 23.7905,
      "duration": 0.105,
      "velocity": 108,
      "chip": "ym2612"
    },
    {
      "channel": 3,
      "note": 61,
      "start": 23.8954,
      "duration": 0.013,
      "velocity": 108,
      "chip": "ym2612"
    },
    {
      "channel": 4,
      "note": 68,
      "start": 23.8956,
      "duration": 0.013,
      "velocity": 108,
      "chip": "ym2612"
    },
    {
      "channel": 3,
      "note": 64,
      "start": 23.9085,
      "duration": 0.0118,
      "velocity": 108,
      "chip": "ym2612"
    },
    {
      "channel": 4,
      "note": 68,
      "start": 23.9088,
      "duration": 0.0118,
      "velocity": 108,
      "chip": "ym2612"
    },
    {
      "channel": 3,
      "note": 64,
      "start": 23.9205,
      "duration": 0.0357,
      "velocity": 108,
      "chip": "ym2612"
    },
    {
      "channel": 4,
      "note": 49,
      "start": 23.9208,
      "duration": 0.0357,
      "velocity": 108,
      "chip": "ym2612"
    },
    {
      "channel": 3,
      "note": 68,
      "start": 23.9564,
      "duration": 0.105,
      "velocity": 108,
      "chip": "ym2612"
    },
    {
      "channel": 4,
      "note": 49,
      "start": 23.9566,
      "duration": 0.105,
      "velocity": 108,
      "chip": "ym2612"
    },
    {
      "channel": 3,
      "note": 68,
      "start": 24.0615,
      "duration": 0.0129,
      "velocity": 108,
      "chip": "ym2612"
    },
    {
      "channel": 4,
      "note": 52,
      "start": 24.0618,
      "duration": 0.0129,
      "velocity": 108,
      "chip": "ym2612"
    },
    {
      "channel": 3,
      "note": 49,
      "start": 24.0746,
      "duration": 0.0119,
      "velocity": 108,
      "chip": "ym2612"
    },
    {
      "channel": 4,
      "note": 52,
      "start": 24.0749,
      "duration": 0.0118,
      "velocity": 108,
      "chip": "ym2612"
    },
    {
      "channel": 3,
      "note": 49,
      "start": 24.0866,
      "duration": 0.0969,
      "velocity": 108,
      "chip": "ym2612"
    },
    {
      "channel": 4,
      "note": 54,
      "start": 24.0868,
      "duration": 0.0969,
      "velocity": 108,
      "chip": "ym2612"
    },
    {
      "channel": 3,
      "note": 52,
      "start": 24.1837,
      "duration": 0.105,
      "velocity": 108,
      "chip": "ym2612"
    },
    {
      "channel": 4,
      "note": 54,
      "start": 24.1839,
      "duration": 0.105,
      "velocity": 108,
      "chip": "ym2612"
    },
    {
      "channel": 3,
      "note": 52,
      "start": 24.2888,
      "duration": 0.0132,
      "velocity": 108,
      "chip": "ym2612"
    },
    {
      "channel": 4,
      "note": 56,
      "start": 24.289,
      "duration": 0.0131,
      "velocity": 108,
      "chip": "ym2612"
    },
    {
      "channel": 3,
      "note": 54,
      "start": 24.3021,
      "duration": 0.0121,
      "velocity": 108,
      "chip": "ym2612"
    },
    {
      "channel": 4,
      "note": 56,
      "start": 24.3023,
      "duration": 0.0121,
      "velocity": 108,
      "chip": "ym2612"
    },
    {
      "channel": 2,
      "note": 52,
      "start": 24.314,
      "duration": 0.7721,
      "velocity": 114,
      "chip": "ym2612"
    },
    {
      "channel": 3,
      "note": 54,
      "start": 24.3143,
      "duration": 0.0355,
      "velocity": 108,
      "chip": "ym2612"
    },
    {
      "channel": 4,
      "note": 59,
      "start": 24.3145,
      "duration": 0.0355,
      "velocity": 108,
      "chip": "ym2612"
    },
    {
      "channel": 3,
      "note": 56,
      "start": 24.3499,
      "duration": 0.1051,
      "velocity": 108,
      "chip": "ym2612"
    },
    {
      "channel": 4,
      "note": 59,
      "start": 24.3502,
      "duration": 0.1051,
      "velocity": 108,
      "chip": "ym2612"
    },
    {
      "channel": 3,
      "note": 56,
      "start": 24.4552,
      "duration": 0.1049,
      "velocity": 108,
      "chip": "ym2612"
    },
    {
      "channel": 4,
      "note": 61,
      "start": 24.4555,
      "duration": 0.1049,
      "velocity": 108,
      "chip": "ym2612"
    },
    {
      "channel": 3,
      "note": 59,
      "start": 24.5602,
      "duration": 0.105,
      "velocity": 108,
      "chip": "ym2612"
    },
    {
      "channel": 4,
      "note": 61,
      "start": 24.5605,
      "duration": 0.105,
      "velocity": 108,
      "chip": "ym2612"
    },
    {
      "channel": 3,
      "note": 59,
      "start": 24.6653,
      "duration": 0.1072,
      "velocity": 108,
      "chip": "ym2612"
    },
    {
      "channel": 4,
      "note": 64,
      "start": 24.6656,
      "duration": 0.1073,
      "velocity": 108,
      "chip": "ym2612"
    },
    {
      "channel": 3,
      "note": 61,
      "start": 24.7727,
      "duration": 0.1027,
      "velocity": 108,
      "chip": "ym2612"
    },
    {
      "channel": 4,
      "note": 64,
      "start": 24.773,
      "duration": 0.1027,
      "velocity": 108,
      "chip": "ym2612"
    },
    {
      "channel": 3,
      "note": 61,
      "start": 24.8756,
      "duration": 0.1051,
      "velocity": 108,
      "chip": "ym2612"
    },
    {
      "channel": 4,
      "note": 68,
      "start": 24.8758,
      "duration": 0.1051,
      "velocity": 108,
      "chip": "ym2612"
    },
    {
      "channel": 3,
      "note": 64,
      "start": 24.9808,
      "duration": 0.1056,
      "velocity": 108,
      "chip": "ym2612"
    },
    {
      "channel": 4,
      "note": 68,
      "start": 24.9811,
      "duration": 0.1056,
      "velocity": 108,
      "chip": "ym2612"
    },
    {
      "channel": 0,
      "note": 81,
      "start": 25.0859,
      "duration": 0.9424,
      "velocity": 116,
      "chip": "ym2612"
    },
    {
      "channel": 2,
      "note": 57,
      "start": 25.0863,
      "duration": 0.1486,
      "velocity": 114,
      "chip": "ym2612"
    },
    {
      "channel": 3,
      "note": 64,
      "start": 25.0865,
      "duration": 0.0436,
      "velocity": 108,
      "chip": "ym2612"
    },
    {
      "channel": 4,
      "note": 49,
      "start": 25.0868,
      "duration": 0.0436,
      "velocity": 108,
      "chip": "ym2612"
    },
    {
      "channel": 1,
      "note": 81,
      "start": 25.1299,
      "duration": 1.0039,
      "velocity": 116,
      "chip": "ym2612"
    },
    {
      "channel": 3,
      "note": 68,
      "start": 25.1302,
      "duration": 0.1049,
      "velocity": 108,
      "chip": "ym2612"
    },
    {
      "channel": 4,
      "note": 49,
      "start": 25.1305,
      "duration": 0.1049,
      "velocity": 108,
      "chip": "ym2612"
    },
    {
      "channel": 2,
      "note": 57,
      "start": 25.235,
      "duration": 0.1491,
      "velocity": 114,
      "chip": "ym2612"
    },
    {
      "channel": 3,
      "note": 68,
      "start": 25.2353,
      "duration": 0.0438,
      "velocity": 108,
      "chip": "ym2612"
    },
    {
      "channel": 4,
      "note": 52,
      "start": 25.2355,
      "duration": 0.0438,
      "velocity": 108,
      "chip": "ym2612"
    },
    {
      "channel": 3,
      "note": 49,
      "start": 25.2792,
      "duration": 0.105,
      "velocity": 108,
      "chip": "ym2612"
    },
    {
      "channel": 4,
      "note": 52,
      "start": 25.2795,
      "duration": 0.105,
      "velocity": 108,
      "chip": "ym2612"
    },
    {
      "channel": 3,
      "note": 49,
      "start": 25.3844,
      "duration": 0.105,
      "velocity": 108,
      "chip": "ym2612"
    },
    {
      "channel": 4,
      "note": 54,
      "start": 25.3846,
      "duration": 0.105,
      "velocity": 108,
      "chip": "ym2612"
    },
    {
      "channel": 3,
      "note": 52,
      "start": 25.4895,
      "duration": 0.105,
      "velocity": 108,
      "chip": "ym2612"
    },
    {
      "channel": 4,
      "note": 54,
      "start": 25.4897,
      "duration": 0.105,
      "velocity": 108,
      "chip": "ym2612"
    },
    {
      "channel": 3,
      "note": 52,
      "start": 25.5946,
      "duration": 0.105,
      "velocity": 108,
      "chip": "ym2612"
    },
    {
      "channel": 4,
      "note": 56,
      "start": 25.5949,
      "duration": 0.105,
      "velocity": 108,
      "chip": "ym2612"
    },
    {
      "channel": 3,
      "note": 54,
      "start": 25.6997,
      "duration": 0.1052,
      "velocity": 108,
      "chip": "ym2612"
    },
    {
      "channel": 4,
      "note": 56,
      "start": 25.7,
      "duration": 0.1052,
      "velocity": 108,
      "chip": "ym2612"
    },
    {
      "channel": 3,
      "note": 54,
      "start": 25.805,
      "duration": 0.0129,
      "velocity": 108,
      "chip": "ym2612"
    },
    {
      "channel": 4,
      "note": 59,
      "start": 25.8053,
      "duration": 0.0129,
      "velocity": 108,
      "chip": "ym2612"
    },
    {
      "channel": 3,
      "note": 56,
      "start": 25.818,
      "duration": 0.0118,
      "velocity": 108,
      "chip": "ym2612"
    },
    {
      "channel": 4,
      "note": 59,
      "start": 25.8183,
      "duration": 0.0119,
      "velocity": 108,
      "chip": "ym2612"
    },
    {
      "channel": 3,
      "note": 56,
      "start": 25.83,
      "duration": 0.0117,
      "velocity": 108,
      "chip": "ym2612"
    },
    {
      "channel": 4,
      "note": 61,
      "start": 25.8303,
      "duration": 0.0117,
      "velocity": 108,
      "chip": "ym2612"
    },
    {
      "channel": 3,
      "note": 59,
      "start": 25.8419,
      "duration": 0.0118,
      "velocity": 108,
      "chip": "ym2612"
    },
    {
      "channel": 4,
      "note": 61,
      "start": 25.8422,
      "duration": 0.0118,
      "velocity": 108,
      "chip": "ym2612"
    },
    {
      "channel": 3,
      "note": 59,
      "start": 25.8538,
      "duration": 0.0697,
      "velocity": 108,
      "chip": "ym2612"
    },
    {
      "channel": 4,
      "note": 64,
      "start": 25.8541,
      "duration": 0.0697,
      "velocity": 108,
      "chip": "ym2612"
    },
    {
      "channel": 3,
      "note": 61,
      "start": 25.9236,
      "duration": 0.1052,
      "velocity": 108,
      "chip": "ym2612"
    },
    {
      "channel": 4,
      "note": 64,
      "start": 25.9239,
      "duration": 0.1052,
      "velocity": 108,
      "chip": "ym2612"
    },
    {
      "channel": 0,
      "note": 81,
      "start": 26.0285,
      "duration": 0.105,
      "velocity": 116,
      "chip": "ym2612"
    },
    {
      "channel": 3,
      "note": 61,
      "start": 26.0289,
      "duration": 0.1052,
      "velocity": 108,
      "chip": "ym2612"
    },
    {
      "channel": 4,
      "note": 68,
      "start": 26.0292,
      "duration": 0.1052,
      "velocity": 108,
      "chip": "ym2612"
    },
    {
      "channel": 0,
      "note": 80,
      "start": 26.1337,
      "duration": 0.1052,
      "velocity": 116,
      "chip": "ym2612"
    },
    {
      "channel": 1,
      "note": 81,
      "start": 26.1339,
      "duration": 0.1052,
      "velocity": 116,
      "chip": "ym2612"
    },
    {
      "channel": 3,
      "note": 64,
      "start": 26.1343,
      "duration": 0.1052,
      "velocity": 108,
      "chip": "ym2612"
    },
    {
      "channel": 4,
      "note": 68,
      "start": 26.1345,
      "duration": 0.1052,
      "velocity": 108,
      "chip": "ym2612"
    },
    {
      "channel": 0,
      "note": 81,
      "start": 26.239,
      "duration": 0.2099,
      "velocity": 116,
      "chip": "ym2612"
    },
    {
      "channel": 1,
      "note": 80,
      "start": 26.2393,
      "duration": 0.1046,
      "velocity": 116,
      "chip": "ym2612"
    },
    {
      "channel": 3,
      "note": 64,
      "start": 26.2396,
      "duration": 0.1046,
      "velocity": 108,
      "chip": "ym2612"
    },
    {
      "channel": 4,
      "note": 49,
      "start": 26.2398,
      "duration": 0.1046,
      "velocity": 108,
      "chip": "ym2612"
    },
    {
      "channel": 1,
      "note": 81,
      "start": 26.344,
      "duration": 0.2103,
      "velocity": 116,
      "chip": "ym2612"
    },
    {
      "channel": 3,
      "note": 68,
      "start": 26.3443,
      "duration": 0.105,
      "velocity": 108,
      "chip": "ym2612"
    },
    {
      "channel": 4,
      "note": 49,
      "start": 26.3446,
      "duration": 0.105,
      "velocity": 108,
      "chip": "ym2612"
    },
    {
      "channel": 0,
      "note": 80,
      "start": 26.4491,
      "duration": 0.105,
      "velocity": 116,
      "chip": "ym2612"
    },
    {
      "channel": 3,
      "note": 68,
      "start": 26.4495,
      "duration": 0.1052,
      "velocity": 108,
      "chip": "ym2612"
    },
    {
      "channel": 4,
      "note": 52,
      "start": 26.4497,
      "duration": 0.1052,
      "velocity": 108,
      "chip": "ym2612"
    },
    {
      "channel": 0,
      "note": 81,
      "start": 26.5542,
      "duration": 0.105,
      "velocity": 116,
      "chip": "ym2612"
    },
    {
      "channel": 1,
      "note": 80,
      "start": 26.5544,
      "duration": 0.105,
      "velocity": 116,
      "chip": "ym2612"
    },
    {
      "channel": 3,
      "note": 49,
      "start": 26.5548,
      "duration": 0.105,
      "velocity": 108,
      "chip": "ym2612"
    },
    {
      "channel": 4,
      "note": 52,
      "start": 26.5551,
      "duration": 0.105,
      "velocity": 108,
      "chip": "ym2612"
    },
    {
      "channel": 0,
      "note": 83,
      "start": 26.6593,
      "duration": 0.1491,
      "velocity": 116,
      "chip": "ym2612"
    },
    {
      "channel": 1,
      "note": 81,
      "start": 26.6596,
      "duration": 0.0438,
      "velocity": 116,
      "chip": "ym2612"
    },
    {
      "channel": 3,
      "note": 49,
      "start": 26.6599,
      "duration": 0.0438,
      "velocity": 108,
      "chip": "ym2612"
    },
    {
      "channel": 4,
      "note": 54,
      "start": 26.6602,
      "duration": 0.0438,
      "velocity": 108,
      "chip": "ym2612"
    },
    {
      "channel": 1,
      "note": 83,
      "start": 26.7035,
      "duration": 0.2103,
      "velocity": 116,
      "chip": "ym2612"
    },
    {
      "channel": 3,
      "note": 52,
      "start": 26.7038,
      "duration": 0.105,
      "velocity": 108,
      "chip": "ym2612"
    },
    {
      "channel": 4,
      "note": 54,
      "start": 26.7041,
      "duration": 0.105,
      "velocity": 108,
      "chip": "ym2612"
    },
    {
      "channel": 0,
      "note": 80,
      "start": 26.8086,
      "duration": 0.105,
      "velocity": 116,
      "chip": "ym2612"
    },
    {
      "channel": 3,
      "note": 52,
      "start": 26.809,
      "duration": 0.1052,
      "velocity": 108,
      "chip": "ym2612"
    },
    {
      "channel": 4,
      "note": 56,
      "start": 26.8092,
      "duration": 0.1051,
      "velocity": 108,
      "chip": "ym2612"
    },
    {
      "channel": 0,
      "note": 83,
      "start": 26.9137,
      "duration": 0.1052,
      "velocity": 116,
      "chip": "ym2612"
    },
    {
      "channel": 1,
      "note": 80,
      "start": 26.9139,
      "duration": 0.1052,
      "velocity": 116,
      "chip": "ym2612"
    },
    {
      "channel": 3,
      "note": 54,
      "start": 26.9143,
      "duration": 0.1052,
      "velocity": 108,
      "chip": "ym2612"
    },
    {
      "channel": 4,
      "note": 56,
      "start": 26.9145,
      "duration": 0.1052,
      "velocity": 108,
      "chip": "ym2612"
    },
    {
      "channel": 0,
      "note": 87,
      "start": 27.019,
      "duration": 0.0254,
      "velocity": 116,
      "chip": "ym2612"
    },
    {
      "channel": 1,
      "note": 83,
      "start": 27.0193,
      "duration": 0.0131,
      "velocity": 116,
      "chip": "ym2612"
    },
    {
      "channel": 3,
      "note": 54,
      "start": 27.0196,
      "duration": 0.0131,
      "velocity": 108,
      "chip": "ym2612"
    },
    {
      "channel": 4,
      "note": 59,
      "start": 27.0199,
      "duration": 0.0131,
      "velocity": 108,
      "chip": "ym2612"
    },
    {
      "channel": 1,
      "note": 87,
      "start": 27.0325,
      "duration": 0.0239,
      "velocity": 116,
      "chip": "ym2612"
    },
    {
      "channel": 3,
      "note": 56,
      "start": 27.0328,
      "duration": 0.012,
      "velocity": 108,
      "chip": "ym2612"
    },
    {
      "channel": 4,
      "note": 59,
      "start": 27.0331,
      "duration": 0.012,
      "velocity": 108,
      "chip": "ym2612"
    },
    {
      "channel": 0,
      "note": 83,
      "start": 27.0446,
      "duration": 0.0241,
      "velocity": 116,
      "chip": "ym2612"
    },
    {
      "channel": 3,
      "note": 56,
      "start": 27.045,
      "duration": 0.0118,
      "velocity": 108,
      "chip": "ym2612"
    },
    {
      "channel": 4,
      "note": 61,
      "start": 27.0452,
      "duration": 0.0118,
      "velocity": 108,
      "chip": "ym2612"
    },
    {
      "channel": 1,
      "note": 83,
      "start": 27.0566,
      "duration": 0.0505,
      "velocity": 116,
      "chip": "ym2612"
    },
    {
      "channel": 3,
      "note": 59,
      "start": 27.0569,
      "duration": 0.0123,
      "velocity": 108,
      "chip": "ym2612"
    },
    {
      "channel": 4,
      "note": 61,
      "start": 27.0572,
      "duration": 0.0124,
      "velocity": 108,
      "chip": "ym2612"
    },
    {
      "channel": 0,
      "note": 87,
      "start": 27.0688,
      "duration": 0.1434,
      "velocity": 116,
      "chip": "ym2612"
    },
    {
      "channel": 2,
      "note": 54,
      "start": 27.0691,
      "duration": 0.354,
      "velocity": 114,
      "chip": "ym2612"
    },
    {
      "channel": 3,
      "note": 59,
      "start": 27.0694,
      "duration": 0.038,
      "velocity": 108,
      "chip": "ym2612"
    },
    {
      "channel": 4,
      "note": 64,
      "start": 27.0697,
      "duration": 0.038,
      "velocity": 108,
      "chip": "ym2612"
    },
    {
      "channel": 1,
      "note": 87,
      "start": 27.1072,
      "duration": 0.2103,
      "velocity": 116,
      "chip": "ym2612"
    },
    {
      "channel": 3,
      "note": 61,
      "start": 27.1076,
      "duration": 0.105,
      "velocity": 108,
      "chip": "ym2612"
    },
    {
      "channel": 4,
      "note": 64,
      "start": 27.1078,
      "duration": 0.105,
      "velocity": 108,
      "chip": "ym2612"
    },
    {
      "channel": 0,
      "note": 83,
      "start": 27.2123,
      "duration": 0.105,
      "velocity": 116,
      "chip": "ym2612"
    },
    {
      "channel": 3,
      "note": 61,
      "start": 27.2127,
      "duration": 0.1052,
      "velocity": 108,
      "chip": "ym2612"
    },
    {
      "channel": 4,
      "note": 68,
      "start": 27.213,
      "duration": 0.1052,
      "velocity": 108,
      "chip": "ym2612"
    },
    {
      "channel": 0,
      "note": 87,
      "start": 27.3175,
      "duration": 0.1052,
      "velocity": 116,
      "chip": "ym2612"
    },
    {
      "channel": 1,
      "note": 83,
      "start": 27.3177,
      "duration": 0.1052,
      "velocity": 116,
      "chip": "ym2612"
    },
    {
      "channel": 3,
      "note": 64,
      "start": 27.318,
      "duration": 0.1054,
      "velocity": 108,
      "chip": "ym2612"
    },
    {
      "channel": 4,
      "note": 68,
      "start": 27.3183,
      "duration": 0.1054,
      "velocity": 108,
      "chip": "ym2612"
    },
    {
      "channel": 0,
      "note": 90,
      "start": 27.4228,
      "duration": 1.1531,
      "velocity": 116,
      "chip": "ym2612"
    },
    {
      "channel": 1,
      "note": 87,
      "start": 27.423,
      "duration": 0.0436,
      "velocity": 116,
      "chip": "ym2612"
    },
    {
      "channel": 2,
      "note": 59,
      "start": 27.4233,
      "duration": 0.1485,
      "velocity": 114,
      "chip": "ym2612"
    },
    {
      "channel": 3,
      "note": 64,
      "start": 27.4235,
      "duration": 0.0434,
      "velocity": 108,
      "chip": "ym2612"
    },
    {
      "channel": 4,
      "note": 49,
      "start": 27.4238,
      "duration": 0.0434,
      "velocity": 108,
      "chip": "ym2612"
    },
    {
      "channel": 1,
      "note": 90,
      "start": 27.4668,
      "duration": 1.2141,
      "velocity": 116,
      "chip": "ym2612"
    },
    {
      "channel": 3,
      "note": 68,
      "start": 27.4671,
      "duration": 0.105,
      "velocity": 108,
      "chip": "ym2612"
    },
    {
      "channel": 4,
      "note": 49,
      "start": 27.4673,
      "duration": 0.105,
      "velocity": 108,
      "chip": "ym2612"
    },
    {
      "channel": 2,
      "note": 59,
      "start": 27.5719,
      "duration": 0.1491,
      "velocity": 114,
      "chip": "ym2612"
    },
    {
      "channel": 3,
      "note": 68,
      "start": 27.5722,
      "duration": 0.0438,
      "velocity": 108,
      "chip": "ym2612"
    },
    {
      "channel": 4,
      "note": 52,
      "start": 27.5725,
      "duration": 0.0438,
      "velocity": 108,
      "chip": "ym2612"
    },
    {
      "channel": 3,
      "note": 49,
      "start": 27.6161,
      "duration": 0.105,
      "velocity": 108,
      "chip": "ym2612"
    },
    {
      "channel": 4,
      "note": 52,
      "start": 27.6164,
      "duration": 0.105,
      "velocity": 108,
      "chip": "ym2612"
    },
    {
      "channel": 3,
      "note": 49,
      "start": 27.7213,
      "duration": 0.105,
      "velocity": 108,
      "chip": "ym2612"
    },
    {
      "channel": 4,
      "note": 54,
      "start": 27.7215,
      "duration": 0.105,
      "velocity": 108,
      "chip": "ym2612"
    },
    {
      "channel": 3,
      "note": 52,
      "start": 27.8264,
      "duration": 0.105,
      "velocity": 108,
      "chip": "ym2612"
    },
    {
      "channel": 4,
      "note": 54,
      "start": 27.8266,
      "duration": 0.105,
      "velocity": 108,
      "chip": "ym2612"
    },
    {
      "channel": 3,
      "note": 52,
      "start": 27.9315,
      "duration": 0.105,
      "velocity": 108,
      "chip": "ym2612"
    },
    {
      "channel": 4,
      "note": 56,
      "start": 27.9318,
      "duration": 0.105,
      "velocity": 108,
      "chip": "ym2612"
    },
    {
      "channel": 3,
      "note": 54,
      "start": 28.0366,
      "duration": 0.1052,
      "velocity": 108,
      "chip": "ym2612"
    },
    {
      "channel": 4,
      "note": 56,
      "start": 28.0369,
      "duration": 0.1052,
      "velocity": 108,
      "chip": "ym2612"
    },
    {
      "channel": 3,
      "note": 54,
      "start": 28.142,
      "duration": 0.0129,
      "velocity": 108,
      "chip": "ym2612"
    },
    {
      "channel": 4,
      "note": 59,
      "start": 28.1422,
      "duration": 0.0129,
      "velocity": 108,
      "chip": "ym2612"
    },
    {
      "channel": 3,
      "note": 56,
      "start": 28.155,
      "duration": 0.0118,
      "velocity": 108,
      "chip": "ym2612"
    },
    {
      "channel": 4,
      "note": 59,
      "start": 28.1553,
      "duration": 0.0118,
      "velocity": 108,
      "chip": "ym2612"
    },
    {
      "channel": 3,
      "note": 56,
      "start": 28.167,
      "duration": 0.0118,
      "velocity": 108,
      "chip": "ym2612"
    },
    {
      "channel": 4,
      "note": 61,
      "start": 28.1673,
      "duration": 0.0118,
      "velocity": 108,
      "chip": "ym2612"
    },
    {
      "channel": 3,
      "note": 59,
      "start": 28.1789,
      "duration": 0.0118,
      "velocity": 108,
      "chip": "ym2612"
    },
    {
      "channel": 4,
      "note": 61,
      "start": 28.1792,
      "duration": 0.0118,
      "velocity": 108,
      "chip": "ym2612"
    },
    {
      "channel": 3,
      "note": 59,
      "start": 28.1909,
      "duration": 0.0697,
      "velocity": 108,
      "chip": "ym2612"
    },
    {
      "channel": 4,
      "note": 64,
      "start": 28.1911,
      "duration": 0.0697,
      "velocity": 108,
      "chip": "ym2612"
    },
    {
      "channel": 3,
      "note": 61,
      "start": 28.2607,
      "duration": 0.105,
      "velocity": 108,
      "chip": "ym2612"
    },
    {
      "channel": 4,
      "note": 64,
      "start": 28.2609,
      "duration": 0.105,
      "velocity": 108,
      "chip": "ym2612"
    },
    {
      "channel": 3,
      "note": 61,
      "start": 28.3658,
      "duration": 0.105,
      "velocity": 108,
      "chip": "ym2612"
    },
    {
      "channel": 4,
      "note": 68,
      "start": 28.3661,
      "duration": 0.105,
      "velocity": 108,
      "chip": "ym2612"
    },
    {
      "channel": 3,
      "note": 64,
      "start": 28.4709,
      "duration": 0.1054,
      "velocity": 108,
      "chip": "ym2612"
    },
    {
      "channel": 4,
      "note": 68,
      "start": 28.4712,
      "duration": 0.1054,
      "velocity": 108,
      "chip": "ym2612"
    },
    {
      "channel": 0,
      "note": 88,
      "start": 28.5761,
      "duration": 0.644,
      "velocity": 116,
      "chip": "ym2612"
    },
    {
      "channel": 3,
      "note": 64,
      "start": 28.5764,
      "duration": 0.1048,
      "velocity": 108,
      "chip": "ym2612"
    },
    {
      "channel": 4,
      "note": 76,
      "start": 28.5767,
      "duration": 0.1048,
      "velocity": 108,
      "chip": "ym2612"
    },
    {
      "channel": 1,
      "note": 88,
      "start": 28.681,
      "duration": 0.5799,
      "velocity": 116,
      "chip": "ym2612"
    },
    {
      "channel": 3,
      "note": 68,
      "start": 28.6814,
      "duration": 0.1048,
      "velocity": 108,
      "chip": "ym2612"
    },
    {
      "channel": 4,
      "note": 76,
      "start": 28.6816,
      "duration": 0.1048,
      "velocity": 108,
      "chip": "ym2612"
    },
    {
      "channel": 3,
      "note": 68,
      "start": 28.7863,
      "duration": 0.105,
      "velocity": 108,
      "chip": "ym2612"
    },
    {
      "channel": 4,
      "note": 75,
      "start": 28.7866,
      "duration": 0.105,
      "velocity": 108,
      "chip": "ym2612"
    },
    {
      "channel": 3,
      "note": 76,
      "start": 28.8915,
      "duration": 0.105,
      "velocity": 108,
      "chip": "ym2612"
    },
    {
      "channel": 4,
      "note": 75,
      "start": 28.8917,
      "duration": 0.105,
      "velocity": 108,
      "chip": "ym2612"
    },
    {
      "channel": 3,
      "note": 76,
      "start": 28.9966,
      "duration": 0.0439,
      "velocity": 108,
      "chip": "ym2612"
    },
    {
      "channel": 4,
      "note": 71,
      "start": 28.9968,
      "duration": 0.0439,
      "velocity": 108,
      "chip": "ym2612"
    },
    {
      "channel": 3,
      "note": 75,
      "start": 29.0407,
      "duration": 0.105,
      "velocity": 108,
      "chip": "ym2612"
    },
    {
      "channel": 4,
      "note": 71,
      "start": 29.0409,
      "duration": 0.105,
      "velocity": 108,
      "chip": "ym2612"
    },
    {
      "channel": 3,
      "note": 75,
      "start": 29.1458,
      "duration": 0.0131,
      "velocity": 108,
      "chip": "ym2612"
    },
    {
      "channel": 4,
      "note": 68,
      "start": 29.1461,
      "duration": 0.0131,
      "velocity": 108,
      "chip": "ym2612"
    },
    {
      "channel": 3,
      "note": 71,
      "start": 29.159,
      "duration": 0.0119,
      "velocity": 108,
      "chip": "ym2612"
    },
    {
      "channel": 4,
      "note": 68,
      "start": 29.1593,
      "duration": 0.0119,
      "velocity": 108,
      "chip": "ym2612"
    },
    {
      "channel": 3,
      "note": 71,
      "start": 29.1711,
      "duration": 0.0125,
      "velocity": 108,
      "chip": "ym2612"
    },
    {
      "channel": 4,
      "note": 66,
      "start": 29.1714,
      "duration": 0.0125,
      "velocity": 108,
      "chip": "ym2612"
    },
    {
      "channel": 3,
      "note": 68,
      "start": 29.1837,
      "duration": 0.0126,
      "velocity": 108,
      "chip": "ym2612"
    },
    {
      "channel": 4,
      "note": 66,
      "start": 29.184,
      "duration": 0.0126,
      "velocity": 108,
      "chip": "ym2612"
    },
    {
      "channel": 3,
      "note": 68,
      "start": 29.1965,
      "duration": 0.0117,
      "velocity": 108,
      "chip": "ym2612"
    },
    {
      "channel": 4,
      "note": 64,
      "start": 29.1967,
      "duration": 0.0117,
      "velocity": 108,
      "chip": "ym2612"
    },
    {
      "channel": 3,
      "note": 66,
      "start": 29.2083,
      "duration": 0.0124,
      "velocity": 108,
      "chip": "ym2612"
    },
    {
      "channel": 4,
      "note": 64,
      "start": 29.2085,
      "duration": 0.0123,
      "velocity": 108,
      "chip": "ym2612"
    },
    {
      "channel": 0,
      "note": 90,
      "start": 29.2202,
      "duration": 0.3563,
      "velocity": 116,
      "chip": "ym2612"
    },
    {
      "channel": 2,
      "note": 56,
      "start": 29.2205,
      "duration": 0.3563,
      "velocity": 114,
      "chip": "ym2612"
    },
    {
      "channel": 3,
      "note": 66,
      "start": 29.2207,
      "duration": 0.0405,
      "velocity": 108,
      "chip": "ym2612"
    },
    {
      "channel": 4,
      "note": 63,
      "start": 29.221,
      "duration": 0.0405,
      "velocity": 108,
      "chip": "ym2612"
    },
    {
      "channel": 1,
      "note": 90,
      "start": 29.261,
      "duration": 0.4645,
      "velocity": 116,
      "chip": "ym2612"
    },
    {
      "channel": 3,
      "note": 64,
      "start": 29.2614,
      "duration": 0.1048,
      "velocity": 108,
      "chip": "ym2612"
    },
    {
      "channel": 4,
      "note": 63,
      "start": 29.2616,
      "duration": 0.1048,
      "velocity": 108,
      "chip": "ym2612"
    },
    {
      "channel": 3,
      "note": 64,
      "start": 29.3663,
      "duration": 0.105,
      "velocity": 108,
      "chip": "ym2612"
    },
    {
      "channel": 4,
      "note": 59,
      "start": 29.3666,
      "duration": 0.105,
      "velocity": 108,
      "chip": "ym2612"
    },
    {
      "channel": 3,
      "note": 63,
      "start": 29.4715,
      "duration": 0.1056,
      "velocity": 108,
      "chip": "ym2612"
    },
    {
      "channel": 4,
      "note": 59,
      "start": 29.4717,
      "duration": 0.1056,
      "velocity": 108,
      "chip": "ym2612"
    },
    {
      "channel": 0,
      "note": 90,
      "start": 29.5766,
      "duration": 0.6424,
      "velocity": 116,
      "chip": "ym2612"
    },
    {
      "channel": 2,
      "note": 61,
      "start": 29.5769,
      "duration": 0.1489,
      "velocity": 114,
      "chip": "ym2612"
    },
    {
      "channel": 3,
      "note": 63,
      "start": 29.5771,
      "duration": 0.0434,
      "velocity": 108,
      "chip": "ym2612"
    },
    {
      "channel": 4,
      "note": 49,
      "start": 29.5774,
      "duration": 0.0434,
      "velocity": 108,
      "chip": "ym2612"
    },
    {
      "channel": 3,
      "note": 59,
      "start": 29.6207,
      "duration": 0.1054,
      "velocity": 108,
      "chip": "ym2612"
    },
    {
      "channel": 4,
      "note": 49,
      "start": 29.6209,
      "duration": 0.1054,
      "velocity": 108,
      "chip": "ym2612"
    },
    {
      "channel": 1,
      "note": 90,
      "start": 29.7257,
      "duration": 0.6953,
      "velocity": 116,
      "chip": "ym2612"
    },
    {
      "channel": 2,
      "note": 61,
      "start": 29.7259,
      "duration": 1.2925,
      "velocity": 114,
      "chip": "ym2612"
    },
    {
      "channel": 3,
      "note": 59,
      "start": 29.7262,
      "duration": 0.0135,
      "velocity": 108,
      "chip": "ym2612"
    },
    {
      "channel": 4,
      "note": 52,
      "start": 29.7264,
      "duration": 0.0135,
      "velocity": 108,
      "chip": "ym2612"
    },
    {
      "channel": 3,
      "note": 49,
      "start": 29.7398,
      "duration": 0.0121,
      "velocity": 108,
      "chip": "ym2612"
    },
    {
      "channel": 4,
      "note": 52,
      "start": 29.7401,
      "duration": 0.0121,
      "velocity": 108,
      "chip": "ym2612"
    },
    {
      "channel": 3,
      "note": 49,
      "start": 29.752,
      "duration": 0.0957,
      "velocity": 108,
      "chip": "ym2612"
    },
    {
      "channel": 4,
      "note": 54,
      "start": 29.7523,
      "duration": 0.0957,
      "velocity": 108,
      "chip": "ym2612"
    },
    {
      "channel": 3,
      "note": 52,
      "start": 29.8479,
      "duration": 0.105,
      "velocity": 108,
      "chip": "ym2612"
    },
    {
      "channel": 4,
      "note": 54,
      "start": 29.8482,
      "duration": 0.105,
      "velocity": 108,
      "chip": "ym2612"
    },
    {
      "channel": 3,
      "note": 52,
      "start": 29.953,
      "duration": 0.0133,
      "velocity": 108,
      "chip": "ym2612"
    },
    {
      "channel": 4,
      "note": 56,
      "start": 29.9533,
      "duration": 0.0133,
      "velocity": 108,
      "chip": "ym2612"
    },
    {
      "channel": 3,
      "note": 54,
      "start": 29.9665,
      "duration": 0.0119,
      "velocity": 108,
      "chip": "ym2612"
    },
    {
      "channel": 4,
      "note": 56,
      "start": 29.9667,
      "duration": 0.0119,
      "velocity": 108,
      "chip": "ym2612"
    },
    {
      "channel": 3,
      "note": 54,
      "start": 29.9785,
      "duration": 0.0119,
      "velocity": 108,
      "chip": "ym2612"
    },
    {
      "channel": 4,
      "note": 59,
      "start": 29.9787,
      "duration": 0.0119,
      "velocity": 108,
      "chip": "ym2612"
    },
    {
      "channel": 3,
      "note": 56,
      "start": 29.9905,
      "duration": 0.0119,
      "velocity": 108,
      "chip": "ym2612"
    },
    {
      "channel": 4,
      "note": 59,
      "start": 29.9908,
      "duration": 0.0119,
      "velocity": 108,
      "chip": "ym2612"
    },
    {
      "channel": 3,
      "note": 56,
      "start": 30.0026,
      "duration": 0.0125,
      "velocity": 108,
      "chip": "ym2612"
    },
    {
      "channel": 4,
      "note": 61,
      "start": 30.0028,
      "duration": 0.0125,
      "velocity": 108,
      "chip": "ym2612"
    },
    {
      "channel": 3,
      "note": 59,
      "start": 30.0153,
      "duration": 0.0125,
      "velocity": 108,
      "chip": "ym2612"
    },
    {
      "channel": 4,
      "note": 61,
      "start": 30.0155,
      "duration": 0.0125,
      "velocity": 108,
      "chip": "ym2612"
    },
    {
      "channel": 3,
      "note": 59,
      "start": 30.0279,
      "duration": 0.0609,
      "velocity": 108,
      "chip": "ym2612"
    },
    {
      "channel": 4,
      "note": 64,
      "start": 30.0281,
      "duration": 0.0608,
      "velocity": 108,
      "chip": "ym2612"
    },
    {
      "channel": 3,
      "note": 61,
      "start": 30.0889,
      "duration": 0.105,
      "velocity": 108,
      "chip": "ym2612"
    },
    {
      "channel": 4,
      "note": 64,
      "start": 30.0891,
      "duration": 0.105,
      "velocity": 108,
      "chip": "ym2612"
    },
    {
      "channel": 3,
      "note": 61,
      "start": 30.194,
      "duration": 0.0132,
      "velocity": 108,
      "chip": "ym2612"
    },
    {
      "channel": 4,
      "note": 68,
      "start": 30.1943,
      "duration": 0.0132,
      "velocity": 108,
      "chip": "ym2612"
    },
    {
      "channel": 3,
      "note": 64,
      "start": 30.2073,
      "duration": 0.0121,
      "velocity": 108,
      "chip": "ym2612"
    },
    {
      "channel": 4,
      "note": 68,
      "start": 30.2076,
      "duration": 0.0121,
      "velocity": 108,
      "chip": "ym2612"
    },
    {
      "channel": 0,
      "note": 88,
      "start": 30.2192,
      "duration": 0.4414,
      "velocity": 116,
      "chip": "ym2612"
    },
    {
      "channel": 3,
      "note": 64,
      "start": 30.2195,
      "duration": 0.0965,
      "velocity": 108,
      "chip": "ym2612"
    },
    {
      "channel": 4,
      "note": 49,
      "start": 30.2198,
      "duration": 0.0964,
      "velocity": 108,
      "chip": "ym2612"
    },
    {
      "channel": 3,
      "note": 68,
      "start": 30.3161,
      "duration": 0.1052,
      "velocity": 108,
      "chip": "ym2612"
    },
    {
      "channel": 4,
      "note": 49,
      "start": 30.3164,
      "duration": 0.1052,
      "velocity": 108,
      "chip": "ym2612"
    },
    {
      "channel": 1,
      "note": 88,
      "start": 30.4211,
      "duration": 0.3866,
      "velocity": 116,
      "chip": "ym2612"
    },
    {
      "channel": 3,
      "note": 68,
      "start": 30.4215,
      "duration": 0.013,
      "velocity": 108,
      "chip": "ym2612"
    },
    {
      "channel": 4,
      "note": 52,
      "start": 30.4217,
      "duration": 0.013,
      "velocity": 108,
      "chip": "ym2612"
    },
    {
      "channel": 3,
      "note": 49,
      "start": 30.4346,
      "duration": 0.0119,
      "velocity": 108,
      "chip": "ym2612"
    },
    {
      "channel": 4,
      "note": 52,
      "start": 30.4349,
      "duration": 0.0119,
      "velocity": 108,
      "chip": "ym2612"
    },
    {
      "channel": 3,
      "note": 49,
      "start": 30.4466,
      "duration": 0.0356,
      "velocity": 108,
      "chip": "ym2612"
    },
    {
      "channel": 4,
      "note": 54,
      "start": 30.4469,
      "duration": 0.0356,
      "velocity": 108,
      "chip": "ym2612"
    },
    {
      "channel": 3,
      "note": 52,
      "start": 30.4824,
      "duration": 0.105,
      "velocity": 108,
      "chip": "ym2612"
    },
    {
      "channel": 4,
      "note": 54,
      "start": 30.4826,
      "duration": 0.105,
      "velocity": 108,
      "chip": "ym2612"
    },
    {
      "channel": 3,
      "note": 52,
      "start": 30.5875,
      "duration": 0.0131,
      "velocity": 108,
      "chip": "ym2612"
    },
    {
      "channel": 4,
      "note": 56,
      "start": 30.5878,
      "duration": 0.0131,
      "velocity": 108,
      "chip": "ym2612"
    },
    {
      "channel": 3,
      "note": 54,
      "start": 30.6007,
      "duration": 0.012,
      "velocity": 108,
      "chip": "ym2612"
    },
    {
      "channel": 4,
      "note": 56,
      "start": 30.601,
      "duration": 0.0119,
      "velocity": 108,
      "chip": "ym2612"
    },
    {
      "channel": 3,
      "note": 54,
      "start": 30.6128,
      "duration": 0.0117,
      "velocity": 108,
      "chip": "ym2612"
    },
    {
      "channel": 4,
      "note": 59,
      "start": 30.6131,
      "duration": 0.0117,
      "velocity": 108,
      "chip": "ym2612"
    },
    {
      "channel": 3,
      "note": 56,
      "start": 30.6247,
      "duration": 0.012,
      "velocity": 108,
      "chip": "ym2612"
    },
    {
      "channel": 4,
      "note": 59,
      "start": 30.625,
      "duration": 0.012,
      "velocity": 108,
      "chip": "ym2612"
    },
    {
      "channel": 3,
      "note": 56,
      "start": 30.6369,
      "duration": 0.0117,
      "velocity": 108,
      "chip": "ym2612"
    },
    {
      "channel": 4,
      "note": 61,
      "start": 30.6371,
      "duration": 0.0117,
      "velocity": 108,
      "chip": "ym2612"
    },
    {
      "channel": 3,
      "note": 59,
      "start": 30.6487,
      "duration": 0.0122,
      "velocity": 108,
      "chip": "ym2612"
    },
    {
      "channel": 4,
      "note": 61,
      "start": 30.649,
      "duration": 0.0122,
      "velocity": 108,
      "chip": "ym2612"
    },
    {
      "channel": 0,
      "note": 87,
      "start": 30.6607,
      "duration": 0.3575,
      "velocity": 116,
      "chip": "ym2612"
    },
    {
      "channel": 3,
      "note": 59,
      "start": 30.6611,
      "duration": 0.0417,
      "velocity": 108,
      "chip": "ym2612"
    },
    {
      "channel": 4,
      "note": 64,
      "start": 30.6613,
      "duration": 0.0417,
      "velocity": 108,
      "chip": "ym2612"
    },
    {
      "channel": 3,
      "note": 61,
      "start": 30.7029,
      "duration": 0.1052,
      "velocity": 108,
      "chip": "ym2612"
    },
    {
      "channel": 4,
      "note": 64,
      "start": 30.7032,
      "duration": 0.1052,
      "velocity": 108,
      "chip": "ym2612"
    },
    {
      "channel": 1,
      "note": 87,
      "start": 30.8079,
      "duration": 0.3595,
      "velocity": 116,
      "chip": "ym2612"
    },
    {
      "channel": 3,
      "note": 61,
      "start": 30.8082,
      "duration": 0.1048,
      "velocity": 108,
      "chip": "ym2612"
    },
    {
      "channel": 4,
      "note": 68,
      "start": 30.8085,
      "duration": 0.1048,
      "velocity": 108,
      "chip": "ym2612"
    },
    {
      "channel": 3,
      "note": 64,
      "start": 30.9132,
      "duration": 0.1056,
      "velocity": 108,
      "chip": "ym2612"
    },
    {
      "channel": 4,
      "note": 68,
      "start": 30.9134,
      "duration": 0.1056,
      "velocity": 108,
      "chip": "ym2612"
    },
    {
      "channel": 0,
      "note": 88,
      "start": 31.0183,
      "duration": 0.1489,
      "velocity": 116,
      "chip": "ym2612"
    },
    {
      "channel": 2,
      "note": 63,
      "start": 31.0186,
      "duration": 0.6422,
      "velocity": 114,
      "chip": "ym2612"
    },
    {
      "channel": 3,
      "note": 64,
      "start": 31.0189,
      "duration": 0.0434,
      "velocity": 108,
      "chip": "ym2612"
    },
    {
      "channel": 4,
      "note": 49,
      "start": 31.0191,
      "duration": 0.0434,
      "velocity": 108,
      "chip": "ym2612"
    },
    {
      "channel": 3,
      "note": 68,
      "start": 31.0624,
      "duration": 0.1054,
      "velocity": 108,
      "chip": "ym2612"
    },
    {
      "channel": 4,
      "note": 49,
      "start": 31.0627,
      "duration": 0.1053,
      "velocity": 108,
      "chip": "ym2612"
    },
    {
      "channel": 0,
      "note": 87,
      "start": 31.1673,
      "duration": 0.0261,
      "velocity": 116,
      "chip": "ym2612"
    },
    {
      "channel": 1,
      "note": 88,
      "start": 31.1675,
      "duration": 0.0261,
      "velocity": 116,
      "chip": "ym2612"
    },
    {
      "channel": 3,
      "note": 68,
      "start": 31.1679,
      "duration": 0.0136,
      "velocity": 108,
      "chip": "ym2612"
    },
    {
      "channel": 4,
      "note": 52,
      "start": 31.1681,
      "duration": 0.0136,
      "velocity": 108,
      "chip": "ym2612"
    },
    {
      "channel": 3,
      "note": 49,
      "start": 31.1816,
      "duration": 0.0124,
      "velocity": 108,
      "chip": "ym2612"
    },
    {
      "channel": 4,
      "note": 52,
      "start": 31.1818,
      "duration": 0.0124,
      "velocity": 108,
      "chip": "ym2612"
    },
    {
      "channel": 0,
      "note": 88,
      "start": 31.1935,
      "duration": 0.6844,
      "velocity": 116,
      "chip": "ym2612"
    },
    {
      "channel": 1,
      "note": 87,
      "start": 31.1937,
      "duration": 0.2007,
      "velocity": 116,
      "chip": "ym2612"
    },
    {
      "channel": 3,
      "note": 49,
      "start": 31.1941,
      "duration": 0.0954,
      "velocity": 108,
      "chip": "ym2612"
    },
    {
      "channel": 4,
      "note": 54,
      "start": 31.1943,
      "duration": 0.0954,
      "velocity": 108,
      "chip": "ym2612"
    },
    {
      "channel": 3,
      "note": 52,
      "start": 31.2896,
      "duration": 0.1052,
      "velocity": 108,
      "chip": "ym2612"
    },
    {
      "channel": 4,
      "note": 54,
      "start": 31.2899,
      "duration": 0.1051,
      "velocity": 108,
      "chip": "ym2612"
    },
    {
      "channel": 1,
      "note": 88,
      "start": 31.3946,
      "duration": 0.5077,
      "velocity": 116,
      "chip": "ym2612"
    },
    {
      "channel": 3,
      "note": 52,
      "start": 31.3949,
      "duration": 0.0132,
      "velocity": 108,
      "chip": "ym2612"
    },
    {
      "channel": 4,
      "note": 56,
      "start": 31.3952,
      "duration": 0.0132,
      "velocity": 108,
      "chip": "ym2612"
    },
    {
      "channel": 3,
      "note": 54,
      "start": 31.4083,
      "duration": 0.0119,
      "velocity": 108,
      "chip": "ym2612"
    },
    {
      "channel": 4,
      "note": 56,
      "start": 31.4085,
      "duration": 0.0119,
      "velocity": 108,
      "chip": "ym2612"
    },
    {
      "channel": 3,
      "note": 54,
      "start": 31.4202,
      "duration": 0.0119,
      "velocity": 108,
      "chip": "ym2612"
    },
    {
      "channel": 4,
      "note": 59,
      "start": 31.4205,
      "duration": 0.0119,
      "velocity": 108,
      "chip": "ym2612"
    },
    {
      "channel": 3,
      "note": 56,
      "start": 31.4323,
      "duration": 0.0119,
      "velocity": 108,
      "chip": "ym2612"
    },
    {
      "channel": 4,
      "note": 59,
      "start": 31.4326,
      "duration": 0.0119,
      "velocity": 108,
      "chip": "ym2612"
    },
    {
      "channel": 3,
      "note": 56,
      "start": 31.4443,
      "duration": 0.0125,
      "velocity": 108,
      "chip": "ym2612"
    },
    {
      "channel": 4,
      "note": 61,
      "start": 31.4446,
      "duration": 0.0126,
      "velocity": 108,
      "chip": "ym2612"
    },
    {
      "channel": 3,
      "note": 59,
      "start": 31.457,
      "duration": 0.0125,
      "velocity": 108,
      "chip": "ym2612"
    },
    {
      "channel": 4,
      "note": 61,
      "start": 31.4573,
      "duration": 0.0125,
      "velocity": 108,
      "chip": "ym2612"
    },
    {
      "channel": 3,
      "note": 59,
      "start": 31.4697,
      "duration": 0.0607,
      "velocity": 108,
      "chip": "ym2612"
    },
    {
      "channel": 4,
      "note": 64,
      "start": 31.4699,
      "duration": 0.0607,
      "velocity": 108,
      "chip": "ym2612"
    },
    {
      "channel": 3,
      "note": 61,
      "start": 31.5305,
      "duration": 0.105,
      "velocity": 108,
      "chip": "ym2612"
    },
    {
      "channel": 4,
      "note": 64,
      "start": 31.5308,
      "duration": 0.105,
      "velocity": 108,
      "chip": "ym2612"
    },
    {
      "channel": 3,
      "note": 61,
      "start": 31.6356,
      "duration": 0.0131,
      "velocity": 108,
      "chip": "ym2612"
    },
    {
      "channel": 4,
      "note": 68,
      "start": 31.6359,
      "duration": 0.0131,
      "velocity": 108,
      "chip": "ym2612"
    },
    {
      "channel": 3,
      "note": 64,
      "start": 31.6489,
      "duration": 0.0122,
      "velocity": 108,
      "chip": "ym2612"
    },
    {
      "channel": 4,
      "note": 68,
      "start": 31.6492,
      "duration": 0.0122,
      "velocity": 108,
      "chip": "ym2612"
    },
    {
      "channel": 2,
      "note": 64,
      "start": 31.6609,
      "duration": 0.2171,
      "velocity": 114,
      "chip": "ym2612"
    },
    {
      "channel": 3,
      "note": 64,
      "start": 31.6612,
      "duration": 0.0354,
      "velocity": 108,
      "chip": "ym2612"
    },
    {
      "channel": 4,
      "note": 76,
      "start": 31.6615,
      "duration": 0.0354,
      "velocity": 108,
      "chip": "ym2612"
    },
    {
      "channel": 3,
      "note": 68,
      "start": 31.6968,
      "duration": 0.105,
      "velocity": 108,
      "chip": "ym2612"
    },
    {
      "channel": 4,
      "note": 76,
      "start": 31.697,
      "duration": 0.105,
      "velocity": 108,
      "chip": "ym2612"
    },
    {
      "channel": 3,
      "note": 68,
      "start": 31.8019,
      "duration": 0.0138,
      "velocity": 108,
      "chip": "ym2612"
    },
    {
      "channel": 4,
      "note": 75,
      "start": 31.8022,
      "duration": 0.0138,
      "velocity": 108,
      "chip": "ym2612"
    },
    {
      "channel": 3,
      "note": 76,
      "start": 31.8158,
      "duration": 0.0125,
      "velocity": 108,
      "chip": "ym2612"
    },
    {
      "channel": 4,
      "note": 75,
      "start": 31.8161,
      "duration": 0.0125,
      "velocity": 108,
      "chip": "ym2612"
    },
    {
      "channel": 3,
      "note": 76,
      "start": 31.8285,
      "duration": 0.0122,
      "velocity": 108,
      "chip": "ym2612"
    },
    {
      "channel": 4,
      "note": 71,
      "start": 31.8287,
      "duration": 0.0122,
      "velocity": 108,
      "chip": "ym2612"
    },
    {
      "channel": 3,
      "note": 75,
      "start": 31.8408,
      "duration": 0.0117,
      "velocity": 108,
      "chip": "ym2612"
    },
    {
      "channel": 4,
      "note": 71,
      "start": 31.841,
      "duration": 0.0117,
      "velocity": 108,
      "chip": "ym2612"
    },
    {
      "channel": 3,
      "note": 75,
      "start": 31.8526,
      "duration": 0.0127,
      "velocity": 108,
      "chip": "ym2612"
    },
    {
      "channel": 4,
      "note": 68,
      "start": 31.8528,
      "duration": 0.0127,
      "velocity": 108,
      "chip": "ym2612"
    },
    {
      "channel": 3,
      "note": 71,
      "start": 31.8655,
      "duration": 0.0129,
      "velocity": 108,
      "chip": "ym2612"
    },
    {
      "channel": 4,
      "note": 68,
      "start": 31.8657,
      "duration": 0.0129,
      "velocity": 108,
      "chip": "ym2612"
    },
    {
      "channel": 2,
      "note": 66,
      "start": 31.8782,
      "duration": 0.1086,
      "velocity": 114,
      "chip": "ym2612"
    },
    {
      "channel": 3,
      "note": 71,
      "start": 31.8785,
      "duration": 0.0118,
      "velocity": 108,
      "chip": "ym2612"
    },
    {
      "channel": 4,
      "note": 66,
      "start": 31.8787,
      "duration": 0.0118,
      "velocity": 108,
      "chip": "ym2612"
    },
    {
      "channel": 3,
      "note": 68,
      "start": 31.8905,
      "duration": 0.012,
      "velocity": 108,
      "chip": "ym2612"
    },
    {
      "channel": 4,
      "note": 66,
      "start": 31.8907,
      "duration": 0.012,
      "velocity": 108,
      "chip": "ym2612"
    },
    {
      "channel": 3,
      "note": 68,
      "start": 31.9026,
      "duration": 0.0117,
      "velocity": 108,
      "chip": "ym2612"
    },
    {
      "channel": 4,
      "note": 64,
      "start": 31.9029,
      "duration": 0.0117,
      "velocity": 108,
      "chip": "ym2612"
    },
    {
      "channel": 3,
      "note": 66,
      "start": 31.9145,
      "duration": 0.013,
      "velocity": 108,
      "chip": "ym2612"
    },
    {
      "channel": 4,
      "note": 64,
      "start": 31.9147,
      "duration": 0.013,
      "velocity": 108,
      "chip": "ym2612"
    },
    {
      "channel": 3,
      "note": 66,
      "start": 31.9276,
      "duration": 0.0121,
      "velocity": 108,
      "chip": "ym2612"
    },
    {
      "channel": 4,
      "note": 63,
      "start": 31.9279,
      "duration": 0.0121,
      "velocity": 108,
      "chip": "ym2612"
    },
    {
      "channel": 3,
      "note": 64,
      "start": 31.9398,
      "duration": 0.0118,
      "velocity": 108,
      "chip": "ym2612"
    },
    {
      "channel": 4,
      "note": 63,
      "start": 31.9401,
      "duration": 0.0117,
      "velocity": 108,
      "chip": "ym2612"
    },
    {
      "channel": 3,
      "note": 64,
      "start": 31.9517,
      "duration": 0.0131,
      "velocity": 108,
      "chip": "ym2612"
    },
    {
      "channel": 4,
      "note": 59,
      "start": 31.952,
      "duration": 0.0131,
      "velocity": 108,
      "chip": "ym2612"
    },
    {
      "channel": 3,
      "note": 63,
      "start": 31.965,
      "duration": 0.0221,
      "velocity": 108,
      "chip": "ym2612"
    },
    {
      "channel": 4,
      "note": 59,
      "start": 31.9652,
      "duration": 0.0221,
      "velocity": 108,
      "chip": "ym2612"
    },
    {
      "channel": 2,
      "note": 57,
      "start": 31.987,
      "duration": 0.4144,
      "velocity": 114,
      "chip": "ym2612"
    },
    {
      "channel": 3,
      "note": 63,
      "start": 31.9872,
      "duration": 0.0389,
      "velocity": 108,
      "chip": "ym2612"
    },
    {
      "channel": 4,
      "note": 49,
      "start": 31.9875,
      "duration": 0.0389,
      "velocity": 108,
      "chip": "ym2612"
    },
    {
      "channel": 3,
      "note": 59,
      "start": 32.0262,
      "duration": 0.1054,
      "velocity": 108,
      "chip": "ym2612"
    },
    {
      "channel": 4,
      "note": 49,
      "start": 32.0265,
      "duration": 0.1054,
      "velocity": 108,
      "chip": "ym2612"
    },
    {
      "channel": 0,
      "note": 73,
      "start": 32.1313,
      "duration": 0.0494,
      "velocity": 108,
      "chip": "ym2612"
    },
    {
      "channel": 3,
      "note": 59,
      "start": 32.1317,
      "duration": 0.013,
      "velocity": 108,
      "chip": "ym2612"
    },
    {
      "channel": 4,
      "note": 52,
      "start": 32.132,
      "duration": 0.013,
      "velocity": 108,
      "chip": "ym2612"
    },
    {
      "channel": 3,
      "note": 49,
      "start": 32.1449,
      "duration": 0.012,
      "velocity": 108,
      "chip": "ym2612"
    },
    {
      "channel": 4,
      "note": 52,
      "start": 32.1451,
      "duration": 0.012,
      "velocity": 108,
      "chip": "ym2612"
    },
    {
      "channel": 3,
      "note": 49,
      "start": 32.157,
      "duration": 0.012,
      "velocity": 108,
      "chip": "ym2612"
    },
    {
      "channel": 4,
      "note": 54,
      "start": 32.1573,
      "duration": 0.012,
      "velocity": 108,
      "chip": "ym2612"
    },
    {
      "channel": 3,
      "note": 52,
      "start": 32.1692,
      "duration": 0.0119,
      "velocity": 108,
      "chip": "ym2612"
    },
    {
      "channel": 4,
      "note": 54,
      "start": 32.1695,
      "duration": 0.0119,
      "velocity": 108,
      "chip": "ym2612"
    },
    {
      "channel": 0,
      "note": 71,
      "start": 32.1808,
      "duration": 0.1708,
      "velocity": 108,
      "chip": "ym2612"
    },
    {
      "channel": 3,
      "note": 52,
      "start": 32.1812,
      "duration": 0.0128,
      "velocity": 108,
      "chip": "ym2612"
    },
    {
      "channel": 4,
      "note": 56,
      "start": 32.1815,
      "duration": 0.0127,
      "velocity": 108,
      "chip": "ym2612"
    },
    {
      "channel": 3,
      "note": 54,
      "start": 32.1941,
      "duration": 0.0125,
      "velocity": 108,
      "chip": "ym2612"
    },
    {
      "channel": 4,
      "note": 56,
      "start": 32.1944,
      "duration": 0.0125,
      "velocity": 108,
      "chip": "ym2612"
    },
    {
      "channel": 3,
      "note": 54,
      "start": 32.2068,
      "duration": 0.0399,
      "velocity": 108,
      "chip": "ym2612"
    },
    {
      "channel": 4,
      "note": 59,
      "start": 32.207,
      "duration": 0.04,
      "velocity": 108,
      "chip": "ym2612"
    },
    {
      "channel": 3,
      "note": 56,
      "start": 32.2469,
      "duration": 0.1052,
      "velocity": 108,
      "chip": "ym2612"
    },
    {
      "channel": 4,
      "note": 59,
      "start": 32.2471,
      "duration": 0.1052,
      "velocity": 108,
      "chip": "ym2612"
    },
    {
      "channel": 0,
      "note": 68,
      "start": 32.3518,
      "duration": 0.0493,
      "velocity": 108,
      "chip": "ym2612"
    },
    {
      "channel": 3,
      "note": 56,
      "start": 32.3522,
      "duration": 0.013,
      "velocity": 108,
      "chip": "ym2612"
    },
    {
      "channel": 4,
      "note": 61,
      "start": 32.3524,
      "duration": 0.013,
      "velocity": 108,
      "chip": "ym2612"
    },
    {
      "channel": 3,
      "note": 59,
      "start": 32.3653,
      "duration": 0.0119,
      "velocity": 108,
      "chip": "ym2612"
    },
    {
      "channel": 4,
      "note": 61,
      "start": 32.3656,
      "duration": 0.0119,
      "velocity": 108,
      "chip": "ym2612"
    },
    {
      "channel": 3,
      "note": 59,
      "start": 32.3773,
      "duration": 0.0122,
      "velocity": 108,
      "chip": "ym2612"
    },
    {
      "channel": 4,
      "note": 64,
      "start": 32.3776,
      "duration": 0.0122,
      "velocity": 108,
      "chip": "ym2612"
    },
    {
      "channel": 3,
      "note": 61,
      "start": 32.3897,
      "duration": 0.012,
      "velocity": 108,
      "chip": "ym2612"
    },
    {
      "channel": 4,
      "note": 64,
      "start": 32.3899,
      "duration": 0.012,
      "velocity": 108,
      "chip": "ym2612"
    },
    {
      "channel": 0,
      "note": 64,
      "start": 32.4012,
      "duration": 0.1709,
      "velocity": 108,
      "chip": "ym2612"
    },
    {
      "channel": 2,
      "note": 56,
      "start": 32.4016,
      "duration": 0.0256,
      "velocity": 114,
      "chip": "ym2612"
    },
    {
      "channel": 3,
      "note": 61,
      "start": 32.4018,
      "duration": 0.0127,
      "velocity": 108,
      "chip": "ym2612"
    },
    {
      "channel": 4,
      "note": 68,
      "start": 32.4021,
      "duration": 0.0127,
      "velocity": 108,
      "chip": "ym2612"
    },
    {
      "channel": 3,
      "note": 64,
      "start": 32.4147,
      "duration": 0.0127,
      "velocity": 108,
      "chip": "ym2612"
    },
    {
      "channel": 4,
      "note": 68,
      "start": 32.415,
      "duration": 0.0127,
      "velocity": 108,
      "chip": "ym2612"
    },
    {
      "channel": 2,
      "note": 54,
      "start": 32.4273,
      "duration": 0.6013,
      "velocity": 114,
      "chip": "ym2612"
    },
    {
      "channel": 3,
      "note": 64,
      "start": 32.4275,
      "duration": 0.0397,
      "velocity": 108,
      "chip": "ym2612"
    },
    {
      "channel": 4,
      "note": 49,
      "start": 32.4278,
      "duration": 0.0397,
      "velocity": 108,
      "chip": "ym2612"
    },
    {
      "channel": 3,
      "note": 68,
      "start": 32.4674,
      "duration": 0.1052,
      "velocity": 108,
      "chip": "ym2612"
    },
    {
      "channel": 4,
      "note": 49,
      "start": 32.4677,
      "duration": 0.1052,
      "velocity": 108,
      "chip": "ym2612"
    },
    {
      "channel": 0,
      "note": 66,
      "start": 32.5723,
      "duration": 0.456,
      "velocity": 108,
      "chip": "ym2612"
    },
    {
      "channel": 3,
      "note": 68,
      "start": 32.5727,
      "duration": 0.013,
      "velocity": 108,
      "chip": "ym2612"
    },
    {
      "channel": 4,
      "note": 52,
      "start": 32.573,
      "duration": 0.013,
      "velocity": 108,
      "chip": "ym2612"
    },
    {
      "channel": 3,
      "note": 49,
      "start": 32.5859,
      "duration": 0.0119,
      "velocity": 108,
      "chip": "ym2612"
    },
    {
      "channel": 4,
      "note": 52,
      "start": 32.5861,
      "duration": 0.0119,
      "velocity": 108,
      "chip": "ym2612"
    },
    {
      "channel": 3,
      "note": 49,
      "start": 32.5979,
      "duration": 0.0121,
      "velocity": 108,
      "chip": "ym2612"
    },
    {
      "channel": 4,
      "note": 54,
      "start": 32.5982,
      "duration": 0.0121,
      "velocity": 108,
      "chip": "ym2612"
    },
    {
      "channel": 3,
      "note": 52,
      "start": 32.6101,
      "duration": 0.0116,
      "velocity": 108,
      "chip": "ym2612"
    },
    {
      "channel": 4,
      "note": 54,
      "start": 32.6104,
      "duration": 0.0116,
      "velocity": 108,
      "chip": "ym2612"
    },
    {
      "channel": 3,
      "note": 52,
      "start": 32.6218,
      "duration": 0.0125,
      "velocity": 108,
      "chip": "ym2612"
    },
    {
      "channel": 4,
      "note": 56,
      "start": 32.6221,
      "duration": 0.0125,
      "velocity": 108,
      "chip": "ym2612"
    },
    {
      "channel": 3,
      "note": 54,
      "start": 32.6345,
      "duration": 0.0126,
      "velocity": 108,
      "chip": "ym2612"
    },
    {
      "channel": 4,
      "note": 56,
      "start": 32.6348,
      "duration": 0.0126,
      "velocity": 108,
      "chip": "ym2612"
    },
    {
      "channel": 3,
      "note": 54,
      "start": 32.6472,
      "duration": 0.0406,
      "velocity": 108,
      "chip": "ym2612"
    },
    {
      "channel": 4,
      "note": 59,
      "start": 32.6475,
      "duration": 0.0406,
      "velocity": 108,
      "chip": "ym2612"
    },
    {
      "channel": 3,
      "note": 56,
      "start": 32.688,
      "duration": 0.1051,
      "velocity": 108,
      "chip": "ym2612"
    },
    {
      "channel": 4,
      "note": 59,
      "start": 32.6882,
      "duration": 0.1051,
      "velocity": 108,
      "chip": "ym2612"
    },
    {
      "channel": 3,
      "note": 56,
      "start": 32.7932,
      "duration": 0.1049,
      "velocity": 108,
      "chip": "ym2612"
    },
    {
      "channel": 4,
      "note": 61,
      "start": 32.7935,
      "duration": 0.1048,
      "velocity": 108,
      "chip": "ym2612"
    },
    {
      "channel": 3,
      "note": 59,
      "start": 32.8982,
      "duration": 0.105,
      "velocity": 108,
      "chip": "ym2612"
    },
    {
      "channel": 4,
      "note": 61,
      "start": 32.8985,
      "duration": 0.105,
      "velocity": 108,
      "chip": "ym2612"
    },
    {
      "channel": 3,
      "note": 59,
      "start": 33.0034,
      "duration": 0.0132,
      "velocity": 108,
      "chip": "ym2612"
    },
    {
      "channel": 4,
      "note": 64,
      "start": 33.0036,
      "duration": 0.0132,
      "velocity": 108,
      "chip": "ym2612"
    },
    {
      "channel": 3,
      "note": 61,
      "start": 33.0167,
      "duration": 0.0122,
      "velocity": 108,
      "chip": "ym2612"
    },
    {
      "channel": 4,
      "note": 64,
      "start": 33.017,
      "duration": 0.0122,
      "velocity": 108,
      "chip": "ym2612"
    },
    {
      "channel": 0,
      "note": 64,
      "start": 33.0284,
      "duration": 0.1681,
      "velocity": 108,
      "chip": "ym2612"
    },
    {
      "channel": 2,
      "note": 52,
      "start": 33.0288,
      "duration": 0.0243,
      "velocity": 114,
      "chip": "ym2612"
    },
    {
      "channel": 3,
      "note": 61,
      "start": 33.029,
      "duration": 0.0119,
      "velocity": 108,
      "chip": "ym2612"
    },
    {
      "channel": 4,
      "note": 68,
      "start": 33.0293,
      "duration": 0.0119,
      "velocity": 108,
      "chip": "ym2612"
    },
    {
      "channel": 3,
      "note": 64,
      "start": 33.0411,
      "duration": 0.0122,
      "velocity": 108,
      "chip": "ym2612"
    },
    {
      "channel": 4,
      "note": 68,
      "start": 33.0413,
      "duration": 0.0122,
      "velocity": 108,
      "chip": "ym2612"
    },
    {
      "channel": 2,
      "note": 49,
      "start": 33.0532,
      "duration": 0.4133,
      "velocity": 114,
      "chip": "ym2612"
    },
    {
      "channel": 3,
      "note": 64,
      "start": 33.0534,
      "duration": 0.0381,
      "velocity": 108,
      "chip": "ym2612"
    },
    {
      "channel": 4,
      "note": 49,
      "start": 33.0537,
      "duration": 0.0381,
      "velocity": 108,
      "chip": "ym2612"
    },
    {
      "channel": 3,
      "note": 68,
      "start": 33.0917,
      "duration": 0.1052,
      "velocity": 108,
      "chip": "ym2612"
    },
    {
      "channel": 4,
      "note": 49,
      "start": 33.092,
      "duration": 0.1052,
      "velocity": 108,
      "chip": "ym2612"
    },
    {
      "channel": 0,
      "note": 68,
      "start": 33.1966,
      "duration": 0.4413,
      "velocity": 108,
      "chip": "ym2612"
    },
    {
      "channel": 3,
      "note": 68,
      "start": 33.197,
      "duration": 0.013,
      "velocity": 108,
      "chip": "ym2612"
    },
    {
      "channel": 4,
      "note": 52,
      "start": 33.1973,
      "duration": 0.013,
      "velocity": 108,
      "chip": "ym2612"
    },
    {
      "channel": 3,
      "note": 49,
      "start": 33.2102,
      "duration": 0.0121,
      "velocity": 108,
      "chip": "ym2612"
    },
    {
      "channel": 4,
      "note": 52,
      "start": 33.2105,
      "duration": 0.0121,
      "velocity": 108,
      "chip": "ym2612"
    },
    {
      "channel": 3,
      "note": 49,
      "start": 33.2224,
      "duration": 0.0119,
      "velocity": 108,
      "chip": "ym2612"
    },
    {
      "channel": 4,
      "note": 54,
      "start": 33.2227,
      "duration": 0.0119,
      "velocity": 108,
      "chip": "ym2612"
    },
    {
      "channel": 3,
      "note": 52,
      "start": 33.2345,
      "duration": 0.0116,
      "velocity": 108,
      "chip": "ym2612"
    },
    {
      "channel": 4,
      "note": 54,
      "start": 33.2348,
      "duration": 0.0116,
      "velocity": 108,
      "chip": "ym2612"
    },
    {
      "channel": 3,
      "note": 52,
      "start": 33.2463,
      "duration": 0.0127,
      "velocity": 108,
      "chip": "ym2612"
    },
    {
      "channel": 4,
      "note": 56,
      "start": 33.2466,
      "duration": 0.0127,
      "velocity": 108,
      "chip": "ym2612"
    },
    {
      "channel": 3,
      "note": 54,
      "start": 33.2591,
      "duration": 0.0124,
      "velocity": 108,
      "chip": "ym2612"
    },
    {
      "channel": 4,
      "note": 56,
      "start": 33.2593,
      "duration": 0.0124,
      "velocity": 108,
      "chip": "ym2612"
    },
    {
      "channel": 3,
      "note": 54,
      "start": 33.2717,
      "duration": 0.0405,
      "velocity": 108,
      "chip": "ym2612"
    },
    {
      "channel": 4,
      "note": 59,
      "start": 33.2719,
      "duration": 0.0406,
      "velocity": 108,
      "chip": "ym2612"
    },
    {
      "channel": 3,
      "note": 56,
      "start": 33.3123,
      "duration": 0.105,
      "velocity": 108,
      "chip": "ym2612"
    },
    {
      "channel": 4,
      "note": 59,
      "start": 33.3126,
      "duration": 0.105,
      "velocity": 108,
      "chip": "ym2612"
    },
    {
      "channel": 3,
      "note": 56,
      "start": 33.4175,
      "duration": 0.0129,
      "velocity": 108,
      "chip": "ym2612"
    },
    {
      "channel": 4,
      "note": 61,
      "start": 33.4178,
      "duration": 0.0129,
      "velocity": 108,
      "chip": "ym2612"
    },
    {
      "channel": 3,
      "note": 59,
      "start": 33.4306,
      "duration": 0.012,
      "velocity": 108,
      "chip": "ym2612"
    },
    {
      "channel": 4,
      "note": 61,
      "start": 33.4308,
      "duration": 0.012,
      "velocity": 108,
      "chip": "ym2612"
    },
    {
      "channel": 3,
      "note": 59,
      "start": 33.4427,
      "duration": 0.0121,
      "velocity": 108,
      "chip": "ym2612"
    },
    {
      "channel": 4,
      "note": 64,
      "start": 33.4429,
      "duration": 0.0121,
      "velocity": 108,
      "chip": "ym2612"
    },
    {
      "channel": 3,
      "note": 61,
      "start": 33.4549,
      "duration": 0.0119,
      "velocity": 108,
      "chip": "ym2612"
    },
    {
      "channel": 4,
      "note": 64,
      "start": 33.4551,
      "duration": 0.0118,
      "velocity": 108,
      "chip": "ym2612"
    },
    {
      "channel": 2,
      "note": 47,
      "start": 33.4666,
      "duration": 0.0255,
      "velocity": 114,
      "chip": "ym2612"
    },
    {
      "channel": 3,
      "note": 61,
      "start": 33.4669,
      "duration": 0.0127,
      "velocity": 108,
      "chip": "ym2612"
    },
    {
      "channel": 4,
      "note": 68,
      "start": 33.4671,
      "duration": 0.0127,
      "velocity": 108,
      "chip": "ym2612"
    },
    {
      "channel": 3,
      "note": 64,
      "start": 33.4798,
      "duration": 0.0127,
      "velocity": 108,
      "chip": "ym2612"
    },
    {
      "channel": 4,
      "note": 68,
      "start": 33.48,
      "duration": 0.0127,
      "velocity": 108,
      "chip": "ym2612"
    },
    {
      "channel": 2,
      "note": 49,
      "start": 33.4923,
      "duration": 0.1712,
      "velocity": 114,
      "chip": "ym2612"
    },
    {
      "channel": 3,
      "note": 64,
      "start": 33.4926,
      "duration": 0.0405,
      "velocity": 108,
      "chip": "ym2612"
    },
    {
      "channel": 4,
      "note": 49,
      "start": 33.4928,
      "duration": 0.0405,
      "velocity": 108,
      "chip": "ym2612"
    },
    {
      "channel": 3,
      "note": 68,
      "start": 33.5332,
      "duration": 0.1052,
      "velocity": 108,
      "chip": "ym2612"
    },
    {
      "channel": 4,
      "note": 49,
      "start": 33.5334,
      "duration": 0.1052,
      "velocity": 108,
      "chip": "ym2612"
    },
    {
      "channel": 0,
      "note": 61,
      "start": 33.6381,
      "duration": 0.4561,
      "velocity": 108,
      "chip": "ym2612"
    },
    {
      "channel": 3,
      "note": 68,
      "start": 33.6385,
      "duration": 0.013,
      "velocity": 108,
      "chip": "ym2612"
    },
    {
      "channel": 4,
      "note": 52,
      "start": 33.6388,
      "duration": 0.013,
      "velocity": 108,
      "chip": "ym2612"
    },
    {
      "channel": 3,
      "note": 49,
      "start": 33.6517,
      "duration": 0.012,
      "velocity": 108,
      "chip": "ym2612"
    },
    {
      "channel": 4,
      "note": 52,
      "start": 33.6519,
      "duration": 0.0121,
      "velocity": 108,
      "chip": "ym2612"
    },
    {
      "channel": 2,
      "note": 47,
      "start": 33.6636,
      "duration": 0.024,
      "velocity": 114,
      "chip": "ym2612"
    },
    {
      "channel": 3,
      "note": 49,
      "start": 33.6639,
      "duration": 0.0121,
      "velocity": 108,
      "chip": "ym2612"
    },
    {
      "channel": 4,
      "note": 54,
      "start": 33.6641,
      "duration": 0.0121,
      "velocity": 108,
      "chip": "ym2612"
    },
    {
      "channel": 3,
      "note": 52,
      "start": 33.6761,
      "duration": 0.0118,
      "velocity": 108,
      "chip": "ym2612"
    },
    {
      "channel": 4,
      "note": 54,
      "start": 33.6763,
      "duration": 0.0118,
      "velocity": 108,
      "chip": "ym2612"
    },
    {
      "channel": 2,
      "note": 52,
      "start": 33.6878,
      "duration": 0.171,
      "velocity": 114,
      "chip": "ym2612"
    },
    {
      "channel": 3,
      "note": 52,
      "start": 33.688,
      "duration": 0.0125,
      "velocity": 108,
      "chip": "ym2612"
    },
    {
      "channel": 4,
      "note": 56,
      "start": 33.6883,
      "duration": 0.0125,
      "velocity": 108,
      "chip": "ym2612"
    },
    {
      "channel": 3,
      "note": 54,
      "start": 33.7007,
      "duration": 0.0126,
      "velocity": 108,
      "chip": "ym2612"
    },
    {
      "channel": 4,
      "note": 56,
      "start": 33.701,
      "duration": 0.0126,
      "velocity": 108,
      "chip": "ym2612"
    },
    {
      "channel": 3,
      "note": 54,
      "start": 33.7134,
      "duration": 0.0402,
      "velocity": 108,
      "chip": "ym2612"
    },
    {
      "channel": 4,
      "note": 59,
      "start": 33.7137,
      "duration": 0.0402,
      "velocity": 108,
      "chip": "ym2612"
    },
    {
      "channel": 3,
      "note": 56,
      "start": 33.7537,
      "duration": 0.1053,
      "velocity": 108,
      "chip": "ym2612"
    },
    {
      "channel": 4,
      "note": 59,
      "start": 33.754,
      "duration": 0.1053,
      "velocity": 108,
      "chip": "ym2612"
    },
    {
      "channel": 2,
      "note": 47,
      "start": 33.8589,
      "duration": 0.21,
      "velocity": 114,
      "chip": "ym2612"
    },
    {
      "channel": 3,
      "note": 56,
      "start": 33.8592,
      "duration": 0.1047,
      "velocity": 108,
      "chip": "ym2612"
    },
    {
      "channel": 4,
      "note": 61,
      "start": 33.8595,
      "duration": 0.1047,
      "velocity": 108,
      "chip": "ym2612"
    },
    {
      "channel": 3,
      "note": 59,
      "start": 33.964,
      "duration": 0.1051,
      "velocity": 108,
      "chip": "ym2612"
    },
    {
      "channel": 4,
      "note": 61,
      "start": 33.9643,
      "duration": 0.1051,
      "velocity": 108,
      "chip": "ym2612"
    },
    {
      "channel": 2,
      "note": 52,
      "start": 34.069,
      "duration": 0.0255,
      "velocity": 114,
      "chip": "ym2612"
    },
    {
      "channel": 3,
      "note": 59,
      "start": 34.0693,
      "duration": 0.0132,
      "velocity": 108,
      "chip": "ym2612"
    },
    {
      "channel": 4,
      "note": 64,
      "start": 34.0696,
      "duration": 0.0132,
      "velocity": 108,
      "chip": "ym2612"
    },
    {
      "channel": 3,
      "note": 61,
      "start": 34.0827,
      "duration": 0.0122,
      "velocity": 108,
      "chip": "ym2612"
    },
    {
      "channel": 4,
      "note": 64,
      "start": 34.0829,
      "duration": 0.0122,
      "velocity": 108,
      "chip": "ym2612"
    },
    {
      "channel": 0,
      "note": 71,
      "start": 34.0944,
      "duration": 0.178,
      "velocity": 108,
      "chip": "ym2612"
    },
    {
      "channel": 2,
      "note": 56,
      "start": 34.0947,
      "duration": 0.0341,
      "velocity": 114,
      "chip": "ym2612"
    },
    {
      "channel": 3,
      "note": 61,
      "start": 34.0949,
      "duration": 0.0119,
      "velocity": 108,
      "chip": "ym2612"
    },
    {
      "channel": 4,
      "note": 68,
      "start": 34.0952,
      "duration": 0.0119,
      "velocity": 108,
      "chip": "ym2612"
    },
    {
      "channel": 3,
      "note": 64,
      "start": 34.107,
      "duration": 0.0221,
      "velocity": 108,
      "chip": "ym2612"
    },
    {
      "channel": 4,
      "note": 68,
      "start": 34.1072,
      "duration": 0.0221,
      "velocity": 108,
      "chip": "ym2612"
    },
    {
      "channel": 2,
      "note": 57,
      "start": 34.1289,
      "duration": 0.4135,
      "velocity": 114,
      "chip": "ym2612"
    },
    {
      "channel": 3,
      "note": 64,
      "start": 34.1292,
      "duration": 0.0383,
      "velocity": 108,
      "chip": "ym2612"
    },
    {
      "channel": 4,
      "note": 49,
      "start": 34.1295,
      "duration": 0.0383,
      "velocity": 108,
      "chip": "ym2612"
    },
    {
      "channel": 3,
      "note": 68,
      "start": 34.1676,
      "duration": 0.1052,
      "velocity": 108,
      "chip": "ym2612"
    },
    {
      "channel": 4,
      "note": 49,
      "start": 34.1679,
      "duration": 0.1052,
      "velocity": 108,
      "chip": "ym2612"
    },
    {
      "channel": 0,
      "note": 73,
      "start": 34.2725,
      "duration": 0.2696,
      "velocity": 108,
      "chip": "ym2612"
    },
    {
      "channel": 3,
      "note": 68,
      "start": 34.2729,
      "duration": 0.013,
      "velocity": 108,
      "chip": "ym2612"
    },
    {
      "channel": 4,
      "note": 52,
      "start": 34.2732,
      "duration": 0.013,
      "velocity": 108,
      "chip": "ym2612"
    },
    {
      "channel": 3,
      "note": 49,
      "start": 34.2861,
      "duration": 0.012,
      "velocity": 108,
      "chip": "ym2612"
    },
    {
      "channel": 4,
      "note": 52,
      "start": 34.2863,
      "duration": 0.012,
      "velocity": 108,
      "chip": "ym2612"
    },
    {
      "channel": 3,
      "note": 49,
      "start": 34.2983,
      "duration": 0.0119,
      "velocity": 108,
      "chip": "ym2612"
    },
    {
      "channel": 4,
      "note": 54,
      "start": 34.2985,
      "duration": 0.0119,
      "velocity": 108,
      "chip": "ym2612"
    },
    {
      "channel": 3,
      "note": 52,
      "start": 34.3103,
      "duration": 0.0116,
      "velocity": 108,
      "chip": "ym2612"
    },
    {
      "channel": 4,
      "note": 54,
      "start": 34.3106,
      "duration": 0.0116,
      "velocity": 108,
      "chip": "ym2612"
    },
    {
      "channel": 3,
      "note": 52,
      "start": 34.3221,
      "duration": 0.0127,
      "velocity": 108,
      "chip": "ym2612"
    },
    {
      "channel": 4,
      "note": 56,
      "start": 34.3223,
      "duration": 0.0127,
      "velocity": 108,
      "chip": "ym2612"
    },
    {
      "channel": 3,
      "note": 54,
      "start": 34.3349,
      "duration": 0.0124,
      "velocity": 108,
      "chip": "ym2612"
    },
    {
      "channel": 4,
      "note": 56,
      "start": 34.3352,
      "duration": 0.0124,
      "velocity": 108,
      "chip": "ym2612"
    },
    {
      "channel": 3,
      "note": 54,
      "start": 34.3475,
      "duration": 0.0405,
      "velocity": 108,
      "chip": "ym2612"
    },
    {
      "channel": 4,
      "note": 59,
      "start": 34.3478,
      "duration": 0.0405,
      "velocity": 108,
      "chip": "ym2612"
    },
    {
      "channel": 3,
      "note": 56,
      "start": 34.3882,
      "duration": 0.105,
      "velocity": 108,
      "chip": "ym2612"
    },
    {
      "channel": 4,
      "note": 59,
      "start": 34.3884,
      "duration": 0.105,
      "velocity": 108,
      "chip": "ym2612"
    },
    {
      "channel": 3,
      "note": 56,
      "start": 34.4933,
      "duration": 0.0128,
      "velocity": 108,
      "chip": "ym2612"
    },
    {
      "channel": 4,
      "note": 61,
      "start": 34.4936,
      "duration": 0.0129,
      "velocity": 108,
      "chip": "ym2612"
    },
    {
      "channel": 3,
      "note": 59,
      "start": 34.5063,
      "duration": 0.0118,
      "velocity": 108,
      "chip": "ym2612"
    },
    {
      "channel": 4,
      "note": 61,
      "start": 34.5066,
      "duration": 0.0118,
      "velocity": 108,
      "chip": "ym2612"
    },
    {
      "channel": 3,
      "note": 59,
      "start": 34.5183,
      "duration": 0.0122,
      "velocity": 108,
      "chip": "ym2612"
    },
    {
      "channel": 4,
      "note": 64,
      "start": 34.5185,
      "duration": 0.0122,
      "velocity": 108,
      "chip": "ym2612"
    },
    {
      "channel": 3,
      "note": 61,
      "start": 34.5306,
      "duration": 0.0121,
      "velocity": 108,
      "chip": "ym2612"
    },
    {
      "channel": 4,
      "note": 64,
      "start": 34.5309,
      "duration": 0.0121,
      "velocity": 108,
      "chip": "ym2612"
    },
    {
      "channel": 0,
      "note": 75,
      "start": 34.5423,
      "duration": 0.0258,
      "velocity": 108,
      "chip": "ym2612"
    },
    {
      "channel": 2,
      "note": 56,
      "start": 34.5426,
      "duration": 0.0258,
      "velocity": 114,
      "chip": "ym2612"
    },
    {
      "channel": 3,
      "note": 61,
      "start": 34.5429,
      "duration": 0.0128,
      "velocity": 108,
      "chip": "ym2612"
    },
    {
      "channel": 4,
      "note": 68,
      "start": 34.5431,
      "duration": 0.0128,
      "velocity": 108,
      "chip": "ym2612"
    },
    {
      "channel": 3,
      "note": 64,
      "start": 34.5558,
      "duration": 0.0129,
      "velocity": 108,
      "chip": "ym2612"
    },
    {
      "channel": 4,
      "note": 68,
      "start": 34.556,
      "duration": 0.0129,
      "velocity": 108,
      "chip": "ym2612"
    },
    {
      "channel": 0,
      "note": 76,
      "start": 34.5682,
      "duration": 0.1453,
      "velocity": 108,
      "chip": "ym2612"
    },
    {
      "channel": 2,
      "note": 54,
      "start": 34.5685,
      "duration": 0.6015,
      "velocity": 114,
      "chip": "ym2612"
    },
    {
      "channel": 3,
      "note": 64,
      "start": 34.5688,
      "duration": 0.0398,
      "velocity": 108,
      "chip": "ym2612"
    },
    {
      "channel": 4,
      "note": 49,
      "start": 34.5691,
      "duration": 0.0398,
      "velocity": 108,
      "chip": "ym2612"
    },
    {
      "channel": 3,
      "note": 68,
      "start": 34.6087,
      "duration": 0.1052,
      "velocity": 108,
      "chip": "ym2612"
    },
    {
      "channel": 4,
      "note": 49,
      "start": 34.609,
      "duration": 0.1052,
      "velocity": 108,
      "chip": "ym2612"
    },
    {
      "channel": 0,
      "note": 73,
      "start": 34.7137,
      "duration": 0.4561,
      "velocity": 108,
      "chip": "ym2612"
    },
    {
      "channel": 3,
      "note": 68,
      "start": 34.7141,
      "duration": 0.0129,
      "velocity": 108,
      "chip": "ym2612"
    },
    {
      "channel": 4,
      "note": 52,
      "start": 34.7143,
      "duration": 0.0129,
      "velocity": 108,
      "chip": "ym2612"
    },
    {
      "channel": 3,
      "note": 49,
      "start": 34.7271,
      "duration": 0.012,
      "velocity": 108,
      "chip": "ym2612"
    },
    {
      "channel": 4,
      "note": 52,
      "start": 34.7274,
      "duration": 0.012,
      "velocity": 108,
      "chip": "ym2612"
    },
    {
      "channel": 3,
      "note": 49,
      "start": 34.7393,
      "duration": 0.012,
      "velocity": 108,
      "chip": "ym2612"
    },
    {
      "channel": 4,
      "note": 54,
      "start": 34.7395,
      "duration": 0.012,
      "velocity": 108,
      "chip": "ym2612"
    },
    {
      "channel": 3,
      "note": 52,
      "start": 34.7515,
      "duration": 0.0116,
      "velocity": 108,
      "chip": "ym2612"
    },
    {
      "channel": 4,
      "note": 54,
      "start": 34.7517,
      "duration": 0.0116,
      "velocity": 108,
      "chip": "ym2612"
    },
    {
      "channel": 3,
      "note": 52,
      "start": 34.7632,
      "duration": 0.0126,
      "velocity": 108,
      "chip": "ym2612"
    },
    {
      "channel": 4,
      "note": 56,
      "start": 34.7635,
      "duration": 0.0126,
      "velocity": 108,
      "chip": "ym2612"
    },
    {
      "channel": 3,
      "note": 54,
      "start": 34.7759,
      "duration": 0.0126,
      "velocity": 108,
      "chip": "ym2612"
    },
    {
      "channel": 4,
      "note": 56,
      "start": 34.7762,
      "duration": 0.0126,
      "velocity": 108,
      "chip": "ym2612"
    },
    {
      "channel": 3,
      "note": 54,
      "start": 34.7887,
      "duration": 0.0406,
      "velocity": 108,
      "chip": "ym2612"
    },
    {
      "channel": 4,
      "note": 59,
      "start": 34.789,
      "duration": 0.0406,
      "velocity": 108,
      "chip": "ym2612"
    },
    {
      "channel": 3,
      "note": 56,
      "start": 34.8294,
      "duration": 0.105,
      "velocity": 108,
      "chip": "ym2612"
    },
    {
      "channel": 4,
      "note": 59,
      "start": 34.8297,
      "duration": 0.105,
      "velocity": 108,
      "chip": "ym2612"
    },
    {
      "channel": 3,
      "note": 56,
      "start": 34.9345,
      "duration": 0.105,
      "velocity": 108,
      "chip": "ym2612"
    },
    {
      "channel": 4,
      "note": 61,
      "start": 34.9348,
      "duration": 0.105,
      "velocity": 108,
      "chip": "ym2612"
    },
    {
      "channel": 3,
      "note": 59,
      "start": 35.0397,
      "duration": 0.105,
      "velocity": 108,
      "chip": "ym2612"
    },
    {
      "channel": 4,
      "note": 61,
      "start": 35.0399,
      "duration": 0.105,
      "velocity": 108,
      "chip": "ym2612"
    },
    {
      "channel": 3,
      "note": 59,
      "start": 35.1448,
      "duration": 0.0132,
      "velocity": 108,
      "chip": "ym2612"
    },
    {
      "channel": 4,
      "note": 64,
      "start": 35.145,
      "duration": 0.0132,
      "velocity": 108,
      "chip": "ym2612"
    },
    {
      "channel": 3,
      "note": 61,
      "start": 35.1581,
      "duration": 0.0122,
      "velocity": 108,
      "chip": "ym2612"
    },
    {
      "channel": 4,
      "note": 64,
      "start": 35.1584,
      "duration": 0.0122,
      "velocity": 108,
      "chip": "ym2612"
    },
    {
      "channel": 0,
      "note": 73,
      "start": 35.1698,
      "duration": 0.0245,
      "velocity": 108,
      "chip": "ym2612"
    },
    {
      "channel": 2,
      "note": 52,
      "start": 35.1702,
      "duration": 0.0245,
      "velocity": 114,
      "chip": "ym2612"
    },
    {
      "channel": 3,
      "note": 61,
      "start": 35.1704,
      "duration": 0.012,
      "velocity": 108,
      "chip": "ym2612"
    },
    {
      "channel": 4,
      "note": 68,
      "start": 35.1707,
      "duration": 0.012,
      "velocity": 108,
      "chip": "ym2612"
    },
    {
      "channel": 3,
      "note": 64,
      "start": 35.1825,
      "duration": 0.0124,
      "velocity": 108,
      "chip": "ym2612"
    },
    {
      "channel": 4,
      "note": 68,
      "start": 35.1828,
      "duration": 0.0124,
      "velocity": 108,
      "chip": "ym2612"
    },
    {
      "channel": 0,
      "note": 71,
      "start": 35.1945,
      "duration": 0.1434,
      "velocity": 108,
      "chip": "ym2612"
    },
    {
      "channel": 2,
      "note": 49,
      "start": 35.1948,
      "duration": 0.4127,
      "velocity": 114,
      "chip": "ym2612"
    },
    {
      "channel": 3,
      "note": 64,
      "start": 35.1951,
      "duration": 0.0379,
      "velocity": 108,
      "chip": "ym2612"
    },
    {
      "channel": 4,
      "note": 49,
      "start": 35.1954,
      "duration": 0.0379,
      "velocity": 108,
      "chip": "ym2612"
    },
    {
      "channel": 3,
      "note": 68,
      "start": 35.2332,
      "duration": 0.1052,
      "velocity": 108,
      "chip": "ym2612"
    },
    {
      "channel": 4,
      "note": 49,
      "start": 35.2334,
      "duration": 0.1052,
      "velocity": 108,
      "chip": "ym2612"
    },
    {
      "channel": 0,
      "note": 68,
      "start": 35.3381,
      "duration": 0.4408,
      "velocity": 108,
      "chip": "ym2612"
    },
    {
      "channel": 3,
      "note": 68,
      "start": 35.3385,
      "duration": 0.013,
      "velocity": 108,
      "chip": "ym2612"
    },
    {
      "channel": 4,
      "note": 52,
      "start": 35.3387,
      "duration": 0.013,
      "velocity": 108,
      "chip": "ym2612"
    },
    {
      "channel": 3,
      "note": 49,
      "start": 35.3516,
      "duration": 0.012,
      "velocity": 108,
      "chip": "ym2612"
    },
    {
      "channel": 4,
      "note": 52,
      "start": 35.3519,
      "duration": 0.012,
      "velocity": 108,
      "chip": "ym2612"
    },
    {
      "channel": 3,
      "note": 49,
      "start": 35.3638,
      "duration": 0.0119,
      "velocity": 108,
      "chip": "ym2612"
    },
    {
      "channel": 4,
      "note": 54,
      "start": 35.3641,
      "duration": 0.0119,
      "velocity": 108,
      "chip": "ym2612"
    },
    {
      "channel": 3,
      "note": 52,
      "start": 35.3759,
      "duration": 0.0116,
      "velocity": 108,
      "chip": "ym2612"
    },
    {
      "channel": 4,
      "note": 54,
      "start": 35.3761,
      "duration": 0.0116,
      "velocity": 108,
      "chip": "ym2612"
    },
    {
      "channel": 3,
      "note": 52,
      "start": 35.3876,
      "duration": 0.0127,
      "velocity": 108,
      "chip": "ym2612"
    },
    {
      "channel": 4,
      "note": 56,
      "start": 35.3879,
      "duration": 0.0127,
      "velocity": 108,
      "chip": "ym2612"
    },
    {
      "channel": 3,
      "note": 54,
      "start": 35.4005,
      "duration": 0.0124,
      "velocity": 108,
      "chip": "ym2612"
    },
    {
      "channel": 4,
      "note": 56,
      "start": 35.4007,
      "duration": 0.0124,
      "velocity": 108,
      "chip": "ym2612"
    },
    {
      "channel": 3,
      "note": 54,
      "start": 35.413,
      "duration": 0.0406,
      "velocity": 108,
      "chip": "ym2612"
    },
    {
      "channel": 4,
      "note": 59,
      "start": 35.4133,
      "duration": 0.0405,
      "velocity": 108,
      "chip": "ym2612"
    },
    {
      "channel": 3,
      "note": 56,
      "start": 35.4537,
      "duration": 0.105,
      "velocity": 108,
      "chip": "ym2612"
    },
    {
      "channel": 4,
      "note": 59,
      "start": 35.454,
      "duration": 0.105,
      "velocity": 108,
      "chip": "ym2612"
    },
    {
      "channel": 3,
      "note": 56,
      "start": 35.5589,
      "duration": 0.0128,
      "velocity": 108,
      "chip": "ym2612"
    },
    {
      "channel": 4,
      "note": 61,
      "start": 35.5591,
      "duration": 0.0128,
      "velocity": 108,
      "chip": "ym2612"
    },
    {
      "channel": 3,
      "note": 59,
      "start": 35.5718,
      "duration": 0.0118,
      "velocity": 108,
      "chip": "ym2612"
    },
    {
      "channel": 4,
      "note": 61,
      "start": 35.5721,
      "duration": 0.0118,
      "velocity": 108,
      "chip": "ym2612"
    },
    {
      "channel": 3,
      "note": 59,
      "start": 35.5838,
      "duration": 0.0121,
      "velocity": 108,
      "chip": "ym2612"
    },
    {
      "channel": 4,
      "note": 64,
      "start": 35.584,
      "duration": 0.0121,
      "velocity": 108,
      "chip": "ym2612"
    },
    {
      "channel": 3,
      "note": 61,
      "start": 35.596,
      "duration": 0.0118,
      "velocity": 108,
      "chip": "ym2612"
    },
    {
      "channel": 4,
      "note": 64,
      "start": 35.5962,
      "duration": 0.0118,
      "velocity": 108,
      "chip": "ym2612"
    },
    {
      "channel": 2,
      "note": 47,
      "start": 35.6076,
      "duration": 0.0255,
      "velocity": 114,
      "chip": "ym2612"
    },
    {
      "channel": 3,
      "note": 61,
      "start": 35.6079,
      "duration": 0.0127,
      "velocity": 108,
      "chip": "ym2612"
    },
    {
      "channel": 4,
      "note": 68,
      "start": 35.6082,
      "duration": 0.0127,
      "velocity": 108,
      "chip": "ym2612"
    },
    {
      "channel": 3,
      "note": 64,
      "start": 35.6207,
      "duration": 0.0127,
      "velocity": 108,
      "chip": "ym2612"
    },
    {
      "channel": 4,
      "note": 68,
      "start": 35.621,
      "duration": 0.0127,
      "velocity": 108,
      "chip": "ym2612"
    },
    {
      "channel": 2,
      "note": 49,
      "start": 35.6332,
      "duration": 0.1712,
      "velocity": 114,
      "chip": "ym2612"
    },
    {
      "channel": 3,
      "note": 64,
      "start": 35.6335,
      "duration": 0.0405,
      "velocity": 108,
      "chip": "ym2612"
    },
    {
      "channel": 4,
      "note": 76,
      "start": 35.6338,
      "duration": 0.0405,
      "velocity": 108,
      "chip": "ym2612"
    },
    {
      "channel": 3,
      "note": 68,
      "start": 35.6741,
      "duration": 0.1052,
      "velocity": 108,
      "chip": "ym2612"
    },
    {
      "channel": 4,
      "note": 76,
      "start": 35.6744,
      "duration": 0.1052,
      "velocity": 108,
      "chip": "ym2612"
    },
    {
      "channel": 0,
      "note": 76,
      "start": 35.779,
      "duration": 0.2207,
      "velocity": 108,
      "chip": "ym2612"
    },
    {
      "channel": 3,
      "note": 68,
      "start": 35.7794,
      "duration": 0.0129,
      "velocity": 108,
      "chip": "ym2612"
    },
    {
      "channel": 4,
      "note": 75,
      "start": 35.7797,
      "duration": 0.0129,
      "velocity": 108,
      "chip": "ym2612"
    },
    {
      "channel": 3,
      "note": 76,
      "start": 35.7924,
      "duration": 0.0122,
      "velocity": 108,
      "chip": "ym2612"
    },
    {
      "channel": 4,
      "note": 75,
      "start": 35.7927,
      "duration": 0.0122,
      "velocity": 108,
      "chip": "ym2612"
    },
    {
      "channel": 2,
      "note": 47,
      "start": 35.8045,
      "duration": 0.024,
      "velocity": 114,
      "chip": "ym2612"
    },
    {
      "channel": 3,
      "note": 76,
      "start": 35.8048,
      "duration": 0.0121,
      "velocity": 108,
      "chip": "ym2612"
    },
    {
      "channel": 4,
      "note": 71,
      "start": 35.8051,
      "duration": 0.0121,
      "velocity": 108,
      "chip": "ym2612"
    },
    {
      "channel": 3,
      "note": 75,
      "start": 35.8171,
      "duration": 0.0118,
      "velocity": 108,
      "chip": "ym2612"
    },
    {
      "channel": 4,
      "note": 71,
      "start": 35.8173,
      "duration": 0.0118,
      "velocity": 108,
      "chip": "ym2612"
    },
    {
      "channel": 2,
      "note": 52,
      "start": 35.8287,
      "duration": 0.1713,
      "velocity": 114,
      "chip": "ym2612"
    },
    {
      "channel": 3,
      "note": 75,
      "start": 35.829,
      "duration": 0.0125,
      "velocity": 108,
      "chip": "ym2612"
    },
    {
      "channel": 4,
      "note": 68,
      "start": 35.8293,
      "duration": 0.0125,
      "velocity": 108,
      "chip": "ym2612"
    },
    {
      "channel": 3,
      "note": 71,
      "start": 35.8417,
      "duration": 0.0126,
      "velocity": 108,
      "chip": "ym2612"
    },
    {
      "channel": 4,
      "note": 68,
      "start": 35.8419,
      "duration": 0.0126,
      "velocity": 108,
      "chip": "ym2612"
    },
    {
      "channel": 3,
      "note": 71,
      "start": 35.8544,
      "duration": 0.0402,
      "velocity": 108,
      "chip": "ym2612"
    },
    {
      "channel": 4,
      "note": 66,
      "start": 35.8547,
      "duration": 0.0402,
      "velocity": 108,
      "chip": "ym2612"
    },
    {
      "channel": 3,
      "note": 68,
      "start": 35.8948,
      "duration": 0.1055,
      "velocity": 108,
      "chip": "ym2612"
    },
    {
      "channel": 4,
      "note": 66,
      "start": 35.895,
      "duration": 0.1055,
      "velocity": 108,
      "chip": "ym2612"
    },
    {
      "channel": 0,
      "note": 75,
      "start": 35.9998,
      "duration": 0.4134,
      "velocity": 108,
      "chip": "ym2612"
    },
    {
      "channel": 2,
      "note": 47,
      "start": 36.0002,
      "duration": 0.2098,
      "velocity": 114,
      "chip": "ym2612"
    },
    {
      "channel": 3,
      "note": 68,
      "start": 36.0004,
      "duration": 0.1045,
      "velocity": 108,
      "chip": "ym2612"
    },
    {
      "channel": 4,
      "note": 64,
      "start": 36.0007,
      "duration": 0.1045,
      "velocity": 108,
      "chip": "ym2612"
    },
    {
      "channel": 3,
      "note": 66,
      "start": 36.105,
      "duration": 0.1051,
      "velocity": 108,
      "chip": "ym2612"
    },
    {
      "channel": 4,
      "note": 64,
      "start": 36.1053,
      "duration": 0.1052,
      "velocity": 108,
      "chip": "ym2612"
    },
    {
      "channel": 2,
      "note": 52,
      "start": 36.2101,
      "duration": 0.0251,
      "velocity": 114,
      "chip": "ym2612"
    },
    {
      "channel": 3,
      "note": 66,
      "start": 36.2103,
      "duration": 0.0131,
      "velocity": 108,
      "chip": "ym2612"
    },
    {
      "channel": 4,
      "note": 63,
      "start": 36.2106,
      "duration": 0.013,
      "velocity": 108,
      "chip": "ym2612"
    },
    {
      "channel": 3,
      "note": 64,
      "start": 36.2235,
      "duration": 0.0119,
      "velocity": 108,
      "chip": "ym2612"
    },
    {
      "channel": 4,
      "note": 63,
      "start": 36.2238,
      "duration": 0.0119,
      "velocity": 108,
      "chip": "ym2612"
    },
    {
      "channel": 2,
      "note": 56,
      "start": 36.2353,
      "duration": 0.034,
      "velocity": 114,
      "chip": "ym2612"
    },
    {
      "channel": 3,
      "note": 64,
      "start": 36.2356,
      "duration": 0.0118,
      "velocity": 108,
      "chip": "ym2612"
    },
    {
      "channel": 4,
      "note": 59,
      "start": 36.2358,
      "duration": 0.0118,
      "velocity": 108,
      "chip": "ym2612"
    },
    {
      "channel": 3,
      "note": 63,
      "start": 36.2475,
      "duration": 0.022,
      "velocity": 108,
      "chip": "ym2612"
    },
    {
      "channel": 4,
      "note": 59,
      "start": 36.2478,
      "duration": 0.022,
      "velocity": 108,
      "chip": "ym2612"
    },
    {
      "channel": 2,
      "note": 57,
      "start": 36.2694,
      "duration": 0.4138,
      "velocity": 114,
      "chip": "ym2612"
    },
    {
      "channel": 3,
      "note": 63,
      "start": 36.2697,
      "duration": 0.0387,
      "velocity": 108,
      "chip": "ym2612"
    },
    {
      "channel": 4,
      "note": 49,
      "start": 36.2699,
      "duration": 0.0387,
      "velocity": 108,
      "chip": "ym2612"
    },
    {
      "channel": 3,
      "note": 59,
      "start": 36.3085,
      "duration": 0.1052,
      "velocity": 108,
      "chip": "ym2612"
    },
    {
      "channel": 4,
      "note": 49,
      "start": 36.3088,
      "duration": 0.1052,
      "velocity": 108,
      "chip": "ym2612"
    },
    {
      "channel": 0,
      "note": 75,
      "start": 36.4134,
      "duration": 0.0748,
      "velocity": 108,
      "chip": "ym2612"
    },
    {
      "channel": 3,
      "note": 59,
      "start": 36.4138,
      "duration": 0.013,
      "velocity": 108,
      "chip": "ym2612"
    },
    {
      "channel": 4,
      "note": 52,
      "start": 36.4141,
      "duration": 0.013,
      "velocity": 108,
      "chip": "ym2612"
    },
    {
      "channel": 3,
      "note": 49,
      "start": 36.427,
      "duration": 0.012,
      "velocity": 108,
      "chip": "ym2612"
    },
    {
      "channel": 4,
      "note": 52,
      "start": 36.4272,
      "duration": 0.012,
      "velocity": 108,
      "chip": "ym2612"
    },
    {
      "channel": 3,
      "note": 49,
      "start": 36.4391,
      "duration": 0.012,
      "velocity": 108,
      "chip": "ym2612"
    },
    {
      "channel": 4,
      "note": 54,
      "start": 36.4394,
      "duration": 0.012,
      "velocity": 108,
      "chip": "ym2612"
    },
    {
      "channel": 3,
      "note": 52,
      "start": 36.4512,
      "duration": 0.0116,
      "velocity": 108,
      "chip": "ym2612"
    },
    {
      "channel": 4,
      "note": 54,
      "start": 36.4515,
      "duration": 0.0116,
      "velocity": 108,
      "chip": "ym2612"
    },
    {
      "channel": 3,
      "note": 52,
      "start": 36.463,
      "duration": 0.0129,
      "velocity": 108,
      "chip": "ym2612"
    },
    {
      "channel": 4,
      "note": 56,
      "start": 36.4632,
      "duration": 0.0128,
      "velocity": 108,
      "chip": "ym2612"
    },
    {
      "channel": 3,
      "note": 54,
      "start": 36.476,
      "duration": 0.0127,
      "velocity": 108,
      "chip": "ym2612"
    },
    {
      "channel": 4,
      "note": 56,
      "start": 36.4762,
      "duration": 0.0127,
      "velocity": 108,
      "chip": "ym2612"
    },
    {
      "channel": 0,
      "note": 73,
      "start": 36.4884,
      "duration": 0.1945,
      "velocity": 108,
      "chip": "ym2612"
    },
    {
      "channel": 3,
      "note": 54,
      "start": 36.4888,
      "duration": 0.0402,
      "velocity": 108,
      "chip": "ym2612"
    },
    {
      "channel": 4,
      "note": 59,
      "start": 36.489,
      "duration": 0.0402,
      "velocity": 108,
      "chip": "ym2612"
    },
    {
      "channel": 3,
      "note": 56,
      "start": 36.5291,
      "duration": 0.105,
      "velocity": 108,
      "chip": "ym2612"
    },
    {
      "channel": 4,
      "note": 59,
      "start": 36.5294,
      "duration": 0.105,
      "velocity": 108,
      "chip": "ym2612"
    },
    {
      "channel": 3,
      "note": 56,
      "start": 36.6343,
      "duration": 0.0128,
      "velocity": 108,
      "chip": "ym2612"
    },
    {
      "channel": 4,
      "note": 61,
      "start": 36.6345,
      "duration": 0.0128,
      "velocity": 108,
      "chip": "ym2612"
    },
    {
      "channel": 3,
      "note": 59,
      "start": 36.6472,
      "duration": 0.0118,
      "velocity": 108,
      "chip": "ym2612"
    },
    {
      "channel": 4,
      "note": 61,
      "start": 36.6475,
      "duration": 0.0118,
      "velocity": 108,
      "chip": "ym2612"
    },
    {
      "channel": 3,
      "note": 59,
      "start": 36.6592,
      "duration": 0.0122,
      "velocity": 108,
      "chip": "ym2612"
    },
    {
      "channel": 4,
      "note": 64,
      "start": 36.6595,
      "duration": 0.0122,
      "velocity": 108,
      "chip": "ym2612"
    },
    {
      "channel": 3,
      "note": 61,
      "start": 36.6715,
      "duration": 0.012,
      "velocity": 108,
      "chip": "ym2612"
    },
    {
      "channel": 4,
      "note": 64,
      "start": 36.6717,
      "duration": 0.012,
      "velocity": 108,
      "chip": "ym2612"
    },
    {
      "channel": 0,
      "note": 71,
      "start": 36.6831,
      "duration": 0.1712,
      "velocity": 108,
      "chip": "ym2612"
    },
    {
      "channel": 2,
      "note": 56,
      "start": 36.6834,
      "duration": 0.0256,
      "velocity": 114,
      "chip": "ym2612"
    },
    {
      "channel": 3,
      "note": 61,
      "start": 36.6837,
      "duration": 0.0127,
      "velocity": 108,
      "chip": "ym2612"
    },
    {
      "channel": 4,
      "note": 68,
      "start": 36.6839,
      "duration": 0.0127,
      "velocity": 108,
      "chip": "ym2612"
    },
    {
      "channel": 3,
      "note": 64,
      "start": 36.6965,
      "duration": 0.0127,
      "velocity": 108,
      "chip": "ym2612"
    },
    {
      "channel": 4,
      "note": 68,
      "start": 36.6968,
      "duration": 0.0127,
      "velocity": 108,
      "chip": "ym2612"
    },
    {
      "channel": 2,
      "note": 54,
      "start": 36.7091,
      "duration": 0.6017,
      "velocity": 114,
      "chip": "ym2612"
    },
    {
      "channel": 3,
      "note": 64,
      "start": 36.7093,
      "duration": 0.04,
      "velocity": 108,
      "chip": "ym2612"
    },
    {
      "channel": 4,
      "note": 49,
      "start": 36.7096,
      "duration": 0.04,
      "velocity": 108,
      "chip": "ym2612"
    },
    {
      "channel": 3,
      "note": 68,
      "start": 36.7495,
      "duration": 0.1052,
      "velocity": 108,
      "chip": "ym2612"
    },
    {
      "channel": 4,
      "note": 49,
      "start": 36.7498,
      "duration": 0.1052,
      "velocity": 108,
      "chip": "ym2612"
    },
    {
      "channel": 0,
      "note": 73,
      "start": 36.8544,
      "duration": 0.456,
      "velocity": 108,
      "chip": "ym2612"
    },
    {
      "channel": 3,
      "note": 68,
      "start": 36.8548,
      "duration": 0.013,
      "velocity": 108,
      "chip": "ym2612"
    },
    {
      "channel": 4,
      "note": 52,
      "start": 36.8551,
      "duration": 0.013,
      "velocity": 108,
      "chip": "ym2612"
    },
    {
      "channel": 3,
      "note": 49,
      "start": 36.868,
      "duration": 0.0119,
      "velocity": 108,
      "chip": "ym2612"
    },
    {
      "channel": 4,
      "note": 52,
      "start": 36.8683,
      "duration": 0.0119,
      "velocity": 108,
      "chip": "ym2612"
    },
    {
      "channel": 3,
      "note": 49,
      "start": 36.88,
      "duration": 0.0121,
      "velocity": 108,
      "chip": "ym2612"
    },
    {
      "channel": 4,
      "note": 54,
      "start": 36.8803,
      "duration": 0.0121,
      "velocity": 108,
      "chip": "ym2612"
    },
    {
      "channel": 3,
      "note": 52,
      "start": 36.8923,
      "duration": 0.0116,
      "velocity": 108,
      "chip": "ym2612"
    },
    {
      "channel": 4,
      "note": 54,
      "start": 36.8926,
      "duration": 0.0116,
      "velocity": 108,
      "chip": "ym2612"
    },
    {
      "channel": 3,
      "note": 52,
      "start": 36.904,
      "duration": 0.0125,
      "velocity": 108,
      "chip": "ym2612"
    },
    {
      "channel": 4,
      "note": 56,
      "start": 36.9043,
      "duration": 0.0125,
      "velocity": 108,
      "chip": "ym2612"
    },
    {
      "channel": 3,
      "note": 54,
      "start": 36.9167,
      "duration": 0.0126,
      "velocity": 108,
      "chip": "ym2612"
    },
    {
      "channel": 4,
      "note": 56,
      "start": 36.917,
      "duration": 0.0126,
      "velocity": 108,
      "chip": "ym2612"
    },
    {
      "channel": 3,
      "note": 54,
      "start": 36.9295,
      "duration": 0.0405,
      "velocity": 108,
      "chip": "ym2612"
    },
    {
      "channel": 4,
      "note": 59,
      "start": 36.9297,
      "duration": 0.0406,
      "velocity": 108,
      "chip": "ym2612"
    },
    {
      "channel": 3,
      "note": 56,
      "start": 36.9702,
      "duration": 0.1051,
      "velocity": 108,
      "chip": "ym2612"
    },
    {
      "channel": 4,
      "note": 59,
      "start": 36.9704,
      "duration": 0.1051,
      "velocity": 108,
      "chip": "ym2612"
    },
    {
      "channel": 3,
      "note": 56,
      "start": 37.0754,
      "duration": 0.1049,
      "velocity": 108,
      "chip": "ym2612"
    },
    {
      "channel": 4,
      "note": 61,
      "start": 37.0757,
      "duration": 0.1048,
      "velocity": 108,
      "chip": "ym2612"
    },
    {
      "channel": 3,
      "note": 59,
      "start": 37.1804,
      "duration": 0.105,
      "velocity": 108,
      "chip": "ym2612"
    },
    {
      "channel": 4,
      "note": 61,
      "start": 37.1807,
      "duration": 0.105,
      "velocity": 108,
      "chip": "ym2612"
    },
    {
      "channel": 3,
      "note": 59,
      "start": 37.2856,
      "duration": 0.0132,
      "velocity": 108,
      "chip": "ym2612"
    },
    {
      "channel": 4,
      "note": 64,
      "start": 37.2858,
      "duration": 0.0132,
      "velocity": 108,
      "chip": "ym2612"
    },
    {
      "channel": 3,
      "note": 61,
      "start": 37.2989,
      "duration": 0.0122,
      "velocity": 108,
      "chip": "ym2612"
    },
    {
      "channel": 4,
      "note": 64,
      "start": 37.2991,
      "duration": 0.0122,
      "velocity": 108,
      "chip": "ym2612"
    },
    {
      "channel": 0,
      "note": 75,
      "start": 37.3106,
      "duration": 0.0245,
      "velocity": 108,
      "chip": "ym2612"
    },
    {
      "channel": 2,
      "note": 52,
      "start": 37.3109,
      "duration": 0.0245,
      "velocity": 114,
      "chip": "ym2612"
    },
    {
      "channel": 3,
      "note": 61,
      "start": 37.3112,
      "duration": 0.012,
      "velocity": 108,
      "chip": "ym2612"
    },
    {
      "channel": 4,
      "note": 68,
      "start": 37.3115,
      "duration": 0.012,
      "velocity": 108,
      "chip": "ym2612"
    },
    {
      "channel": 3,
      "note": 64,
      "start": 37.3233,
      "duration": 0.0124,
      "velocity": 108,
      "chip": "ym2612"
    },
    {
      "channel": 4,
      "note": 68,
      "start": 37.3235,
      "duration": 0.0124,
      "velocity": 108,
      "chip": "ym2612"
    },
    {
      "channel": 0,
      "note": 76,
      "start": 37.3352,
      "duration": 0.1434,
      "velocity": 108,
      "chip": "ym2612"
    },
    {
      "channel": 2,
      "note": 49,
      "start": 37.3355,
      "duration": 0.4132,
      "velocity": 114,
      "chip": "ym2612"
    },
    {
      "channel": 3,
      "note": 64,
      "start": 37.3358,
      "duration": 0.0379,
      "velocity": 108,
      "chip": "ym2612"
    },
    {
      "channel": 4,
      "note": 49,
      "start": 37.3361,
      "duration": 0.0379,
      "velocity": 108,
      "chip": "ym2612"
    },
    {
      "channel": 3,
      "note": 68,
      "start": 37.3738,
      "duration": 0.1052,
      "velocity": 108,
      "chip": "ym2612"
    },
    {
      "channel": 4,
      "note": 49,
      "start": 37.3741,
      "duration": 0.1052,
      "velocity": 108,
      "chip": "ym2612"
    },
    {
      "channel": 0,
      "note": 78,
      "start": 37.4788,
      "duration": 0.2453,
      "velocity": 108,
      "chip": "ym2612"
    },
    {
      "channel": 3,
      "note": 68,
      "start": 37.4792,
      "duration": 0.0129,
      "velocity": 108,
      "chip": "ym2612"
    },
    {
      "channel": 4,
      "note": 52,
      "start": 37.4794,
      "duration": 0.0129,
      "velocity": 108,
      "chip": "ym2612"
    },
    {
      "channel": 3,
      "note": 49,
      "start": 37.4922,
      "duration": 0.0121,
      "velocity": 108,
      "chip": "ym2612"
    },
    {
      "channel": 4,
      "note": 52,
      "start": 37.4924,
      "duration": 0.0121,
      "velocity": 108,
      "chip": "ym2612"
    },
    {
      "channel": 3,
      "note": 49,
      "start": 37.5044,
      "duration": 0.012,
      "velocity": 108,
      "chip": "ym2612"
    },
    {
      "channel": 4,
      "note": 54,
      "start": 37.5047,
      "duration": 0.012,
      "velocity": 108,
      "chip": "ym2612"
    },
    {
      "channel": 3,
      "note": 52,
      "start": 37.5165,
      "duration": 0.0116,
      "velocity": 108,
      "chip": "ym2612"
    },
    {
      "channel": 4,
      "note": 54,
      "start": 37.5168,
      "duration": 0.0116,
      "velocity": 108,
      "chip": "ym2612"
    },
    {
      "channel": 3,
      "note": 52,
      "start": 37.5283,
      "duration": 0.0127,
      "velocity": 108,
      "chip": "ym2612"
    },
    {
      "channel": 4,
      "note": 56,
      "start": 37.5285,
      "duration": 0.0127,
      "velocity": 108,
      "chip": "ym2612"
    },
    {
      "channel": 3,
      "note": 54,
      "start": 37.5411,
      "duration": 0.0124,
      "velocity": 108,
      "chip": "ym2612"
    },
    {
      "channel": 4,
      "note": 56,
      "start": 37.5414,
      "duration": 0.0124,
      "velocity": 108,
      "chip": "ym2612"
    },
    {
      "channel": 3,
      "note": 54,
      "start": 37.5537,
      "duration": 0.0406,
      "velocity": 108,
      "chip": "ym2612"
    },
    {
      "channel": 4,
      "note": 59,
      "start": 37.5539,
      "duration": 0.0405,
      "velocity": 108,
      "chip": "ym2612"
    },
    {
      "channel": 3,
      "note": 56,
      "start": 37.5944,
      "duration": 0.105,
      "velocity": 108,
      "chip": "ym2612"
    },
    {
      "channel": 4,
      "note": 59,
      "start": 37.5946,
      "duration": 0.105,
      "velocity": 108,
      "chip": "ym2612"
    },
    {
      "channel": 3,
      "note": 56,
      "start": 37.6995,
      "duration": 0.0128,
      "velocity": 108,
      "chip": "ym2612"
    },
    {
      "channel": 4,
      "note": 61,
      "start": 37.6998,
      "duration": 0.0128,
      "velocity": 108,
      "chip": "ym2612"
    },
    {
      "channel": 3,
      "note": 59,
      "start": 37.7125,
      "duration": 0.0119,
      "velocity": 108,
      "chip": "ym2612"
    },
    {
      "channel": 4,
      "note": 61,
      "start": 37.7127,
      "duration": 0.0118,
      "velocity": 108,
      "chip": "ym2612"
    },
    {
      "channel": 3,
      "note": 59,
      "start": 37.7245,
      "duration": 0.0124,
      "velocity": 108,
      "chip": "ym2612"
    },
    {
      "channel": 4,
      "note": 64,
      "start": 37.7247,
      "duration": 0.0124,
      "velocity": 108,
      "chip": "ym2612"
    },
    {
      "channel": 3,
      "note": 61,
      "start": 37.7371,
      "duration": 0.012,
      "velocity": 108,
      "chip": "ym2612"
    },
    {
      "channel": 4,
      "note": 64,
      "start": 37.7373,
      "duration": 0.012,
      "velocity": 108,
      "chip": "ym2612"
    },
    {
      "channel": 2,
      "note": 47,
      "start": 37.7489,
      "duration": 0.0372,
      "velocity": 114,
      "chip": "ym2612"
    },
    {
      "channel": 3,
      "note": 61,
      "start": 37.7492,
      "duration": 0.013,
      "velocity": 108,
      "chip": "ym2612"
    },
    {
      "channel": 4,
      "note": 68,
      "start": 37.7494,
      "duration": 0.013,
      "velocity": 108,
      "chip": "ym2612"
    },
    {
      "channel": 3,
      "note": 64,
      "start": 37.7623,
      "duration": 0.0241,
      "velocity": 108,
      "chip": "ym2612"
    },
    {
      "channel": 4,
      "note": 68,
      "start": 37.7626,
      "duration": 0.024,
      "velocity": 108,
      "chip": "ym2612"
    },
    {
      "channel": 0,
      "note": 61,
      "start": 37.786,
      "duration": 0.039,
      "velocity": 90,
      "chip": "ym2612"
    },
    {
      "channel": 2,
      "note": 49,
      "start": 37.7863,
      "duration": 0.1716,
      "velocity": 114,
      "chip": "ym2612"
    },
    {
      "channel": 3,
      "note": 64,
      "start": 37.7865,
      "duration": 0.0389,
      "velocity": 108,
      "chip": "ym2612"
    },
    {
      "channel": 4,
      "note": 49,
      "start": 37.7868,
      "duration": 0.0388,
      "velocity": 108,
      "chip": "ym2612"
    },
    {
      "channel": 0,
      "note": 64,
      "start": 37.8251,
      "duration": 0.1048,
      "velocity": 90,
      "chip": "ym2612"
    },
    {
      "channel": 3,
      "note": 68,
      "start": 37.8255,
      "duration": 0.1047,
      "velocity": 108,
      "chip": "ym2612"
    },
    {
      "channel": 4,
      "note": 49,
      "start": 37.8258,
      "duration": 0.1047,
      "velocity": 108,
      "chip": "ym2612"
    },
    {
      "channel": 0,
      "note": 66,
      "start": 37.93,
      "duration": 0.0133,
      "velocity": 90,
      "chip": "ym2612"
    },
    {
      "channel": 3,
      "note": 68,
      "start": 37.9304,
      "duration": 0.0147,
      "velocity": 108,
      "chip": "ym2612"
    },
    {
      "channel": 4,
      "note": 52,
      "start": 37.9307,
      "duration": 0.0147,
      "velocity": 108,
      "chip": "ym2612"
    },
    {
      "channel": 0,
      "note": 64,
      "start": 37.9435,
      "duration": 0.0139,
      "velocity": 90,
      "chip": "ym2612"
    },
    {
      "channel": 1,
      "note": 61,
      "start": 37.9449,
      "duration": 0.0127,
      "velocity": 90,
      "chip": "ym2612"
    },
    {
      "channel": 3,
      "note": 49,
      "start": 37.9452,
      "duration": 0.0129,
      "velocity": 108,
      "chip": "ym2612"
    },
    {
      "channel": 4,
      "note": 52,
      "start": 37.9455,
      "duration": 0.0129,
      "velocity": 108,
      "chip": "ym2612"
    },
    {
      "channel": 0,
      "note": 66,
      "start": 37.9575,
      "duration": 0.0128,
      "velocity": 90,
      "chip": "ym2612"
    },
    {
      "channel": 1,
      "note": 64,
      "start": 37.9578,
      "duration": 0.0128,
      "velocity": 90,
      "chip": "ym2612"
    },
    {
      "channel": 2,
      "note": 47,
      "start": 37.958,
      "duration": 0.0251,
      "velocity": 114,
      "chip": "ym2612"
    },
    {
      "channel": 3,
      "note": 49,
      "start": 37.9583,
      "duration": 0.0126,
      "velocity": 108,
      "chip": "ym2612"
    },
    {
      "channel": 4,
      "note": 54,
      "start": 37.9585,
      "duration": 0.0126,
      "velocity": 108,
      "chip": "ym2612"
    },
    {
      "channel": 0,
      "note": 68,
      "start": 37.9705,
      "duration": 0.0122,
      "velocity": 90,
      "chip": "ym2612"
    },
    {
      "channel": 1,
      "note": 66,
      "start": 37.9707,
      "duration": 0.0122,
      "velocity": 90,
      "chip": "ym2612"
    },
    {
      "channel": 3,
      "note": 52,
      "start": 37.971,
      "duration": 0.0124,
      "velocity": 108,
      "chip": "ym2612"
    },
    {
      "channel": 4,
      "note": 54,
      "start": 37.9713,
      "duration": 0.0123,
      "velocity": 108,
      "chip": "ym2612"
    },
    {
      "channel": 0,
      "note": 66,
      "start": 37.9827,
      "duration": 0.0138,
      "velocity": 90,
      "chip": "ym2612"
    },
    {
      "channel": 1,
      "note": 64,
      "start": 37.983,
      "duration": 0.0138,
      "velocity": 90,
      "chip": "ym2612"
    },
    {
      "channel": 2,
      "note": 52,
      "start": 37.9832,
      "duration": 0.1681,
      "velocity": 114,
      "chip": "ym2612"
    },
    {
      "channel": 3,
      "note": 52,
      "start": 37.9835,
      "duration": 0.0136,
      "velocity": 108,
      "chip": "ym2612"
    },
    {
      "channel": 4,
      "note": 56,
      "start": 37.9838,
      "duration": 0.0136,
      "velocity": 108,
      "chip": "ym2612"
    },
    {
      "channel": 0,
      "note": 68,
      "start": 37.9966,
      "duration": 0.013,
      "velocity": 90,
      "chip": "ym2612"
    },
    {
      "channel": 1,
      "note": 66,
      "start": 37.9969,
      "duration": 0.013,
      "velocity": 90,
      "chip": "ym2612"
    },
    {
      "channel": 3,
      "note": 54,
      "start": 37.9972,
      "duration": 0.013,
      "velocity": 108,
      "chip": "ym2612"
    },
    {
      "channel": 4,
      "note": 56,
      "start": 37.9975,
      "duration": 0.013,
      "velocity": 108,
      "chip": "ym2612"
    },
    {
      "channel": 0,
      "note": 71,
      "start": 38.0098,
      "duration": 0.0355,
      "velocity": 90,
      "chip": "ym2612"
    },
    {
      "channel": 1,
      "note": 68,
      "start": 38.01,
      "duration": 0.0355,
      "velocity": 90,
      "chip": "ym2612"
    },
    {
      "channel": 3,
      "note": 54,
      "start": 38.0104,
      "duration": 0.0355,
      "velocity": 108,
      "chip": "ym2612"
    },
    {
      "channel": 4,
      "note": 59,
      "start": 38.0106,
      "duration": 0.0355,
      "velocity": 108,
      "chip": "ym2612"
    },
    {
      "channel": 0,
      "note": 68,
      "start": 38.0455,
      "duration": 0.1054,
      "velocity": 90,
      "chip": "ym2612"
    },
    {
      "channel": 1,
      "note": 66,
      "start": 38.0457,
      "duration": 0.1054,
      "velocity": 90,
      "chip": "ym2612"
    },
    {
      "channel": 3,
      "note": 56,
      "start": 38.046,
      "duration": 0.1056,
      "velocity": 108,
      "chip": "ym2612"
    },
    {
      "channel": 4,
      "note": 59,
      "start": 38.0463,
      "duration": 0.1056,
      "velocity": 108,
      "chip": "ym2612"
    },
    {
      "channel": 0,
      "note": 71,
      "start": 38.151,
      "duration": 0.1046,
      "velocity": 90,
      "chip": "ym2612"
    },
    {
      "channel": 1,
      "note": 68,
      "start": 38.1512,
      "duration": 0.1046,
      "velocity": 90,
      "chip": "ym2612"
    },
    {
      "channel": 2,
      "note": 47,
      "start": 38.1515,
      "duration": 0.2097,
      "velocity": 114,
      "chip": "ym2612"
    },
    {
      "channel": 3,
      "note": 56,
      "start": 38.1517,
      "duration": 0.1044,
      "velocity": 108,
      "chip": "ym2612"
    },
    {
      "channel": 4,
      "note": 61,
      "start": 38.152,
      "duration": 0.1044,
      "velocity": 108,
      "chip": "ym2612"
    },
    {
      "channel": 0,
      "note": 73,
      "start": 38.2557,
      "duration": 0.105,
      "velocity": 90,
      "chip": "ym2612"
    },
    {
      "channel": 1,
      "note": 71,
      "start": 38.2559,
      "duration": 0.105,
      "velocity": 90,
      "chip": "ym2612"
    },
    {
      "channel": 3,
      "note": 59,
      "start": 38.2563,
      "duration": 0.1052,
      "velocity": 108,
      "chip": "ym2612"
    },
    {
      "channel": 4,
      "note": 61,
      "start": 38.2565,
      "duration": 0.1052,
      "velocity": 108,
      "chip": "ym2612"
    },
    {
      "channel": 0,
      "note": 71,
      "start": 38.3608,
      "duration": 0.014,
      "velocity": 90,
      "chip": "ym2612"
    },
    {
      "channel": 1,
      "note": 68,
      "start": 38.3611,
      "duration": 0.014,
      "velocity": 90,
      "chip": "ym2612"
    },
    {
      "channel": 2,
      "note": 52,
      "start": 38.3613,
      "duration": 0.0265,
      "velocity": 114,
      "chip": "ym2612"
    },
    {
      "channel": 3,
      "note": 59,
      "start": 38.3616,
      "duration": 0.0138,
      "velocity": 108,
      "chip": "ym2612"
    },
    {
      "channel": 4,
      "note": 64,
      "start": 38.3619,
      "duration": 0.0138,
      "velocity": 108,
      "chip": "ym2612"
    },
    {
      "channel": 0,
      "note": 73,
      "start": 38.375,
      "duration": 0.0123,
      "velocity": 90,
      "chip": "ym2612"
    },
    {
      "channel": 1,
      "note": 71,
      "start": 38.3753,
      "duration": 0.0123,
      "velocity": 90,
      "chip": "ym2612"
    },
    {
      "channel": 3,
      "note": 61,
      "start": 38.3756,
      "duration": 0.0125,
      "velocity": 108,
      "chip": "ym2612"
    },
    {
      "channel": 4,
      "note": 64,
      "start": 38.3759,
      "duration": 0.0125,
      "velocity": 108,
      "chip": "ym2612"
    },
    {
      "channel": 0,
      "note": 76,
      "start": 38.3875,
      "duration": 0.0126,
      "velocity": 90,
      "chip": "ym2612"
    },
    {
      "channel": 1,
      "note": 73,
      "start": 38.3877,
      "duration": 0.0126,
      "velocity": 90,
      "chip": "ym2612"
    },
    {
      "channel": 2,
      "note": 56,
      "start": 38.388,
      "duration": 0.0256,
      "velocity": 114,
      "chip": "ym2612"
    },
    {
      "channel": 3,
      "note": 61,
      "start": 38.3883,
      "duration": 0.0124,
      "velocity": 108,
      "chip": "ym2612"
    },
    {
      "channel": 4,
      "note": 68,
      "start": 38.3885,
      "duration": 0.0124,
      "velocity": 108,
      "chip": "ym2612"
    },
    {
      "channel": 0,
      "note": 73,
      "start": 38.4002,
      "duration": 0.0128,
      "velocity": 90,
      "chip": "ym2612"
    },
    {
      "channel": 1,
      "note": 71,
      "start": 38.4005,
      "duration": 0.0128,
      "velocity": 90,
      "chip": "ym2612"
    },
    {
      "channel": 3,
      "note": 64,
      "start": 38.4008,
      "duration": 0.013,
      "velocity": 108,
      "chip": "ym2612"
    },
    {
      "channel": 4,
      "note": 68,
      "start": 38.4011,
      "duration": 0.013,
      "velocity": 108,
      "chip": "ym2612"
    },
    {
      "channel": 0,
      "note": 76,
      "start": 38.4132,
      "duration": 0.0358,
      "velocity": 90,
      "chip": "ym2612"
    },
    {
      "channel": 1,
      "note": 73,
      "start": 38.4134,
      "duration": 0.0358,
      "velocity": 90,
      "chip": "ym2612"
    },
    {
      "channel": 2,
      "note": 57,
      "start": 38.4137,
      "duration": 0.4132,
      "velocity": 114,
      "chip": "ym2612"
    },
    {
      "channel": 3,
      "note": 64,
      "start": 38.4139,
      "duration": 0.0356,
      "velocity": 108,
      "chip": "ym2612"
    },
    {
      "channel": 4,
      "note": 49,
      "start": 38.4142,
      "duration": 0.0356,
      "velocity": 108,
      "chip": "ym2612"
    },
    {
      "channel": 0,
      "note": 80,
      "start": 38.4492,
      "duration": 0.105,
      "velocity": 90,
      "chip": "ym2612"
    },
    {
      "channel": 1,
      "note": 76,
      "start": 38.4494,
      "duration": 0.105,
      "velocity": 90,
      "chip": "ym2612"
    },
    {
      "channel": 3,
      "note": 68,
      "start": 38.4497,
      "duration": 0.105,
      "velocity": 108,
      "chip": "ym2612"
    },
    {
      "channel": 4,
      "note": 49,
      "start": 38.45,
      "duration": 0.105,
      "velocity": 108,
      "chip": "ym2612"
    },
    {
      "channel": 0,
      "note": 76,
      "start": 38.5543,
      "duration": 0.0138,
      "velocity": 90,
      "chip": "ym2612"
    },
    {
      "channel": 1,
      "note": 73,
      "start": 38.5545,
      "duration": 0.0138,
      "velocity": 90,
      "chip": "ym2612"
    },
    {
      "channel": 3,
      "note": 68,
      "start": 38.5549,
      "duration": 0.0138,
      "velocity": 108,
      "chip": "ym2612"
    },
    {
      "channel": 4,
      "note": 52,
      "start": 38.5551,
      "duration": 0.0138,
      "velocity": 108,
      "chip": "ym2612"
    },
    {
      "channel": 0,
      "note": 80,
      "start": 38.5682,
      "duration": 0.0126,
      "velocity": 90,
      "chip": "ym2612"
    },
    {
      "channel": 1,
      "note": 76,
      "start": 38.5685,
      "duration": 0.0126,
      "velocity": 90,
      "chip": "ym2612"
    },
    {
      "channel": 3,
      "note": 49,
      "start": 38.5688,
      "duration": 0.0126,
      "velocity": 108,
      "chip": "ym2612"
    },
    {
      "channel": 4,
      "note": 52,
      "start": 38.5691,
      "duration": 0.0126,
      "velocity": 108,
      "chip": "ym2612"
    },
    {
      "channel": 0,
      "note": 83,
      "start": 38.581,
      "duration": 0.0125,
      "velocity": 90,
      "chip": "ym2612"
    },
    {
      "channel": 1,
      "note": 80,
      "start": 38.5812,
      "duration": 0.0125,
      "velocity": 90,
      "chip": "ym2612"
    },
    {
      "channel": 3,
      "note": 49,
      "start": 38.5816,
      "duration": 0.0125,
      "velocity": 108,
      "chip": "ym2612"
    },
    {
      "channel": 4,
      "note": 54,
      "start": 38.5819,
      "duration": 0.0125,
      "velocity": 108,
      "chip": "ym2612"
    },
    {
      "channel": 0,
      "note": 80,
      "start": 38.5937,
      "duration": 0.0125,
      "velocity": 90,
      "chip": "ym2612"
    },
    {
      "channel": 1,
      "note": 76,
      "start": 38.5939,
      "duration": 0.0125,
      "velocity": 90,
      "chip": "ym2612"
    },
    {
      "channel": 3,
      "note": 52,
      "start": 38.5942,
      "duration": 0.0125,
      "velocity": 108,
      "chip": "ym2612"
    },
    {
      "channel": 4,
      "note": 54,
      "start": 38.5945,
      "duration": 0.0125,
      "velocity": 108,
      "chip": "ym2612"
    },
    {
      "channel": 0,
      "note": 83,
      "start": 38.6063,
      "duration": 0.0131,
      "velocity": 90,
      "chip": "ym2612"
    },
    {
      "channel": 1,
      "note": 80,
      "start": 38.6066,
      "duration": 0.0131,
      "velocity": 90,
      "chip": "ym2612"
    },
    {
      "channel": 3,
      "note": 52,
      "start": 38.6069,
      "duration": 0.0131,
      "velocity": 108,
      "chip": "ym2612"
    },
    {
      "channel": 4,
      "note": 56,
      "start": 38.6072,
      "duration": 0.0131,
      "velocity": 108,
      "chip": "ym2612"
    },
    {
      "channel": 0,
      "note": 85,
      "start": 38.6196,
      "duration": 0.013,
      "velocity": 90,
      "chip": "ym2612"
    },
    {
      "channel": 1,
      "note": 83,
      "start": 38.6199,
      "duration": 0.013,
      "velocity": 90,
      "chip": "ym2612"
    },
    {
      "channel": 3,
      "note": 54,
      "start": 38.6202,
      "duration": 0.013,
      "velocity": 108,
      "chip": "ym2612"
    },
    {
      "channel": 4,
      "note": 56,
      "start": 38.6205,
      "duration": 0.013,
      "velocity": 108,
      "chip": "ym2612"
    },
    {
      "channel": 0,
      "note": 83,
      "start": 38.6328,
      "duration": 0.0371,
      "velocity": 90,
      "chip": "ym2612"
    },
    {
      "channel": 1,
      "note": 80,
      "start": 38.633,
      "duration": 0.0371,
      "velocity": 90,
      "chip": "ym2612"
    },
    {
      "channel": 3,
      "note": 54,
      "start": 38.6334,
      "duration": 0.0371,
      "velocity": 108,
      "chip": "ym2612"
    },
    {
      "channel": 4,
      "note": 59,
      "start": 38.6336,
      "duration": 0.0371,
      "velocity": 108,
      "chip": "ym2612"
    },
    {
      "channel": 0,
      "note": 85,
      "start": 38.67,
      "duration": 0.1047,
      "velocity": 90,
      "chip": "ym2612"
    },
    {
      "channel": 1,
      "note": 83,
      "start": 38.6702,
      "duration": 0.1047,
      "velocity": 90,
      "chip": "ym2612"
    },
    {
      "channel": 3,
      "note": 56,
      "start": 38.6706,
      "duration": 0.1047,
      "velocity": 108,
      "chip": "ym2612"
    },
    {
      "channel": 4,
      "note": 59,
      "start": 38.6708,
      "duration": 0.1047,
      "velocity": 108,
      "chip": "ym2612"
    },
    {
      "channel": 0,
      "note": 87,
      "start": 38.7749,
      "duration": 0.0134,
      "velocity": 90,
      "chip": "ym2612"
    },
    {
      "channel": 1,
      "note": 85,
      "start": 38.7751,
      "duration": 0.0135,
      "velocity": 90,
      "chip": "ym2612"
    },
    {
      "channel": 3,
      "note": 56,
      "start": 38.7755,
      "duration": 0.0135,
      "velocity": 108,
      "chip": "ym2612"
    },
    {
      "channel": 4,
      "note": 61,
      "start": 38.7757,
      "duration": 0.0134,
      "velocity": 108,
      "chip": "ym2612"
    },
    {
      "channel": 0,
      "note": 85,
      "start": 38.7885,
      "duration": 0.0127,
      "velocity": 90,
      "chip": "ym2612"
    },
    {
      "channel": 1,
      "note": 83,
      "start": 38.7887,
      "duration": 0.0127,
      "velocity": 90,
      "chip": "ym2612"
    },
    {
      "channel": 3,
      "note": 59,
      "start": 38.7891,
      "duration": 0.0127,
      "velocity": 108,
      "chip": "ym2612"
    },
    {
      "channel": 4,
      "note": 61,
      "start": 38.7893,
      "duration": 0.0127,
      "velocity": 108,
      "chip": "ym2612"
    },
    {
      "channel": 0,
      "note": 88,
      "start": 38.8013,
      "duration": 0.0127,
      "velocity": 90,
      "chip": "ym2612"
    },
    {
      "channel": 1,
      "note": 85,
      "start": 38.8016,
      "duration": 0.0127,
      "velocity": 90,
      "chip": "ym2612"
    },
    {
      "channel": 3,
      "note": 59,
      "start": 38.8019,
      "duration": 0.0127,
      "velocity": 108,
      "chip": "ym2612"
    },
    {
      "channel": 4,
      "note": 64,
      "start": 38.8022,
      "duration": 0.0127,
      "velocity": 108,
      "chip": "ym2612"
    },
    {
      "channel": 0,
      "note": 90,
      "start": 38.8141,
      "duration": 0.0123,
      "velocity": 90,
      "chip": "ym2612"
    },
    {
      "channel": 1,
      "note": 87,
      "start": 38.8144,
      "duration": 0.0123,
      "velocity": 90,
      "chip": "ym2612"
    },
    {
      "channel": 3,
      "note": 61,
      "start": 38.8147,
      "duration": 0.0125,
      "velocity": 108,
      "chip": "ym2612"
    },
    {
      "channel": 4,
      "note": 64,
      "start": 38.815,
      "duration": 0.0125,
      "velocity": 108,
      "chip": "ym2612"
    },
    {
      "channel": 0,
      "note": 88,
      "start": 38.8266,
      "duration": 0.0137,
      "velocity": 90,
      "chip": "ym2612"
    },
    {
      "channel": 1,
      "note": 85,
      "start": 38.8268,
      "duration": 0.0137,
      "velocity": 90,
      "chip": "ym2612"
    },
    {
      "channel": 2,
      "note": 56,
      "start": 38.8271,
      "duration": 0.027,
      "velocity": 114,
      "chip": "ym2612"
    },
    {
      "channel": 3,
      "note": 61,
      "start": 38.8273,
      "duration": 0.0136,
      "velocity": 108,
      "chip": "ym2612"
    },
    {
      "channel": 4,
      "note": 68,
      "start": 38.8276,
      "duration": 0.0136,
      "velocity": 108,
      "chip": "ym2612"
    },
    {
      "channel": 0,
      "note": 90,
      "start": 38.8405,
      "duration": 0.0131,
      "velocity": 90,
      "chip": "ym2612"
    },
    {
      "channel": 1,
      "note": 88,
      "start": 38.8407,
      "duration": 0.0131,
      "velocity": 90,
      "chip": "ym2612"
    },
    {
      "channel": 3,
      "note": 64,
      "start": 38.841,
      "duration": 0.0133,
      "velocity": 108,
      "chip": "ym2612"
    },
    {
      "channel": 4,
      "note": 68,
      "start": 38.8413,
      "duration": 0.0133,
      "velocity": 108,
      "chip": "ym2612"
    },
    {
      "channel": 0,
      "note": 92,
      "start": 38.8537,
      "duration": 0.0365,
      "velocity": 90,
      "chip": "ym2612"
    },
    {
      "channel": 1,
      "note": 90,
      "start": 38.8539,
      "duration": 0.0365,
      "velocity": 90,
      "chip": "ym2612"
    },
    {
      "channel": 2,
      "note": 54,
      "start": 38.8542,
      "duration": 0.5985,
      "velocity": 114,
      "chip": "ym2612"
    },
    {
      "channel": 3,
      "note": 64,
      "start": 38.8544,
      "duration": 0.0363,
      "velocity": 108,
      "chip": "ym2612"
    },
    {
      "channel": 4,
      "note": 49,
      "start": 38.8547,
      "duration": 0.0363,
      "velocity": 108,
      "chip": "ym2612"
    },
    {
      "channel": 0,
      "note": 90,
      "start": 38.8903,
      "duration": 0.1052,
      "velocity": 90,
      "chip": "ym2612"
    },
    {
      "channel": 1,
      "note": 88,
      "start": 38.8906,
      "duration": 0.1052,
      "velocity": 90,
      "chip": "ym2612"
    },
    {
      "channel": 3,
      "note": 68,
      "start": 38.8909,
      "duration": 0.1052,
      "velocity": 108,
      "chip": "ym2612"
    },
    {
      "channel": 4,
      "note": 49,
      "start": 38.8912,
      "duration": 0.1052,
      "velocity": 108,
      "chip": "ym2612"
    },
    {
      "channel": 0,
      "note": 92,
      "start": 38.9957,
      "duration": 0.0135,
      "velocity": 90,
      "chip": "ym2612"
    },
    {
      "channel": 1,
      "note": 90,
      "start": 38.9959,
      "duration": 0.0135,
      "velocity": 90,
      "chip": "ym2612"
    },
    {
      "channel": 3,
      "note": 68,
      "start": 38.9963,
      "duration": 0.0135,
      "velocity": 108,
      "chip": "ym2612"
    },
    {
      "channel": 4,
      "note": 52,
      "start": 38.9965,
      "duration": 0.0135,
      "velocity": 108,
      "chip": "ym2612"
    },
    {
      "channel": 0,
      "note": 95,
      "start": 39.0093,
      "duration": 0.0125,
      "velocity": 90,
      "chip": "ym2612"
    },
    {
      "channel": 1,
      "note": 92,
      "start": 39.0096,
      "duration": 0.0125,
      "velocity": 90,
      "chip": "ym2612"
    },
    {
      "channel": 3,
      "note": 49,
      "start": 39.0099,
      "duration": 0.0125,
      "velocity": 108,
      "chip": "ym2612"
    },
    {
      "channel": 4,
      "note": 52,
      "start": 39.0102,
      "duration": 0.0125,
      "velocity": 108,
      "chip": "ym2612"
    },
    {
      "channel": 0,
      "note": 92,
      "start": 39.022,
      "duration": 0.0129,
      "velocity": 90,
      "chip": "ym2612"
    },
    {
      "channel": 1,
      "note": 90,
      "start": 39.0222,
      "duration": 0.013,
      "velocity": 90,
      "chip": "ym2612"
    },
    {
      "channel": 3,
      "note": 49,
      "start": 39.0226,
      "duration": 0.013,
      "velocity": 108,
      "chip": "ym2612"
    },
    {
      "channel": 4,
      "note": 54,
      "start": 39.0228,
      "duration": 0.013,
      "velocity": 108,
      "chip": "ym2612"
    },
    {
      "channel": 0,
      "note": 95,
      "start": 39.0351,
      "duration": 0.0121,
      "velocity": 90,
      "chip": "ym2612"
    },
    {
      "channel": 1,
      "note": 92,
      "start": 39.0354,
      "duration": 0.0121,
      "velocity": 90,
      "chip": "ym2612"
    },
    {
      "channel": 3,
      "note": 52,
      "start": 39.0357,
      "duration": 0.0121,
      "velocity": 108,
      "chip": "ym2612"
    },
    {
      "channel": 4,
      "note": 54,
      "start": 39.036,
      "duration": 0.0121,
      "velocity": 108,
      "chip": "ym2612"
    },
    {
      "channel": 0,
      "note": 97,
      "start": 39.0474,
      "duration": 0.0131,
      "velocity": 90,
      "chip": "ym2612"
    },
    {
      "channel": 1,
      "note": 95,
      "start": 39.0476,
      "duration": 0.0131,
      "velocity": 90,
      "chip": "ym2612"
    },
    {
      "channel": 3,
      "note": 52,
      "start": 39.048,
      "duration": 0.0131,
      "velocity": 108,
      "chip": "ym2612"
    },
    {
      "channel": 4,
      "note": 56,
      "start": 39.0483,
      "duration": 0.013,
      "velocity": 108,
      "chip": "ym2612"
    },
    {
      "channel": 0,
      "note": 95,
      "start": 39.0606,
      "duration": 0.0132,
      "velocity": 90,
      "chip": "ym2612"
    },
    {
      "channel": 1,
      "note": 92,
      "start": 39.0608,
      "duration": 0.0132,
      "velocity": 90,
      "chip": "ym2612"
    },
    {
      "channel": 3,
      "note": 54,
      "start": 39.0612,
      "duration": 0.0133,
      "velocity": 108,
      "chip": "ym2612"
    },
    {
      "channel": 4,
      "note": 56,
      "start": 39.0615,
      "duration": 0.0133,
      "velocity": 108,
      "chip": "ym2612"
    },
    {
      "channel": 0,
      "note": 97,
      "start": 39.0739,
      "duration": 0.0368,
      "velocity": 90,
      "chip": "ym2612"
    },
    {
      "channel": 1,
      "note": 95,
      "start": 39.0743,
      "duration": 0.0367,
      "velocity": 90,
      "chip": "ym2612"
    },
    {
      "channel": 3,
      "note": 54,
      "start": 39.0746,
      "duration": 0.0366,
      "velocity": 108,
      "chip": "ym2612"
    },
    {
      "channel": 4,
      "note": 59,
      "start": 39.0749,
      "duration": 0.0367,
      "velocity": 108,
      "chip": "ym2612"
    },
    {
      "channel": 0,
      "note": 100,
      "start": 39.1109,
      "duration": 0.1051,
      "velocity": 90,
      "chip": "ym2612"
    },
    {
      "channel": 1,
      "note": 97,
      "start": 39.1111,
      "duration": 0.1051,
      "velocity": 90,
      "chip": "ym2612"
    },
    {
      "channel": 3,
      "note": 56,
      "start": 39.1115,
      "duration": 0.1051,
      "velocity": 108,
      "chip": "ym2612"
    },
    {
      "channel": 4,
      "note": 59,
      "start": 39.1117,
      "duration": 0.1051,
      "velocity": 108,
      "chip": "ym2612"
    },
    {
      "channel": 0,
      "note": 97,
      "start": 39.2162,
      "duration": 0.1048,
      "velocity": 90,
      "chip": "ym2612"
    },
    {
      "channel": 1,
      "note": 95,
      "start": 39.2164,
      "duration": 0.1049,
      "velocity": 90,
      "chip": "ym2612"
    },
    {
      "channel": 3,
      "note": 56,
      "start": 39.2167,
      "duration": 0.1049,
      "velocity": 108,
      "chip": "ym2612"
    },
    {
      "channel": 4,
      "note": 61,
      "start": 39.217,
      "duration": 0.1049,
      "velocity": 108,
      "chip": "ym2612"
    },
    {
      "channel": 0,
      "note": 100,
      "start": 39.3212,
      "duration": 0.105,
      "velocity": 90,
      "chip": "ym2612"
    },
    {
      "channel": 1,
      "note": 97,
      "start": 39.3214,
      "duration": 0.105,
      "velocity": 90,
      "chip": "ym2612"
    },
    {
      "channel": 3,
      "note": 59,
      "start": 39.3217,
      "duration": 0.105,
      "velocity": 108,
      "chip": "ym2612"
    },
    {
      "channel": 4,
      "note": 61,
      "start": 39.322,
      "duration": 0.105,
      "velocity": 108,
      "chip": "ym2612"
    },
    {
      "channel": 0,
      "note": 104,
      "start": 39.4263,
      "duration": 0.0136,
      "velocity": 90,
      "chip": "ym2612"
    },
    {
      "channel": 1,
      "note": 100,
      "start": 39.4265,
      "duration": 0.0136,
      "velocity": 90,
      "chip": "ym2612"
    },
    {
      "channel": 3,
      "note": 59,
      "start": 39.4268,
      "duration": 0.0136,
      "velocity": 108,
      "chip": "ym2612"
    },
    {
      "channel": 4,
      "note": 64,
      "start": 39.4271,
      "duration": 0.0136,
      "velocity": 108,
      "chip": "ym2612"
    },
    {
      "channel": 0,
      "note": 100,
      "start": 39.44,
      "duration": 0.0122,
      "velocity": 90,
      "chip": "ym2612"
    },
    {
      "channel": 1,
      "note": 97,
      "start": 39.4402,
      "duration": 0.0122,
      "velocity": 90,
      "chip": "ym2612"
    },
    {
      "channel": 3,
      "note": 61,
      "start": 39.4406,
      "duration": 0.0124,
      "velocity": 108,
      "chip": "ym2612"
    },
    {
      "channel": 4,
      "note": 64,
      "start": 39.4408,
      "duration": 0.0124,
      "velocity": 108,
      "chip": "ym2612"
    },
    {
      "channel": 0,
      "note": 104,
      "start": 39.4523,
      "duration": 0.0125,
      "velocity": 90,
      "chip": "ym2612"
    },
    {
      "channel": 1,
      "note": 100,
      "start": 39.4526,
      "duration": 0.0125,
      "velocity": 90,
      "chip": "ym2612"
    },
    {
      "channel": 2,
      "note": 59,
      "start": 39.4528,
      "duration": 0.025,
      "velocity": 114,
      "chip": "ym2612"
    },
    {
      "channel": 3,
      "note": 61,
      "start": 39.4531,
      "duration": 0.0123,
      "velocity": 108,
      "chip": "ym2612"
    },
    {
      "channel": 4,
      "note": 68,
      "start": 39.4534,
      "duration": 0.0123,
      "velocity": 108,
      "chip": "ym2612"
    },
    {
      "channel": 0,
      "note": 107,
      "start": 39.4649,
      "duration": 0.0124,
      "velocity": 90,
      "chip": "ym2612"
    },
    {
      "channel": 1,
      "note": 104,
      "start": 39.4652,
      "duration": 0.0124,
      "velocity": 90,
      "chip": "ym2612"
    },
    {
      "channel": 3,
      "note": 64,
      "start": 39.4655,
      "duration": 0.0126,
      "velocity": 108,
      "chip": "ym2612"
    },
    {
      "channel": 4,
      "note": 68,
      "start": 39.4658,
      "duration": 0.0126,
      "velocity": 108,
      "chip": "ym2612"
    },
    {
      "channel": 0,
      "note": 105,
      "start": 39.4775,
      "duration": 0.0256,
      "velocity": 90,
      "chip": "ym2612"
    },
    {
      "channel": 1,
      "note": 100,
      "start": 39.4777,
      "duration": 0.0129,
      "velocity": 90,
      "chip": "ym2612"
    },
    {
      "channel": 2,
      "note": 61,
      "start": 39.478,
      "duration": 1.2485,
      "velocity": 114,
      "chip": "ym2612"
    },
    {
      "channel": 3,
      "note": 64,
      "start": 39.4782,
      "duration": 0.0127,
      "velocity": 108,
      "chip": "ym2612"
    },
    {
      "channel": 4,
      "note": 49,
      "start": 39.4785,
      "duration": 0.0127,
      "velocity": 108,
      "chip": "ym2612"
    },
    {
      "channel": 1,
      "note": 104,
      "start": 39.4907,
      "duration": 0.0126,
      "velocity": 90,
      "chip": "ym2612"
    },
    {
      "channel": 3,
      "note": 68,
      "start": 39.491,
      "duration": 0.0126,
      "velocity": 108,
      "chip": "ym2612"
    },
    {
      "channel": 4,
      "note": 49,
      "start": 39.4913,
      "duration": 0.0126,
      "velocity": 108,
      "chip": "ym2612"
    },
    {
      "channel": 0,
      "note": 104,
      "start": 39.5032,
      "duration": 0.0504,
      "velocity": 90,
      "chip": "ym2612"
    },
    {
      "channel": 1,
      "note": 107,
      "start": 39.5034,
      "duration": 0.0126,
      "velocity": 90,
      "chip": "ym2612"
    },
    {
      "channel": 3,
      "note": 68,
      "start": 39.5038,
      "duration": 0.0126,
      "velocity": 108,
      "chip": "ym2612"
    },
    {
      "channel": 4,
      "note": 52,
      "start": 39.504,
      "duration": 0.0127,
      "velocity": 108,
      "chip": "ym2612"
    },
    {
      "channel": 1,
      "note": 105,
      "start": 39.5162,
      "duration": 0.0254,
      "velocity": 90,
      "chip": "ym2612"
    },
    {
      "channel": 3,
      "note": 49,
      "start": 39.5166,
      "duration": 0.0126,
      "velocity": 108,
      "chip": "ym2612"
    },
    {
      "channel": 4,
      "note": 52,
      "start": 39.5168,
      "duration": 0.0126,
      "velocity": 108,
      "chip": "ym2612"
    },
    {
      "channel": 3,
      "note": 49,
      "start": 39.5293,
      "duration": 0.0127,
      "velocity": 108,
      "chip": "ym2612"
    },
    {
      "channel": 4,
      "note": 54,
      "start": 39.5295,
      "duration": 0.0126,
      "velocity": 108,
      "chip": "ym2612"
    },
    {
      "channel": 1,
      "note": 104,
      "start": 39.5417,
      "duration": 0.0716,
      "velocity": 90,
      "chip": "ym2612"
    },
    {
      "channel": 3,
      "note": 52,
      "start": 39.542,
      "duration": 0.012,
      "velocity": 108,
      "chip": "ym2612"
    },
    {
      "channel": 4,
      "note": 54,
      "start": 39.5423,
      "duration": 0.0119,
      "velocity": 108,
      "chip": "ym2612"
    },
    {
      "channel": 0,
      "note": 102,
      "start": 39.5537,
      "duration": 0.0256,
      "velocity": 90,
      "chip": "ym2612"
    },
    {
      "channel": 3,
      "note": 52,
      "start": 39.5541,
      "duration": 0.0122,
      "velocity": 108,
      "chip": "ym2612"
    },
    {
      "channel": 4,
      "note": 56,
      "start": 39.5544,
      "duration": 0.0122,
      "velocity": 108,
      "chip": "ym2612"
    },
    {
      "channel": 3,
      "note": 54,
      "start": 39.5665,
      "duration": 0.0132,
      "velocity": 108,
      "chip": "ym2612"
    },
    {
      "channel": 4,
      "note": 56,
      "start": 39.5667,
      "duration": 0.0132,
      "velocity": 108,
      "chip": "ym2612"
    },
    {
      "channel": 0,
      "note": 100,
      "start": 39.5795,
      "duration": 0.1642,
      "velocity": 90,
      "chip": "ym2612"
    },
    {
      "channel": 3,
      "note": 54,
      "start": 39.5799,
      "duration": 0.0338,
      "velocity": 108,
      "chip": "ym2612"
    },
    {
      "channel": 4,
      "note": 59,
      "start": 39.5801,
      "duration": 0.0338,
      "velocity": 108,
      "chip": "ym2612"
    },
    {
      "channel": 1,
      "note": 102,
      "start": 39.6135,
      "duration": 0.1181,
      "velocity": 90,
      "chip": "ym2612"
    },
    {
      "channel": 3,
      "note": 56,
      "start": 39.6138,
      "duration": 0.1048,
      "velocity": 108,
      "chip": "ym2612"
    },
    {
      "channel": 4,
      "note": 59,
      "start": 39.6141,
      "duration": 0.1048,
      "velocity": 108,
      "chip": "ym2612"
    },
    {
      "channel": 3,
      "note": 56,
      "start": 39.7188,
      "duration": 0.0132,
      "velocity": 108,
      "chip": "ym2612"
    },
    {
      "channel": 4,
      "note": 61,
      "start": 39.719,
      "duration": 0.0132,
      "velocity": 108,
      "chip": "ym2612"
    },
    {
      "channel": 1,
      "note": 100,
      "start": 39.7318,
      "duration": 0.2273,
      "velocity": 90,
      "chip": "ym2612"
    },
    {
      "channel": 3,
      "note": 59,
      "start": 39.7321,
      "duration": 0.012,
      "velocity": 108,
      "chip": "ym2612"
    },
    {
      "channel": 4,
      "note": 61,
      "start": 39.7324,
      "duration": 0.012,
      "velocity": 108,
      "chip": "ym2612"
    },
    {
      "channel": 0,
      "note": 99,
      "start": 39.7438,
      "duration": 0.2373,
      "velocity": 90,
      "chip": "ym2612"
    },
    {
      "channel": 3,
      "note": 59,
      "start": 39.7442,
      "duration": 0.0965,
      "velocity": 108,
      "chip": "ym2612"
    },
    {
      "channel": 4,
      "note": 64,
      "start": 39.7445,
      "duration": 0.0965,
      "velocity": 108,
      "chip": "ym2612"
    },
    {
      "channel": 3,
      "note": 61,
      "start": 39.8409,
      "duration": 0.105,
      "velocity": 108,
      "chip": "ym2612"
    },
    {
      "channel": 4,
      "note": 64,
      "start": 39.8412,
      "duration": 0.105,
      "velocity": 108,
      "chip": "ym2612"
    },
    {
      "channel": 3,
      "note": 61,
      "start": 39.9461,
      "duration": 0.0134,
      "velocity": 108,
      "chip": "ym2612"
    },
    {
      "channel": 4,
      "note": 68,
      "start": 39.9463,
      "duration": 0.0134,
      "velocity": 108,
      "chip": "ym2612"
    },
    {
      "channel": 1,
      "note": 99,
      "start": 39.9592,
      "duration": 0.0221,
      "velocity": 90,
      "chip": "ym2612"
    },
    {
      "channel": 3,
      "note": 64,
      "start": 39.9596,
      "duration": 0.0221,
      "velocity": 108,
      "chip": "ym2612"
    },
    {
      "channel": 4,
      "note": 68,
      "start": 39.9598,
      "duration": 0.0221,
      "velocity": 108,
      "chip": "ym2612"
    },
    {
      "channel": 0,
      "note": 97,
      "start": 39.9812,
      "duration": 77.8692,
      "velocity": 90,
      "chip": "ym2612"
    },
    {
      "channel": 1,
      "note": 85,
      "start": 39.9815,
      "duration": 77.869,
      "velocity": 90,
      "chip": "ym2612"
    },
    {
      "channel": 3,
      "note": 64,
      "start": 39.9818,
      "duration": 0.0359,
      "velocity": 108,
      "chip": "ym2612"
    },
    {
      "channel": 4,
      "note": 49,
      "start": 39.9821,
      "duration": 0.0359,
      "velocity": 108,
      "chip": "ym2612"
    },
    {
      "channel": 3,
      "note": 68,
      "start": 40.0178,
      "duration": 0.105,
      "velocity": 108,
      "chip": "ym2612"
    },
    {
      "channel": 4,
      "note": 49,
      "start": 40.0181,
      "duration": 0.105,
      "velocity": 108,
      "chip": "ym2612"
    },
    {
      "channel": 3,
      "note": 68,
      "start": 40.1229,
      "duration": 0.0129,
      "velocity": 108,
      "chip": "ym2612"
    },
    {
      "channel": 4,
      "note": 52,
      "start": 40.1232,
      "duration": 0.0129,
      "velocity": 108,
      "chip": "ym2612"
    },
    {
      "channel": 3,
      "note": 49,
      "start": 40.136,
      "duration": 0.012,
      "velocity": 108,
      "chip": "ym2612"
    },
    {
      "channel": 4,
      "note": 52,
      "start": 40.1363,
      "duration": 0.012,
      "velocity": 108,
      "chip": "ym2612"
    },
    {
      "channel": 3,
      "note": 49,
      "start": 40.1481,
      "duration": 0.0967,
      "velocity": 108,
      "chip": "ym2612"
    },
    {
      "channel": 4,
      "note": 54,
      "start": 40.1484,
      "duration": 0.0967,
      "velocity": 108,
      "chip": "ym2612"
    },
    {
      "channel": 3,
      "note": 52,
      "start": 40.245,
      "duration": 0.105,
      "velocity": 108,
      "chip": "ym2612"
    },
    {
      "channel": 4,
      "note": 54,
      "start": 40.2453,
      "duration": 0.105,
      "velocity": 108,
      "chip": "ym2612"
    },
    {
      "channel": 3,
      "note": 52,
      "start": 40.3501,
      "duration": 0.0132,
      "velocity": 108,
      "chip": "ym2612"
    },
    {
      "channel": 4,
      "note": 56,
      "start": 40.3504,
      "duration": 0.0132,
      "velocity": 108,
      "chip": "ym2612"
    },
    {
      "channel": 3,
      "note": 54,
      "start": 40.3634,
      "duration": 0.012,
      "velocity": 108,
      "chip": "ym2612"
    },
    {
      "channel": 4,
      "note": 56,
      "start": 40.3637,
      "duration": 0.012,
      "velocity": 108,
      "chip": "ym2612"
    },
    {
      "channel": 3,
      "note": 54,
      "start": 40.3756,
      "duration": 0.0357,
      "velocity": 108,
      "chip": "ym2612"
    },
    {
      "channel": 4,
      "note": 59,
      "start": 40.3758,
      "duration": 0.0357,
      "velocity": 108,
      "chip": "ym2612"
    },
    {
      "channel": 3,
      "note": 56,
      "start": 40.4114,
      "duration": 0.1051,
      "velocity": 108,
      "chip": "ym2612"
    },
    {
      "channel": 4,
      "note": 59,
      "start": 40.4117,
      "duration": 0.1051,
      "velocity": 108,
      "chip": "ym2612"
    },
    {
      "channel": 3,
      "note": 56,
      "start": 40.5167,
      "duration": 0.1048,
      "velocity": 108,
      "chip": "ym2612"
    },
    {
      "channel": 4,
      "note": 61,
      "start": 40.5169,
      "duration": 0.1049,
      "velocity": 108,
      "chip": "ym2612"
    },
    {
      "channel": 3,
      "note": 59,
      "start": 40.6216,
      "duration": 0.105,
      "velocity": 108,
      "chip": "ym2612"
    },
    {
      "channel": 4,
      "note": 61,
      "start": 40.6219,
      "duration": 0.105,
      "velocity": 108,
      "chip": "ym2612"
    },
    {
      "channel": 3,
      "note": 59,
      "start": 40.7268,
      "duration": 0.105,
      "velocity": 108,
      "chip": "ym2612"
    },
    {
      "channel": 4,
      "note": 64,
      "start": 40.7271,
      "duration": 0.105,
      "velocity": 108,
      "chip": "ym2612"
    },
    {
      "channel": 3,
      "note": 61,
      "start": 40.8319,
      "duration": 0.105,
      "velocity": 108,
      "chip": "ym2612"
    },
    {
      "channel": 4,
      "note": 64,
      "start": 40.8322,
      "duration": 0.105,
      "velocity": 108,
      "chip": "ym2612"
    },
    {
      "channel": 3,
      "note": 61,
      "start": 40.937,
      "duration": 0.105,
      "velocity": 108,
      "chip": "ym2612"
    },
    {
      "channel": 4,
      "note": 68,
      "start": 40.9373,
      "duration": 0.105,
      "velocity": 108,
      "chip": "ym2612"
    },
    {
      "channel": 3,
      "note": 64,
      "start": 41.0422,
      "duration": 0.1052,
      "velocity": 108,
      "chip": "ym2612"
    },
    {
      "channel": 4,
      "note": 68,
      "start": 41.0424,
      "duration": 0.1052,
      "velocity": 108,
      "chip": "ym2612"
    },
    {
      "channel": 3,
      "note": 64,
      "start": 41.1475,
      "duration": 0.0129,
      "velocity": 108,
      "chip": "ym2612"
    },
    {
      "channel": 4,
      "note": 49,
      "start": 41.1478,
      "duration": 0.0128,
      "velocity": 108,
      "chip": "ym2612"
    },
    {
      "channel": 3,
      "note": 68,
      "start": 41.1605,
      "duration": 0.012,
      "velocity": 108,
      "chip": "ym2612"
    },
    {
      "channel": 4,
      "note": 49,
      "start": 41.1607,
      "duration": 0.012,
      "velocity": 108,
      "chip": "ym2612"
    },
    {
      "channel": 3,
      "note": 68,
      "start": 41.1726,
      "duration": 0.0118,
      "velocity": 108,
      "chip": "ym2612"
    },
    {
      "channel": 4,
      "note": 52,
      "start": 41.1729,
      "duration": 0.0118,
      "velocity": 108,
      "chip": "ym2612"
    },
    {
      "channel": 3,
      "note": 49,
      "start": 41.1845,
      "duration": 0.012,
      "velocity": 108,
      "chip": "ym2612"
    },
    {
      "channel": 4,
      "note": 52,
      "start": 41.1848,
      "duration": 0.0119,
      "velocity": 108,
      "chip": "ym2612"
    },
    {
      "channel": 3,
      "note": 49,
      "start": 41.1966,
      "duration": 0.0121,
      "velocity": 108,
      "chip": "ym2612"
    },
    {
      "channel": 4,
      "note": 54,
      "start": 41.1969,
      "duration": 0.0121,
      "velocity": 108,
      "chip": "ym2612"
    },
    {
      "channel": 3,
      "note": 52,
      "start": 41.2089,
      "duration": 0.0117,
      "velocity": 108,
      "chip": "ym2612"
    },
    {
      "channel": 4,
      "note": 54,
      "start": 41.2091,
      "duration": 0.0117,
      "velocity": 108,
      "chip": "ym2612"
    },
    {
      "channel": 3,
      "note": 52,
      "start": 41.2207,
      "duration": 0.0121,
      "velocity": 108,
      "chip": "ym2612"
    },
    {
      "channel": 4,
      "note": 56,
      "start": 41.221,
      "duration": 0.012,
      "velocity": 108,
      "chip": "ym2612"
    },
    {
      "channel": 3,
      "note": 54,
      "start": 41.2329,
      "duration": 0.0131,
      "velocity": 108,
      "chip": "ym2612"
    },
    {
      "channel": 4,
      "note": 56,
      "start": 41.2332,
      "duration": 0.0131,
      "velocity": 108,
      "chip": "ym2612"
    },
    {
      "channel": 3,
      "note": 54,
      "start": 41.2462,
      "duration": 0.0119,
      "velocity": 108,
      "chip": "ym2612"
    },
    {
      "channel": 4,
      "note": 59,
      "start": 41.2465,
      "duration": 0.0119,
      "velocity": 108,
      "chip": "ym2612"
    },
    {
      "channel": 3,
      "note": 56,
      "start": 41.2582,
      "duration": 0.0118,
      "velocity": 108,
      "chip": "ym2612"
    },
    {
      "channel": 4,
      "note": 59,
      "start": 41.2585,
      "duration": 0.0118,
      "velocity": 108,
      "chip": "ym2612"
    },
    {
      "channel": 3,
      "note": 56,
      "start": 41.2701,
      "duration": 0.0119,
      "velocity": 108,
      "chip": "ym2612"
    },
    {
      "channel": 4,
      "note": 61,
      "start": 41.2704,
      "duration": 0.0119,
      "velocity": 108,
      "chip": "ym2612"
    },
    {
      "channel": 3,
      "note": 59,
      "start": 41.2822,
      "duration": 0.012,
      "velocity": 108,
      "chip": "ym2612"
    },
    {
      "channel": 4,
      "note": 61,
      "start": 41.2825,
      "duration": 0.012,
      "velocity": 108,
      "chip": "ym2612"
    },
    {
      "channel": 3,
      "note": 59,
      "start": 41.2943,
      "duration": 0.0121,
      "velocity": 108,
      "chip": "ym2612"
    },
    {
      "channel": 4,
      "note": 64,
      "start": 41.2946,
      "duration": 0.012,
      "velocity": 108,
      "chip": "ym2612"
    },
    {
      "channel": 3,
      "note": 61,
      "start": 41.3065,
      "duration": 0.0117,
      "velocity": 108,
      "chip": "ym2612"
    },
    {
      "channel": 4,
      "note": 64,
      "start": 41.3068,
      "duration": 0.0117,
      "velocity": 108,
      "chip": "ym2612"
    },
    {
      "channel": 3,
      "note": 61,
      "start": 41.3184,
      "duration": 0.0937,
      "velocity": 108,
      "chip": "ym2612"
    },
    {
      "channel": 4,
      "note": 68,
      "start": 41.3186,
      "duration": 0.0937,
      "velocity": 108,
      "chip": "ym2612"
    },
    {
      "channel": 3,
      "note": 64,
      "start": 41.4122,
      "duration": 0.1052,
      "velocity": 108,
      "chip": "ym2612"
    },
    {
      "channel": 4,
      "note": 68,
      "start": 41.4124,
      "duration": 0.1052,
      "velocity": 108,
      "chip": "ym2612"
    },
    {
      "channel": 3,
      "note": 64,
      "start": 41.5175,
      "duration": 0.0129,
      "velocity": 108,
      "chip": "ym2612"
    },
    {
      "channel": 4,
      "note": 49,
      "start": 41.5178,
      "duration": 0.0129,
      "velocity": 108,
      "chip": "ym2612"
    },
    {
      "channel": 3,
      "note": 68,
      "start": 41.5306,
      "duration": 0.012,
      "velocity": 108,
      "chip": "ym2612"
    },
    {
      "channel": 4,
      "note": 49,
      "start": 41.5309,
      "duration": 0.012,
      "velocity": 108,
      "chip": "ym2612"
    },
    {
      "channel": 3,
      "note": 68,
      "start": 41.5427,
      "duration": 0.012,
      "velocity": 108,
      "chip": "ym2612"
    },
    {
      "channel": 4,
      "note": 52,
      "start": 41.543,
      "duration": 0.012,
      "velocity": 108,
      "chip": "ym2612"
    },
    {
      "channel": 3,
      "note": 49,
      "start": 41.5549,
      "duration": 0.0119,
      "velocity": 108,
      "chip": "ym2612"
    },
    {
      "channel": 4,
      "note": 52,
      "start": 41.5552,
      "duration": 0.0119,
      "velocity": 108,
      "chip": "ym2612"
    },
    {
      "channel": 3,
      "note": 49,
      "start": 41.567,
      "duration": 0.0121,
      "velocity": 108,
      "chip": "ym2612"
    },
    {
      "channel": 4,
      "note": 54,
      "start": 41.5673,
      "duration": 0.0121,
      "velocity": 108,
      "chip": "ym2612"
    },
    {
      "channel": 3,
      "note": 52,
      "start": 41.5792,
      "duration": 0.0119,
      "velocity": 108,
      "chip": "ym2612"
    },
    {
      "channel": 4,
      "note": 54,
      "start": 41.5795,
      "duration": 0.0119,
      "velocity": 108,
      "chip": "ym2612"
    },
    {
      "channel": 3,
      "note": 52,
      "start": 41.5912,
      "duration": 0.0119,
      "velocity": 108,
      "chip": "ym2612"
    },
    {
      "channel": 4,
      "note": 56,
      "start": 41.5915,
      "duration": 0.0119,
      "velocity": 108,
      "chip": "ym2612"
    },
    {
      "channel": 3,
      "note": 54,
      "start": 41.6032,
      "duration": 0.013,
      "velocity": 108,
      "chip": "ym2612"
    },
    {
      "channel": 4,
      "note": 56,
      "start": 41.6035,
      "duration": 0.013,
      "velocity": 108,
      "chip": "ym2612"
    },
    {
      "channel": 3,
      "note": 54,
      "start": 41.6164,
      "duration": 0.0118,
      "velocity": 108,
      "chip": "ym2612"
    },
    {
      "channel": 4,
      "note": 59,
      "start": 41.6166,
      "duration": 0.0118,
      "velocity": 108,
      "chip": "ym2612"
    },
    {
      "channel": 3,
      "note": 56,
      "start": 41.6283,
      "duration": 0.012,
      "velocity": 108,
      "chip": "ym2612"
    },
    {
      "channel": 4,
      "note": 59,
      "start": 41.6286,
      "duration": 0.012,
      "velocity": 108,
      "chip": "ym2612"
    },
    {
      "channel": 3,
      "note": 56,
      "start": 41.6405,
      "duration": 0.0118,
      "velocity": 108,
      "chip": "ym2612"
    },
    {
      "channel": 4,
      "note": 61,
      "start": 41.6407,
      "duration": 0.0118,
      "velocity": 108,
      "chip": "ym2612"
    },
    {
      "channel": 3,
      "note": 59,
      "start": 41.6524,
      "duration": 0.0121,
      "velocity": 108,
      "chip": "ym2612"
    },
    {
      "channel": 4,
      "note": 61,
      "start": 41.6527,
      "duration": 0.0121,
      "velocity": 108,
      "chip": "ym2612"
    },
    {
      "channel": 3,
      "note": 59,
      "start": 41.6646,
      "duration": 0.0119,
      "velocity": 108,
      "chip": "ym2612"
    },
    {
      "channel": 4,
      "note": 64,
      "start": 41.6649,
      "duration": 0.0119,
      "velocity": 108,
      "chip": "ym2612"
    },
    {
      "channel": 3,
      "note": 61,
      "start": 41.6767,
      "duration": 0.0117,
      "velocity": 108,
      "chip": "ym2612"
    },
    {
      "channel": 4,
      "note": 64,
      "start": 41.677,
      "duration": 0.0117,
      "velocity": 108,
      "chip": "ym2612"
    },
    {
      "channel": 3,
      "note": 61,
      "start": 41.6886,
      "duration": 0.043,
      "velocity": 108,
      "chip": "ym2612"
    },
    {
      "channel": 4,
      "note": 68,
      "start": 41.6888,
      "duration": 0.043,
      "velocity": 108,
      "chip": "ym2612"
    },
    {
      "channel": 3,
      "note": 64,
      "start": 41.7317,
      "duration": 0.1054,
      "velocity": 108,
      "chip": "ym2612"
    },
    {
      "channel": 4,
      "note": 68,
      "start": 41.7319,
      "duration": 0.1054,
      "velocity": 108,
      "chip": "ym2612"
    },
    {
      "channel": 2,
      "note": 49,
      "start": 41.8369,
      "duration": 0.0135,
      "velocity": 114,
      "chip": "ym2612"
    },
    {
      "channel": 3,
      "note": 64,
      "start": 41.8372,
      "duration": 0.0134,
      "velocity": 108,
      "chip": "ym2612"
    },
    {
      "channel": 4,
      "note": 49,
      "start": 41.8375,
      "duration": 0.0134,
      "velocity": 108,
      "chip": "ym2612"
    },
    {
      "channel": 3,
      "note": 68,
      "start": 41.8507,
      "duration": 0.0122,
      "velocity": 108,
      "chip": "ym2612"
    },
    {
      "channel": 4,
      "note": 49,
      "start": 41.851,
      "duration": 0.0122,
      "velocity": 108,
      "chip": "ym2612"
    },
    {
      "channel": 2,
      "note": 49,
      "start": 41.8628,
      "duration": 0.0118,
      "velocity": 114,
      "chip": "ym2612"
    },
    {
      "channel": 3,
      "note": 68,
      "start": 41.863,
      "duration": 0.0117,
      "velocity": 108,
      "chip": "ym2612"
    },
    {
      "channel": 4,
      "note": 52,
      "start": 41.8633,
      "duration": 0.0117,
      "velocity": 108,
      "chip": "ym2612"
    },
    {
      "channel": 3,
      "note": 49,
      "start": 41.8749,
      "duration": 0.0123,
      "velocity": 108,
      "chip": "ym2612"
    },
    {
      "channel": 4,
      "note": 52,
      "start": 41.8752,
      "duration": 0.0123,
      "velocity": 108,
      "chip": "ym2612"
    },
    {
      "channel": 2,
      "note": 49,
      "start": 41.8871,
      "duration": 0.4663,
      "velocity": 114,
      "chip": "ym2612"
    },
    {
      "channel": 3,
      "note": 49,
      "start": 41.8874,
      "duration": 0.012,
      "velocity": 108,
      "chip": "ym2612"
    },
    {
      "channel": 4,
      "note": 54,
      "start": 41.8876,
      "duration": 0.012,
      "velocity": 108,
      "chip": "ym2612"
    },
    {
      "channel": 3,
      "note": 52,
      "start": 41.8995,
      "duration": 0.0116,
      "velocity": 108,
      "chip": "ym2612"
    },
    {
      "channel": 4,
      "note": 54,
      "start": 41.8998,
      "duration": 0.0116,
      "velocity": 108,
      "chip": "ym2612"
    },
    {
      "channel": 3,
      "note": 52,
      "start": 41.9112,
      "duration": 0.0122,
      "velocity": 108,
      "chip": "ym2612"
    },
    {
      "channel": 4,
      "note": 56,
      "start": 41.9115,
      "duration": 0.0122,
      "velocity": 108,
      "chip": "ym2612"
    },
    {
      "channel": 3,
      "note": 54,
      "start": 41.9235,
      "duration": 0.0118,
      "velocity": 108,
      "chip": "ym2612"
    },
    {
      "channel": 4,
      "note": 56,
      "start": 41.9238,
      "duration": 0.0118,
      "velocity": 108,
      "chip": "ym2612"
    },
    {
      "channel": 3,
      "note": 54,
      "start": 41.9355,
      "duration": 0.0129,
      "velocity": 108,
      "chip": "ym2612"
    },
    {
      "channel": 4,
      "note": 59,
      "start": 41.9357,
      "duration": 0.0129,
      "velocity": 108,
      "chip": "ym2612"
    },
    {
      "channel": 3,
      "note": 56,
      "start": 41.9485,
      "duration": 0.0118,
      "velocity": 108,
      "chip": "ym2612"
    },
    {
      "channel": 4,
      "note": 59,
      "start": 41.9488,
      "duration": 0.0118,
      "velocity": 108,
      "chip": "ym2612"
    },
    {
      "channel": 3,
      "note": 56,
      "start": 41.9605,
      "duration": 0.0118,
      "velocity": 108,
      "chip": "ym2612"
    },
    {
      "channel": 4,
      "note": 61,
      "start": 41.9608,
      "duration": 0.0118,
      "velocity": 108,
      "chip": "ym2612"
    },
    {
      "channel": 3,
      "note": 59,
      "start": 41.9725,
      "duration": 0.0119,
      "velocity": 108,
      "chip": "ym2612"
    },
    {
      "channel": 4,
      "note": 61,
      "start": 41.9727,
      "duration": 0.0119,
      "velocity": 108,
      "chip": "ym2612"
    },
    {
      "channel": 3,
      "note": 59,
      "start": 41.9845,
      "duration": 0.0123,
      "velocity": 108,
      "chip": "ym2612"
    },
    {
      "channel": 4,
      "note": 64,
      "start": 41.9848,
      "duration": 0.0123,
      "velocity": 108,
      "chip": "ym2612"
    },
    {
      "channel": 3,
      "note": 61,
      "start": 41.997,
      "duration": 0.0117,
      "velocity": 108,
      "chip": "ym2612"
    },
    {
      "channel": 4,
      "note": 64,
      "start": 41.9972,
      "duration": 0.0117,
      "velocity": 108,
      "chip": "ym2612"
    },
    {
      "channel": 3,
      "note": 61,
      "start": 42.0088,
      "duration": 0.0925,
      "velocity": 108,
      "chip": "ym2612"
    },
    {
      "channel": 4,
      "note": 68,
      "start": 42.009,
      "duration": 0.0925,
      "velocity": 108,
      "chip": "ym2612"
    },
    {
      "channel": 3,
      "note": 64,
      "start": 42.1014,
      "duration": 0.105,
      "velocity": 108,
      "chip": "ym2612"
    },
    {
      "channel": 4,
      "note": 68,
      "start": 42.1017,
      "duration": 0.105,
      "velocity": 108,
      "chip": "ym2612"
    },
    {
      "channel": 3,
      "note": 64,
      "start": 42.2065,
      "duration": 0.013,
      "velocity": 108,
      "chip": "ym2612"
    },
    {
      "channel": 4,
      "note": 49,
      "start": 42.2068,
      "duration": 0.013,
      "velocity": 108,
      "chip": "ym2612"
    },
    {
      "channel": 3,
      "note": 68,
      "start": 42.2197,
      "duration": 0.0119,
      "velocity": 108,
      "chip": "ym2612"
    },
    {
      "channel": 4,
      "note": 49,
      "start": 42.2199,
      "duration": 0.0119,
      "velocity": 108,
      "chip": "ym2612"
    },
    {
      "channel": 3,
      "note": 68,
      "start": 42.2317,
      "duration": 0.0121,
      "velocity": 108,
      "chip": "ym2612"
    },
    {
      "channel": 4,
      "note": 52,
      "start": 42.232,
      "duration": 0.0121,
      "velocity": 108,
      "chip": "ym2612"
    },
    {
      "channel": 3,
      "note": 49,
      "start": 42.2439,
      "duration": 0.012,
      "velocity": 108,
      "chip": "ym2612"
    },
    {
      "channel": 4,
      "note": 52,
      "start": 42.2442,
      "duration": 0.012,
      "velocity": 108,
      "chip": "ym2612"
    },
    {
      "channel": 3,
      "note": 49,
      "start": 42.2561,
      "duration": 0.012,
      "velocity": 108,
      "chip": "ym2612"
    },
    {
      "channel": 4,
      "note": 54,
      "start": 42.2564,
      "duration": 0.012,
      "velocity": 108,
      "chip": "ym2612"
    },
    {
      "channel": 3,
      "note": 52,
      "start": 42.2682,
      "duration": 0.0118,
      "velocity": 108,
      "chip": "ym2612"
    },
    {
      "channel": 4,
      "note": 54,
      "start": 42.2685,
      "duration": 0.0119,
      "velocity": 108,
      "chip": "ym2612"
    },
    {
      "channel": 3,
      "note": 52,
      "start": 42.2802,
      "duration": 0.0119,
      "velocity": 108,
      "chip": "ym2612"
    },
    {
      "channel": 4,
      "note": 56,
      "start": 42.2805,
      "duration": 0.0119,
      "velocity": 108,
      "chip": "ym2612"
    },
    {
      "channel": 3,
      "note": 54,
      "start": 42.2922,
      "duration": 0.0131,
      "velocity": 108,
      "chip": "ym2612"
    },
    {
      "channel": 4,
      "note": 56,
      "start": 42.2925,
      "duration": 0.0131,
      "velocity": 108,
      "chip": "ym2612"
    },
    {
      "channel": 3,
      "note": 54,
      "start": 42.3055,
      "duration": 0.012,
      "velocity": 108,
      "chip": "ym2612"
    },
    {
      "channel": 4,
      "note": 59,
      "start": 42.3058,
      "duration": 0.012,
      "velocity": 108,
      "chip": "ym2612"
    },
    {
      "channel": 3,
      "note": 56,
      "start": 42.3176,
      "duration": 0.0118,
      "velocity": 108,
      "chip": "ym2612"
    },
    {
      "channel": 4,
      "note": 59,
      "start": 42.3179,
      "duration": 0.0118,
      "velocity": 108,
      "chip": "ym2612"
    },
    {
      "channel": 3,
      "note": 56,
      "start": 42.3296,
      "duration": 0.0117,
      "velocity": 108,
      "chip": "ym2612"
    },
    {
      "channel": 4,
      "note": 61,
      "start": 42.3299,
      "duration": 0.0117,
      "velocity": 108,
      "chip": "ym2612"
    },
    {
      "channel": 3,
      "note": 59,
      "start": 42.3415,
      "duration": 0.0121,
      "velocity": 108,
      "chip": "ym2612"
    },
    {
      "channel": 4,
      "note": 61,
      "start": 42.3418,
      "duration": 0.0121,
      "velocity": 108,
      "chip": "ym2612"
    },
    {
      "channel": 3,
      "note": 59,
      "start": 42.3537,
      "duration": 0.012,
      "velocity": 108,
      "chip": "ym2612"
    },
    {
      "channel": 4,
      "note": 64,
      "start": 42.354,
      "duration": 0.012,
      "velocity": 108,
      "chip": "ym2612"
    },
    {
      "channel": 3,
      "note": 61,
      "start": 42.3658,
      "duration": 0.0117,
      "velocity": 108,
      "chip": "ym2612"
    },
    {
      "channel": 4,
      "note": 64,
      "start": 42.3661,
      "duration": 0.0117,
      "velocity": 108,
      "chip": "ym2612"
    },
    {
      "channel": 3,
      "note": 61,
      "start": 42.3776,
      "duration": 0.0935,
      "velocity": 108,
      "chip": "ym2612"
    },
    {
      "channel": 4,
      "note": 68,
      "start": 42.3779,
      "duration": 0.0935,
      "velocity": 108,
      "chip": "ym2612"
    },
    {
      "channel": 3,
      "note": 64,
      "start": 42.4712,
      "duration": 75.3792,
      "velocity": 108,
      "chip": "ym2612"
    },
    {
      "channel": 4,
      "note": 68,
      "start": 42.4715,
      "duration": 75.3789,
      "velocity": 108,
      "chip": "ym2612"
    }
  ]
}