{
  "track_name": "01 - Title ~ Staff Roll",
  "duration_sec": 94.818,
  "sample_rate": 44100,
  "note_count": 1866,
  "unique_pitches": 41,
  "pitch_range": 57,
  "avg_note_duration": 0.2448,
  "reconstruction_stats": {
    "notes_reconstructed": 1866,
    "keyon_events": 1866,
    "keyoff_events": 1861,
    "orphan_keyons": 5,
    "unique_pitches": 41,
    "pitch_range": 57,
    "avg_duration_sec": 0.2448
  },
  "metadata": {
    "source": "J\\Jungle Strike\\01 - Title ~ Staff Roll.vgz"
  },
  "notes": [
    {
      "channel": 1,
      "note": 45,
      "start": 0.0432,
      "duration": 2.725,
      "velocity": 111,
      "chip": "ym2612"
    },
    {
      "channel": 3,
      "note": 57,
      "start": 0.0537,
      "duration": 0.1315,
      "velocity": 88,
      "chip": "ym2612"
    },
    {
      "channel": 3,
      "note": 45,
      "start": 0.1858,
      "duration": 0.1718,
      "velocity": 88,
      "chip": "ym2612"
    },
    {
      "channel": 3,
      "note": 45,
      "start": 0.3582,
      "duration": 0.1687,
      "velocity": 88,
      "chip": "ym2612"
    },
    {
      "channel": 3,
      "note": 45,
      "start": 0.5276,
      "duration": 0.1718,
      "velocity": 88,
      "chip": "ym2612"
    },
    {
      "channel": 3,
      "note": 57,
      "start": 0.7,
      "duration": 0.1718,
      "velocity": 88,
      "chip": "ym2612"
    },
    {
      "channel": 3,
      "note": 45,
      "start": 0.8725,
      "duration": 0.1749,
      "velocity": 88,
      "chip": "ym2612"
    },
    {
      "channel": 3,
      "note": 45,
      "start": 1.048,
      "duration": 0.1656,
      "velocity": 88,
      "chip": "ym2612"
    },
    {
      "channel": 3,
      "note": 45,
      "start": 1.2143,
      "duration": 0.1749,
      "velocity": 88,
      "chip": "ym2612"
    },
    {
      "channel": 3,
      "note": 45,
      "start": 1.3898,
      "duration": 0.1719,
      "velocity": 88,
      "chip": "ym2612"
    },
    {
      "channel": 3,
      "note": 57,
      "start": 1.5622,
      "duration": 0.1688,
      "velocity": 88,
      "chip": "ym2612"
    },
    {
      "channel": 3,
      "note": 45,
      "start": 1.7316,
      "duration": 0.1719,
      "velocity": 88,
      "chip": "ym2612"
    },
    {
      "channel": 3,
      "note": 45,
      "start": 1.9041,
      "duration": 0.1719,
      "velocity": 88,
      "chip": "ym2612"
    },
    {
      "channel": 3,
      "note": 57,
      "start": 2.0766,
      "duration": 0.1718,
      "velocity": 88,
      "chip": "ym2612"
    },
    {
      "channel": 3,
      "note": 45,
      "start": 2.2491,
      "duration": 0.1686,
      "velocity": 88,
      "chip": "ym2612"
    },
    {
      "channel": 3,
      "note": 57,
      "start": 2.4183,
      "duration": 0.1749,
      "velocity": 88,
      "chip": "ym2612"
    },
    {
      "channel": 3,
      "note": 45,
      "start": 2.5939,
      "duration": 0.1859,
      "velocity": 88,
      "chip": "ym2612"
    },
    {
      "channel": 1,
      "note": 45,
      "start": 2.7688,
      "duration": 2.7499,
      "velocity": 111,
      "chip": "ym2612"
    },
    {
      "channel": 3,
      "note": 57,
      "start": 2.7805,
      "duration": 0.1532,
      "velocity": 88,
      "chip": "ym2612"
    },
    {
      "channel": 3,
      "note": 45,
      "start": 2.9344,
      "duration": 0.1718,
      "velocity": 88,
      "chip": "ym2612"
    },
    {
      "channel": 3,
      "note": 45,
      "start": 3.1068,
      "duration": 0.1748,
      "velocity": 88,
      "chip": "ym2612"
    },
    {
      "channel": 3,
      "note": 45,
      "start": 3.2823,
      "duration": 0.1719,
      "velocity": 88,
      "chip": "ym2612"
    },
    {
      "channel": 3,
      "note": 57,
      "start": 3.4547,
      "duration": 0.1688,
      "velocity": 88,
      "chip": "ym2612"
    },
    {
      "channel": 3,
      "note": 45,
      "start": 3.6241,
      "duration": 0.1719,
      "velocity": 88,
      "chip": "ym2612"
    },
    {
      "channel": 3,
      "note": 45,
      "start": 3.7966,
      "duration": 0.1719,
      "velocity": 88,
      "chip": "ym2612"
    },
    {
      "channel": 3,
      "note": 45,
      "start": 3.9691,
      "duration": 0.1719,
      "velocity": 88,
      "chip": "ym2612"
    },
    {
      "channel": 3,
      "note": 45,
      "start": 4.1416,
      "duration": 0.1687,
      "velocity": 88,
      "chip": "ym2612"
    },
    {
      "channel": 3,
      "note": 57,
      "start": 4.3109,
      "duration": 0.1719,
      "velocity": 88,
      "chip": "ym2612"
    },
    {
      "channel": 3,
      "note": 45,
      "start": 4.4834,
      "duration": 0.1749,
      "velocity": 88,
      "chip": "ym2612"
    },
    {
      "channel": 3,
      "note": 45,
      "start": 4.6589,
      "duration": 0.1687,
      "velocity": 88,
      "chip": "ym2612"
    },
    {
      "channel": 3,
      "note": 57,
      "start": 4.8283,
      "duration": 0.1718,
      "velocity": 88,
      "chip": "ym2612"
    },
    {
      "channel": 3,
      "note": 45,
      "start": 5.0007,
      "duration": 0.1718,
      "velocity": 88,
      "chip": "ym2612"
    },
    {
      "channel": 3,
      "note": 57,
      "start": 5.1732,
      "duration": 0.1718,
      "velocity": 88,
      "chip": "ym2612"
    },
    {
      "channel": 3,
      "note": 45,
      "start": 5.3456,
      "duration": 0.1856,
      "velocity": 88,
      "chip": "ym2612"
    },
    {
      "channel": 1,
      "note": 45,
      "start": 5.5193,
      "duration": 2.7527,
      "velocity": 111,
      "chip": "ym2612"
    },
    {
      "channel": 3,
      "note": 57,
      "start": 5.5319,
      "duration": 0.1564,
      "velocity": 88,
      "chip": "ym2612"
    },
    {
      "channel": 3,
      "note": 45,
      "start": 5.6888,
      "duration": 0.1719,
      "velocity": 88,
      "chip": "ym2612"
    },
    {
      "channel": 3,
      "note": 45,
      "start": 5.8613,
      "duration": 0.1688,
      "velocity": 88,
      "chip": "ym2612"
    },
    {
      "channel": 3,
      "note": 45,
      "start": 6.0306,
      "duration": 0.1719,
      "velocity": 88,
      "chip": "ym2612"
    },
    {
      "channel": 3,
      "note": 57,
      "start": 6.2031,
      "duration": 0.1749,
      "velocity": 88,
      "chip": "ym2612"
    },
    {
      "channel": 3,
      "note": 45,
      "start": 6.3786,
      "duration": 0.1718,
      "velocity": 88,
      "chip": "ym2612"
    },
    {
      "channel": 3,
      "note": 45,
      "start": 6.5511,
      "duration": 0.1687,
      "velocity": 88,
      "chip": "ym2612"
    },
    {
      "channel": 3,
      "note": 45,
      "start": 6.7204,
      "duration": 0.1727,
      "velocity": 88,
      "chip": "ym2612"
    },
    {
      "channel": 3,
      "note": 45,
      "start": 6.8937,
      "duration": 0.1743,
      "velocity": 88,
      "chip": "ym2612"
    },
    {
      "channel": 5,
      "note": 66,
      "start": 6.8977,
      "duration": 0.0134,
      "velocity": 127,
      "chip": "ym2612"
    },
    {
      "channel": 5,
      "note": 66,
      "start": 6.9823,
      "duration": 0.0104,
      "velocity": 127,
      "chip": "ym2612"
    },
    {
      "channel": 5,
      "note": 66,
      "start": 7.0659,
      "duration": 0.0122,
      "velocity": 127,
      "chip": "ym2612"
    },
    {
      "channel": 3,
      "note": 57,
      "start": 7.0686,
      "duration": 0.1707,
      "velocity": 88,
      "chip": "ym2612"
    },
    {
      "channel": 5,
      "note": 66,
      "start": 7.1512,
      "duration": 0.0164,
      "velocity": 127,
      "chip": "ym2612"
    },
    {
      "channel": 3,
      "note": 45,
      "start": 7.2399,
      "duration": 0.1688,
      "velocity": 88,
      "chip": "ym2612"
    },
    {
      "channel": 5,
      "note": 66,
      "start": 7.2477,
      "duration": 0.0041,
      "velocity": 127,
      "chip": "ym2612"
    },
    {
      "channel": 5,
      "note": 66,
      "start": 7.3262,
      "duration": 0.0134,
      "velocity": 127,
      "chip": "ym2612"
    },
    {
      "channel": 5,
      "note": 66,
      "start": 7.4066,
      "duration": 0.0183,
      "velocity": 127,
      "chip": "ym2612"
    },
    {
      "channel": 3,
      "note": 45,
      "start": 7.4093,
      "duration": 0.1737,
      "velocity": 88,
      "chip": "ym2612"
    },
    {
      "channel": 5,
      "note": 66,
      "start": 7.4949,
      "duration": 0.0165,
      "velocity": 127,
      "chip": "ym2612"
    },
    {
      "channel": 3,
      "note": 57,
      "start": 7.5836,
      "duration": 0.172,
      "velocity": 88,
      "chip": "ym2612"
    },
    {
      "channel": 5,
      "note": 66,
      "start": 7.5915,
      "duration": 0.0073,
      "velocity": 127,
      "chip": "ym2612"
    },
    {
      "channel": 5,
      "note": 66,
      "start": 7.6731,
      "duration": 0.0073,
      "velocity": 127,
      "chip": "ym2612"
    },
    {
      "channel": 5,
      "note": 66,
      "start": 7.7534,
      "duration": 0.0152,
      "velocity": 127,
      "chip": "ym2612"
    },
    {
      "channel": 3,
      "note": 45,
      "start": 7.7562,
      "duration": 0.1675,
      "velocity": 88,
      "chip": "ym2612"
    },
    {
      "channel": 5,
      "note": 66,
      "start": 7.8417,
      "duration": 0.0134,
      "velocity": 127,
      "chip": "ym2612"
    },
    {
      "channel": 3,
      "note": 57,
      "start": 7.9243,
      "duration": 0.1701,
      "velocity": 88,
      "chip": "ym2612"
    },
    {
      "channel": 5,
      "note": 66,
      "start": 7.9322,
      "duration": 0.0103,
      "velocity": 127,
      "chip": "ym2612"
    },
    {
      "channel": 5,
      "note": 66,
      "start": 8.0138,
      "duration": 0.0134,
      "velocity": 127,
      "chip": "ym2612"
    },
    {
      "channel": 3,
      "note": 45,
      "start": 8.0951,
      "duration": 0.1922,
      "velocity": 88,
      "chip": "ym2612"
    },
    {
      "channel": 5,
      "note": 66,
      "start": 8.099,
      "duration": 0.0165,
      "velocity": 127,
      "chip": "ym2612"
    },
    {
      "channel": 5,
      "note": 66,
      "start": 8.1825,
      "duration": 0.0196,
      "velocity": 127,
      "chip": "ym2612"
    },
    {
      "channel": 1,
      "note": 45,
      "start": 8.2727,
      "duration": 2.7469,
      "velocity": 111,
      "chip": "ym2612"
    },
    {
      "channel": 5,
      "note": 66,
      "start": 8.2803,
      "duration": 0.0048,
      "velocity": 127,
      "chip": "ym2612"
    },
    {
      "channel": 3,
      "note": 57,
      "start": 8.2879,
      "duration": 0.156,
      "velocity": 88,
      "chip": "ym2612"
    },
    {
      "channel": 5,
      "note": 66,
      "start": 8.3614,
      "duration": 0.0072,
      "velocity": 127,
      "chip": "ym2612"
    },
    {
      "channel": 5,
      "note": 66,
      "start": 8.4417,
      "duration": 0.0151,
      "velocity": 127,
      "chip": "ym2612"
    },
    {
      "channel": 3,
      "note": 45,
      "start": 8.4444,
      "duration": 0.1675,
      "velocity": 88,
      "chip": "ym2612"
    },
    {
      "channel": 5,
      "note": 66,
      "start": 8.5238,
      "duration": 0.0196,
      "velocity": 127,
      "chip": "ym2612"
    },
    {
      "channel": 3,
      "note": 45,
      "start": 8.6126,
      "duration": 0.1751,
      "velocity": 88,
      "chip": "ym2612"
    },
    {
      "channel": 5,
      "note": 66,
      "start": 8.6204,
      "duration": 0.0102,
      "velocity": 127,
      "chip": "ym2612"
    },
    {
      "channel": 5,
      "note": 66,
      "start": 8.7021,
      "duration": 0.0134,
      "velocity": 127,
      "chip": "ym2612"
    },
    {
      "channel": 5,
      "note": 66,
      "start": 8.7854,
      "duration": 0.0183,
      "velocity": 127,
      "chip": "ym2612"
    },
    {
      "channel": 3,
      "note": 45,
      "start": 8.7883,
      "duration": 0.1705,
      "velocity": 88,
      "chip": "ym2612"
    },
    {
      "channel": 5,
      "note": 66,
      "start": 8.8707,
      "duration": 0.0134,
      "velocity": 127,
      "chip": "ym2612"
    },
    {
      "channel": 3,
      "note": 57,
      "start": 8.9594,
      "duration": 0.1688,
      "velocity": 88,
      "chip": "ym2612"
    },
    {
      "channel": 5,
      "note": 66,
      "start": 8.9673,
      "duration": 0.0041,
      "velocity": 127,
      "chip": "ym2612"
    },
    {
      "channel": 5,
      "note": 66,
      "start": 9.0489,
      "duration": 0.0103,
      "velocity": 127,
      "chip": "ym2612"
    },
    {
      "channel": 5,
      "note": 66,
      "start": 9.1261,
      "duration": 0.0183,
      "velocity": 127,
      "chip": "ym2612"
    },
    {
      "channel": 3,
      "note": 45,
      "start": 9.1288,
      "duration": 0.1693,
      "velocity": 88,
      "chip": "ym2612"
    },
    {
      "channel": 5,
      "note": 66,
      "start": 9.2144,
      "duration": 0.0165,
      "velocity": 127,
      "chip": "ym2612"
    },
    {
      "channel": 3,
      "note": 45,
      "start": 9.2988,
      "duration": 0.1763,
      "velocity": 88,
      "chip": "ym2612"
    },
    {
      "channel": 5,
      "note": 66,
      "start": 9.311,
      "duration": 0.0073,
      "velocity": 127,
      "chip": "ym2612"
    },
    {
      "channel": 5,
      "note": 66,
      "start": 9.3927,
      "duration": 0.0134,
      "velocity": 127,
      "chip": "ym2612"
    },
    {
      "channel": 5,
      "note": 66,
      "start": 9.473,
      "duration": 0.0152,
      "velocity": 127,
      "chip": "ym2612"
    },
    {
      "channel": 3,
      "note": 45,
      "start": 9.4757,
      "duration": 0.1693,
      "velocity": 88,
      "chip": "ym2612"
    },
    {
      "channel": 5,
      "note": 66,
      "start": 9.5613,
      "duration": 0.0134,
      "velocity": 127,
      "chip": "ym2612"
    },
    {
      "channel": 3,
      "note": 45,
      "start": 9.6457,
      "duration": 0.1683,
      "velocity": 88,
      "chip": "ym2612"
    },
    {
      "channel": 5,
      "note": 66,
      "start": 9.6579,
      "duration": 0.0041,
      "velocity": 127,
      "chip": "ym2612"
    },
    {
      "channel": 5,
      "note": 66,
      "start": 9.7334,
      "duration": 0.0134,
      "velocity": 127,
      "chip": "ym2612"
    },
    {
      "channel": 3,
      "note": 57,
      "start": 9.8146,
      "duration": 0.1754,
      "velocity": 88,
      "chip": "ym2612"
    },
    {
      "channel": 5,
      "note": 66,
      "start": 9.8185,
      "duration": 0.0166,
      "velocity": 127,
      "chip": "ym2612"
    },
    {
      "channel": 5,
      "note": 66,
      "start": 9.9019,
      "duration": 0.0196,
      "velocity": 127,
      "chip": "ym2612"
    },
    {
      "channel": 3,
      "note": 45,
      "start": 9.9907,
      "duration": 0.1701,
      "velocity": 88,
      "chip": "ym2612"
    },
    {
      "channel": 5,
      "note": 66,
      "start": 9.9985,
      "duration": 0.0072,
      "velocity": 127,
      "chip": "ym2612"
    },
    {
      "channel": 5,
      "note": 66,
      "start": 10.0802,
      "duration": 0.0102,
      "velocity": 127,
      "chip": "ym2612"
    },
    {
      "channel": 3,
      "note": 45,
      "start": 10.1614,
      "duration": 0.1693,
      "velocity": 88,
      "chip": "ym2612"
    },
    {
      "channel": 5,
      "note": 66,
      "start": 10.1654,
      "duration": 0.0103,
      "velocity": 127,
      "chip": "ym2612"
    },
    {
      "channel": 5,
      "note": 66,
      "start": 10.2488,
      "duration": 0.0134,
      "velocity": 127,
      "chip": "ym2612"
    },
    {
      "channel": 3,
      "note": 57,
      "start": 10.3313,
      "duration": 0.1749,
      "velocity": 88,
      "chip": "ym2612"
    },
    {
      "channel": 5,
      "note": 66,
      "start": 10.3391,
      "duration": 0.0103,
      "velocity": 127,
      "chip": "ym2612"
    },
    {
      "channel": 5,
      "note": 66,
      "start": 10.4207,
      "duration": 0.0165,
      "velocity": 127,
      "chip": "ym2612"
    },
    {
      "channel": 5,
      "note": 66,
      "start": 10.5041,
      "duration": 0.0183,
      "velocity": 127,
      "chip": "ym2612"
    },
    {
      "channel": 3,
      "note": 45,
      "start": 10.5069,
      "duration": 0.1706,
      "velocity": 88,
      "chip": "ym2612"
    },
    {
      "channel": 5,
      "note": 66,
      "start": 10.5894,
      "duration": 0.0196,
      "velocity": 127,
      "chip": "ym2612"
    },
    {
      "channel": 3,
      "note": 57,
      "start": 10.6781,
      "duration": 0.1749,
      "velocity": 88,
      "chip": "ym2612"
    },
    {
      "channel": 5,
      "note": 66,
      "start": 10.686,
      "duration": 0.0041,
      "velocity": 127,
      "chip": "ym2612"
    },
    {
      "channel": 5,
      "note": 66,
      "start": 10.7676,
      "duration": 0.0103,
      "velocity": 127,
      "chip": "ym2612"
    },
    {
      "channel": 5,
      "note": 66,
      "start": 10.851,
      "duration": 0.0122,
      "velocity": 127,
      "chip": "ym2612"
    },
    {
      "channel": 3,
      "note": 45,
      "start": 10.8537,
      "duration": 0.1895,
      "velocity": 88,
      "chip": "ym2612"
    },
    {
      "channel": 5,
      "note": 66,
      "start": 10.9362,
      "duration": 0.0134,
      "velocity": 127,
      "chip": "ym2612"
    },
    {
      "channel": 2,
      "note": 69,
      "start": 11.018,
      "duration": 2.0725,
      "velocity": 104,
      "chip": "ym2612"
    },
    {
      "channel": 1,
      "note": 45,
      "start": 11.0201,
      "duration": 5.5082,
      "velocity": 111,
      "chip": "ym2612"
    },
    {
      "channel": 0,
      "note": 57,
      "start": 11.0224,
      "duration": 2.0611,
      "velocity": 104,
      "chip": "ym2612"
    },
    {
      "channel": 4,
      "note": 57,
      "start": 11.0266,
      "duration": 2.7491,
      "velocity": 94,
      "chip": "ym2612"
    },
    {
      "channel": 5,
      "note": 66,
      "start": 11.0363,
      "duration": 0.0049,
      "velocity": 127,
      "chip": "ym2612"
    },
    {
      "channel": 3,
      "note": 57,
      "start": 11.0439,
      "duration": 0.1498,
      "velocity": 88,
      "chip": "ym2612"
    },
    {
      "channel": 5,
      "note": 66,
      "start": 11.1112,
      "duration": 0.0134,
      "velocity": 127,
      "chip": "ym2612"
    },
    {
      "channel": 5,
      "note": 66,
      "start": 11.1915,
      "duration": 0.0183,
      "velocity": 127,
      "chip": "ym2612"
    },
    {
      "channel": 3,
      "note": 45,
      "start": 11.1942,
      "duration": 0.1737,
      "velocity": 88,
      "chip": "ym2612"
    },
    {
      "channel": 5,
      "note": 66,
      "start": 11.2798,
      "duration": 0.0165,
      "velocity": 127,
      "chip": "ym2612"
    },
    {
      "channel": 3,
      "note": 45,
      "start": 11.3685,
      "duration": 0.1719,
      "velocity": 88,
      "chip": "ym2612"
    },
    {
      "channel": 5,
      "note": 66,
      "start": 11.3763,
      "duration": 0.0041,
      "velocity": 127,
      "chip": "ym2612"
    },
    {
      "channel": 5,
      "note": 66,
      "start": 11.458,
      "duration": 0.0072,
      "velocity": 127,
      "chip": "ym2612"
    },
    {
      "channel": 5,
      "note": 66,
      "start": 11.5383,
      "duration": 0.0152,
      "velocity": 127,
      "chip": "ym2612"
    },
    {
      "channel": 3,
      "note": 45,
      "start": 11.541,
      "duration": 0.1675,
      "velocity": 88,
      "chip": "ym2612"
    },
    {
      "channel": 5,
      "note": 66,
      "start": 11.6204,
      "duration": 0.0196,
      "velocity": 127,
      "chip": "ym2612"
    },
    {
      "channel": 3,
      "note": 57,
      "start": 11.7092,
      "duration": 0.1701,
      "velocity": 88,
      "chip": "ym2612"
    },
    {
      "channel": 5,
      "note": 66,
      "start": 11.717,
      "duration": 0.0103,
      "velocity": 127,
      "chip": "ym2612"
    },
    {
      "channel": 5,
      "note": 66,
      "start": 11.7986,
      "duration": 0.0134,
      "velocity": 127,
      "chip": "ym2612"
    },
    {
      "channel": 3,
      "note": 45,
      "start": 11.8799,
      "duration": 0.1755,
      "velocity": 88,
      "chip": "ym2612"
    },
    {
      "channel": 5,
      "note": 66,
      "start": 11.8838,
      "duration": 0.0165,
      "velocity": 127,
      "chip": "ym2612"
    },
    {
      "channel": 5,
      "note": 66,
      "start": 11.9673,
      "duration": 0.0134,
      "velocity": 127,
      "chip": "ym2612"
    },
    {
      "channel": 3,
      "note": 45,
      "start": 12.056,
      "duration": 0.1687,
      "velocity": 88,
      "chip": "ym2612"
    },
    {
      "channel": 5,
      "note": 66,
      "start": 12.0638,
      "duration": 0.0041,
      "velocity": 127,
      "chip": "ym2612"
    },
    {
      "channel": 5,
      "note": 66,
      "start": 12.1454,
      "duration": 0.0102,
      "velocity": 127,
      "chip": "ym2612"
    },
    {
      "channel": 5,
      "note": 66,
      "start": 12.2226,
      "duration": 0.0183,
      "velocity": 127,
      "chip": "ym2612"
    },
    {
      "channel": 3,
      "note": 45,
      "start": 12.2253,
      "duration": 0.1693,
      "velocity": 88,
      "chip": "ym2612"
    },
    {
      "channel": 5,
      "note": 66,
      "start": 12.3109,
      "duration": 0.0165,
      "velocity": 127,
      "chip": "ym2612"
    },
    {
      "channel": 3,
      "note": 45,
      "start": 12.3953,
      "duration": 0.1762,
      "velocity": 88,
      "chip": "ym2612"
    },
    {
      "channel": 5,
      "note": 66,
      "start": 12.4075,
      "duration": 0.0073,
      "velocity": 127,
      "chip": "ym2612"
    },
    {
      "channel": 5,
      "note": 66,
      "start": 12.486,
      "duration": 0.0165,
      "velocity": 127,
      "chip": "ym2612"
    },
    {
      "channel": 5,
      "note": 66,
      "start": 12.5694,
      "duration": 0.0152,
      "velocity": 127,
      "chip": "ym2612"
    },
    {
      "channel": 3,
      "note": 57,
      "start": 12.5722,
      "duration": 0.1693,
      "velocity": 88,
      "chip": "ym2612"
    },
    {
      "channel": 5,
      "note": 66,
      "start": 12.6577,
      "duration": 0.0134,
      "velocity": 127,
      "chip": "ym2612"
    },
    {
      "channel": 3,
      "note": 45,
      "start": 12.7421,
      "duration": 0.1682,
      "velocity": 88,
      "chip": "ym2612"
    },
    {
      "channel": 5,
      "note": 66,
      "start": 12.7543,
      "duration": 0.0041,
      "velocity": 127,
      "chip": "ym2612"
    },
    {
      "channel": 5,
      "note": 66,
      "start": 12.8297,
      "duration": 0.0134,
      "velocity": 127,
      "chip": "ym2612"
    },
    {
      "channel": 3,
      "note": 45,
      "start": 12.911,
      "duration": 0.1773,
      "velocity": 88,
      "chip": "ym2612"
    },
    {
      "channel": 5,
      "note": 66,
      "start": 12.9149,
      "duration": 0.0165,
      "velocity": 127,
      "chip": "ym2612"
    },
    {
      "channel": 5,
      "note": 66,
      "start": 12.9983,
      "duration": 0.0196,
      "velocity": 127,
      "chip": "ym2612"
    },
    {
      "channel": 0,
      "note": 64,
      "start": 13.0841,
      "duration": 0.6874,
      "velocity": 104,
      "chip": "ym2612"
    },
    {
      "channel": 3,
      "note": 57,
      "start": 13.0889,
      "duration": 0.1705,
      "velocity": 88,
      "chip": "ym2612"
    },
    {
      "channel": 2,
      "note": 76,
      "start": 13.0911,
      "duration": 0.6879,
      "velocity": 104,
      "chip": "ym2612"
    },
    {
      "channel": 5,
      "note": 66,
      "start": 13.0985,
      "duration": 0.0041,
      "velocity": 127,
      "chip": "ym2612"
    },
    {
      "channel": 5,
      "note": 66,
      "start": 13.177,
      "duration": 0.0073,
      "velocity": 127,
      "chip": "ym2612"
    },
    {
      "channel": 5,
      "note": 66,
      "start": 13.2573,
      "duration": 0.0152,
      "velocity": 127,
      "chip": "ym2612"
    },
    {
      "channel": 3,
      "note": 45,
      "start": 13.2601,
      "duration": 0.1675,
      "velocity": 88,
      "chip": "ym2612"
    },
    {
      "channel": 5,
      "note": 66,
      "start": 13.3456,
      "duration": 0.0134,
      "velocity": 127,
      "chip": "ym2612"
    },
    {
      "channel": 3,
      "note": 57,
      "start": 13.4282,
      "duration": 0.1701,
      "velocity": 88,
      "chip": "ym2612"
    },
    {
      "channel": 5,
      "note": 66,
      "start": 13.436,
      "duration": 0.0103,
      "velocity": 127,
      "chip": "ym2612"
    },
    {
      "channel": 5,
      "note": 66,
      "start": 13.5177,
      "duration": 0.0134,
      "velocity": 127,
      "chip": "ym2612"
    },
    {
      "channel": 3,
      "note": 45,
      "start": 13.5989,
      "duration": 0.1956,
      "velocity": 88,
      "chip": "ym2612"
    },
    {
      "channel": 5,
      "note": 66,
      "start": 13.6029,
      "duration": 0.0166,
      "velocity": 127,
      "chip": "ym2612"
    },
    {
      "channel": 5,
      "note": 66,
      "start": 13.6863,
      "duration": 0.0196,
      "velocity": 127,
      "chip": "ym2612"
    },
    {
      "channel": 0,
      "note": 62,
      "start": 13.7721,
      "duration": 2.7585,
      "velocity": 104,
      "chip": "ym2612"
    },
    {
      "channel": 4,
      "note": 57,
      "start": 13.7763,
      "duration": 2.7465,
      "velocity": 94,
      "chip": "ym2612"
    },
    {
      "channel": 2,
      "note": 74,
      "start": 13.7797,
      "duration": 2.7464,
      "velocity": 104,
      "chip": "ym2612"
    },
    {
      "channel": 5,
      "note": 66,
      "start": 13.7924,
      "duration": 0.0059,
      "velocity": 127,
      "chip": "ym2612"
    },
    {
      "channel": 3,
      "note": 57,
      "start": 13.7951,
      "duration": 0.1538,
      "velocity": 88,
      "chip": "ym2612"
    },
    {
      "channel": 5,
      "note": 66,
      "start": 13.8634,
      "duration": 0.0103,
      "velocity": 127,
      "chip": "ym2612"
    },
    {
      "channel": 5,
      "note": 66,
      "start": 13.9468,
      "duration": 0.0151,
      "velocity": 127,
      "chip": "ym2612"
    },
    {
      "channel": 3,
      "note": 45,
      "start": 13.9495,
      "duration": 0.1676,
      "velocity": 88,
      "chip": "ym2612"
    },
    {
      "channel": 5,
      "note": 66,
      "start": 14.029,
      "duration": 0.0195,
      "velocity": 127,
      "chip": "ym2612"
    },
    {
      "channel": 3,
      "note": 45,
      "start": 14.1177,
      "duration": 0.1719,
      "velocity": 88,
      "chip": "ym2612"
    },
    {
      "channel": 5,
      "note": 66,
      "start": 14.1255,
      "duration": 0.0073,
      "velocity": 127,
      "chip": "ym2612"
    },
    {
      "channel": 5,
      "note": 66,
      "start": 14.2071,
      "duration": 0.0134,
      "velocity": 127,
      "chip": "ym2612"
    },
    {
      "channel": 5,
      "note": 66,
      "start": 14.2875,
      "duration": 0.0184,
      "velocity": 127,
      "chip": "ym2612"
    },
    {
      "channel": 3,
      "note": 45,
      "start": 14.2902,
      "duration": 0.1737,
      "velocity": 88,
      "chip": "ym2612"
    },
    {
      "channel": 5,
      "note": 66,
      "start": 14.3759,
      "duration": 0.0134,
      "velocity": 127,
      "chip": "ym2612"
    },
    {
      "channel": 3,
      "note": 57,
      "start": 14.4646,
      "duration": 0.1719,
      "velocity": 88,
      "chip": "ym2612"
    },
    {
      "channel": 5,
      "note": 66,
      "start": 14.4724,
      "duration": 0.0041,
      "velocity": 127,
      "chip": "ym2612"
    },
    {
      "channel": 5,
      "note": 66,
      "start": 14.554,
      "duration": 0.0072,
      "velocity": 127,
      "chip": "ym2612"
    },
    {
      "channel": 5,
      "note": 66,
      "start": 14.6344,
      "duration": 0.0152,
      "velocity": 127,
      "chip": "ym2612"
    },
    {
      "channel": 3,
      "note": 45,
      "start": 14.6371,
      "duration": 0.1675,
      "velocity": 88,
      "chip": "ym2612"
    },
    {
      "channel": 5,
      "note": 66,
      "start": 14.7165,
      "duration": 0.0196,
      "velocity": 127,
      "chip": "ym2612"
    },
    {
      "channel": 3,
      "note": 45,
      "start": 14.8052,
      "duration": 0.1702,
      "velocity": 88,
      "chip": "ym2612"
    },
    {
      "channel": 5,
      "note": 66,
      "start": 14.8131,
      "duration": 0.0103,
      "velocity": 127,
      "chip": "ym2612"
    },
    {
      "channel": 5,
      "note": 66,
      "start": 14.8947,
      "duration": 0.0134,
      "velocity": 127,
      "chip": "ym2612"
    },
    {
      "channel": 3,
      "note": 45,
      "start": 14.976,
      "duration": 0.1755,
      "velocity": 88,
      "chip": "ym2612"
    },
    {
      "channel": 5,
      "note": 66,
      "start": 14.9799,
      "duration": 0.0166,
      "velocity": 127,
      "chip": "ym2612"
    },
    {
      "channel": 5,
      "note": 66,
      "start": 15.0634,
      "duration": 0.0134,
      "velocity": 127,
      "chip": "ym2612"
    },
    {
      "channel": 3,
      "note": 45,
      "start": 15.1521,
      "duration": 0.1688,
      "velocity": 88,
      "chip": "ym2612"
    },
    {
      "channel": 5,
      "note": 66,
      "start": 15.16,
      "duration": 0.0041,
      "velocity": 127,
      "chip": "ym2612"
    },
    {
      "channel": 5,
      "note": 66,
      "start": 15.2416,
      "duration": 0.0103,
      "velocity": 127,
      "chip": "ym2612"
    },
    {
      "channel": 5,
      "note": 66,
      "start": 15.3188,
      "duration": 0.0183,
      "velocity": 127,
      "chip": "ym2612"
    },
    {
      "channel": 3,
      "note": 57,
      "start": 15.3215,
      "duration": 0.1693,
      "velocity": 88,
      "chip": "ym2612"
    },
    {
      "channel": 5,
      "note": 66,
      "start": 15.4071,
      "duration": 0.0165,
      "velocity": 127,
      "chip": "ym2612"
    },
    {
      "channel": 3,
      "note": 45,
      "start": 15.4914,
      "duration": 0.1763,
      "velocity": 88,
      "chip": "ym2612"
    },
    {
      "channel": 5,
      "note": 66,
      "start": 15.5037,
      "duration": 0.0072,
      "velocity": 127,
      "chip": "ym2612"
    },
    {
      "channel": 5,
      "note": 66,
      "start": 15.5822,
      "duration": 0.0165,
      "velocity": 127,
      "chip": "ym2612"
    },
    {
      "channel": 5,
      "note": 66,
      "start": 15.6656,
      "duration": 0.0152,
      "velocity": 127,
      "chip": "ym2612"
    },
    {
      "channel": 3,
      "note": 45,
      "start": 15.6683,
      "duration": 0.1693,
      "velocity": 88,
      "chip": "ym2612"
    },
    {
      "channel": 5,
      "note": 66,
      "start": 15.7539,
      "duration": 0.0134,
      "velocity": 127,
      "chip": "ym2612"
    },
    {
      "channel": 3,
      "note": 57,
      "start": 15.8383,
      "duration": 0.1682,
      "velocity": 88,
      "chip": "ym2612"
    },
    {
      "channel": 5,
      "note": 66,
      "start": 15.8505,
      "duration": 0.0041,
      "velocity": 127,
      "chip": "ym2612"
    },
    {
      "channel": 5,
      "note": 66,
      "start": 15.9259,
      "duration": 0.0134,
      "velocity": 127,
      "chip": "ym2612"
    },
    {
      "channel": 3,
      "note": 45,
      "start": 16.0071,
      "duration": 0.1754,
      "velocity": 88,
      "chip": "ym2612"
    },
    {
      "channel": 5,
      "note": 66,
      "start": 16.0111,
      "duration": 0.0165,
      "velocity": 127,
      "chip": "ym2612"
    },
    {
      "channel": 5,
      "note": 66,
      "start": 16.0945,
      "duration": 0.0196,
      "velocity": 127,
      "chip": "ym2612"
    },
    {
      "channel": 3,
      "note": 57,
      "start": 16.1832,
      "duration": 0.172,
      "velocity": 88,
      "chip": "ym2612"
    },
    {
      "channel": 5,
      "note": 66,
      "start": 16.191,
      "duration": 0.0073,
      "velocity": 127,
      "chip": "ym2612"
    },
    {
      "channel": 5,
      "note": 66,
      "start": 16.2727,
      "duration": 0.0072,
      "velocity": 127,
      "chip": "ym2612"
    },
    {
      "channel": 5,
      "note": 66,
      "start": 16.3531,
      "duration": 0.0151,
      "velocity": 127,
      "chip": "ym2612"
    },
    {
      "channel": 3,
      "note": 45,
      "start": 16.3557,
      "duration": 0.1896,
      "velocity": 88,
      "chip": "ym2612"
    },
    {
      "channel": 5,
      "note": 66,
      "start": 16.4414,
      "duration": 0.0134,
      "velocity": 127,
      "chip": "ym2612"
    },
    {
      "channel": 4,
      "note": 57,
      "start": 16.5234,
      "duration": 2.7601,
      "velocity": 94,
      "chip": "ym2612"
    },
    {
      "channel": 2,
      "note": 69,
      "start": 16.5267,
      "duration": 2.063,
      "velocity": 104,
      "chip": "ym2612"
    },
    {
      "channel": 1,
      "note": 45,
      "start": 16.5289,
      "duration": 5.5139,
      "velocity": 111,
      "chip": "ym2612"
    },
    {
      "channel": 0,
      "note": 57,
      "start": 16.5312,
      "duration": 2.0613,
      "velocity": 104,
      "chip": "ym2612"
    },
    {
      "channel": 5,
      "note": 66,
      "start": 16.5383,
      "duration": 0.0048,
      "velocity": 127,
      "chip": "ym2612"
    },
    {
      "channel": 3,
      "note": 57,
      "start": 16.5459,
      "duration": 0.1529,
      "velocity": 88,
      "chip": "ym2612"
    },
    {
      "channel": 5,
      "note": 66,
      "start": 16.6132,
      "duration": 0.0134,
      "velocity": 127,
      "chip": "ym2612"
    },
    {
      "channel": 5,
      "note": 66,
      "start": 16.6966,
      "duration": 0.0183,
      "velocity": 127,
      "chip": "ym2612"
    },
    {
      "channel": 3,
      "note": 45,
      "start": 16.6994,
      "duration": 0.1706,
      "velocity": 88,
      "chip": "ym2612"
    },
    {
      "channel": 5,
      "note": 66,
      "start": 16.7819,
      "duration": 0.0196,
      "velocity": 127,
      "chip": "ym2612"
    },
    {
      "channel": 3,
      "note": 45,
      "start": 16.8706,
      "duration": 0.1749,
      "velocity": 88,
      "chip": "ym2612"
    },
    {
      "channel": 5,
      "note": 66,
      "start": 16.8785,
      "duration": 0.0041,
      "velocity": 127,
      "chip": "ym2612"
    },
    {
      "channel": 5,
      "note": 66,
      "start": 16.9601,
      "duration": 0.0103,
      "velocity": 127,
      "chip": "ym2612"
    },
    {
      "channel": 5,
      "note": 66,
      "start": 17.0435,
      "duration": 0.0122,
      "velocity": 127,
      "chip": "ym2612"
    },
    {
      "channel": 3,
      "note": 45,
      "start": 17.0462,
      "duration": 0.1675,
      "velocity": 88,
      "chip": "ym2612"
    },
    {
      "channel": 5,
      "note": 66,
      "start": 17.1256,
      "duration": 0.0165,
      "velocity": 127,
      "chip": "ym2612"
    },
    {
      "channel": 3,
      "note": 57,
      "start": 17.2143,
      "duration": 0.1719,
      "velocity": 88,
      "chip": "ym2612"
    },
    {
      "channel": 5,
      "note": 66,
      "start": 17.2222,
      "duration": 0.0072,
      "velocity": 127,
      "chip": "ym2612"
    },
    {
      "channel": 5,
      "note": 66,
      "start": 17.3038,
      "duration": 0.0134,
      "velocity": 127,
      "chip": "ym2612"
    },
    {
      "channel": 5,
      "note": 66,
      "start": 17.3841,
      "duration": 0.0183,
      "velocity": 127,
      "chip": "ym2612"
    },
    {
      "channel": 3,
      "note": 45,
      "start": 17.3868,
      "duration": 0.1693,
      "velocity": 88,
      "chip": "ym2612"
    },
    {
      "channel": 5,
      "note": 66,
      "start": 17.4724,
      "duration": 0.0134,
      "velocity": 127,
      "chip": "ym2612"
    },
    {
      "channel": 3,
      "note": 45,
      "start": 17.5568,
      "duration": 0.1683,
      "velocity": 88,
      "chip": "ym2612"
    },
    {
      "channel": 5,
      "note": 66,
      "start": 17.569,
      "duration": 0.0041,
      "velocity": 127,
      "chip": "ym2612"
    },
    {
      "channel": 5,
      "note": 66,
      "start": 17.6507,
      "duration": 0.0072,
      "velocity": 127,
      "chip": "ym2612"
    },
    {
      "channel": 3,
      "note": 45,
      "start": 17.7257,
      "duration": 0.1755,
      "velocity": 88,
      "chip": "ym2612"
    },
    {
      "channel": 5,
      "note": 66,
      "start": 17.7297,
      "duration": 0.0166,
      "velocity": 127,
      "chip": "ym2612"
    },
    {
      "channel": 5,
      "note": 66,
      "start": 17.8131,
      "duration": 0.0196,
      "velocity": 127,
      "chip": "ym2612"
    },
    {
      "channel": 3,
      "note": 45,
      "start": 17.9019,
      "duration": 0.1701,
      "velocity": 88,
      "chip": "ym2612"
    },
    {
      "channel": 5,
      "note": 66,
      "start": 17.9097,
      "duration": 0.0103,
      "velocity": 127,
      "chip": "ym2612"
    },
    {
      "channel": 5,
      "note": 66,
      "start": 17.9913,
      "duration": 0.0134,
      "velocity": 127,
      "chip": "ym2612"
    },
    {
      "channel": 3,
      "note": 57,
      "start": 18.0726,
      "duration": 0.1754,
      "velocity": 88,
      "chip": "ym2612"
    },
    {
      "channel": 5,
      "note": 66,
      "start": 18.0765,
      "duration": 0.0104,
      "velocity": 127,
      "chip": "ym2612"
    },
    {
      "channel": 5,
      "note": 66,
      "start": 18.16,
      "duration": 0.0134,
      "velocity": 127,
      "chip": "ym2612"
    },
    {
      "channel": 3,
      "note": 45,
      "start": 18.2487,
      "duration": 0.1688,
      "velocity": 88,
      "chip": "ym2612"
    },
    {
      "channel": 5,
      "note": 66,
      "start": 18.2566,
      "duration": 0.0041,
      "velocity": 127,
      "chip": "ym2612"
    },
    {
      "channel": 5,
      "note": 66,
      "start": 18.3381,
      "duration": 0.0103,
      "velocity": 127,
      "chip": "ym2612"
    },
    {
      "channel": 5,
      "note": 66,
      "start": 18.4154,
      "duration": 0.0183,
      "velocity": 127,
      "chip": "ym2612"
    },
    {
      "channel": 3,
      "note": 45,
      "start": 18.4181,
      "duration": 0.1694,
      "velocity": 88,
      "chip": "ym2612"
    },
    {
      "channel": 5,
      "note": 66,
      "start": 18.5006,
      "duration": 0.0196,
      "velocity": 127,
      "chip": "ym2612"
    },
    {
      "channel": 3,
      "note": 57,
      "start": 18.5881,
      "duration": 0.1768,
      "velocity": 88,
      "chip": "ym2612"
    },
    {
      "channel": 2,
      "note": 76,
      "start": 18.5904,
      "duration": 0.6861,
      "velocity": 104,
      "chip": "ym2612"
    },
    {
      "channel": 0,
      "note": 64,
      "start": 18.5932,
      "duration": 0.686,
      "velocity": 104,
      "chip": "ym2612"
    },
    {
      "channel": 5,
      "note": 66,
      "start": 18.6039,
      "duration": 0.0041,
      "velocity": 127,
      "chip": "ym2612"
    },
    {
      "channel": 5,
      "note": 66,
      "start": 18.6793,
      "duration": 0.0134,
      "velocity": 127,
      "chip": "ym2612"
    },
    {
      "channel": 5,
      "note": 66,
      "start": 18.7627,
      "duration": 0.0122,
      "velocity": 127,
      "chip": "ym2612"
    },
    {
      "channel": 3,
      "note": 45,
      "start": 18.7655,
      "duration": 0.1706,
      "velocity": 88,
      "chip": "ym2612"
    },
    {
      "channel": 5,
      "note": 66,
      "start": 18.848,
      "duration": 0.0134,
      "velocity": 127,
      "chip": "ym2612"
    },
    {
      "channel": 3,
      "note": 57,
      "start": 18.9367,
      "duration": 0.1688,
      "velocity": 88,
      "chip": "ym2612"
    },
    {
      "channel": 5,
      "note": 66,
      "start": 18.9446,
      "duration": 0.0041,
      "velocity": 127,
      "chip": "ym2612"
    },
    {
      "channel": 5,
      "note": 66,
      "start": 19.023,
      "duration": 0.0134,
      "velocity": 127,
      "chip": "ym2612"
    },
    {
      "channel": 5,
      "note": 66,
      "start": 19.1034,
      "duration": 0.0183,
      "velocity": 127,
      "chip": "ym2612"
    },
    {
      "channel": 3,
      "note": 45,
      "start": 19.1061,
      "duration": 0.1899,
      "velocity": 88,
      "chip": "ym2612"
    },
    {
      "channel": 5,
      "note": 66,
      "start": 19.1917,
      "duration": 0.0166,
      "velocity": 127,
      "chip": "ym2612"
    },
    {
      "channel": 2,
      "note": 79,
      "start": 19.2771,
      "duration": 2.7714,
      "velocity": 104,
      "chip": "ym2612"
    },
    {
      "channel": 0,
      "note": 67,
      "start": 19.2798,
      "duration": 2.754,
      "velocity": 104,
      "chip": "ym2612"
    },
    {
      "channel": 4,
      "note": 64,
      "start": 19.2841,
      "duration": 2.7541,
      "velocity": 94,
      "chip": "ym2612"
    },
    {
      "channel": 5,
      "note": 66,
      "start": 19.2939,
      "duration": 0.006,
      "velocity": 127,
      "chip": "ym2612"
    },
    {
      "channel": 3,
      "note": 57,
      "start": 19.2966,
      "duration": 0.152,
      "velocity": 88,
      "chip": "ym2612"
    },
    {
      "channel": 5,
      "note": 66,
      "start": 19.368,
      "duration": 0.0103,
      "velocity": 127,
      "chip": "ym2612"
    },
    {
      "channel": 3,
      "note": 45,
      "start": 19.4493,
      "duration": 0.1681,
      "velocity": 88,
      "chip": "ym2612"
    },
    {
      "channel": 5,
      "note": 66,
      "start": 19.4532,
      "duration": 0.0104,
      "velocity": 127,
      "chip": "ym2612"
    },
    {
      "channel": 5,
      "note": 66,
      "start": 19.5367,
      "duration": 0.0134,
      "velocity": 127,
      "chip": "ym2612"
    },
    {
      "channel": 3,
      "note": 45,
      "start": 19.6179,
      "duration": 0.1763,
      "velocity": 88,
      "chip": "ym2612"
    },
    {
      "channel": 5,
      "note": 66,
      "start": 19.6301,
      "duration": 0.0073,
      "velocity": 127,
      "chip": "ym2612"
    },
    {
      "channel": 5,
      "note": 66,
      "start": 19.7118,
      "duration": 0.0134,
      "velocity": 127,
      "chip": "ym2612"
    },
    {
      "channel": 5,
      "note": 66,
      "start": 19.7921,
      "duration": 0.0183,
      "velocity": 127,
      "chip": "ym2612"
    },
    {
      "channel": 3,
      "note": 45,
      "start": 19.7948,
      "duration": 0.1693,
      "velocity": 88,
      "chip": "ym2612"
    },
    {
      "channel": 5,
      "note": 66,
      "start": 19.8804,
      "duration": 0.0165,
      "velocity": 127,
      "chip": "ym2612"
    },
    {
      "channel": 3,
      "note": 57,
      "start": 19.9648,
      "duration": 0.1763,
      "velocity": 88,
      "chip": "ym2612"
    },
    {
      "channel": 5,
      "note": 66,
      "start": 19.977,
      "duration": 0.0041,
      "velocity": 127,
      "chip": "ym2612"
    },
    {
      "channel": 5,
      "note": 66,
      "start": 20.0555,
      "duration": 0.0104,
      "velocity": 127,
      "chip": "ym2612"
    },
    {
      "channel": 5,
      "note": 66,
      "start": 20.139,
      "duration": 0.0152,
      "velocity": 127,
      "chip": "ym2612"
    },
    {
      "channel": 3,
      "note": 45,
      "start": 20.1417,
      "duration": 0.1675,
      "velocity": 88,
      "chip": "ym2612"
    },
    {
      "channel": 5,
      "note": 66,
      "start": 20.2211,
      "duration": 0.0196,
      "velocity": 127,
      "chip": "ym2612"
    },
    {
      "channel": 3,
      "note": 45,
      "start": 20.3098,
      "duration": 0.1701,
      "velocity": 88,
      "chip": "ym2612"
    },
    {
      "channel": 5,
      "note": 66,
      "start": 20.3177,
      "duration": 0.0072,
      "velocity": 127,
      "chip": "ym2612"
    },
    {
      "channel": 5,
      "note": 66,
      "start": 20.3993,
      "duration": 0.0134,
      "velocity": 127,
      "chip": "ym2612"
    },
    {
      "channel": 3,
      "note": 45,
      "start": 20.4805,
      "duration": 0.1756,
      "velocity": 88,
      "chip": "ym2612"
    },
    {
      "channel": 5,
      "note": 66,
      "start": 20.4845,
      "duration": 0.0165,
      "velocity": 127,
      "chip": "ym2612"
    },
    {
      "channel": 5,
      "note": 66,
      "start": 20.568,
      "duration": 0.0134,
      "velocity": 127,
      "chip": "ym2612"
    },
    {
      "channel": 3,
      "note": 45,
      "start": 20.6568,
      "duration": 0.1688,
      "velocity": 88,
      "chip": "ym2612"
    },
    {
      "channel": 5,
      "note": 66,
      "start": 20.6646,
      "duration": 0.0041,
      "velocity": 127,
      "chip": "ym2612"
    },
    {
      "channel": 5,
      "note": 66,
      "start": 20.7462,
      "duration": 0.0072,
      "velocity": 127,
      "chip": "ym2612"
    },
    {
      "channel": 5,
      "note": 66,
      "start": 20.8234,
      "duration": 0.0183,
      "velocity": 127,
      "chip": "ym2612"
    },
    {
      "channel": 3,
      "note": 57,
      "start": 20.8262,
      "duration": 0.1706,
      "velocity": 88,
      "chip": "ym2612"
    },
    {
      "channel": 5,
      "note": 66,
      "start": 20.9087,
      "duration": 0.0196,
      "velocity": 127,
      "chip": "ym2612"
    },
    {
      "channel": 3,
      "note": 45,
      "start": 20.9974,
      "duration": 0.1751,
      "velocity": 88,
      "chip": "ym2612"
    },
    {
      "channel": 5,
      "note": 66,
      "start": 21.0053,
      "duration": 0.0102,
      "velocity": 127,
      "chip": "ym2612"
    },
    {
      "channel": 5,
      "note": 66,
      "start": 21.0869,
      "duration": 0.0134,
      "velocity": 127,
      "chip": "ym2612"
    },
    {
      "channel": 5,
      "note": 66,
      "start": 21.1703,
      "duration": 0.0122,
      "velocity": 127,
      "chip": "ym2612"
    },
    {
      "channel": 3,
      "note": 45,
      "start": 21.1731,
      "duration": 0.1705,
      "velocity": 88,
      "chip": "ym2612"
    },
    {
      "channel": 5,
      "note": 66,
      "start": 21.2556,
      "duration": 0.0134,
      "velocity": 127,
      "chip": "ym2612"
    },
    {
      "channel": 3,
      "note": 57,
      "start": 21.3443,
      "duration": 0.1687,
      "velocity": 88,
      "chip": "ym2612"
    },
    {
      "channel": 5,
      "note": 66,
      "start": 21.3521,
      "duration": 0.0041,
      "velocity": 127,
      "chip": "ym2612"
    },
    {
      "channel": 5,
      "note": 66,
      "start": 21.4306,
      "duration": 0.0134,
      "velocity": 127,
      "chip": "ym2612"
    },
    {
      "channel": 5,
      "note": 66,
      "start": 21.5109,
      "duration": 0.0183,
      "velocity": 127,
      "chip": "ym2612"
    },
    {
      "channel": 3,
      "note": 45,
      "start": 21.5136,
      "duration": 0.1693,
      "velocity": 88,
      "chip": "ym2612"
    },
    {
      "channel": 5,
      "note": 66,
      "start": 21.5992,
      "duration": 0.0166,
      "velocity": 127,
      "chip": "ym2612"
    },
    {
      "channel": 3,
      "note": 57,
      "start": 21.6835,
      "duration": 0.1763,
      "velocity": 88,
      "chip": "ym2612"
    },
    {
      "channel": 5,
      "note": 66,
      "start": 21.6958,
      "duration": 0.0072,
      "velocity": 127,
      "chip": "ym2612"
    },
    {
      "channel": 5,
      "note": 66,
      "start": 21.7774,
      "duration": 0.0072,
      "velocity": 127,
      "chip": "ym2612"
    },
    {
      "channel": 5,
      "note": 66,
      "start": 21.8577,
      "duration": 0.0152,
      "velocity": 127,
      "chip": "ym2612"
    },
    {
      "channel": 3,
      "note": 45,
      "start": 21.8605,
      "duration": 0.2031,
      "velocity": 88,
      "chip": "ym2612"
    },
    {
      "channel": 5,
      "note": 66,
      "start": 21.946,
      "duration": 0.0134,
      "velocity": 127,
      "chip": "ym2612"
    },
    {
      "channel": 0,
      "note": 59,
      "start": 22.0344,
      "duration": 2.06,
      "velocity": 104,
      "chip": "ym2612"
    },
    {
      "channel": 4,
      "note": 59,
      "start": 22.0387,
      "duration": 2.7471,
      "velocity": 94,
      "chip": "ym2612"
    },
    {
      "channel": 1,
      "note": 47,
      "start": 22.0434,
      "duration": 2.7359,
      "velocity": 111,
      "chip": "ym2612"
    },
    {
      "channel": 2,
      "note": 83,
      "start": 22.0492,
      "duration": 0.1546,
      "velocity": 104,
      "chip": "ym2612"
    },
    {
      "channel": 5,
      "note": 66,
      "start": 22.0527,
      "duration": 0.0049,
      "velocity": 127,
      "chip": "ym2612"
    },
    {
      "channel": 3,
      "note": 59,
      "start": 22.0642,
      "duration": 0.1373,
      "velocity": 88,
      "chip": "ym2612"
    },
    {
      "channel": 5,
      "note": 66,
      "start": 22.1191,
      "duration": 0.0134,
      "velocity": 127,
      "chip": "ym2612"
    },
    {
      "channel": 5,
      "note": 66,
      "start": 22.1994,
      "duration": 0.0201,
      "velocity": 127,
      "chip": "ym2612"
    },
    {
      "channel": 3,
      "note": 47,
      "start": 22.2021,
      "duration": 0.1724,
      "velocity": 88,
      "chip": "ym2612"
    },
    {
      "channel": 2,
      "note": 78,
      "start": 22.2045,
      "duration": 0.1723,
      "velocity": 104,
      "chip": "ym2612"
    },
    {
      "channel": 5,
      "note": 66,
      "start": 22.2864,
      "duration": 0.0196,
      "velocity": 127,
      "chip": "ym2612"
    },
    {
      "channel": 3,
      "note": 47,
      "start": 22.3751,
      "duration": 0.1737,
      "velocity": 88,
      "chip": "ym2612"
    },
    {
      "channel": 2,
      "note": 78,
      "start": 22.3774,
      "duration": 0.1776,
      "velocity": 104,
      "chip": "ym2612"
    },
    {
      "channel": 5,
      "note": 66,
      "start": 22.3848,
      "duration": 0.0072,
      "velocity": 127,
      "chip": "ym2612"
    },
    {
      "channel": 5,
      "note": 66,
      "start": 22.4632,
      "duration": 0.0103,
      "velocity": 127,
      "chip": "ym2612"
    },
    {
      "channel": 5,
      "note": 66,
      "start": 22.5467,
      "duration": 0.0146,
      "velocity": 127,
      "chip": "ym2612"
    },
    {
      "channel": 3,
      "note": 47,
      "start": 22.5495,
      "duration": 0.1669,
      "velocity": 88,
      "chip": "ym2612"
    },
    {
      "channel": 2,
      "note": 83,
      "start": 22.5556,
      "duration": 0.163,
      "velocity": 104,
      "chip": "ym2612"
    },
    {
      "channel": 5,
      "note": 66,
      "start": 22.6345,
      "duration": 0.0134,
      "velocity": 127,
      "chip": "ym2612"
    },
    {
      "channel": 3,
      "note": 59,
      "start": 22.717,
      "duration": 0.1737,
      "velocity": 88,
      "chip": "ym2612"
    },
    {
      "channel": 2,
      "note": 78,
      "start": 22.7193,
      "duration": 0.1737,
      "velocity": 104,
      "chip": "ym2612"
    },
    {
      "channel": 5,
      "note": 66,
      "start": 22.7266,
      "duration": 0.0072,
      "velocity": 127,
      "chip": "ym2612"
    },
    {
      "channel": 5,
      "note": 66,
      "start": 22.8051,
      "duration": 0.0166,
      "velocity": 127,
      "chip": "ym2612"
    },
    {
      "channel": 5,
      "note": 66,
      "start": 22.8886,
      "duration": 0.0201,
      "velocity": 127,
      "chip": "ym2612"
    },
    {
      "channel": 3,
      "note": 47,
      "start": 22.8913,
      "duration": 0.1724,
      "velocity": 88,
      "chip": "ym2612"
    },
    {
      "channel": 2,
      "note": 78,
      "start": 22.8936,
      "duration": 0.1771,
      "velocity": 104,
      "chip": "ym2612"
    },
    {
      "channel": 5,
      "note": 66,
      "start": 22.9756,
      "duration": 0.0196,
      "velocity": 127,
      "chip": "ym2612"
    },
    {
      "channel": 3,
      "note": 47,
      "start": 23.0644,
      "duration": 0.1695,
      "velocity": 88,
      "chip": "ym2612"
    },
    {
      "channel": 2,
      "note": 83,
      "start": 23.0713,
      "duration": 0.1649,
      "velocity": 104,
      "chip": "ym2612"
    },
    {
      "channel": 5,
      "note": 66,
      "start": 23.0748,
      "duration": 0.0041,
      "velocity": 127,
      "chip": "ym2612"
    },
    {
      "channel": 5,
      "note": 66,
      "start": 23.1533,
      "duration": 0.0102,
      "velocity": 127,
      "chip": "ym2612"
    },
    {
      "channel": 3,
      "note": 47,
      "start": 23.2346,
      "duration": 0.1711,
      "velocity": 88,
      "chip": "ym2612"
    },
    {
      "channel": 2,
      "note": 78,
      "start": 23.2368,
      "duration": 0.1711,
      "velocity": 104,
      "chip": "ym2612"
    },
    {
      "channel": 5,
      "note": 66,
      "start": 23.2404,
      "duration": 0.0103,
      "velocity": 127,
      "chip": "ym2612"
    },
    {
      "channel": 5,
      "note": 66,
      "start": 23.3176,
      "duration": 0.0195,
      "velocity": 127,
      "chip": "ym2612"
    },
    {
      "channel": 3,
      "note": 47,
      "start": 23.4063,
      "duration": 0.1745,
      "velocity": 88,
      "chip": "ym2612"
    },
    {
      "channel": 2,
      "note": 78,
      "start": 23.4086,
      "duration": 0.1745,
      "velocity": 104,
      "chip": "ym2612"
    },
    {
      "channel": 5,
      "note": 66,
      "start": 23.4159,
      "duration": 0.0072,
      "velocity": 127,
      "chip": "ym2612"
    },
    {
      "channel": 5,
      "note": 66,
      "start": 23.4945,
      "duration": 0.0134,
      "velocity": 127,
      "chip": "ym2612"
    },
    {
      "channel": 5,
      "note": 66,
      "start": 23.5786,
      "duration": 0.0171,
      "velocity": 127,
      "chip": "ym2612"
    },
    {
      "channel": 3,
      "note": 59,
      "start": 23.5815,
      "duration": 0.168,
      "velocity": 88,
      "chip": "ym2612"
    },
    {
      "channel": 2,
      "note": 83,
      "start": 23.5837,
      "duration": 0.168,
      "velocity": 104,
      "chip": "ym2612"
    },
    {
      "channel": 5,
      "note": 66,
      "start": 23.6627,
      "duration": 0.0164,
      "velocity": 127,
      "chip": "ym2612"
    },
    {
      "channel": 3,
      "note": 47,
      "start": 23.7501,
      "duration": 0.1737,
      "velocity": 88,
      "chip": "ym2612"
    },
    {
      "channel": 2,
      "note": 78,
      "start": 23.7524,
      "duration": 0.1652,
      "velocity": 104,
      "chip": "ym2612"
    },
    {
      "channel": 5,
      "note": 66,
      "start": 23.7641,
      "duration": 0.0041,
      "velocity": 127,
      "chip": "ym2612"
    },
    {
      "channel": 5,
      "note": 66,
      "start": 23.8427,
      "duration": 0.0072,
      "velocity": 127,
      "chip": "ym2612"
    },
    {
      "channel": 2,
      "note": 78,
      "start": 23.9181,
      "duration": 0.1816,
      "velocity": 104,
      "chip": "ym2612"
    },
    {
      "channel": 5,
      "note": 66,
      "start": 23.9217,
      "duration": 0.0152,
      "velocity": 127,
      "chip": "ym2612"
    },
    {
      "channel": 3,
      "note": 47,
      "start": 23.9244,
      "duration": 0.1662,
      "velocity": 88,
      "chip": "ym2612"
    },
    {
      "channel": 5,
      "note": 66,
      "start": 24.0068,
      "duration": 0.0165,
      "velocity": 127,
      "chip": "ym2612"
    },
    {
      "channel": 3,
      "note": 59,
      "start": 24.0912,
      "duration": 0.1793,
      "velocity": 88,
      "chip": "ym2612"
    },
    {
      "channel": 0,
      "note": 66,
      "start": 24.0951,
      "duration": 0.6865,
      "velocity": 104,
      "chip": "ym2612"
    },
    {
      "channel": 2,
      "note": 83,
      "start": 24.1003,
      "duration": 0.1639,
      "velocity": 104,
      "chip": "ym2612"
    },
    {
      "channel": 5,
      "note": 66,
      "start": 24.1077,
      "duration": 0.0041,
      "velocity": 127,
      "chip": "ym2612"
    },
    {
      "channel": 5,
      "note": 66,
      "start": 24.1831,
      "duration": 0.0134,
      "velocity": 127,
      "chip": "ym2612"
    },
    {
      "channel": 2,
      "note": 78,
      "start": 24.2649,
      "duration": 0.1747,
      "velocity": 104,
      "chip": "ym2612"
    },
    {
      "channel": 5,
      "note": 66,
      "start": 24.2683,
      "duration": 0.0122,
      "velocity": 127,
      "chip": "ym2612"
    },
    {
      "channel": 3,
      "note": 47,
      "start": 24.2711,
      "duration": 0.1662,
      "velocity": 88,
      "chip": "ym2612"
    },
    {
      "channel": 5,
      "note": 66,
      "start": 24.3535,
      "duration": 0.0134,
      "velocity": 127,
      "chip": "ym2612"
    },
    {
      "channel": 3,
      "note": 59,
      "start": 24.4379,
      "duration": 0.1719,
      "velocity": 88,
      "chip": "ym2612"
    },
    {
      "channel": 2,
      "note": 83,
      "start": 24.4402,
      "duration": 0.1719,
      "velocity": 104,
      "chip": "ym2612"
    },
    {
      "channel": 5,
      "note": 66,
      "start": 24.4519,
      "duration": 0.0041,
      "velocity": 127,
      "chip": "ym2612"
    },
    {
      "channel": 5,
      "note": 66,
      "start": 24.5242,
      "duration": 0.0165,
      "velocity": 127,
      "chip": "ym2612"
    },
    {
      "channel": 5,
      "note": 66,
      "start": 24.6077,
      "duration": 0.0201,
      "velocity": 127,
      "chip": "ym2612"
    },
    {
      "channel": 3,
      "note": 47,
      "start": 24.6104,
      "duration": 0.1952,
      "velocity": 88,
      "chip": "ym2612"
    },
    {
      "channel": 2,
      "note": 78,
      "start": 24.6127,
      "duration": 0.1819,
      "velocity": 104,
      "chip": "ym2612"
    },
    {
      "channel": 5,
      "note": 66,
      "start": 24.6947,
      "duration": 0.0196,
      "velocity": 127,
      "chip": "ym2612"
    },
    {
      "channel": 1,
      "note": 47,
      "start": 24.78,
      "duration": 2.7622,
      "velocity": 111,
      "chip": "ym2612"
    },
    {
      "channel": 0,
      "note": 64,
      "start": 24.7822,
      "duration": 2.7513,
      "velocity": 104,
      "chip": "ym2612"
    },
    {
      "channel": 4,
      "note": 59,
      "start": 24.7865,
      "duration": 2.7512,
      "velocity": 94,
      "chip": "ym2612"
    },
    {
      "channel": 2,
      "note": 83,
      "start": 24.7952,
      "duration": 0.1631,
      "velocity": 104,
      "chip": "ym2612"
    },
    {
      "channel": 5,
      "note": 66,
      "start": 24.7986,
      "duration": 0.0049,
      "velocity": 127,
      "chip": "ym2612"
    },
    {
      "channel": 3,
      "note": 59,
      "start": 24.8062,
      "duration": 0.1498,
      "velocity": 88,
      "chip": "ym2612"
    },
    {
      "channel": 5,
      "note": 66,
      "start": 24.8736,
      "duration": 0.0072,
      "velocity": 127,
      "chip": "ym2612"
    },
    {
      "channel": 5,
      "note": 66,
      "start": 24.9539,
      "duration": 0.0139,
      "velocity": 127,
      "chip": "ym2612"
    },
    {
      "channel": 3,
      "note": 47,
      "start": 24.9566,
      "duration": 0.1649,
      "velocity": 88,
      "chip": "ym2612"
    },
    {
      "channel": 2,
      "note": 78,
      "start": 24.9589,
      "duration": 0.1649,
      "velocity": 104,
      "chip": "ym2612"
    },
    {
      "channel": 5,
      "note": 66,
      "start": 25.0409,
      "duration": 0.0134,
      "velocity": 127,
      "chip": "ym2612"
    },
    {
      "channel": 3,
      "note": 47,
      "start": 25.1222,
      "duration": 0.1749,
      "velocity": 88,
      "chip": "ym2612"
    },
    {
      "channel": 2,
      "note": 78,
      "start": 25.1244,
      "duration": 0.1788,
      "velocity": 104,
      "chip": "ym2612"
    },
    {
      "channel": 5,
      "note": 66,
      "start": 25.1362,
      "duration": 0.0041,
      "velocity": 127,
      "chip": "ym2612"
    },
    {
      "channel": 5,
      "note": 66,
      "start": 25.2147,
      "duration": 0.0134,
      "velocity": 127,
      "chip": "ym2612"
    },
    {
      "channel": 5,
      "note": 66,
      "start": 25.2951,
      "duration": 0.0208,
      "velocity": 127,
      "chip": "ym2612"
    },
    {
      "channel": 3,
      "note": 47,
      "start": 25.2977,
      "duration": 0.1732,
      "velocity": 88,
      "chip": "ym2612"
    },
    {
      "channel": 2,
      "note": 83,
      "start": 25.3039,
      "duration": 0.1693,
      "velocity": 104,
      "chip": "ym2612"
    },
    {
      "channel": 5,
      "note": 66,
      "start": 25.3828,
      "duration": 0.0196,
      "velocity": 127,
      "chip": "ym2612"
    },
    {
      "channel": 3,
      "note": 59,
      "start": 25.4715,
      "duration": 0.1737,
      "velocity": 88,
      "chip": "ym2612"
    },
    {
      "channel": 2,
      "note": 78,
      "start": 25.4738,
      "duration": 0.1737,
      "velocity": 104,
      "chip": "ym2612"
    },
    {
      "channel": 5,
      "note": 66,
      "start": 25.4811,
      "duration": 0.0041,
      "velocity": 127,
      "chip": "ym2612"
    },
    {
      "channel": 5,
      "note": 66,
      "start": 25.5596,
      "duration": 0.0104,
      "velocity": 127,
      "chip": "ym2612"
    },
    {
      "channel": 5,
      "note": 66,
      "start": 25.6432,
      "duration": 0.0139,
      "velocity": 127,
      "chip": "ym2612"
    },
    {
      "channel": 3,
      "note": 47,
      "start": 25.6458,
      "duration": 0.1662,
      "velocity": 88,
      "chip": "ym2612"
    },
    {
      "channel": 2,
      "note": 78,
      "start": 25.6482,
      "duration": 0.1707,
      "velocity": 104,
      "chip": "ym2612"
    },
    {
      "channel": 5,
      "note": 66,
      "start": 25.7302,
      "duration": 0.0134,
      "velocity": 127,
      "chip": "ym2612"
    },
    {
      "channel": 3,
      "note": 47,
      "start": 25.8127,
      "duration": 0.1744,
      "velocity": 88,
      "chip": "ym2612"
    },
    {
      "channel": 2,
      "note": 83,
      "start": 25.8195,
      "duration": 0.1698,
      "velocity": 104,
      "chip": "ym2612"
    },
    {
      "channel": 5,
      "note": 66,
      "start": 25.823,
      "duration": 0.0073,
      "velocity": 127,
      "chip": "ym2612"
    },
    {
      "channel": 5,
      "note": 66,
      "start": 25.9015,
      "duration": 0.0166,
      "velocity": 127,
      "chip": "ym2612"
    },
    {
      "channel": 5,
      "note": 66,
      "start": 25.985,
      "duration": 0.0171,
      "velocity": 127,
      "chip": "ym2612"
    },
    {
      "channel": 3,
      "note": 47,
      "start": 25.9877,
      "duration": 0.1743,
      "velocity": 88,
      "chip": "ym2612"
    },
    {
      "channel": 2,
      "note": 78,
      "start": 25.99,
      "duration": 0.1663,
      "velocity": 104,
      "chip": "ym2612"
    },
    {
      "channel": 5,
      "note": 66,
      "start": 26.072,
      "duration": 0.0196,
      "velocity": 127,
      "chip": "ym2612"
    },
    {
      "channel": 2,
      "note": 78,
      "start": 26.1569,
      "duration": 0.1807,
      "velocity": 104,
      "chip": "ym2612"
    },
    {
      "channel": 3,
      "note": 47,
      "start": 26.1626,
      "duration": 0.1671,
      "velocity": 88,
      "chip": "ym2612"
    },
    {
      "channel": 5,
      "note": 66,
      "start": 26.1704,
      "duration": 0.0041,
      "velocity": 127,
      "chip": "ym2612"
    },
    {
      "channel": 5,
      "note": 66,
      "start": 26.249,
      "duration": 0.0102,
      "velocity": 127,
      "chip": "ym2612"
    },
    {
      "channel": 3,
      "note": 59,
      "start": 26.3302,
      "duration": 0.1737,
      "velocity": 88,
      "chip": "ym2612"
    },
    {
      "channel": 5,
      "note": 66,
      "start": 26.3349,
      "duration": 0.009,
      "velocity": 127,
      "chip": "ym2612"
    },
    {
      "channel": 2,
      "note": 83,
      "start": 26.3382,
      "duration": 0.16,
      "velocity": 104,
      "chip": "ym2612"
    },
    {
      "channel": 5,
      "note": 66,
      "start": 26.4139,
      "duration": 0.0196,
      "velocity": 127,
      "chip": "ym2612"
    },
    {
      "channel": 2,
      "note": 78,
      "start": 26.4988,
      "duration": 0.1749,
      "velocity": 104,
      "chip": "ym2612"
    },
    {
      "channel": 3,
      "note": 47,
      "start": 26.5045,
      "duration": 0.167,
      "velocity": 88,
      "chip": "ym2612"
    },
    {
      "channel": 5,
      "note": 66,
      "start": 26.5123,
      "duration": 0.0072,
      "velocity": 127,
      "chip": "ym2612"
    },
    {
      "channel": 5,
      "note": 66,
      "start": 26.5909,
      "duration": 0.0134,
      "velocity": 127,
      "chip": "ym2612"
    },
    {
      "channel": 3,
      "note": 47,
      "start": 26.6721,
      "duration": 0.173,
      "velocity": 88,
      "chip": "ym2612"
    },
    {
      "channel": 2,
      "note": 78,
      "start": 26.6744,
      "duration": 0.178,
      "velocity": 104,
      "chip": "ym2612"
    },
    {
      "channel": 5,
      "note": 66,
      "start": 26.6779,
      "duration": 0.0134,
      "velocity": 127,
      "chip": "ym2612"
    },
    {
      "channel": 5,
      "note": 66,
      "start": 26.7613,
      "duration": 0.0134,
      "velocity": 127,
      "chip": "ym2612"
    },
    {
      "channel": 3,
      "note": 59,
      "start": 26.8456,
      "duration": 0.1712,
      "velocity": 88,
      "chip": "ym2612"
    },
    {
      "channel": 2,
      "note": 71,
      "start": 26.853,
      "duration": 0.0791,
      "velocity": 104,
      "chip": "ym2612"
    },
    {
      "channel": 5,
      "note": 66,
      "start": 26.8604,
      "duration": 0.0041,
      "velocity": 127,
      "chip": "ym2612"
    },
    {
      "channel": 2,
      "note": 73,
      "start": 26.9328,
      "duration": 0.0864,
      "velocity": 104,
      "chip": "ym2612"
    },
    {
      "channel": 5,
      "note": 66,
      "start": 26.9407,
      "duration": 0.0072,
      "velocity": 127,
      "chip": "ym2612"
    },
    {
      "channel": 5,
      "note": 66,
      "start": 27.0148,
      "duration": 0.0201,
      "velocity": 127,
      "chip": "ym2612"
    },
    {
      "channel": 3,
      "note": 47,
      "start": 27.0175,
      "duration": 0.1698,
      "velocity": 88,
      "chip": "ym2612"
    },
    {
      "channel": 2,
      "note": 76,
      "start": 27.0198,
      "duration": 0.0846,
      "velocity": 104,
      "chip": "ym2612"
    },
    {
      "channel": 5,
      "note": 66,
      "start": 27.1018,
      "duration": 0.0183,
      "velocity": 127,
      "chip": "ym2612"
    },
    {
      "channel": 2,
      "note": 78,
      "start": 27.105,
      "duration": 0.0846,
      "velocity": 104,
      "chip": "ym2612"
    },
    {
      "channel": 3,
      "note": 59,
      "start": 27.1879,
      "duration": 0.1786,
      "velocity": 88,
      "chip": "ym2612"
    },
    {
      "channel": 2,
      "note": 76,
      "start": 27.1902,
      "duration": 0.0835,
      "velocity": 104,
      "chip": "ym2612"
    },
    {
      "channel": 5,
      "note": 66,
      "start": 27.202,
      "duration": 0.0041,
      "velocity": 127,
      "chip": "ym2612"
    },
    {
      "channel": 2,
      "note": 78,
      "start": 27.2744,
      "duration": 0.0859,
      "velocity": 104,
      "chip": "ym2612"
    },
    {
      "channel": 5,
      "note": 66,
      "start": 27.2823,
      "duration": 0.0103,
      "velocity": 127,
      "chip": "ym2612"
    },
    {
      "channel": 2,
      "note": 81,
      "start": 27.3609,
      "duration": 0.0864,
      "velocity": 104,
      "chip": "ym2612"
    },
    {
      "channel": 5,
      "note": 66,
      "start": 27.3643,
      "duration": 0.0122,
      "velocity": 127,
      "chip": "ym2612"
    },
    {
      "channel": 3,
      "note": 47,
      "start": 27.3671,
      "duration": 0.1929,
      "velocity": 88,
      "chip": "ym2612"
    },
    {
      "channel": 2,
      "note": 83,
      "start": 27.4479,
      "duration": 0.1068,
      "velocity": 104,
      "chip": "ym2612"
    },
    {
      "channel": 5,
      "note": 66,
      "start": 27.4514,
      "duration": 0.0104,
      "velocity": 127,
      "chip": "ym2612"
    },
    {
      "channel": 0,
      "note": 59,
      "start": 27.5341,
      "duration": 2.0606,
      "velocity": 104,
      "chip": "ym2612"
    },
    {
      "channel": 4,
      "note": 59,
      "start": 27.5383,
      "duration": 2.7468,
      "velocity": 94,
      "chip": "ym2612"
    },
    {
      "channel": 1,
      "note": 47,
      "start": 27.5428,
      "duration": 2.7468,
      "velocity": 111,
      "chip": "ym2612"
    },
    {
      "channel": 5,
      "note": 66,
      "start": 27.5513,
      "duration": 0.0067,
      "velocity": 127,
      "chip": "ym2612"
    },
    {
      "channel": 2,
      "note": 83,
      "start": 27.5552,
      "duration": 0.1494,
      "velocity": 104,
      "chip": "ym2612"
    },
    {
      "channel": 3,
      "note": 59,
      "start": 27.5606,
      "duration": 0.1417,
      "velocity": 88,
      "chip": "ym2612"
    },
    {
      "channel": 5,
      "note": 66,
      "start": 27.6218,
      "duration": 0.0134,
      "velocity": 127,
      "chip": "ym2612"
    },
    {
      "channel": 3,
      "note": 47,
      "start": 27.703,
      "duration": 0.173,
      "velocity": 88,
      "chip": "ym2612"
    },
    {
      "channel": 2,
      "note": 78,
      "start": 27.7053,
      "duration": 0.1729,
      "velocity": 104,
      "chip": "ym2612"
    },
    {
      "channel": 5,
      "note": 66,
      "start": 27.7088,
      "duration": 0.0134,
      "velocity": 127,
      "chip": "ym2612"
    },
    {
      "channel": 5,
      "note": 66,
      "start": 27.7922,
      "duration": 0.0165,
      "velocity": 127,
      "chip": "ym2612"
    },
    {
      "channel": 3,
      "note": 47,
      "start": 27.8766,
      "duration": 0.175,
      "velocity": 88,
      "chip": "ym2612"
    },
    {
      "channel": 2,
      "note": 78,
      "start": 27.8788,
      "duration": 0.1789,
      "velocity": 104,
      "chip": "ym2612"
    },
    {
      "channel": 5,
      "note": 66,
      "start": 27.8906,
      "duration": 0.0041,
      "velocity": 127,
      "chip": "ym2612"
    },
    {
      "channel": 5,
      "note": 66,
      "start": 27.9691,
      "duration": 0.0072,
      "velocity": 127,
      "chip": "ym2612"
    },
    {
      "channel": 5,
      "note": 66,
      "start": 28.0495,
      "duration": 0.0146,
      "velocity": 127,
      "chip": "ym2612"
    },
    {
      "channel": 3,
      "note": 47,
      "start": 28.0522,
      "duration": 0.1657,
      "velocity": 88,
      "chip": "ym2612"
    },
    {
      "channel": 2,
      "note": 83,
      "start": 28.0583,
      "duration": 0.1618,
      "velocity": 104,
      "chip": "ym2612"
    },
    {
      "channel": 5,
      "note": 66,
      "start": 28.1372,
      "duration": 0.0134,
      "velocity": 127,
      "chip": "ym2612"
    },
    {
      "channel": 3,
      "note": 59,
      "start": 28.2185,
      "duration": 0.1749,
      "velocity": 88,
      "chip": "ym2612"
    },
    {
      "channel": 2,
      "note": 78,
      "start": 28.2207,
      "duration": 0.175,
      "velocity": 104,
      "chip": "ym2612"
    },
    {
      "channel": 5,
      "note": 66,
      "start": 28.2325,
      "duration": 0.0041,
      "velocity": 127,
      "chip": "ym2612"
    },
    {
      "channel": 5,
      "note": 66,
      "start": 28.311,
      "duration": 0.0134,
      "velocity": 127,
      "chip": "ym2612"
    },
    {
      "channel": 5,
      "note": 66,
      "start": 28.3914,
      "duration": 0.02,
      "velocity": 127,
      "chip": "ym2612"
    },
    {
      "channel": 3,
      "note": 47,
      "start": 28.394,
      "duration": 0.1724,
      "velocity": 88,
      "chip": "ym2612"
    },
    {
      "channel": 2,
      "note": 78,
      "start": 28.3964,
      "duration": 0.1769,
      "velocity": 104,
      "chip": "ym2612"
    },
    {
      "channel": 5,
      "note": 66,
      "start": 28.4783,
      "duration": 0.0196,
      "velocity": 127,
      "chip": "ym2612"
    },
    {
      "channel": 3,
      "note": 47,
      "start": 28.5671,
      "duration": 0.1745,
      "velocity": 88,
      "chip": "ym2612"
    },
    {
      "channel": 2,
      "note": 83,
      "start": 28.5739,
      "duration": 0.1699,
      "velocity": 104,
      "chip": "ym2612"
    },
    {
      "channel": 5,
      "note": 66,
      "start": 28.5774,
      "duration": 0.0041,
      "velocity": 127,
      "chip": "ym2612"
    },
    {
      "channel": 5,
      "note": 66,
      "start": 28.6561,
      "duration": 0.0102,
      "velocity": 127,
      "chip": "ym2612"
    },
    {
      "channel": 5,
      "note": 66,
      "start": 28.7395,
      "duration": 0.0139,
      "velocity": 127,
      "chip": "ym2612"
    },
    {
      "channel": 3,
      "note": 47,
      "start": 28.7421,
      "duration": 0.1662,
      "velocity": 88,
      "chip": "ym2612"
    },
    {
      "channel": 2,
      "note": 78,
      "start": 28.7445,
      "duration": 0.1661,
      "velocity": 104,
      "chip": "ym2612"
    },
    {
      "channel": 5,
      "note": 66,
      "start": 28.8202,
      "duration": 0.0196,
      "velocity": 127,
      "chip": "ym2612"
    },
    {
      "channel": 3,
      "note": 47,
      "start": 28.909,
      "duration": 0.1737,
      "velocity": 88,
      "chip": "ym2612"
    },
    {
      "channel": 2,
      "note": 78,
      "start": 28.9113,
      "duration": 0.1776,
      "velocity": 104,
      "chip": "ym2612"
    },
    {
      "channel": 5,
      "note": 66,
      "start": 28.9186,
      "duration": 0.0073,
      "velocity": 127,
      "chip": "ym2612"
    },
    {
      "channel": 5,
      "note": 66,
      "start": 29.0003,
      "duration": 0.0134,
      "velocity": 127,
      "chip": "ym2612"
    },
    {
      "channel": 5,
      "note": 66,
      "start": 29.0805,
      "duration": 0.0178,
      "velocity": 127,
      "chip": "ym2612"
    },
    {
      "channel": 3,
      "note": 59,
      "start": 29.0833,
      "duration": 0.175,
      "velocity": 88,
      "chip": "ym2612"
    },
    {
      "channel": 2,
      "note": 83,
      "start": 29.0895,
      "duration": 0.1631,
      "velocity": 104,
      "chip": "ym2612"
    },
    {
      "channel": 5,
      "note": 66,
      "start": 29.1683,
      "duration": 0.0134,
      "velocity": 127,
      "chip": "ym2612"
    },
    {
      "channel": 2,
      "note": 78,
      "start": 29.2532,
      "duration": 0.1749,
      "velocity": 104,
      "chip": "ym2612"
    },
    {
      "channel": 3,
      "note": 47,
      "start": 29.2589,
      "duration": 0.167,
      "velocity": 88,
      "chip": "ym2612"
    },
    {
      "channel": 5,
      "note": 66,
      "start": 29.2667,
      "duration": 0.0041,
      "velocity": 127,
      "chip": "ym2612"
    },
    {
      "channel": 5,
      "note": 66,
      "start": 29.3453,
      "duration": 0.0103,
      "velocity": 127,
      "chip": "ym2612"
    },
    {
      "channel": 3,
      "note": 47,
      "start": 29.4265,
      "duration": 0.173,
      "velocity": 88,
      "chip": "ym2612"
    },
    {
      "channel": 2,
      "note": 78,
      "start": 29.4288,
      "duration": 0.1774,
      "velocity": 104,
      "chip": "ym2612"
    },
    {
      "channel": 5,
      "note": 66,
      "start": 29.4323,
      "duration": 0.0103,
      "velocity": 127,
      "chip": "ym2612"
    },
    {
      "channel": 5,
      "note": 66,
      "start": 29.5095,
      "duration": 0.0196,
      "velocity": 127,
      "chip": "ym2612"
    },
    {
      "channel": 0,
      "note": 66,
      "start": 29.5953,
      "duration": 0.6966,
      "velocity": 104,
      "chip": "ym2612"
    },
    {
      "channel": 3,
      "note": 59,
      "start": 29.6001,
      "duration": 0.1712,
      "velocity": 88,
      "chip": "ym2612"
    },
    {
      "channel": 2,
      "note": 83,
      "start": 29.6068,
      "duration": 0.1667,
      "velocity": 104,
      "chip": "ym2612"
    },
    {
      "channel": 5,
      "note": 66,
      "start": 29.6103,
      "duration": 0.0041,
      "velocity": 127,
      "chip": "ym2612"
    },
    {
      "channel": 5,
      "note": 66,
      "start": 29.6888,
      "duration": 0.0134,
      "velocity": 127,
      "chip": "ym2612"
    },
    {
      "channel": 5,
      "note": 66,
      "start": 29.7692,
      "duration": 0.0201,
      "velocity": 127,
      "chip": "ym2612"
    },
    {
      "channel": 3,
      "note": 47,
      "start": 29.7719,
      "duration": 0.1724,
      "velocity": 88,
      "chip": "ym2612"
    },
    {
      "channel": 2,
      "note": 78,
      "start": 29.7742,
      "duration": 0.1724,
      "velocity": 104,
      "chip": "ym2612"
    },
    {
      "channel": 5,
      "note": 66,
      "start": 29.8562,
      "duration": 0.0134,
      "velocity": 127,
      "chip": "ym2612"
    },
    {
      "channel": 3,
      "note": 59,
      "start": 29.9449,
      "duration": 0.1676,
      "velocity": 88,
      "chip": "ym2612"
    },
    {
      "channel": 2,
      "note": 83,
      "start": 29.9472,
      "duration": 0.1676,
      "velocity": 104,
      "chip": "ym2612"
    },
    {
      "channel": 5,
      "note": 66,
      "start": 29.9545,
      "duration": 0.0041,
      "velocity": 127,
      "chip": "ym2612"
    },
    {
      "channel": 5,
      "note": 66,
      "start": 30.033,
      "duration": 0.0104,
      "velocity": 127,
      "chip": "ym2612"
    },
    {
      "channel": 5,
      "note": 66,
      "start": 30.1104,
      "duration": 0.02,
      "velocity": 127,
      "chip": "ym2612"
    },
    {
      "channel": 3,
      "note": 47,
      "start": 30.1131,
      "duration": 0.1952,
      "velocity": 88,
      "chip": "ym2612"
    },
    {
      "channel": 2,
      "note": 78,
      "start": 30.1154,
      "duration": 0.1818,
      "velocity": 104,
      "chip": "ym2612"
    },
    {
      "channel": 5,
      "note": 66,
      "start": 30.1973,
      "duration": 0.0196,
      "velocity": 127,
      "chip": "ym2612"
    },
    {
      "channel": 4,
      "note": 66,
      "start": 30.2856,
      "duration": 2.7592,
      "velocity": 94,
      "chip": "ym2612"
    },
    {
      "channel": 1,
      "note": 47,
      "start": 30.2902,
      "duration": 2.7829,
      "velocity": 111,
      "chip": "ym2612"
    },
    {
      "channel": 0,
      "note": 69,
      "start": 30.2924,
      "duration": 2.7733,
      "velocity": 104,
      "chip": "ym2612"
    },
    {
      "channel": 2,
      "note": 83,
      "start": 30.2979,
      "duration": 0.1612,
      "velocity": 104,
      "chip": "ym2612"
    },
    {
      "channel": 5,
      "note": 66,
      "start": 30.3014,
      "duration": 0.0048,
      "velocity": 127,
      "chip": "ym2612"
    },
    {
      "channel": 3,
      "note": 59,
      "start": 30.3089,
      "duration": 0.148,
      "velocity": 88,
      "chip": "ym2612"
    },
    {
      "channel": 5,
      "note": 66,
      "start": 30.3762,
      "duration": 0.0134,
      "velocity": 127,
      "chip": "ym2612"
    },
    {
      "channel": 3,
      "note": 47,
      "start": 30.4575,
      "duration": 0.1729,
      "velocity": 88,
      "chip": "ym2612"
    },
    {
      "channel": 2,
      "note": 78,
      "start": 30.4598,
      "duration": 0.1729,
      "velocity": 104,
      "chip": "ym2612"
    },
    {
      "channel": 5,
      "note": 66,
      "start": 30.4632,
      "duration": 0.0103,
      "velocity": 127,
      "chip": "ym2612"
    },
    {
      "channel": 5,
      "note": 66,
      "start": 30.5466,
      "duration": 0.0134,
      "velocity": 127,
      "chip": "ym2612"
    },
    {
      "channel": 3,
      "note": 47,
      "start": 30.6311,
      "duration": 0.1727,
      "velocity": 88,
      "chip": "ym2612"
    },
    {
      "channel": 2,
      "note": 78,
      "start": 30.6333,
      "duration": 0.1727,
      "velocity": 104,
      "chip": "ym2612"
    },
    {
      "channel": 5,
      "note": 66,
      "start": 30.6451,
      "duration": 0.0041,
      "velocity": 127,
      "chip": "ym2612"
    },
    {
      "channel": 5,
      "note": 66,
      "start": 30.7174,
      "duration": 0.0134,
      "velocity": 127,
      "chip": "ym2612"
    },
    {
      "channel": 5,
      "note": 66,
      "start": 30.8015,
      "duration": 0.0171,
      "velocity": 127,
      "chip": "ym2612"
    },
    {
      "channel": 3,
      "note": 47,
      "start": 30.8044,
      "duration": 0.168,
      "velocity": 88,
      "chip": "ym2612"
    },
    {
      "channel": 2,
      "note": 83,
      "start": 30.8066,
      "duration": 0.168,
      "velocity": 104,
      "chip": "ym2612"
    },
    {
      "channel": 5,
      "note": 66,
      "start": 30.8855,
      "duration": 0.0196,
      "velocity": 127,
      "chip": "ym2612"
    },
    {
      "channel": 3,
      "note": 59,
      "start": 30.973,
      "duration": 0.1749,
      "velocity": 88,
      "chip": "ym2612"
    },
    {
      "channel": 2,
      "note": 78,
      "start": 30.9753,
      "duration": 0.175,
      "velocity": 104,
      "chip": "ym2612"
    },
    {
      "channel": 5,
      "note": 66,
      "start": 30.9871,
      "duration": 0.0041,
      "velocity": 127,
      "chip": "ym2612"
    },
    {
      "channel": 5,
      "note": 66,
      "start": 31.0655,
      "duration": 0.0073,
      "velocity": 127,
      "chip": "ym2612"
    },
    {
      "channel": 5,
      "note": 66,
      "start": 31.1459,
      "duration": 0.0139,
      "velocity": 127,
      "chip": "ym2612"
    },
    {
      "channel": 3,
      "note": 47,
      "start": 31.1486,
      "duration": 0.1649,
      "velocity": 88,
      "chip": "ym2612"
    },
    {
      "channel": 2,
      "note": 78,
      "start": 31.1509,
      "duration": 0.17,
      "velocity": 104,
      "chip": "ym2612"
    },
    {
      "channel": 5,
      "note": 66,
      "start": 31.2329,
      "duration": 0.0134,
      "velocity": 127,
      "chip": "ym2612"
    },
    {
      "channel": 3,
      "note": 47,
      "start": 31.3141,
      "duration": 0.1757,
      "velocity": 88,
      "chip": "ym2612"
    },
    {
      "channel": 2,
      "note": 83,
      "start": 31.3216,
      "duration": 0.1705,
      "velocity": 104,
      "chip": "ym2612"
    },
    {
      "channel": 5,
      "note": 66,
      "start": 31.329,
      "duration": 0.0041,
      "velocity": 127,
      "chip": "ym2612"
    },
    {
      "channel": 5,
      "note": 66,
      "start": 31.4075,
      "duration": 0.0134,
      "velocity": 127,
      "chip": "ym2612"
    },
    {
      "channel": 5,
      "note": 66,
      "start": 31.4877,
      "duration": 0.0201,
      "velocity": 127,
      "chip": "ym2612"
    },
    {
      "channel": 3,
      "note": 47,
      "start": 31.4905,
      "duration": 0.1724,
      "velocity": 88,
      "chip": "ym2612"
    },
    {
      "channel": 2,
      "note": 78,
      "start": 31.4928,
      "duration": 0.1724,
      "velocity": 104,
      "chip": "ym2612"
    },
    {
      "channel": 5,
      "note": 66,
      "start": 31.5748,
      "duration": 0.0196,
      "velocity": 127,
      "chip": "ym2612"
    },
    {
      "channel": 3,
      "note": 47,
      "start": 31.6635,
      "duration": 0.1737,
      "velocity": 88,
      "chip": "ym2612"
    },
    {
      "channel": 2,
      "note": 78,
      "start": 31.6658,
      "duration": 0.1775,
      "velocity": 104,
      "chip": "ym2612"
    },
    {
      "channel": 5,
      "note": 66,
      "start": 31.6731,
      "duration": 0.0041,
      "velocity": 127,
      "chip": "ym2612"
    },
    {
      "channel": 5,
      "note": 66,
      "start": 31.7547,
      "duration": 0.0072,
      "velocity": 127,
      "chip": "ym2612"
    },
    {
      "channel": 5,
      "note": 66,
      "start": 31.8351,
      "duration": 0.0146,
      "velocity": 127,
      "chip": "ym2612"
    },
    {
      "channel": 3,
      "note": 59,
      "start": 31.8378,
      "duration": 0.1669,
      "velocity": 88,
      "chip": "ym2612"
    },
    {
      "channel": 2,
      "note": 83,
      "start": 31.844,
      "duration": 0.1631,
      "velocity": 104,
      "chip": "ym2612"
    },
    {
      "channel": 5,
      "note": 66,
      "start": 31.9166,
      "duration": 0.0196,
      "velocity": 127,
      "chip": "ym2612"
    },
    {
      "channel": 3,
      "note": 47,
      "start": 32.0054,
      "duration": 0.1737,
      "velocity": 88,
      "chip": "ym2612"
    },
    {
      "channel": 2,
      "note": 78,
      "start": 32.0077,
      "duration": 0.1737,
      "velocity": 104,
      "chip": "ym2612"
    },
    {
      "channel": 5,
      "note": 66,
      "start": 32.015,
      "duration": 0.0073,
      "velocity": 127,
      "chip": "ym2612"
    },
    {
      "channel": 5,
      "note": 66,
      "start": 32.0966,
      "duration": 0.0134,
      "velocity": 127,
      "chip": "ym2612"
    },
    {
      "channel": 5,
      "note": 66,
      "start": 32.1769,
      "duration": 0.0201,
      "velocity": 127,
      "chip": "ym2612"
    },
    {
      "channel": 3,
      "note": 47,
      "start": 32.1797,
      "duration": 0.1724,
      "velocity": 88,
      "chip": "ym2612"
    },
    {
      "channel": 2,
      "note": 78,
      "start": 32.182,
      "duration": 0.177,
      "velocity": 104,
      "chip": "ym2612"
    },
    {
      "channel": 5,
      "note": 66,
      "start": 32.2639,
      "duration": 0.0134,
      "velocity": 127,
      "chip": "ym2612"
    },
    {
      "channel": 3,
      "note": 59,
      "start": 32.3527,
      "duration": 0.1651,
      "velocity": 88,
      "chip": "ym2612"
    },
    {
      "channel": 2,
      "note": 71,
      "start": 32.3596,
      "duration": 0.0797,
      "velocity": 104,
      "chip": "ym2612"
    },
    {
      "channel": 5,
      "note": 66,
      "start": 32.363,
      "duration": 0.0041,
      "velocity": 127,
      "chip": "ym2612"
    },
    {
      "channel": 2,
      "note": 73,
      "start": 32.4399,
      "duration": 0.0802,
      "velocity": 104,
      "chip": "ym2612"
    },
    {
      "channel": 5,
      "note": 66,
      "start": 32.4434,
      "duration": 0.0072,
      "velocity": 127,
      "chip": "ym2612"
    },
    {
      "channel": 3,
      "note": 47,
      "start": 32.5185,
      "duration": 0.176,
      "velocity": 88,
      "chip": "ym2612"
    },
    {
      "channel": 2,
      "note": 76,
      "start": 32.5207,
      "duration": 0.0864,
      "velocity": 104,
      "chip": "ym2612"
    },
    {
      "channel": 5,
      "note": 66,
      "start": 32.5243,
      "duration": 0.0134,
      "velocity": 127,
      "chip": "ym2612"
    },
    {
      "channel": 5,
      "note": 66,
      "start": 32.6046,
      "duration": 0.0213,
      "velocity": 127,
      "chip": "ym2612"
    },
    {
      "channel": 2,
      "note": 78,
      "start": 32.6078,
      "duration": 0.089,
      "velocity": 104,
      "chip": "ym2612"
    },
    {
      "channel": 3,
      "note": 59,
      "start": 32.6951,
      "duration": 0.1724,
      "velocity": 88,
      "chip": "ym2612"
    },
    {
      "channel": 2,
      "note": 76,
      "start": 32.6974,
      "duration": 0.0835,
      "velocity": 104,
      "chip": "ym2612"
    },
    {
      "channel": 5,
      "note": 66,
      "start": 32.7047,
      "duration": 0.0072,
      "velocity": 127,
      "chip": "ym2612"
    },
    {
      "channel": 2,
      "note": 78,
      "start": 32.7815,
      "duration": 0.0882,
      "velocity": 104,
      "chip": "ym2612"
    },
    {
      "channel": 5,
      "note": 66,
      "start": 32.785,
      "duration": 0.0134,
      "velocity": 127,
      "chip": "ym2612"
    },
    {
      "channel": 5,
      "note": 66,
      "start": 32.8654,
      "duration": 0.0139,
      "velocity": 127,
      "chip": "ym2612"
    },
    {
      "channel": 3,
      "note": 47,
      "start": 32.8681,
      "duration": 0.2128,
      "velocity": 88,
      "chip": "ym2612"
    },
    {
      "channel": 2,
      "note": 81,
      "start": 32.8704,
      "duration": 0.0845,
      "velocity": 104,
      "chip": "ym2612"
    },
    {
      "channel": 5,
      "note": 66,
      "start": 32.9524,
      "duration": 0.0152,
      "velocity": 127,
      "chip": "ym2612"
    },
    {
      "channel": 2,
      "note": 83,
      "start": 32.9556,
      "duration": 0.1275,
      "velocity": 104,
      "chip": "ym2612"
    },
    {
      "channel": 4,
      "note": 40,
      "start": 33.0795,
      "duration": 0.1219,
      "velocity": 113,
      "chip": "ym2612"
    },
    {
      "channel": 0,
      "note": 52,
      "start": 33.0879,
      "duration": 10.2484,
      "velocity": 94,
      "chip": "ym2612"
    },
    {
      "channel": 1,
      "note": 76,
      "start": 33.0966,
      "duration": 0.9105,
      "velocity": 122,
      "chip": "ym2612"
    },
    {
      "channel": 3,
      "note": 64,
      "start": 33.1023,
      "duration": 0.9002,
      "velocity": 122,
      "chip": "ym2612"
    },
    {
      "channel": 2,
      "note": 71,
      "start": 33.1046,
      "duration": 0.9002,
      "velocity": 122,
      "chip": "ym2612"
    },
    {
      "channel": 5,
      "note": 66,
      "start": 33.1081,
      "duration": 0.2527,
      "velocity": 127,
      "chip": "ym2612"
    },
    {
      "channel": 4,
      "note": 40,
      "start": 33.2021,
      "duration": 0.1731,
      "velocity": 113,
      "chip": "ym2612"
    },
    {
      "channel": 5,
      "note": 66,
      "start": 33.3736,
      "duration": 0.3041,
      "velocity": 127,
      "chip": "ym2612"
    },
    {
      "channel": 4,
      "note": 40,
      "start": 33.3759,
      "duration": 0.1487,
      "velocity": 113,
      "chip": "ym2612"
    },
    {
      "channel": 4,
      "note": 40,
      "start": 33.5252,
      "duration": 0.1671,
      "velocity": 113,
      "chip": "ym2612"
    },
    {
      "channel": 5,
      "note": 66,
      "start": 33.6907,
      "duration": 0.1519,
      "velocity": 127,
      "chip": "ym2612"
    },
    {
      "channel": 4,
      "note": 40,
      "start": 33.693,
      "duration": 0.1567,
      "velocity": 113,
      "chip": "ym2612"
    },
    {
      "channel": 5,
      "note": 66,
      "start": 33.8432,
      "duration": 0.1667,
      "velocity": 127,
      "chip": "ym2612"
    },
    {
      "channel": 4,
      "note": 40,
      "start": 33.8503,
      "duration": 0.1674,
      "velocity": 113,
      "chip": "ym2612"
    },
    {
      "channel": 3,
      "note": 64,
      "start": 34.0032,
      "duration": 0.1631,
      "velocity": 122,
      "chip": "ym2612"
    },
    {
      "channel": 2,
      "note": 71,
      "start": 34.0055,
      "duration": 0.1631,
      "velocity": 122,
      "chip": "ym2612"
    },
    {
      "channel": 1,
      "note": 76,
      "start": 34.0078,
      "duration": 0.1631,
      "velocity": 122,
      "chip": "ym2612"
    },
    {
      "channel": 4,
      "note": 40,
      "start": 34.0183,
      "duration": 0.1578,
      "velocity": 113,
      "chip": "ym2612"
    },
    {
      "channel": 5,
      "note": 66,
      "start": 34.0228,
      "duration": 0.1508,
      "velocity": 127,
      "chip": "ym2612"
    },
    {
      "channel": 3,
      "note": 66,
      "start": 34.1669,
      "duration": 1.127,
      "velocity": 122,
      "chip": "ym2612"
    },
    {
      "channel": 2,
      "note": 73,
      "start": 34.1692,
      "duration": 1.1168,
      "velocity": 122,
      "chip": "ym2612"
    },
    {
      "channel": 1,
      "note": 78,
      "start": 34.1715,
      "duration": 1.1159,
      "velocity": 122,
      "chip": "ym2612"
    },
    {
      "channel": 4,
      "note": 40,
      "start": 34.1767,
      "duration": 0.16,
      "velocity": 113,
      "chip": "ym2612"
    },
    {
      "channel": 5,
      "note": 66,
      "start": 34.186,
      "duration": 0.1377,
      "velocity": 127,
      "chip": "ym2612"
    },
    {
      "channel": 5,
      "note": 66,
      "start": 34.3243,
      "duration": 0.3212,
      "velocity": 127,
      "chip": "ym2612"
    },
    {
      "channel": 4,
      "note": 40,
      "start": 34.3374,
      "duration": 0.1519,
      "velocity": 113,
      "chip": "ym2612"
    },
    {
      "channel": 4,
      "note": 40,
      "start": 34.4899,
      "duration": 0.1701,
      "velocity": 113,
      "chip": "ym2612"
    },
    {
      "channel": 5,
      "note": 66,
      "start": 34.6583,
      "duration": 0.3103,
      "velocity": 127,
      "chip": "ym2612"
    },
    {
      "channel": 4,
      "note": 40,
      "start": 34.6606,
      "duration": 0.1487,
      "velocity": 113,
      "chip": "ym2612"
    },
    {
      "channel": 4,
      "note": 40,
      "start": 34.81,
      "duration": 0.1734,
      "velocity": 113,
      "chip": "ym2612"
    },
    {
      "channel": 5,
      "note": 66,
      "start": 34.9817,
      "duration": 0.1458,
      "velocity": 127,
      "chip": "ym2612"
    },
    {
      "channel": 4,
      "note": 40,
      "start": 34.984,
      "duration": 0.1506,
      "velocity": 113,
      "chip": "ym2612"
    },
    {
      "channel": 5,
      "note": 66,
      "start": 35.1281,
      "duration": 0.1614,
      "velocity": 127,
      "chip": "ym2612"
    },
    {
      "channel": 4,
      "note": 40,
      "start": 35.1352,
      "duration": 0.1697,
      "velocity": 113,
      "chip": "ym2612"
    },
    {
      "channel": 5,
      "note": 66,
      "start": 35.3033,
      "duration": 0.318,
      "velocity": 127,
      "chip": "ym2612"
    },
    {
      "channel": 4,
      "note": 40,
      "start": 35.3056,
      "duration": 0.1518,
      "velocity": 113,
      "chip": "ym2612"
    },
    {
      "channel": 4,
      "note": 40,
      "start": 35.458,
      "duration": 0.1713,
      "velocity": 113,
      "chip": "ym2612"
    },
    {
      "channel": 3,
      "note": 67,
      "start": 35.6093,
      "duration": 0.9698,
      "velocity": 122,
      "chip": "ym2612"
    },
    {
      "channel": 2,
      "note": 74,
      "start": 35.6115,
      "duration": 0.9698,
      "velocity": 122,
      "chip": "ym2612"
    },
    {
      "channel": 1,
      "note": 79,
      "start": 35.6138,
      "duration": 0.958,
      "velocity": 122,
      "chip": "ym2612"
    },
    {
      "channel": 4,
      "note": 40,
      "start": 35.63,
      "duration": 0.1444,
      "velocity": 113,
      "chip": "ym2612"
    },
    {
      "channel": 5,
      "note": 66,
      "start": 35.6344,
      "duration": 0.3008,
      "velocity": 127,
      "chip": "ym2612"
    },
    {
      "channel": 4,
      "note": 40,
      "start": 35.775,
      "duration": 0.1682,
      "velocity": 113,
      "chip": "ym2612"
    },
    {
      "channel": 4,
      "note": 40,
      "start": 35.9438,
      "duration": 0.1536,
      "velocity": 113,
      "chip": "ym2612"
    },
    {
      "channel": 5,
      "note": 66,
      "start": 35.9482,
      "duration": 0.3054,
      "velocity": 127,
      "chip": "ym2612"
    },
    {
      "channel": 4,
      "note": 40,
      "start": 36.098,
      "duration": 0.1703,
      "velocity": 113,
      "chip": "ym2612"
    },
    {
      "channel": 5,
      "note": 66,
      "start": 36.2667,
      "duration": 0.1505,
      "velocity": 127,
      "chip": "ym2612"
    },
    {
      "channel": 4,
      "note": 40,
      "start": 36.269,
      "duration": 0.1505,
      "velocity": 113,
      "chip": "ym2612"
    },
    {
      "channel": 5,
      "note": 66,
      "start": 36.4178,
      "duration": 0.1566,
      "velocity": 127,
      "chip": "ym2612"
    },
    {
      "channel": 4,
      "note": 40,
      "start": 36.4201,
      "duration": 0.1723,
      "velocity": 113,
      "chip": "ym2612"
    },
    {
      "channel": 1,
      "note": 79,
      "start": 36.5723,
      "duration": 0.1732,
      "velocity": 122,
      "chip": "ym2612"
    },
    {
      "channel": 3,
      "note": 67,
      "start": 36.5797,
      "duration": 0.1612,
      "velocity": 122,
      "chip": "ym2612"
    },
    {
      "channel": 2,
      "note": 74,
      "start": 36.582,
      "duration": 0.1611,
      "velocity": 122,
      "chip": "ym2612"
    },
    {
      "channel": 5,
      "note": 66,
      "start": 36.5908,
      "duration": 0.1454,
      "velocity": 127,
      "chip": "ym2612"
    },
    {
      "channel": 4,
      "note": 40,
      "start": 36.5931,
      "duration": 0.1576,
      "velocity": 113,
      "chip": "ym2612"
    },
    {
      "channel": 3,
      "note": 69,
      "start": 36.7415,
      "duration": 1.123,
      "velocity": 122,
      "chip": "ym2612"
    },
    {
      "channel": 2,
      "note": 76,
      "start": 36.7438,
      "duration": 1.1221,
      "velocity": 122,
      "chip": "ym2612"
    },
    {
      "channel": 1,
      "note": 81,
      "start": 36.7461,
      "duration": 1.1212,
      "velocity": 122,
      "chip": "ym2612"
    },
    {
      "channel": 4,
      "note": 40,
      "start": 36.7513,
      "duration": 0.1584,
      "velocity": 113,
      "chip": "ym2612"
    },
    {
      "channel": 5,
      "note": 66,
      "start": 36.7557,
      "duration": 0.1429,
      "velocity": 127,
      "chip": "ym2612"
    },
    {
      "channel": 5,
      "note": 66,
      "start": 36.8993,
      "duration": 0.3189,
      "velocity": 127,
      "chip": "ym2612"
    },
    {
      "channel": 4,
      "note": 40,
      "start": 36.9103,
      "duration": 0.1549,
      "velocity": 113,
      "chip": "ym2612"
    },
    {
      "channel": 4,
      "note": 40,
      "start": 37.0658,
      "duration": 0.1669,
      "velocity": 113,
      "chip": "ym2612"
    },
    {
      "channel": 5,
      "note": 66,
      "start": 37.2311,
      "duration": 0.328,
      "velocity": 127,
      "chip": "ym2612"
    },
    {
      "channel": 4,
      "note": 40,
      "start": 37.2334,
      "duration": 0.1487,
      "velocity": 113,
      "chip": "ym2612"
    },
    {
      "channel": 4,
      "note": 40,
      "start": 37.3827,
      "duration": 0.1719,
      "velocity": 113,
      "chip": "ym2612"
    },
    {
      "channel": 4,
      "note": 40,
      "start": 37.5552,
      "duration": 0.1492,
      "velocity": 113,
      "chip": "ym2612"
    },
    {
      "channel": 5,
      "note": 66,
      "start": 37.5597,
      "duration": 0.0655,
      "velocity": 127,
      "chip": "ym2612"
    },
    {
      "channel": 5,
      "note": 66,
      "start": 37.6258,
      "duration": 0.0877,
      "velocity": 127,
      "chip": "ym2612"
    },
    {
      "channel": 4,
      "note": 40,
      "start": 37.7051,
      "duration": 0.1712,
      "velocity": 113,
      "chip": "ym2612"
    },
    {
      "channel": 5,
      "note": 66,
      "start": 37.7141,
      "duration": 0.0747,
      "velocity": 127,
      "chip": "ym2612"
    },
    {
      "channel": 5,
      "note": 66,
      "start": 37.7895,
      "duration": 0.0912,
      "velocity": 127,
      "chip": "ym2612"
    },
    {
      "channel": 4,
      "note": 40,
      "start": 37.8769,
      "duration": 0.1537,
      "velocity": 113,
      "chip": "ym2612"
    },
    {
      "channel": 5,
      "note": 66,
      "start": 37.8813,
      "duration": 0.0686,
      "velocity": 127,
      "chip": "ym2612"
    },
    {
      "channel": 5,
      "note": 66,
      "start": 37.9505,
      "duration": 0.0846,
      "velocity": 127,
      "chip": "ym2612"
    },
    {
      "channel": 4,
      "note": 40,
      "start": 38.0312,
      "duration": 0.1658,
      "velocity": 113,
      "chip": "ym2612"
    },
    {
      "channel": 5,
      "note": 66,
      "start": 38.0357,
      "duration": 0.0779,
      "velocity": 127,
      "chip": "ym2612"
    },
    {
      "channel": 5,
      "note": 66,
      "start": 38.1143,
      "duration": 0.0947,
      "velocity": 127,
      "chip": "ym2612"
    },
    {
      "channel": 3,
      "note": 64,
      "start": 38.1845,
      "duration": 0.6482,
      "velocity": 122,
      "chip": "ym2612"
    },
    {
      "channel": 2,
      "note": 71,
      "start": 38.1868,
      "duration": 0.6482,
      "velocity": 122,
      "chip": "ym2612"
    },
    {
      "channel": 1,
      "note": 76,
      "start": 38.1891,
      "duration": 0.6363,
      "velocity": 122,
      "chip": "ym2612"
    },
    {
      "channel": 4,
      "note": 40,
      "start": 38.1977,
      "duration": 0.1524,
      "velocity": 113,
      "chip": "ym2612"
    },
    {
      "channel": 5,
      "note": 66,
      "start": 38.2195,
      "duration": 0.2836,
      "velocity": 127,
      "chip": "ym2612"
    },
    {
      "channel": 4,
      "note": 40,
      "start": 38.3507,
      "duration": 0.1669,
      "velocity": 113,
      "chip": "ym2612"
    },
    {
      "channel": 5,
      "note": 66,
      "start": 38.516,
      "duration": 0.312,
      "velocity": 127,
      "chip": "ym2612"
    },
    {
      "channel": 4,
      "note": 40,
      "start": 38.5183,
      "duration": 0.1549,
      "velocity": 113,
      "chip": "ym2612"
    },
    {
      "channel": 4,
      "note": 40,
      "start": 38.6738,
      "duration": 0.1725,
      "velocity": 113,
      "chip": "ym2612"
    },
    {
      "channel": 1,
      "note": 78,
      "start": 38.826,
      "duration": 0.6499,
      "velocity": 122,
      "chip": "ym2612"
    },
    {
      "channel": 3,
      "note": 66,
      "start": 38.8334,
      "duration": 0.6379,
      "velocity": 122,
      "chip": "ym2612"
    },
    {
      "channel": 2,
      "note": 73,
      "start": 38.8356,
      "duration": 0.6379,
      "velocity": 122,
      "chip": "ym2612"
    },
    {
      "channel": 5,
      "note": 66,
      "start": 38.8447,
      "duration": 0.1396,
      "velocity": 127,
      "chip": "ym2612"
    },
    {
      "channel": 4,
      "note": 40,
      "start": 38.847,
      "duration": 0.1444,
      "velocity": 113,
      "chip": "ym2612"
    },
    {
      "channel": 5,
      "note": 66,
      "start": 38.9849,
      "duration": 0.1674,
      "velocity": 127,
      "chip": "ym2612"
    },
    {
      "channel": 4,
      "note": 40,
      "start": 38.992,
      "duration": 0.1682,
      "velocity": 113,
      "chip": "ym2612"
    },
    {
      "channel": 4,
      "note": 40,
      "start": 39.1608,
      "duration": 0.1571,
      "velocity": 113,
      "chip": "ym2612"
    },
    {
      "channel": 5,
      "note": 66,
      "start": 39.1652,
      "duration": 0.1436,
      "velocity": 127,
      "chip": "ym2612"
    },
    {
      "channel": 4,
      "note": 40,
      "start": 39.3185,
      "duration": 0.1647,
      "velocity": 113,
      "chip": "ym2612"
    },
    {
      "channel": 5,
      "note": 66,
      "start": 39.3229,
      "duration": 0.1439,
      "velocity": 127,
      "chip": "ym2612"
    },
    {
      "channel": 5,
      "note": 66,
      "start": 39.4675,
      "duration": 0.3212,
      "velocity": 127,
      "chip": "ym2612"
    },
    {
      "channel": 3,
      "note": 67,
      "start": 39.4719,
      "duration": 0.6464,
      "velocity": 122,
      "chip": "ym2612"
    },
    {
      "channel": 2,
      "note": 74,
      "start": 39.4742,
      "duration": 0.6464,
      "velocity": 122,
      "chip": "ym2612"
    },
    {
      "channel": 1,
      "note": 79,
      "start": 39.4765,
      "duration": 0.6345,
      "velocity": 122,
      "chip": "ym2612"
    },
    {
      "channel": 4,
      "note": 40,
      "start": 39.4838,
      "duration": 0.1518,
      "velocity": 113,
      "chip": "ym2612"
    },
    {
      "channel": 4,
      "note": 40,
      "start": 39.6363,
      "duration": 0.1669,
      "velocity": 113,
      "chip": "ym2612"
    },
    {
      "channel": 5,
      "note": 66,
      "start": 39.8015,
      "duration": 0.3121,
      "velocity": 127,
      "chip": "ym2612"
    },
    {
      "channel": 4,
      "note": 40,
      "start": 39.8038,
      "duration": 0.1549,
      "velocity": 113,
      "chip": "ym2612"
    },
    {
      "channel": 4,
      "note": 40,
      "start": 39.9594,
      "duration": 0.1726,
      "velocity": 113,
      "chip": "ym2612"
    },
    {
      "channel": 1,
      "note": 81,
      "start": 40.1115,
      "duration": 0.6527,
      "velocity": 122,
      "chip": "ym2612"
    },
    {
      "channel": 3,
      "note": 69,
      "start": 40.1189,
      "duration": 0.6408,
      "velocity": 122,
      "chip": "ym2612"
    },
    {
      "channel": 2,
      "note": 76,
      "start": 40.1213,
      "duration": 0.6408,
      "velocity": 122,
      "chip": "ym2612"
    },
    {
      "channel": 5,
      "note": 66,
      "start": 40.1302,
      "duration": 0.1444,
      "velocity": 127,
      "chip": "ym2612"
    },
    {
      "channel": 4,
      "note": 40,
      "start": 40.1326,
      "duration": 0.1443,
      "velocity": 113,
      "chip": "ym2612"
    },
    {
      "channel": 5,
      "note": 66,
      "start": 40.2753,
      "duration": 0.1625,
      "velocity": 127,
      "chip": "ym2612"
    },
    {
      "channel": 4,
      "note": 40,
      "start": 40.2775,
      "duration": 0.1682,
      "velocity": 113,
      "chip": "ym2612"
    },
    {
      "channel": 4,
      "note": 40,
      "start": 40.4463,
      "duration": 0.1536,
      "velocity": 113,
      "chip": "ym2612"
    },
    {
      "channel": 5,
      "note": 66,
      "start": 40.4508,
      "duration": 0.3162,
      "velocity": 127,
      "chip": "ym2612"
    },
    {
      "channel": 4,
      "note": 40,
      "start": 40.6006,
      "duration": 0.1744,
      "velocity": 113,
      "chip": "ym2612"
    },
    {
      "channel": 3,
      "note": 71,
      "start": 40.7603,
      "duration": 0.4858,
      "velocity": 122,
      "chip": "ym2612"
    },
    {
      "channel": 2,
      "note": 78,
      "start": 40.7627,
      "duration": 0.4754,
      "velocity": 122,
      "chip": "ym2612"
    },
    {
      "channel": 1,
      "note": 83,
      "start": 40.7649,
      "duration": 0.4755,
      "velocity": 122,
      "chip": "ym2612"
    },
    {
      "channel": 4,
      "note": 47,
      "start": 40.7756,
      "duration": 0.1396,
      "velocity": 113,
      "chip": "ym2612"
    },
    {
      "channel": 5,
      "note": 66,
      "start": 40.78,
      "duration": 0.2944,
      "velocity": 127,
      "chip": "ym2612"
    },
    {
      "channel": 4,
      "note": 35,
      "start": 40.9158,
      "duration": 0.1611,
      "velocity": 113,
      "chip": "ym2612"
    },
    {
      "channel": 4,
      "note": 35,
      "start": 41.0776,
      "duration": 0.1663,
      "velocity": 113,
      "chip": "ym2612"
    },
    {
      "channel": 5,
      "note": 66,
      "start": 41.0866,
      "duration": 0.3122,
      "velocity": 127,
      "chip": "ym2612"
    },
    {
      "channel": 2,
      "note": 77,
      "start": 41.2388,
      "duration": 0.488,
      "velocity": 122,
      "chip": "ym2612"
    },
    {
      "channel": 1,
      "note": 82,
      "start": 41.241,
      "duration": 0.4881,
      "velocity": 122,
      "chip": "ym2612"
    },
    {
      "channel": 4,
      "note": 46,
      "start": 41.2445,
      "duration": 0.1567,
      "velocity": 113,
      "chip": "ym2612"
    },
    {
      "channel": 3,
      "note": 70,
      "start": 41.2468,
      "duration": 0.4777,
      "velocity": 122,
      "chip": "ym2612"
    },
    {
      "channel": 4,
      "note": 34,
      "start": 41.4019,
      "duration": 0.1617,
      "velocity": 113,
      "chip": "ym2612"
    },
    {
      "channel": 5,
      "note": 66,
      "start": 41.4111,
      "duration": 0.1502,
      "velocity": 127,
      "chip": "ym2612"
    },
    {
      "channel": 5,
      "note": 66,
      "start": 41.5619,
      "duration": 0.1578,
      "velocity": 127,
      "chip": "ym2612"
    },
    {
      "channel": 4,
      "note": 34,
      "start": 41.5641,
      "duration": 0.1581,
      "velocity": 113,
      "chip": "ym2612"
    },
    {
      "channel": 4,
      "note": 45,
      "start": 41.7229,
      "duration": 0.1574,
      "velocity": 113,
      "chip": "ym2612"
    },
    {
      "channel": 3,
      "note": 69,
      "start": 41.7251,
      "duration": 0.4816,
      "velocity": 122,
      "chip": "ym2612"
    },
    {
      "channel": 2,
      "note": 76,
      "start": 41.7274,
      "duration": 0.4815,
      "velocity": 122,
      "chip": "ym2612"
    },
    {
      "channel": 1,
      "note": 81,
      "start": 41.7297,
      "duration": 0.4712,
      "velocity": 122,
      "chip": "ym2612"
    },
    {
      "channel": 5,
      "note": 66,
      "start": 41.7373,
      "duration": 0.1405,
      "velocity": 127,
      "chip": "ym2612"
    },
    {
      "channel": 4,
      "note": 33,
      "start": 41.8809,
      "duration": 0.1648,
      "velocity": 113,
      "chip": "ym2612"
    },
    {
      "channel": 5,
      "note": 66,
      "start": 41.8902,
      "duration": 0.1532,
      "velocity": 127,
      "chip": "ym2612"
    },
    {
      "channel": 5,
      "note": 66,
      "start": 42.044,
      "duration": 0.3202,
      "velocity": 127,
      "chip": "ym2612"
    },
    {
      "channel": 4,
      "note": 33,
      "start": 42.0463,
      "duration": 0.1581,
      "velocity": 113,
      "chip": "ym2612"
    },
    {
      "channel": 1,
      "note": 79,
      "start": 42.2016,
      "duration": 0.4807,
      "velocity": 122,
      "chip": "ym2612"
    },
    {
      "channel": 4,
      "note": 43,
      "start": 42.2051,
      "duration": 0.1617,
      "velocity": 113,
      "chip": "ym2612"
    },
    {
      "channel": 3,
      "note": 67,
      "start": 42.2074,
      "duration": 0.4822,
      "velocity": 122,
      "chip": "ym2612"
    },
    {
      "channel": 2,
      "note": 74,
      "start": 42.2096,
      "duration": 0.4822,
      "velocity": 122,
      "chip": "ym2612"
    },
    {
      "channel": 4,
      "note": 31,
      "start": 42.3674,
      "duration": 0.1566,
      "velocity": 113,
      "chip": "ym2612"
    },
    {
      "channel": 5,
      "note": 66,
      "start": 42.3764,
      "duration": 0.3274,
      "velocity": 127,
      "chip": "ym2612"
    },
    {
      "channel": 4,
      "note": 31,
      "start": 42.5246,
      "duration": 0.1627,
      "velocity": 113,
      "chip": "ym2612"
    },
    {
      "channel": 1,
      "note": 81,
      "start": 42.6829,
      "duration": 0.1686,
      "velocity": 122,
      "chip": "ym2612"
    },
    {
      "channel": 4,
      "note": 45,
      "start": 42.6879,
      "duration": 0.1593,
      "velocity": 113,
      "chip": "ym2612"
    },
    {
      "channel": 3,
      "note": 69,
      "start": 42.6902,
      "duration": 0.1585,
      "velocity": 122,
      "chip": "ym2612"
    },
    {
      "channel": 2,
      "note": 76,
      "start": 42.6924,
      "duration": 0.1576,
      "velocity": 122,
      "chip": "ym2612"
    },
    {
      "channel": 5,
      "note": 66,
      "start": 42.7045,
      "duration": 0.0686,
      "velocity": 127,
      "chip": "ym2612"
    },
    {
      "channel": 5,
      "note": 66,
      "start": 42.7737,
      "duration": 0.0848,
      "velocity": 127,
      "chip": "ym2612"
    },
    {
      "channel": 5,
      "note": 66,
      "start": 42.8591,
      "duration": 0.0747,
      "velocity": 127,
      "chip": "ym2612"
    },
    {
      "channel": 5,
      "note": 66,
      "start": 42.9345,
      "duration": 0.0882,
      "velocity": 127,
      "chip": "ym2612"
    },
    {
      "channel": 3,
      "note": 67,
      "start": 43.0055,
      "duration": 0.1649,
      "velocity": 122,
      "chip": "ym2612"
    },
    {
      "channel": 2,
      "note": 74,
      "start": 43.0078,
      "duration": 0.1649,
      "velocity": 122,
      "chip": "ym2612"
    },
    {
      "channel": 1,
      "note": 79,
      "start": 43.01,
      "duration": 0.1539,
      "velocity": 122,
      "chip": "ym2612"
    },
    {
      "channel": 4,
      "note": 43,
      "start": 43.0143,
      "duration": 0.1539,
      "velocity": 113,
      "chip": "ym2612"
    },
    {
      "channel": 5,
      "note": 66,
      "start": 43.0234,
      "duration": 0.0748,
      "velocity": 127,
      "chip": "ym2612"
    },
    {
      "channel": 5,
      "note": 66,
      "start": 43.0988,
      "duration": 0.082,
      "velocity": 127,
      "chip": "ym2612"
    },
    {
      "channel": 1,
      "note": 76,
      "start": 43.1646,
      "duration": 0.1882,
      "velocity": 122,
      "chip": "ym2612"
    },
    {
      "channel": 4,
      "note": 40,
      "start": 43.1688,
      "duration": 0.1892,
      "velocity": 113,
      "chip": "ym2612"
    },
    {
      "channel": 3,
      "note": 64,
      "start": 43.1711,
      "duration": 0.17,
      "velocity": 122,
      "chip": "ym2612"
    },
    {
      "channel": 2,
      "note": 71,
      "start": 43.1734,
      "duration": 0.1878,
      "velocity": 122,
      "chip": "ym2612"
    },
    {
      "channel": 5,
      "note": 66,
      "start": 43.1815,
      "duration": 0.0748,
      "velocity": 127,
      "chip": "ym2612"
    },
    {
      "channel": 5,
      "note": 66,
      "start": 43.2569,
      "duration": 0.1183,
      "velocity": 127,
      "chip": "ym2612"
    },
    {
      "channel": 4,
      "note": 40,
      "start": 43.3586,
      "duration": 0.1395,
      "velocity": 113,
      "chip": "ym2612"
    },
    {
      "channel": 0,
      "note": 83,
      "start": 43.3661,
      "duration": 0.1242,
      "velocity": 122,
      "chip": "ym2612"
    },
    {
      "channel": 3,
      "note": 64,
      "start": 43.3703,
      "duration": 0.124,
      "velocity": 122,
      "chip": "ym2612"
    },
    {
      "channel": 2,
      "note": 71,
      "start": 43.3856,
      "duration": 0.1008,
      "velocity": 122,
      "chip": "ym2612"
    },
    {
      "channel": 1,
      "note": 71,
      "start": 43.3879,
      "duration": 0.1001,
      "velocity": 122,
      "chip": "ym2612"
    },
    {
      "channel": 5,
      "note": 66,
      "start": 43.391,
      "duration": 0.2643,
      "velocity": 127,
      "chip": "ym2612"
    },
    {
      "channel": 1,
      "note": 71,
      "start": 43.4887,
      "duration": 0.0809,
      "velocity": 122,
      "chip": "ym2612"
    },
    {
      "channel": 0,
      "note": 83,
      "start": 43.4909,
      "duration": 0.0809,
      "velocity": 122,
      "chip": "ym2612"
    },
    {
      "channel": 4,
      "note": 40,
      "start": 43.4988,
      "duration": 0.1644,
      "velocity": 113,
      "chip": "ym2612"
    },
    {
      "channel": 1,
      "note": 74,
      "start": 43.5702,
      "duration": 0.0805,
      "velocity": 122,
      "chip": "ym2612"
    },
    {
      "channel": 0,
      "note": 86,
      "start": 43.5725,
      "duration": 0.0805,
      "velocity": 122,
      "chip": "ym2612"
    },
    {
      "channel": 1,
      "note": 76,
      "start": 43.6514,
      "duration": 0.0758,
      "velocity": 122,
      "chip": "ym2612"
    },
    {
      "channel": 0,
      "note": 88,
      "start": 43.6537,
      "duration": 0.0758,
      "velocity": 122,
      "chip": "ym2612"
    },
    {
      "channel": 4,
      "note": 40,
      "start": 43.6638,
      "duration": 0.1573,
      "velocity": 113,
      "chip": "ym2612"
    },
    {
      "channel": 5,
      "note": 66,
      "start": 43.6682,
      "duration": 0.302,
      "velocity": 127,
      "chip": "ym2612"
    },
    {
      "channel": 1,
      "note": 74,
      "start": 43.7278,
      "duration": 0.088,
      "velocity": 122,
      "chip": "ym2612"
    },
    {
      "channel": 0,
      "note": 86,
      "start": 43.73,
      "duration": 0.088,
      "velocity": 122,
      "chip": "ym2612"
    },
    {
      "channel": 3,
      "note": 64,
      "start": 43.8119,
      "duration": 0.8099,
      "velocity": 122,
      "chip": "ym2612"
    },
    {
      "channel": 2,
      "note": 71,
      "start": 43.8141,
      "duration": 0.8099,
      "velocity": 122,
      "chip": "ym2612"
    },
    {
      "channel": 1,
      "note": 71,
      "start": 43.8164,
      "duration": 0.0761,
      "velocity": 122,
      "chip": "ym2612"
    },
    {
      "channel": 0,
      "note": 83,
      "start": 43.8187,
      "duration": 0.0761,
      "velocity": 122,
      "chip": "ym2612"
    },
    {
      "channel": 4,
      "note": 40,
      "start": 43.8217,
      "duration": 0.1584,
      "velocity": 113,
      "chip": "ym2612"
    },
    {
      "channel": 1,
      "note": 69,
      "start": 43.8932,
      "duration": 0.0817,
      "velocity": 122,
      "chip": "ym2612"
    },
    {
      "channel": 0,
      "note": 81,
      "start": 43.8954,
      "duration": 0.0726,
      "velocity": 122,
      "chip": "ym2612"
    },
    {
      "channel": 0,
      "note": 83,
      "start": 43.9687,
      "duration": 0.0839,
      "velocity": 122,
      "chip": "ym2612"
    },
    {
      "channel": 1,
      "note": 71,
      "start": 43.9755,
      "duration": 0.0748,
      "velocity": 122,
      "chip": "ym2612"
    },
    {
      "channel": 4,
      "note": 40,
      "start": 43.9807,
      "duration": 0.1617,
      "velocity": 113,
      "chip": "ym2612"
    },
    {
      "channel": 5,
      "note": 66,
      "start": 43.9852,
      "duration": 0.1493,
      "velocity": 127,
      "chip": "ym2612"
    },
    {
      "channel": 1,
      "note": 69,
      "start": 44.051,
      "duration": 0.088,
      "velocity": 122,
      "chip": "ym2612"
    },
    {
      "channel": 0,
      "note": 81,
      "start": 44.0532,
      "duration": 0.0788,
      "velocity": 122,
      "chip": "ym2612"
    },
    {
      "channel": 0,
      "note": 83,
      "start": 44.1326,
      "duration": 0.0836,
      "velocity": 122,
      "chip": "ym2612"
    },
    {
      "channel": 5,
      "note": 66,
      "start": 44.1351,
      "duration": 0.1621,
      "velocity": 127,
      "chip": "ym2612"
    },
    {
      "channel": 1,
      "note": 71,
      "start": 44.1396,
      "duration": 0.0744,
      "velocity": 122,
      "chip": "ym2612"
    },
    {
      "channel": 4,
      "note": 40,
      "start": 44.1431,
      "duration": 0.1566,
      "velocity": 113,
      "chip": "ym2612"
    },
    {
      "channel": 1,
      "note": 69,
      "start": 44.2146,
      "duration": 0.0781,
      "velocity": 122,
      "chip": "ym2612"
    },
    {
      "channel": 0,
      "note": 81,
      "start": 44.2168,
      "duration": 0.0781,
      "velocity": 122,
      "chip": "ym2612"
    },
    {
      "channel": 1,
      "note": 71,
      "start": 44.2933,
      "duration": 0.0812,
      "velocity": 122,
      "chip": "ym2612"
    },
    {
      "channel": 0,
      "note": 83,
      "start": 44.2956,
      "duration": 0.0812,
      "velocity": 122,
      "chip": "ym2612"
    },
    {
      "channel": 4,
      "note": 40,
      "start": 44.3003,
      "duration": 0.1679,
      "velocity": 113,
      "chip": "ym2612"
    },
    {
      "channel": 5,
      "note": 66,
      "start": 44.3094,
      "duration": 0.1508,
      "velocity": 127,
      "chip": "ym2612"
    },
    {
      "channel": 1,
      "note": 74,
      "start": 44.3751,
      "duration": 0.0805,
      "velocity": 122,
      "chip": "ym2612"
    },
    {
      "channel": 0,
      "note": 86,
      "start": 44.3774,
      "duration": 0.0805,
      "velocity": 122,
      "chip": "ym2612"
    },
    {
      "channel": 1,
      "note": 71,
      "start": 44.4563,
      "duration": 0.0759,
      "velocity": 122,
      "chip": "ym2612"
    },
    {
      "channel": 0,
      "note": 83,
      "start": 44.4585,
      "duration": 0.0759,
      "velocity": 122,
      "chip": "ym2612"
    },
    {
      "channel": 4,
      "note": 40,
      "start": 44.4688,
      "duration": 0.1592,
      "velocity": 113,
      "chip": "ym2612"
    },
    {
      "channel": 5,
      "note": 66,
      "start": 44.4733,
      "duration": 0.145,
      "velocity": 127,
      "chip": "ym2612"
    },
    {
      "channel": 1,
      "note": 69,
      "start": 44.5329,
      "duration": 0.0805,
      "velocity": 122,
      "chip": "ym2612"
    },
    {
      "channel": 0,
      "note": 81,
      "start": 44.5351,
      "duration": 0.0805,
      "velocity": 122,
      "chip": "ym2612"
    },
    {
      "channel": 1,
      "note": 66,
      "start": 44.6141,
      "duration": 0.0823,
      "velocity": 122,
      "chip": "ym2612"
    },
    {
      "channel": 0,
      "note": 78,
      "start": 44.6163,
      "duration": 0.0823,
      "velocity": 122,
      "chip": "ym2612"
    },
    {
      "channel": 5,
      "note": 66,
      "start": 44.6189,
      "duration": 0.317,
      "velocity": 127,
      "chip": "ym2612"
    },
    {
      "channel": 3,
      "note": 66,
      "start": 44.6224,
      "duration": 0.1517,
      "velocity": 122,
      "chip": "ym2612"
    },
    {
      "channel": 2,
      "note": 73,
      "start": 44.6247,
      "duration": 0.1508,
      "velocity": 122,
      "chip": "ym2612"
    },
    {
      "channel": 4,
      "note": 40,
      "start": 44.6286,
      "duration": 0.1537,
      "velocity": 113,
      "chip": "ym2612"
    },
    {
      "channel": 1,
      "note": 69,
      "start": 44.697,
      "duration": 0.08,
      "velocity": 122,
      "chip": "ym2612"
    },
    {
      "channel": 0,
      "note": 81,
      "start": 44.6993,
      "duration": 0.08,
      "velocity": 122,
      "chip": "ym2612"
    },
    {
      "channel": 1,
      "note": 71,
      "start": 44.7777,
      "duration": 0.081,
      "velocity": 122,
      "chip": "ym2612"
    },
    {
      "channel": 0,
      "note": 83,
      "start": 44.7799,
      "duration": 0.0744,
      "velocity": 122,
      "chip": "ym2612"
    },
    {
      "channel": 4,
      "note": 40,
      "start": 44.783,
      "duration": 0.1643,
      "velocity": 113,
      "chip": "ym2612"
    },
    {
      "channel": 0,
      "note": 78,
      "start": 44.8549,
      "duration": 0.0878,
      "velocity": 122,
      "chip": "ym2612"
    },
    {
      "channel": 1,
      "note": 66,
      "start": 44.8593,
      "duration": 0.0812,
      "velocity": 122,
      "chip": "ym2612"
    },
    {
      "channel": 1,
      "note": 69,
      "start": 44.9411,
      "duration": 0.0733,
      "velocity": 122,
      "chip": "ym2612"
    },
    {
      "channel": 0,
      "note": 81,
      "start": 44.9434,
      "duration": 0.0732,
      "velocity": 122,
      "chip": "ym2612"
    },
    {
      "channel": 4,
      "note": 40,
      "start": 44.9479,
      "duration": 0.1603,
      "velocity": 113,
      "chip": "ym2612"
    },
    {
      "channel": 5,
      "note": 66,
      "start": 44.9524,
      "duration": 0.3063,
      "velocity": 127,
      "chip": "ym2612"
    },
    {
      "channel": 1,
      "note": 71,
      "start": 45.015,
      "duration": 0.0822,
      "velocity": 122,
      "chip": "ym2612"
    },
    {
      "channel": 0,
      "note": 83,
      "start": 45.0173,
      "duration": 0.0823,
      "velocity": 122,
      "chip": "ym2612"
    },
    {
      "channel": 2,
      "note": 73,
      "start": 45.0957,
      "duration": 0.8085,
      "velocity": 122,
      "chip": "ym2612"
    },
    {
      "channel": 1,
      "note": 71,
      "start": 45.0979,
      "duration": 0.0788,
      "velocity": 122,
      "chip": "ym2612"
    },
    {
      "channel": 0,
      "note": 83,
      "start": 45.1002,
      "duration": 0.0787,
      "velocity": 122,
      "chip": "ym2612"
    },
    {
      "channel": 3,
      "note": 66,
      "start": 45.1044,
      "duration": 0.7975,
      "velocity": 122,
      "chip": "ym2612"
    },
    {
      "channel": 4,
      "note": 40,
      "start": 45.1089,
      "duration": 0.1615,
      "velocity": 113,
      "chip": "ym2612"
    },
    {
      "channel": 1,
      "note": 69,
      "start": 45.1773,
      "duration": 0.0861,
      "velocity": 122,
      "chip": "ym2612"
    },
    {
      "channel": 0,
      "note": 81,
      "start": 45.1795,
      "duration": 0.0861,
      "velocity": 122,
      "chip": "ym2612"
    },
    {
      "channel": 1,
      "note": 76,
      "start": 45.264,
      "duration": 0.0734,
      "velocity": 122,
      "chip": "ym2612"
    },
    {
      "channel": 0,
      "note": 88,
      "start": 45.2662,
      "duration": 0.0734,
      "velocity": 122,
      "chip": "ym2612"
    },
    {
      "channel": 4,
      "note": 40,
      "start": 45.271,
      "duration": 0.1586,
      "velocity": 113,
      "chip": "ym2612"
    },
    {
      "channel": 5,
      "note": 66,
      "start": 45.2754,
      "duration": 0.148,
      "velocity": 127,
      "chip": "ym2612"
    },
    {
      "channel": 1,
      "note": 74,
      "start": 45.3381,
      "duration": 0.0805,
      "velocity": 122,
      "chip": "ym2612"
    },
    {
      "channel": 0,
      "note": 86,
      "start": 45.3403,
      "duration": 0.0805,
      "velocity": 122,
      "chip": "ym2612"
    },
    {
      "channel": 1,
      "note": 71,
      "start": 45.4192,
      "duration": 0.0818,
      "velocity": 122,
      "chip": "ym2612"
    },
    {
      "channel": 0,
      "note": 83,
      "start": 45.4215,
      "duration": 0.0818,
      "velocity": 122,
      "chip": "ym2612"
    },
    {
      "channel": 5,
      "note": 66,
      "start": 45.4241,
      "duration": 0.1546,
      "velocity": 127,
      "chip": "ym2612"
    },
    {
      "channel": 4,
      "note": 40,
      "start": 45.4302,
      "duration": 0.1581,
      "velocity": 113,
      "chip": "ym2612"
    },
    {
      "channel": 1,
      "note": 69,
      "start": 45.5017,
      "duration": 0.0817,
      "velocity": 122,
      "chip": "ym2612"
    },
    {
      "channel": 0,
      "note": 81,
      "start": 45.5039,
      "duration": 0.0726,
      "velocity": 122,
      "chip": "ym2612"
    },
    {
      "channel": 0,
      "note": 79,
      "start": 45.5771,
      "duration": 0.0837,
      "velocity": 122,
      "chip": "ym2612"
    },
    {
      "channel": 1,
      "note": 67,
      "start": 45.584,
      "duration": 0.0746,
      "velocity": 122,
      "chip": "ym2612"
    },
    {
      "channel": 4,
      "note": 40,
      "start": 45.589,
      "duration": 0.1599,
      "velocity": 113,
      "chip": "ym2612"
    },
    {
      "channel": 5,
      "note": 66,
      "start": 45.5934,
      "duration": 0.3175,
      "velocity": 127,
      "chip": "ym2612"
    },
    {
      "channel": 1,
      "note": 66,
      "start": 45.6592,
      "duration": 0.0862,
      "velocity": 122,
      "chip": "ym2612"
    },
    {
      "channel": 0,
      "note": 78,
      "start": 45.6614,
      "duration": 0.0788,
      "velocity": 122,
      "chip": "ym2612"
    },
    {
      "channel": 0,
      "note": 76,
      "start": 45.7408,
      "duration": 0.0787,
      "velocity": 122,
      "chip": "ym2612"
    },
    {
      "channel": 1,
      "note": 64,
      "start": 45.746,
      "duration": 0.0712,
      "velocity": 122,
      "chip": "ym2612"
    },
    {
      "channel": 4,
      "note": 40,
      "start": 45.7495,
      "duration": 0.164,
      "velocity": 113,
      "chip": "ym2612"
    },
    {
      "channel": 1,
      "note": 62,
      "start": 45.8178,
      "duration": 0.0885,
      "velocity": 122,
      "chip": "ym2612"
    },
    {
      "channel": 0,
      "note": 74,
      "start": 45.8201,
      "duration": 0.0885,
      "velocity": 122,
      "chip": "ym2612"
    },
    {
      "channel": 3,
      "note": 67,
      "start": 45.9024,
      "duration": 0.1604,
      "velocity": 122,
      "chip": "ym2612"
    },
    {
      "channel": 2,
      "note": 74,
      "start": 45.9048,
      "duration": 0.1594,
      "velocity": 122,
      "chip": "ym2612"
    },
    {
      "channel": 1,
      "note": 76,
      "start": 45.907,
      "duration": 2.6027,
      "velocity": 122,
      "chip": "ym2612"
    },
    {
      "channel": 0,
      "note": 88,
      "start": 45.9093,
      "duration": 2.6091,
      "velocity": 122,
      "chip": "ym2612"
    },
    {
      "channel": 4,
      "note": 40,
      "start": 45.9141,
      "duration": 0.16,
      "velocity": 113,
      "chip": "ym2612"
    },
    {
      "channel": 5,
      "note": 66,
      "start": 45.928,
      "duration": 0.2968,
      "velocity": 127,
      "chip": "ym2612"
    },
    {
      "channel": 4,
      "note": 40,
      "start": 46.0747,
      "duration": 0.1594,
      "velocity": 113,
      "chip": "ym2612"
    },
    {
      "channel": 4,
      "note": 40,
      "start": 46.2348,
      "duration": 0.1585,
      "velocity": 113,
      "chip": "ym2612"
    },
    {
      "channel": 5,
      "note": 66,
      "start": 46.2424,
      "duration": 0.3046,
      "velocity": 127,
      "chip": "ym2612"
    },
    {
      "channel": 3,
      "note": 67,
      "start": 46.3811,
      "duration": 0.8051,
      "velocity": 122,
      "chip": "ym2612"
    },
    {
      "channel": 2,
      "note": 74,
      "start": 46.3834,
      "duration": 0.8051,
      "velocity": 122,
      "chip": "ym2612"
    },
    {
      "channel": 4,
      "note": 40,
      "start": 46.3939,
      "duration": 0.1627,
      "velocity": 113,
      "chip": "ym2612"
    },
    {
      "channel": 4,
      "note": 40,
      "start": 46.5572,
      "duration": 0.1567,
      "velocity": 113,
      "chip": "ym2612"
    },
    {
      "channel": 5,
      "note": 66,
      "start": 46.5649,
      "duration": 0.1414,
      "velocity": 127,
      "chip": "ym2612"
    },
    {
      "channel": 5,
      "note": 66,
      "start": 46.7069,
      "duration": 0.1577,
      "velocity": 127,
      "chip": "ym2612"
    },
    {
      "channel": 4,
      "note": 40,
      "start": 46.7146,
      "duration": 0.1594,
      "velocity": 113,
      "chip": "ym2612"
    },
    {
      "channel": 4,
      "note": 40,
      "start": 46.8746,
      "duration": 0.1582,
      "velocity": 113,
      "chip": "ym2612"
    },
    {
      "channel": 5,
      "note": 66,
      "start": 46.8822,
      "duration": 0.1481,
      "velocity": 127,
      "chip": "ym2612"
    },
    {
      "channel": 4,
      "note": 40,
      "start": 47.0334,
      "duration": 0.1621,
      "velocity": 113,
      "chip": "ym2612"
    },
    {
      "channel": 5,
      "note": 66,
      "start": 47.0473,
      "duration": 0.1458,
      "velocity": 127,
      "chip": "ym2612"
    },
    {
      "channel": 3,
      "note": 69,
      "start": 47.1868,
      "duration": 0.1658,
      "velocity": 122,
      "chip": "ym2612"
    },
    {
      "channel": 2,
      "note": 76,
      "start": 47.1891,
      "duration": 0.1649,
      "velocity": 122,
      "chip": "ym2612"
    },
    {
      "channel": 5,
      "note": 66,
      "start": 47.1938,
      "duration": 0.3157,
      "velocity": 127,
      "chip": "ym2612"
    },
    {
      "channel": 4,
      "note": 40,
      "start": 47.1961,
      "duration": 0.1627,
      "velocity": 113,
      "chip": "ym2612"
    },
    {
      "channel": 4,
      "note": 40,
      "start": 47.3594,
      "duration": 0.1594,
      "velocity": 113,
      "chip": "ym2612"
    },
    {
      "channel": 4,
      "note": 40,
      "start": 47.5195,
      "duration": 0.1585,
      "velocity": 113,
      "chip": "ym2612"
    },
    {
      "channel": 5,
      "note": 66,
      "start": 47.5271,
      "duration": 0.3254,
      "velocity": 127,
      "chip": "ym2612"
    },
    {
      "channel": 3,
      "note": 69,
      "start": 47.6708,
      "duration": 0.8007,
      "velocity": 122,
      "chip": "ym2612"
    },
    {
      "channel": 2,
      "note": 76,
      "start": 47.6731,
      "duration": 0.8007,
      "velocity": 122,
      "chip": "ym2612"
    },
    {
      "channel": 4,
      "note": 40,
      "start": 47.6786,
      "duration": 0.1609,
      "velocity": 113,
      "chip": "ym2612"
    },
    {
      "channel": 4,
      "note": 40,
      "start": 47.8402,
      "duration": 0.1604,
      "velocity": 113,
      "chip": "ym2612"
    },
    {
      "channel": 5,
      "note": 66,
      "start": 47.8531,
      "duration": 0.0684,
      "velocity": 127,
      "chip": "ym2612"
    },
    {
      "channel": 5,
      "note": 66,
      "start": 47.9222,
      "duration": 0.0861,
      "velocity": 127,
      "chip": "ym2612"
    },
    {
      "channel": 4,
      "note": 40,
      "start": 48.0012,
      "duration": 0.1604,
      "velocity": 113,
      "chip": "ym2612"
    },
    {
      "channel": 5,
      "note": 66,
      "start": 48.0089,
      "duration": 0.0714,
      "velocity": 127,
      "chip": "ym2612"
    },
    {
      "channel": 5,
      "note": 66,
      "start": 48.0809,
      "duration": 0.0875,
      "velocity": 127,
      "chip": "ym2612"
    },
    {
      "channel": 4,
      "note": 38,
      "start": 48.1622,
      "duration": 0.1507,
      "velocity": 113,
      "chip": "ym2612"
    },
    {
      "channel": 5,
      "note": 66,
      "start": 48.169,
      "duration": 0.0698,
      "velocity": 127,
      "chip": "ym2612"
    },
    {
      "channel": 5,
      "note": 66,
      "start": 48.2395,
      "duration": 0.0852,
      "velocity": 127,
      "chip": "ym2612"
    },
    {
      "channel": 4,
      "note": 39,
      "start": 48.3136,
      "duration": 0.166,
      "velocity": 113,
      "chip": "ym2612"
    },
    {
      "channel": 5,
      "note": 66,
      "start": 48.3254,
      "duration": 0.0777,
      "velocity": 127,
      "chip": "ym2612"
    },
    {
      "channel": 5,
      "note": 66,
      "start": 48.4038,
      "duration": 0.102,
      "velocity": 127,
      "chip": "ym2612"
    },
    {
      "channel": 3,
      "note": 64,
      "start": 48.4722,
      "duration": 0.1679,
      "velocity": 122,
      "chip": "ym2612"
    },
    {
      "channel": 2,
      "note": 71,
      "start": 48.4744,
      "duration": 0.1597,
      "velocity": 122,
      "chip": "ym2612"
    },
    {
      "channel": 4,
      "note": 40,
      "start": 48.4803,
      "duration": 0.1668,
      "velocity": 113,
      "chip": "ym2612"
    },
    {
      "channel": 1,
      "note": 86,
      "start": 48.5103,
      "duration": 3.8404,
      "velocity": 122,
      "chip": "ym2612"
    },
    {
      "channel": 0,
      "note": 86,
      "start": 48.519,
      "duration": 0.1251,
      "velocity": 122,
      "chip": "ym2612"
    },
    {
      "channel": 5,
      "note": 66,
      "start": 48.5216,
      "duration": 0.274,
      "velocity": 127,
      "chip": "ym2612"
    },
    {
      "channel": 0,
      "note": 86,
      "start": 48.6447,
      "duration": 0.1575,
      "velocity": 122,
      "chip": "ym2612"
    },
    {
      "channel": 4,
      "note": 40,
      "start": 48.6477,
      "duration": 0.159,
      "velocity": 113,
      "chip": "ym2612"
    },
    {
      "channel": 0,
      "note": 86,
      "start": 48.8029,
      "duration": 0.1659,
      "velocity": 122,
      "chip": "ym2612"
    },
    {
      "channel": 4,
      "note": 40,
      "start": 48.8074,
      "duration": 0.1644,
      "velocity": 113,
      "chip": "ym2612"
    },
    {
      "channel": 5,
      "note": 66,
      "start": 48.8119,
      "duration": 0.3038,
      "velocity": 127,
      "chip": "ym2612"
    },
    {
      "channel": 3,
      "note": 64,
      "start": 48.9574,
      "duration": 0.8097,
      "velocity": 122,
      "chip": "ym2612"
    },
    {
      "channel": 2,
      "note": 71,
      "start": 48.9597,
      "duration": 0.8096,
      "velocity": 122,
      "chip": "ym2612"
    },
    {
      "channel": 0,
      "note": 86,
      "start": 48.9694,
      "duration": 0.1611,
      "velocity": 122,
      "chip": "ym2612"
    },
    {
      "channel": 4,
      "note": 40,
      "start": 48.9724,
      "duration": 0.1528,
      "velocity": 113,
      "chip": "ym2612"
    },
    {
      "channel": 4,
      "note": 40,
      "start": 49.1259,
      "duration": 0.1563,
      "velocity": 113,
      "chip": "ym2612"
    },
    {
      "channel": 0,
      "note": 86,
      "start": 49.1311,
      "duration": 0.1563,
      "velocity": 122,
      "chip": "ym2612"
    },
    {
      "channel": 5,
      "note": 66,
      "start": 49.1337,
      "duration": 0.1409,
      "velocity": 127,
      "chip": "ym2612"
    },
    {
      "channel": 5,
      "note": 66,
      "start": 49.2752,
      "duration": 0.1642,
      "velocity": 127,
      "chip": "ym2612"
    },
    {
      "channel": 4,
      "note": 40,
      "start": 49.2828,
      "duration": 0.1671,
      "velocity": 113,
      "chip": "ym2612"
    },
    {
      "channel": 0,
      "note": 86,
      "start": 49.2881,
      "duration": 0.1572,
      "velocity": 122,
      "chip": "ym2612"
    },
    {
      "channel": 0,
      "note": 86,
      "start": 49.4459,
      "duration": 0.1659,
      "velocity": 122,
      "chip": "ym2612"
    },
    {
      "channel": 4,
      "note": 40,
      "start": 49.4505,
      "duration": 0.1562,
      "velocity": 113,
      "chip": "ym2612"
    },
    {
      "channel": 5,
      "note": 66,
      "start": 49.4565,
      "duration": 0.1405,
      "velocity": 127,
      "chip": "ym2612"
    },
    {
      "channel": 4,
      "note": 40,
      "start": 49.6073,
      "duration": 0.1694,
      "velocity": 113,
      "chip": "ym2612"
    },
    {
      "channel": 0,
      "note": 86,
      "start": 49.6125,
      "duration": 0.1611,
      "velocity": 122,
      "chip": "ym2612"
    },
    {
      "channel": 5,
      "note": 66,
      "start": 49.615,
      "duration": 0.1485,
      "velocity": 127,
      "chip": "ym2612"
    },
    {
      "channel": 5,
      "note": 66,
      "start": 49.7641,
      "duration": 0.3146,
      "velocity": 127,
      "chip": "ym2612"
    },
    {
      "channel": 3,
      "note": 66,
      "start": 49.7677,
      "duration": 0.1553,
      "velocity": 122,
      "chip": "ym2612"
    },
    {
      "channel": 2,
      "note": 73,
      "start": 49.7699,
      "duration": 0.1545,
      "velocity": 122,
      "chip": "ym2612"
    },
    {
      "channel": 0,
      "note": 86,
      "start": 49.7743,
      "duration": 0.153,
      "velocity": 122,
      "chip": "ym2612"
    },
    {
      "channel": 4,
      "note": 40,
      "start": 49.7773,
      "duration": 0.153,
      "velocity": 113,
      "chip": "ym2612"
    },
    {
      "channel": 0,
      "note": 86,
      "start": 49.9279,
      "duration": 0.1655,
      "velocity": 122,
      "chip": "ym2612"
    },
    {
      "channel": 4,
      "note": 40,
      "start": 49.9309,
      "duration": 0.1572,
      "velocity": 113,
      "chip": "ym2612"
    },
    {
      "channel": 4,
      "note": 40,
      "start": 50.0888,
      "duration": 0.1677,
      "velocity": 113,
      "chip": "ym2612"
    },
    {
      "channel": 0,
      "note": 86,
      "start": 50.094,
      "duration": 0.1594,
      "velocity": 122,
      "chip": "ym2612"
    },
    {
      "channel": 5,
      "note": 66,
      "start": 50.0966,
      "duration": 0.3083,
      "velocity": 127,
      "chip": "ym2612"
    },
    {
      "channel": 3,
      "note": 66,
      "start": 50.2475,
      "duration": 0.8039,
      "velocity": 122,
      "chip": "ym2612"
    },
    {
      "channel": 2,
      "note": 73,
      "start": 50.2498,
      "duration": 0.8038,
      "velocity": 122,
      "chip": "ym2612"
    },
    {
      "channel": 0,
      "note": 86,
      "start": 50.2541,
      "duration": 0.1575,
      "velocity": 122,
      "chip": "ym2612"
    },
    {
      "channel": 4,
      "note": 40,
      "start": 50.2571,
      "duration": 0.1592,
      "velocity": 113,
      "chip": "ym2612"
    },
    {
      "channel": 0,
      "note": 86,
      "start": 50.4122,
      "duration": 0.158,
      "velocity": 122,
      "chip": "ym2612"
    },
    {
      "channel": 4,
      "note": 40,
      "start": 50.4169,
      "duration": 0.1563,
      "velocity": 113,
      "chip": "ym2612"
    },
    {
      "channel": 5,
      "note": 66,
      "start": 50.4214,
      "duration": 0.1424,
      "velocity": 127,
      "chip": "ym2612"
    },
    {
      "channel": 5,
      "note": 66,
      "start": 50.5644,
      "duration": 0.1642,
      "velocity": 127,
      "chip": "ym2612"
    },
    {
      "channel": 0,
      "note": 86,
      "start": 50.5709,
      "duration": 0.1655,
      "velocity": 122,
      "chip": "ym2612"
    },
    {
      "channel": 4,
      "note": 40,
      "start": 50.5739,
      "duration": 0.1573,
      "velocity": 113,
      "chip": "ym2612"
    },
    {
      "channel": 4,
      "note": 40,
      "start": 50.7318,
      "duration": 0.1625,
      "velocity": 113,
      "chip": "ym2612"
    },
    {
      "channel": 0,
      "note": 86,
      "start": 50.7371,
      "duration": 0.1542,
      "velocity": 122,
      "chip": "ym2612"
    },
    {
      "channel": 5,
      "note": 66,
      "start": 50.7442,
      "duration": 0.3142,
      "velocity": 127,
      "chip": "ym2612"
    },
    {
      "channel": 0,
      "note": 86,
      "start": 50.8919,
      "duration": 0.1743,
      "velocity": 122,
      "chip": "ym2612"
    },
    {
      "channel": 4,
      "note": 40,
      "start": 50.8949,
      "duration": 0.166,
      "velocity": 113,
      "chip": "ym2612"
    },
    {
      "channel": 3,
      "note": 67,
      "start": 51.052,
      "duration": 0.1552,
      "velocity": 122,
      "chip": "ym2612"
    },
    {
      "channel": 2,
      "note": 74,
      "start": 51.0542,
      "duration": 0.1544,
      "velocity": 122,
      "chip": "ym2612"
    },
    {
      "channel": 4,
      "note": 40,
      "start": 51.0615,
      "duration": 0.1519,
      "velocity": 113,
      "chip": "ym2612"
    },
    {
      "channel": 0,
      "note": 86,
      "start": 51.0668,
      "duration": 0.1519,
      "velocity": 122,
      "chip": "ym2612"
    },
    {
      "channel": 5,
      "note": 66,
      "start": 51.0741,
      "duration": 0.295,
      "velocity": 127,
      "chip": "ym2612"
    },
    {
      "channel": 4,
      "note": 40,
      "start": 51.2141,
      "duration": 0.1575,
      "velocity": 113,
      "chip": "ym2612"
    },
    {
      "channel": 0,
      "note": 86,
      "start": 51.2193,
      "duration": 0.1576,
      "velocity": 122,
      "chip": "ym2612"
    },
    {
      "channel": 4,
      "note": 40,
      "start": 51.3722,
      "duration": 0.1659,
      "velocity": 113,
      "chip": "ym2612"
    },
    {
      "channel": 0,
      "note": 86,
      "start": 51.3775,
      "duration": 0.1658,
      "velocity": 122,
      "chip": "ym2612"
    },
    {
      "channel": 5,
      "note": 66,
      "start": 51.3847,
      "duration": 0.3051,
      "velocity": 127,
      "chip": "ym2612"
    },
    {
      "channel": 3,
      "note": 67,
      "start": 51.5309,
      "duration": 0.8024,
      "velocity": 122,
      "chip": "ym2612"
    },
    {
      "channel": 2,
      "note": 74,
      "start": 51.5332,
      "duration": 0.8024,
      "velocity": 122,
      "chip": "ym2612"
    },
    {
      "channel": 4,
      "note": 40,
      "start": 51.5388,
      "duration": 0.1625,
      "velocity": 113,
      "chip": "ym2612"
    },
    {
      "channel": 0,
      "note": 86,
      "start": 51.544,
      "duration": 0.1526,
      "velocity": 122,
      "chip": "ym2612"
    },
    {
      "channel": 0,
      "note": 86,
      "start": 51.6972,
      "duration": 0.166,
      "velocity": 122,
      "chip": "ym2612"
    },
    {
      "channel": 4,
      "note": 40,
      "start": 51.7019,
      "duration": 0.1561,
      "velocity": 113,
      "chip": "ym2612"
    },
    {
      "channel": 5,
      "note": 66,
      "start": 51.7063,
      "duration": 0.1494,
      "velocity": 127,
      "chip": "ym2612"
    },
    {
      "channel": 5,
      "note": 66,
      "start": 51.8563,
      "duration": 0.1566,
      "velocity": 127,
      "chip": "ym2612"
    },
    {
      "channel": 4,
      "note": 40,
      "start": 51.8586,
      "duration": 0.1655,
      "velocity": 113,
      "chip": "ym2612"
    },
    {
      "channel": 0,
      "note": 86,
      "start": 51.8638,
      "duration": 0.1558,
      "velocity": 122,
      "chip": "ym2612"
    },
    {
      "channel": 0,
      "note": 86,
      "start": 52.0202,
      "duration": 0.1576,
      "velocity": 122,
      "chip": "ym2612"
    },
    {
      "channel": 4,
      "note": 40,
      "start": 52.0248,
      "duration": 0.1578,
      "velocity": 113,
      "chip": "ym2612"
    },
    {
      "channel": 5,
      "note": 66,
      "start": 52.0292,
      "duration": 0.142,
      "velocity": 127,
      "chip": "ym2612"
    },
    {
      "channel": 0,
      "note": 86,
      "start": 52.1785,
      "duration": 0.1745,
      "velocity": 122,
      "chip": "ym2612"
    },
    {
      "channel": 4,
      "note": 40,
      "start": 52.1832,
      "duration": 0.1596,
      "velocity": 113,
      "chip": "ym2612"
    },
    {
      "channel": 5,
      "note": 66,
      "start": 52.1877,
      "duration": 0.1528,
      "velocity": 127,
      "chip": "ym2612"
    },
    {
      "channel": 3,
      "note": 69,
      "start": 52.334,
      "duration": 0.1602,
      "velocity": 122,
      "chip": "ym2612"
    },
    {
      "channel": 2,
      "note": 76,
      "start": 52.3363,
      "duration": 0.1594,
      "velocity": 122,
      "chip": "ym2612"
    },
    {
      "channel": 5,
      "note": 66,
      "start": 52.3411,
      "duration": 0.3137,
      "velocity": 127,
      "chip": "ym2612"
    },
    {
      "channel": 4,
      "note": 40,
      "start": 52.3435,
      "duration": 0.1569,
      "velocity": 113,
      "chip": "ym2612"
    },
    {
      "channel": 1,
      "note": 86,
      "start": 52.3514,
      "duration": 0.1578,
      "velocity": 122,
      "chip": "ym2612"
    },
    {
      "channel": 0,
      "note": 86,
      "start": 52.3537,
      "duration": 0.1511,
      "velocity": 122,
      "chip": "ym2612"
    },
    {
      "channel": 4,
      "note": 40,
      "start": 52.501,
      "duration": 0.1629,
      "velocity": 113,
      "chip": "ym2612"
    },
    {
      "channel": 0,
      "note": 86,
      "start": 52.5054,
      "duration": 0.1704,
      "velocity": 122,
      "chip": "ym2612"
    },
    {
      "channel": 1,
      "note": 86,
      "start": 52.5098,
      "duration": 0.1637,
      "velocity": 122,
      "chip": "ym2612"
    },
    {
      "channel": 4,
      "note": 40,
      "start": 52.6645,
      "duration": 0.1612,
      "velocity": 113,
      "chip": "ym2612"
    },
    {
      "channel": 5,
      "note": 66,
      "start": 52.6705,
      "duration": 0.3249,
      "velocity": 127,
      "chip": "ym2612"
    },
    {
      "channel": 1,
      "note": 85,
      "start": 52.6741,
      "duration": 0.1548,
      "velocity": 122,
      "chip": "ym2612"
    },
    {
      "channel": 0,
      "note": 85,
      "start": 52.6764,
      "duration": 0.1547,
      "velocity": 122,
      "chip": "ym2612"
    },
    {
      "channel": 3,
      "note": 69,
      "start": 52.8185,
      "duration": 0.8163,
      "velocity": 122,
      "chip": "ym2612"
    },
    {
      "channel": 2,
      "note": 76,
      "start": 52.8208,
      "duration": 0.8162,
      "velocity": 122,
      "chip": "ym2612"
    },
    {
      "channel": 4,
      "note": 40,
      "start": 52.8262,
      "duration": 0.1557,
      "velocity": 113,
      "chip": "ym2612"
    },
    {
      "channel": 1,
      "note": 85,
      "start": 52.8295,
      "duration": 0.1628,
      "velocity": 122,
      "chip": "ym2612"
    },
    {
      "channel": 0,
      "note": 85,
      "start": 52.8318,
      "duration": 0.1546,
      "velocity": 122,
      "chip": "ym2612"
    },
    {
      "channel": 4,
      "note": 47,
      "start": 52.9826,
      "duration": 0.1578,
      "velocity": 113,
      "chip": "ym2612"
    },
    {
      "channel": 0,
      "note": 85,
      "start": 52.9871,
      "duration": 0.1649,
      "velocity": 122,
      "chip": "ym2612"
    },
    {
      "channel": 1,
      "note": 85,
      "start": 52.993,
      "duration": 0.1566,
      "velocity": 122,
      "chip": "ym2612"
    },
    {
      "channel": 5,
      "note": 66,
      "start": 52.996,
      "duration": 0.0718,
      "velocity": 127,
      "chip": "ym2612"
    },
    {
      "channel": 5,
      "note": 66,
      "start": 53.0684,
      "duration": 0.0861,
      "velocity": 127,
      "chip": "ym2612"
    },
    {
      "channel": 4,
      "note": 46,
      "start": 53.1409,
      "duration": 0.1585,
      "velocity": 113,
      "chip": "ym2612"
    },
    {
      "channel": 1,
      "note": 85,
      "start": 53.1503,
      "duration": 0.1585,
      "velocity": 122,
      "chip": "ym2612"
    },
    {
      "channel": 0,
      "note": 85,
      "start": 53.1526,
      "duration": 0.1585,
      "velocity": 122,
      "chip": "ym2612"
    },
    {
      "channel": 5,
      "note": 66,
      "start": 53.1551,
      "duration": 0.0718,
      "velocity": 127,
      "chip": "ym2612"
    },
    {
      "channel": 5,
      "note": 66,
      "start": 53.2275,
      "duration": 0.0861,
      "velocity": 127,
      "chip": "ym2612"
    },
    {
      "channel": 4,
      "note": 45,
      "start": 53.3,
      "duration": 0.1603,
      "velocity": 113,
      "chip": "ym2612"
    },
    {
      "channel": 1,
      "note": 84,
      "start": 53.3094,
      "duration": 0.1665,
      "velocity": 122,
      "chip": "ym2612"
    },
    {
      "channel": 0,
      "note": 84,
      "start": 53.3117,
      "duration": 0.1665,
      "velocity": 122,
      "chip": "ym2612"
    },
    {
      "channel": 5,
      "note": 66,
      "start": 53.3142,
      "duration": 0.0748,
      "velocity": 127,
      "chip": "ym2612"
    },
    {
      "channel": 5,
      "note": 66,
      "start": 53.3897,
      "duration": 0.0824,
      "velocity": 127,
      "chip": "ym2612"
    },
    {
      "channel": 4,
      "note": 43,
      "start": 53.461,
      "duration": 0.1821,
      "velocity": 113,
      "chip": "ym2612"
    },
    {
      "channel": 5,
      "note": 66,
      "start": 53.4727,
      "duration": 0.0754,
      "velocity": 127,
      "chip": "ym2612"
    },
    {
      "channel": 1,
      "note": 84,
      "start": 53.4765,
      "duration": 0.1751,
      "velocity": 122,
      "chip": "ym2612"
    },
    {
      "channel": 0,
      "note": 84,
      "start": 53.4788,
      "duration": 0.1861,
      "velocity": 122,
      "chip": "ym2612"
    },
    {
      "channel": 5,
      "note": 66,
      "start": 53.5488,
      "duration": 0.1061,
      "velocity": 127,
      "chip": "ym2612"
    },
    {
      "channel": 3,
      "note": 64,
      "start": 53.6353,
      "duration": 0.1477,
      "velocity": 122,
      "chip": "ym2612"
    },
    {
      "channel": 2,
      "note": 71,
      "start": 53.6377,
      "duration": 0.1468,
      "velocity": 122,
      "chip": "ym2612"
    },
    {
      "channel": 4,
      "note": 40,
      "start": 53.6437,
      "duration": 0.144,
      "velocity": 113,
      "chip": "ym2612"
    },
    {
      "channel": 1,
      "note": 71,
      "start": 53.6522,
      "duration": 0.1246,
      "velocity": 122,
      "chip": "ym2612"
    },
    {
      "channel": 0,
      "note": 83,
      "start": 53.6655,
      "duration": 0.1134,
      "velocity": 122,
      "chip": "ym2612"
    },
    {
      "channel": 5,
      "note": 66,
      "start": 53.6681,
      "duration": 0.2726,
      "velocity": 127,
      "chip": "ym2612"
    },
    {
      "channel": 1,
      "note": 67,
      "start": 53.7773,
      "duration": 0.1681,
      "velocity": 122,
      "chip": "ym2612"
    },
    {
      "channel": 0,
      "note": 79,
      "start": 53.7796,
      "duration": 0.1681,
      "velocity": 122,
      "chip": "ym2612"
    },
    {
      "channel": 4,
      "note": 40,
      "start": 53.7883,
      "duration": 0.1639,
      "velocity": 113,
      "chip": "ym2612"
    },
    {
      "channel": 1,
      "note": 64,
      "start": 53.9461,
      "duration": 0.1557,
      "velocity": 122,
      "chip": "ym2612"
    },
    {
      "channel": 0,
      "note": 76,
      "start": 53.9483,
      "duration": 0.1557,
      "velocity": 122,
      "chip": "ym2612"
    },
    {
      "channel": 4,
      "note": 40,
      "start": 53.9528,
      "duration": 0.1616,
      "velocity": 113,
      "chip": "ym2612"
    },
    {
      "channel": 5,
      "note": 66,
      "start": 53.9573,
      "duration": 0.3014,
      "velocity": 127,
      "chip": "ym2612"
    },
    {
      "channel": 2,
      "note": 71,
      "start": 54.1002,
      "duration": 0.8103,
      "velocity": 122,
      "chip": "ym2612"
    },
    {
      "channel": 1,
      "note": 68,
      "start": 54.1024,
      "duration": 1.4566,
      "velocity": 122,
      "chip": "ym2612"
    },
    {
      "channel": 0,
      "note": 80,
      "start": 54.1046,
      "duration": 1.4566,
      "velocity": 122,
      "chip": "ym2612"
    },
    {
      "channel": 3,
      "note": 64,
      "start": 54.1089,
      "duration": 0.7993,
      "velocity": 122,
      "chip": "ym2612"
    },
    {
      "channel": 4,
      "note": 40,
      "start": 54.115,
      "duration": 0.153,
      "velocity": 113,
      "chip": "ym2612"
    },
    {
      "channel": 4,
      "note": 40,
      "start": 54.2686,
      "duration": 0.1617,
      "velocity": 113,
      "chip": "ym2612"
    },
    {
      "channel": 5,
      "note": 66,
      "start": 54.2746,
      "duration": 0.1496,
      "velocity": 127,
      "chip": "ym2612"
    },
    {
      "channel": 5,
      "note": 66,
      "start": 54.4248,
      "duration": 0.1608,
      "velocity": 127,
      "chip": "ym2612"
    },
    {
      "channel": 4,
      "note": 40,
      "start": 54.4309,
      "duration": 0.1572,
      "velocity": 113,
      "chip": "ym2612"
    },
    {
      "channel": 4,
      "note": 40,
      "start": 54.5888,
      "duration": 0.1638,
      "velocity": 113,
      "chip": "ym2612"
    },
    {
      "channel": 5,
      "note": 66,
      "start": 54.5978,
      "duration": 0.1468,
      "velocity": 127,
      "chip": "ym2612"
    },
    {
      "channel": 4,
      "note": 40,
      "start": 54.7532,
      "duration": 0.1613,
      "velocity": 113,
      "chip": "ym2612"
    },
    {
      "channel": 5,
      "note": 66,
      "start": 54.7577,
      "duration": 0.147,
      "velocity": 127,
      "chip": "ym2612"
    },
    {
      "channel": 5,
      "note": 66,
      "start": 54.9053,
      "duration": 0.3218,
      "velocity": 127,
      "chip": "ym2612"
    },
    {
      "channel": 3,
      "note": 66,
      "start": 54.9088,
      "duration": 0.1536,
      "velocity": 122,
      "chip": "ym2612"
    },
    {
      "channel": 2,
      "note": 73,
      "start": 54.9111,
      "duration": 0.1527,
      "velocity": 122,
      "chip": "ym2612"
    },
    {
      "channel": 4,
      "note": 40,
      "start": 54.9151,
      "duration": 0.1558,
      "velocity": 113,
      "chip": "ym2612"
    },
    {
      "channel": 4,
      "note": 40,
      "start": 55.0715,
      "duration": 0.1634,
      "velocity": 113,
      "chip": "ym2612"
    },
    {
      "channel": 4,
      "note": 40,
      "start": 55.2356,
      "duration": 0.1594,
      "velocity": 113,
      "chip": "ym2612"
    },
    {
      "channel": 5,
      "note": 66,
      "start": 55.24,
      "duration": 0.3131,
      "velocity": 127,
      "chip": "ym2612"
    },
    {
      "channel": 2,
      "note": 73,
      "start": 55.386,
      "duration": 0.8055,
      "velocity": 122,
      "chip": "ym2612"
    },
    {
      "channel": 3,
      "note": 66,
      "start": 55.3912,
      "duration": 0.798,
      "velocity": 122,
      "chip": "ym2612"
    },
    {
      "channel": 4,
      "note": 40,
      "start": 55.3956,
      "duration": 0.1601,
      "velocity": 113,
      "chip": "ym2612"
    },
    {
      "channel": 4,
      "note": 40,
      "start": 55.5563,
      "duration": 0.1634,
      "velocity": 113,
      "chip": "ym2612"
    },
    {
      "channel": 1,
      "note": 69,
      "start": 55.5596,
      "duration": 0.1492,
      "velocity": 122,
      "chip": "ym2612"
    },
    {
      "channel": 0,
      "note": 81,
      "start": 55.5618,
      "duration": 0.1492,
      "velocity": 122,
      "chip": "ym2612"
    },
    {
      "channel": 5,
      "note": 66,
      "start": 55.5692,
      "duration": 0.1444,
      "velocity": 127,
      "chip": "ym2612"
    },
    {
      "channel": 1,
      "note": 67,
      "start": 55.7094,
      "duration": 0.1618,
      "velocity": 122,
      "chip": "ym2612"
    },
    {
      "channel": 0,
      "note": 79,
      "start": 55.7116,
      "duration": 0.1619,
      "velocity": 122,
      "chip": "ym2612"
    },
    {
      "channel": 5,
      "note": 66,
      "start": 55.7142,
      "duration": 0.1523,
      "velocity": 127,
      "chip": "ym2612"
    },
    {
      "channel": 4,
      "note": 40,
      "start": 55.7203,
      "duration": 0.1577,
      "velocity": 113,
      "chip": "ym2612"
    },
    {
      "channel": 1,
      "note": 62,
      "start": 55.8718,
      "duration": 0.1609,
      "velocity": 122,
      "chip": "ym2612"
    },
    {
      "channel": 0,
      "note": 74,
      "start": 55.8741,
      "duration": 0.1609,
      "velocity": 122,
      "chip": "ym2612"
    },
    {
      "channel": 4,
      "note": 40,
      "start": 55.8786,
      "duration": 0.1594,
      "velocity": 113,
      "chip": "ym2612"
    },
    {
      "channel": 5,
      "note": 66,
      "start": 55.8831,
      "duration": 0.316,
      "velocity": 127,
      "chip": "ym2612"
    },
    {
      "channel": 1,
      "note": 64,
      "start": 56.0334,
      "duration": 1.1239,
      "velocity": 122,
      "chip": "ym2612"
    },
    {
      "channel": 0,
      "note": 76,
      "start": 56.0356,
      "duration": 1.1238,
      "velocity": 122,
      "chip": "ym2612"
    },
    {
      "channel": 4,
      "note": 40,
      "start": 56.0386,
      "duration": 0.163,
      "velocity": 113,
      "chip": "ym2612"
    },
    {
      "channel": 3,
      "note": 67,
      "start": 56.1898,
      "duration": 0.1632,
      "velocity": 122,
      "chip": "ym2612"
    },
    {
      "channel": 2,
      "note": 74,
      "start": 56.1921,
      "duration": 0.1623,
      "velocity": 122,
      "chip": "ym2612"
    },
    {
      "channel": 4,
      "note": 40,
      "start": 56.2022,
      "duration": 0.1593,
      "velocity": 113,
      "chip": "ym2612"
    },
    {
      "channel": 5,
      "note": 66,
      "start": 56.2115,
      "duration": 0.3,
      "velocity": 127,
      "chip": "ym2612"
    },
    {
      "channel": 4,
      "note": 40,
      "start": 56.3622,
      "duration": 0.1572,
      "velocity": 113,
      "chip": "ym2612"
    },
    {
      "channel": 4,
      "note": 40,
      "start": 56.5201,
      "duration": 0.1594,
      "velocity": 113,
      "chip": "ym2612"
    },
    {
      "channel": 5,
      "note": 66,
      "start": 56.5245,
      "duration": 0.3111,
      "velocity": 127,
      "chip": "ym2612"
    },
    {
      "channel": 3,
      "note": 67,
      "start": 56.6739,
      "duration": 0.8054,
      "velocity": 122,
      "chip": "ym2612"
    },
    {
      "channel": 2,
      "note": 74,
      "start": 56.6762,
      "duration": 0.8053,
      "velocity": 122,
      "chip": "ym2612"
    },
    {
      "channel": 4,
      "note": 40,
      "start": 56.6801,
      "duration": 0.1635,
      "velocity": 113,
      "chip": "ym2612"
    },
    {
      "channel": 4,
      "note": 40,
      "start": 56.8443,
      "duration": 0.1576,
      "velocity": 113,
      "chip": "ym2612"
    },
    {
      "channel": 5,
      "note": 66,
      "start": 56.8488,
      "duration": 0.1471,
      "velocity": 127,
      "chip": "ym2612"
    },
    {
      "channel": 5,
      "note": 66,
      "start": 56.9965,
      "duration": 0.1653,
      "velocity": 127,
      "chip": "ym2612"
    },
    {
      "channel": 4,
      "note": 40,
      "start": 57.0026,
      "duration": 0.167,
      "velocity": 113,
      "chip": "ym2612"
    },
    {
      "channel": 1,
      "note": 62,
      "start": 57.1578,
      "duration": 0.1602,
      "velocity": 122,
      "chip": "ym2612"
    },
    {
      "channel": 0,
      "note": 74,
      "start": 57.1601,
      "duration": 0.1602,
      "velocity": 122,
      "chip": "ym2612"
    },
    {
      "channel": 4,
      "note": 40,
      "start": 57.1702,
      "duration": 0.1548,
      "velocity": 113,
      "chip": "ym2612"
    },
    {
      "channel": 5,
      "note": 66,
      "start": 57.1746,
      "duration": 0.1479,
      "velocity": 127,
      "chip": "ym2612"
    },
    {
      "channel": 1,
      "note": 59,
      "start": 57.3187,
      "duration": 1.4419,
      "velocity": 122,
      "chip": "ym2612"
    },
    {
      "channel": 0,
      "note": 71,
      "start": 57.3209,
      "duration": 1.4419,
      "velocity": 122,
      "chip": "ym2612"
    },
    {
      "channel": 4,
      "note": 40,
      "start": 57.3256,
      "duration": 0.1599,
      "velocity": 113,
      "chip": "ym2612"
    },
    {
      "channel": 5,
      "note": 66,
      "start": 57.3349,
      "duration": 0.1408,
      "velocity": 127,
      "chip": "ym2612"
    },
    {
      "channel": 5,
      "note": 66,
      "start": 57.4764,
      "duration": 0.3218,
      "velocity": 127,
      "chip": "ym2612"
    },
    {
      "channel": 3,
      "note": 69,
      "start": 57.4799,
      "duration": 0.1605,
      "velocity": 122,
      "chip": "ym2612"
    },
    {
      "channel": 2,
      "note": 76,
      "start": 57.4822,
      "duration": 0.1595,
      "velocity": 122,
      "chip": "ym2612"
    },
    {
      "channel": 4,
      "note": 40,
      "start": 57.4861,
      "duration": 0.1589,
      "velocity": 113,
      "chip": "ym2612"
    },
    {
      "channel": 4,
      "note": 40,
      "start": 57.6457,
      "duration": 0.1603,
      "velocity": 113,
      "chip": "ym2612"
    },
    {
      "channel": 4,
      "note": 40,
      "start": 57.8066,
      "duration": 0.1593,
      "velocity": 113,
      "chip": "ym2612"
    },
    {
      "channel": 5,
      "note": 66,
      "start": 57.8111,
      "duration": 0.327,
      "velocity": 127,
      "chip": "ym2612"
    },
    {
      "channel": 2,
      "note": 76,
      "start": 57.957,
      "duration": 0.813,
      "velocity": 122,
      "chip": "ym2612"
    },
    {
      "channel": 3,
      "note": 69,
      "start": 57.9622,
      "duration": 0.8055,
      "velocity": 122,
      "chip": "ym2612"
    },
    {
      "channel": 4,
      "note": 40,
      "start": 57.9666,
      "duration": 0.1625,
      "velocity": 113,
      "chip": "ym2612"
    },
    {
      "channel": 4,
      "note": 40,
      "start": 58.1297,
      "duration": 0.1574,
      "velocity": 113,
      "chip": "ym2612"
    },
    {
      "channel": 5,
      "note": 66,
      "start": 58.1388,
      "duration": 0.0717,
      "velocity": 127,
      "chip": "ym2612"
    },
    {
      "channel": 5,
      "note": 66,
      "start": 58.2111,
      "duration": 0.0805,
      "velocity": 127,
      "chip": "ym2612"
    },
    {
      "channel": 4,
      "note": 40,
      "start": 58.2877,
      "duration": 0.162,
      "velocity": 113,
      "chip": "ym2612"
    },
    {
      "channel": 5,
      "note": 66,
      "start": 58.2922,
      "duration": 0.0779,
      "velocity": 127,
      "chip": "ym2612"
    },
    {
      "channel": 5,
      "note": 66,
      "start": 58.3707,
      "duration": 0.0835,
      "velocity": 127,
      "chip": "ym2612"
    },
    {
      "channel": 4,
      "note": 38,
      "start": 58.4504,
      "duration": 0.1536,
      "velocity": 113,
      "chip": "ym2612"
    },
    {
      "channel": 5,
      "note": 66,
      "start": 58.4549,
      "duration": 0.0748,
      "velocity": 127,
      "chip": "ym2612"
    },
    {
      "channel": 5,
      "note": 66,
      "start": 58.5303,
      "duration": 0.0828,
      "velocity": 127,
      "chip": "ym2612"
    },
    {
      "channel": 4,
      "note": 39,
      "start": 58.6047,
      "duration": 0.1698,
      "velocity": 113,
      "chip": "ym2612"
    },
    {
      "channel": 5,
      "note": 66,
      "start": 58.6137,
      "duration": 0.081,
      "velocity": 127,
      "chip": "ym2612"
    },
    {
      "channel": 5,
      "note": 66,
      "start": 58.6953,
      "duration": 0.0949,
      "velocity": 127,
      "chip": "ym2612"
    },
    {
      "channel": 1,
      "note": 71,
      "start": 58.7611,
      "duration": 0.1647,
      "velocity": 122,
      "chip": "ym2612"
    },
    {
      "channel": 0,
      "note": 83,
      "start": 58.7634,
      "duration": 0.1646,
      "velocity": 122,
      "chip": "ym2612"
    },
    {
      "channel": 3,
      "note": 64,
      "start": 58.7683,
      "duration": 0.1637,
      "velocity": 122,
      "chip": "ym2612"
    },
    {
      "channel": 2,
      "note": 71,
      "start": 58.7706,
      "duration": 0.1536,
      "velocity": 122,
      "chip": "ym2612"
    },
    {
      "channel": 4,
      "note": 40,
      "start": 58.7751,
      "duration": 0.1607,
      "velocity": 113,
      "chip": "ym2612"
    },
    {
      "channel": 5,
      "note": 66,
      "start": 58.8008,
      "duration": 0.2894,
      "velocity": 127,
      "chip": "ym2612"
    },
    {
      "channel": 1,
      "note": 67,
      "start": 58.9264,
      "duration": 0.1592,
      "velocity": 122,
      "chip": "ym2612"
    },
    {
      "channel": 0,
      "note": 79,
      "start": 58.9286,
      "duration": 0.1593,
      "velocity": 122,
      "chip": "ym2612"
    },
    {
      "channel": 4,
      "note": 40,
      "start": 58.9365,
      "duration": 0.1562,
      "velocity": 113,
      "chip": "ym2612"
    },
    {
      "channel": 1,
      "note": 64,
      "start": 59.0863,
      "duration": 0.1655,
      "velocity": 122,
      "chip": "ym2612"
    },
    {
      "channel": 0,
      "note": 76,
      "start": 59.0886,
      "duration": 0.1654,
      "velocity": 122,
      "chip": "ym2612"
    },
    {
      "channel": 4,
      "note": 40,
      "start": 59.0933,
      "duration": 0.1692,
      "velocity": 113,
      "chip": "ym2612"
    },
    {
      "channel": 5,
      "note": 66,
      "start": 59.1023,
      "duration": 0.3045,
      "velocity": 127,
      "chip": "ym2612"
    },
    {
      "channel": 3,
      "note": 64,
      "start": 59.2478,
      "duration": 0.8104,
      "velocity": 122,
      "chip": "ym2612"
    },
    {
      "channel": 2,
      "note": 71,
      "start": 59.2501,
      "duration": 0.8011,
      "velocity": 122,
      "chip": "ym2612"
    },
    {
      "channel": 1,
      "note": 68,
      "start": 59.2524,
      "duration": 1.4466,
      "velocity": 122,
      "chip": "ym2612"
    },
    {
      "channel": 0,
      "note": 80,
      "start": 59.2546,
      "duration": 1.4467,
      "velocity": 122,
      "chip": "ym2612"
    },
    {
      "channel": 4,
      "note": 40,
      "start": 59.2631,
      "duration": 0.153,
      "velocity": 113,
      "chip": "ym2612"
    },
    {
      "channel": 4,
      "note": 40,
      "start": 59.4168,
      "duration": 0.1555,
      "velocity": 113,
      "chip": "ym2612"
    },
    {
      "channel": 5,
      "note": 66,
      "start": 59.4227,
      "duration": 0.1434,
      "velocity": 127,
      "chip": "ym2612"
    },
    {
      "channel": 5,
      "note": 66,
      "start": 59.5668,
      "duration": 0.1616,
      "velocity": 127,
      "chip": "ym2612"
    },
    {
      "channel": 4,
      "note": 40,
      "start": 59.5729,
      "duration": 0.1648,
      "velocity": 113,
      "chip": "ym2612"
    },
    {
      "channel": 4,
      "note": 40,
      "start": 59.7384,
      "duration": 0.1545,
      "velocity": 113,
      "chip": "ym2612"
    },
    {
      "channel": 5,
      "note": 66,
      "start": 59.7428,
      "duration": 0.1475,
      "velocity": 127,
      "chip": "ym2612"
    },
    {
      "channel": 4,
      "note": 40,
      "start": 59.8935,
      "duration": 0.1691,
      "velocity": 113,
      "chip": "ym2612"
    },
    {
      "channel": 5,
      "note": 66,
      "start": 59.9028,
      "duration": 0.1518,
      "velocity": 127,
      "chip": "ym2612"
    },
    {
      "channel": 2,
      "note": 73,
      "start": 60.0518,
      "duration": 0.1609,
      "velocity": 122,
      "chip": "ym2612"
    },
    {
      "channel": 5,
      "note": 66,
      "start": 60.0552,
      "duration": 0.3138,
      "velocity": 127,
      "chip": "ym2612"
    },
    {
      "channel": 3,
      "note": 66,
      "start": 60.0588,
      "duration": 0.1525,
      "velocity": 122,
      "chip": "ym2612"
    },
    {
      "channel": 4,
      "note": 40,
      "start": 60.0632,
      "duration": 0.1527,
      "velocity": 113,
      "chip": "ym2612"
    },
    {
      "channel": 4,
      "note": 40,
      "start": 60.2166,
      "duration": 0.1602,
      "velocity": 113,
      "chip": "ym2612"
    },
    {
      "channel": 4,
      "note": 40,
      "start": 60.3775,
      "duration": 0.1625,
      "velocity": 113,
      "chip": "ym2612"
    },
    {
      "channel": 5,
      "note": 66,
      "start": 60.382,
      "duration": 0.3124,
      "velocity": 127,
      "chip": "ym2612"
    },
    {
      "channel": 3,
      "note": 66,
      "start": 60.5344,
      "duration": 0.8036,
      "velocity": 122,
      "chip": "ym2612"
    },
    {
      "channel": 2,
      "note": 73,
      "start": 60.5367,
      "duration": 0.8036,
      "velocity": 122,
      "chip": "ym2612"
    },
    {
      "channel": 4,
      "note": 40,
      "start": 60.5407,
      "duration": 0.1653,
      "velocity": 113,
      "chip": "ym2612"
    },
    {
      "channel": 1,
      "note": 69,
      "start": 60.6996,
      "duration": 0.1579,
      "velocity": 122,
      "chip": "ym2612"
    },
    {
      "channel": 0,
      "note": 81,
      "start": 60.7019,
      "duration": 0.1578,
      "velocity": 122,
      "chip": "ym2612"
    },
    {
      "channel": 4,
      "note": 40,
      "start": 60.7066,
      "duration": 0.1579,
      "velocity": 113,
      "chip": "ym2612"
    },
    {
      "channel": 5,
      "note": 66,
      "start": 60.711,
      "duration": 0.1513,
      "velocity": 127,
      "chip": "ym2612"
    },
    {
      "channel": 1,
      "note": 67,
      "start": 60.8582,
      "duration": 0.1629,
      "velocity": 122,
      "chip": "ym2612"
    },
    {
      "channel": 0,
      "note": 79,
      "start": 60.8604,
      "duration": 0.1538,
      "velocity": 122,
      "chip": "ym2612"
    },
    {
      "channel": 5,
      "note": 66,
      "start": 60.863,
      "duration": 0.1534,
      "velocity": 127,
      "chip": "ym2612"
    },
    {
      "channel": 4,
      "note": 40,
      "start": 60.8652,
      "duration": 0.1608,
      "velocity": 113,
      "chip": "ym2612"
    },
    {
      "channel": 0,
      "note": 81,
      "start": 61.0148,
      "duration": 0.1612,
      "velocity": 122,
      "chip": "ym2612"
    },
    {
      "channel": 1,
      "note": 69,
      "start": 61.0217,
      "duration": 0.1522,
      "velocity": 122,
      "chip": "ym2612"
    },
    {
      "channel": 4,
      "note": 40,
      "start": 61.0267,
      "duration": 0.1563,
      "velocity": 113,
      "chip": "ym2612"
    },
    {
      "channel": 5,
      "note": 66,
      "start": 61.0311,
      "duration": 0.3178,
      "velocity": 127,
      "chip": "ym2612"
    },
    {
      "channel": 1,
      "note": 71,
      "start": 61.1744,
      "duration": 1.1301,
      "velocity": 122,
      "chip": "ym2612"
    },
    {
      "channel": 0,
      "note": 83,
      "start": 61.1767,
      "duration": 1.1301,
      "velocity": 122,
      "chip": "ym2612"
    },
    {
      "channel": 4,
      "note": 40,
      "start": 61.1836,
      "duration": 0.1612,
      "velocity": 113,
      "chip": "ym2612"
    },
    {
      "channel": 3,
      "note": 67,
      "start": 61.3386,
      "duration": 0.161,
      "velocity": 122,
      "chip": "ym2612"
    },
    {
      "channel": 2,
      "note": 74,
      "start": 61.3409,
      "duration": 0.1544,
      "velocity": 122,
      "chip": "ym2612"
    },
    {
      "channel": 4,
      "note": 40,
      "start": 61.3454,
      "duration": 0.158,
      "velocity": 113,
      "chip": "ym2612"
    },
    {
      "channel": 5,
      "note": 66,
      "start": 61.3595,
      "duration": 0.2969,
      "velocity": 127,
      "chip": "ym2612"
    },
    {
      "channel": 4,
      "note": 40,
      "start": 61.504,
      "duration": 0.1603,
      "velocity": 113,
      "chip": "ym2612"
    },
    {
      "channel": 4,
      "note": 40,
      "start": 61.665,
      "duration": 0.1625,
      "velocity": 113,
      "chip": "ym2612"
    },
    {
      "channel": 5,
      "note": 66,
      "start": 61.6694,
      "duration": 0.3081,
      "velocity": 127,
      "chip": "ym2612"
    },
    {
      "channel": 3,
      "note": 67,
      "start": 61.8218,
      "duration": 0.8046,
      "velocity": 122,
      "chip": "ym2612"
    },
    {
      "channel": 2,
      "note": 74,
      "start": 61.8242,
      "duration": 0.8046,
      "velocity": 122,
      "chip": "ym2612"
    },
    {
      "channel": 4,
      "note": 40,
      "start": 61.8281,
      "duration": 0.1574,
      "velocity": 113,
      "chip": "ym2612"
    },
    {
      "channel": 4,
      "note": 40,
      "start": 61.9861,
      "duration": 0.1607,
      "velocity": 113,
      "chip": "ym2612"
    },
    {
      "channel": 5,
      "note": 66,
      "start": 61.9905,
      "duration": 0.1539,
      "velocity": 127,
      "chip": "ym2612"
    },
    {
      "channel": 5,
      "note": 66,
      "start": 62.1451,
      "duration": 0.1547,
      "velocity": 127,
      "chip": "ym2612"
    },
    {
      "channel": 4,
      "note": 40,
      "start": 62.1474,
      "duration": 0.1639,
      "velocity": 113,
      "chip": "ym2612"
    },
    {
      "channel": 1,
      "note": 74,
      "start": 62.3052,
      "duration": 0.162,
      "velocity": 122,
      "chip": "ym2612"
    },
    {
      "channel": 0,
      "note": 86,
      "start": 62.3074,
      "duration": 0.1529,
      "velocity": 122,
      "chip": "ym2612"
    },
    {
      "channel": 4,
      "note": 40,
      "start": 62.3119,
      "duration": 0.1604,
      "velocity": 113,
      "chip": "ym2612"
    },
    {
      "channel": 5,
      "note": 66,
      "start": 62.3164,
      "duration": 0.1461,
      "velocity": 127,
      "chip": "ym2612"
    },
    {
      "channel": 0,
      "note": 83,
      "start": 62.4609,
      "duration": 1.4601,
      "velocity": 122,
      "chip": "ym2612"
    },
    {
      "channel": 1,
      "note": 83,
      "start": 62.4678,
      "duration": 0.1726,
      "velocity": 122,
      "chip": "ym2612"
    },
    {
      "channel": 4,
      "note": 40,
      "start": 62.473,
      "duration": 0.1604,
      "velocity": 113,
      "chip": "ym2612"
    },
    {
      "channel": 5,
      "note": 66,
      "start": 62.4774,
      "duration": 0.1456,
      "velocity": 127,
      "chip": "ym2612"
    },
    {
      "channel": 5,
      "note": 66,
      "start": 62.6236,
      "duration": 0.322,
      "velocity": 127,
      "chip": "ym2612"
    },
    {
      "channel": 3,
      "note": 69,
      "start": 62.6271,
      "duration": 0.1559,
      "velocity": 122,
      "chip": "ym2612"
    },
    {
      "channel": 2,
      "note": 76,
      "start": 62.6294,
      "duration": 0.155,
      "velocity": 122,
      "chip": "ym2612"
    },
    {
      "channel": 4,
      "note": 40,
      "start": 62.634,
      "duration": 0.1544,
      "velocity": 113,
      "chip": "ym2612"
    },
    {
      "channel": 1,
      "note": 83,
      "start": 62.641,
      "duration": 0.1544,
      "velocity": 122,
      "chip": "ym2612"
    },
    {
      "channel": 4,
      "note": 40,
      "start": 62.789,
      "duration": 0.165,
      "velocity": 113,
      "chip": "ym2612"
    },
    {
      "channel": 1,
      "note": 82,
      "start": 62.7961,
      "duration": 0.1668,
      "velocity": 122,
      "chip": "ym2612"
    },
    {
      "channel": 4,
      "note": 40,
      "start": 62.9547,
      "duration": 0.1579,
      "velocity": 113,
      "chip": "ym2612"
    },
    {
      "channel": 5,
      "note": 66,
      "start": 62.9599,
      "duration": 0.3228,
      "velocity": 127,
      "chip": "ym2612"
    },
    {
      "channel": 1,
      "note": 82,
      "start": 62.9636,
      "duration": 0.1562,
      "velocity": 122,
      "chip": "ym2612"
    },
    {
      "channel": 3,
      "note": 69,
      "start": 63.1064,
      "duration": 0.8196,
      "velocity": 122,
      "chip": "ym2612"
    },
    {
      "channel": 2,
      "note": 76,
      "start": 63.1087,
      "duration": 0.8196,
      "velocity": 122,
      "chip": "ym2612"
    },
    {
      "channel": 4,
      "note": 40,
      "start": 63.1132,
      "duration": 0.1578,
      "velocity": 113,
      "chip": "ym2612"
    },
    {
      "channel": 1,
      "note": 82,
      "start": 63.1204,
      "duration": 0.1593,
      "velocity": 122,
      "chip": "ym2612"
    },
    {
      "channel": 4,
      "note": 47,
      "start": 63.2717,
      "duration": 0.1562,
      "velocity": 113,
      "chip": "ym2612"
    },
    {
      "channel": 1,
      "note": 82,
      "start": 63.2803,
      "duration": 0.1617,
      "velocity": 122,
      "chip": "ym2612"
    },
    {
      "channel": 5,
      "note": 66,
      "start": 63.2834,
      "duration": 0.0732,
      "velocity": 127,
      "chip": "ym2612"
    },
    {
      "channel": 5,
      "note": 66,
      "start": 63.3572,
      "duration": 0.0811,
      "velocity": 127,
      "chip": "ym2612"
    },
    {
      "channel": 4,
      "note": 46,
      "start": 63.4285,
      "duration": 0.1605,
      "velocity": 113,
      "chip": "ym2612"
    },
    {
      "channel": 5,
      "note": 66,
      "start": 63.439,
      "duration": 0.0751,
      "velocity": 127,
      "chip": "ym2612"
    },
    {
      "channel": 1,
      "note": 81,
      "start": 63.4427,
      "duration": 0.1549,
      "velocity": 122,
      "chip": "ym2612"
    },
    {
      "channel": 5,
      "note": 66,
      "start": 63.5146,
      "duration": 0.086,
      "velocity": 127,
      "chip": "ym2612"
    },
    {
      "channel": 4,
      "note": 45,
      "start": 63.5897,
      "duration": 0.163,
      "velocity": 113,
      "chip": "ym2612"
    },
    {
      "channel": 1,
      "note": 81,
      "start": 63.5982,
      "duration": 0.163,
      "velocity": 122,
      "chip": "ym2612"
    },
    {
      "channel": 5,
      "note": 66,
      "start": 63.6013,
      "duration": 0.0763,
      "velocity": 127,
      "chip": "ym2612"
    },
    {
      "channel": 5,
      "note": 66,
      "start": 63.6783,
      "duration": 0.086,
      "velocity": 127,
      "chip": "ym2612"
    },
    {
      "channel": 4,
      "note": 43,
      "start": 63.7533,
      "duration": 0.1803,
      "velocity": 113,
      "chip": "ym2612"
    },
    {
      "channel": 1,
      "note": 81,
      "start": 63.7619,
      "duration": 0.1795,
      "velocity": 122,
      "chip": "ym2612"
    },
    {
      "channel": 5,
      "note": 66,
      "start": 63.7649,
      "duration": 0.0732,
      "velocity": 127,
      "chip": "ym2612"
    },
    {
      "channel": 5,
      "note": 66,
      "start": 63.8388,
      "duration": 0.1054,
      "velocity": 127,
      "chip": "ym2612"
    },
    {
      "channel": 0,
      "note": 83,
      "start": 63.9217,
      "duration": 0.1527,
      "velocity": 122,
      "chip": "ym2612"
    },
    {
      "channel": 3,
      "note": 64,
      "start": 63.9266,
      "duration": 0.1424,
      "velocity": 122,
      "chip": "ym2612"
    },
    {
      "channel": 2,
      "note": 71,
      "start": 63.9289,
      "duration": 0.1415,
      "velocity": 122,
      "chip": "ym2612"
    },
    {
      "channel": 4,
      "note": 40,
      "start": 63.9342,
      "duration": 0.1431,
      "velocity": 113,
      "chip": "ym2612"
    },
    {
      "channel": 1,
      "note": 71,
      "start": 63.942,
      "duration": 0.1301,
      "velocity": 122,
      "chip": "ym2612"
    },
    {
      "channel": 5,
      "note": 66,
      "start": 63.9547,
      "duration": 0.2758,
      "velocity": 127,
      "chip": "ym2612"
    },
    {
      "channel": 1,
      "note": 67,
      "start": 64.0727,
      "duration": 0.1624,
      "velocity": 122,
      "chip": "ym2612"
    },
    {
      "channel": 0,
      "note": 79,
      "start": 64.075,
      "duration": 0.1624,
      "velocity": 122,
      "chip": "ym2612"
    },
    {
      "channel": 4,
      "note": 40,
      "start": 64.078,
      "duration": 0.1639,
      "velocity": 113,
      "chip": "ym2612"
    },
    {
      "channel": 1,
      "note": 64,
      "start": 64.2356,
      "duration": 0.154,
      "velocity": 122,
      "chip": "ym2612"
    },
    {
      "channel": 0,
      "note": 76,
      "start": 64.238,
      "duration": 0.1539,
      "velocity": 122,
      "chip": "ym2612"
    },
    {
      "channel": 4,
      "note": 40,
      "start": 64.2425,
      "duration": 0.1616,
      "velocity": 113,
      "chip": "ym2612"
    },
    {
      "channel": 5,
      "note": 66,
      "start": 64.247,
      "duration": 0.3111,
      "velocity": 127,
      "chip": "ym2612"
    },
    {
      "channel": 1,
      "note": 68,
      "start": 64.3903,
      "duration": 1.4563,
      "velocity": 122,
      "chip": "ym2612"
    },
    {
      "channel": 0,
      "note": 80,
      "start": 64.3925,
      "duration": 1.4564,
      "velocity": 122,
      "chip": "ym2612"
    },
    {
      "channel": 3,
      "note": 64,
      "start": 64.3968,
      "duration": 0.801,
      "velocity": 122,
      "chip": "ym2612"
    },
    {
      "channel": 2,
      "note": 71,
      "start": 64.3991,
      "duration": 0.8011,
      "velocity": 122,
      "chip": "ym2612"
    },
    {
      "channel": 4,
      "note": 40,
      "start": 64.4047,
      "duration": 0.1559,
      "velocity": 113,
      "chip": "ym2612"
    },
    {
      "channel": 4,
      "note": 40,
      "start": 64.5612,
      "duration": 0.1588,
      "velocity": 113,
      "chip": "ym2612"
    },
    {
      "channel": 5,
      "note": 66,
      "start": 64.5748,
      "duration": 0.1391,
      "velocity": 127,
      "chip": "ym2612"
    },
    {
      "channel": 5,
      "note": 66,
      "start": 64.7146,
      "duration": 0.1601,
      "velocity": 127,
      "chip": "ym2612"
    },
    {
      "channel": 4,
      "note": 40,
      "start": 64.7207,
      "duration": 0.1618,
      "velocity": 113,
      "chip": "ym2612"
    },
    {
      "channel": 4,
      "note": 40,
      "start": 64.8831,
      "duration": 0.1575,
      "velocity": 113,
      "chip": "ym2612"
    },
    {
      "channel": 5,
      "note": 66,
      "start": 64.8876,
      "duration": 0.1505,
      "velocity": 127,
      "chip": "ym2612"
    },
    {
      "channel": 4,
      "note": 40,
      "start": 65.0412,
      "duration": 0.1628,
      "velocity": 113,
      "chip": "ym2612"
    },
    {
      "channel": 5,
      "note": 66,
      "start": 65.0505,
      "duration": 0.1439,
      "velocity": 127,
      "chip": "ym2612"
    },
    {
      "channel": 5,
      "note": 66,
      "start": 65.195,
      "duration": 0.3218,
      "velocity": 127,
      "chip": "ym2612"
    },
    {
      "channel": 3,
      "note": 66,
      "start": 65.1984,
      "duration": 0.1583,
      "velocity": 122,
      "chip": "ym2612"
    },
    {
      "channel": 2,
      "note": 73,
      "start": 65.2008,
      "duration": 0.1517,
      "velocity": 122,
      "chip": "ym2612"
    },
    {
      "channel": 4,
      "note": 40,
      "start": 65.2047,
      "duration": 0.1559,
      "velocity": 113,
      "chip": "ym2612"
    },
    {
      "channel": 4,
      "note": 40,
      "start": 65.3612,
      "duration": 0.1634,
      "velocity": 113,
      "chip": "ym2612"
    },
    {
      "channel": 4,
      "note": 40,
      "start": 65.5252,
      "duration": 0.1593,
      "velocity": 113,
      "chip": "ym2612"
    },
    {
      "channel": 5,
      "note": 66,
      "start": 65.5297,
      "duration": 0.3123,
      "velocity": 127,
      "chip": "ym2612"
    },
    {
      "channel": 3,
      "note": 66,
      "start": 65.679,
      "duration": 0.8062,
      "velocity": 122,
      "chip": "ym2612"
    },
    {
      "channel": 2,
      "note": 73,
      "start": 65.6813,
      "duration": 0.7981,
      "velocity": 122,
      "chip": "ym2612"
    },
    {
      "channel": 4,
      "note": 40,
      "start": 65.6852,
      "duration": 0.1685,
      "velocity": 113,
      "chip": "ym2612"
    },
    {
      "channel": 1,
      "note": 69,
      "start": 65.8473,
      "duration": 0.1511,
      "velocity": 122,
      "chip": "ym2612"
    },
    {
      "channel": 0,
      "note": 81,
      "start": 65.8496,
      "duration": 0.151,
      "velocity": 122,
      "chip": "ym2612"
    },
    {
      "channel": 4,
      "note": 40,
      "start": 65.8543,
      "duration": 0.155,
      "velocity": 113,
      "chip": "ym2612"
    },
    {
      "channel": 5,
      "note": 66,
      "start": 65.8587,
      "duration": 0.1445,
      "velocity": 127,
      "chip": "ym2612"
    },
    {
      "channel": 1,
      "note": 67,
      "start": 65.999,
      "duration": 0.1601,
      "velocity": 122,
      "chip": "ym2612"
    },
    {
      "channel": 0,
      "note": 79,
      "start": 66.0012,
      "duration": 0.1601,
      "velocity": 122,
      "chip": "ym2612"
    },
    {
      "channel": 5,
      "note": 66,
      "start": 66.0038,
      "duration": 0.1598,
      "velocity": 127,
      "chip": "ym2612"
    },
    {
      "channel": 4,
      "note": 40,
      "start": 66.01,
      "duration": 0.1562,
      "velocity": 113,
      "chip": "ym2612"
    },
    {
      "channel": 1,
      "note": 62,
      "start": 66.1598,
      "duration": 0.1619,
      "velocity": 122,
      "chip": "ym2612"
    },
    {
      "channel": 0,
      "note": 74,
      "start": 66.162,
      "duration": 0.1619,
      "velocity": 122,
      "chip": "ym2612"
    },
    {
      "channel": 4,
      "note": 40,
      "start": 66.1668,
      "duration": 0.1641,
      "velocity": 113,
      "chip": "ym2612"
    },
    {
      "channel": 5,
      "note": 66,
      "start": 66.1758,
      "duration": 0.313,
      "velocity": 127,
      "chip": "ym2612"
    },
    {
      "channel": 1,
      "note": 64,
      "start": 66.3223,
      "duration": 1.1319,
      "velocity": 122,
      "chip": "ym2612"
    },
    {
      "channel": 0,
      "note": 76,
      "start": 66.3245,
      "duration": 1.1228,
      "velocity": 122,
      "chip": "ym2612"
    },
    {
      "channel": 4,
      "note": 40,
      "start": 66.3315,
      "duration": 0.1599,
      "velocity": 113,
      "chip": "ym2612"
    },
    {
      "channel": 2,
      "note": 74,
      "start": 66.48,
      "duration": 0.1632,
      "velocity": 122,
      "chip": "ym2612"
    },
    {
      "channel": 3,
      "note": 67,
      "start": 66.4858,
      "duration": 0.1617,
      "velocity": 122,
      "chip": "ym2612"
    },
    {
      "channel": 4,
      "note": 40,
      "start": 66.492,
      "duration": 0.1593,
      "velocity": 113,
      "chip": "ym2612"
    },
    {
      "channel": 5,
      "note": 66,
      "start": 66.5012,
      "duration": 0.3039,
      "velocity": 127,
      "chip": "ym2612"
    },
    {
      "channel": 4,
      "note": 40,
      "start": 66.6519,
      "duration": 0.1557,
      "velocity": 113,
      "chip": "ym2612"
    },
    {
      "channel": 4,
      "note": 40,
      "start": 66.8083,
      "duration": 0.1608,
      "velocity": 113,
      "chip": "ym2612"
    },
    {
      "channel": 5,
      "note": 66,
      "start": 66.8173,
      "duration": 0.308,
      "velocity": 127,
      "chip": "ym2612"
    },
    {
      "channel": 3,
      "note": 67,
      "start": 66.9635,
      "duration": 0.8053,
      "velocity": 122,
      "chip": "ym2612"
    },
    {
      "channel": 2,
      "note": 74,
      "start": 66.9658,
      "duration": 0.8054,
      "velocity": 122,
      "chip": "ym2612"
    },
    {
      "channel": 4,
      "note": 40,
      "start": 66.9698,
      "duration": 0.1636,
      "velocity": 113,
      "chip": "ym2612"
    },
    {
      "channel": 4,
      "note": 40,
      "start": 67.134,
      "duration": 0.1576,
      "velocity": 113,
      "chip": "ym2612"
    },
    {
      "channel": 5,
      "note": 66,
      "start": 67.1384,
      "duration": 0.147,
      "velocity": 127,
      "chip": "ym2612"
    },
    {
      "channel": 5,
      "note": 66,
      "start": 67.2861,
      "duration": 0.1635,
      "velocity": 127,
      "chip": "ym2612"
    },
    {
      "channel": 4,
      "note": 40,
      "start": 67.2922,
      "duration": 0.1671,
      "velocity": 113,
      "chip": "ym2612"
    },
    {
      "channel": 0,
      "note": 74,
      "start": 67.448,
      "duration": 0.1612,
      "velocity": 122,
      "chip": "ym2612"
    },
    {
      "channel": 1,
      "note": 62,
      "start": 67.4549,
      "duration": 0.1522,
      "velocity": 122,
      "chip": "ym2612"
    },
    {
      "channel": 4,
      "note": 40,
      "start": 67.4599,
      "duration": 0.1596,
      "velocity": 113,
      "chip": "ym2612"
    },
    {
      "channel": 5,
      "note": 66,
      "start": 67.4643,
      "duration": 0.1471,
      "velocity": 127,
      "chip": "ym2612"
    },
    {
      "channel": 1,
      "note": 59,
      "start": 67.6076,
      "duration": 1.4507,
      "velocity": 122,
      "chip": "ym2612"
    },
    {
      "channel": 0,
      "note": 71,
      "start": 67.6098,
      "duration": 1.4508,
      "velocity": 122,
      "chip": "ym2612"
    },
    {
      "channel": 4,
      "note": 40,
      "start": 67.6201,
      "duration": 0.155,
      "velocity": 113,
      "chip": "ym2612"
    },
    {
      "channel": 5,
      "note": 66,
      "start": 67.6246,
      "duration": 0.1408,
      "velocity": 127,
      "chip": "ym2612"
    },
    {
      "channel": 5,
      "note": 66,
      "start": 67.7661,
      "duration": 0.3217,
      "velocity": 127,
      "chip": "ym2612"
    },
    {
      "channel": 3,
      "note": 69,
      "start": 67.7695,
      "duration": 0.1606,
      "velocity": 122,
      "chip": "ym2612"
    },
    {
      "channel": 2,
      "note": 76,
      "start": 67.7718,
      "duration": 0.1595,
      "velocity": 122,
      "chip": "ym2612"
    },
    {
      "channel": 4,
      "note": 40,
      "start": 67.7758,
      "duration": 0.1589,
      "velocity": 113,
      "chip": "ym2612"
    },
    {
      "channel": 4,
      "note": 40,
      "start": 67.9353,
      "duration": 0.1602,
      "velocity": 113,
      "chip": "ym2612"
    },
    {
      "channel": 4,
      "note": 40,
      "start": 68.0962,
      "duration": 0.1656,
      "velocity": 113,
      "chip": "ym2612"
    },
    {
      "channel": 5,
      "note": 66,
      "start": 68.1007,
      "duration": 0.3272,
      "velocity": 127,
      "chip": "ym2612"
    },
    {
      "channel": 3,
      "note": 69,
      "start": 68.2524,
      "duration": 0.8014,
      "velocity": 122,
      "chip": "ym2612"
    },
    {
      "channel": 2,
      "note": 76,
      "start": 68.2547,
      "duration": 0.8014,
      "velocity": 122,
      "chip": "ym2612"
    },
    {
      "channel": 4,
      "note": 40,
      "start": 68.2625,
      "duration": 0.1563,
      "velocity": 113,
      "chip": "ym2612"
    },
    {
      "channel": 4,
      "note": 40,
      "start": 68.4194,
      "duration": 0.1574,
      "velocity": 113,
      "chip": "ym2612"
    },
    {
      "channel": 5,
      "note": 66,
      "start": 68.4285,
      "duration": 0.0748,
      "velocity": 127,
      "chip": "ym2612"
    },
    {
      "channel": 5,
      "note": 66,
      "start": 68.5039,
      "duration": 0.0773,
      "velocity": 127,
      "chip": "ym2612"
    },
    {
      "channel": 4,
      "note": 40,
      "start": 68.5774,
      "duration": 0.1621,
      "velocity": 113,
      "chip": "ym2612"
    },
    {
      "channel": 5,
      "note": 66,
      "start": 68.5819,
      "duration": 0.0779,
      "velocity": 127,
      "chip": "ym2612"
    },
    {
      "channel": 5,
      "note": 66,
      "start": 68.6604,
      "duration": 0.0836,
      "velocity": 127,
      "chip": "ym2612"
    },
    {
      "channel": 4,
      "note": 38,
      "start": 68.7401,
      "duration": 0.1536,
      "velocity": 113,
      "chip": "ym2612"
    },
    {
      "channel": 5,
      "note": 66,
      "start": 68.7446,
      "duration": 0.0747,
      "velocity": 127,
      "chip": "ym2612"
    },
    {
      "channel": 5,
      "note": 66,
      "start": 68.8199,
      "duration": 0.0829,
      "velocity": 127,
      "chip": "ym2612"
    },
    {
      "channel": 4,
      "note": 39,
      "start": 68.8944,
      "duration": 0.1698,
      "velocity": 113,
      "chip": "ym2612"
    },
    {
      "channel": 5,
      "note": 66,
      "start": 68.9034,
      "duration": 0.081,
      "velocity": 127,
      "chip": "ym2612"
    },
    {
      "channel": 5,
      "note": 66,
      "start": 68.9851,
      "duration": 0.0947,
      "velocity": 127,
      "chip": "ym2612"
    },
    {
      "channel": 3,
      "note": 64,
      "start": 69.0544,
      "duration": 0.1664,
      "velocity": 122,
      "chip": "ym2612"
    },
    {
      "channel": 2,
      "note": 71,
      "start": 69.0567,
      "duration": 0.1655,
      "velocity": 122,
      "chip": "ym2612"
    },
    {
      "channel": 1,
      "note": 71,
      "start": 69.0589,
      "duration": 0.1556,
      "velocity": 122,
      "chip": "ym2612"
    },
    {
      "channel": 0,
      "note": 83,
      "start": 69.0612,
      "duration": 0.1555,
      "velocity": 122,
      "chip": "ym2612"
    },
    {
      "channel": 4,
      "note": 40,
      "start": 69.0648,
      "duration": 0.1607,
      "velocity": 113,
      "chip": "ym2612"
    },
    {
      "channel": 5,
      "note": 66,
      "start": 69.0904,
      "duration": 0.2887,
      "velocity": 127,
      "chip": "ym2612"
    },
    {
      "channel": 1,
      "note": 67,
      "start": 69.2151,
      "duration": 0.1595,
      "velocity": 122,
      "chip": "ym2612"
    },
    {
      "channel": 0,
      "note": 79,
      "start": 69.2174,
      "duration": 0.1594,
      "velocity": 122,
      "chip": "ym2612"
    },
    {
      "channel": 4,
      "note": 40,
      "start": 69.2262,
      "duration": 0.1607,
      "velocity": 113,
      "chip": "ym2612"
    },
    {
      "channel": 1,
      "note": 64,
      "start": 69.3752,
      "duration": 0.1644,
      "velocity": 122,
      "chip": "ym2612"
    },
    {
      "channel": 0,
      "note": 76,
      "start": 69.3774,
      "duration": 0.1644,
      "velocity": 122,
      "chip": "ym2612"
    },
    {
      "channel": 4,
      "note": 40,
      "start": 69.3876,
      "duration": 0.1647,
      "velocity": 113,
      "chip": "ym2612"
    },
    {
      "channel": 5,
      "note": 66,
      "start": 69.392,
      "duration": 0.3045,
      "velocity": 127,
      "chip": "ym2612"
    },
    {
      "channel": 2,
      "note": 71,
      "start": 69.538,
      "duration": 0.8102,
      "velocity": 122,
      "chip": "ym2612"
    },
    {
      "channel": 1,
      "note": 68,
      "start": 69.5402,
      "duration": 1.4483,
      "velocity": 122,
      "chip": "ym2612"
    },
    {
      "channel": 0,
      "note": 80,
      "start": 69.5425,
      "duration": 1.4483,
      "velocity": 122,
      "chip": "ym2612"
    },
    {
      "channel": 3,
      "note": 64,
      "start": 69.5467,
      "duration": 0.7992,
      "velocity": 122,
      "chip": "ym2612"
    },
    {
      "channel": 4,
      "note": 40,
      "start": 69.5528,
      "duration": 0.153,
      "velocity": 113,
      "chip": "ym2612"
    },
    {
      "channel": 4,
      "note": 40,
      "start": 69.7064,
      "duration": 0.1555,
      "velocity": 113,
      "chip": "ym2612"
    },
    {
      "channel": 5,
      "note": 66,
      "start": 69.7124,
      "duration": 0.1434,
      "velocity": 127,
      "chip": "ym2612"
    },
    {
      "channel": 5,
      "note": 66,
      "start": 69.8565,
      "duration": 0.167,
      "velocity": 127,
      "chip": "ym2612"
    },
    {
      "channel": 4,
      "note": 40,
      "start": 69.8626,
      "duration": 0.1634,
      "velocity": 113,
      "chip": "ym2612"
    },
    {
      "channel": 4,
      "note": 40,
      "start": 70.0266,
      "duration": 0.1607,
      "velocity": 113,
      "chip": "ym2612"
    },
    {
      "channel": 5,
      "note": 66,
      "start": 70.0356,
      "duration": 0.1436,
      "velocity": 127,
      "chip": "ym2612"
    },
    {
      "channel": 4,
      "note": 40,
      "start": 70.1879,
      "duration": 0.1643,
      "velocity": 113,
      "chip": "ym2612"
    },
    {
      "channel": 5,
      "note": 66,
      "start": 70.1923,
      "duration": 0.1501,
      "velocity": 127,
      "chip": "ym2612"
    },
    {
      "channel": 5,
      "note": 66,
      "start": 70.3431,
      "duration": 0.3193,
      "velocity": 127,
      "chip": "ym2612"
    },
    {
      "channel": 3,
      "note": 66,
      "start": 70.3466,
      "duration": 0.1536,
      "velocity": 122,
      "chip": "ym2612"
    },
    {
      "channel": 2,
      "note": 73,
      "start": 70.3489,
      "duration": 0.1527,
      "velocity": 122,
      "chip": "ym2612"
    },
    {
      "channel": 4,
      "note": 40,
      "start": 70.3529,
      "duration": 0.1557,
      "velocity": 113,
      "chip": "ym2612"
    },
    {
      "channel": 4,
      "note": 40,
      "start": 70.5093,
      "duration": 0.1557,
      "velocity": 113,
      "chip": "ym2612"
    },
    {
      "channel": 4,
      "note": 40,
      "start": 70.6656,
      "duration": 0.1671,
      "velocity": 113,
      "chip": "ym2612"
    },
    {
      "channel": 5,
      "note": 66,
      "start": 70.6746,
      "duration": 0.3093,
      "velocity": 127,
      "chip": "ym2612"
    },
    {
      "channel": 2,
      "note": 73,
      "start": 70.8237,
      "duration": 0.8055,
      "velocity": 122,
      "chip": "ym2612"
    },
    {
      "channel": 3,
      "note": 66,
      "start": 70.8288,
      "duration": 0.7981,
      "velocity": 122,
      "chip": "ym2612"
    },
    {
      "channel": 4,
      "note": 40,
      "start": 70.8333,
      "duration": 0.1622,
      "velocity": 113,
      "chip": "ym2612"
    },
    {
      "channel": 1,
      "note": 69,
      "start": 70.9892,
      "duration": 0.1572,
      "velocity": 122,
      "chip": "ym2612"
    },
    {
      "channel": 0,
      "note": 81,
      "start": 70.9914,
      "duration": 0.1572,
      "velocity": 122,
      "chip": "ym2612"
    },
    {
      "channel": 4,
      "note": 40,
      "start": 70.9961,
      "duration": 0.1612,
      "velocity": 113,
      "chip": "ym2612"
    },
    {
      "channel": 5,
      "note": 66,
      "start": 71.0006,
      "duration": 0.1506,
      "velocity": 127,
      "chip": "ym2612"
    },
    {
      "channel": 1,
      "note": 67,
      "start": 71.147,
      "duration": 0.1618,
      "velocity": 122,
      "chip": "ym2612"
    },
    {
      "channel": 0,
      "note": 79,
      "start": 71.1493,
      "duration": 0.1619,
      "velocity": 122,
      "chip": "ym2612"
    },
    {
      "channel": 5,
      "note": 66,
      "start": 71.1519,
      "duration": 0.1524,
      "velocity": 127,
      "chip": "ym2612"
    },
    {
      "channel": 4,
      "note": 40,
      "start": 71.158,
      "duration": 0.1577,
      "velocity": 113,
      "chip": "ym2612"
    },
    {
      "channel": 1,
      "note": 69,
      "start": 71.3095,
      "duration": 0.1539,
      "velocity": 122,
      "chip": "ym2612"
    },
    {
      "channel": 0,
      "note": 81,
      "start": 71.3118,
      "duration": 0.1539,
      "velocity": 122,
      "chip": "ym2612"
    },
    {
      "channel": 4,
      "note": 40,
      "start": 71.3163,
      "duration": 0.1562,
      "velocity": 113,
      "chip": "ym2612"
    },
    {
      "channel": 5,
      "note": 66,
      "start": 71.3207,
      "duration": 0.316,
      "velocity": 127,
      "chip": "ym2612"
    },
    {
      "channel": 1,
      "note": 71,
      "start": 71.4641,
      "duration": 1.1284,
      "velocity": 122,
      "chip": "ym2612"
    },
    {
      "channel": 0,
      "note": 83,
      "start": 71.4663,
      "duration": 1.1285,
      "velocity": 122,
      "chip": "ym2612"
    },
    {
      "channel": 4,
      "note": 40,
      "start": 71.4732,
      "duration": 0.1661,
      "velocity": 113,
      "chip": "ym2612"
    },
    {
      "channel": 3,
      "note": 67,
      "start": 71.6275,
      "duration": 0.1609,
      "velocity": 122,
      "chip": "ym2612"
    },
    {
      "channel": 2,
      "note": 74,
      "start": 71.6298,
      "duration": 0.16,
      "velocity": 122,
      "chip": "ym2612"
    },
    {
      "channel": 4,
      "note": 40,
      "start": 71.6399,
      "duration": 0.1532,
      "velocity": 113,
      "chip": "ym2612"
    },
    {
      "channel": 5,
      "note": 66,
      "start": 71.6492,
      "duration": 0.3001,
      "velocity": 127,
      "chip": "ym2612"
    },
    {
      "channel": 4,
      "note": 40,
      "start": 71.7937,
      "duration": 0.1634,
      "velocity": 113,
      "chip": "ym2612"
    },
    {
      "channel": 4,
      "note": 40,
      "start": 71.9577,
      "duration": 0.1594,
      "velocity": 113,
      "chip": "ym2612"
    },
    {
      "channel": 5,
      "note": 66,
      "start": 71.9622,
      "duration": 0.305,
      "velocity": 127,
      "chip": "ym2612"
    },
    {
      "channel": 3,
      "note": 67,
      "start": 72.1115,
      "duration": 0.8046,
      "velocity": 122,
      "chip": "ym2612"
    },
    {
      "channel": 2,
      "note": 74,
      "start": 72.1138,
      "duration": 0.8047,
      "velocity": 122,
      "chip": "ym2612"
    },
    {
      "channel": 4,
      "note": 40,
      "start": 72.1177,
      "duration": 0.1574,
      "velocity": 113,
      "chip": "ym2612"
    },
    {
      "channel": 4,
      "note": 40,
      "start": 72.2758,
      "duration": 0.1638,
      "velocity": 113,
      "chip": "ym2612"
    },
    {
      "channel": 5,
      "note": 66,
      "start": 72.2802,
      "duration": 0.1533,
      "velocity": 127,
      "chip": "ym2612"
    },
    {
      "channel": 5,
      "note": 66,
      "start": 72.4341,
      "duration": 0.1629,
      "velocity": 127,
      "chip": "ym2612"
    },
    {
      "channel": 4,
      "note": 40,
      "start": 72.4402,
      "duration": 0.1593,
      "velocity": 113,
      "chip": "ym2612"
    },
    {
      "channel": 1,
      "note": 74,
      "start": 72.5932,
      "duration": 0.1704,
      "velocity": 122,
      "chip": "ym2612"
    },
    {
      "channel": 0,
      "note": 86,
      "start": 72.5954,
      "duration": 0.1537,
      "velocity": 122,
      "chip": "ym2612"
    },
    {
      "channel": 4,
      "note": 40,
      "start": 72.6002,
      "duration": 0.1601,
      "velocity": 113,
      "chip": "ym2612"
    },
    {
      "channel": 5,
      "note": 66,
      "start": 72.6092,
      "duration": 0.1422,
      "velocity": 127,
      "chip": "ym2612"
    },
    {
      "channel": 0,
      "note": 83,
      "start": 72.7498,
      "duration": 1.4766,
      "velocity": 122,
      "chip": "ym2612"
    },
    {
      "channel": 4,
      "note": 40,
      "start": 72.7609,
      "duration": 0.1621,
      "velocity": 113,
      "chip": "ym2612"
    },
    {
      "channel": 1,
      "note": 83,
      "start": 72.7641,
      "duration": 0.166,
      "velocity": 122,
      "chip": "ym2612"
    },
    {
      "channel": 5,
      "note": 66,
      "start": 72.7671,
      "duration": 0.1455,
      "velocity": 127,
      "chip": "ym2612"
    },
    {
      "channel": 5,
      "note": 66,
      "start": 72.9133,
      "duration": 0.3221,
      "velocity": 127,
      "chip": "ym2612"
    },
    {
      "channel": 3,
      "note": 69,
      "start": 72.9168,
      "duration": 0.1561,
      "velocity": 122,
      "chip": "ym2612"
    },
    {
      "channel": 2,
      "note": 76,
      "start": 72.9191,
      "duration": 0.1551,
      "velocity": 122,
      "chip": "ym2612"
    },
    {
      "channel": 4,
      "note": 40,
      "start": 72.9237,
      "duration": 0.1544,
      "velocity": 113,
      "chip": "ym2612"
    },
    {
      "channel": 1,
      "note": 83,
      "start": 72.9307,
      "duration": 0.1544,
      "velocity": 122,
      "chip": "ym2612"
    },
    {
      "channel": 4,
      "note": 40,
      "start": 73.0788,
      "duration": 0.1651,
      "velocity": 113,
      "chip": "ym2612"
    },
    {
      "channel": 1,
      "note": 82,
      "start": 73.0858,
      "duration": 0.1669,
      "velocity": 122,
      "chip": "ym2612"
    },
    {
      "channel": 4,
      "note": 40,
      "start": 73.2445,
      "duration": 0.158,
      "velocity": 113,
      "chip": "ym2612"
    },
    {
      "channel": 5,
      "note": 66,
      "start": 73.2497,
      "duration": 0.3228,
      "velocity": 127,
      "chip": "ym2612"
    },
    {
      "channel": 1,
      "note": 82,
      "start": 73.2534,
      "duration": 0.1562,
      "velocity": 122,
      "chip": "ym2612"
    },
    {
      "channel": 3,
      "note": 69,
      "start": 73.3962,
      "duration": 0.8348,
      "velocity": 122,
      "chip": "ym2612"
    },
    {
      "channel": 2,
      "note": 76,
      "start": 73.3985,
      "duration": 0.8417,
      "velocity": 122,
      "chip": "ym2612"
    },
    {
      "channel": 4,
      "note": 40,
      "start": 73.4031,
      "duration": 0.1578,
      "velocity": 113,
      "chip": "ym2612"
    },
    {
      "channel": 1,
      "note": 82,
      "start": 73.4102,
      "duration": 0.1593,
      "velocity": 122,
      "chip": "ym2612"
    },
    {
      "channel": 4,
      "note": 47,
      "start": 73.5615,
      "duration": 0.1555,
      "velocity": 113,
      "chip": "ym2612"
    },
    {
      "channel": 1,
      "note": 82,
      "start": 73.5701,
      "duration": 0.1599,
      "velocity": 122,
      "chip": "ym2612"
    },
    {
      "channel": 5,
      "note": 66,
      "start": 73.5732,
      "duration": 0.0733,
      "velocity": 127,
      "chip": "ym2612"
    },
    {
      "channel": 5,
      "note": 66,
      "start": 73.6471,
      "duration": 0.086,
      "velocity": 127,
      "chip": "ym2612"
    },
    {
      "channel": 4,
      "note": 46,
      "start": 73.7176,
      "duration": 0.1613,
      "velocity": 113,
      "chip": "ym2612"
    },
    {
      "channel": 1,
      "note": 81,
      "start": 73.7307,
      "duration": 0.1568,
      "velocity": 122,
      "chip": "ym2612"
    },
    {
      "channel": 5,
      "note": 66,
      "start": 73.7337,
      "duration": 0.0763,
      "velocity": 127,
      "chip": "ym2612"
    },
    {
      "channel": 5,
      "note": 66,
      "start": 73.8107,
      "duration": 0.0798,
      "velocity": 127,
      "chip": "ym2612"
    },
    {
      "channel": 4,
      "note": 45,
      "start": 73.8795,
      "duration": 0.163,
      "velocity": 113,
      "chip": "ym2612"
    },
    {
      "channel": 1,
      "note": 81,
      "start": 73.8881,
      "duration": 0.163,
      "velocity": 122,
      "chip": "ym2612"
    },
    {
      "channel": 5,
      "note": 66,
      "start": 73.8912,
      "duration": 0.0764,
      "velocity": 127,
      "chip": "ym2612"
    },
    {
      "channel": 5,
      "note": 66,
      "start": 73.9681,
      "duration": 0.086,
      "velocity": 127,
      "chip": "ym2612"
    },
    {
      "channel": 4,
      "note": 43,
      "start": 74.0432,
      "duration": 0.1777,
      "velocity": 113,
      "chip": "ym2612"
    },
    {
      "channel": 1,
      "note": 81,
      "start": 74.0517,
      "duration": 0.2035,
      "velocity": 122,
      "chip": "ym2612"
    },
    {
      "channel": 5,
      "note": 66,
      "start": 74.0548,
      "duration": 0.0732,
      "velocity": 127,
      "chip": "ym2612"
    },
    {
      "channel": 5,
      "note": 66,
      "start": 74.1286,
      "duration": 0.1163,
      "velocity": 127,
      "chip": "ym2612"
    },
    {
      "channel": 4,
      "note": 38,
      "start": 74.2215,
      "duration": 0.145,
      "velocity": 113,
      "chip": "ym2612"
    },
    {
      "channel": 3,
      "note": 69,
      "start": 74.2316,
      "duration": 0.1289,
      "velocity": 122,
      "chip": "ym2612"
    },
    {
      "channel": 2,
      "note": 50,
      "start": 74.2409,
      "duration": 0.1284,
      "velocity": 122,
      "chip": "ym2612"
    },
    {
      "channel": 1,
      "note": 69,
      "start": 74.2559,
      "duration": 0.1078,
      "velocity": 122,
      "chip": "ym2612"
    },
    {
      "channel": 0,
      "note": 74,
      "start": 74.2582,
      "duration": 0.1571,
      "velocity": 104,
      "chip": "ym2612"
    },
    {
      "channel": 5,
      "note": 66,
      "start": 74.2607,
      "duration": 0.2634,
      "velocity": 127,
      "chip": "ym2612"
    },
    {
      "channel": 4,
      "note": 38,
      "start": 74.3671,
      "duration": 0.1595,
      "velocity": 113,
      "chip": "ym2612"
    },
    {
      "channel": 2,
      "note": 50,
      "start": 74.3699,
      "duration": 0.151,
      "velocity": 122,
      "chip": "ym2612"
    },
    {
      "channel": 2,
      "note": 50,
      "start": 74.5216,
      "duration": 0.1802,
      "velocity": 122,
      "chip": "ym2612"
    },
    {
      "channel": 4,
      "note": 38,
      "start": 74.5273,
      "duration": 0.1718,
      "velocity": 113,
      "chip": "ym2612"
    },
    {
      "channel": 5,
      "note": 66,
      "start": 74.5363,
      "duration": 0.3092,
      "velocity": 127,
      "chip": "ym2612"
    },
    {
      "channel": 3,
      "note": 69,
      "start": 74.6909,
      "duration": 0.1591,
      "velocity": 122,
      "chip": "ym2612"
    },
    {
      "channel": 1,
      "note": 69,
      "start": 74.6944,
      "duration": 0.1491,
      "velocity": 122,
      "chip": "ym2612"
    },
    {
      "channel": 0,
      "note": 74,
      "start": 74.6966,
      "duration": 0.2013,
      "velocity": 104,
      "chip": "ym2612"
    },
    {
      "channel": 4,
      "note": 38,
      "start": 74.6997,
      "duration": 0.157,
      "velocity": 113,
      "chip": "ym2612"
    },
    {
      "channel": 2,
      "note": 50,
      "start": 74.7024,
      "duration": 0.1571,
      "velocity": 122,
      "chip": "ym2612"
    },
    {
      "channel": 4,
      "note": 38,
      "start": 74.8573,
      "duration": 0.1454,
      "velocity": 113,
      "chip": "ym2612"
    },
    {
      "channel": 2,
      "note": 50,
      "start": 74.8601,
      "duration": 0.1453,
      "velocity": 122,
      "chip": "ym2612"
    },
    {
      "channel": 5,
      "note": 66,
      "start": 74.8636,
      "duration": 0.1453,
      "velocity": 127,
      "chip": "ym2612"
    },
    {
      "channel": 4,
      "note": 38,
      "start": 75.0033,
      "duration": 0.1833,
      "velocity": 113,
      "chip": "ym2612"
    },
    {
      "channel": 2,
      "note": 50,
      "start": 75.0061,
      "duration": 0.1833,
      "velocity": 122,
      "chip": "ym2612"
    },
    {
      "channel": 5,
      "note": 66,
      "start": 75.0096,
      "duration": 0.1544,
      "velocity": 127,
      "chip": "ym2612"
    },
    {
      "channel": 1,
      "note": 69,
      "start": 75.1723,
      "duration": 0.1526,
      "velocity": 122,
      "chip": "ym2612"
    },
    {
      "channel": 0,
      "note": 74,
      "start": 75.1745,
      "duration": 0.2049,
      "velocity": 104,
      "chip": "ym2612"
    },
    {
      "channel": 3,
      "note": 69,
      "start": 75.1802,
      "duration": 0.1512,
      "velocity": 122,
      "chip": "ym2612"
    },
    {
      "channel": 5,
      "note": 66,
      "start": 75.185,
      "duration": 0.1419,
      "velocity": 127,
      "chip": "ym2612"
    },
    {
      "channel": 4,
      "note": 38,
      "start": 75.1873,
      "duration": 0.1508,
      "velocity": 113,
      "chip": "ym2612"
    },
    {
      "channel": 2,
      "note": 50,
      "start": 75.19,
      "duration": 0.1509,
      "velocity": 122,
      "chip": "ym2612"
    },
    {
      "channel": 4,
      "note": 38,
      "start": 75.3388,
      "duration": 0.1454,
      "velocity": 113,
      "chip": "ym2612"
    },
    {
      "channel": 2,
      "note": 50,
      "start": 75.3416,
      "duration": 0.1453,
      "velocity": 122,
      "chip": "ym2612"
    },
    {
      "channel": 5,
      "note": 66,
      "start": 75.3451,
      "duration": 0.1453,
      "velocity": 127,
      "chip": "ym2612"
    },
    {
      "channel": 4,
      "note": 38,
      "start": 75.4848,
      "duration": 0.1814,
      "velocity": 113,
      "chip": "ym2612"
    },
    {
      "channel": 2,
      "note": 50,
      "start": 75.4875,
      "duration": 0.1814,
      "velocity": 122,
      "chip": "ym2612"
    },
    {
      "channel": 5,
      "note": 66,
      "start": 75.491,
      "duration": 0.3208,
      "velocity": 127,
      "chip": "ym2612"
    },
    {
      "channel": 3,
      "note": 69,
      "start": 75.658,
      "duration": 0.1485,
      "velocity": 122,
      "chip": "ym2612"
    },
    {
      "channel": 1,
      "note": 69,
      "start": 75.6615,
      "duration": 0.1482,
      "velocity": 122,
      "chip": "ym2612"
    },
    {
      "channel": 0,
      "note": 74,
      "start": 75.6638,
      "duration": 0.1981,
      "velocity": 104,
      "chip": "ym2612"
    },
    {
      "channel": 4,
      "note": 38,
      "start": 75.6668,
      "duration": 0.1556,
      "velocity": 113,
      "chip": "ym2612"
    },
    {
      "channel": 2,
      "note": 50,
      "start": 75.6695,
      "duration": 0.1474,
      "velocity": 122,
      "chip": "ym2612"
    },
    {
      "channel": 2,
      "note": 50,
      "start": 75.8176,
      "duration": 0.1517,
      "velocity": 122,
      "chip": "ym2612"
    },
    {
      "channel": 4,
      "note": 38,
      "start": 75.823,
      "duration": 0.1435,
      "velocity": 113,
      "chip": "ym2612"
    },
    {
      "channel": 5,
      "note": 66,
      "start": 75.8275,
      "duration": 0.3059,
      "velocity": 127,
      "chip": "ym2612"
    },
    {
      "channel": 4,
      "note": 38,
      "start": 75.9672,
      "duration": 0.1894,
      "velocity": 113,
      "chip": "ym2612"
    },
    {
      "channel": 2,
      "note": 50,
      "start": 75.9699,
      "duration": 0.1809,
      "velocity": 122,
      "chip": "ym2612"
    },
    {
      "channel": 1,
      "note": 69,
      "start": 76.141,
      "duration": 0.1536,
      "velocity": 122,
      "chip": "ym2612"
    },
    {
      "channel": 0,
      "note": 74,
      "start": 76.1432,
      "duration": 0.1527,
      "velocity": 104,
      "chip": "ym2612"
    },
    {
      "channel": 3,
      "note": 69,
      "start": 76.1491,
      "duration": 0.1425,
      "velocity": 122,
      "chip": "ym2612"
    },
    {
      "channel": 2,
      "note": 50,
      "start": 76.1514,
      "duration": 0.1417,
      "velocity": 122,
      "chip": "ym2612"
    },
    {
      "channel": 5,
      "note": 66,
      "start": 76.1549,
      "duration": 0.1333,
      "velocity": 127,
      "chip": "ym2612"
    },
    {
      "channel": 4,
      "note": 38,
      "start": 76.1572,
      "duration": 0.1331,
      "velocity": 113,
      "chip": "ym2612"
    },
    {
      "channel": 5,
      "note": 66,
      "start": 76.2889,
      "duration": 0.1697,
      "velocity": 127,
      "chip": "ym2612"
    },
    {
      "channel": 4,
      "note": 38,
      "start": 76.4479,
      "duration": 0.1726,
      "velocity": 113,
      "chip": "ym2612"
    },
    {
      "channel": 3,
      "note": 69,
      "start": 76.4502,
      "duration": 0.1605,
      "velocity": 122,
      "chip": "ym2612"
    },
    {
      "channel": 2,
      "note": 50,
      "start": 76.4524,
      "duration": 0.1605,
      "velocity": 122,
      "chip": "ym2612"
    },
    {
      "channel": 1,
      "note": 69,
      "start": 76.4547,
      "duration": 0.1605,
      "velocity": 122,
      "chip": "ym2612"
    },
    {
      "channel": 0,
      "note": 74,
      "start": 76.4569,
      "duration": 0.1606,
      "velocity": 104,
      "chip": "ym2612"
    },
    {
      "channel": 5,
      "note": 66,
      "start": 76.4689,
      "duration": 0.3052,
      "velocity": 127,
      "chip": "ym2612"
    },
    {
      "channel": 3,
      "note": 71,
      "start": 76.6113,
      "duration": 0.4891,
      "velocity": 122,
      "chip": "ym2612"
    },
    {
      "channel": 2,
      "note": 52,
      "start": 76.6136,
      "duration": 0.4947,
      "velocity": 122,
      "chip": "ym2612"
    },
    {
      "channel": 1,
      "note": 71,
      "start": 76.6158,
      "duration": 0.478,
      "velocity": 122,
      "chip": "ym2612"
    },
    {
      "channel": 0,
      "note": 76,
      "start": 76.6181,
      "duration": 0.3158,
      "velocity": 104,
      "chip": "ym2612"
    },
    {
      "channel": 4,
      "note": 40,
      "start": 76.6211,
      "duration": 0.4929,
      "velocity": 113,
      "chip": "ym2612"
    },
    {
      "channel": 5,
      "note": 66,
      "start": 76.7847,
      "duration": 0.3112,
      "velocity": 127,
      "chip": "ym2612"
    },
    {
      "channel": 2,
      "note": 52,
      "start": 77.1089,
      "duration": 0.1569,
      "velocity": 122,
      "chip": "ym2612"
    },
    {
      "channel": 5,
      "note": 66,
      "start": 77.1124,
      "duration": 0.3024,
      "velocity": 127,
      "chip": "ym2612"
    },
    {
      "channel": 4,
      "note": 40,
      "start": 77.1146,
      "duration": 0.1483,
      "velocity": 113,
      "chip": "ym2612"
    },
    {
      "channel": 4,
      "note": 40,
      "start": 77.2636,
      "duration": 0.1679,
      "velocity": 113,
      "chip": "ym2612"
    },
    {
      "channel": 2,
      "note": 52,
      "start": 77.2664,
      "duration": 0.1679,
      "velocity": 122,
      "chip": "ym2612"
    },
    {
      "channel": 5,
      "note": 66,
      "start": 77.4299,
      "duration": 0.1444,
      "velocity": 127,
      "chip": "ym2612"
    },
    {
      "channel": 4,
      "note": 40,
      "start": 77.4322,
      "duration": 0.1551,
      "velocity": 113,
      "chip": "ym2612"
    },
    {
      "channel": 2,
      "note": 52,
      "start": 77.4349,
      "duration": 0.155,
      "velocity": 122,
      "chip": "ym2612"
    },
    {
      "channel": 5,
      "note": 66,
      "start": 77.5749,
      "duration": 0.1654,
      "velocity": 127,
      "chip": "ym2612"
    },
    {
      "channel": 4,
      "note": 40,
      "start": 77.5879,
      "duration": 0.1695,
      "velocity": 113,
      "chip": "ym2612"
    },
    {
      "channel": 2,
      "note": 52,
      "start": 77.5906,
      "duration": 0.1609,
      "velocity": 122,
      "chip": "ym2612"
    },
    {
      "channel": 2,
      "note": 52,
      "start": 77.7522,
      "duration": 0.1585,
      "velocity": 122,
      "chip": "ym2612"
    },
    {
      "channel": 5,
      "note": 66,
      "start": 77.7557,
      "duration": 0.1436,
      "velocity": 127,
      "chip": "ym2612"
    },
    {
      "channel": 4,
      "note": 40,
      "start": 77.758,
      "duration": 0.1585,
      "velocity": 113,
      "chip": "ym2612"
    },
    {
      "channel": 2,
      "note": 52,
      "start": 77.9113,
      "duration": 0.1569,
      "velocity": 122,
      "chip": "ym2612"
    },
    {
      "channel": 5,
      "note": 66,
      "start": 77.9149,
      "duration": 0.1439,
      "velocity": 127,
      "chip": "ym2612"
    },
    {
      "channel": 4,
      "note": 40,
      "start": 77.9171,
      "duration": 0.1551,
      "velocity": 113,
      "chip": "ym2612"
    },
    {
      "channel": 5,
      "note": 66,
      "start": 78.0594,
      "duration": 0.3212,
      "velocity": 127,
      "chip": "ym2612"
    },
    {
      "channel": 2,
      "note": 52,
      "start": 78.0689,
      "duration": 0.1644,
      "velocity": 122,
      "chip": "ym2612"
    },
    {
      "channel": 4,
      "note": 40,
      "start": 78.0729,
      "duration": 0.1578,
      "velocity": 113,
      "chip": "ym2612"
    },
    {
      "channel": 4,
      "note": 40,
      "start": 78.2312,
      "duration": 0.1663,
      "velocity": 113,
      "chip": "ym2612"
    },
    {
      "channel": 2,
      "note": 52,
      "start": 78.2339,
      "duration": 0.1579,
      "velocity": 122,
      "chip": "ym2612"
    },
    {
      "channel": 2,
      "note": 52,
      "start": 78.3924,
      "duration": 0.1631,
      "velocity": 122,
      "chip": "ym2612"
    },
    {
      "channel": 5,
      "note": 66,
      "start": 78.3959,
      "duration": 0.3271,
      "velocity": 127,
      "chip": "ym2612"
    },
    {
      "channel": 4,
      "note": 40,
      "start": 78.3982,
      "duration": 0.1546,
      "velocity": 113,
      "chip": "ym2612"
    },
    {
      "channel": 4,
      "note": 40,
      "start": 78.5534,
      "duration": 0.1634,
      "velocity": 113,
      "chip": "ym2612"
    },
    {
      "channel": 2,
      "note": 52,
      "start": 78.5562,
      "duration": 0.1634,
      "velocity": 122,
      "chip": "ym2612"
    },
    {
      "channel": 4,
      "note": 40,
      "start": 78.7175,
      "duration": 0.1552,
      "velocity": 113,
      "chip": "ym2612"
    },
    {
      "channel": 2,
      "note": 52,
      "start": 78.7202,
      "duration": 0.1553,
      "velocity": 122,
      "chip": "ym2612"
    },
    {
      "channel": 5,
      "note": 66,
      "start": 78.7237,
      "duration": 0.0687,
      "velocity": 127,
      "chip": "ym2612"
    },
    {
      "channel": 5,
      "note": 66,
      "start": 78.793,
      "duration": 0.086,
      "velocity": 127,
      "chip": "ym2612"
    },
    {
      "channel": 4,
      "note": 40,
      "start": 78.8733,
      "duration": 0.1664,
      "velocity": 113,
      "chip": "ym2612"
    },
    {
      "channel": 2,
      "note": 52,
      "start": 78.8761,
      "duration": 0.1664,
      "velocity": 122,
      "chip": "ym2612"
    },
    {
      "channel": 5,
      "note": 66,
      "start": 78.8796,
      "duration": 0.0718,
      "velocity": 127,
      "chip": "ym2612"
    },
    {
      "channel": 5,
      "note": 66,
      "start": 78.9519,
      "duration": 0.0855,
      "velocity": 127,
      "chip": "ym2612"
    },
    {
      "channel": 5,
      "note": 66,
      "start": 79.0381,
      "duration": 0.0722,
      "velocity": 127,
      "chip": "ym2612"
    },
    {
      "channel": 4,
      "note": 40,
      "start": 79.0404,
      "duration": 0.1583,
      "velocity": 113,
      "chip": "ym2612"
    },
    {
      "channel": 2,
      "note": 52,
      "start": 79.0432,
      "duration": 0.1583,
      "velocity": 122,
      "chip": "ym2612"
    },
    {
      "channel": 5,
      "note": 66,
      "start": 79.1109,
      "duration": 0.0855,
      "velocity": 127,
      "chip": "ym2612"
    },
    {
      "channel": 5,
      "note": 66,
      "start": 79.197,
      "duration": 0.0753,
      "velocity": 127,
      "chip": "ym2612"
    },
    {
      "channel": 4,
      "note": 40,
      "start": 79.1993,
      "duration": 0.1639,
      "velocity": 113,
      "chip": "ym2612"
    },
    {
      "channel": 2,
      "note": 52,
      "start": 79.2021,
      "duration": 0.1639,
      "velocity": 122,
      "chip": "ym2612"
    },
    {
      "channel": 5,
      "note": 66,
      "start": 79.2729,
      "duration": 0.1077,
      "velocity": 127,
      "chip": "ym2612"
    },
    {
      "channel": 3,
      "note": 71,
      "start": 79.3488,
      "duration": 0.4788,
      "velocity": 122,
      "chip": "ym2612"
    },
    {
      "channel": 1,
      "note": 71,
      "start": 79.3528,
      "duration": 0.4793,
      "velocity": 122,
      "chip": "ym2612"
    },
    {
      "channel": 0,
      "note": 76,
      "start": 79.3551,
      "duration": 0.4793,
      "velocity": 104,
      "chip": "ym2612"
    },
    {
      "channel": 4,
      "note": 40,
      "start": 79.3638,
      "duration": 0.1455,
      "velocity": 113,
      "chip": "ym2612"
    },
    {
      "channel": 2,
      "note": 52,
      "start": 79.3666,
      "duration": 0.1389,
      "velocity": 122,
      "chip": "ym2612"
    },
    {
      "channel": 5,
      "note": 66,
      "start": 79.3912,
      "duration": 0.2762,
      "velocity": 127,
      "chip": "ym2612"
    },
    {
      "channel": 2,
      "note": 52,
      "start": 79.5061,
      "duration": 0.1582,
      "velocity": 122,
      "chip": "ym2612"
    },
    {
      "channel": 4,
      "note": 40,
      "start": 79.51,
      "duration": 0.1599,
      "velocity": 113,
      "chip": "ym2612"
    },
    {
      "channel": 2,
      "note": 52,
      "start": 79.6649,
      "duration": 0.165,
      "velocity": 122,
      "chip": "ym2612"
    },
    {
      "channel": 4,
      "note": 40,
      "start": 79.6706,
      "duration": 0.1668,
      "velocity": 113,
      "chip": "ym2612"
    },
    {
      "channel": 5,
      "note": 66,
      "start": 79.6796,
      "duration": 0.3078,
      "velocity": 127,
      "chip": "ym2612"
    },
    {
      "channel": 3,
      "note": 73,
      "start": 79.8282,
      "duration": 0.4854,
      "velocity": 122,
      "chip": "ym2612"
    },
    {
      "channel": 2,
      "note": 54,
      "start": 79.8305,
      "duration": 0.1622,
      "velocity": 122,
      "chip": "ym2612"
    },
    {
      "channel": 1,
      "note": 73,
      "start": 79.8328,
      "duration": 0.4854,
      "velocity": 122,
      "chip": "ym2612"
    },
    {
      "channel": 0,
      "note": 78,
      "start": 79.835,
      "duration": 0.4854,
      "velocity": 104,
      "chip": "ym2612"
    },
    {
      "channel": 4,
      "note": 42,
      "start": 79.8381,
      "duration": 0.1518,
      "velocity": 113,
      "chip": "ym2612"
    },
    {
      "channel": 4,
      "note": 42,
      "start": 79.9905,
      "duration": 0.1573,
      "velocity": 113,
      "chip": "ym2612"
    },
    {
      "channel": 2,
      "note": 54,
      "start": 79.9933,
      "duration": 0.1572,
      "velocity": 122,
      "chip": "ym2612"
    },
    {
      "channel": 5,
      "note": 66,
      "start": 80.0016,
      "duration": 0.1439,
      "velocity": 127,
      "chip": "ym2612"
    },
    {
      "channel": 5,
      "note": 66,
      "start": 80.1461,
      "duration": 0.1627,
      "velocity": 127,
      "chip": "ym2612"
    },
    {
      "channel": 4,
      "note": 42,
      "start": 80.1484,
      "duration": 0.1629,
      "velocity": 113,
      "chip": "ym2612"
    },
    {
      "channel": 2,
      "note": 54,
      "start": 80.1512,
      "duration": 0.1648,
      "velocity": 122,
      "chip": "ym2612"
    },
    {
      "channel": 4,
      "note": 43,
      "start": 80.312,
      "duration": 0.1592,
      "velocity": 113,
      "chip": "ym2612"
    },
    {
      "channel": 3,
      "note": 74,
      "start": 80.3143,
      "duration": 0.4791,
      "velocity": 122,
      "chip": "ym2612"
    },
    {
      "channel": 2,
      "note": 55,
      "start": 80.3166,
      "duration": 0.1575,
      "velocity": 122,
      "chip": "ym2612"
    },
    {
      "channel": 1,
      "note": 74,
      "start": 80.3188,
      "duration": 0.4791,
      "velocity": 122,
      "chip": "ym2612"
    },
    {
      "channel": 0,
      "note": 79,
      "start": 80.3211,
      "duration": 0.4791,
      "velocity": 104,
      "chip": "ym2612"
    },
    {
      "channel": 5,
      "note": 66,
      "start": 80.3282,
      "duration": 0.1405,
      "velocity": 127,
      "chip": "ym2612"
    },
    {
      "channel": 4,
      "note": 43,
      "start": 80.4718,
      "duration": 0.1635,
      "velocity": 113,
      "chip": "ym2612"
    },
    {
      "channel": 2,
      "note": 55,
      "start": 80.4746,
      "duration": 0.1635,
      "velocity": 122,
      "chip": "ym2612"
    },
    {
      "channel": 5,
      "note": 66,
      "start": 80.483,
      "duration": 0.1501,
      "velocity": 127,
      "chip": "ym2612"
    },
    {
      "channel": 5,
      "note": 66,
      "start": 80.6337,
      "duration": 0.3193,
      "velocity": 127,
      "chip": "ym2612"
    },
    {
      "channel": 4,
      "note": 43,
      "start": 80.636,
      "duration": 0.1551,
      "velocity": 113,
      "chip": "ym2612"
    },
    {
      "channel": 2,
      "note": 55,
      "start": 80.6388,
      "duration": 0.1569,
      "velocity": 122,
      "chip": "ym2612"
    },
    {
      "channel": 4,
      "note": 40,
      "start": 80.7917,
      "duration": 0.1639,
      "velocity": 113,
      "chip": "ym2612"
    },
    {
      "channel": 3,
      "note": 71,
      "start": 80.794,
      "duration": 0.4781,
      "velocity": 122,
      "chip": "ym2612"
    },
    {
      "channel": 2,
      "note": 52,
      "start": 80.7963,
      "duration": 0.1537,
      "velocity": 122,
      "chip": "ym2612"
    },
    {
      "channel": 1,
      "note": 71,
      "start": 80.7985,
      "duration": 0.478,
      "velocity": 122,
      "chip": "ym2612"
    },
    {
      "channel": 0,
      "note": 76,
      "start": 80.8008,
      "duration": 0.478,
      "velocity": 104,
      "chip": "ym2612"
    },
    {
      "channel": 2,
      "note": 52,
      "start": 80.9506,
      "duration": 0.1632,
      "velocity": 122,
      "chip": "ym2612"
    },
    {
      "channel": 4,
      "note": 40,
      "start": 80.9563,
      "duration": 0.1614,
      "velocity": 113,
      "chip": "ym2612"
    },
    {
      "channel": 5,
      "note": 66,
      "start": 80.9653,
      "duration": 0.3158,
      "velocity": 127,
      "chip": "ym2612"
    },
    {
      "channel": 2,
      "note": 52,
      "start": 81.1143,
      "duration": 0.16,
      "velocity": 122,
      "chip": "ym2612"
    },
    {
      "channel": 4,
      "note": 40,
      "start": 81.1183,
      "duration": 0.1653,
      "velocity": 113,
      "chip": "ym2612"
    },
    {
      "channel": 3,
      "note": 74,
      "start": 81.2727,
      "duration": 0.1728,
      "velocity": 122,
      "chip": "ym2612"
    },
    {
      "channel": 2,
      "note": 55,
      "start": 81.275,
      "duration": 0.1607,
      "velocity": 122,
      "chip": "ym2612"
    },
    {
      "channel": 1,
      "note": 74,
      "start": 81.2772,
      "duration": 0.1605,
      "velocity": 122,
      "chip": "ym2612"
    },
    {
      "channel": 0,
      "note": 79,
      "start": 81.2795,
      "duration": 0.1597,
      "velocity": 104,
      "chip": "ym2612"
    },
    {
      "channel": 4,
      "note": 43,
      "start": 81.2842,
      "duration": 0.1591,
      "velocity": 113,
      "chip": "ym2612"
    },
    {
      "channel": 5,
      "note": 66,
      "start": 81.2935,
      "duration": 0.1476,
      "velocity": 127,
      "chip": "ym2612"
    },
    {
      "channel": 2,
      "note": 55,
      "start": 81.4363,
      "duration": 0.165,
      "velocity": 122,
      "chip": "ym2612"
    },
    {
      "channel": 5,
      "note": 66,
      "start": 81.4417,
      "duration": 0.1526,
      "velocity": 127,
      "chip": "ym2612"
    },
    {
      "channel": 4,
      "note": 43,
      "start": 81.444,
      "duration": 0.1528,
      "velocity": 113,
      "chip": "ym2612"
    },
    {
      "channel": 4,
      "note": 45,
      "start": 81.5974,
      "duration": 0.1585,
      "velocity": 113,
      "chip": "ym2612"
    },
    {
      "channel": 3,
      "note": 76,
      "start": 81.5996,
      "duration": 0.1583,
      "velocity": 122,
      "chip": "ym2612"
    },
    {
      "channel": 2,
      "note": 57,
      "start": 81.602,
      "duration": 0.1576,
      "velocity": 122,
      "chip": "ym2612"
    },
    {
      "channel": 1,
      "note": 76,
      "start": 81.6042,
      "duration": 0.1574,
      "velocity": 122,
      "chip": "ym2612"
    },
    {
      "channel": 0,
      "note": 81,
      "start": 81.6065,
      "duration": 0.1471,
      "velocity": 104,
      "chip": "ym2612"
    },
    {
      "channel": 5,
      "note": 66,
      "start": 81.6136,
      "duration": 0.3186,
      "velocity": 127,
      "chip": "ym2612"
    },
    {
      "channel": 4,
      "note": 45,
      "start": 81.7565,
      "duration": 0.1679,
      "velocity": 113,
      "chip": "ym2612"
    },
    {
      "channel": 2,
      "note": 57,
      "start": 81.7602,
      "duration": 0.1573,
      "velocity": 122,
      "chip": "ym2612"
    },
    {
      "channel": 2,
      "note": 59,
      "start": 81.9181,
      "duration": 0.4807,
      "velocity": 122,
      "chip": "ym2612"
    },
    {
      "channel": 1,
      "note": 83,
      "start": 81.9203,
      "duration": 0.1559,
      "velocity": 122,
      "chip": "ym2612"
    },
    {
      "channel": 4,
      "note": 47,
      "start": 81.925,
      "duration": 0.4812,
      "velocity": 113,
      "chip": "ym2612"
    },
    {
      "channel": 3,
      "note": 83,
      "start": 81.9273,
      "duration": 0.1546,
      "velocity": 122,
      "chip": "ym2612"
    },
    {
      "channel": 0,
      "note": 78,
      "start": 81.9305,
      "duration": 0.1478,
      "velocity": 104,
      "chip": "ym2612"
    },
    {
      "channel": 5,
      "note": 66,
      "start": 81.9428,
      "duration": 0.3016,
      "velocity": 127,
      "chip": "ym2612"
    },
    {
      "channel": 1,
      "note": 79,
      "start": 82.0768,
      "duration": 0.163,
      "velocity": 122,
      "chip": "ym2612"
    },
    {
      "channel": 0,
      "note": 74,
      "start": 82.079,
      "duration": 0.163,
      "velocity": 104,
      "chip": "ym2612"
    },
    {
      "channel": 3,
      "note": 79,
      "start": 82.0825,
      "duration": 0.1648,
      "velocity": 122,
      "chip": "ym2612"
    },
    {
      "channel": 1,
      "note": 76,
      "start": 82.2404,
      "duration": 0.1606,
      "velocity": 122,
      "chip": "ym2612"
    },
    {
      "channel": 0,
      "note": 71,
      "start": 82.2427,
      "duration": 0.1605,
      "velocity": 104,
      "chip": "ym2612"
    },
    {
      "channel": 3,
      "note": 76,
      "start": 82.2479,
      "duration": 0.1606,
      "velocity": 122,
      "chip": "ym2612"
    },
    {
      "channel": 5,
      "note": 66,
      "start": 82.2565,
      "duration": 0.3033,
      "velocity": 127,
      "chip": "ym2612"
    },
    {
      "channel": 2,
      "note": 58,
      "start": 82.3994,
      "duration": 0.4877,
      "velocity": 122,
      "chip": "ym2612"
    },
    {
      "channel": 1,
      "note": 82,
      "start": 82.4016,
      "duration": 0.1639,
      "velocity": 122,
      "chip": "ym2612"
    },
    {
      "channel": 0,
      "note": 77,
      "start": 82.4038,
      "duration": 0.1538,
      "velocity": 104,
      "chip": "ym2612"
    },
    {
      "channel": 4,
      "note": 46,
      "start": 82.4069,
      "duration": 0.4756,
      "velocity": 113,
      "chip": "ym2612"
    },
    {
      "channel": 3,
      "note": 82,
      "start": 82.4092,
      "duration": 0.1536,
      "velocity": 122,
      "chip": "ym2612"
    },
    {
      "channel": 0,
      "note": 74,
      "start": 82.5582,
      "duration": 0.1688,
      "velocity": 104,
      "chip": "ym2612"
    },
    {
      "channel": 3,
      "note": 79,
      "start": 82.5634,
      "duration": 0.1585,
      "velocity": 122,
      "chip": "ym2612"
    },
    {
      "channel": 1,
      "note": 79,
      "start": 82.5662,
      "duration": 0.1585,
      "velocity": 122,
      "chip": "ym2612"
    },
    {
      "channel": 5,
      "note": 66,
      "start": 82.574,
      "duration": 0.1555,
      "velocity": 127,
      "chip": "ym2612"
    },
    {
      "channel": 3,
      "note": 76,
      "start": 82.7226,
      "duration": 0.1621,
      "velocity": 122,
      "chip": "ym2612"
    },
    {
      "channel": 1,
      "note": 76,
      "start": 82.7253,
      "duration": 0.164,
      "velocity": 122,
      "chip": "ym2612"
    },
    {
      "channel": 0,
      "note": 71,
      "start": 82.7276,
      "duration": 0.1639,
      "velocity": 104,
      "chip": "ym2612"
    },
    {
      "channel": 5,
      "note": 66,
      "start": 82.7301,
      "duration": 0.1499,
      "velocity": 127,
      "chip": "ym2612"
    },
    {
      "channel": 4,
      "note": 45,
      "start": 82.8831,
      "duration": 0.4794,
      "velocity": 113,
      "chip": "ym2612"
    },
    {
      "channel": 3,
      "note": 81,
      "start": 82.8853,
      "duration": 0.1588,
      "velocity": 122,
      "chip": "ym2612"
    },
    {
      "channel": 2,
      "note": 57,
      "start": 82.8877,
      "duration": 0.4794,
      "velocity": 122,
      "chip": "ym2612"
    },
    {
      "channel": 1,
      "note": 81,
      "start": 82.8899,
      "duration": 0.157,
      "velocity": 122,
      "chip": "ym2612"
    },
    {
      "channel": 0,
      "note": 76,
      "start": 82.8922,
      "duration": 0.157,
      "velocity": 104,
      "chip": "ym2612"
    },
    {
      "channel": 5,
      "note": 66,
      "start": 82.8993,
      "duration": 0.1521,
      "velocity": 127,
      "chip": "ym2612"
    },
    {
      "channel": 3,
      "note": 79,
      "start": 83.0448,
      "duration": 0.1607,
      "velocity": 122,
      "chip": "ym2612"
    },
    {
      "channel": 1,
      "note": 79,
      "start": 83.0476,
      "duration": 0.1607,
      "velocity": 122,
      "chip": "ym2612"
    },
    {
      "channel": 0,
      "note": 74,
      "start": 83.0498,
      "duration": 0.1607,
      "velocity": 104,
      "chip": "ym2612"
    },
    {
      "channel": 5,
      "note": 66,
      "start": 83.062,
      "duration": 0.1408,
      "velocity": 127,
      "chip": "ym2612"
    },
    {
      "channel": 5,
      "note": 66,
      "start": 83.2034,
      "duration": 0.3242,
      "velocity": 127,
      "chip": "ym2612"
    },
    {
      "channel": 3,
      "note": 76,
      "start": 83.2061,
      "duration": 0.1586,
      "velocity": 122,
      "chip": "ym2612"
    },
    {
      "channel": 1,
      "note": 76,
      "start": 83.2089,
      "duration": 0.1604,
      "velocity": 122,
      "chip": "ym2612"
    },
    {
      "channel": 0,
      "note": 71,
      "start": 83.2112,
      "duration": 0.1604,
      "velocity": 104,
      "chip": "ym2612"
    },
    {
      "channel": 4,
      "note": 43,
      "start": 83.3631,
      "duration": 0.4804,
      "velocity": 113,
      "chip": "ym2612"
    },
    {
      "channel": 3,
      "note": 79,
      "start": 83.3654,
      "duration": 0.1653,
      "velocity": 122,
      "chip": "ym2612"
    },
    {
      "channel": 2,
      "note": 55,
      "start": 83.3677,
      "duration": 0.4803,
      "velocity": 122,
      "chip": "ym2612"
    },
    {
      "channel": 1,
      "note": 79,
      "start": 83.3699,
      "duration": 0.1634,
      "velocity": 122,
      "chip": "ym2612"
    },
    {
      "channel": 0,
      "note": 74,
      "start": 83.3722,
      "duration": 0.1532,
      "velocity": 104,
      "chip": "ym2612"
    },
    {
      "channel": 0,
      "note": 71,
      "start": 83.526,
      "duration": 0.1606,
      "velocity": 104,
      "chip": "ym2612"
    },
    {
      "channel": 3,
      "note": 76,
      "start": 83.5312,
      "duration": 0.1588,
      "velocity": 122,
      "chip": "ym2612"
    },
    {
      "channel": 1,
      "note": 76,
      "start": 83.534,
      "duration": 0.1504,
      "velocity": 122,
      "chip": "ym2612"
    },
    {
      "channel": 5,
      "note": 66,
      "start": 83.5416,
      "duration": 0.3266,
      "velocity": 127,
      "chip": "ym2612"
    },
    {
      "channel": 1,
      "note": 74,
      "start": 83.6849,
      "duration": 0.1653,
      "velocity": 122,
      "chip": "ym2612"
    },
    {
      "channel": 0,
      "note": 69,
      "start": 83.6872,
      "duration": 0.1653,
      "velocity": 104,
      "chip": "ym2612"
    },
    {
      "channel": 3,
      "note": 74,
      "start": 83.6907,
      "duration": 0.155,
      "velocity": 122,
      "chip": "ym2612"
    },
    {
      "channel": 4,
      "note": 40,
      "start": 83.8441,
      "duration": 0.1646,
      "velocity": 113,
      "chip": "ym2612"
    },
    {
      "channel": 3,
      "note": 76,
      "start": 83.8464,
      "duration": 0.1646,
      "velocity": 122,
      "chip": "ym2612"
    },
    {
      "channel": 2,
      "note": 52,
      "start": 83.8487,
      "duration": 0.1646,
      "velocity": 122,
      "chip": "ym2612"
    },
    {
      "channel": 1,
      "note": 76,
      "start": 83.8509,
      "duration": 0.1646,
      "velocity": 122,
      "chip": "ym2612"
    },
    {
      "channel": 0,
      "note": 71,
      "start": 83.8531,
      "duration": 0.1647,
      "velocity": 104,
      "chip": "ym2612"
    },
    {
      "channel": 5,
      "note": 66,
      "start": 83.8688,
      "duration": 0.0655,
      "velocity": 127,
      "chip": "ym2612"
    },
    {
      "channel": 5,
      "note": 66,
      "start": 83.9349,
      "duration": 0.09,
      "velocity": 127,
      "chip": "ym2612"
    },
    {
      "channel": 4,
      "note": 38,
      "start": 84.0094,
      "duration": 0.1629,
      "velocity": 113,
      "chip": "ym2612"
    },
    {
      "channel": 3,
      "note": 74,
      "start": 84.0117,
      "duration": 0.1628,
      "velocity": 122,
      "chip": "ym2612"
    },
    {
      "channel": 2,
      "note": 50,
      "start": 84.0139,
      "duration": 0.1629,
      "velocity": 122,
      "chip": "ym2612"
    },
    {
      "channel": 1,
      "note": 74,
      "start": 84.0162,
      "duration": 0.15,
      "velocity": 122,
      "chip": "ym2612"
    },
    {
      "channel": 0,
      "note": 69,
      "start": 84.0185,
      "duration": 0.15,
      "velocity": 104,
      "chip": "ym2612"
    },
    {
      "channel": 5,
      "note": 66,
      "start": 84.0256,
      "duration": 0.0717,
      "velocity": 127,
      "chip": "ym2612"
    },
    {
      "channel": 5,
      "note": 66,
      "start": 84.0979,
      "duration": 0.0869,
      "velocity": 127,
      "chip": "ym2612"
    },
    {
      "channel": 1,
      "note": 71,
      "start": 84.1668,
      "duration": 0.1735,
      "velocity": 122,
      "chip": "ym2612"
    },
    {
      "channel": 0,
      "note": 66,
      "start": 84.169,
      "duration": 0.1606,
      "velocity": 104,
      "chip": "ym2612"
    },
    {
      "channel": 4,
      "note": 35,
      "start": 84.1729,
      "duration": 0.1606,
      "velocity": 113,
      "chip": "ym2612"
    },
    {
      "channel": 3,
      "note": 71,
      "start": 84.1751,
      "duration": 0.1606,
      "velocity": 122,
      "chip": "ym2612"
    },
    {
      "channel": 2,
      "note": 47,
      "start": 84.1774,
      "duration": 0.1606,
      "velocity": 122,
      "chip": "ym2612"
    },
    {
      "channel": 5,
      "note": 66,
      "start": 84.1854,
      "duration": 0.0717,
      "velocity": 127,
      "chip": "ym2612"
    },
    {
      "channel": 5,
      "note": 66,
      "start": 84.2578,
      "duration": 0.0901,
      "velocity": 127,
      "chip": "ym2612"
    },
    {
      "channel": 0,
      "note": 69,
      "start": 84.3303,
      "duration": 0.1749,
      "velocity": 104,
      "chip": "ym2612"
    },
    {
      "channel": 4,
      "note": 38,
      "start": 84.3341,
      "duration": 0.1863,
      "velocity": 113,
      "chip": "ym2612"
    },
    {
      "channel": 3,
      "note": 74,
      "start": 84.3363,
      "duration": 0.1863,
      "velocity": 122,
      "chip": "ym2612"
    },
    {
      "channel": 2,
      "note": 50,
      "start": 84.3386,
      "duration": 0.1862,
      "velocity": 122,
      "chip": "ym2612"
    },
    {
      "channel": 1,
      "note": 74,
      "start": 84.3409,
      "duration": 0.156,
      "velocity": 122,
      "chip": "ym2612"
    },
    {
      "channel": 5,
      "note": 66,
      "start": 84.3485,
      "duration": 0.0686,
      "velocity": 127,
      "chip": "ym2612"
    },
    {
      "channel": 5,
      "note": 66,
      "start": 84.4178,
      "duration": 0.1103,
      "velocity": 127,
      "chip": "ym2612"
    },
    {
      "channel": 4,
      "note": 40,
      "start": 84.5209,
      "duration": 0.1337,
      "velocity": 113,
      "chip": "ym2612"
    },
    {
      "channel": 3,
      "note": 64,
      "start": 84.5232,
      "duration": 0.1266,
      "velocity": 122,
      "chip": "ym2612"
    },
    {
      "channel": 2,
      "note": 71,
      "start": 84.5255,
      "duration": 0.1258,
      "velocity": 122,
      "chip": "ym2612"
    },
    {
      "channel": 5,
      "note": 66,
      "start": 84.5386,
      "duration": 0.2759,
      "velocity": 127,
      "chip": "ym2612"
    },
    {
      "channel": 4,
      "note": 40,
      "start": 84.6552,
      "duration": 0.1619,
      "velocity": 113,
      "chip": "ym2612"
    },
    {
      "channel": 4,
      "note": 40,
      "start": 84.8177,
      "duration": 0.1609,
      "velocity": 113,
      "chip": "ym2612"
    },
    {
      "channel": 5,
      "note": 66,
      "start": 84.8267,
      "duration": 0.3081,
      "velocity": 127,
      "chip": "ym2612"
    },
    {
      "channel": 3,
      "note": 64,
      "start": 84.973,
      "duration": 0.8027,
      "velocity": 122,
      "chip": "ym2612"
    },
    {
      "channel": 2,
      "note": 71,
      "start": 84.9753,
      "duration": 0.8026,
      "velocity": 122,
      "chip": "ym2612"
    },
    {
      "channel": 4,
      "note": 40,
      "start": 84.9792,
      "duration": 0.1636,
      "velocity": 113,
      "chip": "ym2612"
    },
    {
      "channel": 4,
      "note": 40,
      "start": 85.1435,
      "duration": 0.1576,
      "velocity": 113,
      "chip": "ym2612"
    },
    {
      "channel": 5,
      "note": 66,
      "start": 85.1479,
      "duration": 0.147,
      "velocity": 127,
      "chip": "ym2612"
    },
    {
      "channel": 5,
      "note": 66,
      "start": 85.2956,
      "duration": 0.1593,
      "velocity": 127,
      "chip": "ym2612"
    },
    {
      "channel": 4,
      "note": 40,
      "start": 85.3017,
      "duration": 0.1557,
      "velocity": 113,
      "chip": "ym2612"
    },
    {
      "channel": 4,
      "note": 40,
      "start": 85.458,
      "duration": 0.1669,
      "velocity": 113,
      "chip": "ym2612"
    },
    {
      "channel": 5,
      "note": 66,
      "start": 85.4671,
      "duration": 0.1498,
      "velocity": 127,
      "chip": "ym2612"
    },
    {
      "channel": 4,
      "note": 40,
      "start": 85.6256,
      "duration": 0.1581,
      "velocity": 113,
      "chip": "ym2612"
    },
    {
      "channel": 5,
      "note": 66,
      "start": 85.63,
      "duration": 0.1514,
      "velocity": 127,
      "chip": "ym2612"
    },
    {
      "channel": 3,
      "note": 66,
      "start": 85.7762,
      "duration": 0.1616,
      "velocity": 122,
      "chip": "ym2612"
    },
    {
      "channel": 2,
      "note": 73,
      "start": 85.7785,
      "duration": 0.1607,
      "velocity": 122,
      "chip": "ym2612"
    },
    {
      "channel": 5,
      "note": 66,
      "start": 85.782,
      "duration": 0.3181,
      "velocity": 127,
      "chip": "ym2612"
    },
    {
      "channel": 4,
      "note": 40,
      "start": 85.7843,
      "duration": 0.162,
      "velocity": 113,
      "chip": "ym2612"
    },
    {
      "channel": 4,
      "note": 40,
      "start": 85.947,
      "duration": 0.1557,
      "velocity": 113,
      "chip": "ym2612"
    },
    {
      "channel": 4,
      "note": 40,
      "start": 86.1033,
      "duration": 0.1609,
      "velocity": 113,
      "chip": "ym2612"
    },
    {
      "channel": 5,
      "note": 66,
      "start": 86.1124,
      "duration": 0.308,
      "velocity": 127,
      "chip": "ym2612"
    },
    {
      "channel": 3,
      "note": 66,
      "start": 86.2586,
      "duration": 0.8041,
      "velocity": 122,
      "chip": "ym2612"
    },
    {
      "channel": 2,
      "note": 73,
      "start": 86.2609,
      "duration": 0.8041,
      "velocity": 122,
      "chip": "ym2612"
    },
    {
      "channel": 4,
      "note": 40,
      "start": 86.2649,
      "duration": 0.1635,
      "velocity": 113,
      "chip": "ym2612"
    },
    {
      "channel": 4,
      "note": 40,
      "start": 86.429,
      "duration": 0.1576,
      "velocity": 113,
      "chip": "ym2612"
    },
    {
      "channel": 5,
      "note": 66,
      "start": 86.4335,
      "duration": 0.147,
      "velocity": 127,
      "chip": "ym2612"
    },
    {
      "channel": 5,
      "note": 66,
      "start": 86.5811,
      "duration": 0.1617,
      "velocity": 127,
      "chip": "ym2612"
    },
    {
      "channel": 4,
      "note": 40,
      "start": 86.5872,
      "duration": 0.1634,
      "velocity": 113,
      "chip": "ym2612"
    },
    {
      "channel": 4,
      "note": 40,
      "start": 86.7513,
      "duration": 0.1557,
      "velocity": 113,
      "chip": "ym2612"
    },
    {
      "channel": 5,
      "note": 66,
      "start": 86.7557,
      "duration": 0.3124,
      "velocity": 127,
      "chip": "ym2612"
    },
    {
      "channel": 4,
      "note": 40,
      "start": 86.9077,
      "duration": 0.163,
      "velocity": 113,
      "chip": "ym2612"
    },
    {
      "channel": 3,
      "note": 67,
      "start": 87.0632,
      "duration": 0.1627,
      "velocity": 122,
      "chip": "ym2612"
    },
    {
      "channel": 2,
      "note": 74,
      "start": 87.0656,
      "duration": 0.1617,
      "velocity": 122,
      "chip": "ym2612"
    },
    {
      "channel": 4,
      "note": 40,
      "start": 87.0713,
      "duration": 0.1593,
      "velocity": 113,
      "chip": "ym2612"
    },
    {
      "channel": 5,
      "note": 66,
      "start": 87.0805,
      "duration": 0.3031,
      "velocity": 127,
      "chip": "ym2612"
    },
    {
      "channel": 4,
      "note": 40,
      "start": 87.2312,
      "duration": 0.1602,
      "velocity": 113,
      "chip": "ym2612"
    },
    {
      "channel": 4,
      "note": 40,
      "start": 87.3921,
      "duration": 0.1594,
      "velocity": 113,
      "chip": "ym2612"
    },
    {
      "channel": 5,
      "note": 66,
      "start": 87.3966,
      "duration": 0.3118,
      "velocity": 127,
      "chip": "ym2612"
    },
    {
      "channel": 3,
      "note": 67,
      "start": 87.5421,
      "duration": 0.8082,
      "velocity": 122,
      "chip": "ym2612"
    },
    {
      "channel": 2,
      "note": 74,
      "start": 87.5444,
      "duration": 0.8082,
      "velocity": 122,
      "chip": "ym2612"
    },
    {
      "channel": 4,
      "note": 40,
      "start": 87.5522,
      "duration": 0.1588,
      "velocity": 113,
      "chip": "ym2612"
    },
    {
      "channel": 4,
      "note": 40,
      "start": 87.7116,
      "duration": 0.1593,
      "velocity": 113,
      "chip": "ym2612"
    },
    {
      "channel": 5,
      "note": 66,
      "start": 87.7209,
      "duration": 0.1439,
      "velocity": 127,
      "chip": "ym2612"
    },
    {
      "channel": 5,
      "note": 66,
      "start": 87.8654,
      "duration": 0.1655,
      "velocity": 127,
      "chip": "ym2612"
    },
    {
      "channel": 4,
      "note": 40,
      "start": 87.8715,
      "duration": 0.1619,
      "velocity": 113,
      "chip": "ym2612"
    },
    {
      "channel": 4,
      "note": 40,
      "start": 88.0341,
      "duration": 0.1606,
      "velocity": 113,
      "chip": "ym2612"
    },
    {
      "channel": 5,
      "note": 66,
      "start": 88.0431,
      "duration": 0.1436,
      "velocity": 127,
      "chip": "ym2612"
    },
    {
      "channel": 4,
      "note": 40,
      "start": 88.1953,
      "duration": 0.1612,
      "velocity": 113,
      "chip": "ym2612"
    },
    {
      "channel": 5,
      "note": 66,
      "start": 88.1998,
      "duration": 0.147,
      "velocity": 127,
      "chip": "ym2612"
    },
    {
      "channel": 5,
      "note": 66,
      "start": 88.3474,
      "duration": 0.3217,
      "velocity": 127,
      "chip": "ym2612"
    },
    {
      "channel": 3,
      "note": 69,
      "start": 88.3509,
      "duration": 0.1604,
      "velocity": 122,
      "chip": "ym2612"
    },
    {
      "channel": 2,
      "note": 76,
      "start": 88.3532,
      "duration": 0.1595,
      "velocity": 122,
      "chip": "ym2612"
    },
    {
      "channel": 4,
      "note": 40,
      "start": 88.3571,
      "duration": 0.1589,
      "velocity": 113,
      "chip": "ym2612"
    },
    {
      "channel": 4,
      "note": 40,
      "start": 88.5167,
      "duration": 0.1603,
      "velocity": 113,
      "chip": "ym2612"
    },
    {
      "channel": 4,
      "note": 40,
      "start": 88.6776,
      "duration": 0.1625,
      "velocity": 113,
      "chip": "ym2612"
    },
    {
      "channel": 5,
      "note": 66,
      "start": 88.6821,
      "duration": 0.327,
      "velocity": 127,
      "chip": "ym2612"
    },
    {
      "channel": 3,
      "note": 69,
      "start": 88.8345,
      "duration": 0.8031,
      "velocity": 122,
      "chip": "ym2612"
    },
    {
      "channel": 2,
      "note": 76,
      "start": 88.8367,
      "duration": 0.8032,
      "velocity": 122,
      "chip": "ym2612"
    },
    {
      "channel": 4,
      "note": 40,
      "start": 88.8407,
      "duration": 0.1555,
      "velocity": 113,
      "chip": "ym2612"
    },
    {
      "channel": 4,
      "note": 40,
      "start": 88.9968,
      "duration": 0.1612,
      "velocity": 113,
      "chip": "ym2612"
    },
    {
      "channel": 5,
      "note": 66,
      "start": 89.0098,
      "duration": 0.0717,
      "velocity": 127,
      "chip": "ym2612"
    },
    {
      "channel": 5,
      "note": 66,
      "start": 89.0821,
      "duration": 0.0805,
      "velocity": 127,
      "chip": "ym2612"
    },
    {
      "channel": 4,
      "note": 40,
      "start": 89.1587,
      "duration": 0.1621,
      "velocity": 113,
      "chip": "ym2612"
    },
    {
      "channel": 5,
      "note": 66,
      "start": 89.1632,
      "duration": 0.078,
      "velocity": 127,
      "chip": "ym2612"
    },
    {
      "channel": 5,
      "note": 66,
      "start": 89.2418,
      "duration": 0.0835,
      "velocity": 127,
      "chip": "ym2612"
    },
    {
      "channel": 4,
      "note": 38,
      "start": 89.3215,
      "duration": 0.1536,
      "velocity": 113,
      "chip": "ym2612"
    },
    {
      "channel": 5,
      "note": 66,
      "start": 89.3259,
      "duration": 0.0748,
      "velocity": 127,
      "chip": "ym2612"
    },
    {
      "channel": 5,
      "note": 66,
      "start": 89.4014,
      "duration": 0.0828,
      "velocity": 127,
      "chip": "ym2612"
    },
    {
      "channel": 4,
      "note": 39,
      "start": 89.4757,
      "duration": 0.1702,
      "velocity": 113,
      "chip": "ym2612"
    },
    {
      "channel": 5,
      "note": 66,
      "start": 89.4848,
      "duration": 0.0779,
      "velocity": 127,
      "chip": "ym2612"
    },
    {
      "channel": 5,
      "note": 66,
      "start": 89.5633,
      "duration": 0.111,
      "velocity": 127,
      "chip": "ym2612"
    },
    {
      "channel": 3,
      "note": 64,
      "start": 89.6383,
      "duration": 0.158,
      "velocity": 122,
      "chip": "ym2612"
    },
    {
      "channel": 2,
      "note": 71,
      "start": 89.6405,
      "duration": 0.1571,
      "velocity": 122,
      "chip": "ym2612"
    },
    {
      "channel": 4,
      "note": 40,
      "start": 89.6465,
      "duration": 0.1559,
      "velocity": 113,
      "chip": "ym2612"
    },
    {
      "channel": 1,
      "note": 86,
      "start": 89.6549,
      "duration": 3.8578,
      "velocity": 122,
      "chip": "ym2612"
    },
    {
      "channel": 0,
      "note": 86,
      "start": 89.6688,
      "duration": 0.1389,
      "velocity": 104,
      "chip": "ym2612"
    },
    {
      "channel": 5,
      "note": 66,
      "start": 89.6849,
      "duration": 0.2725,
      "velocity": 127,
      "chip": "ym2612"
    },
    {
      "channel": 4,
      "note": 40,
      "start": 89.8031,
      "duration": 0.1655,
      "velocity": 113,
      "chip": "ym2612"
    },
    {
      "channel": 0,
      "note": 86,
      "start": 89.8083,
      "duration": 0.1557,
      "velocity": 104,
      "chip": "ym2612"
    },
    {
      "channel": 0,
      "note": 86,
      "start": 89.9647,
      "duration": 0.1677,
      "velocity": 104,
      "chip": "ym2612"
    },
    {
      "channel": 4,
      "note": 40,
      "start": 89.9692,
      "duration": 0.158,
      "velocity": 113,
      "chip": "ym2612"
    },
    {
      "channel": 5,
      "note": 66,
      "start": 89.9737,
      "duration": 0.3052,
      "velocity": 127,
      "chip": "ym2612"
    },
    {
      "channel": 3,
      "note": 64,
      "start": 90.12,
      "duration": 0.8018,
      "velocity": 122,
      "chip": "ym2612"
    },
    {
      "channel": 2,
      "note": 71,
      "start": 90.1223,
      "duration": 0.8017,
      "velocity": 122,
      "chip": "ym2612"
    },
    {
      "channel": 4,
      "note": 40,
      "start": 90.1278,
      "duration": 0.1625,
      "velocity": 113,
      "chip": "ym2612"
    },
    {
      "channel": 0,
      "note": 86,
      "start": 90.133,
      "duration": 0.1525,
      "velocity": 104,
      "chip": "ym2612"
    },
    {
      "channel": 0,
      "note": 86,
      "start": 90.2862,
      "duration": 0.1643,
      "velocity": 104,
      "chip": "ym2612"
    },
    {
      "channel": 4,
      "note": 40,
      "start": 90.2909,
      "duration": 0.1625,
      "velocity": 113,
      "chip": "ym2612"
    },
    {
      "channel": 5,
      "note": 66,
      "start": 90.2954,
      "duration": 0.1485,
      "velocity": 127,
      "chip": "ym2612"
    },
    {
      "channel": 5,
      "note": 66,
      "start": 90.4446,
      "duration": 0.1573,
      "velocity": 127,
      "chip": "ym2612"
    },
    {
      "channel": 0,
      "note": 86,
      "start": 90.4511,
      "duration": 0.1575,
      "velocity": 104,
      "chip": "ym2612"
    },
    {
      "channel": 4,
      "note": 40,
      "start": 90.4541,
      "duration": 0.159,
      "velocity": 113,
      "chip": "ym2612"
    },
    {
      "channel": 0,
      "note": 86,
      "start": 90.6092,
      "duration": 0.1562,
      "velocity": 104,
      "chip": "ym2612"
    },
    {
      "channel": 4,
      "note": 40,
      "start": 90.6138,
      "duration": 0.1563,
      "velocity": 113,
      "chip": "ym2612"
    },
    {
      "channel": 5,
      "note": 66,
      "start": 90.6182,
      "duration": 0.1413,
      "velocity": 127,
      "chip": "ym2612"
    },
    {
      "channel": 0,
      "note": 86,
      "start": 90.766,
      "duration": 0.1695,
      "velocity": 104,
      "chip": "ym2612"
    },
    {
      "channel": 4,
      "note": 40,
      "start": 90.7707,
      "duration": 0.1678,
      "velocity": 113,
      "chip": "ym2612"
    },
    {
      "channel": 5,
      "note": 66,
      "start": 90.7768,
      "duration": 0.1522,
      "velocity": 127,
      "chip": "ym2612"
    },
    {
      "channel": 3,
      "note": 66,
      "start": 90.9224,
      "duration": 0.1642,
      "velocity": 122,
      "chip": "ym2612"
    },
    {
      "channel": 2,
      "note": 73,
      "start": 90.9246,
      "duration": 0.1562,
      "velocity": 122,
      "chip": "ym2612"
    },
    {
      "channel": 5,
      "note": 66,
      "start": 90.9297,
      "duration": 0.3125,
      "velocity": 127,
      "chip": "ym2612"
    },
    {
      "channel": 0,
      "note": 86,
      "start": 90.9361,
      "duration": 0.1546,
      "velocity": 104,
      "chip": "ym2612"
    },
    {
      "channel": 4,
      "note": 40,
      "start": 90.9391,
      "duration": 0.1546,
      "velocity": 113,
      "chip": "ym2612"
    },
    {
      "channel": 0,
      "note": 86,
      "start": 91.0914,
      "duration": 0.1575,
      "velocity": 104,
      "chip": "ym2612"
    },
    {
      "channel": 4,
      "note": 40,
      "start": 91.0944,
      "duration": 0.159,
      "velocity": 113,
      "chip": "ym2612"
    },
    {
      "channel": 0,
      "note": 86,
      "start": 91.2495,
      "duration": 0.1659,
      "velocity": 104,
      "chip": "ym2612"
    },
    {
      "channel": 4,
      "note": 40,
      "start": 91.254,
      "duration": 0.1644,
      "velocity": 113,
      "chip": "ym2612"
    },
    {
      "channel": 5,
      "note": 66,
      "start": 91.2585,
      "duration": 0.3038,
      "velocity": 127,
      "chip": "ym2612"
    },
    {
      "channel": 3,
      "note": 66,
      "start": 91.4041,
      "duration": 0.8034,
      "velocity": 122,
      "chip": "ym2612"
    },
    {
      "channel": 2,
      "note": 73,
      "start": 91.4064,
      "duration": 0.8034,
      "velocity": 122,
      "chip": "ym2612"
    },
    {
      "channel": 0,
      "note": 86,
      "start": 91.4161,
      "duration": 0.1611,
      "velocity": 104,
      "chip": "ym2612"
    },
    {
      "channel": 4,
      "note": 40,
      "start": 91.4191,
      "duration": 0.1527,
      "velocity": 113,
      "chip": "ym2612"
    },
    {
      "channel": 4,
      "note": 40,
      "start": 91.5725,
      "duration": 0.1659,
      "velocity": 113,
      "chip": "ym2612"
    },
    {
      "channel": 0,
      "note": 86,
      "start": 91.5778,
      "duration": 0.1576,
      "velocity": 104,
      "chip": "ym2612"
    },
    {
      "channel": 5,
      "note": 66,
      "start": 91.5802,
      "duration": 0.1486,
      "velocity": 127,
      "chip": "ym2612"
    },
    {
      "channel": 5,
      "note": 66,
      "start": 91.7294,
      "duration": 0.1566,
      "velocity": 127,
      "chip": "ym2612"
    },
    {
      "channel": 0,
      "note": 86,
      "start": 91.7359,
      "duration": 0.156,
      "velocity": 104,
      "chip": "ym2612"
    },
    {
      "channel": 4,
      "note": 40,
      "start": 91.739,
      "duration": 0.1574,
      "velocity": 113,
      "chip": "ym2612"
    },
    {
      "channel": 0,
      "note": 86,
      "start": 91.8925,
      "duration": 0.1625,
      "velocity": 104,
      "chip": "ym2612"
    },
    {
      "channel": 4,
      "note": 40,
      "start": 91.897,
      "duration": 0.1527,
      "velocity": 113,
      "chip": "ym2612"
    },
    {
      "channel": 5,
      "note": 66,
      "start": 91.9031,
      "duration": 0.3173,
      "velocity": 127,
      "chip": "ym2612"
    },
    {
      "channel": 4,
      "note": 40,
      "start": 92.0503,
      "duration": 0.1726,
      "velocity": 113,
      "chip": "ym2612"
    },
    {
      "channel": 0,
      "note": 86,
      "start": 92.0556,
      "duration": 0.1725,
      "velocity": 104,
      "chip": "ym2612"
    },
    {
      "channel": 3,
      "note": 67,
      "start": 92.2081,
      "duration": 0.1625,
      "velocity": 122,
      "chip": "ym2612"
    },
    {
      "channel": 2,
      "note": 74,
      "start": 92.2104,
      "duration": 0.1617,
      "velocity": 122,
      "chip": "ym2612"
    },
    {
      "channel": 4,
      "note": 40,
      "start": 92.2235,
      "duration": 0.1552,
      "velocity": 113,
      "chip": "ym2612"
    },
    {
      "channel": 0,
      "note": 86,
      "start": 92.2288,
      "duration": 0.1469,
      "velocity": 104,
      "chip": "ym2612"
    },
    {
      "channel": 5,
      "note": 66,
      "start": 92.2361,
      "duration": 0.2973,
      "velocity": 127,
      "chip": "ym2612"
    },
    {
      "channel": 0,
      "note": 86,
      "start": 92.3763,
      "duration": 0.1638,
      "velocity": 104,
      "chip": "ym2612"
    },
    {
      "channel": 4,
      "note": 40,
      "start": 92.3793,
      "duration": 0.1653,
      "velocity": 113,
      "chip": "ym2612"
    },
    {
      "channel": 0,
      "note": 86,
      "start": 92.5407,
      "duration": 0.1596,
      "velocity": 104,
      "chip": "ym2612"
    },
    {
      "channel": 4,
      "note": 40,
      "start": 92.5453,
      "duration": 0.1581,
      "velocity": 113,
      "chip": "ym2612"
    },
    {
      "channel": 5,
      "note": 66,
      "start": 92.5496,
      "duration": 0.3029,
      "velocity": 127,
      "chip": "ym2612"
    },
    {
      "channel": 3,
      "note": 67,
      "start": 92.6944,
      "duration": 0.8027,
      "velocity": 122,
      "chip": "ym2612"
    },
    {
      "channel": 2,
      "note": 74,
      "start": 92.6966,
      "duration": 0.8028,
      "velocity": 122,
      "chip": "ym2612"
    },
    {
      "channel": 0,
      "note": 86,
      "start": 92.701,
      "duration": 0.1593,
      "velocity": 104,
      "chip": "ym2612"
    },
    {
      "channel": 4,
      "note": 40,
      "start": 92.704,
      "duration": 0.151,
      "velocity": 113,
      "chip": "ym2612"
    },
    {
      "channel": 4,
      "note": 40,
      "start": 92.8556,
      "duration": 0.1642,
      "velocity": 113,
      "chip": "ym2612"
    },
    {
      "channel": 0,
      "note": 86,
      "start": 92.8609,
      "duration": 0.1642,
      "velocity": 104,
      "chip": "ym2612"
    },
    {
      "channel": 5,
      "note": 66,
      "start": 92.8683,
      "duration": 0.144,
      "velocity": 127,
      "chip": "ym2612"
    },
    {
      "channel": 5,
      "note": 66,
      "start": 93.0129,
      "duration": 0.1573,
      "velocity": 127,
      "chip": "ym2612"
    },
    {
      "channel": 4,
      "note": 40,
      "start": 93.0204,
      "duration": 0.159,
      "velocity": 113,
      "chip": "ym2612"
    },
    {
      "channel": 0,
      "note": 86,
      "start": 93.0257,
      "duration": 0.159,
      "velocity": 104,
      "chip": "ym2612"
    },
    {
      "channel": 4,
      "note": 40,
      "start": 93.1801,
      "duration": 0.166,
      "velocity": 113,
      "chip": "ym2612"
    },
    {
      "channel": 0,
      "note": 86,
      "start": 93.1854,
      "duration": 0.156,
      "velocity": 104,
      "chip": "ym2612"
    },
    {
      "channel": 5,
      "note": 66,
      "start": 93.1879,
      "duration": 0.1476,
      "velocity": 127,
      "chip": "ym2612"
    },
    {
      "channel": 0,
      "note": 86,
      "start": 93.342,
      "duration": 0.173,
      "velocity": 104,
      "chip": "ym2612"
    },
    {
      "channel": 4,
      "note": 40,
      "start": 93.3467,
      "duration": 0.158,
      "velocity": 113,
      "chip": "ym2612"
    },
    {
      "channel": 5,
      "note": 66,
      "start": 93.3528,
      "duration": 0.1409,
      "velocity": 127,
      "chip": "ym2612"
    },
    {
      "channel": 5,
      "note": 66,
      "start": 93.4942,
      "duration": 0.3237,
      "velocity": 127,
      "chip": "ym2612"
    },
    {
      "channel": 3,
      "note": 69,
      "start": 93.4977,
      "duration": 0.1541,
      "velocity": 122,
      "chip": "ym2612"
    },
    {
      "channel": 2,
      "note": 76,
      "start": 93.5001,
      "duration": 0.1531,
      "velocity": 122,
      "chip": "ym2612"
    },
    {
      "channel": 4,
      "note": 40,
      "start": 93.5054,
      "duration": 0.1577,
      "velocity": 113,
      "chip": "ym2612"
    },
    {
      "channel": 1,
      "note": 86,
      "start": 93.5133,
      "duration": 0.1529,
      "velocity": 122,
      "chip": "ym2612"
    },
    {
      "channel": 0,
      "note": 86,
      "start": 93.5156,
      "duration": 0.1529,
      "velocity": 104,
      "chip": "ym2612"
    },
    {
      "channel": 4,
      "note": 40,
      "start": 93.6637,
      "duration": 0.1636,
      "velocity": 113,
      "chip": "ym2612"
    },
    {
      "channel": 1,
      "note": 86,
      "start": 93.6669,
      "duration": 0.1636,
      "velocity": 122,
      "chip": "ym2612"
    },
    {
      "channel": 0,
      "note": 86,
      "start": 93.6692,
      "duration": 0.1636,
      "velocity": 104,
      "chip": "ym2612"
    },
    {
      "channel": 4,
      "note": 40,
      "start": 93.8279,
      "duration": 0.1595,
      "velocity": 113,
      "chip": "ym2612"
    },
    {
      "channel": 1,
      "note": 85,
      "start": 93.8311,
      "duration": 0.1595,
      "velocity": 122,
      "chip": "ym2612"
    },
    {
      "channel": 0,
      "note": 85,
      "start": 93.8334,
      "duration": 0.1595,
      "velocity": 104,
      "chip": "ym2612"
    },
    {
      "channel": 5,
      "note": 66,
      "start": 93.836,
      "duration": 0.3273,
      "velocity": 127,
      "chip": "ym2612"
    },
    {
      "channel": 3,
      "note": 69,
      "start": 93.9752,
      "duration": 0.8225,
      "velocity": 122,
      "chip": "ym2612"
    },
    {
      "channel": 2,
      "note": 76,
      "start": 93.9775,
      "duration": 0.8225,
      "velocity": 122,
      "chip": "ym2612"
    },
    {
      "channel": 4,
      "note": 40,
      "start": 93.9881,
      "duration": 0.1572,
      "velocity": 113,
      "chip": "ym2612"
    },
    {
      "channel": 1,
      "note": 85,
      "start": 93.9913,
      "duration": 0.1626,
      "velocity": 122,
      "chip": "ym2612"
    },
    {
      "channel": 0,
      "note": 85,
      "start": 93.9935,
      "duration": 0.1626,
      "velocity": 104,
      "chip": "ym2612"
    },
    {
      "channel": 4,
      "note": 47,
      "start": 94.1459,
      "duration": 0.1562,
      "velocity": 113,
      "chip": "ym2612"
    },
    {
      "channel": 1,
      "note": 85,
      "start": 94.1545,
      "duration": 0.1568,
      "velocity": 122,
      "chip": "ym2612"
    },
    {
      "channel": 0,
      "note": 85,
      "start": 94.1568,
      "duration": 0.1569,
      "velocity": 104,
      "chip": "ym2612"
    },
    {
      "channel": 5,
      "note": 66,
      "start": 94.1639,
      "duration": 0.0655,
      "velocity": 127,
      "chip": "ym2612"
    },
    {
      "channel": 5,
      "note": 66,
      "start": 94.2301,
      "duration": 0.0861,
      "velocity": 127,
      "chip": "ym2612"
    },
    {
      "channel": 4,
      "note": 46,
      "start": 94.3027,
      "duration": 0.1585,
      "velocity": 113,
      "chip": "ym2612"
    },
    {
      "channel": 1,
      "note": 85,
      "start": 94.312,
      "duration": 0.1585,
      "velocity": 122,
      "chip": "ym2612"
    },
    {
      "channel": 0,
      "note": 85,
      "start": 94.3143,
      "duration": 0.1585,
      "velocity": 104,
      "chip": "ym2612"
    },
    {
      "channel": 5,
      "note": 66,
      "start": 94.3168,
      "duration": 0.0749,
      "velocity": 127,
      "chip": "ym2612"
    },
    {
      "channel": 5,
      "note": 66,
      "start": 94.3923,
      "duration": 0.083,
      "velocity": 127,
      "chip": "ym2612"
    },
    {
      "channel": 4,
      "note": 45,
      "start": 94.4618,
      "duration": 0.1609,
      "velocity": 113,
      "chip": "ym2612"
    },
    {
      "channel": 1,
      "note": 84,
      "start": 94.4711,
      "duration": 0.1684,
      "velocity": 122,
      "chip": "ym2612"
    },
    {
      "channel": 0,
      "note": 84,
      "start": 94.4734,
      "duration": 0.1598,
      "velocity": 104,
      "chip": "ym2612"
    },
    {
      "channel": 5,
      "note": 66,
      "start": 94.4759,
      "duration": 0.0749,
      "velocity": 127,
      "chip": "ym2612"
    },
    {
      "channel": 5,
      "note": 66,
      "start": 94.5514,
      "duration": 0.0844,
      "velocity": 127,
      "chip": "ym2612"
    },
    {
      "channel": 4,
      "note": 43,
      "start": 94.6234,
      "duration": 0.1829,
      "velocity": 113,
      "chip": "ym2612"
    },
    {
      "channel": 0,
      "note": 84,
      "start": 94.6338,
      "duration": 0.1839,
      "velocity": 104,
      "chip": "ym2612"
    },
    {
      "channel": 5,
      "note": 66,
      "start": 94.6364,
      "duration": 0.0735,
      "velocity": 127,
      "chip": "ym2612"
    },
    {
      "channel": 1,
      "note": 84,
      "start": 94.6401,
      "duration": 0.1694,
      "velocity": 122,
      "chip": "ym2612"
    },
    {
      "channel": 5,
      "note": 66,
      "start": 94.7105,
      "duration": 0.107,
      "velocity": 127,
      "chip": "ym2612"
    },
    {
      "channel": 3,
      "note": 64,
      "start": 94.7984,
      "duration": 0.0193,
      "velocity": 122,
      "chip": "ym2612"
    },
    {
      "channel": 2,
      "note": 71,
      "start": 94.8007,
      "duration": 0.017,
      "velocity": 122,
      "chip": "ym2612"
    },
    {
      "channel": 4,
      "note": 40,
      "start": 94.8068,
      "duration": 0.0109,
      "velocity": 113,
      "chip": "ym2612"
    },
    {
      "channel": 1,
      "note": 71,
      "start": 94.8101,
      "duration": 0.0076,
      "velocity": 122,
      "chip": "ym2612"
    }
  ]
}