{
  "track_name": "01 - Opening ~ Wind of Europe",
  "duration_sec": 70.26,
  "sample_rate": 44100,
  "note_count": 1025,
  "unique_pitches": 42,
  "pitch_range": 50,
  "avg_note_duration": 0.1892,
  "reconstruction_stats": {
    "notes_reconstructed": 1025,
    "keyon_events": 1025,
    "keyoff_events": 1024,
    "orphan_keyons": 1,
    "unique_pitches": 42,
    "pitch_range": 50,
    "avg_duration_sec": 0.1892
  },
  "metadata": {
    "source": "O\\Operation Europe\\01 - Opening ~ Wind of Europe.vgz"
  },
  "notes": [
    {
      "channel": 3,
      "note": 79,
      "start": 0.0067,
      "duration": 0.0531,
      "velocity": 119,
      "chip": "ym2612"
    },
    {
      "channel": 3,
      "note": 79,
      "start": 0.0601,
      "duration": 0.0652,
      "velocity": 119,
      "chip": "ym2612"
    },
    {
      "channel": 3,
      "note": 79,
      "start": 0.1255,
      "duration": 0.0665,
      "velocity": 119,
      "chip": "ym2612"
    },
    {
      "channel": 3,
      "note": 79,
      "start": 0.1922,
      "duration": 0.0665,
      "velocity": 119,
      "chip": "ym2612"
    },
    {
      "channel": 3,
      "note": 79,
      "start": 0.2588,
      "duration": 0.0665,
      "velocity": 119,
      "chip": "ym2612"
    },
    {
      "channel": 3,
      "note": 79,
      "start": 0.3255,
      "duration": 0.0507,
      "velocity": 119,
      "chip": "ym2612"
    },
    {
      "channel": 3,
      "note": 79,
      "start": 0.3765,
      "duration": 0.0664,
      "velocity": 119,
      "chip": "ym2612"
    },
    {
      "channel": 3,
      "note": 79,
      "start": 0.4431,
      "duration": 0.0655,
      "velocity": 119,
      "chip": "ym2612"
    },
    {
      "channel": 3,
      "note": 79,
      "start": 0.5088,
      "duration": 0.0665,
      "velocity": 119,
      "chip": "ym2612"
    },
    {
      "channel": 3,
      "note": 79,
      "start": 0.5755,
      "duration": 0.0665,
      "velocity": 119,
      "chip": "ym2612"
    },
    {
      "channel": 3,
      "note": 79,
      "start": 0.6422,
      "duration": 0.0507,
      "velocity": 119,
      "chip": "ym2612"
    },
    {
      "channel": 3,
      "note": 79,
      "start": 0.6931,
      "duration": 0.0664,
      "velocity": 119,
      "chip": "ym2612"
    },
    {
      "channel": 3,
      "note": 79,
      "start": 0.7598,
      "duration": 0.0655,
      "velocity": 119,
      "chip": "ym2612"
    },
    {
      "channel": 3,
      "note": 79,
      "start": 0.8255,
      "duration": 0.0665,
      "velocity": 119,
      "chip": "ym2612"
    },
    {
      "channel": 3,
      "note": 79,
      "start": 0.8922,
      "duration": 0.0665,
      "velocity": 119,
      "chip": "ym2612"
    },
    {
      "channel": 3,
      "note": 79,
      "start": 0.9588,
      "duration": 0.0507,
      "velocity": 119,
      "chip": "ym2612"
    },
    {
      "channel": 3,
      "note": 79,
      "start": 1.0098,
      "duration": 0.0664,
      "velocity": 119,
      "chip": "ym2612"
    },
    {
      "channel": 3,
      "note": 79,
      "start": 1.0765,
      "duration": 0.0655,
      "velocity": 119,
      "chip": "ym2612"
    },
    {
      "channel": 3,
      "note": 79,
      "start": 1.1422,
      "duration": 0.0665,
      "velocity": 119,
      "chip": "ym2612"
    },
    {
      "channel": 3,
      "note": 79,
      "start": 1.2088,
      "duration": 0.0665,
      "velocity": 119,
      "chip": "ym2612"
    },
    {
      "channel": 3,
      "note": 79,
      "start": 1.2755,
      "duration": 0.0665,
      "velocity": 119,
      "chip": "ym2612"
    },
    {
      "channel": 3,
      "note": 79,
      "start": 1.3422,
      "duration": 0.0507,
      "velocity": 119,
      "chip": "ym2612"
    },
    {
      "channel": 3,
      "note": 79,
      "start": 1.3931,
      "duration": 0.0664,
      "velocity": 119,
      "chip": "ym2612"
    },
    {
      "channel": 3,
      "note": 79,
      "start": 1.4598,
      "duration": 0.0655,
      "velocity": 119,
      "chip": "ym2612"
    },
    {
      "channel": 3,
      "note": 79,
      "start": 1.5255,
      "duration": 0.0665,
      "velocity": 119,
      "chip": "ym2612"
    },
    {
      "channel": 3,
      "note": 79,
      "start": 1.5922,
      "duration": 0.0665,
      "velocity": 119,
      "chip": "ym2612"
    },
    {
      "channel": 3,
      "note": 79,
      "start": 1.6588,
      "duration": 0.0507,
      "velocity": 119,
      "chip": "ym2612"
    },
    {
      "channel": 3,
      "note": 79,
      "start": 1.7098,
      "duration": 0.0664,
      "velocity": 119,
      "chip": "ym2612"
    },
    {
      "channel": 3,
      "note": 79,
      "start": 1.7765,
      "duration": 0.0655,
      "velocity": 119,
      "chip": "ym2612"
    },
    {
      "channel": 3,
      "note": 79,
      "start": 1.8422,
      "duration": 0.0665,
      "velocity": 119,
      "chip": "ym2612"
    },
    {
      "channel": 3,
      "note": 79,
      "start": 1.9088,
      "duration": 0.0665,
      "velocity": 119,
      "chip": "ym2612"
    },
    {
      "channel": 3,
      "note": 79,
      "start": 1.9755,
      "duration": 0.0518,
      "velocity": 119,
      "chip": "ym2612"
    },
    {
      "channel": 3,
      "note": 79,
      "start": 2.0276,
      "duration": 0.0478,
      "velocity": 119,
      "chip": "ym2612"
    },
    {
      "channel": 3,
      "note": 79,
      "start": 2.0755,
      "duration": 0.0498,
      "velocity": 119,
      "chip": "ym2612"
    },
    {
      "channel": 3,
      "note": 79,
      "start": 2.1255,
      "duration": 0.4163,
      "velocity": 119,
      "chip": "ym2612"
    },
    {
      "channel": 3,
      "note": 79,
      "start": 2.5598,
      "duration": 0.0488,
      "velocity": 119,
      "chip": "ym2612"
    },
    {
      "channel": 3,
      "note": 79,
      "start": 2.6088,
      "duration": 0.034,
      "velocity": 119,
      "chip": "ym2612"
    },
    {
      "channel": 3,
      "note": 79,
      "start": 2.6431,
      "duration": 0.4321,
      "velocity": 119,
      "chip": "ym2612"
    },
    {
      "channel": 3,
      "note": 79,
      "start": 3.0922,
      "duration": 0.0498,
      "velocity": 119,
      "chip": "ym2612"
    },
    {
      "channel": 3,
      "note": 79,
      "start": 3.1422,
      "duration": 0.0331,
      "velocity": 119,
      "chip": "ym2612"
    },
    {
      "channel": 3,
      "note": 79,
      "start": 3.1755,
      "duration": 0.4173,
      "velocity": 119,
      "chip": "ym2612"
    },
    {
      "channel": 3,
      "note": 79,
      "start": 4.0607,
      "duration": 0.0479,
      "velocity": 119,
      "chip": "ym2612"
    },
    {
      "channel": 3,
      "note": 79,
      "start": 4.1088,
      "duration": 0.0498,
      "velocity": 119,
      "chip": "ym2612"
    },
    {
      "channel": 3,
      "note": 79,
      "start": 4.1588,
      "duration": 0.3663,
      "velocity": 119,
      "chip": "ym2612"
    },
    {
      "channel": 3,
      "note": 79,
      "start": 4.5755,
      "duration": 0.3163,
      "velocity": 119,
      "chip": "ym2612"
    },
    {
      "channel": 3,
      "note": 79,
      "start": 4.9098,
      "duration": 0.1654,
      "velocity": 119,
      "chip": "ym2612"
    },
    {
      "channel": 3,
      "note": 79,
      "start": 5.0765,
      "duration": 0.0488,
      "velocity": 119,
      "chip": "ym2612"
    },
    {
      "channel": 3,
      "note": 79,
      "start": 5.1255,
      "duration": 0.0498,
      "velocity": 119,
      "chip": "ym2612"
    },
    {
      "channel": 3,
      "note": 79,
      "start": 5.1755,
      "duration": 0.3663,
      "velocity": 119,
      "chip": "ym2612"
    },
    {
      "channel": 3,
      "note": 79,
      "start": 5.5922,
      "duration": 0.1163,
      "velocity": 119,
      "chip": "ym2612"
    },
    {
      "channel": 3,
      "note": 79,
      "start": 5.7255,
      "duration": 0.1163,
      "velocity": 119,
      "chip": "ym2612"
    },
    {
      "channel": 3,
      "note": 79,
      "start": 5.8432,
      "duration": 0.1163,
      "velocity": 119,
      "chip": "ym2612"
    },
    {
      "channel": 3,
      "note": 79,
      "start": 5.9755,
      "duration": 0.1163,
      "velocity": 119,
      "chip": "ym2612"
    },
    {
      "channel": 3,
      "note": 79,
      "start": 6.0943,
      "duration": 0.0477,
      "velocity": 119,
      "chip": "ym2612"
    },
    {
      "channel": 3,
      "note": 79,
      "start": 6.1422,
      "duration": 0.0498,
      "velocity": 119,
      "chip": "ym2612"
    },
    {
      "channel": 3,
      "note": 79,
      "start": 6.1922,
      "duration": 0.4163,
      "velocity": 119,
      "chip": "ym2612"
    },
    {
      "channel": 3,
      "note": 79,
      "start": 6.6265,
      "duration": 0.0494,
      "velocity": 119,
      "chip": "ym2612"
    },
    {
      "channel": 3,
      "note": 79,
      "start": 6.6761,
      "duration": 0.0334,
      "velocity": 119,
      "chip": "ym2612"
    },
    {
      "channel": 3,
      "note": 79,
      "start": 6.7097,
      "duration": 0.4321,
      "velocity": 119,
      "chip": "ym2612"
    },
    {
      "channel": 3,
      "note": 79,
      "start": 7.1588,
      "duration": 0.034,
      "velocity": 119,
      "chip": "ym2612"
    },
    {
      "channel": 3,
      "note": 79,
      "start": 7.1931,
      "duration": 0.0488,
      "velocity": 119,
      "chip": "ym2612"
    },
    {
      "channel": 3,
      "note": 79,
      "start": 7.2422,
      "duration": 0.4173,
      "velocity": 119,
      "chip": "ym2612"
    },
    {
      "channel": 3,
      "note": 79,
      "start": 8.1274,
      "duration": 0.0479,
      "velocity": 119,
      "chip": "ym2612"
    },
    {
      "channel": 3,
      "note": 79,
      "start": 8.1755,
      "duration": 0.034,
      "velocity": 119,
      "chip": "ym2612"
    },
    {
      "channel": 3,
      "note": 79,
      "start": 8.2098,
      "duration": 0.3821,
      "velocity": 119,
      "chip": "ym2612"
    },
    {
      "channel": 3,
      "note": 79,
      "start": 8.6422,
      "duration": 0.3163,
      "velocity": 119,
      "chip": "ym2612"
    },
    {
      "channel": 3,
      "note": 79,
      "start": 8.9765,
      "duration": 0.1654,
      "velocity": 119,
      "chip": "ym2612"
    },
    {
      "channel": 3,
      "note": 79,
      "start": 9.1432,
      "duration": 0.0488,
      "velocity": 119,
      "chip": "ym2612"
    },
    {
      "channel": 3,
      "note": 79,
      "start": 9.1922,
      "duration": 0.034,
      "velocity": 119,
      "chip": "ym2612"
    },
    {
      "channel": 3,
      "note": 79,
      "start": 9.2265,
      "duration": 0.3821,
      "velocity": 119,
      "chip": "ym2612"
    },
    {
      "channel": 3,
      "note": 79,
      "start": 9.6588,
      "duration": 0.1163,
      "velocity": 119,
      "chip": "ym2612"
    },
    {
      "channel": 3,
      "note": 79,
      "start": 9.7922,
      "duration": 0.1006,
      "velocity": 119,
      "chip": "ym2612"
    },
    {
      "channel": 3,
      "note": 79,
      "start": 9.9088,
      "duration": 0.1163,
      "velocity": 119,
      "chip": "ym2612"
    },
    {
      "channel": 3,
      "note": 79,
      "start": 10.0422,
      "duration": 0.1163,
      "velocity": 119,
      "chip": "ym2612"
    },
    {
      "channel": 3,
      "note": 79,
      "start": 10.1609,
      "duration": 0.0477,
      "velocity": 119,
      "chip": "ym2612"
    },
    {
      "channel": 3,
      "note": 79,
      "start": 10.2088,
      "duration": 0.034,
      "velocity": 119,
      "chip": "ym2612"
    },
    {
      "channel": 3,
      "note": 79,
      "start": 10.2431,
      "duration": 0.3821,
      "velocity": 119,
      "chip": "ym2612"
    },
    {
      "channel": 3,
      "note": 79,
      "start": 10.6755,
      "duration": 0.1506,
      "velocity": 119,
      "chip": "ym2612"
    },
    {
      "channel": 3,
      "note": 79,
      "start": 10.8422,
      "duration": 0.1663,
      "velocity": 119,
      "chip": "ym2612"
    },
    {
      "channel": 3,
      "note": 79,
      "start": 11.0099,
      "duration": 0.1653,
      "velocity": 119,
      "chip": "ym2612"
    },
    {
      "channel": 3,
      "note": 79,
      "start": 11.1765,
      "duration": 0.083,
      "velocity": 119,
      "chip": "ym2612"
    },
    {
      "channel": 3,
      "note": 79,
      "start": 11.2598,
      "duration": 0.0988,
      "velocity": 119,
      "chip": "ym2612"
    },
    {
      "channel": 3,
      "note": 79,
      "start": 11.3588,
      "duration": 0.1497,
      "velocity": 119,
      "chip": "ym2612"
    },
    {
      "channel": 3,
      "note": 79,
      "start": 11.5255,
      "duration": 0.1506,
      "velocity": 119,
      "chip": "ym2612"
    },
    {
      "channel": 3,
      "note": 79,
      "start": 11.6922,
      "duration": 0.1506,
      "velocity": 119,
      "chip": "ym2612"
    },
    {
      "channel": 3,
      "note": 79,
      "start": 11.8588,
      "duration": 0.1663,
      "velocity": 119,
      "chip": "ym2612"
    },
    {
      "channel": 3,
      "note": 79,
      "start": 12.0265,
      "duration": 0.1653,
      "velocity": 119,
      "chip": "ym2612"
    },
    {
      "channel": 3,
      "note": 79,
      "start": 12.1941,
      "duration": 0.0483,
      "velocity": 119,
      "chip": "ym2612"
    },
    {
      "channel": 3,
      "note": 79,
      "start": 12.2431,
      "duration": 0.0332,
      "velocity": 119,
      "chip": "ym2612"
    },
    {
      "channel": 3,
      "note": 79,
      "start": 12.2765,
      "duration": 0.0488,
      "velocity": 119,
      "chip": "ym2612"
    },
    {
      "channel": 3,
      "note": 79,
      "start": 12.3255,
      "duration": 0.4498,
      "velocity": 119,
      "chip": "ym2612"
    },
    {
      "channel": 3,
      "note": 79,
      "start": 13.2104,
      "duration": 0.0488,
      "velocity": 119,
      "chip": "ym2612"
    },
    {
      "channel": 3,
      "note": 79,
      "start": 13.2598,
      "duration": 0.0331,
      "velocity": 119,
      "chip": "ym2612"
    },
    {
      "channel": 3,
      "note": 79,
      "start": 13.2931,
      "duration": 0.0488,
      "velocity": 119,
      "chip": "ym2612"
    },
    {
      "channel": 3,
      "note": 79,
      "start": 13.3422,
      "duration": 0.4498,
      "velocity": 119,
      "chip": "ym2612"
    },
    {
      "channel": 3,
      "note": 79,
      "start": 14.2274,
      "duration": 0.0479,
      "velocity": 119,
      "chip": "ym2612"
    },
    {
      "channel": 3,
      "note": 79,
      "start": 14.2755,
      "duration": 0.034,
      "velocity": 119,
      "chip": "ym2612"
    },
    {
      "channel": 3,
      "note": 79,
      "start": 14.3098,
      "duration": 0.2987,
      "velocity": 119,
      "chip": "ym2612"
    },
    {
      "channel": 3,
      "note": 79,
      "start": 14.6099,
      "duration": 0.1653,
      "velocity": 119,
      "chip": "ym2612"
    },
    {
      "channel": 3,
      "note": 79,
      "start": 14.7765,
      "duration": 0.1658,
      "velocity": 119,
      "chip": "ym2612"
    },
    {
      "channel": 3,
      "note": 79,
      "start": 14.9588,
      "duration": 0.1497,
      "velocity": 119,
      "chip": "ym2612"
    },
    {
      "channel": 3,
      "note": 79,
      "start": 15.1255,
      "duration": 0.1506,
      "velocity": 119,
      "chip": "ym2612"
    },
    {
      "channel": 3,
      "note": 79,
      "start": 15.2922,
      "duration": 0.4686,
      "velocity": 119,
      "chip": "ym2612"
    },
    {
      "channel": 0,
      "note": 62,
      "start": 15.7588,
      "duration": 0.1495,
      "velocity": 101,
      "chip": "ym2612"
    },
    {
      "channel": 2,
      "note": 50,
      "start": 15.7596,
      "duration": 0.149,
      "velocity": 101,
      "chip": "ym2612"
    },
    {
      "channel": 0,
      "note": 62,
      "start": 16.0929,
      "duration": 0.1488,
      "velocity": 101,
      "chip": "ym2612"
    },
    {
      "channel": 2,
      "note": 50,
      "start": 16.0935,
      "duration": 0.1484,
      "velocity": 101,
      "chip": "ym2612"
    },
    {
      "channel": 0,
      "note": 74,
      "start": 16.2607,
      "duration": 1.4809,
      "velocity": 101,
      "chip": "ym2612"
    },
    {
      "channel": 2,
      "note": 62,
      "start": 16.2618,
      "duration": 1.4808,
      "velocity": 101,
      "chip": "ym2612"
    },
    {
      "channel": 3,
      "note": 79,
      "start": 16.263,
      "duration": 0.4788,
      "velocity": 119,
      "chip": "ym2612"
    },
    {
      "channel": 1,
      "note": 43,
      "start": 16.7755,
      "duration": 0.1495,
      "velocity": 99,
      "chip": "ym2612"
    },
    {
      "channel": 3,
      "note": 79,
      "start": 16.7762,
      "duration": 0.3157,
      "velocity": 119,
      "chip": "ym2612"
    },
    {
      "channel": 1,
      "note": 43,
      "start": 17.1087,
      "duration": 0.1497,
      "velocity": 99,
      "chip": "ym2612"
    },
    {
      "channel": 3,
      "note": 79,
      "start": 17.1093,
      "duration": 0.1659,
      "velocity": 119,
      "chip": "ym2612"
    },
    {
      "channel": 1,
      "note": 43,
      "start": 17.2764,
      "duration": 0.4658,
      "velocity": 99,
      "chip": "ym2612"
    },
    {
      "channel": 3,
      "note": 79,
      "start": 17.2771,
      "duration": 0.0482,
      "velocity": 119,
      "chip": "ym2612"
    },
    {
      "channel": 3,
      "note": 79,
      "start": 17.3256,
      "duration": 0.034,
      "velocity": 119,
      "chip": "ym2612"
    },
    {
      "channel": 3,
      "note": 79,
      "start": 17.3599,
      "duration": 0.3832,
      "velocity": 119,
      "chip": "ym2612"
    },
    {
      "channel": 0,
      "note": 77,
      "start": 17.7921,
      "duration": 0.1495,
      "velocity": 101,
      "chip": "ym2612"
    },
    {
      "channel": 2,
      "note": 65,
      "start": 17.7929,
      "duration": 0.149,
      "velocity": 101,
      "chip": "ym2612"
    },
    {
      "channel": 3,
      "note": 79,
      "start": 17.7935,
      "duration": 0.3151,
      "velocity": 119,
      "chip": "ym2612"
    },
    {
      "channel": 0,
      "note": 77,
      "start": 18.1253,
      "duration": 0.1497,
      "velocity": 101,
      "chip": "ym2612"
    },
    {
      "channel": 2,
      "note": 65,
      "start": 18.1259,
      "duration": 0.1494,
      "velocity": 101,
      "chip": "ym2612"
    },
    {
      "channel": 3,
      "note": 79,
      "start": 18.1265,
      "duration": 0.1653,
      "velocity": 119,
      "chip": "ym2612"
    },
    {
      "channel": 0,
      "note": 74,
      "start": 18.2931,
      "duration": 1.4819,
      "velocity": 101,
      "chip": "ym2612"
    },
    {
      "channel": 2,
      "note": 62,
      "start": 18.2941,
      "duration": 1.4812,
      "velocity": 101,
      "chip": "ym2612"
    },
    {
      "channel": 3,
      "note": 79,
      "start": 18.2947,
      "duration": 0.1639,
      "velocity": 119,
      "chip": "ym2612"
    },
    {
      "channel": 3,
      "note": 79,
      "start": 18.4599,
      "duration": 0.166,
      "velocity": 119,
      "chip": "ym2612"
    },
    {
      "channel": 3,
      "note": 79,
      "start": 18.6422,
      "duration": 0.1506,
      "velocity": 119,
      "chip": "ym2612"
    },
    {
      "channel": 1,
      "note": 43,
      "start": 18.8087,
      "duration": 0.1163,
      "velocity": 99,
      "chip": "ym2612"
    },
    {
      "channel": 3,
      "note": 79,
      "start": 18.8093,
      "duration": 0.116,
      "velocity": 119,
      "chip": "ym2612"
    },
    {
      "channel": 1,
      "note": 43,
      "start": 18.9266,
      "duration": 0.1182,
      "velocity": 99,
      "chip": "ym2612"
    },
    {
      "channel": 3,
      "note": 79,
      "start": 18.9273,
      "duration": 0.1183,
      "velocity": 119,
      "chip": "ym2612"
    },
    {
      "channel": 1,
      "note": 43,
      "start": 19.0587,
      "duration": 0.1163,
      "velocity": 99,
      "chip": "ym2612"
    },
    {
      "channel": 3,
      "note": 79,
      "start": 19.0599,
      "duration": 0.1154,
      "velocity": 119,
      "chip": "ym2612"
    },
    {
      "channel": 1,
      "note": 43,
      "start": 19.1928,
      "duration": 0.1156,
      "velocity": 99,
      "chip": "ym2612"
    },
    {
      "channel": 3,
      "note": 79,
      "start": 19.1949,
      "duration": 0.1138,
      "velocity": 119,
      "chip": "ym2612"
    },
    {
      "channel": 1,
      "note": 43,
      "start": 19.3099,
      "duration": 0.4653,
      "velocity": 99,
      "chip": "ym2612"
    },
    {
      "channel": 3,
      "note": 79,
      "start": 19.3106,
      "duration": 0.048,
      "velocity": 119,
      "chip": "ym2612"
    },
    {
      "channel": 3,
      "note": 79,
      "start": 19.3589,
      "duration": 0.034,
      "velocity": 119,
      "chip": "ym2612"
    },
    {
      "channel": 3,
      "note": 79,
      "start": 19.3932,
      "duration": 0.3824,
      "velocity": 119,
      "chip": "ym2612"
    },
    {
      "channel": 0,
      "note": 79,
      "start": 19.8254,
      "duration": 0.1495,
      "velocity": 101,
      "chip": "ym2612"
    },
    {
      "channel": 2,
      "note": 67,
      "start": 19.8263,
      "duration": 0.149,
      "velocity": 101,
      "chip": "ym2612"
    },
    {
      "channel": 3,
      "note": 79,
      "start": 19.8268,
      "duration": 0.315,
      "velocity": 119,
      "chip": "ym2612"
    },
    {
      "channel": 0,
      "note": 77,
      "start": 20.1588,
      "duration": 0.1495,
      "velocity": 101,
      "chip": "ym2612"
    },
    {
      "channel": 2,
      "note": 65,
      "start": 20.1595,
      "duration": 0.149,
      "velocity": 101,
      "chip": "ym2612"
    },
    {
      "channel": 3,
      "note": 79,
      "start": 20.1602,
      "duration": 0.165,
      "velocity": 119,
      "chip": "ym2612"
    },
    {
      "channel": 0,
      "note": 74,
      "start": 20.3265,
      "duration": 0.4652,
      "velocity": 101,
      "chip": "ym2612"
    },
    {
      "channel": 2,
      "note": 62,
      "start": 20.3275,
      "duration": 0.4644,
      "velocity": 101,
      "chip": "ym2612"
    },
    {
      "channel": 3,
      "note": 79,
      "start": 20.328,
      "duration": 0.4805,
      "velocity": 119,
      "chip": "ym2612"
    },
    {
      "channel": 0,
      "note": 67,
      "start": 20.8421,
      "duration": 0.1495,
      "velocity": 101,
      "chip": "ym2612"
    },
    {
      "channel": 1,
      "note": 43,
      "start": 20.8427,
      "duration": 0.1495,
      "velocity": 99,
      "chip": "ym2612"
    },
    {
      "channel": 2,
      "note": 55,
      "start": 20.8434,
      "duration": 0.1492,
      "velocity": 101,
      "chip": "ym2612"
    },
    {
      "channel": 3,
      "note": 79,
      "start": 20.8439,
      "duration": 0.3149,
      "velocity": 119,
      "chip": "ym2612"
    },
    {
      "channel": 0,
      "note": 74,
      "start": 21.1754,
      "duration": 0.1495,
      "velocity": 101,
      "chip": "ym2612"
    },
    {
      "channel": 1,
      "note": 43,
      "start": 21.176,
      "duration": 0.1492,
      "velocity": 99,
      "chip": "ym2612"
    },
    {
      "channel": 2,
      "note": 62,
      "start": 21.1767,
      "duration": 0.1487,
      "velocity": 101,
      "chip": "ym2612"
    },
    {
      "channel": 3,
      "note": 79,
      "start": 21.1773,
      "duration": 0.1649,
      "velocity": 119,
      "chip": "ym2612"
    },
    {
      "channel": 0,
      "note": 72,
      "start": 21.3457,
      "duration": 0.4627,
      "velocity": 101,
      "chip": "ym2612"
    },
    {
      "channel": 1,
      "note": 44,
      "start": 21.3464,
      "duration": 0.1463,
      "velocity": 99,
      "chip": "ym2612"
    },
    {
      "channel": 2,
      "note": 60,
      "start": 21.3471,
      "duration": 0.4615,
      "velocity": 101,
      "chip": "ym2612"
    },
    {
      "channel": 3,
      "note": 79,
      "start": 21.3476,
      "duration": 0.0443,
      "velocity": 119,
      "chip": "ym2612"
    },
    {
      "channel": 3,
      "note": 79,
      "start": 21.3922,
      "duration": 0.034,
      "velocity": 119,
      "chip": "ym2612"
    },
    {
      "channel": 3,
      "note": 79,
      "start": 21.4265,
      "duration": 0.2331,
      "velocity": 119,
      "chip": "ym2612"
    },
    {
      "channel": 1,
      "note": 60,
      "start": 21.5123,
      "duration": 0.1471,
      "velocity": 99,
      "chip": "ym2612"
    },
    {
      "channel": 1,
      "note": 44,
      "start": 21.6922,
      "duration": 0.1338,
      "velocity": 99,
      "chip": "ym2612"
    },
    {
      "channel": 3,
      "note": 79,
      "start": 21.6928,
      "duration": 0.149,
      "velocity": 119,
      "chip": "ym2612"
    },
    {
      "channel": 0,
      "note": 70,
      "start": 21.8588,
      "duration": 0.1495,
      "velocity": 101,
      "chip": "ym2612"
    },
    {
      "channel": 1,
      "note": 42,
      "start": 21.8595,
      "duration": 0.149,
      "velocity": 99,
      "chip": "ym2612"
    },
    {
      "channel": 2,
      "note": 58,
      "start": 21.8602,
      "duration": 0.1485,
      "velocity": 101,
      "chip": "ym2612"
    },
    {
      "channel": 3,
      "note": 79,
      "start": 21.8608,
      "duration": 0.149,
      "velocity": 119,
      "chip": "ym2612"
    },
    {
      "channel": 1,
      "note": 58,
      "start": 22.0255,
      "duration": 0.1495,
      "velocity": 99,
      "chip": "ym2612"
    },
    {
      "channel": 3,
      "note": 79,
      "start": 22.0261,
      "duration": 0.1502,
      "velocity": 119,
      "chip": "ym2612"
    },
    {
      "channel": 0,
      "note": 72,
      "start": 22.1921,
      "duration": 0.1495,
      "velocity": 101,
      "chip": "ym2612"
    },
    {
      "channel": 1,
      "note": 44,
      "start": 22.1928,
      "duration": 0.149,
      "velocity": 99,
      "chip": "ym2612"
    },
    {
      "channel": 2,
      "note": 60,
      "start": 22.1935,
      "duration": 0.1485,
      "velocity": 101,
      "chip": "ym2612"
    },
    {
      "channel": 3,
      "note": 79,
      "start": 22.1941,
      "duration": 0.1644,
      "velocity": 119,
      "chip": "ym2612"
    },
    {
      "channel": 0,
      "note": 69,
      "start": 22.3598,
      "duration": 1.4819,
      "velocity": 101,
      "chip": "ym2612"
    },
    {
      "channel": 2,
      "note": 57,
      "start": 22.3608,
      "duration": 1.4812,
      "velocity": 101,
      "chip": "ym2612"
    },
    {
      "channel": 3,
      "note": 79,
      "start": 22.3614,
      "duration": 0.1642,
      "velocity": 119,
      "chip": "ym2612"
    },
    {
      "channel": 3,
      "note": 79,
      "start": 22.53,
      "duration": 0.1619,
      "velocity": 119,
      "chip": "ym2612"
    },
    {
      "channel": 3,
      "note": 79,
      "start": 22.7089,
      "duration": 0.1496,
      "velocity": 119,
      "chip": "ym2612"
    },
    {
      "channel": 1,
      "note": 41,
      "start": 22.8755,
      "duration": 0.1495,
      "velocity": 99,
      "chip": "ym2612"
    },
    {
      "channel": 3,
      "note": 79,
      "start": 22.8762,
      "duration": 0.3158,
      "velocity": 119,
      "chip": "ym2612"
    },
    {
      "channel": 1,
      "note": 41,
      "start": 23.042,
      "duration": 0.1497,
      "velocity": 99,
      "chip": "ym2612"
    },
    {
      "channel": 1,
      "note": 41,
      "start": 23.2087,
      "duration": 0.1496,
      "velocity": 99,
      "chip": "ym2612"
    },
    {
      "channel": 3,
      "note": 79,
      "start": 23.2093,
      "duration": 0.1659,
      "velocity": 119,
      "chip": "ym2612"
    },
    {
      "channel": 1,
      "note": 38,
      "start": 23.3766,
      "duration": 0.4653,
      "velocity": 99,
      "chip": "ym2612"
    },
    {
      "channel": 3,
      "note": 79,
      "start": 23.3772,
      "duration": 0.1647,
      "velocity": 119,
      "chip": "ym2612"
    },
    {
      "channel": 3,
      "note": 79,
      "start": 23.5433,
      "duration": 0.1653,
      "velocity": 119,
      "chip": "ym2612"
    },
    {
      "channel": 3,
      "note": 79,
      "start": 23.7256,
      "duration": 0.1496,
      "velocity": 119,
      "chip": "ym2612"
    },
    {
      "channel": 0,
      "note": 62,
      "start": 23.8921,
      "duration": 0.1495,
      "velocity": 101,
      "chip": "ym2612"
    },
    {
      "channel": 2,
      "note": 50,
      "start": 23.8929,
      "duration": 0.149,
      "velocity": 101,
      "chip": "ym2612"
    },
    {
      "channel": 3,
      "note": 79,
      "start": 23.8935,
      "duration": 0.3151,
      "velocity": 119,
      "chip": "ym2612"
    },
    {
      "channel": 0,
      "note": 62,
      "start": 24.2253,
      "duration": 0.1497,
      "velocity": 101,
      "chip": "ym2612"
    },
    {
      "channel": 2,
      "note": 50,
      "start": 24.2259,
      "duration": 0.1493,
      "velocity": 101,
      "chip": "ym2612"
    },
    {
      "channel": 3,
      "note": 79,
      "start": 24.2265,
      "duration": 0.1658,
      "velocity": 119,
      "chip": "ym2612"
    },
    {
      "channel": 0,
      "note": 74,
      "start": 24.3963,
      "duration": 1.4787,
      "velocity": 101,
      "chip": "ym2612"
    },
    {
      "channel": 1,
      "note": 43,
      "start": 24.3976,
      "duration": 0.4607,
      "velocity": 99,
      "chip": "ym2612"
    },
    {
      "channel": 2,
      "note": 62,
      "start": 24.3983,
      "duration": 1.477,
      "velocity": 101,
      "chip": "ym2612"
    },
    {
      "channel": 3,
      "note": 79,
      "start": 24.3989,
      "duration": 0.4763,
      "velocity": 119,
      "chip": "ym2612"
    },
    {
      "channel": 1,
      "note": 43,
      "start": 24.9087,
      "duration": 0.1497,
      "velocity": 99,
      "chip": "ym2612"
    },
    {
      "channel": 3,
      "note": 79,
      "start": 24.9093,
      "duration": 0.3159,
      "velocity": 119,
      "chip": "ym2612"
    },
    {
      "channel": 1,
      "note": 43,
      "start": 25.242,
      "duration": 0.1497,
      "velocity": 99,
      "chip": "ym2612"
    },
    {
      "channel": 3,
      "note": 79,
      "start": 25.2427,
      "duration": 0.1659,
      "velocity": 119,
      "chip": "ym2612"
    },
    {
      "channel": 1,
      "note": 43,
      "start": 25.4099,
      "duration": 0.4653,
      "velocity": 99,
      "chip": "ym2612"
    },
    {
      "channel": 3,
      "note": 79,
      "start": 25.4105,
      "duration": 0.0481,
      "velocity": 119,
      "chip": "ym2612"
    },
    {
      "channel": 3,
      "note": 79,
      "start": 25.4589,
      "duration": 0.034,
      "velocity": 119,
      "chip": "ym2612"
    },
    {
      "channel": 3,
      "note": 79,
      "start": 25.4932,
      "duration": 0.3824,
      "velocity": 119,
      "chip": "ym2612"
    },
    {
      "channel": 0,
      "note": 77,
      "start": 25.9254,
      "duration": 0.1495,
      "velocity": 101,
      "chip": "ym2612"
    },
    {
      "channel": 2,
      "note": 65,
      "start": 25.9263,
      "duration": 0.149,
      "velocity": 101,
      "chip": "ym2612"
    },
    {
      "channel": 3,
      "note": 79,
      "start": 25.9268,
      "duration": 0.315,
      "velocity": 119,
      "chip": "ym2612"
    },
    {
      "channel": 0,
      "note": 77,
      "start": 26.2594,
      "duration": 0.1489,
      "velocity": 101,
      "chip": "ym2612"
    },
    {
      "channel": 2,
      "note": 65,
      "start": 26.2615,
      "duration": 0.1471,
      "velocity": 101,
      "chip": "ym2612"
    },
    {
      "channel": 3,
      "note": 79,
      "start": 26.2636,
      "duration": 0.1622,
      "velocity": 119,
      "chip": "ym2612"
    },
    {
      "channel": 0,
      "note": 74,
      "start": 26.4298,
      "duration": 1.4628,
      "velocity": 101,
      "chip": "ym2612"
    },
    {
      "channel": 1,
      "note": 43,
      "start": 26.4307,
      "duration": 0.461,
      "velocity": 99,
      "chip": "ym2612"
    },
    {
      "channel": 2,
      "note": 62,
      "start": 26.4314,
      "duration": 1.4616,
      "velocity": 101,
      "chip": "ym2612"
    },
    {
      "channel": 3,
      "note": 79,
      "start": 26.432,
      "duration": 0.1606,
      "velocity": 119,
      "chip": "ym2612"
    },
    {
      "channel": 3,
      "note": 79,
      "start": 26.5969,
      "duration": 0.1617,
      "velocity": 119,
      "chip": "ym2612"
    },
    {
      "channel": 3,
      "note": 79,
      "start": 26.7765,
      "duration": 0.1491,
      "velocity": 119,
      "chip": "ym2612"
    },
    {
      "channel": 1,
      "note": 43,
      "start": 26.942,
      "duration": 0.1163,
      "velocity": 99,
      "chip": "ym2612"
    },
    {
      "channel": 3,
      "note": 79,
      "start": 26.9433,
      "duration": 0.1154,
      "velocity": 119,
      "chip": "ym2612"
    },
    {
      "channel": 1,
      "note": 43,
      "start": 27.0599,
      "duration": 0.1161,
      "velocity": 99,
      "chip": "ym2612"
    },
    {
      "channel": 3,
      "note": 79,
      "start": 27.0606,
      "duration": 0.1156,
      "velocity": 119,
      "chip": "ym2612"
    },
    {
      "channel": 1,
      "note": 43,
      "start": 27.192,
      "duration": 0.1163,
      "velocity": 99,
      "chip": "ym2612"
    },
    {
      "channel": 3,
      "note": 79,
      "start": 27.1927,
      "duration": 0.116,
      "velocity": 119,
      "chip": "ym2612"
    },
    {
      "channel": 1,
      "note": 43,
      "start": 27.3254,
      "duration": 0.1163,
      "velocity": 99,
      "chip": "ym2612"
    },
    {
      "channel": 3,
      "note": 79,
      "start": 27.326,
      "duration": 0.116,
      "velocity": 119,
      "chip": "ym2612"
    },
    {
      "channel": 1,
      "note": 43,
      "start": 27.4432,
      "duration": 0.4496,
      "velocity": 99,
      "chip": "ym2612"
    },
    {
      "channel": 3,
      "note": 79,
      "start": 27.4439,
      "duration": 0.048,
      "velocity": 119,
      "chip": "ym2612"
    },
    {
      "channel": 3,
      "note": 79,
      "start": 27.4922,
      "duration": 0.0364,
      "velocity": 119,
      "chip": "ym2612"
    },
    {
      "channel": 3,
      "note": 79,
      "start": 27.5296,
      "duration": 0.4308,
      "velocity": 119,
      "chip": "ym2612"
    },
    {
      "channel": 0,
      "note": 79,
      "start": 27.9588,
      "duration": 0.1495,
      "velocity": 101,
      "chip": "ym2612"
    },
    {
      "channel": 1,
      "note": 43,
      "start": 27.9593,
      "duration": 0.0657,
      "velocity": 99,
      "chip": "ym2612"
    },
    {
      "channel": 2,
      "note": 67,
      "start": 27.9601,
      "duration": 0.1485,
      "velocity": 101,
      "chip": "ym2612"
    },
    {
      "channel": 3,
      "note": 79,
      "start": 27.9607,
      "duration": 0.319,
      "velocity": 119,
      "chip": "ym2612"
    },
    {
      "channel": 1,
      "note": 65,
      "start": 28.0422,
      "duration": 0.0674,
      "velocity": 99,
      "chip": "ym2612"
    },
    {
      "channel": 0,
      "note": 77,
      "start": 28.1263,
      "duration": 0.1487,
      "velocity": 101,
      "chip": "ym2612"
    },
    {
      "channel": 1,
      "note": 43,
      "start": 28.1284,
      "duration": 0.0643,
      "velocity": 99,
      "chip": "ym2612"
    },
    {
      "channel": 2,
      "note": 65,
      "start": 28.1306,
      "duration": 0.1452,
      "velocity": 101,
      "chip": "ym2612"
    },
    {
      "channel": 1,
      "note": 69,
      "start": 28.2088,
      "duration": 0.0696,
      "velocity": 99,
      "chip": "ym2612"
    },
    {
      "channel": 0,
      "note": 72,
      "start": 28.2921,
      "duration": 0.1495,
      "velocity": 101,
      "chip": "ym2612"
    },
    {
      "channel": 1,
      "note": 43,
      "start": 28.2934,
      "duration": 0.0659,
      "velocity": 99,
      "chip": "ym2612"
    },
    {
      "channel": 2,
      "note": 60,
      "start": 28.2941,
      "duration": 0.1478,
      "velocity": 101,
      "chip": "ym2612"
    },
    {
      "channel": 3,
      "note": 79,
      "start": 28.2947,
      "duration": 0.1639,
      "velocity": 119,
      "chip": "ym2612"
    },
    {
      "channel": 1,
      "note": 65,
      "start": 28.3755,
      "duration": 0.0829,
      "velocity": 99,
      "chip": "ym2612"
    },
    {
      "channel": 0,
      "note": 74,
      "start": 28.4599,
      "duration": 0.4494,
      "velocity": 101,
      "chip": "ym2612"
    },
    {
      "channel": 1,
      "note": 39,
      "start": 28.4606,
      "duration": 0.4489,
      "velocity": 99,
      "chip": "ym2612"
    },
    {
      "channel": 2,
      "note": 62,
      "start": 28.4614,
      "duration": 0.4483,
      "velocity": 101,
      "chip": "ym2612"
    },
    {
      "channel": 3,
      "note": 79,
      "start": 28.462,
      "duration": 0.4799,
      "velocity": 119,
      "chip": "ym2612"
    },
    {
      "channel": 0,
      "note": 67,
      "start": 28.9754,
      "duration": 0.1507,
      "velocity": 101,
      "chip": "ym2612"
    },
    {
      "channel": 1,
      "note": 39,
      "start": 28.976,
      "duration": 0.149,
      "velocity": 99,
      "chip": "ym2612"
    },
    {
      "channel": 2,
      "note": 55,
      "start": 28.9767,
      "duration": 0.1497,
      "velocity": 101,
      "chip": "ym2612"
    },
    {
      "channel": 3,
      "note": 79,
      "start": 28.9773,
      "duration": 0.3147,
      "velocity": 119,
      "chip": "ym2612"
    },
    {
      "channel": 1,
      "note": 58,
      "start": 29.1422,
      "duration": 0.1495,
      "velocity": 99,
      "chip": "ym2612"
    },
    {
      "channel": 0,
      "note": 74,
      "start": 29.3088,
      "duration": 0.1495,
      "velocity": 101,
      "chip": "ym2612"
    },
    {
      "channel": 1,
      "note": 39,
      "start": 29.3095,
      "duration": 0.149,
      "velocity": 99,
      "chip": "ym2612"
    },
    {
      "channel": 2,
      "note": 62,
      "start": 29.3102,
      "duration": 0.1485,
      "velocity": 101,
      "chip": "ym2612"
    },
    {
      "channel": 3,
      "note": 79,
      "start": 29.3107,
      "duration": 0.1644,
      "velocity": 119,
      "chip": "ym2612"
    },
    {
      "channel": 0,
      "note": 72,
      "start": 29.4765,
      "duration": 0.4495,
      "velocity": 101,
      "chip": "ym2612"
    },
    {
      "channel": 1,
      "note": 41,
      "start": 29.4772,
      "duration": 0.1479,
      "velocity": 99,
      "chip": "ym2612"
    },
    {
      "channel": 2,
      "note": 60,
      "start": 29.4779,
      "duration": 0.4483,
      "velocity": 101,
      "chip": "ym2612"
    },
    {
      "channel": 3,
      "note": 79,
      "start": 29.4785,
      "duration": 0.0468,
      "velocity": 119,
      "chip": "ym2612"
    },
    {
      "channel": 3,
      "note": 79,
      "start": 29.5256,
      "duration": 0.034,
      "velocity": 119,
      "chip": "ym2612"
    },
    {
      "channel": 3,
      "note": 79,
      "start": 29.5599,
      "duration": 0.2331,
      "velocity": 119,
      "chip": "ym2612"
    },
    {
      "channel": 1,
      "note": 57,
      "start": 29.6431,
      "duration": 0.1495,
      "velocity": 99,
      "chip": "ym2612"
    },
    {
      "channel": 1,
      "note": 41,
      "start": 29.8098,
      "duration": 0.1495,
      "velocity": 99,
      "chip": "ym2612"
    },
    {
      "channel": 3,
      "note": 79,
      "start": 29.8104,
      "duration": 0.1648,
      "velocity": 119,
      "chip": "ym2612"
    },
    {
      "channel": 0,
      "note": 69,
      "start": 29.9921,
      "duration": 0.1495,
      "velocity": 101,
      "chip": "ym2612"
    },
    {
      "channel": 1,
      "note": 41,
      "start": 29.9927,
      "duration": 0.0657,
      "velocity": 99,
      "chip": "ym2612"
    },
    {
      "channel": 2,
      "note": 57,
      "start": 29.9934,
      "duration": 0.1485,
      "velocity": 101,
      "chip": "ym2612"
    },
    {
      "channel": 3,
      "note": 79,
      "start": 29.994,
      "duration": 0.1492,
      "velocity": 119,
      "chip": "ym2612"
    },
    {
      "channel": 1,
      "note": 60,
      "start": 30.0755,
      "duration": 0.0674,
      "velocity": 99,
      "chip": "ym2612"
    },
    {
      "channel": 1,
      "note": 57,
      "start": 30.1588,
      "duration": 0.0672,
      "velocity": 99,
      "chip": "ym2612"
    },
    {
      "channel": 3,
      "note": 79,
      "start": 30.1595,
      "duration": 0.1502,
      "velocity": 119,
      "chip": "ym2612"
    },
    {
      "channel": 1,
      "note": 65,
      "start": 30.2422,
      "duration": 0.0672,
      "velocity": 99,
      "chip": "ym2612"
    },
    {
      "channel": 0,
      "note": 65,
      "start": 30.3254,
      "duration": 0.1495,
      "velocity": 101,
      "chip": "ym2612"
    },
    {
      "channel": 1,
      "note": 41,
      "start": 30.3261,
      "duration": 0.0665,
      "velocity": 99,
      "chip": "ym2612"
    },
    {
      "channel": 2,
      "note": 53,
      "start": 30.3268,
      "duration": 0.1484,
      "velocity": 101,
      "chip": "ym2612"
    },
    {
      "channel": 3,
      "note": 79,
      "start": 30.3274,
      "duration": 0.1646,
      "velocity": 119,
      "chip": "ym2612"
    },
    {
      "channel": 1,
      "note": 60,
      "start": 30.4088,
      "duration": 0.0829,
      "velocity": 99,
      "chip": "ym2612"
    },
    {
      "channel": 0,
      "note": 67,
      "start": 30.4932,
      "duration": 0.9651,
      "velocity": 101,
      "chip": "ym2612"
    },
    {
      "channel": 1,
      "note": 43,
      "start": 30.4939,
      "duration": 0.4487,
      "velocity": 99,
      "chip": "ym2612"
    },
    {
      "channel": 2,
      "note": 55,
      "start": 30.4946,
      "duration": 0.9639,
      "velocity": 101,
      "chip": "ym2612"
    },
    {
      "channel": 3,
      "note": 79,
      "start": 30.4953,
      "duration": 0.0467,
      "velocity": 119,
      "chip": "ym2612"
    },
    {
      "channel": 3,
      "note": 79,
      "start": 30.5422,
      "duration": 0.034,
      "velocity": 119,
      "chip": "ym2612"
    },
    {
      "channel": 3,
      "note": 79,
      "start": 30.5765,
      "duration": 0.233,
      "velocity": 119,
      "chip": "ym2612"
    },
    {
      "channel": 3,
      "note": 79,
      "start": 30.8265,
      "duration": 0.1654,
      "velocity": 119,
      "chip": "ym2612"
    },
    {
      "channel": 1,
      "note": 43,
      "start": 31.0087,
      "duration": 0.1497,
      "velocity": 99,
      "chip": "ym2612"
    },
    {
      "channel": 3,
      "note": 79,
      "start": 31.0093,
      "duration": 0.1502,
      "velocity": 119,
      "chip": "ym2612"
    },
    {
      "channel": 1,
      "note": 43,
      "start": 31.1754,
      "duration": 0.1497,
      "velocity": 99,
      "chip": "ym2612"
    },
    {
      "channel": 3,
      "note": 79,
      "start": 31.176,
      "duration": 0.1502,
      "velocity": 119,
      "chip": "ym2612"
    },
    {
      "channel": 1,
      "note": 43,
      "start": 31.342,
      "duration": 0.1497,
      "velocity": 99,
      "chip": "ym2612"
    },
    {
      "channel": 3,
      "note": 79,
      "start": 31.3427,
      "duration": 0.1502,
      "velocity": 119,
      "chip": "ym2612"
    },
    {
      "channel": 1,
      "note": 43,
      "start": 31.5087,
      "duration": 0.4506,
      "velocity": 99,
      "chip": "ym2612"
    },
    {
      "channel": 3,
      "note": 79,
      "start": 31.5093,
      "duration": 0.3168,
      "velocity": 119,
      "chip": "ym2612"
    },
    {
      "channel": 3,
      "note": 79,
      "start": 31.8432,
      "duration": 0.1653,
      "velocity": 119,
      "chip": "ym2612"
    },
    {
      "channel": 0,
      "note": 67,
      "start": 32.0289,
      "duration": 0.1461,
      "velocity": 88,
      "chip": "ym2612"
    },
    {
      "channel": 1,
      "note": 43,
      "start": 32.0329,
      "duration": 0.0588,
      "velocity": 99,
      "chip": "ym2612"
    },
    {
      "channel": 2,
      "note": 55,
      "start": 32.0371,
      "duration": 0.1382,
      "velocity": 88,
      "chip": "ym2612"
    },
    {
      "channel": 3,
      "note": 79,
      "start": 32.0377,
      "duration": 0.0716,
      "velocity": 119,
      "chip": "ym2612"
    },
    {
      "channel": 1,
      "note": 59,
      "start": 32.1088,
      "duration": 0.0706,
      "velocity": 99,
      "chip": "ym2612"
    },
    {
      "channel": 3,
      "note": 79,
      "start": 32.1095,
      "duration": 0.0841,
      "velocity": 119,
      "chip": "ym2612"
    },
    {
      "channel": 0,
      "note": 67,
      "start": 32.192,
      "duration": 0.1497,
      "velocity": 88,
      "chip": "ym2612"
    },
    {
      "channel": 1,
      "note": 43,
      "start": 32.1927,
      "duration": 0.0698,
      "velocity": 99,
      "chip": "ym2612"
    },
    {
      "channel": 2,
      "note": 55,
      "start": 32.1932,
      "duration": 0.1487,
      "velocity": 88,
      "chip": "ym2612"
    },
    {
      "channel": 3,
      "note": 79,
      "start": 32.1938,
      "duration": 0.1525,
      "velocity": 119,
      "chip": "ym2612"
    },
    {
      "channel": 1,
      "note": 59,
      "start": 32.2755,
      "duration": 0.0705,
      "velocity": 99,
      "chip": "ym2612"
    },
    {
      "channel": 0,
      "note": 67,
      "start": 32.3586,
      "duration": 0.1497,
      "velocity": 88,
      "chip": "ym2612"
    },
    {
      "channel": 1,
      "note": 43,
      "start": 32.3593,
      "duration": 0.0698,
      "velocity": 99,
      "chip": "ym2612"
    },
    {
      "channel": 2,
      "note": 55,
      "start": 32.3599,
      "duration": 0.1487,
      "velocity": 88,
      "chip": "ym2612"
    },
    {
      "channel": 3,
      "note": 79,
      "start": 32.3605,
      "duration": 0.1525,
      "velocity": 119,
      "chip": "ym2612"
    },
    {
      "channel": 1,
      "note": 59,
      "start": 32.4422,
      "duration": 0.0706,
      "velocity": 99,
      "chip": "ym2612"
    },
    {
      "channel": 0,
      "note": 79,
      "start": 32.5254,
      "duration": 1.237,
      "velocity": 88,
      "chip": "ym2612"
    },
    {
      "channel": 1,
      "note": 39,
      "start": 32.5261,
      "duration": 0.2197,
      "velocity": 99,
      "chip": "ym2612"
    },
    {
      "channel": 2,
      "note": 67,
      "start": 32.5269,
      "duration": 1.2358,
      "velocity": 88,
      "chip": "ym2612"
    },
    {
      "channel": 3,
      "note": 79,
      "start": 32.5275,
      "duration": 0.231,
      "velocity": 119,
      "chip": "ym2612"
    },
    {
      "channel": 1,
      "note": 39,
      "start": 32.7795,
      "duration": 0.0789,
      "velocity": 99,
      "chip": "ym2612"
    },
    {
      "channel": 3,
      "note": 79,
      "start": 32.7802,
      "duration": 0.0785,
      "velocity": 119,
      "chip": "ym2612"
    },
    {
      "channel": 1,
      "note": 39,
      "start": 32.8631,
      "duration": 0.0786,
      "velocity": 99,
      "chip": "ym2612"
    },
    {
      "channel": 3,
      "note": 79,
      "start": 32.8638,
      "duration": 0.0782,
      "velocity": 119,
      "chip": "ym2612"
    },
    {
      "channel": 1,
      "note": 39,
      "start": 32.9587,
      "duration": 0.0663,
      "velocity": 99,
      "chip": "ym2612"
    },
    {
      "channel": 3,
      "note": 79,
      "start": 32.9593,
      "duration": 0.066,
      "velocity": 119,
      "chip": "ym2612"
    },
    {
      "channel": 1,
      "note": 39,
      "start": 33.042,
      "duration": 0.1163,
      "velocity": 99,
      "chip": "ym2612"
    },
    {
      "channel": 3,
      "note": 79,
      "start": 33.0427,
      "duration": 0.2368,
      "velocity": 119,
      "chip": "ym2612"
    },
    {
      "channel": 1,
      "note": 63,
      "start": 33.1632,
      "duration": 0.116,
      "velocity": 99,
      "chip": "ym2612"
    },
    {
      "channel": 1,
      "note": 39,
      "start": 33.2922,
      "duration": 0.1162,
      "velocity": 99,
      "chip": "ym2612"
    },
    {
      "channel": 3,
      "note": 79,
      "start": 33.2929,
      "duration": 0.47,
      "velocity": 119,
      "chip": "ym2612"
    },
    {
      "channel": 1,
      "note": 63,
      "start": 33.4132,
      "duration": 0.116,
      "velocity": 99,
      "chip": "ym2612"
    },
    {
      "channel": 0,
      "note": 82,
      "start": 33.7962,
      "duration": 0.2288,
      "velocity": 88,
      "chip": "ym2612"
    },
    {
      "channel": 2,
      "note": 70,
      "start": 33.797,
      "duration": 0.2283,
      "velocity": 88,
      "chip": "ym2612"
    },
    {
      "channel": 3,
      "note": 79,
      "start": 33.7976,
      "duration": 0.1152,
      "velocity": 119,
      "chip": "ym2612"
    },
    {
      "channel": 1,
      "note": 39,
      "start": 33.8088,
      "duration": 0.1037,
      "velocity": 99,
      "chip": "ym2612"
    },
    {
      "channel": 1,
      "note": 39,
      "start": 33.9254,
      "duration": 0.1041,
      "velocity": 99,
      "chip": "ym2612"
    },
    {
      "channel": 3,
      "note": 79,
      "start": 33.926,
      "duration": 0.37,
      "velocity": 119,
      "chip": "ym2612"
    },
    {
      "channel": 0,
      "note": 81,
      "start": 34.0588,
      "duration": 0.2162,
      "velocity": 88,
      "chip": "ym2612"
    },
    {
      "channel": 2,
      "note": 69,
      "start": 34.0596,
      "duration": 0.2157,
      "velocity": 88,
      "chip": "ym2612"
    },
    {
      "channel": 0,
      "note": 82,
      "start": 34.3088,
      "duration": 0.2204,
      "velocity": 88,
      "chip": "ym2612"
    },
    {
      "channel": 2,
      "note": 70,
      "start": 34.3096,
      "duration": 0.2198,
      "velocity": 88,
      "chip": "ym2612"
    },
    {
      "channel": 3,
      "note": 79,
      "start": 34.3102,
      "duration": 0.1151,
      "velocity": 119,
      "chip": "ym2612"
    },
    {
      "channel": 1,
      "note": 39,
      "start": 34.3153,
      "duration": 0.0973,
      "velocity": 99,
      "chip": "ym2612"
    },
    {
      "channel": 1,
      "note": 39,
      "start": 34.4296,
      "duration": 0.1121,
      "velocity": 99,
      "chip": "ym2612"
    },
    {
      "channel": 3,
      "note": 79,
      "start": 34.4303,
      "duration": 0.1158,
      "velocity": 119,
      "chip": "ym2612"
    },
    {
      "channel": 0,
      "note": 79,
      "start": 34.5588,
      "duration": 1.4704,
      "velocity": 88,
      "chip": "ym2612"
    },
    {
      "channel": 1,
      "note": 43,
      "start": 34.5595,
      "duration": 0.2197,
      "velocity": 99,
      "chip": "ym2612"
    },
    {
      "channel": 2,
      "note": 67,
      "start": 34.5602,
      "duration": 1.4692,
      "velocity": 88,
      "chip": "ym2612"
    },
    {
      "channel": 3,
      "note": 79,
      "start": 34.5609,
      "duration": 0.231,
      "velocity": 119,
      "chip": "ym2612"
    },
    {
      "channel": 1,
      "note": 43,
      "start": 34.8131,
      "duration": 0.0786,
      "velocity": 99,
      "chip": "ym2612"
    },
    {
      "channel": 3,
      "note": 79,
      "start": 34.8138,
      "duration": 0.0782,
      "velocity": 119,
      "chip": "ym2612"
    },
    {
      "channel": 1,
      "note": 43,
      "start": 34.8965,
      "duration": 0.0785,
      "velocity": 99,
      "chip": "ym2612"
    },
    {
      "channel": 3,
      "note": 79,
      "start": 34.8971,
      "duration": 0.0782,
      "velocity": 119,
      "chip": "ym2612"
    },
    {
      "channel": 1,
      "note": 43,
      "start": 34.992,
      "duration": 0.0663,
      "velocity": 99,
      "chip": "ym2612"
    },
    {
      "channel": 3,
      "note": 79,
      "start": 34.9927,
      "duration": 0.066,
      "velocity": 119,
      "chip": "ym2612"
    },
    {
      "channel": 1,
      "note": 43,
      "start": 35.0754,
      "duration": 0.1163,
      "velocity": 99,
      "chip": "ym2612"
    },
    {
      "channel": 3,
      "note": 79,
      "start": 35.076,
      "duration": 0.2326,
      "velocity": 119,
      "chip": "ym2612"
    },
    {
      "channel": 1,
      "note": 67,
      "start": 35.1966,
      "duration": 0.1161,
      "velocity": 99,
      "chip": "ym2612"
    },
    {
      "channel": 1,
      "note": 43,
      "start": 35.3255,
      "duration": 0.1162,
      "velocity": 99,
      "chip": "ym2612"
    },
    {
      "channel": 3,
      "note": 79,
      "start": 35.3262,
      "duration": 0.4698,
      "velocity": 119,
      "chip": "ym2612"
    },
    {
      "channel": 1,
      "note": 67,
      "start": 35.4465,
      "duration": 0.1161,
      "velocity": 99,
      "chip": "ym2612"
    },
    {
      "channel": 1,
      "note": 43,
      "start": 35.8297,
      "duration": 0.1162,
      "velocity": 99,
      "chip": "ym2612"
    },
    {
      "channel": 3,
      "note": 79,
      "start": 35.8304,
      "duration": 0.1158,
      "velocity": 119,
      "chip": "ym2612"
    },
    {
      "channel": 1,
      "note": 43,
      "start": 35.9587,
      "duration": 0.1163,
      "velocity": 99,
      "chip": "ym2612"
    },
    {
      "channel": 3,
      "note": 79,
      "start": 35.9593,
      "duration": 0.116,
      "velocity": 119,
      "chip": "ym2612"
    },
    {
      "channel": 0,
      "note": 67,
      "start": 36.0921,
      "duration": 0.137,
      "velocity": 88,
      "chip": "ym2612"
    },
    {
      "channel": 1,
      "note": 43,
      "start": 36.0927,
      "duration": 0.0657,
      "velocity": 99,
      "chip": "ym2612"
    },
    {
      "channel": 2,
      "note": 55,
      "start": 36.0934,
      "duration": 0.136,
      "velocity": 88,
      "chip": "ym2612"
    },
    {
      "channel": 3,
      "note": 79,
      "start": 36.0939,
      "duration": 0.148,
      "velocity": 119,
      "chip": "ym2612"
    },
    {
      "channel": 1,
      "note": 58,
      "start": 36.1755,
      "duration": 0.0662,
      "velocity": 99,
      "chip": "ym2612"
    },
    {
      "channel": 1,
      "note": 43,
      "start": 36.2588,
      "duration": 0.0703,
      "velocity": 99,
      "chip": "ym2612"
    },
    {
      "channel": 3,
      "note": 79,
      "start": 36.2595,
      "duration": 0.1534,
      "velocity": 119,
      "chip": "ym2612"
    },
    {
      "channel": 1,
      "note": 58,
      "start": 36.3422,
      "duration": 0.0704,
      "velocity": 99,
      "chip": "ym2612"
    },
    {
      "channel": 0,
      "note": 67,
      "start": 36.4253,
      "duration": 0.1497,
      "velocity": 88,
      "chip": "ym2612"
    },
    {
      "channel": 1,
      "note": 43,
      "start": 36.426,
      "duration": 0.0698,
      "velocity": 99,
      "chip": "ym2612"
    },
    {
      "channel": 2,
      "note": 55,
      "start": 36.4266,
      "duration": 0.1487,
      "velocity": 88,
      "chip": "ym2612"
    },
    {
      "channel": 3,
      "note": 79,
      "start": 36.4272,
      "duration": 0.1526,
      "velocity": 119,
      "chip": "ym2612"
    },
    {
      "channel": 1,
      "note": 58,
      "start": 36.5088,
      "duration": 0.0707,
      "velocity": 99,
      "chip": "ym2612"
    },
    {
      "channel": 0,
      "note": 79,
      "start": 36.5921,
      "duration": 0.4537,
      "velocity": 88,
      "chip": "ym2612"
    },
    {
      "channel": 1,
      "note": 39,
      "start": 36.5928,
      "duration": 0.2197,
      "velocity": 99,
      "chip": "ym2612"
    },
    {
      "channel": 2,
      "note": 67,
      "start": 36.5936,
      "duration": 0.4525,
      "velocity": 88,
      "chip": "ym2612"
    },
    {
      "channel": 3,
      "note": 79,
      "start": 36.5943,
      "duration": 0.231,
      "velocity": 119,
      "chip": "ym2612"
    },
    {
      "channel": 1,
      "note": 39,
      "start": 36.8461,
      "duration": 0.0789,
      "velocity": 99,
      "chip": "ym2612"
    },
    {
      "channel": 3,
      "note": 79,
      "start": 36.8468,
      "duration": 0.0786,
      "velocity": 119,
      "chip": "ym2612"
    },
    {
      "channel": 1,
      "note": 39,
      "start": 36.9298,
      "duration": 0.0786,
      "velocity": 99,
      "chip": "ym2612"
    },
    {
      "channel": 3,
      "note": 79,
      "start": 36.9305,
      "duration": 0.0782,
      "velocity": 119,
      "chip": "ym2612"
    },
    {
      "channel": 1,
      "note": 39,
      "start": 37.0131,
      "duration": 0.0786,
      "velocity": 99,
      "chip": "ym2612"
    },
    {
      "channel": 3,
      "note": 79,
      "start": 37.0138,
      "duration": 0.0788,
      "velocity": 119,
      "chip": "ym2612"
    },
    {
      "channel": 0,
      "note": 79,
      "start": 37.1093,
      "duration": 0.9532,
      "velocity": 88,
      "chip": "ym2612"
    },
    {
      "channel": 1,
      "note": 39,
      "start": 37.1099,
      "duration": 0.1152,
      "velocity": 99,
      "chip": "ym2612"
    },
    {
      "channel": 2,
      "note": 67,
      "start": 37.1104,
      "duration": 0.9523,
      "velocity": 88,
      "chip": "ym2612"
    },
    {
      "channel": 3,
      "note": 79,
      "start": 37.111,
      "duration": 0.2309,
      "velocity": 119,
      "chip": "ym2612"
    },
    {
      "channel": 1,
      "note": 63,
      "start": 37.2298,
      "duration": 0.1161,
      "velocity": 99,
      "chip": "ym2612"
    },
    {
      "channel": 1,
      "note": 39,
      "start": 37.3588,
      "duration": 0.1162,
      "velocity": 99,
      "chip": "ym2612"
    },
    {
      "channel": 3,
      "note": 79,
      "start": 37.3595,
      "duration": 0.4698,
      "velocity": 119,
      "chip": "ym2612"
    },
    {
      "channel": 1,
      "note": 63,
      "start": 37.4799,
      "duration": 0.1118,
      "velocity": 99,
      "chip": "ym2612"
    },
    {
      "channel": 1,
      "note": 39,
      "start": 37.863,
      "duration": 0.1162,
      "velocity": 99,
      "chip": "ym2612"
    },
    {
      "channel": 3,
      "note": 79,
      "start": 37.8637,
      "duration": 0.1159,
      "velocity": 119,
      "chip": "ym2612"
    },
    {
      "channel": 1,
      "note": 39,
      "start": 37.992,
      "duration": 0.1163,
      "velocity": 99,
      "chip": "ym2612"
    },
    {
      "channel": 3,
      "note": 79,
      "start": 37.9927,
      "duration": 0.116,
      "velocity": 119,
      "chip": "ym2612"
    },
    {
      "channel": 0,
      "note": 77,
      "start": 38.1254,
      "duration": 0.1371,
      "velocity": 88,
      "chip": "ym2612"
    },
    {
      "channel": 1,
      "note": 39,
      "start": 38.126,
      "duration": 0.1366,
      "velocity": 99,
      "chip": "ym2612"
    },
    {
      "channel": 2,
      "note": 65,
      "start": 38.1268,
      "duration": 0.1361,
      "velocity": 88,
      "chip": "ym2612"
    },
    {
      "channel": 3,
      "note": 79,
      "start": 38.1273,
      "duration": 0.1478,
      "velocity": 119,
      "chip": "ym2612"
    },
    {
      "channel": 1,
      "note": 55,
      "start": 38.2922,
      "duration": 0.1495,
      "velocity": 99,
      "chip": "ym2612"
    },
    {
      "channel": 3,
      "note": 79,
      "start": 38.2928,
      "duration": 0.1533,
      "velocity": 119,
      "chip": "ym2612"
    },
    {
      "channel": 0,
      "note": 75,
      "start": 38.4588,
      "duration": 0.1495,
      "velocity": 88,
      "chip": "ym2612"
    },
    {
      "channel": 1,
      "note": 39,
      "start": 38.4595,
      "duration": 0.149,
      "velocity": 99,
      "chip": "ym2612"
    },
    {
      "channel": 2,
      "note": 63,
      "start": 38.4602,
      "duration": 0.1485,
      "velocity": 88,
      "chip": "ym2612"
    },
    {
      "channel": 3,
      "note": 79,
      "start": 38.4608,
      "duration": 0.1522,
      "velocity": 119,
      "chip": "ym2612"
    },
    {
      "channel": 0,
      "note": 77,
      "start": 38.6254,
      "duration": 1.471,
      "velocity": 88,
      "chip": "ym2612"
    },
    {
      "channel": 1,
      "note": 38,
      "start": 38.6261,
      "duration": 0.2197,
      "velocity": 99,
      "chip": "ym2612"
    },
    {
      "channel": 2,
      "note": 65,
      "start": 38.6269,
      "duration": 1.4698,
      "velocity": 88,
      "chip": "ym2612"
    },
    {
      "channel": 3,
      "note": 79,
      "start": 38.6276,
      "duration": 0.2477,
      "velocity": 119,
      "chip": "ym2612"
    },
    {
      "channel": 1,
      "note": 38,
      "start": 38.8796,
      "duration": 0.0788,
      "velocity": 99,
      "chip": "ym2612"
    },
    {
      "channel": 3,
      "note": 79,
      "start": 38.8802,
      "duration": 0.0785,
      "velocity": 119,
      "chip": "ym2612"
    },
    {
      "channel": 1,
      "note": 38,
      "start": 38.9631,
      "duration": 0.0786,
      "velocity": 99,
      "chip": "ym2612"
    },
    {
      "channel": 3,
      "note": 79,
      "start": 38.9637,
      "duration": 0.0783,
      "velocity": 119,
      "chip": "ym2612"
    },
    {
      "channel": 1,
      "note": 38,
      "start": 39.0465,
      "duration": 0.0785,
      "velocity": 99,
      "chip": "ym2612"
    },
    {
      "channel": 3,
      "note": 79,
      "start": 39.0471,
      "duration": 0.0782,
      "velocity": 119,
      "chip": "ym2612"
    },
    {
      "channel": 1,
      "note": 38,
      "start": 39.142,
      "duration": 0.1163,
      "velocity": 99,
      "chip": "ym2612"
    },
    {
      "channel": 3,
      "note": 79,
      "start": 39.1427,
      "duration": 0.2326,
      "velocity": 119,
      "chip": "ym2612"
    },
    {
      "channel": 1,
      "note": 65,
      "start": 39.2631,
      "duration": 0.1162,
      "velocity": 99,
      "chip": "ym2612"
    },
    {
      "channel": 1,
      "note": 38,
      "start": 39.3922,
      "duration": 0.1162,
      "velocity": 99,
      "chip": "ym2612"
    },
    {
      "channel": 3,
      "note": 79,
      "start": 39.3928,
      "duration": 0.2324,
      "velocity": 119,
      "chip": "ym2612"
    },
    {
      "channel": 1,
      "note": 65,
      "start": 39.5132,
      "duration": 0.1161,
      "velocity": 99,
      "chip": "ym2612"
    },
    {
      "channel": 1,
      "note": 38,
      "start": 39.6422,
      "duration": 0.1162,
      "velocity": 99,
      "chip": "ym2612"
    },
    {
      "channel": 3,
      "note": 79,
      "start": 39.6428,
      "duration": 0.1158,
      "velocity": 119,
      "chip": "ym2612"
    },
    {
      "channel": 1,
      "note": 38,
      "start": 39.7754,
      "duration": 0.1163,
      "velocity": 99,
      "chip": "ym2612"
    },
    {
      "channel": 3,
      "note": 79,
      "start": 39.776,
      "duration": 0.116,
      "velocity": 119,
      "chip": "ym2612"
    },
    {
      "channel": 1,
      "note": 38,
      "start": 39.8964,
      "duration": 0.1161,
      "velocity": 99,
      "chip": "ym2612"
    },
    {
      "channel": 3,
      "note": 79,
      "start": 39.8971,
      "duration": 0.2447,
      "velocity": 119,
      "chip": "ym2612"
    },
    {
      "channel": 0,
      "note": 74,
      "start": 40.1588,
      "duration": 0.137,
      "velocity": 88,
      "chip": "ym2612"
    },
    {
      "channel": 1,
      "note": 65,
      "start": 40.1595,
      "duration": 0.1364,
      "velocity": 99,
      "chip": "ym2612"
    },
    {
      "channel": 2,
      "note": 62,
      "start": 40.1602,
      "duration": 0.1359,
      "velocity": 88,
      "chip": "ym2612"
    },
    {
      "channel": 3,
      "note": 79,
      "start": 40.1608,
      "duration": 0.1355,
      "velocity": 119,
      "chip": "ym2612"
    },
    {
      "channel": 3,
      "note": 79,
      "start": 40.3255,
      "duration": 0.1497,
      "velocity": 119,
      "chip": "ym2612"
    },
    {
      "channel": 0,
      "note": 77,
      "start": 40.4921,
      "duration": 0.1496,
      "velocity": 88,
      "chip": "ym2612"
    },
    {
      "channel": 1,
      "note": 69,
      "start": 40.4929,
      "duration": 0.149,
      "velocity": 99,
      "chip": "ym2612"
    },
    {
      "channel": 2,
      "note": 65,
      "start": 40.4936,
      "duration": 0.1485,
      "velocity": 88,
      "chip": "ym2612"
    },
    {
      "channel": 3,
      "note": 79,
      "start": 40.4941,
      "duration": 0.1481,
      "velocity": 119,
      "chip": "ym2612"
    },
    {
      "channel": 0,
      "note": 75,
      "start": 40.6588,
      "duration": 0.4537,
      "velocity": 88,
      "chip": "ym2612"
    },
    {
      "channel": 1,
      "note": 36,
      "start": 40.6595,
      "duration": 0.2198,
      "velocity": 99,
      "chip": "ym2612"
    },
    {
      "channel": 2,
      "note": 63,
      "start": 40.6602,
      "duration": 0.4525,
      "velocity": 88,
      "chip": "ym2612"
    },
    {
      "channel": 3,
      "note": 79,
      "start": 40.6608,
      "duration": 0.2478,
      "velocity": 119,
      "chip": "ym2612"
    },
    {
      "channel": 1,
      "note": 36,
      "start": 40.9129,
      "duration": 0.1122,
      "velocity": 99,
      "chip": "ym2612"
    },
    {
      "channel": 3,
      "note": 79,
      "start": 40.9136,
      "duration": 0.1159,
      "velocity": 119,
      "chip": "ym2612"
    },
    {
      "channel": 1,
      "note": 36,
      "start": 41.042,
      "duration": 0.1163,
      "velocity": 99,
      "chip": "ym2612"
    },
    {
      "channel": 3,
      "note": 79,
      "start": 41.0427,
      "duration": 0.116,
      "velocity": 119,
      "chip": "ym2612"
    },
    {
      "channel": 0,
      "note": 74,
      "start": 41.1754,
      "duration": 0.4495,
      "velocity": 88,
      "chip": "ym2612"
    },
    {
      "channel": 1,
      "note": 36,
      "start": 41.176,
      "duration": 0.1157,
      "velocity": 99,
      "chip": "ym2612"
    },
    {
      "channel": 2,
      "note": 62,
      "start": 41.1767,
      "duration": 0.4485,
      "velocity": 88,
      "chip": "ym2612"
    },
    {
      "channel": 3,
      "note": 79,
      "start": 41.1773,
      "duration": 0.2314,
      "velocity": 119,
      "chip": "ym2612"
    },
    {
      "channel": 1,
      "note": 55,
      "start": 41.2964,
      "duration": 0.112,
      "velocity": 99,
      "chip": "ym2612"
    },
    {
      "channel": 1,
      "note": 36,
      "start": 41.4255,
      "duration": 0.0703,
      "velocity": 99,
      "chip": "ym2612"
    },
    {
      "channel": 3,
      "note": 79,
      "start": 41.4262,
      "duration": 0.0699,
      "velocity": 119,
      "chip": "ym2612"
    },
    {
      "channel": 1,
      "note": 36,
      "start": 41.5087,
      "duration": 0.0705,
      "velocity": 99,
      "chip": "ym2612"
    },
    {
      "channel": 3,
      "note": 79,
      "start": 41.5093,
      "duration": 0.0701,
      "velocity": 119,
      "chip": "ym2612"
    },
    {
      "channel": 1,
      "note": 36,
      "start": 41.592,
      "duration": 0.0705,
      "velocity": 99,
      "chip": "ym2612"
    },
    {
      "channel": 3,
      "note": 79,
      "start": 41.5927,
      "duration": 0.0701,
      "velocity": 119,
      "chip": "ym2612"
    },
    {
      "channel": 0,
      "note": 72,
      "start": 41.6754,
      "duration": 0.4537,
      "velocity": 88,
      "chip": "ym2612"
    },
    {
      "channel": 1,
      "note": 41,
      "start": 41.6761,
      "duration": 0.1156,
      "velocity": 99,
      "chip": "ym2612"
    },
    {
      "channel": 2,
      "note": 60,
      "start": 41.6768,
      "duration": 0.4525,
      "velocity": 88,
      "chip": "ym2612"
    },
    {
      "channel": 3,
      "note": 79,
      "start": 41.6775,
      "duration": 0.1644,
      "velocity": 119,
      "chip": "ym2612"
    },
    {
      "channel": 1,
      "note": 57,
      "start": 41.8088,
      "duration": 0.1162,
      "velocity": 99,
      "chip": "ym2612"
    },
    {
      "channel": 3,
      "note": 79,
      "start": 41.8464,
      "duration": 0.1623,
      "velocity": 119,
      "chip": "ym2612"
    },
    {
      "channel": 1,
      "note": 41,
      "start": 41.9298,
      "duration": 0.0785,
      "velocity": 99,
      "chip": "ym2612"
    },
    {
      "channel": 1,
      "note": 60,
      "start": 42.0133,
      "duration": 0.0784,
      "velocity": 99,
      "chip": "ym2612"
    },
    {
      "channel": 3,
      "note": 79,
      "start": 42.0139,
      "duration": 0.1614,
      "velocity": 119,
      "chip": "ym2612"
    },
    {
      "channel": 1,
      "note": 65,
      "start": 42.0966,
      "duration": 0.0785,
      "velocity": 99,
      "chip": "ym2612"
    },
    {
      "channel": 0,
      "note": 77,
      "start": 42.1922,
      "duration": 0.1495,
      "velocity": 88,
      "chip": "ym2612"
    },
    {
      "channel": 1,
      "note": 41,
      "start": 42.1929,
      "duration": 0.1363,
      "velocity": 99,
      "chip": "ym2612"
    },
    {
      "channel": 2,
      "note": 65,
      "start": 42.1936,
      "duration": 0.1484,
      "velocity": 88,
      "chip": "ym2612"
    },
    {
      "channel": 3,
      "note": 79,
      "start": 42.1941,
      "duration": 0.148,
      "velocity": 119,
      "chip": "ym2612"
    },
    {
      "channel": 1,
      "note": 57,
      "start": 42.3588,
      "duration": 0.1495,
      "velocity": 99,
      "chip": "ym2612"
    },
    {
      "channel": 3,
      "note": 79,
      "start": 42.3595,
      "duration": 0.1534,
      "velocity": 119,
      "chip": "ym2612"
    },
    {
      "channel": 0,
      "note": 75,
      "start": 42.5254,
      "duration": 0.1495,
      "velocity": 88,
      "chip": "ym2612"
    },
    {
      "channel": 1,
      "note": 41,
      "start": 42.5261,
      "duration": 0.149,
      "velocity": 99,
      "chip": "ym2612"
    },
    {
      "channel": 2,
      "note": 63,
      "start": 42.5269,
      "duration": 0.1485,
      "velocity": 88,
      "chip": "ym2612"
    },
    {
      "channel": 3,
      "note": 79,
      "start": 42.5275,
      "duration": 0.1522,
      "velocity": 119,
      "chip": "ym2612"
    },
    {
      "channel": 0,
      "note": 74,
      "start": 42.6921,
      "duration": 0.4537,
      "velocity": 88,
      "chip": "ym2612"
    },
    {
      "channel": 1,
      "note": 42,
      "start": 42.6928,
      "duration": 0.2198,
      "velocity": 99,
      "chip": "ym2612"
    },
    {
      "channel": 2,
      "note": 62,
      "start": 42.6936,
      "duration": 0.4525,
      "velocity": 88,
      "chip": "ym2612"
    },
    {
      "channel": 3,
      "note": 79,
      "start": 42.6941,
      "duration": 0.2478,
      "velocity": 119,
      "chip": "ym2612"
    },
    {
      "channel": 1,
      "note": 42,
      "start": 42.9462,
      "duration": 0.0788,
      "velocity": 99,
      "chip": "ym2612"
    },
    {
      "channel": 3,
      "note": 79,
      "start": 42.9469,
      "duration": 0.0784,
      "velocity": 119,
      "chip": "ym2612"
    },
    {
      "channel": 1,
      "note": 42,
      "start": 43.0298,
      "duration": 0.0786,
      "velocity": 99,
      "chip": "ym2612"
    },
    {
      "channel": 3,
      "note": 79,
      "start": 43.0304,
      "duration": 0.0782,
      "velocity": 119,
      "chip": "ym2612"
    },
    {
      "channel": 1,
      "note": 42,
      "start": 43.1131,
      "duration": 0.0786,
      "velocity": 99,
      "chip": "ym2612"
    },
    {
      "channel": 3,
      "note": 79,
      "start": 43.1138,
      "duration": 0.0782,
      "velocity": 119,
      "chip": "ym2612"
    },
    {
      "channel": 0,
      "note": 72,
      "start": 43.1966,
      "duration": 0.1493,
      "velocity": 88,
      "chip": "ym2612"
    },
    {
      "channel": 1,
      "note": 42,
      "start": 43.1971,
      "duration": 0.1154,
      "velocity": 99,
      "chip": "ym2612"
    },
    {
      "channel": 2,
      "note": 60,
      "start": 43.1978,
      "duration": 0.1482,
      "velocity": 88,
      "chip": "ym2612"
    },
    {
      "channel": 3,
      "note": 79,
      "start": 43.1984,
      "duration": 0.2436,
      "velocity": 119,
      "chip": "ym2612"
    },
    {
      "channel": 1,
      "note": 57,
      "start": 43.3255,
      "duration": 0.1162,
      "velocity": 99,
      "chip": "ym2612"
    },
    {
      "channel": 1,
      "note": 42,
      "start": 43.4588,
      "duration": 0.1162,
      "velocity": 99,
      "chip": "ym2612"
    },
    {
      "channel": 3,
      "note": 79,
      "start": 43.4595,
      "duration": 0.4699,
      "velocity": 119,
      "chip": "ym2612"
    },
    {
      "channel": 0,
      "note": 74,
      "start": 43.5421,
      "duration": 0.1495,
      "velocity": 88,
      "chip": "ym2612"
    },
    {
      "channel": 2,
      "note": 62,
      "start": 43.5429,
      "duration": 0.149,
      "velocity": 88,
      "chip": "ym2612"
    },
    {
      "channel": 1,
      "note": 57,
      "start": 43.5798,
      "duration": 0.1163,
      "velocity": 99,
      "chip": "ym2612"
    },
    {
      "channel": 0,
      "note": 70,
      "start": 43.7088,
      "duration": 0.4537,
      "velocity": 88,
      "chip": "ym2612"
    },
    {
      "channel": 1,
      "note": 58,
      "start": 43.7095,
      "duration": 0.1156,
      "velocity": 99,
      "chip": "ym2612"
    },
    {
      "channel": 2,
      "note": 58,
      "start": 43.7102,
      "duration": 0.4525,
      "velocity": 88,
      "chip": "ym2612"
    },
    {
      "channel": 1,
      "note": 55,
      "start": 43.8422,
      "duration": 0.1162,
      "velocity": 99,
      "chip": "ym2612"
    },
    {
      "channel": 1,
      "note": 43,
      "start": 43.9632,
      "duration": 0.1161,
      "velocity": 99,
      "chip": "ym2612"
    },
    {
      "channel": 3,
      "note": 79,
      "start": 43.9638,
      "duration": 0.1157,
      "velocity": 119,
      "chip": "ym2612"
    },
    {
      "channel": 1,
      "note": 43,
      "start": 44.092,
      "duration": 0.1163,
      "velocity": 99,
      "chip": "ym2612"
    },
    {
      "channel": 3,
      "note": 79,
      "start": 44.0927,
      "duration": 0.116,
      "velocity": 119,
      "chip": "ym2612"
    },
    {
      "channel": 0,
      "note": 67,
      "start": 44.2132,
      "duration": 0.1493,
      "velocity": 88,
      "chip": "ym2612"
    },
    {
      "channel": 1,
      "note": 41,
      "start": 44.2139,
      "duration": 0.0779,
      "velocity": 99,
      "chip": "ym2612"
    },
    {
      "channel": 2,
      "note": 55,
      "start": 44.2146,
      "duration": 0.1481,
      "velocity": 88,
      "chip": "ym2612"
    },
    {
      "channel": 3,
      "note": 79,
      "start": 44.2152,
      "duration": 0.1601,
      "velocity": 119,
      "chip": "ym2612"
    },
    {
      "channel": 1,
      "note": 58,
      "start": 44.3088,
      "duration": 0.0662,
      "velocity": 99,
      "chip": "ym2612"
    },
    {
      "channel": 1,
      "note": 41,
      "start": 44.3922,
      "duration": 0.0662,
      "velocity": 99,
      "chip": "ym2612"
    },
    {
      "channel": 3,
      "note": 79,
      "start": 44.3928,
      "duration": 0.1533,
      "velocity": 119,
      "chip": "ym2612"
    },
    {
      "channel": 1,
      "note": 55,
      "start": 44.4755,
      "duration": 0.0703,
      "velocity": 99,
      "chip": "ym2612"
    },
    {
      "channel": 0,
      "note": 67,
      "start": 44.5586,
      "duration": 0.1497,
      "velocity": 88,
      "chip": "ym2612"
    },
    {
      "channel": 1,
      "note": 41,
      "start": 44.5593,
      "duration": 0.0698,
      "velocity": 99,
      "chip": "ym2612"
    },
    {
      "channel": 2,
      "note": 55,
      "start": 44.5599,
      "duration": 0.1487,
      "velocity": 88,
      "chip": "ym2612"
    },
    {
      "channel": 3,
      "note": 79,
      "start": 44.5605,
      "duration": 0.1526,
      "velocity": 119,
      "chip": "ym2612"
    },
    {
      "channel": 1,
      "note": 58,
      "start": 44.6422,
      "duration": 0.0707,
      "velocity": 99,
      "chip": "ym2612"
    },
    {
      "channel": 0,
      "note": 79,
      "start": 44.7254,
      "duration": 0.687,
      "velocity": 88,
      "chip": "ym2612"
    },
    {
      "channel": 1,
      "note": 40,
      "start": 44.7261,
      "duration": 0.2198,
      "velocity": 99,
      "chip": "ym2612"
    },
    {
      "channel": 2,
      "note": 67,
      "start": 44.7269,
      "duration": 0.6858,
      "velocity": 88,
      "chip": "ym2612"
    },
    {
      "channel": 3,
      "note": 79,
      "start": 44.7275,
      "duration": 0.2478,
      "velocity": 119,
      "chip": "ym2612"
    },
    {
      "channel": 1,
      "note": 40,
      "start": 44.9796,
      "duration": 0.0788,
      "velocity": 99,
      "chip": "ym2612"
    },
    {
      "channel": 3,
      "note": 79,
      "start": 44.9803,
      "duration": 0.0784,
      "velocity": 119,
      "chip": "ym2612"
    },
    {
      "channel": 1,
      "note": 40,
      "start": 45.0631,
      "duration": 0.0786,
      "velocity": 99,
      "chip": "ym2612"
    },
    {
      "channel": 3,
      "note": 79,
      "start": 45.0638,
      "duration": 0.0782,
      "velocity": 119,
      "chip": "ym2612"
    },
    {
      "channel": 1,
      "note": 40,
      "start": 45.1464,
      "duration": 0.0786,
      "velocity": 99,
      "chip": "ym2612"
    },
    {
      "channel": 3,
      "note": 79,
      "start": 45.1471,
      "duration": 0.0783,
      "velocity": 119,
      "chip": "ym2612"
    },
    {
      "channel": 1,
      "note": 40,
      "start": 45.2298,
      "duration": 0.116,
      "velocity": 99,
      "chip": "ym2612"
    },
    {
      "channel": 3,
      "note": 79,
      "start": 45.2305,
      "duration": 0.2448,
      "velocity": 119,
      "chip": "ym2612"
    },
    {
      "channel": 1,
      "note": 64,
      "start": 45.3588,
      "duration": 0.1162,
      "velocity": 99,
      "chip": "ym2612"
    },
    {
      "channel": 0,
      "note": 78,
      "start": 45.4921,
      "duration": 0.2162,
      "velocity": 88,
      "chip": "ym2612"
    },
    {
      "channel": 1,
      "note": 40,
      "start": 45.4928,
      "duration": 0.1155,
      "velocity": 99,
      "chip": "ym2612"
    },
    {
      "channel": 2,
      "note": 66,
      "start": 45.4936,
      "duration": 0.215,
      "velocity": 88,
      "chip": "ym2612"
    },
    {
      "channel": 3,
      "note": 79,
      "start": 45.4941,
      "duration": 0.2353,
      "velocity": 119,
      "chip": "ym2612"
    },
    {
      "channel": 1,
      "note": 62,
      "start": 45.6137,
      "duration": 0.1114,
      "velocity": 99,
      "chip": "ym2612"
    },
    {
      "channel": 0,
      "note": 76,
      "start": 45.7421,
      "duration": 0.4537,
      "velocity": 88,
      "chip": "ym2612"
    },
    {
      "channel": 2,
      "note": 64,
      "start": 45.7429,
      "duration": 0.4531,
      "velocity": 88,
      "chip": "ym2612"
    },
    {
      "channel": 3,
      "note": 79,
      "start": 45.7435,
      "duration": 0.2484,
      "velocity": 119,
      "chip": "ym2612"
    },
    {
      "channel": 1,
      "note": 45,
      "start": 45.7588,
      "duration": 0.2037,
      "velocity": 99,
      "chip": "ym2612"
    },
    {
      "channel": 1,
      "note": 45,
      "start": 45.9962,
      "duration": 0.0788,
      "velocity": 99,
      "chip": "ym2612"
    },
    {
      "channel": 3,
      "note": 79,
      "start": 45.9969,
      "duration": 0.0784,
      "velocity": 119,
      "chip": "ym2612"
    },
    {
      "channel": 1,
      "note": 45,
      "start": 46.0798,
      "duration": 0.0786,
      "velocity": 99,
      "chip": "ym2612"
    },
    {
      "channel": 3,
      "note": 79,
      "start": 46.0805,
      "duration": 0.0782,
      "velocity": 119,
      "chip": "ym2612"
    },
    {
      "channel": 1,
      "note": 45,
      "start": 46.1631,
      "duration": 0.0786,
      "velocity": 99,
      "chip": "ym2612"
    },
    {
      "channel": 3,
      "note": 79,
      "start": 46.1638,
      "duration": 0.0782,
      "velocity": 119,
      "chip": "ym2612"
    },
    {
      "channel": 0,
      "note": 76,
      "start": 46.2464,
      "duration": 0.1494,
      "velocity": 88,
      "chip": "ym2612"
    },
    {
      "channel": 1,
      "note": 45,
      "start": 46.2469,
      "duration": 0.149,
      "velocity": 99,
      "chip": "ym2612"
    },
    {
      "channel": 2,
      "note": 64,
      "start": 46.2475,
      "duration": 0.1487,
      "velocity": 88,
      "chip": "ym2612"
    },
    {
      "channel": 3,
      "note": 79,
      "start": 46.2481,
      "duration": 0.1604,
      "velocity": 119,
      "chip": "ym2612"
    },
    {
      "channel": 0,
      "note": 78,
      "start": 46.4254,
      "duration": 0.1495,
      "velocity": 88,
      "chip": "ym2612"
    },
    {
      "channel": 1,
      "note": 45,
      "start": 46.426,
      "duration": 0.1492,
      "velocity": 99,
      "chip": "ym2612"
    },
    {
      "channel": 2,
      "note": 66,
      "start": 46.4267,
      "duration": 0.1487,
      "velocity": 88,
      "chip": "ym2612"
    },
    {
      "channel": 3,
      "note": 79,
      "start": 46.4273,
      "duration": 0.1524,
      "velocity": 119,
      "chip": "ym2612"
    },
    {
      "channel": 0,
      "note": 79,
      "start": 46.5921,
      "duration": 0.1495,
      "velocity": 88,
      "chip": "ym2612"
    },
    {
      "channel": 1,
      "note": 45,
      "start": 46.5927,
      "duration": 0.1492,
      "velocity": 99,
      "chip": "ym2612"
    },
    {
      "channel": 2,
      "note": 67,
      "start": 46.5934,
      "duration": 0.1487,
      "velocity": 88,
      "chip": "ym2612"
    },
    {
      "channel": 3,
      "note": 79,
      "start": 46.5939,
      "duration": 0.1525,
      "velocity": 119,
      "chip": "ym2612"
    },
    {
      "channel": 0,
      "note": 81,
      "start": 46.7588,
      "duration": 1.9829,
      "velocity": 88,
      "chip": "ym2612"
    },
    {
      "channel": 1,
      "note": 38,
      "start": 46.7595,
      "duration": 0.103,
      "velocity": 99,
      "chip": "ym2612"
    },
    {
      "channel": 2,
      "note": 69,
      "start": 46.7602,
      "duration": 1.9817,
      "velocity": 88,
      "chip": "ym2612"
    },
    {
      "channel": 3,
      "note": 79,
      "start": 46.7609,
      "duration": 0.1143,
      "velocity": 119,
      "chip": "ym2612"
    },
    {
      "channel": 1,
      "note": 38,
      "start": 46.892,
      "duration": 0.1163,
      "velocity": 99,
      "chip": "ym2612"
    },
    {
      "channel": 3,
      "note": 79,
      "start": 46.8927,
      "duration": 0.116,
      "velocity": 119,
      "chip": "ym2612"
    },
    {
      "channel": 1,
      "note": 38,
      "start": 47.0131,
      "duration": 0.1161,
      "velocity": 99,
      "chip": "ym2612"
    },
    {
      "channel": 3,
      "note": 79,
      "start": 47.0137,
      "duration": 0.4782,
      "velocity": 119,
      "chip": "ym2612"
    },
    {
      "channel": 1,
      "note": 62,
      "start": 47.1422,
      "duration": 0.1162,
      "velocity": 99,
      "chip": "ym2612"
    },
    {
      "channel": 1,
      "note": 57,
      "start": 47.2632,
      "duration": 0.116,
      "velocity": 99,
      "chip": "ym2612"
    },
    {
      "channel": 1,
      "note": 62,
      "start": 47.3922,
      "duration": 0.1162,
      "velocity": 99,
      "chip": "ym2612"
    },
    {
      "channel": 1,
      "note": 38,
      "start": 47.5255,
      "duration": 0.1162,
      "velocity": 99,
      "chip": "ym2612"
    },
    {
      "channel": 3,
      "note": 79,
      "start": 47.5262,
      "duration": 0.1158,
      "velocity": 119,
      "chip": "ym2612"
    },
    {
      "channel": 1,
      "note": 38,
      "start": 47.6465,
      "duration": 0.116,
      "velocity": 99,
      "chip": "ym2612"
    },
    {
      "channel": 3,
      "note": 79,
      "start": 47.6471,
      "duration": 0.1156,
      "velocity": 119,
      "chip": "ym2612"
    },
    {
      "channel": 1,
      "note": 38,
      "start": 47.7754,
      "duration": 0.1163,
      "velocity": 99,
      "chip": "ym2612"
    },
    {
      "channel": 3,
      "note": 79,
      "start": 47.776,
      "duration": 0.116,
      "velocity": 119,
      "chip": "ym2612"
    },
    {
      "channel": 1,
      "note": 38,
      "start": 47.9087,
      "duration": 0.1163,
      "velocity": 99,
      "chip": "ym2612"
    },
    {
      "channel": 3,
      "note": 79,
      "start": 47.9093,
      "duration": 0.116,
      "velocity": 119,
      "chip": "ym2612"
    },
    {
      "channel": 1,
      "note": 38,
      "start": 48.0298,
      "duration": 0.1161,
      "velocity": 99,
      "chip": "ym2612"
    },
    {
      "channel": 3,
      "note": 79,
      "start": 48.0305,
      "duration": 0.1157,
      "velocity": 119,
      "chip": "ym2612"
    },
    {
      "channel": 1,
      "note": 38,
      "start": 48.1587,
      "duration": 0.1163,
      "velocity": 99,
      "chip": "ym2612"
    },
    {
      "channel": 3,
      "note": 79,
      "start": 48.1593,
      "duration": 0.116,
      "velocity": 119,
      "chip": "ym2612"
    },
    {
      "channel": 1,
      "note": 38,
      "start": 48.2797,
      "duration": 0.062,
      "velocity": 99,
      "chip": "ym2612"
    },
    {
      "channel": 3,
      "note": 79,
      "start": 48.2804,
      "duration": 0.0665,
      "velocity": 119,
      "chip": "ym2612"
    },
    {
      "channel": 1,
      "note": 55,
      "start": 48.3464,
      "duration": 0.0495,
      "velocity": 99,
      "chip": "ym2612"
    },
    {
      "channel": 3,
      "note": 79,
      "start": 48.3471,
      "duration": 0.0622,
      "velocity": 119,
      "chip": "ym2612"
    },
    {
      "channel": 1,
      "note": 38,
      "start": 48.4088,
      "duration": 0.0539,
      "velocity": 99,
      "chip": "ym2612"
    },
    {
      "channel": 3,
      "note": 79,
      "start": 48.4095,
      "duration": 0.1158,
      "velocity": 119,
      "chip": "ym2612"
    },
    {
      "channel": 1,
      "note": 60,
      "start": 48.4755,
      "duration": 0.0495,
      "velocity": 99,
      "chip": "ym2612"
    },
    {
      "channel": 1,
      "note": 38,
      "start": 48.5422,
      "duration": 0.0495,
      "velocity": 99,
      "chip": "ym2612"
    },
    {
      "channel": 3,
      "note": 79,
      "start": 48.5428,
      "duration": 0.1159,
      "velocity": 119,
      "chip": "ym2612"
    },
    {
      "channel": 1,
      "note": 57,
      "start": 48.5964,
      "duration": 0.062,
      "velocity": 99,
      "chip": "ym2612"
    },
    {
      "channel": 1,
      "note": 38,
      "start": 48.6632,
      "duration": 0.0494,
      "velocity": 99,
      "chip": "ym2612"
    },
    {
      "channel": 3,
      "note": 79,
      "start": 48.6639,
      "duration": 0.1156,
      "velocity": 119,
      "chip": "ym2612"
    },
    {
      "channel": 1,
      "note": 55,
      "start": 48.7255,
      "duration": 0.0537,
      "velocity": 99,
      "chip": "ym2612"
    },
    {
      "channel": 0,
      "note": 70,
      "start": 48.7954,
      "duration": 0.113,
      "velocity": 101,
      "chip": "ym2612"
    },
    {
      "channel": 1,
      "note": 39,
      "start": 48.7961,
      "duration": 0.0969,
      "velocity": 99,
      "chip": "ym2612"
    },
    {
      "channel": 2,
      "note": 58,
      "start": 48.8001,
      "duration": 0.109,
      "velocity": 101,
      "chip": "ym2612"
    },
    {
      "channel": 3,
      "note": 79,
      "start": 48.8007,
      "duration": 0.1085,
      "velocity": 119,
      "chip": "ym2612"
    },
    {
      "channel": 1,
      "note": 39,
      "start": 48.9088,
      "duration": 0.1331,
      "velocity": 99,
      "chip": "ym2612"
    },
    {
      "channel": 0,
      "note": 74,
      "start": 48.9254,
      "duration": 0.1162,
      "velocity": 101,
      "chip": "ym2612"
    },
    {
      "channel": 2,
      "note": 62,
      "start": 48.9263,
      "duration": 0.1158,
      "velocity": 101,
      "chip": "ym2612"
    },
    {
      "channel": 3,
      "note": 79,
      "start": 48.9268,
      "duration": 0.1154,
      "velocity": 119,
      "chip": "ym2612"
    },
    {
      "channel": 1,
      "note": 39,
      "start": 49.0436,
      "duration": 0.1159,
      "velocity": 99,
      "chip": "ym2612"
    },
    {
      "channel": 3,
      "note": 79,
      "start": 49.0443,
      "duration": 0.4809,
      "velocity": 119,
      "chip": "ym2612"
    },
    {
      "channel": 0,
      "note": 74,
      "start": 49.1753,
      "duration": 0.1163,
      "velocity": 101,
      "chip": "ym2612"
    },
    {
      "channel": 1,
      "note": 63,
      "start": 49.176,
      "duration": 0.1002,
      "velocity": 99,
      "chip": "ym2612"
    },
    {
      "channel": 2,
      "note": 62,
      "start": 49.1766,
      "duration": 0.1154,
      "velocity": 101,
      "chip": "ym2612"
    },
    {
      "channel": 1,
      "note": 58,
      "start": 49.2936,
      "duration": 0.1159,
      "velocity": 99,
      "chip": "ym2612"
    },
    {
      "channel": 0,
      "note": 81,
      "start": 49.4254,
      "duration": 0.1162,
      "velocity": 101,
      "chip": "ym2612"
    },
    {
      "channel": 1,
      "note": 63,
      "start": 49.4262,
      "duration": 0.1001,
      "velocity": 99,
      "chip": "ym2612"
    },
    {
      "channel": 2,
      "note": 69,
      "start": 49.4269,
      "duration": 0.115,
      "velocity": 101,
      "chip": "ym2612"
    },
    {
      "channel": 1,
      "note": 39,
      "start": 49.5588,
      "duration": 0.1162,
      "velocity": 99,
      "chip": "ym2612"
    },
    {
      "channel": 3,
      "note": 79,
      "start": 49.5595,
      "duration": 0.1158,
      "velocity": 119,
      "chip": "ym2612"
    },
    {
      "channel": 0,
      "note": 82,
      "start": 49.6769,
      "duration": 0.116,
      "velocity": 101,
      "chip": "ym2612"
    },
    {
      "channel": 1,
      "note": 39,
      "start": 49.6775,
      "duration": 0.1142,
      "velocity": 99,
      "chip": "ym2612"
    },
    {
      "channel": 2,
      "note": 70,
      "start": 49.6782,
      "duration": 0.115,
      "velocity": 101,
      "chip": "ym2612"
    },
    {
      "channel": 3,
      "note": 79,
      "start": 49.6788,
      "duration": 0.1146,
      "velocity": 119,
      "chip": "ym2612"
    },
    {
      "channel": 1,
      "note": 39,
      "start": 49.8087,
      "duration": 0.1163,
      "velocity": 99,
      "chip": "ym2612"
    },
    {
      "channel": 3,
      "note": 79,
      "start": 49.8093,
      "duration": 0.116,
      "velocity": 119,
      "chip": "ym2612"
    },
    {
      "channel": 0,
      "note": 82,
      "start": 49.942,
      "duration": 0.1163,
      "velocity": 101,
      "chip": "ym2612"
    },
    {
      "channel": 1,
      "note": 39,
      "start": 49.9426,
      "duration": 0.116,
      "velocity": 99,
      "chip": "ym2612"
    },
    {
      "channel": 2,
      "note": 70,
      "start": 49.9431,
      "duration": 0.1156,
      "velocity": 101,
      "chip": "ym2612"
    },
    {
      "channel": 3,
      "note": 79,
      "start": 49.9437,
      "duration": 0.1152,
      "velocity": 119,
      "chip": "ym2612"
    },
    {
      "channel": 1,
      "note": 39,
      "start": 50.0603,
      "duration": 0.1159,
      "velocity": 99,
      "chip": "ym2612"
    },
    {
      "channel": 3,
      "note": 79,
      "start": 50.061,
      "duration": 0.1155,
      "velocity": 119,
      "chip": "ym2612"
    },
    {
      "channel": 0,
      "note": 86,
      "start": 50.1927,
      "duration": 0.1989,
      "velocity": 101,
      "chip": "ym2612"
    },
    {
      "channel": 1,
      "note": 39,
      "start": 50.1932,
      "duration": 0.0997,
      "velocity": 99,
      "chip": "ym2612"
    },
    {
      "channel": 2,
      "note": 74,
      "start": 50.1946,
      "duration": 0.1975,
      "velocity": 101,
      "chip": "ym2612"
    },
    {
      "channel": 3,
      "note": 79,
      "start": 50.1952,
      "duration": 0.1134,
      "velocity": 119,
      "chip": "ym2612"
    },
    {
      "channel": 1,
      "note": 39,
      "start": 50.31,
      "duration": 0.0819,
      "velocity": 99,
      "chip": "ym2612"
    },
    {
      "channel": 3,
      "note": 79,
      "start": 50.3106,
      "duration": 0.0659,
      "velocity": 119,
      "chip": "ym2612"
    },
    {
      "channel": 3,
      "note": 79,
      "start": 50.3767,
      "duration": 0.0653,
      "velocity": 119,
      "chip": "ym2612"
    },
    {
      "channel": 0,
      "note": 84,
      "start": 50.3936,
      "duration": 0.0814,
      "velocity": 101,
      "chip": "ym2612"
    },
    {
      "channel": 1,
      "note": 39,
      "start": 50.3941,
      "duration": 0.081,
      "velocity": 99,
      "chip": "ym2612"
    },
    {
      "channel": 2,
      "note": 72,
      "start": 50.3949,
      "duration": 0.0805,
      "velocity": 101,
      "chip": "ym2612"
    },
    {
      "channel": 3,
      "note": 79,
      "start": 50.4422,
      "duration": 0.1167,
      "velocity": 119,
      "chip": "ym2612"
    },
    {
      "channel": 0,
      "note": 82,
      "start": 50.4921,
      "duration": 0.0662,
      "velocity": 101,
      "chip": "ym2612"
    },
    {
      "channel": 1,
      "note": 55,
      "start": 50.4928,
      "duration": 0.0657,
      "velocity": 99,
      "chip": "ym2612"
    },
    {
      "channel": 2,
      "note": 70,
      "start": 50.4936,
      "duration": 0.0651,
      "velocity": 101,
      "chip": "ym2612"
    },
    {
      "channel": 0,
      "note": 81,
      "start": 50.5754,
      "duration": 0.0662,
      "velocity": 101,
      "chip": "ym2612"
    },
    {
      "channel": 1,
      "note": 55,
      "start": 50.576,
      "duration": 0.0659,
      "velocity": 99,
      "chip": "ym2612"
    },
    {
      "channel": 2,
      "note": 69,
      "start": 50.5767,
      "duration": 0.0653,
      "velocity": 101,
      "chip": "ym2612"
    },
    {
      "channel": 3,
      "note": 79,
      "start": 50.5773,
      "duration": 0.1146,
      "velocity": 119,
      "chip": "ym2612"
    },
    {
      "channel": 0,
      "note": 79,
      "start": 50.6588,
      "duration": 0.0674,
      "velocity": 101,
      "chip": "ym2612"
    },
    {
      "channel": 1,
      "note": 39,
      "start": 50.6595,
      "duration": 0.0668,
      "velocity": 99,
      "chip": "ym2612"
    },
    {
      "channel": 2,
      "note": 67,
      "start": 50.6602,
      "duration": 0.0663,
      "velocity": 101,
      "chip": "ym2612"
    },
    {
      "channel": 3,
      "note": 79,
      "start": 50.6935,
      "duration": 0.1165,
      "velocity": 119,
      "chip": "ym2612"
    },
    {
      "channel": 0,
      "note": 75,
      "start": 50.7421,
      "duration": 0.0674,
      "velocity": 101,
      "chip": "ym2612"
    },
    {
      "channel": 1,
      "note": 39,
      "start": 50.7427,
      "duration": 0.067,
      "velocity": 99,
      "chip": "ym2612"
    },
    {
      "channel": 2,
      "note": 63,
      "start": 50.7434,
      "duration": 0.0665,
      "velocity": 101,
      "chip": "ym2612"
    },
    {
      "channel": 0,
      "note": 82,
      "start": 50.826,
      "duration": 0.1156,
      "velocity": 101,
      "chip": "ym2612"
    },
    {
      "channel": 1,
      "note": 38,
      "start": 50.8267,
      "duration": 0.1151,
      "velocity": 99,
      "chip": "ym2612"
    },
    {
      "channel": 2,
      "note": 70,
      "start": 50.828,
      "duration": 0.114,
      "velocity": 101,
      "chip": "ym2612"
    },
    {
      "channel": 3,
      "note": 79,
      "start": 50.8288,
      "duration": 0.1134,
      "velocity": 119,
      "chip": "ym2612"
    },
    {
      "channel": 0,
      "note": 81,
      "start": 50.9588,
      "duration": 0.1162,
      "velocity": 101,
      "chip": "ym2612"
    },
    {
      "channel": 1,
      "note": 38,
      "start": 50.9593,
      "duration": 0.1159,
      "velocity": 99,
      "chip": "ym2612"
    },
    {
      "channel": 2,
      "note": 69,
      "start": 50.96,
      "duration": 0.1153,
      "velocity": 101,
      "chip": "ym2612"
    },
    {
      "channel": 3,
      "note": 79,
      "start": 50.9606,
      "duration": 0.115,
      "velocity": 119,
      "chip": "ym2612"
    },
    {
      "channel": 0,
      "note": 79,
      "start": 51.0771,
      "duration": 0.1158,
      "velocity": 101,
      "chip": "ym2612"
    },
    {
      "channel": 1,
      "note": 38,
      "start": 51.0777,
      "duration": 0.1153,
      "velocity": 99,
      "chip": "ym2612"
    },
    {
      "channel": 2,
      "note": 67,
      "start": 51.0784,
      "duration": 0.1148,
      "velocity": 101,
      "chip": "ym2612"
    },
    {
      "channel": 3,
      "note": 79,
      "start": 51.0789,
      "duration": 0.4797,
      "velocity": 119,
      "chip": "ym2612"
    },
    {
      "channel": 0,
      "note": 77,
      "start": 51.2088,
      "duration": 0.1162,
      "velocity": 101,
      "chip": "ym2612"
    },
    {
      "channel": 1,
      "note": 57,
      "start": 51.2095,
      "duration": 0.1157,
      "velocity": 99,
      "chip": "ym2612"
    },
    {
      "channel": 2,
      "note": 65,
      "start": 51.2102,
      "duration": 0.1151,
      "velocity": 101,
      "chip": "ym2612"
    },
    {
      "channel": 0,
      "note": 75,
      "start": 51.327,
      "duration": 0.1159,
      "velocity": 101,
      "chip": "ym2612"
    },
    {
      "channel": 1,
      "note": 58,
      "start": 51.3277,
      "duration": 0.1153,
      "velocity": 99,
      "chip": "ym2612"
    },
    {
      "channel": 2,
      "note": 63,
      "start": 51.3284,
      "duration": 0.1148,
      "velocity": 101,
      "chip": "ym2612"
    },
    {
      "channel": 0,
      "note": 74,
      "start": 51.4588,
      "duration": 0.1162,
      "velocity": 101,
      "chip": "ym2612"
    },
    {
      "channel": 1,
      "note": 57,
      "start": 51.4595,
      "duration": 0.1157,
      "velocity": 99,
      "chip": "ym2612"
    },
    {
      "channel": 2,
      "note": 62,
      "start": 51.4602,
      "duration": 0.1152,
      "velocity": 101,
      "chip": "ym2612"
    },
    {
      "channel": 0,
      "note": 72,
      "start": 51.5921,
      "duration": 0.1162,
      "velocity": 101,
      "chip": "ym2612"
    },
    {
      "channel": 1,
      "note": 38,
      "start": 51.5928,
      "duration": 0.1157,
      "velocity": 99,
      "chip": "ym2612"
    },
    {
      "channel": 2,
      "note": 60,
      "start": 51.5935,
      "duration": 0.1152,
      "velocity": 101,
      "chip": "ym2612"
    },
    {
      "channel": 3,
      "note": 79,
      "start": 51.5941,
      "duration": 0.1148,
      "velocity": 119,
      "chip": "ym2612"
    },
    {
      "channel": 0,
      "note": 70,
      "start": 51.7104,
      "duration": 0.1158,
      "velocity": 101,
      "chip": "ym2612"
    },
    {
      "channel": 1,
      "note": 38,
      "start": 51.711,
      "duration": 0.1153,
      "velocity": 99,
      "chip": "ym2612"
    },
    {
      "channel": 2,
      "note": 58,
      "start": 51.7117,
      "duration": 0.1148,
      "velocity": 101,
      "chip": "ym2612"
    },
    {
      "channel": 3,
      "note": 79,
      "start": 51.7123,
      "duration": 0.1144,
      "velocity": 119,
      "chip": "ym2612"
    },
    {
      "channel": 0,
      "note": 75,
      "start": 51.8421,
      "duration": 0.1162,
      "velocity": 101,
      "chip": "ym2612"
    },
    {
      "channel": 1,
      "note": 39,
      "start": 51.8428,
      "duration": 0.1157,
      "velocity": 99,
      "chip": "ym2612"
    },
    {
      "channel": 2,
      "note": 63,
      "start": 51.8435,
      "duration": 0.1152,
      "velocity": 101,
      "chip": "ym2612"
    },
    {
      "channel": 3,
      "note": 79,
      "start": 51.8441,
      "duration": 0.1148,
      "velocity": 119,
      "chip": "ym2612"
    },
    {
      "channel": 0,
      "note": 74,
      "start": 51.9754,
      "duration": 0.1162,
      "velocity": 101,
      "chip": "ym2612"
    },
    {
      "channel": 1,
      "note": 39,
      "start": 51.976,
      "duration": 0.1159,
      "velocity": 99,
      "chip": "ym2612"
    },
    {
      "channel": 2,
      "note": 62,
      "start": 51.9767,
      "duration": 0.1153,
      "velocity": 101,
      "chip": "ym2612"
    },
    {
      "channel": 3,
      "note": 79,
      "start": 51.9773,
      "duration": 0.115,
      "velocity": 119,
      "chip": "ym2612"
    },
    {
      "channel": 0,
      "note": 72,
      "start": 52.0938,
      "duration": 0.1146,
      "velocity": 101,
      "chip": "ym2612"
    },
    {
      "channel": 1,
      "note": 39,
      "start": 52.0943,
      "duration": 0.1142,
      "velocity": 99,
      "chip": "ym2612"
    },
    {
      "channel": 2,
      "note": 60,
      "start": 52.095,
      "duration": 0.1137,
      "velocity": 101,
      "chip": "ym2612"
    },
    {
      "channel": 3,
      "note": 79,
      "start": 52.0956,
      "duration": 0.4797,
      "velocity": 119,
      "chip": "ym2612"
    },
    {
      "channel": 0,
      "note": 74,
      "start": 52.2254,
      "duration": 0.1162,
      "velocity": 101,
      "chip": "ym2612"
    },
    {
      "channel": 1,
      "note": 65,
      "start": 52.2261,
      "duration": 0.1157,
      "velocity": 99,
      "chip": "ym2612"
    },
    {
      "channel": 2,
      "note": 62,
      "start": 52.2269,
      "duration": 0.1151,
      "velocity": 101,
      "chip": "ym2612"
    },
    {
      "channel": 0,
      "note": 72,
      "start": 52.3436,
      "duration": 0.1159,
      "velocity": 101,
      "chip": "ym2612"
    },
    {
      "channel": 1,
      "note": 65,
      "start": 52.3442,
      "duration": 0.1154,
      "velocity": 99,
      "chip": "ym2612"
    },
    {
      "channel": 2,
      "note": 60,
      "start": 52.3449,
      "duration": 0.115,
      "velocity": 101,
      "chip": "ym2612"
    },
    {
      "channel": 0,
      "note": 70,
      "start": 52.4754,
      "duration": 0.1162,
      "velocity": 101,
      "chip": "ym2612"
    },
    {
      "channel": 1,
      "note": 63,
      "start": 52.4761,
      "duration": 0.1157,
      "velocity": 99,
      "chip": "ym2612"
    },
    {
      "channel": 2,
      "note": 58,
      "start": 52.4768,
      "duration": 0.1152,
      "velocity": 101,
      "chip": "ym2612"
    },
    {
      "channel": 0,
      "note": 69,
      "start": 52.6088,
      "duration": 0.1162,
      "velocity": 101,
      "chip": "ym2612"
    },
    {
      "channel": 1,
      "note": 39,
      "start": 52.6095,
      "duration": 0.1157,
      "velocity": 99,
      "chip": "ym2612"
    },
    {
      "channel": 2,
      "note": 57,
      "start": 52.6102,
      "duration": 0.1152,
      "velocity": 101,
      "chip": "ym2612"
    },
    {
      "channel": 3,
      "note": 79,
      "start": 52.6108,
      "duration": 0.1148,
      "velocity": 119,
      "chip": "ym2612"
    },
    {
      "channel": 0,
      "note": 67,
      "start": 52.7271,
      "duration": 0.1158,
      "velocity": 101,
      "chip": "ym2612"
    },
    {
      "channel": 1,
      "note": 39,
      "start": 52.7276,
      "duration": 0.1154,
      "velocity": 99,
      "chip": "ym2612"
    },
    {
      "channel": 2,
      "note": 55,
      "start": 52.7283,
      "duration": 0.1149,
      "velocity": 101,
      "chip": "ym2612"
    },
    {
      "channel": 3,
      "note": 79,
      "start": 52.7289,
      "duration": 0.1145,
      "velocity": 119,
      "chip": "ym2612"
    },
    {
      "channel": 0,
      "note": 86,
      "start": 52.8593,
      "duration": 0.1156,
      "velocity": 101,
      "chip": "ym2612"
    },
    {
      "channel": 1,
      "note": 38,
      "start": 52.86,
      "duration": 0.2162,
      "velocity": 99,
      "chip": "ym2612"
    },
    {
      "channel": 2,
      "note": 74,
      "start": 52.8614,
      "duration": 0.1139,
      "velocity": 101,
      "chip": "ym2612"
    },
    {
      "channel": 3,
      "note": 79,
      "start": 52.862,
      "duration": 0.2302,
      "velocity": 119,
      "chip": "ym2612"
    },
    {
      "channel": 0,
      "note": 78,
      "start": 52.9921,
      "duration": 0.0995,
      "velocity": 101,
      "chip": "ym2612"
    },
    {
      "channel": 2,
      "note": 66,
      "start": 52.9929,
      "duration": 0.099,
      "velocity": 101,
      "chip": "ym2612"
    },
    {
      "channel": 0,
      "note": 86,
      "start": 53.1088,
      "duration": 0.0829,
      "velocity": 101,
      "chip": "ym2612"
    },
    {
      "channel": 1,
      "note": 38,
      "start": 53.1093,
      "duration": 0.0825,
      "velocity": 99,
      "chip": "ym2612"
    },
    {
      "channel": 2,
      "note": 74,
      "start": 53.11,
      "duration": 0.082,
      "velocity": 101,
      "chip": "ym2612"
    },
    {
      "channel": 3,
      "note": 79,
      "start": 53.1107,
      "duration": 0.0816,
      "velocity": 119,
      "chip": "ym2612"
    },
    {
      "channel": 0,
      "note": 86,
      "start": 53.1936,
      "duration": 0.0814,
      "velocity": 101,
      "chip": "ym2612"
    },
    {
      "channel": 1,
      "note": 38,
      "start": 53.1941,
      "duration": 0.081,
      "velocity": 99,
      "chip": "ym2612"
    },
    {
      "channel": 2,
      "note": 74,
      "start": 53.1947,
      "duration": 0.0807,
      "velocity": 101,
      "chip": "ym2612"
    },
    {
      "channel": 3,
      "note": 79,
      "start": 53.1953,
      "duration": 0.0803,
      "velocity": 119,
      "chip": "ym2612"
    },
    {
      "channel": 0,
      "note": 86,
      "start": 53.2769,
      "duration": 0.0814,
      "velocity": 101,
      "chip": "ym2612"
    },
    {
      "channel": 1,
      "note": 38,
      "start": 53.2775,
      "duration": 0.081,
      "velocity": 99,
      "chip": "ym2612"
    },
    {
      "channel": 2,
      "note": 74,
      "start": 53.278,
      "duration": 0.0807,
      "velocity": 101,
      "chip": "ym2612"
    },
    {
      "channel": 3,
      "note": 79,
      "start": 53.2786,
      "duration": 0.0803,
      "velocity": 119,
      "chip": "ym2612"
    },
    {
      "channel": 0,
      "note": 86,
      "start": 53.3603,
      "duration": 0.1159,
      "velocity": 101,
      "chip": "ym2612"
    },
    {
      "channel": 1,
      "note": 38,
      "start": 53.3609,
      "duration": 0.1154,
      "velocity": 99,
      "chip": "ym2612"
    },
    {
      "channel": 2,
      "note": 74,
      "start": 53.3615,
      "duration": 0.1151,
      "velocity": 101,
      "chip": "ym2612"
    },
    {
      "channel": 3,
      "note": 79,
      "start": 53.362,
      "duration": 0.231,
      "velocity": 119,
      "chip": "ym2612"
    },
    {
      "channel": 0,
      "note": 78,
      "start": 53.4921,
      "duration": 0.1162,
      "velocity": 101,
      "chip": "ym2612"
    },
    {
      "channel": 1,
      "note": 60,
      "start": 53.4928,
      "duration": 0.1157,
      "velocity": 99,
      "chip": "ym2612"
    },
    {
      "channel": 2,
      "note": 66,
      "start": 53.4935,
      "duration": 0.1152,
      "velocity": 101,
      "chip": "ym2612"
    },
    {
      "channel": 0,
      "note": 86,
      "start": 53.6254,
      "duration": 0.1162,
      "velocity": 101,
      "chip": "ym2612"
    },
    {
      "channel": 1,
      "note": 38,
      "start": 53.6261,
      "duration": 0.1157,
      "velocity": 99,
      "chip": "ym2612"
    },
    {
      "channel": 2,
      "note": 74,
      "start": 53.6268,
      "duration": 0.1152,
      "velocity": 101,
      "chip": "ym2612"
    },
    {
      "channel": 3,
      "note": 79,
      "start": 53.6275,
      "duration": 0.2311,
      "velocity": 119,
      "chip": "ym2612"
    },
    {
      "channel": 0,
      "note": 78,
      "start": 53.7436,
      "duration": 0.116,
      "velocity": 101,
      "chip": "ym2612"
    },
    {
      "channel": 1,
      "note": 60,
      "start": 53.7443,
      "duration": 0.1155,
      "velocity": 99,
      "chip": "ym2612"
    },
    {
      "channel": 2,
      "note": 66,
      "start": 53.7451,
      "duration": 0.1149,
      "velocity": 101,
      "chip": "ym2612"
    },
    {
      "channel": 0,
      "note": 86,
      "start": 53.8754,
      "duration": 0.1162,
      "velocity": 101,
      "chip": "ym2612"
    },
    {
      "channel": 1,
      "note": 38,
      "start": 53.8761,
      "duration": 0.1157,
      "velocity": 99,
      "chip": "ym2612"
    },
    {
      "channel": 2,
      "note": 74,
      "start": 53.8769,
      "duration": 0.1151,
      "velocity": 101,
      "chip": "ym2612"
    },
    {
      "channel": 3,
      "note": 79,
      "start": 53.8775,
      "duration": 0.0812,
      "velocity": 119,
      "chip": "ym2612"
    },
    {
      "channel": 3,
      "note": 79,
      "start": 53.9589,
      "duration": 0.483,
      "velocity": 119,
      "chip": "ym2612"
    },
    {
      "channel": 0,
      "note": 62,
      "start": 54.3802,
      "duration": 0.1458,
      "velocity": 101,
      "chip": "ym2612"
    },
    {
      "channel": 2,
      "note": 50,
      "start": 54.3845,
      "duration": 0.1417,
      "velocity": 101,
      "chip": "ym2612"
    },
    {
      "channel": 0,
      "note": 62,
      "start": 54.7253,
      "duration": 0.133,
      "velocity": 101,
      "chip": "ym2612"
    },
    {
      "channel": 2,
      "note": 50,
      "start": 54.7259,
      "duration": 0.1327,
      "velocity": 101,
      "chip": "ym2612"
    },
    {
      "channel": 0,
      "note": 74,
      "start": 54.8922,
      "duration": 1.4671,
      "velocity": 101,
      "chip": "ym2612"
    },
    {
      "channel": 1,
      "note": 43,
      "start": 54.8962,
      "duration": 0.2132,
      "velocity": 99,
      "chip": "ym2612"
    },
    {
      "channel": 2,
      "note": 62,
      "start": 54.8969,
      "duration": 1.4627,
      "velocity": 101,
      "chip": "ym2612"
    },
    {
      "channel": 3,
      "note": 79,
      "start": 54.8976,
      "duration": 0.2277,
      "velocity": 119,
      "chip": "ym2612"
    },
    {
      "channel": 1,
      "note": 59,
      "start": 55.1422,
      "duration": 0.1162,
      "velocity": 99,
      "chip": "ym2612"
    },
    {
      "channel": 3,
      "note": 79,
      "start": 55.1429,
      "duration": 0.1158,
      "velocity": 119,
      "chip": "ym2612"
    },
    {
      "channel": 1,
      "note": 55,
      "start": 55.2755,
      "duration": 0.1162,
      "velocity": 99,
      "chip": "ym2612"
    },
    {
      "channel": 3,
      "note": 79,
      "start": 55.2764,
      "duration": 0.1156,
      "velocity": 119,
      "chip": "ym2612"
    },
    {
      "channel": 1,
      "note": 38,
      "start": 55.3933,
      "duration": 0.2317,
      "velocity": 99,
      "chip": "ym2612"
    },
    {
      "channel": 3,
      "note": 79,
      "start": 55.394,
      "duration": 0.2322,
      "velocity": 119,
      "chip": "ym2612"
    },
    {
      "channel": 1,
      "note": 62,
      "start": 55.6589,
      "duration": 0.1161,
      "velocity": 99,
      "chip": "ym2612"
    },
    {
      "channel": 3,
      "note": 79,
      "start": 55.6595,
      "duration": 0.1158,
      "velocity": 119,
      "chip": "ym2612"
    },
    {
      "channel": 1,
      "note": 59,
      "start": 55.777,
      "duration": 0.1157,
      "velocity": 99,
      "chip": "ym2612"
    },
    {
      "channel": 3,
      "note": 79,
      "start": 55.7777,
      "duration": 0.1153,
      "velocity": 119,
      "chip": "ym2612"
    },
    {
      "channel": 1,
      "note": 43,
      "start": 55.9088,
      "duration": 0.2172,
      "velocity": 99,
      "chip": "ym2612"
    },
    {
      "channel": 3,
      "note": 79,
      "start": 55.9095,
      "duration": 0.0334,
      "velocity": 119,
      "chip": "ym2612"
    },
    {
      "channel": 3,
      "note": 79,
      "start": 55.9432,
      "duration": 0.0488,
      "velocity": 119,
      "chip": "ym2612"
    },
    {
      "channel": 3,
      "note": 79,
      "start": 55.9922,
      "duration": 0.1506,
      "velocity": 119,
      "chip": "ym2612"
    },
    {
      "channel": 1,
      "note": 59,
      "start": 56.1588,
      "duration": 0.1162,
      "velocity": 99,
      "chip": "ym2612"
    },
    {
      "channel": 3,
      "note": 79,
      "start": 56.1595,
      "duration": 0.1158,
      "velocity": 119,
      "chip": "ym2612"
    },
    {
      "channel": 1,
      "note": 55,
      "start": 56.2922,
      "duration": 0.1162,
      "velocity": 99,
      "chip": "ym2612"
    },
    {
      "channel": 3,
      "note": 79,
      "start": 56.2929,
      "duration": 0.1158,
      "velocity": 119,
      "chip": "ym2612"
    },
    {
      "channel": 0,
      "note": 77,
      "start": 56.41,
      "duration": 0.1493,
      "velocity": 101,
      "chip": "ym2612"
    },
    {
      "channel": 1,
      "note": 43,
      "start": 56.4107,
      "duration": 0.231,
      "velocity": 99,
      "chip": "ym2612"
    },
    {
      "channel": 2,
      "note": 65,
      "start": 56.4115,
      "duration": 0.1481,
      "velocity": 101,
      "chip": "ym2612"
    },
    {
      "channel": 3,
      "note": 79,
      "start": 56.412,
      "duration": 0.2639,
      "velocity": 119,
      "chip": "ym2612"
    },
    {
      "channel": 1,
      "note": 62,
      "start": 56.6755,
      "duration": 0.1162,
      "velocity": 99,
      "chip": "ym2612"
    },
    {
      "channel": 3,
      "note": 79,
      "start": 56.6762,
      "duration": 0.1158,
      "velocity": 119,
      "chip": "ym2612"
    },
    {
      "channel": 0,
      "note": 77,
      "start": 56.7586,
      "duration": 0.1497,
      "velocity": 101,
      "chip": "ym2612"
    },
    {
      "channel": 2,
      "note": 65,
      "start": 56.7593,
      "duration": 0.1493,
      "velocity": 101,
      "chip": "ym2612"
    },
    {
      "channel": 1,
      "note": 60,
      "start": 56.7934,
      "duration": 0.1162,
      "velocity": 99,
      "chip": "ym2612"
    },
    {
      "channel": 3,
      "note": 79,
      "start": 56.794,
      "duration": 0.1159,
      "velocity": 119,
      "chip": "ym2612"
    },
    {
      "channel": 0,
      "note": 74,
      "start": 56.9254,
      "duration": 1.4672,
      "velocity": 101,
      "chip": "ym2612"
    },
    {
      "channel": 1,
      "note": 43,
      "start": 56.9263,
      "duration": 0.2164,
      "velocity": 99,
      "chip": "ym2612"
    },
    {
      "channel": 2,
      "note": 62,
      "start": 56.927,
      "duration": 1.4659,
      "velocity": 101,
      "chip": "ym2612"
    },
    {
      "channel": 3,
      "note": 79,
      "start": 56.9277,
      "duration": 0.2309,
      "velocity": 119,
      "chip": "ym2612"
    },
    {
      "channel": 1,
      "note": 59,
      "start": 57.1755,
      "duration": 0.1162,
      "velocity": 99,
      "chip": "ym2612"
    },
    {
      "channel": 3,
      "note": 79,
      "start": 57.1762,
      "duration": 0.1158,
      "velocity": 119,
      "chip": "ym2612"
    },
    {
      "channel": 1,
      "note": 55,
      "start": 57.3088,
      "duration": 0.1162,
      "velocity": 99,
      "chip": "ym2612"
    },
    {
      "channel": 3,
      "note": 79,
      "start": 57.3095,
      "duration": 0.1158,
      "velocity": 119,
      "chip": "ym2612"
    },
    {
      "channel": 1,
      "note": 38,
      "start": 57.4266,
      "duration": 0.2317,
      "velocity": 99,
      "chip": "ym2612"
    },
    {
      "channel": 3,
      "note": 79,
      "start": 57.4273,
      "duration": 0.2322,
      "velocity": 119,
      "chip": "ym2612"
    },
    {
      "channel": 1,
      "note": 62,
      "start": 57.6922,
      "duration": 0.1161,
      "velocity": 99,
      "chip": "ym2612"
    },
    {
      "channel": 3,
      "note": 79,
      "start": 57.6929,
      "duration": 0.1158,
      "velocity": 119,
      "chip": "ym2612"
    },
    {
      "channel": 1,
      "note": 59,
      "start": 57.8101,
      "duration": 0.1159,
      "velocity": 99,
      "chip": "ym2612"
    },
    {
      "channel": 3,
      "note": 79,
      "start": 57.8107,
      "duration": 0.1155,
      "velocity": 119,
      "chip": "ym2612"
    },
    {
      "channel": 1,
      "note": 43,
      "start": 57.9422,
      "duration": 0.2172,
      "velocity": 99,
      "chip": "ym2612"
    },
    {
      "channel": 3,
      "note": 79,
      "start": 57.9429,
      "duration": 0.0334,
      "velocity": 119,
      "chip": "ym2612"
    },
    {
      "channel": 3,
      "note": 79,
      "start": 57.9765,
      "duration": 0.0488,
      "velocity": 119,
      "chip": "ym2612"
    },
    {
      "channel": 3,
      "note": 79,
      "start": 58.0256,
      "duration": 0.1506,
      "velocity": 119,
      "chip": "ym2612"
    },
    {
      "channel": 1,
      "note": 59,
      "start": 58.1922,
      "duration": 0.1162,
      "velocity": 99,
      "chip": "ym2612"
    },
    {
      "channel": 3,
      "note": 79,
      "start": 58.1929,
      "duration": 0.1158,
      "velocity": 119,
      "chip": "ym2612"
    },
    {
      "channel": 1,
      "note": 55,
      "start": 58.3255,
      "duration": 0.1162,
      "velocity": 99,
      "chip": "ym2612"
    },
    {
      "channel": 3,
      "note": 79,
      "start": 58.3262,
      "duration": 0.1158,
      "velocity": 119,
      "chip": "ym2612"
    },
    {
      "channel": 0,
      "note": 79,
      "start": 58.4433,
      "duration": 0.1493,
      "velocity": 101,
      "chip": "ym2612"
    },
    {
      "channel": 1,
      "note": 43,
      "start": 58.4441,
      "duration": 0.231,
      "velocity": 99,
      "chip": "ym2612"
    },
    {
      "channel": 2,
      "note": 67,
      "start": 58.4448,
      "duration": 0.1481,
      "velocity": 101,
      "chip": "ym2612"
    },
    {
      "channel": 3,
      "note": 79,
      "start": 58.4454,
      "duration": 0.2639,
      "velocity": 119,
      "chip": "ym2612"
    },
    {
      "channel": 1,
      "note": 62,
      "start": 58.7088,
      "duration": 0.1162,
      "velocity": 99,
      "chip": "ym2612"
    },
    {
      "channel": 3,
      "note": 79,
      "start": 58.7095,
      "duration": 0.1158,
      "velocity": 119,
      "chip": "ym2612"
    },
    {
      "channel": 0,
      "note": 77,
      "start": 58.7921,
      "duration": 0.1495,
      "velocity": 101,
      "chip": "ym2612"
    },
    {
      "channel": 2,
      "note": 65,
      "start": 58.7929,
      "duration": 0.149,
      "velocity": 101,
      "chip": "ym2612"
    },
    {
      "channel": 1,
      "note": 60,
      "start": 58.8267,
      "duration": 0.1162,
      "velocity": 99,
      "chip": "ym2612"
    },
    {
      "channel": 3,
      "note": 79,
      "start": 58.8273,
      "duration": 0.1159,
      "velocity": 119,
      "chip": "ym2612"
    },
    {
      "channel": 0,
      "note": 74,
      "start": 58.9588,
      "duration": 0.4495,
      "velocity": 101,
      "chip": "ym2612"
    },
    {
      "channel": 1,
      "note": 43,
      "start": 58.9596,
      "duration": 0.2164,
      "velocity": 99,
      "chip": "ym2612"
    },
    {
      "channel": 2,
      "note": 62,
      "start": 58.9604,
      "duration": 0.4482,
      "velocity": 101,
      "chip": "ym2612"
    },
    {
      "channel": 3,
      "note": 79,
      "start": 58.961,
      "duration": 0.2309,
      "velocity": 119,
      "chip": "ym2612"
    },
    {
      "channel": 1,
      "note": 59,
      "start": 59.2088,
      "duration": 0.1162,
      "velocity": 99,
      "chip": "ym2612"
    },
    {
      "channel": 3,
      "note": 79,
      "start": 59.2095,
      "duration": 0.1158,
      "velocity": 119,
      "chip": "ym2612"
    },
    {
      "channel": 1,
      "note": 55,
      "start": 59.3422,
      "duration": 0.1162,
      "velocity": 99,
      "chip": "ym2612"
    },
    {
      "channel": 3,
      "note": 79,
      "start": 59.3429,
      "duration": 0.1158,
      "velocity": 119,
      "chip": "ym2612"
    },
    {
      "channel": 0,
      "note": 67,
      "start": 59.4599,
      "duration": 0.1494,
      "velocity": 101,
      "chip": "ym2612"
    },
    {
      "channel": 1,
      "note": 38,
      "start": 59.4606,
      "duration": 0.2311,
      "velocity": 99,
      "chip": "ym2612"
    },
    {
      "channel": 2,
      "note": 55,
      "start": 59.4613,
      "duration": 0.1482,
      "velocity": 101,
      "chip": "ym2612"
    },
    {
      "channel": 3,
      "note": 79,
      "start": 59.462,
      "duration": 0.231,
      "velocity": 119,
      "chip": "ym2612"
    },
    {
      "channel": 1,
      "note": 62,
      "start": 59.7255,
      "duration": 0.1162,
      "velocity": 99,
      "chip": "ym2612"
    },
    {
      "channel": 3,
      "note": 79,
      "start": 59.7262,
      "duration": 0.1158,
      "velocity": 119,
      "chip": "ym2612"
    },
    {
      "channel": 0,
      "note": 74,
      "start": 59.8088,
      "duration": 0.1495,
      "velocity": 101,
      "chip": "ym2612"
    },
    {
      "channel": 2,
      "note": 62,
      "start": 59.8096,
      "duration": 0.149,
      "velocity": 101,
      "chip": "ym2612"
    },
    {
      "channel": 1,
      "note": 59,
      "start": 59.8434,
      "duration": 0.1162,
      "velocity": 99,
      "chip": "ym2612"
    },
    {
      "channel": 3,
      "note": 79,
      "start": 59.844,
      "duration": 0.1158,
      "velocity": 119,
      "chip": "ym2612"
    },
    {
      "channel": 0,
      "note": 72,
      "start": 59.9754,
      "duration": 0.4495,
      "velocity": 101,
      "chip": "ym2612"
    },
    {
      "channel": 1,
      "note": 44,
      "start": 59.9761,
      "duration": 0.2165,
      "velocity": 99,
      "chip": "ym2612"
    },
    {
      "channel": 2,
      "note": 60,
      "start": 59.9769,
      "duration": 0.4484,
      "velocity": 101,
      "chip": "ym2612"
    },
    {
      "channel": 3,
      "note": 79,
      "start": 59.9775,
      "duration": 0.0321,
      "velocity": 119,
      "chip": "ym2612"
    },
    {
      "channel": 3,
      "note": 79,
      "start": 60.0099,
      "duration": 0.0488,
      "velocity": 119,
      "chip": "ym2612"
    },
    {
      "channel": 3,
      "note": 79,
      "start": 60.0588,
      "duration": 0.1507,
      "velocity": 119,
      "chip": "ym2612"
    },
    {
      "channel": 1,
      "note": 63,
      "start": 60.2255,
      "duration": 0.1162,
      "velocity": 99,
      "chip": "ym2612"
    },
    {
      "channel": 3,
      "note": 79,
      "start": 60.2262,
      "duration": 0.1158,
      "velocity": 119,
      "chip": "ym2612"
    },
    {
      "channel": 1,
      "note": 60,
      "start": 60.3588,
      "duration": 0.1162,
      "velocity": 99,
      "chip": "ym2612"
    },
    {
      "channel": 3,
      "note": 79,
      "start": 60.3595,
      "duration": 0.1158,
      "velocity": 119,
      "chip": "ym2612"
    },
    {
      "channel": 0,
      "note": 70,
      "start": 60.4766,
      "duration": 0.1493,
      "velocity": 101,
      "chip": "ym2612"
    },
    {
      "channel": 1,
      "note": 42,
      "start": 60.4773,
      "duration": 0.1488,
      "velocity": 99,
      "chip": "ym2612"
    },
    {
      "channel": 2,
      "note": 58,
      "start": 60.4781,
      "duration": 0.1482,
      "velocity": 101,
      "chip": "ym2612"
    },
    {
      "channel": 3,
      "note": 79,
      "start": 60.4787,
      "duration": 0.0809,
      "velocity": 119,
      "chip": "ym2612"
    },
    {
      "channel": 3,
      "note": 79,
      "start": 60.5599,
      "duration": 0.0837,
      "velocity": 119,
      "chip": "ym2612"
    },
    {
      "channel": 1,
      "note": 58,
      "start": 60.6431,
      "duration": 0.1495,
      "velocity": 99,
      "chip": "ym2612"
    },
    {
      "channel": 3,
      "note": 79,
      "start": 60.6438,
      "duration": 0.1648,
      "velocity": 119,
      "chip": "ym2612"
    },
    {
      "channel": 0,
      "note": 72,
      "start": 60.8254,
      "duration": 0.1495,
      "velocity": 101,
      "chip": "ym2612"
    },
    {
      "channel": 1,
      "note": 44,
      "start": 60.8261,
      "duration": 0.149,
      "velocity": 99,
      "chip": "ym2612"
    },
    {
      "channel": 2,
      "note": 60,
      "start": 60.8269,
      "duration": 0.1485,
      "velocity": 101,
      "chip": "ym2612"
    },
    {
      "channel": 3,
      "note": 79,
      "start": 60.8275,
      "duration": 0.149,
      "velocity": 119,
      "chip": "ym2612"
    },
    {
      "channel": 0,
      "note": 69,
      "start": 60.9921,
      "duration": 1.4662,
      "velocity": 101,
      "chip": "ym2612"
    },
    {
      "channel": 1,
      "note": 41,
      "start": 60.9928,
      "duration": 0.2156,
      "velocity": 99,
      "chip": "ym2612"
    },
    {
      "channel": 2,
      "note": 57,
      "start": 60.9936,
      "duration": 1.465,
      "velocity": 101,
      "chip": "ym2612"
    },
    {
      "channel": 3,
      "note": 79,
      "start": 60.9941,
      "duration": 0.2311,
      "velocity": 119,
      "chip": "ym2612"
    },
    {
      "channel": 1,
      "note": 60,
      "start": 61.2422,
      "duration": 0.1162,
      "velocity": 99,
      "chip": "ym2612"
    },
    {
      "channel": 3,
      "note": 79,
      "start": 61.2429,
      "duration": 0.1158,
      "velocity": 119,
      "chip": "ym2612"
    },
    {
      "channel": 1,
      "note": 57,
      "start": 61.3755,
      "duration": 0.0995,
      "velocity": 99,
      "chip": "ym2612"
    },
    {
      "channel": 3,
      "note": 79,
      "start": 61.3762,
      "duration": 0.1157,
      "velocity": 119,
      "chip": "ym2612"
    },
    {
      "channel": 1,
      "note": 41,
      "start": 61.4932,
      "duration": 0.2318,
      "velocity": 99,
      "chip": "ym2612"
    },
    {
      "channel": 3,
      "note": 79,
      "start": 61.4939,
      "duration": 0.2324,
      "velocity": 119,
      "chip": "ym2612"
    },
    {
      "channel": 1,
      "note": 60,
      "start": 61.7589,
      "duration": 0.1161,
      "velocity": 99,
      "chip": "ym2612"
    },
    {
      "channel": 3,
      "note": 79,
      "start": 61.7595,
      "duration": 0.1158,
      "velocity": 119,
      "chip": "ym2612"
    },
    {
      "channel": 1,
      "note": 57,
      "start": 61.8768,
      "duration": 0.1159,
      "velocity": 99,
      "chip": "ym2612"
    },
    {
      "channel": 3,
      "note": 79,
      "start": 61.8774,
      "duration": 0.1155,
      "velocity": 119,
      "chip": "ym2612"
    },
    {
      "channel": 1,
      "note": 38,
      "start": 62.0088,
      "duration": 0.2162,
      "velocity": 99,
      "chip": "ym2612"
    },
    {
      "channel": 3,
      "note": 79,
      "start": 62.0095,
      "duration": 0.0334,
      "velocity": 119,
      "chip": "ym2612"
    },
    {
      "channel": 3,
      "note": 79,
      "start": 62.0432,
      "duration": 0.0488,
      "velocity": 119,
      "chip": "ym2612"
    },
    {
      "channel": 3,
      "note": 79,
      "start": 62.0922,
      "duration": 0.1506,
      "velocity": 119,
      "chip": "ym2612"
    },
    {
      "channel": 1,
      "note": 62,
      "start": 62.2588,
      "duration": 0.1162,
      "velocity": 99,
      "chip": "ym2612"
    },
    {
      "channel": 3,
      "note": 79,
      "start": 62.2595,
      "duration": 0.1158,
      "velocity": 119,
      "chip": "ym2612"
    },
    {
      "channel": 1,
      "note": 57,
      "start": 62.3922,
      "duration": 0.1162,
      "velocity": 99,
      "chip": "ym2612"
    },
    {
      "channel": 3,
      "note": 79,
      "start": 62.3929,
      "duration": 0.1158,
      "velocity": 119,
      "chip": "ym2612"
    },
    {
      "channel": 0,
      "note": 62,
      "start": 62.51,
      "duration": 0.1493,
      "velocity": 101,
      "chip": "ym2612"
    },
    {
      "channel": 1,
      "note": 38,
      "start": 62.5107,
      "duration": 0.1488,
      "velocity": 99,
      "chip": "ym2612"
    },
    {
      "channel": 2,
      "note": 50,
      "start": 62.5114,
      "duration": 0.1483,
      "velocity": 101,
      "chip": "ym2612"
    },
    {
      "channel": 3,
      "note": 79,
      "start": 62.512,
      "duration": 0.0633,
      "velocity": 119,
      "chip": "ym2612"
    },
    {
      "channel": 3,
      "note": 79,
      "start": 62.5755,
      "duration": 0.0665,
      "velocity": 119,
      "chip": "ym2612"
    },
    {
      "channel": 3,
      "note": 79,
      "start": 62.6422,
      "duration": 0.1163,
      "velocity": 119,
      "chip": "ym2612"
    },
    {
      "channel": 1,
      "note": 54,
      "start": 62.6765,
      "duration": 0.1495,
      "velocity": 99,
      "chip": "ym2612"
    },
    {
      "channel": 3,
      "note": 79,
      "start": 62.7755,
      "duration": 0.1164,
      "velocity": 119,
      "chip": "ym2612"
    },
    {
      "channel": 0,
      "note": 62,
      "start": 62.8586,
      "duration": 0.134,
      "velocity": 101,
      "chip": "ym2612"
    },
    {
      "channel": 1,
      "note": 38,
      "start": 62.8593,
      "duration": 0.1335,
      "velocity": 99,
      "chip": "ym2612"
    },
    {
      "channel": 2,
      "note": 50,
      "start": 62.8599,
      "duration": 0.1331,
      "velocity": 101,
      "chip": "ym2612"
    },
    {
      "channel": 3,
      "note": 79,
      "start": 62.8932,
      "duration": 0.1153,
      "velocity": 119,
      "chip": "ym2612"
    },
    {
      "channel": 0,
      "note": 74,
      "start": 63.0255,
      "duration": 1.1661,
      "velocity": 101,
      "chip": "ym2612"
    },
    {
      "channel": 1,
      "note": 43,
      "start": 63.0262,
      "duration": 0.2155,
      "velocity": 99,
      "chip": "ym2612"
    },
    {
      "channel": 2,
      "note": 62,
      "start": 63.0269,
      "duration": 1.165,
      "velocity": 101,
      "chip": "ym2612"
    },
    {
      "channel": 3,
      "note": 79,
      "start": 63.0275,
      "duration": 0.2311,
      "velocity": 119,
      "chip": "ym2612"
    },
    {
      "channel": 1,
      "note": 59,
      "start": 63.2755,
      "duration": 0.1162,
      "velocity": 99,
      "chip": "ym2612"
    },
    {
      "channel": 3,
      "note": 79,
      "start": 63.2764,
      "duration": 0.1156,
      "velocity": 119,
      "chip": "ym2612"
    },
    {
      "channel": 1,
      "note": 55,
      "start": 63.4088,
      "duration": 0.1162,
      "velocity": 99,
      "chip": "ym2612"
    },
    {
      "channel": 3,
      "note": 79,
      "start": 63.4095,
      "duration": 0.1158,
      "velocity": 119,
      "chip": "ym2612"
    },
    {
      "channel": 1,
      "note": 42,
      "start": 63.5267,
      "duration": 0.2317,
      "velocity": 99,
      "chip": "ym2612"
    },
    {
      "channel": 3,
      "note": 79,
      "start": 63.5274,
      "duration": 0.2322,
      "velocity": 119,
      "chip": "ym2612"
    },
    {
      "channel": 1,
      "note": 62,
      "start": 63.7922,
      "duration": 0.1005,
      "velocity": 99,
      "chip": "ym2612"
    },
    {
      "channel": 3,
      "note": 79,
      "start": 63.7929,
      "duration": 0.1,
      "velocity": 119,
      "chip": "ym2612"
    },
    {
      "channel": 1,
      "note": 57,
      "start": 63.9088,
      "duration": 0.1162,
      "velocity": 99,
      "chip": "ym2612"
    },
    {
      "channel": 3,
      "note": 79,
      "start": 63.9095,
      "duration": 0.1158,
      "velocity": 119,
      "chip": "ym2612"
    },
    {
      "channel": 1,
      "note": 40,
      "start": 64.0422,
      "duration": 0.2162,
      "velocity": 99,
      "chip": "ym2612"
    },
    {
      "channel": 3,
      "note": 79,
      "start": 64.0429,
      "duration": 0.0334,
      "velocity": 119,
      "chip": "ym2612"
    },
    {
      "channel": 3,
      "note": 79,
      "start": 64.0765,
      "duration": 0.0488,
      "velocity": 119,
      "chip": "ym2612"
    },
    {
      "channel": 3,
      "note": 79,
      "start": 64.1256,
      "duration": 0.1509,
      "velocity": 119,
      "chip": "ym2612"
    },
    {
      "channel": 1,
      "note": 64,
      "start": 64.2922,
      "duration": 0.1162,
      "velocity": 99,
      "chip": "ym2612"
    },
    {
      "channel": 3,
      "note": 79,
      "start": 64.2929,
      "duration": 0.1158,
      "velocity": 119,
      "chip": "ym2612"
    },
    {
      "channel": 0,
      "note": 74,
      "start": 64.3753,
      "duration": 0.1497,
      "velocity": 101,
      "chip": "ym2612"
    },
    {
      "channel": 2,
      "note": 62,
      "start": 64.3759,
      "duration": 0.1493,
      "velocity": 101,
      "chip": "ym2612"
    },
    {
      "channel": 1,
      "note": 62,
      "start": 64.4255,
      "duration": 0.1162,
      "velocity": 99,
      "chip": "ym2612"
    },
    {
      "channel": 3,
      "note": 79,
      "start": 64.4262,
      "duration": 0.1158,
      "velocity": 119,
      "chip": "ym2612"
    },
    {
      "channel": 0,
      "note": 71,
      "start": 64.5433,
      "duration": 0.1493,
      "velocity": 101,
      "chip": "ym2612"
    },
    {
      "channel": 1,
      "note": 38,
      "start": 64.5441,
      "duration": 0.1487,
      "velocity": 99,
      "chip": "ym2612"
    },
    {
      "channel": 2,
      "note": 59,
      "start": 64.5448,
      "duration": 0.1482,
      "velocity": 101,
      "chip": "ym2612"
    },
    {
      "channel": 3,
      "note": 79,
      "start": 64.5454,
      "duration": 0.231,
      "velocity": 119,
      "chip": "ym2612"
    },
    {
      "channel": 0,
      "note": 69,
      "start": 64.7097,
      "duration": 0.1495,
      "velocity": 101,
      "chip": "ym2612"
    },
    {
      "channel": 1,
      "note": 62,
      "start": 64.7104,
      "duration": 0.149,
      "velocity": 99,
      "chip": "ym2612"
    },
    {
      "channel": 2,
      "note": 57,
      "start": 64.7111,
      "duration": 0.1485,
      "velocity": 101,
      "chip": "ym2612"
    },
    {
      "channel": 3,
      "note": 79,
      "start": 64.7931,
      "duration": 0.1164,
      "velocity": 119,
      "chip": "ym2612"
    },
    {
      "channel": 0,
      "note": 67,
      "start": 64.8921,
      "duration": 0.1338,
      "velocity": 101,
      "chip": "ym2612"
    },
    {
      "channel": 1,
      "note": 38,
      "start": 64.8928,
      "duration": 0.1333,
      "velocity": 99,
      "chip": "ym2612"
    },
    {
      "channel": 2,
      "note": 55,
      "start": 64.8935,
      "duration": 0.1328,
      "velocity": 101,
      "chip": "ym2612"
    },
    {
      "channel": 3,
      "note": 79,
      "start": 64.9255,
      "duration": 0.1163,
      "velocity": 119,
      "chip": "ym2612"
    },
    {
      "channel": 0,
      "note": 76,
      "start": 65.0588,
      "duration": 0.9662,
      "velocity": 101,
      "chip": "ym2612"
    },
    {
      "channel": 1,
      "note": 37,
      "start": 65.0595,
      "duration": 0.2156,
      "velocity": 99,
      "chip": "ym2612"
    },
    {
      "channel": 2,
      "note": 64,
      "start": 65.0602,
      "duration": 0.965,
      "velocity": 101,
      "chip": "ym2612"
    },
    {
      "channel": 3,
      "note": 79,
      "start": 65.0608,
      "duration": 0.2311,
      "velocity": 119,
      "chip": "ym2612"
    },
    {
      "channel": 1,
      "note": 57,
      "start": 65.3088,
      "duration": 0.1162,
      "velocity": 99,
      "chip": "ym2612"
    },
    {
      "channel": 3,
      "note": 79,
      "start": 65.3095,
      "duration": 0.1158,
      "velocity": 119,
      "chip": "ym2612"
    },
    {
      "channel": 1,
      "note": 52,
      "start": 65.4422,
      "duration": 0.1162,
      "velocity": 99,
      "chip": "ym2612"
    },
    {
      "channel": 3,
      "note": 79,
      "start": 65.4429,
      "duration": 0.1158,
      "velocity": 119,
      "chip": "ym2612"
    },
    {
      "channel": 1,
      "note": 37,
      "start": 65.56,
      "duration": 0.2317,
      "velocity": 99,
      "chip": "ym2612"
    },
    {
      "channel": 3,
      "note": 79,
      "start": 65.5607,
      "duration": 0.2322,
      "velocity": 119,
      "chip": "ym2612"
    },
    {
      "channel": 1,
      "note": 61,
      "start": 65.8098,
      "duration": 0.1162,
      "velocity": 99,
      "chip": "ym2612"
    },
    {
      "channel": 3,
      "note": 79,
      "start": 65.8105,
      "duration": 0.1158,
      "velocity": 119,
      "chip": "ym2612"
    },
    {
      "channel": 1,
      "note": 55,
      "start": 65.9422,
      "duration": 0.1162,
      "velocity": 99,
      "chip": "ym2612"
    },
    {
      "channel": 3,
      "note": 79,
      "start": 65.9428,
      "duration": 0.1158,
      "velocity": 119,
      "chip": "ym2612"
    },
    {
      "channel": 1,
      "note": 36,
      "start": 66.0755,
      "duration": 0.1495,
      "velocity": 99,
      "chip": "ym2612"
    },
    {
      "channel": 3,
      "note": 79,
      "start": 66.0761,
      "duration": 0.0334,
      "velocity": 119,
      "chip": "ym2612"
    },
    {
      "channel": 3,
      "note": 79,
      "start": 66.1098,
      "duration": 0.0488,
      "velocity": 119,
      "chip": "ym2612"
    },
    {
      "channel": 3,
      "note": 79,
      "start": 66.1589,
      "duration": 0.2331,
      "velocity": 119,
      "chip": "ym2612"
    },
    {
      "channel": 1,
      "note": 64,
      "start": 66.2422,
      "duration": 0.1495,
      "velocity": 99,
      "chip": "ym2612"
    },
    {
      "channel": 0,
      "note": 76,
      "start": 66.4086,
      "duration": 0.1497,
      "velocity": 101,
      "chip": "ym2612"
    },
    {
      "channel": 1,
      "note": 57,
      "start": 66.4093,
      "duration": 0.1492,
      "velocity": 99,
      "chip": "ym2612"
    },
    {
      "channel": 2,
      "note": 64,
      "start": 66.4099,
      "duration": 0.1488,
      "velocity": 101,
      "chip": "ym2612"
    },
    {
      "channel": 3,
      "note": 79,
      "start": 66.4106,
      "duration": 0.1483,
      "velocity": 119,
      "chip": "ym2612"
    },
    {
      "channel": 0,
      "note": 76,
      "start": 66.5762,
      "duration": 0.1488,
      "velocity": 101,
      "chip": "ym2612"
    },
    {
      "channel": 1,
      "note": 48,
      "start": 66.577,
      "duration": 0.1482,
      "velocity": 99,
      "chip": "ym2612"
    },
    {
      "channel": 2,
      "note": 64,
      "start": 66.5775,
      "duration": 0.1479,
      "velocity": 101,
      "chip": "ym2612"
    },
    {
      "channel": 3,
      "note": 79,
      "start": 66.5781,
      "duration": 0.0815,
      "velocity": 119,
      "chip": "ym2612"
    },
    {
      "channel": 3,
      "note": 79,
      "start": 66.6599,
      "duration": 0.0848,
      "velocity": 119,
      "chip": "ym2612"
    },
    {
      "channel": 0,
      "note": 78,
      "start": 66.7431,
      "duration": 0.1495,
      "velocity": 101,
      "chip": "ym2612"
    },
    {
      "channel": 1,
      "note": 48,
      "start": 66.7436,
      "duration": 0.1492,
      "velocity": 99,
      "chip": "ym2612"
    },
    {
      "channel": 2,
      "note": 66,
      "start": 66.7443,
      "duration": 0.1487,
      "velocity": 101,
      "chip": "ym2612"
    },
    {
      "channel": 3,
      "note": 79,
      "start": 66.7449,
      "duration": 0.1483,
      "velocity": 119,
      "chip": "ym2612"
    },
    {
      "channel": 0,
      "note": 76,
      "start": 66.9254,
      "duration": 0.1338,
      "velocity": 101,
      "chip": "ym2612"
    },
    {
      "channel": 1,
      "note": 36,
      "start": 66.9261,
      "duration": 0.1333,
      "velocity": 99,
      "chip": "ym2612"
    },
    {
      "channel": 2,
      "note": 64,
      "start": 66.9268,
      "duration": 0.1328,
      "velocity": 101,
      "chip": "ym2612"
    },
    {
      "channel": 3,
      "note": 79,
      "start": 66.9275,
      "duration": 0.1324,
      "velocity": 119,
      "chip": "ym2612"
    },
    {
      "channel": 0,
      "note": 74,
      "start": 67.0921,
      "duration": 0.4495,
      "velocity": 101,
      "chip": "ym2612"
    },
    {
      "channel": 1,
      "note": 47,
      "start": 67.0929,
      "duration": 0.2155,
      "velocity": 99,
      "chip": "ym2612"
    },
    {
      "channel": 2,
      "note": 62,
      "start": 67.0936,
      "duration": 0.4484,
      "velocity": 101,
      "chip": "ym2612"
    },
    {
      "channel": 3,
      "note": 79,
      "start": 67.0941,
      "duration": 0.2311,
      "velocity": 119,
      "chip": "ym2612"
    },
    {
      "channel": 1,
      "note": 62,
      "start": 67.3422,
      "duration": 0.0672,
      "velocity": 99,
      "chip": "ym2612"
    },
    {
      "channel": 3,
      "note": 79,
      "start": 67.3429,
      "duration": 0.0667,
      "velocity": 119,
      "chip": "ym2612"
    },
    {
      "channel": 1,
      "note": 62,
      "start": 67.4254,
      "duration": 0.0673,
      "velocity": 99,
      "chip": "ym2612"
    },
    {
      "channel": 3,
      "note": 79,
      "start": 67.426,
      "duration": 0.0669,
      "velocity": 119,
      "chip": "ym2612"
    },
    {
      "channel": 1,
      "note": 62,
      "start": 67.5087,
      "duration": 0.083,
      "velocity": 99,
      "chip": "ym2612"
    },
    {
      "channel": 3,
      "note": 79,
      "start": 67.5093,
      "duration": 0.0826,
      "velocity": 119,
      "chip": "ym2612"
    },
    {
      "channel": 0,
      "note": 67,
      "start": 67.5933,
      "duration": 0.1483,
      "velocity": 101,
      "chip": "ym2612"
    },
    {
      "channel": 1,
      "note": 40,
      "start": 67.594,
      "duration": 0.1478,
      "velocity": 99,
      "chip": "ym2612"
    },
    {
      "channel": 2,
      "note": 55,
      "start": 67.5947,
      "duration": 0.1473,
      "velocity": 101,
      "chip": "ym2612"
    },
    {
      "channel": 3,
      "note": 79,
      "start": 67.5954,
      "duration": 0.0809,
      "velocity": 119,
      "chip": "ym2612"
    },
    {
      "channel": 3,
      "note": 79,
      "start": 67.6765,
      "duration": 0.033,
      "velocity": 119,
      "chip": "ym2612"
    },
    {
      "channel": 1,
      "note": 55,
      "start": 67.7598,
      "duration": 0.1495,
      "velocity": 99,
      "chip": "ym2612"
    },
    {
      "channel": 3,
      "note": 79,
      "start": 67.7604,
      "duration": 0.1492,
      "velocity": 119,
      "chip": "ym2612"
    },
    {
      "channel": 0,
      "note": 71,
      "start": 67.9421,
      "duration": 0.1338,
      "velocity": 101,
      "chip": "ym2612"
    },
    {
      "channel": 1,
      "note": 64,
      "start": 67.9429,
      "duration": 0.1333,
      "velocity": 99,
      "chip": "ym2612"
    },
    {
      "channel": 2,
      "note": 59,
      "start": 67.9436,
      "duration": 0.1328,
      "velocity": 101,
      "chip": "ym2612"
    },
    {
      "channel": 3,
      "note": 79,
      "start": 67.9441,
      "duration": 0.1324,
      "velocity": 119,
      "chip": "ym2612"
    },
    {
      "channel": 0,
      "note": 69,
      "start": 68.1088,
      "duration": 0.1495,
      "velocity": 101,
      "chip": "ym2612"
    },
    {
      "channel": 1,
      "note": 36,
      "start": 68.1095,
      "duration": 0.149,
      "velocity": 99,
      "chip": "ym2612"
    },
    {
      "channel": 2,
      "note": 57,
      "start": 68.1102,
      "duration": 0.1485,
      "velocity": 101,
      "chip": "ym2612"
    },
    {
      "channel": 3,
      "note": 79,
      "start": 68.1108,
      "duration": 0.0654,
      "velocity": 119,
      "chip": "ym2612"
    },
    {
      "channel": 1,
      "note": 55,
      "start": 68.2755,
      "duration": 0.0672,
      "velocity": 99,
      "chip": "ym2612"
    },
    {
      "channel": 3,
      "note": 79,
      "start": 68.2764,
      "duration": 0.0665,
      "velocity": 119,
      "chip": "ym2612"
    },
    {
      "channel": 1,
      "note": 60,
      "start": 68.3588,
      "duration": 0.0672,
      "velocity": 99,
      "chip": "ym2612"
    },
    {
      "channel": 3,
      "note": 79,
      "start": 68.3595,
      "duration": 0.0668,
      "velocity": 119,
      "chip": "ym2612"
    },
    {
      "channel": 0,
      "note": 64,
      "start": 68.4421,
      "duration": 0.1495,
      "velocity": 101,
      "chip": "ym2612"
    },
    {
      "channel": 1,
      "note": 57,
      "start": 68.4428,
      "duration": 0.0665,
      "velocity": 99,
      "chip": "ym2612"
    },
    {
      "channel": 2,
      "note": 52,
      "start": 68.4435,
      "duration": 0.1484,
      "velocity": 101,
      "chip": "ym2612"
    },
    {
      "channel": 3,
      "note": 79,
      "start": 68.4441,
      "duration": 0.0654,
      "velocity": 119,
      "chip": "ym2612"
    },
    {
      "channel": 1,
      "note": 55,
      "start": 68.5255,
      "duration": 0.0829,
      "velocity": 99,
      "chip": "ym2612"
    },
    {
      "channel": 3,
      "note": 79,
      "start": 68.5261,
      "duration": 0.0825,
      "velocity": 119,
      "chip": "ym2612"
    },
    {
      "channel": 0,
      "note": 66,
      "start": 68.6099,
      "duration": 0.1651,
      "velocity": 101,
      "chip": "ym2612"
    },
    {
      "channel": 1,
      "note": 38,
      "start": 68.6106,
      "duration": 0.1478,
      "velocity": 99,
      "chip": "ym2612"
    },
    {
      "channel": 2,
      "note": 54,
      "start": 68.6113,
      "duration": 0.1639,
      "velocity": 101,
      "chip": "ym2612"
    },
    {
      "channel": 3,
      "note": 79,
      "start": 68.612,
      "duration": 0.1467,
      "velocity": 119,
      "chip": "ym2612"
    },
    {
      "channel": 0,
      "note": 67,
      "start": 68.7768,
      "duration": 0.1492,
      "velocity": 101,
      "chip": "ym2612"
    },
    {
      "channel": 1,
      "note": 60,
      "start": 68.7776,
      "duration": 0.1486,
      "velocity": 99,
      "chip": "ym2612"
    },
    {
      "channel": 2,
      "note": 55,
      "start": 68.7782,
      "duration": 0.1481,
      "velocity": 101,
      "chip": "ym2612"
    },
    {
      "channel": 3,
      "note": 79,
      "start": 68.7788,
      "duration": 0.1477,
      "velocity": 119,
      "chip": "ym2612"
    },
    {
      "channel": 0,
      "note": 69,
      "start": 68.9588,
      "duration": 0.1338,
      "velocity": 101,
      "chip": "ym2612"
    },
    {
      "channel": 1,
      "note": 38,
      "start": 68.9595,
      "duration": 0.1333,
      "velocity": 99,
      "chip": "ym2612"
    },
    {
      "channel": 2,
      "note": 57,
      "start": 68.9602,
      "duration": 0.1328,
      "velocity": 101,
      "chip": "ym2612"
    },
    {
      "channel": 3,
      "note": 79,
      "start": 68.9607,
      "duration": 0.1324,
      "velocity": 119,
      "chip": "ym2612"
    },
    {
      "channel": 0,
      "note": 67,
      "start": 69.1254,
      "duration": 1.1329,
      "velocity": 101,
      "chip": "ym2612"
    },
    {
      "channel": 1,
      "note": 43,
      "start": 69.1261,
      "duration": 0.1156,
      "velocity": 99,
      "chip": "ym2612"
    },
    {
      "channel": 2,
      "note": 55,
      "start": 69.1268,
      "duration": 1.1319,
      "velocity": 101,
      "chip": "ym2612"
    },
    {
      "channel": 3,
      "note": 79,
      "start": 69.1275,
      "duration": 0.2311,
      "velocity": 119,
      "chip": "ym2612"
    },
    {
      "channel": 1,
      "note": 43,
      "start": 69.3754,
      "duration": 0.0673,
      "velocity": 99,
      "chip": "ym2612"
    },
    {
      "channel": 3,
      "note": 79,
      "start": 69.376,
      "duration": 0.0669,
      "velocity": 119,
      "chip": "ym2612"
    },
    {
      "channel": 1,
      "note": 43,
      "start": 69.4587,
      "duration": 0.0673,
      "velocity": 99,
      "chip": "ym2612"
    },
    {
      "channel": 3,
      "note": 79,
      "start": 69.4593,
      "duration": 0.0669,
      "velocity": 119,
      "chip": "ym2612"
    },
    {
      "channel": 1,
      "note": 43,
      "start": 69.542,
      "duration": 0.083,
      "velocity": 99,
      "chip": "ym2612"
    },
    {
      "channel": 3,
      "note": 79,
      "start": 69.5427,
      "duration": 0.0827,
      "velocity": 119,
      "chip": "ym2612"
    },
    {
      "channel": 1,
      "note": 43,
      "start": 69.6266,
      "duration": 0.1485,
      "velocity": 99,
      "chip": "ym2612"
    },
    {
      "channel": 3,
      "note": 79,
      "start": 69.6273,
      "duration": 0.148,
      "velocity": 119,
      "chip": "ym2612"
    },
    {
      "channel": 1,
      "note": 43,
      "start": 69.7929,
      "duration": 0.1498,
      "velocity": 99,
      "chip": "ym2612"
    },
    {
      "channel": 3,
      "note": 79,
      "start": 69.7936,
      "duration": 0.1493,
      "velocity": 119,
      "chip": "ym2612"
    },
    {
      "channel": 1,
      "note": 43,
      "start": 69.9754,
      "duration": 0.134,
      "velocity": 99,
      "chip": "ym2612"
    },
    {
      "channel": 3,
      "note": 79,
      "start": 69.976,
      "duration": 0.1336,
      "velocity": 119,
      "chip": "ym2612"
    },
    {
      "channel": 1,
      "note": 43,
      "start": 70.142,
      "duration": 0.1165,
      "velocity": 99,
      "chip": "ym2612"
    },
    {
      "channel": 3,
      "note": 79,
      "start": 70.1427,
      "duration": 0.1178,
      "velocity": 119,
      "chip": "ym2612"
    }
  ]
}