{
  "track_name": "01 - Intro Theme 1",
  "duration_sec": 61.573,
  "sample_rate": 44100,
  "note_count": 458,
  "unique_pitches": 25,
  "pitch_range": 68,
  "avg_note_duration": 0.219,
  "reconstruction_stats": {
    "notes_reconstructed": 458,
    "keyon_events": 458,
    "keyoff_events": 457,
    "orphan_keyons": 1,
    "unique_pitches": 25,
    "pitch_range": 68,
    "avg_duration_sec": 0.219
  },
  "metadata": {
    "source": "D\\Dungeons & Dragons - Warriors of the Eternal Sun\\01 - Intro Theme 1.vgz"
  },
  "notes": [
    {
      "channel": 0,
      "note": 64,
      "start": 0.0436,
      "duration": 0.0828,
      "velocity": 93,
      "chip": "ym2612"
    },
    {
      "channel": 0,
      "note": 64,
      "start": 0.212,
      "duration": 0.0813,
      "velocity": 93,
      "chip": "ym2612"
    },
    {
      "channel": 0,
      "note": 64,
      "start": 0.2967,
      "duration": 0.0781,
      "velocity": 93,
      "chip": "ym2612"
    },
    {
      "channel": 0,
      "note": 64,
      "start": 0.4792,
      "duration": 0.0803,
      "velocity": 93,
      "chip": "ym2612"
    },
    {
      "channel": 0,
      "note": 64,
      "start": 0.5628,
      "duration": 0.0733,
      "velocity": 93,
      "chip": "ym2612"
    },
    {
      "channel": 0,
      "note": 64,
      "start": 0.7289,
      "duration": 0.0447,
      "velocity": 93,
      "chip": "ym2612"
    },
    {
      "channel": 0,
      "note": 64,
      "start": 0.7766,
      "duration": 0.0361,
      "velocity": 93,
      "chip": "ym2612"
    },
    {
      "channel": 0,
      "note": 65,
      "start": 0.8151,
      "duration": 0.0793,
      "velocity": 93,
      "chip": "ym2612"
    },
    {
      "channel": 0,
      "note": 65,
      "start": 0.8965,
      "duration": 0.0791,
      "velocity": 93,
      "chip": "ym2612"
    },
    {
      "channel": 0,
      "note": 65,
      "start": 0.9777,
      "duration": 0.079,
      "velocity": 93,
      "chip": "ym2612"
    },
    {
      "channel": 0,
      "note": 64,
      "start": 1.059,
      "duration": 0.0732,
      "velocity": 93,
      "chip": "ym2612"
    },
    {
      "channel": 0,
      "note": 64,
      "start": 1.2282,
      "duration": 0.0804,
      "velocity": 93,
      "chip": "ym2612"
    },
    {
      "channel": 0,
      "note": 64,
      "start": 1.312,
      "duration": 0.0769,
      "velocity": 93,
      "chip": "ym2612"
    },
    {
      "channel": 0,
      "note": 64,
      "start": 1.4928,
      "duration": 0.0759,
      "velocity": 93,
      "chip": "ym2612"
    },
    {
      "channel": 0,
      "note": 64,
      "start": 1.5711,
      "duration": 0.0777,
      "velocity": 93,
      "chip": "ym2612"
    },
    {
      "channel": 0,
      "note": 64,
      "start": 1.7515,
      "duration": 0.0448,
      "velocity": 93,
      "chip": "ym2612"
    },
    {
      "channel": 0,
      "note": 64,
      "start": 1.7993,
      "duration": 0.0364,
      "velocity": 93,
      "chip": "ym2612"
    },
    {
      "channel": 0,
      "note": 65,
      "start": 1.8381,
      "duration": 0.0792,
      "velocity": 93,
      "chip": "ym2612"
    },
    {
      "channel": 0,
      "note": 65,
      "start": 1.9194,
      "duration": 0.0787,
      "velocity": 93,
      "chip": "ym2612"
    },
    {
      "channel": 0,
      "note": 65,
      "start": 2.0003,
      "duration": 0.0716,
      "velocity": 93,
      "chip": "ym2612"
    },
    {
      "channel": 0,
      "note": 64,
      "start": 2.0751,
      "duration": 0.0776,
      "velocity": 93,
      "chip": "ym2612"
    },
    {
      "channel": 0,
      "note": 64,
      "start": 2.2576,
      "duration": 0.0805,
      "velocity": 93,
      "chip": "ym2612"
    },
    {
      "channel": 0,
      "note": 64,
      "start": 2.3413,
      "duration": 0.0778,
      "velocity": 93,
      "chip": "ym2612"
    },
    {
      "channel": 0,
      "note": 64,
      "start": 2.509,
      "duration": 0.0792,
      "velocity": 93,
      "chip": "ym2612"
    },
    {
      "channel": 0,
      "note": 64,
      "start": 2.5905,
      "duration": 0.0793,
      "velocity": 93,
      "chip": "ym2612"
    },
    {
      "channel": 0,
      "note": 64,
      "start": 2.7741,
      "duration": 0.0374,
      "velocity": 93,
      "chip": "ym2612"
    },
    {
      "channel": 0,
      "note": 64,
      "start": 2.8139,
      "duration": 0.0436,
      "velocity": 93,
      "chip": "ym2612"
    },
    {
      "channel": 0,
      "note": 65,
      "start": 2.8612,
      "duration": 0.0786,
      "velocity": 93,
      "chip": "ym2612"
    },
    {
      "channel": 0,
      "note": 65,
      "start": 2.9421,
      "duration": 0.0719,
      "velocity": 93,
      "chip": "ym2612"
    },
    {
      "channel": 0,
      "note": 65,
      "start": 3.0161,
      "duration": 0.0773,
      "velocity": 93,
      "chip": "ym2612"
    },
    {
      "channel": 0,
      "note": 64,
      "start": 3.0957,
      "duration": 0.0793,
      "velocity": 93,
      "chip": "ym2612"
    },
    {
      "channel": 0,
      "note": 64,
      "start": 3.2805,
      "duration": 0.0803,
      "velocity": 93,
      "chip": "ym2612"
    },
    {
      "channel": 0,
      "note": 64,
      "start": 3.364,
      "duration": 0.0732,
      "velocity": 93,
      "chip": "ym2612"
    },
    {
      "channel": 0,
      "note": 64,
      "start": 3.5299,
      "duration": 0.081,
      "velocity": 93,
      "chip": "ym2612"
    },
    {
      "channel": 0,
      "note": 62,
      "start": 3.6141,
      "duration": 0.247,
      "velocity": 93,
      "chip": "ym2612"
    },
    {
      "channel": 0,
      "note": 65,
      "start": 3.8644,
      "duration": 0.2409,
      "velocity": 93,
      "chip": "ym2612"
    },
    {
      "channel": 0,
      "note": 64,
      "start": 4.1076,
      "duration": 0.0807,
      "velocity": 93,
      "chip": "ym2612"
    },
    {
      "channel": 3,
      "note": 71,
      "start": 4.1121,
      "duration": 0.1114,
      "velocity": 96,
      "chip": "ym2612"
    },
    {
      "channel": 1,
      "note": 76,
      "start": 4.1157,
      "duration": 0.1078,
      "velocity": 96,
      "chip": "ym2612"
    },
    {
      "channel": 4,
      "note": 88,
      "start": 4.1205,
      "duration": 0.1031,
      "velocity": 96,
      "chip": "ym2612"
    },
    {
      "channel": 0,
      "note": 64,
      "start": 4.2259,
      "duration": 0.081,
      "velocity": 93,
      "chip": "ym2612"
    },
    {
      "channel": 3,
      "note": 71,
      "start": 4.228,
      "duration": 0.0431,
      "velocity": 96,
      "chip": "ym2612"
    },
    {
      "channel": 1,
      "note": 76,
      "start": 4.2301,
      "duration": 0.041,
      "velocity": 96,
      "chip": "ym2612"
    },
    {
      "channel": 0,
      "note": 64,
      "start": 4.3474,
      "duration": 0.0436,
      "velocity": 93,
      "chip": "ym2612"
    },
    {
      "channel": 3,
      "note": 71,
      "start": 4.3495,
      "duration": 0.0416,
      "velocity": 96,
      "chip": "ym2612"
    },
    {
      "channel": 1,
      "note": 76,
      "start": 4.3517,
      "duration": 0.0394,
      "velocity": 96,
      "chip": "ym2612"
    },
    {
      "channel": 0,
      "note": 64,
      "start": 4.3934,
      "duration": 0.0375,
      "velocity": 93,
      "chip": "ym2612"
    },
    {
      "channel": 3,
      "note": 71,
      "start": 4.3955,
      "duration": 0.0356,
      "velocity": 96,
      "chip": "ym2612"
    },
    {
      "channel": 1,
      "note": 76,
      "start": 4.3974,
      "duration": 0.0336,
      "velocity": 96,
      "chip": "ym2612"
    },
    {
      "channel": 0,
      "note": 64,
      "start": 4.4333,
      "duration": 0.0452,
      "velocity": 93,
      "chip": "ym2612"
    },
    {
      "channel": 3,
      "note": 71,
      "start": 4.4354,
      "duration": 0.0432,
      "velocity": 96,
      "chip": "ym2612"
    },
    {
      "channel": 1,
      "note": 76,
      "start": 4.4385,
      "duration": 0.0401,
      "velocity": 96,
      "chip": "ym2612"
    },
    {
      "channel": 0,
      "note": 64,
      "start": 4.4822,
      "duration": 0.0741,
      "velocity": 93,
      "chip": "ym2612"
    },
    {
      "channel": 3,
      "note": 71,
      "start": 4.4844,
      "duration": 0.0347,
      "velocity": 96,
      "chip": "ym2612"
    },
    {
      "channel": 1,
      "note": 76,
      "start": 4.4866,
      "duration": 0.0325,
      "velocity": 96,
      "chip": "ym2612"
    },
    {
      "channel": 0,
      "note": 64,
      "start": 4.5998,
      "duration": 0.0381,
      "velocity": 93,
      "chip": "ym2612"
    },
    {
      "channel": 3,
      "note": 71,
      "start": 4.602,
      "duration": 0.0361,
      "velocity": 96,
      "chip": "ym2612"
    },
    {
      "channel": 1,
      "note": 76,
      "start": 4.605,
      "duration": 0.033,
      "velocity": 96,
      "chip": "ym2612"
    },
    {
      "channel": 0,
      "note": 64,
      "start": 4.6403,
      "duration": 0.0465,
      "velocity": 93,
      "chip": "ym2612"
    },
    {
      "channel": 3,
      "note": 71,
      "start": 4.6424,
      "duration": 0.0446,
      "velocity": 96,
      "chip": "ym2612"
    },
    {
      "channel": 1,
      "note": 76,
      "start": 4.646,
      "duration": 0.0409,
      "velocity": 96,
      "chip": "ym2612"
    },
    {
      "channel": 0,
      "note": 64,
      "start": 4.6907,
      "duration": 0.0377,
      "velocity": 93,
      "chip": "ym2612"
    },
    {
      "channel": 3,
      "note": 71,
      "start": 4.6927,
      "duration": 0.0358,
      "velocity": 96,
      "chip": "ym2612"
    },
    {
      "channel": 1,
      "note": 76,
      "start": 4.6949,
      "duration": 0.0336,
      "velocity": 96,
      "chip": "ym2612"
    },
    {
      "channel": 0,
      "note": 64,
      "start": 4.7308,
      "duration": 0.0452,
      "velocity": 93,
      "chip": "ym2612"
    },
    {
      "channel": 3,
      "note": 71,
      "start": 4.7329,
      "duration": 0.0432,
      "velocity": 96,
      "chip": "ym2612"
    },
    {
      "channel": 1,
      "note": 76,
      "start": 4.736,
      "duration": 0.0401,
      "velocity": 96,
      "chip": "ym2612"
    },
    {
      "channel": 0,
      "note": 64,
      "start": 4.7794,
      "duration": 0.0364,
      "velocity": 93,
      "chip": "ym2612"
    },
    {
      "channel": 3,
      "note": 71,
      "start": 4.7813,
      "duration": 0.0346,
      "velocity": 96,
      "chip": "ym2612"
    },
    {
      "channel": 1,
      "note": 76,
      "start": 4.7833,
      "duration": 0.0326,
      "velocity": 96,
      "chip": "ym2612"
    },
    {
      "channel": 0,
      "note": 64,
      "start": 4.8182,
      "duration": 0.0377,
      "velocity": 93,
      "chip": "ym2612"
    },
    {
      "channel": 3,
      "note": 71,
      "start": 4.8203,
      "duration": 0.0357,
      "velocity": 96,
      "chip": "ym2612"
    },
    {
      "channel": 1,
      "note": 76,
      "start": 4.8234,
      "duration": 0.0325,
      "velocity": 96,
      "chip": "ym2612"
    },
    {
      "channel": 0,
      "note": 64,
      "start": 4.8585,
      "duration": 0.0816,
      "velocity": 93,
      "chip": "ym2612"
    },
    {
      "channel": 3,
      "note": 72,
      "start": 4.8618,
      "duration": 0.0433,
      "velocity": 96,
      "chip": "ym2612"
    },
    {
      "channel": 1,
      "note": 77,
      "start": 4.8641,
      "duration": 0.041,
      "velocity": 96,
      "chip": "ym2612"
    },
    {
      "channel": 0,
      "note": 64,
      "start": 4.9863,
      "duration": 0.0375,
      "velocity": 93,
      "chip": "ym2612"
    },
    {
      "channel": 3,
      "note": 72,
      "start": 4.9884,
      "duration": 0.0355,
      "velocity": 96,
      "chip": "ym2612"
    },
    {
      "channel": 1,
      "note": 77,
      "start": 4.9904,
      "duration": 0.0335,
      "velocity": 96,
      "chip": "ym2612"
    },
    {
      "channel": 0,
      "note": 64,
      "start": 5.0262,
      "duration": 0.0373,
      "velocity": 93,
      "chip": "ym2612"
    },
    {
      "channel": 3,
      "note": 72,
      "start": 5.0281,
      "duration": 0.0355,
      "velocity": 96,
      "chip": "ym2612"
    },
    {
      "channel": 1,
      "note": 77,
      "start": 5.0301,
      "duration": 0.0335,
      "velocity": 96,
      "chip": "ym2612"
    },
    {
      "channel": 0,
      "note": 64,
      "start": 5.0659,
      "duration": 0.0445,
      "velocity": 93,
      "chip": "ym2612"
    },
    {
      "channel": 3,
      "note": 72,
      "start": 5.0695,
      "duration": 0.0411,
      "velocity": 96,
      "chip": "ym2612"
    },
    {
      "channel": 1,
      "note": 77,
      "start": 5.072,
      "duration": 0.0384,
      "velocity": 96,
      "chip": "ym2612"
    },
    {
      "channel": 0,
      "note": 64,
      "start": 5.1139,
      "duration": 0.0794,
      "velocity": 93,
      "chip": "ym2612"
    },
    {
      "channel": 3,
      "note": 71,
      "start": 5.1162,
      "duration": 0.0344,
      "velocity": 96,
      "chip": "ym2612"
    },
    {
      "channel": 4,
      "note": 76,
      "start": 5.1185,
      "duration": 0.0322,
      "velocity": 96,
      "chip": "ym2612"
    },
    {
      "channel": 0,
      "note": 64,
      "start": 5.2306,
      "duration": 0.081,
      "velocity": 93,
      "chip": "ym2612"
    },
    {
      "channel": 3,
      "note": 71,
      "start": 5.2336,
      "duration": 0.0366,
      "velocity": 96,
      "chip": "ym2612"
    },
    {
      "channel": 4,
      "note": 76,
      "start": 5.2357,
      "duration": 0.0345,
      "velocity": 96,
      "chip": "ym2612"
    },
    {
      "channel": 0,
      "note": 64,
      "start": 5.3506,
      "duration": 0.0446,
      "velocity": 93,
      "chip": "ym2612"
    },
    {
      "channel": 3,
      "note": 71,
      "start": 5.353,
      "duration": 0.0424,
      "velocity": 96,
      "chip": "ym2612"
    },
    {
      "channel": 4,
      "note": 76,
      "start": 5.3553,
      "duration": 0.0402,
      "velocity": 96,
      "chip": "ym2612"
    },
    {
      "channel": 0,
      "note": 64,
      "start": 5.3987,
      "duration": 0.0374,
      "velocity": 93,
      "chip": "ym2612"
    },
    {
      "channel": 3,
      "note": 71,
      "start": 5.4008,
      "duration": 0.0355,
      "velocity": 96,
      "chip": "ym2612"
    },
    {
      "channel": 4,
      "note": 76,
      "start": 5.4037,
      "duration": 0.0326,
      "velocity": 96,
      "chip": "ym2612"
    },
    {
      "channel": 0,
      "note": 64,
      "start": 5.4385,
      "duration": 0.0391,
      "velocity": 93,
      "chip": "ym2612"
    },
    {
      "channel": 3,
      "note": 71,
      "start": 5.4407,
      "duration": 0.0372,
      "velocity": 96,
      "chip": "ym2612"
    },
    {
      "channel": 4,
      "note": 76,
      "start": 5.4438,
      "duration": 0.0342,
      "velocity": 96,
      "chip": "ym2612"
    },
    {
      "channel": 0,
      "note": 64,
      "start": 5.4814,
      "duration": 0.0777,
      "velocity": 93,
      "chip": "ym2612"
    },
    {
      "channel": 3,
      "note": 71,
      "start": 5.4836,
      "duration": 0.0401,
      "velocity": 96,
      "chip": "ym2612"
    },
    {
      "channel": 4,
      "note": 76,
      "start": 5.4859,
      "duration": 0.0379,
      "velocity": 96,
      "chip": "ym2612"
    },
    {
      "channel": 0,
      "note": 64,
      "start": 5.6054,
      "duration": 0.0369,
      "velocity": 93,
      "chip": "ym2612"
    },
    {
      "channel": 3,
      "note": 71,
      "start": 5.6077,
      "duration": 0.0347,
      "velocity": 96,
      "chip": "ym2612"
    },
    {
      "channel": 4,
      "note": 76,
      "start": 5.61,
      "duration": 0.0325,
      "velocity": 96,
      "chip": "ym2612"
    },
    {
      "channel": 0,
      "note": 64,
      "start": 5.6446,
      "duration": 0.0397,
      "velocity": 93,
      "chip": "ym2612"
    },
    {
      "channel": 3,
      "note": 71,
      "start": 5.6466,
      "duration": 0.0378,
      "velocity": 96,
      "chip": "ym2612"
    },
    {
      "channel": 4,
      "note": 76,
      "start": 5.6488,
      "duration": 0.0357,
      "velocity": 96,
      "chip": "ym2612"
    },
    {
      "channel": 0,
      "note": 64,
      "start": 5.6877,
      "duration": 0.0433,
      "velocity": 93,
      "chip": "ym2612"
    },
    {
      "channel": 3,
      "note": 71,
      "start": 5.6896,
      "duration": 0.0415,
      "velocity": 96,
      "chip": "ym2612"
    },
    {
      "channel": 4,
      "note": 76,
      "start": 5.6921,
      "duration": 0.0391,
      "velocity": 96,
      "chip": "ym2612"
    },
    {
      "channel": 0,
      "note": 64,
      "start": 5.7335,
      "duration": 0.039,
      "velocity": 93,
      "chip": "ym2612"
    },
    {
      "channel": 3,
      "note": 71,
      "start": 5.7368,
      "duration": 0.0359,
      "velocity": 96,
      "chip": "ym2612"
    },
    {
      "channel": 4,
      "note": 76,
      "start": 5.7399,
      "duration": 0.0329,
      "velocity": 96,
      "chip": "ym2612"
    },
    {
      "channel": 0,
      "note": 64,
      "start": 5.775,
      "duration": 0.0449,
      "velocity": 93,
      "chip": "ym2612"
    },
    {
      "channel": 3,
      "note": 71,
      "start": 5.7771,
      "duration": 0.0429,
      "velocity": 96,
      "chip": "ym2612"
    },
    {
      "channel": 4,
      "note": 76,
      "start": 5.7802,
      "duration": 0.0399,
      "velocity": 96,
      "chip": "ym2612"
    },
    {
      "channel": 0,
      "note": 64,
      "start": 5.8232,
      "duration": 0.0363,
      "velocity": 93,
      "chip": "ym2612"
    },
    {
      "channel": 3,
      "note": 71,
      "start": 5.8251,
      "duration": 0.0345,
      "velocity": 96,
      "chip": "ym2612"
    },
    {
      "channel": 4,
      "note": 76,
      "start": 5.8273,
      "duration": 0.0324,
      "velocity": 96,
      "chip": "ym2612"
    },
    {
      "channel": 0,
      "note": 64,
      "start": 5.8626,
      "duration": 0.0808,
      "velocity": 93,
      "chip": "ym2612"
    },
    {
      "channel": 3,
      "note": 69,
      "start": 5.8656,
      "duration": 0.0409,
      "velocity": 96,
      "chip": "ym2612"
    },
    {
      "channel": 4,
      "note": 74,
      "start": 5.8676,
      "duration": 0.039,
      "velocity": 96,
      "chip": "ym2612"
    },
    {
      "channel": 3,
      "note": 69,
      "start": 5.9098,
      "duration": 0.0338,
      "velocity": 96,
      "chip": "ym2612"
    },
    {
      "channel": 4,
      "note": 74,
      "start": 5.9118,
      "duration": 0.0318,
      "velocity": 96,
      "chip": "ym2612"
    },
    {
      "channel": 3,
      "note": 69,
      "start": 5.946,
      "duration": 0.0349,
      "velocity": 96,
      "chip": "ym2612"
    },
    {
      "channel": 4,
      "note": 74,
      "start": 5.9496,
      "duration": 0.0313,
      "velocity": 96,
      "chip": "ym2612"
    },
    {
      "channel": 0,
      "note": 64,
      "start": 5.9834,
      "duration": 0.0453,
      "velocity": 93,
      "chip": "ym2612"
    },
    {
      "channel": 3,
      "note": 72,
      "start": 5.9855,
      "duration": 0.0433,
      "velocity": 96,
      "chip": "ym2612"
    },
    {
      "channel": 4,
      "note": 77,
      "start": 5.9877,
      "duration": 0.0412,
      "velocity": 96,
      "chip": "ym2612"
    },
    {
      "channel": 0,
      "note": 64,
      "start": 6.0318,
      "duration": 0.0364,
      "velocity": 93,
      "chip": "ym2612"
    },
    {
      "channel": 3,
      "note": 72,
      "start": 6.0339,
      "duration": 0.0344,
      "velocity": 96,
      "chip": "ym2612"
    },
    {
      "channel": 4,
      "note": 77,
      "start": 6.0359,
      "duration": 0.0325,
      "velocity": 96,
      "chip": "ym2612"
    },
    {
      "channel": 0,
      "note": 64,
      "start": 6.0706,
      "duration": 0.0449,
      "velocity": 93,
      "chip": "ym2612"
    },
    {
      "channel": 3,
      "note": 72,
      "start": 6.0727,
      "duration": 0.0429,
      "velocity": 96,
      "chip": "ym2612"
    },
    {
      "channel": 4,
      "note": 77,
      "start": 6.0759,
      "duration": 0.0399,
      "velocity": 96,
      "chip": "ym2612"
    },
    {
      "channel": 0,
      "note": 64,
      "start": 6.1192,
      "duration": 0.0726,
      "velocity": 93,
      "chip": "ym2612"
    },
    {
      "channel": 3,
      "note": 83,
      "start": 6.1215,
      "duration": 0.1139,
      "velocity": 96,
      "chip": "ym2612"
    },
    {
      "channel": 1,
      "note": 88,
      "start": 6.1235,
      "duration": 0.1117,
      "velocity": 96,
      "chip": "ym2612"
    },
    {
      "channel": 4,
      "note": 76,
      "start": 6.1271,
      "duration": 0.1083,
      "velocity": 96,
      "chip": "ym2612"
    },
    {
      "channel": 0,
      "note": 64,
      "start": 6.2376,
      "duration": 0.0814,
      "velocity": 93,
      "chip": "ym2612"
    },
    {
      "channel": 3,
      "note": 71,
      "start": 6.2398,
      "duration": 0.0366,
      "velocity": 96,
      "chip": "ym2612"
    },
    {
      "channel": 1,
      "note": 76,
      "start": 6.242,
      "duration": 0.0343,
      "velocity": 96,
      "chip": "ym2612"
    },
    {
      "channel": 4,
      "note": 64,
      "start": 6.2459,
      "duration": 0.0305,
      "velocity": 96,
      "chip": "ym2612"
    },
    {
      "channel": 0,
      "note": 64,
      "start": 6.3569,
      "duration": 0.0395,
      "velocity": 93,
      "chip": "ym2612"
    },
    {
      "channel": 3,
      "note": 71,
      "start": 6.359,
      "duration": 0.0375,
      "velocity": 96,
      "chip": "ym2612"
    },
    {
      "channel": 1,
      "note": 76,
      "start": 6.3621,
      "duration": 0.0344,
      "velocity": 96,
      "chip": "ym2612"
    },
    {
      "channel": 4,
      "note": 64,
      "start": 6.3642,
      "duration": 0.0324,
      "velocity": 96,
      "chip": "ym2612"
    },
    {
      "channel": 0,
      "note": 64,
      "start": 6.3989,
      "duration": 0.0441,
      "velocity": 93,
      "chip": "ym2612"
    },
    {
      "channel": 3,
      "note": 71,
      "start": 6.401,
      "duration": 0.0422,
      "velocity": 96,
      "chip": "ym2612"
    },
    {
      "channel": 1,
      "note": 76,
      "start": 6.4041,
      "duration": 0.039,
      "velocity": 96,
      "chip": "ym2612"
    },
    {
      "channel": 4,
      "note": 64,
      "start": 6.4067,
      "duration": 0.0365,
      "velocity": 96,
      "chip": "ym2612"
    },
    {
      "channel": 0,
      "note": 64,
      "start": 6.4455,
      "duration": 0.0384,
      "velocity": 93,
      "chip": "ym2612"
    },
    {
      "channel": 3,
      "note": 71,
      "start": 6.4476,
      "duration": 0.0364,
      "velocity": 96,
      "chip": "ym2612"
    },
    {
      "channel": 1,
      "note": 76,
      "start": 6.4495,
      "duration": 0.0345,
      "velocity": 96,
      "chip": "ym2612"
    },
    {
      "channel": 4,
      "note": 64,
      "start": 6.4526,
      "duration": 0.0315,
      "velocity": 96,
      "chip": "ym2612"
    },
    {
      "channel": 0,
      "note": 64,
      "start": 6.4865,
      "duration": 0.0815,
      "velocity": 93,
      "chip": "ym2612"
    },
    {
      "channel": 3,
      "note": 71,
      "start": 6.4891,
      "duration": 0.0433,
      "velocity": 96,
      "chip": "ym2612"
    },
    {
      "channel": 1,
      "note": 76,
      "start": 6.4922,
      "duration": 0.0401,
      "velocity": 96,
      "chip": "ym2612"
    },
    {
      "channel": 4,
      "note": 64,
      "start": 6.4944,
      "duration": 0.038,
      "velocity": 96,
      "chip": "ym2612"
    },
    {
      "channel": 0,
      "note": 64,
      "start": 6.6076,
      "duration": 0.0437,
      "velocity": 93,
      "chip": "ym2612"
    },
    {
      "channel": 3,
      "note": 71,
      "start": 6.6108,
      "duration": 0.0407,
      "velocity": 96,
      "chip": "ym2612"
    },
    {
      "channel": 1,
      "note": 76,
      "start": 6.6129,
      "duration": 0.0384,
      "velocity": 96,
      "chip": "ym2612"
    },
    {
      "channel": 4,
      "note": 64,
      "start": 6.6152,
      "duration": 0.0363,
      "velocity": 96,
      "chip": "ym2612"
    },
    {
      "channel": 0,
      "note": 64,
      "start": 6.6537,
      "duration": 0.0394,
      "velocity": 93,
      "chip": "ym2612"
    },
    {
      "channel": 3,
      "note": 71,
      "start": 6.6557,
      "duration": 0.0375,
      "velocity": 96,
      "chip": "ym2612"
    },
    {
      "channel": 1,
      "note": 76,
      "start": 6.6576,
      "duration": 0.0355,
      "velocity": 96,
      "chip": "ym2612"
    },
    {
      "channel": 4,
      "note": 64,
      "start": 6.6597,
      "duration": 0.0335,
      "velocity": 96,
      "chip": "ym2612"
    },
    {
      "channel": 0,
      "note": 64,
      "start": 6.6953,
      "duration": 0.0469,
      "velocity": 93,
      "chip": "ym2612"
    },
    {
      "channel": 3,
      "note": 71,
      "start": 6.6973,
      "duration": 0.0451,
      "velocity": 96,
      "chip": "ym2612"
    },
    {
      "channel": 1,
      "note": 76,
      "start": 6.6993,
      "duration": 0.0431,
      "velocity": 96,
      "chip": "ym2612"
    },
    {
      "channel": 4,
      "note": 64,
      "start": 6.7031,
      "duration": 0.0394,
      "velocity": 96,
      "chip": "ym2612"
    },
    {
      "channel": 0,
      "note": 64,
      "start": 6.7454,
      "duration": 0.0389,
      "velocity": 93,
      "chip": "ym2612"
    },
    {
      "channel": 3,
      "note": 71,
      "start": 6.7474,
      "duration": 0.0371,
      "velocity": 96,
      "chip": "ym2612"
    },
    {
      "channel": 1,
      "note": 76,
      "start": 6.7494,
      "duration": 0.0351,
      "velocity": 96,
      "chip": "ym2612"
    },
    {
      "channel": 4,
      "note": 64,
      "start": 6.7518,
      "duration": 0.0811,
      "velocity": 96,
      "chip": "ym2612"
    },
    {
      "channel": 0,
      "note": 64,
      "start": 6.7867,
      "duration": 0.046,
      "velocity": 93,
      "chip": "ym2612"
    },
    {
      "channel": 3,
      "note": 71,
      "start": 6.7888,
      "duration": 0.0441,
      "velocity": 96,
      "chip": "ym2612"
    },
    {
      "channel": 1,
      "note": 76,
      "start": 6.7909,
      "duration": 0.0419,
      "velocity": 96,
      "chip": "ym2612"
    },
    {
      "channel": 0,
      "note": 64,
      "start": 6.8358,
      "duration": 0.0377,
      "velocity": 93,
      "chip": "ym2612"
    },
    {
      "channel": 3,
      "note": 71,
      "start": 6.8379,
      "duration": 0.0357,
      "velocity": 96,
      "chip": "ym2612"
    },
    {
      "channel": 1,
      "note": 76,
      "start": 6.84,
      "duration": 0.0336,
      "velocity": 96,
      "chip": "ym2612"
    },
    {
      "channel": 4,
      "note": 64,
      "start": 6.8423,
      "duration": 0.0314,
      "velocity": 96,
      "chip": "ym2612"
    },
    {
      "channel": 0,
      "note": 64,
      "start": 6.8763,
      "duration": 0.0802,
      "velocity": 93,
      "chip": "ym2612"
    },
    {
      "channel": 3,
      "note": 72,
      "start": 6.8785,
      "duration": 0.0363,
      "velocity": 96,
      "chip": "ym2612"
    },
    {
      "channel": 1,
      "note": 77,
      "start": 6.8807,
      "duration": 0.034,
      "velocity": 96,
      "chip": "ym2612"
    },
    {
      "channel": 4,
      "note": 65,
      "start": 6.8842,
      "duration": 0.0307,
      "velocity": 96,
      "chip": "ym2612"
    },
    {
      "channel": 0,
      "note": 64,
      "start": 6.9949,
      "duration": 0.0456,
      "velocity": 93,
      "chip": "ym2612"
    },
    {
      "channel": 3,
      "note": 72,
      "start": 6.9971,
      "duration": 0.0435,
      "velocity": 96,
      "chip": "ym2612"
    },
    {
      "channel": 1,
      "note": 77,
      "start": 6.9994,
      "duration": 0.0412,
      "velocity": 96,
      "chip": "ym2612"
    },
    {
      "channel": 4,
      "note": 65,
      "start": 7.0027,
      "duration": 0.038,
      "velocity": 96,
      "chip": "ym2612"
    },
    {
      "channel": 0,
      "note": 64,
      "start": 7.0429,
      "duration": 0.0391,
      "velocity": 93,
      "chip": "ym2612"
    },
    {
      "channel": 3,
      "note": 72,
      "start": 7.0449,
      "duration": 0.0373,
      "velocity": 96,
      "chip": "ym2612"
    },
    {
      "channel": 1,
      "note": 77,
      "start": 7.0479,
      "duration": 0.0342,
      "velocity": 96,
      "chip": "ym2612"
    },
    {
      "channel": 4,
      "note": 65,
      "start": 7.0503,
      "duration": 0.032,
      "velocity": 96,
      "chip": "ym2612"
    },
    {
      "channel": 0,
      "note": 64,
      "start": 7.0844,
      "duration": 0.0396,
      "velocity": 93,
      "chip": "ym2612"
    },
    {
      "channel": 3,
      "note": 72,
      "start": 7.0864,
      "duration": 0.0376,
      "velocity": 96,
      "chip": "ym2612"
    },
    {
      "channel": 1,
      "note": 77,
      "start": 7.0886,
      "duration": 0.0354,
      "velocity": 96,
      "chip": "ym2612"
    },
    {
      "channel": 4,
      "note": 65,
      "start": 7.0918,
      "duration": 0.0323,
      "velocity": 96,
      "chip": "ym2612"
    },
    {
      "channel": 0,
      "note": 64,
      "start": 7.1265,
      "duration": 0.0815,
      "velocity": 93,
      "chip": "ym2612"
    },
    {
      "channel": 3,
      "note": 71,
      "start": 7.1286,
      "duration": 0.0436,
      "velocity": 96,
      "chip": "ym2612"
    },
    {
      "channel": 1,
      "note": 64,
      "start": 7.1317,
      "duration": 0.0404,
      "velocity": 96,
      "chip": "ym2612"
    },
    {
      "channel": 4,
      "note": 76,
      "start": 7.1343,
      "duration": 0.038,
      "velocity": 96,
      "chip": "ym2612"
    },
    {
      "channel": 0,
      "note": 64,
      "start": 7.2529,
      "duration": 0.0793,
      "velocity": 93,
      "chip": "ym2612"
    },
    {
      "channel": 3,
      "note": 71,
      "start": 7.2561,
      "duration": 0.0361,
      "velocity": 96,
      "chip": "ym2612"
    },
    {
      "channel": 1,
      "note": 64,
      "start": 7.2583,
      "duration": 0.0339,
      "velocity": 96,
      "chip": "ym2612"
    },
    {
      "channel": 4,
      "note": 76,
      "start": 7.2609,
      "duration": 0.0315,
      "velocity": 96,
      "chip": "ym2612"
    },
    {
      "channel": 3,
      "note": 71,
      "start": 7.2946,
      "duration": 0.0379,
      "velocity": 96,
      "chip": "ym2612"
    },
    {
      "channel": 1,
      "note": 64,
      "start": 7.2965,
      "duration": 0.0359,
      "velocity": 96,
      "chip": "ym2612"
    },
    {
      "channel": 4,
      "note": 76,
      "start": 7.2987,
      "duration": 0.0338,
      "velocity": 96,
      "chip": "ym2612"
    },
    {
      "channel": 3,
      "note": 71,
      "start": 7.3347,
      "duration": 0.0403,
      "velocity": 96,
      "chip": "ym2612"
    },
    {
      "channel": 1,
      "note": 64,
      "start": 7.3371,
      "duration": 0.0378,
      "velocity": 96,
      "chip": "ym2612"
    },
    {
      "channel": 4,
      "note": 76,
      "start": 7.3405,
      "duration": 0.0345,
      "velocity": 96,
      "chip": "ym2612"
    },
    {
      "channel": 0,
      "note": 64,
      "start": 7.3784,
      "duration": 0.0387,
      "velocity": 93,
      "chip": "ym2612"
    },
    {
      "channel": 3,
      "note": 71,
      "start": 7.3806,
      "duration": 0.0368,
      "velocity": 96,
      "chip": "ym2612"
    },
    {
      "channel": 1,
      "note": 64,
      "start": 7.3826,
      "duration": 0.0346,
      "velocity": 96,
      "chip": "ym2612"
    },
    {
      "channel": 4,
      "note": 76,
      "start": 7.3848,
      "duration": 0.0326,
      "velocity": 96,
      "chip": "ym2612"
    },
    {
      "channel": 0,
      "note": 64,
      "start": 7.4193,
      "duration": 0.0417,
      "velocity": 93,
      "chip": "ym2612"
    },
    {
      "channel": 0,
      "note": 64,
      "start": 7.4637,
      "duration": 0.0369,
      "velocity": 93,
      "chip": "ym2612"
    },
    {
      "channel": 0,
      "note": 64,
      "start": 7.5032,
      "duration": 0.0838,
      "velocity": 93,
      "chip": "ym2612"
    },
    {
      "channel": 3,
      "note": 71,
      "start": 7.5053,
      "duration": 0.0384,
      "velocity": 96,
      "chip": "ym2612"
    },
    {
      "channel": 1,
      "note": 64,
      "start": 7.5073,
      "duration": 0.0363,
      "velocity": 96,
      "chip": "ym2612"
    },
    {
      "channel": 4,
      "note": 76,
      "start": 7.5107,
      "duration": 0.0331,
      "velocity": 96,
      "chip": "ym2612"
    },
    {
      "channel": 3,
      "note": 71,
      "start": 7.5461,
      "duration": 0.0409,
      "velocity": 96,
      "chip": "ym2612"
    },
    {
      "channel": 1,
      "note": 64,
      "start": 7.5481,
      "duration": 0.0388,
      "velocity": 96,
      "chip": "ym2612"
    },
    {
      "channel": 4,
      "note": 76,
      "start": 7.5512,
      "duration": 0.0359,
      "velocity": 96,
      "chip": "ym2612"
    },
    {
      "channel": 3,
      "note": 71,
      "start": 7.5895,
      "duration": 0.0356,
      "velocity": 96,
      "chip": "ym2612"
    },
    {
      "channel": 1,
      "note": 64,
      "start": 7.5914,
      "duration": 0.0336,
      "velocity": 96,
      "chip": "ym2612"
    },
    {
      "channel": 4,
      "note": 76,
      "start": 7.5935,
      "duration": 0.0316,
      "velocity": 96,
      "chip": "ym2612"
    },
    {
      "channel": 0,
      "note": 64,
      "start": 7.6285,
      "duration": 0.0444,
      "velocity": 93,
      "chip": "ym2612"
    },
    {
      "channel": 3,
      "note": 72,
      "start": 7.6311,
      "duration": 0.489,
      "velocity": 96,
      "chip": "ym2612"
    },
    {
      "channel": 1,
      "note": 65,
      "start": 7.6335,
      "duration": 0.4865,
      "velocity": 96,
      "chip": "ym2612"
    },
    {
      "channel": 4,
      "note": 77,
      "start": 7.6371,
      "duration": 0.483,
      "velocity": 96,
      "chip": "ym2612"
    },
    {
      "channel": 0,
      "note": 64,
      "start": 7.6752,
      "duration": 0.0364,
      "velocity": 93,
      "chip": "ym2612"
    },
    {
      "channel": 0,
      "note": 64,
      "start": 7.714,
      "duration": 0.043,
      "velocity": 93,
      "chip": "ym2612"
    },
    {
      "channel": 0,
      "note": 64,
      "start": 7.7592,
      "duration": 0.037,
      "velocity": 93,
      "chip": "ym2612"
    },
    {
      "channel": 0,
      "note": 64,
      "start": 7.7984,
      "duration": 0.0363,
      "velocity": 93,
      "chip": "ym2612"
    },
    {
      "channel": 0,
      "note": 64,
      "start": 7.8369,
      "duration": 0.042,
      "velocity": 93,
      "chip": "ym2612"
    },
    {
      "channel": 0,
      "note": 64,
      "start": 7.8814,
      "duration": 0.0799,
      "velocity": 93,
      "chip": "ym2612"
    },
    {
      "channel": 0,
      "note": 64,
      "start": 7.9998,
      "duration": 0.0371,
      "velocity": 93,
      "chip": "ym2612"
    },
    {
      "channel": 0,
      "note": 64,
      "start": 8.0394,
      "duration": 0.0428,
      "velocity": 93,
      "chip": "ym2612"
    },
    {
      "channel": 0,
      "note": 64,
      "start": 8.0846,
      "duration": 0.0354,
      "velocity": 93,
      "chip": "ym2612"
    },
    {
      "channel": 0,
      "note": 83,
      "start": 8.1243,
      "duration": 1.0014,
      "velocity": 96,
      "chip": "ym2612"
    },
    {
      "channel": 3,
      "note": 76,
      "start": 8.1292,
      "duration": 0.1252,
      "velocity": 122,
      "chip": "ym2612"
    },
    {
      "channel": 1,
      "note": 64,
      "start": 8.1324,
      "duration": 0.122,
      "velocity": 122,
      "chip": "ym2612"
    },
    {
      "channel": 4,
      "note": 76,
      "start": 8.1361,
      "duration": 0.9901,
      "velocity": 96,
      "chip": "ym2612"
    },
    {
      "channel": 3,
      "note": 71,
      "start": 8.257,
      "duration": 0.1189,
      "velocity": 122,
      "chip": "ym2612"
    },
    {
      "channel": 1,
      "note": 59,
      "start": 8.2592,
      "duration": 0.1166,
      "velocity": 122,
      "chip": "ym2612"
    },
    {
      "channel": 3,
      "note": 76,
      "start": 8.3788,
      "duration": 0.2971,
      "velocity": 122,
      "chip": "ym2612"
    },
    {
      "channel": 1,
      "note": 64,
      "start": 8.3812,
      "duration": 0.2945,
      "velocity": 122,
      "chip": "ym2612"
    },
    {
      "channel": 3,
      "note": 71,
      "start": 8.6788,
      "duration": 0.1472,
      "velocity": 122,
      "chip": "ym2612"
    },
    {
      "channel": 1,
      "note": 59,
      "start": 8.6812,
      "duration": 0.1445,
      "velocity": 122,
      "chip": "ym2612"
    },
    {
      "channel": 3,
      "note": 76,
      "start": 8.8286,
      "duration": 0.1474,
      "velocity": 122,
      "chip": "ym2612"
    },
    {
      "channel": 1,
      "note": 64,
      "start": 8.8307,
      "duration": 0.1451,
      "velocity": 122,
      "chip": "ym2612"
    },
    {
      "channel": 3,
      "note": 71,
      "start": 8.9786,
      "duration": 0.1475,
      "velocity": 122,
      "chip": "ym2612"
    },
    {
      "channel": 1,
      "note": 59,
      "start": 8.9807,
      "duration": 0.1451,
      "velocity": 122,
      "chip": "ym2612"
    },
    {
      "channel": 0,
      "note": 86,
      "start": 9.1288,
      "duration": 1.2136,
      "velocity": 96,
      "chip": "ym2612"
    },
    {
      "channel": 3,
      "note": 76,
      "start": 9.1313,
      "duration": 1.2113,
      "velocity": 122,
      "chip": "ym2612"
    },
    {
      "channel": 1,
      "note": 64,
      "start": 9.1337,
      "duration": 1.2088,
      "velocity": 122,
      "chip": "ym2612"
    },
    {
      "channel": 4,
      "note": 77,
      "start": 9.1374,
      "duration": 1.2054,
      "velocity": 105,
      "chip": "ym2612"
    },
    {
      "channel": 3,
      "note": 76,
      "start": 10.3471,
      "duration": 0.2622,
      "velocity": 96,
      "chip": "ym2612"
    },
    {
      "channel": 1,
      "note": 83,
      "start": 10.3512,
      "duration": 0.258,
      "velocity": 96,
      "chip": "ym2612"
    },
    {
      "channel": 3,
      "note": 76,
      "start": 10.6122,
      "duration": 0.0971,
      "velocity": 96,
      "chip": "ym2612"
    },
    {
      "channel": 1,
      "note": 83,
      "start": 10.6146,
      "duration": 0.0945,
      "velocity": 96,
      "chip": "ym2612"
    },
    {
      "channel": 3,
      "note": 76,
      "start": 10.7119,
      "duration": 0.0807,
      "velocity": 96,
      "chip": "ym2612"
    },
    {
      "channel": 1,
      "note": 83,
      "start": 10.7141,
      "duration": 0.0784,
      "velocity": 96,
      "chip": "ym2612"
    },
    {
      "channel": 3,
      "note": 76,
      "start": 10.7957,
      "duration": 0.0803,
      "velocity": 96,
      "chip": "ym2612"
    },
    {
      "channel": 1,
      "note": 83,
      "start": 10.7978,
      "duration": 0.0779,
      "velocity": 96,
      "chip": "ym2612"
    },
    {
      "channel": 3,
      "note": 77,
      "start": 10.8786,
      "duration": 0.0973,
      "velocity": 96,
      "chip": "ym2612"
    },
    {
      "channel": 1,
      "note": 84,
      "start": 10.8807,
      "duration": 0.095,
      "velocity": 96,
      "chip": "ym2612"
    },
    {
      "channel": 3,
      "note": 76,
      "start": 10.9785,
      "duration": 0.0808,
      "velocity": 96,
      "chip": "ym2612"
    },
    {
      "channel": 1,
      "note": 83,
      "start": 10.9807,
      "duration": 0.0785,
      "velocity": 96,
      "chip": "ym2612"
    },
    {
      "channel": 3,
      "note": 76,
      "start": 11.0619,
      "duration": 0.0973,
      "velocity": 96,
      "chip": "ym2612"
    },
    {
      "channel": 1,
      "note": 83,
      "start": 11.0641,
      "duration": 0.095,
      "velocity": 96,
      "chip": "ym2612"
    },
    {
      "channel": 3,
      "note": 79,
      "start": 11.1618,
      "duration": 0.0808,
      "velocity": 96,
      "chip": "ym2612"
    },
    {
      "channel": 1,
      "note": 86,
      "start": 11.164,
      "duration": 0.0785,
      "velocity": 96,
      "chip": "ym2612"
    },
    {
      "channel": 3,
      "note": 76,
      "start": 11.2452,
      "duration": 0.0827,
      "velocity": 96,
      "chip": "ym2612"
    },
    {
      "channel": 1,
      "note": 83,
      "start": 11.2474,
      "duration": 0.0803,
      "velocity": 96,
      "chip": "ym2612"
    },
    {
      "channel": 3,
      "note": 76,
      "start": 11.3305,
      "duration": 0.0954,
      "velocity": 96,
      "chip": "ym2612"
    },
    {
      "channel": 1,
      "note": 83,
      "start": 11.3327,
      "duration": 0.0931,
      "velocity": 96,
      "chip": "ym2612"
    },
    {
      "channel": 3,
      "note": 83,
      "start": 11.4287,
      "duration": 0.0805,
      "velocity": 96,
      "chip": "ym2612"
    },
    {
      "channel": 1,
      "note": 90,
      "start": 11.431,
      "duration": 0.078,
      "velocity": 96,
      "chip": "ym2612"
    },
    {
      "channel": 3,
      "note": 83,
      "start": 11.6118,
      "duration": 0.0808,
      "velocity": 96,
      "chip": "ym2612"
    },
    {
      "channel": 1,
      "note": 90,
      "start": 11.6141,
      "duration": 0.0784,
      "velocity": 96,
      "chip": "ym2612"
    },
    {
      "channel": 3,
      "note": 84,
      "start": 11.6959,
      "duration": 1.5302,
      "velocity": 96,
      "chip": "ym2612"
    },
    {
      "channel": 1,
      "note": 91,
      "start": 11.6986,
      "duration": 1.5273,
      "velocity": 96,
      "chip": "ym2612"
    },
    {
      "channel": 0,
      "note": 111,
      "start": 12.5963,
      "duration": 0.0962,
      "velocity": 105,
      "chip": "ym2612"
    },
    {
      "channel": 4,
      "note": 84,
      "start": 12.599,
      "duration": 0.0937,
      "velocity": 105,
      "chip": "ym2612"
    },
    {
      "channel": 0,
      "note": 115,
      "start": 12.6951,
      "duration": 0.0807,
      "velocity": 105,
      "chip": "ym2612"
    },
    {
      "channel": 4,
      "note": 88,
      "start": 12.6975,
      "duration": 0.0785,
      "velocity": 105,
      "chip": "ym2612"
    },
    {
      "channel": 0,
      "note": 116,
      "start": 12.7785,
      "duration": 0.0806,
      "velocity": 105,
      "chip": "ym2612"
    },
    {
      "channel": 4,
      "note": 91,
      "start": 12.7809,
      "duration": 0.0784,
      "velocity": 105,
      "chip": "ym2612"
    },
    {
      "channel": 0,
      "note": 116,
      "start": 12.862,
      "duration": 0.3637,
      "velocity": 105,
      "chip": "ym2612"
    },
    {
      "channel": 4,
      "note": 96,
      "start": 12.8654,
      "duration": 0.3608,
      "velocity": 105,
      "chip": "ym2612"
    },
    {
      "channel": 0,
      "note": 60,
      "start": 13.2302,
      "duration": 2.7285,
      "velocity": 93,
      "chip": "ym2612"
    },
    {
      "channel": 3,
      "note": 48,
      "start": 13.233,
      "duration": 2.7261,
      "velocity": 96,
      "chip": "ym2612"
    },
    {
      "channel": 1,
      "note": 60,
      "start": 13.2357,
      "duration": 2.7232,
      "velocity": 96,
      "chip": "ym2612"
    },
    {
      "channel": 0,
      "note": 64,
      "start": 15.9623,
      "duration": 0.0804,
      "velocity": 93,
      "chip": "ym2612"
    },
    {
      "channel": 0,
      "note": 64,
      "start": 16.1485,
      "duration": 0.0807,
      "velocity": 93,
      "chip": "ym2612"
    },
    {
      "channel": 0,
      "note": 64,
      "start": 16.2325,
      "duration": 0.0718,
      "velocity": 93,
      "chip": "ym2612"
    },
    {
      "channel": 0,
      "note": 64,
      "start": 16.3992,
      "duration": 0.0809,
      "velocity": 93,
      "chip": "ym2612"
    },
    {
      "channel": 0,
      "note": 64,
      "start": 16.4836,
      "duration": 0.0774,
      "velocity": 93,
      "chip": "ym2612"
    },
    {
      "channel": 0,
      "note": 64,
      "start": 16.6651,
      "duration": 0.0376,
      "velocity": 93,
      "chip": "ym2612"
    },
    {
      "channel": 0,
      "note": 64,
      "start": 16.7051,
      "duration": 0.0383,
      "velocity": 93,
      "chip": "ym2612"
    },
    {
      "channel": 0,
      "note": 65,
      "start": 16.746,
      "duration": 0.0784,
      "velocity": 93,
      "chip": "ym2612"
    },
    {
      "channel": 0,
      "note": 65,
      "start": 16.8275,
      "duration": 0.078,
      "velocity": 93,
      "chip": "ym2612"
    },
    {
      "channel": 0,
      "note": 65,
      "start": 16.9079,
      "duration": 0.0787,
      "velocity": 93,
      "chip": "ym2612"
    },
    {
      "channel": 0,
      "note": 64,
      "start": 16.9889,
      "duration": 0.079,
      "velocity": 93,
      "chip": "ym2612"
    },
    {
      "channel": 0,
      "note": 64,
      "start": 17.1582,
      "duration": 0.0795,
      "velocity": 93,
      "chip": "ym2612"
    },
    {
      "channel": 0,
      "note": 64,
      "start": 17.2402,
      "duration": 0.0792,
      "velocity": 93,
      "chip": "ym2612"
    },
    {
      "channel": 0,
      "note": 64,
      "start": 17.4239,
      "duration": 0.0805,
      "velocity": 93,
      "chip": "ym2612"
    },
    {
      "channel": 0,
      "note": 64,
      "start": 17.5079,
      "duration": 0.0778,
      "velocity": 93,
      "chip": "ym2612"
    },
    {
      "channel": 0,
      "note": 64,
      "start": 17.6738,
      "duration": 0.0447,
      "velocity": 93,
      "chip": "ym2612"
    },
    {
      "channel": 0,
      "note": 64,
      "start": 17.7215,
      "duration": 0.036,
      "velocity": 93,
      "chip": "ym2612"
    },
    {
      "channel": 0,
      "note": 65,
      "start": 17.7605,
      "duration": 0.0775,
      "velocity": 93,
      "chip": "ym2612"
    },
    {
      "channel": 0,
      "note": 65,
      "start": 17.8403,
      "duration": 0.0789,
      "velocity": 93,
      "chip": "ym2612"
    },
    {
      "channel": 0,
      "note": 65,
      "start": 17.9213,
      "duration": 0.0785,
      "velocity": 93,
      "chip": "ym2612"
    },
    {
      "channel": 0,
      "note": 64,
      "start": 18.002,
      "duration": 0.0743,
      "velocity": 93,
      "chip": "ym2612"
    },
    {
      "channel": 0,
      "note": 64,
      "start": 18.1687,
      "duration": 0.0807,
      "velocity": 93,
      "chip": "ym2612"
    },
    {
      "channel": 0,
      "note": 64,
      "start": 18.2527,
      "duration": 0.0774,
      "velocity": 93,
      "chip": "ym2612"
    },
    {
      "channel": 0,
      "note": 64,
      "start": 18.4343,
      "duration": 0.0801,
      "velocity": 93,
      "chip": "ym2612"
    },
    {
      "channel": 0,
      "note": 64,
      "start": 18.5178,
      "duration": 0.0713,
      "velocity": 93,
      "chip": "ym2612"
    },
    {
      "channel": 0,
      "note": 64,
      "start": 18.6838,
      "duration": 0.0457,
      "velocity": 93,
      "chip": "ym2612"
    },
    {
      "channel": 0,
      "note": 64,
      "start": 18.7328,
      "duration": 0.0365,
      "velocity": 93,
      "chip": "ym2612"
    },
    {
      "channel": 0,
      "note": 65,
      "start": 18.7717,
      "duration": 0.0789,
      "velocity": 93,
      "chip": "ym2612"
    },
    {
      "channel": 0,
      "note": 65,
      "start": 18.8528,
      "duration": 0.0785,
      "velocity": 93,
      "chip": "ym2612"
    },
    {
      "channel": 0,
      "note": 65,
      "start": 18.9334,
      "duration": 0.0746,
      "velocity": 93,
      "chip": "ym2612"
    },
    {
      "channel": 0,
      "note": 64,
      "start": 19.0103,
      "duration": 0.0759,
      "velocity": 93,
      "chip": "ym2612"
    },
    {
      "channel": 0,
      "note": 64,
      "start": 19.1886,
      "duration": 0.0809,
      "velocity": 93,
      "chip": "ym2612"
    },
    {
      "channel": 0,
      "note": 64,
      "start": 19.2728,
      "duration": 0.0774,
      "velocity": 93,
      "chip": "ym2612"
    },
    {
      "channel": 0,
      "note": 64,
      "start": 19.4541,
      "duration": 0.0732,
      "velocity": 93,
      "chip": "ym2612"
    },
    {
      "channel": 0,
      "note": 62,
      "start": 19.5302,
      "duration": 0.2476,
      "velocity": 93,
      "chip": "ym2612"
    },
    {
      "channel": 0,
      "note": 65,
      "start": 19.7801,
      "duration": 0.2419,
      "velocity": 93,
      "chip": "ym2612"
    },
    {
      "channel": 0,
      "note": 64,
      "start": 20.0246,
      "duration": 0.0815,
      "velocity": 93,
      "chip": "ym2612"
    },
    {
      "channel": 3,
      "note": 64,
      "start": 20.027,
      "duration": 1.0185,
      "velocity": 96,
      "chip": "ym2612"
    },
    {
      "channel": 1,
      "note": 59,
      "start": 20.031,
      "duration": 1.0144,
      "velocity": 96,
      "chip": "ym2612"
    },
    {
      "channel": 0,
      "note": 64,
      "start": 20.2054,
      "duration": 0.0805,
      "velocity": 93,
      "chip": "ym2612"
    },
    {
      "channel": 0,
      "note": 64,
      "start": 20.2893,
      "duration": 0.0776,
      "velocity": 93,
      "chip": "ym2612"
    },
    {
      "channel": 0,
      "note": 64,
      "start": 20.4552,
      "duration": 0.0809,
      "velocity": 93,
      "chip": "ym2612"
    },
    {
      "channel": 0,
      "note": 64,
      "start": 20.5395,
      "duration": 0.0775,
      "velocity": 93,
      "chip": "ym2612"
    },
    {
      "channel": 0,
      "note": 64,
      "start": 20.7217,
      "duration": 0.038,
      "velocity": 93,
      "chip": "ym2612"
    },
    {
      "channel": 0,
      "note": 64,
      "start": 20.7618,
      "duration": 0.0439,
      "velocity": 93,
      "chip": "ym2612"
    },
    {
      "channel": 0,
      "note": 65,
      "start": 20.8081,
      "duration": 0.076,
      "velocity": 93,
      "chip": "ym2612"
    },
    {
      "channel": 0,
      "note": 65,
      "start": 20.8865,
      "duration": 0.0779,
      "velocity": 93,
      "chip": "ym2612"
    },
    {
      "channel": 0,
      "note": 65,
      "start": 20.9666,
      "duration": 0.0788,
      "velocity": 93,
      "chip": "ym2612"
    },
    {
      "channel": 0,
      "note": 64,
      "start": 21.0478,
      "duration": 0.081,
      "velocity": 93,
      "chip": "ym2612"
    },
    {
      "channel": 3,
      "note": 67,
      "start": 21.05,
      "duration": 1.0197,
      "velocity": 96,
      "chip": "ym2612"
    },
    {
      "channel": 1,
      "note": 62,
      "start": 21.0519,
      "duration": 1.0177,
      "velocity": 96,
      "chip": "ym2612"
    },
    {
      "channel": 0,
      "note": 64,
      "start": 21.2307,
      "duration": 0.0804,
      "velocity": 93,
      "chip": "ym2612"
    },
    {
      "channel": 0,
      "note": 64,
      "start": 21.3145,
      "duration": 0.0717,
      "velocity": 93,
      "chip": "ym2612"
    },
    {
      "channel": 0,
      "note": 64,
      "start": 21.4811,
      "duration": 0.0806,
      "velocity": 93,
      "chip": "ym2612"
    },
    {
      "channel": 0,
      "note": 64,
      "start": 21.5653,
      "duration": 0.0786,
      "velocity": 93,
      "chip": "ym2612"
    },
    {
      "channel": 0,
      "note": 64,
      "start": 21.7476,
      "duration": 0.0381,
      "velocity": 93,
      "chip": "ym2612"
    },
    {
      "channel": 0,
      "note": 64,
      "start": 21.7878,
      "duration": 0.0377,
      "velocity": 93,
      "chip": "ym2612"
    },
    {
      "channel": 0,
      "note": 65,
      "start": 21.828,
      "duration": 0.0776,
      "velocity": 93,
      "chip": "ym2612"
    },
    {
      "channel": 0,
      "note": 65,
      "start": 21.9088,
      "duration": 0.0792,
      "velocity": 93,
      "chip": "ym2612"
    },
    {
      "channel": 0,
      "note": 65,
      "start": 21.9902,
      "duration": 0.0793,
      "velocity": 93,
      "chip": "ym2612"
    },
    {
      "channel": 0,
      "note": 64,
      "start": 22.0719,
      "duration": 0.0811,
      "velocity": 93,
      "chip": "ym2612"
    },
    {
      "channel": 3,
      "note": 69,
      "start": 22.0752,
      "duration": 1.021,
      "velocity": 96,
      "chip": "ym2612"
    },
    {
      "channel": 1,
      "note": 64,
      "start": 22.0771,
      "duration": 1.019,
      "velocity": 96,
      "chip": "ym2612"
    },
    {
      "channel": 0,
      "note": 64,
      "start": 22.255,
      "duration": 0.0735,
      "velocity": 93,
      "chip": "ym2612"
    },
    {
      "channel": 0,
      "note": 64,
      "start": 22.3308,
      "duration": 0.0786,
      "velocity": 93,
      "chip": "ym2612"
    },
    {
      "channel": 0,
      "note": 64,
      "start": 22.5158,
      "duration": 0.0806,
      "velocity": 93,
      "chip": "ym2612"
    },
    {
      "channel": 0,
      "note": 64,
      "start": 22.5997,
      "duration": 0.0776,
      "velocity": 93,
      "chip": "ym2612"
    },
    {
      "channel": 0,
      "note": 64,
      "start": 22.7679,
      "duration": 0.0436,
      "velocity": 93,
      "chip": "ym2612"
    },
    {
      "channel": 0,
      "note": 64,
      "start": 22.8138,
      "duration": 0.0375,
      "velocity": 93,
      "chip": "ym2612"
    },
    {
      "channel": 0,
      "note": 65,
      "start": 22.8538,
      "duration": 0.0797,
      "velocity": 93,
      "chip": "ym2612"
    },
    {
      "channel": 0,
      "note": 65,
      "start": 22.9357,
      "duration": 0.0789,
      "velocity": 93,
      "chip": "ym2612"
    },
    {
      "channel": 0,
      "note": 65,
      "start": 23.0169,
      "duration": 0.0791,
      "velocity": 93,
      "chip": "ym2612"
    },
    {
      "channel": 0,
      "note": 64,
      "start": 23.0984,
      "duration": 0.0759,
      "velocity": 93,
      "chip": "ym2612"
    },
    {
      "channel": 3,
      "note": 72,
      "start": 23.1006,
      "duration": 1.001,
      "velocity": 96,
      "chip": "ym2612"
    },
    {
      "channel": 1,
      "note": 65,
      "start": 23.1025,
      "duration": 0.999,
      "velocity": 96,
      "chip": "ym2612"
    },
    {
      "channel": 0,
      "note": 64,
      "start": 23.2656,
      "duration": 0.0798,
      "velocity": 93,
      "chip": "ym2612"
    },
    {
      "channel": 0,
      "note": 64,
      "start": 23.349,
      "duration": 0.0782,
      "velocity": 93,
      "chip": "ym2612"
    },
    {
      "channel": 0,
      "note": 64,
      "start": 23.5313,
      "duration": 0.0809,
      "velocity": 93,
      "chip": "ym2612"
    },
    {
      "channel": 0,
      "note": 62,
      "start": 23.6156,
      "duration": 0.2403,
      "velocity": 93,
      "chip": "ym2612"
    },
    {
      "channel": 0,
      "note": 65,
      "start": 23.858,
      "duration": 0.2434,
      "velocity": 93,
      "chip": "ym2612"
    },
    {
      "channel": 0,
      "note": 64,
      "start": 24.1049,
      "duration": 0.0791,
      "velocity": 93,
      "chip": "ym2612"
    },
    {
      "channel": 3,
      "note": 64,
      "start": 24.1071,
      "duration": 1.024,
      "velocity": 96,
      "chip": "ym2612"
    },
    {
      "channel": 1,
      "note": 67,
      "start": 24.1093,
      "duration": 1.0217,
      "velocity": 96,
      "chip": "ym2612"
    },
    {
      "channel": 0,
      "note": 64,
      "start": 24.2805,
      "duration": 0.0806,
      "velocity": 93,
      "chip": "ym2612"
    },
    {
      "channel": 0,
      "note": 64,
      "start": 24.3645,
      "duration": 0.0776,
      "velocity": 93,
      "chip": "ym2612"
    },
    {
      "channel": 0,
      "note": 64,
      "start": 24.5465,
      "duration": 0.0735,
      "velocity": 93,
      "chip": "ym2612"
    },
    {
      "channel": 0,
      "note": 64,
      "start": 24.6222,
      "duration": 0.0787,
      "velocity": 93,
      "chip": "ym2612"
    },
    {
      "channel": 0,
      "note": 64,
      "start": 24.8077,
      "duration": 0.0398,
      "velocity": 93,
      "chip": "ym2612"
    },
    {
      "channel": 0,
      "note": 64,
      "start": 24.8512,
      "duration": 0.0415,
      "velocity": 93,
      "chip": "ym2612"
    },
    {
      "channel": 0,
      "note": 65,
      "start": 24.8952,
      "duration": 0.0787,
      "velocity": 93,
      "chip": "ym2612"
    },
    {
      "channel": 0,
      "note": 65,
      "start": 24.9765,
      "duration": 0.0746,
      "velocity": 93,
      "chip": "ym2612"
    },
    {
      "channel": 0,
      "note": 65,
      "start": 25.0534,
      "duration": 0.0775,
      "velocity": 93,
      "chip": "ym2612"
    },
    {
      "channel": 0,
      "note": 64,
      "start": 25.1335,
      "duration": 0.0799,
      "velocity": 93,
      "chip": "ym2612"
    },
    {
      "channel": 3,
      "note": 67,
      "start": 25.1354,
      "duration": 1.0195,
      "velocity": 96,
      "chip": "ym2612"
    },
    {
      "channel": 1,
      "note": 71,
      "start": 25.1374,
      "duration": 1.0174,
      "velocity": 96,
      "chip": "ym2612"
    },
    {
      "channel": 0,
      "note": 64,
      "start": 25.3154,
      "duration": 0.0808,
      "velocity": 93,
      "chip": "ym2612"
    },
    {
      "channel": 0,
      "note": 64,
      "start": 25.3997,
      "duration": 0.0772,
      "velocity": 93,
      "chip": "ym2612"
    },
    {
      "channel": 0,
      "note": 64,
      "start": 25.5651,
      "duration": 0.0808,
      "velocity": 93,
      "chip": "ym2612"
    },
    {
      "channel": 0,
      "note": 64,
      "start": 25.6493,
      "duration": 0.0775,
      "velocity": 93,
      "chip": "ym2612"
    },
    {
      "channel": 0,
      "note": 64,
      "start": 25.8316,
      "duration": 0.0378,
      "velocity": 93,
      "chip": "ym2612"
    },
    {
      "channel": 0,
      "note": 64,
      "start": 25.8715,
      "duration": 0.0437,
      "velocity": 93,
      "chip": "ym2612"
    },
    {
      "channel": 0,
      "note": 65,
      "start": 25.9177,
      "duration": 0.076,
      "velocity": 93,
      "chip": "ym2612"
    },
    {
      "channel": 0,
      "note": 65,
      "start": 25.9961,
      "duration": 0.0779,
      "velocity": 93,
      "chip": "ym2612"
    },
    {
      "channel": 0,
      "note": 65,
      "start": 26.0761,
      "duration": 0.0786,
      "velocity": 93,
      "chip": "ym2612"
    },
    {
      "channel": 0,
      "note": 64,
      "start": 26.1571,
      "duration": 0.081,
      "velocity": 93,
      "chip": "ym2612"
    },
    {
      "channel": 3,
      "note": 69,
      "start": 26.1593,
      "duration": 1.0198,
      "velocity": 96,
      "chip": "ym2612"
    },
    {
      "channel": 1,
      "note": 72,
      "start": 26.1612,
      "duration": 1.0178,
      "velocity": 96,
      "chip": "ym2612"
    },
    {
      "channel": 0,
      "note": 64,
      "start": 26.3402,
      "duration": 0.0803,
      "velocity": 93,
      "chip": "ym2612"
    },
    {
      "channel": 0,
      "note": 64,
      "start": 26.4239,
      "duration": 0.0718,
      "velocity": 93,
      "chip": "ym2612"
    },
    {
      "channel": 0,
      "note": 64,
      "start": 26.5906,
      "duration": 0.0808,
      "velocity": 93,
      "chip": "ym2612"
    },
    {
      "channel": 0,
      "note": 64,
      "start": 26.6748,
      "duration": 0.0792,
      "velocity": 93,
      "chip": "ym2612"
    },
    {
      "channel": 0,
      "note": 64,
      "start": 26.8575,
      "duration": 0.0381,
      "velocity": 93,
      "chip": "ym2612"
    },
    {
      "channel": 0,
      "note": 64,
      "start": 26.8978,
      "duration": 0.0379,
      "velocity": 93,
      "chip": "ym2612"
    },
    {
      "channel": 0,
      "note": 65,
      "start": 26.9387,
      "duration": 0.0782,
      "velocity": 93,
      "chip": "ym2612"
    },
    {
      "channel": 0,
      "note": 65,
      "start": 27.02,
      "duration": 0.0779,
      "velocity": 93,
      "chip": "ym2612"
    },
    {
      "channel": 0,
      "note": 65,
      "start": 27.1003,
      "duration": 0.0787,
      "velocity": 93,
      "chip": "ym2612"
    },
    {
      "channel": 0,
      "note": 64,
      "start": 27.1816,
      "duration": 0.0817,
      "velocity": 93,
      "chip": "ym2612"
    },
    {
      "channel": 3,
      "note": 72,
      "start": 27.185,
      "duration": 1.0168,
      "velocity": 96,
      "chip": "ym2612"
    },
    {
      "channel": 1,
      "note": 76,
      "start": 27.1873,
      "duration": 1.0144,
      "velocity": 96,
      "chip": "ym2612"
    },
    {
      "channel": 0,
      "note": 64,
      "start": 27.365,
      "duration": 0.0733,
      "velocity": 93,
      "chip": "ym2612"
    },
    {
      "channel": 0,
      "note": 64,
      "start": 27.4406,
      "duration": 0.0788,
      "velocity": 93,
      "chip": "ym2612"
    },
    {
      "channel": 0,
      "note": 64,
      "start": 27.6257,
      "duration": 0.0806,
      "velocity": 93,
      "chip": "ym2612"
    },
    {
      "channel": 0,
      "note": 62,
      "start": 27.7096,
      "duration": 0.2402,
      "velocity": 93,
      "chip": "ym2612"
    },
    {
      "channel": 0,
      "note": 65,
      "start": 27.9522,
      "duration": 0.2495,
      "velocity": 93,
      "chip": "ym2612"
    },
    {
      "channel": 0,
      "note": 64,
      "start": 28.2051,
      "duration": 0.0796,
      "velocity": 93,
      "chip": "ym2612"
    },
    {
      "channel": 3,
      "note": 71,
      "start": 28.2077,
      "duration": 2.0212,
      "velocity": 96,
      "chip": "ym2612"
    },
    {
      "channel": 1,
      "note": 76,
      "start": 28.2102,
      "duration": 2.0186,
      "velocity": 96,
      "chip": "ym2612"
    },
    {
      "channel": 4,
      "note": 52,
      "start": 28.2146,
      "duration": 2.0143,
      "velocity": 96,
      "chip": "ym2612"
    },
    {
      "channel": 0,
      "note": 64,
      "start": 28.3628,
      "duration": 0.0805,
      "velocity": 93,
      "chip": "ym2612"
    },
    {
      "channel": 0,
      "note": 64,
      "start": 28.4466,
      "duration": 0.0786,
      "velocity": 93,
      "chip": "ym2612"
    },
    {
      "channel": 0,
      "note": 64,
      "start": 28.6303,
      "duration": 0.081,
      "velocity": 93,
      "chip": "ym2612"
    },
    {
      "channel": 0,
      "note": 64,
      "start": 28.7147,
      "duration": 0.073,
      "velocity": 93,
      "chip": "ym2612"
    },
    {
      "channel": 0,
      "note": 64,
      "start": 28.8803,
      "duration": 0.0457,
      "velocity": 93,
      "chip": "ym2612"
    },
    {
      "channel": 0,
      "note": 64,
      "start": 28.9294,
      "duration": 0.0364,
      "velocity": 93,
      "chip": "ym2612"
    },
    {
      "channel": 0,
      "note": 65,
      "start": 28.9688,
      "duration": 0.0784,
      "velocity": 93,
      "chip": "ym2612"
    },
    {
      "channel": 0,
      "note": 65,
      "start": 29.0496,
      "duration": 0.0806,
      "velocity": 93,
      "chip": "ym2612"
    },
    {
      "channel": 0,
      "note": 65,
      "start": 29.1326,
      "duration": 0.0735,
      "velocity": 93,
      "chip": "ym2612"
    },
    {
      "channel": 0,
      "note": 64,
      "start": 29.2084,
      "duration": 0.0781,
      "velocity": 93,
      "chip": "ym2612"
    },
    {
      "channel": 0,
      "note": 64,
      "start": 29.3888,
      "duration": 0.0809,
      "velocity": 93,
      "chip": "ym2612"
    },
    {
      "channel": 0,
      "note": 64,
      "start": 29.473,
      "duration": 0.0786,
      "velocity": 93,
      "chip": "ym2612"
    },
    {
      "channel": 0,
      "note": 64,
      "start": 29.6563,
      "duration": 0.0737,
      "velocity": 93,
      "chip": "ym2612"
    },
    {
      "channel": 0,
      "note": 62,
      "start": 29.7326,
      "duration": 0.2501,
      "velocity": 93,
      "chip": "ym2612"
    },
    {
      "channel": 0,
      "note": 65,
      "start": 29.9855,
      "duration": 0.2432,
      "velocity": 93,
      "chip": "ym2612"
    },
    {
      "channel": 0,
      "note": 64,
      "start": 30.2312,
      "duration": 0.08,
      "velocity": 93,
      "chip": "ym2612"
    },
    {
      "channel": 0,
      "note": 64,
      "start": 30.4146,
      "duration": 0.081,
      "velocity": 93,
      "chip": "ym2612"
    },
    {
      "channel": 0,
      "note": 64,
      "start": 30.499,
      "duration": 0.0783,
      "velocity": 93,
      "chip": "ym2612"
    },
    {
      "channel": 0,
      "note": 64,
      "start": 30.6657,
      "duration": 0.081,
      "velocity": 93,
      "chip": "ym2612"
    },
    {
      "channel": 0,
      "note": 64,
      "start": 30.7501,
      "duration": 0.0782,
      "velocity": 93,
      "chip": "ym2612"
    },
    {
      "channel": 0,
      "note": 64,
      "start": 30.9325,
      "duration": 0.0381,
      "velocity": 93,
      "chip": "ym2612"
    },
    {
      "channel": 0,
      "note": 64,
      "start": 30.973,
      "duration": 0.044,
      "velocity": 93,
      "chip": "ym2612"
    },
    {
      "channel": 0,
      "note": 65,
      "start": 31.0207,
      "duration": 0.0736,
      "velocity": 93,
      "chip": "ym2612"
    },
    {
      "channel": 0,
      "note": 65,
      "start": 31.0965,
      "duration": 0.0775,
      "velocity": 93,
      "chip": "ym2612"
    },
    {
      "channel": 0,
      "note": 65,
      "start": 31.1769,
      "duration": 0.0778,
      "velocity": 93,
      "chip": "ym2612"
    },
    {
      "channel": 0,
      "note": 64,
      "start": 31.2572,
      "duration": 0.0802,
      "velocity": 93,
      "chip": "ym2612"
    },
    {
      "channel": 0,
      "note": 64,
      "start": 31.4427,
      "duration": 0.0814,
      "velocity": 93,
      "chip": "ym2612"
    },
    {
      "channel": 0,
      "note": 64,
      "start": 31.5274,
      "duration": 0.0707,
      "velocity": 93,
      "chip": "ym2612"
    },
    {
      "channel": 0,
      "note": 64,
      "start": 31.6929,
      "duration": 0.0808,
      "velocity": 93,
      "chip": "ym2612"
    },
    {
      "channel": 0,
      "note": 62,
      "start": 31.7771,
      "duration": 0.243,
      "velocity": 93,
      "chip": "ym2612"
    },
    {
      "channel": 0,
      "note": 65,
      "start": 32.0232,
      "duration": 0.2473,
      "velocity": 93,
      "chip": "ym2612"
    },
    {
      "channel": 0,
      "note": 64,
      "start": 32.2733,
      "duration": 29.3001,
      "velocity": 93,
      "chip": "ym2612"
    }
  ]
}