{
  "track_name": "01 - Welcome to Storm",
  "duration_sec": 72.85,
  "sample_rate": 44100,
  "note_count": 632,
  "unique_pitches": 27,
  "pitch_range": 64,
  "avg_note_duration": 0.5411,
  "reconstruction_stats": {
    "notes_reconstructed": 632,
    "keyon_events": 632,
    "keyoff_events": 632,
    "orphan_keyons": 0,
    "unique_pitches": 27,
    "pitch_range": 64,
    "avg_duration_sec": 0.5411
  },
  "metadata": {
    "source": "S\\Shining in the Darkness\\01 - Welcome to Storm.vgz"
  },
  "notes": [
    {
      "channel": 0,
      "note": 68,
      "start": 0.0471,
      "duration": 0.3544,
      "velocity": 98,
      "chip": "ym2612"
    },
    {
      "channel": 1,
      "note": 104,
      "start": 0.0511,
      "duration": 0.3506,
      "velocity": 83,
      "chip": "ym2612"
    },
    {
      "channel": 3,
      "note": 66,
      "start": 0.0572,
      "duration": 0.3452,
      "velocity": 99,
      "chip": "ym2612"
    },
    {
      "channel": 4,
      "note": 48,
      "start": 0.0644,
      "duration": 2.2344,
      "velocity": 94,
      "chip": "ym2612"
    },
    {
      "channel": 0,
      "note": 69,
      "start": 0.4227,
      "duration": 0.3579,
      "velocity": 98,
      "chip": "ym2612"
    },
    {
      "channel": 1,
      "note": 105,
      "start": 0.4233,
      "duration": 0.3576,
      "velocity": 83,
      "chip": "ym2612"
    },
    {
      "channel": 2,
      "note": 71,
      "start": 0.4272,
      "duration": 0.354,
      "velocity": 99,
      "chip": "ym2612"
    },
    {
      "channel": 3,
      "note": 76,
      "start": 0.4278,
      "duration": 0.3537,
      "velocity": 99,
      "chip": "ym2612"
    },
    {
      "channel": 0,
      "note": 71,
      "start": 0.802,
      "duration": 0.7371,
      "velocity": 98,
      "chip": "ym2612"
    },
    {
      "channel": 1,
      "note": 107,
      "start": 0.8026,
      "duration": 0.7368,
      "velocity": 83,
      "chip": "ym2612"
    },
    {
      "channel": 2,
      "note": 80,
      "start": 0.8031,
      "duration": 0.3574,
      "velocity": 99,
      "chip": "ym2612"
    },
    {
      "channel": 3,
      "note": 68,
      "start": 0.8037,
      "duration": 0.3571,
      "velocity": 99,
      "chip": "ym2612"
    },
    {
      "channel": 2,
      "note": 71,
      "start": 1.1817,
      "duration": 0.3581,
      "velocity": 99,
      "chip": "ym2612"
    },
    {
      "channel": 3,
      "note": 76,
      "start": 1.1823,
      "duration": 0.3578,
      "velocity": 99,
      "chip": "ym2612"
    },
    {
      "channel": 0,
      "note": 69,
      "start": 1.5604,
      "duration": 0.358,
      "velocity": 98,
      "chip": "ym2612"
    },
    {
      "channel": 1,
      "note": 105,
      "start": 1.561,
      "duration": 0.3577,
      "velocity": 83,
      "chip": "ym2612"
    },
    {
      "channel": 2,
      "note": 80,
      "start": 1.5615,
      "duration": 0.3575,
      "velocity": 99,
      "chip": "ym2612"
    },
    {
      "channel": 3,
      "note": 68,
      "start": 1.5621,
      "duration": 0.3572,
      "velocity": 99,
      "chip": "ym2612"
    },
    {
      "channel": 0,
      "note": 68,
      "start": 1.9397,
      "duration": 0.3579,
      "velocity": 98,
      "chip": "ym2612"
    },
    {
      "channel": 1,
      "note": 104,
      "start": 1.9402,
      "duration": 0.3576,
      "velocity": 83,
      "chip": "ym2612"
    },
    {
      "channel": 2,
      "note": 71,
      "start": 1.9407,
      "duration": 0.3574,
      "velocity": 99,
      "chip": "ym2612"
    },
    {
      "channel": 3,
      "note": 76,
      "start": 1.9414,
      "duration": 0.3571,
      "velocity": 99,
      "chip": "ym2612"
    },
    {
      "channel": 0,
      "note": 69,
      "start": 2.3188,
      "duration": 0.7372,
      "velocity": 98,
      "chip": "ym2612"
    },
    {
      "channel": 1,
      "note": 105,
      "start": 2.3193,
      "duration": 0.737,
      "velocity": 83,
      "chip": "ym2612"
    },
    {
      "channel": 2,
      "note": 81,
      "start": 2.3199,
      "duration": 0.3574,
      "velocity": 99,
      "chip": "ym2612"
    },
    {
      "channel": 3,
      "note": 68,
      "start": 2.3205,
      "duration": 0.3571,
      "velocity": 99,
      "chip": "ym2612"
    },
    {
      "channel": 4,
      "note": 64,
      "start": 2.3212,
      "duration": 2.2528,
      "velocity": 94,
      "chip": "ym2612"
    },
    {
      "channel": 2,
      "note": 73,
      "start": 2.6985,
      "duration": 0.3582,
      "velocity": 99,
      "chip": "ym2612"
    },
    {
      "channel": 3,
      "note": 76,
      "start": 2.6991,
      "duration": 0.3579,
      "velocity": 99,
      "chip": "ym2612"
    },
    {
      "channel": 0,
      "note": 61,
      "start": 3.0773,
      "duration": 1.3059,
      "velocity": 98,
      "chip": "ym2612"
    },
    {
      "channel": 1,
      "note": 97,
      "start": 3.0778,
      "duration": 1.3056,
      "velocity": 83,
      "chip": "ym2612"
    },
    {
      "channel": 2,
      "note": 81,
      "start": 3.0783,
      "duration": 0.3572,
      "velocity": 99,
      "chip": "ym2612"
    },
    {
      "channel": 3,
      "note": 69,
      "start": 3.079,
      "duration": 0.3569,
      "velocity": 99,
      "chip": "ym2612"
    },
    {
      "channel": 2,
      "note": 73,
      "start": 3.4569,
      "duration": 0.3579,
      "velocity": 99,
      "chip": "ym2612"
    },
    {
      "channel": 3,
      "note": 76,
      "start": 3.4576,
      "duration": 0.3576,
      "velocity": 99,
      "chip": "ym2612"
    },
    {
      "channel": 2,
      "note": 81,
      "start": 3.8361,
      "duration": 0.3581,
      "velocity": 99,
      "chip": "ym2612"
    },
    {
      "channel": 3,
      "note": 69,
      "start": 3.8368,
      "duration": 0.3578,
      "velocity": 99,
      "chip": "ym2612"
    },
    {
      "channel": 2,
      "note": 73,
      "start": 4.2154,
      "duration": 0.358,
      "velocity": 99,
      "chip": "ym2612"
    },
    {
      "channel": 3,
      "note": 76,
      "start": 4.216,
      "duration": 0.3576,
      "velocity": 99,
      "chip": "ym2612"
    },
    {
      "channel": 0,
      "note": 66,
      "start": 4.594,
      "duration": 0.358,
      "velocity": 98,
      "chip": "ym2612"
    },
    {
      "channel": 1,
      "note": 102,
      "start": 4.5946,
      "duration": 0.3576,
      "velocity": 83,
      "chip": "ym2612"
    },
    {
      "channel": 2,
      "note": 81,
      "start": 4.5951,
      "duration": 0.3574,
      "velocity": 99,
      "chip": "ym2612"
    },
    {
      "channel": 3,
      "note": 69,
      "start": 4.5957,
      "duration": 0.3571,
      "velocity": 99,
      "chip": "ym2612"
    },
    {
      "channel": 4,
      "note": 66,
      "start": 4.5964,
      "duration": 2.2528,
      "velocity": 94,
      "chip": "ym2612"
    },
    {
      "channel": 0,
      "note": 68,
      "start": 4.9732,
      "duration": 0.358,
      "velocity": 98,
      "chip": "ym2612"
    },
    {
      "channel": 1,
      "note": 104,
      "start": 4.9737,
      "duration": 0.3577,
      "velocity": 83,
      "chip": "ym2612"
    },
    {
      "channel": 2,
      "note": 71,
      "start": 4.9743,
      "duration": 0.3574,
      "velocity": 99,
      "chip": "ym2612"
    },
    {
      "channel": 3,
      "note": 75,
      "start": 4.9749,
      "duration": 0.3571,
      "velocity": 99,
      "chip": "ym2612"
    },
    {
      "channel": 0,
      "note": 69,
      "start": 5.3523,
      "duration": 0.7371,
      "velocity": 98,
      "chip": "ym2612"
    },
    {
      "channel": 1,
      "note": 105,
      "start": 5.3529,
      "duration": 0.7369,
      "velocity": 83,
      "chip": "ym2612"
    },
    {
      "channel": 2,
      "note": 81,
      "start": 5.3534,
      "duration": 0.3574,
      "velocity": 99,
      "chip": "ym2612"
    },
    {
      "channel": 3,
      "note": 69,
      "start": 5.3541,
      "duration": 0.3571,
      "velocity": 99,
      "chip": "ym2612"
    },
    {
      "channel": 2,
      "note": 71,
      "start": 5.732,
      "duration": 0.3581,
      "velocity": 99,
      "chip": "ym2612"
    },
    {
      "channel": 3,
      "note": 75,
      "start": 5.7326,
      "duration": 0.3578,
      "velocity": 99,
      "chip": "ym2612"
    },
    {
      "channel": 0,
      "note": 68,
      "start": 6.1109,
      "duration": 0.3578,
      "velocity": 98,
      "chip": "ym2612"
    },
    {
      "channel": 1,
      "note": 104,
      "start": 6.1115,
      "duration": 0.3575,
      "velocity": 83,
      "chip": "ym2612"
    },
    {
      "channel": 2,
      "note": 81,
      "start": 6.112,
      "duration": 0.3573,
      "velocity": 99,
      "chip": "ym2612"
    },
    {
      "channel": 3,
      "note": 69,
      "start": 6.1126,
      "duration": 0.357,
      "velocity": 99,
      "chip": "ym2612"
    },
    {
      "channel": 0,
      "note": 66,
      "start": 6.49,
      "duration": 0.3579,
      "velocity": 98,
      "chip": "ym2612"
    },
    {
      "channel": 1,
      "note": 102,
      "start": 6.4906,
      "duration": 0.3577,
      "velocity": 83,
      "chip": "ym2612"
    },
    {
      "channel": 2,
      "note": 71,
      "start": 6.4911,
      "duration": 0.3575,
      "velocity": 99,
      "chip": "ym2612"
    },
    {
      "channel": 3,
      "note": 75,
      "start": 6.4917,
      "duration": 0.3571,
      "velocity": 99,
      "chip": "ym2612"
    },
    {
      "channel": 0,
      "note": 68,
      "start": 6.8692,
      "duration": 0.7372,
      "velocity": 98,
      "chip": "ym2612"
    },
    {
      "channel": 1,
      "note": 104,
      "start": 6.8698,
      "duration": 0.7369,
      "velocity": 83,
      "chip": "ym2612"
    },
    {
      "channel": 2,
      "note": 80,
      "start": 6.8703,
      "duration": 0.3574,
      "velocity": 99,
      "chip": "ym2612"
    },
    {
      "channel": 3,
      "note": 69,
      "start": 6.8709,
      "duration": 0.3571,
      "velocity": 99,
      "chip": "ym2612"
    },
    {
      "channel": 4,
      "note": 71,
      "start": 6.8716,
      "duration": 2.2529,
      "velocity": 94,
      "chip": "ym2612"
    },
    {
      "channel": 2,
      "note": 71,
      "start": 7.2489,
      "duration": 0.3581,
      "velocity": 99,
      "chip": "ym2612"
    },
    {
      "channel": 3,
      "note": 76,
      "start": 7.2495,
      "duration": 0.3578,
      "velocity": 99,
      "chip": "ym2612"
    },
    {
      "channel": 0,
      "note": 71,
      "start": 7.6276,
      "duration": 1.306,
      "velocity": 98,
      "chip": "ym2612"
    },
    {
      "channel": 1,
      "note": 107,
      "start": 7.6282,
      "duration": 1.3057,
      "velocity": 83,
      "chip": "ym2612"
    },
    {
      "channel": 2,
      "note": 80,
      "start": 7.6287,
      "duration": 0.3573,
      "velocity": 99,
      "chip": "ym2612"
    },
    {
      "channel": 3,
      "note": 68,
      "start": 7.6294,
      "duration": 0.3569,
      "velocity": 99,
      "chip": "ym2612"
    },
    {
      "channel": 2,
      "note": 71,
      "start": 8.0074,
      "duration": 0.358,
      "velocity": 99,
      "chip": "ym2612"
    },
    {
      "channel": 3,
      "note": 76,
      "start": 8.008,
      "duration": 0.3577,
      "velocity": 99,
      "chip": "ym2612"
    },
    {
      "channel": 2,
      "note": 80,
      "start": 8.3866,
      "duration": 0.358,
      "velocity": 99,
      "chip": "ym2612"
    },
    {
      "channel": 3,
      "note": 68,
      "start": 8.3872,
      "duration": 0.3577,
      "velocity": 99,
      "chip": "ym2612"
    },
    {
      "channel": 2,
      "note": 71,
      "start": 8.7658,
      "duration": 0.358,
      "velocity": 99,
      "chip": "ym2612"
    },
    {
      "channel": 3,
      "note": 76,
      "start": 8.7664,
      "duration": 0.3577,
      "velocity": 99,
      "chip": "ym2612"
    },
    {
      "channel": 0,
      "note": 73,
      "start": 9.1445,
      "duration": 0.3578,
      "velocity": 98,
      "chip": "ym2612"
    },
    {
      "channel": 1,
      "note": 109,
      "start": 9.1451,
      "duration": 0.3576,
      "velocity": 83,
      "chip": "ym2612"
    },
    {
      "channel": 2,
      "note": 81,
      "start": 9.1456,
      "duration": 0.3573,
      "velocity": 99,
      "chip": "ym2612"
    },
    {
      "channel": 3,
      "note": 68,
      "start": 9.1462,
      "duration": 0.357,
      "velocity": 99,
      "chip": "ym2612"
    },
    {
      "channel": 4,
      "note": 64,
      "start": 9.1469,
      "duration": 2.2527,
      "velocity": 94,
      "chip": "ym2612"
    },
    {
      "channel": 0,
      "note": 75,
      "start": 9.5237,
      "duration": 0.3579,
      "velocity": 98,
      "chip": "ym2612"
    },
    {
      "channel": 1,
      "note": 111,
      "start": 9.5241,
      "duration": 0.3578,
      "velocity": 83,
      "chip": "ym2612"
    },
    {
      "channel": 2,
      "note": 73,
      "start": 9.5247,
      "duration": 0.3575,
      "velocity": 99,
      "chip": "ym2612"
    },
    {
      "channel": 3,
      "note": 76,
      "start": 9.5254,
      "duration": 0.3571,
      "velocity": 99,
      "chip": "ym2612"
    },
    {
      "channel": 0,
      "note": 76,
      "start": 9.9028,
      "duration": 0.7371,
      "velocity": 98,
      "chip": "ym2612"
    },
    {
      "channel": 1,
      "note": 112,
      "start": 9.9034,
      "duration": 0.7369,
      "velocity": 83,
      "chip": "ym2612"
    },
    {
      "channel": 2,
      "note": 81,
      "start": 9.9039,
      "duration": 0.3574,
      "velocity": 99,
      "chip": "ym2612"
    },
    {
      "channel": 3,
      "note": 69,
      "start": 9.9045,
      "duration": 0.3571,
      "velocity": 99,
      "chip": "ym2612"
    },
    {
      "channel": 2,
      "note": 73,
      "start": 10.2824,
      "duration": 0.3581,
      "velocity": 99,
      "chip": "ym2612"
    },
    {
      "channel": 3,
      "note": 76,
      "start": 10.2831,
      "duration": 0.3578,
      "velocity": 99,
      "chip": "ym2612"
    },
    {
      "channel": 0,
      "note": 75,
      "start": 10.6612,
      "duration": 0.358,
      "velocity": 98,
      "chip": "ym2612"
    },
    {
      "channel": 1,
      "note": 111,
      "start": 10.6617,
      "duration": 0.3578,
      "velocity": 83,
      "chip": "ym2612"
    },
    {
      "channel": 2,
      "note": 81,
      "start": 10.6623,
      "duration": 0.3575,
      "velocity": 99,
      "chip": "ym2612"
    },
    {
      "channel": 3,
      "note": 69,
      "start": 10.6629,
      "duration": 0.3572,
      "velocity": 99,
      "chip": "ym2612"
    },
    {
      "channel": 0,
      "note": 73,
      "start": 11.0404,
      "duration": 0.3579,
      "velocity": 98,
      "chip": "ym2612"
    },
    {
      "channel": 1,
      "note": 109,
      "start": 11.041,
      "duration": 0.3577,
      "velocity": 83,
      "chip": "ym2612"
    },
    {
      "channel": 2,
      "note": 73,
      "start": 11.0415,
      "duration": 0.3574,
      "velocity": 99,
      "chip": "ym2612"
    },
    {
      "channel": 3,
      "note": 76,
      "start": 11.0422,
      "duration": 0.3571,
      "velocity": 99,
      "chip": "ym2612"
    },
    {
      "channel": 0,
      "note": 75,
      "start": 11.4196,
      "duration": 0.7372,
      "velocity": 98,
      "chip": "ym2612"
    },
    {
      "channel": 1,
      "note": 111,
      "start": 11.4201,
      "duration": 0.737,
      "velocity": 83,
      "chip": "ym2612"
    },
    {
      "channel": 2,
      "note": 80,
      "start": 11.4207,
      "duration": 0.3574,
      "velocity": 99,
      "chip": "ym2612"
    },
    {
      "channel": 3,
      "note": 69,
      "start": 11.4214,
      "duration": 0.3571,
      "velocity": 99,
      "chip": "ym2612"
    },
    {
      "channel": 4,
      "note": 69,
      "start": 11.4221,
      "duration": 2.2528,
      "velocity": 94,
      "chip": "ym2612"
    },
    {
      "channel": 2,
      "note": 71,
      "start": 11.7993,
      "duration": 0.3582,
      "velocity": 99,
      "chip": "ym2612"
    },
    {
      "channel": 3,
      "note": 75,
      "start": 11.7999,
      "duration": 0.3579,
      "velocity": 99,
      "chip": "ym2612"
    },
    {
      "channel": 0,
      "note": 71,
      "start": 12.1781,
      "duration": 1.3059,
      "velocity": 98,
      "chip": "ym2612"
    },
    {
      "channel": 1,
      "note": 107,
      "start": 12.1787,
      "duration": 1.3056,
      "velocity": 83,
      "chip": "ym2612"
    },
    {
      "channel": 2,
      "note": 80,
      "start": 12.1792,
      "duration": 0.3573,
      "velocity": 99,
      "chip": "ym2612"
    },
    {
      "channel": 3,
      "note": 68,
      "start": 12.1798,
      "duration": 0.3569,
      "velocity": 99,
      "chip": "ym2612"
    },
    {
      "channel": 2,
      "note": 71,
      "start": 12.5578,
      "duration": 0.3579,
      "velocity": 99,
      "chip": "ym2612"
    },
    {
      "channel": 3,
      "note": 75,
      "start": 12.5584,
      "duration": 0.3576,
      "velocity": 99,
      "chip": "ym2612"
    },
    {
      "channel": 2,
      "note": 80,
      "start": 12.9371,
      "duration": 0.358,
      "velocity": 99,
      "chip": "ym2612"
    },
    {
      "channel": 3,
      "note": 68,
      "start": 12.9377,
      "duration": 0.3577,
      "velocity": 99,
      "chip": "ym2612"
    },
    {
      "channel": 2,
      "note": 71,
      "start": 13.3163,
      "duration": 0.3579,
      "velocity": 99,
      "chip": "ym2612"
    },
    {
      "channel": 3,
      "note": 75,
      "start": 13.3169,
      "duration": 0.3576,
      "velocity": 99,
      "chip": "ym2612"
    },
    {
      "channel": 0,
      "note": 69,
      "start": 13.6949,
      "duration": 0.3578,
      "velocity": 98,
      "chip": "ym2612"
    },
    {
      "channel": 1,
      "note": 105,
      "start": 13.6954,
      "duration": 0.3576,
      "velocity": 83,
      "chip": "ym2612"
    },
    {
      "channel": 2,
      "note": 81,
      "start": 13.696,
      "duration": 0.3573,
      "velocity": 99,
      "chip": "ym2612"
    },
    {
      "channel": 3,
      "note": 68,
      "start": 13.6966,
      "duration": 0.357,
      "velocity": 99,
      "chip": "ym2612"
    },
    {
      "channel": 4,
      "note": 68,
      "start": 13.6973,
      "duration": 2.2527,
      "velocity": 94,
      "chip": "ym2612"
    },
    {
      "channel": 0,
      "note": 61,
      "start": 14.074,
      "duration": 0.3579,
      "velocity": 98,
      "chip": "ym2612"
    },
    {
      "channel": 1,
      "note": 97,
      "start": 14.0746,
      "duration": 0.3576,
      "velocity": 83,
      "chip": "ym2612"
    },
    {
      "channel": 2,
      "note": 73,
      "start": 14.0751,
      "duration": 0.3574,
      "velocity": 99,
      "chip": "ym2612"
    },
    {
      "channel": 3,
      "note": 76,
      "start": 14.0757,
      "duration": 0.3571,
      "velocity": 99,
      "chip": "ym2612"
    },
    {
      "channel": 0,
      "note": 61,
      "start": 14.4534,
      "duration": 0.3578,
      "velocity": 98,
      "chip": "ym2612"
    },
    {
      "channel": 1,
      "note": 97,
      "start": 14.4539,
      "duration": 0.3576,
      "velocity": 83,
      "chip": "ym2612"
    },
    {
      "channel": 2,
      "note": 81,
      "start": 14.4544,
      "duration": 0.3573,
      "velocity": 99,
      "chip": "ym2612"
    },
    {
      "channel": 3,
      "note": 69,
      "start": 14.4551,
      "duration": 0.357,
      "velocity": 99,
      "chip": "ym2612"
    },
    {
      "channel": 0,
      "note": 63,
      "start": 14.8325,
      "duration": 0.3579,
      "velocity": 98,
      "chip": "ym2612"
    },
    {
      "channel": 1,
      "note": 99,
      "start": 14.833,
      "duration": 0.3578,
      "velocity": 83,
      "chip": "ym2612"
    },
    {
      "channel": 2,
      "note": 73,
      "start": 14.8336,
      "duration": 0.3575,
      "velocity": 99,
      "chip": "ym2612"
    },
    {
      "channel": 3,
      "note": 76,
      "start": 14.8342,
      "duration": 0.3571,
      "velocity": 99,
      "chip": "ym2612"
    },
    {
      "channel": 0,
      "note": 64,
      "start": 15.2116,
      "duration": 0.358,
      "velocity": 98,
      "chip": "ym2612"
    },
    {
      "channel": 1,
      "note": 100,
      "start": 15.2121,
      "duration": 0.3578,
      "velocity": 83,
      "chip": "ym2612"
    },
    {
      "channel": 2,
      "note": 81,
      "start": 15.2127,
      "duration": 0.3575,
      "velocity": 99,
      "chip": "ym2612"
    },
    {
      "channel": 3,
      "note": 69,
      "start": 15.2133,
      "duration": 0.3572,
      "velocity": 99,
      "chip": "ym2612"
    },
    {
      "channel": 0,
      "note": 61,
      "start": 15.5909,
      "duration": 0.3578,
      "velocity": 98,
      "chip": "ym2612"
    },
    {
      "channel": 1,
      "note": 97,
      "start": 15.5914,
      "duration": 0.3576,
      "velocity": 83,
      "chip": "ym2612"
    },
    {
      "channel": 2,
      "note": 73,
      "start": 15.592,
      "duration": 0.3573,
      "velocity": 99,
      "chip": "ym2612"
    },
    {
      "channel": 3,
      "note": 76,
      "start": 15.5926,
      "duration": 0.357,
      "velocity": 99,
      "chip": "ym2612"
    },
    {
      "channel": 0,
      "note": 63,
      "start": 15.9701,
      "duration": 0.737,
      "velocity": 98,
      "chip": "ym2612"
    },
    {
      "channel": 1,
      "note": 99,
      "start": 15.9707,
      "duration": 0.7368,
      "velocity": 83,
      "chip": "ym2612"
    },
    {
      "channel": 2,
      "note": 81,
      "start": 15.9712,
      "duration": 0.3573,
      "velocity": 99,
      "chip": "ym2612"
    },
    {
      "channel": 3,
      "note": 69,
      "start": 15.9719,
      "duration": 0.357,
      "velocity": 99,
      "chip": "ym2612"
    },
    {
      "channel": 4,
      "note": 66,
      "start": 15.9726,
      "duration": 2.2528,
      "velocity": 94,
      "chip": "ym2612"
    },
    {
      "channel": 2,
      "note": 71,
      "start": 16.3498,
      "duration": 0.358,
      "velocity": 99,
      "chip": "ym2612"
    },
    {
      "channel": 3,
      "note": 75,
      "start": 16.3505,
      "duration": 0.3576,
      "velocity": 99,
      "chip": "ym2612"
    },
    {
      "channel": 0,
      "note": 66,
      "start": 16.7285,
      "duration": 1.3059,
      "velocity": 98,
      "chip": "ym2612"
    },
    {
      "channel": 1,
      "note": 102,
      "start": 16.7291,
      "duration": 1.3057,
      "velocity": 83,
      "chip": "ym2612"
    },
    {
      "channel": 2,
      "note": 81,
      "start": 16.7296,
      "duration": 0.3572,
      "velocity": 99,
      "chip": "ym2612"
    },
    {
      "channel": 3,
      "note": 69,
      "start": 16.7302,
      "duration": 0.3569,
      "velocity": 99,
      "chip": "ym2612"
    },
    {
      "channel": 2,
      "note": 71,
      "start": 17.1082,
      "duration": 0.358,
      "velocity": 99,
      "chip": "ym2612"
    },
    {
      "channel": 3,
      "note": 75,
      "start": 17.1088,
      "duration": 0.3577,
      "velocity": 99,
      "chip": "ym2612"
    },
    {
      "channel": 2,
      "note": 81,
      "start": 17.4874,
      "duration": 0.3581,
      "velocity": 99,
      "chip": "ym2612"
    },
    {
      "channel": 3,
      "note": 69,
      "start": 17.488,
      "duration": 0.3578,
      "velocity": 99,
      "chip": "ym2612"
    },
    {
      "channel": 2,
      "note": 71,
      "start": 17.8666,
      "duration": 0.3581,
      "velocity": 99,
      "chip": "ym2612"
    },
    {
      "channel": 3,
      "note": 75,
      "start": 17.8672,
      "duration": 0.3578,
      "velocity": 99,
      "chip": "ym2612"
    },
    {
      "channel": 0,
      "note": 68,
      "start": 18.2453,
      "duration": 0.3579,
      "velocity": 98,
      "chip": "ym2612"
    },
    {
      "channel": 1,
      "note": 104,
      "start": 18.2459,
      "duration": 0.3576,
      "velocity": 83,
      "chip": "ym2612"
    },
    {
      "channel": 2,
      "note": 80,
      "start": 18.2464,
      "duration": 0.3574,
      "velocity": 99,
      "chip": "ym2612"
    },
    {
      "channel": 3,
      "note": 69,
      "start": 18.2471,
      "duration": 0.3571,
      "velocity": 99,
      "chip": "ym2612"
    },
    {
      "channel": 4,
      "note": 71,
      "start": 18.2478,
      "duration": 2.2527,
      "velocity": 94,
      "chip": "ym2612"
    },
    {
      "channel": 0,
      "note": 69,
      "start": 18.6245,
      "duration": 0.3579,
      "velocity": 98,
      "chip": "ym2612"
    },
    {
      "channel": 1,
      "note": 105,
      "start": 18.625,
      "duration": 0.3576,
      "velocity": 83,
      "chip": "ym2612"
    },
    {
      "channel": 2,
      "note": 71,
      "start": 18.6256,
      "duration": 0.3574,
      "velocity": 99,
      "chip": "ym2612"
    },
    {
      "channel": 3,
      "note": 76,
      "start": 18.6263,
      "duration": 0.3571,
      "velocity": 99,
      "chip": "ym2612"
    },
    {
      "channel": 0,
      "note": 71,
      "start": 19.0038,
      "duration": 0.737,
      "velocity": 98,
      "chip": "ym2612"
    },
    {
      "channel": 1,
      "note": 107,
      "start": 19.0044,
      "duration": 0.7368,
      "velocity": 83,
      "chip": "ym2612"
    },
    {
      "channel": 2,
      "note": 80,
      "start": 19.0049,
      "duration": 0.3572,
      "velocity": 99,
      "chip": "ym2612"
    },
    {
      "channel": 3,
      "note": 68,
      "start": 19.0055,
      "duration": 0.3569,
      "velocity": 99,
      "chip": "ym2612"
    },
    {
      "channel": 2,
      "note": 71,
      "start": 19.3834,
      "duration": 0.358,
      "velocity": 99,
      "chip": "ym2612"
    },
    {
      "channel": 3,
      "note": 76,
      "start": 19.3841,
      "duration": 0.3577,
      "velocity": 99,
      "chip": "ym2612"
    },
    {
      "channel": 0,
      "note": 69,
      "start": 19.7621,
      "duration": 0.358,
      "velocity": 98,
      "chip": "ym2612"
    },
    {
      "channel": 1,
      "note": 105,
      "start": 19.7626,
      "duration": 0.3578,
      "velocity": 83,
      "chip": "ym2612"
    },
    {
      "channel": 2,
      "note": 80,
      "start": 19.7632,
      "duration": 0.3575,
      "velocity": 99,
      "chip": "ym2612"
    },
    {
      "channel": 3,
      "note": 68,
      "start": 19.7638,
      "duration": 0.3572,
      "velocity": 99,
      "chip": "ym2612"
    },
    {
      "channel": 0,
      "note": 68,
      "start": 20.1413,
      "duration": 0.3579,
      "velocity": 98,
      "chip": "ym2612"
    },
    {
      "channel": 1,
      "note": 104,
      "start": 20.1418,
      "duration": 0.3577,
      "velocity": 83,
      "chip": "ym2612"
    },
    {
      "channel": 2,
      "note": 71,
      "start": 20.1424,
      "duration": 0.3574,
      "velocity": 99,
      "chip": "ym2612"
    },
    {
      "channel": 3,
      "note": 76,
      "start": 20.143,
      "duration": 0.3571,
      "velocity": 99,
      "chip": "ym2612"
    },
    {
      "channel": 0,
      "note": 69,
      "start": 20.5205,
      "duration": 0.737,
      "velocity": 98,
      "chip": "ym2612"
    },
    {
      "channel": 1,
      "note": 105,
      "start": 20.5211,
      "duration": 0.7368,
      "velocity": 83,
      "chip": "ym2612"
    },
    {
      "channel": 2,
      "note": 81,
      "start": 20.5216,
      "duration": 0.3573,
      "velocity": 99,
      "chip": "ym2612"
    },
    {
      "channel": 3,
      "note": 68,
      "start": 20.5222,
      "duration": 0.3569,
      "velocity": 99,
      "chip": "ym2612"
    },
    {
      "channel": 4,
      "note": 64,
      "start": 20.5229,
      "duration": 2.2529,
      "velocity": 94,
      "chip": "ym2612"
    },
    {
      "channel": 2,
      "note": 73,
      "start": 20.9002,
      "duration": 0.358,
      "velocity": 99,
      "chip": "ym2612"
    },
    {
      "channel": 3,
      "note": 76,
      "start": 20.9009,
      "duration": 0.3576,
      "velocity": 99,
      "chip": "ym2612"
    },
    {
      "channel": 0,
      "note": 61,
      "start": 21.2789,
      "duration": 1.306,
      "velocity": 98,
      "chip": "ym2612"
    },
    {
      "channel": 1,
      "note": 97,
      "start": 21.2794,
      "duration": 1.3059,
      "velocity": 83,
      "chip": "ym2612"
    },
    {
      "channel": 2,
      "note": 81,
      "start": 21.2799,
      "duration": 0.3573,
      "velocity": 99,
      "chip": "ym2612"
    },
    {
      "channel": 3,
      "note": 69,
      "start": 21.2806,
      "duration": 0.357,
      "velocity": 99,
      "chip": "ym2612"
    },
    {
      "channel": 2,
      "note": 73,
      "start": 21.6586,
      "duration": 0.3579,
      "velocity": 99,
      "chip": "ym2612"
    },
    {
      "channel": 3,
      "note": 76,
      "start": 21.6593,
      "duration": 0.3576,
      "velocity": 99,
      "chip": "ym2612"
    },
    {
      "channel": 2,
      "note": 81,
      "start": 22.0378,
      "duration": 0.3581,
      "velocity": 99,
      "chip": "ym2612"
    },
    {
      "channel": 3,
      "note": 69,
      "start": 22.0385,
      "duration": 0.3578,
      "velocity": 99,
      "chip": "ym2612"
    },
    {
      "channel": 2,
      "note": 73,
      "start": 22.417,
      "duration": 0.3581,
      "velocity": 99,
      "chip": "ym2612"
    },
    {
      "channel": 3,
      "note": 76,
      "start": 22.4177,
      "duration": 0.3578,
      "velocity": 99,
      "chip": "ym2612"
    },
    {
      "channel": 0,
      "note": 66,
      "start": 22.7958,
      "duration": 0.3579,
      "velocity": 98,
      "chip": "ym2612"
    },
    {
      "channel": 1,
      "note": 102,
      "start": 22.7963,
      "duration": 0.3576,
      "velocity": 83,
      "chip": "ym2612"
    },
    {
      "channel": 2,
      "note": 81,
      "start": 22.7969,
      "duration": 0.3574,
      "velocity": 99,
      "chip": "ym2612"
    },
    {
      "channel": 3,
      "note": 69,
      "start": 22.7975,
      "duration": 0.3571,
      "velocity": 99,
      "chip": "ym2612"
    },
    {
      "channel": 4,
      "note": 66,
      "start": 22.7982,
      "duration": 2.2528,
      "velocity": 94,
      "chip": "ym2612"
    },
    {
      "channel": 0,
      "note": 68,
      "start": 23.175,
      "duration": 0.3579,
      "velocity": 98,
      "chip": "ym2612"
    },
    {
      "channel": 1,
      "note": 104,
      "start": 23.1755,
      "duration": 0.3576,
      "velocity": 83,
      "chip": "ym2612"
    },
    {
      "channel": 2,
      "note": 71,
      "start": 23.1761,
      "duration": 0.3574,
      "velocity": 99,
      "chip": "ym2612"
    },
    {
      "channel": 3,
      "note": 75,
      "start": 23.1767,
      "duration": 0.3571,
      "velocity": 99,
      "chip": "ym2612"
    },
    {
      "channel": 0,
      "note": 69,
      "start": 23.5541,
      "duration": 0.7372,
      "velocity": 98,
      "chip": "ym2612"
    },
    {
      "channel": 1,
      "note": 105,
      "start": 23.5546,
      "duration": 0.737,
      "velocity": 83,
      "chip": "ym2612"
    },
    {
      "channel": 2,
      "note": 81,
      "start": 23.5552,
      "duration": 0.3573,
      "velocity": 99,
      "chip": "ym2612"
    },
    {
      "channel": 3,
      "note": 69,
      "start": 23.5558,
      "duration": 0.357,
      "velocity": 99,
      "chip": "ym2612"
    },
    {
      "channel": 2,
      "note": 71,
      "start": 23.9339,
      "duration": 0.358,
      "velocity": 99,
      "chip": "ym2612"
    },
    {
      "channel": 3,
      "note": 75,
      "start": 23.9345,
      "duration": 0.3577,
      "velocity": 99,
      "chip": "ym2612"
    },
    {
      "channel": 0,
      "note": 68,
      "start": 24.3125,
      "duration": 0.3581,
      "velocity": 98,
      "chip": "ym2612"
    },
    {
      "channel": 1,
      "note": 104,
      "start": 24.3131,
      "duration": 0.3578,
      "velocity": 83,
      "chip": "ym2612"
    },
    {
      "channel": 2,
      "note": 81,
      "start": 24.3136,
      "duration": 0.3576,
      "velocity": 99,
      "chip": "ym2612"
    },
    {
      "channel": 3,
      "note": 69,
      "start": 24.3142,
      "duration": 0.3573,
      "velocity": 99,
      "chip": "ym2612"
    },
    {
      "channel": 0,
      "note": 66,
      "start": 24.6918,
      "duration": 0.3579,
      "velocity": 98,
      "chip": "ym2612"
    },
    {
      "channel": 1,
      "note": 102,
      "start": 24.6923,
      "duration": 0.3577,
      "velocity": 83,
      "chip": "ym2612"
    },
    {
      "channel": 2,
      "note": 71,
      "start": 24.6929,
      "duration": 0.3574,
      "velocity": 99,
      "chip": "ym2612"
    },
    {
      "channel": 3,
      "note": 75,
      "start": 24.6936,
      "duration": 0.3571,
      "velocity": 99,
      "chip": "ym2612"
    },
    {
      "channel": 0,
      "note": 68,
      "start": 25.071,
      "duration": 0.7371,
      "velocity": 98,
      "chip": "ym2612"
    },
    {
      "channel": 1,
      "note": 104,
      "start": 25.0715,
      "duration": 0.7369,
      "velocity": 83,
      "chip": "ym2612"
    },
    {
      "channel": 2,
      "note": 80,
      "start": 25.0721,
      "duration": 0.3572,
      "velocity": 99,
      "chip": "ym2612"
    },
    {
      "channel": 3,
      "note": 69,
      "start": 25.0727,
      "duration": 0.3569,
      "velocity": 99,
      "chip": "ym2612"
    },
    {
      "channel": 4,
      "note": 71,
      "start": 25.0734,
      "duration": 2.2527,
      "velocity": 94,
      "chip": "ym2612"
    },
    {
      "channel": 2,
      "note": 71,
      "start": 25.4507,
      "duration": 0.3581,
      "velocity": 99,
      "chip": "ym2612"
    },
    {
      "channel": 3,
      "note": 76,
      "start": 25.4513,
      "duration": 0.3578,
      "velocity": 99,
      "chip": "ym2612"
    },
    {
      "channel": 0,
      "note": 71,
      "start": 25.8294,
      "duration": 1.3059,
      "velocity": 98,
      "chip": "ym2612"
    },
    {
      "channel": 1,
      "note": 107,
      "start": 25.8299,
      "duration": 1.3057,
      "velocity": 83,
      "chip": "ym2612"
    },
    {
      "channel": 2,
      "note": 80,
      "start": 25.8305,
      "duration": 0.3574,
      "velocity": 99,
      "chip": "ym2612"
    },
    {
      "channel": 3,
      "note": 68,
      "start": 25.8311,
      "duration": 0.3571,
      "velocity": 99,
      "chip": "ym2612"
    },
    {
      "channel": 2,
      "note": 71,
      "start": 26.2091,
      "duration": 0.358,
      "velocity": 99,
      "chip": "ym2612"
    },
    {
      "channel": 3,
      "note": 76,
      "start": 26.2097,
      "duration": 0.3576,
      "velocity": 99,
      "chip": "ym2612"
    },
    {
      "channel": 2,
      "note": 80,
      "start": 26.5883,
      "duration": 0.3579,
      "velocity": 99,
      "chip": "ym2612"
    },
    {
      "channel": 3,
      "note": 68,
      "start": 26.589,
      "duration": 0.3576,
      "velocity": 99,
      "chip": "ym2612"
    },
    {
      "channel": 2,
      "note": 71,
      "start": 26.9674,
      "duration": 0.3581,
      "velocity": 99,
      "chip": "ym2612"
    },
    {
      "channel": 3,
      "note": 76,
      "start": 26.968,
      "duration": 0.3578,
      "velocity": 99,
      "chip": "ym2612"
    },
    {
      "channel": 0,
      "note": 73,
      "start": 27.3462,
      "duration": 0.3579,
      "velocity": 98,
      "chip": "ym2612"
    },
    {
      "channel": 1,
      "note": 109,
      "start": 27.3467,
      "duration": 0.3576,
      "velocity": 83,
      "chip": "ym2612"
    },
    {
      "channel": 2,
      "note": 81,
      "start": 27.3472,
      "duration": 0.3574,
      "velocity": 99,
      "chip": "ym2612"
    },
    {
      "channel": 3,
      "note": 68,
      "start": 27.3479,
      "duration": 0.3571,
      "velocity": 99,
      "chip": "ym2612"
    },
    {
      "channel": 4,
      "note": 64,
      "start": 27.3486,
      "duration": 2.2527,
      "velocity": 94,
      "chip": "ym2612"
    },
    {
      "channel": 0,
      "note": 75,
      "start": 27.7253,
      "duration": 0.3579,
      "velocity": 98,
      "chip": "ym2612"
    },
    {
      "channel": 1,
      "note": 111,
      "start": 27.7258,
      "duration": 0.3577,
      "velocity": 83,
      "chip": "ym2612"
    },
    {
      "channel": 2,
      "note": 73,
      "start": 27.7264,
      "duration": 0.3574,
      "velocity": 99,
      "chip": "ym2612"
    },
    {
      "channel": 3,
      "note": 76,
      "start": 27.727,
      "duration": 0.3571,
      "velocity": 99,
      "chip": "ym2612"
    },
    {
      "channel": 0,
      "note": 76,
      "start": 28.1046,
      "duration": 0.7372,
      "velocity": 98,
      "chip": "ym2612"
    },
    {
      "channel": 1,
      "note": 112,
      "start": 28.1051,
      "duration": 0.737,
      "velocity": 83,
      "chip": "ym2612"
    },
    {
      "channel": 2,
      "note": 81,
      "start": 28.1056,
      "duration": 0.3574,
      "velocity": 99,
      "chip": "ym2612"
    },
    {
      "channel": 3,
      "note": 69,
      "start": 28.1063,
      "duration": 0.3571,
      "velocity": 99,
      "chip": "ym2612"
    },
    {
      "channel": 2,
      "note": 73,
      "start": 28.4843,
      "duration": 0.3581,
      "velocity": 99,
      "chip": "ym2612"
    },
    {
      "channel": 3,
      "note": 76,
      "start": 28.4849,
      "duration": 0.3578,
      "velocity": 99,
      "chip": "ym2612"
    },
    {
      "channel": 0,
      "note": 75,
      "start": 28.863,
      "duration": 0.3578,
      "velocity": 98,
      "chip": "ym2612"
    },
    {
      "channel": 1,
      "note": 111,
      "start": 28.8636,
      "duration": 0.3575,
      "velocity": 83,
      "chip": "ym2612"
    },
    {
      "channel": 2,
      "note": 81,
      "start": 28.8641,
      "duration": 0.3573,
      "velocity": 99,
      "chip": "ym2612"
    },
    {
      "channel": 3,
      "note": 69,
      "start": 28.8647,
      "duration": 0.357,
      "velocity": 99,
      "chip": "ym2612"
    },
    {
      "channel": 0,
      "note": 73,
      "start": 29.2423,
      "duration": 0.3578,
      "velocity": 98,
      "chip": "ym2612"
    },
    {
      "channel": 1,
      "note": 109,
      "start": 29.2428,
      "duration": 0.3576,
      "velocity": 83,
      "chip": "ym2612"
    },
    {
      "channel": 2,
      "note": 73,
      "start": 29.2434,
      "duration": 0.3573,
      "velocity": 99,
      "chip": "ym2612"
    },
    {
      "channel": 3,
      "note": 76,
      "start": 29.244,
      "duration": 0.3569,
      "velocity": 99,
      "chip": "ym2612"
    },
    {
      "channel": 0,
      "note": 75,
      "start": 29.6215,
      "duration": 0.737,
      "velocity": 98,
      "chip": "ym2612"
    },
    {
      "channel": 1,
      "note": 111,
      "start": 29.6221,
      "duration": 0.7367,
      "velocity": 83,
      "chip": "ym2612"
    },
    {
      "channel": 2,
      "note": 80,
      "start": 29.6226,
      "duration": 0.3573,
      "velocity": 99,
      "chip": "ym2612"
    },
    {
      "channel": 3,
      "note": 69,
      "start": 29.6232,
      "duration": 0.3569,
      "velocity": 99,
      "chip": "ym2612"
    },
    {
      "channel": 4,
      "note": 69,
      "start": 29.6239,
      "duration": 2.2527,
      "velocity": 94,
      "chip": "ym2612"
    },
    {
      "channel": 2,
      "note": 71,
      "start": 30.001,
      "duration": 0.3581,
      "velocity": 99,
      "chip": "ym2612"
    },
    {
      "channel": 3,
      "note": 75,
      "start": 30.0016,
      "duration": 0.3578,
      "velocity": 99,
      "chip": "ym2612"
    },
    {
      "channel": 0,
      "note": 71,
      "start": 30.3799,
      "duration": 1.3058,
      "velocity": 98,
      "chip": "ym2612"
    },
    {
      "channel": 1,
      "note": 107,
      "start": 30.3805,
      "duration": 1.3055,
      "velocity": 83,
      "chip": "ym2612"
    },
    {
      "channel": 2,
      "note": 80,
      "start": 30.381,
      "duration": 0.3572,
      "velocity": 99,
      "chip": "ym2612"
    },
    {
      "channel": 3,
      "note": 68,
      "start": 30.3816,
      "duration": 0.3569,
      "velocity": 99,
      "chip": "ym2612"
    },
    {
      "channel": 2,
      "note": 71,
      "start": 30.7594,
      "duration": 0.3581,
      "velocity": 99,
      "chip": "ym2612"
    },
    {
      "channel": 3,
      "note": 75,
      "start": 30.76,
      "duration": 0.3578,
      "velocity": 99,
      "chip": "ym2612"
    },
    {
      "channel": 2,
      "note": 80,
      "start": 31.1387,
      "duration": 0.3581,
      "velocity": 99,
      "chip": "ym2612"
    },
    {
      "channel": 3,
      "note": 68,
      "start": 31.1393,
      "duration": 0.3578,
      "velocity": 99,
      "chip": "ym2612"
    },
    {
      "channel": 2,
      "note": 71,
      "start": 31.5179,
      "duration": 0.358,
      "velocity": 99,
      "chip": "ym2612"
    },
    {
      "channel": 3,
      "note": 75,
      "start": 31.5185,
      "duration": 0.3577,
      "velocity": 99,
      "chip": "ym2612"
    },
    {
      "channel": 0,
      "note": 69,
      "start": 31.8966,
      "duration": 0.3579,
      "velocity": 98,
      "chip": "ym2612"
    },
    {
      "channel": 1,
      "note": 105,
      "start": 31.8972,
      "duration": 0.3576,
      "velocity": 83,
      "chip": "ym2612"
    },
    {
      "channel": 2,
      "note": 81,
      "start": 31.8977,
      "duration": 0.3574,
      "velocity": 99,
      "chip": "ym2612"
    },
    {
      "channel": 3,
      "note": 68,
      "start": 31.8983,
      "duration": 0.3571,
      "velocity": 99,
      "chip": "ym2612"
    },
    {
      "channel": 4,
      "note": 68,
      "start": 31.899,
      "duration": 1.4943,
      "velocity": 94,
      "chip": "ym2612"
    },
    {
      "channel": 0,
      "note": 57,
      "start": 32.2758,
      "duration": 0.358,
      "velocity": 98,
      "chip": "ym2612"
    },
    {
      "channel": 1,
      "note": 93,
      "start": 32.2763,
      "duration": 0.3577,
      "velocity": 83,
      "chip": "ym2612"
    },
    {
      "channel": 2,
      "note": 73,
      "start": 32.2769,
      "duration": 0.3574,
      "velocity": 99,
      "chip": "ym2612"
    },
    {
      "channel": 3,
      "note": 76,
      "start": 32.2775,
      "duration": 0.3571,
      "velocity": 99,
      "chip": "ym2612"
    },
    {
      "channel": 0,
      "note": 59,
      "start": 32.6549,
      "duration": 0.358,
      "velocity": 98,
      "chip": "ym2612"
    },
    {
      "channel": 1,
      "note": 95,
      "start": 32.6554,
      "duration": 0.3578,
      "velocity": 83,
      "chip": "ym2612"
    },
    {
      "channel": 2,
      "note": 81,
      "start": 32.656,
      "duration": 0.3574,
      "velocity": 99,
      "chip": "ym2612"
    },
    {
      "channel": 3,
      "note": 69,
      "start": 32.6567,
      "duration": 0.3571,
      "velocity": 99,
      "chip": "ym2612"
    },
    {
      "channel": 0,
      "note": 61,
      "start": 33.0342,
      "duration": 0.3579,
      "velocity": 98,
      "chip": "ym2612"
    },
    {
      "channel": 1,
      "note": 97,
      "start": 33.0347,
      "duration": 0.3577,
      "velocity": 83,
      "chip": "ym2612"
    },
    {
      "channel": 2,
      "note": 73,
      "start": 33.0353,
      "duration": 0.3574,
      "velocity": 99,
      "chip": "ym2612"
    },
    {
      "channel": 3,
      "note": 76,
      "start": 33.0359,
      "duration": 0.3571,
      "velocity": 99,
      "chip": "ym2612"
    },
    {
      "channel": 0,
      "note": 63,
      "start": 33.4134,
      "duration": 0.3579,
      "velocity": 98,
      "chip": "ym2612"
    },
    {
      "channel": 1,
      "note": 99,
      "start": 33.4139,
      "duration": 0.3577,
      "velocity": 83,
      "chip": "ym2612"
    },
    {
      "channel": 2,
      "note": 81,
      "start": 33.4145,
      "duration": 0.3574,
      "velocity": 99,
      "chip": "ym2612"
    },
    {
      "channel": 3,
      "note": 69,
      "start": 33.4151,
      "duration": 0.3571,
      "velocity": 99,
      "chip": "ym2612"
    },
    {
      "channel": 4,
      "note": 66,
      "start": 33.4158,
      "duration": 0.7361,
      "velocity": 94,
      "chip": "ym2612"
    },
    {
      "channel": 0,
      "note": 59,
      "start": 33.7927,
      "duration": 0.358,
      "velocity": 98,
      "chip": "ym2612"
    },
    {
      "channel": 1,
      "note": 95,
      "start": 33.7932,
      "duration": 0.3578,
      "velocity": 83,
      "chip": "ym2612"
    },
    {
      "channel": 2,
      "note": 71,
      "start": 33.7937,
      "duration": 0.3574,
      "velocity": 99,
      "chip": "ym2612"
    },
    {
      "channel": 3,
      "note": 75,
      "start": 33.7944,
      "duration": 0.3571,
      "velocity": 99,
      "chip": "ym2612"
    },
    {
      "channel": 0,
      "note": 66,
      "start": 34.1719,
      "duration": 0.7371,
      "velocity": 98,
      "chip": "ym2612"
    },
    {
      "channel": 1,
      "note": 102,
      "start": 34.1724,
      "duration": 0.7369,
      "velocity": 83,
      "chip": "ym2612"
    },
    {
      "channel": 2,
      "note": 81,
      "start": 34.1729,
      "duration": 0.7367,
      "velocity": 99,
      "chip": "ym2612"
    },
    {
      "channel": 3,
      "note": 69,
      "start": 34.1736,
      "duration": 0.7364,
      "velocity": 99,
      "chip": "ym2612"
    },
    {
      "channel": 4,
      "note": 71,
      "start": 34.1743,
      "duration": 2.2527,
      "velocity": 94,
      "chip": "ym2612"
    },
    {
      "channel": 0,
      "note": 64,
      "start": 34.9302,
      "duration": 1.306,
      "velocity": 98,
      "chip": "ym2612"
    },
    {
      "channel": 1,
      "note": 100,
      "start": 34.9308,
      "duration": 1.3057,
      "velocity": 83,
      "chip": "ym2612"
    },
    {
      "channel": 2,
      "note": 80,
      "start": 34.9313,
      "duration": 1.1159,
      "velocity": 99,
      "chip": "ym2612"
    },
    {
      "channel": 3,
      "note": 73,
      "start": 34.932,
      "duration": 1.1155,
      "velocity": 99,
      "chip": "ym2612"
    },
    {
      "channel": 0,
      "note": 68,
      "start": 36.4471,
      "duration": 0.3578,
      "velocity": 98,
      "chip": "ym2612"
    },
    {
      "channel": 1,
      "note": 104,
      "start": 36.4478,
      "duration": 0.3574,
      "velocity": 83,
      "chip": "ym2612"
    },
    {
      "channel": 3,
      "note": 71,
      "start": 36.4491,
      "duration": 0.3567,
      "velocity": 99,
      "chip": "ym2612"
    },
    {
      "channel": 4,
      "note": 64,
      "start": 36.4499,
      "duration": 2.2522,
      "velocity": 94,
      "chip": "ym2612"
    },
    {
      "channel": 0,
      "note": 69,
      "start": 36.8263,
      "duration": 0.3578,
      "velocity": 98,
      "chip": "ym2612"
    },
    {
      "channel": 1,
      "note": 105,
      "start": 36.8268,
      "duration": 0.3576,
      "velocity": 83,
      "chip": "ym2612"
    },
    {
      "channel": 2,
      "note": 71,
      "start": 36.8307,
      "duration": 0.3539,
      "velocity": 99,
      "chip": "ym2612"
    },
    {
      "channel": 3,
      "note": 76,
      "start": 36.8313,
      "duration": 0.3536,
      "velocity": 99,
      "chip": "ym2612"
    },
    {
      "channel": 0,
      "note": 71,
      "start": 37.2054,
      "duration": 0.7372,
      "velocity": 98,
      "chip": "ym2612"
    },
    {
      "channel": 1,
      "note": 107,
      "start": 37.206,
      "duration": 0.7369,
      "velocity": 83,
      "chip": "ym2612"
    },
    {
      "channel": 2,
      "note": 80,
      "start": 37.2065,
      "duration": 0.3573,
      "velocity": 99,
      "chip": "ym2612"
    },
    {
      "channel": 3,
      "note": 68,
      "start": 37.2072,
      "duration": 0.357,
      "velocity": 99,
      "chip": "ym2612"
    },
    {
      "channel": 2,
      "note": 71,
      "start": 37.5851,
      "duration": 0.3582,
      "velocity": 99,
      "chip": "ym2612"
    },
    {
      "channel": 3,
      "note": 76,
      "start": 37.5858,
      "duration": 0.3578,
      "velocity": 99,
      "chip": "ym2612"
    },
    {
      "channel": 0,
      "note": 69,
      "start": 37.9638,
      "duration": 0.358,
      "velocity": 98,
      "chip": "ym2612"
    },
    {
      "channel": 1,
      "note": 105,
      "start": 37.9644,
      "duration": 0.3577,
      "velocity": 83,
      "chip": "ym2612"
    },
    {
      "channel": 2,
      "note": 80,
      "start": 37.9649,
      "duration": 0.3575,
      "velocity": 99,
      "chip": "ym2612"
    },
    {
      "channel": 3,
      "note": 68,
      "start": 37.9655,
      "duration": 0.3572,
      "velocity": 99,
      "chip": "ym2612"
    },
    {
      "channel": 0,
      "note": 68,
      "start": 38.343,
      "duration": 0.3578,
      "velocity": 98,
      "chip": "ym2612"
    },
    {
      "channel": 1,
      "note": 104,
      "start": 38.3436,
      "duration": 0.3576,
      "velocity": 83,
      "chip": "ym2612"
    },
    {
      "channel": 2,
      "note": 71,
      "start": 38.3441,
      "duration": 0.3573,
      "velocity": 99,
      "chip": "ym2612"
    },
    {
      "channel": 3,
      "note": 76,
      "start": 38.3448,
      "duration": 0.357,
      "velocity": 99,
      "chip": "ym2612"
    },
    {
      "channel": 0,
      "note": 69,
      "start": 38.7223,
      "duration": 0.737,
      "velocity": 98,
      "chip": "ym2612"
    },
    {
      "channel": 1,
      "note": 105,
      "start": 38.7229,
      "duration": 0.7368,
      "velocity": 83,
      "chip": "ym2612"
    },
    {
      "channel": 2,
      "note": 81,
      "start": 38.7234,
      "duration": 0.3572,
      "velocity": 99,
      "chip": "ym2612"
    },
    {
      "channel": 3,
      "note": 68,
      "start": 38.724,
      "duration": 0.3568,
      "velocity": 99,
      "chip": "ym2612"
    },
    {
      "channel": 4,
      "note": 64,
      "start": 38.7247,
      "duration": 2.2528,
      "velocity": 94,
      "chip": "ym2612"
    },
    {
      "channel": 2,
      "note": 73,
      "start": 39.102,
      "duration": 0.358,
      "velocity": 99,
      "chip": "ym2612"
    },
    {
      "channel": 3,
      "note": 76,
      "start": 39.1026,
      "duration": 0.3577,
      "velocity": 99,
      "chip": "ym2612"
    },
    {
      "channel": 0,
      "note": 61,
      "start": 39.4806,
      "duration": 1.3059,
      "velocity": 98,
      "chip": "ym2612"
    },
    {
      "channel": 1,
      "note": 97,
      "start": 39.4812,
      "duration": 1.3056,
      "velocity": 83,
      "chip": "ym2612"
    },
    {
      "channel": 2,
      "note": 81,
      "start": 39.4817,
      "duration": 0.3574,
      "velocity": 99,
      "chip": "ym2612"
    },
    {
      "channel": 3,
      "note": 69,
      "start": 39.4823,
      "duration": 0.3571,
      "velocity": 99,
      "chip": "ym2612"
    },
    {
      "channel": 2,
      "note": 73,
      "start": 39.8602,
      "duration": 0.3581,
      "velocity": 99,
      "chip": "ym2612"
    },
    {
      "channel": 3,
      "note": 76,
      "start": 39.8609,
      "duration": 0.3578,
      "velocity": 99,
      "chip": "ym2612"
    },
    {
      "channel": 2,
      "note": 81,
      "start": 40.2396,
      "duration": 0.3581,
      "velocity": 99,
      "chip": "ym2612"
    },
    {
      "channel": 3,
      "note": 69,
      "start": 40.2402,
      "duration": 0.3578,
      "velocity": 99,
      "chip": "ym2612"
    },
    {
      "channel": 2,
      "note": 73,
      "start": 40.6189,
      "duration": 0.358,
      "velocity": 99,
      "chip": "ym2612"
    },
    {
      "channel": 3,
      "note": 76,
      "start": 40.6195,
      "duration": 0.3576,
      "velocity": 99,
      "chip": "ym2612"
    },
    {
      "channel": 0,
      "note": 66,
      "start": 40.9975,
      "duration": 0.3579,
      "velocity": 98,
      "chip": "ym2612"
    },
    {
      "channel": 1,
      "note": 102,
      "start": 40.9981,
      "duration": 0.3576,
      "velocity": 83,
      "chip": "ym2612"
    },
    {
      "channel": 2,
      "note": 81,
      "start": 40.9986,
      "duration": 0.3575,
      "velocity": 99,
      "chip": "ym2612"
    },
    {
      "channel": 3,
      "note": 69,
      "start": 40.9992,
      "duration": 0.3571,
      "velocity": 99,
      "chip": "ym2612"
    },
    {
      "channel": 4,
      "note": 66,
      "start": 40.9999,
      "duration": 2.2528,
      "velocity": 94,
      "chip": "ym2612"
    },
    {
      "channel": 0,
      "note": 68,
      "start": 41.3767,
      "duration": 0.358,
      "velocity": 98,
      "chip": "ym2612"
    },
    {
      "channel": 1,
      "note": 104,
      "start": 41.3772,
      "duration": 0.3577,
      "velocity": 83,
      "chip": "ym2612"
    },
    {
      "channel": 2,
      "note": 71,
      "start": 41.3778,
      "duration": 0.3574,
      "velocity": 99,
      "chip": "ym2612"
    },
    {
      "channel": 3,
      "note": 75,
      "start": 41.3784,
      "duration": 0.3571,
      "velocity": 99,
      "chip": "ym2612"
    },
    {
      "channel": 0,
      "note": 69,
      "start": 41.7558,
      "duration": 0.7371,
      "velocity": 98,
      "chip": "ym2612"
    },
    {
      "channel": 1,
      "note": 105,
      "start": 41.7564,
      "duration": 0.7369,
      "velocity": 83,
      "chip": "ym2612"
    },
    {
      "channel": 2,
      "note": 81,
      "start": 41.7569,
      "duration": 0.3574,
      "velocity": 99,
      "chip": "ym2612"
    },
    {
      "channel": 3,
      "note": 69,
      "start": 41.7576,
      "duration": 0.3571,
      "velocity": 99,
      "chip": "ym2612"
    },
    {
      "channel": 2,
      "note": 71,
      "start": 42.1355,
      "duration": 0.3582,
      "velocity": 99,
      "chip": "ym2612"
    },
    {
      "channel": 3,
      "note": 75,
      "start": 42.1361,
      "duration": 0.3578,
      "velocity": 99,
      "chip": "ym2612"
    },
    {
      "channel": 0,
      "note": 68,
      "start": 42.5142,
      "duration": 0.358,
      "velocity": 98,
      "chip": "ym2612"
    },
    {
      "channel": 1,
      "note": 104,
      "start": 42.5148,
      "duration": 0.3577,
      "velocity": 83,
      "chip": "ym2612"
    },
    {
      "channel": 2,
      "note": 81,
      "start": 42.5153,
      "duration": 0.3575,
      "velocity": 99,
      "chip": "ym2612"
    },
    {
      "channel": 3,
      "note": 69,
      "start": 42.5159,
      "duration": 0.3572,
      "velocity": 99,
      "chip": "ym2612"
    },
    {
      "channel": 0,
      "note": 66,
      "start": 42.8936,
      "duration": 0.3579,
      "velocity": 98,
      "chip": "ym2612"
    },
    {
      "channel": 1,
      "note": 102,
      "start": 42.8941,
      "duration": 0.3577,
      "velocity": 83,
      "chip": "ym2612"
    },
    {
      "channel": 2,
      "note": 71,
      "start": 42.8946,
      "duration": 0.3574,
      "velocity": 99,
      "chip": "ym2612"
    },
    {
      "channel": 3,
      "note": 75,
      "start": 42.8953,
      "duration": 0.3571,
      "velocity": 99,
      "chip": "ym2612"
    },
    {
      "channel": 0,
      "note": 68,
      "start": 43.2727,
      "duration": 0.7371,
      "velocity": 98,
      "chip": "ym2612"
    },
    {
      "channel": 1,
      "note": 104,
      "start": 43.2733,
      "duration": 0.7368,
      "velocity": 83,
      "chip": "ym2612"
    },
    {
      "channel": 2,
      "note": 80,
      "start": 43.2738,
      "duration": 0.3573,
      "velocity": 99,
      "chip": "ym2612"
    },
    {
      "channel": 3,
      "note": 69,
      "start": 43.2744,
      "duration": 0.357,
      "velocity": 99,
      "chip": "ym2612"
    },
    {
      "channel": 4,
      "note": 71,
      "start": 43.2752,
      "duration": 2.2527,
      "velocity": 94,
      "chip": "ym2612"
    },
    {
      "channel": 2,
      "note": 71,
      "start": 43.6524,
      "duration": 0.358,
      "velocity": 99,
      "chip": "ym2612"
    },
    {
      "channel": 3,
      "note": 76,
      "start": 43.653,
      "duration": 0.3577,
      "velocity": 99,
      "chip": "ym2612"
    },
    {
      "channel": 0,
      "note": 71,
      "start": 44.031,
      "duration": 1.306,
      "velocity": 98,
      "chip": "ym2612"
    },
    {
      "channel": 1,
      "note": 107,
      "start": 44.0316,
      "duration": 1.3057,
      "velocity": 83,
      "chip": "ym2612"
    },
    {
      "channel": 2,
      "note": 80,
      "start": 44.0321,
      "duration": 0.3574,
      "velocity": 99,
      "chip": "ym2612"
    },
    {
      "channel": 3,
      "note": 68,
      "start": 44.0327,
      "duration": 0.3571,
      "velocity": 99,
      "chip": "ym2612"
    },
    {
      "channel": 2,
      "note": 71,
      "start": 44.4107,
      "duration": 0.358,
      "velocity": 99,
      "chip": "ym2612"
    },
    {
      "channel": 3,
      "note": 76,
      "start": 44.4114,
      "duration": 0.3577,
      "velocity": 99,
      "chip": "ym2612"
    },
    {
      "channel": 2,
      "note": 80,
      "start": 44.7901,
      "duration": 0.358,
      "velocity": 99,
      "chip": "ym2612"
    },
    {
      "channel": 3,
      "note": 68,
      "start": 44.7907,
      "duration": 0.3577,
      "velocity": 99,
      "chip": "ym2612"
    },
    {
      "channel": 2,
      "note": 71,
      "start": 45.1693,
      "duration": 0.3578,
      "velocity": 99,
      "chip": "ym2612"
    },
    {
      "channel": 3,
      "note": 76,
      "start": 45.17,
      "duration": 0.3575,
      "velocity": 99,
      "chip": "ym2612"
    },
    {
      "channel": 0,
      "note": 73,
      "start": 45.5479,
      "duration": 0.358,
      "velocity": 98,
      "chip": "ym2612"
    },
    {
      "channel": 1,
      "note": 109,
      "start": 45.5485,
      "duration": 0.3578,
      "velocity": 83,
      "chip": "ym2612"
    },
    {
      "channel": 2,
      "note": 81,
      "start": 45.549,
      "duration": 0.3575,
      "velocity": 99,
      "chip": "ym2612"
    },
    {
      "channel": 3,
      "note": 68,
      "start": 45.5496,
      "duration": 0.3572,
      "velocity": 99,
      "chip": "ym2612"
    },
    {
      "channel": 4,
      "note": 64,
      "start": 45.5503,
      "duration": 2.2527,
      "velocity": 94,
      "chip": "ym2612"
    },
    {
      "channel": 0,
      "note": 75,
      "start": 45.9272,
      "duration": 0.3578,
      "velocity": 98,
      "chip": "ym2612"
    },
    {
      "channel": 1,
      "note": 111,
      "start": 45.9277,
      "duration": 0.3576,
      "velocity": 83,
      "chip": "ym2612"
    },
    {
      "channel": 2,
      "note": 73,
      "start": 45.9283,
      "duration": 0.3573,
      "velocity": 99,
      "chip": "ym2612"
    },
    {
      "channel": 3,
      "note": 76,
      "start": 45.9289,
      "duration": 0.3569,
      "velocity": 99,
      "chip": "ym2612"
    },
    {
      "channel": 0,
      "note": 76,
      "start": 46.3063,
      "duration": 0.737,
      "velocity": 98,
      "chip": "ym2612"
    },
    {
      "channel": 1,
      "note": 112,
      "start": 46.3069,
      "duration": 0.7368,
      "velocity": 83,
      "chip": "ym2612"
    },
    {
      "channel": 2,
      "note": 81,
      "start": 46.3074,
      "duration": 0.3573,
      "velocity": 99,
      "chip": "ym2612"
    },
    {
      "channel": 3,
      "note": 69,
      "start": 46.308,
      "duration": 0.3569,
      "velocity": 99,
      "chip": "ym2612"
    },
    {
      "channel": 2,
      "note": 73,
      "start": 46.6861,
      "duration": 0.3579,
      "velocity": 99,
      "chip": "ym2612"
    },
    {
      "channel": 3,
      "note": 76,
      "start": 46.6867,
      "duration": 0.3576,
      "velocity": 99,
      "chip": "ym2612"
    },
    {
      "channel": 0,
      "note": 75,
      "start": 47.0648,
      "duration": 0.3578,
      "velocity": 98,
      "chip": "ym2612"
    },
    {
      "channel": 1,
      "note": 111,
      "start": 47.0654,
      "duration": 0.3576,
      "velocity": 83,
      "chip": "ym2612"
    },
    {
      "channel": 2,
      "note": 81,
      "start": 47.0659,
      "duration": 0.3573,
      "velocity": 99,
      "chip": "ym2612"
    },
    {
      "channel": 3,
      "note": 69,
      "start": 47.0665,
      "duration": 0.357,
      "velocity": 99,
      "chip": "ym2612"
    },
    {
      "channel": 0,
      "note": 73,
      "start": 47.4439,
      "duration": 0.3579,
      "velocity": 98,
      "chip": "ym2612"
    },
    {
      "channel": 1,
      "note": 109,
      "start": 47.4444,
      "duration": 0.3577,
      "velocity": 83,
      "chip": "ym2612"
    },
    {
      "channel": 2,
      "note": 73,
      "start": 47.4449,
      "duration": 0.3574,
      "velocity": 99,
      "chip": "ym2612"
    },
    {
      "channel": 3,
      "note": 76,
      "start": 47.4456,
      "duration": 0.3571,
      "velocity": 99,
      "chip": "ym2612"
    },
    {
      "channel": 0,
      "note": 75,
      "start": 47.8231,
      "duration": 0.7372,
      "velocity": 98,
      "chip": "ym2612"
    },
    {
      "channel": 1,
      "note": 111,
      "start": 47.8236,
      "duration": 0.737,
      "velocity": 83,
      "chip": "ym2612"
    },
    {
      "channel": 2,
      "note": 80,
      "start": 47.8241,
      "duration": 0.3574,
      "velocity": 99,
      "chip": "ym2612"
    },
    {
      "channel": 3,
      "note": 69,
      "start": 47.8248,
      "duration": 0.3571,
      "velocity": 99,
      "chip": "ym2612"
    },
    {
      "channel": 4,
      "note": 69,
      "start": 47.8255,
      "duration": 2.2527,
      "velocity": 94,
      "chip": "ym2612"
    },
    {
      "channel": 2,
      "note": 71,
      "start": 48.2027,
      "duration": 0.3582,
      "velocity": 99,
      "chip": "ym2612"
    },
    {
      "channel": 3,
      "note": 75,
      "start": 48.2034,
      "duration": 0.3579,
      "velocity": 99,
      "chip": "ym2612"
    },
    {
      "channel": 0,
      "note": 71,
      "start": 48.5815,
      "duration": 1.306,
      "velocity": 98,
      "chip": "ym2612"
    },
    {
      "channel": 1,
      "note": 107,
      "start": 48.5821,
      "duration": 1.3057,
      "velocity": 83,
      "chip": "ym2612"
    },
    {
      "channel": 2,
      "note": 80,
      "start": 48.5826,
      "duration": 0.3573,
      "velocity": 99,
      "chip": "ym2612"
    },
    {
      "channel": 3,
      "note": 68,
      "start": 48.5832,
      "duration": 0.3569,
      "velocity": 99,
      "chip": "ym2612"
    },
    {
      "channel": 2,
      "note": 71,
      "start": 48.9612,
      "duration": 0.3579,
      "velocity": 99,
      "chip": "ym2612"
    },
    {
      "channel": 3,
      "note": 75,
      "start": 48.9619,
      "duration": 0.3576,
      "velocity": 99,
      "chip": "ym2612"
    },
    {
      "channel": 2,
      "note": 80,
      "start": 49.3405,
      "duration": 0.358,
      "velocity": 99,
      "chip": "ym2612"
    },
    {
      "channel": 3,
      "note": 68,
      "start": 49.3411,
      "duration": 0.3577,
      "velocity": 99,
      "chip": "ym2612"
    },
    {
      "channel": 2,
      "note": 71,
      "start": 49.7196,
      "duration": 0.3579,
      "velocity": 99,
      "chip": "ym2612"
    },
    {
      "channel": 3,
      "note": 75,
      "start": 49.7203,
      "duration": 0.3576,
      "velocity": 99,
      "chip": "ym2612"
    },
    {
      "channel": 0,
      "note": 69,
      "start": 50.0984,
      "duration": 0.3579,
      "velocity": 98,
      "chip": "ym2612"
    },
    {
      "channel": 1,
      "note": 105,
      "start": 50.099,
      "duration": 0.3576,
      "velocity": 83,
      "chip": "ym2612"
    },
    {
      "channel": 2,
      "note": 81,
      "start": 50.0995,
      "duration": 0.3574,
      "velocity": 99,
      "chip": "ym2612"
    },
    {
      "channel": 3,
      "note": 68,
      "start": 50.1001,
      "duration": 0.3571,
      "velocity": 99,
      "chip": "ym2612"
    },
    {
      "channel": 4,
      "note": 68,
      "start": 50.1008,
      "duration": 2.2527,
      "velocity": 94,
      "chip": "ym2612"
    },
    {
      "channel": 0,
      "note": 61,
      "start": 50.4776,
      "duration": 0.3579,
      "velocity": 98,
      "chip": "ym2612"
    },
    {
      "channel": 1,
      "note": 97,
      "start": 50.4781,
      "duration": 0.3577,
      "velocity": 83,
      "chip": "ym2612"
    },
    {
      "channel": 2,
      "note": 73,
      "start": 50.4787,
      "duration": 0.3575,
      "velocity": 99,
      "chip": "ym2612"
    },
    {
      "channel": 3,
      "note": 76,
      "start": 50.4793,
      "duration": 0.3571,
      "velocity": 99,
      "chip": "ym2612"
    },
    {
      "channel": 0,
      "note": 61,
      "start": 50.8567,
      "duration": 0.358,
      "velocity": 98,
      "chip": "ym2612"
    },
    {
      "channel": 1,
      "note": 97,
      "start": 50.8572,
      "duration": 0.3578,
      "velocity": 83,
      "chip": "ym2612"
    },
    {
      "channel": 2,
      "note": 81,
      "start": 50.8578,
      "duration": 0.3575,
      "velocity": 99,
      "chip": "ym2612"
    },
    {
      "channel": 3,
      "note": 69,
      "start": 50.8584,
      "duration": 0.3572,
      "velocity": 99,
      "chip": "ym2612"
    },
    {
      "channel": 0,
      "note": 63,
      "start": 51.2361,
      "duration": 0.3578,
      "velocity": 98,
      "chip": "ym2612"
    },
    {
      "channel": 1,
      "note": 99,
      "start": 51.2366,
      "duration": 0.3576,
      "velocity": 83,
      "chip": "ym2612"
    },
    {
      "channel": 2,
      "note": 73,
      "start": 51.2371,
      "duration": 0.3573,
      "velocity": 99,
      "chip": "ym2612"
    },
    {
      "channel": 3,
      "note": 76,
      "start": 51.2378,
      "duration": 0.3569,
      "velocity": 99,
      "chip": "ym2612"
    },
    {
      "channel": 0,
      "note": 64,
      "start": 51.6152,
      "duration": 0.358,
      "velocity": 98,
      "chip": "ym2612"
    },
    {
      "channel": 1,
      "note": 100,
      "start": 51.6157,
      "duration": 0.3578,
      "velocity": 83,
      "chip": "ym2612"
    },
    {
      "channel": 2,
      "note": 81,
      "start": 51.6163,
      "duration": 0.3575,
      "velocity": 99,
      "chip": "ym2612"
    },
    {
      "channel": 3,
      "note": 69,
      "start": 51.6169,
      "duration": 0.3572,
      "velocity": 99,
      "chip": "ym2612"
    },
    {
      "channel": 0,
      "note": 61,
      "start": 51.9944,
      "duration": 0.3578,
      "velocity": 98,
      "chip": "ym2612"
    },
    {
      "channel": 1,
      "note": 97,
      "start": 51.9949,
      "duration": 0.3576,
      "velocity": 83,
      "chip": "ym2612"
    },
    {
      "channel": 2,
      "note": 73,
      "start": 51.9955,
      "duration": 0.3573,
      "velocity": 99,
      "chip": "ym2612"
    },
    {
      "channel": 3,
      "note": 76,
      "start": 51.9962,
      "duration": 0.357,
      "velocity": 99,
      "chip": "ym2612"
    },
    {
      "channel": 0,
      "note": 63,
      "start": 52.3735,
      "duration": 0.7372,
      "velocity": 98,
      "chip": "ym2612"
    },
    {
      "channel": 1,
      "note": 99,
      "start": 52.3741,
      "duration": 0.737,
      "velocity": 83,
      "chip": "ym2612"
    },
    {
      "channel": 2,
      "note": 81,
      "start": 52.3746,
      "duration": 0.3573,
      "velocity": 99,
      "chip": "ym2612"
    },
    {
      "channel": 3,
      "note": 69,
      "start": 52.3752,
      "duration": 0.357,
      "velocity": 99,
      "chip": "ym2612"
    },
    {
      "channel": 4,
      "note": 66,
      "start": 52.3759,
      "duration": 2.2527,
      "velocity": 94,
      "chip": "ym2612"
    },
    {
      "channel": 2,
      "note": 71,
      "start": 52.7532,
      "duration": 0.3581,
      "velocity": 99,
      "chip": "ym2612"
    },
    {
      "channel": 3,
      "note": 75,
      "start": 52.7539,
      "duration": 0.3578,
      "velocity": 99,
      "chip": "ym2612"
    },
    {
      "channel": 0,
      "note": 66,
      "start": 53.1319,
      "duration": 1.3059,
      "velocity": 98,
      "chip": "ym2612"
    },
    {
      "channel": 1,
      "note": 102,
      "start": 53.1325,
      "duration": 1.3056,
      "velocity": 83,
      "chip": "ym2612"
    },
    {
      "channel": 2,
      "note": 81,
      "start": 53.133,
      "duration": 0.3574,
      "velocity": 99,
      "chip": "ym2612"
    },
    {
      "channel": 3,
      "note": 69,
      "start": 53.1336,
      "duration": 0.3571,
      "velocity": 99,
      "chip": "ym2612"
    },
    {
      "channel": 2,
      "note": 71,
      "start": 53.5116,
      "duration": 0.358,
      "velocity": 99,
      "chip": "ym2612"
    },
    {
      "channel": 3,
      "note": 75,
      "start": 53.5122,
      "duration": 0.3577,
      "velocity": 99,
      "chip": "ym2612"
    },
    {
      "channel": 2,
      "note": 81,
      "start": 53.891,
      "duration": 0.3581,
      "velocity": 99,
      "chip": "ym2612"
    },
    {
      "channel": 3,
      "note": 69,
      "start": 53.8916,
      "duration": 0.3578,
      "velocity": 99,
      "chip": "ym2612"
    },
    {
      "channel": 2,
      "note": 71,
      "start": 54.2701,
      "duration": 0.3579,
      "velocity": 99,
      "chip": "ym2612"
    },
    {
      "channel": 3,
      "note": 75,
      "start": 54.2708,
      "duration": 0.3576,
      "velocity": 99,
      "chip": "ym2612"
    },
    {
      "channel": 0,
      "note": 68,
      "start": 54.6487,
      "duration": 0.358,
      "velocity": 98,
      "chip": "ym2612"
    },
    {
      "channel": 1,
      "note": 104,
      "start": 54.6493,
      "duration": 0.3578,
      "velocity": 83,
      "chip": "ym2612"
    },
    {
      "channel": 2,
      "note": 80,
      "start": 54.6498,
      "duration": 0.3575,
      "velocity": 99,
      "chip": "ym2612"
    },
    {
      "channel": 3,
      "note": 69,
      "start": 54.6504,
      "duration": 0.3572,
      "velocity": 99,
      "chip": "ym2612"
    },
    {
      "channel": 4,
      "note": 71,
      "start": 54.6511,
      "duration": 2.2529,
      "velocity": 94,
      "chip": "ym2612"
    },
    {
      "channel": 0,
      "note": 69,
      "start": 55.028,
      "duration": 0.3579,
      "velocity": 98,
      "chip": "ym2612"
    },
    {
      "channel": 1,
      "note": 105,
      "start": 55.0285,
      "duration": 0.3577,
      "velocity": 83,
      "chip": "ym2612"
    },
    {
      "channel": 2,
      "note": 71,
      "start": 55.0291,
      "duration": 0.3574,
      "velocity": 99,
      "chip": "ym2612"
    },
    {
      "channel": 3,
      "note": 76,
      "start": 55.0298,
      "duration": 0.3571,
      "velocity": 99,
      "chip": "ym2612"
    },
    {
      "channel": 0,
      "note": 71,
      "start": 55.4071,
      "duration": 0.7372,
      "velocity": 98,
      "chip": "ym2612"
    },
    {
      "channel": 1,
      "note": 107,
      "start": 55.4077,
      "duration": 0.7369,
      "velocity": 83,
      "chip": "ym2612"
    },
    {
      "channel": 2,
      "note": 80,
      "start": 55.4083,
      "duration": 0.3573,
      "velocity": 99,
      "chip": "ym2612"
    },
    {
      "channel": 3,
      "note": 68,
      "start": 55.4089,
      "duration": 0.357,
      "velocity": 99,
      "chip": "ym2612"
    },
    {
      "channel": 2,
      "note": 71,
      "start": 55.7869,
      "duration": 0.358,
      "velocity": 99,
      "chip": "ym2612"
    },
    {
      "channel": 3,
      "note": 76,
      "start": 55.7876,
      "duration": 0.3577,
      "velocity": 99,
      "chip": "ym2612"
    },
    {
      "channel": 0,
      "note": 69,
      "start": 56.1656,
      "duration": 0.358,
      "velocity": 98,
      "chip": "ym2612"
    },
    {
      "channel": 1,
      "note": 105,
      "start": 56.1661,
      "duration": 0.3578,
      "velocity": 83,
      "chip": "ym2612"
    },
    {
      "channel": 2,
      "note": 80,
      "start": 56.1666,
      "duration": 0.3575,
      "velocity": 99,
      "chip": "ym2612"
    },
    {
      "channel": 3,
      "note": 68,
      "start": 56.1673,
      "duration": 0.3572,
      "velocity": 99,
      "chip": "ym2612"
    },
    {
      "channel": 0,
      "note": 68,
      "start": 56.5448,
      "duration": 0.358,
      "velocity": 98,
      "chip": "ym2612"
    },
    {
      "channel": 1,
      "note": 104,
      "start": 56.5453,
      "duration": 0.3577,
      "velocity": 83,
      "chip": "ym2612"
    },
    {
      "channel": 2,
      "note": 71,
      "start": 56.5459,
      "duration": 0.3574,
      "velocity": 99,
      "chip": "ym2612"
    },
    {
      "channel": 3,
      "note": 76,
      "start": 56.5466,
      "duration": 0.3571,
      "velocity": 99,
      "chip": "ym2612"
    },
    {
      "channel": 0,
      "note": 69,
      "start": 56.924,
      "duration": 0.7371,
      "velocity": 98,
      "chip": "ym2612"
    },
    {
      "channel": 1,
      "note": 105,
      "start": 56.9246,
      "duration": 0.7368,
      "velocity": 83,
      "chip": "ym2612"
    },
    {
      "channel": 2,
      "note": 81,
      "start": 56.9251,
      "duration": 0.3573,
      "velocity": 99,
      "chip": "ym2612"
    },
    {
      "channel": 3,
      "note": 68,
      "start": 56.9257,
      "duration": 0.3569,
      "velocity": 99,
      "chip": "ym2612"
    },
    {
      "channel": 4,
      "note": 64,
      "start": 56.9264,
      "duration": 2.2527,
      "velocity": 94,
      "chip": "ym2612"
    },
    {
      "channel": 2,
      "note": 73,
      "start": 57.3037,
      "duration": 0.358,
      "velocity": 99,
      "chip": "ym2612"
    },
    {
      "channel": 3,
      "note": 76,
      "start": 57.3044,
      "duration": 0.3577,
      "velocity": 99,
      "chip": "ym2612"
    },
    {
      "channel": 0,
      "note": 61,
      "start": 57.6824,
      "duration": 1.3059,
      "velocity": 98,
      "chip": "ym2612"
    },
    {
      "channel": 1,
      "note": 97,
      "start": 57.6829,
      "duration": 1.3057,
      "velocity": 83,
      "chip": "ym2612"
    },
    {
      "channel": 2,
      "note": 81,
      "start": 57.6835,
      "duration": 0.3573,
      "velocity": 99,
      "chip": "ym2612"
    },
    {
      "channel": 3,
      "note": 69,
      "start": 57.6841,
      "duration": 0.357,
      "velocity": 99,
      "chip": "ym2612"
    },
    {
      "channel": 2,
      "note": 73,
      "start": 58.062,
      "duration": 0.358,
      "velocity": 99,
      "chip": "ym2612"
    },
    {
      "channel": 3,
      "note": 76,
      "start": 58.0626,
      "duration": 0.3577,
      "velocity": 99,
      "chip": "ym2612"
    },
    {
      "channel": 2,
      "note": 81,
      "start": 58.4413,
      "duration": 0.3581,
      "velocity": 99,
      "chip": "ym2612"
    },
    {
      "channel": 3,
      "note": 69,
      "start": 58.442,
      "duration": 0.3578,
      "velocity": 99,
      "chip": "ym2612"
    },
    {
      "channel": 2,
      "note": 73,
      "start": 58.8206,
      "duration": 0.3579,
      "velocity": 99,
      "chip": "ym2612"
    },
    {
      "channel": 3,
      "note": 76,
      "start": 58.8212,
      "duration": 0.3576,
      "velocity": 99,
      "chip": "ym2612"
    },
    {
      "channel": 0,
      "note": 66,
      "start": 59.1992,
      "duration": 0.3579,
      "velocity": 98,
      "chip": "ym2612"
    },
    {
      "channel": 1,
      "note": 102,
      "start": 59.1997,
      "duration": 0.3576,
      "velocity": 83,
      "chip": "ym2612"
    },
    {
      "channel": 2,
      "note": 81,
      "start": 59.2002,
      "duration": 0.3574,
      "velocity": 99,
      "chip": "ym2612"
    },
    {
      "channel": 3,
      "note": 69,
      "start": 59.2009,
      "duration": 0.3571,
      "velocity": 99,
      "chip": "ym2612"
    },
    {
      "channel": 4,
      "note": 66,
      "start": 59.2016,
      "duration": 2.2529,
      "velocity": 94,
      "chip": "ym2612"
    },
    {
      "channel": 0,
      "note": 68,
      "start": 59.5783,
      "duration": 0.3581,
      "velocity": 98,
      "chip": "ym2612"
    },
    {
      "channel": 1,
      "note": 104,
      "start": 59.5789,
      "duration": 0.3578,
      "velocity": 83,
      "chip": "ym2612"
    },
    {
      "channel": 2,
      "note": 71,
      "start": 59.5794,
      "duration": 0.3576,
      "velocity": 99,
      "chip": "ym2612"
    },
    {
      "channel": 3,
      "note": 75,
      "start": 59.5801,
      "duration": 0.3573,
      "velocity": 99,
      "chip": "ym2612"
    },
    {
      "channel": 0,
      "note": 69,
      "start": 59.9577,
      "duration": 0.737,
      "velocity": 98,
      "chip": "ym2612"
    },
    {
      "channel": 1,
      "note": 105,
      "start": 59.9582,
      "duration": 0.7368,
      "velocity": 83,
      "chip": "ym2612"
    },
    {
      "channel": 2,
      "note": 81,
      "start": 59.9588,
      "duration": 0.3573,
      "velocity": 99,
      "chip": "ym2612"
    },
    {
      "channel": 3,
      "note": 69,
      "start": 59.9594,
      "duration": 0.357,
      "velocity": 99,
      "chip": "ym2612"
    },
    {
      "channel": 2,
      "note": 71,
      "start": 60.3373,
      "duration": 0.3581,
      "velocity": 99,
      "chip": "ym2612"
    },
    {
      "channel": 3,
      "note": 75,
      "start": 60.3379,
      "duration": 0.3578,
      "velocity": 99,
      "chip": "ym2612"
    },
    {
      "channel": 0,
      "note": 68,
      "start": 60.7159,
      "duration": 0.3581,
      "velocity": 98,
      "chip": "ym2612"
    },
    {
      "channel": 1,
      "note": 104,
      "start": 60.7165,
      "duration": 0.3578,
      "velocity": 83,
      "chip": "ym2612"
    },
    {
      "channel": 2,
      "note": 81,
      "start": 60.717,
      "duration": 0.3576,
      "velocity": 99,
      "chip": "ym2612"
    },
    {
      "channel": 3,
      "note": 69,
      "start": 60.7177,
      "duration": 0.3573,
      "velocity": 99,
      "chip": "ym2612"
    },
    {
      "channel": 0,
      "note": 66,
      "start": 61.0953,
      "duration": 0.3579,
      "velocity": 98,
      "chip": "ym2612"
    },
    {
      "channel": 1,
      "note": 102,
      "start": 61.0958,
      "duration": 0.3577,
      "velocity": 83,
      "chip": "ym2612"
    },
    {
      "channel": 2,
      "note": 71,
      "start": 61.0963,
      "duration": 0.3574,
      "velocity": 99,
      "chip": "ym2612"
    },
    {
      "channel": 3,
      "note": 75,
      "start": 61.097,
      "duration": 0.3571,
      "velocity": 99,
      "chip": "ym2612"
    },
    {
      "channel": 0,
      "note": 68,
      "start": 61.4744,
      "duration": 0.7372,
      "velocity": 98,
      "chip": "ym2612"
    },
    {
      "channel": 1,
      "note": 104,
      "start": 61.475,
      "duration": 0.7369,
      "velocity": 83,
      "chip": "ym2612"
    },
    {
      "channel": 2,
      "note": 80,
      "start": 61.4755,
      "duration": 0.3573,
      "velocity": 99,
      "chip": "ym2612"
    },
    {
      "channel": 3,
      "note": 69,
      "start": 61.4761,
      "duration": 0.3569,
      "velocity": 99,
      "chip": "ym2612"
    },
    {
      "channel": 4,
      "note": 71,
      "start": 61.4768,
      "duration": 2.2527,
      "velocity": 94,
      "chip": "ym2612"
    },
    {
      "channel": 2,
      "note": 71,
      "start": 61.8541,
      "duration": 0.3581,
      "velocity": 99,
      "chip": "ym2612"
    },
    {
      "channel": 3,
      "note": 76,
      "start": 61.8547,
      "duration": 0.3578,
      "velocity": 99,
      "chip": "ym2612"
    },
    {
      "channel": 0,
      "note": 71,
      "start": 62.2328,
      "duration": 1.3059,
      "velocity": 98,
      "chip": "ym2612"
    },
    {
      "channel": 1,
      "note": 107,
      "start": 62.2334,
      "duration": 1.3057,
      "velocity": 83,
      "chip": "ym2612"
    },
    {
      "channel": 2,
      "note": 80,
      "start": 62.2339,
      "duration": 0.3574,
      "velocity": 99,
      "chip": "ym2612"
    },
    {
      "channel": 3,
      "note": 68,
      "start": 62.2345,
      "duration": 0.3571,
      "velocity": 99,
      "chip": "ym2612"
    },
    {
      "channel": 2,
      "note": 71,
      "start": 62.6125,
      "duration": 0.3579,
      "velocity": 99,
      "chip": "ym2612"
    },
    {
      "channel": 3,
      "note": 76,
      "start": 62.6132,
      "duration": 0.3576,
      "velocity": 99,
      "chip": "ym2612"
    },
    {
      "channel": 2,
      "note": 80,
      "start": 62.9918,
      "duration": 0.3581,
      "velocity": 99,
      "chip": "ym2612"
    },
    {
      "channel": 3,
      "note": 68,
      "start": 62.9924,
      "duration": 0.3578,
      "velocity": 99,
      "chip": "ym2612"
    },
    {
      "channel": 2,
      "note": 71,
      "start": 63.371,
      "duration": 0.3579,
      "velocity": 99,
      "chip": "ym2612"
    },
    {
      "channel": 3,
      "note": 76,
      "start": 63.3717,
      "duration": 0.3576,
      "velocity": 99,
      "chip": "ym2612"
    },
    {
      "channel": 0,
      "note": 73,
      "start": 63.7496,
      "duration": 0.3581,
      "velocity": 98,
      "chip": "ym2612"
    },
    {
      "channel": 1,
      "note": 109,
      "start": 63.7502,
      "duration": 0.3578,
      "velocity": 83,
      "chip": "ym2612"
    },
    {
      "channel": 2,
      "note": 81,
      "start": 63.7507,
      "duration": 0.3576,
      "velocity": 99,
      "chip": "ym2612"
    },
    {
      "channel": 3,
      "note": 68,
      "start": 63.7513,
      "duration": 0.3573,
      "velocity": 99,
      "chip": "ym2612"
    },
    {
      "channel": 4,
      "note": 64,
      "start": 63.752,
      "duration": 2.2529,
      "velocity": 94,
      "chip": "ym2612"
    },
    {
      "channel": 0,
      "note": 75,
      "start": 64.1289,
      "duration": 0.3579,
      "velocity": 98,
      "chip": "ym2612"
    },
    {
      "channel": 1,
      "note": 111,
      "start": 64.1294,
      "duration": 0.3577,
      "velocity": 83,
      "chip": "ym2612"
    },
    {
      "channel": 2,
      "note": 73,
      "start": 64.13,
      "duration": 0.3574,
      "velocity": 99,
      "chip": "ym2612"
    },
    {
      "channel": 3,
      "note": 76,
      "start": 64.1306,
      "duration": 0.3571,
      "velocity": 99,
      "chip": "ym2612"
    },
    {
      "channel": 0,
      "note": 76,
      "start": 64.508,
      "duration": 0.7372,
      "velocity": 98,
      "chip": "ym2612"
    },
    {
      "channel": 1,
      "note": 112,
      "start": 64.5086,
      "duration": 0.737,
      "velocity": 83,
      "chip": "ym2612"
    },
    {
      "channel": 2,
      "note": 81,
      "start": 64.5091,
      "duration": 0.3574,
      "velocity": 99,
      "chip": "ym2612"
    },
    {
      "channel": 3,
      "note": 69,
      "start": 64.5097,
      "duration": 0.3571,
      "velocity": 99,
      "chip": "ym2612"
    },
    {
      "channel": 2,
      "note": 73,
      "start": 64.8877,
      "duration": 0.3581,
      "velocity": 99,
      "chip": "ym2612"
    },
    {
      "channel": 3,
      "note": 76,
      "start": 64.8883,
      "duration": 0.3578,
      "velocity": 99,
      "chip": "ym2612"
    },
    {
      "channel": 0,
      "note": 75,
      "start": 65.2665,
      "duration": 0.358,
      "velocity": 98,
      "chip": "ym2612"
    },
    {
      "channel": 1,
      "note": 111,
      "start": 65.267,
      "duration": 0.3577,
      "velocity": 83,
      "chip": "ym2612"
    },
    {
      "channel": 2,
      "note": 81,
      "start": 65.2675,
      "duration": 0.3575,
      "velocity": 99,
      "chip": "ym2612"
    },
    {
      "channel": 3,
      "note": 69,
      "start": 65.2682,
      "duration": 0.3572,
      "velocity": 99,
      "chip": "ym2612"
    },
    {
      "channel": 0,
      "note": 73,
      "start": 65.6457,
      "duration": 0.358,
      "velocity": 98,
      "chip": "ym2612"
    },
    {
      "channel": 1,
      "note": 109,
      "start": 65.6462,
      "duration": 0.3577,
      "velocity": 83,
      "chip": "ym2612"
    },
    {
      "channel": 2,
      "note": 73,
      "start": 65.6468,
      "duration": 0.3574,
      "velocity": 99,
      "chip": "ym2612"
    },
    {
      "channel": 3,
      "note": 76,
      "start": 65.6474,
      "duration": 0.3571,
      "velocity": 99,
      "chip": "ym2612"
    },
    {
      "channel": 0,
      "note": 75,
      "start": 66.0249,
      "duration": 0.7371,
      "velocity": 98,
      "chip": "ym2612"
    },
    {
      "channel": 1,
      "note": 111,
      "start": 66.0255,
      "duration": 0.7368,
      "velocity": 83,
      "chip": "ym2612"
    },
    {
      "channel": 2,
      "note": 80,
      "start": 66.026,
      "duration": 0.3573,
      "velocity": 99,
      "chip": "ym2612"
    },
    {
      "channel": 3,
      "note": 69,
      "start": 66.0266,
      "duration": 0.3569,
      "velocity": 99,
      "chip": "ym2612"
    },
    {
      "channel": 4,
      "note": 69,
      "start": 66.0273,
      "duration": 2.2527,
      "velocity": 94,
      "chip": "ym2612"
    },
    {
      "channel": 2,
      "note": 71,
      "start": 66.4046,
      "duration": 0.358,
      "velocity": 99,
      "chip": "ym2612"
    },
    {
      "channel": 3,
      "note": 75,
      "start": 66.4053,
      "duration": 0.3577,
      "velocity": 99,
      "chip": "ym2612"
    },
    {
      "channel": 0,
      "note": 71,
      "start": 66.7832,
      "duration": 1.306,
      "velocity": 98,
      "chip": "ym2612"
    },
    {
      "channel": 1,
      "note": 107,
      "start": 66.7838,
      "duration": 1.3057,
      "velocity": 83,
      "chip": "ym2612"
    },
    {
      "channel": 2,
      "note": 80,
      "start": 66.7843,
      "duration": 0.3574,
      "velocity": 99,
      "chip": "ym2612"
    },
    {
      "channel": 3,
      "note": 68,
      "start": 66.785,
      "duration": 0.3571,
      "velocity": 99,
      "chip": "ym2612"
    },
    {
      "channel": 2,
      "note": 71,
      "start": 67.1629,
      "duration": 0.358,
      "velocity": 99,
      "chip": "ym2612"
    },
    {
      "channel": 3,
      "note": 75,
      "start": 67.1636,
      "duration": 0.3576,
      "velocity": 99,
      "chip": "ym2612"
    },
    {
      "channel": 2,
      "note": 80,
      "start": 67.5423,
      "duration": 0.3581,
      "velocity": 99,
      "chip": "ym2612"
    },
    {
      "channel": 3,
      "note": 68,
      "start": 67.5429,
      "duration": 0.3578,
      "velocity": 99,
      "chip": "ym2612"
    },
    {
      "channel": 2,
      "note": 71,
      "start": 67.9215,
      "duration": 0.3579,
      "velocity": 99,
      "chip": "ym2612"
    },
    {
      "channel": 3,
      "note": 75,
      "start": 67.9221,
      "duration": 0.3576,
      "velocity": 99,
      "chip": "ym2612"
    },
    {
      "channel": 0,
      "note": 69,
      "start": 68.3,
      "duration": 0.358,
      "velocity": 98,
      "chip": "ym2612"
    },
    {
      "channel": 1,
      "note": 105,
      "start": 68.3006,
      "duration": 0.3576,
      "velocity": 83,
      "chip": "ym2612"
    },
    {
      "channel": 2,
      "note": 81,
      "start": 68.3011,
      "duration": 0.3574,
      "velocity": 99,
      "chip": "ym2612"
    },
    {
      "channel": 3,
      "note": 68,
      "start": 68.3018,
      "duration": 0.3571,
      "velocity": 99,
      "chip": "ym2612"
    },
    {
      "channel": 4,
      "note": 68,
      "start": 68.3024,
      "duration": 1.4944,
      "velocity": 94,
      "chip": "ym2612"
    },
    {
      "channel": 0,
      "note": 57,
      "start": 68.6793,
      "duration": 0.3579,
      "velocity": 98,
      "chip": "ym2612"
    },
    {
      "channel": 1,
      "note": 93,
      "start": 68.6798,
      "duration": 0.3578,
      "velocity": 83,
      "chip": "ym2612"
    },
    {
      "channel": 2,
      "note": 73,
      "start": 68.6803,
      "duration": 0.3574,
      "velocity": 99,
      "chip": "ym2612"
    },
    {
      "channel": 3,
      "note": 76,
      "start": 68.681,
      "duration": 0.3571,
      "velocity": 99,
      "chip": "ym2612"
    },
    {
      "channel": 0,
      "note": 59,
      "start": 69.0586,
      "duration": 0.3578,
      "velocity": 98,
      "chip": "ym2612"
    },
    {
      "channel": 1,
      "note": 95,
      "start": 69.0591,
      "duration": 0.3576,
      "velocity": 83,
      "chip": "ym2612"
    },
    {
      "channel": 2,
      "note": 81,
      "start": 69.0596,
      "duration": 0.3573,
      "velocity": 99,
      "chip": "ym2612"
    },
    {
      "channel": 3,
      "note": 69,
      "start": 69.0603,
      "duration": 0.3569,
      "velocity": 99,
      "chip": "ym2612"
    },
    {
      "channel": 0,
      "note": 61,
      "start": 69.4376,
      "duration": 0.3579,
      "velocity": 98,
      "chip": "ym2612"
    },
    {
      "channel": 1,
      "note": 97,
      "start": 69.4381,
      "duration": 0.3577,
      "velocity": 83,
      "chip": "ym2612"
    },
    {
      "channel": 2,
      "note": 73,
      "start": 69.4387,
      "duration": 0.3574,
      "velocity": 99,
      "chip": "ym2612"
    },
    {
      "channel": 3,
      "note": 76,
      "start": 69.4394,
      "duration": 0.3571,
      "velocity": 99,
      "chip": "ym2612"
    },
    {
      "channel": 0,
      "note": 63,
      "start": 69.8168,
      "duration": 0.3579,
      "velocity": 98,
      "chip": "ym2612"
    },
    {
      "channel": 1,
      "note": 99,
      "start": 69.8173,
      "duration": 0.3577,
      "velocity": 83,
      "chip": "ym2612"
    },
    {
      "channel": 2,
      "note": 81,
      "start": 69.8179,
      "duration": 0.3574,
      "velocity": 99,
      "chip": "ym2612"
    },
    {
      "channel": 3,
      "note": 69,
      "start": 69.8185,
      "duration": 0.3571,
      "velocity": 99,
      "chip": "ym2612"
    },
    {
      "channel": 4,
      "note": 66,
      "start": 69.8193,
      "duration": 0.7361,
      "velocity": 94,
      "chip": "ym2612"
    },
    {
      "channel": 0,
      "note": 59,
      "start": 70.1961,
      "duration": 0.358,
      "velocity": 98,
      "chip": "ym2612"
    },
    {
      "channel": 1,
      "note": 95,
      "start": 70.1966,
      "duration": 0.3578,
      "velocity": 83,
      "chip": "ym2612"
    },
    {
      "channel": 2,
      "note": 71,
      "start": 70.1972,
      "duration": 0.3574,
      "velocity": 99,
      "chip": "ym2612"
    },
    {
      "channel": 3,
      "note": 75,
      "start": 70.1978,
      "duration": 0.3571,
      "velocity": 99,
      "chip": "ym2612"
    },
    {
      "channel": 0,
      "note": 66,
      "start": 70.5753,
      "duration": 0.737,
      "velocity": 98,
      "chip": "ym2612"
    },
    {
      "channel": 1,
      "note": 102,
      "start": 70.5759,
      "duration": 0.7368,
      "velocity": 83,
      "chip": "ym2612"
    },
    {
      "channel": 2,
      "note": 81,
      "start": 70.5764,
      "duration": 0.7366,
      "velocity": 99,
      "chip": "ym2612"
    },
    {
      "channel": 3,
      "note": 69,
      "start": 70.577,
      "duration": 0.7363,
      "velocity": 99,
      "chip": "ym2612"
    },
    {
      "channel": 4,
      "note": 71,
      "start": 70.5777,
      "duration": 2.2528,
      "velocity": 94,
      "chip": "ym2612"
    },
    {
      "channel": 0,
      "note": 64,
      "start": 71.3338,
      "duration": 1.306,
      "velocity": 98,
      "chip": "ym2612"
    },
    {
      "channel": 1,
      "note": 100,
      "start": 71.3343,
      "duration": 1.3057,
      "velocity": 83,
      "chip": "ym2612"
    },
    {
      "channel": 2,
      "note": 80,
      "start": 71.3348,
      "duration": 1.1159,
      "velocity": 99,
      "chip": "ym2612"
    },
    {
      "channel": 3,
      "note": 73,
      "start": 71.3355,
      "duration": 1.1155,
      "velocity": 99,
      "chip": "ym2612"
    }
  ]
}