{
  "track_name": "01 - Black Dignity",
  "duration_sec": 107.051,
  "sample_rate": 44100,
  "note_count": 1228,
  "unique_pitches": 48,
  "pitch_range": 53,
  "avg_note_duration": 0.3816,
  "reconstruction_stats": {
    "notes_reconstructed": 1228,
    "keyon_events": 1228,
    "keyoff_events": 1228,
    "orphan_keyons": 0,
    "unique_pitches": 48,
    "pitch_range": 53,
    "avg_duration_sec": 0.3816
  },
  "metadata": {
    "source": "M\\Master of Monsters\\01 - Black Dignity.vgz"
  },
  "notes": [
    {
      "channel": 0,
      "note": 47,
      "start": 0.0,
      "duration": 1.1656,
      "velocity": 97,
      "chip": "ym2612"
    },
    {
      "channel": 2,
      "note": 50,
      "start": 0.0033,
      "duration": 1.5918,
      "velocity": 109,
      "chip": "ym2612"
    },
    {
      "channel": 4,
      "note": 47,
      "start": 0.0086,
      "duration": 0.6788,
      "velocity": 101,
      "chip": "ym2612"
    },
    {
      "channel": 3,
      "note": 50,
      "start": 0.2088,
      "duration": 1.5933,
      "velocity": 109,
      "chip": "ym2612"
    },
    {
      "channel": 5,
      "note": 47,
      "start": 0.2098,
      "duration": 0.6495,
      "velocity": 101,
      "chip": "ym2612"
    },
    {
      "channel": 1,
      "note": 47,
      "start": 0.4119,
      "duration": 1.1657,
      "velocity": 92,
      "chip": "ym2612"
    },
    {
      "channel": 4,
      "note": 45,
      "start": 0.8249,
      "duration": 0.686,
      "velocity": 101,
      "chip": "ym2612"
    },
    {
      "channel": 5,
      "note": 45,
      "start": 1.0312,
      "duration": 0.6514,
      "velocity": 101,
      "chip": "ym2612"
    },
    {
      "channel": 0,
      "note": 49,
      "start": 1.2346,
      "duration": 0.137,
      "velocity": 97,
      "chip": "ym2612"
    },
    {
      "channel": 0,
      "note": 50,
      "start": 1.4403,
      "duration": 0.137,
      "velocity": 97,
      "chip": "ym2612"
    },
    {
      "channel": 0,
      "note": 52,
      "start": 1.6462,
      "duration": 0.3429,
      "velocity": 97,
      "chip": "ym2612"
    },
    {
      "channel": 1,
      "note": 49,
      "start": 1.6468,
      "duration": 0.1367,
      "velocity": 92,
      "chip": "ym2612"
    },
    {
      "channel": 2,
      "note": 47,
      "start": 1.6474,
      "duration": 0.7711,
      "velocity": 109,
      "chip": "ym2612"
    },
    {
      "channel": 4,
      "note": 44,
      "start": 1.6493,
      "duration": 0.6849,
      "velocity": 101,
      "chip": "ym2612"
    },
    {
      "channel": 1,
      "note": 50,
      "start": 1.8522,
      "duration": 0.1371,
      "velocity": 92,
      "chip": "ym2612"
    },
    {
      "channel": 3,
      "note": 47,
      "start": 1.8541,
      "duration": 0.7714,
      "velocity": 109,
      "chip": "ym2612"
    },
    {
      "channel": 5,
      "note": 44,
      "start": 1.855,
      "duration": 0.651,
      "velocity": 101,
      "chip": "ym2612"
    },
    {
      "channel": 0,
      "note": 49,
      "start": 2.0579,
      "duration": 0.3429,
      "velocity": 97,
      "chip": "ym2612"
    },
    {
      "channel": 1,
      "note": 52,
      "start": 2.0585,
      "duration": 0.3425,
      "velocity": 92,
      "chip": "ym2612"
    },
    {
      "channel": 0,
      "note": 45,
      "start": 2.4698,
      "duration": 0.5487,
      "velocity": 97,
      "chip": "ym2612"
    },
    {
      "channel": 1,
      "note": 49,
      "start": 2.4704,
      "duration": 0.3423,
      "velocity": 92,
      "chip": "ym2612"
    },
    {
      "channel": 2,
      "note": 54,
      "start": 2.471,
      "duration": 0.3591,
      "velocity": 109,
      "chip": "ym2612"
    },
    {
      "channel": 4,
      "note": 40,
      "start": 2.4729,
      "duration": 0.6846,
      "velocity": 101,
      "chip": "ym2612"
    },
    {
      "channel": 3,
      "note": 54,
      "start": 2.6771,
      "duration": 0.36,
      "velocity": 109,
      "chip": "ym2612"
    },
    {
      "channel": 5,
      "note": 40,
      "start": 2.6781,
      "duration": 0.6513,
      "velocity": 101,
      "chip": "ym2612"
    },
    {
      "channel": 1,
      "note": 45,
      "start": 2.8817,
      "duration": 0.5486,
      "velocity": 92,
      "chip": "ym2612"
    },
    {
      "channel": 2,
      "note": 52,
      "start": 2.8824,
      "duration": 0.7712,
      "velocity": 109,
      "chip": "ym2612"
    },
    {
      "channel": 0,
      "note": 43,
      "start": 3.0871,
      "duration": 0.1372,
      "velocity": 97,
      "chip": "ym2612"
    },
    {
      "channel": 3,
      "note": 52,
      "start": 3.0892,
      "duration": 0.7714,
      "velocity": 109,
      "chip": "ym2612"
    },
    {
      "channel": 0,
      "note": 42,
      "start": 3.293,
      "duration": 0.3429,
      "velocity": 97,
      "chip": "ym2612"
    },
    {
      "channel": 4,
      "note": 47,
      "start": 3.2959,
      "duration": 0.6851,
      "velocity": 101,
      "chip": "ym2612"
    },
    {
      "channel": 1,
      "note": 43,
      "start": 3.4991,
      "duration": 0.1372,
      "velocity": 92,
      "chip": "ym2612"
    },
    {
      "channel": 5,
      "note": 47,
      "start": 3.5017,
      "duration": 0.651,
      "velocity": 101,
      "chip": "ym2612"
    },
    {
      "channel": 0,
      "note": 47,
      "start": 3.7049,
      "duration": 2.8129,
      "velocity": 97,
      "chip": "ym2612"
    },
    {
      "channel": 1,
      "note": 42,
      "start": 3.7055,
      "duration": 0.3423,
      "velocity": 92,
      "chip": "ym2612"
    },
    {
      "channel": 2,
      "note": 50,
      "start": 3.7061,
      "duration": 0.1532,
      "velocity": 109,
      "chip": "ym2612"
    },
    {
      "channel": 2,
      "note": 49,
      "start": 3.9111,
      "duration": 0.154,
      "velocity": 109,
      "chip": "ym2612"
    },
    {
      "channel": 3,
      "note": 50,
      "start": 3.9127,
      "duration": 0.1536,
      "velocity": 109,
      "chip": "ym2612"
    },
    {
      "channel": 1,
      "note": 47,
      "start": 4.1166,
      "duration": 2.813,
      "velocity": 92,
      "chip": "ym2612"
    },
    {
      "channel": 2,
      "note": 50,
      "start": 4.1173,
      "duration": 0.3597,
      "velocity": 109,
      "chip": "ym2612"
    },
    {
      "channel": 3,
      "note": 49,
      "start": 4.1189,
      "duration": 0.1534,
      "velocity": 109,
      "chip": "ym2612"
    },
    {
      "channel": 4,
      "note": 45,
      "start": 4.1197,
      "duration": 0.6849,
      "velocity": 101,
      "chip": "ym2612"
    },
    {
      "channel": 3,
      "note": 50,
      "start": 4.324,
      "duration": 0.36,
      "velocity": 109,
      "chip": "ym2612"
    },
    {
      "channel": 5,
      "note": 45,
      "start": 4.325,
      "duration": 0.6515,
      "velocity": 101,
      "chip": "ym2612"
    },
    {
      "channel": 2,
      "note": 47,
      "start": 4.5287,
      "duration": 0.36,
      "velocity": 109,
      "chip": "ym2612"
    },
    {
      "channel": 3,
      "note": 47,
      "start": 4.7357,
      "duration": 0.3603,
      "velocity": 109,
      "chip": "ym2612"
    },
    {
      "channel": 2,
      "note": 54,
      "start": 4.9406,
      "duration": 0.3601,
      "velocity": 109,
      "chip": "ym2612"
    },
    {
      "channel": 4,
      "note": 44,
      "start": 4.9425,
      "duration": 0.6857,
      "velocity": 101,
      "chip": "ym2612"
    },
    {
      "channel": 3,
      "note": 54,
      "start": 5.1476,
      "duration": 0.3602,
      "velocity": 109,
      "chip": "ym2612"
    },
    {
      "channel": 5,
      "note": 44,
      "start": 5.1486,
      "duration": 0.6514,
      "velocity": 101,
      "chip": "ym2612"
    },
    {
      "channel": 2,
      "note": 52,
      "start": 5.3523,
      "duration": 0.3602,
      "velocity": 109,
      "chip": "ym2612"
    },
    {
      "channel": 3,
      "note": 52,
      "start": 5.5595,
      "duration": 0.3599,
      "velocity": 109,
      "chip": "ym2612"
    },
    {
      "channel": 2,
      "note": 50,
      "start": 5.764,
      "duration": 0.3601,
      "velocity": 109,
      "chip": "ym2612"
    },
    {
      "channel": 4,
      "note": 40,
      "start": 5.7659,
      "duration": 0.6857,
      "velocity": 101,
      "chip": "ym2612"
    },
    {
      "channel": 3,
      "note": 50,
      "start": 5.9712,
      "duration": 0.3599,
      "velocity": 109,
      "chip": "ym2612"
    },
    {
      "channel": 5,
      "note": 40,
      "start": 5.9721,
      "duration": 0.6512,
      "velocity": 101,
      "chip": "ym2612"
    },
    {
      "channel": 2,
      "note": 49,
      "start": 6.1757,
      "duration": 0.3601,
      "velocity": 109,
      "chip": "ym2612"
    },
    {
      "channel": 3,
      "note": 49,
      "start": 6.3828,
      "duration": 0.3598,
      "velocity": 109,
      "chip": "ym2612"
    },
    {
      "channel": 0,
      "note": 47,
      "start": 6.5867,
      "duration": 1.1662,
      "velocity": 97,
      "chip": "ym2612"
    },
    {
      "channel": 2,
      "note": 50,
      "start": 6.5878,
      "duration": 0.3595,
      "velocity": 109,
      "chip": "ym2612"
    },
    {
      "channel": 4,
      "note": 47,
      "start": 6.5902,
      "duration": 0.6844,
      "velocity": 101,
      "chip": "ym2612"
    },
    {
      "channel": 3,
      "note": 50,
      "start": 6.7944,
      "duration": 0.3599,
      "velocity": 109,
      "chip": "ym2612"
    },
    {
      "channel": 5,
      "note": 47,
      "start": 6.7955,
      "duration": 0.6513,
      "velocity": 101,
      "chip": "ym2612"
    },
    {
      "channel": 1,
      "note": 47,
      "start": 6.9987,
      "duration": 1.1663,
      "velocity": 92,
      "chip": "ym2612"
    },
    {
      "channel": 2,
      "note": 47,
      "start": 6.9993,
      "duration": 0.3596,
      "velocity": 109,
      "chip": "ym2612"
    },
    {
      "channel": 3,
      "note": 47,
      "start": 7.2059,
      "duration": 0.3602,
      "velocity": 109,
      "chip": "ym2612"
    },
    {
      "channel": 2,
      "note": 54,
      "start": 7.4105,
      "duration": 0.772,
      "velocity": 109,
      "chip": "ym2612"
    },
    {
      "channel": 4,
      "note": 45,
      "start": 7.4125,
      "duration": 0.6857,
      "velocity": 101,
      "chip": "ym2612"
    },
    {
      "channel": 3,
      "note": 54,
      "start": 7.6178,
      "duration": 0.7715,
      "velocity": 109,
      "chip": "ym2612"
    },
    {
      "channel": 5,
      "note": 45,
      "start": 7.6189,
      "duration": 0.6509,
      "velocity": 101,
      "chip": "ym2612"
    },
    {
      "channel": 0,
      "note": 49,
      "start": 7.8217,
      "duration": 0.137,
      "velocity": 97,
      "chip": "ym2612"
    },
    {
      "channel": 0,
      "note": 50,
      "start": 8.0277,
      "duration": 0.137,
      "velocity": 97,
      "chip": "ym2612"
    },
    {
      "channel": 0,
      "note": 52,
      "start": 8.2336,
      "duration": 0.7545,
      "velocity": 97,
      "chip": "ym2612"
    },
    {
      "channel": 1,
      "note": 49,
      "start": 8.2342,
      "duration": 0.1365,
      "velocity": 92,
      "chip": "ym2612"
    },
    {
      "channel": 2,
      "note": 59,
      "start": 8.2349,
      "duration": 2.006,
      "velocity": 109,
      "chip": "ym2612"
    },
    {
      "channel": 4,
      "note": 44,
      "start": 8.2368,
      "duration": 0.6846,
      "velocity": 101,
      "chip": "ym2612"
    },
    {
      "channel": 1,
      "note": 50,
      "start": 8.4396,
      "duration": 0.137,
      "velocity": 92,
      "chip": "ym2612"
    },
    {
      "channel": 3,
      "note": 59,
      "start": 8.4415,
      "duration": 2.0063,
      "velocity": 109,
      "chip": "ym2612"
    },
    {
      "channel": 5,
      "note": 44,
      "start": 8.4425,
      "duration": 0.6507,
      "velocity": 101,
      "chip": "ym2612"
    },
    {
      "channel": 1,
      "note": 52,
      "start": 8.6454,
      "duration": 0.7546,
      "velocity": 92,
      "chip": "ym2612"
    },
    {
      "channel": 0,
      "note": 57,
      "start": 9.057,
      "duration": 0.5486,
      "velocity": 97,
      "chip": "ym2612"
    },
    {
      "channel": 4,
      "note": 40,
      "start": 9.0594,
      "duration": 0.6856,
      "velocity": 101,
      "chip": "ym2612"
    },
    {
      "channel": 5,
      "note": 40,
      "start": 9.2651,
      "duration": 0.6515,
      "velocity": 101,
      "chip": "ym2612"
    },
    {
      "channel": 1,
      "note": 57,
      "start": 9.4688,
      "duration": 0.5489,
      "velocity": 92,
      "chip": "ym2612"
    },
    {
      "channel": 0,
      "note": 55,
      "start": 9.6745,
      "duration": 0.1369,
      "velocity": 97,
      "chip": "ym2612"
    },
    {
      "channel": 0,
      "note": 54,
      "start": 9.8804,
      "duration": 3.2248,
      "velocity": 97,
      "chip": "ym2612"
    },
    {
      "channel": 4,
      "note": 47,
      "start": 9.8832,
      "duration": 0.685,
      "velocity": 101,
      "chip": "ym2612"
    },
    {
      "channel": 1,
      "note": 55,
      "start": 10.0865,
      "duration": 0.1371,
      "velocity": 92,
      "chip": "ym2612"
    },
    {
      "channel": 5,
      "note": 47,
      "start": 10.089,
      "duration": 0.6512,
      "velocity": 101,
      "chip": "ym2612"
    },
    {
      "channel": 1,
      "note": 54,
      "start": 10.2923,
      "duration": 3.2249,
      "velocity": 92,
      "chip": "ym2612"
    },
    {
      "channel": 2,
      "note": 61,
      "start": 10.2929,
      "duration": 0.3597,
      "velocity": 109,
      "chip": "ym2612"
    },
    {
      "channel": 3,
      "note": 61,
      "start": 10.4995,
      "duration": 0.3603,
      "velocity": 109,
      "chip": "ym2612"
    },
    {
      "channel": 2,
      "note": 62,
      "start": 10.7042,
      "duration": 0.3602,
      "velocity": 109,
      "chip": "ym2612"
    },
    {
      "channel": 4,
      "note": 45,
      "start": 10.7061,
      "duration": 0.6859,
      "velocity": 101,
      "chip": "ym2612"
    },
    {
      "channel": 3,
      "note": 62,
      "start": 10.9114,
      "duration": 0.3602,
      "velocity": 109,
      "chip": "ym2612"
    },
    {
      "channel": 5,
      "note": 45,
      "start": 10.9124,
      "duration": 0.6514,
      "velocity": 101,
      "chip": "ym2612"
    },
    {
      "channel": 2,
      "note": 59,
      "start": 11.1161,
      "duration": 0.36,
      "velocity": 109,
      "chip": "ym2612"
    },
    {
      "channel": 3,
      "note": 59,
      "start": 11.3233,
      "duration": 0.36,
      "velocity": 109,
      "chip": "ym2612"
    },
    {
      "channel": 2,
      "note": 64,
      "start": 11.528,
      "duration": 0.7718,
      "velocity": 109,
      "chip": "ym2612"
    },
    {
      "channel": 4,
      "note": 44,
      "start": 11.5299,
      "duration": 0.6854,
      "velocity": 101,
      "chip": "ym2612"
    },
    {
      "channel": 3,
      "note": 64,
      "start": 11.7351,
      "duration": 0.7717,
      "velocity": 109,
      "chip": "ym2612"
    },
    {
      "channel": 5,
      "note": 44,
      "start": 11.7361,
      "duration": 0.6511,
      "velocity": 101,
      "chip": "ym2612"
    },
    {
      "channel": 2,
      "note": 62,
      "start": 12.3514,
      "duration": 0.36,
      "velocity": 109,
      "chip": "ym2612"
    },
    {
      "channel": 4,
      "note": 40,
      "start": 12.3534,
      "duration": 0.6854,
      "velocity": 101,
      "chip": "ym2612"
    },
    {
      "channel": 3,
      "note": 62,
      "start": 12.5584,
      "duration": 0.3599,
      "velocity": 109,
      "chip": "ym2612"
    },
    {
      "channel": 5,
      "note": 40,
      "start": 12.5594,
      "duration": 0.651,
      "velocity": 101,
      "chip": "ym2612"
    },
    {
      "channel": 2,
      "note": 61,
      "start": 12.763,
      "duration": 0.3602,
      "velocity": 109,
      "chip": "ym2612"
    },
    {
      "channel": 3,
      "note": 61,
      "start": 12.9702,
      "duration": 0.3597,
      "velocity": 109,
      "chip": "ym2612"
    },
    {
      "channel": 0,
      "note": 59,
      "start": 13.1741,
      "duration": 0.3428,
      "velocity": 97,
      "chip": "ym2612"
    },
    {
      "channel": 2,
      "note": 62,
      "start": 13.175,
      "duration": 1.5945,
      "velocity": 109,
      "chip": "ym2612"
    },
    {
      "channel": 4,
      "note": 47,
      "start": 13.1775,
      "duration": 0.6844,
      "velocity": 101,
      "chip": "ym2612"
    },
    {
      "channel": 3,
      "note": 62,
      "start": 13.3816,
      "duration": 1.5951,
      "velocity": 109,
      "chip": "ym2612"
    },
    {
      "channel": 5,
      "note": 47,
      "start": 13.3827,
      "duration": 0.651,
      "velocity": 101,
      "chip": "ym2612"
    },
    {
      "channel": 0,
      "note": 58,
      "start": 13.5857,
      "duration": 0.3428,
      "velocity": 97,
      "chip": "ym2612"
    },
    {
      "channel": 1,
      "note": 59,
      "start": 13.5864,
      "duration": 0.3424,
      "velocity": 92,
      "chip": "ym2612"
    },
    {
      "channel": 0,
      "note": 54,
      "start": 13.9974,
      "duration": 0.3428,
      "velocity": 97,
      "chip": "ym2612"
    },
    {
      "channel": 1,
      "note": 58,
      "start": 13.9981,
      "duration": 0.3424,
      "velocity": 92,
      "chip": "ym2612"
    },
    {
      "channel": 4,
      "note": 45,
      "start": 14.0004,
      "duration": 0.685,
      "velocity": 101,
      "chip": "ym2612"
    },
    {
      "channel": 5,
      "note": 45,
      "start": 14.2055,
      "duration": 0.6517,
      "velocity": 101,
      "chip": "ym2612"
    },
    {
      "channel": 0,
      "note": 57,
      "start": 14.409,
      "duration": 0.3429,
      "velocity": 97,
      "chip": "ym2612"
    },
    {
      "channel": 1,
      "note": 54,
      "start": 14.4096,
      "duration": 0.3426,
      "velocity": 92,
      "chip": "ym2612"
    },
    {
      "channel": 0,
      "note": 56,
      "start": 14.8208,
      "duration": 0.3429,
      "velocity": 97,
      "chip": "ym2612"
    },
    {
      "channel": 1,
      "note": 57,
      "start": 14.8214,
      "duration": 0.3425,
      "velocity": 92,
      "chip": "ym2612"
    },
    {
      "channel": 2,
      "note": 59,
      "start": 14.822,
      "duration": 1.5943,
      "velocity": 109,
      "chip": "ym2612"
    },
    {
      "channel": 4,
      "note": 44,
      "start": 14.824,
      "duration": 0.6847,
      "velocity": 101,
      "chip": "ym2612"
    },
    {
      "channel": 3,
      "note": 59,
      "start": 15.0283,
      "duration": 1.5952,
      "velocity": 109,
      "chip": "ym2612"
    },
    {
      "channel": 5,
      "note": 44,
      "start": 15.0293,
      "duration": 0.6513,
      "velocity": 101,
      "chip": "ym2612"
    },
    {
      "channel": 0,
      "note": 52,
      "start": 15.2325,
      "duration": 0.6173,
      "velocity": 97,
      "chip": "ym2612"
    },
    {
      "channel": 1,
      "note": 56,
      "start": 15.2332,
      "duration": 0.3423,
      "velocity": 92,
      "chip": "ym2612"
    },
    {
      "channel": 1,
      "note": 52,
      "start": 15.6446,
      "duration": 0.6173,
      "velocity": 92,
      "chip": "ym2612"
    },
    {
      "channel": 4,
      "note": 40,
      "start": 15.6468,
      "duration": 0.6855,
      "velocity": 101,
      "chip": "ym2612"
    },
    {
      "channel": 5,
      "note": 40,
      "start": 15.8524,
      "duration": 0.6515,
      "velocity": 101,
      "chip": "ym2612"
    },
    {
      "channel": 0,
      "note": 56,
      "start": 16.056,
      "duration": 0.3428,
      "velocity": 97,
      "chip": "ym2612"
    },
    {
      "channel": 0,
      "note": 55,
      "start": 16.4677,
      "duration": 0.7544,
      "velocity": 97,
      "chip": "ym2612"
    },
    {
      "channel": 1,
      "note": 56,
      "start": 16.4684,
      "duration": 0.3423,
      "velocity": 92,
      "chip": "ym2612"
    },
    {
      "channel": 2,
      "note": 64,
      "start": 16.469,
      "duration": 0.359,
      "velocity": 109,
      "chip": "ym2612"
    },
    {
      "channel": 4,
      "note": 47,
      "start": 16.4714,
      "duration": 0.6842,
      "velocity": 101,
      "chip": "ym2612"
    },
    {
      "channel": 3,
      "note": 64,
      "start": 16.6752,
      "duration": 0.36,
      "velocity": 109,
      "chip": "ym2612"
    },
    {
      "channel": 5,
      "note": 47,
      "start": 16.6763,
      "duration": 0.6511,
      "velocity": 101,
      "chip": "ym2612"
    },
    {
      "channel": 1,
      "note": 55,
      "start": 16.8796,
      "duration": 0.7546,
      "velocity": 92,
      "chip": "ym2612"
    },
    {
      "channel": 2,
      "note": 62,
      "start": 16.8802,
      "duration": 0.3597,
      "velocity": 109,
      "chip": "ym2612"
    },
    {
      "channel": 3,
      "note": 62,
      "start": 17.0869,
      "duration": 0.36,
      "velocity": 109,
      "chip": "ym2612"
    },
    {
      "channel": 0,
      "note": 57,
      "start": 17.2913,
      "duration": 0.3427,
      "velocity": 97,
      "chip": "ym2612"
    },
    {
      "channel": 2,
      "note": 61,
      "start": 17.2922,
      "duration": 1.1828,
      "velocity": 109,
      "chip": "ym2612"
    },
    {
      "channel": 4,
      "note": 45,
      "start": 17.2941,
      "duration": 0.685,
      "velocity": 101,
      "chip": "ym2612"
    },
    {
      "channel": 3,
      "note": 61,
      "start": 17.4986,
      "duration": 1.1833,
      "velocity": 109,
      "chip": "ym2612"
    },
    {
      "channel": 5,
      "note": 45,
      "start": 17.4997,
      "duration": 0.6511,
      "velocity": 101,
      "chip": "ym2612"
    },
    {
      "channel": 0,
      "note": 55,
      "start": 17.7027,
      "duration": 0.3428,
      "velocity": 97,
      "chip": "ym2612"
    },
    {
      "channel": 1,
      "note": 57,
      "start": 17.7033,
      "duration": 0.3425,
      "velocity": 92,
      "chip": "ym2612"
    },
    {
      "channel": 0,
      "note": 54,
      "start": 18.1144,
      "duration": 0.7546,
      "velocity": 97,
      "chip": "ym2612"
    },
    {
      "channel": 1,
      "note": 55,
      "start": 18.115,
      "duration": 0.3426,
      "velocity": 92,
      "chip": "ym2612"
    },
    {
      "channel": 4,
      "note": 44,
      "start": 18.1172,
      "duration": 0.6851,
      "velocity": 101,
      "chip": "ym2612"
    },
    {
      "channel": 5,
      "note": 44,
      "start": 18.3225,
      "duration": 0.6518,
      "velocity": 101,
      "chip": "ym2612"
    },
    {
      "channel": 1,
      "note": 54,
      "start": 18.5264,
      "duration": 0.7546,
      "velocity": 92,
      "chip": "ym2612"
    },
    {
      "channel": 2,
      "note": 62,
      "start": 18.5271,
      "duration": 0.3596,
      "velocity": 109,
      "chip": "ym2612"
    },
    {
      "channel": 3,
      "note": 62,
      "start": 18.7336,
      "duration": 0.3602,
      "velocity": 109,
      "chip": "ym2612"
    },
    {
      "channel": 2,
      "note": 59,
      "start": 18.9385,
      "duration": 0.7718,
      "velocity": 109,
      "chip": "ym2612"
    },
    {
      "channel": 4,
      "note": 40,
      "start": 18.9404,
      "duration": 0.6856,
      "velocity": 101,
      "chip": "ym2612"
    },
    {
      "channel": 3,
      "note": 59,
      "start": 19.1455,
      "duration": 0.7715,
      "velocity": 109,
      "chip": "ym2612"
    },
    {
      "channel": 5,
      "note": 40,
      "start": 19.1465,
      "duration": 0.6512,
      "velocity": 101,
      "chip": "ym2612"
    },
    {
      "channel": 0,
      "note": 50,
      "start": 19.3496,
      "duration": 0.3429,
      "velocity": 97,
      "chip": "ym2612"
    },
    {
      "channel": 0,
      "note": 49,
      "start": 19.7613,
      "duration": 1.5779,
      "velocity": 97,
      "chip": "ym2612"
    },
    {
      "channel": 1,
      "note": 50,
      "start": 19.7619,
      "duration": 0.3424,
      "velocity": 92,
      "chip": "ym2612"
    },
    {
      "channel": 2,
      "note": 57,
      "start": 19.7626,
      "duration": 1.1827,
      "velocity": 109,
      "chip": "ym2612"
    },
    {
      "channel": 4,
      "note": 47,
      "start": 19.765,
      "duration": 0.6842,
      "velocity": 101,
      "chip": "ym2612"
    },
    {
      "channel": 3,
      "note": 57,
      "start": 19.9688,
      "duration": 1.1838,
      "velocity": 109,
      "chip": "ym2612"
    },
    {
      "channel": 5,
      "note": 47,
      "start": 19.9699,
      "duration": 0.6512,
      "velocity": 101,
      "chip": "ym2612"
    },
    {
      "channel": 1,
      "note": 49,
      "start": 20.1733,
      "duration": 1.5779,
      "velocity": 92,
      "chip": "ym2612"
    },
    {
      "channel": 4,
      "note": 45,
      "start": 20.5868,
      "duration": 0.6863,
      "velocity": 101,
      "chip": "ym2612"
    },
    {
      "channel": 5,
      "note": 45,
      "start": 20.793,
      "duration": 0.6515,
      "velocity": 101,
      "chip": "ym2612"
    },
    {
      "channel": 2,
      "note": 54,
      "start": 20.997,
      "duration": 0.3603,
      "velocity": 109,
      "chip": "ym2612"
    },
    {
      "channel": 3,
      "note": 54,
      "start": 21.2042,
      "duration": 0.3598,
      "velocity": 109,
      "chip": "ym2612"
    },
    {
      "channel": 0,
      "note": 52,
      "start": 21.4082,
      "duration": 1.1661,
      "velocity": 97,
      "chip": "ym2612"
    },
    {
      "channel": 2,
      "note": 59,
      "start": 21.4092,
      "duration": 0.771,
      "velocity": 109,
      "chip": "ym2612"
    },
    {
      "channel": 4,
      "note": 44,
      "start": 21.4112,
      "duration": 0.685,
      "velocity": 101,
      "chip": "ym2612"
    },
    {
      "channel": 3,
      "note": 59,
      "start": 21.6158,
      "duration": 0.7717,
      "velocity": 109,
      "chip": "ym2612"
    },
    {
      "channel": 5,
      "note": 44,
      "start": 21.6168,
      "duration": 0.6513,
      "velocity": 101,
      "chip": "ym2612"
    },
    {
      "channel": 1,
      "note": 52,
      "start": 21.8201,
      "duration": 1.1662,
      "velocity": 92,
      "chip": "ym2612"
    },
    {
      "channel": 2,
      "note": 57,
      "start": 22.232,
      "duration": 2.0069,
      "velocity": 109,
      "chip": "ym2612"
    },
    {
      "channel": 4,
      "note": 40,
      "start": 22.234,
      "duration": 0.6855,
      "velocity": 101,
      "chip": "ym2612"
    },
    {
      "channel": 3,
      "note": 57,
      "start": 22.4392,
      "duration": 2.0071,
      "velocity": 109,
      "chip": "ym2612"
    },
    {
      "channel": 5,
      "note": 40,
      "start": 22.4402,
      "duration": 0.651,
      "velocity": 101,
      "chip": "ym2612"
    },
    {
      "channel": 0,
      "note": 50,
      "start": 22.6433,
      "duration": 0.3428,
      "velocity": 97,
      "chip": "ym2612"
    },
    {
      "channel": 0,
      "note": 49,
      "start": 23.0549,
      "duration": 3.2247,
      "velocity": 97,
      "chip": "ym2612"
    },
    {
      "channel": 1,
      "note": 50,
      "start": 23.0556,
      "duration": 0.3424,
      "velocity": 92,
      "chip": "ym2612"
    },
    {
      "channel": 4,
      "note": 47,
      "start": 23.0583,
      "duration": 0.6846,
      "velocity": 101,
      "chip": "ym2612"
    },
    {
      "channel": 5,
      "note": 47,
      "start": 23.2632,
      "duration": 0.6517,
      "velocity": 101,
      "chip": "ym2612"
    },
    {
      "channel": 1,
      "note": 49,
      "start": 23.467,
      "duration": 3.2248,
      "velocity": 92,
      "chip": "ym2612"
    },
    {
      "channel": 4,
      "note": 45,
      "start": 23.8804,
      "duration": 0.6862,
      "velocity": 101,
      "chip": "ym2612"
    },
    {
      "channel": 5,
      "note": 45,
      "start": 24.0867,
      "duration": 0.6517,
      "velocity": 101,
      "chip": "ym2612"
    },
    {
      "channel": 2,
      "note": 54,
      "start": 24.2907,
      "duration": 0.3602,
      "velocity": 109,
      "chip": "ym2612"
    },
    {
      "channel": 3,
      "note": 54,
      "start": 24.4978,
      "duration": 0.3601,
      "velocity": 109,
      "chip": "ym2612"
    },
    {
      "channel": 2,
      "note": 52,
      "start": 24.7026,
      "duration": 0.7717,
      "velocity": 109,
      "chip": "ym2612"
    },
    {
      "channel": 4,
      "note": 44,
      "start": 24.7046,
      "duration": 0.6856,
      "velocity": 101,
      "chip": "ym2612"
    },
    {
      "channel": 3,
      "note": 52,
      "start": 24.9095,
      "duration": 0.7718,
      "velocity": 109,
      "chip": "ym2612"
    },
    {
      "channel": 5,
      "note": 44,
      "start": 24.9105,
      "duration": 0.6513,
      "velocity": 101,
      "chip": "ym2612"
    },
    {
      "channel": 2,
      "note": 49,
      "start": 25.5259,
      "duration": 0.7717,
      "velocity": 109,
      "chip": "ym2612"
    },
    {
      "channel": 4,
      "note": 40,
      "start": 25.5278,
      "duration": 0.6856,
      "velocity": 101,
      "chip": "ym2612"
    },
    {
      "channel": 3,
      "note": 49,
      "start": 25.7329,
      "duration": 0.7716,
      "velocity": 109,
      "chip": "ym2612"
    },
    {
      "channel": 5,
      "note": 40,
      "start": 25.7338,
      "duration": 0.6512,
      "velocity": 101,
      "chip": "ym2612"
    },
    {
      "channel": 0,
      "note": 59,
      "start": 26.3501,
      "duration": 1.1991,
      "velocity": 112,
      "chip": "ym2612"
    },
    {
      "channel": 2,
      "note": 50,
      "start": 26.353,
      "duration": 1.5056,
      "velocity": 112,
      "chip": "ym2612"
    },
    {
      "channel": 4,
      "note": 47,
      "start": 26.3577,
      "duration": 0.7129,
      "velocity": 107,
      "chip": "ym2612"
    },
    {
      "channel": 3,
      "note": 50,
      "start": 26.558,
      "duration": 1.5074,
      "velocity": 112,
      "chip": "ym2612"
    },
    {
      "channel": 5,
      "note": 47,
      "start": 26.5591,
      "duration": 0.6494,
      "velocity": 101,
      "chip": "ym2612"
    },
    {
      "channel": 1,
      "note": 59,
      "start": 26.7621,
      "duration": 1.199,
      "velocity": 112,
      "chip": "ym2612"
    },
    {
      "channel": 4,
      "note": 45,
      "start": 27.174,
      "duration": 0.7202,
      "velocity": 107,
      "chip": "ym2612"
    },
    {
      "channel": 5,
      "note": 45,
      "start": 27.3804,
      "duration": 0.6512,
      "velocity": 101,
      "chip": "ym2612"
    },
    {
      "channel": 0,
      "note": 61,
      "start": 27.5838,
      "duration": 0.1713,
      "velocity": 112,
      "chip": "ym2612"
    },
    {
      "channel": 0,
      "note": 62,
      "start": 27.7896,
      "duration": 0.1712,
      "velocity": 112,
      "chip": "ym2612"
    },
    {
      "channel": 0,
      "note": 64,
      "start": 27.9954,
      "duration": 0.3772,
      "velocity": 112,
      "chip": "ym2612"
    },
    {
      "channel": 1,
      "note": 61,
      "start": 27.996,
      "duration": 0.1709,
      "velocity": 112,
      "chip": "ym2612"
    },
    {
      "channel": 2,
      "note": 47,
      "start": 27.9967,
      "duration": 0.6852,
      "velocity": 112,
      "chip": "ym2612"
    },
    {
      "channel": 4,
      "note": 44,
      "start": 27.9988,
      "duration": 0.7187,
      "velocity": 107,
      "chip": "ym2612"
    },
    {
      "channel": 1,
      "note": 62,
      "start": 28.2016,
      "duration": 0.1713,
      "velocity": 112,
      "chip": "ym2612"
    },
    {
      "channel": 3,
      "note": 47,
      "start": 28.2034,
      "duration": 0.6853,
      "velocity": 112,
      "chip": "ym2612"
    },
    {
      "channel": 5,
      "note": 44,
      "start": 28.2042,
      "duration": 0.6508,
      "velocity": 101,
      "chip": "ym2612"
    },
    {
      "channel": 0,
      "note": 61,
      "start": 28.4071,
      "duration": 0.3772,
      "velocity": 112,
      "chip": "ym2612"
    },
    {
      "channel": 1,
      "note": 64,
      "start": 28.4077,
      "duration": 0.3768,
      "velocity": 112,
      "chip": "ym2612"
    },
    {
      "channel": 0,
      "note": 57,
      "start": 28.8189,
      "duration": 0.5829,
      "velocity": 112,
      "chip": "ym2612"
    },
    {
      "channel": 1,
      "note": 61,
      "start": 28.8196,
      "duration": 0.3766,
      "velocity": 112,
      "chip": "ym2612"
    },
    {
      "channel": 2,
      "note": 54,
      "start": 28.8202,
      "duration": 0.2733,
      "velocity": 112,
      "chip": "ym2612"
    },
    {
      "channel": 4,
      "note": 43,
      "start": 28.8222,
      "duration": 0.7188,
      "velocity": 107,
      "chip": "ym2612"
    },
    {
      "channel": 3,
      "note": 54,
      "start": 29.0263,
      "duration": 0.2741,
      "velocity": 112,
      "chip": "ym2612"
    },
    {
      "channel": 5,
      "note": 43,
      "start": 29.0271,
      "duration": 0.6513,
      "velocity": 101,
      "chip": "ym2612"
    },
    {
      "channel": 1,
      "note": 57,
      "start": 29.2308,
      "duration": 0.583,
      "velocity": 112,
      "chip": "ym2612"
    },
    {
      "channel": 2,
      "note": 52,
      "start": 29.2314,
      "duration": 0.6854,
      "velocity": 112,
      "chip": "ym2612"
    },
    {
      "channel": 0,
      "note": 55,
      "start": 29.4364,
      "duration": 0.1713,
      "velocity": 112,
      "chip": "ym2612"
    },
    {
      "channel": 3,
      "note": 52,
      "start": 29.4385,
      "duration": 0.6857,
      "velocity": 112,
      "chip": "ym2612"
    },
    {
      "channel": 0,
      "note": 54,
      "start": 29.6423,
      "duration": 0.377,
      "velocity": 112,
      "chip": "ym2612"
    },
    {
      "channel": 4,
      "note": 42,
      "start": 29.6448,
      "duration": 0.7197,
      "velocity": 107,
      "chip": "ym2612"
    },
    {
      "channel": 1,
      "note": 55,
      "start": 29.8483,
      "duration": 0.1713,
      "velocity": 112,
      "chip": "ym2612"
    },
    {
      "channel": 5,
      "note": 42,
      "start": 29.8507,
      "duration": 0.6511,
      "velocity": 101,
      "chip": "ym2612"
    },
    {
      "channel": 0,
      "note": 59,
      "start": 30.0539,
      "duration": 2.024,
      "velocity": 112,
      "chip": "ym2612"
    },
    {
      "channel": 1,
      "note": 54,
      "start": 30.0546,
      "duration": 0.3768,
      "velocity": 112,
      "chip": "ym2612"
    },
    {
      "channel": 2,
      "note": 50,
      "start": 30.0552,
      "duration": 0.2734,
      "velocity": 112,
      "chip": "ym2612"
    },
    {
      "channel": 3,
      "note": 50,
      "start": 30.2616,
      "duration": 0.2741,
      "velocity": 112,
      "chip": "ym2612"
    },
    {
      "channel": 1,
      "note": 59,
      "start": 30.466,
      "duration": 2.0239,
      "velocity": 112,
      "chip": "ym2612"
    },
    {
      "channel": 2,
      "note": 49,
      "start": 30.4666,
      "duration": 0.2739,
      "velocity": 112,
      "chip": "ym2612"
    },
    {
      "channel": 4,
      "note": 40,
      "start": 30.4688,
      "duration": 0.7191,
      "velocity": 107,
      "chip": "ym2612"
    },
    {
      "channel": 3,
      "note": 49,
      "start": 30.6731,
      "duration": 0.2743,
      "velocity": 112,
      "chip": "ym2612"
    },
    {
      "channel": 5,
      "note": 40,
      "start": 30.6739,
      "duration": 0.6517,
      "velocity": 101,
      "chip": "ym2612"
    },
    {
      "channel": 2,
      "note": 55,
      "start": 30.8779,
      "duration": 0.2743,
      "velocity": 112,
      "chip": "ym2612"
    },
    {
      "channel": 3,
      "note": 55,
      "start": 31.0851,
      "duration": 0.2743,
      "velocity": 112,
      "chip": "ym2612"
    },
    {
      "channel": 2,
      "note": 54,
      "start": 31.2897,
      "duration": 0.2744,
      "velocity": 112,
      "chip": "ym2612"
    },
    {
      "channel": 4,
      "note": 38,
      "start": 31.2917,
      "duration": 0.7197,
      "velocity": 107,
      "chip": "ym2612"
    },
    {
      "channel": 3,
      "note": 54,
      "start": 31.4968,
      "duration": 0.2741,
      "velocity": 112,
      "chip": "ym2612"
    },
    {
      "channel": 5,
      "note": 38,
      "start": 31.4976,
      "duration": 0.6512,
      "velocity": 101,
      "chip": "ym2612"
    },
    {
      "channel": 2,
      "note": 47,
      "start": 31.7016,
      "duration": 0.2742,
      "velocity": 112,
      "chip": "ym2612"
    },
    {
      "channel": 3,
      "note": 47,
      "start": 31.9087,
      "duration": 0.2739,
      "velocity": 112,
      "chip": "ym2612"
    },
    {
      "channel": 0,
      "note": 49,
      "start": 32.1126,
      "duration": 0.1025,
      "velocity": 112,
      "chip": "ym2612"
    },
    {
      "channel": 2,
      "note": 49,
      "start": 32.1137,
      "duration": 0.2741,
      "velocity": 112,
      "chip": "ym2612"
    },
    {
      "channel": 4,
      "note": 37,
      "start": 32.1154,
      "duration": 0.7193,
      "velocity": 107,
      "chip": "ym2612"
    },
    {
      "channel": 0,
      "note": 50,
      "start": 32.2497,
      "duration": 0.1027,
      "velocity": 112,
      "chip": "ym2612"
    },
    {
      "channel": 3,
      "note": 49,
      "start": 32.3203,
      "duration": 0.274,
      "velocity": 112,
      "chip": "ym2612"
    },
    {
      "channel": 5,
      "note": 37,
      "start": 32.321,
      "duration": 0.4452,
      "velocity": 101,
      "chip": "ym2612"
    },
    {
      "channel": 0,
      "note": 52,
      "start": 32.387,
      "duration": 0.1026,
      "velocity": 112,
      "chip": "ym2612"
    },
    {
      "channel": 0,
      "note": 54,
      "start": 32.5245,
      "duration": 0.1024,
      "velocity": 112,
      "chip": "ym2612"
    },
    {
      "channel": 1,
      "note": 49,
      "start": 32.5252,
      "duration": 0.1019,
      "velocity": 112,
      "chip": "ym2612"
    },
    {
      "channel": 2,
      "note": 50,
      "start": 32.5259,
      "duration": 0.2738,
      "velocity": 112,
      "chip": "ym2612"
    },
    {
      "channel": 0,
      "note": 56,
      "start": 32.6615,
      "duration": 0.1025,
      "velocity": 112,
      "chip": "ym2612"
    },
    {
      "channel": 1,
      "note": 50,
      "start": 32.6621,
      "duration": 0.1022,
      "velocity": 112,
      "chip": "ym2612"
    },
    {
      "channel": 3,
      "note": 50,
      "start": 32.732,
      "duration": 0.0691,
      "velocity": 112,
      "chip": "ym2612"
    },
    {
      "channel": 0,
      "note": 58,
      "start": 32.7987,
      "duration": 0.1027,
      "velocity": 112,
      "chip": "ym2612"
    },
    {
      "channel": 1,
      "note": 52,
      "start": 32.7993,
      "duration": 0.1024,
      "velocity": 112,
      "chip": "ym2612"
    },
    {
      "channel": 0,
      "note": 59,
      "start": 32.9361,
      "duration": 1.2004,
      "velocity": 112,
      "chip": "ym2612"
    },
    {
      "channel": 1,
      "note": 54,
      "start": 32.9369,
      "duration": 0.1018,
      "velocity": 112,
      "chip": "ym2612"
    },
    {
      "channel": 2,
      "note": 52,
      "start": 32.9378,
      "duration": 3.1548,
      "velocity": 112,
      "chip": "ym2612"
    },
    {
      "channel": 3,
      "note": 48,
      "start": 32.9404,
      "duration": 3.1536,
      "velocity": 112,
      "chip": "ym2612"
    },
    {
      "channel": 4,
      "note": 24,
      "start": 32.9427,
      "duration": 0.3382,
      "velocity": 105,
      "chip": "ym2612"
    },
    {
      "channel": 5,
      "note": 24,
      "start": 32.9452,
      "duration": 3.1833,
      "velocity": 107,
      "chip": "ym2612"
    },
    {
      "channel": 1,
      "note": 56,
      "start": 33.0734,
      "duration": 0.1025,
      "velocity": 112,
      "chip": "ym2612"
    },
    {
      "channel": 1,
      "note": 58,
      "start": 33.2105,
      "duration": 0.1029,
      "velocity": 112,
      "chip": "ym2612"
    },
    {
      "channel": 1,
      "note": 59,
      "start": 33.3479,
      "duration": 1.2006,
      "velocity": 112,
      "chip": "ym2612"
    },
    {
      "channel": 4,
      "note": 26,
      "start": 33.3502,
      "duration": 0.3422,
      "velocity": 105,
      "chip": "ym2612"
    },
    {
      "channel": 4,
      "note": 28,
      "start": 33.7612,
      "duration": 0.343,
      "velocity": 105,
      "chip": "ym2612"
    },
    {
      "channel": 0,
      "note": 60,
      "start": 34.1709,
      "duration": 0.3773,
      "velocity": 112,
      "chip": "ym2612"
    },
    {
      "channel": 4,
      "note": 30,
      "start": 34.1734,
      "duration": 0.3426,
      "velocity": 105,
      "chip": "ym2612"
    },
    {
      "channel": 0,
      "note": 57,
      "start": 34.5827,
      "duration": 0.9946,
      "velocity": 112,
      "chip": "ym2612"
    },
    {
      "channel": 1,
      "note": 60,
      "start": 34.5834,
      "duration": 0.3766,
      "velocity": 112,
      "chip": "ym2612"
    },
    {
      "channel": 4,
      "note": 33,
      "start": 34.5855,
      "duration": 0.5479,
      "velocity": 105,
      "chip": "ym2612"
    },
    {
      "channel": 1,
      "note": 57,
      "start": 34.9947,
      "duration": 0.9947,
      "velocity": 112,
      "chip": "ym2612"
    },
    {
      "channel": 4,
      "note": 31,
      "start": 35.2022,
      "duration": 0.1371,
      "velocity": 105,
      "chip": "ym2612"
    },
    {
      "channel": 4,
      "note": 30,
      "start": 35.408,
      "duration": 0.3428,
      "velocity": 105,
      "chip": "ym2612"
    },
    {
      "channel": 0,
      "note": 57,
      "start": 35.612,
      "duration": 0.1713,
      "velocity": 112,
      "chip": "ym2612"
    },
    {
      "channel": 0,
      "note": 59,
      "start": 35.8179,
      "duration": 0.1712,
      "velocity": 112,
      "chip": "ym2612"
    },
    {
      "channel": 4,
      "note": 28,
      "start": 35.8203,
      "duration": 0.3424,
      "velocity": 105,
      "chip": "ym2612"
    },
    {
      "channel": 0,
      "note": 60,
      "start": 36.0237,
      "duration": 0.1712,
      "velocity": 112,
      "chip": "ym2612"
    },
    {
      "channel": 1,
      "note": 57,
      "start": 36.0243,
      "duration": 0.1709,
      "velocity": 112,
      "chip": "ym2612"
    },
    {
      "channel": 0,
      "note": 64,
      "start": 36.2298,
      "duration": 1.2004,
      "velocity": 112,
      "chip": "ym2612"
    },
    {
      "channel": 1,
      "note": 59,
      "start": 36.2305,
      "duration": 0.1706,
      "velocity": 112,
      "chip": "ym2612"
    },
    {
      "channel": 2,
      "note": 57,
      "start": 36.2313,
      "duration": 3.1548,
      "velocity": 112,
      "chip": "ym2612"
    },
    {
      "channel": 3,
      "note": 53,
      "start": 36.2336,
      "duration": 3.1539,
      "velocity": 112,
      "chip": "ym2612"
    },
    {
      "channel": 4,
      "note": 29,
      "start": 36.2343,
      "duration": 0.3401,
      "velocity": 105,
      "chip": "ym2612"
    },
    {
      "channel": 5,
      "note": 29,
      "start": 36.2348,
      "duration": 3.1874,
      "velocity": 107,
      "chip": "ym2612"
    },
    {
      "channel": 1,
      "note": 60,
      "start": 36.4357,
      "duration": 0.1712,
      "velocity": 112,
      "chip": "ym2612"
    },
    {
      "channel": 1,
      "note": 64,
      "start": 36.6418,
      "duration": 1.2004,
      "velocity": 112,
      "chip": "ym2612"
    },
    {
      "channel": 4,
      "note": 31,
      "start": 36.6439,
      "duration": 0.3423,
      "velocity": 105,
      "chip": "ym2612"
    },
    {
      "channel": 4,
      "note": 33,
      "start": 37.0549,
      "duration": 0.343,
      "velocity": 105,
      "chip": "ym2612"
    },
    {
      "channel": 0,
      "note": 65,
      "start": 37.4646,
      "duration": 0.3773,
      "velocity": 112,
      "chip": "ym2612"
    },
    {
      "channel": 4,
      "note": 35,
      "start": 37.467,
      "duration": 0.3426,
      "velocity": 105,
      "chip": "ym2612"
    },
    {
      "channel": 0,
      "note": 62,
      "start": 37.8763,
      "duration": 0.9947,
      "velocity": 112,
      "chip": "ym2612"
    },
    {
      "channel": 1,
      "note": 65,
      "start": 37.8769,
      "duration": 0.3767,
      "velocity": 112,
      "chip": "ym2612"
    },
    {
      "channel": 4,
      "note": 38,
      "start": 37.8791,
      "duration": 0.548,
      "velocity": 105,
      "chip": "ym2612"
    },
    {
      "channel": 1,
      "note": 62,
      "start": 38.2883,
      "duration": 0.9946,
      "velocity": 112,
      "chip": "ym2612"
    },
    {
      "channel": 4,
      "note": 36,
      "start": 38.496,
      "duration": 0.137,
      "velocity": 105,
      "chip": "ym2612"
    },
    {
      "channel": 4,
      "note": 35,
      "start": 38.7017,
      "duration": 0.3429,
      "velocity": 105,
      "chip": "ym2612"
    },
    {
      "channel": 0,
      "note": 62,
      "start": 38.9055,
      "duration": 0.1714,
      "velocity": 112,
      "chip": "ym2612"
    },
    {
      "channel": 0,
      "note": 64,
      "start": 39.1114,
      "duration": 0.1713,
      "velocity": 112,
      "chip": "ym2612"
    },
    {
      "channel": 4,
      "note": 33,
      "start": 39.1139,
      "duration": 0.3424,
      "velocity": 105,
      "chip": "ym2612"
    },
    {
      "channel": 0,
      "note": 65,
      "start": 39.3173,
      "duration": 0.1712,
      "velocity": 112,
      "chip": "ym2612"
    },
    {
      "channel": 1,
      "note": 62,
      "start": 39.3179,
      "duration": 0.171,
      "velocity": 112,
      "chip": "ym2612"
    },
    {
      "channel": 0,
      "note": 69,
      "start": 39.5233,
      "duration": 1.2004,
      "velocity": 112,
      "chip": "ym2612"
    },
    {
      "channel": 1,
      "note": 64,
      "start": 39.524,
      "duration": 0.1708,
      "velocity": 112,
      "chip": "ym2612"
    },
    {
      "channel": 2,
      "note": 62,
      "start": 39.5249,
      "duration": 1.0966,
      "velocity": 112,
      "chip": "ym2612"
    },
    {
      "channel": 3,
      "note": 58,
      "start": 39.5272,
      "duration": 1.0957,
      "velocity": 112,
      "chip": "ym2612"
    },
    {
      "channel": 4,
      "note": 34,
      "start": 39.528,
      "duration": 0.3401,
      "velocity": 105,
      "chip": "ym2612"
    },
    {
      "channel": 5,
      "note": 34,
      "start": 39.5287,
      "duration": 4.0106,
      "velocity": 107,
      "chip": "ym2612"
    },
    {
      "channel": 1,
      "note": 65,
      "start": 39.7293,
      "duration": 0.1712,
      "velocity": 112,
      "chip": "ym2612"
    },
    {
      "channel": 1,
      "note": 69,
      "start": 39.9352,
      "duration": 1.2005,
      "velocity": 112,
      "chip": "ym2612"
    },
    {
      "channel": 4,
      "note": 36,
      "start": 39.9374,
      "duration": 0.3422,
      "velocity": 105,
      "chip": "ym2612"
    },
    {
      "channel": 4,
      "note": 38,
      "start": 40.3486,
      "duration": 0.3431,
      "velocity": 105,
      "chip": "ym2612"
    },
    {
      "channel": 0,
      "note": 67,
      "start": 40.7583,
      "duration": 0.7889,
      "velocity": 112,
      "chip": "ym2612"
    },
    {
      "channel": 2,
      "note": 62,
      "start": 40.7592,
      "duration": 0.6856,
      "velocity": 112,
      "chip": "ym2612"
    },
    {
      "channel": 3,
      "note": 58,
      "start": 40.7609,
      "duration": 0.6853,
      "velocity": 112,
      "chip": "ym2612"
    },
    {
      "channel": 4,
      "note": 40,
      "start": 40.7614,
      "duration": 0.3419,
      "velocity": 105,
      "chip": "ym2612"
    },
    {
      "channel": 1,
      "note": 67,
      "start": 41.1702,
      "duration": 0.7888,
      "velocity": 112,
      "chip": "ym2612"
    },
    {
      "channel": 4,
      "note": 45,
      "start": 41.1724,
      "duration": 0.7541,
      "velocity": 105,
      "chip": "ym2612"
    },
    {
      "channel": 0,
      "note": 65,
      "start": 41.5819,
      "duration": 0.7885,
      "velocity": 112,
      "chip": "ym2612"
    },
    {
      "channel": 2,
      "note": 62,
      "start": 41.583,
      "duration": 0.6851,
      "velocity": 112,
      "chip": "ym2612"
    },
    {
      "channel": 3,
      "note": 58,
      "start": 41.5849,
      "duration": 0.6846,
      "velocity": 112,
      "chip": "ym2612"
    },
    {
      "channel": 1,
      "note": 65,
      "start": 41.9938,
      "duration": 0.7887,
      "velocity": 112,
      "chip": "ym2612"
    },
    {
      "channel": 4,
      "note": 43,
      "start": 41.9961,
      "duration": 0.7539,
      "velocity": 105,
      "chip": "ym2612"
    },
    {
      "channel": 0,
      "note": 64,
      "start": 42.4051,
      "duration": 0.7888,
      "velocity": 112,
      "chip": "ym2612"
    },
    {
      "channel": 2,
      "note": 62,
      "start": 42.406,
      "duration": 0.6855,
      "velocity": 112,
      "chip": "ym2612"
    },
    {
      "channel": 3,
      "note": 58,
      "start": 42.4077,
      "duration": 0.6851,
      "velocity": 112,
      "chip": "ym2612"
    },
    {
      "channel": 1,
      "note": 64,
      "start": 42.817,
      "duration": 0.7889,
      "velocity": 112,
      "chip": "ym2612"
    },
    {
      "channel": 4,
      "note": 41,
      "start": 42.8197,
      "duration": 0.7537,
      "velocity": 105,
      "chip": "ym2612"
    },
    {
      "channel": 0,
      "note": 62,
      "start": 43.2287,
      "duration": 0.7886,
      "velocity": 112,
      "chip": "ym2612"
    },
    {
      "channel": 2,
      "note": 58,
      "start": 43.2298,
      "duration": 0.685,
      "velocity": 112,
      "chip": "ym2612"
    },
    {
      "channel": 3,
      "note": 57,
      "start": 43.2317,
      "duration": 0.6845,
      "velocity": 112,
      "chip": "ym2612"
    },
    {
      "channel": 1,
      "note": 62,
      "start": 43.6407,
      "duration": 0.7887,
      "velocity": 112,
      "chip": "ym2612"
    },
    {
      "channel": 4,
      "note": 40,
      "start": 43.6429,
      "duration": 0.7539,
      "velocity": 105,
      "chip": "ym2612"
    },
    {
      "channel": 5,
      "note": 34,
      "start": 43.6437,
      "duration": 0.823,
      "velocity": 107,
      "chip": "ym2612"
    },
    {
      "channel": 0,
      "note": 60,
      "start": 44.0519,
      "duration": 0.7888,
      "velocity": 112,
      "chip": "ym2612"
    },
    {
      "channel": 2,
      "note": 58,
      "start": 44.053,
      "duration": 0.6854,
      "velocity": 112,
      "chip": "ym2612"
    },
    {
      "channel": 3,
      "note": 57,
      "start": 44.0549,
      "duration": 0.685,
      "velocity": 112,
      "chip": "ym2612"
    },
    {
      "channel": 1,
      "note": 60,
      "start": 44.4638,
      "duration": 0.789,
      "velocity": 112,
      "chip": "ym2612"
    },
    {
      "channel": 4,
      "note": 38,
      "start": 44.4661,
      "duration": 0.7541,
      "velocity": 105,
      "chip": "ym2612"
    },
    {
      "channel": 5,
      "note": 34,
      "start": 44.4669,
      "duration": 0.8232,
      "velocity": 107,
      "chip": "ym2612"
    },
    {
      "channel": 0,
      "note": 58,
      "start": 44.8757,
      "duration": 0.7885,
      "velocity": 112,
      "chip": "ym2612"
    },
    {
      "channel": 2,
      "note": 55,
      "start": 44.8768,
      "duration": 1.0967,
      "velocity": 112,
      "chip": "ym2612"
    },
    {
      "channel": 3,
      "note": 53,
      "start": 44.8787,
      "duration": 1.0962,
      "velocity": 112,
      "chip": "ym2612"
    },
    {
      "channel": 1,
      "note": 58,
      "start": 45.2875,
      "duration": 0.7887,
      "velocity": 112,
      "chip": "ym2612"
    },
    {
      "channel": 4,
      "note": 36,
      "start": 45.2897,
      "duration": 0.7539,
      "velocity": 105,
      "chip": "ym2612"
    },
    {
      "channel": 5,
      "note": 34,
      "start": 45.2903,
      "duration": 0.8279,
      "velocity": 107,
      "chip": "ym2612"
    },
    {
      "channel": 0,
      "note": 60,
      "start": 45.6988,
      "duration": 0.3771,
      "velocity": 112,
      "chip": "ym2612"
    },
    {
      "channel": 0,
      "note": 45,
      "start": 46.1121,
      "duration": 2.4341,
      "velocity": 97,
      "chip": "ym2612"
    },
    {
      "channel": 1,
      "note": 60,
      "start": 46.1128,
      "duration": 0.3751,
      "velocity": 112,
      "chip": "ym2612"
    },
    {
      "channel": 2,
      "note": 52,
      "start": 46.1138,
      "duration": 0.1685,
      "velocity": 112,
      "chip": "ym2612"
    },
    {
      "channel": 3,
      "note": 50,
      "start": 46.1165,
      "duration": 0.1672,
      "velocity": 112,
      "chip": "ym2612"
    },
    {
      "channel": 4,
      "note": 33,
      "start": 46.1175,
      "duration": 0.0976,
      "velocity": 105,
      "chip": "ym2612"
    },
    {
      "channel": 5,
      "note": 33,
      "start": 46.1184,
      "duration": 0.3543,
      "velocity": 107,
      "chip": "ym2612"
    },
    {
      "channel": 4,
      "note": 33,
      "start": 46.2499,
      "duration": 0.1025,
      "velocity": 105,
      "chip": "ym2612"
    },
    {
      "channel": 4,
      "note": 33,
      "start": 46.3872,
      "duration": 0.1024,
      "velocity": 105,
      "chip": "ym2612"
    },
    {
      "channel": 1,
      "note": 45,
      "start": 46.5241,
      "duration": 2.434,
      "velocity": 97,
      "chip": "ym2612"
    },
    {
      "channel": 4,
      "note": 33,
      "start": 46.5267,
      "duration": 0.1001,
      "velocity": 105,
      "chip": "ym2612"
    },
    {
      "channel": 4,
      "note": 33,
      "start": 46.6615,
      "duration": 0.1026,
      "velocity": 105,
      "chip": "ym2612"
    },
    {
      "channel": 4,
      "note": 33,
      "start": 46.7987,
      "duration": 0.1027,
      "velocity": 105,
      "chip": "ym2612"
    },
    {
      "channel": 2,
      "note": 52,
      "start": 46.9344,
      "duration": 0.1714,
      "velocity": 112,
      "chip": "ym2612"
    },
    {
      "channel": 3,
      "note": 50,
      "start": 46.9363,
      "duration": 0.1709,
      "velocity": 112,
      "chip": "ym2612"
    },
    {
      "channel": 4,
      "note": 33,
      "start": 46.9372,
      "duration": 0.1014,
      "velocity": 105,
      "chip": "ym2612"
    },
    {
      "channel": 5,
      "note": 33,
      "start": 46.9378,
      "duration": 0.3586,
      "velocity": 107,
      "chip": "ym2612"
    },
    {
      "channel": 4,
      "note": 33,
      "start": 47.0736,
      "duration": 0.1023,
      "velocity": 105,
      "chip": "ym2612"
    },
    {
      "channel": 4,
      "note": 33,
      "start": 47.2107,
      "duration": 0.1024,
      "velocity": 105,
      "chip": "ym2612"
    },
    {
      "channel": 4,
      "note": 33,
      "start": 47.3481,
      "duration": 0.1025,
      "velocity": 105,
      "chip": "ym2612"
    },
    {
      "channel": 4,
      "note": 33,
      "start": 47.4851,
      "duration": 0.1027,
      "velocity": 105,
      "chip": "ym2612"
    },
    {
      "channel": 4,
      "note": 33,
      "start": 47.6223,
      "duration": 0.1027,
      "velocity": 105,
      "chip": "ym2612"
    },
    {
      "channel": 4,
      "note": 33,
      "start": 47.7598,
      "duration": 0.1024,
      "velocity": 105,
      "chip": "ym2612"
    },
    {
      "channel": 4,
      "note": 33,
      "start": 47.8971,
      "duration": 0.1024,
      "velocity": 105,
      "chip": "ym2612"
    },
    {
      "channel": 4,
      "note": 33,
      "start": 48.0343,
      "duration": 0.1025,
      "velocity": 105,
      "chip": "ym2612"
    },
    {
      "channel": 4,
      "note": 33,
      "start": 48.1718,
      "duration": 0.1023,
      "velocity": 105,
      "chip": "ym2612"
    },
    {
      "channel": 4,
      "note": 33,
      "start": 48.3086,
      "duration": 0.1027,
      "velocity": 105,
      "chip": "ym2612"
    },
    {
      "channel": 4,
      "note": 33,
      "start": 48.4458,
      "duration": 0.1027,
      "velocity": 105,
      "chip": "ym2612"
    },
    {
      "channel": 0,
      "note": 46,
      "start": 48.5807,
      "duration": 0.7888,
      "velocity": 97,
      "chip": "ym2612"
    },
    {
      "channel": 4,
      "note": 33,
      "start": 48.5833,
      "duration": 0.1707,
      "velocity": 105,
      "chip": "ym2612"
    },
    {
      "channel": 4,
      "note": 33,
      "start": 48.7888,
      "duration": 0.1713,
      "velocity": 105,
      "chip": "ym2612"
    },
    {
      "channel": 1,
      "note": 46,
      "start": 48.9927,
      "duration": 0.7889,
      "velocity": 97,
      "chip": "ym2612"
    },
    {
      "channel": 2,
      "note": 53,
      "start": 48.9933,
      "duration": 0.2737,
      "velocity": 112,
      "chip": "ym2612"
    },
    {
      "channel": 3,
      "note": 51,
      "start": 48.9952,
      "duration": 0.2732,
      "velocity": 112,
      "chip": "ym2612"
    },
    {
      "channel": 4,
      "note": 34,
      "start": 48.996,
      "duration": 0.2727,
      "velocity": 105,
      "chip": "ym2612"
    },
    {
      "channel": 5,
      "note": 31,
      "start": 48.9965,
      "duration": 0.1524,
      "velocity": 107,
      "chip": "ym2612"
    },
    {
      "channel": 5,
      "note": 31,
      "start": 49.2004,
      "duration": 0.1544,
      "velocity": 107,
      "chip": "ym2612"
    },
    {
      "channel": 2,
      "note": 53,
      "start": 49.3016,
      "duration": 0.0685,
      "velocity": 112,
      "chip": "ym2612"
    },
    {
      "channel": 3,
      "note": 51,
      "start": 49.3034,
      "duration": 0.068,
      "velocity": 112,
      "chip": "ym2612"
    },
    {
      "channel": 4,
      "note": 34,
      "start": 49.3042,
      "duration": 0.0674,
      "velocity": 105,
      "chip": "ym2612"
    },
    {
      "channel": 0,
      "note": 52,
      "start": 49.4042,
      "duration": 2.4356,
      "velocity": 97,
      "chip": "ym2612"
    },
    {
      "channel": 2,
      "note": 59,
      "start": 49.4052,
      "duration": 0.1707,
      "velocity": 112,
      "chip": "ym2612"
    },
    {
      "channel": 3,
      "note": 57,
      "start": 49.4075,
      "duration": 0.1698,
      "velocity": 112,
      "chip": "ym2612"
    },
    {
      "channel": 4,
      "note": 40,
      "start": 49.4084,
      "duration": 0.1003,
      "velocity": 105,
      "chip": "ym2612"
    },
    {
      "channel": 5,
      "note": 33,
      "start": 49.409,
      "duration": 0.3573,
      "velocity": 107,
      "chip": "ym2612"
    },
    {
      "channel": 4,
      "note": 40,
      "start": 49.5436,
      "duration": 0.1026,
      "velocity": 105,
      "chip": "ym2612"
    },
    {
      "channel": 4,
      "note": 40,
      "start": 49.6808,
      "duration": 0.1026,
      "velocity": 105,
      "chip": "ym2612"
    },
    {
      "channel": 1,
      "note": 52,
      "start": 49.816,
      "duration": 2.4357,
      "velocity": 97,
      "chip": "ym2612"
    },
    {
      "channel": 4,
      "note": 40,
      "start": 49.8186,
      "duration": 0.1018,
      "velocity": 105,
      "chip": "ym2612"
    },
    {
      "channel": 4,
      "note": 40,
      "start": 49.955,
      "duration": 0.1029,
      "velocity": 105,
      "chip": "ym2612"
    },
    {
      "channel": 4,
      "note": 40,
      "start": 50.0923,
      "duration": 0.1026,
      "velocity": 105,
      "chip": "ym2612"
    },
    {
      "channel": 2,
      "note": 59,
      "start": 50.228,
      "duration": 0.1714,
      "velocity": 112,
      "chip": "ym2612"
    },
    {
      "channel": 3,
      "note": 57,
      "start": 50.2299,
      "duration": 0.1709,
      "velocity": 112,
      "chip": "ym2612"
    },
    {
      "channel": 4,
      "note": 40,
      "start": 50.2308,
      "duration": 0.1017,
      "velocity": 105,
      "chip": "ym2612"
    },
    {
      "channel": 5,
      "note": 33,
      "start": 50.2313,
      "duration": 0.3587,
      "velocity": 107,
      "chip": "ym2612"
    },
    {
      "channel": 4,
      "note": 40,
      "start": 50.3671,
      "duration": 0.1024,
      "velocity": 105,
      "chip": "ym2612"
    },
    {
      "channel": 4,
      "note": 40,
      "start": 50.5045,
      "duration": 0.1025,
      "velocity": 105,
      "chip": "ym2612"
    },
    {
      "channel": 4,
      "note": 40,
      "start": 50.6418,
      "duration": 0.1025,
      "velocity": 105,
      "chip": "ym2612"
    },
    {
      "channel": 4,
      "note": 40,
      "start": 50.7787,
      "duration": 0.1028,
      "velocity": 105,
      "chip": "ym2612"
    },
    {
      "channel": 4,
      "note": 40,
      "start": 50.9161,
      "duration": 0.1025,
      "velocity": 105,
      "chip": "ym2612"
    },
    {
      "channel": 4,
      "note": 40,
      "start": 51.0535,
      "duration": 0.1025,
      "velocity": 105,
      "chip": "ym2612"
    },
    {
      "channel": 4,
      "note": 40,
      "start": 51.1907,
      "duration": 0.1025,
      "velocity": 105,
      "chip": "ym2612"
    },
    {
      "channel": 4,
      "note": 40,
      "start": 51.3279,
      "duration": 0.1024,
      "velocity": 105,
      "chip": "ym2612"
    },
    {
      "channel": 4,
      "note": 40,
      "start": 51.4652,
      "duration": 0.1024,
      "velocity": 105,
      "chip": "ym2612"
    },
    {
      "channel": 4,
      "note": 40,
      "start": 51.6022,
      "duration": 0.1026,
      "velocity": 105,
      "chip": "ym2612"
    },
    {
      "channel": 4,
      "note": 40,
      "start": 51.7393,
      "duration": 0.1028,
      "velocity": 105,
      "chip": "ym2612"
    },
    {
      "channel": 0,
      "note": 53,
      "start": 51.8743,
      "duration": 0.7888,
      "velocity": 97,
      "chip": "ym2612"
    },
    {
      "channel": 4,
      "note": 40,
      "start": 51.8769,
      "duration": 0.1707,
      "velocity": 105,
      "chip": "ym2612"
    },
    {
      "channel": 4,
      "note": 40,
      "start": 52.0824,
      "duration": 0.1713,
      "velocity": 105,
      "chip": "ym2612"
    },
    {
      "channel": 1,
      "note": 53,
      "start": 52.2864,
      "duration": 0.377,
      "velocity": 97,
      "chip": "ym2612"
    },
    {
      "channel": 2,
      "note": 60,
      "start": 52.2871,
      "duration": 0.2736,
      "velocity": 112,
      "chip": "ym2612"
    },
    {
      "channel": 3,
      "note": 58,
      "start": 52.2889,
      "duration": 0.2732,
      "velocity": 112,
      "chip": "ym2612"
    },
    {
      "channel": 4,
      "note": 41,
      "start": 52.2897,
      "duration": 0.2726,
      "velocity": 105,
      "chip": "ym2612"
    },
    {
      "channel": 5,
      "note": 31,
      "start": 52.2903,
      "duration": 0.1522,
      "velocity": 107,
      "chip": "ym2612"
    },
    {
      "channel": 5,
      "note": 31,
      "start": 52.4943,
      "duration": 0.154,
      "velocity": 107,
      "chip": "ym2612"
    },
    {
      "channel": 2,
      "note": 60,
      "start": 52.5953,
      "duration": 0.0684,
      "velocity": 112,
      "chip": "ym2612"
    },
    {
      "channel": 3,
      "note": 58,
      "start": 52.5972,
      "duration": 0.0678,
      "velocity": 112,
      "chip": "ym2612"
    },
    {
      "channel": 4,
      "note": 41,
      "start": 52.5979,
      "duration": 0.0673,
      "velocity": 105,
      "chip": "ym2612"
    },
    {
      "channel": 0,
      "note": 66,
      "start": 52.6997,
      "duration": 0.1695,
      "velocity": 112,
      "chip": "ym2612"
    },
    {
      "channel": 2,
      "note": 61,
      "start": 52.7012,
      "duration": 0.1684,
      "velocity": 112,
      "chip": "ym2612"
    },
    {
      "channel": 3,
      "note": 59,
      "start": 52.7049,
      "duration": 0.1661,
      "velocity": 112,
      "chip": "ym2612"
    },
    {
      "channel": 4,
      "note": 42,
      "start": 52.7061,
      "duration": 0.0963,
      "velocity": 105,
      "chip": "ym2612"
    },
    {
      "channel": 5,
      "note": 30,
      "start": 52.7068,
      "duration": 0.3532,
      "velocity": 107,
      "chip": "ym2612"
    },
    {
      "channel": 4,
      "note": 42,
      "start": 52.8372,
      "duration": 0.1026,
      "velocity": 105,
      "chip": "ym2612"
    },
    {
      "channel": 4,
      "note": 42,
      "start": 52.9745,
      "duration": 0.1024,
      "velocity": 105,
      "chip": "ym2612"
    },
    {
      "channel": 4,
      "note": 42,
      "start": 53.1117,
      "duration": 0.1025,
      "velocity": 105,
      "chip": "ym2612"
    },
    {
      "channel": 4,
      "note": 42,
      "start": 53.2487,
      "duration": 0.1028,
      "velocity": 105,
      "chip": "ym2612"
    },
    {
      "channel": 4,
      "note": 42,
      "start": 53.3861,
      "duration": 0.1029,
      "velocity": 105,
      "chip": "ym2612"
    },
    {
      "channel": 0,
      "note": 66,
      "start": 53.5212,
      "duration": 0.1712,
      "velocity": 112,
      "chip": "ym2612"
    },
    {
      "channel": 2,
      "note": 61,
      "start": 53.5224,
      "duration": 0.1706,
      "velocity": 112,
      "chip": "ym2612"
    },
    {
      "channel": 3,
      "note": 59,
      "start": 53.5247,
      "duration": 0.1697,
      "velocity": 112,
      "chip": "ym2612"
    },
    {
      "channel": 4,
      "note": 42,
      "start": 53.5256,
      "duration": 0.1003,
      "velocity": 105,
      "chip": "ym2612"
    },
    {
      "channel": 5,
      "note": 30,
      "start": 53.5262,
      "duration": 0.3573,
      "velocity": 107,
      "chip": "ym2612"
    },
    {
      "channel": 4,
      "note": 42,
      "start": 53.6609,
      "duration": 0.1024,
      "velocity": 105,
      "chip": "ym2612"
    },
    {
      "channel": 4,
      "note": 42,
      "start": 53.7981,
      "duration": 0.1023,
      "velocity": 105,
      "chip": "ym2612"
    },
    {
      "channel": 4,
      "note": 42,
      "start": 53.9354,
      "duration": 0.1022,
      "velocity": 105,
      "chip": "ym2612"
    },
    {
      "channel": 4,
      "note": 42,
      "start": 54.0721,
      "duration": 0.1029,
      "velocity": 105,
      "chip": "ym2612"
    },
    {
      "channel": 4,
      "note": 42,
      "start": 54.2095,
      "duration": 0.1027,
      "velocity": 105,
      "chip": "ym2612"
    },
    {
      "channel": 4,
      "note": 42,
      "start": 54.3469,
      "duration": 0.1027,
      "velocity": 105,
      "chip": "ym2612"
    },
    {
      "channel": 4,
      "note": 42,
      "start": 54.4845,
      "duration": 0.1024,
      "velocity": 105,
      "chip": "ym2612"
    },
    {
      "channel": 4,
      "note": 42,
      "start": 54.6217,
      "duration": 0.1026,
      "velocity": 105,
      "chip": "ym2612"
    },
    {
      "channel": 4,
      "note": 42,
      "start": 54.7596,
      "duration": 0.1017,
      "velocity": 105,
      "chip": "ym2612"
    },
    {
      "channel": 4,
      "note": 42,
      "start": 54.8959,
      "duration": 0.1029,
      "velocity": 105,
      "chip": "ym2612"
    },
    {
      "channel": 4,
      "note": 42,
      "start": 55.0332,
      "duration": 0.1026,
      "velocity": 105,
      "chip": "ym2612"
    },
    {
      "channel": 4,
      "note": 42,
      "start": 55.1706,
      "duration": 0.1711,
      "velocity": 105,
      "chip": "ym2612"
    },
    {
      "channel": 4,
      "note": 42,
      "start": 55.3765,
      "duration": 0.171,
      "velocity": 105,
      "chip": "ym2612"
    },
    {
      "channel": 0,
      "note": 67,
      "start": 55.5797,
      "duration": 0.2742,
      "velocity": 112,
      "chip": "ym2612"
    },
    {
      "channel": 2,
      "note": 62,
      "start": 55.581,
      "duration": 0.2735,
      "velocity": 112,
      "chip": "ym2612"
    },
    {
      "channel": 3,
      "note": 60,
      "start": 55.5831,
      "duration": 0.2728,
      "velocity": 112,
      "chip": "ym2612"
    },
    {
      "channel": 4,
      "note": 43,
      "start": 55.5838,
      "duration": 0.2723,
      "velocity": 105,
      "chip": "ym2612"
    },
    {
      "channel": 5,
      "note": 28,
      "start": 55.5844,
      "duration": 0.1518,
      "velocity": 107,
      "chip": "ym2612"
    },
    {
      "channel": 5,
      "note": 28,
      "start": 55.7883,
      "duration": 0.1541,
      "velocity": 107,
      "chip": "ym2612"
    },
    {
      "channel": 0,
      "note": 67,
      "start": 55.8885,
      "duration": 0.0684,
      "velocity": 112,
      "chip": "ym2612"
    },
    {
      "channel": 2,
      "note": 62,
      "start": 55.8898,
      "duration": 0.0678,
      "velocity": 112,
      "chip": "ym2612"
    },
    {
      "channel": 3,
      "note": 60,
      "start": 55.8916,
      "duration": 0.0673,
      "velocity": 112,
      "chip": "ym2612"
    },
    {
      "channel": 4,
      "note": 43,
      "start": 55.8924,
      "duration": 0.0667,
      "velocity": 105,
      "chip": "ym2612"
    },
    {
      "channel": 0,
      "note": 66,
      "start": 55.9915,
      "duration": 0.1712,
      "velocity": 112,
      "chip": "ym2612"
    },
    {
      "channel": 2,
      "note": 61,
      "start": 55.993,
      "duration": 0.1704,
      "velocity": 112,
      "chip": "ym2612"
    },
    {
      "channel": 3,
      "note": 59,
      "start": 55.9956,
      "duration": 0.1689,
      "velocity": 112,
      "chip": "ym2612"
    },
    {
      "channel": 4,
      "note": 42,
      "start": 55.9965,
      "duration": 0.0996,
      "velocity": 105,
      "chip": "ym2612"
    },
    {
      "channel": 5,
      "note": 30,
      "start": 55.9972,
      "duration": 0.3565,
      "velocity": 107,
      "chip": "ym2612"
    },
    {
      "channel": 4,
      "note": 42,
      "start": 56.1309,
      "duration": 0.1026,
      "velocity": 105,
      "chip": "ym2612"
    },
    {
      "channel": 4,
      "note": 42,
      "start": 56.268,
      "duration": 0.1025,
      "velocity": 105,
      "chip": "ym2612"
    },
    {
      "channel": 4,
      "note": 42,
      "start": 56.4054,
      "duration": 0.1023,
      "velocity": 105,
      "chip": "ym2612"
    },
    {
      "channel": 4,
      "note": 42,
      "start": 56.5423,
      "duration": 0.1029,
      "velocity": 105,
      "chip": "ym2612"
    },
    {
      "channel": 4,
      "note": 42,
      "start": 56.6797,
      "duration": 0.1031,
      "velocity": 105,
      "chip": "ym2612"
    },
    {
      "channel": 0,
      "note": 66,
      "start": 56.8148,
      "duration": 0.1714,
      "velocity": 112,
      "chip": "ym2612"
    },
    {
      "channel": 2,
      "note": 61,
      "start": 56.816,
      "duration": 0.1708,
      "velocity": 112,
      "chip": "ym2612"
    },
    {
      "channel": 3,
      "note": 59,
      "start": 56.8185,
      "duration": 0.1695,
      "velocity": 112,
      "chip": "ym2612"
    },
    {
      "channel": 4,
      "note": 42,
      "start": 56.8194,
      "duration": 0.1,
      "velocity": 105,
      "chip": "ym2612"
    },
    {
      "channel": 5,
      "note": 30,
      "start": 56.82,
      "duration": 0.3571,
      "velocity": 107,
      "chip": "ym2612"
    },
    {
      "channel": 4,
      "note": 42,
      "start": 56.9544,
      "duration": 0.1026,
      "velocity": 105,
      "chip": "ym2612"
    },
    {
      "channel": 4,
      "note": 42,
      "start": 57.0917,
      "duration": 0.1021,
      "velocity": 105,
      "chip": "ym2612"
    },
    {
      "channel": 4,
      "note": 42,
      "start": 57.2289,
      "duration": 0.1022,
      "velocity": 105,
      "chip": "ym2612"
    },
    {
      "channel": 4,
      "note": 42,
      "start": 57.3658,
      "duration": 0.1029,
      "velocity": 105,
      "chip": "ym2612"
    },
    {
      "channel": 4,
      "note": 42,
      "start": 57.503,
      "duration": 0.1028,
      "velocity": 105,
      "chip": "ym2612"
    },
    {
      "channel": 4,
      "note": 42,
      "start": 57.6406,
      "duration": 0.1025,
      "velocity": 105,
      "chip": "ym2612"
    },
    {
      "channel": 4,
      "note": 42,
      "start": 57.7782,
      "duration": 0.1023,
      "velocity": 105,
      "chip": "ym2612"
    },
    {
      "channel": 4,
      "note": 42,
      "start": 57.9154,
      "duration": 0.1026,
      "velocity": 105,
      "chip": "ym2612"
    },
    {
      "channel": 4,
      "note": 42,
      "start": 58.0533,
      "duration": 0.1016,
      "velocity": 105,
      "chip": "ym2612"
    },
    {
      "channel": 4,
      "note": 42,
      "start": 58.1895,
      "duration": 0.1029,
      "velocity": 105,
      "chip": "ym2612"
    },
    {
      "channel": 4,
      "note": 42,
      "start": 58.3268,
      "duration": 0.1025,
      "velocity": 105,
      "chip": "ym2612"
    },
    {
      "channel": 4,
      "note": 42,
      "start": 58.4646,
      "duration": 0.1706,
      "velocity": 105,
      "chip": "ym2612"
    },
    {
      "channel": 4,
      "note": 42,
      "start": 58.6704,
      "duration": 0.1708,
      "velocity": 105,
      "chip": "ym2612"
    },
    {
      "channel": 0,
      "note": 67,
      "start": 58.8734,
      "duration": 0.2741,
      "velocity": 112,
      "chip": "ym2612"
    },
    {
      "channel": 2,
      "note": 62,
      "start": 58.8747,
      "duration": 0.2735,
      "velocity": 112,
      "chip": "ym2612"
    },
    {
      "channel": 3,
      "note": 60,
      "start": 58.8771,
      "duration": 0.2723,
      "velocity": 112,
      "chip": "ym2612"
    },
    {
      "channel": 4,
      "note": 43,
      "start": 58.8779,
      "duration": 0.2717,
      "velocity": 105,
      "chip": "ym2612"
    },
    {
      "channel": 5,
      "note": 28,
      "start": 58.8785,
      "duration": 0.1515,
      "velocity": 107,
      "chip": "ym2612"
    },
    {
      "channel": 5,
      "note": 28,
      "start": 59.0822,
      "duration": 0.1538,
      "velocity": 107,
      "chip": "ym2612"
    },
    {
      "channel": 0,
      "note": 67,
      "start": 59.1821,
      "duration": 0.0683,
      "velocity": 112,
      "chip": "ym2612"
    },
    {
      "channel": 2,
      "note": 62,
      "start": 59.1833,
      "duration": 0.0678,
      "velocity": 112,
      "chip": "ym2612"
    },
    {
      "channel": 3,
      "note": 60,
      "start": 59.185,
      "duration": 0.0674,
      "velocity": 112,
      "chip": "ym2612"
    },
    {
      "channel": 4,
      "note": 43,
      "start": 59.1858,
      "duration": 0.0669,
      "velocity": 105,
      "chip": "ym2612"
    },
    {
      "channel": 0,
      "note": 66,
      "start": 59.2851,
      "duration": 0.1713,
      "velocity": 112,
      "chip": "ym2612"
    },
    {
      "channel": 2,
      "note": 61,
      "start": 59.2866,
      "duration": 0.1705,
      "velocity": 112,
      "chip": "ym2612"
    },
    {
      "channel": 3,
      "note": 59,
      "start": 59.2895,
      "duration": 0.1687,
      "velocity": 112,
      "chip": "ym2612"
    },
    {
      "channel": 4,
      "note": 42,
      "start": 59.2906,
      "duration": 0.0994,
      "velocity": 105,
      "chip": "ym2612"
    },
    {
      "channel": 5,
      "note": 30,
      "start": 59.2911,
      "duration": 0.3564,
      "velocity": 107,
      "chip": "ym2612"
    },
    {
      "channel": 4,
      "note": 42,
      "start": 59.425,
      "duration": 0.1021,
      "velocity": 105,
      "chip": "ym2612"
    },
    {
      "channel": 4,
      "note": 42,
      "start": 59.5619,
      "duration": 0.1023,
      "velocity": 105,
      "chip": "ym2612"
    },
    {
      "channel": 4,
      "note": 42,
      "start": 59.6999,
      "duration": 0.1017,
      "velocity": 105,
      "chip": "ym2612"
    },
    {
      "channel": 4,
      "note": 42,
      "start": 59.8369,
      "duration": 0.102,
      "velocity": 105,
      "chip": "ym2612"
    },
    {
      "channel": 4,
      "note": 42,
      "start": 59.974,
      "duration": 0.1021,
      "velocity": 105,
      "chip": "ym2612"
    },
    {
      "channel": 0,
      "note": 66,
      "start": 60.1085,
      "duration": 0.1712,
      "velocity": 112,
      "chip": "ym2612"
    },
    {
      "channel": 2,
      "note": 61,
      "start": 60.1096,
      "duration": 0.1707,
      "velocity": 112,
      "chip": "ym2612"
    },
    {
      "channel": 3,
      "note": 59,
      "start": 60.1123,
      "duration": 0.1692,
      "velocity": 112,
      "chip": "ym2612"
    },
    {
      "channel": 4,
      "note": 42,
      "start": 60.1132,
      "duration": 0.1,
      "velocity": 105,
      "chip": "ym2612"
    },
    {
      "channel": 5,
      "note": 30,
      "start": 60.1138,
      "duration": 0.3571,
      "velocity": 107,
      "chip": "ym2612"
    },
    {
      "channel": 4,
      "note": 42,
      "start": 60.2483,
      "duration": 0.102,
      "velocity": 105,
      "chip": "ym2612"
    },
    {
      "channel": 4,
      "note": 42,
      "start": 60.3854,
      "duration": 0.102,
      "velocity": 105,
      "chip": "ym2612"
    },
    {
      "channel": 4,
      "note": 42,
      "start": 60.5234,
      "duration": 0.1017,
      "velocity": 105,
      "chip": "ym2612"
    },
    {
      "channel": 4,
      "note": 42,
      "start": 60.6603,
      "duration": 0.102,
      "velocity": 105,
      "chip": "ym2612"
    },
    {
      "channel": 4,
      "note": 42,
      "start": 60.7974,
      "duration": 0.1019,
      "velocity": 105,
      "chip": "ym2612"
    },
    {
      "channel": 4,
      "note": 42,
      "start": 60.9348,
      "duration": 0.102,
      "velocity": 105,
      "chip": "ym2612"
    },
    {
      "channel": 4,
      "note": 42,
      "start": 61.0719,
      "duration": 0.102,
      "velocity": 105,
      "chip": "ym2612"
    },
    {
      "channel": 4,
      "note": 42,
      "start": 61.209,
      "duration": 0.1022,
      "velocity": 105,
      "chip": "ym2612"
    },
    {
      "channel": 4,
      "note": 42,
      "start": 61.3471,
      "duration": 0.1015,
      "velocity": 105,
      "chip": "ym2612"
    },
    {
      "channel": 4,
      "note": 42,
      "start": 61.4839,
      "duration": 0.1019,
      "velocity": 105,
      "chip": "ym2612"
    },
    {
      "channel": 4,
      "note": 42,
      "start": 61.621,
      "duration": 0.1019,
      "velocity": 105,
      "chip": "ym2612"
    },
    {
      "channel": 4,
      "note": 42,
      "start": 61.7586,
      "duration": 0.1702,
      "velocity": 105,
      "chip": "ym2612"
    },
    {
      "channel": 4,
      "note": 42,
      "start": 61.9641,
      "duration": 0.1707,
      "velocity": 105,
      "chip": "ym2612"
    },
    {
      "channel": 0,
      "note": 67,
      "start": 62.167,
      "duration": 0.2742,
      "velocity": 112,
      "chip": "ym2612"
    },
    {
      "channel": 2,
      "note": 62,
      "start": 62.1682,
      "duration": 0.2737,
      "velocity": 112,
      "chip": "ym2612"
    },
    {
      "channel": 3,
      "note": 60,
      "start": 62.1707,
      "duration": 0.2724,
      "velocity": 112,
      "chip": "ym2612"
    },
    {
      "channel": 4,
      "note": 43,
      "start": 62.1714,
      "duration": 0.2719,
      "velocity": 105,
      "chip": "ym2612"
    },
    {
      "channel": 5,
      "note": 28,
      "start": 62.172,
      "duration": 0.1515,
      "velocity": 107,
      "chip": "ym2612"
    },
    {
      "channel": 5,
      "note": 28,
      "start": 62.3759,
      "duration": 0.1538,
      "velocity": 107,
      "chip": "ym2612"
    },
    {
      "channel": 0,
      "note": 67,
      "start": 62.4757,
      "duration": 0.0685,
      "velocity": 112,
      "chip": "ym2612"
    },
    {
      "channel": 2,
      "note": 62,
      "start": 62.4769,
      "duration": 0.0679,
      "velocity": 112,
      "chip": "ym2612"
    },
    {
      "channel": 3,
      "note": 60,
      "start": 62.4787,
      "duration": 0.0675,
      "velocity": 112,
      "chip": "ym2612"
    },
    {
      "channel": 4,
      "note": 43,
      "start": 62.4794,
      "duration": 0.067,
      "velocity": 105,
      "chip": "ym2612"
    },
    {
      "channel": 0,
      "note": 66,
      "start": 62.579,
      "duration": 0.171,
      "velocity": 112,
      "chip": "ym2612"
    },
    {
      "channel": 2,
      "note": 61,
      "start": 62.5807,
      "duration": 0.17,
      "velocity": 112,
      "chip": "ym2612"
    },
    {
      "channel": 3,
      "note": 59,
      "start": 62.5837,
      "duration": 0.1681,
      "velocity": 112,
      "chip": "ym2612"
    },
    {
      "channel": 4,
      "note": 42,
      "start": 62.5848,
      "duration": 0.0988,
      "velocity": 105,
      "chip": "ym2612"
    },
    {
      "channel": 5,
      "note": 30,
      "start": 62.5857,
      "duration": 0.3554,
      "velocity": 107,
      "chip": "ym2612"
    },
    {
      "channel": 4,
      "note": 42,
      "start": 62.7185,
      "duration": 0.1019,
      "velocity": 105,
      "chip": "ym2612"
    },
    {
      "channel": 4,
      "note": 42,
      "start": 62.8556,
      "duration": 0.1022,
      "velocity": 105,
      "chip": "ym2612"
    },
    {
      "channel": 4,
      "note": 42,
      "start": 62.9936,
      "duration": 0.1016,
      "velocity": 105,
      "chip": "ym2612"
    },
    {
      "channel": 4,
      "note": 42,
      "start": 63.1304,
      "duration": 0.1021,
      "velocity": 105,
      "chip": "ym2612"
    },
    {
      "channel": 4,
      "note": 42,
      "start": 63.2677,
      "duration": 0.102,
      "velocity": 105,
      "chip": "ym2612"
    },
    {
      "channel": 0,
      "note": 66,
      "start": 63.4022,
      "duration": 0.1712,
      "velocity": 112,
      "chip": "ym2612"
    },
    {
      "channel": 2,
      "note": 61,
      "start": 63.4034,
      "duration": 0.1707,
      "velocity": 112,
      "chip": "ym2612"
    },
    {
      "channel": 3,
      "note": 59,
      "start": 63.406,
      "duration": 0.1693,
      "velocity": 112,
      "chip": "ym2612"
    },
    {
      "channel": 4,
      "note": 42,
      "start": 63.407,
      "duration": 0.0999,
      "velocity": 105,
      "chip": "ym2612"
    },
    {
      "channel": 5,
      "note": 30,
      "start": 63.4076,
      "duration": 0.3569,
      "velocity": 107,
      "chip": "ym2612"
    },
    {
      "channel": 4,
      "note": 42,
      "start": 63.5421,
      "duration": 0.1019,
      "velocity": 105,
      "chip": "ym2612"
    },
    {
      "channel": 4,
      "note": 42,
      "start": 63.679,
      "duration": 0.1022,
      "velocity": 105,
      "chip": "ym2612"
    },
    {
      "channel": 4,
      "note": 42,
      "start": 63.8171,
      "duration": 0.1015,
      "velocity": 105,
      "chip": "ym2612"
    },
    {
      "channel": 4,
      "note": 42,
      "start": 63.9539,
      "duration": 0.102,
      "velocity": 105,
      "chip": "ym2612"
    },
    {
      "channel": 4,
      "note": 42,
      "start": 64.0911,
      "duration": 0.1019,
      "velocity": 105,
      "chip": "ym2612"
    },
    {
      "channel": 0,
      "note": 34,
      "start": 64.2273,
      "duration": 0.1009,
      "velocity": 105,
      "chip": "ym2612"
    },
    {
      "channel": 1,
      "note": 30,
      "start": 64.2298,
      "duration": 0.0988,
      "velocity": 105,
      "chip": "ym2612"
    },
    {
      "channel": 4,
      "note": 42,
      "start": 64.2328,
      "duration": 0.0973,
      "velocity": 105,
      "chip": "ym2612"
    },
    {
      "channel": 0,
      "note": 32,
      "start": 64.3628,
      "duration": 0.1025,
      "velocity": 105,
      "chip": "ym2612"
    },
    {
      "channel": 1,
      "note": 28,
      "start": 64.3634,
      "duration": 0.1022,
      "velocity": 105,
      "chip": "ym2612"
    },
    {
      "channel": 4,
      "note": 42,
      "start": 64.3665,
      "duration": 0.101,
      "velocity": 105,
      "chip": "ym2612"
    },
    {
      "channel": 0,
      "note": 34,
      "start": 64.5,
      "duration": 0.1026,
      "velocity": 105,
      "chip": "ym2612"
    },
    {
      "channel": 1,
      "note": 30,
      "start": 64.5006,
      "duration": 0.1023,
      "velocity": 105,
      "chip": "ym2612"
    },
    {
      "channel": 4,
      "note": 42,
      "start": 64.5037,
      "duration": 0.1011,
      "velocity": 105,
      "chip": "ym2612"
    },
    {
      "channel": 0,
      "note": 35,
      "start": 64.6373,
      "duration": 0.1027,
      "velocity": 105,
      "chip": "ym2612"
    },
    {
      "channel": 1,
      "note": 32,
      "start": 64.6379,
      "duration": 0.1024,
      "velocity": 105,
      "chip": "ym2612"
    },
    {
      "channel": 4,
      "note": 42,
      "start": 64.6411,
      "duration": 0.101,
      "velocity": 105,
      "chip": "ym2612"
    },
    {
      "channel": 5,
      "note": 30,
      "start": 64.6418,
      "duration": 0.1518,
      "velocity": 107,
      "chip": "ym2612"
    },
    {
      "channel": 0,
      "note": 34,
      "start": 64.7745,
      "duration": 0.1025,
      "velocity": 105,
      "chip": "ym2612"
    },
    {
      "channel": 1,
      "note": 30,
      "start": 64.7752,
      "duration": 0.1022,
      "velocity": 105,
      "chip": "ym2612"
    },
    {
      "channel": 4,
      "note": 42,
      "start": 64.778,
      "duration": 0.1013,
      "velocity": 105,
      "chip": "ym2612"
    },
    {
      "channel": 5,
      "note": 30,
      "start": 64.8451,
      "duration": 0.1542,
      "velocity": 107,
      "chip": "ym2612"
    },
    {
      "channel": 0,
      "note": 35,
      "start": 64.9117,
      "duration": 0.1026,
      "velocity": 105,
      "chip": "ym2612"
    },
    {
      "channel": 1,
      "note": 32,
      "start": 64.9124,
      "duration": 0.1022,
      "velocity": 105,
      "chip": "ym2612"
    },
    {
      "channel": 4,
      "note": 42,
      "start": 64.9152,
      "duration": 0.1013,
      "velocity": 105,
      "chip": "ym2612"
    },
    {
      "channel": 0,
      "note": 37,
      "start": 65.049,
      "duration": 0.1026,
      "velocity": 105,
      "chip": "ym2612"
    },
    {
      "channel": 1,
      "note": 34,
      "start": 65.0496,
      "duration": 0.1023,
      "velocity": 105,
      "chip": "ym2612"
    },
    {
      "channel": 4,
      "note": 42,
      "start": 65.0527,
      "duration": 0.1697,
      "velocity": 105,
      "chip": "ym2612"
    },
    {
      "channel": 5,
      "note": 30,
      "start": 65.0535,
      "duration": 0.1519,
      "velocity": 107,
      "chip": "ym2612"
    },
    {
      "channel": 0,
      "note": 38,
      "start": 65.1861,
      "duration": 0.1027,
      "velocity": 105,
      "chip": "ym2612"
    },
    {
      "channel": 1,
      "note": 35,
      "start": 65.1868,
      "duration": 0.1024,
      "velocity": 105,
      "chip": "ym2612"
    },
    {
      "channel": 4,
      "note": 42,
      "start": 65.2567,
      "duration": 0.1716,
      "velocity": 105,
      "chip": "ym2612"
    },
    {
      "channel": 5,
      "note": 30,
      "start": 65.2572,
      "duration": 0.1537,
      "velocity": 107,
      "chip": "ym2612"
    },
    {
      "channel": 0,
      "note": 40,
      "start": 65.3234,
      "duration": 0.1027,
      "velocity": 105,
      "chip": "ym2612"
    },
    {
      "channel": 1,
      "note": 37,
      "start": 65.324,
      "duration": 0.1024,
      "velocity": 105,
      "chip": "ym2612"
    },
    {
      "channel": 0,
      "note": 42,
      "start": 65.4606,
      "duration": 0.1027,
      "velocity": 105,
      "chip": "ym2612"
    },
    {
      "channel": 1,
      "note": 38,
      "start": 65.4612,
      "duration": 0.1023,
      "velocity": 105,
      "chip": "ym2612"
    },
    {
      "channel": 2,
      "note": 61,
      "start": 65.4621,
      "duration": 0.1703,
      "velocity": 112,
      "chip": "ym2612"
    },
    {
      "channel": 3,
      "note": 59,
      "start": 65.4647,
      "duration": 0.169,
      "velocity": 112,
      "chip": "ym2612"
    },
    {
      "channel": 4,
      "note": 42,
      "start": 65.4657,
      "duration": 0.1683,
      "velocity": 105,
      "chip": "ym2612"
    },
    {
      "channel": 5,
      "note": 30,
      "start": 65.4663,
      "duration": 0.1508,
      "velocity": 107,
      "chip": "ym2612"
    },
    {
      "channel": 0,
      "note": 44,
      "start": 65.5979,
      "duration": 0.1027,
      "velocity": 105,
      "chip": "ym2612"
    },
    {
      "channel": 1,
      "note": 40,
      "start": 65.5985,
      "duration": 0.1024,
      "velocity": 105,
      "chip": "ym2612"
    },
    {
      "channel": 2,
      "note": 61,
      "start": 65.667,
      "duration": 0.1714,
      "velocity": 112,
      "chip": "ym2612"
    },
    {
      "channel": 3,
      "note": 59,
      "start": 65.6687,
      "duration": 0.1712,
      "velocity": 112,
      "chip": "ym2612"
    },
    {
      "channel": 4,
      "note": 42,
      "start": 65.6694,
      "duration": 0.1707,
      "velocity": 105,
      "chip": "ym2612"
    },
    {
      "channel": 5,
      "note": 30,
      "start": 65.67,
      "duration": 0.1527,
      "velocity": 107,
      "chip": "ym2612"
    },
    {
      "channel": 0,
      "note": 46,
      "start": 65.7352,
      "duration": 0.1026,
      "velocity": 105,
      "chip": "ym2612"
    },
    {
      "channel": 1,
      "note": 42,
      "start": 65.7359,
      "duration": 0.1022,
      "velocity": 105,
      "chip": "ym2612"
    },
    {
      "channel": 0,
      "note": 47,
      "start": 65.8727,
      "duration": 1.2001,
      "velocity": 105,
      "chip": "ym2612"
    },
    {
      "channel": 1,
      "note": 59,
      "start": 65.8738,
      "duration": 1.4053,
      "velocity": 105,
      "chip": "ym2612"
    },
    {
      "channel": 2,
      "note": 71,
      "start": 65.8748,
      "duration": 0.358,
      "velocity": 112,
      "chip": "ym2612"
    },
    {
      "channel": 3,
      "note": 66,
      "start": 65.8778,
      "duration": 0.3562,
      "velocity": 112,
      "chip": "ym2612"
    },
    {
      "channel": 4,
      "note": 47,
      "start": 65.8801,
      "duration": 0.3884,
      "velocity": 122,
      "chip": "ym2612"
    },
    {
      "channel": 5,
      "note": 35,
      "start": 65.881,
      "duration": 0.3535,
      "velocity": 107,
      "chip": "ym2612"
    },
    {
      "channel": 2,
      "note": 59,
      "start": 66.2846,
      "duration": 0.0854,
      "velocity": 112,
      "chip": "ym2612"
    },
    {
      "channel": 3,
      "note": 54,
      "start": 66.287,
      "duration": 0.0841,
      "velocity": 112,
      "chip": "ym2612"
    },
    {
      "channel": 4,
      "note": 47,
      "start": 66.2876,
      "duration": 0.1182,
      "velocity": 122,
      "chip": "ym2612"
    },
    {
      "channel": 5,
      "note": 23,
      "start": 66.2881,
      "duration": 0.0835,
      "velocity": 107,
      "chip": "ym2612"
    },
    {
      "channel": 2,
      "note": 59,
      "start": 66.4217,
      "duration": 0.0854,
      "velocity": 112,
      "chip": "ym2612"
    },
    {
      "channel": 3,
      "note": 54,
      "start": 66.4241,
      "duration": 0.0842,
      "velocity": 112,
      "chip": "ym2612"
    },
    {
      "channel": 4,
      "note": 47,
      "start": 66.4246,
      "duration": 0.1184,
      "velocity": 122,
      "chip": "ym2612"
    },
    {
      "channel": 5,
      "note": 23,
      "start": 66.4252,
      "duration": 0.0837,
      "velocity": 107,
      "chip": "ym2612"
    },
    {
      "channel": 2,
      "note": 59,
      "start": 66.559,
      "duration": 0.0855,
      "velocity": 112,
      "chip": "ym2612"
    },
    {
      "channel": 3,
      "note": 54,
      "start": 66.5612,
      "duration": 0.0845,
      "velocity": 112,
      "chip": "ym2612"
    },
    {
      "channel": 4,
      "note": 47,
      "start": 66.5617,
      "duration": 0.1186,
      "velocity": 122,
      "chip": "ym2612"
    },
    {
      "channel": 5,
      "note": 23,
      "start": 66.5623,
      "duration": 0.0838,
      "velocity": 107,
      "chip": "ym2612"
    },
    {
      "channel": 2,
      "note": 59,
      "start": 66.6962,
      "duration": 0.1544,
      "velocity": 112,
      "chip": "ym2612"
    },
    {
      "channel": 3,
      "note": 54,
      "start": 66.6985,
      "duration": 0.1535,
      "velocity": 112,
      "chip": "ym2612"
    },
    {
      "channel": 4,
      "note": 47,
      "start": 66.699,
      "duration": 0.1878,
      "velocity": 122,
      "chip": "ym2612"
    },
    {
      "channel": 5,
      "note": 23,
      "start": 66.6995,
      "duration": 0.1529,
      "velocity": 107,
      "chip": "ym2612"
    },
    {
      "channel": 2,
      "note": 59,
      "start": 66.9023,
      "duration": 0.1544,
      "velocity": 112,
      "chip": "ym2612"
    },
    {
      "channel": 3,
      "note": 54,
      "start": 66.9046,
      "duration": 0.1534,
      "velocity": 112,
      "chip": "ym2612"
    },
    {
      "channel": 4,
      "note": 47,
      "start": 66.9051,
      "duration": 0.1872,
      "velocity": 122,
      "chip": "ym2612"
    },
    {
      "channel": 5,
      "note": 23,
      "start": 66.9057,
      "duration": 0.1527,
      "velocity": 107,
      "chip": "ym2612"
    },
    {
      "channel": 0,
      "note": 49,
      "start": 67.108,
      "duration": 0.1707,
      "velocity": 105,
      "chip": "ym2612"
    },
    {
      "channel": 0,
      "note": 50,
      "start": 67.3134,
      "duration": 0.1711,
      "velocity": 105,
      "chip": "ym2612"
    },
    {
      "channel": 1,
      "note": 49,
      "start": 67.3142,
      "duration": 0.1705,
      "velocity": 105,
      "chip": "ym2612"
    },
    {
      "channel": 0,
      "note": 52,
      "start": 67.5193,
      "duration": 0.377,
      "velocity": 105,
      "chip": "ym2612"
    },
    {
      "channel": 1,
      "note": 50,
      "start": 67.5199,
      "duration": 0.1709,
      "velocity": 105,
      "chip": "ym2612"
    },
    {
      "channel": 1,
      "note": 52,
      "start": 67.7254,
      "duration": 0.3771,
      "velocity": 105,
      "chip": "ym2612"
    },
    {
      "channel": 0,
      "note": 49,
      "start": 67.9308,
      "duration": 0.3771,
      "velocity": 105,
      "chip": "ym2612"
    },
    {
      "channel": 1,
      "note": 49,
      "start": 68.137,
      "duration": 0.3772,
      "velocity": 105,
      "chip": "ym2612"
    },
    {
      "channel": 0,
      "note": 45,
      "start": 68.3426,
      "duration": 0.583,
      "velocity": 105,
      "chip": "ym2612"
    },
    {
      "channel": 1,
      "note": 45,
      "start": 68.5487,
      "duration": 0.5829,
      "velocity": 105,
      "chip": "ym2612"
    },
    {
      "channel": 0,
      "note": 43,
      "start": 68.9602,
      "duration": 0.1712,
      "velocity": 105,
      "chip": "ym2612"
    },
    {
      "channel": 0,
      "note": 42,
      "start": 69.166,
      "duration": 0.3772,
      "velocity": 105,
      "chip": "ym2612"
    },
    {
      "channel": 1,
      "note": 43,
      "start": 69.1666,
      "duration": 0.1711,
      "velocity": 105,
      "chip": "ym2612"
    },
    {
      "channel": 5,
      "note": 35,
      "start": 69.1694,
      "duration": 0.7707,
      "velocity": 107,
      "chip": "ym2612"
    },
    {
      "channel": 1,
      "note": 42,
      "start": 69.372,
      "duration": 0.3772,
      "velocity": 105,
      "chip": "ym2612"
    },
    {
      "channel": 0,
      "note": 47,
      "start": 69.5778,
      "duration": 2.8473,
      "velocity": 105,
      "chip": "ym2612"
    },
    {
      "channel": 1,
      "note": 47,
      "start": 69.7838,
      "duration": 2.8474,
      "velocity": 105,
      "chip": "ym2612"
    },
    {
      "channel": 5,
      "note": 30,
      "start": 69.9921,
      "duration": 0.772,
      "velocity": 107,
      "chip": "ym2612"
    },
    {
      "channel": 2,
      "note": 50,
      "start": 70.196,
      "duration": 0.1538,
      "velocity": 112,
      "chip": "ym2612"
    },
    {
      "channel": 3,
      "note": 47,
      "start": 70.1982,
      "duration": 0.1532,
      "velocity": 112,
      "chip": "ym2612"
    },
    {
      "channel": 2,
      "note": 52,
      "start": 70.4016,
      "duration": 0.1543,
      "velocity": 112,
      "chip": "ym2612"
    },
    {
      "channel": 3,
      "note": 49,
      "start": 70.4035,
      "duration": 0.154,
      "velocity": 112,
      "chip": "ym2612"
    },
    {
      "channel": 2,
      "note": 54,
      "start": 70.6077,
      "duration": 0.1543,
      "velocity": 112,
      "chip": "ym2612"
    },
    {
      "channel": 3,
      "note": 50,
      "start": 70.6095,
      "duration": 0.1541,
      "velocity": 112,
      "chip": "ym2612"
    },
    {
      "channel": 2,
      "note": 55,
      "start": 70.8136,
      "duration": 0.3601,
      "velocity": 112,
      "chip": "ym2612"
    },
    {
      "channel": 3,
      "note": 50,
      "start": 70.8155,
      "duration": 0.3597,
      "velocity": 112,
      "chip": "ym2612"
    },
    {
      "channel": 4,
      "note": 47,
      "start": 70.8178,
      "duration": 0.3576,
      "velocity": 112,
      "chip": "ym2612"
    },
    {
      "channel": 5,
      "note": 31,
      "start": 70.8184,
      "duration": 0.3572,
      "velocity": 107,
      "chip": "ym2612"
    },
    {
      "channel": 2,
      "note": 55,
      "start": 71.2252,
      "duration": 0.0855,
      "velocity": 112,
      "chip": "ym2612"
    },
    {
      "channel": 3,
      "note": 50,
      "start": 71.2271,
      "duration": 0.0852,
      "velocity": 112,
      "chip": "ym2612"
    },
    {
      "channel": 4,
      "note": 47,
      "start": 71.2276,
      "duration": 0.0849,
      "velocity": 112,
      "chip": "ym2612"
    },
    {
      "channel": 5,
      "note": 31,
      "start": 71.2282,
      "duration": 0.0845,
      "velocity": 107,
      "chip": "ym2612"
    },
    {
      "channel": 2,
      "note": 55,
      "start": 71.3624,
      "duration": 0.0857,
      "velocity": 112,
      "chip": "ym2612"
    },
    {
      "channel": 3,
      "note": 50,
      "start": 71.3643,
      "duration": 0.0854,
      "velocity": 112,
      "chip": "ym2612"
    },
    {
      "channel": 4,
      "note": 47,
      "start": 71.3649,
      "duration": 0.0851,
      "velocity": 112,
      "chip": "ym2612"
    },
    {
      "channel": 5,
      "note": 31,
      "start": 71.3654,
      "duration": 0.0848,
      "velocity": 107,
      "chip": "ym2612"
    },
    {
      "channel": 2,
      "note": 55,
      "start": 71.4998,
      "duration": 0.0854,
      "velocity": 112,
      "chip": "ym2612"
    },
    {
      "channel": 3,
      "note": 50,
      "start": 71.5016,
      "duration": 0.0852,
      "velocity": 112,
      "chip": "ym2612"
    },
    {
      "channel": 4,
      "note": 47,
      "start": 71.5022,
      "duration": 0.0849,
      "velocity": 112,
      "chip": "ym2612"
    },
    {
      "channel": 5,
      "note": 31,
      "start": 71.5028,
      "duration": 0.0846,
      "velocity": 107,
      "chip": "ym2612"
    },
    {
      "channel": 2,
      "note": 57,
      "start": 71.6369,
      "duration": 0.3602,
      "velocity": 112,
      "chip": "ym2612"
    },
    {
      "channel": 3,
      "note": 52,
      "start": 71.6388,
      "duration": 0.3599,
      "velocity": 112,
      "chip": "ym2612"
    },
    {
      "channel": 4,
      "note": 49,
      "start": 71.6393,
      "duration": 0.3595,
      "velocity": 112,
      "chip": "ym2612"
    },
    {
      "channel": 5,
      "note": 33,
      "start": 71.64,
      "duration": 0.1532,
      "velocity": 107,
      "chip": "ym2612"
    },
    {
      "channel": 5,
      "note": 33,
      "start": 71.8447,
      "duration": 0.1544,
      "velocity": 107,
      "chip": "ym2612"
    },
    {
      "channel": 2,
      "note": 57,
      "start": 72.0488,
      "duration": 0.2227,
      "velocity": 112,
      "chip": "ym2612"
    },
    {
      "channel": 3,
      "note": 52,
      "start": 72.0506,
      "duration": 0.2225,
      "velocity": 112,
      "chip": "ym2612"
    },
    {
      "channel": 4,
      "note": 49,
      "start": 72.0511,
      "duration": 0.2223,
      "velocity": 112,
      "chip": "ym2612"
    },
    {
      "channel": 5,
      "note": 33,
      "start": 72.0517,
      "duration": 0.1531,
      "velocity": 107,
      "chip": "ym2612"
    },
    {
      "channel": 5,
      "note": 33,
      "start": 72.2565,
      "duration": 0.1543,
      "velocity": 107,
      "chip": "ym2612"
    },
    {
      "channel": 2,
      "note": 57,
      "start": 72.3232,
      "duration": 0.0856,
      "velocity": 112,
      "chip": "ym2612"
    },
    {
      "channel": 3,
      "note": 52,
      "start": 72.325,
      "duration": 0.0853,
      "velocity": 112,
      "chip": "ym2612"
    },
    {
      "channel": 4,
      "note": 49,
      "start": 72.3256,
      "duration": 0.085,
      "velocity": 112,
      "chip": "ym2612"
    },
    {
      "channel": 0,
      "note": 47,
      "start": 72.4597,
      "duration": 1.2005,
      "velocity": 105,
      "chip": "ym2612"
    },
    {
      "channel": 2,
      "note": 59,
      "start": 72.4607,
      "duration": 0.3594,
      "velocity": 112,
      "chip": "ym2612"
    },
    {
      "channel": 3,
      "note": 54,
      "start": 72.4633,
      "duration": 0.358,
      "velocity": 112,
      "chip": "ym2612"
    },
    {
      "channel": 4,
      "note": 47,
      "start": 72.4656,
      "duration": 0.3901,
      "velocity": 122,
      "chip": "ym2612"
    },
    {
      "channel": 5,
      "note": 35,
      "start": 72.4663,
      "duration": 0.3556,
      "velocity": 107,
      "chip": "ym2612"
    },
    {
      "channel": 1,
      "note": 47,
      "start": 72.6658,
      "duration": 1.2005,
      "velocity": 105,
      "chip": "ym2612"
    },
    {
      "channel": 2,
      "note": 47,
      "start": 72.8719,
      "duration": 0.0854,
      "velocity": 112,
      "chip": "ym2612"
    },
    {
      "channel": 3,
      "note": 42,
      "start": 72.8744,
      "duration": 0.0841,
      "velocity": 112,
      "chip": "ym2612"
    },
    {
      "channel": 4,
      "note": 47,
      "start": 72.875,
      "duration": 0.1183,
      "velocity": 122,
      "chip": "ym2612"
    },
    {
      "channel": 5,
      "note": 23,
      "start": 72.8756,
      "duration": 0.0833,
      "velocity": 107,
      "chip": "ym2612"
    },
    {
      "channel": 2,
      "note": 47,
      "start": 73.0092,
      "duration": 0.0853,
      "velocity": 112,
      "chip": "ym2612"
    },
    {
      "channel": 3,
      "note": 42,
      "start": 73.0114,
      "duration": 0.0842,
      "velocity": 112,
      "chip": "ym2612"
    },
    {
      "channel": 4,
      "note": 47,
      "start": 73.012,
      "duration": 0.1183,
      "velocity": 122,
      "chip": "ym2612"
    },
    {
      "channel": 5,
      "note": 23,
      "start": 73.0126,
      "duration": 0.0835,
      "velocity": 107,
      "chip": "ym2612"
    },
    {
      "channel": 2,
      "note": 47,
      "start": 73.1463,
      "duration": 0.0855,
      "velocity": 112,
      "chip": "ym2612"
    },
    {
      "channel": 3,
      "note": 42,
      "start": 73.1485,
      "duration": 0.0845,
      "velocity": 112,
      "chip": "ym2612"
    },
    {
      "channel": 4,
      "note": 47,
      "start": 73.1491,
      "duration": 0.1184,
      "velocity": 122,
      "chip": "ym2612"
    },
    {
      "channel": 5,
      "note": 23,
      "start": 73.1497,
      "duration": 0.0838,
      "velocity": 107,
      "chip": "ym2612"
    },
    {
      "channel": 2,
      "note": 47,
      "start": 73.2835,
      "duration": 0.1543,
      "velocity": 112,
      "chip": "ym2612"
    },
    {
      "channel": 3,
      "note": 42,
      "start": 73.2857,
      "duration": 0.1534,
      "velocity": 112,
      "chip": "ym2612"
    },
    {
      "channel": 4,
      "note": 47,
      "start": 73.2863,
      "duration": 0.1877,
      "velocity": 122,
      "chip": "ym2612"
    },
    {
      "channel": 5,
      "note": 23,
      "start": 73.2869,
      "duration": 0.1527,
      "velocity": 107,
      "chip": "ym2612"
    },
    {
      "channel": 2,
      "note": 47,
      "start": 73.4895,
      "duration": 0.1543,
      "velocity": 112,
      "chip": "ym2612"
    },
    {
      "channel": 3,
      "note": 42,
      "start": 73.4919,
      "duration": 0.1531,
      "velocity": 112,
      "chip": "ym2612"
    },
    {
      "channel": 4,
      "note": 47,
      "start": 73.4924,
      "duration": 0.1871,
      "velocity": 122,
      "chip": "ym2612"
    },
    {
      "channel": 5,
      "note": 23,
      "start": 73.493,
      "duration": 0.1526,
      "velocity": 107,
      "chip": "ym2612"
    },
    {
      "channel": 0,
      "note": 49,
      "start": 73.6947,
      "duration": 0.1713,
      "velocity": 105,
      "chip": "ym2612"
    },
    {
      "channel": 0,
      "note": 50,
      "start": 73.9005,
      "duration": 0.1714,
      "velocity": 105,
      "chip": "ym2612"
    },
    {
      "channel": 1,
      "note": 49,
      "start": 73.9012,
      "duration": 0.1711,
      "velocity": 105,
      "chip": "ym2612"
    },
    {
      "channel": 0,
      "note": 52,
      "start": 74.1065,
      "duration": 0.7888,
      "velocity": 105,
      "chip": "ym2612"
    },
    {
      "channel": 1,
      "note": 50,
      "start": 74.107,
      "duration": 0.1711,
      "velocity": 105,
      "chip": "ym2612"
    },
    {
      "channel": 1,
      "note": 52,
      "start": 74.3126,
      "duration": 0.7889,
      "velocity": 105,
      "chip": "ym2612"
    },
    {
      "channel": 2,
      "note": 35,
      "start": 74.3133,
      "duration": 0.1536,
      "velocity": 112,
      "chip": "ym2612"
    },
    {
      "channel": 2,
      "note": 40,
      "start": 74.5185,
      "duration": 0.1543,
      "velocity": 112,
      "chip": "ym2612"
    },
    {
      "channel": 2,
      "note": 47,
      "start": 74.7245,
      "duration": 0.1541,
      "velocity": 112,
      "chip": "ym2612"
    },
    {
      "channel": 0,
      "note": 57,
      "start": 74.9299,
      "duration": 0.583,
      "velocity": 105,
      "chip": "ym2612"
    },
    {
      "channel": 2,
      "note": 52,
      "start": 74.9308,
      "duration": 0.1536,
      "velocity": 112,
      "chip": "ym2612"
    },
    {
      "channel": 1,
      "note": 57,
      "start": 75.1359,
      "duration": 0.5831,
      "velocity": 105,
      "chip": "ym2612"
    },
    {
      "channel": 2,
      "note": 47,
      "start": 75.1365,
      "duration": 0.1538,
      "velocity": 112,
      "chip": "ym2612"
    },
    {
      "channel": 3,
      "note": 40,
      "start": 75.1384,
      "duration": 0.1534,
      "velocity": 112,
      "chip": "ym2612"
    },
    {
      "channel": 2,
      "note": 52,
      "start": 75.3421,
      "duration": 0.1541,
      "velocity": 112,
      "chip": "ym2612"
    },
    {
      "channel": 3,
      "note": 47,
      "start": 75.3439,
      "duration": 0.1539,
      "velocity": 112,
      "chip": "ym2612"
    },
    {
      "channel": 0,
      "note": 55,
      "start": 75.5474,
      "duration": 0.1713,
      "velocity": 105,
      "chip": "ym2612"
    },
    {
      "channel": 2,
      "note": 55,
      "start": 75.5483,
      "duration": 0.1538,
      "velocity": 112,
      "chip": "ym2612"
    },
    {
      "channel": 3,
      "note": 52,
      "start": 75.5501,
      "duration": 0.1535,
      "velocity": 112,
      "chip": "ym2612"
    },
    {
      "channel": 0,
      "note": 54,
      "start": 75.7533,
      "duration": 3.259,
      "velocity": 105,
      "chip": "ym2612"
    },
    {
      "channel": 1,
      "note": 55,
      "start": 75.7539,
      "duration": 0.171,
      "velocity": 105,
      "chip": "ym2612"
    },
    {
      "channel": 2,
      "note": 59,
      "start": 75.7546,
      "duration": 0.0846,
      "velocity": 112,
      "chip": "ym2612"
    },
    {
      "channel": 3,
      "note": 50,
      "start": 75.7568,
      "duration": 0.084,
      "velocity": 112,
      "chip": "ym2612"
    },
    {
      "channel": 4,
      "note": 47,
      "start": 75.7591,
      "duration": 3.2385,
      "velocity": 112,
      "chip": "ym2612"
    },
    {
      "channel": 5,
      "note": 35,
      "start": 75.7598,
      "duration": 0.9736,
      "velocity": 107,
      "chip": "ym2612"
    },
    {
      "channel": 2,
      "note": 54,
      "start": 75.8911,
      "duration": 0.0854,
      "velocity": 112,
      "chip": "ym2612"
    },
    {
      "channel": 3,
      "note": 47,
      "start": 75.8929,
      "duration": 0.0852,
      "velocity": 112,
      "chip": "ym2612"
    },
    {
      "channel": 1,
      "note": 54,
      "start": 75.9594,
      "duration": 3.2591,
      "velocity": 105,
      "chip": "ym2612"
    },
    {
      "channel": 2,
      "note": 59,
      "start": 76.0282,
      "duration": 0.0856,
      "velocity": 112,
      "chip": "ym2612"
    },
    {
      "channel": 3,
      "note": 50,
      "start": 76.0301,
      "duration": 0.0853,
      "velocity": 112,
      "chip": "ym2612"
    },
    {
      "channel": 2,
      "note": 61,
      "start": 76.1654,
      "duration": 0.0856,
      "velocity": 112,
      "chip": "ym2612"
    },
    {
      "channel": 3,
      "note": 52,
      "start": 76.1673,
      "duration": 0.0853,
      "velocity": 112,
      "chip": "ym2612"
    },
    {
      "channel": 2,
      "note": 54,
      "start": 76.3027,
      "duration": 0.0855,
      "velocity": 112,
      "chip": "ym2612"
    },
    {
      "channel": 3,
      "note": 47,
      "start": 76.3046,
      "duration": 0.0852,
      "velocity": 112,
      "chip": "ym2612"
    },
    {
      "channel": 2,
      "note": 61,
      "start": 76.44,
      "duration": 0.0854,
      "velocity": 112,
      "chip": "ym2612"
    },
    {
      "channel": 3,
      "note": 52,
      "start": 76.4419,
      "duration": 0.0852,
      "velocity": 112,
      "chip": "ym2612"
    },
    {
      "channel": 2,
      "note": 62,
      "start": 76.5771,
      "duration": 0.0856,
      "velocity": 112,
      "chip": "ym2612"
    },
    {
      "channel": 3,
      "note": 54,
      "start": 76.5789,
      "duration": 0.0854,
      "velocity": 112,
      "chip": "ym2612"
    },
    {
      "channel": 2,
      "note": 54,
      "start": 76.7145,
      "duration": 0.0856,
      "velocity": 112,
      "chip": "ym2612"
    },
    {
      "channel": 3,
      "note": 47,
      "start": 76.7163,
      "duration": 0.0854,
      "velocity": 112,
      "chip": "ym2612"
    },
    {
      "channel": 5,
      "note": 23,
      "start": 76.7851,
      "duration": 0.1546,
      "velocity": 107,
      "chip": "ym2612"
    },
    {
      "channel": 2,
      "note": 62,
      "start": 76.852,
      "duration": 0.0856,
      "velocity": 112,
      "chip": "ym2612"
    },
    {
      "channel": 3,
      "note": 54,
      "start": 76.8539,
      "duration": 0.0853,
      "velocity": 112,
      "chip": "ym2612"
    },
    {
      "channel": 2,
      "note": 59,
      "start": 76.9891,
      "duration": 0.0858,
      "velocity": 112,
      "chip": "ym2612"
    },
    {
      "channel": 3,
      "note": 50,
      "start": 76.991,
      "duration": 0.0854,
      "velocity": 112,
      "chip": "ym2612"
    },
    {
      "channel": 5,
      "note": 25,
      "start": 76.9918,
      "duration": 0.1535,
      "velocity": 107,
      "chip": "ym2612"
    },
    {
      "channel": 2,
      "note": 54,
      "start": 77.1266,
      "duration": 0.0853,
      "velocity": 112,
      "chip": "ym2612"
    },
    {
      "channel": 3,
      "note": 47,
      "start": 77.1283,
      "duration": 0.0851,
      "velocity": 112,
      "chip": "ym2612"
    },
    {
      "channel": 5,
      "note": 26,
      "start": 77.1969,
      "duration": 0.1543,
      "velocity": 107,
      "chip": "ym2612"
    },
    {
      "channel": 2,
      "note": 59,
      "start": 77.2637,
      "duration": 0.0854,
      "velocity": 112,
      "chip": "ym2612"
    },
    {
      "channel": 3,
      "note": 50,
      "start": 77.2656,
      "duration": 0.0851,
      "velocity": 112,
      "chip": "ym2612"
    },
    {
      "channel": 2,
      "note": 64,
      "start": 77.4009,
      "duration": 0.3599,
      "velocity": 112,
      "chip": "ym2612"
    },
    {
      "channel": 3,
      "note": 56,
      "start": 77.4027,
      "duration": 0.3597,
      "velocity": 112,
      "chip": "ym2612"
    },
    {
      "channel": 5,
      "note": 28,
      "start": 77.4035,
      "duration": 0.3594,
      "velocity": 107,
      "chip": "ym2612"
    },
    {
      "channel": 2,
      "note": 62,
      "start": 77.8125,
      "duration": 0.0857,
      "velocity": 112,
      "chip": "ym2612"
    },
    {
      "channel": 3,
      "note": 54,
      "start": 77.8143,
      "duration": 0.0854,
      "velocity": 112,
      "chip": "ym2612"
    },
    {
      "channel": 5,
      "note": 28,
      "start": 77.8151,
      "duration": 0.0852,
      "velocity": 107,
      "chip": "ym2612"
    },
    {
      "channel": 2,
      "note": 64,
      "start": 77.9497,
      "duration": 0.0856,
      "velocity": 112,
      "chip": "ym2612"
    },
    {
      "channel": 3,
      "note": 56,
      "start": 77.9516,
      "duration": 0.0853,
      "velocity": 112,
      "chip": "ym2612"
    },
    {
      "channel": 5,
      "note": 28,
      "start": 77.9523,
      "duration": 0.0851,
      "velocity": 107,
      "chip": "ym2612"
    },
    {
      "channel": 2,
      "note": 62,
      "start": 78.0871,
      "duration": 0.0857,
      "velocity": 112,
      "chip": "ym2612"
    },
    {
      "channel": 3,
      "note": 54,
      "start": 78.0889,
      "duration": 0.0854,
      "velocity": 112,
      "chip": "ym2612"
    },
    {
      "channel": 5,
      "note": 28,
      "start": 78.0897,
      "duration": 0.0851,
      "velocity": 107,
      "chip": "ym2612"
    },
    {
      "channel": 2,
      "note": 61,
      "start": 78.2245,
      "duration": 0.3598,
      "velocity": 112,
      "chip": "ym2612"
    },
    {
      "channel": 3,
      "note": 52,
      "start": 78.2274,
      "duration": 0.3581,
      "velocity": 112,
      "chip": "ym2612"
    },
    {
      "channel": 5,
      "note": 30,
      "start": 78.2282,
      "duration": 0.1519,
      "velocity": 107,
      "chip": "ym2612"
    },
    {
      "channel": 5,
      "note": 30,
      "start": 78.4318,
      "duration": 0.1541,
      "velocity": 107,
      "chip": "ym2612"
    },
    {
      "channel": 2,
      "note": 58,
      "start": 78.6361,
      "duration": 0.3601,
      "velocity": 112,
      "chip": "ym2612"
    },
    {
      "channel": 3,
      "note": 49,
      "start": 78.6383,
      "duration": 0.359,
      "velocity": 112,
      "chip": "ym2612"
    },
    {
      "channel": 5,
      "note": 30,
      "start": 78.6392,
      "duration": 0.1527,
      "velocity": 107,
      "chip": "ym2612"
    },
    {
      "channel": 5,
      "note": 30,
      "start": 78.8433,
      "duration": 0.1546,
      "velocity": 107,
      "chip": "ym2612"
    },
    {
      "channel": 0,
      "note": 59,
      "start": 79.047,
      "duration": 0.3772,
      "velocity": 105,
      "chip": "ym2612"
    },
    {
      "channel": 2,
      "note": 62,
      "start": 79.0481,
      "duration": 1.5431,
      "velocity": 112,
      "chip": "ym2612"
    },
    {
      "channel": 3,
      "note": 59,
      "start": 79.0507,
      "duration": 1.5417,
      "velocity": 112,
      "chip": "ym2612"
    },
    {
      "channel": 5,
      "note": 35,
      "start": 79.0518,
      "duration": 1.1807,
      "velocity": 107,
      "chip": "ym2612"
    },
    {
      "channel": 1,
      "note": 59,
      "start": 79.2532,
      "duration": 0.377,
      "velocity": 105,
      "chip": "ym2612"
    },
    {
      "channel": 0,
      "note": 58,
      "start": 79.4587,
      "duration": 0.3772,
      "velocity": 105,
      "chip": "ym2612"
    },
    {
      "channel": 1,
      "note": 58,
      "start": 79.6647,
      "duration": 0.3771,
      "velocity": 105,
      "chip": "ym2612"
    },
    {
      "channel": 0,
      "note": 54,
      "start": 79.8703,
      "duration": 0.3771,
      "velocity": 105,
      "chip": "ym2612"
    },
    {
      "channel": 1,
      "note": 54,
      "start": 80.0764,
      "duration": 0.3771,
      "velocity": 105,
      "chip": "ym2612"
    },
    {
      "channel": 4,
      "note": 47,
      "start": 80.0792,
      "duration": 0.153,
      "velocity": 112,
      "chip": "ym2612"
    },
    {
      "channel": 0,
      "note": 57,
      "start": 80.282,
      "duration": 0.3772,
      "velocity": 105,
      "chip": "ym2612"
    },
    {
      "channel": 4,
      "note": 49,
      "start": 80.2846,
      "duration": 0.1535,
      "velocity": 112,
      "chip": "ym2612"
    },
    {
      "channel": 5,
      "note": 38,
      "start": 80.2851,
      "duration": 0.3589,
      "velocity": 107,
      "chip": "ym2612"
    },
    {
      "channel": 1,
      "note": 57,
      "start": 80.4881,
      "duration": 0.3772,
      "velocity": 105,
      "chip": "ym2612"
    },
    {
      "channel": 4,
      "note": 50,
      "start": 80.4901,
      "duration": 0.1537,
      "velocity": 112,
      "chip": "ym2612"
    },
    {
      "channel": 0,
      "note": 56,
      "start": 80.6939,
      "duration": 0.377,
      "velocity": 105,
      "chip": "ym2612"
    },
    {
      "channel": 2,
      "note": 64,
      "start": 80.6947,
      "duration": 0.7197,
      "velocity": 112,
      "chip": "ym2612"
    },
    {
      "channel": 3,
      "note": 59,
      "start": 80.6964,
      "duration": 0.7195,
      "velocity": 112,
      "chip": "ym2612"
    },
    {
      "channel": 4,
      "note": 52,
      "start": 80.697,
      "duration": 0.0844,
      "velocity": 112,
      "chip": "ym2612"
    },
    {
      "channel": 5,
      "note": 40,
      "start": 80.6976,
      "duration": 0.3588,
      "velocity": 107,
      "chip": "ym2612"
    },
    {
      "channel": 4,
      "note": 59,
      "start": 80.8331,
      "duration": 0.0855,
      "velocity": 112,
      "chip": "ym2612"
    },
    {
      "channel": 1,
      "note": 56,
      "start": 80.8999,
      "duration": 0.3772,
      "velocity": 105,
      "chip": "ym2612"
    },
    {
      "channel": 4,
      "note": 64,
      "start": 80.9702,
      "duration": 0.0859,
      "velocity": 112,
      "chip": "ym2612"
    },
    {
      "channel": 0,
      "note": 52,
      "start": 81.1054,
      "duration": 0.3771,
      "velocity": 105,
      "chip": "ym2612"
    },
    {
      "channel": 4,
      "note": 71,
      "start": 81.1081,
      "duration": 1.1827,
      "velocity": 112,
      "chip": "ym2612"
    },
    {
      "channel": 5,
      "note": 28,
      "start": 81.1088,
      "duration": 0.3592,
      "velocity": 107,
      "chip": "ym2612"
    },
    {
      "channel": 1,
      "note": 52,
      "start": 81.3116,
      "duration": 0.3772,
      "velocity": 105,
      "chip": "ym2612"
    },
    {
      "channel": 0,
      "note": 56,
      "start": 81.9289,
      "duration": 0.3772,
      "velocity": 105,
      "chip": "ym2612"
    },
    {
      "channel": 2,
      "note": 64,
      "start": 81.9298,
      "duration": 0.3079,
      "velocity": 112,
      "chip": "ym2612"
    },
    {
      "channel": 3,
      "note": 59,
      "start": 81.9318,
      "duration": 0.3072,
      "velocity": 112,
      "chip": "ym2612"
    },
    {
      "channel": 5,
      "note": 28,
      "start": 81.9325,
      "duration": 0.1526,
      "velocity": 107,
      "chip": "ym2612"
    },
    {
      "channel": 1,
      "note": 56,
      "start": 82.135,
      "duration": 0.3771,
      "velocity": 105,
      "chip": "ym2612"
    },
    {
      "channel": 5,
      "note": 30,
      "start": 82.1371,
      "duration": 0.1539,
      "velocity": 107,
      "chip": "ym2612"
    },
    {
      "channel": 0,
      "note": 55,
      "start": 82.3406,
      "duration": 0.7888,
      "velocity": 105,
      "chip": "ym2612"
    },
    {
      "channel": 2,
      "note": 64,
      "start": 82.3414,
      "duration": 1.5433,
      "velocity": 112,
      "chip": "ym2612"
    },
    {
      "channel": 3,
      "note": 59,
      "start": 82.3437,
      "duration": 1.5422,
      "velocity": 112,
      "chip": "ym2612"
    },
    {
      "channel": 5,
      "note": 31,
      "start": 82.3448,
      "duration": 1.1814,
      "velocity": 107,
      "chip": "ym2612"
    },
    {
      "channel": 1,
      "note": 55,
      "start": 82.5467,
      "duration": 0.7889,
      "velocity": 105,
      "chip": "ym2612"
    },
    {
      "channel": 0,
      "note": 57,
      "start": 83.164,
      "duration": 0.3772,
      "velocity": 105,
      "chip": "ym2612"
    },
    {
      "channel": 1,
      "note": 57,
      "start": 83.37,
      "duration": 0.3771,
      "velocity": 105,
      "chip": "ym2612"
    },
    {
      "channel": 4,
      "note": 52,
      "start": 83.3727,
      "duration": 0.1532,
      "velocity": 112,
      "chip": "ym2612"
    },
    {
      "channel": 0,
      "note": 55,
      "start": 83.5758,
      "duration": 0.377,
      "velocity": 105,
      "chip": "ym2612"
    },
    {
      "channel": 4,
      "note": 54,
      "start": 83.5783,
      "duration": 0.1533,
      "velocity": 112,
      "chip": "ym2612"
    },
    {
      "channel": 5,
      "note": 33,
      "start": 83.5789,
      "duration": 0.359,
      "velocity": 107,
      "chip": "ym2612"
    },
    {
      "channel": 1,
      "note": 55,
      "start": 83.7817,
      "duration": 0.3773,
      "velocity": 105,
      "chip": "ym2612"
    },
    {
      "channel": 4,
      "note": 55,
      "start": 83.7837,
      "duration": 0.1539,
      "velocity": 112,
      "chip": "ym2612"
    },
    {
      "channel": 0,
      "note": 54,
      "start": 83.9874,
      "duration": 0.7889,
      "velocity": 105,
      "chip": "ym2612"
    },
    {
      "channel": 2,
      "note": 62,
      "start": 83.9883,
      "duration": 0.7199,
      "velocity": 112,
      "chip": "ym2612"
    },
    {
      "channel": 3,
      "note": 59,
      "start": 83.99,
      "duration": 0.7196,
      "velocity": 112,
      "chip": "ym2612"
    },
    {
      "channel": 4,
      "note": 54,
      "start": 83.9906,
      "duration": 0.0845,
      "velocity": 112,
      "chip": "ym2612"
    },
    {
      "channel": 5,
      "note": 35,
      "start": 83.9913,
      "duration": 0.3586,
      "velocity": 107,
      "chip": "ym2612"
    },
    {
      "channel": 4,
      "note": 59,
      "start": 84.1268,
      "duration": 0.0854,
      "velocity": 112,
      "chip": "ym2612"
    },
    {
      "channel": 1,
      "note": 54,
      "start": 84.1935,
      "duration": 0.7889,
      "velocity": 105,
      "chip": "ym2612"
    },
    {
      "channel": 4,
      "note": 62,
      "start": 84.2639,
      "duration": 0.0857,
      "velocity": 112,
      "chip": "ym2612"
    },
    {
      "channel": 4,
      "note": 66,
      "start": 84.4012,
      "duration": 1.1831,
      "velocity": 112,
      "chip": "ym2612"
    },
    {
      "channel": 5,
      "note": 23,
      "start": 84.4018,
      "duration": 0.3597,
      "velocity": 107,
      "chip": "ym2612"
    },
    {
      "channel": 0,
      "note": 50,
      "start": 84.811,
      "duration": 0.7888,
      "velocity": 105,
      "chip": "ym2612"
    },
    {
      "channel": 2,
      "note": 59,
      "start": 84.8119,
      "duration": 0.7196,
      "velocity": 112,
      "chip": "ym2612"
    },
    {
      "channel": 3,
      "note": 54,
      "start": 84.8145,
      "duration": 0.7182,
      "velocity": 112,
      "chip": "ym2612"
    },
    {
      "channel": 1,
      "note": 50,
      "start": 85.0169,
      "duration": 0.7888,
      "velocity": 105,
      "chip": "ym2612"
    },
    {
      "channel": 0,
      "note": 48,
      "start": 85.6341,
      "duration": 1.6124,
      "velocity": 105,
      "chip": "ym2612"
    },
    {
      "channel": 2,
      "note": 55,
      "start": 85.6351,
      "duration": 1.5436,
      "velocity": 112,
      "chip": "ym2612"
    },
    {
      "channel": 3,
      "note": 52,
      "start": 85.6374,
      "duration": 1.5425,
      "velocity": 112,
      "chip": "ym2612"
    },
    {
      "channel": 5,
      "note": 24,
      "start": 85.6386,
      "duration": 1.5932,
      "velocity": 107,
      "chip": "ym2612"
    },
    {
      "channel": 1,
      "note": 48,
      "start": 85.8403,
      "duration": 1.6123,
      "velocity": 105,
      "chip": "ym2612"
    },
    {
      "channel": 4,
      "note": 60,
      "start": 86.6662,
      "duration": 0.1536,
      "velocity": 112,
      "chip": "ym2612"
    },
    {
      "channel": 4,
      "note": 64,
      "start": 86.8723,
      "duration": 0.1534,
      "velocity": 112,
      "chip": "ym2612"
    },
    {
      "channel": 4,
      "note": 67,
      "start": 87.0782,
      "duration": 0.1534,
      "velocity": 112,
      "chip": "ym2612"
    },
    {
      "channel": 0,
      "note": 47,
      "start": 87.2812,
      "duration": 0.7888,
      "velocity": 105,
      "chip": "ym2612"
    },
    {
      "channel": 2,
      "note": 54,
      "start": 87.2822,
      "duration": 1.5429,
      "velocity": 112,
      "chip": "ym2612"
    },
    {
      "channel": 3,
      "note": 52,
      "start": 87.2844,
      "duration": 1.5419,
      "velocity": 112,
      "chip": "ym2612"
    },
    {
      "channel": 4,
      "note": 71,
      "start": 87.2853,
      "duration": 0.7693,
      "velocity": 112,
      "chip": "ym2612"
    },
    {
      "channel": 5,
      "note": 30,
      "start": 87.2859,
      "duration": 0.769,
      "velocity": 107,
      "chip": "ym2612"
    },
    {
      "channel": 1,
      "note": 47,
      "start": 87.4871,
      "duration": 0.789,
      "velocity": 105,
      "chip": "ym2612"
    },
    {
      "channel": 0,
      "note": 46,
      "start": 88.1048,
      "duration": 0.7885,
      "velocity": 105,
      "chip": "ym2612"
    },
    {
      "channel": 4,
      "note": 70,
      "start": 88.1079,
      "duration": 0.7702,
      "velocity": 112,
      "chip": "ym2612"
    },
    {
      "channel": 5,
      "note": 30,
      "start": 88.1084,
      "duration": 0.7699,
      "velocity": 107,
      "chip": "ym2612"
    },
    {
      "channel": 1,
      "note": 46,
      "start": 88.3107,
      "duration": 0.5829,
      "velocity": 105,
      "chip": "ym2612"
    },
    {
      "channel": 0,
      "note": 47,
      "start": 88.9284,
      "duration": 0.1023,
      "velocity": 105,
      "chip": "ym2612"
    },
    {
      "channel": 2,
      "note": 54,
      "start": 88.9312,
      "duration": 1.5408,
      "velocity": 112,
      "chip": "ym2612"
    },
    {
      "channel": 3,
      "note": 50,
      "start": 88.934,
      "duration": 0.3041,
      "velocity": 112,
      "chip": "ym2612"
    },
    {
      "channel": 4,
      "note": 71,
      "start": 88.9349,
      "duration": 0.6127,
      "velocity": 112,
      "chip": "ym2612"
    },
    {
      "channel": 5,
      "note": 23,
      "start": 88.9355,
      "duration": 0.7666,
      "velocity": 107,
      "chip": "ym2612"
    },
    {
      "channel": 0,
      "note": 47,
      "start": 89.0654,
      "duration": 0.1025,
      "velocity": 105,
      "chip": "ym2612"
    },
    {
      "channel": 1,
      "note": 23,
      "start": 89.1342,
      "duration": 0.7887,
      "velocity": 107,
      "chip": "ym2612"
    },
    {
      "channel": 0,
      "note": 47,
      "start": 89.2027,
      "duration": 0.1024,
      "velocity": 105,
      "chip": "ym2612"
    },
    {
      "channel": 0,
      "note": 47,
      "start": 89.34,
      "duration": 0.1022,
      "velocity": 105,
      "chip": "ym2612"
    },
    {
      "channel": 0,
      "note": 47,
      "start": 89.4769,
      "duration": 0.1027,
      "velocity": 105,
      "chip": "ym2612"
    },
    {
      "channel": 0,
      "note": 47,
      "start": 89.614,
      "duration": 0.1029,
      "velocity": 105,
      "chip": "ym2612"
    },
    {
      "channel": 0,
      "note": 47,
      "start": 89.7515,
      "duration": 0.1025,
      "velocity": 105,
      "chip": "ym2612"
    },
    {
      "channel": 3,
      "note": 42,
      "start": 89.7547,
      "duration": 1.1648,
      "velocity": 112,
      "chip": "ym2612"
    },
    {
      "channel": 4,
      "note": 71,
      "start": 89.7553,
      "duration": 0.2043,
      "velocity": 112,
      "chip": "ym2612"
    },
    {
      "channel": 5,
      "note": 26,
      "start": 89.7559,
      "duration": 0.7697,
      "velocity": 107,
      "chip": "ym2612"
    },
    {
      "channel": 0,
      "note": 47,
      "start": 89.8888,
      "duration": 0.1024,
      "velocity": 105,
      "chip": "ym2612"
    },
    {
      "channel": 1,
      "note": 26,
      "start": 89.9574,
      "duration": 0.7889,
      "velocity": 107,
      "chip": "ym2612"
    },
    {
      "channel": 0,
      "note": 47,
      "start": 90.0259,
      "duration": 0.1025,
      "velocity": 105,
      "chip": "ym2612"
    },
    {
      "channel": 0,
      "note": 47,
      "start": 90.1634,
      "duration": 0.1022,
      "velocity": 105,
      "chip": "ym2612"
    },
    {
      "channel": 0,
      "note": 47,
      "start": 90.3003,
      "duration": 0.1027,
      "velocity": 105,
      "chip": "ym2612"
    },
    {
      "channel": 0,
      "note": 47,
      "start": 90.4374,
      "duration": 0.1028,
      "velocity": 105,
      "chip": "ym2612"
    },
    {
      "channel": 0,
      "note": 47,
      "start": 90.5749,
      "duration": 0.1025,
      "velocity": 105,
      "chip": "ym2612"
    },
    {
      "channel": 5,
      "note": 25,
      "start": 90.5782,
      "duration": 0.7707,
      "velocity": 107,
      "chip": "ym2612"
    },
    {
      "channel": 0,
      "note": 47,
      "start": 90.7122,
      "duration": 0.1023,
      "velocity": 105,
      "chip": "ym2612"
    },
    {
      "channel": 1,
      "note": 25,
      "start": 90.7807,
      "duration": 0.789,
      "velocity": 107,
      "chip": "ym2612"
    },
    {
      "channel": 0,
      "note": 47,
      "start": 90.8493,
      "duration": 0.1025,
      "velocity": 105,
      "chip": "ym2612"
    },
    {
      "channel": 0,
      "note": 47,
      "start": 90.9869,
      "duration": 0.1022,
      "velocity": 105,
      "chip": "ym2612"
    },
    {
      "channel": 3,
      "note": 40,
      "start": 90.9895,
      "duration": 0.1362,
      "velocity": 112,
      "chip": "ym2612"
    },
    {
      "channel": 0,
      "note": 47,
      "start": 91.1237,
      "duration": 0.1027,
      "velocity": 105,
      "chip": "ym2612"
    },
    {
      "channel": 3,
      "note": 42,
      "start": 91.1942,
      "duration": 0.137,
      "velocity": 112,
      "chip": "ym2612"
    },
    {
      "channel": 0,
      "note": 47,
      "start": 91.2609,
      "duration": 0.1027,
      "velocity": 105,
      "chip": "ym2612"
    },
    {
      "channel": 0,
      "note": 47,
      "start": 91.3983,
      "duration": 0.1712,
      "velocity": 105,
      "chip": "ym2612"
    },
    {
      "channel": 3,
      "note": 43,
      "start": 91.4011,
      "duration": 0.1358,
      "velocity": 112,
      "chip": "ym2612"
    },
    {
      "channel": 4,
      "note": 69,
      "start": 91.4018,
      "duration": 0.6164,
      "velocity": 112,
      "chip": "ym2612"
    },
    {
      "channel": 5,
      "note": 24,
      "start": 91.4024,
      "duration": 0.7698,
      "velocity": 107,
      "chip": "ym2612"
    },
    {
      "channel": 0,
      "note": 47,
      "start": 91.6041,
      "duration": 0.1712,
      "velocity": 105,
      "chip": "ym2612"
    },
    {
      "channel": 1,
      "note": 24,
      "start": 91.6046,
      "duration": 0.7883,
      "velocity": 107,
      "chip": "ym2612"
    },
    {
      "channel": 3,
      "note": 45,
      "start": 91.6066,
      "duration": 0.136,
      "velocity": 112,
      "chip": "ym2612"
    },
    {
      "channel": 0,
      "note": 47,
      "start": 91.8098,
      "duration": 0.2742,
      "velocity": 105,
      "chip": "ym2612"
    },
    {
      "channel": 3,
      "note": 42,
      "start": 91.8117,
      "duration": 0.1366,
      "velocity": 112,
      "chip": "ym2612"
    },
    {
      "channel": 3,
      "note": 40,
      "start": 92.0178,
      "duration": 0.1365,
      "velocity": 112,
      "chip": "ym2612"
    },
    {
      "channel": 0,
      "note": 47,
      "start": 92.1185,
      "duration": 0.0684,
      "velocity": 105,
      "chip": "ym2612"
    },
    {
      "channel": 0,
      "note": 47,
      "start": 92.2217,
      "duration": 0.1026,
      "velocity": 105,
      "chip": "ym2612"
    },
    {
      "channel": 2,
      "note": 35,
      "start": 92.223,
      "duration": 0.7536,
      "velocity": 112,
      "chip": "ym2612"
    },
    {
      "channel": 3,
      "note": 42,
      "start": 92.2254,
      "duration": 0.7527,
      "velocity": 112,
      "chip": "ym2612"
    },
    {
      "channel": 4,
      "note": 71,
      "start": 92.2261,
      "duration": 0.615,
      "velocity": 112,
      "chip": "ym2612"
    },
    {
      "channel": 5,
      "note": 23,
      "start": 92.2267,
      "duration": 0.7695,
      "velocity": 107,
      "chip": "ym2612"
    },
    {
      "channel": 0,
      "note": 47,
      "start": 92.359,
      "duration": 0.1024,
      "velocity": 105,
      "chip": "ym2612"
    },
    {
      "channel": 1,
      "note": 23,
      "start": 92.4276,
      "duration": 0.7888,
      "velocity": 107,
      "chip": "ym2612"
    },
    {
      "channel": 0,
      "note": 47,
      "start": 92.4962,
      "duration": 0.1024,
      "velocity": 105,
      "chip": "ym2612"
    },
    {
      "channel": 0,
      "note": 47,
      "start": 92.6336,
      "duration": 0.1024,
      "velocity": 105,
      "chip": "ym2612"
    },
    {
      "channel": 0,
      "note": 47,
      "start": 92.7705,
      "duration": 0.1027,
      "velocity": 105,
      "chip": "ym2612"
    },
    {
      "channel": 0,
      "note": 47,
      "start": 92.9077,
      "duration": 0.1028,
      "velocity": 105,
      "chip": "ym2612"
    },
    {
      "channel": 0,
      "note": 47,
      "start": 93.0451,
      "duration": 0.1025,
      "velocity": 105,
      "chip": "ym2612"
    },
    {
      "channel": 2,
      "note": 42,
      "start": 93.046,
      "duration": 1.1658,
      "velocity": 112,
      "chip": "ym2612"
    },
    {
      "channel": 3,
      "note": 47,
      "start": 93.0483,
      "duration": 1.1651,
      "velocity": 112,
      "chip": "ym2612"
    },
    {
      "channel": 4,
      "note": 71,
      "start": 93.049,
      "duration": 0.2045,
      "velocity": 112,
      "chip": "ym2612"
    },
    {
      "channel": 5,
      "note": 26,
      "start": 93.0495,
      "duration": 0.7699,
      "velocity": 107,
      "chip": "ym2612"
    },
    {
      "channel": 0,
      "note": 47,
      "start": 93.1825,
      "duration": 0.1024,
      "velocity": 105,
      "chip": "ym2612"
    },
    {
      "channel": 1,
      "note": 26,
      "start": 93.2512,
      "duration": 0.7887,
      "velocity": 107,
      "chip": "ym2612"
    },
    {
      "channel": 0,
      "note": 47,
      "start": 93.3196,
      "duration": 0.1025,
      "velocity": 105,
      "chip": "ym2612"
    },
    {
      "channel": 0,
      "note": 47,
      "start": 93.457,
      "duration": 0.1024,
      "velocity": 105,
      "chip": "ym2612"
    },
    {
      "channel": 0,
      "note": 47,
      "start": 93.5939,
      "duration": 0.1027,
      "velocity": 105,
      "chip": "ym2612"
    },
    {
      "channel": 0,
      "note": 47,
      "start": 93.7312,
      "duration": 0.1027,
      "velocity": 105,
      "chip": "ym2612"
    },
    {
      "channel": 0,
      "note": 47,
      "start": 93.8684,
      "duration": 0.1027,
      "velocity": 105,
      "chip": "ym2612"
    },
    {
      "channel": 5,
      "note": 25,
      "start": 93.8719,
      "duration": 0.7707,
      "velocity": 107,
      "chip": "ym2612"
    },
    {
      "channel": 0,
      "note": 47,
      "start": 94.0059,
      "duration": 0.1024,
      "velocity": 105,
      "chip": "ym2612"
    },
    {
      "channel": 1,
      "note": 25,
      "start": 94.0743,
      "duration": 0.7889,
      "velocity": 107,
      "chip": "ym2612"
    },
    {
      "channel": 0,
      "note": 47,
      "start": 94.143,
      "duration": 0.1024,
      "velocity": 105,
      "chip": "ym2612"
    },
    {
      "channel": 0,
      "note": 47,
      "start": 94.2804,
      "duration": 0.1023,
      "velocity": 105,
      "chip": "ym2612"
    },
    {
      "channel": 2,
      "note": 40,
      "start": 94.2812,
      "duration": 0.1366,
      "velocity": 112,
      "chip": "ym2612"
    },
    {
      "channel": 3,
      "note": 45,
      "start": 94.2835,
      "duration": 0.1358,
      "velocity": 112,
      "chip": "ym2612"
    },
    {
      "channel": 0,
      "note": 47,
      "start": 94.4172,
      "duration": 0.1028,
      "velocity": 105,
      "chip": "ym2612"
    },
    {
      "channel": 2,
      "note": 42,
      "start": 94.4863,
      "duration": 0.1371,
      "velocity": 112,
      "chip": "ym2612"
    },
    {
      "channel": 3,
      "note": 47,
      "start": 94.4883,
      "duration": 0.1366,
      "velocity": 112,
      "chip": "ym2612"
    },
    {
      "channel": 0,
      "note": 47,
      "start": 94.5546,
      "duration": 0.1029,
      "velocity": 105,
      "chip": "ym2612"
    },
    {
      "channel": 0,
      "note": 47,
      "start": 94.6919,
      "duration": 0.1711,
      "velocity": 105,
      "chip": "ym2612"
    },
    {
      "channel": 2,
      "note": 43,
      "start": 94.6928,
      "duration": 0.1364,
      "velocity": 112,
      "chip": "ym2612"
    },
    {
      "channel": 3,
      "note": 48,
      "start": 94.6952,
      "duration": 0.1352,
      "velocity": 112,
      "chip": "ym2612"
    },
    {
      "channel": 4,
      "note": 74,
      "start": 94.6959,
      "duration": 0.6163,
      "velocity": 112,
      "chip": "ym2612"
    },
    {
      "channel": 5,
      "note": 24,
      "start": 94.6964,
      "duration": 0.7695,
      "velocity": 107,
      "chip": "ym2612"
    },
    {
      "channel": 0,
      "note": 47,
      "start": 94.8977,
      "duration": 0.1712,
      "velocity": 105,
      "chip": "ym2612"
    },
    {
      "channel": 1,
      "note": 24,
      "start": 94.8983,
      "duration": 0.7884,
      "velocity": 107,
      "chip": "ym2612"
    },
    {
      "channel": 2,
      "note": 45,
      "start": 94.8989,
      "duration": 0.1361,
      "velocity": 112,
      "chip": "ym2612"
    },
    {
      "channel": 3,
      "note": 50,
      "start": 94.9005,
      "duration": 0.1356,
      "velocity": 112,
      "chip": "ym2612"
    },
    {
      "channel": 0,
      "note": 47,
      "start": 95.1035,
      "duration": 0.2741,
      "velocity": 105,
      "chip": "ym2612"
    },
    {
      "channel": 2,
      "note": 42,
      "start": 95.1043,
      "duration": 0.1366,
      "velocity": 112,
      "chip": "ym2612"
    },
    {
      "channel": 3,
      "note": 47,
      "start": 95.1058,
      "duration": 0.1363,
      "velocity": 112,
      "chip": "ym2612"
    },
    {
      "channel": 2,
      "note": 40,
      "start": 95.3097,
      "duration": 0.137,
      "velocity": 112,
      "chip": "ym2612"
    },
    {
      "channel": 3,
      "note": 45,
      "start": 95.3118,
      "duration": 0.1363,
      "velocity": 112,
      "chip": "ym2612"
    },
    {
      "channel": 0,
      "note": 47,
      "start": 95.4121,
      "duration": 0.0684,
      "velocity": 105,
      "chip": "ym2612"
    },
    {
      "channel": 0,
      "note": 47,
      "start": 95.5155,
      "duration": 0.1025,
      "velocity": 105,
      "chip": "ym2612"
    },
    {
      "channel": 2,
      "note": 42,
      "start": 95.5163,
      "duration": 0.7537,
      "velocity": 112,
      "chip": "ym2612"
    },
    {
      "channel": 3,
      "note": 47,
      "start": 95.5188,
      "duration": 0.7529,
      "velocity": 112,
      "chip": "ym2612"
    },
    {
      "channel": 4,
      "note": 71,
      "start": 95.5194,
      "duration": 0.6153,
      "velocity": 112,
      "chip": "ym2612"
    },
    {
      "channel": 5,
      "note": 23,
      "start": 95.5203,
      "duration": 0.7696,
      "velocity": 107,
      "chip": "ym2612"
    },
    {
      "channel": 0,
      "note": 47,
      "start": 95.6525,
      "duration": 0.1025,
      "velocity": 105,
      "chip": "ym2612"
    },
    {
      "channel": 1,
      "note": 23,
      "start": 95.7216,
      "duration": 0.7885,
      "velocity": 107,
      "chip": "ym2612"
    },
    {
      "channel": 0,
      "note": 47,
      "start": 95.79,
      "duration": 0.1022,
      "velocity": 105,
      "chip": "ym2612"
    },
    {
      "channel": 0,
      "note": 47,
      "start": 95.9274,
      "duration": 0.1022,
      "velocity": 105,
      "chip": "ym2612"
    },
    {
      "channel": 0,
      "note": 47,
      "start": 96.0642,
      "duration": 0.1026,
      "velocity": 105,
      "chip": "ym2612"
    },
    {
      "channel": 0,
      "note": 47,
      "start": 96.2012,
      "duration": 0.1029,
      "velocity": 105,
      "chip": "ym2612"
    },
    {
      "channel": 0,
      "note": 47,
      "start": 96.3387,
      "duration": 0.1026,
      "velocity": 105,
      "chip": "ym2612"
    },
    {
      "channel": 2,
      "note": 47,
      "start": 96.3396,
      "duration": 1.1657,
      "velocity": 112,
      "chip": "ym2612"
    },
    {
      "channel": 3,
      "note": 54,
      "start": 96.342,
      "duration": 1.1651,
      "velocity": 112,
      "chip": "ym2612"
    },
    {
      "channel": 4,
      "note": 71,
      "start": 96.3426,
      "duration": 0.2043,
      "velocity": 112,
      "chip": "ym2612"
    },
    {
      "channel": 5,
      "note": 26,
      "start": 96.3432,
      "duration": 0.7699,
      "velocity": 107,
      "chip": "ym2612"
    },
    {
      "channel": 0,
      "note": 47,
      "start": 96.4761,
      "duration": 0.1024,
      "velocity": 105,
      "chip": "ym2612"
    },
    {
      "channel": 1,
      "note": 26,
      "start": 96.5447,
      "duration": 0.7888,
      "velocity": 107,
      "chip": "ym2612"
    },
    {
      "channel": 0,
      "note": 47,
      "start": 96.6132,
      "duration": 0.1026,
      "velocity": 105,
      "chip": "ym2612"
    },
    {
      "channel": 0,
      "note": 47,
      "start": 96.7507,
      "duration": 0.1023,
      "velocity": 105,
      "chip": "ym2612"
    },
    {
      "channel": 0,
      "note": 47,
      "start": 96.8876,
      "duration": 0.1027,
      "velocity": 105,
      "chip": "ym2612"
    },
    {
      "channel": 0,
      "note": 47,
      "start": 97.0248,
      "duration": 0.1027,
      "velocity": 105,
      "chip": "ym2612"
    },
    {
      "channel": 0,
      "note": 47,
      "start": 97.1622,
      "duration": 0.1025,
      "velocity": 105,
      "chip": "ym2612"
    },
    {
      "channel": 5,
      "note": 25,
      "start": 97.1656,
      "duration": 0.7705,
      "velocity": 107,
      "chip": "ym2612"
    },
    {
      "channel": 0,
      "note": 47,
      "start": 97.2995,
      "duration": 0.1025,
      "velocity": 105,
      "chip": "ym2612"
    },
    {
      "channel": 1,
      "note": 25,
      "start": 97.368,
      "duration": 0.789,
      "velocity": 107,
      "chip": "ym2612"
    },
    {
      "channel": 0,
      "note": 47,
      "start": 97.4367,
      "duration": 0.1023,
      "velocity": 105,
      "chip": "ym2612"
    },
    {
      "channel": 0,
      "note": 47,
      "start": 97.574,
      "duration": 0.1024,
      "velocity": 105,
      "chip": "ym2612"
    },
    {
      "channel": 2,
      "note": 45,
      "start": 97.575,
      "duration": 0.1366,
      "velocity": 112,
      "chip": "ym2612"
    },
    {
      "channel": 3,
      "note": 52,
      "start": 97.5771,
      "duration": 0.1359,
      "velocity": 112,
      "chip": "ym2612"
    },
    {
      "channel": 0,
      "note": 47,
      "start": 97.711,
      "duration": 0.1026,
      "velocity": 105,
      "chip": "ym2612"
    },
    {
      "channel": 2,
      "note": 47,
      "start": 97.7801,
      "duration": 0.1369,
      "velocity": 112,
      "chip": "ym2612"
    },
    {
      "channel": 3,
      "note": 54,
      "start": 97.782,
      "duration": 0.1364,
      "velocity": 112,
      "chip": "ym2612"
    },
    {
      "channel": 0,
      "note": 47,
      "start": 97.8481,
      "duration": 0.1028,
      "velocity": 105,
      "chip": "ym2612"
    },
    {
      "channel": 0,
      "note": 47,
      "start": 97.9855,
      "duration": 0.1712,
      "velocity": 105,
      "chip": "ym2612"
    },
    {
      "channel": 2,
      "note": 48,
      "start": 97.9864,
      "duration": 0.1364,
      "velocity": 112,
      "chip": "ym2612"
    },
    {
      "channel": 3,
      "note": 55,
      "start": 97.9888,
      "duration": 0.1353,
      "velocity": 112,
      "chip": "ym2612"
    },
    {
      "channel": 4,
      "note": 69,
      "start": 97.9895,
      "duration": 0.6163,
      "velocity": 112,
      "chip": "ym2612"
    },
    {
      "channel": 5,
      "note": 24,
      "start": 97.9901,
      "duration": 0.7696,
      "velocity": 107,
      "chip": "ym2612"
    },
    {
      "channel": 0,
      "note": 47,
      "start": 98.1912,
      "duration": 0.1714,
      "velocity": 105,
      "chip": "ym2612"
    },
    {
      "channel": 1,
      "note": 24,
      "start": 98.1918,
      "duration": 0.5828,
      "velocity": 107,
      "chip": "ym2612"
    },
    {
      "channel": 2,
      "note": 50,
      "start": 98.1925,
      "duration": 0.1363,
      "velocity": 112,
      "chip": "ym2612"
    },
    {
      "channel": 3,
      "note": 57,
      "start": 98.1941,
      "duration": 0.1358,
      "velocity": 112,
      "chip": "ym2612"
    },
    {
      "channel": 0,
      "note": 47,
      "start": 98.3971,
      "duration": 0.2742,
      "velocity": 105,
      "chip": "ym2612"
    },
    {
      "channel": 2,
      "note": 47,
      "start": 98.3979,
      "duration": 0.1366,
      "velocity": 112,
      "chip": "ym2612"
    },
    {
      "channel": 3,
      "note": 54,
      "start": 98.3994,
      "duration": 0.1362,
      "velocity": 112,
      "chip": "ym2612"
    },
    {
      "channel": 2,
      "note": 45,
      "start": 98.6035,
      "duration": 0.137,
      "velocity": 112,
      "chip": "ym2612"
    },
    {
      "channel": 3,
      "note": 52,
      "start": 98.6054,
      "duration": 0.1365,
      "velocity": 112,
      "chip": "ym2612"
    },
    {
      "channel": 0,
      "note": 47,
      "start": 98.7059,
      "duration": 0.0684,
      "velocity": 105,
      "chip": "ym2612"
    },
    {
      "channel": 0,
      "note": 47,
      "start": 98.8091,
      "duration": 0.1023,
      "velocity": 105,
      "chip": "ym2612"
    },
    {
      "channel": 1,
      "note": 30,
      "start": 98.8116,
      "duration": 0.1688,
      "velocity": 112,
      "chip": "ym2612"
    },
    {
      "channel": 2,
      "note": 47,
      "start": 98.8126,
      "duration": 0.0993,
      "velocity": 112,
      "chip": "ym2612"
    },
    {
      "channel": 3,
      "note": 54,
      "start": 98.8158,
      "duration": 0.0973,
      "velocity": 112,
      "chip": "ym2612"
    },
    {
      "channel": 4,
      "note": 71,
      "start": 98.8167,
      "duration": 0.0966,
      "velocity": 112,
      "chip": "ym2612"
    },
    {
      "channel": 5,
      "note": 23,
      "start": 98.8177,
      "duration": 0.3359,
      "velocity": 107,
      "chip": "ym2612"
    },
    {
      "channel": 0,
      "note": 47,
      "start": 98.9463,
      "duration": 0.1024,
      "velocity": 105,
      "chip": "ym2612"
    },
    {
      "channel": 2,
      "note": 47,
      "start": 98.9475,
      "duration": 0.1017,
      "velocity": 112,
      "chip": "ym2612"
    },
    {
      "channel": 3,
      "note": 54,
      "start": 98.9495,
      "duration": 0.1011,
      "velocity": 112,
      "chip": "ym2612"
    },
    {
      "channel": 4,
      "note": 71,
      "start": 98.9504,
      "duration": 0.1004,
      "velocity": 112,
      "chip": "ym2612"
    },
    {
      "channel": 0,
      "note": 47,
      "start": 99.0834,
      "duration": 0.1025,
      "velocity": 105,
      "chip": "ym2612"
    },
    {
      "channel": 2,
      "note": 47,
      "start": 99.0846,
      "duration": 0.1018,
      "velocity": 112,
      "chip": "ym2612"
    },
    {
      "channel": 3,
      "note": 54,
      "start": 99.0868,
      "duration": 0.1008,
      "velocity": 112,
      "chip": "ym2612"
    },
    {
      "channel": 4,
      "note": 71,
      "start": 99.0877,
      "duration": 0.1001,
      "velocity": 112,
      "chip": "ym2612"
    },
    {
      "channel": 0,
      "note": 47,
      "start": 99.221,
      "duration": 0.1023,
      "velocity": 105,
      "chip": "ym2612"
    },
    {
      "channel": 2,
      "note": 47,
      "start": 99.2224,
      "duration": 0.1014,
      "velocity": 112,
      "chip": "ym2612"
    },
    {
      "channel": 3,
      "note": 54,
      "start": 99.2246,
      "duration": 0.1003,
      "velocity": 112,
      "chip": "ym2612"
    },
    {
      "channel": 4,
      "note": 71,
      "start": 99.2258,
      "duration": 0.0994,
      "velocity": 112,
      "chip": "ym2612"
    },
    {
      "channel": 0,
      "note": 47,
      "start": 99.3577,
      "duration": 0.1027,
      "velocity": 105,
      "chip": "ym2612"
    },
    {
      "channel": 2,
      "note": 47,
      "start": 99.3586,
      "duration": 0.1023,
      "velocity": 112,
      "chip": "ym2612"
    },
    {
      "channel": 3,
      "note": 54,
      "start": 99.3602,
      "duration": 0.1022,
      "velocity": 112,
      "chip": "ym2612"
    },
    {
      "channel": 4,
      "note": 71,
      "start": 99.3608,
      "duration": 0.1018,
      "velocity": 112,
      "chip": "ym2612"
    },
    {
      "channel": 0,
      "note": 47,
      "start": 99.4949,
      "duration": 0.1028,
      "velocity": 105,
      "chip": "ym2612"
    },
    {
      "channel": 2,
      "note": 47,
      "start": 99.4958,
      "duration": 0.1024,
      "velocity": 112,
      "chip": "ym2612"
    },
    {
      "channel": 3,
      "note": 54,
      "start": 99.4976,
      "duration": 0.102,
      "velocity": 112,
      "chip": "ym2612"
    },
    {
      "channel": 4,
      "note": 71,
      "start": 99.4982,
      "duration": 0.1017,
      "velocity": 112,
      "chip": "ym2612"
    },
    {
      "channel": 0,
      "note": 47,
      "start": 99.6323,
      "duration": 0.1026,
      "velocity": 105,
      "chip": "ym2612"
    },
    {
      "channel": 1,
      "note": 30,
      "start": 99.6329,
      "duration": 0.1707,
      "velocity": 112,
      "chip": "ym2612"
    },
    {
      "channel": 2,
      "note": 47,
      "start": 99.6336,
      "duration": 0.1018,
      "velocity": 112,
      "chip": "ym2612"
    },
    {
      "channel": 3,
      "note": 54,
      "start": 99.6362,
      "duration": 0.1004,
      "velocity": 112,
      "chip": "ym2612"
    },
    {
      "channel": 4,
      "note": 71,
      "start": 99.6369,
      "duration": 0.0999,
      "velocity": 112,
      "chip": "ym2612"
    },
    {
      "channel": 5,
      "note": 23,
      "start": 99.6375,
      "duration": 0.3396,
      "velocity": 107,
      "chip": "ym2612"
    },
    {
      "channel": 0,
      "note": 47,
      "start": 99.7697,
      "duration": 0.1024,
      "velocity": 105,
      "chip": "ym2612"
    },
    {
      "channel": 2,
      "note": 47,
      "start": 99.7708,
      "duration": 0.1018,
      "velocity": 112,
      "chip": "ym2612"
    },
    {
      "channel": 3,
      "note": 54,
      "start": 99.7729,
      "duration": 0.1013,
      "velocity": 112,
      "chip": "ym2612"
    },
    {
      "channel": 4,
      "note": 71,
      "start": 99.7738,
      "duration": 0.1006,
      "velocity": 112,
      "chip": "ym2612"
    },
    {
      "channel": 0,
      "note": 47,
      "start": 99.9069,
      "duration": 0.1025,
      "velocity": 105,
      "chip": "ym2612"
    },
    {
      "channel": 2,
      "note": 47,
      "start": 99.908,
      "duration": 0.1019,
      "velocity": 112,
      "chip": "ym2612"
    },
    {
      "channel": 3,
      "note": 54,
      "start": 99.9102,
      "duration": 0.1008,
      "velocity": 112,
      "chip": "ym2612"
    },
    {
      "channel": 4,
      "note": 71,
      "start": 99.9111,
      "duration": 0.1002,
      "velocity": 112,
      "chip": "ym2612"
    },
    {
      "channel": 0,
      "note": 47,
      "start": 100.0442,
      "duration": 0.1025,
      "velocity": 105,
      "chip": "ym2612"
    },
    {
      "channel": 2,
      "note": 47,
      "start": 100.0456,
      "duration": 0.1015,
      "velocity": 112,
      "chip": "ym2612"
    },
    {
      "channel": 3,
      "note": 54,
      "start": 100.0479,
      "duration": 0.1005,
      "velocity": 112,
      "chip": "ym2612"
    },
    {
      "channel": 4,
      "note": 71,
      "start": 100.049,
      "duration": 0.0996,
      "velocity": 112,
      "chip": "ym2612"
    },
    {
      "channel": 0,
      "note": 47,
      "start": 100.1811,
      "duration": 0.103,
      "velocity": 105,
      "chip": "ym2612"
    },
    {
      "channel": 2,
      "note": 47,
      "start": 100.1819,
      "duration": 0.1026,
      "velocity": 112,
      "chip": "ym2612"
    },
    {
      "channel": 3,
      "note": 54,
      "start": 100.1835,
      "duration": 0.1024,
      "velocity": 112,
      "chip": "ym2612"
    },
    {
      "channel": 4,
      "note": 71,
      "start": 100.1841,
      "duration": 0.1021,
      "velocity": 112,
      "chip": "ym2612"
    },
    {
      "channel": 0,
      "note": 47,
      "start": 100.3184,
      "duration": 0.1025,
      "velocity": 105,
      "chip": "ym2612"
    },
    {
      "channel": 2,
      "note": 47,
      "start": 100.3193,
      "duration": 0.1022,
      "velocity": 112,
      "chip": "ym2612"
    },
    {
      "channel": 3,
      "note": 54,
      "start": 100.3211,
      "duration": 0.1018,
      "velocity": 112,
      "chip": "ym2612"
    },
    {
      "channel": 4,
      "note": 71,
      "start": 100.3217,
      "duration": 0.1015,
      "velocity": 112,
      "chip": "ym2612"
    },
    {
      "channel": 0,
      "note": 47,
      "start": 100.4558,
      "duration": 0.1025,
      "velocity": 105,
      "chip": "ym2612"
    },
    {
      "channel": 2,
      "note": 47,
      "start": 100.4568,
      "duration": 0.1021,
      "velocity": 112,
      "chip": "ym2612"
    },
    {
      "channel": 3,
      "note": 54,
      "start": 100.459,
      "duration": 0.1013,
      "velocity": 112,
      "chip": "ym2612"
    },
    {
      "channel": 4,
      "note": 71,
      "start": 100.4597,
      "duration": 0.1009,
      "velocity": 112,
      "chip": "ym2612"
    },
    {
      "channel": 0,
      "note": 47,
      "start": 100.5931,
      "duration": 0.1024,
      "velocity": 105,
      "chip": "ym2612"
    },
    {
      "channel": 2,
      "note": 47,
      "start": 100.5944,
      "duration": 0.1018,
      "velocity": 112,
      "chip": "ym2612"
    },
    {
      "channel": 3,
      "note": 54,
      "start": 100.5967,
      "duration": 0.101,
      "velocity": 112,
      "chip": "ym2612"
    },
    {
      "channel": 4,
      "note": 71,
      "start": 100.5976,
      "duration": 0.1004,
      "velocity": 112,
      "chip": "ym2612"
    },
    {
      "channel": 0,
      "note": 47,
      "start": 100.7304,
      "duration": 0.1024,
      "velocity": 105,
      "chip": "ym2612"
    },
    {
      "channel": 2,
      "note": 47,
      "start": 100.7317,
      "duration": 0.1018,
      "velocity": 112,
      "chip": "ym2612"
    },
    {
      "channel": 3,
      "note": 54,
      "start": 100.7339,
      "duration": 0.1011,
      "velocity": 112,
      "chip": "ym2612"
    },
    {
      "channel": 4,
      "note": 71,
      "start": 100.7348,
      "duration": 0.1005,
      "velocity": 112,
      "chip": "ym2612"
    },
    {
      "channel": 0,
      "note": 47,
      "start": 100.8678,
      "duration": 0.1022,
      "velocity": 105,
      "chip": "ym2612"
    },
    {
      "channel": 2,
      "note": 47,
      "start": 100.8693,
      "duration": 0.1014,
      "velocity": 112,
      "chip": "ym2612"
    },
    {
      "channel": 3,
      "note": 54,
      "start": 100.872,
      "duration": 0.1002,
      "velocity": 112,
      "chip": "ym2612"
    },
    {
      "channel": 4,
      "note": 71,
      "start": 100.8732,
      "duration": 0.0993,
      "velocity": 112,
      "chip": "ym2612"
    },
    {
      "channel": 0,
      "note": 47,
      "start": 101.0046,
      "duration": 0.1027,
      "velocity": 105,
      "chip": "ym2612"
    },
    {
      "channel": 2,
      "note": 47,
      "start": 101.0056,
      "duration": 0.1023,
      "velocity": 112,
      "chip": "ym2612"
    },
    {
      "channel": 3,
      "note": 54,
      "start": 101.0076,
      "duration": 0.1019,
      "velocity": 112,
      "chip": "ym2612"
    },
    {
      "channel": 4,
      "note": 71,
      "start": 101.0082,
      "duration": 0.1015,
      "velocity": 112,
      "chip": "ym2612"
    },
    {
      "channel": 0,
      "note": 47,
      "start": 101.1418,
      "duration": 0.1027,
      "velocity": 105,
      "chip": "ym2612"
    },
    {
      "channel": 2,
      "note": 47,
      "start": 101.1428,
      "duration": 0.1024,
      "velocity": 112,
      "chip": "ym2612"
    },
    {
      "channel": 3,
      "note": 54,
      "start": 101.1447,
      "duration": 0.102,
      "velocity": 112,
      "chip": "ym2612"
    },
    {
      "channel": 4,
      "note": 71,
      "start": 101.1453,
      "duration": 0.1017,
      "velocity": 112,
      "chip": "ym2612"
    },
    {
      "channel": 0,
      "note": 47,
      "start": 101.2792,
      "duration": 0.1711,
      "velocity": 105,
      "chip": "ym2612"
    },
    {
      "channel": 2,
      "note": 47,
      "start": 101.2803,
      "duration": 0.1707,
      "velocity": 112,
      "chip": "ym2612"
    },
    {
      "channel": 3,
      "note": 54,
      "start": 101.2825,
      "duration": 0.17,
      "velocity": 112,
      "chip": "ym2612"
    },
    {
      "channel": 4,
      "note": 71,
      "start": 101.2832,
      "duration": 0.1696,
      "velocity": 112,
      "chip": "ym2612"
    },
    {
      "channel": 0,
      "note": 47,
      "start": 101.4848,
      "duration": 0.1714,
      "velocity": 105,
      "chip": "ym2612"
    },
    {
      "channel": 2,
      "note": 47,
      "start": 101.4859,
      "duration": 0.1711,
      "velocity": 112,
      "chip": "ym2612"
    },
    {
      "channel": 3,
      "note": 54,
      "start": 101.4878,
      "duration": 0.1707,
      "velocity": 112,
      "chip": "ym2612"
    },
    {
      "channel": 4,
      "note": 71,
      "start": 101.4884,
      "duration": 0.1703,
      "velocity": 112,
      "chip": "ym2612"
    },
    {
      "channel": 0,
      "note": 45,
      "start": 101.6911,
      "duration": 0.274,
      "velocity": 105,
      "chip": "ym2612"
    },
    {
      "channel": 1,
      "note": 28,
      "start": 101.6916,
      "duration": 0.2737,
      "velocity": 112,
      "chip": "ym2612"
    },
    {
      "channel": 2,
      "note": 45,
      "start": 101.6923,
      "duration": 0.2733,
      "velocity": 112,
      "chip": "ym2612"
    },
    {
      "channel": 3,
      "note": 55,
      "start": 101.6948,
      "duration": 0.2721,
      "velocity": 112,
      "chip": "ym2612"
    },
    {
      "channel": 4,
      "note": 72,
      "start": 101.6955,
      "duration": 0.2717,
      "velocity": 112,
      "chip": "ym2612"
    },
    {
      "channel": 5,
      "note": 21,
      "start": 101.6963,
      "duration": 0.2366,
      "velocity": 107,
      "chip": "ym2612"
    },
    {
      "channel": 0,
      "note": 45,
      "start": 101.9995,
      "duration": 0.0685,
      "velocity": 105,
      "chip": "ym2612"
    },
    {
      "channel": 1,
      "note": 28,
      "start": 102.0001,
      "duration": 0.0682,
      "velocity": 112,
      "chip": "ym2612"
    },
    {
      "channel": 2,
      "note": 45,
      "start": 102.0007,
      "duration": 0.0678,
      "velocity": 112,
      "chip": "ym2612"
    },
    {
      "channel": 3,
      "note": 55,
      "start": 102.0032,
      "duration": 0.0666,
      "velocity": 112,
      "chip": "ym2612"
    },
    {
      "channel": 4,
      "note": 72,
      "start": 102.0038,
      "duration": 0.0662,
      "velocity": 112,
      "chip": "ym2612"
    },
    {
      "channel": 5,
      "note": 21,
      "start": 102.0044,
      "duration": 0.0313,
      "velocity": 107,
      "chip": "ym2612"
    },
    {
      "channel": 0,
      "note": 47,
      "start": 102.1027,
      "duration": 0.1023,
      "velocity": 105,
      "chip": "ym2612"
    },
    {
      "channel": 1,
      "note": 30,
      "start": 102.1034,
      "duration": 0.1706,
      "velocity": 112,
      "chip": "ym2612"
    },
    {
      "channel": 2,
      "note": 47,
      "start": 102.1043,
      "duration": 0.1013,
      "velocity": 112,
      "chip": "ym2612"
    },
    {
      "channel": 3,
      "note": 54,
      "start": 102.107,
      "duration": 0.0999,
      "velocity": 112,
      "chip": "ym2612"
    },
    {
      "channel": 4,
      "note": 71,
      "start": 102.1078,
      "duration": 0.0993,
      "velocity": 112,
      "chip": "ym2612"
    },
    {
      "channel": 5,
      "note": 23,
      "start": 102.1087,
      "duration": 0.3385,
      "velocity": 107,
      "chip": "ym2612"
    },
    {
      "channel": 0,
      "note": 47,
      "start": 102.2399,
      "duration": 0.1025,
      "velocity": 105,
      "chip": "ym2612"
    },
    {
      "channel": 2,
      "note": 47,
      "start": 102.241,
      "duration": 0.1019,
      "velocity": 112,
      "chip": "ym2612"
    },
    {
      "channel": 3,
      "note": 54,
      "start": 102.2428,
      "duration": 0.1015,
      "velocity": 112,
      "chip": "ym2612"
    },
    {
      "channel": 4,
      "note": 71,
      "start": 102.2437,
      "duration": 0.1008,
      "velocity": 112,
      "chip": "ym2612"
    },
    {
      "channel": 0,
      "note": 47,
      "start": 102.3771,
      "duration": 0.1025,
      "velocity": 105,
      "chip": "ym2612"
    },
    {
      "channel": 2,
      "note": 47,
      "start": 102.3783,
      "duration": 0.1019,
      "velocity": 112,
      "chip": "ym2612"
    },
    {
      "channel": 3,
      "note": 54,
      "start": 102.3802,
      "duration": 0.1011,
      "velocity": 112,
      "chip": "ym2612"
    },
    {
      "channel": 4,
      "note": 71,
      "start": 102.3811,
      "duration": 0.1005,
      "velocity": 112,
      "chip": "ym2612"
    },
    {
      "channel": 0,
      "note": 47,
      "start": 102.5146,
      "duration": 0.1023,
      "velocity": 105,
      "chip": "ym2612"
    },
    {
      "channel": 2,
      "note": 47,
      "start": 102.516,
      "duration": 0.1013,
      "velocity": 112,
      "chip": "ym2612"
    },
    {
      "channel": 3,
      "note": 54,
      "start": 102.5182,
      "duration": 0.1002,
      "velocity": 112,
      "chip": "ym2612"
    },
    {
      "channel": 4,
      "note": 71,
      "start": 102.5194,
      "duration": 0.0994,
      "velocity": 112,
      "chip": "ym2612"
    },
    {
      "channel": 0,
      "note": 47,
      "start": 102.6515,
      "duration": 0.1025,
      "velocity": 105,
      "chip": "ym2612"
    },
    {
      "channel": 2,
      "note": 47,
      "start": 102.6523,
      "duration": 0.1022,
      "velocity": 112,
      "chip": "ym2612"
    },
    {
      "channel": 3,
      "note": 54,
      "start": 102.6539,
      "duration": 0.102,
      "velocity": 112,
      "chip": "ym2612"
    },
    {
      "channel": 4,
      "note": 71,
      "start": 102.6546,
      "duration": 0.1016,
      "velocity": 112,
      "chip": "ym2612"
    },
    {
      "channel": 0,
      "note": 47,
      "start": 102.7887,
      "duration": 0.1027,
      "velocity": 105,
      "chip": "ym2612"
    },
    {
      "channel": 2,
      "note": 47,
      "start": 102.7895,
      "duration": 0.1024,
      "velocity": 112,
      "chip": "ym2612"
    },
    {
      "channel": 3,
      "note": 54,
      "start": 102.7914,
      "duration": 0.1019,
      "velocity": 112,
      "chip": "ym2612"
    },
    {
      "channel": 4,
      "note": 71,
      "start": 102.792,
      "duration": 0.1015,
      "velocity": 112,
      "chip": "ym2612"
    },
    {
      "channel": 0,
      "note": 47,
      "start": 102.9261,
      "duration": 0.1025,
      "velocity": 105,
      "chip": "ym2612"
    },
    {
      "channel": 1,
      "note": 30,
      "start": 102.9267,
      "duration": 0.1706,
      "velocity": 112,
      "chip": "ym2612"
    },
    {
      "channel": 2,
      "note": 47,
      "start": 102.9274,
      "duration": 0.1017,
      "velocity": 112,
      "chip": "ym2612"
    },
    {
      "channel": 3,
      "note": 54,
      "start": 102.9299,
      "duration": 0.1003,
      "velocity": 112,
      "chip": "ym2612"
    },
    {
      "channel": 4,
      "note": 71,
      "start": 102.9307,
      "duration": 0.0998,
      "velocity": 112,
      "chip": "ym2612"
    },
    {
      "channel": 5,
      "note": 23,
      "start": 102.9313,
      "duration": 0.3395,
      "velocity": 107,
      "chip": "ym2612"
    },
    {
      "channel": 0,
      "note": 47,
      "start": 103.0633,
      "duration": 0.1026,
      "velocity": 105,
      "chip": "ym2612"
    },
    {
      "channel": 2,
      "note": 47,
      "start": 103.0644,
      "duration": 0.102,
      "velocity": 112,
      "chip": "ym2612"
    },
    {
      "channel": 3,
      "note": 54,
      "start": 103.0665,
      "duration": 0.1013,
      "velocity": 112,
      "chip": "ym2612"
    },
    {
      "channel": 4,
      "note": 71,
      "start": 103.0673,
      "duration": 0.1007,
      "velocity": 112,
      "chip": "ym2612"
    },
    {
      "channel": 0,
      "note": 47,
      "start": 103.2005,
      "duration": 0.1024,
      "velocity": 105,
      "chip": "ym2612"
    },
    {
      "channel": 2,
      "note": 47,
      "start": 103.2016,
      "duration": 0.1018,
      "velocity": 112,
      "chip": "ym2612"
    },
    {
      "channel": 3,
      "note": 54,
      "start": 103.2039,
      "duration": 0.1008,
      "velocity": 112,
      "chip": "ym2612"
    },
    {
      "channel": 4,
      "note": 71,
      "start": 103.2047,
      "duration": 0.1002,
      "velocity": 112,
      "chip": "ym2612"
    },
    {
      "channel": 0,
      "note": 47,
      "start": 103.338,
      "duration": 0.1023,
      "velocity": 105,
      "chip": "ym2612"
    },
    {
      "channel": 2,
      "note": 47,
      "start": 103.3393,
      "duration": 0.1014,
      "velocity": 112,
      "chip": "ym2612"
    },
    {
      "channel": 3,
      "note": 54,
      "start": 103.3416,
      "duration": 0.1002,
      "velocity": 112,
      "chip": "ym2612"
    },
    {
      "channel": 4,
      "note": 71,
      "start": 103.3427,
      "duration": 0.0994,
      "velocity": 112,
      "chip": "ym2612"
    },
    {
      "channel": 0,
      "note": 47,
      "start": 103.4748,
      "duration": 0.1028,
      "velocity": 105,
      "chip": "ym2612"
    },
    {
      "channel": 2,
      "note": 47,
      "start": 103.4757,
      "duration": 0.1024,
      "velocity": 112,
      "chip": "ym2612"
    },
    {
      "channel": 3,
      "note": 54,
      "start": 103.4773,
      "duration": 0.1022,
      "velocity": 112,
      "chip": "ym2612"
    },
    {
      "channel": 4,
      "note": 71,
      "start": 103.4779,
      "duration": 0.1018,
      "velocity": 112,
      "chip": "ym2612"
    },
    {
      "channel": 0,
      "note": 47,
      "start": 103.6121,
      "duration": 0.1027,
      "velocity": 105,
      "chip": "ym2612"
    },
    {
      "channel": 2,
      "note": 47,
      "start": 103.6129,
      "duration": 0.1024,
      "velocity": 112,
      "chip": "ym2612"
    },
    {
      "channel": 3,
      "note": 54,
      "start": 103.6147,
      "duration": 0.102,
      "velocity": 112,
      "chip": "ym2612"
    },
    {
      "channel": 4,
      "note": 71,
      "start": 103.6154,
      "duration": 0.1016,
      "velocity": 112,
      "chip": "ym2612"
    },
    {
      "channel": 0,
      "note": 47,
      "start": 103.7495,
      "duration": 0.1024,
      "velocity": 105,
      "chip": "ym2612"
    },
    {
      "channel": 2,
      "note": 47,
      "start": 103.7505,
      "duration": 0.1022,
      "velocity": 112,
      "chip": "ym2612"
    },
    {
      "channel": 3,
      "note": 54,
      "start": 103.7527,
      "duration": 0.1013,
      "velocity": 112,
      "chip": "ym2612"
    },
    {
      "channel": 4,
      "note": 71,
      "start": 103.7534,
      "duration": 0.1009,
      "velocity": 112,
      "chip": "ym2612"
    },
    {
      "channel": 0,
      "note": 47,
      "start": 103.8867,
      "duration": 0.1024,
      "velocity": 105,
      "chip": "ym2612"
    },
    {
      "channel": 2,
      "note": 47,
      "start": 103.888,
      "duration": 0.1018,
      "velocity": 112,
      "chip": "ym2612"
    },
    {
      "channel": 3,
      "note": 54,
      "start": 103.8902,
      "duration": 0.1011,
      "velocity": 112,
      "chip": "ym2612"
    },
    {
      "channel": 4,
      "note": 71,
      "start": 103.8911,
      "duration": 0.1005,
      "velocity": 112,
      "chip": "ym2612"
    },
    {
      "channel": 0,
      "note": 47,
      "start": 104.0239,
      "duration": 0.1026,
      "velocity": 105,
      "chip": "ym2612"
    },
    {
      "channel": 2,
      "note": 47,
      "start": 104.0252,
      "duration": 0.102,
      "velocity": 112,
      "chip": "ym2612"
    },
    {
      "channel": 3,
      "note": 54,
      "start": 104.0274,
      "duration": 0.1013,
      "velocity": 112,
      "chip": "ym2612"
    },
    {
      "channel": 4,
      "note": 71,
      "start": 104.0283,
      "duration": 0.1006,
      "velocity": 112,
      "chip": "ym2612"
    },
    {
      "channel": 0,
      "note": 47,
      "start": 104.1615,
      "duration": 0.1022,
      "velocity": 105,
      "chip": "ym2612"
    },
    {
      "channel": 2,
      "note": 47,
      "start": 104.163,
      "duration": 0.1013,
      "velocity": 112,
      "chip": "ym2612"
    },
    {
      "channel": 3,
      "note": 54,
      "start": 104.1658,
      "duration": 0.1001,
      "velocity": 112,
      "chip": "ym2612"
    },
    {
      "channel": 4,
      "note": 71,
      "start": 104.1669,
      "duration": 0.0993,
      "velocity": 112,
      "chip": "ym2612"
    },
    {
      "channel": 0,
      "note": 47,
      "start": 104.2982,
      "duration": 0.1028,
      "velocity": 105,
      "chip": "ym2612"
    },
    {
      "channel": 2,
      "note": 47,
      "start": 104.2991,
      "duration": 0.1025,
      "velocity": 112,
      "chip": "ym2612"
    },
    {
      "channel": 3,
      "note": 54,
      "start": 104.3011,
      "duration": 0.1021,
      "velocity": 112,
      "chip": "ym2612"
    },
    {
      "channel": 4,
      "note": 71,
      "start": 104.3017,
      "duration": 0.1017,
      "velocity": 112,
      "chip": "ym2612"
    },
    {
      "channel": 0,
      "note": 47,
      "start": 104.4354,
      "duration": 0.1029,
      "velocity": 105,
      "chip": "ym2612"
    },
    {
      "channel": 2,
      "note": 47,
      "start": 104.4364,
      "duration": 0.1025,
      "velocity": 112,
      "chip": "ym2612"
    },
    {
      "channel": 3,
      "note": 54,
      "start": 104.4383,
      "duration": 0.1022,
      "velocity": 112,
      "chip": "ym2612"
    },
    {
      "channel": 4,
      "note": 71,
      "start": 104.4388,
      "duration": 0.1018,
      "velocity": 112,
      "chip": "ym2612"
    },
    {
      "channel": 0,
      "note": 47,
      "start": 104.5727,
      "duration": 0.1712,
      "velocity": 105,
      "chip": "ym2612"
    },
    {
      "channel": 2,
      "note": 47,
      "start": 104.5738,
      "duration": 0.1708,
      "velocity": 112,
      "chip": "ym2612"
    },
    {
      "channel": 3,
      "note": 54,
      "start": 104.5761,
      "duration": 0.17,
      "velocity": 112,
      "chip": "ym2612"
    },
    {
      "channel": 4,
      "note": 71,
      "start": 104.5768,
      "duration": 0.1696,
      "velocity": 112,
      "chip": "ym2612"
    },
    {
      "channel": 0,
      "note": 47,
      "start": 104.7785,
      "duration": 0.1714,
      "velocity": 105,
      "chip": "ym2612"
    },
    {
      "channel": 2,
      "note": 47,
      "start": 104.7795,
      "duration": 0.171,
      "velocity": 112,
      "chip": "ym2612"
    },
    {
      "channel": 3,
      "note": 54,
      "start": 104.7814,
      "duration": 0.1706,
      "velocity": 112,
      "chip": "ym2612"
    },
    {
      "channel": 4,
      "note": 71,
      "start": 104.782,
      "duration": 0.1703,
      "velocity": 112,
      "chip": "ym2612"
    },
    {
      "channel": 0,
      "note": 45,
      "start": 104.9844,
      "duration": 0.2742,
      "velocity": 105,
      "chip": "ym2612"
    },
    {
      "channel": 1,
      "note": 28,
      "start": 104.9851,
      "duration": 0.2739,
      "velocity": 112,
      "chip": "ym2612"
    },
    {
      "channel": 2,
      "note": 45,
      "start": 104.9858,
      "duration": 0.2734,
      "velocity": 112,
      "chip": "ym2612"
    },
    {
      "channel": 3,
      "note": 55,
      "start": 104.9884,
      "duration": 0.2722,
      "velocity": 112,
      "chip": "ym2612"
    },
    {
      "channel": 4,
      "note": 72,
      "start": 104.989,
      "duration": 0.2718,
      "velocity": 112,
      "chip": "ym2612"
    },
    {
      "channel": 5,
      "note": 21,
      "start": 104.9899,
      "duration": 0.2365,
      "velocity": 107,
      "chip": "ym2612"
    },
    {
      "channel": 0,
      "note": 45,
      "start": 105.2931,
      "duration": 0.0685,
      "velocity": 105,
      "chip": "ym2612"
    },
    {
      "channel": 1,
      "note": 28,
      "start": 105.2937,
      "duration": 0.0682,
      "velocity": 112,
      "chip": "ym2612"
    },
    {
      "channel": 2,
      "note": 45,
      "start": 105.2944,
      "duration": 0.0678,
      "velocity": 112,
      "chip": "ym2612"
    },
    {
      "channel": 3,
      "note": 55,
      "start": 105.2968,
      "duration": 0.0665,
      "velocity": 112,
      "chip": "ym2612"
    },
    {
      "channel": 4,
      "note": 72,
      "start": 105.2974,
      "duration": 0.0661,
      "velocity": 112,
      "chip": "ym2612"
    },
    {
      "channel": 5,
      "note": 21,
      "start": 105.298,
      "duration": 0.0314,
      "velocity": 107,
      "chip": "ym2612"
    },
    {
      "channel": 0,
      "note": 47,
      "start": 105.3964,
      "duration": 0.3769,
      "velocity": 105,
      "chip": "ym2612"
    },
    {
      "channel": 1,
      "note": 47,
      "start": 105.3988,
      "duration": 0.3919,
      "velocity": 122,
      "chip": "ym2612"
    },
    {
      "channel": 2,
      "note": 47,
      "start": 105.3998,
      "duration": 0.374,
      "velocity": 112,
      "chip": "ym2612"
    },
    {
      "channel": 3,
      "note": 54,
      "start": 105.4027,
      "duration": 0.3722,
      "velocity": 112,
      "chip": "ym2612"
    },
    {
      "channel": 4,
      "note": 59,
      "start": 105.4051,
      "duration": 0.3702,
      "velocity": 105,
      "chip": "ym2612"
    },
    {
      "channel": 5,
      "note": 23,
      "start": 105.4063,
      "duration": 0.3863,
      "velocity": 107,
      "chip": "ym2612"
    },
    {
      "channel": 0,
      "note": 35,
      "start": 105.808,
      "duration": 0.1026,
      "velocity": 105,
      "chip": "ym2612"
    },
    {
      "channel": 1,
      "note": 35,
      "start": 105.8088,
      "duration": 0.119,
      "velocity": 122,
      "chip": "ym2612"
    },
    {
      "channel": 2,
      "note": 35,
      "start": 105.8097,
      "duration": 0.1014,
      "velocity": 112,
      "chip": "ym2612"
    },
    {
      "channel": 3,
      "note": 35,
      "start": 105.8126,
      "duration": 0.1,
      "velocity": 112,
      "chip": "ym2612"
    },
    {
      "channel": 4,
      "note": 47,
      "start": 105.8135,
      "duration": 0.0994,
      "velocity": 105,
      "chip": "ym2612"
    },
    {
      "channel": 5,
      "note": 23,
      "start": 105.814,
      "duration": 0.116,
      "velocity": 107,
      "chip": "ym2612"
    },
    {
      "channel": 0,
      "note": 35,
      "start": 105.9451,
      "duration": 0.1027,
      "velocity": 105,
      "chip": "ym2612"
    },
    {
      "channel": 1,
      "note": 35,
      "start": 105.9456,
      "duration": 0.1195,
      "velocity": 122,
      "chip": "ym2612"
    },
    {
      "channel": 2,
      "note": 35,
      "start": 105.9463,
      "duration": 0.102,
      "velocity": 112,
      "chip": "ym2612"
    },
    {
      "channel": 3,
      "note": 35,
      "start": 105.9487,
      "duration": 0.1008,
      "velocity": 112,
      "chip": "ym2612"
    },
    {
      "channel": 4,
      "note": 47,
      "start": 105.9493,
      "duration": 0.1005,
      "velocity": 105,
      "chip": "ym2612"
    },
    {
      "channel": 5,
      "note": 23,
      "start": 105.9499,
      "duration": 0.1173,
      "velocity": 107,
      "chip": "ym2612"
    },
    {
      "channel": 0,
      "note": 35,
      "start": 106.0824,
      "duration": 0.1027,
      "velocity": 105,
      "chip": "ym2612"
    },
    {
      "channel": 1,
      "note": 35,
      "start": 106.083,
      "duration": 0.1193,
      "velocity": 122,
      "chip": "ym2612"
    },
    {
      "channel": 2,
      "note": 35,
      "start": 106.0836,
      "duration": 0.1019,
      "velocity": 112,
      "chip": "ym2612"
    },
    {
      "channel": 3,
      "note": 35,
      "start": 106.0859,
      "duration": 0.101,
      "velocity": 112,
      "chip": "ym2612"
    },
    {
      "channel": 4,
      "note": 47,
      "start": 106.0866,
      "duration": 0.1006,
      "velocity": 105,
      "chip": "ym2612"
    },
    {
      "channel": 5,
      "note": 23,
      "start": 106.0871,
      "duration": 0.1173,
      "velocity": 107,
      "chip": "ym2612"
    },
    {
      "channel": 0,
      "note": 35,
      "start": 106.2195,
      "duration": 0.3772,
      "velocity": 105,
      "chip": "ym2612"
    },
    {
      "channel": 1,
      "note": 35,
      "start": 106.2201,
      "duration": 0.3938,
      "velocity": 122,
      "chip": "ym2612"
    },
    {
      "channel": 2,
      "note": 35,
      "start": 106.2207,
      "duration": 0.3765,
      "velocity": 112,
      "chip": "ym2612"
    },
    {
      "channel": 3,
      "note": 35,
      "start": 106.2232,
      "duration": 0.3751,
      "velocity": 112,
      "chip": "ym2612"
    },
    {
      "channel": 4,
      "note": 47,
      "start": 106.2238,
      "duration": 0.3749,
      "velocity": 105,
      "chip": "ym2612"
    },
    {
      "channel": 5,
      "note": 23,
      "start": 106.2243,
      "duration": 0.3914,
      "velocity": 107,
      "chip": "ym2612"
    }
  ]
}