{
  "track_name": "01 - Arena 1",
  "duration_sec": 114.247,
  "sample_rate": 44100,
  "note_count": 3426,
  "unique_pitches": 38,
  "pitch_range": 59,
  "avg_note_duration": 0.1241,
  "reconstruction_stats": {
    "notes_reconstructed": 3426,
    "keyon_events": 3426,
    "keyoff_events": 3426,
    "orphan_keyons": 0,
    "unique_pitches": 38,
    "pitch_range": 59,
    "avg_duration_sec": 0.1241
  },
  "metadata": {
    "source": "F\\Fighting Masters\\01 - Arena 1.vgz"
  },
  "notes": [
    {
      "channel": 1,
      "note": 51,
      "start": 0.0,
      "duration": 0.2104,
      "velocity": 97,
      "chip": "ym2612"
    },
    {
      "channel": 3,
      "note": 79,
      "start": 0.0034,
      "duration": 0.2075,
      "velocity": 104,
      "chip": "ym2612"
    },
    {
      "channel": 4,
      "note": 74,
      "start": 0.0084,
      "duration": 0.2032,
      "velocity": 104,
      "chip": "ym2612"
    },
    {
      "channel": 5,
      "note": 72,
      "start": 0.0118,
      "duration": 0.2003,
      "velocity": 104,
      "chip": "ym2612"
    },
    {
      "channel": 2,
      "note": 37,
      "start": 0.0126,
      "duration": 0.0538,
      "velocity": 120,
      "chip": "ym2612"
    },
    {
      "channel": 2,
      "note": 37,
      "start": 0.112,
      "duration": 0.0551,
      "velocity": 120,
      "chip": "ym2612"
    },
    {
      "channel": 1,
      "note": 51,
      "start": 0.2108,
      "duration": 0.1001,
      "velocity": 97,
      "chip": "ym2612"
    },
    {
      "channel": 3,
      "note": 79,
      "start": 0.2114,
      "duration": 0.1002,
      "velocity": 104,
      "chip": "ym2612"
    },
    {
      "channel": 4,
      "note": 74,
      "start": 0.212,
      "duration": 0.1001,
      "velocity": 104,
      "chip": "ym2612"
    },
    {
      "channel": 5,
      "note": 72,
      "start": 0.2126,
      "duration": 0.1002,
      "velocity": 104,
      "chip": "ym2612"
    },
    {
      "channel": 2,
      "note": 37,
      "start": 0.2134,
      "duration": 0.0544,
      "velocity": 120,
      "chip": "ym2612"
    },
    {
      "channel": 1,
      "note": 51,
      "start": 0.3114,
      "duration": 0.1002,
      "velocity": 97,
      "chip": "ym2612"
    },
    {
      "channel": 3,
      "note": 79,
      "start": 0.312,
      "duration": 0.1002,
      "velocity": 104,
      "chip": "ym2612"
    },
    {
      "channel": 4,
      "note": 74,
      "start": 0.3126,
      "duration": 0.1003,
      "velocity": 104,
      "chip": "ym2612"
    },
    {
      "channel": 5,
      "note": 72,
      "start": 0.3132,
      "duration": 0.1002,
      "velocity": 104,
      "chip": "ym2612"
    },
    {
      "channel": 2,
      "note": 37,
      "start": 0.3139,
      "duration": 0.0544,
      "velocity": 120,
      "chip": "ym2612"
    },
    {
      "channel": 1,
      "note": 51,
      "start": 0.4121,
      "duration": 0.1003,
      "velocity": 97,
      "chip": "ym2612"
    },
    {
      "channel": 3,
      "note": 79,
      "start": 0.4127,
      "duration": 0.1003,
      "velocity": 104,
      "chip": "ym2612"
    },
    {
      "channel": 4,
      "note": 74,
      "start": 0.4133,
      "duration": 0.1003,
      "velocity": 104,
      "chip": "ym2612"
    },
    {
      "channel": 5,
      "note": 72,
      "start": 0.4139,
      "duration": 0.1003,
      "velocity": 104,
      "chip": "ym2612"
    },
    {
      "channel": 2,
      "note": 82,
      "start": 0.4149,
      "duration": 0.0946,
      "velocity": 127,
      "chip": "ym2612"
    },
    {
      "channel": 1,
      "note": 51,
      "start": 0.5129,
      "duration": 0.0975,
      "velocity": 97,
      "chip": "ym2612"
    },
    {
      "channel": 3,
      "note": 79,
      "start": 0.5134,
      "duration": 0.0975,
      "velocity": 104,
      "chip": "ym2612"
    },
    {
      "channel": 4,
      "note": 74,
      "start": 0.5141,
      "duration": 0.0975,
      "velocity": 104,
      "chip": "ym2612"
    },
    {
      "channel": 5,
      "note": 72,
      "start": 0.5146,
      "duration": 0.0975,
      "velocity": 104,
      "chip": "ym2612"
    },
    {
      "channel": 2,
      "note": 37,
      "start": 0.5154,
      "duration": 0.0544,
      "velocity": 120,
      "chip": "ym2612"
    },
    {
      "channel": 1,
      "note": 51,
      "start": 0.6108,
      "duration": 0.1029,
      "velocity": 97,
      "chip": "ym2612"
    },
    {
      "channel": 3,
      "note": 79,
      "start": 0.6114,
      "duration": 0.1029,
      "velocity": 104,
      "chip": "ym2612"
    },
    {
      "channel": 4,
      "note": 74,
      "start": 0.612,
      "duration": 0.1029,
      "velocity": 104,
      "chip": "ym2612"
    },
    {
      "channel": 5,
      "note": 72,
      "start": 0.6126,
      "duration": 0.1029,
      "velocity": 104,
      "chip": "ym2612"
    },
    {
      "channel": 1,
      "note": 51,
      "start": 0.7141,
      "duration": 0.2009,
      "velocity": 97,
      "chip": "ym2612"
    },
    {
      "channel": 3,
      "note": 79,
      "start": 0.7147,
      "duration": 0.2009,
      "velocity": 104,
      "chip": "ym2612"
    },
    {
      "channel": 4,
      "note": 74,
      "start": 0.7153,
      "duration": 0.2009,
      "velocity": 104,
      "chip": "ym2612"
    },
    {
      "channel": 5,
      "note": 72,
      "start": 0.7159,
      "duration": 0.2009,
      "velocity": 104,
      "chip": "ym2612"
    },
    {
      "channel": 2,
      "note": 37,
      "start": 0.7167,
      "duration": 0.0544,
      "velocity": 120,
      "chip": "ym2612"
    },
    {
      "channel": 1,
      "note": 51,
      "start": 0.9155,
      "duration": 0.1002,
      "velocity": 97,
      "chip": "ym2612"
    },
    {
      "channel": 3,
      "note": 79,
      "start": 0.916,
      "duration": 0.1002,
      "velocity": 104,
      "chip": "ym2612"
    },
    {
      "channel": 4,
      "note": 74,
      "start": 0.9167,
      "duration": 0.1002,
      "velocity": 104,
      "chip": "ym2612"
    },
    {
      "channel": 5,
      "note": 72,
      "start": 0.9172,
      "duration": 0.1002,
      "velocity": 104,
      "chip": "ym2612"
    },
    {
      "channel": 2,
      "note": 37,
      "start": 0.918,
      "duration": 0.056,
      "velocity": 120,
      "chip": "ym2612"
    },
    {
      "channel": 1,
      "note": 51,
      "start": 1.0161,
      "duration": 0.0976,
      "velocity": 97,
      "chip": "ym2612"
    },
    {
      "channel": 3,
      "note": 79,
      "start": 1.0167,
      "duration": 0.0976,
      "velocity": 104,
      "chip": "ym2612"
    },
    {
      "channel": 4,
      "note": 74,
      "start": 1.0174,
      "duration": 0.0976,
      "velocity": 104,
      "chip": "ym2612"
    },
    {
      "channel": 5,
      "note": 72,
      "start": 1.0179,
      "duration": 0.0976,
      "velocity": 104,
      "chip": "ym2612"
    },
    {
      "channel": 2,
      "note": 37,
      "start": 1.0187,
      "duration": 0.056,
      "velocity": 120,
      "chip": "ym2612"
    },
    {
      "channel": 1,
      "note": 51,
      "start": 1.1142,
      "duration": 0.1028,
      "velocity": 97,
      "chip": "ym2612"
    },
    {
      "channel": 3,
      "note": 79,
      "start": 1.1148,
      "duration": 0.1029,
      "velocity": 104,
      "chip": "ym2612"
    },
    {
      "channel": 4,
      "note": 74,
      "start": 1.1154,
      "duration": 0.1028,
      "velocity": 104,
      "chip": "ym2612"
    },
    {
      "channel": 5,
      "note": 72,
      "start": 1.116,
      "duration": 0.1029,
      "velocity": 104,
      "chip": "ym2612"
    },
    {
      "channel": 1,
      "note": 51,
      "start": 1.2174,
      "duration": 0.0976,
      "velocity": 97,
      "chip": "ym2612"
    },
    {
      "channel": 3,
      "note": 79,
      "start": 1.2181,
      "duration": 0.0976,
      "velocity": 104,
      "chip": "ym2612"
    },
    {
      "channel": 4,
      "note": 74,
      "start": 1.2186,
      "duration": 0.0976,
      "velocity": 104,
      "chip": "ym2612"
    },
    {
      "channel": 5,
      "note": 72,
      "start": 1.2193,
      "duration": 0.0976,
      "velocity": 104,
      "chip": "ym2612"
    },
    {
      "channel": 2,
      "note": 82,
      "start": 1.2203,
      "duration": 0.1055,
      "velocity": 127,
      "chip": "ym2612"
    },
    {
      "channel": 1,
      "note": 51,
      "start": 1.3155,
      "duration": 0.1029,
      "velocity": 97,
      "chip": "ym2612"
    },
    {
      "channel": 3,
      "note": 79,
      "start": 1.3161,
      "duration": 0.1028,
      "velocity": 104,
      "chip": "ym2612"
    },
    {
      "channel": 4,
      "note": 74,
      "start": 1.3167,
      "duration": 0.1029,
      "velocity": 104,
      "chip": "ym2612"
    },
    {
      "channel": 5,
      "note": 72,
      "start": 1.3173,
      "duration": 0.1028,
      "velocity": 104,
      "chip": "ym2612"
    },
    {
      "channel": 1,
      "note": 51,
      "start": 1.4188,
      "duration": 0.1002,
      "velocity": 97,
      "chip": "ym2612"
    },
    {
      "channel": 3,
      "note": 79,
      "start": 1.4193,
      "duration": 0.1004,
      "velocity": 104,
      "chip": "ym2612"
    },
    {
      "channel": 4,
      "note": 74,
      "start": 1.42,
      "duration": 0.1005,
      "velocity": 104,
      "chip": "ym2612"
    },
    {
      "channel": 5,
      "note": 72,
      "start": 1.4205,
      "duration": 0.1007,
      "velocity": 104,
      "chip": "ym2612"
    },
    {
      "channel": 2,
      "note": 37,
      "start": 1.4213,
      "duration": 0.0545,
      "velocity": 120,
      "chip": "ym2612"
    },
    {
      "channel": 1,
      "note": 51,
      "start": 1.5196,
      "duration": 0.1982,
      "velocity": 97,
      "chip": "ym2612"
    },
    {
      "channel": 3,
      "note": 79,
      "start": 1.5204,
      "duration": 0.198,
      "velocity": 104,
      "chip": "ym2612"
    },
    {
      "channel": 4,
      "note": 74,
      "start": 1.5211,
      "duration": 0.1978,
      "velocity": 104,
      "chip": "ym2612"
    },
    {
      "channel": 5,
      "note": 72,
      "start": 1.5235,
      "duration": 0.1961,
      "velocity": 104,
      "chip": "ym2612"
    },
    {
      "channel": 2,
      "note": 82,
      "start": 1.5245,
      "duration": 0.0924,
      "velocity": 127,
      "chip": "ym2612"
    },
    {
      "channel": 2,
      "note": 37,
      "start": 1.6235,
      "duration": 0.0535,
      "velocity": 120,
      "chip": "ym2612"
    },
    {
      "channel": 1,
      "note": 51,
      "start": 1.7182,
      "duration": 0.1029,
      "velocity": 97,
      "chip": "ym2612"
    },
    {
      "channel": 3,
      "note": 79,
      "start": 1.7188,
      "duration": 0.1029,
      "velocity": 104,
      "chip": "ym2612"
    },
    {
      "channel": 4,
      "note": 74,
      "start": 1.7194,
      "duration": 0.1044,
      "velocity": 104,
      "chip": "ym2612"
    },
    {
      "channel": 5,
      "note": 72,
      "start": 1.72,
      "duration": 0.1044,
      "velocity": 104,
      "chip": "ym2612"
    },
    {
      "channel": 1,
      "note": 51,
      "start": 1.8215,
      "duration": 0.1002,
      "velocity": 97,
      "chip": "ym2612"
    },
    {
      "channel": 3,
      "note": 79,
      "start": 1.8237,
      "duration": 0.1002,
      "velocity": 104,
      "chip": "ym2612"
    },
    {
      "channel": 4,
      "note": 74,
      "start": 1.8243,
      "duration": 0.1002,
      "velocity": 104,
      "chip": "ym2612"
    },
    {
      "channel": 5,
      "note": 72,
      "start": 1.8249,
      "duration": 0.1002,
      "velocity": 104,
      "chip": "ym2612"
    },
    {
      "channel": 2,
      "note": 37,
      "start": 1.8256,
      "duration": 0.0529,
      "velocity": 120,
      "chip": "ym2612"
    },
    {
      "channel": 1,
      "note": 51,
      "start": 1.9238,
      "duration": 0.1002,
      "velocity": 97,
      "chip": "ym2612"
    },
    {
      "channel": 3,
      "note": 79,
      "start": 1.9244,
      "duration": 0.1002,
      "velocity": 104,
      "chip": "ym2612"
    },
    {
      "channel": 4,
      "note": 74,
      "start": 1.925,
      "duration": 0.1003,
      "velocity": 104,
      "chip": "ym2612"
    },
    {
      "channel": 5,
      "note": 72,
      "start": 1.9256,
      "duration": 0.1002,
      "velocity": 104,
      "chip": "ym2612"
    },
    {
      "channel": 2,
      "note": 37,
      "start": 1.9263,
      "duration": 0.0528,
      "velocity": 120,
      "chip": "ym2612"
    },
    {
      "channel": 1,
      "note": 51,
      "start": 2.0245,
      "duration": 0.1002,
      "velocity": 97,
      "chip": "ym2612"
    },
    {
      "channel": 3,
      "note": 79,
      "start": 2.0251,
      "duration": 0.1002,
      "velocity": 104,
      "chip": "ym2612"
    },
    {
      "channel": 4,
      "note": 74,
      "start": 2.0257,
      "duration": 0.1002,
      "velocity": 104,
      "chip": "ym2612"
    },
    {
      "channel": 5,
      "note": 72,
      "start": 2.0263,
      "duration": 0.1002,
      "velocity": 104,
      "chip": "ym2612"
    },
    {
      "channel": 2,
      "note": 82,
      "start": 2.0273,
      "duration": 0.0928,
      "velocity": 127,
      "chip": "ym2612"
    },
    {
      "channel": 1,
      "note": 51,
      "start": 2.1251,
      "duration": 0.0959,
      "velocity": 97,
      "chip": "ym2612"
    },
    {
      "channel": 3,
      "note": 79,
      "start": 2.1257,
      "duration": 0.0959,
      "velocity": 104,
      "chip": "ym2612"
    },
    {
      "channel": 4,
      "note": 74,
      "start": 2.1263,
      "duration": 0.0975,
      "velocity": 104,
      "chip": "ym2612"
    },
    {
      "channel": 5,
      "note": 72,
      "start": 2.1269,
      "duration": 0.0976,
      "velocity": 104,
      "chip": "ym2612"
    },
    {
      "channel": 2,
      "note": 37,
      "start": 2.1277,
      "duration": 0.0528,
      "velocity": 120,
      "chip": "ym2612"
    },
    {
      "channel": 1,
      "note": 51,
      "start": 2.2215,
      "duration": 0.1045,
      "velocity": 97,
      "chip": "ym2612"
    },
    {
      "channel": 3,
      "note": 79,
      "start": 2.2237,
      "duration": 0.1029,
      "velocity": 104,
      "chip": "ym2612"
    },
    {
      "channel": 4,
      "note": 74,
      "start": 2.2243,
      "duration": 0.1029,
      "velocity": 104,
      "chip": "ym2612"
    },
    {
      "channel": 5,
      "note": 72,
      "start": 2.2249,
      "duration": 0.1029,
      "velocity": 104,
      "chip": "ym2612"
    },
    {
      "channel": 1,
      "note": 51,
      "start": 2.3265,
      "duration": 0.0976,
      "velocity": 97,
      "chip": "ym2612"
    },
    {
      "channel": 3,
      "note": 79,
      "start": 2.327,
      "duration": 0.0976,
      "velocity": 104,
      "chip": "ym2612"
    },
    {
      "channel": 4,
      "note": 74,
      "start": 2.3277,
      "duration": 0.0976,
      "velocity": 104,
      "chip": "ym2612"
    },
    {
      "channel": 5,
      "note": 72,
      "start": 2.3282,
      "duration": 0.0976,
      "velocity": 104,
      "chip": "ym2612"
    },
    {
      "channel": 2,
      "note": 37,
      "start": 2.329,
      "duration": 0.0528,
      "velocity": 120,
      "chip": "ym2612"
    },
    {
      "channel": 1,
      "note": 51,
      "start": 2.4245,
      "duration": 0.8061,
      "velocity": 97,
      "chip": "ym2612"
    },
    {
      "channel": 3,
      "note": 79,
      "start": 2.4251,
      "duration": 0.8084,
      "velocity": 83,
      "chip": "ym2612"
    },
    {
      "channel": 4,
      "note": 74,
      "start": 2.4257,
      "duration": 0.8112,
      "velocity": 83,
      "chip": "ym2612"
    },
    {
      "channel": 5,
      "note": 72,
      "start": 2.4263,
      "duration": 0.8156,
      "velocity": 83,
      "chip": "ym2612"
    },
    {
      "channel": 2,
      "note": 37,
      "start": 2.5287,
      "duration": 0.0544,
      "velocity": 120,
      "chip": "ym2612"
    },
    {
      "channel": 2,
      "note": 37,
      "start": 2.629,
      "duration": 0.0548,
      "velocity": 120,
      "chip": "ym2612"
    },
    {
      "channel": 2,
      "note": 82,
      "start": 2.83,
      "duration": 0.0956,
      "velocity": 127,
      "chip": "ym2612"
    },
    {
      "channel": 2,
      "note": 82,
      "start": 2.9306,
      "duration": 0.0956,
      "velocity": 127,
      "chip": "ym2612"
    },
    {
      "channel": 2,
      "note": 82,
      "start": 3.0314,
      "duration": 0.0956,
      "velocity": 127,
      "chip": "ym2612"
    },
    {
      "channel": 2,
      "note": 82,
      "start": 3.132,
      "duration": 0.0955,
      "velocity": 127,
      "chip": "ym2612"
    },
    {
      "channel": 3,
      "note": 79,
      "start": 3.2341,
      "duration": 0.2083,
      "velocity": 83,
      "chip": "ym2612"
    },
    {
      "channel": 4,
      "note": 74,
      "start": 3.2375,
      "duration": 0.2057,
      "velocity": 83,
      "chip": "ym2612"
    },
    {
      "channel": 5,
      "note": 72,
      "start": 3.2424,
      "duration": 0.2013,
      "velocity": 83,
      "chip": "ym2612"
    },
    {
      "channel": 2,
      "note": 37,
      "start": 3.2432,
      "duration": 0.0527,
      "velocity": 120,
      "chip": "ym2612"
    },
    {
      "channel": 1,
      "note": 55,
      "start": 3.3417,
      "duration": 0.1001,
      "velocity": 97,
      "chip": "ym2612"
    },
    {
      "channel": 2,
      "note": 37,
      "start": 3.3434,
      "duration": 0.0534,
      "velocity": 120,
      "chip": "ym2612"
    },
    {
      "channel": 1,
      "note": 50,
      "start": 3.4424,
      "duration": 0.1001,
      "velocity": 97,
      "chip": "ym2612"
    },
    {
      "channel": 3,
      "note": 79,
      "start": 3.4429,
      "duration": 0.0998,
      "velocity": 83,
      "chip": "ym2612"
    },
    {
      "channel": 4,
      "note": 74,
      "start": 3.4436,
      "duration": 0.0997,
      "velocity": 83,
      "chip": "ym2612"
    },
    {
      "channel": 5,
      "note": 72,
      "start": 3.4441,
      "duration": 0.0999,
      "velocity": 83,
      "chip": "ym2612"
    },
    {
      "channel": 2,
      "note": 37,
      "start": 3.4449,
      "duration": 0.0527,
      "velocity": 120,
      "chip": "ym2612"
    },
    {
      "channel": 3,
      "note": 79,
      "start": 3.5432,
      "duration": 0.1006,
      "velocity": 83,
      "chip": "ym2612"
    },
    {
      "channel": 4,
      "note": 74,
      "start": 3.5439,
      "duration": 0.1006,
      "velocity": 83,
      "chip": "ym2612"
    },
    {
      "channel": 5,
      "note": 72,
      "start": 3.5446,
      "duration": 0.1006,
      "velocity": 83,
      "chip": "ym2612"
    },
    {
      "channel": 2,
      "note": 37,
      "start": 3.5454,
      "duration": 0.0525,
      "velocity": 120,
      "chip": "ym2612"
    },
    {
      "channel": 1,
      "note": 53,
      "start": 3.6436,
      "duration": 0.1001,
      "velocity": 97,
      "chip": "ym2612"
    },
    {
      "channel": 3,
      "note": 77,
      "start": 3.6444,
      "duration": 0.0997,
      "velocity": 83,
      "chip": "ym2612"
    },
    {
      "channel": 4,
      "note": 74,
      "start": 3.6452,
      "duration": 0.0997,
      "velocity": 83,
      "chip": "ym2612"
    },
    {
      "channel": 5,
      "note": 72,
      "start": 3.6459,
      "duration": 0.0996,
      "velocity": 83,
      "chip": "ym2612"
    },
    {
      "channel": 2,
      "note": 82,
      "start": 3.6469,
      "duration": 0.0939,
      "velocity": 127,
      "chip": "ym2612"
    },
    {
      "channel": 3,
      "note": 79,
      "start": 3.7446,
      "duration": 0.0968,
      "velocity": 83,
      "chip": "ym2612"
    },
    {
      "channel": 4,
      "note": 74,
      "start": 3.7454,
      "duration": 0.0963,
      "velocity": 83,
      "chip": "ym2612"
    },
    {
      "channel": 5,
      "note": 72,
      "start": 3.7462,
      "duration": 0.0959,
      "velocity": 83,
      "chip": "ym2612"
    },
    {
      "channel": 2,
      "note": 37,
      "start": 3.7469,
      "duration": 0.0524,
      "velocity": 120,
      "chip": "ym2612"
    },
    {
      "channel": 1,
      "note": 50,
      "start": 3.8413,
      "duration": 0.1023,
      "velocity": 97,
      "chip": "ym2612"
    },
    {
      "channel": 3,
      "note": 77,
      "start": 3.9445,
      "duration": 0.0977,
      "velocity": 83,
      "chip": "ym2612"
    },
    {
      "channel": 4,
      "note": 74,
      "start": 3.9452,
      "duration": 0.0977,
      "velocity": 83,
      "chip": "ym2612"
    },
    {
      "channel": 5,
      "note": 72,
      "start": 3.9459,
      "duration": 0.0978,
      "velocity": 83,
      "chip": "ym2612"
    },
    {
      "channel": 2,
      "note": 37,
      "start": 3.9467,
      "duration": 0.0543,
      "velocity": 120,
      "chip": "ym2612"
    },
    {
      "channel": 1,
      "note": 55,
      "start": 4.042,
      "duration": 0.1027,
      "velocity": 97,
      "chip": "ym2612"
    },
    {
      "channel": 3,
      "note": 79,
      "start": 4.0428,
      "duration": 0.1023,
      "velocity": 83,
      "chip": "ym2612"
    },
    {
      "channel": 4,
      "note": 74,
      "start": 4.0436,
      "duration": 0.1018,
      "velocity": 83,
      "chip": "ym2612"
    },
    {
      "channel": 5,
      "note": 72,
      "start": 4.0443,
      "duration": 0.1015,
      "velocity": 83,
      "chip": "ym2612"
    },
    {
      "channel": 2,
      "note": 37,
      "start": 4.1466,
      "duration": 0.0546,
      "velocity": 120,
      "chip": "ym2612"
    },
    {
      "channel": 1,
      "note": 50,
      "start": 4.2461,
      "duration": 0.0975,
      "velocity": 97,
      "chip": "ym2612"
    },
    {
      "channel": 3,
      "note": 77,
      "start": 4.2468,
      "duration": 0.0971,
      "velocity": 83,
      "chip": "ym2612"
    },
    {
      "channel": 4,
      "note": 74,
      "start": 4.2475,
      "duration": 0.0966,
      "velocity": 83,
      "chip": "ym2612"
    },
    {
      "channel": 5,
      "note": 72,
      "start": 4.2483,
      "duration": 0.0962,
      "velocity": 83,
      "chip": "ym2612"
    },
    {
      "channel": 2,
      "note": 37,
      "start": 4.249,
      "duration": 0.0539,
      "velocity": 120,
      "chip": "ym2612"
    },
    {
      "channel": 1,
      "note": 53,
      "start": 4.4474,
      "duration": 0.0975,
      "velocity": 97,
      "chip": "ym2612"
    },
    {
      "channel": 3,
      "note": 79,
      "start": 4.4482,
      "duration": 0.4022,
      "velocity": 83,
      "chip": "ym2612"
    },
    {
      "channel": 4,
      "note": 74,
      "start": 4.4489,
      "duration": 0.4022,
      "velocity": 83,
      "chip": "ym2612"
    },
    {
      "channel": 5,
      "note": 72,
      "start": 4.4497,
      "duration": 0.4022,
      "velocity": 83,
      "chip": "ym2612"
    },
    {
      "channel": 2,
      "note": 82,
      "start": 4.4507,
      "duration": 0.1039,
      "velocity": 127,
      "chip": "ym2612"
    },
    {
      "channel": 1,
      "note": 50,
      "start": 4.5454,
      "duration": 0.2034,
      "velocity": 97,
      "chip": "ym2612"
    },
    {
      "channel": 2,
      "note": 37,
      "start": 4.6501,
      "duration": 0.057,
      "velocity": 120,
      "chip": "ym2612"
    },
    {
      "channel": 1,
      "note": 50,
      "start": 4.7492,
      "duration": 0.1008,
      "velocity": 97,
      "chip": "ym2612"
    },
    {
      "channel": 2,
      "note": 82,
      "start": 4.7513,
      "duration": 0.0954,
      "velocity": 127,
      "chip": "ym2612"
    },
    {
      "channel": 3,
      "note": 79,
      "start": 4.851,
      "duration": 0.2006,
      "velocity": 83,
      "chip": "ym2612"
    },
    {
      "channel": 4,
      "note": 74,
      "start": 4.8517,
      "duration": 0.2005,
      "velocity": 83,
      "chip": "ym2612"
    },
    {
      "channel": 5,
      "note": 72,
      "start": 4.8525,
      "duration": 0.2003,
      "velocity": 83,
      "chip": "ym2612"
    },
    {
      "channel": 2,
      "note": 37,
      "start": 4.8532,
      "duration": 0.055,
      "velocity": 120,
      "chip": "ym2612"
    },
    {
      "channel": 1,
      "note": 55,
      "start": 4.9482,
      "duration": 0.1027,
      "velocity": 97,
      "chip": "ym2612"
    },
    {
      "channel": 1,
      "note": 50,
      "start": 5.0515,
      "duration": 0.1,
      "velocity": 97,
      "chip": "ym2612"
    },
    {
      "channel": 3,
      "note": 79,
      "start": 5.052,
      "duration": 0.0997,
      "velocity": 83,
      "chip": "ym2612"
    },
    {
      "channel": 4,
      "note": 74,
      "start": 5.0527,
      "duration": 0.0997,
      "velocity": 83,
      "chip": "ym2612"
    },
    {
      "channel": 5,
      "note": 72,
      "start": 5.0532,
      "duration": 0.0999,
      "velocity": 83,
      "chip": "ym2612"
    },
    {
      "channel": 2,
      "note": 37,
      "start": 5.054,
      "duration": 0.0551,
      "velocity": 120,
      "chip": "ym2612"
    },
    {
      "channel": 3,
      "note": 79,
      "start": 5.1522,
      "duration": 0.1006,
      "velocity": 83,
      "chip": "ym2612"
    },
    {
      "channel": 4,
      "note": 74,
      "start": 5.153,
      "duration": 0.1006,
      "velocity": 83,
      "chip": "ym2612"
    },
    {
      "channel": 5,
      "note": 72,
      "start": 5.1537,
      "duration": 0.1006,
      "velocity": 83,
      "chip": "ym2612"
    },
    {
      "channel": 2,
      "note": 37,
      "start": 5.1544,
      "duration": 0.0542,
      "velocity": 120,
      "chip": "ym2612"
    },
    {
      "channel": 1,
      "note": 53,
      "start": 5.2527,
      "duration": 0.1001,
      "velocity": 97,
      "chip": "ym2612"
    },
    {
      "channel": 3,
      "note": 77,
      "start": 5.2534,
      "duration": 0.0997,
      "velocity": 83,
      "chip": "ym2612"
    },
    {
      "channel": 4,
      "note": 74,
      "start": 5.2542,
      "duration": 0.0997,
      "velocity": 83,
      "chip": "ym2612"
    },
    {
      "channel": 5,
      "note": 72,
      "start": 5.255,
      "duration": 0.0996,
      "velocity": 83,
      "chip": "ym2612"
    },
    {
      "channel": 2,
      "note": 82,
      "start": 5.2576,
      "duration": 0.0924,
      "velocity": 127,
      "chip": "ym2612"
    },
    {
      "channel": 3,
      "note": 79,
      "start": 5.3537,
      "duration": 0.0979,
      "velocity": 83,
      "chip": "ym2612"
    },
    {
      "channel": 4,
      "note": 74,
      "start": 5.3544,
      "duration": 0.0979,
      "velocity": 83,
      "chip": "ym2612"
    },
    {
      "channel": 5,
      "note": 72,
      "start": 5.3568,
      "duration": 0.0963,
      "velocity": 83,
      "chip": "ym2612"
    },
    {
      "channel": 2,
      "note": 37,
      "start": 5.3575,
      "duration": 0.0524,
      "velocity": 120,
      "chip": "ym2612"
    },
    {
      "channel": 1,
      "note": 50,
      "start": 5.4515,
      "duration": 0.1028,
      "velocity": 97,
      "chip": "ym2612"
    },
    {
      "channel": 3,
      "note": 77,
      "start": 5.4522,
      "duration": 0.1024,
      "velocity": 83,
      "chip": "ym2612"
    },
    {
      "channel": 4,
      "note": 74,
      "start": 5.4529,
      "duration": 0.104,
      "velocity": 83,
      "chip": "ym2612"
    },
    {
      "channel": 5,
      "note": 72,
      "start": 5.4537,
      "duration": 0.1039,
      "velocity": 83,
      "chip": "ym2612"
    },
    {
      "channel": 3,
      "note": 77,
      "start": 5.5567,
      "duration": 0.0963,
      "velocity": 83,
      "chip": "ym2612"
    },
    {
      "channel": 4,
      "note": 74,
      "start": 5.5575,
      "duration": 0.0962,
      "velocity": 83,
      "chip": "ym2612"
    },
    {
      "channel": 5,
      "note": 72,
      "start": 5.5583,
      "duration": 0.0962,
      "velocity": 83,
      "chip": "ym2612"
    },
    {
      "channel": 2,
      "note": 37,
      "start": 5.559,
      "duration": 0.0524,
      "velocity": 120,
      "chip": "ym2612"
    },
    {
      "channel": 1,
      "note": 55,
      "start": 5.6529,
      "duration": 0.1043,
      "velocity": 97,
      "chip": "ym2612"
    },
    {
      "channel": 3,
      "note": 79,
      "start": 5.6536,
      "duration": 0.1038,
      "velocity": 83,
      "chip": "ym2612"
    },
    {
      "channel": 4,
      "note": 74,
      "start": 5.6543,
      "duration": 0.1034,
      "velocity": 83,
      "chip": "ym2612"
    },
    {
      "channel": 5,
      "note": 72,
      "start": 5.6551,
      "duration": 0.1029,
      "velocity": 83,
      "chip": "ym2612"
    },
    {
      "channel": 2,
      "note": 37,
      "start": 5.759,
      "duration": 0.0529,
      "velocity": 120,
      "chip": "ym2612"
    },
    {
      "channel": 1,
      "note": 50,
      "start": 5.8584,
      "duration": 0.0959,
      "velocity": 97,
      "chip": "ym2612"
    },
    {
      "channel": 3,
      "note": 77,
      "start": 5.8591,
      "duration": 0.0955,
      "velocity": 83,
      "chip": "ym2612"
    },
    {
      "channel": 4,
      "note": 74,
      "start": 5.8599,
      "duration": 0.095,
      "velocity": 83,
      "chip": "ym2612"
    },
    {
      "channel": 5,
      "note": 72,
      "start": 5.8606,
      "duration": 0.0962,
      "velocity": 83,
      "chip": "ym2612"
    },
    {
      "channel": 2,
      "note": 37,
      "start": 5.8613,
      "duration": 0.0522,
      "velocity": 120,
      "chip": "ym2612"
    },
    {
      "channel": 1,
      "note": 53,
      "start": 6.0597,
      "duration": 0.0974,
      "velocity": 97,
      "chip": "ym2612"
    },
    {
      "channel": 3,
      "note": 79,
      "start": 6.0606,
      "duration": 0.403,
      "velocity": 83,
      "chip": "ym2612"
    },
    {
      "channel": 4,
      "note": 74,
      "start": 6.0613,
      "duration": 0.4057,
      "velocity": 83,
      "chip": "ym2612"
    },
    {
      "channel": 5,
      "note": 72,
      "start": 6.0621,
      "duration": 0.4084,
      "velocity": 83,
      "chip": "ym2612"
    },
    {
      "channel": 2,
      "note": 82,
      "start": 6.0631,
      "duration": 0.1022,
      "velocity": 127,
      "chip": "ym2612"
    },
    {
      "channel": 1,
      "note": 50,
      "start": 6.1577,
      "duration": 0.2024,
      "velocity": 97,
      "chip": "ym2612"
    },
    {
      "channel": 2,
      "note": 37,
      "start": 6.262,
      "duration": 0.0543,
      "velocity": 120,
      "chip": "ym2612"
    },
    {
      "channel": 1,
      "note": 50,
      "start": 6.3605,
      "duration": 0.1001,
      "velocity": 97,
      "chip": "ym2612"
    },
    {
      "channel": 2,
      "note": 37,
      "start": 6.3623,
      "duration": 0.0546,
      "velocity": 120,
      "chip": "ym2612"
    },
    {
      "channel": 3,
      "note": 79,
      "start": 6.4642,
      "duration": 0.2068,
      "velocity": 83,
      "chip": "ym2612"
    },
    {
      "channel": 4,
      "note": 74,
      "start": 6.4677,
      "duration": 0.204,
      "velocity": 83,
      "chip": "ym2612"
    },
    {
      "channel": 5,
      "note": 72,
      "start": 6.4711,
      "duration": 0.2028,
      "velocity": 83,
      "chip": "ym2612"
    },
    {
      "channel": 2,
      "note": 37,
      "start": 6.4734,
      "duration": 0.0524,
      "velocity": 120,
      "chip": "ym2612"
    },
    {
      "channel": 1,
      "note": 55,
      "start": 6.5698,
      "duration": 0.1005,
      "velocity": 97,
      "chip": "ym2612"
    },
    {
      "channel": 2,
      "note": 37,
      "start": 6.5716,
      "duration": 0.055,
      "velocity": 120,
      "chip": "ym2612"
    },
    {
      "channel": 1,
      "note": 50,
      "start": 6.6709,
      "duration": 0.0997,
      "velocity": 97,
      "chip": "ym2612"
    },
    {
      "channel": 3,
      "note": 79,
      "start": 6.6715,
      "duration": 0.0994,
      "velocity": 83,
      "chip": "ym2612"
    },
    {
      "channel": 4,
      "note": 74,
      "start": 6.6737,
      "duration": 0.0978,
      "velocity": 83,
      "chip": "ym2612"
    },
    {
      "channel": 5,
      "note": 72,
      "start": 6.6744,
      "duration": 0.0996,
      "velocity": 83,
      "chip": "ym2612"
    },
    {
      "channel": 2,
      "note": 37,
      "start": 6.6751,
      "duration": 0.0524,
      "velocity": 120,
      "chip": "ym2612"
    },
    {
      "channel": 3,
      "note": 79,
      "start": 6.7714,
      "duration": 0.1022,
      "velocity": 83,
      "chip": "ym2612"
    },
    {
      "channel": 4,
      "note": 74,
      "start": 6.7738,
      "duration": 0.1006,
      "velocity": 83,
      "chip": "ym2612"
    },
    {
      "channel": 5,
      "note": 72,
      "start": 6.7745,
      "duration": 0.1006,
      "velocity": 83,
      "chip": "ym2612"
    },
    {
      "channel": 2,
      "note": 37,
      "start": 6.7753,
      "duration": 0.0525,
      "velocity": 120,
      "chip": "ym2612"
    },
    {
      "channel": 1,
      "note": 53,
      "start": 6.8735,
      "duration": 0.1001,
      "velocity": 97,
      "chip": "ym2612"
    },
    {
      "channel": 3,
      "note": 77,
      "start": 6.8742,
      "duration": 0.0997,
      "velocity": 83,
      "chip": "ym2612"
    },
    {
      "channel": 4,
      "note": 74,
      "start": 6.8749,
      "duration": 0.0997,
      "velocity": 83,
      "chip": "ym2612"
    },
    {
      "channel": 5,
      "note": 72,
      "start": 6.8757,
      "duration": 0.0997,
      "velocity": 83,
      "chip": "ym2612"
    },
    {
      "channel": 2,
      "note": 82,
      "start": 6.8767,
      "duration": 0.0924,
      "velocity": 127,
      "chip": "ym2612"
    },
    {
      "channel": 3,
      "note": 79,
      "start": 6.9745,
      "duration": 0.0962,
      "velocity": 83,
      "chip": "ym2612"
    },
    {
      "channel": 4,
      "note": 74,
      "start": 6.9753,
      "duration": 0.0958,
      "velocity": 83,
      "chip": "ym2612"
    },
    {
      "channel": 5,
      "note": 72,
      "start": 6.9759,
      "duration": 0.0954,
      "velocity": 83,
      "chip": "ym2612"
    },
    {
      "channel": 2,
      "note": 37,
      "start": 6.9767,
      "duration": 0.0524,
      "velocity": 120,
      "chip": "ym2612"
    },
    {
      "channel": 1,
      "note": 50,
      "start": 7.0706,
      "duration": 0.1043,
      "velocity": 97,
      "chip": "ym2612"
    },
    {
      "channel": 3,
      "note": 77,
      "start": 7.1758,
      "duration": 0.098,
      "velocity": 83,
      "chip": "ym2612"
    },
    {
      "channel": 4,
      "note": 74,
      "start": 7.1765,
      "duration": 0.0979,
      "velocity": 83,
      "chip": "ym2612"
    },
    {
      "channel": 5,
      "note": 72,
      "start": 7.1773,
      "duration": 0.0979,
      "velocity": 83,
      "chip": "ym2612"
    },
    {
      "channel": 2,
      "note": 37,
      "start": 7.178,
      "duration": 0.0524,
      "velocity": 120,
      "chip": "ym2612"
    },
    {
      "channel": 1,
      "note": 55,
      "start": 7.2735,
      "duration": 0.1027,
      "velocity": 97,
      "chip": "ym2612"
    },
    {
      "channel": 3,
      "note": 79,
      "start": 7.2743,
      "duration": 0.1023,
      "velocity": 83,
      "chip": "ym2612"
    },
    {
      "channel": 4,
      "note": 74,
      "start": 7.2751,
      "duration": 0.1019,
      "velocity": 83,
      "chip": "ym2612"
    },
    {
      "channel": 5,
      "note": 72,
      "start": 7.2758,
      "duration": 0.1015,
      "velocity": 83,
      "chip": "ym2612"
    },
    {
      "channel": 2,
      "note": 37,
      "start": 7.3781,
      "duration": 0.0529,
      "velocity": 120,
      "chip": "ym2612"
    },
    {
      "channel": 1,
      "note": 50,
      "start": 7.4772,
      "duration": 0.0972,
      "velocity": 97,
      "chip": "ym2612"
    },
    {
      "channel": 3,
      "note": 77,
      "start": 7.478,
      "duration": 0.0968,
      "velocity": 83,
      "chip": "ym2612"
    },
    {
      "channel": 4,
      "note": 74,
      "start": 7.4788,
      "duration": 0.0963,
      "velocity": 83,
      "chip": "ym2612"
    },
    {
      "channel": 5,
      "note": 72,
      "start": 7.4795,
      "duration": 0.0959,
      "velocity": 83,
      "chip": "ym2612"
    },
    {
      "channel": 2,
      "note": 37,
      "start": 7.4802,
      "duration": 0.0525,
      "velocity": 120,
      "chip": "ym2612"
    },
    {
      "channel": 1,
      "note": 53,
      "start": 7.6772,
      "duration": 0.0974,
      "velocity": 97,
      "chip": "ym2612"
    },
    {
      "channel": 3,
      "note": 79,
      "start": 7.678,
      "duration": 0.402,
      "velocity": 83,
      "chip": "ym2612"
    },
    {
      "channel": 4,
      "note": 74,
      "start": 7.6788,
      "duration": 0.402,
      "velocity": 83,
      "chip": "ym2612"
    },
    {
      "channel": 5,
      "note": 72,
      "start": 7.6795,
      "duration": 0.402,
      "velocity": 83,
      "chip": "ym2612"
    },
    {
      "channel": 2,
      "note": 82,
      "start": 7.6805,
      "duration": 0.1039,
      "velocity": 127,
      "chip": "ym2612"
    },
    {
      "channel": 1,
      "note": 50,
      "start": 7.7752,
      "duration": 0.2034,
      "velocity": 97,
      "chip": "ym2612"
    },
    {
      "channel": 2,
      "note": 37,
      "start": 7.8799,
      "duration": 0.0555,
      "velocity": 120,
      "chip": "ym2612"
    },
    {
      "channel": 1,
      "note": 50,
      "start": 7.979,
      "duration": 0.1007,
      "velocity": 97,
      "chip": "ym2612"
    },
    {
      "channel": 2,
      "note": 82,
      "start": 7.9811,
      "duration": 0.0953,
      "velocity": 127,
      "chip": "ym2612"
    },
    {
      "channel": 3,
      "note": 79,
      "start": 8.0807,
      "duration": 0.2007,
      "velocity": 83,
      "chip": "ym2612"
    },
    {
      "channel": 4,
      "note": 74,
      "start": 8.0814,
      "duration": 0.2005,
      "velocity": 83,
      "chip": "ym2612"
    },
    {
      "channel": 5,
      "note": 72,
      "start": 8.0822,
      "duration": 0.2004,
      "velocity": 83,
      "chip": "ym2612"
    },
    {
      "channel": 2,
      "note": 37,
      "start": 8.0829,
      "duration": 0.0535,
      "velocity": 120,
      "chip": "ym2612"
    },
    {
      "channel": 1,
      "note": 55,
      "start": 8.1779,
      "duration": 0.1027,
      "velocity": 97,
      "chip": "ym2612"
    },
    {
      "channel": 1,
      "note": 50,
      "start": 8.2812,
      "duration": 0.1002,
      "velocity": 97,
      "chip": "ym2612"
    },
    {
      "channel": 3,
      "note": 79,
      "start": 8.2818,
      "duration": 0.0999,
      "velocity": 83,
      "chip": "ym2612"
    },
    {
      "channel": 4,
      "note": 74,
      "start": 8.2824,
      "duration": 0.0999,
      "velocity": 83,
      "chip": "ym2612"
    },
    {
      "channel": 5,
      "note": 72,
      "start": 8.283,
      "duration": 0.1001,
      "velocity": 83,
      "chip": "ym2612"
    },
    {
      "channel": 2,
      "note": 37,
      "start": 8.2837,
      "duration": 0.0544,
      "velocity": 120,
      "chip": "ym2612"
    },
    {
      "channel": 3,
      "note": 79,
      "start": 8.3822,
      "duration": 0.1005,
      "velocity": 83,
      "chip": "ym2612"
    },
    {
      "channel": 4,
      "note": 74,
      "start": 8.3829,
      "duration": 0.1006,
      "velocity": 83,
      "chip": "ym2612"
    },
    {
      "channel": 5,
      "note": 72,
      "start": 8.3837,
      "duration": 0.1005,
      "velocity": 83,
      "chip": "ym2612"
    },
    {
      "channel": 2,
      "note": 37,
      "start": 8.3844,
      "duration": 0.0557,
      "velocity": 120,
      "chip": "ym2612"
    },
    {
      "channel": 1,
      "note": 53,
      "start": 8.4825,
      "duration": 0.1002,
      "velocity": 97,
      "chip": "ym2612"
    },
    {
      "channel": 3,
      "note": 77,
      "start": 8.4833,
      "duration": 0.0998,
      "velocity": 83,
      "chip": "ym2612"
    },
    {
      "channel": 4,
      "note": 74,
      "start": 8.484,
      "duration": 0.0997,
      "velocity": 83,
      "chip": "ym2612"
    },
    {
      "channel": 5,
      "note": 72,
      "start": 8.4848,
      "duration": 0.0997,
      "velocity": 83,
      "chip": "ym2612"
    },
    {
      "channel": 2,
      "note": 82,
      "start": 8.4858,
      "duration": 0.094,
      "velocity": 127,
      "chip": "ym2612"
    },
    {
      "channel": 3,
      "note": 79,
      "start": 8.5836,
      "duration": 0.0979,
      "velocity": 83,
      "chip": "ym2612"
    },
    {
      "channel": 4,
      "note": 74,
      "start": 8.5844,
      "duration": 0.0978,
      "velocity": 83,
      "chip": "ym2612"
    },
    {
      "channel": 5,
      "note": 72,
      "start": 8.5851,
      "duration": 0.0979,
      "velocity": 83,
      "chip": "ym2612"
    },
    {
      "channel": 2,
      "note": 37,
      "start": 8.5858,
      "duration": 0.0557,
      "velocity": 120,
      "chip": "ym2612"
    },
    {
      "channel": 1,
      "note": 50,
      "start": 8.6813,
      "duration": 0.1027,
      "velocity": 97,
      "chip": "ym2612"
    },
    {
      "channel": 3,
      "note": 77,
      "start": 8.6821,
      "duration": 0.1023,
      "velocity": 83,
      "chip": "ym2612"
    },
    {
      "channel": 4,
      "note": 74,
      "start": 8.6828,
      "duration": 0.1023,
      "velocity": 83,
      "chip": "ym2612"
    },
    {
      "channel": 5,
      "note": 72,
      "start": 8.6835,
      "duration": 0.1023,
      "velocity": 83,
      "chip": "ym2612"
    },
    {
      "channel": 3,
      "note": 77,
      "start": 8.7849,
      "duration": 0.0978,
      "velocity": 83,
      "chip": "ym2612"
    },
    {
      "channel": 4,
      "note": 74,
      "start": 8.7857,
      "duration": 0.0978,
      "velocity": 83,
      "chip": "ym2612"
    },
    {
      "channel": 5,
      "note": 72,
      "start": 8.7864,
      "duration": 0.0978,
      "velocity": 83,
      "chip": "ym2612"
    },
    {
      "channel": 2,
      "note": 37,
      "start": 8.7871,
      "duration": 0.0546,
      "velocity": 120,
      "chip": "ym2612"
    },
    {
      "channel": 1,
      "note": 57,
      "start": 8.8826,
      "duration": 0.1027,
      "velocity": 97,
      "chip": "ym2612"
    },
    {
      "channel": 3,
      "note": 79,
      "start": 8.8833,
      "duration": 0.1024,
      "velocity": 83,
      "chip": "ym2612"
    },
    {
      "channel": 4,
      "note": 74,
      "start": 8.8841,
      "duration": 0.1019,
      "velocity": 83,
      "chip": "ym2612"
    },
    {
      "channel": 5,
      "note": 72,
      "start": 8.8849,
      "duration": 0.1015,
      "velocity": 83,
      "chip": "ym2612"
    },
    {
      "channel": 2,
      "note": 37,
      "start": 8.9872,
      "duration": 0.0544,
      "velocity": 120,
      "chip": "ym2612"
    },
    {
      "channel": 1,
      "note": 55,
      "start": 9.0866,
      "duration": 0.0974,
      "velocity": 97,
      "chip": "ym2612"
    },
    {
      "channel": 3,
      "note": 77,
      "start": 9.0874,
      "duration": 0.097,
      "velocity": 83,
      "chip": "ym2612"
    },
    {
      "channel": 4,
      "note": 74,
      "start": 9.0881,
      "duration": 0.0966,
      "velocity": 83,
      "chip": "ym2612"
    },
    {
      "channel": 5,
      "note": 72,
      "start": 9.0905,
      "duration": 0.0945,
      "velocity": 83,
      "chip": "ym2612"
    },
    {
      "channel": 2,
      "note": 37,
      "start": 9.0912,
      "duration": 0.0521,
      "velocity": 120,
      "chip": "ym2612"
    },
    {
      "channel": 1,
      "note": 53,
      "start": 9.288,
      "duration": 0.1,
      "velocity": 97,
      "chip": "ym2612"
    },
    {
      "channel": 3,
      "note": 79,
      "start": 9.2903,
      "duration": 0.4022,
      "velocity": 83,
      "chip": "ym2612"
    },
    {
      "channel": 4,
      "note": 74,
      "start": 9.2911,
      "duration": 0.4023,
      "velocity": 83,
      "chip": "ym2612"
    },
    {
      "channel": 5,
      "note": 72,
      "start": 9.2919,
      "duration": 0.4024,
      "velocity": 83,
      "chip": "ym2612"
    },
    {
      "channel": 2,
      "note": 82,
      "start": 9.2929,
      "duration": 0.0922,
      "velocity": 127,
      "chip": "ym2612"
    },
    {
      "channel": 1,
      "note": 50,
      "start": 9.3901,
      "duration": 0.2008,
      "velocity": 97,
      "chip": "ym2612"
    },
    {
      "channel": 2,
      "note": 82,
      "start": 9.3922,
      "duration": 0.0935,
      "velocity": 127,
      "chip": "ym2612"
    },
    {
      "channel": 2,
      "note": 82,
      "start": 9.4925,
      "duration": 0.0939,
      "velocity": 127,
      "chip": "ym2612"
    },
    {
      "channel": 1,
      "note": 50,
      "start": 9.5913,
      "duration": 0.1008,
      "velocity": 97,
      "chip": "ym2612"
    },
    {
      "channel": 2,
      "note": 82,
      "start": 9.5934,
      "duration": 0.0938,
      "velocity": 127,
      "chip": "ym2612"
    },
    {
      "channel": 3,
      "note": 82,
      "start": 9.6931,
      "duration": 0.2005,
      "velocity": 83,
      "chip": "ym2612"
    },
    {
      "channel": 4,
      "note": 77,
      "start": 9.694,
      "duration": 0.2002,
      "velocity": 83,
      "chip": "ym2612"
    },
    {
      "channel": 5,
      "note": 75,
      "start": 9.6949,
      "duration": 0.2,
      "velocity": 83,
      "chip": "ym2612"
    },
    {
      "channel": 2,
      "note": 37,
      "start": 9.6956,
      "duration": 0.0516,
      "velocity": 120,
      "chip": "ym2612"
    },
    {
      "channel": 1,
      "note": 58,
      "start": 9.7929,
      "duration": 0.1,
      "velocity": 97,
      "chip": "ym2612"
    },
    {
      "channel": 2,
      "note": 37,
      "start": 9.7946,
      "duration": 0.0534,
      "velocity": 120,
      "chip": "ym2612"
    },
    {
      "channel": 1,
      "note": 53,
      "start": 9.8935,
      "duration": 0.1001,
      "velocity": 97,
      "chip": "ym2612"
    },
    {
      "channel": 3,
      "note": 82,
      "start": 9.8941,
      "duration": 0.0999,
      "velocity": 83,
      "chip": "ym2612"
    },
    {
      "channel": 4,
      "note": 77,
      "start": 9.8947,
      "duration": 0.0999,
      "velocity": 83,
      "chip": "ym2612"
    },
    {
      "channel": 5,
      "note": 75,
      "start": 9.8953,
      "duration": 0.1001,
      "velocity": 83,
      "chip": "ym2612"
    },
    {
      "channel": 2,
      "note": 37,
      "start": 9.8961,
      "duration": 0.0527,
      "velocity": 120,
      "chip": "ym2612"
    },
    {
      "channel": 3,
      "note": 82,
      "start": 9.9945,
      "duration": 0.0997,
      "velocity": 83,
      "chip": "ym2612"
    },
    {
      "channel": 4,
      "note": 77,
      "start": 9.9952,
      "duration": 0.0997,
      "velocity": 83,
      "chip": "ym2612"
    },
    {
      "channel": 5,
      "note": 75,
      "start": 9.9959,
      "duration": 0.0997,
      "velocity": 83,
      "chip": "ym2612"
    },
    {
      "channel": 2,
      "note": 37,
      "start": 9.9966,
      "duration": 0.0526,
      "velocity": 120,
      "chip": "ym2612"
    },
    {
      "channel": 1,
      "note": 55,
      "start": 10.0939,
      "duration": 0.0994,
      "velocity": 97,
      "chip": "ym2612"
    },
    {
      "channel": 3,
      "note": 80,
      "start": 10.0947,
      "duration": 0.099,
      "velocity": 83,
      "chip": "ym2612"
    },
    {
      "channel": 4,
      "note": 77,
      "start": 10.0955,
      "duration": 0.099,
      "velocity": 83,
      "chip": "ym2612"
    },
    {
      "channel": 5,
      "note": 75,
      "start": 10.0962,
      "duration": 0.099,
      "velocity": 83,
      "chip": "ym2612"
    },
    {
      "channel": 2,
      "note": 82,
      "start": 10.0973,
      "duration": 0.0932,
      "velocity": 127,
      "chip": "ym2612"
    },
    {
      "channel": 3,
      "note": 82,
      "start": 10.1943,
      "duration": 0.0979,
      "velocity": 83,
      "chip": "ym2612"
    },
    {
      "channel": 4,
      "note": 77,
      "start": 10.195,
      "duration": 0.0975,
      "velocity": 83,
      "chip": "ym2612"
    },
    {
      "channel": 5,
      "note": 75,
      "start": 10.1958,
      "duration": 0.097,
      "velocity": 83,
      "chip": "ym2612"
    },
    {
      "channel": 2,
      "note": 37,
      "start": 10.1965,
      "duration": 0.0539,
      "velocity": 120,
      "chip": "ym2612"
    },
    {
      "channel": 1,
      "note": 56,
      "start": 10.292,
      "duration": 0.1027,
      "velocity": 97,
      "chip": "ym2612"
    },
    {
      "channel": 3,
      "note": 80,
      "start": 10.3956,
      "duration": 0.0979,
      "velocity": 83,
      "chip": "ym2612"
    },
    {
      "channel": 4,
      "note": 77,
      "start": 10.3963,
      "duration": 0.0979,
      "velocity": 83,
      "chip": "ym2612"
    },
    {
      "channel": 5,
      "note": 75,
      "start": 10.3971,
      "duration": 0.0979,
      "velocity": 83,
      "chip": "ym2612"
    },
    {
      "channel": 2,
      "note": 37,
      "start": 10.3978,
      "duration": 0.0541,
      "velocity": 120,
      "chip": "ym2612"
    },
    {
      "channel": 1,
      "note": 58,
      "start": 10.4933,
      "duration": 0.1028,
      "velocity": 97,
      "chip": "ym2612"
    },
    {
      "channel": 3,
      "note": 82,
      "start": 10.4941,
      "duration": 0.1024,
      "velocity": 83,
      "chip": "ym2612"
    },
    {
      "channel": 4,
      "note": 77,
      "start": 10.4948,
      "duration": 0.102,
      "velocity": 83,
      "chip": "ym2612"
    },
    {
      "channel": 5,
      "note": 75,
      "start": 10.4956,
      "duration": 0.1015,
      "velocity": 83,
      "chip": "ym2612"
    },
    {
      "channel": 2,
      "note": 37,
      "start": 10.598,
      "duration": 0.0544,
      "velocity": 120,
      "chip": "ym2612"
    },
    {
      "channel": 1,
      "note": 53,
      "start": 10.6973,
      "duration": 0.0975,
      "velocity": 97,
      "chip": "ym2612"
    },
    {
      "channel": 3,
      "note": 80,
      "start": 10.698,
      "duration": 0.0975,
      "velocity": 83,
      "chip": "ym2612"
    },
    {
      "channel": 4,
      "note": 77,
      "start": 10.6987,
      "duration": 0.097,
      "velocity": 83,
      "chip": "ym2612"
    },
    {
      "channel": 5,
      "note": 75,
      "start": 10.6995,
      "duration": 0.0966,
      "velocity": 83,
      "chip": "ym2612"
    },
    {
      "channel": 2,
      "note": 37,
      "start": 10.7002,
      "duration": 0.0539,
      "velocity": 120,
      "chip": "ym2612"
    },
    {
      "channel": 1,
      "note": 55,
      "start": 10.7953,
      "duration": 0.1028,
      "velocity": 97,
      "chip": "ym2612"
    },
    {
      "channel": 3,
      "note": 82,
      "start": 10.899,
      "duration": 0.4025,
      "velocity": 83,
      "chip": "ym2612"
    },
    {
      "channel": 4,
      "note": 77,
      "start": 10.8998,
      "duration": 0.4026,
      "velocity": 83,
      "chip": "ym2612"
    },
    {
      "channel": 5,
      "note": 75,
      "start": 10.9006,
      "duration": 0.4025,
      "velocity": 83,
      "chip": "ym2612"
    },
    {
      "channel": 2,
      "note": 82,
      "start": 10.9016,
      "duration": 0.1059,
      "velocity": 127,
      "chip": "ym2612"
    },
    {
      "channel": 1,
      "note": 55,
      "start": 10.9966,
      "duration": 0.1027,
      "velocity": 97,
      "chip": "ym2612"
    },
    {
      "channel": 2,
      "note": 37,
      "start": 11.1013,
      "duration": 0.0569,
      "velocity": 120,
      "chip": "ym2612"
    },
    {
      "channel": 1,
      "note": 56,
      "start": 11.2006,
      "duration": 0.1006,
      "velocity": 97,
      "chip": "ym2612"
    },
    {
      "channel": 2,
      "note": 82,
      "start": 11.2027,
      "duration": 0.0952,
      "velocity": 127,
      "chip": "ym2612"
    },
    {
      "channel": 3,
      "note": 82,
      "start": 11.3022,
      "duration": 0.2006,
      "velocity": 83,
      "chip": "ym2612"
    },
    {
      "channel": 4,
      "note": 77,
      "start": 11.303,
      "duration": 0.2004,
      "velocity": 83,
      "chip": "ym2612"
    },
    {
      "channel": 5,
      "note": 75,
      "start": 11.3037,
      "duration": 0.2003,
      "velocity": 83,
      "chip": "ym2612"
    },
    {
      "channel": 2,
      "note": 37,
      "start": 11.3044,
      "duration": 0.0543,
      "velocity": 120,
      "chip": "ym2612"
    },
    {
      "channel": 1,
      "note": 58,
      "start": 11.3993,
      "duration": 0.1028,
      "velocity": 97,
      "chip": "ym2612"
    },
    {
      "channel": 1,
      "note": 53,
      "start": 11.5027,
      "duration": 0.1001,
      "velocity": 97,
      "chip": "ym2612"
    },
    {
      "channel": 3,
      "note": 82,
      "start": 11.5033,
      "duration": 0.0998,
      "velocity": 83,
      "chip": "ym2612"
    },
    {
      "channel": 4,
      "note": 77,
      "start": 11.5039,
      "duration": 0.0998,
      "velocity": 83,
      "chip": "ym2612"
    },
    {
      "channel": 5,
      "note": 75,
      "start": 11.5045,
      "duration": 0.0999,
      "velocity": 83,
      "chip": "ym2612"
    },
    {
      "channel": 2,
      "note": 37,
      "start": 11.5068,
      "duration": 0.0527,
      "velocity": 120,
      "chip": "ym2612"
    },
    {
      "channel": 3,
      "note": 82,
      "start": 11.6035,
      "duration": 0.1007,
      "velocity": 83,
      "chip": "ym2612"
    },
    {
      "channel": 4,
      "note": 77,
      "start": 11.6043,
      "duration": 0.1007,
      "velocity": 83,
      "chip": "ym2612"
    },
    {
      "channel": 5,
      "note": 75,
      "start": 11.605,
      "duration": 0.1023,
      "velocity": 83,
      "chip": "ym2612"
    },
    {
      "channel": 2,
      "note": 37,
      "start": 11.6073,
      "duration": 0.0526,
      "velocity": 120,
      "chip": "ym2612"
    },
    {
      "channel": 1,
      "note": 55,
      "start": 11.704,
      "duration": 0.1,
      "velocity": 97,
      "chip": "ym2612"
    },
    {
      "channel": 3,
      "note": 80,
      "start": 11.7048,
      "duration": 0.0996,
      "velocity": 83,
      "chip": "ym2612"
    },
    {
      "channel": 4,
      "note": 77,
      "start": 11.7071,
      "duration": 0.0996,
      "velocity": 83,
      "chip": "ym2612"
    },
    {
      "channel": 5,
      "note": 75,
      "start": 11.7079,
      "duration": 0.0996,
      "velocity": 83,
      "chip": "ym2612"
    },
    {
      "channel": 2,
      "note": 82,
      "start": 11.7089,
      "duration": 0.0923,
      "velocity": 127,
      "chip": "ym2612"
    },
    {
      "channel": 3,
      "note": 82,
      "start": 11.805,
      "duration": 0.0979,
      "velocity": 83,
      "chip": "ym2612"
    },
    {
      "channel": 4,
      "note": 77,
      "start": 11.8073,
      "duration": 0.0963,
      "velocity": 83,
      "chip": "ym2612"
    },
    {
      "channel": 5,
      "note": 75,
      "start": 11.8081,
      "duration": 0.0963,
      "velocity": 83,
      "chip": "ym2612"
    },
    {
      "channel": 2,
      "note": 37,
      "start": 11.8088,
      "duration": 0.0525,
      "velocity": 120,
      "chip": "ym2612"
    },
    {
      "channel": 1,
      "note": 56,
      "start": 11.9027,
      "duration": 0.1045,
      "velocity": 97,
      "chip": "ym2612"
    },
    {
      "channel": 3,
      "note": 80,
      "start": 11.9034,
      "duration": 0.1041,
      "velocity": 83,
      "chip": "ym2612"
    },
    {
      "channel": 4,
      "note": 77,
      "start": 11.9042,
      "duration": 0.1041,
      "velocity": 83,
      "chip": "ym2612"
    },
    {
      "channel": 5,
      "note": 75,
      "start": 11.905,
      "duration": 0.1041,
      "velocity": 83,
      "chip": "ym2612"
    },
    {
      "channel": 3,
      "note": 80,
      "start": 12.0081,
      "duration": 0.096,
      "velocity": 83,
      "chip": "ym2612"
    },
    {
      "channel": 4,
      "note": 77,
      "start": 12.0089,
      "duration": 0.096,
      "velocity": 83,
      "chip": "ym2612"
    },
    {
      "channel": 5,
      "note": 75,
      "start": 12.0097,
      "duration": 0.0976,
      "velocity": 83,
      "chip": "ym2612"
    },
    {
      "channel": 2,
      "note": 37,
      "start": 12.0104,
      "duration": 0.0522,
      "velocity": 120,
      "chip": "ym2612"
    },
    {
      "channel": 1,
      "note": 58,
      "start": 12.104,
      "duration": 0.1044,
      "velocity": 97,
      "chip": "ym2612"
    },
    {
      "channel": 3,
      "note": 82,
      "start": 12.1048,
      "duration": 0.1039,
      "velocity": 83,
      "chip": "ym2612"
    },
    {
      "channel": 4,
      "note": 77,
      "start": 12.1071,
      "duration": 0.1019,
      "velocity": 83,
      "chip": "ym2612"
    },
    {
      "channel": 5,
      "note": 75,
      "start": 12.1079,
      "duration": 0.1015,
      "velocity": 83,
      "chip": "ym2612"
    },
    {
      "channel": 2,
      "note": 37,
      "start": 12.2102,
      "duration": 0.0531,
      "velocity": 120,
      "chip": "ym2612"
    },
    {
      "channel": 1,
      "note": 53,
      "start": 12.3096,
      "duration": 0.0975,
      "velocity": 97,
      "chip": "ym2612"
    },
    {
      "channel": 3,
      "note": 80,
      "start": 12.3104,
      "duration": 0.0974,
      "velocity": 83,
      "chip": "ym2612"
    },
    {
      "channel": 4,
      "note": 77,
      "start": 12.3111,
      "duration": 0.0969,
      "velocity": 83,
      "chip": "ym2612"
    },
    {
      "channel": 5,
      "note": 75,
      "start": 12.3118,
      "duration": 0.0966,
      "velocity": 83,
      "chip": "ym2612"
    },
    {
      "channel": 2,
      "note": 37,
      "start": 12.3126,
      "duration": 0.0522,
      "velocity": 120,
      "chip": "ym2612"
    },
    {
      "channel": 1,
      "note": 55,
      "start": 12.4076,
      "duration": 0.1024,
      "velocity": 97,
      "chip": "ym2612"
    },
    {
      "channel": 3,
      "note": 82,
      "start": 12.511,
      "duration": 0.4013,
      "velocity": 83,
      "chip": "ym2612"
    },
    {
      "channel": 4,
      "note": 77,
      "start": 12.5118,
      "duration": 0.4013,
      "velocity": 83,
      "chip": "ym2612"
    },
    {
      "channel": 5,
      "note": 75,
      "start": 12.5125,
      "duration": 0.4013,
      "velocity": 83,
      "chip": "ym2612"
    },
    {
      "channel": 2,
      "note": 82,
      "start": 12.5135,
      "duration": 0.103,
      "velocity": 127,
      "chip": "ym2612"
    },
    {
      "channel": 1,
      "note": 55,
      "start": 12.6079,
      "duration": 0.1024,
      "velocity": 97,
      "chip": "ym2612"
    },
    {
      "channel": 2,
      "note": 37,
      "start": 12.7122,
      "duration": 0.055,
      "velocity": 120,
      "chip": "ym2612"
    },
    {
      "channel": 1,
      "note": 56,
      "start": 12.8113,
      "duration": 0.1006,
      "velocity": 97,
      "chip": "ym2612"
    },
    {
      "channel": 2,
      "note": 37,
      "start": 12.813,
      "duration": 0.0551,
      "velocity": 120,
      "chip": "ym2612"
    },
    {
      "channel": 3,
      "note": 82,
      "start": 12.9129,
      "duration": 0.201,
      "velocity": 83,
      "chip": "ym2612"
    },
    {
      "channel": 4,
      "note": 77,
      "start": 12.9137,
      "duration": 0.2008,
      "velocity": 83,
      "chip": "ym2612"
    },
    {
      "channel": 5,
      "note": 75,
      "start": 12.9144,
      "duration": 0.2006,
      "velocity": 83,
      "chip": "ym2612"
    },
    {
      "channel": 2,
      "note": 37,
      "start": 12.9151,
      "duration": 0.0534,
      "velocity": 120,
      "chip": "ym2612"
    },
    {
      "channel": 1,
      "note": 58,
      "start": 13.0127,
      "duration": 0.1005,
      "velocity": 97,
      "chip": "ym2612"
    },
    {
      "channel": 2,
      "note": 37,
      "start": 13.0145,
      "duration": 0.055,
      "velocity": 120,
      "chip": "ym2612"
    },
    {
      "channel": 1,
      "note": 53,
      "start": 13.1137,
      "duration": 0.0997,
      "velocity": 97,
      "chip": "ym2612"
    },
    {
      "channel": 3,
      "note": 82,
      "start": 13.1143,
      "duration": 0.0994,
      "velocity": 83,
      "chip": "ym2612"
    },
    {
      "channel": 4,
      "note": 77,
      "start": 13.1149,
      "duration": 0.0994,
      "velocity": 83,
      "chip": "ym2612"
    },
    {
      "channel": 5,
      "note": 75,
      "start": 13.1155,
      "duration": 0.0996,
      "velocity": 83,
      "chip": "ym2612"
    },
    {
      "channel": 2,
      "note": 37,
      "start": 13.1163,
      "duration": 0.0539,
      "velocity": 120,
      "chip": "ym2612"
    },
    {
      "channel": 3,
      "note": 82,
      "start": 13.2142,
      "duration": 0.1005,
      "velocity": 83,
      "chip": "ym2612"
    },
    {
      "channel": 4,
      "note": 77,
      "start": 13.2149,
      "duration": 0.1006,
      "velocity": 83,
      "chip": "ym2612"
    },
    {
      "channel": 5,
      "note": 75,
      "start": 13.2157,
      "duration": 0.1006,
      "velocity": 83,
      "chip": "ym2612"
    },
    {
      "channel": 2,
      "note": 37,
      "start": 13.2164,
      "duration": 0.0542,
      "velocity": 120,
      "chip": "ym2612"
    },
    {
      "channel": 1,
      "note": 55,
      "start": 13.3146,
      "duration": 0.1001,
      "velocity": 97,
      "chip": "ym2612"
    },
    {
      "channel": 3,
      "note": 80,
      "start": 13.3154,
      "duration": 0.0997,
      "velocity": 83,
      "chip": "ym2612"
    },
    {
      "channel": 4,
      "note": 77,
      "start": 13.3161,
      "duration": 0.0997,
      "velocity": 83,
      "chip": "ym2612"
    },
    {
      "channel": 5,
      "note": 75,
      "start": 13.3168,
      "duration": 0.0998,
      "velocity": 83,
      "chip": "ym2612"
    },
    {
      "channel": 2,
      "note": 82,
      "start": 13.3179,
      "duration": 0.094,
      "velocity": 127,
      "chip": "ym2612"
    },
    {
      "channel": 3,
      "note": 82,
      "start": 13.4157,
      "duration": 0.0978,
      "velocity": 83,
      "chip": "ym2612"
    },
    {
      "channel": 4,
      "note": 77,
      "start": 13.4165,
      "duration": 0.0973,
      "velocity": 83,
      "chip": "ym2612"
    },
    {
      "channel": 5,
      "note": 75,
      "start": 13.4172,
      "duration": 0.097,
      "velocity": 83,
      "chip": "ym2612"
    },
    {
      "channel": 2,
      "note": 37,
      "start": 13.4179,
      "duration": 0.0557,
      "velocity": 120,
      "chip": "ym2612"
    },
    {
      "channel": 1,
      "note": 56,
      "start": 13.5134,
      "duration": 0.1028,
      "velocity": 97,
      "chip": "ym2612"
    },
    {
      "channel": 3,
      "note": 80,
      "start": 13.6171,
      "duration": 0.0978,
      "velocity": 83,
      "chip": "ym2612"
    },
    {
      "channel": 4,
      "note": 77,
      "start": 13.6178,
      "duration": 0.0978,
      "velocity": 83,
      "chip": "ym2612"
    },
    {
      "channel": 5,
      "note": 75,
      "start": 13.6185,
      "duration": 0.0978,
      "velocity": 83,
      "chip": "ym2612"
    },
    {
      "channel": 2,
      "note": 37,
      "start": 13.6193,
      "duration": 0.0556,
      "velocity": 120,
      "chip": "ym2612"
    },
    {
      "channel": 1,
      "note": 58,
      "start": 13.7147,
      "duration": 0.1028,
      "velocity": 97,
      "chip": "ym2612"
    },
    {
      "channel": 3,
      "note": 82,
      "start": 13.7155,
      "duration": 0.1023,
      "velocity": 83,
      "chip": "ym2612"
    },
    {
      "channel": 4,
      "note": 77,
      "start": 13.7161,
      "duration": 0.102,
      "velocity": 83,
      "chip": "ym2612"
    },
    {
      "channel": 5,
      "note": 75,
      "start": 13.7169,
      "duration": 0.1015,
      "velocity": 83,
      "chip": "ym2612"
    },
    {
      "channel": 2,
      "note": 37,
      "start": 13.8193,
      "duration": 0.055,
      "velocity": 120,
      "chip": "ym2612"
    },
    {
      "channel": 1,
      "note": 53,
      "start": 13.9187,
      "duration": 0.0974,
      "velocity": 97,
      "chip": "ym2612"
    },
    {
      "channel": 3,
      "note": 80,
      "start": 13.9195,
      "duration": 0.0974,
      "velocity": 83,
      "chip": "ym2612"
    },
    {
      "channel": 4,
      "note": 77,
      "start": 13.9202,
      "duration": 0.097,
      "velocity": 83,
      "chip": "ym2612"
    },
    {
      "channel": 5,
      "note": 75,
      "start": 13.9209,
      "duration": 0.0966,
      "velocity": 83,
      "chip": "ym2612"
    },
    {
      "channel": 2,
      "note": 37,
      "start": 13.9216,
      "duration": 0.0539,
      "velocity": 120,
      "chip": "ym2612"
    },
    {
      "channel": 1,
      "note": 55,
      "start": 14.0167,
      "duration": 0.1027,
      "velocity": 97,
      "chip": "ym2612"
    },
    {
      "channel": 3,
      "note": 82,
      "start": 14.1204,
      "duration": 0.4041,
      "velocity": 83,
      "chip": "ym2612"
    },
    {
      "channel": 4,
      "note": 77,
      "start": 14.1212,
      "duration": 0.4041,
      "velocity": 83,
      "chip": "ym2612"
    },
    {
      "channel": 5,
      "note": 75,
      "start": 14.1236,
      "duration": 0.4025,
      "velocity": 83,
      "chip": "ym2612"
    },
    {
      "channel": 2,
      "note": 82,
      "start": 14.1246,
      "duration": 0.1027,
      "velocity": 127,
      "chip": "ym2612"
    },
    {
      "channel": 1,
      "note": 55,
      "start": 14.2181,
      "duration": 0.1027,
      "velocity": 97,
      "chip": "ym2612"
    },
    {
      "channel": 2,
      "note": 37,
      "start": 14.3243,
      "duration": 0.0537,
      "velocity": 120,
      "chip": "ym2612"
    },
    {
      "channel": 1,
      "note": 56,
      "start": 14.4237,
      "duration": 0.1005,
      "velocity": 97,
      "chip": "ym2612"
    },
    {
      "channel": 2,
      "note": 82,
      "start": 14.4257,
      "duration": 0.0936,
      "velocity": 127,
      "chip": "ym2612"
    },
    {
      "channel": 3,
      "note": 82,
      "start": 14.5251,
      "duration": 0.2007,
      "velocity": 83,
      "chip": "ym2612"
    },
    {
      "channel": 4,
      "note": 77,
      "start": 14.5259,
      "duration": 0.2006,
      "velocity": 83,
      "chip": "ym2612"
    },
    {
      "channel": 5,
      "note": 75,
      "start": 14.5266,
      "duration": 0.2004,
      "velocity": 83,
      "chip": "ym2612"
    },
    {
      "channel": 2,
      "note": 37,
      "start": 14.5274,
      "duration": 0.0519,
      "velocity": 120,
      "chip": "ym2612"
    },
    {
      "channel": 1,
      "note": 58,
      "start": 14.6207,
      "duration": 0.1044,
      "velocity": 97,
      "chip": "ym2612"
    },
    {
      "channel": 1,
      "note": 53,
      "start": 14.7257,
      "duration": 0.1001,
      "velocity": 97,
      "chip": "ym2612"
    },
    {
      "channel": 3,
      "note": 82,
      "start": 14.7263,
      "duration": 0.0998,
      "velocity": 83,
      "chip": "ym2612"
    },
    {
      "channel": 4,
      "note": 77,
      "start": 14.7269,
      "duration": 0.0997,
      "velocity": 83,
      "chip": "ym2612"
    },
    {
      "channel": 5,
      "note": 75,
      "start": 14.7275,
      "duration": 0.0999,
      "velocity": 83,
      "chip": "ym2612"
    },
    {
      "channel": 2,
      "note": 37,
      "start": 14.7282,
      "duration": 0.0527,
      "velocity": 120,
      "chip": "ym2612"
    },
    {
      "channel": 3,
      "note": 82,
      "start": 14.8265,
      "duration": 0.1006,
      "velocity": 83,
      "chip": "ym2612"
    },
    {
      "channel": 4,
      "note": 77,
      "start": 14.8272,
      "duration": 0.1006,
      "velocity": 83,
      "chip": "ym2612"
    },
    {
      "channel": 5,
      "note": 75,
      "start": 14.828,
      "duration": 0.1006,
      "velocity": 83,
      "chip": "ym2612"
    },
    {
      "channel": 2,
      "note": 37,
      "start": 14.8287,
      "duration": 0.0527,
      "velocity": 120,
      "chip": "ym2612"
    },
    {
      "channel": 1,
      "note": 55,
      "start": 14.927,
      "duration": 0.0998,
      "velocity": 97,
      "chip": "ym2612"
    },
    {
      "channel": 3,
      "note": 80,
      "start": 14.9277,
      "duration": 0.0993,
      "velocity": 83,
      "chip": "ym2612"
    },
    {
      "channel": 4,
      "note": 77,
      "start": 14.9284,
      "duration": 0.0994,
      "velocity": 83,
      "chip": "ym2612"
    },
    {
      "channel": 5,
      "note": 75,
      "start": 14.9292,
      "duration": 0.0993,
      "velocity": 83,
      "chip": "ym2612"
    },
    {
      "channel": 2,
      "note": 82,
      "start": 14.9302,
      "duration": 0.0936,
      "velocity": 127,
      "chip": "ym2612"
    },
    {
      "channel": 3,
      "note": 82,
      "start": 15.0276,
      "duration": 0.0975,
      "velocity": 83,
      "chip": "ym2612"
    },
    {
      "channel": 4,
      "note": 77,
      "start": 15.0284,
      "duration": 0.0975,
      "velocity": 83,
      "chip": "ym2612"
    },
    {
      "channel": 5,
      "note": 75,
      "start": 15.0291,
      "duration": 0.0975,
      "velocity": 83,
      "chip": "ym2612"
    },
    {
      "channel": 2,
      "note": 37,
      "start": 15.0298,
      "duration": 0.0529,
      "velocity": 120,
      "chip": "ym2612"
    },
    {
      "channel": 1,
      "note": 56,
      "start": 15.125,
      "duration": 0.1019,
      "velocity": 97,
      "chip": "ym2612"
    },
    {
      "channel": 3,
      "note": 80,
      "start": 15.1257,
      "duration": 0.1015,
      "velocity": 83,
      "chip": "ym2612"
    },
    {
      "channel": 4,
      "note": 77,
      "start": 15.1265,
      "duration": 0.1015,
      "velocity": 83,
      "chip": "ym2612"
    },
    {
      "channel": 5,
      "note": 75,
      "start": 15.1272,
      "duration": 0.1015,
      "velocity": 83,
      "chip": "ym2612"
    },
    {
      "channel": 3,
      "note": 80,
      "start": 15.2278,
      "duration": 0.0978,
      "velocity": 83,
      "chip": "ym2612"
    },
    {
      "channel": 4,
      "note": 77,
      "start": 15.2285,
      "duration": 0.0978,
      "velocity": 83,
      "chip": "ym2612"
    },
    {
      "channel": 5,
      "note": 75,
      "start": 15.2293,
      "duration": 0.0978,
      "velocity": 83,
      "chip": "ym2612"
    },
    {
      "channel": 2,
      "note": 37,
      "start": 15.23,
      "duration": 0.054,
      "velocity": 120,
      "chip": "ym2612"
    },
    {
      "channel": 1,
      "note": 58,
      "start": 15.3254,
      "duration": 0.1027,
      "velocity": 97,
      "chip": "ym2612"
    },
    {
      "channel": 3,
      "note": 82,
      "start": 15.3262,
      "duration": 0.1022,
      "velocity": 83,
      "chip": "ym2612"
    },
    {
      "channel": 4,
      "note": 77,
      "start": 15.3269,
      "duration": 0.1018,
      "velocity": 83,
      "chip": "ym2612"
    },
    {
      "channel": 5,
      "note": 75,
      "start": 15.3277,
      "duration": 0.1014,
      "velocity": 83,
      "chip": "ym2612"
    },
    {
      "channel": 2,
      "note": 37,
      "start": 15.43,
      "duration": 0.0546,
      "velocity": 120,
      "chip": "ym2612"
    },
    {
      "channel": 1,
      "note": 53,
      "start": 15.5295,
      "duration": 0.0974,
      "velocity": 97,
      "chip": "ym2612"
    },
    {
      "channel": 3,
      "note": 80,
      "start": 15.5302,
      "duration": 0.097,
      "velocity": 83,
      "chip": "ym2612"
    },
    {
      "channel": 4,
      "note": 77,
      "start": 15.5309,
      "duration": 0.0966,
      "velocity": 83,
      "chip": "ym2612"
    },
    {
      "channel": 5,
      "note": 75,
      "start": 15.5317,
      "duration": 0.0961,
      "velocity": 83,
      "chip": "ym2612"
    },
    {
      "channel": 2,
      "note": 37,
      "start": 15.5324,
      "duration": 0.0539,
      "velocity": 120,
      "chip": "ym2612"
    },
    {
      "channel": 1,
      "note": 57,
      "start": 15.7308,
      "duration": 0.1,
      "velocity": 97,
      "chip": "ym2612"
    },
    {
      "channel": 3,
      "note": 79,
      "start": 15.7315,
      "duration": 0.4022,
      "velocity": 83,
      "chip": "ym2612"
    },
    {
      "channel": 4,
      "note": 74,
      "start": 15.7323,
      "duration": 0.4022,
      "velocity": 83,
      "chip": "ym2612"
    },
    {
      "channel": 5,
      "note": 72,
      "start": 15.7331,
      "duration": 0.4022,
      "velocity": 83,
      "chip": "ym2612"
    },
    {
      "channel": 2,
      "note": 82,
      "start": 15.7341,
      "duration": 0.0938,
      "velocity": 127,
      "chip": "ym2612"
    },
    {
      "channel": 1,
      "note": 57,
      "start": 15.8314,
      "duration": 0.1001,
      "velocity": 97,
      "chip": "ym2612"
    },
    {
      "channel": 2,
      "note": 82,
      "start": 15.8334,
      "duration": 0.0952,
      "velocity": 127,
      "chip": "ym2612"
    },
    {
      "channel": 1,
      "note": 57,
      "start": 15.9321,
      "duration": 0.1,
      "velocity": 97,
      "chip": "ym2612"
    },
    {
      "channel": 2,
      "note": 82,
      "start": 15.9341,
      "duration": 0.0952,
      "velocity": 127,
      "chip": "ym2612"
    },
    {
      "channel": 1,
      "note": 57,
      "start": 16.0328,
      "duration": 0.1006,
      "velocity": 97,
      "chip": "ym2612"
    },
    {
      "channel": 2,
      "note": 82,
      "start": 16.0349,
      "duration": 0.0953,
      "velocity": 127,
      "chip": "ym2612"
    },
    {
      "channel": 3,
      "note": 78,
      "start": 16.1343,
      "duration": 0.2002,
      "velocity": 83,
      "chip": "ym2612"
    },
    {
      "channel": 4,
      "note": 73,
      "start": 16.1351,
      "duration": 0.2,
      "velocity": 83,
      "chip": "ym2612"
    },
    {
      "channel": 5,
      "note": 71,
      "start": 16.1358,
      "duration": 0.1999,
      "velocity": 83,
      "chip": "ym2612"
    },
    {
      "channel": 2,
      "note": 37,
      "start": 16.1366,
      "duration": 0.055,
      "velocity": 120,
      "chip": "ym2612"
    },
    {
      "channel": 1,
      "note": 54,
      "start": 16.2341,
      "duration": 0.1,
      "velocity": 97,
      "chip": "ym2612"
    },
    {
      "channel": 2,
      "note": 37,
      "start": 16.2358,
      "duration": 0.0562,
      "velocity": 120,
      "chip": "ym2612"
    },
    {
      "channel": 3,
      "note": 78,
      "start": 16.3349,
      "duration": 0.1006,
      "velocity": 83,
      "chip": "ym2612"
    },
    {
      "channel": 4,
      "note": 73,
      "start": 16.3355,
      "duration": 0.1007,
      "velocity": 83,
      "chip": "ym2612"
    },
    {
      "channel": 5,
      "note": 71,
      "start": 16.3361,
      "duration": 0.1008,
      "velocity": 83,
      "chip": "ym2612"
    },
    {
      "channel": 2,
      "note": 37,
      "start": 16.3368,
      "duration": 0.0549,
      "velocity": 120,
      "chip": "ym2612"
    },
    {
      "channel": 1,
      "note": 49,
      "start": 16.4354,
      "duration": 0.1001,
      "velocity": 97,
      "chip": "ym2612"
    },
    {
      "channel": 3,
      "note": 78,
      "start": 16.436,
      "duration": 0.1002,
      "velocity": 83,
      "chip": "ym2612"
    },
    {
      "channel": 4,
      "note": 73,
      "start": 16.4368,
      "duration": 0.1002,
      "velocity": 83,
      "chip": "ym2612"
    },
    {
      "channel": 5,
      "note": 71,
      "start": 16.4375,
      "duration": 0.1002,
      "velocity": 83,
      "chip": "ym2612"
    },
    {
      "channel": 2,
      "note": 37,
      "start": 16.4382,
      "duration": 0.0542,
      "velocity": 120,
      "chip": "ym2612"
    },
    {
      "channel": 1,
      "note": 52,
      "start": 16.5361,
      "duration": 0.1002,
      "velocity": 97,
      "chip": "ym2612"
    },
    {
      "channel": 3,
      "note": 75,
      "start": 16.5368,
      "duration": 0.0998,
      "velocity": 83,
      "chip": "ym2612"
    },
    {
      "channel": 4,
      "note": 73,
      "start": 16.5375,
      "duration": 0.0998,
      "velocity": 83,
      "chip": "ym2612"
    },
    {
      "channel": 5,
      "note": 71,
      "start": 16.5383,
      "duration": 0.0997,
      "velocity": 83,
      "chip": "ym2612"
    },
    {
      "channel": 2,
      "note": 82,
      "start": 16.541,
      "duration": 0.0924,
      "velocity": 127,
      "chip": "ym2612"
    },
    {
      "channel": 3,
      "note": 78,
      "start": 16.6371,
      "duration": 0.0978,
      "velocity": 83,
      "chip": "ym2612"
    },
    {
      "channel": 4,
      "note": 73,
      "start": 16.6379,
      "duration": 0.0974,
      "velocity": 83,
      "chip": "ym2612"
    },
    {
      "channel": 5,
      "note": 71,
      "start": 16.6403,
      "duration": 0.0954,
      "velocity": 83,
      "chip": "ym2612"
    },
    {
      "channel": 2,
      "note": 37,
      "start": 16.641,
      "duration": 0.0524,
      "velocity": 120,
      "chip": "ym2612"
    },
    {
      "channel": 1,
      "note": 51,
      "start": 16.7349,
      "duration": 0.1027,
      "velocity": 97,
      "chip": "ym2612"
    },
    {
      "channel": 3,
      "note": 75,
      "start": 16.8385,
      "duration": 0.0978,
      "velocity": 83,
      "chip": "ym2612"
    },
    {
      "channel": 4,
      "note": 73,
      "start": 16.8408,
      "duration": 0.0963,
      "velocity": 83,
      "chip": "ym2612"
    },
    {
      "channel": 5,
      "note": 71,
      "start": 16.8415,
      "duration": 0.0962,
      "velocity": 83,
      "chip": "ym2612"
    },
    {
      "channel": 2,
      "note": 37,
      "start": 16.8422,
      "duration": 0.0525,
      "velocity": 120,
      "chip": "ym2612"
    },
    {
      "channel": 1,
      "note": 52,
      "start": 16.9362,
      "duration": 0.1043,
      "velocity": 97,
      "chip": "ym2612"
    },
    {
      "channel": 3,
      "note": 78,
      "start": 16.9369,
      "duration": 0.1039,
      "velocity": 83,
      "chip": "ym2612"
    },
    {
      "channel": 4,
      "note": 73,
      "start": 16.9377,
      "duration": 0.1035,
      "velocity": 83,
      "chip": "ym2612"
    },
    {
      "channel": 5,
      "note": 71,
      "start": 16.9384,
      "duration": 0.1031,
      "velocity": 83,
      "chip": "ym2612"
    },
    {
      "channel": 2,
      "note": 37,
      "start": 17.0424,
      "duration": 0.0529,
      "velocity": 120,
      "chip": "ym2612"
    },
    {
      "channel": 1,
      "note": 51,
      "start": 17.1417,
      "duration": 0.0958,
      "velocity": 97,
      "chip": "ym2612"
    },
    {
      "channel": 3,
      "note": 75,
      "start": 17.1425,
      "duration": 0.0954,
      "velocity": 83,
      "chip": "ym2612"
    },
    {
      "channel": 4,
      "note": 73,
      "start": 17.1433,
      "duration": 0.0949,
      "velocity": 83,
      "chip": "ym2612"
    },
    {
      "channel": 5,
      "note": 71,
      "start": 17.1439,
      "duration": 0.0961,
      "velocity": 83,
      "chip": "ym2612"
    },
    {
      "channel": 2,
      "note": 37,
      "start": 17.1447,
      "duration": 0.0522,
      "velocity": 120,
      "chip": "ym2612"
    },
    {
      "channel": 1,
      "note": 52,
      "start": 17.3431,
      "duration": 0.0975,
      "velocity": 97,
      "chip": "ym2612"
    },
    {
      "channel": 3,
      "note": 77,
      "start": 17.3439,
      "duration": 0.4004,
      "velocity": 83,
      "chip": "ym2612"
    },
    {
      "channel": 4,
      "note": 73,
      "start": 17.3446,
      "duration": 0.4005,
      "velocity": 83,
      "chip": "ym2612"
    },
    {
      "channel": 5,
      "note": 71,
      "start": 17.3454,
      "duration": 0.4005,
      "velocity": 83,
      "chip": "ym2612"
    },
    {
      "channel": 2,
      "note": 82,
      "start": 17.3464,
      "duration": 0.1022,
      "velocity": 127,
      "chip": "ym2612"
    },
    {
      "channel": 1,
      "note": 54,
      "start": 17.4412,
      "duration": 0.1026,
      "velocity": 97,
      "chip": "ym2612"
    },
    {
      "channel": 2,
      "note": 37,
      "start": 17.5457,
      "duration": 0.0538,
      "velocity": 120,
      "chip": "ym2612"
    },
    {
      "channel": 1,
      "note": 49,
      "start": 17.6439,
      "duration": 0.1001,
      "velocity": 97,
      "chip": "ym2612"
    },
    {
      "channel": 2,
      "note": 82,
      "start": 17.6459,
      "duration": 0.0947,
      "velocity": 127,
      "chip": "ym2612"
    },
    {
      "channel": 3,
      "note": 78,
      "start": 17.745,
      "duration": 0.2002,
      "velocity": 83,
      "chip": "ym2612"
    },
    {
      "channel": 4,
      "note": 73,
      "start": 17.7457,
      "duration": 0.2001,
      "velocity": 83,
      "chip": "ym2612"
    },
    {
      "channel": 5,
      "note": 71,
      "start": 17.7465,
      "duration": 0.1999,
      "velocity": 83,
      "chip": "ym2612"
    },
    {
      "channel": 2,
      "note": 37,
      "start": 17.7472,
      "duration": 0.0536,
      "velocity": 120,
      "chip": "ym2612"
    },
    {
      "channel": 1,
      "note": 54,
      "start": 17.8421,
      "duration": 0.1028,
      "velocity": 97,
      "chip": "ym2612"
    },
    {
      "channel": 3,
      "note": 78,
      "start": 17.9457,
      "duration": 0.1006,
      "velocity": 83,
      "chip": "ym2612"
    },
    {
      "channel": 4,
      "note": 73,
      "start": 17.9462,
      "duration": 0.1006,
      "velocity": 83,
      "chip": "ym2612"
    },
    {
      "channel": 5,
      "note": 71,
      "start": 17.9469,
      "duration": 0.1007,
      "velocity": 83,
      "chip": "ym2612"
    },
    {
      "channel": 2,
      "note": 37,
      "start": 17.9476,
      "duration": 0.0545,
      "velocity": 120,
      "chip": "ym2612"
    },
    {
      "channel": 1,
      "note": 49,
      "start": 18.0461,
      "duration": 0.1001,
      "velocity": 97,
      "chip": "ym2612"
    },
    {
      "channel": 3,
      "note": 78,
      "start": 18.0467,
      "duration": 0.1002,
      "velocity": 83,
      "chip": "ym2612"
    },
    {
      "channel": 4,
      "note": 73,
      "start": 18.0475,
      "duration": 0.1002,
      "velocity": 83,
      "chip": "ym2612"
    },
    {
      "channel": 5,
      "note": 71,
      "start": 18.0482,
      "duration": 0.1002,
      "velocity": 83,
      "chip": "ym2612"
    },
    {
      "channel": 2,
      "note": 37,
      "start": 18.0489,
      "duration": 0.054,
      "velocity": 120,
      "chip": "ym2612"
    },
    {
      "channel": 1,
      "note": 52,
      "start": 18.1468,
      "duration": 0.1001,
      "velocity": 97,
      "chip": "ym2612"
    },
    {
      "channel": 3,
      "note": 75,
      "start": 18.1475,
      "duration": 0.0998,
      "velocity": 83,
      "chip": "ym2612"
    },
    {
      "channel": 4,
      "note": 73,
      "start": 18.1483,
      "duration": 0.0998,
      "velocity": 83,
      "chip": "ym2612"
    },
    {
      "channel": 5,
      "note": 71,
      "start": 18.149,
      "duration": 0.0997,
      "velocity": 83,
      "chip": "ym2612"
    },
    {
      "channel": 2,
      "note": 82,
      "start": 18.1501,
      "duration": 0.094,
      "velocity": 127,
      "chip": "ym2612"
    },
    {
      "channel": 3,
      "note": 78,
      "start": 18.2478,
      "duration": 0.0978,
      "velocity": 83,
      "chip": "ym2612"
    },
    {
      "channel": 4,
      "note": 73,
      "start": 18.2486,
      "duration": 0.0978,
      "velocity": 83,
      "chip": "ym2612"
    },
    {
      "channel": 5,
      "note": 71,
      "start": 18.2494,
      "duration": 0.0978,
      "velocity": 83,
      "chip": "ym2612"
    },
    {
      "channel": 2,
      "note": 37,
      "start": 18.2501,
      "duration": 0.054,
      "velocity": 120,
      "chip": "ym2612"
    },
    {
      "channel": 1,
      "note": 51,
      "start": 18.3455,
      "duration": 0.103,
      "velocity": 97,
      "chip": "ym2612"
    },
    {
      "channel": 3,
      "note": 75,
      "start": 18.3462,
      "duration": 0.1026,
      "velocity": 83,
      "chip": "ym2612"
    },
    {
      "channel": 4,
      "note": 73,
      "start": 18.3469,
      "duration": 0.1025,
      "velocity": 83,
      "chip": "ym2612"
    },
    {
      "channel": 5,
      "note": 71,
      "start": 18.3477,
      "duration": 0.1025,
      "velocity": 83,
      "chip": "ym2612"
    },
    {
      "channel": 3,
      "note": 75,
      "start": 18.4494,
      "duration": 0.0976,
      "velocity": 83,
      "chip": "ym2612"
    },
    {
      "channel": 4,
      "note": 73,
      "start": 18.4501,
      "duration": 0.0976,
      "velocity": 83,
      "chip": "ym2612"
    },
    {
      "channel": 5,
      "note": 71,
      "start": 18.4508,
      "duration": 0.0977,
      "velocity": 83,
      "chip": "ym2612"
    },
    {
      "channel": 2,
      "note": 37,
      "start": 18.4516,
      "duration": 0.0555,
      "velocity": 120,
      "chip": "ym2612"
    },
    {
      "channel": 1,
      "note": 52,
      "start": 18.5468,
      "duration": 0.1027,
      "velocity": 97,
      "chip": "ym2612"
    },
    {
      "channel": 3,
      "note": 78,
      "start": 18.5476,
      "duration": 0.1023,
      "velocity": 83,
      "chip": "ym2612"
    },
    {
      "channel": 4,
      "note": 73,
      "start": 18.5483,
      "duration": 0.1018,
      "velocity": 83,
      "chip": "ym2612"
    },
    {
      "channel": 5,
      "note": 71,
      "start": 18.549,
      "duration": 0.1015,
      "velocity": 83,
      "chip": "ym2612"
    },
    {
      "channel": 2,
      "note": 37,
      "start": 18.6514,
      "duration": 0.0563,
      "velocity": 120,
      "chip": "ym2612"
    },
    {
      "channel": 1,
      "note": 51,
      "start": 18.7508,
      "duration": 0.0975,
      "velocity": 97,
      "chip": "ym2612"
    },
    {
      "channel": 3,
      "note": 75,
      "start": 18.7516,
      "duration": 0.0971,
      "velocity": 83,
      "chip": "ym2612"
    },
    {
      "channel": 4,
      "note": 73,
      "start": 18.7523,
      "duration": 0.0967,
      "velocity": 83,
      "chip": "ym2612"
    },
    {
      "channel": 5,
      "note": 71,
      "start": 18.7531,
      "duration": 0.0962,
      "velocity": 83,
      "chip": "ym2612"
    },
    {
      "channel": 2,
      "note": 37,
      "start": 18.7537,
      "duration": 0.055,
      "velocity": 120,
      "chip": "ym2612"
    },
    {
      "channel": 1,
      "note": 52,
      "start": 18.9522,
      "duration": 0.0974,
      "velocity": 97,
      "chip": "ym2612"
    },
    {
      "channel": 3,
      "note": 77,
      "start": 18.953,
      "duration": 0.4038,
      "velocity": 83,
      "chip": "ym2612"
    },
    {
      "channel": 4,
      "note": 73,
      "start": 18.9537,
      "duration": 0.4038,
      "velocity": 83,
      "chip": "ym2612"
    },
    {
      "channel": 5,
      "note": 71,
      "start": 18.9545,
      "duration": 0.4038,
      "velocity": 83,
      "chip": "ym2612"
    },
    {
      "channel": 2,
      "note": 82,
      "start": 18.9571,
      "duration": 0.1023,
      "velocity": 127,
      "chip": "ym2612"
    },
    {
      "channel": 1,
      "note": 54,
      "start": 19.0502,
      "duration": 0.1027,
      "velocity": 97,
      "chip": "ym2612"
    },
    {
      "channel": 2,
      "note": 37,
      "start": 19.1548,
      "duration": 0.0552,
      "velocity": 120,
      "chip": "ym2612"
    },
    {
      "channel": 1,
      "note": 49,
      "start": 19.2543,
      "duration": 0.1005,
      "velocity": 97,
      "chip": "ym2612"
    },
    {
      "channel": 2,
      "note": 37,
      "start": 19.2576,
      "duration": 0.0534,
      "velocity": 120,
      "chip": "ym2612"
    },
    {
      "channel": 3,
      "note": 78,
      "start": 19.3574,
      "duration": 0.2005,
      "velocity": 83,
      "chip": "ym2612"
    },
    {
      "channel": 4,
      "note": 73,
      "start": 19.3582,
      "duration": 0.2003,
      "velocity": 83,
      "chip": "ym2612"
    },
    {
      "channel": 5,
      "note": 71,
      "start": 19.359,
      "duration": 0.2002,
      "velocity": 83,
      "chip": "ym2612"
    },
    {
      "channel": 2,
      "note": 37,
      "start": 19.3597,
      "duration": 0.0517,
      "velocity": 120,
      "chip": "ym2612"
    },
    {
      "channel": 1,
      "note": 54,
      "start": 19.4572,
      "duration": 0.1005,
      "velocity": 97,
      "chip": "ym2612"
    },
    {
      "channel": 2,
      "note": 37,
      "start": 19.4589,
      "duration": 0.0534,
      "velocity": 120,
      "chip": "ym2612"
    },
    {
      "channel": 3,
      "note": 78,
      "start": 19.5584,
      "duration": 0.1002,
      "velocity": 83,
      "chip": "ym2612"
    },
    {
      "channel": 4,
      "note": 73,
      "start": 19.559,
      "duration": 0.1003,
      "velocity": 83,
      "chip": "ym2612"
    },
    {
      "channel": 5,
      "note": 71,
      "start": 19.5596,
      "duration": 0.1003,
      "velocity": 83,
      "chip": "ym2612"
    },
    {
      "channel": 2,
      "note": 37,
      "start": 19.5603,
      "duration": 0.0525,
      "velocity": 120,
      "chip": "ym2612"
    },
    {
      "channel": 1,
      "note": 49,
      "start": 19.6585,
      "duration": 0.1001,
      "velocity": 97,
      "chip": "ym2612"
    },
    {
      "channel": 3,
      "note": 78,
      "start": 19.659,
      "duration": 0.1002,
      "velocity": 83,
      "chip": "ym2612"
    },
    {
      "channel": 4,
      "note": 73,
      "start": 19.6598,
      "duration": 0.1002,
      "velocity": 83,
      "chip": "ym2612"
    },
    {
      "channel": 5,
      "note": 71,
      "start": 19.6606,
      "duration": 0.1002,
      "velocity": 83,
      "chip": "ym2612"
    },
    {
      "channel": 2,
      "note": 37,
      "start": 19.6612,
      "duration": 0.0525,
      "velocity": 120,
      "chip": "ym2612"
    },
    {
      "channel": 1,
      "note": 52,
      "start": 19.7592,
      "duration": 0.1001,
      "velocity": 97,
      "chip": "ym2612"
    },
    {
      "channel": 3,
      "note": 75,
      "start": 19.7599,
      "duration": 0.0997,
      "velocity": 83,
      "chip": "ym2612"
    },
    {
      "channel": 4,
      "note": 73,
      "start": 19.7606,
      "duration": 0.0997,
      "velocity": 83,
      "chip": "ym2612"
    },
    {
      "channel": 5,
      "note": 71,
      "start": 19.7614,
      "duration": 0.0997,
      "velocity": 83,
      "chip": "ym2612"
    },
    {
      "channel": 2,
      "note": 82,
      "start": 19.7624,
      "duration": 0.0924,
      "velocity": 127,
      "chip": "ym2612"
    },
    {
      "channel": 3,
      "note": 78,
      "start": 19.8602,
      "duration": 0.0978,
      "velocity": 83,
      "chip": "ym2612"
    },
    {
      "channel": 4,
      "note": 73,
      "start": 19.8609,
      "duration": 0.0973,
      "velocity": 83,
      "chip": "ym2612"
    },
    {
      "channel": 5,
      "note": 71,
      "start": 19.8616,
      "duration": 0.097,
      "velocity": 83,
      "chip": "ym2612"
    },
    {
      "channel": 2,
      "note": 37,
      "start": 19.8624,
      "duration": 0.0524,
      "velocity": 120,
      "chip": "ym2612"
    },
    {
      "channel": 1,
      "note": 51,
      "start": 19.9578,
      "duration": 0.1022,
      "velocity": 97,
      "chip": "ym2612"
    },
    {
      "channel": 3,
      "note": 75,
      "start": 20.0609,
      "duration": 0.0972,
      "velocity": 83,
      "chip": "ym2612"
    },
    {
      "channel": 4,
      "note": 73,
      "start": 20.0616,
      "duration": 0.0972,
      "velocity": 83,
      "chip": "ym2612"
    },
    {
      "channel": 5,
      "note": 71,
      "start": 20.0624,
      "duration": 0.0971,
      "velocity": 83,
      "chip": "ym2612"
    },
    {
      "channel": 2,
      "note": 37,
      "start": 20.0631,
      "duration": 0.053,
      "velocity": 120,
      "chip": "ym2612"
    },
    {
      "channel": 1,
      "note": 52,
      "start": 20.1579,
      "duration": 0.1024,
      "velocity": 97,
      "chip": "ym2612"
    },
    {
      "channel": 3,
      "note": 78,
      "start": 20.1586,
      "duration": 0.102,
      "velocity": 83,
      "chip": "ym2612"
    },
    {
      "channel": 4,
      "note": 73,
      "start": 20.1594,
      "duration": 0.1015,
      "velocity": 83,
      "chip": "ym2612"
    },
    {
      "channel": 5,
      "note": 71,
      "start": 20.1602,
      "duration": 0.1011,
      "velocity": 83,
      "chip": "ym2612"
    },
    {
      "channel": 2,
      "note": 37,
      "start": 20.2622,
      "duration": 0.0545,
      "velocity": 120,
      "chip": "ym2612"
    },
    {
      "channel": 1,
      "note": 51,
      "start": 20.3616,
      "duration": 0.0974,
      "velocity": 97,
      "chip": "ym2612"
    },
    {
      "channel": 3,
      "note": 75,
      "start": 20.3623,
      "duration": 0.0969,
      "velocity": 83,
      "chip": "ym2612"
    },
    {
      "channel": 4,
      "note": 73,
      "start": 20.3631,
      "duration": 0.0965,
      "velocity": 83,
      "chip": "ym2612"
    },
    {
      "channel": 5,
      "note": 71,
      "start": 20.3638,
      "duration": 0.0961,
      "velocity": 83,
      "chip": "ym2612"
    },
    {
      "channel": 2,
      "note": 37,
      "start": 20.3646,
      "duration": 0.0538,
      "velocity": 120,
      "chip": "ym2612"
    },
    {
      "channel": 1,
      "note": 52,
      "start": 20.5629,
      "duration": 0.0974,
      "velocity": 97,
      "chip": "ym2612"
    },
    {
      "channel": 3,
      "note": 77,
      "start": 20.5637,
      "duration": 0.4021,
      "velocity": 83,
      "chip": "ym2612"
    },
    {
      "channel": 4,
      "note": 73,
      "start": 20.5644,
      "duration": 0.4021,
      "velocity": 83,
      "chip": "ym2612"
    },
    {
      "channel": 5,
      "note": 71,
      "start": 20.5652,
      "duration": 0.4021,
      "velocity": 83,
      "chip": "ym2612"
    },
    {
      "channel": 2,
      "note": 82,
      "start": 20.5662,
      "duration": 0.1039,
      "velocity": 127,
      "chip": "ym2612"
    },
    {
      "channel": 1,
      "note": 54,
      "start": 20.6609,
      "duration": 0.1027,
      "velocity": 97,
      "chip": "ym2612"
    },
    {
      "channel": 2,
      "note": 37,
      "start": 20.7655,
      "duration": 0.0553,
      "velocity": 120,
      "chip": "ym2612"
    },
    {
      "channel": 1,
      "note": 49,
      "start": 20.8648,
      "duration": 0.1006,
      "velocity": 97,
      "chip": "ym2612"
    },
    {
      "channel": 2,
      "note": 82,
      "start": 20.8669,
      "duration": 0.0952,
      "velocity": 127,
      "chip": "ym2612"
    },
    {
      "channel": 3,
      "note": 78,
      "start": 20.9664,
      "duration": 0.2002,
      "velocity": 83,
      "chip": "ym2612"
    },
    {
      "channel": 4,
      "note": 73,
      "start": 20.9672,
      "duration": 0.2001,
      "velocity": 83,
      "chip": "ym2612"
    },
    {
      "channel": 5,
      "note": 71,
      "start": 20.9679,
      "duration": 0.1999,
      "velocity": 83,
      "chip": "ym2612"
    },
    {
      "channel": 2,
      "note": 37,
      "start": 20.9686,
      "duration": 0.0551,
      "velocity": 120,
      "chip": "ym2612"
    },
    {
      "channel": 1,
      "note": 54,
      "start": 21.0636,
      "duration": 0.1027,
      "velocity": 97,
      "chip": "ym2612"
    },
    {
      "channel": 3,
      "note": 78,
      "start": 21.1671,
      "duration": 0.1006,
      "velocity": 83,
      "chip": "ym2612"
    },
    {
      "channel": 4,
      "note": 73,
      "start": 21.1677,
      "duration": 0.1006,
      "velocity": 83,
      "chip": "ym2612"
    },
    {
      "channel": 5,
      "note": 71,
      "start": 21.1683,
      "duration": 0.1007,
      "velocity": 83,
      "chip": "ym2612"
    },
    {
      "channel": 2,
      "note": 37,
      "start": 21.169,
      "duration": 0.056,
      "velocity": 120,
      "chip": "ym2612"
    },
    {
      "channel": 1,
      "note": 49,
      "start": 21.2676,
      "duration": 0.1001,
      "velocity": 97,
      "chip": "ym2612"
    },
    {
      "channel": 3,
      "note": 78,
      "start": 21.2682,
      "duration": 0.1002,
      "velocity": 83,
      "chip": "ym2612"
    },
    {
      "channel": 4,
      "note": 73,
      "start": 21.2689,
      "duration": 0.1003,
      "velocity": 83,
      "chip": "ym2612"
    },
    {
      "channel": 5,
      "note": 71,
      "start": 21.2697,
      "duration": 0.1002,
      "velocity": 83,
      "chip": "ym2612"
    },
    {
      "channel": 2,
      "note": 37,
      "start": 21.2704,
      "duration": 0.0549,
      "velocity": 120,
      "chip": "ym2612"
    },
    {
      "channel": 1,
      "note": 52,
      "start": 21.3683,
      "duration": 0.1001,
      "velocity": 97,
      "chip": "ym2612"
    },
    {
      "channel": 3,
      "note": 75,
      "start": 21.369,
      "duration": 0.0997,
      "velocity": 83,
      "chip": "ym2612"
    },
    {
      "channel": 4,
      "note": 73,
      "start": 21.3698,
      "duration": 0.0997,
      "velocity": 83,
      "chip": "ym2612"
    },
    {
      "channel": 5,
      "note": 71,
      "start": 21.3705,
      "duration": 0.0996,
      "velocity": 83,
      "chip": "ym2612"
    },
    {
      "channel": 2,
      "note": 82,
      "start": 21.3716,
      "duration": 0.0939,
      "velocity": 127,
      "chip": "ym2612"
    },
    {
      "channel": 3,
      "note": 78,
      "start": 21.4693,
      "duration": 0.0978,
      "velocity": 83,
      "chip": "ym2612"
    },
    {
      "channel": 4,
      "note": 73,
      "start": 21.47,
      "duration": 0.0978,
      "velocity": 83,
      "chip": "ym2612"
    },
    {
      "channel": 5,
      "note": 71,
      "start": 21.4708,
      "duration": 0.0978,
      "velocity": 83,
      "chip": "ym2612"
    },
    {
      "channel": 2,
      "note": 37,
      "start": 21.4715,
      "duration": 0.0539,
      "velocity": 120,
      "chip": "ym2612"
    },
    {
      "channel": 1,
      "note": 51,
      "start": 21.5669,
      "duration": 0.1028,
      "velocity": 97,
      "chip": "ym2612"
    },
    {
      "channel": 3,
      "note": 75,
      "start": 21.5677,
      "duration": 0.1024,
      "velocity": 83,
      "chip": "ym2612"
    },
    {
      "channel": 4,
      "note": 73,
      "start": 21.5684,
      "duration": 0.1024,
      "velocity": 83,
      "chip": "ym2612"
    },
    {
      "channel": 5,
      "note": 71,
      "start": 21.5691,
      "duration": 0.1024,
      "velocity": 83,
      "chip": "ym2612"
    },
    {
      "channel": 3,
      "note": 75,
      "start": 21.6706,
      "duration": 0.0978,
      "velocity": 83,
      "chip": "ym2612"
    },
    {
      "channel": 4,
      "note": 73,
      "start": 21.6714,
      "duration": 0.0978,
      "velocity": 83,
      "chip": "ym2612"
    },
    {
      "channel": 5,
      "note": 71,
      "start": 21.6737,
      "duration": 0.0961,
      "velocity": 83,
      "chip": "ym2612"
    },
    {
      "channel": 2,
      "note": 37,
      "start": 21.6744,
      "duration": 0.0524,
      "velocity": 120,
      "chip": "ym2612"
    },
    {
      "channel": 1,
      "note": 52,
      "start": 21.7683,
      "duration": 0.1028,
      "velocity": 97,
      "chip": "ym2612"
    },
    {
      "channel": 3,
      "note": 78,
      "start": 21.769,
      "duration": 0.1024,
      "velocity": 83,
      "chip": "ym2612"
    },
    {
      "channel": 4,
      "note": 73,
      "start": 21.7697,
      "duration": 0.102,
      "velocity": 83,
      "chip": "ym2612"
    },
    {
      "channel": 5,
      "note": 71,
      "start": 21.7705,
      "duration": 0.1031,
      "velocity": 83,
      "chip": "ym2612"
    },
    {
      "channel": 2,
      "note": 37,
      "start": 21.8745,
      "duration": 0.0528,
      "velocity": 120,
      "chip": "ym2612"
    },
    {
      "channel": 1,
      "note": 51,
      "start": 21.9739,
      "duration": 0.0959,
      "velocity": 97,
      "chip": "ym2612"
    },
    {
      "channel": 3,
      "note": 75,
      "start": 21.9746,
      "duration": 0.0954,
      "velocity": 83,
      "chip": "ym2612"
    },
    {
      "channel": 4,
      "note": 73,
      "start": 21.9754,
      "duration": 0.095,
      "velocity": 83,
      "chip": "ym2612"
    },
    {
      "channel": 5,
      "note": 71,
      "start": 21.9761,
      "duration": 0.0946,
      "velocity": 83,
      "chip": "ym2612"
    },
    {
      "channel": 2,
      "note": 37,
      "start": 21.9768,
      "duration": 0.0522,
      "velocity": 120,
      "chip": "ym2612"
    },
    {
      "channel": 1,
      "note": 52,
      "start": 22.1752,
      "duration": 0.1001,
      "velocity": 97,
      "chip": "ym2612"
    },
    {
      "channel": 3,
      "note": 77,
      "start": 22.1759,
      "duration": 0.4043,
      "velocity": 83,
      "chip": "ym2612"
    },
    {
      "channel": 4,
      "note": 72,
      "start": 22.1767,
      "duration": 0.407,
      "velocity": 83,
      "chip": "ym2612"
    },
    {
      "channel": 5,
      "note": 70,
      "start": 22.1775,
      "duration": 0.4097,
      "velocity": 83,
      "chip": "ym2612"
    },
    {
      "channel": 2,
      "note": 82,
      "start": 22.1785,
      "duration": 0.0922,
      "velocity": 127,
      "chip": "ym2612"
    },
    {
      "channel": 1,
      "note": 54,
      "start": 22.2758,
      "duration": 0.1001,
      "velocity": 97,
      "chip": "ym2612"
    },
    {
      "channel": 2,
      "note": 82,
      "start": 22.2779,
      "duration": 0.0935,
      "velocity": 127,
      "chip": "ym2612"
    },
    {
      "channel": 1,
      "note": 48,
      "start": 22.3765,
      "duration": 0.1002,
      "velocity": 97,
      "chip": "ym2612"
    },
    {
      "channel": 2,
      "note": 82,
      "start": 22.3785,
      "duration": 0.0953,
      "velocity": 127,
      "chip": "ym2612"
    },
    {
      "channel": 1,
      "note": 48,
      "start": 22.4773,
      "duration": 0.1,
      "velocity": 97,
      "chip": "ym2612"
    },
    {
      "channel": 2,
      "note": 82,
      "start": 22.4793,
      "duration": 0.0945,
      "velocity": 127,
      "chip": "ym2612"
    },
    {
      "channel": 3,
      "note": 79,
      "start": 22.5809,
      "duration": 0.2052,
      "velocity": 83,
      "chip": "ym2612"
    },
    {
      "channel": 4,
      "note": 74,
      "start": 22.5844,
      "duration": 0.2024,
      "velocity": 83,
      "chip": "ym2612"
    },
    {
      "channel": 5,
      "note": 72,
      "start": 22.5878,
      "duration": 0.1996,
      "velocity": 83,
      "chip": "ym2612"
    },
    {
      "channel": 2,
      "note": 37,
      "start": 22.5901,
      "duration": 0.0517,
      "velocity": 120,
      "chip": "ym2612"
    },
    {
      "channel": 1,
      "note": 55,
      "start": 22.6853,
      "duration": 0.1001,
      "velocity": 97,
      "chip": "ym2612"
    },
    {
      "channel": 2,
      "note": 37,
      "start": 22.687,
      "duration": 0.0554,
      "velocity": 120,
      "chip": "ym2612"
    },
    {
      "channel": 1,
      "note": 50,
      "start": 22.7859,
      "duration": 0.1002,
      "velocity": 97,
      "chip": "ym2612"
    },
    {
      "channel": 3,
      "note": 79,
      "start": 22.7866,
      "duration": 0.0999,
      "velocity": 83,
      "chip": "ym2612"
    },
    {
      "channel": 4,
      "note": 74,
      "start": 22.7871,
      "duration": 0.0999,
      "velocity": 83,
      "chip": "ym2612"
    },
    {
      "channel": 5,
      "note": 72,
      "start": 22.7878,
      "duration": 0.1,
      "velocity": 83,
      "chip": "ym2612"
    },
    {
      "channel": 2,
      "note": 37,
      "start": 22.7901,
      "duration": 0.0527,
      "velocity": 120,
      "chip": "ym2612"
    },
    {
      "channel": 3,
      "note": 79,
      "start": 22.8869,
      "duration": 0.1006,
      "velocity": 83,
      "chip": "ym2612"
    },
    {
      "channel": 4,
      "note": 74,
      "start": 22.8876,
      "duration": 0.1007,
      "velocity": 83,
      "chip": "ym2612"
    },
    {
      "channel": 5,
      "note": 72,
      "start": 22.8884,
      "duration": 0.1023,
      "velocity": 83,
      "chip": "ym2612"
    },
    {
      "channel": 2,
      "note": 37,
      "start": 22.8907,
      "duration": 0.0526,
      "velocity": 120,
      "chip": "ym2612"
    },
    {
      "channel": 1,
      "note": 53,
      "start": 22.9873,
      "duration": 0.1,
      "velocity": 97,
      "chip": "ym2612"
    },
    {
      "channel": 3,
      "note": 77,
      "start": 22.9881,
      "duration": 0.0996,
      "velocity": 83,
      "chip": "ym2612"
    },
    {
      "channel": 4,
      "note": 74,
      "start": 22.9905,
      "duration": 0.0996,
      "velocity": 83,
      "chip": "ym2612"
    },
    {
      "channel": 5,
      "note": 72,
      "start": 22.9912,
      "duration": 0.0996,
      "velocity": 83,
      "chip": "ym2612"
    },
    {
      "channel": 2,
      "note": 82,
      "start": 22.9922,
      "duration": 0.0923,
      "velocity": 127,
      "chip": "ym2612"
    },
    {
      "channel": 3,
      "note": 79,
      "start": 23.0883,
      "duration": 0.0978,
      "velocity": 83,
      "chip": "ym2612"
    },
    {
      "channel": 4,
      "note": 74,
      "start": 23.0906,
      "duration": 0.0958,
      "velocity": 83,
      "chip": "ym2612"
    },
    {
      "channel": 5,
      "note": 72,
      "start": 23.0914,
      "duration": 0.0954,
      "velocity": 83,
      "chip": "ym2612"
    },
    {
      "channel": 2,
      "note": 37,
      "start": 23.0921,
      "duration": 0.0524,
      "velocity": 120,
      "chip": "ym2612"
    },
    {
      "channel": 1,
      "note": 50,
      "start": 23.186,
      "duration": 0.1044,
      "velocity": 97,
      "chip": "ym2612"
    },
    {
      "channel": 3,
      "note": 77,
      "start": 23.2913,
      "duration": 0.0962,
      "velocity": 83,
      "chip": "ym2612"
    },
    {
      "channel": 4,
      "note": 74,
      "start": 23.292,
      "duration": 0.0963,
      "velocity": 83,
      "chip": "ym2612"
    },
    {
      "channel": 5,
      "note": 72,
      "start": 23.2928,
      "duration": 0.0978,
      "velocity": 83,
      "chip": "ym2612"
    },
    {
      "channel": 2,
      "note": 37,
      "start": 23.2935,
      "duration": 0.0524,
      "velocity": 120,
      "chip": "ym2612"
    },
    {
      "channel": 1,
      "note": 55,
      "start": 23.3874,
      "duration": 0.1043,
      "velocity": 97,
      "chip": "ym2612"
    },
    {
      "channel": 3,
      "note": 79,
      "start": 23.3881,
      "duration": 0.1039,
      "velocity": 83,
      "chip": "ym2612"
    },
    {
      "channel": 4,
      "note": 74,
      "start": 23.3905,
      "duration": 0.1019,
      "velocity": 83,
      "chip": "ym2612"
    },
    {
      "channel": 5,
      "note": 72,
      "start": 23.3912,
      "duration": 0.1015,
      "velocity": 83,
      "chip": "ym2612"
    },
    {
      "channel": 2,
      "note": 37,
      "start": 23.4936,
      "duration": 0.0529,
      "velocity": 120,
      "chip": "ym2612"
    },
    {
      "channel": 1,
      "note": 50,
      "start": 23.5929,
      "duration": 0.0975,
      "velocity": 97,
      "chip": "ym2612"
    },
    {
      "channel": 3,
      "note": 77,
      "start": 23.5936,
      "duration": 0.0971,
      "velocity": 83,
      "chip": "ym2612"
    },
    {
      "channel": 4,
      "note": 74,
      "start": 23.5944,
      "duration": 0.0966,
      "velocity": 83,
      "chip": "ym2612"
    },
    {
      "channel": 5,
      "note": 72,
      "start": 23.5952,
      "duration": 0.0962,
      "velocity": 83,
      "chip": "ym2612"
    },
    {
      "channel": 2,
      "note": 37,
      "start": 23.5959,
      "duration": 0.0523,
      "velocity": 120,
      "chip": "ym2612"
    },
    {
      "channel": 1,
      "note": 53,
      "start": 23.7943,
      "duration": 0.0964,
      "velocity": 97,
      "chip": "ym2612"
    },
    {
      "channel": 3,
      "note": 79,
      "start": 23.795,
      "duration": 0.4006,
      "velocity": 83,
      "chip": "ym2612"
    },
    {
      "channel": 4,
      "note": 74,
      "start": 23.7958,
      "duration": 0.4006,
      "velocity": 83,
      "chip": "ym2612"
    },
    {
      "channel": 5,
      "note": 72,
      "start": 23.7966,
      "duration": 0.4006,
      "velocity": 83,
      "chip": "ym2612"
    },
    {
      "channel": 2,
      "note": 82,
      "start": 23.7976,
      "duration": 0.1023,
      "velocity": 127,
      "chip": "ym2612"
    },
    {
      "channel": 1,
      "note": 50,
      "start": 23.8913,
      "duration": 0.2029,
      "velocity": 97,
      "chip": "ym2612"
    },
    {
      "channel": 2,
      "note": 37,
      "start": 23.9954,
      "duration": 0.0555,
      "velocity": 120,
      "chip": "ym2612"
    },
    {
      "channel": 1,
      "note": 50,
      "start": 24.0946,
      "duration": 0.1007,
      "velocity": 97,
      "chip": "ym2612"
    },
    {
      "channel": 2,
      "note": 82,
      "start": 24.0967,
      "duration": 0.0953,
      "velocity": 127,
      "chip": "ym2612"
    },
    {
      "channel": 3,
      "note": 79,
      "start": 24.1962,
      "duration": 0.2006,
      "velocity": 83,
      "chip": "ym2612"
    },
    {
      "channel": 4,
      "note": 74,
      "start": 24.197,
      "duration": 0.2005,
      "velocity": 83,
      "chip": "ym2612"
    },
    {
      "channel": 5,
      "note": 72,
      "start": 24.1978,
      "duration": 0.2002,
      "velocity": 83,
      "chip": "ym2612"
    },
    {
      "channel": 2,
      "note": 37,
      "start": 24.1985,
      "duration": 0.0534,
      "velocity": 120,
      "chip": "ym2612"
    },
    {
      "channel": 1,
      "note": 55,
      "start": 24.2934,
      "duration": 0.1027,
      "velocity": 97,
      "chip": "ym2612"
    },
    {
      "channel": 1,
      "note": 50,
      "start": 24.3967,
      "duration": 0.1002,
      "velocity": 97,
      "chip": "ym2612"
    },
    {
      "channel": 3,
      "note": 79,
      "start": 24.3973,
      "duration": 0.0999,
      "velocity": 83,
      "chip": "ym2612"
    },
    {
      "channel": 4,
      "note": 74,
      "start": 24.3979,
      "duration": 0.0999,
      "velocity": 83,
      "chip": "ym2612"
    },
    {
      "channel": 5,
      "note": 72,
      "start": 24.3985,
      "duration": 0.1,
      "velocity": 83,
      "chip": "ym2612"
    },
    {
      "channel": 2,
      "note": 37,
      "start": 24.3992,
      "duration": 0.0543,
      "velocity": 120,
      "chip": "ym2612"
    },
    {
      "channel": 3,
      "note": 79,
      "start": 24.4976,
      "duration": 0.1005,
      "velocity": 83,
      "chip": "ym2612"
    },
    {
      "channel": 4,
      "note": 74,
      "start": 24.4983,
      "duration": 0.1006,
      "velocity": 83,
      "chip": "ym2612"
    },
    {
      "channel": 5,
      "note": 72,
      "start": 24.4991,
      "duration": 0.1006,
      "velocity": 83,
      "chip": "ym2612"
    },
    {
      "channel": 2,
      "note": 37,
      "start": 24.4998,
      "duration": 0.0541,
      "velocity": 120,
      "chip": "ym2612"
    },
    {
      "channel": 1,
      "note": 53,
      "start": 24.598,
      "duration": 0.1001,
      "velocity": 97,
      "chip": "ym2612"
    },
    {
      "channel": 3,
      "note": 77,
      "start": 24.5988,
      "duration": 0.0996,
      "velocity": 83,
      "chip": "ym2612"
    },
    {
      "channel": 4,
      "note": 74,
      "start": 24.5995,
      "duration": 0.0997,
      "velocity": 83,
      "chip": "ym2612"
    },
    {
      "channel": 5,
      "note": 72,
      "start": 24.6002,
      "duration": 0.0996,
      "velocity": 83,
      "chip": "ym2612"
    },
    {
      "channel": 2,
      "note": 82,
      "start": 24.6013,
      "duration": 0.0939,
      "velocity": 127,
      "chip": "ym2612"
    },
    {
      "channel": 3,
      "note": 79,
      "start": 24.699,
      "duration": 0.098,
      "velocity": 83,
      "chip": "ym2612"
    },
    {
      "channel": 4,
      "note": 74,
      "start": 24.6998,
      "duration": 0.098,
      "velocity": 83,
      "chip": "ym2612"
    },
    {
      "channel": 5,
      "note": 72,
      "start": 24.7005,
      "duration": 0.0979,
      "velocity": 83,
      "chip": "ym2612"
    },
    {
      "channel": 2,
      "note": 37,
      "start": 24.7012,
      "duration": 0.0557,
      "velocity": 120,
      "chip": "ym2612"
    },
    {
      "channel": 1,
      "note": 50,
      "start": 24.7968,
      "duration": 0.1027,
      "velocity": 97,
      "chip": "ym2612"
    },
    {
      "channel": 3,
      "note": 77,
      "start": 24.7975,
      "duration": 0.1023,
      "velocity": 83,
      "chip": "ym2612"
    },
    {
      "channel": 4,
      "note": 74,
      "start": 24.7983,
      "duration": 0.1022,
      "velocity": 83,
      "chip": "ym2612"
    },
    {
      "channel": 5,
      "note": 72,
      "start": 24.799,
      "duration": 0.1022,
      "velocity": 83,
      "chip": "ym2612"
    },
    {
      "channel": 3,
      "note": 77,
      "start": 24.9004,
      "duration": 0.0979,
      "velocity": 83,
      "chip": "ym2612"
    },
    {
      "channel": 4,
      "note": 74,
      "start": 24.9011,
      "duration": 0.0978,
      "velocity": 83,
      "chip": "ym2612"
    },
    {
      "channel": 5,
      "note": 72,
      "start": 24.9018,
      "duration": 0.0979,
      "velocity": 83,
      "chip": "ym2612"
    },
    {
      "channel": 2,
      "note": 37,
      "start": 24.9026,
      "duration": 0.0556,
      "velocity": 120,
      "chip": "ym2612"
    },
    {
      "channel": 1,
      "note": 55,
      "start": 24.9981,
      "duration": 0.1027,
      "velocity": 97,
      "chip": "ym2612"
    },
    {
      "channel": 3,
      "note": 79,
      "start": 24.9988,
      "duration": 0.1023,
      "velocity": 83,
      "chip": "ym2612"
    },
    {
      "channel": 4,
      "note": 74,
      "start": 24.9996,
      "duration": 0.1018,
      "velocity": 83,
      "chip": "ym2612"
    },
    {
      "channel": 5,
      "note": 72,
      "start": 25.0003,
      "duration": 0.1015,
      "velocity": 83,
      "chip": "ym2612"
    },
    {
      "channel": 2,
      "note": 37,
      "start": 25.1027,
      "duration": 0.055,
      "velocity": 120,
      "chip": "ym2612"
    },
    {
      "channel": 1,
      "note": 50,
      "start": 25.202,
      "duration": 0.0975,
      "velocity": 97,
      "chip": "ym2612"
    },
    {
      "channel": 3,
      "note": 77,
      "start": 25.2027,
      "duration": 0.0971,
      "velocity": 83,
      "chip": "ym2612"
    },
    {
      "channel": 4,
      "note": 74,
      "start": 25.2035,
      "duration": 0.0967,
      "velocity": 83,
      "chip": "ym2612"
    },
    {
      "channel": 5,
      "note": 72,
      "start": 25.2043,
      "duration": 0.0962,
      "velocity": 83,
      "chip": "ym2612"
    },
    {
      "channel": 2,
      "note": 37,
      "start": 25.205,
      "duration": 0.0539,
      "velocity": 120,
      "chip": "ym2612"
    },
    {
      "channel": 1,
      "note": 53,
      "start": 25.4034,
      "duration": 0.0975,
      "velocity": 97,
      "chip": "ym2612"
    },
    {
      "channel": 3,
      "note": 79,
      "start": 25.4042,
      "duration": 0.4065,
      "velocity": 83,
      "chip": "ym2612"
    },
    {
      "channel": 4,
      "note": 74,
      "start": 25.405,
      "duration": 0.4092,
      "velocity": 83,
      "chip": "ym2612"
    },
    {
      "channel": 5,
      "note": 72,
      "start": 25.4073,
      "duration": 0.4102,
      "velocity": 83,
      "chip": "ym2612"
    },
    {
      "channel": 2,
      "note": 82,
      "start": 25.4084,
      "duration": 0.1023,
      "velocity": 127,
      "chip": "ym2612"
    },
    {
      "channel": 1,
      "note": 50,
      "start": 25.5015,
      "duration": 0.2034,
      "velocity": 97,
      "chip": "ym2612"
    },
    {
      "channel": 2,
      "note": 37,
      "start": 25.6078,
      "duration": 0.0538,
      "velocity": 120,
      "chip": "ym2612"
    },
    {
      "channel": 1,
      "note": 50,
      "start": 25.7069,
      "duration": 0.1007,
      "velocity": 97,
      "chip": "ym2612"
    },
    {
      "channel": 2,
      "note": 37,
      "start": 25.7087,
      "duration": 0.0535,
      "velocity": 120,
      "chip": "ym2612"
    },
    {
      "channel": 3,
      "note": 79,
      "start": 25.8112,
      "duration": 0.2047,
      "velocity": 83,
      "chip": "ym2612"
    },
    {
      "channel": 4,
      "note": 74,
      "start": 25.8147,
      "duration": 0.2019,
      "velocity": 83,
      "chip": "ym2612"
    },
    {
      "channel": 5,
      "note": 72,
      "start": 25.8181,
      "duration": 0.199,
      "velocity": 83,
      "chip": "ym2612"
    },
    {
      "channel": 2,
      "note": 37,
      "start": 25.8189,
      "duration": 0.0521,
      "velocity": 120,
      "chip": "ym2612"
    },
    {
      "channel": 1,
      "note": 55,
      "start": 25.9151,
      "duration": 0.1001,
      "velocity": 97,
      "chip": "ym2612"
    },
    {
      "channel": 2,
      "note": 37,
      "start": 25.9168,
      "duration": 0.0567,
      "velocity": 120,
      "chip": "ym2612"
    },
    {
      "channel": 1,
      "note": 50,
      "start": 26.0158,
      "duration": 0.1001,
      "velocity": 97,
      "chip": "ym2612"
    },
    {
      "channel": 3,
      "note": 79,
      "start": 26.0164,
      "duration": 0.0998,
      "velocity": 83,
      "chip": "ym2612"
    },
    {
      "channel": 4,
      "note": 74,
      "start": 26.0171,
      "duration": 0.0997,
      "velocity": 83,
      "chip": "ym2612"
    },
    {
      "channel": 5,
      "note": 72,
      "start": 26.0176,
      "duration": 0.0999,
      "velocity": 83,
      "chip": "ym2612"
    },
    {
      "channel": 2,
      "note": 37,
      "start": 26.0184,
      "duration": 0.0558,
      "velocity": 120,
      "chip": "ym2612"
    },
    {
      "channel": 3,
      "note": 79,
      "start": 26.1167,
      "duration": 0.1006,
      "velocity": 83,
      "chip": "ym2612"
    },
    {
      "channel": 4,
      "note": 74,
      "start": 26.1174,
      "duration": 0.1006,
      "velocity": 83,
      "chip": "ym2612"
    },
    {
      "channel": 5,
      "note": 72,
      "start": 26.1181,
      "duration": 0.1006,
      "velocity": 83,
      "chip": "ym2612"
    },
    {
      "channel": 2,
      "note": 37,
      "start": 26.1189,
      "duration": 0.0557,
      "velocity": 120,
      "chip": "ym2612"
    },
    {
      "channel": 1,
      "note": 53,
      "start": 26.2172,
      "duration": 0.1,
      "velocity": 97,
      "chip": "ym2612"
    },
    {
      "channel": 3,
      "note": 77,
      "start": 26.2179,
      "duration": 0.0996,
      "velocity": 83,
      "chip": "ym2612"
    },
    {
      "channel": 4,
      "note": 74,
      "start": 26.2186,
      "duration": 0.0996,
      "velocity": 83,
      "chip": "ym2612"
    },
    {
      "channel": 5,
      "note": 72,
      "start": 26.2194,
      "duration": 0.0995,
      "velocity": 83,
      "chip": "ym2612"
    },
    {
      "channel": 2,
      "note": 82,
      "start": 26.2204,
      "duration": 0.0939,
      "velocity": 127,
      "chip": "ym2612"
    },
    {
      "channel": 3,
      "note": 79,
      "start": 26.3181,
      "duration": 0.0979,
      "velocity": 83,
      "chip": "ym2612"
    },
    {
      "channel": 4,
      "note": 74,
      "start": 26.3188,
      "duration": 0.0975,
      "velocity": 83,
      "chip": "ym2612"
    },
    {
      "channel": 5,
      "note": 72,
      "start": 26.3196,
      "duration": 0.097,
      "velocity": 83,
      "chip": "ym2612"
    },
    {
      "channel": 2,
      "note": 37,
      "start": 26.3203,
      "duration": 0.0548,
      "velocity": 120,
      "chip": "ym2612"
    },
    {
      "channel": 1,
      "note": 50,
      "start": 26.4158,
      "duration": 0.103,
      "velocity": 97,
      "chip": "ym2612"
    },
    {
      "channel": 3,
      "note": 77,
      "start": 26.5198,
      "duration": 0.0976,
      "velocity": 83,
      "chip": "ym2612"
    },
    {
      "channel": 4,
      "note": 74,
      "start": 26.5205,
      "duration": 0.0976,
      "velocity": 83,
      "chip": "ym2612"
    },
    {
      "channel": 5,
      "note": 72,
      "start": 26.5212,
      "duration": 0.0976,
      "velocity": 83,
      "chip": "ym2612"
    },
    {
      "channel": 2,
      "note": 37,
      "start": 26.5236,
      "duration": 0.0521,
      "velocity": 120,
      "chip": "ym2612"
    },
    {
      "channel": 1,
      "note": 55,
      "start": 26.6172,
      "duration": 0.1027,
      "velocity": 97,
      "chip": "ym2612"
    },
    {
      "channel": 3,
      "note": 79,
      "start": 26.618,
      "duration": 0.1023,
      "velocity": 83,
      "chip": "ym2612"
    },
    {
      "channel": 4,
      "note": 74,
      "start": 26.6187,
      "duration": 0.1019,
      "velocity": 83,
      "chip": "ym2612"
    },
    {
      "channel": 5,
      "note": 72,
      "start": 26.6195,
      "duration": 0.1015,
      "velocity": 83,
      "chip": "ym2612"
    },
    {
      "channel": 2,
      "note": 37,
      "start": 26.7234,
      "duration": 0.0531,
      "velocity": 120,
      "chip": "ym2612"
    },
    {
      "channel": 1,
      "note": 50,
      "start": 26.8211,
      "duration": 0.0975,
      "velocity": 97,
      "chip": "ym2612"
    },
    {
      "channel": 3,
      "note": 77,
      "start": 26.8235,
      "duration": 0.0954,
      "velocity": 83,
      "chip": "ym2612"
    },
    {
      "channel": 4,
      "note": 74,
      "start": 26.8242,
      "duration": 0.095,
      "velocity": 83,
      "chip": "ym2612"
    },
    {
      "channel": 5,
      "note": 72,
      "start": 26.8249,
      "duration": 0.0946,
      "velocity": 83,
      "chip": "ym2612"
    },
    {
      "channel": 2,
      "note": 37,
      "start": 26.8256,
      "duration": 0.0524,
      "velocity": 120,
      "chip": "ym2612"
    },
    {
      "channel": 1,
      "note": 53,
      "start": 27.0242,
      "duration": 0.0958,
      "velocity": 97,
      "chip": "ym2612"
    },
    {
      "channel": 3,
      "note": 79,
      "start": 27.0249,
      "duration": 0.402,
      "velocity": 83,
      "chip": "ym2612"
    },
    {
      "channel": 4,
      "note": 74,
      "start": 27.0257,
      "duration": 0.402,
      "velocity": 83,
      "chip": "ym2612"
    },
    {
      "channel": 5,
      "note": 72,
      "start": 27.0265,
      "duration": 0.402,
      "velocity": 83,
      "chip": "ym2612"
    },
    {
      "channel": 2,
      "note": 82,
      "start": 27.0275,
      "duration": 0.1022,
      "velocity": 127,
      "chip": "ym2612"
    },
    {
      "channel": 1,
      "note": 50,
      "start": 27.1205,
      "duration": 0.205,
      "velocity": 97,
      "chip": "ym2612"
    },
    {
      "channel": 2,
      "note": 37,
      "start": 27.2268,
      "duration": 0.0538,
      "velocity": 120,
      "chip": "ym2612"
    },
    {
      "channel": 1,
      "note": 50,
      "start": 27.3259,
      "duration": 0.1007,
      "velocity": 97,
      "chip": "ym2612"
    },
    {
      "channel": 2,
      "note": 82,
      "start": 27.328,
      "duration": 0.0937,
      "velocity": 127,
      "chip": "ym2612"
    },
    {
      "channel": 3,
      "note": 79,
      "start": 27.4276,
      "duration": 0.2002,
      "velocity": 83,
      "chip": "ym2612"
    },
    {
      "channel": 4,
      "note": 74,
      "start": 27.4283,
      "duration": 0.2001,
      "velocity": 83,
      "chip": "ym2612"
    },
    {
      "channel": 5,
      "note": 72,
      "start": 27.4291,
      "duration": 0.1999,
      "velocity": 83,
      "chip": "ym2612"
    },
    {
      "channel": 2,
      "note": 37,
      "start": 27.4298,
      "duration": 0.0519,
      "velocity": 120,
      "chip": "ym2612"
    },
    {
      "channel": 1,
      "note": 55,
      "start": 27.5246,
      "duration": 0.1025,
      "velocity": 97,
      "chip": "ym2612"
    },
    {
      "channel": 1,
      "note": 50,
      "start": 27.6277,
      "duration": 0.099,
      "velocity": 97,
      "chip": "ym2612"
    },
    {
      "channel": 3,
      "note": 79,
      "start": 27.6282,
      "duration": 0.0987,
      "velocity": 83,
      "chip": "ym2612"
    },
    {
      "channel": 4,
      "note": 74,
      "start": 27.6289,
      "duration": 0.0987,
      "velocity": 83,
      "chip": "ym2612"
    },
    {
      "channel": 5,
      "note": 72,
      "start": 27.6295,
      "duration": 0.0988,
      "velocity": 83,
      "chip": "ym2612"
    },
    {
      "channel": 2,
      "note": 37,
      "start": 27.6302,
      "duration": 0.0531,
      "velocity": 120,
      "chip": "ym2612"
    },
    {
      "channel": 3,
      "note": 79,
      "start": 27.7274,
      "duration": 0.1005,
      "velocity": 83,
      "chip": "ym2612"
    },
    {
      "channel": 4,
      "note": 74,
      "start": 27.7282,
      "duration": 0.1005,
      "velocity": 83,
      "chip": "ym2612"
    },
    {
      "channel": 5,
      "note": 72,
      "start": 27.7289,
      "duration": 0.1006,
      "velocity": 83,
      "chip": "ym2612"
    },
    {
      "channel": 2,
      "note": 37,
      "start": 27.7296,
      "duration": 0.0541,
      "velocity": 120,
      "chip": "ym2612"
    },
    {
      "channel": 1,
      "note": 53,
      "start": 27.8278,
      "duration": 0.1001,
      "velocity": 97,
      "chip": "ym2612"
    },
    {
      "channel": 3,
      "note": 77,
      "start": 27.8285,
      "duration": 0.0997,
      "velocity": 83,
      "chip": "ym2612"
    },
    {
      "channel": 4,
      "note": 74,
      "start": 27.8293,
      "duration": 0.0998,
      "velocity": 83,
      "chip": "ym2612"
    },
    {
      "channel": 5,
      "note": 72,
      "start": 27.83,
      "duration": 0.0997,
      "velocity": 83,
      "chip": "ym2612"
    },
    {
      "channel": 2,
      "note": 82,
      "start": 27.831,
      "duration": 0.094,
      "velocity": 127,
      "chip": "ym2612"
    },
    {
      "channel": 3,
      "note": 79,
      "start": 27.9288,
      "duration": 0.0978,
      "velocity": 83,
      "chip": "ym2612"
    },
    {
      "channel": 4,
      "note": 74,
      "start": 27.9296,
      "duration": 0.0978,
      "velocity": 83,
      "chip": "ym2612"
    },
    {
      "channel": 5,
      "note": 72,
      "start": 27.9303,
      "duration": 0.0978,
      "velocity": 83,
      "chip": "ym2612"
    },
    {
      "channel": 2,
      "note": 37,
      "start": 27.931,
      "duration": 0.0541,
      "velocity": 120,
      "chip": "ym2612"
    },
    {
      "channel": 1,
      "note": 50,
      "start": 28.0265,
      "duration": 0.1027,
      "velocity": 97,
      "chip": "ym2612"
    },
    {
      "channel": 3,
      "note": 77,
      "start": 28.0272,
      "duration": 0.1023,
      "velocity": 83,
      "chip": "ym2612"
    },
    {
      "channel": 4,
      "note": 74,
      "start": 28.028,
      "duration": 0.1024,
      "velocity": 83,
      "chip": "ym2612"
    },
    {
      "channel": 5,
      "note": 72,
      "start": 28.0288,
      "duration": 0.1024,
      "velocity": 83,
      "chip": "ym2612"
    },
    {
      "channel": 3,
      "note": 77,
      "start": 28.1302,
      "duration": 0.0978,
      "velocity": 83,
      "chip": "ym2612"
    },
    {
      "channel": 4,
      "note": 74,
      "start": 28.131,
      "duration": 0.0978,
      "velocity": 83,
      "chip": "ym2612"
    },
    {
      "channel": 5,
      "note": 72,
      "start": 28.1317,
      "duration": 0.0979,
      "velocity": 83,
      "chip": "ym2612"
    },
    {
      "channel": 2,
      "note": 37,
      "start": 28.1324,
      "duration": 0.0539,
      "velocity": 120,
      "chip": "ym2612"
    },
    {
      "channel": 1,
      "note": 57,
      "start": 28.2279,
      "duration": 0.1027,
      "velocity": 97,
      "chip": "ym2612"
    },
    {
      "channel": 3,
      "note": 79,
      "start": 28.2287,
      "duration": 0.1023,
      "velocity": 83,
      "chip": "ym2612"
    },
    {
      "channel": 4,
      "note": 74,
      "start": 28.2294,
      "duration": 0.1019,
      "velocity": 83,
      "chip": "ym2612"
    },
    {
      "channel": 5,
      "note": 72,
      "start": 28.2302,
      "duration": 0.1015,
      "velocity": 83,
      "chip": "ym2612"
    },
    {
      "channel": 2,
      "note": 37,
      "start": 28.3325,
      "duration": 0.0545,
      "velocity": 120,
      "chip": "ym2612"
    },
    {
      "channel": 1,
      "note": 55,
      "start": 28.4319,
      "duration": 0.0975,
      "velocity": 97,
      "chip": "ym2612"
    },
    {
      "channel": 3,
      "note": 77,
      "start": 28.4326,
      "duration": 0.0971,
      "velocity": 83,
      "chip": "ym2612"
    },
    {
      "channel": 4,
      "note": 74,
      "start": 28.4333,
      "duration": 0.0966,
      "velocity": 83,
      "chip": "ym2612"
    },
    {
      "channel": 5,
      "note": 72,
      "start": 28.4341,
      "duration": 0.0962,
      "velocity": 83,
      "chip": "ym2612"
    },
    {
      "channel": 2,
      "note": 37,
      "start": 28.4348,
      "duration": 0.0555,
      "velocity": 120,
      "chip": "ym2612"
    },
    {
      "channel": 1,
      "note": 53,
      "start": 28.6332,
      "duration": 0.1001,
      "velocity": 97,
      "chip": "ym2612"
    },
    {
      "channel": 3,
      "note": 79,
      "start": 28.634,
      "duration": 0.4022,
      "velocity": 83,
      "chip": "ym2612"
    },
    {
      "channel": 4,
      "note": 74,
      "start": 28.6347,
      "duration": 0.4023,
      "velocity": 83,
      "chip": "ym2612"
    },
    {
      "channel": 5,
      "note": 72,
      "start": 28.6355,
      "duration": 0.4024,
      "velocity": 83,
      "chip": "ym2612"
    },
    {
      "channel": 2,
      "note": 82,
      "start": 28.6365,
      "duration": 0.0939,
      "velocity": 127,
      "chip": "ym2612"
    },
    {
      "channel": 1,
      "note": 50,
      "start": 28.7338,
      "duration": 0.2008,
      "velocity": 97,
      "chip": "ym2612"
    },
    {
      "channel": 2,
      "note": 82,
      "start": 28.7359,
      "duration": 0.0951,
      "velocity": 127,
      "chip": "ym2612"
    },
    {
      "channel": 2,
      "note": 82,
      "start": 28.8362,
      "duration": 0.0956,
      "velocity": 127,
      "chip": "ym2612"
    },
    {
      "channel": 1,
      "note": 50,
      "start": 28.9351,
      "duration": 0.1007,
      "velocity": 97,
      "chip": "ym2612"
    },
    {
      "channel": 2,
      "note": 82,
      "start": 28.9371,
      "duration": 0.0954,
      "velocity": 127,
      "chip": "ym2612"
    },
    {
      "channel": 3,
      "note": 82,
      "start": 29.0368,
      "duration": 0.2006,
      "velocity": 83,
      "chip": "ym2612"
    },
    {
      "channel": 4,
      "note": 77,
      "start": 29.0377,
      "duration": 0.2004,
      "velocity": 83,
      "chip": "ym2612"
    },
    {
      "channel": 5,
      "note": 75,
      "start": 29.0401,
      "duration": 0.2001,
      "velocity": 83,
      "chip": "ym2612"
    },
    {
      "channel": 2,
      "note": 37,
      "start": 29.0408,
      "duration": 0.0516,
      "velocity": 120,
      "chip": "ym2612"
    },
    {
      "channel": 1,
      "note": 58,
      "start": 29.1366,
      "duration": 0.1001,
      "velocity": 97,
      "chip": "ym2612"
    },
    {
      "channel": 2,
      "note": 37,
      "start": 29.1384,
      "duration": 0.055,
      "velocity": 120,
      "chip": "ym2612"
    },
    {
      "channel": 1,
      "note": 53,
      "start": 29.2373,
      "duration": 0.1001,
      "velocity": 97,
      "chip": "ym2612"
    },
    {
      "channel": 3,
      "note": 82,
      "start": 29.2378,
      "duration": 0.0998,
      "velocity": 83,
      "chip": "ym2612"
    },
    {
      "channel": 4,
      "note": 77,
      "start": 29.2401,
      "duration": 0.0982,
      "velocity": 83,
      "chip": "ym2612"
    },
    {
      "channel": 5,
      "note": 75,
      "start": 29.2407,
      "duration": 0.0999,
      "velocity": 83,
      "chip": "ym2612"
    },
    {
      "channel": 2,
      "note": 37,
      "start": 29.2414,
      "duration": 0.0526,
      "velocity": 120,
      "chip": "ym2612"
    },
    {
      "channel": 3,
      "note": 82,
      "start": 29.3381,
      "duration": 0.1022,
      "velocity": 83,
      "chip": "ym2612"
    },
    {
      "channel": 4,
      "note": 77,
      "start": 29.3405,
      "duration": 0.1006,
      "velocity": 83,
      "chip": "ym2612"
    },
    {
      "channel": 5,
      "note": 75,
      "start": 29.3412,
      "duration": 0.1006,
      "velocity": 83,
      "chip": "ym2612"
    },
    {
      "channel": 2,
      "note": 37,
      "start": 29.3419,
      "duration": 0.0525,
      "velocity": 120,
      "chip": "ym2612"
    },
    {
      "channel": 1,
      "note": 55,
      "start": 29.4402,
      "duration": 0.1001,
      "velocity": 97,
      "chip": "ym2612"
    },
    {
      "channel": 3,
      "note": 80,
      "start": 29.4409,
      "duration": 0.0997,
      "velocity": 83,
      "chip": "ym2612"
    },
    {
      "channel": 4,
      "note": 77,
      "start": 29.4417,
      "duration": 0.0998,
      "velocity": 83,
      "chip": "ym2612"
    },
    {
      "channel": 5,
      "note": 75,
      "start": 29.4424,
      "duration": 0.0997,
      "velocity": 83,
      "chip": "ym2612"
    },
    {
      "channel": 2,
      "note": 82,
      "start": 29.4434,
      "duration": 0.0924,
      "velocity": 127,
      "chip": "ym2612"
    },
    {
      "channel": 3,
      "note": 82,
      "start": 29.5412,
      "duration": 0.0962,
      "velocity": 83,
      "chip": "ym2612"
    },
    {
      "channel": 4,
      "note": 77,
      "start": 29.542,
      "duration": 0.0957,
      "velocity": 83,
      "chip": "ym2612"
    },
    {
      "channel": 5,
      "note": 75,
      "start": 29.5427,
      "duration": 0.0953,
      "velocity": 83,
      "chip": "ym2612"
    },
    {
      "channel": 2,
      "note": 37,
      "start": 29.5434,
      "duration": 0.0524,
      "velocity": 120,
      "chip": "ym2612"
    },
    {
      "channel": 1,
      "note": 56,
      "start": 29.6373,
      "duration": 0.1043,
      "velocity": 97,
      "chip": "ym2612"
    },
    {
      "channel": 3,
      "note": 80,
      "start": 29.7425,
      "duration": 0.0979,
      "velocity": 83,
      "chip": "ym2612"
    },
    {
      "channel": 4,
      "note": 77,
      "start": 29.7433,
      "duration": 0.0979,
      "velocity": 83,
      "chip": "ym2612"
    },
    {
      "channel": 5,
      "note": 75,
      "start": 29.7439,
      "duration": 0.0979,
      "velocity": 83,
      "chip": "ym2612"
    },
    {
      "channel": 2,
      "note": 37,
      "start": 29.7447,
      "duration": 0.0524,
      "velocity": 120,
      "chip": "ym2612"
    },
    {
      "channel": 1,
      "note": 58,
      "start": 29.8402,
      "duration": 0.1027,
      "velocity": 97,
      "chip": "ym2612"
    },
    {
      "channel": 3,
      "note": 82,
      "start": 29.841,
      "duration": 0.1023,
      "velocity": 83,
      "chip": "ym2612"
    },
    {
      "channel": 4,
      "note": 77,
      "start": 29.8417,
      "duration": 0.1019,
      "velocity": 83,
      "chip": "ym2612"
    },
    {
      "channel": 5,
      "note": 75,
      "start": 29.8425,
      "duration": 0.1014,
      "velocity": 83,
      "chip": "ym2612"
    },
    {
      "channel": 2,
      "note": 37,
      "start": 29.9448,
      "duration": 0.0529,
      "velocity": 120,
      "chip": "ym2612"
    },
    {
      "channel": 1,
      "note": 53,
      "start": 30.0443,
      "duration": 0.0964,
      "velocity": 97,
      "chip": "ym2612"
    },
    {
      "channel": 3,
      "note": 80,
      "start": 30.045,
      "duration": 0.0964,
      "velocity": 83,
      "chip": "ym2612"
    },
    {
      "channel": 4,
      "note": 77,
      "start": 30.0458,
      "duration": 0.096,
      "velocity": 83,
      "chip": "ym2612"
    },
    {
      "channel": 5,
      "note": 75,
      "start": 30.0465,
      "duration": 0.0956,
      "velocity": 83,
      "chip": "ym2612"
    },
    {
      "channel": 2,
      "note": 37,
      "start": 30.0473,
      "duration": 0.0522,
      "velocity": 120,
      "chip": "ym2612"
    },
    {
      "channel": 1,
      "note": 55,
      "start": 30.1413,
      "duration": 0.1021,
      "velocity": 97,
      "chip": "ym2612"
    },
    {
      "channel": 3,
      "note": 82,
      "start": 30.2443,
      "duration": 0.4024,
      "velocity": 83,
      "chip": "ym2612"
    },
    {
      "channel": 4,
      "note": 77,
      "start": 30.2451,
      "duration": 0.4024,
      "velocity": 83,
      "chip": "ym2612"
    },
    {
      "channel": 5,
      "note": 75,
      "start": 30.2459,
      "duration": 0.4024,
      "velocity": 83,
      "chip": "ym2612"
    },
    {
      "channel": 2,
      "note": 82,
      "start": 30.2469,
      "duration": 0.1042,
      "velocity": 127,
      "chip": "ym2612"
    },
    {
      "channel": 1,
      "note": 55,
      "start": 30.3419,
      "duration": 0.1028,
      "velocity": 97,
      "chip": "ym2612"
    },
    {
      "channel": 2,
      "note": 37,
      "start": 30.4466,
      "duration": 0.0552,
      "velocity": 120,
      "chip": "ym2612"
    },
    {
      "channel": 1,
      "note": 56,
      "start": 30.5459,
      "duration": 0.1006,
      "velocity": 97,
      "chip": "ym2612"
    },
    {
      "channel": 2,
      "note": 82,
      "start": 30.5479,
      "duration": 0.0952,
      "velocity": 127,
      "chip": "ym2612"
    },
    {
      "channel": 3,
      "note": 82,
      "start": 30.6474,
      "duration": 0.2006,
      "velocity": 83,
      "chip": "ym2612"
    },
    {
      "channel": 4,
      "note": 77,
      "start": 30.6482,
      "duration": 0.2005,
      "velocity": 83,
      "chip": "ym2612"
    },
    {
      "channel": 5,
      "note": 75,
      "start": 30.6489,
      "duration": 0.2003,
      "velocity": 83,
      "chip": "ym2612"
    },
    {
      "channel": 2,
      "note": 37,
      "start": 30.6496,
      "duration": 0.0535,
      "velocity": 120,
      "chip": "ym2612"
    },
    {
      "channel": 1,
      "note": 58,
      "start": 30.7446,
      "duration": 0.1027,
      "velocity": 97,
      "chip": "ym2612"
    },
    {
      "channel": 1,
      "note": 53,
      "start": 30.8479,
      "duration": 0.1001,
      "velocity": 97,
      "chip": "ym2612"
    },
    {
      "channel": 3,
      "note": 82,
      "start": 30.8485,
      "duration": 0.0999,
      "velocity": 83,
      "chip": "ym2612"
    },
    {
      "channel": 4,
      "note": 77,
      "start": 30.8491,
      "duration": 0.0999,
      "velocity": 83,
      "chip": "ym2612"
    },
    {
      "channel": 5,
      "note": 75,
      "start": 30.8497,
      "duration": 0.1,
      "velocity": 83,
      "chip": "ym2612"
    },
    {
      "channel": 2,
      "note": 37,
      "start": 30.8505,
      "duration": 0.0542,
      "velocity": 120,
      "chip": "ym2612"
    },
    {
      "channel": 3,
      "note": 82,
      "start": 30.9488,
      "duration": 0.1006,
      "velocity": 83,
      "chip": "ym2612"
    },
    {
      "channel": 4,
      "note": 77,
      "start": 30.9495,
      "duration": 0.1006,
      "velocity": 83,
      "chip": "ym2612"
    },
    {
      "channel": 5,
      "note": 75,
      "start": 30.9503,
      "duration": 0.1006,
      "velocity": 83,
      "chip": "ym2612"
    },
    {
      "channel": 2,
      "note": 37,
      "start": 30.951,
      "duration": 0.0557,
      "velocity": 120,
      "chip": "ym2612"
    },
    {
      "channel": 1,
      "note": 55,
      "start": 31.0493,
      "duration": 0.1001,
      "velocity": 97,
      "chip": "ym2612"
    },
    {
      "channel": 3,
      "note": 80,
      "start": 31.0501,
      "duration": 0.0996,
      "velocity": 83,
      "chip": "ym2612"
    },
    {
      "channel": 4,
      "note": 77,
      "start": 31.0508,
      "duration": 0.0997,
      "velocity": 83,
      "chip": "ym2612"
    },
    {
      "channel": 5,
      "note": 75,
      "start": 31.0515,
      "duration": 0.0997,
      "velocity": 83,
      "chip": "ym2612"
    },
    {
      "channel": 2,
      "note": 82,
      "start": 31.0525,
      "duration": 0.094,
      "velocity": 127,
      "chip": "ym2612"
    },
    {
      "channel": 3,
      "note": 82,
      "start": 31.1503,
      "duration": 0.0978,
      "velocity": 83,
      "chip": "ym2612"
    },
    {
      "channel": 4,
      "note": 77,
      "start": 31.151,
      "duration": 0.0979,
      "velocity": 83,
      "chip": "ym2612"
    },
    {
      "channel": 5,
      "note": 75,
      "start": 31.1518,
      "duration": 0.0978,
      "velocity": 83,
      "chip": "ym2612"
    },
    {
      "channel": 2,
      "note": 37,
      "start": 31.1525,
      "duration": 0.0557,
      "velocity": 120,
      "chip": "ym2612"
    },
    {
      "channel": 1,
      "note": 56,
      "start": 31.248,
      "duration": 0.1027,
      "velocity": 97,
      "chip": "ym2612"
    },
    {
      "channel": 3,
      "note": 80,
      "start": 31.2487,
      "duration": 0.1024,
      "velocity": 83,
      "chip": "ym2612"
    },
    {
      "channel": 4,
      "note": 77,
      "start": 31.2495,
      "duration": 0.1024,
      "velocity": 83,
      "chip": "ym2612"
    },
    {
      "channel": 5,
      "note": 75,
      "start": 31.2502,
      "duration": 0.1023,
      "velocity": 83,
      "chip": "ym2612"
    },
    {
      "channel": 3,
      "note": 80,
      "start": 31.3517,
      "duration": 0.0978,
      "velocity": 83,
      "chip": "ym2612"
    },
    {
      "channel": 4,
      "note": 77,
      "start": 31.3524,
      "duration": 0.0978,
      "velocity": 83,
      "chip": "ym2612"
    },
    {
      "channel": 5,
      "note": 75,
      "start": 31.3532,
      "duration": 0.0977,
      "velocity": 83,
      "chip": "ym2612"
    },
    {
      "channel": 2,
      "note": 37,
      "start": 31.3539,
      "duration": 0.0545,
      "velocity": 120,
      "chip": "ym2612"
    },
    {
      "channel": 1,
      "note": 58,
      "start": 31.4492,
      "duration": 0.1028,
      "velocity": 97,
      "chip": "ym2612"
    },
    {
      "channel": 3,
      "note": 82,
      "start": 31.45,
      "duration": 0.1024,
      "velocity": 83,
      "chip": "ym2612"
    },
    {
      "channel": 4,
      "note": 77,
      "start": 31.4508,
      "duration": 0.1019,
      "velocity": 83,
      "chip": "ym2612"
    },
    {
      "channel": 5,
      "note": 75,
      "start": 31.4515,
      "duration": 0.1015,
      "velocity": 83,
      "chip": "ym2612"
    },
    {
      "channel": 2,
      "note": 37,
      "start": 31.5539,
      "duration": 0.0546,
      "velocity": 120,
      "chip": "ym2612"
    },
    {
      "channel": 1,
      "note": 53,
      "start": 31.6533,
      "duration": 0.0975,
      "velocity": 97,
      "chip": "ym2612"
    },
    {
      "channel": 3,
      "note": 80,
      "start": 31.654,
      "duration": 0.0974,
      "velocity": 83,
      "chip": "ym2612"
    },
    {
      "channel": 4,
      "note": 77,
      "start": 31.6548,
      "duration": 0.097,
      "velocity": 83,
      "chip": "ym2612"
    },
    {
      "channel": 5,
      "note": 75,
      "start": 31.6571,
      "duration": 0.095,
      "velocity": 83,
      "chip": "ym2612"
    },
    {
      "channel": 2,
      "note": 37,
      "start": 31.6578,
      "duration": 0.0523,
      "velocity": 120,
      "chip": "ym2612"
    },
    {
      "channel": 1,
      "note": 55,
      "start": 31.7513,
      "duration": 0.1028,
      "velocity": 97,
      "chip": "ym2612"
    },
    {
      "channel": 3,
      "note": 82,
      "start": 31.8551,
      "duration": 0.4039,
      "velocity": 83,
      "chip": "ym2612"
    },
    {
      "channel": 4,
      "note": 77,
      "start": 31.8575,
      "duration": 0.4024,
      "velocity": 83,
      "chip": "ym2612"
    },
    {
      "channel": 5,
      "note": 75,
      "start": 31.8583,
      "duration": 0.4024,
      "velocity": 83,
      "chip": "ym2612"
    },
    {
      "channel": 2,
      "note": 82,
      "start": 31.8593,
      "duration": 0.1026,
      "velocity": 127,
      "chip": "ym2612"
    },
    {
      "channel": 1,
      "note": 55,
      "start": 31.9527,
      "duration": 0.1044,
      "velocity": 97,
      "chip": "ym2612"
    },
    {
      "channel": 2,
      "note": 37,
      "start": 32.059,
      "duration": 0.0537,
      "velocity": 120,
      "chip": "ym2612"
    },
    {
      "channel": 1,
      "note": 56,
      "start": 32.1583,
      "duration": 0.1005,
      "velocity": 97,
      "chip": "ym2612"
    },
    {
      "channel": 2,
      "note": 37,
      "start": 32.16,
      "duration": 0.0534,
      "velocity": 120,
      "chip": "ym2612"
    },
    {
      "channel": 3,
      "note": 82,
      "start": 32.2597,
      "duration": 0.2007,
      "velocity": 83,
      "chip": "ym2612"
    },
    {
      "channel": 4,
      "note": 77,
      "start": 32.2605,
      "duration": 0.2005,
      "velocity": 83,
      "chip": "ym2612"
    },
    {
      "channel": 5,
      "note": 75,
      "start": 32.2612,
      "duration": 0.2004,
      "velocity": 83,
      "chip": "ym2612"
    },
    {
      "channel": 2,
      "note": 37,
      "start": 32.262,
      "duration": 0.0518,
      "velocity": 120,
      "chip": "ym2612"
    },
    {
      "channel": 1,
      "note": 58,
      "start": 32.3595,
      "duration": 0.1001,
      "velocity": 97,
      "chip": "ym2612"
    },
    {
      "channel": 2,
      "note": 37,
      "start": 32.3613,
      "duration": 0.0535,
      "velocity": 120,
      "chip": "ym2612"
    },
    {
      "channel": 1,
      "note": 53,
      "start": 32.4602,
      "duration": 0.0997,
      "velocity": 97,
      "chip": "ym2612"
    },
    {
      "channel": 3,
      "note": 82,
      "start": 32.4609,
      "duration": 0.0994,
      "velocity": 83,
      "chip": "ym2612"
    },
    {
      "channel": 4,
      "note": 77,
      "start": 32.4615,
      "duration": 0.0995,
      "velocity": 83,
      "chip": "ym2612"
    },
    {
      "channel": 5,
      "note": 75,
      "start": 32.4621,
      "duration": 0.0995,
      "velocity": 83,
      "chip": "ym2612"
    },
    {
      "channel": 2,
      "note": 37,
      "start": 32.4628,
      "duration": 0.0527,
      "velocity": 120,
      "chip": "ym2612"
    },
    {
      "channel": 3,
      "note": 82,
      "start": 32.5607,
      "duration": 0.1001,
      "velocity": 83,
      "chip": "ym2612"
    },
    {
      "channel": 4,
      "note": 77,
      "start": 32.5615,
      "duration": 0.1,
      "velocity": 83,
      "chip": "ym2612"
    },
    {
      "channel": 5,
      "note": 75,
      "start": 32.5623,
      "duration": 0.1,
      "velocity": 83,
      "chip": "ym2612"
    },
    {
      "channel": 2,
      "note": 37,
      "start": 32.563,
      "duration": 0.0529,
      "velocity": 120,
      "chip": "ym2612"
    },
    {
      "channel": 1,
      "note": 55,
      "start": 32.6606,
      "duration": 0.0998,
      "velocity": 97,
      "chip": "ym2612"
    },
    {
      "channel": 3,
      "note": 80,
      "start": 32.6614,
      "duration": 0.0993,
      "velocity": 83,
      "chip": "ym2612"
    },
    {
      "channel": 4,
      "note": 77,
      "start": 32.6622,
      "duration": 0.0993,
      "velocity": 83,
      "chip": "ym2612"
    },
    {
      "channel": 5,
      "note": 75,
      "start": 32.6629,
      "duration": 0.0993,
      "velocity": 83,
      "chip": "ym2612"
    },
    {
      "channel": 2,
      "note": 82,
      "start": 32.6639,
      "duration": 0.0936,
      "velocity": 127,
      "chip": "ym2612"
    },
    {
      "channel": 3,
      "note": 82,
      "start": 32.7613,
      "duration": 0.0975,
      "velocity": 83,
      "chip": "ym2612"
    },
    {
      "channel": 4,
      "note": 77,
      "start": 32.7621,
      "duration": 0.097,
      "velocity": 83,
      "chip": "ym2612"
    },
    {
      "channel": 5,
      "note": 75,
      "start": 32.7628,
      "duration": 0.0966,
      "velocity": 83,
      "chip": "ym2612"
    },
    {
      "channel": 2,
      "note": 37,
      "start": 32.7635,
      "duration": 0.0537,
      "velocity": 120,
      "chip": "ym2612"
    },
    {
      "channel": 1,
      "note": 56,
      "start": 32.8586,
      "duration": 0.1031,
      "velocity": 97,
      "chip": "ym2612"
    },
    {
      "channel": 3,
      "note": 80,
      "start": 32.9626,
      "duration": 0.0977,
      "velocity": 83,
      "chip": "ym2612"
    },
    {
      "channel": 4,
      "note": 77,
      "start": 32.9634,
      "duration": 0.0976,
      "velocity": 83,
      "chip": "ym2612"
    },
    {
      "channel": 5,
      "note": 75,
      "start": 32.9641,
      "duration": 0.0977,
      "velocity": 83,
      "chip": "ym2612"
    },
    {
      "channel": 2,
      "note": 37,
      "start": 32.9648,
      "duration": 0.0537,
      "velocity": 120,
      "chip": "ym2612"
    },
    {
      "channel": 1,
      "note": 58,
      "start": 33.0601,
      "duration": 0.1027,
      "velocity": 97,
      "chip": "ym2612"
    },
    {
      "channel": 3,
      "note": 82,
      "start": 33.0609,
      "duration": 0.1022,
      "velocity": 83,
      "chip": "ym2612"
    },
    {
      "channel": 4,
      "note": 77,
      "start": 33.0616,
      "duration": 0.1019,
      "velocity": 83,
      "chip": "ym2612"
    },
    {
      "channel": 5,
      "note": 75,
      "start": 33.0623,
      "duration": 0.1014,
      "velocity": 83,
      "chip": "ym2612"
    },
    {
      "channel": 2,
      "note": 37,
      "start": 33.1646,
      "duration": 0.0547,
      "velocity": 120,
      "chip": "ym2612"
    },
    {
      "channel": 1,
      "note": 53,
      "start": 33.2641,
      "duration": 0.0975,
      "velocity": 97,
      "chip": "ym2612"
    },
    {
      "channel": 3,
      "note": 80,
      "start": 33.2648,
      "duration": 0.0975,
      "velocity": 83,
      "chip": "ym2612"
    },
    {
      "channel": 4,
      "note": 77,
      "start": 33.2655,
      "duration": 0.097,
      "velocity": 83,
      "chip": "ym2612"
    },
    {
      "channel": 5,
      "note": 75,
      "start": 33.2663,
      "duration": 0.0966,
      "velocity": 83,
      "chip": "ym2612"
    },
    {
      "channel": 2,
      "note": 37,
      "start": 33.267,
      "duration": 0.0539,
      "velocity": 120,
      "chip": "ym2612"
    },
    {
      "channel": 1,
      "note": 55,
      "start": 33.3621,
      "duration": 0.1027,
      "velocity": 97,
      "chip": "ym2612"
    },
    {
      "channel": 3,
      "note": 82,
      "start": 33.4657,
      "duration": 0.4025,
      "velocity": 83,
      "chip": "ym2612"
    },
    {
      "channel": 4,
      "note": 77,
      "start": 33.4665,
      "duration": 0.4026,
      "velocity": 83,
      "chip": "ym2612"
    },
    {
      "channel": 5,
      "note": 75,
      "start": 33.4672,
      "duration": 0.4025,
      "velocity": 83,
      "chip": "ym2612"
    },
    {
      "channel": 2,
      "note": 82,
      "start": 33.4683,
      "duration": 0.1059,
      "velocity": 127,
      "chip": "ym2612"
    },
    {
      "channel": 1,
      "note": 55,
      "start": 33.5633,
      "duration": 0.1028,
      "velocity": 97,
      "chip": "ym2612"
    },
    {
      "channel": 2,
      "note": 37,
      "start": 33.668,
      "duration": 0.0568,
      "velocity": 120,
      "chip": "ym2612"
    },
    {
      "channel": 1,
      "note": 56,
      "start": 33.7674,
      "duration": 0.1006,
      "velocity": 97,
      "chip": "ym2612"
    },
    {
      "channel": 2,
      "note": 82,
      "start": 33.7695,
      "duration": 0.0952,
      "velocity": 127,
      "chip": "ym2612"
    },
    {
      "channel": 3,
      "note": 82,
      "start": 33.8689,
      "duration": 0.2006,
      "velocity": 83,
      "chip": "ym2612"
    },
    {
      "channel": 4,
      "note": 77,
      "start": 33.8697,
      "duration": 0.2005,
      "velocity": 83,
      "chip": "ym2612"
    },
    {
      "channel": 5,
      "note": 75,
      "start": 33.8704,
      "duration": 0.2003,
      "velocity": 83,
      "chip": "ym2612"
    },
    {
      "channel": 2,
      "note": 37,
      "start": 33.8711,
      "duration": 0.054,
      "velocity": 120,
      "chip": "ym2612"
    },
    {
      "channel": 1,
      "note": 58,
      "start": 33.9661,
      "duration": 0.1027,
      "velocity": 97,
      "chip": "ym2612"
    },
    {
      "channel": 1,
      "note": 53,
      "start": 34.0694,
      "duration": 0.1,
      "velocity": 97,
      "chip": "ym2612"
    },
    {
      "channel": 3,
      "note": 82,
      "start": 34.07,
      "duration": 0.0998,
      "velocity": 83,
      "chip": "ym2612"
    },
    {
      "channel": 4,
      "note": 77,
      "start": 34.0706,
      "duration": 0.0998,
      "velocity": 83,
      "chip": "ym2612"
    },
    {
      "channel": 5,
      "note": 75,
      "start": 34.0712,
      "duration": 0.0999,
      "velocity": 83,
      "chip": "ym2612"
    },
    {
      "channel": 2,
      "note": 37,
      "start": 34.0735,
      "duration": 0.0526,
      "velocity": 120,
      "chip": "ym2612"
    },
    {
      "channel": 3,
      "note": 82,
      "start": 34.1702,
      "duration": 0.1006,
      "velocity": 83,
      "chip": "ym2612"
    },
    {
      "channel": 4,
      "note": 77,
      "start": 34.171,
      "duration": 0.1006,
      "velocity": 83,
      "chip": "ym2612"
    },
    {
      "channel": 5,
      "note": 75,
      "start": 34.1717,
      "duration": 0.1022,
      "velocity": 83,
      "chip": "ym2612"
    },
    {
      "channel": 2,
      "note": 37,
      "start": 34.174,
      "duration": 0.0526,
      "velocity": 120,
      "chip": "ym2612"
    },
    {
      "channel": 1,
      "note": 55,
      "start": 34.2707,
      "duration": 0.1,
      "velocity": 97,
      "chip": "ym2612"
    },
    {
      "channel": 3,
      "note": 80,
      "start": 34.2714,
      "duration": 0.0996,
      "velocity": 83,
      "chip": "ym2612"
    },
    {
      "channel": 4,
      "note": 77,
      "start": 34.2738,
      "duration": 0.0996,
      "velocity": 83,
      "chip": "ym2612"
    },
    {
      "channel": 5,
      "note": 75,
      "start": 34.2745,
      "duration": 0.0997,
      "velocity": 83,
      "chip": "ym2612"
    },
    {
      "channel": 2,
      "note": 82,
      "start": 34.2756,
      "duration": 0.0923,
      "velocity": 127,
      "chip": "ym2612"
    },
    {
      "channel": 3,
      "note": 82,
      "start": 34.3717,
      "duration": 0.0978,
      "velocity": 83,
      "chip": "ym2612"
    },
    {
      "channel": 4,
      "note": 77,
      "start": 34.374,
      "duration": 0.0963,
      "velocity": 83,
      "chip": "ym2612"
    },
    {
      "channel": 5,
      "note": 75,
      "start": 34.3747,
      "duration": 0.0963,
      "velocity": 83,
      "chip": "ym2612"
    },
    {
      "channel": 2,
      "note": 37,
      "start": 34.3755,
      "duration": 0.0524,
      "velocity": 120,
      "chip": "ym2612"
    },
    {
      "channel": 1,
      "note": 56,
      "start": 34.4694,
      "duration": 0.1044,
      "velocity": 97,
      "chip": "ym2612"
    },
    {
      "channel": 3,
      "note": 80,
      "start": 34.4702,
      "duration": 0.1039,
      "velocity": 83,
      "chip": "ym2612"
    },
    {
      "channel": 4,
      "note": 77,
      "start": 34.4709,
      "duration": 0.104,
      "velocity": 83,
      "chip": "ym2612"
    },
    {
      "channel": 5,
      "note": 75,
      "start": 34.4716,
      "duration": 0.1039,
      "velocity": 83,
      "chip": "ym2612"
    },
    {
      "channel": 3,
      "note": 80,
      "start": 34.5747,
      "duration": 0.0963,
      "velocity": 83,
      "chip": "ym2612"
    },
    {
      "channel": 4,
      "note": 77,
      "start": 34.5754,
      "duration": 0.0963,
      "velocity": 83,
      "chip": "ym2612"
    },
    {
      "channel": 5,
      "note": 75,
      "start": 34.5762,
      "duration": 0.0978,
      "velocity": 83,
      "chip": "ym2612"
    },
    {
      "channel": 2,
      "note": 37,
      "start": 34.5769,
      "duration": 0.0523,
      "velocity": 120,
      "chip": "ym2612"
    },
    {
      "channel": 1,
      "note": 58,
      "start": 34.6707,
      "duration": 0.1044,
      "velocity": 97,
      "chip": "ym2612"
    },
    {
      "channel": 3,
      "note": 82,
      "start": 34.6715,
      "duration": 0.1039,
      "velocity": 83,
      "chip": "ym2612"
    },
    {
      "channel": 4,
      "note": 77,
      "start": 34.6739,
      "duration": 0.1018,
      "velocity": 83,
      "chip": "ym2612"
    },
    {
      "channel": 5,
      "note": 75,
      "start": 34.6746,
      "duration": 0.1015,
      "velocity": 83,
      "chip": "ym2612"
    },
    {
      "channel": 2,
      "note": 37,
      "start": 34.777,
      "duration": 0.0529,
      "velocity": 120,
      "chip": "ym2612"
    },
    {
      "channel": 1,
      "note": 53,
      "start": 34.8763,
      "duration": 0.0975,
      "velocity": 97,
      "chip": "ym2612"
    },
    {
      "channel": 3,
      "note": 80,
      "start": 34.8771,
      "duration": 0.0971,
      "velocity": 83,
      "chip": "ym2612"
    },
    {
      "channel": 4,
      "note": 77,
      "start": 34.8778,
      "duration": 0.0967,
      "velocity": 83,
      "chip": "ym2612"
    },
    {
      "channel": 5,
      "note": 75,
      "start": 34.8785,
      "duration": 0.0963,
      "velocity": 83,
      "chip": "ym2612"
    },
    {
      "channel": 2,
      "note": 37,
      "start": 34.8793,
      "duration": 0.0522,
      "velocity": 120,
      "chip": "ym2612"
    },
    {
      "channel": 1,
      "note": 57,
      "start": 35.0773,
      "duration": 0.0998,
      "velocity": 97,
      "chip": "ym2612"
    },
    {
      "channel": 3,
      "note": 79,
      "start": 35.078,
      "duration": 0.4009,
      "velocity": 83,
      "chip": "ym2612"
    },
    {
      "channel": 4,
      "note": 74,
      "start": 35.0788,
      "duration": 0.401,
      "velocity": 83,
      "chip": "ym2612"
    },
    {
      "channel": 5,
      "note": 72,
      "start": 35.0796,
      "duration": 0.401,
      "velocity": 83,
      "chip": "ym2612"
    },
    {
      "channel": 2,
      "note": 82,
      "start": 35.0806,
      "duration": 0.0935,
      "velocity": 127,
      "chip": "ym2612"
    },
    {
      "channel": 1,
      "note": 57,
      "start": 35.1776,
      "duration": 0.0992,
      "velocity": 97,
      "chip": "ym2612"
    },
    {
      "channel": 2,
      "note": 82,
      "start": 35.1796,
      "duration": 0.0943,
      "velocity": 127,
      "chip": "ym2612"
    },
    {
      "channel": 1,
      "note": 57,
      "start": 35.2774,
      "duration": 0.1001,
      "velocity": 97,
      "chip": "ym2612"
    },
    {
      "channel": 2,
      "note": 82,
      "start": 35.2795,
      "duration": 0.0952,
      "velocity": 127,
      "chip": "ym2612"
    },
    {
      "channel": 1,
      "note": 57,
      "start": 35.378,
      "duration": 0.1006,
      "velocity": 97,
      "chip": "ym2612"
    },
    {
      "channel": 2,
      "note": 82,
      "start": 35.3801,
      "duration": 0.0953,
      "velocity": 127,
      "chip": "ym2612"
    },
    {
      "channel": 3,
      "note": 78,
      "start": 35.4796,
      "duration": 0.2002,
      "velocity": 83,
      "chip": "ym2612"
    },
    {
      "channel": 4,
      "note": 73,
      "start": 35.4803,
      "duration": 0.2,
      "velocity": 83,
      "chip": "ym2612"
    },
    {
      "channel": 5,
      "note": 71,
      "start": 35.4811,
      "duration": 0.1999,
      "velocity": 83,
      "chip": "ym2612"
    },
    {
      "channel": 2,
      "note": 37,
      "start": 35.4819,
      "duration": 0.0534,
      "velocity": 120,
      "chip": "ym2612"
    },
    {
      "channel": 1,
      "note": 54,
      "start": 35.5794,
      "duration": 0.1001,
      "velocity": 97,
      "chip": "ym2612"
    },
    {
      "channel": 2,
      "note": 37,
      "start": 35.5812,
      "duration": 0.0551,
      "velocity": 120,
      "chip": "ym2612"
    },
    {
      "channel": 3,
      "note": 78,
      "start": 35.6802,
      "duration": 0.1007,
      "velocity": 83,
      "chip": "ym2612"
    },
    {
      "channel": 4,
      "note": 73,
      "start": 35.6808,
      "duration": 0.1007,
      "velocity": 83,
      "chip": "ym2612"
    },
    {
      "channel": 5,
      "note": 71,
      "start": 35.6814,
      "duration": 0.1008,
      "velocity": 83,
      "chip": "ym2612"
    },
    {
      "channel": 2,
      "note": 37,
      "start": 35.6821,
      "duration": 0.0544,
      "velocity": 120,
      "chip": "ym2612"
    },
    {
      "channel": 1,
      "note": 49,
      "start": 35.7807,
      "duration": 0.1001,
      "velocity": 97,
      "chip": "ym2612"
    },
    {
      "channel": 3,
      "note": 78,
      "start": 35.7814,
      "duration": 0.1002,
      "velocity": 83,
      "chip": "ym2612"
    },
    {
      "channel": 4,
      "note": 73,
      "start": 35.7821,
      "duration": 0.1002,
      "velocity": 83,
      "chip": "ym2612"
    },
    {
      "channel": 5,
      "note": 71,
      "start": 35.7828,
      "duration": 0.1003,
      "velocity": 83,
      "chip": "ym2612"
    },
    {
      "channel": 2,
      "note": 37,
      "start": 35.7835,
      "duration": 0.054,
      "velocity": 120,
      "chip": "ym2612"
    },
    {
      "channel": 1,
      "note": 52,
      "start": 35.8814,
      "duration": 0.1001,
      "velocity": 97,
      "chip": "ym2612"
    },
    {
      "channel": 3,
      "note": 75,
      "start": 35.8822,
      "duration": 0.0996,
      "velocity": 83,
      "chip": "ym2612"
    },
    {
      "channel": 4,
      "note": 73,
      "start": 35.8829,
      "duration": 0.0996,
      "velocity": 83,
      "chip": "ym2612"
    },
    {
      "channel": 5,
      "note": 71,
      "start": 35.8837,
      "duration": 0.0996,
      "velocity": 83,
      "chip": "ym2612"
    },
    {
      "channel": 2,
      "note": 82,
      "start": 35.8847,
      "duration": 0.0939,
      "velocity": 127,
      "chip": "ym2612"
    },
    {
      "channel": 3,
      "note": 78,
      "start": 35.9824,
      "duration": 0.0978,
      "velocity": 83,
      "chip": "ym2612"
    },
    {
      "channel": 4,
      "note": 73,
      "start": 35.9831,
      "duration": 0.0974,
      "velocity": 83,
      "chip": "ym2612"
    },
    {
      "channel": 5,
      "note": 71,
      "start": 35.9838,
      "duration": 0.097,
      "velocity": 83,
      "chip": "ym2612"
    },
    {
      "channel": 2,
      "note": 37,
      "start": 35.9846,
      "duration": 0.0557,
      "velocity": 120,
      "chip": "ym2612"
    },
    {
      "channel": 1,
      "note": 51,
      "start": 36.08,
      "duration": 0.1028,
      "velocity": 97,
      "chip": "ym2612"
    },
    {
      "channel": 3,
      "note": 75,
      "start": 36.1837,
      "duration": 0.0978,
      "velocity": 83,
      "chip": "ym2612"
    },
    {
      "channel": 4,
      "note": 73,
      "start": 36.1845,
      "duration": 0.0978,
      "velocity": 83,
      "chip": "ym2612"
    },
    {
      "channel": 5,
      "note": 71,
      "start": 36.1852,
      "duration": 0.0978,
      "velocity": 83,
      "chip": "ym2612"
    },
    {
      "channel": 2,
      "note": 37,
      "start": 36.1859,
      "duration": 0.0556,
      "velocity": 120,
      "chip": "ym2612"
    },
    {
      "channel": 1,
      "note": 52,
      "start": 36.2814,
      "duration": 0.1028,
      "velocity": 97,
      "chip": "ym2612"
    },
    {
      "channel": 3,
      "note": 78,
      "start": 36.2822,
      "duration": 0.1024,
      "velocity": 83,
      "chip": "ym2612"
    },
    {
      "channel": 4,
      "note": 73,
      "start": 36.2829,
      "duration": 0.102,
      "velocity": 83,
      "chip": "ym2612"
    },
    {
      "channel": 5,
      "note": 71,
      "start": 36.2837,
      "duration": 0.1015,
      "velocity": 83,
      "chip": "ym2612"
    },
    {
      "channel": 2,
      "note": 37,
      "start": 36.3861,
      "duration": 0.0549,
      "velocity": 120,
      "chip": "ym2612"
    },
    {
      "channel": 1,
      "note": 51,
      "start": 36.4854,
      "duration": 0.0975,
      "velocity": 97,
      "chip": "ym2612"
    },
    {
      "channel": 3,
      "note": 75,
      "start": 36.4862,
      "duration": 0.097,
      "velocity": 83,
      "chip": "ym2612"
    },
    {
      "channel": 4,
      "note": 73,
      "start": 36.4869,
      "duration": 0.0966,
      "velocity": 83,
      "chip": "ym2612"
    },
    {
      "channel": 5,
      "note": 71,
      "start": 36.4877,
      "duration": 0.0962,
      "velocity": 83,
      "chip": "ym2612"
    },
    {
      "channel": 2,
      "note": 37,
      "start": 36.4884,
      "duration": 0.0539,
      "velocity": 120,
      "chip": "ym2612"
    },
    {
      "channel": 1,
      "note": 52,
      "start": 36.6868,
      "duration": 0.0975,
      "velocity": 97,
      "chip": "ym2612"
    },
    {
      "channel": 3,
      "note": 77,
      "start": 36.6875,
      "duration": 0.4038,
      "velocity": 83,
      "chip": "ym2612"
    },
    {
      "channel": 4,
      "note": 73,
      "start": 36.6883,
      "duration": 0.4037,
      "velocity": 83,
      "chip": "ym2612"
    },
    {
      "channel": 5,
      "note": 71,
      "start": 36.6906,
      "duration": 0.4022,
      "velocity": 83,
      "chip": "ym2612"
    },
    {
      "channel": 2,
      "note": 82,
      "start": 36.6917,
      "duration": 0.1023,
      "velocity": 127,
      "chip": "ym2612"
    },
    {
      "channel": 1,
      "note": 54,
      "start": 36.7848,
      "duration": 0.1027,
      "velocity": 97,
      "chip": "ym2612"
    },
    {
      "channel": 2,
      "note": 37,
      "start": 36.891,
      "duration": 0.0537,
      "velocity": 120,
      "chip": "ym2612"
    },
    {
      "channel": 1,
      "note": 49,
      "start": 36.9903,
      "duration": 0.1007,
      "velocity": 97,
      "chip": "ym2612"
    },
    {
      "channel": 2,
      "note": 82,
      "start": 36.9924,
      "duration": 0.0937,
      "velocity": 127,
      "chip": "ym2612"
    },
    {
      "channel": 3,
      "note": 78,
      "start": 37.0919,
      "duration": 0.2002,
      "velocity": 83,
      "chip": "ym2612"
    },
    {
      "channel": 4,
      "note": 73,
      "start": 37.0927,
      "duration": 0.2,
      "velocity": 83,
      "chip": "ym2612"
    },
    {
      "channel": 5,
      "note": 71,
      "start": 37.0934,
      "duration": 0.1999,
      "velocity": 83,
      "chip": "ym2612"
    },
    {
      "channel": 2,
      "note": 37,
      "start": 37.0941,
      "duration": 0.0518,
      "velocity": 120,
      "chip": "ym2612"
    },
    {
      "channel": 1,
      "note": 54,
      "start": 37.1875,
      "duration": 0.1043,
      "velocity": 97,
      "chip": "ym2612"
    },
    {
      "channel": 3,
      "note": 78,
      "start": 37.2926,
      "duration": 0.1007,
      "velocity": 83,
      "chip": "ym2612"
    },
    {
      "channel": 4,
      "note": 73,
      "start": 37.2931,
      "duration": 0.1007,
      "velocity": 83,
      "chip": "ym2612"
    },
    {
      "channel": 5,
      "note": 71,
      "start": 37.2938,
      "duration": 0.1008,
      "velocity": 83,
      "chip": "ym2612"
    },
    {
      "channel": 2,
      "note": 37,
      "start": 37.2945,
      "duration": 0.0529,
      "velocity": 120,
      "chip": "ym2612"
    },
    {
      "channel": 1,
      "note": 49,
      "start": 37.3931,
      "duration": 0.1001,
      "velocity": 97,
      "chip": "ym2612"
    },
    {
      "channel": 3,
      "note": 78,
      "start": 37.3937,
      "duration": 0.1002,
      "velocity": 83,
      "chip": "ym2612"
    },
    {
      "channel": 4,
      "note": 73,
      "start": 37.3945,
      "duration": 0.1002,
      "velocity": 83,
      "chip": "ym2612"
    },
    {
      "channel": 5,
      "note": 71,
      "start": 37.3952,
      "duration": 0.1002,
      "velocity": 83,
      "chip": "ym2612"
    },
    {
      "channel": 2,
      "note": 37,
      "start": 37.3959,
      "duration": 0.0523,
      "velocity": 120,
      "chip": "ym2612"
    },
    {
      "channel": 1,
      "note": 52,
      "start": 37.4937,
      "duration": 0.0997,
      "velocity": 97,
      "chip": "ym2612"
    },
    {
      "channel": 3,
      "note": 75,
      "start": 37.4945,
      "duration": 0.0992,
      "velocity": 83,
      "chip": "ym2612"
    },
    {
      "channel": 4,
      "note": 73,
      "start": 37.4952,
      "duration": 0.0992,
      "velocity": 83,
      "chip": "ym2612"
    },
    {
      "channel": 5,
      "note": 71,
      "start": 37.496,
      "duration": 0.0992,
      "velocity": 83,
      "chip": "ym2612"
    },
    {
      "channel": 2,
      "note": 82,
      "start": 37.497,
      "duration": 0.0934,
      "velocity": 127,
      "chip": "ym2612"
    },
    {
      "channel": 3,
      "note": 78,
      "start": 37.5943,
      "duration": 0.0972,
      "velocity": 83,
      "chip": "ym2612"
    },
    {
      "channel": 4,
      "note": 73,
      "start": 37.595,
      "duration": 0.0972,
      "velocity": 83,
      "chip": "ym2612"
    },
    {
      "channel": 5,
      "note": 71,
      "start": 37.5957,
      "duration": 0.0973,
      "velocity": 83,
      "chip": "ym2612"
    },
    {
      "channel": 2,
      "note": 37,
      "start": 37.5965,
      "duration": 0.0528,
      "velocity": 120,
      "chip": "ym2612"
    },
    {
      "channel": 1,
      "note": 51,
      "start": 37.6913,
      "duration": 0.1022,
      "velocity": 97,
      "chip": "ym2612"
    },
    {
      "channel": 3,
      "note": 75,
      "start": 37.6921,
      "duration": 0.1018,
      "velocity": 83,
      "chip": "ym2612"
    },
    {
      "channel": 4,
      "note": 73,
      "start": 37.6928,
      "duration": 0.1018,
      "velocity": 83,
      "chip": "ym2612"
    },
    {
      "channel": 5,
      "note": 71,
      "start": 37.6936,
      "duration": 0.1018,
      "velocity": 83,
      "chip": "ym2612"
    },
    {
      "channel": 3,
      "note": 75,
      "start": 37.7945,
      "duration": 0.0978,
      "velocity": 83,
      "chip": "ym2612"
    },
    {
      "channel": 4,
      "note": 73,
      "start": 37.7952,
      "duration": 0.0978,
      "velocity": 83,
      "chip": "ym2612"
    },
    {
      "channel": 5,
      "note": 71,
      "start": 37.796,
      "duration": 0.0978,
      "velocity": 83,
      "chip": "ym2612"
    },
    {
      "channel": 2,
      "note": 37,
      "start": 37.7967,
      "duration": 0.054,
      "velocity": 120,
      "chip": "ym2612"
    },
    {
      "channel": 1,
      "note": 52,
      "start": 37.8921,
      "duration": 0.1027,
      "velocity": 97,
      "chip": "ym2612"
    },
    {
      "channel": 3,
      "note": 78,
      "start": 37.8929,
      "duration": 0.1023,
      "velocity": 83,
      "chip": "ym2612"
    },
    {
      "channel": 4,
      "note": 73,
      "start": 37.8936,
      "duration": 0.1019,
      "velocity": 83,
      "chip": "ym2612"
    },
    {
      "channel": 5,
      "note": 71,
      "start": 37.8944,
      "duration": 0.1014,
      "velocity": 83,
      "chip": "ym2612"
    },
    {
      "channel": 2,
      "note": 37,
      "start": 37.9967,
      "duration": 0.0546,
      "velocity": 120,
      "chip": "ym2612"
    },
    {
      "channel": 1,
      "note": 51,
      "start": 38.0961,
      "duration": 0.0975,
      "velocity": 97,
      "chip": "ym2612"
    },
    {
      "channel": 3,
      "note": 75,
      "start": 38.0968,
      "duration": 0.0971,
      "velocity": 83,
      "chip": "ym2612"
    },
    {
      "channel": 4,
      "note": 73,
      "start": 38.0976,
      "duration": 0.0966,
      "velocity": 83,
      "chip": "ym2612"
    },
    {
      "channel": 5,
      "note": 71,
      "start": 38.0983,
      "duration": 0.0962,
      "velocity": 83,
      "chip": "ym2612"
    },
    {
      "channel": 2,
      "note": 37,
      "start": 38.099,
      "duration": 0.0539,
      "velocity": 120,
      "chip": "ym2612"
    },
    {
      "channel": 1,
      "note": 52,
      "start": 38.2976,
      "duration": 0.0973,
      "velocity": 97,
      "chip": "ym2612"
    },
    {
      "channel": 3,
      "note": 77,
      "start": 38.2984,
      "duration": 0.402,
      "velocity": 83,
      "chip": "ym2612"
    },
    {
      "channel": 4,
      "note": 73,
      "start": 38.2992,
      "duration": 0.402,
      "velocity": 83,
      "chip": "ym2612"
    },
    {
      "channel": 5,
      "note": 71,
      "start": 38.2999,
      "duration": 0.402,
      "velocity": 83,
      "chip": "ym2612"
    },
    {
      "channel": 2,
      "note": 82,
      "start": 38.301,
      "duration": 0.1037,
      "velocity": 127,
      "chip": "ym2612"
    },
    {
      "channel": 1,
      "note": 54,
      "start": 38.3956,
      "duration": 0.1027,
      "velocity": 97,
      "chip": "ym2612"
    },
    {
      "channel": 2,
      "note": 37,
      "start": 38.5002,
      "duration": 0.057,
      "velocity": 120,
      "chip": "ym2612"
    },
    {
      "channel": 1,
      "note": 49,
      "start": 38.5995,
      "duration": 0.1005,
      "velocity": 97,
      "chip": "ym2612"
    },
    {
      "channel": 2,
      "note": 37,
      "start": 38.6013,
      "duration": 0.0567,
      "velocity": 120,
      "chip": "ym2612"
    },
    {
      "channel": 3,
      "note": 78,
      "start": 38.701,
      "duration": 0.2001,
      "velocity": 83,
      "chip": "ym2612"
    },
    {
      "channel": 4,
      "note": 73,
      "start": 38.7018,
      "duration": 0.2,
      "velocity": 83,
      "chip": "ym2612"
    },
    {
      "channel": 5,
      "note": 71,
      "start": 38.7025,
      "duration": 0.1998,
      "velocity": 83,
      "chip": "ym2612"
    },
    {
      "channel": 2,
      "note": 37,
      "start": 38.7033,
      "duration": 0.055,
      "velocity": 120,
      "chip": "ym2612"
    },
    {
      "channel": 1,
      "note": 54,
      "start": 38.8008,
      "duration": 0.1,
      "velocity": 97,
      "chip": "ym2612"
    },
    {
      "channel": 2,
      "note": 37,
      "start": 38.8025,
      "duration": 0.0562,
      "velocity": 120,
      "chip": "ym2612"
    },
    {
      "channel": 3,
      "note": 78,
      "start": 38.9017,
      "duration": 0.1007,
      "velocity": 83,
      "chip": "ym2612"
    },
    {
      "channel": 4,
      "note": 73,
      "start": 38.9022,
      "duration": 0.1007,
      "velocity": 83,
      "chip": "ym2612"
    },
    {
      "channel": 5,
      "note": 71,
      "start": 38.9028,
      "duration": 0.1009,
      "velocity": 83,
      "chip": "ym2612"
    },
    {
      "channel": 2,
      "note": 37,
      "start": 38.9036,
      "duration": 0.0548,
      "velocity": 120,
      "chip": "ym2612"
    },
    {
      "channel": 1,
      "note": 49,
      "start": 39.0022,
      "duration": 0.1001,
      "velocity": 97,
      "chip": "ym2612"
    },
    {
      "channel": 3,
      "note": 78,
      "start": 39.0028,
      "duration": 0.1001,
      "velocity": 83,
      "chip": "ym2612"
    },
    {
      "channel": 4,
      "note": 73,
      "start": 39.0035,
      "duration": 0.1002,
      "velocity": 83,
      "chip": "ym2612"
    },
    {
      "channel": 5,
      "note": 71,
      "start": 39.0043,
      "duration": 0.1001,
      "velocity": 83,
      "chip": "ym2612"
    },
    {
      "channel": 2,
      "note": 37,
      "start": 39.005,
      "duration": 0.0539,
      "velocity": 120,
      "chip": "ym2612"
    },
    {
      "channel": 1,
      "note": 52,
      "start": 39.1028,
      "duration": 0.1001,
      "velocity": 97,
      "chip": "ym2612"
    },
    {
      "channel": 3,
      "note": 75,
      "start": 39.1035,
      "duration": 0.0998,
      "velocity": 83,
      "chip": "ym2612"
    },
    {
      "channel": 4,
      "note": 73,
      "start": 39.1043,
      "duration": 0.0998,
      "velocity": 83,
      "chip": "ym2612"
    },
    {
      "channel": 5,
      "note": 71,
      "start": 39.105,
      "duration": 0.0997,
      "velocity": 83,
      "chip": "ym2612"
    },
    {
      "channel": 2,
      "note": 82,
      "start": 39.1076,
      "duration": 0.0924,
      "velocity": 127,
      "chip": "ym2612"
    },
    {
      "channel": 3,
      "note": 78,
      "start": 39.2038,
      "duration": 0.0978,
      "velocity": 83,
      "chip": "ym2612"
    },
    {
      "channel": 4,
      "note": 73,
      "start": 39.2046,
      "duration": 0.0973,
      "velocity": 83,
      "chip": "ym2612"
    },
    {
      "channel": 5,
      "note": 71,
      "start": 39.2069,
      "duration": 0.0953,
      "velocity": 83,
      "chip": "ym2612"
    },
    {
      "channel": 2,
      "note": 37,
      "start": 39.2076,
      "duration": 0.0524,
      "velocity": 120,
      "chip": "ym2612"
    },
    {
      "channel": 1,
      "note": 51,
      "start": 39.3015,
      "duration": 0.1031,
      "velocity": 97,
      "chip": "ym2612"
    },
    {
      "channel": 3,
      "note": 75,
      "start": 39.4071,
      "duration": 0.0959,
      "velocity": 83,
      "chip": "ym2612"
    },
    {
      "channel": 4,
      "note": 73,
      "start": 39.4079,
      "duration": 0.0959,
      "velocity": 83,
      "chip": "ym2612"
    },
    {
      "channel": 5,
      "note": 71,
      "start": 39.4086,
      "duration": 0.0959,
      "velocity": 83,
      "chip": "ym2612"
    },
    {
      "channel": 2,
      "note": 37,
      "start": 39.4093,
      "duration": 0.0521,
      "velocity": 120,
      "chip": "ym2612"
    },
    {
      "channel": 1,
      "note": 52,
      "start": 39.5029,
      "duration": 0.1043,
      "velocity": 97,
      "chip": "ym2612"
    },
    {
      "channel": 3,
      "note": 78,
      "start": 39.5036,
      "duration": 0.1038,
      "velocity": 83,
      "chip": "ym2612"
    },
    {
      "channel": 4,
      "note": 73,
      "start": 39.5043,
      "duration": 0.1034,
      "velocity": 83,
      "chip": "ym2612"
    },
    {
      "channel": 5,
      "note": 71,
      "start": 39.5051,
      "duration": 0.1029,
      "velocity": 83,
      "chip": "ym2612"
    },
    {
      "channel": 2,
      "note": 37,
      "start": 39.609,
      "duration": 0.0533,
      "velocity": 120,
      "chip": "ym2612"
    },
    {
      "channel": 1,
      "note": 51,
      "start": 39.7084,
      "duration": 0.0959,
      "velocity": 97,
      "chip": "ym2612"
    },
    {
      "channel": 3,
      "note": 75,
      "start": 39.7092,
      "duration": 0.0955,
      "velocity": 83,
      "chip": "ym2612"
    },
    {
      "channel": 4,
      "note": 73,
      "start": 39.7099,
      "duration": 0.095,
      "velocity": 83,
      "chip": "ym2612"
    },
    {
      "channel": 5,
      "note": 71,
      "start": 39.7106,
      "duration": 0.0963,
      "velocity": 83,
      "chip": "ym2612"
    },
    {
      "channel": 2,
      "note": 37,
      "start": 39.7114,
      "duration": 0.0522,
      "velocity": 120,
      "chip": "ym2612"
    },
    {
      "channel": 1,
      "note": 52,
      "start": 39.9097,
      "duration": 0.0975,
      "velocity": 97,
      "chip": "ym2612"
    },
    {
      "channel": 3,
      "note": 77,
      "start": 39.9106,
      "duration": 0.4006,
      "velocity": 83,
      "chip": "ym2612"
    },
    {
      "channel": 4,
      "note": 73,
      "start": 39.9113,
      "duration": 0.4006,
      "velocity": 83,
      "chip": "ym2612"
    },
    {
      "channel": 5,
      "note": 71,
      "start": 39.9121,
      "duration": 0.4006,
      "velocity": 83,
      "chip": "ym2612"
    },
    {
      "channel": 2,
      "note": 82,
      "start": 39.9131,
      "duration": 0.1022,
      "velocity": 127,
      "chip": "ym2612"
    },
    {
      "channel": 1,
      "note": 54,
      "start": 40.0078,
      "duration": 0.1022,
      "velocity": 97,
      "chip": "ym2612"
    },
    {
      "channel": 2,
      "note": 37,
      "start": 40.112,
      "duration": 0.0541,
      "velocity": 120,
      "chip": "ym2612"
    },
    {
      "channel": 1,
      "note": 49,
      "start": 40.2106,
      "duration": 0.1002,
      "velocity": 97,
      "chip": "ym2612"
    },
    {
      "channel": 2,
      "note": 82,
      "start": 40.2126,
      "duration": 0.0949,
      "velocity": 127,
      "chip": "ym2612"
    },
    {
      "channel": 3,
      "note": 78,
      "start": 40.3117,
      "duration": 0.2002,
      "velocity": 83,
      "chip": "ym2612"
    },
    {
      "channel": 4,
      "note": 73,
      "start": 40.3125,
      "duration": 0.2,
      "velocity": 83,
      "chip": "ym2612"
    },
    {
      "channel": 5,
      "note": 71,
      "start": 40.3132,
      "duration": 0.1999,
      "velocity": 83,
      "chip": "ym2612"
    },
    {
      "channel": 2,
      "note": 37,
      "start": 40.314,
      "duration": 0.0534,
      "velocity": 120,
      "chip": "ym2612"
    },
    {
      "channel": 1,
      "note": 54,
      "start": 40.4089,
      "duration": 0.1027,
      "velocity": 97,
      "chip": "ym2612"
    },
    {
      "channel": 3,
      "note": 78,
      "start": 40.5123,
      "duration": 0.1007,
      "velocity": 83,
      "chip": "ym2612"
    },
    {
      "channel": 4,
      "note": 73,
      "start": 40.5129,
      "duration": 0.1008,
      "velocity": 83,
      "chip": "ym2612"
    },
    {
      "channel": 5,
      "note": 71,
      "start": 40.5135,
      "duration": 0.1008,
      "velocity": 83,
      "chip": "ym2612"
    },
    {
      "channel": 2,
      "note": 37,
      "start": 40.5142,
      "duration": 0.0545,
      "velocity": 120,
      "chip": "ym2612"
    },
    {
      "channel": 1,
      "note": 49,
      "start": 40.6129,
      "duration": 0.1,
      "velocity": 97,
      "chip": "ym2612"
    },
    {
      "channel": 3,
      "note": 78,
      "start": 40.6135,
      "duration": 0.1002,
      "velocity": 83,
      "chip": "ym2612"
    },
    {
      "channel": 4,
      "note": 73,
      "start": 40.6142,
      "duration": 0.1002,
      "velocity": 83,
      "chip": "ym2612"
    },
    {
      "channel": 5,
      "note": 71,
      "start": 40.615,
      "duration": 0.1001,
      "velocity": 83,
      "chip": "ym2612"
    },
    {
      "channel": 2,
      "note": 37,
      "start": 40.6157,
      "duration": 0.0539,
      "velocity": 120,
      "chip": "ym2612"
    },
    {
      "channel": 1,
      "note": 52,
      "start": 40.7135,
      "duration": 0.1002,
      "velocity": 97,
      "chip": "ym2612"
    },
    {
      "channel": 3,
      "note": 75,
      "start": 40.7142,
      "duration": 0.0998,
      "velocity": 83,
      "chip": "ym2612"
    },
    {
      "channel": 4,
      "note": 73,
      "start": 40.715,
      "duration": 0.0998,
      "velocity": 83,
      "chip": "ym2612"
    },
    {
      "channel": 5,
      "note": 71,
      "start": 40.7158,
      "duration": 0.0997,
      "velocity": 83,
      "chip": "ym2612"
    },
    {
      "channel": 2,
      "note": 82,
      "start": 40.7168,
      "duration": 0.094,
      "velocity": 127,
      "chip": "ym2612"
    },
    {
      "channel": 3,
      "note": 78,
      "start": 40.8146,
      "duration": 0.0978,
      "velocity": 83,
      "chip": "ym2612"
    },
    {
      "channel": 4,
      "note": 73,
      "start": 40.8153,
      "duration": 0.0978,
      "velocity": 83,
      "chip": "ym2612"
    },
    {
      "channel": 5,
      "note": 71,
      "start": 40.8161,
      "duration": 0.0978,
      "velocity": 83,
      "chip": "ym2612"
    },
    {
      "channel": 2,
      "note": 37,
      "start": 40.8168,
      "duration": 0.0539,
      "velocity": 120,
      "chip": "ym2612"
    },
    {
      "channel": 1,
      "note": 51,
      "start": 40.9122,
      "duration": 0.1027,
      "velocity": 97,
      "chip": "ym2612"
    },
    {
      "channel": 3,
      "note": 75,
      "start": 40.913,
      "duration": 0.1023,
      "velocity": 83,
      "chip": "ym2612"
    },
    {
      "channel": 4,
      "note": 73,
      "start": 40.9137,
      "duration": 0.1023,
      "velocity": 83,
      "chip": "ym2612"
    },
    {
      "channel": 5,
      "note": 71,
      "start": 40.9144,
      "duration": 0.1023,
      "velocity": 83,
      "chip": "ym2612"
    },
    {
      "channel": 3,
      "note": 75,
      "start": 41.0158,
      "duration": 0.0979,
      "velocity": 83,
      "chip": "ym2612"
    },
    {
      "channel": 4,
      "note": 73,
      "start": 41.0166,
      "duration": 0.0979,
      "velocity": 83,
      "chip": "ym2612"
    },
    {
      "channel": 5,
      "note": 71,
      "start": 41.0174,
      "duration": 0.0979,
      "velocity": 83,
      "chip": "ym2612"
    },
    {
      "channel": 2,
      "note": 37,
      "start": 41.0181,
      "duration": 0.0556,
      "velocity": 120,
      "chip": "ym2612"
    },
    {
      "channel": 1,
      "note": 52,
      "start": 41.1136,
      "duration": 0.1026,
      "velocity": 97,
      "chip": "ym2612"
    },
    {
      "channel": 3,
      "note": 78,
      "start": 41.1144,
      "duration": 0.1022,
      "velocity": 83,
      "chip": "ym2612"
    },
    {
      "channel": 4,
      "note": 73,
      "start": 41.1151,
      "duration": 0.1018,
      "velocity": 83,
      "chip": "ym2612"
    },
    {
      "channel": 5,
      "note": 71,
      "start": 41.1158,
      "duration": 0.1013,
      "velocity": 83,
      "chip": "ym2612"
    },
    {
      "channel": 2,
      "note": 37,
      "start": 41.2181,
      "duration": 0.0562,
      "velocity": 120,
      "chip": "ym2612"
    },
    {
      "channel": 1,
      "note": 51,
      "start": 41.3176,
      "duration": 0.0975,
      "velocity": 97,
      "chip": "ym2612"
    },
    {
      "channel": 3,
      "note": 75,
      "start": 41.3183,
      "duration": 0.0971,
      "velocity": 83,
      "chip": "ym2612"
    },
    {
      "channel": 4,
      "note": 73,
      "start": 41.3191,
      "duration": 0.0966,
      "velocity": 83,
      "chip": "ym2612"
    },
    {
      "channel": 5,
      "note": 71,
      "start": 41.3198,
      "duration": 0.0962,
      "velocity": 83,
      "chip": "ym2612"
    },
    {
      "channel": 2,
      "note": 37,
      "start": 41.3205,
      "duration": 0.0548,
      "velocity": 120,
      "chip": "ym2612"
    },
    {
      "channel": 1,
      "note": 52,
      "start": 41.5188,
      "duration": 0.1001,
      "velocity": 97,
      "chip": "ym2612"
    },
    {
      "channel": 3,
      "note": 77,
      "start": 41.5196,
      "duration": 0.4073,
      "velocity": 83,
      "chip": "ym2612"
    },
    {
      "channel": 4,
      "note": 72,
      "start": 41.5204,
      "duration": 0.4099,
      "velocity": 83,
      "chip": "ym2612"
    },
    {
      "channel": 5,
      "note": 70,
      "start": 41.5211,
      "duration": 0.4126,
      "velocity": 83,
      "chip": "ym2612"
    },
    {
      "channel": 2,
      "note": 82,
      "start": 41.5238,
      "duration": 0.0922,
      "velocity": 127,
      "chip": "ym2612"
    },
    {
      "channel": 1,
      "note": 54,
      "start": 41.6195,
      "duration": 0.1001,
      "velocity": 97,
      "chip": "ym2612"
    },
    {
      "channel": 2,
      "note": 82,
      "start": 41.6216,
      "duration": 0.0952,
      "velocity": 127,
      "chip": "ym2612"
    },
    {
      "channel": 1,
      "note": 48,
      "start": 41.7202,
      "duration": 0.1001,
      "velocity": 97,
      "chip": "ym2612"
    },
    {
      "channel": 2,
      "note": 82,
      "start": 41.7239,
      "duration": 0.0935,
      "velocity": 127,
      "chip": "ym2612"
    },
    {
      "channel": 1,
      "note": 48,
      "start": 41.8209,
      "duration": 0.1029,
      "velocity": 97,
      "chip": "ym2612"
    },
    {
      "channel": 2,
      "note": 82,
      "start": 41.8246,
      "duration": 0.0936,
      "velocity": 127,
      "chip": "ym2612"
    },
    {
      "channel": 0,
      "note": 91,
      "start": 41.9235,
      "duration": 1.0125,
      "velocity": 106,
      "chip": "ym2612"
    },
    {
      "channel": 3,
      "note": 79,
      "start": 41.9275,
      "duration": 0.2044,
      "velocity": 83,
      "chip": "ym2612"
    },
    {
      "channel": 4,
      "note": 74,
      "start": 41.9309,
      "duration": 0.2016,
      "velocity": 83,
      "chip": "ym2612"
    },
    {
      "channel": 5,
      "note": 72,
      "start": 41.9344,
      "duration": 0.1987,
      "velocity": 83,
      "chip": "ym2612"
    },
    {
      "channel": 2,
      "note": 37,
      "start": 41.9351,
      "duration": 0.0518,
      "velocity": 120,
      "chip": "ym2612"
    },
    {
      "channel": 1,
      "note": 55,
      "start": 42.031,
      "duration": 0.1002,
      "velocity": 97,
      "chip": "ym2612"
    },
    {
      "channel": 2,
      "note": 37,
      "start": 42.0328,
      "duration": 0.0551,
      "velocity": 120,
      "chip": "ym2612"
    },
    {
      "channel": 1,
      "note": 50,
      "start": 42.1317,
      "duration": 0.1001,
      "velocity": 97,
      "chip": "ym2612"
    },
    {
      "channel": 3,
      "note": 79,
      "start": 42.1323,
      "duration": 0.0998,
      "velocity": 83,
      "chip": "ym2612"
    },
    {
      "channel": 4,
      "note": 74,
      "start": 42.1329,
      "duration": 0.0998,
      "velocity": 83,
      "chip": "ym2612"
    },
    {
      "channel": 5,
      "note": 72,
      "start": 42.1335,
      "duration": 0.0999,
      "velocity": 83,
      "chip": "ym2612"
    },
    {
      "channel": 2,
      "note": 37,
      "start": 42.1343,
      "duration": 0.0558,
      "velocity": 120,
      "chip": "ym2612"
    },
    {
      "channel": 3,
      "note": 79,
      "start": 42.2326,
      "duration": 0.1008,
      "velocity": 83,
      "chip": "ym2612"
    },
    {
      "channel": 4,
      "note": 74,
      "start": 42.2333,
      "duration": 0.1008,
      "velocity": 83,
      "chip": "ym2612"
    },
    {
      "channel": 5,
      "note": 72,
      "start": 42.234,
      "duration": 0.1008,
      "velocity": 83,
      "chip": "ym2612"
    },
    {
      "channel": 2,
      "note": 37,
      "start": 42.2348,
      "duration": 0.0557,
      "velocity": 120,
      "chip": "ym2612"
    },
    {
      "channel": 1,
      "note": 53,
      "start": 42.3332,
      "duration": 0.0999,
      "velocity": 97,
      "chip": "ym2612"
    },
    {
      "channel": 3,
      "note": 77,
      "start": 42.334,
      "duration": 0.0994,
      "velocity": 83,
      "chip": "ym2612"
    },
    {
      "channel": 4,
      "note": 74,
      "start": 42.3347,
      "duration": 0.0994,
      "velocity": 83,
      "chip": "ym2612"
    },
    {
      "channel": 5,
      "note": 72,
      "start": 42.3355,
      "duration": 0.0994,
      "velocity": 83,
      "chip": "ym2612"
    },
    {
      "channel": 2,
      "note": 82,
      "start": 42.3365,
      "duration": 0.0933,
      "velocity": 127,
      "chip": "ym2612"
    },
    {
      "channel": 3,
      "note": 79,
      "start": 42.434,
      "duration": 0.0979,
      "velocity": 83,
      "chip": "ym2612"
    },
    {
      "channel": 4,
      "note": 74,
      "start": 42.4347,
      "duration": 0.0974,
      "velocity": 83,
      "chip": "ym2612"
    },
    {
      "channel": 5,
      "note": 72,
      "start": 42.4355,
      "duration": 0.097,
      "velocity": 83,
      "chip": "ym2612"
    },
    {
      "channel": 2,
      "note": 37,
      "start": 42.4362,
      "duration": 0.0556,
      "velocity": 120,
      "chip": "ym2612"
    },
    {
      "channel": 1,
      "note": 50,
      "start": 42.5317,
      "duration": 0.1027,
      "velocity": 97,
      "chip": "ym2612"
    },
    {
      "channel": 3,
      "note": 77,
      "start": 42.6353,
      "duration": 0.0979,
      "velocity": 83,
      "chip": "ym2612"
    },
    {
      "channel": 4,
      "note": 74,
      "start": 42.6361,
      "duration": 0.0978,
      "velocity": 83,
      "chip": "ym2612"
    },
    {
      "channel": 5,
      "note": 72,
      "start": 42.6368,
      "duration": 0.0979,
      "velocity": 83,
      "chip": "ym2612"
    },
    {
      "channel": 2,
      "note": 37,
      "start": 42.6375,
      "duration": 0.0547,
      "velocity": 120,
      "chip": "ym2612"
    },
    {
      "channel": 1,
      "note": 55,
      "start": 42.733,
      "duration": 0.1027,
      "velocity": 97,
      "chip": "ym2612"
    },
    {
      "channel": 3,
      "note": 79,
      "start": 42.7338,
      "duration": 0.1023,
      "velocity": 83,
      "chip": "ym2612"
    },
    {
      "channel": 4,
      "note": 74,
      "start": 42.7345,
      "duration": 0.1019,
      "velocity": 83,
      "chip": "ym2612"
    },
    {
      "channel": 5,
      "note": 72,
      "start": 42.7352,
      "duration": 0.1015,
      "velocity": 83,
      "chip": "ym2612"
    },
    {
      "channel": 2,
      "note": 37,
      "start": 42.8376,
      "duration": 0.0545,
      "velocity": 120,
      "chip": "ym2612"
    },
    {
      "channel": 0,
      "note": 89,
      "start": 42.9368,
      "duration": 0.0972,
      "velocity": 106,
      "chip": "ym2612"
    },
    {
      "channel": 1,
      "note": 50,
      "start": 42.9375,
      "duration": 0.0974,
      "velocity": 97,
      "chip": "ym2612"
    },
    {
      "channel": 3,
      "note": 77,
      "start": 42.9382,
      "duration": 0.0969,
      "velocity": 83,
      "chip": "ym2612"
    },
    {
      "channel": 4,
      "note": 74,
      "start": 42.9406,
      "duration": 0.0949,
      "velocity": 83,
      "chip": "ym2612"
    },
    {
      "channel": 5,
      "note": 72,
      "start": 42.9413,
      "duration": 0.0945,
      "velocity": 83,
      "chip": "ym2612"
    },
    {
      "channel": 2,
      "note": 37,
      "start": 42.9421,
      "duration": 0.0518,
      "velocity": 120,
      "chip": "ym2612"
    },
    {
      "channel": 0,
      "note": 91,
      "start": 43.0347,
      "duration": 0.1025,
      "velocity": 106,
      "chip": "ym2612"
    },
    {
      "channel": 0,
      "note": 93,
      "start": 43.138,
      "duration": 0.0973,
      "velocity": 106,
      "chip": "ym2612"
    },
    {
      "channel": 1,
      "note": 53,
      "start": 43.1403,
      "duration": 0.0959,
      "velocity": 97,
      "chip": "ym2612"
    },
    {
      "channel": 3,
      "note": 79,
      "start": 43.1412,
      "duration": 0.4013,
      "velocity": 83,
      "chip": "ym2612"
    },
    {
      "channel": 4,
      "note": 74,
      "start": 43.1419,
      "duration": 0.4013,
      "velocity": 83,
      "chip": "ym2612"
    },
    {
      "channel": 5,
      "note": 72,
      "start": 43.1427,
      "duration": 0.4013,
      "velocity": 83,
      "chip": "ym2612"
    },
    {
      "channel": 2,
      "note": 82,
      "start": 43.1437,
      "duration": 0.1019,
      "velocity": 127,
      "chip": "ym2612"
    },
    {
      "channel": 0,
      "note": 91,
      "start": 43.2361,
      "duration": 0.1042,
      "velocity": 106,
      "chip": "ym2612"
    },
    {
      "channel": 1,
      "note": 50,
      "start": 43.2368,
      "duration": 0.2053,
      "velocity": 97,
      "chip": "ym2612"
    },
    {
      "channel": 0,
      "note": 89,
      "start": 43.341,
      "duration": 0.1002,
      "velocity": 106,
      "chip": "ym2612"
    },
    {
      "channel": 2,
      "note": 37,
      "start": 43.3431,
      "duration": 0.0535,
      "velocity": 120,
      "chip": "ym2612"
    },
    {
      "channel": 0,
      "note": 91,
      "start": 43.442,
      "duration": 1.1046,
      "velocity": 106,
      "chip": "ym2612"
    },
    {
      "channel": 1,
      "note": 50,
      "start": 43.4426,
      "duration": 0.0996,
      "velocity": 97,
      "chip": "ym2612"
    },
    {
      "channel": 2,
      "note": 82,
      "start": 43.4446,
      "duration": 0.0925,
      "velocity": 127,
      "chip": "ym2612"
    },
    {
      "channel": 3,
      "note": 79,
      "start": 43.5431,
      "duration": 0.201,
      "velocity": 83,
      "chip": "ym2612"
    },
    {
      "channel": 4,
      "note": 74,
      "start": 43.5439,
      "duration": 0.2008,
      "velocity": 83,
      "chip": "ym2612"
    },
    {
      "channel": 5,
      "note": 72,
      "start": 43.5446,
      "duration": 0.2006,
      "velocity": 83,
      "chip": "ym2612"
    },
    {
      "channel": 2,
      "note": 37,
      "start": 43.5454,
      "duration": 0.0522,
      "velocity": 120,
      "chip": "ym2612"
    },
    {
      "channel": 1,
      "note": 55,
      "start": 43.6407,
      "duration": 0.1027,
      "velocity": 97,
      "chip": "ym2612"
    },
    {
      "channel": 1,
      "note": 50,
      "start": 43.7439,
      "duration": 0.0998,
      "velocity": 97,
      "chip": "ym2612"
    },
    {
      "channel": 3,
      "note": 79,
      "start": 43.7445,
      "duration": 0.0995,
      "velocity": 83,
      "chip": "ym2612"
    },
    {
      "channel": 4,
      "note": 74,
      "start": 43.7452,
      "duration": 0.0995,
      "velocity": 83,
      "chip": "ym2612"
    },
    {
      "channel": 5,
      "note": 72,
      "start": 43.7457,
      "duration": 0.0997,
      "velocity": 83,
      "chip": "ym2612"
    },
    {
      "channel": 2,
      "note": 37,
      "start": 43.7465,
      "duration": 0.0527,
      "velocity": 120,
      "chip": "ym2612"
    },
    {
      "channel": 3,
      "note": 79,
      "start": 43.8445,
      "duration": 0.0999,
      "velocity": 83,
      "chip": "ym2612"
    },
    {
      "channel": 4,
      "note": 74,
      "start": 43.8452,
      "duration": 0.1,
      "velocity": 83,
      "chip": "ym2612"
    },
    {
      "channel": 5,
      "note": 72,
      "start": 43.846,
      "duration": 0.0999,
      "velocity": 83,
      "chip": "ym2612"
    },
    {
      "channel": 2,
      "note": 37,
      "start": 43.8467,
      "duration": 0.0529,
      "velocity": 120,
      "chip": "ym2612"
    },
    {
      "channel": 1,
      "note": 53,
      "start": 43.9443,
      "duration": 0.0995,
      "velocity": 97,
      "chip": "ym2612"
    },
    {
      "channel": 3,
      "note": 77,
      "start": 43.945,
      "duration": 0.0991,
      "velocity": 83,
      "chip": "ym2612"
    },
    {
      "channel": 4,
      "note": 74,
      "start": 43.9458,
      "duration": 0.0991,
      "velocity": 83,
      "chip": "ym2612"
    },
    {
      "channel": 5,
      "note": 72,
      "start": 43.9466,
      "duration": 0.0991,
      "velocity": 83,
      "chip": "ym2612"
    },
    {
      "channel": 2,
      "note": 82,
      "start": 43.9476,
      "duration": 0.093,
      "velocity": 127,
      "chip": "ym2612"
    },
    {
      "channel": 3,
      "note": 79,
      "start": 44.0448,
      "duration": 0.0977,
      "velocity": 83,
      "chip": "ym2612"
    },
    {
      "channel": 4,
      "note": 74,
      "start": 44.0456,
      "duration": 0.0977,
      "velocity": 83,
      "chip": "ym2612"
    },
    {
      "channel": 5,
      "note": 72,
      "start": 44.0462,
      "duration": 0.0978,
      "velocity": 83,
      "chip": "ym2612"
    },
    {
      "channel": 2,
      "note": 37,
      "start": 44.047,
      "duration": 0.0539,
      "velocity": 120,
      "chip": "ym2612"
    },
    {
      "channel": 1,
      "note": 50,
      "start": 44.1424,
      "duration": 0.1029,
      "velocity": 97,
      "chip": "ym2612"
    },
    {
      "channel": 3,
      "note": 77,
      "start": 44.1431,
      "duration": 0.1024,
      "velocity": 83,
      "chip": "ym2612"
    },
    {
      "channel": 4,
      "note": 74,
      "start": 44.1439,
      "duration": 0.1024,
      "velocity": 83,
      "chip": "ym2612"
    },
    {
      "channel": 5,
      "note": 72,
      "start": 44.1446,
      "duration": 0.1024,
      "velocity": 83,
      "chip": "ym2612"
    },
    {
      "channel": 3,
      "note": 77,
      "start": 44.2461,
      "duration": 0.0977,
      "velocity": 83,
      "chip": "ym2612"
    },
    {
      "channel": 4,
      "note": 74,
      "start": 44.2469,
      "duration": 0.0977,
      "velocity": 83,
      "chip": "ym2612"
    },
    {
      "channel": 5,
      "note": 72,
      "start": 44.2476,
      "duration": 0.0977,
      "velocity": 83,
      "chip": "ym2612"
    },
    {
      "channel": 2,
      "note": 37,
      "start": 44.2483,
      "duration": 0.0539,
      "velocity": 120,
      "chip": "ym2612"
    },
    {
      "channel": 1,
      "note": 55,
      "start": 44.3437,
      "duration": 0.1028,
      "velocity": 97,
      "chip": "ym2612"
    },
    {
      "channel": 3,
      "note": 79,
      "start": 44.3445,
      "duration": 0.1024,
      "velocity": 83,
      "chip": "ym2612"
    },
    {
      "channel": 4,
      "note": 74,
      "start": 44.3452,
      "duration": 0.1019,
      "velocity": 83,
      "chip": "ym2612"
    },
    {
      "channel": 5,
      "note": 72,
      "start": 44.3459,
      "duration": 0.1015,
      "velocity": 83,
      "chip": "ym2612"
    },
    {
      "channel": 2,
      "note": 37,
      "start": 44.4483,
      "duration": 0.0544,
      "velocity": 120,
      "chip": "ym2612"
    },
    {
      "channel": 0,
      "note": 89,
      "start": 44.5474,
      "duration": 0.2006,
      "velocity": 106,
      "chip": "ym2612"
    },
    {
      "channel": 1,
      "note": 50,
      "start": 44.5481,
      "duration": 0.0971,
      "velocity": 97,
      "chip": "ym2612"
    },
    {
      "channel": 3,
      "note": 77,
      "start": 44.5488,
      "duration": 0.0966,
      "velocity": 83,
      "chip": "ym2612"
    },
    {
      "channel": 4,
      "note": 74,
      "start": 44.5496,
      "duration": 0.0962,
      "velocity": 83,
      "chip": "ym2612"
    },
    {
      "channel": 5,
      "note": 72,
      "start": 44.5504,
      "duration": 0.0957,
      "velocity": 83,
      "chip": "ym2612"
    },
    {
      "channel": 2,
      "note": 37,
      "start": 44.5511,
      "duration": 0.0535,
      "velocity": 120,
      "chip": "ym2612"
    },
    {
      "channel": 0,
      "note": 86,
      "start": 44.7487,
      "duration": 0.402,
      "velocity": 106,
      "chip": "ym2612"
    },
    {
      "channel": 1,
      "note": 53,
      "start": 44.7494,
      "duration": 0.0971,
      "velocity": 97,
      "chip": "ym2612"
    },
    {
      "channel": 3,
      "note": 79,
      "start": 44.7502,
      "duration": 0.4045,
      "velocity": 83,
      "chip": "ym2612"
    },
    {
      "channel": 4,
      "note": 74,
      "start": 44.751,
      "duration": 0.4088,
      "velocity": 83,
      "chip": "ym2612"
    },
    {
      "channel": 5,
      "note": 72,
      "start": 44.7517,
      "duration": 0.4115,
      "velocity": 83,
      "chip": "ym2612"
    },
    {
      "channel": 2,
      "note": 82,
      "start": 44.7528,
      "duration": 0.1052,
      "velocity": 127,
      "chip": "ym2612"
    },
    {
      "channel": 1,
      "note": 50,
      "start": 44.8471,
      "duration": 0.2035,
      "velocity": 97,
      "chip": "ym2612"
    },
    {
      "channel": 2,
      "note": 37,
      "start": 44.9517,
      "duration": 0.0571,
      "velocity": 120,
      "chip": "ym2612"
    },
    {
      "channel": 1,
      "note": 50,
      "start": 45.051,
      "duration": 0.1007,
      "velocity": 97,
      "chip": "ym2612"
    },
    {
      "channel": 2,
      "note": 37,
      "start": 45.0527,
      "duration": 0.0563,
      "velocity": 120,
      "chip": "ym2612"
    },
    {
      "channel": 0,
      "note": 91,
      "start": 45.1515,
      "duration": 0.9137,
      "velocity": 106,
      "chip": "ym2612"
    },
    {
      "channel": 3,
      "note": 79,
      "start": 45.1569,
      "duration": 0.2047,
      "velocity": 83,
      "chip": "ym2612"
    },
    {
      "channel": 4,
      "note": 74,
      "start": 45.1604,
      "duration": 0.2019,
      "velocity": 83,
      "chip": "ym2612"
    },
    {
      "channel": 5,
      "note": 72,
      "start": 45.1638,
      "duration": 0.199,
      "velocity": 83,
      "chip": "ym2612"
    },
    {
      "channel": 2,
      "note": 37,
      "start": 45.1646,
      "duration": 0.0521,
      "velocity": 120,
      "chip": "ym2612"
    },
    {
      "channel": 1,
      "note": 55,
      "start": 45.2612,
      "duration": 0.0997,
      "velocity": 97,
      "chip": "ym2612"
    },
    {
      "channel": 2,
      "note": 37,
      "start": 45.263,
      "duration": 0.0546,
      "velocity": 120,
      "chip": "ym2612"
    },
    {
      "channel": 1,
      "note": 50,
      "start": 45.3615,
      "duration": 0.1,
      "velocity": 97,
      "chip": "ym2612"
    },
    {
      "channel": 3,
      "note": 79,
      "start": 45.3621,
      "duration": 0.0998,
      "velocity": 83,
      "chip": "ym2612"
    },
    {
      "channel": 4,
      "note": 74,
      "start": 45.3627,
      "duration": 0.0998,
      "velocity": 83,
      "chip": "ym2612"
    },
    {
      "channel": 5,
      "note": 72,
      "start": 45.3633,
      "duration": 0.0999,
      "velocity": 83,
      "chip": "ym2612"
    },
    {
      "channel": 2,
      "note": 37,
      "start": 45.3641,
      "duration": 0.0543,
      "velocity": 120,
      "chip": "ym2612"
    },
    {
      "channel": 3,
      "note": 79,
      "start": 45.4623,
      "duration": 0.1006,
      "velocity": 83,
      "chip": "ym2612"
    },
    {
      "channel": 4,
      "note": 74,
      "start": 45.463,
      "duration": 0.1006,
      "velocity": 83,
      "chip": "ym2612"
    },
    {
      "channel": 5,
      "note": 72,
      "start": 45.4638,
      "duration": 0.1006,
      "velocity": 83,
      "chip": "ym2612"
    },
    {
      "channel": 2,
      "note": 37,
      "start": 45.4645,
      "duration": 0.0543,
      "velocity": 120,
      "chip": "ym2612"
    },
    {
      "channel": 1,
      "note": 53,
      "start": 45.5628,
      "duration": 0.1001,
      "velocity": 97,
      "chip": "ym2612"
    },
    {
      "channel": 3,
      "note": 77,
      "start": 45.5635,
      "duration": 0.0997,
      "velocity": 83,
      "chip": "ym2612"
    },
    {
      "channel": 4,
      "note": 74,
      "start": 45.5642,
      "duration": 0.0998,
      "velocity": 83,
      "chip": "ym2612"
    },
    {
      "channel": 5,
      "note": 72,
      "start": 45.565,
      "duration": 0.0997,
      "velocity": 83,
      "chip": "ym2612"
    },
    {
      "channel": 2,
      "note": 82,
      "start": 45.566,
      "duration": 0.0936,
      "velocity": 127,
      "chip": "ym2612"
    },
    {
      "channel": 3,
      "note": 79,
      "start": 45.6638,
      "duration": 0.0978,
      "velocity": 83,
      "chip": "ym2612"
    },
    {
      "channel": 4,
      "note": 74,
      "start": 45.6646,
      "duration": 0.0974,
      "velocity": 83,
      "chip": "ym2612"
    },
    {
      "channel": 5,
      "note": 72,
      "start": 45.6653,
      "duration": 0.0969,
      "velocity": 83,
      "chip": "ym2612"
    },
    {
      "channel": 2,
      "note": 37,
      "start": 45.666,
      "duration": 0.054,
      "velocity": 120,
      "chip": "ym2612"
    },
    {
      "channel": 1,
      "note": 50,
      "start": 45.7615,
      "duration": 0.1028,
      "velocity": 97,
      "chip": "ym2612"
    },
    {
      "channel": 3,
      "note": 77,
      "start": 45.8652,
      "duration": 0.0978,
      "velocity": 83,
      "chip": "ym2612"
    },
    {
      "channel": 4,
      "note": 74,
      "start": 45.866,
      "duration": 0.0978,
      "velocity": 83,
      "chip": "ym2612"
    },
    {
      "channel": 5,
      "note": 72,
      "start": 45.8667,
      "duration": 0.0979,
      "velocity": 83,
      "chip": "ym2612"
    },
    {
      "channel": 2,
      "note": 37,
      "start": 45.8674,
      "duration": 0.054,
      "velocity": 120,
      "chip": "ym2612"
    },
    {
      "channel": 1,
      "note": 55,
      "start": 45.9629,
      "duration": 0.1031,
      "velocity": 97,
      "chip": "ym2612"
    },
    {
      "channel": 3,
      "note": 79,
      "start": 45.9637,
      "duration": 0.1027,
      "velocity": 83,
      "chip": "ym2612"
    },
    {
      "channel": 4,
      "note": 74,
      "start": 45.9644,
      "duration": 0.1023,
      "velocity": 83,
      "chip": "ym2612"
    },
    {
      "channel": 5,
      "note": 72,
      "start": 45.9651,
      "duration": 0.1018,
      "velocity": 83,
      "chip": "ym2612"
    },
    {
      "channel": 0,
      "note": 89,
      "start": 46.0659,
      "duration": 0.0999,
      "velocity": 106,
      "chip": "ym2612"
    },
    {
      "channel": 2,
      "note": 37,
      "start": 46.0679,
      "duration": 0.0557,
      "velocity": 120,
      "chip": "ym2612"
    },
    {
      "channel": 0,
      "note": 86,
      "start": 46.1665,
      "duration": 0.0974,
      "velocity": 106,
      "chip": "ym2612"
    },
    {
      "channel": 1,
      "note": 50,
      "start": 46.1672,
      "duration": 0.0976,
      "velocity": 97,
      "chip": "ym2612"
    },
    {
      "channel": 3,
      "note": 77,
      "start": 46.1679,
      "duration": 0.0971,
      "velocity": 83,
      "chip": "ym2612"
    },
    {
      "channel": 4,
      "note": 74,
      "start": 46.1687,
      "duration": 0.0967,
      "velocity": 83,
      "chip": "ym2612"
    },
    {
      "channel": 5,
      "note": 72,
      "start": 46.1695,
      "duration": 0.0963,
      "velocity": 83,
      "chip": "ym2612"
    },
    {
      "channel": 2,
      "note": 37,
      "start": 46.1702,
      "duration": 0.0551,
      "velocity": 120,
      "chip": "ym2612"
    },
    {
      "channel": 0,
      "note": 89,
      "start": 46.2646,
      "duration": 0.1028,
      "velocity": 106,
      "chip": "ym2612"
    },
    {
      "channel": 0,
      "note": 91,
      "start": 46.3681,
      "duration": 0.0971,
      "velocity": 106,
      "chip": "ym2612"
    },
    {
      "channel": 1,
      "note": 53,
      "start": 46.3688,
      "duration": 0.0973,
      "velocity": 97,
      "chip": "ym2612"
    },
    {
      "channel": 3,
      "note": 79,
      "start": 46.3696,
      "duration": 0.4011,
      "velocity": 83,
      "chip": "ym2612"
    },
    {
      "channel": 4,
      "note": 74,
      "start": 46.3704,
      "duration": 0.4011,
      "velocity": 83,
      "chip": "ym2612"
    },
    {
      "channel": 5,
      "note": 72,
      "start": 46.3711,
      "duration": 0.4027,
      "velocity": 83,
      "chip": "ym2612"
    },
    {
      "channel": 2,
      "note": 82,
      "start": 46.3738,
      "duration": 0.102,
      "velocity": 127,
      "chip": "ym2612"
    },
    {
      "channel": 0,
      "note": 93,
      "start": 46.466,
      "duration": 0.9051,
      "velocity": 106,
      "chip": "ym2612"
    },
    {
      "channel": 1,
      "note": 50,
      "start": 46.4667,
      "duration": 0.2029,
      "velocity": 97,
      "chip": "ym2612"
    },
    {
      "channel": 2,
      "note": 37,
      "start": 46.5709,
      "duration": 0.0556,
      "velocity": 120,
      "chip": "ym2612"
    },
    {
      "channel": 1,
      "note": 50,
      "start": 46.67,
      "duration": 0.1003,
      "velocity": 97,
      "chip": "ym2612"
    },
    {
      "channel": 2,
      "note": 82,
      "start": 46.6737,
      "duration": 0.0933,
      "velocity": 127,
      "chip": "ym2612"
    },
    {
      "channel": 3,
      "note": 79,
      "start": 46.7713,
      "duration": 0.2027,
      "velocity": 83,
      "chip": "ym2612"
    },
    {
      "channel": 4,
      "note": 74,
      "start": 46.7737,
      "duration": 0.2008,
      "velocity": 83,
      "chip": "ym2612"
    },
    {
      "channel": 5,
      "note": 72,
      "start": 46.7745,
      "duration": 0.2007,
      "velocity": 83,
      "chip": "ym2612"
    },
    {
      "channel": 2,
      "note": 37,
      "start": 46.7752,
      "duration": 0.0522,
      "velocity": 120,
      "chip": "ym2612"
    },
    {
      "channel": 1,
      "note": 55,
      "start": 46.8688,
      "duration": 0.1028,
      "velocity": 97,
      "chip": "ym2612"
    },
    {
      "channel": 1,
      "note": 50,
      "start": 46.9738,
      "duration": 0.1001,
      "velocity": 97,
      "chip": "ym2612"
    },
    {
      "channel": 3,
      "note": 79,
      "start": 46.9744,
      "duration": 0.0998,
      "velocity": 83,
      "chip": "ym2612"
    },
    {
      "channel": 4,
      "note": 74,
      "start": 46.975,
      "duration": 0.0998,
      "velocity": 83,
      "chip": "ym2612"
    },
    {
      "channel": 5,
      "note": 72,
      "start": 46.9756,
      "duration": 0.0999,
      "velocity": 83,
      "chip": "ym2612"
    },
    {
      "channel": 2,
      "note": 37,
      "start": 46.9763,
      "duration": 0.0527,
      "velocity": 120,
      "chip": "ym2612"
    },
    {
      "channel": 3,
      "note": 79,
      "start": 47.0746,
      "duration": 0.1007,
      "velocity": 83,
      "chip": "ym2612"
    },
    {
      "channel": 4,
      "note": 74,
      "start": 47.0754,
      "duration": 0.1007,
      "velocity": 83,
      "chip": "ym2612"
    },
    {
      "channel": 5,
      "note": 72,
      "start": 47.0761,
      "duration": 0.1007,
      "velocity": 83,
      "chip": "ym2612"
    },
    {
      "channel": 2,
      "note": 37,
      "start": 47.0768,
      "duration": 0.0526,
      "velocity": 120,
      "chip": "ym2612"
    },
    {
      "channel": 1,
      "note": 53,
      "start": 47.1751,
      "duration": 0.1001,
      "velocity": 97,
      "chip": "ym2612"
    },
    {
      "channel": 3,
      "note": 77,
      "start": 47.1759,
      "duration": 0.0997,
      "velocity": 83,
      "chip": "ym2612"
    },
    {
      "channel": 4,
      "note": 74,
      "start": 47.1766,
      "duration": 0.0996,
      "velocity": 83,
      "chip": "ym2612"
    },
    {
      "channel": 5,
      "note": 72,
      "start": 47.1774,
      "duration": 0.0996,
      "velocity": 83,
      "chip": "ym2612"
    },
    {
      "channel": 2,
      "note": 82,
      "start": 47.1784,
      "duration": 0.0919,
      "velocity": 127,
      "chip": "ym2612"
    },
    {
      "channel": 3,
      "note": 79,
      "start": 47.2761,
      "duration": 0.0982,
      "velocity": 83,
      "chip": "ym2612"
    },
    {
      "channel": 4,
      "note": 74,
      "start": 47.2769,
      "duration": 0.0982,
      "velocity": 83,
      "chip": "ym2612"
    },
    {
      "channel": 5,
      "note": 72,
      "start": 47.2776,
      "duration": 0.0983,
      "velocity": 83,
      "chip": "ym2612"
    },
    {
      "channel": 2,
      "note": 37,
      "start": 47.2784,
      "duration": 0.0524,
      "velocity": 120,
      "chip": "ym2612"
    },
    {
      "channel": 0,
      "note": 89,
      "start": 47.3735,
      "duration": 0.103,
      "velocity": 106,
      "chip": "ym2612"
    },
    {
      "channel": 1,
      "note": 50,
      "start": 47.3742,
      "duration": 0.1031,
      "velocity": 97,
      "chip": "ym2612"
    },
    {
      "channel": 3,
      "note": 77,
      "start": 47.375,
      "duration": 0.1027,
      "velocity": 83,
      "chip": "ym2612"
    },
    {
      "channel": 4,
      "note": 74,
      "start": 47.3757,
      "duration": 0.1027,
      "velocity": 83,
      "chip": "ym2612"
    },
    {
      "channel": 5,
      "note": 72,
      "start": 47.3765,
      "duration": 0.1027,
      "velocity": 83,
      "chip": "ym2612"
    },
    {
      "channel": 0,
      "note": 91,
      "start": 47.4772,
      "duration": 0.0969,
      "velocity": 106,
      "chip": "ym2612"
    },
    {
      "channel": 3,
      "note": 77,
      "start": 47.4782,
      "duration": 0.0974,
      "velocity": 83,
      "chip": "ym2612"
    },
    {
      "channel": 4,
      "note": 74,
      "start": 47.479,
      "duration": 0.0974,
      "velocity": 83,
      "chip": "ym2612"
    },
    {
      "channel": 5,
      "note": 72,
      "start": 47.4798,
      "duration": 0.0973,
      "velocity": 83,
      "chip": "ym2612"
    },
    {
      "channel": 2,
      "note": 37,
      "start": 47.4805,
      "duration": 0.0516,
      "velocity": 120,
      "chip": "ym2612"
    },
    {
      "channel": 0,
      "note": 86,
      "start": 47.5747,
      "duration": 0.8059,
      "velocity": 106,
      "chip": "ym2612"
    },
    {
      "channel": 1,
      "note": 57,
      "start": 47.5755,
      "duration": 0.1015,
      "velocity": 97,
      "chip": "ym2612"
    },
    {
      "channel": 3,
      "note": 79,
      "start": 47.5762,
      "duration": 0.1011,
      "velocity": 83,
      "chip": "ym2612"
    },
    {
      "channel": 4,
      "note": 74,
      "start": 47.577,
      "duration": 0.1007,
      "velocity": 83,
      "chip": "ym2612"
    },
    {
      "channel": 5,
      "note": 72,
      "start": 47.5777,
      "duration": 0.1002,
      "velocity": 83,
      "chip": "ym2612"
    },
    {
      "channel": 2,
      "note": 37,
      "start": 47.6789,
      "duration": 0.0541,
      "velocity": 120,
      "chip": "ym2612"
    },
    {
      "channel": 1,
      "note": 55,
      "start": 47.7776,
      "duration": 0.0974,
      "velocity": 97,
      "chip": "ym2612"
    },
    {
      "channel": 3,
      "note": 77,
      "start": 47.7784,
      "duration": 0.0969,
      "velocity": 83,
      "chip": "ym2612"
    },
    {
      "channel": 4,
      "note": 74,
      "start": 47.7791,
      "duration": 0.0965,
      "velocity": 83,
      "chip": "ym2612"
    },
    {
      "channel": 5,
      "note": 72,
      "start": 47.7798,
      "duration": 0.0961,
      "velocity": 83,
      "chip": "ym2612"
    },
    {
      "channel": 2,
      "note": 37,
      "start": 47.7806,
      "duration": 0.0538,
      "velocity": 120,
      "chip": "ym2612"
    },
    {
      "channel": 1,
      "note": 53,
      "start": 47.9789,
      "duration": 0.1001,
      "velocity": 97,
      "chip": "ym2612"
    },
    {
      "channel": 3,
      "note": 79,
      "start": 47.9797,
      "duration": 0.4022,
      "velocity": 83,
      "chip": "ym2612"
    },
    {
      "channel": 4,
      "note": 74,
      "start": 47.9805,
      "duration": 0.4023,
      "velocity": 83,
      "chip": "ym2612"
    },
    {
      "channel": 5,
      "note": 72,
      "start": 47.9812,
      "duration": 0.4024,
      "velocity": 83,
      "chip": "ym2612"
    },
    {
      "channel": 2,
      "note": 82,
      "start": 47.9822,
      "duration": 0.0934,
      "velocity": 127,
      "chip": "ym2612"
    },
    {
      "channel": 1,
      "note": 50,
      "start": 48.0796,
      "duration": 0.2007,
      "velocity": 97,
      "chip": "ym2612"
    },
    {
      "channel": 2,
      "note": 82,
      "start": 48.0816,
      "duration": 0.0947,
      "velocity": 127,
      "chip": "ym2612"
    },
    {
      "channel": 2,
      "note": 82,
      "start": 48.1818,
      "duration": 0.0952,
      "velocity": 127,
      "chip": "ym2612"
    },
    {
      "channel": 1,
      "note": 50,
      "start": 48.2807,
      "duration": 0.1008,
      "velocity": 97,
      "chip": "ym2612"
    },
    {
      "channel": 2,
      "note": 82,
      "start": 48.2828,
      "duration": 0.095,
      "velocity": 127,
      "chip": "ym2612"
    },
    {
      "channel": 0,
      "note": 94,
      "start": 48.3814,
      "duration": 1.0059,
      "velocity": 106,
      "chip": "ym2612"
    },
    {
      "channel": 3,
      "note": 82,
      "start": 48.3826,
      "duration": 0.2005,
      "velocity": 83,
      "chip": "ym2612"
    },
    {
      "channel": 4,
      "note": 77,
      "start": 48.3834,
      "duration": 0.2003,
      "velocity": 83,
      "chip": "ym2612"
    },
    {
      "channel": 5,
      "note": 75,
      "start": 48.3843,
      "duration": 0.2,
      "velocity": 83,
      "chip": "ym2612"
    },
    {
      "channel": 2,
      "note": 37,
      "start": 48.385,
      "duration": 0.0532,
      "velocity": 120,
      "chip": "ym2612"
    },
    {
      "channel": 1,
      "note": 58,
      "start": 48.4822,
      "duration": 0.1002,
      "velocity": 97,
      "chip": "ym2612"
    },
    {
      "channel": 2,
      "note": 37,
      "start": 48.484,
      "duration": 0.0567,
      "velocity": 120,
      "chip": "ym2612"
    },
    {
      "channel": 1,
      "note": 53,
      "start": 48.5829,
      "duration": 0.1,
      "velocity": 97,
      "chip": "ym2612"
    },
    {
      "channel": 3,
      "note": 82,
      "start": 48.5836,
      "duration": 0.0997,
      "velocity": 83,
      "chip": "ym2612"
    },
    {
      "channel": 4,
      "note": 77,
      "start": 48.5841,
      "duration": 0.0997,
      "velocity": 83,
      "chip": "ym2612"
    },
    {
      "channel": 5,
      "note": 75,
      "start": 48.5847,
      "duration": 0.0999,
      "velocity": 83,
      "chip": "ym2612"
    },
    {
      "channel": 2,
      "note": 37,
      "start": 48.5855,
      "duration": 0.0558,
      "velocity": 120,
      "chip": "ym2612"
    },
    {
      "channel": 3,
      "note": 82,
      "start": 48.6837,
      "duration": 0.1007,
      "velocity": 83,
      "chip": "ym2612"
    },
    {
      "channel": 4,
      "note": 77,
      "start": 48.6845,
      "duration": 0.1006,
      "velocity": 83,
      "chip": "ym2612"
    },
    {
      "channel": 5,
      "note": 75,
      "start": 48.6852,
      "duration": 0.1007,
      "velocity": 83,
      "chip": "ym2612"
    },
    {
      "channel": 2,
      "note": 37,
      "start": 48.6859,
      "duration": 0.0558,
      "velocity": 120,
      "chip": "ym2612"
    },
    {
      "channel": 1,
      "note": 55,
      "start": 48.7842,
      "duration": 0.1002,
      "velocity": 97,
      "chip": "ym2612"
    },
    {
      "channel": 3,
      "note": 80,
      "start": 48.785,
      "duration": 0.0998,
      "velocity": 83,
      "chip": "ym2612"
    },
    {
      "channel": 4,
      "note": 77,
      "start": 48.7857,
      "duration": 0.0998,
      "velocity": 83,
      "chip": "ym2612"
    },
    {
      "channel": 5,
      "note": 75,
      "start": 48.7864,
      "duration": 0.0998,
      "velocity": 83,
      "chip": "ym2612"
    },
    {
      "channel": 2,
      "note": 82,
      "start": 48.7875,
      "duration": 0.0936,
      "velocity": 127,
      "chip": "ym2612"
    },
    {
      "channel": 3,
      "note": 82,
      "start": 48.8853,
      "duration": 0.0978,
      "velocity": 83,
      "chip": "ym2612"
    },
    {
      "channel": 4,
      "note": 77,
      "start": 48.8861,
      "duration": 0.0973,
      "velocity": 83,
      "chip": "ym2612"
    },
    {
      "channel": 5,
      "note": 75,
      "start": 48.8868,
      "duration": 0.0969,
      "velocity": 83,
      "chip": "ym2612"
    },
    {
      "channel": 2,
      "note": 37,
      "start": 48.8875,
      "duration": 0.0546,
      "velocity": 120,
      "chip": "ym2612"
    },
    {
      "channel": 1,
      "note": 56,
      "start": 48.9829,
      "duration": 0.1027,
      "velocity": 97,
      "chip": "ym2612"
    },
    {
      "channel": 3,
      "note": 80,
      "start": 49.0865,
      "duration": 0.0979,
      "velocity": 83,
      "chip": "ym2612"
    },
    {
      "channel": 4,
      "note": 77,
      "start": 49.0873,
      "duration": 0.0979,
      "velocity": 83,
      "chip": "ym2612"
    },
    {
      "channel": 5,
      "note": 75,
      "start": 49.088,
      "duration": 0.0978,
      "velocity": 83,
      "chip": "ym2612"
    },
    {
      "channel": 2,
      "note": 37,
      "start": 49.0903,
      "duration": 0.0525,
      "velocity": 120,
      "chip": "ym2612"
    },
    {
      "channel": 1,
      "note": 58,
      "start": 49.1842,
      "duration": 0.1028,
      "velocity": 97,
      "chip": "ym2612"
    },
    {
      "channel": 3,
      "note": 82,
      "start": 49.185,
      "duration": 0.1024,
      "velocity": 83,
      "chip": "ym2612"
    },
    {
      "channel": 4,
      "note": 77,
      "start": 49.1857,
      "duration": 0.1019,
      "velocity": 83,
      "chip": "ym2612"
    },
    {
      "channel": 5,
      "note": 75,
      "start": 49.1865,
      "duration": 0.1015,
      "velocity": 83,
      "chip": "ym2612"
    },
    {
      "channel": 2,
      "note": 37,
      "start": 49.2905,
      "duration": 0.0529,
      "velocity": 120,
      "chip": "ym2612"
    },
    {
      "channel": 0,
      "note": 93,
      "start": 49.388,
      "duration": 0.0972,
      "velocity": 106,
      "chip": "ym2612"
    },
    {
      "channel": 1,
      "note": 53,
      "start": 49.3903,
      "duration": 0.0959,
      "velocity": 97,
      "chip": "ym2612"
    },
    {
      "channel": 3,
      "note": 80,
      "start": 49.391,
      "duration": 0.0958,
      "velocity": 83,
      "chip": "ym2612"
    },
    {
      "channel": 4,
      "note": 77,
      "start": 49.3918,
      "duration": 0.0954,
      "velocity": 83,
      "chip": "ym2612"
    },
    {
      "channel": 5,
      "note": 75,
      "start": 49.3925,
      "duration": 0.095,
      "velocity": 83,
      "chip": "ym2612"
    },
    {
      "channel": 2,
      "note": 37,
      "start": 49.3933,
      "duration": 0.0518,
      "velocity": 120,
      "chip": "ym2612"
    },
    {
      "channel": 0,
      "note": 94,
      "start": 49.4859,
      "duration": 0.2006,
      "velocity": 106,
      "chip": "ym2612"
    },
    {
      "channel": 1,
      "note": 55,
      "start": 49.4867,
      "duration": 0.1039,
      "velocity": 97,
      "chip": "ym2612"
    },
    {
      "channel": 3,
      "note": 82,
      "start": 49.5916,
      "duration": 0.4027,
      "velocity": 83,
      "chip": "ym2612"
    },
    {
      "channel": 4,
      "note": 77,
      "start": 49.5924,
      "duration": 0.4027,
      "velocity": 83,
      "chip": "ym2612"
    },
    {
      "channel": 5,
      "note": 75,
      "start": 49.5931,
      "duration": 0.4027,
      "velocity": 83,
      "chip": "ym2612"
    },
    {
      "channel": 2,
      "note": 82,
      "start": 49.5941,
      "duration": 0.1027,
      "velocity": 127,
      "chip": "ym2612"
    },
    {
      "channel": 0,
      "note": 89,
      "start": 49.6873,
      "duration": 0.2049,
      "velocity": 106,
      "chip": "ym2612"
    },
    {
      "channel": 1,
      "note": 55,
      "start": 49.688,
      "duration": 0.1039,
      "velocity": 97,
      "chip": "ym2612"
    },
    {
      "channel": 2,
      "note": 37,
      "start": 49.7939,
      "duration": 0.0536,
      "velocity": 120,
      "chip": "ym2612"
    },
    {
      "channel": 0,
      "note": 91,
      "start": 49.8929,
      "duration": 0.1,
      "velocity": 106,
      "chip": "ym2612"
    },
    {
      "channel": 1,
      "note": 56,
      "start": 49.8936,
      "duration": 0.1003,
      "velocity": 97,
      "chip": "ym2612"
    },
    {
      "channel": 2,
      "note": 82,
      "start": 49.8957,
      "duration": 0.0944,
      "velocity": 127,
      "chip": "ym2612"
    },
    {
      "channel": 0,
      "note": 94,
      "start": 49.9937,
      "duration": 0.9035,
      "velocity": 106,
      "chip": "ym2612"
    },
    {
      "channel": 3,
      "note": 82,
      "start": 49.9949,
      "duration": 0.1996,
      "velocity": 83,
      "chip": "ym2612"
    },
    {
      "channel": 4,
      "note": 77,
      "start": 49.9957,
      "duration": 0.1994,
      "velocity": 83,
      "chip": "ym2612"
    },
    {
      "channel": 5,
      "note": 75,
      "start": 49.9964,
      "duration": 0.1992,
      "velocity": 83,
      "chip": "ym2612"
    },
    {
      "channel": 2,
      "note": 37,
      "start": 49.9972,
      "duration": 0.0516,
      "velocity": 120,
      "chip": "ym2612"
    },
    {
      "channel": 1,
      "note": 58,
      "start": 50.0917,
      "duration": 0.1021,
      "velocity": 97,
      "chip": "ym2612"
    },
    {
      "channel": 1,
      "note": 53,
      "start": 50.1943,
      "duration": 0.0995,
      "velocity": 97,
      "chip": "ym2612"
    },
    {
      "channel": 3,
      "note": 82,
      "start": 50.1949,
      "duration": 0.0993,
      "velocity": 83,
      "chip": "ym2612"
    },
    {
      "channel": 4,
      "note": 77,
      "start": 50.1956,
      "duration": 0.0992,
      "velocity": 83,
      "chip": "ym2612"
    },
    {
      "channel": 5,
      "note": 75,
      "start": 50.1961,
      "duration": 0.0994,
      "velocity": 83,
      "chip": "ym2612"
    },
    {
      "channel": 2,
      "note": 37,
      "start": 50.1969,
      "duration": 0.0536,
      "velocity": 120,
      "chip": "ym2612"
    },
    {
      "channel": 3,
      "note": 82,
      "start": 50.2946,
      "duration": 0.1005,
      "velocity": 83,
      "chip": "ym2612"
    },
    {
      "channel": 4,
      "note": 77,
      "start": 50.2954,
      "duration": 0.1005,
      "velocity": 83,
      "chip": "ym2612"
    },
    {
      "channel": 5,
      "note": 75,
      "start": 50.2961,
      "duration": 0.1006,
      "velocity": 83,
      "chip": "ym2612"
    },
    {
      "channel": 2,
      "note": 37,
      "start": 50.2968,
      "duration": 0.0539,
      "velocity": 120,
      "chip": "ym2612"
    },
    {
      "channel": 1,
      "note": 55,
      "start": 50.395,
      "duration": 0.1001,
      "velocity": 97,
      "chip": "ym2612"
    },
    {
      "channel": 3,
      "note": 80,
      "start": 50.3957,
      "duration": 0.0996,
      "velocity": 83,
      "chip": "ym2612"
    },
    {
      "channel": 4,
      "note": 77,
      "start": 50.3965,
      "duration": 0.0996,
      "velocity": 83,
      "chip": "ym2612"
    },
    {
      "channel": 5,
      "note": 75,
      "start": 50.3972,
      "duration": 0.0996,
      "velocity": 83,
      "chip": "ym2612"
    },
    {
      "channel": 2,
      "note": 82,
      "start": 50.3983,
      "duration": 0.0934,
      "velocity": 127,
      "chip": "ym2612"
    },
    {
      "channel": 3,
      "note": 82,
      "start": 50.4959,
      "duration": 0.0979,
      "velocity": 83,
      "chip": "ym2612"
    },
    {
      "channel": 4,
      "note": 77,
      "start": 50.4967,
      "duration": 0.0978,
      "velocity": 83,
      "chip": "ym2612"
    },
    {
      "channel": 5,
      "note": 75,
      "start": 50.4975,
      "duration": 0.0978,
      "velocity": 83,
      "chip": "ym2612"
    },
    {
      "channel": 2,
      "note": 37,
      "start": 50.4982,
      "duration": 0.0539,
      "velocity": 120,
      "chip": "ym2612"
    },
    {
      "channel": 1,
      "note": 56,
      "start": 50.5936,
      "duration": 0.1027,
      "velocity": 97,
      "chip": "ym2612"
    },
    {
      "channel": 3,
      "note": 80,
      "start": 50.5944,
      "duration": 0.1023,
      "velocity": 83,
      "chip": "ym2612"
    },
    {
      "channel": 4,
      "note": 77,
      "start": 50.5952,
      "duration": 0.1023,
      "velocity": 83,
      "chip": "ym2612"
    },
    {
      "channel": 5,
      "note": 75,
      "start": 50.5959,
      "duration": 0.1023,
      "velocity": 83,
      "chip": "ym2612"
    },
    {
      "channel": 3,
      "note": 80,
      "start": 50.6973,
      "duration": 0.0979,
      "velocity": 83,
      "chip": "ym2612"
    },
    {
      "channel": 4,
      "note": 77,
      "start": 50.698,
      "duration": 0.0979,
      "velocity": 83,
      "chip": "ym2612"
    },
    {
      "channel": 5,
      "note": 75,
      "start": 50.6988,
      "duration": 0.0978,
      "velocity": 83,
      "chip": "ym2612"
    },
    {
      "channel": 2,
      "note": 37,
      "start": 50.6995,
      "duration": 0.054,
      "velocity": 120,
      "chip": "ym2612"
    },
    {
      "channel": 1,
      "note": 58,
      "start": 50.795,
      "duration": 0.1031,
      "velocity": 97,
      "chip": "ym2612"
    },
    {
      "channel": 3,
      "note": 82,
      "start": 50.7957,
      "duration": 0.1027,
      "velocity": 83,
      "chip": "ym2612"
    },
    {
      "channel": 4,
      "note": 77,
      "start": 50.7965,
      "duration": 0.1022,
      "velocity": 83,
      "chip": "ym2612"
    },
    {
      "channel": 5,
      "note": 75,
      "start": 50.7973,
      "duration": 0.1018,
      "velocity": 83,
      "chip": "ym2612"
    },
    {
      "channel": 0,
      "note": 91,
      "start": 50.898,
      "duration": 0.1,
      "velocity": 106,
      "chip": "ym2612"
    },
    {
      "channel": 2,
      "note": 37,
      "start": 50.8999,
      "duration": 0.0541,
      "velocity": 120,
      "chip": "ym2612"
    },
    {
      "channel": 0,
      "note": 92,
      "start": 50.9987,
      "duration": 0.0972,
      "velocity": 106,
      "chip": "ym2612"
    },
    {
      "channel": 1,
      "note": 53,
      "start": 50.9994,
      "duration": 0.0974,
      "velocity": 97,
      "chip": "ym2612"
    },
    {
      "channel": 3,
      "note": 80,
      "start": 51.0001,
      "duration": 0.0974,
      "velocity": 83,
      "chip": "ym2612"
    },
    {
      "channel": 4,
      "note": 77,
      "start": 51.0009,
      "duration": 0.0969,
      "velocity": 83,
      "chip": "ym2612"
    },
    {
      "channel": 5,
      "note": 75,
      "start": 51.0017,
      "duration": 0.0965,
      "velocity": 83,
      "chip": "ym2612"
    },
    {
      "channel": 2,
      "note": 37,
      "start": 51.0024,
      "duration": 0.055,
      "velocity": 120,
      "chip": "ym2612"
    },
    {
      "channel": 0,
      "note": 94,
      "start": 51.0966,
      "duration": 0.1027,
      "velocity": 106,
      "chip": "ym2612"
    },
    {
      "channel": 1,
      "note": 55,
      "start": 51.0973,
      "duration": 0.1028,
      "velocity": 97,
      "chip": "ym2612"
    },
    {
      "channel": 0,
      "note": 89,
      "start": 51.2,
      "duration": 0.0973,
      "velocity": 106,
      "chip": "ym2612"
    },
    {
      "channel": 3,
      "note": 82,
      "start": 51.2011,
      "duration": 0.4018,
      "velocity": 83,
      "chip": "ym2612"
    },
    {
      "channel": 4,
      "note": 77,
      "start": 51.2018,
      "duration": 0.4018,
      "velocity": 83,
      "chip": "ym2612"
    },
    {
      "channel": 5,
      "note": 75,
      "start": 51.2026,
      "duration": 0.4018,
      "velocity": 83,
      "chip": "ym2612"
    },
    {
      "channel": 2,
      "note": 82,
      "start": 51.2037,
      "duration": 0.1055,
      "velocity": 127,
      "chip": "ym2612"
    },
    {
      "channel": 0,
      "note": 91,
      "start": 51.298,
      "duration": 0.1026,
      "velocity": 106,
      "chip": "ym2612"
    },
    {
      "channel": 1,
      "note": 55,
      "start": 51.2987,
      "duration": 0.1028,
      "velocity": 97,
      "chip": "ym2612"
    },
    {
      "channel": 0,
      "note": 92,
      "start": 51.4014,
      "duration": 0.0999,
      "velocity": 106,
      "chip": "ym2612"
    },
    {
      "channel": 2,
      "note": 37,
      "start": 51.4034,
      "duration": 0.0554,
      "velocity": 120,
      "chip": "ym2612"
    },
    {
      "channel": 0,
      "note": 94,
      "start": 51.502,
      "duration": 1.0076,
      "velocity": 106,
      "chip": "ym2612"
    },
    {
      "channel": 1,
      "note": 56,
      "start": 51.5028,
      "duration": 0.0998,
      "velocity": 97,
      "chip": "ym2612"
    },
    {
      "channel": 2,
      "note": 37,
      "start": 51.5045,
      "duration": 0.0546,
      "velocity": 120,
      "chip": "ym2612"
    },
    {
      "channel": 3,
      "note": 82,
      "start": 51.6035,
      "duration": 0.201,
      "velocity": 83,
      "chip": "ym2612"
    },
    {
      "channel": 4,
      "note": 77,
      "start": 51.6043,
      "duration": 0.2008,
      "velocity": 83,
      "chip": "ym2612"
    },
    {
      "channel": 5,
      "note": 75,
      "start": 51.605,
      "duration": 0.2023,
      "velocity": 83,
      "chip": "ym2612"
    },
    {
      "channel": 2,
      "note": 37,
      "start": 51.6074,
      "duration": 0.0522,
      "velocity": 120,
      "chip": "ym2612"
    },
    {
      "channel": 1,
      "note": 58,
      "start": 51.7037,
      "duration": 0.1,
      "velocity": 97,
      "chip": "ym2612"
    },
    {
      "channel": 2,
      "note": 37,
      "start": 51.7071,
      "duration": 0.0533,
      "velocity": 120,
      "chip": "ym2612"
    },
    {
      "channel": 1,
      "note": 53,
      "start": 51.8043,
      "duration": 0.1001,
      "velocity": 97,
      "chip": "ym2612"
    },
    {
      "channel": 3,
      "note": 82,
      "start": 51.8049,
      "duration": 0.0999,
      "velocity": 83,
      "chip": "ym2612"
    },
    {
      "channel": 4,
      "note": 77,
      "start": 51.8071,
      "duration": 0.0998,
      "velocity": 83,
      "chip": "ym2612"
    },
    {
      "channel": 5,
      "note": 75,
      "start": 51.8078,
      "duration": 0.0999,
      "velocity": 83,
      "chip": "ym2612"
    },
    {
      "channel": 2,
      "note": 37,
      "start": 51.8085,
      "duration": 0.0527,
      "velocity": 120,
      "chip": "ym2612"
    },
    {
      "channel": 3,
      "note": 82,
      "start": 51.9068,
      "duration": 0.1006,
      "velocity": 83,
      "chip": "ym2612"
    },
    {
      "channel": 4,
      "note": 77,
      "start": 51.9076,
      "duration": 0.1006,
      "velocity": 83,
      "chip": "ym2612"
    },
    {
      "channel": 5,
      "note": 75,
      "start": 51.9083,
      "duration": 0.1006,
      "velocity": 83,
      "chip": "ym2612"
    },
    {
      "channel": 2,
      "note": 37,
      "start": 51.909,
      "duration": 0.0526,
      "velocity": 120,
      "chip": "ym2612"
    },
    {
      "channel": 1,
      "note": 55,
      "start": 52.0073,
      "duration": 0.1001,
      "velocity": 97,
      "chip": "ym2612"
    },
    {
      "channel": 3,
      "note": 80,
      "start": 52.0081,
      "duration": 0.0996,
      "velocity": 83,
      "chip": "ym2612"
    },
    {
      "channel": 4,
      "note": 77,
      "start": 52.0088,
      "duration": 0.0997,
      "velocity": 83,
      "chip": "ym2612"
    },
    {
      "channel": 5,
      "note": 75,
      "start": 52.0095,
      "duration": 0.0997,
      "velocity": 83,
      "chip": "ym2612"
    },
    {
      "channel": 2,
      "note": 82,
      "start": 52.0106,
      "duration": 0.0919,
      "velocity": 127,
      "chip": "ym2612"
    },
    {
      "channel": 3,
      "note": 82,
      "start": 52.1083,
      "duration": 0.0961,
      "velocity": 83,
      "chip": "ym2612"
    },
    {
      "channel": 4,
      "note": 77,
      "start": 52.109,
      "duration": 0.0957,
      "velocity": 83,
      "chip": "ym2612"
    },
    {
      "channel": 5,
      "note": 75,
      "start": 52.1098,
      "duration": 0.0953,
      "velocity": 83,
      "chip": "ym2612"
    },
    {
      "channel": 2,
      "note": 37,
      "start": 52.1105,
      "duration": 0.0525,
      "velocity": 120,
      "chip": "ym2612"
    },
    {
      "channel": 1,
      "note": 56,
      "start": 52.2043,
      "duration": 0.1044,
      "velocity": 97,
      "chip": "ym2612"
    },
    {
      "channel": 3,
      "note": 80,
      "start": 52.3096,
      "duration": 0.0979,
      "velocity": 83,
      "chip": "ym2612"
    },
    {
      "channel": 4,
      "note": 77,
      "start": 52.3104,
      "duration": 0.0979,
      "velocity": 83,
      "chip": "ym2612"
    },
    {
      "channel": 5,
      "note": 75,
      "start": 52.3111,
      "duration": 0.0979,
      "velocity": 83,
      "chip": "ym2612"
    },
    {
      "channel": 2,
      "note": 37,
      "start": 52.3118,
      "duration": 0.0523,
      "velocity": 120,
      "chip": "ym2612"
    },
    {
      "channel": 1,
      "note": 58,
      "start": 52.4074,
      "duration": 0.1031,
      "velocity": 97,
      "chip": "ym2612"
    },
    {
      "channel": 3,
      "note": 82,
      "start": 52.4081,
      "duration": 0.1027,
      "velocity": 83,
      "chip": "ym2612"
    },
    {
      "channel": 4,
      "note": 77,
      "start": 52.4088,
      "duration": 0.1023,
      "velocity": 83,
      "chip": "ym2612"
    },
    {
      "channel": 5,
      "note": 75,
      "start": 52.4096,
      "duration": 0.1019,
      "velocity": 83,
      "chip": "ym2612"
    },
    {
      "channel": 0,
      "note": 89,
      "start": 52.5104,
      "duration": 0.0996,
      "velocity": 106,
      "chip": "ym2612"
    },
    {
      "channel": 2,
      "note": 37,
      "start": 52.5123,
      "duration": 0.0524,
      "velocity": 120,
      "chip": "ym2612"
    },
    {
      "channel": 0,
      "note": 91,
      "start": 52.6107,
      "duration": 0.0966,
      "velocity": 106,
      "chip": "ym2612"
    },
    {
      "channel": 1,
      "note": 53,
      "start": 52.6114,
      "duration": 0.0968,
      "velocity": 97,
      "chip": "ym2612"
    },
    {
      "channel": 3,
      "note": 80,
      "start": 52.6122,
      "duration": 0.0968,
      "velocity": 83,
      "chip": "ym2612"
    },
    {
      "channel": 4,
      "note": 77,
      "start": 52.6129,
      "duration": 0.0963,
      "velocity": 83,
      "chip": "ym2612"
    },
    {
      "channel": 5,
      "note": 75,
      "start": 52.6137,
      "duration": 0.0959,
      "velocity": 83,
      "chip": "ym2612"
    },
    {
      "channel": 2,
      "note": 37,
      "start": 52.6144,
      "duration": 0.0521,
      "velocity": 120,
      "chip": "ym2612"
    },
    {
      "channel": 0,
      "note": 92,
      "start": 52.708,
      "duration": 0.1023,
      "velocity": 106,
      "chip": "ym2612"
    },
    {
      "channel": 1,
      "note": 55,
      "start": 52.7088,
      "duration": 0.1024,
      "velocity": 97,
      "chip": "ym2612"
    },
    {
      "channel": 0,
      "note": 89,
      "start": 52.811,
      "duration": 0.097,
      "velocity": 106,
      "chip": "ym2612"
    },
    {
      "channel": 3,
      "note": 82,
      "start": 52.8121,
      "duration": 0.4019,
      "velocity": 83,
      "chip": "ym2612"
    },
    {
      "channel": 4,
      "note": 77,
      "start": 52.8129,
      "duration": 0.4019,
      "velocity": 83,
      "chip": "ym2612"
    },
    {
      "channel": 5,
      "note": 75,
      "start": 52.8136,
      "duration": 0.4019,
      "velocity": 83,
      "chip": "ym2612"
    },
    {
      "channel": 2,
      "note": 82,
      "start": 52.8147,
      "duration": 0.1035,
      "velocity": 127,
      "chip": "ym2612"
    },
    {
      "channel": 0,
      "note": 91,
      "start": 52.9087,
      "duration": 0.1026,
      "velocity": 106,
      "chip": "ym2612"
    },
    {
      "channel": 1,
      "note": 55,
      "start": 52.9095,
      "duration": 0.1027,
      "velocity": 97,
      "chip": "ym2612"
    },
    {
      "channel": 0,
      "note": 92,
      "start": 53.012,
      "duration": 0.0999,
      "velocity": 106,
      "chip": "ym2612"
    },
    {
      "channel": 2,
      "note": 37,
      "start": 53.0141,
      "duration": 0.0549,
      "velocity": 120,
      "chip": "ym2612"
    },
    {
      "channel": 0,
      "note": 94,
      "start": 53.1127,
      "duration": 0.1,
      "velocity": 106,
      "chip": "ym2612"
    },
    {
      "channel": 1,
      "note": 56,
      "start": 53.1134,
      "duration": 0.1003,
      "velocity": 97,
      "chip": "ym2612"
    },
    {
      "channel": 2,
      "note": 82,
      "start": 53.1155,
      "duration": 0.0944,
      "velocity": 127,
      "chip": "ym2612"
    },
    {
      "channel": 0,
      "note": 96,
      "start": 53.2134,
      "duration": 1.2072,
      "velocity": 106,
      "chip": "ym2612"
    },
    {
      "channel": 3,
      "note": 82,
      "start": 53.2146,
      "duration": 0.2005,
      "velocity": 83,
      "chip": "ym2612"
    },
    {
      "channel": 4,
      "note": 77,
      "start": 53.2154,
      "duration": 0.2004,
      "velocity": 83,
      "chip": "ym2612"
    },
    {
      "channel": 5,
      "note": 75,
      "start": 53.2161,
      "duration": 0.2002,
      "velocity": 83,
      "chip": "ym2612"
    },
    {
      "channel": 2,
      "note": 37,
      "start": 53.2168,
      "duration": 0.0534,
      "velocity": 120,
      "chip": "ym2612"
    },
    {
      "channel": 1,
      "note": 58,
      "start": 53.3118,
      "duration": 0.1027,
      "velocity": 97,
      "chip": "ym2612"
    },
    {
      "channel": 1,
      "note": 53,
      "start": 53.415,
      "duration": 0.1001,
      "velocity": 97,
      "chip": "ym2612"
    },
    {
      "channel": 3,
      "note": 82,
      "start": 53.4156,
      "duration": 0.0999,
      "velocity": 83,
      "chip": "ym2612"
    },
    {
      "channel": 4,
      "note": 77,
      "start": 53.4162,
      "duration": 0.0998,
      "velocity": 83,
      "chip": "ym2612"
    },
    {
      "channel": 5,
      "note": 75,
      "start": 53.4168,
      "duration": 0.1,
      "velocity": 83,
      "chip": "ym2612"
    },
    {
      "channel": 2,
      "note": 37,
      "start": 53.4176,
      "duration": 0.0559,
      "velocity": 120,
      "chip": "ym2612"
    },
    {
      "channel": 3,
      "note": 82,
      "start": 53.5159,
      "duration": 0.1006,
      "velocity": 83,
      "chip": "ym2612"
    },
    {
      "channel": 4,
      "note": 77,
      "start": 53.5167,
      "duration": 0.1006,
      "velocity": 83,
      "chip": "ym2612"
    },
    {
      "channel": 5,
      "note": 75,
      "start": 53.5174,
      "duration": 0.1006,
      "velocity": 83,
      "chip": "ym2612"
    },
    {
      "channel": 2,
      "note": 37,
      "start": 53.5181,
      "duration": 0.0558,
      "velocity": 120,
      "chip": "ym2612"
    },
    {
      "channel": 1,
      "note": 55,
      "start": 53.6163,
      "duration": 0.1002,
      "velocity": 97,
      "chip": "ym2612"
    },
    {
      "channel": 3,
      "note": 80,
      "start": 53.6171,
      "duration": 0.0997,
      "velocity": 83,
      "chip": "ym2612"
    },
    {
      "channel": 4,
      "note": 77,
      "start": 53.6178,
      "duration": 0.0998,
      "velocity": 83,
      "chip": "ym2612"
    },
    {
      "channel": 5,
      "note": 75,
      "start": 53.6186,
      "duration": 0.0998,
      "velocity": 83,
      "chip": "ym2612"
    },
    {
      "channel": 2,
      "note": 82,
      "start": 53.6196,
      "duration": 0.0936,
      "velocity": 127,
      "chip": "ym2612"
    },
    {
      "channel": 3,
      "note": 82,
      "start": 53.7174,
      "duration": 0.0977,
      "velocity": 83,
      "chip": "ym2612"
    },
    {
      "channel": 4,
      "note": 77,
      "start": 53.7182,
      "duration": 0.0977,
      "velocity": 83,
      "chip": "ym2612"
    },
    {
      "channel": 5,
      "note": 75,
      "start": 53.719,
      "duration": 0.0977,
      "velocity": 83,
      "chip": "ym2612"
    },
    {
      "channel": 2,
      "note": 37,
      "start": 53.7197,
      "duration": 0.0555,
      "velocity": 120,
      "chip": "ym2612"
    },
    {
      "channel": 1,
      "note": 56,
      "start": 53.815,
      "duration": 0.1032,
      "velocity": 97,
      "chip": "ym2612"
    },
    {
      "channel": 3,
      "note": 80,
      "start": 53.8158,
      "duration": 0.1027,
      "velocity": 83,
      "chip": "ym2612"
    },
    {
      "channel": 4,
      "note": 77,
      "start": 53.8165,
      "duration": 0.1027,
      "velocity": 83,
      "chip": "ym2612"
    },
    {
      "channel": 5,
      "note": 75,
      "start": 53.8172,
      "duration": 0.1027,
      "velocity": 83,
      "chip": "ym2612"
    },
    {
      "channel": 3,
      "note": 80,
      "start": 53.9191,
      "duration": 0.0975,
      "velocity": 83,
      "chip": "ym2612"
    },
    {
      "channel": 4,
      "note": 77,
      "start": 53.9198,
      "duration": 0.0975,
      "velocity": 83,
      "chip": "ym2612"
    },
    {
      "channel": 5,
      "note": 75,
      "start": 53.9206,
      "duration": 0.0975,
      "velocity": 83,
      "chip": "ym2612"
    },
    {
      "channel": 2,
      "note": 37,
      "start": 53.9213,
      "duration": 0.0545,
      "velocity": 120,
      "chip": "ym2612"
    },
    {
      "channel": 1,
      "note": 58,
      "start": 54.0164,
      "duration": 0.1027,
      "velocity": 97,
      "chip": "ym2612"
    },
    {
      "channel": 3,
      "note": 82,
      "start": 54.0172,
      "duration": 0.1022,
      "velocity": 83,
      "chip": "ym2612"
    },
    {
      "channel": 4,
      "note": 77,
      "start": 54.0179,
      "duration": 0.1018,
      "velocity": 83,
      "chip": "ym2612"
    },
    {
      "channel": 5,
      "note": 75,
      "start": 54.0187,
      "duration": 0.1013,
      "velocity": 83,
      "chip": "ym2612"
    },
    {
      "channel": 2,
      "note": 37,
      "start": 54.1209,
      "duration": 0.0549,
      "velocity": 120,
      "chip": "ym2612"
    },
    {
      "channel": 1,
      "note": 53,
      "start": 54.2204,
      "duration": 0.0974,
      "velocity": 97,
      "chip": "ym2612"
    },
    {
      "channel": 3,
      "note": 80,
      "start": 54.2211,
      "duration": 0.097,
      "velocity": 83,
      "chip": "ym2612"
    },
    {
      "channel": 4,
      "note": 77,
      "start": 54.2235,
      "duration": 0.095,
      "velocity": 83,
      "chip": "ym2612"
    },
    {
      "channel": 5,
      "note": 75,
      "start": 54.2242,
      "duration": 0.0946,
      "velocity": 83,
      "chip": "ym2612"
    },
    {
      "channel": 2,
      "note": 37,
      "start": 54.2249,
      "duration": 0.0523,
      "velocity": 120,
      "chip": "ym2612"
    },
    {
      "channel": 0,
      "note": 93,
      "start": 54.4214,
      "duration": 0.4038,
      "velocity": 106,
      "chip": "ym2612"
    },
    {
      "channel": 1,
      "note": 57,
      "start": 54.4237,
      "duration": 0.0997,
      "velocity": 97,
      "chip": "ym2612"
    },
    {
      "channel": 3,
      "note": 79,
      "start": 54.4245,
      "duration": 0.4013,
      "velocity": 83,
      "chip": "ym2612"
    },
    {
      "channel": 4,
      "note": 74,
      "start": 54.4253,
      "duration": 0.4013,
      "velocity": 83,
      "chip": "ym2612"
    },
    {
      "channel": 5,
      "note": 72,
      "start": 54.426,
      "duration": 0.4013,
      "velocity": 83,
      "chip": "ym2612"
    },
    {
      "channel": 2,
      "note": 82,
      "start": 54.427,
      "duration": 0.0915,
      "velocity": 127,
      "chip": "ym2612"
    },
    {
      "channel": 1,
      "note": 57,
      "start": 54.524,
      "duration": 0.1001,
      "velocity": 97,
      "chip": "ym2612"
    },
    {
      "channel": 2,
      "note": 82,
      "start": 54.526,
      "duration": 0.0931,
      "velocity": 127,
      "chip": "ym2612"
    },
    {
      "channel": 1,
      "note": 57,
      "start": 54.6246,
      "duration": 0.1002,
      "velocity": 97,
      "chip": "ym2612"
    },
    {
      "channel": 2,
      "note": 82,
      "start": 54.6267,
      "duration": 0.0932,
      "velocity": 127,
      "chip": "ym2612"
    },
    {
      "channel": 1,
      "note": 57,
      "start": 54.7254,
      "duration": 0.1001,
      "velocity": 97,
      "chip": "ym2612"
    },
    {
      "channel": 2,
      "note": 82,
      "start": 54.7274,
      "duration": 0.0933,
      "velocity": 127,
      "chip": "ym2612"
    },
    {
      "channel": 3,
      "note": 78,
      "start": 54.8264,
      "duration": 0.2008,
      "velocity": 83,
      "chip": "ym2612"
    },
    {
      "channel": 4,
      "note": 73,
      "start": 54.8272,
      "duration": 0.2006,
      "velocity": 83,
      "chip": "ym2612"
    },
    {
      "channel": 5,
      "note": 71,
      "start": 54.8279,
      "duration": 0.2005,
      "velocity": 83,
      "chip": "ym2612"
    },
    {
      "channel": 2,
      "note": 37,
      "start": 54.8286,
      "duration": 0.052,
      "velocity": 120,
      "chip": "ym2612"
    },
    {
      "channel": 0,
      "note": 90,
      "start": 54.9264,
      "duration": 0.2002,
      "velocity": 106,
      "chip": "ym2612"
    },
    {
      "channel": 1,
      "note": 54,
      "start": 54.9272,
      "duration": 0.0997,
      "velocity": 97,
      "chip": "ym2612"
    },
    {
      "channel": 2,
      "note": 37,
      "start": 54.9289,
      "duration": 0.0529,
      "velocity": 120,
      "chip": "ym2612"
    },
    {
      "channel": 3,
      "note": 78,
      "start": 55.0276,
      "duration": 0.1006,
      "velocity": 83,
      "chip": "ym2612"
    },
    {
      "channel": 4,
      "note": 73,
      "start": 55.0282,
      "duration": 0.1006,
      "velocity": 83,
      "chip": "ym2612"
    },
    {
      "channel": 5,
      "note": 71,
      "start": 55.0288,
      "duration": 0.1007,
      "velocity": 83,
      "chip": "ym2612"
    },
    {
      "channel": 2,
      "note": 37,
      "start": 55.0295,
      "duration": 0.0527,
      "velocity": 120,
      "chip": "ym2612"
    },
    {
      "channel": 0,
      "note": 87,
      "start": 55.1273,
      "duration": 0.0993,
      "velocity": 106,
      "chip": "ym2612"
    },
    {
      "channel": 1,
      "note": 49,
      "start": 55.128,
      "duration": 0.0994,
      "velocity": 97,
      "chip": "ym2612"
    },
    {
      "channel": 3,
      "note": 78,
      "start": 55.1286,
      "duration": 0.0996,
      "velocity": 83,
      "chip": "ym2612"
    },
    {
      "channel": 4,
      "note": 73,
      "start": 55.1294,
      "duration": 0.0995,
      "velocity": 83,
      "chip": "ym2612"
    },
    {
      "channel": 5,
      "note": 71,
      "start": 55.1302,
      "duration": 0.0995,
      "velocity": 83,
      "chip": "ym2612"
    },
    {
      "channel": 2,
      "note": 37,
      "start": 55.1308,
      "duration": 0.0523,
      "velocity": 120,
      "chip": "ym2612"
    },
    {
      "channel": 0,
      "note": 88,
      "start": 55.2273,
      "duration": 0.1975,
      "velocity": 106,
      "chip": "ym2612"
    },
    {
      "channel": 1,
      "note": 52,
      "start": 55.228,
      "duration": 0.0991,
      "velocity": 97,
      "chip": "ym2612"
    },
    {
      "channel": 3,
      "note": 75,
      "start": 55.2288,
      "duration": 0.0987,
      "velocity": 83,
      "chip": "ym2612"
    },
    {
      "channel": 4,
      "note": 73,
      "start": 55.2295,
      "duration": 0.0987,
      "velocity": 83,
      "chip": "ym2612"
    },
    {
      "channel": 5,
      "note": 71,
      "start": 55.2303,
      "duration": 0.0987,
      "velocity": 83,
      "chip": "ym2612"
    },
    {
      "channel": 2,
      "note": 82,
      "start": 55.2313,
      "duration": 0.0926,
      "velocity": 127,
      "chip": "ym2612"
    },
    {
      "channel": 3,
      "note": 78,
      "start": 55.328,
      "duration": 0.0983,
      "velocity": 83,
      "chip": "ym2612"
    },
    {
      "channel": 4,
      "note": 73,
      "start": 55.3288,
      "duration": 0.0978,
      "velocity": 83,
      "chip": "ym2612"
    },
    {
      "channel": 5,
      "note": 71,
      "start": 55.3296,
      "duration": 0.0974,
      "velocity": 83,
      "chip": "ym2612"
    },
    {
      "channel": 2,
      "note": 37,
      "start": 55.3303,
      "duration": 0.054,
      "velocity": 120,
      "chip": "ym2612"
    },
    {
      "channel": 0,
      "note": 85,
      "start": 55.4254,
      "duration": 0.2006,
      "velocity": 106,
      "chip": "ym2612"
    },
    {
      "channel": 1,
      "note": 51,
      "start": 55.4262,
      "duration": 0.1023,
      "velocity": 97,
      "chip": "ym2612"
    },
    {
      "channel": 3,
      "note": 75,
      "start": 55.5295,
      "duration": 0.0983,
      "velocity": 83,
      "chip": "ym2612"
    },
    {
      "channel": 4,
      "note": 73,
      "start": 55.5302,
      "duration": 0.0982,
      "velocity": 83,
      "chip": "ym2612"
    },
    {
      "channel": 5,
      "note": 71,
      "start": 55.531,
      "duration": 0.0982,
      "velocity": 83,
      "chip": "ym2612"
    },
    {
      "channel": 2,
      "note": 37,
      "start": 55.5317,
      "duration": 0.054,
      "velocity": 120,
      "chip": "ym2612"
    },
    {
      "channel": 0,
      "note": 90,
      "start": 55.6268,
      "duration": 0.2032,
      "velocity": 106,
      "chip": "ym2612"
    },
    {
      "channel": 1,
      "note": 52,
      "start": 55.6276,
      "duration": 0.1023,
      "velocity": 97,
      "chip": "ym2612"
    },
    {
      "channel": 3,
      "note": 78,
      "start": 55.6283,
      "duration": 0.1019,
      "velocity": 83,
      "chip": "ym2612"
    },
    {
      "channel": 4,
      "note": 73,
      "start": 55.6291,
      "duration": 0.1015,
      "velocity": 83,
      "chip": "ym2612"
    },
    {
      "channel": 5,
      "note": 71,
      "start": 55.6298,
      "duration": 0.1011,
      "velocity": 83,
      "chip": "ym2612"
    },
    {
      "channel": 2,
      "note": 37,
      "start": 55.7317,
      "duration": 0.0544,
      "velocity": 120,
      "chip": "ym2612"
    },
    {
      "channel": 0,
      "note": 87,
      "start": 55.8308,
      "duration": 0.0973,
      "velocity": 106,
      "chip": "ym2612"
    },
    {
      "channel": 1,
      "note": 51,
      "start": 55.8315,
      "duration": 0.0975,
      "velocity": 97,
      "chip": "ym2612"
    },
    {
      "channel": 3,
      "note": 75,
      "start": 55.8323,
      "duration": 0.097,
      "velocity": 83,
      "chip": "ym2612"
    },
    {
      "channel": 4,
      "note": 73,
      "start": 55.833,
      "duration": 0.0966,
      "velocity": 83,
      "chip": "ym2612"
    },
    {
      "channel": 5,
      "note": 71,
      "start": 55.8338,
      "duration": 0.0962,
      "velocity": 83,
      "chip": "ym2612"
    },
    {
      "channel": 2,
      "note": 37,
      "start": 55.8345,
      "duration": 0.0535,
      "velocity": 120,
      "chip": "ym2612"
    },
    {
      "channel": 0,
      "note": 88,
      "start": 55.9289,
      "duration": 0.2005,
      "velocity": 106,
      "chip": "ym2612"
    },
    {
      "channel": 1,
      "note": 52,
      "start": 56.0324,
      "duration": 0.0979,
      "velocity": 97,
      "chip": "ym2612"
    },
    {
      "channel": 3,
      "note": 77,
      "start": 56.0332,
      "duration": 0.4017,
      "velocity": 83,
      "chip": "ym2612"
    },
    {
      "channel": 4,
      "note": 73,
      "start": 56.034,
      "duration": 0.4017,
      "velocity": 83,
      "chip": "ym2612"
    },
    {
      "channel": 5,
      "note": 71,
      "start": 56.0347,
      "duration": 0.4017,
      "velocity": 83,
      "chip": "ym2612"
    },
    {
      "channel": 2,
      "note": 82,
      "start": 56.0357,
      "duration": 0.1056,
      "velocity": 127,
      "chip": "ym2612"
    },
    {
      "channel": 0,
      "note": 85,
      "start": 56.1302,
      "duration": 0.2032,
      "velocity": 106,
      "chip": "ym2612"
    },
    {
      "channel": 1,
      "note": 54,
      "start": 56.1308,
      "duration": 0.1023,
      "velocity": 97,
      "chip": "ym2612"
    },
    {
      "channel": 2,
      "note": 37,
      "start": 56.2351,
      "duration": 0.0569,
      "velocity": 120,
      "chip": "ym2612"
    },
    {
      "channel": 0,
      "note": 85,
      "start": 56.3341,
      "duration": 0.1,
      "velocity": 106,
      "chip": "ym2612"
    },
    {
      "channel": 1,
      "note": 49,
      "start": 56.3349,
      "duration": 0.0998,
      "velocity": 97,
      "chip": "ym2612"
    },
    {
      "channel": 2,
      "note": 82,
      "start": 56.337,
      "duration": 0.0943,
      "velocity": 127,
      "chip": "ym2612"
    },
    {
      "channel": 3,
      "note": 78,
      "start": 56.4355,
      "duration": 0.2007,
      "velocity": 83,
      "chip": "ym2612"
    },
    {
      "channel": 4,
      "note": 73,
      "start": 56.4363,
      "duration": 0.2005,
      "velocity": 83,
      "chip": "ym2612"
    },
    {
      "channel": 5,
      "note": 71,
      "start": 56.437,
      "duration": 0.2004,
      "velocity": 83,
      "chip": "ym2612"
    },
    {
      "channel": 2,
      "note": 37,
      "start": 56.4378,
      "duration": 0.054,
      "velocity": 120,
      "chip": "ym2612"
    },
    {
      "channel": 0,
      "note": 90,
      "start": 56.5328,
      "duration": 0.2033,
      "velocity": 106,
      "chip": "ym2612"
    },
    {
      "channel": 1,
      "note": 54,
      "start": 56.5336,
      "duration": 0.1023,
      "velocity": 97,
      "chip": "ym2612"
    },
    {
      "channel": 3,
      "note": 78,
      "start": 56.6366,
      "duration": 0.1011,
      "velocity": 83,
      "chip": "ym2612"
    },
    {
      "channel": 4,
      "note": 73,
      "start": 56.6372,
      "duration": 0.1012,
      "velocity": 83,
      "chip": "ym2612"
    },
    {
      "channel": 5,
      "note": 71,
      "start": 56.6378,
      "duration": 0.1029,
      "velocity": 83,
      "chip": "ym2612"
    },
    {
      "channel": 2,
      "note": 37,
      "start": 56.6401,
      "duration": 0.0529,
      "velocity": 120,
      "chip": "ym2612"
    },
    {
      "channel": 0,
      "note": 87,
      "start": 56.7368,
      "duration": 0.0999,
      "velocity": 106,
      "chip": "ym2612"
    },
    {
      "channel": 1,
      "note": 49,
      "start": 56.7376,
      "duration": 0.1,
      "velocity": 97,
      "chip": "ym2612"
    },
    {
      "channel": 3,
      "note": 78,
      "start": 56.7382,
      "duration": 0.1001,
      "velocity": 83,
      "chip": "ym2612"
    },
    {
      "channel": 4,
      "note": 73,
      "start": 56.7406,
      "duration": 0.1001,
      "velocity": 83,
      "chip": "ym2612"
    },
    {
      "channel": 5,
      "note": 71,
      "start": 56.7413,
      "duration": 0.1001,
      "velocity": 83,
      "chip": "ym2612"
    },
    {
      "channel": 2,
      "note": 37,
      "start": 56.742,
      "duration": 0.0519,
      "velocity": 120,
      "chip": "ym2612"
    },
    {
      "channel": 0,
      "note": 88,
      "start": 56.8375,
      "duration": 0.198,
      "velocity": 106,
      "chip": "ym2612"
    },
    {
      "channel": 1,
      "note": 52,
      "start": 56.8382,
      "duration": 0.0998,
      "velocity": 97,
      "chip": "ym2612"
    },
    {
      "channel": 3,
      "note": 75,
      "start": 56.8405,
      "duration": 0.0977,
      "velocity": 83,
      "chip": "ym2612"
    },
    {
      "channel": 4,
      "note": 73,
      "start": 56.8413,
      "duration": 0.0993,
      "velocity": 83,
      "chip": "ym2612"
    },
    {
      "channel": 5,
      "note": 71,
      "start": 56.842,
      "duration": 0.0993,
      "velocity": 83,
      "chip": "ym2612"
    },
    {
      "channel": 2,
      "note": 82,
      "start": 56.8431,
      "duration": 0.0916,
      "velocity": 127,
      "chip": "ym2612"
    },
    {
      "channel": 3,
      "note": 78,
      "start": 56.9405,
      "duration": 0.0966,
      "velocity": 83,
      "chip": "ym2612"
    },
    {
      "channel": 4,
      "note": 73,
      "start": 56.9412,
      "duration": 0.0966,
      "velocity": 83,
      "chip": "ym2612"
    },
    {
      "channel": 5,
      "note": 71,
      "start": 56.9419,
      "duration": 0.0982,
      "velocity": 83,
      "chip": "ym2612"
    },
    {
      "channel": 2,
      "note": 37,
      "start": 56.9426,
      "duration": 0.0524,
      "velocity": 120,
      "chip": "ym2612"
    },
    {
      "channel": 0,
      "note": 85,
      "start": 57.0361,
      "duration": 0.2007,
      "velocity": 106,
      "chip": "ym2612"
    },
    {
      "channel": 1,
      "note": 51,
      "start": 57.0369,
      "duration": 0.1039,
      "velocity": 97,
      "chip": "ym2612"
    },
    {
      "channel": 3,
      "note": 75,
      "start": 57.0376,
      "duration": 0.1035,
      "velocity": 83,
      "chip": "ym2612"
    },
    {
      "channel": 4,
      "note": 73,
      "start": 57.0384,
      "duration": 0.1035,
      "velocity": 83,
      "chip": "ym2612"
    },
    {
      "channel": 5,
      "note": 71,
      "start": 57.0407,
      "duration": 0.1019,
      "velocity": 83,
      "chip": "ym2612"
    },
    {
      "channel": 3,
      "note": 75,
      "start": 57.1417,
      "duration": 0.0968,
      "velocity": 83,
      "chip": "ym2612"
    },
    {
      "channel": 4,
      "note": 73,
      "start": 57.1424,
      "duration": 0.0983,
      "velocity": 83,
      "chip": "ym2612"
    },
    {
      "channel": 5,
      "note": 71,
      "start": 57.1432,
      "duration": 0.0983,
      "velocity": 83,
      "chip": "ym2612"
    },
    {
      "channel": 2,
      "note": 37,
      "start": 57.1439,
      "duration": 0.0524,
      "velocity": 120,
      "chip": "ym2612"
    },
    {
      "channel": 0,
      "note": 90,
      "start": 57.2375,
      "duration": 0.2049,
      "velocity": 106,
      "chip": "ym2612"
    },
    {
      "channel": 1,
      "note": 52,
      "start": 57.2383,
      "duration": 0.1039,
      "velocity": 97,
      "chip": "ym2612"
    },
    {
      "channel": 3,
      "note": 78,
      "start": 57.2406,
      "duration": 0.1019,
      "velocity": 83,
      "chip": "ym2612"
    },
    {
      "channel": 4,
      "note": 73,
      "start": 57.2414,
      "duration": 0.1014,
      "velocity": 83,
      "chip": "ym2612"
    },
    {
      "channel": 5,
      "note": 71,
      "start": 57.2421,
      "duration": 0.101,
      "velocity": 83,
      "chip": "ym2612"
    },
    {
      "channel": 2,
      "note": 37,
      "start": 57.344,
      "duration": 0.0529,
      "velocity": 120,
      "chip": "ym2612"
    },
    {
      "channel": 0,
      "note": 87,
      "start": 57.4431,
      "duration": 0.0973,
      "velocity": 106,
      "chip": "ym2612"
    },
    {
      "channel": 1,
      "note": 51,
      "start": 57.4439,
      "duration": 0.0974,
      "velocity": 97,
      "chip": "ym2612"
    },
    {
      "channel": 3,
      "note": 75,
      "start": 57.4446,
      "duration": 0.097,
      "velocity": 83,
      "chip": "ym2612"
    },
    {
      "channel": 4,
      "note": 73,
      "start": 57.4454,
      "duration": 0.0966,
      "velocity": 83,
      "chip": "ym2612"
    },
    {
      "channel": 5,
      "note": 71,
      "start": 57.4461,
      "duration": 0.0961,
      "velocity": 83,
      "chip": "ym2612"
    },
    {
      "channel": 2,
      "note": 37,
      "start": 57.4468,
      "duration": 0.0518,
      "velocity": 120,
      "chip": "ym2612"
    },
    {
      "channel": 0,
      "note": 88,
      "start": 57.5412,
      "duration": 0.1995,
      "velocity": 106,
      "chip": "ym2612"
    },
    {
      "channel": 1,
      "note": 52,
      "start": 57.6443,
      "duration": 0.0973,
      "velocity": 97,
      "chip": "ym2612"
    },
    {
      "channel": 3,
      "note": 77,
      "start": 57.645,
      "duration": 0.4008,
      "velocity": 83,
      "chip": "ym2612"
    },
    {
      "channel": 4,
      "note": 73,
      "start": 57.6458,
      "duration": 0.4007,
      "velocity": 83,
      "chip": "ym2612"
    },
    {
      "channel": 5,
      "note": 71,
      "start": 57.6466,
      "duration": 0.4008,
      "velocity": 83,
      "chip": "ym2612"
    },
    {
      "channel": 2,
      "note": 82,
      "start": 57.6476,
      "duration": 0.1028,
      "velocity": 127,
      "chip": "ym2612"
    },
    {
      "channel": 0,
      "note": 85,
      "start": 57.7413,
      "duration": 0.2028,
      "velocity": 106,
      "chip": "ym2612"
    },
    {
      "channel": 1,
      "note": 54,
      "start": 57.7421,
      "duration": 0.1018,
      "velocity": 97,
      "chip": "ym2612"
    },
    {
      "channel": 2,
      "note": 37,
      "start": 57.8458,
      "duration": 0.0552,
      "velocity": 120,
      "chip": "ym2612"
    },
    {
      "channel": 0,
      "note": 85,
      "start": 57.9449,
      "duration": 0.1,
      "velocity": 106,
      "chip": "ym2612"
    },
    {
      "channel": 1,
      "note": 49,
      "start": 57.9456,
      "duration": 0.0998,
      "velocity": 97,
      "chip": "ym2612"
    },
    {
      "channel": 2,
      "note": 37,
      "start": 57.9473,
      "duration": 0.0546,
      "velocity": 120,
      "chip": "ym2612"
    },
    {
      "channel": 3,
      "note": 78,
      "start": 58.0464,
      "duration": 0.2005,
      "velocity": 83,
      "chip": "ym2612"
    },
    {
      "channel": 4,
      "note": 73,
      "start": 58.0471,
      "duration": 0.2003,
      "velocity": 83,
      "chip": "ym2612"
    },
    {
      "channel": 5,
      "note": 71,
      "start": 58.0479,
      "duration": 0.2002,
      "velocity": 83,
      "chip": "ym2612"
    },
    {
      "channel": 2,
      "note": 37,
      "start": 58.0487,
      "duration": 0.0533,
      "velocity": 120,
      "chip": "ym2612"
    },
    {
      "channel": 0,
      "note": 90,
      "start": 58.1463,
      "duration": 0.2005,
      "velocity": 106,
      "chip": "ym2612"
    },
    {
      "channel": 1,
      "note": 54,
      "start": 58.147,
      "duration": 0.0995,
      "velocity": 97,
      "chip": "ym2612"
    },
    {
      "channel": 2,
      "note": 37,
      "start": 58.1488,
      "duration": 0.0546,
      "velocity": 120,
      "chip": "ym2612"
    },
    {
      "channel": 3,
      "note": 78,
      "start": 58.2473,
      "duration": 0.1011,
      "velocity": 83,
      "chip": "ym2612"
    },
    {
      "channel": 4,
      "note": 73,
      "start": 58.2479,
      "duration": 0.1011,
      "velocity": 83,
      "chip": "ym2612"
    },
    {
      "channel": 5,
      "note": 71,
      "start": 58.2485,
      "duration": 0.1012,
      "velocity": 83,
      "chip": "ym2612"
    },
    {
      "channel": 2,
      "note": 37,
      "start": 58.2492,
      "duration": 0.0545,
      "velocity": 120,
      "chip": "ym2612"
    },
    {
      "channel": 0,
      "note": 87,
      "start": 58.3475,
      "duration": 0.1,
      "velocity": 106,
      "chip": "ym2612"
    },
    {
      "channel": 1,
      "note": 49,
      "start": 58.3483,
      "duration": 0.1001,
      "velocity": 97,
      "chip": "ym2612"
    },
    {
      "channel": 3,
      "note": 78,
      "start": 58.3488,
      "duration": 0.1003,
      "velocity": 83,
      "chip": "ym2612"
    },
    {
      "channel": 4,
      "note": 73,
      "start": 58.3496,
      "duration": 0.1002,
      "velocity": 83,
      "chip": "ym2612"
    },
    {
      "channel": 5,
      "note": 71,
      "start": 58.3503,
      "duration": 0.1002,
      "velocity": 83,
      "chip": "ym2612"
    },
    {
      "channel": 2,
      "note": 37,
      "start": 58.3511,
      "duration": 0.0536,
      "velocity": 120,
      "chip": "ym2612"
    },
    {
      "channel": 0,
      "note": 88,
      "start": 58.4482,
      "duration": 0.1979,
      "velocity": 106,
      "chip": "ym2612"
    },
    {
      "channel": 1,
      "note": 52,
      "start": 58.4489,
      "duration": 0.0996,
      "velocity": 97,
      "chip": "ym2612"
    },
    {
      "channel": 3,
      "note": 75,
      "start": 58.4497,
      "duration": 0.0992,
      "velocity": 83,
      "chip": "ym2612"
    },
    {
      "channel": 4,
      "note": 73,
      "start": 58.4505,
      "duration": 0.0992,
      "velocity": 83,
      "chip": "ym2612"
    },
    {
      "channel": 5,
      "note": 71,
      "start": 58.4512,
      "duration": 0.0991,
      "velocity": 83,
      "chip": "ym2612"
    },
    {
      "channel": 2,
      "note": 82,
      "start": 58.4522,
      "duration": 0.0931,
      "velocity": 127,
      "chip": "ym2612"
    },
    {
      "channel": 3,
      "note": 78,
      "start": 58.5494,
      "duration": 0.0983,
      "velocity": 83,
      "chip": "ym2612"
    },
    {
      "channel": 4,
      "note": 73,
      "start": 58.5502,
      "duration": 0.0978,
      "velocity": 83,
      "chip": "ym2612"
    },
    {
      "channel": 5,
      "note": 71,
      "start": 58.551,
      "duration": 0.0974,
      "velocity": 83,
      "chip": "ym2612"
    },
    {
      "channel": 2,
      "note": 37,
      "start": 58.5517,
      "duration": 0.0557,
      "velocity": 120,
      "chip": "ym2612"
    },
    {
      "channel": 0,
      "note": 85,
      "start": 58.6468,
      "duration": 0.2006,
      "velocity": 106,
      "chip": "ym2612"
    },
    {
      "channel": 1,
      "note": 51,
      "start": 58.6476,
      "duration": 0.1023,
      "velocity": 97,
      "chip": "ym2612"
    },
    {
      "channel": 3,
      "note": 75,
      "start": 58.7508,
      "duration": 0.0983,
      "velocity": 83,
      "chip": "ym2612"
    },
    {
      "channel": 4,
      "note": 73,
      "start": 58.7515,
      "duration": 0.0983,
      "velocity": 83,
      "chip": "ym2612"
    },
    {
      "channel": 5,
      "note": 71,
      "start": 58.7523,
      "duration": 0.0983,
      "velocity": 83,
      "chip": "ym2612"
    },
    {
      "channel": 2,
      "note": 37,
      "start": 58.753,
      "duration": 0.0558,
      "velocity": 120,
      "chip": "ym2612"
    },
    {
      "channel": 0,
      "note": 90,
      "start": 58.8482,
      "duration": 0.2032,
      "velocity": 106,
      "chip": "ym2612"
    },
    {
      "channel": 1,
      "note": 52,
      "start": 58.8489,
      "duration": 0.1023,
      "velocity": 97,
      "chip": "ym2612"
    },
    {
      "channel": 3,
      "note": 78,
      "start": 58.8497,
      "duration": 0.1018,
      "velocity": 83,
      "chip": "ym2612"
    },
    {
      "channel": 4,
      "note": 73,
      "start": 58.8504,
      "duration": 0.1015,
      "velocity": 83,
      "chip": "ym2612"
    },
    {
      "channel": 5,
      "note": 71,
      "start": 58.8511,
      "duration": 0.101,
      "velocity": 83,
      "chip": "ym2612"
    },
    {
      "channel": 2,
      "note": 37,
      "start": 58.9531,
      "duration": 0.0549,
      "velocity": 120,
      "chip": "ym2612"
    },
    {
      "channel": 0,
      "note": 87,
      "start": 59.0522,
      "duration": 0.0973,
      "velocity": 106,
      "chip": "ym2612"
    },
    {
      "channel": 1,
      "note": 51,
      "start": 59.0529,
      "duration": 0.0975,
      "velocity": 97,
      "chip": "ym2612"
    },
    {
      "channel": 3,
      "note": 75,
      "start": 59.0536,
      "duration": 0.097,
      "velocity": 83,
      "chip": "ym2612"
    },
    {
      "channel": 4,
      "note": 73,
      "start": 59.0544,
      "duration": 0.0966,
      "velocity": 83,
      "chip": "ym2612"
    },
    {
      "channel": 5,
      "note": 71,
      "start": 59.0567,
      "duration": 0.0945,
      "velocity": 83,
      "chip": "ym2612"
    },
    {
      "channel": 2,
      "note": 37,
      "start": 59.0574,
      "duration": 0.052,
      "velocity": 120,
      "chip": "ym2612"
    },
    {
      "channel": 0,
      "note": 88,
      "start": 59.1502,
      "duration": 0.2006,
      "velocity": 106,
      "chip": "ym2612"
    },
    {
      "channel": 1,
      "note": 52,
      "start": 59.2541,
      "duration": 0.0977,
      "velocity": 97,
      "chip": "ym2612"
    },
    {
      "channel": 3,
      "note": 77,
      "start": 59.2548,
      "duration": 0.4031,
      "velocity": 83,
      "chip": "ym2612"
    },
    {
      "channel": 4,
      "note": 73,
      "start": 59.2572,
      "duration": 0.4015,
      "velocity": 83,
      "chip": "ym2612"
    },
    {
      "channel": 5,
      "note": 71,
      "start": 59.258,
      "duration": 0.4015,
      "velocity": 83,
      "chip": "ym2612"
    },
    {
      "channel": 2,
      "note": 82,
      "start": 59.259,
      "duration": 0.1021,
      "velocity": 127,
      "chip": "ym2612"
    },
    {
      "channel": 0,
      "note": 85,
      "start": 59.3515,
      "duration": 0.2033,
      "velocity": 106,
      "chip": "ym2612"
    },
    {
      "channel": 1,
      "note": 54,
      "start": 59.3523,
      "duration": 0.1023,
      "velocity": 97,
      "chip": "ym2612"
    },
    {
      "channel": 2,
      "note": 37,
      "start": 59.4581,
      "duration": 0.0538,
      "velocity": 120,
      "chip": "ym2612"
    },
    {
      "channel": 0,
      "note": 85,
      "start": 59.5572,
      "duration": 0.0999,
      "velocity": 106,
      "chip": "ym2612"
    },
    {
      "channel": 1,
      "note": 49,
      "start": 59.5579,
      "duration": 0.0997,
      "velocity": 97,
      "chip": "ym2612"
    },
    {
      "channel": 2,
      "note": 82,
      "start": 59.56,
      "duration": 0.0926,
      "velocity": 127,
      "chip": "ym2612"
    },
    {
      "channel": 3,
      "note": 78,
      "start": 59.6585,
      "duration": 0.2007,
      "velocity": 83,
      "chip": "ym2612"
    },
    {
      "channel": 4,
      "note": 73,
      "start": 59.6593,
      "duration": 0.2006,
      "velocity": 83,
      "chip": "ym2612"
    },
    {
      "channel": 5,
      "note": 71,
      "start": 59.66,
      "duration": 0.2004,
      "velocity": 83,
      "chip": "ym2612"
    },
    {
      "channel": 2,
      "note": 37,
      "start": 59.6607,
      "duration": 0.052,
      "velocity": 120,
      "chip": "ym2612"
    },
    {
      "channel": 0,
      "note": 90,
      "start": 59.7543,
      "duration": 0.2048,
      "velocity": 106,
      "chip": "ym2612"
    },
    {
      "channel": 1,
      "note": 54,
      "start": 59.755,
      "duration": 0.1039,
      "velocity": 97,
      "chip": "ym2612"
    },
    {
      "channel": 3,
      "note": 78,
      "start": 59.8597,
      "duration": 0.1011,
      "velocity": 83,
      "chip": "ym2612"
    },
    {
      "channel": 4,
      "note": 73,
      "start": 59.8603,
      "duration": 0.101,
      "velocity": 83,
      "chip": "ym2612"
    },
    {
      "channel": 5,
      "note": 71,
      "start": 59.8609,
      "duration": 0.1012,
      "velocity": 83,
      "chip": "ym2612"
    },
    {
      "channel": 2,
      "note": 37,
      "start": 59.8616,
      "duration": 0.0529,
      "velocity": 120,
      "chip": "ym2612"
    },
    {
      "channel": 0,
      "note": 87,
      "start": 59.9599,
      "duration": 0.0999,
      "velocity": 106,
      "chip": "ym2612"
    },
    {
      "channel": 1,
      "note": 49,
      "start": 59.9606,
      "duration": 0.1,
      "velocity": 97,
      "chip": "ym2612"
    },
    {
      "channel": 3,
      "note": 78,
      "start": 59.9612,
      "duration": 0.1001,
      "velocity": 83,
      "chip": "ym2612"
    },
    {
      "channel": 4,
      "note": 73,
      "start": 59.962,
      "duration": 0.1001,
      "velocity": 83,
      "chip": "ym2612"
    },
    {
      "channel": 5,
      "note": 71,
      "start": 59.9627,
      "duration": 0.1002,
      "velocity": 83,
      "chip": "ym2612"
    },
    {
      "channel": 2,
      "note": 37,
      "start": 59.9634,
      "duration": 0.0519,
      "velocity": 120,
      "chip": "ym2612"
    },
    {
      "channel": 0,
      "note": 88,
      "start": 60.0605,
      "duration": 0.1968,
      "velocity": 106,
      "chip": "ym2612"
    },
    {
      "channel": 1,
      "note": 52,
      "start": 60.0612,
      "duration": 0.0992,
      "velocity": 97,
      "chip": "ym2612"
    },
    {
      "channel": 3,
      "note": 75,
      "start": 60.062,
      "duration": 0.0987,
      "velocity": 83,
      "chip": "ym2612"
    },
    {
      "channel": 4,
      "note": 73,
      "start": 60.0627,
      "duration": 0.0987,
      "velocity": 83,
      "chip": "ym2612"
    },
    {
      "channel": 5,
      "note": 71,
      "start": 60.0634,
      "duration": 0.0988,
      "velocity": 83,
      "chip": "ym2612"
    },
    {
      "channel": 2,
      "note": 82,
      "start": 60.0645,
      "duration": 0.0926,
      "velocity": 127,
      "chip": "ym2612"
    },
    {
      "channel": 3,
      "note": 78,
      "start": 60.1613,
      "duration": 0.0976,
      "velocity": 83,
      "chip": "ym2612"
    },
    {
      "channel": 4,
      "note": 73,
      "start": 60.1621,
      "duration": 0.0976,
      "velocity": 83,
      "chip": "ym2612"
    },
    {
      "channel": 5,
      "note": 71,
      "start": 60.1628,
      "duration": 0.0976,
      "velocity": 83,
      "chip": "ym2612"
    },
    {
      "channel": 2,
      "note": 37,
      "start": 60.1635,
      "duration": 0.0529,
      "velocity": 120,
      "chip": "ym2612"
    },
    {
      "channel": 0,
      "note": 85,
      "start": 60.258,
      "duration": 0.2002,
      "velocity": 106,
      "chip": "ym2612"
    },
    {
      "channel": 1,
      "note": 51,
      "start": 60.2588,
      "duration": 0.1022,
      "velocity": 97,
      "chip": "ym2612"
    },
    {
      "channel": 3,
      "note": 75,
      "start": 60.2595,
      "duration": 0.1018,
      "velocity": 83,
      "chip": "ym2612"
    },
    {
      "channel": 4,
      "note": 73,
      "start": 60.2602,
      "duration": 0.1018,
      "velocity": 83,
      "chip": "ym2612"
    },
    {
      "channel": 5,
      "note": 71,
      "start": 60.261,
      "duration": 0.1018,
      "velocity": 83,
      "chip": "ym2612"
    },
    {
      "channel": 3,
      "note": 75,
      "start": 60.3619,
      "duration": 0.0979,
      "velocity": 83,
      "chip": "ym2612"
    },
    {
      "channel": 4,
      "note": 73,
      "start": 60.3627,
      "duration": 0.0979,
      "velocity": 83,
      "chip": "ym2612"
    },
    {
      "channel": 5,
      "note": 71,
      "start": 60.3634,
      "duration": 0.098,
      "velocity": 83,
      "chip": "ym2612"
    },
    {
      "channel": 2,
      "note": 37,
      "start": 60.3641,
      "duration": 0.0536,
      "velocity": 120,
      "chip": "ym2612"
    },
    {
      "channel": 0,
      "note": 90,
      "start": 60.459,
      "duration": 0.1025,
      "velocity": 106,
      "chip": "ym2612"
    },
    {
      "channel": 1,
      "note": 52,
      "start": 60.4597,
      "duration": 0.1027,
      "velocity": 97,
      "chip": "ym2612"
    },
    {
      "channel": 3,
      "note": 78,
      "start": 60.4604,
      "duration": 0.1022,
      "velocity": 83,
      "chip": "ym2612"
    },
    {
      "channel": 4,
      "note": 73,
      "start": 60.4611,
      "duration": 0.1018,
      "velocity": 83,
      "chip": "ym2612"
    },
    {
      "channel": 5,
      "note": 71,
      "start": 60.4619,
      "duration": 0.1014,
      "velocity": 83,
      "chip": "ym2612"
    },
    {
      "channel": 0,
      "note": 87,
      "start": 60.5622,
      "duration": 0.1,
      "velocity": 106,
      "chip": "ym2612"
    },
    {
      "channel": 2,
      "note": 37,
      "start": 60.5642,
      "duration": 0.0545,
      "velocity": 120,
      "chip": "ym2612"
    },
    {
      "channel": 0,
      "note": 88,
      "start": 60.6629,
      "duration": 0.0973,
      "velocity": 106,
      "chip": "ym2612"
    },
    {
      "channel": 1,
      "note": 51,
      "start": 60.6636,
      "duration": 0.0975,
      "velocity": 97,
      "chip": "ym2612"
    },
    {
      "channel": 3,
      "note": 75,
      "start": 60.6644,
      "duration": 0.097,
      "velocity": 83,
      "chip": "ym2612"
    },
    {
      "channel": 4,
      "note": 73,
      "start": 60.6651,
      "duration": 0.0966,
      "velocity": 83,
      "chip": "ym2612"
    },
    {
      "channel": 5,
      "note": 71,
      "start": 60.6659,
      "duration": 0.0961,
      "velocity": 83,
      "chip": "ym2612"
    },
    {
      "channel": 2,
      "note": 37,
      "start": 60.6666,
      "duration": 0.0534,
      "velocity": 120,
      "chip": "ym2612"
    },
    {
      "channel": 0,
      "note": 85,
      "start": 60.7609,
      "duration": 0.2033,
      "velocity": 106,
      "chip": "ym2612"
    },
    {
      "channel": 1,
      "note": 52,
      "start": 60.8645,
      "duration": 0.1006,
      "velocity": 97,
      "chip": "ym2612"
    },
    {
      "channel": 3,
      "note": 77,
      "start": 60.8653,
      "duration": 0.4046,
      "velocity": 83,
      "chip": "ym2612"
    },
    {
      "channel": 4,
      "note": 72,
      "start": 60.8661,
      "duration": 0.4088,
      "velocity": 83,
      "chip": "ym2612"
    },
    {
      "channel": 5,
      "note": 70,
      "start": 60.8668,
      "duration": 0.4115,
      "velocity": 83,
      "chip": "ym2612"
    },
    {
      "channel": 2,
      "note": 82,
      "start": 60.8679,
      "duration": 0.0935,
      "velocity": 127,
      "chip": "ym2612"
    },
    {
      "channel": 0,
      "note": 89,
      "start": 60.9649,
      "duration": 0.3014,
      "velocity": 106,
      "chip": "ym2612"
    },
    {
      "channel": 1,
      "note": 54,
      "start": 60.9656,
      "duration": 0.0997,
      "velocity": 97,
      "chip": "ym2612"
    },
    {
      "channel": 2,
      "note": 82,
      "start": 60.9678,
      "duration": 0.0943,
      "velocity": 127,
      "chip": "ym2612"
    },
    {
      "channel": 1,
      "note": 48,
      "start": 61.0659,
      "duration": 0.1001,
      "velocity": 97,
      "chip": "ym2612"
    },
    {
      "channel": 2,
      "note": 82,
      "start": 61.0679,
      "duration": 0.0948,
      "velocity": 127,
      "chip": "ym2612"
    },
    {
      "channel": 1,
      "note": 48,
      "start": 61.1665,
      "duration": 0.1002,
      "velocity": 97,
      "chip": "ym2612"
    },
    {
      "channel": 2,
      "note": 82,
      "start": 61.1686,
      "duration": 0.0948,
      "velocity": 127,
      "chip": "ym2612"
    },
    {
      "channel": 3,
      "note": 79,
      "start": 61.2705,
      "duration": 0.2077,
      "velocity": 83,
      "chip": "ym2612"
    },
    {
      "channel": 4,
      "note": 74,
      "start": 61.2756,
      "duration": 0.2032,
      "velocity": 83,
      "chip": "ym2612"
    },
    {
      "channel": 5,
      "note": 72,
      "start": 61.279,
      "duration": 0.2004,
      "velocity": 83,
      "chip": "ym2612"
    },
    {
      "channel": 2,
      "note": 37,
      "start": 61.2797,
      "duration": 0.0522,
      "velocity": 120,
      "chip": "ym2612"
    },
    {
      "channel": 1,
      "note": 55,
      "start": 61.3773,
      "duration": 0.1002,
      "velocity": 97,
      "chip": "ym2612"
    },
    {
      "channel": 2,
      "note": 37,
      "start": 61.3791,
      "duration": 0.0536,
      "velocity": 120,
      "chip": "ym2612"
    },
    {
      "channel": 0,
      "note": 86,
      "start": 61.4773,
      "duration": 0.0993,
      "velocity": 106,
      "chip": "ym2612"
    },
    {
      "channel": 1,
      "note": 50,
      "start": 61.478,
      "duration": 0.0994,
      "velocity": 97,
      "chip": "ym2612"
    },
    {
      "channel": 3,
      "note": 79,
      "start": 61.4787,
      "duration": 0.0991,
      "velocity": 83,
      "chip": "ym2612"
    },
    {
      "channel": 4,
      "note": 74,
      "start": 61.4793,
      "duration": 0.0992,
      "velocity": 83,
      "chip": "ym2612"
    },
    {
      "channel": 5,
      "note": 72,
      "start": 61.4798,
      "duration": 0.0994,
      "velocity": 83,
      "chip": "ym2612"
    },
    {
      "channel": 2,
      "note": 37,
      "start": 61.4806,
      "duration": 0.0532,
      "velocity": 120,
      "chip": "ym2612"
    },
    {
      "channel": 0,
      "note": 89,
      "start": 61.5773,
      "duration": 0.0999,
      "velocity": 106,
      "chip": "ym2612"
    },
    {
      "channel": 3,
      "note": 79,
      "start": 61.5783,
      "duration": 0.1006,
      "velocity": 83,
      "chip": "ym2612"
    },
    {
      "channel": 4,
      "note": 74,
      "start": 61.579,
      "duration": 0.1006,
      "velocity": 83,
      "chip": "ym2612"
    },
    {
      "channel": 5,
      "note": 72,
      "start": 61.5798,
      "duration": 0.1006,
      "velocity": 83,
      "chip": "ym2612"
    },
    {
      "channel": 2,
      "note": 37,
      "start": 61.5805,
      "duration": 0.0537,
      "velocity": 120,
      "chip": "ym2612"
    },
    {
      "channel": 0,
      "note": 91,
      "start": 61.678,
      "duration": 0.0999,
      "velocity": 106,
      "chip": "ym2612"
    },
    {
      "channel": 1,
      "note": 53,
      "start": 61.6787,
      "duration": 0.1001,
      "velocity": 97,
      "chip": "ym2612"
    },
    {
      "channel": 3,
      "note": 77,
      "start": 61.6795,
      "duration": 0.0997,
      "velocity": 83,
      "chip": "ym2612"
    },
    {
      "channel": 4,
      "note": 74,
      "start": 61.6802,
      "duration": 0.0997,
      "velocity": 83,
      "chip": "ym2612"
    },
    {
      "channel": 5,
      "note": 72,
      "start": 61.681,
      "duration": 0.0996,
      "velocity": 83,
      "chip": "ym2612"
    },
    {
      "channel": 2,
      "note": 82,
      "start": 61.682,
      "duration": 0.0931,
      "velocity": 127,
      "chip": "ym2612"
    },
    {
      "channel": 0,
      "note": 93,
      "start": 61.7787,
      "duration": 0.9053,
      "velocity": 106,
      "chip": "ym2612"
    },
    {
      "channel": 3,
      "note": 79,
      "start": 61.7797,
      "duration": 0.0974,
      "velocity": 83,
      "chip": "ym2612"
    },
    {
      "channel": 4,
      "note": 74,
      "start": 61.7805,
      "duration": 0.0969,
      "velocity": 83,
      "chip": "ym2612"
    },
    {
      "channel": 5,
      "note": 72,
      "start": 61.7812,
      "duration": 0.0965,
      "velocity": 83,
      "chip": "ym2612"
    },
    {
      "channel": 2,
      "note": 37,
      "start": 61.7819,
      "duration": 0.0536,
      "velocity": 120,
      "chip": "ym2612"
    },
    {
      "channel": 1,
      "note": 50,
      "start": 61.877,
      "duration": 0.1028,
      "velocity": 97,
      "chip": "ym2612"
    },
    {
      "channel": 3,
      "note": 77,
      "start": 61.9807,
      "duration": 0.0978,
      "velocity": 83,
      "chip": "ym2612"
    },
    {
      "channel": 4,
      "note": 74,
      "start": 61.9814,
      "duration": 0.0978,
      "velocity": 83,
      "chip": "ym2612"
    },
    {
      "channel": 5,
      "note": 72,
      "start": 61.9822,
      "duration": 0.0978,
      "velocity": 83,
      "chip": "ym2612"
    },
    {
      "channel": 2,
      "note": 37,
      "start": 61.9829,
      "duration": 0.0539,
      "velocity": 120,
      "chip": "ym2612"
    },
    {
      "channel": 1,
      "note": 55,
      "start": 62.0784,
      "duration": 0.1029,
      "velocity": 97,
      "chip": "ym2612"
    },
    {
      "channel": 3,
      "note": 79,
      "start": 62.0791,
      "duration": 0.1025,
      "velocity": 83,
      "chip": "ym2612"
    },
    {
      "channel": 4,
      "note": 74,
      "start": 62.0798,
      "duration": 0.102,
      "velocity": 83,
      "chip": "ym2612"
    },
    {
      "channel": 5,
      "note": 72,
      "start": 62.0806,
      "duration": 0.1016,
      "velocity": 83,
      "chip": "ym2612"
    },
    {
      "channel": 2,
      "note": 37,
      "start": 62.1831,
      "duration": 0.0544,
      "velocity": 120,
      "chip": "ym2612"
    },
    {
      "channel": 1,
      "note": 50,
      "start": 62.2824,
      "duration": 0.0974,
      "velocity": 97,
      "chip": "ym2612"
    },
    {
      "channel": 3,
      "note": 77,
      "start": 62.2831,
      "duration": 0.097,
      "velocity": 83,
      "chip": "ym2612"
    },
    {
      "channel": 4,
      "note": 74,
      "start": 62.2838,
      "duration": 0.0966,
      "velocity": 83,
      "chip": "ym2612"
    },
    {
      "channel": 5,
      "note": 72,
      "start": 62.2846,
      "duration": 0.0961,
      "velocity": 83,
      "chip": "ym2612"
    },
    {
      "channel": 2,
      "note": 37,
      "start": 62.2853,
      "duration": 0.0554,
      "velocity": 120,
      "chip": "ym2612"
    },
    {
      "channel": 1,
      "note": 53,
      "start": 62.4837,
      "duration": 0.0974,
      "velocity": 97,
      "chip": "ym2612"
    },
    {
      "channel": 3,
      "note": 79,
      "start": 62.4844,
      "duration": 0.4018,
      "velocity": 83,
      "chip": "ym2612"
    },
    {
      "channel": 4,
      "note": 74,
      "start": 62.4852,
      "duration": 0.4019,
      "velocity": 83,
      "chip": "ym2612"
    },
    {
      "channel": 5,
      "note": 72,
      "start": 62.4859,
      "duration": 0.4018,
      "velocity": 83,
      "chip": "ym2612"
    },
    {
      "channel": 2,
      "note": 82,
      "start": 62.487,
      "duration": 0.1055,
      "velocity": 127,
      "chip": "ym2612"
    },
    {
      "channel": 1,
      "note": 50,
      "start": 62.5816,
      "duration": 0.2039,
      "velocity": 97,
      "chip": "ym2612"
    },
    {
      "channel": 0,
      "note": 91,
      "start": 62.6847,
      "duration": 0.0998,
      "velocity": 106,
      "chip": "ym2612"
    },
    {
      "channel": 2,
      "note": 37,
      "start": 62.6868,
      "duration": 0.0557,
      "velocity": 120,
      "chip": "ym2612"
    },
    {
      "channel": 0,
      "note": 93,
      "start": 62.7853,
      "duration": 0.7013,
      "velocity": 106,
      "chip": "ym2612"
    },
    {
      "channel": 1,
      "note": 50,
      "start": 62.7859,
      "duration": 0.0999,
      "velocity": 97,
      "chip": "ym2612"
    },
    {
      "channel": 2,
      "note": 82,
      "start": 62.788,
      "duration": 0.0945,
      "velocity": 127,
      "chip": "ym2612"
    },
    {
      "channel": 3,
      "note": 79,
      "start": 62.8868,
      "duration": 0.201,
      "velocity": 83,
      "chip": "ym2612"
    },
    {
      "channel": 4,
      "note": 74,
      "start": 62.8876,
      "duration": 0.2009,
      "velocity": 83,
      "chip": "ym2612"
    },
    {
      "channel": 5,
      "note": 72,
      "start": 62.8884,
      "duration": 0.2023,
      "velocity": 83,
      "chip": "ym2612"
    },
    {
      "channel": 2,
      "note": 37,
      "start": 62.8907,
      "duration": 0.0522,
      "velocity": 120,
      "chip": "ym2612"
    },
    {
      "channel": 1,
      "note": 55,
      "start": 62.9844,
      "duration": 0.1027,
      "velocity": 97,
      "chip": "ym2612"
    },
    {
      "channel": 1,
      "note": 50,
      "start": 63.0877,
      "duration": 0.1001,
      "velocity": 97,
      "chip": "ym2612"
    },
    {
      "channel": 3,
      "note": 79,
      "start": 63.0883,
      "duration": 0.0998,
      "velocity": 83,
      "chip": "ym2612"
    },
    {
      "channel": 4,
      "note": 74,
      "start": 63.0905,
      "duration": 0.0999,
      "velocity": 83,
      "chip": "ym2612"
    },
    {
      "channel": 5,
      "note": 72,
      "start": 63.0911,
      "duration": 0.0999,
      "velocity": 83,
      "chip": "ym2612"
    },
    {
      "channel": 2,
      "note": 37,
      "start": 63.0918,
      "duration": 0.0527,
      "velocity": 120,
      "chip": "ym2612"
    },
    {
      "channel": 3,
      "note": 79,
      "start": 63.1901,
      "duration": 0.1009,
      "velocity": 83,
      "chip": "ym2612"
    },
    {
      "channel": 4,
      "note": 74,
      "start": 63.1909,
      "duration": 0.1009,
      "velocity": 83,
      "chip": "ym2612"
    },
    {
      "channel": 5,
      "note": 72,
      "start": 63.1917,
      "duration": 0.1009,
      "velocity": 83,
      "chip": "ym2612"
    },
    {
      "channel": 2,
      "note": 37,
      "start": 63.1924,
      "duration": 0.0525,
      "velocity": 120,
      "chip": "ym2612"
    },
    {
      "channel": 1,
      "note": 53,
      "start": 63.2909,
      "duration": 0.0998,
      "velocity": 97,
      "chip": "ym2612"
    },
    {
      "channel": 3,
      "note": 77,
      "start": 63.2917,
      "duration": 0.0994,
      "velocity": 83,
      "chip": "ym2612"
    },
    {
      "channel": 4,
      "note": 74,
      "start": 63.2924,
      "duration": 0.0994,
      "velocity": 83,
      "chip": "ym2612"
    },
    {
      "channel": 5,
      "note": 72,
      "start": 63.2931,
      "duration": 0.0994,
      "velocity": 83,
      "chip": "ym2612"
    },
    {
      "channel": 2,
      "note": 82,
      "start": 63.2942,
      "duration": 0.0916,
      "velocity": 127,
      "chip": "ym2612"
    },
    {
      "channel": 3,
      "note": 79,
      "start": 63.3916,
      "duration": 0.0966,
      "velocity": 83,
      "chip": "ym2612"
    },
    {
      "channel": 4,
      "note": 74,
      "start": 63.3924,
      "duration": 0.0982,
      "velocity": 83,
      "chip": "ym2612"
    },
    {
      "channel": 5,
      "note": 72,
      "start": 63.3931,
      "duration": 0.0982,
      "velocity": 83,
      "chip": "ym2612"
    },
    {
      "channel": 2,
      "note": 37,
      "start": 63.3938,
      "duration": 0.0524,
      "velocity": 120,
      "chip": "ym2612"
    },
    {
      "channel": 0,
      "note": 91,
      "start": 63.4874,
      "duration": 0.1041,
      "velocity": 106,
      "chip": "ym2612"
    },
    {
      "channel": 1,
      "note": 50,
      "start": 63.4881,
      "duration": 0.1044,
      "velocity": 97,
      "chip": "ym2612"
    },
    {
      "channel": 3,
      "note": 77,
      "start": 63.4905,
      "duration": 0.1024,
      "velocity": 83,
      "chip": "ym2612"
    },
    {
      "channel": 4,
      "note": 74,
      "start": 63.4912,
      "duration": 0.1023,
      "velocity": 83,
      "chip": "ym2612"
    },
    {
      "channel": 5,
      "note": 72,
      "start": 63.4919,
      "duration": 0.1023,
      "velocity": 83,
      "chip": "ym2612"
    },
    {
      "channel": 0,
      "note": 93,
      "start": 63.5923,
      "duration": 0.501,
      "velocity": 106,
      "chip": "ym2612"
    },
    {
      "channel": 3,
      "note": 77,
      "start": 63.5934,
      "duration": 0.0975,
      "velocity": 83,
      "chip": "ym2612"
    },
    {
      "channel": 4,
      "note": 74,
      "start": 63.5941,
      "duration": 0.0975,
      "velocity": 83,
      "chip": "ym2612"
    },
    {
      "channel": 5,
      "note": 72,
      "start": 63.5949,
      "duration": 0.0974,
      "velocity": 83,
      "chip": "ym2612"
    },
    {
      "channel": 2,
      "note": 37,
      "start": 63.5956,
      "duration": 0.052,
      "velocity": 120,
      "chip": "ym2612"
    },
    {
      "channel": 1,
      "note": 55,
      "start": 63.6907,
      "duration": 0.1027,
      "velocity": 97,
      "chip": "ym2612"
    },
    {
      "channel": 3,
      "note": 79,
      "start": 63.6914,
      "duration": 0.1023,
      "velocity": 83,
      "chip": "ym2612"
    },
    {
      "channel": 4,
      "note": 74,
      "start": 63.6922,
      "duration": 0.1018,
      "velocity": 83,
      "chip": "ym2612"
    },
    {
      "channel": 5,
      "note": 72,
      "start": 63.6929,
      "duration": 0.1014,
      "velocity": 83,
      "chip": "ym2612"
    },
    {
      "channel": 2,
      "note": 37,
      "start": 63.7952,
      "duration": 0.0529,
      "velocity": 120,
      "chip": "ym2612"
    },
    {
      "channel": 1,
      "note": 50,
      "start": 63.8943,
      "duration": 0.0968,
      "velocity": 97,
      "chip": "ym2612"
    },
    {
      "channel": 3,
      "note": 77,
      "start": 63.8951,
      "duration": 0.0963,
      "velocity": 83,
      "chip": "ym2612"
    },
    {
      "channel": 4,
      "note": 74,
      "start": 63.8959,
      "duration": 0.0959,
      "velocity": 83,
      "chip": "ym2612"
    },
    {
      "channel": 5,
      "note": 72,
      "start": 63.8966,
      "duration": 0.0955,
      "velocity": 83,
      "chip": "ym2612"
    },
    {
      "channel": 2,
      "note": 37,
      "start": 63.8973,
      "duration": 0.0525,
      "velocity": 120,
      "chip": "ym2612"
    },
    {
      "channel": 0,
      "note": 94,
      "start": 64.094,
      "duration": 0.0973,
      "velocity": 106,
      "chip": "ym2612"
    },
    {
      "channel": 1,
      "note": 53,
      "start": 64.0947,
      "duration": 0.0975,
      "velocity": 97,
      "chip": "ym2612"
    },
    {
      "channel": 3,
      "note": 79,
      "start": 64.0955,
      "duration": 0.4041,
      "velocity": 83,
      "chip": "ym2612"
    },
    {
      "channel": 4,
      "note": 74,
      "start": 64.0962,
      "duration": 0.4068,
      "velocity": 83,
      "chip": "ym2612"
    },
    {
      "channel": 5,
      "note": 72,
      "start": 64.097,
      "duration": 0.4111,
      "velocity": 83,
      "chip": "ym2612"
    },
    {
      "channel": 2,
      "note": 82,
      "start": 64.0981,
      "duration": 0.1035,
      "velocity": 127,
      "chip": "ym2612"
    },
    {
      "channel": 0,
      "note": 93,
      "start": 64.192,
      "duration": 0.1027,
      "velocity": 106,
      "chip": "ym2612"
    },
    {
      "channel": 1,
      "note": 50,
      "start": 64.1928,
      "duration": 0.2034,
      "velocity": 97,
      "chip": "ym2612"
    },
    {
      "channel": 0,
      "note": 91,
      "start": 64.2954,
      "duration": 0.0999,
      "velocity": 106,
      "chip": "ym2612"
    },
    {
      "channel": 2,
      "note": 37,
      "start": 64.2975,
      "duration": 0.055,
      "velocity": 120,
      "chip": "ym2612"
    },
    {
      "channel": 0,
      "note": 89,
      "start": 64.3961,
      "duration": 0.7112,
      "velocity": 106,
      "chip": "ym2612"
    },
    {
      "channel": 1,
      "note": 50,
      "start": 64.3967,
      "duration": 0.0999,
      "velocity": 97,
      "chip": "ym2612"
    },
    {
      "channel": 2,
      "note": 37,
      "start": 64.3984,
      "duration": 0.0548,
      "velocity": 120,
      "chip": "ym2612"
    },
    {
      "channel": 3,
      "note": 79,
      "start": 64.5002,
      "duration": 0.2084,
      "velocity": 83,
      "chip": "ym2612"
    },
    {
      "channel": 4,
      "note": 74,
      "start": 64.5036,
      "duration": 0.2056,
      "velocity": 83,
      "chip": "ym2612"
    },
    {
      "channel": 5,
      "note": 72,
      "start": 64.5087,
      "duration": 0.2011,
      "velocity": 83,
      "chip": "ym2612"
    },
    {
      "channel": 2,
      "note": 37,
      "start": 64.5094,
      "duration": 0.0526,
      "velocity": 120,
      "chip": "ym2612"
    },
    {
      "channel": 1,
      "note": 55,
      "start": 64.6077,
      "duration": 0.1002,
      "velocity": 97,
      "chip": "ym2612"
    },
    {
      "channel": 2,
      "note": 37,
      "start": 64.6094,
      "duration": 0.0535,
      "velocity": 120,
      "chip": "ym2612"
    },
    {
      "channel": 1,
      "note": 50,
      "start": 64.7085,
      "duration": 0.1001,
      "velocity": 97,
      "chip": "ym2612"
    },
    {
      "channel": 3,
      "note": 79,
      "start": 64.709,
      "duration": 0.0998,
      "velocity": 83,
      "chip": "ym2612"
    },
    {
      "channel": 4,
      "note": 74,
      "start": 64.7097,
      "duration": 0.0998,
      "velocity": 83,
      "chip": "ym2612"
    },
    {
      "channel": 5,
      "note": 72,
      "start": 64.7102,
      "duration": 0.0999,
      "velocity": 83,
      "chip": "ym2612"
    },
    {
      "channel": 2,
      "note": 37,
      "start": 64.711,
      "duration": 0.0526,
      "velocity": 120,
      "chip": "ym2612"
    },
    {
      "channel": 3,
      "note": 79,
      "start": 64.8093,
      "duration": 0.1007,
      "velocity": 83,
      "chip": "ym2612"
    },
    {
      "channel": 4,
      "note": 74,
      "start": 64.81,
      "duration": 0.1007,
      "velocity": 83,
      "chip": "ym2612"
    },
    {
      "channel": 5,
      "note": 72,
      "start": 64.8107,
      "duration": 0.1006,
      "velocity": 83,
      "chip": "ym2612"
    },
    {
      "channel": 2,
      "note": 37,
      "start": 64.8115,
      "duration": 0.0525,
      "velocity": 120,
      "chip": "ym2612"
    },
    {
      "channel": 1,
      "note": 53,
      "start": 64.9098,
      "duration": 0.1001,
      "velocity": 97,
      "chip": "ym2612"
    },
    {
      "channel": 3,
      "note": 77,
      "start": 64.9105,
      "duration": 0.0997,
      "velocity": 83,
      "chip": "ym2612"
    },
    {
      "channel": 4,
      "note": 74,
      "start": 64.9112,
      "duration": 0.0997,
      "velocity": 83,
      "chip": "ym2612"
    },
    {
      "channel": 5,
      "note": 72,
      "start": 64.912,
      "duration": 0.0996,
      "velocity": 83,
      "chip": "ym2612"
    },
    {
      "channel": 2,
      "note": 82,
      "start": 64.913,
      "duration": 0.0919,
      "velocity": 127,
      "chip": "ym2612"
    },
    {
      "channel": 3,
      "note": 79,
      "start": 65.0107,
      "duration": 0.0982,
      "velocity": 83,
      "chip": "ym2612"
    },
    {
      "channel": 4,
      "note": 74,
      "start": 65.0115,
      "duration": 0.0978,
      "velocity": 83,
      "chip": "ym2612"
    },
    {
      "channel": 5,
      "note": 72,
      "start": 65.0123,
      "duration": 0.0973,
      "velocity": 83,
      "chip": "ym2612"
    },
    {
      "channel": 2,
      "note": 37,
      "start": 65.013,
      "duration": 0.0524,
      "velocity": 120,
      "chip": "ym2612"
    },
    {
      "channel": 0,
      "note": 91,
      "start": 65.1081,
      "duration": 0.1019,
      "velocity": 106,
      "chip": "ym2612"
    },
    {
      "channel": 1,
      "note": 50,
      "start": 65.1088,
      "duration": 0.1021,
      "velocity": 97,
      "chip": "ym2612"
    },
    {
      "channel": 0,
      "note": 86,
      "start": 65.2107,
      "duration": 0.7031,
      "velocity": 106,
      "chip": "ym2612"
    },
    {
      "channel": 3,
      "note": 77,
      "start": 65.2118,
      "duration": 0.0968,
      "velocity": 83,
      "chip": "ym2612"
    },
    {
      "channel": 4,
      "note": 74,
      "start": 65.2125,
      "duration": 0.0967,
      "velocity": 83,
      "chip": "ym2612"
    },
    {
      "channel": 5,
      "note": 72,
      "start": 65.2133,
      "duration": 0.0967,
      "velocity": 83,
      "chip": "ym2612"
    },
    {
      "channel": 2,
      "note": 37,
      "start": 65.214,
      "duration": 0.0527,
      "velocity": 120,
      "chip": "ym2612"
    },
    {
      "channel": 1,
      "note": 55,
      "start": 65.3083,
      "duration": 0.1026,
      "velocity": 97,
      "chip": "ym2612"
    },
    {
      "channel": 3,
      "note": 79,
      "start": 65.3091,
      "duration": 0.1021,
      "velocity": 83,
      "chip": "ym2612"
    },
    {
      "channel": 4,
      "note": 74,
      "start": 65.3099,
      "duration": 0.1017,
      "velocity": 83,
      "chip": "ym2612"
    },
    {
      "channel": 5,
      "note": 72,
      "start": 65.3106,
      "duration": 0.1013,
      "velocity": 83,
      "chip": "ym2612"
    },
    {
      "channel": 2,
      "note": 37,
      "start": 65.4127,
      "duration": 0.0545,
      "velocity": 120,
      "chip": "ym2612"
    },
    {
      "channel": 1,
      "note": 50,
      "start": 65.5122,
      "duration": 0.0974,
      "velocity": 97,
      "chip": "ym2612"
    },
    {
      "channel": 3,
      "note": 77,
      "start": 65.5129,
      "duration": 0.097,
      "velocity": 83,
      "chip": "ym2612"
    },
    {
      "channel": 4,
      "note": 74,
      "start": 65.5136,
      "duration": 0.0966,
      "velocity": 83,
      "chip": "ym2612"
    },
    {
      "channel": 5,
      "note": 72,
      "start": 65.5144,
      "duration": 0.0962,
      "velocity": 83,
      "chip": "ym2612"
    },
    {
      "channel": 2,
      "note": 37,
      "start": 65.5151,
      "duration": 0.0539,
      "velocity": 120,
      "chip": "ym2612"
    },
    {
      "channel": 1,
      "note": 53,
      "start": 65.7134,
      "duration": 0.0975,
      "velocity": 97,
      "chip": "ym2612"
    },
    {
      "channel": 3,
      "note": 79,
      "start": 65.7142,
      "duration": 0.4018,
      "velocity": 83,
      "chip": "ym2612"
    },
    {
      "channel": 4,
      "note": 74,
      "start": 65.7149,
      "duration": 0.4018,
      "velocity": 83,
      "chip": "ym2612"
    },
    {
      "channel": 5,
      "note": 72,
      "start": 65.7157,
      "duration": 0.4018,
      "velocity": 83,
      "chip": "ym2612"
    },
    {
      "channel": 2,
      "note": 82,
      "start": 65.7168,
      "duration": 0.1038,
      "velocity": 127,
      "chip": "ym2612"
    },
    {
      "channel": 1,
      "note": 50,
      "start": 65.8115,
      "duration": 0.2039,
      "velocity": 97,
      "chip": "ym2612"
    },
    {
      "channel": 0,
      "note": 91,
      "start": 65.9145,
      "duration": 0.1,
      "velocity": 106,
      "chip": "ym2612"
    },
    {
      "channel": 2,
      "note": 37,
      "start": 65.9166,
      "duration": 0.055,
      "velocity": 120,
      "chip": "ym2612"
    },
    {
      "channel": 0,
      "note": 86,
      "start": 66.0151,
      "duration": 0.1982,
      "velocity": 106,
      "chip": "ym2612"
    },
    {
      "channel": 1,
      "note": 50,
      "start": 66.0158,
      "duration": 0.0999,
      "velocity": 97,
      "chip": "ym2612"
    },
    {
      "channel": 2,
      "note": 82,
      "start": 66.0178,
      "duration": 0.0945,
      "velocity": 127,
      "chip": "ym2612"
    },
    {
      "channel": 3,
      "note": 79,
      "start": 66.1166,
      "duration": 0.2014,
      "velocity": 83,
      "chip": "ym2612"
    },
    {
      "channel": 4,
      "note": 74,
      "start": 66.1174,
      "duration": 0.2012,
      "velocity": 83,
      "chip": "ym2612"
    },
    {
      "channel": 5,
      "note": 72,
      "start": 66.1181,
      "duration": 0.2011,
      "velocity": 83,
      "chip": "ym2612"
    },
    {
      "channel": 2,
      "note": 37,
      "start": 66.1189,
      "duration": 0.0555,
      "velocity": 120,
      "chip": "ym2612"
    },
    {
      "channel": 0,
      "note": 89,
      "start": 66.2141,
      "duration": 0.1024,
      "velocity": 106,
      "chip": "ym2612"
    },
    {
      "channel": 1,
      "note": 55,
      "start": 66.2148,
      "duration": 0.1024,
      "velocity": 97,
      "chip": "ym2612"
    },
    {
      "channel": 0,
      "note": 86,
      "start": 66.3171,
      "duration": 0.0999,
      "velocity": 106,
      "chip": "ym2612"
    },
    {
      "channel": 1,
      "note": 50,
      "start": 66.3178,
      "duration": 0.1001,
      "velocity": 97,
      "chip": "ym2612"
    },
    {
      "channel": 3,
      "note": 79,
      "start": 66.3184,
      "duration": 0.0998,
      "velocity": 83,
      "chip": "ym2612"
    },
    {
      "channel": 4,
      "note": 74,
      "start": 66.319,
      "duration": 0.0998,
      "velocity": 83,
      "chip": "ym2612"
    },
    {
      "channel": 5,
      "note": 72,
      "start": 66.3197,
      "duration": 0.0999,
      "velocity": 83,
      "chip": "ym2612"
    },
    {
      "channel": 2,
      "note": 37,
      "start": 66.3204,
      "duration": 0.0554,
      "velocity": 120,
      "chip": "ym2612"
    },
    {
      "channel": 0,
      "note": 91,
      "start": 66.4178,
      "duration": 0.1,
      "velocity": 106,
      "chip": "ym2612"
    },
    {
      "channel": 3,
      "note": 79,
      "start": 66.4187,
      "duration": 0.1006,
      "velocity": 83,
      "chip": "ym2612"
    },
    {
      "channel": 4,
      "note": 74,
      "start": 66.4195,
      "duration": 0.1006,
      "velocity": 83,
      "chip": "ym2612"
    },
    {
      "channel": 5,
      "note": 72,
      "start": 66.4202,
      "duration": 0.1006,
      "velocity": 83,
      "chip": "ym2612"
    },
    {
      "channel": 2,
      "note": 37,
      "start": 66.4209,
      "duration": 0.055,
      "velocity": 120,
      "chip": "ym2612"
    },
    {
      "channel": 0,
      "note": 86,
      "start": 66.5184,
      "duration": 0.198,
      "velocity": 106,
      "chip": "ym2612"
    },
    {
      "channel": 1,
      "note": 53,
      "start": 66.5192,
      "duration": 0.0998,
      "velocity": 97,
      "chip": "ym2612"
    },
    {
      "channel": 3,
      "note": 77,
      "start": 66.5199,
      "duration": 0.0994,
      "velocity": 83,
      "chip": "ym2612"
    },
    {
      "channel": 4,
      "note": 74,
      "start": 66.5207,
      "duration": 0.0994,
      "velocity": 83,
      "chip": "ym2612"
    },
    {
      "channel": 5,
      "note": 72,
      "start": 66.5214,
      "duration": 0.0993,
      "velocity": 83,
      "chip": "ym2612"
    },
    {
      "channel": 2,
      "note": 82,
      "start": 66.524,
      "duration": 0.0917,
      "velocity": 127,
      "chip": "ym2612"
    },
    {
      "channel": 3,
      "note": 79,
      "start": 66.6198,
      "duration": 0.0982,
      "velocity": 83,
      "chip": "ym2612"
    },
    {
      "channel": 4,
      "note": 74,
      "start": 66.6206,
      "duration": 0.0982,
      "velocity": 83,
      "chip": "ym2612"
    },
    {
      "channel": 5,
      "note": 72,
      "start": 66.6214,
      "duration": 0.0982,
      "velocity": 83,
      "chip": "ym2612"
    },
    {
      "channel": 2,
      "note": 37,
      "start": 66.6237,
      "duration": 0.0524,
      "velocity": 120,
      "chip": "ym2612"
    },
    {
      "channel": 0,
      "note": 91,
      "start": 66.7172,
      "duration": 1.0095,
      "velocity": 106,
      "chip": "ym2612"
    },
    {
      "channel": 1,
      "note": 50,
      "start": 66.7179,
      "duration": 0.1024,
      "velocity": 97,
      "chip": "ym2612"
    },
    {
      "channel": 3,
      "note": 77,
      "start": 66.7186,
      "duration": 0.1019,
      "velocity": 83,
      "chip": "ym2612"
    },
    {
      "channel": 4,
      "note": 74,
      "start": 66.7194,
      "duration": 0.1018,
      "velocity": 83,
      "chip": "ym2612"
    },
    {
      "channel": 5,
      "note": 72,
      "start": 66.7202,
      "duration": 0.1034,
      "velocity": 83,
      "chip": "ym2612"
    },
    {
      "channel": 3,
      "note": 77,
      "start": 66.8211,
      "duration": 0.0979,
      "velocity": 83,
      "chip": "ym2612"
    },
    {
      "channel": 4,
      "note": 74,
      "start": 66.8235,
      "duration": 0.0963,
      "velocity": 83,
      "chip": "ym2612"
    },
    {
      "channel": 5,
      "note": 72,
      "start": 66.8242,
      "duration": 0.0963,
      "velocity": 83,
      "chip": "ym2612"
    },
    {
      "channel": 2,
      "note": 37,
      "start": 66.8249,
      "duration": 0.0525,
      "velocity": 120,
      "chip": "ym2612"
    },
    {
      "channel": 1,
      "note": 57,
      "start": 66.9189,
      "duration": 0.1027,
      "velocity": 97,
      "chip": "ym2612"
    },
    {
      "channel": 3,
      "note": 79,
      "start": 66.9197,
      "duration": 0.1039,
      "velocity": 83,
      "chip": "ym2612"
    },
    {
      "channel": 4,
      "note": 74,
      "start": 66.9204,
      "duration": 0.1035,
      "velocity": 83,
      "chip": "ym2612"
    },
    {
      "channel": 5,
      "note": 72,
      "start": 66.9211,
      "duration": 0.1031,
      "velocity": 83,
      "chip": "ym2612"
    },
    {
      "channel": 2,
      "note": 37,
      "start": 67.0251,
      "duration": 0.0528,
      "velocity": 120,
      "chip": "ym2612"
    },
    {
      "channel": 1,
      "note": 55,
      "start": 67.1245,
      "duration": 0.0957,
      "velocity": 97,
      "chip": "ym2612"
    },
    {
      "channel": 3,
      "note": 77,
      "start": 67.1253,
      "duration": 0.0953,
      "velocity": 83,
      "chip": "ym2612"
    },
    {
      "channel": 4,
      "note": 74,
      "start": 67.1259,
      "duration": 0.0949,
      "velocity": 83,
      "chip": "ym2612"
    },
    {
      "channel": 5,
      "note": 72,
      "start": 67.1267,
      "duration": 0.0945,
      "velocity": 83,
      "chip": "ym2612"
    },
    {
      "channel": 2,
      "note": 37,
      "start": 67.1274,
      "duration": 0.0522,
      "velocity": 120,
      "chip": "ym2612"
    },
    {
      "channel": 1,
      "note": 53,
      "start": 67.3261,
      "duration": 0.0997,
      "velocity": 97,
      "chip": "ym2612"
    },
    {
      "channel": 3,
      "note": 79,
      "start": 67.3269,
      "duration": 0.4011,
      "velocity": 83,
      "chip": "ym2612"
    },
    {
      "channel": 4,
      "note": 74,
      "start": 67.3277,
      "duration": 0.4012,
      "velocity": 83,
      "chip": "ym2612"
    },
    {
      "channel": 5,
      "note": 72,
      "start": 67.3284,
      "duration": 0.4013,
      "velocity": 83,
      "chip": "ym2612"
    },
    {
      "channel": 2,
      "note": 82,
      "start": 67.3295,
      "duration": 0.0915,
      "velocity": 127,
      "chip": "ym2612"
    },
    {
      "channel": 1,
      "note": 50,
      "start": 67.4264,
      "duration": 0.2007,
      "velocity": 97,
      "chip": "ym2612"
    },
    {
      "channel": 2,
      "note": 82,
      "start": 67.4285,
      "duration": 0.0931,
      "velocity": 127,
      "chip": "ym2612"
    },
    {
      "channel": 2,
      "note": 82,
      "start": 67.5288,
      "duration": 0.0951,
      "velocity": 127,
      "chip": "ym2612"
    },
    {
      "channel": 1,
      "note": 50,
      "start": 67.6276,
      "duration": 0.1,
      "velocity": 97,
      "chip": "ym2612"
    },
    {
      "channel": 2,
      "note": 82,
      "start": 67.6296,
      "duration": 0.0942,
      "velocity": 127,
      "chip": "ym2612"
    },
    {
      "channel": 0,
      "note": 94,
      "start": 67.7274,
      "duration": 1.005,
      "velocity": 106,
      "chip": "ym2612"
    },
    {
      "channel": 3,
      "note": 82,
      "start": 67.7286,
      "duration": 0.1997,
      "velocity": 83,
      "chip": "ym2612"
    },
    {
      "channel": 4,
      "note": 77,
      "start": 67.7295,
      "duration": 0.1994,
      "velocity": 83,
      "chip": "ym2612"
    },
    {
      "channel": 5,
      "note": 75,
      "start": 67.7303,
      "duration": 0.1992,
      "velocity": 83,
      "chip": "ym2612"
    },
    {
      "channel": 2,
      "note": 37,
      "start": 67.731,
      "duration": 0.0524,
      "velocity": 120,
      "chip": "ym2612"
    },
    {
      "channel": 1,
      "note": 58,
      "start": 67.8276,
      "duration": 0.1,
      "velocity": 97,
      "chip": "ym2612"
    },
    {
      "channel": 2,
      "note": 37,
      "start": 67.8294,
      "duration": 0.055,
      "velocity": 120,
      "chip": "ym2612"
    },
    {
      "channel": 1,
      "note": 53,
      "start": 67.9281,
      "duration": 0.1002,
      "velocity": 97,
      "chip": "ym2612"
    },
    {
      "channel": 3,
      "note": 82,
      "start": 67.9288,
      "duration": 0.0999,
      "velocity": 83,
      "chip": "ym2612"
    },
    {
      "channel": 4,
      "note": 77,
      "start": 67.9293,
      "duration": 0.0999,
      "velocity": 83,
      "chip": "ym2612"
    },
    {
      "channel": 5,
      "note": 75,
      "start": 67.93,
      "duration": 0.1001,
      "velocity": 83,
      "chip": "ym2612"
    },
    {
      "channel": 2,
      "note": 37,
      "start": 67.9307,
      "duration": 0.0544,
      "velocity": 120,
      "chip": "ym2612"
    },
    {
      "channel": 3,
      "note": 82,
      "start": 68.0291,
      "duration": 0.1006,
      "velocity": 83,
      "chip": "ym2612"
    },
    {
      "channel": 4,
      "note": 77,
      "start": 68.0298,
      "duration": 0.1006,
      "velocity": 83,
      "chip": "ym2612"
    },
    {
      "channel": 5,
      "note": 75,
      "start": 68.0306,
      "duration": 0.1006,
      "velocity": 83,
      "chip": "ym2612"
    },
    {
      "channel": 2,
      "note": 37,
      "start": 68.0313,
      "duration": 0.0541,
      "velocity": 120,
      "chip": "ym2612"
    },
    {
      "channel": 1,
      "note": 55,
      "start": 68.1296,
      "duration": 0.1,
      "velocity": 97,
      "chip": "ym2612"
    },
    {
      "channel": 3,
      "note": 80,
      "start": 68.1303,
      "duration": 0.0995,
      "velocity": 83,
      "chip": "ym2612"
    },
    {
      "channel": 4,
      "note": 77,
      "start": 68.131,
      "duration": 0.0996,
      "velocity": 83,
      "chip": "ym2612"
    },
    {
      "channel": 5,
      "note": 75,
      "start": 68.1318,
      "duration": 0.0996,
      "velocity": 83,
      "chip": "ym2612"
    },
    {
      "channel": 2,
      "note": 82,
      "start": 68.1328,
      "duration": 0.0935,
      "velocity": 127,
      "chip": "ym2612"
    },
    {
      "channel": 3,
      "note": 82,
      "start": 68.2305,
      "duration": 0.0978,
      "velocity": 83,
      "chip": "ym2612"
    },
    {
      "channel": 4,
      "note": 77,
      "start": 68.2312,
      "duration": 0.0975,
      "velocity": 83,
      "chip": "ym2612"
    },
    {
      "channel": 5,
      "note": 75,
      "start": 68.232,
      "duration": 0.097,
      "velocity": 83,
      "chip": "ym2612"
    },
    {
      "channel": 2,
      "note": 37,
      "start": 68.2327,
      "duration": 0.054,
      "velocity": 120,
      "chip": "ym2612"
    },
    {
      "channel": 1,
      "note": 56,
      "start": 68.3282,
      "duration": 0.1027,
      "velocity": 97,
      "chip": "ym2612"
    },
    {
      "channel": 3,
      "note": 80,
      "start": 68.4318,
      "duration": 0.0979,
      "velocity": 83,
      "chip": "ym2612"
    },
    {
      "channel": 4,
      "note": 77,
      "start": 68.4326,
      "duration": 0.0979,
      "velocity": 83,
      "chip": "ym2612"
    },
    {
      "channel": 5,
      "note": 75,
      "start": 68.4333,
      "duration": 0.0979,
      "velocity": 83,
      "chip": "ym2612"
    },
    {
      "channel": 2,
      "note": 37,
      "start": 68.434,
      "duration": 0.054,
      "velocity": 120,
      "chip": "ym2612"
    },
    {
      "channel": 1,
      "note": 58,
      "start": 68.5296,
      "duration": 0.1027,
      "velocity": 97,
      "chip": "ym2612"
    },
    {
      "channel": 3,
      "note": 82,
      "start": 68.5303,
      "duration": 0.1023,
      "velocity": 83,
      "chip": "ym2612"
    },
    {
      "channel": 4,
      "note": 77,
      "start": 68.531,
      "duration": 0.1019,
      "velocity": 83,
      "chip": "ym2612"
    },
    {
      "channel": 5,
      "note": 75,
      "start": 68.5318,
      "duration": 0.1015,
      "velocity": 83,
      "chip": "ym2612"
    },
    {
      "channel": 2,
      "note": 37,
      "start": 68.6341,
      "duration": 0.0561,
      "velocity": 120,
      "chip": "ym2612"
    },
    {
      "channel": 0,
      "note": 93,
      "start": 68.7332,
      "duration": 0.0974,
      "velocity": 106,
      "chip": "ym2612"
    },
    {
      "channel": 1,
      "note": 53,
      "start": 68.734,
      "duration": 0.0975,
      "velocity": 97,
      "chip": "ym2612"
    },
    {
      "channel": 3,
      "note": 80,
      "start": 68.7347,
      "duration": 0.0975,
      "velocity": 83,
      "chip": "ym2612"
    },
    {
      "channel": 4,
      "note": 77,
      "start": 68.7354,
      "duration": 0.0971,
      "velocity": 83,
      "chip": "ym2612"
    },
    {
      "channel": 5,
      "note": 75,
      "start": 68.7362,
      "duration": 0.0966,
      "velocity": 83,
      "chip": "ym2612"
    },
    {
      "channel": 2,
      "note": 37,
      "start": 68.7369,
      "duration": 0.055,
      "velocity": 120,
      "chip": "ym2612"
    },
    {
      "channel": 0,
      "note": 94,
      "start": 68.8313,
      "duration": 0.1025,
      "velocity": 106,
      "chip": "ym2612"
    },
    {
      "channel": 1,
      "note": 55,
      "start": 68.8321,
      "duration": 0.1027,
      "velocity": 97,
      "chip": "ym2612"
    },
    {
      "channel": 0,
      "note": 96,
      "start": 68.9345,
      "duration": 0.0973,
      "velocity": 106,
      "chip": "ym2612"
    },
    {
      "channel": 3,
      "note": 82,
      "start": 68.9356,
      "duration": 0.4024,
      "velocity": 83,
      "chip": "ym2612"
    },
    {
      "channel": 4,
      "note": 77,
      "start": 68.9364,
      "duration": 0.4039,
      "velocity": 83,
      "chip": "ym2612"
    },
    {
      "channel": 5,
      "note": 75,
      "start": 68.9371,
      "duration": 0.404,
      "velocity": 83,
      "chip": "ym2612"
    },
    {
      "channel": 2,
      "note": 82,
      "start": 68.9382,
      "duration": 0.1042,
      "velocity": 127,
      "chip": "ym2612"
    },
    {
      "channel": 0,
      "note": 94,
      "start": 69.0326,
      "duration": 0.2032,
      "velocity": 106,
      "chip": "ym2612"
    },
    {
      "channel": 1,
      "note": 55,
      "start": 69.0334,
      "duration": 0.1022,
      "velocity": 97,
      "chip": "ym2612"
    },
    {
      "channel": 2,
      "note": 37,
      "start": 69.1375,
      "duration": 0.0553,
      "velocity": 120,
      "chip": "ym2612"
    },
    {
      "channel": 0,
      "note": 93,
      "start": 69.2366,
      "duration": 0.1001,
      "velocity": 106,
      "chip": "ym2612"
    },
    {
      "channel": 1,
      "note": 56,
      "start": 69.2373,
      "duration": 0.1004,
      "velocity": 97,
      "chip": "ym2612"
    },
    {
      "channel": 2,
      "note": 82,
      "start": 69.241,
      "duration": 0.0927,
      "velocity": 127,
      "chip": "ym2612"
    },
    {
      "channel": 0,
      "note": 94,
      "start": 69.3374,
      "duration": 0.9059,
      "velocity": 106,
      "chip": "ym2612"
    },
    {
      "channel": 3,
      "note": 82,
      "start": 69.3402,
      "duration": 0.2004,
      "velocity": 83,
      "chip": "ym2612"
    },
    {
      "channel": 4,
      "note": 77,
      "start": 69.341,
      "duration": 0.2002,
      "velocity": 83,
      "chip": "ym2612"
    },
    {
      "channel": 5,
      "note": 75,
      "start": 69.3417,
      "duration": 0.2001,
      "velocity": 83,
      "chip": "ym2612"
    },
    {
      "channel": 2,
      "note": 37,
      "start": 69.3425,
      "duration": 0.0516,
      "velocity": 120,
      "chip": "ym2612"
    },
    {
      "channel": 1,
      "note": 58,
      "start": 69.4356,
      "duration": 0.1027,
      "velocity": 97,
      "chip": "ym2612"
    },
    {
      "channel": 1,
      "note": 53,
      "start": 69.5405,
      "duration": 0.1001,
      "velocity": 97,
      "chip": "ym2612"
    },
    {
      "channel": 3,
      "note": 82,
      "start": 69.5411,
      "duration": 0.0999,
      "velocity": 83,
      "chip": "ym2612"
    },
    {
      "channel": 4,
      "note": 77,
      "start": 69.5417,
      "duration": 0.0999,
      "velocity": 83,
      "chip": "ym2612"
    },
    {
      "channel": 5,
      "note": 75,
      "start": 69.5423,
      "duration": 0.1,
      "velocity": 83,
      "chip": "ym2612"
    },
    {
      "channel": 2,
      "note": 37,
      "start": 69.543,
      "duration": 0.0527,
      "velocity": 120,
      "chip": "ym2612"
    },
    {
      "channel": 3,
      "note": 82,
      "start": 69.6414,
      "duration": 0.1006,
      "velocity": 83,
      "chip": "ym2612"
    },
    {
      "channel": 4,
      "note": 77,
      "start": 69.6422,
      "duration": 0.1006,
      "velocity": 83,
      "chip": "ym2612"
    },
    {
      "channel": 5,
      "note": 75,
      "start": 69.6429,
      "duration": 0.1006,
      "velocity": 83,
      "chip": "ym2612"
    },
    {
      "channel": 2,
      "note": 37,
      "start": 69.6436,
      "duration": 0.0526,
      "velocity": 120,
      "chip": "ym2612"
    },
    {
      "channel": 1,
      "note": 55,
      "start": 69.7419,
      "duration": 0.1001,
      "velocity": 97,
      "chip": "ym2612"
    },
    {
      "channel": 3,
      "note": 80,
      "start": 69.7426,
      "duration": 0.0997,
      "velocity": 83,
      "chip": "ym2612"
    },
    {
      "channel": 4,
      "note": 77,
      "start": 69.7434,
      "duration": 0.0997,
      "velocity": 83,
      "chip": "ym2612"
    },
    {
      "channel": 5,
      "note": 75,
      "start": 69.7441,
      "duration": 0.0996,
      "velocity": 83,
      "chip": "ym2612"
    },
    {
      "channel": 2,
      "note": 82,
      "start": 69.7452,
      "duration": 0.0919,
      "velocity": 127,
      "chip": "ym2612"
    },
    {
      "channel": 3,
      "note": 82,
      "start": 69.8429,
      "duration": 0.0978,
      "velocity": 83,
      "chip": "ym2612"
    },
    {
      "channel": 4,
      "note": 77,
      "start": 69.8436,
      "duration": 0.0978,
      "velocity": 83,
      "chip": "ym2612"
    },
    {
      "channel": 5,
      "note": 75,
      "start": 69.8444,
      "duration": 0.0978,
      "velocity": 83,
      "chip": "ym2612"
    },
    {
      "channel": 2,
      "note": 37,
      "start": 69.8451,
      "duration": 0.0524,
      "velocity": 120,
      "chip": "ym2612"
    },
    {
      "channel": 1,
      "note": 56,
      "start": 69.9405,
      "duration": 0.1027,
      "velocity": 97,
      "chip": "ym2612"
    },
    {
      "channel": 3,
      "note": 80,
      "start": 69.9413,
      "duration": 0.1023,
      "velocity": 83,
      "chip": "ym2612"
    },
    {
      "channel": 4,
      "note": 77,
      "start": 69.942,
      "duration": 0.1023,
      "velocity": 83,
      "chip": "ym2612"
    },
    {
      "channel": 5,
      "note": 75,
      "start": 69.9427,
      "duration": 0.1023,
      "velocity": 83,
      "chip": "ym2612"
    },
    {
      "channel": 3,
      "note": 80,
      "start": 70.0441,
      "duration": 0.0977,
      "velocity": 83,
      "chip": "ym2612"
    },
    {
      "channel": 4,
      "note": 77,
      "start": 70.0449,
      "duration": 0.0977,
      "velocity": 83,
      "chip": "ym2612"
    },
    {
      "channel": 5,
      "note": 75,
      "start": 70.0457,
      "duration": 0.0976,
      "velocity": 83,
      "chip": "ym2612"
    },
    {
      "channel": 2,
      "note": 37,
      "start": 70.0464,
      "duration": 0.0524,
      "velocity": 120,
      "chip": "ym2612"
    },
    {
      "channel": 1,
      "note": 58,
      "start": 70.1417,
      "duration": 0.1025,
      "velocity": 97,
      "chip": "ym2612"
    },
    {
      "channel": 3,
      "note": 82,
      "start": 70.1424,
      "duration": 0.102,
      "velocity": 83,
      "chip": "ym2612"
    },
    {
      "channel": 4,
      "note": 77,
      "start": 70.1432,
      "duration": 0.1016,
      "velocity": 83,
      "chip": "ym2612"
    },
    {
      "channel": 5,
      "note": 75,
      "start": 70.1439,
      "duration": 0.1012,
      "velocity": 83,
      "chip": "ym2612"
    },
    {
      "channel": 0,
      "note": 91,
      "start": 70.244,
      "duration": 0.0993,
      "velocity": 106,
      "chip": "ym2612"
    },
    {
      "channel": 2,
      "note": 37,
      "start": 70.246,
      "duration": 0.0533,
      "velocity": 120,
      "chip": "ym2612"
    },
    {
      "channel": 0,
      "note": 92,
      "start": 70.344,
      "duration": 0.0973,
      "velocity": 106,
      "chip": "ym2612"
    },
    {
      "channel": 1,
      "note": 53,
      "start": 70.3447,
      "duration": 0.0975,
      "velocity": 97,
      "chip": "ym2612"
    },
    {
      "channel": 3,
      "note": 80,
      "start": 70.3455,
      "duration": 0.0974,
      "velocity": 83,
      "chip": "ym2612"
    },
    {
      "channel": 4,
      "note": 77,
      "start": 70.3462,
      "duration": 0.097,
      "velocity": 83,
      "chip": "ym2612"
    },
    {
      "channel": 5,
      "note": 75,
      "start": 70.3469,
      "duration": 0.0966,
      "velocity": 83,
      "chip": "ym2612"
    },
    {
      "channel": 2,
      "note": 37,
      "start": 70.3477,
      "duration": 0.0533,
      "velocity": 120,
      "chip": "ym2612"
    },
    {
      "channel": 0,
      "note": 94,
      "start": 70.442,
      "duration": 0.1026,
      "velocity": 106,
      "chip": "ym2612"
    },
    {
      "channel": 1,
      "note": 55,
      "start": 70.4427,
      "duration": 0.1027,
      "velocity": 97,
      "chip": "ym2612"
    },
    {
      "channel": 0,
      "note": 89,
      "start": 70.5453,
      "duration": 0.0973,
      "velocity": 106,
      "chip": "ym2612"
    },
    {
      "channel": 3,
      "note": 82,
      "start": 70.5464,
      "duration": 0.4018,
      "velocity": 83,
      "chip": "ym2612"
    },
    {
      "channel": 4,
      "note": 77,
      "start": 70.5471,
      "duration": 0.4018,
      "velocity": 83,
      "chip": "ym2612"
    },
    {
      "channel": 5,
      "note": 75,
      "start": 70.5479,
      "duration": 0.4019,
      "velocity": 83,
      "chip": "ym2612"
    },
    {
      "channel": 2,
      "note": 82,
      "start": 70.549,
      "duration": 0.1039,
      "velocity": 127,
      "chip": "ym2612"
    },
    {
      "channel": 0,
      "note": 91,
      "start": 70.6433,
      "duration": 0.1027,
      "velocity": 106,
      "chip": "ym2612"
    },
    {
      "channel": 1,
      "note": 55,
      "start": 70.644,
      "duration": 0.1028,
      "velocity": 97,
      "chip": "ym2612"
    },
    {
      "channel": 0,
      "note": 92,
      "start": 70.7466,
      "duration": 0.0999,
      "velocity": 106,
      "chip": "ym2612"
    },
    {
      "channel": 2,
      "note": 37,
      "start": 70.7487,
      "duration": 0.0548,
      "velocity": 120,
      "chip": "ym2612"
    },
    {
      "channel": 0,
      "note": 94,
      "start": 70.8473,
      "duration": 1.0059,
      "velocity": 106,
      "chip": "ym2612"
    },
    {
      "channel": 1,
      "note": 56,
      "start": 70.848,
      "duration": 0.0998,
      "velocity": 97,
      "chip": "ym2612"
    },
    {
      "channel": 2,
      "note": 37,
      "start": 70.8498,
      "duration": 0.0546,
      "velocity": 120,
      "chip": "ym2612"
    },
    {
      "channel": 3,
      "note": 82,
      "start": 70.9488,
      "duration": 0.201,
      "velocity": 83,
      "chip": "ym2612"
    },
    {
      "channel": 4,
      "note": 77,
      "start": 70.9495,
      "duration": 0.2008,
      "velocity": 83,
      "chip": "ym2612"
    },
    {
      "channel": 5,
      "note": 75,
      "start": 70.9503,
      "duration": 0.2007,
      "velocity": 83,
      "chip": "ym2612"
    },
    {
      "channel": 2,
      "note": 37,
      "start": 70.9511,
      "duration": 0.0537,
      "velocity": 120,
      "chip": "ym2612"
    },
    {
      "channel": 1,
      "note": 58,
      "start": 71.0489,
      "duration": 0.1001,
      "velocity": 97,
      "chip": "ym2612"
    },
    {
      "channel": 2,
      "note": 37,
      "start": 71.0506,
      "duration": 0.0567,
      "velocity": 120,
      "chip": "ym2612"
    },
    {
      "channel": 1,
      "note": 53,
      "start": 71.1496,
      "duration": 0.1001,
      "velocity": 97,
      "chip": "ym2612"
    },
    {
      "channel": 3,
      "note": 82,
      "start": 71.1502,
      "duration": 0.0998,
      "velocity": 83,
      "chip": "ym2612"
    },
    {
      "channel": 4,
      "note": 77,
      "start": 71.1508,
      "duration": 0.0998,
      "velocity": 83,
      "chip": "ym2612"
    },
    {
      "channel": 5,
      "note": 75,
      "start": 71.1515,
      "duration": 0.1,
      "velocity": 83,
      "chip": "ym2612"
    },
    {
      "channel": 2,
      "note": 37,
      "start": 71.1522,
      "duration": 0.0559,
      "velocity": 120,
      "chip": "ym2612"
    },
    {
      "channel": 3,
      "note": 82,
      "start": 71.2505,
      "duration": 0.1006,
      "velocity": 83,
      "chip": "ym2612"
    },
    {
      "channel": 4,
      "note": 77,
      "start": 71.2512,
      "duration": 0.1006,
      "velocity": 83,
      "chip": "ym2612"
    },
    {
      "channel": 5,
      "note": 75,
      "start": 71.252,
      "duration": 0.1006,
      "velocity": 83,
      "chip": "ym2612"
    },
    {
      "channel": 2,
      "note": 37,
      "start": 71.2527,
      "duration": 0.0559,
      "velocity": 120,
      "chip": "ym2612"
    },
    {
      "channel": 1,
      "note": 55,
      "start": 71.351,
      "duration": 0.1001,
      "velocity": 97,
      "chip": "ym2612"
    },
    {
      "channel": 3,
      "note": 80,
      "start": 71.3517,
      "duration": 0.0996,
      "velocity": 83,
      "chip": "ym2612"
    },
    {
      "channel": 4,
      "note": 77,
      "start": 71.3524,
      "duration": 0.0997,
      "velocity": 83,
      "chip": "ym2612"
    },
    {
      "channel": 5,
      "note": 75,
      "start": 71.3532,
      "duration": 0.0996,
      "velocity": 83,
      "chip": "ym2612"
    },
    {
      "channel": 2,
      "note": 82,
      "start": 71.3542,
      "duration": 0.0935,
      "velocity": 127,
      "chip": "ym2612"
    },
    {
      "channel": 3,
      "note": 82,
      "start": 71.4519,
      "duration": 0.0979,
      "velocity": 83,
      "chip": "ym2612"
    },
    {
      "channel": 4,
      "note": 77,
      "start": 71.4527,
      "duration": 0.0974,
      "velocity": 83,
      "chip": "ym2612"
    },
    {
      "channel": 5,
      "note": 75,
      "start": 71.4534,
      "duration": 0.097,
      "velocity": 83,
      "chip": "ym2612"
    },
    {
      "channel": 2,
      "note": 37,
      "start": 71.4541,
      "duration": 0.0548,
      "velocity": 120,
      "chip": "ym2612"
    },
    {
      "channel": 1,
      "note": 56,
      "start": 71.5497,
      "duration": 0.1027,
      "velocity": 97,
      "chip": "ym2612"
    },
    {
      "channel": 3,
      "note": 80,
      "start": 71.6533,
      "duration": 0.0978,
      "velocity": 83,
      "chip": "ym2612"
    },
    {
      "channel": 4,
      "note": 77,
      "start": 71.6541,
      "duration": 0.0978,
      "velocity": 83,
      "chip": "ym2612"
    },
    {
      "channel": 5,
      "note": 75,
      "start": 71.6548,
      "duration": 0.0978,
      "velocity": 83,
      "chip": "ym2612"
    },
    {
      "channel": 2,
      "note": 37,
      "start": 71.6571,
      "duration": 0.0524,
      "velocity": 120,
      "chip": "ym2612"
    },
    {
      "channel": 1,
      "note": 58,
      "start": 71.751,
      "duration": 0.1032,
      "velocity": 97,
      "chip": "ym2612"
    },
    {
      "channel": 3,
      "note": 82,
      "start": 71.7517,
      "duration": 0.1027,
      "velocity": 83,
      "chip": "ym2612"
    },
    {
      "channel": 4,
      "note": 77,
      "start": 71.7524,
      "duration": 0.1024,
      "velocity": 83,
      "chip": "ym2612"
    },
    {
      "channel": 5,
      "note": 75,
      "start": 71.7532,
      "duration": 0.1019,
      "velocity": 83,
      "chip": "ym2612"
    },
    {
      "channel": 0,
      "note": 89,
      "start": 71.8539,
      "duration": 0.1,
      "velocity": 106,
      "chip": "ym2612"
    },
    {
      "channel": 2,
      "note": 37,
      "start": 71.8576,
      "duration": 0.0525,
      "velocity": 120,
      "chip": "ym2612"
    },
    {
      "channel": 0,
      "note": 91,
      "start": 71.9547,
      "duration": 0.0972,
      "velocity": 106,
      "chip": "ym2612"
    },
    {
      "channel": 1,
      "note": 53,
      "start": 71.9571,
      "duration": 0.0957,
      "velocity": 97,
      "chip": "ym2612"
    },
    {
      "channel": 3,
      "note": 80,
      "start": 71.9578,
      "duration": 0.0957,
      "velocity": 83,
      "chip": "ym2612"
    },
    {
      "channel": 4,
      "note": 77,
      "start": 71.9585,
      "duration": 0.0953,
      "velocity": 83,
      "chip": "ym2612"
    },
    {
      "channel": 5,
      "note": 75,
      "start": 71.9593,
      "duration": 0.0949,
      "velocity": 83,
      "chip": "ym2612"
    },
    {
      "channel": 2,
      "note": 37,
      "start": 71.96,
      "duration": 0.0518,
      "velocity": 120,
      "chip": "ym2612"
    },
    {
      "channel": 0,
      "note": 92,
      "start": 72.0527,
      "duration": 0.1042,
      "velocity": 106,
      "chip": "ym2612"
    },
    {
      "channel": 1,
      "note": 55,
      "start": 72.0534,
      "duration": 0.1043,
      "velocity": 97,
      "chip": "ym2612"
    },
    {
      "channel": 0,
      "note": 89,
      "start": 72.1576,
      "duration": 0.0957,
      "velocity": 106,
      "chip": "ym2612"
    },
    {
      "channel": 3,
      "note": 82,
      "start": 72.1586,
      "duration": 0.4022,
      "velocity": 83,
      "chip": "ym2612"
    },
    {
      "channel": 4,
      "note": 77,
      "start": 72.1594,
      "duration": 0.4022,
      "velocity": 83,
      "chip": "ym2612"
    },
    {
      "channel": 5,
      "note": 75,
      "start": 72.1602,
      "duration": 0.4022,
      "velocity": 83,
      "chip": "ym2612"
    },
    {
      "channel": 2,
      "note": 82,
      "start": 72.1612,
      "duration": 0.1023,
      "velocity": 127,
      "chip": "ym2612"
    },
    {
      "channel": 0,
      "note": 91,
      "start": 72.254,
      "duration": 0.1041,
      "velocity": 106,
      "chip": "ym2612"
    },
    {
      "channel": 1,
      "note": 55,
      "start": 72.2548,
      "duration": 0.1043,
      "velocity": 97,
      "chip": "ym2612"
    },
    {
      "channel": 0,
      "note": 92,
      "start": 72.3588,
      "duration": 0.1001,
      "velocity": 106,
      "chip": "ym2612"
    },
    {
      "channel": 2,
      "note": 37,
      "start": 72.3609,
      "duration": 0.0532,
      "velocity": 120,
      "chip": "ym2612"
    },
    {
      "channel": 0,
      "note": 94,
      "start": 72.4596,
      "duration": 0.1,
      "velocity": 106,
      "chip": "ym2612"
    },
    {
      "channel": 1,
      "note": 56,
      "start": 72.4604,
      "duration": 0.1002,
      "velocity": 97,
      "chip": "ym2612"
    },
    {
      "channel": 2,
      "note": 82,
      "start": 72.4624,
      "duration": 0.0943,
      "velocity": 127,
      "chip": "ym2612"
    },
    {
      "channel": 0,
      "note": 96,
      "start": 72.5603,
      "duration": 1.206,
      "velocity": 106,
      "chip": "ym2612"
    },
    {
      "channel": 3,
      "note": 82,
      "start": 72.5615,
      "duration": 0.1997,
      "velocity": 83,
      "chip": "ym2612"
    },
    {
      "channel": 4,
      "note": 77,
      "start": 72.5623,
      "duration": 0.1996,
      "velocity": 83,
      "chip": "ym2612"
    },
    {
      "channel": 5,
      "note": 75,
      "start": 72.563,
      "duration": 0.1994,
      "velocity": 83,
      "chip": "ym2612"
    },
    {
      "channel": 2,
      "note": 37,
      "start": 72.5637,
      "duration": 0.0518,
      "velocity": 120,
      "chip": "ym2612"
    },
    {
      "channel": 1,
      "note": 58,
      "start": 72.6586,
      "duration": 0.1019,
      "velocity": 97,
      "chip": "ym2612"
    },
    {
      "channel": 1,
      "note": 53,
      "start": 72.7611,
      "duration": 0.0994,
      "velocity": 97,
      "chip": "ym2612"
    },
    {
      "channel": 3,
      "note": 82,
      "start": 72.7616,
      "duration": 0.0992,
      "velocity": 83,
      "chip": "ym2612"
    },
    {
      "channel": 4,
      "note": 77,
      "start": 72.7623,
      "duration": 0.0991,
      "velocity": 83,
      "chip": "ym2612"
    },
    {
      "channel": 5,
      "note": 75,
      "start": 72.7629,
      "duration": 0.0993,
      "velocity": 83,
      "chip": "ym2612"
    },
    {
      "channel": 2,
      "note": 37,
      "start": 72.7636,
      "duration": 0.0535,
      "velocity": 120,
      "chip": "ym2612"
    },
    {
      "channel": 3,
      "note": 82,
      "start": 72.8612,
      "duration": 0.1005,
      "velocity": 83,
      "chip": "ym2612"
    },
    {
      "channel": 4,
      "note": 77,
      "start": 72.862,
      "duration": 0.1005,
      "velocity": 83,
      "chip": "ym2612"
    },
    {
      "channel": 5,
      "note": 75,
      "start": 72.8627,
      "duration": 0.1006,
      "velocity": 83,
      "chip": "ym2612"
    },
    {
      "channel": 2,
      "note": 37,
      "start": 72.8635,
      "duration": 0.0542,
      "velocity": 120,
      "chip": "ym2612"
    },
    {
      "channel": 1,
      "note": 55,
      "start": 72.9616,
      "duration": 0.1001,
      "velocity": 97,
      "chip": "ym2612"
    },
    {
      "channel": 3,
      "note": 80,
      "start": 72.9624,
      "duration": 0.0997,
      "velocity": 83,
      "chip": "ym2612"
    },
    {
      "channel": 4,
      "note": 77,
      "start": 72.9631,
      "duration": 0.0998,
      "velocity": 83,
      "chip": "ym2612"
    },
    {
      "channel": 5,
      "note": 75,
      "start": 72.9639,
      "duration": 0.0998,
      "velocity": 83,
      "chip": "ym2612"
    },
    {
      "channel": 2,
      "note": 82,
      "start": 72.9649,
      "duration": 0.0937,
      "velocity": 127,
      "chip": "ym2612"
    },
    {
      "channel": 3,
      "note": 82,
      "start": 73.0627,
      "duration": 0.0978,
      "velocity": 83,
      "chip": "ym2612"
    },
    {
      "channel": 4,
      "note": 77,
      "start": 73.0634,
      "duration": 0.0978,
      "velocity": 83,
      "chip": "ym2612"
    },
    {
      "channel": 5,
      "note": 75,
      "start": 73.0642,
      "duration": 0.0978,
      "velocity": 83,
      "chip": "ym2612"
    },
    {
      "channel": 2,
      "note": 37,
      "start": 73.0649,
      "duration": 0.054,
      "velocity": 120,
      "chip": "ym2612"
    },
    {
      "channel": 1,
      "note": 56,
      "start": 73.1604,
      "duration": 0.1027,
      "velocity": 97,
      "chip": "ym2612"
    },
    {
      "channel": 3,
      "note": 80,
      "start": 73.1611,
      "duration": 0.1023,
      "velocity": 83,
      "chip": "ym2612"
    },
    {
      "channel": 4,
      "note": 77,
      "start": 73.1619,
      "duration": 0.1023,
      "velocity": 83,
      "chip": "ym2612"
    },
    {
      "channel": 5,
      "note": 75,
      "start": 73.1626,
      "duration": 0.1023,
      "velocity": 83,
      "chip": "ym2612"
    },
    {
      "channel": 3,
      "note": 80,
      "start": 73.264,
      "duration": 0.0978,
      "velocity": 83,
      "chip": "ym2612"
    },
    {
      "channel": 4,
      "note": 77,
      "start": 73.2648,
      "duration": 0.0978,
      "velocity": 83,
      "chip": "ym2612"
    },
    {
      "channel": 5,
      "note": 75,
      "start": 73.2655,
      "duration": 0.0978,
      "velocity": 83,
      "chip": "ym2612"
    },
    {
      "channel": 2,
      "note": 37,
      "start": 73.2662,
      "duration": 0.054,
      "velocity": 120,
      "chip": "ym2612"
    },
    {
      "channel": 1,
      "note": 58,
      "start": 73.3617,
      "duration": 0.1027,
      "velocity": 97,
      "chip": "ym2612"
    },
    {
      "channel": 3,
      "note": 82,
      "start": 73.3625,
      "duration": 0.1022,
      "velocity": 83,
      "chip": "ym2612"
    },
    {
      "channel": 4,
      "note": 77,
      "start": 73.3632,
      "duration": 0.1018,
      "velocity": 83,
      "chip": "ym2612"
    },
    {
      "channel": 5,
      "note": 75,
      "start": 73.3639,
      "duration": 0.1014,
      "velocity": 83,
      "chip": "ym2612"
    },
    {
      "channel": 2,
      "note": 37,
      "start": 73.4662,
      "duration": 0.0545,
      "velocity": 120,
      "chip": "ym2612"
    },
    {
      "channel": 1,
      "note": 53,
      "start": 73.5657,
      "duration": 0.0974,
      "velocity": 97,
      "chip": "ym2612"
    },
    {
      "channel": 3,
      "note": 80,
      "start": 73.5665,
      "duration": 0.097,
      "velocity": 83,
      "chip": "ym2612"
    },
    {
      "channel": 4,
      "note": 77,
      "start": 73.5672,
      "duration": 0.0966,
      "velocity": 83,
      "chip": "ym2612"
    },
    {
      "channel": 5,
      "note": 75,
      "start": 73.5679,
      "duration": 0.0961,
      "velocity": 83,
      "chip": "ym2612"
    },
    {
      "channel": 2,
      "note": 37,
      "start": 73.5686,
      "duration": 0.0555,
      "velocity": 120,
      "chip": "ym2612"
    },
    {
      "channel": 0,
      "note": 93,
      "start": 73.7671,
      "duration": 0.4017,
      "velocity": 106,
      "chip": "ym2612"
    },
    {
      "channel": 1,
      "note": 57,
      "start": 73.7678,
      "duration": 0.0994,
      "velocity": 97,
      "chip": "ym2612"
    },
    {
      "channel": 3,
      "note": 79,
      "start": 73.7685,
      "duration": 0.4009,
      "velocity": 83,
      "chip": "ym2612"
    },
    {
      "channel": 4,
      "note": 74,
      "start": 73.7693,
      "duration": 0.4009,
      "velocity": 83,
      "chip": "ym2612"
    },
    {
      "channel": 5,
      "note": 72,
      "start": 73.77,
      "duration": 0.4009,
      "velocity": 83,
      "chip": "ym2612"
    },
    {
      "channel": 2,
      "note": 82,
      "start": 73.7711,
      "duration": 0.0927,
      "velocity": 127,
      "chip": "ym2612"
    },
    {
      "channel": 1,
      "note": 57,
      "start": 73.8677,
      "duration": 0.1001,
      "velocity": 97,
      "chip": "ym2612"
    },
    {
      "channel": 2,
      "note": 82,
      "start": 73.8698,
      "duration": 0.0947,
      "velocity": 127,
      "chip": "ym2612"
    },
    {
      "channel": 1,
      "note": 57,
      "start": 73.9683,
      "duration": 0.1001,
      "velocity": 97,
      "chip": "ym2612"
    },
    {
      "channel": 2,
      "note": 82,
      "start": 73.9704,
      "duration": 0.0948,
      "velocity": 127,
      "chip": "ym2612"
    },
    {
      "channel": 1,
      "note": 57,
      "start": 74.069,
      "duration": 0.1001,
      "velocity": 97,
      "chip": "ym2612"
    },
    {
      "channel": 2,
      "note": 82,
      "start": 74.071,
      "duration": 0.0949,
      "velocity": 127,
      "chip": "ym2612"
    },
    {
      "channel": 3,
      "note": 78,
      "start": 74.17,
      "duration": 0.2007,
      "velocity": 83,
      "chip": "ym2612"
    },
    {
      "channel": 4,
      "note": 73,
      "start": 74.1708,
      "duration": 0.2005,
      "velocity": 83,
      "chip": "ym2612"
    },
    {
      "channel": 5,
      "note": 71,
      "start": 74.1716,
      "duration": 0.202,
      "velocity": 83,
      "chip": "ym2612"
    },
    {
      "channel": 2,
      "note": 37,
      "start": 74.1739,
      "duration": 0.0519,
      "velocity": 120,
      "chip": "ym2612"
    },
    {
      "channel": 0,
      "note": 90,
      "start": 74.2701,
      "duration": 0.2006,
      "velocity": 106,
      "chip": "ym2612"
    },
    {
      "channel": 1,
      "note": 54,
      "start": 74.2708,
      "duration": 0.0996,
      "velocity": 97,
      "chip": "ym2612"
    },
    {
      "channel": 2,
      "note": 37,
      "start": 74.2742,
      "duration": 0.053,
      "velocity": 120,
      "chip": "ym2612"
    },
    {
      "channel": 3,
      "note": 78,
      "start": 74.3712,
      "duration": 0.1027,
      "velocity": 83,
      "chip": "ym2612"
    },
    {
      "channel": 4,
      "note": 73,
      "start": 74.3718,
      "duration": 0.1027,
      "velocity": 83,
      "chip": "ym2612"
    },
    {
      "channel": 5,
      "note": 71,
      "start": 74.374,
      "duration": 0.1013,
      "velocity": 83,
      "chip": "ym2612"
    },
    {
      "channel": 2,
      "note": 37,
      "start": 74.3747,
      "duration": 0.0529,
      "velocity": 120,
      "chip": "ym2612"
    },
    {
      "channel": 0,
      "note": 87,
      "start": 74.4714,
      "duration": 0.0999,
      "velocity": 106,
      "chip": "ym2612"
    },
    {
      "channel": 1,
      "note": 49,
      "start": 74.4738,
      "duration": 0.1001,
      "velocity": 97,
      "chip": "ym2612"
    },
    {
      "channel": 3,
      "note": 78,
      "start": 74.4744,
      "duration": 0.1002,
      "velocity": 83,
      "chip": "ym2612"
    },
    {
      "channel": 4,
      "note": 73,
      "start": 74.4751,
      "duration": 0.1002,
      "velocity": 83,
      "chip": "ym2612"
    },
    {
      "channel": 5,
      "note": 71,
      "start": 74.4759,
      "duration": 0.1002,
      "velocity": 83,
      "chip": "ym2612"
    },
    {
      "channel": 2,
      "note": 37,
      "start": 74.4766,
      "duration": 0.052,
      "velocity": 120,
      "chip": "ym2612"
    },
    {
      "channel": 0,
      "note": 88,
      "start": 74.5737,
      "duration": 0.1964,
      "velocity": 106,
      "chip": "ym2612"
    },
    {
      "channel": 1,
      "note": 52,
      "start": 74.5744,
      "duration": 0.0997,
      "velocity": 97,
      "chip": "ym2612"
    },
    {
      "channel": 3,
      "note": 75,
      "start": 74.5752,
      "duration": 0.0992,
      "velocity": 83,
      "chip": "ym2612"
    },
    {
      "channel": 4,
      "note": 73,
      "start": 74.5759,
      "duration": 0.0993,
      "velocity": 83,
      "chip": "ym2612"
    },
    {
      "channel": 5,
      "note": 71,
      "start": 74.5766,
      "duration": 0.0993,
      "velocity": 83,
      "chip": "ym2612"
    },
    {
      "channel": 2,
      "note": 82,
      "start": 74.5777,
      "duration": 0.0915,
      "velocity": 127,
      "chip": "ym2612"
    },
    {
      "channel": 3,
      "note": 78,
      "start": 74.675,
      "duration": 0.0967,
      "velocity": 83,
      "chip": "ym2612"
    },
    {
      "channel": 4,
      "note": 73,
      "start": 74.6758,
      "duration": 0.0978,
      "velocity": 83,
      "chip": "ym2612"
    },
    {
      "channel": 5,
      "note": 71,
      "start": 74.6765,
      "duration": 0.0974,
      "velocity": 83,
      "chip": "ym2612"
    },
    {
      "channel": 2,
      "note": 37,
      "start": 74.6772,
      "duration": 0.0524,
      "velocity": 120,
      "chip": "ym2612"
    },
    {
      "channel": 0,
      "note": 85,
      "start": 74.7708,
      "duration": 0.2006,
      "velocity": 106,
      "chip": "ym2612"
    },
    {
      "channel": 1,
      "note": 51,
      "start": 74.7715,
      "duration": 0.1039,
      "velocity": 97,
      "chip": "ym2612"
    },
    {
      "channel": 3,
      "note": 75,
      "start": 74.8763,
      "duration": 0.0983,
      "velocity": 83,
      "chip": "ym2612"
    },
    {
      "channel": 4,
      "note": 73,
      "start": 74.877,
      "duration": 0.0983,
      "velocity": 83,
      "chip": "ym2612"
    },
    {
      "channel": 5,
      "note": 71,
      "start": 74.8778,
      "duration": 0.0983,
      "velocity": 83,
      "chip": "ym2612"
    },
    {
      "channel": 2,
      "note": 37,
      "start": 74.8785,
      "duration": 0.0525,
      "velocity": 120,
      "chip": "ym2612"
    },
    {
      "channel": 0,
      "note": 90,
      "start": 74.9737,
      "duration": 0.2029,
      "velocity": 106,
      "chip": "ym2612"
    },
    {
      "channel": 1,
      "note": 52,
      "start": 74.9744,
      "duration": 0.1024,
      "velocity": 97,
      "chip": "ym2612"
    },
    {
      "channel": 3,
      "note": 78,
      "start": 74.9752,
      "duration": 0.1019,
      "velocity": 83,
      "chip": "ym2612"
    },
    {
      "channel": 4,
      "note": 73,
      "start": 74.9759,
      "duration": 0.1015,
      "velocity": 83,
      "chip": "ym2612"
    },
    {
      "channel": 5,
      "note": 71,
      "start": 74.9766,
      "duration": 0.1011,
      "velocity": 83,
      "chip": "ym2612"
    },
    {
      "channel": 2,
      "note": 37,
      "start": 75.0786,
      "duration": 0.0532,
      "velocity": 120,
      "chip": "ym2612"
    },
    {
      "channel": 0,
      "note": 87,
      "start": 75.1773,
      "duration": 0.0966,
      "velocity": 106,
      "chip": "ym2612"
    },
    {
      "channel": 1,
      "note": 51,
      "start": 75.178,
      "duration": 0.0968,
      "velocity": 97,
      "chip": "ym2612"
    },
    {
      "channel": 3,
      "note": 75,
      "start": 75.1788,
      "duration": 0.0963,
      "velocity": 83,
      "chip": "ym2612"
    },
    {
      "channel": 4,
      "note": 73,
      "start": 75.1795,
      "duration": 0.0959,
      "velocity": 83,
      "chip": "ym2612"
    },
    {
      "channel": 5,
      "note": 71,
      "start": 75.1803,
      "duration": 0.0955,
      "velocity": 83,
      "chip": "ym2612"
    },
    {
      "channel": 2,
      "note": 37,
      "start": 75.181,
      "duration": 0.0522,
      "velocity": 120,
      "chip": "ym2612"
    },
    {
      "channel": 0,
      "note": 88,
      "start": 75.2747,
      "duration": 0.2,
      "velocity": 106,
      "chip": "ym2612"
    },
    {
      "channel": 1,
      "note": 52,
      "start": 75.3777,
      "duration": 0.0978,
      "velocity": 97,
      "chip": "ym2612"
    },
    {
      "channel": 3,
      "note": 77,
      "start": 75.3785,
      "duration": 0.4017,
      "velocity": 83,
      "chip": "ym2612"
    },
    {
      "channel": 4,
      "note": 73,
      "start": 75.3793,
      "duration": 0.4017,
      "velocity": 83,
      "chip": "ym2612"
    },
    {
      "channel": 5,
      "note": 71,
      "start": 75.38,
      "duration": 0.4017,
      "velocity": 83,
      "chip": "ym2612"
    },
    {
      "channel": 2,
      "note": 82,
      "start": 75.381,
      "duration": 0.1039,
      "velocity": 127,
      "chip": "ym2612"
    },
    {
      "channel": 0,
      "note": 85,
      "start": 75.4754,
      "duration": 0.2033,
      "velocity": 106,
      "chip": "ym2612"
    },
    {
      "channel": 1,
      "note": 54,
      "start": 75.4761,
      "duration": 0.1023,
      "velocity": 97,
      "chip": "ym2612"
    },
    {
      "channel": 2,
      "note": 37,
      "start": 75.5804,
      "duration": 0.0552,
      "velocity": 120,
      "chip": "ym2612"
    },
    {
      "channel": 0,
      "note": 85,
      "start": 75.6795,
      "duration": 0.1,
      "velocity": 106,
      "chip": "ym2612"
    },
    {
      "channel": 1,
      "note": 49,
      "start": 75.6802,
      "duration": 0.0997,
      "velocity": 97,
      "chip": "ym2612"
    },
    {
      "channel": 2,
      "note": 82,
      "start": 75.6822,
      "duration": 0.0943,
      "velocity": 127,
      "chip": "ym2612"
    },
    {
      "channel": 3,
      "note": 78,
      "start": 75.7808,
      "duration": 0.2007,
      "velocity": 83,
      "chip": "ym2612"
    },
    {
      "channel": 4,
      "note": 73,
      "start": 75.7815,
      "duration": 0.2005,
      "velocity": 83,
      "chip": "ym2612"
    },
    {
      "channel": 5,
      "note": 71,
      "start": 75.7823,
      "duration": 0.2004,
      "velocity": 83,
      "chip": "ym2612"
    },
    {
      "channel": 2,
      "note": 37,
      "start": 75.7831,
      "duration": 0.0536,
      "velocity": 120,
      "chip": "ym2612"
    },
    {
      "channel": 0,
      "note": 90,
      "start": 75.8781,
      "duration": 0.2032,
      "velocity": 106,
      "chip": "ym2612"
    },
    {
      "channel": 1,
      "note": 54,
      "start": 75.8788,
      "duration": 0.1023,
      "velocity": 97,
      "chip": "ym2612"
    },
    {
      "channel": 3,
      "note": 78,
      "start": 75.9819,
      "duration": 0.101,
      "velocity": 83,
      "chip": "ym2612"
    },
    {
      "channel": 4,
      "note": 73,
      "start": 75.9825,
      "duration": 0.1011,
      "velocity": 83,
      "chip": "ym2612"
    },
    {
      "channel": 5,
      "note": 71,
      "start": 75.9831,
      "duration": 0.1012,
      "velocity": 83,
      "chip": "ym2612"
    },
    {
      "channel": 2,
      "note": 37,
      "start": 75.9838,
      "duration": 0.0545,
      "velocity": 120,
      "chip": "ym2612"
    },
    {
      "channel": 0,
      "note": 87,
      "start": 76.0821,
      "duration": 0.0999,
      "velocity": 106,
      "chip": "ym2612"
    },
    {
      "channel": 1,
      "note": 49,
      "start": 76.0828,
      "duration": 0.1001,
      "velocity": 97,
      "chip": "ym2612"
    },
    {
      "channel": 3,
      "note": 78,
      "start": 76.0834,
      "duration": 0.1002,
      "velocity": 83,
      "chip": "ym2612"
    },
    {
      "channel": 4,
      "note": 73,
      "start": 76.0841,
      "duration": 0.1003,
      "velocity": 83,
      "chip": "ym2612"
    },
    {
      "channel": 5,
      "note": 71,
      "start": 76.0849,
      "duration": 0.1002,
      "velocity": 83,
      "chip": "ym2612"
    },
    {
      "channel": 2,
      "note": 37,
      "start": 76.0856,
      "duration": 0.0551,
      "velocity": 120,
      "chip": "ym2612"
    },
    {
      "channel": 0,
      "note": 88,
      "start": 76.1828,
      "duration": 0.198,
      "velocity": 106,
      "chip": "ym2612"
    },
    {
      "channel": 1,
      "note": 52,
      "start": 76.1835,
      "duration": 0.0996,
      "velocity": 97,
      "chip": "ym2612"
    },
    {
      "channel": 3,
      "note": 75,
      "start": 76.1842,
      "duration": 0.0992,
      "velocity": 83,
      "chip": "ym2612"
    },
    {
      "channel": 4,
      "note": 73,
      "start": 76.185,
      "duration": 0.0992,
      "velocity": 83,
      "chip": "ym2612"
    },
    {
      "channel": 5,
      "note": 71,
      "start": 76.1857,
      "duration": 0.0992,
      "velocity": 83,
      "chip": "ym2612"
    },
    {
      "channel": 2,
      "note": 82,
      "start": 76.1868,
      "duration": 0.0931,
      "velocity": 127,
      "chip": "ym2612"
    },
    {
      "channel": 3,
      "note": 78,
      "start": 76.284,
      "duration": 0.0983,
      "velocity": 83,
      "chip": "ym2612"
    },
    {
      "channel": 4,
      "note": 73,
      "start": 76.2848,
      "duration": 0.0983,
      "velocity": 83,
      "chip": "ym2612"
    },
    {
      "channel": 5,
      "note": 71,
      "start": 76.2855,
      "duration": 0.0983,
      "velocity": 83,
      "chip": "ym2612"
    },
    {
      "channel": 2,
      "note": 37,
      "start": 76.2863,
      "duration": 0.0556,
      "velocity": 120,
      "chip": "ym2612"
    },
    {
      "channel": 0,
      "note": 85,
      "start": 76.3814,
      "duration": 0.2006,
      "velocity": 106,
      "chip": "ym2612"
    },
    {
      "channel": 1,
      "note": 51,
      "start": 76.3822,
      "duration": 0.1024,
      "velocity": 97,
      "chip": "ym2612"
    },
    {
      "channel": 3,
      "note": 75,
      "start": 76.3829,
      "duration": 0.1019,
      "velocity": 83,
      "chip": "ym2612"
    },
    {
      "channel": 4,
      "note": 73,
      "start": 76.3837,
      "duration": 0.102,
      "velocity": 83,
      "chip": "ym2612"
    },
    {
      "channel": 5,
      "note": 71,
      "start": 76.3844,
      "duration": 0.1019,
      "velocity": 83,
      "chip": "ym2612"
    },
    {
      "channel": 3,
      "note": 75,
      "start": 76.4854,
      "duration": 0.0982,
      "velocity": 83,
      "chip": "ym2612"
    },
    {
      "channel": 4,
      "note": 73,
      "start": 76.4862,
      "duration": 0.0982,
      "velocity": 83,
      "chip": "ym2612"
    },
    {
      "channel": 5,
      "note": 71,
      "start": 76.487,
      "duration": 0.0982,
      "velocity": 83,
      "chip": "ym2612"
    },
    {
      "channel": 2,
      "note": 37,
      "start": 76.4877,
      "duration": 0.0545,
      "velocity": 120,
      "chip": "ym2612"
    },
    {
      "channel": 0,
      "note": 90,
      "start": 76.5828,
      "duration": 0.2033,
      "velocity": 106,
      "chip": "ym2612"
    },
    {
      "channel": 1,
      "note": 52,
      "start": 76.5835,
      "duration": 0.1023,
      "velocity": 97,
      "chip": "ym2612"
    },
    {
      "channel": 3,
      "note": 78,
      "start": 76.5843,
      "duration": 0.1018,
      "velocity": 83,
      "chip": "ym2612"
    },
    {
      "channel": 4,
      "note": 73,
      "start": 76.585,
      "duration": 0.1015,
      "velocity": 83,
      "chip": "ym2612"
    },
    {
      "channel": 5,
      "note": 71,
      "start": 76.5857,
      "duration": 0.101,
      "velocity": 83,
      "chip": "ym2612"
    },
    {
      "channel": 2,
      "note": 37,
      "start": 76.6877,
      "duration": 0.0545,
      "velocity": 120,
      "chip": "ym2612"
    },
    {
      "channel": 0,
      "note": 87,
      "start": 76.7868,
      "duration": 0.0973,
      "velocity": 106,
      "chip": "ym2612"
    },
    {
      "channel": 1,
      "note": 51,
      "start": 76.7875,
      "duration": 0.0975,
      "velocity": 97,
      "chip": "ym2612"
    },
    {
      "channel": 3,
      "note": 75,
      "start": 76.7883,
      "duration": 0.097,
      "velocity": 83,
      "chip": "ym2612"
    },
    {
      "channel": 4,
      "note": 73,
      "start": 76.7906,
      "duration": 0.095,
      "velocity": 83,
      "chip": "ym2612"
    },
    {
      "channel": 5,
      "note": 71,
      "start": 76.7914,
      "duration": 0.0945,
      "velocity": 83,
      "chip": "ym2612"
    },
    {
      "channel": 2,
      "note": 37,
      "start": 76.7921,
      "duration": 0.0518,
      "velocity": 120,
      "chip": "ym2612"
    },
    {
      "channel": 0,
      "note": 88,
      "start": 76.8849,
      "duration": 0.2005,
      "velocity": 106,
      "chip": "ym2612"
    },
    {
      "channel": 1,
      "note": 52,
      "start": 76.9884,
      "duration": 0.0979,
      "velocity": 97,
      "chip": "ym2612"
    },
    {
      "channel": 3,
      "note": 77,
      "start": 76.9908,
      "duration": 0.4019,
      "velocity": 83,
      "chip": "ym2612"
    },
    {
      "channel": 4,
      "note": 73,
      "start": 76.9915,
      "duration": 0.4019,
      "velocity": 83,
      "chip": "ym2612"
    },
    {
      "channel": 5,
      "note": 71,
      "start": 76.9923,
      "duration": 0.4019,
      "velocity": 83,
      "chip": "ym2612"
    },
    {
      "channel": 2,
      "note": 82,
      "start": 76.9933,
      "duration": 0.1023,
      "velocity": 127,
      "chip": "ym2612"
    },
    {
      "channel": 0,
      "note": 85,
      "start": 77.0861,
      "duration": 0.205,
      "velocity": 106,
      "chip": "ym2612"
    },
    {
      "channel": 1,
      "note": 54,
      "start": 77.0868,
      "duration": 0.104,
      "velocity": 97,
      "chip": "ym2612"
    },
    {
      "channel": 2,
      "note": 37,
      "start": 77.1927,
      "duration": 0.0536,
      "velocity": 120,
      "chip": "ym2612"
    },
    {
      "channel": 0,
      "note": 85,
      "start": 77.2918,
      "duration": 0.1,
      "velocity": 106,
      "chip": "ym2612"
    },
    {
      "channel": 1,
      "note": 49,
      "start": 77.2926,
      "duration": 0.0997,
      "velocity": 97,
      "chip": "ym2612"
    },
    {
      "channel": 2,
      "note": 37,
      "start": 77.2943,
      "duration": 0.053,
      "velocity": 120,
      "chip": "ym2612"
    },
    {
      "channel": 3,
      "note": 78,
      "start": 77.3933,
      "duration": 0.2005,
      "velocity": 83,
      "chip": "ym2612"
    },
    {
      "channel": 4,
      "note": 73,
      "start": 77.394,
      "duration": 0.2004,
      "velocity": 83,
      "chip": "ym2612"
    },
    {
      "channel": 5,
      "note": 71,
      "start": 77.3948,
      "duration": 0.2002,
      "velocity": 83,
      "chip": "ym2612"
    },
    {
      "channel": 2,
      "note": 37,
      "start": 77.3956,
      "duration": 0.0517,
      "velocity": 120,
      "chip": "ym2612"
    },
    {
      "channel": 0,
      "note": 90,
      "start": 77.4931,
      "duration": 0.2002,
      "velocity": 106,
      "chip": "ym2612"
    },
    {
      "channel": 1,
      "note": 54,
      "start": 77.4938,
      "duration": 0.0997,
      "velocity": 97,
      "chip": "ym2612"
    },
    {
      "channel": 2,
      "note": 37,
      "start": 77.4956,
      "duration": 0.053,
      "velocity": 120,
      "chip": "ym2612"
    },
    {
      "channel": 3,
      "note": 78,
      "start": 77.5943,
      "duration": 0.1006,
      "velocity": 83,
      "chip": "ym2612"
    },
    {
      "channel": 4,
      "note": 73,
      "start": 77.5949,
      "duration": 0.1006,
      "velocity": 83,
      "chip": "ym2612"
    },
    {
      "channel": 5,
      "note": 71,
      "start": 77.5954,
      "duration": 0.1008,
      "velocity": 83,
      "chip": "ym2612"
    },
    {
      "channel": 2,
      "note": 37,
      "start": 77.5962,
      "duration": 0.0528,
      "velocity": 120,
      "chip": "ym2612"
    },
    {
      "channel": 0,
      "note": 87,
      "start": 77.6939,
      "duration": 0.0996,
      "velocity": 106,
      "chip": "ym2612"
    },
    {
      "channel": 1,
      "note": 49,
      "start": 77.6947,
      "duration": 0.0997,
      "velocity": 97,
      "chip": "ym2612"
    },
    {
      "channel": 3,
      "note": 78,
      "start": 77.6953,
      "duration": 0.0998,
      "velocity": 83,
      "chip": "ym2612"
    },
    {
      "channel": 4,
      "note": 73,
      "start": 77.6961,
      "duration": 0.0998,
      "velocity": 83,
      "chip": "ym2612"
    },
    {
      "channel": 5,
      "note": 71,
      "start": 77.6968,
      "duration": 0.0999,
      "velocity": 83,
      "chip": "ym2612"
    },
    {
      "channel": 2,
      "note": 37,
      "start": 77.6975,
      "duration": 0.0524,
      "velocity": 120,
      "chip": "ym2612"
    },
    {
      "channel": 0,
      "note": 88,
      "start": 77.7942,
      "duration": 0.1972,
      "velocity": 106,
      "chip": "ym2612"
    },
    {
      "channel": 1,
      "note": 52,
      "start": 77.795,
      "duration": 0.0989,
      "velocity": 97,
      "chip": "ym2612"
    },
    {
      "channel": 3,
      "note": 75,
      "start": 77.7957,
      "duration": 0.0984,
      "velocity": 83,
      "chip": "ym2612"
    },
    {
      "channel": 4,
      "note": 73,
      "start": 77.7964,
      "duration": 0.0985,
      "velocity": 83,
      "chip": "ym2612"
    },
    {
      "channel": 5,
      "note": 71,
      "start": 77.7972,
      "duration": 0.0985,
      "velocity": 83,
      "chip": "ym2612"
    },
    {
      "channel": 2,
      "note": 82,
      "start": 77.7982,
      "duration": 0.0924,
      "velocity": 127,
      "chip": "ym2612"
    },
    {
      "channel": 3,
      "note": 78,
      "start": 77.8948,
      "duration": 0.0982,
      "velocity": 83,
      "chip": "ym2612"
    },
    {
      "channel": 4,
      "note": 73,
      "start": 77.8956,
      "duration": 0.0978,
      "velocity": 83,
      "chip": "ym2612"
    },
    {
      "channel": 5,
      "note": 71,
      "start": 77.8962,
      "duration": 0.0974,
      "velocity": 83,
      "chip": "ym2612"
    },
    {
      "channel": 2,
      "note": 37,
      "start": 77.897,
      "duration": 0.054,
      "velocity": 120,
      "chip": "ym2612"
    },
    {
      "channel": 0,
      "note": 85,
      "start": 77.9921,
      "duration": 0.2007,
      "velocity": 106,
      "chip": "ym2612"
    },
    {
      "channel": 1,
      "note": 51,
      "start": 77.9929,
      "duration": 0.1023,
      "velocity": 97,
      "chip": "ym2612"
    },
    {
      "channel": 3,
      "note": 75,
      "start": 78.0961,
      "duration": 0.0983,
      "velocity": 83,
      "chip": "ym2612"
    },
    {
      "channel": 4,
      "note": 73,
      "start": 78.0969,
      "duration": 0.0983,
      "velocity": 83,
      "chip": "ym2612"
    },
    {
      "channel": 5,
      "note": 71,
      "start": 78.0976,
      "duration": 0.0982,
      "velocity": 83,
      "chip": "ym2612"
    },
    {
      "channel": 2,
      "note": 37,
      "start": 78.0983,
      "duration": 0.054,
      "velocity": 120,
      "chip": "ym2612"
    },
    {
      "channel": 0,
      "note": 90,
      "start": 78.1935,
      "duration": 0.2032,
      "velocity": 106,
      "chip": "ym2612"
    },
    {
      "channel": 1,
      "note": 52,
      "start": 78.1943,
      "duration": 0.1023,
      "velocity": 97,
      "chip": "ym2612"
    },
    {
      "channel": 3,
      "note": 78,
      "start": 78.195,
      "duration": 0.1019,
      "velocity": 83,
      "chip": "ym2612"
    },
    {
      "channel": 4,
      "note": 73,
      "start": 78.1957,
      "duration": 0.1015,
      "velocity": 83,
      "chip": "ym2612"
    },
    {
      "channel": 5,
      "note": 71,
      "start": 78.1965,
      "duration": 0.101,
      "velocity": 83,
      "chip": "ym2612"
    },
    {
      "channel": 2,
      "note": 37,
      "start": 78.2984,
      "duration": 0.0545,
      "velocity": 120,
      "chip": "ym2612"
    },
    {
      "channel": 0,
      "note": 87,
      "start": 78.3975,
      "duration": 0.0973,
      "velocity": 106,
      "chip": "ym2612"
    },
    {
      "channel": 1,
      "note": 51,
      "start": 78.3982,
      "duration": 0.0974,
      "velocity": 97,
      "chip": "ym2612"
    },
    {
      "channel": 3,
      "note": 75,
      "start": 78.3989,
      "duration": 0.097,
      "velocity": 83,
      "chip": "ym2612"
    },
    {
      "channel": 4,
      "note": 73,
      "start": 78.3997,
      "duration": 0.0966,
      "velocity": 83,
      "chip": "ym2612"
    },
    {
      "channel": 5,
      "note": 71,
      "start": 78.4005,
      "duration": 0.0961,
      "velocity": 83,
      "chip": "ym2612"
    },
    {
      "channel": 2,
      "note": 37,
      "start": 78.4011,
      "duration": 0.0535,
      "velocity": 120,
      "chip": "ym2612"
    },
    {
      "channel": 0,
      "note": 88,
      "start": 78.4955,
      "duration": 0.2007,
      "velocity": 106,
      "chip": "ym2612"
    },
    {
      "channel": 1,
      "note": 52,
      "start": 78.5991,
      "duration": 0.098,
      "velocity": 97,
      "chip": "ym2612"
    },
    {
      "channel": 3,
      "note": 77,
      "start": 78.5999,
      "duration": 0.4017,
      "velocity": 83,
      "chip": "ym2612"
    },
    {
      "channel": 4,
      "note": 73,
      "start": 78.6006,
      "duration": 0.4017,
      "velocity": 83,
      "chip": "ym2612"
    },
    {
      "channel": 5,
      "note": 71,
      "start": 78.6014,
      "duration": 0.4017,
      "velocity": 83,
      "chip": "ym2612"
    },
    {
      "channel": 2,
      "note": 82,
      "start": 78.6024,
      "duration": 0.1056,
      "velocity": 127,
      "chip": "ym2612"
    },
    {
      "channel": 0,
      "note": 85,
      "start": 78.6969,
      "duration": 0.2032,
      "velocity": 106,
      "chip": "ym2612"
    },
    {
      "channel": 1,
      "note": 54,
      "start": 78.6976,
      "duration": 0.1023,
      "velocity": 97,
      "chip": "ym2612"
    },
    {
      "channel": 2,
      "note": 37,
      "start": 78.8018,
      "duration": 0.0568,
      "velocity": 120,
      "chip": "ym2612"
    },
    {
      "channel": 0,
      "note": 85,
      "start": 78.9008,
      "duration": 0.1,
      "velocity": 106,
      "chip": "ym2612"
    },
    {
      "channel": 1,
      "note": 49,
      "start": 78.9016,
      "duration": 0.0996,
      "velocity": 97,
      "chip": "ym2612"
    },
    {
      "channel": 2,
      "note": 82,
      "start": 78.9036,
      "duration": 0.0943,
      "velocity": 127,
      "chip": "ym2612"
    },
    {
      "channel": 3,
      "note": 78,
      "start": 79.0022,
      "duration": 0.2007,
      "velocity": 83,
      "chip": "ym2612"
    },
    {
      "channel": 4,
      "note": 73,
      "start": 79.0029,
      "duration": 0.2005,
      "velocity": 83,
      "chip": "ym2612"
    },
    {
      "channel": 5,
      "note": 71,
      "start": 79.0037,
      "duration": 0.2004,
      "velocity": 83,
      "chip": "ym2612"
    },
    {
      "channel": 2,
      "note": 37,
      "start": 79.0044,
      "duration": 0.054,
      "velocity": 120,
      "chip": "ym2612"
    },
    {
      "channel": 0,
      "note": 90,
      "start": 79.0998,
      "duration": 0.203,
      "velocity": 106,
      "chip": "ym2612"
    },
    {
      "channel": 1,
      "note": 54,
      "start": 79.1005,
      "duration": 0.1021,
      "velocity": 97,
      "chip": "ym2612"
    },
    {
      "channel": 3,
      "note": 78,
      "start": 79.2033,
      "duration": 0.1011,
      "velocity": 83,
      "chip": "ym2612"
    },
    {
      "channel": 4,
      "note": 73,
      "start": 79.2039,
      "duration": 0.1012,
      "velocity": 83,
      "chip": "ym2612"
    },
    {
      "channel": 5,
      "note": 71,
      "start": 79.2045,
      "duration": 0.1029,
      "velocity": 83,
      "chip": "ym2612"
    },
    {
      "channel": 2,
      "note": 37,
      "start": 79.2068,
      "duration": 0.0529,
      "velocity": 120,
      "chip": "ym2612"
    },
    {
      "channel": 0,
      "note": 87,
      "start": 79.3035,
      "duration": 0.0999,
      "velocity": 106,
      "chip": "ym2612"
    },
    {
      "channel": 1,
      "note": 49,
      "start": 79.3043,
      "duration": 0.1001,
      "velocity": 97,
      "chip": "ym2612"
    },
    {
      "channel": 3,
      "note": 78,
      "start": 79.3048,
      "duration": 0.1002,
      "velocity": 83,
      "chip": "ym2612"
    },
    {
      "channel": 4,
      "note": 73,
      "start": 79.3073,
      "duration": 0.1002,
      "velocity": 83,
      "chip": "ym2612"
    },
    {
      "channel": 5,
      "note": 71,
      "start": 79.308,
      "duration": 0.1002,
      "velocity": 83,
      "chip": "ym2612"
    },
    {
      "channel": 2,
      "note": 37,
      "start": 79.3087,
      "duration": 0.0521,
      "velocity": 120,
      "chip": "ym2612"
    },
    {
      "channel": 0,
      "note": 88,
      "start": 79.4042,
      "duration": 0.198,
      "velocity": 106,
      "chip": "ym2612"
    },
    {
      "channel": 1,
      "note": 52,
      "start": 79.4049,
      "duration": 0.0997,
      "velocity": 97,
      "chip": "ym2612"
    },
    {
      "channel": 3,
      "note": 75,
      "start": 79.4073,
      "duration": 0.0976,
      "velocity": 83,
      "chip": "ym2612"
    },
    {
      "channel": 4,
      "note": 73,
      "start": 79.408,
      "duration": 0.0993,
      "velocity": 83,
      "chip": "ym2612"
    },
    {
      "channel": 5,
      "note": 71,
      "start": 79.4088,
      "duration": 0.0992,
      "velocity": 83,
      "chip": "ym2612"
    },
    {
      "channel": 2,
      "note": 82,
      "start": 79.4098,
      "duration": 0.0915,
      "velocity": 127,
      "chip": "ym2612"
    },
    {
      "channel": 3,
      "note": 78,
      "start": 79.5071,
      "duration": 0.0967,
      "velocity": 83,
      "chip": "ym2612"
    },
    {
      "channel": 4,
      "note": 73,
      "start": 79.5078,
      "duration": 0.0967,
      "velocity": 83,
      "chip": "ym2612"
    },
    {
      "channel": 5,
      "note": 71,
      "start": 79.5086,
      "duration": 0.0983,
      "velocity": 83,
      "chip": "ym2612"
    },
    {
      "channel": 2,
      "note": 37,
      "start": 79.5093,
      "duration": 0.0525,
      "velocity": 120,
      "chip": "ym2612"
    },
    {
      "channel": 0,
      "note": 85,
      "start": 79.6029,
      "duration": 0.2005,
      "velocity": 106,
      "chip": "ym2612"
    },
    {
      "channel": 1,
      "note": 51,
      "start": 79.6036,
      "duration": 0.1039,
      "velocity": 97,
      "chip": "ym2612"
    },
    {
      "channel": 3,
      "note": 75,
      "start": 79.6044,
      "duration": 0.1034,
      "velocity": 83,
      "chip": "ym2612"
    },
    {
      "channel": 4,
      "note": 73,
      "start": 79.6067,
      "duration": 0.1019,
      "velocity": 83,
      "chip": "ym2612"
    },
    {
      "channel": 5,
      "note": 71,
      "start": 79.6075,
      "duration": 0.1018,
      "velocity": 83,
      "chip": "ym2612"
    },
    {
      "channel": 3,
      "note": 75,
      "start": 79.7084,
      "duration": 0.0968,
      "velocity": 83,
      "chip": "ym2612"
    },
    {
      "channel": 4,
      "note": 73,
      "start": 79.7092,
      "duration": 0.0983,
      "velocity": 83,
      "chip": "ym2612"
    },
    {
      "channel": 5,
      "note": 71,
      "start": 79.7099,
      "duration": 0.0983,
      "velocity": 83,
      "chip": "ym2612"
    },
    {
      "channel": 2,
      "note": 37,
      "start": 79.7106,
      "duration": 0.0524,
      "velocity": 120,
      "chip": "ym2612"
    },
    {
      "channel": 0,
      "note": 90,
      "start": 79.8042,
      "duration": 0.1043,
      "velocity": 106,
      "chip": "ym2612"
    },
    {
      "channel": 1,
      "note": 52,
      "start": 79.8049,
      "duration": 0.1044,
      "velocity": 97,
      "chip": "ym2612"
    },
    {
      "channel": 3,
      "note": 78,
      "start": 79.8073,
      "duration": 0.1024,
      "velocity": 83,
      "chip": "ym2612"
    },
    {
      "channel": 4,
      "note": 73,
      "start": 79.808,
      "duration": 0.102,
      "velocity": 83,
      "chip": "ym2612"
    },
    {
      "channel": 5,
      "note": 71,
      "start": 79.8088,
      "duration": 0.1015,
      "velocity": 83,
      "chip": "ym2612"
    },
    {
      "channel": 0,
      "note": 87,
      "start": 79.9092,
      "duration": 0.0999,
      "velocity": 106,
      "chip": "ym2612"
    },
    {
      "channel": 2,
      "note": 37,
      "start": 79.9112,
      "duration": 0.0525,
      "velocity": 120,
      "chip": "ym2612"
    },
    {
      "channel": 0,
      "note": 88,
      "start": 80.0099,
      "duration": 0.0973,
      "velocity": 106,
      "chip": "ym2612"
    },
    {
      "channel": 1,
      "note": 51,
      "start": 80.0106,
      "duration": 0.0974,
      "velocity": 97,
      "chip": "ym2612"
    },
    {
      "channel": 3,
      "note": 75,
      "start": 80.0113,
      "duration": 0.097,
      "velocity": 83,
      "chip": "ym2612"
    },
    {
      "channel": 4,
      "note": 73,
      "start": 80.0121,
      "duration": 0.0966,
      "velocity": 83,
      "chip": "ym2612"
    },
    {
      "channel": 5,
      "note": 71,
      "start": 80.0128,
      "duration": 0.0962,
      "velocity": 83,
      "chip": "ym2612"
    },
    {
      "channel": 2,
      "note": 37,
      "start": 80.0135,
      "duration": 0.0519,
      "velocity": 120,
      "chip": "ym2612"
    },
    {
      "channel": 0,
      "note": 85,
      "start": 80.1079,
      "duration": 0.202,
      "velocity": 106,
      "chip": "ym2612"
    },
    {
      "channel": 1,
      "note": 52,
      "start": 80.2114,
      "duration": 0.0994,
      "velocity": 97,
      "chip": "ym2612"
    },
    {
      "channel": 3,
      "note": 77,
      "start": 80.2122,
      "duration": 0.4008,
      "velocity": 83,
      "chip": "ym2612"
    },
    {
      "channel": 4,
      "note": 72,
      "start": 80.2129,
      "duration": 0.4005,
      "velocity": 83,
      "chip": "ym2612"
    },
    {
      "channel": 5,
      "note": 70,
      "start": 80.2137,
      "duration": 0.4001,
      "velocity": 83,
      "chip": "ym2612"
    },
    {
      "channel": 2,
      "note": 82,
      "start": 80.2147,
      "duration": 0.0924,
      "velocity": 127,
      "chip": "ym2612"
    },
    {
      "channel": 0,
      "note": 89,
      "start": 80.3106,
      "duration": 0.301,
      "velocity": 106,
      "chip": "ym2612"
    },
    {
      "channel": 1,
      "note": 54,
      "start": 80.3114,
      "duration": 0.0992,
      "velocity": 97,
      "chip": "ym2612"
    },
    {
      "channel": 2,
      "note": 82,
      "start": 80.3134,
      "duration": 0.0939,
      "velocity": 127,
      "chip": "ym2612"
    },
    {
      "channel": 1,
      "note": 48,
      "start": 80.4112,
      "duration": 0.1,
      "velocity": 97,
      "chip": "ym2612"
    },
    {
      "channel": 2,
      "note": 82,
      "start": 80.4132,
      "duration": 0.0947,
      "velocity": 127,
      "chip": "ym2612"
    },
    {
      "channel": 1,
      "note": 48,
      "start": 80.5118,
      "duration": 0.1003,
      "velocity": 97,
      "chip": "ym2612"
    },
    {
      "channel": 2,
      "note": 82,
      "start": 80.5139,
      "duration": 0.0949,
      "velocity": 127,
      "chip": "ym2612"
    },
    {
      "channel": 1,
      "note": 55,
      "start": 80.6127,
      "duration": 0.2005,
      "velocity": 97,
      "chip": "ym2612"
    },
    {
      "channel": 2,
      "note": 37,
      "start": 80.6147,
      "duration": 0.0534,
      "velocity": 120,
      "chip": "ym2612"
    },
    {
      "channel": 2,
      "note": 37,
      "start": 80.7136,
      "duration": 0.0552,
      "velocity": 120,
      "chip": "ym2612"
    },
    {
      "channel": 2,
      "note": 82,
      "start": 80.8146,
      "duration": 0.1051,
      "velocity": 127,
      "chip": "ym2612"
    },
    {
      "channel": 2,
      "note": 37,
      "start": 81.0156,
      "duration": 0.055,
      "velocity": 120,
      "chip": "ym2612"
    },
    {
      "channel": 2,
      "note": 37,
      "start": 81.116,
      "duration": 0.0552,
      "velocity": 120,
      "chip": "ym2612"
    },
    {
      "channel": 2,
      "note": 82,
      "start": 81.217,
      "duration": 0.107,
      "velocity": 127,
      "chip": "ym2612"
    },
    {
      "channel": 2,
      "note": 37,
      "start": 81.4182,
      "duration": 0.0561,
      "velocity": 120,
      "chip": "ym2612"
    },
    {
      "channel": 2,
      "note": 37,
      "start": 81.5188,
      "duration": 0.0559,
      "velocity": 120,
      "chip": "ym2612"
    },
    {
      "channel": 2,
      "note": 82,
      "start": 81.6197,
      "duration": 0.1053,
      "velocity": 127,
      "chip": "ym2612"
    },
    {
      "channel": 1,
      "note": 55,
      "start": 81.8204,
      "duration": 0.1001,
      "velocity": 97,
      "chip": "ym2612"
    },
    {
      "channel": 2,
      "note": 37,
      "start": 81.8214,
      "duration": 0.0549,
      "velocity": 120,
      "chip": "ym2612"
    },
    {
      "channel": 1,
      "note": 67,
      "start": 81.921,
      "duration": 0.1001,
      "velocity": 97,
      "chip": "ym2612"
    },
    {
      "channel": 2,
      "note": 37,
      "start": 81.9236,
      "duration": 0.0532,
      "velocity": 120,
      "chip": "ym2612"
    },
    {
      "channel": 2,
      "note": 82,
      "start": 82.0242,
      "duration": 0.1037,
      "velocity": 127,
      "chip": "ym2612"
    },
    {
      "channel": 1,
      "note": 51,
      "start": 82.1197,
      "duration": 0.3058,
      "velocity": 97,
      "chip": "ym2612"
    },
    {
      "channel": 2,
      "note": 37,
      "start": 82.2261,
      "duration": 0.0527,
      "velocity": 120,
      "chip": "ym2612"
    },
    {
      "channel": 2,
      "note": 37,
      "start": 82.3259,
      "duration": 0.0536,
      "velocity": 120,
      "chip": "ym2612"
    },
    {
      "channel": 2,
      "note": 82,
      "start": 82.427,
      "duration": 0.1034,
      "velocity": 127,
      "chip": "ym2612"
    },
    {
      "channel": 2,
      "note": 37,
      "start": 82.6279,
      "duration": 0.0533,
      "velocity": 120,
      "chip": "ym2612"
    },
    {
      "channel": 2,
      "note": 37,
      "start": 82.7279,
      "duration": 0.0541,
      "velocity": 120,
      "chip": "ym2612"
    },
    {
      "channel": 2,
      "note": 82,
      "start": 82.8282,
      "duration": 0.1049,
      "velocity": 127,
      "chip": "ym2612"
    },
    {
      "channel": 2,
      "note": 37,
      "start": 83.0288,
      "duration": 0.0551,
      "velocity": 120,
      "chip": "ym2612"
    },
    {
      "channel": 2,
      "note": 37,
      "start": 83.1294,
      "duration": 0.0552,
      "velocity": 120,
      "chip": "ym2612"
    },
    {
      "channel": 2,
      "note": 37,
      "start": 83.23,
      "duration": 0.0553,
      "velocity": 120,
      "chip": "ym2612"
    },
    {
      "channel": 2,
      "note": 37,
      "start": 83.3307,
      "duration": 0.0553,
      "velocity": 120,
      "chip": "ym2612"
    },
    {
      "channel": 1,
      "note": 51,
      "start": 83.4311,
      "duration": 0.1,
      "velocity": 97,
      "chip": "ym2612"
    },
    {
      "channel": 2,
      "note": 37,
      "start": 83.4321,
      "duration": 0.0548,
      "velocity": 120,
      "chip": "ym2612"
    },
    {
      "channel": 1,
      "note": 63,
      "start": 83.5317,
      "duration": 0.1001,
      "velocity": 97,
      "chip": "ym2612"
    },
    {
      "channel": 2,
      "note": 37,
      "start": 83.5327,
      "duration": 0.0549,
      "velocity": 120,
      "chip": "ym2612"
    },
    {
      "channel": 2,
      "note": 82,
      "start": 83.6333,
      "duration": 0.1069,
      "velocity": 127,
      "chip": "ym2612"
    },
    {
      "channel": 1,
      "note": 55,
      "start": 83.7304,
      "duration": 0.3041,
      "velocity": 97,
      "chip": "ym2612"
    },
    {
      "channel": 2,
      "note": 37,
      "start": 83.8352,
      "duration": 0.0561,
      "velocity": 120,
      "chip": "ym2612"
    },
    {
      "channel": 2,
      "note": 37,
      "start": 83.935,
      "duration": 0.0562,
      "velocity": 120,
      "chip": "ym2612"
    },
    {
      "channel": 2,
      "note": 82,
      "start": 84.0359,
      "duration": 0.1051,
      "velocity": 127,
      "chip": "ym2612"
    },
    {
      "channel": 2,
      "note": 37,
      "start": 84.2371,
      "duration": 0.0549,
      "velocity": 120,
      "chip": "ym2612"
    },
    {
      "channel": 2,
      "note": 37,
      "start": 84.3374,
      "duration": 0.0553,
      "velocity": 120,
      "chip": "ym2612"
    },
    {
      "channel": 2,
      "note": 82,
      "start": 84.4385,
      "duration": 0.1053,
      "velocity": 127,
      "chip": "ym2612"
    },
    {
      "channel": 2,
      "note": 37,
      "start": 84.6412,
      "duration": 0.0535,
      "velocity": 120,
      "chip": "ym2612"
    },
    {
      "channel": 2,
      "note": 37,
      "start": 84.7418,
      "duration": 0.0535,
      "velocity": 120,
      "chip": "ym2612"
    },
    {
      "channel": 2,
      "note": 82,
      "start": 84.8427,
      "duration": 0.1037,
      "velocity": 127,
      "chip": "ym2612"
    },
    {
      "channel": 1,
      "note": 55,
      "start": 85.0434,
      "duration": 0.1002,
      "velocity": 97,
      "chip": "ym2612"
    },
    {
      "channel": 2,
      "note": 37,
      "start": 85.0443,
      "duration": 0.0533,
      "velocity": 120,
      "chip": "ym2612"
    },
    {
      "channel": 1,
      "note": 67,
      "start": 85.1442,
      "duration": 0.0994,
      "velocity": 97,
      "chip": "ym2612"
    },
    {
      "channel": 2,
      "note": 37,
      "start": 85.1452,
      "duration": 0.053,
      "velocity": 120,
      "chip": "ym2612"
    },
    {
      "channel": 2,
      "note": 82,
      "start": 85.2451,
      "duration": 0.1042,
      "velocity": 127,
      "chip": "ym2612"
    },
    {
      "channel": 1,
      "note": 51,
      "start": 85.3419,
      "duration": 0.3033,
      "velocity": 97,
      "chip": "ym2612"
    },
    {
      "channel": 2,
      "note": 37,
      "start": 85.4459,
      "duration": 0.0544,
      "velocity": 120,
      "chip": "ym2612"
    },
    {
      "channel": 2,
      "note": 37,
      "start": 85.5459,
      "duration": 0.0551,
      "velocity": 120,
      "chip": "ym2612"
    },
    {
      "channel": 2,
      "note": 82,
      "start": 85.6466,
      "duration": 0.1051,
      "velocity": 127,
      "chip": "ym2612"
    },
    {
      "channel": 2,
      "note": 37,
      "start": 85.8478,
      "duration": 0.055,
      "velocity": 120,
      "chip": "ym2612"
    },
    {
      "channel": 2,
      "note": 37,
      "start": 85.9482,
      "duration": 0.0552,
      "velocity": 120,
      "chip": "ym2612"
    },
    {
      "channel": 2,
      "note": 82,
      "start": 86.0491,
      "duration": 0.1053,
      "velocity": 127,
      "chip": "ym2612"
    },
    {
      "channel": 2,
      "note": 82,
      "start": 86.2506,
      "duration": 0.0459,
      "velocity": 127,
      "chip": "ym2612"
    },
    {
      "channel": 2,
      "note": 82,
      "start": 86.3006,
      "duration": 0.0461,
      "velocity": 127,
      "chip": "ym2612"
    },
    {
      "channel": 2,
      "note": 82,
      "start": 86.3511,
      "duration": 0.0963,
      "velocity": 127,
      "chip": "ym2612"
    },
    {
      "channel": 2,
      "note": 82,
      "start": 86.4518,
      "duration": 0.0964,
      "velocity": 127,
      "chip": "ym2612"
    },
    {
      "channel": 2,
      "note": 82,
      "start": 86.5525,
      "duration": 0.0966,
      "velocity": 127,
      "chip": "ym2612"
    },
    {
      "channel": 1,
      "note": 51,
      "start": 86.6528,
      "duration": 0.0998,
      "velocity": 97,
      "chip": "ym2612"
    },
    {
      "channel": 2,
      "note": 82,
      "start": 86.6541,
      "duration": 0.0954,
      "velocity": 127,
      "chip": "ym2612"
    },
    {
      "channel": 1,
      "note": 63,
      "start": 86.7531,
      "duration": 0.1001,
      "velocity": 97,
      "chip": "ym2612"
    },
    {
      "channel": 2,
      "note": 82,
      "start": 86.7544,
      "duration": 0.0957,
      "velocity": 127,
      "chip": "ym2612"
    },
    {
      "channel": 1,
      "note": 53,
      "start": 86.8538,
      "duration": 0.1001,
      "velocity": 97,
      "chip": "ym2612"
    },
    {
      "channel": 2,
      "note": 82,
      "start": 86.8551,
      "duration": 0.0956,
      "velocity": 127,
      "chip": "ym2612"
    },
    {
      "channel": 1,
      "note": 65,
      "start": 86.9544,
      "duration": 0.1005,
      "velocity": 97,
      "chip": "ym2612"
    },
    {
      "channel": 2,
      "note": 82,
      "start": 86.9574,
      "duration": 0.0942,
      "velocity": 127,
      "chip": "ym2612"
    },
    {
      "channel": 1,
      "note": 55,
      "start": 87.0572,
      "duration": 0.2072,
      "velocity": 97,
      "chip": "ym2612"
    },
    {
      "channel": 3,
      "note": 79,
      "start": 87.0605,
      "duration": 0.2042,
      "velocity": 83,
      "chip": "ym2612"
    },
    {
      "channel": 4,
      "note": 74,
      "start": 87.0639,
      "duration": 0.2014,
      "velocity": 83,
      "chip": "ym2612"
    },
    {
      "channel": 5,
      "note": 72,
      "start": 87.0672,
      "duration": 0.1987,
      "velocity": 83,
      "chip": "ym2612"
    },
    {
      "channel": 2,
      "note": 37,
      "start": 87.0679,
      "duration": 0.0522,
      "velocity": 120,
      "chip": "ym2612"
    },
    {
      "channel": 2,
      "note": 37,
      "start": 87.1656,
      "duration": 0.0553,
      "velocity": 120,
      "chip": "ym2612"
    },
    {
      "channel": 3,
      "note": 79,
      "start": 87.2651,
      "duration": 0.0973,
      "velocity": 83,
      "chip": "ym2612"
    },
    {
      "channel": 4,
      "note": 74,
      "start": 87.2657,
      "duration": 0.0974,
      "velocity": 83,
      "chip": "ym2612"
    },
    {
      "channel": 5,
      "note": 72,
      "start": 87.2663,
      "duration": 0.0975,
      "velocity": 83,
      "chip": "ym2612"
    },
    {
      "channel": 2,
      "note": 82,
      "start": 87.2674,
      "duration": 0.1043,
      "velocity": 127,
      "chip": "ym2612"
    },
    {
      "channel": 3,
      "note": 79,
      "start": 87.363,
      "duration": 0.103,
      "velocity": 83,
      "chip": "ym2612"
    },
    {
      "channel": 4,
      "note": 74,
      "start": 87.3637,
      "duration": 0.1031,
      "velocity": 83,
      "chip": "ym2612"
    },
    {
      "channel": 5,
      "note": 72,
      "start": 87.3644,
      "duration": 0.103,
      "velocity": 83,
      "chip": "ym2612"
    },
    {
      "channel": 3,
      "note": 77,
      "start": 87.4666,
      "duration": 0.0999,
      "velocity": 83,
      "chip": "ym2612"
    },
    {
      "channel": 4,
      "note": 74,
      "start": 87.4674,
      "duration": 0.0998,
      "velocity": 83,
      "chip": "ym2612"
    },
    {
      "channel": 5,
      "note": 72,
      "start": 87.4681,
      "duration": 0.0999,
      "velocity": 83,
      "chip": "ym2612"
    },
    {
      "channel": 2,
      "note": 37,
      "start": 87.4688,
      "duration": 0.0554,
      "velocity": 120,
      "chip": "ym2612"
    },
    {
      "channel": 3,
      "note": 79,
      "start": 87.5671,
      "duration": 0.1001,
      "velocity": 83,
      "chip": "ym2612"
    },
    {
      "channel": 4,
      "note": 74,
      "start": 87.5678,
      "duration": 0.0996,
      "velocity": 83,
      "chip": "ym2612"
    },
    {
      "channel": 5,
      "note": 72,
      "start": 87.5685,
      "duration": 0.0993,
      "velocity": 83,
      "chip": "ym2612"
    },
    {
      "channel": 2,
      "note": 37,
      "start": 87.5693,
      "duration": 0.0557,
      "velocity": 120,
      "chip": "ym2612"
    },
    {
      "channel": 2,
      "note": 82,
      "start": 87.669,
      "duration": 0.1062,
      "velocity": 127,
      "chip": "ym2612"
    },
    {
      "channel": 3,
      "note": 77,
      "start": 87.7657,
      "duration": 0.1029,
      "velocity": 83,
      "chip": "ym2612"
    },
    {
      "channel": 4,
      "note": 74,
      "start": 87.7665,
      "duration": 0.1029,
      "velocity": 83,
      "chip": "ym2612"
    },
    {
      "channel": 5,
      "note": 72,
      "start": 87.7672,
      "duration": 0.1029,
      "velocity": 83,
      "chip": "ym2612"
    },
    {
      "channel": 3,
      "note": 79,
      "start": 87.8692,
      "duration": 0.0999,
      "velocity": 83,
      "chip": "ym2612"
    },
    {
      "channel": 4,
      "note": 74,
      "start": 87.8699,
      "duration": 0.0995,
      "velocity": 83,
      "chip": "ym2612"
    },
    {
      "channel": 5,
      "note": 72,
      "start": 87.8707,
      "duration": 0.0991,
      "velocity": 83,
      "chip": "ym2612"
    },
    {
      "channel": 2,
      "note": 37,
      "start": 87.8714,
      "duration": 0.0539,
      "velocity": 120,
      "chip": "ym2612"
    },
    {
      "channel": 2,
      "note": 37,
      "start": 87.9707,
      "duration": 0.0544,
      "velocity": 120,
      "chip": "ym2612"
    },
    {
      "channel": 3,
      "note": 77,
      "start": 88.0704,
      "duration": 0.0974,
      "velocity": 83,
      "chip": "ym2612"
    },
    {
      "channel": 4,
      "note": 74,
      "start": 88.0711,
      "duration": 0.097,
      "velocity": 83,
      "chip": "ym2612"
    },
    {
      "channel": 5,
      "note": 72,
      "start": 88.0735,
      "duration": 0.0949,
      "velocity": 83,
      "chip": "ym2612"
    },
    {
      "channel": 2,
      "note": 82,
      "start": 88.0745,
      "duration": 0.1018,
      "velocity": 127,
      "chip": "ym2612"
    },
    {
      "channel": 1,
      "note": 55,
      "start": 88.2717,
      "duration": 0.1001,
      "velocity": 97,
      "chip": "ym2612"
    },
    {
      "channel": 3,
      "note": 79,
      "start": 88.274,
      "duration": 0.2971,
      "velocity": 83,
      "chip": "ym2612"
    },
    {
      "channel": 4,
      "note": 74,
      "start": 88.2748,
      "duration": 0.2987,
      "velocity": 83,
      "chip": "ym2612"
    },
    {
      "channel": 5,
      "note": 72,
      "start": 88.2756,
      "duration": 0.2987,
      "velocity": 83,
      "chip": "ym2612"
    },
    {
      "channel": 2,
      "note": 37,
      "start": 88.2763,
      "duration": 0.0519,
      "velocity": 120,
      "chip": "ym2612"
    },
    {
      "channel": 1,
      "note": 67,
      "start": 88.374,
      "duration": 0.1001,
      "velocity": 97,
      "chip": "ym2612"
    },
    {
      "channel": 2,
      "note": 37,
      "start": 88.3757,
      "duration": 0.0532,
      "velocity": 120,
      "chip": "ym2612"
    },
    {
      "channel": 2,
      "note": 82,
      "start": 88.4763,
      "duration": 0.1036,
      "velocity": 127,
      "chip": "ym2612"
    },
    {
      "channel": 1,
      "note": 51,
      "start": 88.5709,
      "duration": 0.3057,
      "velocity": 97,
      "chip": "ym2612"
    },
    {
      "channel": 3,
      "note": 79,
      "start": 88.5717,
      "duration": 0.3052,
      "velocity": 83,
      "chip": "ym2612"
    },
    {
      "channel": 4,
      "note": 74,
      "start": 88.5741,
      "duration": 0.3034,
      "velocity": 83,
      "chip": "ym2612"
    },
    {
      "channel": 5,
      "note": 70,
      "start": 88.5749,
      "duration": 0.3033,
      "velocity": 83,
      "chip": "ym2612"
    },
    {
      "channel": 2,
      "note": 37,
      "start": 88.6773,
      "duration": 0.0535,
      "velocity": 120,
      "chip": "ym2612"
    },
    {
      "channel": 2,
      "note": 37,
      "start": 88.7779,
      "duration": 0.0536,
      "velocity": 120,
      "chip": "ym2612"
    },
    {
      "channel": 3,
      "note": 79,
      "start": 88.8774,
      "duration": 0.0969,
      "velocity": 83,
      "chip": "ym2612"
    },
    {
      "channel": 4,
      "note": 74,
      "start": 88.878,
      "duration": 0.097,
      "velocity": 83,
      "chip": "ym2612"
    },
    {
      "channel": 5,
      "note": 70,
      "start": 88.8786,
      "duration": 0.0971,
      "velocity": 83,
      "chip": "ym2612"
    },
    {
      "channel": 2,
      "note": 82,
      "start": 88.8796,
      "duration": 0.1027,
      "velocity": 127,
      "chip": "ym2612"
    },
    {
      "channel": 3,
      "note": 79,
      "start": 88.9748,
      "duration": 0.1025,
      "velocity": 83,
      "chip": "ym2612"
    },
    {
      "channel": 4,
      "note": 74,
      "start": 88.9756,
      "duration": 0.1025,
      "velocity": 83,
      "chip": "ym2612"
    },
    {
      "channel": 5,
      "note": 70,
      "start": 88.9763,
      "duration": 0.1024,
      "velocity": 83,
      "chip": "ym2612"
    },
    {
      "channel": 3,
      "note": 77,
      "start": 89.0779,
      "duration": 0.0993,
      "velocity": 83,
      "chip": "ym2612"
    },
    {
      "channel": 4,
      "note": 74,
      "start": 89.0786,
      "duration": 0.0993,
      "velocity": 83,
      "chip": "ym2612"
    },
    {
      "channel": 5,
      "note": 70,
      "start": 89.0794,
      "duration": 0.0992,
      "velocity": 83,
      "chip": "ym2612"
    },
    {
      "channel": 2,
      "note": 37,
      "start": 89.0801,
      "duration": 0.0532,
      "velocity": 120,
      "chip": "ym2612"
    },
    {
      "channel": 3,
      "note": 79,
      "start": 89.1777,
      "duration": 0.1001,
      "velocity": 83,
      "chip": "ym2612"
    },
    {
      "channel": 4,
      "note": 74,
      "start": 89.1785,
      "duration": 0.0997,
      "velocity": 83,
      "chip": "ym2612"
    },
    {
      "channel": 5,
      "note": 70,
      "start": 89.1793,
      "duration": 0.0993,
      "velocity": 83,
      "chip": "ym2612"
    },
    {
      "channel": 2,
      "note": 37,
      "start": 89.18,
      "duration": 0.0541,
      "velocity": 120,
      "chip": "ym2612"
    },
    {
      "channel": 2,
      "note": 82,
      "start": 89.2797,
      "duration": 0.1054,
      "velocity": 127,
      "chip": "ym2612"
    },
    {
      "channel": 3,
      "note": 77,
      "start": 89.3764,
      "duration": 0.1029,
      "velocity": 83,
      "chip": "ym2612"
    },
    {
      "channel": 4,
      "note": 74,
      "start": 89.3772,
      "duration": 0.1029,
      "velocity": 83,
      "chip": "ym2612"
    },
    {
      "channel": 5,
      "note": 70,
      "start": 89.3779,
      "duration": 0.1029,
      "velocity": 83,
      "chip": "ym2612"
    },
    {
      "channel": 3,
      "note": 79,
      "start": 89.4799,
      "duration": 0.1001,
      "velocity": 83,
      "chip": "ym2612"
    },
    {
      "channel": 4,
      "note": 74,
      "start": 89.4807,
      "duration": 0.0997,
      "velocity": 83,
      "chip": "ym2612"
    },
    {
      "channel": 5,
      "note": 70,
      "start": 89.4814,
      "duration": 0.0992,
      "velocity": 83,
      "chip": "ym2612"
    },
    {
      "channel": 2,
      "note": 37,
      "start": 89.4821,
      "duration": 0.0538,
      "velocity": 120,
      "chip": "ym2612"
    },
    {
      "channel": 2,
      "note": 37,
      "start": 89.5815,
      "duration": 0.0543,
      "velocity": 120,
      "chip": "ym2612"
    },
    {
      "channel": 3,
      "note": 77,
      "start": 89.681,
      "duration": 0.1001,
      "velocity": 83,
      "chip": "ym2612"
    },
    {
      "channel": 4,
      "note": 74,
      "start": 89.6818,
      "duration": 0.0997,
      "velocity": 83,
      "chip": "ym2612"
    },
    {
      "channel": 5,
      "note": 70,
      "start": 89.6826,
      "duration": 0.0993,
      "velocity": 83,
      "chip": "ym2612"
    },
    {
      "channel": 2,
      "note": 37,
      "start": 89.6833,
      "duration": 0.054,
      "velocity": 120,
      "chip": "ym2612"
    },
    {
      "channel": 2,
      "note": 37,
      "start": 89.7827,
      "duration": 0.0546,
      "velocity": 120,
      "chip": "ym2612"
    },
    {
      "channel": 1,
      "note": 51,
      "start": 89.8823,
      "duration": 0.1001,
      "velocity": 97,
      "chip": "ym2612"
    },
    {
      "channel": 3,
      "note": 79,
      "start": 89.8831,
      "duration": 0.2988,
      "velocity": 83,
      "chip": "ym2612"
    },
    {
      "channel": 4,
      "note": 74,
      "start": 89.8838,
      "duration": 0.299,
      "velocity": 83,
      "chip": "ym2612"
    },
    {
      "channel": 5,
      "note": 70,
      "start": 89.8846,
      "duration": 0.299,
      "velocity": 83,
      "chip": "ym2612"
    },
    {
      "channel": 2,
      "note": 37,
      "start": 89.8853,
      "duration": 0.0553,
      "velocity": 120,
      "chip": "ym2612"
    },
    {
      "channel": 1,
      "note": 63,
      "start": 89.983,
      "duration": 0.1001,
      "velocity": 97,
      "chip": "ym2612"
    },
    {
      "channel": 2,
      "note": 37,
      "start": 89.9848,
      "duration": 0.0564,
      "velocity": 120,
      "chip": "ym2612"
    },
    {
      "channel": 2,
      "note": 82,
      "start": 90.0854,
      "duration": 0.1067,
      "velocity": 127,
      "chip": "ym2612"
    },
    {
      "channel": 1,
      "note": 55,
      "start": 90.1817,
      "duration": 0.304,
      "velocity": 97,
      "chip": "ym2612"
    },
    {
      "channel": 3,
      "note": 79,
      "start": 90.1826,
      "duration": 0.3034,
      "velocity": 83,
      "chip": "ym2612"
    },
    {
      "channel": 4,
      "note": 74,
      "start": 90.1834,
      "duration": 0.3032,
      "velocity": 83,
      "chip": "ym2612"
    },
    {
      "channel": 5,
      "note": 72,
      "start": 90.1841,
      "duration": 0.3031,
      "velocity": 83,
      "chip": "ym2612"
    },
    {
      "channel": 2,
      "note": 37,
      "start": 90.2865,
      "duration": 0.0555,
      "velocity": 120,
      "chip": "ym2612"
    },
    {
      "channel": 2,
      "note": 37,
      "start": 90.3871,
      "duration": 0.0552,
      "velocity": 120,
      "chip": "ym2612"
    },
    {
      "channel": 3,
      "note": 79,
      "start": 90.4865,
      "duration": 0.0974,
      "velocity": 83,
      "chip": "ym2612"
    },
    {
      "channel": 4,
      "note": 74,
      "start": 90.4871,
      "duration": 0.0975,
      "velocity": 83,
      "chip": "ym2612"
    },
    {
      "channel": 5,
      "note": 72,
      "start": 90.4877,
      "duration": 0.0976,
      "velocity": 83,
      "chip": "ym2612"
    },
    {
      "channel": 2,
      "note": 82,
      "start": 90.4903,
      "duration": 0.1027,
      "velocity": 127,
      "chip": "ym2612"
    },
    {
      "channel": 3,
      "note": 79,
      "start": 90.5844,
      "duration": 0.1034,
      "velocity": 83,
      "chip": "ym2612"
    },
    {
      "channel": 4,
      "note": 74,
      "start": 90.5851,
      "duration": 0.105,
      "velocity": 83,
      "chip": "ym2612"
    },
    {
      "channel": 5,
      "note": 72,
      "start": 90.5859,
      "duration": 0.105,
      "velocity": 83,
      "chip": "ym2612"
    },
    {
      "channel": 3,
      "note": 77,
      "start": 90.6884,
      "duration": 0.0995,
      "velocity": 83,
      "chip": "ym2612"
    },
    {
      "channel": 4,
      "note": 74,
      "start": 90.6907,
      "duration": 0.0995,
      "velocity": 83,
      "chip": "ym2612"
    },
    {
      "channel": 5,
      "note": 72,
      "start": 90.6915,
      "duration": 0.0994,
      "velocity": 83,
      "chip": "ym2612"
    },
    {
      "channel": 2,
      "note": 37,
      "start": 90.6922,
      "duration": 0.0519,
      "velocity": 120,
      "chip": "ym2612"
    },
    {
      "channel": 3,
      "note": 79,
      "start": 90.7885,
      "duration": 0.1017,
      "velocity": 83,
      "chip": "ym2612"
    },
    {
      "channel": 4,
      "note": 74,
      "start": 90.7908,
      "duration": 0.0998,
      "velocity": 83,
      "chip": "ym2612"
    },
    {
      "channel": 5,
      "note": 72,
      "start": 90.7915,
      "duration": 0.0993,
      "velocity": 83,
      "chip": "ym2612"
    },
    {
      "channel": 2,
      "note": 37,
      "start": 90.7922,
      "duration": 0.0525,
      "velocity": 120,
      "chip": "ym2612"
    },
    {
      "channel": 2,
      "note": 82,
      "start": 90.892,
      "duration": 0.1038,
      "velocity": 127,
      "chip": "ym2612"
    },
    {
      "channel": 3,
      "note": 77,
      "start": 90.9871,
      "duration": 0.1045,
      "velocity": 83,
      "chip": "ym2612"
    },
    {
      "channel": 4,
      "note": 74,
      "start": 90.9879,
      "duration": 0.1045,
      "velocity": 83,
      "chip": "ym2612"
    },
    {
      "channel": 5,
      "note": 72,
      "start": 90.9903,
      "duration": 0.1029,
      "velocity": 83,
      "chip": "ym2612"
    },
    {
      "channel": 3,
      "note": 79,
      "start": 91.0922,
      "duration": 0.0999,
      "velocity": 83,
      "chip": "ym2612"
    },
    {
      "channel": 4,
      "note": 74,
      "start": 91.093,
      "duration": 0.0995,
      "velocity": 83,
      "chip": "ym2612"
    },
    {
      "channel": 5,
      "note": 72,
      "start": 91.0938,
      "duration": 0.099,
      "velocity": 83,
      "chip": "ym2612"
    },
    {
      "channel": 2,
      "note": 37,
      "start": 91.0945,
      "duration": 0.0522,
      "velocity": 120,
      "chip": "ym2612"
    },
    {
      "channel": 2,
      "note": 37,
      "start": 91.1937,
      "duration": 0.0529,
      "velocity": 120,
      "chip": "ym2612"
    },
    {
      "channel": 3,
      "note": 77,
      "start": 91.2934,
      "duration": 0.0975,
      "velocity": 83,
      "chip": "ym2612"
    },
    {
      "channel": 4,
      "note": 74,
      "start": 91.2941,
      "duration": 0.0971,
      "velocity": 83,
      "chip": "ym2612"
    },
    {
      "channel": 5,
      "note": 72,
      "start": 91.2949,
      "duration": 0.0967,
      "velocity": 83,
      "chip": "ym2612"
    },
    {
      "channel": 2,
      "note": 82,
      "start": 91.2959,
      "duration": 0.1018,
      "velocity": 127,
      "chip": "ym2612"
    },
    {
      "channel": 1,
      "note": 55,
      "start": 91.4941,
      "duration": 0.0998,
      "velocity": 97,
      "chip": "ym2612"
    },
    {
      "channel": 3,
      "note": 79,
      "start": 91.495,
      "duration": 0.2976,
      "velocity": 83,
      "chip": "ym2612"
    },
    {
      "channel": 4,
      "note": 74,
      "start": 91.4957,
      "duration": 0.2977,
      "velocity": 83,
      "chip": "ym2612"
    },
    {
      "channel": 5,
      "note": 72,
      "start": 91.4965,
      "duration": 0.2978,
      "velocity": 83,
      "chip": "ym2612"
    },
    {
      "channel": 2,
      "note": 37,
      "start": 91.4972,
      "duration": 0.0524,
      "velocity": 120,
      "chip": "ym2612"
    },
    {
      "channel": 1,
      "note": 67,
      "start": 91.5945,
      "duration": 0.0992,
      "velocity": 97,
      "chip": "ym2612"
    },
    {
      "channel": 2,
      "note": 37,
      "start": 91.5963,
      "duration": 0.054,
      "velocity": 120,
      "chip": "ym2612"
    },
    {
      "channel": 2,
      "note": 82,
      "start": 91.696,
      "duration": 0.1054,
      "velocity": 127,
      "chip": "ym2612"
    },
    {
      "channel": 1,
      "note": 51,
      "start": 91.7924,
      "duration": 0.3041,
      "velocity": 97,
      "chip": "ym2612"
    },
    {
      "channel": 3,
      "note": 79,
      "start": 91.7933,
      "duration": 0.3035,
      "velocity": 83,
      "chip": "ym2612"
    },
    {
      "channel": 4,
      "note": 74,
      "start": 91.7941,
      "duration": 0.3033,
      "velocity": 83,
      "chip": "ym2612"
    },
    {
      "channel": 5,
      "note": 70,
      "start": 91.7949,
      "duration": 0.3031,
      "velocity": 83,
      "chip": "ym2612"
    },
    {
      "channel": 2,
      "note": 37,
      "start": 91.8972,
      "duration": 0.0552,
      "velocity": 120,
      "chip": "ym2612"
    },
    {
      "channel": 2,
      "note": 37,
      "start": 91.9978,
      "duration": 0.0551,
      "velocity": 120,
      "chip": "ym2612"
    },
    {
      "channel": 3,
      "note": 79,
      "start": 92.0973,
      "duration": 0.0973,
      "velocity": 83,
      "chip": "ym2612"
    },
    {
      "channel": 4,
      "note": 74,
      "start": 92.0978,
      "duration": 0.0973,
      "velocity": 83,
      "chip": "ym2612"
    },
    {
      "channel": 5,
      "note": 70,
      "start": 92.0984,
      "duration": 0.0975,
      "velocity": 83,
      "chip": "ym2612"
    },
    {
      "channel": 2,
      "note": 82,
      "start": 92.0995,
      "duration": 0.1043,
      "velocity": 127,
      "chip": "ym2612"
    },
    {
      "channel": 3,
      "note": 79,
      "start": 92.195,
      "duration": 0.1032,
      "velocity": 83,
      "chip": "ym2612"
    },
    {
      "channel": 4,
      "note": 74,
      "start": 92.1957,
      "duration": 0.1032,
      "velocity": 83,
      "chip": "ym2612"
    },
    {
      "channel": 5,
      "note": 70,
      "start": 92.1965,
      "duration": 0.1032,
      "velocity": 83,
      "chip": "ym2612"
    },
    {
      "channel": 3,
      "note": 77,
      "start": 92.2988,
      "duration": 0.0998,
      "velocity": 83,
      "chip": "ym2612"
    },
    {
      "channel": 4,
      "note": 74,
      "start": 92.2995,
      "duration": 0.0998,
      "velocity": 83,
      "chip": "ym2612"
    },
    {
      "channel": 5,
      "note": 70,
      "start": 92.3003,
      "duration": 0.0998,
      "velocity": 83,
      "chip": "ym2612"
    },
    {
      "channel": 2,
      "note": 37,
      "start": 92.301,
      "duration": 0.0537,
      "velocity": 120,
      "chip": "ym2612"
    },
    {
      "channel": 3,
      "note": 79,
      "start": 92.3992,
      "duration": 0.0999,
      "velocity": 83,
      "chip": "ym2612"
    },
    {
      "channel": 4,
      "note": 74,
      "start": 92.3999,
      "duration": 0.0995,
      "velocity": 83,
      "chip": "ym2612"
    },
    {
      "channel": 5,
      "note": 70,
      "start": 92.4007,
      "duration": 0.0991,
      "velocity": 83,
      "chip": "ym2612"
    },
    {
      "channel": 2,
      "note": 37,
      "start": 92.4014,
      "duration": 0.0556,
      "velocity": 120,
      "chip": "ym2612"
    },
    {
      "channel": 2,
      "note": 82,
      "start": 92.501,
      "duration": 0.1071,
      "velocity": 127,
      "chip": "ym2612"
    },
    {
      "channel": 3,
      "note": 77,
      "start": 92.5979,
      "duration": 0.1028,
      "velocity": 83,
      "chip": "ym2612"
    },
    {
      "channel": 4,
      "note": 74,
      "start": 92.5987,
      "duration": 0.1028,
      "velocity": 83,
      "chip": "ym2612"
    },
    {
      "channel": 5,
      "note": 70,
      "start": 92.5994,
      "duration": 0.1027,
      "velocity": 83,
      "chip": "ym2612"
    },
    {
      "channel": 3,
      "note": 79,
      "start": 92.7013,
      "duration": 0.1,
      "velocity": 83,
      "chip": "ym2612"
    },
    {
      "channel": 4,
      "note": 74,
      "start": 92.702,
      "duration": 0.0995,
      "velocity": 83,
      "chip": "ym2612"
    },
    {
      "channel": 5,
      "note": 70,
      "start": 92.7028,
      "duration": 0.0991,
      "velocity": 83,
      "chip": "ym2612"
    },
    {
      "channel": 2,
      "note": 82,
      "start": 92.7038,
      "duration": 0.0439,
      "velocity": 127,
      "chip": "ym2612"
    },
    {
      "channel": 2,
      "note": 82,
      "start": 92.7525,
      "duration": 0.0455,
      "velocity": 127,
      "chip": "ym2612"
    },
    {
      "channel": 2,
      "note": 82,
      "start": 92.8031,
      "duration": 0.0956,
      "velocity": 127,
      "chip": "ym2612"
    },
    {
      "channel": 3,
      "note": 77,
      "start": 92.9025,
      "duration": 0.1001,
      "velocity": 83,
      "chip": "ym2612"
    },
    {
      "channel": 4,
      "note": 74,
      "start": 92.9032,
      "duration": 0.0998,
      "velocity": 83,
      "chip": "ym2612"
    },
    {
      "channel": 5,
      "note": 70,
      "start": 92.9039,
      "duration": 0.0993,
      "velocity": 83,
      "chip": "ym2612"
    },
    {
      "channel": 2,
      "note": 82,
      "start": 92.905,
      "duration": 0.0944,
      "velocity": 127,
      "chip": "ym2612"
    },
    {
      "channel": 2,
      "note": 82,
      "start": 93.0044,
      "duration": 0.0956,
      "velocity": 127,
      "chip": "ym2612"
    },
    {
      "channel": 1,
      "note": 51,
      "start": 93.1037,
      "duration": 0.1002,
      "velocity": 97,
      "chip": "ym2612"
    },
    {
      "channel": 3,
      "note": 79,
      "start": 93.1045,
      "duration": 0.3031,
      "velocity": 83,
      "chip": "ym2612"
    },
    {
      "channel": 4,
      "note": 74,
      "start": 93.1069,
      "duration": 0.3017,
      "velocity": 83,
      "chip": "ym2612"
    },
    {
      "channel": 5,
      "note": 70,
      "start": 93.1076,
      "duration": 0.3016,
      "velocity": 83,
      "chip": "ym2612"
    },
    {
      "channel": 2,
      "note": 82,
      "start": 93.1087,
      "duration": 0.0921,
      "velocity": 127,
      "chip": "ym2612"
    },
    {
      "channel": 1,
      "note": 63,
      "start": 93.2044,
      "duration": 0.1,
      "velocity": 97,
      "chip": "ym2612"
    },
    {
      "channel": 2,
      "note": 82,
      "start": 93.2081,
      "duration": 0.0932,
      "velocity": 127,
      "chip": "ym2612"
    },
    {
      "channel": 1,
      "note": 53,
      "start": 93.305,
      "duration": 0.1018,
      "velocity": 97,
      "chip": "ym2612"
    },
    {
      "channel": 2,
      "note": 82,
      "start": 93.3087,
      "duration": 0.0934,
      "velocity": 127,
      "chip": "ym2612"
    },
    {
      "channel": 1,
      "note": 65,
      "start": 93.4074,
      "duration": 0.1003,
      "velocity": 97,
      "chip": "ym2612"
    },
    {
      "channel": 3,
      "note": 79,
      "start": 93.4083,
      "duration": 0.3008,
      "velocity": 83,
      "chip": "ym2612"
    },
    {
      "channel": 4,
      "note": 74,
      "start": 93.4091,
      "duration": 0.3006,
      "velocity": 83,
      "chip": "ym2612"
    },
    {
      "channel": 5,
      "note": 72,
      "start": 93.4099,
      "duration": 0.3004,
      "velocity": 83,
      "chip": "ym2612"
    },
    {
      "channel": 2,
      "note": 82,
      "start": 93.4109,
      "duration": 0.0919,
      "velocity": 127,
      "chip": "ym2612"
    },
    {
      "channel": 1,
      "note": 55,
      "start": 93.5083,
      "duration": 0.2005,
      "velocity": 97,
      "chip": "ym2612"
    },
    {
      "channel": 2,
      "note": 37,
      "start": 93.5101,
      "duration": 0.0529,
      "velocity": 120,
      "chip": "ym2612"
    },
    {
      "channel": 2,
      "note": 37,
      "start": 93.6101,
      "duration": 0.0536,
      "velocity": 120,
      "chip": "ym2612"
    },
    {
      "channel": 3,
      "note": 79,
      "start": 93.7095,
      "duration": 0.0974,
      "velocity": 83,
      "chip": "ym2612"
    },
    {
      "channel": 4,
      "note": 74,
      "start": 93.7101,
      "duration": 0.0974,
      "velocity": 83,
      "chip": "ym2612"
    },
    {
      "channel": 5,
      "note": 72,
      "start": 93.7107,
      "duration": 0.0975,
      "velocity": 83,
      "chip": "ym2612"
    },
    {
      "channel": 2,
      "note": 82,
      "start": 93.7118,
      "duration": 0.1027,
      "velocity": 127,
      "chip": "ym2612"
    },
    {
      "channel": 3,
      "note": 79,
      "start": 93.8074,
      "duration": 0.1031,
      "velocity": 83,
      "chip": "ym2612"
    },
    {
      "channel": 4,
      "note": 74,
      "start": 93.8081,
      "duration": 0.1031,
      "velocity": 83,
      "chip": "ym2612"
    },
    {
      "channel": 5,
      "note": 72,
      "start": 93.8088,
      "duration": 0.103,
      "velocity": 83,
      "chip": "ym2612"
    },
    {
      "channel": 3,
      "note": 77,
      "start": 93.911,
      "duration": 0.0998,
      "velocity": 83,
      "chip": "ym2612"
    },
    {
      "channel": 4,
      "note": 74,
      "start": 93.9118,
      "duration": 0.0998,
      "velocity": 83,
      "chip": "ym2612"
    },
    {
      "channel": 5,
      "note": 72,
      "start": 93.9125,
      "duration": 0.0997,
      "velocity": 83,
      "chip": "ym2612"
    },
    {
      "channel": 2,
      "note": 37,
      "start": 93.9132,
      "duration": 0.0522,
      "velocity": 120,
      "chip": "ym2612"
    },
    {
      "channel": 3,
      "note": 79,
      "start": 94.0113,
      "duration": 0.099,
      "velocity": 83,
      "chip": "ym2612"
    },
    {
      "channel": 4,
      "note": 74,
      "start": 94.0121,
      "duration": 0.0986,
      "velocity": 83,
      "chip": "ym2612"
    },
    {
      "channel": 5,
      "note": 72,
      "start": 94.0129,
      "duration": 0.0981,
      "velocity": 83,
      "chip": "ym2612"
    },
    {
      "channel": 2,
      "note": 37,
      "start": 94.0135,
      "duration": 0.0526,
      "velocity": 120,
      "chip": "ym2612"
    },
    {
      "channel": 2,
      "note": 82,
      "start": 94.1122,
      "duration": 0.1049,
      "velocity": 127,
      "chip": "ym2612"
    },
    {
      "channel": 3,
      "note": 77,
      "start": 94.2086,
      "duration": 0.1027,
      "velocity": 83,
      "chip": "ym2612"
    },
    {
      "channel": 4,
      "note": 74,
      "start": 94.2093,
      "duration": 0.1027,
      "velocity": 83,
      "chip": "ym2612"
    },
    {
      "channel": 5,
      "note": 72,
      "start": 94.2101,
      "duration": 0.1027,
      "velocity": 83,
      "chip": "ym2612"
    },
    {
      "channel": 3,
      "note": 79,
      "start": 94.312,
      "duration": 0.1001,
      "velocity": 83,
      "chip": "ym2612"
    },
    {
      "channel": 4,
      "note": 74,
      "start": 94.3127,
      "duration": 0.0997,
      "velocity": 83,
      "chip": "ym2612"
    },
    {
      "channel": 5,
      "note": 72,
      "start": 94.3134,
      "duration": 0.0992,
      "velocity": 83,
      "chip": "ym2612"
    },
    {
      "channel": 2,
      "note": 37,
      "start": 94.3141,
      "duration": 0.0539,
      "velocity": 120,
      "chip": "ym2612"
    },
    {
      "channel": 2,
      "note": 37,
      "start": 94.4135,
      "duration": 0.0545,
      "velocity": 120,
      "chip": "ym2612"
    },
    {
      "channel": 3,
      "note": 77,
      "start": 94.5132,
      "duration": 0.0975,
      "velocity": 83,
      "chip": "ym2612"
    },
    {
      "channel": 4,
      "note": 74,
      "start": 94.5139,
      "duration": 0.0971,
      "velocity": 83,
      "chip": "ym2612"
    },
    {
      "channel": 5,
      "note": 72,
      "start": 94.5146,
      "duration": 0.0967,
      "velocity": 83,
      "chip": "ym2612"
    },
    {
      "channel": 2,
      "note": 82,
      "start": 94.5156,
      "duration": 0.1034,
      "velocity": 127,
      "chip": "ym2612"
    },
    {
      "channel": 1,
      "note": 55,
      "start": 94.7144,
      "duration": 0.1001,
      "velocity": 97,
      "chip": "ym2612"
    },
    {
      "channel": 3,
      "note": 79,
      "start": 94.7152,
      "duration": 0.2989,
      "velocity": 83,
      "chip": "ym2612"
    },
    {
      "channel": 4,
      "note": 74,
      "start": 94.716,
      "duration": 0.2989,
      "velocity": 83,
      "chip": "ym2612"
    },
    {
      "channel": 5,
      "note": 72,
      "start": 94.7167,
      "duration": 0.299,
      "velocity": 83,
      "chip": "ym2612"
    },
    {
      "channel": 2,
      "note": 37,
      "start": 94.7174,
      "duration": 0.0536,
      "velocity": 120,
      "chip": "ym2612"
    },
    {
      "channel": 1,
      "note": 67,
      "start": 94.8151,
      "duration": 0.1001,
      "velocity": 97,
      "chip": "ym2612"
    },
    {
      "channel": 2,
      "note": 37,
      "start": 94.8169,
      "duration": 0.0548,
      "velocity": 120,
      "chip": "ym2612"
    },
    {
      "channel": 2,
      "note": 82,
      "start": 94.9175,
      "duration": 0.1069,
      "velocity": 127,
      "chip": "ym2612"
    },
    {
      "channel": 1,
      "note": 51,
      "start": 95.0138,
      "duration": 0.3041,
      "velocity": 97,
      "chip": "ym2612"
    },
    {
      "channel": 3,
      "note": 79,
      "start": 95.0147,
      "duration": 0.3035,
      "velocity": 83,
      "chip": "ym2612"
    },
    {
      "channel": 4,
      "note": 74,
      "start": 95.0155,
      "duration": 0.3032,
      "velocity": 83,
      "chip": "ym2612"
    },
    {
      "channel": 5,
      "note": 70,
      "start": 95.0163,
      "duration": 0.3031,
      "velocity": 83,
      "chip": "ym2612"
    },
    {
      "channel": 2,
      "note": 37,
      "start": 95.1186,
      "duration": 0.0567,
      "velocity": 120,
      "chip": "ym2612"
    },
    {
      "channel": 2,
      "note": 37,
      "start": 95.2191,
      "duration": 0.0562,
      "velocity": 120,
      "chip": "ym2612"
    },
    {
      "channel": 3,
      "note": 79,
      "start": 95.3186,
      "duration": 0.0973,
      "velocity": 83,
      "chip": "ym2612"
    },
    {
      "channel": 4,
      "note": 74,
      "start": 95.3192,
      "duration": 0.0974,
      "velocity": 83,
      "chip": "ym2612"
    },
    {
      "channel": 5,
      "note": 70,
      "start": 95.3198,
      "duration": 0.0975,
      "velocity": 83,
      "chip": "ym2612"
    },
    {
      "channel": 2,
      "note": 82,
      "start": 95.3209,
      "duration": 0.1047,
      "velocity": 127,
      "chip": "ym2612"
    },
    {
      "channel": 3,
      "note": 79,
      "start": 95.4164,
      "duration": 0.1032,
      "velocity": 83,
      "chip": "ym2612"
    },
    {
      "channel": 4,
      "note": 74,
      "start": 95.4172,
      "duration": 0.1032,
      "velocity": 83,
      "chip": "ym2612"
    },
    {
      "channel": 5,
      "note": 70,
      "start": 95.4179,
      "duration": 0.1032,
      "velocity": 83,
      "chip": "ym2612"
    },
    {
      "channel": 3,
      "note": 77,
      "start": 95.5202,
      "duration": 0.0998,
      "velocity": 83,
      "chip": "ym2612"
    },
    {
      "channel": 4,
      "note": 74,
      "start": 95.521,
      "duration": 0.0997,
      "velocity": 83,
      "chip": "ym2612"
    },
    {
      "channel": 5,
      "note": 70,
      "start": 95.5217,
      "duration": 0.0997,
      "velocity": 83,
      "chip": "ym2612"
    },
    {
      "channel": 2,
      "note": 37,
      "start": 95.524,
      "duration": 0.0522,
      "velocity": 120,
      "chip": "ym2612"
    },
    {
      "channel": 3,
      "note": 79,
      "start": 95.6205,
      "duration": 0.1001,
      "velocity": 83,
      "chip": "ym2612"
    },
    {
      "channel": 4,
      "note": 74,
      "start": 95.6213,
      "duration": 0.0997,
      "velocity": 83,
      "chip": "ym2612"
    },
    {
      "channel": 5,
      "note": 70,
      "start": 95.6237,
      "duration": 0.0977,
      "velocity": 83,
      "chip": "ym2612"
    },
    {
      "channel": 2,
      "note": 37,
      "start": 95.6244,
      "duration": 0.0525,
      "velocity": 120,
      "chip": "ym2612"
    },
    {
      "channel": 2,
      "note": 82,
      "start": 95.7241,
      "duration": 0.1038,
      "velocity": 127,
      "chip": "ym2612"
    },
    {
      "channel": 3,
      "note": 77,
      "start": 95.8193,
      "duration": 0.1044,
      "velocity": 83,
      "chip": "ym2612"
    },
    {
      "channel": 4,
      "note": 74,
      "start": 95.82,
      "duration": 0.1044,
      "velocity": 83,
      "chip": "ym2612"
    },
    {
      "channel": 5,
      "note": 70,
      "start": 95.8208,
      "duration": 0.1045,
      "velocity": 83,
      "chip": "ym2612"
    },
    {
      "channel": 3,
      "note": 79,
      "start": 95.9244,
      "duration": 0.1001,
      "velocity": 83,
      "chip": "ym2612"
    },
    {
      "channel": 4,
      "note": 74,
      "start": 95.9251,
      "duration": 0.0997,
      "velocity": 83,
      "chip": "ym2612"
    },
    {
      "channel": 5,
      "note": 70,
      "start": 95.9258,
      "duration": 0.0993,
      "velocity": 83,
      "chip": "ym2612"
    },
    {
      "channel": 2,
      "note": 37,
      "start": 95.9266,
      "duration": 0.0522,
      "velocity": 120,
      "chip": "ym2612"
    },
    {
      "channel": 2,
      "note": 37,
      "start": 96.026,
      "duration": 0.0527,
      "velocity": 120,
      "chip": "ym2612"
    },
    {
      "channel": 3,
      "note": 77,
      "start": 96.1256,
      "duration": 0.1,
      "velocity": 83,
      "chip": "ym2612"
    },
    {
      "channel": 4,
      "note": 74,
      "start": 96.1263,
      "duration": 0.0996,
      "velocity": 83,
      "chip": "ym2612"
    },
    {
      "channel": 5,
      "note": 70,
      "start": 96.1271,
      "duration": 0.0992,
      "velocity": 83,
      "chip": "ym2612"
    },
    {
      "channel": 2,
      "note": 37,
      "start": 96.1278,
      "duration": 0.0524,
      "velocity": 120,
      "chip": "ym2612"
    },
    {
      "channel": 2,
      "note": 37,
      "start": 96.2272,
      "duration": 0.053,
      "velocity": 120,
      "chip": "ym2612"
    },
    {
      "channel": 1,
      "note": 51,
      "start": 96.3268,
      "duration": 0.1005,
      "velocity": 97,
      "chip": "ym2612"
    },
    {
      "channel": 3,
      "note": 79,
      "start": 96.3276,
      "duration": 0.2975,
      "velocity": 83,
      "chip": "ym2612"
    },
    {
      "channel": 4,
      "note": 74,
      "start": 96.3283,
      "duration": 0.2976,
      "velocity": 83,
      "chip": "ym2612"
    },
    {
      "channel": 5,
      "note": 70,
      "start": 96.3291,
      "duration": 0.2976,
      "velocity": 83,
      "chip": "ym2612"
    },
    {
      "channel": 2,
      "note": 37,
      "start": 96.3298,
      "duration": 0.0519,
      "velocity": 120,
      "chip": "ym2612"
    },
    {
      "channel": 1,
      "note": 63,
      "start": 96.4279,
      "duration": 0.099,
      "velocity": 97,
      "chip": "ym2612"
    },
    {
      "channel": 2,
      "note": 37,
      "start": 96.4296,
      "duration": 0.0528,
      "velocity": 120,
      "chip": "ym2612"
    },
    {
      "channel": 2,
      "note": 82,
      "start": 96.5291,
      "duration": 0.1044,
      "velocity": 127,
      "chip": "ym2612"
    },
    {
      "channel": 1,
      "note": 55,
      "start": 96.6248,
      "duration": 0.3038,
      "velocity": 97,
      "chip": "ym2612"
    },
    {
      "channel": 3,
      "note": 79,
      "start": 96.6257,
      "duration": 0.3032,
      "velocity": 83,
      "chip": "ym2612"
    },
    {
      "channel": 4,
      "note": 74,
      "start": 96.6265,
      "duration": 0.303,
      "velocity": 83,
      "chip": "ym2612"
    },
    {
      "channel": 5,
      "note": 72,
      "start": 96.6273,
      "duration": 0.3029,
      "velocity": 83,
      "chip": "ym2612"
    },
    {
      "channel": 2,
      "note": 37,
      "start": 96.7293,
      "duration": 0.0551,
      "velocity": 120,
      "chip": "ym2612"
    },
    {
      "channel": 2,
      "note": 37,
      "start": 96.8298,
      "duration": 0.0553,
      "velocity": 120,
      "chip": "ym2612"
    },
    {
      "channel": 3,
      "note": 79,
      "start": 96.9294,
      "duration": 0.0973,
      "velocity": 83,
      "chip": "ym2612"
    },
    {
      "channel": 4,
      "note": 74,
      "start": 96.93,
      "duration": 0.0973,
      "velocity": 83,
      "chip": "ym2612"
    },
    {
      "channel": 5,
      "note": 72,
      "start": 96.9306,
      "duration": 0.0974,
      "velocity": 83,
      "chip": "ym2612"
    },
    {
      "channel": 2,
      "note": 82,
      "start": 96.9316,
      "duration": 0.1043,
      "velocity": 127,
      "chip": "ym2612"
    },
    {
      "channel": 3,
      "note": 79,
      "start": 97.0271,
      "duration": 0.1035,
      "velocity": 83,
      "chip": "ym2612"
    },
    {
      "channel": 4,
      "note": 74,
      "start": 97.0279,
      "duration": 0.1035,
      "velocity": 83,
      "chip": "ym2612"
    },
    {
      "channel": 5,
      "note": 72,
      "start": 97.0286,
      "duration": 0.1034,
      "velocity": 83,
      "chip": "ym2612"
    },
    {
      "channel": 3,
      "note": 77,
      "start": 97.1312,
      "duration": 0.0996,
      "velocity": 83,
      "chip": "ym2612"
    },
    {
      "channel": 4,
      "note": 74,
      "start": 97.1319,
      "duration": 0.0995,
      "velocity": 83,
      "chip": "ym2612"
    },
    {
      "channel": 5,
      "note": 72,
      "start": 97.1327,
      "duration": 0.0995,
      "velocity": 83,
      "chip": "ym2612"
    },
    {
      "channel": 2,
      "note": 37,
      "start": 97.1334,
      "duration": 0.0534,
      "velocity": 120,
      "chip": "ym2612"
    },
    {
      "channel": 3,
      "note": 79,
      "start": 97.2313,
      "duration": 0.1,
      "velocity": 83,
      "chip": "ym2612"
    },
    {
      "channel": 4,
      "note": 74,
      "start": 97.2321,
      "duration": 0.0995,
      "velocity": 83,
      "chip": "ym2612"
    },
    {
      "channel": 5,
      "note": 72,
      "start": 97.2328,
      "duration": 0.0992,
      "velocity": 83,
      "chip": "ym2612"
    },
    {
      "channel": 2,
      "note": 37,
      "start": 97.2335,
      "duration": 0.0539,
      "velocity": 120,
      "chip": "ym2612"
    },
    {
      "channel": 2,
      "note": 82,
      "start": 97.3331,
      "duration": 0.1071,
      "velocity": 127,
      "chip": "ym2612"
    },
    {
      "channel": 3,
      "note": 77,
      "start": 97.4299,
      "duration": 0.1029,
      "velocity": 83,
      "chip": "ym2612"
    },
    {
      "channel": 4,
      "note": 74,
      "start": 97.4307,
      "duration": 0.1029,
      "velocity": 83,
      "chip": "ym2612"
    },
    {
      "channel": 5,
      "note": 72,
      "start": 97.4314,
      "duration": 0.1028,
      "velocity": 83,
      "chip": "ym2612"
    },
    {
      "channel": 3,
      "note": 79,
      "start": 97.5333,
      "duration": 0.1001,
      "velocity": 83,
      "chip": "ym2612"
    },
    {
      "channel": 4,
      "note": 74,
      "start": 97.5341,
      "duration": 0.0996,
      "velocity": 83,
      "chip": "ym2612"
    },
    {
      "channel": 5,
      "note": 72,
      "start": 97.5349,
      "duration": 0.0992,
      "velocity": 83,
      "chip": "ym2612"
    },
    {
      "channel": 2,
      "note": 37,
      "start": 97.5356,
      "duration": 0.0556,
      "velocity": 120,
      "chip": "ym2612"
    },
    {
      "channel": 2,
      "note": 37,
      "start": 97.6349,
      "duration": 0.0561,
      "velocity": 120,
      "chip": "ym2612"
    },
    {
      "channel": 3,
      "note": 77,
      "start": 97.7347,
      "duration": 0.0973,
      "velocity": 83,
      "chip": "ym2612"
    },
    {
      "channel": 4,
      "note": 74,
      "start": 97.7354,
      "duration": 0.0969,
      "velocity": 83,
      "chip": "ym2612"
    },
    {
      "channel": 5,
      "note": 72,
      "start": 97.7361,
      "duration": 0.0965,
      "velocity": 83,
      "chip": "ym2612"
    },
    {
      "channel": 2,
      "note": 82,
      "start": 97.7371,
      "duration": 0.1043,
      "velocity": 127,
      "chip": "ym2612"
    },
    {
      "channel": 1,
      "note": 55,
      "start": 97.9359,
      "duration": 0.1001,
      "velocity": 97,
      "chip": "ym2612"
    },
    {
      "channel": 3,
      "note": 79,
      "start": 97.9367,
      "duration": 0.2988,
      "velocity": 83,
      "chip": "ym2612"
    },
    {
      "channel": 4,
      "note": 74,
      "start": 97.9375,
      "duration": 0.2989,
      "velocity": 83,
      "chip": "ym2612"
    },
    {
      "channel": 5,
      "note": 72,
      "start": 97.9382,
      "duration": 0.299,
      "velocity": 83,
      "chip": "ym2612"
    },
    {
      "channel": 2,
      "note": 37,
      "start": 97.9406,
      "duration": 0.0519,
      "velocity": 120,
      "chip": "ym2612"
    },
    {
      "channel": 1,
      "note": 67,
      "start": 98.0366,
      "duration": 0.1001,
      "velocity": 97,
      "chip": "ym2612"
    },
    {
      "channel": 2,
      "note": 37,
      "start": 98.0384,
      "duration": 0.0547,
      "velocity": 120,
      "chip": "ym2612"
    },
    {
      "channel": 2,
      "note": 82,
      "start": 98.1405,
      "duration": 0.1038,
      "velocity": 127,
      "chip": "ym2612"
    },
    {
      "channel": 1,
      "note": 51,
      "start": 98.2353,
      "duration": 0.3056,
      "velocity": 97,
      "chip": "ym2612"
    },
    {
      "channel": 3,
      "note": 79,
      "start": 98.2362,
      "duration": 0.305,
      "velocity": 83,
      "chip": "ym2612"
    },
    {
      "channel": 4,
      "note": 74,
      "start": 98.237,
      "duration": 0.3048,
      "velocity": 83,
      "chip": "ym2612"
    },
    {
      "channel": 5,
      "note": 70,
      "start": 98.2378,
      "duration": 0.3046,
      "velocity": 83,
      "chip": "ym2612"
    },
    {
      "channel": 2,
      "note": 37,
      "start": 98.3416,
      "duration": 0.0536,
      "velocity": 120,
      "chip": "ym2612"
    },
    {
      "channel": 2,
      "note": 37,
      "start": 98.4421,
      "duration": 0.0536,
      "velocity": 120,
      "chip": "ym2612"
    },
    {
      "channel": 3,
      "note": 79,
      "start": 98.5417,
      "duration": 0.0957,
      "velocity": 83,
      "chip": "ym2612"
    },
    {
      "channel": 4,
      "note": 74,
      "start": 98.5422,
      "duration": 0.0958,
      "velocity": 83,
      "chip": "ym2612"
    },
    {
      "channel": 5,
      "note": 70,
      "start": 98.5429,
      "duration": 0.0975,
      "velocity": 83,
      "chip": "ym2612"
    },
    {
      "channel": 2,
      "note": 82,
      "start": 98.5439,
      "duration": 0.1028,
      "velocity": 127,
      "chip": "ym2612"
    },
    {
      "channel": 3,
      "note": 79,
      "start": 98.6379,
      "duration": 0.1046,
      "velocity": 83,
      "chip": "ym2612"
    },
    {
      "channel": 4,
      "note": 74,
      "start": 98.6403,
      "duration": 0.103,
      "velocity": 83,
      "chip": "ym2612"
    },
    {
      "channel": 5,
      "note": 70,
      "start": 98.641,
      "duration": 0.103,
      "velocity": 83,
      "chip": "ym2612"
    },
    {
      "channel": 3,
      "note": 77,
      "start": 98.7431,
      "duration": 0.0999,
      "velocity": 83,
      "chip": "ym2612"
    },
    {
      "channel": 4,
      "note": 74,
      "start": 98.7439,
      "duration": 0.0998,
      "velocity": 83,
      "chip": "ym2612"
    },
    {
      "channel": 5,
      "note": 70,
      "start": 98.7446,
      "duration": 0.0998,
      "velocity": 83,
      "chip": "ym2612"
    },
    {
      "channel": 2,
      "note": 37,
      "start": 98.7454,
      "duration": 0.0522,
      "velocity": 120,
      "chip": "ym2612"
    },
    {
      "channel": 3,
      "note": 79,
      "start": 98.8436,
      "duration": 0.1,
      "velocity": 83,
      "chip": "ym2612"
    },
    {
      "channel": 4,
      "note": 74,
      "start": 98.8443,
      "duration": 0.0996,
      "velocity": 83,
      "chip": "ym2612"
    },
    {
      "channel": 5,
      "note": 70,
      "start": 98.845,
      "duration": 0.0992,
      "velocity": 83,
      "chip": "ym2612"
    },
    {
      "channel": 2,
      "note": 37,
      "start": 98.8458,
      "duration": 0.0524,
      "velocity": 120,
      "chip": "ym2612"
    },
    {
      "channel": 2,
      "note": 82,
      "start": 98.9455,
      "duration": 0.1037,
      "velocity": 127,
      "chip": "ym2612"
    },
    {
      "channel": 3,
      "note": 77,
      "start": 99.0416,
      "duration": 0.1025,
      "velocity": 83,
      "chip": "ym2612"
    },
    {
      "channel": 4,
      "note": 74,
      "start": 99.0424,
      "duration": 0.1025,
      "velocity": 83,
      "chip": "ym2612"
    },
    {
      "channel": 5,
      "note": 70,
      "start": 99.0431,
      "duration": 0.1025,
      "velocity": 83,
      "chip": "ym2612"
    },
    {
      "channel": 3,
      "note": 79,
      "start": 99.1447,
      "duration": 0.0994,
      "velocity": 83,
      "chip": "ym2612"
    },
    {
      "channel": 4,
      "note": 74,
      "start": 99.1454,
      "duration": 0.099,
      "velocity": 83,
      "chip": "ym2612"
    },
    {
      "channel": 5,
      "note": 70,
      "start": 99.1462,
      "duration": 0.0986,
      "velocity": 83,
      "chip": "ym2612"
    },
    {
      "channel": 2,
      "note": 82,
      "start": 99.1472,
      "duration": 0.0433,
      "velocity": 127,
      "chip": "ym2612"
    },
    {
      "channel": 2,
      "note": 82,
      "start": 99.1954,
      "duration": 0.0455,
      "velocity": 127,
      "chip": "ym2612"
    },
    {
      "channel": 2,
      "note": 82,
      "start": 99.246,
      "duration": 0.0956,
      "velocity": 127,
      "chip": "ym2612"
    },
    {
      "channel": 3,
      "note": 77,
      "start": 99.3454,
      "duration": 0.1001,
      "velocity": 83,
      "chip": "ym2612"
    },
    {
      "channel": 4,
      "note": 74,
      "start": 99.3461,
      "duration": 0.0996,
      "velocity": 83,
      "chip": "ym2612"
    },
    {
      "channel": 5,
      "note": 70,
      "start": 99.3469,
      "duration": 0.0992,
      "velocity": 83,
      "chip": "ym2612"
    },
    {
      "channel": 2,
      "note": 82,
      "start": 99.3479,
      "duration": 0.0944,
      "velocity": 127,
      "chip": "ym2612"
    },
    {
      "channel": 2,
      "note": 82,
      "start": 99.4473,
      "duration": 0.0956,
      "velocity": 127,
      "chip": "ym2612"
    },
    {
      "channel": 1,
      "note": 51,
      "start": 99.5465,
      "duration": 0.1002,
      "velocity": 97,
      "chip": "ym2612"
    },
    {
      "channel": 3,
      "note": 79,
      "start": 99.5473,
      "duration": 0.3015,
      "velocity": 83,
      "chip": "ym2612"
    },
    {
      "channel": 4,
      "note": 74,
      "start": 99.548,
      "duration": 0.3017,
      "velocity": 83,
      "chip": "ym2612"
    },
    {
      "channel": 5,
      "note": 70,
      "start": 99.5488,
      "duration": 0.3017,
      "velocity": 83,
      "chip": "ym2612"
    },
    {
      "channel": 2,
      "note": 82,
      "start": 99.5499,
      "duration": 0.0937,
      "velocity": 127,
      "chip": "ym2612"
    },
    {
      "channel": 1,
      "note": 63,
      "start": 99.6473,
      "duration": 0.1001,
      "velocity": 97,
      "chip": "ym2612"
    },
    {
      "channel": 2,
      "note": 82,
      "start": 99.6493,
      "duration": 0.0949,
      "velocity": 127,
      "chip": "ym2612"
    },
    {
      "channel": 1,
      "note": 53,
      "start": 99.7479,
      "duration": 0.1001,
      "velocity": 97,
      "chip": "ym2612"
    },
    {
      "channel": 2,
      "note": 82,
      "start": 99.7499,
      "duration": 0.095,
      "velocity": 127,
      "chip": "ym2612"
    },
    {
      "channel": 1,
      "note": 65,
      "start": 99.8486,
      "duration": 0.1004,
      "velocity": 97,
      "chip": "ym2612"
    },
    {
      "channel": 3,
      "note": 79,
      "start": 99.8494,
      "duration": 0.3009,
      "velocity": 83,
      "chip": "ym2612"
    },
    {
      "channel": 4,
      "note": 74,
      "start": 99.8503,
      "duration": 0.3006,
      "velocity": 83,
      "chip": "ym2612"
    },
    {
      "channel": 5,
      "note": 72,
      "start": 99.8511,
      "duration": 0.3004,
      "velocity": 83,
      "chip": "ym2612"
    },
    {
      "channel": 2,
      "note": 82,
      "start": 99.8521,
      "duration": 0.0936,
      "velocity": 127,
      "chip": "ym2612"
    },
    {
      "channel": 1,
      "note": 55,
      "start": 99.9495,
      "duration": 0.2005,
      "velocity": 97,
      "chip": "ym2612"
    },
    {
      "channel": 2,
      "note": 37,
      "start": 99.9513,
      "duration": 0.0562,
      "velocity": 120,
      "chip": "ym2612"
    },
    {
      "channel": 2,
      "note": 37,
      "start": 100.0513,
      "duration": 0.0568,
      "velocity": 120,
      "chip": "ym2612"
    },
    {
      "channel": 3,
      "note": 79,
      "start": 100.1508,
      "duration": 0.0973,
      "velocity": 83,
      "chip": "ym2612"
    },
    {
      "channel": 4,
      "note": 74,
      "start": 100.1514,
      "duration": 0.0973,
      "velocity": 83,
      "chip": "ym2612"
    },
    {
      "channel": 5,
      "note": 72,
      "start": 100.152,
      "duration": 0.0975,
      "velocity": 83,
      "chip": "ym2612"
    },
    {
      "channel": 2,
      "note": 82,
      "start": 100.1531,
      "duration": 0.1058,
      "velocity": 127,
      "chip": "ym2612"
    },
    {
      "channel": 3,
      "note": 79,
      "start": 100.2485,
      "duration": 0.1032,
      "velocity": 83,
      "chip": "ym2612"
    },
    {
      "channel": 4,
      "note": 74,
      "start": 100.2493,
      "duration": 0.1032,
      "velocity": 83,
      "chip": "ym2612"
    },
    {
      "channel": 5,
      "note": 72,
      "start": 100.25,
      "duration": 0.1032,
      "velocity": 83,
      "chip": "ym2612"
    },
    {
      "channel": 3,
      "note": 77,
      "start": 100.3523,
      "duration": 0.0998,
      "velocity": 83,
      "chip": "ym2612"
    },
    {
      "channel": 4,
      "note": 74,
      "start": 100.3531,
      "duration": 0.0998,
      "velocity": 83,
      "chip": "ym2612"
    },
    {
      "channel": 5,
      "note": 72,
      "start": 100.3538,
      "duration": 0.0998,
      "velocity": 83,
      "chip": "ym2612"
    },
    {
      "channel": 2,
      "note": 37,
      "start": 100.3545,
      "duration": 0.0539,
      "velocity": 120,
      "chip": "ym2612"
    },
    {
      "channel": 3,
      "note": 79,
      "start": 100.4527,
      "duration": 0.1001,
      "velocity": 83,
      "chip": "ym2612"
    },
    {
      "channel": 4,
      "note": 74,
      "start": 100.4534,
      "duration": 0.0996,
      "velocity": 83,
      "chip": "ym2612"
    },
    {
      "channel": 5,
      "note": 72,
      "start": 100.4542,
      "duration": 0.0992,
      "velocity": 83,
      "chip": "ym2612"
    },
    {
      "channel": 2,
      "note": 37,
      "start": 100.4549,
      "duration": 0.054,
      "velocity": 120,
      "chip": "ym2612"
    },
    {
      "channel": 2,
      "note": 82,
      "start": 100.5546,
      "duration": 0.1054,
      "velocity": 127,
      "chip": "ym2612"
    },
    {
      "channel": 3,
      "note": 77,
      "start": 100.6515,
      "duration": 0.1027,
      "velocity": 83,
      "chip": "ym2612"
    },
    {
      "channel": 4,
      "note": 74,
      "start": 100.6522,
      "duration": 0.1028,
      "velocity": 83,
      "chip": "ym2612"
    },
    {
      "channel": 5,
      "note": 72,
      "start": 100.6529,
      "duration": 0.1044,
      "velocity": 83,
      "chip": "ym2612"
    },
    {
      "channel": 3,
      "note": 79,
      "start": 100.7548,
      "duration": 0.0999,
      "velocity": 83,
      "chip": "ym2612"
    },
    {
      "channel": 4,
      "note": 74,
      "start": 100.7572,
      "duration": 0.0979,
      "velocity": 83,
      "chip": "ym2612"
    },
    {
      "channel": 5,
      "note": 72,
      "start": 100.7579,
      "duration": 0.0991,
      "velocity": 83,
      "chip": "ym2612"
    },
    {
      "channel": 2,
      "note": 37,
      "start": 100.7586,
      "duration": 0.0523,
      "velocity": 120,
      "chip": "ym2612"
    },
    {
      "channel": 2,
      "note": 37,
      "start": 100.8579,
      "duration": 0.053,
      "velocity": 120,
      "chip": "ym2612"
    },
    {
      "channel": 3,
      "note": 77,
      "start": 100.9576,
      "duration": 0.0959,
      "velocity": 83,
      "chip": "ym2612"
    },
    {
      "channel": 4,
      "note": 74,
      "start": 100.9583,
      "duration": 0.0955,
      "velocity": 83,
      "chip": "ym2612"
    },
    {
      "channel": 5,
      "note": 72,
      "start": 100.9591,
      "duration": 0.095,
      "velocity": 83,
      "chip": "ym2612"
    },
    {
      "channel": 2,
      "note": 82,
      "start": 100.9601,
      "duration": 0.1017,
      "velocity": 127,
      "chip": "ym2612"
    },
    {
      "channel": 1,
      "note": 55,
      "start": 101.159,
      "duration": 0.1001,
      "velocity": 97,
      "chip": "ym2612"
    },
    {
      "channel": 3,
      "note": 79,
      "start": 101.1597,
      "duration": 0.2987,
      "velocity": 83,
      "chip": "ym2612"
    },
    {
      "channel": 4,
      "note": 74,
      "start": 101.1605,
      "duration": 0.2988,
      "velocity": 83,
      "chip": "ym2612"
    },
    {
      "channel": 5,
      "note": 72,
      "start": 101.1612,
      "duration": 0.2989,
      "velocity": 83,
      "chip": "ym2612"
    },
    {
      "channel": 2,
      "note": 37,
      "start": 101.162,
      "duration": 0.0518,
      "velocity": 120,
      "chip": "ym2612"
    },
    {
      "channel": 1,
      "note": 67,
      "start": 101.2596,
      "duration": 0.1001,
      "velocity": 97,
      "chip": "ym2612"
    },
    {
      "channel": 2,
      "note": 37,
      "start": 101.2613,
      "duration": 0.0532,
      "velocity": 120,
      "chip": "ym2612"
    },
    {
      "channel": 2,
      "note": 82,
      "start": 101.362,
      "duration": 0.1036,
      "velocity": 127,
      "chip": "ym2612"
    },
    {
      "channel": 1,
      "note": 51,
      "start": 101.4581,
      "duration": 0.3025,
      "velocity": 97,
      "chip": "ym2612"
    },
    {
      "channel": 3,
      "note": 79,
      "start": 101.459,
      "duration": 0.302,
      "velocity": 83,
      "chip": "ym2612"
    },
    {
      "channel": 4,
      "note": 74,
      "start": 101.4599,
      "duration": 0.3018,
      "velocity": 83,
      "chip": "ym2612"
    },
    {
      "channel": 5,
      "note": 70,
      "start": 101.4607,
      "duration": 0.3015,
      "velocity": 83,
      "chip": "ym2612"
    },
    {
      "channel": 2,
      "note": 37,
      "start": 101.5627,
      "duration": 0.0539,
      "velocity": 120,
      "chip": "ym2612"
    },
    {
      "channel": 2,
      "note": 37,
      "start": 101.6622,
      "duration": 0.055,
      "velocity": 120,
      "chip": "ym2612"
    },
    {
      "channel": 3,
      "note": 79,
      "start": 101.7615,
      "duration": 0.0974,
      "velocity": 83,
      "chip": "ym2612"
    },
    {
      "channel": 4,
      "note": 74,
      "start": 101.7621,
      "duration": 0.0974,
      "velocity": 83,
      "chip": "ym2612"
    },
    {
      "channel": 5,
      "note": 70,
      "start": 101.7627,
      "duration": 0.0975,
      "velocity": 83,
      "chip": "ym2612"
    },
    {
      "channel": 2,
      "note": 82,
      "start": 101.7637,
      "duration": 0.1043,
      "velocity": 127,
      "chip": "ym2612"
    },
    {
      "channel": 3,
      "note": 79,
      "start": 101.8593,
      "duration": 0.1031,
      "velocity": 83,
      "chip": "ym2612"
    },
    {
      "channel": 4,
      "note": 74,
      "start": 101.86,
      "duration": 0.1031,
      "velocity": 83,
      "chip": "ym2612"
    },
    {
      "channel": 5,
      "note": 70,
      "start": 101.8608,
      "duration": 0.103,
      "velocity": 83,
      "chip": "ym2612"
    },
    {
      "channel": 3,
      "note": 77,
      "start": 101.963,
      "duration": 0.0999,
      "velocity": 83,
      "chip": "ym2612"
    },
    {
      "channel": 4,
      "note": 74,
      "start": 101.9637,
      "duration": 0.0999,
      "velocity": 83,
      "chip": "ym2612"
    },
    {
      "channel": 5,
      "note": 70,
      "start": 101.9645,
      "duration": 0.0998,
      "velocity": 83,
      "chip": "ym2612"
    },
    {
      "channel": 2,
      "note": 37,
      "start": 101.9652,
      "duration": 0.0538,
      "velocity": 120,
      "chip": "ym2612"
    },
    {
      "channel": 3,
      "note": 79,
      "start": 102.0634,
      "duration": 0.1001,
      "velocity": 83,
      "chip": "ym2612"
    },
    {
      "channel": 4,
      "note": 74,
      "start": 102.0642,
      "duration": 0.0996,
      "velocity": 83,
      "chip": "ym2612"
    },
    {
      "channel": 5,
      "note": 70,
      "start": 102.0649,
      "duration": 0.0992,
      "velocity": 83,
      "chip": "ym2612"
    },
    {
      "channel": 2,
      "note": 37,
      "start": 102.0656,
      "duration": 0.054,
      "velocity": 120,
      "chip": "ym2612"
    },
    {
      "channel": 2,
      "note": 82,
      "start": 102.1653,
      "duration": 0.1054,
      "velocity": 127,
      "chip": "ym2612"
    },
    {
      "channel": 3,
      "note": 77,
      "start": 102.2622,
      "duration": 0.1028,
      "velocity": 83,
      "chip": "ym2612"
    },
    {
      "channel": 4,
      "note": 74,
      "start": 102.2629,
      "duration": 0.1027,
      "velocity": 83,
      "chip": "ym2612"
    },
    {
      "channel": 5,
      "note": 70,
      "start": 102.2637,
      "duration": 0.1027,
      "velocity": 83,
      "chip": "ym2612"
    },
    {
      "channel": 3,
      "note": 79,
      "start": 102.3655,
      "duration": 0.1002,
      "velocity": 83,
      "chip": "ym2612"
    },
    {
      "channel": 4,
      "note": 74,
      "start": 102.3663,
      "duration": 0.0998,
      "velocity": 83,
      "chip": "ym2612"
    },
    {
      "channel": 5,
      "note": 70,
      "start": 102.367,
      "duration": 0.0994,
      "velocity": 83,
      "chip": "ym2612"
    },
    {
      "channel": 2,
      "note": 37,
      "start": 102.3678,
      "duration": 0.0539,
      "velocity": 120,
      "chip": "ym2612"
    },
    {
      "channel": 2,
      "note": 37,
      "start": 102.4672,
      "duration": 0.0543,
      "velocity": 120,
      "chip": "ym2612"
    },
    {
      "channel": 3,
      "note": 77,
      "start": 102.5667,
      "duration": 0.1001,
      "velocity": 83,
      "chip": "ym2612"
    },
    {
      "channel": 4,
      "note": 74,
      "start": 102.5675,
      "duration": 0.0997,
      "velocity": 83,
      "chip": "ym2612"
    },
    {
      "channel": 5,
      "note": 70,
      "start": 102.5682,
      "duration": 0.0993,
      "velocity": 83,
      "chip": "ym2612"
    },
    {
      "channel": 2,
      "note": 37,
      "start": 102.569,
      "duration": 0.0557,
      "velocity": 120,
      "chip": "ym2612"
    },
    {
      "channel": 2,
      "note": 37,
      "start": 102.6684,
      "duration": 0.0562,
      "velocity": 120,
      "chip": "ym2612"
    },
    {
      "channel": 1,
      "note": 51,
      "start": 102.7681,
      "duration": 0.1,
      "velocity": 97,
      "chip": "ym2612"
    },
    {
      "channel": 3,
      "note": 79,
      "start": 102.7688,
      "duration": 0.2988,
      "velocity": 83,
      "chip": "ym2612"
    },
    {
      "channel": 4,
      "note": 74,
      "start": 102.7696,
      "duration": 0.2989,
      "velocity": 83,
      "chip": "ym2612"
    },
    {
      "channel": 5,
      "note": 70,
      "start": 102.7704,
      "duration": 0.2989,
      "velocity": 83,
      "chip": "ym2612"
    },
    {
      "channel": 2,
      "note": 37,
      "start": 102.771,
      "duration": 0.0543,
      "velocity": 120,
      "chip": "ym2612"
    },
    {
      "channel": 1,
      "note": 63,
      "start": 102.8687,
      "duration": 0.1,
      "velocity": 97,
      "chip": "ym2612"
    },
    {
      "channel": 2,
      "note": 37,
      "start": 102.8704,
      "duration": 0.055,
      "velocity": 120,
      "chip": "ym2612"
    },
    {
      "channel": 2,
      "note": 82,
      "start": 102.971,
      "duration": 0.1053,
      "velocity": 127,
      "chip": "ym2612"
    },
    {
      "channel": 1,
      "note": 55,
      "start": 103.0674,
      "duration": 0.304,
      "velocity": 97,
      "chip": "ym2612"
    },
    {
      "channel": 3,
      "note": 79,
      "start": 103.0683,
      "duration": 0.3034,
      "velocity": 83,
      "chip": "ym2612"
    },
    {
      "channel": 4,
      "note": 74,
      "start": 103.0691,
      "duration": 0.3049,
      "velocity": 83,
      "chip": "ym2612"
    },
    {
      "channel": 5,
      "note": 72,
      "start": 103.0698,
      "duration": 0.3047,
      "velocity": 83,
      "chip": "ym2612"
    },
    {
      "channel": 2,
      "note": 37,
      "start": 103.1738,
      "duration": 0.0535,
      "velocity": 120,
      "chip": "ym2612"
    },
    {
      "channel": 2,
      "note": 37,
      "start": 103.2744,
      "duration": 0.0536,
      "velocity": 120,
      "chip": "ym2612"
    },
    {
      "channel": 3,
      "note": 79,
      "start": 103.3738,
      "duration": 0.0957,
      "velocity": 83,
      "chip": "ym2612"
    },
    {
      "channel": 4,
      "note": 74,
      "start": 103.3744,
      "duration": 0.0957,
      "velocity": 83,
      "chip": "ym2612"
    },
    {
      "channel": 5,
      "note": 72,
      "start": 103.375,
      "duration": 0.0959,
      "velocity": 83,
      "chip": "ym2612"
    },
    {
      "channel": 2,
      "note": 82,
      "start": 103.376,
      "duration": 0.1027,
      "velocity": 127,
      "chip": "ym2612"
    },
    {
      "channel": 3,
      "note": 79,
      "start": 103.47,
      "duration": 0.1051,
      "velocity": 83,
      "chip": "ym2612"
    },
    {
      "channel": 4,
      "note": 74,
      "start": 103.4707,
      "duration": 0.1051,
      "velocity": 83,
      "chip": "ym2612"
    },
    {
      "channel": 5,
      "note": 72,
      "start": 103.4714,
      "duration": 0.1051,
      "velocity": 83,
      "chip": "ym2612"
    },
    {
      "channel": 3,
      "note": 77,
      "start": 103.5756,
      "duration": 0.0995,
      "velocity": 83,
      "chip": "ym2612"
    },
    {
      "channel": 4,
      "note": 74,
      "start": 103.5764,
      "duration": 0.0995,
      "velocity": 83,
      "chip": "ym2612"
    },
    {
      "channel": 5,
      "note": 72,
      "start": 103.5772,
      "duration": 0.0994,
      "velocity": 83,
      "chip": "ym2612"
    },
    {
      "channel": 2,
      "note": 37,
      "start": 103.5779,
      "duration": 0.0518,
      "velocity": 120,
      "chip": "ym2612"
    },
    {
      "channel": 3,
      "note": 79,
      "start": 103.6757,
      "duration": 0.1001,
      "velocity": 83,
      "chip": "ym2612"
    },
    {
      "channel": 4,
      "note": 74,
      "start": 103.6765,
      "duration": 0.0996,
      "velocity": 83,
      "chip": "ym2612"
    },
    {
      "channel": 5,
      "note": 72,
      "start": 103.6772,
      "duration": 0.0992,
      "velocity": 83,
      "chip": "ym2612"
    },
    {
      "channel": 2,
      "note": 37,
      "start": 103.6779,
      "duration": 0.0525,
      "velocity": 120,
      "chip": "ym2612"
    },
    {
      "channel": 2,
      "note": 82,
      "start": 103.7776,
      "duration": 0.1039,
      "velocity": 127,
      "chip": "ym2612"
    },
    {
      "channel": 3,
      "note": 77,
      "start": 103.8745,
      "duration": 0.1027,
      "velocity": 83,
      "chip": "ym2612"
    },
    {
      "channel": 4,
      "note": 74,
      "start": 103.8752,
      "duration": 0.1027,
      "velocity": 83,
      "chip": "ym2612"
    },
    {
      "channel": 5,
      "note": 72,
      "start": 103.8759,
      "duration": 0.1027,
      "velocity": 83,
      "chip": "ym2612"
    },
    {
      "channel": 3,
      "note": 79,
      "start": 103.9777,
      "duration": 0.0993,
      "velocity": 83,
      "chip": "ym2612"
    },
    {
      "channel": 4,
      "note": 74,
      "start": 103.9785,
      "duration": 0.0988,
      "velocity": 83,
      "chip": "ym2612"
    },
    {
      "channel": 5,
      "note": 72,
      "start": 103.9793,
      "duration": 0.0984,
      "velocity": 83,
      "chip": "ym2612"
    },
    {
      "channel": 2,
      "note": 37,
      "start": 103.98,
      "duration": 0.0524,
      "velocity": 120,
      "chip": "ym2612"
    },
    {
      "channel": 2,
      "note": 37,
      "start": 104.0785,
      "duration": 0.0537,
      "velocity": 120,
      "chip": "ym2612"
    },
    {
      "channel": 3,
      "note": 77,
      "start": 104.1776,
      "duration": 0.0974,
      "velocity": 83,
      "chip": "ym2612"
    },
    {
      "channel": 4,
      "note": 74,
      "start": 104.1783,
      "duration": 0.097,
      "velocity": 83,
      "chip": "ym2612"
    },
    {
      "channel": 5,
      "note": 72,
      "start": 104.1791,
      "duration": 0.0965,
      "velocity": 83,
      "chip": "ym2612"
    },
    {
      "channel": 2,
      "note": 82,
      "start": 104.1801,
      "duration": 0.1032,
      "velocity": 127,
      "chip": "ym2612"
    },
    {
      "channel": 1,
      "note": 55,
      "start": 104.3787,
      "duration": 0.1001,
      "velocity": 97,
      "chip": "ym2612"
    },
    {
      "channel": 3,
      "note": 79,
      "start": 104.3795,
      "duration": 0.2988,
      "velocity": 83,
      "chip": "ym2612"
    },
    {
      "channel": 4,
      "note": 74,
      "start": 104.3803,
      "duration": 0.2989,
      "velocity": 83,
      "chip": "ym2612"
    },
    {
      "channel": 5,
      "note": 72,
      "start": 104.381,
      "duration": 0.299,
      "velocity": 83,
      "chip": "ym2612"
    },
    {
      "channel": 2,
      "note": 37,
      "start": 104.3817,
      "duration": 0.0535,
      "velocity": 120,
      "chip": "ym2612"
    },
    {
      "channel": 1,
      "note": 67,
      "start": 104.4794,
      "duration": 0.1001,
      "velocity": 97,
      "chip": "ym2612"
    },
    {
      "channel": 2,
      "note": 37,
      "start": 104.4812,
      "duration": 0.0549,
      "velocity": 120,
      "chip": "ym2612"
    },
    {
      "channel": 2,
      "note": 82,
      "start": 104.5817,
      "duration": 0.1054,
      "velocity": 127,
      "chip": "ym2612"
    },
    {
      "channel": 1,
      "note": 51,
      "start": 104.6781,
      "duration": 0.3041,
      "velocity": 97,
      "chip": "ym2612"
    },
    {
      "channel": 3,
      "note": 79,
      "start": 104.6789,
      "duration": 0.3036,
      "velocity": 83,
      "chip": "ym2612"
    },
    {
      "channel": 4,
      "note": 74,
      "start": 104.6798,
      "duration": 0.3032,
      "velocity": 83,
      "chip": "ym2612"
    },
    {
      "channel": 5,
      "note": 70,
      "start": 104.6807,
      "duration": 0.3031,
      "velocity": 83,
      "chip": "ym2612"
    },
    {
      "channel": 2,
      "note": 37,
      "start": 104.7828,
      "duration": 0.0552,
      "velocity": 120,
      "chip": "ym2612"
    },
    {
      "channel": 2,
      "note": 37,
      "start": 104.8834,
      "duration": 0.0569,
      "velocity": 120,
      "chip": "ym2612"
    },
    {
      "channel": 3,
      "note": 79,
      "start": 104.9829,
      "duration": 0.0973,
      "velocity": 83,
      "chip": "ym2612"
    },
    {
      "channel": 4,
      "note": 74,
      "start": 104.9835,
      "duration": 0.0974,
      "velocity": 83,
      "chip": "ym2612"
    },
    {
      "channel": 5,
      "note": 70,
      "start": 104.9841,
      "duration": 0.0975,
      "velocity": 83,
      "chip": "ym2612"
    },
    {
      "channel": 2,
      "note": 82,
      "start": 104.9852,
      "duration": 0.1059,
      "velocity": 127,
      "chip": "ym2612"
    },
    {
      "channel": 3,
      "note": 79,
      "start": 105.0807,
      "duration": 0.1031,
      "velocity": 83,
      "chip": "ym2612"
    },
    {
      "channel": 4,
      "note": 74,
      "start": 105.0815,
      "duration": 0.1031,
      "velocity": 83,
      "chip": "ym2612"
    },
    {
      "channel": 5,
      "note": 70,
      "start": 105.0822,
      "duration": 0.1031,
      "velocity": 83,
      "chip": "ym2612"
    },
    {
      "channel": 3,
      "note": 77,
      "start": 105.1844,
      "duration": 0.0998,
      "velocity": 83,
      "chip": "ym2612"
    },
    {
      "channel": 4,
      "note": 74,
      "start": 105.1852,
      "duration": 0.0998,
      "velocity": 83,
      "chip": "ym2612"
    },
    {
      "channel": 5,
      "note": 70,
      "start": 105.1859,
      "duration": 0.0998,
      "velocity": 83,
      "chip": "ym2612"
    },
    {
      "channel": 2,
      "note": 37,
      "start": 105.1866,
      "duration": 0.0551,
      "velocity": 120,
      "chip": "ym2612"
    },
    {
      "channel": 3,
      "note": 79,
      "start": 105.2848,
      "duration": 0.1001,
      "velocity": 83,
      "chip": "ym2612"
    },
    {
      "channel": 4,
      "note": 74,
      "start": 105.2856,
      "duration": 0.0996,
      "velocity": 83,
      "chip": "ym2612"
    },
    {
      "channel": 5,
      "note": 70,
      "start": 105.2863,
      "duration": 0.0992,
      "velocity": 83,
      "chip": "ym2612"
    },
    {
      "channel": 2,
      "note": 37,
      "start": 105.287,
      "duration": 0.0548,
      "velocity": 120,
      "chip": "ym2612"
    },
    {
      "channel": 2,
      "note": 82,
      "start": 105.3867,
      "duration": 0.1055,
      "velocity": 127,
      "chip": "ym2612"
    },
    {
      "channel": 3,
      "note": 77,
      "start": 105.4834,
      "duration": 0.1029,
      "velocity": 83,
      "chip": "ym2612"
    },
    {
      "channel": 4,
      "note": 74,
      "start": 105.4842,
      "duration": 0.1029,
      "velocity": 83,
      "chip": "ym2612"
    },
    {
      "channel": 5,
      "note": 70,
      "start": 105.485,
      "duration": 0.1029,
      "velocity": 83,
      "chip": "ym2612"
    },
    {
      "channel": 3,
      "note": 79,
      "start": 105.587,
      "duration": 0.1,
      "velocity": 83,
      "chip": "ym2612"
    },
    {
      "channel": 4,
      "note": 74,
      "start": 105.5877,
      "duration": 0.0996,
      "velocity": 83,
      "chip": "ym2612"
    },
    {
      "channel": 5,
      "note": 70,
      "start": 105.5885,
      "duration": 0.0991,
      "velocity": 83,
      "chip": "ym2612"
    },
    {
      "channel": 2,
      "note": 82,
      "start": 105.5911,
      "duration": 0.0423,
      "velocity": 127,
      "chip": "ym2612"
    },
    {
      "channel": 2,
      "note": 82,
      "start": 105.6383,
      "duration": 0.0454,
      "velocity": 127,
      "chip": "ym2612"
    },
    {
      "channel": 2,
      "note": 82,
      "start": 105.6904,
      "duration": 0.094,
      "velocity": 127,
      "chip": "ym2612"
    },
    {
      "channel": 3,
      "note": 77,
      "start": 105.7882,
      "duration": 0.1001,
      "velocity": 83,
      "chip": "ym2612"
    },
    {
      "channel": 4,
      "note": 74,
      "start": 105.7906,
      "duration": 0.0995,
      "velocity": 83,
      "chip": "ym2612"
    },
    {
      "channel": 5,
      "note": 70,
      "start": 105.7913,
      "duration": 0.0992,
      "velocity": 83,
      "chip": "ym2612"
    },
    {
      "channel": 2,
      "note": 82,
      "start": 105.7924,
      "duration": 0.0927,
      "velocity": 127,
      "chip": "ym2612"
    },
    {
      "channel": 2,
      "note": 82,
      "start": 105.8917,
      "duration": 0.0941,
      "velocity": 127,
      "chip": "ym2612"
    },
    {
      "channel": 1,
      "note": 51,
      "start": 105.9911,
      "duration": 0.1001,
      "velocity": 97,
      "chip": "ym2612"
    },
    {
      "channel": 3,
      "note": 79,
      "start": 105.9919,
      "duration": 0.3015,
      "velocity": 83,
      "chip": "ym2612"
    },
    {
      "channel": 4,
      "note": 74,
      "start": 105.9926,
      "duration": 0.3016,
      "velocity": 83,
      "chip": "ym2612"
    },
    {
      "channel": 5,
      "note": 70,
      "start": 105.9934,
      "duration": 0.3016,
      "velocity": 83,
      "chip": "ym2612"
    },
    {
      "channel": 2,
      "note": 82,
      "start": 105.9944,
      "duration": 0.092,
      "velocity": 127,
      "chip": "ym2612"
    },
    {
      "channel": 1,
      "note": 63,
      "start": 106.0917,
      "duration": 0.1001,
      "velocity": 97,
      "chip": "ym2612"
    },
    {
      "channel": 2,
      "note": 82,
      "start": 106.0938,
      "duration": 0.0933,
      "velocity": 127,
      "chip": "ym2612"
    },
    {
      "channel": 1,
      "note": 53,
      "start": 106.1924,
      "duration": 0.1001,
      "velocity": 97,
      "chip": "ym2612"
    },
    {
      "channel": 2,
      "note": 82,
      "start": 106.1945,
      "duration": 0.0933,
      "velocity": 127,
      "chip": "ym2612"
    },
    {
      "channel": 1,
      "note": 65,
      "start": 106.2931,
      "duration": 0.1005,
      "velocity": 97,
      "chip": "ym2612"
    },
    {
      "channel": 3,
      "note": 79,
      "start": 106.2939,
      "duration": 0.2999,
      "velocity": 83,
      "chip": "ym2612"
    },
    {
      "channel": 4,
      "note": 74,
      "start": 106.2948,
      "duration": 0.2997,
      "velocity": 83,
      "chip": "ym2612"
    },
    {
      "channel": 5,
      "note": 72,
      "start": 106.2956,
      "duration": 0.2995,
      "velocity": 83,
      "chip": "ym2612"
    },
    {
      "channel": 2,
      "note": 82,
      "start": 106.2966,
      "duration": 0.0935,
      "velocity": 127,
      "chip": "ym2612"
    },
    {
      "channel": 1,
      "note": 55,
      "start": 106.3941,
      "duration": 0.1994,
      "velocity": 97,
      "chip": "ym2612"
    },
    {
      "channel": 2,
      "note": 37,
      "start": 106.3958,
      "duration": 0.0528,
      "velocity": 120,
      "chip": "ym2612"
    },
    {
      "channel": 2,
      "note": 37,
      "start": 106.4955,
      "duration": 0.0539,
      "velocity": 120,
      "chip": "ym2612"
    },
    {
      "channel": 3,
      "note": 79,
      "start": 106.5943,
      "duration": 0.0971,
      "velocity": 83,
      "chip": "ym2612"
    },
    {
      "channel": 4,
      "note": 74,
      "start": 106.5949,
      "duration": 0.0971,
      "velocity": 83,
      "chip": "ym2612"
    },
    {
      "channel": 5,
      "note": 72,
      "start": 106.5955,
      "duration": 0.0973,
      "velocity": 83,
      "chip": "ym2612"
    },
    {
      "channel": 2,
      "note": 82,
      "start": 106.5966,
      "duration": 0.1036,
      "velocity": 127,
      "chip": "ym2612"
    },
    {
      "channel": 3,
      "note": 79,
      "start": 106.6919,
      "duration": 0.1026,
      "velocity": 83,
      "chip": "ym2612"
    },
    {
      "channel": 4,
      "note": 74,
      "start": 106.6927,
      "duration": 0.1026,
      "velocity": 83,
      "chip": "ym2612"
    },
    {
      "channel": 5,
      "note": 72,
      "start": 106.6934,
      "duration": 0.1027,
      "velocity": 83,
      "chip": "ym2612"
    },
    {
      "channel": 3,
      "note": 77,
      "start": 106.7952,
      "duration": 0.0997,
      "velocity": 83,
      "chip": "ym2612"
    },
    {
      "channel": 4,
      "note": 74,
      "start": 106.7959,
      "duration": 0.0998,
      "velocity": 83,
      "chip": "ym2612"
    },
    {
      "channel": 5,
      "note": 72,
      "start": 106.7966,
      "duration": 0.0998,
      "velocity": 83,
      "chip": "ym2612"
    },
    {
      "channel": 2,
      "note": 37,
      "start": 106.7974,
      "duration": 0.0537,
      "velocity": 120,
      "chip": "ym2612"
    },
    {
      "channel": 3,
      "note": 79,
      "start": 106.8956,
      "duration": 0.1,
      "velocity": 83,
      "chip": "ym2612"
    },
    {
      "channel": 4,
      "note": 74,
      "start": 106.8962,
      "duration": 0.0997,
      "velocity": 83,
      "chip": "ym2612"
    },
    {
      "channel": 5,
      "note": 72,
      "start": 106.897,
      "duration": 0.0992,
      "velocity": 83,
      "chip": "ym2612"
    },
    {
      "channel": 2,
      "note": 37,
      "start": 106.8977,
      "duration": 0.0541,
      "velocity": 120,
      "chip": "ym2612"
    },
    {
      "channel": 2,
      "note": 82,
      "start": 106.9975,
      "duration": 0.1054,
      "velocity": 127,
      "chip": "ym2612"
    },
    {
      "channel": 3,
      "note": 77,
      "start": 107.0943,
      "duration": 0.1028,
      "velocity": 83,
      "chip": "ym2612"
    },
    {
      "channel": 4,
      "note": 74,
      "start": 107.095,
      "duration": 0.1027,
      "velocity": 83,
      "chip": "ym2612"
    },
    {
      "channel": 5,
      "note": 72,
      "start": 107.0957,
      "duration": 0.1028,
      "velocity": 83,
      "chip": "ym2612"
    },
    {
      "channel": 3,
      "note": 79,
      "start": 107.1976,
      "duration": 0.1001,
      "velocity": 83,
      "chip": "ym2612"
    },
    {
      "channel": 4,
      "note": 74,
      "start": 107.1984,
      "duration": 0.0996,
      "velocity": 83,
      "chip": "ym2612"
    },
    {
      "channel": 5,
      "note": 72,
      "start": 107.1991,
      "duration": 0.0992,
      "velocity": 83,
      "chip": "ym2612"
    },
    {
      "channel": 2,
      "note": 37,
      "start": 107.1999,
      "duration": 0.0539,
      "velocity": 120,
      "chip": "ym2612"
    },
    {
      "channel": 2,
      "note": 37,
      "start": 107.2992,
      "duration": 0.0545,
      "velocity": 120,
      "chip": "ym2612"
    },
    {
      "channel": 3,
      "note": 77,
      "start": 107.3989,
      "duration": 0.0974,
      "velocity": 83,
      "chip": "ym2612"
    },
    {
      "channel": 4,
      "note": 74,
      "start": 107.3996,
      "duration": 0.097,
      "velocity": 83,
      "chip": "ym2612"
    },
    {
      "channel": 5,
      "note": 72,
      "start": 107.4004,
      "duration": 0.0966,
      "velocity": 83,
      "chip": "ym2612"
    },
    {
      "channel": 2,
      "note": 82,
      "start": 107.4014,
      "duration": 0.1033,
      "velocity": 127,
      "chip": "ym2612"
    },
    {
      "channel": 1,
      "note": 55,
      "start": 107.6001,
      "duration": 0.1001,
      "velocity": 97,
      "chip": "ym2612"
    },
    {
      "channel": 3,
      "note": 79,
      "start": 107.6009,
      "duration": 0.2989,
      "velocity": 83,
      "chip": "ym2612"
    },
    {
      "channel": 4,
      "note": 74,
      "start": 107.6017,
      "duration": 0.2989,
      "velocity": 83,
      "chip": "ym2612"
    },
    {
      "channel": 5,
      "note": 72,
      "start": 107.6024,
      "duration": 0.299,
      "velocity": 83,
      "chip": "ym2612"
    },
    {
      "channel": 2,
      "note": 37,
      "start": 107.6031,
      "duration": 0.0552,
      "velocity": 120,
      "chip": "ym2612"
    },
    {
      "channel": 1,
      "note": 67,
      "start": 107.7008,
      "duration": 0.1002,
      "velocity": 97,
      "chip": "ym2612"
    },
    {
      "channel": 2,
      "note": 37,
      "start": 107.7025,
      "duration": 0.0561,
      "velocity": 120,
      "chip": "ym2612"
    },
    {
      "channel": 2,
      "note": 82,
      "start": 107.8032,
      "duration": 0.1056,
      "velocity": 127,
      "chip": "ym2612"
    },
    {
      "channel": 1,
      "note": 51,
      "start": 107.8995,
      "duration": 0.3041,
      "velocity": 97,
      "chip": "ym2612"
    },
    {
      "channel": 3,
      "note": 79,
      "start": 107.9003,
      "duration": 0.3036,
      "velocity": 83,
      "chip": "ym2612"
    },
    {
      "channel": 4,
      "note": 74,
      "start": 107.9012,
      "duration": 0.3032,
      "velocity": 83,
      "chip": "ym2612"
    },
    {
      "channel": 5,
      "note": 70,
      "start": 107.902,
      "duration": 0.303,
      "velocity": 83,
      "chip": "ym2612"
    },
    {
      "channel": 2,
      "note": 37,
      "start": 108.0043,
      "duration": 0.0551,
      "velocity": 120,
      "chip": "ym2612"
    },
    {
      "channel": 2,
      "note": 37,
      "start": 108.1049,
      "duration": 0.0552,
      "velocity": 120,
      "chip": "ym2612"
    },
    {
      "channel": 3,
      "note": 79,
      "start": 108.2043,
      "duration": 0.0973,
      "velocity": 83,
      "chip": "ym2612"
    },
    {
      "channel": 4,
      "note": 74,
      "start": 108.2049,
      "duration": 0.0973,
      "velocity": 83,
      "chip": "ym2612"
    },
    {
      "channel": 5,
      "note": 70,
      "start": 108.2071,
      "duration": 0.0959,
      "velocity": 83,
      "chip": "ym2612"
    },
    {
      "channel": 2,
      "note": 82,
      "start": 108.2082,
      "duration": 0.1027,
      "velocity": 127,
      "chip": "ym2612"
    },
    {
      "channel": 3,
      "note": 79,
      "start": 108.3021,
      "duration": 0.1048,
      "velocity": 83,
      "chip": "ym2612"
    },
    {
      "channel": 4,
      "note": 74,
      "start": 108.3028,
      "duration": 0.1049,
      "velocity": 83,
      "chip": "ym2612"
    },
    {
      "channel": 5,
      "note": 70,
      "start": 108.3036,
      "duration": 0.1048,
      "velocity": 83,
      "chip": "ym2612"
    },
    {
      "channel": 3,
      "note": 77,
      "start": 108.4075,
      "duration": 0.0998,
      "velocity": 83,
      "chip": "ym2612"
    },
    {
      "channel": 4,
      "note": 74,
      "start": 108.4082,
      "duration": 0.0998,
      "velocity": 83,
      "chip": "ym2612"
    },
    {
      "channel": 5,
      "note": 70,
      "start": 108.409,
      "duration": 0.0998,
      "velocity": 83,
      "chip": "ym2612"
    },
    {
      "channel": 2,
      "note": 37,
      "start": 108.4097,
      "duration": 0.0522,
      "velocity": 120,
      "chip": "ym2612"
    },
    {
      "channel": 3,
      "note": 79,
      "start": 108.5078,
      "duration": 0.1001,
      "velocity": 83,
      "chip": "ym2612"
    },
    {
      "channel": 4,
      "note": 74,
      "start": 108.5086,
      "duration": 0.0996,
      "velocity": 83,
      "chip": "ym2612"
    },
    {
      "channel": 5,
      "note": 70,
      "start": 108.5093,
      "duration": 0.0993,
      "velocity": 83,
      "chip": "ym2612"
    },
    {
      "channel": 2,
      "note": 37,
      "start": 108.51,
      "duration": 0.0525,
      "velocity": 120,
      "chip": "ym2612"
    },
    {
      "channel": 2,
      "note": 82,
      "start": 108.6097,
      "duration": 0.1039,
      "velocity": 127,
      "chip": "ym2612"
    },
    {
      "channel": 3,
      "note": 77,
      "start": 108.705,
      "duration": 0.1044,
      "velocity": 83,
      "chip": "ym2612"
    },
    {
      "channel": 4,
      "note": 74,
      "start": 108.7073,
      "duration": 0.1029,
      "velocity": 83,
      "chip": "ym2612"
    },
    {
      "channel": 5,
      "note": 70,
      "start": 108.7081,
      "duration": 0.1029,
      "velocity": 83,
      "chip": "ym2612"
    },
    {
      "channel": 3,
      "note": 79,
      "start": 108.81,
      "duration": 0.1001,
      "velocity": 83,
      "chip": "ym2612"
    },
    {
      "channel": 4,
      "note": 74,
      "start": 108.8107,
      "duration": 0.0998,
      "velocity": 83,
      "chip": "ym2612"
    },
    {
      "channel": 5,
      "note": 70,
      "start": 108.8115,
      "duration": 0.0993,
      "velocity": 83,
      "chip": "ym2612"
    },
    {
      "channel": 2,
      "note": 37,
      "start": 108.8122,
      "duration": 0.0522,
      "velocity": 120,
      "chip": "ym2612"
    },
    {
      "channel": 2,
      "note": 37,
      "start": 108.9117,
      "duration": 0.0526,
      "velocity": 120,
      "chip": "ym2612"
    },
    {
      "channel": 3,
      "note": 77,
      "start": 109.011,
      "duration": 0.0994,
      "velocity": 83,
      "chip": "ym2612"
    },
    {
      "channel": 4,
      "note": 74,
      "start": 109.0117,
      "duration": 0.099,
      "velocity": 83,
      "chip": "ym2612"
    },
    {
      "channel": 5,
      "note": 70,
      "start": 109.0125,
      "duration": 0.0985,
      "velocity": 83,
      "chip": "ym2612"
    },
    {
      "channel": 2,
      "note": 37,
      "start": 109.0132,
      "duration": 0.0526,
      "velocity": 120,
      "chip": "ym2612"
    },
    {
      "channel": 2,
      "note": 37,
      "start": 109.1119,
      "duration": 0.0539,
      "velocity": 120,
      "chip": "ym2612"
    },
    {
      "channel": 1,
      "note": 51,
      "start": 109.2108,
      "duration": 0.1002,
      "velocity": 97,
      "chip": "ym2612"
    },
    {
      "channel": 3,
      "note": 79,
      "start": 109.2116,
      "duration": 0.2989,
      "velocity": 83,
      "chip": "ym2612"
    },
    {
      "channel": 4,
      "note": 74,
      "start": 109.2123,
      "duration": 0.2989,
      "velocity": 83,
      "chip": "ym2612"
    },
    {
      "channel": 5,
      "note": 70,
      "start": 109.2131,
      "duration": 0.2989,
      "velocity": 83,
      "chip": "ym2612"
    },
    {
      "channel": 2,
      "note": 37,
      "start": 109.2139,
      "duration": 0.0536,
      "velocity": 120,
      "chip": "ym2612"
    },
    {
      "channel": 1,
      "note": 63,
      "start": 109.3116,
      "duration": 0.1,
      "velocity": 97,
      "chip": "ym2612"
    },
    {
      "channel": 2,
      "note": 37,
      "start": 109.3133,
      "duration": 0.0548,
      "velocity": 120,
      "chip": "ym2612"
    },
    {
      "channel": 2,
      "note": 82,
      "start": 109.4138,
      "duration": 0.1053,
      "velocity": 127,
      "chip": "ym2612"
    },
    {
      "channel": 1,
      "note": 55,
      "start": 109.5102,
      "duration": 0.3041,
      "velocity": 97,
      "chip": "ym2612"
    },
    {
      "channel": 3,
      "note": 79,
      "start": 109.5111,
      "duration": 0.3036,
      "velocity": 83,
      "chip": "ym2612"
    },
    {
      "channel": 4,
      "note": 74,
      "start": 109.5119,
      "duration": 0.3033,
      "velocity": 83,
      "chip": "ym2612"
    },
    {
      "channel": 5,
      "note": 72,
      "start": 109.5127,
      "duration": 0.3032,
      "velocity": 83,
      "chip": "ym2612"
    },
    {
      "channel": 2,
      "note": 37,
      "start": 109.6151,
      "duration": 0.055,
      "velocity": 120,
      "chip": "ym2612"
    },
    {
      "channel": 2,
      "note": 37,
      "start": 109.7155,
      "duration": 0.0552,
      "velocity": 120,
      "chip": "ym2612"
    },
    {
      "channel": 3,
      "note": 79,
      "start": 109.8151,
      "duration": 0.0973,
      "velocity": 83,
      "chip": "ym2612"
    },
    {
      "channel": 4,
      "note": 74,
      "start": 109.8156,
      "duration": 0.0973,
      "velocity": 83,
      "chip": "ym2612"
    },
    {
      "channel": 5,
      "note": 72,
      "start": 109.8163,
      "duration": 0.0975,
      "velocity": 83,
      "chip": "ym2612"
    },
    {
      "channel": 2,
      "note": 82,
      "start": 109.8173,
      "duration": 0.1043,
      "velocity": 127,
      "chip": "ym2612"
    },
    {
      "channel": 3,
      "note": 79,
      "start": 109.9129,
      "duration": 0.1035,
      "velocity": 83,
      "chip": "ym2612"
    },
    {
      "channel": 4,
      "note": 74,
      "start": 109.9135,
      "duration": 0.1036,
      "velocity": 83,
      "chip": "ym2612"
    },
    {
      "channel": 5,
      "note": 72,
      "start": 109.9143,
      "duration": 0.1035,
      "velocity": 83,
      "chip": "ym2612"
    },
    {
      "channel": 3,
      "note": 77,
      "start": 110.0169,
      "duration": 0.0995,
      "velocity": 83,
      "chip": "ym2612"
    },
    {
      "channel": 4,
      "note": 74,
      "start": 110.0177,
      "duration": 0.0995,
      "velocity": 83,
      "chip": "ym2612"
    },
    {
      "channel": 5,
      "note": 72,
      "start": 110.0184,
      "duration": 0.0994,
      "velocity": 83,
      "chip": "ym2612"
    },
    {
      "channel": 2,
      "note": 37,
      "start": 110.0191,
      "duration": 0.055,
      "velocity": 120,
      "chip": "ym2612"
    },
    {
      "channel": 3,
      "note": 79,
      "start": 110.117,
      "duration": 0.1001,
      "velocity": 83,
      "chip": "ym2612"
    },
    {
      "channel": 4,
      "note": 74,
      "start": 110.1178,
      "duration": 0.0996,
      "velocity": 83,
      "chip": "ym2612"
    },
    {
      "channel": 5,
      "note": 72,
      "start": 110.1185,
      "duration": 0.0992,
      "velocity": 83,
      "chip": "ym2612"
    },
    {
      "channel": 2,
      "note": 37,
      "start": 110.1192,
      "duration": 0.0556,
      "velocity": 120,
      "chip": "ym2612"
    },
    {
      "channel": 2,
      "note": 82,
      "start": 110.2189,
      "duration": 0.1063,
      "velocity": 127,
      "chip": "ym2612"
    },
    {
      "channel": 3,
      "note": 77,
      "start": 110.3156,
      "duration": 0.1029,
      "velocity": 83,
      "chip": "ym2612"
    },
    {
      "channel": 4,
      "note": 74,
      "start": 110.3164,
      "duration": 0.1029,
      "velocity": 83,
      "chip": "ym2612"
    },
    {
      "channel": 5,
      "note": 72,
      "start": 110.3172,
      "duration": 0.1029,
      "velocity": 83,
      "chip": "ym2612"
    },
    {
      "channel": 3,
      "note": 79,
      "start": 110.4191,
      "duration": 0.0999,
      "velocity": 83,
      "chip": "ym2612"
    },
    {
      "channel": 4,
      "note": 74,
      "start": 110.4198,
      "duration": 0.0996,
      "velocity": 83,
      "chip": "ym2612"
    },
    {
      "channel": 5,
      "note": 72,
      "start": 110.4206,
      "duration": 0.0991,
      "velocity": 83,
      "chip": "ym2612"
    },
    {
      "channel": 2,
      "note": 37,
      "start": 110.4213,
      "duration": 0.0539,
      "velocity": 120,
      "chip": "ym2612"
    },
    {
      "channel": 2,
      "note": 37,
      "start": 110.5206,
      "duration": 0.0545,
      "velocity": 120,
      "chip": "ym2612"
    },
    {
      "channel": 3,
      "note": 77,
      "start": 110.6203,
      "duration": 0.0975,
      "velocity": 83,
      "chip": "ym2612"
    },
    {
      "channel": 4,
      "note": 74,
      "start": 110.621,
      "duration": 0.097,
      "velocity": 83,
      "chip": "ym2612"
    },
    {
      "channel": 5,
      "note": 72,
      "start": 110.6234,
      "duration": 0.095,
      "velocity": 83,
      "chip": "ym2612"
    },
    {
      "channel": 2,
      "note": 82,
      "start": 110.6244,
      "duration": 0.1017,
      "velocity": 127,
      "chip": "ym2612"
    },
    {
      "channel": 1,
      "note": 55,
      "start": 110.8216,
      "duration": 0.1001,
      "velocity": 97,
      "chip": "ym2612"
    },
    {
      "channel": 3,
      "note": 79,
      "start": 110.824,
      "duration": 0.2972,
      "velocity": 83,
      "chip": "ym2612"
    },
    {
      "channel": 4,
      "note": 74,
      "start": 110.8247,
      "duration": 0.2989,
      "velocity": 83,
      "chip": "ym2612"
    },
    {
      "channel": 5,
      "note": 72,
      "start": 110.8255,
      "duration": 0.299,
      "velocity": 83,
      "chip": "ym2612"
    },
    {
      "channel": 2,
      "note": 37,
      "start": 110.8263,
      "duration": 0.0518,
      "velocity": 120,
      "chip": "ym2612"
    },
    {
      "channel": 1,
      "note": 67,
      "start": 110.9239,
      "duration": 0.1001,
      "velocity": 97,
      "chip": "ym2612"
    },
    {
      "channel": 2,
      "note": 37,
      "start": 110.9256,
      "duration": 0.0532,
      "velocity": 120,
      "chip": "ym2612"
    },
    {
      "channel": 2,
      "note": 82,
      "start": 111.0262,
      "duration": 0.1036,
      "velocity": 127,
      "chip": "ym2612"
    },
    {
      "channel": 1,
      "note": 51,
      "start": 111.1209,
      "duration": 0.3057,
      "velocity": 97,
      "chip": "ym2612"
    },
    {
      "channel": 3,
      "note": 79,
      "start": 111.1218,
      "duration": 0.2044,
      "velocity": 83,
      "chip": "ym2612"
    },
    {
      "channel": 4,
      "note": 74,
      "start": 111.1242,
      "duration": 0.2027,
      "velocity": 83,
      "chip": "ym2612"
    },
    {
      "channel": 5,
      "note": 70,
      "start": 111.1251,
      "duration": 0.2024,
      "velocity": 83,
      "chip": "ym2612"
    },
    {
      "channel": 2,
      "note": 37,
      "start": 111.2273,
      "duration": 0.0535,
      "velocity": 120,
      "chip": "ym2612"
    },
    {
      "channel": 3,
      "note": 79,
      "start": 111.3267,
      "duration": 0.1002,
      "velocity": 83,
      "chip": "ym2612"
    },
    {
      "channel": 4,
      "note": 74,
      "start": 111.3273,
      "duration": 0.1004,
      "velocity": 83,
      "chip": "ym2612"
    },
    {
      "channel": 5,
      "note": 70,
      "start": 111.3279,
      "duration": 0.1005,
      "velocity": 83,
      "chip": "ym2612"
    },
    {
      "channel": 2,
      "note": 37,
      "start": 111.3287,
      "duration": 0.0527,
      "velocity": 120,
      "chip": "ym2612"
    },
    {
      "channel": 3,
      "note": 79,
      "start": 111.4276,
      "duration": 0.0969,
      "velocity": 83,
      "chip": "ym2612"
    },
    {
      "channel": 4,
      "note": 74,
      "start": 111.4283,
      "duration": 0.0964,
      "velocity": 83,
      "chip": "ym2612"
    },
    {
      "channel": 5,
      "note": 70,
      "start": 111.4291,
      "duration": 0.096,
      "velocity": 83,
      "chip": "ym2612"
    },
    {
      "channel": 2,
      "note": 82,
      "start": 111.4301,
      "duration": 0.1014,
      "velocity": 127,
      "chip": "ym2612"
    },
    {
      "channel": 3,
      "note": 79,
      "start": 111.6279,
      "duration": 0.0992,
      "velocity": 83,
      "chip": "ym2612"
    },
    {
      "channel": 4,
      "note": 74,
      "start": 111.6286,
      "duration": 0.0993,
      "velocity": 83,
      "chip": "ym2612"
    },
    {
      "channel": 5,
      "note": 70,
      "start": 111.6294,
      "duration": 0.0992,
      "velocity": 83,
      "chip": "ym2612"
    },
    {
      "channel": 2,
      "note": 37,
      "start": 111.6301,
      "duration": 0.0531,
      "velocity": 120,
      "chip": "ym2612"
    },
    {
      "channel": 3,
      "note": 79,
      "start": 111.7277,
      "duration": 0.1,
      "velocity": 83,
      "chip": "ym2612"
    },
    {
      "channel": 4,
      "note": 74,
      "start": 111.7284,
      "duration": 0.0995,
      "velocity": 83,
      "chip": "ym2612"
    },
    {
      "channel": 5,
      "note": 70,
      "start": 111.7292,
      "duration": 0.0991,
      "velocity": 83,
      "chip": "ym2612"
    },
    {
      "channel": 2,
      "note": 37,
      "start": 111.7299,
      "duration": 0.0539,
      "velocity": 120,
      "chip": "ym2612"
    },
    {
      "channel": 2,
      "note": 82,
      "start": 111.8295,
      "duration": 0.1056,
      "velocity": 127,
      "chip": "ym2612"
    },
    {
      "channel": 1,
      "note": 48,
      "start": 111.9263,
      "duration": 0.9082,
      "velocity": 97,
      "chip": "ym2612"
    },
    {
      "channel": 3,
      "note": 86,
      "start": 111.927,
      "duration": 0.9078,
      "velocity": 83,
      "chip": "ym2612"
    },
    {
      "channel": 4,
      "note": 81,
      "start": 111.9278,
      "duration": 0.9074,
      "velocity": 83,
      "chip": "ym2612"
    },
    {
      "channel": 5,
      "note": 79,
      "start": 111.9285,
      "duration": 0.9069,
      "velocity": 83,
      "chip": "ym2612"
    },
    {
      "channel": 2,
      "note": 82,
      "start": 112.0313,
      "duration": 0.0449,
      "velocity": 127,
      "chip": "ym2612"
    },
    {
      "channel": 2,
      "note": 82,
      "start": 112.0814,
      "duration": 0.0452,
      "velocity": 127,
      "chip": "ym2612"
    },
    {
      "channel": 2,
      "note": 82,
      "start": 112.132,
      "duration": 0.0952,
      "velocity": 127,
      "chip": "ym2612"
    },
    {
      "channel": 2,
      "note": 82,
      "start": 112.2326,
      "duration": 0.0954,
      "velocity": 127,
      "chip": "ym2612"
    },
    {
      "channel": 2,
      "note": 82,
      "start": 112.3333,
      "duration": 0.0954,
      "velocity": 127,
      "chip": "ym2612"
    },
    {
      "channel": 2,
      "note": 82,
      "start": 112.434,
      "duration": 0.0953,
      "velocity": 127,
      "chip": "ym2612"
    },
    {
      "channel": 2,
      "note": 82,
      "start": 112.5346,
      "duration": 0.0953,
      "velocity": 127,
      "chip": "ym2612"
    },
    {
      "channel": 2,
      "note": 82,
      "start": 112.6352,
      "duration": 0.0954,
      "velocity": 127,
      "chip": "ym2612"
    },
    {
      "channel": 2,
      "note": 82,
      "start": 112.7359,
      "duration": 0.0954,
      "velocity": 127,
      "chip": "ym2612"
    },
    {
      "channel": 2,
      "note": 74,
      "start": 112.8366,
      "duration": 0.1048,
      "velocity": 127,
      "chip": "ym2612"
    },
    {
      "channel": 2,
      "note": 86,
      "start": 113.0367,
      "duration": 0.1056,
      "velocity": 127,
      "chip": "ym2612"
    },
    {
      "channel": 3,
      "note": 79,
      "start": 113.2424,
      "duration": 0.2048,
      "velocity": 83,
      "chip": "ym2612"
    },
    {
      "channel": 4,
      "note": 74,
      "start": 113.2459,
      "duration": 0.202,
      "velocity": 83,
      "chip": "ym2612"
    },
    {
      "channel": 5,
      "note": 72,
      "start": 113.2492,
      "duration": 0.1993,
      "velocity": 83,
      "chip": "ym2612"
    },
    {
      "channel": 2,
      "note": 37,
      "start": 113.25,
      "duration": 0.0523,
      "velocity": 120,
      "chip": "ym2612"
    },
    {
      "channel": 1,
      "note": 55,
      "start": 113.3464,
      "duration": 0.1001,
      "velocity": 97,
      "chip": "ym2612"
    },
    {
      "channel": 2,
      "note": 37,
      "start": 113.3482,
      "duration": 0.0551,
      "velocity": 120,
      "chip": "ym2612"
    },
    {
      "channel": 1,
      "note": 50,
      "start": 113.4471,
      "duration": 0.1,
      "velocity": 97,
      "chip": "ym2612"
    },
    {
      "channel": 3,
      "note": 79,
      "start": 113.4477,
      "duration": 0.0998,
      "velocity": 83,
      "chip": "ym2612"
    },
    {
      "channel": 4,
      "note": 74,
      "start": 113.4483,
      "duration": 0.0998,
      "velocity": 83,
      "chip": "ym2612"
    },
    {
      "channel": 5,
      "note": 72,
      "start": 113.4489,
      "duration": 0.0999,
      "velocity": 83,
      "chip": "ym2612"
    },
    {
      "channel": 2,
      "note": 37,
      "start": 113.4497,
      "duration": 0.0543,
      "velocity": 120,
      "chip": "ym2612"
    },
    {
      "channel": 3,
      "note": 79,
      "start": 113.548,
      "duration": 0.1006,
      "velocity": 83,
      "chip": "ym2612"
    },
    {
      "channel": 4,
      "note": 74,
      "start": 113.5487,
      "duration": 0.1006,
      "velocity": 83,
      "chip": "ym2612"
    },
    {
      "channel": 5,
      "note": 72,
      "start": 113.5494,
      "duration": 0.1006,
      "velocity": 83,
      "chip": "ym2612"
    },
    {
      "channel": 2,
      "note": 37,
      "start": 113.5502,
      "duration": 0.0541,
      "velocity": 120,
      "chip": "ym2612"
    },
    {
      "channel": 1,
      "note": 53,
      "start": 113.6484,
      "duration": 0.1001,
      "velocity": 97,
      "chip": "ym2612"
    },
    {
      "channel": 3,
      "note": 77,
      "start": 113.6492,
      "duration": 0.0997,
      "velocity": 83,
      "chip": "ym2612"
    },
    {
      "channel": 4,
      "note": 74,
      "start": 113.6499,
      "duration": 0.0997,
      "velocity": 83,
      "chip": "ym2612"
    },
    {
      "channel": 5,
      "note": 72,
      "start": 113.6506,
      "duration": 0.0997,
      "velocity": 83,
      "chip": "ym2612"
    },
    {
      "channel": 2,
      "note": 82,
      "start": 113.6517,
      "duration": 0.0939,
      "velocity": 127,
      "chip": "ym2612"
    },
    {
      "channel": 3,
      "note": 79,
      "start": 113.7494,
      "duration": 0.0978,
      "velocity": 83,
      "chip": "ym2612"
    },
    {
      "channel": 4,
      "note": 74,
      "start": 113.7502,
      "duration": 0.0974,
      "velocity": 83,
      "chip": "ym2612"
    },
    {
      "channel": 5,
      "note": 72,
      "start": 113.7509,
      "duration": 0.097,
      "velocity": 83,
      "chip": "ym2612"
    },
    {
      "channel": 2,
      "note": 37,
      "start": 113.7517,
      "duration": 0.0556,
      "velocity": 120,
      "chip": "ym2612"
    },
    {
      "channel": 1,
      "note": 50,
      "start": 113.8471,
      "duration": 0.1027,
      "velocity": 97,
      "chip": "ym2612"
    },
    {
      "channel": 3,
      "note": 77,
      "start": 113.9507,
      "duration": 0.0983,
      "velocity": 83,
      "chip": "ym2612"
    },
    {
      "channel": 4,
      "note": 74,
      "start": 113.9515,
      "duration": 0.0983,
      "velocity": 83,
      "chip": "ym2612"
    },
    {
      "channel": 5,
      "note": 72,
      "start": 113.9522,
      "duration": 0.0983,
      "velocity": 83,
      "chip": "ym2612"
    },
    {
      "channel": 2,
      "note": 37,
      "start": 113.9529,
      "duration": 0.0555,
      "velocity": 120,
      "chip": "ym2612"
    },
    {
      "channel": 1,
      "note": 55,
      "start": 114.0488,
      "duration": 0.1023,
      "velocity": 97,
      "chip": "ym2612"
    },
    {
      "channel": 3,
      "note": 79,
      "start": 114.0496,
      "duration": 0.1018,
      "velocity": 83,
      "chip": "ym2612"
    },
    {
      "channel": 4,
      "note": 74,
      "start": 114.0503,
      "duration": 0.1015,
      "velocity": 83,
      "chip": "ym2612"
    },
    {
      "channel": 5,
      "note": 72,
      "start": 114.0511,
      "duration": 0.101,
      "velocity": 83,
      "chip": "ym2612"
    },
    {
      "channel": 2,
      "note": 37,
      "start": 114.153,
      "duration": 0.0547,
      "velocity": 120,
      "chip": "ym2612"
    }
  ]
}