{
  "track_name": "01 - Bond Theme",
  "duration_sec": 171.065,
  "sample_rate": 44100,
  "note_count": 2477,
  "unique_pitches": 43,
  "pitch_range": 58,
  "avg_note_duration": 0.3424,
  "reconstruction_stats": {
    "notes_reconstructed": 2477,
    "keyon_events": 2477,
    "keyoff_events": 2437,
    "orphan_keyons": 5,
    "unique_pitches": 43,
    "pitch_range": 58,
    "avg_duration_sec": 0.3424
  },
  "metadata": {
    "source": "J\\James Bond 007 - The Duel\\01 - Bond Theme.vgz"
  },
  "notes": [
    {
      "channel": 0,
      "note": 57,
      "start": 0.0,
      "duration": 0.7575,
      "velocity": 103,
      "chip": "ym2612"
    },
    {
      "channel": 1,
      "note": 50,
      "start": 0.0,
      "duration": 0.758,
      "velocity": 117,
      "chip": "ym2612"
    },
    {
      "channel": 3,
      "note": 79,
      "start": 0.0022,
      "duration": 0.1686,
      "velocity": 121,
      "chip": "ym2612"
    },
    {
      "channel": 3,
      "note": 79,
      "start": 0.171,
      "duration": 0.2045,
      "velocity": 121,
      "chip": "ym2612"
    },
    {
      "channel": 2,
      "note": 62,
      "start": 0.3751,
      "duration": 0.7629,
      "velocity": 104,
      "chip": "ym2612"
    },
    {
      "channel": 3,
      "note": 79,
      "start": 0.3757,
      "duration": 0.1793,
      "velocity": 121,
      "chip": "ym2612"
    },
    {
      "channel": 3,
      "note": 79,
      "start": 0.5552,
      "duration": 0.2034,
      "velocity": 121,
      "chip": "ym2612"
    },
    {
      "channel": 0,
      "note": 58,
      "start": 0.7576,
      "duration": 0.7556,
      "velocity": 103,
      "chip": "ym2612"
    },
    {
      "channel": 1,
      "note": 50,
      "start": 0.7582,
      "duration": 0.7556,
      "velocity": 117,
      "chip": "ym2612"
    },
    {
      "channel": 3,
      "note": 79,
      "start": 0.7588,
      "duration": 0.1769,
      "velocity": 121,
      "chip": "ym2612"
    },
    {
      "channel": 3,
      "note": 79,
      "start": 0.9358,
      "duration": 0.2028,
      "velocity": 121,
      "chip": "ym2612"
    },
    {
      "channel": 2,
      "note": 62,
      "start": 1.1382,
      "duration": 0.7565,
      "velocity": 104,
      "chip": "ym2612"
    },
    {
      "channel": 3,
      "note": 79,
      "start": 1.1388,
      "duration": 0.1721,
      "velocity": 121,
      "chip": "ym2612"
    },
    {
      "channel": 3,
      "note": 79,
      "start": 1.311,
      "duration": 0.2034,
      "velocity": 121,
      "chip": "ym2612"
    },
    {
      "channel": 0,
      "note": 59,
      "start": 1.5134,
      "duration": 0.7564,
      "velocity": 103,
      "chip": "ym2612"
    },
    {
      "channel": 1,
      "note": 50,
      "start": 1.5139,
      "duration": 0.7564,
      "velocity": 117,
      "chip": "ym2612"
    },
    {
      "channel": 3,
      "note": 79,
      "start": 1.5145,
      "duration": 0.1778,
      "velocity": 121,
      "chip": "ym2612"
    },
    {
      "channel": 3,
      "note": 79,
      "start": 1.6925,
      "duration": 0.2028,
      "velocity": 121,
      "chip": "ym2612"
    },
    {
      "channel": 2,
      "note": 62,
      "start": 1.8949,
      "duration": 0.7565,
      "velocity": 104,
      "chip": "ym2612"
    },
    {
      "channel": 3,
      "note": 79,
      "start": 1.8955,
      "duration": 0.1721,
      "velocity": 121,
      "chip": "ym2612"
    },
    {
      "channel": 3,
      "note": 79,
      "start": 2.0677,
      "duration": 0.2034,
      "velocity": 121,
      "chip": "ym2612"
    },
    {
      "channel": 0,
      "note": 58,
      "start": 2.27,
      "duration": 0.7409,
      "velocity": 103,
      "chip": "ym2612"
    },
    {
      "channel": 1,
      "note": 50,
      "start": 2.2706,
      "duration": 0.7409,
      "velocity": 117,
      "chip": "ym2612"
    },
    {
      "channel": 3,
      "note": 79,
      "start": 2.2712,
      "duration": 0.1778,
      "velocity": 121,
      "chip": "ym2612"
    },
    {
      "channel": 3,
      "note": 79,
      "start": 2.4491,
      "duration": 0.2028,
      "velocity": 121,
      "chip": "ym2612"
    },
    {
      "channel": 2,
      "note": 62,
      "start": 2.6515,
      "duration": 0.7386,
      "velocity": 104,
      "chip": "ym2612"
    },
    {
      "channel": 3,
      "note": 79,
      "start": 2.6521,
      "duration": 0.1765,
      "velocity": 121,
      "chip": "ym2612"
    },
    {
      "channel": 3,
      "note": 79,
      "start": 2.8288,
      "duration": 0.1833,
      "velocity": 121,
      "chip": "ym2612"
    },
    {
      "channel": 0,
      "note": 57,
      "start": 3.0111,
      "duration": 0.7541,
      "velocity": 103,
      "chip": "ym2612"
    },
    {
      "channel": 1,
      "note": 50,
      "start": 3.0117,
      "duration": 0.7541,
      "velocity": 117,
      "chip": "ym2612"
    },
    {
      "channel": 3,
      "note": 79,
      "start": 3.0122,
      "duration": 0.1754,
      "velocity": 121,
      "chip": "ym2612"
    },
    {
      "channel": 3,
      "note": 79,
      "start": 3.1879,
      "duration": 0.2028,
      "velocity": 121,
      "chip": "ym2612"
    },
    {
      "channel": 2,
      "note": 62,
      "start": 3.3903,
      "duration": 0.7565,
      "velocity": 104,
      "chip": "ym2612"
    },
    {
      "channel": 3,
      "note": 79,
      "start": 3.3909,
      "duration": 0.1721,
      "velocity": 121,
      "chip": "ym2612"
    },
    {
      "channel": 3,
      "note": 79,
      "start": 3.5631,
      "duration": 0.2034,
      "velocity": 121,
      "chip": "ym2612"
    },
    {
      "channel": 0,
      "note": 58,
      "start": 3.7654,
      "duration": 0.7564,
      "velocity": 103,
      "chip": "ym2612"
    },
    {
      "channel": 1,
      "note": 50,
      "start": 3.766,
      "duration": 0.7564,
      "velocity": 117,
      "chip": "ym2612"
    },
    {
      "channel": 3,
      "note": 79,
      "start": 3.7666,
      "duration": 0.1778,
      "velocity": 121,
      "chip": "ym2612"
    },
    {
      "channel": 3,
      "note": 79,
      "start": 3.9445,
      "duration": 0.2028,
      "velocity": 121,
      "chip": "ym2612"
    },
    {
      "channel": 2,
      "note": 62,
      "start": 4.1469,
      "duration": 0.7565,
      "velocity": 104,
      "chip": "ym2612"
    },
    {
      "channel": 3,
      "note": 79,
      "start": 4.1475,
      "duration": 0.1721,
      "velocity": 121,
      "chip": "ym2612"
    },
    {
      "channel": 3,
      "note": 79,
      "start": 4.3197,
      "duration": 0.2034,
      "velocity": 121,
      "chip": "ym2612"
    },
    {
      "channel": 0,
      "note": 59,
      "start": 4.5221,
      "duration": 0.7454,
      "velocity": 103,
      "chip": "ym2612"
    },
    {
      "channel": 1,
      "note": 50,
      "start": 4.5227,
      "duration": 0.7454,
      "velocity": 117,
      "chip": "ym2612"
    },
    {
      "channel": 3,
      "note": 79,
      "start": 4.5232,
      "duration": 0.1778,
      "velocity": 121,
      "chip": "ym2612"
    },
    {
      "channel": 3,
      "note": 79,
      "start": 4.7012,
      "duration": 0.2028,
      "velocity": 121,
      "chip": "ym2612"
    },
    {
      "channel": 2,
      "note": 62,
      "start": 4.9036,
      "duration": 0.7176,
      "velocity": 104,
      "chip": "ym2612"
    },
    {
      "channel": 3,
      "note": 79,
      "start": 4.9042,
      "duration": 0.1721,
      "velocity": 121,
      "chip": "ym2612"
    },
    {
      "channel": 3,
      "note": 79,
      "start": 5.0764,
      "duration": 0.1923,
      "velocity": 121,
      "chip": "ym2612"
    },
    {
      "channel": 0,
      "note": 58,
      "start": 5.2677,
      "duration": 0.7067,
      "velocity": 103,
      "chip": "ym2612"
    },
    {
      "channel": 1,
      "note": 50,
      "start": 5.2682,
      "duration": 0.7068,
      "velocity": 117,
      "chip": "ym2612"
    },
    {
      "channel": 3,
      "note": 79,
      "start": 5.2688,
      "duration": 0.1722,
      "velocity": 127,
      "chip": "ym2612"
    },
    {
      "channel": 3,
      "note": 79,
      "start": 5.4412,
      "duration": 0.1821,
      "velocity": 121,
      "chip": "ym2612"
    },
    {
      "channel": 2,
      "note": 62,
      "start": 5.6214,
      "duration": 0.3557,
      "velocity": 106,
      "chip": "ym2612"
    },
    {
      "channel": 3,
      "note": 79,
      "start": 5.6236,
      "duration": 0.0849,
      "velocity": 121,
      "chip": "ym2612"
    },
    {
      "channel": 3,
      "note": 79,
      "start": 5.7087,
      "duration": 0.0858,
      "velocity": 127,
      "chip": "ym2612"
    },
    {
      "channel": 3,
      "note": 79,
      "start": 5.7947,
      "duration": 0.1845,
      "velocity": 121,
      "chip": "ym2612"
    },
    {
      "channel": 0,
      "note": 57,
      "start": 5.9746,
      "duration": 0.7571,
      "velocity": 103,
      "chip": "ym2612"
    },
    {
      "channel": 1,
      "note": 50,
      "start": 5.9751,
      "duration": 0.7571,
      "velocity": 117,
      "chip": "ym2612"
    },
    {
      "channel": 2,
      "note": 38,
      "start": 5.9773,
      "duration": 0.1716,
      "velocity": 106,
      "chip": "ym2612"
    },
    {
      "channel": 3,
      "note": 79,
      "start": 5.9794,
      "duration": 0.1716,
      "velocity": 127,
      "chip": "ym2612"
    },
    {
      "channel": 2,
      "note": 40,
      "start": 6.1491,
      "duration": 0.0998,
      "velocity": 106,
      "chip": "ym2612"
    },
    {
      "channel": 3,
      "note": 79,
      "start": 6.1512,
      "duration": 0.2024,
      "velocity": 121,
      "chip": "ym2612"
    },
    {
      "channel": 2,
      "note": 40,
      "start": 6.249,
      "duration": 0.1024,
      "velocity": 106,
      "chip": "ym2612"
    },
    {
      "channel": 2,
      "note": 40,
      "start": 6.3516,
      "duration": 0.1779,
      "velocity": 106,
      "chip": "ym2612"
    },
    {
      "channel": 3,
      "note": 79,
      "start": 6.3538,
      "duration": 0.1763,
      "velocity": 121,
      "chip": "ym2612"
    },
    {
      "channel": 4,
      "note": 62,
      "start": 6.3559,
      "duration": 0.7505,
      "velocity": 104,
      "chip": "ym2612"
    },
    {
      "channel": 2,
      "note": 40,
      "start": 6.5297,
      "duration": 0.3844,
      "velocity": 106,
      "chip": "ym2612"
    },
    {
      "channel": 3,
      "note": 79,
      "start": 6.5302,
      "duration": 0.2041,
      "velocity": 127,
      "chip": "ym2612"
    },
    {
      "channel": 0,
      "note": 58,
      "start": 6.7318,
      "duration": 0.7311,
      "velocity": 103,
      "chip": "ym2612"
    },
    {
      "channel": 1,
      "note": 50,
      "start": 6.7324,
      "duration": 0.7311,
      "velocity": 117,
      "chip": "ym2612"
    },
    {
      "channel": 3,
      "note": 79,
      "start": 6.7346,
      "duration": 0.1816,
      "velocity": 121,
      "chip": "ym2612"
    },
    {
      "channel": 2,
      "note": 38,
      "start": 6.9142,
      "duration": 0.1911,
      "velocity": 106,
      "chip": "ym2612"
    },
    {
      "channel": 3,
      "note": 79,
      "start": 6.9164,
      "duration": 0.1895,
      "velocity": 121,
      "chip": "ym2612"
    },
    {
      "channel": 2,
      "note": 38,
      "start": 7.1055,
      "duration": 0.1754,
      "velocity": 106,
      "chip": "ym2612"
    },
    {
      "channel": 3,
      "note": 79,
      "start": 7.1061,
      "duration": 0.0853,
      "velocity": 121,
      "chip": "ym2612"
    },
    {
      "channel": 4,
      "note": 62,
      "start": 7.1066,
      "duration": 0.7397,
      "velocity": 104,
      "chip": "ym2612"
    },
    {
      "channel": 3,
      "note": 79,
      "start": 7.1915,
      "duration": 0.0915,
      "velocity": 127,
      "chip": "ym2612"
    },
    {
      "channel": 2,
      "note": 38,
      "start": 7.2811,
      "duration": 0.183,
      "velocity": 106,
      "chip": "ym2612"
    },
    {
      "channel": 3,
      "note": 79,
      "start": 7.2832,
      "duration": 0.183,
      "velocity": 121,
      "chip": "ym2612"
    },
    {
      "channel": 0,
      "note": 59,
      "start": 7.4631,
      "duration": 0.7588,
      "velocity": 103,
      "chip": "ym2612"
    },
    {
      "channel": 1,
      "note": 50,
      "start": 7.4637,
      "duration": 0.7587,
      "velocity": 117,
      "chip": "ym2612"
    },
    {
      "channel": 2,
      "note": 38,
      "start": 7.4642,
      "duration": 0.1785,
      "velocity": 106,
      "chip": "ym2612"
    },
    {
      "channel": 3,
      "note": 79,
      "start": 7.4663,
      "duration": 0.1769,
      "velocity": 121,
      "chip": "ym2612"
    },
    {
      "channel": 2,
      "note": 41,
      "start": 7.6429,
      "duration": 0.0998,
      "velocity": 106,
      "chip": "ym2612"
    },
    {
      "channel": 3,
      "note": 79,
      "start": 7.6434,
      "duration": 0.2023,
      "velocity": 121,
      "chip": "ym2612"
    },
    {
      "channel": 2,
      "note": 41,
      "start": 7.7429,
      "duration": 0.1024,
      "velocity": 106,
      "chip": "ym2612"
    },
    {
      "channel": 2,
      "note": 41,
      "start": 7.8454,
      "duration": 0.1743,
      "velocity": 106,
      "chip": "ym2612"
    },
    {
      "channel": 3,
      "note": 79,
      "start": 7.8459,
      "duration": 0.1758,
      "velocity": 127,
      "chip": "ym2612"
    },
    {
      "channel": 4,
      "note": 62,
      "start": 7.8465,
      "duration": 0.7388,
      "velocity": 104,
      "chip": "ym2612"
    },
    {
      "channel": 2,
      "note": 41,
      "start": 8.0198,
      "duration": 0.3844,
      "velocity": 106,
      "chip": "ym2612"
    },
    {
      "channel": 3,
      "note": 79,
      "start": 8.022,
      "duration": 0.2026,
      "velocity": 121,
      "chip": "ym2612"
    },
    {
      "channel": 0,
      "note": 58,
      "start": 8.222,
      "duration": 0.7143,
      "velocity": 103,
      "chip": "ym2612"
    },
    {
      "channel": 1,
      "note": 50,
      "start": 8.2225,
      "duration": 0.7142,
      "velocity": 117,
      "chip": "ym2612"
    },
    {
      "channel": 3,
      "note": 79,
      "start": 8.2248,
      "duration": 0.18,
      "velocity": 121,
      "chip": "ym2612"
    },
    {
      "channel": 2,
      "note": 40,
      "start": 8.4044,
      "duration": 0.1803,
      "velocity": 106,
      "chip": "ym2612"
    },
    {
      "channel": 3,
      "note": 79,
      "start": 8.4049,
      "duration": 0.0899,
      "velocity": 127,
      "chip": "ym2612"
    },
    {
      "channel": 3,
      "note": 79,
      "start": 8.4949,
      "duration": 0.1797,
      "velocity": 121,
      "chip": "ym2612"
    },
    {
      "channel": 2,
      "note": 40,
      "start": 8.5849,
      "duration": 0.1733,
      "velocity": 106,
      "chip": "ym2612"
    },
    {
      "channel": 4,
      "note": 62,
      "start": 8.5855,
      "duration": 0.7311,
      "velocity": 104,
      "chip": "ym2612"
    },
    {
      "channel": 3,
      "note": 79,
      "start": 8.6749,
      "duration": 0.0839,
      "velocity": 121,
      "chip": "ym2612"
    },
    {
      "channel": 2,
      "note": 40,
      "start": 8.7583,
      "duration": 0.179,
      "velocity": 106,
      "chip": "ym2612"
    },
    {
      "channel": 3,
      "note": 79,
      "start": 8.7589,
      "duration": 0.179,
      "velocity": 121,
      "chip": "ym2612"
    },
    {
      "channel": 0,
      "note": 57,
      "start": 8.9364,
      "duration": 0.7564,
      "velocity": 103,
      "chip": "ym2612"
    },
    {
      "channel": 1,
      "note": 50,
      "start": 8.937,
      "duration": 0.7564,
      "velocity": 117,
      "chip": "ym2612"
    },
    {
      "channel": 2,
      "note": 38,
      "start": 8.9375,
      "duration": 0.1739,
      "velocity": 106,
      "chip": "ym2612"
    },
    {
      "channel": 3,
      "note": 79,
      "start": 8.938,
      "duration": 0.1754,
      "velocity": 127,
      "chip": "ym2612"
    },
    {
      "channel": 2,
      "note": 40,
      "start": 9.1115,
      "duration": 0.0999,
      "velocity": 106,
      "chip": "ym2612"
    },
    {
      "channel": 3,
      "note": 79,
      "start": 9.1137,
      "duration": 0.2023,
      "velocity": 121,
      "chip": "ym2612"
    },
    {
      "channel": 2,
      "note": 40,
      "start": 9.2115,
      "duration": 0.1024,
      "velocity": 106,
      "chip": "ym2612"
    },
    {
      "channel": 2,
      "note": 40,
      "start": 9.3141,
      "duration": 0.1766,
      "velocity": 106,
      "chip": "ym2612"
    },
    {
      "channel": 3,
      "note": 79,
      "start": 9.3162,
      "duration": 0.175,
      "velocity": 121,
      "chip": "ym2612"
    },
    {
      "channel": 4,
      "note": 62,
      "start": 9.3168,
      "duration": 0.7508,
      "velocity": 104,
      "chip": "ym2612"
    },
    {
      "channel": 2,
      "note": 40,
      "start": 9.4908,
      "duration": 0.3844,
      "velocity": 106,
      "chip": "ym2612"
    },
    {
      "channel": 3,
      "note": 79,
      "start": 9.4914,
      "duration": 0.2041,
      "velocity": 127,
      "chip": "ym2612"
    },
    {
      "channel": 0,
      "note": 58,
      "start": 9.693,
      "duration": 0.7311,
      "velocity": 103,
      "chip": "ym2612"
    },
    {
      "channel": 1,
      "note": 50,
      "start": 9.6935,
      "duration": 0.7311,
      "velocity": 117,
      "chip": "ym2612"
    },
    {
      "channel": 3,
      "note": 79,
      "start": 9.6957,
      "duration": 0.1816,
      "velocity": 121,
      "chip": "ym2612"
    },
    {
      "channel": 2,
      "note": 38,
      "start": 9.8754,
      "duration": 0.1911,
      "velocity": 106,
      "chip": "ym2612"
    },
    {
      "channel": 3,
      "note": 79,
      "start": 9.8775,
      "duration": 0.1895,
      "velocity": 121,
      "chip": "ym2612"
    },
    {
      "channel": 2,
      "note": 38,
      "start": 10.0666,
      "duration": 0.1754,
      "velocity": 106,
      "chip": "ym2612"
    },
    {
      "channel": 3,
      "note": 79,
      "start": 10.0672,
      "duration": 0.0853,
      "velocity": 121,
      "chip": "ym2612"
    },
    {
      "channel": 4,
      "note": 62,
      "start": 10.0678,
      "duration": 0.7397,
      "velocity": 104,
      "chip": "ym2612"
    },
    {
      "channel": 3,
      "note": 79,
      "start": 10.1527,
      "duration": 0.0915,
      "velocity": 127,
      "chip": "ym2612"
    },
    {
      "channel": 2,
      "note": 38,
      "start": 10.2422,
      "duration": 0.183,
      "velocity": 106,
      "chip": "ym2612"
    },
    {
      "channel": 3,
      "note": 79,
      "start": 10.2443,
      "duration": 0.183,
      "velocity": 121,
      "chip": "ym2612"
    },
    {
      "channel": 0,
      "note": 59,
      "start": 10.4242,
      "duration": 0.7437,
      "velocity": 103,
      "chip": "ym2612"
    },
    {
      "channel": 1,
      "note": 50,
      "start": 10.4248,
      "duration": 0.7437,
      "velocity": 117,
      "chip": "ym2612"
    },
    {
      "channel": 2,
      "note": 38,
      "start": 10.4253,
      "duration": 0.1785,
      "velocity": 106,
      "chip": "ym2612"
    },
    {
      "channel": 3,
      "note": 79,
      "start": 10.4275,
      "duration": 0.1769,
      "velocity": 121,
      "chip": "ym2612"
    },
    {
      "channel": 2,
      "note": 41,
      "start": 10.604,
      "duration": 0.0998,
      "velocity": 106,
      "chip": "ym2612"
    },
    {
      "channel": 3,
      "note": 79,
      "start": 10.6046,
      "duration": 0.2023,
      "velocity": 121,
      "chip": "ym2612"
    },
    {
      "channel": 2,
      "note": 41,
      "start": 10.704,
      "duration": 0.1024,
      "velocity": 106,
      "chip": "ym2612"
    },
    {
      "channel": 2,
      "note": 41,
      "start": 10.8065,
      "duration": 0.1743,
      "velocity": 106,
      "chip": "ym2612"
    },
    {
      "channel": 3,
      "note": 79,
      "start": 10.8071,
      "duration": 0.1758,
      "velocity": 127,
      "chip": "ym2612"
    },
    {
      "channel": 4,
      "note": 62,
      "start": 10.8077,
      "duration": 0.7194,
      "velocity": 104,
      "chip": "ym2612"
    },
    {
      "channel": 2,
      "note": 41,
      "start": 10.981,
      "duration": 0.3641,
      "velocity": 106,
      "chip": "ym2612"
    },
    {
      "channel": 3,
      "note": 79,
      "start": 10.9831,
      "duration": 0.1876,
      "velocity": 121,
      "chip": "ym2612"
    },
    {
      "channel": 0,
      "note": 58,
      "start": 11.1681,
      "duration": 0.7116,
      "velocity": 103,
      "chip": "ym2612"
    },
    {
      "channel": 1,
      "note": 50,
      "start": 11.1687,
      "duration": 0.7117,
      "velocity": 117,
      "chip": "ym2612"
    },
    {
      "channel": 3,
      "note": 79,
      "start": 11.1709,
      "duration": 0.0861,
      "velocity": 121,
      "chip": "ym2612"
    },
    {
      "channel": 3,
      "note": 79,
      "start": 11.2571,
      "duration": 0.09,
      "velocity": 127,
      "chip": "ym2612"
    },
    {
      "channel": 2,
      "note": 40,
      "start": 11.3452,
      "duration": 0.1792,
      "velocity": 106,
      "chip": "ym2612"
    },
    {
      "channel": 3,
      "note": 79,
      "start": 11.3474,
      "duration": 0.1791,
      "velocity": 121,
      "chip": "ym2612"
    },
    {
      "channel": 2,
      "note": 40,
      "start": 11.5245,
      "duration": 0.1736,
      "velocity": 106,
      "chip": "ym2612"
    },
    {
      "channel": 3,
      "note": 79,
      "start": 11.5267,
      "duration": 0.1735,
      "velocity": 127,
      "chip": "ym2612"
    },
    {
      "channel": 4,
      "note": 62,
      "start": 11.5272,
      "duration": 0.7323,
      "velocity": 104,
      "chip": "ym2612"
    },
    {
      "channel": 2,
      "note": 40,
      "start": 11.6983,
      "duration": 0.1827,
      "velocity": 106,
      "chip": "ym2612"
    },
    {
      "channel": 3,
      "note": 79,
      "start": 11.7004,
      "duration": 0.1827,
      "velocity": 121,
      "chip": "ym2612"
    },
    {
      "channel": 0,
      "note": 57,
      "start": 11.8799,
      "duration": 0.7535,
      "velocity": 103,
      "chip": "ym2612"
    },
    {
      "channel": 1,
      "note": 50,
      "start": 11.8806,
      "duration": 0.7534,
      "velocity": 117,
      "chip": "ym2612"
    },
    {
      "channel": 2,
      "note": 38,
      "start": 11.8811,
      "duration": 0.1731,
      "velocity": 106,
      "chip": "ym2612"
    },
    {
      "channel": 3,
      "note": 79,
      "start": 11.8833,
      "duration": 0.1731,
      "velocity": 127,
      "chip": "ym2612"
    },
    {
      "channel": 2,
      "note": 40,
      "start": 12.0544,
      "duration": 0.0998,
      "velocity": 106,
      "chip": "ym2612"
    },
    {
      "channel": 3,
      "note": 79,
      "start": 12.0566,
      "duration": 0.2024,
      "velocity": 121,
      "chip": "ym2612"
    },
    {
      "channel": 2,
      "note": 40,
      "start": 12.1544,
      "duration": 0.1024,
      "velocity": 106,
      "chip": "ym2612"
    },
    {
      "channel": 2,
      "note": 40,
      "start": 12.2569,
      "duration": 0.1744,
      "velocity": 106,
      "chip": "ym2612"
    },
    {
      "channel": 3,
      "note": 79,
      "start": 12.2591,
      "duration": 0.1727,
      "velocity": 121,
      "chip": "ym2612"
    },
    {
      "channel": 4,
      "note": 62,
      "start": 12.2598,
      "duration": 0.7485,
      "velocity": 104,
      "chip": "ym2612"
    },
    {
      "channel": 2,
      "note": 40,
      "start": 12.4315,
      "duration": 0.3844,
      "velocity": 106,
      "chip": "ym2612"
    },
    {
      "channel": 3,
      "note": 79,
      "start": 12.432,
      "duration": 0.2041,
      "velocity": 127,
      "chip": "ym2612"
    },
    {
      "channel": 0,
      "note": 58,
      "start": 12.6336,
      "duration": 0.7311,
      "velocity": 103,
      "chip": "ym2612"
    },
    {
      "channel": 1,
      "note": 50,
      "start": 12.6341,
      "duration": 0.7311,
      "velocity": 117,
      "chip": "ym2612"
    },
    {
      "channel": 3,
      "note": 79,
      "start": 12.6364,
      "duration": 0.1816,
      "velocity": 121,
      "chip": "ym2612"
    },
    {
      "channel": 2,
      "note": 38,
      "start": 12.816,
      "duration": 0.1911,
      "velocity": 106,
      "chip": "ym2612"
    },
    {
      "channel": 3,
      "note": 79,
      "start": 12.8182,
      "duration": 0.1895,
      "velocity": 121,
      "chip": "ym2612"
    },
    {
      "channel": 2,
      "note": 38,
      "start": 13.0073,
      "duration": 0.1754,
      "velocity": 106,
      "chip": "ym2612"
    },
    {
      "channel": 3,
      "note": 79,
      "start": 13.0078,
      "duration": 0.0853,
      "velocity": 121,
      "chip": "ym2612"
    },
    {
      "channel": 4,
      "note": 62,
      "start": 13.0084,
      "duration": 0.7397,
      "velocity": 104,
      "chip": "ym2612"
    },
    {
      "channel": 3,
      "note": 79,
      "start": 13.0933,
      "duration": 0.0915,
      "velocity": 127,
      "chip": "ym2612"
    },
    {
      "channel": 2,
      "note": 38,
      "start": 13.1829,
      "duration": 0.183,
      "velocity": 106,
      "chip": "ym2612"
    },
    {
      "channel": 3,
      "note": 79,
      "start": 13.185,
      "duration": 0.183,
      "velocity": 121,
      "chip": "ym2612"
    },
    {
      "channel": 0,
      "note": 59,
      "start": 13.3649,
      "duration": 0.7588,
      "velocity": 103,
      "chip": "ym2612"
    },
    {
      "channel": 1,
      "note": 50,
      "start": 13.3655,
      "duration": 0.7587,
      "velocity": 117,
      "chip": "ym2612"
    },
    {
      "channel": 2,
      "note": 38,
      "start": 13.366,
      "duration": 0.1785,
      "velocity": 106,
      "chip": "ym2612"
    },
    {
      "channel": 3,
      "note": 79,
      "start": 13.3681,
      "duration": 0.1769,
      "velocity": 121,
      "chip": "ym2612"
    },
    {
      "channel": 2,
      "note": 41,
      "start": 13.5447,
      "duration": 0.0998,
      "velocity": 106,
      "chip": "ym2612"
    },
    {
      "channel": 3,
      "note": 79,
      "start": 13.5452,
      "duration": 0.2023,
      "velocity": 121,
      "chip": "ym2612"
    },
    {
      "channel": 2,
      "note": 41,
      "start": 13.6447,
      "duration": 0.1024,
      "velocity": 106,
      "chip": "ym2612"
    },
    {
      "channel": 2,
      "note": 41,
      "start": 13.7471,
      "duration": 0.1743,
      "velocity": 106,
      "chip": "ym2612"
    },
    {
      "channel": 3,
      "note": 79,
      "start": 13.7477,
      "duration": 0.1758,
      "velocity": 127,
      "chip": "ym2612"
    },
    {
      "channel": 4,
      "note": 62,
      "start": 13.7483,
      "duration": 0.7388,
      "velocity": 104,
      "chip": "ym2612"
    },
    {
      "channel": 2,
      "note": 41,
      "start": 13.9216,
      "duration": 0.3844,
      "velocity": 106,
      "chip": "ym2612"
    },
    {
      "channel": 3,
      "note": 79,
      "start": 13.9238,
      "duration": 0.2026,
      "velocity": 121,
      "chip": "ym2612"
    },
    {
      "channel": 0,
      "note": 58,
      "start": 14.1238,
      "duration": 0.7143,
      "velocity": 103,
      "chip": "ym2612"
    },
    {
      "channel": 1,
      "note": 50,
      "start": 14.1243,
      "duration": 0.7142,
      "velocity": 117,
      "chip": "ym2612"
    },
    {
      "channel": 3,
      "note": 79,
      "start": 14.1266,
      "duration": 0.18,
      "velocity": 121,
      "chip": "ym2612"
    },
    {
      "channel": 2,
      "note": 40,
      "start": 14.3061,
      "duration": 0.1803,
      "velocity": 106,
      "chip": "ym2612"
    },
    {
      "channel": 3,
      "note": 79,
      "start": 14.3067,
      "duration": 0.0899,
      "velocity": 127,
      "chip": "ym2612"
    },
    {
      "channel": 3,
      "note": 79,
      "start": 14.3967,
      "duration": 0.1797,
      "velocity": 121,
      "chip": "ym2612"
    },
    {
      "channel": 2,
      "note": 39,
      "start": 14.4867,
      "duration": 0.1733,
      "velocity": 106,
      "chip": "ym2612"
    },
    {
      "channel": 4,
      "note": 62,
      "start": 14.4873,
      "duration": 0.7286,
      "velocity": 104,
      "chip": "ym2612"
    },
    {
      "channel": 3,
      "note": 79,
      "start": 14.5766,
      "duration": 0.0839,
      "velocity": 121,
      "chip": "ym2612"
    },
    {
      "channel": 2,
      "note": 38,
      "start": 14.6601,
      "duration": 0.1806,
      "velocity": 106,
      "chip": "ym2612"
    },
    {
      "channel": 3,
      "note": 79,
      "start": 14.6607,
      "duration": 0.1806,
      "velocity": 121,
      "chip": "ym2612"
    },
    {
      "channel": 0,
      "note": 57,
      "start": 14.8382,
      "duration": 0.7544,
      "velocity": 103,
      "chip": "ym2612"
    },
    {
      "channel": 1,
      "note": 50,
      "start": 14.8388,
      "duration": 0.7543,
      "velocity": 117,
      "chip": "ym2612"
    },
    {
      "channel": 2,
      "note": 49,
      "start": 14.8409,
      "duration": 0.1707,
      "velocity": 106,
      "chip": "ym2612"
    },
    {
      "channel": 3,
      "note": 79,
      "start": 14.8415,
      "duration": 0.1723,
      "velocity": 127,
      "chip": "ym2612"
    },
    {
      "channel": 2,
      "note": 48,
      "start": 15.0117,
      "duration": 0.9534,
      "velocity": 106,
      "chip": "ym2612"
    },
    {
      "channel": 3,
      "note": 79,
      "start": 15.0139,
      "duration": 0.2015,
      "velocity": 121,
      "chip": "ym2612"
    },
    {
      "channel": 3,
      "note": 79,
      "start": 15.2156,
      "duration": 0.1765,
      "velocity": 121,
      "chip": "ym2612"
    },
    {
      "channel": 4,
      "note": 62,
      "start": 15.2161,
      "duration": 0.75,
      "velocity": 104,
      "chip": "ym2612"
    },
    {
      "channel": 3,
      "note": 79,
      "start": 15.3922,
      "duration": 0.2031,
      "velocity": 127,
      "chip": "ym2612"
    },
    {
      "channel": 0,
      "note": 58,
      "start": 15.5927,
      "duration": 0.7304,
      "velocity": 103,
      "chip": "ym2612"
    },
    {
      "channel": 1,
      "note": 50,
      "start": 15.5932,
      "duration": 0.7303,
      "velocity": 117,
      "chip": "ym2612"
    },
    {
      "channel": 3,
      "note": 79,
      "start": 15.5955,
      "duration": 0.1779,
      "velocity": 121,
      "chip": "ym2612"
    },
    {
      "channel": 3,
      "note": 79,
      "start": 15.7736,
      "duration": 0.1921,
      "velocity": 121,
      "chip": "ym2612"
    },
    {
      "channel": 2,
      "note": 45,
      "start": 15.9653,
      "duration": 0.1748,
      "velocity": 106,
      "chip": "ym2612"
    },
    {
      "channel": 3,
      "note": 79,
      "start": 15.9658,
      "duration": 0.0861,
      "velocity": 121,
      "chip": "ym2612"
    },
    {
      "channel": 4,
      "note": 62,
      "start": 15.9664,
      "duration": 0.738,
      "velocity": 104,
      "chip": "ym2612"
    },
    {
      "channel": 3,
      "note": 79,
      "start": 16.0521,
      "duration": 0.0901,
      "velocity": 127,
      "chip": "ym2612"
    },
    {
      "channel": 2,
      "note": 43,
      "start": 16.1402,
      "duration": 0.1839,
      "velocity": 106,
      "chip": "ym2612"
    },
    {
      "channel": 3,
      "note": 79,
      "start": 16.1424,
      "duration": 0.1839,
      "velocity": 121,
      "chip": "ym2612"
    },
    {
      "channel": 0,
      "note": 59,
      "start": 16.3232,
      "duration": 0.7457,
      "velocity": 103,
      "chip": "ym2612"
    },
    {
      "channel": 1,
      "note": 50,
      "start": 16.3238,
      "duration": 0.7457,
      "velocity": 117,
      "chip": "ym2612"
    },
    {
      "channel": 2,
      "note": 45,
      "start": 16.3243,
      "duration": 1.4668,
      "velocity": 106,
      "chip": "ym2612"
    },
    {
      "channel": 3,
      "note": 79,
      "start": 16.3264,
      "duration": 0.1729,
      "velocity": 121,
      "chip": "ym2612"
    },
    {
      "channel": 3,
      "note": 79,
      "start": 16.4995,
      "duration": 0.2043,
      "velocity": 121,
      "chip": "ym2612"
    },
    {
      "channel": 3,
      "note": 79,
      "start": 16.704,
      "duration": 0.1757,
      "velocity": 127,
      "chip": "ym2612"
    },
    {
      "channel": 4,
      "note": 62,
      "start": 16.7046,
      "duration": 0.7318,
      "velocity": 104,
      "chip": "ym2612"
    },
    {
      "channel": 3,
      "note": 79,
      "start": 16.8799,
      "duration": 0.1918,
      "velocity": 121,
      "chip": "ym2612"
    },
    {
      "channel": 0,
      "note": 58,
      "start": 17.0691,
      "duration": 0.7193,
      "velocity": 103,
      "chip": "ym2612"
    },
    {
      "channel": 1,
      "note": 50,
      "start": 17.0696,
      "duration": 0.7194,
      "velocity": 117,
      "chip": "ym2612"
    },
    {
      "channel": 3,
      "note": 79,
      "start": 17.0718,
      "duration": 0.087,
      "velocity": 121,
      "chip": "ym2612"
    },
    {
      "channel": 3,
      "note": 79,
      "start": 17.159,
      "duration": 0.0948,
      "velocity": 127,
      "chip": "ym2612"
    },
    {
      "channel": 3,
      "note": 79,
      "start": 17.254,
      "duration": 0.1818,
      "velocity": 121,
      "chip": "ym2612"
    },
    {
      "channel": 3,
      "note": 79,
      "start": 17.436,
      "duration": 0.173,
      "velocity": 127,
      "chip": "ym2612"
    },
    {
      "channel": 4,
      "note": 62,
      "start": 17.4366,
      "duration": 0.3588,
      "velocity": 102,
      "chip": "ym2612"
    },
    {
      "channel": 3,
      "note": 79,
      "start": 17.6092,
      "duration": 0.1841,
      "velocity": 121,
      "chip": "ym2612"
    },
    {
      "channel": 0,
      "note": 57,
      "start": 17.7886,
      "duration": 0.7559,
      "velocity": 103,
      "chip": "ym2612"
    },
    {
      "channel": 1,
      "note": 50,
      "start": 17.7892,
      "duration": 0.7559,
      "velocity": 117,
      "chip": "ym2612"
    },
    {
      "channel": 2,
      "note": 38,
      "start": 17.7913,
      "duration": 0.1751,
      "velocity": 106,
      "chip": "ym2612"
    },
    {
      "channel": 3,
      "note": 79,
      "start": 17.7935,
      "duration": 0.1751,
      "velocity": 127,
      "chip": "ym2612"
    },
    {
      "channel": 4,
      "note": 62,
      "start": 17.7956,
      "duration": 0.1735,
      "velocity": 102,
      "chip": "ym2612"
    },
    {
      "channel": 2,
      "note": 40,
      "start": 17.9666,
      "duration": 0.0998,
      "velocity": 106,
      "chip": "ym2612"
    },
    {
      "channel": 3,
      "note": 79,
      "start": 17.9687,
      "duration": 0.2017,
      "velocity": 121,
      "chip": "ym2612"
    },
    {
      "channel": 4,
      "note": 65,
      "start": 17.9693,
      "duration": 0.3741,
      "velocity": 102,
      "chip": "ym2612"
    },
    {
      "channel": 2,
      "note": 40,
      "start": 18.0666,
      "duration": 0.1017,
      "velocity": 106,
      "chip": "ym2612"
    },
    {
      "channel": 2,
      "note": 40,
      "start": 18.1685,
      "duration": 0.1739,
      "velocity": 106,
      "chip": "ym2612"
    },
    {
      "channel": 3,
      "note": 79,
      "start": 18.1706,
      "duration": 0.1723,
      "velocity": 121,
      "chip": "ym2612"
    },
    {
      "channel": 2,
      "note": 40,
      "start": 18.3425,
      "duration": 0.3805,
      "velocity": 106,
      "chip": "ym2612"
    },
    {
      "channel": 3,
      "note": 79,
      "start": 18.3431,
      "duration": 0.2042,
      "velocity": 127,
      "chip": "ym2612"
    },
    {
      "channel": 4,
      "note": 73,
      "start": 18.3436,
      "duration": 0.2042,
      "velocity": 102,
      "chip": "ym2612"
    },
    {
      "channel": 0,
      "note": 58,
      "start": 18.5447,
      "duration": 0.7276,
      "velocity": 103,
      "chip": "ym2612"
    },
    {
      "channel": 1,
      "note": 50,
      "start": 18.5453,
      "duration": 0.7276,
      "velocity": 117,
      "chip": "ym2612"
    },
    {
      "channel": 3,
      "note": 79,
      "start": 18.5474,
      "duration": 0.1778,
      "velocity": 121,
      "chip": "ym2612"
    },
    {
      "channel": 4,
      "note": 72,
      "start": 18.548,
      "duration": 2.2094,
      "velocity": 102,
      "chip": "ym2612"
    },
    {
      "channel": 2,
      "note": 38,
      "start": 18.7232,
      "duration": 0.1914,
      "velocity": 106,
      "chip": "ym2612"
    },
    {
      "channel": 3,
      "note": 79,
      "start": 18.7254,
      "duration": 0.1898,
      "velocity": 121,
      "chip": "ym2612"
    },
    {
      "channel": 2,
      "note": 38,
      "start": 18.9148,
      "duration": 0.1741,
      "velocity": 106,
      "chip": "ym2612"
    },
    {
      "channel": 3,
      "note": 79,
      "start": 18.9154,
      "duration": 0.0836,
      "velocity": 121,
      "chip": "ym2612"
    },
    {
      "channel": 3,
      "note": 79,
      "start": 18.9992,
      "duration": 0.0918,
      "velocity": 127,
      "chip": "ym2612"
    },
    {
      "channel": 2,
      "note": 38,
      "start": 19.0891,
      "duration": 0.1844,
      "velocity": 106,
      "chip": "ym2612"
    },
    {
      "channel": 3,
      "note": 79,
      "start": 19.0912,
      "duration": 0.1843,
      "velocity": 121,
      "chip": "ym2612"
    },
    {
      "channel": 0,
      "note": 59,
      "start": 19.2725,
      "duration": 0.758,
      "velocity": 103,
      "chip": "ym2612"
    },
    {
      "channel": 1,
      "note": 50,
      "start": 19.273,
      "duration": 0.7579,
      "velocity": 117,
      "chip": "ym2612"
    },
    {
      "channel": 2,
      "note": 38,
      "start": 19.2736,
      "duration": 0.177,
      "velocity": 106,
      "chip": "ym2612"
    },
    {
      "channel": 3,
      "note": 79,
      "start": 19.2757,
      "duration": 0.1754,
      "velocity": 121,
      "chip": "ym2612"
    },
    {
      "channel": 2,
      "note": 41,
      "start": 19.4507,
      "duration": 0.0999,
      "velocity": 106,
      "chip": "ym2612"
    },
    {
      "channel": 3,
      "note": 79,
      "start": 19.4513,
      "duration": 0.202,
      "velocity": 121,
      "chip": "ym2612"
    },
    {
      "channel": 2,
      "note": 41,
      "start": 19.5507,
      "duration": 0.1021,
      "velocity": 106,
      "chip": "ym2612"
    },
    {
      "channel": 2,
      "note": 41,
      "start": 19.6529,
      "duration": 0.1754,
      "velocity": 106,
      "chip": "ym2612"
    },
    {
      "channel": 3,
      "note": 79,
      "start": 19.6535,
      "duration": 0.1768,
      "velocity": 127,
      "chip": "ym2612"
    },
    {
      "channel": 2,
      "note": 41,
      "start": 19.8284,
      "duration": 0.3844,
      "velocity": 106,
      "chip": "ym2612"
    },
    {
      "channel": 3,
      "note": 79,
      "start": 19.8306,
      "duration": 0.2026,
      "velocity": 121,
      "chip": "ym2612"
    },
    {
      "channel": 0,
      "note": 58,
      "start": 20.0306,
      "duration": 0.723,
      "velocity": 103,
      "chip": "ym2612"
    },
    {
      "channel": 1,
      "note": 50,
      "start": 20.0311,
      "duration": 0.723,
      "velocity": 117,
      "chip": "ym2612"
    },
    {
      "channel": 3,
      "note": 79,
      "start": 20.0334,
      "duration": 0.18,
      "velocity": 121,
      "chip": "ym2612"
    },
    {
      "channel": 2,
      "note": 40,
      "start": 20.2129,
      "duration": 0.18,
      "velocity": 106,
      "chip": "ym2612"
    },
    {
      "channel": 3,
      "note": 79,
      "start": 20.2135,
      "duration": 0.0899,
      "velocity": 127,
      "chip": "ym2612"
    },
    {
      "channel": 3,
      "note": 79,
      "start": 20.3035,
      "duration": 0.182,
      "velocity": 121,
      "chip": "ym2612"
    },
    {
      "channel": 2,
      "note": 40,
      "start": 20.3932,
      "duration": 0.1795,
      "velocity": 106,
      "chip": "ym2612"
    },
    {
      "channel": 3,
      "note": 79,
      "start": 20.4857,
      "duration": 0.0876,
      "velocity": 121,
      "chip": "ym2612"
    },
    {
      "channel": 2,
      "note": 40,
      "start": 20.5728,
      "duration": 0.1819,
      "velocity": 106,
      "chip": "ym2612"
    },
    {
      "channel": 3,
      "note": 79,
      "start": 20.5734,
      "duration": 0.1819,
      "velocity": 121,
      "chip": "ym2612"
    },
    {
      "channel": 0,
      "note": 57,
      "start": 20.7538,
      "duration": 0.7626,
      "velocity": 103,
      "chip": "ym2612"
    },
    {
      "channel": 1,
      "note": 50,
      "start": 20.7543,
      "duration": 0.7626,
      "velocity": 117,
      "chip": "ym2612"
    },
    {
      "channel": 2,
      "note": 38,
      "start": 20.7549,
      "duration": 0.1769,
      "velocity": 106,
      "chip": "ym2612"
    },
    {
      "channel": 3,
      "note": 79,
      "start": 20.7554,
      "duration": 0.1785,
      "velocity": 127,
      "chip": "ym2612"
    },
    {
      "channel": 4,
      "note": 62,
      "start": 20.7576,
      "duration": 0.1768,
      "velocity": 102,
      "chip": "ym2612"
    },
    {
      "channel": 2,
      "note": 40,
      "start": 20.9319,
      "duration": 0.0999,
      "velocity": 106,
      "chip": "ym2612"
    },
    {
      "channel": 3,
      "note": 79,
      "start": 20.9341,
      "duration": 0.2017,
      "velocity": 121,
      "chip": "ym2612"
    },
    {
      "channel": 4,
      "note": 65,
      "start": 20.9346,
      "duration": 0.3807,
      "velocity": 102,
      "chip": "ym2612"
    },
    {
      "channel": 2,
      "note": 40,
      "start": 21.032,
      "duration": 0.1017,
      "velocity": 106,
      "chip": "ym2612"
    },
    {
      "channel": 2,
      "note": 40,
      "start": 21.1338,
      "duration": 0.1803,
      "velocity": 106,
      "chip": "ym2612"
    },
    {
      "channel": 3,
      "note": 79,
      "start": 21.136,
      "duration": 0.1787,
      "velocity": 121,
      "chip": "ym2612"
    },
    {
      "channel": 2,
      "note": 40,
      "start": 21.3143,
      "duration": 0.3752,
      "velocity": 106,
      "chip": "ym2612"
    },
    {
      "channel": 3,
      "note": 79,
      "start": 21.3149,
      "duration": 0.2042,
      "velocity": 127,
      "chip": "ym2612"
    },
    {
      "channel": 4,
      "note": 73,
      "start": 21.3155,
      "duration": 0.2042,
      "velocity": 102,
      "chip": "ym2612"
    },
    {
      "channel": 0,
      "note": 58,
      "start": 21.5165,
      "duration": 0.7175,
      "velocity": 103,
      "chip": "ym2612"
    },
    {
      "channel": 1,
      "note": 50,
      "start": 21.5171,
      "duration": 0.7175,
      "velocity": 117,
      "chip": "ym2612"
    },
    {
      "channel": 3,
      "note": 79,
      "start": 21.5193,
      "duration": 0.1724,
      "velocity": 121,
      "chip": "ym2612"
    },
    {
      "channel": 4,
      "note": 72,
      "start": 21.5198,
      "duration": 2.1703,
      "velocity": 102,
      "chip": "ym2612"
    },
    {
      "channel": 2,
      "note": 38,
      "start": 21.6897,
      "duration": 0.1927,
      "velocity": 106,
      "chip": "ym2612"
    },
    {
      "channel": 3,
      "note": 79,
      "start": 21.6918,
      "duration": 0.1911,
      "velocity": 121,
      "chip": "ym2612"
    },
    {
      "channel": 2,
      "note": 38,
      "start": 21.8826,
      "duration": 0.1739,
      "velocity": 106,
      "chip": "ym2612"
    },
    {
      "channel": 3,
      "note": 79,
      "start": 21.8831,
      "duration": 0.0849,
      "velocity": 121,
      "chip": "ym2612"
    },
    {
      "channel": 3,
      "note": 79,
      "start": 21.9682,
      "duration": 0.0903,
      "velocity": 127,
      "chip": "ym2612"
    },
    {
      "channel": 2,
      "note": 38,
      "start": 22.0566,
      "duration": 0.1785,
      "velocity": 106,
      "chip": "ym2612"
    },
    {
      "channel": 3,
      "note": 79,
      "start": 22.0587,
      "duration": 0.1784,
      "velocity": 121,
      "chip": "ym2612"
    },
    {
      "channel": 0,
      "note": 59,
      "start": 22.2341,
      "duration": 0.7429,
      "velocity": 103,
      "chip": "ym2612"
    },
    {
      "channel": 1,
      "note": 50,
      "start": 22.2347,
      "duration": 0.7429,
      "velocity": 117,
      "chip": "ym2612"
    },
    {
      "channel": 2,
      "note": 38,
      "start": 22.2353,
      "duration": 0.177,
      "velocity": 106,
      "chip": "ym2612"
    },
    {
      "channel": 3,
      "note": 79,
      "start": 22.2374,
      "duration": 0.1754,
      "velocity": 121,
      "chip": "ym2612"
    },
    {
      "channel": 2,
      "note": 41,
      "start": 22.4124,
      "duration": 0.0999,
      "velocity": 106,
      "chip": "ym2612"
    },
    {
      "channel": 3,
      "note": 79,
      "start": 22.4129,
      "duration": 0.202,
      "velocity": 121,
      "chip": "ym2612"
    },
    {
      "channel": 2,
      "note": 41,
      "start": 22.5124,
      "duration": 0.1021,
      "velocity": 106,
      "chip": "ym2612"
    },
    {
      "channel": 2,
      "note": 41,
      "start": 22.6146,
      "duration": 0.1754,
      "velocity": 106,
      "chip": "ym2612"
    },
    {
      "channel": 3,
      "note": 79,
      "start": 22.6152,
      "duration": 0.1768,
      "velocity": 127,
      "chip": "ym2612"
    },
    {
      "channel": 2,
      "note": 41,
      "start": 22.79,
      "duration": 0.3641,
      "velocity": 106,
      "chip": "ym2612"
    },
    {
      "channel": 3,
      "note": 79,
      "start": 22.7922,
      "duration": 0.1876,
      "velocity": 121,
      "chip": "ym2612"
    },
    {
      "channel": 0,
      "note": 58,
      "start": 22.9772,
      "duration": 0.7074,
      "velocity": 103,
      "chip": "ym2612"
    },
    {
      "channel": 1,
      "note": 50,
      "start": 22.9778,
      "duration": 0.7074,
      "velocity": 117,
      "chip": "ym2612"
    },
    {
      "channel": 3,
      "note": 79,
      "start": 22.98,
      "duration": 0.0861,
      "velocity": 121,
      "chip": "ym2612"
    },
    {
      "channel": 3,
      "note": 79,
      "start": 23.0662,
      "duration": 0.09,
      "velocity": 127,
      "chip": "ym2612"
    },
    {
      "channel": 2,
      "note": 40,
      "start": 23.1543,
      "duration": 0.1788,
      "velocity": 106,
      "chip": "ym2612"
    },
    {
      "channel": 3,
      "note": 79,
      "start": 23.1565,
      "duration": 0.1788,
      "velocity": 121,
      "chip": "ym2612"
    },
    {
      "channel": 2,
      "note": 40,
      "start": 23.3333,
      "duration": 0.1723,
      "velocity": 106,
      "chip": "ym2612"
    },
    {
      "channel": 3,
      "note": 79,
      "start": 23.3354,
      "duration": 0.1723,
      "velocity": 127,
      "chip": "ym2612"
    },
    {
      "channel": 2,
      "note": 40,
      "start": 23.5057,
      "duration": 0.1802,
      "velocity": 106,
      "chip": "ym2612"
    },
    {
      "channel": 3,
      "note": 79,
      "start": 23.5078,
      "duration": 0.1802,
      "velocity": 121,
      "chip": "ym2612"
    },
    {
      "channel": 0,
      "note": 57,
      "start": 23.6848,
      "duration": 0.76,
      "velocity": 103,
      "chip": "ym2612"
    },
    {
      "channel": 1,
      "note": 50,
      "start": 23.6854,
      "duration": 0.7599,
      "velocity": 117,
      "chip": "ym2612"
    },
    {
      "channel": 2,
      "note": 38,
      "start": 23.686,
      "duration": 0.1739,
      "velocity": 106,
      "chip": "ym2612"
    },
    {
      "channel": 3,
      "note": 79,
      "start": 23.6882,
      "duration": 0.1739,
      "velocity": 127,
      "chip": "ym2612"
    },
    {
      "channel": 4,
      "note": 62,
      "start": 23.6903,
      "duration": 0.1723,
      "velocity": 102,
      "chip": "ym2612"
    },
    {
      "channel": 2,
      "note": 40,
      "start": 23.8601,
      "duration": 0.0999,
      "velocity": 106,
      "chip": "ym2612"
    },
    {
      "channel": 3,
      "note": 79,
      "start": 23.8622,
      "duration": 0.2017,
      "velocity": 121,
      "chip": "ym2612"
    },
    {
      "channel": 4,
      "note": 65,
      "start": 23.8628,
      "duration": 0.3809,
      "velocity": 102,
      "chip": "ym2612"
    },
    {
      "channel": 2,
      "note": 40,
      "start": 23.9601,
      "duration": 0.1017,
      "velocity": 106,
      "chip": "ym2612"
    },
    {
      "channel": 2,
      "note": 40,
      "start": 24.062,
      "duration": 0.1807,
      "velocity": 106,
      "chip": "ym2612"
    },
    {
      "channel": 3,
      "note": 79,
      "start": 24.0642,
      "duration": 0.179,
      "velocity": 121,
      "chip": "ym2612"
    },
    {
      "channel": 2,
      "note": 40,
      "start": 24.2428,
      "duration": 0.3805,
      "velocity": 106,
      "chip": "ym2612"
    },
    {
      "channel": 3,
      "note": 79,
      "start": 24.2434,
      "duration": 0.2042,
      "velocity": 127,
      "chip": "ym2612"
    },
    {
      "channel": 4,
      "note": 73,
      "start": 24.2439,
      "duration": 0.2042,
      "velocity": 102,
      "chip": "ym2612"
    },
    {
      "channel": 0,
      "note": 58,
      "start": 24.445,
      "duration": 0.7276,
      "velocity": 103,
      "chip": "ym2612"
    },
    {
      "channel": 1,
      "note": 50,
      "start": 24.4456,
      "duration": 0.7276,
      "velocity": 117,
      "chip": "ym2612"
    },
    {
      "channel": 3,
      "note": 79,
      "start": 24.4477,
      "duration": 0.1778,
      "velocity": 121,
      "chip": "ym2612"
    },
    {
      "channel": 4,
      "note": 72,
      "start": 24.4483,
      "duration": 5.4861,
      "velocity": 104,
      "chip": "ym2612"
    },
    {
      "channel": 2,
      "note": 38,
      "start": 24.6235,
      "duration": 0.1914,
      "velocity": 106,
      "chip": "ym2612"
    },
    {
      "channel": 3,
      "note": 79,
      "start": 24.6257,
      "duration": 0.1898,
      "velocity": 121,
      "chip": "ym2612"
    },
    {
      "channel": 2,
      "note": 38,
      "start": 24.8151,
      "duration": 0.1741,
      "velocity": 106,
      "chip": "ym2612"
    },
    {
      "channel": 3,
      "note": 79,
      "start": 24.8157,
      "duration": 0.0836,
      "velocity": 121,
      "chip": "ym2612"
    },
    {
      "channel": 3,
      "note": 79,
      "start": 24.8995,
      "duration": 0.0918,
      "velocity": 127,
      "chip": "ym2612"
    },
    {
      "channel": 2,
      "note": 38,
      "start": 24.9894,
      "duration": 0.1844,
      "velocity": 106,
      "chip": "ym2612"
    },
    {
      "channel": 3,
      "note": 79,
      "start": 24.9915,
      "duration": 0.1843,
      "velocity": 121,
      "chip": "ym2612"
    },
    {
      "channel": 0,
      "note": 59,
      "start": 25.1728,
      "duration": 0.758,
      "velocity": 103,
      "chip": "ym2612"
    },
    {
      "channel": 1,
      "note": 50,
      "start": 25.1733,
      "duration": 0.7579,
      "velocity": 117,
      "chip": "ym2612"
    },
    {
      "channel": 2,
      "note": 38,
      "start": 25.1739,
      "duration": 0.177,
      "velocity": 106,
      "chip": "ym2612"
    },
    {
      "channel": 3,
      "note": 79,
      "start": 25.176,
      "duration": 0.1754,
      "velocity": 121,
      "chip": "ym2612"
    },
    {
      "channel": 2,
      "note": 41,
      "start": 25.351,
      "duration": 0.0999,
      "velocity": 106,
      "chip": "ym2612"
    },
    {
      "channel": 3,
      "note": 79,
      "start": 25.3516,
      "duration": 0.202,
      "velocity": 121,
      "chip": "ym2612"
    },
    {
      "channel": 2,
      "note": 41,
      "start": 25.451,
      "duration": 0.1021,
      "velocity": 106,
      "chip": "ym2612"
    },
    {
      "channel": 2,
      "note": 41,
      "start": 25.5532,
      "duration": 0.1754,
      "velocity": 106,
      "chip": "ym2612"
    },
    {
      "channel": 3,
      "note": 79,
      "start": 25.5538,
      "duration": 0.1768,
      "velocity": 127,
      "chip": "ym2612"
    },
    {
      "channel": 2,
      "note": 41,
      "start": 25.7287,
      "duration": 0.3844,
      "velocity": 106,
      "chip": "ym2612"
    },
    {
      "channel": 3,
      "note": 79,
      "start": 25.7309,
      "duration": 0.2026,
      "velocity": 121,
      "chip": "ym2612"
    },
    {
      "channel": 0,
      "note": 58,
      "start": 25.9309,
      "duration": 0.7227,
      "velocity": 103,
      "chip": "ym2612"
    },
    {
      "channel": 1,
      "note": 50,
      "start": 25.9314,
      "duration": 0.7227,
      "velocity": 117,
      "chip": "ym2612"
    },
    {
      "channel": 3,
      "note": 79,
      "start": 25.9337,
      "duration": 0.18,
      "velocity": 121,
      "chip": "ym2612"
    },
    {
      "channel": 2,
      "note": 40,
      "start": 26.1132,
      "duration": 0.18,
      "velocity": 106,
      "chip": "ym2612"
    },
    {
      "channel": 3,
      "note": 79,
      "start": 26.1138,
      "duration": 0.0899,
      "velocity": 127,
      "chip": "ym2612"
    },
    {
      "channel": 3,
      "note": 79,
      "start": 26.2038,
      "duration": 0.182,
      "velocity": 121,
      "chip": "ym2612"
    },
    {
      "channel": 2,
      "note": 39,
      "start": 26.2934,
      "duration": 0.1795,
      "velocity": 106,
      "chip": "ym2612"
    },
    {
      "channel": 3,
      "note": 79,
      "start": 26.386,
      "duration": 0.0876,
      "velocity": 121,
      "chip": "ym2612"
    },
    {
      "channel": 2,
      "note": 38,
      "start": 26.4731,
      "duration": 0.1831,
      "velocity": 106,
      "chip": "ym2612"
    },
    {
      "channel": 3,
      "note": 79,
      "start": 26.4737,
      "duration": 0.1831,
      "velocity": 121,
      "chip": "ym2612"
    },
    {
      "channel": 0,
      "note": 57,
      "start": 26.6538,
      "duration": 0.758,
      "velocity": 103,
      "chip": "ym2612"
    },
    {
      "channel": 1,
      "note": 50,
      "start": 26.6543,
      "duration": 0.758,
      "velocity": 117,
      "chip": "ym2612"
    },
    {
      "channel": 2,
      "note": 49,
      "start": 26.6564,
      "duration": 0.1716,
      "velocity": 106,
      "chip": "ym2612"
    },
    {
      "channel": 3,
      "note": 79,
      "start": 26.657,
      "duration": 0.1732,
      "velocity": 127,
      "chip": "ym2612"
    },
    {
      "channel": 2,
      "note": 48,
      "start": 26.8282,
      "duration": 0.9558,
      "velocity": 106,
      "chip": "ym2612"
    },
    {
      "channel": 3,
      "note": 79,
      "start": 26.8304,
      "duration": 0.2012,
      "velocity": 121,
      "chip": "ym2612"
    },
    {
      "channel": 3,
      "note": 79,
      "start": 27.0317,
      "duration": 0.1795,
      "velocity": 121,
      "chip": "ym2612"
    },
    {
      "channel": 3,
      "note": 79,
      "start": 27.2114,
      "duration": 0.2031,
      "velocity": 127,
      "chip": "ym2612"
    },
    {
      "channel": 0,
      "note": 58,
      "start": 27.4119,
      "duration": 0.7234,
      "velocity": 103,
      "chip": "ym2612"
    },
    {
      "channel": 1,
      "note": 50,
      "start": 27.4125,
      "duration": 0.7234,
      "velocity": 117,
      "chip": "ym2612"
    },
    {
      "channel": 3,
      "note": 79,
      "start": 27.4147,
      "duration": 0.1779,
      "velocity": 121,
      "chip": "ym2612"
    },
    {
      "channel": 3,
      "note": 79,
      "start": 27.5928,
      "duration": 0.1918,
      "velocity": 121,
      "chip": "ym2612"
    },
    {
      "channel": 2,
      "note": 45,
      "start": 27.7842,
      "duration": 0.1756,
      "velocity": 106,
      "chip": "ym2612"
    },
    {
      "channel": 3,
      "note": 79,
      "start": 27.7848,
      "duration": 0.0821,
      "velocity": 121,
      "chip": "ym2612"
    },
    {
      "channel": 3,
      "note": 79,
      "start": 27.8671,
      "duration": 0.0949,
      "velocity": 127,
      "chip": "ym2612"
    },
    {
      "channel": 2,
      "note": 43,
      "start": 27.96,
      "duration": 0.1763,
      "velocity": 106,
      "chip": "ym2612"
    },
    {
      "channel": 3,
      "note": 79,
      "start": 27.9622,
      "duration": 0.1763,
      "velocity": 121,
      "chip": "ym2612"
    },
    {
      "channel": 0,
      "note": 59,
      "start": 28.1355,
      "duration": 0.7054,
      "velocity": 103,
      "chip": "ym2612"
    },
    {
      "channel": 1,
      "note": 50,
      "start": 28.136,
      "duration": 0.7054,
      "velocity": 117,
      "chip": "ym2612"
    },
    {
      "channel": 2,
      "note": 45,
      "start": 28.1366,
      "duration": 1.7936,
      "velocity": 104,
      "chip": "ym2612"
    },
    {
      "channel": 3,
      "note": 79,
      "start": 28.1387,
      "duration": 0.1696,
      "velocity": 121,
      "chip": "ym2612"
    },
    {
      "channel": 3,
      "note": 79,
      "start": 28.3085,
      "duration": 0.1783,
      "velocity": 121,
      "chip": "ym2612"
    },
    {
      "channel": 3,
      "note": 79,
      "start": 28.487,
      "duration": 0.1745,
      "velocity": 127,
      "chip": "ym2612"
    },
    {
      "channel": 3,
      "note": 79,
      "start": 28.6617,
      "duration": 0.182,
      "velocity": 121,
      "chip": "ym2612"
    },
    {
      "channel": 0,
      "note": 58,
      "start": 28.8411,
      "duration": 0.7032,
      "velocity": 102,
      "chip": "ym2612"
    },
    {
      "channel": 1,
      "note": 50,
      "start": 28.8416,
      "duration": 0.7033,
      "velocity": 117,
      "chip": "ym2612"
    },
    {
      "channel": 3,
      "note": 79,
      "start": 28.8439,
      "duration": 0.0874,
      "velocity": 121,
      "chip": "ym2612"
    },
    {
      "channel": 3,
      "note": 79,
      "start": 28.9315,
      "duration": 0.0879,
      "velocity": 127,
      "chip": "ym2612"
    },
    {
      "channel": 3,
      "note": 79,
      "start": 29.0195,
      "duration": 0.1795,
      "velocity": 121,
      "chip": "ym2612"
    },
    {
      "channel": 3,
      "note": 79,
      "start": 29.1992,
      "duration": 0.1706,
      "velocity": 127,
      "chip": "ym2612"
    },
    {
      "channel": 3,
      "note": 79,
      "start": 29.37,
      "duration": 0.1771,
      "velocity": 121,
      "chip": "ym2612"
    },
    {
      "channel": 0,
      "note": 69,
      "start": 29.5445,
      "duration": 0.76,
      "velocity": 102,
      "chip": "ym2612"
    },
    {
      "channel": 1,
      "note": 50,
      "start": 29.5451,
      "duration": 0.7599,
      "velocity": 117,
      "chip": "ym2612"
    },
    {
      "channel": 3,
      "note": 79,
      "start": 29.5473,
      "duration": 0.18,
      "velocity": 127,
      "chip": "ym2612"
    },
    {
      "channel": 3,
      "note": 79,
      "start": 29.7275,
      "duration": 0.2048,
      "velocity": 121,
      "chip": "ym2612"
    },
    {
      "channel": 2,
      "note": 74,
      "start": 29.9303,
      "duration": 0.7352,
      "velocity": 104,
      "chip": "ym2612"
    },
    {
      "channel": 3,
      "note": 79,
      "start": 29.9324,
      "duration": 0.1696,
      "velocity": 121,
      "chip": "ym2612"
    },
    {
      "channel": 4,
      "note": 69,
      "start": 29.9346,
      "duration": 0.7319,
      "velocity": 104,
      "chip": "ym2612"
    },
    {
      "channel": 3,
      "note": 79,
      "start": 30.1022,
      "duration": 0.205,
      "velocity": 127,
      "chip": "ym2612"
    },
    {
      "channel": 0,
      "note": 70,
      "start": 30.3046,
      "duration": 0.7209,
      "velocity": 102,
      "chip": "ym2612"
    },
    {
      "channel": 1,
      "note": 50,
      "start": 30.3052,
      "duration": 0.7209,
      "velocity": 117,
      "chip": "ym2612"
    },
    {
      "channel": 3,
      "note": 79,
      "start": 30.3074,
      "duration": 0.1715,
      "velocity": 121,
      "chip": "ym2612"
    },
    {
      "channel": 3,
      "note": 79,
      "start": 30.4791,
      "duration": 0.1868,
      "velocity": 121,
      "chip": "ym2612"
    },
    {
      "channel": 2,
      "note": 74,
      "start": 30.6656,
      "duration": 0.741,
      "velocity": 104,
      "chip": "ym2612"
    },
    {
      "channel": 3,
      "note": 79,
      "start": 30.6661,
      "duration": 0.0882,
      "velocity": 121,
      "chip": "ym2612"
    },
    {
      "channel": 4,
      "note": 70,
      "start": 30.6667,
      "duration": 0.741,
      "velocity": 104,
      "chip": "ym2612"
    },
    {
      "channel": 3,
      "note": 79,
      "start": 30.7545,
      "duration": 0.0908,
      "velocity": 127,
      "chip": "ym2612"
    },
    {
      "channel": 3,
      "note": 79,
      "start": 30.8454,
      "duration": 0.1828,
      "velocity": 121,
      "chip": "ym2612"
    },
    {
      "channel": 0,
      "note": 71,
      "start": 31.0257,
      "duration": 0.765,
      "velocity": 102,
      "chip": "ym2612"
    },
    {
      "channel": 1,
      "note": 50,
      "start": 31.0262,
      "duration": 0.765,
      "velocity": 117,
      "chip": "ym2612"
    },
    {
      "channel": 3,
      "note": 79,
      "start": 31.0284,
      "duration": 0.1753,
      "velocity": 121,
      "chip": "ym2612"
    },
    {
      "channel": 3,
      "note": 79,
      "start": 31.2039,
      "duration": 0.2032,
      "velocity": 121,
      "chip": "ym2612"
    },
    {
      "channel": 2,
      "note": 74,
      "start": 31.4067,
      "duration": 0.7467,
      "velocity": 104,
      "chip": "ym2612"
    },
    {
      "channel": 3,
      "note": 79,
      "start": 31.4073,
      "duration": 0.1825,
      "velocity": 127,
      "chip": "ym2612"
    },
    {
      "channel": 4,
      "note": 71,
      "start": 31.4079,
      "duration": 0.7462,
      "velocity": 104,
      "chip": "ym2612"
    },
    {
      "channel": 3,
      "note": 79,
      "start": 31.59,
      "duration": 0.2034,
      "velocity": 121,
      "chip": "ym2612"
    },
    {
      "channel": 0,
      "note": 70,
      "start": 31.7908,
      "duration": 0.7226,
      "velocity": 102,
      "chip": "ym2612"
    },
    {
      "channel": 1,
      "note": 50,
      "start": 31.7914,
      "duration": 0.7226,
      "velocity": 117,
      "chip": "ym2612"
    },
    {
      "channel": 3,
      "note": 79,
      "start": 31.7936,
      "duration": 0.1746,
      "velocity": 121,
      "chip": "ym2612"
    },
    {
      "channel": 3,
      "note": 79,
      "start": 31.9684,
      "duration": 0.0922,
      "velocity": 127,
      "chip": "ym2612"
    },
    {
      "channel": 3,
      "note": 79,
      "start": 32.0608,
      "duration": 0.1788,
      "velocity": 121,
      "chip": "ym2612"
    },
    {
      "channel": 2,
      "note": 74,
      "start": 32.1536,
      "duration": 0.7408,
      "velocity": 104,
      "chip": "ym2612"
    },
    {
      "channel": 4,
      "note": 70,
      "start": 32.1543,
      "duration": 0.7429,
      "velocity": 104,
      "chip": "ym2612"
    },
    {
      "channel": 3,
      "note": 79,
      "start": 32.2398,
      "duration": 0.0872,
      "velocity": 121,
      "chip": "ym2612"
    },
    {
      "channel": 3,
      "note": 79,
      "start": 32.3272,
      "duration": 0.1874,
      "velocity": 121,
      "chip": "ym2612"
    },
    {
      "channel": 0,
      "note": 69,
      "start": 32.5136,
      "duration": 0.7612,
      "velocity": 102,
      "chip": "ym2612"
    },
    {
      "channel": 1,
      "note": 50,
      "start": 32.5142,
      "duration": 0.7612,
      "velocity": 117,
      "chip": "ym2612"
    },
    {
      "channel": 3,
      "note": 79,
      "start": 32.5148,
      "duration": 0.1785,
      "velocity": 127,
      "chip": "ym2612"
    },
    {
      "channel": 3,
      "note": 79,
      "start": 32.6934,
      "duration": 0.2031,
      "velocity": 121,
      "chip": "ym2612"
    },
    {
      "channel": 2,
      "note": 74,
      "start": 32.8946,
      "duration": 0.7412,
      "velocity": 104,
      "chip": "ym2612"
    },
    {
      "channel": 3,
      "note": 79,
      "start": 32.8968,
      "duration": 0.1756,
      "velocity": 121,
      "chip": "ym2612"
    },
    {
      "channel": 4,
      "note": 69,
      "start": 32.8973,
      "duration": 0.7395,
      "velocity": 104,
      "chip": "ym2612"
    },
    {
      "channel": 3,
      "note": 79,
      "start": 33.0726,
      "duration": 0.205,
      "velocity": 127,
      "chip": "ym2612"
    },
    {
      "channel": 0,
      "note": 70,
      "start": 33.275,
      "duration": 0.7209,
      "velocity": 102,
      "chip": "ym2612"
    },
    {
      "channel": 1,
      "note": 50,
      "start": 33.2755,
      "duration": 0.7209,
      "velocity": 117,
      "chip": "ym2612"
    },
    {
      "channel": 3,
      "note": 79,
      "start": 33.2777,
      "duration": 0.1715,
      "velocity": 121,
      "chip": "ym2612"
    },
    {
      "channel": 3,
      "note": 79,
      "start": 33.4495,
      "duration": 0.1868,
      "velocity": 121,
      "chip": "ym2612"
    },
    {
      "channel": 2,
      "note": 74,
      "start": 33.6359,
      "duration": 0.741,
      "velocity": 104,
      "chip": "ym2612"
    },
    {
      "channel": 3,
      "note": 79,
      "start": 33.6365,
      "duration": 0.0882,
      "velocity": 121,
      "chip": "ym2612"
    },
    {
      "channel": 4,
      "note": 70,
      "start": 33.6371,
      "duration": 0.741,
      "velocity": 104,
      "chip": "ym2612"
    },
    {
      "channel": 3,
      "note": 79,
      "start": 33.7248,
      "duration": 0.0908,
      "velocity": 127,
      "chip": "ym2612"
    },
    {
      "channel": 3,
      "note": 79,
      "start": 33.8158,
      "duration": 0.1828,
      "velocity": 121,
      "chip": "ym2612"
    },
    {
      "channel": 0,
      "note": 71,
      "start": 33.996,
      "duration": 0.7539,
      "velocity": 102,
      "chip": "ym2612"
    },
    {
      "channel": 1,
      "note": 50,
      "start": 33.9966,
      "duration": 0.7539,
      "velocity": 117,
      "chip": "ym2612"
    },
    {
      "channel": 3,
      "note": 79,
      "start": 33.9987,
      "duration": 0.1753,
      "velocity": 121,
      "chip": "ym2612"
    },
    {
      "channel": 3,
      "note": 79,
      "start": 34.1743,
      "duration": 0.2032,
      "velocity": 121,
      "chip": "ym2612"
    },
    {
      "channel": 2,
      "note": 74,
      "start": 34.3771,
      "duration": 0.7322,
      "velocity": 104,
      "chip": "ym2612"
    },
    {
      "channel": 3,
      "note": 79,
      "start": 34.3776,
      "duration": 0.1825,
      "velocity": 127,
      "chip": "ym2612"
    },
    {
      "channel": 4,
      "note": 71,
      "start": 34.3782,
      "duration": 0.7337,
      "velocity": 104,
      "chip": "ym2612"
    },
    {
      "channel": 3,
      "note": 79,
      "start": 34.5603,
      "duration": 0.1923,
      "velocity": 121,
      "chip": "ym2612"
    },
    {
      "channel": 0,
      "note": 70,
      "start": 34.75,
      "duration": 0.7021,
      "velocity": 104,
      "chip": "ym2612"
    },
    {
      "channel": 1,
      "note": 50,
      "start": 34.7506,
      "duration": 0.7021,
      "velocity": 117,
      "chip": "ym2612"
    },
    {
      "channel": 3,
      "note": 79,
      "start": 34.7528,
      "duration": 0.086,
      "velocity": 121,
      "chip": "ym2612"
    },
    {
      "channel": 3,
      "note": 79,
      "start": 34.839,
      "duration": 0.0907,
      "velocity": 127,
      "chip": "ym2612"
    },
    {
      "channel": 3,
      "note": 79,
      "start": 34.9299,
      "duration": 0.1814,
      "velocity": 121,
      "chip": "ym2612"
    },
    {
      "channel": 2,
      "note": 62,
      "start": 35.1093,
      "duration": 0.3455,
      "velocity": 102,
      "chip": "ym2612"
    },
    {
      "channel": 3,
      "note": 79,
      "start": 35.1115,
      "duration": 0.1658,
      "velocity": 127,
      "chip": "ym2612"
    },
    {
      "channel": 4,
      "note": 70,
      "start": 35.1121,
      "duration": 0.5587,
      "velocity": 104,
      "chip": "ym2612"
    },
    {
      "channel": 3,
      "note": 79,
      "start": 35.2774,
      "duration": 0.3912,
      "velocity": 121,
      "chip": "ym2612"
    },
    {
      "channel": 0,
      "note": 62,
      "start": 35.4523,
      "duration": 0.2141,
      "velocity": 104,
      "chip": "ym2612"
    },
    {
      "channel": 1,
      "note": 50,
      "start": 35.4529,
      "duration": 0.3288,
      "velocity": 117,
      "chip": "ym2612"
    },
    {
      "channel": 2,
      "note": 69,
      "start": 35.455,
      "duration": 1.3002,
      "velocity": 102,
      "chip": "ym2612"
    },
    {
      "channel": 0,
      "note": 65,
      "start": 35.6666,
      "duration": 0.3373,
      "velocity": 104,
      "chip": "ym2612"
    },
    {
      "channel": 3,
      "note": 79,
      "start": 35.6688,
      "duration": 0.115,
      "velocity": 127,
      "chip": "ym2612"
    },
    {
      "channel": 4,
      "note": 62,
      "start": 35.671,
      "duration": 0.2153,
      "velocity": 104,
      "chip": "ym2612"
    },
    {
      "channel": 1,
      "note": 57,
      "start": 35.7818,
      "duration": 0.3246,
      "velocity": 117,
      "chip": "ym2612"
    },
    {
      "channel": 3,
      "note": 79,
      "start": 35.7839,
      "duration": 0.3231,
      "velocity": 127,
      "chip": "ym2612"
    },
    {
      "channel": 4,
      "note": 65,
      "start": 35.8864,
      "duration": 0.32,
      "velocity": 104,
      "chip": "ym2612"
    },
    {
      "channel": 0,
      "note": 73,
      "start": 36.0041,
      "duration": 0.1017,
      "velocity": 104,
      "chip": "ym2612"
    },
    {
      "channel": 0,
      "note": 72,
      "start": 36.106,
      "duration": 0.548,
      "velocity": 104,
      "chip": "ym2612"
    },
    {
      "channel": 1,
      "note": 62,
      "start": 36.1066,
      "duration": 0.3277,
      "velocity": 117,
      "chip": "ym2612"
    },
    {
      "channel": 3,
      "note": 79,
      "start": 36.1072,
      "duration": 0.2105,
      "velocity": 127,
      "chip": "ym2612"
    },
    {
      "channel": 4,
      "note": 73,
      "start": 36.2066,
      "duration": 0.1115,
      "velocity": 104,
      "chip": "ym2612"
    },
    {
      "channel": 3,
      "note": 79,
      "start": 36.3178,
      "duration": 0.3384,
      "velocity": 121,
      "chip": "ym2612"
    },
    {
      "channel": 4,
      "note": 72,
      "start": 36.3183,
      "duration": 0.5425,
      "velocity": 104,
      "chip": "ym2612"
    },
    {
      "channel": 1,
      "note": 64,
      "start": 36.4344,
      "duration": 0.3203,
      "velocity": 117,
      "chip": "ym2612"
    },
    {
      "channel": 0,
      "note": 65,
      "start": 36.6542,
      "duration": 0.0999,
      "velocity": 104,
      "chip": "ym2612"
    },
    {
      "channel": 3,
      "note": 79,
      "start": 36.6564,
      "duration": 0.0396,
      "velocity": 121,
      "chip": "ym2612"
    },
    {
      "channel": 3,
      "note": 79,
      "start": 36.6962,
      "duration": 0.0612,
      "velocity": 127,
      "chip": "ym2612"
    },
    {
      "channel": 0,
      "note": 68,
      "start": 36.7543,
      "duration": 0.2151,
      "velocity": 104,
      "chip": "ym2612"
    },
    {
      "channel": 1,
      "note": 64,
      "start": 36.7549,
      "duration": 0.1065,
      "velocity": 117,
      "chip": "ym2612"
    },
    {
      "channel": 2,
      "note": 69,
      "start": 36.7554,
      "duration": 0.2151,
      "velocity": 102,
      "chip": "ym2612"
    },
    {
      "channel": 3,
      "note": 79,
      "start": 36.7575,
      "duration": 0.215,
      "velocity": 121,
      "chip": "ym2612"
    },
    {
      "channel": 4,
      "note": 65,
      "start": 36.861,
      "duration": 0.1121,
      "velocity": 104,
      "chip": "ym2612"
    },
    {
      "channel": 1,
      "note": 64,
      "start": 36.8614,
      "duration": 0.0119,
      "velocity": 117,
      "chip": "ym2612"
    },
    {
      "channel": 1,
      "note": 65,
      "start": 36.8733,
      "duration": 0.0296,
      "velocity": 117,
      "chip": "ym2612"
    },
    {
      "channel": 1,
      "note": 65,
      "start": 36.9029,
      "duration": 0.067,
      "velocity": 117,
      "chip": "ym2612"
    },
    {
      "channel": 0,
      "note": 69,
      "start": 36.9695,
      "duration": 1.1101,
      "velocity": 104,
      "chip": "ym2612"
    },
    {
      "channel": 1,
      "note": 65,
      "start": 36.97,
      "duration": 0.1324,
      "velocity": 117,
      "chip": "ym2612"
    },
    {
      "channel": 2,
      "note": 69,
      "start": 36.9706,
      "duration": 0.1324,
      "velocity": 102,
      "chip": "ym2612"
    },
    {
      "channel": 3,
      "note": 79,
      "start": 36.9727,
      "duration": 0.1324,
      "velocity": 127,
      "chip": "ym2612"
    },
    {
      "channel": 4,
      "note": 68,
      "start": 36.9733,
      "duration": 0.2309,
      "velocity": 104,
      "chip": "ym2612"
    },
    {
      "channel": 1,
      "note": 64,
      "start": 37.1026,
      "duration": 0.3133,
      "velocity": 117,
      "chip": "ym2612"
    },
    {
      "channel": 2,
      "note": 68,
      "start": 37.1032,
      "duration": 0.2076,
      "velocity": 102,
      "chip": "ym2612"
    },
    {
      "channel": 3,
      "note": 79,
      "start": 37.1053,
      "duration": 0.2076,
      "velocity": 121,
      "chip": "ym2612"
    },
    {
      "channel": 4,
      "note": 69,
      "start": 37.2044,
      "duration": 1.1091,
      "velocity": 104,
      "chip": "ym2612"
    },
    {
      "channel": 2,
      "note": 69,
      "start": 37.311,
      "duration": 0.3493,
      "velocity": 102,
      "chip": "ym2612"
    },
    {
      "channel": 3,
      "note": 79,
      "start": 37.3131,
      "duration": 0.1049,
      "velocity": 127,
      "chip": "ym2612"
    },
    {
      "channel": 1,
      "note": 62,
      "start": 37.416,
      "duration": 0.2437,
      "velocity": 117,
      "chip": "ym2612"
    },
    {
      "channel": 3,
      "note": 79,
      "start": 37.4183,
      "duration": 0.2441,
      "velocity": 121,
      "chip": "ym2612"
    },
    {
      "channel": 1,
      "note": 57,
      "start": 37.6599,
      "duration": 0.1057,
      "velocity": 117,
      "chip": "ym2612"
    },
    {
      "channel": 2,
      "note": 65,
      "start": 37.6605,
      "duration": 0.1057,
      "velocity": 102,
      "chip": "ym2612"
    },
    {
      "channel": 3,
      "note": 79,
      "start": 37.6626,
      "duration": 0.0412,
      "velocity": 121,
      "chip": "ym2612"
    },
    {
      "channel": 3,
      "note": 79,
      "start": 37.704,
      "duration": 0.0643,
      "velocity": 127,
      "chip": "ym2612"
    },
    {
      "channel": 1,
      "note": 53,
      "start": 37.7658,
      "duration": 0.1066,
      "velocity": 117,
      "chip": "ym2612"
    },
    {
      "channel": 2,
      "note": 64,
      "start": 37.7663,
      "duration": 0.2093,
      "velocity": 102,
      "chip": "ym2612"
    },
    {
      "channel": 3,
      "note": 79,
      "start": 37.7685,
      "duration": 0.2078,
      "velocity": 127,
      "chip": "ym2612"
    },
    {
      "channel": 1,
      "note": 52,
      "start": 37.8725,
      "duration": 0.1026,
      "velocity": 117,
      "chip": "ym2612"
    },
    {
      "channel": 1,
      "note": 50,
      "start": 37.9753,
      "duration": 0.105,
      "velocity": 117,
      "chip": "ym2612"
    },
    {
      "channel": 2,
      "note": 62,
      "start": 37.9759,
      "duration": 0.105,
      "velocity": 102,
      "chip": "ym2612"
    },
    {
      "channel": 3,
      "note": 79,
      "start": 37.9764,
      "duration": 0.3349,
      "velocity": 121,
      "chip": "ym2612"
    },
    {
      "channel": 0,
      "note": 65,
      "start": 38.0798,
      "duration": 0.2294,
      "velocity": 104,
      "chip": "ym2612"
    },
    {
      "channel": 1,
      "note": 50,
      "start": 38.0804,
      "duration": 0.3462,
      "velocity": 117,
      "chip": "ym2612"
    },
    {
      "channel": 2,
      "note": 57,
      "start": 38.081,
      "duration": 0.6744,
      "velocity": 102,
      "chip": "ym2612"
    },
    {
      "channel": 0,
      "note": 67,
      "start": 38.3093,
      "duration": 0.05,
      "velocity": 104,
      "chip": "ym2612"
    },
    {
      "channel": 3,
      "note": 79,
      "start": 38.3115,
      "duration": 0.1173,
      "velocity": 127,
      "chip": "ym2612"
    },
    {
      "channel": 4,
      "note": 65,
      "start": 38.3137,
      "duration": 0.214,
      "velocity": 104,
      "chip": "ym2612"
    },
    {
      "channel": 0,
      "note": 65,
      "start": 38.3593,
      "duration": 0.0668,
      "velocity": 104,
      "chip": "ym2612"
    },
    {
      "channel": 0,
      "note": 64,
      "start": 38.4262,
      "duration": 0.543,
      "velocity": 104,
      "chip": "ym2612"
    },
    {
      "channel": 1,
      "note": 52,
      "start": 38.4268,
      "duration": 0.328,
      "velocity": 117,
      "chip": "ym2612"
    },
    {
      "channel": 3,
      "note": 79,
      "start": 38.429,
      "duration": 0.3269,
      "velocity": 127,
      "chip": "ym2612"
    },
    {
      "channel": 4,
      "note": 67,
      "start": 38.5279,
      "duration": 0.0604,
      "velocity": 104,
      "chip": "ym2612"
    },
    {
      "channel": 4,
      "note": 65,
      "start": 38.5884,
      "duration": 0.0449,
      "velocity": 104,
      "chip": "ym2612"
    },
    {
      "channel": 4,
      "note": 64,
      "start": 38.6336,
      "duration": 0.5515,
      "velocity": 104,
      "chip": "ym2612"
    },
    {
      "channel": 1,
      "note": 53,
      "start": 38.755,
      "duration": 0.3318,
      "velocity": 117,
      "chip": "ym2612"
    },
    {
      "channel": 2,
      "note": 62,
      "start": 38.7555,
      "duration": 0.8687,
      "velocity": 104,
      "chip": "ym2612"
    },
    {
      "channel": 3,
      "note": 79,
      "start": 38.7561,
      "duration": 0.2139,
      "velocity": 127,
      "chip": "ym2612"
    },
    {
      "channel": 0,
      "note": 57,
      "start": 38.9694,
      "duration": 0.1168,
      "velocity": 104,
      "chip": "ym2612"
    },
    {
      "channel": 3,
      "note": 79,
      "start": 38.9701,
      "duration": 0.3355,
      "velocity": 121,
      "chip": "ym2612"
    },
    {
      "channel": 0,
      "note": 62,
      "start": 39.0864,
      "duration": 0.217,
      "velocity": 104,
      "chip": "ym2612"
    },
    {
      "channel": 1,
      "note": 55,
      "start": 39.087,
      "duration": 0.3173,
      "velocity": 117,
      "chip": "ym2612"
    },
    {
      "channel": 4,
      "note": 57,
      "start": 39.1853,
      "duration": 0.1209,
      "velocity": 104,
      "chip": "ym2612"
    },
    {
      "channel": 0,
      "note": 59,
      "start": 39.3035,
      "duration": 1.4191,
      "velocity": 104,
      "chip": "ym2612"
    },
    {
      "channel": 3,
      "note": 79,
      "start": 39.3058,
      "duration": 0.0412,
      "velocity": 121,
      "chip": "ym2612"
    },
    {
      "channel": 4,
      "note": 62,
      "start": 39.3064,
      "duration": 0.2023,
      "velocity": 104,
      "chip": "ym2612"
    },
    {
      "channel": 3,
      "note": 79,
      "start": 39.3471,
      "duration": 0.0593,
      "velocity": 127,
      "chip": "ym2612"
    },
    {
      "channel": 1,
      "note": 57,
      "start": 39.4045,
      "duration": 0.3373,
      "velocity": 117,
      "chip": "ym2612"
    },
    {
      "channel": 3,
      "note": 79,
      "start": 39.4066,
      "duration": 0.2196,
      "velocity": 121,
      "chip": "ym2612"
    },
    {
      "channel": 4,
      "note": 59,
      "start": 39.5089,
      "duration": 1.4459,
      "velocity": 104,
      "chip": "ym2612"
    },
    {
      "channel": 2,
      "note": 69,
      "start": 39.6243,
      "duration": 0.1179,
      "velocity": 104,
      "chip": "ym2612"
    },
    {
      "channel": 3,
      "note": 79,
      "start": 39.6265,
      "duration": 0.1179,
      "velocity": 127,
      "chip": "ym2612"
    },
    {
      "channel": 1,
      "note": 55,
      "start": 39.7419,
      "duration": 0.3249,
      "velocity": 117,
      "chip": "ym2612"
    },
    {
      "channel": 2,
      "note": 74,
      "start": 39.7424,
      "duration": 0.1144,
      "velocity": 104,
      "chip": "ym2612"
    },
    {
      "channel": 3,
      "note": 79,
      "start": 39.7446,
      "duration": 0.218,
      "velocity": 121,
      "chip": "ym2612"
    },
    {
      "channel": 2,
      "note": 73,
      "start": 39.8569,
      "duration": 0.1035,
      "velocity": 104,
      "chip": "ym2612"
    },
    {
      "channel": 2,
      "note": 72,
      "start": 39.9606,
      "duration": 0.1066,
      "velocity": 104,
      "chip": "ym2612"
    },
    {
      "channel": 3,
      "note": 79,
      "start": 39.9628,
      "duration": 0.1066,
      "velocity": 127,
      "chip": "ym2612"
    },
    {
      "channel": 1,
      "note": 53,
      "start": 40.0668,
      "duration": 0.3447,
      "velocity": 117,
      "chip": "ym2612"
    },
    {
      "channel": 2,
      "note": 71,
      "start": 40.0674,
      "duration": 0.2225,
      "velocity": 104,
      "chip": "ym2612"
    },
    {
      "channel": 3,
      "note": 79,
      "start": 40.0696,
      "duration": 0.2224,
      "velocity": 121,
      "chip": "ym2612"
    },
    {
      "channel": 2,
      "note": 69,
      "start": 40.2901,
      "duration": 0.4353,
      "velocity": 102,
      "chip": "ym2612"
    },
    {
      "channel": 3,
      "note": 79,
      "start": 40.2922,
      "duration": 0.0587,
      "velocity": 121,
      "chip": "ym2612"
    },
    {
      "channel": 3,
      "note": 79,
      "start": 40.3511,
      "duration": 0.0627,
      "velocity": 127,
      "chip": "ym2612"
    },
    {
      "channel": 1,
      "note": 52,
      "start": 40.4117,
      "duration": 0.3115,
      "velocity": 117,
      "chip": "ym2612"
    },
    {
      "channel": 3,
      "note": 79,
      "start": 40.4139,
      "duration": 0.2049,
      "velocity": 127,
      "chip": "ym2612"
    },
    {
      "channel": 3,
      "note": 79,
      "start": 40.6189,
      "duration": 0.3337,
      "velocity": 121,
      "chip": "ym2612"
    },
    {
      "channel": 0,
      "note": 62,
      "start": 40.7228,
      "duration": 0.2275,
      "velocity": 104,
      "chip": "ym2612"
    },
    {
      "channel": 1,
      "note": 50,
      "start": 40.7234,
      "duration": 0.3422,
      "velocity": 117,
      "chip": "ym2612"
    },
    {
      "channel": 2,
      "note": 69,
      "start": 40.7255,
      "duration": 0.6611,
      "velocity": 102,
      "chip": "ym2612"
    },
    {
      "channel": 0,
      "note": 65,
      "start": 40.9505,
      "duration": 0.3294,
      "velocity": 104,
      "chip": "ym2612"
    },
    {
      "channel": 3,
      "note": 79,
      "start": 40.9527,
      "duration": 0.1149,
      "velocity": 127,
      "chip": "ym2612"
    },
    {
      "channel": 4,
      "note": 62,
      "start": 40.9549,
      "duration": 0.2139,
      "velocity": 104,
      "chip": "ym2612"
    },
    {
      "channel": 1,
      "note": 57,
      "start": 41.0656,
      "duration": 0.3204,
      "velocity": 117,
      "chip": "ym2612"
    },
    {
      "channel": 3,
      "note": 79,
      "start": 41.0678,
      "duration": 0.3193,
      "velocity": 127,
      "chip": "ym2612"
    },
    {
      "channel": 4,
      "note": 65,
      "start": 41.169,
      "duration": 0.3309,
      "velocity": 104,
      "chip": "ym2612"
    },
    {
      "channel": 0,
      "note": 73,
      "start": 41.2801,
      "duration": 0.1054,
      "velocity": 104,
      "chip": "ym2612"
    },
    {
      "channel": 0,
      "note": 72,
      "start": 41.3856,
      "duration": 0.5508,
      "velocity": 104,
      "chip": "ym2612"
    },
    {
      "channel": 1,
      "note": 62,
      "start": 41.3862,
      "duration": 0.3444,
      "velocity": 117,
      "chip": "ym2612"
    },
    {
      "channel": 2,
      "note": 62,
      "start": 41.3868,
      "duration": 0.5502,
      "velocity": 102,
      "chip": "ym2612"
    },
    {
      "channel": 3,
      "note": 79,
      "start": 41.3873,
      "duration": 0.2267,
      "velocity": 127,
      "chip": "ym2612"
    },
    {
      "channel": 4,
      "note": 73,
      "start": 41.5001,
      "duration": 0.1146,
      "velocity": 104,
      "chip": "ym2612"
    },
    {
      "channel": 3,
      "note": 79,
      "start": 41.6142,
      "duration": 0.3249,
      "velocity": 121,
      "chip": "ym2612"
    },
    {
      "channel": 4,
      "note": 72,
      "start": 41.6148,
      "duration": 0.5379,
      "velocity": 104,
      "chip": "ym2612"
    },
    {
      "channel": 1,
      "note": 64,
      "start": 41.7308,
      "duration": 0.3212,
      "velocity": 117,
      "chip": "ym2612"
    },
    {
      "channel": 0,
      "note": 65,
      "start": 41.9366,
      "duration": 0.1149,
      "velocity": 104,
      "chip": "ym2612"
    },
    {
      "channel": 2,
      "note": 64,
      "start": 41.9372,
      "duration": 0.1154,
      "velocity": 102,
      "chip": "ym2612"
    },
    {
      "channel": 3,
      "note": 79,
      "start": 41.9394,
      "duration": 0.0529,
      "velocity": 121,
      "chip": "ym2612"
    },
    {
      "channel": 3,
      "note": 79,
      "start": 41.9925,
      "duration": 0.0622,
      "velocity": 127,
      "chip": "ym2612"
    },
    {
      "channel": 0,
      "note": 68,
      "start": 42.0516,
      "duration": 0.2113,
      "velocity": 104,
      "chip": "ym2612"
    },
    {
      "channel": 1,
      "note": 64,
      "start": 42.0522,
      "duration": 0.1011,
      "velocity": 117,
      "chip": "ym2612"
    },
    {
      "channel": 2,
      "note": 65,
      "start": 42.0527,
      "duration": 0.3274,
      "velocity": 102,
      "chip": "ym2612"
    },
    {
      "channel": 3,
      "note": 79,
      "start": 42.0549,
      "duration": 0.2108,
      "velocity": 121,
      "chip": "ym2612"
    },
    {
      "channel": 4,
      "note": 65,
      "start": 42.1529,
      "duration": 0.1133,
      "velocity": 104,
      "chip": "ym2612"
    },
    {
      "channel": 1,
      "note": 64,
      "start": 42.1533,
      "duration": 0.0122,
      "velocity": 117,
      "chip": "ym2612"
    },
    {
      "channel": 1,
      "note": 65,
      "start": 42.1654,
      "duration": 0.014,
      "velocity": 117,
      "chip": "ym2612"
    },
    {
      "channel": 1,
      "note": 65,
      "start": 42.1794,
      "duration": 0.084,
      "velocity": 117,
      "chip": "ym2612"
    },
    {
      "channel": 0,
      "note": 69,
      "start": 42.263,
      "duration": 1.1095,
      "velocity": 104,
      "chip": "ym2612"
    },
    {
      "channel": 1,
      "note": 65,
      "start": 42.2636,
      "duration": 0.116,
      "velocity": 117,
      "chip": "ym2612"
    },
    {
      "channel": 3,
      "note": 79,
      "start": 42.2658,
      "duration": 0.1165,
      "velocity": 127,
      "chip": "ym2612"
    },
    {
      "channel": 4,
      "note": 68,
      "start": 42.2663,
      "duration": 0.2158,
      "velocity": 104,
      "chip": "ym2612"
    },
    {
      "channel": 1,
      "note": 64,
      "start": 42.3798,
      "duration": 0.3258,
      "velocity": 117,
      "chip": "ym2612"
    },
    {
      "channel": 2,
      "note": 67,
      "start": 42.3803,
      "duration": 0.3257,
      "velocity": 102,
      "chip": "ym2612"
    },
    {
      "channel": 3,
      "note": 79,
      "start": 42.3825,
      "duration": 0.2163,
      "velocity": 121,
      "chip": "ym2612"
    },
    {
      "channel": 4,
      "note": 69,
      "start": 42.4823,
      "duration": 1.1058,
      "velocity": 104,
      "chip": "ym2612"
    },
    {
      "channel": 3,
      "note": 79,
      "start": 42.599,
      "duration": 0.1092,
      "velocity": 127,
      "chip": "ym2612"
    },
    {
      "channel": 1,
      "note": 62,
      "start": 42.7057,
      "duration": 0.2244,
      "velocity": 117,
      "chip": "ym2612"
    },
    {
      "channel": 2,
      "note": 69,
      "start": 42.7062,
      "duration": 0.3338,
      "velocity": 102,
      "chip": "ym2612"
    },
    {
      "channel": 3,
      "note": 79,
      "start": 42.7084,
      "duration": 0.224,
      "velocity": 121,
      "chip": "ym2612"
    },
    {
      "channel": 1,
      "note": 57,
      "start": 42.9303,
      "duration": 0.1091,
      "velocity": 117,
      "chip": "ym2612"
    },
    {
      "channel": 3,
      "note": 79,
      "start": 42.9325,
      "duration": 0.0597,
      "velocity": 121,
      "chip": "ym2612"
    },
    {
      "channel": 3,
      "note": 79,
      "start": 42.9924,
      "duration": 0.0497,
      "velocity": 127,
      "chip": "ym2612"
    },
    {
      "channel": 1,
      "note": 53,
      "start": 43.0396,
      "duration": 0.1176,
      "velocity": 117,
      "chip": "ym2612"
    },
    {
      "channel": 2,
      "note": 74,
      "start": 43.0401,
      "duration": 0.3336,
      "velocity": 102,
      "chip": "ym2612"
    },
    {
      "channel": 3,
      "note": 79,
      "start": 43.0423,
      "duration": 0.2208,
      "velocity": 127,
      "chip": "ym2612"
    },
    {
      "channel": 1,
      "note": 52,
      "start": 43.1573,
      "duration": 0.1051,
      "velocity": 117,
      "chip": "ym2612"
    },
    {
      "channel": 1,
      "note": 50,
      "start": 43.2627,
      "duration": 0.1105,
      "velocity": 117,
      "chip": "ym2612"
    },
    {
      "channel": 3,
      "note": 79,
      "start": 43.2633,
      "duration": 0.3226,
      "velocity": 121,
      "chip": "ym2612"
    },
    {
      "channel": 0,
      "note": 65,
      "start": 43.3727,
      "duration": 0.211,
      "velocity": 104,
      "chip": "ym2612"
    },
    {
      "channel": 1,
      "note": 50,
      "start": 43.3732,
      "duration": 0.3446,
      "velocity": 117,
      "chip": "ym2612"
    },
    {
      "channel": 2,
      "note": 57,
      "start": 43.3739,
      "duration": 0.6643,
      "velocity": 102,
      "chip": "ym2612"
    },
    {
      "channel": 0,
      "note": 67,
      "start": 43.5838,
      "duration": 0.0666,
      "velocity": 104,
      "chip": "ym2612"
    },
    {
      "channel": 3,
      "note": 79,
      "start": 43.5861,
      "duration": 0.134,
      "velocity": 127,
      "chip": "ym2612"
    },
    {
      "channel": 4,
      "note": 65,
      "start": 43.5883,
      "duration": 0.2323,
      "velocity": 104,
      "chip": "ym2612"
    },
    {
      "channel": 0,
      "note": 65,
      "start": 43.6505,
      "duration": 0.0669,
      "velocity": 104,
      "chip": "ym2612"
    },
    {
      "channel": 0,
      "note": 64,
      "start": 43.7175,
      "duration": 0.5539,
      "velocity": 104,
      "chip": "ym2612"
    },
    {
      "channel": 1,
      "note": 52,
      "start": 43.718,
      "duration": 0.3195,
      "velocity": 117,
      "chip": "ym2612"
    },
    {
      "channel": 3,
      "note": 79,
      "start": 43.7203,
      "duration": 0.3184,
      "velocity": 127,
      "chip": "ym2612"
    },
    {
      "channel": 4,
      "note": 67,
      "start": 43.8207,
      "duration": 0.0449,
      "velocity": 104,
      "chip": "ym2612"
    },
    {
      "channel": 4,
      "note": 65,
      "start": 43.8659,
      "duration": 0.0591,
      "velocity": 104,
      "chip": "ym2612"
    },
    {
      "channel": 4,
      "note": 64,
      "start": 43.9252,
      "duration": 0.5623,
      "velocity": 104,
      "chip": "ym2612"
    },
    {
      "channel": 1,
      "note": 53,
      "start": 44.0378,
      "duration": 0.3511,
      "velocity": 117,
      "chip": "ym2612"
    },
    {
      "channel": 2,
      "note": 62,
      "start": 44.0383,
      "duration": 0.8895,
      "velocity": 104,
      "chip": "ym2612"
    },
    {
      "channel": 3,
      "note": 79,
      "start": 44.0388,
      "duration": 0.2331,
      "velocity": 127,
      "chip": "ym2612"
    },
    {
      "channel": 0,
      "note": 57,
      "start": 44.2715,
      "duration": 0.1168,
      "velocity": 104,
      "chip": "ym2612"
    },
    {
      "channel": 3,
      "note": 79,
      "start": 44.2722,
      "duration": 0.3259,
      "velocity": 121,
      "chip": "ym2612"
    },
    {
      "channel": 0,
      "note": 61,
      "start": 44.3885,
      "duration": 0.2073,
      "velocity": 104,
      "chip": "ym2612"
    },
    {
      "channel": 1,
      "note": 55,
      "start": 44.389,
      "duration": 0.305,
      "velocity": 117,
      "chip": "ym2612"
    },
    {
      "channel": 4,
      "note": 57,
      "start": 44.4876,
      "duration": 0.1109,
      "velocity": 104,
      "chip": "ym2612"
    },
    {
      "channel": 0,
      "note": 62,
      "start": 44.596,
      "duration": 1.4336,
      "velocity": 104,
      "chip": "ym2612"
    },
    {
      "channel": 3,
      "note": 79,
      "start": 44.5982,
      "duration": 0.0539,
      "velocity": 121,
      "chip": "ym2612"
    },
    {
      "channel": 4,
      "note": 61,
      "start": 44.5988,
      "duration": 0.2138,
      "velocity": 104,
      "chip": "ym2612"
    },
    {
      "channel": 3,
      "note": 79,
      "start": 44.6522,
      "duration": 0.044,
      "velocity": 127,
      "chip": "ym2612"
    },
    {
      "channel": 1,
      "note": 57,
      "start": 44.6942,
      "duration": 0.351,
      "velocity": 117,
      "chip": "ym2612"
    },
    {
      "channel": 3,
      "note": 79,
      "start": 44.6964,
      "duration": 0.2334,
      "velocity": 121,
      "chip": "ym2612"
    },
    {
      "channel": 4,
      "note": 62,
      "start": 44.8128,
      "duration": 1.4378,
      "velocity": 104,
      "chip": "ym2612"
    },
    {
      "channel": 2,
      "note": 69,
      "start": 44.9278,
      "duration": 0.1179,
      "velocity": 104,
      "chip": "ym2612"
    },
    {
      "channel": 3,
      "note": 79,
      "start": 44.93,
      "duration": 0.1179,
      "velocity": 127,
      "chip": "ym2612"
    },
    {
      "channel": 1,
      "note": 55,
      "start": 45.0454,
      "duration": 0.3195,
      "velocity": 117,
      "chip": "ym2612"
    },
    {
      "channel": 2,
      "note": 73,
      "start": 45.0459,
      "duration": 0.202,
      "velocity": 104,
      "chip": "ym2612"
    },
    {
      "channel": 3,
      "note": 79,
      "start": 45.0481,
      "duration": 0.202,
      "velocity": 121,
      "chip": "ym2612"
    },
    {
      "channel": 2,
      "note": 74,
      "start": 45.2481,
      "duration": 0.3456,
      "velocity": 104,
      "chip": "ym2612"
    },
    {
      "channel": 3,
      "note": 79,
      "start": 45.2502,
      "duration": 0.1169,
      "velocity": 127,
      "chip": "ym2612"
    },
    {
      "channel": 1,
      "note": 53,
      "start": 45.3651,
      "duration": 0.3351,
      "velocity": 117,
      "chip": "ym2612"
    },
    {
      "channel": 3,
      "note": 79,
      "start": 45.3673,
      "duration": 0.2286,
      "velocity": 121,
      "chip": "ym2612"
    },
    {
      "channel": 2,
      "note": 69,
      "start": 45.5939,
      "duration": 0.1068,
      "velocity": 104,
      "chip": "ym2612"
    },
    {
      "channel": 3,
      "note": 79,
      "start": 45.5961,
      "duration": 0.0599,
      "velocity": 121,
      "chip": "ym2612"
    },
    {
      "channel": 3,
      "note": 79,
      "start": 45.6562,
      "duration": 0.0466,
      "velocity": 127,
      "chip": "ym2612"
    },
    {
      "channel": 1,
      "note": 52,
      "start": 45.7003,
      "duration": 0.3299,
      "velocity": 117,
      "chip": "ym2612"
    },
    {
      "channel": 2,
      "note": 65,
      "start": 45.7009,
      "duration": 0.1015,
      "velocity": 104,
      "chip": "ym2612"
    },
    {
      "channel": 3,
      "note": 79,
      "start": 45.703,
      "duration": 0.2187,
      "velocity": 127,
      "chip": "ym2612"
    },
    {
      "channel": 2,
      "note": 64,
      "start": 45.8026,
      "duration": 0.1186,
      "velocity": 104,
      "chip": "ym2612"
    },
    {
      "channel": 2,
      "note": 62,
      "start": 45.9214,
      "duration": 0.111,
      "velocity": 102,
      "chip": "ym2612"
    },
    {
      "channel": 3,
      "note": 79,
      "start": 45.9219,
      "duration": 0.3266,
      "velocity": 121,
      "chip": "ym2612"
    },
    {
      "channel": 0,
      "note": 74,
      "start": 46.0298,
      "duration": 0.2164,
      "velocity": 104,
      "chip": "ym2612"
    },
    {
      "channel": 1,
      "note": 50,
      "start": 46.0304,
      "duration": 0.331,
      "velocity": 117,
      "chip": "ym2612"
    },
    {
      "channel": 2,
      "note": 69,
      "start": 46.0325,
      "duration": 1.3154,
      "velocity": 102,
      "chip": "ym2612"
    },
    {
      "channel": 0,
      "note": 77,
      "start": 46.2463,
      "duration": 0.3396,
      "velocity": 104,
      "chip": "ym2612"
    },
    {
      "channel": 3,
      "note": 79,
      "start": 46.2486,
      "duration": 0.1149,
      "velocity": 127,
      "chip": "ym2612"
    },
    {
      "channel": 4,
      "note": 74,
      "start": 46.2508,
      "duration": 0.2281,
      "velocity": 104,
      "chip": "ym2612"
    },
    {
      "channel": 1,
      "note": 57,
      "start": 46.3615,
      "duration": 0.3267,
      "velocity": 117,
      "chip": "ym2612"
    },
    {
      "channel": 3,
      "note": 79,
      "start": 46.3637,
      "duration": 0.3252,
      "velocity": 127,
      "chip": "ym2612"
    },
    {
      "channel": 4,
      "note": 77,
      "start": 46.4791,
      "duration": 0.3094,
      "velocity": 104,
      "chip": "ym2612"
    },
    {
      "channel": 0,
      "note": 85,
      "start": 46.5861,
      "duration": 0.1017,
      "velocity": 104,
      "chip": "ym2612"
    },
    {
      "channel": 0,
      "note": 84,
      "start": 46.6879,
      "duration": 0.5566,
      "velocity": 104,
      "chip": "ym2612"
    },
    {
      "channel": 1,
      "note": 62,
      "start": 46.6885,
      "duration": 0.348,
      "velocity": 117,
      "chip": "ym2612"
    },
    {
      "channel": 3,
      "note": 79,
      "start": 46.6891,
      "duration": 0.2141,
      "velocity": 127,
      "chip": "ym2612"
    },
    {
      "channel": 4,
      "note": 85,
      "start": 46.7887,
      "duration": 0.1151,
      "velocity": 104,
      "chip": "ym2612"
    },
    {
      "channel": 3,
      "note": 79,
      "start": 46.9034,
      "duration": 0.3434,
      "velocity": 121,
      "chip": "ym2612"
    },
    {
      "channel": 4,
      "note": 84,
      "start": 46.9039,
      "duration": 0.5433,
      "velocity": 104,
      "chip": "ym2612"
    },
    {
      "channel": 1,
      "note": 64,
      "start": 47.0366,
      "duration": 0.3106,
      "velocity": 117,
      "chip": "ym2612"
    },
    {
      "channel": 0,
      "note": 77,
      "start": 47.2447,
      "duration": 0.102,
      "velocity": 104,
      "chip": "ym2612"
    },
    {
      "channel": 3,
      "note": 79,
      "start": 47.2469,
      "duration": 0.0539,
      "velocity": 121,
      "chip": "ym2612"
    },
    {
      "channel": 3,
      "note": 79,
      "start": 47.301,
      "duration": 0.0489,
      "velocity": 127,
      "chip": "ym2612"
    },
    {
      "channel": 0,
      "note": 80,
      "start": 47.3469,
      "duration": 0.2256,
      "velocity": 104,
      "chip": "ym2612"
    },
    {
      "channel": 1,
      "note": 64,
      "start": 47.3475,
      "duration": 0.1005,
      "velocity": 117,
      "chip": "ym2612"
    },
    {
      "channel": 2,
      "note": 69,
      "start": 47.348,
      "duration": 0.2256,
      "velocity": 102,
      "chip": "ym2612"
    },
    {
      "channel": 3,
      "note": 79,
      "start": 47.3501,
      "duration": 0.2256,
      "velocity": 121,
      "chip": "ym2612"
    },
    {
      "channel": 4,
      "note": 77,
      "start": 47.4475,
      "duration": 0.1288,
      "velocity": 104,
      "chip": "ym2612"
    },
    {
      "channel": 1,
      "note": 64,
      "start": 47.4479,
      "duration": 0.0258,
      "velocity": 117,
      "chip": "ym2612"
    },
    {
      "channel": 1,
      "note": 65,
      "start": 47.4737,
      "duration": 0.0157,
      "velocity": 117,
      "chip": "ym2612"
    },
    {
      "channel": 1,
      "note": 65,
      "start": 47.4894,
      "duration": 0.0837,
      "velocity": 117,
      "chip": "ym2612"
    },
    {
      "channel": 0,
      "note": 81,
      "start": 47.5727,
      "duration": 1.1009,
      "velocity": 104,
      "chip": "ym2612"
    },
    {
      "channel": 1,
      "note": 65,
      "start": 47.5732,
      "duration": 0.1157,
      "velocity": 117,
      "chip": "ym2612"
    },
    {
      "channel": 2,
      "note": 69,
      "start": 47.5738,
      "duration": 0.1157,
      "velocity": 102,
      "chip": "ym2612"
    },
    {
      "channel": 3,
      "note": 79,
      "start": 47.5759,
      "duration": 0.1157,
      "velocity": 127,
      "chip": "ym2612"
    },
    {
      "channel": 4,
      "note": 80,
      "start": 47.5764,
      "duration": 0.2136,
      "velocity": 104,
      "chip": "ym2612"
    },
    {
      "channel": 1,
      "note": 64,
      "start": 47.6891,
      "duration": 0.31,
      "velocity": 117,
      "chip": "ym2612"
    },
    {
      "channel": 2,
      "note": 68,
      "start": 47.6896,
      "duration": 0.2052,
      "velocity": 102,
      "chip": "ym2612"
    },
    {
      "channel": 3,
      "note": 79,
      "start": 47.6918,
      "duration": 0.2051,
      "velocity": 121,
      "chip": "ym2612"
    },
    {
      "channel": 4,
      "note": 81,
      "start": 47.7902,
      "duration": 1.0951,
      "velocity": 104,
      "chip": "ym2612"
    },
    {
      "channel": 2,
      "note": 69,
      "start": 47.895,
      "duration": 0.3501,
      "velocity": 102,
      "chip": "ym2612"
    },
    {
      "channel": 3,
      "note": 79,
      "start": 47.8971,
      "duration": 0.1042,
      "velocity": 127,
      "chip": "ym2612"
    },
    {
      "channel": 1,
      "note": 62,
      "start": 47.9993,
      "duration": 0.2453,
      "velocity": 117,
      "chip": "ym2612"
    },
    {
      "channel": 3,
      "note": 79,
      "start": 48.0015,
      "duration": 0.2458,
      "velocity": 121,
      "chip": "ym2612"
    },
    {
      "channel": 1,
      "note": 57,
      "start": 48.2448,
      "duration": 0.1039,
      "velocity": 117,
      "chip": "ym2612"
    },
    {
      "channel": 2,
      "note": 65,
      "start": 48.2453,
      "duration": 0.1039,
      "velocity": 102,
      "chip": "ym2612"
    },
    {
      "channel": 3,
      "note": 79,
      "start": 48.2474,
      "duration": 0.0425,
      "velocity": 121,
      "chip": "ym2612"
    },
    {
      "channel": 3,
      "note": 79,
      "start": 48.2902,
      "duration": 0.0612,
      "velocity": 127,
      "chip": "ym2612"
    },
    {
      "channel": 1,
      "note": 53,
      "start": 48.3489,
      "duration": 0.1017,
      "velocity": 117,
      "chip": "ym2612"
    },
    {
      "channel": 2,
      "note": 64,
      "start": 48.3495,
      "duration": 0.208,
      "velocity": 102,
      "chip": "ym2612"
    },
    {
      "channel": 3,
      "note": 79,
      "start": 48.3516,
      "duration": 0.2065,
      "velocity": 127,
      "chip": "ym2612"
    },
    {
      "channel": 1,
      "note": 52,
      "start": 48.4507,
      "duration": 0.1062,
      "velocity": 117,
      "chip": "ym2612"
    },
    {
      "channel": 1,
      "note": 50,
      "start": 48.5571,
      "duration": 0.117,
      "velocity": 117,
      "chip": "ym2612"
    },
    {
      "channel": 2,
      "note": 62,
      "start": 48.5576,
      "duration": 0.1171,
      "velocity": 102,
      "chip": "ym2612"
    },
    {
      "channel": 3,
      "note": 79,
      "start": 48.5582,
      "duration": 0.325,
      "velocity": 121,
      "chip": "ym2612"
    },
    {
      "channel": 0,
      "note": 77,
      "start": 48.6737,
      "duration": 0.2073,
      "velocity": 104,
      "chip": "ym2612"
    },
    {
      "channel": 1,
      "note": 50,
      "start": 48.6743,
      "duration": 0.3242,
      "velocity": 117,
      "chip": "ym2612"
    },
    {
      "channel": 2,
      "note": 57,
      "start": 48.6749,
      "duration": 0.6528,
      "velocity": 102,
      "chip": "ym2612"
    },
    {
      "channel": 0,
      "note": 79,
      "start": 48.8811,
      "duration": 0.0666,
      "velocity": 104,
      "chip": "ym2612"
    },
    {
      "channel": 3,
      "note": 79,
      "start": 48.8834,
      "duration": 0.1174,
      "velocity": 127,
      "chip": "ym2612"
    },
    {
      "channel": 4,
      "note": 77,
      "start": 48.8855,
      "duration": 0.2177,
      "velocity": 104,
      "chip": "ym2612"
    },
    {
      "channel": 0,
      "note": 77,
      "start": 48.9478,
      "duration": 0.0502,
      "velocity": 104,
      "chip": "ym2612"
    },
    {
      "channel": 0,
      "note": 76,
      "start": 48.9982,
      "duration": 0.5424,
      "velocity": 104,
      "chip": "ym2612"
    },
    {
      "channel": 1,
      "note": 52,
      "start": 48.9988,
      "duration": 0.3284,
      "velocity": 117,
      "chip": "ym2612"
    },
    {
      "channel": 3,
      "note": 79,
      "start": 49.0009,
      "duration": 0.3273,
      "velocity": 127,
      "chip": "ym2612"
    },
    {
      "channel": 4,
      "note": 79,
      "start": 49.1033,
      "duration": 0.0608,
      "velocity": 104,
      "chip": "ym2612"
    },
    {
      "channel": 4,
      "note": 77,
      "start": 49.1643,
      "duration": 0.0568,
      "velocity": 104,
      "chip": "ym2612"
    },
    {
      "channel": 4,
      "note": 76,
      "start": 49.2213,
      "duration": 0.5546,
      "velocity": 104,
      "chip": "ym2612"
    },
    {
      "channel": 1,
      "note": 53,
      "start": 49.3273,
      "duration": 0.3308,
      "velocity": 117,
      "chip": "ym2612"
    },
    {
      "channel": 2,
      "note": 62,
      "start": 49.3278,
      "duration": 0.8724,
      "velocity": 104,
      "chip": "ym2612"
    },
    {
      "channel": 3,
      "note": 79,
      "start": 49.3284,
      "duration": 0.2129,
      "velocity": 127,
      "chip": "ym2612"
    },
    {
      "channel": 0,
      "note": 69,
      "start": 49.5408,
      "duration": 0.1168,
      "velocity": 104,
      "chip": "ym2612"
    },
    {
      "channel": 3,
      "note": 79,
      "start": 49.5415,
      "duration": 0.3432,
      "velocity": 121,
      "chip": "ym2612"
    },
    {
      "channel": 0,
      "note": 74,
      "start": 49.6578,
      "duration": 0.2247,
      "velocity": 104,
      "chip": "ym2612"
    },
    {
      "channel": 1,
      "note": 55,
      "start": 49.6583,
      "duration": 0.3282,
      "velocity": 117,
      "chip": "ym2612"
    },
    {
      "channel": 4,
      "note": 69,
      "start": 49.7762,
      "duration": 0.1091,
      "velocity": 104,
      "chip": "ym2612"
    },
    {
      "channel": 0,
      "note": 71,
      "start": 49.8826,
      "duration": 1.4106,
      "velocity": 104,
      "chip": "ym2612"
    },
    {
      "channel": 3,
      "note": 79,
      "start": 49.8849,
      "duration": 0.0412,
      "velocity": 121,
      "chip": "ym2612"
    },
    {
      "channel": 4,
      "note": 74,
      "start": 49.8855,
      "duration": 0.2018,
      "velocity": 104,
      "chip": "ym2612"
    },
    {
      "channel": 3,
      "note": 79,
      "start": 49.9262,
      "duration": 0.0626,
      "velocity": 127,
      "chip": "ym2612"
    },
    {
      "channel": 1,
      "note": 57,
      "start": 49.9868,
      "duration": 0.3476,
      "velocity": 117,
      "chip": "ym2612"
    },
    {
      "channel": 3,
      "note": 79,
      "start": 49.9889,
      "duration": 0.2134,
      "velocity": 121,
      "chip": "ym2612"
    },
    {
      "channel": 4,
      "note": 71,
      "start": 50.0875,
      "duration": 1.4431,
      "velocity": 104,
      "chip": "ym2612"
    },
    {
      "channel": 2,
      "note": 69,
      "start": 50.2003,
      "duration": 0.1346,
      "velocity": 104,
      "chip": "ym2612"
    },
    {
      "channel": 3,
      "note": 79,
      "start": 50.2025,
      "duration": 0.1345,
      "velocity": 127,
      "chip": "ym2612"
    },
    {
      "channel": 1,
      "note": 55,
      "start": 50.3345,
      "duration": 0.3041,
      "velocity": 117,
      "chip": "ym2612"
    },
    {
      "channel": 2,
      "note": 74,
      "start": 50.3351,
      "duration": 0.098,
      "velocity": 104,
      "chip": "ym2612"
    },
    {
      "channel": 3,
      "note": 79,
      "start": 50.3372,
      "duration": 0.2022,
      "velocity": 121,
      "chip": "ym2612"
    },
    {
      "channel": 2,
      "note": 73,
      "start": 50.4332,
      "duration": 0.104,
      "velocity": 104,
      "chip": "ym2612"
    },
    {
      "channel": 2,
      "note": 72,
      "start": 50.5374,
      "duration": 0.1018,
      "velocity": 104,
      "chip": "ym2612"
    },
    {
      "channel": 3,
      "note": 79,
      "start": 50.5395,
      "duration": 0.1018,
      "velocity": 127,
      "chip": "ym2612"
    },
    {
      "channel": 1,
      "note": 53,
      "start": 50.6388,
      "duration": 0.3474,
      "velocity": 117,
      "chip": "ym2612"
    },
    {
      "channel": 2,
      "note": 71,
      "start": 50.6393,
      "duration": 0.2409,
      "velocity": 104,
      "chip": "ym2612"
    },
    {
      "channel": 3,
      "note": 79,
      "start": 50.6415,
      "duration": 0.2409,
      "velocity": 121,
      "chip": "ym2612"
    },
    {
      "channel": 2,
      "note": 69,
      "start": 50.8804,
      "duration": 0.4155,
      "velocity": 102,
      "chip": "ym2612"
    },
    {
      "channel": 3,
      "note": 79,
      "start": 50.8825,
      "duration": 0.0449,
      "velocity": 121,
      "chip": "ym2612"
    },
    {
      "channel": 3,
      "note": 79,
      "start": 50.9276,
      "duration": 0.0607,
      "velocity": 127,
      "chip": "ym2612"
    },
    {
      "channel": 1,
      "note": 52,
      "start": 50.9863,
      "duration": 0.3075,
      "velocity": 117,
      "chip": "ym2612"
    },
    {
      "channel": 3,
      "note": 79,
      "start": 50.9885,
      "duration": 0.2022,
      "velocity": 127,
      "chip": "ym2612"
    },
    {
      "channel": 3,
      "note": 79,
      "start": 51.1909,
      "duration": 0.3375,
      "velocity": 121,
      "chip": "ym2612"
    },
    {
      "channel": 0,
      "note": 74,
      "start": 51.2933,
      "duration": 0.2329,
      "velocity": 104,
      "chip": "ym2612"
    },
    {
      "channel": 1,
      "note": 62,
      "start": 51.294,
      "duration": 0.3473,
      "velocity": 117,
      "chip": "ym2612"
    },
    {
      "channel": 2,
      "note": 69,
      "start": 51.2961,
      "duration": 1.3312,
      "velocity": 102,
      "chip": "ym2612"
    },
    {
      "channel": 0,
      "note": 77,
      "start": 51.5263,
      "duration": 0.3238,
      "velocity": 104,
      "chip": "ym2612"
    },
    {
      "channel": 3,
      "note": 79,
      "start": 51.5286,
      "duration": 0.1148,
      "velocity": 127,
      "chip": "ym2612"
    },
    {
      "channel": 4,
      "note": 74,
      "start": 51.5308,
      "duration": 0.2161,
      "velocity": 104,
      "chip": "ym2612"
    },
    {
      "channel": 1,
      "note": 57,
      "start": 51.6415,
      "duration": 0.3275,
      "velocity": 117,
      "chip": "ym2612"
    },
    {
      "channel": 3,
      "note": 79,
      "start": 51.6437,
      "duration": 0.3259,
      "velocity": 127,
      "chip": "ym2612"
    },
    {
      "channel": 4,
      "note": 77,
      "start": 51.7471,
      "duration": 0.3243,
      "velocity": 104,
      "chip": "ym2612"
    },
    {
      "channel": 0,
      "note": 85,
      "start": 51.8503,
      "duration": 0.118,
      "velocity": 104,
      "chip": "ym2612"
    },
    {
      "channel": 0,
      "note": 84,
      "start": 51.9685,
      "duration": 0.5513,
      "velocity": 104,
      "chip": "ym2612"
    },
    {
      "channel": 1,
      "note": 53,
      "start": 51.9691,
      "duration": 0.3333,
      "velocity": 117,
      "chip": "ym2612"
    },
    {
      "channel": 3,
      "note": 79,
      "start": 51.9697,
      "duration": 0.2162,
      "velocity": 127,
      "chip": "ym2612"
    },
    {
      "channel": 4,
      "note": 85,
      "start": 52.0716,
      "duration": 0.1149,
      "velocity": 104,
      "chip": "ym2612"
    },
    {
      "channel": 3,
      "note": 79,
      "start": 52.1861,
      "duration": 0.336,
      "velocity": 121,
      "chip": "ym2612"
    },
    {
      "channel": 4,
      "note": 84,
      "start": 52.1866,
      "duration": 0.541,
      "velocity": 104,
      "chip": "ym2612"
    },
    {
      "channel": 1,
      "note": 50,
      "start": 52.3025,
      "duration": 0.3242,
      "velocity": 117,
      "chip": "ym2612"
    },
    {
      "channel": 0,
      "note": 77,
      "start": 52.5199,
      "duration": 0.1063,
      "velocity": 104,
      "chip": "ym2612"
    },
    {
      "channel": 3,
      "note": 79,
      "start": 52.5222,
      "duration": 0.0406,
      "velocity": 121,
      "chip": "ym2612"
    },
    {
      "channel": 3,
      "note": 79,
      "start": 52.563,
      "duration": 0.0664,
      "velocity": 127,
      "chip": "ym2612"
    },
    {
      "channel": 0,
      "note": 80,
      "start": 52.6264,
      "duration": 0.2068,
      "velocity": 104,
      "chip": "ym2612"
    },
    {
      "channel": 1,
      "note": 53,
      "start": 52.6269,
      "duration": 0.3229,
      "velocity": 117,
      "chip": "ym2612"
    },
    {
      "channel": 2,
      "note": 69,
      "start": 52.6275,
      "duration": 0.2063,
      "velocity": 102,
      "chip": "ym2612"
    },
    {
      "channel": 3,
      "note": 79,
      "start": 52.6296,
      "duration": 0.2063,
      "velocity": 121,
      "chip": "ym2612"
    },
    {
      "channel": 4,
      "note": 77,
      "start": 52.7278,
      "duration": 0.1087,
      "velocity": 104,
      "chip": "ym2612"
    },
    {
      "channel": 0,
      "note": 81,
      "start": 52.8333,
      "duration": 1.0984,
      "velocity": 104,
      "chip": "ym2612"
    },
    {
      "channel": 2,
      "note": 69,
      "start": 52.8339,
      "duration": 0.1165,
      "velocity": 102,
      "chip": "ym2612"
    },
    {
      "channel": 3,
      "note": 79,
      "start": 52.8361,
      "duration": 0.1164,
      "velocity": 127,
      "chip": "ym2612"
    },
    {
      "channel": 4,
      "note": 80,
      "start": 52.8366,
      "duration": 0.2314,
      "velocity": 104,
      "chip": "ym2612"
    },
    {
      "channel": 1,
      "note": 55,
      "start": 52.95,
      "duration": 0.3256,
      "velocity": 117,
      "chip": "ym2612"
    },
    {
      "channel": 2,
      "note": 68,
      "start": 52.9506,
      "duration": 0.2219,
      "velocity": 102,
      "chip": "ym2612"
    },
    {
      "channel": 3,
      "note": 79,
      "start": 52.9527,
      "duration": 0.222,
      "velocity": 121,
      "chip": "ym2612"
    },
    {
      "channel": 4,
      "note": 81,
      "start": 53.0682,
      "duration": 1.0948,
      "velocity": 104,
      "chip": "ym2612"
    },
    {
      "channel": 2,
      "note": 69,
      "start": 53.1727,
      "duration": 0.3258,
      "velocity": 102,
      "chip": "ym2612"
    },
    {
      "channel": 3,
      "note": 79,
      "start": 53.1749,
      "duration": 0.103,
      "velocity": 127,
      "chip": "ym2612"
    },
    {
      "channel": 1,
      "note": 57,
      "start": 53.2759,
      "duration": 0.344,
      "velocity": 117,
      "chip": "ym2612"
    },
    {
      "channel": 3,
      "note": 79,
      "start": 53.2781,
      "duration": 0.2226,
      "velocity": 121,
      "chip": "ym2612"
    },
    {
      "channel": 2,
      "note": 65,
      "start": 53.4987,
      "duration": 0.1217,
      "velocity": 102,
      "chip": "ym2612"
    },
    {
      "channel": 3,
      "note": 79,
      "start": 53.5009,
      "duration": 0.0581,
      "velocity": 121,
      "chip": "ym2612"
    },
    {
      "channel": 3,
      "note": 79,
      "start": 53.5592,
      "duration": 0.0633,
      "velocity": 127,
      "chip": "ym2612"
    },
    {
      "channel": 1,
      "note": 62,
      "start": 53.62,
      "duration": 0.3123,
      "velocity": 117,
      "chip": "ym2612"
    },
    {
      "channel": 2,
      "note": 64,
      "start": 53.6205,
      "duration": 0.2083,
      "velocity": 102,
      "chip": "ym2612"
    },
    {
      "channel": 3,
      "note": 79,
      "start": 53.6227,
      "duration": 0.2067,
      "velocity": 127,
      "chip": "ym2612"
    },
    {
      "channel": 2,
      "note": 62,
      "start": 53.829,
      "duration": 0.1039,
      "velocity": 102,
      "chip": "ym2612"
    },
    {
      "channel": 3,
      "note": 79,
      "start": 53.8296,
      "duration": 0.3313,
      "velocity": 121,
      "chip": "ym2612"
    },
    {
      "channel": 0,
      "note": 77,
      "start": 53.9319,
      "duration": 0.2267,
      "velocity": 104,
      "chip": "ym2612"
    },
    {
      "channel": 1,
      "note": 50,
      "start": 53.9325,
      "duration": 0.3436,
      "velocity": 117,
      "chip": "ym2612"
    },
    {
      "channel": 2,
      "note": 57,
      "start": 53.9331,
      "duration": 0.656,
      "velocity": 102,
      "chip": "ym2612"
    },
    {
      "channel": 0,
      "note": 79,
      "start": 54.1587,
      "duration": 0.0499,
      "velocity": 104,
      "chip": "ym2612"
    },
    {
      "channel": 3,
      "note": 79,
      "start": 54.161,
      "duration": 0.1174,
      "velocity": 127,
      "chip": "ym2612"
    },
    {
      "channel": 4,
      "note": 77,
      "start": 54.1631,
      "duration": 0.2167,
      "velocity": 104,
      "chip": "ym2612"
    },
    {
      "channel": 0,
      "note": 77,
      "start": 54.2088,
      "duration": 0.0668,
      "velocity": 104,
      "chip": "ym2612"
    },
    {
      "channel": 0,
      "note": 76,
      "start": 54.2757,
      "duration": 0.5368,
      "velocity": 104,
      "chip": "ym2612"
    },
    {
      "channel": 1,
      "note": 52,
      "start": 54.2763,
      "duration": 0.3122,
      "velocity": 117,
      "chip": "ym2612"
    },
    {
      "channel": 3,
      "note": 79,
      "start": 54.2785,
      "duration": 0.3112,
      "velocity": 127,
      "chip": "ym2612"
    },
    {
      "channel": 4,
      "note": 79,
      "start": 54.38,
      "duration": 0.0588,
      "velocity": 104,
      "chip": "ym2612"
    },
    {
      "channel": 4,
      "note": 77,
      "start": 54.439,
      "duration": 0.0449,
      "velocity": 104,
      "chip": "ym2612"
    },
    {
      "channel": 4,
      "note": 76,
      "start": 54.4841,
      "duration": 0.5484,
      "velocity": 104,
      "chip": "ym2612"
    },
    {
      "channel": 1,
      "note": 53,
      "start": 54.5887,
      "duration": 0.3413,
      "velocity": 117,
      "chip": "ym2612"
    },
    {
      "channel": 2,
      "note": 62,
      "start": 54.5892,
      "duration": 0.8862,
      "velocity": 104,
      "chip": "ym2612"
    },
    {
      "channel": 3,
      "note": 79,
      "start": 54.5898,
      "duration": 0.2234,
      "velocity": 127,
      "chip": "ym2612"
    },
    {
      "channel": 0,
      "note": 69,
      "start": 54.8127,
      "duration": 0.1168,
      "velocity": 104,
      "chip": "ym2612"
    },
    {
      "channel": 3,
      "note": 79,
      "start": 54.8134,
      "duration": 0.3305,
      "velocity": 121,
      "chip": "ym2612"
    },
    {
      "channel": 0,
      "note": 73,
      "start": 54.9297,
      "duration": 0.212,
      "velocity": 104,
      "chip": "ym2612"
    },
    {
      "channel": 1,
      "note": 55,
      "start": 54.9302,
      "duration": 0.3284,
      "velocity": 117,
      "chip": "ym2612"
    },
    {
      "channel": 4,
      "note": 69,
      "start": 55.0327,
      "duration": 0.1117,
      "velocity": 104,
      "chip": "ym2612"
    },
    {
      "channel": 0,
      "note": 74,
      "start": 55.1418,
      "duration": 1.438,
      "velocity": 104,
      "chip": "ym2612"
    },
    {
      "channel": 3,
      "note": 79,
      "start": 55.144,
      "duration": 0.0538,
      "velocity": 121,
      "chip": "ym2612"
    },
    {
      "channel": 4,
      "note": 73,
      "start": 55.1446,
      "duration": 0.2185,
      "velocity": 104,
      "chip": "ym2612"
    },
    {
      "channel": 3,
      "note": 79,
      "start": 55.198,
      "duration": 0.0627,
      "velocity": 127,
      "chip": "ym2612"
    },
    {
      "channel": 1,
      "note": 57,
      "start": 55.2588,
      "duration": 0.3341,
      "velocity": 117,
      "chip": "ym2612"
    },
    {
      "channel": 3,
      "note": 79,
      "start": 55.261,
      "duration": 0.2166,
      "velocity": 121,
      "chip": "ym2612"
    },
    {
      "channel": 4,
      "note": 74,
      "start": 55.3633,
      "duration": 1.2215,
      "velocity": 127,
      "chip": "ym2612"
    },
    {
      "channel": 2,
      "note": 69,
      "start": 55.4756,
      "duration": 0.1179,
      "velocity": 104,
      "chip": "ym2612"
    },
    {
      "channel": 3,
      "note": 79,
      "start": 55.4778,
      "duration": 0.1179,
      "velocity": 127,
      "chip": "ym2612"
    },
    {
      "channel": 1,
      "note": 55,
      "start": 55.5931,
      "duration": 0.3296,
      "velocity": 117,
      "chip": "ym2612"
    },
    {
      "channel": 2,
      "note": 73,
      "start": 55.5937,
      "duration": 0.2228,
      "velocity": 104,
      "chip": "ym2612"
    },
    {
      "channel": 3,
      "note": 79,
      "start": 55.5958,
      "duration": 0.2228,
      "velocity": 121,
      "chip": "ym2612"
    },
    {
      "channel": 2,
      "note": 74,
      "start": 55.8166,
      "duration": 0.3341,
      "velocity": 104,
      "chip": "ym2612"
    },
    {
      "channel": 3,
      "note": 79,
      "start": 55.8188,
      "duration": 0.1061,
      "velocity": 127,
      "chip": "ym2612"
    },
    {
      "channel": 1,
      "note": 53,
      "start": 55.9229,
      "duration": 0.3296,
      "velocity": 117,
      "chip": "ym2612"
    },
    {
      "channel": 3,
      "note": 79,
      "start": 55.925,
      "duration": 0.2279,
      "velocity": 121,
      "chip": "ym2612"
    },
    {
      "channel": 2,
      "note": 69,
      "start": 56.1509,
      "duration": 0.1021,
      "velocity": 104,
      "chip": "ym2612"
    },
    {
      "channel": 3,
      "note": 79,
      "start": 56.1531,
      "duration": 0.0542,
      "velocity": 121,
      "chip": "ym2612"
    },
    {
      "channel": 3,
      "note": 79,
      "start": 56.2075,
      "duration": 0.0478,
      "velocity": 127,
      "chip": "ym2612"
    },
    {
      "channel": 1,
      "note": 52,
      "start": 56.2527,
      "duration": 0.3278,
      "velocity": 117,
      "chip": "ym2612"
    },
    {
      "channel": 2,
      "note": 65,
      "start": 56.2533,
      "duration": 0.1141,
      "velocity": 104,
      "chip": "ym2612"
    },
    {
      "channel": 3,
      "note": 79,
      "start": 56.2554,
      "duration": 0.217,
      "velocity": 127,
      "chip": "ym2612"
    },
    {
      "channel": 2,
      "note": 64,
      "start": 56.3676,
      "duration": 0.1042,
      "velocity": 104,
      "chip": "ym2612"
    },
    {
      "channel": 2,
      "note": 62,
      "start": 56.472,
      "duration": 0.3188,
      "velocity": 104,
      "chip": "ym2612"
    },
    {
      "channel": 3,
      "note": 79,
      "start": 56.4725,
      "duration": 0.1101,
      "velocity": 104,
      "chip": "ym2612"
    },
    {
      "channel": 0,
      "note": 62,
      "start": 56.58,
      "duration": 0.2087,
      "velocity": 104,
      "chip": "ym2612"
    },
    {
      "channel": 1,
      "note": 62,
      "start": 56.5806,
      "duration": 0.3395,
      "velocity": 117,
      "chip": "ym2612"
    },
    {
      "channel": 3,
      "note": 57,
      "start": 56.5828,
      "duration": 0.2101,
      "velocity": 104,
      "chip": "ym2612"
    },
    {
      "channel": 4,
      "note": 79,
      "start": 56.585,
      "duration": 0.3358,
      "velocity": 127,
      "chip": "ym2612"
    },
    {
      "channel": 0,
      "note": 62,
      "start": 56.7888,
      "duration": 0.3649,
      "velocity": 104,
      "chip": "ym2612"
    },
    {
      "channel": 2,
      "note": 62,
      "start": 56.791,
      "duration": 0.2455,
      "velocity": 104,
      "chip": "ym2612"
    },
    {
      "channel": 3,
      "note": 57,
      "start": 56.7932,
      "duration": 0.3612,
      "velocity": 104,
      "chip": "ym2612"
    },
    {
      "channel": 1,
      "note": 65,
      "start": 56.9202,
      "duration": 0.3525,
      "velocity": 117,
      "chip": "ym2612"
    },
    {
      "channel": 4,
      "note": 79,
      "start": 56.921,
      "duration": 0.234,
      "velocity": 127,
      "chip": "ym2612"
    },
    {
      "channel": 2,
      "note": 62,
      "start": 57.0367,
      "duration": 0.3498,
      "velocity": 104,
      "chip": "ym2612"
    },
    {
      "channel": 0,
      "note": 62,
      "start": 57.1538,
      "duration": 0.1184,
      "velocity": 104,
      "chip": "ym2612"
    },
    {
      "channel": 3,
      "note": 57,
      "start": 57.1545,
      "duration": 0.1205,
      "velocity": 104,
      "chip": "ym2612"
    },
    {
      "channel": 4,
      "note": 79,
      "start": 57.1551,
      "duration": 0.1205,
      "velocity": 127,
      "chip": "ym2612"
    },
    {
      "channel": 0,
      "note": 64,
      "start": 57.2724,
      "duration": 0.2495,
      "velocity": 104,
      "chip": "ym2612"
    },
    {
      "channel": 1,
      "note": 69,
      "start": 57.273,
      "duration": 0.3665,
      "velocity": 117,
      "chip": "ym2612"
    },
    {
      "channel": 3,
      "note": 62,
      "start": 57.2752,
      "duration": 0.2495,
      "velocity": 104,
      "chip": "ym2612"
    },
    {
      "channel": 4,
      "note": 79,
      "start": 57.2757,
      "duration": 0.3666,
      "velocity": 127,
      "chip": "ym2612"
    },
    {
      "channel": 2,
      "note": 62,
      "start": 57.3867,
      "duration": 0.1359,
      "velocity": 104,
      "chip": "ym2612"
    },
    {
      "channel": 0,
      "note": 62,
      "start": 57.5221,
      "duration": 0.1168,
      "velocity": 104,
      "chip": "ym2612"
    },
    {
      "channel": 2,
      "note": 64,
      "start": 57.5227,
      "duration": 0.2303,
      "velocity": 104,
      "chip": "ym2612"
    },
    {
      "channel": 3,
      "note": 57,
      "start": 57.5249,
      "duration": 0.1168,
      "velocity": 104,
      "chip": "ym2612"
    },
    {
      "channel": 0,
      "note": 64,
      "start": 57.6391,
      "duration": 0.3403,
      "velocity": 104,
      "chip": "ym2612"
    },
    {
      "channel": 1,
      "note": 57,
      "start": 57.6397,
      "duration": 0.3403,
      "velocity": 117,
      "chip": "ym2612"
    },
    {
      "channel": 3,
      "note": 62,
      "start": 57.6419,
      "duration": 0.3387,
      "velocity": 104,
      "chip": "ym2612"
    },
    {
      "channel": 4,
      "note": 79,
      "start": 57.6424,
      "duration": 0.2286,
      "velocity": 127,
      "chip": "ym2612"
    },
    {
      "channel": 2,
      "note": 62,
      "start": 57.7533,
      "duration": 0.1172,
      "velocity": 104,
      "chip": "ym2612"
    },
    {
      "channel": 2,
      "note": 64,
      "start": 57.8706,
      "duration": 0.3353,
      "velocity": 104,
      "chip": "ym2612"
    },
    {
      "channel": 4,
      "note": 79,
      "start": 57.8713,
      "duration": 0.1099,
      "velocity": 127,
      "chip": "ym2612"
    },
    {
      "channel": 0,
      "note": 65,
      "start": 57.9796,
      "duration": 0.2258,
      "velocity": 104,
      "chip": "ym2612"
    },
    {
      "channel": 1,
      "note": 62,
      "start": 57.9801,
      "duration": 0.3401,
      "velocity": 117,
      "chip": "ym2612"
    },
    {
      "channel": 3,
      "note": 57,
      "start": 57.9808,
      "duration": 0.2274,
      "velocity": 104,
      "chip": "ym2612"
    },
    {
      "channel": 4,
      "note": 79,
      "start": 57.9813,
      "duration": 0.3395,
      "velocity": 127,
      "chip": "ym2612"
    },
    {
      "channel": 0,
      "note": 65,
      "start": 58.2055,
      "duration": 0.3486,
      "velocity": 104,
      "chip": "ym2612"
    },
    {
      "channel": 2,
      "note": 65,
      "start": 58.2062,
      "duration": 0.2305,
      "velocity": 104,
      "chip": "ym2612"
    },
    {
      "channel": 3,
      "note": 57,
      "start": 58.2083,
      "duration": 0.3464,
      "velocity": 104,
      "chip": "ym2612"
    },
    {
      "channel": 1,
      "note": 65,
      "start": 58.3203,
      "duration": 0.3554,
      "velocity": 117,
      "chip": "ym2612"
    },
    {
      "channel": 4,
      "note": 79,
      "start": 58.321,
      "duration": 0.2343,
      "velocity": 127,
      "chip": "ym2612"
    },
    {
      "channel": 2,
      "note": 65,
      "start": 58.4368,
      "duration": 0.3491,
      "velocity": 104,
      "chip": "ym2612"
    },
    {
      "channel": 0,
      "note": 65,
      "start": 58.5542,
      "duration": 0.1209,
      "velocity": 104,
      "chip": "ym2612"
    },
    {
      "channel": 3,
      "note": 57,
      "start": 58.5549,
      "duration": 0.123,
      "velocity": 104,
      "chip": "ym2612"
    },
    {
      "channel": 4,
      "note": 79,
      "start": 58.5555,
      "duration": 0.1229,
      "velocity": 127,
      "chip": "ym2612"
    },
    {
      "channel": 0,
      "note": 64,
      "start": 58.6754,
      "duration": 0.2296,
      "velocity": 104,
      "chip": "ym2612"
    },
    {
      "channel": 1,
      "note": 69,
      "start": 58.6759,
      "duration": 0.3304,
      "velocity": 117,
      "chip": "ym2612"
    },
    {
      "channel": 3,
      "note": 62,
      "start": 58.6781,
      "duration": 0.2296,
      "velocity": 104,
      "chip": "ym2612"
    },
    {
      "channel": 4,
      "note": 79,
      "start": 58.6787,
      "duration": 0.3304,
      "velocity": 127,
      "chip": "ym2612"
    },
    {
      "channel": 2,
      "note": 65,
      "start": 58.786,
      "duration": 0.1197,
      "velocity": 104,
      "chip": "ym2612"
    },
    {
      "channel": 0,
      "note": 62,
      "start": 58.9052,
      "duration": 0.1006,
      "velocity": 104,
      "chip": "ym2612"
    },
    {
      "channel": 2,
      "note": 64,
      "start": 58.9058,
      "duration": 0.2089,
      "velocity": 104,
      "chip": "ym2612"
    },
    {
      "channel": 3,
      "note": 57,
      "start": 58.9079,
      "duration": 0.1006,
      "velocity": 104,
      "chip": "ym2612"
    },
    {
      "channel": 0,
      "note": 64,
      "start": 59.0059,
      "duration": 0.3467,
      "velocity": 104,
      "chip": "ym2612"
    },
    {
      "channel": 1,
      "note": 57,
      "start": 59.0064,
      "duration": 0.3467,
      "velocity": 117,
      "chip": "ym2612"
    },
    {
      "channel": 3,
      "note": 62,
      "start": 59.0087,
      "duration": 0.3452,
      "velocity": 104,
      "chip": "ym2612"
    },
    {
      "channel": 4,
      "note": 79,
      "start": 59.0092,
      "duration": 0.2401,
      "velocity": 127,
      "chip": "ym2612"
    },
    {
      "channel": 2,
      "note": 62,
      "start": 59.1148,
      "duration": 0.1339,
      "velocity": 104,
      "chip": "ym2612"
    },
    {
      "channel": 2,
      "note": 64,
      "start": 59.2489,
      "duration": 0.3188,
      "velocity": 104,
      "chip": "ym2612"
    },
    {
      "channel": 4,
      "note": 79,
      "start": 59.2495,
      "duration": 0.1051,
      "velocity": 127,
      "chip": "ym2612"
    },
    {
      "channel": 0,
      "note": 62,
      "start": 59.3527,
      "duration": 0.2144,
      "velocity": 104,
      "chip": "ym2612"
    },
    {
      "channel": 1,
      "note": 62,
      "start": 59.3534,
      "duration": 0.3285,
      "velocity": 117,
      "chip": "ym2612"
    },
    {
      "channel": 3,
      "note": 57,
      "start": 59.3541,
      "duration": 0.2158,
      "velocity": 104,
      "chip": "ym2612"
    },
    {
      "channel": 4,
      "note": 79,
      "start": 59.3546,
      "duration": 0.3279,
      "velocity": 127,
      "chip": "ym2612"
    },
    {
      "channel": 0,
      "note": 62,
      "start": 59.5672,
      "duration": 0.3649,
      "velocity": 104,
      "chip": "ym2612"
    },
    {
      "channel": 2,
      "note": 62,
      "start": 59.5679,
      "duration": 0.247,
      "velocity": 104,
      "chip": "ym2612"
    },
    {
      "channel": 3,
      "note": 57,
      "start": 59.5701,
      "duration": 0.3627,
      "velocity": 104,
      "chip": "ym2612"
    },
    {
      "channel": 1,
      "note": 65,
      "start": 59.682,
      "duration": 0.3692,
      "velocity": 117,
      "chip": "ym2612"
    },
    {
      "channel": 4,
      "note": 79,
      "start": 59.6827,
      "duration": 0.2506,
      "velocity": 127,
      "chip": "ym2612"
    },
    {
      "channel": 2,
      "note": 62,
      "start": 59.8151,
      "duration": 0.3499,
      "velocity": 104,
      "chip": "ym2612"
    },
    {
      "channel": 0,
      "note": 62,
      "start": 59.9323,
      "duration": 0.1185,
      "velocity": 104,
      "chip": "ym2612"
    },
    {
      "channel": 3,
      "note": 57,
      "start": 59.9329,
      "duration": 0.1205,
      "velocity": 104,
      "chip": "ym2612"
    },
    {
      "channel": 4,
      "note": 79,
      "start": 59.9335,
      "duration": 0.1205,
      "velocity": 127,
      "chip": "ym2612"
    },
    {
      "channel": 0,
      "note": 64,
      "start": 60.0509,
      "duration": 0.2329,
      "velocity": 104,
      "chip": "ym2612"
    },
    {
      "channel": 1,
      "note": 69,
      "start": 60.0515,
      "duration": 0.3665,
      "velocity": 117,
      "chip": "ym2612"
    },
    {
      "channel": 3,
      "note": 62,
      "start": 60.0537,
      "duration": 0.2328,
      "velocity": 104,
      "chip": "ym2612"
    },
    {
      "channel": 4,
      "note": 79,
      "start": 60.0542,
      "duration": 0.3665,
      "velocity": 127,
      "chip": "ym2612"
    },
    {
      "channel": 2,
      "note": 62,
      "start": 60.1651,
      "duration": 0.1192,
      "velocity": 104,
      "chip": "ym2612"
    },
    {
      "channel": 0,
      "note": 62,
      "start": 60.2839,
      "duration": 0.1335,
      "velocity": 104,
      "chip": "ym2612"
    },
    {
      "channel": 2,
      "note": 64,
      "start": 60.2845,
      "duration": 0.247,
      "velocity": 104,
      "chip": "ym2612"
    },
    {
      "channel": 3,
      "note": 57,
      "start": 60.2867,
      "duration": 0.1335,
      "velocity": 104,
      "chip": "ym2612"
    },
    {
      "channel": 0,
      "note": 64,
      "start": 60.4176,
      "duration": 0.3334,
      "velocity": 104,
      "chip": "ym2612"
    },
    {
      "channel": 1,
      "note": 57,
      "start": 60.4181,
      "duration": 0.3334,
      "velocity": 117,
      "chip": "ym2612"
    },
    {
      "channel": 3,
      "note": 62,
      "start": 60.4203,
      "duration": 0.3318,
      "velocity": 104,
      "chip": "ym2612"
    },
    {
      "channel": 4,
      "note": 79,
      "start": 60.4209,
      "duration": 0.2286,
      "velocity": 127,
      "chip": "ym2612"
    },
    {
      "channel": 2,
      "note": 62,
      "start": 60.5317,
      "duration": 0.1172,
      "velocity": 104,
      "chip": "ym2612"
    },
    {
      "channel": 2,
      "note": 64,
      "start": 60.6491,
      "duration": 0.3344,
      "velocity": 104,
      "chip": "ym2612"
    },
    {
      "channel": 4,
      "note": 79,
      "start": 60.6497,
      "duration": 0.1029,
      "velocity": 127,
      "chip": "ym2612"
    },
    {
      "channel": 0,
      "note": 65,
      "start": 60.7511,
      "duration": 0.2317,
      "velocity": 104,
      "chip": "ym2612"
    },
    {
      "channel": 1,
      "note": 62,
      "start": 60.7517,
      "duration": 0.3461,
      "velocity": 117,
      "chip": "ym2612"
    },
    {
      "channel": 3,
      "note": 62,
      "start": 60.7523,
      "duration": 0.2333,
      "velocity": 104,
      "chip": "ym2612"
    },
    {
      "channel": 4,
      "note": 79,
      "start": 60.7529,
      "duration": 0.3455,
      "velocity": 127,
      "chip": "ym2612"
    },
    {
      "channel": 0,
      "note": 65,
      "start": 60.983,
      "duration": 0.3485,
      "velocity": 104,
      "chip": "ym2612"
    },
    {
      "channel": 2,
      "note": 65,
      "start": 60.9837,
      "duration": 0.2304,
      "velocity": 104,
      "chip": "ym2612"
    },
    {
      "channel": 3,
      "note": 62,
      "start": 60.9858,
      "duration": 0.3464,
      "velocity": 104,
      "chip": "ym2612"
    },
    {
      "channel": 1,
      "note": 65,
      "start": 61.0978,
      "duration": 0.3398,
      "velocity": 117,
      "chip": "ym2612"
    },
    {
      "channel": 4,
      "note": 79,
      "start": 61.0985,
      "duration": 0.2343,
      "velocity": 127,
      "chip": "ym2612"
    },
    {
      "channel": 2,
      "note": 65,
      "start": 61.2143,
      "duration": 0.3416,
      "velocity": 104,
      "chip": "ym2612"
    },
    {
      "channel": 0,
      "note": 65,
      "start": 61.3317,
      "duration": 0.1054,
      "velocity": 104,
      "chip": "ym2612"
    },
    {
      "channel": 3,
      "note": 62,
      "start": 61.3324,
      "duration": 0.1075,
      "velocity": 104,
      "chip": "ym2612"
    },
    {
      "channel": 4,
      "note": 79,
      "start": 61.333,
      "duration": 0.1075,
      "velocity": 127,
      "chip": "ym2612"
    },
    {
      "channel": 0,
      "note": 64,
      "start": 61.4373,
      "duration": 0.2312,
      "velocity": 104,
      "chip": "ym2612"
    },
    {
      "channel": 1,
      "note": 69,
      "start": 61.4379,
      "duration": 0.3359,
      "velocity": 117,
      "chip": "ym2612"
    },
    {
      "channel": 3,
      "note": 67,
      "start": 61.4401,
      "duration": 0.2312,
      "velocity": 104,
      "chip": "ym2612"
    },
    {
      "channel": 4,
      "note": 79,
      "start": 61.4407,
      "duration": 0.3359,
      "velocity": 127,
      "chip": "ym2612"
    },
    {
      "channel": 2,
      "note": 65,
      "start": 61.556,
      "duration": 0.1131,
      "velocity": 104,
      "chip": "ym2612"
    },
    {
      "channel": 0,
      "note": 62,
      "start": 61.6687,
      "duration": 0.1045,
      "velocity": 104,
      "chip": "ym2612"
    },
    {
      "channel": 2,
      "note": 64,
      "start": 61.6693,
      "duration": 0.2141,
      "velocity": 104,
      "chip": "ym2612"
    },
    {
      "channel": 3,
      "note": 62,
      "start": 61.6715,
      "duration": 0.1046,
      "velocity": 104,
      "chip": "ym2612"
    },
    {
      "channel": 0,
      "note": 64,
      "start": 61.7734,
      "duration": 0.3334,
      "velocity": 104,
      "chip": "ym2612"
    },
    {
      "channel": 1,
      "note": 57,
      "start": 61.774,
      "duration": 0.3334,
      "velocity": 117,
      "chip": "ym2612"
    },
    {
      "channel": 3,
      "note": 67,
      "start": 61.7762,
      "duration": 0.334,
      "velocity": 104,
      "chip": "ym2612"
    },
    {
      "channel": 4,
      "note": 79,
      "start": 61.7767,
      "duration": 0.2105,
      "velocity": 127,
      "chip": "ym2612"
    },
    {
      "channel": 2,
      "note": 62,
      "start": 61.8836,
      "duration": 0.103,
      "velocity": 104,
      "chip": "ym2612"
    },
    {
      "channel": 2,
      "note": 64,
      "start": 61.9868,
      "duration": 0.1228,
      "velocity": 103,
      "chip": "ym2612"
    },
    {
      "channel": 4,
      "note": 79,
      "start": 61.9874,
      "duration": 0.6738,
      "velocity": 127,
      "chip": "ym2612"
    },
    {
      "channel": 0,
      "note": 69,
      "start": 62.107,
      "duration": 0.2028,
      "velocity": 104,
      "chip": "ym2612"
    },
    {
      "channel": 1,
      "note": 57,
      "start": 62.1076,
      "duration": 0.2027,
      "velocity": 117,
      "chip": "ym2612"
    },
    {
      "channel": 2,
      "note": 57,
      "start": 62.1097,
      "duration": 1.0509,
      "velocity": 103,
      "chip": "ym2612"
    },
    {
      "channel": 3,
      "note": 64,
      "start": 62.1104,
      "duration": 0.2021,
      "velocity": 104,
      "chip": "ym2612"
    },
    {
      "channel": 0,
      "note": 69,
      "start": 62.3099,
      "duration": 0.3479,
      "velocity": 104,
      "chip": "ym2612"
    },
    {
      "channel": 1,
      "note": 57,
      "start": 62.3105,
      "duration": 0.3479,
      "velocity": 117,
      "chip": "ym2612"
    },
    {
      "channel": 3,
      "note": 64,
      "start": 62.3126,
      "duration": 0.3479,
      "velocity": 104,
      "chip": "ym2612"
    },
    {
      "channel": 0,
      "note": 57,
      "start": 62.658,
      "duration": 0.5016,
      "velocity": 104,
      "chip": "ym2612"
    },
    {
      "channel": 1,
      "note": 45,
      "start": 62.6585,
      "duration": 0.5017,
      "velocity": 117,
      "chip": "ym2612"
    },
    {
      "channel": 3,
      "note": 33,
      "start": 62.6607,
      "duration": 0.5006,
      "velocity": 104,
      "chip": "ym2612"
    },
    {
      "channel": 4,
      "note": 79,
      "start": 62.6614,
      "duration": 1.0597,
      "velocity": 127,
      "chip": "ym2612"
    },
    {
      "channel": 0,
      "note": 73,
      "start": 63.1598,
      "duration": 0.207,
      "velocity": 104,
      "chip": "ym2612"
    },
    {
      "channel": 1,
      "note": 57,
      "start": 63.1603,
      "duration": 0.2071,
      "velocity": 117,
      "chip": "ym2612"
    },
    {
      "channel": 2,
      "note": 45,
      "start": 63.1608,
      "duration": 1.0666,
      "velocity": 104,
      "chip": "ym2612"
    },
    {
      "channel": 3,
      "note": 69,
      "start": 63.1615,
      "duration": 0.208,
      "velocity": 104,
      "chip": "ym2612"
    },
    {
      "channel": 0,
      "note": 73,
      "start": 63.367,
      "duration": 0.3508,
      "velocity": 104,
      "chip": "ym2612"
    },
    {
      "channel": 1,
      "note": 57,
      "start": 63.3676,
      "duration": 0.3508,
      "velocity": 117,
      "chip": "ym2612"
    },
    {
      "channel": 3,
      "note": 69,
      "start": 63.3697,
      "duration": 0.3508,
      "velocity": 104,
      "chip": "ym2612"
    },
    {
      "channel": 0,
      "note": 57,
      "start": 63.718,
      "duration": 0.5052,
      "velocity": 104,
      "chip": "ym2612"
    },
    {
      "channel": 1,
      "note": 45,
      "start": 63.7185,
      "duration": 0.5068,
      "velocity": 104,
      "chip": "ym2612"
    },
    {
      "channel": 3,
      "note": 33,
      "start": 63.7207,
      "duration": 0.5073,
      "velocity": 104,
      "chip": "ym2612"
    },
    {
      "channel": 4,
      "note": 79,
      "start": 63.7213,
      "duration": 1.5894,
      "velocity": 104,
      "chip": "ym2612"
    },
    {
      "channel": 0,
      "note": 69,
      "start": 64.2233,
      "duration": 0.0866,
      "velocity": 104,
      "chip": "ym2612"
    },
    {
      "channel": 1,
      "note": 52,
      "start": 64.2255,
      "duration": 0.085,
      "velocity": 104,
      "chip": "ym2612"
    },
    {
      "channel": 2,
      "note": 61,
      "start": 64.2277,
      "duration": 0.0834,
      "velocity": 104,
      "chip": "ym2612"
    },
    {
      "channel": 3,
      "note": 67,
      "start": 64.2282,
      "duration": 0.0833,
      "velocity": 104,
      "chip": "ym2612"
    },
    {
      "channel": 0,
      "note": 69,
      "start": 64.3101,
      "duration": 0.1732,
      "velocity": 104,
      "chip": "ym2612"
    },
    {
      "channel": 1,
      "note": 52,
      "start": 64.3107,
      "duration": 0.1732,
      "velocity": 104,
      "chip": "ym2612"
    },
    {
      "channel": 2,
      "note": 61,
      "start": 64.3112,
      "duration": 0.1732,
      "velocity": 104,
      "chip": "ym2612"
    },
    {
      "channel": 3,
      "note": 67,
      "start": 64.3117,
      "duration": 0.1732,
      "velocity": 104,
      "chip": "ym2612"
    },
    {
      "channel": 0,
      "note": 69,
      "start": 64.4834,
      "duration": 0.0908,
      "velocity": 104,
      "chip": "ym2612"
    },
    {
      "channel": 1,
      "note": 52,
      "start": 64.484,
      "duration": 0.0923,
      "velocity": 104,
      "chip": "ym2612"
    },
    {
      "channel": 2,
      "note": 61,
      "start": 64.4845,
      "duration": 0.094,
      "velocity": 104,
      "chip": "ym2612"
    },
    {
      "channel": 3,
      "note": 67,
      "start": 64.4851,
      "duration": 0.094,
      "velocity": 104,
      "chip": "ym2612"
    },
    {
      "channel": 0,
      "note": 69,
      "start": 64.5744,
      "duration": 0.1767,
      "velocity": 104,
      "chip": "ym2612"
    },
    {
      "channel": 1,
      "note": 52,
      "start": 64.5766,
      "duration": 0.1767,
      "velocity": 104,
      "chip": "ym2612"
    },
    {
      "channel": 2,
      "note": 61,
      "start": 64.5787,
      "duration": 0.1767,
      "velocity": 104,
      "chip": "ym2612"
    },
    {
      "channel": 3,
      "note": 67,
      "start": 64.5793,
      "duration": 0.1767,
      "velocity": 104,
      "chip": "ym2612"
    },
    {
      "channel": 0,
      "note": 69,
      "start": 64.7513,
      "duration": 0.1792,
      "velocity": 1,
      "chip": "ym2612"
    },
    {
      "channel": 1,
      "note": 52,
      "start": 64.7535,
      "duration": 0.1791,
      "velocity": 117,
      "chip": "ym2612"
    },
    {
      "channel": 2,
      "note": 61,
      "start": 64.7556,
      "duration": 0.1791,
      "velocity": 99,
      "chip": "ym2612"
    },
    {
      "channel": 3,
      "note": 67,
      "start": 64.7562,
      "duration": 0.1806,
      "velocity": 121,
      "chip": "ym2612"
    },
    {
      "channel": 0,
      "note": 55,
      "start": 64.9307,
      "duration": 0.9308,
      "velocity": 105,
      "chip": "ym2612"
    },
    {
      "channel": 1,
      "note": 50,
      "start": 64.9327,
      "duration": 0.1733,
      "velocity": 117,
      "chip": "ym2612"
    },
    {
      "channel": 2,
      "note": 57,
      "start": 64.9349,
      "duration": 0.7458,
      "velocity": 99,
      "chip": "ym2612"
    },
    {
      "channel": 3,
      "note": 79,
      "start": 64.937,
      "duration": 0.1712,
      "velocity": 127,
      "chip": "ym2612"
    },
    {
      "channel": 1,
      "note": 50,
      "start": 65.1062,
      "duration": 0.2001,
      "velocity": 117,
      "chip": "ym2612"
    },
    {
      "channel": 3,
      "note": 79,
      "start": 65.1084,
      "duration": 0.2001,
      "velocity": 121,
      "chip": "ym2612"
    },
    {
      "channel": 1,
      "note": 52,
      "start": 65.3065,
      "duration": 0.1739,
      "velocity": 117,
      "chip": "ym2612"
    },
    {
      "channel": 3,
      "note": 79,
      "start": 65.3087,
      "duration": 0.1722,
      "velocity": 121,
      "chip": "ym2612"
    },
    {
      "channel": 4,
      "note": 62,
      "start": 65.3108,
      "duration": 0.7386,
      "velocity": 104,
      "chip": "ym2612"
    },
    {
      "channel": 1,
      "note": 53,
      "start": 65.4805,
      "duration": 0.3816,
      "velocity": 117,
      "chip": "ym2612"
    },
    {
      "channel": 3,
      "note": 79,
      "start": 65.4811,
      "duration": 0.2017,
      "velocity": 127,
      "chip": "ym2612"
    },
    {
      "channel": 2,
      "note": 58,
      "start": 65.6809,
      "duration": 0.725,
      "velocity": 99,
      "chip": "ym2612"
    },
    {
      "channel": 3,
      "note": 79,
      "start": 65.683,
      "duration": 0.1812,
      "velocity": 121,
      "chip": "ym2612"
    },
    {
      "channel": 0,
      "note": 50,
      "start": 65.8617,
      "duration": 0.186,
      "velocity": 105,
      "chip": "ym2612"
    },
    {
      "channel": 1,
      "note": 53,
      "start": 65.8622,
      "duration": 0.186,
      "velocity": 117,
      "chip": "ym2612"
    },
    {
      "channel": 3,
      "note": 79,
      "start": 65.8644,
      "duration": 0.1844,
      "velocity": 121,
      "chip": "ym2612"
    },
    {
      "channel": 0,
      "note": 55,
      "start": 66.0478,
      "duration": 0.1792,
      "velocity": 105,
      "chip": "ym2612"
    },
    {
      "channel": 1,
      "note": 55,
      "start": 66.0484,
      "duration": 0.1792,
      "velocity": 117,
      "chip": "ym2612"
    },
    {
      "channel": 3,
      "note": 79,
      "start": 66.049,
      "duration": 0.0877,
      "velocity": 121,
      "chip": "ym2612"
    },
    {
      "channel": 4,
      "note": 62,
      "start": 66.0496,
      "duration": 0.736,
      "velocity": 104,
      "chip": "ym2612"
    },
    {
      "channel": 3,
      "note": 79,
      "start": 66.1369,
      "duration": 0.0929,
      "velocity": 127,
      "chip": "ym2612"
    },
    {
      "channel": 0,
      "note": 52,
      "start": 66.2272,
      "duration": 1.6628,
      "velocity": 105,
      "chip": "ym2612"
    },
    {
      "channel": 1,
      "note": 57,
      "start": 66.2278,
      "duration": 0.356,
      "velocity": 117,
      "chip": "ym2612"
    },
    {
      "channel": 3,
      "note": 79,
      "start": 66.23,
      "duration": 0.178,
      "velocity": 121,
      "chip": "ym2612"
    },
    {
      "channel": 2,
      "note": 59,
      "start": 66.4061,
      "duration": 0.7666,
      "velocity": 99,
      "chip": "ym2612"
    },
    {
      "channel": 3,
      "note": 79,
      "start": 66.4082,
      "duration": 0.1762,
      "velocity": 121,
      "chip": "ym2612"
    },
    {
      "channel": 1,
      "note": 62,
      "start": 66.5839,
      "duration": 0.2005,
      "velocity": 117,
      "chip": "ym2612"
    },
    {
      "channel": 3,
      "note": 79,
      "start": 66.5846,
      "duration": 0.2005,
      "velocity": 121,
      "chip": "ym2612"
    },
    {
      "channel": 1,
      "note": 57,
      "start": 66.7846,
      "duration": 0.094,
      "velocity": 117,
      "chip": "ym2612"
    },
    {
      "channel": 3,
      "note": 79,
      "start": 66.7852,
      "duration": 0.1885,
      "velocity": 127,
      "chip": "ym2612"
    },
    {
      "channel": 4,
      "note": 62,
      "start": 66.7858,
      "duration": 0.7538,
      "velocity": 104,
      "chip": "ym2612"
    },
    {
      "channel": 1,
      "note": 53,
      "start": 66.8787,
      "duration": 0.1933,
      "velocity": 117,
      "chip": "ym2612"
    },
    {
      "channel": 3,
      "note": 79,
      "start": 66.9738,
      "duration": 0.201,
      "velocity": 121,
      "chip": "ym2612"
    },
    {
      "channel": 1,
      "note": 52,
      "start": 67.0721,
      "duration": 0.191,
      "velocity": 117,
      "chip": "ym2612"
    },
    {
      "channel": 2,
      "note": 58,
      "start": 67.1729,
      "duration": 0.7183,
      "velocity": 99,
      "chip": "ym2612"
    },
    {
      "channel": 3,
      "note": 79,
      "start": 67.175,
      "duration": 0.1801,
      "velocity": 121,
      "chip": "ym2612"
    },
    {
      "channel": 1,
      "note": 52,
      "start": 67.2634,
      "duration": 0.0911,
      "velocity": 117,
      "chip": "ym2612"
    },
    {
      "channel": 1,
      "note": 53,
      "start": 67.3546,
      "duration": 0.1844,
      "velocity": 117,
      "chip": "ym2612"
    },
    {
      "channel": 3,
      "note": 79,
      "start": 67.3553,
      "duration": 0.0899,
      "velocity": 127,
      "chip": "ym2612"
    },
    {
      "channel": 3,
      "note": 79,
      "start": 67.4454,
      "duration": 0.1865,
      "velocity": 121,
      "chip": "ym2612"
    },
    {
      "channel": 1,
      "note": 52,
      "start": 67.5391,
      "duration": 0.178,
      "velocity": 117,
      "chip": "ym2612"
    },
    {
      "channel": 4,
      "note": 62,
      "start": 67.5398,
      "duration": 0.7356,
      "velocity": 104,
      "chip": "ym2612"
    },
    {
      "channel": 3,
      "note": 79,
      "start": 67.632,
      "duration": 0.0858,
      "velocity": 121,
      "chip": "ym2612"
    },
    {
      "channel": 1,
      "note": 50,
      "start": 67.7173,
      "duration": 0.1733,
      "velocity": 117,
      "chip": "ym2612"
    },
    {
      "channel": 3,
      "note": 79,
      "start": 67.7179,
      "duration": 0.1738,
      "velocity": 121,
      "chip": "ym2612"
    },
    {
      "channel": 0,
      "note": 52,
      "start": 67.8902,
      "duration": 0.0024,
      "velocity": 105,
      "chip": "ym2612"
    },
    {
      "channel": 1,
      "note": 62,
      "start": 67.8908,
      "duration": 0.1817,
      "velocity": 117,
      "chip": "ym2612"
    },
    {
      "channel": 2,
      "note": 57,
      "start": 67.8913,
      "duration": 0.761,
      "velocity": 99,
      "chip": "ym2612"
    },
    {
      "channel": 3,
      "note": 79,
      "start": 67.8919,
      "duration": 0.1827,
      "velocity": 127,
      "chip": "ym2612"
    },
    {
      "channel": 0,
      "note": 56,
      "start": 67.8927,
      "duration": 0.0264,
      "velocity": 105,
      "chip": "ym2612"
    },
    {
      "channel": 0,
      "note": 62,
      "start": 67.9191,
      "duration": 0.0156,
      "velocity": 105,
      "chip": "ym2612"
    },
    {
      "channel": 0,
      "note": 64,
      "start": 67.9348,
      "duration": 0.0462,
      "velocity": 105,
      "chip": "ym2612"
    },
    {
      "channel": 0,
      "note": 65,
      "start": 67.9809,
      "duration": 0.091,
      "velocity": 105,
      "chip": "ym2612"
    },
    {
      "channel": 0,
      "note": 65,
      "start": 68.072,
      "duration": 0.0033,
      "velocity": 105,
      "chip": "ym2612"
    },
    {
      "channel": 1,
      "note": 57,
      "start": 68.0726,
      "duration": 0.2,
      "velocity": 117,
      "chip": "ym2612"
    },
    {
      "channel": 3,
      "note": 79,
      "start": 68.0748,
      "duration": 0.2,
      "velocity": 121,
      "chip": "ym2612"
    },
    {
      "channel": 0,
      "note": 64,
      "start": 68.0753,
      "duration": 0.0971,
      "velocity": 105,
      "chip": "ym2612"
    },
    {
      "channel": 0,
      "note": 62,
      "start": 68.1724,
      "duration": 0.1863,
      "velocity": 105,
      "chip": "ym2612"
    },
    {
      "channel": 1,
      "note": 53,
      "start": 68.2728,
      "duration": 0.1791,
      "velocity": 117,
      "chip": "ym2612"
    },
    {
      "channel": 3,
      "note": 79,
      "start": 68.275,
      "duration": 0.1776,
      "velocity": 121,
      "chip": "ym2612"
    },
    {
      "channel": 4,
      "note": 62,
      "start": 68.2756,
      "duration": 0.747,
      "velocity": 104,
      "chip": "ym2612"
    },
    {
      "channel": 0,
      "note": 62,
      "start": 68.3589,
      "duration": 0.0006,
      "velocity": 105,
      "chip": "ym2612"
    },
    {
      "channel": 0,
      "note": 57,
      "start": 68.3595,
      "duration": 0.1924,
      "velocity": 105,
      "chip": "ym2612"
    },
    {
      "channel": 1,
      "note": 50,
      "start": 68.4521,
      "duration": 0.3802,
      "velocity": 117,
      "chip": "ym2612"
    },
    {
      "channel": 3,
      "note": 79,
      "start": 68.4527,
      "duration": 0.2018,
      "velocity": 127,
      "chip": "ym2612"
    },
    {
      "channel": 0,
      "note": 57,
      "start": 68.552,
      "duration": 0.0007,
      "velocity": 105,
      "chip": "ym2612"
    },
    {
      "channel": 0,
      "note": 53,
      "start": 68.5527,
      "duration": 0.1872,
      "velocity": 105,
      "chip": "ym2612"
    },
    {
      "channel": 2,
      "note": 58,
      "start": 68.6525,
      "duration": 0.7339,
      "velocity": 99,
      "chip": "ym2612"
    },
    {
      "channel": 3,
      "note": 79,
      "start": 68.6546,
      "duration": 0.1798,
      "velocity": 121,
      "chip": "ym2612"
    },
    {
      "channel": 0,
      "note": 53,
      "start": 68.7401,
      "duration": 0.0006,
      "velocity": 105,
      "chip": "ym2612"
    },
    {
      "channel": 0,
      "note": 52,
      "start": 68.7407,
      "duration": 0.0944,
      "velocity": 105,
      "chip": "ym2612"
    },
    {
      "channel": 1,
      "note": 50,
      "start": 68.8325,
      "duration": 0.189,
      "velocity": 117,
      "chip": "ym2612"
    },
    {
      "channel": 3,
      "note": 79,
      "start": 68.8346,
      "duration": 0.1873,
      "velocity": 121,
      "chip": "ym2612"
    },
    {
      "channel": 0,
      "note": 50,
      "start": 68.8351,
      "duration": 0.0971,
      "velocity": 105,
      "chip": "ym2612"
    },
    {
      "channel": 0,
      "note": 50,
      "start": 68.9325,
      "duration": 0.001,
      "velocity": 105,
      "chip": "ym2612"
    },
    {
      "channel": 0,
      "note": 45,
      "start": 68.9334,
      "duration": 2.8593,
      "velocity": 105,
      "chip": "ym2612"
    },
    {
      "channel": 1,
      "note": 52,
      "start": 69.0215,
      "duration": 0.184,
      "velocity": 117,
      "chip": "ym2612"
    },
    {
      "channel": 3,
      "note": 79,
      "start": 69.0222,
      "duration": 0.0883,
      "velocity": 121,
      "chip": "ym2612"
    },
    {
      "channel": 4,
      "note": 62,
      "start": 69.0228,
      "duration": 0.7476,
      "velocity": 104,
      "chip": "ym2612"
    },
    {
      "channel": 3,
      "note": 79,
      "start": 69.1107,
      "duration": 0.0971,
      "velocity": 127,
      "chip": "ym2612"
    },
    {
      "channel": 1,
      "note": 53,
      "start": 69.2057,
      "duration": 0.3628,
      "velocity": 117,
      "chip": "ym2612"
    },
    {
      "channel": 3,
      "note": 79,
      "start": 69.2079,
      "duration": 0.1805,
      "velocity": 121,
      "chip": "ym2612"
    },
    {
      "channel": 2,
      "note": 59,
      "start": 69.3865,
      "duration": 0.7522,
      "velocity": 99,
      "chip": "ym2612"
    },
    {
      "channel": 3,
      "note": 79,
      "start": 69.3886,
      "duration": 0.1805,
      "velocity": 121,
      "chip": "ym2612"
    },
    {
      "channel": 1,
      "note": 52,
      "start": 69.5687,
      "duration": 0.2005,
      "velocity": 117,
      "chip": "ym2612"
    },
    {
      "channel": 3,
      "note": 79,
      "start": 69.5693,
      "duration": 0.2005,
      "velocity": 121,
      "chip": "ym2612"
    },
    {
      "channel": 1,
      "note": 50,
      "start": 69.7693,
      "duration": 0.1799,
      "velocity": 117,
      "chip": "ym2612"
    },
    {
      "channel": 3,
      "note": 79,
      "start": 69.77,
      "duration": 0.1815,
      "velocity": 127,
      "chip": "ym2612"
    },
    {
      "channel": 4,
      "note": 62,
      "start": 69.7705,
      "duration": 0.7346,
      "velocity": 104,
      "chip": "ym2612"
    },
    {
      "channel": 1,
      "note": 57,
      "start": 69.9494,
      "duration": 0.3771,
      "velocity": 117,
      "chip": "ym2612"
    },
    {
      "channel": 3,
      "note": 79,
      "start": 69.9517,
      "duration": 0.1891,
      "velocity": 121,
      "chip": "ym2612"
    },
    {
      "channel": 2,
      "note": 58,
      "start": 70.1389,
      "duration": 0.7178,
      "velocity": 99,
      "chip": "ym2612"
    },
    {
      "channel": 3,
      "note": 79,
      "start": 70.141,
      "duration": 0.0913,
      "velocity": 121,
      "chip": "ym2612"
    },
    {
      "channel": 3,
      "note": 79,
      "start": 70.2325,
      "duration": 0.0962,
      "velocity": 127,
      "chip": "ym2612"
    },
    {
      "channel": 1,
      "note": 57,
      "start": 70.3268,
      "duration": 0.1757,
      "velocity": 117,
      "chip": "ym2612"
    },
    {
      "channel": 3,
      "note": 79,
      "start": 70.3289,
      "duration": 0.1757,
      "velocity": 121,
      "chip": "ym2612"
    },
    {
      "channel": 1,
      "note": 45,
      "start": 70.5025,
      "duration": 0.3534,
      "velocity": 117,
      "chip": "ym2612"
    },
    {
      "channel": 3,
      "note": 79,
      "start": 70.5048,
      "duration": 0.1715,
      "velocity": 127,
      "chip": "ym2612"
    },
    {
      "channel": 4,
      "note": 62,
      "start": 70.5054,
      "duration": 0.7316,
      "velocity": 104,
      "chip": "ym2612"
    },
    {
      "channel": 3,
      "note": 79,
      "start": 70.6764,
      "duration": 0.1823,
      "velocity": 121,
      "chip": "ym2612"
    },
    {
      "channel": 1,
      "note": 50,
      "start": 70.8562,
      "duration": 0.1776,
      "velocity": 117,
      "chip": "ym2612"
    },
    {
      "channel": 2,
      "note": 57,
      "start": 70.8568,
      "duration": 0.7551,
      "velocity": 99,
      "chip": "ym2612"
    },
    {
      "channel": 3,
      "note": 79,
      "start": 70.8589,
      "duration": 0.1771,
      "velocity": 127,
      "chip": "ym2612"
    },
    {
      "channel": 1,
      "note": 50,
      "start": 71.034,
      "duration": 0.2001,
      "velocity": 117,
      "chip": "ym2612"
    },
    {
      "channel": 3,
      "note": 79,
      "start": 71.0362,
      "duration": 0.2001,
      "velocity": 121,
      "chip": "ym2612"
    },
    {
      "channel": 1,
      "note": 52,
      "start": 71.2342,
      "duration": 0.1773,
      "velocity": 117,
      "chip": "ym2612"
    },
    {
      "channel": 3,
      "note": 79,
      "start": 71.2365,
      "duration": 0.1756,
      "velocity": 121,
      "chip": "ym2612"
    },
    {
      "channel": 4,
      "note": 62,
      "start": 71.2371,
      "duration": 0.7463,
      "velocity": 104,
      "chip": "ym2612"
    },
    {
      "channel": 1,
      "note": 53,
      "start": 71.4116,
      "duration": 0.3816,
      "velocity": 117,
      "chip": "ym2612"
    },
    {
      "channel": 3,
      "note": 79,
      "start": 71.4122,
      "duration": 0.2018,
      "velocity": 127,
      "chip": "ym2612"
    },
    {
      "channel": 2,
      "note": 58,
      "start": 71.6121,
      "duration": 0.7255,
      "velocity": 99,
      "chip": "ym2612"
    },
    {
      "channel": 3,
      "note": 79,
      "start": 71.6142,
      "duration": 0.1812,
      "velocity": 121,
      "chip": "ym2612"
    },
    {
      "channel": 0,
      "note": 62,
      "start": 71.7928,
      "duration": 0.1888,
      "velocity": 105,
      "chip": "ym2612"
    },
    {
      "channel": 1,
      "note": 53,
      "start": 71.7934,
      "duration": 0.0996,
      "velocity": 117,
      "chip": "ym2612"
    },
    {
      "channel": 3,
      "note": 79,
      "start": 71.7956,
      "duration": 0.1872,
      "velocity": 121,
      "chip": "ym2612"
    },
    {
      "channel": 1,
      "note": 53,
      "start": 71.8931,
      "duration": 0.0891,
      "velocity": 117,
      "chip": "ym2612"
    },
    {
      "channel": 0,
      "note": 67,
      "start": 71.9818,
      "duration": 0.177,
      "velocity": 105,
      "chip": "ym2612"
    },
    {
      "channel": 1,
      "note": 52,
      "start": 71.9824,
      "duration": 0.0864,
      "velocity": 117,
      "chip": "ym2612"
    },
    {
      "channel": 3,
      "note": 79,
      "start": 71.983,
      "duration": 0.0864,
      "velocity": 121,
      "chip": "ym2612"
    },
    {
      "channel": 4,
      "note": 62,
      "start": 71.9836,
      "duration": 0.7371,
      "velocity": 104,
      "chip": "ym2612"
    },
    {
      "channel": 1,
      "note": 50,
      "start": 72.0689,
      "duration": 0.1758,
      "velocity": 117,
      "chip": "ym2612"
    },
    {
      "channel": 3,
      "note": 79,
      "start": 72.0695,
      "duration": 0.0916,
      "velocity": 127,
      "chip": "ym2612"
    },
    {
      "channel": 0,
      "note": 64,
      "start": 72.159,
      "duration": 0.3618,
      "velocity": 105,
      "chip": "ym2612"
    },
    {
      "channel": 3,
      "note": 79,
      "start": 72.1612,
      "duration": 0.1786,
      "velocity": 121,
      "chip": "ym2612"
    },
    {
      "channel": 1,
      "note": 57,
      "start": 72.2449,
      "duration": 0.2764,
      "velocity": 117,
      "chip": "ym2612"
    },
    {
      "channel": 2,
      "note": 59,
      "start": 72.3378,
      "duration": 0.7614,
      "velocity": 99,
      "chip": "ym2612"
    },
    {
      "channel": 3,
      "note": 79,
      "start": 72.34,
      "duration": 0.1819,
      "velocity": 121,
      "chip": "ym2612"
    },
    {
      "channel": 0,
      "note": 65,
      "start": 72.5209,
      "duration": 0.2859,
      "velocity": 105,
      "chip": "ym2612"
    },
    {
      "channel": 1,
      "note": 53,
      "start": 72.5215,
      "duration": 0.198,
      "velocity": 117,
      "chip": "ym2612"
    },
    {
      "channel": 3,
      "note": 79,
      "start": 72.5221,
      "duration": 0.198,
      "velocity": 121,
      "chip": "ym2612"
    },
    {
      "channel": 1,
      "note": 52,
      "start": 72.7197,
      "duration": 0.1787,
      "velocity": 117,
      "chip": "ym2612"
    },
    {
      "channel": 3,
      "note": 79,
      "start": 72.7203,
      "duration": 0.1802,
      "velocity": 127,
      "chip": "ym2612"
    },
    {
      "channel": 4,
      "note": 62,
      "start": 72.7209,
      "duration": 0.74,
      "velocity": 104,
      "chip": "ym2612"
    },
    {
      "channel": 0,
      "note": 67,
      "start": 72.8069,
      "duration": 0.2917,
      "velocity": 105,
      "chip": "ym2612"
    },
    {
      "channel": 1,
      "note": 50,
      "start": 72.8985,
      "duration": 0.3753,
      "velocity": 117,
      "chip": "ym2612"
    },
    {
      "channel": 3,
      "note": 79,
      "start": 72.9007,
      "duration": 0.2007,
      "velocity": 121,
      "chip": "ym2612"
    },
    {
      "channel": 0,
      "note": 69,
      "start": 73.0988,
      "duration": 0.7179,
      "velocity": 104,
      "chip": "ym2612"
    },
    {
      "channel": 2,
      "note": 58,
      "start": 73.0994,
      "duration": 0.7184,
      "velocity": 99,
      "chip": "ym2612"
    },
    {
      "channel": 3,
      "note": 79,
      "start": 73.1016,
      "duration": 0.1728,
      "velocity": 121,
      "chip": "ym2612"
    },
    {
      "channel": 1,
      "note": 45,
      "start": 73.2739,
      "duration": 0.1864,
      "velocity": 117,
      "chip": "ym2612"
    },
    {
      "channel": 3,
      "note": 79,
      "start": 73.2745,
      "duration": 0.0917,
      "velocity": 127,
      "chip": "ym2612"
    },
    {
      "channel": 3,
      "note": 79,
      "start": 73.3664,
      "duration": 0.186,
      "velocity": 121,
      "chip": "ym2612"
    },
    {
      "channel": 1,
      "note": 53,
      "start": 73.4604,
      "duration": 0.1758,
      "velocity": 117,
      "chip": "ym2612"
    },
    {
      "channel": 4,
      "note": 62,
      "start": 73.4611,
      "duration": 0.3594,
      "velocity": 104,
      "chip": "ym2612"
    },
    {
      "channel": 3,
      "note": 79,
      "start": 73.5526,
      "duration": 0.0842,
      "velocity": 121,
      "chip": "ym2612"
    },
    {
      "channel": 1,
      "note": 52,
      "start": 73.6363,
      "duration": 0.1809,
      "velocity": 117,
      "chip": "ym2612"
    },
    {
      "channel": 3,
      "note": 79,
      "start": 73.6369,
      "duration": 0.1815,
      "velocity": 121,
      "chip": "ym2612"
    },
    {
      "channel": 0,
      "note": 67,
      "start": 73.8168,
      "duration": 0.1819,
      "velocity": 104,
      "chip": "ym2612"
    },
    {
      "channel": 1,
      "note": 50,
      "start": 73.8174,
      "duration": 0.5581,
      "velocity": 117,
      "chip": "ym2612"
    },
    {
      "channel": 2,
      "note": 57,
      "start": 73.818,
      "duration": 0.7583,
      "velocity": 99,
      "chip": "ym2612"
    },
    {
      "channel": 3,
      "note": 79,
      "start": 73.8185,
      "duration": 0.1824,
      "velocity": 127,
      "chip": "ym2612"
    },
    {
      "channel": 4,
      "note": 70,
      "start": 73.8207,
      "duration": 0.1824,
      "velocity": 104,
      "chip": "ym2612"
    },
    {
      "channel": 0,
      "note": 65,
      "start": 73.9988,
      "duration": 0.1998,
      "velocity": 102,
      "chip": "ym2612"
    },
    {
      "channel": 3,
      "note": 79,
      "start": 74.0011,
      "duration": 0.1998,
      "velocity": 121,
      "chip": "ym2612"
    },
    {
      "channel": 4,
      "note": 69,
      "start": 74.0033,
      "duration": 0.9448,
      "velocity": 104,
      "chip": "ym2612"
    },
    {
      "channel": 0,
      "note": 62,
      "start": 74.1988,
      "duration": 2.5764,
      "velocity": 102,
      "chip": "ym2612"
    },
    {
      "channel": 3,
      "note": 79,
      "start": 74.2011,
      "duration": 0.1751,
      "velocity": 121,
      "chip": "ym2612"
    },
    {
      "channel": 1,
      "note": 50,
      "start": 74.3757,
      "duration": 0.3806,
      "velocity": 117,
      "chip": "ym2612"
    },
    {
      "channel": 3,
      "note": 79,
      "start": 74.3763,
      "duration": 0.2021,
      "velocity": 127,
      "chip": "ym2612"
    },
    {
      "channel": 2,
      "note": 58,
      "start": 74.5765,
      "duration": 0.7324,
      "velocity": 99,
      "chip": "ym2612"
    },
    {
      "channel": 3,
      "note": 79,
      "start": 74.5786,
      "duration": 0.1799,
      "velocity": 121,
      "chip": "ym2612"
    },
    {
      "channel": 1,
      "note": 50,
      "start": 74.7564,
      "duration": 0.552,
      "velocity": 117,
      "chip": "ym2612"
    },
    {
      "channel": 3,
      "note": 79,
      "start": 74.7586,
      "duration": 0.1873,
      "velocity": 121,
      "chip": "ym2612"
    },
    {
      "channel": 3,
      "note": 79,
      "start": 74.9461,
      "duration": 0.0906,
      "velocity": 121,
      "chip": "ym2612"
    },
    {
      "channel": 4,
      "note": 62,
      "start": 74.9483,
      "duration": 0.7401,
      "velocity": 104,
      "chip": "ym2612"
    },
    {
      "channel": 3,
      "note": 79,
      "start": 75.0369,
      "duration": 0.0915,
      "velocity": 127,
      "chip": "ym2612"
    },
    {
      "channel": 3,
      "note": 79,
      "start": 75.1286,
      "duration": 0.1824,
      "velocity": 121,
      "chip": "ym2612"
    },
    {
      "channel": 1,
      "note": 65,
      "start": 75.3085,
      "duration": 0.2785,
      "velocity": 117,
      "chip": "ym2612"
    },
    {
      "channel": 2,
      "note": 59,
      "start": 75.3091,
      "duration": 0.7464,
      "velocity": 99,
      "chip": "ym2612"
    },
    {
      "channel": 3,
      "note": 79,
      "start": 75.3112,
      "duration": 0.1756,
      "velocity": 121,
      "chip": "ym2612"
    },
    {
      "channel": 3,
      "note": 79,
      "start": 75.4871,
      "duration": 0.2008,
      "velocity": 121,
      "chip": "ym2612"
    },
    {
      "channel": 1,
      "note": 64,
      "start": 75.5872,
      "duration": 0.281,
      "velocity": 117,
      "chip": "ym2612"
    },
    {
      "channel": 3,
      "note": 79,
      "start": 75.688,
      "duration": 0.1824,
      "velocity": 127,
      "chip": "ym2612"
    },
    {
      "channel": 4,
      "note": 62,
      "start": 75.6886,
      "duration": 0.7339,
      "velocity": 104,
      "chip": "ym2612"
    },
    {
      "channel": 1,
      "note": 62,
      "start": 75.8683,
      "duration": 0.3682,
      "velocity": 117,
      "chip": "ym2612"
    },
    {
      "channel": 3,
      "note": 79,
      "start": 75.8706,
      "duration": 0.1871,
      "velocity": 121,
      "chip": "ym2612"
    },
    {
      "channel": 2,
      "note": 58,
      "start": 76.0557,
      "duration": 2.2017,
      "velocity": 105,
      "chip": "ym2612"
    },
    {
      "channel": 3,
      "note": 79,
      "start": 76.0578,
      "duration": 0.0899,
      "velocity": 121,
      "chip": "ym2612"
    },
    {
      "channel": 3,
      "note": 79,
      "start": 76.148,
      "duration": 0.0908,
      "velocity": 127,
      "chip": "ym2612"
    },
    {
      "channel": 1,
      "note": 53,
      "start": 76.2367,
      "duration": 0.183,
      "velocity": 117,
      "chip": "ym2612"
    },
    {
      "channel": 3,
      "note": 79,
      "start": 76.2389,
      "duration": 0.183,
      "velocity": 121,
      "chip": "ym2612"
    },
    {
      "channel": 1,
      "note": 52,
      "start": 76.4198,
      "duration": 0.174,
      "velocity": 117,
      "chip": "ym2612"
    },
    {
      "channel": 3,
      "note": 79,
      "start": 76.4221,
      "duration": 0.174,
      "velocity": 127,
      "chip": "ym2612"
    },
    {
      "channel": 4,
      "note": 62,
      "start": 76.4226,
      "duration": 0.3575,
      "velocity": 99,
      "chip": "ym2612"
    },
    {
      "channel": 1,
      "note": 50,
      "start": 76.594,
      "duration": 0.1817,
      "velocity": 117,
      "chip": "ym2612"
    },
    {
      "channel": 3,
      "note": 79,
      "start": 76.5963,
      "duration": 0.1817,
      "velocity": 121,
      "chip": "ym2612"
    },
    {
      "channel": 0,
      "note": 62,
      "start": 76.7754,
      "duration": 0.1775,
      "velocity": 102,
      "chip": "ym2612"
    },
    {
      "channel": 1,
      "note": 50,
      "start": 76.7759,
      "duration": 0.1774,
      "velocity": 117,
      "chip": "ym2612"
    },
    {
      "channel": 3,
      "note": 79,
      "start": 76.7781,
      "duration": 0.1774,
      "velocity": 127,
      "chip": "ym2612"
    },
    {
      "channel": 4,
      "note": 57,
      "start": 76.7802,
      "duration": 0.7519,
      "velocity": 99,
      "chip": "ym2612"
    },
    {
      "channel": 0,
      "note": 65,
      "start": 76.953,
      "duration": 0.376,
      "velocity": 102,
      "chip": "ym2612"
    },
    {
      "channel": 1,
      "note": 50,
      "start": 76.9536,
      "duration": 0.199,
      "velocity": 117,
      "chip": "ym2612"
    },
    {
      "channel": 3,
      "note": 79,
      "start": 76.9558,
      "duration": 0.199,
      "velocity": 121,
      "chip": "ym2612"
    },
    {
      "channel": 1,
      "note": 52,
      "start": 77.1527,
      "duration": 0.1768,
      "velocity": 117,
      "chip": "ym2612"
    },
    {
      "channel": 3,
      "note": 79,
      "start": 77.1549,
      "duration": 0.1753,
      "velocity": 121,
      "chip": "ym2612"
    },
    {
      "channel": 0,
      "note": 73,
      "start": 77.3291,
      "duration": 0.2002,
      "velocity": 102,
      "chip": "ym2612"
    },
    {
      "channel": 1,
      "note": 53,
      "start": 77.3297,
      "duration": 0.3754,
      "velocity": 117,
      "chip": "ym2612"
    },
    {
      "channel": 3,
      "note": 79,
      "start": 77.3303,
      "duration": 0.2013,
      "velocity": 127,
      "chip": "ym2612"
    },
    {
      "channel": 0,
      "note": 72,
      "start": 77.5295,
      "duration": 2.2032,
      "velocity": 102,
      "chip": "ym2612"
    },
    {
      "channel": 3,
      "note": 79,
      "start": 77.5318,
      "duration": 0.1755,
      "velocity": 121,
      "chip": "ym2612"
    },
    {
      "channel": 4,
      "note": 58,
      "start": 77.5323,
      "duration": 0.7278,
      "velocity": 99,
      "chip": "ym2612"
    },
    {
      "channel": 1,
      "note": 53,
      "start": 77.7053,
      "duration": 0.1878,
      "velocity": 117,
      "chip": "ym2612"
    },
    {
      "channel": 3,
      "note": 79,
      "start": 77.7075,
      "duration": 0.1862,
      "velocity": 121,
      "chip": "ym2612"
    },
    {
      "channel": 1,
      "note": 55,
      "start": 77.8932,
      "duration": 0.1802,
      "velocity": 117,
      "chip": "ym2612"
    },
    {
      "channel": 3,
      "note": 79,
      "start": 77.8938,
      "duration": 0.0902,
      "velocity": 121,
      "chip": "ym2612"
    },
    {
      "channel": 3,
      "note": 79,
      "start": 77.9842,
      "duration": 0.0914,
      "velocity": 127,
      "chip": "ym2612"
    },
    {
      "channel": 1,
      "note": 57,
      "start": 78.0736,
      "duration": 0.3603,
      "velocity": 117,
      "chip": "ym2612"
    },
    {
      "channel": 3,
      "note": 79,
      "start": 78.0758,
      "duration": 0.1838,
      "velocity": 121,
      "chip": "ym2612"
    },
    {
      "channel": 2,
      "note": 67,
      "start": 78.2576,
      "duration": 0.1768,
      "velocity": 105,
      "chip": "ym2612"
    },
    {
      "channel": 3,
      "note": 79,
      "start": 78.2598,
      "duration": 0.1752,
      "velocity": 121,
      "chip": "ym2612"
    },
    {
      "channel": 4,
      "note": 59,
      "start": 78.2603,
      "duration": 0.7538,
      "velocity": 99,
      "chip": "ym2612"
    },
    {
      "channel": 1,
      "note": 62,
      "start": 78.434,
      "duration": 0.2002,
      "velocity": 117,
      "chip": "ym2612"
    },
    {
      "channel": 2,
      "note": 65,
      "start": 78.4346,
      "duration": 0.2001,
      "velocity": 105,
      "chip": "ym2612"
    },
    {
      "channel": 3,
      "note": 79,
      "start": 78.4351,
      "duration": 0.2002,
      "velocity": 121,
      "chip": "ym2612"
    },
    {
      "channel": 1,
      "note": 57,
      "start": 78.6344,
      "duration": 0.0868,
      "velocity": 117,
      "chip": "ym2612"
    },
    {
      "channel": 2,
      "note": 58,
      "start": 78.6349,
      "duration": 0.1766,
      "velocity": 105,
      "chip": "ym2612"
    },
    {
      "channel": 3,
      "note": 79,
      "start": 78.6355,
      "duration": 0.1782,
      "velocity": 127,
      "chip": "ym2612"
    },
    {
      "channel": 1,
      "note": 53,
      "start": 78.7214,
      "duration": 0.1902,
      "velocity": 117,
      "chip": "ym2612"
    },
    {
      "channel": 2,
      "note": 57,
      "start": 78.8117,
      "duration": 2.4194,
      "velocity": 105,
      "chip": "ym2612"
    },
    {
      "channel": 3,
      "note": 79,
      "start": 78.8139,
      "duration": 0.1997,
      "velocity": 121,
      "chip": "ym2612"
    },
    {
      "channel": 1,
      "note": 52,
      "start": 78.9117,
      "duration": 0.1909,
      "velocity": 117,
      "chip": "ym2612"
    },
    {
      "channel": 3,
      "note": 79,
      "start": 79.0138,
      "duration": 0.1794,
      "velocity": 121,
      "chip": "ym2612"
    },
    {
      "channel": 4,
      "note": 58,
      "start": 79.0143,
      "duration": 0.7202,
      "velocity": 99,
      "chip": "ym2612"
    },
    {
      "channel": 1,
      "note": 52,
      "start": 79.1027,
      "duration": 0.0899,
      "velocity": 117,
      "chip": "ym2612"
    },
    {
      "channel": 1,
      "note": 53,
      "start": 79.1927,
      "duration": 0.1816,
      "velocity": 117,
      "chip": "ym2612"
    },
    {
      "channel": 3,
      "note": 79,
      "start": 79.1934,
      "duration": 0.0912,
      "velocity": 127,
      "chip": "ym2612"
    },
    {
      "channel": 3,
      "note": 79,
      "start": 79.2847,
      "duration": 0.1807,
      "velocity": 121,
      "chip": "ym2612"
    },
    {
      "channel": 1,
      "note": 52,
      "start": 79.3745,
      "duration": 0.177,
      "velocity": 117,
      "chip": "ym2612"
    },
    {
      "channel": 3,
      "note": 79,
      "start": 79.4656,
      "duration": 0.0864,
      "velocity": 121,
      "chip": "ym2612"
    },
    {
      "channel": 1,
      "note": 50,
      "start": 79.5516,
      "duration": 0.1816,
      "velocity": 117,
      "chip": "ym2612"
    },
    {
      "channel": 3,
      "note": 79,
      "start": 79.5523,
      "duration": 0.1816,
      "velocity": 121,
      "chip": "ym2612"
    },
    {
      "channel": 0,
      "note": 62,
      "start": 79.7329,
      "duration": 0.1814,
      "velocity": 102,
      "chip": "ym2612"
    },
    {
      "channel": 1,
      "note": 62,
      "start": 79.7334,
      "duration": 0.1814,
      "velocity": 117,
      "chip": "ym2612"
    },
    {
      "channel": 3,
      "note": 79,
      "start": 79.7341,
      "duration": 0.1829,
      "velocity": 127,
      "chip": "ym2612"
    },
    {
      "channel": 4,
      "note": 57,
      "start": 79.7346,
      "duration": 0.768,
      "velocity": 99,
      "chip": "ym2612"
    },
    {
      "channel": 0,
      "note": 65,
      "start": 79.9144,
      "duration": 0.3849,
      "velocity": 102,
      "chip": "ym2612"
    },
    {
      "channel": 1,
      "note": 57,
      "start": 79.9149,
      "duration": 0.1994,
      "velocity": 117,
      "chip": "ym2612"
    },
    {
      "channel": 3,
      "note": 79,
      "start": 79.9172,
      "duration": 0.1994,
      "velocity": 121,
      "chip": "ym2612"
    },
    {
      "channel": 1,
      "note": 53,
      "start": 80.1146,
      "duration": 0.1854,
      "velocity": 117,
      "chip": "ym2612"
    },
    {
      "channel": 3,
      "note": 79,
      "start": 80.1167,
      "duration": 0.1839,
      "velocity": 121,
      "chip": "ym2612"
    },
    {
      "channel": 0,
      "note": 73,
      "start": 80.2995,
      "duration": 0.2002,
      "velocity": 102,
      "chip": "ym2612"
    },
    {
      "channel": 1,
      "note": 50,
      "start": 80.3001,
      "duration": 0.3779,
      "velocity": 117,
      "chip": "ym2612"
    },
    {
      "channel": 3,
      "note": 79,
      "start": 80.3007,
      "duration": 0.2013,
      "velocity": 127,
      "chip": "ym2612"
    },
    {
      "channel": 0,
      "note": 72,
      "start": 80.4999,
      "duration": 2.1931,
      "velocity": 102,
      "chip": "ym2612"
    },
    {
      "channel": 3,
      "note": 79,
      "start": 80.5022,
      "duration": 0.178,
      "velocity": 121,
      "chip": "ym2612"
    },
    {
      "channel": 4,
      "note": 58,
      "start": 80.5027,
      "duration": 0.7311,
      "velocity": 99,
      "chip": "ym2612"
    },
    {
      "channel": 1,
      "note": 50,
      "start": 80.6781,
      "duration": 0.1896,
      "velocity": 117,
      "chip": "ym2612"
    },
    {
      "channel": 3,
      "note": 79,
      "start": 80.6803,
      "duration": 0.188,
      "velocity": 121,
      "chip": "ym2612"
    },
    {
      "channel": 1,
      "note": 52,
      "start": 80.8679,
      "duration": 0.181,
      "velocity": 117,
      "chip": "ym2612"
    },
    {
      "channel": 3,
      "note": 79,
      "start": 80.8684,
      "duration": 0.0884,
      "velocity": 121,
      "chip": "ym2612"
    },
    {
      "channel": 3,
      "note": 79,
      "start": 80.957,
      "duration": 0.094,
      "velocity": 127,
      "chip": "ym2612"
    },
    {
      "channel": 1,
      "note": 53,
      "start": 81.049,
      "duration": 0.3613,
      "velocity": 117,
      "chip": "ym2612"
    },
    {
      "channel": 3,
      "note": 79,
      "start": 81.0512,
      "duration": 0.1822,
      "velocity": 121,
      "chip": "ym2612"
    },
    {
      "channel": 2,
      "note": 62,
      "start": 81.2313,
      "duration": 0.0887,
      "velocity": 105,
      "chip": "ym2612"
    },
    {
      "channel": 3,
      "note": 79,
      "start": 81.2335,
      "duration": 0.1779,
      "velocity": 121,
      "chip": "ym2612"
    },
    {
      "channel": 4,
      "note": 59,
      "start": 81.234,
      "duration": 0.7487,
      "velocity": 99,
      "chip": "ym2612"
    },
    {
      "channel": 2,
      "note": 64,
      "start": 81.3201,
      "duration": 0.0907,
      "velocity": 105,
      "chip": "ym2612"
    },
    {
      "channel": 1,
      "note": 52,
      "start": 81.4105,
      "duration": 0.2001,
      "velocity": 117,
      "chip": "ym2612"
    },
    {
      "channel": 2,
      "note": 62,
      "start": 81.411,
      "duration": 0.0993,
      "velocity": 105,
      "chip": "ym2612"
    },
    {
      "channel": 3,
      "note": 79,
      "start": 81.4115,
      "duration": 0.1998,
      "velocity": 121,
      "chip": "ym2612"
    },
    {
      "channel": 2,
      "note": 55,
      "start": 81.5106,
      "duration": 0.0006,
      "velocity": 105,
      "chip": "ym2612"
    },
    {
      "channel": 2,
      "note": 55,
      "start": 81.5112,
      "duration": 0.0309,
      "velocity": 105,
      "chip": "ym2612"
    },
    {
      "channel": 2,
      "note": 55,
      "start": 81.542,
      "duration": 0.0167,
      "velocity": 105,
      "chip": "ym2612"
    },
    {
      "channel": 2,
      "note": 56,
      "start": 81.5587,
      "duration": 0.0167,
      "velocity": 105,
      "chip": "ym2612"
    },
    {
      "channel": 2,
      "note": 56,
      "start": 81.5754,
      "duration": 0.0167,
      "velocity": 105,
      "chip": "ym2612"
    },
    {
      "channel": 2,
      "note": 56,
      "start": 81.592,
      "duration": 0.1056,
      "velocity": 105,
      "chip": "ym2612"
    },
    {
      "channel": 1,
      "note": 50,
      "start": 81.6108,
      "duration": 0.1786,
      "velocity": 117,
      "chip": "ym2612"
    },
    {
      "channel": 3,
      "note": 79,
      "start": 81.6115,
      "duration": 0.18,
      "velocity": 127,
      "chip": "ym2612"
    },
    {
      "channel": 2,
      "note": 55,
      "start": 81.6978,
      "duration": 0.1928,
      "velocity": 105,
      "chip": "ym2612"
    },
    {
      "channel": 1,
      "note": 57,
      "start": 81.7895,
      "duration": 0.3702,
      "velocity": 117,
      "chip": "ym2612"
    },
    {
      "channel": 3,
      "note": 79,
      "start": 81.7917,
      "duration": 0.1904,
      "velocity": 121,
      "chip": "ym2612"
    },
    {
      "channel": 2,
      "note": 53,
      "start": 81.8906,
      "duration": 0.8051,
      "velocity": 104,
      "chip": "ym2612"
    },
    {
      "channel": 3,
      "note": 79,
      "start": 81.9824,
      "duration": 0.0907,
      "velocity": 121,
      "chip": "ym2612"
    },
    {
      "channel": 4,
      "note": 58,
      "start": 81.9829,
      "duration": 0.7156,
      "velocity": 99,
      "chip": "ym2612"
    },
    {
      "channel": 3,
      "note": 79,
      "start": 82.0733,
      "duration": 0.0887,
      "velocity": 127,
      "chip": "ym2612"
    },
    {
      "channel": 1,
      "note": 57,
      "start": 82.16,
      "duration": 0.1726,
      "velocity": 117,
      "chip": "ym2612"
    },
    {
      "channel": 3,
      "note": 79,
      "start": 82.1622,
      "duration": 0.1726,
      "velocity": 121,
      "chip": "ym2612"
    },
    {
      "channel": 1,
      "note": 45,
      "start": 82.3327,
      "duration": 0.3609,
      "velocity": 117,
      "chip": "ym2612"
    },
    {
      "channel": 3,
      "note": 79,
      "start": 82.335,
      "duration": 0.1773,
      "velocity": 127,
      "chip": "ym2612"
    },
    {
      "channel": 3,
      "note": 79,
      "start": 82.5124,
      "duration": 0.1855,
      "velocity": 121,
      "chip": "ym2612"
    },
    {
      "channel": 0,
      "note": 62,
      "start": 82.6932,
      "duration": 0.1766,
      "velocity": 102,
      "chip": "ym2612"
    },
    {
      "channel": 1,
      "note": 50,
      "start": 82.6938,
      "duration": 0.1766,
      "velocity": 117,
      "chip": "ym2612"
    },
    {
      "channel": 2,
      "note": 74,
      "start": 82.6959,
      "duration": 0.1749,
      "velocity": 104,
      "chip": "ym2612"
    },
    {
      "channel": 3,
      "note": 79,
      "start": 82.6981,
      "duration": 0.175,
      "velocity": 127,
      "chip": "ym2612"
    },
    {
      "channel": 4,
      "note": 57,
      "start": 82.6987,
      "duration": 0.7468,
      "velocity": 99,
      "chip": "ym2612"
    },
    {
      "channel": 0,
      "note": 65,
      "start": 82.87,
      "duration": 0.3719,
      "velocity": 102,
      "chip": "ym2612"
    },
    {
      "channel": 1,
      "note": 50,
      "start": 82.8705,
      "duration": 0.1986,
      "velocity": 117,
      "chip": "ym2612"
    },
    {
      "channel": 2,
      "note": 77,
      "start": 82.8711,
      "duration": 0.3719,
      "velocity": 104,
      "chip": "ym2612"
    },
    {
      "channel": 3,
      "note": 79,
      "start": 82.8732,
      "duration": 0.1981,
      "velocity": 121,
      "chip": "ym2612"
    },
    {
      "channel": 1,
      "note": 52,
      "start": 83.0693,
      "duration": 0.1731,
      "velocity": 117,
      "chip": "ym2612"
    },
    {
      "channel": 3,
      "note": 79,
      "start": 83.0715,
      "duration": 0.172,
      "velocity": 121,
      "chip": "ym2612"
    },
    {
      "channel": 0,
      "note": 73,
      "start": 83.242,
      "duration": 0.2002,
      "velocity": 102,
      "chip": "ym2612"
    },
    {
      "channel": 1,
      "note": 53,
      "start": 83.2426,
      "duration": 0.3797,
      "velocity": 117,
      "chip": "ym2612"
    },
    {
      "channel": 2,
      "note": 85,
      "start": 83.2431,
      "duration": 0.1998,
      "velocity": 104,
      "chip": "ym2612"
    },
    {
      "channel": 3,
      "note": 79,
      "start": 83.2437,
      "duration": 0.2013,
      "velocity": 127,
      "chip": "ym2612"
    },
    {
      "channel": 0,
      "note": 72,
      "start": 83.4424,
      "duration": 2.2096,
      "velocity": 104,
      "chip": "ym2612"
    },
    {
      "channel": 2,
      "note": 84,
      "start": 83.443,
      "duration": 2.2117,
      "velocity": 104,
      "chip": "ym2612"
    },
    {
      "channel": 3,
      "note": 79,
      "start": 83.4451,
      "duration": 0.1793,
      "velocity": 121,
      "chip": "ym2612"
    },
    {
      "channel": 4,
      "note": 58,
      "start": 83.4457,
      "duration": 0.73,
      "velocity": 99,
      "chip": "ym2612"
    },
    {
      "channel": 1,
      "note": 53,
      "start": 83.6224,
      "duration": 0.1002,
      "velocity": 117,
      "chip": "ym2612"
    },
    {
      "channel": 3,
      "note": 79,
      "start": 83.6246,
      "duration": 0.1883,
      "velocity": 121,
      "chip": "ym2612"
    },
    {
      "channel": 1,
      "note": 53,
      "start": 83.7228,
      "duration": 0.088,
      "velocity": 117,
      "chip": "ym2612"
    },
    {
      "channel": 1,
      "note": 52,
      "start": 83.811,
      "duration": 0.0861,
      "velocity": 117,
      "chip": "ym2612"
    },
    {
      "channel": 3,
      "note": 79,
      "start": 83.8132,
      "duration": 0.0845,
      "velocity": 121,
      "chip": "ym2612"
    },
    {
      "channel": 1,
      "note": 50,
      "start": 83.8973,
      "duration": 0.1802,
      "velocity": 117,
      "chip": "ym2612"
    },
    {
      "channel": 3,
      "note": 79,
      "start": 83.8979,
      "duration": 0.0924,
      "velocity": 127,
      "chip": "ym2612"
    },
    {
      "channel": 3,
      "note": 79,
      "start": 83.9905,
      "duration": 0.1847,
      "velocity": 121,
      "chip": "ym2612"
    },
    {
      "channel": 1,
      "note": 57,
      "start": 84.0776,
      "duration": 0.2746,
      "velocity": 117,
      "chip": "ym2612"
    },
    {
      "channel": 3,
      "note": 79,
      "start": 84.1754,
      "duration": 0.1775,
      "velocity": 121,
      "chip": "ym2612"
    },
    {
      "channel": 4,
      "note": 59,
      "start": 84.1759,
      "duration": 0.758,
      "velocity": 99,
      "chip": "ym2612"
    },
    {
      "channel": 1,
      "note": 53,
      "start": 84.3524,
      "duration": 0.2002,
      "velocity": 117,
      "chip": "ym2612"
    },
    {
      "channel": 3,
      "note": 79,
      "start": 84.353,
      "duration": 0.2001,
      "velocity": 121,
      "chip": "ym2612"
    },
    {
      "channel": 1,
      "note": 52,
      "start": 84.5527,
      "duration": 0.1786,
      "velocity": 117,
      "chip": "ym2612"
    },
    {
      "channel": 3,
      "note": 79,
      "start": 84.5534,
      "duration": 0.1802,
      "velocity": 127,
      "chip": "ym2612"
    },
    {
      "channel": 1,
      "note": 50,
      "start": 84.7315,
      "duration": 0.3737,
      "velocity": 117,
      "chip": "ym2612"
    },
    {
      "channel": 3,
      "note": 79,
      "start": 84.7337,
      "duration": 0.1997,
      "velocity": 121,
      "chip": "ym2612"
    },
    {
      "channel": 3,
      "note": 79,
      "start": 84.9336,
      "duration": 0.1723,
      "velocity": 121,
      "chip": "ym2612"
    },
    {
      "channel": 4,
      "note": 58,
      "start": 84.9341,
      "duration": 0.7217,
      "velocity": 99,
      "chip": "ym2612"
    },
    {
      "channel": 1,
      "note": 45,
      "start": 85.1054,
      "duration": 0.184,
      "velocity": 117,
      "chip": "ym2612"
    },
    {
      "channel": 3,
      "note": 79,
      "start": 85.106,
      "duration": 0.0899,
      "velocity": 127,
      "chip": "ym2612"
    },
    {
      "channel": 3,
      "note": 79,
      "start": 85.1961,
      "duration": 0.1859,
      "velocity": 121,
      "chip": "ym2612"
    },
    {
      "channel": 1,
      "note": 53,
      "start": 85.2895,
      "duration": 0.18,
      "velocity": 117,
      "chip": "ym2612"
    },
    {
      "channel": 3,
      "note": 79,
      "start": 85.3822,
      "duration": 0.0879,
      "velocity": 121,
      "chip": "ym2612"
    },
    {
      "channel": 1,
      "note": 52,
      "start": 85.4697,
      "duration": 0.1829,
      "velocity": 117,
      "chip": "ym2612"
    },
    {
      "channel": 3,
      "note": 79,
      "start": 85.4703,
      "duration": 0.1849,
      "velocity": 121,
      "chip": "ym2612"
    },
    {
      "channel": 0,
      "note": 58,
      "start": 85.6522,
      "duration": 0.1774,
      "velocity": 104,
      "chip": "ym2612"
    },
    {
      "channel": 1,
      "note": 50,
      "start": 85.6527,
      "duration": 0.5531,
      "velocity": 117,
      "chip": "ym2612"
    },
    {
      "channel": 2,
      "note": 55,
      "start": 85.6549,
      "duration": 0.1769,
      "velocity": 104,
      "chip": "ym2612"
    },
    {
      "channel": 3,
      "note": 79,
      "start": 85.6554,
      "duration": 0.1785,
      "velocity": 127,
      "chip": "ym2612"
    },
    {
      "channel": 4,
      "note": 57,
      "start": 85.6559,
      "duration": 0.7525,
      "velocity": 99,
      "chip": "ym2612"
    },
    {
      "channel": 0,
      "note": 57,
      "start": 85.8297,
      "duration": 0.2001,
      "velocity": 104,
      "chip": "ym2612"
    },
    {
      "channel": 2,
      "note": 53,
      "start": 85.8319,
      "duration": 0.2002,
      "velocity": 104,
      "chip": "ym2612"
    },
    {
      "channel": 3,
      "note": 79,
      "start": 85.8341,
      "duration": 0.2001,
      "velocity": 121,
      "chip": "ym2612"
    },
    {
      "channel": 0,
      "note": 62,
      "start": 86.03,
      "duration": 2.3687,
      "velocity": 1,
      "chip": "ym2612"
    },
    {
      "channel": 2,
      "note": 50,
      "start": 86.0322,
      "duration": 2.5447,
      "velocity": 106,
      "chip": "ym2612"
    },
    {
      "channel": 3,
      "note": 79,
      "start": 86.0344,
      "duration": 0.172,
      "velocity": 121,
      "chip": "ym2612"
    },
    {
      "channel": 1,
      "note": 50,
      "start": 86.2059,
      "duration": 0.3795,
      "velocity": 117,
      "chip": "ym2612"
    },
    {
      "channel": 3,
      "note": 79,
      "start": 86.2066,
      "duration": 0.2013,
      "velocity": 127,
      "chip": "ym2612"
    },
    {
      "channel": 3,
      "note": 79,
      "start": 86.408,
      "duration": 0.1796,
      "velocity": 121,
      "chip": "ym2612"
    },
    {
      "channel": 4,
      "note": 58,
      "start": 86.4086,
      "duration": 0.7217,
      "velocity": 99,
      "chip": "ym2612"
    },
    {
      "channel": 1,
      "note": 50,
      "start": 86.5856,
      "duration": 0.542,
      "velocity": 117,
      "chip": "ym2612"
    },
    {
      "channel": 3,
      "note": 79,
      "start": 86.5878,
      "duration": 0.185,
      "velocity": 121,
      "chip": "ym2612"
    },
    {
      "channel": 3,
      "note": 79,
      "start": 86.773,
      "duration": 0.0866,
      "velocity": 121,
      "chip": "ym2612"
    },
    {
      "channel": 3,
      "note": 79,
      "start": 86.8598,
      "duration": 0.0932,
      "velocity": 127,
      "chip": "ym2612"
    },
    {
      "channel": 3,
      "note": 79,
      "start": 86.9531,
      "duration": 0.1767,
      "velocity": 121,
      "chip": "ym2612"
    },
    {
      "channel": 1,
      "note": 65,
      "start": 87.1278,
      "duration": 0.2796,
      "velocity": 117,
      "chip": "ym2612"
    },
    {
      "channel": 3,
      "note": 79,
      "start": 87.13,
      "duration": 0.1772,
      "velocity": 121,
      "chip": "ym2612"
    },
    {
      "channel": 4,
      "note": 59,
      "start": 87.1305,
      "duration": 0.7411,
      "velocity": 99,
      "chip": "ym2612"
    },
    {
      "channel": 3,
      "note": 79,
      "start": 87.3073,
      "duration": 0.2005,
      "velocity": 121,
      "chip": "ym2612"
    },
    {
      "channel": 1,
      "note": 64,
      "start": 87.4075,
      "duration": 0.2759,
      "velocity": 117,
      "chip": "ym2612"
    },
    {
      "channel": 3,
      "note": 79,
      "start": 87.508,
      "duration": 0.1776,
      "velocity": 127,
      "chip": "ym2612"
    },
    {
      "channel": 1,
      "note": 62,
      "start": 87.6835,
      "duration": 0.3659,
      "velocity": 117,
      "chip": "ym2612"
    },
    {
      "channel": 3,
      "note": 79,
      "start": 87.6857,
      "duration": 0.1853,
      "velocity": 121,
      "chip": "ym2612"
    },
    {
      "channel": 3,
      "note": 79,
      "start": 87.8712,
      "duration": 0.086,
      "velocity": 121,
      "chip": "ym2612"
    },
    {
      "channel": 4,
      "note": 58,
      "start": 87.8718,
      "duration": 1.0837,
      "velocity": 104,
      "chip": "ym2612"
    },
    {
      "channel": 3,
      "note": 79,
      "start": 87.9574,
      "duration": 0.0942,
      "velocity": 127,
      "chip": "ym2612"
    },
    {
      "channel": 1,
      "note": 53,
      "start": 88.0495,
      "duration": 0.1794,
      "velocity": 117,
      "chip": "ym2612"
    },
    {
      "channel": 3,
      "note": 79,
      "start": 88.0518,
      "duration": 0.1793,
      "velocity": 121,
      "chip": "ym2612"
    },
    {
      "channel": 1,
      "note": 52,
      "start": 88.229,
      "duration": 0.1702,
      "velocity": 117,
      "chip": "ym2612"
    },
    {
      "channel": 3,
      "note": 79,
      "start": 88.2313,
      "duration": 0.1702,
      "velocity": 127,
      "chip": "ym2612"
    },
    {
      "channel": 0,
      "note": 55,
      "start": 88.3989,
      "duration": 0.1753,
      "velocity": 99,
      "chip": "ym2612"
    },
    {
      "channel": 1,
      "note": 50,
      "start": 88.3995,
      "duration": 0.1753,
      "velocity": 117,
      "chip": "ym2612"
    },
    {
      "channel": 3,
      "note": 79,
      "start": 88.4016,
      "duration": 0.1774,
      "velocity": 121,
      "chip": "ym2612"
    },
    {
      "channel": 0,
      "note": 57,
      "start": 88.5743,
      "duration": 0.7546,
      "velocity": 99,
      "chip": "ym2612"
    },
    {
      "channel": 1,
      "note": 50,
      "start": 88.5749,
      "duration": 0.1754,
      "velocity": 117,
      "chip": "ym2612"
    },
    {
      "channel": 2,
      "note": 38,
      "start": 88.5771,
      "duration": 0.1738,
      "velocity": 106,
      "chip": "ym2612"
    },
    {
      "channel": 3,
      "note": 79,
      "start": 88.5792,
      "duration": 0.1738,
      "velocity": 127,
      "chip": "ym2612"
    },
    {
      "channel": 1,
      "note": 50,
      "start": 88.7505,
      "duration": 0.2001,
      "velocity": 117,
      "chip": "ym2612"
    },
    {
      "channel": 2,
      "note": 40,
      "start": 88.751,
      "duration": 0.0989,
      "velocity": 106,
      "chip": "ym2612"
    },
    {
      "channel": 3,
      "note": 79,
      "start": 88.7532,
      "duration": 0.2001,
      "velocity": 121,
      "chip": "ym2612"
    },
    {
      "channel": 2,
      "note": 40,
      "start": 88.8501,
      "duration": 0.101,
      "velocity": 106,
      "chip": "ym2612"
    },
    {
      "channel": 1,
      "note": 52,
      "start": 88.9507,
      "duration": 0.1782,
      "velocity": 117,
      "chip": "ym2612"
    },
    {
      "channel": 2,
      "note": 40,
      "start": 88.9513,
      "duration": 0.1782,
      "velocity": 106,
      "chip": "ym2612"
    },
    {
      "channel": 3,
      "note": 79,
      "start": 88.9535,
      "duration": 0.1766,
      "velocity": 121,
      "chip": "ym2612"
    },
    {
      "channel": 4,
      "note": 62,
      "start": 88.9556,
      "duration": 0.7467,
      "velocity": 104,
      "chip": "ym2612"
    },
    {
      "channel": 1,
      "note": 53,
      "start": 89.1291,
      "duration": 0.382,
      "velocity": 117,
      "chip": "ym2612"
    },
    {
      "channel": 2,
      "note": 40,
      "start": 89.1297,
      "duration": 0.3819,
      "velocity": 106,
      "chip": "ym2612"
    },
    {
      "channel": 3,
      "note": 79,
      "start": 89.1302,
      "duration": 0.201,
      "velocity": 127,
      "chip": "ym2612"
    },
    {
      "channel": 0,
      "note": 58,
      "start": 89.3291,
      "duration": 0.7305,
      "velocity": 99,
      "chip": "ym2612"
    },
    {
      "channel": 3,
      "note": 79,
      "start": 89.3314,
      "duration": 0.1824,
      "velocity": 121,
      "chip": "ym2612"
    },
    {
      "channel": 1,
      "note": 53,
      "start": 89.5113,
      "duration": 0.1893,
      "velocity": 117,
      "chip": "ym2612"
    },
    {
      "channel": 2,
      "note": 38,
      "start": 89.5118,
      "duration": 0.1893,
      "velocity": 106,
      "chip": "ym2612"
    },
    {
      "channel": 3,
      "note": 79,
      "start": 89.5139,
      "duration": 0.1877,
      "velocity": 121,
      "chip": "ym2612"
    },
    {
      "channel": 1,
      "note": 55,
      "start": 89.7007,
      "duration": 0.1838,
      "velocity": 117,
      "chip": "ym2612"
    },
    {
      "channel": 2,
      "note": 38,
      "start": 89.7013,
      "duration": 0.1838,
      "velocity": 106,
      "chip": "ym2612"
    },
    {
      "channel": 3,
      "note": 79,
      "start": 89.7019,
      "duration": 0.09,
      "velocity": 121,
      "chip": "ym2612"
    },
    {
      "channel": 4,
      "note": 62,
      "start": 89.7024,
      "duration": 0.7383,
      "velocity": 104,
      "chip": "ym2612"
    },
    {
      "channel": 3,
      "note": 79,
      "start": 89.7921,
      "duration": 0.0951,
      "velocity": 127,
      "chip": "ym2612"
    },
    {
      "channel": 1,
      "note": 57,
      "start": 89.8847,
      "duration": 0.3537,
      "velocity": 117,
      "chip": "ym2612"
    },
    {
      "channel": 2,
      "note": 38,
      "start": 89.8852,
      "duration": 0.175,
      "velocity": 106,
      "chip": "ym2612"
    },
    {
      "channel": 3,
      "note": 79,
      "start": 89.8874,
      "duration": 0.175,
      "velocity": 121,
      "chip": "ym2612"
    },
    {
      "channel": 0,
      "note": 59,
      "start": 90.0598,
      "duration": 0.7595,
      "velocity": 99,
      "chip": "ym2612"
    },
    {
      "channel": 2,
      "note": 38,
      "start": 90.0604,
      "duration": 0.1785,
      "velocity": 106,
      "chip": "ym2612"
    },
    {
      "channel": 3,
      "note": 79,
      "start": 90.0626,
      "duration": 0.177,
      "velocity": 121,
      "chip": "ym2612"
    },
    {
      "channel": 1,
      "note": 62,
      "start": 90.2386,
      "duration": 0.2005,
      "velocity": 117,
      "chip": "ym2612"
    },
    {
      "channel": 2,
      "note": 41,
      "start": 90.2392,
      "duration": 0.0993,
      "velocity": 106,
      "chip": "ym2612"
    },
    {
      "channel": 3,
      "note": 79,
      "start": 90.2397,
      "duration": 0.2004,
      "velocity": 121,
      "chip": "ym2612"
    },
    {
      "channel": 2,
      "note": 41,
      "start": 90.3386,
      "duration": 0.101,
      "velocity": 106,
      "chip": "ym2612"
    },
    {
      "channel": 1,
      "note": 57,
      "start": 90.4393,
      "duration": 0.0872,
      "velocity": 117,
      "chip": "ym2612"
    },
    {
      "channel": 2,
      "note": 41,
      "start": 90.4398,
      "duration": 0.1793,
      "velocity": 106,
      "chip": "ym2612"
    },
    {
      "channel": 3,
      "note": 79,
      "start": 90.4404,
      "duration": 0.1808,
      "velocity": 127,
      "chip": "ym2612"
    },
    {
      "channel": 4,
      "note": 62,
      "start": 90.4409,
      "duration": 0.7381,
      "velocity": 104,
      "chip": "ym2612"
    },
    {
      "channel": 1,
      "note": 53,
      "start": 90.5266,
      "duration": 0.1924,
      "velocity": 117,
      "chip": "ym2612"
    },
    {
      "channel": 2,
      "note": 41,
      "start": 90.6193,
      "duration": 0.3789,
      "velocity": 106,
      "chip": "ym2612"
    },
    {
      "channel": 3,
      "note": 79,
      "start": 90.6214,
      "duration": 0.2002,
      "velocity": 121,
      "chip": "ym2612"
    },
    {
      "channel": 1,
      "note": 52,
      "start": 90.7192,
      "duration": 0.189,
      "velocity": 117,
      "chip": "ym2612"
    },
    {
      "channel": 0,
      "note": 58,
      "start": 90.8195,
      "duration": 0.7142,
      "velocity": 99,
      "chip": "ym2612"
    },
    {
      "channel": 3,
      "note": 79,
      "start": 90.8217,
      "duration": 0.177,
      "velocity": 121,
      "chip": "ym2612"
    },
    {
      "channel": 1,
      "note": 52,
      "start": 90.9083,
      "duration": 0.0894,
      "velocity": 117,
      "chip": "ym2612"
    },
    {
      "channel": 1,
      "note": 53,
      "start": 90.9978,
      "duration": 0.1801,
      "velocity": 117,
      "chip": "ym2612"
    },
    {
      "channel": 2,
      "note": 40,
      "start": 90.9984,
      "duration": 0.18,
      "velocity": 106,
      "chip": "ym2612"
    },
    {
      "channel": 3,
      "note": 79,
      "start": 90.999,
      "duration": 0.0879,
      "velocity": 127,
      "chip": "ym2612"
    },
    {
      "channel": 3,
      "note": 79,
      "start": 91.087,
      "duration": 0.18,
      "velocity": 121,
      "chip": "ym2612"
    },
    {
      "channel": 1,
      "note": 52,
      "start": 91.178,
      "duration": 0.1793,
      "velocity": 117,
      "chip": "ym2612"
    },
    {
      "channel": 2,
      "note": 40,
      "start": 91.1786,
      "duration": 0.1793,
      "velocity": 106,
      "chip": "ym2612"
    },
    {
      "channel": 4,
      "note": 62,
      "start": 91.1792,
      "duration": 0.739,
      "velocity": 104,
      "chip": "ym2612"
    },
    {
      "channel": 3,
      "note": 79,
      "start": 91.2673,
      "duration": 0.0912,
      "velocity": 121,
      "chip": "ym2612"
    },
    {
      "channel": 1,
      "note": 50,
      "start": 91.3575,
      "duration": 0.1766,
      "velocity": 117,
      "chip": "ym2612"
    },
    {
      "channel": 2,
      "note": 40,
      "start": 91.3581,
      "duration": 0.1766,
      "velocity": 106,
      "chip": "ym2612"
    },
    {
      "channel": 3,
      "note": 79,
      "start": 91.3587,
      "duration": 0.1766,
      "velocity": 121,
      "chip": "ym2612"
    },
    {
      "channel": 0,
      "note": 57,
      "start": 91.5338,
      "duration": 0.7581,
      "velocity": 99,
      "chip": "ym2612"
    },
    {
      "channel": 1,
      "note": 62,
      "start": 91.5344,
      "duration": 0.18,
      "velocity": 117,
      "chip": "ym2612"
    },
    {
      "channel": 2,
      "note": 38,
      "start": 91.5349,
      "duration": 0.18,
      "velocity": 106,
      "chip": "ym2612"
    },
    {
      "channel": 3,
      "note": 79,
      "start": 91.5354,
      "duration": 0.1816,
      "velocity": 127,
      "chip": "ym2612"
    },
    {
      "channel": 1,
      "note": 57,
      "start": 91.7145,
      "duration": 0.2005,
      "velocity": 117,
      "chip": "ym2612"
    },
    {
      "channel": 2,
      "note": 40,
      "start": 91.715,
      "duration": 0.0994,
      "velocity": 106,
      "chip": "ym2612"
    },
    {
      "channel": 3,
      "note": 79,
      "start": 91.7172,
      "duration": 0.2005,
      "velocity": 121,
      "chip": "ym2612"
    },
    {
      "channel": 2,
      "note": 40,
      "start": 91.8146,
      "duration": 0.101,
      "velocity": 106,
      "chip": "ym2612"
    },
    {
      "channel": 1,
      "note": 53,
      "start": 91.9151,
      "duration": 0.1768,
      "velocity": 117,
      "chip": "ym2612"
    },
    {
      "channel": 2,
      "note": 40,
      "start": 91.9157,
      "duration": 0.1768,
      "velocity": 106,
      "chip": "ym2612"
    },
    {
      "channel": 3,
      "note": 79,
      "start": 91.9179,
      "duration": 0.1752,
      "velocity": 121,
      "chip": "ym2612"
    },
    {
      "channel": 4,
      "note": 62,
      "start": 91.9184,
      "duration": 0.7468,
      "velocity": 104,
      "chip": "ym2612"
    },
    {
      "channel": 1,
      "note": 50,
      "start": 92.0921,
      "duration": 0.382,
      "velocity": 117,
      "chip": "ym2612"
    },
    {
      "channel": 2,
      "note": 40,
      "start": 92.0927,
      "duration": 0.3819,
      "velocity": 106,
      "chip": "ym2612"
    },
    {
      "channel": 3,
      "note": 79,
      "start": 92.0932,
      "duration": 0.201,
      "velocity": 127,
      "chip": "ym2612"
    },
    {
      "channel": 0,
      "note": 58,
      "start": 92.2921,
      "duration": 0.7305,
      "velocity": 99,
      "chip": "ym2612"
    },
    {
      "channel": 3,
      "note": 79,
      "start": 92.2943,
      "duration": 0.1824,
      "velocity": 121,
      "chip": "ym2612"
    },
    {
      "channel": 1,
      "note": 50,
      "start": 92.4742,
      "duration": 0.1893,
      "velocity": 117,
      "chip": "ym2612"
    },
    {
      "channel": 2,
      "note": 38,
      "start": 92.4748,
      "duration": 0.1893,
      "velocity": 106,
      "chip": "ym2612"
    },
    {
      "channel": 3,
      "note": 79,
      "start": 92.4769,
      "duration": 0.1877,
      "velocity": 121,
      "chip": "ym2612"
    },
    {
      "channel": 1,
      "note": 52,
      "start": 92.6637,
      "duration": 0.1838,
      "velocity": 117,
      "chip": "ym2612"
    },
    {
      "channel": 2,
      "note": 38,
      "start": 92.6643,
      "duration": 0.1838,
      "velocity": 106,
      "chip": "ym2612"
    },
    {
      "channel": 3,
      "note": 79,
      "start": 92.6649,
      "duration": 0.09,
      "velocity": 121,
      "chip": "ym2612"
    },
    {
      "channel": 4,
      "note": 62,
      "start": 92.6654,
      "duration": 0.7383,
      "velocity": 104,
      "chip": "ym2612"
    },
    {
      "channel": 3,
      "note": 79,
      "start": 92.7551,
      "duration": 0.0951,
      "velocity": 127,
      "chip": "ym2612"
    },
    {
      "channel": 1,
      "note": 53,
      "start": 92.8477,
      "duration": 0.3537,
      "velocity": 117,
      "chip": "ym2612"
    },
    {
      "channel": 2,
      "note": 38,
      "start": 92.8482,
      "duration": 0.175,
      "velocity": 106,
      "chip": "ym2612"
    },
    {
      "channel": 3,
      "note": 79,
      "start": 92.8504,
      "duration": 0.175,
      "velocity": 121,
      "chip": "ym2612"
    },
    {
      "channel": 0,
      "note": 59,
      "start": 93.0228,
      "duration": 0.7432,
      "velocity": 99,
      "chip": "ym2612"
    },
    {
      "channel": 2,
      "note": 38,
      "start": 93.0234,
      "duration": 0.1785,
      "velocity": 106,
      "chip": "ym2612"
    },
    {
      "channel": 3,
      "note": 79,
      "start": 93.0255,
      "duration": 0.177,
      "velocity": 121,
      "chip": "ym2612"
    },
    {
      "channel": 1,
      "note": 52,
      "start": 93.2015,
      "duration": 0.2005,
      "velocity": 117,
      "chip": "ym2612"
    },
    {
      "channel": 2,
      "note": 41,
      "start": 93.2021,
      "duration": 0.0993,
      "velocity": 106,
      "chip": "ym2612"
    },
    {
      "channel": 3,
      "note": 79,
      "start": 93.2027,
      "duration": 0.2004,
      "velocity": 121,
      "chip": "ym2612"
    },
    {
      "channel": 2,
      "note": 41,
      "start": 93.3016,
      "duration": 0.101,
      "velocity": 106,
      "chip": "ym2612"
    },
    {
      "channel": 1,
      "note": 50,
      "start": 93.4022,
      "duration": 0.1749,
      "velocity": 117,
      "chip": "ym2612"
    },
    {
      "channel": 2,
      "note": 41,
      "start": 93.4028,
      "duration": 0.1749,
      "velocity": 106,
      "chip": "ym2612"
    },
    {
      "channel": 3,
      "note": 79,
      "start": 93.4033,
      "duration": 0.1765,
      "velocity": 127,
      "chip": "ym2612"
    },
    {
      "channel": 4,
      "note": 62,
      "start": 93.4039,
      "duration": 0.7307,
      "velocity": 104,
      "chip": "ym2612"
    },
    {
      "channel": 1,
      "note": 57,
      "start": 93.5773,
      "duration": 0.3729,
      "velocity": 117,
      "chip": "ym2612"
    },
    {
      "channel": 2,
      "note": 41,
      "start": 93.5778,
      "duration": 0.3729,
      "velocity": 106,
      "chip": "ym2612"
    },
    {
      "channel": 3,
      "note": 79,
      "start": 93.58,
      "duration": 0.1883,
      "velocity": 121,
      "chip": "ym2612"
    },
    {
      "channel": 0,
      "note": 58,
      "start": 93.7662,
      "duration": 0.724,
      "velocity": 99,
      "chip": "ym2612"
    },
    {
      "channel": 3,
      "note": 79,
      "start": 93.7684,
      "duration": 0.0938,
      "velocity": 121,
      "chip": "ym2612"
    },
    {
      "channel": 3,
      "note": 79,
      "start": 93.8623,
      "duration": 0.0905,
      "velocity": 127,
      "chip": "ym2612"
    },
    {
      "channel": 1,
      "note": 57,
      "start": 93.9503,
      "duration": 0.1811,
      "velocity": 117,
      "chip": "ym2612"
    },
    {
      "channel": 2,
      "note": 40,
      "start": 93.9509,
      "duration": 0.181,
      "velocity": 106,
      "chip": "ym2612"
    },
    {
      "channel": 3,
      "note": 79,
      "start": 93.9531,
      "duration": 0.181,
      "velocity": 121,
      "chip": "ym2612"
    },
    {
      "channel": 1,
      "note": 45,
      "start": 94.1315,
      "duration": 0.3593,
      "velocity": 117,
      "chip": "ym2612"
    },
    {
      "channel": 2,
      "note": 40,
      "start": 94.1321,
      "duration": 0.1774,
      "velocity": 106,
      "chip": "ym2612"
    },
    {
      "channel": 3,
      "note": 79,
      "start": 94.1342,
      "duration": 0.1775,
      "velocity": 127,
      "chip": "ym2612"
    },
    {
      "channel": 4,
      "note": 62,
      "start": 94.1348,
      "duration": 0.7405,
      "velocity": 104,
      "chip": "ym2612"
    },
    {
      "channel": 2,
      "note": 40,
      "start": 94.3098,
      "duration": 0.1816,
      "velocity": 106,
      "chip": "ym2612"
    },
    {
      "channel": 3,
      "note": 79,
      "start": 94.3119,
      "duration": 0.1817,
      "velocity": 121,
      "chip": "ym2612"
    },
    {
      "channel": 0,
      "note": 57,
      "start": 94.4904,
      "duration": 0.7624,
      "velocity": 99,
      "chip": "ym2612"
    },
    {
      "channel": 1,
      "note": 50,
      "start": 94.491,
      "duration": 0.1807,
      "velocity": 117,
      "chip": "ym2612"
    },
    {
      "channel": 2,
      "note": 38,
      "start": 94.4916,
      "duration": 0.1806,
      "velocity": 106,
      "chip": "ym2612"
    },
    {
      "channel": 3,
      "note": 79,
      "start": 94.4938,
      "duration": 0.1806,
      "velocity": 127,
      "chip": "ym2612"
    },
    {
      "channel": 1,
      "note": 50,
      "start": 94.6719,
      "duration": 0.2001,
      "velocity": 117,
      "chip": "ym2612"
    },
    {
      "channel": 2,
      "note": 40,
      "start": 94.6724,
      "duration": 0.0989,
      "velocity": 106,
      "chip": "ym2612"
    },
    {
      "channel": 3,
      "note": 79,
      "start": 94.6745,
      "duration": 0.2001,
      "velocity": 121,
      "chip": "ym2612"
    },
    {
      "channel": 2,
      "note": 40,
      "start": 94.7715,
      "duration": 0.101,
      "velocity": 106,
      "chip": "ym2612"
    },
    {
      "channel": 1,
      "note": 52,
      "start": 94.872,
      "duration": 0.1807,
      "velocity": 117,
      "chip": "ym2612"
    },
    {
      "channel": 2,
      "note": 40,
      "start": 94.8726,
      "duration": 0.1807,
      "velocity": 106,
      "chip": "ym2612"
    },
    {
      "channel": 3,
      "note": 79,
      "start": 94.8748,
      "duration": 0.1791,
      "velocity": 121,
      "chip": "ym2612"
    },
    {
      "channel": 4,
      "note": 62,
      "start": 94.8754,
      "duration": 0.7491,
      "velocity": 104,
      "chip": "ym2612"
    },
    {
      "channel": 1,
      "note": 53,
      "start": 95.0529,
      "duration": 0.3802,
      "velocity": 117,
      "chip": "ym2612"
    },
    {
      "channel": 2,
      "note": 40,
      "start": 95.0535,
      "duration": 0.3801,
      "velocity": 106,
      "chip": "ym2612"
    },
    {
      "channel": 3,
      "note": 79,
      "start": 95.0541,
      "duration": 0.201,
      "velocity": 127,
      "chip": "ym2612"
    },
    {
      "channel": 0,
      "note": 58,
      "start": 95.253,
      "duration": 0.7339,
      "velocity": 99,
      "chip": "ym2612"
    },
    {
      "channel": 3,
      "note": 79,
      "start": 95.2552,
      "duration": 0.1805,
      "velocity": 121,
      "chip": "ym2612"
    },
    {
      "channel": 1,
      "note": 53,
      "start": 95.4332,
      "duration": 0.1002,
      "velocity": 117,
      "chip": "ym2612"
    },
    {
      "channel": 2,
      "note": 38,
      "start": 95.4338,
      "duration": 0.1896,
      "velocity": 106,
      "chip": "ym2612"
    },
    {
      "channel": 3,
      "note": 79,
      "start": 95.4359,
      "duration": 0.1881,
      "velocity": 121,
      "chip": "ym2612"
    },
    {
      "channel": 1,
      "note": 53,
      "start": 95.5335,
      "duration": 0.0893,
      "velocity": 117,
      "chip": "ym2612"
    },
    {
      "channel": 1,
      "note": 52,
      "start": 95.623,
      "duration": 0.0858,
      "velocity": 117,
      "chip": "ym2612"
    },
    {
      "channel": 2,
      "note": 38,
      "start": 95.6236,
      "duration": 0.1771,
      "velocity": 106,
      "chip": "ym2612"
    },
    {
      "channel": 3,
      "note": 79,
      "start": 95.6241,
      "duration": 0.0853,
      "velocity": 121,
      "chip": "ym2612"
    },
    {
      "channel": 4,
      "note": 62,
      "start": 95.6247,
      "duration": 0.7444,
      "velocity": 104,
      "chip": "ym2612"
    },
    {
      "channel": 1,
      "note": 50,
      "start": 95.709,
      "duration": 0.182,
      "velocity": 117,
      "chip": "ym2612"
    },
    {
      "channel": 3,
      "note": 79,
      "start": 95.7095,
      "duration": 0.0932,
      "velocity": 127,
      "chip": "ym2612"
    },
    {
      "channel": 2,
      "note": 38,
      "start": 95.8009,
      "duration": 0.1866,
      "velocity": 106,
      "chip": "ym2612"
    },
    {
      "channel": 3,
      "note": 79,
      "start": 95.8029,
      "duration": 0.1866,
      "velocity": 121,
      "chip": "ym2612"
    },
    {
      "channel": 1,
      "note": 57,
      "start": 95.8912,
      "duration": 0.2756,
      "velocity": 117,
      "chip": "ym2612"
    },
    {
      "channel": 0,
      "note": 59,
      "start": 95.987,
      "duration": 0.7555,
      "velocity": 99,
      "chip": "ym2612"
    },
    {
      "channel": 2,
      "note": 38,
      "start": 95.9876,
      "duration": 0.1797,
      "velocity": 106,
      "chip": "ym2612"
    },
    {
      "channel": 3,
      "note": 79,
      "start": 95.9898,
      "duration": 0.178,
      "velocity": 121,
      "chip": "ym2612"
    },
    {
      "channel": 1,
      "note": 53,
      "start": 96.1669,
      "duration": 0.2005,
      "velocity": 117,
      "chip": "ym2612"
    },
    {
      "channel": 2,
      "note": 41,
      "start": 96.1675,
      "duration": 0.0993,
      "velocity": 106,
      "chip": "ym2612"
    },
    {
      "channel": 3,
      "note": 79,
      "start": 96.168,
      "duration": 0.2004,
      "velocity": 121,
      "chip": "ym2612"
    },
    {
      "channel": 2,
      "note": 41,
      "start": 96.2669,
      "duration": 0.101,
      "velocity": 106,
      "chip": "ym2612"
    },
    {
      "channel": 1,
      "note": 52,
      "start": 96.3676,
      "duration": 0.1749,
      "velocity": 117,
      "chip": "ym2612"
    },
    {
      "channel": 2,
      "note": 41,
      "start": 96.3681,
      "duration": 0.1749,
      "velocity": 106,
      "chip": "ym2612"
    },
    {
      "channel": 3,
      "note": 79,
      "start": 96.3687,
      "duration": 0.1765,
      "velocity": 127,
      "chip": "ym2612"
    },
    {
      "channel": 4,
      "note": 62,
      "start": 96.3692,
      "duration": 0.7375,
      "velocity": 104,
      "chip": "ym2612"
    },
    {
      "channel": 1,
      "note": 50,
      "start": 96.5426,
      "duration": 0.3814,
      "velocity": 117,
      "chip": "ym2612"
    },
    {
      "channel": 2,
      "note": 41,
      "start": 96.5432,
      "duration": 0.3814,
      "velocity": 106,
      "chip": "ym2612"
    },
    {
      "channel": 3,
      "note": 79,
      "start": 96.5453,
      "duration": 0.1994,
      "velocity": 121,
      "chip": "ym2612"
    },
    {
      "channel": 0,
      "note": 58,
      "start": 96.7426,
      "duration": 0.7238,
      "velocity": 99,
      "chip": "ym2612"
    },
    {
      "channel": 3,
      "note": 79,
      "start": 96.7449,
      "duration": 0.1803,
      "velocity": 121,
      "chip": "ym2612"
    },
    {
      "channel": 1,
      "note": 45,
      "start": 96.9242,
      "duration": 0.1814,
      "velocity": 117,
      "chip": "ym2612"
    },
    {
      "channel": 2,
      "note": 40,
      "start": 96.9248,
      "duration": 0.1813,
      "velocity": 106,
      "chip": "ym2612"
    },
    {
      "channel": 3,
      "note": 79,
      "start": 96.9254,
      "duration": 0.0873,
      "velocity": 127,
      "chip": "ym2612"
    },
    {
      "channel": 3,
      "note": 79,
      "start": 97.0129,
      "duration": 0.1823,
      "velocity": 121,
      "chip": "ym2612"
    },
    {
      "channel": 1,
      "note": 53,
      "start": 97.1057,
      "duration": 0.1796,
      "velocity": 117,
      "chip": "ym2612"
    },
    {
      "channel": 2,
      "note": 39,
      "start": 97.1063,
      "duration": 0.1796,
      "velocity": 106,
      "chip": "ym2612"
    },
    {
      "channel": 4,
      "note": 62,
      "start": 97.1069,
      "duration": 0.7441,
      "velocity": 104,
      "chip": "ym2612"
    },
    {
      "channel": 3,
      "note": 79,
      "start": 97.1954,
      "duration": 0.091,
      "velocity": 121,
      "chip": "ym2612"
    },
    {
      "channel": 1,
      "note": 52,
      "start": 97.2855,
      "duration": 0.1814,
      "velocity": 117,
      "chip": "ym2612"
    },
    {
      "channel": 2,
      "note": 38,
      "start": 97.286,
      "duration": 0.183,
      "velocity": 106,
      "chip": "ym2612"
    },
    {
      "channel": 3,
      "note": 79,
      "start": 97.2866,
      "duration": 0.183,
      "velocity": 121,
      "chip": "ym2612"
    },
    {
      "channel": 0,
      "note": 57,
      "start": 97.4665,
      "duration": 0.759,
      "velocity": 99,
      "chip": "ym2612"
    },
    {
      "channel": 1,
      "note": 50,
      "start": 97.4671,
      "duration": 0.5584,
      "velocity": 117,
      "chip": "ym2612"
    },
    {
      "channel": 2,
      "note": 49,
      "start": 97.4692,
      "duration": 0.1793,
      "velocity": 106,
      "chip": "ym2612"
    },
    {
      "channel": 3,
      "note": 79,
      "start": 97.4698,
      "duration": 0.1808,
      "velocity": 127,
      "chip": "ym2612"
    },
    {
      "channel": 2,
      "note": 48,
      "start": 97.6486,
      "duration": 0.9458,
      "velocity": 106,
      "chip": "ym2612"
    },
    {
      "channel": 3,
      "note": 79,
      "start": 97.6508,
      "duration": 0.1997,
      "velocity": 121,
      "chip": "ym2612"
    },
    {
      "channel": 3,
      "note": 79,
      "start": 97.8507,
      "duration": 0.177,
      "velocity": 121,
      "chip": "ym2612"
    },
    {
      "channel": 4,
      "note": 62,
      "start": 97.8512,
      "duration": 0.7442,
      "velocity": 104,
      "chip": "ym2612"
    },
    {
      "channel": 1,
      "note": 50,
      "start": 98.0256,
      "duration": 0.3792,
      "velocity": 117,
      "chip": "ym2612"
    },
    {
      "channel": 3,
      "note": 79,
      "start": 98.0278,
      "duration": 0.1999,
      "velocity": 127,
      "chip": "ym2612"
    },
    {
      "channel": 0,
      "note": 58,
      "start": 98.2256,
      "duration": 0.7334,
      "velocity": 99,
      "chip": "ym2612"
    },
    {
      "channel": 3,
      "note": 79,
      "start": 98.2279,
      "duration": 0.1791,
      "velocity": 121,
      "chip": "ym2612"
    },
    {
      "channel": 1,
      "note": 50,
      "start": 98.4049,
      "duration": 0.5546,
      "velocity": 117,
      "chip": "ym2612"
    },
    {
      "channel": 3,
      "note": 79,
      "start": 98.4072,
      "duration": 0.1877,
      "velocity": 121,
      "chip": "ym2612"
    },
    {
      "channel": 2,
      "note": 45,
      "start": 98.5945,
      "duration": 0.1788,
      "velocity": 106,
      "chip": "ym2612"
    },
    {
      "channel": 3,
      "note": 79,
      "start": 98.5951,
      "duration": 0.0899,
      "velocity": 121,
      "chip": "ym2612"
    },
    {
      "channel": 4,
      "note": 62,
      "start": 98.5956,
      "duration": 0.7468,
      "velocity": 104,
      "chip": "ym2612"
    },
    {
      "channel": 3,
      "note": 79,
      "start": 98.6851,
      "duration": 0.0903,
      "velocity": 127,
      "chip": "ym2612"
    },
    {
      "channel": 2,
      "note": 43,
      "start": 98.7735,
      "duration": 0.1866,
      "velocity": 106,
      "chip": "ym2612"
    },
    {
      "channel": 3,
      "note": 79,
      "start": 98.7756,
      "duration": 0.1866,
      "velocity": 121,
      "chip": "ym2612"
    },
    {
      "channel": 0,
      "note": 59,
      "start": 98.9592,
      "duration": 0.7452,
      "velocity": 99,
      "chip": "ym2612"
    },
    {
      "channel": 1,
      "note": 65,
      "start": 98.9597,
      "duration": 0.2795,
      "velocity": 117,
      "chip": "ym2612"
    },
    {
      "channel": 2,
      "note": 45,
      "start": 98.9602,
      "duration": 1.4666,
      "velocity": 106,
      "chip": "ym2612"
    },
    {
      "channel": 3,
      "note": 79,
      "start": 98.9624,
      "duration": 0.1766,
      "velocity": 121,
      "chip": "ym2612"
    },
    {
      "channel": 3,
      "note": 79,
      "start": 99.1392,
      "duration": 0.2027,
      "velocity": 121,
      "chip": "ym2612"
    },
    {
      "channel": 1,
      "note": 64,
      "start": 99.2394,
      "duration": 0.2778,
      "velocity": 117,
      "chip": "ym2612"
    },
    {
      "channel": 3,
      "note": 79,
      "start": 99.342,
      "duration": 0.1773,
      "velocity": 127,
      "chip": "ym2612"
    },
    {
      "channel": 4,
      "note": 62,
      "start": 99.3426,
      "duration": 0.7288,
      "velocity": 104,
      "chip": "ym2612"
    },
    {
      "channel": 1,
      "note": 62,
      "start": 99.5173,
      "duration": 0.3682,
      "velocity": 117,
      "chip": "ym2612"
    },
    {
      "channel": 3,
      "note": 79,
      "start": 99.5195,
      "duration": 0.1871,
      "velocity": 121,
      "chip": "ym2612"
    },
    {
      "channel": 0,
      "note": 58,
      "start": 99.7046,
      "duration": 0.7195,
      "velocity": 99,
      "chip": "ym2612"
    },
    {
      "channel": 3,
      "note": 79,
      "start": 99.7068,
      "duration": 0.0899,
      "velocity": 121,
      "chip": "ym2612"
    },
    {
      "channel": 3,
      "note": 79,
      "start": 99.7969,
      "duration": 0.0908,
      "velocity": 127,
      "chip": "ym2612"
    },
    {
      "channel": 1,
      "note": 53,
      "start": 99.8857,
      "duration": 0.183,
      "velocity": 117,
      "chip": "ym2612"
    },
    {
      "channel": 3,
      "note": 79,
      "start": 99.8879,
      "duration": 0.183,
      "velocity": 121,
      "chip": "ym2612"
    },
    {
      "channel": 1,
      "note": 52,
      "start": 100.0688,
      "duration": 0.174,
      "velocity": 117,
      "chip": "ym2612"
    },
    {
      "channel": 3,
      "note": 79,
      "start": 100.071,
      "duration": 0.174,
      "velocity": 127,
      "chip": "ym2612"
    },
    {
      "channel": 4,
      "note": 62,
      "start": 100.0716,
      "duration": 0.3595,
      "velocity": 102,
      "chip": "ym2612"
    },
    {
      "channel": 1,
      "note": 50,
      "start": 100.243,
      "duration": 0.1817,
      "velocity": 117,
      "chip": "ym2612"
    },
    {
      "channel": 3,
      "note": 79,
      "start": 100.2452,
      "duration": 0.1837,
      "velocity": 121,
      "chip": "ym2612"
    },
    {
      "channel": 0,
      "note": 57,
      "start": 100.4243,
      "duration": 0.7532,
      "velocity": 99,
      "chip": "ym2612"
    },
    {
      "channel": 1,
      "note": 50,
      "start": 100.4249,
      "duration": 0.18,
      "velocity": 117,
      "chip": "ym2612"
    },
    {
      "channel": 2,
      "note": 38,
      "start": 100.427,
      "duration": 0.1784,
      "velocity": 106,
      "chip": "ym2612"
    },
    {
      "channel": 3,
      "note": 79,
      "start": 100.4292,
      "duration": 0.1784,
      "velocity": 127,
      "chip": "ym2612"
    },
    {
      "channel": 4,
      "note": 62,
      "start": 100.4313,
      "duration": 0.1768,
      "velocity": 102,
      "chip": "ym2612"
    },
    {
      "channel": 1,
      "note": 50,
      "start": 100.6051,
      "duration": 0.1995,
      "velocity": 117,
      "chip": "ym2612"
    },
    {
      "channel": 2,
      "note": 40,
      "start": 100.6056,
      "duration": 0.099,
      "velocity": 106,
      "chip": "ym2612"
    },
    {
      "channel": 3,
      "note": 79,
      "start": 100.6077,
      "duration": 0.1995,
      "velocity": 121,
      "chip": "ym2612"
    },
    {
      "channel": 4,
      "note": 65,
      "start": 100.6083,
      "duration": 0.3708,
      "velocity": 102,
      "chip": "ym2612"
    },
    {
      "channel": 2,
      "note": 40,
      "start": 100.7048,
      "duration": 0.1003,
      "velocity": 106,
      "chip": "ym2612"
    },
    {
      "channel": 1,
      "note": 52,
      "start": 100.8047,
      "duration": 0.1727,
      "velocity": 117,
      "chip": "ym2612"
    },
    {
      "channel": 2,
      "note": 40,
      "start": 100.8053,
      "duration": 0.1728,
      "velocity": 106,
      "chip": "ym2612"
    },
    {
      "channel": 3,
      "note": 79,
      "start": 100.8074,
      "duration": 0.1712,
      "velocity": 121,
      "chip": "ym2612"
    },
    {
      "channel": 1,
      "note": 53,
      "start": 100.9776,
      "duration": 0.3787,
      "velocity": 117,
      "chip": "ym2612"
    },
    {
      "channel": 2,
      "note": 40,
      "start": 100.9782,
      "duration": 0.3788,
      "velocity": 106,
      "chip": "ym2612"
    },
    {
      "channel": 3,
      "note": 79,
      "start": 100.9787,
      "duration": 0.201,
      "velocity": 127,
      "chip": "ym2612"
    },
    {
      "channel": 4,
      "note": 73,
      "start": 100.9793,
      "duration": 0.201,
      "velocity": 102,
      "chip": "ym2612"
    },
    {
      "channel": 0,
      "note": 58,
      "start": 101.1776,
      "duration": 0.7217,
      "velocity": 99,
      "chip": "ym2612"
    },
    {
      "channel": 3,
      "note": 79,
      "start": 101.1799,
      "duration": 0.1792,
      "velocity": 121,
      "chip": "ym2612"
    },
    {
      "channel": 4,
      "note": 72,
      "start": 101.1805,
      "duration": 2.2071,
      "velocity": 102,
      "chip": "ym2612"
    },
    {
      "channel": 1,
      "note": 53,
      "start": 101.3565,
      "duration": 0.189,
      "velocity": 117,
      "chip": "ym2612"
    },
    {
      "channel": 2,
      "note": 38,
      "start": 101.3571,
      "duration": 0.189,
      "velocity": 106,
      "chip": "ym2612"
    },
    {
      "channel": 3,
      "note": 79,
      "start": 101.3592,
      "duration": 0.1873,
      "velocity": 121,
      "chip": "ym2612"
    },
    {
      "channel": 1,
      "note": 55,
      "start": 101.5457,
      "duration": 0.1782,
      "velocity": 117,
      "chip": "ym2612"
    },
    {
      "channel": 2,
      "note": 38,
      "start": 101.5462,
      "duration": 0.1783,
      "velocity": 106,
      "chip": "ym2612"
    },
    {
      "channel": 3,
      "note": 79,
      "start": 101.5468,
      "duration": 0.0877,
      "velocity": 121,
      "chip": "ym2612"
    },
    {
      "channel": 3,
      "note": 79,
      "start": 101.6346,
      "duration": 0.0919,
      "velocity": 127,
      "chip": "ym2612"
    },
    {
      "channel": 1,
      "note": 57,
      "start": 101.7241,
      "duration": 0.3519,
      "velocity": 117,
      "chip": "ym2612"
    },
    {
      "channel": 2,
      "note": 38,
      "start": 101.7246,
      "duration": 0.1753,
      "velocity": 106,
      "chip": "ym2612"
    },
    {
      "channel": 3,
      "note": 79,
      "start": 101.7267,
      "duration": 0.1753,
      "velocity": 121,
      "chip": "ym2612"
    },
    {
      "channel": 0,
      "note": 59,
      "start": 101.8994,
      "duration": 0.7545,
      "velocity": 99,
      "chip": "ym2612"
    },
    {
      "channel": 2,
      "note": 38,
      "start": 101.9001,
      "duration": 0.1765,
      "velocity": 106,
      "chip": "ym2612"
    },
    {
      "channel": 3,
      "note": 79,
      "start": 101.9022,
      "duration": 0.1749,
      "velocity": 121,
      "chip": "ym2612"
    },
    {
      "channel": 1,
      "note": 62,
      "start": 102.0761,
      "duration": 0.2002,
      "velocity": 117,
      "chip": "ym2612"
    },
    {
      "channel": 2,
      "note": 41,
      "start": 102.0767,
      "duration": 0.0993,
      "velocity": 106,
      "chip": "ym2612"
    },
    {
      "channel": 3,
      "note": 79,
      "start": 102.0772,
      "duration": 0.2002,
      "velocity": 121,
      "chip": "ym2612"
    },
    {
      "channel": 2,
      "note": 41,
      "start": 102.1762,
      "duration": 0.1006,
      "velocity": 106,
      "chip": "ym2612"
    },
    {
      "channel": 1,
      "note": 57,
      "start": 102.2765,
      "duration": 0.0868,
      "velocity": 117,
      "chip": "ym2612"
    },
    {
      "channel": 2,
      "note": 41,
      "start": 102.2771,
      "duration": 0.1766,
      "velocity": 106,
      "chip": "ym2612"
    },
    {
      "channel": 3,
      "note": 79,
      "start": 102.2776,
      "duration": 0.1782,
      "velocity": 127,
      "chip": "ym2612"
    },
    {
      "channel": 1,
      "note": 53,
      "start": 102.3635,
      "duration": 0.1902,
      "velocity": 117,
      "chip": "ym2612"
    },
    {
      "channel": 2,
      "note": 41,
      "start": 102.4538,
      "duration": 0.3783,
      "velocity": 106,
      "chip": "ym2612"
    },
    {
      "channel": 3,
      "note": 79,
      "start": 102.456,
      "duration": 0.2002,
      "velocity": 121,
      "chip": "ym2612"
    },
    {
      "channel": 1,
      "note": 52,
      "start": 102.5538,
      "duration": 0.1876,
      "velocity": 117,
      "chip": "ym2612"
    },
    {
      "channel": 0,
      "note": 58,
      "start": 102.6541,
      "duration": 0.7296,
      "velocity": 99,
      "chip": "ym2612"
    },
    {
      "channel": 3,
      "note": 79,
      "start": 102.6563,
      "duration": 0.1764,
      "velocity": 121,
      "chip": "ym2612"
    },
    {
      "channel": 1,
      "note": 52,
      "start": 102.7417,
      "duration": 0.09,
      "velocity": 117,
      "chip": "ym2612"
    },
    {
      "channel": 1,
      "note": 53,
      "start": 102.8318,
      "duration": 0.184,
      "velocity": 117,
      "chip": "ym2612"
    },
    {
      "channel": 2,
      "note": 40,
      "start": 102.8324,
      "duration": 0.1839,
      "velocity": 106,
      "chip": "ym2612"
    },
    {
      "channel": 3,
      "note": 79,
      "start": 102.8329,
      "duration": 0.0926,
      "velocity": 127,
      "chip": "ym2612"
    },
    {
      "channel": 3,
      "note": 79,
      "start": 102.9257,
      "duration": 0.1838,
      "velocity": 121,
      "chip": "ym2612"
    },
    {
      "channel": 1,
      "note": 52,
      "start": 103.0159,
      "duration": 0.1811,
      "velocity": 117,
      "chip": "ym2612"
    },
    {
      "channel": 2,
      "note": 40,
      "start": 103.0165,
      "duration": 0.1811,
      "velocity": 106,
      "chip": "ym2612"
    },
    {
      "channel": 3,
      "note": 79,
      "start": 103.1098,
      "duration": 0.0883,
      "velocity": 121,
      "chip": "ym2612"
    },
    {
      "channel": 1,
      "note": 50,
      "start": 103.1972,
      "duration": 0.1871,
      "velocity": 117,
      "chip": "ym2612"
    },
    {
      "channel": 2,
      "note": 40,
      "start": 103.1977,
      "duration": 0.1871,
      "velocity": 106,
      "chip": "ym2612"
    },
    {
      "channel": 3,
      "note": 79,
      "start": 103.1983,
      "duration": 0.1871,
      "velocity": 121,
      "chip": "ym2612"
    },
    {
      "channel": 0,
      "note": 57,
      "start": 103.3839,
      "duration": 0.7547,
      "velocity": 99,
      "chip": "ym2612"
    },
    {
      "channel": 1,
      "note": 62,
      "start": 103.3845,
      "duration": 0.1803,
      "velocity": 117,
      "chip": "ym2612"
    },
    {
      "channel": 2,
      "note": 38,
      "start": 103.385,
      "duration": 0.1803,
      "velocity": 106,
      "chip": "ym2612"
    },
    {
      "channel": 3,
      "note": 79,
      "start": 103.3856,
      "duration": 0.1819,
      "velocity": 127,
      "chip": "ym2612"
    },
    {
      "channel": 4,
      "note": 62,
      "start": 103.3877,
      "duration": 0.1803,
      "velocity": 102,
      "chip": "ym2612"
    },
    {
      "channel": 1,
      "note": 57,
      "start": 103.5649,
      "duration": 0.1999,
      "velocity": 117,
      "chip": "ym2612"
    },
    {
      "channel": 2,
      "note": 40,
      "start": 103.5655,
      "duration": 0.0993,
      "velocity": 106,
      "chip": "ym2612"
    },
    {
      "channel": 3,
      "note": 79,
      "start": 103.5677,
      "duration": 0.1998,
      "velocity": 121,
      "chip": "ym2612"
    },
    {
      "channel": 4,
      "note": 65,
      "start": 103.5682,
      "duration": 0.3721,
      "velocity": 102,
      "chip": "ym2612"
    },
    {
      "channel": 2,
      "note": 40,
      "start": 103.6651,
      "duration": 0.1002,
      "velocity": 106,
      "chip": "ym2612"
    },
    {
      "channel": 1,
      "note": 53,
      "start": 103.7649,
      "duration": 0.1738,
      "velocity": 117,
      "chip": "ym2612"
    },
    {
      "channel": 2,
      "note": 40,
      "start": 103.7655,
      "duration": 0.1737,
      "velocity": 106,
      "chip": "ym2612"
    },
    {
      "channel": 3,
      "note": 79,
      "start": 103.7676,
      "duration": 0.1722,
      "velocity": 121,
      "chip": "ym2612"
    },
    {
      "channel": 1,
      "note": 50,
      "start": 103.9388,
      "duration": 0.3784,
      "velocity": 117,
      "chip": "ym2612"
    },
    {
      "channel": 2,
      "note": 40,
      "start": 103.9394,
      "duration": 0.3783,
      "velocity": 106,
      "chip": "ym2612"
    },
    {
      "channel": 3,
      "note": 79,
      "start": 103.94,
      "duration": 0.2009,
      "velocity": 127,
      "chip": "ym2612"
    },
    {
      "channel": 4,
      "note": 73,
      "start": 103.9405,
      "duration": 0.201,
      "velocity": 102,
      "chip": "ym2612"
    },
    {
      "channel": 0,
      "note": 58,
      "start": 104.1388,
      "duration": 0.7185,
      "velocity": 99,
      "chip": "ym2612"
    },
    {
      "channel": 3,
      "note": 79,
      "start": 104.141,
      "duration": 0.1788,
      "velocity": 121,
      "chip": "ym2612"
    },
    {
      "channel": 4,
      "note": 72,
      "start": 104.1416,
      "duration": 2.1876,
      "velocity": 102,
      "chip": "ym2612"
    },
    {
      "channel": 1,
      "note": 50,
      "start": 104.3173,
      "duration": 0.1905,
      "velocity": 117,
      "chip": "ym2612"
    },
    {
      "channel": 2,
      "note": 38,
      "start": 104.3179,
      "duration": 0.1905,
      "velocity": 106,
      "chip": "ym2612"
    },
    {
      "channel": 3,
      "note": 79,
      "start": 104.3201,
      "duration": 0.1889,
      "velocity": 121,
      "chip": "ym2612"
    },
    {
      "channel": 1,
      "note": 52,
      "start": 104.508,
      "duration": 0.1753,
      "velocity": 117,
      "chip": "ym2612"
    },
    {
      "channel": 2,
      "note": 38,
      "start": 104.5085,
      "duration": 0.1753,
      "velocity": 106,
      "chip": "ym2612"
    },
    {
      "channel": 3,
      "note": 79,
      "start": 104.5091,
      "duration": 0.0858,
      "velocity": 121,
      "chip": "ym2612"
    },
    {
      "channel": 3,
      "note": 79,
      "start": 104.5951,
      "duration": 0.0909,
      "velocity": 127,
      "chip": "ym2612"
    },
    {
      "channel": 1,
      "note": 53,
      "start": 104.6834,
      "duration": 0.3541,
      "velocity": 117,
      "chip": "ym2612"
    },
    {
      "channel": 2,
      "note": 38,
      "start": 104.684,
      "duration": 0.1739,
      "velocity": 106,
      "chip": "ym2612"
    },
    {
      "channel": 3,
      "note": 79,
      "start": 104.6861,
      "duration": 0.174,
      "velocity": 121,
      "chip": "ym2612"
    },
    {
      "channel": 0,
      "note": 59,
      "start": 104.8575,
      "duration": 0.747,
      "velocity": 99,
      "chip": "ym2612"
    },
    {
      "channel": 2,
      "note": 38,
      "start": 104.8581,
      "duration": 0.1799,
      "velocity": 106,
      "chip": "ym2612"
    },
    {
      "channel": 3,
      "note": 79,
      "start": 104.8602,
      "duration": 0.1783,
      "velocity": 121,
      "chip": "ym2612"
    },
    {
      "channel": 1,
      "note": 52,
      "start": 105.0376,
      "duration": 0.2001,
      "velocity": 117,
      "chip": "ym2612"
    },
    {
      "channel": 2,
      "note": 41,
      "start": 105.0382,
      "duration": 0.0994,
      "velocity": 106,
      "chip": "ym2612"
    },
    {
      "channel": 3,
      "note": 79,
      "start": 105.0387,
      "duration": 0.2002,
      "velocity": 121,
      "chip": "ym2612"
    },
    {
      "channel": 2,
      "note": 41,
      "start": 105.1377,
      "duration": 0.1006,
      "velocity": 106,
      "chip": "ym2612"
    },
    {
      "channel": 1,
      "note": 50,
      "start": 105.238,
      "duration": 0.1759,
      "velocity": 117,
      "chip": "ym2612"
    },
    {
      "channel": 2,
      "note": 41,
      "start": 105.2385,
      "duration": 0.1758,
      "velocity": 106,
      "chip": "ym2612"
    },
    {
      "channel": 3,
      "note": 79,
      "start": 105.2391,
      "duration": 0.1773,
      "velocity": 127,
      "chip": "ym2612"
    },
    {
      "channel": 1,
      "note": 57,
      "start": 105.4139,
      "duration": 0.3783,
      "velocity": 117,
      "chip": "ym2612"
    },
    {
      "channel": 2,
      "note": 41,
      "start": 105.4145,
      "duration": 0.3783,
      "velocity": 106,
      "chip": "ym2612"
    },
    {
      "channel": 3,
      "note": 79,
      "start": 105.4167,
      "duration": 0.19,
      "velocity": 121,
      "chip": "ym2612"
    },
    {
      "channel": 0,
      "note": 58,
      "start": 105.6047,
      "duration": 0.7191,
      "velocity": 99,
      "chip": "ym2612"
    },
    {
      "channel": 3,
      "note": 79,
      "start": 105.6069,
      "duration": 0.0931,
      "velocity": 121,
      "chip": "ym2612"
    },
    {
      "channel": 3,
      "note": 79,
      "start": 105.7002,
      "duration": 0.0947,
      "velocity": 127,
      "chip": "ym2612"
    },
    {
      "channel": 1,
      "note": 57,
      "start": 105.7924,
      "duration": 0.1791,
      "velocity": 117,
      "chip": "ym2612"
    },
    {
      "channel": 2,
      "note": 40,
      "start": 105.7929,
      "duration": 0.1791,
      "velocity": 106,
      "chip": "ym2612"
    },
    {
      "channel": 3,
      "note": 79,
      "start": 105.7951,
      "duration": 0.1791,
      "velocity": 121,
      "chip": "ym2612"
    },
    {
      "channel": 1,
      "note": 45,
      "start": 105.9717,
      "duration": 0.3527,
      "velocity": 117,
      "chip": "ym2612"
    },
    {
      "channel": 2,
      "note": 40,
      "start": 105.9722,
      "duration": 0.1738,
      "velocity": 106,
      "chip": "ym2612"
    },
    {
      "channel": 3,
      "note": 79,
      "start": 105.9744,
      "duration": 0.1738,
      "velocity": 127,
      "chip": "ym2612"
    },
    {
      "channel": 2,
      "note": 40,
      "start": 106.1462,
      "duration": 0.1788,
      "velocity": 106,
      "chip": "ym2612"
    },
    {
      "channel": 3,
      "note": 79,
      "start": 106.1483,
      "duration": 0.1787,
      "velocity": 121,
      "chip": "ym2612"
    },
    {
      "channel": 0,
      "note": 57,
      "start": 106.3239,
      "duration": 0.7543,
      "velocity": 99,
      "chip": "ym2612"
    },
    {
      "channel": 1,
      "note": 50,
      "start": 106.3245,
      "duration": 0.1812,
      "velocity": 117,
      "chip": "ym2612"
    },
    {
      "channel": 2,
      "note": 38,
      "start": 106.3251,
      "duration": 0.181,
      "velocity": 106,
      "chip": "ym2612"
    },
    {
      "channel": 3,
      "note": 79,
      "start": 106.3272,
      "duration": 0.1811,
      "velocity": 127,
      "chip": "ym2612"
    },
    {
      "channel": 4,
      "note": 62,
      "start": 106.3294,
      "duration": 0.1795,
      "velocity": 102,
      "chip": "ym2612"
    },
    {
      "channel": 1,
      "note": 50,
      "start": 106.5058,
      "duration": 0.1995,
      "velocity": 117,
      "chip": "ym2612"
    },
    {
      "channel": 2,
      "note": 40,
      "start": 106.5063,
      "duration": 0.099,
      "velocity": 106,
      "chip": "ym2612"
    },
    {
      "channel": 3,
      "note": 79,
      "start": 106.5085,
      "duration": 0.1995,
      "velocity": 121,
      "chip": "ym2612"
    },
    {
      "channel": 4,
      "note": 65,
      "start": 106.509,
      "duration": 0.3708,
      "velocity": 102,
      "chip": "ym2612"
    },
    {
      "channel": 2,
      "note": 40,
      "start": 106.6055,
      "duration": 0.1003,
      "velocity": 106,
      "chip": "ym2612"
    },
    {
      "channel": 1,
      "note": 52,
      "start": 106.7055,
      "duration": 0.1727,
      "velocity": 117,
      "chip": "ym2612"
    },
    {
      "channel": 2,
      "note": 40,
      "start": 106.706,
      "duration": 0.1728,
      "velocity": 106,
      "chip": "ym2612"
    },
    {
      "channel": 3,
      "note": 79,
      "start": 106.7081,
      "duration": 0.1712,
      "velocity": 121,
      "chip": "ym2612"
    },
    {
      "channel": 1,
      "note": 53,
      "start": 106.8784,
      "duration": 0.3787,
      "velocity": 117,
      "chip": "ym2612"
    },
    {
      "channel": 2,
      "note": 40,
      "start": 106.8789,
      "duration": 0.3788,
      "velocity": 106,
      "chip": "ym2612"
    },
    {
      "channel": 3,
      "note": 79,
      "start": 106.8795,
      "duration": 0.201,
      "velocity": 127,
      "chip": "ym2612"
    },
    {
      "channel": 4,
      "note": 73,
      "start": 106.88,
      "duration": 0.201,
      "velocity": 102,
      "chip": "ym2612"
    },
    {
      "channel": 0,
      "note": 58,
      "start": 107.0783,
      "duration": 0.7426,
      "velocity": 99,
      "chip": "ym2612"
    },
    {
      "channel": 3,
      "note": 79,
      "start": 107.0806,
      "duration": 0.1792,
      "velocity": 121,
      "chip": "ym2612"
    },
    {
      "channel": 4,
      "note": 72,
      "start": 107.0812,
      "duration": 5.5131,
      "velocity": 104,
      "chip": "ym2612"
    },
    {
      "channel": 1,
      "note": 53,
      "start": 107.2573,
      "duration": 0.1001,
      "velocity": 117,
      "chip": "ym2612"
    },
    {
      "channel": 2,
      "note": 38,
      "start": 107.2578,
      "duration": 0.1922,
      "velocity": 106,
      "chip": "ym2612"
    },
    {
      "channel": 3,
      "note": 79,
      "start": 107.2599,
      "duration": 0.1906,
      "velocity": 121,
      "chip": "ym2612"
    },
    {
      "channel": 1,
      "note": 53,
      "start": 107.3576,
      "duration": 0.0919,
      "velocity": 117,
      "chip": "ym2612"
    },
    {
      "channel": 1,
      "note": 52,
      "start": 107.4496,
      "duration": 0.0939,
      "velocity": 117,
      "chip": "ym2612"
    },
    {
      "channel": 2,
      "note": 38,
      "start": 107.4501,
      "duration": 0.1843,
      "velocity": 106,
      "chip": "ym2612"
    },
    {
      "channel": 3,
      "note": 79,
      "start": 107.4507,
      "duration": 0.0934,
      "velocity": 121,
      "chip": "ym2612"
    },
    {
      "channel": 1,
      "note": 50,
      "start": 107.5436,
      "duration": 0.1812,
      "velocity": 117,
      "chip": "ym2612"
    },
    {
      "channel": 3,
      "note": 79,
      "start": 107.5442,
      "duration": 0.0923,
      "velocity": 127,
      "chip": "ym2612"
    },
    {
      "channel": 2,
      "note": 38,
      "start": 107.6346,
      "duration": 0.1869,
      "velocity": 106,
      "chip": "ym2612"
    },
    {
      "channel": 3,
      "note": 79,
      "start": 107.6367,
      "duration": 0.1869,
      "velocity": 121,
      "chip": "ym2612"
    },
    {
      "channel": 1,
      "note": 57,
      "start": 107.7249,
      "duration": 0.2776,
      "velocity": 117,
      "chip": "ym2612"
    },
    {
      "channel": 0,
      "note": 59,
      "start": 107.821,
      "duration": 0.7544,
      "velocity": 99,
      "chip": "ym2612"
    },
    {
      "channel": 2,
      "note": 38,
      "start": 107.8216,
      "duration": 0.1815,
      "velocity": 106,
      "chip": "ym2612"
    },
    {
      "channel": 3,
      "note": 79,
      "start": 107.8238,
      "duration": 0.1799,
      "velocity": 121,
      "chip": "ym2612"
    },
    {
      "channel": 1,
      "note": 53,
      "start": 108.0027,
      "duration": 0.2002,
      "velocity": 117,
      "chip": "ym2612"
    },
    {
      "channel": 2,
      "note": 41,
      "start": 108.0033,
      "duration": 0.0993,
      "velocity": 106,
      "chip": "ym2612"
    },
    {
      "channel": 3,
      "note": 79,
      "start": 108.0039,
      "duration": 0.2001,
      "velocity": 121,
      "chip": "ym2612"
    },
    {
      "channel": 2,
      "note": 41,
      "start": 108.1028,
      "duration": 0.1006,
      "velocity": 106,
      "chip": "ym2612"
    },
    {
      "channel": 1,
      "note": 52,
      "start": 108.203,
      "duration": 0.1725,
      "velocity": 117,
      "chip": "ym2612"
    },
    {
      "channel": 2,
      "note": 41,
      "start": 108.2036,
      "duration": 0.1724,
      "velocity": 106,
      "chip": "ym2612"
    },
    {
      "channel": 3,
      "note": 79,
      "start": 108.2042,
      "duration": 0.174,
      "velocity": 127,
      "chip": "ym2612"
    },
    {
      "channel": 1,
      "note": 50,
      "start": 108.3757,
      "duration": 0.3755,
      "velocity": 117,
      "chip": "ym2612"
    },
    {
      "channel": 2,
      "note": 41,
      "start": 108.3763,
      "duration": 0.3755,
      "velocity": 106,
      "chip": "ym2612"
    },
    {
      "channel": 3,
      "note": 79,
      "start": 108.3783,
      "duration": 0.1994,
      "velocity": 121,
      "chip": "ym2612"
    },
    {
      "channel": 0,
      "note": 58,
      "start": 108.5756,
      "duration": 0.7088,
      "velocity": 99,
      "chip": "ym2612"
    },
    {
      "channel": 3,
      "note": 79,
      "start": 108.5778,
      "duration": 0.1745,
      "velocity": 121,
      "chip": "ym2612"
    },
    {
      "channel": 1,
      "note": 45,
      "start": 108.7514,
      "duration": 0.1796,
      "velocity": 117,
      "chip": "ym2612"
    },
    {
      "channel": 2,
      "note": 40,
      "start": 108.752,
      "duration": 0.1796,
      "velocity": 106,
      "chip": "ym2612"
    },
    {
      "channel": 3,
      "note": 79,
      "start": 108.7525,
      "duration": 0.0859,
      "velocity": 127,
      "chip": "ym2612"
    },
    {
      "channel": 3,
      "note": 79,
      "start": 108.8387,
      "duration": 0.1828,
      "velocity": 121,
      "chip": "ym2612"
    },
    {
      "channel": 1,
      "note": 53,
      "start": 108.9312,
      "duration": 0.1767,
      "velocity": 117,
      "chip": "ym2612"
    },
    {
      "channel": 2,
      "note": 39,
      "start": 108.9318,
      "duration": 0.1766,
      "velocity": 106,
      "chip": "ym2612"
    },
    {
      "channel": 3,
      "note": 79,
      "start": 109.0216,
      "duration": 0.0874,
      "velocity": 121,
      "chip": "ym2612"
    },
    {
      "channel": 1,
      "note": 52,
      "start": 109.108,
      "duration": 0.177,
      "velocity": 117,
      "chip": "ym2612"
    },
    {
      "channel": 2,
      "note": 38,
      "start": 109.1086,
      "duration": 0.1785,
      "velocity": 106,
      "chip": "ym2612"
    },
    {
      "channel": 3,
      "note": 79,
      "start": 109.1092,
      "duration": 0.1785,
      "velocity": 121,
      "chip": "ym2612"
    },
    {
      "channel": 0,
      "note": 57,
      "start": 109.2846,
      "duration": 0.7594,
      "velocity": 99,
      "chip": "ym2612"
    },
    {
      "channel": 1,
      "note": 50,
      "start": 109.2852,
      "duration": 0.5588,
      "velocity": 117,
      "chip": "ym2612"
    },
    {
      "channel": 2,
      "note": 49,
      "start": 109.2873,
      "duration": 0.1755,
      "velocity": 106,
      "chip": "ym2612"
    },
    {
      "channel": 3,
      "note": 79,
      "start": 109.2879,
      "duration": 0.177,
      "velocity": 127,
      "chip": "ym2612"
    },
    {
      "channel": 2,
      "note": 48,
      "start": 109.463,
      "duration": 0.9503,
      "velocity": 106,
      "chip": "ym2612"
    },
    {
      "channel": 3,
      "note": 79,
      "start": 109.4651,
      "duration": 0.1994,
      "velocity": 121,
      "chip": "ym2612"
    },
    {
      "channel": 3,
      "note": 79,
      "start": 109.6646,
      "duration": 0.1815,
      "velocity": 121,
      "chip": "ym2612"
    },
    {
      "channel": 1,
      "note": 50,
      "start": 109.8441,
      "duration": 0.3804,
      "velocity": 117,
      "chip": "ym2612"
    },
    {
      "channel": 3,
      "note": 79,
      "start": 109.8464,
      "duration": 0.1999,
      "velocity": 127,
      "chip": "ym2612"
    },
    {
      "channel": 0,
      "note": 58,
      "start": 110.0442,
      "duration": 0.7256,
      "velocity": 99,
      "chip": "ym2612"
    },
    {
      "channel": 3,
      "note": 79,
      "start": 110.0464,
      "duration": 0.1803,
      "velocity": 121,
      "chip": "ym2612"
    },
    {
      "channel": 1,
      "note": 50,
      "start": 110.2247,
      "duration": 0.5457,
      "velocity": 117,
      "chip": "ym2612"
    },
    {
      "channel": 3,
      "note": 79,
      "start": 110.2269,
      "duration": 0.1868,
      "velocity": 121,
      "chip": "ym2612"
    },
    {
      "channel": 2,
      "note": 45,
      "start": 110.4134,
      "duration": 0.1733,
      "velocity": 106,
      "chip": "ym2612"
    },
    {
      "channel": 3,
      "note": 79,
      "start": 110.4139,
      "duration": 0.0844,
      "velocity": 121,
      "chip": "ym2612"
    },
    {
      "channel": 3,
      "note": 79,
      "start": 110.4986,
      "duration": 0.0902,
      "velocity": 127,
      "chip": "ym2612"
    },
    {
      "channel": 2,
      "note": 43,
      "start": 110.5868,
      "duration": 0.1842,
      "velocity": 106,
      "chip": "ym2612"
    },
    {
      "channel": 3,
      "note": 79,
      "start": 110.589,
      "duration": 0.1841,
      "velocity": 121,
      "chip": "ym2612"
    },
    {
      "channel": 0,
      "note": 59,
      "start": 110.77,
      "duration": 0.715,
      "velocity": 99,
      "chip": "ym2612"
    },
    {
      "channel": 1,
      "note": 65,
      "start": 110.7706,
      "duration": 0.2642,
      "velocity": 117,
      "chip": "ym2612"
    },
    {
      "channel": 2,
      "note": 45,
      "start": 110.7711,
      "duration": 1.8189,
      "velocity": 104,
      "chip": "ym2612"
    },
    {
      "channel": 3,
      "note": 79,
      "start": 110.7733,
      "duration": 0.1739,
      "velocity": 121,
      "chip": "ym2612"
    },
    {
      "channel": 3,
      "note": 79,
      "start": 110.9473,
      "duration": 0.178,
      "velocity": 121,
      "chip": "ym2612"
    },
    {
      "channel": 1,
      "note": 64,
      "start": 111.035,
      "duration": 0.2713,
      "velocity": 117,
      "chip": "ym2612"
    },
    {
      "channel": 3,
      "note": 79,
      "start": 111.1255,
      "duration": 0.1829,
      "velocity": 127,
      "chip": "ym2612"
    },
    {
      "channel": 1,
      "note": 62,
      "start": 111.3064,
      "duration": 0.3572,
      "velocity": 117,
      "chip": "ym2612"
    },
    {
      "channel": 3,
      "note": 79,
      "start": 111.3086,
      "duration": 0.1787,
      "velocity": 121,
      "chip": "ym2612"
    },
    {
      "channel": 0,
      "note": 58,
      "start": 111.4852,
      "duration": 0.7221,
      "velocity": 102,
      "chip": "ym2612"
    },
    {
      "channel": 3,
      "note": 79,
      "start": 111.4875,
      "duration": 0.0884,
      "velocity": 121,
      "chip": "ym2612"
    },
    {
      "channel": 3,
      "note": 79,
      "start": 111.576,
      "duration": 0.0897,
      "velocity": 127,
      "chip": "ym2612"
    },
    {
      "channel": 1,
      "note": 53,
      "start": 111.6638,
      "duration": 0.1803,
      "velocity": 117,
      "chip": "ym2612"
    },
    {
      "channel": 3,
      "note": 79,
      "start": 111.6659,
      "duration": 0.1804,
      "velocity": 121,
      "chip": "ym2612"
    },
    {
      "channel": 1,
      "note": 52,
      "start": 111.8443,
      "duration": 0.1811,
      "velocity": 117,
      "chip": "ym2612"
    },
    {
      "channel": 3,
      "note": 79,
      "start": 111.8465,
      "duration": 0.181,
      "velocity": 127,
      "chip": "ym2612"
    },
    {
      "channel": 1,
      "note": 50,
      "start": 112.0256,
      "duration": 0.1824,
      "velocity": 117,
      "chip": "ym2612"
    },
    {
      "channel": 3,
      "note": 79,
      "start": 112.0277,
      "duration": 0.1824,
      "velocity": 121,
      "chip": "ym2612"
    },
    {
      "channel": 0,
      "note": 69,
      "start": 112.2075,
      "duration": 0.7588,
      "velocity": 102,
      "chip": "ym2612"
    },
    {
      "channel": 1,
      "note": 50,
      "start": 112.2081,
      "duration": 0.7588,
      "velocity": 117,
      "chip": "ym2612"
    },
    {
      "channel": 3,
      "note": 79,
      "start": 112.2103,
      "duration": 0.1768,
      "velocity": 127,
      "chip": "ym2612"
    },
    {
      "channel": 3,
      "note": 79,
      "start": 112.3873,
      "duration": 0.2048,
      "velocity": 121,
      "chip": "ym2612"
    },
    {
      "channel": 2,
      "note": 74,
      "start": 112.5901,
      "duration": 0.7441,
      "velocity": 104,
      "chip": "ym2612"
    },
    {
      "channel": 3,
      "note": 79,
      "start": 112.5923,
      "duration": 0.1716,
      "velocity": 121,
      "chip": "ym2612"
    },
    {
      "channel": 4,
      "note": 69,
      "start": 112.5944,
      "duration": 0.7408,
      "velocity": 104,
      "chip": "ym2612"
    },
    {
      "channel": 3,
      "note": 79,
      "start": 112.7641,
      "duration": 0.205,
      "velocity": 127,
      "chip": "ym2612"
    },
    {
      "channel": 0,
      "note": 70,
      "start": 112.9665,
      "duration": 0.734,
      "velocity": 102,
      "chip": "ym2612"
    },
    {
      "channel": 1,
      "note": 50,
      "start": 112.9671,
      "duration": 0.7339,
      "velocity": 117,
      "chip": "ym2612"
    },
    {
      "channel": 3,
      "note": 79,
      "start": 112.9692,
      "duration": 0.1765,
      "velocity": 121,
      "chip": "ym2612"
    },
    {
      "channel": 3,
      "note": 79,
      "start": 113.1459,
      "duration": 0.1889,
      "velocity": 121,
      "chip": "ym2612"
    },
    {
      "channel": 2,
      "note": 74,
      "start": 113.3343,
      "duration": 0.7432,
      "velocity": 104,
      "chip": "ym2612"
    },
    {
      "channel": 3,
      "note": 79,
      "start": 113.3349,
      "duration": 0.088,
      "velocity": 121,
      "chip": "ym2612"
    },
    {
      "channel": 4,
      "note": 70,
      "start": 113.3354,
      "duration": 0.7432,
      "velocity": 104,
      "chip": "ym2612"
    },
    {
      "channel": 3,
      "note": 79,
      "start": 113.4231,
      "duration": 0.0923,
      "velocity": 127,
      "chip": "ym2612"
    },
    {
      "channel": 3,
      "note": 79,
      "start": 113.5156,
      "duration": 0.1876,
      "velocity": 121,
      "chip": "ym2612"
    },
    {
      "channel": 0,
      "note": 71,
      "start": 113.7006,
      "duration": 0.7526,
      "velocity": 102,
      "chip": "ym2612"
    },
    {
      "channel": 1,
      "note": 50,
      "start": 113.7012,
      "duration": 0.7525,
      "velocity": 117,
      "chip": "ym2612"
    },
    {
      "channel": 3,
      "note": 79,
      "start": 113.7034,
      "duration": 0.1713,
      "velocity": 121,
      "chip": "ym2612"
    },
    {
      "channel": 3,
      "note": 79,
      "start": 113.8749,
      "duration": 0.2031,
      "velocity": 121,
      "chip": "ym2612"
    },
    {
      "channel": 2,
      "note": 74,
      "start": 114.0776,
      "duration": 0.7348,
      "velocity": 104,
      "chip": "ym2612"
    },
    {
      "channel": 3,
      "note": 79,
      "start": 114.0782,
      "duration": 0.1741,
      "velocity": 127,
      "chip": "ym2612"
    },
    {
      "channel": 4,
      "note": 71,
      "start": 114.0788,
      "duration": 0.7342,
      "velocity": 104,
      "chip": "ym2612"
    },
    {
      "channel": 3,
      "note": 79,
      "start": 114.2525,
      "duration": 0.2034,
      "velocity": 121,
      "chip": "ym2612"
    },
    {
      "channel": 0,
      "note": 70,
      "start": 114.4533,
      "duration": 0.7064,
      "velocity": 102,
      "chip": "ym2612"
    },
    {
      "channel": 1,
      "note": 50,
      "start": 114.4539,
      "duration": 0.7064,
      "velocity": 117,
      "chip": "ym2612"
    },
    {
      "channel": 3,
      "note": 79,
      "start": 114.4561,
      "duration": 0.1729,
      "velocity": 121,
      "chip": "ym2612"
    },
    {
      "channel": 3,
      "note": 79,
      "start": 114.6292,
      "duration": 0.0868,
      "velocity": 127,
      "chip": "ym2612"
    },
    {
      "channel": 3,
      "note": 79,
      "start": 114.7161,
      "duration": 0.1825,
      "velocity": 121,
      "chip": "ym2612"
    },
    {
      "channel": 2,
      "note": 74,
      "start": 114.8126,
      "duration": 0.728,
      "velocity": 104,
      "chip": "ym2612"
    },
    {
      "channel": 4,
      "note": 70,
      "start": 114.8132,
      "duration": 0.73,
      "velocity": 104,
      "chip": "ym2612"
    },
    {
      "channel": 3,
      "note": 79,
      "start": 114.8988,
      "duration": 0.0853,
      "velocity": 121,
      "chip": "ym2612"
    },
    {
      "channel": 3,
      "note": 79,
      "start": 114.9843,
      "duration": 0.1766,
      "velocity": 121,
      "chip": "ym2612"
    },
    {
      "channel": 0,
      "note": 69,
      "start": 115.1599,
      "duration": 0.7573,
      "velocity": 102,
      "chip": "ym2612"
    },
    {
      "channel": 1,
      "note": 50,
      "start": 115.1604,
      "duration": 0.7574,
      "velocity": 117,
      "chip": "ym2612"
    },
    {
      "channel": 3,
      "note": 79,
      "start": 115.161,
      "duration": 0.1783,
      "velocity": 127,
      "chip": "ym2612"
    },
    {
      "channel": 3,
      "note": 79,
      "start": 115.3395,
      "duration": 0.2032,
      "velocity": 121,
      "chip": "ym2612"
    },
    {
      "channel": 2,
      "note": 74,
      "start": 115.5407,
      "duration": 0.7461,
      "velocity": 104,
      "chip": "ym2612"
    },
    {
      "channel": 3,
      "note": 79,
      "start": 115.5429,
      "duration": 0.1719,
      "velocity": 121,
      "chip": "ym2612"
    },
    {
      "channel": 4,
      "note": 69,
      "start": 115.5434,
      "duration": 0.7445,
      "velocity": 104,
      "chip": "ym2612"
    },
    {
      "channel": 3,
      "note": 79,
      "start": 115.7149,
      "duration": 0.205,
      "velocity": 127,
      "chip": "ym2612"
    },
    {
      "channel": 0,
      "note": 70,
      "start": 115.9174,
      "duration": 0.7252,
      "velocity": 102,
      "chip": "ym2612"
    },
    {
      "channel": 1,
      "note": 50,
      "start": 115.918,
      "duration": 0.7251,
      "velocity": 117,
      "chip": "ym2612"
    },
    {
      "channel": 3,
      "note": 79,
      "start": 115.9201,
      "duration": 0.1768,
      "velocity": 121,
      "chip": "ym2612"
    },
    {
      "channel": 3,
      "note": 79,
      "start": 116.0971,
      "duration": 0.1903,
      "velocity": 121,
      "chip": "ym2612"
    },
    {
      "channel": 2,
      "note": 74,
      "start": 116.287,
      "duration": 0.7347,
      "velocity": 104,
      "chip": "ym2612"
    },
    {
      "channel": 3,
      "note": 79,
      "start": 116.2876,
      "duration": 0.0881,
      "velocity": 121,
      "chip": "ym2612"
    },
    {
      "channel": 4,
      "note": 70,
      "start": 116.2881,
      "duration": 0.7347,
      "velocity": 104,
      "chip": "ym2612"
    },
    {
      "channel": 3,
      "note": 79,
      "start": 116.3758,
      "duration": 0.0906,
      "velocity": 127,
      "chip": "ym2612"
    },
    {
      "channel": 3,
      "note": 79,
      "start": 116.4665,
      "duration": 0.1788,
      "velocity": 121,
      "chip": "ym2612"
    },
    {
      "channel": 0,
      "note": 71,
      "start": 116.6427,
      "duration": 0.745,
      "velocity": 102,
      "chip": "ym2612"
    },
    {
      "channel": 1,
      "note": 50,
      "start": 116.6433,
      "duration": 0.745,
      "velocity": 117,
      "chip": "ym2612"
    },
    {
      "channel": 3,
      "note": 79,
      "start": 116.6454,
      "duration": 0.1734,
      "velocity": 121,
      "chip": "ym2612"
    },
    {
      "channel": 3,
      "note": 79,
      "start": 116.819,
      "duration": 0.2032,
      "velocity": 121,
      "chip": "ym2612"
    },
    {
      "channel": 2,
      "note": 74,
      "start": 117.0218,
      "duration": 0.7246,
      "velocity": 104,
      "chip": "ym2612"
    },
    {
      "channel": 3,
      "note": 79,
      "start": 117.0224,
      "duration": 0.1776,
      "velocity": 127,
      "chip": "ym2612"
    },
    {
      "channel": 4,
      "note": 71,
      "start": 117.023,
      "duration": 0.7261,
      "velocity": 104,
      "chip": "ym2612"
    },
    {
      "channel": 3,
      "note": 79,
      "start": 117.2002,
      "duration": 0.1903,
      "velocity": 121,
      "chip": "ym2612"
    },
    {
      "channel": 0,
      "note": 70,
      "start": 117.3879,
      "duration": 0.7188,
      "velocity": 104,
      "chip": "ym2612"
    },
    {
      "channel": 1,
      "note": 50,
      "start": 117.3885,
      "duration": 0.7189,
      "velocity": 117,
      "chip": "ym2612"
    },
    {
      "channel": 3,
      "note": 79,
      "start": 117.3907,
      "duration": 0.0897,
      "velocity": 121,
      "chip": "ym2612"
    },
    {
      "channel": 3,
      "note": 79,
      "start": 117.4805,
      "duration": 0.0897,
      "velocity": 127,
      "chip": "ym2612"
    },
    {
      "channel": 3,
      "note": 79,
      "start": 117.5704,
      "duration": 0.1781,
      "velocity": 121,
      "chip": "ym2612"
    },
    {
      "channel": 2,
      "note": 62,
      "start": 117.7465,
      "duration": 0.7409,
      "velocity": 104,
      "chip": "ym2612"
    },
    {
      "channel": 3,
      "note": 79,
      "start": 117.7487,
      "duration": 0.178,
      "velocity": 127,
      "chip": "ym2612"
    },
    {
      "channel": 4,
      "note": 70,
      "start": 117.7493,
      "duration": 0.741,
      "velocity": 104,
      "chip": "ym2612"
    },
    {
      "channel": 3,
      "note": 79,
      "start": 117.9269,
      "duration": 0.1827,
      "velocity": 121,
      "chip": "ym2612"
    },
    {
      "channel": 0,
      "note": 57,
      "start": 118.1069,
      "duration": 0.7633,
      "velocity": 104,
      "chip": "ym2612"
    },
    {
      "channel": 1,
      "note": 50,
      "start": 118.1076,
      "duration": 0.7632,
      "velocity": 117,
      "chip": "ym2612"
    },
    {
      "channel": 3,
      "note": 79,
      "start": 118.1098,
      "duration": 0.1763,
      "velocity": 127,
      "chip": "ym2612"
    },
    {
      "channel": 3,
      "note": 79,
      "start": 118.2863,
      "duration": 0.2033,
      "velocity": 121,
      "chip": "ym2612"
    },
    {
      "channel": 2,
      "note": 74,
      "start": 118.4876,
      "duration": 0.7451,
      "velocity": 104,
      "chip": "ym2612"
    },
    {
      "channel": 3,
      "note": 79,
      "start": 118.4898,
      "duration": 0.178,
      "velocity": 121,
      "chip": "ym2612"
    },
    {
      "channel": 4,
      "note": 69,
      "start": 118.4904,
      "duration": 0.7434,
      "velocity": 104,
      "chip": "ym2612"
    },
    {
      "channel": 3,
      "note": 79,
      "start": 118.668,
      "duration": 0.205,
      "velocity": 127,
      "chip": "ym2612"
    },
    {
      "channel": 0,
      "note": 58,
      "start": 118.8703,
      "duration": 0.7109,
      "velocity": 104,
      "chip": "ym2612"
    },
    {
      "channel": 1,
      "note": 50,
      "start": 118.8709,
      "duration": 0.7108,
      "velocity": 117,
      "chip": "ym2612"
    },
    {
      "channel": 3,
      "note": 79,
      "start": 118.8731,
      "duration": 0.1729,
      "velocity": 121,
      "chip": "ym2612"
    },
    {
      "channel": 3,
      "note": 79,
      "start": 119.0462,
      "duration": 0.1871,
      "velocity": 121,
      "chip": "ym2612"
    },
    {
      "channel": 2,
      "note": 74,
      "start": 119.2329,
      "duration": 0.7274,
      "velocity": 104,
      "chip": "ym2612"
    },
    {
      "channel": 3,
      "note": 79,
      "start": 119.2335,
      "duration": 0.0818,
      "velocity": 121,
      "chip": "ym2612"
    },
    {
      "channel": 4,
      "note": 70,
      "start": 119.234,
      "duration": 0.7275,
      "velocity": 104,
      "chip": "ym2612"
    },
    {
      "channel": 3,
      "note": 79,
      "start": 119.3154,
      "duration": 0.0896,
      "velocity": 127,
      "chip": "ym2612"
    },
    {
      "channel": 3,
      "note": 79,
      "start": 119.4052,
      "duration": 0.1788,
      "velocity": 121,
      "chip": "ym2612"
    },
    {
      "channel": 0,
      "note": 59,
      "start": 119.5814,
      "duration": 0.7582,
      "velocity": 104,
      "chip": "ym2612"
    },
    {
      "channel": 1,
      "note": 50,
      "start": 119.582,
      "duration": 0.7581,
      "velocity": 117,
      "chip": "ym2612"
    },
    {
      "channel": 3,
      "note": 79,
      "start": 119.5841,
      "duration": 0.1734,
      "velocity": 121,
      "chip": "ym2612"
    },
    {
      "channel": 3,
      "note": 79,
      "start": 119.7577,
      "duration": 0.2032,
      "velocity": 121,
      "chip": "ym2612"
    },
    {
      "channel": 2,
      "note": 74,
      "start": 119.9605,
      "duration": 0.7382,
      "velocity": 104,
      "chip": "ym2612"
    },
    {
      "channel": 3,
      "note": 79,
      "start": 119.9611,
      "duration": 0.1776,
      "velocity": 127,
      "chip": "ym2612"
    },
    {
      "channel": 4,
      "note": 71,
      "start": 119.9617,
      "duration": 0.7377,
      "velocity": 104,
      "chip": "ym2612"
    },
    {
      "channel": 3,
      "note": 79,
      "start": 120.1388,
      "duration": 0.2034,
      "velocity": 121,
      "chip": "ym2612"
    },
    {
      "channel": 0,
      "note": 58,
      "start": 120.3397,
      "duration": 0.7064,
      "velocity": 104,
      "chip": "ym2612"
    },
    {
      "channel": 1,
      "note": 50,
      "start": 120.3402,
      "duration": 0.7064,
      "velocity": 117,
      "chip": "ym2612"
    },
    {
      "channel": 3,
      "note": 79,
      "start": 120.3425,
      "duration": 0.1729,
      "velocity": 121,
      "chip": "ym2612"
    },
    {
      "channel": 3,
      "note": 79,
      "start": 120.5155,
      "duration": 0.0868,
      "velocity": 127,
      "chip": "ym2612"
    },
    {
      "channel": 3,
      "note": 79,
      "start": 120.6024,
      "duration": 0.1825,
      "velocity": 121,
      "chip": "ym2612"
    },
    {
      "channel": 2,
      "note": 74,
      "start": 120.6989,
      "duration": 0.728,
      "velocity": 104,
      "chip": "ym2612"
    },
    {
      "channel": 4,
      "note": 70,
      "start": 120.6995,
      "duration": 0.73,
      "velocity": 104,
      "chip": "ym2612"
    },
    {
      "channel": 3,
      "note": 79,
      "start": 120.7851,
      "duration": 0.0853,
      "velocity": 121,
      "chip": "ym2612"
    },
    {
      "channel": 3,
      "note": 79,
      "start": 120.8706,
      "duration": 0.1766,
      "velocity": 121,
      "chip": "ym2612"
    },
    {
      "channel": 0,
      "note": 57,
      "start": 121.0462,
      "duration": 0.7573,
      "velocity": 104,
      "chip": "ym2612"
    },
    {
      "channel": 1,
      "note": 50,
      "start": 121.0468,
      "duration": 0.7574,
      "velocity": 117,
      "chip": "ym2612"
    },
    {
      "channel": 3,
      "note": 79,
      "start": 121.0474,
      "duration": 0.1783,
      "velocity": 127,
      "chip": "ym2612"
    },
    {
      "channel": 3,
      "note": 79,
      "start": 121.2259,
      "duration": 0.2032,
      "velocity": 121,
      "chip": "ym2612"
    },
    {
      "channel": 2,
      "note": 74,
      "start": 121.4271,
      "duration": 0.7461,
      "velocity": 104,
      "chip": "ym2612"
    },
    {
      "channel": 3,
      "note": 79,
      "start": 121.4292,
      "duration": 0.1719,
      "velocity": 121,
      "chip": "ym2612"
    },
    {
      "channel": 4,
      "note": 69,
      "start": 121.4298,
      "duration": 0.7445,
      "velocity": 104,
      "chip": "ym2612"
    },
    {
      "channel": 3,
      "note": 79,
      "start": 121.6013,
      "duration": 0.205,
      "velocity": 127,
      "chip": "ym2612"
    },
    {
      "channel": 0,
      "note": 58,
      "start": 121.8037,
      "duration": 0.7252,
      "velocity": 104,
      "chip": "ym2612"
    },
    {
      "channel": 1,
      "note": 50,
      "start": 121.8043,
      "duration": 0.7251,
      "velocity": 117,
      "chip": "ym2612"
    },
    {
      "channel": 3,
      "note": 79,
      "start": 121.8065,
      "duration": 0.1768,
      "velocity": 121,
      "chip": "ym2612"
    },
    {
      "channel": 3,
      "note": 79,
      "start": 121.9835,
      "duration": 0.1903,
      "velocity": 121,
      "chip": "ym2612"
    },
    {
      "channel": 2,
      "note": 74,
      "start": 122.1733,
      "duration": 0.7347,
      "velocity": 104,
      "chip": "ym2612"
    },
    {
      "channel": 3,
      "note": 79,
      "start": 122.1739,
      "duration": 0.0881,
      "velocity": 121,
      "chip": "ym2612"
    },
    {
      "channel": 4,
      "note": 70,
      "start": 122.1745,
      "duration": 0.7347,
      "velocity": 104,
      "chip": "ym2612"
    },
    {
      "channel": 3,
      "note": 79,
      "start": 122.2622,
      "duration": 0.0906,
      "velocity": 127,
      "chip": "ym2612"
    },
    {
      "channel": 3,
      "note": 79,
      "start": 122.3529,
      "duration": 0.1788,
      "velocity": 121,
      "chip": "ym2612"
    },
    {
      "channel": 0,
      "note": 59,
      "start": 122.5291,
      "duration": 0.7451,
      "velocity": 104,
      "chip": "ym2612"
    },
    {
      "channel": 1,
      "note": 50,
      "start": 122.5296,
      "duration": 0.745,
      "velocity": 117,
      "chip": "ym2612"
    },
    {
      "channel": 3,
      "note": 79,
      "start": 122.5318,
      "duration": 0.1734,
      "velocity": 121,
      "chip": "ym2612"
    },
    {
      "channel": 3,
      "note": 79,
      "start": 122.7054,
      "duration": 0.2032,
      "velocity": 121,
      "chip": "ym2612"
    },
    {
      "channel": 2,
      "note": 74,
      "start": 122.9082,
      "duration": 0.7204,
      "velocity": 104,
      "chip": "ym2612"
    },
    {
      "channel": 3,
      "note": 79,
      "start": 122.9088,
      "duration": 0.1776,
      "velocity": 127,
      "chip": "ym2612"
    },
    {
      "channel": 4,
      "note": 71,
      "start": 122.9093,
      "duration": 0.7219,
      "velocity": 104,
      "chip": "ym2612"
    },
    {
      "channel": 3,
      "note": 79,
      "start": 123.0865,
      "duration": 0.1903,
      "velocity": 121,
      "chip": "ym2612"
    },
    {
      "channel": 0,
      "note": 58,
      "start": 123.2743,
      "duration": 0.6985,
      "velocity": 104,
      "chip": "ym2612"
    },
    {
      "channel": 1,
      "note": 50,
      "start": 123.2748,
      "duration": 0.6985,
      "velocity": 117,
      "chip": "ym2612"
    },
    {
      "channel": 3,
      "note": 79,
      "start": 123.277,
      "duration": 0.0878,
      "velocity": 121,
      "chip": "ym2612"
    },
    {
      "channel": 3,
      "note": 79,
      "start": 123.365,
      "duration": 0.0875,
      "velocity": 127,
      "chip": "ym2612"
    },
    {
      "channel": 3,
      "note": 79,
      "start": 123.4527,
      "duration": 0.178,
      "velocity": 121,
      "chip": "ym2612"
    },
    {
      "channel": 2,
      "note": 62,
      "start": 123.6287,
      "duration": 0.3468,
      "velocity": 102,
      "chip": "ym2612"
    },
    {
      "channel": 3,
      "note": 79,
      "start": 123.6309,
      "duration": 0.166,
      "velocity": 127,
      "chip": "ym2612"
    },
    {
      "channel": 4,
      "note": 70,
      "start": 123.6315,
      "duration": 0.5747,
      "velocity": 104,
      "chip": "ym2612"
    },
    {
      "channel": 3,
      "note": 79,
      "start": 123.7971,
      "duration": 0.407,
      "velocity": 121,
      "chip": "ym2612"
    },
    {
      "channel": 0,
      "note": 62,
      "start": 123.9729,
      "duration": 0.2289,
      "velocity": 104,
      "chip": "ym2612"
    },
    {
      "channel": 1,
      "note": 50,
      "start": 123.9735,
      "duration": 0.3434,
      "velocity": 117,
      "chip": "ym2612"
    },
    {
      "channel": 2,
      "note": 69,
      "start": 123.9756,
      "duration": 1.3195,
      "velocity": 102,
      "chip": "ym2612"
    },
    {
      "channel": 0,
      "note": 65,
      "start": 124.202,
      "duration": 0.3232,
      "velocity": 104,
      "chip": "ym2612"
    },
    {
      "channel": 3,
      "note": 79,
      "start": 124.2042,
      "duration": 0.1149,
      "velocity": 127,
      "chip": "ym2612"
    },
    {
      "channel": 4,
      "note": 62,
      "start": 124.2063,
      "duration": 0.2145,
      "velocity": 104,
      "chip": "ym2612"
    },
    {
      "channel": 1,
      "note": 57,
      "start": 124.3171,
      "duration": 0.3209,
      "velocity": 117,
      "chip": "ym2612"
    },
    {
      "channel": 3,
      "note": 79,
      "start": 124.3193,
      "duration": 0.3194,
      "velocity": 127,
      "chip": "ym2612"
    },
    {
      "channel": 4,
      "note": 65,
      "start": 124.4211,
      "duration": 0.3168,
      "velocity": 104,
      "chip": "ym2612"
    },
    {
      "channel": 0,
      "note": 73,
      "start": 124.5254,
      "duration": 0.1121,
      "velocity": 104,
      "chip": "ym2612"
    },
    {
      "channel": 0,
      "note": 72,
      "start": 124.6376,
      "duration": 0.5512,
      "velocity": 104,
      "chip": "ym2612"
    },
    {
      "channel": 1,
      "note": 62,
      "start": 124.6382,
      "duration": 0.3256,
      "velocity": 117,
      "chip": "ym2612"
    },
    {
      "channel": 3,
      "note": 79,
      "start": 124.6388,
      "duration": 0.2085,
      "velocity": 127,
      "chip": "ym2612"
    },
    {
      "channel": 4,
      "note": 73,
      "start": 124.7381,
      "duration": 0.1098,
      "velocity": 104,
      "chip": "ym2612"
    },
    {
      "channel": 3,
      "note": 79,
      "start": 124.8475,
      "duration": 0.3436,
      "velocity": 121,
      "chip": "ym2612"
    },
    {
      "channel": 4,
      "note": 72,
      "start": 124.848,
      "duration": 0.5476,
      "velocity": 104,
      "chip": "ym2612"
    },
    {
      "channel": 1,
      "note": 64,
      "start": 124.964,
      "duration": 0.3306,
      "velocity": 117,
      "chip": "ym2612"
    },
    {
      "channel": 0,
      "note": 65,
      "start": 125.189,
      "duration": 0.1051,
      "velocity": 104,
      "chip": "ym2612"
    },
    {
      "channel": 3,
      "note": 79,
      "start": 125.1912,
      "duration": 0.0434,
      "velocity": 121,
      "chip": "ym2612"
    },
    {
      "channel": 3,
      "note": 79,
      "start": 125.2348,
      "duration": 0.0625,
      "velocity": 127,
      "chip": "ym2612"
    },
    {
      "channel": 0,
      "note": 68,
      "start": 125.2943,
      "duration": 0.2118,
      "velocity": 104,
      "chip": "ym2612"
    },
    {
      "channel": 1,
      "note": 64,
      "start": 125.2948,
      "duration": 0.1015,
      "velocity": 117,
      "chip": "ym2612"
    },
    {
      "channel": 2,
      "note": 69,
      "start": 125.2954,
      "duration": 0.2119,
      "velocity": 102,
      "chip": "ym2612"
    },
    {
      "channel": 3,
      "note": 79,
      "start": 125.2975,
      "duration": 0.2118,
      "velocity": 121,
      "chip": "ym2612"
    },
    {
      "channel": 4,
      "note": 65,
      "start": 125.3958,
      "duration": 0.1141,
      "velocity": 104,
      "chip": "ym2612"
    },
    {
      "channel": 1,
      "note": 64,
      "start": 125.3962,
      "duration": 0.0119,
      "velocity": 117,
      "chip": "ym2612"
    },
    {
      "channel": 1,
      "note": 65,
      "start": 125.4082,
      "duration": 0.0139,
      "velocity": 117,
      "chip": "ym2612"
    },
    {
      "channel": 1,
      "note": 65,
      "start": 125.4221,
      "duration": 0.0846,
      "velocity": 117,
      "chip": "ym2612"
    },
    {
      "channel": 0,
      "note": 69,
      "start": 125.5063,
      "duration": 1.0948,
      "velocity": 104,
      "chip": "ym2612"
    },
    {
      "channel": 1,
      "note": 65,
      "start": 125.5069,
      "duration": 0.1156,
      "velocity": 117,
      "chip": "ym2612"
    },
    {
      "channel": 2,
      "note": 69,
      "start": 125.5074,
      "duration": 0.1156,
      "velocity": 102,
      "chip": "ym2612"
    },
    {
      "channel": 3,
      "note": 79,
      "start": 125.5095,
      "duration": 0.1156,
      "velocity": 127,
      "chip": "ym2612"
    },
    {
      "channel": 4,
      "note": 68,
      "start": 125.5101,
      "duration": 0.2265,
      "velocity": 104,
      "chip": "ym2612"
    },
    {
      "channel": 1,
      "note": 64,
      "start": 125.6226,
      "duration": 0.3244,
      "velocity": 117,
      "chip": "ym2612"
    },
    {
      "channel": 2,
      "note": 68,
      "start": 125.6232,
      "duration": 0.2212,
      "velocity": 102,
      "chip": "ym2612"
    },
    {
      "channel": 3,
      "note": 79,
      "start": 125.6253,
      "duration": 0.2212,
      "velocity": 121,
      "chip": "ym2612"
    },
    {
      "channel": 4,
      "note": 69,
      "start": 125.7368,
      "duration": 1.0959,
      "velocity": 104,
      "chip": "ym2612"
    },
    {
      "channel": 2,
      "note": 69,
      "start": 125.8446,
      "duration": 0.3261,
      "velocity": 102,
      "chip": "ym2612"
    },
    {
      "channel": 3,
      "note": 79,
      "start": 125.8467,
      "duration": 0.1025,
      "velocity": 127,
      "chip": "ym2612"
    },
    {
      "channel": 1,
      "note": 62,
      "start": 125.9472,
      "duration": 0.2229,
      "velocity": 117,
      "chip": "ym2612"
    },
    {
      "channel": 3,
      "note": 79,
      "start": 125.9495,
      "duration": 0.2234,
      "velocity": 121,
      "chip": "ym2612"
    },
    {
      "channel": 1,
      "note": 57,
      "start": 126.1703,
      "duration": 0.119,
      "velocity": 117,
      "chip": "ym2612"
    },
    {
      "channel": 2,
      "note": 65,
      "start": 126.1709,
      "duration": 0.119,
      "velocity": 102,
      "chip": "ym2612"
    },
    {
      "channel": 3,
      "note": 79,
      "start": 126.173,
      "duration": 0.0562,
      "velocity": 121,
      "chip": "ym2612"
    },
    {
      "channel": 3,
      "note": 79,
      "start": 126.2295,
      "duration": 0.0626,
      "velocity": 127,
      "chip": "ym2612"
    },
    {
      "channel": 1,
      "note": 53,
      "start": 126.2895,
      "duration": 0.1005,
      "velocity": 117,
      "chip": "ym2612"
    },
    {
      "channel": 2,
      "note": 64,
      "start": 126.2901,
      "duration": 0.2071,
      "velocity": 102,
      "chip": "ym2612"
    },
    {
      "channel": 3,
      "note": 79,
      "start": 126.2922,
      "duration": 0.2056,
      "velocity": 127,
      "chip": "ym2612"
    },
    {
      "channel": 1,
      "note": 52,
      "start": 126.3902,
      "duration": 0.1065,
      "velocity": 117,
      "chip": "ym2612"
    },
    {
      "channel": 1,
      "note": 50,
      "start": 126.4968,
      "duration": 0.1049,
      "velocity": 117,
      "chip": "ym2612"
    },
    {
      "channel": 2,
      "note": 62,
      "start": 126.4974,
      "duration": 0.1049,
      "velocity": 102,
      "chip": "ym2612"
    },
    {
      "channel": 3,
      "note": 79,
      "start": 126.4979,
      "duration": 0.3326,
      "velocity": 121,
      "chip": "ym2612"
    },
    {
      "channel": 0,
      "note": 65,
      "start": 126.6013,
      "duration": 0.227,
      "velocity": 104,
      "chip": "ym2612"
    },
    {
      "channel": 1,
      "note": 50,
      "start": 126.6019,
      "duration": 0.3439,
      "velocity": 117,
      "chip": "ym2612"
    },
    {
      "channel": 2,
      "note": 57,
      "start": 126.6025,
      "duration": 0.6529,
      "velocity": 102,
      "chip": "ym2612"
    },
    {
      "channel": 0,
      "note": 67,
      "start": 126.8285,
      "duration": 0.0498,
      "velocity": 104,
      "chip": "ym2612"
    },
    {
      "channel": 3,
      "note": 79,
      "start": 126.8307,
      "duration": 0.1173,
      "velocity": 127,
      "chip": "ym2612"
    },
    {
      "channel": 4,
      "note": 65,
      "start": 126.8329,
      "duration": 0.2132,
      "velocity": 104,
      "chip": "ym2612"
    },
    {
      "channel": 0,
      "note": 65,
      "start": 126.8785,
      "duration": 0.0668,
      "velocity": 104,
      "chip": "ym2612"
    },
    {
      "channel": 0,
      "note": 64,
      "start": 126.9454,
      "duration": 0.5371,
      "velocity": 104,
      "chip": "ym2612"
    },
    {
      "channel": 1,
      "note": 52,
      "start": 126.946,
      "duration": 0.3088,
      "velocity": 117,
      "chip": "ym2612"
    },
    {
      "channel": 3,
      "note": 79,
      "start": 126.9482,
      "duration": 0.3077,
      "velocity": 127,
      "chip": "ym2612"
    },
    {
      "channel": 4,
      "note": 67,
      "start": 127.0463,
      "duration": 0.0588,
      "velocity": 104,
      "chip": "ym2612"
    },
    {
      "channel": 4,
      "note": 65,
      "start": 127.1053,
      "duration": 0.0449,
      "velocity": 104,
      "chip": "ym2612"
    },
    {
      "channel": 4,
      "note": 64,
      "start": 127.1504,
      "duration": 0.5487,
      "velocity": 104,
      "chip": "ym2612"
    },
    {
      "channel": 1,
      "note": 53,
      "start": 127.255,
      "duration": 0.345,
      "velocity": 117,
      "chip": "ym2612"
    },
    {
      "channel": 2,
      "note": 62,
      "start": 127.2555,
      "duration": 0.8789,
      "velocity": 104,
      "chip": "ym2612"
    },
    {
      "channel": 3,
      "note": 79,
      "start": 127.2561,
      "duration": 0.2271,
      "velocity": 127,
      "chip": "ym2612"
    },
    {
      "channel": 0,
      "note": 57,
      "start": 127.4827,
      "duration": 0.1168,
      "velocity": 104,
      "chip": "ym2612"
    },
    {
      "channel": 3,
      "note": 79,
      "start": 127.4834,
      "duration": 0.3277,
      "velocity": 121,
      "chip": "ym2612"
    },
    {
      "channel": 0,
      "note": 62,
      "start": 127.5997,
      "duration": 0.2092,
      "velocity": 104,
      "chip": "ym2612"
    },
    {
      "channel": 1,
      "note": 55,
      "start": 127.6002,
      "duration": 0.3217,
      "velocity": 117,
      "chip": "ym2612"
    },
    {
      "channel": 4,
      "note": 57,
      "start": 127.6993,
      "duration": 0.1124,
      "velocity": 104,
      "chip": "ym2612"
    },
    {
      "channel": 0,
      "note": 59,
      "start": 127.809,
      "duration": 1.4172,
      "velocity": 104,
      "chip": "ym2612"
    },
    {
      "channel": 3,
      "note": 79,
      "start": 127.8112,
      "duration": 0.0547,
      "velocity": 121,
      "chip": "ym2612"
    },
    {
      "channel": 4,
      "note": 62,
      "start": 127.8118,
      "duration": 0.2136,
      "velocity": 104,
      "chip": "ym2612"
    },
    {
      "channel": 3,
      "note": 79,
      "start": 127.8661,
      "duration": 0.0578,
      "velocity": 127,
      "chip": "ym2612"
    },
    {
      "channel": 1,
      "note": 57,
      "start": 127.922,
      "duration": 0.3299,
      "velocity": 117,
      "chip": "ym2612"
    },
    {
      "channel": 3,
      "note": 79,
      "start": 127.9241,
      "duration": 0.2124,
      "velocity": 121,
      "chip": "ym2612"
    },
    {
      "channel": 4,
      "note": 59,
      "start": 128.0257,
      "duration": 1.4155,
      "velocity": 104,
      "chip": "ym2612"
    },
    {
      "channel": 2,
      "note": 69,
      "start": 128.1346,
      "duration": 0.1178,
      "velocity": 104,
      "chip": "ym2612"
    },
    {
      "channel": 3,
      "note": 79,
      "start": 128.1368,
      "duration": 0.1178,
      "velocity": 127,
      "chip": "ym2612"
    },
    {
      "channel": 1,
      "note": 55,
      "start": 128.2521,
      "duration": 0.3213,
      "velocity": 117,
      "chip": "ym2612"
    },
    {
      "channel": 2,
      "note": 74,
      "start": 128.2526,
      "duration": 0.1004,
      "velocity": 104,
      "chip": "ym2612"
    },
    {
      "channel": 3,
      "note": 79,
      "start": 128.2548,
      "duration": 0.2161,
      "velocity": 121,
      "chip": "ym2612"
    },
    {
      "channel": 2,
      "note": 73,
      "start": 128.3532,
      "duration": 0.1156,
      "velocity": 104,
      "chip": "ym2612"
    },
    {
      "channel": 2,
      "note": 72,
      "start": 128.469,
      "duration": 0.105,
      "velocity": 104,
      "chip": "ym2612"
    },
    {
      "channel": 3,
      "note": 79,
      "start": 128.4711,
      "duration": 0.105,
      "velocity": 127,
      "chip": "ym2612"
    },
    {
      "channel": 1,
      "note": 53,
      "start": 128.5736,
      "duration": 0.3234,
      "velocity": 117,
      "chip": "ym2612"
    },
    {
      "channel": 2,
      "note": 71,
      "start": 128.5741,
      "duration": 0.2224,
      "velocity": 104,
      "chip": "ym2612"
    },
    {
      "channel": 3,
      "note": 79,
      "start": 128.5762,
      "duration": 0.2225,
      "velocity": 121,
      "chip": "ym2612"
    },
    {
      "channel": 2,
      "note": 69,
      "start": 128.7967,
      "duration": 0.4322,
      "velocity": 102,
      "chip": "ym2612"
    },
    {
      "channel": 3,
      "note": 79,
      "start": 128.7989,
      "duration": 0.0563,
      "velocity": 121,
      "chip": "ym2612"
    },
    {
      "channel": 3,
      "note": 79,
      "start": 128.8554,
      "duration": 0.0437,
      "velocity": 127,
      "chip": "ym2612"
    },
    {
      "channel": 1,
      "note": 52,
      "start": 128.8971,
      "duration": 0.3296,
      "velocity": 117,
      "chip": "ym2612"
    },
    {
      "channel": 3,
      "note": 79,
      "start": 128.8993,
      "duration": 0.2207,
      "velocity": 127,
      "chip": "ym2612"
    },
    {
      "channel": 3,
      "note": 79,
      "start": 129.1202,
      "duration": 0.3188,
      "velocity": 121,
      "chip": "ym2612"
    },
    {
      "channel": 0,
      "note": 62,
      "start": 129.2263,
      "duration": 0.2104,
      "velocity": 104,
      "chip": "ym2612"
    },
    {
      "channel": 1,
      "note": 50,
      "start": 129.227,
      "duration": 0.3415,
      "velocity": 117,
      "chip": "ym2612"
    },
    {
      "channel": 2,
      "note": 69,
      "start": 129.229,
      "duration": 0.6439,
      "velocity": 102,
      "chip": "ym2612"
    },
    {
      "channel": 0,
      "note": 65,
      "start": 129.4369,
      "duration": 0.3333,
      "velocity": 104,
      "chip": "ym2612"
    },
    {
      "channel": 3,
      "note": 79,
      "start": 129.4391,
      "duration": 0.1315,
      "velocity": 127,
      "chip": "ym2612"
    },
    {
      "channel": 4,
      "note": 62,
      "start": 129.4413,
      "duration": 0.2283,
      "velocity": 104,
      "chip": "ym2612"
    },
    {
      "channel": 1,
      "note": 57,
      "start": 129.5686,
      "duration": 0.3038,
      "velocity": 117,
      "chip": "ym2612"
    },
    {
      "channel": 3,
      "note": 79,
      "start": 129.5709,
      "duration": 0.3027,
      "velocity": 127,
      "chip": "ym2612"
    },
    {
      "channel": 4,
      "note": 65,
      "start": 129.6698,
      "duration": 0.3061,
      "velocity": 104,
      "chip": "ym2612"
    },
    {
      "channel": 0,
      "note": 73,
      "start": 129.7704,
      "duration": 0.1015,
      "velocity": 104,
      "chip": "ym2612"
    },
    {
      "channel": 0,
      "note": 72,
      "start": 129.872,
      "duration": 0.558,
      "velocity": 104,
      "chip": "ym2612"
    },
    {
      "channel": 1,
      "note": 62,
      "start": 129.8726,
      "duration": 0.3493,
      "velocity": 117,
      "chip": "ym2612"
    },
    {
      "channel": 2,
      "note": 62,
      "start": 129.8732,
      "duration": 0.5576,
      "velocity": 102,
      "chip": "ym2612"
    },
    {
      "channel": 3,
      "note": 79,
      "start": 129.8737,
      "duration": 0.2315,
      "velocity": 127,
      "chip": "ym2612"
    },
    {
      "channel": 4,
      "note": 73,
      "start": 129.9761,
      "duration": 0.1298,
      "velocity": 104,
      "chip": "ym2612"
    },
    {
      "channel": 3,
      "note": 79,
      "start": 130.1055,
      "duration": 0.3274,
      "velocity": 121,
      "chip": "ym2612"
    },
    {
      "channel": 4,
      "note": 72,
      "start": 130.106,
      "duration": 0.5408,
      "velocity": 104,
      "chip": "ym2612"
    },
    {
      "channel": 1,
      "note": 64,
      "start": 130.222,
      "duration": 0.3104,
      "velocity": 117,
      "chip": "ym2612"
    },
    {
      "channel": 0,
      "note": 65,
      "start": 130.4303,
      "duration": 0.1016,
      "velocity": 104,
      "chip": "ym2612"
    },
    {
      "channel": 2,
      "note": 64,
      "start": 130.4309,
      "duration": 0.1021,
      "velocity": 102,
      "chip": "ym2612"
    },
    {
      "channel": 3,
      "note": 79,
      "start": 130.433,
      "duration": 0.0536,
      "velocity": 121,
      "chip": "ym2612"
    },
    {
      "channel": 3,
      "note": 79,
      "start": 130.4868,
      "duration": 0.0483,
      "velocity": 127,
      "chip": "ym2612"
    },
    {
      "channel": 0,
      "note": 68,
      "start": 130.532,
      "duration": 0.2258,
      "velocity": 104,
      "chip": "ym2612"
    },
    {
      "channel": 1,
      "note": 64,
      "start": 130.5326,
      "duration": 0.1148,
      "velocity": 117,
      "chip": "ym2612"
    },
    {
      "channel": 2,
      "note": 65,
      "start": 130.5332,
      "duration": 0.3419,
      "velocity": 102,
      "chip": "ym2612"
    },
    {
      "channel": 3,
      "note": 79,
      "start": 130.5353,
      "duration": 0.2253,
      "velocity": 121,
      "chip": "ym2612"
    },
    {
      "channel": 4,
      "note": 65,
      "start": 130.647,
      "duration": 0.1141,
      "velocity": 104,
      "chip": "ym2612"
    },
    {
      "channel": 1,
      "note": 64,
      "start": 130.6475,
      "duration": 0.0119,
      "velocity": 117,
      "chip": "ym2612"
    },
    {
      "channel": 1,
      "note": 65,
      "start": 130.6594,
      "duration": 0.0139,
      "velocity": 117,
      "chip": "ym2612"
    },
    {
      "channel": 1,
      "note": 65,
      "start": 130.6733,
      "duration": 0.0851,
      "velocity": 117,
      "chip": "ym2612"
    },
    {
      "channel": 0,
      "note": 69,
      "start": 130.758,
      "duration": 1.0978,
      "velocity": 104,
      "chip": "ym2612"
    },
    {
      "channel": 1,
      "note": 65,
      "start": 130.7586,
      "duration": 0.116,
      "velocity": 117,
      "chip": "ym2612"
    },
    {
      "channel": 3,
      "note": 79,
      "start": 130.7608,
      "duration": 0.1165,
      "velocity": 127,
      "chip": "ym2612"
    },
    {
      "channel": 4,
      "note": 68,
      "start": 130.7613,
      "duration": 0.2159,
      "velocity": 104,
      "chip": "ym2612"
    },
    {
      "channel": 1,
      "note": 64,
      "start": 130.8747,
      "duration": 0.3214,
      "velocity": 117,
      "chip": "ym2612"
    },
    {
      "channel": 2,
      "note": 67,
      "start": 130.8753,
      "duration": 0.3214,
      "velocity": 102,
      "chip": "ym2612"
    },
    {
      "channel": 3,
      "note": 79,
      "start": 130.8774,
      "duration": 0.2038,
      "velocity": 121,
      "chip": "ym2612"
    },
    {
      "channel": 4,
      "note": 69,
      "start": 130.9774,
      "duration": 1.091,
      "velocity": 104,
      "chip": "ym2612"
    },
    {
      "channel": 3,
      "note": 79,
      "start": 131.0813,
      "duration": 0.1175,
      "velocity": 127,
      "chip": "ym2612"
    },
    {
      "channel": 1,
      "note": 62,
      "start": 131.1963,
      "duration": 0.2263,
      "velocity": 117,
      "chip": "ym2612"
    },
    {
      "channel": 2,
      "note": 69,
      "start": 131.1968,
      "duration": 0.3304,
      "velocity": 102,
      "chip": "ym2612"
    },
    {
      "channel": 3,
      "note": 79,
      "start": 131.199,
      "duration": 0.2257,
      "velocity": 121,
      "chip": "ym2612"
    },
    {
      "channel": 1,
      "note": 57,
      "start": 131.4227,
      "duration": 0.104,
      "velocity": 117,
      "chip": "ym2612"
    },
    {
      "channel": 3,
      "note": 79,
      "start": 131.4249,
      "duration": 0.0565,
      "velocity": 121,
      "chip": "ym2612"
    },
    {
      "channel": 3,
      "note": 79,
      "start": 131.4816,
      "duration": 0.0478,
      "velocity": 127,
      "chip": "ym2612"
    },
    {
      "channel": 1,
      "note": 53,
      "start": 131.5269,
      "duration": 0.1032,
      "velocity": 117,
      "chip": "ym2612"
    },
    {
      "channel": 2,
      "note": 74,
      "start": 131.5274,
      "duration": 0.3296,
      "velocity": 102,
      "chip": "ym2612"
    },
    {
      "channel": 3,
      "note": 79,
      "start": 131.5295,
      "duration": 0.2225,
      "velocity": 127,
      "chip": "ym2612"
    },
    {
      "channel": 1,
      "note": 52,
      "start": 131.6302,
      "duration": 0.1212,
      "velocity": 117,
      "chip": "ym2612"
    },
    {
      "channel": 1,
      "note": 50,
      "start": 131.7516,
      "duration": 0.1048,
      "velocity": 117,
      "chip": "ym2612"
    },
    {
      "channel": 3,
      "note": 79,
      "start": 131.7522,
      "duration": 0.3141,
      "velocity": 121,
      "chip": "ym2612"
    },
    {
      "channel": 0,
      "note": 65,
      "start": 131.8559,
      "duration": 0.2081,
      "velocity": 104,
      "chip": "ym2612"
    },
    {
      "channel": 1,
      "note": 50,
      "start": 131.8566,
      "duration": 0.325,
      "velocity": 117,
      "chip": "ym2612"
    },
    {
      "channel": 2,
      "note": 57,
      "start": 131.8572,
      "duration": 0.6464,
      "velocity": 102,
      "chip": "ym2612"
    },
    {
      "channel": 0,
      "note": 67,
      "start": 132.0642,
      "duration": 0.0666,
      "velocity": 104,
      "chip": "ym2612"
    },
    {
      "channel": 3,
      "note": 79,
      "start": 132.0665,
      "duration": 0.1173,
      "velocity": 127,
      "chip": "ym2612"
    },
    {
      "channel": 4,
      "note": 65,
      "start": 132.0687,
      "duration": 0.2258,
      "velocity": 104,
      "chip": "ym2612"
    },
    {
      "channel": 0,
      "note": 65,
      "start": 132.1309,
      "duration": 0.0501,
      "velocity": 104,
      "chip": "ym2612"
    },
    {
      "channel": 0,
      "note": 64,
      "start": 132.1812,
      "duration": 0.5327,
      "velocity": 104,
      "chip": "ym2612"
    },
    {
      "channel": 1,
      "note": 52,
      "start": 132.1818,
      "duration": 0.3213,
      "velocity": 117,
      "chip": "ym2612"
    },
    {
      "channel": 3,
      "note": 79,
      "start": 132.1839,
      "duration": 0.3203,
      "velocity": 127,
      "chip": "ym2612"
    },
    {
      "channel": 4,
      "note": 67,
      "start": 132.2946,
      "duration": 0.0451,
      "velocity": 104,
      "chip": "ym2612"
    },
    {
      "channel": 4,
      "note": 65,
      "start": 132.3398,
      "duration": 0.0575,
      "velocity": 104,
      "chip": "ym2612"
    },
    {
      "channel": 4,
      "note": 64,
      "start": 132.3973,
      "duration": 0.5481,
      "velocity": 104,
      "chip": "ym2612"
    },
    {
      "channel": 1,
      "note": 53,
      "start": 132.5032,
      "duration": 0.3449,
      "velocity": 117,
      "chip": "ym2612"
    },
    {
      "channel": 2,
      "note": 62,
      "start": 132.5038,
      "duration": 0.8737,
      "velocity": 104,
      "chip": "ym2612"
    },
    {
      "channel": 3,
      "note": 79,
      "start": 132.5044,
      "duration": 0.2102,
      "velocity": 127,
      "chip": "ym2612"
    },
    {
      "channel": 0,
      "note": 57,
      "start": 132.7141,
      "duration": 0.1334,
      "velocity": 104,
      "chip": "ym2612"
    },
    {
      "channel": 3,
      "note": 79,
      "start": 132.7147,
      "duration": 0.3412,
      "velocity": 121,
      "chip": "ym2612"
    },
    {
      "channel": 0,
      "note": 61,
      "start": 132.8477,
      "duration": 0.206,
      "velocity": 104,
      "chip": "ym2612"
    },
    {
      "channel": 1,
      "note": 55,
      "start": 132.8482,
      "duration": 0.3025,
      "velocity": 117,
      "chip": "ym2612"
    },
    {
      "channel": 4,
      "note": 57,
      "start": 132.9456,
      "duration": 0.1108,
      "velocity": 104,
      "chip": "ym2612"
    },
    {
      "channel": 0,
      "note": 62,
      "start": 133.0538,
      "duration": 1.4312,
      "velocity": 104,
      "chip": "ym2612"
    },
    {
      "channel": 3,
      "note": 79,
      "start": 133.0561,
      "duration": 0.0527,
      "velocity": 121,
      "chip": "ym2612"
    },
    {
      "channel": 4,
      "note": 61,
      "start": 133.0567,
      "duration": 0.1928,
      "velocity": 104,
      "chip": "ym2612"
    },
    {
      "channel": 3,
      "note": 79,
      "start": 133.109,
      "duration": 0.0439,
      "velocity": 127,
      "chip": "ym2612"
    },
    {
      "channel": 1,
      "note": 57,
      "start": 133.1509,
      "duration": 0.3441,
      "velocity": 117,
      "chip": "ym2612"
    },
    {
      "channel": 3,
      "note": 79,
      "start": 133.1531,
      "duration": 0.2265,
      "velocity": 121,
      "chip": "ym2612"
    },
    {
      "channel": 4,
      "note": 62,
      "start": 133.2497,
      "duration": 1.4508,
      "velocity": 104,
      "chip": "ym2612"
    },
    {
      "channel": 2,
      "note": 69,
      "start": 133.3776,
      "duration": 0.1179,
      "velocity": 104,
      "chip": "ym2612"
    },
    {
      "channel": 3,
      "note": 79,
      "start": 133.3798,
      "duration": 0.1179,
      "velocity": 127,
      "chip": "ym2612"
    },
    {
      "channel": 1,
      "note": 55,
      "start": 133.4951,
      "duration": 0.316,
      "velocity": 117,
      "chip": "ym2612"
    },
    {
      "channel": 2,
      "note": 73,
      "start": 133.4957,
      "duration": 0.2087,
      "velocity": 104,
      "chip": "ym2612"
    },
    {
      "channel": 3,
      "note": 79,
      "start": 133.4979,
      "duration": 0.2087,
      "velocity": 121,
      "chip": "ym2612"
    },
    {
      "channel": 2,
      "note": 74,
      "start": 133.7046,
      "duration": 0.3476,
      "velocity": 104,
      "chip": "ym2612"
    },
    {
      "channel": 3,
      "note": 79,
      "start": 133.7068,
      "duration": 0.1065,
      "velocity": 127,
      "chip": "ym2612"
    },
    {
      "channel": 1,
      "note": 53,
      "start": 133.8113,
      "duration": 0.3443,
      "velocity": 117,
      "chip": "ym2612"
    },
    {
      "channel": 3,
      "note": 79,
      "start": 133.8135,
      "duration": 0.2408,
      "velocity": 121,
      "chip": "ym2612"
    },
    {
      "channel": 2,
      "note": 69,
      "start": 134.0524,
      "duration": 0.1037,
      "velocity": 104,
      "chip": "ym2612"
    },
    {
      "channel": 3,
      "note": 79,
      "start": 134.0546,
      "duration": 0.0449,
      "velocity": 121,
      "chip": "ym2612"
    },
    {
      "channel": 3,
      "note": 79,
      "start": 134.0996,
      "duration": 0.0587,
      "velocity": 127,
      "chip": "ym2612"
    },
    {
      "channel": 1,
      "note": 52,
      "start": 134.1557,
      "duration": 0.3298,
      "velocity": 117,
      "chip": "ym2612"
    },
    {
      "channel": 2,
      "note": 65,
      "start": 134.1563,
      "duration": 0.1023,
      "velocity": 104,
      "chip": "ym2612"
    },
    {
      "channel": 3,
      "note": 79,
      "start": 134.1585,
      "duration": 0.2021,
      "velocity": 127,
      "chip": "ym2612"
    },
    {
      "channel": 2,
      "note": 64,
      "start": 134.2588,
      "duration": 0.1012,
      "velocity": 104,
      "chip": "ym2612"
    },
    {
      "channel": 2,
      "note": 62,
      "start": 134.3602,
      "duration": 0.1275,
      "velocity": 102,
      "chip": "ym2612"
    },
    {
      "channel": 3,
      "note": 79,
      "start": 134.3607,
      "duration": 0.3376,
      "velocity": 121,
      "chip": "ym2612"
    },
    {
      "channel": 0,
      "note": 74,
      "start": 134.4851,
      "duration": 0.211,
      "velocity": 104,
      "chip": "ym2612"
    },
    {
      "channel": 1,
      "note": 50,
      "start": 134.4857,
      "duration": 0.3256,
      "velocity": 117,
      "chip": "ym2612"
    },
    {
      "channel": 2,
      "note": 69,
      "start": 134.4879,
      "duration": 1.3109,
      "velocity": 102,
      "chip": "ym2612"
    },
    {
      "channel": 0,
      "note": 77,
      "start": 134.6963,
      "duration": 0.3407,
      "velocity": 104,
      "chip": "ym2612"
    },
    {
      "channel": 3,
      "note": 79,
      "start": 134.6985,
      "duration": 0.115,
      "velocity": 127,
      "chip": "ym2612"
    },
    {
      "channel": 4,
      "note": 74,
      "start": 134.7007,
      "duration": 0.2153,
      "velocity": 104,
      "chip": "ym2612"
    },
    {
      "channel": 1,
      "note": 57,
      "start": 134.8115,
      "duration": 0.33,
      "velocity": 117,
      "chip": "ym2612"
    },
    {
      "channel": 3,
      "note": 79,
      "start": 134.8136,
      "duration": 0.3285,
      "velocity": 127,
      "chip": "ym2612"
    },
    {
      "channel": 4,
      "note": 77,
      "start": 134.9161,
      "duration": 0.3276,
      "velocity": 104,
      "chip": "ym2612"
    },
    {
      "channel": 0,
      "note": 85,
      "start": 135.0372,
      "duration": 0.1037,
      "velocity": 104,
      "chip": "ym2612"
    },
    {
      "channel": 0,
      "note": 84,
      "start": 135.1411,
      "duration": 0.5518,
      "velocity": 104,
      "chip": "ym2612"
    },
    {
      "channel": 1,
      "note": 62,
      "start": 135.1417,
      "duration": 0.3298,
      "velocity": 117,
      "chip": "ym2612"
    },
    {
      "channel": 3,
      "note": 79,
      "start": 135.1423,
      "duration": 0.2127,
      "velocity": 127,
      "chip": "ym2612"
    },
    {
      "channel": 4,
      "note": 85,
      "start": 135.2439,
      "duration": 0.1116,
      "velocity": 104,
      "chip": "ym2612"
    },
    {
      "channel": 3,
      "note": 79,
      "start": 135.3552,
      "duration": 0.34,
      "velocity": 121,
      "chip": "ym2612"
    },
    {
      "channel": 4,
      "note": 84,
      "start": 135.3557,
      "duration": 0.5479,
      "velocity": 104,
      "chip": "ym2612"
    },
    {
      "channel": 1,
      "note": 64,
      "start": 135.4717,
      "duration": 0.3265,
      "velocity": 117,
      "chip": "ym2612"
    },
    {
      "channel": 0,
      "note": 77,
      "start": 135.693,
      "duration": 0.1046,
      "velocity": 104,
      "chip": "ym2612"
    },
    {
      "channel": 3,
      "note": 79,
      "start": 135.6953,
      "duration": 0.0409,
      "velocity": 121,
      "chip": "ym2612"
    },
    {
      "channel": 3,
      "note": 79,
      "start": 135.7364,
      "duration": 0.0645,
      "velocity": 127,
      "chip": "ym2612"
    },
    {
      "channel": 0,
      "note": 80,
      "start": 135.7978,
      "duration": 0.2127,
      "velocity": 104,
      "chip": "ym2612"
    },
    {
      "channel": 1,
      "note": 64,
      "start": 135.7984,
      "duration": 0.1058,
      "velocity": 117,
      "chip": "ym2612"
    },
    {
      "channel": 2,
      "note": 69,
      "start": 135.799,
      "duration": 0.2126,
      "velocity": 102,
      "chip": "ym2612"
    },
    {
      "channel": 3,
      "note": 79,
      "start": 135.8011,
      "duration": 0.2127,
      "velocity": 121,
      "chip": "ym2612"
    },
    {
      "channel": 4,
      "note": 77,
      "start": 135.9038,
      "duration": 0.1105,
      "velocity": 104,
      "chip": "ym2612"
    },
    {
      "channel": 1,
      "note": 64,
      "start": 135.9042,
      "duration": 0.0121,
      "velocity": 117,
      "chip": "ym2612"
    },
    {
      "channel": 1,
      "note": 65,
      "start": 135.9162,
      "duration": 0.0278,
      "velocity": 117,
      "chip": "ym2612"
    },
    {
      "channel": 1,
      "note": 65,
      "start": 135.944,
      "duration": 0.0671,
      "velocity": 117,
      "chip": "ym2612"
    },
    {
      "channel": 0,
      "note": 81,
      "start": 136.0107,
      "duration": 1.0992,
      "velocity": 104,
      "chip": "ym2612"
    },
    {
      "channel": 1,
      "note": 65,
      "start": 136.0112,
      "duration": 0.1323,
      "velocity": 117,
      "chip": "ym2612"
    },
    {
      "channel": 2,
      "note": 69,
      "start": 136.0118,
      "duration": 0.1323,
      "velocity": 102,
      "chip": "ym2612"
    },
    {
      "channel": 3,
      "note": 79,
      "start": 136.0139,
      "duration": 0.1323,
      "velocity": 127,
      "chip": "ym2612"
    },
    {
      "channel": 4,
      "note": 80,
      "start": 136.0144,
      "duration": 0.2281,
      "velocity": 104,
      "chip": "ym2612"
    },
    {
      "channel": 1,
      "note": 64,
      "start": 136.1437,
      "duration": 0.3101,
      "velocity": 117,
      "chip": "ym2612"
    },
    {
      "channel": 2,
      "note": 68,
      "start": 136.1443,
      "duration": 0.203,
      "velocity": 102,
      "chip": "ym2612"
    },
    {
      "channel": 3,
      "note": 79,
      "start": 136.1464,
      "duration": 0.2031,
      "velocity": 121,
      "chip": "ym2612"
    },
    {
      "channel": 4,
      "note": 81,
      "start": 136.2427,
      "duration": 1.0983,
      "velocity": 104,
      "chip": "ym2612"
    },
    {
      "channel": 2,
      "note": 69,
      "start": 136.3475,
      "duration": 0.3478,
      "velocity": 102,
      "chip": "ym2612"
    },
    {
      "channel": 3,
      "note": 79,
      "start": 136.3496,
      "duration": 0.1063,
      "velocity": 127,
      "chip": "ym2612"
    },
    {
      "channel": 1,
      "note": 62,
      "start": 136.4539,
      "duration": 0.2407,
      "velocity": 117,
      "chip": "ym2612"
    },
    {
      "channel": 3,
      "note": 79,
      "start": 136.4562,
      "duration": 0.2413,
      "velocity": 121,
      "chip": "ym2612"
    },
    {
      "channel": 1,
      "note": 57,
      "start": 136.6949,
      "duration": 0.1024,
      "velocity": 117,
      "chip": "ym2612"
    },
    {
      "channel": 2,
      "note": 65,
      "start": 136.6955,
      "duration": 0.1023,
      "velocity": 102,
      "chip": "ym2612"
    },
    {
      "channel": 3,
      "note": 79,
      "start": 136.6976,
      "duration": 0.0423,
      "velocity": 121,
      "chip": "ym2612"
    },
    {
      "channel": 3,
      "note": 79,
      "start": 136.74,
      "duration": 0.0599,
      "velocity": 127,
      "chip": "ym2612"
    },
    {
      "channel": 1,
      "note": 53,
      "start": 136.7974,
      "duration": 0.1038,
      "velocity": 117,
      "chip": "ym2612"
    },
    {
      "channel": 2,
      "note": 64,
      "start": 136.798,
      "duration": 0.205,
      "velocity": 102,
      "chip": "ym2612"
    },
    {
      "channel": 3,
      "note": 79,
      "start": 136.8001,
      "duration": 0.2034,
      "velocity": 127,
      "chip": "ym2612"
    },
    {
      "channel": 1,
      "note": 52,
      "start": 136.9013,
      "duration": 0.1011,
      "velocity": 117,
      "chip": "ym2612"
    },
    {
      "channel": 1,
      "note": 50,
      "start": 137.0026,
      "duration": 0.1079,
      "velocity": 117,
      "chip": "ym2612"
    },
    {
      "channel": 2,
      "note": 62,
      "start": 137.0032,
      "duration": 0.108,
      "velocity": 102,
      "chip": "ym2612"
    },
    {
      "channel": 3,
      "note": 79,
      "start": 137.0037,
      "duration": 0.3351,
      "velocity": 121,
      "chip": "ym2612"
    },
    {
      "channel": 0,
      "note": 77,
      "start": 137.11,
      "duration": 0.2266,
      "velocity": 104,
      "chip": "ym2612"
    },
    {
      "channel": 1,
      "note": 50,
      "start": 137.1107,
      "duration": 0.3434,
      "velocity": 117,
      "chip": "ym2612"
    },
    {
      "channel": 2,
      "note": 57,
      "start": 137.1113,
      "duration": 0.6728,
      "velocity": 102,
      "chip": "ym2612"
    },
    {
      "channel": 0,
      "note": 79,
      "start": 137.3367,
      "duration": 0.05,
      "velocity": 104,
      "chip": "ym2612"
    },
    {
      "channel": 3,
      "note": 79,
      "start": 137.339,
      "duration": 0.1173,
      "velocity": 127,
      "chip": "ym2612"
    },
    {
      "channel": 4,
      "note": 77,
      "start": 137.3412,
      "duration": 0.2158,
      "velocity": 104,
      "chip": "ym2612"
    },
    {
      "channel": 0,
      "note": 77,
      "start": 137.3868,
      "duration": 0.0668,
      "velocity": 104,
      "chip": "ym2612"
    },
    {
      "channel": 0,
      "note": 76,
      "start": 137.4537,
      "duration": 0.5374,
      "velocity": 104,
      "chip": "ym2612"
    },
    {
      "channel": 1,
      "note": 52,
      "start": 137.4543,
      "duration": 0.3293,
      "velocity": 117,
      "chip": "ym2612"
    },
    {
      "channel": 3,
      "note": 79,
      "start": 137.4565,
      "duration": 0.3282,
      "velocity": 127,
      "chip": "ym2612"
    },
    {
      "channel": 4,
      "note": 79,
      "start": 137.5572,
      "duration": 0.0606,
      "velocity": 104,
      "chip": "ym2612"
    },
    {
      "channel": 4,
      "note": 77,
      "start": 137.618,
      "duration": 0.0415,
      "velocity": 104,
      "chip": "ym2612"
    },
    {
      "channel": 4,
      "note": 76,
      "start": 137.6598,
      "duration": 0.5472,
      "velocity": 104,
      "chip": "ym2612"
    },
    {
      "channel": 1,
      "note": 53,
      "start": 137.7838,
      "duration": 0.3249,
      "velocity": 117,
      "chip": "ym2612"
    },
    {
      "channel": 2,
      "note": 62,
      "start": 137.7844,
      "duration": 0.8588,
      "velocity": 104,
      "chip": "ym2612"
    },
    {
      "channel": 3,
      "note": 79,
      "start": 137.7849,
      "duration": 0.2069,
      "velocity": 127,
      "chip": "ym2612"
    },
    {
      "channel": 0,
      "note": 69,
      "start": 137.9913,
      "duration": 0.1168,
      "velocity": 104,
      "chip": "ym2612"
    },
    {
      "channel": 3,
      "note": 79,
      "start": 137.992,
      "duration": 0.3362,
      "velocity": 121,
      "chip": "ym2612"
    },
    {
      "channel": 0,
      "note": 74,
      "start": 138.1083,
      "duration": 0.2177,
      "velocity": 104,
      "chip": "ym2612"
    },
    {
      "channel": 1,
      "note": 55,
      "start": 138.1089,
      "duration": 0.3178,
      "velocity": 117,
      "chip": "ym2612"
    },
    {
      "channel": 4,
      "note": 69,
      "start": 138.2072,
      "duration": 0.1216,
      "velocity": 104,
      "chip": "ym2612"
    },
    {
      "channel": 0,
      "note": 71,
      "start": 138.3261,
      "duration": 1.4157,
      "velocity": 104,
      "chip": "ym2612"
    },
    {
      "channel": 3,
      "note": 79,
      "start": 138.3284,
      "duration": 0.0425,
      "velocity": 121,
      "chip": "ym2612"
    },
    {
      "channel": 4,
      "note": 74,
      "start": 138.329,
      "duration": 0.2008,
      "velocity": 104,
      "chip": "ym2612"
    },
    {
      "channel": 3,
      "note": 79,
      "start": 138.371,
      "duration": 0.0578,
      "velocity": 127,
      "chip": "ym2612"
    },
    {
      "channel": 1,
      "note": 57,
      "start": 138.4268,
      "duration": 0.3338,
      "velocity": 117,
      "chip": "ym2612"
    },
    {
      "channel": 3,
      "note": 79,
      "start": 138.4291,
      "duration": 0.2162,
      "velocity": 121,
      "chip": "ym2612"
    },
    {
      "channel": 4,
      "note": 71,
      "start": 138.5299,
      "duration": 1.4435,
      "velocity": 104,
      "chip": "ym2612"
    },
    {
      "channel": 2,
      "note": 69,
      "start": 138.6433,
      "duration": 0.1179,
      "velocity": 104,
      "chip": "ym2612"
    },
    {
      "channel": 3,
      "note": 79,
      "start": 138.6455,
      "duration": 0.1179,
      "velocity": 127,
      "chip": "ym2612"
    },
    {
      "channel": 1,
      "note": 55,
      "start": 138.7608,
      "duration": 0.3239,
      "velocity": 117,
      "chip": "ym2612"
    },
    {
      "channel": 2,
      "note": 74,
      "start": 138.7614,
      "duration": 0.1174,
      "velocity": 104,
      "chip": "ym2612"
    },
    {
      "channel": 3,
      "note": 79,
      "start": 138.7635,
      "duration": 0.2211,
      "velocity": 121,
      "chip": "ym2612"
    },
    {
      "channel": 2,
      "note": 73,
      "start": 138.8789,
      "duration": 0.1036,
      "velocity": 104,
      "chip": "ym2612"
    },
    {
      "channel": 2,
      "note": 72,
      "start": 138.9827,
      "duration": 0.1026,
      "velocity": 104,
      "chip": "ym2612"
    },
    {
      "channel": 3,
      "note": 79,
      "start": 138.9848,
      "duration": 0.1026,
      "velocity": 127,
      "chip": "ym2612"
    },
    {
      "channel": 1,
      "note": 53,
      "start": 139.0849,
      "duration": 0.3472,
      "velocity": 117,
      "chip": "ym2612"
    },
    {
      "channel": 2,
      "note": 71,
      "start": 139.0855,
      "duration": 0.2243,
      "velocity": 104,
      "chip": "ym2612"
    },
    {
      "channel": 3,
      "note": 79,
      "start": 139.0876,
      "duration": 0.2243,
      "velocity": 121,
      "chip": "ym2612"
    },
    {
      "channel": 2,
      "note": 69,
      "start": 139.31,
      "duration": 0.4346,
      "velocity": 102,
      "chip": "ym2612"
    },
    {
      "channel": 3,
      "note": 79,
      "start": 139.3121,
      "duration": 0.0589,
      "velocity": 121,
      "chip": "ym2612"
    },
    {
      "channel": 3,
      "note": 79,
      "start": 139.3712,
      "duration": 0.0631,
      "velocity": 127,
      "chip": "ym2612"
    },
    {
      "channel": 1,
      "note": 52,
      "start": 139.4322,
      "duration": 0.3102,
      "velocity": 117,
      "chip": "ym2612"
    },
    {
      "channel": 3,
      "note": 79,
      "start": 139.4344,
      "duration": 0.2028,
      "velocity": 127,
      "chip": "ym2612"
    },
    {
      "channel": 3,
      "note": 79,
      "start": 139.6375,
      "duration": 0.3338,
      "velocity": 121,
      "chip": "ym2612"
    },
    {
      "channel": 0,
      "note": 74,
      "start": 139.742,
      "duration": 0.2269,
      "velocity": 104,
      "chip": "ym2612"
    },
    {
      "channel": 1,
      "note": 62,
      "start": 139.7427,
      "duration": 0.3415,
      "velocity": 117,
      "chip": "ym2612"
    },
    {
      "channel": 2,
      "note": 69,
      "start": 139.7447,
      "duration": 1.3223,
      "velocity": 102,
      "chip": "ym2612"
    },
    {
      "channel": 0,
      "note": 77,
      "start": 139.9691,
      "duration": 0.3265,
      "velocity": 104,
      "chip": "ym2612"
    },
    {
      "channel": 3,
      "note": 79,
      "start": 139.9714,
      "duration": 0.1149,
      "velocity": 127,
      "chip": "ym2612"
    },
    {
      "channel": 4,
      "note": 74,
      "start": 139.9735,
      "duration": 0.2164,
      "velocity": 104,
      "chip": "ym2612"
    },
    {
      "channel": 1,
      "note": 57,
      "start": 140.0843,
      "duration": 0.3143,
      "velocity": 117,
      "chip": "ym2612"
    },
    {
      "channel": 3,
      "note": 79,
      "start": 140.0865,
      "duration": 0.3127,
      "velocity": 127,
      "chip": "ym2612"
    },
    {
      "channel": 4,
      "note": 77,
      "start": 140.1902,
      "duration": 0.3244,
      "velocity": 104,
      "chip": "ym2612"
    },
    {
      "channel": 0,
      "note": 85,
      "start": 140.2958,
      "duration": 0.1023,
      "velocity": 104,
      "chip": "ym2612"
    },
    {
      "channel": 0,
      "note": 84,
      "start": 140.3982,
      "duration": 0.5506,
      "velocity": 104,
      "chip": "ym2612"
    },
    {
      "channel": 1,
      "note": 53,
      "start": 140.3988,
      "duration": 0.3488,
      "velocity": 117,
      "chip": "ym2612"
    },
    {
      "channel": 3,
      "note": 79,
      "start": 140.3994,
      "duration": 0.2317,
      "velocity": 127,
      "chip": "ym2612"
    },
    {
      "channel": 4,
      "note": 85,
      "start": 140.5148,
      "duration": 0.1169,
      "velocity": 104,
      "chip": "ym2612"
    },
    {
      "channel": 3,
      "note": 79,
      "start": 140.6313,
      "duration": 0.3198,
      "velocity": 121,
      "chip": "ym2612"
    },
    {
      "channel": 4,
      "note": 84,
      "start": 140.6319,
      "duration": 0.5375,
      "velocity": 104,
      "chip": "ym2612"
    },
    {
      "channel": 1,
      "note": 50,
      "start": 140.7478,
      "duration": 0.3186,
      "velocity": 117,
      "chip": "ym2612"
    },
    {
      "channel": 0,
      "note": 77,
      "start": 140.949,
      "duration": 0.1169,
      "velocity": 104,
      "chip": "ym2612"
    },
    {
      "channel": 3,
      "note": 79,
      "start": 140.9512,
      "duration": 0.0548,
      "velocity": 121,
      "chip": "ym2612"
    },
    {
      "channel": 3,
      "note": 79,
      "start": 141.0062,
      "duration": 0.0629,
      "velocity": 127,
      "chip": "ym2612"
    },
    {
      "channel": 0,
      "note": 80,
      "start": 141.0661,
      "duration": 0.2103,
      "velocity": 104,
      "chip": "ym2612"
    },
    {
      "channel": 1,
      "note": 53,
      "start": 141.0666,
      "duration": 0.3265,
      "velocity": 117,
      "chip": "ym2612"
    },
    {
      "channel": 2,
      "note": 69,
      "start": 141.0672,
      "duration": 0.2098,
      "velocity": 102,
      "chip": "ym2612"
    },
    {
      "channel": 3,
      "note": 79,
      "start": 141.0693,
      "duration": 0.2098,
      "velocity": 121,
      "chip": "ym2612"
    },
    {
      "channel": 4,
      "note": 77,
      "start": 141.1695,
      "duration": 0.1102,
      "velocity": 104,
      "chip": "ym2612"
    },
    {
      "channel": 0,
      "note": 81,
      "start": 141.2766,
      "duration": 1.0895,
      "velocity": 104,
      "chip": "ym2612"
    },
    {
      "channel": 2,
      "note": 69,
      "start": 141.2771,
      "duration": 0.1165,
      "velocity": 102,
      "chip": "ym2612"
    },
    {
      "channel": 3,
      "note": 79,
      "start": 141.2793,
      "duration": 0.1165,
      "velocity": 127,
      "chip": "ym2612"
    },
    {
      "channel": 4,
      "note": 80,
      "start": 141.2799,
      "duration": 0.2157,
      "velocity": 104,
      "chip": "ym2612"
    },
    {
      "channel": 1,
      "note": 55,
      "start": 141.3932,
      "duration": 0.3222,
      "velocity": 117,
      "chip": "ym2612"
    },
    {
      "channel": 2,
      "note": 68,
      "start": 141.3938,
      "duration": 0.2171,
      "velocity": 102,
      "chip": "ym2612"
    },
    {
      "channel": 3,
      "note": 79,
      "start": 141.396,
      "duration": 0.2171,
      "velocity": 121,
      "chip": "ym2612"
    },
    {
      "channel": 4,
      "note": 81,
      "start": 141.4957,
      "duration": 1.0858,
      "velocity": 104,
      "chip": "ym2612"
    },
    {
      "channel": 2,
      "note": 69,
      "start": 141.6111,
      "duration": 0.331,
      "velocity": 102,
      "chip": "ym2612"
    },
    {
      "channel": 3,
      "note": 79,
      "start": 141.6132,
      "duration": 0.1043,
      "velocity": 127,
      "chip": "ym2612"
    },
    {
      "channel": 1,
      "note": 57,
      "start": 141.7155,
      "duration": 0.3283,
      "velocity": 117,
      "chip": "ym2612"
    },
    {
      "channel": 3,
      "note": 79,
      "start": 141.7178,
      "duration": 0.2265,
      "velocity": 121,
      "chip": "ym2612"
    },
    {
      "channel": 2,
      "note": 65,
      "start": 141.9423,
      "duration": 0.1021,
      "velocity": 102,
      "chip": "ym2612"
    },
    {
      "channel": 3,
      "note": 79,
      "start": 141.9444,
      "duration": 0.0542,
      "velocity": 121,
      "chip": "ym2612"
    },
    {
      "channel": 3,
      "note": 79,
      "start": 141.9988,
      "duration": 0.0478,
      "velocity": 127,
      "chip": "ym2612"
    },
    {
      "channel": 1,
      "note": 62,
      "start": 142.044,
      "duration": 0.3226,
      "velocity": 117,
      "chip": "ym2612"
    },
    {
      "channel": 2,
      "note": 64,
      "start": 142.0446,
      "duration": 0.2172,
      "velocity": 102,
      "chip": "ym2612"
    },
    {
      "channel": 3,
      "note": 79,
      "start": 142.0467,
      "duration": 0.2157,
      "velocity": 127,
      "chip": "ym2612"
    },
    {
      "channel": 2,
      "note": 62,
      "start": 142.262,
      "duration": 0.1052,
      "velocity": 102,
      "chip": "ym2612"
    },
    {
      "channel": 3,
      "note": 79,
      "start": 142.2626,
      "duration": 0.3168,
      "velocity": 121,
      "chip": "ym2612"
    },
    {
      "channel": 0,
      "note": 77,
      "start": 142.3661,
      "duration": 0.211,
      "velocity": 104,
      "chip": "ym2612"
    },
    {
      "channel": 1,
      "note": 50,
      "start": 142.3668,
      "duration": 0.3446,
      "velocity": 117,
      "chip": "ym2612"
    },
    {
      "channel": 2,
      "note": 57,
      "start": 142.3673,
      "duration": 0.6639,
      "velocity": 102,
      "chip": "ym2612"
    },
    {
      "channel": 0,
      "note": 79,
      "start": 142.5773,
      "duration": 0.0666,
      "velocity": 104,
      "chip": "ym2612"
    },
    {
      "channel": 3,
      "note": 79,
      "start": 142.5795,
      "duration": 0.134,
      "velocity": 127,
      "chip": "ym2612"
    },
    {
      "channel": 4,
      "note": 77,
      "start": 142.5817,
      "duration": 0.2353,
      "velocity": 104,
      "chip": "ym2612"
    },
    {
      "channel": 0,
      "note": 77,
      "start": 142.644,
      "duration": 0.0668,
      "velocity": 104,
      "chip": "ym2612"
    },
    {
      "channel": 0,
      "note": 76,
      "start": 142.711,
      "duration": 0.5462,
      "velocity": 104,
      "chip": "ym2612"
    },
    {
      "channel": 1,
      "note": 52,
      "start": 142.7115,
      "duration": 0.3192,
      "velocity": 117,
      "chip": "ym2612"
    },
    {
      "channel": 3,
      "note": 79,
      "start": 142.7137,
      "duration": 0.3181,
      "velocity": 127,
      "chip": "ym2612"
    },
    {
      "channel": 4,
      "note": 79,
      "start": 142.8172,
      "duration": 0.0449,
      "velocity": 104,
      "chip": "ym2612"
    },
    {
      "channel": 4,
      "note": 77,
      "start": 142.8623,
      "duration": 0.0591,
      "velocity": 104,
      "chip": "ym2612"
    },
    {
      "channel": 4,
      "note": 76,
      "start": 142.9217,
      "duration": 0.5584,
      "velocity": 104,
      "chip": "ym2612"
    },
    {
      "channel": 1,
      "note": 53,
      "start": 143.0309,
      "duration": 0.3438,
      "velocity": 117,
      "chip": "ym2612"
    },
    {
      "channel": 2,
      "note": 62,
      "start": 143.0314,
      "duration": 0.8926,
      "velocity": 104,
      "chip": "ym2612"
    },
    {
      "channel": 3,
      "note": 79,
      "start": 143.032,
      "duration": 0.2258,
      "velocity": 127,
      "chip": "ym2612"
    },
    {
      "channel": 0,
      "note": 69,
      "start": 143.2573,
      "duration": 0.1168,
      "velocity": 104,
      "chip": "ym2612"
    },
    {
      "channel": 3,
      "note": 79,
      "start": 143.258,
      "duration": 0.3364,
      "velocity": 121,
      "chip": "ym2612"
    },
    {
      "channel": 0,
      "note": 73,
      "start": 143.3743,
      "duration": 0.2179,
      "velocity": 104,
      "chip": "ym2612"
    },
    {
      "channel": 1,
      "note": 55,
      "start": 143.3748,
      "duration": 0.3168,
      "velocity": 117,
      "chip": "ym2612"
    },
    {
      "channel": 4,
      "note": 69,
      "start": 143.4802,
      "duration": 0.1147,
      "velocity": 104,
      "chip": "ym2612"
    },
    {
      "channel": 0,
      "note": 74,
      "start": 143.5923,
      "duration": 1.4293,
      "velocity": 104,
      "chip": "ym2612"
    },
    {
      "channel": 3,
      "note": 79,
      "start": 143.5946,
      "duration": 0.055,
      "velocity": 121,
      "chip": "ym2612"
    },
    {
      "channel": 4,
      "note": 73,
      "start": 143.5952,
      "duration": 0.215,
      "velocity": 104,
      "chip": "ym2612"
    },
    {
      "channel": 3,
      "note": 79,
      "start": 143.6498,
      "duration": 0.0441,
      "velocity": 127,
      "chip": "ym2612"
    },
    {
      "channel": 1,
      "note": 57,
      "start": 143.6918,
      "duration": 0.3497,
      "velocity": 117,
      "chip": "ym2612"
    },
    {
      "channel": 3,
      "note": 79,
      "start": 143.694,
      "duration": 0.2322,
      "velocity": 121,
      "chip": "ym2612"
    },
    {
      "channel": 4,
      "note": 74,
      "start": 143.8104,
      "duration": 1.2162,
      "velocity": 127,
      "chip": "ym2612"
    },
    {
      "channel": 2,
      "note": 69,
      "start": 143.9242,
      "duration": 0.1179,
      "velocity": 104,
      "chip": "ym2612"
    },
    {
      "channel": 3,
      "note": 79,
      "start": 143.9263,
      "duration": 0.1178,
      "velocity": 127,
      "chip": "ym2612"
    },
    {
      "channel": 1,
      "note": 55,
      "start": 144.0417,
      "duration": 0.3232,
      "velocity": 117,
      "chip": "ym2612"
    },
    {
      "channel": 2,
      "note": 73,
      "start": 144.0422,
      "duration": 0.204,
      "velocity": 104,
      "chip": "ym2612"
    },
    {
      "channel": 3,
      "note": 79,
      "start": 144.0443,
      "duration": 0.204,
      "velocity": 121,
      "chip": "ym2612"
    },
    {
      "channel": 2,
      "note": 74,
      "start": 144.2464,
      "duration": 0.3478,
      "velocity": 104,
      "chip": "ym2612"
    },
    {
      "channel": 3,
      "note": 79,
      "start": 144.2485,
      "duration": 0.1185,
      "velocity": 127,
      "chip": "ym2612"
    },
    {
      "channel": 1,
      "note": 53,
      "start": 144.365,
      "duration": 0.3332,
      "velocity": 117,
      "chip": "ym2612"
    },
    {
      "channel": 3,
      "note": 79,
      "start": 144.3672,
      "duration": 0.2291,
      "velocity": 121,
      "chip": "ym2612"
    },
    {
      "channel": 2,
      "note": 69,
      "start": 144.5943,
      "duration": 0.1045,
      "velocity": 104,
      "chip": "ym2612"
    },
    {
      "channel": 3,
      "note": 79,
      "start": 144.5965,
      "duration": 0.0565,
      "velocity": 121,
      "chip": "ym2612"
    },
    {
      "channel": 3,
      "note": 79,
      "start": 144.6532,
      "duration": 0.0478,
      "velocity": 127,
      "chip": "ym2612"
    },
    {
      "channel": 1,
      "note": 52,
      "start": 144.6985,
      "duration": 0.3237,
      "velocity": 117,
      "chip": "ym2612"
    },
    {
      "channel": 2,
      "note": 65,
      "start": 144.699,
      "duration": 0.1027,
      "velocity": 104,
      "chip": "ym2612"
    },
    {
      "channel": 3,
      "note": 79,
      "start": 144.7011,
      "duration": 0.2145,
      "velocity": 127,
      "chip": "ym2612"
    },
    {
      "channel": 2,
      "note": 64,
      "start": 144.8019,
      "duration": 0.1132,
      "velocity": 104,
      "chip": "ym2612"
    },
    {
      "channel": 2,
      "note": 62,
      "start": 144.9153,
      "duration": 0.3124,
      "velocity": 104,
      "chip": "ym2612"
    },
    {
      "channel": 3,
      "note": 79,
      "start": 144.9159,
      "duration": 0.1086,
      "velocity": 104,
      "chip": "ym2612"
    },
    {
      "channel": 0,
      "note": 62,
      "start": 145.0217,
      "duration": 0.2037,
      "velocity": 104,
      "chip": "ym2612"
    },
    {
      "channel": 1,
      "note": 62,
      "start": 145.0224,
      "duration": 0.3178,
      "velocity": 117,
      "chip": "ym2612"
    },
    {
      "channel": 3,
      "note": 57,
      "start": 145.0246,
      "duration": 0.2052,
      "velocity": 104,
      "chip": "ym2612"
    },
    {
      "channel": 4,
      "note": 79,
      "start": 145.0268,
      "duration": 0.3141,
      "velocity": 127,
      "chip": "ym2612"
    },
    {
      "channel": 0,
      "note": 62,
      "start": 145.2256,
      "duration": 0.3649,
      "velocity": 104,
      "chip": "ym2612"
    },
    {
      "channel": 2,
      "note": 62,
      "start": 145.2278,
      "duration": 0.2455,
      "velocity": 104,
      "chip": "ym2612"
    },
    {
      "channel": 3,
      "note": 57,
      "start": 145.23,
      "duration": 0.3611,
      "velocity": 104,
      "chip": "ym2612"
    },
    {
      "channel": 1,
      "note": 65,
      "start": 145.3404,
      "duration": 0.3692,
      "velocity": 117,
      "chip": "ym2612"
    },
    {
      "channel": 4,
      "note": 79,
      "start": 145.341,
      "duration": 0.2507,
      "velocity": 127,
      "chip": "ym2612"
    },
    {
      "channel": 2,
      "note": 62,
      "start": 145.4735,
      "duration": 0.3498,
      "velocity": 104,
      "chip": "ym2612"
    },
    {
      "channel": 0,
      "note": 62,
      "start": 145.5906,
      "duration": 0.1184,
      "velocity": 104,
      "chip": "ym2612"
    },
    {
      "channel": 3,
      "note": 57,
      "start": 145.5913,
      "duration": 0.1205,
      "velocity": 104,
      "chip": "ym2612"
    },
    {
      "channel": 4,
      "note": 79,
      "start": 145.5919,
      "duration": 0.1205,
      "velocity": 127,
      "chip": "ym2612"
    },
    {
      "channel": 0,
      "note": 64,
      "start": 145.7092,
      "duration": 0.2329,
      "velocity": 104,
      "chip": "ym2612"
    },
    {
      "channel": 1,
      "note": 69,
      "start": 145.7098,
      "duration": 0.3665,
      "velocity": 117,
      "chip": "ym2612"
    },
    {
      "channel": 3,
      "note": 62,
      "start": 145.712,
      "duration": 0.2328,
      "velocity": 104,
      "chip": "ym2612"
    },
    {
      "channel": 4,
      "note": 79,
      "start": 145.7125,
      "duration": 0.3666,
      "velocity": 127,
      "chip": "ym2612"
    },
    {
      "channel": 2,
      "note": 62,
      "start": 145.8235,
      "duration": 0.1192,
      "velocity": 104,
      "chip": "ym2612"
    },
    {
      "channel": 0,
      "note": 62,
      "start": 145.9422,
      "duration": 0.1335,
      "velocity": 104,
      "chip": "ym2612"
    },
    {
      "channel": 2,
      "note": 64,
      "start": 145.9429,
      "duration": 0.2471,
      "velocity": 104,
      "chip": "ym2612"
    },
    {
      "channel": 3,
      "note": 57,
      "start": 145.945,
      "duration": 0.1335,
      "velocity": 104,
      "chip": "ym2612"
    },
    {
      "channel": 0,
      "note": 64,
      "start": 146.0759,
      "duration": 0.3348,
      "velocity": 104,
      "chip": "ym2612"
    },
    {
      "channel": 1,
      "note": 57,
      "start": 146.0765,
      "duration": 0.3348,
      "velocity": 117,
      "chip": "ym2612"
    },
    {
      "channel": 3,
      "note": 62,
      "start": 146.0787,
      "duration": 0.3332,
      "velocity": 104,
      "chip": "ym2612"
    },
    {
      "channel": 4,
      "note": 79,
      "start": 146.0793,
      "duration": 0.2287,
      "velocity": 127,
      "chip": "ym2612"
    },
    {
      "channel": 2,
      "note": 62,
      "start": 146.1901,
      "duration": 0.1172,
      "velocity": 104,
      "chip": "ym2612"
    },
    {
      "channel": 2,
      "note": 64,
      "start": 146.3075,
      "duration": 0.336,
      "velocity": 104,
      "chip": "ym2612"
    },
    {
      "channel": 4,
      "note": 79,
      "start": 146.3081,
      "duration": 0.1044,
      "velocity": 127,
      "chip": "ym2612"
    },
    {
      "channel": 0,
      "note": 65,
      "start": 146.4109,
      "duration": 0.232,
      "velocity": 104,
      "chip": "ym2612"
    },
    {
      "channel": 1,
      "note": 62,
      "start": 146.4115,
      "duration": 0.3462,
      "velocity": 117,
      "chip": "ym2612"
    },
    {
      "channel": 3,
      "note": 57,
      "start": 146.412,
      "duration": 0.2337,
      "velocity": 104,
      "chip": "ym2612"
    },
    {
      "channel": 4,
      "note": 79,
      "start": 146.4126,
      "duration": 0.3457,
      "velocity": 127,
      "chip": "ym2612"
    },
    {
      "channel": 0,
      "note": 65,
      "start": 146.6431,
      "duration": 0.3486,
      "velocity": 104,
      "chip": "ym2612"
    },
    {
      "channel": 2,
      "note": 65,
      "start": 146.6437,
      "duration": 0.2305,
      "velocity": 104,
      "chip": "ym2612"
    },
    {
      "channel": 3,
      "note": 57,
      "start": 146.6459,
      "duration": 0.3465,
      "velocity": 104,
      "chip": "ym2612"
    },
    {
      "channel": 1,
      "note": 65,
      "start": 146.7579,
      "duration": 0.3388,
      "velocity": 117,
      "chip": "ym2612"
    },
    {
      "channel": 4,
      "note": 79,
      "start": 146.7585,
      "duration": 0.2344,
      "velocity": 127,
      "chip": "ym2612"
    },
    {
      "channel": 2,
      "note": 65,
      "start": 146.8743,
      "duration": 0.3476,
      "velocity": 104,
      "chip": "ym2612"
    },
    {
      "channel": 0,
      "note": 65,
      "start": 146.9919,
      "duration": 0.1043,
      "velocity": 104,
      "chip": "ym2612"
    },
    {
      "channel": 3,
      "note": 57,
      "start": 146.9925,
      "duration": 0.1064,
      "velocity": 104,
      "chip": "ym2612"
    },
    {
      "channel": 4,
      "note": 79,
      "start": 146.9931,
      "duration": 0.1064,
      "velocity": 127,
      "chip": "ym2612"
    },
    {
      "channel": 0,
      "note": 64,
      "start": 147.0963,
      "duration": 0.2448,
      "velocity": 104,
      "chip": "ym2612"
    },
    {
      "channel": 1,
      "note": 69,
      "start": 147.0968,
      "duration": 0.3512,
      "velocity": 117,
      "chip": "ym2612"
    },
    {
      "channel": 3,
      "note": 62,
      "start": 147.0991,
      "duration": 0.2447,
      "velocity": 104,
      "chip": "ym2612"
    },
    {
      "channel": 4,
      "note": 79,
      "start": 147.0996,
      "duration": 0.3513,
      "velocity": 127,
      "chip": "ym2612"
    },
    {
      "channel": 2,
      "note": 65,
      "start": 147.222,
      "duration": 0.1197,
      "velocity": 104,
      "chip": "ym2612"
    },
    {
      "channel": 0,
      "note": 62,
      "start": 147.3412,
      "duration": 0.1063,
      "velocity": 104,
      "chip": "ym2612"
    },
    {
      "channel": 2,
      "note": 64,
      "start": 147.3418,
      "duration": 0.211,
      "velocity": 104,
      "chip": "ym2612"
    },
    {
      "channel": 3,
      "note": 57,
      "start": 147.3439,
      "duration": 0.1063,
      "velocity": 104,
      "chip": "ym2612"
    },
    {
      "channel": 0,
      "note": 64,
      "start": 147.4477,
      "duration": 0.3426,
      "velocity": 104,
      "chip": "ym2612"
    },
    {
      "channel": 1,
      "note": 57,
      "start": 147.4482,
      "duration": 0.3427,
      "velocity": 117,
      "chip": "ym2612"
    },
    {
      "channel": 3,
      "note": 62,
      "start": 147.4505,
      "duration": 0.3412,
      "velocity": 104,
      "chip": "ym2612"
    },
    {
      "channel": 4,
      "note": 79,
      "start": 147.451,
      "duration": 0.2197,
      "velocity": 127,
      "chip": "ym2612"
    },
    {
      "channel": 2,
      "note": 62,
      "start": 147.553,
      "duration": 0.1172,
      "velocity": 104,
      "chip": "ym2612"
    },
    {
      "channel": 2,
      "note": 64,
      "start": 147.6703,
      "duration": 0.3333,
      "velocity": 104,
      "chip": "ym2612"
    },
    {
      "channel": 4,
      "note": 79,
      "start": 147.6709,
      "duration": 0.1213,
      "velocity": 127,
      "chip": "ym2612"
    },
    {
      "channel": 0,
      "note": 62,
      "start": 147.7905,
      "duration": 0.2124,
      "velocity": 104,
      "chip": "ym2612"
    },
    {
      "channel": 1,
      "note": 62,
      "start": 147.791,
      "duration": 0.3266,
      "velocity": 117,
      "chip": "ym2612"
    },
    {
      "channel": 3,
      "note": 57,
      "start": 147.7917,
      "duration": 0.2139,
      "velocity": 104,
      "chip": "ym2612"
    },
    {
      "channel": 4,
      "note": 79,
      "start": 147.7924,
      "duration": 0.326,
      "velocity": 127,
      "chip": "ym2612"
    },
    {
      "channel": 0,
      "note": 62,
      "start": 148.0031,
      "duration": 0.3649,
      "velocity": 104,
      "chip": "ym2612"
    },
    {
      "channel": 2,
      "note": 62,
      "start": 148.0037,
      "duration": 0.2303,
      "velocity": 104,
      "chip": "ym2612"
    },
    {
      "channel": 3,
      "note": 57,
      "start": 148.0059,
      "duration": 0.3627,
      "velocity": 104,
      "chip": "ym2612"
    },
    {
      "channel": 1,
      "note": 65,
      "start": 148.1178,
      "duration": 0.3693,
      "velocity": 117,
      "chip": "ym2612"
    },
    {
      "channel": 4,
      "note": 79,
      "start": 148.1185,
      "duration": 0.2507,
      "velocity": 127,
      "chip": "ym2612"
    },
    {
      "channel": 2,
      "note": 62,
      "start": 148.2342,
      "duration": 0.3665,
      "velocity": 104,
      "chip": "ym2612"
    },
    {
      "channel": 0,
      "note": 62,
      "start": 148.3681,
      "duration": 0.1185,
      "velocity": 104,
      "chip": "ym2612"
    },
    {
      "channel": 3,
      "note": 57,
      "start": 148.3688,
      "duration": 0.1205,
      "velocity": 104,
      "chip": "ym2612"
    },
    {
      "channel": 4,
      "note": 79,
      "start": 148.3694,
      "duration": 0.1205,
      "velocity": 127,
      "chip": "ym2612"
    },
    {
      "channel": 0,
      "note": 64,
      "start": 148.4867,
      "duration": 0.2328,
      "velocity": 104,
      "chip": "ym2612"
    },
    {
      "channel": 1,
      "note": 69,
      "start": 148.4873,
      "duration": 0.3499,
      "velocity": 117,
      "chip": "ym2612"
    },
    {
      "channel": 3,
      "note": 62,
      "start": 148.4895,
      "duration": 0.2328,
      "velocity": 104,
      "chip": "ym2612"
    },
    {
      "channel": 4,
      "note": 79,
      "start": 148.49,
      "duration": 0.3499,
      "velocity": 127,
      "chip": "ym2612"
    },
    {
      "channel": 2,
      "note": 62,
      "start": 148.6009,
      "duration": 0.1193,
      "velocity": 104,
      "chip": "ym2612"
    },
    {
      "channel": 0,
      "note": 62,
      "start": 148.7197,
      "duration": 0.1168,
      "velocity": 104,
      "chip": "ym2612"
    },
    {
      "channel": 2,
      "note": 64,
      "start": 148.7203,
      "duration": 0.2471,
      "velocity": 104,
      "chip": "ym2612"
    },
    {
      "channel": 3,
      "note": 57,
      "start": 148.7225,
      "duration": 0.1168,
      "velocity": 104,
      "chip": "ym2612"
    },
    {
      "channel": 0,
      "note": 64,
      "start": 148.8367,
      "duration": 0.3485,
      "velocity": 104,
      "chip": "ym2612"
    },
    {
      "channel": 1,
      "note": 57,
      "start": 148.8373,
      "duration": 0.3485,
      "velocity": 117,
      "chip": "ym2612"
    },
    {
      "channel": 3,
      "note": 62,
      "start": 148.8395,
      "duration": 0.3469,
      "velocity": 104,
      "chip": "ym2612"
    },
    {
      "channel": 4,
      "note": 79,
      "start": 148.84,
      "duration": 0.2454,
      "velocity": 127,
      "chip": "ym2612"
    },
    {
      "channel": 2,
      "note": 62,
      "start": 148.9676,
      "duration": 0.1172,
      "velocity": 104,
      "chip": "ym2612"
    },
    {
      "channel": 2,
      "note": 64,
      "start": 149.085,
      "duration": 0.3149,
      "velocity": 104,
      "chip": "ym2612"
    },
    {
      "channel": 4,
      "note": 79,
      "start": 149.0855,
      "duration": 0.1014,
      "velocity": 127,
      "chip": "ym2612"
    },
    {
      "channel": 0,
      "note": 65,
      "start": 149.1854,
      "duration": 0.2138,
      "velocity": 104,
      "chip": "ym2612"
    },
    {
      "channel": 1,
      "note": 62,
      "start": 149.186,
      "duration": 0.3447,
      "velocity": 117,
      "chip": "ym2612"
    },
    {
      "channel": 3,
      "note": 62,
      "start": 149.1866,
      "duration": 0.2155,
      "velocity": 104,
      "chip": "ym2612"
    },
    {
      "channel": 4,
      "note": 79,
      "start": 149.1871,
      "duration": 0.3442,
      "velocity": 127,
      "chip": "ym2612"
    },
    {
      "channel": 0,
      "note": 65,
      "start": 149.3994,
      "duration": 0.3653,
      "velocity": 104,
      "chip": "ym2612"
    },
    {
      "channel": 2,
      "note": 65,
      "start": 149.4001,
      "duration": 0.2471,
      "velocity": 104,
      "chip": "ym2612"
    },
    {
      "channel": 3,
      "note": 62,
      "start": 149.4022,
      "duration": 0.3631,
      "velocity": 104,
      "chip": "ym2612"
    },
    {
      "channel": 1,
      "note": 65,
      "start": 149.5308,
      "duration": 0.3463,
      "velocity": 117,
      "chip": "ym2612"
    },
    {
      "channel": 4,
      "note": 79,
      "start": 149.5315,
      "duration": 0.2344,
      "velocity": 127,
      "chip": "ym2612"
    },
    {
      "channel": 2,
      "note": 65,
      "start": 149.6473,
      "duration": 0.332,
      "velocity": 104,
      "chip": "ym2612"
    },
    {
      "channel": 0,
      "note": 65,
      "start": 149.7648,
      "duration": 0.1118,
      "velocity": 104,
      "chip": "ym2612"
    },
    {
      "channel": 3,
      "note": 62,
      "start": 149.7655,
      "duration": 0.1138,
      "velocity": 104,
      "chip": "ym2612"
    },
    {
      "channel": 4,
      "note": 79,
      "start": 149.7661,
      "duration": 0.1138,
      "velocity": 127,
      "chip": "ym2612"
    },
    {
      "channel": 0,
      "note": 64,
      "start": 149.8768,
      "duration": 0.2293,
      "velocity": 104,
      "chip": "ym2612"
    },
    {
      "channel": 1,
      "note": 69,
      "start": 149.8773,
      "duration": 0.331,
      "velocity": 117,
      "chip": "ym2612"
    },
    {
      "channel": 3,
      "note": 67,
      "start": 149.8795,
      "duration": 0.2294,
      "velocity": 104,
      "chip": "ym2612"
    },
    {
      "channel": 4,
      "note": 79,
      "start": 149.8801,
      "duration": 0.331,
      "velocity": 127,
      "chip": "ym2612"
    },
    {
      "channel": 2,
      "note": 65,
      "start": 149.9794,
      "duration": 0.1273,
      "velocity": 104,
      "chip": "ym2612"
    },
    {
      "channel": 0,
      "note": 62,
      "start": 150.1063,
      "duration": 0.1014,
      "velocity": 104,
      "chip": "ym2612"
    },
    {
      "channel": 2,
      "note": 64,
      "start": 150.1069,
      "duration": 0.2049,
      "velocity": 104,
      "chip": "ym2612"
    },
    {
      "channel": 3,
      "note": 62,
      "start": 150.1091,
      "duration": 0.1014,
      "velocity": 104,
      "chip": "ym2612"
    },
    {
      "channel": 0,
      "note": 64,
      "start": 150.2079,
      "duration": 0.3128,
      "velocity": 104,
      "chip": "ym2612"
    },
    {
      "channel": 1,
      "note": 57,
      "start": 150.2085,
      "duration": 0.3129,
      "velocity": 117,
      "chip": "ym2612"
    },
    {
      "channel": 3,
      "note": 67,
      "start": 150.2107,
      "duration": 0.315,
      "velocity": 1,
      "chip": "ym2612"
    },
    {
      "channel": 4,
      "note": 79,
      "start": 150.2112,
      "duration": 0.2038,
      "velocity": 127,
      "chip": "ym2612"
    },
    {
      "channel": 2,
      "note": 62,
      "start": 150.312,
      "duration": 0.1023,
      "velocity": 104,
      "chip": "ym2612"
    },
    {
      "channel": 2,
      "note": 64,
      "start": 150.4145,
      "duration": 0.109,
      "velocity": 127,
      "chip": "ym2612"
    },
    {
      "channel": 4,
      "note": 79,
      "start": 150.4151,
      "duration": 0.3398,
      "velocity": 104,
      "chip": "ym2612"
    },
    {
      "channel": 0,
      "note": 62,
      "start": 150.5209,
      "duration": 0.2296,
      "velocity": 104,
      "chip": "ym2612"
    },
    {
      "channel": 1,
      "note": 50,
      "start": 150.5215,
      "duration": 0.6688,
      "velocity": 117,
      "chip": "ym2612"
    },
    {
      "channel": 2,
      "note": 79,
      "start": 150.5236,
      "duration": 0.2291,
      "velocity": 121,
      "chip": "ym2612"
    },
    {
      "channel": 3,
      "note": 55,
      "start": 150.5259,
      "duration": 1.0004,
      "velocity": 104,
      "chip": "ym2612"
    },
    {
      "channel": 0,
      "note": 65,
      "start": 150.7507,
      "duration": 0.321,
      "velocity": 104,
      "chip": "ym2612"
    },
    {
      "channel": 2,
      "note": 79,
      "start": 150.7528,
      "duration": 0.0478,
      "velocity": 121,
      "chip": "ym2612"
    },
    {
      "channel": 4,
      "note": 62,
      "start": 150.7551,
      "duration": 0.2156,
      "velocity": 104,
      "chip": "ym2612"
    },
    {
      "channel": 2,
      "note": 79,
      "start": 150.8008,
      "duration": 0.0678,
      "velocity": 127,
      "chip": "ym2612"
    },
    {
      "channel": 2,
      "note": 79,
      "start": 150.8687,
      "duration": 0.2052,
      "velocity": 121,
      "chip": "ym2612"
    },
    {
      "channel": 4,
      "note": 65,
      "start": 150.9709,
      "duration": 0.3286,
      "velocity": 104,
      "chip": "ym2612"
    },
    {
      "channel": 0,
      "note": 73,
      "start": 151.0718,
      "duration": 0.1179,
      "velocity": 104,
      "chip": "ym2612"
    },
    {
      "channel": 2,
      "note": 79,
      "start": 151.074,
      "duration": 0.1184,
      "velocity": 127,
      "chip": "ym2612"
    },
    {
      "channel": 0,
      "note": 72,
      "start": 151.1899,
      "duration": 0.3321,
      "velocity": 104,
      "chip": "ym2612"
    },
    {
      "channel": 1,
      "note": 50,
      "start": 151.1905,
      "duration": 0.6541,
      "velocity": 117,
      "chip": "ym2612"
    },
    {
      "channel": 2,
      "note": 79,
      "start": 151.1926,
      "duration": 0.2258,
      "velocity": 121,
      "chip": "ym2612"
    },
    {
      "channel": 4,
      "note": 73,
      "start": 151.2997,
      "duration": 0.1193,
      "velocity": 104,
      "chip": "ym2612"
    },
    {
      "channel": 2,
      "note": 79,
      "start": 151.4185,
      "duration": 0.0567,
      "velocity": 121,
      "chip": "ym2612"
    },
    {
      "channel": 4,
      "note": 72,
      "start": 151.4192,
      "duration": 0.3246,
      "velocity": 104,
      "chip": "ym2612"
    },
    {
      "channel": 2,
      "note": 79,
      "start": 151.4753,
      "duration": 0.0489,
      "velocity": 127,
      "chip": "ym2612"
    },
    {
      "channel": 0,
      "note": 65,
      "start": 151.5221,
      "duration": 0.2183,
      "velocity": 104,
      "chip": "ym2612"
    },
    {
      "channel": 2,
      "note": 79,
      "start": 151.5243,
      "duration": 0.2183,
      "velocity": 121,
      "chip": "ym2612"
    },
    {
      "channel": 3,
      "note": 50,
      "start": 151.5265,
      "duration": 0.2167,
      "velocity": 104,
      "chip": "ym2612"
    },
    {
      "channel": 0,
      "note": 69,
      "start": 151.7405,
      "duration": 0.333,
      "velocity": 104,
      "chip": "ym2612"
    },
    {
      "channel": 2,
      "note": 79,
      "start": 151.7428,
      "duration": 0.1039,
      "velocity": 127,
      "chip": "ym2612"
    },
    {
      "channel": 3,
      "note": 53,
      "start": 151.7434,
      "duration": 0.3329,
      "velocity": 104,
      "chip": "ym2612"
    },
    {
      "channel": 4,
      "note": 65,
      "start": 151.7439,
      "duration": 0.2121,
      "velocity": 104,
      "chip": "ym2612"
    },
    {
      "channel": 1,
      "note": 50,
      "start": 151.8447,
      "duration": 0.6511,
      "velocity": 117,
      "chip": "ym2612"
    },
    {
      "channel": 2,
      "note": 79,
      "start": 151.8468,
      "duration": 0.2288,
      "velocity": 121,
      "chip": "ym2612"
    },
    {
      "channel": 4,
      "note": 69,
      "start": 151.9562,
      "duration": 0.3312,
      "velocity": 104,
      "chip": "ym2612"
    },
    {
      "channel": 0,
      "note": 76,
      "start": 152.0736,
      "duration": 0.0978,
      "velocity": 104,
      "chip": "ym2612"
    },
    {
      "channel": 2,
      "note": 79,
      "start": 152.0759,
      "duration": 0.0537,
      "velocity": 121,
      "chip": "ym2612"
    },
    {
      "channel": 3,
      "note": 61,
      "start": 152.0764,
      "duration": 0.0977,
      "velocity": 104,
      "chip": "ym2612"
    },
    {
      "channel": 2,
      "note": 79,
      "start": 152.1297,
      "duration": 0.0438,
      "velocity": 127,
      "chip": "ym2612"
    },
    {
      "channel": 0,
      "note": 75,
      "start": 152.1715,
      "duration": 0.3238,
      "velocity": 104,
      "chip": "ym2612"
    },
    {
      "channel": 2,
      "note": 79,
      "start": 152.1737,
      "duration": 0.2163,
      "velocity": 121,
      "chip": "ym2612"
    },
    {
      "channel": 3,
      "note": 60,
      "start": 152.1743,
      "duration": 0.3243,
      "velocity": 104,
      "chip": "ym2612"
    },
    {
      "channel": 4,
      "note": 76,
      "start": 152.2875,
      "duration": 0.1032,
      "velocity": 104,
      "chip": "ym2612"
    },
    {
      "channel": 2,
      "note": 79,
      "start": 152.3902,
      "duration": 0.1078,
      "velocity": 104,
      "chip": "ym2612"
    },
    {
      "channel": 4,
      "note": 75,
      "start": 152.3908,
      "duration": 0.3203,
      "velocity": 104,
      "chip": "ym2612"
    },
    {
      "channel": 0,
      "note": 69,
      "start": 152.4955,
      "duration": 0.2139,
      "velocity": 104,
      "chip": "ym2612"
    },
    {
      "channel": 1,
      "note": 50,
      "start": 152.496,
      "duration": 0.6449,
      "velocity": 117,
      "chip": "ym2612"
    },
    {
      "channel": 2,
      "note": 62,
      "start": 152.4981,
      "duration": 0.2118,
      "velocity": 104,
      "chip": "ym2612"
    },
    {
      "channel": 3,
      "note": 53,
      "start": 152.4987,
      "duration": 0.2118,
      "velocity": 104,
      "chip": "ym2612"
    },
    {
      "channel": 0,
      "note": 72,
      "start": 152.7095,
      "duration": 0.3248,
      "velocity": 104,
      "chip": "ym2612"
    },
    {
      "channel": 2,
      "note": 65,
      "start": 152.7102,
      "duration": 0.3248,
      "velocity": 104,
      "chip": "ym2612"
    },
    {
      "channel": 3,
      "note": 57,
      "start": 152.7107,
      "duration": 0.3248,
      "velocity": 104,
      "chip": "ym2612"
    },
    {
      "channel": 4,
      "note": 69,
      "start": 152.7112,
      "duration": 0.2201,
      "velocity": 104,
      "chip": "ym2612"
    },
    {
      "channel": 4,
      "note": 72,
      "start": 152.9315,
      "duration": 2.0975,
      "velocity": 1,
      "chip": "ym2612"
    },
    {
      "channel": 0,
      "note": 80,
      "start": 153.0345,
      "duration": 0.1059,
      "velocity": 104,
      "chip": "ym2612"
    },
    {
      "channel": 2,
      "note": 73,
      "start": 153.0352,
      "duration": 0.1063,
      "velocity": 104,
      "chip": "ym2612"
    },
    {
      "channel": 3,
      "note": 64,
      "start": 153.0358,
      "duration": 0.1063,
      "velocity": 104,
      "chip": "ym2612"
    },
    {
      "channel": 0,
      "note": 79,
      "start": 153.1406,
      "duration": 1.882,
      "velocity": 104,
      "chip": "ym2612"
    },
    {
      "channel": 1,
      "note": 50,
      "start": 153.1411,
      "duration": 1.8836,
      "velocity": 104,
      "chip": "ym2612"
    },
    {
      "channel": 2,
      "note": 72,
      "start": 153.1417,
      "duration": 1.8852,
      "velocity": 111,
      "chip": "ym2612"
    },
    {
      "channel": 3,
      "note": 63,
      "start": 153.1422,
      "duration": 1.9272,
      "velocity": 105,
      "chip": "ym2612"
    },
    {
      "channel": 0,
      "note": 81,
      "start": 155.0227,
      "duration": 1.7539,
      "velocity": 104,
      "chip": "ym2612"
    },
    {
      "channel": 1,
      "note": 38,
      "start": 155.0249,
      "duration": 1.7538,
      "velocity": 117,
      "chip": "ym2612"
    },
    {
      "channel": 2,
      "note": 89,
      "start": 155.027,
      "duration": 1.7539,
      "velocity": 104,
      "chip": "ym2612"
    },
    {
      "channel": 4,
      "note": 91,
      "start": 155.0292,
      "duration": 0.0989,
      "velocity": 105,
      "chip": "ym2612"
    },
    {
      "channel": 3,
      "note": 88,
      "start": 155.0696,
      "duration": 1.7134,
      "velocity": 1,
      "chip": "ym2612"
    },
    {
      "channel": 4,
      "note": 86,
      "start": 155.1283,
      "duration": 1.5302,
      "velocity": 121,
      "chip": "ym2612"
    },
    {
      "channel": 4,
      "note": 79,
      "start": 156.6587,
      "duration": 0.0482,
      "velocity": 121,
      "chip": "ym2612"
    },
    {
      "channel": 4,
      "note": 79,
      "start": 156.7071,
      "duration": 0.0765,
      "velocity": 121,
      "chip": "ym2612"
    },
    {
      "channel": 0,
      "note": 62,
      "start": 156.7768,
      "duration": 0.8139,
      "velocity": 1,
      "chip": "ym2612"
    },
    {
      "channel": 1,
      "note": 50,
      "start": 156.7789,
      "duration": 14.2859,
      "velocity": 1,
      "chip": "ym2612"
    },
    {
      "channel": 2,
      "note": 62,
      "start": 156.781,
      "duration": 14.2837,
      "velocity": 104,
      "chip": "ym2612"
    },
    {
      "channel": 3,
      "note": 55,
      "start": 156.7832,
      "duration": 14.2815,
      "velocity": 1,
      "chip": "ym2612"
    },
    {
      "channel": 4,
      "note": 79,
      "start": 156.7838,
      "duration": 14.281,
      "velocity": 121,
      "chip": "ym2612"
    },
    {
      "channel": 0,
      "note": 91,
      "start": 157.5909,
      "duration": 13.4739,
      "velocity": 1,
      "chip": "ym2612"
    }
  ]
}