{
  "track_name": "01 - Great Spirit Overture",
  "duration_sec": 32.469,
  "sample_rate": 44100,
  "note_count": 539,
  "unique_pitches": 58,
  "pitch_range": 93,
  "avg_note_duration": 0.2924,
  "reconstruction_stats": {
    "notes_reconstructed": 539,
    "keyon_events": 539,
    "keyoff_events": 539,
    "orphan_keyons": 0,
    "unique_pitches": 58,
    "pitch_range": 93,
    "avg_duration_sec": 0.2924
  },
  "metadata": {
    "source": "E\\Elemental Master\\01 - Great Spirit Overture.vgz"
  },
  "notes": [
    {
      "channel": 0,
      "note": 42,
      "start": 0.0,
      "duration": 12.0051,
      "velocity": 108,
      "chip": "ym2612"
    },
    {
      "channel": 1,
      "note": 42,
      "start": 0.0037,
      "duration": 12.0016,
      "velocity": 108,
      "chip": "ym2612"
    },
    {
      "channel": 2,
      "note": 21,
      "start": 0.0088,
      "duration": 11.9966,
      "velocity": 108,
      "chip": "ym2612"
    },
    {
      "channel": 5,
      "note": 21,
      "start": 0.0144,
      "duration": 11.9919,
      "velocity": 108,
      "chip": "ym2612"
    },
    {
      "channel": 3,
      "note": 21,
      "start": 0.2109,
      "duration": 11.9824,
      "velocity": 108,
      "chip": "ym2612"
    },
    {
      "channel": 4,
      "note": 21,
      "start": 0.3992,
      "duration": 11.9821,
      "velocity": 108,
      "chip": "ym2612"
    },
    {
      "channel": 0,
      "note": 42,
      "start": 12.038,
      "duration": 2.5962,
      "velocity": 108,
      "chip": "ym2612"
    },
    {
      "channel": 1,
      "note": 42,
      "start": 12.0399,
      "duration": 2.5945,
      "velocity": 108,
      "chip": "ym2612"
    },
    {
      "channel": 2,
      "note": 66,
      "start": 12.0452,
      "duration": 0.1478,
      "velocity": 108,
      "chip": "ym2612"
    },
    {
      "channel": 5,
      "note": 114,
      "start": 12.0481,
      "duration": 5.9674,
      "velocity": 108,
      "chip": "ym2612"
    },
    {
      "channel": 2,
      "note": 66,
      "start": 12.2258,
      "duration": 0.155,
      "velocity": 108,
      "chip": "ym2612"
    },
    {
      "channel": 3,
      "note": 66,
      "start": 12.2311,
      "duration": 0.15,
      "velocity": 108,
      "chip": "ym2612"
    },
    {
      "channel": 2,
      "note": 73,
      "start": 12.4136,
      "duration": 0.155,
      "velocity": 108,
      "chip": "ym2612"
    },
    {
      "channel": 3,
      "note": 66,
      "start": 12.4153,
      "duration": 0.1536,
      "velocity": 108,
      "chip": "ym2612"
    },
    {
      "channel": 4,
      "note": 66,
      "start": 12.4206,
      "duration": 0.1485,
      "velocity": 108,
      "chip": "ym2612"
    },
    {
      "channel": 2,
      "note": 66,
      "start": 12.6014,
      "duration": 0.1551,
      "velocity": 108,
      "chip": "ym2612"
    },
    {
      "channel": 3,
      "note": 73,
      "start": 12.603,
      "duration": 0.1536,
      "velocity": 108,
      "chip": "ym2612"
    },
    {
      "channel": 4,
      "note": 66,
      "start": 12.6046,
      "duration": 0.1522,
      "velocity": 108,
      "chip": "ym2612"
    },
    {
      "channel": 2,
      "note": 66,
      "start": 12.7892,
      "duration": 0.1551,
      "velocity": 108,
      "chip": "ym2612"
    },
    {
      "channel": 3,
      "note": 66,
      "start": 12.7907,
      "duration": 0.1537,
      "velocity": 108,
      "chip": "ym2612"
    },
    {
      "channel": 4,
      "note": 73,
      "start": 12.7924,
      "duration": 0.1522,
      "velocity": 108,
      "chip": "ym2612"
    },
    {
      "channel": 2,
      "note": 71,
      "start": 12.977,
      "duration": 0.1551,
      "velocity": 108,
      "chip": "ym2612"
    },
    {
      "channel": 3,
      "note": 66,
      "start": 12.9786,
      "duration": 0.1536,
      "velocity": 108,
      "chip": "ym2612"
    },
    {
      "channel": 4,
      "note": 66,
      "start": 12.9802,
      "duration": 0.1522,
      "velocity": 108,
      "chip": "ym2612"
    },
    {
      "channel": 2,
      "note": 66,
      "start": 13.1647,
      "duration": 0.1551,
      "velocity": 108,
      "chip": "ym2612"
    },
    {
      "channel": 3,
      "note": 71,
      "start": 13.1664,
      "duration": 0.1536,
      "velocity": 108,
      "chip": "ym2612"
    },
    {
      "channel": 4,
      "note": 66,
      "start": 13.168,
      "duration": 0.1522,
      "velocity": 108,
      "chip": "ym2612"
    },
    {
      "channel": 2,
      "note": 66,
      "start": 13.3525,
      "duration": 0.1551,
      "velocity": 108,
      "chip": "ym2612"
    },
    {
      "channel": 3,
      "note": 66,
      "start": 13.3542,
      "duration": 0.1536,
      "velocity": 108,
      "chip": "ym2612"
    },
    {
      "channel": 4,
      "note": 71,
      "start": 13.3558,
      "duration": 0.1522,
      "velocity": 108,
      "chip": "ym2612"
    },
    {
      "channel": 2,
      "note": 69,
      "start": 13.5432,
      "duration": 0.1522,
      "velocity": 108,
      "chip": "ym2612"
    },
    {
      "channel": 3,
      "note": 66,
      "start": 13.5448,
      "duration": 0.1508,
      "velocity": 108,
      "chip": "ym2612"
    },
    {
      "channel": 4,
      "note": 66,
      "start": 13.5464,
      "duration": 0.1494,
      "velocity": 108,
      "chip": "ym2612"
    },
    {
      "channel": 2,
      "note": 66,
      "start": 13.7282,
      "duration": 0.155,
      "velocity": 108,
      "chip": "ym2612"
    },
    {
      "channel": 3,
      "note": 69,
      "start": 13.7298,
      "duration": 0.1537,
      "velocity": 108,
      "chip": "ym2612"
    },
    {
      "channel": 4,
      "note": 66,
      "start": 13.7314,
      "duration": 0.1522,
      "velocity": 108,
      "chip": "ym2612"
    },
    {
      "channel": 2,
      "note": 66,
      "start": 13.9159,
      "duration": 0.1551,
      "velocity": 108,
      "chip": "ym2612"
    },
    {
      "channel": 3,
      "note": 66,
      "start": 13.9176,
      "duration": 0.1536,
      "velocity": 108,
      "chip": "ym2612"
    },
    {
      "channel": 4,
      "note": 69,
      "start": 13.9193,
      "duration": 0.1522,
      "velocity": 108,
      "chip": "ym2612"
    },
    {
      "channel": 2,
      "note": 68,
      "start": 14.1037,
      "duration": 0.1551,
      "velocity": 108,
      "chip": "ym2612"
    },
    {
      "channel": 3,
      "note": 66,
      "start": 14.1054,
      "duration": 0.1536,
      "velocity": 108,
      "chip": "ym2612"
    },
    {
      "channel": 4,
      "note": 66,
      "start": 14.107,
      "duration": 0.1522,
      "velocity": 108,
      "chip": "ym2612"
    },
    {
      "channel": 2,
      "note": 64,
      "start": 14.2918,
      "duration": 0.1548,
      "velocity": 108,
      "chip": "ym2612"
    },
    {
      "channel": 3,
      "note": 68,
      "start": 14.2935,
      "duration": 0.1533,
      "velocity": 108,
      "chip": "ym2612"
    },
    {
      "channel": 4,
      "note": 66,
      "start": 14.2951,
      "duration": 0.1519,
      "velocity": 108,
      "chip": "ym2612"
    },
    {
      "channel": 2,
      "note": 61,
      "start": 14.4793,
      "duration": 0.1553,
      "velocity": 108,
      "chip": "ym2612"
    },
    {
      "channel": 3,
      "note": 64,
      "start": 14.4813,
      "duration": 0.1535,
      "velocity": 108,
      "chip": "ym2612"
    },
    {
      "channel": 4,
      "note": 68,
      "start": 14.4829,
      "duration": 0.152,
      "velocity": 108,
      "chip": "ym2612"
    },
    {
      "channel": 0,
      "note": 45,
      "start": 14.667,
      "duration": 0.1707,
      "velocity": 108,
      "chip": "ym2612"
    },
    {
      "channel": 1,
      "note": 45,
      "start": 14.6686,
      "duration": 0.1692,
      "velocity": 108,
      "chip": "ym2612"
    },
    {
      "channel": 2,
      "note": 69,
      "start": 14.6703,
      "duration": 0.1519,
      "velocity": 108,
      "chip": "ym2612"
    },
    {
      "channel": 3,
      "note": 61,
      "start": 14.6719,
      "duration": 0.1506,
      "velocity": 108,
      "chip": "ym2612"
    },
    {
      "channel": 4,
      "note": 64,
      "start": 14.6738,
      "duration": 0.1488,
      "velocity": 108,
      "chip": "ym2612"
    },
    {
      "channel": 0,
      "note": 44,
      "start": 14.8547,
      "duration": 0.1707,
      "velocity": 108,
      "chip": "ym2612"
    },
    {
      "channel": 1,
      "note": 44,
      "start": 14.8563,
      "duration": 0.1693,
      "velocity": 108,
      "chip": "ym2612"
    },
    {
      "channel": 2,
      "note": 68,
      "start": 14.8579,
      "duration": 0.152,
      "velocity": 108,
      "chip": "ym2612"
    },
    {
      "channel": 3,
      "note": 69,
      "start": 14.8596,
      "duration": 0.1506,
      "velocity": 108,
      "chip": "ym2612"
    },
    {
      "channel": 4,
      "note": 61,
      "start": 14.8612,
      "duration": 0.1492,
      "velocity": 108,
      "chip": "ym2612"
    },
    {
      "channel": 0,
      "note": 42,
      "start": 15.0425,
      "duration": 2.7842,
      "velocity": 108,
      "chip": "ym2612"
    },
    {
      "channel": 1,
      "note": 42,
      "start": 15.0441,
      "duration": 2.7828,
      "velocity": 108,
      "chip": "ym2612"
    },
    {
      "channel": 2,
      "note": 66,
      "start": 15.0492,
      "duration": 0.1487,
      "velocity": 108,
      "chip": "ym2612"
    },
    {
      "channel": 3,
      "note": 68,
      "start": 15.0508,
      "duration": 0.1472,
      "velocity": 108,
      "chip": "ym2612"
    },
    {
      "channel": 4,
      "note": 69,
      "start": 15.0525,
      "duration": 0.1457,
      "velocity": 108,
      "chip": "ym2612"
    },
    {
      "channel": 2,
      "note": 66,
      "start": 15.2305,
      "duration": 0.1551,
      "velocity": 108,
      "chip": "ym2612"
    },
    {
      "channel": 3,
      "note": 66,
      "start": 15.2356,
      "duration": 0.1502,
      "velocity": 108,
      "chip": "ym2612"
    },
    {
      "channel": 4,
      "note": 68,
      "start": 15.2372,
      "duration": 0.1488,
      "velocity": 108,
      "chip": "ym2612"
    },
    {
      "channel": 2,
      "note": 73,
      "start": 15.4183,
      "duration": 0.1551,
      "velocity": 108,
      "chip": "ym2612"
    },
    {
      "channel": 3,
      "note": 66,
      "start": 15.42,
      "duration": 0.1536,
      "velocity": 108,
      "chip": "ym2612"
    },
    {
      "channel": 4,
      "note": 66,
      "start": 15.425,
      "duration": 0.1488,
      "velocity": 108,
      "chip": "ym2612"
    },
    {
      "channel": 2,
      "note": 66,
      "start": 15.6061,
      "duration": 0.1551,
      "velocity": 108,
      "chip": "ym2612"
    },
    {
      "channel": 3,
      "note": 73,
      "start": 15.6077,
      "duration": 0.1536,
      "velocity": 108,
      "chip": "ym2612"
    },
    {
      "channel": 4,
      "note": 66,
      "start": 15.6093,
      "duration": 0.1522,
      "velocity": 108,
      "chip": "ym2612"
    },
    {
      "channel": 2,
      "note": 66,
      "start": 15.7946,
      "duration": 0.1551,
      "velocity": 108,
      "chip": "ym2612"
    },
    {
      "channel": 3,
      "note": 66,
      "start": 15.7962,
      "duration": 0.1537,
      "velocity": 108,
      "chip": "ym2612"
    },
    {
      "channel": 4,
      "note": 73,
      "start": 15.7979,
      "duration": 0.1522,
      "velocity": 108,
      "chip": "ym2612"
    },
    {
      "channel": 2,
      "note": 71,
      "start": 15.9817,
      "duration": 0.1551,
      "velocity": 108,
      "chip": "ym2612"
    },
    {
      "channel": 3,
      "note": 66,
      "start": 15.9833,
      "duration": 0.1537,
      "velocity": 108,
      "chip": "ym2612"
    },
    {
      "channel": 4,
      "note": 66,
      "start": 15.985,
      "duration": 0.1522,
      "velocity": 108,
      "chip": "ym2612"
    },
    {
      "channel": 2,
      "note": 66,
      "start": 16.1695,
      "duration": 0.1551,
      "velocity": 108,
      "chip": "ym2612"
    },
    {
      "channel": 3,
      "note": 71,
      "start": 16.1711,
      "duration": 0.1537,
      "velocity": 108,
      "chip": "ym2612"
    },
    {
      "channel": 4,
      "note": 66,
      "start": 16.1727,
      "duration": 0.1522,
      "velocity": 108,
      "chip": "ym2612"
    },
    {
      "channel": 2,
      "note": 66,
      "start": 16.3573,
      "duration": 0.155,
      "velocity": 108,
      "chip": "ym2612"
    },
    {
      "channel": 3,
      "note": 66,
      "start": 16.3589,
      "duration": 0.1537,
      "velocity": 108,
      "chip": "ym2612"
    },
    {
      "channel": 4,
      "note": 71,
      "start": 16.3605,
      "duration": 0.1522,
      "velocity": 108,
      "chip": "ym2612"
    },
    {
      "channel": 2,
      "note": 69,
      "start": 16.5479,
      "duration": 0.1522,
      "velocity": 108,
      "chip": "ym2612"
    },
    {
      "channel": 3,
      "note": 66,
      "start": 16.5496,
      "duration": 0.1508,
      "velocity": 108,
      "chip": "ym2612"
    },
    {
      "channel": 4,
      "note": 66,
      "start": 16.5512,
      "duration": 0.1494,
      "velocity": 108,
      "chip": "ym2612"
    },
    {
      "channel": 2,
      "note": 66,
      "start": 16.733,
      "duration": 0.1551,
      "velocity": 108,
      "chip": "ym2612"
    },
    {
      "channel": 3,
      "note": 69,
      "start": 16.7346,
      "duration": 0.1537,
      "velocity": 108,
      "chip": "ym2612"
    },
    {
      "channel": 4,
      "note": 66,
      "start": 16.7362,
      "duration": 0.1523,
      "velocity": 108,
      "chip": "ym2612"
    },
    {
      "channel": 2,
      "note": 66,
      "start": 16.9207,
      "duration": 0.1551,
      "velocity": 108,
      "chip": "ym2612"
    },
    {
      "channel": 3,
      "note": 66,
      "start": 16.9223,
      "duration": 0.1536,
      "velocity": 108,
      "chip": "ym2612"
    },
    {
      "channel": 4,
      "note": 69,
      "start": 16.9239,
      "duration": 0.1523,
      "velocity": 108,
      "chip": "ym2612"
    },
    {
      "channel": 2,
      "note": 68,
      "start": 17.1084,
      "duration": 0.1551,
      "velocity": 108,
      "chip": "ym2612"
    },
    {
      "channel": 3,
      "note": 66,
      "start": 17.1101,
      "duration": 0.1538,
      "velocity": 108,
      "chip": "ym2612"
    },
    {
      "channel": 4,
      "note": 66,
      "start": 17.1117,
      "duration": 0.1524,
      "velocity": 108,
      "chip": "ym2612"
    },
    {
      "channel": 2,
      "note": 64,
      "start": 17.2966,
      "duration": 0.1548,
      "velocity": 108,
      "chip": "ym2612"
    },
    {
      "channel": 3,
      "note": 68,
      "start": 17.2982,
      "duration": 0.1533,
      "velocity": 108,
      "chip": "ym2612"
    },
    {
      "channel": 4,
      "note": 66,
      "start": 17.2999,
      "duration": 0.1519,
      "velocity": 108,
      "chip": "ym2612"
    },
    {
      "channel": 2,
      "note": 73,
      "start": 17.4841,
      "duration": 0.155,
      "velocity": 108,
      "chip": "ym2612"
    },
    {
      "channel": 3,
      "note": 64,
      "start": 17.486,
      "duration": 0.1534,
      "velocity": 108,
      "chip": "ym2612"
    },
    {
      "channel": 4,
      "note": 68,
      "start": 17.4876,
      "duration": 0.1519,
      "velocity": 108,
      "chip": "ym2612"
    },
    {
      "channel": 2,
      "note": 74,
      "start": 17.6719,
      "duration": 0.1553,
      "velocity": 108,
      "chip": "ym2612"
    },
    {
      "channel": 3,
      "note": 73,
      "start": 17.6734,
      "duration": 0.1539,
      "velocity": 108,
      "chip": "ym2612"
    },
    {
      "channel": 4,
      "note": 64,
      "start": 17.6754,
      "duration": 0.1521,
      "velocity": 108,
      "chip": "ym2612"
    },
    {
      "channel": 0,
      "note": 37,
      "start": 17.8595,
      "duration": 0.155,
      "velocity": 108,
      "chip": "ym2612"
    },
    {
      "channel": 1,
      "note": 37,
      "start": 17.8611,
      "duration": 0.1536,
      "velocity": 108,
      "chip": "ym2612"
    },
    {
      "channel": 2,
      "note": 76,
      "start": 17.8627,
      "duration": 0.1522,
      "velocity": 108,
      "chip": "ym2612"
    },
    {
      "channel": 3,
      "note": 74,
      "start": 17.8644,
      "duration": 0.1508,
      "velocity": 108,
      "chip": "ym2612"
    },
    {
      "channel": 4,
      "note": 73,
      "start": 17.866,
      "duration": 0.1493,
      "velocity": 108,
      "chip": "ym2612"
    },
    {
      "channel": 0,
      "note": 42,
      "start": 18.0478,
      "duration": 2.6116,
      "velocity": 108,
      "chip": "ym2612"
    },
    {
      "channel": 1,
      "note": 61,
      "start": 18.0534,
      "duration": 0.0244,
      "velocity": 127,
      "chip": "ym2612"
    },
    {
      "channel": 2,
      "note": 78,
      "start": 18.0585,
      "duration": 0.1601,
      "velocity": 108,
      "chip": "ym2612"
    },
    {
      "channel": 3,
      "note": 76,
      "start": 18.0602,
      "duration": 0.1587,
      "velocity": 108,
      "chip": "ym2612"
    },
    {
      "channel": 4,
      "note": 74,
      "start": 18.0617,
      "duration": 0.1573,
      "velocity": 108,
      "chip": "ym2612"
    },
    {
      "channel": 5,
      "note": 42,
      "start": 18.0672,
      "duration": 0.0739,
      "velocity": 110,
      "chip": "ym2612"
    },
    {
      "channel": 5,
      "note": 43,
      "start": 18.1582,
      "duration": 0.0768,
      "velocity": 110,
      "chip": "ym2612"
    },
    {
      "channel": 1,
      "note": 61,
      "start": 18.2512,
      "duration": 0.0143,
      "velocity": 127,
      "chip": "ym2612"
    },
    {
      "channel": 2,
      "note": 78,
      "start": 18.2528,
      "duration": 0.1536,
      "velocity": 108,
      "chip": "ym2612"
    },
    {
      "channel": 3,
      "note": 78,
      "start": 18.258,
      "duration": 0.1486,
      "velocity": 108,
      "chip": "ym2612"
    },
    {
      "channel": 4,
      "note": 76,
      "start": 18.2597,
      "duration": 0.1471,
      "velocity": 108,
      "chip": "ym2612"
    },
    {
      "channel": 5,
      "note": 45,
      "start": 18.2617,
      "duration": 0.0672,
      "velocity": 110,
      "chip": "ym2612"
    },
    {
      "channel": 5,
      "note": 46,
      "start": 18.346,
      "duration": 0.0768,
      "velocity": 110,
      "chip": "ym2612"
    },
    {
      "channel": 2,
      "note": 85,
      "start": 18.4391,
      "duration": 0.1551,
      "velocity": 108,
      "chip": "ym2612"
    },
    {
      "channel": 3,
      "note": 78,
      "start": 18.4407,
      "duration": 0.1537,
      "velocity": 108,
      "chip": "ym2612"
    },
    {
      "channel": 4,
      "note": 78,
      "start": 18.4459,
      "duration": 0.1487,
      "velocity": 108,
      "chip": "ym2612"
    },
    {
      "channel": 5,
      "note": 48,
      "start": 18.4481,
      "duration": 0.0686,
      "velocity": 110,
      "chip": "ym2612"
    },
    {
      "channel": 5,
      "note": 49,
      "start": 18.5338,
      "duration": 0.0768,
      "velocity": 110,
      "chip": "ym2612"
    },
    {
      "channel": 2,
      "note": 78,
      "start": 18.6269,
      "duration": 0.1547,
      "velocity": 108,
      "chip": "ym2612"
    },
    {
      "channel": 3,
      "note": 85,
      "start": 18.6285,
      "duration": 0.1532,
      "velocity": 108,
      "chip": "ym2612"
    },
    {
      "channel": 4,
      "note": 78,
      "start": 18.6302,
      "duration": 0.1518,
      "velocity": 108,
      "chip": "ym2612"
    },
    {
      "channel": 5,
      "note": 51,
      "start": 18.6323,
      "duration": 0.0722,
      "velocity": 110,
      "chip": "ym2612"
    },
    {
      "channel": 5,
      "note": 52,
      "start": 18.7216,
      "duration": 0.0765,
      "velocity": 110,
      "chip": "ym2612"
    },
    {
      "channel": 2,
      "note": 78,
      "start": 18.8143,
      "duration": 0.1551,
      "velocity": 108,
      "chip": "ym2612"
    },
    {
      "channel": 3,
      "note": 78,
      "start": 18.8159,
      "duration": 0.1537,
      "velocity": 108,
      "chip": "ym2612"
    },
    {
      "channel": 4,
      "note": 85,
      "start": 18.8176,
      "duration": 0.1522,
      "velocity": 108,
      "chip": "ym2612"
    },
    {
      "channel": 5,
      "note": 54,
      "start": 18.8198,
      "duration": 0.0721,
      "velocity": 110,
      "chip": "ym2612"
    },
    {
      "channel": 5,
      "note": 55,
      "start": 18.909,
      "duration": 0.0768,
      "velocity": 110,
      "chip": "ym2612"
    },
    {
      "channel": 2,
      "note": 83,
      "start": 19.0021,
      "duration": 0.1551,
      "velocity": 108,
      "chip": "ym2612"
    },
    {
      "channel": 3,
      "note": 78,
      "start": 19.0037,
      "duration": 0.1536,
      "velocity": 108,
      "chip": "ym2612"
    },
    {
      "channel": 4,
      "note": 78,
      "start": 19.0053,
      "duration": 0.1522,
      "velocity": 108,
      "chip": "ym2612"
    },
    {
      "channel": 5,
      "note": 57,
      "start": 19.0074,
      "duration": 0.0723,
      "velocity": 110,
      "chip": "ym2612"
    },
    {
      "channel": 5,
      "note": 58,
      "start": 19.0968,
      "duration": 0.0768,
      "velocity": 110,
      "chip": "ym2612"
    },
    {
      "channel": 2,
      "note": 78,
      "start": 19.1899,
      "duration": 0.1551,
      "velocity": 108,
      "chip": "ym2612"
    },
    {
      "channel": 3,
      "note": 83,
      "start": 19.1915,
      "duration": 0.1536,
      "velocity": 108,
      "chip": "ym2612"
    },
    {
      "channel": 4,
      "note": 78,
      "start": 19.1932,
      "duration": 0.1522,
      "velocity": 108,
      "chip": "ym2612"
    },
    {
      "channel": 5,
      "note": 60,
      "start": 19.1954,
      "duration": 0.0721,
      "velocity": 110,
      "chip": "ym2612"
    },
    {
      "channel": 5,
      "note": 61,
      "start": 19.2846,
      "duration": 0.0768,
      "velocity": 110,
      "chip": "ym2612"
    },
    {
      "channel": 1,
      "note": 61,
      "start": 19.3776,
      "duration": 0.0143,
      "velocity": 127,
      "chip": "ym2612"
    },
    {
      "channel": 2,
      "note": 78,
      "start": 19.3793,
      "duration": 0.1539,
      "velocity": 108,
      "chip": "ym2612"
    },
    {
      "channel": 3,
      "note": 78,
      "start": 19.3808,
      "duration": 0.1526,
      "velocity": 108,
      "chip": "ym2612"
    },
    {
      "channel": 4,
      "note": 83,
      "start": 19.3825,
      "duration": 0.1511,
      "velocity": 108,
      "chip": "ym2612"
    },
    {
      "channel": 5,
      "note": 63,
      "start": 19.3846,
      "duration": 0.0711,
      "velocity": 110,
      "chip": "ym2612"
    },
    {
      "channel": 5,
      "note": 64,
      "start": 19.4727,
      "duration": 0.0768,
      "velocity": 110,
      "chip": "ym2612"
    },
    {
      "channel": 2,
      "note": 81,
      "start": 19.5673,
      "duration": 0.1536,
      "velocity": 108,
      "chip": "ym2612"
    },
    {
      "channel": 3,
      "note": 78,
      "start": 19.569,
      "duration": 0.1522,
      "velocity": 108,
      "chip": "ym2612"
    },
    {
      "channel": 4,
      "note": 78,
      "start": 19.5706,
      "duration": 0.1508,
      "velocity": 108,
      "chip": "ym2612"
    },
    {
      "channel": 5,
      "note": 66,
      "start": 19.5729,
      "duration": 0.0706,
      "velocity": 110,
      "chip": "ym2612"
    },
    {
      "channel": 5,
      "note": 67,
      "start": 19.6605,
      "duration": 0.0768,
      "velocity": 110,
      "chip": "ym2612"
    },
    {
      "channel": 2,
      "note": 78,
      "start": 19.7537,
      "duration": 0.1546,
      "velocity": 108,
      "chip": "ym2612"
    },
    {
      "channel": 3,
      "note": 81,
      "start": 19.7553,
      "duration": 0.1533,
      "velocity": 108,
      "chip": "ym2612"
    },
    {
      "channel": 4,
      "note": 78,
      "start": 19.7569,
      "duration": 0.1518,
      "velocity": 108,
      "chip": "ym2612"
    },
    {
      "channel": 5,
      "note": 69,
      "start": 19.759,
      "duration": 0.0722,
      "velocity": 110,
      "chip": "ym2612"
    },
    {
      "channel": 5,
      "note": 70,
      "start": 19.8484,
      "duration": 0.0763,
      "velocity": 110,
      "chip": "ym2612"
    },
    {
      "channel": 2,
      "note": 78,
      "start": 19.9411,
      "duration": 0.155,
      "velocity": 108,
      "chip": "ym2612"
    },
    {
      "channel": 3,
      "note": 78,
      "start": 19.9427,
      "duration": 0.1537,
      "velocity": 108,
      "chip": "ym2612"
    },
    {
      "channel": 4,
      "note": 81,
      "start": 19.9443,
      "duration": 0.1522,
      "velocity": 108,
      "chip": "ym2612"
    },
    {
      "channel": 5,
      "note": 72,
      "start": 19.9466,
      "duration": 0.072,
      "velocity": 110,
      "chip": "ym2612"
    },
    {
      "channel": 5,
      "note": 73,
      "start": 20.0357,
      "duration": 0.0768,
      "velocity": 110,
      "chip": "ym2612"
    },
    {
      "channel": 2,
      "note": 80,
      "start": 20.1289,
      "duration": 0.1551,
      "velocity": 108,
      "chip": "ym2612"
    },
    {
      "channel": 3,
      "note": 78,
      "start": 20.1305,
      "duration": 0.1536,
      "velocity": 108,
      "chip": "ym2612"
    },
    {
      "channel": 4,
      "note": 78,
      "start": 20.1321,
      "duration": 0.1522,
      "velocity": 108,
      "chip": "ym2612"
    },
    {
      "channel": 5,
      "note": 75,
      "start": 20.1343,
      "duration": 0.0722,
      "velocity": 110,
      "chip": "ym2612"
    },
    {
      "channel": 5,
      "note": 76,
      "start": 20.2235,
      "duration": 0.0768,
      "velocity": 110,
      "chip": "ym2612"
    },
    {
      "channel": 2,
      "note": 76,
      "start": 20.317,
      "duration": 0.1547,
      "velocity": 108,
      "chip": "ym2612"
    },
    {
      "channel": 3,
      "note": 80,
      "start": 20.3186,
      "duration": 0.1533,
      "velocity": 108,
      "chip": "ym2612"
    },
    {
      "channel": 4,
      "note": 78,
      "start": 20.3203,
      "duration": 0.1518,
      "velocity": 108,
      "chip": "ym2612"
    },
    {
      "channel": 5,
      "note": 78,
      "start": 20.3225,
      "duration": 0.0718,
      "velocity": 110,
      "chip": "ym2612"
    },
    {
      "channel": 5,
      "note": 79,
      "start": 20.4114,
      "duration": 0.0768,
      "velocity": 110,
      "chip": "ym2612"
    },
    {
      "channel": 2,
      "note": 73,
      "start": 20.5044,
      "duration": 0.1552,
      "velocity": 108,
      "chip": "ym2612"
    },
    {
      "channel": 3,
      "note": 76,
      "start": 20.5064,
      "duration": 0.1534,
      "velocity": 108,
      "chip": "ym2612"
    },
    {
      "channel": 4,
      "note": 80,
      "start": 20.508,
      "duration": 0.152,
      "velocity": 108,
      "chip": "ym2612"
    },
    {
      "channel": 5,
      "note": 81,
      "start": 20.5102,
      "duration": 0.0719,
      "velocity": 110,
      "chip": "ym2612"
    },
    {
      "channel": 5,
      "note": 82,
      "start": 20.5992,
      "duration": 0.0768,
      "velocity": 110,
      "chip": "ym2612"
    },
    {
      "channel": 0,
      "note": 45,
      "start": 20.692,
      "duration": 0.1715,
      "velocity": 108,
      "chip": "ym2612"
    },
    {
      "channel": 2,
      "note": 81,
      "start": 20.6937,
      "duration": 0.1536,
      "velocity": 108,
      "chip": "ym2612"
    },
    {
      "channel": 3,
      "note": 73,
      "start": 20.6954,
      "duration": 0.1522,
      "velocity": 108,
      "chip": "ym2612"
    },
    {
      "channel": 4,
      "note": 76,
      "start": 20.6974,
      "duration": 0.1505,
      "velocity": 108,
      "chip": "ym2612"
    },
    {
      "channel": 5,
      "note": 84,
      "start": 20.6995,
      "duration": 0.0703,
      "velocity": 110,
      "chip": "ym2612"
    },
    {
      "channel": 5,
      "note": 85,
      "start": 20.7877,
      "duration": 0.0769,
      "velocity": 110,
      "chip": "ym2612"
    },
    {
      "channel": 0,
      "note": 44,
      "start": 20.8798,
      "duration": 0.1707,
      "velocity": 108,
      "chip": "ym2612"
    },
    {
      "channel": 1,
      "note": 61,
      "start": 20.8815,
      "duration": 0.0128,
      "velocity": 127,
      "chip": "ym2612"
    },
    {
      "channel": 2,
      "note": 80,
      "start": 20.8831,
      "duration": 0.1524,
      "velocity": 108,
      "chip": "ym2612"
    },
    {
      "channel": 3,
      "note": 81,
      "start": 20.8848,
      "duration": 0.151,
      "velocity": 108,
      "chip": "ym2612"
    },
    {
      "channel": 4,
      "note": 73,
      "start": 20.8864,
      "duration": 0.1495,
      "velocity": 108,
      "chip": "ym2612"
    },
    {
      "channel": 5,
      "note": 87,
      "start": 20.8885,
      "duration": 0.0695,
      "velocity": 110,
      "chip": "ym2612"
    },
    {
      "channel": 5,
      "note": 88,
      "start": 20.9752,
      "duration": 0.0769,
      "velocity": 110,
      "chip": "ym2612"
    },
    {
      "channel": 0,
      "note": 42,
      "start": 21.0677,
      "duration": 2.8155,
      "velocity": 108,
      "chip": "ym2612"
    },
    {
      "channel": 1,
      "note": 61,
      "start": 21.0697,
      "duration": 0.0293,
      "velocity": 127,
      "chip": "ym2612"
    },
    {
      "channel": 2,
      "note": 78,
      "start": 21.0747,
      "duration": 0.1643,
      "velocity": 108,
      "chip": "ym2612"
    },
    {
      "channel": 3,
      "note": 80,
      "start": 21.0764,
      "duration": 0.1629,
      "velocity": 108,
      "chip": "ym2612"
    },
    {
      "channel": 4,
      "note": 81,
      "start": 21.078,
      "duration": 0.1614,
      "velocity": 108,
      "chip": "ym2612"
    },
    {
      "channel": 5,
      "note": 90,
      "start": 21.0838,
      "duration": 0.0772,
      "velocity": 110,
      "chip": "ym2612"
    },
    {
      "channel": 5,
      "note": 97,
      "start": 21.1787,
      "duration": 0.0769,
      "velocity": 110,
      "chip": "ym2612"
    },
    {
      "channel": 1,
      "note": 61,
      "start": 21.2716,
      "duration": 0.0143,
      "velocity": 127,
      "chip": "ym2612"
    },
    {
      "channel": 2,
      "note": 78,
      "start": 21.2732,
      "duration": 0.1536,
      "velocity": 108,
      "chip": "ym2612"
    },
    {
      "channel": 3,
      "note": 78,
      "start": 21.2783,
      "duration": 0.1487,
      "velocity": 108,
      "chip": "ym2612"
    },
    {
      "channel": 4,
      "note": 80,
      "start": 21.2799,
      "duration": 0.1473,
      "velocity": 108,
      "chip": "ym2612"
    },
    {
      "channel": 5,
      "note": 98,
      "start": 21.2816,
      "duration": 0.0673,
      "velocity": 110,
      "chip": "ym2612"
    },
    {
      "channel": 5,
      "note": 97,
      "start": 21.366,
      "duration": 0.0767,
      "velocity": 110,
      "chip": "ym2612"
    },
    {
      "channel": 1,
      "note": 61,
      "start": 21.4626,
      "duration": 0.0274,
      "velocity": 127,
      "chip": "ym2612"
    },
    {
      "channel": 2,
      "note": 85,
      "start": 21.4642,
      "duration": 0.166,
      "velocity": 108,
      "chip": "ym2612"
    },
    {
      "channel": 3,
      "note": 78,
      "start": 21.4658,
      "duration": 0.1647,
      "velocity": 108,
      "chip": "ym2612"
    },
    {
      "channel": 4,
      "note": 78,
      "start": 21.4709,
      "duration": 0.1598,
      "velocity": 108,
      "chip": "ym2612"
    },
    {
      "channel": 5,
      "note": 96,
      "start": 21.4728,
      "duration": 0.0795,
      "velocity": 110,
      "chip": "ym2612"
    },
    {
      "channel": 5,
      "note": 97,
      "start": 21.5698,
      "duration": 0.0772,
      "velocity": 110,
      "chip": "ym2612"
    },
    {
      "channel": 2,
      "note": 78,
      "start": 21.6629,
      "duration": 0.1551,
      "velocity": 108,
      "chip": "ym2612"
    },
    {
      "channel": 3,
      "note": 85,
      "start": 21.6646,
      "duration": 0.1537,
      "velocity": 108,
      "chip": "ym2612"
    },
    {
      "channel": 4,
      "note": 78,
      "start": 21.6663,
      "duration": 0.1522,
      "velocity": 108,
      "chip": "ym2612"
    },
    {
      "channel": 5,
      "note": 98,
      "start": 21.6679,
      "duration": 0.0722,
      "velocity": 110,
      "chip": "ym2612"
    },
    {
      "channel": 5,
      "note": 97,
      "start": 21.7572,
      "duration": 0.0768,
      "velocity": 110,
      "chip": "ym2612"
    },
    {
      "channel": 2,
      "note": 78,
      "start": 21.8507,
      "duration": 0.1546,
      "velocity": 108,
      "chip": "ym2612"
    },
    {
      "channel": 3,
      "note": 78,
      "start": 21.8524,
      "duration": 0.1532,
      "velocity": 108,
      "chip": "ym2612"
    },
    {
      "channel": 4,
      "note": 85,
      "start": 21.854,
      "duration": 0.1518,
      "velocity": 108,
      "chip": "ym2612"
    },
    {
      "channel": 5,
      "note": 96,
      "start": 21.8558,
      "duration": 0.0721,
      "velocity": 110,
      "chip": "ym2612"
    },
    {
      "channel": 5,
      "note": 97,
      "start": 21.945,
      "duration": 0.0764,
      "velocity": 110,
      "chip": "ym2612"
    },
    {
      "channel": 2,
      "note": 83,
      "start": 22.0382,
      "duration": 0.155,
      "velocity": 108,
      "chip": "ym2612"
    },
    {
      "channel": 3,
      "note": 78,
      "start": 22.0399,
      "duration": 0.1536,
      "velocity": 108,
      "chip": "ym2612"
    },
    {
      "channel": 4,
      "note": 78,
      "start": 22.0415,
      "duration": 0.1522,
      "velocity": 108,
      "chip": "ym2612"
    },
    {
      "channel": 5,
      "note": 98,
      "start": 22.0432,
      "duration": 0.0724,
      "velocity": 110,
      "chip": "ym2612"
    },
    {
      "channel": 5,
      "note": 97,
      "start": 22.1324,
      "duration": 0.0767,
      "velocity": 110,
      "chip": "ym2612"
    },
    {
      "channel": 1,
      "note": 61,
      "start": 22.2258,
      "duration": 0.0143,
      "velocity": 127,
      "chip": "ym2612"
    },
    {
      "channel": 2,
      "note": 78,
      "start": 22.2274,
      "duration": 0.154,
      "velocity": 108,
      "chip": "ym2612"
    },
    {
      "channel": 3,
      "note": 83,
      "start": 22.229,
      "duration": 0.1525,
      "velocity": 108,
      "chip": "ym2612"
    },
    {
      "channel": 4,
      "note": 78,
      "start": 22.2307,
      "duration": 0.1511,
      "velocity": 108,
      "chip": "ym2612"
    },
    {
      "channel": 5,
      "note": 96,
      "start": 22.2325,
      "duration": 0.0709,
      "velocity": 110,
      "chip": "ym2612"
    },
    {
      "channel": 5,
      "note": 97,
      "start": 22.3206,
      "duration": 0.0768,
      "velocity": 110,
      "chip": "ym2612"
    },
    {
      "channel": 2,
      "note": 78,
      "start": 22.4141,
      "duration": 0.1551,
      "velocity": 108,
      "chip": "ym2612"
    },
    {
      "channel": 3,
      "note": 78,
      "start": 22.4158,
      "duration": 0.1536,
      "velocity": 108,
      "chip": "ym2612"
    },
    {
      "channel": 4,
      "note": 83,
      "start": 22.4174,
      "duration": 0.1522,
      "velocity": 108,
      "chip": "ym2612"
    },
    {
      "channel": 5,
      "note": 98,
      "start": 22.4191,
      "duration": 0.0721,
      "velocity": 110,
      "chip": "ym2612"
    },
    {
      "channel": 5,
      "note": 97,
      "start": 22.5085,
      "duration": 0.077,
      "velocity": 110,
      "chip": "ym2612"
    },
    {
      "channel": 1,
      "note": 61,
      "start": 22.6034,
      "duration": 0.0128,
      "velocity": 127,
      "chip": "ym2612"
    },
    {
      "channel": 2,
      "note": 81,
      "start": 22.605,
      "duration": 0.152,
      "velocity": 108,
      "chip": "ym2612"
    },
    {
      "channel": 3,
      "note": 78,
      "start": 22.6067,
      "duration": 0.1505,
      "velocity": 108,
      "chip": "ym2612"
    },
    {
      "channel": 4,
      "note": 78,
      "start": 22.6083,
      "duration": 0.1491,
      "velocity": 108,
      "chip": "ym2612"
    },
    {
      "channel": 5,
      "note": 96,
      "start": 22.6102,
      "duration": 0.069,
      "velocity": 110,
      "chip": "ym2612"
    },
    {
      "channel": 1,
      "note": 61,
      "start": 22.6957,
      "duration": 0.0143,
      "velocity": 127,
      "chip": "ym2612"
    },
    {
      "channel": 5,
      "note": 97,
      "start": 22.6978,
      "duration": 0.0753,
      "velocity": 110,
      "chip": "ym2612"
    },
    {
      "channel": 2,
      "note": 78,
      "start": 22.7897,
      "duration": 0.1551,
      "velocity": 108,
      "chip": "ym2612"
    },
    {
      "channel": 3,
      "note": 81,
      "start": 22.7913,
      "duration": 0.1537,
      "velocity": 108,
      "chip": "ym2612"
    },
    {
      "channel": 4,
      "note": 78,
      "start": 22.793,
      "duration": 0.1522,
      "velocity": 108,
      "chip": "ym2612"
    },
    {
      "channel": 5,
      "note": 98,
      "start": 22.7947,
      "duration": 0.0722,
      "velocity": 110,
      "chip": "ym2612"
    },
    {
      "channel": 1,
      "note": 61,
      "start": 22.8837,
      "duration": 0.0141,
      "velocity": 127,
      "chip": "ym2612"
    },
    {
      "channel": 5,
      "note": 97,
      "start": 22.8857,
      "duration": 0.0751,
      "velocity": 110,
      "chip": "ym2612"
    },
    {
      "channel": 1,
      "note": 61,
      "start": 22.9774,
      "duration": 0.0144,
      "velocity": 127,
      "chip": "ym2612"
    },
    {
      "channel": 2,
      "note": 78,
      "start": 22.979,
      "duration": 0.1536,
      "velocity": 108,
      "chip": "ym2612"
    },
    {
      "channel": 3,
      "note": 78,
      "start": 22.9806,
      "duration": 0.1522,
      "velocity": 108,
      "chip": "ym2612"
    },
    {
      "channel": 4,
      "note": 81,
      "start": 22.9823,
      "duration": 0.1508,
      "velocity": 108,
      "chip": "ym2612"
    },
    {
      "channel": 5,
      "note": 96,
      "start": 22.9842,
      "duration": 0.0705,
      "velocity": 110,
      "chip": "ym2612"
    },
    {
      "channel": 5,
      "note": 97,
      "start": 23.0718,
      "duration": 0.0768,
      "velocity": 110,
      "chip": "ym2612"
    },
    {
      "channel": 1,
      "note": 61,
      "start": 23.1653,
      "duration": 0.0143,
      "velocity": 127,
      "chip": "ym2612"
    },
    {
      "channel": 2,
      "note": 80,
      "start": 23.167,
      "duration": 0.1534,
      "velocity": 108,
      "chip": "ym2612"
    },
    {
      "channel": 3,
      "note": 78,
      "start": 23.1686,
      "duration": 0.152,
      "velocity": 108,
      "chip": "ym2612"
    },
    {
      "channel": 4,
      "note": 78,
      "start": 23.1702,
      "duration": 0.1506,
      "velocity": 108,
      "chip": "ym2612"
    },
    {
      "channel": 5,
      "note": 98,
      "start": 23.1719,
      "duration": 0.0705,
      "velocity": 110,
      "chip": "ym2612"
    },
    {
      "channel": 1,
      "note": 61,
      "start": 23.2591,
      "duration": 0.0143,
      "velocity": 127,
      "chip": "ym2612"
    },
    {
      "channel": 5,
      "note": 97,
      "start": 23.2611,
      "duration": 0.0753,
      "velocity": 110,
      "chip": "ym2612"
    },
    {
      "channel": 2,
      "note": 76,
      "start": 23.3534,
      "duration": 0.1548,
      "velocity": 108,
      "chip": "ym2612"
    },
    {
      "channel": 3,
      "note": 80,
      "start": 23.355,
      "duration": 0.1534,
      "velocity": 108,
      "chip": "ym2612"
    },
    {
      "channel": 4,
      "note": 78,
      "start": 23.3567,
      "duration": 0.1519,
      "velocity": 108,
      "chip": "ym2612"
    },
    {
      "channel": 5,
      "note": 96,
      "start": 23.3585,
      "duration": 0.0718,
      "velocity": 110,
      "chip": "ym2612"
    },
    {
      "channel": 1,
      "note": 61,
      "start": 23.447,
      "duration": 0.0143,
      "velocity": 127,
      "chip": "ym2612"
    },
    {
      "channel": 5,
      "note": 97,
      "start": 23.449,
      "duration": 0.0751,
      "velocity": 110,
      "chip": "ym2612"
    },
    {
      "channel": 1,
      "note": 61,
      "start": 23.5408,
      "duration": 0.0143,
      "velocity": 127,
      "chip": "ym2612"
    },
    {
      "channel": 2,
      "note": 85,
      "start": 23.5424,
      "duration": 0.1536,
      "velocity": 108,
      "chip": "ym2612"
    },
    {
      "channel": 3,
      "note": 76,
      "start": 23.5444,
      "duration": 0.1518,
      "velocity": 108,
      "chip": "ym2612"
    },
    {
      "channel": 4,
      "note": 80,
      "start": 23.546,
      "duration": 0.1504,
      "velocity": 108,
      "chip": "ym2612"
    },
    {
      "channel": 5,
      "note": 95,
      "start": 23.5477,
      "duration": 0.0704,
      "velocity": 110,
      "chip": "ym2612"
    },
    {
      "channel": 5,
      "note": 93,
      "start": 23.6352,
      "duration": 0.0767,
      "velocity": 110,
      "chip": "ym2612"
    },
    {
      "channel": 1,
      "note": 61,
      "start": 23.7287,
      "duration": 0.0142,
      "velocity": 127,
      "chip": "ym2612"
    },
    {
      "channel": 2,
      "note": 86,
      "start": 23.7303,
      "duration": 0.1536,
      "velocity": 108,
      "chip": "ym2612"
    },
    {
      "channel": 3,
      "note": 85,
      "start": 23.732,
      "duration": 0.1521,
      "velocity": 108,
      "chip": "ym2612"
    },
    {
      "channel": 4,
      "note": 76,
      "start": 23.7339,
      "duration": 0.1503,
      "velocity": 108,
      "chip": "ym2612"
    },
    {
      "channel": 5,
      "note": 92,
      "start": 23.7357,
      "duration": 0.0702,
      "velocity": 110,
      "chip": "ym2612"
    },
    {
      "channel": 1,
      "note": 61,
      "start": 23.8225,
      "duration": 0.0143,
      "velocity": 127,
      "chip": "ym2612"
    },
    {
      "channel": 5,
      "note": 90,
      "start": 23.8245,
      "duration": 0.0753,
      "velocity": 110,
      "chip": "ym2612"
    },
    {
      "channel": 0,
      "note": 37,
      "start": 23.9158,
      "duration": 0.1551,
      "velocity": 108,
      "chip": "ym2612"
    },
    {
      "channel": 1,
      "note": 61,
      "start": 23.9179,
      "duration": 0.0128,
      "velocity": 127,
      "chip": "ym2612"
    },
    {
      "channel": 2,
      "note": 88,
      "start": 23.9195,
      "duration": 0.1522,
      "velocity": 108,
      "chip": "ym2612"
    },
    {
      "channel": 3,
      "note": 86,
      "start": 23.9212,
      "duration": 0.1507,
      "velocity": 108,
      "chip": "ym2612"
    },
    {
      "channel": 4,
      "note": 85,
      "start": 23.9228,
      "duration": 0.1493,
      "velocity": 108,
      "chip": "ym2612"
    },
    {
      "channel": 5,
      "note": 92,
      "start": 23.9245,
      "duration": 0.0692,
      "velocity": 110,
      "chip": "ym2612"
    },
    {
      "channel": 1,
      "note": 61,
      "start": 24.0103,
      "duration": 0.0144,
      "velocity": 127,
      "chip": "ym2612"
    },
    {
      "channel": 5,
      "note": 93,
      "start": 24.0123,
      "duration": 0.0753,
      "velocity": 110,
      "chip": "ym2612"
    },
    {
      "channel": 0,
      "note": 42,
      "start": 24.1039,
      "duration": 0.5461,
      "velocity": 108,
      "chip": "ym2612"
    },
    {
      "channel": 1,
      "note": 61,
      "start": 24.1098,
      "duration": 0.0243,
      "velocity": 127,
      "chip": "ym2612"
    },
    {
      "channel": 2,
      "note": 90,
      "start": 24.1152,
      "duration": 0.0347,
      "velocity": 107,
      "chip": "ym2612"
    },
    {
      "channel": 3,
      "note": 88,
      "start": 24.1168,
      "duration": 0.1583,
      "velocity": 108,
      "chip": "ym2612"
    },
    {
      "channel": 4,
      "note": 85,
      "start": 24.1221,
      "duration": 0.0281,
      "velocity": 107,
      "chip": "ym2612"
    },
    {
      "channel": 5,
      "note": 95,
      "start": 24.1244,
      "duration": 0.0728,
      "velocity": 110,
      "chip": "ym2612"
    },
    {
      "channel": 2,
      "note": 90,
      "start": 24.2139,
      "duration": 0.0455,
      "velocity": 107,
      "chip": "ym2612"
    },
    {
      "channel": 4,
      "note": 85,
      "start": 24.2156,
      "duration": 0.044,
      "velocity": 107,
      "chip": "ym2612"
    },
    {
      "channel": 5,
      "note": 109,
      "start": 24.2173,
      "duration": 0.0737,
      "velocity": 110,
      "chip": "ym2612"
    },
    {
      "channel": 1,
      "note": 61,
      "start": 24.3108,
      "duration": 0.0112,
      "velocity": 127,
      "chip": "ym2612"
    },
    {
      "channel": 3,
      "note": 90,
      "start": 24.3165,
      "duration": 0.0212,
      "velocity": 107,
      "chip": "ym2612"
    },
    {
      "channel": 5,
      "note": 105,
      "start": 24.3182,
      "duration": 0.0667,
      "velocity": 110,
      "chip": "ym2612"
    },
    {
      "channel": 1,
      "note": 61,
      "start": 24.4016,
      "duration": 0.0143,
      "velocity": 127,
      "chip": "ym2612"
    },
    {
      "channel": 2,
      "note": 90,
      "start": 24.4032,
      "duration": 0.0284,
      "velocity": 107,
      "chip": "ym2612"
    },
    {
      "channel": 3,
      "note": 90,
      "start": 24.4048,
      "duration": 0.0424,
      "velocity": 107,
      "chip": "ym2612"
    },
    {
      "channel": 4,
      "note": 85,
      "start": 24.4065,
      "duration": 0.0253,
      "velocity": 107,
      "chip": "ym2612"
    },
    {
      "channel": 5,
      "note": 102,
      "start": 24.4082,
      "duration": 0.0706,
      "velocity": 110,
      "chip": "ym2612"
    },
    {
      "channel": 1,
      "note": 61,
      "start": 24.4955,
      "duration": 0.0143,
      "velocity": 127,
      "chip": "ym2612"
    },
    {
      "channel": 2,
      "note": 90,
      "start": 24.4971,
      "duration": 0.044,
      "velocity": 107,
      "chip": "ym2612"
    },
    {
      "channel": 4,
      "note": 85,
      "start": 24.4988,
      "duration": 0.0425,
      "velocity": 107,
      "chip": "ym2612"
    },
    {
      "channel": 5,
      "note": 97,
      "start": 24.5005,
      "duration": 0.0722,
      "velocity": 110,
      "chip": "ym2612"
    },
    {
      "channel": 3,
      "note": 90,
      "start": 24.5895,
      "duration": 0.0298,
      "velocity": 107,
      "chip": "ym2612"
    },
    {
      "channel": 5,
      "note": 102,
      "start": 24.5913,
      "duration": 0.0752,
      "velocity": 110,
      "chip": "ym2612"
    },
    {
      "channel": 0,
      "note": 40,
      "start": 24.6827,
      "duration": 0.5307,
      "velocity": 108,
      "chip": "ym2612"
    },
    {
      "channel": 1,
      "note": 61,
      "start": 24.6881,
      "duration": 0.0095,
      "velocity": 127,
      "chip": "ym2612"
    },
    {
      "channel": 2,
      "note": 88,
      "start": 24.6897,
      "duration": 0.0235,
      "velocity": 107,
      "chip": "ym2612"
    },
    {
      "channel": 3,
      "note": 90,
      "start": 24.6914,
      "duration": 0.0376,
      "velocity": 107,
      "chip": "ym2612"
    },
    {
      "channel": 4,
      "note": 85,
      "start": 24.693,
      "duration": 0.0205,
      "velocity": 107,
      "chip": "ym2612"
    },
    {
      "channel": 5,
      "note": 105,
      "start": 24.6947,
      "duration": 0.0658,
      "velocity": 110,
      "chip": "ym2612"
    },
    {
      "channel": 2,
      "note": 88,
      "start": 24.7773,
      "duration": 0.0455,
      "velocity": 107,
      "chip": "ym2612"
    },
    {
      "channel": 4,
      "note": 85,
      "start": 24.779,
      "duration": 0.0441,
      "velocity": 107,
      "chip": "ym2612"
    },
    {
      "channel": 5,
      "note": 107,
      "start": 24.7807,
      "duration": 0.0737,
      "velocity": 110,
      "chip": "ym2612"
    },
    {
      "channel": 1,
      "note": 61,
      "start": 24.8741,
      "duration": 0.0112,
      "velocity": 127,
      "chip": "ym2612"
    },
    {
      "channel": 3,
      "note": 88,
      "start": 24.8759,
      "duration": 0.0252,
      "velocity": 107,
      "chip": "ym2612"
    },
    {
      "channel": 5,
      "note": 104,
      "start": 24.8777,
      "duration": 0.0705,
      "velocity": 110,
      "chip": "ym2612"
    },
    {
      "channel": 1,
      "note": 61,
      "start": 24.9649,
      "duration": 0.0143,
      "velocity": 127,
      "chip": "ym2612"
    },
    {
      "channel": 2,
      "note": 88,
      "start": 24.9666,
      "duration": 0.0283,
      "velocity": 107,
      "chip": "ym2612"
    },
    {
      "channel": 3,
      "note": 88,
      "start": 24.9682,
      "duration": 0.0424,
      "velocity": 107,
      "chip": "ym2612"
    },
    {
      "channel": 4,
      "note": 85,
      "start": 24.9699,
      "duration": 0.0253,
      "velocity": 107,
      "chip": "ym2612"
    },
    {
      "channel": 5,
      "note": 100,
      "start": 24.9716,
      "duration": 0.0705,
      "velocity": 110,
      "chip": "ym2612"
    },
    {
      "channel": 1,
      "note": 61,
      "start": 25.0588,
      "duration": 0.0143,
      "velocity": 127,
      "chip": "ym2612"
    },
    {
      "channel": 2,
      "note": 88,
      "start": 25.0605,
      "duration": 0.044,
      "velocity": 107,
      "chip": "ym2612"
    },
    {
      "channel": 4,
      "note": 85,
      "start": 25.0623,
      "duration": 0.0425,
      "velocity": 107,
      "chip": "ym2612"
    },
    {
      "channel": 5,
      "note": 95,
      "start": 25.064,
      "duration": 0.0721,
      "velocity": 110,
      "chip": "ym2612"
    },
    {
      "channel": 3,
      "note": 88,
      "start": 25.1529,
      "duration": 0.03,
      "velocity": 107,
      "chip": "ym2612"
    },
    {
      "channel": 5,
      "note": 100,
      "start": 25.1548,
      "duration": 0.0752,
      "velocity": 110,
      "chip": "ym2612"
    },
    {
      "channel": 0,
      "note": 38,
      "start": 25.2461,
      "duration": 0.155,
      "velocity": 108,
      "chip": "ym2612"
    },
    {
      "channel": 1,
      "note": 64,
      "start": 25.2517,
      "duration": 0.0093,
      "velocity": 106,
      "chip": "ym2612"
    },
    {
      "channel": 2,
      "note": 93,
      "start": 25.2534,
      "duration": 0.1485,
      "velocity": 107,
      "chip": "ym2612"
    },
    {
      "channel": 3,
      "note": 88,
      "start": 25.255,
      "duration": 0.0373,
      "velocity": 107,
      "chip": "ym2612"
    },
    {
      "channel": 4,
      "note": 88,
      "start": 25.2567,
      "duration": 0.1455,
      "velocity": 107,
      "chip": "ym2612"
    },
    {
      "channel": 5,
      "note": 104,
      "start": 25.2584,
      "duration": 0.0655,
      "velocity": 110,
      "chip": "ym2612"
    },
    {
      "channel": 1,
      "note": 57,
      "start": 25.3407,
      "duration": 0.0141,
      "velocity": 106,
      "chip": "ym2612"
    },
    {
      "channel": 5,
      "note": 105,
      "start": 25.3427,
      "duration": 0.075,
      "velocity": 110,
      "chip": "ym2612"
    },
    {
      "channel": 0,
      "note": 40,
      "start": 25.4339,
      "duration": 0.155,
      "velocity": 108,
      "chip": "ym2612"
    },
    {
      "channel": 1,
      "note": 52,
      "start": 25.4359,
      "duration": 0.0128,
      "velocity": 106,
      "chip": "ym2612"
    },
    {
      "channel": 2,
      "note": 92,
      "start": 25.4375,
      "duration": 0.1522,
      "velocity": 107,
      "chip": "ym2612"
    },
    {
      "channel": 3,
      "note": 93,
      "start": 25.4392,
      "duration": 0.1507,
      "velocity": 107,
      "chip": "ym2612"
    },
    {
      "channel": 4,
      "note": 88,
      "start": 25.4408,
      "duration": 0.1493,
      "velocity": 107,
      "chip": "ym2612"
    },
    {
      "channel": 5,
      "note": 102,
      "start": 25.4425,
      "duration": 0.0691,
      "velocity": 110,
      "chip": "ym2612"
    },
    {
      "channel": 1,
      "note": 52,
      "start": 25.5285,
      "duration": 0.0141,
      "velocity": 106,
      "chip": "ym2612"
    },
    {
      "channel": 5,
      "note": 104,
      "start": 25.5305,
      "duration": 0.0751,
      "velocity": 110,
      "chip": "ym2612"
    },
    {
      "channel": 0,
      "note": 42,
      "start": 25.6219,
      "duration": 0.5468,
      "velocity": 108,
      "chip": "ym2612"
    },
    {
      "channel": 1,
      "note": 61,
      "start": 25.6276,
      "duration": 0.0245,
      "velocity": 127,
      "chip": "ym2612"
    },
    {
      "channel": 2,
      "note": 90,
      "start": 25.6327,
      "duration": 0.0352,
      "velocity": 107,
      "chip": "ym2612"
    },
    {
      "channel": 3,
      "note": 92,
      "start": 25.6343,
      "duration": 0.1588,
      "velocity": 107,
      "chip": "ym2612"
    },
    {
      "channel": 4,
      "note": 85,
      "start": 25.6394,
      "duration": 0.0288,
      "velocity": 107,
      "chip": "ym2612"
    },
    {
      "channel": 5,
      "note": 107,
      "start": 25.6414,
      "duration": 0.0737,
      "velocity": 110,
      "chip": "ym2612"
    },
    {
      "channel": 2,
      "note": 90,
      "start": 25.7319,
      "duration": 0.0455,
      "velocity": 107,
      "chip": "ym2612"
    },
    {
      "channel": 4,
      "note": 85,
      "start": 25.7338,
      "duration": 0.0439,
      "velocity": 107,
      "chip": "ym2612"
    },
    {
      "channel": 5,
      "note": 109,
      "start": 25.7354,
      "duration": 0.0736,
      "velocity": 110,
      "chip": "ym2612"
    },
    {
      "channel": 1,
      "note": 61,
      "start": 25.8288,
      "duration": 0.0112,
      "velocity": 127,
      "chip": "ym2612"
    },
    {
      "channel": 3,
      "note": 90,
      "start": 25.834,
      "duration": 0.0217,
      "velocity": 107,
      "chip": "ym2612"
    },
    {
      "channel": 5,
      "note": 105,
      "start": 25.8358,
      "duration": 0.0671,
      "velocity": 110,
      "chip": "ym2612"
    },
    {
      "channel": 1,
      "note": 61,
      "start": 25.9195,
      "duration": 0.0144,
      "velocity": 127,
      "chip": "ym2612"
    },
    {
      "channel": 2,
      "note": 90,
      "start": 25.9212,
      "duration": 0.0284,
      "velocity": 107,
      "chip": "ym2612"
    },
    {
      "channel": 3,
      "note": 90,
      "start": 25.9228,
      "duration": 0.0425,
      "velocity": 107,
      "chip": "ym2612"
    },
    {
      "channel": 4,
      "note": 85,
      "start": 25.9245,
      "duration": 0.0254,
      "velocity": 107,
      "chip": "ym2612"
    },
    {
      "channel": 5,
      "note": 102,
      "start": 25.9262,
      "duration": 0.0706,
      "velocity": 110,
      "chip": "ym2612"
    },
    {
      "channel": 1,
      "note": 61,
      "start": 26.0142,
      "duration": 0.0135,
      "velocity": 127,
      "chip": "ym2612"
    },
    {
      "channel": 2,
      "note": 90,
      "start": 26.0159,
      "duration": 0.0432,
      "velocity": 107,
      "chip": "ym2612"
    },
    {
      "channel": 4,
      "note": 85,
      "start": 26.0177,
      "duration": 0.0417,
      "velocity": 107,
      "chip": "ym2612"
    },
    {
      "channel": 5,
      "note": 97,
      "start": 26.0194,
      "duration": 0.0721,
      "velocity": 110,
      "chip": "ym2612"
    },
    {
      "channel": 3,
      "note": 90,
      "start": 26.1076,
      "duration": 0.0299,
      "velocity": 107,
      "chip": "ym2612"
    },
    {
      "channel": 5,
      "note": 102,
      "start": 26.1093,
      "duration": 0.0752,
      "velocity": 110,
      "chip": "ym2612"
    },
    {
      "channel": 0,
      "note": 40,
      "start": 26.2007,
      "duration": 0.5307,
      "velocity": 108,
      "chip": "ym2612"
    },
    {
      "channel": 1,
      "note": 61,
      "start": 26.206,
      "duration": 0.0095,
      "velocity": 127,
      "chip": "ym2612"
    },
    {
      "channel": 2,
      "note": 88,
      "start": 26.2077,
      "duration": 0.0235,
      "velocity": 107,
      "chip": "ym2612"
    },
    {
      "channel": 3,
      "note": 90,
      "start": 26.2093,
      "duration": 0.0386,
      "velocity": 107,
      "chip": "ym2612"
    },
    {
      "channel": 4,
      "note": 85,
      "start": 26.211,
      "duration": 0.0206,
      "velocity": 107,
      "chip": "ym2612"
    },
    {
      "channel": 5,
      "note": 105,
      "start": 26.2127,
      "duration": 0.0658,
      "velocity": 110,
      "chip": "ym2612"
    },
    {
      "channel": 2,
      "note": 88,
      "start": 26.2953,
      "duration": 0.0455,
      "velocity": 107,
      "chip": "ym2612"
    },
    {
      "channel": 4,
      "note": 85,
      "start": 26.297,
      "duration": 0.0441,
      "velocity": 107,
      "chip": "ym2612"
    },
    {
      "channel": 5,
      "note": 107,
      "start": 26.2987,
      "duration": 0.0737,
      "velocity": 110,
      "chip": "ym2612"
    },
    {
      "channel": 1,
      "note": 61,
      "start": 26.3922,
      "duration": 0.0118,
      "velocity": 127,
      "chip": "ym2612"
    },
    {
      "channel": 3,
      "note": 88,
      "start": 26.3939,
      "duration": 0.0252,
      "velocity": 107,
      "chip": "ym2612"
    },
    {
      "channel": 5,
      "note": 104,
      "start": 26.3958,
      "duration": 0.0705,
      "velocity": 110,
      "chip": "ym2612"
    },
    {
      "channel": 1,
      "note": 61,
      "start": 26.4835,
      "duration": 0.0138,
      "velocity": 127,
      "chip": "ym2612"
    },
    {
      "channel": 2,
      "note": 88,
      "start": 26.4852,
      "duration": 0.0277,
      "velocity": 107,
      "chip": "ym2612"
    },
    {
      "channel": 3,
      "note": 88,
      "start": 26.4868,
      "duration": 0.0419,
      "velocity": 107,
      "chip": "ym2612"
    },
    {
      "channel": 4,
      "note": 85,
      "start": 26.4885,
      "duration": 0.0248,
      "velocity": 107,
      "chip": "ym2612"
    },
    {
      "channel": 5,
      "note": 100,
      "start": 26.4902,
      "duration": 0.0707,
      "velocity": 110,
      "chip": "ym2612"
    },
    {
      "channel": 1,
      "note": 61,
      "start": 26.5769,
      "duration": 0.0142,
      "velocity": 127,
      "chip": "ym2612"
    },
    {
      "channel": 2,
      "note": 88,
      "start": 26.5785,
      "duration": 0.0439,
      "velocity": 107,
      "chip": "ym2612"
    },
    {
      "channel": 4,
      "note": 85,
      "start": 26.5803,
      "duration": 0.0425,
      "velocity": 107,
      "chip": "ym2612"
    },
    {
      "channel": 5,
      "note": 95,
      "start": 26.582,
      "duration": 0.0721,
      "velocity": 110,
      "chip": "ym2612"
    },
    {
      "channel": 3,
      "note": 88,
      "start": 26.671,
      "duration": 0.0298,
      "velocity": 107,
      "chip": "ym2612"
    },
    {
      "channel": 5,
      "note": 100,
      "start": 26.6727,
      "duration": 0.0753,
      "velocity": 110,
      "chip": "ym2612"
    },
    {
      "channel": 0,
      "note": 38,
      "start": 26.7641,
      "duration": 0.1551,
      "velocity": 108,
      "chip": "ym2612"
    },
    {
      "channel": 1,
      "note": 64,
      "start": 26.7697,
      "duration": 0.0093,
      "velocity": 106,
      "chip": "ym2612"
    },
    {
      "channel": 2,
      "note": 93,
      "start": 26.7713,
      "duration": 0.1486,
      "velocity": 107,
      "chip": "ym2612"
    },
    {
      "channel": 3,
      "note": 88,
      "start": 26.7729,
      "duration": 0.0374,
      "velocity": 107,
      "chip": "ym2612"
    },
    {
      "channel": 4,
      "note": 88,
      "start": 26.7746,
      "duration": 0.1456,
      "velocity": 107,
      "chip": "ym2612"
    },
    {
      "channel": 5,
      "note": 104,
      "start": 26.7763,
      "duration": 0.0656,
      "velocity": 110,
      "chip": "ym2612"
    },
    {
      "channel": 1,
      "note": 57,
      "start": 26.8588,
      "duration": 0.0147,
      "velocity": 106,
      "chip": "ym2612"
    },
    {
      "channel": 5,
      "note": 105,
      "start": 26.8607,
      "duration": 0.0751,
      "velocity": 110,
      "chip": "ym2612"
    },
    {
      "channel": 0,
      "note": 40,
      "start": 26.9522,
      "duration": 0.155,
      "velocity": 108,
      "chip": "ym2612"
    },
    {
      "channel": 1,
      "note": 52,
      "start": 26.9542,
      "duration": 0.0125,
      "velocity": 106,
      "chip": "ym2612"
    },
    {
      "channel": 2,
      "note": 92,
      "start": 26.9558,
      "duration": 0.1522,
      "velocity": 107,
      "chip": "ym2612"
    },
    {
      "channel": 3,
      "note": 93,
      "start": 26.9575,
      "duration": 0.1507,
      "velocity": 107,
      "chip": "ym2612"
    },
    {
      "channel": 4,
      "note": 88,
      "start": 26.9591,
      "duration": 0.1492,
      "velocity": 107,
      "chip": "ym2612"
    },
    {
      "channel": 5,
      "note": 102,
      "start": 26.9609,
      "duration": 0.0691,
      "velocity": 110,
      "chip": "ym2612"
    },
    {
      "channel": 1,
      "note": 52,
      "start": 27.0465,
      "duration": 0.0142,
      "velocity": 106,
      "chip": "ym2612"
    },
    {
      "channel": 5,
      "note": 104,
      "start": 27.0485,
      "duration": 0.0751,
      "velocity": 110,
      "chip": "ym2612"
    },
    {
      "channel": 0,
      "note": 42,
      "start": 27.1401,
      "duration": 0.0764,
      "velocity": 108,
      "chip": "ym2612"
    },
    {
      "channel": 1,
      "note": 61,
      "start": 27.1458,
      "duration": 0.0244,
      "velocity": 127,
      "chip": "ym2612"
    },
    {
      "channel": 2,
      "note": 90,
      "start": 27.1479,
      "duration": 0.0693,
      "velocity": 107,
      "chip": "ym2612"
    },
    {
      "channel": 3,
      "note": 92,
      "start": 27.1495,
      "duration": 0.1616,
      "velocity": 107,
      "chip": "ym2612"
    },
    {
      "channel": 4,
      "note": 85,
      "start": 27.1516,
      "duration": 0.0659,
      "velocity": 107,
      "chip": "ym2612"
    },
    {
      "channel": 5,
      "note": 107,
      "start": 27.1538,
      "duration": 0.0794,
      "velocity": 110,
      "chip": "ym2612"
    },
    {
      "channel": 0,
      "note": 42,
      "start": 27.2492,
      "duration": 0.0299,
      "velocity": 108,
      "chip": "ym2612"
    },
    {
      "channel": 1,
      "note": 61,
      "start": 27.2513,
      "duration": 0.013,
      "velocity": 127,
      "chip": "ym2612"
    },
    {
      "channel": 2,
      "note": 90,
      "start": 27.253,
      "duration": 0.0269,
      "velocity": 107,
      "chip": "ym2612"
    },
    {
      "channel": 4,
      "note": 85,
      "start": 27.2548,
      "duration": 0.0254,
      "velocity": 107,
      "chip": "ym2612"
    },
    {
      "channel": 5,
      "note": 97,
      "start": 27.2565,
      "duration": 0.0705,
      "velocity": 110,
      "chip": "ym2612"
    },
    {
      "channel": 0,
      "note": 42,
      "start": 27.3433,
      "duration": 0.061,
      "velocity": 108,
      "chip": "ym2612"
    },
    {
      "channel": 2,
      "note": 90,
      "start": 27.3455,
      "duration": 0.0596,
      "velocity": 107,
      "chip": "ym2612"
    },
    {
      "channel": 3,
      "note": 90,
      "start": 27.3476,
      "duration": 0.0577,
      "velocity": 107,
      "chip": "ym2612"
    },
    {
      "channel": 4,
      "note": 85,
      "start": 27.3492,
      "duration": 0.0562,
      "velocity": 107,
      "chip": "ym2612"
    },
    {
      "channel": 5,
      "note": 98,
      "start": 27.3509,
      "duration": 0.0701,
      "velocity": 110,
      "chip": "ym2612"
    },
    {
      "channel": 0,
      "note": 42,
      "start": 27.437,
      "duration": 0.0299,
      "velocity": 108,
      "chip": "ym2612"
    },
    {
      "channel": 1,
      "note": 61,
      "start": 27.4392,
      "duration": 0.0127,
      "velocity": 127,
      "chip": "ym2612"
    },
    {
      "channel": 2,
      "note": 90,
      "start": 27.4409,
      "duration": 0.0268,
      "velocity": 107,
      "chip": "ym2612"
    },
    {
      "channel": 3,
      "note": 90,
      "start": 27.4425,
      "duration": 0.0253,
      "velocity": 107,
      "chip": "ym2612"
    },
    {
      "channel": 4,
      "note": 85,
      "start": 27.4442,
      "duration": 0.0239,
      "velocity": 107,
      "chip": "ym2612"
    },
    {
      "channel": 5,
      "note": 97,
      "start": 27.4459,
      "duration": 0.069,
      "velocity": 110,
      "chip": "ym2612"
    },
    {
      "channel": 0,
      "note": 42,
      "start": 27.5309,
      "duration": 0.0612,
      "velocity": 108,
      "chip": "ym2612"
    },
    {
      "channel": 1,
      "note": 61,
      "start": 27.5331,
      "duration": 0.0127,
      "velocity": 127,
      "chip": "ym2612"
    },
    {
      "channel": 2,
      "note": 90,
      "start": 27.5346,
      "duration": 0.0582,
      "velocity": 107,
      "chip": "ym2612"
    },
    {
      "channel": 3,
      "note": 90,
      "start": 27.5363,
      "duration": 0.0567,
      "velocity": 107,
      "chip": "ym2612"
    },
    {
      "channel": 4,
      "note": 85,
      "start": 27.538,
      "duration": 0.0553,
      "velocity": 107,
      "chip": "ym2612"
    },
    {
      "channel": 5,
      "note": 96,
      "start": 27.5399,
      "duration": 0.0688,
      "velocity": 110,
      "chip": "ym2612"
    },
    {
      "channel": 3,
      "note": 90,
      "start": 27.6256,
      "duration": 0.0298,
      "velocity": 107,
      "chip": "ym2612"
    },
    {
      "channel": 5,
      "note": 85,
      "start": 27.6274,
      "duration": 0.0752,
      "velocity": 110,
      "chip": "ym2612"
    },
    {
      "channel": 0,
      "note": 42,
      "start": 27.7189,
      "duration": 0.061,
      "velocity": 108,
      "chip": "ym2612"
    },
    {
      "channel": 1,
      "note": 61,
      "start": 27.721,
      "duration": 0.0126,
      "velocity": 127,
      "chip": "ym2612"
    },
    {
      "channel": 2,
      "note": 90,
      "start": 27.7228,
      "duration": 0.0578,
      "velocity": 107,
      "chip": "ym2612"
    },
    {
      "channel": 3,
      "note": 90,
      "start": 27.7245,
      "duration": 0.0564,
      "velocity": 107,
      "chip": "ym2612"
    },
    {
      "channel": 4,
      "note": 85,
      "start": 27.7263,
      "duration": 0.0548,
      "velocity": 107,
      "chip": "ym2612"
    },
    {
      "channel": 5,
      "note": 86,
      "start": 27.728,
      "duration": 0.0686,
      "velocity": 110,
      "chip": "ym2612"
    },
    {
      "channel": 0,
      "note": 42,
      "start": 27.8126,
      "duration": 0.0299,
      "velocity": 108,
      "chip": "ym2612"
    },
    {
      "channel": 1,
      "note": 61,
      "start": 27.8147,
      "duration": 0.0128,
      "velocity": 127,
      "chip": "ym2612"
    },
    {
      "channel": 2,
      "note": 90,
      "start": 27.8163,
      "duration": 0.0269,
      "velocity": 107,
      "chip": "ym2612"
    },
    {
      "channel": 4,
      "note": 85,
      "start": 27.8181,
      "duration": 0.0254,
      "velocity": 107,
      "chip": "ym2612"
    },
    {
      "channel": 5,
      "note": 85,
      "start": 27.8198,
      "duration": 0.0706,
      "velocity": 110,
      "chip": "ym2612"
    },
    {
      "channel": 0,
      "note": 42,
      "start": 27.9065,
      "duration": 0.0612,
      "velocity": 108,
      "chip": "ym2612"
    },
    {
      "channel": 2,
      "note": 90,
      "start": 27.9087,
      "duration": 0.0598,
      "velocity": 107,
      "chip": "ym2612"
    },
    {
      "channel": 3,
      "note": 90,
      "start": 27.9105,
      "duration": 0.0581,
      "velocity": 107,
      "chip": "ym2612"
    },
    {
      "channel": 4,
      "note": 85,
      "start": 27.9121,
      "duration": 0.0567,
      "velocity": 107,
      "chip": "ym2612"
    },
    {
      "channel": 5,
      "note": 84,
      "start": 27.9141,
      "duration": 0.0702,
      "velocity": 110,
      "chip": "ym2612"
    },
    {
      "channel": 0,
      "note": 42,
      "start": 28.0004,
      "duration": 0.0298,
      "velocity": 108,
      "chip": "ym2612"
    },
    {
      "channel": 1,
      "note": 61,
      "start": 28.0027,
      "duration": 0.0126,
      "velocity": 127,
      "chip": "ym2612"
    },
    {
      "channel": 2,
      "note": 90,
      "start": 28.0043,
      "duration": 0.0267,
      "velocity": 107,
      "chip": "ym2612"
    },
    {
      "channel": 3,
      "note": 90,
      "start": 28.006,
      "duration": 0.0253,
      "velocity": 107,
      "chip": "ym2612"
    },
    {
      "channel": 4,
      "note": 85,
      "start": 28.0076,
      "duration": 0.0239,
      "velocity": 107,
      "chip": "ym2612"
    },
    {
      "channel": 5,
      "note": 73,
      "start": 28.0093,
      "duration": 0.0689,
      "velocity": 110,
      "chip": "ym2612"
    },
    {
      "channel": 0,
      "note": 42,
      "start": 28.0943,
      "duration": 0.0612,
      "velocity": 108,
      "chip": "ym2612"
    },
    {
      "channel": 1,
      "note": 61,
      "start": 28.0963,
      "duration": 0.0129,
      "velocity": 127,
      "chip": "ym2612"
    },
    {
      "channel": 2,
      "note": 90,
      "start": 28.098,
      "duration": 0.0582,
      "velocity": 107,
      "chip": "ym2612"
    },
    {
      "channel": 3,
      "note": 90,
      "start": 28.0997,
      "duration": 0.0567,
      "velocity": 107,
      "chip": "ym2612"
    },
    {
      "channel": 4,
      "note": 85,
      "start": 28.1014,
      "duration": 0.0553,
      "velocity": 107,
      "chip": "ym2612"
    },
    {
      "channel": 5,
      "note": 74,
      "start": 28.103,
      "duration": 0.0691,
      "velocity": 110,
      "chip": "ym2612"
    },
    {
      "channel": 3,
      "note": 90,
      "start": 28.189,
      "duration": 0.0298,
      "velocity": 107,
      "chip": "ym2612"
    },
    {
      "channel": 5,
      "note": 73,
      "start": 28.1907,
      "duration": 0.0753,
      "velocity": 110,
      "chip": "ym2612"
    },
    {
      "channel": 0,
      "note": 42,
      "start": 28.2822,
      "duration": 0.0611,
      "velocity": 108,
      "chip": "ym2612"
    },
    {
      "channel": 1,
      "note": 61,
      "start": 28.2845,
      "duration": 0.0125,
      "velocity": 127,
      "chip": "ym2612"
    },
    {
      "channel": 2,
      "note": 90,
      "start": 28.2862,
      "duration": 0.0578,
      "velocity": 107,
      "chip": "ym2612"
    },
    {
      "channel": 3,
      "note": 90,
      "start": 28.2878,
      "duration": 0.0564,
      "velocity": 107,
      "chip": "ym2612"
    },
    {
      "channel": 4,
      "note": 85,
      "start": 28.2896,
      "duration": 0.0548,
      "velocity": 107,
      "chip": "ym2612"
    },
    {
      "channel": 5,
      "note": 72,
      "start": 28.2916,
      "duration": 0.0683,
      "velocity": 110,
      "chip": "ym2612"
    },
    {
      "channel": 0,
      "note": 42,
      "start": 28.376,
      "duration": 0.0299,
      "velocity": 108,
      "chip": "ym2612"
    },
    {
      "channel": 1,
      "note": 61,
      "start": 28.3781,
      "duration": 0.0128,
      "velocity": 127,
      "chip": "ym2612"
    },
    {
      "channel": 2,
      "note": 90,
      "start": 28.3798,
      "duration": 0.0269,
      "velocity": 107,
      "chip": "ym2612"
    },
    {
      "channel": 4,
      "note": 85,
      "start": 28.3815,
      "duration": 0.0254,
      "velocity": 107,
      "chip": "ym2612"
    },
    {
      "channel": 5,
      "note": 61,
      "start": 28.3832,
      "duration": 0.0706,
      "velocity": 110,
      "chip": "ym2612"
    },
    {
      "channel": 0,
      "note": 42,
      "start": 28.4699,
      "duration": 0.0612,
      "velocity": 108,
      "chip": "ym2612"
    },
    {
      "channel": 1,
      "note": 61,
      "start": 28.4719,
      "duration": 0.0129,
      "velocity": 127,
      "chip": "ym2612"
    },
    {
      "channel": 2,
      "note": 90,
      "start": 28.4736,
      "duration": 0.0582,
      "velocity": 107,
      "chip": "ym2612"
    },
    {
      "channel": 3,
      "note": 90,
      "start": 28.4753,
      "duration": 0.0567,
      "velocity": 107,
      "chip": "ym2612"
    },
    {
      "channel": 4,
      "note": 85,
      "start": 28.477,
      "duration": 0.0553,
      "velocity": 107,
      "chip": "ym2612"
    },
    {
      "channel": 5,
      "note": 62,
      "start": 28.4787,
      "duration": 0.069,
      "velocity": 110,
      "chip": "ym2612"
    },
    {
      "channel": 0,
      "note": 42,
      "start": 28.5638,
      "duration": 0.0299,
      "velocity": 108,
      "chip": "ym2612"
    },
    {
      "channel": 1,
      "note": 61,
      "start": 28.5658,
      "duration": 0.0128,
      "velocity": 127,
      "chip": "ym2612"
    },
    {
      "channel": 2,
      "note": 90,
      "start": 28.5675,
      "duration": 0.0269,
      "velocity": 107,
      "chip": "ym2612"
    },
    {
      "channel": 3,
      "note": 90,
      "start": 28.5692,
      "duration": 0.0255,
      "velocity": 107,
      "chip": "ym2612"
    },
    {
      "channel": 4,
      "note": 85,
      "start": 28.5708,
      "duration": 0.024,
      "velocity": 107,
      "chip": "ym2612"
    },
    {
      "channel": 5,
      "note": 61,
      "start": 28.5725,
      "duration": 0.0691,
      "velocity": 110,
      "chip": "ym2612"
    },
    {
      "channel": 0,
      "note": 42,
      "start": 28.6577,
      "duration": 3.0204,
      "velocity": 108,
      "chip": "ym2612"
    },
    {
      "channel": 1,
      "note": 61,
      "start": 28.6598,
      "duration": 0.0284,
      "velocity": 127,
      "chip": "ym2612"
    },
    {
      "channel": 2,
      "note": 54,
      "start": 28.6648,
      "duration": 3.0149,
      "velocity": 108,
      "chip": "ym2612"
    },
    {
      "channel": 3,
      "note": 90,
      "start": 28.6665,
      "duration": 0.0688,
      "velocity": 107,
      "chip": "ym2612"
    },
    {
      "channel": 4,
      "note": 49,
      "start": 28.6715,
      "duration": 3.0115,
      "velocity": 108,
      "chip": "ym2612"
    },
    {
      "channel": 5,
      "note": 60,
      "start": 28.6737,
      "duration": 0.1088,
      "velocity": 110,
      "chip": "ym2612"
    },
    {
      "channel": 3,
      "note": 90,
      "start": 28.768,
      "duration": 0.0299,
      "velocity": 107,
      "chip": "ym2612"
    },
    {
      "channel": 5,
      "note": 54,
      "start": 28.8,
      "duration": 0.1076,
      "velocity": 110,
      "chip": "ym2612"
    },
    {
      "channel": 3,
      "note": 42,
      "start": 28.8653,
      "duration": 2.816,
      "velocity": 108,
      "chip": "ym2612"
    },
    {
      "channel": 5,
      "note": 54,
      "start": 28.925,
      "duration": 0.1079,
      "velocity": 110,
      "chip": "ym2612"
    },
    {
      "channel": 5,
      "note": 54,
      "start": 29.0515,
      "duration": 0.106,
      "velocity": 110,
      "chip": "ym2612"
    },
    {
      "channel": 5,
      "note": 54,
      "start": 29.1749,
      "duration": 0.1079,
      "velocity": 110,
      "chip": "ym2612"
    },
    {
      "channel": 5,
      "note": 54,
      "start": 29.3001,
      "duration": 0.1078,
      "velocity": 110,
      "chip": "ym2612"
    },
    {
      "channel": 5,
      "note": 54,
      "start": 29.4255,
      "duration": 0.1076,
      "velocity": 110,
      "chip": "ym2612"
    },
    {
      "channel": 5,
      "note": 54,
      "start": 29.5505,
      "duration": 0.1078,
      "velocity": 110,
      "chip": "ym2612"
    },
    {
      "channel": 5,
      "note": 54,
      "start": 29.6757,
      "duration": 0.1078,
      "velocity": 110,
      "chip": "ym2612"
    },
    {
      "channel": 5,
      "note": 54,
      "start": 29.8011,
      "duration": 0.1076,
      "velocity": 110,
      "chip": "ym2612"
    },
    {
      "channel": 5,
      "note": 54,
      "start": 29.9261,
      "duration": 0.1078,
      "velocity": 110,
      "chip": "ym2612"
    },
    {
      "channel": 5,
      "note": 54,
      "start": 30.0512,
      "duration": 0.1078,
      "velocity": 110,
      "chip": "ym2612"
    },
    {
      "channel": 5,
      "note": 54,
      "start": 30.1809,
      "duration": 0.1034,
      "velocity": 110,
      "chip": "ym2612"
    },
    {
      "channel": 5,
      "note": 54,
      "start": 30.3017,
      "duration": 0.1078,
      "velocity": 110,
      "chip": "ym2612"
    },
    {
      "channel": 5,
      "note": 54,
      "start": 30.4268,
      "duration": 0.1079,
      "velocity": 110,
      "chip": "ym2612"
    },
    {
      "channel": 5,
      "note": 54,
      "start": 30.5523,
      "duration": 0.1076,
      "velocity": 110,
      "chip": "ym2612"
    },
    {
      "channel": 5,
      "note": 54,
      "start": 30.6773,
      "duration": 0.1078,
      "velocity": 110,
      "chip": "ym2612"
    },
    {
      "channel": 5,
      "note": 54,
      "start": 30.8025,
      "duration": 0.1078,
      "velocity": 110,
      "chip": "ym2612"
    },
    {
      "channel": 5,
      "note": 54,
      "start": 30.9278,
      "duration": 0.1076,
      "velocity": 110,
      "chip": "ym2612"
    },
    {
      "channel": 5,
      "note": 54,
      "start": 31.0528,
      "duration": 0.1078,
      "velocity": 110,
      "chip": "ym2612"
    },
    {
      "channel": 5,
      "note": 54,
      "start": 31.178,
      "duration": 0.1078,
      "velocity": 110,
      "chip": "ym2612"
    },
    {
      "channel": 5,
      "note": 54,
      "start": 31.3034,
      "duration": 0.1076,
      "velocity": 110,
      "chip": "ym2612"
    },
    {
      "channel": 5,
      "note": 54,
      "start": 31.4284,
      "duration": 0.1078,
      "velocity": 110,
      "chip": "ym2612"
    },
    {
      "channel": 5,
      "note": 54,
      "start": 31.5544,
      "duration": 0.1071,
      "velocity": 110,
      "chip": "ym2612"
    },
    {
      "channel": 5,
      "note": 54,
      "start": 31.6852,
      "duration": 0.102,
      "velocity": 110,
      "chip": "ym2612"
    },
    {
      "channel": 5,
      "note": 54,
      "start": 31.804,
      "duration": 0.1078,
      "velocity": 110,
      "chip": "ym2612"
    },
    {
      "channel": 5,
      "note": 54,
      "start": 31.9293,
      "duration": 0.1078,
      "velocity": 110,
      "chip": "ym2612"
    },
    {
      "channel": 5,
      "note": 54,
      "start": 32.0546,
      "duration": 0.1076,
      "velocity": 110,
      "chip": "ym2612"
    },
    {
      "channel": 5,
      "note": 54,
      "start": 32.1801,
      "duration": 0.1074,
      "velocity": 110,
      "chip": "ym2612"
    },
    {
      "channel": 5,
      "note": 54,
      "start": 32.3048,
      "duration": 0.1081,
      "velocity": 110,
      "chip": "ym2612"
    }
  ]
}