{
  "track_name": "01 - Start Game",
  "duration_sec": 15.67,
  "sample_rate": 44100,
  "note_count": 253,
  "unique_pitches": 13,
  "pitch_range": 49,
  "avg_note_duration": 0.3065,
  "reconstruction_stats": {
    "notes_reconstructed": 253,
    "keyon_events": 253,
    "keyoff_events": 248,
    "orphan_keyons": 5,
    "unique_pitches": 13,
    "pitch_range": 49,
    "avg_duration_sec": 0.3065
  },
  "metadata": {
    "source": "J\\Joe & Mac (MD)\\01 - Start Game.vgz"
  },
  "notes": [
    {
      "channel": 0,
      "note": 49,
      "start": 0.1224,
      "duration": 0.1226,
      "velocity": 108,
      "chip": "ym2612"
    },
    {
      "channel": 1,
      "note": 88,
      "start": 0.1255,
      "duration": 0.398,
      "velocity": 87,
      "chip": "ym2612"
    },
    {
      "channel": 2,
      "note": 85,
      "start": 0.1285,
      "duration": 0.3981,
      "velocity": 87,
      "chip": "ym2612"
    },
    {
      "channel": 4,
      "note": 74,
      "start": 0.1316,
      "duration": 0.0067,
      "velocity": 118,
      "chip": "ym2612"
    },
    {
      "channel": 4,
      "note": 74,
      "start": 0.1386,
      "duration": 0.1127,
      "velocity": 118,
      "chip": "ym2612"
    },
    {
      "channel": 0,
      "note": 44,
      "start": 0.2453,
      "duration": 0.125,
      "velocity": 108,
      "chip": "ym2612"
    },
    {
      "channel": 3,
      "note": 88,
      "start": 0.2485,
      "duration": 0.399,
      "velocity": 87,
      "chip": "ym2612"
    },
    {
      "channel": 4,
      "note": 74,
      "start": 0.2515,
      "duration": 0.0067,
      "velocity": 118,
      "chip": "ym2612"
    },
    {
      "channel": 4,
      "note": 74,
      "start": 0.2585,
      "duration": 0.1197,
      "velocity": 118,
      "chip": "ym2612"
    },
    {
      "channel": 0,
      "note": 47,
      "start": 0.3706,
      "duration": 0.1316,
      "velocity": 108,
      "chip": "ym2612"
    },
    {
      "channel": 4,
      "note": 74,
      "start": 0.3785,
      "duration": 0.0066,
      "velocity": 118,
      "chip": "ym2612"
    },
    {
      "channel": 4,
      "note": 74,
      "start": 0.3853,
      "duration": 0.1178,
      "velocity": 118,
      "chip": "ym2612"
    },
    {
      "channel": 0,
      "note": 44,
      "start": 0.5024,
      "duration": 0.0121,
      "velocity": 108,
      "chip": "ym2612"
    },
    {
      "channel": 4,
      "note": 74,
      "start": 0.5033,
      "duration": 0.0121,
      "velocity": 118,
      "chip": "ym2612"
    },
    {
      "channel": 0,
      "note": 49,
      "start": 0.5147,
      "duration": 0.126,
      "velocity": 108,
      "chip": "ym2612"
    },
    {
      "channel": 4,
      "note": 74,
      "start": 0.5156,
      "duration": 0.0141,
      "velocity": 118,
      "chip": "ym2612"
    },
    {
      "channel": 1,
      "note": 85,
      "start": 0.5237,
      "duration": 0.5146,
      "velocity": 87,
      "chip": "ym2612"
    },
    {
      "channel": 2,
      "note": 80,
      "start": 0.5268,
      "duration": 0.5145,
      "velocity": 87,
      "chip": "ym2612"
    },
    {
      "channel": 4,
      "note": 74,
      "start": 0.5299,
      "duration": 0.114,
      "velocity": 118,
      "chip": "ym2612"
    },
    {
      "channel": 0,
      "note": 49,
      "start": 0.641,
      "duration": 0.126,
      "velocity": 108,
      "chip": "ym2612"
    },
    {
      "channel": 4,
      "note": 74,
      "start": 0.6442,
      "duration": 0.0063,
      "velocity": 118,
      "chip": "ym2612"
    },
    {
      "channel": 3,
      "note": 85,
      "start": 0.6477,
      "duration": 0.5164,
      "velocity": 87,
      "chip": "ym2612"
    },
    {
      "channel": 4,
      "note": 74,
      "start": 0.6508,
      "duration": 0.1194,
      "velocity": 118,
      "chip": "ym2612"
    },
    {
      "channel": 0,
      "note": 44,
      "start": 0.7672,
      "duration": 0.0064,
      "velocity": 108,
      "chip": "ym2612"
    },
    {
      "channel": 4,
      "note": 74,
      "start": 0.7704,
      "duration": 0.0111,
      "velocity": 118,
      "chip": "ym2612"
    },
    {
      "channel": 0,
      "note": 47,
      "start": 0.7739,
      "duration": 0.1317,
      "velocity": 108,
      "chip": "ym2612"
    },
    {
      "channel": 4,
      "note": 74,
      "start": 0.7818,
      "duration": 0.0067,
      "velocity": 118,
      "chip": "ym2612"
    },
    {
      "channel": 4,
      "note": 74,
      "start": 0.7887,
      "duration": 0.1177,
      "velocity": 118,
      "chip": "ym2612"
    },
    {
      "channel": 0,
      "note": 44,
      "start": 0.9058,
      "duration": 0.1318,
      "velocity": 108,
      "chip": "ym2612"
    },
    {
      "channel": 4,
      "note": 74,
      "start": 0.9067,
      "duration": 0.0138,
      "velocity": 118,
      "chip": "ym2612"
    },
    {
      "channel": 4,
      "note": 74,
      "start": 0.9208,
      "duration": 0.1237,
      "velocity": 118,
      "chip": "ym2612"
    },
    {
      "channel": 0,
      "note": 49,
      "start": 1.0378,
      "duration": 0.1255,
      "velocity": 108,
      "chip": "ym2612"
    },
    {
      "channel": 1,
      "note": 83,
      "start": 1.0385,
      "duration": 0.4041,
      "velocity": 87,
      "chip": "ym2612"
    },
    {
      "channel": 2,
      "note": 78,
      "start": 1.0416,
      "duration": 0.4041,
      "velocity": 87,
      "chip": "ym2612"
    },
    {
      "channel": 4,
      "note": 74,
      "start": 1.0447,
      "duration": 0.0041,
      "velocity": 118,
      "chip": "ym2612"
    },
    {
      "channel": 4,
      "note": 74,
      "start": 1.0491,
      "duration": 0.1181,
      "velocity": 118,
      "chip": "ym2612"
    },
    {
      "channel": 0,
      "note": 44,
      "start": 1.1636,
      "duration": 0.1258,
      "velocity": 108,
      "chip": "ym2612"
    },
    {
      "channel": 3,
      "note": 83,
      "start": 1.1644,
      "duration": 0.4023,
      "velocity": 87,
      "chip": "ym2612"
    },
    {
      "channel": 4,
      "note": 74,
      "start": 1.1674,
      "duration": 0.0048,
      "velocity": 118,
      "chip": "ym2612"
    },
    {
      "channel": 4,
      "note": 74,
      "start": 1.1724,
      "duration": 0.1248,
      "velocity": 118,
      "chip": "ym2612"
    },
    {
      "channel": 0,
      "note": 47,
      "start": 1.2896,
      "duration": 0.1317,
      "velocity": 108,
      "chip": "ym2612"
    },
    {
      "channel": 4,
      "note": 74,
      "start": 1.2975,
      "duration": 0.0067,
      "velocity": 118,
      "chip": "ym2612"
    },
    {
      "channel": 4,
      "note": 74,
      "start": 1.3044,
      "duration": 0.1177,
      "velocity": 118,
      "chip": "ym2612"
    },
    {
      "channel": 0,
      "note": 44,
      "start": 1.4215,
      "duration": 0.0121,
      "velocity": 108,
      "chip": "ym2612"
    },
    {
      "channel": 4,
      "note": 74,
      "start": 1.4224,
      "duration": 0.0121,
      "velocity": 118,
      "chip": "ym2612"
    },
    {
      "channel": 0,
      "note": 49,
      "start": 1.4339,
      "duration": 0.126,
      "velocity": 108,
      "chip": "ym2612"
    },
    {
      "channel": 4,
      "note": 74,
      "start": 1.4348,
      "duration": 0.0141,
      "velocity": 118,
      "chip": "ym2612"
    },
    {
      "channel": 1,
      "note": 85,
      "start": 1.4429,
      "duration": 0.516,
      "velocity": 87,
      "chip": "ym2612"
    },
    {
      "channel": 2,
      "note": 80,
      "start": 1.446,
      "duration": 0.516,
      "velocity": 87,
      "chip": "ym2612"
    },
    {
      "channel": 4,
      "note": 74,
      "start": 1.4491,
      "duration": 0.114,
      "velocity": 118,
      "chip": "ym2612"
    },
    {
      "channel": 0,
      "note": 49,
      "start": 1.5601,
      "duration": 0.1261,
      "velocity": 108,
      "chip": "ym2612"
    },
    {
      "channel": 4,
      "note": 74,
      "start": 1.5633,
      "duration": 0.0064,
      "velocity": 118,
      "chip": "ym2612"
    },
    {
      "channel": 3,
      "note": 85,
      "start": 1.567,
      "duration": 0.5172,
      "velocity": 87,
      "chip": "ym2612"
    },
    {
      "channel": 4,
      "note": 74,
      "start": 1.57,
      "duration": 0.1194,
      "velocity": 118,
      "chip": "ym2612"
    },
    {
      "channel": 0,
      "note": 44,
      "start": 1.6864,
      "duration": 0.0054,
      "velocity": 108,
      "chip": "ym2612"
    },
    {
      "channel": 4,
      "note": 74,
      "start": 1.6897,
      "duration": 0.01,
      "velocity": 118,
      "chip": "ym2612"
    },
    {
      "channel": 0,
      "note": 47,
      "start": 1.6921,
      "duration": 0.1317,
      "velocity": 108,
      "chip": "ym2612"
    },
    {
      "channel": 4,
      "note": 74,
      "start": 1.7,
      "duration": 0.0067,
      "velocity": 118,
      "chip": "ym2612"
    },
    {
      "channel": 4,
      "note": 74,
      "start": 1.7069,
      "duration": 0.1178,
      "velocity": 118,
      "chip": "ym2612"
    },
    {
      "channel": 0,
      "note": 44,
      "start": 1.824,
      "duration": 0.1319,
      "velocity": 108,
      "chip": "ym2612"
    },
    {
      "channel": 4,
      "note": 74,
      "start": 1.8249,
      "duration": 0.0113,
      "velocity": 118,
      "chip": "ym2612"
    },
    {
      "channel": 4,
      "note": 74,
      "start": 1.8365,
      "duration": 0.1286,
      "velocity": 118,
      "chip": "ym2612"
    },
    {
      "channel": 0,
      "note": 49,
      "start": 1.9561,
      "duration": 0.1249,
      "velocity": 108,
      "chip": "ym2612"
    },
    {
      "channel": 1,
      "note": 88,
      "start": 1.9592,
      "duration": 0.4005,
      "velocity": 87,
      "chip": "ym2612"
    },
    {
      "channel": 2,
      "note": 85,
      "start": 1.9623,
      "duration": 0.4005,
      "velocity": 87,
      "chip": "ym2612"
    },
    {
      "channel": 4,
      "note": 74,
      "start": 1.9654,
      "duration": 0.0068,
      "velocity": 118,
      "chip": "ym2612"
    },
    {
      "channel": 4,
      "note": 74,
      "start": 1.9724,
      "duration": 0.1149,
      "velocity": 118,
      "chip": "ym2612"
    },
    {
      "channel": 0,
      "note": 44,
      "start": 2.0813,
      "duration": 0.1251,
      "velocity": 108,
      "chip": "ym2612"
    },
    {
      "channel": 3,
      "note": 88,
      "start": 2.0845,
      "duration": 0.3993,
      "velocity": 87,
      "chip": "ym2612"
    },
    {
      "channel": 4,
      "note": 74,
      "start": 2.0875,
      "duration": 0.0067,
      "velocity": 118,
      "chip": "ym2612"
    },
    {
      "channel": 4,
      "note": 74,
      "start": 2.0945,
      "duration": 0.1197,
      "velocity": 118,
      "chip": "ym2612"
    },
    {
      "channel": 0,
      "note": 47,
      "start": 2.2066,
      "duration": 0.1316,
      "velocity": 108,
      "chip": "ym2612"
    },
    {
      "channel": 4,
      "note": 74,
      "start": 2.2145,
      "duration": 0.0066,
      "velocity": 118,
      "chip": "ym2612"
    },
    {
      "channel": 4,
      "note": 74,
      "start": 2.2214,
      "duration": 0.1177,
      "velocity": 118,
      "chip": "ym2612"
    },
    {
      "channel": 0,
      "note": 44,
      "start": 2.3385,
      "duration": 0.0121,
      "velocity": 108,
      "chip": "ym2612"
    },
    {
      "channel": 4,
      "note": 74,
      "start": 2.3394,
      "duration": 0.0121,
      "velocity": 118,
      "chip": "ym2612"
    },
    {
      "channel": 0,
      "note": 49,
      "start": 2.3508,
      "duration": 0.1261,
      "velocity": 108,
      "chip": "ym2612"
    },
    {
      "channel": 4,
      "note": 74,
      "start": 2.3517,
      "duration": 0.0141,
      "velocity": 118,
      "chip": "ym2612"
    },
    {
      "channel": 1,
      "note": 85,
      "start": 2.3599,
      "duration": 0.5146,
      "velocity": 87,
      "chip": "ym2612"
    },
    {
      "channel": 2,
      "note": 80,
      "start": 2.363,
      "duration": 0.5146,
      "velocity": 87,
      "chip": "ym2612"
    },
    {
      "channel": 4,
      "note": 74,
      "start": 2.3661,
      "duration": 0.114,
      "velocity": 118,
      "chip": "ym2612"
    },
    {
      "channel": 0,
      "note": 49,
      "start": 2.4771,
      "duration": 0.1261,
      "velocity": 108,
      "chip": "ym2612"
    },
    {
      "channel": 4,
      "note": 74,
      "start": 2.4804,
      "duration": 0.0064,
      "velocity": 118,
      "chip": "ym2612"
    },
    {
      "channel": 3,
      "note": 85,
      "start": 2.484,
      "duration": 0.5162,
      "velocity": 87,
      "chip": "ym2612"
    },
    {
      "channel": 4,
      "note": 74,
      "start": 2.487,
      "duration": 0.1194,
      "velocity": 118,
      "chip": "ym2612"
    },
    {
      "channel": 0,
      "note": 44,
      "start": 2.6034,
      "duration": 0.0065,
      "velocity": 108,
      "chip": "ym2612"
    },
    {
      "channel": 4,
      "note": 74,
      "start": 2.6067,
      "duration": 0.0112,
      "velocity": 118,
      "chip": "ym2612"
    },
    {
      "channel": 0,
      "note": 47,
      "start": 2.6102,
      "duration": 0.1316,
      "velocity": 108,
      "chip": "ym2612"
    },
    {
      "channel": 4,
      "note": 74,
      "start": 2.6181,
      "duration": 0.0066,
      "velocity": 118,
      "chip": "ym2612"
    },
    {
      "channel": 4,
      "note": 74,
      "start": 2.6249,
      "duration": 0.1178,
      "velocity": 118,
      "chip": "ym2612"
    },
    {
      "channel": 0,
      "note": 44,
      "start": 2.742,
      "duration": 0.1317,
      "velocity": 108,
      "chip": "ym2612"
    },
    {
      "channel": 4,
      "note": 74,
      "start": 2.7429,
      "duration": 0.0139,
      "velocity": 118,
      "chip": "ym2612"
    },
    {
      "channel": 4,
      "note": 74,
      "start": 2.757,
      "duration": 0.1237,
      "velocity": 118,
      "chip": "ym2612"
    },
    {
      "channel": 0,
      "note": 49,
      "start": 2.874,
      "duration": 0.1254,
      "velocity": 108,
      "chip": "ym2612"
    },
    {
      "channel": 1,
      "note": 83,
      "start": 2.8747,
      "duration": 0.4098,
      "velocity": 87,
      "chip": "ym2612"
    },
    {
      "channel": 2,
      "note": 78,
      "start": 2.8778,
      "duration": 0.4098,
      "velocity": 87,
      "chip": "ym2612"
    },
    {
      "channel": 4,
      "note": 74,
      "start": 2.8809,
      "duration": 0.004,
      "velocity": 118,
      "chip": "ym2612"
    },
    {
      "channel": 4,
      "note": 74,
      "start": 2.8851,
      "duration": 0.1181,
      "velocity": 118,
      "chip": "ym2612"
    },
    {
      "channel": 0,
      "note": 44,
      "start": 2.9996,
      "duration": 0.1258,
      "velocity": 108,
      "chip": "ym2612"
    },
    {
      "channel": 3,
      "note": 83,
      "start": 3.0005,
      "duration": 0.3488,
      "velocity": 87,
      "chip": "ym2612"
    },
    {
      "channel": 4,
      "note": 74,
      "start": 3.0035,
      "duration": 0.0048,
      "velocity": 118,
      "chip": "ym2612"
    },
    {
      "channel": 4,
      "note": 74,
      "start": 3.0085,
      "duration": 0.1248,
      "velocity": 118,
      "chip": "ym2612"
    },
    {
      "channel": 0,
      "note": 47,
      "start": 3.1257,
      "duration": 0.1317,
      "velocity": 108,
      "chip": "ym2612"
    },
    {
      "channel": 4,
      "note": 74,
      "start": 3.1336,
      "duration": 0.0067,
      "velocity": 118,
      "chip": "ym2612"
    },
    {
      "channel": 4,
      "note": 74,
      "start": 3.1405,
      "duration": 0.1178,
      "velocity": 118,
      "chip": "ym2612"
    },
    {
      "channel": 0,
      "note": 44,
      "start": 3.2576,
      "duration": 0.0121,
      "velocity": 108,
      "chip": "ym2612"
    },
    {
      "channel": 4,
      "note": 74,
      "start": 3.2585,
      "duration": 0.0121,
      "velocity": 118,
      "chip": "ym2612"
    },
    {
      "channel": 0,
      "note": 49,
      "start": 3.27,
      "duration": 0.0224,
      "velocity": 108,
      "chip": "ym2612"
    },
    {
      "channel": 4,
      "note": 74,
      "start": 3.2709,
      "duration": 0.0198,
      "velocity": 118,
      "chip": "ym2612"
    },
    {
      "channel": 1,
      "note": 85,
      "start": 3.2848,
      "duration": 0.2953,
      "velocity": 87,
      "chip": "ym2612"
    },
    {
      "channel": 2,
      "note": 80,
      "start": 3.2879,
      "duration": 0.2953,
      "velocity": 87,
      "chip": "ym2612"
    },
    {
      "channel": 4,
      "note": 74,
      "start": 3.291,
      "duration": 0.0047,
      "velocity": 118,
      "chip": "ym2612"
    },
    {
      "channel": 0,
      "note": 49,
      "start": 3.2927,
      "duration": 0.1212,
      "velocity": 108,
      "chip": "ym2612"
    },
    {
      "channel": 4,
      "note": 74,
      "start": 3.2959,
      "duration": 0.0564,
      "velocity": 118,
      "chip": "ym2612"
    },
    {
      "channel": 3,
      "note": 85,
      "start": 3.3495,
      "duration": 0.3559,
      "velocity": 87,
      "chip": "ym2612"
    },
    {
      "channel": 4,
      "note": 74,
      "start": 3.3525,
      "duration": 0.0645,
      "velocity": 118,
      "chip": "ym2612"
    },
    {
      "channel": 0,
      "note": 44,
      "start": 3.4141,
      "duration": 0.0064,
      "velocity": 108,
      "chip": "ym2612"
    },
    {
      "channel": 4,
      "note": 74,
      "start": 3.4173,
      "duration": 0.011,
      "velocity": 118,
      "chip": "ym2612"
    },
    {
      "channel": 0,
      "note": 47,
      "start": 3.4207,
      "duration": 0.0729,
      "velocity": 108,
      "chip": "ym2612"
    },
    {
      "channel": 4,
      "note": 74,
      "start": 3.4286,
      "duration": 0.0067,
      "velocity": 118,
      "chip": "ym2612"
    },
    {
      "channel": 4,
      "note": 74,
      "start": 3.4356,
      "duration": 0.0589,
      "velocity": 118,
      "chip": "ym2612"
    },
    {
      "channel": 0,
      "note": 44,
      "start": 3.4939,
      "duration": 0.0831,
      "velocity": 108,
      "chip": "ym2612"
    },
    {
      "channel": 4,
      "note": 74,
      "start": 3.4948,
      "duration": 0.0699,
      "velocity": 118,
      "chip": "ym2612"
    },
    {
      "channel": 4,
      "note": 74,
      "start": 3.565,
      "duration": 0.0213,
      "velocity": 118,
      "chip": "ym2612"
    },
    {
      "channel": 0,
      "note": 54,
      "start": 3.5773,
      "duration": 0.1249,
      "velocity": 108,
      "chip": "ym2612"
    },
    {
      "channel": 1,
      "note": 93,
      "start": 3.5803,
      "duration": 0.4005,
      "velocity": 87,
      "chip": "ym2612"
    },
    {
      "channel": 2,
      "note": 90,
      "start": 3.5834,
      "duration": 0.4004,
      "velocity": 87,
      "chip": "ym2612"
    },
    {
      "channel": 4,
      "note": 74,
      "start": 3.5865,
      "duration": 0.0068,
      "velocity": 118,
      "chip": "ym2612"
    },
    {
      "channel": 4,
      "note": 74,
      "start": 3.5935,
      "duration": 0.1149,
      "velocity": 118,
      "chip": "ym2612"
    },
    {
      "channel": 0,
      "note": 49,
      "start": 3.7024,
      "duration": 0.1251,
      "velocity": 108,
      "chip": "ym2612"
    },
    {
      "channel": 3,
      "note": 93,
      "start": 3.7056,
      "duration": 0.3992,
      "velocity": 87,
      "chip": "ym2612"
    },
    {
      "channel": 4,
      "note": 74,
      "start": 3.7087,
      "duration": 0.0068,
      "velocity": 118,
      "chip": "ym2612"
    },
    {
      "channel": 4,
      "note": 74,
      "start": 3.7157,
      "duration": 0.1197,
      "velocity": 118,
      "chip": "ym2612"
    },
    {
      "channel": 0,
      "note": 52,
      "start": 3.8278,
      "duration": 0.1317,
      "velocity": 108,
      "chip": "ym2612"
    },
    {
      "channel": 4,
      "note": 74,
      "start": 3.8356,
      "duration": 0.0067,
      "velocity": 118,
      "chip": "ym2612"
    },
    {
      "channel": 4,
      "note": 74,
      "start": 3.8425,
      "duration": 0.1178,
      "velocity": 118,
      "chip": "ym2612"
    },
    {
      "channel": 0,
      "note": 49,
      "start": 3.9597,
      "duration": 0.0121,
      "velocity": 108,
      "chip": "ym2612"
    },
    {
      "channel": 4,
      "note": 74,
      "start": 3.9605,
      "duration": 0.0121,
      "velocity": 118,
      "chip": "ym2612"
    },
    {
      "channel": 0,
      "note": 54,
      "start": 3.972,
      "duration": 0.126,
      "velocity": 108,
      "chip": "ym2612"
    },
    {
      "channel": 4,
      "note": 74,
      "start": 3.9729,
      "duration": 0.0141,
      "velocity": 118,
      "chip": "ym2612"
    },
    {
      "channel": 1,
      "note": 90,
      "start": 3.981,
      "duration": 0.5145,
      "velocity": 87,
      "chip": "ym2612"
    },
    {
      "channel": 2,
      "note": 85,
      "start": 3.9841,
      "duration": 0.5146,
      "velocity": 87,
      "chip": "ym2612"
    },
    {
      "channel": 4,
      "note": 74,
      "start": 3.9872,
      "duration": 0.114,
      "velocity": 118,
      "chip": "ym2612"
    },
    {
      "channel": 0,
      "note": 54,
      "start": 4.0982,
      "duration": 0.126,
      "velocity": 108,
      "chip": "ym2612"
    },
    {
      "channel": 4,
      "note": 74,
      "start": 4.1015,
      "duration": 0.0064,
      "velocity": 118,
      "chip": "ym2612"
    },
    {
      "channel": 3,
      "note": 90,
      "start": 4.105,
      "duration": 0.5163,
      "velocity": 87,
      "chip": "ym2612"
    },
    {
      "channel": 4,
      "note": 74,
      "start": 4.1081,
      "duration": 0.1194,
      "velocity": 118,
      "chip": "ym2612"
    },
    {
      "channel": 0,
      "note": 49,
      "start": 4.2245,
      "duration": 0.0064,
      "velocity": 108,
      "chip": "ym2612"
    },
    {
      "channel": 4,
      "note": 74,
      "start": 4.2277,
      "duration": 0.0111,
      "velocity": 118,
      "chip": "ym2612"
    },
    {
      "channel": 0,
      "note": 52,
      "start": 4.2312,
      "duration": 0.1317,
      "velocity": 108,
      "chip": "ym2612"
    },
    {
      "channel": 4,
      "note": 74,
      "start": 4.2391,
      "duration": 0.0067,
      "velocity": 118,
      "chip": "ym2612"
    },
    {
      "channel": 4,
      "note": 74,
      "start": 4.246,
      "duration": 0.1178,
      "velocity": 118,
      "chip": "ym2612"
    },
    {
      "channel": 0,
      "note": 49,
      "start": 4.3631,
      "duration": 0.1317,
      "velocity": 108,
      "chip": "ym2612"
    },
    {
      "channel": 4,
      "note": 74,
      "start": 4.364,
      "duration": 0.0138,
      "velocity": 118,
      "chip": "ym2612"
    },
    {
      "channel": 4,
      "note": 74,
      "start": 4.3781,
      "duration": 0.1237,
      "velocity": 118,
      "chip": "ym2612"
    },
    {
      "channel": 0,
      "note": 54,
      "start": 4.4951,
      "duration": 0.1254,
      "velocity": 108,
      "chip": "ym2612"
    },
    {
      "channel": 1,
      "note": 88,
      "start": 4.4958,
      "duration": 0.4042,
      "velocity": 87,
      "chip": "ym2612"
    },
    {
      "channel": 2,
      "note": 83,
      "start": 4.4989,
      "duration": 0.4042,
      "velocity": 87,
      "chip": "ym2612"
    },
    {
      "channel": 4,
      "note": 74,
      "start": 4.502,
      "duration": 0.0041,
      "velocity": 118,
      "chip": "ym2612"
    },
    {
      "channel": 4,
      "note": 74,
      "start": 4.5063,
      "duration": 0.1181,
      "velocity": 118,
      "chip": "ym2612"
    },
    {
      "channel": 0,
      "note": 49,
      "start": 4.6208,
      "duration": 0.1259,
      "velocity": 108,
      "chip": "ym2612"
    },
    {
      "channel": 3,
      "note": 88,
      "start": 4.6216,
      "duration": 0.4024,
      "velocity": 87,
      "chip": "ym2612"
    },
    {
      "channel": 4,
      "note": 74,
      "start": 4.6247,
      "duration": 0.0049,
      "velocity": 118,
      "chip": "ym2612"
    },
    {
      "channel": 4,
      "note": 74,
      "start": 4.6298,
      "duration": 0.1248,
      "velocity": 118,
      "chip": "ym2612"
    },
    {
      "channel": 0,
      "note": 52,
      "start": 4.7469,
      "duration": 0.1317,
      "velocity": 108,
      "chip": "ym2612"
    },
    {
      "channel": 4,
      "note": 74,
      "start": 4.7548,
      "duration": 0.0067,
      "velocity": 118,
      "chip": "ym2612"
    },
    {
      "channel": 4,
      "note": 74,
      "start": 4.7618,
      "duration": 0.1177,
      "velocity": 118,
      "chip": "ym2612"
    },
    {
      "channel": 0,
      "note": 49,
      "start": 4.8789,
      "duration": 0.0121,
      "velocity": 108,
      "chip": "ym2612"
    },
    {
      "channel": 4,
      "note": 74,
      "start": 4.8798,
      "duration": 0.0121,
      "velocity": 118,
      "chip": "ym2612"
    },
    {
      "channel": 0,
      "note": 54,
      "start": 4.8912,
      "duration": 0.126,
      "velocity": 108,
      "chip": "ym2612"
    },
    {
      "channel": 4,
      "note": 74,
      "start": 4.8921,
      "duration": 0.0141,
      "velocity": 118,
      "chip": "ym2612"
    },
    {
      "channel": 1,
      "note": 90,
      "start": 4.9003,
      "duration": 0.5162,
      "velocity": 87,
      "chip": "ym2612"
    },
    {
      "channel": 2,
      "note": 85,
      "start": 4.9034,
      "duration": 0.5162,
      "velocity": 87,
      "chip": "ym2612"
    },
    {
      "channel": 4,
      "note": 74,
      "start": 4.9065,
      "duration": 0.114,
      "velocity": 118,
      "chip": "ym2612"
    },
    {
      "channel": 0,
      "note": 54,
      "start": 5.0175,
      "duration": 0.126,
      "velocity": 108,
      "chip": "ym2612"
    },
    {
      "channel": 4,
      "note": 74,
      "start": 5.0207,
      "duration": 0.0064,
      "velocity": 118,
      "chip": "ym2612"
    },
    {
      "channel": 3,
      "note": 90,
      "start": 5.0243,
      "duration": 0.5175,
      "velocity": 87,
      "chip": "ym2612"
    },
    {
      "channel": 4,
      "note": 74,
      "start": 5.0273,
      "duration": 0.1194,
      "velocity": 118,
      "chip": "ym2612"
    },
    {
      "channel": 0,
      "note": 49,
      "start": 5.1437,
      "duration": 0.0056,
      "velocity": 108,
      "chip": "ym2612"
    },
    {
      "channel": 4,
      "note": 74,
      "start": 5.147,
      "duration": 0.0102,
      "velocity": 118,
      "chip": "ym2612"
    },
    {
      "channel": 0,
      "note": 52,
      "start": 5.1495,
      "duration": 0.1317,
      "velocity": 108,
      "chip": "ym2612"
    },
    {
      "channel": 4,
      "note": 74,
      "start": 5.1574,
      "duration": 0.0067,
      "velocity": 118,
      "chip": "ym2612"
    },
    {
      "channel": 4,
      "note": 74,
      "start": 5.1644,
      "duration": 0.1178,
      "velocity": 118,
      "chip": "ym2612"
    },
    {
      "channel": 0,
      "note": 49,
      "start": 5.2815,
      "duration": 0.1319,
      "velocity": 108,
      "chip": "ym2612"
    },
    {
      "channel": 4,
      "note": 74,
      "start": 5.2824,
      "duration": 0.0114,
      "velocity": 118,
      "chip": "ym2612"
    },
    {
      "channel": 4,
      "note": 74,
      "start": 5.294,
      "duration": 0.1286,
      "velocity": 118,
      "chip": "ym2612"
    },
    {
      "channel": 0,
      "note": 54,
      "start": 5.4137,
      "duration": 0.125,
      "velocity": 108,
      "chip": "ym2612"
    },
    {
      "channel": 1,
      "note": 93,
      "start": 5.4167,
      "duration": 0.4006,
      "velocity": 87,
      "chip": "ym2612"
    },
    {
      "channel": 2,
      "note": 90,
      "start": 5.4198,
      "duration": 0.4006,
      "velocity": 87,
      "chip": "ym2612"
    },
    {
      "channel": 4,
      "note": 74,
      "start": 5.4229,
      "duration": 0.0068,
      "velocity": 118,
      "chip": "ym2612"
    },
    {
      "channel": 4,
      "note": 74,
      "start": 5.43,
      "duration": 0.1149,
      "velocity": 118,
      "chip": "ym2612"
    },
    {
      "channel": 0,
      "note": 49,
      "start": 5.5389,
      "duration": 0.1252,
      "velocity": 108,
      "chip": "ym2612"
    },
    {
      "channel": 3,
      "note": 93,
      "start": 5.5421,
      "duration": 0.3992,
      "velocity": 87,
      "chip": "ym2612"
    },
    {
      "channel": 4,
      "note": 74,
      "start": 5.5451,
      "duration": 0.0069,
      "velocity": 118,
      "chip": "ym2612"
    },
    {
      "channel": 4,
      "note": 74,
      "start": 5.5522,
      "duration": 0.1197,
      "velocity": 118,
      "chip": "ym2612"
    },
    {
      "channel": 0,
      "note": 52,
      "start": 5.6643,
      "duration": 0.1317,
      "velocity": 108,
      "chip": "ym2612"
    },
    {
      "channel": 4,
      "note": 74,
      "start": 5.6722,
      "duration": 0.0067,
      "velocity": 118,
      "chip": "ym2612"
    },
    {
      "channel": 4,
      "note": 74,
      "start": 5.6791,
      "duration": 0.1177,
      "velocity": 118,
      "chip": "ym2612"
    },
    {
      "channel": 0,
      "note": 49,
      "start": 5.7962,
      "duration": 0.012,
      "velocity": 108,
      "chip": "ym2612"
    },
    {
      "channel": 4,
      "note": 74,
      "start": 5.7971,
      "duration": 0.012,
      "velocity": 118,
      "chip": "ym2612"
    },
    {
      "channel": 0,
      "note": 54,
      "start": 5.8085,
      "duration": 0.126,
      "velocity": 108,
      "chip": "ym2612"
    },
    {
      "channel": 4,
      "note": 74,
      "start": 5.8094,
      "duration": 0.0141,
      "velocity": 118,
      "chip": "ym2612"
    },
    {
      "channel": 1,
      "note": 90,
      "start": 5.8175,
      "duration": 0.5145,
      "velocity": 87,
      "chip": "ym2612"
    },
    {
      "channel": 2,
      "note": 85,
      "start": 5.8206,
      "duration": 0.5144,
      "velocity": 87,
      "chip": "ym2612"
    },
    {
      "channel": 4,
      "note": 74,
      "start": 5.8237,
      "duration": 0.114,
      "velocity": 118,
      "chip": "ym2612"
    },
    {
      "channel": 0,
      "note": 54,
      "start": 5.9347,
      "duration": 0.126,
      "velocity": 108,
      "chip": "ym2612"
    },
    {
      "channel": 4,
      "note": 74,
      "start": 5.9379,
      "duration": 0.0063,
      "velocity": 118,
      "chip": "ym2612"
    },
    {
      "channel": 3,
      "note": 90,
      "start": 5.9415,
      "duration": 0.5161,
      "velocity": 87,
      "chip": "ym2612"
    },
    {
      "channel": 4,
      "note": 74,
      "start": 5.9445,
      "duration": 0.1194,
      "velocity": 118,
      "chip": "ym2612"
    },
    {
      "channel": 0,
      "note": 49,
      "start": 6.061,
      "duration": 0.0064,
      "velocity": 108,
      "chip": "ym2612"
    },
    {
      "channel": 4,
      "note": 74,
      "start": 6.0642,
      "duration": 0.011,
      "velocity": 118,
      "chip": "ym2612"
    },
    {
      "channel": 0,
      "note": 52,
      "start": 6.0676,
      "duration": 0.1317,
      "velocity": 108,
      "chip": "ym2612"
    },
    {
      "channel": 4,
      "note": 74,
      "start": 6.0755,
      "duration": 0.0067,
      "velocity": 118,
      "chip": "ym2612"
    },
    {
      "channel": 4,
      "note": 74,
      "start": 6.0824,
      "duration": 0.1177,
      "velocity": 118,
      "chip": "ym2612"
    },
    {
      "channel": 0,
      "note": 49,
      "start": 6.1995,
      "duration": 0.1317,
      "velocity": 108,
      "chip": "ym2612"
    },
    {
      "channel": 4,
      "note": 74,
      "start": 6.2004,
      "duration": 0.0138,
      "velocity": 118,
      "chip": "ym2612"
    },
    {
      "channel": 4,
      "note": 74,
      "start": 6.2145,
      "duration": 0.1237,
      "velocity": 118,
      "chip": "ym2612"
    },
    {
      "channel": 0,
      "note": 54,
      "start": 6.3315,
      "duration": 0.1253,
      "velocity": 108,
      "chip": "ym2612"
    },
    {
      "channel": 1,
      "note": 88,
      "start": 6.3322,
      "duration": 0.3967,
      "velocity": 87,
      "chip": "ym2612"
    },
    {
      "channel": 2,
      "note": 83,
      "start": 6.3353,
      "duration": 0.3968,
      "velocity": 87,
      "chip": "ym2612"
    },
    {
      "channel": 4,
      "note": 74,
      "start": 6.3384,
      "duration": 0.0039,
      "velocity": 118,
      "chip": "ym2612"
    },
    {
      "channel": 4,
      "note": 74,
      "start": 6.3426,
      "duration": 0.1181,
      "velocity": 118,
      "chip": "ym2612"
    },
    {
      "channel": 0,
      "note": 49,
      "start": 6.4571,
      "duration": 0.1259,
      "velocity": 108,
      "chip": "ym2612"
    },
    {
      "channel": 3,
      "note": 88,
      "start": 6.4579,
      "duration": 0.3422,
      "velocity": 87,
      "chip": "ym2612"
    },
    {
      "channel": 4,
      "note": 74,
      "start": 6.4609,
      "duration": 0.0049,
      "velocity": 118,
      "chip": "ym2612"
    },
    {
      "channel": 4,
      "note": 74,
      "start": 6.4661,
      "duration": 0.1248,
      "velocity": 118,
      "chip": "ym2612"
    },
    {
      "channel": 0,
      "note": 52,
      "start": 6.5832,
      "duration": 0.1316,
      "velocity": 108,
      "chip": "ym2612"
    },
    {
      "channel": 4,
      "note": 74,
      "start": 6.5911,
      "duration": 0.0066,
      "velocity": 118,
      "chip": "ym2612"
    },
    {
      "channel": 4,
      "note": 74,
      "start": 6.5979,
      "duration": 0.1178,
      "velocity": 118,
      "chip": "ym2612"
    },
    {
      "channel": 0,
      "note": 49,
      "start": 6.7151,
      "duration": 0.0064,
      "velocity": 108,
      "chip": "ym2612"
    },
    {
      "channel": 4,
      "note": 74,
      "start": 6.7159,
      "duration": 0.0064,
      "velocity": 118,
      "chip": "ym2612"
    },
    {
      "channel": 0,
      "note": 54,
      "start": 6.7217,
      "duration": 0.0172,
      "velocity": 108,
      "chip": "ym2612"
    },
    {
      "channel": 4,
      "note": 74,
      "start": 6.7226,
      "duration": 0.0126,
      "velocity": 118,
      "chip": "ym2612"
    },
    {
      "channel": 1,
      "note": 90,
      "start": 6.7292,
      "duration": 0.2953,
      "velocity": 87,
      "chip": "ym2612"
    },
    {
      "channel": 2,
      "note": 85,
      "start": 6.7323,
      "duration": 0.2953,
      "velocity": 87,
      "chip": "ym2612"
    },
    {
      "channel": 4,
      "note": 74,
      "start": 6.7354,
      "duration": 0.0067,
      "velocity": 118,
      "chip": "ym2612"
    },
    {
      "channel": 0,
      "note": 54,
      "start": 6.7391,
      "duration": 0.1315,
      "velocity": 108,
      "chip": "ym2612"
    },
    {
      "channel": 4,
      "note": 74,
      "start": 6.7424,
      "duration": 0.0607,
      "velocity": 118,
      "chip": "ym2612"
    },
    {
      "channel": 3,
      "note": 90,
      "start": 6.8003,
      "duration": 8.8698,
      "velocity": 87,
      "chip": "ym2612"
    },
    {
      "channel": 4,
      "note": 74,
      "start": 6.8034,
      "duration": 0.0705,
      "velocity": 118,
      "chip": "ym2612"
    },
    {
      "channel": 0,
      "note": 49,
      "start": 6.8709,
      "duration": 0.0121,
      "velocity": 108,
      "chip": "ym2612"
    },
    {
      "channel": 4,
      "note": 74,
      "start": 6.8741,
      "duration": 0.0168,
      "velocity": 118,
      "chip": "ym2612"
    },
    {
      "channel": 0,
      "note": 52,
      "start": 6.8833,
      "duration": 0.0665,
      "velocity": 108,
      "chip": "ym2612"
    },
    {
      "channel": 4,
      "note": 74,
      "start": 6.8912,
      "duration": 0.004,
      "velocity": 118,
      "chip": "ym2612"
    },
    {
      "channel": 4,
      "note": 74,
      "start": 6.8954,
      "duration": 0.0553,
      "velocity": 118,
      "chip": "ym2612"
    },
    {
      "channel": 0,
      "note": 49,
      "start": 6.95,
      "duration": 0.0714,
      "velocity": 108,
      "chip": "ym2612"
    },
    {
      "channel": 4,
      "note": 74,
      "start": 6.951,
      "duration": 0.0642,
      "velocity": 118,
      "chip": "ym2612"
    },
    {
      "channel": 4,
      "note": 74,
      "start": 7.0154,
      "duration": 0.0154,
      "velocity": 118,
      "chip": "ym2612"
    },
    {
      "channel": 0,
      "note": 49,
      "start": 7.0217,
      "duration": 8.6484,
      "velocity": 108,
      "chip": "ym2612"
    },
    {
      "channel": 1,
      "note": 88,
      "start": 7.0248,
      "duration": 8.6454,
      "velocity": 87,
      "chip": "ym2612"
    },
    {
      "channel": 2,
      "note": 85,
      "start": 7.0278,
      "duration": 8.6423,
      "velocity": 87,
      "chip": "ym2612"
    },
    {
      "channel": 4,
      "note": 74,
      "start": 7.031,
      "duration": 0.0067,
      "velocity": 118,
      "chip": "ym2612"
    },
    {
      "channel": 4,
      "note": 74,
      "start": 7.0379,
      "duration": 8.6322,
      "velocity": 118,
      "chip": "ym2612"
    }
  ]
}