{
  "track_name": "01 - Prime Time Theme",
  "duration_sec": 46.081,
  "sample_rate": 44100,
  "note_count": 780,
  "unique_pitches": 44,
  "pitch_range": 53,
  "avg_note_duration": 0.1311,
  "reconstruction_stats": {
    "notes_reconstructed": 780,
    "keyon_events": 780,
    "keyoff_events": 780,
    "orphan_keyons": 0,
    "unique_pitches": 44,
    "pitch_range": 53,
    "avg_duration_sec": 0.1311
  },
  "metadata": {
    "source": "N\\NFL '98\\01 - Prime Time Theme.vgz"
  },
  "notes": [
    {
      "channel": 0,
      "note": 62,
      "start": 0.0022,
      "duration": 2.2808,
      "velocity": 106,
      "chip": "ym2612"
    },
    {
      "channel": 1,
      "note": 50,
      "start": 0.017,
      "duration": 2.0827,
      "velocity": 106,
      "chip": "ym2612"
    },
    {
      "channel": 3,
      "note": 50,
      "start": 0.0245,
      "duration": 0.0399,
      "velocity": 92,
      "chip": "ym2612"
    },
    {
      "channel": 3,
      "note": 50,
      "start": 0.1205,
      "duration": 0.0446,
      "velocity": 92,
      "chip": "ym2612"
    },
    {
      "channel": 3,
      "note": 50,
      "start": 0.2849,
      "duration": 0.0376,
      "velocity": 92,
      "chip": "ym2612"
    },
    {
      "channel": 3,
      "note": 50,
      "start": 0.4061,
      "duration": 0.0796,
      "velocity": 92,
      "chip": "ym2612"
    },
    {
      "channel": 4,
      "note": 64,
      "start": 0.6227,
      "duration": 1.6271,
      "velocity": 106,
      "chip": "ym2612"
    },
    {
      "channel": 3,
      "note": 50,
      "start": 0.6253,
      "duration": 0.0382,
      "velocity": 92,
      "chip": "ym2612"
    },
    {
      "channel": 3,
      "note": 50,
      "start": 0.7202,
      "duration": 0.0514,
      "velocity": 92,
      "chip": "ym2612"
    },
    {
      "channel": 3,
      "note": 50,
      "start": 0.8916,
      "duration": 0.0456,
      "velocity": 92,
      "chip": "ym2612"
    },
    {
      "channel": 3,
      "note": 50,
      "start": 1.0132,
      "duration": 0.04,
      "velocity": 92,
      "chip": "ym2612"
    },
    {
      "channel": 2,
      "note": 69,
      "start": 1.1158,
      "duration": 1.1174,
      "velocity": 106,
      "chip": "ym2612"
    },
    {
      "channel": 3,
      "note": 50,
      "start": 1.1186,
      "duration": 0.0346,
      "velocity": 92,
      "chip": "ym2612"
    },
    {
      "channel": 3,
      "note": 50,
      "start": 1.2167,
      "duration": 0.0381,
      "velocity": 92,
      "chip": "ym2612"
    },
    {
      "channel": 3,
      "note": 50,
      "start": 1.3748,
      "duration": 0.0463,
      "velocity": 92,
      "chip": "ym2612"
    },
    {
      "channel": 3,
      "note": 50,
      "start": 1.4954,
      "duration": 0.0968,
      "velocity": 92,
      "chip": "ym2612"
    },
    {
      "channel": 3,
      "note": 50,
      "start": 1.7121,
      "duration": 0.04,
      "velocity": 92,
      "chip": "ym2612"
    },
    {
      "channel": 3,
      "note": 50,
      "start": 1.815,
      "duration": 0.0451,
      "velocity": 92,
      "chip": "ym2612"
    },
    {
      "channel": 3,
      "note": 50,
      "start": 1.9967,
      "duration": 0.0392,
      "velocity": 92,
      "chip": "ym2612"
    },
    {
      "channel": 3,
      "note": 50,
      "start": 2.1031,
      "duration": 0.0966,
      "velocity": 92,
      "chip": "ym2612"
    },
    {
      "channel": 0,
      "note": 62,
      "start": 2.3195,
      "duration": 0.5553,
      "velocity": 106,
      "chip": "ym2612"
    },
    {
      "channel": 2,
      "note": 65,
      "start": 2.3227,
      "duration": 0.5525,
      "velocity": 106,
      "chip": "ym2612"
    },
    {
      "channel": 4,
      "note": 70,
      "start": 2.3256,
      "duration": 0.5495,
      "velocity": 106,
      "chip": "ym2612"
    },
    {
      "channel": 1,
      "note": 62,
      "start": 2.3293,
      "duration": 1.0626,
      "velocity": 106,
      "chip": "ym2612"
    },
    {
      "channel": 3,
      "note": 50,
      "start": 2.3319,
      "duration": 0.0411,
      "velocity": 92,
      "chip": "ym2612"
    },
    {
      "channel": 3,
      "note": 50,
      "start": 2.4275,
      "duration": 0.0402,
      "velocity": 92,
      "chip": "ym2612"
    },
    {
      "channel": 3,
      "note": 50,
      "start": 2.6044,
      "duration": 0.0408,
      "velocity": 92,
      "chip": "ym2612"
    },
    {
      "channel": 3,
      "note": 50,
      "start": 2.7288,
      "duration": 0.0796,
      "velocity": 92,
      "chip": "ym2612"
    },
    {
      "channel": 0,
      "note": 65,
      "start": 2.9279,
      "duration": 0.5019,
      "velocity": 106,
      "chip": "ym2612"
    },
    {
      "channel": 2,
      "note": 70,
      "start": 2.9308,
      "duration": 0.4766,
      "velocity": 106,
      "chip": "ym2612"
    },
    {
      "channel": 4,
      "note": 74,
      "start": 2.9335,
      "duration": 0.4661,
      "velocity": 106,
      "chip": "ym2612"
    },
    {
      "channel": 3,
      "note": 50,
      "start": 2.9362,
      "duration": 0.0432,
      "velocity": 92,
      "chip": "ym2612"
    },
    {
      "channel": 3,
      "note": 50,
      "start": 3.0335,
      "duration": 0.0603,
      "velocity": 92,
      "chip": "ym2612"
    },
    {
      "channel": 3,
      "note": 50,
      "start": 3.2137,
      "duration": 0.0405,
      "velocity": 92,
      "chip": "ym2612"
    },
    {
      "channel": 3,
      "note": 50,
      "start": 3.3373,
      "duration": 0.0392,
      "velocity": 92,
      "chip": "ym2612"
    },
    {
      "channel": 0,
      "note": 64,
      "start": 3.4392,
      "duration": 0.5465,
      "velocity": 106,
      "chip": "ym2612"
    },
    {
      "channel": 2,
      "note": 67,
      "start": 3.4417,
      "duration": 0.5444,
      "velocity": 106,
      "chip": "ym2612"
    },
    {
      "channel": 4,
      "note": 72,
      "start": 3.4443,
      "duration": 0.5416,
      "velocity": 106,
      "chip": "ym2612"
    },
    {
      "channel": 1,
      "note": 64,
      "start": 3.4481,
      "duration": 0.521,
      "velocity": 106,
      "chip": "ym2612"
    },
    {
      "channel": 3,
      "note": 50,
      "start": 3.4505,
      "duration": 0.0295,
      "velocity": 92,
      "chip": "ym2612"
    },
    {
      "channel": 3,
      "note": 50,
      "start": 3.5373,
      "duration": 0.0426,
      "velocity": 92,
      "chip": "ym2612"
    },
    {
      "channel": 3,
      "note": 50,
      "start": 3.7,
      "duration": 0.047,
      "velocity": 92,
      "chip": "ym2612"
    },
    {
      "channel": 3,
      "note": 50,
      "start": 3.8226,
      "duration": 0.08,
      "velocity": 92,
      "chip": "ym2612"
    },
    {
      "channel": 0,
      "note": 67,
      "start": 4.0387,
      "duration": 0.5554,
      "velocity": 106,
      "chip": "ym2612"
    },
    {
      "channel": 2,
      "note": 72,
      "start": 4.0416,
      "duration": 0.5529,
      "velocity": 106,
      "chip": "ym2612"
    },
    {
      "channel": 4,
      "note": 76,
      "start": 4.0442,
      "duration": 0.5502,
      "velocity": 106,
      "chip": "ym2612"
    },
    {
      "channel": 1,
      "note": 60,
      "start": 4.0471,
      "duration": 0.5472,
      "velocity": 106,
      "chip": "ym2612"
    },
    {
      "channel": 3,
      "note": 50,
      "start": 4.0496,
      "duration": 0.0359,
      "velocity": 92,
      "chip": "ym2612"
    },
    {
      "channel": 3,
      "note": 50,
      "start": 4.1481,
      "duration": 0.0414,
      "velocity": 92,
      "chip": "ym2612"
    },
    {
      "channel": 3,
      "note": 50,
      "start": 4.3094,
      "duration": 0.046,
      "velocity": 92,
      "chip": "ym2612"
    },
    {
      "channel": 3,
      "note": 50,
      "start": 4.4309,
      "duration": 0.0966,
      "velocity": 92,
      "chip": "ym2612"
    },
    {
      "channel": 0,
      "note": 69,
      "start": 4.6483,
      "duration": 0.3422,
      "velocity": 106,
      "chip": "ym2612"
    },
    {
      "channel": 2,
      "note": 74,
      "start": 4.6532,
      "duration": 0.3375,
      "velocity": 106,
      "chip": "ym2612"
    },
    {
      "channel": 4,
      "note": 77,
      "start": 4.6571,
      "duration": 0.3335,
      "velocity": 106,
      "chip": "ym2612"
    },
    {
      "channel": 1,
      "note": 50,
      "start": 4.6615,
      "duration": 2.1036,
      "velocity": 106,
      "chip": "ym2612"
    },
    {
      "channel": 3,
      "note": 50,
      "start": 4.6667,
      "duration": 0.0347,
      "velocity": 92,
      "chip": "ym2612"
    },
    {
      "channel": 3,
      "note": 50,
      "start": 4.7643,
      "duration": 0.0349,
      "velocity": 92,
      "chip": "ym2612"
    },
    {
      "channel": 3,
      "note": 50,
      "start": 4.9356,
      "duration": 0.0393,
      "velocity": 92,
      "chip": "ym2612"
    },
    {
      "channel": 0,
      "note": 69,
      "start": 5.0424,
      "duration": 0.0635,
      "velocity": 106,
      "chip": "ym2612"
    },
    {
      "channel": 2,
      "note": 74,
      "start": 5.0455,
      "duration": 0.0607,
      "velocity": 106,
      "chip": "ym2612"
    },
    {
      "channel": 4,
      "note": 77,
      "start": 5.0484,
      "duration": 0.0576,
      "velocity": 106,
      "chip": "ym2612"
    },
    {
      "channel": 3,
      "note": 50,
      "start": 5.0511,
      "duration": 0.0882,
      "velocity": 92,
      "chip": "ym2612"
    },
    {
      "channel": 0,
      "note": 69,
      "start": 5.1587,
      "duration": 0.047,
      "velocity": 106,
      "chip": "ym2612"
    },
    {
      "channel": 2,
      "note": 74,
      "start": 5.1616,
      "duration": 0.0445,
      "velocity": 106,
      "chip": "ym2612"
    },
    {
      "channel": 4,
      "note": 77,
      "start": 5.1642,
      "duration": 0.0417,
      "velocity": 106,
      "chip": "ym2612"
    },
    {
      "channel": 0,
      "note": 67,
      "start": 5.259,
      "duration": 0.0438,
      "velocity": 106,
      "chip": "ym2612"
    },
    {
      "channel": 2,
      "note": 72,
      "start": 5.2621,
      "duration": 0.041,
      "velocity": 106,
      "chip": "ym2612"
    },
    {
      "channel": 4,
      "note": 76,
      "start": 5.265,
      "duration": 0.0379,
      "velocity": 106,
      "chip": "ym2612"
    },
    {
      "channel": 3,
      "note": 50,
      "start": 5.2677,
      "duration": 0.043,
      "velocity": 92,
      "chip": "ym2612"
    },
    {
      "channel": 0,
      "note": 64,
      "start": 5.3651,
      "duration": 0.03,
      "velocity": 106,
      "chip": "ym2612"
    },
    {
      "channel": 2,
      "note": 67,
      "start": 5.3688,
      "duration": 0.0265,
      "velocity": 106,
      "chip": "ym2612"
    },
    {
      "channel": 4,
      "note": 72,
      "start": 5.3712,
      "duration": 0.024,
      "velocity": 106,
      "chip": "ym2612"
    },
    {
      "channel": 3,
      "note": 50,
      "start": 5.374,
      "duration": 0.0354,
      "velocity": 92,
      "chip": "ym2612"
    },
    {
      "channel": 0,
      "note": 60,
      "start": 5.5454,
      "duration": 0.0365,
      "velocity": 106,
      "chip": "ym2612"
    },
    {
      "channel": 2,
      "note": 64,
      "start": 5.5483,
      "duration": 0.0339,
      "velocity": 106,
      "chip": "ym2612"
    },
    {
      "channel": 4,
      "note": 67,
      "start": 5.5509,
      "duration": 0.0312,
      "velocity": 106,
      "chip": "ym2612"
    },
    {
      "channel": 3,
      "note": 50,
      "start": 5.5536,
      "duration": 0.0357,
      "velocity": 92,
      "chip": "ym2612"
    },
    {
      "channel": 0,
      "note": 65,
      "start": 5.6679,
      "duration": 0.8751,
      "velocity": 106,
      "chip": "ym2612"
    },
    {
      "channel": 2,
      "note": 70,
      "start": 5.6726,
      "duration": 0.8708,
      "velocity": 106,
      "chip": "ym2612"
    },
    {
      "channel": 4,
      "note": 74,
      "start": 5.6775,
      "duration": 0.8658,
      "velocity": 106,
      "chip": "ym2612"
    },
    {
      "channel": 3,
      "note": 50,
      "start": 5.6822,
      "duration": 0.0361,
      "velocity": 92,
      "chip": "ym2612"
    },
    {
      "channel": 3,
      "note": 50,
      "start": 5.7743,
      "duration": 0.0438,
      "velocity": 92,
      "chip": "ym2612"
    },
    {
      "channel": 3,
      "note": 50,
      "start": 5.8726,
      "duration": 0.0601,
      "velocity": 92,
      "chip": "ym2612"
    },
    {
      "channel": 3,
      "note": 50,
      "start": 6.0527,
      "duration": 0.0403,
      "velocity": 92,
      "chip": "ym2612"
    },
    {
      "channel": 3,
      "note": 50,
      "start": 6.1754,
      "duration": 0.0797,
      "velocity": 92,
      "chip": "ym2612"
    },
    {
      "channel": 3,
      "note": 50,
      "start": 6.3918,
      "duration": 0.039,
      "velocity": 92,
      "chip": "ym2612"
    },
    {
      "channel": 3,
      "note": 50,
      "start": 6.4879,
      "duration": 0.0552,
      "velocity": 92,
      "chip": "ym2612"
    },
    {
      "channel": 0,
      "note": 67,
      "start": 6.663,
      "duration": 0.102,
      "velocity": 106,
      "chip": "ym2612"
    },
    {
      "channel": 2,
      "note": 72,
      "start": 6.6661,
      "duration": 0.0993,
      "velocity": 106,
      "chip": "ym2612"
    },
    {
      "channel": 4,
      "note": 76,
      "start": 6.669,
      "duration": 0.0962,
      "velocity": 106,
      "chip": "ym2612"
    },
    {
      "channel": 3,
      "note": 50,
      "start": 6.6717,
      "duration": 0.0417,
      "velocity": 92,
      "chip": "ym2612"
    },
    {
      "channel": 3,
      "note": 50,
      "start": 6.785,
      "duration": 0.08,
      "velocity": 92,
      "chip": "ym2612"
    },
    {
      "channel": 0,
      "note": 69,
      "start": 7.0015,
      "duration": 0.3328,
      "velocity": 106,
      "chip": "ym2612"
    },
    {
      "channel": 2,
      "note": 74,
      "start": 7.0047,
      "duration": 0.3298,
      "velocity": 106,
      "chip": "ym2612"
    },
    {
      "channel": 4,
      "note": 77,
      "start": 7.0076,
      "duration": 0.3268,
      "velocity": 106,
      "chip": "ym2612"
    },
    {
      "channel": 1,
      "note": 50,
      "start": 7.0103,
      "duration": 2.027,
      "velocity": 106,
      "chip": "ym2612"
    },
    {
      "channel": 3,
      "note": 50,
      "start": 7.0128,
      "duration": 0.0343,
      "velocity": 92,
      "chip": "ym2612"
    },
    {
      "channel": 3,
      "note": 50,
      "start": 7.1097,
      "duration": 0.0433,
      "velocity": 92,
      "chip": "ym2612"
    },
    {
      "channel": 3,
      "note": 50,
      "start": 7.2729,
      "duration": 0.0467,
      "velocity": 92,
      "chip": "ym2612"
    },
    {
      "channel": 0,
      "note": 69,
      "start": 7.3952,
      "duration": 0.0468,
      "velocity": 106,
      "chip": "ym2612"
    },
    {
      "channel": 2,
      "note": 74,
      "start": 7.3984,
      "duration": 0.0441,
      "velocity": 106,
      "chip": "ym2612"
    },
    {
      "channel": 4,
      "note": 77,
      "start": 7.4013,
      "duration": 0.041,
      "velocity": 106,
      "chip": "ym2612"
    },
    {
      "channel": 3,
      "note": 50,
      "start": 7.4039,
      "duration": 0.0882,
      "velocity": 92,
      "chip": "ym2612"
    },
    {
      "channel": 0,
      "note": 69,
      "start": 7.5116,
      "duration": 0.0471,
      "velocity": 106,
      "chip": "ym2612"
    },
    {
      "channel": 2,
      "note": 74,
      "start": 7.5144,
      "duration": 0.0447,
      "velocity": 106,
      "chip": "ym2612"
    },
    {
      "channel": 4,
      "note": 77,
      "start": 7.5171,
      "duration": 0.0419,
      "velocity": 106,
      "chip": "ym2612"
    },
    {
      "channel": 0,
      "note": 67,
      "start": 7.6123,
      "duration": 0.0379,
      "velocity": 106,
      "chip": "ym2612"
    },
    {
      "channel": 2,
      "note": 72,
      "start": 7.6155,
      "duration": 0.0351,
      "velocity": 106,
      "chip": "ym2612"
    },
    {
      "channel": 4,
      "note": 76,
      "start": 7.6188,
      "duration": 0.0316,
      "velocity": 106,
      "chip": "ym2612"
    },
    {
      "channel": 3,
      "note": 50,
      "start": 7.6215,
      "duration": 0.0359,
      "velocity": 92,
      "chip": "ym2612"
    },
    {
      "channel": 0,
      "note": 64,
      "start": 7.719,
      "duration": 0.0305,
      "velocity": 106,
      "chip": "ym2612"
    },
    {
      "channel": 2,
      "note": 67,
      "start": 7.722,
      "duration": 0.0278,
      "velocity": 106,
      "chip": "ym2612"
    },
    {
      "channel": 4,
      "note": 72,
      "start": 7.7254,
      "duration": 0.0242,
      "velocity": 106,
      "chip": "ym2612"
    },
    {
      "channel": 3,
      "note": 50,
      "start": 7.7279,
      "duration": 0.0351,
      "velocity": 92,
      "chip": "ym2612"
    },
    {
      "channel": 0,
      "note": 60,
      "start": 7.8991,
      "duration": 0.0367,
      "velocity": 106,
      "chip": "ym2612"
    },
    {
      "channel": 2,
      "note": 64,
      "start": 7.902,
      "duration": 0.034,
      "velocity": 106,
      "chip": "ym2612"
    },
    {
      "channel": 4,
      "note": 67,
      "start": 7.9046,
      "duration": 0.0313,
      "velocity": 106,
      "chip": "ym2612"
    },
    {
      "channel": 3,
      "note": 50,
      "start": 7.9073,
      "duration": 0.0359,
      "velocity": 92,
      "chip": "ym2612"
    },
    {
      "channel": 0,
      "note": 65,
      "start": 8.0044,
      "duration": 0.8577,
      "velocity": 106,
      "chip": "ym2612"
    },
    {
      "channel": 2,
      "note": 70,
      "start": 8.0091,
      "duration": 0.8533,
      "velocity": 106,
      "chip": "ym2612"
    },
    {
      "channel": 4,
      "note": 74,
      "start": 8.0137,
      "duration": 0.8487,
      "velocity": 106,
      "chip": "ym2612"
    },
    {
      "channel": 3,
      "note": 50,
      "start": 8.018,
      "duration": 0.0416,
      "velocity": 92,
      "chip": "ym2612"
    },
    {
      "channel": 3,
      "note": 50,
      "start": 8.1152,
      "duration": 0.0433,
      "velocity": 92,
      "chip": "ym2612"
    },
    {
      "channel": 3,
      "note": 50,
      "start": 8.2142,
      "duration": 0.0443,
      "velocity": 92,
      "chip": "ym2612"
    },
    {
      "channel": 3,
      "note": 50,
      "start": 8.3952,
      "duration": 0.04,
      "velocity": 92,
      "chip": "ym2612"
    },
    {
      "channel": 3,
      "note": 50,
      "start": 8.517,
      "duration": 0.0797,
      "velocity": 92,
      "chip": "ym2612"
    },
    {
      "channel": 3,
      "note": 50,
      "start": 8.7166,
      "duration": 0.0465,
      "velocity": 92,
      "chip": "ym2612"
    },
    {
      "channel": 3,
      "note": 50,
      "start": 8.8178,
      "duration": 0.0444,
      "velocity": 92,
      "chip": "ym2612"
    },
    {
      "channel": 0,
      "note": 67,
      "start": 8.9341,
      "duration": 0.1031,
      "velocity": 106,
      "chip": "ym2612"
    },
    {
      "channel": 2,
      "note": 72,
      "start": 8.9372,
      "duration": 0.1004,
      "velocity": 106,
      "chip": "ym2612"
    },
    {
      "channel": 4,
      "note": 76,
      "start": 8.9401,
      "duration": 0.0973,
      "velocity": 106,
      "chip": "ym2612"
    },
    {
      "channel": 3,
      "note": 50,
      "start": 8.9428,
      "duration": 0.0352,
      "velocity": 92,
      "chip": "ym2612"
    },
    {
      "channel": 3,
      "note": 50,
      "start": 9.0572,
      "duration": 0.0387,
      "velocity": 92,
      "chip": "ym2612"
    },
    {
      "channel": 0,
      "note": 68,
      "start": 9.1788,
      "duration": 0.2494,
      "velocity": 106,
      "chip": "ym2612"
    },
    {
      "channel": 2,
      "note": 72,
      "start": 9.182,
      "duration": 0.2467,
      "velocity": 106,
      "chip": "ym2612"
    },
    {
      "channel": 4,
      "note": 77,
      "start": 9.1853,
      "duration": 0.2432,
      "velocity": 106,
      "chip": "ym2612"
    },
    {
      "channel": 1,
      "note": 53,
      "start": 9.1883,
      "duration": 0.2992,
      "velocity": 106,
      "chip": "ym2612"
    },
    {
      "channel": 3,
      "note": 53,
      "start": 9.191,
      "duration": 0.0337,
      "velocity": 92,
      "chip": "ym2612"
    },
    {
      "channel": 3,
      "note": 53,
      "start": 9.2804,
      "duration": 0.048,
      "velocity": 92,
      "chip": "ym2612"
    },
    {
      "channel": 3,
      "note": 53,
      "start": 9.4483,
      "duration": 0.0463,
      "velocity": 92,
      "chip": "ym2612"
    },
    {
      "channel": 0,
      "note": 70,
      "start": 9.5708,
      "duration": 0.1997,
      "velocity": 106,
      "chip": "ym2612"
    },
    {
      "channel": 2,
      "note": 75,
      "start": 9.5741,
      "duration": 0.1968,
      "velocity": 106,
      "chip": "ym2612"
    },
    {
      "channel": 4,
      "note": 79,
      "start": 9.5769,
      "duration": 0.1938,
      "velocity": 106,
      "chip": "ym2612"
    },
    {
      "channel": 1,
      "note": 51,
      "start": 9.5798,
      "duration": 0.1909,
      "velocity": 106,
      "chip": "ym2612"
    },
    {
      "channel": 3,
      "note": 51,
      "start": 9.5823,
      "duration": 0.0349,
      "velocity": 92,
      "chip": "ym2612"
    },
    {
      "channel": 3,
      "note": 51,
      "start": 9.6783,
      "duration": 0.0423,
      "velocity": 92,
      "chip": "ym2612"
    },
    {
      "channel": 3,
      "note": 51,
      "start": 9.8572,
      "duration": 0.0394,
      "velocity": 92,
      "chip": "ym2612"
    },
    {
      "channel": 0,
      "note": 72,
      "start": 9.964,
      "duration": 0.4333,
      "velocity": 106,
      "chip": "ym2612"
    },
    {
      "channel": 2,
      "note": 75,
      "start": 9.9682,
      "duration": 0.4295,
      "velocity": 106,
      "chip": "ym2612"
    },
    {
      "channel": 4,
      "note": 80,
      "start": 9.971,
      "duration": 0.4265,
      "velocity": 106,
      "chip": "ym2612"
    },
    {
      "channel": 1,
      "note": 49,
      "start": 9.9743,
      "duration": 0.9816,
      "velocity": 106,
      "chip": "ym2612"
    },
    {
      "channel": 3,
      "note": 49,
      "start": 9.9771,
      "duration": 0.0404,
      "velocity": 92,
      "chip": "ym2612"
    },
    {
      "channel": 3,
      "note": 49,
      "start": 10.0737,
      "duration": 0.0571,
      "velocity": 92,
      "chip": "ym2612"
    },
    {
      "channel": 3,
      "note": 49,
      "start": 10.2507,
      "duration": 0.08,
      "velocity": 92,
      "chip": "ym2612"
    },
    {
      "channel": 0,
      "note": 72,
      "start": 10.4672,
      "duration": 0.0738,
      "velocity": 106,
      "chip": "ym2612"
    },
    {
      "channel": 2,
      "note": 75,
      "start": 10.4704,
      "duration": 0.0709,
      "velocity": 106,
      "chip": "ym2612"
    },
    {
      "channel": 4,
      "note": 80,
      "start": 10.4733,
      "duration": 0.0678,
      "velocity": 106,
      "chip": "ym2612"
    },
    {
      "channel": 3,
      "note": 49,
      "start": 10.476,
      "duration": 0.035,
      "velocity": 92,
      "chip": "ym2612"
    },
    {
      "channel": 0,
      "note": 72,
      "start": 10.5893,
      "duration": 0.0741,
      "velocity": 106,
      "chip": "ym2612"
    },
    {
      "channel": 2,
      "note": 75,
      "start": 10.5921,
      "duration": 0.0715,
      "velocity": 106,
      "chip": "ym2612"
    },
    {
      "channel": 4,
      "note": 80,
      "start": 10.5947,
      "duration": 0.0687,
      "velocity": 106,
      "chip": "ym2612"
    },
    {
      "channel": 3,
      "note": 49,
      "start": 10.5974,
      "duration": 0.0357,
      "velocity": 92,
      "chip": "ym2612"
    },
    {
      "channel": 0,
      "note": 72,
      "start": 10.6956,
      "duration": 0.0743,
      "velocity": 106,
      "chip": "ym2612"
    },
    {
      "channel": 2,
      "note": 75,
      "start": 10.6985,
      "duration": 0.0716,
      "velocity": 106,
      "chip": "ym2612"
    },
    {
      "channel": 4,
      "note": 80,
      "start": 10.7014,
      "duration": 0.0686,
      "velocity": 106,
      "chip": "ym2612"
    },
    {
      "channel": 3,
      "note": 49,
      "start": 10.704,
      "duration": 0.0429,
      "velocity": 92,
      "chip": "ym2612"
    },
    {
      "channel": 0,
      "note": 72,
      "start": 10.8185,
      "duration": 0.0823,
      "velocity": 106,
      "chip": "ym2612"
    },
    {
      "channel": 2,
      "note": 75,
      "start": 10.8216,
      "duration": 0.0794,
      "velocity": 106,
      "chip": "ym2612"
    },
    {
      "channel": 4,
      "note": 80,
      "start": 10.8246,
      "duration": 0.0764,
      "velocity": 106,
      "chip": "ym2612"
    },
    {
      "channel": 3,
      "note": 49,
      "start": 10.8272,
      "duration": 0.0431,
      "velocity": 92,
      "chip": "ym2612"
    },
    {
      "channel": 3,
      "note": 49,
      "start": 10.9429,
      "duration": 0.0796,
      "velocity": 92,
      "chip": "ym2612"
    },
    {
      "channel": 0,
      "note": 74,
      "start": 11.1588,
      "duration": 0.0969,
      "velocity": 106,
      "chip": "ym2612"
    },
    {
      "channel": 2,
      "note": 77,
      "start": 11.1618,
      "duration": 0.0941,
      "velocity": 106,
      "chip": "ym2612"
    },
    {
      "channel": 4,
      "note": 82,
      "start": 11.1646,
      "duration": 0.0912,
      "velocity": 106,
      "chip": "ym2612"
    },
    {
      "channel": 1,
      "note": 48,
      "start": 11.168,
      "duration": 0.1029,
      "velocity": 106,
      "chip": "ym2612"
    },
    {
      "channel": 3,
      "note": 48,
      "start": 11.1705,
      "duration": 0.0336,
      "velocity": 92,
      "chip": "ym2612"
    },
    {
      "channel": 3,
      "note": 48,
      "start": 11.2659,
      "duration": 0.0431,
      "velocity": 92,
      "chip": "ym2612"
    },
    {
      "channel": 0,
      "note": 76,
      "start": 11.4288,
      "duration": 0.315,
      "velocity": 106,
      "chip": "ym2612"
    },
    {
      "channel": 2,
      "note": 79,
      "start": 11.4336,
      "duration": 0.3107,
      "velocity": 106,
      "chip": "ym2612"
    },
    {
      "channel": 4,
      "note": 84,
      "start": 11.4369,
      "duration": 0.3072,
      "velocity": 106,
      "chip": "ym2612"
    },
    {
      "channel": 1,
      "note": 46,
      "start": 11.4402,
      "duration": 1.175,
      "velocity": 106,
      "chip": "ym2612"
    },
    {
      "channel": 3,
      "note": 46,
      "start": 11.443,
      "duration": 0.0396,
      "velocity": 92,
      "chip": "ym2612"
    },
    {
      "channel": 3,
      "note": 46,
      "start": 11.5383,
      "duration": 0.0557,
      "velocity": 92,
      "chip": "ym2612"
    },
    {
      "channel": 3,
      "note": 46,
      "start": 11.7139,
      "duration": 0.0801,
      "velocity": 92,
      "chip": "ym2612"
    },
    {
      "channel": 0,
      "note": 76,
      "start": 11.9304,
      "duration": 0.0896,
      "velocity": 106,
      "chip": "ym2612"
    },
    {
      "channel": 2,
      "note": 79,
      "start": 11.9336,
      "duration": 0.0866,
      "velocity": 106,
      "chip": "ym2612"
    },
    {
      "channel": 4,
      "note": 84,
      "start": 11.9365,
      "duration": 0.0836,
      "velocity": 106,
      "chip": "ym2612"
    },
    {
      "channel": 3,
      "note": 46,
      "start": 11.9391,
      "duration": 0.0359,
      "velocity": 92,
      "chip": "ym2612"
    },
    {
      "channel": 3,
      "note": 46,
      "start": 12.0544,
      "duration": 0.0801,
      "velocity": 92,
      "chip": "ym2612"
    },
    {
      "channel": 0,
      "note": 76,
      "start": 12.2541,
      "duration": 0.0807,
      "velocity": 106,
      "chip": "ym2612"
    },
    {
      "channel": 2,
      "note": 79,
      "start": 12.2571,
      "duration": 0.0779,
      "velocity": 106,
      "chip": "ym2612"
    },
    {
      "channel": 4,
      "note": 84,
      "start": 12.2599,
      "duration": 0.075,
      "velocity": 106,
      "chip": "ym2612"
    },
    {
      "channel": 3,
      "note": 46,
      "start": 12.2625,
      "duration": 0.0431,
      "velocity": 92,
      "chip": "ym2612"
    },
    {
      "channel": 3,
      "note": 46,
      "start": 12.3607,
      "duration": 0.0605,
      "velocity": 92,
      "chip": "ym2612"
    },
    {
      "channel": 0,
      "note": 76,
      "start": 12.5411,
      "duration": 0.1366,
      "velocity": 106,
      "chip": "ym2612"
    },
    {
      "channel": 2,
      "note": 79,
      "start": 12.5442,
      "duration": 0.1339,
      "velocity": 106,
      "chip": "ym2612"
    },
    {
      "channel": 4,
      "note": 84,
      "start": 12.547,
      "duration": 0.131,
      "velocity": 106,
      "chip": "ym2612"
    },
    {
      "channel": 3,
      "note": 46,
      "start": 12.5496,
      "duration": 0.0352,
      "velocity": 92,
      "chip": "ym2612"
    },
    {
      "channel": 3,
      "note": 46,
      "start": 12.6646,
      "duration": 0.0799,
      "velocity": 92,
      "chip": "ym2612"
    },
    {
      "channel": 0,
      "note": 76,
      "start": 12.8809,
      "duration": 0.0528,
      "velocity": 106,
      "chip": "ym2612"
    },
    {
      "channel": 2,
      "note": 79,
      "start": 12.8841,
      "duration": 0.05,
      "velocity": 106,
      "chip": "ym2612"
    },
    {
      "channel": 4,
      "note": 85,
      "start": 12.887,
      "duration": 0.0469,
      "velocity": 106,
      "chip": "ym2612"
    },
    {
      "channel": 1,
      "note": 45,
      "start": 12.8903,
      "duration": 0.7329,
      "velocity": 106,
      "chip": "ym2612"
    },
    {
      "channel": 3,
      "note": 45,
      "start": 12.8929,
      "duration": 0.0334,
      "velocity": 92,
      "chip": "ym2612"
    },
    {
      "channel": 0,
      "note": 76,
      "start": 12.982,
      "duration": 0.0827,
      "velocity": 106,
      "chip": "ym2612"
    },
    {
      "channel": 2,
      "note": 79,
      "start": 12.9849,
      "duration": 0.0801,
      "velocity": 106,
      "chip": "ym2612"
    },
    {
      "channel": 4,
      "note": 85,
      "start": 12.9879,
      "duration": 0.077,
      "velocity": 106,
      "chip": "ym2612"
    },
    {
      "channel": 3,
      "note": 45,
      "start": 12.9915,
      "duration": 0.0367,
      "velocity": 92,
      "chip": "ym2612"
    },
    {
      "channel": 3,
      "note": 45,
      "start": 13.0918,
      "duration": 0.0967,
      "velocity": 92,
      "chip": "ym2612"
    },
    {
      "channel": 0,
      "note": 76,
      "start": 13.3083,
      "duration": 0.044,
      "velocity": 106,
      "chip": "ym2612"
    },
    {
      "channel": 2,
      "note": 79,
      "start": 13.3118,
      "duration": 0.0408,
      "velocity": 106,
      "chip": "ym2612"
    },
    {
      "channel": 4,
      "note": 85,
      "start": 13.3151,
      "duration": 0.0374,
      "velocity": 106,
      "chip": "ym2612"
    },
    {
      "channel": 3,
      "note": 45,
      "start": 13.3178,
      "duration": 0.0346,
      "velocity": 92,
      "chip": "ym2612"
    },
    {
      "channel": 0,
      "note": 76,
      "start": 13.4151,
      "duration": 0.0626,
      "velocity": 106,
      "chip": "ym2612"
    },
    {
      "channel": 2,
      "note": 79,
      "start": 13.419,
      "duration": 0.059,
      "velocity": 106,
      "chip": "ym2612"
    },
    {
      "channel": 4,
      "note": 85,
      "start": 13.4219,
      "duration": 0.056,
      "velocity": 106,
      "chip": "ym2612"
    },
    {
      "channel": 3,
      "note": 45,
      "start": 13.4247,
      "duration": 0.0304,
      "velocity": 92,
      "chip": "ym2612"
    },
    {
      "channel": 3,
      "note": 45,
      "start": 13.5267,
      "duration": 0.08,
      "velocity": 92,
      "chip": "ym2612"
    },
    {
      "channel": 0,
      "note": 77,
      "start": 13.7269,
      "duration": 0.0976,
      "velocity": 106,
      "chip": "ym2612"
    },
    {
      "channel": 2,
      "note": 81,
      "start": 13.7301,
      "duration": 0.0948,
      "velocity": 106,
      "chip": "ym2612"
    },
    {
      "channel": 4,
      "note": 86,
      "start": 13.7332,
      "duration": 0.0916,
      "velocity": 106,
      "chip": "ym2612"
    },
    {
      "channel": 1,
      "note": 50,
      "start": 13.7365,
      "duration": 4.5076,
      "velocity": 106,
      "chip": "ym2612"
    },
    {
      "channel": 3,
      "note": 50,
      "start": 13.7392,
      "duration": 0.0403,
      "velocity": 92,
      "chip": "ym2612"
    },
    {
      "channel": 3,
      "note": 77,
      "start": 13.8367,
      "duration": 0.0571,
      "velocity": 90,
      "chip": "ym2612"
    },
    {
      "channel": 0,
      "note": 50,
      "start": 13.8392,
      "duration": 0.0544,
      "velocity": 92,
      "chip": "ym2612"
    },
    {
      "channel": 4,
      "note": 74,
      "start": 13.8477,
      "duration": 0.0462,
      "velocity": 90,
      "chip": "ym2612"
    },
    {
      "channel": 3,
      "note": 81,
      "start": 13.9137,
      "duration": 0.08,
      "velocity": 90,
      "chip": "ym2612"
    },
    {
      "channel": 4,
      "note": 77,
      "start": 13.9177,
      "duration": 0.0761,
      "velocity": 90,
      "chip": "ym2612"
    },
    {
      "channel": 3,
      "note": 86,
      "start": 14.0136,
      "duration": 0.0802,
      "velocity": 90,
      "chip": "ym2612"
    },
    {
      "channel": 0,
      "note": 50,
      "start": 14.0159,
      "duration": 0.0777,
      "velocity": 92,
      "chip": "ym2612"
    },
    {
      "channel": 4,
      "note": 81,
      "start": 14.0197,
      "duration": 0.0742,
      "velocity": 90,
      "chip": "ym2612"
    },
    {
      "channel": 3,
      "note": 81,
      "start": 14.1136,
      "duration": 0.0968,
      "velocity": 90,
      "chip": "ym2612"
    },
    {
      "channel": 4,
      "note": 77,
      "start": 14.1176,
      "duration": 0.0929,
      "velocity": 90,
      "chip": "ym2612"
    },
    {
      "channel": 3,
      "note": 77,
      "start": 14.2302,
      "duration": 0.0418,
      "velocity": 90,
      "chip": "ym2612"
    },
    {
      "channel": 0,
      "note": 50,
      "start": 14.2326,
      "duration": 0.0393,
      "velocity": 92,
      "chip": "ym2612"
    },
    {
      "channel": 4,
      "note": 74,
      "start": 14.2398,
      "duration": 0.0323,
      "velocity": 90,
      "chip": "ym2612"
    },
    {
      "channel": 3,
      "note": 81,
      "start": 14.2827,
      "duration": 0.0489,
      "velocity": 90,
      "chip": "ym2612"
    },
    {
      "channel": 4,
      "note": 77,
      "start": 14.2869,
      "duration": 0.0448,
      "velocity": 90,
      "chip": "ym2612"
    },
    {
      "channel": 3,
      "note": 86,
      "start": 14.3515,
      "duration": 0.0802,
      "velocity": 90,
      "chip": "ym2612"
    },
    {
      "channel": 0,
      "note": 50,
      "start": 14.3539,
      "duration": 0.0777,
      "velocity": 92,
      "chip": "ym2612"
    },
    {
      "channel": 4,
      "note": 81,
      "start": 14.3576,
      "duration": 0.0742,
      "velocity": 90,
      "chip": "ym2612"
    },
    {
      "channel": 3,
      "note": 81,
      "start": 14.4517,
      "duration": 0.08,
      "velocity": 90,
      "chip": "ym2612"
    },
    {
      "channel": 4,
      "note": 77,
      "start": 14.4557,
      "duration": 0.0761,
      "velocity": 90,
      "chip": "ym2612"
    },
    {
      "channel": 2,
      "note": 81,
      "start": 14.5518,
      "duration": 0.4996,
      "velocity": 106,
      "chip": "ym2612"
    },
    {
      "channel": 3,
      "note": 77,
      "start": 14.5545,
      "duration": 0.0469,
      "velocity": 90,
      "chip": "ym2612"
    },
    {
      "channel": 0,
      "note": 50,
      "start": 14.5568,
      "duration": 0.0445,
      "velocity": 92,
      "chip": "ym2612"
    },
    {
      "channel": 4,
      "note": 74,
      "start": 14.5656,
      "duration": 0.0359,
      "velocity": 90,
      "chip": "ym2612"
    },
    {
      "channel": 3,
      "note": 81,
      "start": 14.6112,
      "duration": 0.0354,
      "velocity": 90,
      "chip": "ym2612"
    },
    {
      "channel": 4,
      "note": 77,
      "start": 14.6144,
      "duration": 0.0322,
      "velocity": 90,
      "chip": "ym2612"
    },
    {
      "channel": 3,
      "note": 86,
      "start": 14.657,
      "duration": 0.0587,
      "velocity": 90,
      "chip": "ym2612"
    },
    {
      "channel": 0,
      "note": 50,
      "start": 14.6592,
      "duration": 0.0564,
      "velocity": 92,
      "chip": "ym2612"
    },
    {
      "channel": 4,
      "note": 81,
      "start": 14.6637,
      "duration": 0.0522,
      "velocity": 90,
      "chip": "ym2612"
    },
    {
      "channel": 3,
      "note": 81,
      "start": 14.7356,
      "duration": 0.08,
      "velocity": 90,
      "chip": "ym2612"
    },
    {
      "channel": 4,
      "note": 77,
      "start": 14.7397,
      "duration": 0.0761,
      "velocity": 90,
      "chip": "ym2612"
    },
    {
      "channel": 3,
      "note": 77,
      "start": 14.8356,
      "duration": 0.0404,
      "velocity": 90,
      "chip": "ym2612"
    },
    {
      "channel": 0,
      "note": 50,
      "start": 14.8379,
      "duration": 0.038,
      "velocity": 92,
      "chip": "ym2612"
    },
    {
      "channel": 4,
      "note": 74,
      "start": 14.8454,
      "duration": 0.0306,
      "velocity": 90,
      "chip": "ym2612"
    },
    {
      "channel": 3,
      "note": 81,
      "start": 14.8865,
      "duration": 0.0501,
      "velocity": 90,
      "chip": "ym2612"
    },
    {
      "channel": 4,
      "note": 77,
      "start": 14.891,
      "duration": 0.0456,
      "velocity": 90,
      "chip": "ym2612"
    },
    {
      "channel": 3,
      "note": 86,
      "start": 14.9567,
      "duration": 0.0408,
      "velocity": 90,
      "chip": "ym2612"
    },
    {
      "channel": 0,
      "note": 50,
      "start": 14.959,
      "duration": 0.0384,
      "velocity": 92,
      "chip": "ym2612"
    },
    {
      "channel": 4,
      "note": 81,
      "start": 14.966,
      "duration": 0.0315,
      "velocity": 90,
      "chip": "ym2612"
    },
    {
      "channel": 3,
      "note": 81,
      "start": 15.0083,
      "duration": 0.0429,
      "velocity": 90,
      "chip": "ym2612"
    },
    {
      "channel": 4,
      "note": 77,
      "start": 15.0126,
      "duration": 0.0388,
      "velocity": 90,
      "chip": "ym2612"
    },
    {
      "channel": 2,
      "note": 82,
      "start": 15.0626,
      "duration": 0.5774,
      "velocity": 106,
      "chip": "ym2612"
    },
    {
      "channel": 3,
      "note": 79,
      "start": 15.065,
      "duration": 0.0368,
      "velocity": 90,
      "chip": "ym2612"
    },
    {
      "channel": 0,
      "note": 50,
      "start": 15.0669,
      "duration": 0.0346,
      "velocity": 92,
      "chip": "ym2612"
    },
    {
      "channel": 4,
      "note": 76,
      "start": 15.0766,
      "duration": 0.0252,
      "velocity": 90,
      "chip": "ym2612"
    },
    {
      "channel": 3,
      "note": 82,
      "start": 15.1129,
      "duration": 0.0346,
      "velocity": 90,
      "chip": "ym2612"
    },
    {
      "channel": 4,
      "note": 79,
      "start": 15.116,
      "duration": 0.0316,
      "velocity": 90,
      "chip": "ym2612"
    },
    {
      "channel": 3,
      "note": 88,
      "start": 15.1583,
      "duration": 0.043,
      "velocity": 90,
      "chip": "ym2612"
    },
    {
      "channel": 0,
      "note": 50,
      "start": 15.1604,
      "duration": 0.0407,
      "velocity": 92,
      "chip": "ym2612"
    },
    {
      "channel": 4,
      "note": 82,
      "start": 15.1647,
      "duration": 0.0367,
      "velocity": 90,
      "chip": "ym2612"
    },
    {
      "channel": 3,
      "note": 82,
      "start": 15.2209,
      "duration": 0.08,
      "velocity": 90,
      "chip": "ym2612"
    },
    {
      "channel": 4,
      "note": 79,
      "start": 15.2249,
      "duration": 0.0761,
      "velocity": 90,
      "chip": "ym2612"
    },
    {
      "channel": 3,
      "note": 79,
      "start": 15.3208,
      "duration": 0.0485,
      "velocity": 90,
      "chip": "ym2612"
    },
    {
      "channel": 0,
      "note": 50,
      "start": 15.3232,
      "duration": 0.046,
      "velocity": 92,
      "chip": "ym2612"
    },
    {
      "channel": 4,
      "note": 76,
      "start": 15.3302,
      "duration": 0.0392,
      "velocity": 90,
      "chip": "ym2612"
    },
    {
      "channel": 3,
      "note": 82,
      "start": 15.381,
      "duration": 0.0422,
      "velocity": 90,
      "chip": "ym2612"
    },
    {
      "channel": 4,
      "note": 79,
      "start": 15.3843,
      "duration": 0.039,
      "velocity": 90,
      "chip": "ym2612"
    },
    {
      "channel": 3,
      "note": 88,
      "start": 15.4431,
      "duration": 0.0801,
      "velocity": 90,
      "chip": "ym2612"
    },
    {
      "channel": 0,
      "note": 50,
      "start": 15.4454,
      "duration": 0.0776,
      "velocity": 92,
      "chip": "ym2612"
    },
    {
      "channel": 4,
      "note": 82,
      "start": 15.4492,
      "duration": 0.0741,
      "velocity": 90,
      "chip": "ym2612"
    },
    {
      "channel": 3,
      "note": 82,
      "start": 15.5431,
      "duration": 0.0966,
      "velocity": 90,
      "chip": "ym2612"
    },
    {
      "channel": 4,
      "note": 79,
      "start": 15.5471,
      "duration": 0.0927,
      "velocity": 90,
      "chip": "ym2612"
    },
    {
      "channel": 2,
      "note": 79,
      "start": 15.6597,
      "duration": 0.4836,
      "velocity": 106,
      "chip": "ym2612"
    },
    {
      "channel": 3,
      "note": 79,
      "start": 15.6625,
      "duration": 0.0394,
      "velocity": 90,
      "chip": "ym2612"
    },
    {
      "channel": 0,
      "note": 50,
      "start": 15.6648,
      "duration": 0.037,
      "velocity": 92,
      "chip": "ym2612"
    },
    {
      "channel": 4,
      "note": 76,
      "start": 15.6737,
      "duration": 0.0282,
      "velocity": 90,
      "chip": "ym2612"
    },
    {
      "channel": 3,
      "note": 82,
      "start": 15.7131,
      "duration": 0.0446,
      "velocity": 90,
      "chip": "ym2612"
    },
    {
      "channel": 4,
      "note": 79,
      "start": 15.7166,
      "duration": 0.0412,
      "velocity": 90,
      "chip": "ym2612"
    },
    {
      "channel": 3,
      "note": 88,
      "start": 15.7675,
      "duration": 0.0417,
      "velocity": 90,
      "chip": "ym2612"
    },
    {
      "channel": 0,
      "note": 50,
      "start": 15.7698,
      "duration": 0.0391,
      "velocity": 92,
      "chip": "ym2612"
    },
    {
      "channel": 4,
      "note": 82,
      "start": 15.7747,
      "duration": 0.0346,
      "velocity": 90,
      "chip": "ym2612"
    },
    {
      "channel": 3,
      "note": 82,
      "start": 15.8289,
      "duration": 0.0802,
      "velocity": 90,
      "chip": "ym2612"
    },
    {
      "channel": 4,
      "note": 79,
      "start": 15.8329,
      "duration": 0.0763,
      "velocity": 90,
      "chip": "ym2612"
    },
    {
      "channel": 3,
      "note": 79,
      "start": 15.929,
      "duration": 0.0474,
      "velocity": 90,
      "chip": "ym2612"
    },
    {
      "channel": 0,
      "note": 50,
      "start": 15.9314,
      "duration": 0.045,
      "velocity": 92,
      "chip": "ym2612"
    },
    {
      "channel": 4,
      "note": 76,
      "start": 15.9386,
      "duration": 0.0379,
      "velocity": 90,
      "chip": "ym2612"
    },
    {
      "channel": 3,
      "note": 82,
      "start": 15.9876,
      "duration": 0.0416,
      "velocity": 90,
      "chip": "ym2612"
    },
    {
      "channel": 4,
      "note": 79,
      "start": 15.9909,
      "duration": 0.0384,
      "velocity": 90,
      "chip": "ym2612"
    },
    {
      "channel": 3,
      "note": 88,
      "start": 16.0491,
      "duration": 0.0486,
      "velocity": 90,
      "chip": "ym2612"
    },
    {
      "channel": 0,
      "note": 50,
      "start": 16.0514,
      "duration": 0.0462,
      "velocity": 92,
      "chip": "ym2612"
    },
    {
      "channel": 4,
      "note": 82,
      "start": 16.0584,
      "duration": 0.0393,
      "velocity": 90,
      "chip": "ym2612"
    },
    {
      "channel": 3,
      "note": 82,
      "start": 16.109,
      "duration": 0.0342,
      "velocity": 90,
      "chip": "ym2612"
    },
    {
      "channel": 4,
      "note": 79,
      "start": 16.1123,
      "duration": 0.031,
      "velocity": 90,
      "chip": "ym2612"
    },
    {
      "channel": 2,
      "note": 81,
      "start": 16.1549,
      "duration": 0.5772,
      "velocity": 106,
      "chip": "ym2612"
    },
    {
      "channel": 3,
      "note": 79,
      "start": 16.1573,
      "duration": 0.0369,
      "velocity": 90,
      "chip": "ym2612"
    },
    {
      "channel": 0,
      "note": 50,
      "start": 16.1595,
      "duration": 0.0345,
      "velocity": 92,
      "chip": "ym2612"
    },
    {
      "channel": 4,
      "note": 73,
      "start": 16.1695,
      "duration": 0.0248,
      "velocity": 90,
      "chip": "ym2612"
    },
    {
      "channel": 3,
      "note": 85,
      "start": 16.205,
      "duration": 0.0426,
      "velocity": 90,
      "chip": "ym2612"
    },
    {
      "channel": 4,
      "note": 76,
      "start": 16.2083,
      "duration": 0.0394,
      "velocity": 90,
      "chip": "ym2612"
    },
    {
      "channel": 3,
      "note": 88,
      "start": 16.2576,
      "duration": 0.0371,
      "velocity": 90,
      "chip": "ym2612"
    },
    {
      "channel": 0,
      "note": 50,
      "start": 16.26,
      "duration": 0.0346,
      "velocity": 92,
      "chip": "ym2612"
    },
    {
      "channel": 4,
      "note": 79,
      "start": 16.2643,
      "duration": 0.0305,
      "velocity": 90,
      "chip": "ym2612"
    },
    {
      "channel": 3,
      "note": 85,
      "start": 16.3142,
      "duration": 0.0966,
      "velocity": 90,
      "chip": "ym2612"
    },
    {
      "channel": 4,
      "note": 76,
      "start": 16.3182,
      "duration": 0.0927,
      "velocity": 90,
      "chip": "ym2612"
    },
    {
      "channel": 3,
      "note": 79,
      "start": 16.4307,
      "duration": 0.0403,
      "velocity": 90,
      "chip": "ym2612"
    },
    {
      "channel": 0,
      "note": 50,
      "start": 16.4331,
      "duration": 0.0378,
      "velocity": 92,
      "chip": "ym2612"
    },
    {
      "channel": 4,
      "note": 73,
      "start": 16.4401,
      "duration": 0.031,
      "velocity": 90,
      "chip": "ym2612"
    },
    {
      "channel": 3,
      "note": 85,
      "start": 16.4816,
      "duration": 0.036,
      "velocity": 90,
      "chip": "ym2612"
    },
    {
      "channel": 4,
      "note": 76,
      "start": 16.4859,
      "duration": 0.0317,
      "velocity": 90,
      "chip": "ym2612"
    },
    {
      "channel": 3,
      "note": 88,
      "start": 16.535,
      "duration": 0.0969,
      "velocity": 90,
      "chip": "ym2612"
    },
    {
      "channel": 0,
      "note": 50,
      "start": 16.5373,
      "duration": 0.0944,
      "velocity": 92,
      "chip": "ym2612"
    },
    {
      "channel": 4,
      "note": 79,
      "start": 16.5411,
      "duration": 0.0909,
      "velocity": 90,
      "chip": "ym2612"
    },
    {
      "channel": 3,
      "note": 85,
      "start": 16.6517,
      "duration": 0.08,
      "velocity": 90,
      "chip": "ym2612"
    },
    {
      "channel": 4,
      "note": 76,
      "start": 16.6557,
      "duration": 0.0761,
      "velocity": 90,
      "chip": "ym2612"
    },
    {
      "channel": 2,
      "note": 69,
      "start": 16.7517,
      "duration": 0.4956,
      "velocity": 106,
      "chip": "ym2612"
    },
    {
      "channel": 3,
      "note": 79,
      "start": 16.7544,
      "duration": 0.0468,
      "velocity": 90,
      "chip": "ym2612"
    },
    {
      "channel": 0,
      "note": 50,
      "start": 16.7568,
      "duration": 0.0444,
      "velocity": 92,
      "chip": "ym2612"
    },
    {
      "channel": 4,
      "note": 73,
      "start": 16.7655,
      "duration": 0.0358,
      "velocity": 90,
      "chip": "ym2612"
    },
    {
      "channel": 3,
      "note": 85,
      "start": 16.8111,
      "duration": 0.0364,
      "velocity": 90,
      "chip": "ym2612"
    },
    {
      "channel": 4,
      "note": 76,
      "start": 16.8154,
      "duration": 0.0322,
      "velocity": 90,
      "chip": "ym2612"
    },
    {
      "channel": 3,
      "note": 88,
      "start": 16.8573,
      "duration": 0.0432,
      "velocity": 90,
      "chip": "ym2612"
    },
    {
      "channel": 0,
      "note": 50,
      "start": 16.8597,
      "duration": 0.0407,
      "velocity": 92,
      "chip": "ym2612"
    },
    {
      "channel": 4,
      "note": 79,
      "start": 16.8643,
      "duration": 0.0363,
      "velocity": 90,
      "chip": "ym2612"
    },
    {
      "channel": 3,
      "note": 85,
      "start": 16.9205,
      "duration": 0.0968,
      "velocity": 90,
      "chip": "ym2612"
    },
    {
      "channel": 4,
      "note": 76,
      "start": 16.9245,
      "duration": 0.0929,
      "velocity": 90,
      "chip": "ym2612"
    },
    {
      "channel": 3,
      "note": 79,
      "start": 17.0371,
      "duration": 0.0403,
      "velocity": 90,
      "chip": "ym2612"
    },
    {
      "channel": 0,
      "note": 50,
      "start": 17.0395,
      "duration": 0.0379,
      "velocity": 92,
      "chip": "ym2612"
    },
    {
      "channel": 4,
      "note": 73,
      "start": 17.0467,
      "duration": 0.0308,
      "velocity": 90,
      "chip": "ym2612"
    },
    {
      "channel": 3,
      "note": 85,
      "start": 17.0879,
      "duration": 0.052,
      "velocity": 90,
      "chip": "ym2612"
    },
    {
      "channel": 4,
      "note": 76,
      "start": 17.0924,
      "duration": 0.0477,
      "velocity": 90,
      "chip": "ym2612"
    },
    {
      "channel": 3,
      "note": 88,
      "start": 17.1599,
      "duration": 0.0405,
      "velocity": 90,
      "chip": "ym2612"
    },
    {
      "channel": 0,
      "note": 50,
      "start": 17.1622,
      "duration": 0.038,
      "velocity": 92,
      "chip": "ym2612"
    },
    {
      "channel": 4,
      "note": 79,
      "start": 17.1696,
      "duration": 0.0309,
      "velocity": 90,
      "chip": "ym2612"
    },
    {
      "channel": 3,
      "note": 85,
      "start": 17.211,
      "duration": 0.0361,
      "velocity": 90,
      "chip": "ym2612"
    },
    {
      "channel": 4,
      "note": 76,
      "start": 17.2142,
      "duration": 0.0329,
      "velocity": 90,
      "chip": "ym2612"
    },
    {
      "channel": 2,
      "note": 74,
      "start": 17.2579,
      "duration": 0.9326,
      "velocity": 106,
      "chip": "ym2612"
    },
    {
      "channel": 3,
      "note": 81,
      "start": 17.2603,
      "duration": 0.0445,
      "velocity": 90,
      "chip": "ym2612"
    },
    {
      "channel": 0,
      "note": 50,
      "start": 17.2637,
      "duration": 0.0409,
      "velocity": 92,
      "chip": "ym2612"
    },
    {
      "channel": 4,
      "note": 74,
      "start": 17.2722,
      "duration": 0.0327,
      "velocity": 90,
      "chip": "ym2612"
    },
    {
      "channel": 3,
      "note": 86,
      "start": 17.3148,
      "duration": 0.0365,
      "velocity": 90,
      "chip": "ym2612"
    },
    {
      "channel": 4,
      "note": 77,
      "start": 17.319,
      "duration": 0.0324,
      "velocity": 90,
      "chip": "ym2612"
    },
    {
      "channel": 3,
      "note": 89,
      "start": 17.3611,
      "duration": 0.0523,
      "velocity": 90,
      "chip": "ym2612"
    },
    {
      "channel": 0,
      "note": 50,
      "start": 17.3631,
      "duration": 0.0502,
      "velocity": 92,
      "chip": "ym2612"
    },
    {
      "channel": 4,
      "note": 81,
      "start": 17.3676,
      "duration": 0.046,
      "velocity": 90,
      "chip": "ym2612"
    },
    {
      "channel": 3,
      "note": 86,
      "start": 17.4333,
      "duration": 0.0802,
      "velocity": 90,
      "chip": "ym2612"
    },
    {
      "channel": 4,
      "note": 77,
      "start": 17.4373,
      "duration": 0.0763,
      "velocity": 90,
      "chip": "ym2612"
    },
    {
      "channel": 3,
      "note": 81,
      "start": 17.5334,
      "duration": 0.0407,
      "velocity": 90,
      "chip": "ym2612"
    },
    {
      "channel": 0,
      "note": 50,
      "start": 17.5357,
      "duration": 0.0383,
      "velocity": 92,
      "chip": "ym2612"
    },
    {
      "channel": 4,
      "note": 74,
      "start": 17.5427,
      "duration": 0.0315,
      "velocity": 90,
      "chip": "ym2612"
    },
    {
      "channel": 3,
      "note": 86,
      "start": 17.585,
      "duration": 0.0497,
      "velocity": 90,
      "chip": "ym2612"
    },
    {
      "channel": 4,
      "note": 77,
      "start": 17.5893,
      "duration": 0.0456,
      "velocity": 90,
      "chip": "ym2612"
    },
    {
      "channel": 3,
      "note": 89,
      "start": 17.6547,
      "duration": 0.0801,
      "velocity": 90,
      "chip": "ym2612"
    },
    {
      "channel": 0,
      "note": 50,
      "start": 17.657,
      "duration": 0.0776,
      "velocity": 92,
      "chip": "ym2612"
    },
    {
      "channel": 4,
      "note": 81,
      "start": 17.6608,
      "duration": 0.0741,
      "velocity": 90,
      "chip": "ym2612"
    },
    {
      "channel": 3,
      "note": 86,
      "start": 17.7546,
      "duration": 0.0966,
      "velocity": 90,
      "chip": "ym2612"
    },
    {
      "channel": 4,
      "note": 77,
      "start": 17.7586,
      "duration": 0.0927,
      "velocity": 90,
      "chip": "ym2612"
    },
    {
      "channel": 3,
      "note": 81,
      "start": 17.8713,
      "duration": 0.0408,
      "velocity": 90,
      "chip": "ym2612"
    },
    {
      "channel": 0,
      "note": 50,
      "start": 17.8736,
      "duration": 0.0384,
      "velocity": 92,
      "chip": "ym2612"
    },
    {
      "channel": 4,
      "note": 74,
      "start": 17.8806,
      "duration": 0.0315,
      "velocity": 90,
      "chip": "ym2612"
    },
    {
      "channel": 3,
      "note": 86,
      "start": 17.9227,
      "duration": 0.0376,
      "velocity": 90,
      "chip": "ym2612"
    },
    {
      "channel": 4,
      "note": 77,
      "start": 17.9272,
      "duration": 0.0332,
      "velocity": 90,
      "chip": "ym2612"
    },
    {
      "channel": 3,
      "note": 89,
      "start": 17.9697,
      "duration": 0.0527,
      "velocity": 90,
      "chip": "ym2612"
    },
    {
      "channel": 0,
      "note": 50,
      "start": 17.9723,
      "duration": 0.05,
      "velocity": 92,
      "chip": "ym2612"
    },
    {
      "channel": 4,
      "note": 81,
      "start": 17.9771,
      "duration": 0.0455,
      "velocity": 90,
      "chip": "ym2612"
    },
    {
      "channel": 3,
      "note": 86,
      "start": 18.0423,
      "duration": 0.0801,
      "velocity": 90,
      "chip": "ym2612"
    },
    {
      "channel": 4,
      "note": 77,
      "start": 18.0463,
      "duration": 0.0762,
      "velocity": 90,
      "chip": "ym2612"
    },
    {
      "channel": 3,
      "note": 81,
      "start": 18.1423,
      "duration": 0.048,
      "velocity": 90,
      "chip": "ym2612"
    },
    {
      "channel": 0,
      "note": 50,
      "start": 18.1446,
      "duration": 0.0456,
      "velocity": 92,
      "chip": "ym2612"
    },
    {
      "channel": 4,
      "note": 74,
      "start": 18.1518,
      "duration": 0.0386,
      "velocity": 90,
      "chip": "ym2612"
    },
    {
      "channel": 3,
      "note": 86,
      "start": 18.202,
      "duration": 0.0422,
      "velocity": 90,
      "chip": "ym2612"
    },
    {
      "channel": 4,
      "note": 77,
      "start": 18.2053,
      "duration": 0.0391,
      "velocity": 90,
      "chip": "ym2612"
    },
    {
      "channel": 0,
      "note": 69,
      "start": 18.2641,
      "duration": 0.0469,
      "velocity": 106,
      "chip": "ym2612"
    },
    {
      "channel": 2,
      "note": 74,
      "start": 18.2673,
      "duration": 0.0364,
      "velocity": 106,
      "chip": "ym2612"
    },
    {
      "channel": 1,
      "note": 50,
      "start": 18.2708,
      "duration": 0.0403,
      "velocity": 106,
      "chip": "ym2612"
    },
    {
      "channel": 3,
      "note": 89,
      "start": 18.2732,
      "duration": 0.0379,
      "velocity": 90,
      "chip": "ym2612"
    },
    {
      "channel": 5,
      "note": 50,
      "start": 18.2758,
      "duration": 0.0045,
      "velocity": 92,
      "chip": "ym2612"
    },
    {
      "channel": 4,
      "note": 81,
      "start": 18.2858,
      "duration": 0.0254,
      "velocity": 90,
      "chip": "ym2612"
    },
    {
      "channel": 0,
      "note": 69,
      "start": 18.3207,
      "duration": 0.0467,
      "velocity": 106,
      "chip": "ym2612"
    },
    {
      "channel": 2,
      "note": 74,
      "start": 18.3232,
      "duration": 0.0372,
      "velocity": 106,
      "chip": "ym2612"
    },
    {
      "channel": 1,
      "note": 50,
      "start": 18.3257,
      "duration": 0.0418,
      "velocity": 106,
      "chip": "ym2612"
    },
    {
      "channel": 3,
      "note": 86,
      "start": 18.3288,
      "duration": 0.0388,
      "velocity": 90,
      "chip": "ym2612"
    },
    {
      "channel": 4,
      "note": 77,
      "start": 18.3336,
      "duration": 0.034,
      "velocity": 90,
      "chip": "ym2612"
    },
    {
      "channel": 0,
      "note": 69,
      "start": 18.378,
      "duration": 2.0197,
      "velocity": 106,
      "chip": "ym2612"
    },
    {
      "channel": 2,
      "note": 74,
      "start": 18.381,
      "duration": 2.0101,
      "velocity": 106,
      "chip": "ym2612"
    },
    {
      "channel": 1,
      "note": 48,
      "start": 18.3849,
      "duration": 0.9581,
      "velocity": 106,
      "chip": "ym2612"
    },
    {
      "channel": 3,
      "note": 81,
      "start": 18.3873,
      "duration": 0.0314,
      "velocity": 90,
      "chip": "ym2612"
    },
    {
      "channel": 4,
      "note": 48,
      "start": 18.3897,
      "duration": 0.0085,
      "velocity": 92,
      "chip": "ym2612"
    },
    {
      "channel": 4,
      "note": 74,
      "start": 18.4001,
      "duration": 0.0187,
      "velocity": 90,
      "chip": "ym2612"
    },
    {
      "channel": 3,
      "note": 86,
      "start": 18.4301,
      "duration": 0.0422,
      "velocity": 90,
      "chip": "ym2612"
    },
    {
      "channel": 4,
      "note": 77,
      "start": 18.4329,
      "duration": 0.0395,
      "velocity": 90,
      "chip": "ym2612"
    },
    {
      "channel": 3,
      "note": 89,
      "start": 18.482,
      "duration": 0.0366,
      "velocity": 90,
      "chip": "ym2612"
    },
    {
      "channel": 4,
      "note": 48,
      "start": 18.4843,
      "duration": 0.002,
      "velocity": 92,
      "chip": "ym2612"
    },
    {
      "channel": 4,
      "note": 81,
      "start": 18.4885,
      "duration": 0.0301,
      "velocity": 90,
      "chip": "ym2612"
    },
    {
      "channel": 3,
      "note": 86,
      "start": 18.5316,
      "duration": 0.0801,
      "velocity": 90,
      "chip": "ym2612"
    },
    {
      "channel": 4,
      "note": 77,
      "start": 18.5346,
      "duration": 0.0772,
      "velocity": 90,
      "chip": "ym2612"
    },
    {
      "channel": 3,
      "note": 81,
      "start": 18.6316,
      "duration": 0.0466,
      "velocity": 90,
      "chip": "ym2612"
    },
    {
      "channel": 5,
      "note": 48,
      "start": 18.6342,
      "duration": 0.0007,
      "velocity": 92,
      "chip": "ym2612"
    },
    {
      "channel": 4,
      "note": 74,
      "start": 18.6403,
      "duration": 0.0379,
      "velocity": 90,
      "chip": "ym2612"
    },
    {
      "channel": 3,
      "note": 86,
      "start": 18.69,
      "duration": 0.043,
      "velocity": 90,
      "chip": "ym2612"
    },
    {
      "channel": 4,
      "note": 77,
      "start": 18.6927,
      "duration": 0.0404,
      "velocity": 90,
      "chip": "ym2612"
    },
    {
      "channel": 3,
      "note": 89,
      "start": 18.7529,
      "duration": 0.0968,
      "velocity": 90,
      "chip": "ym2612"
    },
    {
      "channel": 5,
      "note": 48,
      "start": 18.7555,
      "duration": 0.0944,
      "velocity": 92,
      "chip": "ym2612"
    },
    {
      "channel": 4,
      "note": 81,
      "start": 18.7584,
      "duration": 0.0913,
      "velocity": 90,
      "chip": "ym2612"
    },
    {
      "channel": 3,
      "note": 86,
      "start": 18.8695,
      "duration": 0.0801,
      "velocity": 90,
      "chip": "ym2612"
    },
    {
      "channel": 4,
      "note": 77,
      "start": 18.8724,
      "duration": 0.0772,
      "velocity": 90,
      "chip": "ym2612"
    },
    {
      "channel": 3,
      "note": 81,
      "start": 18.9695,
      "duration": 0.042,
      "velocity": 90,
      "chip": "ym2612"
    },
    {
      "channel": 5,
      "note": 48,
      "start": 18.972,
      "duration": 0.0008,
      "velocity": 92,
      "chip": "ym2612"
    },
    {
      "channel": 4,
      "note": 74,
      "start": 18.9783,
      "duration": 0.0333,
      "velocity": 90,
      "chip": "ym2612"
    },
    {
      "channel": 3,
      "note": 86,
      "start": 19.0212,
      "duration": 0.0429,
      "velocity": 90,
      "chip": "ym2612"
    },
    {
      "channel": 4,
      "note": 77,
      "start": 19.0241,
      "duration": 0.04,
      "velocity": 90,
      "chip": "ym2612"
    },
    {
      "channel": 3,
      "note": 89,
      "start": 19.0759,
      "duration": 0.0437,
      "velocity": 90,
      "chip": "ym2612"
    },
    {
      "channel": 4,
      "note": 48,
      "start": 19.0785,
      "duration": 0.001,
      "velocity": 92,
      "chip": "ym2612"
    },
    {
      "channel": 4,
      "note": 81,
      "start": 19.0815,
      "duration": 0.0384,
      "velocity": 90,
      "chip": "ym2612"
    },
    {
      "channel": 3,
      "note": 86,
      "start": 19.1397,
      "duration": 0.0968,
      "velocity": 90,
      "chip": "ym2612"
    },
    {
      "channel": 4,
      "note": 77,
      "start": 19.1427,
      "duration": 0.0938,
      "velocity": 90,
      "chip": "ym2612"
    },
    {
      "channel": 3,
      "note": 81,
      "start": 19.2564,
      "duration": 0.0413,
      "velocity": 90,
      "chip": "ym2612"
    },
    {
      "channel": 5,
      "note": 48,
      "start": 19.259,
      "duration": 0.001,
      "velocity": 92,
      "chip": "ym2612"
    },
    {
      "channel": 4,
      "note": 74,
      "start": 19.2653,
      "duration": 0.0324,
      "velocity": 90,
      "chip": "ym2612"
    },
    {
      "channel": 3,
      "note": 86,
      "start": 19.307,
      "duration": 0.0361,
      "velocity": 90,
      "chip": "ym2612"
    },
    {
      "channel": 4,
      "note": 77,
      "start": 19.31,
      "duration": 0.0333,
      "velocity": 90,
      "chip": "ym2612"
    },
    {
      "channel": 1,
      "note": 48,
      "start": 19.3619,
      "duration": 0.0507,
      "velocity": 106,
      "chip": "ym2612"
    },
    {
      "channel": 3,
      "note": 89,
      "start": 19.3643,
      "duration": 0.0484,
      "velocity": 90,
      "chip": "ym2612"
    },
    {
      "channel": 5,
      "note": 48,
      "start": 19.3669,
      "duration": 0.0036,
      "velocity": 92,
      "chip": "ym2612"
    },
    {
      "channel": 4,
      "note": 81,
      "start": 19.376,
      "duration": 0.0367,
      "velocity": 90,
      "chip": "ym2612"
    },
    {
      "channel": 1,
      "note": 48,
      "start": 19.4231,
      "duration": 0.0364,
      "velocity": 106,
      "chip": "ym2612"
    },
    {
      "channel": 3,
      "note": 86,
      "start": 19.4253,
      "duration": 0.0343,
      "velocity": 90,
      "chip": "ym2612"
    },
    {
      "channel": 4,
      "note": 77,
      "start": 19.4302,
      "duration": 0.0295,
      "velocity": 90,
      "chip": "ym2612"
    },
    {
      "channel": 1,
      "note": 46,
      "start": 19.4705,
      "duration": 0.9821,
      "velocity": 106,
      "chip": "ym2612"
    },
    {
      "channel": 3,
      "note": 81,
      "start": 19.4727,
      "duration": 0.0445,
      "velocity": 90,
      "chip": "ym2612"
    },
    {
      "channel": 4,
      "note": 46,
      "start": 19.4753,
      "duration": 0.0106,
      "velocity": 92,
      "chip": "ym2612"
    },
    {
      "channel": 4,
      "note": 74,
      "start": 19.4879,
      "duration": 0.0294,
      "velocity": 90,
      "chip": "ym2612"
    },
    {
      "channel": 3,
      "note": 86,
      "start": 19.5281,
      "duration": 0.0345,
      "velocity": 90,
      "chip": "ym2612"
    },
    {
      "channel": 4,
      "note": 77,
      "start": 19.5321,
      "duration": 0.0307,
      "velocity": 90,
      "chip": "ym2612"
    },
    {
      "channel": 3,
      "note": 89,
      "start": 19.5744,
      "duration": 0.0348,
      "velocity": 90,
      "chip": "ym2612"
    },
    {
      "channel": 4,
      "note": 46,
      "start": 19.5766,
      "duration": 0.001,
      "velocity": 92,
      "chip": "ym2612"
    },
    {
      "channel": 4,
      "note": 81,
      "start": 19.5797,
      "duration": 0.0295,
      "velocity": 90,
      "chip": "ym2612"
    },
    {
      "channel": 3,
      "note": 86,
      "start": 19.6255,
      "duration": 0.0967,
      "velocity": 90,
      "chip": "ym2612"
    },
    {
      "channel": 4,
      "note": 77,
      "start": 19.6285,
      "duration": 0.0938,
      "velocity": 90,
      "chip": "ym2612"
    },
    {
      "channel": 3,
      "note": 81,
      "start": 19.7421,
      "duration": 0.0419,
      "velocity": 90,
      "chip": "ym2612"
    },
    {
      "channel": 5,
      "note": 46,
      "start": 19.7448,
      "duration": 0.0007,
      "velocity": 92,
      "chip": "ym2612"
    },
    {
      "channel": 4,
      "note": 74,
      "start": 19.7509,
      "duration": 0.0332,
      "velocity": 90,
      "chip": "ym2612"
    },
    {
      "channel": 3,
      "note": 86,
      "start": 19.7931,
      "duration": 0.0511,
      "velocity": 90,
      "chip": "ym2612"
    },
    {
      "channel": 4,
      "note": 77,
      "start": 19.796,
      "duration": 0.0483,
      "velocity": 90,
      "chip": "ym2612"
    },
    {
      "channel": 3,
      "note": 89,
      "start": 19.8641,
      "duration": 0.0801,
      "velocity": 90,
      "chip": "ym2612"
    },
    {
      "channel": 5,
      "note": 46,
      "start": 19.8667,
      "duration": 0.0777,
      "velocity": 92,
      "chip": "ym2612"
    },
    {
      "channel": 4,
      "note": 81,
      "start": 19.8697,
      "duration": 0.0746,
      "velocity": 90,
      "chip": "ym2612"
    },
    {
      "channel": 3,
      "note": 86,
      "start": 19.9641,
      "duration": 0.08,
      "velocity": 90,
      "chip": "ym2612"
    },
    {
      "channel": 4,
      "note": 77,
      "start": 19.9671,
      "duration": 0.0772,
      "velocity": 90,
      "chip": "ym2612"
    },
    {
      "channel": 3,
      "note": 81,
      "start": 20.064,
      "duration": 0.0477,
      "velocity": 90,
      "chip": "ym2612"
    },
    {
      "channel": 5,
      "note": 46,
      "start": 20.0665,
      "duration": 0.0008,
      "velocity": 92,
      "chip": "ym2612"
    },
    {
      "channel": 4,
      "note": 74,
      "start": 20.0729,
      "duration": 0.0389,
      "velocity": 90,
      "chip": "ym2612"
    },
    {
      "channel": 3,
      "note": 86,
      "start": 20.1229,
      "duration": 0.035,
      "velocity": 90,
      "chip": "ym2612"
    },
    {
      "channel": 4,
      "note": 77,
      "start": 20.1256,
      "duration": 0.0324,
      "velocity": 90,
      "chip": "ym2612"
    },
    {
      "channel": 3,
      "note": 89,
      "start": 20.1696,
      "duration": 0.0596,
      "velocity": 90,
      "chip": "ym2612"
    },
    {
      "channel": 4,
      "note": 46,
      "start": 20.1725,
      "duration": 0.0014,
      "velocity": 92,
      "chip": "ym2612"
    },
    {
      "channel": 4,
      "note": 81,
      "start": 20.1757,
      "duration": 0.0536,
      "velocity": 90,
      "chip": "ym2612"
    },
    {
      "channel": 3,
      "note": 86,
      "start": 20.2491,
      "duration": 0.0801,
      "velocity": 90,
      "chip": "ym2612"
    },
    {
      "channel": 4,
      "note": 77,
      "start": 20.2521,
      "duration": 0.0772,
      "velocity": 90,
      "chip": "ym2612"
    },
    {
      "channel": 3,
      "note": 81,
      "start": 20.3491,
      "duration": 0.0417,
      "velocity": 90,
      "chip": "ym2612"
    },
    {
      "channel": 5,
      "note": 46,
      "start": 20.3517,
      "duration": 0.001,
      "velocity": 92,
      "chip": "ym2612"
    },
    {
      "channel": 4,
      "note": 74,
      "start": 20.358,
      "duration": 0.0329,
      "velocity": 90,
      "chip": "ym2612"
    },
    {
      "channel": 3,
      "note": 86,
      "start": 20.4009,
      "duration": 0.0518,
      "velocity": 90,
      "chip": "ym2612"
    },
    {
      "channel": 4,
      "note": 77,
      "start": 20.4038,
      "duration": 0.049,
      "velocity": 90,
      "chip": "ym2612"
    },
    {
      "channel": 0,
      "note": 69,
      "start": 20.4724,
      "duration": 0.0404,
      "velocity": 106,
      "chip": "ym2612"
    },
    {
      "channel": 2,
      "note": 74,
      "start": 20.4756,
      "duration": 0.0374,
      "velocity": 106,
      "chip": "ym2612"
    },
    {
      "channel": 1,
      "note": 46,
      "start": 20.4786,
      "duration": 0.0416,
      "velocity": 106,
      "chip": "ym2612"
    },
    {
      "channel": 3,
      "note": 89,
      "start": 20.4811,
      "duration": 0.0392,
      "velocity": 90,
      "chip": "ym2612"
    },
    {
      "channel": 5,
      "note": 46,
      "start": 20.4837,
      "duration": 0.0054,
      "velocity": 92,
      "chip": "ym2612"
    },
    {
      "channel": 4,
      "note": 81,
      "start": 20.4944,
      "duration": 0.0259,
      "velocity": 90,
      "chip": "ym2612"
    },
    {
      "channel": 0,
      "note": 69,
      "start": 20.5302,
      "duration": 0.0391,
      "velocity": 106,
      "chip": "ym2612"
    },
    {
      "channel": 2,
      "note": 74,
      "start": 20.5332,
      "duration": 0.0363,
      "velocity": 106,
      "chip": "ym2612"
    },
    {
      "channel": 1,
      "note": 46,
      "start": 20.5357,
      "duration": 0.0412,
      "velocity": 106,
      "chip": "ym2612"
    },
    {
      "channel": 3,
      "note": 86,
      "start": 20.5391,
      "duration": 0.0378,
      "velocity": 90,
      "chip": "ym2612"
    },
    {
      "channel": 4,
      "note": 77,
      "start": 20.5443,
      "duration": 0.0327,
      "velocity": 90,
      "chip": "ym2612"
    },
    {
      "channel": 0,
      "note": 69,
      "start": 20.5877,
      "duration": 0.9213,
      "velocity": 106,
      "chip": "ym2612"
    },
    {
      "channel": 2,
      "note": 73,
      "start": 20.5907,
      "duration": 0.9338,
      "velocity": 106,
      "chip": "ym2612"
    },
    {
      "channel": 1,
      "note": 45,
      "start": 20.5949,
      "duration": 0.9527,
      "velocity": 106,
      "chip": "ym2612"
    },
    {
      "channel": 3,
      "note": 81,
      "start": 20.5972,
      "duration": 0.0341,
      "velocity": 90,
      "chip": "ym2612"
    },
    {
      "channel": 4,
      "note": 45,
      "start": 20.5996,
      "duration": 0.0114,
      "velocity": 92,
      "chip": "ym2612"
    },
    {
      "channel": 4,
      "note": 73,
      "start": 20.613,
      "duration": 0.0184,
      "velocity": 90,
      "chip": "ym2612"
    },
    {
      "channel": 3,
      "note": 85,
      "start": 20.6393,
      "duration": 0.0361,
      "velocity": 90,
      "chip": "ym2612"
    },
    {
      "channel": 4,
      "note": 76,
      "start": 20.6433,
      "duration": 0.0322,
      "velocity": 90,
      "chip": "ym2612"
    },
    {
      "channel": 3,
      "note": 88,
      "start": 20.6848,
      "duration": 0.0436,
      "velocity": 90,
      "chip": "ym2612"
    },
    {
      "channel": 4,
      "note": 45,
      "start": 20.6871,
      "duration": 0.0021,
      "velocity": 92,
      "chip": "ym2612"
    },
    {
      "channel": 4,
      "note": 81,
      "start": 20.6912,
      "duration": 0.0373,
      "velocity": 90,
      "chip": "ym2612"
    },
    {
      "channel": 3,
      "note": 85,
      "start": 20.739,
      "duration": 0.0783,
      "velocity": 90,
      "chip": "ym2612"
    },
    {
      "channel": 4,
      "note": 76,
      "start": 20.7421,
      "duration": 0.0753,
      "velocity": 90,
      "chip": "ym2612"
    },
    {
      "channel": 3,
      "note": 81,
      "start": 20.8371,
      "duration": 0.0468,
      "velocity": 90,
      "chip": "ym2612"
    },
    {
      "channel": 5,
      "note": 45,
      "start": 20.8397,
      "duration": 0.0008,
      "velocity": 92,
      "chip": "ym2612"
    },
    {
      "channel": 4,
      "note": 73,
      "start": 20.8461,
      "duration": 0.0379,
      "velocity": 90,
      "chip": "ym2612"
    },
    {
      "channel": 3,
      "note": 85,
      "start": 20.8954,
      "duration": 0.0434,
      "velocity": 90,
      "chip": "ym2612"
    },
    {
      "channel": 4,
      "note": 76,
      "start": 20.8982,
      "duration": 0.0407,
      "velocity": 90,
      "chip": "ym2612"
    },
    {
      "channel": 3,
      "note": 88,
      "start": 20.9588,
      "duration": 0.08,
      "velocity": 90,
      "chip": "ym2612"
    },
    {
      "channel": 5,
      "note": 45,
      "start": 20.9614,
      "duration": 0.0777,
      "velocity": 92,
      "chip": "ym2612"
    },
    {
      "channel": 4,
      "note": 81,
      "start": 20.9644,
      "duration": 0.0746,
      "velocity": 90,
      "chip": "ym2612"
    },
    {
      "channel": 3,
      "note": 85,
      "start": 21.0587,
      "duration": 0.0967,
      "velocity": 90,
      "chip": "ym2612"
    },
    {
      "channel": 4,
      "note": 76,
      "start": 21.0617,
      "duration": 0.0938,
      "velocity": 90,
      "chip": "ym2612"
    },
    {
      "channel": 3,
      "note": 81,
      "start": 21.1753,
      "duration": 0.0416,
      "velocity": 90,
      "chip": "ym2612"
    },
    {
      "channel": 5,
      "note": 45,
      "start": 21.1778,
      "duration": 0.0008,
      "velocity": 92,
      "chip": "ym2612"
    },
    {
      "channel": 4,
      "note": 73,
      "start": 21.1841,
      "duration": 0.0329,
      "velocity": 90,
      "chip": "ym2612"
    },
    {
      "channel": 3,
      "note": 85,
      "start": 21.2261,
      "duration": 0.0434,
      "velocity": 90,
      "chip": "ym2612"
    },
    {
      "channel": 4,
      "note": 76,
      "start": 21.229,
      "duration": 0.0405,
      "velocity": 90,
      "chip": "ym2612"
    },
    {
      "channel": 3,
      "note": 88,
      "start": 21.2812,
      "duration": 0.0439,
      "velocity": 90,
      "chip": "ym2612"
    },
    {
      "channel": 4,
      "note": 45,
      "start": 21.2837,
      "duration": 0.001,
      "velocity": 92,
      "chip": "ym2612"
    },
    {
      "channel": 4,
      "note": 81,
      "start": 21.2867,
      "duration": 0.0385,
      "velocity": 90,
      "chip": "ym2612"
    },
    {
      "channel": 3,
      "note": 85,
      "start": 21.345,
      "duration": 0.0801,
      "velocity": 90,
      "chip": "ym2612"
    },
    {
      "channel": 4,
      "note": 76,
      "start": 21.348,
      "duration": 0.0772,
      "velocity": 90,
      "chip": "ym2612"
    },
    {
      "channel": 3,
      "note": 81,
      "start": 21.445,
      "duration": 0.0477,
      "velocity": 90,
      "chip": "ym2612"
    },
    {
      "channel": 5,
      "note": 45,
      "start": 21.4476,
      "duration": 0.001,
      "velocity": 92,
      "chip": "ym2612"
    },
    {
      "channel": 4,
      "note": 73,
      "start": 21.4539,
      "duration": 0.0389,
      "velocity": 90,
      "chip": "ym2612"
    },
    {
      "channel": 3,
      "note": 85,
      "start": 21.5038,
      "duration": 0.0439,
      "velocity": 90,
      "chip": "ym2612"
    },
    {
      "channel": 4,
      "note": 76,
      "start": 21.5066,
      "duration": 0.0412,
      "velocity": 90,
      "chip": "ym2612"
    },
    {
      "channel": 0,
      "note": 74,
      "start": 21.5678,
      "duration": 0.0865,
      "velocity": 106,
      "chip": "ym2612"
    },
    {
      "channel": 2,
      "note": 74,
      "start": 21.571,
      "duration": 0.098,
      "velocity": 106,
      "chip": "ym2612"
    },
    {
      "channel": 1,
      "note": 50,
      "start": 21.5743,
      "duration": 4.5774,
      "velocity": 106,
      "chip": "ym2612"
    },
    {
      "channel": 3,
      "note": 89,
      "start": 21.5768,
      "duration": 0.0468,
      "velocity": 90,
      "chip": "ym2612"
    },
    {
      "channel": 5,
      "note": 50,
      "start": 21.5794,
      "duration": 0.0056,
      "velocity": 92,
      "chip": "ym2612"
    },
    {
      "channel": 4,
      "note": 81,
      "start": 21.5906,
      "duration": 0.0331,
      "velocity": 90,
      "chip": "ym2612"
    },
    {
      "channel": 3,
      "note": 86,
      "start": 21.6339,
      "duration": 0.035,
      "velocity": 90,
      "chip": "ym2612"
    },
    {
      "channel": 4,
      "note": 77,
      "start": 21.6385,
      "duration": 0.0304,
      "velocity": 90,
      "chip": "ym2612"
    },
    {
      "channel": 3,
      "note": 77,
      "start": 21.6802,
      "duration": 0.0369,
      "velocity": 90,
      "chip": "ym2612"
    },
    {
      "channel": 0,
      "note": 50,
      "start": 21.6826,
      "duration": 0.0343,
      "velocity": 92,
      "chip": "ym2612"
    },
    {
      "channel": 4,
      "note": 74,
      "start": 21.6865,
      "duration": 0.0308,
      "velocity": 90,
      "chip": "ym2612"
    },
    {
      "channel": 3,
      "note": 81,
      "start": 21.7369,
      "duration": 0.0966,
      "velocity": 90,
      "chip": "ym2612"
    },
    {
      "channel": 4,
      "note": 77,
      "start": 21.7399,
      "duration": 0.0937,
      "velocity": 90,
      "chip": "ym2612"
    },
    {
      "channel": 3,
      "note": 86,
      "start": 21.8534,
      "duration": 0.0802,
      "velocity": 90,
      "chip": "ym2612"
    },
    {
      "channel": 0,
      "note": 50,
      "start": 21.8558,
      "duration": 0.0777,
      "velocity": 92,
      "chip": "ym2612"
    },
    {
      "channel": 4,
      "note": 81,
      "start": 21.8595,
      "duration": 0.0742,
      "velocity": 90,
      "chip": "ym2612"
    },
    {
      "channel": 3,
      "note": 81,
      "start": 21.9535,
      "duration": 0.0966,
      "velocity": 90,
      "chip": "ym2612"
    },
    {
      "channel": 4,
      "note": 77,
      "start": 21.9566,
      "duration": 0.0937,
      "velocity": 90,
      "chip": "ym2612"
    },
    {
      "channel": 3,
      "note": 77,
      "start": 22.0701,
      "duration": 0.0408,
      "velocity": 90,
      "chip": "ym2612"
    },
    {
      "channel": 0,
      "note": 50,
      "start": 22.0724,
      "duration": 0.0383,
      "velocity": 92,
      "chip": "ym2612"
    },
    {
      "channel": 4,
      "note": 74,
      "start": 22.0797,
      "duration": 0.0313,
      "velocity": 90,
      "chip": "ym2612"
    },
    {
      "channel": 3,
      "note": 81,
      "start": 22.1213,
      "duration": 0.0363,
      "velocity": 90,
      "chip": "ym2612"
    },
    {
      "channel": 4,
      "note": 77,
      "start": 22.1242,
      "duration": 0.0334,
      "velocity": 90,
      "chip": "ym2612"
    },
    {
      "channel": 3,
      "note": 86,
      "start": 22.1751,
      "duration": 0.0966,
      "velocity": 90,
      "chip": "ym2612"
    },
    {
      "channel": 0,
      "note": 50,
      "start": 22.1774,
      "duration": 0.0941,
      "velocity": 92,
      "chip": "ym2612"
    },
    {
      "channel": 4,
      "note": 81,
      "start": 22.1812,
      "duration": 0.0906,
      "velocity": 90,
      "chip": "ym2612"
    },
    {
      "channel": 3,
      "note": 81,
      "start": 22.2917,
      "duration": 0.08,
      "velocity": 90,
      "chip": "ym2612"
    },
    {
      "channel": 4,
      "note": 77,
      "start": 22.2947,
      "duration": 0.0771,
      "velocity": 90,
      "chip": "ym2612"
    },
    {
      "channel": 2,
      "note": 81,
      "start": 22.3919,
      "duration": 0.4943,
      "velocity": 106,
      "chip": "ym2612"
    },
    {
      "channel": 3,
      "note": 77,
      "start": 22.3945,
      "duration": 0.0477,
      "velocity": 90,
      "chip": "ym2612"
    },
    {
      "channel": 0,
      "note": 50,
      "start": 22.3969,
      "duration": 0.0452,
      "velocity": 92,
      "chip": "ym2612"
    },
    {
      "channel": 4,
      "note": 74,
      "start": 22.4063,
      "duration": 0.0361,
      "velocity": 90,
      "chip": "ym2612"
    },
    {
      "channel": 3,
      "note": 81,
      "start": 22.4523,
      "duration": 0.0356,
      "velocity": 90,
      "chip": "ym2612"
    },
    {
      "channel": 4,
      "note": 77,
      "start": 22.4549,
      "duration": 0.0331,
      "velocity": 90,
      "chip": "ym2612"
    },
    {
      "channel": 3,
      "note": 86,
      "start": 22.4983,
      "duration": 0.0421,
      "velocity": 90,
      "chip": "ym2612"
    },
    {
      "channel": 0,
      "note": 50,
      "start": 22.5006,
      "duration": 0.0396,
      "velocity": 92,
      "chip": "ym2612"
    },
    {
      "channel": 4,
      "note": 81,
      "start": 22.5052,
      "duration": 0.0353,
      "velocity": 90,
      "chip": "ym2612"
    },
    {
      "channel": 3,
      "note": 81,
      "start": 22.5602,
      "duration": 0.0966,
      "velocity": 90,
      "chip": "ym2612"
    },
    {
      "channel": 4,
      "note": 77,
      "start": 22.5633,
      "duration": 0.0937,
      "velocity": 90,
      "chip": "ym2612"
    },
    {
      "channel": 3,
      "note": 77,
      "start": 22.6769,
      "duration": 0.0407,
      "velocity": 90,
      "chip": "ym2612"
    },
    {
      "channel": 0,
      "note": 50,
      "start": 22.6792,
      "duration": 0.0383,
      "velocity": 92,
      "chip": "ym2612"
    },
    {
      "channel": 4,
      "note": 74,
      "start": 22.6864,
      "duration": 0.0312,
      "velocity": 90,
      "chip": "ym2612"
    },
    {
      "channel": 3,
      "note": 81,
      "start": 22.7285,
      "duration": 0.0491,
      "velocity": 90,
      "chip": "ym2612"
    },
    {
      "channel": 4,
      "note": 77,
      "start": 22.7314,
      "duration": 0.0464,
      "velocity": 90,
      "chip": "ym2612"
    },
    {
      "channel": 3,
      "note": 86,
      "start": 22.7975,
      "duration": 0.0408,
      "velocity": 90,
      "chip": "ym2612"
    },
    {
      "channel": 0,
      "note": 50,
      "start": 22.7998,
      "duration": 0.0385,
      "velocity": 92,
      "chip": "ym2612"
    },
    {
      "channel": 4,
      "note": 81,
      "start": 22.8068,
      "duration": 0.0316,
      "velocity": 90,
      "chip": "ym2612"
    },
    {
      "channel": 3,
      "note": 81,
      "start": 22.8487,
      "duration": 0.0372,
      "velocity": 90,
      "chip": "ym2612"
    },
    {
      "channel": 4,
      "note": 77,
      "start": 22.8516,
      "duration": 0.0344,
      "velocity": 90,
      "chip": "ym2612"
    },
    {
      "channel": 2,
      "note": 82,
      "start": 22.8949,
      "duration": 0.5968,
      "velocity": 106,
      "chip": "ym2612"
    },
    {
      "channel": 3,
      "note": 79,
      "start": 22.8973,
      "duration": 0.0442,
      "velocity": 90,
      "chip": "ym2612"
    },
    {
      "channel": 0,
      "note": 50,
      "start": 22.9005,
      "duration": 0.0409,
      "velocity": 92,
      "chip": "ym2612"
    },
    {
      "channel": 4,
      "note": 76,
      "start": 22.9085,
      "duration": 0.0331,
      "velocity": 90,
      "chip": "ym2612"
    },
    {
      "channel": 3,
      "note": 82,
      "start": 22.9531,
      "duration": 0.034,
      "velocity": 90,
      "chip": "ym2612"
    },
    {
      "channel": 4,
      "note": 79,
      "start": 22.9559,
      "duration": 0.0313,
      "velocity": 90,
      "chip": "ym2612"
    },
    {
      "channel": 3,
      "note": 88,
      "start": 22.9986,
      "duration": 0.0544,
      "velocity": 90,
      "chip": "ym2612"
    },
    {
      "channel": 0,
      "note": 50,
      "start": 23.0008,
      "duration": 0.052,
      "velocity": 92,
      "chip": "ym2612"
    },
    {
      "channel": 4,
      "note": 82,
      "start": 23.0042,
      "duration": 0.0489,
      "velocity": 90,
      "chip": "ym2612"
    },
    {
      "channel": 3,
      "note": 82,
      "start": 23.0728,
      "duration": 0.08,
      "velocity": 90,
      "chip": "ym2612"
    },
    {
      "channel": 4,
      "note": 79,
      "start": 23.0758,
      "duration": 0.0771,
      "velocity": 90,
      "chip": "ym2612"
    },
    {
      "channel": 3,
      "note": 79,
      "start": 23.1728,
      "duration": 0.0408,
      "velocity": 90,
      "chip": "ym2612"
    },
    {
      "channel": 0,
      "note": 50,
      "start": 23.1751,
      "duration": 0.0384,
      "velocity": 92,
      "chip": "ym2612"
    },
    {
      "channel": 4,
      "note": 76,
      "start": 23.1821,
      "duration": 0.0315,
      "velocity": 90,
      "chip": "ym2612"
    },
    {
      "channel": 3,
      "note": 82,
      "start": 23.224,
      "duration": 0.0508,
      "velocity": 90,
      "chip": "ym2612"
    },
    {
      "channel": 4,
      "note": 79,
      "start": 23.2269,
      "duration": 0.048,
      "velocity": 90,
      "chip": "ym2612"
    },
    {
      "channel": 3,
      "note": 88,
      "start": 23.2948,
      "duration": 0.0801,
      "velocity": 90,
      "chip": "ym2612"
    },
    {
      "channel": 0,
      "note": 50,
      "start": 23.2971,
      "duration": 0.0776,
      "velocity": 92,
      "chip": "ym2612"
    },
    {
      "channel": 4,
      "note": 82,
      "start": 23.3009,
      "duration": 0.0741,
      "velocity": 90,
      "chip": "ym2612"
    },
    {
      "channel": 3,
      "note": 82,
      "start": 23.3947,
      "duration": 0.0967,
      "velocity": 90,
      "chip": "ym2612"
    },
    {
      "channel": 4,
      "note": 79,
      "start": 23.3977,
      "duration": 0.0938,
      "velocity": 90,
      "chip": "ym2612"
    },
    {
      "channel": 2,
      "note": 79,
      "start": 23.5114,
      "duration": 0.4827,
      "velocity": 106,
      "chip": "ym2612"
    },
    {
      "channel": 3,
      "note": 79,
      "start": 23.5141,
      "duration": 0.0403,
      "velocity": 90,
      "chip": "ym2612"
    },
    {
      "channel": 0,
      "note": 50,
      "start": 23.5164,
      "duration": 0.0379,
      "velocity": 92,
      "chip": "ym2612"
    },
    {
      "channel": 4,
      "note": 76,
      "start": 23.5252,
      "duration": 0.0292,
      "velocity": 90,
      "chip": "ym2612"
    },
    {
      "channel": 3,
      "note": 82,
      "start": 23.5653,
      "duration": 0.0344,
      "velocity": 90,
      "chip": "ym2612"
    },
    {
      "channel": 4,
      "note": 79,
      "start": 23.5681,
      "duration": 0.0317,
      "velocity": 90,
      "chip": "ym2612"
    },
    {
      "channel": 3,
      "note": 88,
      "start": 23.6111,
      "duration": 0.0484,
      "velocity": 90,
      "chip": "ym2612"
    },
    {
      "channel": 0,
      "note": 50,
      "start": 23.6133,
      "duration": 0.046,
      "velocity": 92,
      "chip": "ym2612"
    },
    {
      "channel": 4,
      "note": 82,
      "start": 23.6177,
      "duration": 0.0419,
      "velocity": 90,
      "chip": "ym2612"
    },
    {
      "channel": 3,
      "note": 82,
      "start": 23.6794,
      "duration": 0.0801,
      "velocity": 90,
      "chip": "ym2612"
    },
    {
      "channel": 4,
      "note": 79,
      "start": 23.6824,
      "duration": 0.0772,
      "velocity": 90,
      "chip": "ym2612"
    },
    {
      "channel": 3,
      "note": 79,
      "start": 23.7794,
      "duration": 0.0483,
      "velocity": 90,
      "chip": "ym2612"
    },
    {
      "channel": 0,
      "note": 50,
      "start": 23.7818,
      "duration": 0.0458,
      "velocity": 92,
      "chip": "ym2612"
    },
    {
      "channel": 4,
      "note": 76,
      "start": 23.789,
      "duration": 0.0388,
      "velocity": 90,
      "chip": "ym2612"
    },
    {
      "channel": 3,
      "note": 82,
      "start": 23.8393,
      "duration": 0.0418,
      "velocity": 90,
      "chip": "ym2612"
    },
    {
      "channel": 4,
      "note": 79,
      "start": 23.842,
      "duration": 0.0392,
      "velocity": 90,
      "chip": "ym2612"
    },
    {
      "channel": 3,
      "note": 88,
      "start": 23.901,
      "duration": 0.04,
      "velocity": 90,
      "chip": "ym2612"
    },
    {
      "channel": 0,
      "note": 50,
      "start": 23.9033,
      "duration": 0.0376,
      "velocity": 92,
      "chip": "ym2612"
    },
    {
      "channel": 4,
      "note": 82,
      "start": 23.9106,
      "duration": 0.0305,
      "velocity": 90,
      "chip": "ym2612"
    },
    {
      "channel": 3,
      "note": 82,
      "start": 23.9514,
      "duration": 0.0425,
      "velocity": 90,
      "chip": "ym2612"
    },
    {
      "channel": 4,
      "note": 79,
      "start": 23.9543,
      "duration": 0.0397,
      "velocity": 90,
      "chip": "ym2612"
    },
    {
      "channel": 2,
      "note": 81,
      "start": 24.0054,
      "duration": 0.5774,
      "velocity": 106,
      "chip": "ym2612"
    },
    {
      "channel": 3,
      "note": 79,
      "start": 24.0078,
      "duration": 0.0371,
      "velocity": 90,
      "chip": "ym2612"
    },
    {
      "channel": 0,
      "note": 50,
      "start": 24.0101,
      "duration": 0.0347,
      "velocity": 92,
      "chip": "ym2612"
    },
    {
      "channel": 4,
      "note": 73,
      "start": 24.0198,
      "duration": 0.0252,
      "velocity": 90,
      "chip": "ym2612"
    },
    {
      "channel": 3,
      "note": 85,
      "start": 24.0557,
      "duration": 0.0424,
      "velocity": 90,
      "chip": "ym2612"
    },
    {
      "channel": 4,
      "note": 76,
      "start": 24.0585,
      "duration": 0.0397,
      "velocity": 90,
      "chip": "ym2612"
    },
    {
      "channel": 3,
      "note": 88,
      "start": 24.108,
      "duration": 0.0369,
      "velocity": 90,
      "chip": "ym2612"
    },
    {
      "channel": 0,
      "note": 50,
      "start": 24.1104,
      "duration": 0.0345,
      "velocity": 92,
      "chip": "ym2612"
    },
    {
      "channel": 4,
      "note": 79,
      "start": 24.1147,
      "duration": 0.0304,
      "velocity": 90,
      "chip": "ym2612"
    },
    {
      "channel": 3,
      "note": 85,
      "start": 24.1644,
      "duration": 0.08,
      "velocity": 90,
      "chip": "ym2612"
    },
    {
      "channel": 4,
      "note": 76,
      "start": 24.1675,
      "duration": 0.077,
      "velocity": 90,
      "chip": "ym2612"
    },
    {
      "channel": 3,
      "note": 79,
      "start": 24.2644,
      "duration": 0.0474,
      "velocity": 90,
      "chip": "ym2612"
    },
    {
      "channel": 0,
      "note": 50,
      "start": 24.2667,
      "duration": 0.045,
      "velocity": 92,
      "chip": "ym2612"
    },
    {
      "channel": 4,
      "note": 73,
      "start": 24.2737,
      "duration": 0.0382,
      "velocity": 90,
      "chip": "ym2612"
    },
    {
      "channel": 3,
      "note": 85,
      "start": 24.323,
      "duration": 0.0428,
      "velocity": 90,
      "chip": "ym2612"
    },
    {
      "channel": 4,
      "note": 76,
      "start": 24.3258,
      "duration": 0.0402,
      "velocity": 90,
      "chip": "ym2612"
    },
    {
      "channel": 3,
      "note": 88,
      "start": 24.3859,
      "duration": 0.0967,
      "velocity": 90,
      "chip": "ym2612"
    },
    {
      "channel": 0,
      "note": 50,
      "start": 24.3882,
      "duration": 0.0942,
      "velocity": 92,
      "chip": "ym2612"
    },
    {
      "channel": 4,
      "note": 79,
      "start": 24.392,
      "duration": 0.0907,
      "velocity": 90,
      "chip": "ym2612"
    },
    {
      "channel": 3,
      "note": 85,
      "start": 24.5025,
      "duration": 0.08,
      "velocity": 90,
      "chip": "ym2612"
    },
    {
      "channel": 4,
      "note": 76,
      "start": 24.5055,
      "duration": 0.077,
      "velocity": 90,
      "chip": "ym2612"
    },
    {
      "channel": 2,
      "note": 69,
      "start": 24.6024,
      "duration": 0.4814,
      "velocity": 106,
      "chip": "ym2612"
    },
    {
      "channel": 3,
      "note": 79,
      "start": 24.6051,
      "duration": 0.0403,
      "velocity": 90,
      "chip": "ym2612"
    },
    {
      "channel": 0,
      "note": 50,
      "start": 24.6074,
      "duration": 0.038,
      "velocity": 92,
      "chip": "ym2612"
    },
    {
      "channel": 4,
      "note": 73,
      "start": 24.6163,
      "duration": 0.0292,
      "velocity": 90,
      "chip": "ym2612"
    },
    {
      "channel": 3,
      "note": 85,
      "start": 24.6564,
      "duration": 0.0417,
      "velocity": 90,
      "chip": "ym2612"
    },
    {
      "channel": 4,
      "note": 76,
      "start": 24.6592,
      "duration": 0.0391,
      "velocity": 90,
      "chip": "ym2612"
    },
    {
      "channel": 3,
      "note": 88,
      "start": 24.7075,
      "duration": 0.0429,
      "velocity": 90,
      "chip": "ym2612"
    },
    {
      "channel": 0,
      "note": 50,
      "start": 24.71,
      "duration": 0.0402,
      "velocity": 92,
      "chip": "ym2612"
    },
    {
      "channel": 4,
      "note": 79,
      "start": 24.7146,
      "duration": 0.0359,
      "velocity": 90,
      "chip": "ym2612"
    },
    {
      "channel": 3,
      "note": 85,
      "start": 24.7702,
      "duration": 0.0968,
      "velocity": 90,
      "chip": "ym2612"
    },
    {
      "channel": 4,
      "note": 76,
      "start": 24.7732,
      "duration": 0.0938,
      "velocity": 90,
      "chip": "ym2612"
    },
    {
      "channel": 3,
      "note": 79,
      "start": 24.8869,
      "duration": 0.04,
      "velocity": 90,
      "chip": "ym2612"
    },
    {
      "channel": 0,
      "note": 50,
      "start": 24.8892,
      "duration": 0.0376,
      "velocity": 92,
      "chip": "ym2612"
    },
    {
      "channel": 4,
      "note": 73,
      "start": 24.8967,
      "duration": 0.0302,
      "velocity": 90,
      "chip": "ym2612"
    },
    {
      "channel": 3,
      "note": 85,
      "start": 24.9377,
      "duration": 0.035,
      "velocity": 90,
      "chip": "ym2612"
    },
    {
      "channel": 4,
      "note": 76,
      "start": 24.9406,
      "duration": 0.0322,
      "velocity": 90,
      "chip": "ym2612"
    },
    {
      "channel": 3,
      "note": 88,
      "start": 24.9901,
      "duration": 0.0478,
      "velocity": 90,
      "chip": "ym2612"
    },
    {
      "channel": 0,
      "note": 50,
      "start": 24.9924,
      "duration": 0.0455,
      "velocity": 92,
      "chip": "ym2612"
    },
    {
      "channel": 4,
      "note": 79,
      "start": 24.9994,
      "duration": 0.0386,
      "velocity": 90,
      "chip": "ym2612"
    },
    {
      "channel": 3,
      "note": 85,
      "start": 25.0493,
      "duration": 0.0344,
      "velocity": 90,
      "chip": "ym2612"
    },
    {
      "channel": 4,
      "note": 76,
      "start": 25.052,
      "duration": 0.0317,
      "velocity": 90,
      "chip": "ym2612"
    },
    {
      "channel": 2,
      "note": 74,
      "start": 25.0961,
      "duration": 0.9216,
      "velocity": 106,
      "chip": "ym2612"
    },
    {
      "channel": 3,
      "note": 81,
      "start": 25.0988,
      "duration": 0.043,
      "velocity": 90,
      "chip": "ym2612"
    },
    {
      "channel": 0,
      "note": 50,
      "start": 25.1013,
      "duration": 0.0404,
      "velocity": 92,
      "chip": "ym2612"
    },
    {
      "channel": 4,
      "note": 74,
      "start": 25.1119,
      "duration": 0.0299,
      "velocity": 90,
      "chip": "ym2612"
    },
    {
      "channel": 3,
      "note": 86,
      "start": 25.1522,
      "duration": 0.0344,
      "velocity": 90,
      "chip": "ym2612"
    },
    {
      "channel": 4,
      "note": 77,
      "start": 25.155,
      "duration": 0.0316,
      "velocity": 90,
      "chip": "ym2612"
    },
    {
      "channel": 3,
      "note": 89,
      "start": 25.1971,
      "duration": 0.0374,
      "velocity": 90,
      "chip": "ym2612"
    },
    {
      "channel": 0,
      "note": 50,
      "start": 25.1995,
      "duration": 0.0348,
      "velocity": 92,
      "chip": "ym2612"
    },
    {
      "channel": 4,
      "note": 81,
      "start": 25.2038,
      "duration": 0.0307,
      "velocity": 90,
      "chip": "ym2612"
    },
    {
      "channel": 3,
      "note": 86,
      "start": 25.2525,
      "duration": 0.0968,
      "velocity": 90,
      "chip": "ym2612"
    },
    {
      "channel": 4,
      "note": 77,
      "start": 25.2556,
      "duration": 0.0938,
      "velocity": 90,
      "chip": "ym2612"
    },
    {
      "channel": 3,
      "note": 81,
      "start": 25.3691,
      "duration": 0.041,
      "velocity": 90,
      "chip": "ym2612"
    },
    {
      "channel": 0,
      "note": 50,
      "start": 25.3714,
      "duration": 0.0387,
      "velocity": 92,
      "chip": "ym2612"
    },
    {
      "channel": 4,
      "note": 74,
      "start": 25.3784,
      "duration": 0.0318,
      "velocity": 90,
      "chip": "ym2612"
    },
    {
      "channel": 3,
      "note": 86,
      "start": 25.4206,
      "duration": 0.052,
      "velocity": 90,
      "chip": "ym2612"
    },
    {
      "channel": 4,
      "note": 77,
      "start": 25.4235,
      "duration": 0.0492,
      "velocity": 90,
      "chip": "ym2612"
    },
    {
      "channel": 3,
      "note": 89,
      "start": 25.4926,
      "duration": 0.08,
      "velocity": 90,
      "chip": "ym2612"
    },
    {
      "channel": 0,
      "note": 50,
      "start": 25.4949,
      "duration": 0.0776,
      "velocity": 92,
      "chip": "ym2612"
    },
    {
      "channel": 4,
      "note": 81,
      "start": 25.4987,
      "duration": 0.074,
      "velocity": 90,
      "chip": "ym2612"
    },
    {
      "channel": 3,
      "note": 86,
      "start": 25.5925,
      "duration": 0.0801,
      "velocity": 90,
      "chip": "ym2612"
    },
    {
      "channel": 4,
      "note": 77,
      "start": 25.5955,
      "duration": 0.0772,
      "velocity": 90,
      "chip": "ym2612"
    },
    {
      "channel": 3,
      "note": 81,
      "start": 25.6925,
      "duration": 0.0486,
      "velocity": 90,
      "chip": "ym2612"
    },
    {
      "channel": 0,
      "note": 50,
      "start": 25.6948,
      "duration": 0.0462,
      "velocity": 92,
      "chip": "ym2612"
    },
    {
      "channel": 4,
      "note": 74,
      "start": 25.7018,
      "duration": 0.0394,
      "velocity": 90,
      "chip": "ym2612"
    },
    {
      "channel": 3,
      "note": 86,
      "start": 25.7523,
      "duration": 0.0343,
      "velocity": 90,
      "chip": "ym2612"
    },
    {
      "channel": 4,
      "note": 77,
      "start": 25.755,
      "duration": 0.0317,
      "velocity": 90,
      "chip": "ym2612"
    },
    {
      "channel": 3,
      "note": 89,
      "start": 25.7985,
      "duration": 0.0587,
      "velocity": 90,
      "chip": "ym2612"
    },
    {
      "channel": 0,
      "note": 50,
      "start": 25.8007,
      "duration": 0.0563,
      "velocity": 92,
      "chip": "ym2612"
    },
    {
      "channel": 4,
      "note": 81,
      "start": 25.8042,
      "duration": 0.0531,
      "velocity": 90,
      "chip": "ym2612"
    },
    {
      "channel": 3,
      "note": 86,
      "start": 25.8771,
      "duration": 0.08,
      "velocity": 90,
      "chip": "ym2612"
    },
    {
      "channel": 4,
      "note": 77,
      "start": 25.8802,
      "duration": 0.0771,
      "velocity": 90,
      "chip": "ym2612"
    },
    {
      "channel": 3,
      "note": 81,
      "start": 25.9771,
      "duration": 0.0404,
      "velocity": 90,
      "chip": "ym2612"
    },
    {
      "channel": 0,
      "note": 50,
      "start": 25.9794,
      "duration": 0.038,
      "velocity": 92,
      "chip": "ym2612"
    },
    {
      "channel": 4,
      "note": 74,
      "start": 25.9866,
      "duration": 0.031,
      "velocity": 90,
      "chip": "ym2612"
    },
    {
      "channel": 3,
      "note": 86,
      "start": 26.0283,
      "duration": 0.0502,
      "velocity": 90,
      "chip": "ym2612"
    },
    {
      "channel": 4,
      "note": 77,
      "start": 26.0312,
      "duration": 0.0475,
      "velocity": 90,
      "chip": "ym2612"
    },
    {
      "channel": 0,
      "note": 69,
      "start": 26.0987,
      "duration": 0.0458,
      "velocity": 106,
      "chip": "ym2612"
    },
    {
      "channel": 2,
      "note": 74,
      "start": 26.1019,
      "duration": 0.0349,
      "velocity": 106,
      "chip": "ym2612"
    },
    {
      "channel": 3,
      "note": 89,
      "start": 26.1045,
      "duration": 0.04,
      "velocity": 90,
      "chip": "ym2612"
    },
    {
      "channel": 5,
      "note": 50,
      "start": 26.1071,
      "duration": 0.0049,
      "velocity": 92,
      "chip": "ym2612"
    },
    {
      "channel": 4,
      "note": 81,
      "start": 26.1175,
      "duration": 0.0271,
      "velocity": 90,
      "chip": "ym2612"
    },
    {
      "channel": 0,
      "note": 69,
      "start": 26.1542,
      "duration": 0.0446,
      "velocity": 106,
      "chip": "ym2612"
    },
    {
      "channel": 2,
      "note": 74,
      "start": 26.1566,
      "duration": 0.0352,
      "velocity": 106,
      "chip": "ym2612"
    },
    {
      "channel": 3,
      "note": 86,
      "start": 26.1605,
      "duration": 0.0384,
      "velocity": 90,
      "chip": "ym2612"
    },
    {
      "channel": 4,
      "note": 77,
      "start": 26.1646,
      "duration": 0.0345,
      "velocity": 90,
      "chip": "ym2612"
    },
    {
      "channel": 0,
      "note": 69,
      "start": 26.2102,
      "duration": 2.0185,
      "velocity": 106,
      "chip": "ym2612"
    },
    {
      "channel": 1,
      "note": 66,
      "start": 26.2132,
      "duration": 0.0326,
      "velocity": 97,
      "chip": "ym2612"
    },
    {
      "channel": 2,
      "note": 74,
      "start": 26.217,
      "duration": 1.9449,
      "velocity": 106,
      "chip": "ym2612"
    },
    {
      "channel": 3,
      "note": 50,
      "start": 26.2216,
      "duration": 2.063,
      "velocity": 106,
      "chip": "ym2612"
    },
    {
      "channel": 4,
      "note": 50,
      "start": 26.2241,
      "duration": 0.0265,
      "velocity": 92,
      "chip": "ym2612"
    },
    {
      "channel": 1,
      "note": 67,
      "start": 26.2616,
      "duration": 0.0277,
      "velocity": 97,
      "chip": "ym2612"
    },
    {
      "channel": 1,
      "note": 68,
      "start": 26.3074,
      "duration": 0.0355,
      "velocity": 97,
      "chip": "ym2612"
    },
    {
      "channel": 4,
      "note": 50,
      "start": 26.3101,
      "duration": 0.0404,
      "velocity": 92,
      "chip": "ym2612"
    },
    {
      "channel": 1,
      "note": 69,
      "start": 26.3635,
      "duration": 0.0637,
      "velocity": 97,
      "chip": "ym2612"
    },
    {
      "channel": 1,
      "note": 70,
      "start": 26.4635,
      "duration": 0.0396,
      "velocity": 97,
      "chip": "ym2612"
    },
    {
      "channel": 4,
      "note": 50,
      "start": 26.4664,
      "duration": 0.0434,
      "velocity": 92,
      "chip": "ym2612"
    },
    {
      "channel": 1,
      "note": 71,
      "start": 26.5207,
      "duration": 0.0274,
      "velocity": 97,
      "chip": "ym2612"
    },
    {
      "channel": 1,
      "note": 72,
      "start": 26.5844,
      "duration": 0.0638,
      "velocity": 97,
      "chip": "ym2612"
    },
    {
      "channel": 4,
      "note": 50,
      "start": 26.5873,
      "duration": 0.0776,
      "velocity": 92,
      "chip": "ym2612"
    },
    {
      "channel": 1,
      "note": 73,
      "start": 26.6845,
      "duration": 0.0804,
      "velocity": 97,
      "chip": "ym2612"
    },
    {
      "channel": 1,
      "note": 74,
      "start": 26.8013,
      "duration": 0.0324,
      "velocity": 97,
      "chip": "ym2612"
    },
    {
      "channel": 4,
      "note": 50,
      "start": 26.8052,
      "duration": 0.0368,
      "velocity": 92,
      "chip": "ym2612"
    },
    {
      "channel": 1,
      "note": 75,
      "start": 26.8506,
      "duration": 0.0348,
      "velocity": 97,
      "chip": "ym2612"
    },
    {
      "channel": 1,
      "note": 76,
      "start": 26.9038,
      "duration": 0.0293,
      "velocity": 97,
      "chip": "ym2612"
    },
    {
      "channel": 4,
      "note": 50,
      "start": 26.9068,
      "duration": 0.043,
      "velocity": 92,
      "chip": "ym2612"
    },
    {
      "channel": 1,
      "note": 77,
      "start": 26.9694,
      "duration": 0.0637,
      "velocity": 97,
      "chip": "ym2612"
    },
    {
      "channel": 1,
      "note": 78,
      "start": 27.0694,
      "duration": 0.0398,
      "velocity": 97,
      "chip": "ym2612"
    },
    {
      "channel": 4,
      "note": 50,
      "start": 27.0723,
      "duration": 0.0436,
      "velocity": 92,
      "chip": "ym2612"
    },
    {
      "channel": 1,
      "note": 79,
      "start": 27.1269,
      "duration": 0.0285,
      "velocity": 97,
      "chip": "ym2612"
    },
    {
      "channel": 1,
      "note": 80,
      "start": 27.1918,
      "duration": 0.0402,
      "velocity": 97,
      "chip": "ym2612"
    },
    {
      "channel": 4,
      "note": 50,
      "start": 27.1946,
      "duration": 0.0443,
      "velocity": 92,
      "chip": "ym2612"
    },
    {
      "channel": 1,
      "note": 81,
      "start": 27.2495,
      "duration": 0.0272,
      "velocity": 97,
      "chip": "ym2612"
    },
    {
      "channel": 1,
      "note": 82,
      "start": 27.2957,
      "duration": 0.0292,
      "velocity": 97,
      "chip": "ym2612"
    },
    {
      "channel": 4,
      "note": 50,
      "start": 27.2989,
      "duration": 0.0335,
      "velocity": 92,
      "chip": "ym2612"
    },
    {
      "channel": 1,
      "note": 83,
      "start": 27.3423,
      "duration": 0.0358,
      "velocity": 97,
      "chip": "ym2612"
    },
    {
      "channel": 1,
      "note": 84,
      "start": 27.3957,
      "duration": 0.0288,
      "velocity": 97,
      "chip": "ym2612"
    },
    {
      "channel": 4,
      "note": 50,
      "start": 27.3983,
      "duration": 0.0357,
      "velocity": 92,
      "chip": "ym2612"
    },
    {
      "channel": 1,
      "note": 85,
      "start": 27.4535,
      "duration": 0.0804,
      "velocity": 97,
      "chip": "ym2612"
    },
    {
      "channel": 1,
      "note": 86,
      "start": 27.5702,
      "duration": 0.0322,
      "velocity": 97,
      "chip": "ym2612"
    },
    {
      "channel": 4,
      "note": 50,
      "start": 27.5731,
      "duration": 0.0373,
      "velocity": 92,
      "chip": "ym2612"
    },
    {
      "channel": 1,
      "note": 87,
      "start": 27.6198,
      "duration": 0.0284,
      "velocity": 97,
      "chip": "ym2612"
    },
    {
      "channel": 1,
      "note": 88,
      "start": 27.6759,
      "duration": 0.0805,
      "velocity": 97,
      "chip": "ym2612"
    },
    {
      "channel": 4,
      "note": 50,
      "start": 27.6788,
      "duration": 0.0944,
      "velocity": 92,
      "chip": "ym2612"
    },
    {
      "channel": 1,
      "note": 89,
      "start": 27.7926,
      "duration": 0.0638,
      "velocity": 97,
      "chip": "ym2612"
    },
    {
      "channel": 1,
      "note": 90,
      "start": 27.8928,
      "duration": 0.0404,
      "velocity": 97,
      "chip": "ym2612"
    },
    {
      "channel": 4,
      "note": 50,
      "start": 27.8963,
      "duration": 0.0441,
      "velocity": 92,
      "chip": "ym2612"
    },
    {
      "channel": 1,
      "note": 91,
      "start": 27.9515,
      "duration": 0.0276,
      "velocity": 97,
      "chip": "ym2612"
    },
    {
      "channel": 1,
      "note": 92,
      "start": 27.998,
      "duration": 0.0304,
      "velocity": 97,
      "chip": "ym2612"
    },
    {
      "channel": 4,
      "note": 50,
      "start": 28.0007,
      "duration": 0.0445,
      "velocity": 92,
      "chip": "ym2612"
    },
    {
      "channel": 1,
      "note": 93,
      "start": 28.0647,
      "duration": 0.0804,
      "velocity": 97,
      "chip": "ym2612"
    },
    {
      "channel": 1,
      "note": 94,
      "start": 28.1816,
      "duration": 0.033,
      "velocity": 97,
      "chip": "ym2612"
    },
    {
      "channel": 4,
      "note": 50,
      "start": 28.1845,
      "duration": 0.0376,
      "velocity": 92,
      "chip": "ym2612"
    },
    {
      "channel": 1,
      "note": 95,
      "start": 28.2315,
      "duration": 0.0364,
      "velocity": 97,
      "chip": "ym2612"
    },
    {
      "channel": 0,
      "note": 74,
      "start": 28.3044,
      "duration": 0.0392,
      "velocity": 106,
      "chip": "ym2612"
    },
    {
      "channel": 1,
      "note": 96,
      "start": 28.3069,
      "duration": 0.0368,
      "velocity": 97,
      "chip": "ym2612"
    },
    {
      "channel": 2,
      "note": 74,
      "start": 28.3103,
      "duration": 0.0336,
      "velocity": 106,
      "chip": "ym2612"
    },
    {
      "channel": 3,
      "note": 50,
      "start": 28.3135,
      "duration": 0.0302,
      "velocity": 106,
      "chip": "ym2612"
    },
    {
      "channel": 4,
      "note": 50,
      "start": 28.3162,
      "duration": 0.0358,
      "velocity": 92,
      "chip": "ym2612"
    },
    {
      "channel": 0,
      "note": 74,
      "start": 28.3613,
      "duration": 0.0349,
      "velocity": 106,
      "chip": "ym2612"
    },
    {
      "channel": 1,
      "note": 97,
      "start": 28.3636,
      "duration": 0.0327,
      "velocity": 97,
      "chip": "ym2612"
    },
    {
      "channel": 2,
      "note": 74,
      "start": 28.3677,
      "duration": 0.0288,
      "velocity": 106,
      "chip": "ym2612"
    },
    {
      "channel": 3,
      "note": 50,
      "start": 28.3705,
      "duration": 0.0258,
      "velocity": 106,
      "chip": "ym2612"
    },
    {
      "channel": 4,
      "note": 50,
      "start": 28.3731,
      "duration": 0.0308,
      "velocity": 92,
      "chip": "ym2612"
    },
    {
      "channel": 0,
      "note": 74,
      "start": 28.4137,
      "duration": 0.0765,
      "velocity": 106,
      "chip": "ym2612"
    },
    {
      "channel": 1,
      "note": 98,
      "start": 28.4173,
      "duration": 0.0806,
      "velocity": 97,
      "chip": "ym2612"
    },
    {
      "channel": 2,
      "note": 74,
      "start": 28.4203,
      "duration": 0.0779,
      "velocity": 106,
      "chip": "ym2612"
    },
    {
      "channel": 3,
      "note": 50,
      "start": 28.4233,
      "duration": 2.1715,
      "velocity": 106,
      "chip": "ym2612"
    },
    {
      "channel": 4,
      "note": 50,
      "start": 28.5161,
      "duration": 0.0469,
      "velocity": 92,
      "chip": "ym2612"
    },
    {
      "channel": 4,
      "note": 50,
      "start": 28.6835,
      "duration": 0.0382,
      "velocity": 92,
      "chip": "ym2612"
    },
    {
      "channel": 4,
      "note": 50,
      "start": 28.8055,
      "duration": 0.08,
      "velocity": 92,
      "chip": "ym2612"
    },
    {
      "channel": 4,
      "note": 50,
      "start": 29.0222,
      "duration": 0.0378,
      "velocity": 92,
      "chip": "ym2612"
    },
    {
      "channel": 4,
      "note": 50,
      "start": 29.116,
      "duration": 0.0562,
      "velocity": 92,
      "chip": "ym2612"
    },
    {
      "channel": 4,
      "note": 50,
      "start": 29.2923,
      "duration": 0.0452,
      "velocity": 92,
      "chip": "ym2612"
    },
    {
      "channel": 4,
      "note": 50,
      "start": 29.4144,
      "duration": 0.0376,
      "velocity": 92,
      "chip": "ym2612"
    },
    {
      "channel": 4,
      "note": 50,
      "start": 29.5131,
      "duration": 0.0374,
      "velocity": 92,
      "chip": "ym2612"
    },
    {
      "channel": 4,
      "note": 50,
      "start": 29.6136,
      "duration": 0.045,
      "velocity": 92,
      "chip": "ym2612"
    },
    {
      "channel": 4,
      "note": 50,
      "start": 29.7785,
      "duration": 0.0462,
      "velocity": 92,
      "chip": "ym2612"
    },
    {
      "channel": 4,
      "note": 50,
      "start": 29.9022,
      "duration": 0.0965,
      "velocity": 92,
      "chip": "ym2612"
    },
    {
      "channel": 4,
      "note": 50,
      "start": 30.1188,
      "duration": 0.0376,
      "velocity": 92,
      "chip": "ym2612"
    },
    {
      "channel": 4,
      "note": 50,
      "start": 30.2188,
      "duration": 0.0495,
      "velocity": 92,
      "chip": "ym2612"
    },
    {
      "channel": 4,
      "note": 50,
      "start": 30.405,
      "duration": 0.0384,
      "velocity": 92,
      "chip": "ym2612"
    },
    {
      "channel": 4,
      "note": 50,
      "start": 30.5114,
      "duration": 0.044,
      "velocity": 92,
      "chip": "ym2612"
    }
  ]
}