{
  "track_name": "01 - Titles",
  "duration_sec": 197.869,
  "sample_rate": 44100,
  "note_count": 4233,
  "unique_pitches": 40,
  "pitch_range": 62,
  "avg_note_duration": 0.1142,
  "reconstruction_stats": {
    "notes_reconstructed": 4233,
    "keyon_events": 4233,
    "keyoff_events": 4230,
    "orphan_keyons": 3,
    "unique_pitches": 40,
    "pitch_range": 62,
    "avg_duration_sec": 0.1142
  },
  "metadata": {
    "source": "W\\Waterworld\\Waterworld (Mega Drive, Genesis)\\01 - Titles.vgz"
  },
  "notes": [
    {
      "channel": 0,
      "note": -1,
      "start": 0.0208,
      "duration": 0.0771,
      "velocity": 107,
      "chip": "ym2612"
    },
    {
      "channel": 1,
      "note": -1,
      "start": 0.0235,
      "duration": 0.0751,
      "velocity": 107,
      "chip": "ym2612"
    },
    {
      "channel": 2,
      "note": -1,
      "start": 0.0261,
      "duration": 0.0731,
      "velocity": 107,
      "chip": "ym2612"
    },
    {
      "channel": 0,
      "note": 80,
      "start": 0.2203,
      "duration": 0.077,
      "velocity": 107,
      "chip": "ym2612"
    },
    {
      "channel": 1,
      "note": 75,
      "start": 0.223,
      "duration": 0.0749,
      "velocity": 107,
      "chip": "ym2612"
    },
    {
      "channel": 2,
      "note": 71,
      "start": 0.2257,
      "duration": 0.0729,
      "velocity": 107,
      "chip": "ym2612"
    },
    {
      "channel": 0,
      "note": 75,
      "start": 0.4197,
      "duration": 0.077,
      "velocity": 107,
      "chip": "ym2612"
    },
    {
      "channel": 1,
      "note": 71,
      "start": 0.4224,
      "duration": 0.0749,
      "velocity": 107,
      "chip": "ym2612"
    },
    {
      "channel": 2,
      "note": 68,
      "start": 0.4251,
      "duration": 0.0729,
      "velocity": 107,
      "chip": "ym2612"
    },
    {
      "channel": 0,
      "note": 75,
      "start": 0.619,
      "duration": 0.0778,
      "velocity": 107,
      "chip": "ym2612"
    },
    {
      "channel": 1,
      "note": 71,
      "start": 0.6217,
      "duration": 0.0758,
      "velocity": 107,
      "chip": "ym2612"
    },
    {
      "channel": 2,
      "note": 68,
      "start": 0.6244,
      "duration": 0.0742,
      "velocity": 107,
      "chip": "ym2612"
    },
    {
      "channel": 0,
      "note": 75,
      "start": 0.7187,
      "duration": 0.077,
      "velocity": 107,
      "chip": "ym2612"
    },
    {
      "channel": 1,
      "note": 71,
      "start": 0.7214,
      "duration": 0.0749,
      "velocity": 107,
      "chip": "ym2612"
    },
    {
      "channel": 2,
      "note": 68,
      "start": 0.7241,
      "duration": 0.0729,
      "velocity": 107,
      "chip": "ym2612"
    },
    {
      "channel": 0,
      "note": 75,
      "start": 0.9181,
      "duration": 0.0778,
      "velocity": 107,
      "chip": "ym2612"
    },
    {
      "channel": 1,
      "note": 71,
      "start": 0.9208,
      "duration": 0.0758,
      "velocity": 107,
      "chip": "ym2612"
    },
    {
      "channel": 2,
      "note": 68,
      "start": 0.9235,
      "duration": 0.0742,
      "velocity": 107,
      "chip": "ym2612"
    },
    {
      "channel": 0,
      "note": 75,
      "start": 1.0178,
      "duration": 0.077,
      "velocity": 107,
      "chip": "ym2612"
    },
    {
      "channel": 1,
      "note": 71,
      "start": 1.0205,
      "duration": 0.0749,
      "velocity": 107,
      "chip": "ym2612"
    },
    {
      "channel": 2,
      "note": 68,
      "start": 1.0232,
      "duration": 0.0729,
      "velocity": 107,
      "chip": "ym2612"
    },
    {
      "channel": 0,
      "note": 75,
      "start": 1.2172,
      "duration": 0.0769,
      "velocity": 107,
      "chip": "ym2612"
    },
    {
      "channel": 1,
      "note": 71,
      "start": 1.2198,
      "duration": 0.0749,
      "velocity": 107,
      "chip": "ym2612"
    },
    {
      "channel": 2,
      "note": 68,
      "start": 1.2225,
      "duration": 0.0729,
      "velocity": 107,
      "chip": "ym2612"
    },
    {
      "channel": 0,
      "note": 75,
      "start": 1.4165,
      "duration": 0.077,
      "velocity": 107,
      "chip": "ym2612"
    },
    {
      "channel": 1,
      "note": 71,
      "start": 1.4192,
      "duration": 0.0749,
      "velocity": 107,
      "chip": "ym2612"
    },
    {
      "channel": 2,
      "note": 68,
      "start": 1.4219,
      "duration": 0.0729,
      "velocity": 107,
      "chip": "ym2612"
    },
    {
      "channel": 0,
      "note": 75,
      "start": 1.6159,
      "duration": 0.077,
      "velocity": 107,
      "chip": "ym2612"
    },
    {
      "channel": 1,
      "note": 71,
      "start": 1.6186,
      "duration": 0.0749,
      "velocity": 107,
      "chip": "ym2612"
    },
    {
      "channel": 2,
      "note": 68,
      "start": 1.6212,
      "duration": 0.0729,
      "velocity": 107,
      "chip": "ym2612"
    },
    {
      "channel": 0,
      "note": 75,
      "start": 1.8153,
      "duration": 0.077,
      "velocity": 107,
      "chip": "ym2612"
    },
    {
      "channel": 1,
      "note": 71,
      "start": 1.8179,
      "duration": 0.0749,
      "velocity": 107,
      "chip": "ym2612"
    },
    {
      "channel": 2,
      "note": 68,
      "start": 1.8206,
      "duration": 0.0729,
      "velocity": 107,
      "chip": "ym2612"
    },
    {
      "channel": 0,
      "note": 76,
      "start": 2.0146,
      "duration": 0.077,
      "velocity": 107,
      "chip": "ym2612"
    },
    {
      "channel": 1,
      "note": 71,
      "start": 2.0173,
      "duration": 0.0749,
      "velocity": 107,
      "chip": "ym2612"
    },
    {
      "channel": 2,
      "note": 68,
      "start": 2.02,
      "duration": 0.0729,
      "velocity": 107,
      "chip": "ym2612"
    },
    {
      "channel": 0,
      "note": 76,
      "start": 2.214,
      "duration": 0.0778,
      "velocity": 107,
      "chip": "ym2612"
    },
    {
      "channel": 1,
      "note": 71,
      "start": 2.2167,
      "duration": 0.0758,
      "velocity": 107,
      "chip": "ym2612"
    },
    {
      "channel": 2,
      "note": 68,
      "start": 2.2193,
      "duration": 0.0742,
      "velocity": 107,
      "chip": "ym2612"
    },
    {
      "channel": 0,
      "note": 76,
      "start": 2.3137,
      "duration": 0.077,
      "velocity": 107,
      "chip": "ym2612"
    },
    {
      "channel": 1,
      "note": 71,
      "start": 2.3163,
      "duration": 0.0749,
      "velocity": 107,
      "chip": "ym2612"
    },
    {
      "channel": 2,
      "note": 68,
      "start": 2.319,
      "duration": 0.0729,
      "velocity": 107,
      "chip": "ym2612"
    },
    {
      "channel": 0,
      "note": 78,
      "start": 2.513,
      "duration": 0.0778,
      "velocity": 107,
      "chip": "ym2612"
    },
    {
      "channel": 1,
      "note": 73,
      "start": 2.5157,
      "duration": 0.0758,
      "velocity": 107,
      "chip": "ym2612"
    },
    {
      "channel": 2,
      "note": 70,
      "start": 2.5184,
      "duration": 0.0742,
      "velocity": 107,
      "chip": "ym2612"
    },
    {
      "channel": 0,
      "note": 78,
      "start": 2.6127,
      "duration": 0.077,
      "velocity": 107,
      "chip": "ym2612"
    },
    {
      "channel": 1,
      "note": 73,
      "start": 2.6154,
      "duration": 0.0749,
      "velocity": 107,
      "chip": "ym2612"
    },
    {
      "channel": 2,
      "note": 70,
      "start": 2.6181,
      "duration": 0.0729,
      "velocity": 107,
      "chip": "ym2612"
    },
    {
      "channel": 0,
      "note": 78,
      "start": 2.8121,
      "duration": 0.077,
      "velocity": 107,
      "chip": "ym2612"
    },
    {
      "channel": 1,
      "note": 73,
      "start": 2.8148,
      "duration": 0.0749,
      "velocity": 107,
      "chip": "ym2612"
    },
    {
      "channel": 2,
      "note": 70,
      "start": 2.8175,
      "duration": 0.0729,
      "velocity": 107,
      "chip": "ym2612"
    },
    {
      "channel": 0,
      "note": 78,
      "start": 3.0115,
      "duration": 0.077,
      "velocity": 107,
      "chip": "ym2612"
    },
    {
      "channel": 1,
      "note": 73,
      "start": 3.0141,
      "duration": 0.0749,
      "velocity": 107,
      "chip": "ym2612"
    },
    {
      "channel": 2,
      "note": 70,
      "start": 3.0168,
      "duration": 0.0729,
      "velocity": 107,
      "chip": "ym2612"
    },
    {
      "channel": 0,
      "note": 78,
      "start": 3.2108,
      "duration": 0.077,
      "velocity": 107,
      "chip": "ym2612"
    },
    {
      "channel": 1,
      "note": 73,
      "start": 3.2135,
      "duration": 0.0749,
      "velocity": 107,
      "chip": "ym2612"
    },
    {
      "channel": 2,
      "note": 70,
      "start": 3.2162,
      "duration": 0.0729,
      "velocity": 107,
      "chip": "ym2612"
    },
    {
      "channel": 0,
      "note": 78,
      "start": 3.4102,
      "duration": 0.077,
      "velocity": 107,
      "chip": "ym2612"
    },
    {
      "channel": 1,
      "note": 73,
      "start": 3.4129,
      "duration": 0.0749,
      "velocity": 107,
      "chip": "ym2612"
    },
    {
      "channel": 2,
      "note": 70,
      "start": 3.4156,
      "duration": 0.0729,
      "velocity": 107,
      "chip": "ym2612"
    },
    {
      "channel": 0,
      "note": 75,
      "start": 3.6095,
      "duration": 0.077,
      "velocity": 107,
      "chip": "ym2612"
    },
    {
      "channel": 1,
      "note": 71,
      "start": 3.6122,
      "duration": 0.0749,
      "velocity": 107,
      "chip": "ym2612"
    },
    {
      "channel": 2,
      "note": 68,
      "start": 3.6149,
      "duration": 0.0729,
      "velocity": 107,
      "chip": "ym2612"
    },
    {
      "channel": 0,
      "note": 75,
      "start": 3.8089,
      "duration": 0.0778,
      "velocity": 107,
      "chip": "ym2612"
    },
    {
      "channel": 1,
      "note": 71,
      "start": 3.8116,
      "duration": 0.0758,
      "velocity": 107,
      "chip": "ym2612"
    },
    {
      "channel": 2,
      "note": 68,
      "start": 3.8143,
      "duration": 0.0742,
      "velocity": 107,
      "chip": "ym2612"
    },
    {
      "channel": 0,
      "note": 75,
      "start": 3.9086,
      "duration": 0.077,
      "velocity": 107,
      "chip": "ym2612"
    },
    {
      "channel": 1,
      "note": 71,
      "start": 3.9113,
      "duration": 0.0749,
      "velocity": 107,
      "chip": "ym2612"
    },
    {
      "channel": 2,
      "note": 68,
      "start": 3.914,
      "duration": 0.0729,
      "velocity": 107,
      "chip": "ym2612"
    },
    {
      "channel": 0,
      "note": 75,
      "start": 4.108,
      "duration": 0.0778,
      "velocity": 107,
      "chip": "ym2612"
    },
    {
      "channel": 1,
      "note": 71,
      "start": 4.1106,
      "duration": 0.0758,
      "velocity": 107,
      "chip": "ym2612"
    },
    {
      "channel": 2,
      "note": 68,
      "start": 4.1133,
      "duration": 0.0742,
      "velocity": 107,
      "chip": "ym2612"
    },
    {
      "channel": 0,
      "note": 75,
      "start": 4.2076,
      "duration": 0.077,
      "velocity": 107,
      "chip": "ym2612"
    },
    {
      "channel": 1,
      "note": 71,
      "start": 4.2103,
      "duration": 0.0749,
      "velocity": 107,
      "chip": "ym2612"
    },
    {
      "channel": 2,
      "note": 68,
      "start": 4.213,
      "duration": 0.0729,
      "velocity": 107,
      "chip": "ym2612"
    },
    {
      "channel": 0,
      "note": 75,
      "start": 4.407,
      "duration": 0.077,
      "velocity": 107,
      "chip": "ym2612"
    },
    {
      "channel": 1,
      "note": 71,
      "start": 4.4097,
      "duration": 0.0749,
      "velocity": 107,
      "chip": "ym2612"
    },
    {
      "channel": 2,
      "note": 68,
      "start": 4.4124,
      "duration": 0.0729,
      "velocity": 107,
      "chip": "ym2612"
    },
    {
      "channel": 0,
      "note": 75,
      "start": 4.6064,
      "duration": 0.077,
      "velocity": 107,
      "chip": "ym2612"
    },
    {
      "channel": 1,
      "note": 71,
      "start": 4.6091,
      "duration": 0.0749,
      "velocity": 107,
      "chip": "ym2612"
    },
    {
      "channel": 2,
      "note": 68,
      "start": 4.6117,
      "duration": 0.0729,
      "velocity": 107,
      "chip": "ym2612"
    },
    {
      "channel": 0,
      "note": 75,
      "start": 4.8057,
      "duration": 0.077,
      "velocity": 107,
      "chip": "ym2612"
    },
    {
      "channel": 1,
      "note": 71,
      "start": 4.8084,
      "duration": 0.0749,
      "velocity": 107,
      "chip": "ym2612"
    },
    {
      "channel": 2,
      "note": 68,
      "start": 4.8111,
      "duration": 0.0729,
      "velocity": 107,
      "chip": "ym2612"
    },
    {
      "channel": 0,
      "note": 75,
      "start": 5.0051,
      "duration": 0.0769,
      "velocity": 107,
      "chip": "ym2612"
    },
    {
      "channel": 1,
      "note": 71,
      "start": 5.0078,
      "duration": 0.0749,
      "velocity": 107,
      "chip": "ym2612"
    },
    {
      "channel": 2,
      "note": 68,
      "start": 5.0105,
      "duration": 0.0729,
      "velocity": 107,
      "chip": "ym2612"
    },
    {
      "channel": 0,
      "note": 76,
      "start": 5.2045,
      "duration": 0.077,
      "velocity": 107,
      "chip": "ym2612"
    },
    {
      "channel": 1,
      "note": 71,
      "start": 5.2072,
      "duration": 0.0749,
      "velocity": 107,
      "chip": "ym2612"
    },
    {
      "channel": 2,
      "note": 68,
      "start": 5.2098,
      "duration": 0.0729,
      "velocity": 107,
      "chip": "ym2612"
    },
    {
      "channel": 0,
      "note": 76,
      "start": 5.4038,
      "duration": 0.0778,
      "velocity": 107,
      "chip": "ym2612"
    },
    {
      "channel": 1,
      "note": 71,
      "start": 5.4065,
      "duration": 0.0758,
      "velocity": 107,
      "chip": "ym2612"
    },
    {
      "channel": 2,
      "note": 68,
      "start": 5.4092,
      "duration": 0.0742,
      "velocity": 107,
      "chip": "ym2612"
    },
    {
      "channel": 0,
      "note": 76,
      "start": 5.5035,
      "duration": 0.0769,
      "velocity": 107,
      "chip": "ym2612"
    },
    {
      "channel": 1,
      "note": 71,
      "start": 5.5062,
      "duration": 0.0749,
      "velocity": 107,
      "chip": "ym2612"
    },
    {
      "channel": 2,
      "note": 68,
      "start": 5.5089,
      "duration": 0.0729,
      "velocity": 107,
      "chip": "ym2612"
    },
    {
      "channel": 0,
      "note": 78,
      "start": 5.7029,
      "duration": 0.0778,
      "velocity": 107,
      "chip": "ym2612"
    },
    {
      "channel": 1,
      "note": 73,
      "start": 5.7056,
      "duration": 0.0758,
      "velocity": 107,
      "chip": "ym2612"
    },
    {
      "channel": 2,
      "note": 70,
      "start": 5.7083,
      "duration": 0.0742,
      "velocity": 107,
      "chip": "ym2612"
    },
    {
      "channel": 0,
      "note": 78,
      "start": 5.8026,
      "duration": 0.0769,
      "velocity": 107,
      "chip": "ym2612"
    },
    {
      "channel": 1,
      "note": 73,
      "start": 5.8053,
      "duration": 0.0749,
      "velocity": 107,
      "chip": "ym2612"
    },
    {
      "channel": 2,
      "note": 70,
      "start": 5.8079,
      "duration": 0.0729,
      "velocity": 107,
      "chip": "ym2612"
    },
    {
      "channel": 0,
      "note": 78,
      "start": 6.002,
      "duration": 0.077,
      "velocity": 107,
      "chip": "ym2612"
    },
    {
      "channel": 1,
      "note": 73,
      "start": 6.0046,
      "duration": 0.0749,
      "velocity": 107,
      "chip": "ym2612"
    },
    {
      "channel": 2,
      "note": 70,
      "start": 6.0073,
      "duration": 0.0729,
      "velocity": 107,
      "chip": "ym2612"
    },
    {
      "channel": 0,
      "note": 78,
      "start": 6.2013,
      "duration": 0.0769,
      "velocity": 107,
      "chip": "ym2612"
    },
    {
      "channel": 1,
      "note": 73,
      "start": 6.204,
      "duration": 0.0749,
      "velocity": 107,
      "chip": "ym2612"
    },
    {
      "channel": 2,
      "note": 70,
      "start": 6.2067,
      "duration": 0.0729,
      "velocity": 107,
      "chip": "ym2612"
    },
    {
      "channel": 0,
      "note": 80,
      "start": 6.4009,
      "duration": 0.077,
      "velocity": 107,
      "chip": "ym2612"
    },
    {
      "channel": 1,
      "note": 75,
      "start": 6.4036,
      "duration": 0.0749,
      "velocity": 107,
      "chip": "ym2612"
    },
    {
      "channel": 2,
      "note": 71,
      "start": 6.4063,
      "duration": 0.0729,
      "velocity": 107,
      "chip": "ym2612"
    },
    {
      "channel": 5,
      "note": -1,
      "start": 6.4091,
      "duration": 0.0298,
      "velocity": 127,
      "chip": "ym2612"
    },
    {
      "channel": 5,
      "note": 58,
      "start": 6.5023,
      "duration": 0.0364,
      "velocity": 127,
      "chip": "ym2612"
    },
    {
      "channel": 0,
      "note": 80,
      "start": 6.6002,
      "duration": 0.0768,
      "velocity": 107,
      "chip": "ym2612"
    },
    {
      "channel": 1,
      "note": 75,
      "start": 6.6029,
      "duration": 0.0747,
      "velocity": 107,
      "chip": "ym2612"
    },
    {
      "channel": 2,
      "note": 71,
      "start": 6.6056,
      "duration": 0.0727,
      "velocity": 107,
      "chip": "ym2612"
    },
    {
      "channel": 5,
      "note": 58,
      "start": 6.6085,
      "duration": 0.1295,
      "velocity": 127,
      "chip": "ym2612"
    },
    {
      "channel": 0,
      "note": 75,
      "start": 6.7996,
      "duration": 0.077,
      "velocity": 107,
      "chip": "ym2612"
    },
    {
      "channel": 1,
      "note": 71,
      "start": 6.8023,
      "duration": 0.0749,
      "velocity": 107,
      "chip": "ym2612"
    },
    {
      "channel": 2,
      "note": 68,
      "start": 6.805,
      "duration": 0.0729,
      "velocity": 107,
      "chip": "ym2612"
    },
    {
      "channel": 5,
      "note": 58,
      "start": 6.8078,
      "duration": 0.0299,
      "velocity": 127,
      "chip": "ym2612"
    },
    {
      "channel": 5,
      "note": 58,
      "start": 6.901,
      "duration": 0.0364,
      "velocity": 127,
      "chip": "ym2612"
    },
    {
      "channel": 0,
      "note": 75,
      "start": 6.999,
      "duration": 0.0776,
      "velocity": 107,
      "chip": "ym2612"
    },
    {
      "channel": 1,
      "note": 71,
      "start": 7.0017,
      "duration": 0.0756,
      "velocity": 107,
      "chip": "ym2612"
    },
    {
      "channel": 2,
      "note": 68,
      "start": 7.0043,
      "duration": 0.074,
      "velocity": 107,
      "chip": "ym2612"
    },
    {
      "channel": 5,
      "note": 58,
      "start": 7.0072,
      "duration": 0.1295,
      "velocity": 127,
      "chip": "ym2612"
    },
    {
      "channel": 0,
      "note": 75,
      "start": 7.0985,
      "duration": 0.0772,
      "velocity": 107,
      "chip": "ym2612"
    },
    {
      "channel": 1,
      "note": 71,
      "start": 7.1011,
      "duration": 0.0752,
      "velocity": 107,
      "chip": "ym2612"
    },
    {
      "channel": 2,
      "note": 68,
      "start": 7.1038,
      "duration": 0.0732,
      "velocity": 107,
      "chip": "ym2612"
    },
    {
      "channel": 5,
      "note": 58,
      "start": 7.2,
      "duration": 0.0364,
      "velocity": 127,
      "chip": "ym2612"
    },
    {
      "channel": 0,
      "note": 75,
      "start": 7.298,
      "duration": 0.0779,
      "velocity": 107,
      "chip": "ym2612"
    },
    {
      "channel": 1,
      "note": 71,
      "start": 7.3007,
      "duration": 0.0759,
      "velocity": 107,
      "chip": "ym2612"
    },
    {
      "channel": 2,
      "note": 68,
      "start": 7.3034,
      "duration": 0.0743,
      "velocity": 107,
      "chip": "ym2612"
    },
    {
      "channel": 5,
      "note": 58,
      "start": 7.3063,
      "duration": 0.0299,
      "velocity": 127,
      "chip": "ym2612"
    },
    {
      "channel": 0,
      "note": 75,
      "start": 7.3977,
      "duration": 0.0768,
      "velocity": 107,
      "chip": "ym2612"
    },
    {
      "channel": 1,
      "note": 71,
      "start": 7.4004,
      "duration": 0.0747,
      "velocity": 107,
      "chip": "ym2612"
    },
    {
      "channel": 2,
      "note": 68,
      "start": 7.4031,
      "duration": 0.0727,
      "velocity": 107,
      "chip": "ym2612"
    },
    {
      "channel": 5,
      "note": 58,
      "start": 7.406,
      "duration": 0.1295,
      "velocity": 127,
      "chip": "ym2612"
    },
    {
      "channel": 0,
      "note": 75,
      "start": 7.5971,
      "duration": 0.077,
      "velocity": 107,
      "chip": "ym2612"
    },
    {
      "channel": 1,
      "note": 71,
      "start": 7.5998,
      "duration": 0.0749,
      "velocity": 107,
      "chip": "ym2612"
    },
    {
      "channel": 2,
      "note": 68,
      "start": 7.6024,
      "duration": 0.0729,
      "velocity": 107,
      "chip": "ym2612"
    },
    {
      "channel": 5,
      "note": 58,
      "start": 7.6053,
      "duration": 0.0298,
      "velocity": 127,
      "chip": "ym2612"
    },
    {
      "channel": 5,
      "note": 58,
      "start": 7.6985,
      "duration": 0.0364,
      "velocity": 127,
      "chip": "ym2612"
    },
    {
      "channel": 0,
      "note": 75,
      "start": 7.7964,
      "duration": 0.0768,
      "velocity": 107,
      "chip": "ym2612"
    },
    {
      "channel": 1,
      "note": 71,
      "start": 7.7991,
      "duration": 0.0748,
      "velocity": 107,
      "chip": "ym2612"
    },
    {
      "channel": 2,
      "note": 68,
      "start": 7.8018,
      "duration": 0.0727,
      "velocity": 107,
      "chip": "ym2612"
    },
    {
      "channel": 5,
      "note": 58,
      "start": 7.8047,
      "duration": 0.1295,
      "velocity": 127,
      "chip": "ym2612"
    },
    {
      "channel": 0,
      "note": 75,
      "start": 7.9958,
      "duration": 0.077,
      "velocity": 107,
      "chip": "ym2612"
    },
    {
      "channel": 1,
      "note": 71,
      "start": 7.9985,
      "duration": 0.0749,
      "velocity": 107,
      "chip": "ym2612"
    },
    {
      "channel": 2,
      "note": 68,
      "start": 8.0012,
      "duration": 0.0729,
      "velocity": 107,
      "chip": "ym2612"
    },
    {
      "channel": 5,
      "note": 58,
      "start": 8.004,
      "duration": 0.0299,
      "velocity": 127,
      "chip": "ym2612"
    },
    {
      "channel": 5,
      "note": 58,
      "start": 8.0972,
      "duration": 0.0364,
      "velocity": 127,
      "chip": "ym2612"
    },
    {
      "channel": 0,
      "note": 75,
      "start": 8.1951,
      "duration": 0.0768,
      "velocity": 107,
      "chip": "ym2612"
    },
    {
      "channel": 1,
      "note": 71,
      "start": 8.1978,
      "duration": 0.0747,
      "velocity": 107,
      "chip": "ym2612"
    },
    {
      "channel": 2,
      "note": 68,
      "start": 8.2005,
      "duration": 0.0727,
      "velocity": 107,
      "chip": "ym2612"
    },
    {
      "channel": 5,
      "note": 58,
      "start": 8.2034,
      "duration": 0.1295,
      "velocity": 127,
      "chip": "ym2612"
    },
    {
      "channel": 0,
      "note": 76,
      "start": 8.3945,
      "duration": 0.077,
      "velocity": 107,
      "chip": "ym2612"
    },
    {
      "channel": 1,
      "note": 71,
      "start": 8.3972,
      "duration": 0.0749,
      "velocity": 107,
      "chip": "ym2612"
    },
    {
      "channel": 2,
      "note": 68,
      "start": 8.3999,
      "duration": 0.0729,
      "velocity": 107,
      "chip": "ym2612"
    },
    {
      "channel": 5,
      "note": 58,
      "start": 8.4028,
      "duration": 0.0299,
      "velocity": 127,
      "chip": "ym2612"
    },
    {
      "channel": 5,
      "note": 58,
      "start": 8.4959,
      "duration": 0.0364,
      "velocity": 127,
      "chip": "ym2612"
    },
    {
      "channel": 0,
      "note": 76,
      "start": 8.5939,
      "duration": 0.0776,
      "velocity": 107,
      "chip": "ym2612"
    },
    {
      "channel": 1,
      "note": 71,
      "start": 8.5966,
      "duration": 0.0756,
      "velocity": 107,
      "chip": "ym2612"
    },
    {
      "channel": 2,
      "note": 68,
      "start": 8.5993,
      "duration": 0.074,
      "velocity": 107,
      "chip": "ym2612"
    },
    {
      "channel": 5,
      "note": 58,
      "start": 8.6022,
      "duration": 0.1295,
      "velocity": 127,
      "chip": "ym2612"
    },
    {
      "channel": 0,
      "note": 76,
      "start": 8.6934,
      "duration": 0.0773,
      "velocity": 107,
      "chip": "ym2612"
    },
    {
      "channel": 1,
      "note": 71,
      "start": 8.6961,
      "duration": 0.0752,
      "velocity": 107,
      "chip": "ym2612"
    },
    {
      "channel": 2,
      "note": 68,
      "start": 8.6988,
      "duration": 0.0732,
      "velocity": 107,
      "chip": "ym2612"
    },
    {
      "channel": 5,
      "note": 58,
      "start": 8.795,
      "duration": 0.0364,
      "velocity": 127,
      "chip": "ym2612"
    },
    {
      "channel": 0,
      "note": 78,
      "start": 8.8929,
      "duration": 0.0779,
      "velocity": 107,
      "chip": "ym2612"
    },
    {
      "channel": 1,
      "note": 73,
      "start": 8.8956,
      "duration": 0.0759,
      "velocity": 107,
      "chip": "ym2612"
    },
    {
      "channel": 2,
      "note": 70,
      "start": 8.8983,
      "duration": 0.0743,
      "velocity": 107,
      "chip": "ym2612"
    },
    {
      "channel": 5,
      "note": 58,
      "start": 8.9012,
      "duration": 0.0298,
      "velocity": 127,
      "chip": "ym2612"
    },
    {
      "channel": 0,
      "note": 78,
      "start": 8.9926,
      "duration": 0.0768,
      "velocity": 107,
      "chip": "ym2612"
    },
    {
      "channel": 1,
      "note": 73,
      "start": 8.9953,
      "duration": 0.0747,
      "velocity": 107,
      "chip": "ym2612"
    },
    {
      "channel": 2,
      "note": 70,
      "start": 8.998,
      "duration": 0.0727,
      "velocity": 107,
      "chip": "ym2612"
    },
    {
      "channel": 5,
      "note": 58,
      "start": 9.0009,
      "duration": 0.1295,
      "velocity": 127,
      "chip": "ym2612"
    },
    {
      "channel": 0,
      "note": 78,
      "start": 9.192,
      "duration": 0.0769,
      "velocity": 107,
      "chip": "ym2612"
    },
    {
      "channel": 1,
      "note": 73,
      "start": 9.1947,
      "duration": 0.0749,
      "velocity": 107,
      "chip": "ym2612"
    },
    {
      "channel": 2,
      "note": 70,
      "start": 9.1973,
      "duration": 0.0729,
      "velocity": 107,
      "chip": "ym2612"
    },
    {
      "channel": 5,
      "note": 58,
      "start": 9.2002,
      "duration": 0.0298,
      "velocity": 127,
      "chip": "ym2612"
    },
    {
      "channel": 5,
      "note": 58,
      "start": 9.2934,
      "duration": 0.0364,
      "velocity": 127,
      "chip": "ym2612"
    },
    {
      "channel": 0,
      "note": 78,
      "start": 9.3914,
      "duration": 0.0768,
      "velocity": 107,
      "chip": "ym2612"
    },
    {
      "channel": 1,
      "note": 73,
      "start": 9.394,
      "duration": 0.0747,
      "velocity": 107,
      "chip": "ym2612"
    },
    {
      "channel": 2,
      "note": 70,
      "start": 9.3967,
      "duration": 0.0727,
      "velocity": 107,
      "chip": "ym2612"
    },
    {
      "channel": 5,
      "note": 58,
      "start": 9.3996,
      "duration": 0.1295,
      "velocity": 127,
      "chip": "ym2612"
    },
    {
      "channel": 0,
      "note": 78,
      "start": 9.5907,
      "duration": 0.077,
      "velocity": 107,
      "chip": "ym2612"
    },
    {
      "channel": 1,
      "note": 73,
      "start": 9.5934,
      "duration": 0.0749,
      "velocity": 107,
      "chip": "ym2612"
    },
    {
      "channel": 2,
      "note": 70,
      "start": 9.5961,
      "duration": 0.0729,
      "velocity": 107,
      "chip": "ym2612"
    },
    {
      "channel": 5,
      "note": 58,
      "start": 9.599,
      "duration": 0.0298,
      "velocity": 127,
      "chip": "ym2612"
    },
    {
      "channel": 5,
      "note": 58,
      "start": 9.6921,
      "duration": 0.0364,
      "velocity": 127,
      "chip": "ym2612"
    },
    {
      "channel": 0,
      "note": 78,
      "start": 9.7901,
      "duration": 0.0768,
      "velocity": 107,
      "chip": "ym2612"
    },
    {
      "channel": 1,
      "note": 73,
      "start": 9.7928,
      "duration": 0.0747,
      "velocity": 107,
      "chip": "ym2612"
    },
    {
      "channel": 2,
      "note": 70,
      "start": 9.7954,
      "duration": 0.0727,
      "velocity": 107,
      "chip": "ym2612"
    },
    {
      "channel": 5,
      "note": 58,
      "start": 9.7983,
      "duration": 0.1295,
      "velocity": 127,
      "chip": "ym2612"
    },
    {
      "channel": 0,
      "note": 75,
      "start": 9.9895,
      "duration": 0.077,
      "velocity": 107,
      "chip": "ym2612"
    },
    {
      "channel": 1,
      "note": 71,
      "start": 9.9921,
      "duration": 0.0749,
      "velocity": 107,
      "chip": "ym2612"
    },
    {
      "channel": 2,
      "note": 68,
      "start": 9.9948,
      "duration": 0.0729,
      "velocity": 107,
      "chip": "ym2612"
    },
    {
      "channel": 5,
      "note": 58,
      "start": 9.9977,
      "duration": 0.0298,
      "velocity": 127,
      "chip": "ym2612"
    },
    {
      "channel": 5,
      "note": 58,
      "start": 10.0909,
      "duration": 0.0364,
      "velocity": 127,
      "chip": "ym2612"
    },
    {
      "channel": 0,
      "note": 75,
      "start": 10.1888,
      "duration": 0.0776,
      "velocity": 107,
      "chip": "ym2612"
    },
    {
      "channel": 1,
      "note": 71,
      "start": 10.1915,
      "duration": 0.0756,
      "velocity": 107,
      "chip": "ym2612"
    },
    {
      "channel": 2,
      "note": 68,
      "start": 10.1942,
      "duration": 0.074,
      "velocity": 107,
      "chip": "ym2612"
    },
    {
      "channel": 5,
      "note": 58,
      "start": 10.1971,
      "duration": 0.1295,
      "velocity": 127,
      "chip": "ym2612"
    },
    {
      "channel": 0,
      "note": 75,
      "start": 10.2883,
      "duration": 0.0772,
      "velocity": 107,
      "chip": "ym2612"
    },
    {
      "channel": 1,
      "note": 71,
      "start": 10.291,
      "duration": 0.0752,
      "velocity": 107,
      "chip": "ym2612"
    },
    {
      "channel": 2,
      "note": 68,
      "start": 10.2937,
      "duration": 0.0732,
      "velocity": 107,
      "chip": "ym2612"
    },
    {
      "channel": 5,
      "note": 58,
      "start": 10.3899,
      "duration": 0.0364,
      "velocity": 127,
      "chip": "ym2612"
    },
    {
      "channel": 0,
      "note": 75,
      "start": 10.4879,
      "duration": 0.0779,
      "velocity": 107,
      "chip": "ym2612"
    },
    {
      "channel": 1,
      "note": 71,
      "start": 10.4905,
      "duration": 0.0759,
      "velocity": 107,
      "chip": "ym2612"
    },
    {
      "channel": 2,
      "note": 68,
      "start": 10.4932,
      "duration": 0.0743,
      "velocity": 107,
      "chip": "ym2612"
    },
    {
      "channel": 5,
      "note": 58,
      "start": 10.4961,
      "duration": 0.0298,
      "velocity": 127,
      "chip": "ym2612"
    },
    {
      "channel": 0,
      "note": 75,
      "start": 10.5876,
      "duration": 0.0768,
      "velocity": 107,
      "chip": "ym2612"
    },
    {
      "channel": 1,
      "note": 71,
      "start": 10.5902,
      "duration": 0.0747,
      "velocity": 107,
      "chip": "ym2612"
    },
    {
      "channel": 2,
      "note": 68,
      "start": 10.5929,
      "duration": 0.0727,
      "velocity": 107,
      "chip": "ym2612"
    },
    {
      "channel": 5,
      "note": 58,
      "start": 10.5958,
      "duration": 0.1295,
      "velocity": 127,
      "chip": "ym2612"
    },
    {
      "channel": 0,
      "note": 75,
      "start": 10.7869,
      "duration": 0.077,
      "velocity": 107,
      "chip": "ym2612"
    },
    {
      "channel": 1,
      "note": 71,
      "start": 10.7896,
      "duration": 0.0749,
      "velocity": 107,
      "chip": "ym2612"
    },
    {
      "channel": 2,
      "note": 68,
      "start": 10.7923,
      "duration": 0.0729,
      "velocity": 107,
      "chip": "ym2612"
    },
    {
      "channel": 5,
      "note": 58,
      "start": 10.7952,
      "duration": 0.0299,
      "velocity": 127,
      "chip": "ym2612"
    },
    {
      "channel": 5,
      "note": 58,
      "start": 10.8883,
      "duration": 0.0364,
      "velocity": 127,
      "chip": "ym2612"
    },
    {
      "channel": 0,
      "note": 75,
      "start": 10.9863,
      "duration": 0.0768,
      "velocity": 107,
      "chip": "ym2612"
    },
    {
      "channel": 1,
      "note": 71,
      "start": 10.989,
      "duration": 0.0747,
      "velocity": 107,
      "chip": "ym2612"
    },
    {
      "channel": 2,
      "note": 68,
      "start": 10.9917,
      "duration": 0.0727,
      "velocity": 107,
      "chip": "ym2612"
    },
    {
      "channel": 5,
      "note": 58,
      "start": 10.9945,
      "duration": 0.1295,
      "velocity": 127,
      "chip": "ym2612"
    },
    {
      "channel": 0,
      "note": 75,
      "start": 11.1856,
      "duration": 0.077,
      "velocity": 107,
      "chip": "ym2612"
    },
    {
      "channel": 1,
      "note": 71,
      "start": 11.1883,
      "duration": 0.0749,
      "velocity": 107,
      "chip": "ym2612"
    },
    {
      "channel": 2,
      "note": 68,
      "start": 11.191,
      "duration": 0.0729,
      "velocity": 107,
      "chip": "ym2612"
    },
    {
      "channel": 5,
      "note": 58,
      "start": 11.1939,
      "duration": 0.0299,
      "velocity": 127,
      "chip": "ym2612"
    },
    {
      "channel": 5,
      "note": 58,
      "start": 11.2871,
      "duration": 0.0364,
      "velocity": 127,
      "chip": "ym2612"
    },
    {
      "channel": 0,
      "note": 75,
      "start": 11.385,
      "duration": 0.0768,
      "velocity": 107,
      "chip": "ym2612"
    },
    {
      "channel": 1,
      "note": 71,
      "start": 11.3877,
      "duration": 0.0748,
      "velocity": 107,
      "chip": "ym2612"
    },
    {
      "channel": 2,
      "note": 68,
      "start": 11.3904,
      "duration": 0.0727,
      "velocity": 107,
      "chip": "ym2612"
    },
    {
      "channel": 5,
      "note": 58,
      "start": 11.3933,
      "duration": 0.1295,
      "velocity": 127,
      "chip": "ym2612"
    },
    {
      "channel": 0,
      "note": 76,
      "start": 11.5844,
      "duration": 0.077,
      "velocity": 107,
      "chip": "ym2612"
    },
    {
      "channel": 1,
      "note": 71,
      "start": 11.5871,
      "duration": 0.0749,
      "velocity": 107,
      "chip": "ym2612"
    },
    {
      "channel": 2,
      "note": 68,
      "start": 11.5898,
      "duration": 0.0729,
      "velocity": 107,
      "chip": "ym2612"
    },
    {
      "channel": 5,
      "note": 58,
      "start": 11.5926,
      "duration": 0.0299,
      "velocity": 127,
      "chip": "ym2612"
    },
    {
      "channel": 5,
      "note": 58,
      "start": 11.6858,
      "duration": 0.0364,
      "velocity": 127,
      "chip": "ym2612"
    },
    {
      "channel": 0,
      "note": 76,
      "start": 11.7837,
      "duration": 0.0776,
      "velocity": 107,
      "chip": "ym2612"
    },
    {
      "channel": 1,
      "note": 71,
      "start": 11.7864,
      "duration": 0.0756,
      "velocity": 107,
      "chip": "ym2612"
    },
    {
      "channel": 2,
      "note": 68,
      "start": 11.7891,
      "duration": 0.074,
      "velocity": 107,
      "chip": "ym2612"
    },
    {
      "channel": 5,
      "note": 58,
      "start": 11.792,
      "duration": 0.1295,
      "velocity": 127,
      "chip": "ym2612"
    },
    {
      "channel": 0,
      "note": 76,
      "start": 11.8832,
      "duration": 0.0775,
      "velocity": 107,
      "chip": "ym2612"
    },
    {
      "channel": 1,
      "note": 71,
      "start": 11.8859,
      "duration": 0.0755,
      "velocity": 107,
      "chip": "ym2612"
    },
    {
      "channel": 2,
      "note": 68,
      "start": 11.8886,
      "duration": 0.0735,
      "velocity": 107,
      "chip": "ym2612"
    },
    {
      "channel": 3,
      "note": -1,
      "start": 11.985,
      "duration": 0.8022,
      "velocity": 101,
      "chip": "ym2612"
    },
    {
      "channel": 5,
      "note": 58,
      "start": 11.9878,
      "duration": 0.0338,
      "velocity": 127,
      "chip": "ym2612"
    },
    {
      "channel": 0,
      "note": 78,
      "start": 12.0829,
      "duration": 0.0778,
      "velocity": 107,
      "chip": "ym2612"
    },
    {
      "channel": 1,
      "note": 73,
      "start": 12.0856,
      "duration": 0.0757,
      "velocity": 107,
      "chip": "ym2612"
    },
    {
      "channel": 2,
      "note": 70,
      "start": 12.0883,
      "duration": 0.0741,
      "velocity": 107,
      "chip": "ym2612"
    },
    {
      "channel": 4,
      "note": -1,
      "start": 12.0916,
      "duration": 0.7891,
      "velocity": 101,
      "chip": "ym2612"
    },
    {
      "channel": 5,
      "note": 58,
      "start": 12.0944,
      "duration": 0.0276,
      "velocity": 127,
      "chip": "ym2612"
    },
    {
      "channel": 0,
      "note": 78,
      "start": 12.1825,
      "duration": 0.0768,
      "velocity": 107,
      "chip": "ym2612"
    },
    {
      "channel": 1,
      "note": 73,
      "start": 12.1852,
      "duration": 0.0747,
      "velocity": 107,
      "chip": "ym2612"
    },
    {
      "channel": 2,
      "note": 70,
      "start": 12.1878,
      "duration": 0.0727,
      "velocity": 107,
      "chip": "ym2612"
    },
    {
      "channel": 5,
      "note": 58,
      "start": 12.1915,
      "duration": 0.1296,
      "velocity": 127,
      "chip": "ym2612"
    },
    {
      "channel": 0,
      "note": 78,
      "start": 12.3818,
      "duration": 0.077,
      "velocity": 107,
      "chip": "ym2612"
    },
    {
      "channel": 1,
      "note": 73,
      "start": 12.3845,
      "duration": 0.0749,
      "velocity": 107,
      "chip": "ym2612"
    },
    {
      "channel": 2,
      "note": 70,
      "start": 12.3872,
      "duration": 0.0729,
      "velocity": 107,
      "chip": "ym2612"
    },
    {
      "channel": 5,
      "note": 58,
      "start": 12.3908,
      "duration": 0.0299,
      "velocity": 127,
      "chip": "ym2612"
    },
    {
      "channel": 5,
      "note": 58,
      "start": 12.484,
      "duration": 0.0364,
      "velocity": 127,
      "chip": "ym2612"
    },
    {
      "channel": 0,
      "note": 78,
      "start": 12.5812,
      "duration": 0.0768,
      "velocity": 107,
      "chip": "ym2612"
    },
    {
      "channel": 1,
      "note": 73,
      "start": 12.5839,
      "duration": 0.0747,
      "velocity": 107,
      "chip": "ym2612"
    },
    {
      "channel": 2,
      "note": 70,
      "start": 12.5866,
      "duration": 0.0727,
      "velocity": 107,
      "chip": "ym2612"
    },
    {
      "channel": 5,
      "note": 58,
      "start": 12.5902,
      "duration": 0.1295,
      "velocity": 127,
      "chip": "ym2612"
    },
    {
      "channel": 0,
      "note": 80,
      "start": 12.7807,
      "duration": 0.0771,
      "velocity": 107,
      "chip": "ym2612"
    },
    {
      "channel": 1,
      "note": 75,
      "start": 12.7834,
      "duration": 0.0751,
      "velocity": 107,
      "chip": "ym2612"
    },
    {
      "channel": 2,
      "note": 71,
      "start": 12.7861,
      "duration": 0.073,
      "velocity": 107,
      "chip": "ym2612"
    },
    {
      "channel": 3,
      "note": 63,
      "start": 12.789,
      "duration": 0.789,
      "velocity": 101,
      "chip": "ym2612"
    },
    {
      "channel": 5,
      "note": 58,
      "start": 12.7922,
      "duration": 0.0273,
      "velocity": 127,
      "chip": "ym2612"
    },
    {
      "channel": 4,
      "note": 63,
      "start": 12.8826,
      "duration": 0.8021,
      "velocity": 101,
      "chip": "ym2612"
    },
    {
      "channel": 5,
      "note": 58,
      "start": 12.8853,
      "duration": 0.0341,
      "velocity": 127,
      "chip": "ym2612"
    },
    {
      "channel": 0,
      "note": 80,
      "start": 12.9799,
      "duration": 0.0768,
      "velocity": 107,
      "chip": "ym2612"
    },
    {
      "channel": 1,
      "note": 75,
      "start": 12.9826,
      "duration": 0.0747,
      "velocity": 107,
      "chip": "ym2612"
    },
    {
      "channel": 2,
      "note": 71,
      "start": 12.9853,
      "duration": 0.0727,
      "velocity": 107,
      "chip": "ym2612"
    },
    {
      "channel": 5,
      "note": 58,
      "start": 12.9889,
      "duration": 0.1296,
      "velocity": 127,
      "chip": "ym2612"
    },
    {
      "channel": 0,
      "note": 75,
      "start": 13.1793,
      "duration": 0.0769,
      "velocity": 107,
      "chip": "ym2612"
    },
    {
      "channel": 1,
      "note": 71,
      "start": 13.182,
      "duration": 0.0749,
      "velocity": 107,
      "chip": "ym2612"
    },
    {
      "channel": 2,
      "note": 68,
      "start": 13.1847,
      "duration": 0.0729,
      "velocity": 107,
      "chip": "ym2612"
    },
    {
      "channel": 5,
      "note": 58,
      "start": 13.1883,
      "duration": 0.0298,
      "velocity": 127,
      "chip": "ym2612"
    },
    {
      "channel": 5,
      "note": 58,
      "start": 13.2814,
      "duration": 0.0364,
      "velocity": 127,
      "chip": "ym2612"
    },
    {
      "channel": 0,
      "note": 75,
      "start": 13.3787,
      "duration": 0.0779,
      "velocity": 107,
      "chip": "ym2612"
    },
    {
      "channel": 1,
      "note": 71,
      "start": 13.3814,
      "duration": 0.0759,
      "velocity": 107,
      "chip": "ym2612"
    },
    {
      "channel": 2,
      "note": 68,
      "start": 13.384,
      "duration": 0.0743,
      "velocity": 107,
      "chip": "ym2612"
    },
    {
      "channel": 5,
      "note": 58,
      "start": 13.3876,
      "duration": 0.1295,
      "velocity": 127,
      "chip": "ym2612"
    },
    {
      "channel": 0,
      "note": 75,
      "start": 13.4782,
      "duration": 0.0775,
      "velocity": 107,
      "chip": "ym2612"
    },
    {
      "channel": 1,
      "note": 71,
      "start": 13.4809,
      "duration": 0.0754,
      "velocity": 107,
      "chip": "ym2612"
    },
    {
      "channel": 2,
      "note": 68,
      "start": 13.4835,
      "duration": 0.0734,
      "velocity": 107,
      "chip": "ym2612"
    },
    {
      "channel": 3,
      "note": 68,
      "start": 13.5799,
      "duration": 0.8021,
      "velocity": 101,
      "chip": "ym2612"
    },
    {
      "channel": 5,
      "note": 58,
      "start": 13.5831,
      "duration": 0.0338,
      "velocity": 127,
      "chip": "ym2612"
    },
    {
      "channel": 0,
      "note": 75,
      "start": 13.6779,
      "duration": 0.0778,
      "velocity": 107,
      "chip": "ym2612"
    },
    {
      "channel": 1,
      "note": 71,
      "start": 13.6806,
      "duration": 0.0757,
      "velocity": 107,
      "chip": "ym2612"
    },
    {
      "channel": 2,
      "note": 68,
      "start": 13.6832,
      "duration": 0.0741,
      "velocity": 107,
      "chip": "ym2612"
    },
    {
      "channel": 4,
      "note": 68,
      "start": 13.6866,
      "duration": 0.789,
      "velocity": 101,
      "chip": "ym2612"
    },
    {
      "channel": 5,
      "note": 58,
      "start": 13.6893,
      "duration": 0.0276,
      "velocity": 127,
      "chip": "ym2612"
    },
    {
      "channel": 0,
      "note": 75,
      "start": 13.7774,
      "duration": 0.0768,
      "velocity": 107,
      "chip": "ym2612"
    },
    {
      "channel": 1,
      "note": 71,
      "start": 13.7801,
      "duration": 0.0747,
      "velocity": 107,
      "chip": "ym2612"
    },
    {
      "channel": 2,
      "note": 68,
      "start": 13.7828,
      "duration": 0.0727,
      "velocity": 107,
      "chip": "ym2612"
    },
    {
      "channel": 5,
      "note": 58,
      "start": 13.7864,
      "duration": 0.1296,
      "velocity": 127,
      "chip": "ym2612"
    },
    {
      "channel": 0,
      "note": 75,
      "start": 13.9768,
      "duration": 0.077,
      "velocity": 107,
      "chip": "ym2612"
    },
    {
      "channel": 1,
      "note": 71,
      "start": 13.9795,
      "duration": 0.0749,
      "velocity": 107,
      "chip": "ym2612"
    },
    {
      "channel": 2,
      "note": 68,
      "start": 13.9821,
      "duration": 0.0729,
      "velocity": 107,
      "chip": "ym2612"
    },
    {
      "channel": 5,
      "note": 58,
      "start": 13.9858,
      "duration": 0.0298,
      "velocity": 127,
      "chip": "ym2612"
    },
    {
      "channel": 5,
      "note": 58,
      "start": 14.0789,
      "duration": 0.0364,
      "velocity": 127,
      "chip": "ym2612"
    },
    {
      "channel": 0,
      "note": 75,
      "start": 14.1761,
      "duration": 0.0768,
      "velocity": 107,
      "chip": "ym2612"
    },
    {
      "channel": 1,
      "note": 71,
      "start": 14.1788,
      "duration": 0.0747,
      "velocity": 107,
      "chip": "ym2612"
    },
    {
      "channel": 2,
      "note": 68,
      "start": 14.1815,
      "duration": 0.0727,
      "velocity": 107,
      "chip": "ym2612"
    },
    {
      "channel": 5,
      "note": 58,
      "start": 14.1851,
      "duration": 0.1295,
      "velocity": 127,
      "chip": "ym2612"
    },
    {
      "channel": 0,
      "note": 75,
      "start": 14.3756,
      "duration": 0.0771,
      "velocity": 107,
      "chip": "ym2612"
    },
    {
      "channel": 1,
      "note": 71,
      "start": 14.3783,
      "duration": 0.075,
      "velocity": 107,
      "chip": "ym2612"
    },
    {
      "channel": 2,
      "note": 68,
      "start": 14.381,
      "duration": 0.073,
      "velocity": 107,
      "chip": "ym2612"
    },
    {
      "channel": 3,
      "note": 68,
      "start": 14.3839,
      "duration": 2.8621,
      "velocity": 101,
      "chip": "ym2612"
    },
    {
      "channel": 5,
      "note": 58,
      "start": 14.3871,
      "duration": 0.0273,
      "velocity": 127,
      "chip": "ym2612"
    },
    {
      "channel": 4,
      "note": 68,
      "start": 14.4775,
      "duration": 2.8688,
      "velocity": 101,
      "chip": "ym2612"
    },
    {
      "channel": 5,
      "note": 58,
      "start": 14.4802,
      "duration": 0.0338,
      "velocity": 127,
      "chip": "ym2612"
    },
    {
      "channel": 0,
      "note": 75,
      "start": 14.5749,
      "duration": 0.0768,
      "velocity": 107,
      "chip": "ym2612"
    },
    {
      "channel": 1,
      "note": 71,
      "start": 14.5776,
      "duration": 0.0747,
      "velocity": 107,
      "chip": "ym2612"
    },
    {
      "channel": 2,
      "note": 68,
      "start": 14.5802,
      "duration": 0.0727,
      "velocity": 107,
      "chip": "ym2612"
    },
    {
      "channel": 5,
      "note": 58,
      "start": 14.5839,
      "duration": 0.1296,
      "velocity": 127,
      "chip": "ym2612"
    },
    {
      "channel": 0,
      "note": 76,
      "start": 14.7742,
      "duration": 0.077,
      "velocity": 107,
      "chip": "ym2612"
    },
    {
      "channel": 1,
      "note": 71,
      "start": 14.7769,
      "duration": 0.0749,
      "velocity": 107,
      "chip": "ym2612"
    },
    {
      "channel": 2,
      "note": 68,
      "start": 14.7796,
      "duration": 0.0729,
      "velocity": 107,
      "chip": "ym2612"
    },
    {
      "channel": 5,
      "note": 58,
      "start": 14.7832,
      "duration": 0.0298,
      "velocity": 127,
      "chip": "ym2612"
    },
    {
      "channel": 5,
      "note": 58,
      "start": 14.8764,
      "duration": 0.0364,
      "velocity": 127,
      "chip": "ym2612"
    },
    {
      "channel": 0,
      "note": 76,
      "start": 14.9736,
      "duration": 0.0776,
      "velocity": 107,
      "chip": "ym2612"
    },
    {
      "channel": 1,
      "note": 71,
      "start": 14.9763,
      "duration": 0.0756,
      "velocity": 107,
      "chip": "ym2612"
    },
    {
      "channel": 2,
      "note": 68,
      "start": 14.979,
      "duration": 0.074,
      "velocity": 107,
      "chip": "ym2612"
    },
    {
      "channel": 5,
      "note": 58,
      "start": 14.9826,
      "duration": 0.1295,
      "velocity": 127,
      "chip": "ym2612"
    },
    {
      "channel": 0,
      "note": 76,
      "start": 15.0731,
      "duration": 0.0772,
      "velocity": 107,
      "chip": "ym2612"
    },
    {
      "channel": 1,
      "note": 71,
      "start": 15.0758,
      "duration": 0.0752,
      "velocity": 107,
      "chip": "ym2612"
    },
    {
      "channel": 2,
      "note": 68,
      "start": 15.0785,
      "duration": 0.0732,
      "velocity": 107,
      "chip": "ym2612"
    },
    {
      "channel": 5,
      "note": 58,
      "start": 15.1754,
      "duration": 0.0363,
      "velocity": 127,
      "chip": "ym2612"
    },
    {
      "channel": 0,
      "note": 78,
      "start": 15.2727,
      "duration": 0.0779,
      "velocity": 107,
      "chip": "ym2612"
    },
    {
      "channel": 1,
      "note": 73,
      "start": 15.2753,
      "duration": 0.0759,
      "velocity": 107,
      "chip": "ym2612"
    },
    {
      "channel": 2,
      "note": 70,
      "start": 15.278,
      "duration": 0.0743,
      "velocity": 107,
      "chip": "ym2612"
    },
    {
      "channel": 5,
      "note": 58,
      "start": 15.2816,
      "duration": 0.0298,
      "velocity": 127,
      "chip": "ym2612"
    },
    {
      "channel": 0,
      "note": 78,
      "start": 15.3723,
      "duration": 0.0768,
      "velocity": 107,
      "chip": "ym2612"
    },
    {
      "channel": 1,
      "note": 73,
      "start": 15.375,
      "duration": 0.0747,
      "velocity": 107,
      "chip": "ym2612"
    },
    {
      "channel": 2,
      "note": 70,
      "start": 15.3777,
      "duration": 0.0727,
      "velocity": 107,
      "chip": "ym2612"
    },
    {
      "channel": 5,
      "note": 58,
      "start": 15.3813,
      "duration": 0.1295,
      "velocity": 127,
      "chip": "ym2612"
    },
    {
      "channel": 0,
      "note": 78,
      "start": 15.5717,
      "duration": 0.077,
      "velocity": 107,
      "chip": "ym2612"
    },
    {
      "channel": 1,
      "note": 73,
      "start": 15.5744,
      "duration": 0.0749,
      "velocity": 107,
      "chip": "ym2612"
    },
    {
      "channel": 2,
      "note": 70,
      "start": 15.5771,
      "duration": 0.0729,
      "velocity": 107,
      "chip": "ym2612"
    },
    {
      "channel": 5,
      "note": 58,
      "start": 15.5807,
      "duration": 0.0298,
      "velocity": 127,
      "chip": "ym2612"
    },
    {
      "channel": 5,
      "note": 58,
      "start": 15.6738,
      "duration": 0.0364,
      "velocity": 127,
      "chip": "ym2612"
    },
    {
      "channel": 0,
      "note": 78,
      "start": 15.7711,
      "duration": 0.0768,
      "velocity": 107,
      "chip": "ym2612"
    },
    {
      "channel": 1,
      "note": 73,
      "start": 15.7738,
      "duration": 0.0747,
      "velocity": 107,
      "chip": "ym2612"
    },
    {
      "channel": 2,
      "note": 70,
      "start": 15.7764,
      "duration": 0.0727,
      "velocity": 107,
      "chip": "ym2612"
    },
    {
      "channel": 5,
      "note": 58,
      "start": 15.78,
      "duration": 0.1295,
      "velocity": 127,
      "chip": "ym2612"
    },
    {
      "channel": 0,
      "note": 78,
      "start": 15.9704,
      "duration": 0.077,
      "velocity": 107,
      "chip": "ym2612"
    },
    {
      "channel": 1,
      "note": 73,
      "start": 15.9731,
      "duration": 0.0749,
      "velocity": 107,
      "chip": "ym2612"
    },
    {
      "channel": 2,
      "note": 70,
      "start": 15.9758,
      "duration": 0.0729,
      "velocity": 107,
      "chip": "ym2612"
    },
    {
      "channel": 5,
      "note": 58,
      "start": 15.9794,
      "duration": 0.0298,
      "velocity": 127,
      "chip": "ym2612"
    },
    {
      "channel": 5,
      "note": 58,
      "start": 16.0726,
      "duration": 0.0364,
      "velocity": 127,
      "chip": "ym2612"
    },
    {
      "channel": 0,
      "note": 78,
      "start": 16.1698,
      "duration": 0.0768,
      "velocity": 107,
      "chip": "ym2612"
    },
    {
      "channel": 1,
      "note": 73,
      "start": 16.1725,
      "duration": 0.0747,
      "velocity": 107,
      "chip": "ym2612"
    },
    {
      "channel": 2,
      "note": 70,
      "start": 16.1752,
      "duration": 0.0727,
      "velocity": 107,
      "chip": "ym2612"
    },
    {
      "channel": 5,
      "note": 58,
      "start": 16.1788,
      "duration": 0.1295,
      "velocity": 127,
      "chip": "ym2612"
    },
    {
      "channel": 0,
      "note": 75,
      "start": 16.3692,
      "duration": 0.077,
      "velocity": 107,
      "chip": "ym2612"
    },
    {
      "channel": 1,
      "note": 71,
      "start": 16.3718,
      "duration": 0.0749,
      "velocity": 107,
      "chip": "ym2612"
    },
    {
      "channel": 2,
      "note": 68,
      "start": 16.3745,
      "duration": 0.0729,
      "velocity": 107,
      "chip": "ym2612"
    },
    {
      "channel": 5,
      "note": 58,
      "start": 16.3781,
      "duration": 0.0298,
      "velocity": 127,
      "chip": "ym2612"
    },
    {
      "channel": 5,
      "note": 58,
      "start": 16.4713,
      "duration": 0.0364,
      "velocity": 127,
      "chip": "ym2612"
    },
    {
      "channel": 0,
      "note": 75,
      "start": 16.5685,
      "duration": 0.0776,
      "velocity": 107,
      "chip": "ym2612"
    },
    {
      "channel": 1,
      "note": 71,
      "start": 16.5712,
      "duration": 0.0756,
      "velocity": 107,
      "chip": "ym2612"
    },
    {
      "channel": 2,
      "note": 68,
      "start": 16.5739,
      "duration": 0.074,
      "velocity": 107,
      "chip": "ym2612"
    },
    {
      "channel": 5,
      "note": 58,
      "start": 16.5775,
      "duration": 0.1295,
      "velocity": 127,
      "chip": "ym2612"
    },
    {
      "channel": 0,
      "note": 75,
      "start": 16.668,
      "duration": 0.0773,
      "velocity": 107,
      "chip": "ym2612"
    },
    {
      "channel": 1,
      "note": 71,
      "start": 16.6707,
      "duration": 0.0752,
      "velocity": 107,
      "chip": "ym2612"
    },
    {
      "channel": 2,
      "note": 68,
      "start": 16.6734,
      "duration": 0.0732,
      "velocity": 107,
      "chip": "ym2612"
    },
    {
      "channel": 5,
      "note": 58,
      "start": 16.7703,
      "duration": 0.0364,
      "velocity": 127,
      "chip": "ym2612"
    },
    {
      "channel": 0,
      "note": 75,
      "start": 16.8676,
      "duration": 0.0779,
      "velocity": 107,
      "chip": "ym2612"
    },
    {
      "channel": 1,
      "note": 71,
      "start": 16.8703,
      "duration": 0.0759,
      "velocity": 107,
      "chip": "ym2612"
    },
    {
      "channel": 2,
      "note": 68,
      "start": 16.8729,
      "duration": 0.0743,
      "velocity": 107,
      "chip": "ym2612"
    },
    {
      "channel": 5,
      "note": 58,
      "start": 16.8766,
      "duration": 0.0298,
      "velocity": 127,
      "chip": "ym2612"
    },
    {
      "channel": 0,
      "note": 75,
      "start": 16.9673,
      "duration": 0.0768,
      "velocity": 107,
      "chip": "ym2612"
    },
    {
      "channel": 1,
      "note": 71,
      "start": 16.97,
      "duration": 0.0747,
      "velocity": 107,
      "chip": "ym2612"
    },
    {
      "channel": 2,
      "note": 68,
      "start": 16.9726,
      "duration": 0.0727,
      "velocity": 107,
      "chip": "ym2612"
    },
    {
      "channel": 5,
      "note": 58,
      "start": 16.9762,
      "duration": 0.1295,
      "velocity": 127,
      "chip": "ym2612"
    },
    {
      "channel": 0,
      "note": 75,
      "start": 17.1666,
      "duration": 0.0769,
      "velocity": 107,
      "chip": "ym2612"
    },
    {
      "channel": 1,
      "note": 71,
      "start": 17.1693,
      "duration": 0.0749,
      "velocity": 107,
      "chip": "ym2612"
    },
    {
      "channel": 2,
      "note": 68,
      "start": 17.172,
      "duration": 0.0729,
      "velocity": 107,
      "chip": "ym2612"
    },
    {
      "channel": 5,
      "note": 58,
      "start": 17.1756,
      "duration": 0.0298,
      "velocity": 127,
      "chip": "ym2612"
    },
    {
      "channel": 5,
      "note": 58,
      "start": 17.2688,
      "duration": 0.0364,
      "velocity": 127,
      "chip": "ym2612"
    },
    {
      "channel": 0,
      "note": 75,
      "start": 17.366,
      "duration": 0.0768,
      "velocity": 107,
      "chip": "ym2612"
    },
    {
      "channel": 1,
      "note": 71,
      "start": 17.3687,
      "duration": 0.0747,
      "velocity": 107,
      "chip": "ym2612"
    },
    {
      "channel": 2,
      "note": 68,
      "start": 17.3714,
      "duration": 0.0727,
      "velocity": 107,
      "chip": "ym2612"
    },
    {
      "channel": 5,
      "note": 58,
      "start": 17.375,
      "duration": 0.1295,
      "velocity": 127,
      "chip": "ym2612"
    },
    {
      "channel": 0,
      "note": 75,
      "start": 17.5654,
      "duration": 0.077,
      "velocity": 107,
      "chip": "ym2612"
    },
    {
      "channel": 1,
      "note": 71,
      "start": 17.568,
      "duration": 0.0749,
      "velocity": 107,
      "chip": "ym2612"
    },
    {
      "channel": 2,
      "note": 68,
      "start": 17.5707,
      "duration": 0.0729,
      "velocity": 107,
      "chip": "ym2612"
    },
    {
      "channel": 5,
      "note": 58,
      "start": 17.5743,
      "duration": 0.0298,
      "velocity": 127,
      "chip": "ym2612"
    },
    {
      "channel": 5,
      "note": 58,
      "start": 17.6675,
      "duration": 0.0364,
      "velocity": 127,
      "chip": "ym2612"
    },
    {
      "channel": 0,
      "note": 75,
      "start": 17.7647,
      "duration": 0.0768,
      "velocity": 107,
      "chip": "ym2612"
    },
    {
      "channel": 1,
      "note": 71,
      "start": 17.7674,
      "duration": 0.0747,
      "velocity": 107,
      "chip": "ym2612"
    },
    {
      "channel": 2,
      "note": 68,
      "start": 17.7701,
      "duration": 0.0727,
      "velocity": 107,
      "chip": "ym2612"
    },
    {
      "channel": 5,
      "note": 58,
      "start": 17.7737,
      "duration": 0.1295,
      "velocity": 127,
      "chip": "ym2612"
    },
    {
      "channel": 0,
      "note": 76,
      "start": 17.9641,
      "duration": 0.077,
      "velocity": 107,
      "chip": "ym2612"
    },
    {
      "channel": 1,
      "note": 71,
      "start": 17.9668,
      "duration": 0.0749,
      "velocity": 107,
      "chip": "ym2612"
    },
    {
      "channel": 2,
      "note": 68,
      "start": 17.9695,
      "duration": 0.0729,
      "velocity": 107,
      "chip": "ym2612"
    },
    {
      "channel": 5,
      "note": 58,
      "start": 17.9731,
      "duration": 0.0298,
      "velocity": 127,
      "chip": "ym2612"
    },
    {
      "channel": 5,
      "note": 58,
      "start": 18.0662,
      "duration": 0.0364,
      "velocity": 127,
      "chip": "ym2612"
    },
    {
      "channel": 0,
      "note": 76,
      "start": 18.1635,
      "duration": 0.0776,
      "velocity": 107,
      "chip": "ym2612"
    },
    {
      "channel": 1,
      "note": 71,
      "start": 18.1661,
      "duration": 0.0756,
      "velocity": 107,
      "chip": "ym2612"
    },
    {
      "channel": 2,
      "note": 68,
      "start": 18.1688,
      "duration": 0.074,
      "velocity": 107,
      "chip": "ym2612"
    },
    {
      "channel": 5,
      "note": 58,
      "start": 18.1724,
      "duration": 0.1295,
      "velocity": 127,
      "chip": "ym2612"
    },
    {
      "channel": 0,
      "note": 76,
      "start": 18.263,
      "duration": 0.0772,
      "velocity": 107,
      "chip": "ym2612"
    },
    {
      "channel": 1,
      "note": 71,
      "start": 18.2656,
      "duration": 0.0752,
      "velocity": 107,
      "chip": "ym2612"
    },
    {
      "channel": 2,
      "note": 68,
      "start": 18.2683,
      "duration": 0.0732,
      "velocity": 107,
      "chip": "ym2612"
    },
    {
      "channel": 5,
      "note": 58,
      "start": 18.3653,
      "duration": 0.0363,
      "velocity": 127,
      "chip": "ym2612"
    },
    {
      "channel": 0,
      "note": 78,
      "start": 18.4625,
      "duration": 0.0779,
      "velocity": 107,
      "chip": "ym2612"
    },
    {
      "channel": 1,
      "note": 73,
      "start": 18.4652,
      "duration": 0.0759,
      "velocity": 107,
      "chip": "ym2612"
    },
    {
      "channel": 2,
      "note": 70,
      "start": 18.4679,
      "duration": 0.0743,
      "velocity": 107,
      "chip": "ym2612"
    },
    {
      "channel": 5,
      "note": 58,
      "start": 18.4715,
      "duration": 0.0298,
      "velocity": 127,
      "chip": "ym2612"
    },
    {
      "channel": 0,
      "note": 78,
      "start": 18.5622,
      "duration": 0.0768,
      "velocity": 107,
      "chip": "ym2612"
    },
    {
      "channel": 1,
      "note": 73,
      "start": 18.5649,
      "duration": 0.0747,
      "velocity": 107,
      "chip": "ym2612"
    },
    {
      "channel": 2,
      "note": 70,
      "start": 18.5676,
      "duration": 0.0727,
      "velocity": 107,
      "chip": "ym2612"
    },
    {
      "channel": 5,
      "note": 58,
      "start": 18.5712,
      "duration": 0.1295,
      "velocity": 127,
      "chip": "ym2612"
    },
    {
      "channel": 0,
      "note": 78,
      "start": 18.7616,
      "duration": 0.077,
      "velocity": 107,
      "chip": "ym2612"
    },
    {
      "channel": 1,
      "note": 73,
      "start": 18.7642,
      "duration": 0.0749,
      "velocity": 107,
      "chip": "ym2612"
    },
    {
      "channel": 2,
      "note": 70,
      "start": 18.7669,
      "duration": 0.0729,
      "velocity": 107,
      "chip": "ym2612"
    },
    {
      "channel": 5,
      "note": 58,
      "start": 18.7705,
      "duration": 0.0298,
      "velocity": 127,
      "chip": "ym2612"
    },
    {
      "channel": 5,
      "note": 58,
      "start": 18.8637,
      "duration": 0.0364,
      "velocity": 127,
      "chip": "ym2612"
    },
    {
      "channel": 0,
      "note": 78,
      "start": 18.9609,
      "duration": 0.0768,
      "velocity": 107,
      "chip": "ym2612"
    },
    {
      "channel": 1,
      "note": 73,
      "start": 18.9636,
      "duration": 0.0747,
      "velocity": 107,
      "chip": "ym2612"
    },
    {
      "channel": 2,
      "note": 70,
      "start": 18.9663,
      "duration": 0.0727,
      "velocity": 107,
      "chip": "ym2612"
    },
    {
      "channel": 5,
      "note": 58,
      "start": 18.9699,
      "duration": 0.1295,
      "velocity": 127,
      "chip": "ym2612"
    },
    {
      "channel": 0,
      "note": 80,
      "start": 19.1605,
      "duration": 0.0771,
      "velocity": 107,
      "chip": "ym2612"
    },
    {
      "channel": 1,
      "note": 75,
      "start": 19.1632,
      "duration": 0.075,
      "velocity": 107,
      "chip": "ym2612"
    },
    {
      "channel": 2,
      "note": 71,
      "start": 19.1658,
      "duration": 0.073,
      "velocity": 107,
      "chip": "ym2612"
    },
    {
      "channel": 3,
      "note": 56,
      "start": 19.1687,
      "duration": 0.7891,
      "velocity": 101,
      "chip": "ym2612"
    },
    {
      "channel": 5,
      "note": 58,
      "start": 19.1719,
      "duration": 0.0273,
      "velocity": 127,
      "chip": "ym2612"
    },
    {
      "channel": 4,
      "note": 56,
      "start": 19.2623,
      "duration": 0.8021,
      "velocity": 101,
      "chip": "ym2612"
    },
    {
      "channel": 5,
      "note": 58,
      "start": 19.2651,
      "duration": 0.0341,
      "velocity": 127,
      "chip": "ym2612"
    },
    {
      "channel": 0,
      "note": 80,
      "start": 19.3597,
      "duration": 0.0768,
      "velocity": 107,
      "chip": "ym2612"
    },
    {
      "channel": 1,
      "note": 75,
      "start": 19.3623,
      "duration": 0.0747,
      "velocity": 107,
      "chip": "ym2612"
    },
    {
      "channel": 2,
      "note": 71,
      "start": 19.365,
      "duration": 0.0727,
      "velocity": 107,
      "chip": "ym2612"
    },
    {
      "channel": 5,
      "note": 58,
      "start": 19.3686,
      "duration": 0.1296,
      "velocity": 127,
      "chip": "ym2612"
    },
    {
      "channel": 0,
      "note": 75,
      "start": 19.559,
      "duration": 0.077,
      "velocity": 107,
      "chip": "ym2612"
    },
    {
      "channel": 1,
      "note": 71,
      "start": 19.5617,
      "duration": 0.0749,
      "velocity": 107,
      "chip": "ym2612"
    },
    {
      "channel": 2,
      "note": 68,
      "start": 19.5644,
      "duration": 0.0729,
      "velocity": 107,
      "chip": "ym2612"
    },
    {
      "channel": 5,
      "note": 58,
      "start": 19.568,
      "duration": 0.0298,
      "velocity": 127,
      "chip": "ym2612"
    },
    {
      "channel": 5,
      "note": 58,
      "start": 19.6611,
      "duration": 0.0364,
      "velocity": 127,
      "chip": "ym2612"
    },
    {
      "channel": 0,
      "note": 75,
      "start": 19.7584,
      "duration": 0.0779,
      "velocity": 107,
      "chip": "ym2612"
    },
    {
      "channel": 1,
      "note": 71,
      "start": 19.7611,
      "duration": 0.0759,
      "velocity": 107,
      "chip": "ym2612"
    },
    {
      "channel": 2,
      "note": 68,
      "start": 19.7638,
      "duration": 0.0743,
      "velocity": 107,
      "chip": "ym2612"
    },
    {
      "channel": 5,
      "note": 58,
      "start": 19.7674,
      "duration": 0.1295,
      "velocity": 127,
      "chip": "ym2612"
    },
    {
      "channel": 0,
      "note": 75,
      "start": 19.8579,
      "duration": 0.0775,
      "velocity": 107,
      "chip": "ym2612"
    },
    {
      "channel": 1,
      "note": 71,
      "start": 19.8606,
      "duration": 0.0755,
      "velocity": 107,
      "chip": "ym2612"
    },
    {
      "channel": 2,
      "note": 68,
      "start": 19.8633,
      "duration": 0.0734,
      "velocity": 107,
      "chip": "ym2612"
    },
    {
      "channel": 3,
      "note": 68,
      "start": 19.9596,
      "duration": 0.8021,
      "velocity": 101,
      "chip": "ym2612"
    },
    {
      "channel": 5,
      "note": 58,
      "start": 19.9628,
      "duration": 0.0338,
      "velocity": 127,
      "chip": "ym2612"
    },
    {
      "channel": 0,
      "note": 75,
      "start": 20.0576,
      "duration": 0.0778,
      "velocity": 107,
      "chip": "ym2612"
    },
    {
      "channel": 1,
      "note": 71,
      "start": 20.0603,
      "duration": 0.0757,
      "velocity": 107,
      "chip": "ym2612"
    },
    {
      "channel": 2,
      "note": 68,
      "start": 20.063,
      "duration": 0.0741,
      "velocity": 107,
      "chip": "ym2612"
    },
    {
      "channel": 4,
      "note": 68,
      "start": 20.0663,
      "duration": 0.7891,
      "velocity": 101,
      "chip": "ym2612"
    },
    {
      "channel": 5,
      "note": 58,
      "start": 20.069,
      "duration": 0.0276,
      "velocity": 127,
      "chip": "ym2612"
    },
    {
      "channel": 0,
      "note": 75,
      "start": 20.1571,
      "duration": 0.0768,
      "velocity": 107,
      "chip": "ym2612"
    },
    {
      "channel": 1,
      "note": 71,
      "start": 20.1598,
      "duration": 0.0747,
      "velocity": 107,
      "chip": "ym2612"
    },
    {
      "channel": 2,
      "note": 68,
      "start": 20.1625,
      "duration": 0.0727,
      "velocity": 107,
      "chip": "ym2612"
    },
    {
      "channel": 5,
      "note": 58,
      "start": 20.1661,
      "duration": 0.1296,
      "velocity": 127,
      "chip": "ym2612"
    },
    {
      "channel": 0,
      "note": 75,
      "start": 20.3565,
      "duration": 0.077,
      "velocity": 107,
      "chip": "ym2612"
    },
    {
      "channel": 1,
      "note": 71,
      "start": 20.3592,
      "duration": 0.0749,
      "velocity": 107,
      "chip": "ym2612"
    },
    {
      "channel": 2,
      "note": 68,
      "start": 20.3619,
      "duration": 0.0729,
      "velocity": 107,
      "chip": "ym2612"
    },
    {
      "channel": 5,
      "note": 58,
      "start": 20.3655,
      "duration": 0.0298,
      "velocity": 127,
      "chip": "ym2612"
    },
    {
      "channel": 5,
      "note": 58,
      "start": 20.4586,
      "duration": 0.0364,
      "velocity": 127,
      "chip": "ym2612"
    },
    {
      "channel": 0,
      "note": 75,
      "start": 20.5559,
      "duration": 0.0768,
      "velocity": 107,
      "chip": "ym2612"
    },
    {
      "channel": 1,
      "note": 71,
      "start": 20.5585,
      "duration": 0.0747,
      "velocity": 107,
      "chip": "ym2612"
    },
    {
      "channel": 2,
      "note": 68,
      "start": 20.5612,
      "duration": 0.0727,
      "velocity": 107,
      "chip": "ym2612"
    },
    {
      "channel": 5,
      "note": 58,
      "start": 20.5649,
      "duration": 0.1295,
      "velocity": 127,
      "chip": "ym2612"
    },
    {
      "channel": 0,
      "note": 75,
      "start": 20.7554,
      "duration": 0.0771,
      "velocity": 107,
      "chip": "ym2612"
    },
    {
      "channel": 1,
      "note": 71,
      "start": 20.758,
      "duration": 0.075,
      "velocity": 107,
      "chip": "ym2612"
    },
    {
      "channel": 2,
      "note": 68,
      "start": 20.7607,
      "duration": 0.073,
      "velocity": 107,
      "chip": "ym2612"
    },
    {
      "channel": 3,
      "note": 68,
      "start": 20.7636,
      "duration": 2.8621,
      "velocity": 101,
      "chip": "ym2612"
    },
    {
      "channel": 5,
      "note": 58,
      "start": 20.7668,
      "duration": 0.0273,
      "velocity": 127,
      "chip": "ym2612"
    },
    {
      "channel": 4,
      "note": 68,
      "start": 20.8572,
      "duration": 2.8687,
      "velocity": 101,
      "chip": "ym2612"
    },
    {
      "channel": 5,
      "note": 58,
      "start": 20.86,
      "duration": 0.0338,
      "velocity": 127,
      "chip": "ym2612"
    },
    {
      "channel": 0,
      "note": 75,
      "start": 20.9546,
      "duration": 0.0768,
      "velocity": 107,
      "chip": "ym2612"
    },
    {
      "channel": 1,
      "note": 71,
      "start": 20.9573,
      "duration": 0.0747,
      "velocity": 107,
      "chip": "ym2612"
    },
    {
      "channel": 2,
      "note": 68,
      "start": 20.96,
      "duration": 0.0727,
      "velocity": 107,
      "chip": "ym2612"
    },
    {
      "channel": 5,
      "note": 58,
      "start": 20.9636,
      "duration": 0.1296,
      "velocity": 127,
      "chip": "ym2612"
    },
    {
      "channel": 0,
      "note": 76,
      "start": 21.154,
      "duration": 0.077,
      "velocity": 107,
      "chip": "ym2612"
    },
    {
      "channel": 1,
      "note": 71,
      "start": 21.1566,
      "duration": 0.0749,
      "velocity": 107,
      "chip": "ym2612"
    },
    {
      "channel": 2,
      "note": 68,
      "start": 21.1593,
      "duration": 0.0729,
      "velocity": 107,
      "chip": "ym2612"
    },
    {
      "channel": 5,
      "note": 58,
      "start": 21.1629,
      "duration": 0.0298,
      "velocity": 127,
      "chip": "ym2612"
    },
    {
      "channel": 5,
      "note": 58,
      "start": 21.2561,
      "duration": 0.0364,
      "velocity": 127,
      "chip": "ym2612"
    },
    {
      "channel": 0,
      "note": 76,
      "start": 21.3533,
      "duration": 0.0776,
      "velocity": 107,
      "chip": "ym2612"
    },
    {
      "channel": 1,
      "note": 71,
      "start": 21.356,
      "duration": 0.0756,
      "velocity": 107,
      "chip": "ym2612"
    },
    {
      "channel": 2,
      "note": 68,
      "start": 21.3587,
      "duration": 0.074,
      "velocity": 107,
      "chip": "ym2612"
    },
    {
      "channel": 5,
      "note": 58,
      "start": 21.3623,
      "duration": 0.1295,
      "velocity": 127,
      "chip": "ym2612"
    },
    {
      "channel": 0,
      "note": 76,
      "start": 21.4528,
      "duration": 0.0772,
      "velocity": 107,
      "chip": "ym2612"
    },
    {
      "channel": 1,
      "note": 71,
      "start": 21.4555,
      "duration": 0.0752,
      "velocity": 107,
      "chip": "ym2612"
    },
    {
      "channel": 2,
      "note": 68,
      "start": 21.4582,
      "duration": 0.0732,
      "velocity": 107,
      "chip": "ym2612"
    },
    {
      "channel": 5,
      "note": 58,
      "start": 21.5551,
      "duration": 0.0364,
      "velocity": 127,
      "chip": "ym2612"
    },
    {
      "channel": 0,
      "note": 78,
      "start": 21.6524,
      "duration": 0.0779,
      "velocity": 107,
      "chip": "ym2612"
    },
    {
      "channel": 1,
      "note": 73,
      "start": 21.6551,
      "duration": 0.0759,
      "velocity": 107,
      "chip": "ym2612"
    },
    {
      "channel": 2,
      "note": 70,
      "start": 21.6578,
      "duration": 0.0743,
      "velocity": 107,
      "chip": "ym2612"
    },
    {
      "channel": 5,
      "note": 58,
      "start": 21.6614,
      "duration": 0.0298,
      "velocity": 127,
      "chip": "ym2612"
    },
    {
      "channel": 0,
      "note": 78,
      "start": 21.7521,
      "duration": 0.0768,
      "velocity": 107,
      "chip": "ym2612"
    },
    {
      "channel": 1,
      "note": 73,
      "start": 21.7547,
      "duration": 0.0747,
      "velocity": 107,
      "chip": "ym2612"
    },
    {
      "channel": 2,
      "note": 70,
      "start": 21.7574,
      "duration": 0.0727,
      "velocity": 107,
      "chip": "ym2612"
    },
    {
      "channel": 5,
      "note": 58,
      "start": 21.761,
      "duration": 0.1295,
      "velocity": 127,
      "chip": "ym2612"
    },
    {
      "channel": 0,
      "note": 78,
      "start": 21.9514,
      "duration": 0.077,
      "velocity": 107,
      "chip": "ym2612"
    },
    {
      "channel": 1,
      "note": 73,
      "start": 21.9541,
      "duration": 0.0749,
      "velocity": 107,
      "chip": "ym2612"
    },
    {
      "channel": 2,
      "note": 70,
      "start": 21.9568,
      "duration": 0.0729,
      "velocity": 107,
      "chip": "ym2612"
    },
    {
      "channel": 5,
      "note": 58,
      "start": 21.9604,
      "duration": 0.0298,
      "velocity": 127,
      "chip": "ym2612"
    },
    {
      "channel": 5,
      "note": 58,
      "start": 22.0536,
      "duration": 0.0363,
      "velocity": 127,
      "chip": "ym2612"
    },
    {
      "channel": 0,
      "note": 78,
      "start": 22.1508,
      "duration": 0.0768,
      "velocity": 107,
      "chip": "ym2612"
    },
    {
      "channel": 1,
      "note": 73,
      "start": 22.1535,
      "duration": 0.0747,
      "velocity": 107,
      "chip": "ym2612"
    },
    {
      "channel": 2,
      "note": 70,
      "start": 22.1561,
      "duration": 0.0727,
      "velocity": 107,
      "chip": "ym2612"
    },
    {
      "channel": 5,
      "note": 58,
      "start": 22.1598,
      "duration": 0.1295,
      "velocity": 127,
      "chip": "ym2612"
    },
    {
      "channel": 0,
      "note": 78,
      "start": 22.3502,
      "duration": 0.077,
      "velocity": 107,
      "chip": "ym2612"
    },
    {
      "channel": 1,
      "note": 73,
      "start": 22.3528,
      "duration": 0.0749,
      "velocity": 107,
      "chip": "ym2612"
    },
    {
      "channel": 2,
      "note": 70,
      "start": 22.3555,
      "duration": 0.0729,
      "velocity": 107,
      "chip": "ym2612"
    },
    {
      "channel": 5,
      "note": 58,
      "start": 22.3591,
      "duration": 0.0298,
      "velocity": 127,
      "chip": "ym2612"
    },
    {
      "channel": 5,
      "note": 58,
      "start": 22.4523,
      "duration": 0.0364,
      "velocity": 127,
      "chip": "ym2612"
    },
    {
      "channel": 0,
      "note": 78,
      "start": 22.5495,
      "duration": 0.0768,
      "velocity": 107,
      "chip": "ym2612"
    },
    {
      "channel": 1,
      "note": 73,
      "start": 22.5522,
      "duration": 0.0748,
      "velocity": 107,
      "chip": "ym2612"
    },
    {
      "channel": 2,
      "note": 70,
      "start": 22.5549,
      "duration": 0.0727,
      "velocity": 107,
      "chip": "ym2612"
    },
    {
      "channel": 5,
      "note": 58,
      "start": 22.5585,
      "duration": 0.1295,
      "velocity": 127,
      "chip": "ym2612"
    },
    {
      "channel": 0,
      "note": 75,
      "start": 22.7489,
      "duration": 0.077,
      "velocity": 107,
      "chip": "ym2612"
    },
    {
      "channel": 1,
      "note": 71,
      "start": 22.7516,
      "duration": 0.0749,
      "velocity": 107,
      "chip": "ym2612"
    },
    {
      "channel": 2,
      "note": 68,
      "start": 22.7543,
      "duration": 0.0729,
      "velocity": 107,
      "chip": "ym2612"
    },
    {
      "channel": 5,
      "note": 58,
      "start": 22.7579,
      "duration": 0.0298,
      "velocity": 127,
      "chip": "ym2612"
    },
    {
      "channel": 5,
      "note": 58,
      "start": 22.851,
      "duration": 0.0364,
      "velocity": 127,
      "chip": "ym2612"
    },
    {
      "channel": 0,
      "note": 75,
      "start": 22.9483,
      "duration": 0.0776,
      "velocity": 107,
      "chip": "ym2612"
    },
    {
      "channel": 1,
      "note": 71,
      "start": 22.951,
      "duration": 0.0756,
      "velocity": 107,
      "chip": "ym2612"
    },
    {
      "channel": 2,
      "note": 68,
      "start": 22.9536,
      "duration": 0.074,
      "velocity": 107,
      "chip": "ym2612"
    },
    {
      "channel": 5,
      "note": 58,
      "start": 22.9572,
      "duration": 0.1295,
      "velocity": 127,
      "chip": "ym2612"
    },
    {
      "channel": 0,
      "note": 75,
      "start": 23.0478,
      "duration": 0.0773,
      "velocity": 107,
      "chip": "ym2612"
    },
    {
      "channel": 1,
      "note": 71,
      "start": 23.0504,
      "duration": 0.0752,
      "velocity": 107,
      "chip": "ym2612"
    },
    {
      "channel": 2,
      "note": 68,
      "start": 23.0531,
      "duration": 0.0732,
      "velocity": 107,
      "chip": "ym2612"
    },
    {
      "channel": 5,
      "note": 58,
      "start": 23.1501,
      "duration": 0.0364,
      "velocity": 127,
      "chip": "ym2612"
    },
    {
      "channel": 0,
      "note": 75,
      "start": 23.2473,
      "duration": 0.0779,
      "velocity": 107,
      "chip": "ym2612"
    },
    {
      "channel": 1,
      "note": 71,
      "start": 23.25,
      "duration": 0.0759,
      "velocity": 107,
      "chip": "ym2612"
    },
    {
      "channel": 2,
      "note": 68,
      "start": 23.2527,
      "duration": 0.0743,
      "velocity": 107,
      "chip": "ym2612"
    },
    {
      "channel": 5,
      "note": 58,
      "start": 23.2563,
      "duration": 0.0298,
      "velocity": 127,
      "chip": "ym2612"
    },
    {
      "channel": 0,
      "note": 75,
      "start": 23.347,
      "duration": 0.0768,
      "velocity": 107,
      "chip": "ym2612"
    },
    {
      "channel": 1,
      "note": 71,
      "start": 23.3497,
      "duration": 0.0748,
      "velocity": 107,
      "chip": "ym2612"
    },
    {
      "channel": 2,
      "note": 68,
      "start": 23.3524,
      "duration": 0.0727,
      "velocity": 107,
      "chip": "ym2612"
    },
    {
      "channel": 5,
      "note": 58,
      "start": 23.356,
      "duration": 0.1295,
      "velocity": 127,
      "chip": "ym2612"
    },
    {
      "channel": 0,
      "note": 75,
      "start": 23.5463,
      "duration": 0.077,
      "velocity": 107,
      "chip": "ym2612"
    },
    {
      "channel": 1,
      "note": 71,
      "start": 23.549,
      "duration": 0.0749,
      "velocity": 107,
      "chip": "ym2612"
    },
    {
      "channel": 2,
      "note": 68,
      "start": 23.5517,
      "duration": 0.0729,
      "velocity": 107,
      "chip": "ym2612"
    },
    {
      "channel": 5,
      "note": 58,
      "start": 23.5553,
      "duration": 0.0298,
      "velocity": 127,
      "chip": "ym2612"
    },
    {
      "channel": 5,
      "note": 58,
      "start": 23.6485,
      "duration": 0.0364,
      "velocity": 127,
      "chip": "ym2612"
    },
    {
      "channel": 0,
      "note": 75,
      "start": 23.7457,
      "duration": 0.0768,
      "velocity": 107,
      "chip": "ym2612"
    },
    {
      "channel": 1,
      "note": 71,
      "start": 23.7484,
      "duration": 0.0747,
      "velocity": 107,
      "chip": "ym2612"
    },
    {
      "channel": 2,
      "note": 68,
      "start": 23.7511,
      "duration": 0.0727,
      "velocity": 107,
      "chip": "ym2612"
    },
    {
      "channel": 5,
      "note": 58,
      "start": 23.7547,
      "duration": 0.1295,
      "velocity": 127,
      "chip": "ym2612"
    },
    {
      "channel": 0,
      "note": 75,
      "start": 23.9451,
      "duration": 0.077,
      "velocity": 107,
      "chip": "ym2612"
    },
    {
      "channel": 1,
      "note": 71,
      "start": 23.9478,
      "duration": 0.0749,
      "velocity": 107,
      "chip": "ym2612"
    },
    {
      "channel": 2,
      "note": 68,
      "start": 23.9505,
      "duration": 0.0729,
      "velocity": 107,
      "chip": "ym2612"
    },
    {
      "channel": 5,
      "note": 58,
      "start": 23.9541,
      "duration": 0.0298,
      "velocity": 127,
      "chip": "ym2612"
    },
    {
      "channel": 5,
      "note": 58,
      "start": 24.0472,
      "duration": 0.0364,
      "velocity": 127,
      "chip": "ym2612"
    },
    {
      "channel": 0,
      "note": 75,
      "start": 24.1445,
      "duration": 0.0768,
      "velocity": 107,
      "chip": "ym2612"
    },
    {
      "channel": 1,
      "note": 71,
      "start": 24.1471,
      "duration": 0.0747,
      "velocity": 107,
      "chip": "ym2612"
    },
    {
      "channel": 2,
      "note": 68,
      "start": 24.1498,
      "duration": 0.0727,
      "velocity": 107,
      "chip": "ym2612"
    },
    {
      "channel": 5,
      "note": 58,
      "start": 24.1534,
      "duration": 0.1295,
      "velocity": 127,
      "chip": "ym2612"
    },
    {
      "channel": 0,
      "note": 76,
      "start": 24.3438,
      "duration": 0.077,
      "velocity": 107,
      "chip": "ym2612"
    },
    {
      "channel": 1,
      "note": 71,
      "start": 24.3465,
      "duration": 0.0749,
      "velocity": 107,
      "chip": "ym2612"
    },
    {
      "channel": 2,
      "note": 68,
      "start": 24.3492,
      "duration": 0.0729,
      "velocity": 107,
      "chip": "ym2612"
    },
    {
      "channel": 5,
      "note": 58,
      "start": 24.3528,
      "duration": 0.0298,
      "velocity": 127,
      "chip": "ym2612"
    },
    {
      "channel": 5,
      "note": 58,
      "start": 24.4459,
      "duration": 0.0364,
      "velocity": 127,
      "chip": "ym2612"
    },
    {
      "channel": 0,
      "note": 76,
      "start": 24.5432,
      "duration": 0.0776,
      "velocity": 107,
      "chip": "ym2612"
    },
    {
      "channel": 1,
      "note": 71,
      "start": 24.5459,
      "duration": 0.0756,
      "velocity": 107,
      "chip": "ym2612"
    },
    {
      "channel": 2,
      "note": 68,
      "start": 24.5485,
      "duration": 0.074,
      "velocity": 107,
      "chip": "ym2612"
    },
    {
      "channel": 5,
      "note": 58,
      "start": 24.5522,
      "duration": 0.1295,
      "velocity": 127,
      "chip": "ym2612"
    },
    {
      "channel": 0,
      "note": 76,
      "start": 24.6427,
      "duration": 0.0775,
      "velocity": 107,
      "chip": "ym2612"
    },
    {
      "channel": 1,
      "note": 71,
      "start": 24.6454,
      "duration": 0.0754,
      "velocity": 107,
      "chip": "ym2612"
    },
    {
      "channel": 2,
      "note": 68,
      "start": 24.648,
      "duration": 0.0734,
      "velocity": 107,
      "chip": "ym2612"
    },
    {
      "channel": 5,
      "note": 58,
      "start": 24.745,
      "duration": 0.0363,
      "velocity": 127,
      "chip": "ym2612"
    },
    {
      "channel": 0,
      "note": 78,
      "start": 24.842,
      "duration": 0.078,
      "velocity": 107,
      "chip": "ym2612"
    },
    {
      "channel": 1,
      "note": 73,
      "start": 24.8447,
      "duration": 0.076,
      "velocity": 107,
      "chip": "ym2612"
    },
    {
      "channel": 2,
      "note": 70,
      "start": 24.8474,
      "duration": 0.0744,
      "velocity": 107,
      "chip": "ym2612"
    },
    {
      "channel": 0,
      "note": 78,
      "start": 24.9419,
      "duration": 0.021,
      "velocity": 107,
      "chip": "ym2612"
    },
    {
      "channel": 1,
      "note": 73,
      "start": 24.9446,
      "duration": 0.019,
      "velocity": 107,
      "chip": "ym2612"
    },
    {
      "channel": 2,
      "note": 70,
      "start": 24.9473,
      "duration": 0.017,
      "velocity": 107,
      "chip": "ym2612"
    },
    {
      "channel": 0,
      "note": 78,
      "start": 24.9919,
      "duration": 0.0212,
      "velocity": 107,
      "chip": "ym2612"
    },
    {
      "channel": 1,
      "note": 73,
      "start": 24.9945,
      "duration": 0.0191,
      "velocity": 107,
      "chip": "ym2612"
    },
    {
      "channel": 2,
      "note": 70,
      "start": 24.9972,
      "duration": 0.0171,
      "velocity": 107,
      "chip": "ym2612"
    },
    {
      "channel": 0,
      "note": 78,
      "start": 25.0433,
      "duration": 0.0199,
      "velocity": 107,
      "chip": "ym2612"
    },
    {
      "channel": 1,
      "note": 73,
      "start": 25.046,
      "duration": 0.0178,
      "velocity": 107,
      "chip": "ym2612"
    },
    {
      "channel": 2,
      "note": 70,
      "start": 25.0487,
      "duration": 0.0158,
      "velocity": 107,
      "chip": "ym2612"
    },
    {
      "channel": 1,
      "note": 75,
      "start": 25.0961,
      "duration": 0.6161,
      "velocity": 101,
      "chip": "ym2612"
    },
    {
      "channel": 3,
      "note": 54,
      "start": 25.0993,
      "duration": 0.0109,
      "velocity": 79,
      "chip": "ym2612"
    },
    {
      "channel": 4,
      "note": 59,
      "start": 25.1021,
      "duration": 0.0088,
      "velocity": 127,
      "chip": "ym2612"
    },
    {
      "channel": 2,
      "note": 71,
      "start": 25.1237,
      "duration": 0.6073,
      "velocity": 101,
      "chip": "ym2612"
    },
    {
      "channel": 4,
      "note": 58,
      "start": 25.1268,
      "duration": 0.006,
      "velocity": 127,
      "chip": "ym2612"
    },
    {
      "channel": 3,
      "note": 56,
      "start": 25.1471,
      "duration": 0.008,
      "velocity": 107,
      "chip": "ym2612"
    },
    {
      "channel": 4,
      "note": 58,
      "start": 25.1498,
      "duration": 0.0284,
      "velocity": 127,
      "chip": "ym2612"
    },
    {
      "channel": 3,
      "note": 32,
      "start": 25.1697,
      "duration": 0.0048,
      "velocity": 107,
      "chip": "ym2612"
    },
    {
      "channel": 3,
      "note": 32,
      "start": 25.1917,
      "duration": 0.0074,
      "velocity": 107,
      "chip": "ym2612"
    },
    {
      "channel": 4,
      "note": 58,
      "start": 25.1945,
      "duration": 0.0083,
      "velocity": 127,
      "chip": "ym2612"
    },
    {
      "channel": 4,
      "note": 58,
      "start": 25.2142,
      "duration": 0.0057,
      "velocity": 127,
      "chip": "ym2612"
    },
    {
      "channel": 3,
      "note": 44,
      "start": 25.2341,
      "duration": 0.0097,
      "velocity": 79,
      "chip": "ym2612"
    },
    {
      "channel": 4,
      "note": 58,
      "start": 25.2368,
      "duration": 0.0217,
      "velocity": 127,
      "chip": "ym2612"
    },
    {
      "channel": 3,
      "note": 56,
      "start": 25.2734,
      "duration": 0.0072,
      "velocity": 107,
      "chip": "ym2612"
    },
    {
      "channel": 4,
      "note": 58,
      "start": 25.2762,
      "duration": 0.0078,
      "velocity": 127,
      "chip": "ym2612"
    },
    {
      "channel": 3,
      "note": 42,
      "start": 25.297,
      "duration": 0.0072,
      "velocity": 107,
      "chip": "ym2612"
    },
    {
      "channel": 4,
      "note": 58,
      "start": 25.2997,
      "duration": 0.0078,
      "velocity": 127,
      "chip": "ym2612"
    },
    {
      "channel": 3,
      "note": 42,
      "start": 25.3205,
      "duration": 0.0079,
      "velocity": 107,
      "chip": "ym2612"
    },
    {
      "channel": 4,
      "note": 58,
      "start": 25.3232,
      "duration": 0.0263,
      "velocity": 127,
      "chip": "ym2612"
    },
    {
      "channel": 3,
      "note": 44,
      "start": 25.3428,
      "duration": 0.0032,
      "velocity": 107,
      "chip": "ym2612"
    },
    {
      "channel": 3,
      "note": 44,
      "start": 25.3626,
      "duration": 0.0072,
      "velocity": 107,
      "chip": "ym2612"
    },
    {
      "channel": 4,
      "note": 58,
      "start": 25.3653,
      "duration": 0.0078,
      "velocity": 127,
      "chip": "ym2612"
    },
    {
      "channel": 4,
      "note": 58,
      "start": 25.3845,
      "duration": 0.0059,
      "velocity": 127,
      "chip": "ym2612"
    },
    {
      "channel": 3,
      "note": 35,
      "start": 25.405,
      "duration": 0.0097,
      "velocity": 79,
      "chip": "ym2612"
    },
    {
      "channel": 4,
      "note": 58,
      "start": 25.4077,
      "duration": 0.0213,
      "velocity": 127,
      "chip": "ym2612"
    },
    {
      "channel": 3,
      "note": 44,
      "start": 25.4412,
      "duration": 0.0096,
      "velocity": 79,
      "chip": "ym2612"
    },
    {
      "channel": 4,
      "note": 58,
      "start": 25.444,
      "duration": 0.0075,
      "velocity": 127,
      "chip": "ym2612"
    },
    {
      "channel": 4,
      "note": 58,
      "start": 25.4635,
      "duration": 0.0059,
      "velocity": 127,
      "chip": "ym2612"
    },
    {
      "channel": 3,
      "note": 56,
      "start": 25.4826,
      "duration": 0.008,
      "velocity": 107,
      "chip": "ym2612"
    },
    {
      "channel": 4,
      "note": 58,
      "start": 25.4853,
      "duration": 0.028,
      "velocity": 127,
      "chip": "ym2612"
    },
    {
      "channel": 3,
      "note": 32,
      "start": 25.5054,
      "duration": 0.0046,
      "velocity": 107,
      "chip": "ym2612"
    },
    {
      "channel": 3,
      "note": 32,
      "start": 25.5271,
      "duration": 0.0071,
      "velocity": 107,
      "chip": "ym2612"
    },
    {
      "channel": 4,
      "note": 58,
      "start": 25.5298,
      "duration": 0.0079,
      "velocity": 127,
      "chip": "ym2612"
    },
    {
      "channel": 4,
      "note": 58,
      "start": 25.5492,
      "duration": 0.0058,
      "velocity": 127,
      "chip": "ym2612"
    },
    {
      "channel": 3,
      "note": 44,
      "start": 25.5693,
      "duration": 0.0097,
      "velocity": 79,
      "chip": "ym2612"
    },
    {
      "channel": 4,
      "note": 58,
      "start": 25.5721,
      "duration": 0.0254,
      "velocity": 127,
      "chip": "ym2612"
    },
    {
      "channel": 3,
      "note": 56,
      "start": 25.6102,
      "duration": 0.008,
      "velocity": 107,
      "chip": "ym2612"
    },
    {
      "channel": 4,
      "note": 58,
      "start": 25.6129,
      "duration": 0.0087,
      "velocity": 127,
      "chip": "ym2612"
    },
    {
      "channel": 3,
      "note": 42,
      "start": 25.6332,
      "duration": 0.0057,
      "velocity": 107,
      "chip": "ym2612"
    },
    {
      "channel": 4,
      "note": 58,
      "start": 25.6359,
      "duration": 0.0062,
      "velocity": 127,
      "chip": "ym2612"
    },
    {
      "channel": 3,
      "note": 42,
      "start": 25.6546,
      "duration": 0.0072,
      "velocity": 107,
      "chip": "ym2612"
    },
    {
      "channel": 4,
      "note": 58,
      "start": 25.6574,
      "duration": 0.0251,
      "velocity": 127,
      "chip": "ym2612"
    },
    {
      "channel": 3,
      "note": 44,
      "start": 25.6759,
      "duration": 0.0033,
      "velocity": 107,
      "chip": "ym2612"
    },
    {
      "channel": 3,
      "note": 44,
      "start": 25.6968,
      "duration": 0.0072,
      "velocity": 107,
      "chip": "ym2612"
    },
    {
      "channel": 4,
      "note": 58,
      "start": 25.6996,
      "duration": 0.0078,
      "velocity": 127,
      "chip": "ym2612"
    },
    {
      "channel": 4,
      "note": 58,
      "start": 25.7193,
      "duration": 0.0059,
      "velocity": 127,
      "chip": "ym2612"
    },
    {
      "channel": 3,
      "note": 35,
      "start": 25.7397,
      "duration": 0.0072,
      "velocity": 107,
      "chip": "ym2612"
    },
    {
      "channel": 4,
      "note": 58,
      "start": 25.7424,
      "duration": 0.0287,
      "velocity": 127,
      "chip": "ym2612"
    },
    {
      "channel": 3,
      "note": 37,
      "start": 25.763,
      "duration": 0.0046,
      "velocity": 107,
      "chip": "ym2612"
    },
    {
      "channel": 3,
      "note": 37,
      "start": 25.7839,
      "duration": 0.0105,
      "velocity": 79,
      "chip": "ym2612"
    },
    {
      "channel": 4,
      "note": 58,
      "start": 25.7866,
      "duration": 0.0084,
      "velocity": 127,
      "chip": "ym2612"
    },
    {
      "channel": 4,
      "note": 58,
      "start": 25.8069,
      "duration": 0.0058,
      "velocity": 127,
      "chip": "ym2612"
    },
    {
      "channel": 3,
      "note": 56,
      "start": 25.8261,
      "duration": 0.008,
      "velocity": 107,
      "chip": "ym2612"
    },
    {
      "channel": 4,
      "note": 58,
      "start": 25.8289,
      "duration": 0.028,
      "velocity": 127,
      "chip": "ym2612"
    },
    {
      "channel": 3,
      "note": 32,
      "start": 25.8489,
      "duration": 0.0046,
      "velocity": 107,
      "chip": "ym2612"
    },
    {
      "channel": 3,
      "note": 32,
      "start": 25.8705,
      "duration": 0.0072,
      "velocity": 107,
      "chip": "ym2612"
    },
    {
      "channel": 4,
      "note": 58,
      "start": 25.8733,
      "duration": 0.0079,
      "velocity": 127,
      "chip": "ym2612"
    },
    {
      "channel": 4,
      "note": 58,
      "start": 25.8926,
      "duration": 0.0058,
      "velocity": 127,
      "chip": "ym2612"
    },
    {
      "channel": 3,
      "note": 44,
      "start": 25.9127,
      "duration": 0.0097,
      "velocity": 79,
      "chip": "ym2612"
    },
    {
      "channel": 4,
      "note": 58,
      "start": 25.9155,
      "duration": 0.0217,
      "velocity": 127,
      "chip": "ym2612"
    },
    {
      "channel": 3,
      "note": 56,
      "start": 25.9521,
      "duration": 0.0072,
      "velocity": 107,
      "chip": "ym2612"
    },
    {
      "channel": 4,
      "note": 58,
      "start": 25.9549,
      "duration": 0.0078,
      "velocity": 127,
      "chip": "ym2612"
    },
    {
      "channel": 3,
      "note": 42,
      "start": 25.9757,
      "duration": 0.0072,
      "velocity": 107,
      "chip": "ym2612"
    },
    {
      "channel": 4,
      "note": 58,
      "start": 25.9784,
      "duration": 0.0078,
      "velocity": 127,
      "chip": "ym2612"
    },
    {
      "channel": 3,
      "note": 42,
      "start": 25.9992,
      "duration": 0.0079,
      "velocity": 107,
      "chip": "ym2612"
    },
    {
      "channel": 4,
      "note": 58,
      "start": 26.002,
      "duration": 0.0263,
      "velocity": 127,
      "chip": "ym2612"
    },
    {
      "channel": 3,
      "note": 44,
      "start": 26.0216,
      "duration": 0.0032,
      "velocity": 107,
      "chip": "ym2612"
    },
    {
      "channel": 3,
      "note": 44,
      "start": 26.0414,
      "duration": 0.0072,
      "velocity": 107,
      "chip": "ym2612"
    },
    {
      "channel": 4,
      "note": 58,
      "start": 26.0441,
      "duration": 0.0078,
      "velocity": 127,
      "chip": "ym2612"
    },
    {
      "channel": 4,
      "note": 58,
      "start": 26.0633,
      "duration": 0.006,
      "velocity": 127,
      "chip": "ym2612"
    },
    {
      "channel": 3,
      "note": 35,
      "start": 26.0837,
      "duration": 0.0097,
      "velocity": 79,
      "chip": "ym2612"
    },
    {
      "channel": 4,
      "note": 58,
      "start": 26.0865,
      "duration": 0.025,
      "velocity": 127,
      "chip": "ym2612"
    },
    {
      "channel": 3,
      "note": 56,
      "start": 26.1052,
      "duration": 0.0057,
      "velocity": 79,
      "chip": "ym2612"
    },
    {
      "channel": 3,
      "note": 56,
      "start": 26.124,
      "duration": 0.0097,
      "velocity": 79,
      "chip": "ym2612"
    },
    {
      "channel": 4,
      "note": 58,
      "start": 26.1268,
      "duration": 0.0075,
      "velocity": 127,
      "chip": "ym2612"
    },
    {
      "channel": 4,
      "note": 58,
      "start": 26.1462,
      "duration": 0.0058,
      "velocity": 127,
      "chip": "ym2612"
    },
    {
      "channel": 3,
      "note": 56,
      "start": 26.1653,
      "duration": 0.008,
      "velocity": 107,
      "chip": "ym2612"
    },
    {
      "channel": 4,
      "note": 58,
      "start": 26.1681,
      "duration": 0.0281,
      "velocity": 127,
      "chip": "ym2612"
    },
    {
      "channel": 3,
      "note": 32,
      "start": 26.1881,
      "duration": 0.0046,
      "velocity": 107,
      "chip": "ym2612"
    },
    {
      "channel": 3,
      "note": 32,
      "start": 26.2098,
      "duration": 0.0072,
      "velocity": 107,
      "chip": "ym2612"
    },
    {
      "channel": 4,
      "note": 58,
      "start": 26.2126,
      "duration": 0.0079,
      "velocity": 127,
      "chip": "ym2612"
    },
    {
      "channel": 4,
      "note": 58,
      "start": 26.2319,
      "duration": 0.0058,
      "velocity": 127,
      "chip": "ym2612"
    },
    {
      "channel": 3,
      "note": 44,
      "start": 26.2519,
      "duration": 0.0097,
      "velocity": 79,
      "chip": "ym2612"
    },
    {
      "channel": 4,
      "note": 58,
      "start": 26.2547,
      "duration": 0.0217,
      "velocity": 127,
      "chip": "ym2612"
    },
    {
      "channel": 3,
      "note": 56,
      "start": 26.2889,
      "duration": 0.0072,
      "velocity": 107,
      "chip": "ym2612"
    },
    {
      "channel": 4,
      "note": 58,
      "start": 26.2916,
      "duration": 0.0078,
      "velocity": 127,
      "chip": "ym2612"
    },
    {
      "channel": 3,
      "note": 42,
      "start": 26.311,
      "duration": 0.0056,
      "velocity": 107,
      "chip": "ym2612"
    },
    {
      "channel": 4,
      "note": 58,
      "start": 26.3138,
      "duration": 0.0063,
      "velocity": 127,
      "chip": "ym2612"
    },
    {
      "channel": 3,
      "note": 42,
      "start": 26.3327,
      "duration": 0.0071,
      "velocity": 107,
      "chip": "ym2612"
    },
    {
      "channel": 4,
      "note": 58,
      "start": 26.3355,
      "duration": 0.0215,
      "velocity": 127,
      "chip": "ym2612"
    },
    {
      "channel": 3,
      "note": 44,
      "start": 26.3716,
      "duration": 0.0072,
      "velocity": 107,
      "chip": "ym2612"
    },
    {
      "channel": 4,
      "note": 58,
      "start": 26.3744,
      "duration": 0.0078,
      "velocity": 127,
      "chip": "ym2612"
    },
    {
      "channel": 3,
      "note": 35,
      "start": 26.394,
      "duration": 0.0057,
      "velocity": 107,
      "chip": "ym2612"
    },
    {
      "channel": 4,
      "note": 58,
      "start": 26.3967,
      "duration": 0.0062,
      "velocity": 127,
      "chip": "ym2612"
    },
    {
      "channel": 3,
      "note": 35,
      "start": 26.4169,
      "duration": 0.0072,
      "velocity": 107,
      "chip": "ym2612"
    },
    {
      "channel": 4,
      "note": 58,
      "start": 26.4196,
      "duration": 0.0284,
      "velocity": 127,
      "chip": "ym2612"
    },
    {
      "channel": 3,
      "note": 37,
      "start": 26.4402,
      "duration": 0.0072,
      "velocity": 79,
      "chip": "ym2612"
    },
    {
      "channel": 3,
      "note": 56,
      "start": 26.464,
      "duration": 0.0105,
      "velocity": 79,
      "chip": "ym2612"
    },
    {
      "channel": 4,
      "note": 58,
      "start": 26.4668,
      "duration": 0.0084,
      "velocity": 127,
      "chip": "ym2612"
    },
    {
      "channel": 4,
      "note": 58,
      "start": 26.4873,
      "duration": 0.0058,
      "velocity": 127,
      "chip": "ym2612"
    },
    {
      "channel": 3,
      "note": 56,
      "start": 26.5065,
      "duration": 0.008,
      "velocity": 107,
      "chip": "ym2612"
    },
    {
      "channel": 4,
      "note": 58,
      "start": 26.5092,
      "duration": 0.028,
      "velocity": 127,
      "chip": "ym2612"
    },
    {
      "channel": 3,
      "note": 32,
      "start": 26.5293,
      "duration": 0.0046,
      "velocity": 107,
      "chip": "ym2612"
    },
    {
      "channel": 3,
      "note": 32,
      "start": 26.551,
      "duration": 0.0072,
      "velocity": 107,
      "chip": "ym2612"
    },
    {
      "channel": 4,
      "note": 58,
      "start": 26.5538,
      "duration": 0.0079,
      "velocity": 127,
      "chip": "ym2612"
    },
    {
      "channel": 4,
      "note": 58,
      "start": 26.5731,
      "duration": 0.0059,
      "velocity": 127,
      "chip": "ym2612"
    },
    {
      "channel": 3,
      "note": 44,
      "start": 26.5932,
      "duration": 0.0097,
      "velocity": 79,
      "chip": "ym2612"
    },
    {
      "channel": 4,
      "note": 58,
      "start": 26.5959,
      "duration": 0.0217,
      "velocity": 127,
      "chip": "ym2612"
    },
    {
      "channel": 3,
      "note": 56,
      "start": 26.6326,
      "duration": 0.0072,
      "velocity": 107,
      "chip": "ym2612"
    },
    {
      "channel": 4,
      "note": 58,
      "start": 26.6353,
      "duration": 0.0078,
      "velocity": 127,
      "chip": "ym2612"
    },
    {
      "channel": 3,
      "note": 42,
      "start": 26.6562,
      "duration": 0.0071,
      "velocity": 107,
      "chip": "ym2612"
    },
    {
      "channel": 4,
      "note": 58,
      "start": 26.659,
      "duration": 0.0078,
      "velocity": 127,
      "chip": "ym2612"
    },
    {
      "channel": 3,
      "note": 42,
      "start": 26.6797,
      "duration": 0.0079,
      "velocity": 107,
      "chip": "ym2612"
    },
    {
      "channel": 4,
      "note": 58,
      "start": 26.6824,
      "duration": 0.0263,
      "velocity": 127,
      "chip": "ym2612"
    },
    {
      "channel": 3,
      "note": 44,
      "start": 26.7021,
      "duration": 0.0032,
      "velocity": 107,
      "chip": "ym2612"
    },
    {
      "channel": 3,
      "note": 44,
      "start": 26.7219,
      "duration": 0.0072,
      "velocity": 107,
      "chip": "ym2612"
    },
    {
      "channel": 4,
      "note": 58,
      "start": 26.7246,
      "duration": 0.0078,
      "velocity": 127,
      "chip": "ym2612"
    },
    {
      "channel": 4,
      "note": 58,
      "start": 26.7438,
      "duration": 0.006,
      "velocity": 127,
      "chip": "ym2612"
    },
    {
      "channel": 3,
      "note": 35,
      "start": 26.7643,
      "duration": 0.0097,
      "velocity": 79,
      "chip": "ym2612"
    },
    {
      "channel": 4,
      "note": 58,
      "start": 26.7671,
      "duration": 0.0213,
      "velocity": 127,
      "chip": "ym2612"
    },
    {
      "channel": 3,
      "note": 44,
      "start": 26.8007,
      "duration": 0.0097,
      "velocity": 79,
      "chip": "ym2612"
    },
    {
      "channel": 4,
      "note": 58,
      "start": 26.8034,
      "duration": 0.0075,
      "velocity": 127,
      "chip": "ym2612"
    },
    {
      "channel": 4,
      "note": 58,
      "start": 26.823,
      "duration": 0.0058,
      "velocity": 127,
      "chip": "ym2612"
    },
    {
      "channel": 3,
      "note": 56,
      "start": 26.8422,
      "duration": 0.008,
      "velocity": 107,
      "chip": "ym2612"
    },
    {
      "channel": 4,
      "note": 58,
      "start": 26.845,
      "duration": 0.028,
      "velocity": 127,
      "chip": "ym2612"
    },
    {
      "channel": 3,
      "note": 32,
      "start": 26.8651,
      "duration": 0.0046,
      "velocity": 107,
      "chip": "ym2612"
    },
    {
      "channel": 3,
      "note": 32,
      "start": 26.8867,
      "duration": 0.0072,
      "velocity": 107,
      "chip": "ym2612"
    },
    {
      "channel": 4,
      "note": 58,
      "start": 26.8895,
      "duration": 0.0079,
      "velocity": 127,
      "chip": "ym2612"
    },
    {
      "channel": 4,
      "note": 58,
      "start": 26.9089,
      "duration": 0.0059,
      "velocity": 127,
      "chip": "ym2612"
    },
    {
      "channel": 3,
      "note": 44,
      "start": 26.9292,
      "duration": 0.0097,
      "velocity": 79,
      "chip": "ym2612"
    },
    {
      "channel": 4,
      "note": 58,
      "start": 26.932,
      "duration": 0.0256,
      "velocity": 127,
      "chip": "ym2612"
    },
    {
      "channel": 3,
      "note": 56,
      "start": 26.9702,
      "duration": 0.008,
      "velocity": 107,
      "chip": "ym2612"
    },
    {
      "channel": 4,
      "note": 58,
      "start": 26.973,
      "duration": 0.0086,
      "velocity": 127,
      "chip": "ym2612"
    },
    {
      "channel": 3,
      "note": 42,
      "start": 26.9933,
      "duration": 0.0057,
      "velocity": 107,
      "chip": "ym2612"
    },
    {
      "channel": 4,
      "note": 58,
      "start": 26.996,
      "duration": 0.0062,
      "velocity": 127,
      "chip": "ym2612"
    },
    {
      "channel": 3,
      "note": 42,
      "start": 27.015,
      "duration": 0.0072,
      "velocity": 107,
      "chip": "ym2612"
    },
    {
      "channel": 4,
      "note": 58,
      "start": 27.0178,
      "duration": 0.0255,
      "velocity": 127,
      "chip": "ym2612"
    },
    {
      "channel": 3,
      "note": 44,
      "start": 27.0366,
      "duration": 0.0032,
      "velocity": 107,
      "chip": "ym2612"
    },
    {
      "channel": 3,
      "note": 44,
      "start": 27.0576,
      "duration": 0.0072,
      "velocity": 107,
      "chip": "ym2612"
    },
    {
      "channel": 4,
      "note": 58,
      "start": 27.0604,
      "duration": 0.0078,
      "velocity": 127,
      "chip": "ym2612"
    },
    {
      "channel": 4,
      "note": 58,
      "start": 27.0796,
      "duration": 0.0059,
      "velocity": 127,
      "chip": "ym2612"
    },
    {
      "channel": 3,
      "note": 35,
      "start": 27.1001,
      "duration": 0.0072,
      "velocity": 107,
      "chip": "ym2612"
    },
    {
      "channel": 4,
      "note": 58,
      "start": 27.1029,
      "duration": 0.0289,
      "velocity": 127,
      "chip": "ym2612"
    },
    {
      "channel": 3,
      "note": 37,
      "start": 27.1237,
      "duration": 0.0046,
      "velocity": 107,
      "chip": "ym2612"
    },
    {
      "channel": 3,
      "note": 37,
      "start": 27.1445,
      "duration": 0.0106,
      "velocity": 79,
      "chip": "ym2612"
    },
    {
      "channel": 4,
      "note": 58,
      "start": 27.1473,
      "duration": 0.0084,
      "velocity": 127,
      "chip": "ym2612"
    },
    {
      "channel": 4,
      "note": 58,
      "start": 27.1678,
      "duration": 0.0058,
      "velocity": 127,
      "chip": "ym2612"
    },
    {
      "channel": 3,
      "note": 56,
      "start": 27.1869,
      "duration": 0.008,
      "velocity": 107,
      "chip": "ym2612"
    },
    {
      "channel": 4,
      "note": 58,
      "start": 27.1897,
      "duration": 0.0282,
      "velocity": 127,
      "chip": "ym2612"
    },
    {
      "channel": 3,
      "note": 32,
      "start": 27.2099,
      "duration": 0.0046,
      "velocity": 107,
      "chip": "ym2612"
    },
    {
      "channel": 3,
      "note": 32,
      "start": 27.2316,
      "duration": 0.0072,
      "velocity": 107,
      "chip": "ym2612"
    },
    {
      "channel": 4,
      "note": 58,
      "start": 27.2343,
      "duration": 0.0079,
      "velocity": 127,
      "chip": "ym2612"
    },
    {
      "channel": 4,
      "note": 58,
      "start": 27.2537,
      "duration": 0.0058,
      "velocity": 127,
      "chip": "ym2612"
    },
    {
      "channel": 3,
      "note": 44,
      "start": 27.2738,
      "duration": 0.0097,
      "velocity": 79,
      "chip": "ym2612"
    },
    {
      "channel": 4,
      "note": 58,
      "start": 27.2766,
      "duration": 0.0216,
      "velocity": 127,
      "chip": "ym2612"
    },
    {
      "channel": 3,
      "note": 56,
      "start": 27.3131,
      "duration": 0.0072,
      "velocity": 107,
      "chip": "ym2612"
    },
    {
      "channel": 4,
      "note": 58,
      "start": 27.3159,
      "duration": 0.0078,
      "velocity": 127,
      "chip": "ym2612"
    },
    {
      "channel": 3,
      "note": 42,
      "start": 27.3366,
      "duration": 0.0072,
      "velocity": 107,
      "chip": "ym2612"
    },
    {
      "channel": 4,
      "note": 58,
      "start": 27.3394,
      "duration": 0.0078,
      "velocity": 127,
      "chip": "ym2612"
    },
    {
      "channel": 3,
      "note": 42,
      "start": 27.3602,
      "duration": 0.0079,
      "velocity": 107,
      "chip": "ym2612"
    },
    {
      "channel": 4,
      "note": 58,
      "start": 27.3629,
      "duration": 0.0263,
      "velocity": 127,
      "chip": "ym2612"
    },
    {
      "channel": 3,
      "note": 44,
      "start": 27.3825,
      "duration": 0.0032,
      "velocity": 107,
      "chip": "ym2612"
    },
    {
      "channel": 3,
      "note": 44,
      "start": 27.4022,
      "duration": 0.0072,
      "velocity": 107,
      "chip": "ym2612"
    },
    {
      "channel": 4,
      "note": 58,
      "start": 27.4049,
      "duration": 0.0078,
      "velocity": 127,
      "chip": "ym2612"
    },
    {
      "channel": 4,
      "note": 58,
      "start": 27.4241,
      "duration": 0.006,
      "velocity": 127,
      "chip": "ym2612"
    },
    {
      "channel": 3,
      "note": 35,
      "start": 27.4446,
      "duration": 0.0097,
      "velocity": 79,
      "chip": "ym2612"
    },
    {
      "channel": 4,
      "note": 58,
      "start": 27.4474,
      "duration": 0.0249,
      "velocity": 127,
      "chip": "ym2612"
    },
    {
      "channel": 3,
      "note": 56,
      "start": 27.466,
      "duration": 0.0057,
      "velocity": 79,
      "chip": "ym2612"
    },
    {
      "channel": 3,
      "note": 56,
      "start": 27.4848,
      "duration": 0.0097,
      "velocity": 79,
      "chip": "ym2612"
    },
    {
      "channel": 4,
      "note": 58,
      "start": 27.4876,
      "duration": 0.0075,
      "velocity": 127,
      "chip": "ym2612"
    },
    {
      "channel": 4,
      "note": 58,
      "start": 27.5072,
      "duration": 0.0058,
      "velocity": 127,
      "chip": "ym2612"
    },
    {
      "channel": 3,
      "note": 56,
      "start": 27.5263,
      "duration": 0.008,
      "velocity": 107,
      "chip": "ym2612"
    },
    {
      "channel": 4,
      "note": 58,
      "start": 27.5291,
      "duration": 0.0281,
      "velocity": 127,
      "chip": "ym2612"
    },
    {
      "channel": 3,
      "note": 32,
      "start": 27.5492,
      "duration": 0.0046,
      "velocity": 107,
      "chip": "ym2612"
    },
    {
      "channel": 3,
      "note": 32,
      "start": 27.5708,
      "duration": 0.0072,
      "velocity": 107,
      "chip": "ym2612"
    },
    {
      "channel": 4,
      "note": 58,
      "start": 27.5736,
      "duration": 0.0079,
      "velocity": 127,
      "chip": "ym2612"
    },
    {
      "channel": 4,
      "note": 58,
      "start": 27.593,
      "duration": 0.0059,
      "velocity": 127,
      "chip": "ym2612"
    },
    {
      "channel": 3,
      "note": 44,
      "start": 27.6132,
      "duration": 0.0097,
      "velocity": 79,
      "chip": "ym2612"
    },
    {
      "channel": 4,
      "note": 58,
      "start": 27.6159,
      "duration": 0.0218,
      "velocity": 127,
      "chip": "ym2612"
    },
    {
      "channel": 3,
      "note": 56,
      "start": 27.6502,
      "duration": 0.0072,
      "velocity": 107,
      "chip": "ym2612"
    },
    {
      "channel": 4,
      "note": 58,
      "start": 27.653,
      "duration": 0.0078,
      "velocity": 127,
      "chip": "ym2612"
    },
    {
      "channel": 3,
      "note": 42,
      "start": 27.6724,
      "duration": 0.0056,
      "velocity": 107,
      "chip": "ym2612"
    },
    {
      "channel": 4,
      "note": 58,
      "start": 27.6751,
      "duration": 0.0063,
      "velocity": 127,
      "chip": "ym2612"
    },
    {
      "channel": 3,
      "note": 42,
      "start": 27.694,
      "duration": 0.0072,
      "velocity": 107,
      "chip": "ym2612"
    },
    {
      "channel": 4,
      "note": 58,
      "start": 27.6967,
      "duration": 0.0217,
      "velocity": 127,
      "chip": "ym2612"
    },
    {
      "channel": 3,
      "note": 44,
      "start": 27.7331,
      "duration": 0.0072,
      "velocity": 107,
      "chip": "ym2612"
    },
    {
      "channel": 4,
      "note": 58,
      "start": 27.7358,
      "duration": 0.0078,
      "velocity": 127,
      "chip": "ym2612"
    },
    {
      "channel": 3,
      "note": 35,
      "start": 27.7553,
      "duration": 0.0057,
      "velocity": 107,
      "chip": "ym2612"
    },
    {
      "channel": 4,
      "note": 58,
      "start": 27.758,
      "duration": 0.0062,
      "velocity": 127,
      "chip": "ym2612"
    },
    {
      "channel": 3,
      "note": 35,
      "start": 27.7782,
      "duration": 0.0072,
      "velocity": 107,
      "chip": "ym2612"
    },
    {
      "channel": 4,
      "note": 58,
      "start": 27.7809,
      "duration": 0.0285,
      "velocity": 127,
      "chip": "ym2612"
    },
    {
      "channel": 3,
      "note": 37,
      "start": 27.8015,
      "duration": 0.0073,
      "velocity": 79,
      "chip": "ym2612"
    },
    {
      "channel": 0,
      "note": 80,
      "start": 27.8246,
      "duration": 0.0409,
      "velocity": 95,
      "chip": "ym2612"
    },
    {
      "channel": 2,
      "note": 44,
      "start": 27.8277,
      "duration": 0.0001,
      "velocity": 1,
      "chip": "ym2612"
    },
    {
      "channel": 3,
      "note": 56,
      "start": 27.8308,
      "duration": 0.0123,
      "velocity": 79,
      "chip": "ym2612"
    },
    {
      "channel": 4,
      "note": 58,
      "start": 27.8335,
      "duration": 0.0104,
      "velocity": 127,
      "chip": "ym2612"
    },
    {
      "channel": 1,
      "note": 44,
      "start": 27.8573,
      "duration": 0.0401,
      "velocity": 95,
      "chip": "ym2612"
    },
    {
      "channel": 2,
      "note": 87,
      "start": 27.86,
      "duration": 0.0001,
      "velocity": 1,
      "chip": "ym2612"
    },
    {
      "channel": 4,
      "note": 58,
      "start": 27.8635,
      "duration": 0.008,
      "velocity": 127,
      "chip": "ym2612"
    },
    {
      "channel": 0,
      "note": 75,
      "start": 27.8859,
      "duration": 0.0427,
      "velocity": 95,
      "chip": "ym2612"
    },
    {
      "channel": 3,
      "note": 56,
      "start": 27.8899,
      "duration": 0.009,
      "velocity": 107,
      "chip": "ym2612"
    },
    {
      "channel": 4,
      "note": 58,
      "start": 27.8926,
      "duration": 0.0422,
      "velocity": 127,
      "chip": "ym2612"
    },
    {
      "channel": 1,
      "note": 75,
      "start": 27.9182,
      "duration": 0.0446,
      "velocity": 95,
      "chip": "ym2612"
    },
    {
      "channel": 2,
      "note": 75,
      "start": 27.9209,
      "duration": 0.0001,
      "velocity": 1,
      "chip": "ym2612"
    },
    {
      "channel": 3,
      "note": 32,
      "start": 27.9241,
      "duration": 0.0063,
      "velocity": 107,
      "chip": "ym2612"
    },
    {
      "channel": 0,
      "note": 71,
      "start": 27.9498,
      "duration": 0.0378,
      "velocity": 95,
      "chip": "ym2612"
    },
    {
      "channel": 2,
      "note": 87,
      "start": 27.9529,
      "duration": 0.0001,
      "velocity": 1,
      "chip": "ym2612"
    },
    {
      "channel": 3,
      "note": 32,
      "start": 27.9561,
      "duration": 0.008,
      "velocity": 107,
      "chip": "ym2612"
    },
    {
      "channel": 4,
      "note": 58,
      "start": 27.9589,
      "duration": 0.0097,
      "velocity": 127,
      "chip": "ym2612"
    },
    {
      "channel": 1,
      "note": 71,
      "start": 27.9817,
      "duration": 0.0389,
      "velocity": 95,
      "chip": "ym2612"
    },
    {
      "channel": 4,
      "note": 58,
      "start": 27.9855,
      "duration": 0.0078,
      "velocity": 127,
      "chip": "ym2612"
    },
    {
      "channel": 0,
      "note": 68,
      "start": 28.0078,
      "duration": 0.0375,
      "velocity": 95,
      "chip": "ym2612"
    },
    {
      "channel": 2,
      "note": 75,
      "start": 28.0109,
      "duration": 0.0001,
      "velocity": 1,
      "chip": "ym2612"
    },
    {
      "channel": 3,
      "note": 44,
      "start": 28.014,
      "duration": 0.0118,
      "velocity": 79,
      "chip": "ym2612"
    },
    {
      "channel": 4,
      "note": 58,
      "start": 28.0167,
      "duration": 0.0344,
      "velocity": 127,
      "chip": "ym2612"
    },
    {
      "channel": 1,
      "note": 68,
      "start": 28.0395,
      "duration": 0.0343,
      "velocity": 95,
      "chip": "ym2612"
    },
    {
      "channel": 2,
      "note": 87,
      "start": 28.0422,
      "duration": 0.0001,
      "velocity": 1,
      "chip": "ym2612"
    },
    {
      "channel": 3,
      "note": 56,
      "start": 28.0671,
      "duration": 0.0081,
      "velocity": 107,
      "chip": "ym2612"
    },
    {
      "channel": 4,
      "note": 58,
      "start": 28.0699,
      "duration": 0.0096,
      "velocity": 127,
      "chip": "ym2612"
    },
    {
      "channel": 2,
      "note": 75,
      "start": 28.0961,
      "duration": 0.0001,
      "velocity": 1,
      "chip": "ym2612"
    },
    {
      "channel": 3,
      "note": 42,
      "start": 28.0993,
      "duration": 0.0079,
      "velocity": 107,
      "chip": "ym2612"
    },
    {
      "channel": 4,
      "note": 58,
      "start": 28.1021,
      "duration": 0.0094,
      "velocity": 127,
      "chip": "ym2612"
    },
    {
      "channel": 0,
      "note": 74,
      "start": 28.1277,
      "duration": 0.0382,
      "velocity": 95,
      "chip": "ym2612"
    },
    {
      "channel": 2,
      "note": 87,
      "start": 28.1308,
      "duration": 0.0001,
      "velocity": 1,
      "chip": "ym2612"
    },
    {
      "channel": 3,
      "note": 42,
      "start": 28.134,
      "duration": 0.0087,
      "velocity": 107,
      "chip": "ym2612"
    },
    {
      "channel": 4,
      "note": 58,
      "start": 28.1368,
      "duration": 0.0353,
      "velocity": 127,
      "chip": "ym2612"
    },
    {
      "channel": 1,
      "note": 74,
      "start": 28.1602,
      "duration": 0.0392,
      "velocity": 95,
      "chip": "ym2612"
    },
    {
      "channel": 3,
      "note": 44,
      "start": 28.1637,
      "duration": 0.0042,
      "velocity": 107,
      "chip": "ym2612"
    },
    {
      "channel": 0,
      "note": 71,
      "start": 28.1864,
      "duration": 0.0404,
      "velocity": 95,
      "chip": "ym2612"
    },
    {
      "channel": 2,
      "note": 75,
      "start": 28.1895,
      "duration": 0.0001,
      "velocity": 1,
      "chip": "ym2612"
    },
    {
      "channel": 3,
      "note": 44,
      "start": 28.1927,
      "duration": 0.008,
      "velocity": 107,
      "chip": "ym2612"
    },
    {
      "channel": 4,
      "note": 58,
      "start": 28.1954,
      "duration": 0.0097,
      "velocity": 127,
      "chip": "ym2612"
    },
    {
      "channel": 1,
      "note": 71,
      "start": 28.2186,
      "duration": 0.0414,
      "velocity": 95,
      "chip": "ym2612"
    },
    {
      "channel": 2,
      "note": 87,
      "start": 28.2213,
      "duration": 0.0001,
      "velocity": 1,
      "chip": "ym2612"
    },
    {
      "channel": 4,
      "note": 58,
      "start": 28.2247,
      "duration": 0.008,
      "velocity": 127,
      "chip": "ym2612"
    },
    {
      "channel": 0,
      "note": 68,
      "start": 28.247,
      "duration": 0.0345,
      "velocity": 95,
      "chip": "ym2612"
    },
    {
      "channel": 2,
      "note": 87,
      "start": 28.2502,
      "duration": 0.0001,
      "velocity": 1,
      "chip": "ym2612"
    },
    {
      "channel": 3,
      "note": 35,
      "start": 28.2532,
      "duration": 0.0118,
      "velocity": 79,
      "chip": "ym2612"
    },
    {
      "channel": 4,
      "note": 58,
      "start": 28.256,
      "duration": 0.0314,
      "velocity": 127,
      "chip": "ym2612"
    },
    {
      "channel": 1,
      "note": 68,
      "start": 28.2783,
      "duration": 0.0376,
      "velocity": 95,
      "chip": "ym2612"
    },
    {
      "channel": 0,
      "note": 71,
      "start": 28.3021,
      "duration": 0.0385,
      "velocity": 95,
      "chip": "ym2612"
    },
    {
      "channel": 2,
      "note": 75,
      "start": 28.3053,
      "duration": 0.0001,
      "velocity": 1,
      "chip": "ym2612"
    },
    {
      "channel": 3,
      "note": 44,
      "start": 28.3084,
      "duration": 0.0126,
      "velocity": 79,
      "chip": "ym2612"
    },
    {
      "channel": 4,
      "note": 58,
      "start": 28.3111,
      "duration": 0.0108,
      "velocity": 127,
      "chip": "ym2612"
    },
    {
      "channel": 1,
      "note": 71,
      "start": 28.3349,
      "duration": 0.0388,
      "velocity": 95,
      "chip": "ym2612"
    },
    {
      "channel": 4,
      "note": 58,
      "start": 28.3387,
      "duration": 0.008,
      "velocity": 127,
      "chip": "ym2612"
    },
    {
      "channel": 0,
      "note": 76,
      "start": 28.3606,
      "duration": 0.0416,
      "velocity": 95,
      "chip": "ym2612"
    },
    {
      "channel": 2,
      "note": 75,
      "start": 28.3638,
      "duration": 0.0001,
      "velocity": 1,
      "chip": "ym2612"
    },
    {
      "channel": 3,
      "note": 56,
      "start": 28.367,
      "duration": 0.008,
      "velocity": 107,
      "chip": "ym2612"
    },
    {
      "channel": 4,
      "note": 58,
      "start": 28.3697,
      "duration": 0.0387,
      "velocity": 127,
      "chip": "ym2612"
    },
    {
      "channel": 1,
      "note": 76,
      "start": 28.3942,
      "duration": 0.0417,
      "velocity": 95,
      "chip": "ym2612"
    },
    {
      "channel": 3,
      "note": 32,
      "start": 28.3977,
      "duration": 0.0065,
      "velocity": 107,
      "chip": "ym2612"
    },
    {
      "channel": 0,
      "note": 78,
      "start": 28.4228,
      "duration": 0.0406,
      "velocity": 95,
      "chip": "ym2612"
    },
    {
      "channel": 2,
      "note": 75,
      "start": 28.4259,
      "duration": 0.0001,
      "velocity": 1,
      "chip": "ym2612"
    },
    {
      "channel": 3,
      "note": 32,
      "start": 28.4291,
      "duration": 0.0081,
      "velocity": 107,
      "chip": "ym2612"
    },
    {
      "channel": 4,
      "note": 58,
      "start": 28.4319,
      "duration": 0.0098,
      "velocity": 127,
      "chip": "ym2612"
    },
    {
      "channel": 1,
      "note": 78,
      "start": 28.4552,
      "duration": 0.0386,
      "velocity": 95,
      "chip": "ym2612"
    },
    {
      "channel": 2,
      "note": 87,
      "start": 28.4578,
      "duration": 0.0001,
      "velocity": 1,
      "chip": "ym2612"
    },
    {
      "channel": 4,
      "note": 58,
      "start": 28.4613,
      "duration": 0.0078,
      "velocity": 127,
      "chip": "ym2612"
    },
    {
      "channel": 0,
      "note": 71,
      "start": 28.4833,
      "duration": 0.0369,
      "velocity": 95,
      "chip": "ym2612"
    },
    {
      "channel": 3,
      "note": 44,
      "start": 28.4871,
      "duration": 0.0117,
      "velocity": 79,
      "chip": "ym2612"
    },
    {
      "channel": 4,
      "note": 58,
      "start": 28.4899,
      "duration": 0.0363,
      "velocity": 127,
      "chip": "ym2612"
    },
    {
      "channel": 1,
      "note": 71,
      "start": 28.513,
      "duration": 0.0349,
      "velocity": 95,
      "chip": "ym2612"
    },
    {
      "channel": 2,
      "note": 75,
      "start": 28.5157,
      "duration": 0.0001,
      "velocity": 1,
      "chip": "ym2612"
    },
    {
      "channel": 3,
      "note": 56,
      "start": 28.5412,
      "duration": 0.0081,
      "velocity": 107,
      "chip": "ym2612"
    },
    {
      "channel": 4,
      "note": 58,
      "start": 28.5439,
      "duration": 0.0096,
      "velocity": 127,
      "chip": "ym2612"
    },
    {
      "channel": 2,
      "note": 75,
      "start": 28.5679,
      "duration": 0.0001,
      "velocity": 1,
      "chip": "ym2612"
    },
    {
      "channel": 3,
      "note": 42,
      "start": 28.5711,
      "duration": 0.0063,
      "velocity": 107,
      "chip": "ym2612"
    },
    {
      "channel": 4,
      "note": 58,
      "start": 28.5738,
      "duration": 0.0079,
      "velocity": 127,
      "chip": "ym2612"
    },
    {
      "channel": 0,
      "note": 72,
      "start": 28.5976,
      "duration": 0.04,
      "velocity": 95,
      "chip": "ym2612"
    },
    {
      "channel": 2,
      "note": 87,
      "start": 28.6008,
      "duration": 0.0001,
      "velocity": 1,
      "chip": "ym2612"
    },
    {
      "channel": 3,
      "note": 42,
      "start": 28.604,
      "duration": 0.0078,
      "velocity": 107,
      "chip": "ym2612"
    },
    {
      "channel": 4,
      "note": 58,
      "start": 28.6067,
      "duration": 0.0371,
      "velocity": 127,
      "chip": "ym2612"
    },
    {
      "channel": 1,
      "note": 72,
      "start": 28.6296,
      "duration": 0.0417,
      "velocity": 95,
      "chip": "ym2612"
    },
    {
      "channel": 2,
      "note": 87,
      "start": 28.6323,
      "duration": 0.0001,
      "velocity": 1,
      "chip": "ym2612"
    },
    {
      "channel": 3,
      "note": 44,
      "start": 28.6355,
      "duration": 0.004,
      "velocity": 107,
      "chip": "ym2612"
    },
    {
      "channel": 0,
      "note": 75,
      "start": 28.6583,
      "duration": 0.0378,
      "velocity": 95,
      "chip": "ym2612"
    },
    {
      "channel": 2,
      "note": 87,
      "start": 28.6615,
      "duration": 0.0001,
      "velocity": 1,
      "chip": "ym2612"
    },
    {
      "channel": 3,
      "note": 44,
      "start": 28.6646,
      "duration": 0.008,
      "velocity": 107,
      "chip": "ym2612"
    },
    {
      "channel": 4,
      "note": 58,
      "start": 28.6674,
      "duration": 0.0097,
      "velocity": 127,
      "chip": "ym2612"
    },
    {
      "channel": 1,
      "note": 75,
      "start": 28.6903,
      "duration": 0.0366,
      "velocity": 95,
      "chip": "ym2612"
    },
    {
      "channel": 4,
      "note": 58,
      "start": 28.6941,
      "duration": 0.0079,
      "velocity": 127,
      "chip": "ym2612"
    },
    {
      "channel": 2,
      "note": 75,
      "start": 28.7171,
      "duration": 0.0001,
      "velocity": 1,
      "chip": "ym2612"
    },
    {
      "channel": 3,
      "note": 35,
      "start": 28.7202,
      "duration": 0.008,
      "velocity": 107,
      "chip": "ym2612"
    },
    {
      "channel": 4,
      "note": 58,
      "start": 28.723,
      "duration": 0.0391,
      "velocity": 127,
      "chip": "ym2612"
    },
    {
      "channel": 2,
      "note": 87,
      "start": 28.7492,
      "duration": 0.0001,
      "velocity": 1,
      "chip": "ym2612"
    },
    {
      "channel": 3,
      "note": 37,
      "start": 28.7524,
      "duration": 0.0053,
      "velocity": 107,
      "chip": "ym2612"
    },
    {
      "channel": 0,
      "note": 75,
      "start": 28.7783,
      "duration": 0.0384,
      "velocity": 95,
      "chip": "ym2612"
    },
    {
      "channel": 2,
      "note": 87,
      "start": 28.7814,
      "duration": 0.0001,
      "velocity": 1,
      "chip": "ym2612"
    },
    {
      "channel": 3,
      "note": 37,
      "start": 28.7845,
      "duration": 0.0124,
      "velocity": 79,
      "chip": "ym2612"
    },
    {
      "channel": 4,
      "note": 58,
      "start": 28.7873,
      "duration": 0.0107,
      "velocity": 127,
      "chip": "ym2612"
    },
    {
      "channel": 1,
      "note": 75,
      "start": 28.811,
      "duration": 0.0391,
      "velocity": 95,
      "chip": "ym2612"
    },
    {
      "channel": 4,
      "note": 58,
      "start": 28.8148,
      "duration": 0.0078,
      "velocity": 127,
      "chip": "ym2612"
    },
    {
      "channel": 0,
      "note": 75,
      "start": 28.8371,
      "duration": 0.0416,
      "velocity": 95,
      "chip": "ym2612"
    },
    {
      "channel": 2,
      "note": 75,
      "start": 28.8402,
      "duration": 0.0001,
      "velocity": 1,
      "chip": "ym2612"
    },
    {
      "channel": 3,
      "note": 56,
      "start": 28.8434,
      "duration": 0.008,
      "velocity": 107,
      "chip": "ym2612"
    },
    {
      "channel": 4,
      "note": 58,
      "start": 28.8461,
      "duration": 0.0386,
      "velocity": 127,
      "chip": "ym2612"
    },
    {
      "channel": 1,
      "note": 75,
      "start": 28.8706,
      "duration": 0.0416,
      "velocity": 95,
      "chip": "ym2612"
    },
    {
      "channel": 3,
      "note": 32,
      "start": 28.8741,
      "duration": 0.0065,
      "velocity": 107,
      "chip": "ym2612"
    },
    {
      "channel": 0,
      "note": 71,
      "start": 28.8991,
      "duration": 0.0405,
      "velocity": 95,
      "chip": "ym2612"
    },
    {
      "channel": 2,
      "note": 75,
      "start": 28.9023,
      "duration": 0.0001,
      "velocity": 1,
      "chip": "ym2612"
    },
    {
      "channel": 3,
      "note": 32,
      "start": 28.9055,
      "duration": 0.008,
      "velocity": 107,
      "chip": "ym2612"
    },
    {
      "channel": 4,
      "note": 58,
      "start": 28.9082,
      "duration": 0.0098,
      "velocity": 127,
      "chip": "ym2612"
    },
    {
      "channel": 1,
      "note": 71,
      "start": 28.9314,
      "duration": 0.0413,
      "velocity": 95,
      "chip": "ym2612"
    },
    {
      "channel": 2,
      "note": 87,
      "start": 28.9341,
      "duration": 0.0001,
      "velocity": 1,
      "chip": "ym2612"
    },
    {
      "channel": 4,
      "note": 58,
      "start": 28.9376,
      "duration": 0.0078,
      "velocity": 127,
      "chip": "ym2612"
    },
    {
      "channel": 0,
      "note": 68,
      "start": 28.9598,
      "duration": 0.0374,
      "velocity": 95,
      "chip": "ym2612"
    },
    {
      "channel": 2,
      "note": 87,
      "start": 28.9629,
      "duration": 0.0001,
      "velocity": 1,
      "chip": "ym2612"
    },
    {
      "channel": 3,
      "note": 44,
      "start": 28.966,
      "duration": 0.0118,
      "velocity": 79,
      "chip": "ym2612"
    },
    {
      "channel": 4,
      "note": 58,
      "start": 28.9688,
      "duration": 0.0343,
      "velocity": 127,
      "chip": "ym2612"
    },
    {
      "channel": 1,
      "note": 68,
      "start": 28.9915,
      "duration": 0.0344,
      "velocity": 95,
      "chip": "ym2612"
    },
    {
      "channel": 2,
      "note": 87,
      "start": 28.9942,
      "duration": 0.0001,
      "velocity": 1,
      "chip": "ym2612"
    },
    {
      "channel": 3,
      "note": 56,
      "start": 29.0192,
      "duration": 0.0082,
      "velocity": 107,
      "chip": "ym2612"
    },
    {
      "channel": 4,
      "note": 58,
      "start": 29.0219,
      "duration": 0.0097,
      "velocity": 127,
      "chip": "ym2612"
    },
    {
      "channel": 2,
      "note": 75,
      "start": 29.0482,
      "duration": 0.0001,
      "velocity": 1,
      "chip": "ym2612"
    },
    {
      "channel": 3,
      "note": 42,
      "start": 29.0514,
      "duration": 0.0078,
      "velocity": 107,
      "chip": "ym2612"
    },
    {
      "channel": 4,
      "note": 58,
      "start": 29.0541,
      "duration": 0.0095,
      "velocity": 127,
      "chip": "ym2612"
    },
    {
      "channel": 0,
      "note": 74,
      "start": 29.0778,
      "duration": 0.0402,
      "velocity": 95,
      "chip": "ym2612"
    },
    {
      "channel": 2,
      "note": 87,
      "start": 29.0809,
      "duration": 0.0001,
      "velocity": 1,
      "chip": "ym2612"
    },
    {
      "channel": 3,
      "note": 42,
      "start": 29.0841,
      "duration": 0.0078,
      "velocity": 107,
      "chip": "ym2612"
    },
    {
      "channel": 4,
      "note": 58,
      "start": 29.0869,
      "duration": 0.0373,
      "velocity": 127,
      "chip": "ym2612"
    },
    {
      "channel": 1,
      "note": 74,
      "start": 29.1098,
      "duration": 0.0391,
      "velocity": 95,
      "chip": "ym2612"
    },
    {
      "channel": 2,
      "note": 87,
      "start": 29.1124,
      "duration": 0.0001,
      "velocity": 1,
      "chip": "ym2612"
    },
    {
      "channel": 3,
      "note": 44,
      "start": 29.1157,
      "duration": 0.0041,
      "velocity": 107,
      "chip": "ym2612"
    },
    {
      "channel": 0,
      "note": 71,
      "start": 29.1382,
      "duration": 0.038,
      "velocity": 95,
      "chip": "ym2612"
    },
    {
      "channel": 3,
      "note": 44,
      "start": 29.1421,
      "duration": 0.0082,
      "velocity": 107,
      "chip": "ym2612"
    },
    {
      "channel": 4,
      "note": 58,
      "start": 29.1449,
      "duration": 0.0096,
      "velocity": 127,
      "chip": "ym2612"
    },
    {
      "channel": 1,
      "note": 71,
      "start": 29.1681,
      "duration": 0.0361,
      "velocity": 95,
      "chip": "ym2612"
    },
    {
      "channel": 2,
      "note": 75,
      "start": 29.1708,
      "duration": 0.0001,
      "velocity": 1,
      "chip": "ym2612"
    },
    {
      "channel": 4,
      "note": 58,
      "start": 29.1743,
      "duration": 0.0078,
      "velocity": 127,
      "chip": "ym2612"
    },
    {
      "channel": 3,
      "note": 35,
      "start": 29.1975,
      "duration": 0.0117,
      "velocity": 79,
      "chip": "ym2612"
    },
    {
      "channel": 4,
      "note": 58,
      "start": 29.2003,
      "duration": 0.0348,
      "velocity": 127,
      "chip": "ym2612"
    },
    {
      "channel": 2,
      "note": 75,
      "start": 29.2236,
      "duration": 0.0001,
      "velocity": 1,
      "chip": "ym2612"
    },
    {
      "channel": 3,
      "note": 56,
      "start": 29.2267,
      "duration": 0.0075,
      "velocity": 79,
      "chip": "ym2612"
    },
    {
      "channel": 0,
      "note": 67,
      "start": 29.2491,
      "duration": 0.0373,
      "velocity": 95,
      "chip": "ym2612"
    },
    {
      "channel": 2,
      "note": 85,
      "start": 29.2522,
      "duration": 0.0001,
      "velocity": 1,
      "chip": "ym2612"
    },
    {
      "channel": 3,
      "note": 56,
      "start": 29.2553,
      "duration": 0.0115,
      "velocity": 79,
      "chip": "ym2612"
    },
    {
      "channel": 4,
      "note": 58,
      "start": 29.258,
      "duration": 0.0096,
      "velocity": 127,
      "chip": "ym2612"
    },
    {
      "channel": 1,
      "note": 67,
      "start": 29.2806,
      "duration": 0.0378,
      "velocity": 95,
      "chip": "ym2612"
    },
    {
      "channel": 4,
      "note": 58,
      "start": 29.2844,
      "duration": 0.0079,
      "velocity": 127,
      "chip": "ym2612"
    },
    {
      "channel": 2,
      "note": 73,
      "start": 29.3077,
      "duration": 0.0001,
      "velocity": 1,
      "chip": "ym2612"
    },
    {
      "channel": 3,
      "note": 54,
      "start": 29.3109,
      "duration": 0.0088,
      "velocity": 107,
      "chip": "ym2612"
    },
    {
      "channel": 4,
      "note": 58,
      "start": 29.3136,
      "duration": 0.0369,
      "velocity": 127,
      "chip": "ym2612"
    },
    {
      "channel": 3,
      "note": 30,
      "start": 29.3401,
      "duration": 0.0062,
      "velocity": 107,
      "chip": "ym2612"
    },
    {
      "channel": 0,
      "note": 72,
      "start": 29.3675,
      "duration": 0.0401,
      "velocity": 95,
      "chip": "ym2612"
    },
    {
      "channel": 2,
      "note": 73,
      "start": 29.3707,
      "duration": 0.0001,
      "velocity": 1,
      "chip": "ym2612"
    },
    {
      "channel": 3,
      "note": 30,
      "start": 29.3739,
      "duration": 0.0078,
      "velocity": 107,
      "chip": "ym2612"
    },
    {
      "channel": 4,
      "note": 58,
      "start": 29.3766,
      "duration": 0.0094,
      "velocity": 127,
      "chip": "ym2612"
    },
    {
      "channel": 1,
      "note": 72,
      "start": 29.3995,
      "duration": 0.0366,
      "velocity": 95,
      "chip": "ym2612"
    },
    {
      "channel": 2,
      "note": 85,
      "start": 29.4022,
      "duration": 0.0001,
      "velocity": 1,
      "chip": "ym2612"
    },
    {
      "channel": 4,
      "note": 58,
      "start": 29.4056,
      "duration": 0.0078,
      "velocity": 127,
      "chip": "ym2612"
    },
    {
      "channel": 3,
      "note": 42,
      "start": 29.4295,
      "duration": 0.0116,
      "velocity": 79,
      "chip": "ym2612"
    },
    {
      "channel": 4,
      "note": 58,
      "start": 29.4322,
      "duration": 0.0314,
      "velocity": 127,
      "chip": "ym2612"
    },
    {
      "channel": 2,
      "note": 73,
      "start": 29.4551,
      "duration": 0.0001,
      "velocity": 1,
      "chip": "ym2612"
    },
    {
      "channel": 0,
      "note": 65,
      "start": 29.4779,
      "duration": 0.0401,
      "velocity": 95,
      "chip": "ym2612"
    },
    {
      "channel": 2,
      "note": 85,
      "start": 29.481,
      "duration": 0.0001,
      "velocity": 1,
      "chip": "ym2612"
    },
    {
      "channel": 3,
      "note": 54,
      "start": 29.4842,
      "duration": 0.0078,
      "velocity": 107,
      "chip": "ym2612"
    },
    {
      "channel": 4,
      "note": 58,
      "start": 29.487,
      "duration": 0.0094,
      "velocity": 127,
      "chip": "ym2612"
    },
    {
      "channel": 1,
      "note": 65,
      "start": 29.5097,
      "duration": 0.0394,
      "velocity": 95,
      "chip": "ym2612"
    },
    {
      "channel": 3,
      "note": 42,
      "start": 29.5132,
      "duration": 0.0067,
      "velocity": 107,
      "chip": "ym2612"
    },
    {
      "channel": 4,
      "note": 58,
      "start": 29.5159,
      "duration": 0.0082,
      "velocity": 127,
      "chip": "ym2612"
    },
    {
      "channel": 2,
      "note": 73,
      "start": 29.5393,
      "duration": 0.0001,
      "velocity": 1,
      "chip": "ym2612"
    },
    {
      "channel": 3,
      "note": 42,
      "start": 29.5425,
      "duration": 0.008,
      "velocity": 107,
      "chip": "ym2612"
    },
    {
      "channel": 4,
      "note": 58,
      "start": 29.5452,
      "duration": 0.0344,
      "velocity": 127,
      "chip": "ym2612"
    },
    {
      "channel": 2,
      "note": 85,
      "start": 29.5684,
      "duration": 0.0001,
      "velocity": 1,
      "chip": "ym2612"
    },
    {
      "channel": 3,
      "note": 35,
      "start": 29.5716,
      "duration": 0.0037,
      "velocity": 107,
      "chip": "ym2612"
    },
    {
      "channel": 0,
      "note": 62,
      "start": 29.5965,
      "duration": 0.0373,
      "velocity": 95,
      "chip": "ym2612"
    },
    {
      "channel": 2,
      "note": 85,
      "start": 29.5996,
      "duration": 0.0001,
      "velocity": 1,
      "chip": "ym2612"
    },
    {
      "channel": 3,
      "note": 35,
      "start": 29.6028,
      "duration": 0.0078,
      "velocity": 107,
      "chip": "ym2612"
    },
    {
      "channel": 4,
      "note": 58,
      "start": 29.6056,
      "duration": 0.0095,
      "velocity": 127,
      "chip": "ym2612"
    },
    {
      "channel": 1,
      "note": 62,
      "start": 29.6281,
      "duration": 0.0368,
      "velocity": 95,
      "chip": "ym2612"
    },
    {
      "channel": 4,
      "note": 58,
      "start": 29.6319,
      "duration": 0.0078,
      "velocity": 127,
      "chip": "ym2612"
    },
    {
      "channel": 2,
      "note": 73,
      "start": 29.6552,
      "duration": 0.0001,
      "velocity": 1,
      "chip": "ym2612"
    },
    {
      "channel": 3,
      "note": 37,
      "start": 29.6583,
      "duration": 0.0116,
      "velocity": 79,
      "chip": "ym2612"
    },
    {
      "channel": 4,
      "note": 58,
      "start": 29.661,
      "duration": 0.0363,
      "velocity": 127,
      "chip": "ym2612"
    },
    {
      "channel": 2,
      "note": 85,
      "start": 29.6844,
      "duration": 0.0001,
      "velocity": 1,
      "chip": "ym2612"
    },
    {
      "channel": 3,
      "note": 54,
      "start": 29.6876,
      "duration": 0.0089,
      "velocity": 79,
      "chip": "ym2612"
    },
    {
      "channel": 0,
      "note": 65,
      "start": 29.7135,
      "duration": 0.0411,
      "velocity": 95,
      "chip": "ym2612"
    },
    {
      "channel": 2,
      "note": 87,
      "start": 29.7167,
      "duration": 0.0001,
      "velocity": 1,
      "chip": "ym2612"
    },
    {
      "channel": 3,
      "note": 54,
      "start": 29.7198,
      "duration": 0.0124,
      "velocity": 79,
      "chip": "ym2612"
    },
    {
      "channel": 4,
      "note": 58,
      "start": 29.7225,
      "duration": 0.0105,
      "velocity": 127,
      "chip": "ym2612"
    },
    {
      "channel": 1,
      "note": 65,
      "start": 29.7465,
      "duration": 0.0398,
      "velocity": 95,
      "chip": "ym2612"
    },
    {
      "channel": 2,
      "note": 87,
      "start": 29.7492,
      "duration": 0.0001,
      "velocity": 1,
      "chip": "ym2612"
    },
    {
      "channel": 4,
      "note": 58,
      "start": 29.7527,
      "duration": 0.0078,
      "velocity": 127,
      "chip": "ym2612"
    },
    {
      "channel": 0,
      "note": 75,
      "start": 29.7748,
      "duration": 0.0427,
      "velocity": 95,
      "chip": "ym2612"
    },
    {
      "channel": 3,
      "note": 56,
      "start": 29.7787,
      "duration": 0.0091,
      "velocity": 107,
      "chip": "ym2612"
    },
    {
      "channel": 4,
      "note": 58,
      "start": 29.7815,
      "duration": 0.0422,
      "velocity": 127,
      "chip": "ym2612"
    },
    {
      "channel": 1,
      "note": 75,
      "start": 29.8071,
      "duration": 0.0446,
      "velocity": 95,
      "chip": "ym2612"
    },
    {
      "channel": 2,
      "note": 75,
      "start": 29.8098,
      "duration": 0.0001,
      "velocity": 1,
      "chip": "ym2612"
    },
    {
      "channel": 3,
      "note": 32,
      "start": 29.813,
      "duration": 0.0063,
      "velocity": 107,
      "chip": "ym2612"
    },
    {
      "channel": 0,
      "note": 71,
      "start": 29.8387,
      "duration": 0.0378,
      "velocity": 95,
      "chip": "ym2612"
    },
    {
      "channel": 2,
      "note": 87,
      "start": 29.8418,
      "duration": 0.0001,
      "velocity": 1,
      "chip": "ym2612"
    },
    {
      "channel": 3,
      "note": 32,
      "start": 29.845,
      "duration": 0.008,
      "velocity": 107,
      "chip": "ym2612"
    },
    {
      "channel": 4,
      "note": 58,
      "start": 29.8478,
      "duration": 0.0098,
      "velocity": 127,
      "chip": "ym2612"
    },
    {
      "channel": 1,
      "note": 71,
      "start": 29.8706,
      "duration": 0.0389,
      "velocity": 95,
      "chip": "ym2612"
    },
    {
      "channel": 4,
      "note": 58,
      "start": 29.8744,
      "duration": 0.0079,
      "velocity": 127,
      "chip": "ym2612"
    },
    {
      "channel": 0,
      "note": 68,
      "start": 29.8966,
      "duration": 0.0374,
      "velocity": 95,
      "chip": "ym2612"
    },
    {
      "channel": 2,
      "note": 75,
      "start": 29.8997,
      "duration": 0.0001,
      "velocity": 1,
      "chip": "ym2612"
    },
    {
      "channel": 3,
      "note": 44,
      "start": 29.9028,
      "duration": 0.0118,
      "velocity": 79,
      "chip": "ym2612"
    },
    {
      "channel": 4,
      "note": 58,
      "start": 29.9056,
      "duration": 0.0344,
      "velocity": 127,
      "chip": "ym2612"
    },
    {
      "channel": 1,
      "note": 68,
      "start": 29.9283,
      "duration": 0.0343,
      "velocity": 95,
      "chip": "ym2612"
    },
    {
      "channel": 2,
      "note": 87,
      "start": 29.931,
      "duration": 0.0001,
      "velocity": 1,
      "chip": "ym2612"
    },
    {
      "channel": 3,
      "note": 56,
      "start": 29.956,
      "duration": 0.0082,
      "velocity": 107,
      "chip": "ym2612"
    },
    {
      "channel": 4,
      "note": 58,
      "start": 29.9587,
      "duration": 0.0097,
      "velocity": 127,
      "chip": "ym2612"
    },
    {
      "channel": 2,
      "note": 75,
      "start": 29.985,
      "duration": 0.0001,
      "velocity": 1,
      "chip": "ym2612"
    },
    {
      "channel": 3,
      "note": 42,
      "start": 29.9882,
      "duration": 0.0078,
      "velocity": 107,
      "chip": "ym2612"
    },
    {
      "channel": 4,
      "note": 58,
      "start": 29.9909,
      "duration": 0.0094,
      "velocity": 127,
      "chip": "ym2612"
    },
    {
      "channel": 0,
      "note": 74,
      "start": 30.0165,
      "duration": 0.0382,
      "velocity": 95,
      "chip": "ym2612"
    },
    {
      "channel": 2,
      "note": 87,
      "start": 30.0197,
      "duration": 0.0001,
      "velocity": 1,
      "chip": "ym2612"
    },
    {
      "channel": 3,
      "note": 42,
      "start": 30.0229,
      "duration": 0.0087,
      "velocity": 107,
      "chip": "ym2612"
    },
    {
      "channel": 4,
      "note": 58,
      "start": 30.0256,
      "duration": 0.0353,
      "velocity": 127,
      "chip": "ym2612"
    },
    {
      "channel": 1,
      "note": 74,
      "start": 30.049,
      "duration": 0.0392,
      "velocity": 95,
      "chip": "ym2612"
    },
    {
      "channel": 3,
      "note": 44,
      "start": 30.0525,
      "duration": 0.0042,
      "velocity": 107,
      "chip": "ym2612"
    },
    {
      "channel": 0,
      "note": 71,
      "start": 30.0752,
      "duration": 0.0404,
      "velocity": 95,
      "chip": "ym2612"
    },
    {
      "channel": 2,
      "note": 75,
      "start": 30.0783,
      "duration": 0.0001,
      "velocity": 1,
      "chip": "ym2612"
    },
    {
      "channel": 3,
      "note": 44,
      "start": 30.0815,
      "duration": 0.008,
      "velocity": 107,
      "chip": "ym2612"
    },
    {
      "channel": 4,
      "note": 58,
      "start": 30.0843,
      "duration": 0.0097,
      "velocity": 127,
      "chip": "ym2612"
    },
    {
      "channel": 1,
      "note": 71,
      "start": 30.1074,
      "duration": 0.0414,
      "velocity": 95,
      "chip": "ym2612"
    },
    {
      "channel": 2,
      "note": 87,
      "start": 30.1101,
      "duration": 0.0001,
      "velocity": 1,
      "chip": "ym2612"
    },
    {
      "channel": 4,
      "note": 58,
      "start": 30.1136,
      "duration": 0.0079,
      "velocity": 127,
      "chip": "ym2612"
    },
    {
      "channel": 0,
      "note": 68,
      "start": 30.1359,
      "duration": 0.0345,
      "velocity": 95,
      "chip": "ym2612"
    },
    {
      "channel": 2,
      "note": 87,
      "start": 30.139,
      "duration": 0.0001,
      "velocity": 1,
      "chip": "ym2612"
    },
    {
      "channel": 3,
      "note": 35,
      "start": 30.1421,
      "duration": 0.0118,
      "velocity": 79,
      "chip": "ym2612"
    },
    {
      "channel": 4,
      "note": 58,
      "start": 30.1448,
      "duration": 0.0315,
      "velocity": 127,
      "chip": "ym2612"
    },
    {
      "channel": 1,
      "note": 68,
      "start": 30.1671,
      "duration": 0.0376,
      "velocity": 95,
      "chip": "ym2612"
    },
    {
      "channel": 0,
      "note": 71,
      "start": 30.191,
      "duration": 0.0385,
      "velocity": 95,
      "chip": "ym2612"
    },
    {
      "channel": 2,
      "note": 75,
      "start": 30.1941,
      "duration": 0.0001,
      "velocity": 1,
      "chip": "ym2612"
    },
    {
      "channel": 3,
      "note": 44,
      "start": 30.1972,
      "duration": 0.0126,
      "velocity": 79,
      "chip": "ym2612"
    },
    {
      "channel": 4,
      "note": 58,
      "start": 30.2,
      "duration": 0.0108,
      "velocity": 127,
      "chip": "ym2612"
    },
    {
      "channel": 1,
      "note": 71,
      "start": 30.2237,
      "duration": 0.0388,
      "velocity": 95,
      "chip": "ym2612"
    },
    {
      "channel": 4,
      "note": 58,
      "start": 30.2274,
      "duration": 0.008,
      "velocity": 127,
      "chip": "ym2612"
    },
    {
      "channel": 0,
      "note": 76,
      "start": 30.2494,
      "duration": 0.0417,
      "velocity": 95,
      "chip": "ym2612"
    },
    {
      "channel": 2,
      "note": 75,
      "start": 30.2525,
      "duration": 0.0001,
      "velocity": 1,
      "chip": "ym2612"
    },
    {
      "channel": 3,
      "note": 56,
      "start": 30.2557,
      "duration": 0.008,
      "velocity": 107,
      "chip": "ym2612"
    },
    {
      "channel": 4,
      "note": 58,
      "start": 30.2585,
      "duration": 0.0387,
      "velocity": 127,
      "chip": "ym2612"
    },
    {
      "channel": 1,
      "note": 76,
      "start": 30.283,
      "duration": 0.0413,
      "velocity": 95,
      "chip": "ym2612"
    },
    {
      "channel": 3,
      "note": 32,
      "start": 30.2865,
      "duration": 0.0065,
      "velocity": 107,
      "chip": "ym2612"
    },
    {
      "channel": 0,
      "note": 78,
      "start": 30.3113,
      "duration": 0.0406,
      "velocity": 95,
      "chip": "ym2612"
    },
    {
      "channel": 2,
      "note": 75,
      "start": 30.3144,
      "duration": 0.0001,
      "velocity": 1,
      "chip": "ym2612"
    },
    {
      "channel": 3,
      "note": 32,
      "start": 30.3176,
      "duration": 0.008,
      "velocity": 107,
      "chip": "ym2612"
    },
    {
      "channel": 4,
      "note": 58,
      "start": 30.3204,
      "duration": 0.0098,
      "velocity": 127,
      "chip": "ym2612"
    },
    {
      "channel": 1,
      "note": 78,
      "start": 30.3437,
      "duration": 0.0387,
      "velocity": 95,
      "chip": "ym2612"
    },
    {
      "channel": 2,
      "note": 87,
      "start": 30.3464,
      "duration": 0.0001,
      "velocity": 1,
      "chip": "ym2612"
    },
    {
      "channel": 4,
      "note": 58,
      "start": 30.3499,
      "duration": 0.0078,
      "velocity": 127,
      "chip": "ym2612"
    },
    {
      "channel": 0,
      "note": 71,
      "start": 30.3719,
      "duration": 0.0371,
      "velocity": 95,
      "chip": "ym2612"
    },
    {
      "channel": 3,
      "note": 44,
      "start": 30.3757,
      "duration": 0.0118,
      "velocity": 79,
      "chip": "ym2612"
    },
    {
      "channel": 4,
      "note": 58,
      "start": 30.3784,
      "duration": 0.0365,
      "velocity": 127,
      "chip": "ym2612"
    },
    {
      "channel": 1,
      "note": 71,
      "start": 30.4018,
      "duration": 0.0349,
      "velocity": 95,
      "chip": "ym2612"
    },
    {
      "channel": 2,
      "note": 75,
      "start": 30.4045,
      "duration": 0.0001,
      "velocity": 1,
      "chip": "ym2612"
    },
    {
      "channel": 3,
      "note": 56,
      "start": 30.4301,
      "duration": 0.0081,
      "velocity": 107,
      "chip": "ym2612"
    },
    {
      "channel": 4,
      "note": 58,
      "start": 30.4328,
      "duration": 0.0096,
      "velocity": 127,
      "chip": "ym2612"
    },
    {
      "channel": 2,
      "note": 75,
      "start": 30.4566,
      "duration": 0.0001,
      "velocity": 1,
      "chip": "ym2612"
    },
    {
      "channel": 3,
      "note": 42,
      "start": 30.4598,
      "duration": 0.0063,
      "velocity": 107,
      "chip": "ym2612"
    },
    {
      "channel": 4,
      "note": 58,
      "start": 30.4625,
      "duration": 0.008,
      "velocity": 127,
      "chip": "ym2612"
    },
    {
      "channel": 0,
      "note": 72,
      "start": 30.4865,
      "duration": 0.04,
      "velocity": 95,
      "chip": "ym2612"
    },
    {
      "channel": 2,
      "note": 87,
      "start": 30.4896,
      "duration": 0.0001,
      "velocity": 1,
      "chip": "ym2612"
    },
    {
      "channel": 3,
      "note": 42,
      "start": 30.4928,
      "duration": 0.0078,
      "velocity": 107,
      "chip": "ym2612"
    },
    {
      "channel": 4,
      "note": 58,
      "start": 30.4956,
      "duration": 0.0371,
      "velocity": 127,
      "chip": "ym2612"
    },
    {
      "channel": 1,
      "note": 72,
      "start": 30.5184,
      "duration": 0.0417,
      "velocity": 95,
      "chip": "ym2612"
    },
    {
      "channel": 2,
      "note": 87,
      "start": 30.5211,
      "duration": 0.0001,
      "velocity": 1,
      "chip": "ym2612"
    },
    {
      "channel": 3,
      "note": 44,
      "start": 30.5243,
      "duration": 0.004,
      "velocity": 107,
      "chip": "ym2612"
    },
    {
      "channel": 0,
      "note": 75,
      "start": 30.5471,
      "duration": 0.0378,
      "velocity": 95,
      "chip": "ym2612"
    },
    {
      "channel": 2,
      "note": 87,
      "start": 30.5502,
      "duration": 0.0001,
      "velocity": 1,
      "chip": "ym2612"
    },
    {
      "channel": 3,
      "note": 44,
      "start": 30.5534,
      "duration": 0.008,
      "velocity": 107,
      "chip": "ym2612"
    },
    {
      "channel": 4,
      "note": 58,
      "start": 30.5562,
      "duration": 0.0097,
      "velocity": 127,
      "chip": "ym2612"
    },
    {
      "channel": 1,
      "note": 75,
      "start": 30.5791,
      "duration": 0.0365,
      "velocity": 95,
      "chip": "ym2612"
    },
    {
      "channel": 4,
      "note": 58,
      "start": 30.5828,
      "duration": 0.0079,
      "velocity": 127,
      "chip": "ym2612"
    },
    {
      "channel": 2,
      "note": 75,
      "start": 30.6058,
      "duration": 0.0001,
      "velocity": 1,
      "chip": "ym2612"
    },
    {
      "channel": 3,
      "note": 35,
      "start": 30.609,
      "duration": 0.008,
      "velocity": 107,
      "chip": "ym2612"
    },
    {
      "channel": 4,
      "note": 58,
      "start": 30.6117,
      "duration": 0.0391,
      "velocity": 127,
      "chip": "ym2612"
    },
    {
      "channel": 2,
      "note": 87,
      "start": 30.6379,
      "duration": 0.0001,
      "velocity": 1,
      "chip": "ym2612"
    },
    {
      "channel": 3,
      "note": 37,
      "start": 30.6411,
      "duration": 0.0053,
      "velocity": 107,
      "chip": "ym2612"
    },
    {
      "channel": 0,
      "note": 75,
      "start": 30.6651,
      "duration": 0.0376,
      "velocity": 95,
      "chip": "ym2612"
    },
    {
      "channel": 2,
      "note": 87,
      "start": 30.6683,
      "duration": 0.0001,
      "velocity": 1,
      "chip": "ym2612"
    },
    {
      "channel": 3,
      "note": 37,
      "start": 30.6714,
      "duration": 0.0115,
      "velocity": 79,
      "chip": "ym2612"
    },
    {
      "channel": 4,
      "note": 58,
      "start": 30.6741,
      "duration": 0.0098,
      "velocity": 127,
      "chip": "ym2612"
    },
    {
      "channel": 1,
      "note": 75,
      "start": 30.6969,
      "duration": 0.0391,
      "velocity": 95,
      "chip": "ym2612"
    },
    {
      "channel": 4,
      "note": 58,
      "start": 30.7007,
      "duration": 0.0079,
      "velocity": 127,
      "chip": "ym2612"
    },
    {
      "channel": 0,
      "note": 75,
      "start": 30.723,
      "duration": 0.0416,
      "velocity": 95,
      "chip": "ym2612"
    },
    {
      "channel": 2,
      "note": 75,
      "start": 30.7261,
      "duration": 0.0001,
      "velocity": 1,
      "chip": "ym2612"
    },
    {
      "channel": 3,
      "note": 56,
      "start": 30.7293,
      "duration": 0.008,
      "velocity": 107,
      "chip": "ym2612"
    },
    {
      "channel": 4,
      "note": 58,
      "start": 30.7321,
      "duration": 0.0387,
      "velocity": 127,
      "chip": "ym2612"
    },
    {
      "channel": 1,
      "note": 75,
      "start": 30.7566,
      "duration": 0.0415,
      "velocity": 95,
      "chip": "ym2612"
    },
    {
      "channel": 3,
      "note": 32,
      "start": 30.76,
      "duration": 0.0065,
      "velocity": 107,
      "chip": "ym2612"
    },
    {
      "channel": 0,
      "note": 71,
      "start": 30.7851,
      "duration": 0.0405,
      "velocity": 95,
      "chip": "ym2612"
    },
    {
      "channel": 2,
      "note": 75,
      "start": 30.7883,
      "duration": 0.0001,
      "velocity": 1,
      "chip": "ym2612"
    },
    {
      "channel": 3,
      "note": 32,
      "start": 30.7915,
      "duration": 0.008,
      "velocity": 107,
      "chip": "ym2612"
    },
    {
      "channel": 4,
      "note": 58,
      "start": 30.7942,
      "duration": 0.0098,
      "velocity": 127,
      "chip": "ym2612"
    },
    {
      "channel": 1,
      "note": 71,
      "start": 30.8174,
      "duration": 0.0413,
      "velocity": 95,
      "chip": "ym2612"
    },
    {
      "channel": 2,
      "note": 87,
      "start": 30.8201,
      "duration": 0.0001,
      "velocity": 1,
      "chip": "ym2612"
    },
    {
      "channel": 4,
      "note": 58,
      "start": 30.8236,
      "duration": 0.0078,
      "velocity": 127,
      "chip": "ym2612"
    },
    {
      "channel": 0,
      "note": 68,
      "start": 30.8458,
      "duration": 0.0374,
      "velocity": 95,
      "chip": "ym2612"
    },
    {
      "channel": 2,
      "note": 87,
      "start": 30.8489,
      "duration": 0.0001,
      "velocity": 1,
      "chip": "ym2612"
    },
    {
      "channel": 3,
      "note": 44,
      "start": 30.852,
      "duration": 0.0118,
      "velocity": 79,
      "chip": "ym2612"
    },
    {
      "channel": 4,
      "note": 58,
      "start": 30.8548,
      "duration": 0.0343,
      "velocity": 127,
      "chip": "ym2612"
    },
    {
      "channel": 1,
      "note": 68,
      "start": 30.8775,
      "duration": 0.0343,
      "velocity": 95,
      "chip": "ym2612"
    },
    {
      "channel": 2,
      "note": 87,
      "start": 30.8802,
      "duration": 0.0001,
      "velocity": 1,
      "chip": "ym2612"
    },
    {
      "channel": 3,
      "note": 56,
      "start": 30.9051,
      "duration": 0.0081,
      "velocity": 107,
      "chip": "ym2612"
    },
    {
      "channel": 4,
      "note": 58,
      "start": 30.9078,
      "duration": 0.0097,
      "velocity": 127,
      "chip": "ym2612"
    },
    {
      "channel": 2,
      "note": 75,
      "start": 30.9341,
      "duration": 0.0001,
      "velocity": 1,
      "chip": "ym2612"
    },
    {
      "channel": 3,
      "note": 42,
      "start": 30.9373,
      "duration": 0.0079,
      "velocity": 107,
      "chip": "ym2612"
    },
    {
      "channel": 4,
      "note": 58,
      "start": 30.9401,
      "duration": 0.0095,
      "velocity": 127,
      "chip": "ym2612"
    },
    {
      "channel": 0,
      "note": 74,
      "start": 30.9656,
      "duration": 0.0409,
      "velocity": 95,
      "chip": "ym2612"
    },
    {
      "channel": 2,
      "note": 87,
      "start": 30.9688,
      "duration": 0.0001,
      "velocity": 1,
      "chip": "ym2612"
    },
    {
      "channel": 3,
      "note": 42,
      "start": 30.972,
      "duration": 0.0087,
      "velocity": 107,
      "chip": "ym2612"
    },
    {
      "channel": 4,
      "note": 58,
      "start": 30.9748,
      "duration": 0.038,
      "velocity": 127,
      "chip": "ym2612"
    },
    {
      "channel": 1,
      "note": 74,
      "start": 30.9985,
      "duration": 0.0391,
      "velocity": 95,
      "chip": "ym2612"
    },
    {
      "channel": 2,
      "note": 87,
      "start": 31.0012,
      "duration": 0.0001,
      "velocity": 1,
      "chip": "ym2612"
    },
    {
      "channel": 3,
      "note": 44,
      "start": 31.0044,
      "duration": 0.004,
      "velocity": 107,
      "chip": "ym2612"
    },
    {
      "channel": 0,
      "note": 71,
      "start": 31.0269,
      "duration": 0.038,
      "velocity": 95,
      "chip": "ym2612"
    },
    {
      "channel": 3,
      "note": 44,
      "start": 31.0309,
      "duration": 0.0082,
      "velocity": 107,
      "chip": "ym2612"
    },
    {
      "channel": 4,
      "note": 58,
      "start": 31.0336,
      "duration": 0.0097,
      "velocity": 127,
      "chip": "ym2612"
    },
    {
      "channel": 1,
      "note": 71,
      "start": 31.0568,
      "duration": 0.0363,
      "velocity": 95,
      "chip": "ym2612"
    },
    {
      "channel": 2,
      "note": 75,
      "start": 31.0595,
      "duration": 0.0001,
      "velocity": 1,
      "chip": "ym2612"
    },
    {
      "channel": 4,
      "note": 58,
      "start": 31.0629,
      "duration": 0.0079,
      "velocity": 127,
      "chip": "ym2612"
    },
    {
      "channel": 3,
      "note": 35,
      "start": 31.0863,
      "duration": 0.0118,
      "velocity": 79,
      "chip": "ym2612"
    },
    {
      "channel": 4,
      "note": 58,
      "start": 31.0891,
      "duration": 0.0347,
      "velocity": 127,
      "chip": "ym2612"
    },
    {
      "channel": 2,
      "note": 75,
      "start": 31.1124,
      "duration": 0.0001,
      "velocity": 1,
      "chip": "ym2612"
    },
    {
      "channel": 3,
      "note": 56,
      "start": 31.1155,
      "duration": 0.0075,
      "velocity": 79,
      "chip": "ym2612"
    },
    {
      "channel": 0,
      "note": 67,
      "start": 31.1378,
      "duration": 0.0373,
      "velocity": 95,
      "chip": "ym2612"
    },
    {
      "channel": 2,
      "note": 85,
      "start": 31.141,
      "duration": 0.0001,
      "velocity": 1,
      "chip": "ym2612"
    },
    {
      "channel": 3,
      "note": 56,
      "start": 31.144,
      "duration": 0.0115,
      "velocity": 79,
      "chip": "ym2612"
    },
    {
      "channel": 4,
      "note": 58,
      "start": 31.1468,
      "duration": 0.0096,
      "velocity": 127,
      "chip": "ym2612"
    },
    {
      "channel": 1,
      "note": 67,
      "start": 31.1693,
      "duration": 0.0378,
      "velocity": 95,
      "chip": "ym2612"
    },
    {
      "channel": 4,
      "note": 58,
      "start": 31.1731,
      "duration": 0.008,
      "velocity": 127,
      "chip": "ym2612"
    },
    {
      "channel": 2,
      "note": 73,
      "start": 31.1964,
      "duration": 0.0001,
      "velocity": 1,
      "chip": "ym2612"
    },
    {
      "channel": 3,
      "note": 54,
      "start": 31.1996,
      "duration": 0.0088,
      "velocity": 107,
      "chip": "ym2612"
    },
    {
      "channel": 4,
      "note": 58,
      "start": 31.2024,
      "duration": 0.0368,
      "velocity": 127,
      "chip": "ym2612"
    },
    {
      "channel": 3,
      "note": 30,
      "start": 31.2288,
      "duration": 0.0063,
      "velocity": 107,
      "chip": "ym2612"
    },
    {
      "channel": 0,
      "note": 72,
      "start": 31.2562,
      "duration": 0.045,
      "velocity": 95,
      "chip": "ym2612"
    },
    {
      "channel": 2,
      "note": 73,
      "start": 31.2593,
      "duration": 0.0001,
      "velocity": 1,
      "chip": "ym2612"
    },
    {
      "channel": 3,
      "note": 30,
      "start": 31.2625,
      "duration": 0.0078,
      "velocity": 107,
      "chip": "ym2612"
    },
    {
      "channel": 4,
      "note": 58,
      "start": 31.2653,
      "duration": 0.0094,
      "velocity": 127,
      "chip": "ym2612"
    },
    {
      "channel": 1,
      "note": 72,
      "start": 31.2914,
      "duration": 0.0373,
      "velocity": 95,
      "chip": "ym2612"
    },
    {
      "channel": 2,
      "note": 85,
      "start": 31.2941,
      "duration": 0.0001,
      "velocity": 1,
      "chip": "ym2612"
    },
    {
      "channel": 4,
      "note": 58,
      "start": 31.2976,
      "duration": 0.0094,
      "velocity": 127,
      "chip": "ym2612"
    },
    {
      "channel": 3,
      "note": 42,
      "start": 31.3221,
      "duration": 0.0118,
      "velocity": 79,
      "chip": "ym2612"
    },
    {
      "channel": 4,
      "note": 58,
      "start": 31.3248,
      "duration": 0.0362,
      "velocity": 127,
      "chip": "ym2612"
    },
    {
      "channel": 2,
      "note": 73,
      "start": 31.3509,
      "duration": 0.0001,
      "velocity": 1,
      "chip": "ym2612"
    },
    {
      "channel": 2,
      "note": 85,
      "start": 31.376,
      "duration": 0.0001,
      "velocity": 1,
      "chip": "ym2612"
    },
    {
      "channel": 3,
      "note": 54,
      "start": 31.3792,
      "duration": 0.0077,
      "velocity": 107,
      "chip": "ym2612"
    },
    {
      "channel": 4,
      "note": 58,
      "start": 31.3819,
      "duration": 0.0094,
      "velocity": 127,
      "chip": "ym2612"
    },
    {
      "channel": 3,
      "note": 42,
      "start": 31.4057,
      "duration": 0.0064,
      "velocity": 107,
      "chip": "ym2612"
    },
    {
      "channel": 4,
      "note": 58,
      "start": 31.4085,
      "duration": 0.0079,
      "velocity": 127,
      "chip": "ym2612"
    },
    {
      "channel": 0,
      "note": 75,
      "start": 31.433,
      "duration": 0.0422,
      "velocity": 95,
      "chip": "ym2612"
    },
    {
      "channel": 2,
      "note": 73,
      "start": 31.4361,
      "duration": 0.0001,
      "velocity": 1,
      "chip": "ym2612"
    },
    {
      "channel": 3,
      "note": 42,
      "start": 31.4393,
      "duration": 0.0078,
      "velocity": 107,
      "chip": "ym2612"
    },
    {
      "channel": 4,
      "note": 58,
      "start": 31.442,
      "duration": 0.0394,
      "velocity": 127,
      "chip": "ym2612"
    },
    {
      "channel": 1,
      "note": 75,
      "start": 31.4656,
      "duration": 0.045,
      "velocity": 95,
      "chip": "ym2612"
    },
    {
      "channel": 2,
      "note": 85,
      "start": 31.4683,
      "duration": 0.0001,
      "velocity": 1,
      "chip": "ym2612"
    },
    {
      "channel": 3,
      "note": 35,
      "start": 31.4715,
      "duration": 0.0055,
      "velocity": 107,
      "chip": "ym2612"
    },
    {
      "channel": 0,
      "note": 76,
      "start": 31.4976,
      "duration": 0.0395,
      "velocity": 95,
      "chip": "ym2612"
    },
    {
      "channel": 2,
      "note": 85,
      "start": 31.5007,
      "duration": 0.0001,
      "velocity": 1,
      "chip": "ym2612"
    },
    {
      "channel": 3,
      "note": 35,
      "start": 31.5039,
      "duration": 0.008,
      "velocity": 107,
      "chip": "ym2612"
    },
    {
      "channel": 4,
      "note": 58,
      "start": 31.5066,
      "duration": 0.0096,
      "velocity": 127,
      "chip": "ym2612"
    },
    {
      "channel": 1,
      "note": 76,
      "start": 31.5298,
      "duration": 0.0424,
      "velocity": 95,
      "chip": "ym2612"
    },
    {
      "channel": 4,
      "note": 58,
      "start": 31.5336,
      "duration": 0.0094,
      "velocity": 127,
      "chip": "ym2612"
    },
    {
      "channel": 0,
      "note": 75,
      "start": 31.5593,
      "duration": 0.0419,
      "velocity": 95,
      "chip": "ym2612"
    },
    {
      "channel": 2,
      "note": 73,
      "start": 31.5624,
      "duration": 0.0001,
      "velocity": 1,
      "chip": "ym2612"
    },
    {
      "channel": 3,
      "note": 37,
      "start": 31.5655,
      "duration": 0.0118,
      "velocity": 79,
      "chip": "ym2612"
    },
    {
      "channel": 4,
      "note": 58,
      "start": 31.5683,
      "duration": 0.0393,
      "velocity": 127,
      "chip": "ym2612"
    },
    {
      "channel": 1,
      "note": 75,
      "start": 31.5917,
      "duration": 0.0332,
      "velocity": 95,
      "chip": "ym2612"
    },
    {
      "channel": 2,
      "note": 85,
      "start": 31.5944,
      "duration": 0.0001,
      "velocity": 1,
      "chip": "ym2612"
    },
    {
      "channel": 3,
      "note": 54,
      "start": 31.5975,
      "duration": 0.0092,
      "velocity": 79,
      "chip": "ym2612"
    },
    {
      "channel": 0,
      "note": 71,
      "start": 31.6238,
      "duration": 0.0372,
      "velocity": 95,
      "chip": "ym2612"
    },
    {
      "channel": 1,
      "note": 71,
      "start": 31.6265,
      "duration": 0.0241,
      "velocity": 107,
      "chip": "ym2612"
    },
    {
      "channel": 2,
      "note": 87,
      "start": 31.6292,
      "duration": 0.0221,
      "velocity": 107,
      "chip": "ym2612"
    },
    {
      "channel": 3,
      "note": 54,
      "start": 31.632,
      "duration": 0.0119,
      "velocity": 79,
      "chip": "ym2612"
    },
    {
      "channel": 4,
      "note": 58,
      "start": 31.6347,
      "duration": 0.0098,
      "velocity": 127,
      "chip": "ym2612"
    },
    {
      "channel": 4,
      "note": 58,
      "start": 31.6591,
      "duration": 0.0074,
      "velocity": 127,
      "chip": "ym2612"
    },
    {
      "channel": 1,
      "note": 80,
      "start": 31.6805,
      "duration": 0.0235,
      "velocity": 107,
      "chip": "ym2612"
    },
    {
      "channel": 2,
      "note": 75,
      "start": 31.6832,
      "duration": 0.0215,
      "velocity": 107,
      "chip": "ym2612"
    },
    {
      "channel": 3,
      "note": 56,
      "start": 31.6861,
      "duration": 0.0077,
      "velocity": 107,
      "chip": "ym2612"
    },
    {
      "channel": 4,
      "note": 58,
      "start": 31.6888,
      "duration": 0.0335,
      "velocity": 127,
      "chip": "ym2612"
    },
    {
      "channel": 3,
      "note": 32,
      "start": 31.7124,
      "duration": 0.0059,
      "velocity": 107,
      "chip": "ym2612"
    },
    {
      "channel": 1,
      "note": 75,
      "start": 31.7374,
      "duration": 0.0234,
      "velocity": 107,
      "chip": "ym2612"
    },
    {
      "channel": 2,
      "note": 71,
      "start": 31.7401,
      "duration": 0.0214,
      "velocity": 107,
      "chip": "ym2612"
    },
    {
      "channel": 3,
      "note": 32,
      "start": 31.7429,
      "duration": 0.0077,
      "velocity": 107,
      "chip": "ym2612"
    },
    {
      "channel": 4,
      "note": 58,
      "start": 31.7457,
      "duration": 0.009,
      "velocity": 127,
      "chip": "ym2612"
    },
    {
      "channel": 4,
      "note": 58,
      "start": 31.7692,
      "duration": 0.0072,
      "velocity": 127,
      "chip": "ym2612"
    },
    {
      "channel": 1,
      "note": 75,
      "start": 31.7925,
      "duration": 0.0235,
      "velocity": 107,
      "chip": "ym2612"
    },
    {
      "channel": 2,
      "note": 71,
      "start": 31.7952,
      "duration": 0.0214,
      "velocity": 107,
      "chip": "ym2612"
    },
    {
      "channel": 3,
      "note": 44,
      "start": 31.7979,
      "duration": 0.0111,
      "velocity": 79,
      "chip": "ym2612"
    },
    {
      "channel": 4,
      "note": 58,
      "start": 31.8007,
      "duration": 0.0325,
      "velocity": 127,
      "chip": "ym2612"
    },
    {
      "channel": 1,
      "note": 75,
      "start": 31.8227,
      "duration": 0.0173,
      "velocity": 107,
      "chip": "ym2612"
    },
    {
      "channel": 2,
      "note": 71,
      "start": 31.8254,
      "duration": 0.0153,
      "velocity": 107,
      "chip": "ym2612"
    },
    {
      "channel": 3,
      "note": 56,
      "start": 31.8488,
      "duration": 0.0077,
      "velocity": 107,
      "chip": "ym2612"
    },
    {
      "channel": 4,
      "note": 58,
      "start": 31.8515,
      "duration": 0.0089,
      "velocity": 127,
      "chip": "ym2612"
    },
    {
      "channel": 1,
      "note": 75,
      "start": 31.8746,
      "duration": 0.0246,
      "velocity": 107,
      "chip": "ym2612"
    },
    {
      "channel": 2,
      "note": 71,
      "start": 31.8773,
      "duration": 0.0231,
      "velocity": 107,
      "chip": "ym2612"
    },
    {
      "channel": 3,
      "note": 42,
      "start": 31.8802,
      "duration": 0.0077,
      "velocity": 107,
      "chip": "ym2612"
    },
    {
      "channel": 4,
      "note": 58,
      "start": 31.8829,
      "duration": 0.0091,
      "velocity": 127,
      "chip": "ym2612"
    },
    {
      "channel": 1,
      "note": 75,
      "start": 31.907,
      "duration": 0.0241,
      "velocity": 107,
      "chip": "ym2612"
    },
    {
      "channel": 2,
      "note": 71,
      "start": 31.9097,
      "duration": 0.022,
      "velocity": 107,
      "chip": "ym2612"
    },
    {
      "channel": 3,
      "note": 42,
      "start": 31.9125,
      "duration": 0.0086,
      "velocity": 107,
      "chip": "ym2612"
    },
    {
      "channel": 4,
      "note": 58,
      "start": 31.9153,
      "duration": 0.0316,
      "velocity": 127,
      "chip": "ym2612"
    },
    {
      "channel": 3,
      "note": 44,
      "start": 31.9392,
      "duration": 0.0036,
      "velocity": 107,
      "chip": "ym2612"
    },
    {
      "channel": 1,
      "note": 75,
      "start": 31.9624,
      "duration": 0.0233,
      "velocity": 107,
      "chip": "ym2612"
    },
    {
      "channel": 2,
      "note": 71,
      "start": 31.9651,
      "duration": 0.0212,
      "velocity": 107,
      "chip": "ym2612"
    },
    {
      "channel": 3,
      "note": 44,
      "start": 31.968,
      "duration": 0.0077,
      "velocity": 107,
      "chip": "ym2612"
    },
    {
      "channel": 4,
      "note": 58,
      "start": 31.9707,
      "duration": 0.009,
      "velocity": 127,
      "chip": "ym2612"
    },
    {
      "channel": 4,
      "note": 58,
      "start": 31.9941,
      "duration": 0.0072,
      "velocity": 127,
      "chip": "ym2612"
    },
    {
      "channel": 1,
      "note": 75,
      "start": 32.0175,
      "duration": 0.0227,
      "velocity": 107,
      "chip": "ym2612"
    },
    {
      "channel": 2,
      "note": 71,
      "start": 32.0202,
      "duration": 0.0207,
      "velocity": 107,
      "chip": "ym2612"
    },
    {
      "channel": 3,
      "note": 35,
      "start": 32.0229,
      "duration": 0.011,
      "velocity": 79,
      "chip": "ym2612"
    },
    {
      "channel": 4,
      "note": 58,
      "start": 32.0257,
      "duration": 0.0275,
      "velocity": 127,
      "chip": "ym2612"
    },
    {
      "channel": 1,
      "note": 75,
      "start": 32.067,
      "duration": 0.0241,
      "velocity": 107,
      "chip": "ym2612"
    },
    {
      "channel": 2,
      "note": 71,
      "start": 32.0697,
      "duration": 0.022,
      "velocity": 107,
      "chip": "ym2612"
    },
    {
      "channel": 3,
      "note": 44,
      "start": 32.0724,
      "duration": 0.0118,
      "velocity": 79,
      "chip": "ym2612"
    },
    {
      "channel": 4,
      "note": 58,
      "start": 32.0752,
      "duration": 0.0096,
      "velocity": 127,
      "chip": "ym2612"
    },
    {
      "channel": 4,
      "note": 58,
      "start": 32.0995,
      "duration": 0.0072,
      "velocity": 127,
      "chip": "ym2612"
    },
    {
      "channel": 1,
      "note": 75,
      "start": 32.1224,
      "duration": 0.0243,
      "velocity": 107,
      "chip": "ym2612"
    },
    {
      "channel": 2,
      "note": 71,
      "start": 32.1251,
      "duration": 0.0222,
      "velocity": 107,
      "chip": "ym2612"
    },
    {
      "channel": 3,
      "note": 56,
      "start": 32.128,
      "duration": 0.0086,
      "velocity": 107,
      "chip": "ym2612"
    },
    {
      "channel": 4,
      "note": 58,
      "start": 32.1307,
      "duration": 0.0346,
      "velocity": 127,
      "chip": "ym2612"
    },
    {
      "channel": 3,
      "note": 32,
      "start": 32.1553,
      "duration": 0.006,
      "velocity": 107,
      "chip": "ym2612"
    },
    {
      "channel": 1,
      "note": 76,
      "start": 32.1804,
      "duration": 0.0234,
      "velocity": 107,
      "chip": "ym2612"
    },
    {
      "channel": 2,
      "note": 71,
      "start": 32.1831,
      "duration": 0.0214,
      "velocity": 107,
      "chip": "ym2612"
    },
    {
      "channel": 3,
      "note": 32,
      "start": 32.1859,
      "duration": 0.0077,
      "velocity": 107,
      "chip": "ym2612"
    },
    {
      "channel": 4,
      "note": 58,
      "start": 32.1887,
      "duration": 0.009,
      "velocity": 127,
      "chip": "ym2612"
    },
    {
      "channel": 4,
      "note": 58,
      "start": 32.2122,
      "duration": 0.0071,
      "velocity": 127,
      "chip": "ym2612"
    },
    {
      "channel": 1,
      "note": 76,
      "start": 32.2355,
      "duration": 0.0236,
      "velocity": 107,
      "chip": "ym2612"
    },
    {
      "channel": 2,
      "note": 71,
      "start": 32.2382,
      "duration": 0.0216,
      "velocity": 107,
      "chip": "ym2612"
    },
    {
      "channel": 3,
      "note": 44,
      "start": 32.2409,
      "duration": 0.0111,
      "velocity": 79,
      "chip": "ym2612"
    },
    {
      "channel": 4,
      "note": 58,
      "start": 32.2437,
      "duration": 0.0359,
      "velocity": 127,
      "chip": "ym2612"
    },
    {
      "channel": 1,
      "note": 76,
      "start": 32.2676,
      "duration": 0.0188,
      "velocity": 107,
      "chip": "ym2612"
    },
    {
      "channel": 2,
      "note": 71,
      "start": 32.2702,
      "duration": 0.0168,
      "velocity": 107,
      "chip": "ym2612"
    },
    {
      "channel": 3,
      "note": 56,
      "start": 32.2961,
      "duration": 0.0084,
      "velocity": 107,
      "chip": "ym2612"
    },
    {
      "channel": 4,
      "note": 58,
      "start": 32.2988,
      "duration": 0.0098,
      "velocity": 127,
      "chip": "ym2612"
    },
    {
      "channel": 1,
      "note": 78,
      "start": 32.3221,
      "duration": 0.0228,
      "velocity": 107,
      "chip": "ym2612"
    },
    {
      "channel": 2,
      "note": 73,
      "start": 32.3248,
      "duration": 0.0212,
      "velocity": 107,
      "chip": "ym2612"
    },
    {
      "channel": 3,
      "note": 42,
      "start": 32.3277,
      "duration": 0.0061,
      "velocity": 107,
      "chip": "ym2612"
    },
    {
      "channel": 4,
      "note": 58,
      "start": 32.3304,
      "duration": 0.0075,
      "velocity": 127,
      "chip": "ym2612"
    },
    {
      "channel": 1,
      "note": 78,
      "start": 32.3536,
      "duration": 0.0232,
      "velocity": 107,
      "chip": "ym2612"
    },
    {
      "channel": 2,
      "note": 73,
      "start": 32.3563,
      "duration": 0.0212,
      "velocity": 107,
      "chip": "ym2612"
    },
    {
      "channel": 3,
      "note": 42,
      "start": 32.3592,
      "duration": 0.0077,
      "velocity": 107,
      "chip": "ym2612"
    },
    {
      "channel": 4,
      "note": 58,
      "start": 32.3619,
      "duration": 0.0307,
      "velocity": 127,
      "chip": "ym2612"
    },
    {
      "channel": 3,
      "note": 44,
      "start": 32.3849,
      "duration": 0.0037,
      "velocity": 107,
      "chip": "ym2612"
    },
    {
      "channel": 1,
      "note": 78,
      "start": 32.4088,
      "duration": 0.0233,
      "velocity": 107,
      "chip": "ym2612"
    },
    {
      "channel": 2,
      "note": 73,
      "start": 32.4114,
      "duration": 0.0213,
      "velocity": 107,
      "chip": "ym2612"
    },
    {
      "channel": 3,
      "note": 44,
      "start": 32.4143,
      "duration": 0.0077,
      "velocity": 107,
      "chip": "ym2612"
    },
    {
      "channel": 4,
      "note": 58,
      "start": 32.417,
      "duration": 0.009,
      "velocity": 127,
      "chip": "ym2612"
    },
    {
      "channel": 4,
      "note": 58,
      "start": 32.4404,
      "duration": 0.0072,
      "velocity": 127,
      "chip": "ym2612"
    },
    {
      "channel": 1,
      "note": 78,
      "start": 32.4639,
      "duration": 0.0233,
      "velocity": 107,
      "chip": "ym2612"
    },
    {
      "channel": 2,
      "note": 73,
      "start": 32.4666,
      "duration": 0.0213,
      "velocity": 107,
      "chip": "ym2612"
    },
    {
      "channel": 3,
      "note": 35,
      "start": 32.4694,
      "duration": 0.0077,
      "velocity": 107,
      "chip": "ym2612"
    },
    {
      "channel": 4,
      "note": 58,
      "start": 32.4722,
      "duration": 0.0342,
      "velocity": 127,
      "chip": "ym2612"
    },
    {
      "channel": 3,
      "note": 37,
      "start": 32.4972,
      "duration": 0.0051,
      "velocity": 107,
      "chip": "ym2612"
    },
    {
      "channel": 1,
      "note": 78,
      "start": 32.5204,
      "duration": 0.0241,
      "velocity": 107,
      "chip": "ym2612"
    },
    {
      "channel": 2,
      "note": 73,
      "start": 32.523,
      "duration": 0.0221,
      "velocity": 107,
      "chip": "ym2612"
    },
    {
      "channel": 3,
      "note": 37,
      "start": 32.5258,
      "duration": 0.0119,
      "velocity": 79,
      "chip": "ym2612"
    },
    {
      "channel": 4,
      "note": 58,
      "start": 32.5286,
      "duration": 0.0097,
      "velocity": 127,
      "chip": "ym2612"
    },
    {
      "channel": 4,
      "note": 58,
      "start": 32.5529,
      "duration": 0.0071,
      "velocity": 127,
      "chip": "ym2612"
    },
    {
      "channel": 1,
      "note": 78,
      "start": 32.5758,
      "duration": 0.0242,
      "velocity": 107,
      "chip": "ym2612"
    },
    {
      "channel": 2,
      "note": 73,
      "start": 32.5785,
      "duration": 0.0222,
      "velocity": 107,
      "chip": "ym2612"
    },
    {
      "channel": 3,
      "note": 56,
      "start": 32.5813,
      "duration": 0.0085,
      "velocity": 107,
      "chip": "ym2612"
    },
    {
      "channel": 4,
      "note": 58,
      "start": 32.5841,
      "duration": 0.0346,
      "velocity": 127,
      "chip": "ym2612"
    },
    {
      "channel": 3,
      "note": 32,
      "start": 32.6087,
      "duration": 0.0059,
      "velocity": 107,
      "chip": "ym2612"
    },
    {
      "channel": 1,
      "note": 75,
      "start": 32.6337,
      "duration": 0.0234,
      "velocity": 107,
      "chip": "ym2612"
    },
    {
      "channel": 2,
      "note": 71,
      "start": 32.6364,
      "duration": 0.0214,
      "velocity": 107,
      "chip": "ym2612"
    },
    {
      "channel": 3,
      "note": 32,
      "start": 32.6393,
      "duration": 0.0077,
      "velocity": 107,
      "chip": "ym2612"
    },
    {
      "channel": 4,
      "note": 58,
      "start": 32.642,
      "duration": 0.009,
      "velocity": 127,
      "chip": "ym2612"
    },
    {
      "channel": 4,
      "note": 58,
      "start": 32.6655,
      "duration": 0.0071,
      "velocity": 127,
      "chip": "ym2612"
    },
    {
      "channel": 1,
      "note": 75,
      "start": 32.6888,
      "duration": 0.0234,
      "velocity": 107,
      "chip": "ym2612"
    },
    {
      "channel": 2,
      "note": 71,
      "start": 32.6915,
      "duration": 0.0214,
      "velocity": 107,
      "chip": "ym2612"
    },
    {
      "channel": 3,
      "note": 44,
      "start": 32.6942,
      "duration": 0.0111,
      "velocity": 79,
      "chip": "ym2612"
    },
    {
      "channel": 4,
      "note": 58,
      "start": 32.697,
      "duration": 0.0326,
      "velocity": 127,
      "chip": "ym2612"
    },
    {
      "channel": 1,
      "note": 75,
      "start": 32.719,
      "duration": 0.0173,
      "velocity": 107,
      "chip": "ym2612"
    },
    {
      "channel": 2,
      "note": 71,
      "start": 32.7217,
      "duration": 0.0153,
      "velocity": 107,
      "chip": "ym2612"
    },
    {
      "channel": 3,
      "note": 56,
      "start": 32.7451,
      "duration": 0.0077,
      "velocity": 107,
      "chip": "ym2612"
    },
    {
      "channel": 4,
      "note": 58,
      "start": 32.7478,
      "duration": 0.0089,
      "velocity": 127,
      "chip": "ym2612"
    },
    {
      "channel": 1,
      "note": 75,
      "start": 32.771,
      "duration": 0.0245,
      "velocity": 107,
      "chip": "ym2612"
    },
    {
      "channel": 2,
      "note": 71,
      "start": 32.7737,
      "duration": 0.0229,
      "velocity": 107,
      "chip": "ym2612"
    },
    {
      "channel": 3,
      "note": 42,
      "start": 32.7765,
      "duration": 0.0077,
      "velocity": 107,
      "chip": "ym2612"
    },
    {
      "channel": 4,
      "note": 58,
      "start": 32.7793,
      "duration": 0.0089,
      "velocity": 127,
      "chip": "ym2612"
    },
    {
      "channel": 1,
      "note": 75,
      "start": 32.8033,
      "duration": 0.0241,
      "velocity": 107,
      "chip": "ym2612"
    },
    {
      "channel": 2,
      "note": 71,
      "start": 32.806,
      "duration": 0.022,
      "velocity": 107,
      "chip": "ym2612"
    },
    {
      "channel": 3,
      "note": 42,
      "start": 32.8088,
      "duration": 0.0086,
      "velocity": 107,
      "chip": "ym2612"
    },
    {
      "channel": 4,
      "note": 58,
      "start": 32.8116,
      "duration": 0.0316,
      "velocity": 127,
      "chip": "ym2612"
    },
    {
      "channel": 3,
      "note": 44,
      "start": 32.8354,
      "duration": 0.0037,
      "velocity": 107,
      "chip": "ym2612"
    },
    {
      "channel": 1,
      "note": 75,
      "start": 32.8587,
      "duration": 0.0233,
      "velocity": 107,
      "chip": "ym2612"
    },
    {
      "channel": 2,
      "note": 71,
      "start": 32.8614,
      "duration": 0.0212,
      "velocity": 107,
      "chip": "ym2612"
    },
    {
      "channel": 3,
      "note": 44,
      "start": 32.8643,
      "duration": 0.0077,
      "velocity": 107,
      "chip": "ym2612"
    },
    {
      "channel": 4,
      "note": 58,
      "start": 32.867,
      "duration": 0.009,
      "velocity": 127,
      "chip": "ym2612"
    },
    {
      "channel": 4,
      "note": 58,
      "start": 32.8903,
      "duration": 0.0073,
      "velocity": 127,
      "chip": "ym2612"
    },
    {
      "channel": 1,
      "note": 75,
      "start": 32.9138,
      "duration": 0.023,
      "velocity": 107,
      "chip": "ym2612"
    },
    {
      "channel": 2,
      "note": 71,
      "start": 32.9165,
      "duration": 0.021,
      "velocity": 107,
      "chip": "ym2612"
    },
    {
      "channel": 3,
      "note": 35,
      "start": 32.9192,
      "duration": 0.0111,
      "velocity": 79,
      "chip": "ym2612"
    },
    {
      "channel": 4,
      "note": 58,
      "start": 32.922,
      "duration": 0.0305,
      "velocity": 127,
      "chip": "ym2612"
    },
    {
      "channel": 3,
      "note": 56,
      "start": 32.9449,
      "duration": 0.007,
      "velocity": 79,
      "chip": "ym2612"
    },
    {
      "channel": 1,
      "note": 75,
      "start": 32.9665,
      "duration": 0.0232,
      "velocity": 107,
      "chip": "ym2612"
    },
    {
      "channel": 2,
      "note": 71,
      "start": 32.9692,
      "duration": 0.0212,
      "velocity": 107,
      "chip": "ym2612"
    },
    {
      "channel": 3,
      "note": 56,
      "start": 32.972,
      "duration": 0.011,
      "velocity": 79,
      "chip": "ym2612"
    },
    {
      "channel": 4,
      "note": 58,
      "start": 32.9747,
      "duration": 0.0089,
      "velocity": 127,
      "chip": "ym2612"
    },
    {
      "channel": 4,
      "note": 58,
      "start": 32.9982,
      "duration": 0.0071,
      "velocity": 127,
      "chip": "ym2612"
    },
    {
      "channel": 1,
      "note": 75,
      "start": 33.0211,
      "duration": 0.0241,
      "velocity": 107,
      "chip": "ym2612"
    },
    {
      "channel": 2,
      "note": 71,
      "start": 33.0238,
      "duration": 0.0221,
      "velocity": 107,
      "chip": "ym2612"
    },
    {
      "channel": 3,
      "note": 56,
      "start": 33.0267,
      "duration": 0.0085,
      "velocity": 107,
      "chip": "ym2612"
    },
    {
      "channel": 4,
      "note": 58,
      "start": 33.0294,
      "duration": 0.0346,
      "velocity": 127,
      "chip": "ym2612"
    },
    {
      "channel": 3,
      "note": 32,
      "start": 33.054,
      "duration": 0.006,
      "velocity": 107,
      "chip": "ym2612"
    },
    {
      "channel": 1,
      "note": 76,
      "start": 33.0791,
      "duration": 0.0234,
      "velocity": 107,
      "chip": "ym2612"
    },
    {
      "channel": 2,
      "note": 71,
      "start": 33.0818,
      "duration": 0.0214,
      "velocity": 107,
      "chip": "ym2612"
    },
    {
      "channel": 3,
      "note": 32,
      "start": 33.0846,
      "duration": 0.0077,
      "velocity": 107,
      "chip": "ym2612"
    },
    {
      "channel": 4,
      "note": 58,
      "start": 33.0874,
      "duration": 0.009,
      "velocity": 127,
      "chip": "ym2612"
    },
    {
      "channel": 4,
      "note": 58,
      "start": 33.1109,
      "duration": 0.0072,
      "velocity": 127,
      "chip": "ym2612"
    },
    {
      "channel": 1,
      "note": 76,
      "start": 33.1342,
      "duration": 0.0234,
      "velocity": 107,
      "chip": "ym2612"
    },
    {
      "channel": 2,
      "note": 71,
      "start": 33.1369,
      "duration": 0.0214,
      "velocity": 107,
      "chip": "ym2612"
    },
    {
      "channel": 3,
      "note": 44,
      "start": 33.1396,
      "duration": 0.0111,
      "velocity": 79,
      "chip": "ym2612"
    },
    {
      "channel": 4,
      "note": 58,
      "start": 33.1424,
      "duration": 0.0326,
      "velocity": 127,
      "chip": "ym2612"
    },
    {
      "channel": 1,
      "note": 76,
      "start": 33.1644,
      "duration": 0.0173,
      "velocity": 107,
      "chip": "ym2612"
    },
    {
      "channel": 2,
      "note": 71,
      "start": 33.1671,
      "duration": 0.0153,
      "velocity": 107,
      "chip": "ym2612"
    },
    {
      "channel": 3,
      "note": 56,
      "start": 33.1905,
      "duration": 0.0085,
      "velocity": 107,
      "chip": "ym2612"
    },
    {
      "channel": 4,
      "note": 58,
      "start": 33.1932,
      "duration": 0.0098,
      "velocity": 127,
      "chip": "ym2612"
    },
    {
      "channel": 1,
      "note": 78,
      "start": 33.2165,
      "duration": 0.023,
      "velocity": 107,
      "chip": "ym2612"
    },
    {
      "channel": 2,
      "note": 73,
      "start": 33.2192,
      "duration": 0.0214,
      "velocity": 107,
      "chip": "ym2612"
    },
    {
      "channel": 3,
      "note": 42,
      "start": 33.2221,
      "duration": 0.0061,
      "velocity": 107,
      "chip": "ym2612"
    },
    {
      "channel": 4,
      "note": 58,
      "start": 33.2248,
      "duration": 0.0075,
      "velocity": 127,
      "chip": "ym2612"
    },
    {
      "channel": 1,
      "note": 78,
      "start": 33.248,
      "duration": 0.023,
      "velocity": 107,
      "chip": "ym2612"
    },
    {
      "channel": 2,
      "note": 73,
      "start": 33.2507,
      "duration": 0.021,
      "velocity": 107,
      "chip": "ym2612"
    },
    {
      "channel": 3,
      "note": 42,
      "start": 33.2536,
      "duration": 0.0077,
      "velocity": 107,
      "chip": "ym2612"
    },
    {
      "channel": 4,
      "note": 58,
      "start": 33.2563,
      "duration": 0.0276,
      "velocity": 127,
      "chip": "ym2612"
    },
    {
      "channel": 1,
      "note": 78,
      "start": 33.3002,
      "duration": 0.0215,
      "velocity": 107,
      "chip": "ym2612"
    },
    {
      "channel": 2,
      "note": 73,
      "start": 33.3029,
      "duration": 0.0194,
      "velocity": 107,
      "chip": "ym2612"
    },
    {
      "channel": 3,
      "note": 44,
      "start": 33.3057,
      "duration": 0.0073,
      "velocity": 107,
      "chip": "ym2612"
    },
    {
      "channel": 4,
      "note": 58,
      "start": 33.3085,
      "duration": 0.0081,
      "velocity": 127,
      "chip": "ym2612"
    },
    {
      "channel": 3,
      "note": 35,
      "start": 33.3294,
      "duration": 0.0058,
      "velocity": 107,
      "chip": "ym2612"
    },
    {
      "channel": 4,
      "note": 58,
      "start": 33.3322,
      "duration": 0.0068,
      "velocity": 127,
      "chip": "ym2612"
    },
    {
      "channel": 1,
      "note": 78,
      "start": 33.3512,
      "duration": 0.0213,
      "velocity": 107,
      "chip": "ym2612"
    },
    {
      "channel": 2,
      "note": 73,
      "start": 33.3539,
      "duration": 0.0193,
      "velocity": 107,
      "chip": "ym2612"
    },
    {
      "channel": 3,
      "note": 35,
      "start": 33.3568,
      "duration": 0.0073,
      "velocity": 107,
      "chip": "ym2612"
    },
    {
      "channel": 4,
      "note": 58,
      "start": 33.3595,
      "duration": 0.0295,
      "velocity": 127,
      "chip": "ym2612"
    },
    {
      "channel": 3,
      "note": 37,
      "start": 33.381,
      "duration": 0.0074,
      "velocity": 79,
      "chip": "ym2612"
    },
    {
      "channel": 1,
      "note": 80,
      "start": 33.4037,
      "duration": 0.0219,
      "velocity": 107,
      "chip": "ym2612"
    },
    {
      "channel": 2,
      "note": 75,
      "start": 33.4064,
      "duration": 0.0199,
      "velocity": 107,
      "chip": "ym2612"
    },
    {
      "channel": 3,
      "note": 56,
      "start": 33.4092,
      "duration": 0.0109,
      "velocity": 79,
      "chip": "ym2612"
    },
    {
      "channel": 4,
      "note": 58,
      "start": 33.412,
      "duration": 0.0087,
      "velocity": 127,
      "chip": "ym2612"
    },
    {
      "channel": 4,
      "note": 58,
      "start": 33.4337,
      "duration": 0.0062,
      "velocity": 127,
      "chip": "ym2612"
    },
    {
      "channel": 1,
      "note": 80,
      "start": 33.4525,
      "duration": 0.0212,
      "velocity": 107,
      "chip": "ym2612"
    },
    {
      "channel": 2,
      "note": 75,
      "start": 33.4552,
      "duration": 0.0191,
      "velocity": 107,
      "chip": "ym2612"
    },
    {
      "channel": 3,
      "note": 56,
      "start": 33.4581,
      "duration": 0.0073,
      "velocity": 107,
      "chip": "ym2612"
    },
    {
      "channel": 4,
      "note": 58,
      "start": 33.4608,
      "duration": 0.0291,
      "velocity": 127,
      "chip": "ym2612"
    },
    {
      "channel": 3,
      "note": 32,
      "start": 33.4816,
      "duration": 0.0048,
      "velocity": 107,
      "chip": "ym2612"
    },
    {
      "channel": 1,
      "note": 75,
      "start": 33.502,
      "duration": 0.0215,
      "velocity": 107,
      "chip": "ym2612"
    },
    {
      "channel": 2,
      "note": 71,
      "start": 33.5047,
      "duration": 0.0194,
      "velocity": 107,
      "chip": "ym2612"
    },
    {
      "channel": 3,
      "note": 32,
      "start": 33.5075,
      "duration": 0.0074,
      "velocity": 107,
      "chip": "ym2612"
    },
    {
      "channel": 4,
      "note": 58,
      "start": 33.5103,
      "duration": 0.0083,
      "velocity": 127,
      "chip": "ym2612"
    },
    {
      "channel": 4,
      "note": 58,
      "start": 33.5313,
      "duration": 0.006,
      "velocity": 127,
      "chip": "ym2612"
    },
    {
      "channel": 1,
      "note": 75,
      "start": 33.5503,
      "duration": 0.0209,
      "velocity": 107,
      "chip": "ym2612"
    },
    {
      "channel": 2,
      "note": 71,
      "start": 33.553,
      "duration": 0.0188,
      "velocity": 107,
      "chip": "ym2612"
    },
    {
      "channel": 3,
      "note": 44,
      "start": 33.5557,
      "duration": 0.01,
      "velocity": 79,
      "chip": "ym2612"
    },
    {
      "channel": 4,
      "note": 58,
      "start": 33.5585,
      "duration": 0.0284,
      "velocity": 127,
      "chip": "ym2612"
    },
    {
      "channel": 1,
      "note": 75,
      "start": 33.5776,
      "duration": 0.0149,
      "velocity": 107,
      "chip": "ym2612"
    },
    {
      "channel": 2,
      "note": 71,
      "start": 33.5803,
      "duration": 0.0129,
      "velocity": 107,
      "chip": "ym2612"
    },
    {
      "channel": 3,
      "note": 56,
      "start": 33.602,
      "duration": 0.0074,
      "velocity": 107,
      "chip": "ym2612"
    },
    {
      "channel": 4,
      "note": 58,
      "start": 33.6047,
      "duration": 0.0082,
      "velocity": 127,
      "chip": "ym2612"
    },
    {
      "channel": 1,
      "note": 75,
      "start": 33.6271,
      "duration": 0.0223,
      "velocity": 107,
      "chip": "ym2612"
    },
    {
      "channel": 2,
      "note": 71,
      "start": 33.6298,
      "duration": 0.0205,
      "velocity": 107,
      "chip": "ym2612"
    },
    {
      "channel": 3,
      "note": 42,
      "start": 33.6326,
      "duration": 0.0073,
      "velocity": 107,
      "chip": "ym2612"
    },
    {
      "channel": 4,
      "note": 58,
      "start": 33.6354,
      "duration": 0.0081,
      "velocity": 127,
      "chip": "ym2612"
    },
    {
      "channel": 1,
      "note": 75,
      "start": 33.6562,
      "duration": 0.0209,
      "velocity": 107,
      "chip": "ym2612"
    },
    {
      "channel": 2,
      "note": 71,
      "start": 33.6589,
      "duration": 0.0188,
      "velocity": 107,
      "chip": "ym2612"
    },
    {
      "channel": 3,
      "note": 42,
      "start": 33.6617,
      "duration": 0.0073,
      "velocity": 107,
      "chip": "ym2612"
    },
    {
      "channel": 4,
      "note": 58,
      "start": 33.6645,
      "duration": 0.0272,
      "velocity": 127,
      "chip": "ym2612"
    },
    {
      "channel": 3,
      "note": 44,
      "start": 33.6848,
      "duration": 0.0034,
      "velocity": 107,
      "chip": "ym2612"
    },
    {
      "channel": 1,
      "note": 75,
      "start": 33.7066,
      "duration": 0.0212,
      "velocity": 107,
      "chip": "ym2612"
    },
    {
      "channel": 2,
      "note": 71,
      "start": 33.7093,
      "duration": 0.0191,
      "velocity": 107,
      "chip": "ym2612"
    },
    {
      "channel": 3,
      "note": 44,
      "start": 33.7121,
      "duration": 0.0074,
      "velocity": 107,
      "chip": "ym2612"
    },
    {
      "channel": 4,
      "note": 58,
      "start": 33.7149,
      "duration": 0.0081,
      "velocity": 127,
      "chip": "ym2612"
    },
    {
      "channel": 4,
      "note": 58,
      "start": 33.7358,
      "duration": 0.006,
      "velocity": 127,
      "chip": "ym2612"
    },
    {
      "channel": 1,
      "note": 75,
      "start": 33.7545,
      "duration": 0.0203,
      "velocity": 107,
      "chip": "ym2612"
    },
    {
      "channel": 2,
      "note": 71,
      "start": 33.7572,
      "duration": 0.0182,
      "velocity": 107,
      "chip": "ym2612"
    },
    {
      "channel": 3,
      "note": 35,
      "start": 33.7599,
      "duration": 0.0099,
      "velocity": 79,
      "chip": "ym2612"
    },
    {
      "channel": 4,
      "note": 58,
      "start": 33.7627,
      "duration": 0.0234,
      "velocity": 127,
      "chip": "ym2612"
    },
    {
      "channel": 1,
      "note": 75,
      "start": 33.7996,
      "duration": 0.022,
      "velocity": 107,
      "chip": "ym2612"
    },
    {
      "channel": 2,
      "note": 71,
      "start": 33.8023,
      "duration": 0.0199,
      "velocity": 107,
      "chip": "ym2612"
    },
    {
      "channel": 3,
      "note": 44,
      "start": 33.805,
      "duration": 0.0108,
      "velocity": 79,
      "chip": "ym2612"
    },
    {
      "channel": 4,
      "note": 58,
      "start": 33.8078,
      "duration": 0.0087,
      "velocity": 127,
      "chip": "ym2612"
    },
    {
      "channel": 4,
      "note": 58,
      "start": 33.8296,
      "duration": 0.006,
      "velocity": 127,
      "chip": "ym2612"
    },
    {
      "channel": 1,
      "note": 75,
      "start": 33.8482,
      "duration": 0.0213,
      "velocity": 107,
      "chip": "ym2612"
    },
    {
      "channel": 2,
      "note": 71,
      "start": 33.8509,
      "duration": 0.0192,
      "velocity": 107,
      "chip": "ym2612"
    },
    {
      "channel": 3,
      "note": 56,
      "start": 33.8537,
      "duration": 0.0073,
      "velocity": 107,
      "chip": "ym2612"
    },
    {
      "channel": 4,
      "note": 58,
      "start": 33.8565,
      "duration": 0.0291,
      "velocity": 127,
      "chip": "ym2612"
    },
    {
      "channel": 3,
      "note": 32,
      "start": 33.8773,
      "duration": 0.0048,
      "velocity": 107,
      "chip": "ym2612"
    },
    {
      "channel": 1,
      "note": 76,
      "start": 33.8977,
      "duration": 0.0214,
      "velocity": 107,
      "chip": "ym2612"
    },
    {
      "channel": 2,
      "note": 71,
      "start": 33.9003,
      "duration": 0.0194,
      "velocity": 107,
      "chip": "ym2612"
    },
    {
      "channel": 3,
      "note": 32,
      "start": 33.9032,
      "duration": 0.0073,
      "velocity": 107,
      "chip": "ym2612"
    },
    {
      "channel": 4,
      "note": 58,
      "start": 33.906,
      "duration": 0.0082,
      "velocity": 127,
      "chip": "ym2612"
    },
    {
      "channel": 4,
      "note": 58,
      "start": 33.927,
      "duration": 0.006,
      "velocity": 127,
      "chip": "ym2612"
    },
    {
      "channel": 1,
      "note": 76,
      "start": 33.9459,
      "duration": 0.0212,
      "velocity": 107,
      "chip": "ym2612"
    },
    {
      "channel": 2,
      "note": 71,
      "start": 33.9486,
      "duration": 0.0191,
      "velocity": 107,
      "chip": "ym2612"
    },
    {
      "channel": 3,
      "note": 44,
      "start": 33.9513,
      "duration": 0.01,
      "velocity": 79,
      "chip": "ym2612"
    },
    {
      "channel": 4,
      "note": 58,
      "start": 33.9541,
      "duration": 0.0311,
      "velocity": 127,
      "chip": "ym2612"
    },
    {
      "channel": 1,
      "note": 76,
      "start": 33.9743,
      "duration": 0.0165,
      "velocity": 107,
      "chip": "ym2612"
    },
    {
      "channel": 2,
      "note": 71,
      "start": 33.977,
      "duration": 0.0145,
      "velocity": 107,
      "chip": "ym2612"
    },
    {
      "channel": 3,
      "note": 56,
      "start": 33.9993,
      "duration": 0.0081,
      "velocity": 107,
      "chip": "ym2612"
    },
    {
      "channel": 4,
      "note": 58,
      "start": 34.002,
      "duration": 0.0091,
      "velocity": 127,
      "chip": "ym2612"
    },
    {
      "channel": 1,
      "note": 78,
      "start": 34.0226,
      "duration": 0.0208,
      "velocity": 107,
      "chip": "ym2612"
    },
    {
      "channel": 2,
      "note": 73,
      "start": 34.0253,
      "duration": 0.0188,
      "velocity": 107,
      "chip": "ym2612"
    },
    {
      "channel": 3,
      "note": 42,
      "start": 34.0282,
      "duration": 0.0058,
      "velocity": 107,
      "chip": "ym2612"
    },
    {
      "channel": 4,
      "note": 58,
      "start": 34.0309,
      "duration": 0.0067,
      "velocity": 127,
      "chip": "ym2612"
    },
    {
      "channel": 1,
      "note": 78,
      "start": 34.0521,
      "duration": 0.021,
      "velocity": 107,
      "chip": "ym2612"
    },
    {
      "channel": 2,
      "note": 73,
      "start": 34.0548,
      "duration": 0.0189,
      "velocity": 107,
      "chip": "ym2612"
    },
    {
      "channel": 3,
      "note": 42,
      "start": 34.0576,
      "duration": 0.0073,
      "velocity": 107,
      "chip": "ym2612"
    },
    {
      "channel": 4,
      "note": 58,
      "start": 34.0604,
      "duration": 0.0273,
      "velocity": 127,
      "chip": "ym2612"
    },
    {
      "channel": 3,
      "note": 44,
      "start": 34.0807,
      "duration": 0.0034,
      "velocity": 107,
      "chip": "ym2612"
    },
    {
      "channel": 1,
      "note": 78,
      "start": 34.1005,
      "duration": 0.0212,
      "velocity": 107,
      "chip": "ym2612"
    },
    {
      "channel": 2,
      "note": 73,
      "start": 34.1032,
      "duration": 0.0192,
      "velocity": 107,
      "chip": "ym2612"
    },
    {
      "channel": 3,
      "note": 44,
      "start": 34.1061,
      "duration": 0.0073,
      "velocity": 107,
      "chip": "ym2612"
    },
    {
      "channel": 4,
      "note": 58,
      "start": 34.1088,
      "duration": 0.0082,
      "velocity": 127,
      "chip": "ym2612"
    },
    {
      "channel": 4,
      "note": 58,
      "start": 34.1298,
      "duration": 0.006,
      "velocity": 127,
      "chip": "ym2612"
    },
    {
      "channel": 1,
      "note": 78,
      "start": 34.1484,
      "duration": 0.0209,
      "velocity": 107,
      "chip": "ym2612"
    },
    {
      "channel": 2,
      "note": 73,
      "start": 34.1511,
      "duration": 0.0189,
      "velocity": 107,
      "chip": "ym2612"
    },
    {
      "channel": 3,
      "note": 35,
      "start": 34.154,
      "duration": 0.0073,
      "velocity": 107,
      "chip": "ym2612"
    },
    {
      "channel": 4,
      "note": 58,
      "start": 34.1567,
      "duration": 0.0299,
      "velocity": 127,
      "chip": "ym2612"
    },
    {
      "channel": 3,
      "note": 37,
      "start": 34.1782,
      "duration": 0.0048,
      "velocity": 107,
      "chip": "ym2612"
    },
    {
      "channel": 1,
      "note": 78,
      "start": 34.1989,
      "duration": 0.021,
      "velocity": 107,
      "chip": "ym2612"
    },
    {
      "channel": 2,
      "note": 73,
      "start": 34.2016,
      "duration": 0.019,
      "velocity": 107,
      "chip": "ym2612"
    },
    {
      "channel": 3,
      "note": 37,
      "start": 34.2044,
      "duration": 0.0099,
      "velocity": 79,
      "chip": "ym2612"
    },
    {
      "channel": 4,
      "note": 58,
      "start": 34.2071,
      "duration": 0.0077,
      "velocity": 127,
      "chip": "ym2612"
    },
    {
      "channel": 4,
      "note": 58,
      "start": 34.228,
      "duration": 0.0061,
      "velocity": 127,
      "chip": "ym2612"
    },
    {
      "channel": 1,
      "note": 78,
      "start": 34.2467,
      "duration": 0.0212,
      "velocity": 107,
      "chip": "ym2612"
    },
    {
      "channel": 2,
      "note": 73,
      "start": 34.2494,
      "duration": 0.0192,
      "velocity": 107,
      "chip": "ym2612"
    },
    {
      "channel": 3,
      "note": 56,
      "start": 34.2523,
      "duration": 0.0072,
      "velocity": 107,
      "chip": "ym2612"
    },
    {
      "channel": 4,
      "note": 58,
      "start": 34.255,
      "duration": 0.0291,
      "velocity": 127,
      "chip": "ym2612"
    },
    {
      "channel": 3,
      "note": 32,
      "start": 34.2758,
      "duration": 0.0048,
      "velocity": 107,
      "chip": "ym2612"
    },
    {
      "channel": 1,
      "note": 75,
      "start": 34.2961,
      "duration": 0.0214,
      "velocity": 107,
      "chip": "ym2612"
    },
    {
      "channel": 2,
      "note": 71,
      "start": 34.2988,
      "duration": 0.0194,
      "velocity": 107,
      "chip": "ym2612"
    },
    {
      "channel": 3,
      "note": 32,
      "start": 34.3017,
      "duration": 0.0073,
      "velocity": 107,
      "chip": "ym2612"
    },
    {
      "channel": 4,
      "note": 58,
      "start": 34.3044,
      "duration": 0.0082,
      "velocity": 127,
      "chip": "ym2612"
    },
    {
      "channel": 4,
      "note": 58,
      "start": 34.3255,
      "duration": 0.006,
      "velocity": 127,
      "chip": "ym2612"
    },
    {
      "channel": 1,
      "note": 75,
      "start": 34.3444,
      "duration": 0.021,
      "velocity": 107,
      "chip": "ym2612"
    },
    {
      "channel": 2,
      "note": 71,
      "start": 34.3471,
      "duration": 0.019,
      "velocity": 107,
      "chip": "ym2612"
    },
    {
      "channel": 3,
      "note": 44,
      "start": 34.3499,
      "duration": 0.01,
      "velocity": 79,
      "chip": "ym2612"
    },
    {
      "channel": 4,
      "note": 58,
      "start": 34.3527,
      "duration": 0.0285,
      "velocity": 127,
      "chip": "ym2612"
    },
    {
      "channel": 1,
      "note": 75,
      "start": 34.3719,
      "duration": 0.015,
      "velocity": 107,
      "chip": "ym2612"
    },
    {
      "channel": 2,
      "note": 71,
      "start": 34.3746,
      "duration": 0.013,
      "velocity": 107,
      "chip": "ym2612"
    },
    {
      "channel": 3,
      "note": 56,
      "start": 34.3963,
      "duration": 0.0073,
      "velocity": 107,
      "chip": "ym2612"
    },
    {
      "channel": 4,
      "note": 58,
      "start": 34.399,
      "duration": 0.0081,
      "velocity": 127,
      "chip": "ym2612"
    },
    {
      "channel": 1,
      "note": 75,
      "start": 34.4215,
      "duration": 0.0223,
      "velocity": 107,
      "chip": "ym2612"
    },
    {
      "channel": 2,
      "note": 71,
      "start": 34.4241,
      "duration": 0.0205,
      "velocity": 107,
      "chip": "ym2612"
    },
    {
      "channel": 3,
      "note": 42,
      "start": 34.427,
      "duration": 0.0073,
      "velocity": 107,
      "chip": "ym2612"
    },
    {
      "channel": 4,
      "note": 58,
      "start": 34.4298,
      "duration": 0.0081,
      "velocity": 127,
      "chip": "ym2612"
    },
    {
      "channel": 1,
      "note": 75,
      "start": 34.4506,
      "duration": 0.0208,
      "velocity": 107,
      "chip": "ym2612"
    },
    {
      "channel": 2,
      "note": 71,
      "start": 34.4533,
      "duration": 0.0188,
      "velocity": 107,
      "chip": "ym2612"
    },
    {
      "channel": 3,
      "note": 42,
      "start": 34.4562,
      "duration": 0.0072,
      "velocity": 107,
      "chip": "ym2612"
    },
    {
      "channel": 4,
      "note": 58,
      "start": 34.4589,
      "duration": 0.0273,
      "velocity": 127,
      "chip": "ym2612"
    },
    {
      "channel": 3,
      "note": 44,
      "start": 34.4792,
      "duration": 0.0034,
      "velocity": 107,
      "chip": "ym2612"
    },
    {
      "channel": 1,
      "note": 75,
      "start": 34.5012,
      "duration": 0.0213,
      "velocity": 107,
      "chip": "ym2612"
    },
    {
      "channel": 2,
      "note": 71,
      "start": 34.5038,
      "duration": 0.0193,
      "velocity": 107,
      "chip": "ym2612"
    },
    {
      "channel": 3,
      "note": 44,
      "start": 34.5067,
      "duration": 0.0073,
      "velocity": 107,
      "chip": "ym2612"
    },
    {
      "channel": 4,
      "note": 58,
      "start": 34.5095,
      "duration": 0.0082,
      "velocity": 127,
      "chip": "ym2612"
    },
    {
      "channel": 4,
      "note": 58,
      "start": 34.5305,
      "duration": 0.0061,
      "velocity": 127,
      "chip": "ym2612"
    },
    {
      "channel": 1,
      "note": 75,
      "start": 34.5492,
      "duration": 0.0207,
      "velocity": 107,
      "chip": "ym2612"
    },
    {
      "channel": 2,
      "note": 71,
      "start": 34.5519,
      "duration": 0.0187,
      "velocity": 107,
      "chip": "ym2612"
    },
    {
      "channel": 3,
      "note": 35,
      "start": 34.5546,
      "duration": 0.0101,
      "velocity": 79,
      "chip": "ym2612"
    },
    {
      "channel": 4,
      "note": 58,
      "start": 34.5574,
      "duration": 0.0268,
      "velocity": 127,
      "chip": "ym2612"
    },
    {
      "channel": 3,
      "note": 56,
      "start": 34.5776,
      "duration": 0.0061,
      "velocity": 79,
      "chip": "ym2612"
    },
    {
      "channel": 1,
      "note": 75,
      "start": 34.5977,
      "duration": 0.022,
      "velocity": 107,
      "chip": "ym2612"
    },
    {
      "channel": 2,
      "note": 71,
      "start": 34.6004,
      "duration": 0.02,
      "velocity": 107,
      "chip": "ym2612"
    },
    {
      "channel": 3,
      "note": 56,
      "start": 34.6031,
      "duration": 0.0109,
      "velocity": 79,
      "chip": "ym2612"
    },
    {
      "channel": 4,
      "note": 58,
      "start": 34.6059,
      "duration": 0.0088,
      "velocity": 127,
      "chip": "ym2612"
    },
    {
      "channel": 4,
      "note": 58,
      "start": 34.6278,
      "duration": 0.006,
      "velocity": 127,
      "chip": "ym2612"
    },
    {
      "channel": 1,
      "note": 75,
      "start": 34.6464,
      "duration": 0.0213,
      "velocity": 107,
      "chip": "ym2612"
    },
    {
      "channel": 2,
      "note": 71,
      "start": 34.6491,
      "duration": 0.0192,
      "velocity": 107,
      "chip": "ym2612"
    },
    {
      "channel": 3,
      "note": 56,
      "start": 34.652,
      "duration": 0.0073,
      "velocity": 107,
      "chip": "ym2612"
    },
    {
      "channel": 4,
      "note": 58,
      "start": 34.6547,
      "duration": 0.0291,
      "velocity": 127,
      "chip": "ym2612"
    },
    {
      "channel": 3,
      "note": 32,
      "start": 34.6755,
      "duration": 0.0048,
      "velocity": 107,
      "chip": "ym2612"
    },
    {
      "channel": 1,
      "note": 76,
      "start": 34.6959,
      "duration": 0.0214,
      "velocity": 107,
      "chip": "ym2612"
    },
    {
      "channel": 2,
      "note": 71,
      "start": 34.6986,
      "duration": 0.0193,
      "velocity": 107,
      "chip": "ym2612"
    },
    {
      "channel": 3,
      "note": 32,
      "start": 34.7015,
      "duration": 0.0073,
      "velocity": 107,
      "chip": "ym2612"
    },
    {
      "channel": 4,
      "note": 58,
      "start": 34.7042,
      "duration": 0.0082,
      "velocity": 127,
      "chip": "ym2612"
    },
    {
      "channel": 4,
      "note": 58,
      "start": 34.7252,
      "duration": 0.006,
      "velocity": 127,
      "chip": "ym2612"
    },
    {
      "channel": 1,
      "note": 76,
      "start": 34.7441,
      "duration": 0.021,
      "velocity": 107,
      "chip": "ym2612"
    },
    {
      "channel": 2,
      "note": 71,
      "start": 34.7468,
      "duration": 0.0189,
      "velocity": 107,
      "chip": "ym2612"
    },
    {
      "channel": 3,
      "note": 44,
      "start": 34.7495,
      "duration": 0.01,
      "velocity": 79,
      "chip": "ym2612"
    },
    {
      "channel": 4,
      "note": 58,
      "start": 34.7523,
      "duration": 0.0285,
      "velocity": 127,
      "chip": "ym2612"
    },
    {
      "channel": 1,
      "note": 76,
      "start": 34.7715,
      "duration": 0.0149,
      "velocity": 107,
      "chip": "ym2612"
    },
    {
      "channel": 2,
      "note": 71,
      "start": 34.7742,
      "duration": 0.0129,
      "velocity": 107,
      "chip": "ym2612"
    },
    {
      "channel": 3,
      "note": 56,
      "start": 34.7959,
      "duration": 0.0081,
      "velocity": 107,
      "chip": "ym2612"
    },
    {
      "channel": 4,
      "note": 58,
      "start": 34.7986,
      "duration": 0.0091,
      "velocity": 127,
      "chip": "ym2612"
    },
    {
      "channel": 1,
      "note": 78,
      "start": 34.8192,
      "duration": 0.0209,
      "velocity": 107,
      "chip": "ym2612"
    },
    {
      "channel": 2,
      "note": 73,
      "start": 34.8219,
      "duration": 0.0191,
      "velocity": 107,
      "chip": "ym2612"
    },
    {
      "channel": 3,
      "note": 42,
      "start": 34.8247,
      "duration": 0.0058,
      "velocity": 107,
      "chip": "ym2612"
    },
    {
      "channel": 4,
      "note": 58,
      "start": 34.8275,
      "duration": 0.0067,
      "velocity": 127,
      "chip": "ym2612"
    },
    {
      "channel": 1,
      "note": 78,
      "start": 34.8487,
      "duration": 0.0209,
      "velocity": 107,
      "chip": "ym2612"
    },
    {
      "channel": 2,
      "note": 73,
      "start": 34.8514,
      "duration": 0.0188,
      "velocity": 107,
      "chip": "ym2612"
    },
    {
      "channel": 3,
      "note": 42,
      "start": 34.8542,
      "duration": 0.0074,
      "velocity": 107,
      "chip": "ym2612"
    },
    {
      "channel": 4,
      "note": 58,
      "start": 34.857,
      "duration": 0.024,
      "velocity": 127,
      "chip": "ym2612"
    },
    {
      "channel": 1,
      "note": 78,
      "start": 34.8944,
      "duration": 0.023,
      "velocity": 107,
      "chip": "ym2612"
    },
    {
      "channel": 2,
      "note": 73,
      "start": 34.897,
      "duration": 0.021,
      "velocity": 107,
      "chip": "ym2612"
    },
    {
      "channel": 3,
      "note": 44,
      "start": 34.8999,
      "duration": 0.0089,
      "velocity": 107,
      "chip": "ym2612"
    },
    {
      "channel": 4,
      "note": 58,
      "start": 34.9026,
      "duration": 0.0098,
      "velocity": 127,
      "chip": "ym2612"
    },
    {
      "channel": 3,
      "note": 35,
      "start": 34.9252,
      "duration": 0.0059,
      "velocity": 107,
      "chip": "ym2612"
    },
    {
      "channel": 4,
      "note": 58,
      "start": 34.9279,
      "duration": 0.0067,
      "velocity": 127,
      "chip": "ym2612"
    },
    {
      "channel": 1,
      "note": 78,
      "start": 34.9472,
      "duration": 0.0212,
      "velocity": 107,
      "chip": "ym2612"
    },
    {
      "channel": 2,
      "note": 73,
      "start": 34.9498,
      "duration": 0.0192,
      "velocity": 107,
      "chip": "ym2612"
    },
    {
      "channel": 3,
      "note": 35,
      "start": 34.9527,
      "duration": 0.0074,
      "velocity": 107,
      "chip": "ym2612"
    },
    {
      "channel": 4,
      "note": 58,
      "start": 34.9555,
      "duration": 0.0295,
      "velocity": 127,
      "chip": "ym2612"
    },
    {
      "channel": 3,
      "note": 37,
      "start": 34.9769,
      "duration": 0.0074,
      "velocity": 79,
      "chip": "ym2612"
    },
    {
      "channel": 0,
      "note": 69,
      "start": 34.9996,
      "duration": 0.0411,
      "velocity": 95,
      "chip": "ym2612"
    },
    {
      "channel": 2,
      "note": 75,
      "start": 35.0027,
      "duration": 0.0001,
      "velocity": 1,
      "chip": "ym2612"
    },
    {
      "channel": 3,
      "note": 56,
      "start": 35.0058,
      "duration": 0.0124,
      "velocity": 79,
      "chip": "ym2612"
    },
    {
      "channel": 4,
      "note": 58,
      "start": 35.0086,
      "duration": 0.0106,
      "velocity": 127,
      "chip": "ym2612"
    },
    {
      "channel": 1,
      "note": 80,
      "start": 35.0325,
      "duration": 0.0398,
      "velocity": 95,
      "chip": "ym2612"
    },
    {
      "channel": 2,
      "note": 87,
      "start": 35.0352,
      "duration": 0.0001,
      "velocity": 1,
      "chip": "ym2612"
    },
    {
      "channel": 4,
      "note": 58,
      "start": 35.0387,
      "duration": 0.008,
      "velocity": 127,
      "chip": "ym2612"
    },
    {
      "channel": 0,
      "note": 75,
      "start": 35.0608,
      "duration": 0.0427,
      "velocity": 95,
      "chip": "ym2612"
    },
    {
      "channel": 3,
      "note": 56,
      "start": 35.0648,
      "duration": 0.0091,
      "velocity": 107,
      "chip": "ym2612"
    },
    {
      "channel": 4,
      "note": 58,
      "start": 35.0675,
      "duration": 0.0423,
      "velocity": 127,
      "chip": "ym2612"
    },
    {
      "channel": 1,
      "note": 75,
      "start": 35.0932,
      "duration": 0.0446,
      "velocity": 95,
      "chip": "ym2612"
    },
    {
      "channel": 2,
      "note": 75,
      "start": 35.0959,
      "duration": 0.0001,
      "velocity": 1,
      "chip": "ym2612"
    },
    {
      "channel": 3,
      "note": 32,
      "start": 35.0991,
      "duration": 0.0063,
      "velocity": 107,
      "chip": "ym2612"
    },
    {
      "channel": 0,
      "note": 71,
      "start": 35.1247,
      "duration": 0.0378,
      "velocity": 95,
      "chip": "ym2612"
    },
    {
      "channel": 2,
      "note": 87,
      "start": 35.1278,
      "duration": 0.0001,
      "velocity": 1,
      "chip": "ym2612"
    },
    {
      "channel": 3,
      "note": 32,
      "start": 35.1311,
      "duration": 0.008,
      "velocity": 107,
      "chip": "ym2612"
    },
    {
      "channel": 4,
      "note": 58,
      "start": 35.1338,
      "duration": 0.0097,
      "velocity": 127,
      "chip": "ym2612"
    },
    {
      "channel": 1,
      "note": 71,
      "start": 35.1567,
      "duration": 0.0389,
      "velocity": 95,
      "chip": "ym2612"
    },
    {
      "channel": 4,
      "note": 58,
      "start": 35.1604,
      "duration": 0.0078,
      "velocity": 127,
      "chip": "ym2612"
    },
    {
      "channel": 0,
      "note": 68,
      "start": 35.1827,
      "duration": 0.0375,
      "velocity": 95,
      "chip": "ym2612"
    },
    {
      "channel": 2,
      "note": 75,
      "start": 35.1858,
      "duration": 0.0001,
      "velocity": 1,
      "chip": "ym2612"
    },
    {
      "channel": 3,
      "note": 44,
      "start": 35.1889,
      "duration": 0.0118,
      "velocity": 79,
      "chip": "ym2612"
    },
    {
      "channel": 4,
      "note": 58,
      "start": 35.1917,
      "duration": 0.0344,
      "velocity": 127,
      "chip": "ym2612"
    },
    {
      "channel": 1,
      "note": 68,
      "start": 35.2144,
      "duration": 0.0343,
      "velocity": 95,
      "chip": "ym2612"
    },
    {
      "channel": 2,
      "note": 87,
      "start": 35.2171,
      "duration": 0.0001,
      "velocity": 1,
      "chip": "ym2612"
    },
    {
      "channel": 3,
      "note": 56,
      "start": 35.2421,
      "duration": 0.0081,
      "velocity": 107,
      "chip": "ym2612"
    },
    {
      "channel": 4,
      "note": 58,
      "start": 35.2448,
      "duration": 0.0096,
      "velocity": 127,
      "chip": "ym2612"
    },
    {
      "channel": 2,
      "note": 75,
      "start": 35.271,
      "duration": 0.0001,
      "velocity": 1,
      "chip": "ym2612"
    },
    {
      "channel": 3,
      "note": 42,
      "start": 35.2742,
      "duration": 0.0079,
      "velocity": 107,
      "chip": "ym2612"
    },
    {
      "channel": 4,
      "note": 58,
      "start": 35.277,
      "duration": 0.0094,
      "velocity": 127,
      "chip": "ym2612"
    },
    {
      "channel": 0,
      "note": 74,
      "start": 35.3026,
      "duration": 0.0382,
      "velocity": 95,
      "chip": "ym2612"
    },
    {
      "channel": 2,
      "note": 87,
      "start": 35.3057,
      "duration": 0.0001,
      "velocity": 1,
      "chip": "ym2612"
    },
    {
      "channel": 3,
      "note": 42,
      "start": 35.3089,
      "duration": 0.0087,
      "velocity": 107,
      "chip": "ym2612"
    },
    {
      "channel": 4,
      "note": 58,
      "start": 35.3117,
      "duration": 0.0352,
      "velocity": 127,
      "chip": "ym2612"
    },
    {
      "channel": 1,
      "note": 74,
      "start": 35.3351,
      "duration": 0.0392,
      "velocity": 95,
      "chip": "ym2612"
    },
    {
      "channel": 3,
      "note": 44,
      "start": 35.3385,
      "duration": 0.0041,
      "velocity": 107,
      "chip": "ym2612"
    },
    {
      "channel": 0,
      "note": 71,
      "start": 35.3612,
      "duration": 0.0404,
      "velocity": 95,
      "chip": "ym2612"
    },
    {
      "channel": 2,
      "note": 75,
      "start": 35.3644,
      "duration": 0.0001,
      "velocity": 1,
      "chip": "ym2612"
    },
    {
      "channel": 3,
      "note": 44,
      "start": 35.3676,
      "duration": 0.008,
      "velocity": 107,
      "chip": "ym2612"
    },
    {
      "channel": 4,
      "note": 58,
      "start": 35.3703,
      "duration": 0.0097,
      "velocity": 127,
      "chip": "ym2612"
    },
    {
      "channel": 1,
      "note": 71,
      "start": 35.3935,
      "duration": 0.0413,
      "velocity": 95,
      "chip": "ym2612"
    },
    {
      "channel": 2,
      "note": 87,
      "start": 35.3962,
      "duration": 0.0001,
      "velocity": 1,
      "chip": "ym2612"
    },
    {
      "channel": 4,
      "note": 58,
      "start": 35.3997,
      "duration": 0.0078,
      "velocity": 127,
      "chip": "ym2612"
    },
    {
      "channel": 0,
      "note": 68,
      "start": 35.4219,
      "duration": 0.0345,
      "velocity": 95,
      "chip": "ym2612"
    },
    {
      "channel": 2,
      "note": 87,
      "start": 35.425,
      "duration": 0.0001,
      "velocity": 1,
      "chip": "ym2612"
    },
    {
      "channel": 3,
      "note": 35,
      "start": 35.4281,
      "duration": 0.0118,
      "velocity": 79,
      "chip": "ym2612"
    },
    {
      "channel": 4,
      "note": 58,
      "start": 35.4309,
      "duration": 0.0315,
      "velocity": 127,
      "chip": "ym2612"
    },
    {
      "channel": 1,
      "note": 68,
      "start": 35.4532,
      "duration": 0.0376,
      "velocity": 95,
      "chip": "ym2612"
    },
    {
      "channel": 0,
      "note": 71,
      "start": 35.477,
      "duration": 0.0385,
      "velocity": 95,
      "chip": "ym2612"
    },
    {
      "channel": 2,
      "note": 75,
      "start": 35.4802,
      "duration": 0.0001,
      "velocity": 1,
      "chip": "ym2612"
    },
    {
      "channel": 3,
      "note": 44,
      "start": 35.4833,
      "duration": 0.0126,
      "velocity": 79,
      "chip": "ym2612"
    },
    {
      "channel": 4,
      "note": 58,
      "start": 35.486,
      "duration": 0.0108,
      "velocity": 127,
      "chip": "ym2612"
    },
    {
      "channel": 1,
      "note": 71,
      "start": 35.5097,
      "duration": 0.0388,
      "velocity": 95,
      "chip": "ym2612"
    },
    {
      "channel": 4,
      "note": 58,
      "start": 35.5135,
      "duration": 0.008,
      "velocity": 127,
      "chip": "ym2612"
    },
    {
      "channel": 0,
      "note": 76,
      "start": 35.5355,
      "duration": 0.0416,
      "velocity": 95,
      "chip": "ym2612"
    },
    {
      "channel": 2,
      "note": 75,
      "start": 35.5386,
      "duration": 0.0001,
      "velocity": 1,
      "chip": "ym2612"
    },
    {
      "channel": 3,
      "note": 56,
      "start": 35.5418,
      "duration": 0.008,
      "velocity": 107,
      "chip": "ym2612"
    },
    {
      "channel": 4,
      "note": 58,
      "start": 35.5446,
      "duration": 0.0386,
      "velocity": 127,
      "chip": "ym2612"
    },
    {
      "channel": 1,
      "note": 76,
      "start": 35.569,
      "duration": 0.0414,
      "velocity": 95,
      "chip": "ym2612"
    },
    {
      "channel": 3,
      "note": 32,
      "start": 35.5725,
      "duration": 0.0065,
      "velocity": 107,
      "chip": "ym2612"
    },
    {
      "channel": 0,
      "note": 78,
      "start": 35.5973,
      "duration": 0.0406,
      "velocity": 95,
      "chip": "ym2612"
    },
    {
      "channel": 2,
      "note": 75,
      "start": 35.6004,
      "duration": 0.0001,
      "velocity": 1,
      "chip": "ym2612"
    },
    {
      "channel": 3,
      "note": 32,
      "start": 35.6037,
      "duration": 0.0081,
      "velocity": 107,
      "chip": "ym2612"
    },
    {
      "channel": 4,
      "note": 58,
      "start": 35.6064,
      "duration": 0.0098,
      "velocity": 127,
      "chip": "ym2612"
    },
    {
      "channel": 1,
      "note": 78,
      "start": 35.6297,
      "duration": 0.0386,
      "velocity": 95,
      "chip": "ym2612"
    },
    {
      "channel": 2,
      "note": 87,
      "start": 35.6324,
      "duration": 0.0001,
      "velocity": 1,
      "chip": "ym2612"
    },
    {
      "channel": 4,
      "note": 58,
      "start": 35.6359,
      "duration": 0.0078,
      "velocity": 127,
      "chip": "ym2612"
    },
    {
      "channel": 0,
      "note": 71,
      "start": 35.6578,
      "duration": 0.0371,
      "velocity": 95,
      "chip": "ym2612"
    },
    {
      "channel": 3,
      "note": 44,
      "start": 35.6617,
      "duration": 0.0117,
      "velocity": 79,
      "chip": "ym2612"
    },
    {
      "channel": 4,
      "note": 58,
      "start": 35.6644,
      "duration": 0.0364,
      "velocity": 127,
      "chip": "ym2612"
    },
    {
      "channel": 1,
      "note": 71,
      "start": 35.6878,
      "duration": 0.0349,
      "velocity": 95,
      "chip": "ym2612"
    },
    {
      "channel": 2,
      "note": 75,
      "start": 35.6905,
      "duration": 0.0001,
      "velocity": 1,
      "chip": "ym2612"
    },
    {
      "channel": 3,
      "note": 56,
      "start": 35.716,
      "duration": 0.0081,
      "velocity": 107,
      "chip": "ym2612"
    },
    {
      "channel": 4,
      "note": 58,
      "start": 35.7187,
      "duration": 0.0097,
      "velocity": 127,
      "chip": "ym2612"
    },
    {
      "channel": 2,
      "note": 75,
      "start": 35.7425,
      "duration": 0.0001,
      "velocity": 1,
      "chip": "ym2612"
    },
    {
      "channel": 3,
      "note": 42,
      "start": 35.7457,
      "duration": 0.0063,
      "velocity": 107,
      "chip": "ym2612"
    },
    {
      "channel": 4,
      "note": 58,
      "start": 35.7485,
      "duration": 0.0079,
      "velocity": 127,
      "chip": "ym2612"
    },
    {
      "channel": 0,
      "note": 72,
      "start": 35.7724,
      "duration": 0.04,
      "velocity": 95,
      "chip": "ym2612"
    },
    {
      "channel": 2,
      "note": 87,
      "start": 35.7755,
      "duration": 0.0001,
      "velocity": 1,
      "chip": "ym2612"
    },
    {
      "channel": 3,
      "note": 42,
      "start": 35.7787,
      "duration": 0.0078,
      "velocity": 107,
      "chip": "ym2612"
    },
    {
      "channel": 4,
      "note": 58,
      "start": 35.7815,
      "duration": 0.0371,
      "velocity": 127,
      "chip": "ym2612"
    },
    {
      "channel": 1,
      "note": 72,
      "start": 35.8043,
      "duration": 0.0417,
      "velocity": 95,
      "chip": "ym2612"
    },
    {
      "channel": 2,
      "note": 87,
      "start": 35.807,
      "duration": 0.0001,
      "velocity": 1,
      "chip": "ym2612"
    },
    {
      "channel": 3,
      "note": 44,
      "start": 35.8102,
      "duration": 0.004,
      "velocity": 107,
      "chip": "ym2612"
    },
    {
      "channel": 0,
      "note": 75,
      "start": 35.833,
      "duration": 0.0378,
      "velocity": 95,
      "chip": "ym2612"
    },
    {
      "channel": 2,
      "note": 87,
      "start": 35.8362,
      "duration": 0.0001,
      "velocity": 1,
      "chip": "ym2612"
    },
    {
      "channel": 3,
      "note": 44,
      "start": 35.8394,
      "duration": 0.008,
      "velocity": 107,
      "chip": "ym2612"
    },
    {
      "channel": 4,
      "note": 58,
      "start": 35.8421,
      "duration": 0.0096,
      "velocity": 127,
      "chip": "ym2612"
    },
    {
      "channel": 1,
      "note": 75,
      "start": 35.865,
      "duration": 0.0366,
      "velocity": 95,
      "chip": "ym2612"
    },
    {
      "channel": 4,
      "note": 58,
      "start": 35.8687,
      "duration": 0.008,
      "velocity": 127,
      "chip": "ym2612"
    },
    {
      "channel": 2,
      "note": 75,
      "start": 35.8917,
      "duration": 0.0001,
      "velocity": 1,
      "chip": "ym2612"
    },
    {
      "channel": 3,
      "note": 35,
      "start": 35.8949,
      "duration": 0.008,
      "velocity": 107,
      "chip": "ym2612"
    },
    {
      "channel": 4,
      "note": 58,
      "start": 35.8977,
      "duration": 0.0391,
      "velocity": 127,
      "chip": "ym2612"
    },
    {
      "channel": 2,
      "note": 87,
      "start": 35.9239,
      "duration": 0.0001,
      "velocity": 1,
      "chip": "ym2612"
    },
    {
      "channel": 3,
      "note": 37,
      "start": 35.9271,
      "duration": 0.0053,
      "velocity": 107,
      "chip": "ym2612"
    },
    {
      "channel": 0,
      "note": 75,
      "start": 35.9529,
      "duration": 0.0384,
      "velocity": 95,
      "chip": "ym2612"
    },
    {
      "channel": 2,
      "note": 87,
      "start": 35.9561,
      "duration": 0.0001,
      "velocity": 1,
      "chip": "ym2612"
    },
    {
      "channel": 3,
      "note": 37,
      "start": 35.9592,
      "duration": 0.0124,
      "velocity": 79,
      "chip": "ym2612"
    },
    {
      "channel": 4,
      "note": 58,
      "start": 35.9619,
      "duration": 0.0106,
      "velocity": 127,
      "chip": "ym2612"
    },
    {
      "channel": 1,
      "note": 75,
      "start": 35.9856,
      "duration": 0.0391,
      "velocity": 95,
      "chip": "ym2612"
    },
    {
      "channel": 4,
      "note": 58,
      "start": 35.9894,
      "duration": 0.0079,
      "velocity": 127,
      "chip": "ym2612"
    },
    {
      "channel": 0,
      "note": 75,
      "start": 36.0117,
      "duration": 0.0416,
      "velocity": 95,
      "chip": "ym2612"
    },
    {
      "channel": 2,
      "note": 75,
      "start": 36.0148,
      "duration": 0.0001,
      "velocity": 1,
      "chip": "ym2612"
    },
    {
      "channel": 3,
      "note": 56,
      "start": 36.018,
      "duration": 0.008,
      "velocity": 107,
      "chip": "ym2612"
    },
    {
      "channel": 4,
      "note": 58,
      "start": 36.0208,
      "duration": 0.0386,
      "velocity": 127,
      "chip": "ym2612"
    },
    {
      "channel": 1,
      "note": 75,
      "start": 36.0452,
      "duration": 0.0414,
      "velocity": 95,
      "chip": "ym2612"
    },
    {
      "channel": 3,
      "note": 32,
      "start": 36.0487,
      "duration": 0.0065,
      "velocity": 107,
      "chip": "ym2612"
    },
    {
      "channel": 0,
      "note": 71,
      "start": 36.0735,
      "duration": 0.0405,
      "velocity": 95,
      "chip": "ym2612"
    },
    {
      "channel": 2,
      "note": 75,
      "start": 36.0766,
      "duration": 0.0001,
      "velocity": 1,
      "chip": "ym2612"
    },
    {
      "channel": 3,
      "note": 32,
      "start": 36.0798,
      "duration": 0.0081,
      "velocity": 107,
      "chip": "ym2612"
    },
    {
      "channel": 4,
      "note": 58,
      "start": 36.0826,
      "duration": 0.0098,
      "velocity": 127,
      "chip": "ym2612"
    },
    {
      "channel": 1,
      "note": 71,
      "start": 36.1058,
      "duration": 0.0414,
      "velocity": 95,
      "chip": "ym2612"
    },
    {
      "channel": 2,
      "note": 87,
      "start": 36.1084,
      "duration": 0.0001,
      "velocity": 1,
      "chip": "ym2612"
    },
    {
      "channel": 4,
      "note": 58,
      "start": 36.1119,
      "duration": 0.0079,
      "velocity": 127,
      "chip": "ym2612"
    },
    {
      "channel": 0,
      "note": 68,
      "start": 36.1342,
      "duration": 0.0374,
      "velocity": 95,
      "chip": "ym2612"
    },
    {
      "channel": 2,
      "note": 87,
      "start": 36.1373,
      "duration": 0.0001,
      "velocity": 1,
      "chip": "ym2612"
    },
    {
      "channel": 3,
      "note": 44,
      "start": 36.1404,
      "duration": 0.0118,
      "velocity": 79,
      "chip": "ym2612"
    },
    {
      "channel": 4,
      "note": 58,
      "start": 36.1432,
      "duration": 0.0343,
      "velocity": 127,
      "chip": "ym2612"
    },
    {
      "channel": 1,
      "note": 68,
      "start": 36.1659,
      "duration": 0.0343,
      "velocity": 95,
      "chip": "ym2612"
    },
    {
      "channel": 2,
      "note": 87,
      "start": 36.1686,
      "duration": 0.0001,
      "velocity": 1,
      "chip": "ym2612"
    },
    {
      "channel": 3,
      "note": 56,
      "start": 36.1935,
      "duration": 0.0082,
      "velocity": 107,
      "chip": "ym2612"
    },
    {
      "channel": 4,
      "note": 58,
      "start": 36.1963,
      "duration": 0.0097,
      "velocity": 127,
      "chip": "ym2612"
    },
    {
      "channel": 2,
      "note": 75,
      "start": 36.2226,
      "duration": 0.0001,
      "velocity": 1,
      "chip": "ym2612"
    },
    {
      "channel": 3,
      "note": 42,
      "start": 36.2258,
      "duration": 0.0078,
      "velocity": 107,
      "chip": "ym2612"
    },
    {
      "channel": 4,
      "note": 58,
      "start": 36.2285,
      "duration": 0.0094,
      "velocity": 127,
      "chip": "ym2612"
    },
    {
      "channel": 0,
      "note": 74,
      "start": 36.2541,
      "duration": 0.041,
      "velocity": 95,
      "chip": "ym2612"
    },
    {
      "channel": 2,
      "note": 87,
      "start": 36.2572,
      "duration": 0.0001,
      "velocity": 1,
      "chip": "ym2612"
    },
    {
      "channel": 3,
      "note": 42,
      "start": 36.2604,
      "duration": 0.0086,
      "velocity": 107,
      "chip": "ym2612"
    },
    {
      "channel": 4,
      "note": 58,
      "start": 36.2632,
      "duration": 0.038,
      "velocity": 127,
      "chip": "ym2612"
    },
    {
      "channel": 1,
      "note": 74,
      "start": 36.2868,
      "duration": 0.0392,
      "velocity": 95,
      "chip": "ym2612"
    },
    {
      "channel": 2,
      "note": 87,
      "start": 36.2895,
      "duration": 0.0001,
      "velocity": 1,
      "chip": "ym2612"
    },
    {
      "channel": 3,
      "note": 44,
      "start": 36.2927,
      "duration": 0.0041,
      "velocity": 107,
      "chip": "ym2612"
    },
    {
      "channel": 0,
      "note": 71,
      "start": 36.3154,
      "duration": 0.038,
      "velocity": 95,
      "chip": "ym2612"
    },
    {
      "channel": 3,
      "note": 44,
      "start": 36.3193,
      "duration": 0.0082,
      "velocity": 107,
      "chip": "ym2612"
    },
    {
      "channel": 4,
      "note": 58,
      "start": 36.3221,
      "duration": 0.0097,
      "velocity": 127,
      "chip": "ym2612"
    },
    {
      "channel": 1,
      "note": 71,
      "start": 36.3453,
      "duration": 0.0361,
      "velocity": 95,
      "chip": "ym2612"
    },
    {
      "channel": 2,
      "note": 75,
      "start": 36.348,
      "duration": 0.0001,
      "velocity": 1,
      "chip": "ym2612"
    },
    {
      "channel": 4,
      "note": 58,
      "start": 36.3515,
      "duration": 0.0078,
      "velocity": 127,
      "chip": "ym2612"
    },
    {
      "channel": 3,
      "note": 35,
      "start": 36.3748,
      "duration": 0.0117,
      "velocity": 79,
      "chip": "ym2612"
    },
    {
      "channel": 4,
      "note": 58,
      "start": 36.3775,
      "duration": 0.0347,
      "velocity": 127,
      "chip": "ym2612"
    },
    {
      "channel": 2,
      "note": 75,
      "start": 36.4008,
      "duration": 0.0001,
      "velocity": 1,
      "chip": "ym2612"
    },
    {
      "channel": 3,
      "note": 56,
      "start": 36.4039,
      "duration": 0.0074,
      "velocity": 79,
      "chip": "ym2612"
    },
    {
      "channel": 0,
      "note": 67,
      "start": 36.4262,
      "duration": 0.0373,
      "velocity": 95,
      "chip": "ym2612"
    },
    {
      "channel": 2,
      "note": 85,
      "start": 36.4293,
      "duration": 0.0001,
      "velocity": 1,
      "chip": "ym2612"
    },
    {
      "channel": 3,
      "note": 56,
      "start": 36.4324,
      "duration": 0.0115,
      "velocity": 79,
      "chip": "ym2612"
    },
    {
      "channel": 4,
      "note": 58,
      "start": 36.4352,
      "duration": 0.0096,
      "velocity": 127,
      "chip": "ym2612"
    },
    {
      "channel": 1,
      "note": 67,
      "start": 36.4578,
      "duration": 0.0378,
      "velocity": 95,
      "chip": "ym2612"
    },
    {
      "channel": 4,
      "note": 58,
      "start": 36.4615,
      "duration": 0.008,
      "velocity": 127,
      "chip": "ym2612"
    },
    {
      "channel": 2,
      "note": 73,
      "start": 36.4849,
      "duration": 0.0001,
      "velocity": 1,
      "chip": "ym2612"
    },
    {
      "channel": 3,
      "note": 54,
      "start": 36.488,
      "duration": 0.0088,
      "velocity": 107,
      "chip": "ym2612"
    },
    {
      "channel": 4,
      "note": 58,
      "start": 36.4908,
      "duration": 0.0369,
      "velocity": 127,
      "chip": "ym2612"
    },
    {
      "channel": 3,
      "note": 30,
      "start": 36.5173,
      "duration": 0.0062,
      "velocity": 107,
      "chip": "ym2612"
    },
    {
      "channel": 0,
      "note": 72,
      "start": 36.5447,
      "duration": 0.0401,
      "velocity": 95,
      "chip": "ym2612"
    },
    {
      "channel": 2,
      "note": 73,
      "start": 36.5478,
      "duration": 0.0001,
      "velocity": 1,
      "chip": "ym2612"
    },
    {
      "channel": 3,
      "note": 30,
      "start": 36.551,
      "duration": 0.0078,
      "velocity": 107,
      "chip": "ym2612"
    },
    {
      "channel": 4,
      "note": 58,
      "start": 36.5538,
      "duration": 0.0094,
      "velocity": 127,
      "chip": "ym2612"
    },
    {
      "channel": 1,
      "note": 72,
      "start": 36.5768,
      "duration": 0.0365,
      "velocity": 95,
      "chip": "ym2612"
    },
    {
      "channel": 2,
      "note": 85,
      "start": 36.5795,
      "duration": 0.0001,
      "velocity": 1,
      "chip": "ym2612"
    },
    {
      "channel": 4,
      "note": 58,
      "start": 36.5829,
      "duration": 0.0077,
      "velocity": 127,
      "chip": "ym2612"
    },
    {
      "channel": 3,
      "note": 42,
      "start": 36.6066,
      "duration": 0.0116,
      "velocity": 79,
      "chip": "ym2612"
    },
    {
      "channel": 4,
      "note": 58,
      "start": 36.6094,
      "duration": 0.0314,
      "velocity": 127,
      "chip": "ym2612"
    },
    {
      "channel": 2,
      "note": 73,
      "start": 36.6322,
      "duration": 0.0001,
      "velocity": 1,
      "chip": "ym2612"
    },
    {
      "channel": 0,
      "note": 65,
      "start": 36.6551,
      "duration": 0.0401,
      "velocity": 95,
      "chip": "ym2612"
    },
    {
      "channel": 2,
      "note": 85,
      "start": 36.6582,
      "duration": 0.0001,
      "velocity": 1,
      "chip": "ym2612"
    },
    {
      "channel": 3,
      "note": 54,
      "start": 36.6614,
      "duration": 0.0078,
      "velocity": 107,
      "chip": "ym2612"
    },
    {
      "channel": 4,
      "note": 58,
      "start": 36.6641,
      "duration": 0.0094,
      "velocity": 127,
      "chip": "ym2612"
    },
    {
      "channel": 1,
      "note": 65,
      "start": 36.6868,
      "duration": 0.0394,
      "velocity": 95,
      "chip": "ym2612"
    },
    {
      "channel": 3,
      "note": 42,
      "start": 36.6903,
      "duration": 0.0067,
      "velocity": 107,
      "chip": "ym2612"
    },
    {
      "channel": 4,
      "note": 58,
      "start": 36.6931,
      "duration": 0.0081,
      "velocity": 127,
      "chip": "ym2612"
    },
    {
      "channel": 2,
      "note": 73,
      "start": 36.7164,
      "duration": 0.0001,
      "velocity": 1,
      "chip": "ym2612"
    },
    {
      "channel": 3,
      "note": 42,
      "start": 36.7196,
      "duration": 0.0079,
      "velocity": 107,
      "chip": "ym2612"
    },
    {
      "channel": 4,
      "note": 58,
      "start": 36.7223,
      "duration": 0.0344,
      "velocity": 127,
      "chip": "ym2612"
    },
    {
      "channel": 2,
      "note": 85,
      "start": 36.7455,
      "duration": 0.0001,
      "velocity": 1,
      "chip": "ym2612"
    },
    {
      "channel": 3,
      "note": 35,
      "start": 36.7487,
      "duration": 0.0037,
      "velocity": 107,
      "chip": "ym2612"
    },
    {
      "channel": 0,
      "note": 62,
      "start": 36.7735,
      "duration": 0.0374,
      "velocity": 95,
      "chip": "ym2612"
    },
    {
      "channel": 2,
      "note": 85,
      "start": 36.7766,
      "duration": 0.0001,
      "velocity": 1,
      "chip": "ym2612"
    },
    {
      "channel": 3,
      "note": 35,
      "start": 36.7799,
      "duration": 0.0078,
      "velocity": 107,
      "chip": "ym2612"
    },
    {
      "channel": 4,
      "note": 58,
      "start": 36.7826,
      "duration": 0.0094,
      "velocity": 127,
      "chip": "ym2612"
    },
    {
      "channel": 1,
      "note": 62,
      "start": 36.8051,
      "duration": 0.0368,
      "velocity": 95,
      "chip": "ym2612"
    },
    {
      "channel": 4,
      "note": 58,
      "start": 36.8089,
      "duration": 0.0078,
      "velocity": 127,
      "chip": "ym2612"
    },
    {
      "channel": 2,
      "note": 73,
      "start": 36.8322,
      "duration": 0.0001,
      "velocity": 1,
      "chip": "ym2612"
    },
    {
      "channel": 3,
      "note": 37,
      "start": 36.8354,
      "duration": 0.0116,
      "velocity": 79,
      "chip": "ym2612"
    },
    {
      "channel": 4,
      "note": 58,
      "start": 36.8381,
      "duration": 0.0364,
      "velocity": 127,
      "chip": "ym2612"
    },
    {
      "channel": 2,
      "note": 85,
      "start": 36.8616,
      "duration": 0.0001,
      "velocity": 1,
      "chip": "ym2612"
    },
    {
      "channel": 3,
      "note": 54,
      "start": 36.8647,
      "duration": 0.009,
      "velocity": 79,
      "chip": "ym2612"
    },
    {
      "channel": 0,
      "note": 65,
      "start": 36.8907,
      "duration": 0.0411,
      "velocity": 95,
      "chip": "ym2612"
    },
    {
      "channel": 2,
      "note": 87,
      "start": 36.8938,
      "duration": 0.0001,
      "velocity": 1,
      "chip": "ym2612"
    },
    {
      "channel": 3,
      "note": 54,
      "start": 36.8969,
      "duration": 0.0124,
      "velocity": 79,
      "chip": "ym2612"
    },
    {
      "channel": 4,
      "note": 58,
      "start": 36.8997,
      "duration": 0.0105,
      "velocity": 127,
      "chip": "ym2612"
    },
    {
      "channel": 1,
      "note": 65,
      "start": 36.9237,
      "duration": 0.0398,
      "velocity": 95,
      "chip": "ym2612"
    },
    {
      "channel": 2,
      "note": 87,
      "start": 36.9263,
      "duration": 0.0001,
      "velocity": 1,
      "chip": "ym2612"
    },
    {
      "channel": 4,
      "note": 58,
      "start": 36.9298,
      "duration": 0.0078,
      "velocity": 127,
      "chip": "ym2612"
    },
    {
      "channel": 0,
      "note": 75,
      "start": 36.952,
      "duration": 0.0427,
      "velocity": 95,
      "chip": "ym2612"
    },
    {
      "channel": 3,
      "note": 56,
      "start": 36.9559,
      "duration": 0.0091,
      "velocity": 107,
      "chip": "ym2612"
    },
    {
      "channel": 4,
      "note": 58,
      "start": 36.9586,
      "duration": 0.0422,
      "velocity": 127,
      "chip": "ym2612"
    },
    {
      "channel": 1,
      "note": 75,
      "start": 36.9843,
      "duration": 0.0446,
      "velocity": 95,
      "chip": "ym2612"
    },
    {
      "channel": 2,
      "note": 75,
      "start": 36.987,
      "duration": 0.0001,
      "velocity": 1,
      "chip": "ym2612"
    },
    {
      "channel": 3,
      "note": 32,
      "start": 36.9902,
      "duration": 0.0063,
      "velocity": 107,
      "chip": "ym2612"
    },
    {
      "channel": 0,
      "note": 71,
      "start": 37.0158,
      "duration": 0.0377,
      "velocity": 95,
      "chip": "ym2612"
    },
    {
      "channel": 2,
      "note": 87,
      "start": 37.019,
      "duration": 0.0001,
      "velocity": 1,
      "chip": "ym2612"
    },
    {
      "channel": 3,
      "note": 32,
      "start": 37.0222,
      "duration": 0.008,
      "velocity": 107,
      "chip": "ym2612"
    },
    {
      "channel": 4,
      "note": 58,
      "start": 37.0249,
      "duration": 0.0097,
      "velocity": 127,
      "chip": "ym2612"
    },
    {
      "channel": 1,
      "note": 71,
      "start": 37.0477,
      "duration": 0.0389,
      "velocity": 95,
      "chip": "ym2612"
    },
    {
      "channel": 4,
      "note": 58,
      "start": 37.0515,
      "duration": 0.0078,
      "velocity": 127,
      "chip": "ym2612"
    },
    {
      "channel": 0,
      "note": 68,
      "start": 37.0737,
      "duration": 0.0374,
      "velocity": 95,
      "chip": "ym2612"
    },
    {
      "channel": 2,
      "note": 75,
      "start": 37.0768,
      "duration": 0.0001,
      "velocity": 1,
      "chip": "ym2612"
    },
    {
      "channel": 3,
      "note": 44,
      "start": 37.0799,
      "duration": 0.0118,
      "velocity": 79,
      "chip": "ym2612"
    },
    {
      "channel": 4,
      "note": 58,
      "start": 37.0827,
      "duration": 0.0343,
      "velocity": 127,
      "chip": "ym2612"
    },
    {
      "channel": 1,
      "note": 68,
      "start": 37.1054,
      "duration": 0.0343,
      "velocity": 95,
      "chip": "ym2612"
    },
    {
      "channel": 2,
      "note": 87,
      "start": 37.1081,
      "duration": 0.0001,
      "velocity": 1,
      "chip": "ym2612"
    },
    {
      "channel": 3,
      "note": 56,
      "start": 37.1331,
      "duration": 0.0081,
      "velocity": 107,
      "chip": "ym2612"
    },
    {
      "channel": 4,
      "note": 58,
      "start": 37.1358,
      "duration": 0.0096,
      "velocity": 127,
      "chip": "ym2612"
    },
    {
      "channel": 2,
      "note": 75,
      "start": 37.1621,
      "duration": 0.0001,
      "velocity": 1,
      "chip": "ym2612"
    },
    {
      "channel": 3,
      "note": 42,
      "start": 37.1653,
      "duration": 0.0079,
      "velocity": 107,
      "chip": "ym2612"
    },
    {
      "channel": 4,
      "note": 58,
      "start": 37.168,
      "duration": 0.0094,
      "velocity": 127,
      "chip": "ym2612"
    },
    {
      "channel": 0,
      "note": 74,
      "start": 37.1937,
      "duration": 0.0382,
      "velocity": 95,
      "chip": "ym2612"
    },
    {
      "channel": 2,
      "note": 87,
      "start": 37.1968,
      "duration": 0.0001,
      "velocity": 1,
      "chip": "ym2612"
    },
    {
      "channel": 3,
      "note": 42,
      "start": 37.2,
      "duration": 0.0087,
      "velocity": 107,
      "chip": "ym2612"
    },
    {
      "channel": 4,
      "note": 58,
      "start": 37.2027,
      "duration": 0.0353,
      "velocity": 127,
      "chip": "ym2612"
    },
    {
      "channel": 1,
      "note": 74,
      "start": 37.2261,
      "duration": 0.039,
      "velocity": 95,
      "chip": "ym2612"
    },
    {
      "channel": 3,
      "note": 44,
      "start": 37.2296,
      "duration": 0.0042,
      "velocity": 107,
      "chip": "ym2612"
    },
    {
      "channel": 0,
      "note": 71,
      "start": 37.2521,
      "duration": 0.0404,
      "velocity": 95,
      "chip": "ym2612"
    },
    {
      "channel": 2,
      "note": 75,
      "start": 37.2553,
      "duration": 0.0001,
      "velocity": 1,
      "chip": "ym2612"
    },
    {
      "channel": 3,
      "note": 44,
      "start": 37.2585,
      "duration": 0.008,
      "velocity": 107,
      "chip": "ym2612"
    },
    {
      "channel": 4,
      "note": 58,
      "start": 37.2612,
      "duration": 0.0097,
      "velocity": 127,
      "chip": "ym2612"
    },
    {
      "channel": 1,
      "note": 71,
      "start": 37.2844,
      "duration": 0.0413,
      "velocity": 95,
      "chip": "ym2612"
    },
    {
      "channel": 2,
      "note": 87,
      "start": 37.2871,
      "duration": 0.0001,
      "velocity": 1,
      "chip": "ym2612"
    },
    {
      "channel": 4,
      "note": 58,
      "start": 37.2906,
      "duration": 0.0078,
      "velocity": 127,
      "chip": "ym2612"
    },
    {
      "channel": 0,
      "note": 68,
      "start": 37.3128,
      "duration": 0.0345,
      "velocity": 95,
      "chip": "ym2612"
    },
    {
      "channel": 2,
      "note": 87,
      "start": 37.3159,
      "duration": 0.0001,
      "velocity": 1,
      "chip": "ym2612"
    },
    {
      "channel": 3,
      "note": 35,
      "start": 37.319,
      "duration": 0.0117,
      "velocity": 79,
      "chip": "ym2612"
    },
    {
      "channel": 4,
      "note": 58,
      "start": 37.3218,
      "duration": 0.0315,
      "velocity": 127,
      "chip": "ym2612"
    },
    {
      "channel": 1,
      "note": 68,
      "start": 37.3441,
      "duration": 0.0377,
      "velocity": 95,
      "chip": "ym2612"
    },
    {
      "channel": 0,
      "note": 71,
      "start": 37.3679,
      "duration": 0.0386,
      "velocity": 95,
      "chip": "ym2612"
    },
    {
      "channel": 2,
      "note": 75,
      "start": 37.3711,
      "duration": 0.0001,
      "velocity": 1,
      "chip": "ym2612"
    },
    {
      "channel": 3,
      "note": 44,
      "start": 37.3741,
      "duration": 0.0127,
      "velocity": 79,
      "chip": "ym2612"
    },
    {
      "channel": 4,
      "note": 58,
      "start": 37.3769,
      "duration": 0.0109,
      "velocity": 127,
      "chip": "ym2612"
    },
    {
      "channel": 1,
      "note": 71,
      "start": 37.4007,
      "duration": 0.0388,
      "velocity": 95,
      "chip": "ym2612"
    },
    {
      "channel": 4,
      "note": 58,
      "start": 37.4045,
      "duration": 0.008,
      "velocity": 127,
      "chip": "ym2612"
    },
    {
      "channel": 0,
      "note": 76,
      "start": 37.4264,
      "duration": 0.0415,
      "velocity": 95,
      "chip": "ym2612"
    },
    {
      "channel": 2,
      "note": 75,
      "start": 37.4296,
      "duration": 0.0001,
      "velocity": 1,
      "chip": "ym2612"
    },
    {
      "channel": 3,
      "note": 56,
      "start": 37.4328,
      "duration": 0.008,
      "velocity": 107,
      "chip": "ym2612"
    },
    {
      "channel": 4,
      "note": 58,
      "start": 37.4355,
      "duration": 0.0386,
      "velocity": 127,
      "chip": "ym2612"
    },
    {
      "channel": 1,
      "note": 76,
      "start": 37.46,
      "duration": 0.0414,
      "velocity": 95,
      "chip": "ym2612"
    },
    {
      "channel": 3,
      "note": 32,
      "start": 37.4634,
      "duration": 0.0065,
      "velocity": 107,
      "chip": "ym2612"
    },
    {
      "channel": 0,
      "note": 78,
      "start": 37.4882,
      "duration": 0.0405,
      "velocity": 95,
      "chip": "ym2612"
    },
    {
      "channel": 2,
      "note": 75,
      "start": 37.4914,
      "duration": 0.0001,
      "velocity": 1,
      "chip": "ym2612"
    },
    {
      "channel": 3,
      "note": 32,
      "start": 37.4946,
      "duration": 0.0081,
      "velocity": 107,
      "chip": "ym2612"
    },
    {
      "channel": 4,
      "note": 58,
      "start": 37.4973,
      "duration": 0.0097,
      "velocity": 127,
      "chip": "ym2612"
    },
    {
      "channel": 1,
      "note": 78,
      "start": 37.5206,
      "duration": 0.0388,
      "velocity": 95,
      "chip": "ym2612"
    },
    {
      "channel": 2,
      "note": 87,
      "start": 37.5233,
      "duration": 0.0001,
      "velocity": 1,
      "chip": "ym2612"
    },
    {
      "channel": 4,
      "note": 58,
      "start": 37.5268,
      "duration": 0.0078,
      "velocity": 127,
      "chip": "ym2612"
    },
    {
      "channel": 0,
      "note": 71,
      "start": 37.5488,
      "duration": 0.0371,
      "velocity": 95,
      "chip": "ym2612"
    },
    {
      "channel": 3,
      "note": 44,
      "start": 37.5526,
      "duration": 0.0118,
      "velocity": 79,
      "chip": "ym2612"
    },
    {
      "channel": 4,
      "note": 58,
      "start": 37.5554,
      "duration": 0.0364,
      "velocity": 127,
      "chip": "ym2612"
    },
    {
      "channel": 1,
      "note": 71,
      "start": 37.5787,
      "duration": 0.0349,
      "velocity": 95,
      "chip": "ym2612"
    },
    {
      "channel": 2,
      "note": 75,
      "start": 37.5814,
      "duration": 0.0001,
      "velocity": 1,
      "chip": "ym2612"
    },
    {
      "channel": 3,
      "note": 56,
      "start": 37.6069,
      "duration": 0.0081,
      "velocity": 107,
      "chip": "ym2612"
    },
    {
      "channel": 4,
      "note": 58,
      "start": 37.6097,
      "duration": 0.0096,
      "velocity": 127,
      "chip": "ym2612"
    },
    {
      "channel": 2,
      "note": 75,
      "start": 37.6335,
      "duration": 0.0001,
      "velocity": 1,
      "chip": "ym2612"
    },
    {
      "channel": 3,
      "note": 42,
      "start": 37.6367,
      "duration": 0.0063,
      "velocity": 107,
      "chip": "ym2612"
    },
    {
      "channel": 4,
      "note": 58,
      "start": 37.6394,
      "duration": 0.008,
      "velocity": 127,
      "chip": "ym2612"
    },
    {
      "channel": 0,
      "note": 72,
      "start": 37.6634,
      "duration": 0.04,
      "velocity": 95,
      "chip": "ym2612"
    },
    {
      "channel": 2,
      "note": 87,
      "start": 37.6665,
      "duration": 0.0001,
      "velocity": 1,
      "chip": "ym2612"
    },
    {
      "channel": 3,
      "note": 42,
      "start": 37.6697,
      "duration": 0.0078,
      "velocity": 107,
      "chip": "ym2612"
    },
    {
      "channel": 4,
      "note": 58,
      "start": 37.6724,
      "duration": 0.0371,
      "velocity": 127,
      "chip": "ym2612"
    },
    {
      "channel": 1,
      "note": 72,
      "start": 37.6953,
      "duration": 0.0417,
      "velocity": 95,
      "chip": "ym2612"
    },
    {
      "channel": 2,
      "note": 87,
      "start": 37.698,
      "duration": 0.0001,
      "velocity": 1,
      "chip": "ym2612"
    },
    {
      "channel": 3,
      "note": 44,
      "start": 37.7012,
      "duration": 0.004,
      "velocity": 107,
      "chip": "ym2612"
    },
    {
      "channel": 0,
      "note": 75,
      "start": 37.724,
      "duration": 0.0378,
      "velocity": 95,
      "chip": "ym2612"
    },
    {
      "channel": 2,
      "note": 87,
      "start": 37.7271,
      "duration": 0.0001,
      "velocity": 1,
      "chip": "ym2612"
    },
    {
      "channel": 3,
      "note": 44,
      "start": 37.7303,
      "duration": 0.008,
      "velocity": 107,
      "chip": "ym2612"
    },
    {
      "channel": 4,
      "note": 58,
      "start": 37.7331,
      "duration": 0.0097,
      "velocity": 127,
      "chip": "ym2612"
    },
    {
      "channel": 1,
      "note": 75,
      "start": 37.756,
      "duration": 0.0366,
      "velocity": 95,
      "chip": "ym2612"
    },
    {
      "channel": 4,
      "note": 58,
      "start": 37.7598,
      "duration": 0.0079,
      "velocity": 127,
      "chip": "ym2612"
    },
    {
      "channel": 2,
      "note": 75,
      "start": 37.7827,
      "duration": 0.0001,
      "velocity": 1,
      "chip": "ym2612"
    },
    {
      "channel": 3,
      "note": 35,
      "start": 37.786,
      "duration": 0.0079,
      "velocity": 107,
      "chip": "ym2612"
    },
    {
      "channel": 4,
      "note": 58,
      "start": 37.7887,
      "duration": 0.0391,
      "velocity": 127,
      "chip": "ym2612"
    },
    {
      "channel": 2,
      "note": 87,
      "start": 37.8149,
      "duration": 0.0001,
      "velocity": 1,
      "chip": "ym2612"
    },
    {
      "channel": 3,
      "note": 37,
      "start": 37.8181,
      "duration": 0.0053,
      "velocity": 107,
      "chip": "ym2612"
    },
    {
      "channel": 0,
      "note": 75,
      "start": 37.844,
      "duration": 0.0383,
      "velocity": 95,
      "chip": "ym2612"
    },
    {
      "channel": 2,
      "note": 87,
      "start": 37.8471,
      "duration": 0.0001,
      "velocity": 1,
      "chip": "ym2612"
    },
    {
      "channel": 3,
      "note": 37,
      "start": 37.8502,
      "duration": 0.0124,
      "velocity": 79,
      "chip": "ym2612"
    },
    {
      "channel": 4,
      "note": 58,
      "start": 37.8529,
      "duration": 0.0106,
      "velocity": 127,
      "chip": "ym2612"
    },
    {
      "channel": 1,
      "note": 75,
      "start": 37.8766,
      "duration": 0.0391,
      "velocity": 95,
      "chip": "ym2612"
    },
    {
      "channel": 4,
      "note": 58,
      "start": 37.8804,
      "duration": 0.0079,
      "velocity": 127,
      "chip": "ym2612"
    },
    {
      "channel": 0,
      "note": 75,
      "start": 37.9027,
      "duration": 0.0416,
      "velocity": 95,
      "chip": "ym2612"
    },
    {
      "channel": 2,
      "note": 75,
      "start": 37.9058,
      "duration": 0.0001,
      "velocity": 1,
      "chip": "ym2612"
    },
    {
      "channel": 3,
      "note": 56,
      "start": 37.909,
      "duration": 0.008,
      "velocity": 107,
      "chip": "ym2612"
    },
    {
      "channel": 4,
      "note": 58,
      "start": 37.9117,
      "duration": 0.0387,
      "velocity": 127,
      "chip": "ym2612"
    },
    {
      "channel": 1,
      "note": 75,
      "start": 37.9362,
      "duration": 0.0416,
      "velocity": 95,
      "chip": "ym2612"
    },
    {
      "channel": 3,
      "note": 32,
      "start": 37.9397,
      "duration": 0.0065,
      "velocity": 107,
      "chip": "ym2612"
    },
    {
      "channel": 0,
      "note": 71,
      "start": 37.9648,
      "duration": 0.0405,
      "velocity": 95,
      "chip": "ym2612"
    },
    {
      "channel": 2,
      "note": 75,
      "start": 37.9679,
      "duration": 0.0001,
      "velocity": 1,
      "chip": "ym2612"
    },
    {
      "channel": 3,
      "note": 32,
      "start": 37.9711,
      "duration": 0.0081,
      "velocity": 107,
      "chip": "ym2612"
    },
    {
      "channel": 4,
      "note": 58,
      "start": 37.9739,
      "duration": 0.0098,
      "velocity": 127,
      "chip": "ym2612"
    },
    {
      "channel": 1,
      "note": 71,
      "start": 37.997,
      "duration": 0.0412,
      "velocity": 95,
      "chip": "ym2612"
    },
    {
      "channel": 2,
      "note": 87,
      "start": 37.9997,
      "duration": 0.0001,
      "velocity": 1,
      "chip": "ym2612"
    },
    {
      "channel": 4,
      "note": 58,
      "start": 38.0032,
      "duration": 0.0079,
      "velocity": 127,
      "chip": "ym2612"
    },
    {
      "channel": 0,
      "note": 68,
      "start": 38.0254,
      "duration": 0.0374,
      "velocity": 95,
      "chip": "ym2612"
    },
    {
      "channel": 2,
      "note": 87,
      "start": 38.0285,
      "duration": 0.0001,
      "velocity": 1,
      "chip": "ym2612"
    },
    {
      "channel": 3,
      "note": 44,
      "start": 38.0316,
      "duration": 0.0117,
      "velocity": 79,
      "chip": "ym2612"
    },
    {
      "channel": 4,
      "note": 58,
      "start": 38.0344,
      "duration": 0.0343,
      "velocity": 127,
      "chip": "ym2612"
    },
    {
      "channel": 1,
      "note": 68,
      "start": 38.0571,
      "duration": 0.0343,
      "velocity": 95,
      "chip": "ym2612"
    },
    {
      "channel": 2,
      "note": 87,
      "start": 38.0598,
      "duration": 0.0001,
      "velocity": 1,
      "chip": "ym2612"
    },
    {
      "channel": 3,
      "note": 56,
      "start": 38.0847,
      "duration": 0.0081,
      "velocity": 107,
      "chip": "ym2612"
    },
    {
      "channel": 4,
      "note": 58,
      "start": 38.0875,
      "duration": 0.0096,
      "velocity": 127,
      "chip": "ym2612"
    },
    {
      "channel": 2,
      "note": 75,
      "start": 38.1137,
      "duration": 0.0001,
      "velocity": 1,
      "chip": "ym2612"
    },
    {
      "channel": 3,
      "note": 42,
      "start": 38.1169,
      "duration": 0.0079,
      "velocity": 107,
      "chip": "ym2612"
    },
    {
      "channel": 4,
      "note": 58,
      "start": 38.1197,
      "duration": 0.0094,
      "velocity": 127,
      "chip": "ym2612"
    },
    {
      "channel": 0,
      "note": 74,
      "start": 38.1453,
      "duration": 0.0409,
      "velocity": 95,
      "chip": "ym2612"
    },
    {
      "channel": 2,
      "note": 87,
      "start": 38.1484,
      "duration": 0.0001,
      "velocity": 1,
      "chip": "ym2612"
    },
    {
      "channel": 3,
      "note": 42,
      "start": 38.1516,
      "duration": 0.0086,
      "velocity": 107,
      "chip": "ym2612"
    },
    {
      "channel": 4,
      "note": 58,
      "start": 38.1544,
      "duration": 0.038,
      "velocity": 127,
      "chip": "ym2612"
    },
    {
      "channel": 1,
      "note": 74,
      "start": 38.178,
      "duration": 0.0392,
      "velocity": 95,
      "chip": "ym2612"
    },
    {
      "channel": 2,
      "note": 87,
      "start": 38.1807,
      "duration": 0.0001,
      "velocity": 1,
      "chip": "ym2612"
    },
    {
      "channel": 3,
      "note": 44,
      "start": 38.1839,
      "duration": 0.0041,
      "velocity": 107,
      "chip": "ym2612"
    },
    {
      "channel": 0,
      "note": 71,
      "start": 38.2066,
      "duration": 0.038,
      "velocity": 95,
      "chip": "ym2612"
    },
    {
      "channel": 3,
      "note": 44,
      "start": 38.2105,
      "duration": 0.0082,
      "velocity": 107,
      "chip": "ym2612"
    },
    {
      "channel": 4,
      "note": 58,
      "start": 38.2133,
      "duration": 0.0097,
      "velocity": 127,
      "chip": "ym2612"
    },
    {
      "channel": 1,
      "note": 71,
      "start": 38.2365,
      "duration": 0.0361,
      "velocity": 95,
      "chip": "ym2612"
    },
    {
      "channel": 2,
      "note": 75,
      "start": 38.2392,
      "duration": 0.0001,
      "velocity": 1,
      "chip": "ym2612"
    },
    {
      "channel": 4,
      "note": 58,
      "start": 38.2427,
      "duration": 0.0078,
      "velocity": 127,
      "chip": "ym2612"
    },
    {
      "channel": 3,
      "note": 35,
      "start": 38.266,
      "duration": 0.0117,
      "velocity": 79,
      "chip": "ym2612"
    },
    {
      "channel": 4,
      "note": 58,
      "start": 38.2687,
      "duration": 0.0347,
      "velocity": 127,
      "chip": "ym2612"
    },
    {
      "channel": 2,
      "note": 75,
      "start": 38.292,
      "duration": 0.0001,
      "velocity": 1,
      "chip": "ym2612"
    },
    {
      "channel": 3,
      "note": 56,
      "start": 38.2951,
      "duration": 0.0075,
      "velocity": 79,
      "chip": "ym2612"
    },
    {
      "channel": 0,
      "note": 67,
      "start": 38.3175,
      "duration": 0.0373,
      "velocity": 95,
      "chip": "ym2612"
    },
    {
      "channel": 2,
      "note": 85,
      "start": 38.3206,
      "duration": 0.0001,
      "velocity": 1,
      "chip": "ym2612"
    },
    {
      "channel": 3,
      "note": 56,
      "start": 38.3237,
      "duration": 0.0115,
      "velocity": 79,
      "chip": "ym2612"
    },
    {
      "channel": 4,
      "note": 58,
      "start": 38.3264,
      "duration": 0.0096,
      "velocity": 127,
      "chip": "ym2612"
    },
    {
      "channel": 1,
      "note": 67,
      "start": 38.349,
      "duration": 0.0378,
      "velocity": 95,
      "chip": "ym2612"
    },
    {
      "channel": 4,
      "note": 58,
      "start": 38.3528,
      "duration": 0.008,
      "velocity": 127,
      "chip": "ym2612"
    },
    {
      "channel": 2,
      "note": 73,
      "start": 38.3761,
      "duration": 0.0001,
      "velocity": 1,
      "chip": "ym2612"
    },
    {
      "channel": 3,
      "note": 54,
      "start": 38.3793,
      "duration": 0.0088,
      "velocity": 107,
      "chip": "ym2612"
    },
    {
      "channel": 4,
      "note": 58,
      "start": 38.382,
      "duration": 0.036,
      "velocity": 127,
      "chip": "ym2612"
    },
    {
      "channel": 3,
      "note": 30,
      "start": 38.4084,
      "duration": 0.0054,
      "velocity": 107,
      "chip": "ym2612"
    },
    {
      "channel": 0,
      "note": 72,
      "start": 38.4342,
      "duration": 0.0448,
      "velocity": 95,
      "chip": "ym2612"
    },
    {
      "channel": 2,
      "note": 73,
      "start": 38.4374,
      "duration": 0.0001,
      "velocity": 1,
      "chip": "ym2612"
    },
    {
      "channel": 3,
      "note": 30,
      "start": 38.4406,
      "duration": 0.0078,
      "velocity": 107,
      "chip": "ym2612"
    },
    {
      "channel": 4,
      "note": 58,
      "start": 38.4433,
      "duration": 0.0094,
      "velocity": 127,
      "chip": "ym2612"
    },
    {
      "channel": 1,
      "note": 72,
      "start": 38.4695,
      "duration": 0.0373,
      "velocity": 95,
      "chip": "ym2612"
    },
    {
      "channel": 2,
      "note": 85,
      "start": 38.4721,
      "duration": 0.0001,
      "velocity": 1,
      "chip": "ym2612"
    },
    {
      "channel": 4,
      "note": 58,
      "start": 38.4756,
      "duration": 0.0094,
      "velocity": 127,
      "chip": "ym2612"
    },
    {
      "channel": 3,
      "note": 42,
      "start": 38.5001,
      "duration": 0.0117,
      "velocity": 79,
      "chip": "ym2612"
    },
    {
      "channel": 4,
      "note": 58,
      "start": 38.5029,
      "duration": 0.0362,
      "velocity": 127,
      "chip": "ym2612"
    },
    {
      "channel": 2,
      "note": 73,
      "start": 38.529,
      "duration": 0.0001,
      "velocity": 1,
      "chip": "ym2612"
    },
    {
      "channel": 2,
      "note": 85,
      "start": 38.5541,
      "duration": 0.0001,
      "velocity": 1,
      "chip": "ym2612"
    },
    {
      "channel": 3,
      "note": 54,
      "start": 38.5573,
      "duration": 0.0077,
      "velocity": 107,
      "chip": "ym2612"
    },
    {
      "channel": 4,
      "note": 58,
      "start": 38.56,
      "duration": 0.0094,
      "velocity": 127,
      "chip": "ym2612"
    },
    {
      "channel": 3,
      "note": 42,
      "start": 38.5858,
      "duration": 0.008,
      "velocity": 107,
      "chip": "ym2612"
    },
    {
      "channel": 4,
      "note": 58,
      "start": 38.5885,
      "duration": 0.0095,
      "velocity": 127,
      "chip": "ym2612"
    },
    {
      "channel": 0,
      "note": 75,
      "start": 38.614,
      "duration": 0.0422,
      "velocity": 95,
      "chip": "ym2612"
    },
    {
      "channel": 2,
      "note": 73,
      "start": 38.6171,
      "duration": 0.0001,
      "velocity": 1,
      "chip": "ym2612"
    },
    {
      "channel": 3,
      "note": 42,
      "start": 38.6203,
      "duration": 0.0078,
      "velocity": 107,
      "chip": "ym2612"
    },
    {
      "channel": 4,
      "note": 58,
      "start": 38.6231,
      "duration": 0.0393,
      "velocity": 127,
      "chip": "ym2612"
    },
    {
      "channel": 1,
      "note": 75,
      "start": 38.6466,
      "duration": 0.0428,
      "velocity": 95,
      "chip": "ym2612"
    },
    {
      "channel": 2,
      "note": 85,
      "start": 38.6493,
      "duration": 0.0001,
      "velocity": 1,
      "chip": "ym2612"
    },
    {
      "channel": 3,
      "note": 35,
      "start": 38.6525,
      "duration": 0.0055,
      "velocity": 107,
      "chip": "ym2612"
    },
    {
      "channel": 0,
      "note": 76,
      "start": 38.6764,
      "duration": 0.0378,
      "velocity": 95,
      "chip": "ym2612"
    },
    {
      "channel": 2,
      "note": 85,
      "start": 38.6795,
      "duration": 0.0001,
      "velocity": 1,
      "chip": "ym2612"
    },
    {
      "channel": 3,
      "note": 35,
      "start": 38.6827,
      "duration": 0.008,
      "velocity": 107,
      "chip": "ym2612"
    },
    {
      "channel": 4,
      "note": 58,
      "start": 38.6855,
      "duration": 0.0096,
      "velocity": 127,
      "chip": "ym2612"
    },
    {
      "channel": 1,
      "note": 76,
      "start": 38.7083,
      "duration": 0.039,
      "velocity": 95,
      "chip": "ym2612"
    },
    {
      "channel": 4,
      "note": 58,
      "start": 38.7121,
      "duration": 0.0078,
      "velocity": 127,
      "chip": "ym2612"
    },
    {
      "channel": 0,
      "note": 75,
      "start": 38.7344,
      "duration": 0.0419,
      "velocity": 95,
      "chip": "ym2612"
    },
    {
      "channel": 2,
      "note": 73,
      "start": 38.7376,
      "duration": 0.0001,
      "velocity": 1,
      "chip": "ym2612"
    },
    {
      "channel": 3,
      "note": 37,
      "start": 38.7406,
      "duration": 0.0118,
      "velocity": 79,
      "chip": "ym2612"
    },
    {
      "channel": 4,
      "note": 58,
      "start": 38.7434,
      "duration": 0.0393,
      "velocity": 127,
      "chip": "ym2612"
    },
    {
      "channel": 1,
      "note": 75,
      "start": 38.7668,
      "duration": 0.0334,
      "velocity": 95,
      "chip": "ym2612"
    },
    {
      "channel": 2,
      "note": 85,
      "start": 38.7695,
      "duration": 0.0001,
      "velocity": 1,
      "chip": "ym2612"
    },
    {
      "channel": 3,
      "note": 54,
      "start": 38.7726,
      "duration": 0.0092,
      "velocity": 79,
      "chip": "ym2612"
    },
    {
      "channel": 0,
      "note": 71,
      "start": 38.7988,
      "duration": 0.0001,
      "velocity": 1,
      "chip": "ym2612"
    },
    {
      "channel": 1,
      "note": 71,
      "start": 38.8018,
      "duration": 0.2449,
      "velocity": 106,
      "chip": "ym2612"
    },
    {
      "channel": 3,
      "note": 54,
      "start": 38.8052,
      "duration": 0.0133,
      "velocity": 79,
      "chip": "ym2612"
    },
    {
      "channel": 4,
      "note": 58,
      "start": 38.8079,
      "duration": 0.0333,
      "velocity": 95,
      "chip": "ym2612"
    },
    {
      "channel": 0,
      "note": 92,
      "start": 38.833,
      "duration": 0.0001,
      "velocity": 1,
      "chip": "ym2612"
    },
    {
      "channel": 2,
      "note": 76,
      "start": 38.8365,
      "duration": 0.2383,
      "velocity": 106,
      "chip": "ym2612"
    },
    {
      "channel": 0,
      "note": 80,
      "start": 38.8831,
      "duration": 0.0001,
      "velocity": 1,
      "chip": "ym2612"
    },
    {
      "channel": 3,
      "note": 52,
      "start": 38.9098,
      "duration": 0.0096,
      "velocity": 103,
      "chip": "ym2612"
    },
    {
      "channel": 0,
      "note": 80,
      "start": 38.9331,
      "duration": 0.0003,
      "velocity": 1,
      "chip": "ym2612"
    },
    {
      "channel": 3,
      "note": 88,
      "start": 38.9595,
      "duration": 0.0095,
      "velocity": 79,
      "chip": "ym2612"
    },
    {
      "channel": 0,
      "note": 80,
      "start": 38.9825,
      "duration": 0.0003,
      "velocity": 1,
      "chip": "ym2612"
    },
    {
      "channel": 0,
      "note": 92,
      "start": 39.0078,
      "duration": 0.0001,
      "velocity": 1,
      "chip": "ym2612"
    },
    {
      "channel": 0,
      "note": 80,
      "start": 39.0593,
      "duration": 0.0001,
      "velocity": 1,
      "chip": "ym2612"
    },
    {
      "channel": 0,
      "note": 80,
      "start": 39.109,
      "duration": 0.0001,
      "velocity": 1,
      "chip": "ym2612"
    },
    {
      "channel": 3,
      "note": 52,
      "start": 39.1131,
      "duration": 0.0096,
      "velocity": 103,
      "chip": "ym2612"
    },
    {
      "channel": 0,
      "note": 92,
      "start": 39.1361,
      "duration": 0.0003,
      "velocity": 1,
      "chip": "ym2612"
    },
    {
      "channel": 0,
      "note": 92,
      "start": 39.1614,
      "duration": 0.0001,
      "velocity": 1,
      "chip": "ym2612"
    },
    {
      "channel": 0,
      "note": 92,
      "start": 39.1838,
      "duration": 0.0003,
      "velocity": 1,
      "chip": "ym2612"
    },
    {
      "channel": 0,
      "note": 92,
      "start": 39.2062,
      "duration": 0.0001,
      "velocity": 1,
      "chip": "ym2612"
    },
    {
      "channel": 3,
      "note": 88,
      "start": 39.2101,
      "duration": 0.0095,
      "velocity": 79,
      "chip": "ym2612"
    },
    {
      "channel": 0,
      "note": 80,
      "start": 39.2546,
      "duration": 0.0001,
      "velocity": 1,
      "chip": "ym2612"
    },
    {
      "channel": 0,
      "note": 80,
      "start": 39.307,
      "duration": 0.0001,
      "velocity": 1,
      "chip": "ym2612"
    },
    {
      "channel": 3,
      "note": 52,
      "start": 39.311,
      "duration": 0.0095,
      "velocity": 103,
      "chip": "ym2612"
    },
    {
      "channel": 0,
      "note": 92,
      "start": 39.334,
      "duration": 0.0003,
      "velocity": 1,
      "chip": "ym2612"
    },
    {
      "channel": 0,
      "note": 92,
      "start": 39.3594,
      "duration": 0.0001,
      "velocity": 1,
      "chip": "ym2612"
    },
    {
      "channel": 3,
      "note": 88,
      "start": 39.3634,
      "duration": 0.0095,
      "velocity": 79,
      "chip": "ym2612"
    },
    {
      "channel": 0,
      "note": 92,
      "start": 39.3889,
      "duration": 0.0001,
      "velocity": 1,
      "chip": "ym2612"
    },
    {
      "channel": 0,
      "note": 92,
      "start": 39.4139,
      "duration": 0.0001,
      "velocity": 1,
      "chip": "ym2612"
    },
    {
      "channel": 0,
      "note": 80,
      "start": 39.4598,
      "duration": 0.0001,
      "velocity": 1,
      "chip": "ym2612"
    },
    {
      "channel": 3,
      "note": 52,
      "start": 39.4638,
      "duration": 0.0096,
      "velocity": 79,
      "chip": "ym2612"
    },
    {
      "channel": 0,
      "note": 92,
      "start": 39.4867,
      "duration": 0.0003,
      "velocity": 1,
      "chip": "ym2612"
    },
    {
      "channel": 0,
      "note": 92,
      "start": 39.5124,
      "duration": 0.0001,
      "velocity": 1,
      "chip": "ym2612"
    },
    {
      "channel": 1,
      "note": 76,
      "start": 39.5155,
      "duration": 0.0533,
      "velocity": 106,
      "chip": "ym2612"
    },
    {
      "channel": 3,
      "note": 52,
      "start": 39.5188,
      "duration": 0.0096,
      "velocity": 103,
      "chip": "ym2612"
    },
    {
      "channel": 2,
      "note": 76,
      "start": 39.5432,
      "duration": 0.0531,
      "velocity": 106,
      "chip": "ym2612"
    },
    {
      "channel": 0,
      "note": 80,
      "start": 39.5674,
      "duration": 0.0001,
      "velocity": 1,
      "chip": "ym2612"
    },
    {
      "channel": 1,
      "note": 75,
      "start": 39.5705,
      "duration": 0.0526,
      "velocity": 106,
      "chip": "ym2612"
    },
    {
      "channel": 0,
      "note": 92,
      "start": 39.5945,
      "duration": 0.0001,
      "velocity": 1,
      "chip": "ym2612"
    },
    {
      "channel": 2,
      "note": 75,
      "start": 39.5979,
      "duration": 0.0527,
      "velocity": 106,
      "chip": "ym2612"
    },
    {
      "channel": 0,
      "note": 83,
      "start": 39.6217,
      "duration": 0.0001,
      "velocity": 1,
      "chip": "ym2612"
    },
    {
      "channel": 1,
      "note": 71,
      "start": 39.6247,
      "duration": 0.0536,
      "velocity": 106,
      "chip": "ym2612"
    },
    {
      "channel": 3,
      "note": 88,
      "start": 39.6279,
      "duration": 0.0104,
      "velocity": 79,
      "chip": "ym2612"
    },
    {
      "channel": 2,
      "note": 71,
      "start": 39.6528,
      "duration": 0.0516,
      "velocity": 106,
      "chip": "ym2612"
    },
    {
      "channel": 0,
      "note": 71,
      "start": 39.677,
      "duration": 0.0001,
      "velocity": 1,
      "chip": "ym2612"
    },
    {
      "channel": 1,
      "note": 73,
      "start": 39.68,
      "duration": 0.2404,
      "velocity": 106,
      "chip": "ym2612"
    },
    {
      "channel": 2,
      "note": 73,
      "start": 39.7066,
      "duration": 0.2402,
      "velocity": 106,
      "chip": "ym2612"
    },
    {
      "channel": 0,
      "note": 71,
      "start": 39.7316,
      "duration": 0.0001,
      "velocity": 1,
      "chip": "ym2612"
    },
    {
      "channel": 3,
      "note": 47,
      "start": 39.7357,
      "duration": 0.0096,
      "velocity": 103,
      "chip": "ym2612"
    },
    {
      "channel": 0,
      "note": 83,
      "start": 39.7587,
      "duration": 0.0003,
      "velocity": 1,
      "chip": "ym2612"
    },
    {
      "channel": 0,
      "note": 83,
      "start": 39.7841,
      "duration": 0.0001,
      "velocity": 1,
      "chip": "ym2612"
    },
    {
      "channel": 3,
      "note": 83,
      "start": 39.788,
      "duration": 0.0095,
      "velocity": 79,
      "chip": "ym2612"
    },
    {
      "channel": 0,
      "note": 71,
      "start": 39.8339,
      "duration": 0.0001,
      "velocity": 1,
      "chip": "ym2612"
    },
    {
      "channel": 0,
      "note": 71,
      "start": 39.8833,
      "duration": 0.0001,
      "velocity": 1,
      "chip": "ym2612"
    },
    {
      "channel": 0,
      "note": 83,
      "start": 39.9076,
      "duration": 0.0003,
      "velocity": 1,
      "chip": "ym2612"
    },
    {
      "channel": 3,
      "note": 47,
      "start": 39.9334,
      "duration": 0.0095,
      "velocity": 103,
      "chip": "ym2612"
    },
    {
      "channel": 0,
      "note": 71,
      "start": 39.9567,
      "duration": 0.0003,
      "velocity": 1,
      "chip": "ym2612"
    },
    {
      "channel": 0,
      "note": 83,
      "start": 39.9817,
      "duration": 0.0001,
      "velocity": 1,
      "chip": "ym2612"
    },
    {
      "channel": 0,
      "note": 83,
      "start": 40.0041,
      "duration": 0.0003,
      "velocity": 1,
      "chip": "ym2612"
    },
    {
      "channel": 0,
      "note": 83,
      "start": 40.0263,
      "duration": 0.0001,
      "velocity": 1,
      "chip": "ym2612"
    },
    {
      "channel": 3,
      "note": 83,
      "start": 40.0302,
      "duration": 0.0102,
      "velocity": 79,
      "chip": "ym2612"
    },
    {
      "channel": 0,
      "note": 71,
      "start": 40.0756,
      "duration": 0.0001,
      "velocity": 1,
      "chip": "ym2612"
    },
    {
      "channel": 0,
      "note": 71,
      "start": 40.128,
      "duration": 0.0001,
      "velocity": 1,
      "chip": "ym2612"
    },
    {
      "channel": 3,
      "note": 47,
      "start": 40.132,
      "duration": 0.0095,
      "velocity": 103,
      "chip": "ym2612"
    },
    {
      "channel": 0,
      "note": 83,
      "start": 40.155,
      "duration": 0.0003,
      "velocity": 1,
      "chip": "ym2612"
    },
    {
      "channel": 0,
      "note": 83,
      "start": 40.1804,
      "duration": 0.0001,
      "velocity": 1,
      "chip": "ym2612"
    },
    {
      "channel": 3,
      "note": 83,
      "start": 40.1844,
      "duration": 0.0095,
      "velocity": 79,
      "chip": "ym2612"
    },
    {
      "channel": 0,
      "note": 71,
      "start": 40.228,
      "duration": 0.0001,
      "velocity": 1,
      "chip": "ym2612"
    },
    {
      "channel": 0,
      "note": 71,
      "start": 40.2741,
      "duration": 0.0001,
      "velocity": 1,
      "chip": "ym2612"
    },
    {
      "channel": 3,
      "note": 47,
      "start": 40.278,
      "duration": 0.0096,
      "velocity": 79,
      "chip": "ym2612"
    },
    {
      "channel": 0,
      "note": 83,
      "start": 40.3008,
      "duration": 0.0003,
      "velocity": 1,
      "chip": "ym2612"
    },
    {
      "channel": 0,
      "note": 83,
      "start": 40.3267,
      "duration": 0.0001,
      "velocity": 1,
      "chip": "ym2612"
    },
    {
      "channel": 1,
      "note": 75,
      "start": 40.3297,
      "duration": 0.0922,
      "velocity": 106,
      "chip": "ym2612"
    },
    {
      "channel": 3,
      "note": 47,
      "start": 40.333,
      "duration": 0.0088,
      "velocity": 103,
      "chip": "ym2612"
    },
    {
      "channel": 2,
      "note": 75,
      "start": 40.3554,
      "duration": 0.0956,
      "velocity": 106,
      "chip": "ym2612"
    },
    {
      "channel": 0,
      "note": 71,
      "start": 40.3757,
      "duration": 0.0001,
      "velocity": 1,
      "chip": "ym2612"
    },
    {
      "channel": 0,
      "note": 83,
      "start": 40.3967,
      "duration": 0.0001,
      "velocity": 1,
      "chip": "ym2612"
    },
    {
      "channel": 0,
      "note": 85,
      "start": 40.4206,
      "duration": 0.0001,
      "velocity": 1,
      "chip": "ym2612"
    },
    {
      "channel": 1,
      "note": 71,
      "start": 40.4236,
      "duration": 0.2193,
      "velocity": 106,
      "chip": "ym2612"
    },
    {
      "channel": 3,
      "note": 83,
      "start": 40.4268,
      "duration": 0.0096,
      "velocity": 79,
      "chip": "ym2612"
    },
    {
      "channel": 0,
      "note": 85,
      "start": 40.4493,
      "duration": 0.0001,
      "velocity": 1,
      "chip": "ym2612"
    },
    {
      "channel": 2,
      "note": 71,
      "start": 40.4527,
      "duration": 0.2159,
      "velocity": 106,
      "chip": "ym2612"
    },
    {
      "channel": 0,
      "note": 73,
      "start": 40.4944,
      "duration": 0.0001,
      "velocity": 1,
      "chip": "ym2612"
    },
    {
      "channel": 3,
      "note": 49,
      "start": 40.5213,
      "duration": 0.0089,
      "velocity": 103,
      "chip": "ym2612"
    },
    {
      "channel": 0,
      "note": 73,
      "start": 40.5427,
      "duration": 0.0003,
      "velocity": 1,
      "chip": "ym2612"
    },
    {
      "channel": 3,
      "note": 85,
      "start": 40.565,
      "duration": 0.0088,
      "velocity": 79,
      "chip": "ym2612"
    },
    {
      "channel": 0,
      "note": 73,
      "start": 40.586,
      "duration": 0.0003,
      "velocity": 1,
      "chip": "ym2612"
    },
    {
      "channel": 0,
      "note": 73,
      "start": 40.6299,
      "duration": 0.0001,
      "velocity": 1,
      "chip": "ym2612"
    },
    {
      "channel": 0,
      "note": 85,
      "start": 40.6544,
      "duration": 0.0001,
      "velocity": 1,
      "chip": "ym2612"
    },
    {
      "channel": 0,
      "note": 73,
      "start": 40.6987,
      "duration": 0.0001,
      "velocity": 1,
      "chip": "ym2612"
    },
    {
      "channel": 3,
      "note": 49,
      "start": 40.7028,
      "duration": 0.0088,
      "velocity": 103,
      "chip": "ym2612"
    },
    {
      "channel": 0,
      "note": 85,
      "start": 40.7239,
      "duration": 0.0003,
      "velocity": 1,
      "chip": "ym2612"
    },
    {
      "channel": 0,
      "note": 85,
      "start": 40.7453,
      "duration": 0.0001,
      "velocity": 1,
      "chip": "ym2612"
    },
    {
      "channel": 0,
      "note": 85,
      "start": 40.7649,
      "duration": 0.0003,
      "velocity": 1,
      "chip": "ym2612"
    },
    {
      "channel": 0,
      "note": 85,
      "start": 40.7853,
      "duration": 0.0001,
      "velocity": 1,
      "chip": "ym2612"
    },
    {
      "channel": 3,
      "note": 85,
      "start": 40.7892,
      "duration": 0.0096,
      "velocity": 79,
      "chip": "ym2612"
    },
    {
      "channel": 0,
      "note": 85,
      "start": 40.811,
      "duration": 0.0003,
      "velocity": 1,
      "chip": "ym2612"
    },
    {
      "channel": 0,
      "note": 73,
      "start": 40.8559,
      "duration": 0.0001,
      "velocity": 1,
      "chip": "ym2612"
    },
    {
      "channel": 3,
      "note": 49,
      "start": 40.8828,
      "duration": 0.0089,
      "velocity": 103,
      "chip": "ym2612"
    },
    {
      "channel": 0,
      "note": 73,
      "start": 40.904,
      "duration": 0.0003,
      "velocity": 1,
      "chip": "ym2612"
    },
    {
      "channel": 0,
      "note": 85,
      "start": 40.9254,
      "duration": 0.0001,
      "velocity": 1,
      "chip": "ym2612"
    },
    {
      "channel": 3,
      "note": 85,
      "start": 40.9294,
      "duration": 0.0088,
      "velocity": 79,
      "chip": "ym2612"
    },
    {
      "channel": 0,
      "note": 73,
      "start": 40.9742,
      "duration": 0.0001,
      "velocity": 1,
      "chip": "ym2612"
    },
    {
      "channel": 0,
      "note": 85,
      "start": 40.9974,
      "duration": 0.0003,
      "velocity": 1,
      "chip": "ym2612"
    },
    {
      "channel": 0,
      "note": 85,
      "start": 41.0212,
      "duration": 0.0001,
      "velocity": 1,
      "chip": "ym2612"
    },
    {
      "channel": 3,
      "note": 49,
      "start": 41.0251,
      "duration": 0.0088,
      "velocity": 79,
      "chip": "ym2612"
    },
    {
      "channel": 0,
      "note": 85,
      "start": 41.0462,
      "duration": 0.0003,
      "velocity": 1,
      "chip": "ym2612"
    },
    {
      "channel": 1,
      "note": 73,
      "start": 41.0688,
      "duration": 0.0501,
      "velocity": 106,
      "chip": "ym2612"
    },
    {
      "channel": 3,
      "note": 49,
      "start": 41.0721,
      "duration": 0.0088,
      "velocity": 103,
      "chip": "ym2612"
    },
    {
      "channel": 0,
      "note": 73,
      "start": 41.0938,
      "duration": 0.0001,
      "velocity": 1,
      "chip": "ym2612"
    },
    {
      "channel": 2,
      "note": 73,
      "start": 41.0973,
      "duration": 0.0515,
      "velocity": 106,
      "chip": "ym2612"
    },
    {
      "channel": 0,
      "note": 85,
      "start": 41.1175,
      "duration": 0.0001,
      "velocity": 1,
      "chip": "ym2612"
    },
    {
      "channel": 1,
      "note": 71,
      "start": 41.1205,
      "duration": 0.055,
      "velocity": 106,
      "chip": "ym2612"
    },
    {
      "channel": 3,
      "note": 85,
      "start": 41.1237,
      "duration": 0.0087,
      "velocity": 79,
      "chip": "ym2612"
    },
    {
      "channel": 0,
      "note": 85,
      "start": 41.147,
      "duration": 0.0001,
      "velocity": 1,
      "chip": "ym2612"
    },
    {
      "channel": 2,
      "note": 71,
      "start": 41.1505,
      "duration": 0.0509,
      "velocity": 106,
      "chip": "ym2612"
    },
    {
      "channel": 0,
      "note": 87,
      "start": 41.1742,
      "duration": 0.0001,
      "velocity": 1,
      "chip": "ym2612"
    },
    {
      "channel": 1,
      "note": 73,
      "start": 41.1772,
      "duration": 0.22,
      "velocity": 106,
      "chip": "ym2612"
    },
    {
      "channel": 3,
      "note": 49,
      "start": 41.1804,
      "duration": 0.0096,
      "velocity": 79,
      "chip": "ym2612"
    },
    {
      "channel": 2,
      "note": 73,
      "start": 41.2035,
      "duration": 0.2191,
      "velocity": 106,
      "chip": "ym2612"
    },
    {
      "channel": 0,
      "note": 75,
      "start": 41.2242,
      "duration": 0.0001,
      "velocity": 1,
      "chip": "ym2612"
    },
    {
      "channel": 0,
      "note": 75,
      "start": 41.2679,
      "duration": 0.0001,
      "velocity": 1,
      "chip": "ym2612"
    },
    {
      "channel": 3,
      "note": 51,
      "start": 41.272,
      "duration": 0.0088,
      "velocity": 103,
      "chip": "ym2612"
    },
    {
      "channel": 0,
      "note": 87,
      "start": 41.2933,
      "duration": 0.0003,
      "velocity": 1,
      "chip": "ym2612"
    },
    {
      "channel": 0,
      "note": 87,
      "start": 41.3149,
      "duration": 0.0001,
      "velocity": 1,
      "chip": "ym2612"
    },
    {
      "channel": 3,
      "note": 87,
      "start": 41.3188,
      "duration": 0.0088,
      "velocity": 79,
      "chip": "ym2612"
    },
    {
      "channel": 0,
      "note": 87,
      "start": 41.3398,
      "duration": 0.0003,
      "velocity": 1,
      "chip": "ym2612"
    },
    {
      "channel": 0,
      "note": 87,
      "start": 41.362,
      "duration": 0.0001,
      "velocity": 1,
      "chip": "ym2612"
    },
    {
      "channel": 0,
      "note": 75,
      "start": 41.4084,
      "duration": 0.0001,
      "velocity": 1,
      "chip": "ym2612"
    },
    {
      "channel": 0,
      "note": 75,
      "start": 41.4527,
      "duration": 0.0001,
      "velocity": 1,
      "chip": "ym2612"
    },
    {
      "channel": 3,
      "note": 51,
      "start": 41.4568,
      "duration": 0.0088,
      "velocity": 103,
      "chip": "ym2612"
    },
    {
      "channel": 0,
      "note": 87,
      "start": 41.478,
      "duration": 0.0003,
      "velocity": 1,
      "chip": "ym2612"
    },
    {
      "channel": 0,
      "note": 87,
      "start": 41.4993,
      "duration": 0.0001,
      "velocity": 1,
      "chip": "ym2612"
    },
    {
      "channel": 0,
      "note": 87,
      "start": 41.519,
      "duration": 0.0003,
      "velocity": 1,
      "chip": "ym2612"
    },
    {
      "channel": 0,
      "note": 87,
      "start": 41.5394,
      "duration": 0.0001,
      "velocity": 1,
      "chip": "ym2612"
    },
    {
      "channel": 3,
      "note": 87,
      "start": 41.5434,
      "duration": 0.0097,
      "velocity": 79,
      "chip": "ym2612"
    },
    {
      "channel": 0,
      "note": 75,
      "start": 41.5861,
      "duration": 0.0001,
      "velocity": 1,
      "chip": "ym2612"
    },
    {
      "channel": 0,
      "note": 75,
      "start": 41.6322,
      "duration": 0.0001,
      "velocity": 1,
      "chip": "ym2612"
    },
    {
      "channel": 3,
      "note": 51,
      "start": 41.6363,
      "duration": 0.0088,
      "velocity": 103,
      "chip": "ym2612"
    },
    {
      "channel": 0,
      "note": 87,
      "start": 41.6574,
      "duration": 0.0003,
      "velocity": 1,
      "chip": "ym2612"
    },
    {
      "channel": 3,
      "note": 87,
      "start": 41.6802,
      "duration": 0.0088,
      "velocity": 79,
      "chip": "ym2612"
    },
    {
      "channel": 0,
      "note": 75,
      "start": 41.7012,
      "duration": 0.0003,
      "velocity": 1,
      "chip": "ym2612"
    },
    {
      "channel": 0,
      "note": 87,
      "start": 41.7234,
      "duration": 0.0001,
      "velocity": 1,
      "chip": "ym2612"
    },
    {
      "channel": 0,
      "note": 75,
      "start": 41.7677,
      "duration": 0.0001,
      "velocity": 1,
      "chip": "ym2612"
    },
    {
      "channel": 3,
      "note": 51,
      "start": 41.7716,
      "duration": 0.0088,
      "velocity": 79,
      "chip": "ym2612"
    },
    {
      "channel": 0,
      "note": 87,
      "start": 41.7927,
      "duration": 0.0003,
      "velocity": 1,
      "chip": "ym2612"
    },
    {
      "channel": 3,
      "note": 51,
      "start": 41.8163,
      "duration": 0.0088,
      "velocity": 79,
      "chip": "ym2612"
    },
    {
      "channel": 0,
      "note": 75,
      "start": 41.8373,
      "duration": 0.0003,
      "velocity": 1,
      "chip": "ym2612"
    },
    {
      "channel": 0,
      "note": 87,
      "start": 41.8593,
      "duration": 0.0001,
      "velocity": 1,
      "chip": "ym2612"
    },
    {
      "channel": 3,
      "note": 51,
      "start": 41.8632,
      "duration": 0.0088,
      "velocity": 79,
      "chip": "ym2612"
    },
    {
      "channel": 0,
      "note": 87,
      "start": 41.8862,
      "duration": 0.0001,
      "velocity": 1,
      "chip": "ym2612"
    },
    {
      "channel": 0,
      "note": 92,
      "start": 41.9136,
      "duration": 0.0001,
      "velocity": 1,
      "chip": "ym2612"
    },
    {
      "channel": 1,
      "note": 75,
      "start": 41.9166,
      "duration": 0.2194,
      "velocity": 106,
      "chip": "ym2612"
    },
    {
      "channel": 3,
      "note": 54,
      "start": 41.9198,
      "duration": 0.0097,
      "velocity": 79,
      "chip": "ym2612"
    },
    {
      "channel": 0,
      "note": 92,
      "start": 41.9423,
      "duration": 0.0001,
      "velocity": 1,
      "chip": "ym2612"
    },
    {
      "channel": 2,
      "note": 75,
      "start": 41.9458,
      "duration": 0.2159,
      "velocity": 106,
      "chip": "ym2612"
    },
    {
      "channel": 0,
      "note": 80,
      "start": 41.9872,
      "duration": 0.0001,
      "velocity": 1,
      "chip": "ym2612"
    },
    {
      "channel": 3,
      "note": 52,
      "start": 42.0141,
      "duration": 0.0088,
      "velocity": 103,
      "chip": "ym2612"
    },
    {
      "channel": 0,
      "note": 80,
      "start": 42.0355,
      "duration": 0.0003,
      "velocity": 1,
      "chip": "ym2612"
    },
    {
      "channel": 3,
      "note": 88,
      "start": 42.0578,
      "duration": 0.0088,
      "velocity": 79,
      "chip": "ym2612"
    },
    {
      "channel": 0,
      "note": 80,
      "start": 42.0789,
      "duration": 0.0003,
      "velocity": 1,
      "chip": "ym2612"
    },
    {
      "channel": 0,
      "note": 92,
      "start": 42.1009,
      "duration": 0.0001,
      "velocity": 1,
      "chip": "ym2612"
    },
    {
      "channel": 0,
      "note": 80,
      "start": 42.1473,
      "duration": 0.0001,
      "velocity": 1,
      "chip": "ym2612"
    },
    {
      "channel": 0,
      "note": 80,
      "start": 42.1916,
      "duration": 0.0001,
      "velocity": 1,
      "chip": "ym2612"
    },
    {
      "channel": 3,
      "note": 52,
      "start": 42.1957,
      "duration": 0.0089,
      "velocity": 103,
      "chip": "ym2612"
    },
    {
      "channel": 0,
      "note": 92,
      "start": 42.2168,
      "duration": 0.0003,
      "velocity": 1,
      "chip": "ym2612"
    },
    {
      "channel": 0,
      "note": 92,
      "start": 42.2381,
      "duration": 0.0001,
      "velocity": 1,
      "chip": "ym2612"
    },
    {
      "channel": 0,
      "note": 92,
      "start": 42.2578,
      "duration": 0.0003,
      "velocity": 1,
      "chip": "ym2612"
    },
    {
      "channel": 0,
      "note": 92,
      "start": 42.2782,
      "duration": 0.0001,
      "velocity": 1,
      "chip": "ym2612"
    },
    {
      "channel": 3,
      "note": 88,
      "start": 42.2821,
      "duration": 0.0097,
      "velocity": 79,
      "chip": "ym2612"
    },
    {
      "channel": 0,
      "note": 80,
      "start": 42.3249,
      "duration": 0.0001,
      "velocity": 1,
      "chip": "ym2612"
    },
    {
      "channel": 0,
      "note": 80,
      "start": 42.371,
      "duration": 0.0001,
      "velocity": 1,
      "chip": "ym2612"
    },
    {
      "channel": 3,
      "note": 52,
      "start": 42.3751,
      "duration": 0.0089,
      "velocity": 103,
      "chip": "ym2612"
    },
    {
      "channel": 0,
      "note": 92,
      "start": 42.3963,
      "duration": 0.0003,
      "velocity": 1,
      "chip": "ym2612"
    },
    {
      "channel": 0,
      "note": 92,
      "start": 42.4176,
      "duration": 0.0001,
      "velocity": 1,
      "chip": "ym2612"
    },
    {
      "channel": 3,
      "note": 88,
      "start": 42.4216,
      "duration": 0.0088,
      "velocity": 79,
      "chip": "ym2612"
    },
    {
      "channel": 0,
      "note": 92,
      "start": 42.4446,
      "duration": 0.0001,
      "velocity": 1,
      "chip": "ym2612"
    },
    {
      "channel": 0,
      "note": 92,
      "start": 42.4691,
      "duration": 0.0001,
      "velocity": 1,
      "chip": "ym2612"
    },
    {
      "channel": 0,
      "note": 80,
      "start": 42.5135,
      "duration": 0.0001,
      "velocity": 1,
      "chip": "ym2612"
    },
    {
      "channel": 3,
      "note": 52,
      "start": 42.5174,
      "duration": 0.0088,
      "velocity": 79,
      "chip": "ym2612"
    },
    {
      "channel": 0,
      "note": 92,
      "start": 42.5385,
      "duration": 0.0003,
      "velocity": 1,
      "chip": "ym2612"
    },
    {
      "channel": 0,
      "note": 92,
      "start": 42.5635,
      "duration": 0.0001,
      "velocity": 1,
      "chip": "ym2612"
    },
    {
      "channel": 1,
      "note": 76,
      "start": 42.5665,
      "duration": 0.0476,
      "velocity": 106,
      "chip": "ym2612"
    },
    {
      "channel": 3,
      "note": 52,
      "start": 42.5698,
      "duration": 0.0089,
      "velocity": 103,
      "chip": "ym2612"
    },
    {
      "channel": 2,
      "note": 76,
      "start": 42.5923,
      "duration": 0.046,
      "velocity": 106,
      "chip": "ym2612"
    },
    {
      "channel": 0,
      "note": 80,
      "start": 42.6128,
      "duration": 0.0001,
      "velocity": 1,
      "chip": "ym2612"
    },
    {
      "channel": 1,
      "note": 75,
      "start": 42.6158,
      "duration": 0.0455,
      "velocity": 106,
      "chip": "ym2612"
    },
    {
      "channel": 0,
      "note": 92,
      "start": 42.6365,
      "duration": 0.0001,
      "velocity": 1,
      "chip": "ym2612"
    },
    {
      "channel": 2,
      "note": 75,
      "start": 42.64,
      "duration": 0.0463,
      "velocity": 106,
      "chip": "ym2612"
    },
    {
      "channel": 0,
      "note": 83,
      "start": 42.66,
      "duration": 0.0001,
      "velocity": 1,
      "chip": "ym2612"
    },
    {
      "channel": 1,
      "note": 71,
      "start": 42.663,
      "duration": 0.0474,
      "velocity": 106,
      "chip": "ym2612"
    },
    {
      "channel": 3,
      "note": 88,
      "start": 42.6661,
      "duration": 0.0088,
      "velocity": 79,
      "chip": "ym2612"
    },
    {
      "channel": 2,
      "note": 71,
      "start": 42.6884,
      "duration": 0.0448,
      "velocity": 106,
      "chip": "ym2612"
    },
    {
      "channel": 0,
      "note": 71,
      "start": 42.709,
      "duration": 0.0001,
      "velocity": 1,
      "chip": "ym2612"
    },
    {
      "channel": 1,
      "note": 73,
      "start": 42.712,
      "duration": 0.22,
      "velocity": 106,
      "chip": "ym2612"
    },
    {
      "channel": 2,
      "note": 73,
      "start": 42.7353,
      "duration": 0.2225,
      "velocity": 106,
      "chip": "ym2612"
    },
    {
      "channel": 0,
      "note": 71,
      "start": 42.7596,
      "duration": 0.0001,
      "velocity": 1,
      "chip": "ym2612"
    },
    {
      "channel": 3,
      "note": 47,
      "start": 42.7637,
      "duration": 0.0089,
      "velocity": 103,
      "chip": "ym2612"
    },
    {
      "channel": 0,
      "note": 83,
      "start": 42.7848,
      "duration": 0.0003,
      "velocity": 1,
      "chip": "ym2612"
    },
    {
      "channel": 0,
      "note": 83,
      "start": 42.8063,
      "duration": 0.0001,
      "velocity": 1,
      "chip": "ym2612"
    },
    {
      "channel": 3,
      "note": 83,
      "start": 42.8103,
      "duration": 0.0088,
      "velocity": 79,
      "chip": "ym2612"
    },
    {
      "channel": 0,
      "note": 71,
      "start": 42.8506,
      "duration": 0.0001,
      "velocity": 1,
      "chip": "ym2612"
    },
    {
      "channel": 0,
      "note": 71,
      "start": 42.897,
      "duration": 0.0001,
      "velocity": 1,
      "chip": "ym2612"
    },
    {
      "channel": 0,
      "note": 83,
      "start": 42.9203,
      "duration": 0.0003,
      "velocity": 1,
      "chip": "ym2612"
    },
    {
      "channel": 3,
      "note": 47,
      "start": 42.9455,
      "duration": 0.0089,
      "velocity": 103,
      "chip": "ym2612"
    },
    {
      "channel": 0,
      "note": 71,
      "start": 42.9669,
      "duration": 0.0003,
      "velocity": 1,
      "chip": "ym2612"
    },
    {
      "channel": 0,
      "note": 83,
      "start": 42.9879,
      "duration": 0.0001,
      "velocity": 1,
      "chip": "ym2612"
    },
    {
      "channel": 0,
      "note": 83,
      "start": 43.0076,
      "duration": 0.0003,
      "velocity": 1,
      "chip": "ym2612"
    },
    {
      "channel": 0,
      "note": 83,
      "start": 43.028,
      "duration": 0.0001,
      "velocity": 1,
      "chip": "ym2612"
    },
    {
      "channel": 3,
      "note": 83,
      "start": 43.032,
      "duration": 0.0097,
      "velocity": 79,
      "chip": "ym2612"
    },
    {
      "channel": 0,
      "note": 71,
      "start": 43.0747,
      "duration": 0.0001,
      "velocity": 1,
      "chip": "ym2612"
    },
    {
      "channel": 0,
      "note": 71,
      "start": 43.1208,
      "duration": 0.0001,
      "velocity": 1,
      "chip": "ym2612"
    },
    {
      "channel": 3,
      "note": 47,
      "start": 43.1249,
      "duration": 0.0089,
      "velocity": 103,
      "chip": "ym2612"
    },
    {
      "channel": 0,
      "note": 83,
      "start": 43.146,
      "duration": 0.0003,
      "velocity": 1,
      "chip": "ym2612"
    },
    {
      "channel": 0,
      "note": 83,
      "start": 43.1676,
      "duration": 0.0001,
      "velocity": 1,
      "chip": "ym2612"
    },
    {
      "channel": 3,
      "note": 83,
      "start": 43.1715,
      "duration": 0.0088,
      "velocity": 79,
      "chip": "ym2612"
    },
    {
      "channel": 0,
      "note": 71,
      "start": 43.2121,
      "duration": 0.0001,
      "velocity": 1,
      "chip": "ym2612"
    },
    {
      "channel": 0,
      "note": 71,
      "start": 43.2565,
      "duration": 0.0001,
      "velocity": 1,
      "chip": "ym2612"
    },
    {
      "channel": 3,
      "note": 47,
      "start": 43.2605,
      "duration": 0.0088,
      "velocity": 79,
      "chip": "ym2612"
    },
    {
      "channel": 0,
      "note": 83,
      "start": 43.2814,
      "duration": 0.0003,
      "velocity": 1,
      "chip": "ym2612"
    },
    {
      "channel": 0,
      "note": 83,
      "start": 43.3065,
      "duration": 0.0001,
      "velocity": 1,
      "chip": "ym2612"
    },
    {
      "channel": 1,
      "note": 75,
      "start": 43.3095,
      "duration": 0.0922,
      "velocity": 106,
      "chip": "ym2612"
    },
    {
      "channel": 3,
      "note": 47,
      "start": 43.3128,
      "duration": 0.0088,
      "velocity": 103,
      "chip": "ym2612"
    },
    {
      "channel": 2,
      "note": 75,
      "start": 43.3353,
      "duration": 0.0955,
      "velocity": 106,
      "chip": "ym2612"
    },
    {
      "channel": 0,
      "note": 71,
      "start": 43.3555,
      "duration": 0.0001,
      "velocity": 1,
      "chip": "ym2612"
    },
    {
      "channel": 0,
      "note": 83,
      "start": 43.3765,
      "duration": 0.0001,
      "velocity": 1,
      "chip": "ym2612"
    },
    {
      "channel": 0,
      "note": 85,
      "start": 43.4004,
      "duration": 0.0001,
      "velocity": 1,
      "chip": "ym2612"
    },
    {
      "channel": 1,
      "note": 71,
      "start": 43.4034,
      "duration": 0.2194,
      "velocity": 106,
      "chip": "ym2612"
    },
    {
      "channel": 3,
      "note": 83,
      "start": 43.4066,
      "duration": 0.0096,
      "velocity": 79,
      "chip": "ym2612"
    },
    {
      "channel": 0,
      "note": 85,
      "start": 43.429,
      "duration": 0.0001,
      "velocity": 1,
      "chip": "ym2612"
    },
    {
      "channel": 2,
      "note": 71,
      "start": 43.4325,
      "duration": 0.2159,
      "velocity": 106,
      "chip": "ym2612"
    },
    {
      "channel": 0,
      "note": 73,
      "start": 43.4742,
      "duration": 0.0001,
      "velocity": 1,
      "chip": "ym2612"
    },
    {
      "channel": 3,
      "note": 49,
      "start": 43.5012,
      "duration": 0.0088,
      "velocity": 103,
      "chip": "ym2612"
    },
    {
      "channel": 0,
      "note": 73,
      "start": 43.5226,
      "duration": 0.0003,
      "velocity": 1,
      "chip": "ym2612"
    },
    {
      "channel": 3,
      "note": 85,
      "start": 43.5449,
      "duration": 0.0088,
      "velocity": 79,
      "chip": "ym2612"
    },
    {
      "channel": 0,
      "note": 73,
      "start": 43.5658,
      "duration": 0.0003,
      "velocity": 1,
      "chip": "ym2612"
    },
    {
      "channel": 0,
      "note": 73,
      "start": 43.6097,
      "duration": 0.0001,
      "velocity": 1,
      "chip": "ym2612"
    },
    {
      "channel": 0,
      "note": 85,
      "start": 43.6342,
      "duration": 0.0001,
      "velocity": 1,
      "chip": "ym2612"
    },
    {
      "channel": 0,
      "note": 73,
      "start": 43.6785,
      "duration": 0.0001,
      "velocity": 1,
      "chip": "ym2612"
    },
    {
      "channel": 3,
      "note": 49,
      "start": 43.6826,
      "duration": 0.0089,
      "velocity": 103,
      "chip": "ym2612"
    },
    {
      "channel": 0,
      "note": 85,
      "start": 43.7038,
      "duration": 0.0003,
      "velocity": 1,
      "chip": "ym2612"
    },
    {
      "channel": 0,
      "note": 85,
      "start": 43.7251,
      "duration": 0.0001,
      "velocity": 1,
      "chip": "ym2612"
    },
    {
      "channel": 0,
      "note": 85,
      "start": 43.7448,
      "duration": 0.0003,
      "velocity": 1,
      "chip": "ym2612"
    },
    {
      "channel": 0,
      "note": 85,
      "start": 43.7652,
      "duration": 0.0001,
      "velocity": 1,
      "chip": "ym2612"
    },
    {
      "channel": 3,
      "note": 85,
      "start": 43.7691,
      "duration": 0.0097,
      "velocity": 79,
      "chip": "ym2612"
    },
    {
      "channel": 0,
      "note": 85,
      "start": 43.791,
      "duration": 0.0003,
      "velocity": 1,
      "chip": "ym2612"
    },
    {
      "channel": 0,
      "note": 73,
      "start": 43.8359,
      "duration": 0.0001,
      "velocity": 1,
      "chip": "ym2612"
    },
    {
      "channel": 3,
      "note": 49,
      "start": 43.8628,
      "duration": 0.0089,
      "velocity": 103,
      "chip": "ym2612"
    },
    {
      "channel": 0,
      "note": 73,
      "start": 43.8839,
      "duration": 0.0003,
      "velocity": 1,
      "chip": "ym2612"
    },
    {
      "channel": 0,
      "note": 85,
      "start": 43.9053,
      "duration": 0.0001,
      "velocity": 1,
      "chip": "ym2612"
    },
    {
      "channel": 3,
      "note": 85,
      "start": 43.9093,
      "duration": 0.0103,
      "velocity": 79,
      "chip": "ym2612"
    },
    {
      "channel": 0,
      "note": 73,
      "start": 43.9557,
      "duration": 0.0001,
      "velocity": 1,
      "chip": "ym2612"
    },
    {
      "channel": 0,
      "note": 85,
      "start": 43.9789,
      "duration": 0.0003,
      "velocity": 1,
      "chip": "ym2612"
    },
    {
      "channel": 0,
      "note": 85,
      "start": 44.0027,
      "duration": 0.0001,
      "velocity": 1,
      "chip": "ym2612"
    },
    {
      "channel": 3,
      "note": 49,
      "start": 44.0066,
      "duration": 0.0088,
      "velocity": 79,
      "chip": "ym2612"
    },
    {
      "channel": 0,
      "note": 85,
      "start": 44.0277,
      "duration": 0.0003,
      "velocity": 1,
      "chip": "ym2612"
    },
    {
      "channel": 1,
      "note": 73,
      "start": 44.0504,
      "duration": 0.0501,
      "velocity": 106,
      "chip": "ym2612"
    },
    {
      "channel": 3,
      "note": 49,
      "start": 44.0537,
      "duration": 0.0088,
      "velocity": 103,
      "chip": "ym2612"
    },
    {
      "channel": 0,
      "note": 73,
      "start": 44.0755,
      "duration": 0.0001,
      "velocity": 1,
      "chip": "ym2612"
    },
    {
      "channel": 2,
      "note": 73,
      "start": 44.079,
      "duration": 0.0515,
      "velocity": 106,
      "chip": "ym2612"
    },
    {
      "channel": 0,
      "note": 85,
      "start": 44.0991,
      "duration": 0.0001,
      "velocity": 1,
      "chip": "ym2612"
    },
    {
      "channel": 1,
      "note": 71,
      "start": 44.1022,
      "duration": 0.0552,
      "velocity": 106,
      "chip": "ym2612"
    },
    {
      "channel": 3,
      "note": 85,
      "start": 44.1054,
      "duration": 0.0088,
      "velocity": 79,
      "chip": "ym2612"
    },
    {
      "channel": 0,
      "note": 85,
      "start": 44.1287,
      "duration": 0.0001,
      "velocity": 1,
      "chip": "ym2612"
    },
    {
      "channel": 2,
      "note": 71,
      "start": 44.1321,
      "duration": 0.0554,
      "velocity": 106,
      "chip": "ym2612"
    },
    {
      "channel": 0,
      "note": 87,
      "start": 44.1561,
      "duration": 0.0001,
      "velocity": 1,
      "chip": "ym2612"
    },
    {
      "channel": 1,
      "note": 73,
      "start": 44.1591,
      "duration": 0.2478,
      "velocity": 106,
      "chip": "ym2612"
    },
    {
      "channel": 3,
      "note": 49,
      "start": 44.1623,
      "duration": 0.0127,
      "velocity": 79,
      "chip": "ym2612"
    },
    {
      "channel": 4,
      "note": 69,
      "start": 44.165,
      "duration": 0.2436,
      "velocity": 106,
      "chip": "ym2612"
    },
    {
      "channel": 2,
      "note": 73,
      "start": 44.1896,
      "duration": 0.2454,
      "velocity": 106,
      "chip": "ym2612"
    },
    {
      "channel": 0,
      "note": 75,
      "start": 44.2117,
      "duration": 0.0001,
      "velocity": 1,
      "chip": "ym2612"
    },
    {
      "channel": 0,
      "note": 75,
      "start": 44.2632,
      "duration": 0.0001,
      "velocity": 1,
      "chip": "ym2612"
    },
    {
      "channel": 3,
      "note": 51,
      "start": 44.2673,
      "duration": 0.0096,
      "velocity": 103,
      "chip": "ym2612"
    },
    {
      "channel": 0,
      "note": 87,
      "start": 44.2907,
      "duration": 0.0003,
      "velocity": 1,
      "chip": "ym2612"
    },
    {
      "channel": 0,
      "note": 87,
      "start": 44.3158,
      "duration": 0.0001,
      "velocity": 1,
      "chip": "ym2612"
    },
    {
      "channel": 3,
      "note": 87,
      "start": 44.3197,
      "duration": 0.0095,
      "velocity": 79,
      "chip": "ym2612"
    },
    {
      "channel": 0,
      "note": 87,
      "start": 44.3426,
      "duration": 0.0003,
      "velocity": 1,
      "chip": "ym2612"
    },
    {
      "channel": 0,
      "note": 87,
      "start": 44.3681,
      "duration": 0.0001,
      "velocity": 1,
      "chip": "ym2612"
    },
    {
      "channel": 0,
      "note": 75,
      "start": 44.4196,
      "duration": 0.0001,
      "velocity": 1,
      "chip": "ym2612"
    },
    {
      "channel": 0,
      "note": 75,
      "start": 44.4693,
      "duration": 0.0001,
      "velocity": 1,
      "chip": "ym2612"
    },
    {
      "channel": 3,
      "note": 51,
      "start": 44.4733,
      "duration": 0.0096,
      "velocity": 103,
      "chip": "ym2612"
    },
    {
      "channel": 0,
      "note": 87,
      "start": 44.4963,
      "duration": 0.0003,
      "velocity": 1,
      "chip": "ym2612"
    },
    {
      "channel": 0,
      "note": 87,
      "start": 44.5216,
      "duration": 0.0001,
      "velocity": 1,
      "chip": "ym2612"
    },
    {
      "channel": 0,
      "note": 87,
      "start": 44.5441,
      "duration": 0.0003,
      "velocity": 1,
      "chip": "ym2612"
    },
    {
      "channel": 0,
      "note": 87,
      "start": 44.5666,
      "duration": 0.0001,
      "velocity": 1,
      "chip": "ym2612"
    },
    {
      "channel": 3,
      "note": 87,
      "start": 44.5706,
      "duration": 0.0119,
      "velocity": 79,
      "chip": "ym2612"
    },
    {
      "channel": 4,
      "note": 71,
      "start": 44.5733,
      "duration": 0.2418,
      "velocity": 106,
      "chip": "ym2612"
    },
    {
      "channel": 0,
      "note": 75,
      "start": 44.6183,
      "duration": 0.0001,
      "velocity": 1,
      "chip": "ym2612"
    },
    {
      "channel": 0,
      "note": 75,
      "start": 44.6706,
      "duration": 0.0001,
      "velocity": 1,
      "chip": "ym2612"
    },
    {
      "channel": 3,
      "note": 51,
      "start": 44.6747,
      "duration": 0.0096,
      "velocity": 103,
      "chip": "ym2612"
    },
    {
      "channel": 0,
      "note": 87,
      "start": 44.7002,
      "duration": 0.0001,
      "velocity": 1,
      "chip": "ym2612"
    },
    {
      "channel": 3,
      "note": 87,
      "start": 44.7288,
      "duration": 0.0095,
      "velocity": 79,
      "chip": "ym2612"
    },
    {
      "channel": 0,
      "note": 75,
      "start": 44.7543,
      "duration": 0.0001,
      "velocity": 1,
      "chip": "ym2612"
    },
    {
      "channel": 0,
      "note": 87,
      "start": 44.7793,
      "duration": 0.0001,
      "velocity": 1,
      "chip": "ym2612"
    },
    {
      "channel": 0,
      "note": 75,
      "start": 44.828,
      "duration": 0.0001,
      "velocity": 1,
      "chip": "ym2612"
    },
    {
      "channel": 3,
      "note": 51,
      "start": 44.832,
      "duration": 0.0096,
      "velocity": 79,
      "chip": "ym2612"
    },
    {
      "channel": 0,
      "note": 87,
      "start": 44.8576,
      "duration": 0.0001,
      "velocity": 1,
      "chip": "ym2612"
    },
    {
      "channel": 3,
      "note": 51,
      "start": 44.8862,
      "duration": 0.0095,
      "velocity": 79,
      "chip": "ym2612"
    },
    {
      "channel": 0,
      "note": 75,
      "start": 44.9117,
      "duration": 0.0001,
      "velocity": 1,
      "chip": "ym2612"
    },
    {
      "channel": 0,
      "note": 87,
      "start": 44.939,
      "duration": 0.0001,
      "velocity": 1,
      "chip": "ym2612"
    },
    {
      "channel": 3,
      "note": 51,
      "start": 44.9429,
      "duration": 0.0096,
      "velocity": 79,
      "chip": "ym2612"
    },
    {
      "channel": 0,
      "note": 87,
      "start": 44.9685,
      "duration": 0.0001,
      "velocity": 1,
      "chip": "ym2612"
    },
    {
      "channel": 1,
      "note": 75,
      "start": 44.9966,
      "duration": 2.6175,
      "velocity": 101,
      "chip": "ym2612"
    },
    {
      "channel": 3,
      "note": 54,
      "start": 44.9997,
      "duration": 0.0104,
      "velocity": 79,
      "chip": "ym2612"
    },
    {
      "channel": 4,
      "note": 70,
      "start": 45.0025,
      "duration": 0.6991,
      "velocity": 106,
      "chip": "ym2612"
    },
    {
      "channel": 2,
      "note": 75,
      "start": 45.025,
      "duration": 2.6894,
      "velocity": 101,
      "chip": "ym2612"
    },
    {
      "channel": 3,
      "note": 56,
      "start": 45.0482,
      "duration": 0.0039,
      "velocity": 107,
      "chip": "ym2612"
    },
    {
      "channel": 3,
      "note": 32,
      "start": 45.07,
      "duration": 0.0039,
      "velocity": 107,
      "chip": "ym2612"
    },
    {
      "channel": 3,
      "note": 32,
      "start": 45.1459,
      "duration": 0.0173,
      "velocity": 107,
      "chip": "ym2612"
    },
    {
      "channel": 3,
      "note": 44,
      "start": 45.3451,
      "duration": 0.0371,
      "velocity": 79,
      "chip": "ym2612"
    },
    {
      "channel": 3,
      "note": 56,
      "start": 45.5446,
      "duration": 0.0171,
      "velocity": 107,
      "chip": "ym2612"
    },
    {
      "channel": 3,
      "note": 42,
      "start": 45.6443,
      "duration": 0.0171,
      "velocity": 107,
      "chip": "ym2612"
    },
    {
      "channel": 3,
      "note": 42,
      "start": 45.744,
      "duration": 0.0171,
      "velocity": 107,
      "chip": "ym2612"
    },
    {
      "channel": 3,
      "note": 44,
      "start": 45.8437,
      "duration": 0.0171,
      "velocity": 107,
      "chip": "ym2612"
    },
    {
      "channel": 3,
      "note": 44,
      "start": 45.9433,
      "duration": 0.0171,
      "velocity": 107,
      "chip": "ym2612"
    },
    {
      "channel": 3,
      "note": 35,
      "start": 46.1426,
      "duration": 0.0371,
      "velocity": 79,
      "chip": "ym2612"
    },
    {
      "channel": 3,
      "note": 44,
      "start": 46.342,
      "duration": 0.0371,
      "velocity": 79,
      "chip": "ym2612"
    },
    {
      "channel": 3,
      "note": 56,
      "start": 46.5414,
      "duration": 0.0171,
      "velocity": 107,
      "chip": "ym2612"
    },
    {
      "channel": 3,
      "note": 32,
      "start": 46.6411,
      "duration": 0.0171,
      "velocity": 107,
      "chip": "ym2612"
    },
    {
      "channel": 3,
      "note": 32,
      "start": 46.7408,
      "duration": 0.0171,
      "velocity": 107,
      "chip": "ym2612"
    },
    {
      "channel": 3,
      "note": 44,
      "start": 46.94,
      "duration": 0.0371,
      "velocity": 79,
      "chip": "ym2612"
    },
    {
      "channel": 3,
      "note": 56,
      "start": 47.1395,
      "duration": 0.0171,
      "velocity": 107,
      "chip": "ym2612"
    },
    {
      "channel": 3,
      "note": 42,
      "start": 47.2392,
      "duration": 0.0171,
      "velocity": 107,
      "chip": "ym2612"
    },
    {
      "channel": 3,
      "note": 42,
      "start": 47.3389,
      "duration": 0.0171,
      "velocity": 107,
      "chip": "ym2612"
    },
    {
      "channel": 3,
      "note": 44,
      "start": 47.4386,
      "duration": 0.0171,
      "velocity": 107,
      "chip": "ym2612"
    },
    {
      "channel": 3,
      "note": 44,
      "start": 47.5379,
      "duration": 0.0171,
      "velocity": 107,
      "chip": "ym2612"
    },
    {
      "channel": 3,
      "note": 35,
      "start": 47.7372,
      "duration": 0.0171,
      "velocity": 107,
      "chip": "ym2612"
    },
    {
      "channel": 3,
      "note": 37,
      "start": 47.8369,
      "duration": 0.0171,
      "velocity": 107,
      "chip": "ym2612"
    },
    {
      "channel": 3,
      "note": 37,
      "start": 47.9365,
      "duration": 0.0371,
      "velocity": 79,
      "chip": "ym2612"
    },
    {
      "channel": 3,
      "note": 56,
      "start": 48.136,
      "duration": 0.0171,
      "velocity": 107,
      "chip": "ym2612"
    },
    {
      "channel": 3,
      "note": 32,
      "start": 48.2357,
      "duration": 0.0171,
      "velocity": 107,
      "chip": "ym2612"
    },
    {
      "channel": 3,
      "note": 32,
      "start": 48.3354,
      "duration": 0.0171,
      "velocity": 107,
      "chip": "ym2612"
    },
    {
      "channel": 3,
      "note": 44,
      "start": 48.5346,
      "duration": 0.0371,
      "velocity": 79,
      "chip": "ym2612"
    },
    {
      "channel": 3,
      "note": 56,
      "start": 48.7341,
      "duration": 0.0171,
      "velocity": 107,
      "chip": "ym2612"
    },
    {
      "channel": 3,
      "note": 42,
      "start": 48.8338,
      "duration": 0.0171,
      "velocity": 107,
      "chip": "ym2612"
    },
    {
      "channel": 3,
      "note": 42,
      "start": 48.9334,
      "duration": 0.0171,
      "velocity": 107,
      "chip": "ym2612"
    },
    {
      "channel": 3,
      "note": 44,
      "start": 49.0331,
      "duration": 0.0171,
      "velocity": 107,
      "chip": "ym2612"
    },
    {
      "channel": 3,
      "note": 44,
      "start": 49.1328,
      "duration": 0.0171,
      "velocity": 107,
      "chip": "ym2612"
    },
    {
      "channel": 3,
      "note": 35,
      "start": 49.3321,
      "duration": 0.0371,
      "velocity": 79,
      "chip": "ym2612"
    },
    {
      "channel": 3,
      "note": 56,
      "start": 49.4317,
      "duration": 0.0371,
      "velocity": 79,
      "chip": "ym2612"
    },
    {
      "channel": 3,
      "note": 56,
      "start": 49.5314,
      "duration": 0.0371,
      "velocity": 79,
      "chip": "ym2612"
    },
    {
      "channel": 3,
      "note": 56,
      "start": 49.7309,
      "duration": 0.0171,
      "velocity": 107,
      "chip": "ym2612"
    },
    {
      "channel": 3,
      "note": 32,
      "start": 49.8306,
      "duration": 0.0171,
      "velocity": 107,
      "chip": "ym2612"
    },
    {
      "channel": 3,
      "note": 32,
      "start": 49.9303,
      "duration": 0.0171,
      "velocity": 107,
      "chip": "ym2612"
    },
    {
      "channel": 3,
      "note": 44,
      "start": 50.1295,
      "duration": 0.0371,
      "velocity": 79,
      "chip": "ym2612"
    },
    {
      "channel": 3,
      "note": 56,
      "start": 50.329,
      "duration": 0.0171,
      "velocity": 107,
      "chip": "ym2612"
    },
    {
      "channel": 3,
      "note": 42,
      "start": 50.4287,
      "duration": 0.0171,
      "velocity": 107,
      "chip": "ym2612"
    },
    {
      "channel": 3,
      "note": 42,
      "start": 50.5285,
      "duration": 0.0049,
      "velocity": 107,
      "chip": "ym2612"
    },
    {
      "channel": 3,
      "note": 44,
      "start": 50.5657,
      "duration": 0.0049,
      "velocity": 107,
      "chip": "ym2612"
    },
    {
      "channel": 3,
      "note": 35,
      "start": 50.5897,
      "duration": 0.0049,
      "velocity": 107,
      "chip": "ym2612"
    },
    {
      "channel": 3,
      "note": 35,
      "start": 50.6107,
      "duration": 0.0034,
      "velocity": 107,
      "chip": "ym2612"
    },
    {
      "channel": 3,
      "note": 37,
      "start": 50.6302,
      "duration": 0.008,
      "velocity": 79,
      "chip": "ym2612"
    },
    {
      "channel": 0,
      "note": 75,
      "start": 50.6533,
      "duration": 0.0001,
      "velocity": 1,
      "chip": "ym2612"
    },
    {
      "channel": 3,
      "note": 56,
      "start": 50.6572,
      "duration": 0.0115,
      "velocity": 79,
      "chip": "ym2612"
    },
    {
      "channel": 4,
      "note": 68,
      "start": 50.66,
      "duration": 0.0095,
      "velocity": 127,
      "chip": "ym2612"
    },
    {
      "channel": 0,
      "note": 92,
      "start": 50.682,
      "duration": 0.0001,
      "velocity": 1,
      "chip": "ym2612"
    },
    {
      "channel": 4,
      "note": 58,
      "start": 50.6863,
      "duration": 0.0076,
      "velocity": 127,
      "chip": "ym2612"
    },
    {
      "channel": 3,
      "note": 56,
      "start": 50.7088,
      "duration": 0.0087,
      "velocity": 107,
      "chip": "ym2612"
    },
    {
      "channel": 4,
      "note": 58,
      "start": 50.7116,
      "duration": 0.0388,
      "velocity": 127,
      "chip": "ym2612"
    },
    {
      "channel": 0,
      "note": 80,
      "start": 50.7359,
      "duration": 0.0001,
      "velocity": 1,
      "chip": "ym2612"
    },
    {
      "channel": 3,
      "note": 32,
      "start": 50.7399,
      "duration": 0.0061,
      "velocity": 107,
      "chip": "ym2612"
    },
    {
      "channel": 3,
      "note": 32,
      "start": 50.7663,
      "duration": 0.0079,
      "velocity": 107,
      "chip": "ym2612"
    },
    {
      "channel": 4,
      "note": 58,
      "start": 50.769,
      "duration": 0.0093,
      "velocity": 127,
      "chip": "ym2612"
    },
    {
      "channel": 0,
      "note": 80,
      "start": 50.791,
      "duration": 0.0001,
      "velocity": 1,
      "chip": "ym2612"
    },
    {
      "channel": 4,
      "note": 58,
      "start": 50.7953,
      "duration": 0.0076,
      "velocity": 127,
      "chip": "ym2612"
    },
    {
      "channel": 3,
      "note": 44,
      "start": 50.8186,
      "duration": 0.0114,
      "velocity": 79,
      "chip": "ym2612"
    },
    {
      "channel": 4,
      "note": 58,
      "start": 50.8214,
      "duration": 0.0308,
      "velocity": 127,
      "chip": "ym2612"
    },
    {
      "channel": 0,
      "note": 80,
      "start": 50.8427,
      "duration": 0.0003,
      "velocity": 1,
      "chip": "ym2612"
    },
    {
      "channel": 0,
      "note": 92,
      "start": 50.8671,
      "duration": 0.0001,
      "velocity": 1,
      "chip": "ym2612"
    },
    {
      "channel": 3,
      "note": 56,
      "start": 50.8711,
      "duration": 0.0078,
      "velocity": 107,
      "chip": "ym2612"
    },
    {
      "channel": 4,
      "note": 58,
      "start": 50.8739,
      "duration": 0.0093,
      "velocity": 127,
      "chip": "ym2612"
    },
    {
      "channel": 3,
      "note": 42,
      "start": 50.8983,
      "duration": 0.0078,
      "velocity": 107,
      "chip": "ym2612"
    },
    {
      "channel": 4,
      "note": 58,
      "start": 50.901,
      "duration": 0.0093,
      "velocity": 127,
      "chip": "ym2612"
    },
    {
      "channel": 0,
      "note": 80,
      "start": 50.9239,
      "duration": 0.0001,
      "velocity": 1,
      "chip": "ym2612"
    },
    {
      "channel": 3,
      "note": 42,
      "start": 50.9279,
      "duration": 0.0077,
      "velocity": 107,
      "chip": "ym2612"
    },
    {
      "channel": 4,
      "note": 58,
      "start": 50.9306,
      "duration": 0.0311,
      "velocity": 127,
      "chip": "ym2612"
    },
    {
      "channel": 3,
      "note": 44,
      "start": 50.9537,
      "duration": 0.0039,
      "velocity": 107,
      "chip": "ym2612"
    },
    {
      "channel": 0,
      "note": 80,
      "start": 50.9758,
      "duration": 0.0001,
      "velocity": 1,
      "chip": "ym2612"
    },
    {
      "channel": 3,
      "note": 44,
      "start": 50.9798,
      "duration": 0.0078,
      "velocity": 107,
      "chip": "ym2612"
    },
    {
      "channel": 4,
      "note": 58,
      "start": 50.9826,
      "duration": 0.0093,
      "velocity": 127,
      "chip": "ym2612"
    },
    {
      "channel": 0,
      "note": 92,
      "start": 51.0045,
      "duration": 0.0001,
      "velocity": 1,
      "chip": "ym2612"
    },
    {
      "channel": 4,
      "note": 58,
      "start": 51.0088,
      "duration": 0.0075,
      "velocity": 127,
      "chip": "ym2612"
    },
    {
      "channel": 0,
      "note": 92,
      "start": 51.0309,
      "duration": 0.0001,
      "velocity": 1,
      "chip": "ym2612"
    },
    {
      "channel": 3,
      "note": 35,
      "start": 51.0348,
      "duration": 0.0114,
      "velocity": 79,
      "chip": "ym2612"
    },
    {
      "channel": 4,
      "note": 58,
      "start": 51.0376,
      "duration": 0.0307,
      "velocity": 127,
      "chip": "ym2612"
    },
    {
      "channel": 0,
      "note": 92,
      "start": 51.0587,
      "duration": 0.0003,
      "velocity": 1,
      "chip": "ym2612"
    },
    {
      "channel": 0,
      "note": 92,
      "start": 51.0834,
      "duration": 0.0001,
      "velocity": 1,
      "chip": "ym2612"
    },
    {
      "channel": 3,
      "note": 44,
      "start": 51.0873,
      "duration": 0.0123,
      "velocity": 79,
      "chip": "ym2612"
    },
    {
      "channel": 4,
      "note": 58,
      "start": 51.0901,
      "duration": 0.0105,
      "velocity": 127,
      "chip": "ym2612"
    },
    {
      "channel": 4,
      "note": 58,
      "start": 51.1146,
      "duration": 0.0075,
      "velocity": 127,
      "chip": "ym2612"
    },
    {
      "channel": 0,
      "note": 80,
      "start": 51.1361,
      "duration": 0.0001,
      "velocity": 1,
      "chip": "ym2612"
    },
    {
      "channel": 3,
      "note": 56,
      "start": 51.1401,
      "duration": 0.0086,
      "velocity": 107,
      "chip": "ym2612"
    },
    {
      "channel": 4,
      "note": 58,
      "start": 51.1428,
      "duration": 0.0337,
      "velocity": 127,
      "chip": "ym2612"
    },
    {
      "channel": 3,
      "note": 32,
      "start": 51.167,
      "duration": 0.0053,
      "velocity": 107,
      "chip": "ym2612"
    },
    {
      "channel": 0,
      "note": 80,
      "start": 51.191,
      "duration": 0.0001,
      "velocity": 1,
      "chip": "ym2612"
    },
    {
      "channel": 3,
      "note": 32,
      "start": 51.195,
      "duration": 0.0078,
      "velocity": 107,
      "chip": "ym2612"
    },
    {
      "channel": 4,
      "note": 58,
      "start": 51.1977,
      "duration": 0.0094,
      "velocity": 127,
      "chip": "ym2612"
    },
    {
      "channel": 0,
      "note": 92,
      "start": 51.2198,
      "duration": 0.0001,
      "velocity": 1,
      "chip": "ym2612"
    },
    {
      "channel": 4,
      "note": 58,
      "start": 51.2241,
      "duration": 0.0076,
      "velocity": 127,
      "chip": "ym2612"
    },
    {
      "channel": 0,
      "note": 92,
      "start": 51.2461,
      "duration": 0.0001,
      "velocity": 1,
      "chip": "ym2612"
    },
    {
      "channel": 3,
      "note": 44,
      "start": 51.25,
      "duration": 0.0115,
      "velocity": 79,
      "chip": "ym2612"
    },
    {
      "channel": 4,
      "note": 58,
      "start": 51.2528,
      "duration": 0.0336,
      "velocity": 127,
      "chip": "ym2612"
    },
    {
      "channel": 0,
      "note": 92,
      "start": 51.2755,
      "duration": 0.0001,
      "velocity": 1,
      "chip": "ym2612"
    },
    {
      "channel": 0,
      "note": 92,
      "start": 51.3001,
      "duration": 0.0001,
      "velocity": 1,
      "chip": "ym2612"
    },
    {
      "channel": 3,
      "note": 56,
      "start": 51.3041,
      "duration": 0.0086,
      "velocity": 107,
      "chip": "ym2612"
    },
    {
      "channel": 4,
      "note": 58,
      "start": 51.3068,
      "duration": 0.0102,
      "velocity": 127,
      "chip": "ym2612"
    },
    {
      "channel": 3,
      "note": 42,
      "start": 51.3313,
      "duration": 0.0063,
      "velocity": 107,
      "chip": "ym2612"
    },
    {
      "channel": 4,
      "note": 58,
      "start": 51.334,
      "duration": 0.0078,
      "velocity": 127,
      "chip": "ym2612"
    },
    {
      "channel": 0,
      "note": 80,
      "start": 51.3554,
      "duration": 0.0001,
      "velocity": 1,
      "chip": "ym2612"
    },
    {
      "channel": 3,
      "note": 42,
      "start": 51.3593,
      "duration": 0.0078,
      "velocity": 107,
      "chip": "ym2612"
    },
    {
      "channel": 4,
      "note": 58,
      "start": 51.3621,
      "duration": 0.0339,
      "velocity": 127,
      "chip": "ym2612"
    },
    {
      "channel": 0,
      "note": 92,
      "start": 51.3839,
      "duration": 0.0001,
      "velocity": 1,
      "chip": "ym2612"
    },
    {
      "channel": 3,
      "note": 44,
      "start": 51.3879,
      "duration": 0.0037,
      "velocity": 107,
      "chip": "ym2612"
    },
    {
      "channel": 0,
      "note": 92,
      "start": 51.4105,
      "duration": 0.0001,
      "velocity": 1,
      "chip": "ym2612"
    },
    {
      "channel": 3,
      "note": 44,
      "start": 51.4145,
      "duration": 0.0093,
      "velocity": 107,
      "chip": "ym2612"
    },
    {
      "channel": 4,
      "note": 58,
      "start": 51.4172,
      "duration": 0.0109,
      "velocity": 127,
      "chip": "ym2612"
    },
    {
      "channel": 4,
      "note": 58,
      "start": 51.4423,
      "duration": 0.0075,
      "velocity": 127,
      "chip": "ym2612"
    },
    {
      "channel": 0,
      "note": 80,
      "start": 51.4645,
      "duration": 0.0001,
      "velocity": 1,
      "chip": "ym2612"
    },
    {
      "channel": 3,
      "note": 35,
      "start": 51.4685,
      "duration": 0.0078,
      "velocity": 107,
      "chip": "ym2612"
    },
    {
      "channel": 4,
      "note": 58,
      "start": 51.4713,
      "duration": 0.0363,
      "velocity": 127,
      "chip": "ym2612"
    },
    {
      "channel": 0,
      "note": 92,
      "start": 51.4941,
      "duration": 0.0001,
      "velocity": 1,
      "chip": "ym2612"
    },
    {
      "channel": 3,
      "note": 37,
      "start": 51.4981,
      "duration": 0.0052,
      "velocity": 107,
      "chip": "ym2612"
    },
    {
      "channel": 0,
      "note": 83,
      "start": 51.5212,
      "duration": 0.0001,
      "velocity": 1,
      "chip": "ym2612"
    },
    {
      "channel": 3,
      "note": 37,
      "start": 51.5251,
      "duration": 0.0113,
      "velocity": 79,
      "chip": "ym2612"
    },
    {
      "channel": 4,
      "note": 58,
      "start": 51.5279,
      "duration": 0.0094,
      "velocity": 127,
      "chip": "ym2612"
    },
    {
      "channel": 4,
      "note": 58,
      "start": 51.5514,
      "duration": 0.0076,
      "velocity": 127,
      "chip": "ym2612"
    },
    {
      "channel": 0,
      "note": 71,
      "start": 51.5729,
      "duration": 0.0001,
      "velocity": 1,
      "chip": "ym2612"
    },
    {
      "channel": 3,
      "note": 56,
      "start": 51.5769,
      "duration": 0.0085,
      "velocity": 107,
      "chip": "ym2612"
    },
    {
      "channel": 4,
      "note": 58,
      "start": 51.5797,
      "duration": 0.0337,
      "velocity": 127,
      "chip": "ym2612"
    },
    {
      "channel": 3,
      "note": 32,
      "start": 51.6039,
      "duration": 0.0053,
      "velocity": 107,
      "chip": "ym2612"
    },
    {
      "channel": 0,
      "note": 71,
      "start": 51.6278,
      "duration": 0.0001,
      "velocity": 1,
      "chip": "ym2612"
    },
    {
      "channel": 3,
      "note": 32,
      "start": 51.6318,
      "duration": 0.0078,
      "velocity": 107,
      "chip": "ym2612"
    },
    {
      "channel": 4,
      "note": 58,
      "start": 51.6346,
      "duration": 0.0093,
      "velocity": 127,
      "chip": "ym2612"
    },
    {
      "channel": 0,
      "note": 83,
      "start": 51.6566,
      "duration": 0.0001,
      "velocity": 1,
      "chip": "ym2612"
    },
    {
      "channel": 4,
      "note": 58,
      "start": 51.6609,
      "duration": 0.0074,
      "velocity": 127,
      "chip": "ym2612"
    },
    {
      "channel": 0,
      "note": 83,
      "start": 51.683,
      "duration": 0.0001,
      "velocity": 1,
      "chip": "ym2612"
    },
    {
      "channel": 3,
      "note": 44,
      "start": 51.6869,
      "duration": 0.0115,
      "velocity": 79,
      "chip": "ym2612"
    },
    {
      "channel": 4,
      "note": 58,
      "start": 51.6896,
      "duration": 0.0281,
      "velocity": 127,
      "chip": "ym2612"
    },
    {
      "channel": 0,
      "note": 71,
      "start": 51.7329,
      "duration": 0.0001,
      "velocity": 1,
      "chip": "ym2612"
    },
    {
      "channel": 3,
      "note": 56,
      "start": 51.7369,
      "duration": 0.0077,
      "velocity": 107,
      "chip": "ym2612"
    },
    {
      "channel": 4,
      "note": 58,
      "start": 51.7396,
      "duration": 0.0093,
      "velocity": 127,
      "chip": "ym2612"
    },
    {
      "channel": 3,
      "note": 42,
      "start": 51.764,
      "duration": 0.0078,
      "velocity": 107,
      "chip": "ym2612"
    },
    {
      "channel": 4,
      "note": 58,
      "start": 51.7668,
      "duration": 0.0093,
      "velocity": 127,
      "chip": "ym2612"
    },
    {
      "channel": 0,
      "note": 71,
      "start": 51.7896,
      "duration": 0.0001,
      "velocity": 1,
      "chip": "ym2612"
    },
    {
      "channel": 3,
      "note": 42,
      "start": 51.7936,
      "duration": 0.0077,
      "velocity": 107,
      "chip": "ym2612"
    },
    {
      "channel": 4,
      "note": 58,
      "start": 51.7963,
      "duration": 0.0338,
      "velocity": 127,
      "chip": "ym2612"
    },
    {
      "channel": 0,
      "note": 83,
      "start": 51.8181,
      "duration": 0.0001,
      "velocity": 1,
      "chip": "ym2612"
    },
    {
      "channel": 3,
      "note": 44,
      "start": 51.8221,
      "duration": 0.0037,
      "velocity": 107,
      "chip": "ym2612"
    },
    {
      "channel": 3,
      "note": 44,
      "start": 51.8456,
      "duration": 0.0079,
      "velocity": 107,
      "chip": "ym2612"
    },
    {
      "channel": 4,
      "note": 58,
      "start": 51.8483,
      "duration": 0.0093,
      "velocity": 127,
      "chip": "ym2612"
    },
    {
      "channel": 0,
      "note": 71,
      "start": 51.8703,
      "duration": 0.0001,
      "velocity": 1,
      "chip": "ym2612"
    },
    {
      "channel": 4,
      "note": 58,
      "start": 51.8746,
      "duration": 0.0075,
      "velocity": 127,
      "chip": "ym2612"
    },
    {
      "channel": 0,
      "note": 83,
      "start": 51.8966,
      "duration": 0.0001,
      "velocity": 1,
      "chip": "ym2612"
    },
    {
      "channel": 3,
      "note": 35,
      "start": 51.9005,
      "duration": 0.0114,
      "velocity": 79,
      "chip": "ym2612"
    },
    {
      "channel": 4,
      "note": 58,
      "start": 51.9032,
      "duration": 0.0338,
      "velocity": 127,
      "chip": "ym2612"
    },
    {
      "channel": 0,
      "note": 83,
      "start": 51.925,
      "duration": 0.0001,
      "velocity": 1,
      "chip": "ym2612"
    },
    {
      "channel": 3,
      "note": 56,
      "start": 51.9288,
      "duration": 0.0073,
      "velocity": 79,
      "chip": "ym2612"
    },
    {
      "channel": 0,
      "note": 83,
      "start": 51.9517,
      "duration": 0.0001,
      "velocity": 1,
      "chip": "ym2612"
    },
    {
      "channel": 3,
      "note": 56,
      "start": 51.9556,
      "duration": 0.0124,
      "velocity": 79,
      "chip": "ym2612"
    },
    {
      "channel": 4,
      "note": 58,
      "start": 51.9584,
      "duration": 0.0105,
      "velocity": 127,
      "chip": "ym2612"
    },
    {
      "channel": 4,
      "note": 58,
      "start": 51.9828,
      "duration": 0.0075,
      "velocity": 127,
      "chip": "ym2612"
    },
    {
      "channel": 0,
      "note": 71,
      "start": 52.0043,
      "duration": 0.0001,
      "velocity": 1,
      "chip": "ym2612"
    },
    {
      "channel": 3,
      "note": 56,
      "start": 52.0083,
      "duration": 0.0086,
      "velocity": 107,
      "chip": "ym2612"
    },
    {
      "channel": 4,
      "note": 58,
      "start": 52.0111,
      "duration": 0.0337,
      "velocity": 127,
      "chip": "ym2612"
    },
    {
      "channel": 3,
      "note": 32,
      "start": 52.0353,
      "duration": 0.0054,
      "velocity": 107,
      "chip": "ym2612"
    },
    {
      "channel": 0,
      "note": 71,
      "start": 52.0593,
      "duration": 0.0001,
      "velocity": 1,
      "chip": "ym2612"
    },
    {
      "channel": 3,
      "note": 32,
      "start": 52.0633,
      "duration": 0.0078,
      "velocity": 107,
      "chip": "ym2612"
    },
    {
      "channel": 4,
      "note": 58,
      "start": 52.066,
      "duration": 0.0093,
      "velocity": 127,
      "chip": "ym2612"
    },
    {
      "channel": 0,
      "note": 83,
      "start": 52.088,
      "duration": 0.0001,
      "velocity": 1,
      "chip": "ym2612"
    },
    {
      "channel": 4,
      "note": 58,
      "start": 52.0922,
      "duration": 0.0075,
      "velocity": 127,
      "chip": "ym2612"
    },
    {
      "channel": 0,
      "note": 83,
      "start": 52.1144,
      "duration": 0.0001,
      "velocity": 1,
      "chip": "ym2612"
    },
    {
      "channel": 3,
      "note": 44,
      "start": 52.1182,
      "duration": 0.0115,
      "velocity": 79,
      "chip": "ym2612"
    },
    {
      "channel": 4,
      "note": 58,
      "start": 52.121,
      "duration": 0.028,
      "velocity": 127,
      "chip": "ym2612"
    },
    {
      "channel": 0,
      "note": 71,
      "start": 52.1642,
      "duration": 0.0001,
      "velocity": 1,
      "chip": "ym2612"
    },
    {
      "channel": 3,
      "note": 56,
      "start": 52.1682,
      "duration": 0.0086,
      "velocity": 107,
      "chip": "ym2612"
    },
    {
      "channel": 4,
      "note": 58,
      "start": 52.171,
      "duration": 0.0102,
      "velocity": 127,
      "chip": "ym2612"
    },
    {
      "channel": 3,
      "note": 42,
      "start": 52.1954,
      "duration": 0.0063,
      "velocity": 107,
      "chip": "ym2612"
    },
    {
      "channel": 4,
      "note": 58,
      "start": 52.1982,
      "duration": 0.0078,
      "velocity": 127,
      "chip": "ym2612"
    },
    {
      "channel": 0,
      "note": 71,
      "start": 52.2195,
      "duration": 0.0001,
      "velocity": 1,
      "chip": "ym2612"
    },
    {
      "channel": 3,
      "note": 42,
      "start": 52.2235,
      "duration": 0.0078,
      "velocity": 107,
      "chip": "ym2612"
    },
    {
      "channel": 4,
      "note": 58,
      "start": 52.2262,
      "duration": 0.0307,
      "velocity": 127,
      "chip": "ym2612"
    },
    {
      "channel": 0,
      "note": 83,
      "start": 52.2475,
      "duration": 0.0003,
      "velocity": 1,
      "chip": "ym2612"
    },
    {
      "channel": 0,
      "note": 83,
      "start": 52.272,
      "duration": 0.0001,
      "velocity": 1,
      "chip": "ym2612"
    },
    {
      "channel": 3,
      "note": 44,
      "start": 52.276,
      "duration": 0.0077,
      "velocity": 107,
      "chip": "ym2612"
    },
    {
      "channel": 4,
      "note": 58,
      "start": 52.2787,
      "duration": 0.0094,
      "velocity": 127,
      "chip": "ym2612"
    },
    {
      "channel": 3,
      "note": 35,
      "start": 52.3023,
      "duration": 0.0063,
      "velocity": 107,
      "chip": "ym2612"
    },
    {
      "channel": 4,
      "note": 58,
      "start": 52.305,
      "duration": 0.0078,
      "velocity": 127,
      "chip": "ym2612"
    },
    {
      "channel": 0,
      "note": 71,
      "start": 52.3271,
      "duration": 0.0001,
      "velocity": 1,
      "chip": "ym2612"
    },
    {
      "channel": 3,
      "note": 35,
      "start": 52.3311,
      "duration": 0.0077,
      "velocity": 107,
      "chip": "ym2612"
    },
    {
      "channel": 4,
      "note": 58,
      "start": 52.3339,
      "duration": 0.0364,
      "velocity": 127,
      "chip": "ym2612"
    },
    {
      "channel": 0,
      "note": 83,
      "start": 52.3566,
      "duration": 0.0001,
      "velocity": 1,
      "chip": "ym2612"
    },
    {
      "channel": 3,
      "note": 37,
      "start": 52.3605,
      "duration": 0.0089,
      "velocity": 79,
      "chip": "ym2612"
    },
    {
      "channel": 0,
      "note": 92,
      "start": 52.3865,
      "duration": 0.0001,
      "velocity": 1,
      "chip": "ym2612"
    },
    {
      "channel": 3,
      "note": 56,
      "start": 52.3904,
      "duration": 0.0123,
      "velocity": 79,
      "chip": "ym2612"
    },
    {
      "channel": 4,
      "note": 58,
      "start": 52.3932,
      "duration": 0.0104,
      "velocity": 127,
      "chip": "ym2612"
    },
    {
      "channel": 0,
      "note": 92,
      "start": 52.4161,
      "duration": 0.0001,
      "velocity": 1,
      "chip": "ym2612"
    },
    {
      "channel": 4,
      "note": 58,
      "start": 52.4204,
      "duration": 0.0076,
      "velocity": 127,
      "chip": "ym2612"
    },
    {
      "channel": 3,
      "note": 56,
      "start": 52.4434,
      "duration": 0.0087,
      "velocity": 107,
      "chip": "ym2612"
    },
    {
      "channel": 4,
      "note": 58,
      "start": 52.4461,
      "duration": 0.0387,
      "velocity": 127,
      "chip": "ym2612"
    },
    {
      "channel": 0,
      "note": 80,
      "start": 52.4705,
      "duration": 0.0001,
      "velocity": 1,
      "chip": "ym2612"
    },
    {
      "channel": 3,
      "note": 32,
      "start": 52.4745,
      "duration": 0.0061,
      "velocity": 107,
      "chip": "ym2612"
    },
    {
      "channel": 3,
      "note": 32,
      "start": 52.5008,
      "duration": 0.0079,
      "velocity": 107,
      "chip": "ym2612"
    },
    {
      "channel": 4,
      "note": 58,
      "start": 52.5035,
      "duration": 0.0093,
      "velocity": 127,
      "chip": "ym2612"
    },
    {
      "channel": 0,
      "note": 80,
      "start": 52.5255,
      "duration": 0.0001,
      "velocity": 1,
      "chip": "ym2612"
    },
    {
      "channel": 4,
      "note": 58,
      "start": 52.5298,
      "duration": 0.0076,
      "velocity": 127,
      "chip": "ym2612"
    },
    {
      "channel": 3,
      "note": 44,
      "start": 52.5532,
      "duration": 0.0114,
      "velocity": 79,
      "chip": "ym2612"
    },
    {
      "channel": 4,
      "note": 58,
      "start": 52.556,
      "duration": 0.0309,
      "velocity": 127,
      "chip": "ym2612"
    },
    {
      "channel": 0,
      "note": 80,
      "start": 52.5772,
      "duration": 0.0003,
      "velocity": 1,
      "chip": "ym2612"
    },
    {
      "channel": 0,
      "note": 92,
      "start": 52.6017,
      "duration": 0.0001,
      "velocity": 1,
      "chip": "ym2612"
    },
    {
      "channel": 3,
      "note": 56,
      "start": 52.6057,
      "duration": 0.0078,
      "velocity": 107,
      "chip": "ym2612"
    },
    {
      "channel": 4,
      "note": 58,
      "start": 52.6085,
      "duration": 0.0093,
      "velocity": 127,
      "chip": "ym2612"
    },
    {
      "channel": 3,
      "note": 42,
      "start": 52.6329,
      "duration": 0.0079,
      "velocity": 107,
      "chip": "ym2612"
    },
    {
      "channel": 4,
      "note": 58,
      "start": 52.6356,
      "duration": 0.0093,
      "velocity": 127,
      "chip": "ym2612"
    },
    {
      "channel": 0,
      "note": 80,
      "start": 52.6585,
      "duration": 0.0001,
      "velocity": 1,
      "chip": "ym2612"
    },
    {
      "channel": 3,
      "note": 42,
      "start": 52.6625,
      "duration": 0.0077,
      "velocity": 107,
      "chip": "ym2612"
    },
    {
      "channel": 4,
      "note": 58,
      "start": 52.6652,
      "duration": 0.0312,
      "velocity": 127,
      "chip": "ym2612"
    },
    {
      "channel": 3,
      "note": 44,
      "start": 52.6883,
      "duration": 0.0039,
      "velocity": 107,
      "chip": "ym2612"
    },
    {
      "channel": 0,
      "note": 80,
      "start": 52.7104,
      "duration": 0.0001,
      "velocity": 1,
      "chip": "ym2612"
    },
    {
      "channel": 3,
      "note": 44,
      "start": 52.7144,
      "duration": 0.0078,
      "velocity": 107,
      "chip": "ym2612"
    },
    {
      "channel": 4,
      "note": 58,
      "start": 52.7172,
      "duration": 0.0093,
      "velocity": 127,
      "chip": "ym2612"
    },
    {
      "channel": 0,
      "note": 92,
      "start": 52.7391,
      "duration": 0.0001,
      "velocity": 1,
      "chip": "ym2612"
    },
    {
      "channel": 4,
      "note": 58,
      "start": 52.7434,
      "duration": 0.0075,
      "velocity": 127,
      "chip": "ym2612"
    },
    {
      "channel": 0,
      "note": 92,
      "start": 52.7656,
      "duration": 0.0001,
      "velocity": 1,
      "chip": "ym2612"
    },
    {
      "channel": 3,
      "note": 35,
      "start": 52.7695,
      "duration": 0.0115,
      "velocity": 79,
      "chip": "ym2612"
    },
    {
      "channel": 4,
      "note": 58,
      "start": 52.7722,
      "duration": 0.0307,
      "velocity": 127,
      "chip": "ym2612"
    },
    {
      "channel": 0,
      "note": 92,
      "start": 52.7934,
      "duration": 0.0003,
      "velocity": 1,
      "chip": "ym2612"
    },
    {
      "channel": 0,
      "note": 92,
      "start": 52.8181,
      "duration": 0.0001,
      "velocity": 1,
      "chip": "ym2612"
    },
    {
      "channel": 3,
      "note": 44,
      "start": 52.822,
      "duration": 0.0123,
      "velocity": 79,
      "chip": "ym2612"
    },
    {
      "channel": 4,
      "note": 58,
      "start": 52.8248,
      "duration": 0.0104,
      "velocity": 127,
      "chip": "ym2612"
    },
    {
      "channel": 4,
      "note": 58,
      "start": 52.8493,
      "duration": 0.0075,
      "velocity": 127,
      "chip": "ym2612"
    },
    {
      "channel": 0,
      "note": 80,
      "start": 52.8707,
      "duration": 0.0001,
      "velocity": 1,
      "chip": "ym2612"
    },
    {
      "channel": 3,
      "note": 56,
      "start": 52.8747,
      "duration": 0.0085,
      "velocity": 107,
      "chip": "ym2612"
    },
    {
      "channel": 4,
      "note": 58,
      "start": 52.8775,
      "duration": 0.0337,
      "velocity": 127,
      "chip": "ym2612"
    },
    {
      "channel": 3,
      "note": 32,
      "start": 52.9017,
      "duration": 0.0053,
      "velocity": 107,
      "chip": "ym2612"
    },
    {
      "channel": 0,
      "note": 80,
      "start": 52.9256,
      "duration": 0.0001,
      "velocity": 1,
      "chip": "ym2612"
    },
    {
      "channel": 3,
      "note": 32,
      "start": 52.9296,
      "duration": 0.0078,
      "velocity": 107,
      "chip": "ym2612"
    },
    {
      "channel": 4,
      "note": 58,
      "start": 52.9324,
      "duration": 0.0093,
      "velocity": 127,
      "chip": "ym2612"
    },
    {
      "channel": 0,
      "note": 92,
      "start": 52.9544,
      "duration": 0.0001,
      "velocity": 1,
      "chip": "ym2612"
    },
    {
      "channel": 4,
      "note": 58,
      "start": 52.9587,
      "duration": 0.0075,
      "velocity": 127,
      "chip": "ym2612"
    },
    {
      "channel": 0,
      "note": 92,
      "start": 52.9807,
      "duration": 0.0001,
      "velocity": 1,
      "chip": "ym2612"
    },
    {
      "channel": 3,
      "note": 44,
      "start": 52.9846,
      "duration": 0.0115,
      "velocity": 79,
      "chip": "ym2612"
    },
    {
      "channel": 4,
      "note": 58,
      "start": 52.9873,
      "duration": 0.0336,
      "velocity": 127,
      "chip": "ym2612"
    },
    {
      "channel": 0,
      "note": 92,
      "start": 53.01,
      "duration": 0.0001,
      "velocity": 1,
      "chip": "ym2612"
    },
    {
      "channel": 0,
      "note": 92,
      "start": 53.0347,
      "duration": 0.0001,
      "velocity": 1,
      "chip": "ym2612"
    },
    {
      "channel": 3,
      "note": 56,
      "start": 53.0387,
      "duration": 0.0078,
      "velocity": 107,
      "chip": "ym2612"
    },
    {
      "channel": 4,
      "note": 58,
      "start": 53.0415,
      "duration": 0.0093,
      "velocity": 127,
      "chip": "ym2612"
    },
    {
      "channel": 3,
      "note": 42,
      "start": 53.065,
      "duration": 0.0064,
      "velocity": 107,
      "chip": "ym2612"
    },
    {
      "channel": 4,
      "note": 58,
      "start": 53.0677,
      "duration": 0.0078,
      "velocity": 127,
      "chip": "ym2612"
    },
    {
      "channel": 0,
      "note": 80,
      "start": 53.0891,
      "duration": 0.0001,
      "velocity": 1,
      "chip": "ym2612"
    },
    {
      "channel": 3,
      "note": 42,
      "start": 53.0931,
      "duration": 0.0078,
      "velocity": 107,
      "chip": "ym2612"
    },
    {
      "channel": 4,
      "note": 58,
      "start": 53.0959,
      "duration": 0.0339,
      "velocity": 127,
      "chip": "ym2612"
    },
    {
      "channel": 0,
      "note": 92,
      "start": 53.1177,
      "duration": 0.0001,
      "velocity": 1,
      "chip": "ym2612"
    },
    {
      "channel": 3,
      "note": 44,
      "start": 53.1217,
      "duration": 0.0038,
      "velocity": 107,
      "chip": "ym2612"
    },
    {
      "channel": 0,
      "note": 92,
      "start": 53.1442,
      "duration": 0.0001,
      "velocity": 1,
      "chip": "ym2612"
    },
    {
      "channel": 3,
      "note": 44,
      "start": 53.1482,
      "duration": 0.0078,
      "velocity": 107,
      "chip": "ym2612"
    },
    {
      "channel": 4,
      "note": 58,
      "start": 53.151,
      "duration": 0.0094,
      "velocity": 127,
      "chip": "ym2612"
    },
    {
      "channel": 4,
      "note": 58,
      "start": 53.1746,
      "duration": 0.0067,
      "velocity": 127,
      "chip": "ym2612"
    },
    {
      "channel": 0,
      "note": 80,
      "start": 53.1965,
      "duration": 0.0001,
      "velocity": 1,
      "chip": "ym2612"
    },
    {
      "channel": 3,
      "note": 35,
      "start": 53.1998,
      "duration": 0.0071,
      "velocity": 107,
      "chip": "ym2612"
    },
    {
      "channel": 4,
      "note": 58,
      "start": 53.2025,
      "duration": 0.031,
      "velocity": 127,
      "chip": "ym2612"
    },
    {
      "channel": 0,
      "note": 92,
      "start": 53.2223,
      "duration": 0.0001,
      "velocity": 1,
      "chip": "ym2612"
    },
    {
      "channel": 3,
      "note": 37,
      "start": 53.2256,
      "duration": 0.0046,
      "velocity": 107,
      "chip": "ym2612"
    },
    {
      "channel": 0,
      "note": 83,
      "start": 53.2458,
      "duration": 0.0001,
      "velocity": 1,
      "chip": "ym2612"
    },
    {
      "channel": 3,
      "note": 37,
      "start": 53.249,
      "duration": 0.0105,
      "velocity": 79,
      "chip": "ym2612"
    },
    {
      "channel": 4,
      "note": 58,
      "start": 53.2518,
      "duration": 0.0083,
      "velocity": 127,
      "chip": "ym2612"
    },
    {
      "channel": 4,
      "note": 58,
      "start": 53.2718,
      "duration": 0.0059,
      "velocity": 127,
      "chip": "ym2612"
    },
    {
      "channel": 0,
      "note": 71,
      "start": 53.2907,
      "duration": 0.0001,
      "velocity": 1,
      "chip": "ym2612"
    },
    {
      "channel": 3,
      "note": 56,
      "start": 53.2941,
      "duration": 0.0079,
      "velocity": 107,
      "chip": "ym2612"
    },
    {
      "channel": 4,
      "note": 58,
      "start": 53.2968,
      "duration": 0.0277,
      "velocity": 127,
      "chip": "ym2612"
    },
    {
      "channel": 3,
      "note": 32,
      "start": 53.3164,
      "duration": 0.0046,
      "velocity": 107,
      "chip": "ym2612"
    },
    {
      "channel": 0,
      "note": 71,
      "start": 53.3372,
      "duration": 0.0001,
      "velocity": 1,
      "chip": "ym2612"
    },
    {
      "channel": 3,
      "note": 32,
      "start": 53.3406,
      "duration": 0.0071,
      "velocity": 107,
      "chip": "ym2612"
    },
    {
      "channel": 4,
      "note": 58,
      "start": 53.3433,
      "duration": 0.0076,
      "velocity": 127,
      "chip": "ym2612"
    },
    {
      "channel": 0,
      "note": 83,
      "start": 53.3614,
      "duration": 0.0001,
      "velocity": 1,
      "chip": "ym2612"
    },
    {
      "channel": 4,
      "note": 58,
      "start": 53.365,
      "duration": 0.0058,
      "velocity": 127,
      "chip": "ym2612"
    },
    {
      "channel": 0,
      "note": 83,
      "start": 53.3847,
      "duration": 0.0001,
      "velocity": 1,
      "chip": "ym2612"
    },
    {
      "channel": 3,
      "note": 44,
      "start": 53.3879,
      "duration": 0.0096,
      "velocity": 79,
      "chip": "ym2612"
    },
    {
      "channel": 4,
      "note": 58,
      "start": 53.3907,
      "duration": 0.0213,
      "velocity": 127,
      "chip": "ym2612"
    },
    {
      "channel": 0,
      "note": 71,
      "start": 53.4239,
      "duration": 0.0001,
      "velocity": 1,
      "chip": "ym2612"
    },
    {
      "channel": 3,
      "note": 56,
      "start": 53.4272,
      "duration": 0.007,
      "velocity": 107,
      "chip": "ym2612"
    },
    {
      "channel": 4,
      "note": 58,
      "start": 53.43,
      "duration": 0.0075,
      "velocity": 127,
      "chip": "ym2612"
    },
    {
      "channel": 3,
      "note": 42,
      "start": 53.4507,
      "duration": 0.0072,
      "velocity": 107,
      "chip": "ym2612"
    },
    {
      "channel": 4,
      "note": 58,
      "start": 53.4534,
      "duration": 0.0078,
      "velocity": 127,
      "chip": "ym2612"
    },
    {
      "channel": 0,
      "note": 71,
      "start": 53.4734,
      "duration": 0.0001,
      "velocity": 1,
      "chip": "ym2612"
    },
    {
      "channel": 3,
      "note": 42,
      "start": 53.4768,
      "duration": 0.0079,
      "velocity": 107,
      "chip": "ym2612"
    },
    {
      "channel": 4,
      "note": 58,
      "start": 53.4795,
      "duration": 0.0284,
      "velocity": 127,
      "chip": "ym2612"
    },
    {
      "channel": 0,
      "note": 83,
      "start": 53.4982,
      "duration": 0.0001,
      "velocity": 1,
      "chip": "ym2612"
    },
    {
      "channel": 3,
      "note": 44,
      "start": 53.5015,
      "duration": 0.003,
      "velocity": 107,
      "chip": "ym2612"
    },
    {
      "channel": 3,
      "note": 44,
      "start": 53.5214,
      "duration": 0.0072,
      "velocity": 107,
      "chip": "ym2612"
    },
    {
      "channel": 4,
      "note": 58,
      "start": 53.5241,
      "duration": 0.0078,
      "velocity": 127,
      "chip": "ym2612"
    },
    {
      "channel": 0,
      "note": 71,
      "start": 53.5425,
      "duration": 0.0001,
      "velocity": 1,
      "chip": "ym2612"
    },
    {
      "channel": 4,
      "note": 58,
      "start": 53.5461,
      "duration": 0.0057,
      "velocity": 127,
      "chip": "ym2612"
    },
    {
      "channel": 0,
      "note": 83,
      "start": 53.5658,
      "duration": 0.0001,
      "velocity": 1,
      "chip": "ym2612"
    },
    {
      "channel": 3,
      "note": 35,
      "start": 53.569,
      "duration": 0.0096,
      "velocity": 79,
      "chip": "ym2612"
    },
    {
      "channel": 4,
      "note": 58,
      "start": 53.5717,
      "duration": 0.0275,
      "velocity": 127,
      "chip": "ym2612"
    },
    {
      "channel": 0,
      "note": 83,
      "start": 53.5898,
      "duration": 0.0001,
      "velocity": 1,
      "chip": "ym2612"
    },
    {
      "channel": 3,
      "note": 56,
      "start": 53.593,
      "duration": 0.0056,
      "velocity": 79,
      "chip": "ym2612"
    },
    {
      "channel": 0,
      "note": 83,
      "start": 53.6112,
      "duration": 0.0001,
      "velocity": 1,
      "chip": "ym2612"
    },
    {
      "channel": 3,
      "note": 56,
      "start": 53.6144,
      "duration": 0.0096,
      "velocity": 79,
      "chip": "ym2612"
    },
    {
      "channel": 4,
      "note": 58,
      "start": 53.6172,
      "duration": 0.0075,
      "velocity": 127,
      "chip": "ym2612"
    },
    {
      "channel": 4,
      "note": 58,
      "start": 53.6366,
      "duration": 0.0058,
      "velocity": 127,
      "chip": "ym2612"
    },
    {
      "channel": 0,
      "note": 71,
      "start": 53.6553,
      "duration": 0.0001,
      "velocity": 1,
      "chip": "ym2612"
    },
    {
      "channel": 3,
      "note": 56,
      "start": 53.6586,
      "duration": 0.0079,
      "velocity": 107,
      "chip": "ym2612"
    },
    {
      "channel": 4,
      "note": 58,
      "start": 53.6613,
      "duration": 0.0276,
      "velocity": 127,
      "chip": "ym2612"
    },
    {
      "channel": 3,
      "note": 32,
      "start": 53.6809,
      "duration": 0.0046,
      "velocity": 107,
      "chip": "ym2612"
    },
    {
      "channel": 0,
      "note": 71,
      "start": 53.7017,
      "duration": 0.0001,
      "velocity": 1,
      "chip": "ym2612"
    },
    {
      "channel": 3,
      "note": 32,
      "start": 53.705,
      "duration": 0.0071,
      "velocity": 107,
      "chip": "ym2612"
    },
    {
      "channel": 4,
      "note": 58,
      "start": 53.7078,
      "duration": 0.0076,
      "velocity": 127,
      "chip": "ym2612"
    },
    {
      "channel": 0,
      "note": 83,
      "start": 53.7259,
      "duration": 0.0001,
      "velocity": 1,
      "chip": "ym2612"
    },
    {
      "channel": 4,
      "note": 58,
      "start": 53.7295,
      "duration": 0.0059,
      "velocity": 127,
      "chip": "ym2612"
    },
    {
      "channel": 0,
      "note": 83,
      "start": 53.7493,
      "duration": 0.0001,
      "velocity": 1,
      "chip": "ym2612"
    },
    {
      "channel": 3,
      "note": 44,
      "start": 53.7524,
      "duration": 0.0096,
      "velocity": 79,
      "chip": "ym2612"
    },
    {
      "channel": 4,
      "note": 58,
      "start": 53.7552,
      "duration": 0.0213,
      "velocity": 127,
      "chip": "ym2612"
    },
    {
      "channel": 0,
      "note": 71,
      "start": 53.7885,
      "duration": 0.0001,
      "velocity": 1,
      "chip": "ym2612"
    },
    {
      "channel": 3,
      "note": 56,
      "start": 53.7918,
      "duration": 0.0079,
      "velocity": 107,
      "chip": "ym2612"
    },
    {
      "channel": 4,
      "note": 58,
      "start": 53.7945,
      "duration": 0.0085,
      "velocity": 127,
      "chip": "ym2612"
    },
    {
      "channel": 3,
      "note": 42,
      "start": 53.8145,
      "duration": 0.0058,
      "velocity": 107,
      "chip": "ym2612"
    },
    {
      "channel": 4,
      "note": 58,
      "start": 53.8173,
      "duration": 0.0063,
      "velocity": 127,
      "chip": "ym2612"
    },
    {
      "channel": 0,
      "note": 71,
      "start": 53.8361,
      "duration": 0.0001,
      "velocity": 1,
      "chip": "ym2612"
    },
    {
      "channel": 3,
      "note": 42,
      "start": 53.8395,
      "duration": 0.0071,
      "velocity": 107,
      "chip": "ym2612"
    },
    {
      "channel": 4,
      "note": 58,
      "start": 53.8422,
      "duration": 0.0241,
      "velocity": 127,
      "chip": "ym2612"
    },
    {
      "channel": 0,
      "note": 83,
      "start": 53.8594,
      "duration": 0.0003,
      "velocity": 1,
      "chip": "ym2612"
    },
    {
      "channel": 0,
      "note": 83,
      "start": 53.8784,
      "duration": 0.0001,
      "velocity": 1,
      "chip": "ym2612"
    },
    {
      "channel": 3,
      "note": 44,
      "start": 53.8817,
      "duration": 0.0071,
      "velocity": 107,
      "chip": "ym2612"
    },
    {
      "channel": 4,
      "note": 58,
      "start": 53.8844,
      "duration": 0.0076,
      "velocity": 127,
      "chip": "ym2612"
    },
    {
      "channel": 3,
      "note": 35,
      "start": 53.9036,
      "duration": 0.0058,
      "velocity": 107,
      "chip": "ym2612"
    },
    {
      "channel": 4,
      "note": 58,
      "start": 53.9063,
      "duration": 0.0063,
      "velocity": 127,
      "chip": "ym2612"
    },
    {
      "channel": 0,
      "note": 71,
      "start": 53.9263,
      "duration": 0.0001,
      "velocity": 1,
      "chip": "ym2612"
    },
    {
      "channel": 3,
      "note": 35,
      "start": 53.9297,
      "duration": 0.0071,
      "velocity": 107,
      "chip": "ym2612"
    },
    {
      "channel": 4,
      "note": 58,
      "start": 53.9324,
      "duration": 0.0307,
      "velocity": 127,
      "chip": "ym2612"
    },
    {
      "channel": 0,
      "note": 83,
      "start": 53.9521,
      "duration": 0.0001,
      "velocity": 1,
      "chip": "ym2612"
    },
    {
      "channel": 3,
      "note": 37,
      "start": 53.9553,
      "duration": 0.0072,
      "velocity": 79,
      "chip": "ym2612"
    },
    {
      "channel": 0,
      "note": 87,
      "start": 53.9785,
      "duration": 0.0362,
      "velocity": 95,
      "chip": "ym2612"
    },
    {
      "channel": 2,
      "note": 44,
      "start": 53.9812,
      "duration": 0.0001,
      "velocity": 1,
      "chip": "ym2612"
    },
    {
      "channel": 4,
      "note": 58,
      "start": 53.9847,
      "duration": 0.009,
      "velocity": 127,
      "chip": "ym2612"
    },
    {
      "channel": 1,
      "note": 44,
      "start": 54.0064,
      "duration": 0.0356,
      "velocity": 95,
      "chip": "ym2612"
    },
    {
      "channel": 2,
      "note": 87,
      "start": 54.0091,
      "duration": 0.0001,
      "velocity": 1,
      "chip": "ym2612"
    },
    {
      "channel": 4,
      "note": 58,
      "start": 54.0126,
      "duration": 0.0079,
      "velocity": 127,
      "chip": "ym2612"
    },
    {
      "channel": 0,
      "note": 75,
      "start": 54.0339,
      "duration": 0.0363,
      "velocity": 95,
      "chip": "ym2612"
    },
    {
      "channel": 4,
      "note": 58,
      "start": 54.0381,
      "duration": 0.0379,
      "velocity": 127,
      "chip": "ym2612"
    },
    {
      "channel": 1,
      "note": 75,
      "start": 54.0622,
      "duration": 0.039,
      "velocity": 95,
      "chip": "ym2612"
    },
    {
      "channel": 2,
      "note": 75,
      "start": 54.0649,
      "duration": 0.0001,
      "velocity": 1,
      "chip": "ym2612"
    },
    {
      "channel": 0,
      "note": 71,
      "start": 54.0906,
      "duration": 0.0351,
      "velocity": 95,
      "chip": "ym2612"
    },
    {
      "channel": 2,
      "note": 87,
      "start": 54.0938,
      "duration": 0.0001,
      "velocity": 1,
      "chip": "ym2612"
    },
    {
      "channel": 4,
      "note": 58,
      "start": 54.0973,
      "duration": 0.0095,
      "velocity": 127,
      "chip": "ym2612"
    },
    {
      "channel": 1,
      "note": 71,
      "start": 54.12,
      "duration": 0.0364,
      "velocity": 95,
      "chip": "ym2612"
    },
    {
      "channel": 4,
      "note": 58,
      "start": 54.1238,
      "duration": 0.0078,
      "velocity": 127,
      "chip": "ym2612"
    },
    {
      "channel": 0,
      "note": 68,
      "start": 54.1457,
      "duration": 0.0349,
      "velocity": 95,
      "chip": "ym2612"
    },
    {
      "channel": 2,
      "note": 75,
      "start": 54.1489,
      "duration": 0.0001,
      "velocity": 1,
      "chip": "ym2612"
    },
    {
      "channel": 4,
      "note": 58,
      "start": 54.1524,
      "duration": 0.0341,
      "velocity": 127,
      "chip": "ym2612"
    },
    {
      "channel": 1,
      "note": 68,
      "start": 54.1749,
      "duration": 0.0317,
      "velocity": 95,
      "chip": "ym2612"
    },
    {
      "channel": 2,
      "note": 87,
      "start": 54.1776,
      "duration": 0.0001,
      "velocity": 1,
      "chip": "ym2612"
    },
    {
      "channel": 4,
      "note": 58,
      "start": 54.2026,
      "duration": 0.0094,
      "velocity": 127,
      "chip": "ym2612"
    },
    {
      "channel": 2,
      "note": 75,
      "start": 54.2286,
      "duration": 0.0001,
      "velocity": 1,
      "chip": "ym2612"
    },
    {
      "channel": 4,
      "note": 58,
      "start": 54.2322,
      "duration": 0.0091,
      "velocity": 127,
      "chip": "ym2612"
    },
    {
      "channel": 0,
      "note": 74,
      "start": 54.2554,
      "duration": 0.0319,
      "velocity": 95,
      "chip": "ym2612"
    },
    {
      "channel": 2,
      "note": 87,
      "start": 54.2585,
      "duration": 0.0001,
      "velocity": 1,
      "chip": "ym2612"
    },
    {
      "channel": 4,
      "note": 58,
      "start": 54.262,
      "duration": 0.0311,
      "velocity": 127,
      "chip": "ym2612"
    },
    {
      "channel": 1,
      "note": 74,
      "start": 54.2839,
      "duration": 0.034,
      "velocity": 95,
      "chip": "ym2612"
    },
    {
      "channel": 0,
      "note": 71,
      "start": 54.3073,
      "duration": 0.0365,
      "velocity": 95,
      "chip": "ym2612"
    },
    {
      "channel": 2,
      "note": 75,
      "start": 54.3104,
      "duration": 0.0001,
      "velocity": 1,
      "chip": "ym2612"
    },
    {
      "channel": 4,
      "note": 58,
      "start": 54.3139,
      "duration": 0.0095,
      "velocity": 127,
      "chip": "ym2612"
    },
    {
      "channel": 1,
      "note": 71,
      "start": 54.3359,
      "duration": 0.0361,
      "velocity": 95,
      "chip": "ym2612"
    },
    {
      "channel": 2,
      "note": 87,
      "start": 54.3386,
      "duration": 0.0001,
      "velocity": 1,
      "chip": "ym2612"
    },
    {
      "channel": 4,
      "note": 58,
      "start": 54.3418,
      "duration": 0.0072,
      "velocity": 127,
      "chip": "ym2612"
    },
    {
      "channel": 0,
      "note": 68,
      "start": 54.3618,
      "duration": 0.0295,
      "velocity": 95,
      "chip": "ym2612"
    },
    {
      "channel": 2,
      "note": 87,
      "start": 54.3649,
      "duration": 0.0001,
      "velocity": 1,
      "chip": "ym2612"
    },
    {
      "channel": 4,
      "note": 58,
      "start": 54.3681,
      "duration": 0.0284,
      "velocity": 127,
      "chip": "ym2612"
    },
    {
      "channel": 1,
      "note": 68,
      "start": 54.3884,
      "duration": 0.0312,
      "velocity": 95,
      "chip": "ym2612"
    },
    {
      "channel": 0,
      "note": 71,
      "start": 54.4094,
      "duration": 0.0326,
      "velocity": 95,
      "chip": "ym2612"
    },
    {
      "channel": 2,
      "note": 75,
      "start": 54.4125,
      "duration": 0.0001,
      "velocity": 1,
      "chip": "ym2612"
    },
    {
      "channel": 4,
      "note": 58,
      "start": 54.4157,
      "duration": 0.0086,
      "velocity": 127,
      "chip": "ym2612"
    },
    {
      "channel": 1,
      "note": 71,
      "start": 54.4364,
      "duration": 0.0355,
      "velocity": 95,
      "chip": "ym2612"
    },
    {
      "channel": 4,
      "note": 58,
      "start": 54.4399,
      "duration": 0.0072,
      "velocity": 127,
      "chip": "ym2612"
    },
    {
      "channel": 0,
      "note": 76,
      "start": 54.4609,
      "duration": 0.0337,
      "velocity": 95,
      "chip": "ym2612"
    },
    {
      "channel": 2,
      "note": 75,
      "start": 54.464,
      "duration": 0.0001,
      "velocity": 1,
      "chip": "ym2612"
    },
    {
      "channel": 4,
      "note": 58,
      "start": 54.4672,
      "duration": 0.0326,
      "velocity": 127,
      "chip": "ym2612"
    },
    {
      "channel": 1,
      "note": 76,
      "start": 54.4894,
      "duration": 0.0363,
      "velocity": 95,
      "chip": "ym2612"
    },
    {
      "channel": 0,
      "note": 78,
      "start": 54.5154,
      "duration": 0.0356,
      "velocity": 95,
      "chip": "ym2612"
    },
    {
      "channel": 2,
      "note": 75,
      "start": 54.5185,
      "duration": 0.0001,
      "velocity": 1,
      "chip": "ym2612"
    },
    {
      "channel": 4,
      "note": 58,
      "start": 54.5217,
      "duration": 0.0087,
      "velocity": 127,
      "chip": "ym2612"
    },
    {
      "channel": 1,
      "note": 78,
      "start": 54.5431,
      "duration": 0.0345,
      "velocity": 95,
      "chip": "ym2612"
    },
    {
      "channel": 2,
      "note": 87,
      "start": 54.5458,
      "duration": 0.0001,
      "velocity": 1,
      "chip": "ym2612"
    },
    {
      "channel": 4,
      "note": 58,
      "start": 54.5489,
      "duration": 0.0072,
      "velocity": 127,
      "chip": "ym2612"
    },
    {
      "channel": 0,
      "note": 71,
      "start": 54.5697,
      "duration": 0.0343,
      "velocity": 95,
      "chip": "ym2612"
    },
    {
      "channel": 4,
      "note": 58,
      "start": 54.5736,
      "duration": 0.0356,
      "velocity": 127,
      "chip": "ym2612"
    },
    {
      "channel": 1,
      "note": 71,
      "start": 54.5971,
      "duration": 0.0297,
      "velocity": 95,
      "chip": "ym2612"
    },
    {
      "channel": 2,
      "note": 75,
      "start": 54.5998,
      "duration": 0.0001,
      "velocity": 1,
      "chip": "ym2612"
    },
    {
      "channel": 4,
      "note": 58,
      "start": 54.6229,
      "duration": 0.0086,
      "velocity": 127,
      "chip": "ym2612"
    },
    {
      "channel": 2,
      "note": 75,
      "start": 54.6448,
      "duration": 0.0001,
      "velocity": 1,
      "chip": "ym2612"
    },
    {
      "channel": 4,
      "note": 58,
      "start": 54.648,
      "duration": 0.0065,
      "velocity": 127,
      "chip": "ym2612"
    },
    {
      "channel": 0,
      "note": 72,
      "start": 54.6696,
      "duration": 0.0322,
      "velocity": 95,
      "chip": "ym2612"
    },
    {
      "channel": 2,
      "note": 87,
      "start": 54.6727,
      "duration": 0.0001,
      "velocity": 1,
      "chip": "ym2612"
    },
    {
      "channel": 4,
      "note": 58,
      "start": 54.6759,
      "duration": 0.031,
      "velocity": 127,
      "chip": "ym2612"
    },
    {
      "channel": 1,
      "note": 72,
      "start": 54.6965,
      "duration": 0.0353,
      "velocity": 95,
      "chip": "ym2612"
    },
    {
      "channel": 2,
      "note": 87,
      "start": 54.6992,
      "duration": 0.0001,
      "velocity": 1,
      "chip": "ym2612"
    },
    {
      "channel": 0,
      "note": 75,
      "start": 54.7216,
      "duration": 0.0328,
      "velocity": 95,
      "chip": "ym2612"
    },
    {
      "channel": 2,
      "note": 87,
      "start": 54.7247,
      "duration": 0.0001,
      "velocity": 1,
      "chip": "ym2612"
    },
    {
      "channel": 4,
      "note": 58,
      "start": 54.7279,
      "duration": 0.0088,
      "velocity": 127,
      "chip": "ym2612"
    },
    {
      "channel": 1,
      "note": 75,
      "start": 54.7489,
      "duration": 0.0329,
      "velocity": 95,
      "chip": "ym2612"
    },
    {
      "channel": 4,
      "note": 58,
      "start": 54.7524,
      "duration": 0.0072,
      "velocity": 127,
      "chip": "ym2612"
    },
    {
      "channel": 2,
      "note": 75,
      "start": 54.7747,
      "duration": 0.0001,
      "velocity": 1,
      "chip": "ym2612"
    },
    {
      "channel": 4,
      "note": 58,
      "start": 54.7778,
      "duration": 0.0323,
      "velocity": 127,
      "chip": "ym2612"
    },
    {
      "channel": 2,
      "note": 87,
      "start": 54.8014,
      "duration": 0.0001,
      "velocity": 1,
      "chip": "ym2612"
    },
    {
      "channel": 0,
      "note": 75,
      "start": 54.8247,
      "duration": 0.0332,
      "velocity": 95,
      "chip": "ym2612"
    },
    {
      "channel": 2,
      "note": 87,
      "start": 54.8278,
      "duration": 0.0001,
      "velocity": 1,
      "chip": "ym2612"
    },
    {
      "channel": 4,
      "note": 58,
      "start": 54.831,
      "duration": 0.0091,
      "velocity": 127,
      "chip": "ym2612"
    },
    {
      "channel": 1,
      "note": 75,
      "start": 54.8525,
      "duration": 0.0358,
      "velocity": 95,
      "chip": "ym2612"
    },
    {
      "channel": 4,
      "note": 58,
      "start": 54.8559,
      "duration": 0.0072,
      "velocity": 127,
      "chip": "ym2612"
    },
    {
      "channel": 0,
      "note": 75,
      "start": 54.8771,
      "duration": 0.0338,
      "velocity": 95,
      "chip": "ym2612"
    },
    {
      "channel": 2,
      "note": 75,
      "start": 54.8803,
      "duration": 0.0001,
      "velocity": 1,
      "chip": "ym2612"
    },
    {
      "channel": 4,
      "note": 58,
      "start": 54.8834,
      "duration": 0.0327,
      "velocity": 127,
      "chip": "ym2612"
    },
    {
      "channel": 1,
      "note": 75,
      "start": 54.9057,
      "duration": 0.0361,
      "velocity": 95,
      "chip": "ym2612"
    },
    {
      "channel": 0,
      "note": 71,
      "start": 54.9316,
      "duration": 0.0354,
      "velocity": 95,
      "chip": "ym2612"
    },
    {
      "channel": 2,
      "note": 75,
      "start": 54.9348,
      "duration": 0.0001,
      "velocity": 1,
      "chip": "ym2612"
    },
    {
      "channel": 4,
      "note": 58,
      "start": 54.9379,
      "duration": 0.0088,
      "velocity": 127,
      "chip": "ym2612"
    },
    {
      "channel": 1,
      "note": 71,
      "start": 54.9592,
      "duration": 0.0371,
      "velocity": 95,
      "chip": "ym2612"
    },
    {
      "channel": 2,
      "note": 87,
      "start": 54.9619,
      "duration": 0.0001,
      "velocity": 1,
      "chip": "ym2612"
    },
    {
      "channel": 4,
      "note": 58,
      "start": 54.965,
      "duration": 0.0072,
      "velocity": 127,
      "chip": "ym2612"
    },
    {
      "channel": 0,
      "note": 68,
      "start": 54.9861,
      "duration": 0.0323,
      "velocity": 95,
      "chip": "ym2612"
    },
    {
      "channel": 2,
      "note": 87,
      "start": 54.9892,
      "duration": 0.0001,
      "velocity": 1,
      "chip": "ym2612"
    },
    {
      "channel": 4,
      "note": 58,
      "start": 54.9924,
      "duration": 0.0312,
      "velocity": 127,
      "chip": "ym2612"
    },
    {
      "channel": 1,
      "note": 68,
      "start": 55.0131,
      "duration": 0.0302,
      "velocity": 95,
      "chip": "ym2612"
    },
    {
      "channel": 2,
      "note": 87,
      "start": 55.0158,
      "duration": 0.0001,
      "velocity": 1,
      "chip": "ym2612"
    },
    {
      "channel": 4,
      "note": 58,
      "start": 55.0394,
      "duration": 0.0086,
      "velocity": 127,
      "chip": "ym2612"
    },
    {
      "channel": 2,
      "note": 75,
      "start": 55.0633,
      "duration": 0.0001,
      "velocity": 1,
      "chip": "ym2612"
    },
    {
      "channel": 4,
      "note": 58,
      "start": 55.0664,
      "duration": 0.0081,
      "velocity": 127,
      "chip": "ym2612"
    },
    {
      "channel": 0,
      "note": 74,
      "start": 55.089,
      "duration": 0.0328,
      "velocity": 95,
      "chip": "ym2612"
    },
    {
      "channel": 2,
      "note": 87,
      "start": 55.0921,
      "duration": 0.0001,
      "velocity": 1,
      "chip": "ym2612"
    },
    {
      "channel": 4,
      "note": 58,
      "start": 55.0953,
      "duration": 0.0317,
      "velocity": 127,
      "chip": "ym2612"
    },
    {
      "channel": 1,
      "note": 74,
      "start": 55.1165,
      "duration": 0.0322,
      "velocity": 95,
      "chip": "ym2612"
    },
    {
      "channel": 2,
      "note": 87,
      "start": 55.1192,
      "duration": 0.0001,
      "velocity": 1,
      "chip": "ym2612"
    },
    {
      "channel": 0,
      "note": 71,
      "start": 55.1409,
      "duration": 0.0331,
      "velocity": 95,
      "chip": "ym2612"
    },
    {
      "channel": 4,
      "note": 58,
      "start": 55.1448,
      "duration": 0.0086,
      "velocity": 127,
      "chip": "ym2612"
    },
    {
      "channel": 1,
      "note": 71,
      "start": 55.1662,
      "duration": 0.0321,
      "velocity": 95,
      "chip": "ym2612"
    },
    {
      "channel": 2,
      "note": 75,
      "start": 55.1689,
      "duration": 0.0001,
      "velocity": 1,
      "chip": "ym2612"
    },
    {
      "channel": 4,
      "note": 58,
      "start": 55.172,
      "duration": 0.0072,
      "velocity": 127,
      "chip": "ym2612"
    },
    {
      "channel": 4,
      "note": 58,
      "start": 55.1944,
      "duration": 0.0285,
      "velocity": 127,
      "chip": "ym2612"
    },
    {
      "channel": 2,
      "note": 75,
      "start": 55.2155,
      "duration": 0.0001,
      "velocity": 1,
      "chip": "ym2612"
    },
    {
      "channel": 0,
      "note": 67,
      "start": 55.2371,
      "duration": 0.0329,
      "velocity": 95,
      "chip": "ym2612"
    },
    {
      "channel": 2,
      "note": 85,
      "start": 55.2402,
      "duration": 0.0001,
      "velocity": 1,
      "chip": "ym2612"
    },
    {
      "channel": 4,
      "note": 58,
      "start": 55.2434,
      "duration": 0.0091,
      "velocity": 127,
      "chip": "ym2612"
    },
    {
      "channel": 1,
      "note": 67,
      "start": 55.2646,
      "duration": 0.0334,
      "velocity": 95,
      "chip": "ym2612"
    },
    {
      "channel": 4,
      "note": 58,
      "start": 55.268,
      "duration": 0.0072,
      "velocity": 127,
      "chip": "ym2612"
    },
    {
      "channel": 2,
      "note": 73,
      "start": 55.29,
      "duration": 0.0001,
      "velocity": 1,
      "chip": "ym2612"
    },
    {
      "channel": 4,
      "note": 58,
      "start": 55.2932,
      "duration": 0.0299,
      "velocity": 127,
      "chip": "ym2612"
    },
    {
      "channel": 0,
      "note": 72,
      "start": 55.3384,
      "duration": 0.0347,
      "velocity": 95,
      "chip": "ym2612"
    },
    {
      "channel": 2,
      "note": 73,
      "start": 55.3415,
      "duration": 0.0001,
      "velocity": 1,
      "chip": "ym2612"
    },
    {
      "channel": 4,
      "note": 58,
      "start": 55.3446,
      "duration": 0.0082,
      "velocity": 127,
      "chip": "ym2612"
    },
    {
      "channel": 1,
      "note": 72,
      "start": 55.3653,
      "duration": 0.0325,
      "velocity": 95,
      "chip": "ym2612"
    },
    {
      "channel": 2,
      "note": 85,
      "start": 55.3679,
      "duration": 0.0001,
      "velocity": 1,
      "chip": "ym2612"
    },
    {
      "channel": 4,
      "note": 58,
      "start": 55.3711,
      "duration": 0.0072,
      "velocity": 127,
      "chip": "ym2612"
    },
    {
      "channel": 4,
      "note": 58,
      "start": 55.3939,
      "duration": 0.0281,
      "velocity": 127,
      "chip": "ym2612"
    },
    {
      "channel": 2,
      "note": 73,
      "start": 55.4147,
      "duration": 0.0001,
      "velocity": 1,
      "chip": "ym2612"
    },
    {
      "channel": 0,
      "note": 65,
      "start": 55.4363,
      "duration": 0.0328,
      "velocity": 95,
      "chip": "ym2612"
    },
    {
      "channel": 2,
      "note": 85,
      "start": 55.4394,
      "duration": 0.0001,
      "velocity": 1,
      "chip": "ym2612"
    },
    {
      "channel": 4,
      "note": 58,
      "start": 55.4426,
      "duration": 0.009,
      "velocity": 127,
      "chip": "ym2612"
    },
    {
      "channel": 1,
      "note": 65,
      "start": 55.4636,
      "duration": 0.0324,
      "velocity": 95,
      "chip": "ym2612"
    },
    {
      "channel": 4,
      "note": 58,
      "start": 55.467,
      "duration": 0.0071,
      "velocity": 127,
      "chip": "ym2612"
    },
    {
      "channel": 2,
      "note": 73,
      "start": 55.489,
      "duration": 0.0001,
      "velocity": 1,
      "chip": "ym2612"
    },
    {
      "channel": 4,
      "note": 58,
      "start": 55.4922,
      "duration": 0.0281,
      "velocity": 127,
      "chip": "ym2612"
    },
    {
      "channel": 2,
      "note": 85,
      "start": 55.5131,
      "duration": 0.0001,
      "velocity": 1,
      "chip": "ym2612"
    },
    {
      "channel": 0,
      "note": 62,
      "start": 55.5346,
      "duration": 0.0322,
      "velocity": 95,
      "chip": "ym2612"
    },
    {
      "channel": 2,
      "note": 85,
      "start": 55.5377,
      "duration": 0.0001,
      "velocity": 1,
      "chip": "ym2612"
    },
    {
      "channel": 4,
      "note": 58,
      "start": 55.5409,
      "duration": 0.0082,
      "velocity": 127,
      "chip": "ym2612"
    },
    {
      "channel": 1,
      "note": 62,
      "start": 55.5614,
      "duration": 0.0331,
      "velocity": 95,
      "chip": "ym2612"
    },
    {
      "channel": 4,
      "note": 58,
      "start": 55.5648,
      "duration": 0.0072,
      "velocity": 127,
      "chip": "ym2612"
    },
    {
      "channel": 2,
      "note": 73,
      "start": 55.5874,
      "duration": 0.0001,
      "velocity": 1,
      "chip": "ym2612"
    },
    {
      "channel": 4,
      "note": 58,
      "start": 55.5906,
      "duration": 0.0322,
      "velocity": 127,
      "chip": "ym2612"
    },
    {
      "channel": 2,
      "note": 85,
      "start": 55.6142,
      "duration": 0.0001,
      "velocity": 1,
      "chip": "ym2612"
    },
    {
      "channel": 0,
      "note": 65,
      "start": 55.6375,
      "duration": 0.0349,
      "velocity": 95,
      "chip": "ym2612"
    },
    {
      "channel": 2,
      "note": 87,
      "start": 55.6406,
      "duration": 0.0001,
      "velocity": 1,
      "chip": "ym2612"
    },
    {
      "channel": 4,
      "note": 58,
      "start": 55.6438,
      "duration": 0.0082,
      "velocity": 127,
      "chip": "ym2612"
    },
    {
      "channel": 1,
      "note": 65,
      "start": 55.6645,
      "duration": 0.0353,
      "velocity": 95,
      "chip": "ym2612"
    },
    {
      "channel": 2,
      "note": 87,
      "start": 55.6672,
      "duration": 0.0001,
      "velocity": 1,
      "chip": "ym2612"
    },
    {
      "channel": 4,
      "note": 58,
      "start": 55.6703,
      "duration": 0.0072,
      "velocity": 127,
      "chip": "ym2612"
    },
    {
      "channel": 0,
      "note": 75,
      "start": 55.691,
      "duration": 0.0338,
      "velocity": 95,
      "chip": "ym2612"
    },
    {
      "channel": 4,
      "note": 58,
      "start": 55.6949,
      "duration": 0.0352,
      "velocity": 127,
      "chip": "ym2612"
    },
    {
      "channel": 1,
      "note": 75,
      "start": 55.7172,
      "duration": 0.0386,
      "velocity": 95,
      "chip": "ym2612"
    },
    {
      "channel": 2,
      "note": 75,
      "start": 55.7199,
      "duration": 0.0001,
      "velocity": 1,
      "chip": "ym2612"
    },
    {
      "channel": 0,
      "note": 71,
      "start": 55.7454,
      "duration": 0.0327,
      "velocity": 95,
      "chip": "ym2612"
    },
    {
      "channel": 2,
      "note": 87,
      "start": 55.7486,
      "duration": 0.0001,
      "velocity": 1,
      "chip": "ym2612"
    },
    {
      "channel": 4,
      "note": 58,
      "start": 55.7517,
      "duration": 0.0088,
      "velocity": 127,
      "chip": "ym2612"
    },
    {
      "channel": 1,
      "note": 71,
      "start": 55.7728,
      "duration": 0.0352,
      "velocity": 95,
      "chip": "ym2612"
    },
    {
      "channel": 4,
      "note": 58,
      "start": 55.7762,
      "duration": 0.0071,
      "velocity": 127,
      "chip": "ym2612"
    },
    {
      "channel": 0,
      "note": 68,
      "start": 55.7977,
      "duration": 0.0325,
      "velocity": 95,
      "chip": "ym2612"
    },
    {
      "channel": 2,
      "note": 75,
      "start": 55.8008,
      "duration": 0.0001,
      "velocity": 1,
      "chip": "ym2612"
    },
    {
      "channel": 4,
      "note": 58,
      "start": 55.804,
      "duration": 0.0314,
      "velocity": 127,
      "chip": "ym2612"
    },
    {
      "channel": 1,
      "note": 68,
      "start": 55.8249,
      "duration": 0.0301,
      "velocity": 95,
      "chip": "ym2612"
    },
    {
      "channel": 2,
      "note": 87,
      "start": 55.8276,
      "duration": 0.0001,
      "velocity": 1,
      "chip": "ym2612"
    },
    {
      "channel": 4,
      "note": 58,
      "start": 55.851,
      "duration": 0.0087,
      "velocity": 127,
      "chip": "ym2612"
    },
    {
      "channel": 2,
      "note": 75,
      "start": 55.8749,
      "duration": 0.0001,
      "velocity": 1,
      "chip": "ym2612"
    },
    {
      "channel": 4,
      "note": 58,
      "start": 55.8781,
      "duration": 0.0081,
      "velocity": 127,
      "chip": "ym2612"
    },
    {
      "channel": 0,
      "note": 74,
      "start": 55.9006,
      "duration": 0.0302,
      "velocity": 95,
      "chip": "ym2612"
    },
    {
      "channel": 2,
      "note": 87,
      "start": 55.9038,
      "duration": 0.0001,
      "velocity": 1,
      "chip": "ym2612"
    },
    {
      "channel": 4,
      "note": 58,
      "start": 55.9069,
      "duration": 0.0291,
      "velocity": 127,
      "chip": "ym2612"
    },
    {
      "channel": 1,
      "note": 74,
      "start": 55.928,
      "duration": 0.032,
      "velocity": 95,
      "chip": "ym2612"
    },
    {
      "channel": 0,
      "note": 71,
      "start": 55.9498,
      "duration": 0.0354,
      "velocity": 95,
      "chip": "ym2612"
    },
    {
      "channel": 2,
      "note": 75,
      "start": 55.9529,
      "duration": 0.0001,
      "velocity": 1,
      "chip": "ym2612"
    },
    {
      "channel": 4,
      "note": 58,
      "start": 55.9561,
      "duration": 0.0088,
      "velocity": 127,
      "chip": "ym2612"
    },
    {
      "channel": 1,
      "note": 71,
      "start": 55.9773,
      "duration": 0.0371,
      "velocity": 95,
      "chip": "ym2612"
    },
    {
      "channel": 2,
      "note": 87,
      "start": 55.98,
      "duration": 0.0001,
      "velocity": 1,
      "chip": "ym2612"
    },
    {
      "channel": 4,
      "note": 58,
      "start": 55.9832,
      "duration": 0.0072,
      "velocity": 127,
      "chip": "ym2612"
    },
    {
      "channel": 0,
      "note": 68,
      "start": 56.0043,
      "duration": 0.0295,
      "velocity": 95,
      "chip": "ym2612"
    },
    {
      "channel": 2,
      "note": 87,
      "start": 56.0074,
      "duration": 0.0001,
      "velocity": 1,
      "chip": "ym2612"
    },
    {
      "channel": 4,
      "note": 58,
      "start": 56.0106,
      "duration": 0.0283,
      "velocity": 127,
      "chip": "ym2612"
    },
    {
      "channel": 1,
      "note": 68,
      "start": 56.0309,
      "duration": 0.0311,
      "velocity": 95,
      "chip": "ym2612"
    },
    {
      "channel": 0,
      "note": 71,
      "start": 56.0518,
      "duration": 0.0326,
      "velocity": 95,
      "chip": "ym2612"
    },
    {
      "channel": 2,
      "note": 75,
      "start": 56.0549,
      "duration": 0.0001,
      "velocity": 1,
      "chip": "ym2612"
    },
    {
      "channel": 4,
      "note": 58,
      "start": 56.0581,
      "duration": 0.0086,
      "velocity": 127,
      "chip": "ym2612"
    },
    {
      "channel": 1,
      "note": 71,
      "start": 56.0789,
      "duration": 0.0355,
      "velocity": 95,
      "chip": "ym2612"
    },
    {
      "channel": 4,
      "note": 58,
      "start": 56.0823,
      "duration": 0.0072,
      "velocity": 127,
      "chip": "ym2612"
    },
    {
      "channel": 0,
      "note": 76,
      "start": 56.1033,
      "duration": 0.0338,
      "velocity": 95,
      "chip": "ym2612"
    },
    {
      "channel": 2,
      "note": 75,
      "start": 56.1064,
      "duration": 0.0001,
      "velocity": 1,
      "chip": "ym2612"
    },
    {
      "channel": 4,
      "note": 58,
      "start": 56.1096,
      "duration": 0.0328,
      "velocity": 127,
      "chip": "ym2612"
    },
    {
      "channel": 1,
      "note": 76,
      "start": 56.1319,
      "duration": 0.0361,
      "velocity": 95,
      "chip": "ym2612"
    },
    {
      "channel": 0,
      "note": 78,
      "start": 56.1578,
      "duration": 0.0356,
      "velocity": 95,
      "chip": "ym2612"
    },
    {
      "channel": 2,
      "note": 75,
      "start": 56.1609,
      "duration": 0.0001,
      "velocity": 1,
      "chip": "ym2612"
    },
    {
      "channel": 4,
      "note": 58,
      "start": 56.1641,
      "duration": 0.0088,
      "velocity": 127,
      "chip": "ym2612"
    },
    {
      "channel": 1,
      "note": 78,
      "start": 56.1855,
      "duration": 0.0347,
      "velocity": 95,
      "chip": "ym2612"
    },
    {
      "channel": 2,
      "note": 87,
      "start": 56.1882,
      "duration": 0.0001,
      "velocity": 1,
      "chip": "ym2612"
    },
    {
      "channel": 4,
      "note": 58,
      "start": 56.1913,
      "duration": 0.0072,
      "velocity": 127,
      "chip": "ym2612"
    },
    {
      "channel": 0,
      "note": 71,
      "start": 56.2124,
      "duration": 0.0342,
      "velocity": 95,
      "chip": "ym2612"
    },
    {
      "channel": 4,
      "note": 58,
      "start": 56.2163,
      "duration": 0.0355,
      "velocity": 127,
      "chip": "ym2612"
    },
    {
      "channel": 1,
      "note": 71,
      "start": 56.2398,
      "duration": 0.0297,
      "velocity": 95,
      "chip": "ym2612"
    },
    {
      "channel": 2,
      "note": 75,
      "start": 56.2424,
      "duration": 0.0001,
      "velocity": 1,
      "chip": "ym2612"
    },
    {
      "channel": 4,
      "note": 58,
      "start": 56.2655,
      "duration": 0.0086,
      "velocity": 127,
      "chip": "ym2612"
    },
    {
      "channel": 2,
      "note": 75,
      "start": 56.2874,
      "duration": 0.0001,
      "velocity": 1,
      "chip": "ym2612"
    },
    {
      "channel": 4,
      "note": 58,
      "start": 56.2906,
      "duration": 0.0065,
      "velocity": 127,
      "chip": "ym2612"
    },
    {
      "channel": 0,
      "note": 72,
      "start": 56.3122,
      "duration": 0.0322,
      "velocity": 95,
      "chip": "ym2612"
    },
    {
      "channel": 2,
      "note": 87,
      "start": 56.3153,
      "duration": 0.0001,
      "velocity": 1,
      "chip": "ym2612"
    },
    {
      "channel": 4,
      "note": 58,
      "start": 56.3185,
      "duration": 0.0311,
      "velocity": 127,
      "chip": "ym2612"
    },
    {
      "channel": 1,
      "note": 72,
      "start": 56.3391,
      "duration": 0.0354,
      "velocity": 95,
      "chip": "ym2612"
    },
    {
      "channel": 2,
      "note": 87,
      "start": 56.3418,
      "duration": 0.0001,
      "velocity": 1,
      "chip": "ym2612"
    },
    {
      "channel": 0,
      "note": 75,
      "start": 56.3642,
      "duration": 0.0328,
      "velocity": 95,
      "chip": "ym2612"
    },
    {
      "channel": 2,
      "note": 87,
      "start": 56.3674,
      "duration": 0.0001,
      "velocity": 1,
      "chip": "ym2612"
    },
    {
      "channel": 4,
      "note": 58,
      "start": 56.3705,
      "duration": 0.0088,
      "velocity": 127,
      "chip": "ym2612"
    },
    {
      "channel": 1,
      "note": 75,
      "start": 56.3916,
      "duration": 0.0329,
      "velocity": 95,
      "chip": "ym2612"
    },
    {
      "channel": 4,
      "note": 58,
      "start": 56.395,
      "duration": 0.0072,
      "velocity": 127,
      "chip": "ym2612"
    },
    {
      "channel": 2,
      "note": 75,
      "start": 56.4173,
      "duration": 0.0001,
      "velocity": 1,
      "chip": "ym2612"
    },
    {
      "channel": 4,
      "note": 58,
      "start": 56.4205,
      "duration": 0.0323,
      "velocity": 127,
      "chip": "ym2612"
    },
    {
      "channel": 2,
      "note": 87,
      "start": 56.444,
      "duration": 0.0001,
      "velocity": 1,
      "chip": "ym2612"
    },
    {
      "channel": 0,
      "note": 75,
      "start": 56.4674,
      "duration": 0.0333,
      "velocity": 95,
      "chip": "ym2612"
    },
    {
      "channel": 2,
      "note": 87,
      "start": 56.4705,
      "duration": 0.0001,
      "velocity": 1,
      "chip": "ym2612"
    },
    {
      "channel": 4,
      "note": 58,
      "start": 56.4737,
      "duration": 0.0092,
      "velocity": 127,
      "chip": "ym2612"
    },
    {
      "channel": 1,
      "note": 75,
      "start": 56.4952,
      "duration": 0.0357,
      "velocity": 95,
      "chip": "ym2612"
    },
    {
      "channel": 4,
      "note": 58,
      "start": 56.4986,
      "duration": 0.0072,
      "velocity": 127,
      "chip": "ym2612"
    },
    {
      "channel": 0,
      "note": 75,
      "start": 56.5198,
      "duration": 0.0337,
      "velocity": 95,
      "chip": "ym2612"
    },
    {
      "channel": 2,
      "note": 75,
      "start": 56.5229,
      "duration": 0.0001,
      "velocity": 1,
      "chip": "ym2612"
    },
    {
      "channel": 4,
      "note": 58,
      "start": 56.5261,
      "duration": 0.0326,
      "velocity": 127,
      "chip": "ym2612"
    },
    {
      "channel": 1,
      "note": 75,
      "start": 56.5483,
      "duration": 0.0361,
      "velocity": 95,
      "chip": "ym2612"
    },
    {
      "channel": 0,
      "note": 71,
      "start": 56.5743,
      "duration": 0.0354,
      "velocity": 95,
      "chip": "ym2612"
    },
    {
      "channel": 2,
      "note": 75,
      "start": 56.5774,
      "duration": 0.0001,
      "velocity": 1,
      "chip": "ym2612"
    },
    {
      "channel": 4,
      "note": 58,
      "start": 56.5806,
      "duration": 0.0087,
      "velocity": 127,
      "chip": "ym2612"
    },
    {
      "channel": 1,
      "note": 71,
      "start": 56.6018,
      "duration": 0.0372,
      "velocity": 95,
      "chip": "ym2612"
    },
    {
      "channel": 2,
      "note": 87,
      "start": 56.6045,
      "duration": 0.0001,
      "velocity": 1,
      "chip": "ym2612"
    },
    {
      "channel": 4,
      "note": 58,
      "start": 56.6076,
      "duration": 0.0072,
      "velocity": 127,
      "chip": "ym2612"
    },
    {
      "channel": 0,
      "note": 68,
      "start": 56.6288,
      "duration": 0.0324,
      "velocity": 95,
      "chip": "ym2612"
    },
    {
      "channel": 2,
      "note": 87,
      "start": 56.632,
      "duration": 0.0001,
      "velocity": 1,
      "chip": "ym2612"
    },
    {
      "channel": 4,
      "note": 58,
      "start": 56.6351,
      "duration": 0.0312,
      "velocity": 127,
      "chip": "ym2612"
    },
    {
      "channel": 1,
      "note": 68,
      "start": 56.6559,
      "duration": 0.0302,
      "velocity": 95,
      "chip": "ym2612"
    },
    {
      "channel": 2,
      "note": 87,
      "start": 56.6586,
      "duration": 0.0001,
      "velocity": 1,
      "chip": "ym2612"
    },
    {
      "channel": 4,
      "note": 58,
      "start": 56.6822,
      "duration": 0.0086,
      "velocity": 127,
      "chip": "ym2612"
    },
    {
      "channel": 2,
      "note": 75,
      "start": 56.706,
      "duration": 0.0001,
      "velocity": 1,
      "chip": "ym2612"
    },
    {
      "channel": 4,
      "note": 58,
      "start": 56.7092,
      "duration": 0.0081,
      "velocity": 127,
      "chip": "ym2612"
    },
    {
      "channel": 0,
      "note": 74,
      "start": 56.7317,
      "duration": 0.0329,
      "velocity": 95,
      "chip": "ym2612"
    },
    {
      "channel": 2,
      "note": 87,
      "start": 56.7348,
      "duration": 0.0001,
      "velocity": 1,
      "chip": "ym2612"
    },
    {
      "channel": 4,
      "note": 58,
      "start": 56.738,
      "duration": 0.0318,
      "velocity": 127,
      "chip": "ym2612"
    },
    {
      "channel": 1,
      "note": 74,
      "start": 56.7593,
      "duration": 0.0321,
      "velocity": 95,
      "chip": "ym2612"
    },
    {
      "channel": 2,
      "note": 87,
      "start": 56.762,
      "duration": 0.0001,
      "velocity": 1,
      "chip": "ym2612"
    },
    {
      "channel": 0,
      "note": 71,
      "start": 56.7835,
      "duration": 0.0332,
      "velocity": 95,
      "chip": "ym2612"
    },
    {
      "channel": 4,
      "note": 58,
      "start": 56.7874,
      "duration": 0.0086,
      "velocity": 127,
      "chip": "ym2612"
    },
    {
      "channel": 1,
      "note": 71,
      "start": 56.8088,
      "duration": 0.0322,
      "velocity": 95,
      "chip": "ym2612"
    },
    {
      "channel": 2,
      "note": 75,
      "start": 56.8115,
      "duration": 0.0001,
      "velocity": 1,
      "chip": "ym2612"
    },
    {
      "channel": 4,
      "note": 58,
      "start": 56.8147,
      "duration": 0.0072,
      "velocity": 127,
      "chip": "ym2612"
    },
    {
      "channel": 4,
      "note": 58,
      "start": 56.8371,
      "duration": 0.0285,
      "velocity": 127,
      "chip": "ym2612"
    },
    {
      "channel": 2,
      "note": 75,
      "start": 56.8583,
      "duration": 0.0001,
      "velocity": 1,
      "chip": "ym2612"
    },
    {
      "channel": 0,
      "note": 67,
      "start": 56.8798,
      "duration": 0.0329,
      "velocity": 95,
      "chip": "ym2612"
    },
    {
      "channel": 2,
      "note": 85,
      "start": 56.883,
      "duration": 0.0001,
      "velocity": 1,
      "chip": "ym2612"
    },
    {
      "channel": 4,
      "note": 58,
      "start": 56.8861,
      "duration": 0.0091,
      "velocity": 127,
      "chip": "ym2612"
    },
    {
      "channel": 1,
      "note": 67,
      "start": 56.9073,
      "duration": 0.0334,
      "velocity": 95,
      "chip": "ym2612"
    },
    {
      "channel": 4,
      "note": 58,
      "start": 56.9107,
      "duration": 0.0072,
      "velocity": 127,
      "chip": "ym2612"
    },
    {
      "channel": 2,
      "note": 73,
      "start": 56.9328,
      "duration": 0.0001,
      "velocity": 1,
      "chip": "ym2612"
    },
    {
      "channel": 4,
      "note": 58,
      "start": 56.936,
      "duration": 0.029,
      "velocity": 127,
      "chip": "ym2612"
    },
    {
      "channel": 0,
      "note": 72,
      "start": 56.9796,
      "duration": 0.039,
      "velocity": 95,
      "chip": "ym2612"
    },
    {
      "channel": 2,
      "note": 73,
      "start": 56.9828,
      "duration": 0.0001,
      "velocity": 1,
      "chip": "ym2612"
    },
    {
      "channel": 4,
      "note": 58,
      "start": 56.9859,
      "duration": 0.0083,
      "velocity": 127,
      "chip": "ym2612"
    },
    {
      "channel": 1,
      "note": 72,
      "start": 57.0094,
      "duration": 0.0343,
      "velocity": 95,
      "chip": "ym2612"
    },
    {
      "channel": 2,
      "note": 85,
      "start": 57.012,
      "duration": 0.0001,
      "velocity": 1,
      "chip": "ym2612"
    },
    {
      "channel": 4,
      "note": 58,
      "start": 57.0152,
      "duration": 0.0087,
      "velocity": 127,
      "chip": "ym2612"
    },
    {
      "channel": 4,
      "note": 58,
      "start": 57.0398,
      "duration": 0.0323,
      "velocity": 127,
      "chip": "ym2612"
    },
    {
      "channel": 2,
      "note": 73,
      "start": 57.0633,
      "duration": 0.0001,
      "velocity": 1,
      "chip": "ym2612"
    },
    {
      "channel": 2,
      "note": 85,
      "start": 57.0875,
      "duration": 0.0001,
      "velocity": 1,
      "chip": "ym2612"
    },
    {
      "channel": 4,
      "note": 58,
      "start": 57.0906,
      "duration": 0.0091,
      "velocity": 127,
      "chip": "ym2612"
    },
    {
      "channel": 4,
      "note": 58,
      "start": 57.1138,
      "duration": 0.0084,
      "velocity": 127,
      "chip": "ym2612"
    },
    {
      "channel": 0,
      "note": 75,
      "start": 57.1368,
      "duration": 0.0364,
      "velocity": 95,
      "chip": "ym2612"
    },
    {
      "channel": 2,
      "note": 73,
      "start": 57.14,
      "duration": 0.0001,
      "velocity": 1,
      "chip": "ym2612"
    },
    {
      "channel": 4,
      "note": 58,
      "start": 57.1431,
      "duration": 0.0353,
      "velocity": 127,
      "chip": "ym2612"
    },
    {
      "channel": 1,
      "note": 75,
      "start": 57.1665,
      "duration": 0.0368,
      "velocity": 95,
      "chip": "ym2612"
    },
    {
      "channel": 2,
      "note": 85,
      "start": 57.1691,
      "duration": 0.0001,
      "velocity": 1,
      "chip": "ym2612"
    },
    {
      "channel": 0,
      "note": 76,
      "start": 57.193,
      "duration": 0.0327,
      "velocity": 95,
      "chip": "ym2612"
    },
    {
      "channel": 2,
      "note": 85,
      "start": 57.1962,
      "duration": 0.0001,
      "velocity": 1,
      "chip": "ym2612"
    },
    {
      "channel": 4,
      "note": 58,
      "start": 57.1993,
      "duration": 0.0088,
      "velocity": 127,
      "chip": "ym2612"
    },
    {
      "channel": 1,
      "note": 76,
      "start": 57.2204,
      "duration": 0.0352,
      "velocity": 95,
      "chip": "ym2612"
    },
    {
      "channel": 4,
      "note": 58,
      "start": 57.2238,
      "duration": 0.0072,
      "velocity": 127,
      "chip": "ym2612"
    },
    {
      "channel": 0,
      "note": 75,
      "start": 57.2453,
      "duration": 0.0366,
      "velocity": 95,
      "chip": "ym2612"
    },
    {
      "channel": 2,
      "note": 73,
      "start": 57.2485,
      "duration": 0.0001,
      "velocity": 1,
      "chip": "ym2612"
    },
    {
      "channel": 4,
      "note": 58,
      "start": 57.2516,
      "duration": 0.0355,
      "velocity": 127,
      "chip": "ym2612"
    },
    {
      "channel": 1,
      "note": 75,
      "start": 57.2751,
      "duration": 0.0397,
      "velocity": 95,
      "chip": "ym2612"
    },
    {
      "channel": 2,
      "note": 85,
      "start": 57.2778,
      "duration": 0.0001,
      "velocity": 1,
      "chip": "ym2612"
    },
    {
      "channel": 0,
      "note": 71,
      "start": 57.3019,
      "duration": 0.0405,
      "velocity": 95,
      "chip": "ym2612"
    },
    {
      "channel": 2,
      "note": 87,
      "start": 57.3051,
      "duration": 0.0001,
      "velocity": 1,
      "chip": "ym2612"
    },
    {
      "channel": 3,
      "note": 56,
      "start": 57.3082,
      "duration": 0.0118,
      "velocity": 79,
      "chip": "ym2612"
    },
    {
      "channel": 4,
      "note": 58,
      "start": 57.3109,
      "duration": 0.01,
      "velocity": 127,
      "chip": "ym2612"
    },
    {
      "channel": 1,
      "note": 71,
      "start": 57.3342,
      "duration": 0.0394,
      "velocity": 95,
      "chip": "ym2612"
    },
    {
      "channel": 2,
      "note": 87,
      "start": 57.3369,
      "duration": 0.0001,
      "velocity": 1,
      "chip": "ym2612"
    },
    {
      "channel": 4,
      "note": 58,
      "start": 57.3404,
      "duration": 0.008,
      "velocity": 127,
      "chip": "ym2612"
    },
    {
      "channel": 0,
      "note": 77,
      "start": 57.3621,
      "duration": 0.0427,
      "velocity": 95,
      "chip": "ym2612"
    },
    {
      "channel": 3,
      "note": 58,
      "start": 57.3661,
      "duration": 0.009,
      "velocity": 107,
      "chip": "ym2612"
    },
    {
      "channel": 4,
      "note": 58,
      "start": 57.3688,
      "duration": 0.0422,
      "velocity": 127,
      "chip": "ym2612"
    },
    {
      "channel": 1,
      "note": 77,
      "start": 57.3944,
      "duration": 0.0446,
      "velocity": 95,
      "chip": "ym2612"
    },
    {
      "channel": 2,
      "note": 75,
      "start": 57.3971,
      "duration": 0.0001,
      "velocity": 1,
      "chip": "ym2612"
    },
    {
      "channel": 3,
      "note": 34,
      "start": 57.4003,
      "duration": 0.0063,
      "velocity": 107,
      "chip": "ym2612"
    },
    {
      "channel": 0,
      "note": 73,
      "start": 57.426,
      "duration": 0.0378,
      "velocity": 95,
      "chip": "ym2612"
    },
    {
      "channel": 2,
      "note": 87,
      "start": 57.4291,
      "duration": 0.0001,
      "velocity": 1,
      "chip": "ym2612"
    },
    {
      "channel": 3,
      "note": 34,
      "start": 57.4323,
      "duration": 0.008,
      "velocity": 107,
      "chip": "ym2612"
    },
    {
      "channel": 4,
      "note": 58,
      "start": 57.4351,
      "duration": 0.0097,
      "velocity": 127,
      "chip": "ym2612"
    },
    {
      "channel": 1,
      "note": 73,
      "start": 57.4579,
      "duration": 0.0386,
      "velocity": 95,
      "chip": "ym2612"
    },
    {
      "channel": 4,
      "note": 58,
      "start": 57.4617,
      "duration": 0.0079,
      "velocity": 127,
      "chip": "ym2612"
    },
    {
      "channel": 0,
      "note": 70,
      "start": 57.4837,
      "duration": 0.0374,
      "velocity": 95,
      "chip": "ym2612"
    },
    {
      "channel": 2,
      "note": 75,
      "start": 57.4868,
      "duration": 0.0001,
      "velocity": 1,
      "chip": "ym2612"
    },
    {
      "channel": 3,
      "note": 46,
      "start": 57.4899,
      "duration": 0.0118,
      "velocity": 79,
      "chip": "ym2612"
    },
    {
      "channel": 4,
      "note": 58,
      "start": 57.4927,
      "duration": 0.0343,
      "velocity": 127,
      "chip": "ym2612"
    },
    {
      "channel": 1,
      "note": 70,
      "start": 57.5154,
      "duration": 0.0343,
      "velocity": 95,
      "chip": "ym2612"
    },
    {
      "channel": 2,
      "note": 87,
      "start": 57.5181,
      "duration": 0.0001,
      "velocity": 1,
      "chip": "ym2612"
    },
    {
      "channel": 3,
      "note": 58,
      "start": 57.543,
      "duration": 0.0081,
      "velocity": 107,
      "chip": "ym2612"
    },
    {
      "channel": 4,
      "note": 58,
      "start": 57.5458,
      "duration": 0.0097,
      "velocity": 127,
      "chip": "ym2612"
    },
    {
      "channel": 2,
      "note": 75,
      "start": 57.5721,
      "duration": 0.0001,
      "velocity": 1,
      "chip": "ym2612"
    },
    {
      "channel": 3,
      "note": 44,
      "start": 57.5753,
      "duration": 0.0079,
      "velocity": 107,
      "chip": "ym2612"
    },
    {
      "channel": 4,
      "note": 58,
      "start": 57.578,
      "duration": 0.0095,
      "velocity": 127,
      "chip": "ym2612"
    },
    {
      "channel": 0,
      "note": 76,
      "start": 57.6036,
      "duration": 0.0382,
      "velocity": 95,
      "chip": "ym2612"
    },
    {
      "channel": 2,
      "note": 87,
      "start": 57.6067,
      "duration": 0.0001,
      "velocity": 1,
      "chip": "ym2612"
    },
    {
      "channel": 3,
      "note": 44,
      "start": 57.6099,
      "duration": 0.0087,
      "velocity": 107,
      "chip": "ym2612"
    },
    {
      "channel": 4,
      "note": 58,
      "start": 57.6127,
      "duration": 0.0353,
      "velocity": 127,
      "chip": "ym2612"
    },
    {
      "channel": 1,
      "note": 76,
      "start": 57.6361,
      "duration": 0.0392,
      "velocity": 95,
      "chip": "ym2612"
    },
    {
      "channel": 3,
      "note": 46,
      "start": 57.6395,
      "duration": 0.0042,
      "velocity": 107,
      "chip": "ym2612"
    },
    {
      "channel": 0,
      "note": 73,
      "start": 57.6623,
      "duration": 0.0405,
      "velocity": 95,
      "chip": "ym2612"
    },
    {
      "channel": 2,
      "note": 75,
      "start": 57.6654,
      "duration": 0.0001,
      "velocity": 1,
      "chip": "ym2612"
    },
    {
      "channel": 3,
      "note": 46,
      "start": 57.6686,
      "duration": 0.008,
      "velocity": 107,
      "chip": "ym2612"
    },
    {
      "channel": 4,
      "note": 58,
      "start": 57.6714,
      "duration": 0.0097,
      "velocity": 127,
      "chip": "ym2612"
    },
    {
      "channel": 1,
      "note": 73,
      "start": 57.6946,
      "duration": 0.0412,
      "velocity": 95,
      "chip": "ym2612"
    },
    {
      "channel": 2,
      "note": 87,
      "start": 57.6973,
      "duration": 0.0001,
      "velocity": 1,
      "chip": "ym2612"
    },
    {
      "channel": 4,
      "note": 58,
      "start": 57.7008,
      "duration": 0.0078,
      "velocity": 127,
      "chip": "ym2612"
    },
    {
      "channel": 0,
      "note": 70,
      "start": 57.7229,
      "duration": 0.0345,
      "velocity": 95,
      "chip": "ym2612"
    },
    {
      "channel": 2,
      "note": 87,
      "start": 57.7261,
      "duration": 0.0001,
      "velocity": 1,
      "chip": "ym2612"
    },
    {
      "channel": 3,
      "note": 37,
      "start": 57.7292,
      "duration": 0.0118,
      "velocity": 79,
      "chip": "ym2612"
    },
    {
      "channel": 4,
      "note": 58,
      "start": 57.7319,
      "duration": 0.0315,
      "velocity": 127,
      "chip": "ym2612"
    },
    {
      "channel": 1,
      "note": 70,
      "start": 57.7542,
      "duration": 0.0377,
      "velocity": 95,
      "chip": "ym2612"
    },
    {
      "channel": 0,
      "note": 73,
      "start": 57.7781,
      "duration": 0.0385,
      "velocity": 95,
      "chip": "ym2612"
    },
    {
      "channel": 2,
      "note": 75,
      "start": 57.7812,
      "duration": 0.0001,
      "velocity": 1,
      "chip": "ym2612"
    },
    {
      "channel": 3,
      "note": 46,
      "start": 57.7843,
      "duration": 0.0126,
      "velocity": 79,
      "chip": "ym2612"
    },
    {
      "channel": 4,
      "note": 58,
      "start": 57.7871,
      "duration": 0.0108,
      "velocity": 127,
      "chip": "ym2612"
    },
    {
      "channel": 1,
      "note": 73,
      "start": 57.8108,
      "duration": 0.0388,
      "velocity": 95,
      "chip": "ym2612"
    },
    {
      "channel": 4,
      "note": 58,
      "start": 57.8146,
      "duration": 0.008,
      "velocity": 127,
      "chip": "ym2612"
    },
    {
      "channel": 0,
      "note": 78,
      "start": 57.8365,
      "duration": 0.0416,
      "velocity": 95,
      "chip": "ym2612"
    },
    {
      "channel": 2,
      "note": 75,
      "start": 57.8397,
      "duration": 0.0001,
      "velocity": 1,
      "chip": "ym2612"
    },
    {
      "channel": 3,
      "note": 58,
      "start": 57.8429,
      "duration": 0.008,
      "velocity": 107,
      "chip": "ym2612"
    },
    {
      "channel": 4,
      "note": 58,
      "start": 57.8456,
      "duration": 0.0388,
      "velocity": 127,
      "chip": "ym2612"
    },
    {
      "channel": 1,
      "note": 78,
      "start": 57.87,
      "duration": 0.0413,
      "velocity": 95,
      "chip": "ym2612"
    },
    {
      "channel": 3,
      "note": 34,
      "start": 57.8735,
      "duration": 0.0065,
      "velocity": 107,
      "chip": "ym2612"
    },
    {
      "channel": 0,
      "note": 80,
      "start": 57.8983,
      "duration": 0.0406,
      "velocity": 95,
      "chip": "ym2612"
    },
    {
      "channel": 2,
      "note": 75,
      "start": 57.9015,
      "duration": 0.0001,
      "velocity": 1,
      "chip": "ym2612"
    },
    {
      "channel": 3,
      "note": 34,
      "start": 57.9047,
      "duration": 0.008,
      "velocity": 107,
      "chip": "ym2612"
    },
    {
      "channel": 4,
      "note": 58,
      "start": 57.9074,
      "duration": 0.0097,
      "velocity": 127,
      "chip": "ym2612"
    },
    {
      "channel": 1,
      "note": 80,
      "start": 57.9307,
      "duration": 0.0387,
      "velocity": 95,
      "chip": "ym2612"
    },
    {
      "channel": 2,
      "note": 87,
      "start": 57.9334,
      "duration": 0.0001,
      "velocity": 1,
      "chip": "ym2612"
    },
    {
      "channel": 4,
      "note": 58,
      "start": 57.9369,
      "duration": 0.008,
      "velocity": 127,
      "chip": "ym2612"
    },
    {
      "channel": 0,
      "note": 73,
      "start": 57.9589,
      "duration": 0.0371,
      "velocity": 95,
      "chip": "ym2612"
    },
    {
      "channel": 3,
      "note": 46,
      "start": 57.9627,
      "duration": 0.0118,
      "velocity": 79,
      "chip": "ym2612"
    },
    {
      "channel": 4,
      "note": 58,
      "start": 57.9655,
      "duration": 0.0365,
      "velocity": 127,
      "chip": "ym2612"
    },
    {
      "channel": 1,
      "note": 73,
      "start": 57.9888,
      "duration": 0.0349,
      "velocity": 95,
      "chip": "ym2612"
    },
    {
      "channel": 2,
      "note": 75,
      "start": 57.9915,
      "duration": 0.0001,
      "velocity": 1,
      "chip": "ym2612"
    },
    {
      "channel": 3,
      "note": 58,
      "start": 58.017,
      "duration": 0.0082,
      "velocity": 107,
      "chip": "ym2612"
    },
    {
      "channel": 4,
      "note": 58,
      "start": 58.0198,
      "duration": 0.0097,
      "velocity": 127,
      "chip": "ym2612"
    },
    {
      "channel": 2,
      "note": 75,
      "start": 58.0437,
      "duration": 0.0001,
      "velocity": 1,
      "chip": "ym2612"
    },
    {
      "channel": 3,
      "note": 44,
      "start": 58.0469,
      "duration": 0.0063,
      "velocity": 107,
      "chip": "ym2612"
    },
    {
      "channel": 4,
      "note": 58,
      "start": 58.0497,
      "duration": 0.008,
      "velocity": 127,
      "chip": "ym2612"
    },
    {
      "channel": 0,
      "note": 74,
      "start": 58.0735,
      "duration": 0.04,
      "velocity": 95,
      "chip": "ym2612"
    },
    {
      "channel": 2,
      "note": 87,
      "start": 58.0766,
      "duration": 0.0001,
      "velocity": 1,
      "chip": "ym2612"
    },
    {
      "channel": 3,
      "note": 44,
      "start": 58.0798,
      "duration": 0.0078,
      "velocity": 107,
      "chip": "ym2612"
    },
    {
      "channel": 4,
      "note": 58,
      "start": 58.0826,
      "duration": 0.0371,
      "velocity": 127,
      "chip": "ym2612"
    },
    {
      "channel": 1,
      "note": 74,
      "start": 58.1054,
      "duration": 0.0417,
      "velocity": 95,
      "chip": "ym2612"
    },
    {
      "channel": 2,
      "note": 87,
      "start": 58.1081,
      "duration": 0.0001,
      "velocity": 1,
      "chip": "ym2612"
    },
    {
      "channel": 3,
      "note": 46,
      "start": 58.1113,
      "duration": 0.004,
      "velocity": 107,
      "chip": "ym2612"
    },
    {
      "channel": 0,
      "note": 77,
      "start": 58.1341,
      "duration": 0.0378,
      "velocity": 95,
      "chip": "ym2612"
    },
    {
      "channel": 2,
      "note": 87,
      "start": 58.1373,
      "duration": 0.0001,
      "velocity": 1,
      "chip": "ym2612"
    },
    {
      "channel": 3,
      "note": 46,
      "start": 58.1405,
      "duration": 0.008,
      "velocity": 107,
      "chip": "ym2612"
    },
    {
      "channel": 4,
      "note": 58,
      "start": 58.1432,
      "duration": 0.0097,
      "velocity": 127,
      "chip": "ym2612"
    },
    {
      "channel": 1,
      "note": 77,
      "start": 58.1661,
      "duration": 0.0366,
      "velocity": 95,
      "chip": "ym2612"
    },
    {
      "channel": 4,
      "note": 58,
      "start": 58.1698,
      "duration": 0.008,
      "velocity": 127,
      "chip": "ym2612"
    },
    {
      "channel": 2,
      "note": 75,
      "start": 58.1929,
      "duration": 0.0001,
      "velocity": 1,
      "chip": "ym2612"
    },
    {
      "channel": 3,
      "note": 37,
      "start": 58.1961,
      "duration": 0.0079,
      "velocity": 107,
      "chip": "ym2612"
    },
    {
      "channel": 4,
      "note": 58,
      "start": 58.1988,
      "duration": 0.0391,
      "velocity": 127,
      "chip": "ym2612"
    },
    {
      "channel": 2,
      "note": 87,
      "start": 58.225,
      "duration": 0.0001,
      "velocity": 1,
      "chip": "ym2612"
    },
    {
      "channel": 3,
      "note": 39,
      "start": 58.2282,
      "duration": 0.0053,
      "velocity": 107,
      "chip": "ym2612"
    },
    {
      "channel": 0,
      "note": 77,
      "start": 58.254,
      "duration": 0.0384,
      "velocity": 95,
      "chip": "ym2612"
    },
    {
      "channel": 2,
      "note": 87,
      "start": 58.2572,
      "duration": 0.0001,
      "velocity": 1,
      "chip": "ym2612"
    },
    {
      "channel": 3,
      "note": 39,
      "start": 58.2603,
      "duration": 0.0124,
      "velocity": 79,
      "chip": "ym2612"
    },
    {
      "channel": 4,
      "note": 58,
      "start": 58.263,
      "duration": 0.0106,
      "velocity": 127,
      "chip": "ym2612"
    },
    {
      "channel": 1,
      "note": 77,
      "start": 58.2866,
      "duration": 0.0391,
      "velocity": 95,
      "chip": "ym2612"
    },
    {
      "channel": 4,
      "note": 58,
      "start": 58.2904,
      "duration": 0.0079,
      "velocity": 127,
      "chip": "ym2612"
    },
    {
      "channel": 0,
      "note": 77,
      "start": 58.3127,
      "duration": 0.0416,
      "velocity": 95,
      "chip": "ym2612"
    },
    {
      "channel": 2,
      "note": 75,
      "start": 58.3158,
      "duration": 0.0001,
      "velocity": 1,
      "chip": "ym2612"
    },
    {
      "channel": 3,
      "note": 58,
      "start": 58.319,
      "duration": 0.008,
      "velocity": 107,
      "chip": "ym2612"
    },
    {
      "channel": 4,
      "note": 58,
      "start": 58.3218,
      "duration": 0.0386,
      "velocity": 127,
      "chip": "ym2612"
    },
    {
      "channel": 1,
      "note": 77,
      "start": 58.3462,
      "duration": 0.0429,
      "velocity": 95,
      "chip": "ym2612"
    },
    {
      "channel": 3,
      "note": 34,
      "start": 58.3497,
      "duration": 0.0065,
      "velocity": 107,
      "chip": "ym2612"
    },
    {
      "channel": 0,
      "note": 73,
      "start": 58.3745,
      "duration": 0.0421,
      "velocity": 95,
      "chip": "ym2612"
    },
    {
      "channel": 2,
      "note": 75,
      "start": 58.3776,
      "duration": 0.0001,
      "velocity": 1,
      "chip": "ym2612"
    },
    {
      "channel": 3,
      "note": 34,
      "start": 58.3809,
      "duration": 0.0096,
      "velocity": 107,
      "chip": "ym2612"
    },
    {
      "channel": 4,
      "note": 58,
      "start": 58.3836,
      "duration": 0.0113,
      "velocity": 127,
      "chip": "ym2612"
    },
    {
      "channel": 1,
      "note": 73,
      "start": 58.4083,
      "duration": 0.0414,
      "velocity": 95,
      "chip": "ym2612"
    },
    {
      "channel": 2,
      "note": 87,
      "start": 58.411,
      "duration": 0.0001,
      "velocity": 1,
      "chip": "ym2612"
    },
    {
      "channel": 4,
      "note": 58,
      "start": 58.4145,
      "duration": 0.0079,
      "velocity": 127,
      "chip": "ym2612"
    },
    {
      "channel": 0,
      "note": 70,
      "start": 58.4367,
      "duration": 0.0374,
      "velocity": 95,
      "chip": "ym2612"
    },
    {
      "channel": 2,
      "note": 87,
      "start": 58.4399,
      "duration": 0.0001,
      "velocity": 1,
      "chip": "ym2612"
    },
    {
      "channel": 3,
      "note": 46,
      "start": 58.443,
      "duration": 0.0117,
      "velocity": 79,
      "chip": "ym2612"
    },
    {
      "channel": 4,
      "note": 58,
      "start": 58.4457,
      "duration": 0.0344,
      "velocity": 127,
      "chip": "ym2612"
    },
    {
      "channel": 1,
      "note": 70,
      "start": 58.4685,
      "duration": 0.0342,
      "velocity": 95,
      "chip": "ym2612"
    },
    {
      "channel": 2,
      "note": 87,
      "start": 58.4712,
      "duration": 0.0001,
      "velocity": 1,
      "chip": "ym2612"
    },
    {
      "channel": 3,
      "note": 58,
      "start": 58.4961,
      "duration": 0.0081,
      "velocity": 107,
      "chip": "ym2612"
    },
    {
      "channel": 4,
      "note": 58,
      "start": 58.4988,
      "duration": 0.0096,
      "velocity": 127,
      "chip": "ym2612"
    },
    {
      "channel": 2,
      "note": 75,
      "start": 58.5251,
      "duration": 0.0001,
      "velocity": 1,
      "chip": "ym2612"
    },
    {
      "channel": 3,
      "note": 44,
      "start": 58.5283,
      "duration": 0.0079,
      "velocity": 107,
      "chip": "ym2612"
    },
    {
      "channel": 4,
      "note": 58,
      "start": 58.531,
      "duration": 0.0095,
      "velocity": 127,
      "chip": "ym2612"
    },
    {
      "channel": 0,
      "note": 76,
      "start": 58.5566,
      "duration": 0.0409,
      "velocity": 95,
      "chip": "ym2612"
    },
    {
      "channel": 2,
      "note": 87,
      "start": 58.5597,
      "duration": 0.0001,
      "velocity": 1,
      "chip": "ym2612"
    },
    {
      "channel": 3,
      "note": 44,
      "start": 58.5629,
      "duration": 0.0087,
      "velocity": 107,
      "chip": "ym2612"
    },
    {
      "channel": 4,
      "note": 58,
      "start": 58.5656,
      "duration": 0.038,
      "velocity": 127,
      "chip": "ym2612"
    },
    {
      "channel": 1,
      "note": 76,
      "start": 58.5894,
      "duration": 0.039,
      "velocity": 95,
      "chip": "ym2612"
    },
    {
      "channel": 2,
      "note": 87,
      "start": 58.5921,
      "duration": 0.0001,
      "velocity": 1,
      "chip": "ym2612"
    },
    {
      "channel": 3,
      "note": 46,
      "start": 58.5953,
      "duration": 0.004,
      "velocity": 107,
      "chip": "ym2612"
    },
    {
      "channel": 0,
      "note": 73,
      "start": 58.6178,
      "duration": 0.0381,
      "velocity": 95,
      "chip": "ym2612"
    },
    {
      "channel": 3,
      "note": 46,
      "start": 58.6217,
      "duration": 0.0082,
      "velocity": 107,
      "chip": "ym2612"
    },
    {
      "channel": 4,
      "note": 58,
      "start": 58.6245,
      "duration": 0.0097,
      "velocity": 127,
      "chip": "ym2612"
    },
    {
      "channel": 1,
      "note": 73,
      "start": 58.6477,
      "duration": 0.0361,
      "velocity": 95,
      "chip": "ym2612"
    },
    {
      "channel": 2,
      "note": 75,
      "start": 58.6504,
      "duration": 0.0001,
      "velocity": 1,
      "chip": "ym2612"
    },
    {
      "channel": 4,
      "note": 58,
      "start": 58.6539,
      "duration": 0.0078,
      "velocity": 127,
      "chip": "ym2612"
    },
    {
      "channel": 3,
      "note": 37,
      "start": 58.6771,
      "duration": 0.0118,
      "velocity": 79,
      "chip": "ym2612"
    },
    {
      "channel": 4,
      "note": 58,
      "start": 58.6799,
      "duration": 0.0349,
      "velocity": 127,
      "chip": "ym2612"
    },
    {
      "channel": 2,
      "note": 75,
      "start": 58.7033,
      "duration": 0.0001,
      "velocity": 1,
      "chip": "ym2612"
    },
    {
      "channel": 3,
      "note": 58,
      "start": 58.7064,
      "duration": 0.0075,
      "velocity": 79,
      "chip": "ym2612"
    },
    {
      "channel": 0,
      "note": 69,
      "start": 58.7289,
      "duration": 0.0374,
      "velocity": 95,
      "chip": "ym2612"
    },
    {
      "channel": 2,
      "note": 85,
      "start": 58.732,
      "duration": 0.0001,
      "velocity": 1,
      "chip": "ym2612"
    },
    {
      "channel": 3,
      "note": 58,
      "start": 58.7351,
      "duration": 0.0115,
      "velocity": 79,
      "chip": "ym2612"
    },
    {
      "channel": 4,
      "note": 58,
      "start": 58.7379,
      "duration": 0.0097,
      "velocity": 127,
      "chip": "ym2612"
    },
    {
      "channel": 1,
      "note": 69,
      "start": 58.7605,
      "duration": 0.0377,
      "velocity": 95,
      "chip": "ym2612"
    },
    {
      "channel": 4,
      "note": 58,
      "start": 58.7643,
      "duration": 0.008,
      "velocity": 127,
      "chip": "ym2612"
    },
    {
      "channel": 2,
      "note": 73,
      "start": 58.7875,
      "duration": 0.0001,
      "velocity": 1,
      "chip": "ym2612"
    },
    {
      "channel": 3,
      "note": 56,
      "start": 58.7907,
      "duration": 0.0088,
      "velocity": 107,
      "chip": "ym2612"
    },
    {
      "channel": 4,
      "note": 58,
      "start": 58.7934,
      "duration": 0.0369,
      "velocity": 127,
      "chip": "ym2612"
    },
    {
      "channel": 3,
      "note": 32,
      "start": 58.8198,
      "duration": 0.0062,
      "velocity": 107,
      "chip": "ym2612"
    },
    {
      "channel": 0,
      "note": 74,
      "start": 58.8473,
      "duration": 0.0403,
      "velocity": 95,
      "chip": "ym2612"
    },
    {
      "channel": 2,
      "note": 73,
      "start": 58.8504,
      "duration": 0.0001,
      "velocity": 1,
      "chip": "ym2612"
    },
    {
      "channel": 3,
      "note": 32,
      "start": 58.8536,
      "duration": 0.0079,
      "velocity": 107,
      "chip": "ym2612"
    },
    {
      "channel": 4,
      "note": 58,
      "start": 58.8563,
      "duration": 0.0095,
      "velocity": 127,
      "chip": "ym2612"
    },
    {
      "channel": 1,
      "note": 74,
      "start": 58.8794,
      "duration": 0.0365,
      "velocity": 95,
      "chip": "ym2612"
    },
    {
      "channel": 2,
      "note": 85,
      "start": 58.8821,
      "duration": 0.0001,
      "velocity": 1,
      "chip": "ym2612"
    },
    {
      "channel": 4,
      "note": 58,
      "start": 58.8856,
      "duration": 0.0078,
      "velocity": 127,
      "chip": "ym2612"
    },
    {
      "channel": 3,
      "note": 44,
      "start": 58.9093,
      "duration": 0.0117,
      "velocity": 79,
      "chip": "ym2612"
    },
    {
      "channel": 4,
      "note": 58,
      "start": 58.912,
      "duration": 0.0317,
      "velocity": 127,
      "chip": "ym2612"
    },
    {
      "channel": 2,
      "note": 73,
      "start": 58.935,
      "duration": 0.0001,
      "velocity": 1,
      "chip": "ym2612"
    },
    {
      "channel": 0,
      "note": 67,
      "start": 58.9579,
      "duration": 0.0401,
      "velocity": 95,
      "chip": "ym2612"
    },
    {
      "channel": 2,
      "note": 85,
      "start": 58.961,
      "duration": 0.0001,
      "velocity": 1,
      "chip": "ym2612"
    },
    {
      "channel": 3,
      "note": 56,
      "start": 58.9642,
      "duration": 0.0078,
      "velocity": 107,
      "chip": "ym2612"
    },
    {
      "channel": 4,
      "note": 58,
      "start": 58.967,
      "duration": 0.0094,
      "velocity": 127,
      "chip": "ym2612"
    },
    {
      "channel": 1,
      "note": 67,
      "start": 58.9898,
      "duration": 0.0392,
      "velocity": 95,
      "chip": "ym2612"
    },
    {
      "channel": 3,
      "note": 44,
      "start": 58.9933,
      "duration": 0.0066,
      "velocity": 107,
      "chip": "ym2612"
    },
    {
      "channel": 4,
      "note": 58,
      "start": 58.9961,
      "duration": 0.0082,
      "velocity": 127,
      "chip": "ym2612"
    },
    {
      "channel": 2,
      "note": 73,
      "start": 59.0192,
      "duration": 0.0001,
      "velocity": 1,
      "chip": "ym2612"
    },
    {
      "channel": 3,
      "note": 44,
      "start": 59.0224,
      "duration": 0.008,
      "velocity": 107,
      "chip": "ym2612"
    },
    {
      "channel": 4,
      "note": 58,
      "start": 59.0251,
      "duration": 0.0344,
      "velocity": 127,
      "chip": "ym2612"
    },
    {
      "channel": 2,
      "note": 85,
      "start": 59.0482,
      "duration": 0.0001,
      "velocity": 1,
      "chip": "ym2612"
    },
    {
      "channel": 3,
      "note": 37,
      "start": 59.0514,
      "duration": 0.0037,
      "velocity": 107,
      "chip": "ym2612"
    },
    {
      "channel": 0,
      "note": 64,
      "start": 59.0764,
      "duration": 0.0374,
      "velocity": 95,
      "chip": "ym2612"
    },
    {
      "channel": 2,
      "note": 85,
      "start": 59.0795,
      "duration": 0.0001,
      "velocity": 1,
      "chip": "ym2612"
    },
    {
      "channel": 3,
      "note": 37,
      "start": 59.0827,
      "duration": 0.0078,
      "velocity": 107,
      "chip": "ym2612"
    },
    {
      "channel": 4,
      "note": 58,
      "start": 59.0854,
      "duration": 0.0094,
      "velocity": 127,
      "chip": "ym2612"
    },
    {
      "channel": 1,
      "note": 64,
      "start": 59.1081,
      "duration": 0.0369,
      "velocity": 95,
      "chip": "ym2612"
    },
    {
      "channel": 4,
      "note": 58,
      "start": 59.1118,
      "duration": 0.0078,
      "velocity": 127,
      "chip": "ym2612"
    },
    {
      "channel": 2,
      "note": 73,
      "start": 59.1351,
      "duration": 0.0001,
      "velocity": 1,
      "chip": "ym2612"
    },
    {
      "channel": 3,
      "note": 39,
      "start": 59.1383,
      "duration": 0.0117,
      "velocity": 79,
      "chip": "ym2612"
    },
    {
      "channel": 4,
      "note": 58,
      "start": 59.141,
      "duration": 0.0393,
      "velocity": 127,
      "chip": "ym2612"
    },
    {
      "channel": 2,
      "note": 85,
      "start": 59.1673,
      "duration": 0.0001,
      "velocity": 1,
      "chip": "ym2612"
    },
    {
      "channel": 3,
      "note": 56,
      "start": 59.1704,
      "duration": 0.009,
      "velocity": 79,
      "chip": "ym2612"
    },
    {
      "channel": 0,
      "note": 67,
      "start": 59.1963,
      "duration": 0.0411,
      "velocity": 95,
      "chip": "ym2612"
    },
    {
      "channel": 2,
      "note": 87,
      "start": 59.1995,
      "duration": 0.0001,
      "velocity": 1,
      "chip": "ym2612"
    },
    {
      "channel": 3,
      "note": 56,
      "start": 59.2026,
      "duration": 0.0124,
      "velocity": 79,
      "chip": "ym2612"
    },
    {
      "channel": 4,
      "note": 58,
      "start": 59.2053,
      "duration": 0.0105,
      "velocity": 127,
      "chip": "ym2612"
    },
    {
      "channel": 1,
      "note": 67,
      "start": 59.2293,
      "duration": 0.0399,
      "velocity": 95,
      "chip": "ym2612"
    },
    {
      "channel": 2,
      "note": 87,
      "start": 59.232,
      "duration": 0.0001,
      "velocity": 1,
      "chip": "ym2612"
    },
    {
      "channel": 4,
      "note": 58,
      "start": 59.2355,
      "duration": 0.008,
      "velocity": 127,
      "chip": "ym2612"
    },
    {
      "channel": 0,
      "note": 77,
      "start": 59.2576,
      "duration": 0.0427,
      "velocity": 95,
      "chip": "ym2612"
    },
    {
      "channel": 3,
      "note": 58,
      "start": 59.2615,
      "duration": 0.0091,
      "velocity": 107,
      "chip": "ym2612"
    },
    {
      "channel": 4,
      "note": 58,
      "start": 59.2643,
      "duration": 0.0422,
      "velocity": 127,
      "chip": "ym2612"
    },
    {
      "channel": 1,
      "note": 77,
      "start": 59.2899,
      "duration": 0.0446,
      "velocity": 95,
      "chip": "ym2612"
    },
    {
      "channel": 2,
      "note": 75,
      "start": 59.2926,
      "duration": 0.0001,
      "velocity": 1,
      "chip": "ym2612"
    },
    {
      "channel": 3,
      "note": 34,
      "start": 59.2958,
      "duration": 0.0063,
      "velocity": 107,
      "chip": "ym2612"
    },
    {
      "channel": 0,
      "note": 73,
      "start": 59.3215,
      "duration": 0.0377,
      "velocity": 95,
      "chip": "ym2612"
    },
    {
      "channel": 2,
      "note": 87,
      "start": 59.3246,
      "duration": 0.0001,
      "velocity": 1,
      "chip": "ym2612"
    },
    {
      "channel": 3,
      "note": 34,
      "start": 59.3278,
      "duration": 0.008,
      "velocity": 107,
      "chip": "ym2612"
    },
    {
      "channel": 4,
      "note": 58,
      "start": 59.3306,
      "duration": 0.0097,
      "velocity": 127,
      "chip": "ym2612"
    },
    {
      "channel": 1,
      "note": 73,
      "start": 59.3535,
      "duration": 0.0385,
      "velocity": 95,
      "chip": "ym2612"
    },
    {
      "channel": 4,
      "note": 58,
      "start": 59.3573,
      "duration": 0.0078,
      "velocity": 127,
      "chip": "ym2612"
    },
    {
      "channel": 0,
      "note": 70,
      "start": 59.3791,
      "duration": 0.0375,
      "velocity": 95,
      "chip": "ym2612"
    },
    {
      "channel": 2,
      "note": 75,
      "start": 59.3823,
      "duration": 0.0001,
      "velocity": 1,
      "chip": "ym2612"
    },
    {
      "channel": 3,
      "note": 46,
      "start": 59.3854,
      "duration": 0.0118,
      "velocity": 79,
      "chip": "ym2612"
    },
    {
      "channel": 4,
      "note": 58,
      "start": 59.3881,
      "duration": 0.0343,
      "velocity": 127,
      "chip": "ym2612"
    },
    {
      "channel": 1,
      "note": 70,
      "start": 59.4109,
      "duration": 0.0342,
      "velocity": 95,
      "chip": "ym2612"
    },
    {
      "channel": 2,
      "note": 87,
      "start": 59.4136,
      "duration": 0.0001,
      "velocity": 1,
      "chip": "ym2612"
    },
    {
      "channel": 3,
      "note": 58,
      "start": 59.4385,
      "duration": 0.0081,
      "velocity": 107,
      "chip": "ym2612"
    },
    {
      "channel": 4,
      "note": 58,
      "start": 59.4412,
      "duration": 0.0096,
      "velocity": 127,
      "chip": "ym2612"
    },
    {
      "channel": 2,
      "note": 75,
      "start": 59.4675,
      "duration": 0.0001,
      "velocity": 1,
      "chip": "ym2612"
    },
    {
      "channel": 3,
      "note": 44,
      "start": 59.4707,
      "duration": 0.0079,
      "velocity": 107,
      "chip": "ym2612"
    },
    {
      "channel": 4,
      "note": 58,
      "start": 59.4734,
      "duration": 0.0095,
      "velocity": 127,
      "chip": "ym2612"
    },
    {
      "channel": 0,
      "note": 76,
      "start": 59.499,
      "duration": 0.0381,
      "velocity": 95,
      "chip": "ym2612"
    },
    {
      "channel": 2,
      "note": 87,
      "start": 59.5022,
      "duration": 0.0001,
      "velocity": 1,
      "chip": "ym2612"
    },
    {
      "channel": 3,
      "note": 44,
      "start": 59.5054,
      "duration": 0.0086,
      "velocity": 107,
      "chip": "ym2612"
    },
    {
      "channel": 4,
      "note": 58,
      "start": 59.5081,
      "duration": 0.0352,
      "velocity": 127,
      "chip": "ym2612"
    },
    {
      "channel": 1,
      "note": 76,
      "start": 59.5314,
      "duration": 0.0393,
      "velocity": 95,
      "chip": "ym2612"
    },
    {
      "channel": 3,
      "note": 46,
      "start": 59.5349,
      "duration": 0.0042,
      "velocity": 107,
      "chip": "ym2612"
    },
    {
      "channel": 0,
      "note": 73,
      "start": 59.5577,
      "duration": 0.0404,
      "velocity": 95,
      "chip": "ym2612"
    },
    {
      "channel": 2,
      "note": 75,
      "start": 59.5608,
      "duration": 0.0001,
      "velocity": 1,
      "chip": "ym2612"
    },
    {
      "channel": 3,
      "note": 46,
      "start": 59.564,
      "duration": 0.008,
      "velocity": 107,
      "chip": "ym2612"
    },
    {
      "channel": 4,
      "note": 58,
      "start": 59.5668,
      "duration": 0.0097,
      "velocity": 127,
      "chip": "ym2612"
    },
    {
      "channel": 1,
      "note": 73,
      "start": 59.5899,
      "duration": 0.0413,
      "velocity": 95,
      "chip": "ym2612"
    },
    {
      "channel": 2,
      "note": 87,
      "start": 59.5926,
      "duration": 0.0001,
      "velocity": 1,
      "chip": "ym2612"
    },
    {
      "channel": 4,
      "note": 58,
      "start": 59.5961,
      "duration": 0.0079,
      "velocity": 127,
      "chip": "ym2612"
    },
    {
      "channel": 0,
      "note": 70,
      "start": 59.6183,
      "duration": 0.0345,
      "velocity": 95,
      "chip": "ym2612"
    },
    {
      "channel": 2,
      "note": 87,
      "start": 59.6215,
      "duration": 0.0001,
      "velocity": 1,
      "chip": "ym2612"
    },
    {
      "channel": 3,
      "note": 37,
      "start": 59.6246,
      "duration": 0.0117,
      "velocity": 79,
      "chip": "ym2612"
    },
    {
      "channel": 4,
      "note": 58,
      "start": 59.6273,
      "duration": 0.0314,
      "velocity": 127,
      "chip": "ym2612"
    },
    {
      "channel": 1,
      "note": 70,
      "start": 59.6496,
      "duration": 0.0376,
      "velocity": 95,
      "chip": "ym2612"
    },
    {
      "channel": 0,
      "note": 73,
      "start": 59.6734,
      "duration": 0.0385,
      "velocity": 95,
      "chip": "ym2612"
    },
    {
      "channel": 2,
      "note": 75,
      "start": 59.6766,
      "duration": 0.0001,
      "velocity": 1,
      "chip": "ym2612"
    },
    {
      "channel": 3,
      "note": 46,
      "start": 59.6796,
      "duration": 0.0126,
      "velocity": 79,
      "chip": "ym2612"
    },
    {
      "channel": 4,
      "note": 58,
      "start": 59.6824,
      "duration": 0.0108,
      "velocity": 127,
      "chip": "ym2612"
    },
    {
      "channel": 1,
      "note": 73,
      "start": 59.7061,
      "duration": 0.0388,
      "velocity": 95,
      "chip": "ym2612"
    },
    {
      "channel": 4,
      "note": 58,
      "start": 59.7099,
      "duration": 0.008,
      "velocity": 127,
      "chip": "ym2612"
    },
    {
      "channel": 0,
      "note": 78,
      "start": 59.7319,
      "duration": 0.0416,
      "velocity": 95,
      "chip": "ym2612"
    },
    {
      "channel": 2,
      "note": 75,
      "start": 59.7351,
      "duration": 0.0001,
      "velocity": 1,
      "chip": "ym2612"
    },
    {
      "channel": 3,
      "note": 58,
      "start": 59.7383,
      "duration": 0.008,
      "velocity": 107,
      "chip": "ym2612"
    },
    {
      "channel": 4,
      "note": 58,
      "start": 59.741,
      "duration": 0.0388,
      "velocity": 127,
      "chip": "ym2612"
    },
    {
      "channel": 1,
      "note": 78,
      "start": 59.7655,
      "duration": 0.0413,
      "velocity": 95,
      "chip": "ym2612"
    },
    {
      "channel": 3,
      "note": 34,
      "start": 59.769,
      "duration": 0.0065,
      "velocity": 107,
      "chip": "ym2612"
    },
    {
      "channel": 0,
      "note": 80,
      "start": 59.7937,
      "duration": 0.0406,
      "velocity": 95,
      "chip": "ym2612"
    },
    {
      "channel": 2,
      "note": 75,
      "start": 59.7968,
      "duration": 0.0001,
      "velocity": 1,
      "chip": "ym2612"
    },
    {
      "channel": 3,
      "note": 34,
      "start": 59.8001,
      "duration": 0.008,
      "velocity": 107,
      "chip": "ym2612"
    },
    {
      "channel": 4,
      "note": 58,
      "start": 59.8028,
      "duration": 0.0098,
      "velocity": 127,
      "chip": "ym2612"
    },
    {
      "channel": 1,
      "note": 80,
      "start": 59.8262,
      "duration": 0.0386,
      "velocity": 95,
      "chip": "ym2612"
    },
    {
      "channel": 2,
      "note": 87,
      "start": 59.8288,
      "duration": 0.0001,
      "velocity": 1,
      "chip": "ym2612"
    },
    {
      "channel": 4,
      "note": 58,
      "start": 59.8324,
      "duration": 0.0079,
      "velocity": 127,
      "chip": "ym2612"
    },
    {
      "channel": 0,
      "note": 73,
      "start": 59.8542,
      "duration": 0.0371,
      "velocity": 95,
      "chip": "ym2612"
    },
    {
      "channel": 3,
      "note": 46,
      "start": 59.858,
      "duration": 0.0118,
      "velocity": 79,
      "chip": "ym2612"
    },
    {
      "channel": 4,
      "note": 58,
      "start": 59.8608,
      "duration": 0.0366,
      "velocity": 127,
      "chip": "ym2612"
    },
    {
      "channel": 1,
      "note": 73,
      "start": 59.8842,
      "duration": 0.0349,
      "velocity": 95,
      "chip": "ym2612"
    },
    {
      "channel": 2,
      "note": 75,
      "start": 59.8869,
      "duration": 0.0001,
      "velocity": 1,
      "chip": "ym2612"
    },
    {
      "channel": 3,
      "note": 58,
      "start": 59.9124,
      "duration": 0.0081,
      "velocity": 107,
      "chip": "ym2612"
    },
    {
      "channel": 4,
      "note": 58,
      "start": 59.9152,
      "duration": 0.0096,
      "velocity": 127,
      "chip": "ym2612"
    },
    {
      "channel": 2,
      "note": 75,
      "start": 59.9391,
      "duration": 0.0001,
      "velocity": 1,
      "chip": "ym2612"
    },
    {
      "channel": 3,
      "note": 44,
      "start": 59.9423,
      "duration": 0.0063,
      "velocity": 107,
      "chip": "ym2612"
    },
    {
      "channel": 4,
      "note": 58,
      "start": 59.945,
      "duration": 0.008,
      "velocity": 127,
      "chip": "ym2612"
    },
    {
      "channel": 0,
      "note": 74,
      "start": 59.9688,
      "duration": 0.04,
      "velocity": 95,
      "chip": "ym2612"
    },
    {
      "channel": 2,
      "note": 87,
      "start": 59.972,
      "duration": 0.0001,
      "velocity": 1,
      "chip": "ym2612"
    },
    {
      "channel": 3,
      "note": 44,
      "start": 59.9752,
      "duration": 0.0078,
      "velocity": 107,
      "chip": "ym2612"
    },
    {
      "channel": 4,
      "note": 58,
      "start": 59.9779,
      "duration": 0.0372,
      "velocity": 127,
      "chip": "ym2612"
    },
    {
      "channel": 1,
      "note": 74,
      "start": 60.0008,
      "duration": 0.0417,
      "velocity": 95,
      "chip": "ym2612"
    },
    {
      "channel": 2,
      "note": 87,
      "start": 60.0035,
      "duration": 0.0001,
      "velocity": 1,
      "chip": "ym2612"
    },
    {
      "channel": 3,
      "note": 46,
      "start": 60.0067,
      "duration": 0.004,
      "velocity": 107,
      "chip": "ym2612"
    },
    {
      "channel": 0,
      "note": 77,
      "start": 60.0295,
      "duration": 0.0378,
      "velocity": 95,
      "chip": "ym2612"
    },
    {
      "channel": 2,
      "note": 87,
      "start": 60.0326,
      "duration": 0.0001,
      "velocity": 1,
      "chip": "ym2612"
    },
    {
      "channel": 3,
      "note": 46,
      "start": 60.0359,
      "duration": 0.008,
      "velocity": 107,
      "chip": "ym2612"
    },
    {
      "channel": 4,
      "note": 58,
      "start": 60.0386,
      "duration": 0.0097,
      "velocity": 127,
      "chip": "ym2612"
    },
    {
      "channel": 1,
      "note": 77,
      "start": 60.0615,
      "duration": 0.0366,
      "velocity": 95,
      "chip": "ym2612"
    },
    {
      "channel": 4,
      "note": 58,
      "start": 60.0652,
      "duration": 0.0079,
      "velocity": 127,
      "chip": "ym2612"
    },
    {
      "channel": 2,
      "note": 75,
      "start": 60.0883,
      "duration": 0.0001,
      "velocity": 1,
      "chip": "ym2612"
    },
    {
      "channel": 3,
      "note": 37,
      "start": 60.0915,
      "duration": 0.008,
      "velocity": 107,
      "chip": "ym2612"
    },
    {
      "channel": 4,
      "note": 58,
      "start": 60.0942,
      "duration": 0.0391,
      "velocity": 127,
      "chip": "ym2612"
    },
    {
      "channel": 2,
      "note": 87,
      "start": 60.1204,
      "duration": 0.0001,
      "velocity": 1,
      "chip": "ym2612"
    },
    {
      "channel": 3,
      "note": 39,
      "start": 60.1236,
      "duration": 0.0053,
      "velocity": 107,
      "chip": "ym2612"
    },
    {
      "channel": 0,
      "note": 77,
      "start": 60.1495,
      "duration": 0.0384,
      "velocity": 95,
      "chip": "ym2612"
    },
    {
      "channel": 2,
      "note": 87,
      "start": 60.1527,
      "duration": 0.0001,
      "velocity": 1,
      "chip": "ym2612"
    },
    {
      "channel": 3,
      "note": 39,
      "start": 60.1558,
      "duration": 0.0124,
      "velocity": 79,
      "chip": "ym2612"
    },
    {
      "channel": 4,
      "note": 58,
      "start": 60.1585,
      "duration": 0.0106,
      "velocity": 127,
      "chip": "ym2612"
    },
    {
      "channel": 1,
      "note": 77,
      "start": 60.1821,
      "duration": 0.0391,
      "velocity": 95,
      "chip": "ym2612"
    },
    {
      "channel": 4,
      "note": 58,
      "start": 60.1859,
      "duration": 0.0078,
      "velocity": 127,
      "chip": "ym2612"
    },
    {
      "channel": 0,
      "note": 77,
      "start": 60.2082,
      "duration": 0.0416,
      "velocity": 95,
      "chip": "ym2612"
    },
    {
      "channel": 2,
      "note": 75,
      "start": 60.2113,
      "duration": 0.0001,
      "velocity": 1,
      "chip": "ym2612"
    },
    {
      "channel": 3,
      "note": 58,
      "start": 60.2145,
      "duration": 0.008,
      "velocity": 107,
      "chip": "ym2612"
    },
    {
      "channel": 4,
      "note": 58,
      "start": 60.2173,
      "duration": 0.0387,
      "velocity": 127,
      "chip": "ym2612"
    },
    {
      "channel": 1,
      "note": 77,
      "start": 60.2418,
      "duration": 0.0414,
      "velocity": 95,
      "chip": "ym2612"
    },
    {
      "channel": 3,
      "note": 34,
      "start": 60.2452,
      "duration": 0.0065,
      "velocity": 107,
      "chip": "ym2612"
    },
    {
      "channel": 0,
      "note": 73,
      "start": 60.27,
      "duration": 0.0406,
      "velocity": 95,
      "chip": "ym2612"
    },
    {
      "channel": 2,
      "note": 75,
      "start": 60.2732,
      "duration": 0.0001,
      "velocity": 1,
      "chip": "ym2612"
    },
    {
      "channel": 3,
      "note": 34,
      "start": 60.2764,
      "duration": 0.008,
      "velocity": 107,
      "chip": "ym2612"
    },
    {
      "channel": 4,
      "note": 58,
      "start": 60.2791,
      "duration": 0.0097,
      "velocity": 127,
      "chip": "ym2612"
    },
    {
      "channel": 1,
      "note": 73,
      "start": 60.3023,
      "duration": 0.0415,
      "velocity": 95,
      "chip": "ym2612"
    },
    {
      "channel": 2,
      "note": 87,
      "start": 60.305,
      "duration": 0.0001,
      "velocity": 1,
      "chip": "ym2612"
    },
    {
      "channel": 4,
      "note": 58,
      "start": 60.3085,
      "duration": 0.008,
      "velocity": 127,
      "chip": "ym2612"
    },
    {
      "channel": 0,
      "note": 70,
      "start": 60.3308,
      "duration": 0.0374,
      "velocity": 95,
      "chip": "ym2612"
    },
    {
      "channel": 2,
      "note": 87,
      "start": 60.3339,
      "duration": 0.0001,
      "velocity": 1,
      "chip": "ym2612"
    },
    {
      "channel": 3,
      "note": 46,
      "start": 60.337,
      "duration": 0.0118,
      "velocity": 79,
      "chip": "ym2612"
    },
    {
      "channel": 4,
      "note": 58,
      "start": 60.3398,
      "duration": 0.0344,
      "velocity": 127,
      "chip": "ym2612"
    },
    {
      "channel": 1,
      "note": 70,
      "start": 60.3626,
      "duration": 0.0341,
      "velocity": 95,
      "chip": "ym2612"
    },
    {
      "channel": 2,
      "note": 87,
      "start": 60.3653,
      "duration": 0.0001,
      "velocity": 1,
      "chip": "ym2612"
    },
    {
      "channel": 3,
      "note": 58,
      "start": 60.3901,
      "duration": 0.0081,
      "velocity": 107,
      "chip": "ym2612"
    },
    {
      "channel": 4,
      "note": 58,
      "start": 60.3929,
      "duration": 0.0096,
      "velocity": 127,
      "chip": "ym2612"
    },
    {
      "channel": 2,
      "note": 75,
      "start": 60.4191,
      "duration": 0.0001,
      "velocity": 1,
      "chip": "ym2612"
    },
    {
      "channel": 3,
      "note": 44,
      "start": 60.4223,
      "duration": 0.0078,
      "velocity": 107,
      "chip": "ym2612"
    },
    {
      "channel": 4,
      "note": 58,
      "start": 60.4251,
      "duration": 0.0095,
      "velocity": 127,
      "chip": "ym2612"
    },
    {
      "channel": 0,
      "note": 76,
      "start": 60.4507,
      "duration": 0.0409,
      "velocity": 95,
      "chip": "ym2612"
    },
    {
      "channel": 2,
      "note": 87,
      "start": 60.4538,
      "duration": 0.0001,
      "velocity": 1,
      "chip": "ym2612"
    },
    {
      "channel": 3,
      "note": 44,
      "start": 60.457,
      "duration": 0.0087,
      "velocity": 107,
      "chip": "ym2612"
    },
    {
      "channel": 4,
      "note": 58,
      "start": 60.4598,
      "duration": 0.0381,
      "velocity": 127,
      "chip": "ym2612"
    },
    {
      "channel": 1,
      "note": 76,
      "start": 60.4835,
      "duration": 0.0391,
      "velocity": 95,
      "chip": "ym2612"
    },
    {
      "channel": 2,
      "note": 87,
      "start": 60.4862,
      "duration": 0.0001,
      "velocity": 1,
      "chip": "ym2612"
    },
    {
      "channel": 3,
      "note": 46,
      "start": 60.4894,
      "duration": 0.004,
      "velocity": 107,
      "chip": "ym2612"
    },
    {
      "channel": 0,
      "note": 73,
      "start": 60.5119,
      "duration": 0.0382,
      "velocity": 95,
      "chip": "ym2612"
    },
    {
      "channel": 3,
      "note": 46,
      "start": 60.5159,
      "duration": 0.0082,
      "velocity": 107,
      "chip": "ym2612"
    },
    {
      "channel": 4,
      "note": 58,
      "start": 60.5186,
      "duration": 0.0097,
      "velocity": 127,
      "chip": "ym2612"
    },
    {
      "channel": 1,
      "note": 73,
      "start": 60.5419,
      "duration": 0.0361,
      "velocity": 95,
      "chip": "ym2612"
    },
    {
      "channel": 2,
      "note": 75,
      "start": 60.5446,
      "duration": 0.0001,
      "velocity": 1,
      "chip": "ym2612"
    },
    {
      "channel": 4,
      "note": 58,
      "start": 60.548,
      "duration": 0.0078,
      "velocity": 127,
      "chip": "ym2612"
    },
    {
      "channel": 3,
      "note": 37,
      "start": 60.5713,
      "duration": 0.0118,
      "velocity": 79,
      "chip": "ym2612"
    },
    {
      "channel": 4,
      "note": 58,
      "start": 60.5741,
      "duration": 0.035,
      "velocity": 127,
      "chip": "ym2612"
    },
    {
      "channel": 2,
      "note": 75,
      "start": 60.5975,
      "duration": 0.0001,
      "velocity": 1,
      "chip": "ym2612"
    },
    {
      "channel": 3,
      "note": 58,
      "start": 60.6006,
      "duration": 0.0075,
      "velocity": 79,
      "chip": "ym2612"
    },
    {
      "channel": 0,
      "note": 69,
      "start": 60.6231,
      "duration": 0.0375,
      "velocity": 95,
      "chip": "ym2612"
    },
    {
      "channel": 2,
      "note": 85,
      "start": 60.6262,
      "duration": 0.0001,
      "velocity": 1,
      "chip": "ym2612"
    },
    {
      "channel": 3,
      "note": 58,
      "start": 60.6293,
      "duration": 0.0116,
      "velocity": 79,
      "chip": "ym2612"
    },
    {
      "channel": 4,
      "note": 58,
      "start": 60.6321,
      "duration": 0.0098,
      "velocity": 127,
      "chip": "ym2612"
    },
    {
      "channel": 1,
      "note": 69,
      "start": 60.6548,
      "duration": 0.0376,
      "velocity": 95,
      "chip": "ym2612"
    },
    {
      "channel": 4,
      "note": 58,
      "start": 60.6585,
      "duration": 0.008,
      "velocity": 127,
      "chip": "ym2612"
    },
    {
      "channel": 2,
      "note": 73,
      "start": 60.6817,
      "duration": 0.0001,
      "velocity": 1,
      "chip": "ym2612"
    },
    {
      "channel": 3,
      "note": 56,
      "start": 60.6849,
      "duration": 0.0088,
      "velocity": 107,
      "chip": "ym2612"
    },
    {
      "channel": 4,
      "note": 58,
      "start": 60.6876,
      "duration": 0.0369,
      "velocity": 127,
      "chip": "ym2612"
    },
    {
      "channel": 3,
      "note": 32,
      "start": 60.714,
      "duration": 0.0063,
      "velocity": 107,
      "chip": "ym2612"
    },
    {
      "channel": 0,
      "note": 74,
      "start": 60.7415,
      "duration": 0.0449,
      "velocity": 95,
      "chip": "ym2612"
    },
    {
      "channel": 2,
      "note": 73,
      "start": 60.7446,
      "duration": 0.0001,
      "velocity": 1,
      "chip": "ym2612"
    },
    {
      "channel": 3,
      "note": 32,
      "start": 60.7478,
      "duration": 0.0079,
      "velocity": 107,
      "chip": "ym2612"
    },
    {
      "channel": 4,
      "note": 58,
      "start": 60.7506,
      "duration": 0.0095,
      "velocity": 127,
      "chip": "ym2612"
    },
    {
      "channel": 1,
      "note": 74,
      "start": 60.7768,
      "duration": 0.0372,
      "velocity": 95,
      "chip": "ym2612"
    },
    {
      "channel": 2,
      "note": 85,
      "start": 60.7795,
      "duration": 0.0001,
      "velocity": 1,
      "chip": "ym2612"
    },
    {
      "channel": 4,
      "note": 58,
      "start": 60.7829,
      "duration": 0.0094,
      "velocity": 127,
      "chip": "ym2612"
    },
    {
      "channel": 3,
      "note": 44,
      "start": 60.8072,
      "duration": 0.0117,
      "velocity": 79,
      "chip": "ym2612"
    },
    {
      "channel": 4,
      "note": 58,
      "start": 60.81,
      "duration": 0.0363,
      "velocity": 127,
      "chip": "ym2612"
    },
    {
      "channel": 2,
      "note": 73,
      "start": 60.8361,
      "duration": 0.0001,
      "velocity": 1,
      "chip": "ym2612"
    },
    {
      "channel": 2,
      "note": 85,
      "start": 60.8614,
      "duration": 0.0001,
      "velocity": 1,
      "chip": "ym2612"
    },
    {
      "channel": 3,
      "note": 56,
      "start": 60.8646,
      "duration": 0.0078,
      "velocity": 107,
      "chip": "ym2612"
    },
    {
      "channel": 4,
      "note": 58,
      "start": 60.8673,
      "duration": 0.0094,
      "velocity": 127,
      "chip": "ym2612"
    },
    {
      "channel": 3,
      "note": 44,
      "start": 60.8912,
      "duration": 0.0064,
      "velocity": 107,
      "chip": "ym2612"
    },
    {
      "channel": 4,
      "note": 58,
      "start": 60.894,
      "duration": 0.0079,
      "velocity": 127,
      "chip": "ym2612"
    },
    {
      "channel": 0,
      "note": 77,
      "start": 60.9184,
      "duration": 0.0422,
      "velocity": 95,
      "chip": "ym2612"
    },
    {
      "channel": 2,
      "note": 73,
      "start": 60.9215,
      "duration": 0.0001,
      "velocity": 1,
      "chip": "ym2612"
    },
    {
      "channel": 3,
      "note": 44,
      "start": 60.9247,
      "duration": 0.0078,
      "velocity": 107,
      "chip": "ym2612"
    },
    {
      "channel": 4,
      "note": 58,
      "start": 60.9275,
      "duration": 0.0394,
      "velocity": 127,
      "chip": "ym2612"
    },
    {
      "channel": 1,
      "note": 77,
      "start": 60.951,
      "duration": 0.045,
      "velocity": 95,
      "chip": "ym2612"
    },
    {
      "channel": 2,
      "note": 85,
      "start": 60.9537,
      "duration": 0.0001,
      "velocity": 1,
      "chip": "ym2612"
    },
    {
      "channel": 3,
      "note": 37,
      "start": 60.9569,
      "duration": 0.0055,
      "velocity": 107,
      "chip": "ym2612"
    },
    {
      "channel": 0,
      "note": 78,
      "start": 60.983,
      "duration": 0.0396,
      "velocity": 95,
      "chip": "ym2612"
    },
    {
      "channel": 2,
      "note": 85,
      "start": 60.9862,
      "duration": 0.0001,
      "velocity": 1,
      "chip": "ym2612"
    },
    {
      "channel": 3,
      "note": 37,
      "start": 60.9894,
      "duration": 0.008,
      "velocity": 107,
      "chip": "ym2612"
    },
    {
      "channel": 4,
      "note": 58,
      "start": 60.9921,
      "duration": 0.0097,
      "velocity": 127,
      "chip": "ym2612"
    },
    {
      "channel": 1,
      "note": 78,
      "start": 61.0154,
      "duration": 0.0425,
      "velocity": 95,
      "chip": "ym2612"
    },
    {
      "channel": 4,
      "note": 58,
      "start": 61.0191,
      "duration": 0.0094,
      "velocity": 127,
      "chip": "ym2612"
    },
    {
      "channel": 0,
      "note": 77,
      "start": 61.0449,
      "duration": 0.042,
      "velocity": 95,
      "chip": "ym2612"
    },
    {
      "channel": 2,
      "note": 73,
      "start": 61.048,
      "duration": 0.0001,
      "velocity": 1,
      "chip": "ym2612"
    },
    {
      "channel": 3,
      "note": 39,
      "start": 61.0511,
      "duration": 0.0117,
      "velocity": 79,
      "chip": "ym2612"
    },
    {
      "channel": 4,
      "note": 58,
      "start": 61.0539,
      "duration": 0.0395,
      "velocity": 127,
      "chip": "ym2612"
    },
    {
      "channel": 1,
      "note": 77,
      "start": 61.0773,
      "duration": 0.0331,
      "velocity": 95,
      "chip": "ym2612"
    },
    {
      "channel": 2,
      "note": 85,
      "start": 61.08,
      "duration": 0.0001,
      "velocity": 1,
      "chip": "ym2612"
    },
    {
      "channel": 3,
      "note": 56,
      "start": 61.0831,
      "duration": 0.0093,
      "velocity": 79,
      "chip": "ym2612"
    },
    {
      "channel": 0,
      "note": 73,
      "start": 61.1094,
      "duration": 0.0265,
      "velocity": 107,
      "chip": "ym2612"
    },
    {
      "channel": 1,
      "note": 73,
      "start": 61.1121,
      "duration": 0.0245,
      "velocity": 107,
      "chip": "ym2612"
    },
    {
      "channel": 2,
      "note": 80,
      "start": 61.1148,
      "duration": 0.0329,
      "velocity": 95,
      "chip": "ym2612"
    },
    {
      "channel": 3,
      "note": 56,
      "start": 61.1175,
      "duration": 0.012,
      "velocity": 79,
      "chip": "ym2612"
    },
    {
      "channel": 4,
      "note": 58,
      "start": 61.1203,
      "duration": 0.0099,
      "velocity": 127,
      "chip": "ym2612"
    },
    {
      "channel": 4,
      "note": 58,
      "start": 61.1447,
      "duration": 0.0075,
      "velocity": 127,
      "chip": "ym2612"
    },
    {
      "channel": 0,
      "note": 82,
      "start": 61.1659,
      "duration": 0.0233,
      "velocity": 107,
      "chip": "ym2612"
    },
    {
      "channel": 1,
      "note": 77,
      "start": 61.1686,
      "duration": 0.0213,
      "velocity": 107,
      "chip": "ym2612"
    },
    {
      "channel": 3,
      "note": 58,
      "start": 61.1719,
      "duration": 0.0076,
      "velocity": 107,
      "chip": "ym2612"
    },
    {
      "channel": 4,
      "note": 58,
      "start": 61.1746,
      "duration": 0.0335,
      "velocity": 127,
      "chip": "ym2612"
    },
    {
      "channel": 3,
      "note": 34,
      "start": 61.1981,
      "duration": 0.006,
      "velocity": 107,
      "chip": "ym2612"
    },
    {
      "channel": 0,
      "note": 77,
      "start": 61.2227,
      "duration": 0.0235,
      "velocity": 107,
      "chip": "ym2612"
    },
    {
      "channel": 1,
      "note": 73,
      "start": 61.2254,
      "duration": 0.0214,
      "velocity": 107,
      "chip": "ym2612"
    },
    {
      "channel": 3,
      "note": 34,
      "start": 61.2287,
      "duration": 0.0077,
      "velocity": 107,
      "chip": "ym2612"
    },
    {
      "channel": 4,
      "note": 58,
      "start": 61.2314,
      "duration": 0.009,
      "velocity": 127,
      "chip": "ym2612"
    },
    {
      "channel": 4,
      "note": 58,
      "start": 61.255,
      "duration": 0.0072,
      "velocity": 127,
      "chip": "ym2612"
    },
    {
      "channel": 0,
      "note": 77,
      "start": 61.2778,
      "duration": 0.0235,
      "velocity": 107,
      "chip": "ym2612"
    },
    {
      "channel": 1,
      "note": 73,
      "start": 61.2805,
      "duration": 0.0215,
      "velocity": 107,
      "chip": "ym2612"
    },
    {
      "channel": 3,
      "note": 46,
      "start": 61.2837,
      "duration": 0.0112,
      "velocity": 79,
      "chip": "ym2612"
    },
    {
      "channel": 4,
      "note": 58,
      "start": 61.2864,
      "duration": 0.0326,
      "velocity": 127,
      "chip": "ym2612"
    },
    {
      "channel": 0,
      "note": 77,
      "start": 61.3081,
      "duration": 0.0174,
      "velocity": 107,
      "chip": "ym2612"
    },
    {
      "channel": 1,
      "note": 73,
      "start": 61.3107,
      "duration": 0.0154,
      "velocity": 107,
      "chip": "ym2612"
    },
    {
      "channel": 3,
      "note": 58,
      "start": 61.3343,
      "duration": 0.0077,
      "velocity": 107,
      "chip": "ym2612"
    },
    {
      "channel": 4,
      "note": 58,
      "start": 61.3371,
      "duration": 0.009,
      "velocity": 127,
      "chip": "ym2612"
    },
    {
      "channel": 0,
      "note": 77,
      "start": 61.3595,
      "duration": 0.0246,
      "velocity": 107,
      "chip": "ym2612"
    },
    {
      "channel": 1,
      "note": 73,
      "start": 61.3622,
      "duration": 0.0225,
      "velocity": 107,
      "chip": "ym2612"
    },
    {
      "channel": 3,
      "note": 44,
      "start": 61.3655,
      "duration": 0.0077,
      "velocity": 107,
      "chip": "ym2612"
    },
    {
      "channel": 4,
      "note": 58,
      "start": 61.3682,
      "duration": 0.009,
      "velocity": 127,
      "chip": "ym2612"
    },
    {
      "channel": 0,
      "note": 77,
      "start": 61.3917,
      "duration": 0.024,
      "velocity": 107,
      "chip": "ym2612"
    },
    {
      "channel": 1,
      "note": 73,
      "start": 61.3944,
      "duration": 0.022,
      "velocity": 107,
      "chip": "ym2612"
    },
    {
      "channel": 3,
      "note": 44,
      "start": 61.3977,
      "duration": 0.0085,
      "velocity": 107,
      "chip": "ym2612"
    },
    {
      "channel": 4,
      "note": 58,
      "start": 61.4005,
      "duration": 0.0315,
      "velocity": 127,
      "chip": "ym2612"
    },
    {
      "channel": 3,
      "note": 46,
      "start": 61.4243,
      "duration": 0.0037,
      "velocity": 107,
      "chip": "ym2612"
    },
    {
      "channel": 0,
      "note": 77,
      "start": 61.4472,
      "duration": 0.0235,
      "velocity": 107,
      "chip": "ym2612"
    },
    {
      "channel": 1,
      "note": 73,
      "start": 61.4499,
      "duration": 0.0214,
      "velocity": 107,
      "chip": "ym2612"
    },
    {
      "channel": 3,
      "note": 46,
      "start": 61.4532,
      "duration": 0.0077,
      "velocity": 107,
      "chip": "ym2612"
    },
    {
      "channel": 4,
      "note": 58,
      "start": 61.4559,
      "duration": 0.0089,
      "velocity": 127,
      "chip": "ym2612"
    },
    {
      "channel": 4,
      "note": 58,
      "start": 61.4793,
      "duration": 0.0072,
      "velocity": 127,
      "chip": "ym2612"
    },
    {
      "channel": 0,
      "note": 77,
      "start": 61.5023,
      "duration": 0.0229,
      "velocity": 107,
      "chip": "ym2612"
    },
    {
      "channel": 1,
      "note": 73,
      "start": 61.505,
      "duration": 0.0208,
      "velocity": 107,
      "chip": "ym2612"
    },
    {
      "channel": 3,
      "note": 37,
      "start": 61.5082,
      "duration": 0.011,
      "velocity": 79,
      "chip": "ym2612"
    },
    {
      "channel": 4,
      "note": 58,
      "start": 61.5109,
      "duration": 0.0276,
      "velocity": 127,
      "chip": "ym2612"
    },
    {
      "channel": 0,
      "note": 77,
      "start": 61.552,
      "duration": 0.0241,
      "velocity": 107,
      "chip": "ym2612"
    },
    {
      "channel": 1,
      "note": 73,
      "start": 61.5547,
      "duration": 0.0221,
      "velocity": 107,
      "chip": "ym2612"
    },
    {
      "channel": 3,
      "note": 46,
      "start": 61.5578,
      "duration": 0.0119,
      "velocity": 79,
      "chip": "ym2612"
    },
    {
      "channel": 4,
      "note": 58,
      "start": 61.5606,
      "duration": 0.0098,
      "velocity": 127,
      "chip": "ym2612"
    },
    {
      "channel": 4,
      "note": 58,
      "start": 61.585,
      "duration": 0.0073,
      "velocity": 127,
      "chip": "ym2612"
    },
    {
      "channel": 0,
      "note": 77,
      "start": 61.6074,
      "duration": 0.0242,
      "velocity": 107,
      "chip": "ym2612"
    },
    {
      "channel": 1,
      "note": 73,
      "start": 61.6101,
      "duration": 0.0222,
      "velocity": 107,
      "chip": "ym2612"
    },
    {
      "channel": 3,
      "note": 58,
      "start": 61.6134,
      "duration": 0.0085,
      "velocity": 107,
      "chip": "ym2612"
    },
    {
      "channel": 4,
      "note": 58,
      "start": 61.6161,
      "duration": 0.0347,
      "velocity": 127,
      "chip": "ym2612"
    },
    {
      "channel": 3,
      "note": 34,
      "start": 61.6408,
      "duration": 0.006,
      "velocity": 107,
      "chip": "ym2612"
    },
    {
      "channel": 0,
      "note": 78,
      "start": 61.6654,
      "duration": 0.0235,
      "velocity": 107,
      "chip": "ym2612"
    },
    {
      "channel": 1,
      "note": 73,
      "start": 61.668,
      "duration": 0.0215,
      "velocity": 107,
      "chip": "ym2612"
    },
    {
      "channel": 3,
      "note": 34,
      "start": 61.6714,
      "duration": 0.0077,
      "velocity": 107,
      "chip": "ym2612"
    },
    {
      "channel": 4,
      "note": 58,
      "start": 61.6741,
      "duration": 0.009,
      "velocity": 127,
      "chip": "ym2612"
    },
    {
      "channel": 4,
      "note": 58,
      "start": 61.6976,
      "duration": 0.0072,
      "velocity": 127,
      "chip": "ym2612"
    },
    {
      "channel": 0,
      "note": 78,
      "start": 61.7205,
      "duration": 0.0237,
      "velocity": 107,
      "chip": "ym2612"
    },
    {
      "channel": 1,
      "note": 73,
      "start": 61.7232,
      "duration": 0.0217,
      "velocity": 107,
      "chip": "ym2612"
    },
    {
      "channel": 3,
      "note": 46,
      "start": 61.7263,
      "duration": 0.0112,
      "velocity": 79,
      "chip": "ym2612"
    },
    {
      "channel": 4,
      "note": 58,
      "start": 61.7291,
      "duration": 0.0359,
      "velocity": 127,
      "chip": "ym2612"
    },
    {
      "channel": 0,
      "note": 78,
      "start": 61.7525,
      "duration": 0.019,
      "velocity": 107,
      "chip": "ym2612"
    },
    {
      "channel": 1,
      "note": 73,
      "start": 61.7552,
      "duration": 0.0169,
      "velocity": 107,
      "chip": "ym2612"
    },
    {
      "channel": 3,
      "note": 58,
      "start": 61.7816,
      "duration": 0.0086,
      "velocity": 107,
      "chip": "ym2612"
    },
    {
      "channel": 4,
      "note": 58,
      "start": 61.7843,
      "duration": 0.0099,
      "velocity": 127,
      "chip": "ym2612"
    },
    {
      "channel": 0,
      "note": 80,
      "start": 61.8072,
      "duration": 0.0231,
      "velocity": 107,
      "chip": "ym2612"
    },
    {
      "channel": 1,
      "note": 75,
      "start": 61.8099,
      "duration": 0.021,
      "velocity": 107,
      "chip": "ym2612"
    },
    {
      "channel": 3,
      "note": 44,
      "start": 61.8132,
      "duration": 0.0063,
      "velocity": 107,
      "chip": "ym2612"
    },
    {
      "channel": 4,
      "note": 58,
      "start": 61.816,
      "duration": 0.0076,
      "velocity": 127,
      "chip": "ym2612"
    },
    {
      "channel": 0,
      "note": 80,
      "start": 61.8386,
      "duration": 0.0233,
      "velocity": 107,
      "chip": "ym2612"
    },
    {
      "channel": 1,
      "note": 75,
      "start": 61.8413,
      "duration": 0.0213,
      "velocity": 107,
      "chip": "ym2612"
    },
    {
      "channel": 3,
      "note": 44,
      "start": 61.8446,
      "duration": 0.0077,
      "velocity": 107,
      "chip": "ym2612"
    },
    {
      "channel": 4,
      "note": 58,
      "start": 61.8474,
      "duration": 0.0309,
      "velocity": 127,
      "chip": "ym2612"
    },
    {
      "channel": 3,
      "note": 46,
      "start": 61.8705,
      "duration": 0.0037,
      "velocity": 107,
      "chip": "ym2612"
    },
    {
      "channel": 0,
      "note": 80,
      "start": 61.8937,
      "duration": 0.0234,
      "velocity": 107,
      "chip": "ym2612"
    },
    {
      "channel": 1,
      "note": 75,
      "start": 61.8964,
      "duration": 0.0214,
      "velocity": 107,
      "chip": "ym2612"
    },
    {
      "channel": 3,
      "note": 46,
      "start": 61.8997,
      "duration": 0.0077,
      "velocity": 107,
      "chip": "ym2612"
    },
    {
      "channel": 4,
      "note": 58,
      "start": 61.9025,
      "duration": 0.009,
      "velocity": 127,
      "chip": "ym2612"
    },
    {
      "channel": 4,
      "note": 58,
      "start": 61.926,
      "duration": 0.0072,
      "velocity": 127,
      "chip": "ym2612"
    },
    {
      "channel": 0,
      "note": 80,
      "start": 61.9487,
      "duration": 0.0234,
      "velocity": 107,
      "chip": "ym2612"
    },
    {
      "channel": 1,
      "note": 75,
      "start": 61.9514,
      "duration": 0.0214,
      "velocity": 107,
      "chip": "ym2612"
    },
    {
      "channel": 3,
      "note": 37,
      "start": 61.9547,
      "duration": 0.0077,
      "velocity": 107,
      "chip": "ym2612"
    },
    {
      "channel": 4,
      "note": 58,
      "start": 61.9575,
      "duration": 0.0342,
      "velocity": 127,
      "chip": "ym2612"
    },
    {
      "channel": 3,
      "note": 39,
      "start": 61.9825,
      "duration": 0.0052,
      "velocity": 107,
      "chip": "ym2612"
    },
    {
      "channel": 0,
      "note": 80,
      "start": 62.0054,
      "duration": 0.0233,
      "velocity": 107,
      "chip": "ym2612"
    },
    {
      "channel": 1,
      "note": 75,
      "start": 62.0081,
      "duration": 0.0213,
      "velocity": 107,
      "chip": "ym2612"
    },
    {
      "channel": 3,
      "note": 39,
      "start": 62.0112,
      "duration": 0.0111,
      "velocity": 79,
      "chip": "ym2612"
    },
    {
      "channel": 4,
      "note": 58,
      "start": 62.014,
      "duration": 0.009,
      "velocity": 127,
      "chip": "ym2612"
    },
    {
      "channel": 4,
      "note": 58,
      "start": 62.0376,
      "duration": 0.0074,
      "velocity": 127,
      "chip": "ym2612"
    },
    {
      "channel": 0,
      "note": 80,
      "start": 62.06,
      "duration": 0.0242,
      "velocity": 107,
      "chip": "ym2612"
    },
    {
      "channel": 1,
      "note": 75,
      "start": 62.0627,
      "duration": 0.0222,
      "velocity": 107,
      "chip": "ym2612"
    },
    {
      "channel": 3,
      "note": 58,
      "start": 62.0659,
      "duration": 0.0086,
      "velocity": 107,
      "chip": "ym2612"
    },
    {
      "channel": 4,
      "note": 58,
      "start": 62.0687,
      "duration": 0.0347,
      "velocity": 127,
      "chip": "ym2612"
    },
    {
      "channel": 3,
      "note": 34,
      "start": 62.0933,
      "duration": 0.006,
      "velocity": 107,
      "chip": "ym2612"
    },
    {
      "channel": 0,
      "note": 77,
      "start": 62.1179,
      "duration": 0.0235,
      "velocity": 107,
      "chip": "ym2612"
    },
    {
      "channel": 1,
      "note": 73,
      "start": 62.1206,
      "duration": 0.0214,
      "velocity": 107,
      "chip": "ym2612"
    },
    {
      "channel": 3,
      "note": 34,
      "start": 62.1239,
      "duration": 0.0077,
      "velocity": 107,
      "chip": "ym2612"
    },
    {
      "channel": 4,
      "note": 58,
      "start": 62.1266,
      "duration": 0.009,
      "velocity": 127,
      "chip": "ym2612"
    },
    {
      "channel": 4,
      "note": 58,
      "start": 62.1502,
      "duration": 0.0072,
      "velocity": 127,
      "chip": "ym2612"
    },
    {
      "channel": 0,
      "note": 77,
      "start": 62.173,
      "duration": 0.0235,
      "velocity": 107,
      "chip": "ym2612"
    },
    {
      "channel": 1,
      "note": 73,
      "start": 62.1757,
      "duration": 0.0215,
      "velocity": 107,
      "chip": "ym2612"
    },
    {
      "channel": 3,
      "note": 46,
      "start": 62.1789,
      "duration": 0.0111,
      "velocity": 79,
      "chip": "ym2612"
    },
    {
      "channel": 4,
      "note": 58,
      "start": 62.1816,
      "duration": 0.0326,
      "velocity": 127,
      "chip": "ym2612"
    },
    {
      "channel": 0,
      "note": 77,
      "start": 62.2033,
      "duration": 0.0172,
      "velocity": 107,
      "chip": "ym2612"
    },
    {
      "channel": 1,
      "note": 73,
      "start": 62.206,
      "duration": 0.0152,
      "velocity": 107,
      "chip": "ym2612"
    },
    {
      "channel": 3,
      "note": 58,
      "start": 62.2295,
      "duration": 0.0092,
      "velocity": 107,
      "chip": "ym2612"
    },
    {
      "channel": 4,
      "note": 58,
      "start": 62.2323,
      "duration": 0.0105,
      "velocity": 127,
      "chip": "ym2612"
    },
    {
      "channel": 0,
      "note": 77,
      "start": 62.2566,
      "duration": 0.0246,
      "velocity": 107,
      "chip": "ym2612"
    },
    {
      "channel": 1,
      "note": 73,
      "start": 62.2593,
      "duration": 0.0226,
      "velocity": 107,
      "chip": "ym2612"
    },
    {
      "channel": 3,
      "note": 44,
      "start": 62.2626,
      "duration": 0.0077,
      "velocity": 107,
      "chip": "ym2612"
    },
    {
      "channel": 4,
      "note": 58,
      "start": 62.2653,
      "duration": 0.0091,
      "velocity": 127,
      "chip": "ym2612"
    },
    {
      "channel": 0,
      "note": 77,
      "start": 62.2889,
      "duration": 0.0241,
      "velocity": 107,
      "chip": "ym2612"
    },
    {
      "channel": 1,
      "note": 73,
      "start": 62.2916,
      "duration": 0.0221,
      "velocity": 107,
      "chip": "ym2612"
    },
    {
      "channel": 3,
      "note": 44,
      "start": 62.2949,
      "duration": 0.0086,
      "velocity": 107,
      "chip": "ym2612"
    },
    {
      "channel": 4,
      "note": 58,
      "start": 62.2976,
      "duration": 0.0316,
      "velocity": 127,
      "chip": "ym2612"
    },
    {
      "channel": 3,
      "note": 46,
      "start": 62.3216,
      "duration": 0.0036,
      "velocity": 107,
      "chip": "ym2612"
    },
    {
      "channel": 0,
      "note": 77,
      "start": 62.3444,
      "duration": 0.0235,
      "velocity": 107,
      "chip": "ym2612"
    },
    {
      "channel": 1,
      "note": 73,
      "start": 62.3471,
      "duration": 0.0214,
      "velocity": 107,
      "chip": "ym2612"
    },
    {
      "channel": 3,
      "note": 46,
      "start": 62.3504,
      "duration": 0.0077,
      "velocity": 107,
      "chip": "ym2612"
    },
    {
      "channel": 4,
      "note": 58,
      "start": 62.3531,
      "duration": 0.0089,
      "velocity": 127,
      "chip": "ym2612"
    },
    {
      "channel": 4,
      "note": 58,
      "start": 62.3765,
      "duration": 0.0072,
      "velocity": 127,
      "chip": "ym2612"
    },
    {
      "channel": 0,
      "note": 77,
      "start": 62.3994,
      "duration": 0.0231,
      "velocity": 107,
      "chip": "ym2612"
    },
    {
      "channel": 1,
      "note": 73,
      "start": 62.4021,
      "duration": 0.0211,
      "velocity": 107,
      "chip": "ym2612"
    },
    {
      "channel": 3,
      "note": 37,
      "start": 62.4053,
      "duration": 0.0111,
      "velocity": 79,
      "chip": "ym2612"
    },
    {
      "channel": 4,
      "note": 58,
      "start": 62.408,
      "duration": 0.0306,
      "velocity": 127,
      "chip": "ym2612"
    },
    {
      "channel": 3,
      "note": 58,
      "start": 62.431,
      "duration": 0.0071,
      "velocity": 79,
      "chip": "ym2612"
    },
    {
      "channel": 0,
      "note": 77,
      "start": 62.4522,
      "duration": 0.0233,
      "velocity": 107,
      "chip": "ym2612"
    },
    {
      "channel": 1,
      "note": 73,
      "start": 62.4549,
      "duration": 0.0212,
      "velocity": 107,
      "chip": "ym2612"
    },
    {
      "channel": 3,
      "note": 58,
      "start": 62.4581,
      "duration": 0.011,
      "velocity": 79,
      "chip": "ym2612"
    },
    {
      "channel": 4,
      "note": 58,
      "start": 62.4609,
      "duration": 0.0089,
      "velocity": 127,
      "chip": "ym2612"
    },
    {
      "channel": 4,
      "note": 58,
      "start": 62.4844,
      "duration": 0.0073,
      "velocity": 127,
      "chip": "ym2612"
    },
    {
      "channel": 0,
      "note": 77,
      "start": 62.5068,
      "duration": 0.0243,
      "velocity": 107,
      "chip": "ym2612"
    },
    {
      "channel": 1,
      "note": 73,
      "start": 62.5095,
      "duration": 0.0223,
      "velocity": 107,
      "chip": "ym2612"
    },
    {
      "channel": 3,
      "note": 58,
      "start": 62.5128,
      "duration": 0.0086,
      "velocity": 107,
      "chip": "ym2612"
    },
    {
      "channel": 4,
      "note": 58,
      "start": 62.5155,
      "duration": 0.0347,
      "velocity": 127,
      "chip": "ym2612"
    },
    {
      "channel": 3,
      "note": 34,
      "start": 62.5402,
      "duration": 0.006,
      "velocity": 107,
      "chip": "ym2612"
    },
    {
      "channel": 0,
      "note": 78,
      "start": 62.5647,
      "duration": 0.0235,
      "velocity": 107,
      "chip": "ym2612"
    },
    {
      "channel": 1,
      "note": 73,
      "start": 62.5674,
      "duration": 0.0214,
      "velocity": 107,
      "chip": "ym2612"
    },
    {
      "channel": 3,
      "note": 34,
      "start": 62.5707,
      "duration": 0.0077,
      "velocity": 107,
      "chip": "ym2612"
    },
    {
      "channel": 4,
      "note": 58,
      "start": 62.5735,
      "duration": 0.009,
      "velocity": 127,
      "chip": "ym2612"
    },
    {
      "channel": 4,
      "note": 58,
      "start": 62.597,
      "duration": 0.0072,
      "velocity": 127,
      "chip": "ym2612"
    },
    {
      "channel": 0,
      "note": 78,
      "start": 62.6199,
      "duration": 0.0235,
      "velocity": 107,
      "chip": "ym2612"
    },
    {
      "channel": 1,
      "note": 73,
      "start": 62.6226,
      "duration": 0.0215,
      "velocity": 107,
      "chip": "ym2612"
    },
    {
      "channel": 3,
      "note": 46,
      "start": 62.6257,
      "duration": 0.0111,
      "velocity": 79,
      "chip": "ym2612"
    },
    {
      "channel": 4,
      "note": 58,
      "start": 62.6285,
      "duration": 0.0326,
      "velocity": 127,
      "chip": "ym2612"
    },
    {
      "channel": 0,
      "note": 78,
      "start": 62.6501,
      "duration": 0.0174,
      "velocity": 107,
      "chip": "ym2612"
    },
    {
      "channel": 1,
      "note": 73,
      "start": 62.6528,
      "duration": 0.0153,
      "velocity": 107,
      "chip": "ym2612"
    },
    {
      "channel": 3,
      "note": 58,
      "start": 62.6764,
      "duration": 0.0085,
      "velocity": 107,
      "chip": "ym2612"
    },
    {
      "channel": 4,
      "note": 58,
      "start": 62.6791,
      "duration": 0.0099,
      "velocity": 127,
      "chip": "ym2612"
    },
    {
      "channel": 0,
      "note": 80,
      "start": 62.702,
      "duration": 0.0232,
      "velocity": 107,
      "chip": "ym2612"
    },
    {
      "channel": 1,
      "note": 75,
      "start": 62.7047,
      "duration": 0.0211,
      "velocity": 107,
      "chip": "ym2612"
    },
    {
      "channel": 3,
      "note": 44,
      "start": 62.708,
      "duration": 0.0062,
      "velocity": 107,
      "chip": "ym2612"
    },
    {
      "channel": 4,
      "note": 58,
      "start": 62.7108,
      "duration": 0.0076,
      "velocity": 127,
      "chip": "ym2612"
    },
    {
      "channel": 0,
      "note": 80,
      "start": 62.7335,
      "duration": 0.0232,
      "velocity": 107,
      "chip": "ym2612"
    },
    {
      "channel": 1,
      "note": 75,
      "start": 62.7362,
      "duration": 0.0212,
      "velocity": 107,
      "chip": "ym2612"
    },
    {
      "channel": 3,
      "note": 44,
      "start": 62.7395,
      "duration": 0.0078,
      "velocity": 107,
      "chip": "ym2612"
    },
    {
      "channel": 4,
      "note": 58,
      "start": 62.7422,
      "duration": 0.0278,
      "velocity": 127,
      "chip": "ym2612"
    },
    {
      "channel": 0,
      "note": 80,
      "start": 62.786,
      "duration": 0.0215,
      "velocity": 107,
      "chip": "ym2612"
    },
    {
      "channel": 1,
      "note": 75,
      "start": 62.7887,
      "duration": 0.0195,
      "velocity": 107,
      "chip": "ym2612"
    },
    {
      "channel": 3,
      "note": 46,
      "start": 62.7916,
      "duration": 0.0073,
      "velocity": 107,
      "chip": "ym2612"
    },
    {
      "channel": 4,
      "note": 58,
      "start": 62.7944,
      "duration": 0.0083,
      "velocity": 127,
      "chip": "ym2612"
    },
    {
      "channel": 3,
      "note": 37,
      "start": 62.8155,
      "duration": 0.0058,
      "velocity": 107,
      "chip": "ym2612"
    },
    {
      "channel": 4,
      "note": 58,
      "start": 62.8182,
      "duration": 0.0067,
      "velocity": 127,
      "chip": "ym2612"
    },
    {
      "channel": 0,
      "note": 80,
      "start": 62.837,
      "duration": 0.0211,
      "velocity": 107,
      "chip": "ym2612"
    },
    {
      "channel": 1,
      "note": 75,
      "start": 62.8397,
      "duration": 0.0191,
      "velocity": 107,
      "chip": "ym2612"
    },
    {
      "channel": 3,
      "note": 37,
      "start": 62.8427,
      "duration": 0.0074,
      "velocity": 107,
      "chip": "ym2612"
    },
    {
      "channel": 4,
      "note": 58,
      "start": 62.8454,
      "duration": 0.0294,
      "velocity": 127,
      "chip": "ym2612"
    },
    {
      "channel": 3,
      "note": 39,
      "start": 62.8668,
      "duration": 0.0074,
      "velocity": 79,
      "chip": "ym2612"
    },
    {
      "channel": 0,
      "note": 82,
      "start": 62.8896,
      "duration": 0.0265,
      "velocity": 107,
      "chip": "ym2612"
    },
    {
      "channel": 1,
      "note": 77,
      "start": 62.8923,
      "duration": 0.0244,
      "velocity": 107,
      "chip": "ym2612"
    },
    {
      "channel": 2,
      "note": 71,
      "start": 62.895,
      "duration": 0.0224,
      "velocity": 107,
      "chip": "ym2612"
    },
    {
      "channel": 3,
      "note": 58,
      "start": 62.8978,
      "duration": 0.012,
      "velocity": 79,
      "chip": "ym2612"
    },
    {
      "channel": 4,
      "note": 58,
      "start": 62.9005,
      "duration": 0.0098,
      "velocity": 127,
      "chip": "ym2612"
    },
    {
      "channel": 4,
      "note": 58,
      "start": 62.9255,
      "duration": 0.0072,
      "velocity": 127,
      "chip": "ym2612"
    },
    {
      "channel": 0,
      "note": 82,
      "start": 62.9483,
      "duration": 0.0256,
      "velocity": 107,
      "chip": "ym2612"
    },
    {
      "channel": 1,
      "note": 77,
      "start": 62.951,
      "duration": 0.0235,
      "velocity": 107,
      "chip": "ym2612"
    },
    {
      "channel": 2,
      "note": 73,
      "start": 62.9537,
      "duration": 0.0215,
      "velocity": 107,
      "chip": "ym2612"
    },
    {
      "channel": 3,
      "note": 58,
      "start": 62.9566,
      "duration": 0.0076,
      "velocity": 107,
      "chip": "ym2612"
    },
    {
      "channel": 4,
      "note": 58,
      "start": 62.9593,
      "duration": 0.0338,
      "velocity": 127,
      "chip": "ym2612"
    },
    {
      "channel": 3,
      "note": 34,
      "start": 62.983,
      "duration": 0.006,
      "velocity": 107,
      "chip": "ym2612"
    },
    {
      "channel": 0,
      "note": 77,
      "start": 63.0076,
      "duration": 0.0257,
      "velocity": 107,
      "chip": "ym2612"
    },
    {
      "channel": 1,
      "note": 73,
      "start": 63.0102,
      "duration": 0.0237,
      "velocity": 107,
      "chip": "ym2612"
    },
    {
      "channel": 2,
      "note": 70,
      "start": 63.0129,
      "duration": 0.0217,
      "velocity": 107,
      "chip": "ym2612"
    },
    {
      "channel": 3,
      "note": 34,
      "start": 63.0158,
      "duration": 0.0077,
      "velocity": 107,
      "chip": "ym2612"
    },
    {
      "channel": 4,
      "note": 58,
      "start": 63.0185,
      "duration": 0.009,
      "velocity": 127,
      "chip": "ym2612"
    },
    {
      "channel": 4,
      "note": 58,
      "start": 63.0425,
      "duration": 0.0072,
      "velocity": 127,
      "chip": "ym2612"
    },
    {
      "channel": 0,
      "note": 77,
      "start": 63.0637,
      "duration": 0.026,
      "velocity": 107,
      "chip": "ym2612"
    },
    {
      "channel": 1,
      "note": 73,
      "start": 63.0664,
      "duration": 0.024,
      "velocity": 107,
      "chip": "ym2612"
    },
    {
      "channel": 2,
      "note": 70,
      "start": 63.0691,
      "duration": 0.0224,
      "velocity": 107,
      "chip": "ym2612"
    },
    {
      "channel": 3,
      "note": 46,
      "start": 63.0719,
      "duration": 0.0111,
      "velocity": 79,
      "chip": "ym2612"
    },
    {
      "channel": 4,
      "note": 58,
      "start": 63.0746,
      "duration": 0.0355,
      "velocity": 127,
      "chip": "ym2612"
    },
    {
      "channel": 0,
      "note": 77,
      "start": 63.0969,
      "duration": 0.0195,
      "velocity": 107,
      "chip": "ym2612"
    },
    {
      "channel": 1,
      "note": 73,
      "start": 63.0996,
      "duration": 0.0175,
      "velocity": 107,
      "chip": "ym2612"
    },
    {
      "channel": 2,
      "note": 70,
      "start": 63.1023,
      "duration": 0.0158,
      "velocity": 107,
      "chip": "ym2612"
    },
    {
      "channel": 3,
      "note": 58,
      "start": 63.1261,
      "duration": 0.0077,
      "velocity": 107,
      "chip": "ym2612"
    },
    {
      "channel": 4,
      "note": 58,
      "start": 63.1289,
      "duration": 0.009,
      "velocity": 127,
      "chip": "ym2612"
    },
    {
      "channel": 0,
      "note": 77,
      "start": 63.1541,
      "duration": 0.0271,
      "velocity": 107,
      "chip": "ym2612"
    },
    {
      "channel": 1,
      "note": 73,
      "start": 63.1568,
      "duration": 0.0256,
      "velocity": 107,
      "chip": "ym2612"
    },
    {
      "channel": 2,
      "note": 70,
      "start": 63.1595,
      "duration": 0.0235,
      "velocity": 107,
      "chip": "ym2612"
    },
    {
      "channel": 3,
      "note": 44,
      "start": 63.1623,
      "duration": 0.0078,
      "velocity": 107,
      "chip": "ym2612"
    },
    {
      "channel": 4,
      "note": 58,
      "start": 63.1651,
      "duration": 0.009,
      "velocity": 127,
      "chip": "ym2612"
    },
    {
      "channel": 0,
      "note": 77,
      "start": 63.1888,
      "duration": 0.0264,
      "velocity": 107,
      "chip": "ym2612"
    },
    {
      "channel": 1,
      "note": 73,
      "start": 63.1915,
      "duration": 0.0244,
      "velocity": 107,
      "chip": "ym2612"
    },
    {
      "channel": 2,
      "note": 70,
      "start": 63.1942,
      "duration": 0.0223,
      "velocity": 107,
      "chip": "ym2612"
    },
    {
      "channel": 3,
      "note": 44,
      "start": 63.197,
      "duration": 0.0086,
      "velocity": 107,
      "chip": "ym2612"
    },
    {
      "channel": 4,
      "note": 58,
      "start": 63.1998,
      "duration": 0.032,
      "velocity": 127,
      "chip": "ym2612"
    },
    {
      "channel": 3,
      "note": 46,
      "start": 63.2241,
      "duration": 0.0037,
      "velocity": 107,
      "chip": "ym2612"
    },
    {
      "channel": 0,
      "note": 77,
      "start": 63.2475,
      "duration": 0.0257,
      "velocity": 107,
      "chip": "ym2612"
    },
    {
      "channel": 1,
      "note": 73,
      "start": 63.2502,
      "duration": 0.0237,
      "velocity": 107,
      "chip": "ym2612"
    },
    {
      "channel": 2,
      "note": 70,
      "start": 63.2529,
      "duration": 0.0216,
      "velocity": 107,
      "chip": "ym2612"
    },
    {
      "channel": 3,
      "note": 46,
      "start": 63.2557,
      "duration": 0.0077,
      "velocity": 107,
      "chip": "ym2612"
    },
    {
      "channel": 4,
      "note": 58,
      "start": 63.2585,
      "duration": 0.009,
      "velocity": 127,
      "chip": "ym2612"
    },
    {
      "channel": 4,
      "note": 58,
      "start": 63.2824,
      "duration": 0.0072,
      "velocity": 127,
      "chip": "ym2612"
    },
    {
      "channel": 0,
      "note": 77,
      "start": 63.3055,
      "duration": 0.0251,
      "velocity": 107,
      "chip": "ym2612"
    },
    {
      "channel": 1,
      "note": 73,
      "start": 63.3082,
      "duration": 0.0231,
      "velocity": 107,
      "chip": "ym2612"
    },
    {
      "channel": 2,
      "note": 70,
      "start": 63.3109,
      "duration": 0.021,
      "velocity": 107,
      "chip": "ym2612"
    },
    {
      "channel": 3,
      "note": 37,
      "start": 63.3136,
      "duration": 0.011,
      "velocity": 79,
      "chip": "ym2612"
    },
    {
      "channel": 4,
      "note": 58,
      "start": 63.3164,
      "duration": 0.028,
      "velocity": 127,
      "chip": "ym2612"
    },
    {
      "channel": 0,
      "note": 77,
      "start": 63.3582,
      "duration": 0.0255,
      "velocity": 107,
      "chip": "ym2612"
    },
    {
      "channel": 1,
      "note": 73,
      "start": 63.3609,
      "duration": 0.0234,
      "velocity": 107,
      "chip": "ym2612"
    },
    {
      "channel": 2,
      "note": 70,
      "start": 63.3636,
      "duration": 0.0214,
      "velocity": 107,
      "chip": "ym2612"
    },
    {
      "channel": 3,
      "note": 46,
      "start": 63.3663,
      "duration": 0.011,
      "velocity": 79,
      "chip": "ym2612"
    },
    {
      "channel": 4,
      "note": 58,
      "start": 63.3691,
      "duration": 0.0089,
      "velocity": 127,
      "chip": "ym2612"
    },
    {
      "channel": 4,
      "note": 58,
      "start": 63.393,
      "duration": 0.0072,
      "velocity": 127,
      "chip": "ym2612"
    },
    {
      "channel": 0,
      "note": 77,
      "start": 63.416,
      "duration": 0.0257,
      "velocity": 107,
      "chip": "ym2612"
    },
    {
      "channel": 1,
      "note": 73,
      "start": 63.4187,
      "duration": 0.0237,
      "velocity": 107,
      "chip": "ym2612"
    },
    {
      "channel": 2,
      "note": 70,
      "start": 63.4214,
      "duration": 0.0216,
      "velocity": 107,
      "chip": "ym2612"
    },
    {
      "channel": 3,
      "note": 58,
      "start": 63.4242,
      "duration": 0.0078,
      "velocity": 107,
      "chip": "ym2612"
    },
    {
      "channel": 4,
      "note": 58,
      "start": 63.427,
      "duration": 0.0338,
      "velocity": 127,
      "chip": "ym2612"
    },
    {
      "channel": 3,
      "note": 34,
      "start": 63.4507,
      "duration": 0.0061,
      "velocity": 107,
      "chip": "ym2612"
    },
    {
      "channel": 0,
      "note": 78,
      "start": 63.4753,
      "duration": 0.0257,
      "velocity": 107,
      "chip": "ym2612"
    },
    {
      "channel": 1,
      "note": 73,
      "start": 63.4779,
      "duration": 0.0237,
      "velocity": 107,
      "chip": "ym2612"
    },
    {
      "channel": 2,
      "note": 70,
      "start": 63.4806,
      "duration": 0.0217,
      "velocity": 107,
      "chip": "ym2612"
    },
    {
      "channel": 3,
      "note": 34,
      "start": 63.4835,
      "duration": 0.0078,
      "velocity": 107,
      "chip": "ym2612"
    },
    {
      "channel": 4,
      "note": 58,
      "start": 63.4863,
      "duration": 0.009,
      "velocity": 127,
      "chip": "ym2612"
    },
    {
      "channel": 4,
      "note": 58,
      "start": 63.5102,
      "duration": 0.0072,
      "velocity": 127,
      "chip": "ym2612"
    },
    {
      "channel": 0,
      "note": 78,
      "start": 63.5332,
      "duration": 0.0263,
      "velocity": 107,
      "chip": "ym2612"
    },
    {
      "channel": 1,
      "note": 73,
      "start": 63.5359,
      "duration": 0.0242,
      "velocity": 107,
      "chip": "ym2612"
    },
    {
      "channel": 2,
      "note": 70,
      "start": 63.5385,
      "duration": 0.0227,
      "velocity": 107,
      "chip": "ym2612"
    },
    {
      "channel": 3,
      "note": 46,
      "start": 63.5413,
      "duration": 0.0111,
      "velocity": 79,
      "chip": "ym2612"
    },
    {
      "channel": 4,
      "note": 58,
      "start": 63.5441,
      "duration": 0.0385,
      "velocity": 127,
      "chip": "ym2612"
    },
    {
      "channel": 0,
      "note": 78,
      "start": 63.5678,
      "duration": 0.0212,
      "velocity": 107,
      "chip": "ym2612"
    },
    {
      "channel": 1,
      "note": 73,
      "start": 63.5705,
      "duration": 0.0192,
      "velocity": 107,
      "chip": "ym2612"
    },
    {
      "channel": 2,
      "note": 70,
      "start": 63.5732,
      "duration": 0.0176,
      "velocity": 107,
      "chip": "ym2612"
    },
    {
      "channel": 3,
      "note": 58,
      "start": 63.5995,
      "duration": 0.0086,
      "velocity": 107,
      "chip": "ym2612"
    },
    {
      "channel": 4,
      "note": 58,
      "start": 63.6022,
      "duration": 0.0099,
      "velocity": 127,
      "chip": "ym2612"
    },
    {
      "channel": 0,
      "note": 80,
      "start": 63.6256,
      "duration": 0.0256,
      "velocity": 107,
      "chip": "ym2612"
    },
    {
      "channel": 1,
      "note": 75,
      "start": 63.6283,
      "duration": 0.024,
      "velocity": 107,
      "chip": "ym2612"
    },
    {
      "channel": 2,
      "note": 72,
      "start": 63.631,
      "duration": 0.022,
      "velocity": 107,
      "chip": "ym2612"
    },
    {
      "channel": 3,
      "note": 44,
      "start": 63.6339,
      "duration": 0.0062,
      "velocity": 107,
      "chip": "ym2612"
    },
    {
      "channel": 4,
      "note": 58,
      "start": 63.6366,
      "duration": 0.0075,
      "velocity": 127,
      "chip": "ym2612"
    },
    {
      "channel": 0,
      "note": 80,
      "start": 63.6592,
      "duration": 0.0256,
      "velocity": 107,
      "chip": "ym2612"
    },
    {
      "channel": 1,
      "note": 75,
      "start": 63.6619,
      "duration": 0.0236,
      "velocity": 107,
      "chip": "ym2612"
    },
    {
      "channel": 2,
      "note": 72,
      "start": 63.6646,
      "duration": 0.0215,
      "velocity": 107,
      "chip": "ym2612"
    },
    {
      "channel": 3,
      "note": 44,
      "start": 63.6674,
      "duration": 0.0078,
      "velocity": 107,
      "chip": "ym2612"
    },
    {
      "channel": 4,
      "note": 58,
      "start": 63.6702,
      "duration": 0.0313,
      "velocity": 127,
      "chip": "ym2612"
    },
    {
      "channel": 3,
      "note": 46,
      "start": 63.6937,
      "duration": 0.0037,
      "velocity": 107,
      "chip": "ym2612"
    },
    {
      "channel": 0,
      "note": 80,
      "start": 63.7171,
      "duration": 0.0257,
      "velocity": 107,
      "chip": "ym2612"
    },
    {
      "channel": 1,
      "note": 75,
      "start": 63.7198,
      "duration": 0.0237,
      "velocity": 107,
      "chip": "ym2612"
    },
    {
      "channel": 2,
      "note": 72,
      "start": 63.7225,
      "duration": 0.0216,
      "velocity": 107,
      "chip": "ym2612"
    },
    {
      "channel": 3,
      "note": 46,
      "start": 63.7254,
      "duration": 0.0077,
      "velocity": 107,
      "chip": "ym2612"
    },
    {
      "channel": 4,
      "note": 58,
      "start": 63.7281,
      "duration": 0.009,
      "velocity": 127,
      "chip": "ym2612"
    },
    {
      "channel": 4,
      "note": 58,
      "start": 63.7521,
      "duration": 0.0072,
      "velocity": 127,
      "chip": "ym2612"
    },
    {
      "channel": 0,
      "note": 80,
      "start": 63.775,
      "duration": 0.0257,
      "velocity": 107,
      "chip": "ym2612"
    },
    {
      "channel": 1,
      "note": 75,
      "start": 63.7777,
      "duration": 0.0237,
      "velocity": 107,
      "chip": "ym2612"
    },
    {
      "channel": 2,
      "note": 72,
      "start": 63.7804,
      "duration": 0.0216,
      "velocity": 107,
      "chip": "ym2612"
    },
    {
      "channel": 3,
      "note": 37,
      "start": 63.7832,
      "duration": 0.0077,
      "velocity": 107,
      "chip": "ym2612"
    },
    {
      "channel": 4,
      "note": 58,
      "start": 63.786,
      "duration": 0.0347,
      "velocity": 127,
      "chip": "ym2612"
    },
    {
      "channel": 3,
      "note": 39,
      "start": 63.8115,
      "duration": 0.0052,
      "velocity": 107,
      "chip": "ym2612"
    },
    {
      "channel": 0,
      "note": 80,
      "start": 63.8347,
      "duration": 0.0256,
      "velocity": 107,
      "chip": "ym2612"
    },
    {
      "channel": 1,
      "note": 75,
      "start": 63.8374,
      "duration": 0.0235,
      "velocity": 107,
      "chip": "ym2612"
    },
    {
      "channel": 2,
      "note": 72,
      "start": 63.84,
      "duration": 0.0215,
      "velocity": 107,
      "chip": "ym2612"
    },
    {
      "channel": 3,
      "note": 39,
      "start": 63.8428,
      "duration": 0.0111,
      "velocity": 79,
      "chip": "ym2612"
    },
    {
      "channel": 4,
      "note": 58,
      "start": 63.8456,
      "duration": 0.009,
      "velocity": 127,
      "chip": "ym2612"
    },
    {
      "channel": 4,
      "note": 58,
      "start": 63.8696,
      "duration": 0.0072,
      "velocity": 127,
      "chip": "ym2612"
    },
    {
      "channel": 0,
      "note": 80,
      "start": 63.8924,
      "duration": 0.0256,
      "velocity": 107,
      "chip": "ym2612"
    },
    {
      "channel": 1,
      "note": 75,
      "start": 63.8951,
      "duration": 0.0236,
      "velocity": 107,
      "chip": "ym2612"
    },
    {
      "channel": 2,
      "note": 72,
      "start": 63.8978,
      "duration": 0.0216,
      "velocity": 107,
      "chip": "ym2612"
    },
    {
      "channel": 3,
      "note": 58,
      "start": 63.9007,
      "duration": 0.0077,
      "velocity": 107,
      "chip": "ym2612"
    },
    {
      "channel": 4,
      "note": 58,
      "start": 63.9034,
      "duration": 0.0341,
      "velocity": 127,
      "chip": "ym2612"
    },
    {
      "channel": 3,
      "note": 34,
      "start": 63.9274,
      "duration": 0.006,
      "velocity": 107,
      "chip": "ym2612"
    },
    {
      "channel": 0,
      "note": 77,
      "start": 63.952,
      "duration": 0.0257,
      "velocity": 107,
      "chip": "ym2612"
    },
    {
      "channel": 1,
      "note": 73,
      "start": 63.9546,
      "duration": 0.0237,
      "velocity": 107,
      "chip": "ym2612"
    },
    {
      "channel": 2,
      "note": 70,
      "start": 63.9573,
      "duration": 0.0217,
      "velocity": 107,
      "chip": "ym2612"
    },
    {
      "channel": 3,
      "note": 34,
      "start": 63.9602,
      "duration": 0.0077,
      "velocity": 107,
      "chip": "ym2612"
    },
    {
      "channel": 4,
      "note": 58,
      "start": 63.9629,
      "duration": 0.009,
      "velocity": 127,
      "chip": "ym2612"
    },
    {
      "channel": 4,
      "note": 58,
      "start": 63.9869,
      "duration": 0.0072,
      "velocity": 127,
      "chip": "ym2612"
    },
    {
      "channel": 0,
      "note": 77,
      "start": 64.0081,
      "duration": 0.0261,
      "velocity": 107,
      "chip": "ym2612"
    },
    {
      "channel": 1,
      "note": 73,
      "start": 64.0108,
      "duration": 0.024,
      "velocity": 107,
      "chip": "ym2612"
    },
    {
      "channel": 2,
      "note": 70,
      "start": 64.0135,
      "duration": 0.0224,
      "velocity": 107,
      "chip": "ym2612"
    },
    {
      "channel": 3,
      "note": 46,
      "start": 64.0163,
      "duration": 0.0111,
      "velocity": 79,
      "chip": "ym2612"
    },
    {
      "channel": 4,
      "note": 58,
      "start": 64.019,
      "duration": 0.0355,
      "velocity": 127,
      "chip": "ym2612"
    },
    {
      "channel": 0,
      "note": 77,
      "start": 64.0413,
      "duration": 0.0195,
      "velocity": 107,
      "chip": "ym2612"
    },
    {
      "channel": 1,
      "note": 73,
      "start": 64.044,
      "duration": 0.0175,
      "velocity": 107,
      "chip": "ym2612"
    },
    {
      "channel": 2,
      "note": 70,
      "start": 64.0467,
      "duration": 0.0158,
      "velocity": 107,
      "chip": "ym2612"
    },
    {
      "channel": 3,
      "note": 58,
      "start": 64.0706,
      "duration": 0.0077,
      "velocity": 107,
      "chip": "ym2612"
    },
    {
      "channel": 4,
      "note": 58,
      "start": 64.0733,
      "duration": 0.009,
      "velocity": 127,
      "chip": "ym2612"
    },
    {
      "channel": 0,
      "note": 77,
      "start": 64.0985,
      "duration": 0.0271,
      "velocity": 107,
      "chip": "ym2612"
    },
    {
      "channel": 1,
      "note": 73,
      "start": 64.1012,
      "duration": 0.0256,
      "velocity": 107,
      "chip": "ym2612"
    },
    {
      "channel": 2,
      "note": 70,
      "start": 64.1039,
      "duration": 0.0235,
      "velocity": 107,
      "chip": "ym2612"
    },
    {
      "channel": 3,
      "note": 44,
      "start": 64.1068,
      "duration": 0.0077,
      "velocity": 107,
      "chip": "ym2612"
    },
    {
      "channel": 4,
      "note": 58,
      "start": 64.1095,
      "duration": 0.009,
      "velocity": 127,
      "chip": "ym2612"
    },
    {
      "channel": 0,
      "note": 77,
      "start": 64.1332,
      "duration": 0.0264,
      "velocity": 107,
      "chip": "ym2612"
    },
    {
      "channel": 1,
      "note": 73,
      "start": 64.1359,
      "duration": 0.0244,
      "velocity": 107,
      "chip": "ym2612"
    },
    {
      "channel": 2,
      "note": 70,
      "start": 64.1386,
      "duration": 0.0224,
      "velocity": 107,
      "chip": "ym2612"
    },
    {
      "channel": 3,
      "note": 44,
      "start": 64.1415,
      "duration": 0.0086,
      "velocity": 107,
      "chip": "ym2612"
    },
    {
      "channel": 4,
      "note": 58,
      "start": 64.1442,
      "duration": 0.0321,
      "velocity": 127,
      "chip": "ym2612"
    },
    {
      "channel": 3,
      "note": 46,
      "start": 64.1685,
      "duration": 0.0037,
      "velocity": 107,
      "chip": "ym2612"
    },
    {
      "channel": 0,
      "note": 77,
      "start": 64.192,
      "duration": 0.0257,
      "velocity": 107,
      "chip": "ym2612"
    },
    {
      "channel": 1,
      "note": 73,
      "start": 64.1946,
      "duration": 0.0237,
      "velocity": 107,
      "chip": "ym2612"
    },
    {
      "channel": 2,
      "note": 70,
      "start": 64.1973,
      "duration": 0.0216,
      "velocity": 107,
      "chip": "ym2612"
    },
    {
      "channel": 3,
      "note": 46,
      "start": 64.2002,
      "duration": 0.0077,
      "velocity": 107,
      "chip": "ym2612"
    },
    {
      "channel": 4,
      "note": 58,
      "start": 64.2029,
      "duration": 0.009,
      "velocity": 127,
      "chip": "ym2612"
    },
    {
      "channel": 4,
      "note": 58,
      "start": 64.2269,
      "duration": 0.0072,
      "velocity": 127,
      "chip": "ym2612"
    },
    {
      "channel": 0,
      "note": 77,
      "start": 64.25,
      "duration": 0.0253,
      "velocity": 107,
      "chip": "ym2612"
    },
    {
      "channel": 1,
      "note": 73,
      "start": 64.2527,
      "duration": 0.0233,
      "velocity": 107,
      "chip": "ym2612"
    },
    {
      "channel": 2,
      "note": 70,
      "start": 64.2554,
      "duration": 0.0213,
      "velocity": 107,
      "chip": "ym2612"
    },
    {
      "channel": 3,
      "note": 37,
      "start": 64.2581,
      "duration": 0.0111,
      "velocity": 79,
      "chip": "ym2612"
    },
    {
      "channel": 4,
      "note": 58,
      "start": 64.2609,
      "duration": 0.031,
      "velocity": 127,
      "chip": "ym2612"
    },
    {
      "channel": 3,
      "note": 58,
      "start": 64.2842,
      "duration": 0.007,
      "velocity": 79,
      "chip": "ym2612"
    },
    {
      "channel": 0,
      "note": 77,
      "start": 64.3058,
      "duration": 0.0255,
      "velocity": 107,
      "chip": "ym2612"
    },
    {
      "channel": 1,
      "note": 73,
      "start": 64.3085,
      "duration": 0.0235,
      "velocity": 107,
      "chip": "ym2612"
    },
    {
      "channel": 2,
      "note": 70,
      "start": 64.3112,
      "duration": 0.0214,
      "velocity": 107,
      "chip": "ym2612"
    },
    {
      "channel": 3,
      "note": 58,
      "start": 64.3139,
      "duration": 0.011,
      "velocity": 79,
      "chip": "ym2612"
    },
    {
      "channel": 4,
      "note": 58,
      "start": 64.3167,
      "duration": 0.0089,
      "velocity": 127,
      "chip": "ym2612"
    },
    {
      "channel": 4,
      "note": 58,
      "start": 64.3406,
      "duration": 0.0073,
      "velocity": 127,
      "chip": "ym2612"
    },
    {
      "channel": 0,
      "note": 77,
      "start": 64.3636,
      "duration": 0.0257,
      "velocity": 107,
      "chip": "ym2612"
    },
    {
      "channel": 1,
      "note": 73,
      "start": 64.3663,
      "duration": 0.0237,
      "velocity": 107,
      "chip": "ym2612"
    },
    {
      "channel": 2,
      "note": 70,
      "start": 64.369,
      "duration": 0.0216,
      "velocity": 107,
      "chip": "ym2612"
    },
    {
      "channel": 3,
      "note": 58,
      "start": 64.3719,
      "duration": 0.0077,
      "velocity": 107,
      "chip": "ym2612"
    },
    {
      "channel": 4,
      "note": 58,
      "start": 64.3746,
      "duration": 0.0337,
      "velocity": 127,
      "chip": "ym2612"
    },
    {
      "channel": 3,
      "note": 34,
      "start": 64.3983,
      "duration": 0.0061,
      "velocity": 107,
      "chip": "ym2612"
    },
    {
      "channel": 0,
      "note": 78,
      "start": 64.4228,
      "duration": 0.0257,
      "velocity": 107,
      "chip": "ym2612"
    },
    {
      "channel": 1,
      "note": 73,
      "start": 64.4255,
      "duration": 0.0237,
      "velocity": 107,
      "chip": "ym2612"
    },
    {
      "channel": 2,
      "note": 70,
      "start": 64.4282,
      "duration": 0.0217,
      "velocity": 107,
      "chip": "ym2612"
    },
    {
      "channel": 3,
      "note": 34,
      "start": 64.4311,
      "duration": 0.0078,
      "velocity": 107,
      "chip": "ym2612"
    },
    {
      "channel": 4,
      "note": 58,
      "start": 64.4338,
      "duration": 0.009,
      "velocity": 127,
      "chip": "ym2612"
    },
    {
      "channel": 4,
      "note": 58,
      "start": 64.4578,
      "duration": 0.0072,
      "velocity": 127,
      "chip": "ym2612"
    },
    {
      "channel": 0,
      "note": 78,
      "start": 64.4807,
      "duration": 0.0261,
      "velocity": 107,
      "chip": "ym2612"
    },
    {
      "channel": 1,
      "note": 73,
      "start": 64.4834,
      "duration": 0.0241,
      "velocity": 107,
      "chip": "ym2612"
    },
    {
      "channel": 2,
      "note": 70,
      "start": 64.4861,
      "duration": 0.0225,
      "velocity": 107,
      "chip": "ym2612"
    },
    {
      "channel": 3,
      "note": 46,
      "start": 64.4889,
      "duration": 0.0112,
      "velocity": 79,
      "chip": "ym2612"
    },
    {
      "channel": 4,
      "note": 58,
      "start": 64.4916,
      "duration": 0.0356,
      "velocity": 127,
      "chip": "ym2612"
    },
    {
      "channel": 0,
      "note": 78,
      "start": 64.5139,
      "duration": 0.0198,
      "velocity": 107,
      "chip": "ym2612"
    },
    {
      "channel": 1,
      "note": 73,
      "start": 64.5166,
      "duration": 0.0178,
      "velocity": 107,
      "chip": "ym2612"
    },
    {
      "channel": 2,
      "note": 70,
      "start": 64.5193,
      "duration": 0.0161,
      "velocity": 107,
      "chip": "ym2612"
    },
    {
      "channel": 3,
      "note": 58,
      "start": 64.5429,
      "duration": 0.0086,
      "velocity": 107,
      "chip": "ym2612"
    },
    {
      "channel": 4,
      "note": 58,
      "start": 64.5457,
      "duration": 0.0099,
      "velocity": 127,
      "chip": "ym2612"
    },
    {
      "channel": 0,
      "note": 80,
      "start": 64.5691,
      "duration": 0.0257,
      "velocity": 107,
      "chip": "ym2612"
    },
    {
      "channel": 1,
      "note": 75,
      "start": 64.5718,
      "duration": 0.0241,
      "velocity": 107,
      "chip": "ym2612"
    },
    {
      "channel": 2,
      "note": 72,
      "start": 64.5745,
      "duration": 0.0221,
      "velocity": 107,
      "chip": "ym2612"
    },
    {
      "channel": 3,
      "note": 44,
      "start": 64.5773,
      "duration": 0.0062,
      "velocity": 107,
      "chip": "ym2612"
    },
    {
      "channel": 4,
      "note": 58,
      "start": 64.5801,
      "duration": 0.0075,
      "velocity": 127,
      "chip": "ym2612"
    },
    {
      "channel": 0,
      "note": 80,
      "start": 64.6026,
      "duration": 0.0254,
      "velocity": 107,
      "chip": "ym2612"
    },
    {
      "channel": 1,
      "note": 75,
      "start": 64.6053,
      "duration": 0.0234,
      "velocity": 107,
      "chip": "ym2612"
    },
    {
      "channel": 2,
      "note": 72,
      "start": 64.608,
      "duration": 0.0214,
      "velocity": 107,
      "chip": "ym2612"
    },
    {
      "channel": 3,
      "note": 44,
      "start": 64.6109,
      "duration": 0.0077,
      "velocity": 107,
      "chip": "ym2612"
    },
    {
      "channel": 4,
      "note": 58,
      "start": 64.6136,
      "duration": 0.0282,
      "velocity": 127,
      "chip": "ym2612"
    },
    {
      "channel": 0,
      "note": 80,
      "start": 64.6577,
      "duration": 0.0259,
      "velocity": 107,
      "chip": "ym2612"
    },
    {
      "channel": 1,
      "note": 75,
      "start": 64.6604,
      "duration": 0.0239,
      "velocity": 107,
      "chip": "ym2612"
    },
    {
      "channel": 2,
      "note": 72,
      "start": 64.6631,
      "duration": 0.0218,
      "velocity": 107,
      "chip": "ym2612"
    },
    {
      "channel": 3,
      "note": 46,
      "start": 64.666,
      "duration": 0.0077,
      "velocity": 107,
      "chip": "ym2612"
    },
    {
      "channel": 4,
      "note": 58,
      "start": 64.6687,
      "duration": 0.009,
      "velocity": 127,
      "chip": "ym2612"
    },
    {
      "channel": 3,
      "note": 37,
      "start": 64.6928,
      "duration": 0.0061,
      "velocity": 107,
      "chip": "ym2612"
    },
    {
      "channel": 4,
      "note": 58,
      "start": 64.6955,
      "duration": 0.0075,
      "velocity": 127,
      "chip": "ym2612"
    },
    {
      "channel": 0,
      "note": 80,
      "start": 64.7184,
      "duration": 0.0257,
      "velocity": 107,
      "chip": "ym2612"
    },
    {
      "channel": 1,
      "note": 75,
      "start": 64.7211,
      "duration": 0.0237,
      "velocity": 107,
      "chip": "ym2612"
    },
    {
      "channel": 2,
      "note": 72,
      "start": 64.7238,
      "duration": 0.0217,
      "velocity": 107,
      "chip": "ym2612"
    },
    {
      "channel": 3,
      "note": 37,
      "start": 64.7267,
      "duration": 0.0077,
      "velocity": 107,
      "chip": "ym2612"
    },
    {
      "channel": 4,
      "note": 58,
      "start": 64.7294,
      "duration": 0.0345,
      "velocity": 127,
      "chip": "ym2612"
    },
    {
      "channel": 3,
      "note": 39,
      "start": 64.7548,
      "duration": 0.0085,
      "velocity": 79,
      "chip": "ym2612"
    },
    {
      "channel": 2,
      "note": 73,
      "start": 64.7812,
      "duration": 0.626,
      "velocity": 101,
      "chip": "ym2612"
    },
    {
      "channel": 3,
      "note": 58,
      "start": 64.784,
      "duration": 0.0119,
      "velocity": 79,
      "chip": "ym2612"
    },
    {
      "channel": 4,
      "note": 58,
      "start": 64.7867,
      "duration": 0.0098,
      "velocity": 127,
      "chip": "ym2612"
    },
    {
      "channel": 1,
      "note": 77,
      "start": 64.8089,
      "duration": 0.6163,
      "velocity": 101,
      "chip": "ym2612"
    },
    {
      "channel": 4,
      "note": 58,
      "start": 64.8125,
      "duration": 0.0061,
      "velocity": 127,
      "chip": "ym2612"
    },
    {
      "channel": 3,
      "note": 58,
      "start": 64.8329,
      "duration": 0.008,
      "velocity": 107,
      "chip": "ym2612"
    },
    {
      "channel": 4,
      "note": 58,
      "start": 64.8356,
      "duration": 0.0316,
      "velocity": 127,
      "chip": "ym2612"
    },
    {
      "channel": 3,
      "note": 34,
      "start": 64.8578,
      "duration": 0.0057,
      "velocity": 107,
      "chip": "ym2612"
    },
    {
      "channel": 3,
      "note": 34,
      "start": 64.8806,
      "duration": 0.0075,
      "velocity": 107,
      "chip": "ym2612"
    },
    {
      "channel": 4,
      "note": 58,
      "start": 64.8833,
      "duration": 0.0083,
      "velocity": 127,
      "chip": "ym2612"
    },
    {
      "channel": 4,
      "note": 58,
      "start": 64.9035,
      "duration": 0.0059,
      "velocity": 127,
      "chip": "ym2612"
    },
    {
      "channel": 3,
      "note": 46,
      "start": 64.9233,
      "duration": 0.0099,
      "velocity": 79,
      "chip": "ym2612"
    },
    {
      "channel": 4,
      "note": 58,
      "start": 64.926,
      "duration": 0.0223,
      "velocity": 127,
      "chip": "ym2612"
    },
    {
      "channel": 3,
      "note": 58,
      "start": 64.9628,
      "duration": 0.0073,
      "velocity": 107,
      "chip": "ym2612"
    },
    {
      "channel": 4,
      "note": 58,
      "start": 64.9655,
      "duration": 0.0079,
      "velocity": 127,
      "chip": "ym2612"
    },
    {
      "channel": 3,
      "note": 44,
      "start": 64.9865,
      "duration": 0.0073,
      "velocity": 107,
      "chip": "ym2612"
    },
    {
      "channel": 4,
      "note": 58,
      "start": 64.9893,
      "duration": 0.0079,
      "velocity": 127,
      "chip": "ym2612"
    },
    {
      "channel": 3,
      "note": 44,
      "start": 65.0102,
      "duration": 0.008,
      "velocity": 107,
      "chip": "ym2612"
    },
    {
      "channel": 4,
      "note": 58,
      "start": 65.0129,
      "duration": 0.0265,
      "velocity": 127,
      "chip": "ym2612"
    },
    {
      "channel": 3,
      "note": 46,
      "start": 65.0327,
      "duration": 0.0032,
      "velocity": 107,
      "chip": "ym2612"
    },
    {
      "channel": 3,
      "note": 46,
      "start": 65.0519,
      "duration": 0.0073,
      "velocity": 107,
      "chip": "ym2612"
    },
    {
      "channel": 4,
      "note": 58,
      "start": 65.0546,
      "duration": 0.0078,
      "velocity": 127,
      "chip": "ym2612"
    },
    {
      "channel": 4,
      "note": 58,
      "start": 65.0741,
      "duration": 0.0059,
      "velocity": 127,
      "chip": "ym2612"
    },
    {
      "channel": 3,
      "note": 37,
      "start": 65.0942,
      "duration": 0.0098,
      "velocity": 79,
      "chip": "ym2612"
    },
    {
      "channel": 4,
      "note": 58,
      "start": 65.0969,
      "duration": 0.022,
      "velocity": 127,
      "chip": "ym2612"
    },
    {
      "channel": 3,
      "note": 46,
      "start": 65.1311,
      "duration": 0.0099,
      "velocity": 79,
      "chip": "ym2612"
    },
    {
      "channel": 4,
      "note": 58,
      "start": 65.1338,
      "duration": 0.0077,
      "velocity": 127,
      "chip": "ym2612"
    },
    {
      "channel": 4,
      "note": 58,
      "start": 65.1538,
      "duration": 0.006,
      "velocity": 127,
      "chip": "ym2612"
    },
    {
      "channel": 3,
      "note": 58,
      "start": 65.1726,
      "duration": 0.0079,
      "velocity": 107,
      "chip": "ym2612"
    },
    {
      "channel": 4,
      "note": 58,
      "start": 65.1754,
      "duration": 0.0283,
      "velocity": 127,
      "chip": "ym2612"
    },
    {
      "channel": 3,
      "note": 34,
      "start": 65.1957,
      "duration": 0.0047,
      "velocity": 107,
      "chip": "ym2612"
    },
    {
      "channel": 3,
      "note": 34,
      "start": 65.2171,
      "duration": 0.0073,
      "velocity": 107,
      "chip": "ym2612"
    },
    {
      "channel": 4,
      "note": 58,
      "start": 65.2198,
      "duration": 0.0079,
      "velocity": 127,
      "chip": "ym2612"
    },
    {
      "channel": 4,
      "note": 58,
      "start": 65.2396,
      "duration": 0.0058,
      "velocity": 127,
      "chip": "ym2612"
    },
    {
      "channel": 3,
      "note": 46,
      "start": 65.2595,
      "duration": 0.0099,
      "velocity": 79,
      "chip": "ym2612"
    },
    {
      "channel": 4,
      "note": 58,
      "start": 65.2622,
      "duration": 0.0256,
      "velocity": 127,
      "chip": "ym2612"
    },
    {
      "channel": 3,
      "note": 58,
      "start": 65.3006,
      "duration": 0.008,
      "velocity": 107,
      "chip": "ym2612"
    },
    {
      "channel": 4,
      "note": 58,
      "start": 65.3034,
      "duration": 0.0089,
      "velocity": 127,
      "chip": "ym2612"
    },
    {
      "channel": 3,
      "note": 44,
      "start": 65.324,
      "duration": 0.0057,
      "velocity": 107,
      "chip": "ym2612"
    },
    {
      "channel": 4,
      "note": 58,
      "start": 65.3267,
      "duration": 0.0066,
      "velocity": 127,
      "chip": "ym2612"
    },
    {
      "channel": 3,
      "note": 44,
      "start": 65.3484,
      "duration": 0.0073,
      "velocity": 107,
      "chip": "ym2612"
    },
    {
      "channel": 4,
      "note": 58,
      "start": 65.3512,
      "duration": 0.026,
      "velocity": 127,
      "chip": "ym2612"
    },
    {
      "channel": 3,
      "note": 46,
      "start": 65.3704,
      "duration": 0.0032,
      "velocity": 107,
      "chip": "ym2612"
    },
    {
      "channel": 3,
      "note": 46,
      "start": 65.3915,
      "duration": 0.0073,
      "velocity": 107,
      "chip": "ym2612"
    },
    {
      "channel": 4,
      "note": 58,
      "start": 65.3943,
      "duration": 0.0079,
      "velocity": 127,
      "chip": "ym2612"
    },
    {
      "channel": 4,
      "note": 58,
      "start": 65.4141,
      "duration": 0.0059,
      "velocity": 127,
      "chip": "ym2612"
    },
    {
      "channel": 3,
      "note": 37,
      "start": 65.434,
      "duration": 0.0073,
      "velocity": 107,
      "chip": "ym2612"
    },
    {
      "channel": 4,
      "note": 58,
      "start": 65.4368,
      "duration": 0.0286,
      "velocity": 127,
      "chip": "ym2612"
    },
    {
      "channel": 3,
      "note": 39,
      "start": 65.4573,
      "duration": 0.0047,
      "velocity": 107,
      "chip": "ym2612"
    },
    {
      "channel": 3,
      "note": 39,
      "start": 65.4784,
      "duration": 0.0107,
      "velocity": 79,
      "chip": "ym2612"
    },
    {
      "channel": 4,
      "note": 58,
      "start": 65.4812,
      "duration": 0.0086,
      "velocity": 127,
      "chip": "ym2612"
    },
    {
      "channel": 4,
      "note": 58,
      "start": 65.5019,
      "duration": 0.0059,
      "velocity": 127,
      "chip": "ym2612"
    },
    {
      "channel": 3,
      "note": 58,
      "start": 65.5209,
      "duration": 0.0071,
      "velocity": 107,
      "chip": "ym2612"
    },
    {
      "channel": 4,
      "note": 58,
      "start": 65.5236,
      "duration": 0.0304,
      "velocity": 127,
      "chip": "ym2612"
    },
    {
      "channel": 3,
      "note": 34,
      "start": 65.5449,
      "duration": 0.0055,
      "velocity": 107,
      "chip": "ym2612"
    },
    {
      "channel": 3,
      "note": 34,
      "start": 65.5675,
      "duration": 0.0073,
      "velocity": 107,
      "chip": "ym2612"
    },
    {
      "channel": 4,
      "note": 58,
      "start": 65.5702,
      "duration": 0.0079,
      "velocity": 127,
      "chip": "ym2612"
    },
    {
      "channel": 4,
      "note": 58,
      "start": 65.59,
      "duration": 0.0059,
      "velocity": 127,
      "chip": "ym2612"
    },
    {
      "channel": 3,
      "note": 46,
      "start": 65.6099,
      "duration": 0.0099,
      "velocity": 79,
      "chip": "ym2612"
    },
    {
      "channel": 4,
      "note": 58,
      "start": 65.6127,
      "duration": 0.0224,
      "velocity": 127,
      "chip": "ym2612"
    },
    {
      "channel": 3,
      "note": 58,
      "start": 65.6496,
      "duration": 0.0073,
      "velocity": 107,
      "chip": "ym2612"
    },
    {
      "channel": 4,
      "note": 58,
      "start": 65.6523,
      "duration": 0.0079,
      "velocity": 127,
      "chip": "ym2612"
    },
    {
      "channel": 3,
      "note": 44,
      "start": 65.6733,
      "duration": 0.0073,
      "velocity": 107,
      "chip": "ym2612"
    },
    {
      "channel": 4,
      "note": 58,
      "start": 65.676,
      "duration": 0.0079,
      "velocity": 127,
      "chip": "ym2612"
    },
    {
      "channel": 3,
      "note": 44,
      "start": 65.697,
      "duration": 0.008,
      "velocity": 107,
      "chip": "ym2612"
    },
    {
      "channel": 4,
      "note": 58,
      "start": 65.6997,
      "duration": 0.0267,
      "velocity": 127,
      "chip": "ym2612"
    },
    {
      "channel": 3,
      "note": 46,
      "start": 65.7197,
      "duration": 0.0032,
      "velocity": 107,
      "chip": "ym2612"
    },
    {
      "channel": 3,
      "note": 46,
      "start": 65.7391,
      "duration": 0.0072,
      "velocity": 107,
      "chip": "ym2612"
    },
    {
      "channel": 4,
      "note": 58,
      "start": 65.7419,
      "duration": 0.0079,
      "velocity": 127,
      "chip": "ym2612"
    },
    {
      "channel": 4,
      "note": 58,
      "start": 65.7615,
      "duration": 0.0059,
      "velocity": 127,
      "chip": "ym2612"
    },
    {
      "channel": 3,
      "note": 37,
      "start": 65.7796,
      "duration": 0.0098,
      "velocity": 79,
      "chip": "ym2612"
    },
    {
      "channel": 4,
      "note": 58,
      "start": 65.7824,
      "duration": 0.0253,
      "velocity": 127,
      "chip": "ym2612"
    },
    {
      "channel": 3,
      "note": 58,
      "start": 65.8012,
      "duration": 0.0059,
      "velocity": 79,
      "chip": "ym2612"
    },
    {
      "channel": 3,
      "note": 58,
      "start": 65.8203,
      "duration": 0.0099,
      "velocity": 79,
      "chip": "ym2612"
    },
    {
      "channel": 4,
      "note": 58,
      "start": 65.8231,
      "duration": 0.0078,
      "velocity": 127,
      "chip": "ym2612"
    },
    {
      "channel": 4,
      "note": 58,
      "start": 65.8431,
      "duration": 0.006,
      "velocity": 127,
      "chip": "ym2612"
    },
    {
      "channel": 3,
      "note": 58,
      "start": 65.8621,
      "duration": 0.0072,
      "velocity": 107,
      "chip": "ym2612"
    },
    {
      "channel": 4,
      "note": 58,
      "start": 65.8649,
      "duration": 0.0274,
      "velocity": 127,
      "chip": "ym2612"
    },
    {
      "channel": 3,
      "note": 34,
      "start": 65.8841,
      "duration": 0.0046,
      "velocity": 107,
      "chip": "ym2612"
    },
    {
      "channel": 3,
      "note": 34,
      "start": 65.9058,
      "duration": 0.0073,
      "velocity": 107,
      "chip": "ym2612"
    },
    {
      "channel": 4,
      "note": 58,
      "start": 65.9085,
      "duration": 0.0079,
      "velocity": 127,
      "chip": "ym2612"
    },
    {
      "channel": 4,
      "note": 58,
      "start": 65.9283,
      "duration": 0.0059,
      "velocity": 127,
      "chip": "ym2612"
    },
    {
      "channel": 3,
      "note": 46,
      "start": 65.9483,
      "duration": 0.0099,
      "velocity": 79,
      "chip": "ym2612"
    },
    {
      "channel": 4,
      "note": 58,
      "start": 65.951,
      "duration": 0.0223,
      "velocity": 127,
      "chip": "ym2612"
    },
    {
      "channel": 3,
      "note": 58,
      "start": 65.9858,
      "duration": 0.0071,
      "velocity": 107,
      "chip": "ym2612"
    },
    {
      "channel": 4,
      "note": 58,
      "start": 65.9885,
      "duration": 0.0081,
      "velocity": 127,
      "chip": "ym2612"
    },
    {
      "channel": 3,
      "note": 44,
      "start": 66.0085,
      "duration": 0.0057,
      "velocity": 107,
      "chip": "ym2612"
    },
    {
      "channel": 4,
      "note": 58,
      "start": 66.0113,
      "duration": 0.0066,
      "velocity": 127,
      "chip": "ym2612"
    },
    {
      "channel": 3,
      "note": 44,
      "start": 66.0332,
      "duration": 0.0073,
      "velocity": 107,
      "chip": "ym2612"
    },
    {
      "channel": 4,
      "note": 58,
      "start": 66.0359,
      "duration": 0.0222,
      "velocity": 127,
      "chip": "ym2612"
    },
    {
      "channel": 3,
      "note": 46,
      "start": 66.0726,
      "duration": 0.0073,
      "velocity": 107,
      "chip": "ym2612"
    },
    {
      "channel": 4,
      "note": 58,
      "start": 66.0754,
      "duration": 0.0078,
      "velocity": 127,
      "chip": "ym2612"
    },
    {
      "channel": 3,
      "note": 37,
      "start": 66.0949,
      "duration": 0.0057,
      "velocity": 107,
      "chip": "ym2612"
    },
    {
      "channel": 4,
      "note": 58,
      "start": 66.0976,
      "duration": 0.0064,
      "velocity": 127,
      "chip": "ym2612"
    },
    {
      "channel": 3,
      "note": 37,
      "start": 66.1179,
      "duration": 0.0072,
      "velocity": 107,
      "chip": "ym2612"
    },
    {
      "channel": 4,
      "note": 58,
      "start": 66.1207,
      "duration": 0.0284,
      "velocity": 127,
      "chip": "ym2612"
    },
    {
      "channel": 3,
      "note": 39,
      "start": 66.1412,
      "duration": 0.0072,
      "velocity": 79,
      "chip": "ym2612"
    },
    {
      "channel": 1,
      "note": 58,
      "start": 66.1643,
      "duration": 0.7007,
      "velocity": 101,
      "chip": "ym2612"
    },
    {
      "channel": 3,
      "note": 58,
      "start": 66.1675,
      "duration": 0.0106,
      "velocity": 79,
      "chip": "ym2612"
    },
    {
      "channel": 4,
      "note": 58,
      "start": 66.1702,
      "duration": 0.0084,
      "velocity": 127,
      "chip": "ym2612"
    },
    {
      "channel": 0,
      "note": 82,
      "start": 66.1899,
      "duration": 0.6959,
      "velocity": 101,
      "chip": "ym2612"
    },
    {
      "channel": 4,
      "note": 58,
      "start": 66.1939,
      "duration": 0.0069,
      "velocity": 127,
      "chip": "ym2612"
    },
    {
      "channel": 3,
      "note": 58,
      "start": 66.2152,
      "duration": 0.0075,
      "velocity": 107,
      "chip": "ym2612"
    },
    {
      "channel": 4,
      "note": 58,
      "start": 66.2179,
      "duration": 0.0321,
      "velocity": 127,
      "chip": "ym2612"
    },
    {
      "channel": 3,
      "note": 34,
      "start": 66.24,
      "duration": 0.006,
      "velocity": 107,
      "chip": "ym2612"
    },
    {
      "channel": 3,
      "note": 34,
      "start": 66.2662,
      "duration": 0.0078,
      "velocity": 107,
      "chip": "ym2612"
    },
    {
      "channel": 4,
      "note": 58,
      "start": 66.269,
      "duration": 0.009,
      "velocity": 127,
      "chip": "ym2612"
    },
    {
      "channel": 4,
      "note": 58,
      "start": 66.2915,
      "duration": 0.0069,
      "velocity": 127,
      "chip": "ym2612"
    },
    {
      "channel": 3,
      "note": 46,
      "start": 66.3134,
      "duration": 0.0108,
      "velocity": 79,
      "chip": "ym2612"
    },
    {
      "channel": 4,
      "note": 58,
      "start": 66.3161,
      "duration": 0.0261,
      "velocity": 127,
      "chip": "ym2612"
    },
    {
      "channel": 3,
      "note": 58,
      "start": 66.3579,
      "duration": 0.0076,
      "velocity": 107,
      "chip": "ym2612"
    },
    {
      "channel": 4,
      "note": 58,
      "start": 66.3607,
      "duration": 0.0087,
      "velocity": 127,
      "chip": "ym2612"
    },
    {
      "channel": 3,
      "note": 44,
      "start": 66.3851,
      "duration": 0.0076,
      "velocity": 107,
      "chip": "ym2612"
    },
    {
      "channel": 4,
      "note": 58,
      "start": 66.3878,
      "duration": 0.0088,
      "velocity": 127,
      "chip": "ym2612"
    },
    {
      "channel": 3,
      "note": 44,
      "start": 66.4122,
      "duration": 0.0084,
      "velocity": 107,
      "chip": "ym2612"
    },
    {
      "channel": 4,
      "note": 58,
      "start": 66.4149,
      "duration": 0.0301,
      "velocity": 127,
      "chip": "ym2612"
    },
    {
      "channel": 3,
      "note": 46,
      "start": 66.4375,
      "duration": 0.0035,
      "velocity": 107,
      "chip": "ym2612"
    },
    {
      "channel": 3,
      "note": 46,
      "start": 66.4617,
      "duration": 0.0076,
      "velocity": 107,
      "chip": "ym2612"
    },
    {
      "channel": 4,
      "note": 58,
      "start": 66.4644,
      "duration": 0.0087,
      "velocity": 127,
      "chip": "ym2612"
    },
    {
      "channel": 4,
      "note": 58,
      "start": 66.4867,
      "duration": 0.0067,
      "velocity": 127,
      "chip": "ym2612"
    },
    {
      "channel": 3,
      "note": 37,
      "start": 66.5086,
      "duration": 0.0108,
      "velocity": 79,
      "chip": "ym2612"
    },
    {
      "channel": 4,
      "note": 58,
      "start": 66.5114,
      "duration": 0.026,
      "velocity": 127,
      "chip": "ym2612"
    },
    {
      "channel": 3,
      "note": 46,
      "start": 66.5532,
      "duration": 0.0117,
      "velocity": 79,
      "chip": "ym2612"
    },
    {
      "channel": 4,
      "note": 58,
      "start": 66.5559,
      "duration": 0.0095,
      "velocity": 127,
      "chip": "ym2612"
    },
    {
      "channel": 4,
      "note": 58,
      "start": 66.579,
      "duration": 0.0069,
      "velocity": 127,
      "chip": "ym2612"
    },
    {
      "channel": 3,
      "note": 58,
      "start": 66.6005,
      "duration": 0.0075,
      "velocity": 107,
      "chip": "ym2612"
    },
    {
      "channel": 4,
      "note": 58,
      "start": 66.6032,
      "duration": 0.0317,
      "velocity": 127,
      "chip": "ym2612"
    },
    {
      "channel": 3,
      "note": 34,
      "start": 66.6251,
      "duration": 0.0058,
      "velocity": 107,
      "chip": "ym2612"
    },
    {
      "channel": 3,
      "note": 34,
      "start": 66.6514,
      "duration": 0.0076,
      "velocity": 107,
      "chip": "ym2612"
    },
    {
      "channel": 4,
      "note": 58,
      "start": 66.6541,
      "duration": 0.0088,
      "velocity": 127,
      "chip": "ym2612"
    },
    {
      "channel": 4,
      "note": 58,
      "start": 66.6764,
      "duration": 0.007,
      "velocity": 127,
      "chip": "ym2612"
    },
    {
      "channel": 3,
      "note": 46,
      "start": 66.6985,
      "duration": 0.0107,
      "velocity": 79,
      "chip": "ym2612"
    },
    {
      "channel": 4,
      "note": 58,
      "start": 66.7012,
      "duration": 0.0303,
      "velocity": 127,
      "chip": "ym2612"
    },
    {
      "channel": 3,
      "note": 58,
      "start": 66.7474,
      "duration": 0.0084,
      "velocity": 107,
      "chip": "ym2612"
    },
    {
      "channel": 4,
      "note": 58,
      "start": 66.7501,
      "duration": 0.0097,
      "velocity": 127,
      "chip": "ym2612"
    },
    {
      "channel": 3,
      "note": 44,
      "start": 66.7733,
      "duration": 0.006,
      "velocity": 107,
      "chip": "ym2612"
    },
    {
      "channel": 4,
      "note": 58,
      "start": 66.7761,
      "duration": 0.0073,
      "velocity": 127,
      "chip": "ym2612"
    },
    {
      "channel": 3,
      "note": 44,
      "start": 66.8002,
      "duration": 0.0076,
      "velocity": 107,
      "chip": "ym2612"
    },
    {
      "channel": 4,
      "note": 58,
      "start": 66.8029,
      "duration": 0.0293,
      "velocity": 127,
      "chip": "ym2612"
    },
    {
      "channel": 3,
      "note": 46,
      "start": 66.8247,
      "duration": 0.0035,
      "velocity": 107,
      "chip": "ym2612"
    },
    {
      "channel": 3,
      "note": 46,
      "start": 66.8475,
      "duration": 0.0076,
      "velocity": 107,
      "chip": "ym2612"
    },
    {
      "channel": 4,
      "note": 58,
      "start": 66.8502,
      "duration": 0.0088,
      "velocity": 127,
      "chip": "ym2612"
    },
    {
      "channel": 4,
      "note": 58,
      "start": 66.8726,
      "duration": 0.0069,
      "velocity": 127,
      "chip": "ym2612"
    },
    {
      "channel": 3,
      "note": 37,
      "start": 66.8947,
      "duration": 0.0075,
      "velocity": 107,
      "chip": "ym2612"
    },
    {
      "channel": 4,
      "note": 58,
      "start": 66.8975,
      "duration": 0.033,
      "velocity": 127,
      "chip": "ym2612"
    },
    {
      "channel": 3,
      "note": 39,
      "start": 66.9215,
      "duration": 0.005,
      "velocity": 107,
      "chip": "ym2612"
    },
    {
      "channel": 3,
      "note": 39,
      "start": 66.946,
      "duration": 0.0115,
      "velocity": 79,
      "chip": "ym2612"
    },
    {
      "channel": 4,
      "note": 58,
      "start": 66.9488,
      "duration": 0.0094,
      "velocity": 127,
      "chip": "ym2612"
    },
    {
      "channel": 4,
      "note": 58,
      "start": 66.9718,
      "duration": 0.007,
      "velocity": 127,
      "chip": "ym2612"
    },
    {
      "channel": 3,
      "note": 58,
      "start": 66.9933,
      "duration": 0.0075,
      "velocity": 107,
      "chip": "ym2612"
    },
    {
      "channel": 4,
      "note": 58,
      "start": 66.9961,
      "duration": 0.0317,
      "velocity": 127,
      "chip": "ym2612"
    },
    {
      "channel": 3,
      "note": 34,
      "start": 67.018,
      "duration": 0.0058,
      "velocity": 107,
      "chip": "ym2612"
    },
    {
      "channel": 3,
      "note": 34,
      "start": 67.0442,
      "duration": 0.0076,
      "velocity": 107,
      "chip": "ym2612"
    },
    {
      "channel": 4,
      "note": 58,
      "start": 67.047,
      "duration": 0.0088,
      "velocity": 127,
      "chip": "ym2612"
    },
    {
      "channel": 4,
      "note": 58,
      "start": 67.0693,
      "duration": 0.0069,
      "velocity": 127,
      "chip": "ym2612"
    },
    {
      "channel": 3,
      "note": 46,
      "start": 67.0914,
      "duration": 0.0108,
      "velocity": 79,
      "chip": "ym2612"
    },
    {
      "channel": 4,
      "note": 58,
      "start": 67.0941,
      "duration": 0.0261,
      "velocity": 127,
      "chip": "ym2612"
    },
    {
      "channel": 3,
      "note": 58,
      "start": 67.136,
      "duration": 0.0076,
      "velocity": 107,
      "chip": "ym2612"
    },
    {
      "channel": 4,
      "note": 58,
      "start": 67.1388,
      "duration": 0.0088,
      "velocity": 127,
      "chip": "ym2612"
    },
    {
      "channel": 3,
      "note": 44,
      "start": 67.1631,
      "duration": 0.0076,
      "velocity": 107,
      "chip": "ym2612"
    },
    {
      "channel": 4,
      "note": 58,
      "start": 67.1658,
      "duration": 0.0088,
      "velocity": 127,
      "chip": "ym2612"
    },
    {
      "channel": 3,
      "note": 44,
      "start": 67.1901,
      "duration": 0.0084,
      "velocity": 107,
      "chip": "ym2612"
    },
    {
      "channel": 4,
      "note": 58,
      "start": 67.1929,
      "duration": 0.03,
      "velocity": 127,
      "chip": "ym2612"
    },
    {
      "channel": 3,
      "note": 46,
      "start": 67.2154,
      "duration": 0.0035,
      "velocity": 107,
      "chip": "ym2612"
    },
    {
      "channel": 3,
      "note": 46,
      "start": 67.2395,
      "duration": 0.0076,
      "velocity": 107,
      "chip": "ym2612"
    },
    {
      "channel": 4,
      "note": 58,
      "start": 67.2423,
      "duration": 0.0087,
      "velocity": 127,
      "chip": "ym2612"
    },
    {
      "channel": 4,
      "note": 58,
      "start": 67.2646,
      "duration": 0.0068,
      "velocity": 127,
      "chip": "ym2612"
    },
    {
      "channel": 3,
      "note": 37,
      "start": 67.2866,
      "duration": 0.0108,
      "velocity": 79,
      "chip": "ym2612"
    },
    {
      "channel": 4,
      "note": 58,
      "start": 67.2893,
      "duration": 0.0291,
      "velocity": 127,
      "chip": "ym2612"
    },
    {
      "channel": 3,
      "note": 58,
      "start": 67.3109,
      "duration": 0.0069,
      "velocity": 79,
      "chip": "ym2612"
    },
    {
      "channel": 3,
      "note": 58,
      "start": 67.3338,
      "duration": 0.0118,
      "velocity": 79,
      "chip": "ym2612"
    },
    {
      "channel": 4,
      "note": 58,
      "start": 67.3365,
      "duration": 0.0096,
      "velocity": 127,
      "chip": "ym2612"
    },
    {
      "channel": 4,
      "note": 58,
      "start": 67.3597,
      "duration": 0.0069,
      "velocity": 127,
      "chip": "ym2612"
    },
    {
      "channel": 3,
      "note": 58,
      "start": 67.3811,
      "duration": 0.0075,
      "velocity": 107,
      "chip": "ym2612"
    },
    {
      "channel": 4,
      "note": 58,
      "start": 67.3839,
      "duration": 0.0308,
      "velocity": 127,
      "chip": "ym2612"
    },
    {
      "channel": 3,
      "note": 34,
      "start": 67.4057,
      "duration": 0.0051,
      "velocity": 107,
      "chip": "ym2612"
    },
    {
      "channel": 3,
      "note": 34,
      "start": 67.4304,
      "duration": 0.0076,
      "velocity": 107,
      "chip": "ym2612"
    },
    {
      "channel": 4,
      "note": 58,
      "start": 67.4331,
      "duration": 0.0088,
      "velocity": 127,
      "chip": "ym2612"
    },
    {
      "channel": 4,
      "note": 58,
      "start": 67.4576,
      "duration": 0.0085,
      "velocity": 127,
      "chip": "ym2612"
    },
    {
      "channel": 3,
      "note": 46,
      "start": 67.4818,
      "duration": 0.0108,
      "velocity": 79,
      "chip": "ym2612"
    },
    {
      "channel": 4,
      "note": 58,
      "start": 67.4846,
      "duration": 0.0303,
      "velocity": 127,
      "chip": "ym2612"
    },
    {
      "channel": 3,
      "note": 58,
      "start": 67.5307,
      "duration": 0.0084,
      "velocity": 107,
      "chip": "ym2612"
    },
    {
      "channel": 4,
      "note": 58,
      "start": 67.5335,
      "duration": 0.0097,
      "velocity": 127,
      "chip": "ym2612"
    },
    {
      "channel": 3,
      "note": 44,
      "start": 67.5595,
      "duration": 0.0076,
      "velocity": 107,
      "chip": "ym2612"
    },
    {
      "channel": 4,
      "note": 58,
      "start": 67.5622,
      "duration": 0.0088,
      "velocity": 127,
      "chip": "ym2612"
    },
    {
      "channel": 3,
      "note": 44,
      "start": 67.5865,
      "duration": 0.0076,
      "velocity": 107,
      "chip": "ym2612"
    },
    {
      "channel": 4,
      "note": 58,
      "start": 67.5893,
      "duration": 0.0302,
      "velocity": 127,
      "chip": "ym2612"
    },
    {
      "channel": 3,
      "note": 46,
      "start": 67.6354,
      "duration": 0.0075,
      "velocity": 107,
      "chip": "ym2612"
    },
    {
      "channel": 4,
      "note": 58,
      "start": 67.6381,
      "duration": 0.0088,
      "velocity": 127,
      "chip": "ym2612"
    },
    {
      "channel": 3,
      "note": 37,
      "start": 67.6604,
      "duration": 0.0061,
      "velocity": 107,
      "chip": "ym2612"
    },
    {
      "channel": 4,
      "note": 58,
      "start": 67.6632,
      "duration": 0.0072,
      "velocity": 127,
      "chip": "ym2612"
    },
    {
      "channel": 3,
      "note": 37,
      "start": 67.6853,
      "duration": 0.0076,
      "velocity": 107,
      "chip": "ym2612"
    },
    {
      "channel": 4,
      "note": 58,
      "start": 67.688,
      "duration": 0.0329,
      "velocity": 127,
      "chip": "ym2612"
    },
    {
      "channel": 3,
      "note": 39,
      "start": 67.712,
      "duration": 0.0083,
      "velocity": 79,
      "chip": "ym2612"
    },
    {
      "channel": 1,
      "note": 46,
      "start": 67.7364,
      "duration": 0.0231,
      "velocity": 107,
      "chip": "ym2612"
    },
    {
      "channel": 2,
      "note": 58,
      "start": 67.7391,
      "duration": 0.021,
      "velocity": 107,
      "chip": "ym2612"
    },
    {
      "channel": 3,
      "note": 58,
      "start": 67.7419,
      "duration": 0.0189,
      "velocity": 107,
      "chip": "ym2612"
    },
    {
      "channel": 4,
      "note": 58,
      "start": 67.7447,
      "duration": 0.0086,
      "velocity": 127,
      "chip": "ym2612"
    },
    {
      "channel": 4,
      "note": 58,
      "start": 67.7683,
      "duration": 0.0072,
      "velocity": 127,
      "chip": "ym2612"
    },
    {
      "channel": 1,
      "note": 78,
      "start": 67.791,
      "duration": 0.0237,
      "velocity": 107,
      "chip": "ym2612"
    },
    {
      "channel": 2,
      "note": 82,
      "start": 67.7936,
      "duration": 0.0216,
      "velocity": 107,
      "chip": "ym2612"
    },
    {
      "channel": 3,
      "note": 75,
      "start": 67.7964,
      "duration": 0.0195,
      "velocity": 107,
      "chip": "ym2612"
    },
    {
      "channel": 4,
      "note": 58,
      "start": 67.7992,
      "duration": 0.0321,
      "velocity": 127,
      "chip": "ym2612"
    },
    {
      "channel": 1,
      "note": 73,
      "start": 67.8461,
      "duration": 0.023,
      "velocity": 107,
      "chip": "ym2612"
    },
    {
      "channel": 2,
      "note": 77,
      "start": 67.8487,
      "duration": 0.021,
      "velocity": 107,
      "chip": "ym2612"
    },
    {
      "channel": 3,
      "note": 70,
      "start": 67.8515,
      "duration": 0.0189,
      "velocity": 107,
      "chip": "ym2612"
    },
    {
      "channel": 4,
      "note": 58,
      "start": 67.8543,
      "duration": 0.0087,
      "velocity": 127,
      "chip": "ym2612"
    },
    {
      "channel": 4,
      "note": 58,
      "start": 67.878,
      "duration": 0.0072,
      "velocity": 127,
      "chip": "ym2612"
    },
    {
      "channel": 1,
      "note": 73,
      "start": 67.9012,
      "duration": 0.0236,
      "velocity": 107,
      "chip": "ym2612"
    },
    {
      "channel": 2,
      "note": 77,
      "start": 67.9038,
      "duration": 0.0215,
      "velocity": 107,
      "chip": "ym2612"
    },
    {
      "channel": 3,
      "note": 70,
      "start": 67.9066,
      "duration": 0.0199,
      "velocity": 107,
      "chip": "ym2612"
    },
    {
      "channel": 4,
      "note": 58,
      "start": 67.9094,
      "duration": 0.0353,
      "velocity": 127,
      "chip": "ym2612"
    },
    {
      "channel": 1,
      "note": 73,
      "start": 67.9318,
      "duration": 0.0193,
      "velocity": 107,
      "chip": "ym2612"
    },
    {
      "channel": 2,
      "note": 77,
      "start": 67.9345,
      "duration": 0.0173,
      "velocity": 107,
      "chip": "ym2612"
    },
    {
      "channel": 3,
      "note": 70,
      "start": 67.9372,
      "duration": 0.0156,
      "velocity": 107,
      "chip": "ym2612"
    },
    {
      "channel": 4,
      "note": 58,
      "start": 67.9607,
      "duration": 0.0088,
      "velocity": 127,
      "chip": "ym2612"
    },
    {
      "channel": 1,
      "note": 73,
      "start": 67.9834,
      "duration": 0.0243,
      "velocity": 107,
      "chip": "ym2612"
    },
    {
      "channel": 2,
      "note": 77,
      "start": 67.986,
      "duration": 0.0227,
      "velocity": 107,
      "chip": "ym2612"
    },
    {
      "channel": 3,
      "note": 70,
      "start": 67.9888,
      "duration": 0.0206,
      "velocity": 107,
      "chip": "ym2612"
    },
    {
      "channel": 4,
      "note": 58,
      "start": 67.9916,
      "duration": 0.0087,
      "velocity": 127,
      "chip": "ym2612"
    },
    {
      "channel": 1,
      "note": 73,
      "start": 68.0157,
      "duration": 0.0235,
      "velocity": 107,
      "chip": "ym2612"
    },
    {
      "channel": 2,
      "note": 77,
      "start": 68.0184,
      "duration": 0.0215,
      "velocity": 107,
      "chip": "ym2612"
    },
    {
      "channel": 3,
      "note": 70,
      "start": 68.0211,
      "duration": 0.0193,
      "velocity": 107,
      "chip": "ym2612"
    },
    {
      "channel": 4,
      "note": 58,
      "start": 68.0239,
      "duration": 0.0286,
      "velocity": 127,
      "chip": "ym2612"
    },
    {
      "channel": 1,
      "note": 73,
      "start": 68.0685,
      "duration": 0.0231,
      "velocity": 107,
      "chip": "ym2612"
    },
    {
      "channel": 2,
      "note": 77,
      "start": 68.0712,
      "duration": 0.0211,
      "velocity": 107,
      "chip": "ym2612"
    },
    {
      "channel": 3,
      "note": 70,
      "start": 68.0739,
      "duration": 0.019,
      "velocity": 107,
      "chip": "ym2612"
    },
    {
      "channel": 4,
      "note": 58,
      "start": 68.0767,
      "duration": 0.0087,
      "velocity": 127,
      "chip": "ym2612"
    },
    {
      "channel": 4,
      "note": 58,
      "start": 68.1004,
      "duration": 0.0072,
      "velocity": 127,
      "chip": "ym2612"
    },
    {
      "channel": 1,
      "note": 73,
      "start": 68.1237,
      "duration": 0.0227,
      "velocity": 107,
      "chip": "ym2612"
    },
    {
      "channel": 2,
      "note": 77,
      "start": 68.1264,
      "duration": 0.0207,
      "velocity": 107,
      "chip": "ym2612"
    },
    {
      "channel": 3,
      "note": 70,
      "start": 68.1291,
      "duration": 0.0186,
      "velocity": 107,
      "chip": "ym2612"
    },
    {
      "channel": 4,
      "note": 58,
      "start": 68.1319,
      "duration": 0.0278,
      "velocity": 127,
      "chip": "ym2612"
    },
    {
      "channel": 1,
      "note": 73,
      "start": 68.1737,
      "duration": 0.023,
      "velocity": 107,
      "chip": "ym2612"
    },
    {
      "channel": 2,
      "note": 77,
      "start": 68.1763,
      "duration": 0.021,
      "velocity": 107,
      "chip": "ym2612"
    },
    {
      "channel": 3,
      "note": 70,
      "start": 68.1791,
      "duration": 0.0189,
      "velocity": 107,
      "chip": "ym2612"
    },
    {
      "channel": 4,
      "note": 58,
      "start": 68.1819,
      "duration": 0.0087,
      "velocity": 127,
      "chip": "ym2612"
    },
    {
      "channel": 4,
      "note": 58,
      "start": 68.2055,
      "duration": 0.0072,
      "velocity": 127,
      "chip": "ym2612"
    },
    {
      "channel": 1,
      "note": 73,
      "start": 68.2282,
      "duration": 0.0237,
      "velocity": 107,
      "chip": "ym2612"
    },
    {
      "channel": 2,
      "note": 77,
      "start": 68.2309,
      "duration": 0.0216,
      "velocity": 107,
      "chip": "ym2612"
    },
    {
      "channel": 3,
      "note": 70,
      "start": 68.2337,
      "duration": 0.0195,
      "velocity": 107,
      "chip": "ym2612"
    },
    {
      "channel": 4,
      "note": 58,
      "start": 68.2365,
      "duration": 0.0321,
      "velocity": 127,
      "chip": "ym2612"
    },
    {
      "channel": 1,
      "note": 73,
      "start": 68.2833,
      "duration": 0.0231,
      "velocity": 107,
      "chip": "ym2612"
    },
    {
      "channel": 2,
      "note": 77,
      "start": 68.286,
      "duration": 0.021,
      "velocity": 107,
      "chip": "ym2612"
    },
    {
      "channel": 3,
      "note": 70,
      "start": 68.2888,
      "duration": 0.019,
      "velocity": 107,
      "chip": "ym2612"
    },
    {
      "channel": 4,
      "note": 58,
      "start": 68.2916,
      "duration": 0.0086,
      "velocity": 127,
      "chip": "ym2612"
    },
    {
      "channel": 4,
      "note": 58,
      "start": 68.3152,
      "duration": 0.0072,
      "velocity": 127,
      "chip": "ym2612"
    },
    {
      "channel": 1,
      "note": 73,
      "start": 68.3384,
      "duration": 0.0238,
      "velocity": 107,
      "chip": "ym2612"
    },
    {
      "channel": 2,
      "note": 77,
      "start": 68.3411,
      "duration": 0.022,
      "velocity": 107,
      "chip": "ym2612"
    },
    {
      "channel": 3,
      "note": 70,
      "start": 68.3439,
      "duration": 0.0201,
      "velocity": 107,
      "chip": "ym2612"
    },
    {
      "channel": 4,
      "note": 58,
      "start": 68.3467,
      "duration": 0.0383,
      "velocity": 127,
      "chip": "ym2612"
    },
    {
      "channel": 1,
      "note": 73,
      "start": 68.3706,
      "duration": 0.0209,
      "velocity": 107,
      "chip": "ym2612"
    },
    {
      "channel": 2,
      "note": 77,
      "start": 68.3733,
      "duration": 0.0189,
      "velocity": 107,
      "chip": "ym2612"
    },
    {
      "channel": 3,
      "note": 70,
      "start": 68.376,
      "duration": 0.0173,
      "velocity": 107,
      "chip": "ym2612"
    },
    {
      "channel": 4,
      "note": 58,
      "start": 68.402,
      "duration": 0.0095,
      "velocity": 127,
      "chip": "ym2612"
    },
    {
      "channel": 1,
      "note": 73,
      "start": 68.4251,
      "duration": 0.0227,
      "velocity": 107,
      "chip": "ym2612"
    },
    {
      "channel": 2,
      "note": 77,
      "start": 68.4278,
      "duration": 0.0212,
      "velocity": 107,
      "chip": "ym2612"
    },
    {
      "channel": 3,
      "note": 70,
      "start": 68.4306,
      "duration": 0.019,
      "velocity": 107,
      "chip": "ym2612"
    },
    {
      "channel": 4,
      "note": 58,
      "start": 68.4334,
      "duration": 0.0072,
      "velocity": 127,
      "chip": "ym2612"
    },
    {
      "channel": 1,
      "note": 73,
      "start": 68.4559,
      "duration": 0.0227,
      "velocity": 107,
      "chip": "ym2612"
    },
    {
      "channel": 2,
      "note": 77,
      "start": 68.4586,
      "duration": 0.0207,
      "velocity": 107,
      "chip": "ym2612"
    },
    {
      "channel": 3,
      "note": 70,
      "start": 68.4613,
      "duration": 0.0186,
      "velocity": 107,
      "chip": "ym2612"
    },
    {
      "channel": 4,
      "note": 58,
      "start": 68.4641,
      "duration": 0.0277,
      "velocity": 127,
      "chip": "ym2612"
    },
    {
      "channel": 1,
      "note": 73,
      "start": 68.5083,
      "duration": 0.0231,
      "velocity": 107,
      "chip": "ym2612"
    },
    {
      "channel": 2,
      "note": 77,
      "start": 68.511,
      "duration": 0.0211,
      "velocity": 107,
      "chip": "ym2612"
    },
    {
      "channel": 3,
      "note": 70,
      "start": 68.5138,
      "duration": 0.019,
      "velocity": 107,
      "chip": "ym2612"
    },
    {
      "channel": 4,
      "note": 58,
      "start": 68.5166,
      "duration": 0.0086,
      "velocity": 127,
      "chip": "ym2612"
    },
    {
      "channel": 4,
      "note": 58,
      "start": 68.5402,
      "duration": 0.0072,
      "velocity": 127,
      "chip": "ym2612"
    },
    {
      "channel": 1,
      "note": 73,
      "start": 68.5634,
      "duration": 0.0229,
      "velocity": 107,
      "chip": "ym2612"
    },
    {
      "channel": 2,
      "note": 77,
      "start": 68.5661,
      "duration": 0.0208,
      "velocity": 107,
      "chip": "ym2612"
    },
    {
      "channel": 3,
      "note": 70,
      "start": 68.5688,
      "duration": 0.0187,
      "velocity": 107,
      "chip": "ym2612"
    },
    {
      "channel": 4,
      "note": 58,
      "start": 68.5716,
      "duration": 0.0317,
      "velocity": 127,
      "chip": "ym2612"
    },
    {
      "channel": 1,
      "note": 73,
      "start": 68.6173,
      "duration": 0.0239,
      "velocity": 107,
      "chip": "ym2612"
    },
    {
      "channel": 2,
      "note": 77,
      "start": 68.62,
      "duration": 0.0219,
      "velocity": 107,
      "chip": "ym2612"
    },
    {
      "channel": 3,
      "note": 70,
      "start": 68.6227,
      "duration": 0.0198,
      "velocity": 107,
      "chip": "ym2612"
    },
    {
      "channel": 4,
      "note": 58,
      "start": 68.6255,
      "duration": 0.0095,
      "velocity": 127,
      "chip": "ym2612"
    },
    {
      "channel": 4,
      "note": 58,
      "start": 68.65,
      "duration": 0.0072,
      "velocity": 127,
      "chip": "ym2612"
    },
    {
      "channel": 1,
      "note": 73,
      "start": 68.6728,
      "duration": 0.0237,
      "velocity": 107,
      "chip": "ym2612"
    },
    {
      "channel": 2,
      "note": 77,
      "start": 68.6755,
      "duration": 0.0216,
      "velocity": 107,
      "chip": "ym2612"
    },
    {
      "channel": 3,
      "note": 70,
      "start": 68.6782,
      "duration": 0.0195,
      "velocity": 107,
      "chip": "ym2612"
    },
    {
      "channel": 4,
      "note": 58,
      "start": 68.681,
      "duration": 0.0321,
      "velocity": 127,
      "chip": "ym2612"
    },
    {
      "channel": 1,
      "note": 73,
      "start": 68.7279,
      "duration": 0.0231,
      "velocity": 107,
      "chip": "ym2612"
    },
    {
      "channel": 2,
      "note": 77,
      "start": 68.7306,
      "duration": 0.0211,
      "velocity": 107,
      "chip": "ym2612"
    },
    {
      "channel": 3,
      "note": 70,
      "start": 68.7333,
      "duration": 0.019,
      "velocity": 107,
      "chip": "ym2612"
    },
    {
      "channel": 4,
      "note": 58,
      "start": 68.7361,
      "duration": 0.0087,
      "velocity": 127,
      "chip": "ym2612"
    },
    {
      "channel": 4,
      "note": 58,
      "start": 68.7598,
      "duration": 0.0072,
      "velocity": 127,
      "chip": "ym2612"
    },
    {
      "channel": 1,
      "note": 73,
      "start": 68.783,
      "duration": 0.0235,
      "velocity": 107,
      "chip": "ym2612"
    },
    {
      "channel": 2,
      "note": 77,
      "start": 68.7856,
      "duration": 0.0215,
      "velocity": 107,
      "chip": "ym2612"
    },
    {
      "channel": 3,
      "note": 70,
      "start": 68.7884,
      "duration": 0.0199,
      "velocity": 107,
      "chip": "ym2612"
    },
    {
      "channel": 4,
      "note": 58,
      "start": 68.7912,
      "duration": 0.0353,
      "velocity": 127,
      "chip": "ym2612"
    },
    {
      "channel": 1,
      "note": 73,
      "start": 68.8136,
      "duration": 0.0193,
      "velocity": 107,
      "chip": "ym2612"
    },
    {
      "channel": 2,
      "note": 77,
      "start": 68.8163,
      "duration": 0.0173,
      "velocity": 107,
      "chip": "ym2612"
    },
    {
      "channel": 3,
      "note": 70,
      "start": 68.819,
      "duration": 0.0156,
      "velocity": 107,
      "chip": "ym2612"
    },
    {
      "channel": 4,
      "note": 58,
      "start": 68.8424,
      "duration": 0.0088,
      "velocity": 127,
      "chip": "ym2612"
    },
    {
      "channel": 1,
      "note": 73,
      "start": 68.8651,
      "duration": 0.0244,
      "velocity": 107,
      "chip": "ym2612"
    },
    {
      "channel": 2,
      "note": 77,
      "start": 68.8677,
      "duration": 0.0228,
      "velocity": 107,
      "chip": "ym2612"
    },
    {
      "channel": 3,
      "note": 70,
      "start": 68.8705,
      "duration": 0.0207,
      "velocity": 107,
      "chip": "ym2612"
    },
    {
      "channel": 4,
      "note": 58,
      "start": 68.8733,
      "duration": 0.0087,
      "velocity": 127,
      "chip": "ym2612"
    },
    {
      "channel": 1,
      "note": 73,
      "start": 68.8974,
      "duration": 0.0234,
      "velocity": 107,
      "chip": "ym2612"
    },
    {
      "channel": 2,
      "note": 77,
      "start": 68.9001,
      "duration": 0.0214,
      "velocity": 107,
      "chip": "ym2612"
    },
    {
      "channel": 3,
      "note": 70,
      "start": 68.9028,
      "duration": 0.0193,
      "velocity": 107,
      "chip": "ym2612"
    },
    {
      "channel": 4,
      "note": 58,
      "start": 68.9056,
      "duration": 0.0286,
      "velocity": 127,
      "chip": "ym2612"
    },
    {
      "channel": 1,
      "note": 73,
      "start": 68.9502,
      "duration": 0.0231,
      "velocity": 107,
      "chip": "ym2612"
    },
    {
      "channel": 2,
      "note": 77,
      "start": 68.9529,
      "duration": 0.021,
      "velocity": 107,
      "chip": "ym2612"
    },
    {
      "channel": 3,
      "note": 70,
      "start": 68.9556,
      "duration": 0.019,
      "velocity": 107,
      "chip": "ym2612"
    },
    {
      "channel": 4,
      "note": 58,
      "start": 68.9584,
      "duration": 0.0087,
      "velocity": 127,
      "chip": "ym2612"
    },
    {
      "channel": 4,
      "note": 58,
      "start": 68.9821,
      "duration": 0.0072,
      "velocity": 127,
      "chip": "ym2612"
    },
    {
      "channel": 1,
      "note": 73,
      "start": 69.0053,
      "duration": 0.0227,
      "velocity": 107,
      "chip": "ym2612"
    },
    {
      "channel": 2,
      "note": 77,
      "start": 69.008,
      "duration": 0.0207,
      "velocity": 107,
      "chip": "ym2612"
    },
    {
      "channel": 3,
      "note": 70,
      "start": 69.0108,
      "duration": 0.0186,
      "velocity": 107,
      "chip": "ym2612"
    },
    {
      "channel": 4,
      "note": 58,
      "start": 69.0135,
      "duration": 0.0278,
      "velocity": 127,
      "chip": "ym2612"
    },
    {
      "channel": 1,
      "note": 73,
      "start": 69.0553,
      "duration": 0.023,
      "velocity": 107,
      "chip": "ym2612"
    },
    {
      "channel": 2,
      "note": 77,
      "start": 69.058,
      "duration": 0.021,
      "velocity": 107,
      "chip": "ym2612"
    },
    {
      "channel": 3,
      "note": 70,
      "start": 69.0607,
      "duration": 0.0189,
      "velocity": 107,
      "chip": "ym2612"
    },
    {
      "channel": 4,
      "note": 58,
      "start": 69.0635,
      "duration": 0.0086,
      "velocity": 127,
      "chip": "ym2612"
    },
    {
      "channel": 4,
      "note": 58,
      "start": 69.0871,
      "duration": 0.0072,
      "velocity": 127,
      "chip": "ym2612"
    },
    {
      "channel": 1,
      "note": 73,
      "start": 69.1099,
      "duration": 0.0237,
      "velocity": 107,
      "chip": "ym2612"
    },
    {
      "channel": 2,
      "note": 77,
      "start": 69.1125,
      "duration": 0.0216,
      "velocity": 107,
      "chip": "ym2612"
    },
    {
      "channel": 3,
      "note": 70,
      "start": 69.1153,
      "duration": 0.0195,
      "velocity": 107,
      "chip": "ym2612"
    },
    {
      "channel": 4,
      "note": 58,
      "start": 69.1181,
      "duration": 0.0322,
      "velocity": 127,
      "chip": "ym2612"
    },
    {
      "channel": 1,
      "note": 73,
      "start": 69.165,
      "duration": 0.023,
      "velocity": 107,
      "chip": "ym2612"
    },
    {
      "channel": 2,
      "note": 77,
      "start": 69.1677,
      "duration": 0.021,
      "velocity": 107,
      "chip": "ym2612"
    },
    {
      "channel": 3,
      "note": 70,
      "start": 69.1705,
      "duration": 0.0189,
      "velocity": 107,
      "chip": "ym2612"
    },
    {
      "channel": 4,
      "note": 58,
      "start": 69.1732,
      "duration": 0.0087,
      "velocity": 127,
      "chip": "ym2612"
    },
    {
      "channel": 4,
      "note": 58,
      "start": 69.197,
      "duration": 0.0072,
      "velocity": 127,
      "chip": "ym2612"
    },
    {
      "channel": 1,
      "note": 73,
      "start": 69.2201,
      "duration": 0.0236,
      "velocity": 107,
      "chip": "ym2612"
    },
    {
      "channel": 2,
      "note": 77,
      "start": 69.2228,
      "duration": 0.0215,
      "velocity": 107,
      "chip": "ym2612"
    },
    {
      "channel": 3,
      "note": 70,
      "start": 69.2256,
      "duration": 0.0199,
      "velocity": 107,
      "chip": "ym2612"
    },
    {
      "channel": 4,
      "note": 58,
      "start": 69.2283,
      "duration": 0.0353,
      "velocity": 127,
      "chip": "ym2612"
    },
    {
      "channel": 1,
      "note": 73,
      "start": 69.2508,
      "duration": 0.0193,
      "velocity": 107,
      "chip": "ym2612"
    },
    {
      "channel": 2,
      "note": 77,
      "start": 69.2534,
      "duration": 0.0173,
      "velocity": 107,
      "chip": "ym2612"
    },
    {
      "channel": 3,
      "note": 70,
      "start": 69.2562,
      "duration": 0.0156,
      "velocity": 107,
      "chip": "ym2612"
    },
    {
      "channel": 4,
      "note": 58,
      "start": 69.2796,
      "duration": 0.0095,
      "velocity": 127,
      "chip": "ym2612"
    },
    {
      "channel": 1,
      "note": 73,
      "start": 69.3028,
      "duration": 0.0227,
      "velocity": 107,
      "chip": "ym2612"
    },
    {
      "channel": 2,
      "note": 77,
      "start": 69.3054,
      "duration": 0.0211,
      "velocity": 107,
      "chip": "ym2612"
    },
    {
      "channel": 3,
      "note": 70,
      "start": 69.3082,
      "duration": 0.019,
      "velocity": 107,
      "chip": "ym2612"
    },
    {
      "channel": 4,
      "note": 58,
      "start": 69.311,
      "duration": 0.0072,
      "velocity": 127,
      "chip": "ym2612"
    },
    {
      "channel": 1,
      "note": 73,
      "start": 69.3335,
      "duration": 0.0227,
      "velocity": 107,
      "chip": "ym2612"
    },
    {
      "channel": 2,
      "note": 77,
      "start": 69.3362,
      "duration": 0.0207,
      "velocity": 107,
      "chip": "ym2612"
    },
    {
      "channel": 3,
      "note": 70,
      "start": 69.3389,
      "duration": 0.0186,
      "velocity": 107,
      "chip": "ym2612"
    },
    {
      "channel": 4,
      "note": 58,
      "start": 69.3417,
      "duration": 0.0278,
      "velocity": 127,
      "chip": "ym2612"
    },
    {
      "channel": 1,
      "note": 73,
      "start": 69.386,
      "duration": 0.023,
      "velocity": 107,
      "chip": "ym2612"
    },
    {
      "channel": 2,
      "note": 77,
      "start": 69.3887,
      "duration": 0.0209,
      "velocity": 107,
      "chip": "ym2612"
    },
    {
      "channel": 3,
      "note": 70,
      "start": 69.3915,
      "duration": 0.0188,
      "velocity": 107,
      "chip": "ym2612"
    },
    {
      "channel": 4,
      "note": 58,
      "start": 69.3943,
      "duration": 0.0086,
      "velocity": 127,
      "chip": "ym2612"
    },
    {
      "channel": 4,
      "note": 58,
      "start": 69.4179,
      "duration": 0.0072,
      "velocity": 127,
      "chip": "ym2612"
    },
    {
      "channel": 1,
      "note": 73,
      "start": 69.4411,
      "duration": 0.0229,
      "velocity": 107,
      "chip": "ym2612"
    },
    {
      "channel": 2,
      "note": 77,
      "start": 69.4438,
      "duration": 0.0209,
      "velocity": 107,
      "chip": "ym2612"
    },
    {
      "channel": 3,
      "note": 70,
      "start": 69.4466,
      "duration": 0.0188,
      "velocity": 107,
      "chip": "ym2612"
    },
    {
      "channel": 4,
      "note": 58,
      "start": 69.4494,
      "duration": 0.0317,
      "velocity": 127,
      "chip": "ym2612"
    },
    {
      "channel": 1,
      "note": 78,
      "start": 69.4979,
      "duration": 0.024,
      "velocity": 107,
      "chip": "ym2612"
    },
    {
      "channel": 2,
      "note": 82,
      "start": 69.5006,
      "duration": 0.022,
      "velocity": 107,
      "chip": "ym2612"
    },
    {
      "channel": 3,
      "note": 75,
      "start": 69.5034,
      "duration": 0.0199,
      "velocity": 107,
      "chip": "ym2612"
    },
    {
      "channel": 4,
      "note": 58,
      "start": 69.5061,
      "duration": 0.0095,
      "velocity": 127,
      "chip": "ym2612"
    },
    {
      "channel": 4,
      "note": 58,
      "start": 69.5307,
      "duration": 0.0072,
      "velocity": 127,
      "chip": "ym2612"
    },
    {
      "channel": 1,
      "note": 78,
      "start": 69.5534,
      "duration": 0.0237,
      "velocity": 107,
      "chip": "ym2612"
    },
    {
      "channel": 2,
      "note": 82,
      "start": 69.5561,
      "duration": 0.0216,
      "velocity": 107,
      "chip": "ym2612"
    },
    {
      "channel": 3,
      "note": 75,
      "start": 69.5588,
      "duration": 0.0195,
      "velocity": 107,
      "chip": "ym2612"
    },
    {
      "channel": 4,
      "note": 58,
      "start": 69.5616,
      "duration": 0.032,
      "velocity": 127,
      "chip": "ym2612"
    },
    {
      "channel": 1,
      "note": 73,
      "start": 69.6085,
      "duration": 0.023,
      "velocity": 107,
      "chip": "ym2612"
    },
    {
      "channel": 2,
      "note": 77,
      "start": 69.6112,
      "duration": 0.021,
      "velocity": 107,
      "chip": "ym2612"
    },
    {
      "channel": 3,
      "note": 70,
      "start": 69.6139,
      "duration": 0.0189,
      "velocity": 107,
      "chip": "ym2612"
    },
    {
      "channel": 4,
      "note": 58,
      "start": 69.6167,
      "duration": 0.0086,
      "velocity": 127,
      "chip": "ym2612"
    },
    {
      "channel": 4,
      "note": 58,
      "start": 69.6404,
      "duration": 0.0072,
      "velocity": 127,
      "chip": "ym2612"
    },
    {
      "channel": 1,
      "note": 73,
      "start": 69.6636,
      "duration": 0.0235,
      "velocity": 107,
      "chip": "ym2612"
    },
    {
      "channel": 2,
      "note": 77,
      "start": 69.6663,
      "duration": 0.0215,
      "velocity": 107,
      "chip": "ym2612"
    },
    {
      "channel": 3,
      "note": 70,
      "start": 69.669,
      "duration": 0.0199,
      "velocity": 107,
      "chip": "ym2612"
    },
    {
      "channel": 4,
      "note": 58,
      "start": 69.6718,
      "duration": 0.0352,
      "velocity": 127,
      "chip": "ym2612"
    },
    {
      "channel": 1,
      "note": 73,
      "start": 69.6942,
      "duration": 0.0193,
      "velocity": 107,
      "chip": "ym2612"
    },
    {
      "channel": 2,
      "note": 77,
      "start": 69.6969,
      "duration": 0.0173,
      "velocity": 107,
      "chip": "ym2612"
    },
    {
      "channel": 3,
      "note": 70,
      "start": 69.6996,
      "duration": 0.0156,
      "velocity": 107,
      "chip": "ym2612"
    },
    {
      "channel": 4,
      "note": 58,
      "start": 69.7231,
      "duration": 0.0088,
      "velocity": 127,
      "chip": "ym2612"
    },
    {
      "channel": 1,
      "note": 73,
      "start": 69.7457,
      "duration": 0.0244,
      "velocity": 107,
      "chip": "ym2612"
    },
    {
      "channel": 2,
      "note": 77,
      "start": 69.7484,
      "duration": 0.0227,
      "velocity": 107,
      "chip": "ym2612"
    },
    {
      "channel": 3,
      "note": 70,
      "start": 69.7512,
      "duration": 0.0207,
      "velocity": 107,
      "chip": "ym2612"
    },
    {
      "channel": 4,
      "note": 58,
      "start": 69.754,
      "duration": 0.0086,
      "velocity": 127,
      "chip": "ym2612"
    },
    {
      "channel": 1,
      "note": 73,
      "start": 69.778,
      "duration": 0.0234,
      "velocity": 107,
      "chip": "ym2612"
    },
    {
      "channel": 2,
      "note": 77,
      "start": 69.7807,
      "duration": 0.0214,
      "velocity": 107,
      "chip": "ym2612"
    },
    {
      "channel": 3,
      "note": 70,
      "start": 69.7835,
      "duration": 0.0193,
      "velocity": 107,
      "chip": "ym2612"
    },
    {
      "channel": 4,
      "note": 58,
      "start": 69.7863,
      "duration": 0.0286,
      "velocity": 127,
      "chip": "ym2612"
    },
    {
      "channel": 1,
      "note": 73,
      "start": 69.8308,
      "duration": 0.0231,
      "velocity": 107,
      "chip": "ym2612"
    },
    {
      "channel": 2,
      "note": 77,
      "start": 69.8335,
      "duration": 0.0211,
      "velocity": 107,
      "chip": "ym2612"
    },
    {
      "channel": 3,
      "note": 70,
      "start": 69.8362,
      "duration": 0.019,
      "velocity": 107,
      "chip": "ym2612"
    },
    {
      "channel": 4,
      "note": 58,
      "start": 69.839,
      "duration": 0.0087,
      "velocity": 127,
      "chip": "ym2612"
    },
    {
      "channel": 4,
      "note": 58,
      "start": 69.8627,
      "duration": 0.0072,
      "velocity": 127,
      "chip": "ym2612"
    },
    {
      "channel": 1,
      "note": 73,
      "start": 69.8859,
      "duration": 0.0227,
      "velocity": 107,
      "chip": "ym2612"
    },
    {
      "channel": 2,
      "note": 77,
      "start": 69.8886,
      "duration": 0.0206,
      "velocity": 107,
      "chip": "ym2612"
    },
    {
      "channel": 3,
      "note": 70,
      "start": 69.8913,
      "duration": 0.0185,
      "velocity": 107,
      "chip": "ym2612"
    },
    {
      "channel": 4,
      "note": 58,
      "start": 69.8941,
      "duration": 0.0278,
      "velocity": 127,
      "chip": "ym2612"
    },
    {
      "channel": 1,
      "note": 73,
      "start": 69.9359,
      "duration": 0.023,
      "velocity": 107,
      "chip": "ym2612"
    },
    {
      "channel": 2,
      "note": 77,
      "start": 69.9385,
      "duration": 0.021,
      "velocity": 107,
      "chip": "ym2612"
    },
    {
      "channel": 3,
      "note": 70,
      "start": 69.9413,
      "duration": 0.0188,
      "velocity": 107,
      "chip": "ym2612"
    },
    {
      "channel": 4,
      "note": 58,
      "start": 69.9441,
      "duration": 0.0086,
      "velocity": 127,
      "chip": "ym2612"
    },
    {
      "channel": 4,
      "note": 58,
      "start": 69.9677,
      "duration": 0.0072,
      "velocity": 127,
      "chip": "ym2612"
    },
    {
      "channel": 1,
      "note": 73,
      "start": 69.9904,
      "duration": 0.0236,
      "velocity": 107,
      "chip": "ym2612"
    },
    {
      "channel": 2,
      "note": 77,
      "start": 69.9931,
      "duration": 0.0216,
      "velocity": 107,
      "chip": "ym2612"
    },
    {
      "channel": 3,
      "note": 70,
      "start": 69.9958,
      "duration": 0.0195,
      "velocity": 107,
      "chip": "ym2612"
    },
    {
      "channel": 4,
      "note": 58,
      "start": 69.9986,
      "duration": 0.0321,
      "velocity": 127,
      "chip": "ym2612"
    },
    {
      "channel": 1,
      "note": 73,
      "start": 70.0455,
      "duration": 0.023,
      "velocity": 107,
      "chip": "ym2612"
    },
    {
      "channel": 2,
      "note": 77,
      "start": 70.0482,
      "duration": 0.021,
      "velocity": 107,
      "chip": "ym2612"
    },
    {
      "channel": 3,
      "note": 70,
      "start": 70.0509,
      "duration": 0.0189,
      "velocity": 107,
      "chip": "ym2612"
    },
    {
      "channel": 4,
      "note": 58,
      "start": 70.0537,
      "duration": 0.0087,
      "velocity": 127,
      "chip": "ym2612"
    },
    {
      "channel": 4,
      "note": 58,
      "start": 70.0774,
      "duration": 0.0072,
      "velocity": 127,
      "chip": "ym2612"
    },
    {
      "channel": 1,
      "note": 73,
      "start": 70.1006,
      "duration": 0.0237,
      "velocity": 107,
      "chip": "ym2612"
    },
    {
      "channel": 2,
      "note": 77,
      "start": 70.1033,
      "duration": 0.0219,
      "velocity": 107,
      "chip": "ym2612"
    },
    {
      "channel": 3,
      "note": 70,
      "start": 70.1061,
      "duration": 0.02,
      "velocity": 107,
      "chip": "ym2612"
    },
    {
      "channel": 4,
      "note": 58,
      "start": 70.1089,
      "duration": 0.0383,
      "velocity": 127,
      "chip": "ym2612"
    },
    {
      "channel": 1,
      "note": 73,
      "start": 70.1327,
      "duration": 0.0209,
      "velocity": 107,
      "chip": "ym2612"
    },
    {
      "channel": 2,
      "note": 77,
      "start": 70.1354,
      "duration": 0.0189,
      "velocity": 107,
      "chip": "ym2612"
    },
    {
      "channel": 3,
      "note": 70,
      "start": 70.1382,
      "duration": 0.0172,
      "velocity": 107,
      "chip": "ym2612"
    },
    {
      "channel": 4,
      "note": 58,
      "start": 70.1641,
      "duration": 0.0095,
      "velocity": 127,
      "chip": "ym2612"
    },
    {
      "channel": 1,
      "note": 73,
      "start": 70.1873,
      "duration": 0.0227,
      "velocity": 107,
      "chip": "ym2612"
    },
    {
      "channel": 2,
      "note": 77,
      "start": 70.1899,
      "duration": 0.0211,
      "velocity": 107,
      "chip": "ym2612"
    },
    {
      "channel": 3,
      "note": 70,
      "start": 70.1927,
      "duration": 0.019,
      "velocity": 107,
      "chip": "ym2612"
    },
    {
      "channel": 4,
      "note": 58,
      "start": 70.1955,
      "duration": 0.0072,
      "velocity": 127,
      "chip": "ym2612"
    },
    {
      "channel": 1,
      "note": 73,
      "start": 70.218,
      "duration": 0.0227,
      "velocity": 107,
      "chip": "ym2612"
    },
    {
      "channel": 2,
      "note": 77,
      "start": 70.2207,
      "duration": 0.0206,
      "velocity": 107,
      "chip": "ym2612"
    },
    {
      "channel": 3,
      "note": 70,
      "start": 70.2234,
      "duration": 0.0185,
      "velocity": 107,
      "chip": "ym2612"
    },
    {
      "channel": 4,
      "note": 58,
      "start": 70.2262,
      "duration": 0.0277,
      "velocity": 127,
      "chip": "ym2612"
    },
    {
      "channel": 1,
      "note": 73,
      "start": 70.2704,
      "duration": 0.023,
      "velocity": 107,
      "chip": "ym2612"
    },
    {
      "channel": 2,
      "note": 77,
      "start": 70.2731,
      "duration": 0.0209,
      "velocity": 107,
      "chip": "ym2612"
    },
    {
      "channel": 3,
      "note": 70,
      "start": 70.2758,
      "duration": 0.0188,
      "velocity": 107,
      "chip": "ym2612"
    },
    {
      "channel": 4,
      "note": 58,
      "start": 70.2786,
      "duration": 0.0086,
      "velocity": 127,
      "chip": "ym2612"
    },
    {
      "channel": 4,
      "note": 58,
      "start": 70.3023,
      "duration": 0.0072,
      "velocity": 127,
      "chip": "ym2612"
    },
    {
      "channel": 1,
      "note": 73,
      "start": 70.3252,
      "duration": 0.0203,
      "velocity": 107,
      "chip": "ym2612"
    },
    {
      "channel": 2,
      "note": 77,
      "start": 70.3279,
      "duration": 0.0183,
      "velocity": 107,
      "chip": "ym2612"
    },
    {
      "channel": 3,
      "note": 70,
      "start": 70.3306,
      "duration": 0.0162,
      "velocity": 107,
      "chip": "ym2612"
    },
    {
      "channel": 4,
      "note": 58,
      "start": 70.3334,
      "duration": 0.0268,
      "velocity": 127,
      "chip": "ym2612"
    },
    {
      "channel": 1,
      "note": 73,
      "start": 70.3722,
      "duration": 0.0207,
      "velocity": 107,
      "chip": "ym2612"
    },
    {
      "channel": 2,
      "note": 77,
      "start": 70.3749,
      "duration": 0.0187,
      "velocity": 107,
      "chip": "ym2612"
    },
    {
      "channel": 3,
      "note": 70,
      "start": 70.3777,
      "duration": 0.0166,
      "velocity": 107,
      "chip": "ym2612"
    },
    {
      "channel": 4,
      "note": 58,
      "start": 70.3805,
      "duration": 0.0077,
      "velocity": 127,
      "chip": "ym2612"
    },
    {
      "channel": 4,
      "note": 58,
      "start": 70.4015,
      "duration": 0.006,
      "velocity": 127,
      "chip": "ym2612"
    },
    {
      "channel": 1,
      "note": 73,
      "start": 70.4202,
      "duration": 0.0203,
      "velocity": 107,
      "chip": "ym2612"
    },
    {
      "channel": 2,
      "note": 77,
      "start": 70.4229,
      "duration": 0.0183,
      "velocity": 107,
      "chip": "ym2612"
    },
    {
      "channel": 3,
      "note": 70,
      "start": 70.4256,
      "duration": 0.0162,
      "velocity": 107,
      "chip": "ym2612"
    },
    {
      "channel": 4,
      "note": 58,
      "start": 70.4284,
      "duration": 0.0256,
      "velocity": 127,
      "chip": "ym2612"
    },
    {
      "channel": 1,
      "note": 73,
      "start": 70.469,
      "duration": 0.0207,
      "velocity": 107,
      "chip": "ym2612"
    },
    {
      "channel": 2,
      "note": 77,
      "start": 70.4717,
      "duration": 0.0187,
      "velocity": 107,
      "chip": "ym2612"
    },
    {
      "channel": 3,
      "note": 70,
      "start": 70.4745,
      "duration": 0.0166,
      "velocity": 107,
      "chip": "ym2612"
    },
    {
      "channel": 4,
      "note": 58,
      "start": 70.4773,
      "duration": 0.0076,
      "velocity": 127,
      "chip": "ym2612"
    },
    {
      "channel": 4,
      "note": 58,
      "start": 70.4983,
      "duration": 0.0061,
      "velocity": 127,
      "chip": "ym2612"
    },
    {
      "channel": 1,
      "note": 73,
      "start": 70.5165,
      "duration": 0.021,
      "velocity": 107,
      "chip": "ym2612"
    },
    {
      "channel": 2,
      "note": 77,
      "start": 70.5192,
      "duration": 0.019,
      "velocity": 107,
      "chip": "ym2612"
    },
    {
      "channel": 3,
      "note": 70,
      "start": 70.5219,
      "duration": 0.0173,
      "velocity": 107,
      "chip": "ym2612"
    },
    {
      "channel": 4,
      "note": 58,
      "start": 70.5247,
      "duration": 0.0313,
      "velocity": 127,
      "chip": "ym2612"
    },
    {
      "channel": 1,
      "note": 73,
      "start": 70.5442,
      "duration": 0.017,
      "velocity": 107,
      "chip": "ym2612"
    },
    {
      "channel": 2,
      "note": 77,
      "start": 70.5469,
      "duration": 0.0149,
      "velocity": 107,
      "chip": "ym2612"
    },
    {
      "channel": 3,
      "note": 70,
      "start": 70.5497,
      "duration": 0.0128,
      "velocity": 107,
      "chip": "ym2612"
    },
    {
      "channel": 4,
      "note": 58,
      "start": 70.571,
      "duration": 0.0076,
      "velocity": 127,
      "chip": "ym2612"
    },
    {
      "channel": 1,
      "note": 73,
      "start": 70.5929,
      "duration": 0.022,
      "velocity": 107,
      "chip": "ym2612"
    },
    {
      "channel": 2,
      "note": 77,
      "start": 70.5956,
      "duration": 0.0203,
      "velocity": 107,
      "chip": "ym2612"
    },
    {
      "channel": 3,
      "note": 70,
      "start": 70.5984,
      "duration": 0.0183,
      "velocity": 107,
      "chip": "ym2612"
    },
    {
      "channel": 4,
      "note": 58,
      "start": 70.6012,
      "duration": 0.0076,
      "velocity": 127,
      "chip": "ym2612"
    },
    {
      "channel": 1,
      "note": 73,
      "start": 70.622,
      "duration": 0.0201,
      "velocity": 107,
      "chip": "ym2612"
    },
    {
      "channel": 2,
      "note": 77,
      "start": 70.6247,
      "duration": 0.0181,
      "velocity": 107,
      "chip": "ym2612"
    },
    {
      "channel": 3,
      "note": 70,
      "start": 70.6274,
      "duration": 0.016,
      "velocity": 107,
      "chip": "ym2612"
    },
    {
      "channel": 4,
      "note": 58,
      "start": 70.6302,
      "duration": 0.024,
      "velocity": 127,
      "chip": "ym2612"
    },
    {
      "channel": 1,
      "note": 73,
      "start": 70.6687,
      "duration": 0.0207,
      "velocity": 107,
      "chip": "ym2612"
    },
    {
      "channel": 2,
      "note": 77,
      "start": 70.6713,
      "duration": 0.0187,
      "velocity": 107,
      "chip": "ym2612"
    },
    {
      "channel": 3,
      "note": 70,
      "start": 70.6741,
      "duration": 0.0166,
      "velocity": 107,
      "chip": "ym2612"
    },
    {
      "channel": 4,
      "note": 58,
      "start": 70.6769,
      "duration": 0.0076,
      "velocity": 127,
      "chip": "ym2612"
    },
    {
      "channel": 4,
      "note": 58,
      "start": 70.6979,
      "duration": 0.006,
      "velocity": 127,
      "chip": "ym2612"
    },
    {
      "channel": 1,
      "note": 73,
      "start": 70.7166,
      "duration": 0.0201,
      "velocity": 107,
      "chip": "ym2612"
    },
    {
      "channel": 2,
      "note": 77,
      "start": 70.7192,
      "duration": 0.0181,
      "velocity": 107,
      "chip": "ym2612"
    },
    {
      "channel": 3,
      "note": 70,
      "start": 70.722,
      "duration": 0.016,
      "velocity": 107,
      "chip": "ym2612"
    },
    {
      "channel": 4,
      "note": 58,
      "start": 70.7248,
      "duration": 0.0237,
      "velocity": 127,
      "chip": "ym2612"
    },
    {
      "channel": 1,
      "note": 73,
      "start": 70.7617,
      "duration": 0.0216,
      "velocity": 107,
      "chip": "ym2612"
    },
    {
      "channel": 2,
      "note": 77,
      "start": 70.7644,
      "duration": 0.0196,
      "velocity": 107,
      "chip": "ym2612"
    },
    {
      "channel": 3,
      "note": 70,
      "start": 70.7671,
      "duration": 0.0175,
      "velocity": 107,
      "chip": "ym2612"
    },
    {
      "channel": 4,
      "note": 58,
      "start": 70.7699,
      "duration": 0.0085,
      "velocity": 127,
      "chip": "ym2612"
    },
    {
      "channel": 4,
      "note": 58,
      "start": 70.7918,
      "duration": 0.006,
      "velocity": 127,
      "chip": "ym2612"
    },
    {
      "channel": 1,
      "note": 73,
      "start": 70.8105,
      "duration": 0.0202,
      "velocity": 107,
      "chip": "ym2612"
    },
    {
      "channel": 2,
      "note": 77,
      "start": 70.8132,
      "duration": 0.0182,
      "velocity": 107,
      "chip": "ym2612"
    },
    {
      "channel": 3,
      "note": 70,
      "start": 70.8159,
      "duration": 0.0161,
      "velocity": 107,
      "chip": "ym2612"
    },
    {
      "channel": 4,
      "note": 58,
      "start": 70.8187,
      "duration": 0.0256,
      "velocity": 127,
      "chip": "ym2612"
    },
    {
      "channel": 1,
      "note": 73,
      "start": 70.8563,
      "duration": 0.0207,
      "velocity": 107,
      "chip": "ym2612"
    },
    {
      "channel": 2,
      "note": 77,
      "start": 70.859,
      "duration": 0.0187,
      "velocity": 107,
      "chip": "ym2612"
    },
    {
      "channel": 3,
      "note": 70,
      "start": 70.8618,
      "duration": 0.0166,
      "velocity": 107,
      "chip": "ym2612"
    },
    {
      "channel": 4,
      "note": 58,
      "start": 70.8646,
      "duration": 0.0076,
      "velocity": 127,
      "chip": "ym2612"
    },
    {
      "channel": 4,
      "note": 58,
      "start": 70.8856,
      "duration": 0.0061,
      "velocity": 127,
      "chip": "ym2612"
    },
    {
      "channel": 1,
      "note": 73,
      "start": 70.9039,
      "duration": 0.0209,
      "velocity": 107,
      "chip": "ym2612"
    },
    {
      "channel": 2,
      "note": 77,
      "start": 70.9066,
      "duration": 0.0189,
      "velocity": 107,
      "chip": "ym2612"
    },
    {
      "channel": 3,
      "note": 70,
      "start": 70.9094,
      "duration": 0.0172,
      "velocity": 107,
      "chip": "ym2612"
    },
    {
      "channel": 4,
      "note": 58,
      "start": 70.9122,
      "duration": 0.0312,
      "velocity": 127,
      "chip": "ym2612"
    },
    {
      "channel": 1,
      "note": 73,
      "start": 70.9316,
      "duration": 0.0171,
      "velocity": 107,
      "chip": "ym2612"
    },
    {
      "channel": 2,
      "note": 77,
      "start": 70.9343,
      "duration": 0.015,
      "velocity": 107,
      "chip": "ym2612"
    },
    {
      "channel": 3,
      "note": 70,
      "start": 70.937,
      "duration": 0.0129,
      "velocity": 107,
      "chip": "ym2612"
    },
    {
      "channel": 4,
      "note": 58,
      "start": 70.9584,
      "duration": 0.0086,
      "velocity": 127,
      "chip": "ym2612"
    },
    {
      "channel": 1,
      "note": 73,
      "start": 70.9789,
      "duration": 0.0204,
      "velocity": 107,
      "chip": "ym2612"
    },
    {
      "channel": 2,
      "note": 77,
      "start": 70.9815,
      "duration": 0.0186,
      "velocity": 107,
      "chip": "ym2612"
    },
    {
      "channel": 3,
      "note": 70,
      "start": 70.9843,
      "duration": 0.0167,
      "velocity": 107,
      "chip": "ym2612"
    },
    {
      "channel": 4,
      "note": 58,
      "start": 70.9871,
      "duration": 0.0062,
      "velocity": 127,
      "chip": "ym2612"
    },
    {
      "channel": 1,
      "note": 73,
      "start": 71.0078,
      "duration": 0.02,
      "velocity": 107,
      "chip": "ym2612"
    },
    {
      "channel": 2,
      "note": 77,
      "start": 71.0105,
      "duration": 0.018,
      "velocity": 107,
      "chip": "ym2612"
    },
    {
      "channel": 3,
      "note": 70,
      "start": 71.0132,
      "duration": 0.0159,
      "velocity": 107,
      "chip": "ym2612"
    },
    {
      "channel": 4,
      "note": 58,
      "start": 71.016,
      "duration": 0.0237,
      "velocity": 127,
      "chip": "ym2612"
    },
    {
      "channel": 1,
      "note": 73,
      "start": 71.0528,
      "duration": 0.0207,
      "velocity": 107,
      "chip": "ym2612"
    },
    {
      "channel": 2,
      "note": 77,
      "start": 71.0555,
      "duration": 0.0187,
      "velocity": 107,
      "chip": "ym2612"
    },
    {
      "channel": 3,
      "note": 70,
      "start": 71.0583,
      "duration": 0.0166,
      "velocity": 107,
      "chip": "ym2612"
    },
    {
      "channel": 4,
      "note": 58,
      "start": 71.061,
      "duration": 0.0076,
      "velocity": 127,
      "chip": "ym2612"
    },
    {
      "channel": 4,
      "note": 58,
      "start": 71.082,
      "duration": 0.0061,
      "velocity": 127,
      "chip": "ym2612"
    },
    {
      "channel": 1,
      "note": 73,
      "start": 71.1002,
      "duration": 0.0203,
      "velocity": 107,
      "chip": "ym2612"
    },
    {
      "channel": 2,
      "note": 77,
      "start": 71.1029,
      "duration": 0.0183,
      "velocity": 107,
      "chip": "ym2612"
    },
    {
      "channel": 3,
      "note": 70,
      "start": 71.1057,
      "duration": 0.0162,
      "velocity": 107,
      "chip": "ym2612"
    },
    {
      "channel": 4,
      "note": 58,
      "start": 71.1085,
      "duration": 0.0268,
      "velocity": 127,
      "chip": "ym2612"
    },
    {
      "channel": 1,
      "note": 78,
      "start": 71.1491,
      "duration": 0.0177,
      "velocity": 107,
      "chip": "ym2612"
    },
    {
      "channel": 2,
      "note": 82,
      "start": 71.1517,
      "duration": 0.0157,
      "velocity": 107,
      "chip": "ym2612"
    },
    {
      "channel": 3,
      "note": 75,
      "start": 71.1545,
      "duration": 0.0136,
      "velocity": 107,
      "chip": "ym2612"
    },
    {
      "channel": 1,
      "note": 78,
      "start": 71.189,
      "duration": 0.0164,
      "velocity": 107,
      "chip": "ym2612"
    },
    {
      "channel": 2,
      "note": 82,
      "start": 71.1916,
      "duration": 0.0144,
      "velocity": 107,
      "chip": "ym2612"
    },
    {
      "channel": 3,
      "note": 75,
      "start": 71.1944,
      "duration": 0.0123,
      "velocity": 107,
      "chip": "ym2612"
    },
    {
      "channel": 1,
      "note": 73,
      "start": 71.2267,
      "duration": 0.0151,
      "velocity": 107,
      "chip": "ym2612"
    },
    {
      "channel": 2,
      "note": 77,
      "start": 71.2294,
      "duration": 0.0131,
      "velocity": 107,
      "chip": "ym2612"
    },
    {
      "channel": 3,
      "note": 70,
      "start": 71.2321,
      "duration": 0.011,
      "velocity": 107,
      "chip": "ym2612"
    },
    {
      "channel": 1,
      "note": 73,
      "start": 71.2834,
      "duration": 0.0778,
      "velocity": 107,
      "chip": "ym2612"
    },
    {
      "channel": 2,
      "note": 77,
      "start": 71.286,
      "duration": 0.0758,
      "velocity": 107,
      "chip": "ym2612"
    },
    {
      "channel": 3,
      "note": 70,
      "start": 71.2888,
      "duration": 0.0741,
      "velocity": 107,
      "chip": "ym2612"
    },
    {
      "channel": 1,
      "note": 73,
      "start": 71.383,
      "duration": 0.0769,
      "velocity": 107,
      "chip": "ym2612"
    },
    {
      "channel": 2,
      "note": 77,
      "start": 71.3857,
      "duration": 0.0749,
      "velocity": 107,
      "chip": "ym2612"
    },
    {
      "channel": 3,
      "note": 70,
      "start": 71.3885,
      "duration": 0.0728,
      "velocity": 107,
      "chip": "ym2612"
    },
    {
      "channel": 1,
      "note": 73,
      "start": 71.5824,
      "duration": 0.0778,
      "velocity": 107,
      "chip": "ym2612"
    },
    {
      "channel": 2,
      "note": 77,
      "start": 71.5851,
      "duration": 0.0758,
      "velocity": 107,
      "chip": "ym2612"
    },
    {
      "channel": 3,
      "note": 70,
      "start": 71.5878,
      "duration": 0.0741,
      "velocity": 107,
      "chip": "ym2612"
    },
    {
      "channel": 1,
      "note": 73,
      "start": 71.6821,
      "duration": 0.0769,
      "velocity": 107,
      "chip": "ym2612"
    },
    {
      "channel": 2,
      "note": 77,
      "start": 71.6848,
      "duration": 0.0749,
      "velocity": 107,
      "chip": "ym2612"
    },
    {
      "channel": 3,
      "note": 70,
      "start": 71.6875,
      "duration": 0.0728,
      "velocity": 107,
      "chip": "ym2612"
    },
    {
      "channel": 1,
      "note": 73,
      "start": 71.8815,
      "duration": 0.0769,
      "velocity": 107,
      "chip": "ym2612"
    },
    {
      "channel": 2,
      "note": 77,
      "start": 71.8841,
      "duration": 0.0749,
      "velocity": 107,
      "chip": "ym2612"
    },
    {
      "channel": 3,
      "note": 70,
      "start": 71.8869,
      "duration": 0.0728,
      "velocity": 107,
      "chip": "ym2612"
    },
    {
      "channel": 1,
      "note": 73,
      "start": 72.0808,
      "duration": 0.0769,
      "velocity": 107,
      "chip": "ym2612"
    },
    {
      "channel": 2,
      "note": 77,
      "start": 72.0835,
      "duration": 0.0749,
      "velocity": 107,
      "chip": "ym2612"
    },
    {
      "channel": 3,
      "note": 70,
      "start": 72.0863,
      "duration": 0.0728,
      "velocity": 107,
      "chip": "ym2612"
    },
    {
      "channel": 1,
      "note": 73,
      "start": 72.2802,
      "duration": 0.0769,
      "velocity": 107,
      "chip": "ym2612"
    },
    {
      "channel": 2,
      "note": 77,
      "start": 72.2829,
      "duration": 0.0749,
      "velocity": 107,
      "chip": "ym2612"
    },
    {
      "channel": 3,
      "note": 70,
      "start": 72.2856,
      "duration": 0.0728,
      "velocity": 107,
      "chip": "ym2612"
    },
    {
      "channel": 1,
      "note": 73,
      "start": 72.4795,
      "duration": 0.0769,
      "velocity": 107,
      "chip": "ym2612"
    },
    {
      "channel": 2,
      "note": 77,
      "start": 72.4822,
      "duration": 0.0749,
      "velocity": 107,
      "chip": "ym2612"
    },
    {
      "channel": 3,
      "note": 70,
      "start": 72.485,
      "duration": 0.0728,
      "velocity": 107,
      "chip": "ym2612"
    },
    {
      "channel": 1,
      "note": 73,
      "start": 72.6789,
      "duration": 0.0769,
      "velocity": 107,
      "chip": "ym2612"
    },
    {
      "channel": 2,
      "note": 77,
      "start": 72.6816,
      "duration": 0.0749,
      "velocity": 107,
      "chip": "ym2612"
    },
    {
      "channel": 3,
      "note": 70,
      "start": 72.6844,
      "duration": 0.0728,
      "velocity": 107,
      "chip": "ym2612"
    },
    {
      "channel": 1,
      "note": 73,
      "start": 72.8783,
      "duration": 0.0778,
      "velocity": 107,
      "chip": "ym2612"
    },
    {
      "channel": 2,
      "note": 77,
      "start": 72.881,
      "duration": 0.0757,
      "velocity": 107,
      "chip": "ym2612"
    },
    {
      "channel": 3,
      "note": 70,
      "start": 72.8837,
      "duration": 0.0741,
      "velocity": 107,
      "chip": "ym2612"
    },
    {
      "channel": 1,
      "note": 73,
      "start": 72.978,
      "duration": 0.0769,
      "velocity": 107,
      "chip": "ym2612"
    },
    {
      "channel": 2,
      "note": 77,
      "start": 72.9807,
      "duration": 0.0749,
      "velocity": 107,
      "chip": "ym2612"
    },
    {
      "channel": 3,
      "note": 70,
      "start": 72.9834,
      "duration": 0.0728,
      "velocity": 107,
      "chip": "ym2612"
    },
    {
      "channel": 1,
      "note": 73,
      "start": 73.1773,
      "duration": 0.0778,
      "velocity": 107,
      "chip": "ym2612"
    },
    {
      "channel": 2,
      "note": 77,
      "start": 73.18,
      "duration": 0.0757,
      "velocity": 107,
      "chip": "ym2612"
    },
    {
      "channel": 3,
      "note": 70,
      "start": 73.1828,
      "duration": 0.0741,
      "velocity": 107,
      "chip": "ym2612"
    },
    {
      "channel": 1,
      "note": 73,
      "start": 73.277,
      "duration": 0.0769,
      "velocity": 107,
      "chip": "ym2612"
    },
    {
      "channel": 2,
      "note": 77,
      "start": 73.2797,
      "duration": 0.0749,
      "velocity": 107,
      "chip": "ym2612"
    },
    {
      "channel": 3,
      "note": 70,
      "start": 73.2824,
      "duration": 0.0728,
      "velocity": 107,
      "chip": "ym2612"
    },
    {
      "channel": 1,
      "note": 73,
      "start": 73.4764,
      "duration": 0.0769,
      "velocity": 107,
      "chip": "ym2612"
    },
    {
      "channel": 2,
      "note": 77,
      "start": 73.4791,
      "duration": 0.0749,
      "velocity": 107,
      "chip": "ym2612"
    },
    {
      "channel": 3,
      "note": 70,
      "start": 73.4818,
      "duration": 0.0728,
      "velocity": 107,
      "chip": "ym2612"
    },
    {
      "channel": 1,
      "note": 73,
      "start": 73.6757,
      "duration": 0.0769,
      "velocity": 107,
      "chip": "ym2612"
    },
    {
      "channel": 2,
      "note": 77,
      "start": 73.6784,
      "duration": 0.0749,
      "velocity": 107,
      "chip": "ym2612"
    },
    {
      "channel": 3,
      "note": 70,
      "start": 73.6812,
      "duration": 0.0728,
      "velocity": 107,
      "chip": "ym2612"
    },
    {
      "channel": 1,
      "note": 73,
      "start": 73.8751,
      "duration": 0.0769,
      "velocity": 107,
      "chip": "ym2612"
    },
    {
      "channel": 2,
      "note": 77,
      "start": 73.8778,
      "duration": 0.0749,
      "velocity": 107,
      "chip": "ym2612"
    },
    {
      "channel": 3,
      "note": 70,
      "start": 73.8805,
      "duration": 0.0728,
      "velocity": 107,
      "chip": "ym2612"
    },
    {
      "channel": 1,
      "note": 73,
      "start": 74.0745,
      "duration": 0.0769,
      "velocity": 107,
      "chip": "ym2612"
    },
    {
      "channel": 2,
      "note": 77,
      "start": 74.0772,
      "duration": 0.0749,
      "velocity": 107,
      "chip": "ym2612"
    },
    {
      "channel": 3,
      "note": 70,
      "start": 74.0799,
      "duration": 0.0728,
      "velocity": 107,
      "chip": "ym2612"
    },
    {
      "channel": 1,
      "note": 73,
      "start": 74.2739,
      "duration": 0.0769,
      "velocity": 107,
      "chip": "ym2612"
    },
    {
      "channel": 2,
      "note": 77,
      "start": 74.2765,
      "duration": 0.0749,
      "velocity": 107,
      "chip": "ym2612"
    },
    {
      "channel": 3,
      "note": 70,
      "start": 74.2793,
      "duration": 0.0728,
      "velocity": 107,
      "chip": "ym2612"
    },
    {
      "channel": 1,
      "note": 73,
      "start": 74.4732,
      "duration": 0.0778,
      "velocity": 107,
      "chip": "ym2612"
    },
    {
      "channel": 2,
      "note": 77,
      "start": 74.4759,
      "duration": 0.0758,
      "velocity": 107,
      "chip": "ym2612"
    },
    {
      "channel": 3,
      "note": 70,
      "start": 74.4786,
      "duration": 0.0741,
      "velocity": 107,
      "chip": "ym2612"
    },
    {
      "channel": 1,
      "note": 73,
      "start": 74.5729,
      "duration": 0.0769,
      "velocity": 107,
      "chip": "ym2612"
    },
    {
      "channel": 2,
      "note": 77,
      "start": 74.5756,
      "duration": 0.0749,
      "velocity": 107,
      "chip": "ym2612"
    },
    {
      "channel": 3,
      "note": 70,
      "start": 74.5783,
      "duration": 0.0728,
      "velocity": 107,
      "chip": "ym2612"
    },
    {
      "channel": 1,
      "note": 73,
      "start": 74.7723,
      "duration": 0.0778,
      "velocity": 107,
      "chip": "ym2612"
    },
    {
      "channel": 2,
      "note": 77,
      "start": 74.7749,
      "duration": 0.0758,
      "velocity": 107,
      "chip": "ym2612"
    },
    {
      "channel": 3,
      "note": 70,
      "start": 74.7777,
      "duration": 0.0741,
      "velocity": 107,
      "chip": "ym2612"
    },
    {
      "channel": 1,
      "note": 73,
      "start": 74.872,
      "duration": 0.0769,
      "velocity": 107,
      "chip": "ym2612"
    },
    {
      "channel": 2,
      "note": 77,
      "start": 74.8746,
      "duration": 0.0749,
      "velocity": 107,
      "chip": "ym2612"
    },
    {
      "channel": 3,
      "note": 70,
      "start": 74.8774,
      "duration": 0.0728,
      "velocity": 107,
      "chip": "ym2612"
    },
    {
      "channel": 1,
      "note": 73,
      "start": 75.0713,
      "duration": 0.0769,
      "velocity": 107,
      "chip": "ym2612"
    },
    {
      "channel": 2,
      "note": 77,
      "start": 75.074,
      "duration": 0.0749,
      "velocity": 107,
      "chip": "ym2612"
    },
    {
      "channel": 3,
      "note": 70,
      "start": 75.0768,
      "duration": 0.0728,
      "velocity": 107,
      "chip": "ym2612"
    },
    {
      "channel": 1,
      "note": 73,
      "start": 75.2707,
      "duration": 0.0769,
      "velocity": 107,
      "chip": "ym2612"
    },
    {
      "channel": 2,
      "note": 77,
      "start": 75.2734,
      "duration": 0.0749,
      "velocity": 107,
      "chip": "ym2612"
    },
    {
      "channel": 3,
      "note": 70,
      "start": 75.2761,
      "duration": 0.0728,
      "velocity": 107,
      "chip": "ym2612"
    },
    {
      "channel": 1,
      "note": 73,
      "start": 75.47,
      "duration": 0.0769,
      "velocity": 107,
      "chip": "ym2612"
    },
    {
      "channel": 2,
      "note": 77,
      "start": 75.4727,
      "duration": 0.0749,
      "velocity": 107,
      "chip": "ym2612"
    },
    {
      "channel": 3,
      "note": 70,
      "start": 75.4755,
      "duration": 0.0728,
      "velocity": 107,
      "chip": "ym2612"
    },
    {
      "channel": 1,
      "note": 73,
      "start": 75.6694,
      "duration": 0.0769,
      "velocity": 107,
      "chip": "ym2612"
    },
    {
      "channel": 2,
      "note": 77,
      "start": 75.6721,
      "duration": 0.0749,
      "velocity": 107,
      "chip": "ym2612"
    },
    {
      "channel": 3,
      "note": 70,
      "start": 75.6749,
      "duration": 0.0728,
      "velocity": 107,
      "chip": "ym2612"
    },
    {
      "channel": 1,
      "note": 73,
      "start": 75.8688,
      "duration": 0.0769,
      "velocity": 107,
      "chip": "ym2612"
    },
    {
      "channel": 2,
      "note": 77,
      "start": 75.8715,
      "duration": 0.0749,
      "velocity": 107,
      "chip": "ym2612"
    },
    {
      "channel": 3,
      "note": 70,
      "start": 75.8742,
      "duration": 0.0728,
      "velocity": 107,
      "chip": "ym2612"
    },
    {
      "channel": 1,
      "note": 73,
      "start": 76.0681,
      "duration": 0.0778,
      "velocity": 107,
      "chip": "ym2612"
    },
    {
      "channel": 2,
      "note": 77,
      "start": 76.0708,
      "duration": 0.0757,
      "velocity": 107,
      "chip": "ym2612"
    },
    {
      "channel": 3,
      "note": 70,
      "start": 76.0736,
      "duration": 0.0741,
      "velocity": 107,
      "chip": "ym2612"
    },
    {
      "channel": 1,
      "note": 73,
      "start": 76.1678,
      "duration": 0.0769,
      "velocity": 107,
      "chip": "ym2612"
    },
    {
      "channel": 2,
      "note": 77,
      "start": 76.1705,
      "duration": 0.0749,
      "velocity": 107,
      "chip": "ym2612"
    },
    {
      "channel": 3,
      "note": 70,
      "start": 76.1733,
      "duration": 0.0728,
      "velocity": 107,
      "chip": "ym2612"
    },
    {
      "channel": 1,
      "note": 73,
      "start": 76.3672,
      "duration": 0.0778,
      "velocity": 107,
      "chip": "ym2612"
    },
    {
      "channel": 2,
      "note": 77,
      "start": 76.3699,
      "duration": 0.0757,
      "velocity": 107,
      "chip": "ym2612"
    },
    {
      "channel": 3,
      "note": 70,
      "start": 76.3726,
      "duration": 0.0741,
      "velocity": 107,
      "chip": "ym2612"
    },
    {
      "channel": 1,
      "note": 73,
      "start": 76.4669,
      "duration": 0.0769,
      "velocity": 107,
      "chip": "ym2612"
    },
    {
      "channel": 2,
      "note": 77,
      "start": 76.4695,
      "duration": 0.0749,
      "velocity": 107,
      "chip": "ym2612"
    },
    {
      "channel": 3,
      "note": 70,
      "start": 76.4723,
      "duration": 0.0728,
      "velocity": 107,
      "chip": "ym2612"
    },
    {
      "channel": 1,
      "note": 73,
      "start": 76.6662,
      "duration": 0.0769,
      "velocity": 107,
      "chip": "ym2612"
    },
    {
      "channel": 2,
      "note": 77,
      "start": 76.6689,
      "duration": 0.0749,
      "velocity": 107,
      "chip": "ym2612"
    },
    {
      "channel": 3,
      "note": 70,
      "start": 76.6717,
      "duration": 0.0728,
      "velocity": 107,
      "chip": "ym2612"
    },
    {
      "channel": 1,
      "note": 73,
      "start": 76.8656,
      "duration": 0.0769,
      "velocity": 107,
      "chip": "ym2612"
    },
    {
      "channel": 2,
      "note": 77,
      "start": 76.8683,
      "duration": 0.0749,
      "velocity": 107,
      "chip": "ym2612"
    },
    {
      "channel": 3,
      "note": 70,
      "start": 76.8711,
      "duration": 0.0728,
      "velocity": 107,
      "chip": "ym2612"
    },
    {
      "channel": 1,
      "note": 78,
      "start": 77.065,
      "duration": 0.0769,
      "velocity": 107,
      "chip": "ym2612"
    },
    {
      "channel": 2,
      "note": 82,
      "start": 77.0677,
      "duration": 0.0749,
      "velocity": 107,
      "chip": "ym2612"
    },
    {
      "channel": 3,
      "note": 75,
      "start": 77.0704,
      "duration": 0.0728,
      "velocity": 107,
      "chip": "ym2612"
    },
    {
      "channel": 1,
      "note": 78,
      "start": 77.2644,
      "duration": 0.0769,
      "velocity": 107,
      "chip": "ym2612"
    },
    {
      "channel": 2,
      "note": 82,
      "start": 77.267,
      "duration": 0.0749,
      "velocity": 107,
      "chip": "ym2612"
    },
    {
      "channel": 3,
      "note": 75,
      "start": 77.2698,
      "duration": 0.0728,
      "velocity": 107,
      "chip": "ym2612"
    },
    {
      "channel": 1,
      "note": 73,
      "start": 77.4637,
      "duration": 0.0769,
      "velocity": 107,
      "chip": "ym2612"
    },
    {
      "channel": 2,
      "note": 77,
      "start": 77.4664,
      "duration": 0.0749,
      "velocity": 107,
      "chip": "ym2612"
    },
    {
      "channel": 3,
      "note": 70,
      "start": 77.4691,
      "duration": 0.0728,
      "velocity": 107,
      "chip": "ym2612"
    },
    {
      "channel": 1,
      "note": 73,
      "start": 77.6631,
      "duration": 0.0778,
      "velocity": 107,
      "chip": "ym2612"
    },
    {
      "channel": 2,
      "note": 77,
      "start": 77.6658,
      "duration": 0.0757,
      "velocity": 107,
      "chip": "ym2612"
    },
    {
      "channel": 3,
      "note": 70,
      "start": 77.6685,
      "duration": 0.0741,
      "velocity": 107,
      "chip": "ym2612"
    },
    {
      "channel": 1,
      "note": 73,
      "start": 77.7627,
      "duration": 0.0769,
      "velocity": 107,
      "chip": "ym2612"
    },
    {
      "channel": 2,
      "note": 77,
      "start": 77.7654,
      "duration": 0.0749,
      "velocity": 107,
      "chip": "ym2612"
    },
    {
      "channel": 3,
      "note": 70,
      "start": 77.7682,
      "duration": 0.0728,
      "velocity": 107,
      "chip": "ym2612"
    },
    {
      "channel": 1,
      "note": 73,
      "start": 77.9621,
      "duration": 0.0778,
      "velocity": 107,
      "chip": "ym2612"
    },
    {
      "channel": 2,
      "note": 77,
      "start": 77.9648,
      "duration": 0.0758,
      "velocity": 107,
      "chip": "ym2612"
    },
    {
      "channel": 3,
      "note": 70,
      "start": 77.9676,
      "duration": 0.0741,
      "velocity": 107,
      "chip": "ym2612"
    },
    {
      "channel": 1,
      "note": 73,
      "start": 78.0618,
      "duration": 0.0769,
      "velocity": 107,
      "chip": "ym2612"
    },
    {
      "channel": 2,
      "note": 77,
      "start": 78.0645,
      "duration": 0.0749,
      "velocity": 107,
      "chip": "ym2612"
    },
    {
      "channel": 3,
      "note": 70,
      "start": 78.0672,
      "duration": 0.0728,
      "velocity": 107,
      "chip": "ym2612"
    },
    {
      "channel": 1,
      "note": 73,
      "start": 78.2612,
      "duration": 0.0769,
      "velocity": 107,
      "chip": "ym2612"
    },
    {
      "channel": 2,
      "note": 77,
      "start": 78.2639,
      "duration": 0.0749,
      "velocity": 107,
      "chip": "ym2612"
    },
    {
      "channel": 3,
      "note": 70,
      "start": 78.2666,
      "duration": 0.0728,
      "velocity": 107,
      "chip": "ym2612"
    },
    {
      "channel": 1,
      "note": 73,
      "start": 78.4605,
      "duration": 0.0769,
      "velocity": 107,
      "chip": "ym2612"
    },
    {
      "channel": 2,
      "note": 77,
      "start": 78.4632,
      "duration": 0.0749,
      "velocity": 107,
      "chip": "ym2612"
    },
    {
      "channel": 3,
      "note": 70,
      "start": 78.466,
      "duration": 0.0728,
      "velocity": 107,
      "chip": "ym2612"
    },
    {
      "channel": 1,
      "note": 73,
      "start": 78.6599,
      "duration": 0.0769,
      "velocity": 107,
      "chip": "ym2612"
    },
    {
      "channel": 2,
      "note": 77,
      "start": 78.6626,
      "duration": 0.0749,
      "velocity": 107,
      "chip": "ym2612"
    },
    {
      "channel": 3,
      "note": 70,
      "start": 78.6654,
      "duration": 0.0728,
      "velocity": 107,
      "chip": "ym2612"
    },
    {
      "channel": 1,
      "note": 73,
      "start": 78.8593,
      "duration": 0.0769,
      "velocity": 107,
      "chip": "ym2612"
    },
    {
      "channel": 2,
      "note": 77,
      "start": 78.862,
      "duration": 0.0749,
      "velocity": 107,
      "chip": "ym2612"
    },
    {
      "channel": 3,
      "note": 70,
      "start": 78.8647,
      "duration": 0.0728,
      "velocity": 107,
      "chip": "ym2612"
    },
    {
      "channel": 1,
      "note": 73,
      "start": 79.0586,
      "duration": 0.0769,
      "velocity": 107,
      "chip": "ym2612"
    },
    {
      "channel": 2,
      "note": 77,
      "start": 79.0613,
      "duration": 0.0749,
      "velocity": 107,
      "chip": "ym2612"
    },
    {
      "channel": 3,
      "note": 70,
      "start": 79.0641,
      "duration": 0.0728,
      "velocity": 107,
      "chip": "ym2612"
    },
    {
      "channel": 1,
      "note": 73,
      "start": 79.258,
      "duration": 0.0778,
      "velocity": 107,
      "chip": "ym2612"
    },
    {
      "channel": 2,
      "note": 77,
      "start": 79.2607,
      "duration": 0.0758,
      "velocity": 107,
      "chip": "ym2612"
    },
    {
      "channel": 3,
      "note": 70,
      "start": 79.2634,
      "duration": 0.0741,
      "velocity": 107,
      "chip": "ym2612"
    },
    {
      "channel": 1,
      "note": 73,
      "start": 79.3577,
      "duration": 0.0769,
      "velocity": 107,
      "chip": "ym2612"
    },
    {
      "channel": 2,
      "note": 77,
      "start": 79.3604,
      "duration": 0.0749,
      "velocity": 107,
      "chip": "ym2612"
    },
    {
      "channel": 3,
      "note": 70,
      "start": 79.3631,
      "duration": 0.0728,
      "velocity": 107,
      "chip": "ym2612"
    },
    {
      "channel": 1,
      "note": 73,
      "start": 79.5571,
      "duration": 0.0778,
      "velocity": 107,
      "chip": "ym2612"
    },
    {
      "channel": 2,
      "note": 77,
      "start": 79.5597,
      "duration": 0.0758,
      "velocity": 107,
      "chip": "ym2612"
    },
    {
      "channel": 3,
      "note": 70,
      "start": 79.5625,
      "duration": 0.0741,
      "velocity": 107,
      "chip": "ym2612"
    },
    {
      "channel": 1,
      "note": 73,
      "start": 79.6567,
      "duration": 0.0769,
      "velocity": 107,
      "chip": "ym2612"
    },
    {
      "channel": 2,
      "note": 77,
      "start": 79.6594,
      "duration": 0.0749,
      "velocity": 107,
      "chip": "ym2612"
    },
    {
      "channel": 3,
      "note": 70,
      "start": 79.6622,
      "duration": 0.0728,
      "velocity": 107,
      "chip": "ym2612"
    },
    {
      "channel": 1,
      "note": 73,
      "start": 79.8561,
      "duration": 0.0769,
      "velocity": 107,
      "chip": "ym2612"
    },
    {
      "channel": 2,
      "note": 77,
      "start": 79.8588,
      "duration": 0.0749,
      "velocity": 107,
      "chip": "ym2612"
    },
    {
      "channel": 3,
      "note": 70,
      "start": 79.8615,
      "duration": 0.0728,
      "velocity": 107,
      "chip": "ym2612"
    },
    {
      "channel": 1,
      "note": 73,
      "start": 80.0555,
      "duration": 0.0769,
      "velocity": 107,
      "chip": "ym2612"
    },
    {
      "channel": 2,
      "note": 77,
      "start": 80.0581,
      "duration": 0.0749,
      "velocity": 107,
      "chip": "ym2612"
    },
    {
      "channel": 3,
      "note": 70,
      "start": 80.0609,
      "duration": 0.0728,
      "velocity": 107,
      "chip": "ym2612"
    },
    {
      "channel": 1,
      "note": 73,
      "start": 80.2548,
      "duration": 0.0769,
      "velocity": 107,
      "chip": "ym2612"
    },
    {
      "channel": 2,
      "note": 77,
      "start": 80.2575,
      "duration": 0.0749,
      "velocity": 107,
      "chip": "ym2612"
    },
    {
      "channel": 3,
      "note": 70,
      "start": 80.2603,
      "duration": 0.0728,
      "velocity": 107,
      "chip": "ym2612"
    },
    {
      "channel": 1,
      "note": 73,
      "start": 80.4542,
      "duration": 0.0769,
      "velocity": 107,
      "chip": "ym2612"
    },
    {
      "channel": 2,
      "note": 77,
      "start": 80.4569,
      "duration": 0.0749,
      "velocity": 107,
      "chip": "ym2612"
    },
    {
      "channel": 3,
      "note": 70,
      "start": 80.4596,
      "duration": 0.0728,
      "velocity": 107,
      "chip": "ym2612"
    },
    {
      "channel": 1,
      "note": 73,
      "start": 80.6536,
      "duration": 0.0769,
      "velocity": 107,
      "chip": "ym2612"
    },
    {
      "channel": 2,
      "note": 77,
      "start": 80.6563,
      "duration": 0.0749,
      "velocity": 107,
      "chip": "ym2612"
    },
    {
      "channel": 3,
      "note": 70,
      "start": 80.659,
      "duration": 0.0728,
      "velocity": 107,
      "chip": "ym2612"
    },
    {
      "channel": 1,
      "note": 73,
      "start": 80.8529,
      "duration": 0.0778,
      "velocity": 107,
      "chip": "ym2612"
    },
    {
      "channel": 2,
      "note": 77,
      "start": 80.8556,
      "duration": 0.0757,
      "velocity": 107,
      "chip": "ym2612"
    },
    {
      "channel": 3,
      "note": 70,
      "start": 80.8584,
      "duration": 0.0741,
      "velocity": 107,
      "chip": "ym2612"
    },
    {
      "channel": 1,
      "note": 73,
      "start": 80.9526,
      "duration": 0.0769,
      "velocity": 107,
      "chip": "ym2612"
    },
    {
      "channel": 2,
      "note": 77,
      "start": 80.9553,
      "duration": 0.0749,
      "velocity": 107,
      "chip": "ym2612"
    },
    {
      "channel": 3,
      "note": 70,
      "start": 80.958,
      "duration": 0.0728,
      "velocity": 107,
      "chip": "ym2612"
    },
    {
      "channel": 1,
      "note": 73,
      "start": 81.152,
      "duration": 0.0778,
      "velocity": 107,
      "chip": "ym2612"
    },
    {
      "channel": 2,
      "note": 77,
      "start": 81.1547,
      "duration": 0.0757,
      "velocity": 107,
      "chip": "ym2612"
    },
    {
      "channel": 3,
      "note": 70,
      "start": 81.1574,
      "duration": 0.0741,
      "velocity": 107,
      "chip": "ym2612"
    },
    {
      "channel": 1,
      "note": 73,
      "start": 81.2517,
      "duration": 0.0769,
      "velocity": 107,
      "chip": "ym2612"
    },
    {
      "channel": 2,
      "note": 77,
      "start": 81.2544,
      "duration": 0.0749,
      "velocity": 107,
      "chip": "ym2612"
    },
    {
      "channel": 3,
      "note": 70,
      "start": 81.2571,
      "duration": 0.0728,
      "velocity": 107,
      "chip": "ym2612"
    },
    {
      "channel": 1,
      "note": 73,
      "start": 81.451,
      "duration": 0.0769,
      "velocity": 107,
      "chip": "ym2612"
    },
    {
      "channel": 2,
      "note": 77,
      "start": 81.4537,
      "duration": 0.0749,
      "velocity": 107,
      "chip": "ym2612"
    },
    {
      "channel": 3,
      "note": 70,
      "start": 81.4565,
      "duration": 0.0728,
      "velocity": 107,
      "chip": "ym2612"
    },
    {
      "channel": 1,
      "note": 73,
      "start": 81.6504,
      "duration": 0.0769,
      "velocity": 107,
      "chip": "ym2612"
    },
    {
      "channel": 2,
      "note": 77,
      "start": 81.6531,
      "duration": 0.0749,
      "velocity": 107,
      "chip": "ym2612"
    },
    {
      "channel": 3,
      "note": 70,
      "start": 81.6558,
      "duration": 0.0728,
      "velocity": 107,
      "chip": "ym2612"
    },
    {
      "channel": 1,
      "note": 73,
      "start": 81.8498,
      "duration": 0.0769,
      "velocity": 107,
      "chip": "ym2612"
    },
    {
      "channel": 2,
      "note": 77,
      "start": 81.8524,
      "duration": 0.0749,
      "velocity": 107,
      "chip": "ym2612"
    },
    {
      "channel": 3,
      "note": 70,
      "start": 81.8552,
      "duration": 0.0728,
      "velocity": 107,
      "chip": "ym2612"
    },
    {
      "channel": 1,
      "note": 73,
      "start": 82.0491,
      "duration": 0.0769,
      "velocity": 107,
      "chip": "ym2612"
    },
    {
      "channel": 2,
      "note": 77,
      "start": 82.0518,
      "duration": 0.0749,
      "velocity": 107,
      "chip": "ym2612"
    },
    {
      "channel": 3,
      "note": 70,
      "start": 82.0546,
      "duration": 0.0728,
      "velocity": 107,
      "chip": "ym2612"
    },
    {
      "channel": 1,
      "note": 73,
      "start": 82.2485,
      "duration": 0.0769,
      "velocity": 107,
      "chip": "ym2612"
    },
    {
      "channel": 2,
      "note": 77,
      "start": 82.2512,
      "duration": 0.0749,
      "velocity": 107,
      "chip": "ym2612"
    },
    {
      "channel": 3,
      "note": 70,
      "start": 82.2539,
      "duration": 0.0728,
      "velocity": 107,
      "chip": "ym2612"
    },
    {
      "channel": 1,
      "note": 73,
      "start": 82.4479,
      "duration": 0.0778,
      "velocity": 107,
      "chip": "ym2612"
    },
    {
      "channel": 2,
      "note": 77,
      "start": 82.4505,
      "duration": 0.0757,
      "velocity": 107,
      "chip": "ym2612"
    },
    {
      "channel": 3,
      "note": 70,
      "start": 82.4533,
      "duration": 0.0741,
      "velocity": 107,
      "chip": "ym2612"
    },
    {
      "channel": 1,
      "note": 73,
      "start": 82.5476,
      "duration": 0.0769,
      "velocity": 107,
      "chip": "ym2612"
    },
    {
      "channel": 2,
      "note": 77,
      "start": 82.5502,
      "duration": 0.0749,
      "velocity": 107,
      "chip": "ym2612"
    },
    {
      "channel": 3,
      "note": 70,
      "start": 82.553,
      "duration": 0.0728,
      "velocity": 107,
      "chip": "ym2612"
    },
    {
      "channel": 1,
      "note": 73,
      "start": 82.7469,
      "duration": 0.0778,
      "velocity": 107,
      "chip": "ym2612"
    },
    {
      "channel": 2,
      "note": 77,
      "start": 82.7496,
      "duration": 0.0758,
      "velocity": 107,
      "chip": "ym2612"
    },
    {
      "channel": 3,
      "note": 70,
      "start": 82.7523,
      "duration": 0.0741,
      "velocity": 107,
      "chip": "ym2612"
    },
    {
      "channel": 1,
      "note": 73,
      "start": 82.8466,
      "duration": 0.0769,
      "velocity": 107,
      "chip": "ym2612"
    },
    {
      "channel": 2,
      "note": 77,
      "start": 82.8493,
      "duration": 0.0749,
      "velocity": 107,
      "chip": "ym2612"
    },
    {
      "channel": 3,
      "note": 70,
      "start": 82.852,
      "duration": 0.0728,
      "velocity": 107,
      "chip": "ym2612"
    },
    {
      "channel": 1,
      "note": 73,
      "start": 83.046,
      "duration": 0.0769,
      "velocity": 107,
      "chip": "ym2612"
    },
    {
      "channel": 2,
      "note": 77,
      "start": 83.0486,
      "duration": 0.0749,
      "velocity": 107,
      "chip": "ym2612"
    },
    {
      "channel": 3,
      "note": 70,
      "start": 83.0514,
      "duration": 0.0728,
      "velocity": 107,
      "chip": "ym2612"
    },
    {
      "channel": 1,
      "note": 73,
      "start": 83.2453,
      "duration": 0.0769,
      "velocity": 107,
      "chip": "ym2612"
    },
    {
      "channel": 2,
      "note": 77,
      "start": 83.248,
      "duration": 0.0749,
      "velocity": 107,
      "chip": "ym2612"
    },
    {
      "channel": 3,
      "note": 70,
      "start": 83.2508,
      "duration": 0.0728,
      "velocity": 107,
      "chip": "ym2612"
    },
    {
      "channel": 0,
      "note": 46,
      "start": 83.4446,
      "duration": 114.4245,
      "velocity": 107,
      "chip": "ym2612"
    },
    {
      "channel": 1,
      "note": 78,
      "start": 83.4473,
      "duration": 114.4218,
      "velocity": 107,
      "chip": "ym2612"
    },
    {
      "channel": 2,
      "note": 82,
      "start": 83.45,
      "duration": 114.4192,
      "velocity": 107,
      "chip": "ym2612"
    }
  ]
}