{
  "track_name": "01 - Theme of Tecmo Super Baseball",
  "duration_sec": 56.345,
  "sample_rate": 44100,
  "note_count": 1020,
  "unique_pitches": 50,
  "pitch_range": 70,
  "avg_note_duration": 0.1053,
  "reconstruction_stats": {
    "notes_reconstructed": 1020,
    "keyon_events": 1020,
    "keyoff_events": 1020,
    "orphan_keyons": 0,
    "unique_pitches": 50,
    "pitch_range": 70,
    "avg_duration_sec": 0.1053
  },
  "metadata": {
    "source": "T\\Tecmo Super Baseball\\01 - Theme of Tecmo Super Baseball.vgz"
  },
  "notes": [
    {
      "channel": 2,
      "note": 42,
      "start": 0.0068,
      "duration": 0.0883,
      "velocity": 125,
      "chip": "ym2612"
    },
    {
      "channel": 3,
      "note": 87,
      "start": 0.0116,
      "duration": 0.0105,
      "velocity": 125,
      "chip": "ym2612"
    },
    {
      "channel": 0,
      "note": 76,
      "start": 0.0183,
      "duration": 0.1432,
      "velocity": 102,
      "chip": "ym2612"
    },
    {
      "channel": 2,
      "note": 42,
      "start": 0.1984,
      "duration": 0.0967,
      "velocity": 125,
      "chip": "ym2612"
    },
    {
      "channel": 3,
      "note": 87,
      "start": 0.2012,
      "duration": 0.0104,
      "velocity": 125,
      "chip": "ym2612"
    },
    {
      "channel": 2,
      "note": 42,
      "start": 0.2986,
      "duration": 0.0965,
      "velocity": 125,
      "chip": "ym2612"
    },
    {
      "channel": 3,
      "note": 87,
      "start": 0.3013,
      "duration": 0.0103,
      "velocity": 125,
      "chip": "ym2612"
    },
    {
      "channel": 3,
      "note": 87,
      "start": 0.4984,
      "duration": 0.0133,
      "velocity": 125,
      "chip": "ym2612"
    },
    {
      "channel": 3,
      "note": 87,
      "start": 0.5988,
      "duration": 0.013,
      "velocity": 125,
      "chip": "ym2612"
    },
    {
      "channel": 0,
      "note": 76,
      "start": 0.6017,
      "duration": 0.11,
      "velocity": 102,
      "chip": "ym2612"
    },
    {
      "channel": 3,
      "note": 87,
      "start": 0.7986,
      "duration": 0.0131,
      "velocity": 125,
      "chip": "ym2612"
    },
    {
      "channel": 2,
      "note": 42,
      "start": 0.8984,
      "duration": 0.0967,
      "velocity": 125,
      "chip": "ym2612"
    },
    {
      "channel": 3,
      "note": 87,
      "start": 0.9012,
      "duration": 0.0105,
      "velocity": 125,
      "chip": "ym2612"
    },
    {
      "channel": 2,
      "note": 42,
      "start": 1.099,
      "duration": 0.0962,
      "velocity": 125,
      "chip": "ym2612"
    },
    {
      "channel": 3,
      "note": 87,
      "start": 1.1016,
      "duration": 0.0101,
      "velocity": 125,
      "chip": "ym2612"
    },
    {
      "channel": 3,
      "note": 87,
      "start": 1.1986,
      "duration": 0.0131,
      "velocity": 125,
      "chip": "ym2612"
    },
    {
      "channel": 0,
      "note": 76,
      "start": 1.2013,
      "duration": 0.1103,
      "velocity": 102,
      "chip": "ym2612"
    },
    {
      "channel": 3,
      "note": 87,
      "start": 1.3985,
      "duration": 0.0131,
      "velocity": 125,
      "chip": "ym2612"
    },
    {
      "channel": 2,
      "note": 42,
      "start": 1.4984,
      "duration": 0.0968,
      "velocity": 125,
      "chip": "ym2612"
    },
    {
      "channel": 3,
      "note": 87,
      "start": 1.5011,
      "duration": 0.0105,
      "velocity": 125,
      "chip": "ym2612"
    },
    {
      "channel": 2,
      "note": 42,
      "start": 1.6984,
      "duration": 0.0967,
      "velocity": 125,
      "chip": "ym2612"
    },
    {
      "channel": 3,
      "note": 87,
      "start": 1.7012,
      "duration": 0.0272,
      "velocity": 125,
      "chip": "ym2612"
    },
    {
      "channel": 3,
      "note": 87,
      "start": 1.799,
      "duration": 0.0296,
      "velocity": 125,
      "chip": "ym2612"
    },
    {
      "channel": 1,
      "note": 74,
      "start": 1.8044,
      "duration": 0.0406,
      "velocity": 115,
      "chip": "ym2612"
    },
    {
      "channel": 0,
      "note": 76,
      "start": 1.8069,
      "duration": 0.1215,
      "velocity": 102,
      "chip": "ym2612"
    },
    {
      "channel": 1,
      "note": 74,
      "start": 1.8994,
      "duration": 0.0456,
      "velocity": 115,
      "chip": "ym2612"
    },
    {
      "channel": 3,
      "note": 87,
      "start": 1.9985,
      "duration": 0.03,
      "velocity": 125,
      "chip": "ym2612"
    },
    {
      "channel": 1,
      "note": 74,
      "start": 2.0019,
      "duration": 0.0431,
      "velocity": 115,
      "chip": "ym2612"
    },
    {
      "channel": 3,
      "note": 87,
      "start": 2.0986,
      "duration": 0.0298,
      "velocity": 125,
      "chip": "ym2612"
    },
    {
      "channel": 1,
      "note": 74,
      "start": 2.102,
      "duration": 0.0431,
      "velocity": 115,
      "chip": "ym2612"
    },
    {
      "channel": 1,
      "note": 74,
      "start": 2.1993,
      "duration": 0.0458,
      "velocity": 115,
      "chip": "ym2612"
    },
    {
      "channel": 3,
      "note": 87,
      "start": 2.2987,
      "duration": 0.0964,
      "velocity": 125,
      "chip": "ym2612"
    },
    {
      "channel": 1,
      "note": 74,
      "start": 2.3021,
      "duration": 0.043,
      "velocity": 115,
      "chip": "ym2612"
    },
    {
      "channel": 4,
      "note": 57,
      "start": 2.4001,
      "duration": 0.1284,
      "velocity": 101,
      "chip": "ym2612"
    },
    {
      "channel": 2,
      "note": 42,
      "start": 2.403,
      "duration": 0.0923,
      "velocity": 125,
      "chip": "ym2612"
    },
    {
      "channel": 3,
      "note": 87,
      "start": 2.4059,
      "duration": 0.0226,
      "velocity": 125,
      "chip": "ym2612"
    },
    {
      "channel": 1,
      "note": 74,
      "start": 2.4094,
      "duration": 0.0357,
      "velocity": 115,
      "chip": "ym2612"
    },
    {
      "channel": 0,
      "note": 76,
      "start": 2.4149,
      "duration": 0.0802,
      "velocity": 102,
      "chip": "ym2612"
    },
    {
      "channel": 4,
      "note": 57,
      "start": 2.5983,
      "duration": 0.0468,
      "velocity": 101,
      "chip": "ym2612"
    },
    {
      "channel": 2,
      "note": 42,
      "start": 2.6013,
      "duration": 0.0938,
      "velocity": 125,
      "chip": "ym2612"
    },
    {
      "channel": 3,
      "note": 87,
      "start": 2.604,
      "duration": 0.0244,
      "velocity": 125,
      "chip": "ym2612"
    },
    {
      "channel": 4,
      "note": 57,
      "start": 2.6986,
      "duration": 0.0964,
      "velocity": 101,
      "chip": "ym2612"
    },
    {
      "channel": 2,
      "note": 42,
      "start": 2.7016,
      "duration": 0.0936,
      "velocity": 125,
      "chip": "ym2612"
    },
    {
      "channel": 3,
      "note": 87,
      "start": 2.7043,
      "duration": 0.0241,
      "velocity": 125,
      "chip": "ym2612"
    },
    {
      "channel": 3,
      "note": 87,
      "start": 2.8989,
      "duration": 0.0295,
      "velocity": 125,
      "chip": "ym2612"
    },
    {
      "channel": 5,
      "note": 72,
      "start": 3.0005,
      "duration": 0.0948,
      "velocity": 116,
      "chip": "ym2612"
    },
    {
      "channel": 0,
      "note": 76,
      "start": 3.003,
      "duration": 0.092,
      "velocity": 102,
      "chip": "ym2612"
    },
    {
      "channel": 4,
      "note": 52,
      "start": 3.198,
      "duration": 0.097,
      "velocity": 101,
      "chip": "ym2612"
    },
    {
      "channel": 3,
      "note": 87,
      "start": 3.201,
      "duration": 0.0272,
      "velocity": 125,
      "chip": "ym2612"
    },
    {
      "channel": 4,
      "note": 54,
      "start": 3.2982,
      "duration": 0.0969,
      "velocity": 101,
      "chip": "ym2612"
    },
    {
      "channel": 2,
      "note": 42,
      "start": 3.3011,
      "duration": 0.0941,
      "velocity": 125,
      "chip": "ym2612"
    },
    {
      "channel": 3,
      "note": 87,
      "start": 3.3039,
      "duration": 0.0245,
      "velocity": 125,
      "chip": "ym2612"
    },
    {
      "channel": 4,
      "note": 57,
      "start": 3.4983,
      "duration": 0.0801,
      "velocity": 101,
      "chip": "ym2612"
    },
    {
      "channel": 2,
      "note": 42,
      "start": 3.5012,
      "duration": 0.094,
      "velocity": 125,
      "chip": "ym2612"
    },
    {
      "channel": 3,
      "note": 87,
      "start": 3.5039,
      "duration": 0.0245,
      "velocity": 125,
      "chip": "ym2612"
    },
    {
      "channel": 3,
      "note": 87,
      "start": 3.5986,
      "duration": 0.0298,
      "velocity": 125,
      "chip": "ym2612"
    },
    {
      "channel": 0,
      "note": 76,
      "start": 3.6019,
      "duration": 0.1263,
      "velocity": 102,
      "chip": "ym2612"
    },
    {
      "channel": 4,
      "note": 57,
      "start": 3.8148,
      "duration": 0.0469,
      "velocity": 101,
      "chip": "ym2612"
    },
    {
      "channel": 3,
      "note": 87,
      "start": 3.8178,
      "duration": 0.0105,
      "velocity": 125,
      "chip": "ym2612"
    },
    {
      "channel": 4,
      "note": 57,
      "start": 3.9149,
      "duration": 0.0968,
      "velocity": 101,
      "chip": "ym2612"
    },
    {
      "channel": 2,
      "note": 42,
      "start": 3.9182,
      "duration": 0.0936,
      "velocity": 125,
      "chip": "ym2612"
    },
    {
      "channel": 3,
      "note": 87,
      "start": 3.9209,
      "duration": 0.0075,
      "velocity": 125,
      "chip": "ym2612"
    },
    {
      "channel": 3,
      "note": 87,
      "start": 4.1152,
      "duration": 0.0132,
      "velocity": 125,
      "chip": "ym2612"
    },
    {
      "channel": 5,
      "note": 72,
      "start": 4.2154,
      "duration": 0.0965,
      "velocity": 116,
      "chip": "ym2612"
    },
    {
      "channel": 0,
      "note": 76,
      "start": 4.2181,
      "duration": 0.0935,
      "velocity": 102,
      "chip": "ym2612"
    },
    {
      "channel": 4,
      "note": 52,
      "start": 4.4154,
      "duration": 0.063,
      "velocity": 101,
      "chip": "ym2612"
    },
    {
      "channel": 3,
      "note": 87,
      "start": 4.4187,
      "duration": 0.0096,
      "velocity": 125,
      "chip": "ym2612"
    },
    {
      "channel": 4,
      "note": 54,
      "start": 4.515,
      "duration": 0.1634,
      "velocity": 101,
      "chip": "ym2612"
    },
    {
      "channel": 3,
      "note": 87,
      "start": 4.518,
      "duration": 0.0104,
      "velocity": 125,
      "chip": "ym2612"
    },
    {
      "channel": 4,
      "note": 52,
      "start": 4.7149,
      "duration": 0.0468,
      "velocity": 101,
      "chip": "ym2612"
    },
    {
      "channel": 3,
      "note": 87,
      "start": 4.718,
      "duration": 0.0937,
      "velocity": 125,
      "chip": "ym2612"
    },
    {
      "channel": 4,
      "note": 57,
      "start": 4.815,
      "duration": 0.1134,
      "velocity": 101,
      "chip": "ym2612"
    },
    {
      "channel": 2,
      "note": 42,
      "start": 4.818,
      "duration": 0.0938,
      "velocity": 125,
      "chip": "ym2612"
    },
    {
      "channel": 3,
      "note": 87,
      "start": 4.8208,
      "duration": 0.0075,
      "velocity": 125,
      "chip": "ym2612"
    },
    {
      "channel": 0,
      "note": 76,
      "start": 4.8236,
      "duration": 0.1546,
      "velocity": 102,
      "chip": "ym2612"
    },
    {
      "channel": 4,
      "note": 57,
      "start": 5.0149,
      "duration": 0.0468,
      "velocity": 101,
      "chip": "ym2612"
    },
    {
      "channel": 2,
      "note": 42,
      "start": 5.0178,
      "duration": 0.0939,
      "velocity": 125,
      "chip": "ym2612"
    },
    {
      "channel": 3,
      "note": 87,
      "start": 5.0205,
      "duration": 0.0078,
      "velocity": 125,
      "chip": "ym2612"
    },
    {
      "channel": 4,
      "note": 57,
      "start": 5.1153,
      "duration": 0.0964,
      "velocity": 101,
      "chip": "ym2612"
    },
    {
      "channel": 2,
      "note": 42,
      "start": 5.1182,
      "duration": 0.0936,
      "velocity": 125,
      "chip": "ym2612"
    },
    {
      "channel": 3,
      "note": 87,
      "start": 5.121,
      "duration": 0.0073,
      "velocity": 125,
      "chip": "ym2612"
    },
    {
      "channel": 3,
      "note": 87,
      "start": 5.3151,
      "duration": 0.0131,
      "velocity": 125,
      "chip": "ym2612"
    },
    {
      "channel": 3,
      "note": 87,
      "start": 5.4154,
      "duration": 0.0129,
      "velocity": 125,
      "chip": "ym2612"
    },
    {
      "channel": 0,
      "note": 76,
      "start": 5.4183,
      "duration": 0.1102,
      "velocity": 102,
      "chip": "ym2612"
    },
    {
      "channel": 1,
      "note": 103,
      "start": 5.4316,
      "duration": 0.1302,
      "velocity": 99,
      "chip": "ym2612"
    },
    {
      "channel": 4,
      "note": 52,
      "start": 5.615,
      "duration": 0.097,
      "velocity": 101,
      "chip": "ym2612"
    },
    {
      "channel": 3,
      "note": 87,
      "start": 5.618,
      "duration": 0.0106,
      "velocity": 125,
      "chip": "ym2612"
    },
    {
      "channel": 1,
      "note": 102,
      "start": 5.7153,
      "duration": 0.1466,
      "velocity": 99,
      "chip": "ym2612"
    },
    {
      "channel": 4,
      "note": 54,
      "start": 5.7182,
      "duration": 0.1104,
      "velocity": 101,
      "chip": "ym2612"
    },
    {
      "channel": 2,
      "note": 42,
      "start": 5.7212,
      "duration": 0.0909,
      "velocity": 125,
      "chip": "ym2612"
    },
    {
      "channel": 3,
      "note": 87,
      "start": 5.7238,
      "duration": 0.0055,
      "velocity": 125,
      "chip": "ym2612"
    },
    {
      "channel": 4,
      "note": 57,
      "start": 5.9151,
      "duration": 0.0968,
      "velocity": 101,
      "chip": "ym2612"
    },
    {
      "channel": 2,
      "note": 42,
      "start": 5.918,
      "duration": 0.0941,
      "velocity": 125,
      "chip": "ym2612"
    },
    {
      "channel": 3,
      "note": 87,
      "start": 5.9208,
      "duration": 0.0244,
      "velocity": 125,
      "chip": "ym2612"
    },
    {
      "channel": 1,
      "note": 100,
      "start": 6.015,
      "duration": 0.1801,
      "velocity": 99,
      "chip": "ym2612"
    },
    {
      "channel": 3,
      "note": 87,
      "start": 6.0182,
      "duration": 0.0271,
      "velocity": 125,
      "chip": "ym2612"
    },
    {
      "channel": 0,
      "note": 76,
      "start": 6.0209,
      "duration": 0.1241,
      "velocity": 102,
      "chip": "ym2612"
    },
    {
      "channel": 4,
      "note": 57,
      "start": 6.2151,
      "duration": 0.0468,
      "velocity": 101,
      "chip": "ym2612"
    },
    {
      "channel": 3,
      "note": 87,
      "start": 6.2181,
      "duration": 0.027,
      "velocity": 125,
      "chip": "ym2612"
    },
    {
      "channel": 4,
      "note": 57,
      "start": 6.315,
      "duration": 0.0969,
      "velocity": 101,
      "chip": "ym2612"
    },
    {
      "channel": 2,
      "note": 42,
      "start": 6.318,
      "duration": 0.0941,
      "velocity": 125,
      "chip": "ym2612"
    },
    {
      "channel": 3,
      "note": 87,
      "start": 6.3206,
      "duration": 0.0245,
      "velocity": 125,
      "chip": "ym2612"
    },
    {
      "channel": 1,
      "note": 102,
      "start": 6.3482,
      "duration": 0.1469,
      "velocity": 99,
      "chip": "ym2612"
    },
    {
      "channel": 2,
      "note": 42,
      "start": 6.5153,
      "duration": 0.0966,
      "velocity": 125,
      "chip": "ym2612"
    },
    {
      "channel": 3,
      "note": 87,
      "start": 6.518,
      "duration": 0.0271,
      "velocity": 125,
      "chip": "ym2612"
    },
    {
      "channel": 1,
      "note": 100,
      "start": 6.615,
      "duration": 0.1803,
      "velocity": 99,
      "chip": "ym2612"
    },
    {
      "channel": 3,
      "note": 87,
      "start": 6.6185,
      "duration": 0.027,
      "velocity": 125,
      "chip": "ym2612"
    },
    {
      "channel": 5,
      "note": 74,
      "start": 6.6223,
      "duration": 0.0399,
      "velocity": 115,
      "chip": "ym2612"
    },
    {
      "channel": 0,
      "note": 76,
      "start": 6.6248,
      "duration": 0.1205,
      "velocity": 102,
      "chip": "ym2612"
    },
    {
      "channel": 5,
      "note": 74,
      "start": 6.7165,
      "duration": 0.0456,
      "velocity": 115,
      "chip": "ym2612"
    },
    {
      "channel": 4,
      "note": 52,
      "start": 6.8155,
      "duration": 0.0964,
      "velocity": 101,
      "chip": "ym2612"
    },
    {
      "channel": 3,
      "note": 87,
      "start": 6.8184,
      "duration": 0.0269,
      "velocity": 125,
      "chip": "ym2612"
    },
    {
      "channel": 5,
      "note": 74,
      "start": 6.8219,
      "duration": 0.0402,
      "velocity": 115,
      "chip": "ym2612"
    },
    {
      "channel": 4,
      "note": 54,
      "start": 6.9152,
      "duration": 0.1466,
      "velocity": 101,
      "chip": "ym2612"
    },
    {
      "channel": 3,
      "note": 87,
      "start": 6.9182,
      "duration": 0.0272,
      "velocity": 125,
      "chip": "ym2612"
    },
    {
      "channel": 5,
      "note": 74,
      "start": 6.9217,
      "duration": 0.0403,
      "velocity": 115,
      "chip": "ym2612"
    },
    {
      "channel": 5,
      "note": 74,
      "start": 7.0163,
      "duration": 0.0457,
      "velocity": 115,
      "chip": "ym2612"
    },
    {
      "channel": 4,
      "note": 52,
      "start": 7.1151,
      "duration": 0.0802,
      "velocity": 101,
      "chip": "ym2612"
    },
    {
      "channel": 3,
      "note": 87,
      "start": 7.1182,
      "duration": 0.0936,
      "velocity": 125,
      "chip": "ym2612"
    },
    {
      "channel": 5,
      "note": 74,
      "start": 7.1217,
      "duration": 0.0404,
      "velocity": 115,
      "chip": "ym2612"
    },
    {
      "channel": 4,
      "note": 57,
      "start": 7.2151,
      "duration": 0.13,
      "velocity": 101,
      "chip": "ym2612"
    },
    {
      "channel": 2,
      "note": 42,
      "start": 7.2184,
      "duration": 0.0936,
      "velocity": 125,
      "chip": "ym2612"
    },
    {
      "channel": 3,
      "note": 87,
      "start": 7.2213,
      "duration": 0.0239,
      "velocity": 125,
      "chip": "ym2612"
    },
    {
      "channel": 5,
      "note": 74,
      "start": 7.2249,
      "duration": 0.0371,
      "velocity": 115,
      "chip": "ym2612"
    },
    {
      "channel": 0,
      "note": 76,
      "start": 7.2302,
      "duration": 0.0815,
      "velocity": 102,
      "chip": "ym2612"
    },
    {
      "channel": 4,
      "note": 57,
      "start": 7.415,
      "duration": 0.0467,
      "velocity": 101,
      "chip": "ym2612"
    },
    {
      "channel": 2,
      "note": 42,
      "start": 7.4179,
      "duration": 0.0939,
      "velocity": 125,
      "chip": "ym2612"
    },
    {
      "channel": 3,
      "note": 87,
      "start": 7.4206,
      "duration": 0.0245,
      "velocity": 125,
      "chip": "ym2612"
    },
    {
      "channel": 4,
      "note": 57,
      "start": 7.515,
      "duration": 0.0968,
      "velocity": 101,
      "chip": "ym2612"
    },
    {
      "channel": 2,
      "note": 42,
      "start": 7.5179,
      "duration": 0.094,
      "velocity": 125,
      "chip": "ym2612"
    },
    {
      "channel": 3,
      "note": 87,
      "start": 7.5206,
      "duration": 0.0244,
      "velocity": 125,
      "chip": "ym2612"
    },
    {
      "channel": 3,
      "note": 87,
      "start": 7.7155,
      "duration": 0.0295,
      "velocity": 125,
      "chip": "ym2612"
    },
    {
      "channel": 1,
      "note": 72,
      "start": 7.8157,
      "duration": 0.0961,
      "velocity": 116,
      "chip": "ym2612"
    },
    {
      "channel": 0,
      "note": 76,
      "start": 7.8183,
      "duration": 0.0933,
      "velocity": 102,
      "chip": "ym2612"
    },
    {
      "channel": 4,
      "note": 52,
      "start": 8.0152,
      "duration": 0.0798,
      "velocity": 101,
      "chip": "ym2612"
    },
    {
      "channel": 3,
      "note": 87,
      "start": 8.0182,
      "duration": 0.0269,
      "velocity": 125,
      "chip": "ym2612"
    },
    {
      "channel": 4,
      "note": 54,
      "start": 8.1315,
      "duration": 0.0969,
      "velocity": 101,
      "chip": "ym2612"
    },
    {
      "channel": 2,
      "note": 42,
      "start": 8.1344,
      "duration": 0.0942,
      "velocity": 125,
      "chip": "ym2612"
    },
    {
      "channel": 3,
      "note": 87,
      "start": 8.1372,
      "duration": 0.0078,
      "velocity": 125,
      "chip": "ym2612"
    },
    {
      "channel": 4,
      "note": 57,
      "start": 8.3316,
      "duration": 0.0634,
      "velocity": 101,
      "chip": "ym2612"
    },
    {
      "channel": 2,
      "note": 42,
      "start": 8.3345,
      "duration": 0.094,
      "velocity": 125,
      "chip": "ym2612"
    },
    {
      "channel": 3,
      "note": 87,
      "start": 8.3372,
      "duration": 0.0078,
      "velocity": 125,
      "chip": "ym2612"
    },
    {
      "channel": 3,
      "note": 87,
      "start": 8.432,
      "duration": 0.0131,
      "velocity": 125,
      "chip": "ym2612"
    },
    {
      "channel": 0,
      "note": 76,
      "start": 8.4348,
      "duration": 0.11,
      "velocity": 102,
      "chip": "ym2612"
    },
    {
      "channel": 4,
      "note": 57,
      "start": 8.6315,
      "duration": 0.0468,
      "velocity": 101,
      "chip": "ym2612"
    },
    {
      "channel": 3,
      "note": 87,
      "start": 8.6345,
      "duration": 0.0104,
      "velocity": 125,
      "chip": "ym2612"
    },
    {
      "channel": 4,
      "note": 57,
      "start": 8.7316,
      "duration": 0.0967,
      "velocity": 101,
      "chip": "ym2612"
    },
    {
      "channel": 2,
      "note": 42,
      "start": 8.7345,
      "duration": 0.0939,
      "velocity": 125,
      "chip": "ym2612"
    },
    {
      "channel": 3,
      "note": 87,
      "start": 8.7372,
      "duration": 0.0077,
      "velocity": 125,
      "chip": "ym2612"
    },
    {
      "channel": 3,
      "note": 87,
      "start": 8.9318,
      "duration": 0.0132,
      "velocity": 125,
      "chip": "ym2612"
    },
    {
      "channel": 1,
      "note": 72,
      "start": 9.0316,
      "duration": 0.0968,
      "velocity": 116,
      "chip": "ym2612"
    },
    {
      "channel": 0,
      "note": 76,
      "start": 9.0347,
      "duration": 0.0935,
      "velocity": 102,
      "chip": "ym2612"
    },
    {
      "channel": 4,
      "note": 52,
      "start": 9.232,
      "duration": 0.0631,
      "velocity": 101,
      "chip": "ym2612"
    },
    {
      "channel": 3,
      "note": 87,
      "start": 9.2353,
      "duration": 0.0098,
      "velocity": 125,
      "chip": "ym2612"
    },
    {
      "channel": 4,
      "note": 54,
      "start": 9.3315,
      "duration": 0.1635,
      "velocity": 101,
      "chip": "ym2612"
    },
    {
      "channel": 3,
      "note": 87,
      "start": 9.3345,
      "duration": 0.0105,
      "velocity": 125,
      "chip": "ym2612"
    },
    {
      "channel": 4,
      "note": 52,
      "start": 9.5316,
      "duration": 0.0468,
      "velocity": 101,
      "chip": "ym2612"
    },
    {
      "channel": 3,
      "note": 87,
      "start": 9.5347,
      "duration": 0.0936,
      "velocity": 125,
      "chip": "ym2612"
    },
    {
      "channel": 5,
      "note": 93,
      "start": 9.6317,
      "duration": 0.1468,
      "velocity": 99,
      "chip": "ym2612"
    },
    {
      "channel": 2,
      "note": 69,
      "start": 9.6363,
      "duration": 0.1423,
      "velocity": 107,
      "chip": "ym2612"
    },
    {
      "channel": 4,
      "note": 57,
      "start": 9.6391,
      "duration": 0.0895,
      "velocity": 101,
      "chip": "ym2612"
    },
    {
      "channel": 0,
      "note": 42,
      "start": 9.642,
      "duration": 0.0864,
      "velocity": 125,
      "chip": "ym2612"
    },
    {
      "channel": 3,
      "note": 87,
      "start": 9.6449,
      "duration": 0.0096,
      "velocity": 125,
      "chip": "ym2612"
    },
    {
      "channel": 1,
      "note": 76,
      "start": 9.6482,
      "duration": 0.097,
      "velocity": 102,
      "chip": "ym2612"
    },
    {
      "channel": 4,
      "note": 57,
      "start": 9.8318,
      "duration": 0.0469,
      "velocity": 101,
      "chip": "ym2612"
    },
    {
      "channel": 3,
      "note": 69,
      "start": 9.8363,
      "duration": 0.0422,
      "velocity": 99,
      "chip": "ym2612"
    },
    {
      "channel": 0,
      "note": 42,
      "start": 9.8388,
      "duration": 0.0896,
      "velocity": 125,
      "chip": "ym2612"
    },
    {
      "channel": 1,
      "note": 87,
      "start": 9.8417,
      "duration": 0.0034,
      "velocity": 125,
      "chip": "ym2612"
    },
    {
      "channel": 4,
      "note": 57,
      "start": 9.9322,
      "duration": 0.0964,
      "velocity": 101,
      "chip": "ym2612"
    },
    {
      "channel": 3,
      "note": 76,
      "start": 9.9348,
      "duration": 0.0437,
      "velocity": 99,
      "chip": "ym2612"
    },
    {
      "channel": 0,
      "note": 42,
      "start": 9.9377,
      "duration": 0.0907,
      "velocity": 125,
      "chip": "ym2612"
    },
    {
      "channel": 1,
      "note": 87,
      "start": 9.9404,
      "duration": 0.0048,
      "velocity": 125,
      "chip": "ym2612"
    },
    {
      "channel": 1,
      "note": 87,
      "start": 10.1317,
      "duration": 0.0132,
      "velocity": 125,
      "chip": "ym2612"
    },
    {
      "channel": 3,
      "note": 76,
      "start": 10.2315,
      "duration": 0.0469,
      "velocity": 99,
      "chip": "ym2612"
    },
    {
      "channel": 5,
      "note": 72,
      "start": 10.2343,
      "duration": 0.0942,
      "velocity": 116,
      "chip": "ym2612"
    },
    {
      "channel": 2,
      "note": 81,
      "start": 10.4318,
      "duration": 0.3468,
      "velocity": 107,
      "chip": "ym2612"
    },
    {
      "channel": 4,
      "note": 52,
      "start": 10.4345,
      "duration": 0.044,
      "velocity": 101,
      "chip": "ym2612"
    },
    {
      "channel": 3,
      "note": 69,
      "start": 10.4375,
      "duration": 0.0408,
      "velocity": 99,
      "chip": "ym2612"
    },
    {
      "channel": 1,
      "note": 87,
      "start": 10.4407,
      "duration": 0.021,
      "velocity": 125,
      "chip": "ym2612"
    },
    {
      "channel": 4,
      "note": 54,
      "start": 10.5316,
      "duration": 0.0969,
      "velocity": 101,
      "chip": "ym2612"
    },
    {
      "channel": 0,
      "note": 42,
      "start": 10.5342,
      "duration": 0.0941,
      "velocity": 125,
      "chip": "ym2612"
    },
    {
      "channel": 1,
      "note": 87,
      "start": 10.5368,
      "duration": 0.0248,
      "velocity": 125,
      "chip": "ym2612"
    },
    {
      "channel": 4,
      "note": 57,
      "start": 10.7316,
      "duration": 0.0802,
      "velocity": 101,
      "chip": "ym2612"
    },
    {
      "channel": 0,
      "note": 42,
      "start": 10.7342,
      "duration": 0.094,
      "velocity": 125,
      "chip": "ym2612"
    },
    {
      "channel": 1,
      "note": 87,
      "start": 10.7369,
      "duration": 0.0248,
      "velocity": 125,
      "chip": "ym2612"
    },
    {
      "channel": 2,
      "note": 78,
      "start": 10.8322,
      "duration": 0.1462,
      "velocity": 107,
      "chip": "ym2612"
    },
    {
      "channel": 1,
      "note": 87,
      "start": 10.8352,
      "duration": 0.0265,
      "velocity": 125,
      "chip": "ym2612"
    },
    {
      "channel": 5,
      "note": 76,
      "start": 10.8383,
      "duration": 0.0902,
      "velocity": 102,
      "chip": "ym2612"
    },
    {
      "channel": 4,
      "note": 57,
      "start": 11.0315,
      "duration": 0.047,
      "velocity": 101,
      "chip": "ym2612"
    },
    {
      "channel": 3,
      "note": 69,
      "start": 11.0342,
      "duration": 0.0442,
      "velocity": 99,
      "chip": "ym2612"
    },
    {
      "channel": 1,
      "note": 87,
      "start": 11.0369,
      "duration": 0.0248,
      "velocity": 125,
      "chip": "ym2612"
    },
    {
      "channel": 4,
      "note": 57,
      "start": 11.1316,
      "duration": 0.0801,
      "velocity": 101,
      "chip": "ym2612"
    },
    {
      "channel": 3,
      "note": 76,
      "start": 11.1342,
      "duration": 0.0442,
      "velocity": 99,
      "chip": "ym2612"
    },
    {
      "channel": 0,
      "note": 42,
      "start": 11.1367,
      "duration": 0.0915,
      "velocity": 125,
      "chip": "ym2612"
    },
    {
      "channel": 1,
      "note": 87,
      "start": 11.1394,
      "duration": 0.0222,
      "velocity": 125,
      "chip": "ym2612"
    },
    {
      "channel": 0,
      "note": 42,
      "start": 11.3315,
      "duration": 0.0967,
      "velocity": 125,
      "chip": "ym2612"
    },
    {
      "channel": 1,
      "note": 87,
      "start": 11.3341,
      "duration": 0.0275,
      "velocity": 125,
      "chip": "ym2612"
    },
    {
      "channel": 2,
      "note": 76,
      "start": 11.4318,
      "duration": 0.08,
      "velocity": 107,
      "chip": "ym2612"
    },
    {
      "channel": 3,
      "note": 76,
      "start": 11.4344,
      "duration": 0.0439,
      "velocity": 99,
      "chip": "ym2612"
    },
    {
      "channel": 5,
      "note": 72,
      "start": 11.4374,
      "duration": 0.0912,
      "velocity": 116,
      "chip": "ym2612"
    },
    {
      "channel": 4,
      "note": 52,
      "start": 11.6318,
      "duration": 0.0799,
      "velocity": 101,
      "chip": "ym2612"
    },
    {
      "channel": 3,
      "note": 69,
      "start": 11.6344,
      "duration": 0.044,
      "velocity": 99,
      "chip": "ym2612"
    },
    {
      "channel": 1,
      "note": 87,
      "start": 11.6372,
      "duration": 0.0244,
      "velocity": 125,
      "chip": "ym2612"
    },
    {
      "channel": 2,
      "note": 73,
      "start": 11.7318,
      "duration": 0.1467,
      "velocity": 107,
      "chip": "ym2612"
    },
    {
      "channel": 4,
      "note": 54,
      "start": 11.7346,
      "duration": 0.0939,
      "velocity": 101,
      "chip": "ym2612"
    },
    {
      "channel": 1,
      "note": 87,
      "start": 11.7378,
      "duration": 0.0239,
      "velocity": 125,
      "chip": "ym2612"
    },
    {
      "channel": 2,
      "note": 76,
      "start": 11.9318,
      "duration": 1.13,
      "velocity": 107,
      "chip": "ym2612"
    },
    {
      "channel": 1,
      "note": 87,
      "start": 11.935,
      "duration": 0.0933,
      "velocity": 125,
      "chip": "ym2612"
    },
    {
      "channel": 0,
      "note": 92,
      "start": 12.032,
      "duration": 1.3796,
      "velocity": 99,
      "chip": "ym2612"
    },
    {
      "channel": 4,
      "note": 52,
      "start": 12.0348,
      "duration": 0.0938,
      "velocity": 101,
      "chip": "ym2612"
    },
    {
      "channel": 5,
      "note": 42,
      "start": 12.0377,
      "duration": 0.091,
      "velocity": 125,
      "chip": "ym2612"
    },
    {
      "channel": 1,
      "note": 87,
      "start": 12.0405,
      "duration": 0.0212,
      "velocity": 125,
      "chip": "ym2612"
    },
    {
      "channel": 3,
      "note": 76,
      "start": 12.0437,
      "duration": 0.0847,
      "velocity": 102,
      "chip": "ym2612"
    },
    {
      "channel": 4,
      "note": 52,
      "start": 12.2318,
      "duration": 0.0468,
      "velocity": 101,
      "chip": "ym2612"
    },
    {
      "channel": 1,
      "note": 76,
      "start": 12.2345,
      "duration": 0.0439,
      "velocity": 99,
      "chip": "ym2612"
    },
    {
      "channel": 5,
      "note": 42,
      "start": 12.2372,
      "duration": 0.1079,
      "velocity": 125,
      "chip": "ym2612"
    },
    {
      "channel": 3,
      "note": 87,
      "start": 12.2401,
      "duration": 0.0216,
      "velocity": 125,
      "chip": "ym2612"
    },
    {
      "channel": 4,
      "note": 52,
      "start": 12.3484,
      "duration": 0.0967,
      "velocity": 101,
      "chip": "ym2612"
    },
    {
      "channel": 1,
      "note": 76,
      "start": 12.351,
      "duration": 0.0441,
      "velocity": 99,
      "chip": "ym2612"
    },
    {
      "channel": 5,
      "note": 42,
      "start": 12.3537,
      "duration": 0.0916,
      "velocity": 125,
      "chip": "ym2612"
    },
    {
      "channel": 3,
      "note": 87,
      "start": 12.3564,
      "duration": 0.0054,
      "velocity": 125,
      "chip": "ym2612"
    },
    {
      "channel": 3,
      "note": 87,
      "start": 12.5485,
      "duration": 0.0132,
      "velocity": 125,
      "chip": "ym2612"
    },
    {
      "channel": 1,
      "note": 76,
      "start": 12.6482,
      "duration": 0.0468,
      "velocity": 99,
      "chip": "ym2612"
    },
    {
      "channel": 4,
      "note": 72,
      "start": 12.6512,
      "duration": 0.0939,
      "velocity": 116,
      "chip": "ym2612"
    },
    {
      "channel": 5,
      "note": 47,
      "start": 12.8485,
      "duration": 0.0467,
      "velocity": 101,
      "chip": "ym2612"
    },
    {
      "channel": 1,
      "note": 64,
      "start": 12.8514,
      "duration": 0.0436,
      "velocity": 99,
      "chip": "ym2612"
    },
    {
      "channel": 3,
      "note": 87,
      "start": 12.8542,
      "duration": 0.0076,
      "velocity": 125,
      "chip": "ym2612"
    },
    {
      "channel": 5,
      "note": 49,
      "start": 12.9488,
      "duration": 0.0965,
      "velocity": 101,
      "chip": "ym2612"
    },
    {
      "channel": 4,
      "note": 42,
      "start": 12.952,
      "duration": 0.0931,
      "velocity": 125,
      "chip": "ym2612"
    },
    {
      "channel": 3,
      "note": 87,
      "start": 12.9551,
      "duration": 0.0066,
      "velocity": 125,
      "chip": "ym2612"
    },
    {
      "channel": 2,
      "note": 71,
      "start": 13.1486,
      "duration": 0.1134,
      "velocity": 107,
      "chip": "ym2612"
    },
    {
      "channel": 5,
      "note": 52,
      "start": 13.1514,
      "duration": 0.0604,
      "velocity": 101,
      "chip": "ym2612"
    },
    {
      "channel": 1,
      "note": 64,
      "start": 13.154,
      "duration": 0.0411,
      "velocity": 99,
      "chip": "ym2612"
    },
    {
      "channel": 4,
      "note": 42,
      "start": 13.1566,
      "duration": 0.0885,
      "velocity": 125,
      "chip": "ym2612"
    },
    {
      "channel": 3,
      "note": 87,
      "start": 13.1593,
      "duration": 0.0033,
      "velocity": 125,
      "chip": "ym2612"
    },
    {
      "channel": 1,
      "note": 76,
      "start": 13.2484,
      "duration": 0.0466,
      "velocity": 99,
      "chip": "ym2612"
    },
    {
      "channel": 3,
      "note": 87,
      "start": 13.2512,
      "duration": 0.0105,
      "velocity": 125,
      "chip": "ym2612"
    },
    {
      "channel": 5,
      "note": 52,
      "start": 13.4484,
      "duration": 0.0468,
      "velocity": 101,
      "chip": "ym2612"
    },
    {
      "channel": 3,
      "note": 87,
      "start": 13.4514,
      "duration": 0.0104,
      "velocity": 125,
      "chip": "ym2612"
    },
    {
      "channel": 0,
      "note": 92,
      "start": 13.548,
      "duration": 0.097,
      "velocity": 99,
      "chip": "ym2612"
    },
    {
      "channel": 5,
      "note": 52,
      "start": 13.5509,
      "duration": 0.111,
      "velocity": 101,
      "chip": "ym2612"
    },
    {
      "channel": 1,
      "note": 76,
      "start": 13.5533,
      "duration": 0.0417,
      "velocity": 99,
      "chip": "ym2612"
    },
    {
      "channel": 4,
      "note": 72,
      "start": 13.5564,
      "duration": 0.0889,
      "velocity": 116,
      "chip": "ym2612"
    },
    {
      "channel": 3,
      "note": 87,
      "start": 13.7486,
      "duration": 0.0131,
      "velocity": 125,
      "chip": "ym2612"
    },
    {
      "channel": 1,
      "note": 76,
      "start": 13.8482,
      "duration": 0.0469,
      "velocity": 99,
      "chip": "ym2612"
    },
    {
      "channel": 4,
      "note": 72,
      "start": 13.851,
      "duration": 0.0941,
      "velocity": 116,
      "chip": "ym2612"
    },
    {
      "channel": 0,
      "note": 92,
      "start": 14.0479,
      "duration": 0.1139,
      "velocity": 99,
      "chip": "ym2612"
    },
    {
      "channel": 5,
      "note": 52,
      "start": 14.0508,
      "duration": 0.0945,
      "velocity": 101,
      "chip": "ym2612"
    },
    {
      "channel": 1,
      "note": 64,
      "start": 14.0534,
      "duration": 0.0418,
      "velocity": 99,
      "chip": "ym2612"
    },
    {
      "channel": 4,
      "note": 72,
      "start": 14.0563,
      "duration": 0.0889,
      "velocity": 116,
      "chip": "ym2612"
    },
    {
      "channel": 5,
      "note": 54,
      "start": 14.1491,
      "duration": 0.1629,
      "velocity": 101,
      "chip": "ym2612"
    },
    {
      "channel": 3,
      "note": 87,
      "start": 14.152,
      "duration": 0.01,
      "velocity": 125,
      "chip": "ym2612"
    },
    {
      "channel": 5,
      "note": 52,
      "start": 14.3485,
      "duration": 0.0467,
      "velocity": 101,
      "chip": "ym2612"
    },
    {
      "channel": 3,
      "note": 87,
      "start": 14.3516,
      "duration": 0.0936,
      "velocity": 125,
      "chip": "ym2612"
    },
    {
      "channel": 0,
      "note": 93,
      "start": 14.4482,
      "duration": 0.1469,
      "velocity": 99,
      "chip": "ym2612"
    },
    {
      "channel": 2,
      "note": 69,
      "start": 14.4515,
      "duration": 0.1439,
      "velocity": 107,
      "chip": "ym2612"
    },
    {
      "channel": 5,
      "note": 57,
      "start": 14.4544,
      "duration": 0.0911,
      "velocity": 101,
      "chip": "ym2612"
    },
    {
      "channel": 1,
      "note": 42,
      "start": 14.4573,
      "duration": 0.0879,
      "velocity": 125,
      "chip": "ym2612"
    },
    {
      "channel": 3,
      "note": 87,
      "start": 14.4605,
      "duration": 0.0181,
      "velocity": 125,
      "chip": "ym2612"
    },
    {
      "channel": 4,
      "note": 76,
      "start": 14.465,
      "duration": 0.1636,
      "velocity": 102,
      "chip": "ym2612"
    },
    {
      "channel": 0,
      "note": 93,
      "start": 14.6482,
      "duration": 0.097,
      "velocity": 99,
      "chip": "ym2612"
    },
    {
      "channel": 5,
      "note": 57,
      "start": 14.6512,
      "duration": 0.0443,
      "velocity": 101,
      "chip": "ym2612"
    },
    {
      "channel": 3,
      "note": 69,
      "start": 14.6539,
      "duration": 0.0414,
      "velocity": 99,
      "chip": "ym2612"
    },
    {
      "channel": 1,
      "note": 42,
      "start": 14.6565,
      "duration": 0.0888,
      "velocity": 125,
      "chip": "ym2612"
    },
    {
      "channel": 2,
      "note": 87,
      "start": 14.6594,
      "duration": 0.0194,
      "velocity": 125,
      "chip": "ym2612"
    },
    {
      "channel": 5,
      "note": 57,
      "start": 14.7489,
      "duration": 0.0797,
      "velocity": 101,
      "chip": "ym2612"
    },
    {
      "channel": 3,
      "note": 76,
      "start": 14.7515,
      "duration": 0.0438,
      "velocity": 99,
      "chip": "ym2612"
    },
    {
      "channel": 1,
      "note": 42,
      "start": 14.754,
      "duration": 0.0911,
      "velocity": 125,
      "chip": "ym2612"
    },
    {
      "channel": 2,
      "note": 87,
      "start": 14.7569,
      "duration": 0.0218,
      "velocity": 125,
      "chip": "ym2612"
    },
    {
      "channel": 2,
      "note": 87,
      "start": 14.9488,
      "duration": 0.0298,
      "velocity": 125,
      "chip": "ym2612"
    },
    {
      "channel": 3,
      "note": 76,
      "start": 15.0487,
      "duration": 0.0465,
      "velocity": 99,
      "chip": "ym2612"
    },
    {
      "channel": 4,
      "note": 72,
      "start": 15.0517,
      "duration": 0.0933,
      "velocity": 116,
      "chip": "ym2612"
    },
    {
      "channel": 5,
      "note": 52,
      "start": 15.2486,
      "duration": 0.0466,
      "velocity": 101,
      "chip": "ym2612"
    },
    {
      "channel": 3,
      "note": 69,
      "start": 15.2512,
      "duration": 0.0438,
      "velocity": 99,
      "chip": "ym2612"
    },
    {
      "channel": 2,
      "note": 87,
      "start": 15.2542,
      "duration": 0.0242,
      "velocity": 125,
      "chip": "ym2612"
    },
    {
      "channel": 0,
      "note": 81,
      "start": 15.3484,
      "duration": 0.1798,
      "velocity": 107,
      "chip": "ym2612"
    },
    {
      "channel": 5,
      "note": 54,
      "start": 15.3512,
      "duration": 0.0939,
      "velocity": 101,
      "chip": "ym2612"
    },
    {
      "channel": 1,
      "note": 42,
      "start": 15.3539,
      "duration": 0.0911,
      "velocity": 125,
      "chip": "ym2612"
    },
    {
      "channel": 2,
      "note": 87,
      "start": 15.3568,
      "duration": 0.0218,
      "velocity": 125,
      "chip": "ym2612"
    },
    {
      "channel": 0,
      "note": 78,
      "start": 15.5481,
      "duration": 0.1302,
      "velocity": 107,
      "chip": "ym2612"
    },
    {
      "channel": 5,
      "note": 57,
      "start": 15.551,
      "duration": 0.0775,
      "velocity": 101,
      "chip": "ym2612"
    },
    {
      "channel": 1,
      "note": 42,
      "start": 15.5537,
      "duration": 0.0914,
      "velocity": 125,
      "chip": "ym2612"
    },
    {
      "channel": 2,
      "note": 87,
      "start": 15.5566,
      "duration": 0.022,
      "velocity": 125,
      "chip": "ym2612"
    },
    {
      "channel": 2,
      "note": 87,
      "start": 15.6489,
      "duration": 0.0298,
      "velocity": 125,
      "chip": "ym2612"
    },
    {
      "channel": 4,
      "note": 76,
      "start": 15.652,
      "duration": 0.1263,
      "velocity": 102,
      "chip": "ym2612"
    },
    {
      "channel": 5,
      "note": 57,
      "start": 15.8483,
      "duration": 0.047,
      "velocity": 101,
      "chip": "ym2612"
    },
    {
      "channel": 3,
      "note": 69,
      "start": 15.8509,
      "duration": 0.0441,
      "velocity": 99,
      "chip": "ym2612"
    },
    {
      "channel": 2,
      "note": 87,
      "start": 15.8543,
      "duration": 0.0242,
      "velocity": 125,
      "chip": "ym2612"
    },
    {
      "channel": 5,
      "note": 57,
      "start": 15.9483,
      "duration": 0.0969,
      "velocity": 101,
      "chip": "ym2612"
    },
    {
      "channel": 3,
      "note": 76,
      "start": 15.9509,
      "duration": 0.044,
      "velocity": 99,
      "chip": "ym2612"
    },
    {
      "channel": 1,
      "note": 42,
      "start": 15.9535,
      "duration": 0.0914,
      "velocity": 125,
      "chip": "ym2612"
    },
    {
      "channel": 2,
      "note": 87,
      "start": 15.9564,
      "duration": 0.0222,
      "velocity": 125,
      "chip": "ym2612"
    },
    {
      "channel": 1,
      "note": 42,
      "start": 16.1486,
      "duration": 0.0963,
      "velocity": 125,
      "chip": "ym2612"
    },
    {
      "channel": 2,
      "note": 87,
      "start": 16.1515,
      "duration": 0.0268,
      "velocity": 125,
      "chip": "ym2612"
    },
    {
      "channel": 0,
      "note": 76,
      "start": 16.2481,
      "duration": 0.0969,
      "velocity": 107,
      "chip": "ym2612"
    },
    {
      "channel": 3,
      "note": 76,
      "start": 16.2509,
      "duration": 0.0441,
      "velocity": 99,
      "chip": "ym2612"
    },
    {
      "channel": 4,
      "note": 72,
      "start": 16.2537,
      "duration": 0.0915,
      "velocity": 116,
      "chip": "ym2612"
    },
    {
      "channel": 3,
      "note": 69,
      "start": 16.4482,
      "duration": 0.0469,
      "velocity": 99,
      "chip": "ym2612"
    },
    {
      "channel": 2,
      "note": 87,
      "start": 16.4512,
      "duration": 0.0273,
      "velocity": 125,
      "chip": "ym2612"
    },
    {
      "channel": 0,
      "note": 73,
      "start": 16.5483,
      "duration": 0.1801,
      "velocity": 107,
      "chip": "ym2612"
    },
    {
      "channel": 5,
      "note": 57,
      "start": 16.551,
      "duration": 0.0775,
      "velocity": 101,
      "chip": "ym2612"
    },
    {
      "channel": 2,
      "note": 87,
      "start": 16.5542,
      "duration": 0.0244,
      "velocity": 125,
      "chip": "ym2612"
    },
    {
      "channel": 0,
      "note": 76,
      "start": 16.7654,
      "duration": 1.513,
      "velocity": 107,
      "chip": "ym2612"
    },
    {
      "channel": 2,
      "note": 87,
      "start": 16.7687,
      "duration": 0.0931,
      "velocity": 125,
      "chip": "ym2612"
    },
    {
      "channel": 5,
      "note": 52,
      "start": 16.8652,
      "duration": 0.0633,
      "velocity": 101,
      "chip": "ym2612"
    },
    {
      "channel": 1,
      "note": 42,
      "start": 16.8679,
      "duration": 0.0938,
      "velocity": 125,
      "chip": "ym2612"
    },
    {
      "channel": 2,
      "note": 87,
      "start": 16.871,
      "duration": 0.0076,
      "velocity": 125,
      "chip": "ym2612"
    },
    {
      "channel": 4,
      "note": 76,
      "start": 16.8747,
      "duration": 0.0871,
      "velocity": 102,
      "chip": "ym2612"
    },
    {
      "channel": 5,
      "note": 52,
      "start": 17.0649,
      "duration": 0.0469,
      "velocity": 101,
      "chip": "ym2612"
    },
    {
      "channel": 3,
      "note": 64,
      "start": 17.0675,
      "duration": 0.0441,
      "velocity": 99,
      "chip": "ym2612"
    },
    {
      "channel": 1,
      "note": 42,
      "start": 17.0701,
      "duration": 0.0914,
      "velocity": 125,
      "chip": "ym2612"
    },
    {
      "channel": 2,
      "note": 87,
      "start": 17.0733,
      "duration": 0.0051,
      "velocity": 125,
      "chip": "ym2612"
    },
    {
      "channel": 4,
      "note": 100,
      "start": 17.1652,
      "duration": 0.1466,
      "velocity": 99,
      "chip": "ym2612"
    },
    {
      "channel": 5,
      "note": 52,
      "start": 17.1682,
      "duration": 0.0938,
      "velocity": 101,
      "chip": "ym2612"
    },
    {
      "channel": 3,
      "note": 71,
      "start": 17.1708,
      "duration": 0.041,
      "velocity": 99,
      "chip": "ym2612"
    },
    {
      "channel": 1,
      "note": 42,
      "start": 17.1734,
      "duration": 0.0883,
      "velocity": 125,
      "chip": "ym2612"
    },
    {
      "channel": 2,
      "note": 87,
      "start": 17.1762,
      "duration": 0.0043,
      "velocity": 125,
      "chip": "ym2612"
    },
    {
      "channel": 2,
      "note": 87,
      "start": 17.3654,
      "duration": 0.0132,
      "velocity": 125,
      "chip": "ym2612"
    },
    {
      "channel": 3,
      "note": 71,
      "start": 17.4653,
      "duration": 0.0465,
      "velocity": 99,
      "chip": "ym2612"
    },
    {
      "channel": 1,
      "note": 72,
      "start": 17.4682,
      "duration": 0.0937,
      "velocity": 116,
      "chip": "ym2612"
    },
    {
      "channel": 4,
      "note": 100,
      "start": 17.6647,
      "duration": 0.1139,
      "velocity": 99,
      "chip": "ym2612"
    },
    {
      "channel": 5,
      "note": 54,
      "start": 17.6675,
      "duration": 0.0943,
      "velocity": 101,
      "chip": "ym2612"
    },
    {
      "channel": 3,
      "note": 64,
      "start": 17.6701,
      "duration": 0.0417,
      "velocity": 99,
      "chip": "ym2612"
    },
    {
      "channel": 2,
      "note": 87,
      "start": 17.6731,
      "duration": 0.0056,
      "velocity": 125,
      "chip": "ym2612"
    },
    {
      "channel": 1,
      "note": 42,
      "start": 17.7654,
      "duration": 0.0964,
      "velocity": 125,
      "chip": "ym2612"
    },
    {
      "channel": 2,
      "note": 87,
      "start": 17.7683,
      "duration": 0.0105,
      "velocity": 125,
      "chip": "ym2612"
    },
    {
      "channel": 5,
      "note": 54,
      "start": 17.9652,
      "duration": 0.0634,
      "velocity": 101,
      "chip": "ym2612"
    },
    {
      "channel": 3,
      "note": 64,
      "start": 17.9678,
      "duration": 0.044,
      "velocity": 99,
      "chip": "ym2612"
    },
    {
      "channel": 1,
      "note": 42,
      "start": 17.9703,
      "duration": 0.0914,
      "velocity": 125,
      "chip": "ym2612"
    },
    {
      "channel": 2,
      "note": 87,
      "start": 17.9732,
      "duration": 0.0055,
      "velocity": 125,
      "chip": "ym2612"
    },
    {
      "channel": 4,
      "note": 94,
      "start": 18.065,
      "duration": 0.4636,
      "velocity": 99,
      "chip": "ym2612"
    },
    {
      "channel": 5,
      "note": 55,
      "start": 18.0679,
      "duration": 0.0939,
      "velocity": 101,
      "chip": "ym2612"
    },
    {
      "channel": 3,
      "note": 71,
      "start": 18.0705,
      "duration": 0.0413,
      "velocity": 99,
      "chip": "ym2612"
    },
    {
      "channel": 2,
      "note": 87,
      "start": 18.0734,
      "duration": 0.0053,
      "velocity": 125,
      "chip": "ym2612"
    },
    {
      "channel": 2,
      "note": 87,
      "start": 18.2655,
      "duration": 0.0132,
      "velocity": 125,
      "chip": "ym2612"
    },
    {
      "channel": 5,
      "note": 55,
      "start": 18.3653,
      "duration": 0.0968,
      "velocity": 101,
      "chip": "ym2612"
    },
    {
      "channel": 3,
      "note": 71,
      "start": 18.3679,
      "duration": 0.0439,
      "velocity": 99,
      "chip": "ym2612"
    },
    {
      "channel": 1,
      "note": 42,
      "start": 18.3705,
      "duration": 0.0913,
      "velocity": 125,
      "chip": "ym2612"
    },
    {
      "channel": 2,
      "note": 87,
      "start": 18.3737,
      "duration": 0.005,
      "velocity": 125,
      "chip": "ym2612"
    },
    {
      "channel": 3,
      "note": 64,
      "start": 18.5651,
      "duration": 0.0466,
      "velocity": 99,
      "chip": "ym2612"
    },
    {
      "channel": 2,
      "note": 87,
      "start": 18.5681,
      "duration": 0.0106,
      "velocity": 125,
      "chip": "ym2612"
    },
    {
      "channel": 4,
      "note": 95,
      "start": 18.6646,
      "duration": 0.3973,
      "velocity": 99,
      "chip": "ym2612"
    },
    {
      "channel": 0,
      "note": 76,
      "start": 18.6674,
      "duration": 0.0943,
      "velocity": 107,
      "chip": "ym2612"
    },
    {
      "channel": 5,
      "note": 56,
      "start": 18.6701,
      "duration": 0.1252,
      "velocity": 101,
      "chip": "ym2612"
    },
    {
      "channel": 1,
      "note": 72,
      "start": 18.6734,
      "duration": 0.0885,
      "velocity": 116,
      "chip": "ym2612"
    },
    {
      "channel": 2,
      "note": 76,
      "start": 18.6764,
      "duration": 0.0857,
      "velocity": 102,
      "chip": "ym2612"
    },
    {
      "channel": 3,
      "note": 64,
      "start": 18.8652,
      "duration": 0.0467,
      "velocity": 99,
      "chip": "ym2612"
    },
    {
      "channel": 0,
      "note": 87,
      "start": 18.8682,
      "duration": 0.027,
      "velocity": 125,
      "chip": "ym2612"
    },
    {
      "channel": 1,
      "note": 77,
      "start": 18.9649,
      "duration": 0.0969,
      "velocity": 107,
      "chip": "ym2612"
    },
    {
      "channel": 5,
      "note": 56,
      "start": 18.9676,
      "duration": 0.1444,
      "velocity": 101,
      "chip": "ym2612"
    },
    {
      "channel": 3,
      "note": 71,
      "start": 18.9702,
      "duration": 0.0415,
      "velocity": 99,
      "chip": "ym2612"
    },
    {
      "channel": 0,
      "note": 87,
      "start": 18.9729,
      "duration": 0.0221,
      "velocity": 125,
      "chip": "ym2612"
    },
    {
      "channel": 0,
      "note": 87,
      "start": 19.1654,
      "duration": 0.0964,
      "velocity": 125,
      "chip": "ym2612"
    },
    {
      "channel": 4,
      "note": 97,
      "start": 19.2653,
      "duration": 1.7131,
      "velocity": 99,
      "chip": "ym2612"
    },
    {
      "channel": 1,
      "note": 78,
      "start": 19.2681,
      "duration": 0.5435,
      "velocity": 107,
      "chip": "ym2612"
    },
    {
      "channel": 5,
      "note": 54,
      "start": 19.2709,
      "duration": 0.091,
      "velocity": 101,
      "chip": "ym2612"
    },
    {
      "channel": 2,
      "note": 42,
      "start": 19.2738,
      "duration": 0.0882,
      "velocity": 125,
      "chip": "ym2612"
    },
    {
      "channel": 0,
      "note": 87,
      "start": 19.2766,
      "duration": 0.0185,
      "velocity": 125,
      "chip": "ym2612"
    },
    {
      "channel": 3,
      "note": 76,
      "start": 19.2799,
      "duration": 0.1152,
      "velocity": 102,
      "chip": "ym2612"
    },
    {
      "channel": 5,
      "note": 54,
      "start": 19.465,
      "duration": 0.047,
      "velocity": 101,
      "chip": "ym2612"
    },
    {
      "channel": 0,
      "note": 73,
      "start": 19.4682,
      "duration": 0.0436,
      "velocity": 99,
      "chip": "ym2612"
    },
    {
      "channel": 2,
      "note": 42,
      "start": 19.4713,
      "duration": 0.0907,
      "velocity": 125,
      "chip": "ym2612"
    },
    {
      "channel": 3,
      "note": 87,
      "start": 19.4741,
      "duration": 0.021,
      "velocity": 125,
      "chip": "ym2612"
    },
    {
      "channel": 5,
      "note": 54,
      "start": 19.5652,
      "duration": 0.0967,
      "velocity": 101,
      "chip": "ym2612"
    },
    {
      "channel": 0,
      "note": 66,
      "start": 19.5677,
      "duration": 0.044,
      "velocity": 99,
      "chip": "ym2612"
    },
    {
      "channel": 2,
      "note": 42,
      "start": 19.5705,
      "duration": 0.0915,
      "velocity": 125,
      "chip": "ym2612"
    },
    {
      "channel": 3,
      "note": 87,
      "start": 19.5736,
      "duration": 0.0215,
      "velocity": 125,
      "chip": "ym2612"
    },
    {
      "channel": 3,
      "note": 87,
      "start": 19.7652,
      "duration": 0.0298,
      "velocity": 125,
      "chip": "ym2612"
    },
    {
      "channel": 1,
      "note": 77,
      "start": 19.8649,
      "duration": 0.0968,
      "velocity": 107,
      "chip": "ym2612"
    },
    {
      "channel": 0,
      "note": 66,
      "start": 19.8675,
      "duration": 0.0441,
      "velocity": 99,
      "chip": "ym2612"
    },
    {
      "channel": 5,
      "note": 72,
      "start": 19.8704,
      "duration": 0.0915,
      "velocity": 116,
      "chip": "ym2612"
    },
    {
      "channel": 2,
      "note": 49,
      "start": 20.0656,
      "duration": 0.0298,
      "velocity": 101,
      "chip": "ym2612"
    },
    {
      "channel": 3,
      "note": 87,
      "start": 20.0685,
      "duration": 0.0266,
      "velocity": 125,
      "chip": "ym2612"
    },
    {
      "channel": 1,
      "note": 78,
      "start": 20.1649,
      "duration": 0.0802,
      "velocity": 107,
      "chip": "ym2612"
    },
    {
      "channel": 2,
      "note": 54,
      "start": 20.1678,
      "duration": 0.1274,
      "velocity": 101,
      "chip": "ym2612"
    },
    {
      "channel": 0,
      "note": 42,
      "start": 20.1706,
      "duration": 0.091,
      "velocity": 125,
      "chip": "ym2612"
    },
    {
      "channel": 3,
      "note": 87,
      "start": 20.1733,
      "duration": 0.0217,
      "velocity": 125,
      "chip": "ym2612"
    },
    {
      "channel": 0,
      "note": 42,
      "start": 20.365,
      "duration": 0.0966,
      "velocity": 125,
      "chip": "ym2612"
    },
    {
      "channel": 3,
      "note": 87,
      "start": 20.3678,
      "duration": 0.0273,
      "velocity": 125,
      "chip": "ym2612"
    },
    {
      "channel": 1,
      "note": 73,
      "start": 20.465,
      "duration": 0.4632,
      "velocity": 107,
      "chip": "ym2612"
    },
    {
      "channel": 2,
      "note": 54,
      "start": 20.4676,
      "duration": 0.1276,
      "velocity": 101,
      "chip": "ym2612"
    },
    {
      "channel": 3,
      "note": 87,
      "start": 20.4706,
      "duration": 0.0246,
      "velocity": 125,
      "chip": "ym2612"
    },
    {
      "channel": 5,
      "note": 76,
      "start": 20.4736,
      "duration": 0.0882,
      "velocity": 102,
      "chip": "ym2612"
    },
    {
      "channel": 0,
      "note": 66,
      "start": 20.665,
      "duration": 0.0466,
      "velocity": 99,
      "chip": "ym2612"
    },
    {
      "channel": 3,
      "note": 87,
      "start": 20.6679,
      "duration": 0.0271,
      "velocity": 125,
      "chip": "ym2612"
    },
    {
      "channel": 2,
      "note": 54,
      "start": 20.765,
      "duration": 0.1302,
      "velocity": 101,
      "chip": "ym2612"
    },
    {
      "channel": 0,
      "note": 73,
      "start": 20.7675,
      "duration": 0.0441,
      "velocity": 99,
      "chip": "ym2612"
    },
    {
      "channel": 5,
      "note": 42,
      "start": 20.7702,
      "duration": 0.1081,
      "velocity": 125,
      "chip": "ym2612"
    },
    {
      "channel": 3,
      "note": 87,
      "start": 20.773,
      "duration": 0.022,
      "velocity": 125,
      "chip": "ym2612"
    },
    {
      "channel": 1,
      "note": 74,
      "start": 20.9821,
      "duration": 0.3464,
      "velocity": 107,
      "chip": "ym2612"
    },
    {
      "channel": 5,
      "note": 42,
      "start": 20.9851,
      "duration": 0.0934,
      "velocity": 125,
      "chip": "ym2612"
    },
    {
      "channel": 3,
      "note": 87,
      "start": 20.9881,
      "duration": 0.0071,
      "velocity": 125,
      "chip": "ym2612"
    },
    {
      "channel": 4,
      "note": 97,
      "start": 21.0819,
      "duration": 0.0966,
      "velocity": 99,
      "chip": "ym2612"
    },
    {
      "channel": 0,
      "note": 73,
      "start": 21.0846,
      "duration": 0.0438,
      "velocity": 99,
      "chip": "ym2612"
    },
    {
      "channel": 2,
      "note": 72,
      "start": 21.0876,
      "duration": 0.0912,
      "velocity": 116,
      "chip": "ym2612"
    },
    {
      "channel": 3,
      "note": 54,
      "start": 21.2819,
      "duration": 0.0468,
      "velocity": 101,
      "chip": "ym2612"
    },
    {
      "channel": 0,
      "note": 66,
      "start": 21.2844,
      "duration": 0.0439,
      "velocity": 99,
      "chip": "ym2612"
    },
    {
      "channel": 5,
      "note": 87,
      "start": 21.2874,
      "duration": 0.0079,
      "velocity": 125,
      "chip": "ym2612"
    },
    {
      "channel": 4,
      "note": 97,
      "start": 21.3816,
      "duration": 0.1136,
      "velocity": 99,
      "chip": "ym2612"
    },
    {
      "channel": 1,
      "note": 76,
      "start": 21.3844,
      "duration": 0.094,
      "velocity": 107,
      "chip": "ym2612"
    },
    {
      "channel": 3,
      "note": 54,
      "start": 21.3871,
      "duration": 0.0915,
      "velocity": 101,
      "chip": "ym2612"
    },
    {
      "channel": 5,
      "note": 87,
      "start": 21.3902,
      "duration": 0.0059,
      "velocity": 125,
      "chip": "ym2612"
    },
    {
      "channel": 4,
      "note": 98,
      "start": 21.5818,
      "duration": 2.13,
      "velocity": 99,
      "chip": "ym2612"
    },
    {
      "channel": 5,
      "note": 87,
      "start": 21.5853,
      "duration": 0.0933,
      "velocity": 125,
      "chip": "ym2612"
    },
    {
      "channel": 1,
      "note": 78,
      "start": 21.6818,
      "duration": 0.1466,
      "velocity": 107,
      "chip": "ym2612"
    },
    {
      "channel": 3,
      "note": 47,
      "start": 21.6842,
      "duration": 0.0944,
      "velocity": 101,
      "chip": "ym2612"
    },
    {
      "channel": 2,
      "note": 42,
      "start": 21.6871,
      "duration": 0.0917,
      "velocity": 125,
      "chip": "ym2612"
    },
    {
      "channel": 5,
      "note": 87,
      "start": 21.6901,
      "duration": 0.0063,
      "velocity": 125,
      "chip": "ym2612"
    },
    {
      "channel": 0,
      "note": 76,
      "start": 21.6933,
      "duration": 0.0851,
      "velocity": 102,
      "chip": "ym2612"
    },
    {
      "channel": 2,
      "note": 42,
      "start": 21.882,
      "duration": 0.0966,
      "velocity": 125,
      "chip": "ym2612"
    },
    {
      "channel": 5,
      "note": 87,
      "start": 21.8848,
      "duration": 0.0106,
      "velocity": 125,
      "chip": "ym2612"
    },
    {
      "channel": 3,
      "note": 47,
      "start": 21.9821,
      "duration": 0.0629,
      "velocity": 101,
      "chip": "ym2612"
    },
    {
      "channel": 0,
      "note": 71,
      "start": 21.9849,
      "duration": 0.0434,
      "velocity": 99,
      "chip": "ym2612"
    },
    {
      "channel": 2,
      "note": 42,
      "start": 21.9881,
      "duration": 0.0905,
      "velocity": 125,
      "chip": "ym2612"
    },
    {
      "channel": 5,
      "note": 87,
      "start": 21.9908,
      "duration": 0.0045,
      "velocity": 125,
      "chip": "ym2612"
    },
    {
      "channel": 5,
      "note": 87,
      "start": 22.1824,
      "duration": 0.0127,
      "velocity": 125,
      "chip": "ym2612"
    },
    {
      "channel": 1,
      "note": 74,
      "start": 22.2815,
      "duration": 0.4469,
      "velocity": 107,
      "chip": "ym2612"
    },
    {
      "channel": 0,
      "note": 71,
      "start": 22.2844,
      "duration": 0.0439,
      "velocity": 99,
      "chip": "ym2612"
    },
    {
      "channel": 3,
      "note": 72,
      "start": 22.2874,
      "duration": 0.091,
      "velocity": 116,
      "chip": "ym2612"
    },
    {
      "channel": 2,
      "note": 54,
      "start": 22.4819,
      "duration": 0.0966,
      "velocity": 101,
      "chip": "ym2612"
    },
    {
      "channel": 0,
      "note": 66,
      "start": 22.4844,
      "duration": 0.0439,
      "velocity": 99,
      "chip": "ym2612"
    },
    {
      "channel": 5,
      "note": 87,
      "start": 22.4873,
      "duration": 0.0078,
      "velocity": 125,
      "chip": "ym2612"
    },
    {
      "channel": 2,
      "note": 59,
      "start": 22.5819,
      "duration": 0.1634,
      "velocity": 101,
      "chip": "ym2612"
    },
    {
      "channel": 3,
      "note": 42,
      "start": 22.5848,
      "duration": 0.0936,
      "velocity": 125,
      "chip": "ym2612"
    },
    {
      "channel": 5,
      "note": 87,
      "start": 22.5876,
      "duration": 0.0077,
      "velocity": 125,
      "chip": "ym2612"
    },
    {
      "channel": 1,
      "note": 71,
      "start": 22.7816,
      "duration": 0.1469,
      "velocity": 107,
      "chip": "ym2612"
    },
    {
      "channel": 0,
      "note": 66,
      "start": 22.7842,
      "duration": 0.0441,
      "velocity": 99,
      "chip": "ym2612"
    },
    {
      "channel": 3,
      "note": 42,
      "start": 22.7868,
      "duration": 0.0916,
      "velocity": 125,
      "chip": "ym2612"
    },
    {
      "channel": 5,
      "note": 87,
      "start": 22.7895,
      "duration": 0.0058,
      "velocity": 125,
      "chip": "ym2612"
    },
    {
      "channel": 2,
      "note": 47,
      "start": 22.8819,
      "duration": 0.0634,
      "velocity": 101,
      "chip": "ym2612"
    },
    {
      "channel": 0,
      "note": 71,
      "start": 22.8844,
      "duration": 0.0439,
      "velocity": 99,
      "chip": "ym2612"
    },
    {
      "channel": 5,
      "note": 87,
      "start": 22.8873,
      "duration": 0.0078,
      "velocity": 125,
      "chip": "ym2612"
    },
    {
      "channel": 2,
      "note": 47,
      "start": 23.0818,
      "duration": 0.0468,
      "velocity": 101,
      "chip": "ym2612"
    },
    {
      "channel": 5,
      "note": 87,
      "start": 23.0848,
      "duration": 0.027,
      "velocity": 125,
      "chip": "ym2612"
    },
    {
      "channel": 2,
      "note": 47,
      "start": 23.1818,
      "duration": 0.0968,
      "velocity": 101,
      "chip": "ym2612"
    },
    {
      "channel": 0,
      "note": 71,
      "start": 23.1844,
      "duration": 0.0439,
      "velocity": 99,
      "chip": "ym2612"
    },
    {
      "channel": 3,
      "note": 72,
      "start": 23.1874,
      "duration": 0.091,
      "velocity": 116,
      "chip": "ym2612"
    },
    {
      "channel": 0,
      "note": 66,
      "start": 23.3815,
      "duration": 0.0467,
      "velocity": 99,
      "chip": "ym2612"
    },
    {
      "channel": 5,
      "note": 87,
      "start": 23.3844,
      "duration": 0.0273,
      "velocity": 125,
      "chip": "ym2612"
    },
    {
      "channel": 3,
      "note": 72,
      "start": 23.4819,
      "duration": 0.0965,
      "velocity": 116,
      "chip": "ym2612"
    },
    {
      "channel": 1,
      "note": 76,
      "start": 23.4849,
      "duration": 0.0934,
      "velocity": 102,
      "chip": "ym2612"
    },
    {
      "channel": 2,
      "note": 47,
      "start": 23.6821,
      "duration": 0.0465,
      "velocity": 101,
      "chip": "ym2612"
    },
    {
      "channel": 3,
      "note": 72,
      "start": 23.6851,
      "duration": 0.0933,
      "velocity": 116,
      "chip": "ym2612"
    },
    {
      "channel": 2,
      "note": 47,
      "start": 23.7819,
      "duration": 0.0967,
      "velocity": 101,
      "chip": "ym2612"
    },
    {
      "channel": 5,
      "note": 87,
      "start": 23.7849,
      "duration": 0.0269,
      "velocity": 125,
      "chip": "ym2612"
    },
    {
      "channel": 5,
      "note": 87,
      "start": 23.9824,
      "duration": 0.0961,
      "velocity": 125,
      "chip": "ym2612"
    },
    {
      "channel": 0,
      "note": 75,
      "start": 24.0822,
      "duration": 0.2295,
      "velocity": 107,
      "chip": "ym2612"
    },
    {
      "channel": 1,
      "note": 78,
      "start": 24.0851,
      "duration": 0.1433,
      "velocity": 107,
      "chip": "ym2612"
    },
    {
      "channel": 2,
      "note": 47,
      "start": 24.0878,
      "duration": 0.0911,
      "velocity": 101,
      "chip": "ym2612"
    },
    {
      "channel": 4,
      "note": 42,
      "start": 24.0906,
      "duration": 0.088,
      "velocity": 125,
      "chip": "ym2612"
    },
    {
      "channel": 5,
      "note": 87,
      "start": 24.0935,
      "duration": 0.0184,
      "velocity": 125,
      "chip": "ym2612"
    },
    {
      "channel": 3,
      "note": 76,
      "start": 24.0984,
      "duration": 0.1634,
      "velocity": 102,
      "chip": "ym2612"
    },
    {
      "channel": 4,
      "note": 42,
      "start": 24.2819,
      "duration": 0.0968,
      "velocity": 125,
      "chip": "ym2612"
    },
    {
      "channel": 5,
      "note": 87,
      "start": 24.2848,
      "duration": 0.0272,
      "velocity": 125,
      "chip": "ym2612"
    },
    {
      "channel": 2,
      "note": 47,
      "start": 24.3819,
      "duration": 0.0801,
      "velocity": 101,
      "chip": "ym2612"
    },
    {
      "channel": 1,
      "note": 71,
      "start": 24.3847,
      "duration": 0.0438,
      "velocity": 99,
      "chip": "ym2612"
    },
    {
      "channel": 4,
      "note": 42,
      "start": 24.3874,
      "duration": 0.0911,
      "velocity": 125,
      "chip": "ym2612"
    },
    {
      "channel": 5,
      "note": 87,
      "start": 24.3902,
      "duration": 0.0218,
      "velocity": 125,
      "chip": "ym2612"
    },
    {
      "channel": 5,
      "note": 87,
      "start": 24.5819,
      "duration": 0.0298,
      "velocity": 125,
      "chip": "ym2612"
    },
    {
      "channel": 0,
      "note": 76,
      "start": 24.6815,
      "duration": 0.3468,
      "velocity": 107,
      "chip": "ym2612"
    },
    {
      "channel": 3,
      "note": 78,
      "start": 24.6844,
      "duration": 0.3941,
      "velocity": 107,
      "chip": "ym2612"
    },
    {
      "channel": 2,
      "note": 47,
      "start": 24.6873,
      "duration": 0.0247,
      "velocity": 101,
      "chip": "ym2612"
    },
    {
      "channel": 1,
      "note": 71,
      "start": 24.6898,
      "duration": 0.0385,
      "velocity": 99,
      "chip": "ym2612"
    },
    {
      "channel": 4,
      "note": 72,
      "start": 24.6928,
      "duration": 0.0856,
      "velocity": 116,
      "chip": "ym2612"
    },
    {
      "channel": 2,
      "note": 54,
      "start": 24.8818,
      "duration": 0.0968,
      "velocity": 101,
      "chip": "ym2612"
    },
    {
      "channel": 1,
      "note": 66,
      "start": 24.8847,
      "duration": 0.0436,
      "velocity": 99,
      "chip": "ym2612"
    },
    {
      "channel": 5,
      "note": 87,
      "start": 24.8876,
      "duration": 0.0242,
      "velocity": 125,
      "chip": "ym2612"
    },
    {
      "channel": 2,
      "note": 59,
      "start": 24.9823,
      "duration": 0.233,
      "velocity": 101,
      "chip": "ym2612"
    },
    {
      "channel": 4,
      "note": 42,
      "start": 24.9852,
      "duration": 0.0934,
      "velocity": 125,
      "chip": "ym2612"
    },
    {
      "channel": 5,
      "note": 87,
      "start": 24.988,
      "duration": 0.0239,
      "velocity": 125,
      "chip": "ym2612"
    },
    {
      "channel": 0,
      "note": 75,
      "start": 25.1983,
      "duration": 0.0634,
      "velocity": 107,
      "chip": "ym2612"
    },
    {
      "channel": 3,
      "note": 78,
      "start": 25.2009,
      "duration": 0.061,
      "velocity": 107,
      "chip": "ym2612"
    },
    {
      "channel": 1,
      "note": 66,
      "start": 25.2036,
      "duration": 0.0414,
      "velocity": 99,
      "chip": "ym2612"
    },
    {
      "channel": 4,
      "note": 42,
      "start": 25.2062,
      "duration": 0.089,
      "velocity": 125,
      "chip": "ym2612"
    },
    {
      "channel": 5,
      "note": 87,
      "start": 25.2093,
      "duration": 0.0059,
      "velocity": 125,
      "chip": "ym2612"
    },
    {
      "channel": 2,
      "note": 47,
      "start": 25.2984,
      "duration": 0.0969,
      "velocity": 101,
      "chip": "ym2612"
    },
    {
      "channel": 1,
      "note": 71,
      "start": 25.301,
      "duration": 0.0441,
      "velocity": 99,
      "chip": "ym2612"
    },
    {
      "channel": 5,
      "note": 87,
      "start": 25.304,
      "duration": 0.008,
      "velocity": 125,
      "chip": "ym2612"
    },
    {
      "channel": 5,
      "note": 87,
      "start": 25.4988,
      "duration": 0.0132,
      "velocity": 125,
      "chip": "ym2612"
    },
    {
      "channel": 2,
      "note": 47,
      "start": 25.5982,
      "duration": 0.0969,
      "velocity": 101,
      "chip": "ym2612"
    },
    {
      "channel": 1,
      "note": 71,
      "start": 25.6008,
      "duration": 0.0441,
      "velocity": 99,
      "chip": "ym2612"
    },
    {
      "channel": 4,
      "note": 42,
      "start": 25.6039,
      "duration": 0.0911,
      "velocity": 125,
      "chip": "ym2612"
    },
    {
      "channel": 5,
      "note": 87,
      "start": 25.6066,
      "duration": 0.005,
      "velocity": 125,
      "chip": "ym2612"
    },
    {
      "channel": 1,
      "note": 66,
      "start": 25.798,
      "duration": 0.0469,
      "velocity": 99,
      "chip": "ym2612"
    },
    {
      "channel": 4,
      "note": 42,
      "start": 25.8007,
      "duration": 0.0942,
      "velocity": 125,
      "chip": "ym2612"
    },
    {
      "channel": 5,
      "note": 87,
      "start": 25.8035,
      "duration": 0.0082,
      "velocity": 125,
      "chip": "ym2612"
    },
    {
      "channel": 0,
      "note": 99,
      "start": 25.8982,
      "duration": 0.1136,
      "velocity": 99,
      "chip": "ym2612"
    },
    {
      "channel": 3,
      "note": 80,
      "start": 25.9014,
      "duration": 0.0938,
      "velocity": 107,
      "chip": "ym2612"
    },
    {
      "channel": 2,
      "note": 72,
      "start": 25.9045,
      "duration": 0.0908,
      "velocity": 116,
      "chip": "ym2612"
    },
    {
      "channel": 5,
      "note": 76,
      "start": 25.9077,
      "duration": 0.1044,
      "velocity": 102,
      "chip": "ym2612"
    },
    {
      "channel": 1,
      "note": 54,
      "start": 26.0986,
      "duration": 0.0633,
      "velocity": 101,
      "chip": "ym2612"
    },
    {
      "channel": 4,
      "note": 87,
      "start": 26.1017,
      "duration": 0.0103,
      "velocity": 125,
      "chip": "ym2612"
    },
    {
      "channel": 0,
      "note": 99,
      "start": 26.198,
      "duration": 0.1138,
      "velocity": 99,
      "chip": "ym2612"
    },
    {
      "channel": 3,
      "note": 81,
      "start": 26.2005,
      "duration": 0.0946,
      "velocity": 107,
      "chip": "ym2612"
    },
    {
      "channel": 1,
      "note": 59,
      "start": 26.2032,
      "duration": 0.1586,
      "velocity": 101,
      "chip": "ym2612"
    },
    {
      "channel": 4,
      "note": 87,
      "start": 26.2062,
      "duration": 0.0058,
      "velocity": 125,
      "chip": "ym2612"
    },
    {
      "channel": 0,
      "note": 100,
      "start": 26.3986,
      "duration": 1.5298,
      "velocity": 99,
      "chip": "ym2612"
    },
    {
      "channel": 4,
      "note": 87,
      "start": 26.4019,
      "duration": 0.0933,
      "velocity": 125,
      "chip": "ym2612"
    },
    {
      "channel": 3,
      "note": 83,
      "start": 26.4985,
      "duration": 0.4632,
      "velocity": 107,
      "chip": "ym2612"
    },
    {
      "channel": 1,
      "note": 52,
      "start": 26.501,
      "duration": 0.0607,
      "velocity": 101,
      "chip": "ym2612"
    },
    {
      "channel": 2,
      "note": 42,
      "start": 26.504,
      "duration": 0.0914,
      "velocity": 125,
      "chip": "ym2612"
    },
    {
      "channel": 4,
      "note": 87,
      "start": 26.5072,
      "duration": 0.0062,
      "velocity": 125,
      "chip": "ym2612"
    },
    {
      "channel": 5,
      "note": 76,
      "start": 26.5103,
      "duration": 0.0849,
      "velocity": 102,
      "chip": "ym2612"
    },
    {
      "channel": 2,
      "note": 42,
      "start": 26.6987,
      "duration": 0.0966,
      "velocity": 125,
      "chip": "ym2612"
    },
    {
      "channel": 4,
      "note": 87,
      "start": 26.7014,
      "duration": 0.0104,
      "velocity": 125,
      "chip": "ym2612"
    },
    {
      "channel": 1,
      "note": 52,
      "start": 26.798,
      "duration": 0.0636,
      "velocity": 101,
      "chip": "ym2612"
    },
    {
      "channel": 5,
      "note": 76,
      "start": 26.8009,
      "duration": 0.0443,
      "velocity": 99,
      "chip": "ym2612"
    },
    {
      "channel": 2,
      "note": 42,
      "start": 26.8037,
      "duration": 0.0915,
      "velocity": 125,
      "chip": "ym2612"
    },
    {
      "channel": 4,
      "note": 87,
      "start": 26.8064,
      "duration": 0.0055,
      "velocity": 125,
      "chip": "ym2612"
    },
    {
      "channel": 4,
      "note": 87,
      "start": 26.9986,
      "duration": 0.0132,
      "velocity": 125,
      "chip": "ym2612"
    },
    {
      "channel": 3,
      "note": 80,
      "start": 27.0983,
      "duration": 0.1134,
      "velocity": 107,
      "chip": "ym2612"
    },
    {
      "channel": 1,
      "note": 54,
      "start": 27.1012,
      "duration": 0.0938,
      "velocity": 101,
      "chip": "ym2612"
    },
    {
      "channel": 5,
      "note": 76,
      "start": 27.1039,
      "duration": 0.0413,
      "velocity": 99,
      "chip": "ym2612"
    },
    {
      "channel": 2,
      "note": 72,
      "start": 27.1067,
      "duration": 0.0885,
      "velocity": 116,
      "chip": "ym2612"
    },
    {
      "channel": 5,
      "note": 64,
      "start": 27.2984,
      "duration": 0.0468,
      "velocity": 99,
      "chip": "ym2612"
    },
    {
      "channel": 4,
      "note": 87,
      "start": 27.3012,
      "duration": 0.0272,
      "velocity": 125,
      "chip": "ym2612"
    },
    {
      "channel": 3,
      "note": 78,
      "start": 27.3983,
      "duration": 0.1468,
      "velocity": 107,
      "chip": "ym2612"
    },
    {
      "channel": 1,
      "note": 54,
      "start": 27.4007,
      "duration": 0.0943,
      "velocity": 101,
      "chip": "ym2612"
    },
    {
      "channel": 2,
      "note": 42,
      "start": 27.4037,
      "duration": 0.0916,
      "velocity": 125,
      "chip": "ym2612"
    },
    {
      "channel": 4,
      "note": 87,
      "start": 27.4064,
      "duration": 0.0221,
      "velocity": 125,
      "chip": "ym2612"
    },
    {
      "channel": 3,
      "note": 76,
      "start": 27.5982,
      "duration": 0.1468,
      "velocity": 107,
      "chip": "ym2612"
    },
    {
      "channel": 2,
      "note": 42,
      "start": 27.6012,
      "duration": 0.094,
      "velocity": 125,
      "chip": "ym2612"
    },
    {
      "channel": 4,
      "note": 87,
      "start": 27.604,
      "duration": 0.0245,
      "velocity": 125,
      "chip": "ym2612"
    },
    {
      "channel": 1,
      "note": 55,
      "start": 27.6983,
      "duration": 0.1301,
      "velocity": 101,
      "chip": "ym2612"
    },
    {
      "channel": 4,
      "note": 87,
      "start": 27.7016,
      "duration": 0.0268,
      "velocity": 125,
      "chip": "ym2612"
    },
    {
      "channel": 5,
      "note": 76,
      "start": 27.7046,
      "duration": 0.1239,
      "velocity": 102,
      "chip": "ym2612"
    },
    {
      "channel": 2,
      "note": 64,
      "start": 27.899,
      "duration": 0.0462,
      "velocity": 99,
      "chip": "ym2612"
    },
    {
      "channel": 4,
      "note": 87,
      "start": 27.9019,
      "duration": 0.0267,
      "velocity": 125,
      "chip": "ym2612"
    },
    {
      "channel": 0,
      "note": 100,
      "start": 27.998,
      "duration": 0.1469,
      "velocity": 99,
      "chip": "ym2612"
    },
    {
      "channel": 1,
      "note": 55,
      "start": 28.0005,
      "duration": 0.1278,
      "velocity": 101,
      "chip": "ym2612"
    },
    {
      "channel": 2,
      "note": 66,
      "start": 28.0033,
      "duration": 0.042,
      "velocity": 99,
      "chip": "ym2612"
    },
    {
      "channel": 3,
      "note": 42,
      "start": 28.0061,
      "duration": 0.089,
      "velocity": 125,
      "chip": "ym2612"
    },
    {
      "channel": 4,
      "note": 87,
      "start": 28.0088,
      "duration": 0.0197,
      "velocity": 125,
      "chip": "ym2612"
    },
    {
      "channel": 0,
      "note": 100,
      "start": 28.198,
      "duration": 0.0804,
      "velocity": 99,
      "chip": "ym2612"
    },
    {
      "channel": 4,
      "note": 87,
      "start": 28.2012,
      "duration": 0.0273,
      "velocity": 125,
      "chip": "ym2612"
    },
    {
      "channel": 5,
      "note": 73,
      "start": 28.2988,
      "duration": 0.0965,
      "velocity": 107,
      "chip": "ym2612"
    },
    {
      "channel": 1,
      "note": 56,
      "start": 28.3012,
      "duration": 0.1272,
      "velocity": 101,
      "chip": "ym2612"
    },
    {
      "channel": 2,
      "note": 67,
      "start": 28.3039,
      "duration": 0.0415,
      "velocity": 99,
      "chip": "ym2612"
    },
    {
      "channel": 3,
      "note": 72,
      "start": 28.3067,
      "duration": 0.0884,
      "velocity": 116,
      "chip": "ym2612"
    },
    {
      "channel": 4,
      "note": 87,
      "start": 28.4988,
      "duration": 0.0298,
      "velocity": 125,
      "chip": "ym2612"
    },
    {
      "channel": 5,
      "note": 71,
      "start": 28.5981,
      "duration": 0.0971,
      "velocity": 107,
      "chip": "ym2612"
    },
    {
      "channel": 1,
      "note": 56,
      "start": 28.6005,
      "duration": 0.1278,
      "velocity": 101,
      "chip": "ym2612"
    },
    {
      "channel": 2,
      "note": 68,
      "start": 28.6033,
      "duration": 0.0419,
      "velocity": 99,
      "chip": "ym2612"
    },
    {
      "channel": 4,
      "note": 87,
      "start": 28.6062,
      "duration": 0.0224,
      "velocity": 125,
      "chip": "ym2612"
    },
    {
      "channel": 4,
      "note": 87,
      "start": 28.7988,
      "duration": 0.0963,
      "velocity": 125,
      "chip": "ym2612"
    },
    {
      "channel": 0,
      "note": 93,
      "start": 28.8983,
      "duration": 2.0634,
      "velocity": 99,
      "chip": "ym2612"
    },
    {
      "channel": 5,
      "note": 69,
      "start": 28.9012,
      "duration": 0.1272,
      "velocity": 107,
      "chip": "ym2612"
    },
    {
      "channel": 1,
      "note": 57,
      "start": 28.9039,
      "duration": 0.0912,
      "velocity": 101,
      "chip": "ym2612"
    },
    {
      "channel": 3,
      "note": 42,
      "start": 28.9071,
      "duration": 0.0881,
      "velocity": 125,
      "chip": "ym2612"
    },
    {
      "channel": 4,
      "note": 87,
      "start": 28.9105,
      "duration": 0.0182,
      "velocity": 125,
      "chip": "ym2612"
    },
    {
      "channel": 2,
      "note": 76,
      "start": 28.9137,
      "duration": 0.1149,
      "velocity": 102,
      "chip": "ym2612"
    },
    {
      "channel": 1,
      "note": 57,
      "start": 29.0984,
      "duration": 0.0467,
      "velocity": 101,
      "chip": "ym2612"
    },
    {
      "channel": 4,
      "note": 69,
      "start": 29.1012,
      "duration": 0.0441,
      "velocity": 99,
      "chip": "ym2612"
    },
    {
      "channel": 3,
      "note": 42,
      "start": 29.1038,
      "duration": 0.0913,
      "velocity": 125,
      "chip": "ym2612"
    },
    {
      "channel": 5,
      "note": 87,
      "start": 29.1066,
      "duration": 0.022,
      "velocity": 125,
      "chip": "ym2612"
    },
    {
      "channel": 1,
      "note": 57,
      "start": 29.1983,
      "duration": 0.0802,
      "velocity": 101,
      "chip": "ym2612"
    },
    {
      "channel": 4,
      "note": 76,
      "start": 29.201,
      "duration": 0.0442,
      "velocity": 99,
      "chip": "ym2612"
    },
    {
      "channel": 3,
      "note": 42,
      "start": 29.2036,
      "duration": 0.0915,
      "velocity": 125,
      "chip": "ym2612"
    },
    {
      "channel": 5,
      "note": 87,
      "start": 29.2064,
      "duration": 0.0223,
      "velocity": 125,
      "chip": "ym2612"
    },
    {
      "channel": 5,
      "note": 87,
      "start": 29.4153,
      "duration": 0.0131,
      "velocity": 125,
      "chip": "ym2612"
    },
    {
      "channel": 4,
      "note": 76,
      "start": 29.5149,
      "duration": 0.0468,
      "velocity": 99,
      "chip": "ym2612"
    },
    {
      "channel": 2,
      "note": 72,
      "start": 29.5182,
      "duration": 0.0937,
      "velocity": 116,
      "chip": "ym2612"
    },
    {
      "channel": 1,
      "note": 81,
      "start": 29.7152,
      "duration": 0.2965,
      "velocity": 107,
      "chip": "ym2612"
    },
    {
      "channel": 3,
      "note": 52,
      "start": 29.7184,
      "duration": 0.0434,
      "velocity": 101,
      "chip": "ym2612"
    },
    {
      "channel": 4,
      "note": 69,
      "start": 29.7211,
      "duration": 0.0408,
      "velocity": 99,
      "chip": "ym2612"
    },
    {
      "channel": 5,
      "note": 87,
      "start": 29.7239,
      "duration": 0.0046,
      "velocity": 125,
      "chip": "ym2612"
    },
    {
      "channel": 3,
      "note": 54,
      "start": 29.815,
      "duration": 0.1134,
      "velocity": 101,
      "chip": "ym2612"
    },
    {
      "channel": 2,
      "note": 42,
      "start": 29.818,
      "duration": 0.0939,
      "velocity": 125,
      "chip": "ym2612"
    },
    {
      "channel": 5,
      "note": 87,
      "start": 29.8208,
      "duration": 0.0078,
      "velocity": 125,
      "chip": "ym2612"
    },
    {
      "channel": 3,
      "note": 57,
      "start": 30.0151,
      "duration": 0.0634,
      "velocity": 101,
      "chip": "ym2612"
    },
    {
      "channel": 4,
      "note": 69,
      "start": 30.0178,
      "duration": 0.0441,
      "velocity": 99,
      "chip": "ym2612"
    },
    {
      "channel": 2,
      "note": 42,
      "start": 30.0206,
      "duration": 0.0914,
      "velocity": 125,
      "chip": "ym2612"
    },
    {
      "channel": 5,
      "note": 87,
      "start": 30.0234,
      "duration": 0.0052,
      "velocity": 125,
      "chip": "ym2612"
    },
    {
      "channel": 1,
      "note": 78,
      "start": 30.115,
      "duration": 0.1465,
      "velocity": 107,
      "chip": "ym2612"
    },
    {
      "channel": 4,
      "note": 76,
      "start": 30.1182,
      "duration": 0.0436,
      "velocity": 99,
      "chip": "ym2612"
    },
    {
      "channel": 5,
      "note": 87,
      "start": 30.1211,
      "duration": 0.0075,
      "velocity": 125,
      "chip": "ym2612"
    },
    {
      "channel": 3,
      "note": 57,
      "start": 30.3149,
      "duration": 0.0468,
      "velocity": 101,
      "chip": "ym2612"
    },
    {
      "channel": 5,
      "note": 87,
      "start": 30.3183,
      "duration": 0.0101,
      "velocity": 125,
      "chip": "ym2612"
    },
    {
      "channel": 3,
      "note": 57,
      "start": 30.4149,
      "duration": 0.0968,
      "velocity": 101,
      "chip": "ym2612"
    },
    {
      "channel": 4,
      "note": 76,
      "start": 30.4176,
      "duration": 0.0441,
      "velocity": 99,
      "chip": "ym2612"
    },
    {
      "channel": 2,
      "note": 42,
      "start": 30.4203,
      "duration": 0.0916,
      "velocity": 125,
      "chip": "ym2612"
    },
    {
      "channel": 5,
      "note": 87,
      "start": 30.4231,
      "duration": 0.0053,
      "velocity": 125,
      "chip": "ym2612"
    },
    {
      "channel": 4,
      "note": 69,
      "start": 30.6149,
      "duration": 0.0468,
      "velocity": 99,
      "chip": "ym2612"
    },
    {
      "channel": 2,
      "note": 42,
      "start": 30.6176,
      "duration": 0.0942,
      "velocity": 125,
      "chip": "ym2612"
    },
    {
      "channel": 5,
      "note": 87,
      "start": 30.6205,
      "duration": 0.008,
      "velocity": 125,
      "chip": "ym2612"
    },
    {
      "channel": 1,
      "note": 76,
      "start": 30.715,
      "duration": 0.0967,
      "velocity": 107,
      "chip": "ym2612"
    },
    {
      "channel": 3,
      "note": 72,
      "start": 30.718,
      "duration": 0.0938,
      "velocity": 116,
      "chip": "ym2612"
    },
    {
      "channel": 5,
      "note": 76,
      "start": 30.7212,
      "duration": 0.0908,
      "velocity": 102,
      "chip": "ym2612"
    },
    {
      "channel": 4,
      "note": 87,
      "start": 30.9154,
      "duration": 0.0131,
      "velocity": 125,
      "chip": "ym2612"
    },
    {
      "channel": 1,
      "note": 73,
      "start": 31.0154,
      "duration": 0.163,
      "velocity": 107,
      "chip": "ym2612"
    },
    {
      "channel": 2,
      "note": 57,
      "start": 31.0185,
      "duration": 0.0934,
      "velocity": 101,
      "chip": "ym2612"
    },
    {
      "channel": 4,
      "note": 87,
      "start": 31.0215,
      "duration": 0.0071,
      "velocity": 125,
      "chip": "ym2612"
    },
    {
      "channel": 1,
      "note": 76,
      "start": 31.2149,
      "duration": 1.1468,
      "velocity": 107,
      "chip": "ym2612"
    },
    {
      "channel": 4,
      "note": 87,
      "start": 31.2181,
      "duration": 0.0936,
      "velocity": 125,
      "chip": "ym2612"
    },
    {
      "channel": 0,
      "note": 92,
      "start": 31.315,
      "duration": 2.0467,
      "velocity": 99,
      "chip": "ym2612"
    },
    {
      "channel": 2,
      "note": 52,
      "start": 31.3181,
      "duration": 0.0606,
      "velocity": 101,
      "chip": "ym2612"
    },
    {
      "channel": 3,
      "note": 42,
      "start": 31.321,
      "duration": 0.0908,
      "velocity": 125,
      "chip": "ym2612"
    },
    {
      "channel": 4,
      "note": 87,
      "start": 31.3238,
      "duration": 0.0078,
      "velocity": 125,
      "chip": "ym2612"
    },
    {
      "channel": 5,
      "note": 76,
      "start": 31.3273,
      "duration": 0.0847,
      "velocity": 102,
      "chip": "ym2612"
    },
    {
      "channel": 2,
      "note": 52,
      "start": 31.5152,
      "duration": 0.0468,
      "velocity": 101,
      "chip": "ym2612"
    },
    {
      "channel": 4,
      "note": 64,
      "start": 31.518,
      "duration": 0.0439,
      "velocity": 99,
      "chip": "ym2612"
    },
    {
      "channel": 3,
      "note": 42,
      "start": 31.521,
      "duration": 0.0907,
      "velocity": 125,
      "chip": "ym2612"
    },
    {
      "channel": 5,
      "note": 87,
      "start": 31.5242,
      "duration": 0.0211,
      "velocity": 125,
      "chip": "ym2612"
    },
    {
      "channel": 2,
      "note": 52,
      "start": 31.6152,
      "duration": 0.0968,
      "velocity": 101,
      "chip": "ym2612"
    },
    {
      "channel": 4,
      "note": 76,
      "start": 31.6179,
      "duration": 0.0439,
      "velocity": 99,
      "chip": "ym2612"
    },
    {
      "channel": 3,
      "note": 42,
      "start": 31.6205,
      "duration": 0.0913,
      "velocity": 125,
      "chip": "ym2612"
    },
    {
      "channel": 5,
      "note": 87,
      "start": 31.6232,
      "duration": 0.022,
      "velocity": 125,
      "chip": "ym2612"
    },
    {
      "channel": 5,
      "note": 87,
      "start": 31.8154,
      "duration": 0.0297,
      "velocity": 125,
      "chip": "ym2612"
    },
    {
      "channel": 4,
      "note": 76,
      "start": 31.915,
      "duration": 0.0468,
      "velocity": 99,
      "chip": "ym2612"
    },
    {
      "channel": 3,
      "note": 72,
      "start": 31.918,
      "duration": 0.0937,
      "velocity": 116,
      "chip": "ym2612"
    },
    {
      "channel": 2,
      "note": 47,
      "start": 32.1152,
      "duration": 0.08,
      "velocity": 101,
      "chip": "ym2612"
    },
    {
      "channel": 4,
      "note": 64,
      "start": 32.1179,
      "duration": 0.0439,
      "velocity": 99,
      "chip": "ym2612"
    },
    {
      "channel": 5,
      "note": 87,
      "start": 32.1208,
      "duration": 0.0244,
      "velocity": 125,
      "chip": "ym2612"
    },
    {
      "channel": 2,
      "note": 49,
      "start": 32.2152,
      "duration": 0.0968,
      "velocity": 101,
      "chip": "ym2612"
    },
    {
      "channel": 3,
      "note": 42,
      "start": 32.218,
      "duration": 0.0937,
      "velocity": 125,
      "chip": "ym2612"
    },
    {
      "channel": 5,
      "note": 87,
      "start": 32.2209,
      "duration": 0.0242,
      "velocity": 125,
      "chip": "ym2612"
    },
    {
      "channel": 1,
      "note": 71,
      "start": 32.4149,
      "duration": 0.1469,
      "velocity": 107,
      "chip": "ym2612"
    },
    {
      "channel": 2,
      "note": 52,
      "start": 32.418,
      "duration": 0.094,
      "velocity": 101,
      "chip": "ym2612"
    },
    {
      "channel": 4,
      "note": 64,
      "start": 32.4206,
      "duration": 0.0412,
      "velocity": 99,
      "chip": "ym2612"
    },
    {
      "channel": 3,
      "note": 42,
      "start": 32.4232,
      "duration": 0.0885,
      "velocity": 125,
      "chip": "ym2612"
    },
    {
      "channel": 5,
      "note": 87,
      "start": 32.4261,
      "duration": 0.0192,
      "velocity": 125,
      "chip": "ym2612"
    },
    {
      "channel": 4,
      "note": 76,
      "start": 32.5156,
      "duration": 0.0463,
      "velocity": 99,
      "chip": "ym2612"
    },
    {
      "channel": 5,
      "note": 87,
      "start": 32.5184,
      "duration": 0.0268,
      "velocity": 125,
      "chip": "ym2612"
    },
    {
      "channel": 2,
      "note": 52,
      "start": 32.7151,
      "duration": 0.0801,
      "velocity": 101,
      "chip": "ym2612"
    },
    {
      "channel": 5,
      "note": 87,
      "start": 32.7182,
      "duration": 0.027,
      "velocity": 125,
      "chip": "ym2612"
    },
    {
      "channel": 2,
      "note": 52,
      "start": 32.8151,
      "duration": 0.0968,
      "velocity": 101,
      "chip": "ym2612"
    },
    {
      "channel": 4,
      "note": 76,
      "start": 32.8178,
      "duration": 0.0441,
      "velocity": 99,
      "chip": "ym2612"
    },
    {
      "channel": 3,
      "note": 72,
      "start": 32.8208,
      "duration": 0.0908,
      "velocity": 116,
      "chip": "ym2612"
    },
    {
      "channel": 4,
      "note": 64,
      "start": 33.0149,
      "duration": 0.0468,
      "velocity": 99,
      "chip": "ym2612"
    },
    {
      "channel": 5,
      "note": 87,
      "start": 33.0182,
      "duration": 0.0269,
      "velocity": 125,
      "chip": "ym2612"
    },
    {
      "channel": 3,
      "note": 72,
      "start": 33.1152,
      "duration": 0.0966,
      "velocity": 116,
      "chip": "ym2612"
    },
    {
      "channel": 1,
      "note": 76,
      "start": 33.1182,
      "duration": 0.0934,
      "velocity": 102,
      "chip": "ym2612"
    },
    {
      "channel": 2,
      "note": 71,
      "start": 33.3152,
      "duration": 0.0801,
      "velocity": 107,
      "chip": "ym2612"
    },
    {
      "channel": 5,
      "note": 52,
      "start": 33.3181,
      "duration": 0.0439,
      "velocity": 101,
      "chip": "ym2612"
    },
    {
      "channel": 3,
      "note": 72,
      "start": 33.321,
      "duration": 0.0908,
      "velocity": 116,
      "chip": "ym2612"
    },
    {
      "channel": 2,
      "note": 70,
      "start": 33.4153,
      "duration": 0.0968,
      "velocity": 107,
      "chip": "ym2612"
    },
    {
      "channel": 5,
      "note": 52,
      "start": 33.4182,
      "duration": 0.0938,
      "velocity": 101,
      "chip": "ym2612"
    },
    {
      "channel": 4,
      "note": 87,
      "start": 33.4213,
      "duration": 0.024,
      "velocity": 125,
      "chip": "ym2612"
    },
    {
      "channel": 4,
      "note": 87,
      "start": 33.6154,
      "duration": 0.1131,
      "velocity": 125,
      "chip": "ym2612"
    },
    {
      "channel": 2,
      "note": 69,
      "start": 33.7323,
      "duration": 0.413,
      "velocity": 107,
      "chip": "ym2612"
    },
    {
      "channel": 1,
      "note": 57,
      "start": 33.7352,
      "duration": 0.5431,
      "velocity": 107,
      "chip": "ym2612"
    },
    {
      "channel": 5,
      "note": 57,
      "start": 33.7379,
      "duration": 0.0908,
      "velocity": 101,
      "chip": "ym2612"
    },
    {
      "channel": 0,
      "note": 42,
      "start": 33.7407,
      "duration": 0.0877,
      "velocity": 125,
      "chip": "ym2612"
    },
    {
      "channel": 4,
      "note": 87,
      "start": 33.7437,
      "duration": 0.0095,
      "velocity": 125,
      "chip": "ym2612"
    },
    {
      "channel": 3,
      "note": 76,
      "start": 33.7471,
      "duration": 0.148,
      "velocity": 102,
      "chip": "ym2612"
    },
    {
      "channel": 5,
      "note": 57,
      "start": 33.9322,
      "duration": 0.0465,
      "velocity": 101,
      "chip": "ym2612"
    },
    {
      "channel": 4,
      "note": 69,
      "start": 33.9349,
      "duration": 0.0436,
      "velocity": 99,
      "chip": "ym2612"
    },
    {
      "channel": 0,
      "note": 42,
      "start": 33.9375,
      "duration": 0.0908,
      "velocity": 125,
      "chip": "ym2612"
    },
    {
      "channel": 3,
      "note": 87,
      "start": 33.9404,
      "duration": 0.0048,
      "velocity": 125,
      "chip": "ym2612"
    },
    {
      "channel": 5,
      "note": 57,
      "start": 34.0319,
      "duration": 0.0968,
      "velocity": 101,
      "chip": "ym2612"
    },
    {
      "channel": 4,
      "note": 76,
      "start": 34.0346,
      "duration": 0.0439,
      "velocity": 99,
      "chip": "ym2612"
    },
    {
      "channel": 0,
      "note": 42,
      "start": 34.0371,
      "duration": 0.0913,
      "velocity": 125,
      "chip": "ym2612"
    },
    {
      "channel": 3,
      "note": 87,
      "start": 34.0398,
      "duration": 0.0054,
      "velocity": 125,
      "chip": "ym2612"
    },
    {
      "channel": 3,
      "note": 87,
      "start": 34.232,
      "duration": 0.0131,
      "velocity": 125,
      "chip": "ym2612"
    },
    {
      "channel": 1,
      "note": 56,
      "start": 34.3316,
      "duration": 0.5635,
      "velocity": 107,
      "chip": "ym2612"
    },
    {
      "channel": 2,
      "note": 71,
      "start": 34.3345,
      "duration": 0.4607,
      "velocity": 107,
      "chip": "ym2612"
    },
    {
      "channel": 4,
      "note": 76,
      "start": 34.3372,
      "duration": 0.0412,
      "velocity": 99,
      "chip": "ym2612"
    },
    {
      "channel": 0,
      "note": 72,
      "start": 34.3402,
      "duration": 0.0881,
      "velocity": 116,
      "chip": "ym2612"
    },
    {
      "channel": 5,
      "note": 52,
      "start": 34.5318,
      "duration": 0.0468,
      "velocity": 101,
      "chip": "ym2612"
    },
    {
      "channel": 4,
      "note": 69,
      "start": 34.5344,
      "duration": 0.0439,
      "velocity": 99,
      "chip": "ym2612"
    },
    {
      "channel": 3,
      "note": 87,
      "start": 34.5377,
      "duration": 0.0074,
      "velocity": 125,
      "chip": "ym2612"
    },
    {
      "channel": 5,
      "note": 54,
      "start": 34.6317,
      "duration": 0.1468,
      "velocity": 101,
      "chip": "ym2612"
    },
    {
      "channel": 0,
      "note": 42,
      "start": 34.6346,
      "duration": 0.0937,
      "velocity": 125,
      "chip": "ym2612"
    },
    {
      "channel": 3,
      "note": 87,
      "start": 34.6372,
      "duration": 0.0079,
      "velocity": 125,
      "chip": "ym2612"
    },
    {
      "channel": 0,
      "note": 42,
      "start": 34.832,
      "duration": 0.0964,
      "velocity": 125,
      "chip": "ym2612"
    },
    {
      "channel": 3,
      "note": 87,
      "start": 34.8346,
      "duration": 0.0104,
      "velocity": 125,
      "chip": "ym2612"
    },
    {
      "channel": 1,
      "note": 73,
      "start": 34.9316,
      "duration": 0.4134,
      "velocity": 107,
      "chip": "ym2612"
    },
    {
      "channel": 2,
      "note": 55,
      "start": 34.9346,
      "duration": 1.1773,
      "velocity": 107,
      "chip": "ym2612"
    },
    {
      "channel": 5,
      "note": 55,
      "start": 34.9374,
      "duration": 0.0578,
      "velocity": 101,
      "chip": "ym2612"
    },
    {
      "channel": 4,
      "note": 76,
      "start": 34.94,
      "duration": 0.0383,
      "velocity": 99,
      "chip": "ym2612"
    },
    {
      "channel": 3,
      "note": 87,
      "start": 34.9429,
      "duration": 0.0031,
      "velocity": 125,
      "chip": "ym2612"
    },
    {
      "channel": 5,
      "note": 55,
      "start": 35.132,
      "duration": 0.0464,
      "velocity": 101,
      "chip": "ym2612"
    },
    {
      "channel": 3,
      "note": 87,
      "start": 35.1349,
      "duration": 0.0102,
      "velocity": 125,
      "chip": "ym2612"
    },
    {
      "channel": 5,
      "note": 55,
      "start": 35.2317,
      "duration": 0.0968,
      "velocity": 101,
      "chip": "ym2612"
    },
    {
      "channel": 4,
      "note": 76,
      "start": 35.2348,
      "duration": 0.0436,
      "velocity": 99,
      "chip": "ym2612"
    },
    {
      "channel": 0,
      "note": 42,
      "start": 35.2372,
      "duration": 0.091,
      "velocity": 125,
      "chip": "ym2612"
    },
    {
      "channel": 3,
      "note": 87,
      "start": 35.24,
      "duration": 0.005,
      "velocity": 125,
      "chip": "ym2612"
    },
    {
      "channel": 4,
      "note": 67,
      "start": 35.4316,
      "duration": 0.0468,
      "velocity": 99,
      "chip": "ym2612"
    },
    {
      "channel": 0,
      "note": 42,
      "start": 35.4341,
      "duration": 0.0941,
      "velocity": 125,
      "chip": "ym2612"
    },
    {
      "channel": 3,
      "note": 87,
      "start": 35.4368,
      "duration": 0.0082,
      "velocity": 125,
      "chip": "ym2612"
    },
    {
      "channel": 1,
      "note": 74,
      "start": 35.532,
      "duration": 0.1464,
      "velocity": 107,
      "chip": "ym2612"
    },
    {
      "channel": 5,
      "note": 72,
      "start": 35.5351,
      "duration": 0.0934,
      "velocity": 116,
      "chip": "ym2612"
    },
    {
      "channel": 3,
      "note": 76,
      "start": 35.5382,
      "duration": 0.1069,
      "velocity": 102,
      "chip": "ym2612"
    },
    {
      "channel": 4,
      "note": 87,
      "start": 35.7322,
      "duration": 0.013,
      "velocity": 125,
      "chip": "ym2612"
    },
    {
      "channel": 1,
      "note": 76,
      "start": 35.8316,
      "duration": 0.1802,
      "velocity": 107,
      "chip": "ym2612"
    },
    {
      "channel": 0,
      "note": 55,
      "start": 35.8343,
      "duration": 0.094,
      "velocity": 101,
      "chip": "ym2612"
    },
    {
      "channel": 4,
      "note": 87,
      "start": 35.8377,
      "duration": 0.0241,
      "velocity": 125,
      "chip": "ym2612"
    },
    {
      "channel": 1,
      "note": 78,
      "start": 36.0317,
      "duration": 1.28,
      "velocity": 107,
      "chip": "ym2612"
    },
    {
      "channel": 4,
      "note": 87,
      "start": 36.0349,
      "duration": 0.0936,
      "velocity": 125,
      "chip": "ym2612"
    },
    {
      "channel": 2,
      "note": 54,
      "start": 36.132,
      "duration": 1.0298,
      "velocity": 107,
      "chip": "ym2612"
    },
    {
      "channel": 0,
      "note": 54,
      "start": 36.1346,
      "duration": 0.0771,
      "velocity": 101,
      "chip": "ym2612"
    },
    {
      "channel": 5,
      "note": 42,
      "start": 36.1375,
      "duration": 0.0912,
      "velocity": 125,
      "chip": "ym2612"
    },
    {
      "channel": 4,
      "note": 87,
      "start": 36.1404,
      "duration": 0.0216,
      "velocity": 125,
      "chip": "ym2612"
    },
    {
      "channel": 3,
      "note": 76,
      "start": 36.1436,
      "duration": 0.0849,
      "velocity": 102,
      "chip": "ym2612"
    },
    {
      "channel": 0,
      "note": 54,
      "start": 36.3316,
      "duration": 0.0468,
      "velocity": 101,
      "chip": "ym2612"
    },
    {
      "channel": 4,
      "note": 66,
      "start": 36.3344,
      "duration": 0.0441,
      "velocity": 99,
      "chip": "ym2612"
    },
    {
      "channel": 5,
      "note": 42,
      "start": 36.3371,
      "duration": 0.0915,
      "velocity": 125,
      "chip": "ym2612"
    },
    {
      "channel": 3,
      "note": 87,
      "start": 36.3399,
      "duration": 0.022,
      "velocity": 125,
      "chip": "ym2612"
    },
    {
      "channel": 0,
      "note": 54,
      "start": 36.4316,
      "duration": 0.1299,
      "velocity": 101,
      "chip": "ym2612"
    },
    {
      "channel": 4,
      "note": 78,
      "start": 36.4342,
      "duration": 0.0444,
      "velocity": 99,
      "chip": "ym2612"
    },
    {
      "channel": 5,
      "note": 42,
      "start": 36.437,
      "duration": 0.0916,
      "velocity": 125,
      "chip": "ym2612"
    },
    {
      "channel": 3,
      "note": 45,
      "start": 36.4402,
      "duration": 0.1382,
      "velocity": 125,
      "chip": "ym2612"
    },
    {
      "channel": 4,
      "note": 87,
      "start": 36.6321,
      "duration": 0.0296,
      "velocity": 125,
      "chip": "ym2612"
    },
    {
      "channel": 5,
      "note": 78,
      "start": 36.7318,
      "duration": 0.0468,
      "velocity": 99,
      "chip": "ym2612"
    },
    {
      "channel": 0,
      "note": 72,
      "start": 36.7346,
      "duration": 0.0937,
      "velocity": 116,
      "chip": "ym2612"
    },
    {
      "channel": 3,
      "note": 54,
      "start": 36.9322,
      "duration": 0.0463,
      "velocity": 101,
      "chip": "ym2612"
    },
    {
      "channel": 5,
      "note": 66,
      "start": 36.9348,
      "duration": 0.0438,
      "velocity": 99,
      "chip": "ym2612"
    },
    {
      "channel": 4,
      "note": 33,
      "start": 36.9381,
      "duration": 0.0737,
      "velocity": 125,
      "chip": "ym2612"
    },
    {
      "channel": 3,
      "note": 54,
      "start": 37.0316,
      "duration": 0.0968,
      "velocity": 101,
      "chip": "ym2612"
    },
    {
      "channel": 0,
      "note": 42,
      "start": 37.0345,
      "duration": 0.0938,
      "velocity": 125,
      "chip": "ym2612"
    },
    {
      "channel": 5,
      "note": 87,
      "start": 37.0374,
      "duration": 0.0244,
      "velocity": 125,
      "chip": "ym2612"
    },
    {
      "channel": 2,
      "note": 50,
      "start": 37.2318,
      "duration": 0.1469,
      "velocity": 107,
      "chip": "ym2612"
    },
    {
      "channel": 4,
      "note": 66,
      "start": 37.2347,
      "duration": 0.0437,
      "velocity": 99,
      "chip": "ym2612"
    },
    {
      "channel": 0,
      "note": 42,
      "start": 37.2372,
      "duration": 0.0912,
      "velocity": 125,
      "chip": "ym2612"
    },
    {
      "channel": 5,
      "note": 87,
      "start": 37.24,
      "duration": 0.0218,
      "velocity": 125,
      "chip": "ym2612"
    },
    {
      "channel": 3,
      "note": 54,
      "start": 37.3316,
      "duration": 0.13,
      "velocity": 101,
      "chip": "ym2612"
    },
    {
      "channel": 4,
      "note": 74,
      "start": 37.3343,
      "duration": 0.0442,
      "velocity": 99,
      "chip": "ym2612"
    },
    {
      "channel": 5,
      "note": 45,
      "start": 37.3377,
      "duration": 0.1242,
      "velocity": 125,
      "chip": "ym2612"
    },
    {
      "channel": 1,
      "note": 87,
      "start": 37.5324,
      "duration": 0.0293,
      "velocity": 125,
      "chip": "ym2612"
    },
    {
      "channel": 3,
      "note": 54,
      "start": 37.6312,
      "duration": 0.1305,
      "velocity": 101,
      "chip": "ym2612"
    },
    {
      "channel": 4,
      "note": 74,
      "start": 37.6342,
      "duration": 0.0442,
      "velocity": 99,
      "chip": "ym2612"
    },
    {
      "channel": 0,
      "note": 42,
      "start": 37.6371,
      "duration": 0.0911,
      "velocity": 125,
      "chip": "ym2612"
    },
    {
      "channel": 1,
      "note": 87,
      "start": 37.6398,
      "duration": 0.0219,
      "velocity": 125,
      "chip": "ym2612"
    },
    {
      "channel": 4,
      "note": 66,
      "start": 37.8316,
      "duration": 0.0467,
      "velocity": 99,
      "chip": "ym2612"
    },
    {
      "channel": 1,
      "note": 87,
      "start": 37.8344,
      "duration": 0.0272,
      "velocity": 125,
      "chip": "ym2612"
    },
    {
      "channel": 5,
      "note": 33,
      "start": 37.8378,
      "duration": 0.0739,
      "velocity": 125,
      "chip": "ym2612"
    },
    {
      "channel": 3,
      "note": 54,
      "start": 37.9479,
      "duration": 0.1138,
      "velocity": 101,
      "chip": "ym2612"
    },
    {
      "channel": 2,
      "note": 72,
      "start": 37.9509,
      "duration": 0.0944,
      "velocity": 116,
      "chip": "ym2612"
    },
    {
      "channel": 0,
      "note": 76,
      "start": 37.9542,
      "duration": 0.0907,
      "velocity": 102,
      "chip": "ym2612"
    },
    {
      "channel": 1,
      "note": 78,
      "start": 38.1488,
      "duration": 0.0963,
      "velocity": 107,
      "chip": "ym2612"
    },
    {
      "channel": 4,
      "note": 87,
      "start": 38.1519,
      "duration": 0.0099,
      "velocity": 125,
      "chip": "ym2612"
    },
    {
      "channel": 1,
      "note": 80,
      "start": 38.2483,
      "duration": 0.0968,
      "velocity": 107,
      "chip": "ym2612"
    },
    {
      "channel": 3,
      "note": 54,
      "start": 38.2509,
      "duration": 0.1443,
      "velocity": 101,
      "chip": "ym2612"
    },
    {
      "channel": 4,
      "note": 87,
      "start": 38.2539,
      "duration": 0.0082,
      "velocity": 125,
      "chip": "ym2612"
    },
    {
      "channel": 5,
      "note": 45,
      "start": 38.257,
      "duration": 0.0883,
      "velocity": 125,
      "chip": "ym2612"
    },
    {
      "channel": 4,
      "note": 87,
      "start": 38.4488,
      "duration": 0.0963,
      "velocity": 125,
      "chip": "ym2612"
    },
    {
      "channel": 1,
      "note": 50,
      "start": 38.5483,
      "duration": 1.1467,
      "velocity": 107,
      "chip": "ym2612"
    },
    {
      "channel": 0,
      "note": 81,
      "start": 38.5512,
      "duration": 0.1437,
      "velocity": 107,
      "chip": "ym2612"
    },
    {
      "channel": 3,
      "note": 50,
      "start": 38.5538,
      "duration": 0.1081,
      "velocity": 101,
      "chip": "ym2612"
    },
    {
      "channel": 2,
      "note": 42,
      "start": 38.5567,
      "duration": 0.0885,
      "velocity": 125,
      "chip": "ym2612"
    },
    {
      "channel": 4,
      "note": 87,
      "start": 38.5596,
      "duration": 0.0087,
      "velocity": 125,
      "chip": "ym2612"
    },
    {
      "channel": 5,
      "note": 76,
      "start": 38.5627,
      "duration": 0.0994,
      "velocity": 102,
      "chip": "ym2612"
    },
    {
      "channel": 2,
      "note": 42,
      "start": 38.7487,
      "duration": 0.0966,
      "velocity": 125,
      "chip": "ym2612"
    },
    {
      "channel": 4,
      "note": 87,
      "start": 38.7518,
      "duration": 0.0101,
      "velocity": 125,
      "chip": "ym2612"
    },
    {
      "channel": 3,
      "note": 50,
      "start": 38.8481,
      "duration": 0.1137,
      "velocity": 101,
      "chip": "ym2612"
    },
    {
      "channel": 2,
      "note": 42,
      "start": 38.851,
      "duration": 0.0942,
      "velocity": 125,
      "chip": "ym2612"
    },
    {
      "channel": 4,
      "note": 87,
      "start": 38.8538,
      "duration": 0.0081,
      "velocity": 125,
      "chip": "ym2612"
    },
    {
      "channel": 0,
      "note": 81,
      "start": 39.0482,
      "duration": 0.1636,
      "velocity": 107,
      "chip": "ym2612"
    },
    {
      "channel": 5,
      "note": 74,
      "start": 39.0509,
      "duration": 0.0444,
      "velocity": 99,
      "chip": "ym2612"
    },
    {
      "channel": 4,
      "note": 87,
      "start": 39.0538,
      "duration": 0.0083,
      "velocity": 125,
      "chip": "ym2612"
    },
    {
      "channel": 3,
      "note": 50,
      "start": 39.1486,
      "duration": 0.0966,
      "velocity": 101,
      "chip": "ym2612"
    },
    {
      "channel": 2,
      "note": 72,
      "start": 39.1516,
      "duration": 0.0939,
      "velocity": 116,
      "chip": "ym2612"
    },
    {
      "channel": 4,
      "note": 76,
      "start": 39.1546,
      "duration": 0.0907,
      "velocity": 102,
      "chip": "ym2612"
    },
    {
      "channel": 5,
      "note": 87,
      "start": 39.3489,
      "duration": 0.013,
      "velocity": 125,
      "chip": "ym2612"
    },
    {
      "channel": 3,
      "note": 50,
      "start": 39.4483,
      "duration": 0.1134,
      "velocity": 101,
      "chip": "ym2612"
    },
    {
      "channel": 0,
      "note": 42,
      "start": 39.4512,
      "duration": 0.0937,
      "velocity": 125,
      "chip": "ym2612"
    },
    {
      "channel": 5,
      "note": 87,
      "start": 39.454,
      "duration": 0.008,
      "velocity": 125,
      "chip": "ym2612"
    },
    {
      "channel": 0,
      "note": 42,
      "start": 39.6483,
      "duration": 0.0967,
      "velocity": 125,
      "chip": "ym2612"
    },
    {
      "channel": 5,
      "note": 87,
      "start": 39.651,
      "duration": 0.0107,
      "velocity": 125,
      "chip": "ym2612"
    },
    {
      "channel": 1,
      "note": 81,
      "start": 39.7481,
      "duration": 0.1636,
      "velocity": 107,
      "chip": "ym2612"
    },
    {
      "channel": 4,
      "note": 51,
      "start": 39.7514,
      "duration": 1.177,
      "velocity": 107,
      "chip": "ym2612"
    },
    {
      "channel": 3,
      "note": 51,
      "start": 39.7538,
      "duration": 0.1079,
      "velocity": 101,
      "chip": "ym2612"
    },
    {
      "channel": 5,
      "note": 87,
      "start": 39.7568,
      "duration": 0.0086,
      "velocity": 125,
      "chip": "ym2612"
    },
    {
      "channel": 2,
      "note": 76,
      "start": 39.7598,
      "duration": 0.0855,
      "velocity": 102,
      "chip": "ym2612"
    },
    {
      "channel": 5,
      "note": 87,
      "start": 39.9488,
      "duration": 0.0131,
      "velocity": 125,
      "chip": "ym2612"
    },
    {
      "channel": 3,
      "note": 51,
      "start": 40.0481,
      "duration": 0.1303,
      "velocity": 101,
      "chip": "ym2612"
    },
    {
      "channel": 0,
      "note": 42,
      "start": 40.0508,
      "duration": 0.0943,
      "velocity": 125,
      "chip": "ym2612"
    },
    {
      "channel": 5,
      "note": 87,
      "start": 40.0539,
      "duration": 0.0246,
      "velocity": 125,
      "chip": "ym2612"
    },
    {
      "channel": 1,
      "note": 81,
      "start": 40.2483,
      "duration": 0.1467,
      "velocity": 107,
      "chip": "ym2612"
    },
    {
      "channel": 2,
      "note": 69,
      "start": 40.2512,
      "duration": 0.0441,
      "velocity": 99,
      "chip": "ym2612"
    },
    {
      "channel": 0,
      "note": 42,
      "start": 40.2537,
      "duration": 0.0914,
      "velocity": 125,
      "chip": "ym2612"
    },
    {
      "channel": 5,
      "note": 87,
      "start": 40.2565,
      "duration": 0.0222,
      "velocity": 125,
      "chip": "ym2612"
    },
    {
      "channel": 3,
      "note": 51,
      "start": 40.3483,
      "duration": 0.1302,
      "velocity": 101,
      "chip": "ym2612"
    },
    {
      "channel": 5,
      "note": 72,
      "start": 40.3517,
      "duration": 0.0937,
      "velocity": 116,
      "chip": "ym2612"
    },
    {
      "channel": 2,
      "note": 76,
      "start": 40.3545,
      "duration": 0.0909,
      "velocity": 102,
      "chip": "ym2612"
    },
    {
      "channel": 0,
      "note": 87,
      "start": 40.549,
      "duration": 0.0294,
      "velocity": 125,
      "chip": "ym2612"
    },
    {
      "channel": 3,
      "note": 51,
      "start": 40.6483,
      "duration": 0.0968,
      "velocity": 101,
      "chip": "ym2612"
    },
    {
      "channel": 0,
      "note": 87,
      "start": 40.651,
      "duration": 0.0274,
      "velocity": 125,
      "chip": "ym2612"
    },
    {
      "channel": 0,
      "note": 87,
      "start": 40.8486,
      "duration": 0.0964,
      "velocity": 125,
      "chip": "ym2612"
    },
    {
      "channel": 1,
      "note": 81,
      "start": 40.9483,
      "duration": 0.5302,
      "velocity": 107,
      "chip": "ym2612"
    },
    {
      "channel": 4,
      "note": 52,
      "start": 40.951,
      "duration": 0.8442,
      "velocity": 107,
      "chip": "ym2612"
    },
    {
      "channel": 3,
      "note": 57,
      "start": 40.9536,
      "duration": 0.1249,
      "velocity": 101,
      "chip": "ym2612"
    },
    {
      "channel": 5,
      "note": 42,
      "start": 40.9569,
      "duration": 0.0884,
      "velocity": 125,
      "chip": "ym2612"
    },
    {
      "channel": 0,
      "note": 87,
      "start": 40.9596,
      "duration": 0.0187,
      "velocity": 125,
      "chip": "ym2612"
    },
    {
      "channel": 2,
      "note": 76,
      "start": 40.9627,
      "duration": 0.0827,
      "velocity": 102,
      "chip": "ym2612"
    },
    {
      "channel": 5,
      "note": 42,
      "start": 41.1485,
      "duration": 0.0968,
      "velocity": 125,
      "chip": "ym2612"
    },
    {
      "channel": 0,
      "note": 87,
      "start": 41.1511,
      "duration": 0.0272,
      "velocity": 125,
      "chip": "ym2612"
    },
    {
      "channel": 3,
      "note": 57,
      "start": 41.2483,
      "duration": 0.1468,
      "velocity": 101,
      "chip": "ym2612"
    },
    {
      "channel": 2,
      "note": 76,
      "start": 41.2512,
      "duration": 0.0441,
      "velocity": 99,
      "chip": "ym2612"
    },
    {
      "channel": 5,
      "note": 42,
      "start": 41.2539,
      "duration": 0.0913,
      "velocity": 125,
      "chip": "ym2612"
    },
    {
      "channel": 0,
      "note": 87,
      "start": 41.2568,
      "duration": 0.0215,
      "velocity": 125,
      "chip": "ym2612"
    },
    {
      "channel": 0,
      "note": 87,
      "start": 41.4485,
      "duration": 0.0298,
      "velocity": 125,
      "chip": "ym2612"
    },
    {
      "channel": 1,
      "note": 80,
      "start": 41.5483,
      "duration": 0.0969,
      "velocity": 107,
      "chip": "ym2612"
    },
    {
      "channel": 3,
      "note": 56,
      "start": 41.5509,
      "duration": 0.1277,
      "velocity": 101,
      "chip": "ym2612"
    },
    {
      "channel": 2,
      "note": 76,
      "start": 41.5537,
      "duration": 0.0416,
      "velocity": 99,
      "chip": "ym2612"
    },
    {
      "channel": 5,
      "note": 72,
      "start": 41.5566,
      "duration": 0.0887,
      "velocity": 116,
      "chip": "ym2612"
    },
    {
      "channel": 0,
      "note": 87,
      "start": 41.7486,
      "duration": 0.0298,
      "velocity": 125,
      "chip": "ym2612"
    },
    {
      "channel": 1,
      "note": 53,
      "start": 41.8488,
      "duration": 0.1796,
      "velocity": 107,
      "chip": "ym2612"
    },
    {
      "channel": 4,
      "note": 79,
      "start": 41.8515,
      "duration": 0.1435,
      "velocity": 107,
      "chip": "ym2612"
    },
    {
      "channel": 3,
      "note": 55,
      "start": 41.854,
      "duration": 0.0911,
      "velocity": 101,
      "chip": "ym2612"
    },
    {
      "channel": 2,
      "note": 42,
      "start": 41.857,
      "duration": 0.0883,
      "velocity": 125,
      "chip": "ym2612"
    },
    {
      "channel": 0,
      "note": 87,
      "start": 41.8596,
      "duration": 0.0188,
      "velocity": 125,
      "chip": "ym2612"
    },
    {
      "channel": 1,
      "note": 54,
      "start": 42.0482,
      "duration": 0.6802,
      "velocity": 107,
      "chip": "ym2612"
    },
    {
      "channel": 4,
      "note": 78,
      "start": 42.0509,
      "duration": 0.1278,
      "velocity": 107,
      "chip": "ym2612"
    },
    {
      "channel": 2,
      "note": 42,
      "start": 42.054,
      "duration": 0.0913,
      "velocity": 125,
      "chip": "ym2612"
    },
    {
      "channel": 0,
      "note": 87,
      "start": 42.0566,
      "duration": 0.0217,
      "velocity": 125,
      "chip": "ym2612"
    },
    {
      "channel": 3,
      "note": 54,
      "start": 42.1486,
      "duration": 0.1298,
      "velocity": 101,
      "chip": "ym2612"
    },
    {
      "channel": 0,
      "note": 87,
      "start": 42.1514,
      "duration": 0.027,
      "velocity": 125,
      "chip": "ym2612"
    },
    {
      "channel": 5,
      "note": 76,
      "start": 42.1544,
      "duration": 0.1076,
      "velocity": 102,
      "chip": "ym2612"
    },
    {
      "channel": 0,
      "note": 87,
      "start": 42.3653,
      "duration": 0.0131,
      "velocity": 125,
      "chip": "ym2612"
    },
    {
      "channel": 3,
      "note": 54,
      "start": 42.4648,
      "duration": 0.1136,
      "velocity": 101,
      "chip": "ym2612"
    },
    {
      "channel": 2,
      "note": 78,
      "start": 42.4676,
      "duration": 0.0444,
      "velocity": 99,
      "chip": "ym2612"
    },
    {
      "channel": 4,
      "note": 72,
      "start": 42.4706,
      "duration": 0.0913,
      "velocity": 116,
      "chip": "ym2612"
    },
    {
      "channel": 0,
      "note": 87,
      "start": 42.6652,
      "duration": 0.0132,
      "velocity": 125,
      "chip": "ym2612"
    },
    {
      "channel": 1,
      "note": 76,
      "start": 42.7649,
      "duration": 0.1135,
      "velocity": 107,
      "chip": "ym2612"
    },
    {
      "channel": 5,
      "note": 52,
      "start": 42.7678,
      "duration": 0.5441,
      "velocity": 107,
      "chip": "ym2612"
    },
    {
      "channel": 3,
      "note": 54,
      "start": 42.7704,
      "duration": 0.0914,
      "velocity": 101,
      "chip": "ym2612"
    },
    {
      "channel": 2,
      "note": 78,
      "start": 42.7732,
      "duration": 0.0388,
      "velocity": 99,
      "chip": "ym2612"
    },
    {
      "channel": 4,
      "note": 72,
      "start": 42.7761,
      "duration": 0.0859,
      "velocity": 116,
      "chip": "ym2612"
    },
    {
      "channel": 4,
      "note": 72,
      "start": 42.9655,
      "duration": 0.0964,
      "velocity": 116,
      "chip": "ym2612"
    },
    {
      "channel": 1,
      "note": 77,
      "start": 43.0653,
      "duration": 0.1463,
      "velocity": 107,
      "chip": "ym2612"
    },
    {
      "channel": 3,
      "note": 54,
      "start": 43.0678,
      "duration": 0.1105,
      "velocity": 101,
      "chip": "ym2612"
    },
    {
      "channel": 0,
      "note": 87,
      "start": 43.0711,
      "duration": 0.0074,
      "velocity": 125,
      "chip": "ym2612"
    },
    {
      "channel": 0,
      "note": 87,
      "start": 43.2653,
      "duration": 0.0964,
      "velocity": 125,
      "chip": "ym2612"
    },
    {
      "channel": 1,
      "note": 78,
      "start": 43.365,
      "duration": 1.13,
      "velocity": 107,
      "chip": "ym2612"
    },
    {
      "channel": 5,
      "note": 51,
      "start": 43.3677,
      "duration": 1.1276,
      "velocity": 107,
      "chip": "ym2612"
    },
    {
      "channel": 3,
      "note": 47,
      "start": 43.3705,
      "duration": 0.0914,
      "velocity": 101,
      "chip": "ym2612"
    },
    {
      "channel": 2,
      "note": 42,
      "start": 43.3734,
      "duration": 0.0887,
      "velocity": 125,
      "chip": "ym2612"
    },
    {
      "channel": 0,
      "note": 87,
      "start": 43.3761,
      "duration": 0.0108,
      "velocity": 125,
      "chip": "ym2612"
    },
    {
      "channel": 4,
      "note": 76,
      "start": 43.3815,
      "duration": 0.1471,
      "velocity": 102,
      "chip": "ym2612"
    },
    {
      "channel": 3,
      "note": 47,
      "start": 43.565,
      "duration": 0.0468,
      "velocity": 101,
      "chip": "ym2612"
    },
    {
      "channel": 2,
      "note": 42,
      "start": 43.568,
      "duration": 0.094,
      "velocity": 125,
      "chip": "ym2612"
    },
    {
      "channel": 0,
      "note": 87,
      "start": 43.5706,
      "duration": 0.0078,
      "velocity": 125,
      "chip": "ym2612"
    },
    {
      "channel": 3,
      "note": 47,
      "start": 43.6652,
      "duration": 0.0967,
      "velocity": 101,
      "chip": "ym2612"
    },
    {
      "channel": 4,
      "note": 75,
      "start": 43.6683,
      "duration": 0.0436,
      "velocity": 99,
      "chip": "ym2612"
    },
    {
      "channel": 2,
      "note": 42,
      "start": 43.6711,
      "duration": 0.091,
      "velocity": 125,
      "chip": "ym2612"
    },
    {
      "channel": 0,
      "note": 87,
      "start": 43.6738,
      "duration": 0.0046,
      "velocity": 125,
      "chip": "ym2612"
    },
    {
      "channel": 0,
      "note": 87,
      "start": 43.8652,
      "duration": 0.0132,
      "velocity": 125,
      "chip": "ym2612"
    },
    {
      "channel": 4,
      "note": 75,
      "start": 43.965,
      "duration": 0.047,
      "velocity": 99,
      "chip": "ym2612"
    },
    {
      "channel": 3,
      "note": 72,
      "start": 43.968,
      "duration": 0.0938,
      "velocity": 116,
      "chip": "ym2612"
    },
    {
      "channel": 2,
      "note": 47,
      "start": 44.1656,
      "duration": 0.0464,
      "velocity": 101,
      "chip": "ym2612"
    },
    {
      "channel": 4,
      "note": 63,
      "start": 44.1683,
      "duration": 0.0435,
      "velocity": 99,
      "chip": "ym2612"
    },
    {
      "channel": 0,
      "note": 87,
      "start": 44.171,
      "duration": 0.0073,
      "velocity": 125,
      "chip": "ym2612"
    },
    {
      "channel": 2,
      "note": 47,
      "start": 44.2652,
      "duration": 0.0968,
      "velocity": 101,
      "chip": "ym2612"
    },
    {
      "channel": 3,
      "note": 42,
      "start": 44.2685,
      "duration": 0.0932,
      "velocity": 125,
      "chip": "ym2612"
    },
    {
      "channel": 0,
      "note": 87,
      "start": 44.2714,
      "duration": 0.0071,
      "velocity": 125,
      "chip": "ym2612"
    },
    {
      "channel": 3,
      "note": 42,
      "start": 44.465,
      "duration": 0.0968,
      "velocity": 125,
      "chip": "ym2612"
    },
    {
      "channel": 0,
      "note": 87,
      "start": 44.4676,
      "duration": 0.0274,
      "velocity": 125,
      "chip": "ym2612"
    },
    {
      "channel": 1,
      "note": 80,
      "start": 44.565,
      "duration": 1.1466,
      "velocity": 107,
      "chip": "ym2612"
    },
    {
      "channel": 5,
      "note": 50,
      "start": 44.5678,
      "duration": 1.1774,
      "velocity": 107,
      "chip": "ym2612"
    },
    {
      "channel": 2,
      "note": 52,
      "start": 44.5706,
      "duration": 0.0747,
      "velocity": 101,
      "chip": "ym2612"
    },
    {
      "channel": 0,
      "note": 87,
      "start": 44.5735,
      "duration": 0.0217,
      "velocity": 125,
      "chip": "ym2612"
    },
    {
      "channel": 4,
      "note": 76,
      "start": 44.5767,
      "duration": 0.1184,
      "velocity": 102,
      "chip": "ym2612"
    },
    {
      "channel": 2,
      "note": 52,
      "start": 44.7652,
      "duration": 0.0466,
      "velocity": 101,
      "chip": "ym2612"
    },
    {
      "channel": 0,
      "note": 87,
      "start": 44.7681,
      "duration": 0.0268,
      "velocity": 125,
      "chip": "ym2612"
    },
    {
      "channel": 2,
      "note": 52,
      "start": 44.8652,
      "duration": 0.0968,
      "velocity": 101,
      "chip": "ym2612"
    },
    {
      "channel": 3,
      "note": 74,
      "start": 44.868,
      "duration": 0.0438,
      "velocity": 99,
      "chip": "ym2612"
    },
    {
      "channel": 4,
      "note": 42,
      "start": 44.8708,
      "duration": 0.091,
      "velocity": 125,
      "chip": "ym2612"
    },
    {
      "channel": 0,
      "note": 87,
      "start": 44.8734,
      "duration": 0.0216,
      "velocity": 125,
      "chip": "ym2612"
    },
    {
      "channel": 4,
      "note": 42,
      "start": 45.0651,
      "duration": 0.0968,
      "velocity": 125,
      "chip": "ym2612"
    },
    {
      "channel": 0,
      "note": 87,
      "start": 45.0677,
      "duration": 0.0273,
      "velocity": 125,
      "chip": "ym2612"
    },
    {
      "channel": 3,
      "note": 74,
      "start": 45.1652,
      "duration": 0.0466,
      "velocity": 99,
      "chip": "ym2612"
    },
    {
      "channel": 2,
      "note": 72,
      "start": 45.1683,
      "duration": 0.0937,
      "velocity": 116,
      "chip": "ym2612"
    },
    {
      "channel": 0,
      "note": 52,
      "start": 45.3656,
      "duration": 0.0795,
      "velocity": 101,
      "chip": "ym2612"
    },
    {
      "channel": 3,
      "note": 62,
      "start": 45.3682,
      "duration": 0.0436,
      "velocity": 99,
      "chip": "ym2612"
    },
    {
      "channel": 4,
      "note": 87,
      "start": 45.3711,
      "duration": 0.0242,
      "velocity": 125,
      "chip": "ym2612"
    },
    {
      "channel": 0,
      "note": 52,
      "start": 45.4649,
      "duration": 0.0967,
      "velocity": 101,
      "chip": "ym2612"
    },
    {
      "channel": 4,
      "note": 87,
      "start": 45.4677,
      "duration": 0.0276,
      "velocity": 125,
      "chip": "ym2612"
    },
    {
      "channel": 4,
      "note": 87,
      "start": 45.6657,
      "duration": 0.0794,
      "velocity": 125,
      "chip": "ym2612"
    },
    {
      "channel": 3,
      "note": 81,
      "start": 45.7771,
      "duration": 1.1513,
      "velocity": 107,
      "chip": "ym2612"
    },
    {
      "channel": 2,
      "note": 49,
      "start": 45.7802,
      "duration": 1.1151,
      "velocity": 107,
      "chip": "ym2612"
    },
    {
      "channel": 0,
      "note": 57,
      "start": 45.7832,
      "duration": 0.062,
      "velocity": 101,
      "chip": "ym2612"
    },
    {
      "channel": 1,
      "note": 42,
      "start": 45.7862,
      "duration": 0.0755,
      "velocity": 125,
      "chip": "ym2612"
    },
    {
      "channel": 4,
      "note": 33,
      "start": 45.7895,
      "duration": 0.0224,
      "velocity": 125,
      "chip": "ym2612"
    },
    {
      "channel": 5,
      "note": 76,
      "start": 45.7926,
      "duration": 0.0694,
      "velocity": 102,
      "chip": "ym2612"
    },
    {
      "channel": 4,
      "note": 33,
      "start": 45.8666,
      "duration": 0.0286,
      "velocity": 125,
      "chip": "ym2612"
    },
    {
      "channel": 0,
      "note": 57,
      "start": 45.965,
      "duration": 0.0467,
      "velocity": 101,
      "chip": "ym2612"
    },
    {
      "channel": 1,
      "note": 42,
      "start": 45.9678,
      "duration": 0.0939,
      "velocity": 125,
      "chip": "ym2612"
    },
    {
      "channel": 4,
      "note": 33,
      "start": 45.9707,
      "duration": 0.0412,
      "velocity": 125,
      "chip": "ym2612"
    },
    {
      "channel": 0,
      "note": 57,
      "start": 46.065,
      "duration": 0.0967,
      "velocity": 101,
      "chip": "ym2612"
    },
    {
      "channel": 5,
      "note": 73,
      "start": 46.068,
      "duration": 0.0439,
      "velocity": 99,
      "chip": "ym2612"
    },
    {
      "channel": 1,
      "note": 42,
      "start": 46.0706,
      "duration": 0.0912,
      "velocity": 125,
      "chip": "ym2612"
    },
    {
      "channel": 4,
      "note": 33,
      "start": 46.0736,
      "duration": 0.0216,
      "velocity": 125,
      "chip": "ym2612"
    },
    {
      "channel": 4,
      "note": 33,
      "start": 46.1663,
      "duration": 0.0454,
      "velocity": 125,
      "chip": "ym2612"
    },
    {
      "channel": 4,
      "note": 33,
      "start": 46.2663,
      "duration": 0.0454,
      "velocity": 125,
      "chip": "ym2612"
    },
    {
      "channel": 5,
      "note": 73,
      "start": 46.3652,
      "duration": 0.0468,
      "velocity": 99,
      "chip": "ym2612"
    },
    {
      "channel": 0,
      "note": 72,
      "start": 46.3683,
      "duration": 0.0766,
      "velocity": 116,
      "chip": "ym2612"
    },
    {
      "channel": 4,
      "note": 45,
      "start": 46.3711,
      "duration": 0.0407,
      "velocity": 125,
      "chip": "ym2612"
    },
    {
      "channel": 4,
      "note": 45,
      "start": 46.4823,
      "duration": 0.0461,
      "velocity": 125,
      "chip": "ym2612"
    },
    {
      "channel": 1,
      "note": 57,
      "start": 46.5823,
      "duration": 0.0459,
      "velocity": 101,
      "chip": "ym2612"
    },
    {
      "channel": 5,
      "note": 61,
      "start": 46.5851,
      "duration": 0.0434,
      "velocity": 99,
      "chip": "ym2612"
    },
    {
      "channel": 4,
      "note": 45,
      "start": 46.5882,
      "duration": 0.0069,
      "velocity": 125,
      "chip": "ym2612"
    },
    {
      "channel": 1,
      "note": 57,
      "start": 46.6817,
      "duration": 0.0967,
      "velocity": 101,
      "chip": "ym2612"
    },
    {
      "channel": 0,
      "note": 42,
      "start": 46.6846,
      "duration": 0.0937,
      "velocity": 125,
      "chip": "ym2612"
    },
    {
      "channel": 4,
      "note": 45,
      "start": 46.6874,
      "duration": 0.0078,
      "velocity": 125,
      "chip": "ym2612"
    },
    {
      "channel": 4,
      "note": 45,
      "start": 46.7823,
      "duration": 0.0127,
      "velocity": 125,
      "chip": "ym2612"
    },
    {
      "channel": 0,
      "note": 42,
      "start": 46.8823,
      "duration": 0.0962,
      "velocity": 125,
      "chip": "ym2612"
    },
    {
      "channel": 4,
      "note": 45,
      "start": 46.8851,
      "duration": 0.0101,
      "velocity": 125,
      "chip": "ym2612"
    },
    {
      "channel": 1,
      "note": 57,
      "start": 46.9819,
      "duration": 0.113,
      "velocity": 101,
      "chip": "ym2612"
    },
    {
      "channel": 5,
      "note": 73,
      "start": 46.985,
      "duration": 0.0437,
      "velocity": 99,
      "chip": "ym2612"
    },
    {
      "channel": 4,
      "note": 45,
      "start": 46.9886,
      "duration": 0.04,
      "velocity": 125,
      "chip": "ym2612"
    },
    {
      "channel": 2,
      "note": 87,
      "start": 47.1824,
      "duration": 0.0127,
      "velocity": 125,
      "chip": "ym2612"
    },
    {
      "channel": 2,
      "note": 87,
      "start": 47.2822,
      "duration": 0.0129,
      "velocity": 125,
      "chip": "ym2612"
    },
    {
      "channel": 3,
      "note": 69,
      "start": 47.4832,
      "duration": 0.1453,
      "velocity": 107,
      "chip": "ym2612"
    },
    {
      "channel": 0,
      "note": 81,
      "start": 47.4861,
      "duration": 0.1089,
      "velocity": 107,
      "chip": "ym2612"
    },
    {
      "channel": 1,
      "note": 57,
      "start": 47.4889,
      "duration": 0.0562,
      "velocity": 101,
      "chip": "ym2612"
    },
    {
      "channel": 5,
      "note": 73,
      "start": 47.4918,
      "duration": 0.0367,
      "velocity": 99,
      "chip": "ym2612"
    },
    {
      "channel": 4,
      "note": 42,
      "start": 47.4946,
      "duration": 0.084,
      "velocity": 125,
      "chip": "ym2612"
    },
    {
      "channel": 2,
      "note": 87,
      "start": 47.4975,
      "duration": 0.0054,
      "velocity": 125,
      "chip": "ym2612"
    },
    {
      "channel": 2,
      "note": 72,
      "start": 47.5825,
      "duration": 0.0629,
      "velocity": 116,
      "chip": "ym2612"
    },
    {
      "channel": 0,
      "note": 57,
      "start": 48.1816,
      "duration": 0.0967,
      "velocity": 107,
      "chip": "ym2612"
    },
    {
      "channel": 3,
      "note": 45,
      "start": 48.1841,
      "duration": 0.0943,
      "velocity": 107,
      "chip": "ym2612"
    },
    {
      "channel": 4,
      "note": 42,
      "start": 48.1871,
      "duration": 0.0915,
      "velocity": 125,
      "chip": "ym2612"
    },
    {
      "channel": 5,
      "note": 74,
      "start": 48.192,
      "duration": 0.0867,
      "velocity": 115,
      "chip": "ym2612"
    },
    {
      "channel": 2,
      "note": 72,
      "start": 48.2009,
      "duration": 0.0945,
      "velocity": 116,
      "chip": "ym2612"
    },
    {
      "channel": 5,
      "note": 74,
      "start": 48.3831,
      "duration": 0.0955,
      "velocity": 115,
      "chip": "ym2612"
    },
    {
      "channel": 2,
      "note": 72,
      "start": 48.3991,
      "duration": 0.0963,
      "velocity": 116,
      "chip": "ym2612"
    },
    {
      "channel": 5,
      "note": 74,
      "start": 48.4845,
      "duration": 0.0941,
      "velocity": 115,
      "chip": "ym2612"
    },
    {
      "channel": 2,
      "note": 72,
      "start": 48.5003,
      "duration": 0.1115,
      "velocity": 116,
      "chip": "ym2612"
    },
    {
      "channel": 0,
      "note": 48,
      "start": 48.6815,
      "duration": 0.0969,
      "velocity": 107,
      "chip": "ym2612"
    },
    {
      "channel": 3,
      "note": 60,
      "start": 48.6842,
      "duration": 0.0776,
      "velocity": 107,
      "chip": "ym2612"
    },
    {
      "channel": 4,
      "note": 42,
      "start": 48.6872,
      "duration": 0.0914,
      "velocity": 125,
      "chip": "ym2612"
    },
    {
      "channel": 5,
      "note": 74,
      "start": 48.6909,
      "duration": 0.0879,
      "velocity": 115,
      "chip": "ym2612"
    },
    {
      "channel": 2,
      "note": 72,
      "start": 48.7157,
      "duration": 0.0963,
      "velocity": 116,
      "chip": "ym2612"
    },
    {
      "channel": 5,
      "note": 74,
      "start": 48.7844,
      "duration": 0.0942,
      "velocity": 115,
      "chip": "ym2612"
    },
    {
      "channel": 2,
      "note": 72,
      "start": 48.8166,
      "duration": 0.0953,
      "velocity": 116,
      "chip": "ym2612"
    },
    {
      "channel": 5,
      "note": 74,
      "start": 48.9832,
      "duration": 0.0954,
      "velocity": 115,
      "chip": "ym2612"
    },
    {
      "channel": 2,
      "note": 72,
      "start": 49.0157,
      "duration": 0.0964,
      "velocity": 116,
      "chip": "ym2612"
    },
    {
      "channel": 0,
      "note": 50,
      "start": 49.0822,
      "duration": 0.1463,
      "velocity": 107,
      "chip": "ym2612"
    },
    {
      "channel": 3,
      "note": 62,
      "start": 49.0848,
      "duration": 0.0936,
      "velocity": 107,
      "chip": "ym2612"
    },
    {
      "channel": 4,
      "note": 42,
      "start": 49.0878,
      "duration": 0.0907,
      "velocity": 125,
      "chip": "ym2612"
    },
    {
      "channel": 5,
      "note": 74,
      "start": 49.0923,
      "duration": 0.0863,
      "velocity": 115,
      "chip": "ym2612"
    },
    {
      "channel": 2,
      "note": 72,
      "start": 49.1167,
      "duration": 0.0952,
      "velocity": 116,
      "chip": "ym2612"
    },
    {
      "channel": 5,
      "note": 74,
      "start": 49.2831,
      "duration": 0.0956,
      "velocity": 115,
      "chip": "ym2612"
    },
    {
      "channel": 2,
      "note": 72,
      "start": 49.3157,
      "duration": 0.0963,
      "velocity": 116,
      "chip": "ym2612"
    },
    {
      "channel": 5,
      "note": 74,
      "start": 49.3841,
      "duration": 0.0945,
      "velocity": 115,
      "chip": "ym2612"
    },
    {
      "channel": 2,
      "note": 72,
      "start": 49.4166,
      "duration": 0.0952,
      "velocity": 116,
      "chip": "ym2612"
    },
    {
      "channel": 0,
      "note": 64,
      "start": 49.5817,
      "duration": 0.0799,
      "velocity": 107,
      "chip": "ym2612"
    },
    {
      "channel": 3,
      "note": 52,
      "start": 49.5844,
      "duration": 0.0941,
      "velocity": 107,
      "chip": "ym2612"
    },
    {
      "channel": 4,
      "note": 42,
      "start": 49.5873,
      "duration": 0.0914,
      "velocity": 125,
      "chip": "ym2612"
    },
    {
      "channel": 5,
      "note": 74,
      "start": 49.591,
      "duration": 0.0878,
      "velocity": 115,
      "chip": "ym2612"
    },
    {
      "channel": 2,
      "note": 72,
      "start": 49.6158,
      "duration": 0.0962,
      "velocity": 116,
      "chip": "ym2612"
    },
    {
      "channel": 5,
      "note": 74,
      "start": 49.6844,
      "duration": 0.0943,
      "velocity": 115,
      "chip": "ym2612"
    },
    {
      "channel": 2,
      "note": 72,
      "start": 49.7166,
      "duration": 0.0953,
      "velocity": 116,
      "chip": "ym2612"
    },
    {
      "channel": 5,
      "note": 74,
      "start": 49.8832,
      "duration": 0.0953,
      "velocity": 115,
      "chip": "ym2612"
    },
    {
      "channel": 2,
      "note": 72,
      "start": 49.9157,
      "duration": 0.0964,
      "velocity": 116,
      "chip": "ym2612"
    },
    {
      "channel": 0,
      "note": 67,
      "start": 49.9816,
      "duration": 0.0968,
      "velocity": 107,
      "chip": "ym2612"
    },
    {
      "channel": 3,
      "note": 55,
      "start": 49.9842,
      "duration": 0.1277,
      "velocity": 107,
      "chip": "ym2612"
    },
    {
      "channel": 4,
      "note": 42,
      "start": 49.9872,
      "duration": 0.0915,
      "velocity": 125,
      "chip": "ym2612"
    },
    {
      "channel": 5,
      "note": 74,
      "start": 49.9917,
      "duration": 0.0871,
      "velocity": 115,
      "chip": "ym2612"
    },
    {
      "channel": 2,
      "note": 72,
      "start": 50.0168,
      "duration": 0.0954,
      "velocity": 116,
      "chip": "ym2612"
    },
    {
      "channel": 5,
      "note": 74,
      "start": 50.1832,
      "duration": 0.0955,
      "velocity": 115,
      "chip": "ym2612"
    },
    {
      "channel": 2,
      "note": 72,
      "start": 50.2157,
      "duration": 0.0964,
      "velocity": 116,
      "chip": "ym2612"
    },
    {
      "channel": 5,
      "note": 74,
      "start": 50.2841,
      "duration": 0.0945,
      "velocity": 115,
      "chip": "ym2612"
    },
    {
      "channel": 2,
      "note": 72,
      "start": 50.3168,
      "duration": 0.0952,
      "velocity": 116,
      "chip": "ym2612"
    },
    {
      "channel": 0,
      "note": 57,
      "start": 50.482,
      "duration": 0.0964,
      "velocity": 107,
      "chip": "ym2612"
    },
    {
      "channel": 3,
      "note": 69,
      "start": 50.4846,
      "duration": 0.094,
      "velocity": 107,
      "chip": "ym2612"
    },
    {
      "channel": 4,
      "note": 42,
      "start": 50.4875,
      "duration": 0.0912,
      "velocity": 125,
      "chip": "ym2612"
    },
    {
      "channel": 5,
      "note": 74,
      "start": 50.4912,
      "duration": 0.0877,
      "velocity": 115,
      "chip": "ym2612"
    },
    {
      "channel": 2,
      "note": 72,
      "start": 50.5157,
      "duration": 0.0963,
      "velocity": 116,
      "chip": "ym2612"
    },
    {
      "channel": 5,
      "note": 74,
      "start": 50.5846,
      "duration": 0.0941,
      "velocity": 115,
      "chip": "ym2612"
    },
    {
      "channel": 2,
      "note": 72,
      "start": 50.6167,
      "duration": 0.0953,
      "velocity": 116,
      "chip": "ym2612"
    },
    {
      "channel": 5,
      "note": 74,
      "start": 50.7999,
      "duration": 0.0954,
      "velocity": 115,
      "chip": "ym2612"
    },
    {
      "channel": 2,
      "note": 72,
      "start": 50.8157,
      "duration": 0.099,
      "velocity": 116,
      "chip": "ym2612"
    },
    {
      "channel": 0,
      "note": 72,
      "start": 50.8983,
      "duration": 0.0968,
      "velocity": 107,
      "chip": "ym2612"
    },
    {
      "channel": 3,
      "note": 60,
      "start": 50.9009,
      "duration": 0.0944,
      "velocity": 107,
      "chip": "ym2612"
    },
    {
      "channel": 4,
      "note": 42,
      "start": 50.9042,
      "duration": 0.0912,
      "velocity": 125,
      "chip": "ym2612"
    },
    {
      "channel": 5,
      "note": 74,
      "start": 50.9087,
      "duration": 0.0868,
      "velocity": 115,
      "chip": "ym2612"
    },
    {
      "channel": 2,
      "note": 72,
      "start": 50.9194,
      "duration": 0.0927,
      "velocity": 116,
      "chip": "ym2612"
    },
    {
      "channel": 5,
      "note": 74,
      "start": 51.1,
      "duration": 0.0953,
      "velocity": 115,
      "chip": "ym2612"
    },
    {
      "channel": 2,
      "note": 72,
      "start": 51.1158,
      "duration": 0.0963,
      "velocity": 116,
      "chip": "ym2612"
    },
    {
      "channel": 5,
      "note": 74,
      "start": 51.2008,
      "duration": 0.0946,
      "velocity": 115,
      "chip": "ym2612"
    },
    {
      "channel": 2,
      "note": 72,
      "start": 51.2168,
      "duration": 0.0951,
      "velocity": 116,
      "chip": "ym2612"
    },
    {
      "channel": 0,
      "note": 74,
      "start": 51.3981,
      "duration": 0.0969,
      "velocity": 107,
      "chip": "ym2612"
    },
    {
      "channel": 3,
      "note": 62,
      "start": 51.4008,
      "duration": 0.1112,
      "velocity": 107,
      "chip": "ym2612"
    },
    {
      "channel": 4,
      "note": 42,
      "start": 51.4038,
      "duration": 0.0915,
      "velocity": 125,
      "chip": "ym2612"
    },
    {
      "channel": 5,
      "note": 74,
      "start": 51.4074,
      "duration": 0.088,
      "velocity": 115,
      "chip": "ym2612"
    },
    {
      "channel": 2,
      "note": 72,
      "start": 51.4176,
      "duration": 0.0945,
      "velocity": 116,
      "chip": "ym2612"
    },
    {
      "channel": 5,
      "note": 74,
      "start": 51.501,
      "duration": 0.0943,
      "velocity": 115,
      "chip": "ym2612"
    },
    {
      "channel": 2,
      "note": 72,
      "start": 51.5169,
      "duration": 0.0951,
      "velocity": 116,
      "chip": "ym2612"
    },
    {
      "channel": 5,
      "note": 74,
      "start": 51.6999,
      "duration": 0.0954,
      "velocity": 115,
      "chip": "ym2612"
    },
    {
      "channel": 2,
      "note": 72,
      "start": 51.7157,
      "duration": 0.0998,
      "velocity": 116,
      "chip": "ym2612"
    },
    {
      "channel": 0,
      "note": 64,
      "start": 51.7984,
      "duration": 0.1134,
      "velocity": 107,
      "chip": "ym2612"
    },
    {
      "channel": 3,
      "note": 76,
      "start": 51.8014,
      "duration": 0.0936,
      "velocity": 107,
      "chip": "ym2612"
    },
    {
      "channel": 4,
      "note": 42,
      "start": 51.8044,
      "duration": 0.0908,
      "velocity": 125,
      "chip": "ym2612"
    },
    {
      "channel": 5,
      "note": 74,
      "start": 51.8089,
      "duration": 0.0864,
      "velocity": 115,
      "chip": "ym2612"
    },
    {
      "channel": 2,
      "note": 72,
      "start": 51.8201,
      "duration": 0.092,
      "velocity": 116,
      "chip": "ym2612"
    },
    {
      "channel": 5,
      "note": 74,
      "start": 52.0,
      "duration": 0.0953,
      "velocity": 115,
      "chip": "ym2612"
    },
    {
      "channel": 2,
      "note": 72,
      "start": 52.0158,
      "duration": 0.0963,
      "velocity": 116,
      "chip": "ym2612"
    },
    {
      "channel": 5,
      "note": 74,
      "start": 52.1008,
      "duration": 0.0946,
      "velocity": 115,
      "chip": "ym2612"
    },
    {
      "channel": 2,
      "note": 72,
      "start": 52.1168,
      "duration": 0.0952,
      "velocity": 116,
      "chip": "ym2612"
    },
    {
      "channel": 0,
      "note": 67,
      "start": 52.2982,
      "duration": 0.0968,
      "velocity": 107,
      "chip": "ym2612"
    },
    {
      "channel": 3,
      "note": 79,
      "start": 52.3009,
      "duration": 0.0943,
      "velocity": 107,
      "chip": "ym2612"
    },
    {
      "channel": 4,
      "note": 42,
      "start": 52.304,
      "duration": 0.0914,
      "velocity": 125,
      "chip": "ym2612"
    },
    {
      "channel": 5,
      "note": 74,
      "start": 52.3077,
      "duration": 0.0878,
      "velocity": 115,
      "chip": "ym2612"
    },
    {
      "channel": 2,
      "note": 72,
      "start": 52.3175,
      "duration": 0.0946,
      "velocity": 116,
      "chip": "ym2612"
    },
    {
      "channel": 5,
      "note": 74,
      "start": 52.4007,
      "duration": 0.0946,
      "velocity": 115,
      "chip": "ym2612"
    },
    {
      "channel": 2,
      "note": 72,
      "start": 52.4163,
      "duration": 0.0957,
      "velocity": 116,
      "chip": "ym2612"
    },
    {
      "channel": 1,
      "note": 88,
      "start": 52.6994,
      "duration": 0.0456,
      "velocity": 102,
      "chip": "ym2612"
    },
    {
      "channel": 1,
      "note": 88,
      "start": 52.7988,
      "duration": 0.0462,
      "velocity": 102,
      "chip": "ym2612"
    },
    {
      "channel": 1,
      "note": 88,
      "start": 52.8999,
      "duration": 0.0451,
      "velocity": 102,
      "chip": "ym2612"
    },
    {
      "channel": 0,
      "note": 76,
      "start": 52.9985,
      "duration": 0.1465,
      "velocity": 86,
      "chip": "ym2612"
    },
    {
      "channel": 3,
      "note": 64,
      "start": 53.0015,
      "duration": 0.1268,
      "velocity": 86,
      "chip": "ym2612"
    },
    {
      "channel": 1,
      "note": 88,
      "start": 53.0052,
      "duration": 0.0398,
      "velocity": 102,
      "chip": "ym2612"
    },
    {
      "channel": 0,
      "note": 81,
      "start": 53.1982,
      "duration": 0.1468,
      "velocity": 86,
      "chip": "ym2612"
    },
    {
      "channel": 3,
      "note": 69,
      "start": 53.201,
      "duration": 0.0773,
      "velocity": 86,
      "chip": "ym2612"
    },
    {
      "channel": 0,
      "note": 85,
      "start": 53.3986,
      "duration": 0.0963,
      "velocity": 86,
      "chip": "ym2612"
    },
    {
      "channel": 3,
      "note": 73,
      "start": 53.4015,
      "duration": 0.1268,
      "velocity": 86,
      "chip": "ym2612"
    },
    {
      "channel": 0,
      "note": 88,
      "start": 53.5983,
      "duration": 0.18,
      "velocity": 86,
      "chip": "ym2612"
    },
    {
      "channel": 3,
      "note": 76,
      "start": 53.601,
      "duration": 0.1939,
      "velocity": 86,
      "chip": "ym2612"
    },
    {
      "channel": 0,
      "note": 85,
      "start": 53.9982,
      "duration": 0.1466,
      "velocity": 86,
      "chip": "ym2612"
    },
    {
      "channel": 3,
      "note": 73,
      "start": 54.0014,
      "duration": 0.1769,
      "velocity": 86,
      "chip": "ym2612"
    },
    {
      "channel": 0,
      "note": 88,
      "start": 54.1981,
      "duration": 1.1134,
      "velocity": 86,
      "chip": "ym2612"
    },
    {
      "channel": 3,
      "note": 76,
      "start": 54.201,
      "duration": 1.1773,
      "velocity": 86,
      "chip": "ym2612"
    },
    {
      "channel": 4,
      "note": 81,
      "start": 55.615,
      "duration": 0.197,
      "velocity": 107,
      "chip": "ym2612"
    },
    {
      "channel": 5,
      "note": 57,
      "start": 55.6176,
      "duration": 0.1945,
      "velocity": 107,
      "chip": "ym2612"
    },
    {
      "channel": 2,
      "note": 69,
      "start": 55.6206,
      "duration": 0.1414,
      "velocity": 107,
      "chip": "ym2612"
    },
    {
      "channel": 1,
      "note": 57,
      "start": 55.6235,
      "duration": 0.1883,
      "velocity": 101,
      "chip": "ym2612"
    },
    {
      "channel": 0,
      "note": 73,
      "start": 55.6263,
      "duration": 0.0354,
      "velocity": 99,
      "chip": "ym2612"
    },
    {
      "channel": 3,
      "note": 42,
      "start": 55.6291,
      "duration": 0.0826,
      "velocity": 125,
      "chip": "ym2612"
    }
  ]
}