{
  "track_name": "01 - Circle of Life",
  "duration_sec": 94.706,
  "sample_rate": 44100,
  "note_count": 945,
  "unique_pitches": 46,
  "pitch_range": 52,
  "avg_note_duration": 0.6007,
  "reconstruction_stats": {
    "notes_reconstructed": 945,
    "keyon_events": 945,
    "keyoff_events": 861,
    "orphan_keyons": 6,
    "unique_pitches": 46,
    "pitch_range": 52,
    "avg_duration_sec": 0.6007
  },
  "metadata": {
    "source": "T\\The Lion King\\01 - Circle of Life.vgm"
  },
  "notes": [
    {
      "channel": 0,
      "note": 55,
      "start": 0.0003,
      "duration": 2.3561,
      "velocity": 112,
      "chip": "ym2612"
    },
    {
      "channel": 1,
      "note": 86,
      "start": 0.0029,
      "duration": 2.3542,
      "velocity": 102,
      "chip": "ym2612"
    },
    {
      "channel": 2,
      "note": 83,
      "start": 0.0056,
      "duration": 2.3523,
      "velocity": 102,
      "chip": "ym2612"
    },
    {
      "channel": 3,
      "note": 79,
      "start": 0.0082,
      "duration": 2.3503,
      "velocity": 102,
      "chip": "ym2612"
    },
    {
      "channel": 5,
      "note": 91,
      "start": 0.011,
      "duration": 0.3067,
      "velocity": 127,
      "chip": "ym2612"
    },
    {
      "channel": 4,
      "note": 55,
      "start": 0.3172,
      "duration": 0.1644,
      "velocity": 117,
      "chip": "ym2612"
    },
    {
      "channel": 5,
      "note": 55,
      "start": 0.318,
      "duration": 0.331,
      "velocity": 127,
      "chip": "ym2612"
    },
    {
      "channel": 4,
      "note": 55,
      "start": 0.4818,
      "duration": 0.1665,
      "velocity": 117,
      "chip": "ym2612"
    },
    {
      "channel": 4,
      "note": 55,
      "start": 0.6485,
      "duration": 0.3165,
      "velocity": 117,
      "chip": "ym2612"
    },
    {
      "channel": 5,
      "note": 79,
      "start": 0.6493,
      "duration": 0.3164,
      "velocity": 127,
      "chip": "ym2612"
    },
    {
      "channel": 4,
      "note": 55,
      "start": 0.9652,
      "duration": 0.1498,
      "velocity": 117,
      "chip": "ym2612"
    },
    {
      "channel": 5,
      "note": 67,
      "start": 0.9659,
      "duration": 0.3158,
      "velocity": 127,
      "chip": "ym2612"
    },
    {
      "channel": 4,
      "note": 55,
      "start": 1.1152,
      "duration": 0.3332,
      "velocity": 117,
      "chip": "ym2612"
    },
    {
      "channel": 5,
      "note": 91,
      "start": 1.282,
      "duration": 0.317,
      "velocity": 127,
      "chip": "ym2612"
    },
    {
      "channel": 4,
      "note": 55,
      "start": 1.4485,
      "duration": 0.1498,
      "velocity": 117,
      "chip": "ym2612"
    },
    {
      "channel": 4,
      "note": 55,
      "start": 1.5985,
      "duration": 0.1665,
      "velocity": 117,
      "chip": "ym2612"
    },
    {
      "channel": 5,
      "note": 55,
      "start": 1.5993,
      "duration": 0.2168,
      "velocity": 127,
      "chip": "ym2612"
    },
    {
      "channel": 4,
      "note": 55,
      "start": 1.7652,
      "duration": 0.0502,
      "velocity": 117,
      "chip": "ym2612"
    },
    {
      "channel": 4,
      "note": 55,
      "start": 1.8156,
      "duration": 0.3332,
      "velocity": 117,
      "chip": "ym2612"
    },
    {
      "channel": 5,
      "note": 91,
      "start": 1.8163,
      "duration": 0.3331,
      "velocity": 127,
      "chip": "ym2612"
    },
    {
      "channel": 4,
      "note": 50,
      "start": 2.1489,
      "duration": 0.5245,
      "velocity": 117,
      "chip": "ym2612"
    },
    {
      "channel": 5,
      "note": 67,
      "start": 2.1497,
      "duration": 0.2097,
      "velocity": 127,
      "chip": "ym2612"
    },
    {
      "channel": 0,
      "note": 52,
      "start": 2.3566,
      "duration": 2.4502,
      "velocity": 112,
      "chip": "ym2612"
    },
    {
      "channel": 1,
      "note": 88,
      "start": 2.3573,
      "duration": 2.4502,
      "velocity": 102,
      "chip": "ym2612"
    },
    {
      "channel": 2,
      "note": 83,
      "start": 2.358,
      "duration": 2.4502,
      "velocity": 102,
      "chip": "ym2612"
    },
    {
      "channel": 3,
      "note": 79,
      "start": 2.3588,
      "duration": 2.4502,
      "velocity": 102,
      "chip": "ym2612"
    },
    {
      "channel": 5,
      "note": 91,
      "start": 2.3595,
      "duration": 0.3145,
      "velocity": 127,
      "chip": "ym2612"
    },
    {
      "channel": 4,
      "note": 55,
      "start": 2.6735,
      "duration": 0.1665,
      "velocity": 117,
      "chip": "ym2612"
    },
    {
      "channel": 5,
      "note": 55,
      "start": 2.6743,
      "duration": 0.3164,
      "velocity": 127,
      "chip": "ym2612"
    },
    {
      "channel": 4,
      "note": 55,
      "start": 2.8402,
      "duration": 0.1498,
      "velocity": 117,
      "chip": "ym2612"
    },
    {
      "channel": 4,
      "note": 55,
      "start": 2.9902,
      "duration": 0.3165,
      "velocity": 117,
      "chip": "ym2612"
    },
    {
      "channel": 5,
      "note": 91,
      "start": 2.991,
      "duration": 0.3164,
      "velocity": 127,
      "chip": "ym2612"
    },
    {
      "channel": 4,
      "note": 55,
      "start": 3.3069,
      "duration": 0.1665,
      "velocity": 117,
      "chip": "ym2612"
    },
    {
      "channel": 5,
      "note": 67,
      "start": 3.3076,
      "duration": 0.3324,
      "velocity": 127,
      "chip": "ym2612"
    },
    {
      "channel": 4,
      "note": 55,
      "start": 3.4735,
      "duration": 0.3165,
      "velocity": 117,
      "chip": "ym2612"
    },
    {
      "channel": 5,
      "note": 91,
      "start": 3.6403,
      "duration": 0.317,
      "velocity": 127,
      "chip": "ym2612"
    },
    {
      "channel": 4,
      "note": 55,
      "start": 3.7902,
      "duration": 0.1665,
      "velocity": 117,
      "chip": "ym2612"
    },
    {
      "channel": 4,
      "note": 55,
      "start": 3.9569,
      "duration": 0.1498,
      "velocity": 117,
      "chip": "ym2612"
    },
    {
      "channel": 5,
      "note": 55,
      "start": 3.9576,
      "duration": 0.3164,
      "velocity": 127,
      "chip": "ym2612"
    },
    {
      "channel": 4,
      "note": 55,
      "start": 4.1069,
      "duration": 0.1665,
      "velocity": 117,
      "chip": "ym2612"
    },
    {
      "channel": 4,
      "note": 55,
      "start": 4.2735,
      "duration": 0.3165,
      "velocity": 117,
      "chip": "ym2612"
    },
    {
      "channel": 5,
      "note": 91,
      "start": 4.2743,
      "duration": 0.3164,
      "velocity": 127,
      "chip": "ym2612"
    },
    {
      "channel": 4,
      "note": 50,
      "start": 4.5902,
      "duration": 0.5502,
      "velocity": 117,
      "chip": "ym2612"
    },
    {
      "channel": 5,
      "note": 67,
      "start": 4.591,
      "duration": 0.2187,
      "velocity": 127,
      "chip": "ym2612"
    },
    {
      "channel": 0,
      "note": 48,
      "start": 4.807,
      "duration": 2.3582,
      "velocity": 112,
      "chip": "ym2612"
    },
    {
      "channel": 1,
      "note": 81,
      "start": 4.8077,
      "duration": 2.3582,
      "velocity": 102,
      "chip": "ym2612"
    },
    {
      "channel": 2,
      "note": 84,
      "start": 4.8084,
      "duration": 2.3582,
      "velocity": 102,
      "chip": "ym2612"
    },
    {
      "channel": 3,
      "note": 88,
      "start": 4.8091,
      "duration": 2.3583,
      "velocity": 102,
      "chip": "ym2612"
    },
    {
      "channel": 5,
      "note": 91,
      "start": 4.81,
      "duration": 0.3312,
      "velocity": 127,
      "chip": "ym2612"
    },
    {
      "channel": 4,
      "note": 55,
      "start": 5.1406,
      "duration": 0.1498,
      "velocity": 117,
      "chip": "ym2612"
    },
    {
      "channel": 5,
      "note": 55,
      "start": 5.1414,
      "duration": 0.3164,
      "velocity": 127,
      "chip": "ym2612"
    },
    {
      "channel": 4,
      "note": 55,
      "start": 5.2906,
      "duration": 0.1665,
      "velocity": 117,
      "chip": "ym2612"
    },
    {
      "channel": 4,
      "note": 55,
      "start": 5.4573,
      "duration": 0.3165,
      "velocity": 117,
      "chip": "ym2612"
    },
    {
      "channel": 5,
      "note": 91,
      "start": 5.458,
      "duration": 0.3164,
      "velocity": 127,
      "chip": "ym2612"
    },
    {
      "channel": 4,
      "note": 55,
      "start": 5.7739,
      "duration": 0.1665,
      "velocity": 117,
      "chip": "ym2612"
    },
    {
      "channel": 5,
      "note": 67,
      "start": 5.7747,
      "duration": 0.3158,
      "velocity": 127,
      "chip": "ym2612"
    },
    {
      "channel": 4,
      "note": 55,
      "start": 5.9406,
      "duration": 0.3165,
      "velocity": 117,
      "chip": "ym2612"
    },
    {
      "channel": 5,
      "note": 91,
      "start": 6.0907,
      "duration": 0.317,
      "velocity": 127,
      "chip": "ym2612"
    },
    {
      "channel": 4,
      "note": 55,
      "start": 6.2573,
      "duration": 0.1498,
      "velocity": 117,
      "chip": "ym2612"
    },
    {
      "channel": 4,
      "note": 55,
      "start": 6.4073,
      "duration": 0.1665,
      "velocity": 117,
      "chip": "ym2612"
    },
    {
      "channel": 5,
      "note": 55,
      "start": 6.408,
      "duration": 0.2335,
      "velocity": 127,
      "chip": "ym2612"
    },
    {
      "channel": 4,
      "note": 55,
      "start": 6.5739,
      "duration": 0.0669,
      "velocity": 117,
      "chip": "ym2612"
    },
    {
      "channel": 4,
      "note": 55,
      "start": 6.6411,
      "duration": 0.3165,
      "velocity": 117,
      "chip": "ym2612"
    },
    {
      "channel": 5,
      "note": 91,
      "start": 6.6418,
      "duration": 0.3164,
      "velocity": 127,
      "chip": "ym2612"
    },
    {
      "channel": 4,
      "note": 50,
      "start": 6.9577,
      "duration": 0.5245,
      "velocity": 117,
      "chip": "ym2612"
    },
    {
      "channel": 5,
      "note": 67,
      "start": 6.9585,
      "duration": 0.2096,
      "velocity": 127,
      "chip": "ym2612"
    },
    {
      "channel": 0,
      "note": 50,
      "start": 7.1655,
      "duration": 2.467,
      "velocity": 112,
      "chip": "ym2612"
    },
    {
      "channel": 1,
      "note": 86,
      "start": 7.1662,
      "duration": 1.9177,
      "velocity": 103,
      "chip": "ym2612"
    },
    {
      "channel": 2,
      "note": 81,
      "start": 7.1669,
      "duration": 2.4671,
      "velocity": 102,
      "chip": "ym2612"
    },
    {
      "channel": 3,
      "note": 78,
      "start": 7.1676,
      "duration": 2.4672,
      "velocity": 102,
      "chip": "ym2612"
    },
    {
      "channel": 5,
      "note": 91,
      "start": 7.1684,
      "duration": 0.3145,
      "velocity": 127,
      "chip": "ym2612"
    },
    {
      "channel": 4,
      "note": 55,
      "start": 7.4824,
      "duration": 0.1665,
      "velocity": 117,
      "chip": "ym2612"
    },
    {
      "channel": 5,
      "note": 55,
      "start": 7.4832,
      "duration": 0.3164,
      "velocity": 127,
      "chip": "ym2612"
    },
    {
      "channel": 4,
      "note": 55,
      "start": 7.649,
      "duration": 0.1498,
      "velocity": 117,
      "chip": "ym2612"
    },
    {
      "channel": 4,
      "note": 55,
      "start": 7.799,
      "duration": 0.3332,
      "velocity": 117,
      "chip": "ym2612"
    },
    {
      "channel": 5,
      "note": 91,
      "start": 7.7998,
      "duration": 0.3331,
      "velocity": 127,
      "chip": "ym2612"
    },
    {
      "channel": 4,
      "note": 55,
      "start": 8.1324,
      "duration": 0.1498,
      "velocity": 117,
      "chip": "ym2612"
    },
    {
      "channel": 5,
      "note": 67,
      "start": 8.1332,
      "duration": 0.3158,
      "velocity": 127,
      "chip": "ym2612"
    },
    {
      "channel": 4,
      "note": 55,
      "start": 8.2824,
      "duration": 0.3165,
      "velocity": 117,
      "chip": "ym2612"
    },
    {
      "channel": 5,
      "note": 91,
      "start": 8.4492,
      "duration": 0.317,
      "velocity": 127,
      "chip": "ym2612"
    },
    {
      "channel": 4,
      "note": 55,
      "start": 8.599,
      "duration": 0.1665,
      "velocity": 117,
      "chip": "ym2612"
    },
    {
      "channel": 4,
      "note": 55,
      "start": 8.7657,
      "duration": 0.1665,
      "velocity": 117,
      "chip": "ym2612"
    },
    {
      "channel": 5,
      "note": 55,
      "start": 8.7665,
      "duration": 0.319,
      "velocity": 127,
      "chip": "ym2612"
    },
    {
      "channel": 4,
      "note": 55,
      "start": 8.9324,
      "duration": 0.1524,
      "velocity": 117,
      "chip": "ym2612"
    },
    {
      "channel": 1,
      "note": 59,
      "start": 9.0841,
      "duration": 0.3145,
      "velocity": 103,
      "chip": "ym2612"
    },
    {
      "channel": 4,
      "note": 55,
      "start": 9.085,
      "duration": 0.3145,
      "velocity": 117,
      "chip": "ym2612"
    },
    {
      "channel": 5,
      "note": 91,
      "start": 9.0858,
      "duration": 0.3144,
      "velocity": 127,
      "chip": "ym2612"
    },
    {
      "channel": 1,
      "note": 60,
      "start": 9.3989,
      "duration": 0.2344,
      "velocity": 103,
      "chip": "ym2612"
    },
    {
      "channel": 4,
      "note": 50,
      "start": 9.3998,
      "duration": 0.5502,
      "velocity": 117,
      "chip": "ym2612"
    },
    {
      "channel": 5,
      "note": 67,
      "start": 9.4005,
      "duration": 0.2353,
      "velocity": 127,
      "chip": "ym2612"
    },
    {
      "channel": 0,
      "note": 55,
      "start": 9.6327,
      "duration": 2.3413,
      "velocity": 112,
      "chip": "ym2612"
    },
    {
      "channel": 1,
      "note": 62,
      "start": 9.6335,
      "duration": 0.3155,
      "velocity": 103,
      "chip": "ym2612"
    },
    {
      "channel": 2,
      "note": 79,
      "start": 9.6343,
      "duration": 2.3412,
      "velocity": 102,
      "chip": "ym2612"
    },
    {
      "channel": 3,
      "note": 83,
      "start": 9.635,
      "duration": 2.3412,
      "velocity": 102,
      "chip": "ym2612"
    },
    {
      "channel": 5,
      "note": 91,
      "start": 9.6359,
      "duration": 0.3148,
      "velocity": 127,
      "chip": "ym2612"
    },
    {
      "channel": 1,
      "note": 62,
      "start": 9.9493,
      "duration": 0.6331,
      "velocity": 103,
      "chip": "ym2612"
    },
    {
      "channel": 4,
      "note": 55,
      "start": 9.9502,
      "duration": 0.149,
      "velocity": 117,
      "chip": "ym2612"
    },
    {
      "channel": 5,
      "note": 55,
      "start": 9.951,
      "duration": 0.3157,
      "velocity": 127,
      "chip": "ym2612"
    },
    {
      "channel": 4,
      "note": 55,
      "start": 10.0995,
      "duration": 0.1664,
      "velocity": 117,
      "chip": "ym2612"
    },
    {
      "channel": 4,
      "note": 55,
      "start": 10.2661,
      "duration": 0.3171,
      "velocity": 117,
      "chip": "ym2612"
    },
    {
      "channel": 5,
      "note": 79,
      "start": 10.2669,
      "duration": 0.3171,
      "velocity": 127,
      "chip": "ym2612"
    },
    {
      "channel": 1,
      "note": 62,
      "start": 10.5826,
      "duration": 0.6497,
      "velocity": 103,
      "chip": "ym2612"
    },
    {
      "channel": 4,
      "note": 55,
      "start": 10.5835,
      "duration": 0.1658,
      "velocity": 117,
      "chip": "ym2612"
    },
    {
      "channel": 5,
      "note": 67,
      "start": 10.5842,
      "duration": 0.3151,
      "velocity": 127,
      "chip": "ym2612"
    },
    {
      "channel": 4,
      "note": 55,
      "start": 10.7495,
      "duration": 0.3164,
      "velocity": 117,
      "chip": "ym2612"
    },
    {
      "channel": 5,
      "note": 91,
      "start": 10.8996,
      "duration": 0.3344,
      "velocity": 127,
      "chip": "ym2612"
    },
    {
      "channel": 4,
      "note": 55,
      "start": 11.0661,
      "duration": 0.1671,
      "velocity": 117,
      "chip": "ym2612"
    },
    {
      "channel": 1,
      "note": 64,
      "start": 11.2326,
      "duration": 0.2169,
      "velocity": 103,
      "chip": "ym2612"
    },
    {
      "channel": 4,
      "note": 55,
      "start": 11.2334,
      "duration": 0.1492,
      "velocity": 117,
      "chip": "ym2612"
    },
    {
      "channel": 5,
      "note": 55,
      "start": 11.2342,
      "duration": 0.2168,
      "velocity": 127,
      "chip": "ym2612"
    },
    {
      "channel": 4,
      "note": 55,
      "start": 11.3829,
      "duration": 0.0675,
      "velocity": 117,
      "chip": "ym2612"
    },
    {
      "channel": 1,
      "note": 62,
      "start": 11.4497,
      "duration": 0.4831,
      "velocity": 103,
      "chip": "ym2612"
    },
    {
      "channel": 4,
      "note": 55,
      "start": 11.4506,
      "duration": 0.3158,
      "velocity": 117,
      "chip": "ym2612"
    },
    {
      "channel": 5,
      "note": 91,
      "start": 11.4513,
      "duration": 0.3158,
      "velocity": 127,
      "chip": "ym2612"
    },
    {
      "channel": 4,
      "note": 50,
      "start": 11.7666,
      "duration": 0.5245,
      "velocity": 117,
      "chip": "ym2612"
    },
    {
      "channel": 5,
      "note": 67,
      "start": 11.7673,
      "duration": 0.2096,
      "velocity": 127,
      "chip": "ym2612"
    },
    {
      "channel": 1,
      "note": 60,
      "start": 11.933,
      "duration": 0.0417,
      "velocity": 103,
      "chip": "ym2612"
    },
    {
      "channel": 0,
      "note": 55,
      "start": 11.9743,
      "duration": 2.4669,
      "velocity": 112,
      "chip": "ym2612"
    },
    {
      "channel": 1,
      "note": 60,
      "start": 11.975,
      "duration": 1.9177,
      "velocity": 103,
      "chip": "ym2612"
    },
    {
      "channel": 2,
      "note": 84,
      "start": 11.9757,
      "duration": 2.4669,
      "velocity": 102,
      "chip": "ym2612"
    },
    {
      "channel": 3,
      "note": 79,
      "start": 11.9764,
      "duration": 2.4669,
      "velocity": 102,
      "chip": "ym2612"
    },
    {
      "channel": 5,
      "note": 91,
      "start": 11.9772,
      "duration": 0.3145,
      "velocity": 127,
      "chip": "ym2612"
    },
    {
      "channel": 4,
      "note": 55,
      "start": 12.2912,
      "duration": 0.1665,
      "velocity": 117,
      "chip": "ym2612"
    },
    {
      "channel": 5,
      "note": 55,
      "start": 12.292,
      "duration": 0.3331,
      "velocity": 127,
      "chip": "ym2612"
    },
    {
      "channel": 4,
      "note": 55,
      "start": 12.4579,
      "duration": 0.1665,
      "velocity": 117,
      "chip": "ym2612"
    },
    {
      "channel": 4,
      "note": 55,
      "start": 12.6245,
      "duration": 0.3165,
      "velocity": 117,
      "chip": "ym2612"
    },
    {
      "channel": 5,
      "note": 91,
      "start": 12.6253,
      "duration": 0.3164,
      "velocity": 127,
      "chip": "ym2612"
    },
    {
      "channel": 4,
      "note": 55,
      "start": 12.9412,
      "duration": 0.1518,
      "velocity": 117,
      "chip": "ym2612"
    },
    {
      "channel": 5,
      "note": 67,
      "start": 12.942,
      "duration": 0.3158,
      "velocity": 127,
      "chip": "ym2612"
    },
    {
      "channel": 4,
      "note": 55,
      "start": 13.0932,
      "duration": 0.3311,
      "velocity": 117,
      "chip": "ym2612"
    },
    {
      "channel": 5,
      "note": 91,
      "start": 13.258,
      "duration": 0.317,
      "velocity": 127,
      "chip": "ym2612"
    },
    {
      "channel": 4,
      "note": 55,
      "start": 13.4245,
      "duration": 0.1498,
      "velocity": 117,
      "chip": "ym2612"
    },
    {
      "channel": 4,
      "note": 55,
      "start": 13.5745,
      "duration": 0.1665,
      "velocity": 117,
      "chip": "ym2612"
    },
    {
      "channel": 5,
      "note": 55,
      "start": 13.5753,
      "duration": 0.319,
      "velocity": 127,
      "chip": "ym2612"
    },
    {
      "channel": 4,
      "note": 55,
      "start": 13.7412,
      "duration": 0.1524,
      "velocity": 117,
      "chip": "ym2612"
    },
    {
      "channel": 1,
      "note": 57,
      "start": 13.893,
      "duration": 0.3311,
      "velocity": 103,
      "chip": "ym2612"
    },
    {
      "channel": 4,
      "note": 55,
      "start": 13.8938,
      "duration": 0.3312,
      "velocity": 117,
      "chip": "ym2612"
    },
    {
      "channel": 5,
      "note": 91,
      "start": 13.8946,
      "duration": 0.3311,
      "velocity": 127,
      "chip": "ym2612"
    },
    {
      "channel": 1,
      "note": 59,
      "start": 14.2243,
      "duration": 0.2176,
      "velocity": 103,
      "chip": "ym2612"
    },
    {
      "channel": 4,
      "note": 50,
      "start": 14.2252,
      "duration": 0.5336,
      "velocity": 117,
      "chip": "ym2612"
    },
    {
      "channel": 5,
      "note": 67,
      "start": 14.2259,
      "duration": 0.2182,
      "velocity": 127,
      "chip": "ym2612"
    },
    {
      "channel": 0,
      "note": 54,
      "start": 14.4414,
      "duration": 2.3415,
      "velocity": 112,
      "chip": "ym2612"
    },
    {
      "channel": 1,
      "note": 60,
      "start": 14.4421,
      "duration": 0.3158,
      "velocity": 103,
      "chip": "ym2612"
    },
    {
      "channel": 2,
      "note": 78,
      "start": 14.4428,
      "duration": 2.341,
      "velocity": 102,
      "chip": "ym2612"
    },
    {
      "channel": 3,
      "note": 81,
      "start": 14.4435,
      "duration": 2.3409,
      "velocity": 102,
      "chip": "ym2612"
    },
    {
      "channel": 5,
      "note": 91,
      "start": 14.4443,
      "duration": 0.3151,
      "velocity": 127,
      "chip": "ym2612"
    },
    {
      "channel": 1,
      "note": 60,
      "start": 14.7581,
      "duration": 0.6331,
      "velocity": 103,
      "chip": "ym2612"
    },
    {
      "channel": 4,
      "note": 55,
      "start": 14.759,
      "duration": 0.1658,
      "velocity": 117,
      "chip": "ym2612"
    },
    {
      "channel": 5,
      "note": 55,
      "start": 14.7597,
      "duration": 0.3158,
      "velocity": 127,
      "chip": "ym2612"
    },
    {
      "channel": 4,
      "note": 55,
      "start": 14.925,
      "duration": 0.1498,
      "velocity": 117,
      "chip": "ym2612"
    },
    {
      "channel": 4,
      "note": 55,
      "start": 15.075,
      "duration": 0.3171,
      "velocity": 117,
      "chip": "ym2612"
    },
    {
      "channel": 5,
      "note": 91,
      "start": 15.0757,
      "duration": 0.3171,
      "velocity": 127,
      "chip": "ym2612"
    },
    {
      "channel": 1,
      "note": 60,
      "start": 15.3915,
      "duration": 0.6497,
      "velocity": 103,
      "chip": "ym2612"
    },
    {
      "channel": 4,
      "note": 55,
      "start": 15.3923,
      "duration": 0.1658,
      "velocity": 117,
      "chip": "ym2612"
    },
    {
      "channel": 5,
      "note": 67,
      "start": 15.393,
      "duration": 0.3318,
      "velocity": 127,
      "chip": "ym2612"
    },
    {
      "channel": 4,
      "note": 55,
      "start": 15.5584,
      "duration": 0.3164,
      "velocity": 117,
      "chip": "ym2612"
    },
    {
      "channel": 5,
      "note": 91,
      "start": 15.7251,
      "duration": 0.3177,
      "velocity": 127,
      "chip": "ym2612"
    },
    {
      "channel": 4,
      "note": 55,
      "start": 15.875,
      "duration": 0.1671,
      "velocity": 117,
      "chip": "ym2612"
    },
    {
      "channel": 1,
      "note": 64,
      "start": 16.0415,
      "duration": 0.5335,
      "velocity": 103,
      "chip": "ym2612"
    },
    {
      "channel": 4,
      "note": 55,
      "start": 16.0423,
      "duration": 0.1491,
      "velocity": 117,
      "chip": "ym2612"
    },
    {
      "channel": 5,
      "note": 55,
      "start": 16.043,
      "duration": 0.2162,
      "velocity": 127,
      "chip": "ym2612"
    },
    {
      "channel": 4,
      "note": 55,
      "start": 16.1917,
      "duration": 0.0668,
      "velocity": 117,
      "chip": "ym2612"
    },
    {
      "channel": 4,
      "note": 55,
      "start": 16.2587,
      "duration": 0.3171,
      "velocity": 117,
      "chip": "ym2612"
    },
    {
      "channel": 5,
      "note": 91,
      "start": 16.2595,
      "duration": 0.3171,
      "velocity": 127,
      "chip": "ym2612"
    },
    {
      "channel": 1,
      "note": 62,
      "start": 16.5752,
      "duration": 0.1664,
      "velocity": 103,
      "chip": "ym2612"
    },
    {
      "channel": 4,
      "note": 50,
      "start": 16.5761,
      "duration": 0.5404,
      "velocity": 117,
      "chip": "ym2612"
    },
    {
      "channel": 5,
      "note": 67,
      "start": 16.5768,
      "duration": 0.2084,
      "velocity": 127,
      "chip": "ym2612"
    },
    {
      "channel": 1,
      "note": 59,
      "start": 16.7419,
      "duration": 2.293,
      "velocity": 103,
      "chip": "ym2612"
    },
    {
      "channel": 0,
      "note": 55,
      "start": 16.7831,
      "duration": 2.467,
      "velocity": 112,
      "chip": "ym2612"
    },
    {
      "channel": 2,
      "note": 83,
      "start": 16.7839,
      "duration": 2.4677,
      "velocity": 102,
      "chip": "ym2612"
    },
    {
      "channel": 3,
      "note": 79,
      "start": 16.7846,
      "duration": 2.4678,
      "velocity": 102,
      "chip": "ym2612"
    },
    {
      "channel": 5,
      "note": 91,
      "start": 16.7855,
      "duration": 0.3317,
      "velocity": 127,
      "chip": "ym2612"
    },
    {
      "channel": 4,
      "note": 55,
      "start": 17.1167,
      "duration": 0.1498,
      "velocity": 117,
      "chip": "ym2612"
    },
    {
      "channel": 5,
      "note": 55,
      "start": 17.1175,
      "duration": 0.3164,
      "velocity": 127,
      "chip": "ym2612"
    },
    {
      "channel": 4,
      "note": 55,
      "start": 17.2667,
      "duration": 0.1665,
      "velocity": 117,
      "chip": "ym2612"
    },
    {
      "channel": 4,
      "note": 55,
      "start": 17.4334,
      "duration": 0.3185,
      "velocity": 117,
      "chip": "ym2612"
    },
    {
      "channel": 5,
      "note": 91,
      "start": 17.4341,
      "duration": 0.3184,
      "velocity": 127,
      "chip": "ym2612"
    },
    {
      "channel": 4,
      "note": 55,
      "start": 17.7521,
      "duration": 0.1645,
      "velocity": 117,
      "chip": "ym2612"
    },
    {
      "channel": 5,
      "note": 67,
      "start": 17.7528,
      "duration": 0.3139,
      "velocity": 127,
      "chip": "ym2612"
    },
    {
      "channel": 4,
      "note": 55,
      "start": 17.9168,
      "duration": 0.3164,
      "velocity": 117,
      "chip": "ym2612"
    },
    {
      "channel": 5,
      "note": 91,
      "start": 18.0668,
      "duration": 0.317,
      "velocity": 127,
      "chip": "ym2612"
    },
    {
      "channel": 4,
      "note": 55,
      "start": 18.2334,
      "duration": 0.1498,
      "velocity": 117,
      "chip": "ym2612"
    },
    {
      "channel": 4,
      "note": 55,
      "start": 18.3834,
      "duration": 0.1665,
      "velocity": 117,
      "chip": "ym2612"
    },
    {
      "channel": 5,
      "note": 55,
      "start": 18.3841,
      "duration": 0.3331,
      "velocity": 127,
      "chip": "ym2612"
    },
    {
      "channel": 4,
      "note": 55,
      "start": 18.55,
      "duration": 0.1665,
      "velocity": 117,
      "chip": "ym2612"
    },
    {
      "channel": 4,
      "note": 55,
      "start": 18.7167,
      "duration": 0.3191,
      "velocity": 117,
      "chip": "ym2612"
    },
    {
      "channel": 5,
      "note": 91,
      "start": 18.7175,
      "duration": 0.319,
      "velocity": 127,
      "chip": "ym2612"
    },
    {
      "channel": 1,
      "note": 62,
      "start": 19.0351,
      "duration": 0.2158,
      "velocity": 103,
      "chip": "ym2612"
    },
    {
      "channel": 4,
      "note": 50,
      "start": 19.036,
      "duration": 0.5311,
      "velocity": 117,
      "chip": "ym2612"
    },
    {
      "channel": 5,
      "note": 67,
      "start": 19.0367,
      "duration": 0.2166,
      "velocity": 127,
      "chip": "ym2612"
    },
    {
      "channel": 0,
      "note": 52,
      "start": 19.2503,
      "duration": 1.433,
      "velocity": 112,
      "chip": "ym2612"
    },
    {
      "channel": 1,
      "note": 67,
      "start": 19.2511,
      "duration": 1.8181,
      "velocity": 103,
      "chip": "ym2612"
    },
    {
      "channel": 2,
      "note": 76,
      "start": 19.2519,
      "duration": 2.3579,
      "velocity": 102,
      "chip": "ym2612"
    },
    {
      "channel": 3,
      "note": 83,
      "start": 19.2527,
      "duration": 2.3578,
      "velocity": 102,
      "chip": "ym2612"
    },
    {
      "channel": 5,
      "note": 91,
      "start": 19.2536,
      "duration": 0.3142,
      "velocity": 127,
      "chip": "ym2612"
    },
    {
      "channel": 4,
      "note": 55,
      "start": 19.5673,
      "duration": 0.1663,
      "velocity": 117,
      "chip": "ym2612"
    },
    {
      "channel": 5,
      "note": 55,
      "start": 19.568,
      "duration": 0.3163,
      "velocity": 127,
      "chip": "ym2612"
    },
    {
      "channel": 4,
      "note": 55,
      "start": 19.7338,
      "duration": 0.1498,
      "velocity": 117,
      "chip": "ym2612"
    },
    {
      "channel": 4,
      "note": 55,
      "start": 19.8838,
      "duration": 0.3351,
      "velocity": 117,
      "chip": "ym2612"
    },
    {
      "channel": 5,
      "note": 79,
      "start": 19.8846,
      "duration": 0.335,
      "velocity": 127,
      "chip": "ym2612"
    },
    {
      "channel": 4,
      "note": 55,
      "start": 20.2192,
      "duration": 0.1478,
      "velocity": 117,
      "chip": "ym2612"
    },
    {
      "channel": 5,
      "note": 67,
      "start": 20.2199,
      "duration": 0.3138,
      "velocity": 127,
      "chip": "ym2612"
    },
    {
      "channel": 4,
      "note": 55,
      "start": 20.3672,
      "duration": 0.3171,
      "velocity": 117,
      "chip": "ym2612"
    },
    {
      "channel": 5,
      "note": 91,
      "start": 20.5339,
      "duration": 0.3171,
      "velocity": 127,
      "chip": "ym2612"
    },
    {
      "channel": 0,
      "note": 59,
      "start": 20.6835,
      "duration": 0.3332,
      "velocity": 112,
      "chip": "ym2612"
    },
    {
      "channel": 4,
      "note": 55,
      "start": 20.6845,
      "duration": 0.1658,
      "velocity": 117,
      "chip": "ym2612"
    },
    {
      "channel": 4,
      "note": 55,
      "start": 20.8505,
      "duration": 0.1671,
      "velocity": 117,
      "chip": "ym2612"
    },
    {
      "channel": 5,
      "note": 55,
      "start": 20.8512,
      "duration": 0.2195,
      "velocity": 127,
      "chip": "ym2612"
    },
    {
      "channel": 0,
      "note": 64,
      "start": 21.0168,
      "duration": 0.2169,
      "velocity": 112,
      "chip": "ym2612"
    },
    {
      "channel": 4,
      "note": 55,
      "start": 21.0178,
      "duration": 0.0522,
      "velocity": 117,
      "chip": "ym2612"
    },
    {
      "channel": 1,
      "note": 64,
      "start": 21.0694,
      "duration": 0.3151,
      "velocity": 103,
      "chip": "ym2612"
    },
    {
      "channel": 4,
      "note": 55,
      "start": 21.0702,
      "duration": 0.3151,
      "velocity": 117,
      "chip": "ym2612"
    },
    {
      "channel": 5,
      "note": 91,
      "start": 21.071,
      "duration": 0.3151,
      "velocity": 127,
      "chip": "ym2612"
    },
    {
      "channel": 0,
      "note": 64,
      "start": 21.234,
      "duration": 0.1498,
      "velocity": 112,
      "chip": "ym2612"
    },
    {
      "channel": 0,
      "note": 59,
      "start": 21.384,
      "duration": 0.1665,
      "velocity": 112,
      "chip": "ym2612"
    },
    {
      "channel": 1,
      "note": 66,
      "start": 21.3847,
      "duration": 0.2244,
      "velocity": 103,
      "chip": "ym2612"
    },
    {
      "channel": 4,
      "note": 50,
      "start": 21.3856,
      "duration": 0.5404,
      "velocity": 117,
      "chip": "ym2612"
    },
    {
      "channel": 5,
      "note": 67,
      "start": 21.3863,
      "duration": 0.225,
      "velocity": 127,
      "chip": "ym2612"
    },
    {
      "channel": 0,
      "note": 52,
      "start": 21.5507,
      "duration": 0.0577,
      "velocity": 112,
      "chip": "ym2612"
    },
    {
      "channel": 0,
      "note": 57,
      "start": 21.6086,
      "duration": 2.4502,
      "velocity": 112,
      "chip": "ym2612"
    },
    {
      "channel": 1,
      "note": 67,
      "start": 21.6093,
      "duration": 0.3158,
      "velocity": 103,
      "chip": "ym2612"
    },
    {
      "channel": 2,
      "note": 84,
      "start": 21.61,
      "duration": 2.4502,
      "velocity": 102,
      "chip": "ym2612"
    },
    {
      "channel": 3,
      "note": 81,
      "start": 21.6107,
      "duration": 2.4502,
      "velocity": 102,
      "chip": "ym2612"
    },
    {
      "channel": 5,
      "note": 91,
      "start": 21.6115,
      "duration": 0.3151,
      "velocity": 127,
      "chip": "ym2612"
    },
    {
      "channel": 1,
      "note": 69,
      "start": 21.9253,
      "duration": 1.6017,
      "velocity": 103,
      "chip": "ym2612"
    },
    {
      "channel": 4,
      "note": 55,
      "start": 21.9262,
      "duration": 0.1491,
      "velocity": 117,
      "chip": "ym2612"
    },
    {
      "channel": 5,
      "note": 55,
      "start": 21.9269,
      "duration": 0.3158,
      "velocity": 127,
      "chip": "ym2612"
    },
    {
      "channel": 4,
      "note": 55,
      "start": 22.0756,
      "duration": 0.1664,
      "velocity": 117,
      "chip": "ym2612"
    },
    {
      "channel": 4,
      "note": 55,
      "start": 22.2422,
      "duration": 0.3165,
      "velocity": 117,
      "chip": "ym2612"
    },
    {
      "channel": 5,
      "note": 91,
      "start": 22.2429,
      "duration": 0.3164,
      "velocity": 127,
      "chip": "ym2612"
    },
    {
      "channel": 4,
      "note": 55,
      "start": 22.5588,
      "duration": 0.1665,
      "velocity": 117,
      "chip": "ym2612"
    },
    {
      "channel": 5,
      "note": 67,
      "start": 22.5596,
      "duration": 0.3158,
      "velocity": 127,
      "chip": "ym2612"
    },
    {
      "channel": 4,
      "note": 55,
      "start": 22.7255,
      "duration": 0.3185,
      "velocity": 117,
      "chip": "ym2612"
    },
    {
      "channel": 5,
      "note": 91,
      "start": 22.8756,
      "duration": 0.3338,
      "velocity": 127,
      "chip": "ym2612"
    },
    {
      "channel": 4,
      "note": 55,
      "start": 23.0442,
      "duration": 0.1645,
      "velocity": 117,
      "chip": "ym2612"
    },
    {
      "channel": 4,
      "note": 55,
      "start": 23.2089,
      "duration": 0.1498,
      "velocity": 117,
      "chip": "ym2612"
    },
    {
      "channel": 5,
      "note": 55,
      "start": 23.2096,
      "duration": 0.319,
      "velocity": 127,
      "chip": "ym2612"
    },
    {
      "channel": 4,
      "note": 55,
      "start": 23.3588,
      "duration": 0.1691,
      "velocity": 117,
      "chip": "ym2612"
    },
    {
      "channel": 1,
      "note": 65,
      "start": 23.5273,
      "duration": 0.3144,
      "velocity": 103,
      "chip": "ym2612"
    },
    {
      "channel": 4,
      "note": 55,
      "start": 23.5281,
      "duration": 0.3145,
      "velocity": 117,
      "chip": "ym2612"
    },
    {
      "channel": 5,
      "note": 91,
      "start": 23.5289,
      "duration": 0.3144,
      "velocity": 127,
      "chip": "ym2612"
    },
    {
      "channel": 1,
      "note": 67,
      "start": 23.842,
      "duration": 0.2175,
      "velocity": 103,
      "chip": "ym2612"
    },
    {
      "channel": 4,
      "note": 50,
      "start": 23.8429,
      "duration": 0.5329,
      "velocity": 117,
      "chip": "ym2612"
    },
    {
      "channel": 5,
      "note": 67,
      "start": 23.8436,
      "duration": 0.2182,
      "velocity": 127,
      "chip": "ym2612"
    },
    {
      "channel": 0,
      "note": 53,
      "start": 24.059,
      "duration": 2.3581,
      "velocity": 112,
      "chip": "ym2612"
    },
    {
      "channel": 1,
      "note": 69,
      "start": 24.0597,
      "duration": 0.9658,
      "velocity": 103,
      "chip": "ym2612"
    },
    {
      "channel": 2,
      "note": 84,
      "start": 24.0604,
      "duration": 2.3581,
      "velocity": 102,
      "chip": "ym2612"
    },
    {
      "channel": 3,
      "note": 77,
      "start": 24.0612,
      "duration": 2.3581,
      "velocity": 102,
      "chip": "ym2612"
    },
    {
      "channel": 5,
      "note": 91,
      "start": 24.062,
      "duration": 0.3145,
      "velocity": 127,
      "chip": "ym2612"
    },
    {
      "channel": 4,
      "note": 55,
      "start": 24.3759,
      "duration": 0.1665,
      "velocity": 117,
      "chip": "ym2612"
    },
    {
      "channel": 5,
      "note": 55,
      "start": 24.3767,
      "duration": 0.3331,
      "velocity": 127,
      "chip": "ym2612"
    },
    {
      "channel": 4,
      "note": 55,
      "start": 24.5426,
      "duration": 0.1665,
      "velocity": 117,
      "chip": "ym2612"
    },
    {
      "channel": 4,
      "note": 55,
      "start": 24.7093,
      "duration": 0.3171,
      "velocity": 117,
      "chip": "ym2612"
    },
    {
      "channel": 5,
      "note": 91,
      "start": 24.71,
      "duration": 0.3171,
      "velocity": 127,
      "chip": "ym2612"
    },
    {
      "channel": 1,
      "note": 71,
      "start": 25.0258,
      "duration": 0.3164,
      "velocity": 103,
      "chip": "ym2612"
    },
    {
      "channel": 4,
      "note": 55,
      "start": 25.0266,
      "duration": 0.1491,
      "velocity": 117,
      "chip": "ym2612"
    },
    {
      "channel": 5,
      "note": 67,
      "start": 25.0273,
      "duration": 0.3158,
      "velocity": 127,
      "chip": "ym2612"
    },
    {
      "channel": 4,
      "note": 55,
      "start": 25.176,
      "duration": 0.3331,
      "velocity": 117,
      "chip": "ym2612"
    },
    {
      "channel": 1,
      "note": 72,
      "start": 25.3424,
      "duration": 0.4831,
      "velocity": 103,
      "chip": "ym2612"
    },
    {
      "channel": 5,
      "note": 91,
      "start": 25.3434,
      "duration": 0.3164,
      "velocity": 127,
      "chip": "ym2612"
    },
    {
      "channel": 4,
      "note": 55,
      "start": 25.5093,
      "duration": 0.1498,
      "velocity": 117,
      "chip": "ym2612"
    },
    {
      "channel": 4,
      "note": 55,
      "start": 25.6593,
      "duration": 0.1671,
      "velocity": 117,
      "chip": "ym2612"
    },
    {
      "channel": 5,
      "note": 55,
      "start": 25.66,
      "duration": 0.2169,
      "velocity": 127,
      "chip": "ym2612"
    },
    {
      "channel": 1,
      "note": 71,
      "start": 25.8258,
      "duration": 0.3835,
      "velocity": 103,
      "chip": "ym2612"
    },
    {
      "channel": 4,
      "note": 55,
      "start": 25.8266,
      "duration": 0.0496,
      "velocity": 117,
      "chip": "ym2612"
    },
    {
      "channel": 4,
      "note": 55,
      "start": 25.8764,
      "duration": 0.3337,
      "velocity": 117,
      "chip": "ym2612"
    },
    {
      "channel": 5,
      "note": 91,
      "start": 25.8771,
      "duration": 0.3337,
      "velocity": 127,
      "chip": "ym2612"
    },
    {
      "channel": 1,
      "note": 69,
      "start": 26.2094,
      "duration": 0.2084,
      "velocity": 103,
      "chip": "ym2612"
    },
    {
      "channel": 4,
      "note": 50,
      "start": 26.2103,
      "duration": 0.5238,
      "velocity": 117,
      "chip": "ym2612"
    },
    {
      "channel": 5,
      "note": 67,
      "start": 26.2111,
      "duration": 0.209,
      "velocity": 127,
      "chip": "ym2612"
    },
    {
      "channel": 0,
      "note": 50,
      "start": 26.4174,
      "duration": 2.2331,
      "velocity": 112,
      "chip": "ym2612"
    },
    {
      "channel": 1,
      "note": 69,
      "start": 26.4181,
      "duration": 2.235,
      "velocity": 103,
      "chip": "ym2612"
    },
    {
      "channel": 2,
      "note": 81,
      "start": 26.4188,
      "duration": 2.4504,
      "velocity": 102,
      "chip": "ym2612"
    },
    {
      "channel": 3,
      "note": 78,
      "start": 26.4195,
      "duration": 2.4505,
      "velocity": 102,
      "chip": "ym2612"
    },
    {
      "channel": 5,
      "note": 91,
      "start": 26.4203,
      "duration": 0.3145,
      "velocity": 127,
      "chip": "ym2612"
    },
    {
      "channel": 4,
      "note": 55,
      "start": 26.7343,
      "duration": 0.1665,
      "velocity": 117,
      "chip": "ym2612"
    },
    {
      "channel": 5,
      "note": 55,
      "start": 26.7351,
      "duration": 0.3164,
      "velocity": 127,
      "chip": "ym2612"
    },
    {
      "channel": 4,
      "note": 55,
      "start": 26.901,
      "duration": 0.1498,
      "velocity": 117,
      "chip": "ym2612"
    },
    {
      "channel": 4,
      "note": 55,
      "start": 27.051,
      "duration": 0.3165,
      "velocity": 117,
      "chip": "ym2612"
    },
    {
      "channel": 5,
      "note": 91,
      "start": 27.0517,
      "duration": 0.3164,
      "velocity": 127,
      "chip": "ym2612"
    },
    {
      "channel": 4,
      "note": 55,
      "start": 27.3676,
      "duration": 0.1685,
      "velocity": 117,
      "chip": "ym2612"
    },
    {
      "channel": 5,
      "note": 67,
      "start": 27.3684,
      "duration": 0.3325,
      "velocity": 127,
      "chip": "ym2612"
    },
    {
      "channel": 4,
      "note": 55,
      "start": 27.5363,
      "duration": 0.3144,
      "velocity": 117,
      "chip": "ym2612"
    },
    {
      "channel": 5,
      "note": 91,
      "start": 27.7011,
      "duration": 0.317,
      "velocity": 127,
      "chip": "ym2612"
    },
    {
      "channel": 4,
      "note": 55,
      "start": 27.851,
      "duration": 0.1665,
      "velocity": 117,
      "chip": "ym2612"
    },
    {
      "channel": 4,
      "note": 55,
      "start": 28.0176,
      "duration": 0.1498,
      "velocity": 117,
      "chip": "ym2612"
    },
    {
      "channel": 5,
      "note": 55,
      "start": 28.0184,
      "duration": 0.3164,
      "velocity": 127,
      "chip": "ym2612"
    },
    {
      "channel": 4,
      "note": 55,
      "start": 28.1676,
      "duration": 0.1665,
      "velocity": 117,
      "chip": "ym2612"
    },
    {
      "channel": 4,
      "note": 55,
      "start": 28.3343,
      "duration": 0.3197,
      "velocity": 117,
      "chip": "ym2612"
    },
    {
      "channel": 5,
      "note": 91,
      "start": 28.3351,
      "duration": 0.3197,
      "velocity": 127,
      "chip": "ym2612"
    },
    {
      "channel": 0,
      "note": 50,
      "start": 28.6507,
      "duration": 0.217,
      "velocity": 112,
      "chip": "ym2612"
    },
    {
      "channel": 1,
      "note": 71,
      "start": 28.6534,
      "duration": 0.2151,
      "velocity": 103,
      "chip": "ym2612"
    },
    {
      "channel": 4,
      "note": 50,
      "start": 28.6542,
      "duration": 0.5476,
      "velocity": 117,
      "chip": "ym2612"
    },
    {
      "channel": 5,
      "note": 67,
      "start": 28.655,
      "duration": 0.2159,
      "velocity": 127,
      "chip": "ym2612"
    },
    {
      "channel": 0,
      "note": 55,
      "start": 28.8679,
      "duration": 2.358,
      "velocity": 112,
      "chip": "ym2612"
    },
    {
      "channel": 1,
      "note": 74,
      "start": 28.8686,
      "duration": 0.3322,
      "velocity": 103,
      "chip": "ym2612"
    },
    {
      "channel": 2,
      "note": 79,
      "start": 28.8694,
      "duration": 2.3579,
      "velocity": 102,
      "chip": "ym2612"
    },
    {
      "channel": 3,
      "note": 83,
      "start": 28.8702,
      "duration": 2.3578,
      "velocity": 102,
      "chip": "ym2612"
    },
    {
      "channel": 5,
      "note": 91,
      "start": 28.8711,
      "duration": 0.3314,
      "velocity": 127,
      "chip": "ym2612"
    },
    {
      "channel": 1,
      "note": 74,
      "start": 29.2011,
      "duration": 0.6331,
      "velocity": 103,
      "chip": "ym2612"
    },
    {
      "channel": 4,
      "note": 55,
      "start": 29.202,
      "duration": 0.1491,
      "velocity": 117,
      "chip": "ym2612"
    },
    {
      "channel": 5,
      "note": 55,
      "start": 29.2028,
      "duration": 0.3157,
      "velocity": 127,
      "chip": "ym2612"
    },
    {
      "channel": 4,
      "note": 55,
      "start": 29.3514,
      "duration": 0.1664,
      "velocity": 117,
      "chip": "ym2612"
    },
    {
      "channel": 4,
      "note": 55,
      "start": 29.518,
      "duration": 0.3171,
      "velocity": 117,
      "chip": "ym2612"
    },
    {
      "channel": 5,
      "note": 79,
      "start": 29.5188,
      "duration": 0.3171,
      "velocity": 127,
      "chip": "ym2612"
    },
    {
      "channel": 1,
      "note": 74,
      "start": 29.8345,
      "duration": 0.6331,
      "velocity": 103,
      "chip": "ym2612"
    },
    {
      "channel": 4,
      "note": 55,
      "start": 29.8354,
      "duration": 0.1658,
      "velocity": 117,
      "chip": "ym2612"
    },
    {
      "channel": 5,
      "note": 67,
      "start": 29.8361,
      "duration": 0.3151,
      "velocity": 127,
      "chip": "ym2612"
    },
    {
      "channel": 4,
      "note": 55,
      "start": 30.0014,
      "duration": 0.3164,
      "velocity": 117,
      "chip": "ym2612"
    },
    {
      "channel": 5,
      "note": 91,
      "start": 30.1515,
      "duration": 0.3177,
      "velocity": 127,
      "chip": "ym2612"
    },
    {
      "channel": 4,
      "note": 55,
      "start": 30.318,
      "duration": 0.1505,
      "velocity": 117,
      "chip": "ym2612"
    },
    {
      "channel": 1,
      "note": 76,
      "start": 30.4678,
      "duration": 0.2335,
      "velocity": 103,
      "chip": "ym2612"
    },
    {
      "channel": 4,
      "note": 55,
      "start": 30.4687,
      "duration": 0.1658,
      "velocity": 117,
      "chip": "ym2612"
    },
    {
      "channel": 5,
      "note": 55,
      "start": 30.4694,
      "duration": 0.2335,
      "velocity": 127,
      "chip": "ym2612"
    },
    {
      "channel": 4,
      "note": 55,
      "start": 30.6347,
      "duration": 0.0675,
      "velocity": 117,
      "chip": "ym2612"
    },
    {
      "channel": 1,
      "note": 74,
      "start": 30.7015,
      "duration": 0.4665,
      "velocity": 103,
      "chip": "ym2612"
    },
    {
      "channel": 4,
      "note": 55,
      "start": 30.7024,
      "duration": 0.3159,
      "velocity": 117,
      "chip": "ym2612"
    },
    {
      "channel": 5,
      "note": 91,
      "start": 30.7032,
      "duration": 0.3158,
      "velocity": 127,
      "chip": "ym2612"
    },
    {
      "channel": 4,
      "note": 50,
      "start": 31.0184,
      "duration": 0.5244,
      "velocity": 117,
      "chip": "ym2612"
    },
    {
      "channel": 5,
      "note": 67,
      "start": 31.0192,
      "duration": 0.2096,
      "velocity": 127,
      "chip": "ym2612"
    },
    {
      "channel": 1,
      "note": 72,
      "start": 31.1682,
      "duration": 0.0583,
      "velocity": 103,
      "chip": "ym2612"
    },
    {
      "channel": 0,
      "note": 55,
      "start": 31.2261,
      "duration": 2.4669,
      "velocity": 112,
      "chip": "ym2612"
    },
    {
      "channel": 1,
      "note": 72,
      "start": 31.2268,
      "duration": 2.2344,
      "velocity": 103,
      "chip": "ym2612"
    },
    {
      "channel": 2,
      "note": 84,
      "start": 31.2275,
      "duration": 2.4669,
      "velocity": 102,
      "chip": "ym2612"
    },
    {
      "channel": 3,
      "note": 79,
      "start": 31.2282,
      "duration": 2.4668,
      "velocity": 102,
      "chip": "ym2612"
    },
    {
      "channel": 5,
      "note": 91,
      "start": 31.229,
      "duration": 0.3145,
      "velocity": 127,
      "chip": "ym2612"
    },
    {
      "channel": 4,
      "note": 55,
      "start": 31.543,
      "duration": 0.1665,
      "velocity": 117,
      "chip": "ym2612"
    },
    {
      "channel": 5,
      "note": 55,
      "start": 31.5438,
      "duration": 0.3164,
      "velocity": 127,
      "chip": "ym2612"
    },
    {
      "channel": 4,
      "note": 55,
      "start": 31.7097,
      "duration": 0.1498,
      "velocity": 117,
      "chip": "ym2612"
    },
    {
      "channel": 4,
      "note": 55,
      "start": 31.8597,
      "duration": 0.3332,
      "velocity": 117,
      "chip": "ym2612"
    },
    {
      "channel": 5,
      "note": 91,
      "start": 31.8604,
      "duration": 0.3331,
      "velocity": 127,
      "chip": "ym2612"
    },
    {
      "channel": 4,
      "note": 55,
      "start": 32.193,
      "duration": 0.1518,
      "velocity": 117,
      "chip": "ym2612"
    },
    {
      "channel": 5,
      "note": 67,
      "start": 32.1938,
      "duration": 0.3158,
      "velocity": 127,
      "chip": "ym2612"
    },
    {
      "channel": 4,
      "note": 55,
      "start": 32.345,
      "duration": 0.3144,
      "velocity": 117,
      "chip": "ym2612"
    },
    {
      "channel": 5,
      "note": 91,
      "start": 32.5098,
      "duration": 0.317,
      "velocity": 127,
      "chip": "ym2612"
    },
    {
      "channel": 4,
      "note": 55,
      "start": 32.6597,
      "duration": 0.1665,
      "velocity": 117,
      "chip": "ym2612"
    },
    {
      "channel": 4,
      "note": 55,
      "start": 32.8263,
      "duration": 0.1665,
      "velocity": 117,
      "chip": "ym2612"
    },
    {
      "channel": 5,
      "note": 55,
      "start": 32.8271,
      "duration": 0.3164,
      "velocity": 127,
      "chip": "ym2612"
    },
    {
      "channel": 4,
      "note": 55,
      "start": 32.993,
      "duration": 0.1498,
      "velocity": 117,
      "chip": "ym2612"
    },
    {
      "channel": 4,
      "note": 55,
      "start": 33.143,
      "duration": 0.3191,
      "velocity": 117,
      "chip": "ym2612"
    },
    {
      "channel": 5,
      "note": 91,
      "start": 33.1438,
      "duration": 0.319,
      "velocity": 127,
      "chip": "ym2612"
    },
    {
      "channel": 1,
      "note": 69,
      "start": 33.4615,
      "duration": 0.1644,
      "velocity": 103,
      "chip": "ym2612"
    },
    {
      "channel": 4,
      "note": 50,
      "start": 33.4623,
      "duration": 0.5476,
      "velocity": 117,
      "chip": "ym2612"
    },
    {
      "channel": 5,
      "note": 67,
      "start": 33.463,
      "duration": 0.2328,
      "velocity": 127,
      "chip": "ym2612"
    },
    {
      "channel": 1,
      "note": 71,
      "start": 33.6261,
      "duration": 0.0675,
      "velocity": 103,
      "chip": "ym2612"
    },
    {
      "channel": 0,
      "note": 54,
      "start": 33.6932,
      "duration": 2.3415,
      "velocity": 112,
      "chip": "ym2612"
    },
    {
      "channel": 1,
      "note": 72,
      "start": 33.6939,
      "duration": 0.9491,
      "velocity": 103,
      "chip": "ym2612"
    },
    {
      "channel": 2,
      "note": 78,
      "start": 33.6946,
      "duration": 2.3415,
      "velocity": 102,
      "chip": "ym2612"
    },
    {
      "channel": 3,
      "note": 81,
      "start": 33.6952,
      "duration": 2.3415,
      "velocity": 102,
      "chip": "ym2612"
    },
    {
      "channel": 5,
      "note": 91,
      "start": 33.6961,
      "duration": 0.3145,
      "velocity": 127,
      "chip": "ym2612"
    },
    {
      "channel": 4,
      "note": 55,
      "start": 34.0101,
      "duration": 0.1498,
      "velocity": 117,
      "chip": "ym2612"
    },
    {
      "channel": 5,
      "note": 55,
      "start": 34.0108,
      "duration": 0.3164,
      "velocity": 127,
      "chip": "ym2612"
    },
    {
      "channel": 4,
      "note": 55,
      "start": 34.1601,
      "duration": 0.1665,
      "velocity": 117,
      "chip": "ym2612"
    },
    {
      "channel": 4,
      "note": 55,
      "start": 34.3267,
      "duration": 0.3171,
      "velocity": 117,
      "chip": "ym2612"
    },
    {
      "channel": 5,
      "note": 91,
      "start": 34.3275,
      "duration": 0.3171,
      "velocity": 127,
      "chip": "ym2612"
    },
    {
      "channel": 1,
      "note": 72,
      "start": 34.6432,
      "duration": 0.6497,
      "velocity": 103,
      "chip": "ym2612"
    },
    {
      "channel": 4,
      "note": 55,
      "start": 34.6441,
      "duration": 0.1658,
      "velocity": 117,
      "chip": "ym2612"
    },
    {
      "channel": 5,
      "note": 67,
      "start": 34.6448,
      "duration": 0.3152,
      "velocity": 127,
      "chip": "ym2612"
    },
    {
      "channel": 4,
      "note": 55,
      "start": 34.8101,
      "duration": 0.3164,
      "velocity": 117,
      "chip": "ym2612"
    },
    {
      "channel": 5,
      "note": 91,
      "start": 34.9602,
      "duration": 0.3344,
      "velocity": 127,
      "chip": "ym2612"
    },
    {
      "channel": 4,
      "note": 55,
      "start": 35.1267,
      "duration": 0.1671,
      "velocity": 117,
      "chip": "ym2612"
    },
    {
      "channel": 1,
      "note": 76,
      "start": 35.2932,
      "duration": 0.5335,
      "velocity": 103,
      "chip": "ym2612"
    },
    {
      "channel": 4,
      "note": 55,
      "start": 35.294,
      "duration": 0.1492,
      "velocity": 117,
      "chip": "ym2612"
    },
    {
      "channel": 5,
      "note": 55,
      "start": 35.2948,
      "duration": 0.2162,
      "velocity": 127,
      "chip": "ym2612"
    },
    {
      "channel": 4,
      "note": 55,
      "start": 35.4435,
      "duration": 0.0668,
      "velocity": 117,
      "chip": "ym2612"
    },
    {
      "channel": 4,
      "note": 55,
      "start": 35.5105,
      "duration": 0.3171,
      "velocity": 117,
      "chip": "ym2612"
    },
    {
      "channel": 5,
      "note": 91,
      "start": 35.5112,
      "duration": 0.3171,
      "velocity": 127,
      "chip": "ym2612"
    },
    {
      "channel": 1,
      "note": 74,
      "start": 35.827,
      "duration": 0.2084,
      "velocity": 103,
      "chip": "ym2612"
    },
    {
      "channel": 4,
      "note": 50,
      "start": 35.8278,
      "duration": 0.5237,
      "velocity": 117,
      "chip": "ym2612"
    },
    {
      "channel": 5,
      "note": 67,
      "start": 35.8285,
      "duration": 0.209,
      "velocity": 127,
      "chip": "ym2612"
    },
    {
      "channel": 0,
      "note": 55,
      "start": 36.0348,
      "duration": 2.467,
      "velocity": 112,
      "chip": "ym2612"
    },
    {
      "channel": 1,
      "note": 71,
      "start": 36.0355,
      "duration": 2.2511,
      "velocity": 103,
      "chip": "ym2612"
    },
    {
      "channel": 2,
      "note": 83,
      "start": 36.0362,
      "duration": 2.4671,
      "velocity": 102,
      "chip": "ym2612"
    },
    {
      "channel": 3,
      "note": 79,
      "start": 36.037,
      "duration": 2.4672,
      "velocity": 102,
      "chip": "ym2612"
    },
    {
      "channel": 5,
      "note": 91,
      "start": 36.0378,
      "duration": 0.3145,
      "velocity": 127,
      "chip": "ym2612"
    },
    {
      "channel": 4,
      "note": 55,
      "start": 36.3517,
      "duration": 0.1665,
      "velocity": 117,
      "chip": "ym2612"
    },
    {
      "channel": 5,
      "note": 55,
      "start": 36.3525,
      "duration": 0.3331,
      "velocity": 127,
      "chip": "ym2612"
    },
    {
      "channel": 4,
      "note": 55,
      "start": 36.5184,
      "duration": 0.1665,
      "velocity": 117,
      "chip": "ym2612"
    },
    {
      "channel": 4,
      "note": 55,
      "start": 36.6851,
      "duration": 0.3165,
      "velocity": 117,
      "chip": "ym2612"
    },
    {
      "channel": 5,
      "note": 91,
      "start": 36.6859,
      "duration": 0.3164,
      "velocity": 127,
      "chip": "ym2612"
    },
    {
      "channel": 4,
      "note": 55,
      "start": 37.0017,
      "duration": 0.1518,
      "velocity": 117,
      "chip": "ym2612"
    },
    {
      "channel": 5,
      "note": 67,
      "start": 37.0025,
      "duration": 0.3158,
      "velocity": 127,
      "chip": "ym2612"
    },
    {
      "channel": 4,
      "note": 55,
      "start": 37.1538,
      "duration": 0.3311,
      "velocity": 117,
      "chip": "ym2612"
    },
    {
      "channel": 5,
      "note": 91,
      "start": 37.3186,
      "duration": 0.317,
      "velocity": 127,
      "chip": "ym2612"
    },
    {
      "channel": 4,
      "note": 55,
      "start": 37.4851,
      "duration": 0.1498,
      "velocity": 117,
      "chip": "ym2612"
    },
    {
      "channel": 4,
      "note": 55,
      "start": 37.6351,
      "duration": 0.1665,
      "velocity": 117,
      "chip": "ym2612"
    },
    {
      "channel": 5,
      "note": 55,
      "start": 37.6359,
      "duration": 0.3164,
      "velocity": 127,
      "chip": "ym2612"
    },
    {
      "channel": 4,
      "note": 55,
      "start": 37.8017,
      "duration": 0.1498,
      "velocity": 117,
      "chip": "ym2612"
    },
    {
      "channel": 4,
      "note": 55,
      "start": 37.9517,
      "duration": 0.3358,
      "velocity": 117,
      "chip": "ym2612"
    },
    {
      "channel": 5,
      "note": 91,
      "start": 37.9525,
      "duration": 0.3357,
      "velocity": 127,
      "chip": "ym2612"
    },
    {
      "channel": 1,
      "note": 74,
      "start": 38.2868,
      "duration": 0.2158,
      "velocity": 103,
      "chip": "ym2612"
    },
    {
      "channel": 4,
      "note": 50,
      "start": 38.2877,
      "duration": 0.5311,
      "velocity": 117,
      "chip": "ym2612"
    },
    {
      "channel": 5,
      "note": 67,
      "start": 38.2885,
      "duration": 0.2166,
      "velocity": 127,
      "chip": "ym2612"
    },
    {
      "channel": 0,
      "note": 52,
      "start": 38.502,
      "duration": 1.433,
      "velocity": 112,
      "chip": "ym2612"
    },
    {
      "channel": 1,
      "note": 79,
      "start": 38.5028,
      "duration": 1.818,
      "velocity": 103,
      "chip": "ym2612"
    },
    {
      "channel": 2,
      "note": 76,
      "start": 38.5036,
      "duration": 2.3412,
      "velocity": 102,
      "chip": "ym2612"
    },
    {
      "channel": 3,
      "note": 83,
      "start": 38.5044,
      "duration": 2.3411,
      "velocity": 102,
      "chip": "ym2612"
    },
    {
      "channel": 5,
      "note": 91,
      "start": 38.5053,
      "duration": 0.3142,
      "velocity": 127,
      "chip": "ym2612"
    },
    {
      "channel": 4,
      "note": 55,
      "start": 38.819,
      "duration": 0.1663,
      "velocity": 117,
      "chip": "ym2612"
    },
    {
      "channel": 5,
      "note": 55,
      "start": 38.8197,
      "duration": 0.3163,
      "velocity": 127,
      "chip": "ym2612"
    },
    {
      "channel": 4,
      "note": 55,
      "start": 38.9855,
      "duration": 0.1498,
      "velocity": 117,
      "chip": "ym2612"
    },
    {
      "channel": 4,
      "note": 55,
      "start": 39.1355,
      "duration": 0.3165,
      "velocity": 117,
      "chip": "ym2612"
    },
    {
      "channel": 5,
      "note": 91,
      "start": 39.1363,
      "duration": 0.3164,
      "velocity": 127,
      "chip": "ym2612"
    },
    {
      "channel": 4,
      "note": 55,
      "start": 39.4522,
      "duration": 0.1685,
      "velocity": 117,
      "chip": "ym2612"
    },
    {
      "channel": 5,
      "note": 67,
      "start": 39.4529,
      "duration": 0.3325,
      "velocity": 127,
      "chip": "ym2612"
    },
    {
      "channel": 4,
      "note": 55,
      "start": 39.6209,
      "duration": 0.3151,
      "velocity": 117,
      "chip": "ym2612"
    },
    {
      "channel": 5,
      "note": 91,
      "start": 39.7857,
      "duration": 0.3171,
      "velocity": 127,
      "chip": "ym2612"
    },
    {
      "channel": 0,
      "note": 59,
      "start": 39.9352,
      "duration": 0.3165,
      "velocity": 112,
      "chip": "ym2612"
    },
    {
      "channel": 4,
      "note": 55,
      "start": 39.9362,
      "duration": 0.1658,
      "velocity": 117,
      "chip": "ym2612"
    },
    {
      "channel": 4,
      "note": 55,
      "start": 40.1022,
      "duration": 0.1504,
      "velocity": 117,
      "chip": "ym2612"
    },
    {
      "channel": 5,
      "note": 55,
      "start": 40.1029,
      "duration": 0.2194,
      "velocity": 127,
      "chip": "ym2612"
    },
    {
      "channel": 0,
      "note": 64,
      "start": 40.2519,
      "duration": 0.2336,
      "velocity": 112,
      "chip": "ym2612"
    },
    {
      "channel": 4,
      "note": 55,
      "start": 40.2529,
      "duration": 0.0688,
      "velocity": 117,
      "chip": "ym2612"
    },
    {
      "channel": 1,
      "note": 76,
      "start": 40.321,
      "duration": 0.3151,
      "velocity": 103,
      "chip": "ym2612"
    },
    {
      "channel": 4,
      "note": 55,
      "start": 40.3219,
      "duration": 0.3151,
      "velocity": 117,
      "chip": "ym2612"
    },
    {
      "channel": 5,
      "note": 91,
      "start": 40.3226,
      "duration": 0.3151,
      "velocity": 127,
      "chip": "ym2612"
    },
    {
      "channel": 0,
      "note": 64,
      "start": 40.4857,
      "duration": 0.1498,
      "velocity": 112,
      "chip": "ym2612"
    },
    {
      "channel": 0,
      "note": 59,
      "start": 40.6357,
      "duration": 0.1665,
      "velocity": 112,
      "chip": "ym2612"
    },
    {
      "channel": 1,
      "note": 78,
      "start": 40.6364,
      "duration": 0.2077,
      "velocity": 103,
      "chip": "ym2612"
    },
    {
      "channel": 4,
      "note": 50,
      "start": 40.6373,
      "duration": 0.5404,
      "velocity": 117,
      "chip": "ym2612"
    },
    {
      "channel": 5,
      "note": 67,
      "start": 40.638,
      "duration": 0.2083,
      "velocity": 127,
      "chip": "ym2612"
    },
    {
      "channel": 0,
      "note": 52,
      "start": 40.8023,
      "duration": 0.0411,
      "velocity": 112,
      "chip": "ym2612"
    },
    {
      "channel": 0,
      "note": 57,
      "start": 40.8436,
      "duration": 2.4669,
      "velocity": 112,
      "chip": "ym2612"
    },
    {
      "channel": 1,
      "note": 79,
      "start": 40.8443,
      "duration": 0.3324,
      "velocity": 103,
      "chip": "ym2612"
    },
    {
      "channel": 2,
      "note": 84,
      "start": 40.845,
      "duration": 2.4669,
      "velocity": 102,
      "chip": "ym2612"
    },
    {
      "channel": 3,
      "note": 81,
      "start": 40.8457,
      "duration": 2.4669,
      "velocity": 102,
      "chip": "ym2612"
    },
    {
      "channel": 5,
      "note": 91,
      "start": 40.8465,
      "duration": 0.3318,
      "velocity": 127,
      "chip": "ym2612"
    },
    {
      "channel": 1,
      "note": 81,
      "start": 41.1769,
      "duration": 1.9184,
      "velocity": 103,
      "chip": "ym2612"
    },
    {
      "channel": 4,
      "note": 55,
      "start": 41.1778,
      "duration": 0.1492,
      "velocity": 117,
      "chip": "ym2612"
    },
    {
      "channel": 5,
      "note": 55,
      "start": 41.1786,
      "duration": 0.3158,
      "velocity": 127,
      "chip": "ym2612"
    },
    {
      "channel": 4,
      "note": 55,
      "start": 41.3273,
      "duration": 0.1664,
      "velocity": 117,
      "chip": "ym2612"
    },
    {
      "channel": 4,
      "note": 55,
      "start": 41.4939,
      "duration": 0.3165,
      "velocity": 117,
      "chip": "ym2612"
    },
    {
      "channel": 5,
      "note": 91,
      "start": 41.4946,
      "duration": 0.3164,
      "velocity": 127,
      "chip": "ym2612"
    },
    {
      "channel": 4,
      "note": 55,
      "start": 41.8105,
      "duration": 0.1665,
      "velocity": 117,
      "chip": "ym2612"
    },
    {
      "channel": 5,
      "note": 67,
      "start": 41.8113,
      "duration": 0.3158,
      "velocity": 127,
      "chip": "ym2612"
    },
    {
      "channel": 4,
      "note": 55,
      "start": 41.9772,
      "duration": 0.3185,
      "velocity": 117,
      "chip": "ym2612"
    },
    {
      "channel": 5,
      "note": 91,
      "start": 42.1273,
      "duration": 0.3171,
      "velocity": 127,
      "chip": "ym2612"
    },
    {
      "channel": 4,
      "note": 55,
      "start": 42.2959,
      "duration": 0.1478,
      "velocity": 117,
      "chip": "ym2612"
    },
    {
      "channel": 4,
      "note": 55,
      "start": 42.4439,
      "duration": 0.1664,
      "velocity": 117,
      "chip": "ym2612"
    },
    {
      "channel": 5,
      "note": 55,
      "start": 42.4446,
      "duration": 0.3331,
      "velocity": 127,
      "chip": "ym2612"
    },
    {
      "channel": 4,
      "note": 55,
      "start": 42.6105,
      "duration": 0.1665,
      "velocity": 117,
      "chip": "ym2612"
    },
    {
      "channel": 4,
      "note": 55,
      "start": 42.7772,
      "duration": 0.3191,
      "velocity": 117,
      "chip": "ym2612"
    },
    {
      "channel": 5,
      "note": 91,
      "start": 42.778,
      "duration": 0.319,
      "velocity": 127,
      "chip": "ym2612"
    },
    {
      "channel": 1,
      "note": 77,
      "start": 43.0956,
      "duration": 0.1478,
      "velocity": 103,
      "chip": "ym2612"
    },
    {
      "channel": 4,
      "note": 50,
      "start": 43.0965,
      "duration": 0.531,
      "velocity": 117,
      "chip": "ym2612"
    },
    {
      "channel": 5,
      "note": 67,
      "start": 43.0972,
      "duration": 0.2162,
      "velocity": 127,
      "chip": "ym2612"
    },
    {
      "channel": 1,
      "note": 79,
      "start": 43.2437,
      "duration": 0.0675,
      "velocity": 103,
      "chip": "ym2612"
    },
    {
      "channel": 0,
      "note": 53,
      "start": 43.3107,
      "duration": 2.3581,
      "velocity": 112,
      "chip": "ym2612"
    },
    {
      "channel": 1,
      "note": 81,
      "start": 43.3114,
      "duration": 0.9658,
      "velocity": 103,
      "chip": "ym2612"
    },
    {
      "channel": 2,
      "note": 84,
      "start": 43.3121,
      "duration": 2.3581,
      "velocity": 102,
      "chip": "ym2612"
    },
    {
      "channel": 3,
      "note": 77,
      "start": 43.3128,
      "duration": 2.3581,
      "velocity": 102,
      "chip": "ym2612"
    },
    {
      "channel": 5,
      "note": 91,
      "start": 43.3136,
      "duration": 0.3145,
      "velocity": 127,
      "chip": "ym2612"
    },
    {
      "channel": 4,
      "note": 55,
      "start": 43.6276,
      "duration": 0.1665,
      "velocity": 117,
      "chip": "ym2612"
    },
    {
      "channel": 5,
      "note": 55,
      "start": 43.6284,
      "duration": 0.3164,
      "velocity": 127,
      "chip": "ym2612"
    },
    {
      "channel": 4,
      "note": 55,
      "start": 43.7943,
      "duration": 0.1498,
      "velocity": 117,
      "chip": "ym2612"
    },
    {
      "channel": 4,
      "note": 55,
      "start": 43.9443,
      "duration": 0.3338,
      "velocity": 117,
      "chip": "ym2612"
    },
    {
      "channel": 5,
      "note": 91,
      "start": 43.945,
      "duration": 0.3337,
      "velocity": 127,
      "chip": "ym2612"
    },
    {
      "channel": 1,
      "note": 83,
      "start": 44.2773,
      "duration": 0.3165,
      "velocity": 103,
      "chip": "ym2612"
    },
    {
      "channel": 4,
      "note": 55,
      "start": 44.2782,
      "duration": 0.1492,
      "velocity": 117,
      "chip": "ym2612"
    },
    {
      "channel": 5,
      "note": 67,
      "start": 44.279,
      "duration": 0.3158,
      "velocity": 127,
      "chip": "ym2612"
    },
    {
      "channel": 4,
      "note": 55,
      "start": 44.4277,
      "duration": 0.3164,
      "velocity": 117,
      "chip": "ym2612"
    },
    {
      "channel": 1,
      "note": 84,
      "start": 44.5941,
      "duration": 0.4831,
      "velocity": 103,
      "chip": "ym2612"
    },
    {
      "channel": 5,
      "note": 91,
      "start": 44.595,
      "duration": 0.3164,
      "velocity": 127,
      "chip": "ym2612"
    },
    {
      "channel": 4,
      "note": 55,
      "start": 44.7443,
      "duration": 0.1664,
      "velocity": 117,
      "chip": "ym2612"
    },
    {
      "channel": 4,
      "note": 55,
      "start": 44.9109,
      "duration": 0.1671,
      "velocity": 117,
      "chip": "ym2612"
    },
    {
      "channel": 5,
      "note": 55,
      "start": 44.9117,
      "duration": 0.2169,
      "velocity": 127,
      "chip": "ym2612"
    },
    {
      "channel": 1,
      "note": 83,
      "start": 45.0774,
      "duration": 0.3668,
      "velocity": 103,
      "chip": "ym2612"
    },
    {
      "channel": 4,
      "note": 55,
      "start": 45.0783,
      "duration": 0.0496,
      "velocity": 117,
      "chip": "ym2612"
    },
    {
      "channel": 4,
      "note": 55,
      "start": 45.1281,
      "duration": 0.3171,
      "velocity": 117,
      "chip": "ym2612"
    },
    {
      "channel": 5,
      "note": 91,
      "start": 45.1288,
      "duration": 0.3171,
      "velocity": 127,
      "chip": "ym2612"
    },
    {
      "channel": 1,
      "note": 81,
      "start": 45.4445,
      "duration": 0.225,
      "velocity": 103,
      "chip": "ym2612"
    },
    {
      "channel": 4,
      "note": 50,
      "start": 45.4454,
      "duration": 0.5404,
      "velocity": 117,
      "chip": "ym2612"
    },
    {
      "channel": 5,
      "note": 67,
      "start": 45.4461,
      "duration": 0.2257,
      "velocity": 127,
      "chip": "ym2612"
    },
    {
      "channel": 0,
      "note": 50,
      "start": 45.669,
      "duration": 2.2331,
      "velocity": 112,
      "chip": "ym2612"
    },
    {
      "channel": 1,
      "note": 81,
      "start": 45.6697,
      "duration": 0.9492,
      "velocity": 103,
      "chip": "ym2612"
    },
    {
      "channel": 2,
      "note": 81,
      "start": 45.6704,
      "duration": 2.5501,
      "velocity": 102,
      "chip": "ym2612"
    },
    {
      "channel": 3,
      "note": 78,
      "start": 45.6711,
      "duration": 1.5999,
      "velocity": 1,
      "chip": "ym2612"
    },
    {
      "channel": 5,
      "note": 91,
      "start": 45.672,
      "duration": 0.3145,
      "velocity": 127,
      "chip": "ym2612"
    },
    {
      "channel": 4,
      "note": 55,
      "start": 45.9859,
      "duration": 0.1498,
      "velocity": 117,
      "chip": "ym2612"
    },
    {
      "channel": 5,
      "note": 55,
      "start": 45.9867,
      "duration": 0.3164,
      "velocity": 127,
      "chip": "ym2612"
    },
    {
      "channel": 4,
      "note": 55,
      "start": 46.1359,
      "duration": 0.1665,
      "velocity": 117,
      "chip": "ym2612"
    },
    {
      "channel": 4,
      "note": 55,
      "start": 46.3026,
      "duration": 0.3172,
      "velocity": 117,
      "chip": "ym2612"
    },
    {
      "channel": 5,
      "note": 91,
      "start": 46.3034,
      "duration": 0.3171,
      "velocity": 127,
      "chip": "ym2612"
    },
    {
      "channel": 1,
      "note": 67,
      "start": 46.6191,
      "duration": 0.3163,
      "velocity": 103,
      "chip": "ym2612"
    },
    {
      "channel": 4,
      "note": 55,
      "start": 46.62,
      "duration": 0.1657,
      "velocity": 117,
      "chip": "ym2612"
    },
    {
      "channel": 5,
      "note": 67,
      "start": 46.6207,
      "duration": 0.3158,
      "velocity": 127,
      "chip": "ym2612"
    },
    {
      "channel": 4,
      "note": 55,
      "start": 46.786,
      "duration": 0.3164,
      "velocity": 117,
      "chip": "ym2612"
    },
    {
      "channel": 1,
      "note": 74,
      "start": 46.9358,
      "duration": 0.4831,
      "velocity": 103,
      "chip": "ym2612"
    },
    {
      "channel": 5,
      "note": 91,
      "start": 46.9367,
      "duration": 0.1684,
      "velocity": 107,
      "chip": "ym2612"
    },
    {
      "channel": 4,
      "note": 55,
      "start": 47.1027,
      "duration": 0.1691,
      "velocity": 117,
      "chip": "ym2612"
    },
    {
      "channel": 5,
      "note": 71,
      "start": 47.1054,
      "duration": 0.0006,
      "velocity": 107,
      "chip": "ym2612"
    },
    {
      "channel": 5,
      "note": 70,
      "start": 47.106,
      "duration": 0.0126,
      "velocity": 107,
      "chip": "ym2612"
    },
    {
      "channel": 5,
      "note": 68,
      "start": 47.1186,
      "duration": 0.0167,
      "velocity": 107,
      "chip": "ym2612"
    },
    {
      "channel": 5,
      "note": 67,
      "start": 47.1352,
      "duration": 0.0333,
      "velocity": 107,
      "chip": "ym2612"
    },
    {
      "channel": 5,
      "note": 66,
      "start": 47.1686,
      "duration": 0.0167,
      "velocity": 107,
      "chip": "ym2612"
    },
    {
      "channel": 5,
      "note": 66,
      "start": 47.1852,
      "duration": 0.0167,
      "velocity": 107,
      "chip": "ym2612"
    },
    {
      "channel": 5,
      "note": 65,
      "start": 47.2019,
      "duration": 0.0167,
      "velocity": 107,
      "chip": "ym2612"
    },
    {
      "channel": 5,
      "note": 64,
      "start": 47.2186,
      "duration": 0.0167,
      "velocity": 107,
      "chip": "ym2612"
    },
    {
      "channel": 5,
      "note": 63,
      "start": 47.2352,
      "duration": 0.0374,
      "velocity": 107,
      "chip": "ym2612"
    },
    {
      "channel": 3,
      "note": 67,
      "start": 47.2712,
      "duration": 0.1505,
      "velocity": 127,
      "chip": "ym2612"
    },
    {
      "channel": 4,
      "note": 55,
      "start": 47.272,
      "duration": 0.1504,
      "velocity": 117,
      "chip": "ym2612"
    },
    {
      "channel": 5,
      "note": 61,
      "start": 47.2727,
      "duration": 0.0126,
      "velocity": 107,
      "chip": "ym2612"
    },
    {
      "channel": 5,
      "note": 60,
      "start": 47.2852,
      "duration": 0.0167,
      "velocity": 107,
      "chip": "ym2612"
    },
    {
      "channel": 5,
      "note": 59,
      "start": 47.3019,
      "duration": 0.0167,
      "velocity": 107,
      "chip": "ym2612"
    },
    {
      "channel": 5,
      "note": 58,
      "start": 47.3186,
      "duration": 0.0167,
      "velocity": 107,
      "chip": "ym2612"
    },
    {
      "channel": 5,
      "note": 56,
      "start": 47.3352,
      "duration": 0.0333,
      "velocity": 107,
      "chip": "ym2612"
    },
    {
      "channel": 5,
      "note": 55,
      "start": 47.3686,
      "duration": 0.0167,
      "velocity": 107,
      "chip": "ym2612"
    },
    {
      "channel": 5,
      "note": 54,
      "start": 47.3852,
      "duration": 0.0167,
      "velocity": 107,
      "chip": "ym2612"
    },
    {
      "channel": 5,
      "note": 54,
      "start": 47.4019,
      "duration": 0.0212,
      "velocity": 107,
      "chip": "ym2612"
    },
    {
      "channel": 1,
      "note": 71,
      "start": 47.4191,
      "duration": 0.4838,
      "velocity": 103,
      "chip": "ym2612"
    },
    {
      "channel": 3,
      "note": 91,
      "start": 47.4219,
      "duration": 0.8013,
      "velocity": 102,
      "chip": "ym2612"
    },
    {
      "channel": 4,
      "note": 55,
      "start": 47.4226,
      "duration": 0.1652,
      "velocity": 117,
      "chip": "ym2612"
    },
    {
      "channel": 5,
      "note": 71,
      "start": 47.4234,
      "duration": 0.0006,
      "velocity": 107,
      "chip": "ym2612"
    },
    {
      "channel": 5,
      "note": 70,
      "start": 47.424,
      "duration": 0.0112,
      "velocity": 107,
      "chip": "ym2612"
    },
    {
      "channel": 5,
      "note": 68,
      "start": 47.4352,
      "duration": 0.0333,
      "velocity": 107,
      "chip": "ym2612"
    },
    {
      "channel": 5,
      "note": 67,
      "start": 47.4686,
      "duration": 0.0167,
      "velocity": 107,
      "chip": "ym2612"
    },
    {
      "channel": 5,
      "note": 66,
      "start": 47.4852,
      "duration": 0.0167,
      "velocity": 107,
      "chip": "ym2612"
    },
    {
      "channel": 5,
      "note": 66,
      "start": 47.5019,
      "duration": 0.0167,
      "velocity": 107,
      "chip": "ym2612"
    },
    {
      "channel": 5,
      "note": 65,
      "start": 47.5186,
      "duration": 0.0167,
      "velocity": 107,
      "chip": "ym2612"
    },
    {
      "channel": 5,
      "note": 64,
      "start": 47.5352,
      "duration": 0.0333,
      "velocity": 107,
      "chip": "ym2612"
    },
    {
      "channel": 5,
      "note": 63,
      "start": 47.5686,
      "duration": 0.0202,
      "velocity": 107,
      "chip": "ym2612"
    },
    {
      "channel": 4,
      "note": 55,
      "start": 47.588,
      "duration": 0.3157,
      "velocity": 117,
      "chip": "ym2612"
    },
    {
      "channel": 5,
      "note": 61,
      "start": 47.5887,
      "duration": 0.0132,
      "velocity": 107,
      "chip": "ym2612"
    },
    {
      "channel": 5,
      "note": 60,
      "start": 47.6019,
      "duration": 0.0167,
      "velocity": 107,
      "chip": "ym2612"
    },
    {
      "channel": 5,
      "note": 59,
      "start": 47.6186,
      "duration": 0.0167,
      "velocity": 107,
      "chip": "ym2612"
    },
    {
      "channel": 5,
      "note": 58,
      "start": 47.6352,
      "duration": 0.0333,
      "velocity": 107,
      "chip": "ym2612"
    },
    {
      "channel": 5,
      "note": 56,
      "start": 47.6686,
      "duration": 0.0167,
      "velocity": 107,
      "chip": "ym2612"
    },
    {
      "channel": 5,
      "note": 55,
      "start": 47.6852,
      "duration": 0.0167,
      "velocity": 107,
      "chip": "ym2612"
    },
    {
      "channel": 5,
      "note": 54,
      "start": 47.7019,
      "duration": 0.0167,
      "velocity": 107,
      "chip": "ym2612"
    },
    {
      "channel": 5,
      "note": 54,
      "start": 47.7186,
      "duration": 0.0173,
      "velocity": 107,
      "chip": "ym2612"
    },
    {
      "channel": 5,
      "note": 67,
      "start": 47.7361,
      "duration": 0.0006,
      "velocity": 107,
      "chip": "ym2612"
    },
    {
      "channel": 5,
      "note": 66,
      "start": 47.7368,
      "duration": 0.0318,
      "velocity": 107,
      "chip": "ym2612"
    },
    {
      "channel": 5,
      "note": 65,
      "start": 47.7686,
      "duration": 0.0167,
      "velocity": 107,
      "chip": "ym2612"
    },
    {
      "channel": 5,
      "note": 64,
      "start": 47.7852,
      "duration": 0.0167,
      "velocity": 107,
      "chip": "ym2612"
    },
    {
      "channel": 5,
      "note": 63,
      "start": 47.8019,
      "duration": 0.0167,
      "velocity": 107,
      "chip": "ym2612"
    },
    {
      "channel": 5,
      "note": 62,
      "start": 47.8186,
      "duration": 0.0167,
      "velocity": 107,
      "chip": "ym2612"
    },
    {
      "channel": 5,
      "note": 61,
      "start": 47.8352,
      "duration": 0.0333,
      "velocity": 107,
      "chip": "ym2612"
    },
    {
      "channel": 5,
      "note": 60,
      "start": 47.8686,
      "duration": 0.0167,
      "velocity": 107,
      "chip": "ym2612"
    },
    {
      "channel": 5,
      "note": 59,
      "start": 47.8852,
      "duration": 0.0192,
      "velocity": 107,
      "chip": "ym2612"
    },
    {
      "channel": 0,
      "note": 50,
      "start": 47.9024,
      "duration": 0.3167,
      "velocity": 112,
      "chip": "ym2612"
    },
    {
      "channel": 1,
      "note": 72,
      "start": 47.9031,
      "duration": 0.3167,
      "velocity": 103,
      "chip": "ym2612"
    },
    {
      "channel": 4,
      "note": 50,
      "start": 47.9039,
      "duration": 0.4878,
      "velocity": 117,
      "chip": "ym2612"
    },
    {
      "channel": 5,
      "note": 64,
      "start": 47.9046,
      "duration": 0.0006,
      "velocity": 107,
      "chip": "ym2612"
    },
    {
      "channel": 5,
      "note": 63,
      "start": 47.9053,
      "duration": 0.0133,
      "velocity": 107,
      "chip": "ym2612"
    },
    {
      "channel": 5,
      "note": 62,
      "start": 47.9186,
      "duration": 0.0167,
      "velocity": 107,
      "chip": "ym2612"
    },
    {
      "channel": 5,
      "note": 61,
      "start": 47.9352,
      "duration": 0.0333,
      "velocity": 107,
      "chip": "ym2612"
    },
    {
      "channel": 5,
      "note": 60,
      "start": 47.9686,
      "duration": 0.0167,
      "velocity": 107,
      "chip": "ym2612"
    },
    {
      "channel": 5,
      "note": 58,
      "start": 47.9852,
      "duration": 0.0167,
      "velocity": 107,
      "chip": "ym2612"
    },
    {
      "channel": 5,
      "note": 57,
      "start": 48.0019,
      "duration": 0.0167,
      "velocity": 107,
      "chip": "ym2612"
    },
    {
      "channel": 5,
      "note": 56,
      "start": 48.0186,
      "duration": 0.0167,
      "velocity": 107,
      "chip": "ym2612"
    },
    {
      "channel": 5,
      "note": 55,
      "start": 48.0352,
      "duration": 0.05,
      "velocity": 107,
      "chip": "ym2612"
    },
    {
      "channel": 5,
      "note": 54,
      "start": 48.0852,
      "duration": 0.0167,
      "velocity": 107,
      "chip": "ym2612"
    },
    {
      "channel": 5,
      "note": 53,
      "start": 48.1019,
      "duration": 0.0167,
      "velocity": 107,
      "chip": "ym2612"
    },
    {
      "channel": 5,
      "note": 52,
      "start": 48.1186,
      "duration": 0.0167,
      "velocity": 107,
      "chip": "ym2612"
    },
    {
      "channel": 5,
      "note": 51,
      "start": 48.1352,
      "duration": 0.0333,
      "velocity": 107,
      "chip": "ym2612"
    },
    {
      "channel": 5,
      "note": 50,
      "start": 48.1686,
      "duration": 0.0167,
      "velocity": 107,
      "chip": "ym2612"
    },
    {
      "channel": 5,
      "note": 49,
      "start": 48.1852,
      "duration": 0.0167,
      "velocity": 107,
      "chip": "ym2612"
    },
    {
      "channel": 5,
      "note": 48,
      "start": 48.2019,
      "duration": 0.0222,
      "velocity": 107,
      "chip": "ym2612"
    },
    {
      "channel": 0,
      "note": 55,
      "start": 48.2192,
      "duration": 0.3388,
      "velocity": 112,
      "chip": "ym2612"
    },
    {
      "channel": 1,
      "note": 74,
      "start": 48.22,
      "duration": 2.1567,
      "velocity": 103,
      "chip": "ym2612"
    },
    {
      "channel": 2,
      "note": 86,
      "start": 48.2207,
      "duration": 1.7733,
      "velocity": 102,
      "chip": "ym2612"
    },
    {
      "channel": 3,
      "note": 83,
      "start": 48.2234,
      "duration": 1.7713,
      "velocity": 102,
      "chip": "ym2612"
    },
    {
      "channel": 5,
      "note": 46,
      "start": 48.2241,
      "duration": 0.0002,
      "velocity": 107,
      "chip": "ym2612"
    },
    {
      "channel": 5,
      "note": 45,
      "start": 48.2243,
      "duration": 0.0002,
      "velocity": 107,
      "chip": "ym2612"
    },
    {
      "channel": 5,
      "note": 44,
      "start": 48.2245,
      "duration": 0.0002,
      "velocity": 107,
      "chip": "ym2612"
    },
    {
      "channel": 5,
      "note": 43,
      "start": 48.2246,
      "duration": 0.0001,
      "velocity": 107,
      "chip": "ym2612"
    },
    {
      "channel": 5,
      "note": 42,
      "start": 48.2248,
      "duration": 0.0002,
      "velocity": 107,
      "chip": "ym2612"
    },
    {
      "channel": 5,
      "note": 41,
      "start": 48.2249,
      "duration": 0.0001,
      "velocity": 107,
      "chip": "ym2612"
    },
    {
      "channel": 5,
      "note": 40,
      "start": 48.2251,
      "duration": 0.0002,
      "velocity": 107,
      "chip": "ym2612"
    },
    {
      "channel": 5,
      "note": 39,
      "start": 48.2253,
      "duration": 0.0224,
      "velocity": 127,
      "chip": "ym2612"
    },
    {
      "channel": 5,
      "note": 67,
      "start": 48.248,
      "duration": 0.1465,
      "velocity": 113,
      "chip": "ym2612"
    },
    {
      "channel": 4,
      "note": 55,
      "start": 48.392,
      "duration": 0.1689,
      "velocity": 127,
      "chip": "ym2612"
    },
    {
      "channel": 5,
      "note": 84,
      "start": 48.3947,
      "duration": 0.5422,
      "velocity": 113,
      "chip": "ym2612"
    },
    {
      "channel": 0,
      "note": 55,
      "start": 48.5582,
      "duration": 0.8868,
      "velocity": 112,
      "chip": "ym2612"
    },
    {
      "channel": 4,
      "note": 50,
      "start": 48.5611,
      "duration": 0.0584,
      "velocity": 117,
      "chip": "ym2612"
    },
    {
      "channel": 4,
      "note": 55,
      "start": 48.6198,
      "duration": 0.3164,
      "velocity": 117,
      "chip": "ym2612"
    },
    {
      "channel": 4,
      "note": 55,
      "start": 48.9365,
      "duration": 0.1478,
      "velocity": 117,
      "chip": "ym2612"
    },
    {
      "channel": 5,
      "note": 84,
      "start": 48.9372,
      "duration": 0.3422,
      "velocity": 113,
      "chip": "ym2612"
    },
    {
      "channel": 4,
      "note": 55,
      "start": 49.0845,
      "duration": 0.0442,
      "velocity": 117,
      "chip": "ym2612"
    },
    {
      "channel": 4,
      "note": 55,
      "start": 49.1289,
      "duration": 0.1498,
      "velocity": 117,
      "chip": "ym2612"
    },
    {
      "channel": 4,
      "note": 55,
      "start": 49.2789,
      "duration": 0.1671,
      "velocity": 117,
      "chip": "ym2612"
    },
    {
      "channel": 5,
      "note": 84,
      "start": 49.2797,
      "duration": 0.3998,
      "velocity": 113,
      "chip": "ym2612"
    },
    {
      "channel": 0,
      "note": 55,
      "start": 49.4452,
      "duration": 0.0054,
      "velocity": 112,
      "chip": "ym2612"
    },
    {
      "channel": 4,
      "note": 55,
      "start": 49.4463,
      "duration": 0.0073,
      "velocity": 127,
      "chip": "ym2612"
    },
    {
      "channel": 0,
      "note": 55,
      "start": 49.4508,
      "duration": 0.5424,
      "velocity": 112,
      "chip": "ym2612"
    },
    {
      "channel": 4,
      "note": 50,
      "start": 49.4537,
      "duration": 0.2251,
      "velocity": 117,
      "chip": "ym2612"
    },
    {
      "channel": 4,
      "note": 50,
      "start": 49.679,
      "duration": 0.4867,
      "velocity": 117,
      "chip": "ym2612"
    },
    {
      "channel": 5,
      "note": 84,
      "start": 49.6797,
      "duration": 0.3214,
      "velocity": 127,
      "chip": "ym2612"
    },
    {
      "channel": 0,
      "note": 55,
      "start": 49.9934,
      "duration": 0.3386,
      "velocity": 112,
      "chip": "ym2612"
    },
    {
      "channel": 2,
      "note": 86,
      "start": 49.9942,
      "duration": 1.7573,
      "velocity": 102,
      "chip": "ym2612"
    },
    {
      "channel": 3,
      "note": 83,
      "start": 49.9949,
      "duration": 1.7573,
      "velocity": 102,
      "chip": "ym2612"
    },
    {
      "channel": 5,
      "note": 67,
      "start": 50.0014,
      "duration": 0.167,
      "velocity": 113,
      "chip": "ym2612"
    },
    {
      "channel": 4,
      "note": 55,
      "start": 50.1659,
      "duration": 0.1691,
      "velocity": 127,
      "chip": "ym2612"
    },
    {
      "channel": 5,
      "note": 84,
      "start": 50.1686,
      "duration": 0.5237,
      "velocity": 113,
      "chip": "ym2612"
    },
    {
      "channel": 0,
      "note": 55,
      "start": 50.3322,
      "duration": 0.8702,
      "velocity": 112,
      "chip": "ym2612"
    },
    {
      "channel": 4,
      "note": 50,
      "start": 50.3352,
      "duration": 0.0444,
      "velocity": 117,
      "chip": "ym2612"
    },
    {
      "channel": 1,
      "note": 71,
      "start": 50.3769,
      "duration": 0.5034,
      "velocity": 103,
      "chip": "ym2612"
    },
    {
      "channel": 4,
      "note": 55,
      "start": 50.3798,
      "duration": 0.3118,
      "velocity": 117,
      "chip": "ym2612"
    },
    {
      "channel": 4,
      "note": 55,
      "start": 50.6918,
      "duration": 0.1665,
      "velocity": 117,
      "chip": "ym2612"
    },
    {
      "channel": 5,
      "note": 84,
      "start": 50.6926,
      "duration": 0.3609,
      "velocity": 113,
      "chip": "ym2612"
    },
    {
      "channel": 4,
      "note": 55,
      "start": 50.8585,
      "duration": 0.0276,
      "velocity": 117,
      "chip": "ym2612"
    },
    {
      "channel": 1,
      "note": 72,
      "start": 50.8805,
      "duration": 0.3449,
      "velocity": 103,
      "chip": "ym2612"
    },
    {
      "channel": 4,
      "note": 55,
      "start": 50.8863,
      "duration": 0.1664,
      "velocity": 117,
      "chip": "ym2612"
    },
    {
      "channel": 4,
      "note": 55,
      "start": 51.0529,
      "duration": 0.1505,
      "velocity": 117,
      "chip": "ym2612"
    },
    {
      "channel": 5,
      "note": 84,
      "start": 51.0537,
      "duration": 0.3839,
      "velocity": 113,
      "chip": "ym2612"
    },
    {
      "channel": 0,
      "note": 55,
      "start": 51.2026,
      "duration": 0.0221,
      "velocity": 112,
      "chip": "ym2612"
    },
    {
      "channel": 4,
      "note": 55,
      "start": 51.2036,
      "duration": 0.0246,
      "velocity": 127,
      "chip": "ym2612"
    },
    {
      "channel": 0,
      "note": 55,
      "start": 51.225,
      "duration": 0.5257,
      "velocity": 112,
      "chip": "ym2612"
    },
    {
      "channel": 1,
      "note": 74,
      "start": 51.2257,
      "duration": 0.2083,
      "velocity": 103,
      "chip": "ym2612"
    },
    {
      "channel": 4,
      "note": 50,
      "start": 51.2285,
      "duration": 0.2084,
      "velocity": 117,
      "chip": "ym2612"
    },
    {
      "channel": 1,
      "note": 72,
      "start": 51.4343,
      "duration": 2.474,
      "velocity": 103,
      "chip": "ym2612"
    },
    {
      "channel": 4,
      "note": 50,
      "start": 51.4371,
      "duration": 0.5028,
      "velocity": 117,
      "chip": "ym2612"
    },
    {
      "channel": 5,
      "note": 84,
      "start": 51.4378,
      "duration": 0.3375,
      "velocity": 127,
      "chip": "ym2612"
    },
    {
      "channel": 0,
      "note": 55,
      "start": 51.7509,
      "duration": 0.3387,
      "velocity": 112,
      "chip": "ym2612"
    },
    {
      "channel": 2,
      "note": 89,
      "start": 51.7516,
      "duration": 1.7739,
      "velocity": 102,
      "chip": "ym2612"
    },
    {
      "channel": 3,
      "note": 84,
      "start": 51.7523,
      "duration": 1.7739,
      "velocity": 102,
      "chip": "ym2612"
    },
    {
      "channel": 5,
      "note": 67,
      "start": 51.7756,
      "duration": 0.167,
      "velocity": 113,
      "chip": "ym2612"
    },
    {
      "channel": 4,
      "note": 55,
      "start": 51.9401,
      "duration": 0.1524,
      "velocity": 127,
      "chip": "ym2612"
    },
    {
      "channel": 5,
      "note": 84,
      "start": 51.9427,
      "duration": 0.5237,
      "velocity": 113,
      "chip": "ym2612"
    },
    {
      "channel": 0,
      "note": 55,
      "start": 52.0898,
      "duration": 0.8869,
      "velocity": 112,
      "chip": "ym2612"
    },
    {
      "channel": 4,
      "note": 50,
      "start": 52.0927,
      "duration": 0.0604,
      "velocity": 117,
      "chip": "ym2612"
    },
    {
      "channel": 4,
      "note": 55,
      "start": 52.1533,
      "duration": 0.3125,
      "velocity": 117,
      "chip": "ym2612"
    },
    {
      "channel": 4,
      "note": 55,
      "start": 52.466,
      "duration": 0.1665,
      "velocity": 117,
      "chip": "ym2612"
    },
    {
      "channel": 5,
      "note": 84,
      "start": 52.4667,
      "duration": 0.3442,
      "velocity": 113,
      "chip": "ym2612"
    },
    {
      "channel": 4,
      "note": 55,
      "start": 52.6326,
      "duration": 0.0276,
      "velocity": 117,
      "chip": "ym2612"
    },
    {
      "channel": 4,
      "note": 55,
      "start": 52.6605,
      "duration": 0.1498,
      "velocity": 117,
      "chip": "ym2612"
    },
    {
      "channel": 4,
      "note": 55,
      "start": 52.8105,
      "duration": 0.1671,
      "velocity": 117,
      "chip": "ym2612"
    },
    {
      "channel": 5,
      "note": 84,
      "start": 52.8112,
      "duration": 0.3998,
      "velocity": 113,
      "chip": "ym2612"
    },
    {
      "channel": 0,
      "note": 55,
      "start": 52.9768,
      "duration": 0.0221,
      "velocity": 112,
      "chip": "ym2612"
    },
    {
      "channel": 4,
      "note": 55,
      "start": 52.9778,
      "duration": 0.024,
      "velocity": 127,
      "chip": "ym2612"
    },
    {
      "channel": 0,
      "note": 55,
      "start": 52.999,
      "duration": 0.5257,
      "velocity": 112,
      "chip": "ym2612"
    },
    {
      "channel": 4,
      "note": 50,
      "start": 53.002,
      "duration": 0.2084,
      "velocity": 117,
      "chip": "ym2612"
    },
    {
      "channel": 4,
      "note": 50,
      "start": 53.2106,
      "duration": 0.4867,
      "velocity": 117,
      "chip": "ym2612"
    },
    {
      "channel": 5,
      "note": 84,
      "start": 53.2113,
      "duration": 0.338,
      "velocity": 127,
      "chip": "ym2612"
    },
    {
      "channel": 0,
      "note": 55,
      "start": 53.525,
      "duration": 0.3386,
      "velocity": 112,
      "chip": "ym2612"
    },
    {
      "channel": 2,
      "note": 89,
      "start": 53.5258,
      "duration": 1.7749,
      "velocity": 102,
      "chip": "ym2612"
    },
    {
      "channel": 3,
      "note": 84,
      "start": 53.5265,
      "duration": 1.7749,
      "velocity": 102,
      "chip": "ym2612"
    },
    {
      "channel": 5,
      "note": 67,
      "start": 53.5496,
      "duration": 0.1503,
      "velocity": 113,
      "chip": "ym2612"
    },
    {
      "channel": 4,
      "note": 55,
      "start": 53.6975,
      "duration": 0.1691,
      "velocity": 127,
      "chip": "ym2612"
    },
    {
      "channel": 5,
      "note": 84,
      "start": 53.7002,
      "duration": 0.5403,
      "velocity": 113,
      "chip": "ym2612"
    },
    {
      "channel": 0,
      "note": 55,
      "start": 53.8638,
      "duration": 0.8869,
      "velocity": 112,
      "chip": "ym2612"
    },
    {
      "channel": 4,
      "note": 50,
      "start": 53.8667,
      "duration": 0.0444,
      "velocity": 117,
      "chip": "ym2612"
    },
    {
      "channel": 1,
      "note": 72,
      "start": 53.9085,
      "duration": 0.5034,
      "velocity": 103,
      "chip": "ym2612"
    },
    {
      "channel": 4,
      "note": 55,
      "start": 53.9113,
      "duration": 0.3285,
      "velocity": 117,
      "chip": "ym2612"
    },
    {
      "channel": 4,
      "note": 55,
      "start": 54.24,
      "duration": 0.1498,
      "velocity": 117,
      "chip": "ym2612"
    },
    {
      "channel": 5,
      "note": 84,
      "start": 54.2408,
      "duration": 0.3442,
      "velocity": 113,
      "chip": "ym2612"
    },
    {
      "channel": 4,
      "note": 55,
      "start": 54.39,
      "duration": 0.0277,
      "velocity": 117,
      "chip": "ym2612"
    },
    {
      "channel": 1,
      "note": 74,
      "start": 54.4121,
      "duration": 0.3449,
      "velocity": 103,
      "chip": "ym2612"
    },
    {
      "channel": 4,
      "note": 55,
      "start": 54.4179,
      "duration": 0.1664,
      "velocity": 117,
      "chip": "ym2612"
    },
    {
      "channel": 4,
      "note": 55,
      "start": 54.5845,
      "duration": 0.1671,
      "velocity": 117,
      "chip": "ym2612"
    },
    {
      "channel": 5,
      "note": 84,
      "start": 54.5853,
      "duration": 0.3832,
      "velocity": 113,
      "chip": "ym2612"
    },
    {
      "channel": 0,
      "note": 55,
      "start": 54.7509,
      "duration": 0.0054,
      "velocity": 112,
      "chip": "ym2612"
    },
    {
      "channel": 4,
      "note": 55,
      "start": 54.7519,
      "duration": 0.0079,
      "velocity": 127,
      "chip": "ym2612"
    },
    {
      "channel": 0,
      "note": 55,
      "start": 54.7565,
      "duration": 0.5426,
      "velocity": 112,
      "chip": "ym2612"
    },
    {
      "channel": 1,
      "note": 69,
      "start": 54.7572,
      "duration": 0.5426,
      "velocity": 103,
      "chip": "ym2612"
    },
    {
      "channel": 4,
      "note": 50,
      "start": 54.76,
      "duration": 0.2078,
      "velocity": 117,
      "chip": "ym2612"
    },
    {
      "channel": 4,
      "note": 50,
      "start": 54.968,
      "duration": 0.5035,
      "velocity": 117,
      "chip": "ym2612"
    },
    {
      "channel": 5,
      "note": 84,
      "start": 54.9688,
      "duration": 0.3381,
      "velocity": 127,
      "chip": "ym2612"
    },
    {
      "channel": 0,
      "note": 60,
      "start": 55.2993,
      "duration": 0.3218,
      "velocity": 112,
      "chip": "ym2612"
    },
    {
      "channel": 1,
      "note": 69,
      "start": 55.3001,
      "duration": 0.3217,
      "velocity": 103,
      "chip": "ym2612"
    },
    {
      "channel": 2,
      "note": 79,
      "start": 55.3008,
      "duration": 1.7564,
      "velocity": 102,
      "chip": "ym2612"
    },
    {
      "channel": 3,
      "note": 84,
      "start": 55.3016,
      "duration": 1.7564,
      "velocity": 102,
      "chip": "ym2612"
    },
    {
      "channel": 5,
      "note": 67,
      "start": 55.3072,
      "duration": 0.167,
      "velocity": 113,
      "chip": "ym2612"
    },
    {
      "channel": 4,
      "note": 55,
      "start": 55.4717,
      "duration": 0.1529,
      "velocity": 127,
      "chip": "ym2612"
    },
    {
      "channel": 5,
      "note": 84,
      "start": 55.4744,
      "duration": 0.5236,
      "velocity": 113,
      "chip": "ym2612"
    },
    {
      "channel": 0,
      "note": 60,
      "start": 55.6214,
      "duration": 0.8868,
      "velocity": 112,
      "chip": "ym2612"
    },
    {
      "channel": 1,
      "note": 67,
      "start": 55.6221,
      "duration": 1.8346,
      "velocity": 103,
      "chip": "ym2612"
    },
    {
      "channel": 4,
      "note": 50,
      "start": 55.6249,
      "duration": 0.0578,
      "velocity": 117,
      "chip": "ym2612"
    },
    {
      "channel": 4,
      "note": 55,
      "start": 55.6829,
      "duration": 0.3144,
      "velocity": 117,
      "chip": "ym2612"
    },
    {
      "channel": 4,
      "note": 55,
      "start": 55.9975,
      "duration": 0.1665,
      "velocity": 117,
      "chip": "ym2612"
    },
    {
      "channel": 5,
      "note": 84,
      "start": 55.9983,
      "duration": 0.361,
      "velocity": 113,
      "chip": "ym2612"
    },
    {
      "channel": 4,
      "note": 55,
      "start": 56.1642,
      "duration": 0.0296,
      "velocity": 117,
      "chip": "ym2612"
    },
    {
      "channel": 4,
      "note": 55,
      "start": 56.1941,
      "duration": 0.1645,
      "velocity": 117,
      "chip": "ym2612"
    },
    {
      "channel": 4,
      "note": 55,
      "start": 56.3588,
      "duration": 0.1504,
      "velocity": 117,
      "chip": "ym2612"
    },
    {
      "channel": 5,
      "note": 84,
      "start": 56.3595,
      "duration": 0.3833,
      "velocity": 113,
      "chip": "ym2612"
    },
    {
      "channel": 0,
      "note": 60,
      "start": 56.5084,
      "duration": 0.0221,
      "velocity": 112,
      "chip": "ym2612"
    },
    {
      "channel": 4,
      "note": 55,
      "start": 56.5094,
      "duration": 0.024,
      "velocity": 127,
      "chip": "ym2612"
    },
    {
      "channel": 0,
      "note": 60,
      "start": 56.5307,
      "duration": 0.5258,
      "velocity": 112,
      "chip": "ym2612"
    },
    {
      "channel": 4,
      "note": 50,
      "start": 56.5336,
      "duration": 0.2085,
      "velocity": 117,
      "chip": "ym2612"
    },
    {
      "channel": 4,
      "note": 50,
      "start": 56.7422,
      "duration": 0.4868,
      "velocity": 117,
      "chip": "ym2612"
    },
    {
      "channel": 5,
      "note": 84,
      "start": 56.743,
      "duration": 0.3381,
      "velocity": 127,
      "chip": "ym2612"
    },
    {
      "channel": 0,
      "note": 60,
      "start": 57.0567,
      "duration": 0.3387,
      "velocity": 112,
      "chip": "ym2612"
    },
    {
      "channel": 2,
      "note": 84,
      "start": 57.0574,
      "duration": 1.7745,
      "velocity": 102,
      "chip": "ym2612"
    },
    {
      "channel": 3,
      "note": 79,
      "start": 57.0581,
      "duration": 1.7745,
      "velocity": 102,
      "chip": "ym2612"
    },
    {
      "channel": 5,
      "note": 67,
      "start": 57.0814,
      "duration": 0.1503,
      "velocity": 113,
      "chip": "ym2612"
    },
    {
      "channel": 4,
      "note": 55,
      "start": 57.2292,
      "duration": 0.1691,
      "velocity": 127,
      "chip": "ym2612"
    },
    {
      "channel": 5,
      "note": 84,
      "start": 57.232,
      "duration": 0.541,
      "velocity": 113,
      "chip": "ym2612"
    },
    {
      "channel": 0,
      "note": 60,
      "start": 57.3956,
      "duration": 0.8868,
      "velocity": 112,
      "chip": "ym2612"
    },
    {
      "channel": 4,
      "note": 50,
      "start": 57.3985,
      "duration": 0.061,
      "velocity": 117,
      "chip": "ym2612"
    },
    {
      "channel": 1,
      "note": 69,
      "start": 57.4569,
      "duration": 0.3144,
      "velocity": 103,
      "chip": "ym2612"
    },
    {
      "channel": 4,
      "note": 55,
      "start": 57.4598,
      "duration": 0.3125,
      "velocity": 117,
      "chip": "ym2612"
    },
    {
      "channel": 1,
      "note": 71,
      "start": 57.7716,
      "duration": 0.172,
      "velocity": 103,
      "chip": "ym2612"
    },
    {
      "channel": 4,
      "note": 55,
      "start": 57.7725,
      "duration": 0.1491,
      "velocity": 117,
      "chip": "ym2612"
    },
    {
      "channel": 5,
      "note": 84,
      "start": 57.7732,
      "duration": 0.3435,
      "velocity": 113,
      "chip": "ym2612"
    },
    {
      "channel": 4,
      "note": 55,
      "start": 57.9218,
      "duration": 0.0442,
      "velocity": 117,
      "chip": "ym2612"
    },
    {
      "channel": 1,
      "note": 72,
      "start": 57.9438,
      "duration": 0.3449,
      "velocity": 103,
      "chip": "ym2612"
    },
    {
      "channel": 4,
      "note": 55,
      "start": 57.9663,
      "duration": 0.1498,
      "velocity": 117,
      "chip": "ym2612"
    },
    {
      "channel": 4,
      "note": 55,
      "start": 58.1162,
      "duration": 0.1671,
      "velocity": 117,
      "chip": "ym2612"
    },
    {
      "channel": 5,
      "note": 84,
      "start": 58.117,
      "duration": 0.3999,
      "velocity": 113,
      "chip": "ym2612"
    },
    {
      "channel": 0,
      "note": 60,
      "start": 58.2825,
      "duration": 0.0054,
      "velocity": 112,
      "chip": "ym2612"
    },
    {
      "channel": 4,
      "note": 55,
      "start": 58.2836,
      "duration": 0.0079,
      "velocity": 127,
      "chip": "ym2612"
    },
    {
      "channel": 0,
      "note": 60,
      "start": 58.2882,
      "duration": 0.5424,
      "velocity": 112,
      "chip": "ym2612"
    },
    {
      "channel": 1,
      "note": 71,
      "start": 58.2889,
      "duration": 0.5424,
      "velocity": 103,
      "chip": "ym2612"
    },
    {
      "channel": 4,
      "note": 50,
      "start": 58.2917,
      "duration": 0.2245,
      "velocity": 117,
      "chip": "ym2612"
    },
    {
      "channel": 4,
      "note": 50,
      "start": 58.5163,
      "duration": 0.4868,
      "velocity": 117,
      "chip": "ym2612"
    },
    {
      "channel": 5,
      "note": 84,
      "start": 58.517,
      "duration": 0.3215,
      "velocity": 127,
      "chip": "ym2612"
    },
    {
      "channel": 0,
      "note": 62,
      "start": 58.8308,
      "duration": 0.3387,
      "velocity": 112,
      "chip": "ym2612"
    },
    {
      "channel": 1,
      "note": 69,
      "start": 58.8315,
      "duration": 2.1568,
      "velocity": 103,
      "chip": "ym2612"
    },
    {
      "channel": 2,
      "note": 79,
      "start": 58.8322,
      "duration": 1.7566,
      "velocity": 102,
      "chip": "ym2612"
    },
    {
      "channel": 3,
      "note": 86,
      "start": 58.8329,
      "duration": 1.7566,
      "velocity": 102,
      "chip": "ym2612"
    },
    {
      "channel": 5,
      "note": 67,
      "start": 58.8388,
      "duration": 0.167,
      "velocity": 113,
      "chip": "ym2612"
    },
    {
      "channel": 4,
      "note": 55,
      "start": 59.0033,
      "duration": 0.1691,
      "velocity": 127,
      "chip": "ym2612"
    },
    {
      "channel": 5,
      "note": 84,
      "start": 59.006,
      "duration": 0.5256,
      "velocity": 113,
      "chip": "ym2612"
    },
    {
      "channel": 0,
      "note": 62,
      "start": 59.1696,
      "duration": 0.8702,
      "velocity": 112,
      "chip": "ym2612"
    },
    {
      "channel": 4,
      "note": 50,
      "start": 59.1725,
      "duration": 0.0417,
      "velocity": 117,
      "chip": "ym2612"
    },
    {
      "channel": 4,
      "note": 55,
      "start": 59.2145,
      "duration": 0.3164,
      "velocity": 117,
      "chip": "ym2612"
    },
    {
      "channel": 4,
      "note": 55,
      "start": 59.5312,
      "duration": 0.1644,
      "velocity": 117,
      "chip": "ym2612"
    },
    {
      "channel": 5,
      "note": 84,
      "start": 59.5319,
      "duration": 0.3589,
      "velocity": 113,
      "chip": "ym2612"
    },
    {
      "channel": 4,
      "note": 55,
      "start": 59.6959,
      "duration": 0.0276,
      "velocity": 117,
      "chip": "ym2612"
    },
    {
      "channel": 4,
      "note": 55,
      "start": 59.7236,
      "duration": 0.1665,
      "velocity": 117,
      "chip": "ym2612"
    },
    {
      "channel": 4,
      "note": 55,
      "start": 59.8903,
      "duration": 0.1505,
      "velocity": 117,
      "chip": "ym2612"
    },
    {
      "channel": 5,
      "note": 84,
      "start": 59.8911,
      "duration": 0.3832,
      "velocity": 113,
      "chip": "ym2612"
    },
    {
      "channel": 0,
      "note": 62,
      "start": 60.04,
      "duration": 0.0221,
      "velocity": 112,
      "chip": "ym2612"
    },
    {
      "channel": 4,
      "note": 55,
      "start": 60.041,
      "duration": 0.024,
      "velocity": 127,
      "chip": "ym2612"
    },
    {
      "channel": 0,
      "note": 62,
      "start": 60.0623,
      "duration": 0.5257,
      "velocity": 112,
      "chip": "ym2612"
    },
    {
      "channel": 4,
      "note": 50,
      "start": 60.0652,
      "duration": 0.2084,
      "velocity": 117,
      "chip": "ym2612"
    },
    {
      "channel": 4,
      "note": 50,
      "start": 60.2738,
      "duration": 0.5034,
      "velocity": 117,
      "chip": "ym2612"
    },
    {
      "channel": 5,
      "note": 84,
      "start": 60.2746,
      "duration": 0.3381,
      "velocity": 127,
      "chip": "ym2612"
    },
    {
      "channel": 0,
      "note": 62,
      "start": 60.5882,
      "duration": 0.3387,
      "velocity": 112,
      "chip": "ym2612"
    },
    {
      "channel": 2,
      "note": 86,
      "start": 60.589,
      "duration": 1.7748,
      "velocity": 102,
      "chip": "ym2612"
    },
    {
      "channel": 3,
      "note": 78,
      "start": 60.5897,
      "duration": 1.7749,
      "velocity": 102,
      "chip": "ym2612"
    },
    {
      "channel": 5,
      "note": 67,
      "start": 60.6129,
      "duration": 0.167,
      "velocity": 113,
      "chip": "ym2612"
    },
    {
      "channel": 4,
      "note": 55,
      "start": 60.7774,
      "duration": 0.1524,
      "velocity": 127,
      "chip": "ym2612"
    },
    {
      "channel": 5,
      "note": 84,
      "start": 60.7801,
      "duration": 0.5237,
      "velocity": 113,
      "chip": "ym2612"
    },
    {
      "channel": 0,
      "note": 62,
      "start": 60.9271,
      "duration": 0.8869,
      "velocity": 112,
      "chip": "ym2612"
    },
    {
      "channel": 4,
      "note": 50,
      "start": 60.93,
      "duration": 0.0611,
      "velocity": 117,
      "chip": "ym2612"
    },
    {
      "channel": 1,
      "note": 74,
      "start": 60.9884,
      "duration": 0.4866,
      "velocity": 103,
      "chip": "ym2612"
    },
    {
      "channel": 4,
      "note": 55,
      "start": 60.9913,
      "duration": 0.3118,
      "velocity": 117,
      "chip": "ym2612"
    },
    {
      "channel": 4,
      "note": 55,
      "start": 61.3033,
      "duration": 0.1665,
      "velocity": 117,
      "chip": "ym2612"
    },
    {
      "channel": 5,
      "note": 84,
      "start": 61.3041,
      "duration": 0.3442,
      "velocity": 113,
      "chip": "ym2612"
    },
    {
      "channel": 4,
      "note": 55,
      "start": 61.47,
      "duration": 0.0276,
      "velocity": 117,
      "chip": "ym2612"
    },
    {
      "channel": 1,
      "note": 74,
      "start": 61.4753,
      "duration": 0.3393,
      "velocity": 103,
      "chip": "ym2612"
    },
    {
      "channel": 4,
      "note": 55,
      "start": 61.4979,
      "duration": 0.1498,
      "velocity": 117,
      "chip": "ym2612"
    },
    {
      "channel": 4,
      "note": 55,
      "start": 61.6478,
      "duration": 0.1678,
      "velocity": 117,
      "chip": "ym2612"
    },
    {
      "channel": 5,
      "note": 84,
      "start": 61.6486,
      "duration": 0.4005,
      "velocity": 113,
      "chip": "ym2612"
    },
    {
      "channel": 0,
      "note": 62,
      "start": 61.8142,
      "duration": 0.022,
      "velocity": 112,
      "chip": "ym2612"
    },
    {
      "channel": 1,
      "note": 71,
      "start": 61.8149,
      "duration": 0.2306,
      "velocity": 103,
      "chip": "ym2612"
    },
    {
      "channel": 4,
      "note": 55,
      "start": 61.8158,
      "duration": 0.0233,
      "velocity": 127,
      "chip": "ym2612"
    },
    {
      "channel": 0,
      "note": 62,
      "start": 61.8364,
      "duration": 0.5259,
      "velocity": 112,
      "chip": "ym2612"
    },
    {
      "channel": 4,
      "note": 50,
      "start": 61.8394,
      "duration": 0.209,
      "velocity": 117,
      "chip": "ym2612"
    },
    {
      "channel": 1,
      "note": 69,
      "start": 62.0458,
      "duration": 0.3173,
      "velocity": 103,
      "chip": "ym2612"
    },
    {
      "channel": 4,
      "note": 50,
      "start": 62.0485,
      "duration": 0.4861,
      "velocity": 117,
      "chip": "ym2612"
    },
    {
      "channel": 5,
      "note": 84,
      "start": 62.0493,
      "duration": 0.3375,
      "velocity": 127,
      "chip": "ym2612"
    },
    {
      "channel": 0,
      "note": 59,
      "start": 62.3625,
      "duration": 0.3385,
      "velocity": 112,
      "chip": "ym2612"
    },
    {
      "channel": 1,
      "note": 71,
      "start": 62.3632,
      "duration": 2.1565,
      "velocity": 103,
      "chip": "ym2612"
    },
    {
      "channel": 2,
      "note": 83,
      "start": 62.364,
      "duration": 1.773,
      "velocity": 102,
      "chip": "ym2612"
    },
    {
      "channel": 3,
      "note": 86,
      "start": 62.3648,
      "duration": 1.7729,
      "velocity": 102,
      "chip": "ym2612"
    },
    {
      "channel": 5,
      "note": 67,
      "start": 62.3871,
      "duration": 0.1503,
      "velocity": 113,
      "chip": "ym2612"
    },
    {
      "channel": 4,
      "note": 54,
      "start": 62.5349,
      "duration": 0.169,
      "velocity": 127,
      "chip": "ym2612"
    },
    {
      "channel": 5,
      "note": 84,
      "start": 62.5376,
      "duration": 0.5422,
      "velocity": 113,
      "chip": "ym2612"
    },
    {
      "channel": 0,
      "note": 59,
      "start": 62.7012,
      "duration": 0.8869,
      "velocity": 112,
      "chip": "ym2612"
    },
    {
      "channel": 4,
      "note": 50,
      "start": 62.7041,
      "duration": 0.0417,
      "velocity": 117,
      "chip": "ym2612"
    },
    {
      "channel": 4,
      "note": 54,
      "start": 62.7461,
      "duration": 0.3331,
      "velocity": 117,
      "chip": "ym2612"
    },
    {
      "channel": 4,
      "note": 50,
      "start": 63.0794,
      "duration": 0.1478,
      "velocity": 117,
      "chip": "ym2612"
    },
    {
      "channel": 5,
      "note": 84,
      "start": 63.0801,
      "duration": 0.3423,
      "velocity": 113,
      "chip": "ym2612"
    },
    {
      "channel": 4,
      "note": 54,
      "start": 63.2275,
      "duration": 0.0276,
      "velocity": 117,
      "chip": "ym2612"
    },
    {
      "channel": 4,
      "note": 54,
      "start": 63.2553,
      "duration": 0.1665,
      "velocity": 117,
      "chip": "ym2612"
    },
    {
      "channel": 4,
      "note": 54,
      "start": 63.4219,
      "duration": 0.1671,
      "velocity": 117,
      "chip": "ym2612"
    },
    {
      "channel": 5,
      "note": 84,
      "start": 63.4227,
      "duration": 0.3833,
      "velocity": 113,
      "chip": "ym2612"
    },
    {
      "channel": 0,
      "note": 59,
      "start": 63.5883,
      "duration": 0.0054,
      "velocity": 112,
      "chip": "ym2612"
    },
    {
      "channel": 4,
      "note": 54,
      "start": 63.5893,
      "duration": 0.0073,
      "velocity": 127,
      "chip": "ym2612"
    },
    {
      "channel": 0,
      "note": 59,
      "start": 63.5939,
      "duration": 0.2128,
      "velocity": 112,
      "chip": "ym2612"
    },
    {
      "channel": 4,
      "note": 50,
      "start": 63.5968,
      "duration": 0.2085,
      "velocity": 117,
      "chip": "ym2612"
    },
    {
      "channel": 4,
      "note": 50,
      "start": 63.8056,
      "duration": 0.5032,
      "velocity": 117,
      "chip": "ym2612"
    },
    {
      "channel": 5,
      "note": 84,
      "start": 63.8063,
      "duration": 0.3379,
      "velocity": 127,
      "chip": "ym2612"
    },
    {
      "channel": 0,
      "note": 59,
      "start": 63.8066,
      "duration": 0.0291,
      "velocity": 112,
      "chip": "ym2612"
    },
    {
      "channel": 0,
      "note": 58,
      "start": 63.8358,
      "duration": 0.0167,
      "velocity": 112,
      "chip": "ym2612"
    },
    {
      "channel": 0,
      "note": 58,
      "start": 63.8524,
      "duration": 0.0167,
      "velocity": 112,
      "chip": "ym2612"
    },
    {
      "channel": 0,
      "note": 57,
      "start": 63.8691,
      "duration": 0.0167,
      "velocity": 112,
      "chip": "ym2612"
    },
    {
      "channel": 0,
      "note": 57,
      "start": 63.8858,
      "duration": 0.0167,
      "velocity": 112,
      "chip": "ym2612"
    },
    {
      "channel": 0,
      "note": 57,
      "start": 63.9024,
      "duration": 0.0333,
      "velocity": 112,
      "chip": "ym2612"
    },
    {
      "channel": 0,
      "note": 56,
      "start": 63.9358,
      "duration": 0.0167,
      "velocity": 112,
      "chip": "ym2612"
    },
    {
      "channel": 0,
      "note": 56,
      "start": 63.9524,
      "duration": 0.0333,
      "velocity": 112,
      "chip": "ym2612"
    },
    {
      "channel": 0,
      "note": 56,
      "start": 63.9858,
      "duration": 0.0167,
      "velocity": 112,
      "chip": "ym2612"
    },
    {
      "channel": 0,
      "note": 55,
      "start": 64.0024,
      "duration": 0.0333,
      "velocity": 112,
      "chip": "ym2612"
    },
    {
      "channel": 0,
      "note": 55,
      "start": 64.0358,
      "duration": 0.0167,
      "velocity": 112,
      "chip": "ym2612"
    },
    {
      "channel": 0,
      "note": 55,
      "start": 64.0524,
      "duration": 0.0167,
      "velocity": 112,
      "chip": "ym2612"
    },
    {
      "channel": 0,
      "note": 55,
      "start": 64.0691,
      "duration": 0.0167,
      "velocity": 112,
      "chip": "ym2612"
    },
    {
      "channel": 0,
      "note": 54,
      "start": 64.0858,
      "duration": 0.0167,
      "velocity": 112,
      "chip": "ym2612"
    },
    {
      "channel": 0,
      "note": 54,
      "start": 64.1024,
      "duration": 0.0338,
      "velocity": 112,
      "chip": "ym2612"
    },
    {
      "channel": 0,
      "note": 52,
      "start": 64.1365,
      "duration": 0.322,
      "velocity": 112,
      "chip": "ym2612"
    },
    {
      "channel": 2,
      "note": 88,
      "start": 64.1372,
      "duration": 1.7573,
      "velocity": 102,
      "chip": "ym2612"
    },
    {
      "channel": 3,
      "note": 83,
      "start": 64.1379,
      "duration": 1.7573,
      "velocity": 102,
      "chip": "ym2612"
    },
    {
      "channel": 5,
      "note": 67,
      "start": 64.1444,
      "duration": 0.167,
      "velocity": 113,
      "chip": "ym2612"
    },
    {
      "channel": 4,
      "note": 56,
      "start": 64.309,
      "duration": 0.1524,
      "velocity": 127,
      "chip": "ym2612"
    },
    {
      "channel": 5,
      "note": 84,
      "start": 64.3117,
      "duration": 0.5237,
      "velocity": 113,
      "chip": "ym2612"
    },
    {
      "channel": 0,
      "note": 52,
      "start": 64.4586,
      "duration": 0.8868,
      "velocity": 112,
      "chip": "ym2612"
    },
    {
      "channel": 4,
      "note": 50,
      "start": 64.4616,
      "duration": 0.061,
      "velocity": 117,
      "chip": "ym2612"
    },
    {
      "channel": 1,
      "note": 71,
      "start": 64.52,
      "duration": 0.4866,
      "velocity": 103,
      "chip": "ym2612"
    },
    {
      "channel": 4,
      "note": 56,
      "start": 64.5228,
      "duration": 0.3118,
      "velocity": 117,
      "chip": "ym2612"
    },
    {
      "channel": 4,
      "note": 52,
      "start": 64.8349,
      "duration": 0.1665,
      "velocity": 117,
      "chip": "ym2612"
    },
    {
      "channel": 5,
      "note": 84,
      "start": 64.8356,
      "duration": 0.3609,
      "velocity": 113,
      "chip": "ym2612"
    },
    {
      "channel": 4,
      "note": 56,
      "start": 65.0015,
      "duration": 0.0277,
      "velocity": 117,
      "chip": "ym2612"
    },
    {
      "channel": 1,
      "note": 72,
      "start": 65.0069,
      "duration": 0.3616,
      "velocity": 103,
      "chip": "ym2612"
    },
    {
      "channel": 4,
      "note": 56,
      "start": 65.0294,
      "duration": 0.1664,
      "velocity": 117,
      "chip": "ym2612"
    },
    {
      "channel": 4,
      "note": 56,
      "start": 65.196,
      "duration": 0.1505,
      "velocity": 117,
      "chip": "ym2612"
    },
    {
      "channel": 5,
      "note": 84,
      "start": 65.1968,
      "duration": 0.3839,
      "velocity": 113,
      "chip": "ym2612"
    },
    {
      "channel": 0,
      "note": 52,
      "start": 65.3457,
      "duration": 0.0222,
      "velocity": 112,
      "chip": "ym2612"
    },
    {
      "channel": 4,
      "note": 56,
      "start": 65.3467,
      "duration": 0.0246,
      "velocity": 127,
      "chip": "ym2612"
    },
    {
      "channel": 0,
      "note": 52,
      "start": 65.368,
      "duration": 0.5257,
      "velocity": 112,
      "chip": "ym2612"
    },
    {
      "channel": 1,
      "note": 74,
      "start": 65.3687,
      "duration": 0.2083,
      "velocity": 103,
      "chip": "ym2612"
    },
    {
      "channel": 4,
      "note": 50,
      "start": 65.3715,
      "duration": 0.2084,
      "velocity": 117,
      "chip": "ym2612"
    },
    {
      "channel": 1,
      "note": 72,
      "start": 65.5773,
      "duration": 3.5332,
      "velocity": 103,
      "chip": "ym2612"
    },
    {
      "channel": 4,
      "note": 52,
      "start": 65.5801,
      "duration": 0.4861,
      "velocity": 117,
      "chip": "ym2612"
    },
    {
      "channel": 5,
      "note": 84,
      "start": 65.5809,
      "duration": 0.3375,
      "velocity": 127,
      "chip": "ym2612"
    },
    {
      "channel": 0,
      "note": 57,
      "start": 65.8939,
      "duration": 0.3387,
      "velocity": 112,
      "chip": "ym2612"
    },
    {
      "channel": 2,
      "note": 88,
      "start": 65.8947,
      "duration": 1.7739,
      "velocity": 102,
      "chip": "ym2612"
    },
    {
      "channel": 3,
      "note": 84,
      "start": 65.8954,
      "duration": 1.7739,
      "velocity": 102,
      "chip": "ym2612"
    },
    {
      "channel": 5,
      "note": 67,
      "start": 65.9186,
      "duration": 0.1503,
      "velocity": 113,
      "chip": "ym2612"
    },
    {
      "channel": 4,
      "note": 57,
      "start": 66.0665,
      "duration": 0.1691,
      "velocity": 127,
      "chip": "ym2612"
    },
    {
      "channel": 5,
      "note": 84,
      "start": 66.0692,
      "duration": 0.5403,
      "velocity": 113,
      "chip": "ym2612"
    },
    {
      "channel": 0,
      "note": 57,
      "start": 66.2328,
      "duration": 0.8869,
      "velocity": 112,
      "chip": "ym2612"
    },
    {
      "channel": 4,
      "note": 50,
      "start": 66.2357,
      "duration": 0.0604,
      "velocity": 117,
      "chip": "ym2612"
    },
    {
      "channel": 4,
      "note": 57,
      "start": 66.2964,
      "duration": 0.3125,
      "velocity": 117,
      "chip": "ym2612"
    },
    {
      "channel": 4,
      "note": 52,
      "start": 66.609,
      "duration": 0.1498,
      "velocity": 117,
      "chip": "ym2612"
    },
    {
      "channel": 5,
      "note": 84,
      "start": 66.6098,
      "duration": 0.3442,
      "velocity": 113,
      "chip": "ym2612"
    },
    {
      "channel": 4,
      "note": 57,
      "start": 66.759,
      "duration": 0.0443,
      "velocity": 117,
      "chip": "ym2612"
    },
    {
      "channel": 4,
      "note": 57,
      "start": 66.8035,
      "duration": 0.1498,
      "velocity": 117,
      "chip": "ym2612"
    },
    {
      "channel": 4,
      "note": 57,
      "start": 66.9535,
      "duration": 0.1671,
      "velocity": 117,
      "chip": "ym2612"
    },
    {
      "channel": 5,
      "note": 84,
      "start": 66.9543,
      "duration": 0.3998,
      "velocity": 113,
      "chip": "ym2612"
    },
    {
      "channel": 0,
      "note": 57,
      "start": 67.1199,
      "duration": 0.0054,
      "velocity": 112,
      "chip": "ym2612"
    },
    {
      "channel": 4,
      "note": 57,
      "start": 67.1209,
      "duration": 0.0073,
      "velocity": 127,
      "chip": "ym2612"
    },
    {
      "channel": 0,
      "note": 57,
      "start": 67.1254,
      "duration": 0.5424,
      "velocity": 112,
      "chip": "ym2612"
    },
    {
      "channel": 4,
      "note": 50,
      "start": 67.1284,
      "duration": 0.2251,
      "velocity": 117,
      "chip": "ym2612"
    },
    {
      "channel": 4,
      "note": 52,
      "start": 67.3536,
      "duration": 0.4867,
      "velocity": 117,
      "chip": "ym2612"
    },
    {
      "channel": 5,
      "note": 84,
      "start": 67.3543,
      "duration": 0.3214,
      "velocity": 127,
      "chip": "ym2612"
    },
    {
      "channel": 0,
      "note": 51,
      "start": 67.6681,
      "duration": 0.3386,
      "velocity": 112,
      "chip": "ym2612"
    },
    {
      "channel": 2,
      "note": 87,
      "start": 67.6688,
      "duration": 1.7581,
      "velocity": 102,
      "chip": "ym2612"
    },
    {
      "channel": 3,
      "note": 84,
      "start": 67.6695,
      "duration": 1.7582,
      "velocity": 102,
      "chip": "ym2612"
    },
    {
      "channel": 5,
      "note": 67,
      "start": 67.676,
      "duration": 0.167,
      "velocity": 113,
      "chip": "ym2612"
    },
    {
      "channel": 4,
      "note": 57,
      "start": 67.8405,
      "duration": 0.1691,
      "velocity": 127,
      "chip": "ym2612"
    },
    {
      "channel": 5,
      "note": 84,
      "start": 67.8433,
      "duration": 0.5237,
      "velocity": 113,
      "chip": "ym2612"
    },
    {
      "channel": 0,
      "note": 51,
      "start": 68.0069,
      "duration": 0.8702,
      "velocity": 112,
      "chip": "ym2612"
    },
    {
      "channel": 4,
      "note": 50,
      "start": 68.0098,
      "duration": 0.0417,
      "velocity": 117,
      "chip": "ym2612"
    },
    {
      "channel": 4,
      "note": 57,
      "start": 68.0518,
      "duration": 0.3144,
      "velocity": 117,
      "chip": "ym2612"
    },
    {
      "channel": 4,
      "note": 54,
      "start": 68.3664,
      "duration": 0.1665,
      "velocity": 117,
      "chip": "ym2612"
    },
    {
      "channel": 5,
      "note": 84,
      "start": 68.3672,
      "duration": 0.3608,
      "velocity": 113,
      "chip": "ym2612"
    },
    {
      "channel": 4,
      "note": 57,
      "start": 68.5331,
      "duration": 0.0276,
      "velocity": 117,
      "chip": "ym2612"
    },
    {
      "channel": 4,
      "note": 57,
      "start": 68.5609,
      "duration": 0.1665,
      "velocity": 117,
      "chip": "ym2612"
    },
    {
      "channel": 4,
      "note": 57,
      "start": 68.7275,
      "duration": 0.1505,
      "velocity": 117,
      "chip": "ym2612"
    },
    {
      "channel": 5,
      "note": 84,
      "start": 68.7283,
      "duration": 0.3858,
      "velocity": 113,
      "chip": "ym2612"
    },
    {
      "channel": 0,
      "note": 51,
      "start": 68.8772,
      "duration": 0.0221,
      "velocity": 112,
      "chip": "ym2612"
    },
    {
      "channel": 4,
      "note": 57,
      "start": 68.8782,
      "duration": 0.024,
      "velocity": 127,
      "chip": "ym2612"
    },
    {
      "channel": 0,
      "note": 51,
      "start": 68.8995,
      "duration": 0.5259,
      "velocity": 112,
      "chip": "ym2612"
    },
    {
      "channel": 4,
      "note": 50,
      "start": 68.9024,
      "duration": 0.211,
      "velocity": 117,
      "chip": "ym2612"
    },
    {
      "channel": 1,
      "note": 67,
      "start": 69.1108,
      "duration": 0.3153,
      "velocity": 103,
      "chip": "ym2612"
    },
    {
      "channel": 4,
      "note": 54,
      "start": 69.1136,
      "duration": 0.5009,
      "velocity": 117,
      "chip": "ym2612"
    },
    {
      "channel": 5,
      "note": 84,
      "start": 69.1144,
      "duration": 0.3356,
      "velocity": 127,
      "chip": "ym2612"
    },
    {
      "channel": 0,
      "note": 50,
      "start": 69.4256,
      "duration": 0.3386,
      "velocity": 112,
      "chip": "ym2612"
    },
    {
      "channel": 1,
      "note": 74,
      "start": 69.4263,
      "duration": 0.7137,
      "velocity": 103,
      "chip": "ym2612"
    },
    {
      "channel": 2,
      "note": 79,
      "start": 69.4271,
      "duration": 1.7731,
      "velocity": 102,
      "chip": "ym2612"
    },
    {
      "channel": 3,
      "note": 74,
      "start": 69.4279,
      "duration": 1.773,
      "velocity": 102,
      "chip": "ym2612"
    },
    {
      "channel": 5,
      "note": 67,
      "start": 69.4502,
      "duration": 0.167,
      "velocity": 113,
      "chip": "ym2612"
    },
    {
      "channel": 4,
      "note": 55,
      "start": 69.6147,
      "duration": 0.1524,
      "velocity": 127,
      "chip": "ym2612"
    },
    {
      "channel": 5,
      "note": 84,
      "start": 69.6174,
      "duration": 0.5243,
      "velocity": 113,
      "chip": "ym2612"
    },
    {
      "channel": 0,
      "note": 50,
      "start": 69.7643,
      "duration": 0.8869,
      "velocity": 112,
      "chip": "ym2612"
    },
    {
      "channel": 4,
      "note": 50,
      "start": 69.7673,
      "duration": 0.0584,
      "velocity": 117,
      "chip": "ym2612"
    },
    {
      "channel": 4,
      "note": 55,
      "start": 69.8259,
      "duration": 0.3151,
      "velocity": 117,
      "chip": "ym2612"
    },
    {
      "channel": 1,
      "note": 71,
      "start": 70.1404,
      "duration": 0.1665,
      "velocity": 103,
      "chip": "ym2612"
    },
    {
      "channel": 4,
      "note": 55,
      "start": 70.1412,
      "duration": 0.1664,
      "velocity": 117,
      "chip": "ym2612"
    },
    {
      "channel": 5,
      "note": 84,
      "start": 70.142,
      "duration": 0.3436,
      "velocity": 113,
      "chip": "ym2612"
    },
    {
      "channel": 1,
      "note": 69,
      "start": 70.307,
      "duration": 0.0053,
      "velocity": 103,
      "chip": "ym2612"
    },
    {
      "channel": 4,
      "note": 55,
      "start": 70.3079,
      "duration": 0.027,
      "velocity": 117,
      "chip": "ym2612"
    },
    {
      "channel": 1,
      "note": 67,
      "start": 70.3126,
      "duration": 1.6036,
      "velocity": 103,
      "chip": "ym2612"
    },
    {
      "channel": 4,
      "note": 55,
      "start": 70.3351,
      "duration": 0.1498,
      "velocity": 117,
      "chip": "ym2612"
    },
    {
      "channel": 4,
      "note": 55,
      "start": 70.4851,
      "duration": 0.1671,
      "velocity": 117,
      "chip": "ym2612"
    },
    {
      "channel": 5,
      "note": 84,
      "start": 70.4859,
      "duration": 0.4018,
      "velocity": 113,
      "chip": "ym2612"
    },
    {
      "channel": 0,
      "note": 50,
      "start": 70.6514,
      "duration": 0.0221,
      "velocity": 112,
      "chip": "ym2612"
    },
    {
      "channel": 4,
      "note": 55,
      "start": 70.6524,
      "duration": 0.024,
      "velocity": 127,
      "chip": "ym2612"
    },
    {
      "channel": 0,
      "note": 50,
      "start": 70.6737,
      "duration": 0.5257,
      "velocity": 112,
      "chip": "ym2612"
    },
    {
      "channel": 4,
      "note": 50,
      "start": 70.6766,
      "duration": 0.2104,
      "velocity": 117,
      "chip": "ym2612"
    },
    {
      "channel": 4,
      "note": 50,
      "start": 70.8872,
      "duration": 0.4847,
      "velocity": 117,
      "chip": "ym2612"
    },
    {
      "channel": 5,
      "note": 84,
      "start": 70.8879,
      "duration": 0.3361,
      "velocity": 127,
      "chip": "ym2612"
    },
    {
      "channel": 0,
      "note": 50,
      "start": 71.1996,
      "duration": 0.3386,
      "velocity": 112,
      "chip": "ym2612"
    },
    {
      "channel": 2,
      "note": 81,
      "start": 71.2004,
      "duration": 1.7746,
      "velocity": 102,
      "chip": "ym2612"
    },
    {
      "channel": 3,
      "note": 86,
      "start": 71.2011,
      "duration": 1.7746,
      "velocity": 102,
      "chip": "ym2612"
    },
    {
      "channel": 5,
      "note": 67,
      "start": 71.2242,
      "duration": 0.1503,
      "velocity": 113,
      "chip": "ym2612"
    },
    {
      "channel": 4,
      "note": 55,
      "start": 71.3721,
      "duration": 0.1691,
      "velocity": 127,
      "chip": "ym2612"
    },
    {
      "channel": 5,
      "note": 84,
      "start": 71.3748,
      "duration": 0.5429,
      "velocity": 113,
      "chip": "ym2612"
    },
    {
      "channel": 0,
      "note": 50,
      "start": 71.5384,
      "duration": 0.8869,
      "velocity": 112,
      "chip": "ym2612"
    },
    {
      "channel": 4,
      "note": 50,
      "start": 71.5414,
      "duration": 0.0417,
      "velocity": 117,
      "chip": "ym2612"
    },
    {
      "channel": 4,
      "note": 55,
      "start": 71.5834,
      "duration": 0.3337,
      "velocity": 117,
      "chip": "ym2612"
    },
    {
      "channel": 1,
      "note": 71,
      "start": 71.9164,
      "duration": 0.17,
      "velocity": 103,
      "chip": "ym2612"
    },
    {
      "channel": 4,
      "note": 55,
      "start": 71.9173,
      "duration": 0.1471,
      "velocity": 117,
      "chip": "ym2612"
    },
    {
      "channel": 5,
      "note": 84,
      "start": 71.918,
      "duration": 0.3416,
      "velocity": 113,
      "chip": "ym2612"
    },
    {
      "channel": 4,
      "note": 55,
      "start": 72.0647,
      "duration": 0.0276,
      "velocity": 117,
      "chip": "ym2612"
    },
    {
      "channel": 1,
      "note": 72,
      "start": 72.0867,
      "duration": 0.3393,
      "velocity": 103,
      "chip": "ym2612"
    },
    {
      "channel": 4,
      "note": 55,
      "start": 72.0925,
      "duration": 0.1664,
      "velocity": 117,
      "chip": "ym2612"
    },
    {
      "channel": 4,
      "note": 55,
      "start": 72.2591,
      "duration": 0.1678,
      "velocity": 117,
      "chip": "ym2612"
    },
    {
      "channel": 5,
      "note": 84,
      "start": 72.2599,
      "duration": 0.3838,
      "velocity": 113,
      "chip": "ym2612"
    },
    {
      "channel": 0,
      "note": 50,
      "start": 72.4256,
      "duration": 0.0054,
      "velocity": 112,
      "chip": "ym2612"
    },
    {
      "channel": 1,
      "note": 71,
      "start": 72.4263,
      "duration": 0.2139,
      "velocity": 103,
      "chip": "ym2612"
    },
    {
      "channel": 4,
      "note": 55,
      "start": 72.4271,
      "duration": 0.0066,
      "velocity": 127,
      "chip": "ym2612"
    },
    {
      "channel": 0,
      "note": 50,
      "start": 72.4311,
      "duration": 0.5424,
      "velocity": 112,
      "chip": "ym2612"
    },
    {
      "channel": 4,
      "note": 50,
      "start": 72.434,
      "duration": 0.209,
      "velocity": 117,
      "chip": "ym2612"
    },
    {
      "channel": 1,
      "note": 69,
      "start": 72.6404,
      "duration": 0.3338,
      "velocity": 103,
      "chip": "ym2612"
    },
    {
      "channel": 4,
      "note": 50,
      "start": 72.6432,
      "duration": 0.3351,
      "velocity": 102,
      "chip": "ym2612"
    },
    {
      "channel": 5,
      "note": 84,
      "start": 72.644,
      "duration": 0.3377,
      "velocity": 127,
      "chip": "ym2612"
    },
    {
      "channel": 0,
      "note": 60,
      "start": 72.9738,
      "duration": 0.3218,
      "velocity": 112,
      "chip": "ym2612"
    },
    {
      "channel": 1,
      "note": 69,
      "start": 72.9744,
      "duration": 1.759,
      "velocity": 103,
      "chip": "ym2612"
    },
    {
      "channel": 2,
      "note": 88,
      "start": 72.9751,
      "duration": 0.8687,
      "velocity": 102,
      "chip": "ym2612"
    },
    {
      "channel": 3,
      "note": 84,
      "start": 72.9759,
      "duration": 0.8687,
      "velocity": 102,
      "chip": "ym2612"
    },
    {
      "channel": 4,
      "note": 79,
      "start": 72.9785,
      "duration": 0.8668,
      "velocity": 102,
      "chip": "ym2612"
    },
    {
      "channel": 5,
      "note": 67,
      "start": 72.9819,
      "duration": 0.166,
      "velocity": 113,
      "chip": "ym2612"
    },
    {
      "channel": 5,
      "note": 84,
      "start": 73.1481,
      "duration": 0.5257,
      "velocity": 113,
      "chip": "ym2612"
    },
    {
      "channel": 0,
      "note": 60,
      "start": 73.2958,
      "duration": 0.8869,
      "velocity": 112,
      "chip": "ym2612"
    },
    {
      "channel": 5,
      "note": 84,
      "start": 73.6741,
      "duration": 0.359,
      "velocity": 113,
      "chip": "ym2612"
    },
    {
      "channel": 2,
      "note": 84,
      "start": 73.8441,
      "duration": 0.8901,
      "velocity": 102,
      "chip": "ym2612"
    },
    {
      "channel": 3,
      "note": 79,
      "start": 73.8448,
      "duration": 0.8901,
      "velocity": 102,
      "chip": "ym2612"
    },
    {
      "channel": 4,
      "note": 76,
      "start": 73.8455,
      "duration": 0.8901,
      "velocity": 102,
      "chip": "ym2612"
    },
    {
      "channel": 5,
      "note": 84,
      "start": 74.0333,
      "duration": 0.3812,
      "velocity": 113,
      "chip": "ym2612"
    },
    {
      "channel": 0,
      "note": 60,
      "start": 74.1828,
      "duration": 0.0221,
      "velocity": 112,
      "chip": "ym2612"
    },
    {
      "channel": 0,
      "note": 60,
      "start": 74.2051,
      "duration": 0.5258,
      "velocity": 112,
      "chip": "ym2612"
    },
    {
      "channel": 5,
      "note": 84,
      "start": 74.4147,
      "duration": 0.3408,
      "velocity": 127,
      "chip": "ym2612"
    },
    {
      "channel": 0,
      "note": 55,
      "start": 74.7311,
      "duration": 19.9752,
      "velocity": 112,
      "chip": "ym2612"
    },
    {
      "channel": 1,
      "note": 67,
      "start": 74.7337,
      "duration": 19.9726,
      "velocity": 103,
      "chip": "ym2612"
    },
    {
      "channel": 2,
      "note": 83,
      "start": 74.7344,
      "duration": 19.9719,
      "velocity": 102,
      "chip": "ym2612"
    },
    {
      "channel": 3,
      "note": 79,
      "start": 74.7351,
      "duration": 19.9712,
      "velocity": 102,
      "chip": "ym2612"
    },
    {
      "channel": 4,
      "note": 74,
      "start": 74.7359,
      "duration": 1.9436,
      "velocity": 113,
      "chip": "ym2612"
    },
    {
      "channel": 5,
      "note": 67,
      "start": 74.7557,
      "duration": 0.1496,
      "velocity": 113,
      "chip": "ym2612"
    },
    {
      "channel": 5,
      "note": 84,
      "start": 74.9056,
      "duration": 0.5424,
      "velocity": 113,
      "chip": "ym2612"
    },
    {
      "channel": 5,
      "note": 84,
      "start": 75.4482,
      "duration": 0.3422,
      "velocity": 113,
      "chip": "ym2612"
    },
    {
      "channel": 5,
      "note": 84,
      "start": 75.7907,
      "duration": 0.3978,
      "velocity": 113,
      "chip": "ym2612"
    },
    {
      "channel": 5,
      "note": 84,
      "start": 76.1889,
      "duration": 0.4932,
      "velocity": 127,
      "chip": "ym2612"
    },
    {
      "channel": 4,
      "note": 84,
      "start": 76.6796,
      "duration": 0.6312,
      "velocity": 113,
      "chip": "ym2612"
    },
    {
      "channel": 5,
      "note": 55,
      "start": 76.6823,
      "duration": 0.3119,
      "velocity": 127,
      "chip": "ym2612"
    },
    {
      "channel": 5,
      "note": 91,
      "start": 76.9944,
      "duration": 0.317,
      "velocity": 127,
      "chip": "ym2612"
    },
    {
      "channel": 4,
      "note": 84,
      "start": 77.311,
      "duration": 0.6498,
      "velocity": 113,
      "chip": "ym2612"
    },
    {
      "channel": 5,
      "note": 67,
      "start": 77.3117,
      "duration": 0.3324,
      "velocity": 127,
      "chip": "ym2612"
    },
    {
      "channel": 5,
      "note": 91,
      "start": 77.6444,
      "duration": 0.317,
      "velocity": 127,
      "chip": "ym2612"
    },
    {
      "channel": 4,
      "note": 84,
      "start": 77.961,
      "duration": 0.5336,
      "velocity": 113,
      "chip": "ym2612"
    },
    {
      "channel": 5,
      "note": 55,
      "start": 77.9617,
      "duration": 0.2162,
      "velocity": 127,
      "chip": "ym2612"
    },
    {
      "channel": 5,
      "note": 91,
      "start": 78.1781,
      "duration": 0.3171,
      "velocity": 127,
      "chip": "ym2612"
    },
    {
      "channel": 4,
      "note": 84,
      "start": 78.4947,
      "duration": 16.2116,
      "velocity": 113,
      "chip": "ym2612"
    },
    {
      "channel": 5,
      "note": 67,
      "start": 78.4955,
      "duration": 16.2108,
      "velocity": 127,
      "chip": "ym2612"
    }
  ]
}