{
  "track_name": "01 - Amia Amirski - Main Theme",
  "duration_sec": 38.925,
  "sample_rate": 44100,
  "note_count": 691,
  "unique_pitches": 24,
  "pitch_range": 75,
  "avg_note_duration": 0.2626,
  "reconstruction_stats": {
    "notes_reconstructed": 691,
    "keyon_events": 691,
    "keyoff_events": 687,
    "orphan_keyons": 4,
    "unique_pitches": 24,
    "pitch_range": 75,
    "avg_duration_sec": 0.2626
  },
  "metadata": {
    "source": "P\\Phantasy Star II Text Adventures\\01 - Amia Amirski - Main Theme.vgz"
  },
  "notes": [
    {
      "channel": 1,
      "note": 54,
      "start": 0.0631,
      "duration": 0.2452,
      "velocity": 80,
      "chip": "ym2612"
    },
    {
      "channel": 4,
      "note": 66,
      "start": 0.0694,
      "duration": 0.2397,
      "velocity": 113,
      "chip": "ym2612"
    },
    {
      "channel": 2,
      "note": 25,
      "start": 0.076,
      "duration": 0.2347,
      "velocity": 79,
      "chip": "ym2612"
    },
    {
      "channel": 1,
      "note": 57,
      "start": 0.3089,
      "duration": 0.2327,
      "velocity": 80,
      "chip": "ym2612"
    },
    {
      "channel": 4,
      "note": 73,
      "start": 0.3097,
      "duration": 0.2328,
      "velocity": 113,
      "chip": "ym2612"
    },
    {
      "channel": 5,
      "note": 69,
      "start": 0.3105,
      "duration": 0.2327,
      "velocity": 113,
      "chip": "ym2612"
    },
    {
      "channel": 1,
      "note": 54,
      "start": 0.5422,
      "duration": 0.116,
      "velocity": 80,
      "chip": "ym2612"
    },
    {
      "channel": 4,
      "note": 66,
      "start": 0.543,
      "duration": 0.1161,
      "velocity": 113,
      "chip": "ym2612"
    },
    {
      "channel": 2,
      "note": 70,
      "start": 0.547,
      "duration": 0.2458,
      "velocity": 127,
      "chip": "ym2612"
    },
    {
      "channel": 1,
      "note": 60,
      "start": 0.6589,
      "duration": 0.2494,
      "velocity": 80,
      "chip": "ym2612"
    },
    {
      "channel": 4,
      "note": 73,
      "start": 0.6598,
      "duration": 0.2494,
      "velocity": 113,
      "chip": "ym2612"
    },
    {
      "channel": 5,
      "note": 69,
      "start": 0.6605,
      "duration": 0.2493,
      "velocity": 113,
      "chip": "ym2612"
    },
    {
      "channel": 1,
      "note": 54,
      "start": 0.9089,
      "duration": 0.116,
      "velocity": 80,
      "chip": "ym2612"
    },
    {
      "channel": 4,
      "note": 66,
      "start": 0.9097,
      "duration": 0.1161,
      "velocity": 113,
      "chip": "ym2612"
    },
    {
      "channel": 1,
      "note": 61,
      "start": 1.0255,
      "duration": 0.2327,
      "velocity": 80,
      "chip": "ym2612"
    },
    {
      "channel": 4,
      "note": 73,
      "start": 1.0264,
      "duration": 0.2327,
      "velocity": 113,
      "chip": "ym2612"
    },
    {
      "channel": 5,
      "note": 69,
      "start": 1.0272,
      "duration": 0.2327,
      "velocity": 113,
      "chip": "ym2612"
    },
    {
      "channel": 2,
      "note": 25,
      "start": 1.0307,
      "duration": 0.2322,
      "velocity": 79,
      "chip": "ym2612"
    },
    {
      "channel": 1,
      "note": 54,
      "start": 1.2589,
      "duration": 0.1327,
      "velocity": 80,
      "chip": "ym2612"
    },
    {
      "channel": 4,
      "note": 66,
      "start": 1.2597,
      "duration": 0.1328,
      "velocity": 113,
      "chip": "ym2612"
    },
    {
      "channel": 2,
      "note": 25,
      "start": 1.2636,
      "duration": 0.2487,
      "velocity": 127,
      "chip": "ym2612"
    },
    {
      "channel": 1,
      "note": 66,
      "start": 1.3922,
      "duration": 0.2327,
      "velocity": 80,
      "chip": "ym2612"
    },
    {
      "channel": 4,
      "note": 73,
      "start": 1.3931,
      "duration": 0.2327,
      "velocity": 113,
      "chip": "ym2612"
    },
    {
      "channel": 5,
      "note": 69,
      "start": 1.3939,
      "duration": 0.2327,
      "velocity": 113,
      "chip": "ym2612"
    },
    {
      "channel": 2,
      "note": 70,
      "start": 1.5129,
      "duration": 0.1168,
      "velocity": 79,
      "chip": "ym2612"
    },
    {
      "channel": 1,
      "note": 54,
      "start": 1.6255,
      "duration": 0.116,
      "velocity": 80,
      "chip": "ym2612"
    },
    {
      "channel": 4,
      "note": 66,
      "start": 1.6263,
      "duration": 0.1161,
      "velocity": 113,
      "chip": "ym2612"
    },
    {
      "channel": 2,
      "note": 25,
      "start": 1.6302,
      "duration": 0.2292,
      "velocity": 79,
      "chip": "ym2612"
    },
    {
      "channel": 1,
      "note": 64,
      "start": 1.7422,
      "duration": 0.2525,
      "velocity": 80,
      "chip": "ym2612"
    },
    {
      "channel": 4,
      "note": 75,
      "start": 1.7431,
      "duration": 0.2555,
      "velocity": 113,
      "chip": "ym2612"
    },
    {
      "channel": 5,
      "note": 71,
      "start": 1.7439,
      "duration": 0.2582,
      "velocity": 113,
      "chip": "ym2612"
    },
    {
      "channel": 1,
      "note": 54,
      "start": 1.9953,
      "duration": 0.2296,
      "velocity": 80,
      "chip": "ym2612"
    },
    {
      "channel": 4,
      "note": 66,
      "start": 1.9993,
      "duration": 0.2265,
      "velocity": 113,
      "chip": "ym2612"
    },
    {
      "channel": 2,
      "note": 25,
      "start": 2.0059,
      "duration": 0.2214,
      "velocity": 79,
      "chip": "ym2612"
    },
    {
      "channel": 1,
      "note": 57,
      "start": 2.2255,
      "duration": 0.2327,
      "velocity": 80,
      "chip": "ym2612"
    },
    {
      "channel": 4,
      "note": 73,
      "start": 2.2263,
      "duration": 0.2328,
      "velocity": 113,
      "chip": "ym2612"
    },
    {
      "channel": 5,
      "note": 69,
      "start": 2.2271,
      "duration": 0.2327,
      "velocity": 113,
      "chip": "ym2612"
    },
    {
      "channel": 1,
      "note": 54,
      "start": 2.4589,
      "duration": 0.1327,
      "velocity": 80,
      "chip": "ym2612"
    },
    {
      "channel": 4,
      "note": 66,
      "start": 2.4597,
      "duration": 0.1328,
      "velocity": 113,
      "chip": "ym2612"
    },
    {
      "channel": 2,
      "note": 70,
      "start": 2.4636,
      "duration": 0.2458,
      "velocity": 127,
      "chip": "ym2612"
    },
    {
      "channel": 1,
      "note": 60,
      "start": 2.5922,
      "duration": 0.2327,
      "velocity": 80,
      "chip": "ym2612"
    },
    {
      "channel": 4,
      "note": 73,
      "start": 2.5931,
      "duration": 0.2327,
      "velocity": 113,
      "chip": "ym2612"
    },
    {
      "channel": 5,
      "note": 69,
      "start": 2.5939,
      "duration": 0.2327,
      "velocity": 113,
      "chip": "ym2612"
    },
    {
      "channel": 1,
      "note": 54,
      "start": 2.8255,
      "duration": 0.116,
      "velocity": 80,
      "chip": "ym2612"
    },
    {
      "channel": 4,
      "note": 66,
      "start": 2.8263,
      "duration": 0.1161,
      "velocity": 113,
      "chip": "ym2612"
    },
    {
      "channel": 1,
      "note": 61,
      "start": 2.9422,
      "duration": 0.2494,
      "velocity": 80,
      "chip": "ym2612"
    },
    {
      "channel": 4,
      "note": 73,
      "start": 2.9431,
      "duration": 0.2494,
      "velocity": 113,
      "chip": "ym2612"
    },
    {
      "channel": 5,
      "note": 69,
      "start": 2.9439,
      "duration": 0.2493,
      "velocity": 113,
      "chip": "ym2612"
    },
    {
      "channel": 2,
      "note": 25,
      "start": 2.9474,
      "duration": 0.2489,
      "velocity": 79,
      "chip": "ym2612"
    },
    {
      "channel": 1,
      "note": 54,
      "start": 3.1922,
      "duration": 0.116,
      "velocity": 80,
      "chip": "ym2612"
    },
    {
      "channel": 4,
      "note": 66,
      "start": 3.193,
      "duration": 0.1161,
      "velocity": 113,
      "chip": "ym2612"
    },
    {
      "channel": 2,
      "note": 25,
      "start": 3.1969,
      "duration": 0.232,
      "velocity": 127,
      "chip": "ym2612"
    },
    {
      "channel": 1,
      "note": 66,
      "start": 3.3089,
      "duration": 0.2327,
      "velocity": 80,
      "chip": "ym2612"
    },
    {
      "channel": 4,
      "note": 73,
      "start": 3.3098,
      "duration": 0.2327,
      "velocity": 113,
      "chip": "ym2612"
    },
    {
      "channel": 5,
      "note": 69,
      "start": 3.3105,
      "duration": 0.2327,
      "velocity": 113,
      "chip": "ym2612"
    },
    {
      "channel": 2,
      "note": 70,
      "start": 3.4295,
      "duration": 0.1168,
      "velocity": 79,
      "chip": "ym2612"
    },
    {
      "channel": 1,
      "note": 54,
      "start": 3.5422,
      "duration": 0.116,
      "velocity": 80,
      "chip": "ym2612"
    },
    {
      "channel": 4,
      "note": 66,
      "start": 3.543,
      "duration": 0.1161,
      "velocity": 113,
      "chip": "ym2612"
    },
    {
      "channel": 2,
      "note": 25,
      "start": 3.5469,
      "duration": 0.2459,
      "velocity": 79,
      "chip": "ym2612"
    },
    {
      "channel": 1,
      "note": 64,
      "start": 3.6589,
      "duration": 0.2525,
      "velocity": 80,
      "chip": "ym2612"
    },
    {
      "channel": 4,
      "note": 75,
      "start": 3.6598,
      "duration": 0.2555,
      "velocity": 113,
      "chip": "ym2612"
    },
    {
      "channel": 5,
      "note": 71,
      "start": 3.6605,
      "duration": 0.2582,
      "velocity": 113,
      "chip": "ym2612"
    },
    {
      "channel": 1,
      "note": 54,
      "start": 3.912,
      "duration": 0.2296,
      "velocity": 80,
      "chip": "ym2612"
    },
    {
      "channel": 4,
      "note": 66,
      "start": 3.9159,
      "duration": 0.2266,
      "velocity": 113,
      "chip": "ym2612"
    },
    {
      "channel": 2,
      "note": 25,
      "start": 3.9225,
      "duration": 0.2214,
      "velocity": 79,
      "chip": "ym2612"
    },
    {
      "channel": 1,
      "note": 57,
      "start": 4.1422,
      "duration": 0.2494,
      "velocity": 80,
      "chip": "ym2612"
    },
    {
      "channel": 4,
      "note": 73,
      "start": 4.143,
      "duration": 0.2494,
      "velocity": 113,
      "chip": "ym2612"
    },
    {
      "channel": 5,
      "note": 69,
      "start": 4.1438,
      "duration": 0.2494,
      "velocity": 113,
      "chip": "ym2612"
    },
    {
      "channel": 1,
      "note": 54,
      "start": 4.3922,
      "duration": 0.116,
      "velocity": 80,
      "chip": "ym2612"
    },
    {
      "channel": 4,
      "note": 66,
      "start": 4.393,
      "duration": 0.1161,
      "velocity": 113,
      "chip": "ym2612"
    },
    {
      "channel": 2,
      "note": 70,
      "start": 4.397,
      "duration": 0.2291,
      "velocity": 127,
      "chip": "ym2612"
    },
    {
      "channel": 1,
      "note": 60,
      "start": 4.5089,
      "duration": 0.2327,
      "velocity": 80,
      "chip": "ym2612"
    },
    {
      "channel": 4,
      "note": 73,
      "start": 4.5098,
      "duration": 0.2327,
      "velocity": 113,
      "chip": "ym2612"
    },
    {
      "channel": 5,
      "note": 69,
      "start": 4.5105,
      "duration": 0.2327,
      "velocity": 113,
      "chip": "ym2612"
    },
    {
      "channel": 1,
      "note": 54,
      "start": 4.7422,
      "duration": 0.116,
      "velocity": 80,
      "chip": "ym2612"
    },
    {
      "channel": 4,
      "note": 66,
      "start": 4.743,
      "duration": 0.1161,
      "velocity": 113,
      "chip": "ym2612"
    },
    {
      "channel": 1,
      "note": 61,
      "start": 4.8589,
      "duration": 0.2494,
      "velocity": 80,
      "chip": "ym2612"
    },
    {
      "channel": 4,
      "note": 73,
      "start": 4.8598,
      "duration": 0.2494,
      "velocity": 113,
      "chip": "ym2612"
    },
    {
      "channel": 5,
      "note": 69,
      "start": 4.8605,
      "duration": 0.2493,
      "velocity": 113,
      "chip": "ym2612"
    },
    {
      "channel": 2,
      "note": 25,
      "start": 4.8641,
      "duration": 0.2489,
      "velocity": 79,
      "chip": "ym2612"
    },
    {
      "channel": 1,
      "note": 54,
      "start": 5.1089,
      "duration": 0.116,
      "velocity": 80,
      "chip": "ym2612"
    },
    {
      "channel": 4,
      "note": 66,
      "start": 5.1097,
      "duration": 0.1161,
      "velocity": 113,
      "chip": "ym2612"
    },
    {
      "channel": 2,
      "note": 25,
      "start": 5.1136,
      "duration": 0.2319,
      "velocity": 127,
      "chip": "ym2612"
    },
    {
      "channel": 1,
      "note": 66,
      "start": 5.2255,
      "duration": 0.2327,
      "velocity": 80,
      "chip": "ym2612"
    },
    {
      "channel": 4,
      "note": 73,
      "start": 5.2264,
      "duration": 0.2327,
      "velocity": 113,
      "chip": "ym2612"
    },
    {
      "channel": 5,
      "note": 69,
      "start": 5.2272,
      "duration": 0.2327,
      "velocity": 113,
      "chip": "ym2612"
    },
    {
      "channel": 2,
      "note": 70,
      "start": 5.3462,
      "duration": 0.1168,
      "velocity": 79,
      "chip": "ym2612"
    },
    {
      "channel": 1,
      "note": 54,
      "start": 5.4589,
      "duration": 0.1327,
      "velocity": 80,
      "chip": "ym2612"
    },
    {
      "channel": 4,
      "note": 66,
      "start": 5.4597,
      "duration": 0.1328,
      "velocity": 113,
      "chip": "ym2612"
    },
    {
      "channel": 2,
      "note": 25,
      "start": 5.4636,
      "duration": 0.2459,
      "velocity": 79,
      "chip": "ym2612"
    },
    {
      "channel": 1,
      "note": 64,
      "start": 5.5922,
      "duration": 0.2358,
      "velocity": 80,
      "chip": "ym2612"
    },
    {
      "channel": 4,
      "note": 75,
      "start": 5.5931,
      "duration": 0.2389,
      "velocity": 113,
      "chip": "ym2612"
    },
    {
      "channel": 5,
      "note": 71,
      "start": 5.5939,
      "duration": 0.2415,
      "velocity": 113,
      "chip": "ym2612"
    },
    {
      "channel": 1,
      "note": 54,
      "start": 5.8286,
      "duration": 0.2296,
      "velocity": 80,
      "chip": "ym2612"
    },
    {
      "channel": 4,
      "note": 66,
      "start": 5.8325,
      "duration": 0.2266,
      "velocity": 113,
      "chip": "ym2612"
    },
    {
      "channel": 2,
      "note": 25,
      "start": 5.8392,
      "duration": 0.2214,
      "velocity": 79,
      "chip": "ym2612"
    },
    {
      "channel": 1,
      "note": 57,
      "start": 6.0589,
      "duration": 0.2494,
      "velocity": 80,
      "chip": "ym2612"
    },
    {
      "channel": 4,
      "note": 73,
      "start": 6.0597,
      "duration": 0.2494,
      "velocity": 113,
      "chip": "ym2612"
    },
    {
      "channel": 5,
      "note": 69,
      "start": 6.0605,
      "duration": 0.2494,
      "velocity": 113,
      "chip": "ym2612"
    },
    {
      "channel": 1,
      "note": 54,
      "start": 6.3089,
      "duration": 0.116,
      "velocity": 80,
      "chip": "ym2612"
    },
    {
      "channel": 4,
      "note": 66,
      "start": 6.3097,
      "duration": 0.1161,
      "velocity": 113,
      "chip": "ym2612"
    },
    {
      "channel": 2,
      "note": 70,
      "start": 6.3136,
      "duration": 0.2291,
      "velocity": 127,
      "chip": "ym2612"
    },
    {
      "channel": 1,
      "note": 60,
      "start": 6.4255,
      "duration": 0.2327,
      "velocity": 80,
      "chip": "ym2612"
    },
    {
      "channel": 4,
      "note": 73,
      "start": 6.4264,
      "duration": 0.2327,
      "velocity": 113,
      "chip": "ym2612"
    },
    {
      "channel": 5,
      "note": 69,
      "start": 6.4272,
      "duration": 0.2327,
      "velocity": 113,
      "chip": "ym2612"
    },
    {
      "channel": 1,
      "note": 54,
      "start": 6.6589,
      "duration": 0.1327,
      "velocity": 80,
      "chip": "ym2612"
    },
    {
      "channel": 4,
      "note": 66,
      "start": 6.6597,
      "duration": 0.1328,
      "velocity": 113,
      "chip": "ym2612"
    },
    {
      "channel": 1,
      "note": 61,
      "start": 6.7922,
      "duration": 0.2327,
      "velocity": 80,
      "chip": "ym2612"
    },
    {
      "channel": 4,
      "note": 73,
      "start": 6.7931,
      "duration": 0.2327,
      "velocity": 113,
      "chip": "ym2612"
    },
    {
      "channel": 5,
      "note": 69,
      "start": 6.7939,
      "duration": 0.2327,
      "velocity": 113,
      "chip": "ym2612"
    },
    {
      "channel": 2,
      "note": 25,
      "start": 6.7974,
      "duration": 0.2322,
      "velocity": 79,
      "chip": "ym2612"
    },
    {
      "channel": 1,
      "note": 54,
      "start": 7.0255,
      "duration": 0.116,
      "velocity": 80,
      "chip": "ym2612"
    },
    {
      "channel": 4,
      "note": 66,
      "start": 7.0263,
      "duration": 0.1161,
      "velocity": 113,
      "chip": "ym2612"
    },
    {
      "channel": 2,
      "note": 25,
      "start": 7.0303,
      "duration": 0.2319,
      "velocity": 127,
      "chip": "ym2612"
    },
    {
      "channel": 1,
      "note": 66,
      "start": 7.1422,
      "duration": 0.2494,
      "velocity": 80,
      "chip": "ym2612"
    },
    {
      "channel": 4,
      "note": 73,
      "start": 7.1431,
      "duration": 0.2494,
      "velocity": 113,
      "chip": "ym2612"
    },
    {
      "channel": 5,
      "note": 69,
      "start": 7.1439,
      "duration": 0.2493,
      "velocity": 113,
      "chip": "ym2612"
    },
    {
      "channel": 2,
      "note": 70,
      "start": 7.2629,
      "duration": 0.1335,
      "velocity": 79,
      "chip": "ym2612"
    },
    {
      "channel": 1,
      "note": 54,
      "start": 7.3922,
      "duration": 0.116,
      "velocity": 80,
      "chip": "ym2612"
    },
    {
      "channel": 4,
      "note": 66,
      "start": 7.393,
      "duration": 0.1161,
      "velocity": 113,
      "chip": "ym2612"
    },
    {
      "channel": 2,
      "note": 25,
      "start": 7.3969,
      "duration": 0.2292,
      "velocity": 79,
      "chip": "ym2612"
    },
    {
      "channel": 1,
      "note": 64,
      "start": 7.5089,
      "duration": 0.2363,
      "velocity": 80,
      "chip": "ym2612"
    },
    {
      "channel": 4,
      "note": 75,
      "start": 7.5098,
      "duration": 0.2393,
      "velocity": 113,
      "chip": "ym2612"
    },
    {
      "channel": 5,
      "note": 71,
      "start": 7.5105,
      "duration": 0.242,
      "velocity": 113,
      "chip": "ym2612"
    },
    {
      "channel": 0,
      "note": 90,
      "start": 7.7421,
      "duration": 1.4494,
      "velocity": 102,
      "chip": "ym2612"
    },
    {
      "channel": 1,
      "note": 54,
      "start": 7.7458,
      "duration": 0.2461,
      "velocity": 80,
      "chip": "ym2612"
    },
    {
      "channel": 4,
      "note": 66,
      "start": 7.7497,
      "duration": 0.243,
      "velocity": 113,
      "chip": "ym2612"
    },
    {
      "channel": 2,
      "note": 25,
      "start": 7.7564,
      "duration": 0.2378,
      "velocity": 79,
      "chip": "ym2612"
    },
    {
      "channel": 1,
      "note": 57,
      "start": 7.9924,
      "duration": 0.2328,
      "velocity": 80,
      "chip": "ym2612"
    },
    {
      "channel": 4,
      "note": 73,
      "start": 7.9933,
      "duration": 0.2327,
      "velocity": 113,
      "chip": "ym2612"
    },
    {
      "channel": 5,
      "note": 69,
      "start": 7.9941,
      "duration": 0.2327,
      "velocity": 113,
      "chip": "ym2612"
    },
    {
      "channel": 1,
      "note": 54,
      "start": 8.2258,
      "duration": 0.1161,
      "velocity": 80,
      "chip": "ym2612"
    },
    {
      "channel": 4,
      "note": 66,
      "start": 8.2267,
      "duration": 0.116,
      "velocity": 113,
      "chip": "ym2612"
    },
    {
      "channel": 2,
      "note": 70,
      "start": 8.2306,
      "duration": 0.2291,
      "velocity": 127,
      "chip": "ym2612"
    },
    {
      "channel": 1,
      "note": 60,
      "start": 8.3425,
      "duration": 0.2494,
      "velocity": 80,
      "chip": "ym2612"
    },
    {
      "channel": 4,
      "note": 73,
      "start": 8.3433,
      "duration": 0.2494,
      "velocity": 113,
      "chip": "ym2612"
    },
    {
      "channel": 5,
      "note": 69,
      "start": 8.3441,
      "duration": 0.2494,
      "velocity": 113,
      "chip": "ym2612"
    },
    {
      "channel": 1,
      "note": 54,
      "start": 8.5924,
      "duration": 0.1161,
      "velocity": 80,
      "chip": "ym2612"
    },
    {
      "channel": 4,
      "note": 66,
      "start": 8.5933,
      "duration": 0.116,
      "velocity": 113,
      "chip": "ym2612"
    },
    {
      "channel": 1,
      "note": 61,
      "start": 8.7091,
      "duration": 0.2328,
      "velocity": 80,
      "chip": "ym2612"
    },
    {
      "channel": 4,
      "note": 73,
      "start": 8.71,
      "duration": 0.2327,
      "velocity": 113,
      "chip": "ym2612"
    },
    {
      "channel": 5,
      "note": 69,
      "start": 8.7108,
      "duration": 0.2327,
      "velocity": 113,
      "chip": "ym2612"
    },
    {
      "channel": 2,
      "note": 25,
      "start": 8.7143,
      "duration": 0.2323,
      "velocity": 79,
      "chip": "ym2612"
    },
    {
      "channel": 1,
      "note": 54,
      "start": 8.9424,
      "duration": 0.1161,
      "velocity": 80,
      "chip": "ym2612"
    },
    {
      "channel": 4,
      "note": 66,
      "start": 8.9433,
      "duration": 0.116,
      "velocity": 113,
      "chip": "ym2612"
    },
    {
      "channel": 2,
      "note": 25,
      "start": 8.9472,
      "duration": 0.249,
      "velocity": 127,
      "chip": "ym2612"
    },
    {
      "channel": 1,
      "note": 66,
      "start": 9.0592,
      "duration": 0.2497,
      "velocity": 80,
      "chip": "ym2612"
    },
    {
      "channel": 4,
      "note": 73,
      "start": 9.06,
      "duration": 0.2498,
      "velocity": 113,
      "chip": "ym2612"
    },
    {
      "channel": 5,
      "note": 69,
      "start": 9.0608,
      "duration": 0.2498,
      "velocity": 113,
      "chip": "ym2612"
    },
    {
      "channel": 0,
      "note": 88,
      "start": 9.1921,
      "duration": 0.116,
      "velocity": 102,
      "chip": "ym2612"
    },
    {
      "channel": 2,
      "note": 70,
      "start": 9.1969,
      "duration": 0.1168,
      "velocity": 79,
      "chip": "ym2612"
    },
    {
      "channel": 0,
      "note": 85,
      "start": 9.3088,
      "duration": 0.116,
      "velocity": 102,
      "chip": "ym2612"
    },
    {
      "channel": 1,
      "note": 54,
      "start": 9.3095,
      "duration": 0.116,
      "velocity": 80,
      "chip": "ym2612"
    },
    {
      "channel": 4,
      "note": 66,
      "start": 9.3104,
      "duration": 0.1161,
      "velocity": 113,
      "chip": "ym2612"
    },
    {
      "channel": 2,
      "note": 25,
      "start": 9.3143,
      "duration": 0.2287,
      "velocity": 79,
      "chip": "ym2612"
    },
    {
      "channel": 0,
      "note": 84,
      "start": 9.4255,
      "duration": 1.1994,
      "velocity": 102,
      "chip": "ym2612"
    },
    {
      "channel": 1,
      "note": 64,
      "start": 9.4262,
      "duration": 0.2352,
      "velocity": 80,
      "chip": "ym2612"
    },
    {
      "channel": 4,
      "note": 75,
      "start": 9.4271,
      "duration": 0.2381,
      "velocity": 113,
      "chip": "ym2612"
    },
    {
      "channel": 5,
      "note": 71,
      "start": 9.4279,
      "duration": 0.2408,
      "velocity": 113,
      "chip": "ym2612"
    },
    {
      "channel": 1,
      "note": 54,
      "start": 9.662,
      "duration": 0.2465,
      "velocity": 80,
      "chip": "ym2612"
    },
    {
      "channel": 4,
      "note": 66,
      "start": 9.6659,
      "duration": 0.2435,
      "velocity": 113,
      "chip": "ym2612"
    },
    {
      "channel": 2,
      "note": 25,
      "start": 9.6725,
      "duration": 0.2384,
      "velocity": 79,
      "chip": "ym2612"
    },
    {
      "channel": 1,
      "note": 57,
      "start": 9.9091,
      "duration": 0.2328,
      "velocity": 80,
      "chip": "ym2612"
    },
    {
      "channel": 4,
      "note": 73,
      "start": 9.91,
      "duration": 0.2327,
      "velocity": 113,
      "chip": "ym2612"
    },
    {
      "channel": 5,
      "note": 69,
      "start": 9.9108,
      "duration": 0.2327,
      "velocity": 113,
      "chip": "ym2612"
    },
    {
      "channel": 1,
      "note": 54,
      "start": 10.1424,
      "duration": 0.1161,
      "velocity": 80,
      "chip": "ym2612"
    },
    {
      "channel": 4,
      "note": 66,
      "start": 10.1433,
      "duration": 0.116,
      "velocity": 113,
      "chip": "ym2612"
    },
    {
      "channel": 2,
      "note": 70,
      "start": 10.1473,
      "duration": 0.2457,
      "velocity": 127,
      "chip": "ym2612"
    },
    {
      "channel": 1,
      "note": 60,
      "start": 10.2592,
      "duration": 0.2494,
      "velocity": 80,
      "chip": "ym2612"
    },
    {
      "channel": 4,
      "note": 73,
      "start": 10.26,
      "duration": 0.2494,
      "velocity": 113,
      "chip": "ym2612"
    },
    {
      "channel": 5,
      "note": 69,
      "start": 10.2608,
      "duration": 0.2494,
      "velocity": 113,
      "chip": "ym2612"
    },
    {
      "channel": 1,
      "note": 54,
      "start": 10.5091,
      "duration": 0.1165,
      "velocity": 80,
      "chip": "ym2612"
    },
    {
      "channel": 4,
      "note": 66,
      "start": 10.51,
      "duration": 0.1165,
      "velocity": 113,
      "chip": "ym2612"
    },
    {
      "channel": 0,
      "note": 85,
      "start": 10.6255,
      "duration": 0.116,
      "velocity": 102,
      "chip": "ym2612"
    },
    {
      "channel": 1,
      "note": 61,
      "start": 10.6262,
      "duration": 0.2327,
      "velocity": 80,
      "chip": "ym2612"
    },
    {
      "channel": 4,
      "note": 73,
      "start": 10.6271,
      "duration": 0.2327,
      "velocity": 113,
      "chip": "ym2612"
    },
    {
      "channel": 5,
      "note": 69,
      "start": 10.6279,
      "duration": 0.2327,
      "velocity": 113,
      "chip": "ym2612"
    },
    {
      "channel": 2,
      "note": 25,
      "start": 10.6315,
      "duration": 0.2322,
      "velocity": 79,
      "chip": "ym2612"
    },
    {
      "channel": 0,
      "note": 84,
      "start": 10.7421,
      "duration": 0.116,
      "velocity": 102,
      "chip": "ym2612"
    },
    {
      "channel": 0,
      "note": 83,
      "start": 10.8588,
      "duration": 0.1327,
      "velocity": 102,
      "chip": "ym2612"
    },
    {
      "channel": 1,
      "note": 54,
      "start": 10.8595,
      "duration": 0.1327,
      "velocity": 80,
      "chip": "ym2612"
    },
    {
      "channel": 4,
      "note": 66,
      "start": 10.8604,
      "duration": 0.1328,
      "velocity": 113,
      "chip": "ym2612"
    },
    {
      "channel": 2,
      "note": 25,
      "start": 10.8643,
      "duration": 0.2482,
      "velocity": 127,
      "chip": "ym2612"
    },
    {
      "channel": 0,
      "note": 81,
      "start": 10.9921,
      "duration": 0.116,
      "velocity": 102,
      "chip": "ym2612"
    },
    {
      "channel": 1,
      "note": 66,
      "start": 10.9929,
      "duration": 0.2327,
      "velocity": 80,
      "chip": "ym2612"
    },
    {
      "channel": 4,
      "note": 73,
      "start": 10.9938,
      "duration": 0.2327,
      "velocity": 113,
      "chip": "ym2612"
    },
    {
      "channel": 5,
      "note": 69,
      "start": 10.9945,
      "duration": 0.2327,
      "velocity": 113,
      "chip": "ym2612"
    },
    {
      "channel": 2,
      "note": 70,
      "start": 11.1131,
      "duration": 0.1172,
      "velocity": 79,
      "chip": "ym2612"
    },
    {
      "channel": 0,
      "note": 76,
      "start": 11.2255,
      "duration": 0.116,
      "velocity": 102,
      "chip": "ym2612"
    },
    {
      "channel": 1,
      "note": 54,
      "start": 11.2262,
      "duration": 0.116,
      "velocity": 80,
      "chip": "ym2612"
    },
    {
      "channel": 4,
      "note": 66,
      "start": 11.2271,
      "duration": 0.1161,
      "velocity": 113,
      "chip": "ym2612"
    },
    {
      "channel": 2,
      "note": 25,
      "start": 11.231,
      "duration": 0.2287,
      "velocity": 79,
      "chip": "ym2612"
    },
    {
      "channel": 0,
      "note": 78,
      "start": 11.3421,
      "duration": 4.0828,
      "velocity": 102,
      "chip": "ym2612"
    },
    {
      "channel": 1,
      "note": 64,
      "start": 11.3429,
      "duration": 0.2522,
      "velocity": 80,
      "chip": "ym2612"
    },
    {
      "channel": 4,
      "note": 75,
      "start": 11.3438,
      "duration": 0.2551,
      "velocity": 113,
      "chip": "ym2612"
    },
    {
      "channel": 5,
      "note": 71,
      "start": 11.3445,
      "duration": 0.2579,
      "velocity": 113,
      "chip": "ym2612"
    },
    {
      "channel": 1,
      "note": 54,
      "start": 11.5958,
      "duration": 0.2295,
      "velocity": 80,
      "chip": "ym2612"
    },
    {
      "channel": 4,
      "note": 66,
      "start": 11.5996,
      "duration": 0.2272,
      "velocity": 113,
      "chip": "ym2612"
    },
    {
      "channel": 2,
      "note": 25,
      "start": 11.6062,
      "duration": 0.2221,
      "velocity": 79,
      "chip": "ym2612"
    },
    {
      "channel": 1,
      "note": 57,
      "start": 11.8258,
      "duration": 0.2328,
      "velocity": 80,
      "chip": "ym2612"
    },
    {
      "channel": 3,
      "note": 75,
      "start": 11.8265,
      "duration": 0.2328,
      "velocity": 102,
      "chip": "ym2612"
    },
    {
      "channel": 4,
      "note": 73,
      "start": 11.8273,
      "duration": 0.2328,
      "velocity": 113,
      "chip": "ym2612"
    },
    {
      "channel": 5,
      "note": 69,
      "start": 11.8281,
      "duration": 0.2327,
      "velocity": 113,
      "chip": "ym2612"
    },
    {
      "channel": 1,
      "note": 54,
      "start": 12.0591,
      "duration": 0.1328,
      "velocity": 80,
      "chip": "ym2612"
    },
    {
      "channel": 3,
      "note": 76,
      "start": 12.0599,
      "duration": 0.249,
      "velocity": 102,
      "chip": "ym2612"
    },
    {
      "channel": 4,
      "note": 66,
      "start": 12.0607,
      "duration": 0.1323,
      "velocity": 113,
      "chip": "ym2612"
    },
    {
      "channel": 2,
      "note": 70,
      "start": 12.0646,
      "duration": 0.2458,
      "velocity": 127,
      "chip": "ym2612"
    },
    {
      "channel": 1,
      "note": 60,
      "start": 12.1924,
      "duration": 0.2328,
      "velocity": 80,
      "chip": "ym2612"
    },
    {
      "channel": 4,
      "note": 73,
      "start": 12.1936,
      "duration": 0.2327,
      "velocity": 113,
      "chip": "ym2612"
    },
    {
      "channel": 5,
      "note": 69,
      "start": 12.1944,
      "duration": 0.2327,
      "velocity": 113,
      "chip": "ym2612"
    },
    {
      "channel": 3,
      "note": 78,
      "start": 12.3095,
      "duration": 0.2331,
      "velocity": 102,
      "chip": "ym2612"
    },
    {
      "channel": 1,
      "note": 54,
      "start": 12.4258,
      "duration": 0.1161,
      "velocity": 80,
      "chip": "ym2612"
    },
    {
      "channel": 4,
      "note": 66,
      "start": 12.4269,
      "duration": 0.1165,
      "velocity": 113,
      "chip": "ym2612"
    },
    {
      "channel": 1,
      "note": 61,
      "start": 12.5424,
      "duration": 0.2494,
      "velocity": 80,
      "chip": "ym2612"
    },
    {
      "channel": 3,
      "note": 81,
      "start": 12.5433,
      "duration": 0.2494,
      "velocity": 102,
      "chip": "ym2612"
    },
    {
      "channel": 4,
      "note": 73,
      "start": 12.544,
      "duration": 0.2494,
      "velocity": 113,
      "chip": "ym2612"
    },
    {
      "channel": 5,
      "note": 69,
      "start": 12.5448,
      "duration": 0.2494,
      "velocity": 113,
      "chip": "ym2612"
    },
    {
      "channel": 2,
      "note": 25,
      "start": 12.5484,
      "duration": 0.249,
      "velocity": 79,
      "chip": "ym2612"
    },
    {
      "channel": 1,
      "note": 54,
      "start": 12.7924,
      "duration": 0.1161,
      "velocity": 80,
      "chip": "ym2612"
    },
    {
      "channel": 3,
      "note": 78,
      "start": 12.7933,
      "duration": 0.466,
      "velocity": 102,
      "chip": "ym2612"
    },
    {
      "channel": 4,
      "note": 66,
      "start": 12.794,
      "duration": 0.1156,
      "velocity": 113,
      "chip": "ym2612"
    },
    {
      "channel": 2,
      "note": 25,
      "start": 12.7979,
      "duration": 0.2316,
      "velocity": 127,
      "chip": "ym2612"
    },
    {
      "channel": 1,
      "note": 66,
      "start": 12.9091,
      "duration": 0.2328,
      "velocity": 80,
      "chip": "ym2612"
    },
    {
      "channel": 4,
      "note": 73,
      "start": 12.9102,
      "duration": 0.2328,
      "velocity": 113,
      "chip": "ym2612"
    },
    {
      "channel": 5,
      "note": 69,
      "start": 12.9111,
      "duration": 0.2327,
      "velocity": 113,
      "chip": "ym2612"
    },
    {
      "channel": 2,
      "note": 70,
      "start": 13.0301,
      "duration": 0.1168,
      "velocity": 79,
      "chip": "ym2612"
    },
    {
      "channel": 1,
      "note": 54,
      "start": 13.1424,
      "duration": 0.1161,
      "velocity": 80,
      "chip": "ym2612"
    },
    {
      "channel": 4,
      "note": 66,
      "start": 13.1436,
      "duration": 0.1165,
      "velocity": 113,
      "chip": "ym2612"
    },
    {
      "channel": 2,
      "note": 25,
      "start": 13.1475,
      "duration": 0.2463,
      "velocity": 79,
      "chip": "ym2612"
    },
    {
      "channel": 1,
      "note": 64,
      "start": 13.2592,
      "duration": 0.2526,
      "velocity": 80,
      "chip": "ym2612"
    },
    {
      "channel": 3,
      "note": 83,
      "start": 13.2599,
      "duration": 0.4827,
      "velocity": 102,
      "chip": "ym2612"
    },
    {
      "channel": 4,
      "note": 75,
      "start": 13.2607,
      "duration": 0.2549,
      "velocity": 113,
      "chip": "ym2612"
    },
    {
      "channel": 5,
      "note": 71,
      "start": 13.2615,
      "duration": 0.2576,
      "velocity": 113,
      "chip": "ym2612"
    },
    {
      "channel": 1,
      "note": 54,
      "start": 13.5124,
      "duration": 0.2295,
      "velocity": 80,
      "chip": "ym2612"
    },
    {
      "channel": 4,
      "note": 66,
      "start": 13.5162,
      "duration": 0.2272,
      "velocity": 113,
      "chip": "ym2612"
    },
    {
      "channel": 2,
      "note": 25,
      "start": 13.5229,
      "duration": 0.222,
      "velocity": 79,
      "chip": "ym2612"
    },
    {
      "channel": 1,
      "note": 57,
      "start": 13.7424,
      "duration": 0.2494,
      "velocity": 80,
      "chip": "ym2612"
    },
    {
      "channel": 3,
      "note": 81,
      "start": 13.7433,
      "duration": 0.4823,
      "velocity": 102,
      "chip": "ym2612"
    },
    {
      "channel": 4,
      "note": 73,
      "start": 13.744,
      "duration": 0.249,
      "velocity": 113,
      "chip": "ym2612"
    },
    {
      "channel": 5,
      "note": 69,
      "start": 13.7448,
      "duration": 0.249,
      "velocity": 113,
      "chip": "ym2612"
    },
    {
      "channel": 1,
      "note": 54,
      "start": 13.9924,
      "duration": 0.1161,
      "velocity": 80,
      "chip": "ym2612"
    },
    {
      "channel": 4,
      "note": 66,
      "start": 13.9936,
      "duration": 0.1161,
      "velocity": 113,
      "chip": "ym2612"
    },
    {
      "channel": 2,
      "note": 70,
      "start": 13.9975,
      "duration": 0.2295,
      "velocity": 127,
      "chip": "ym2612"
    },
    {
      "channel": 1,
      "note": 60,
      "start": 14.1092,
      "duration": 0.2327,
      "velocity": 80,
      "chip": "ym2612"
    },
    {
      "channel": 4,
      "note": 73,
      "start": 14.1103,
      "duration": 0.2327,
      "velocity": 113,
      "chip": "ym2612"
    },
    {
      "channel": 5,
      "note": 69,
      "start": 14.1111,
      "duration": 0.2327,
      "velocity": 113,
      "chip": "ym2612"
    },
    {
      "channel": 3,
      "note": 78,
      "start": 14.2262,
      "duration": 1.2033,
      "velocity": 102,
      "chip": "ym2612"
    },
    {
      "channel": 1,
      "note": 54,
      "start": 14.3424,
      "duration": 0.1161,
      "velocity": 80,
      "chip": "ym2612"
    },
    {
      "channel": 4,
      "note": 66,
      "start": 14.3436,
      "duration": 0.1161,
      "velocity": 113,
      "chip": "ym2612"
    },
    {
      "channel": 1,
      "note": 61,
      "start": 14.4592,
      "duration": 0.2494,
      "velocity": 80,
      "chip": "ym2612"
    },
    {
      "channel": 4,
      "note": 73,
      "start": 14.4603,
      "duration": 0.2494,
      "velocity": 113,
      "chip": "ym2612"
    },
    {
      "channel": 5,
      "note": 69,
      "start": 14.4611,
      "duration": 0.2494,
      "velocity": 113,
      "chip": "ym2612"
    },
    {
      "channel": 2,
      "note": 25,
      "start": 14.4646,
      "duration": 0.2489,
      "velocity": 79,
      "chip": "ym2612"
    },
    {
      "channel": 1,
      "note": 54,
      "start": 14.7091,
      "duration": 0.1161,
      "velocity": 80,
      "chip": "ym2612"
    },
    {
      "channel": 4,
      "note": 66,
      "start": 14.7102,
      "duration": 0.1161,
      "velocity": 113,
      "chip": "ym2612"
    },
    {
      "channel": 2,
      "note": 25,
      "start": 14.7141,
      "duration": 0.232,
      "velocity": 127,
      "chip": "ym2612"
    },
    {
      "channel": 1,
      "note": 66,
      "start": 14.8258,
      "duration": 0.2328,
      "velocity": 80,
      "chip": "ym2612"
    },
    {
      "channel": 4,
      "note": 73,
      "start": 14.8269,
      "duration": 0.2327,
      "velocity": 113,
      "chip": "ym2612"
    },
    {
      "channel": 5,
      "note": 69,
      "start": 14.8278,
      "duration": 0.2327,
      "velocity": 113,
      "chip": "ym2612"
    },
    {
      "channel": 2,
      "note": 70,
      "start": 14.9468,
      "duration": 0.1168,
      "velocity": 79,
      "chip": "ym2612"
    },
    {
      "channel": 1,
      "note": 54,
      "start": 15.0591,
      "duration": 0.1328,
      "velocity": 80,
      "chip": "ym2612"
    },
    {
      "channel": 4,
      "note": 66,
      "start": 15.0602,
      "duration": 0.1328,
      "velocity": 113,
      "chip": "ym2612"
    },
    {
      "channel": 2,
      "note": 25,
      "start": 15.0641,
      "duration": 0.2459,
      "velocity": 79,
      "chip": "ym2612"
    },
    {
      "channel": 1,
      "note": 64,
      "start": 15.1925,
      "duration": 0.2361,
      "velocity": 80,
      "chip": "ym2612"
    },
    {
      "channel": 4,
      "note": 75,
      "start": 15.1937,
      "duration": 0.2389,
      "velocity": 113,
      "chip": "ym2612"
    },
    {
      "channel": 5,
      "note": 71,
      "start": 15.1944,
      "duration": 0.2415,
      "velocity": 113,
      "chip": "ym2612"
    },
    {
      "channel": 0,
      "note": 90,
      "start": 15.4255,
      "duration": 1.4326,
      "velocity": 102,
      "chip": "ym2612"
    },
    {
      "channel": 1,
      "note": 54,
      "start": 15.4292,
      "duration": 0.2293,
      "velocity": 80,
      "chip": "ym2612"
    },
    {
      "channel": 4,
      "note": 66,
      "start": 15.4332,
      "duration": 0.2262,
      "velocity": 113,
      "chip": "ym2612"
    },
    {
      "channel": 2,
      "note": 25,
      "start": 15.4398,
      "duration": 0.2211,
      "velocity": 79,
      "chip": "ym2612"
    },
    {
      "channel": 1,
      "note": 57,
      "start": 15.6591,
      "duration": 0.2494,
      "velocity": 80,
      "chip": "ym2612"
    },
    {
      "channel": 4,
      "note": 73,
      "start": 15.66,
      "duration": 0.2494,
      "velocity": 113,
      "chip": "ym2612"
    },
    {
      "channel": 5,
      "note": 69,
      "start": 15.6608,
      "duration": 0.2494,
      "velocity": 113,
      "chip": "ym2612"
    },
    {
      "channel": 1,
      "note": 54,
      "start": 15.9091,
      "duration": 0.1161,
      "velocity": 80,
      "chip": "ym2612"
    },
    {
      "channel": 4,
      "note": 66,
      "start": 15.91,
      "duration": 0.116,
      "velocity": 113,
      "chip": "ym2612"
    },
    {
      "channel": 2,
      "note": 70,
      "start": 15.9139,
      "duration": 0.2291,
      "velocity": 127,
      "chip": "ym2612"
    },
    {
      "channel": 1,
      "note": 60,
      "start": 16.0258,
      "duration": 0.2328,
      "velocity": 80,
      "chip": "ym2612"
    },
    {
      "channel": 4,
      "note": 73,
      "start": 16.0267,
      "duration": 0.2327,
      "velocity": 113,
      "chip": "ym2612"
    },
    {
      "channel": 5,
      "note": 69,
      "start": 16.0274,
      "duration": 0.2327,
      "velocity": 113,
      "chip": "ym2612"
    },
    {
      "channel": 1,
      "note": 54,
      "start": 16.2591,
      "duration": 0.1328,
      "velocity": 80,
      "chip": "ym2612"
    },
    {
      "channel": 4,
      "note": 66,
      "start": 16.26,
      "duration": 0.1327,
      "velocity": 113,
      "chip": "ym2612"
    },
    {
      "channel": 1,
      "note": 61,
      "start": 16.3925,
      "duration": 0.2327,
      "velocity": 80,
      "chip": "ym2612"
    },
    {
      "channel": 4,
      "note": 73,
      "start": 16.3933,
      "duration": 0.2327,
      "velocity": 113,
      "chip": "ym2612"
    },
    {
      "channel": 5,
      "note": 69,
      "start": 16.3941,
      "duration": 0.2327,
      "velocity": 113,
      "chip": "ym2612"
    },
    {
      "channel": 2,
      "note": 25,
      "start": 16.3977,
      "duration": 0.2323,
      "velocity": 79,
      "chip": "ym2612"
    },
    {
      "channel": 1,
      "note": 54,
      "start": 16.6258,
      "duration": 0.1161,
      "velocity": 80,
      "chip": "ym2612"
    },
    {
      "channel": 4,
      "note": 66,
      "start": 16.6267,
      "duration": 0.116,
      "velocity": 113,
      "chip": "ym2612"
    },
    {
      "channel": 2,
      "note": 25,
      "start": 16.6305,
      "duration": 0.2324,
      "velocity": 127,
      "chip": "ym2612"
    },
    {
      "channel": 1,
      "note": 66,
      "start": 16.7424,
      "duration": 0.2498,
      "velocity": 80,
      "chip": "ym2612"
    },
    {
      "channel": 4,
      "note": 73,
      "start": 16.7433,
      "duration": 0.2498,
      "velocity": 113,
      "chip": "ym2612"
    },
    {
      "channel": 5,
      "note": 69,
      "start": 16.7441,
      "duration": 0.2498,
      "velocity": 113,
      "chip": "ym2612"
    },
    {
      "channel": 0,
      "note": 88,
      "start": 16.8588,
      "duration": 0.1327,
      "velocity": 102,
      "chip": "ym2612"
    },
    {
      "channel": 2,
      "note": 70,
      "start": 16.8636,
      "duration": 0.1335,
      "velocity": 79,
      "chip": "ym2612"
    },
    {
      "channel": 0,
      "note": 85,
      "start": 16.9921,
      "duration": 0.116,
      "velocity": 102,
      "chip": "ym2612"
    },
    {
      "channel": 1,
      "note": 54,
      "start": 16.9929,
      "duration": 0.116,
      "velocity": 80,
      "chip": "ym2612"
    },
    {
      "channel": 4,
      "note": 66,
      "start": 16.9938,
      "duration": 0.116,
      "velocity": 113,
      "chip": "ym2612"
    },
    {
      "channel": 2,
      "note": 25,
      "start": 16.9977,
      "duration": 0.2287,
      "velocity": 79,
      "chip": "ym2612"
    },
    {
      "channel": 0,
      "note": 84,
      "start": 17.1088,
      "duration": 1.1994,
      "velocity": 102,
      "chip": "ym2612"
    },
    {
      "channel": 1,
      "note": 64,
      "start": 17.1095,
      "duration": 0.2352,
      "velocity": 80,
      "chip": "ym2612"
    },
    {
      "channel": 4,
      "note": 75,
      "start": 17.1105,
      "duration": 0.2381,
      "velocity": 113,
      "chip": "ym2612"
    },
    {
      "channel": 5,
      "note": 71,
      "start": 17.1112,
      "duration": 0.2408,
      "velocity": 113,
      "chip": "ym2612"
    },
    {
      "channel": 1,
      "note": 54,
      "start": 17.3454,
      "duration": 0.2465,
      "velocity": 80,
      "chip": "ym2612"
    },
    {
      "channel": 4,
      "note": 66,
      "start": 17.3492,
      "duration": 0.2435,
      "velocity": 113,
      "chip": "ym2612"
    },
    {
      "channel": 2,
      "note": 25,
      "start": 17.3558,
      "duration": 0.2384,
      "velocity": 79,
      "chip": "ym2612"
    },
    {
      "channel": 1,
      "note": 57,
      "start": 17.5924,
      "duration": 0.2328,
      "velocity": 80,
      "chip": "ym2612"
    },
    {
      "channel": 4,
      "note": 73,
      "start": 17.5933,
      "duration": 0.2327,
      "velocity": 113,
      "chip": "ym2612"
    },
    {
      "channel": 5,
      "note": 69,
      "start": 17.5941,
      "duration": 0.2327,
      "velocity": 113,
      "chip": "ym2612"
    },
    {
      "channel": 1,
      "note": 54,
      "start": 17.8258,
      "duration": 0.1161,
      "velocity": 80,
      "chip": "ym2612"
    },
    {
      "channel": 4,
      "note": 66,
      "start": 17.8267,
      "duration": 0.116,
      "velocity": 113,
      "chip": "ym2612"
    },
    {
      "channel": 2,
      "note": 70,
      "start": 17.8306,
      "duration": 0.2291,
      "velocity": 127,
      "chip": "ym2612"
    },
    {
      "channel": 1,
      "note": 60,
      "start": 17.9425,
      "duration": 0.2494,
      "velocity": 80,
      "chip": "ym2612"
    },
    {
      "channel": 4,
      "note": 73,
      "start": 17.9433,
      "duration": 0.2494,
      "velocity": 113,
      "chip": "ym2612"
    },
    {
      "channel": 5,
      "note": 69,
      "start": 17.9441,
      "duration": 0.2494,
      "velocity": 113,
      "chip": "ym2612"
    },
    {
      "channel": 1,
      "note": 54,
      "start": 18.1924,
      "duration": 0.1165,
      "velocity": 80,
      "chip": "ym2612"
    },
    {
      "channel": 4,
      "note": 66,
      "start": 18.1933,
      "duration": 0.1165,
      "velocity": 113,
      "chip": "ym2612"
    },
    {
      "channel": 0,
      "note": 85,
      "start": 18.3088,
      "duration": 0.116,
      "velocity": 102,
      "chip": "ym2612"
    },
    {
      "channel": 1,
      "note": 61,
      "start": 18.3095,
      "duration": 0.2327,
      "velocity": 80,
      "chip": "ym2612"
    },
    {
      "channel": 4,
      "note": 73,
      "start": 18.3105,
      "duration": 0.2327,
      "velocity": 113,
      "chip": "ym2612"
    },
    {
      "channel": 5,
      "note": 69,
      "start": 18.3112,
      "duration": 0.2327,
      "velocity": 113,
      "chip": "ym2612"
    },
    {
      "channel": 2,
      "note": 25,
      "start": 18.3148,
      "duration": 0.2322,
      "velocity": 79,
      "chip": "ym2612"
    },
    {
      "channel": 0,
      "note": 84,
      "start": 18.4255,
      "duration": 0.116,
      "velocity": 102,
      "chip": "ym2612"
    },
    {
      "channel": 0,
      "note": 83,
      "start": 18.5421,
      "duration": 0.116,
      "velocity": 102,
      "chip": "ym2612"
    },
    {
      "channel": 1,
      "note": 54,
      "start": 18.5429,
      "duration": 0.116,
      "velocity": 80,
      "chip": "ym2612"
    },
    {
      "channel": 4,
      "note": 66,
      "start": 18.5437,
      "duration": 0.1161,
      "velocity": 113,
      "chip": "ym2612"
    },
    {
      "channel": 2,
      "note": 25,
      "start": 18.5477,
      "duration": 0.2482,
      "velocity": 127,
      "chip": "ym2612"
    },
    {
      "channel": 0,
      "note": 81,
      "start": 18.6588,
      "duration": 0.1327,
      "velocity": 102,
      "chip": "ym2612"
    },
    {
      "channel": 1,
      "note": 66,
      "start": 18.6595,
      "duration": 0.2494,
      "velocity": 80,
      "chip": "ym2612"
    },
    {
      "channel": 4,
      "note": 73,
      "start": 18.6605,
      "duration": 0.2494,
      "velocity": 113,
      "chip": "ym2612"
    },
    {
      "channel": 5,
      "note": 69,
      "start": 18.6612,
      "duration": 0.2494,
      "velocity": 113,
      "chip": "ym2612"
    },
    {
      "channel": 2,
      "note": 70,
      "start": 18.7965,
      "duration": 0.1172,
      "velocity": 79,
      "chip": "ym2612"
    },
    {
      "channel": 0,
      "note": 76,
      "start": 18.9088,
      "duration": 0.116,
      "velocity": 102,
      "chip": "ym2612"
    },
    {
      "channel": 1,
      "note": 54,
      "start": 18.9095,
      "duration": 0.116,
      "velocity": 80,
      "chip": "ym2612"
    },
    {
      "channel": 4,
      "note": 66,
      "start": 18.9104,
      "duration": 0.1161,
      "velocity": 113,
      "chip": "ym2612"
    },
    {
      "channel": 2,
      "note": 25,
      "start": 18.9143,
      "duration": 0.2287,
      "velocity": 79,
      "chip": "ym2612"
    },
    {
      "channel": 0,
      "note": 78,
      "start": 19.0255,
      "duration": 4.0828,
      "velocity": 102,
      "chip": "ym2612"
    },
    {
      "channel": 1,
      "note": 64,
      "start": 19.0262,
      "duration": 0.2356,
      "velocity": 80,
      "chip": "ym2612"
    },
    {
      "channel": 4,
      "note": 75,
      "start": 19.0271,
      "duration": 0.2385,
      "velocity": 113,
      "chip": "ym2612"
    },
    {
      "channel": 5,
      "note": 71,
      "start": 19.0279,
      "duration": 0.2412,
      "velocity": 113,
      "chip": "ym2612"
    },
    {
      "channel": 1,
      "note": 54,
      "start": 19.2624,
      "duration": 0.2461,
      "velocity": 80,
      "chip": "ym2612"
    },
    {
      "channel": 4,
      "note": 66,
      "start": 19.2662,
      "duration": 0.2438,
      "velocity": 113,
      "chip": "ym2612"
    },
    {
      "channel": 2,
      "note": 25,
      "start": 19.2729,
      "duration": 0.2387,
      "velocity": 79,
      "chip": "ym2612"
    },
    {
      "channel": 1,
      "note": 57,
      "start": 19.5091,
      "duration": 0.2328,
      "velocity": 80,
      "chip": "ym2612"
    },
    {
      "channel": 3,
      "note": 75,
      "start": 19.5099,
      "duration": 0.2328,
      "velocity": 102,
      "chip": "ym2612"
    },
    {
      "channel": 4,
      "note": 73,
      "start": 19.5106,
      "duration": 0.2328,
      "velocity": 113,
      "chip": "ym2612"
    },
    {
      "channel": 5,
      "note": 69,
      "start": 19.5115,
      "duration": 0.2327,
      "velocity": 113,
      "chip": "ym2612"
    },
    {
      "channel": 1,
      "note": 54,
      "start": 19.7424,
      "duration": 0.1161,
      "velocity": 80,
      "chip": "ym2612"
    },
    {
      "channel": 3,
      "note": 76,
      "start": 19.7432,
      "duration": 0.249,
      "velocity": 102,
      "chip": "ym2612"
    },
    {
      "channel": 4,
      "note": 66,
      "start": 19.744,
      "duration": 0.1156,
      "velocity": 113,
      "chip": "ym2612"
    },
    {
      "channel": 2,
      "note": 70,
      "start": 19.7479,
      "duration": 0.2458,
      "velocity": 127,
      "chip": "ym2612"
    },
    {
      "channel": 1,
      "note": 60,
      "start": 19.8591,
      "duration": 0.2494,
      "velocity": 80,
      "chip": "ym2612"
    },
    {
      "channel": 4,
      "note": 73,
      "start": 19.8602,
      "duration": 0.2494,
      "velocity": 113,
      "chip": "ym2612"
    },
    {
      "channel": 5,
      "note": 69,
      "start": 19.8611,
      "duration": 0.2494,
      "velocity": 113,
      "chip": "ym2612"
    },
    {
      "channel": 3,
      "note": 78,
      "start": 19.9928,
      "duration": 0.2331,
      "velocity": 102,
      "chip": "ym2612"
    },
    {
      "channel": 1,
      "note": 54,
      "start": 20.1091,
      "duration": 0.1161,
      "velocity": 80,
      "chip": "ym2612"
    },
    {
      "channel": 4,
      "note": 66,
      "start": 20.1102,
      "duration": 0.1165,
      "velocity": 113,
      "chip": "ym2612"
    },
    {
      "channel": 1,
      "note": 61,
      "start": 20.2258,
      "duration": 0.2328,
      "velocity": 80,
      "chip": "ym2612"
    },
    {
      "channel": 3,
      "note": 81,
      "start": 20.2266,
      "duration": 0.2327,
      "velocity": 102,
      "chip": "ym2612"
    },
    {
      "channel": 4,
      "note": 73,
      "start": 20.2274,
      "duration": 0.2327,
      "velocity": 113,
      "chip": "ym2612"
    },
    {
      "channel": 5,
      "note": 69,
      "start": 20.2281,
      "duration": 0.2327,
      "velocity": 113,
      "chip": "ym2612"
    },
    {
      "channel": 2,
      "note": 25,
      "start": 20.2317,
      "duration": 0.2323,
      "velocity": 79,
      "chip": "ym2612"
    },
    {
      "channel": 1,
      "note": 54,
      "start": 20.4591,
      "duration": 0.1328,
      "velocity": 80,
      "chip": "ym2612"
    },
    {
      "channel": 3,
      "note": 78,
      "start": 20.4599,
      "duration": 0.4827,
      "velocity": 102,
      "chip": "ym2612"
    },
    {
      "channel": 4,
      "note": 66,
      "start": 20.4607,
      "duration": 0.1323,
      "velocity": 113,
      "chip": "ym2612"
    },
    {
      "channel": 2,
      "note": 25,
      "start": 20.4646,
      "duration": 0.2482,
      "velocity": 127,
      "chip": "ym2612"
    },
    {
      "channel": 1,
      "note": 66,
      "start": 20.5925,
      "duration": 0.2327,
      "velocity": 80,
      "chip": "ym2612"
    },
    {
      "channel": 4,
      "note": 73,
      "start": 20.5937,
      "duration": 0.2327,
      "velocity": 113,
      "chip": "ym2612"
    },
    {
      "channel": 5,
      "note": 69,
      "start": 20.5944,
      "duration": 0.2327,
      "velocity": 113,
      "chip": "ym2612"
    },
    {
      "channel": 2,
      "note": 70,
      "start": 20.7134,
      "duration": 0.1168,
      "velocity": 79,
      "chip": "ym2612"
    },
    {
      "channel": 1,
      "note": 54,
      "start": 20.8258,
      "duration": 0.1161,
      "velocity": 80,
      "chip": "ym2612"
    },
    {
      "channel": 4,
      "note": 66,
      "start": 20.8269,
      "duration": 0.1165,
      "velocity": 113,
      "chip": "ym2612"
    },
    {
      "channel": 2,
      "note": 25,
      "start": 20.8309,
      "duration": 0.2295,
      "velocity": 79,
      "chip": "ym2612"
    },
    {
      "channel": 1,
      "note": 64,
      "start": 20.9425,
      "duration": 0.2526,
      "velocity": 80,
      "chip": "ym2612"
    },
    {
      "channel": 3,
      "note": 83,
      "start": 20.9433,
      "duration": 0.4827,
      "velocity": 102,
      "chip": "ym2612"
    },
    {
      "channel": 4,
      "note": 75,
      "start": 20.944,
      "duration": 0.2549,
      "velocity": 113,
      "chip": "ym2612"
    },
    {
      "channel": 5,
      "note": 71,
      "start": 20.9449,
      "duration": 0.2576,
      "velocity": 113,
      "chip": "ym2612"
    },
    {
      "channel": 1,
      "note": 54,
      "start": 21.1958,
      "duration": 0.2295,
      "velocity": 80,
      "chip": "ym2612"
    },
    {
      "channel": 4,
      "note": 66,
      "start": 21.1996,
      "duration": 0.2272,
      "velocity": 113,
      "chip": "ym2612"
    },
    {
      "channel": 2,
      "note": 25,
      "start": 21.2063,
      "duration": 0.222,
      "velocity": 79,
      "chip": "ym2612"
    },
    {
      "channel": 1,
      "note": 57,
      "start": 21.4258,
      "duration": 0.2328,
      "velocity": 80,
      "chip": "ym2612"
    },
    {
      "channel": 3,
      "note": 81,
      "start": 21.4266,
      "duration": 0.4823,
      "velocity": 102,
      "chip": "ym2612"
    },
    {
      "channel": 4,
      "note": 73,
      "start": 21.4274,
      "duration": 0.2322,
      "velocity": 113,
      "chip": "ym2612"
    },
    {
      "channel": 5,
      "note": 69,
      "start": 21.4281,
      "duration": 0.2323,
      "velocity": 113,
      "chip": "ym2612"
    },
    {
      "channel": 1,
      "note": 54,
      "start": 21.6591,
      "duration": 0.1328,
      "velocity": 80,
      "chip": "ym2612"
    },
    {
      "channel": 4,
      "note": 66,
      "start": 21.6602,
      "duration": 0.1328,
      "velocity": 113,
      "chip": "ym2612"
    },
    {
      "channel": 2,
      "note": 70,
      "start": 21.6642,
      "duration": 0.2462,
      "velocity": 127,
      "chip": "ym2612"
    },
    {
      "channel": 1,
      "note": 60,
      "start": 21.7924,
      "duration": 0.2328,
      "velocity": 80,
      "chip": "ym2612"
    },
    {
      "channel": 4,
      "note": 73,
      "start": 21.7936,
      "duration": 0.2327,
      "velocity": 113,
      "chip": "ym2612"
    },
    {
      "channel": 5,
      "note": 69,
      "start": 21.7944,
      "duration": 0.2327,
      "velocity": 113,
      "chip": "ym2612"
    },
    {
      "channel": 3,
      "note": 78,
      "start": 21.9095,
      "duration": 1.2033,
      "velocity": 102,
      "chip": "ym2612"
    },
    {
      "channel": 1,
      "note": 54,
      "start": 22.0258,
      "duration": 0.1161,
      "velocity": 80,
      "chip": "ym2612"
    },
    {
      "channel": 4,
      "note": 66,
      "start": 22.0269,
      "duration": 0.1161,
      "velocity": 113,
      "chip": "ym2612"
    },
    {
      "channel": 1,
      "note": 61,
      "start": 22.1425,
      "duration": 0.2494,
      "velocity": 80,
      "chip": "ym2612"
    },
    {
      "channel": 4,
      "note": 73,
      "start": 22.1437,
      "duration": 0.2493,
      "velocity": 113,
      "chip": "ym2612"
    },
    {
      "channel": 5,
      "note": 69,
      "start": 22.1444,
      "duration": 0.2494,
      "velocity": 113,
      "chip": "ym2612"
    },
    {
      "channel": 2,
      "note": 25,
      "start": 22.148,
      "duration": 0.2489,
      "velocity": 79,
      "chip": "ym2612"
    },
    {
      "channel": 1,
      "note": 54,
      "start": 22.3924,
      "duration": 0.1161,
      "velocity": 80,
      "chip": "ym2612"
    },
    {
      "channel": 4,
      "note": 66,
      "start": 22.3936,
      "duration": 0.1161,
      "velocity": 113,
      "chip": "ym2612"
    },
    {
      "channel": 2,
      "note": 25,
      "start": 22.3975,
      "duration": 0.232,
      "velocity": 127,
      "chip": "ym2612"
    },
    {
      "channel": 1,
      "note": 66,
      "start": 22.5091,
      "duration": 0.2328,
      "velocity": 80,
      "chip": "ym2612"
    },
    {
      "channel": 4,
      "note": 73,
      "start": 22.5102,
      "duration": 0.2328,
      "velocity": 113,
      "chip": "ym2612"
    },
    {
      "channel": 5,
      "note": 69,
      "start": 22.5111,
      "duration": 0.2327,
      "velocity": 113,
      "chip": "ym2612"
    },
    {
      "channel": 2,
      "note": 70,
      "start": 22.6301,
      "duration": 0.1168,
      "velocity": 79,
      "chip": "ym2612"
    },
    {
      "channel": 1,
      "note": 54,
      "start": 22.7424,
      "duration": 0.1161,
      "velocity": 80,
      "chip": "ym2612"
    },
    {
      "channel": 4,
      "note": 66,
      "start": 22.7436,
      "duration": 0.1161,
      "velocity": 113,
      "chip": "ym2612"
    },
    {
      "channel": 2,
      "note": 25,
      "start": 22.7475,
      "duration": 0.2459,
      "velocity": 79,
      "chip": "ym2612"
    },
    {
      "channel": 1,
      "note": 64,
      "start": 22.8591,
      "duration": 0.2528,
      "velocity": 80,
      "chip": "ym2612"
    },
    {
      "channel": 4,
      "note": 75,
      "start": 22.8602,
      "duration": 0.2561,
      "velocity": 113,
      "chip": "ym2612"
    },
    {
      "channel": 5,
      "note": 71,
      "start": 22.8611,
      "duration": 0.2586,
      "velocity": 113,
      "chip": "ym2612"
    },
    {
      "channel": 0,
      "note": 90,
      "start": 23.1089,
      "duration": 1.1993,
      "velocity": 102,
      "chip": "ym2612"
    },
    {
      "channel": 1,
      "note": 54,
      "start": 23.1125,
      "duration": 0.2293,
      "velocity": 80,
      "chip": "ym2612"
    },
    {
      "channel": 3,
      "note": 83,
      "start": 23.1134,
      "duration": 1.1963,
      "velocity": 102,
      "chip": "ym2612"
    },
    {
      "channel": 4,
      "note": 66,
      "start": 23.1169,
      "duration": 0.2261,
      "velocity": 113,
      "chip": "ym2612"
    },
    {
      "channel": 2,
      "note": 25,
      "start": 23.1236,
      "duration": 0.221,
      "velocity": 79,
      "chip": "ym2612"
    },
    {
      "channel": 1,
      "note": 57,
      "start": 23.3424,
      "duration": 0.2494,
      "velocity": 80,
      "chip": "ym2612"
    },
    {
      "channel": 4,
      "note": 73,
      "start": 23.3436,
      "duration": 0.2494,
      "velocity": 113,
      "chip": "ym2612"
    },
    {
      "channel": 5,
      "note": 69,
      "start": 23.3444,
      "duration": 0.2494,
      "velocity": 113,
      "chip": "ym2612"
    },
    {
      "channel": 1,
      "note": 54,
      "start": 23.5924,
      "duration": 0.1161,
      "velocity": 80,
      "chip": "ym2612"
    },
    {
      "channel": 4,
      "note": 66,
      "start": 23.5936,
      "duration": 0.1161,
      "velocity": 113,
      "chip": "ym2612"
    },
    {
      "channel": 2,
      "note": 70,
      "start": 23.5975,
      "duration": 0.2291,
      "velocity": 127,
      "chip": "ym2612"
    },
    {
      "channel": 1,
      "note": 60,
      "start": 23.7091,
      "duration": 0.2328,
      "velocity": 80,
      "chip": "ym2612"
    },
    {
      "channel": 4,
      "note": 73,
      "start": 23.7102,
      "duration": 0.2328,
      "velocity": 113,
      "chip": "ym2612"
    },
    {
      "channel": 5,
      "note": 69,
      "start": 23.7111,
      "duration": 0.2327,
      "velocity": 113,
      "chip": "ym2612"
    },
    {
      "channel": 1,
      "note": 54,
      "start": 23.9424,
      "duration": 0.1161,
      "velocity": 80,
      "chip": "ym2612"
    },
    {
      "channel": 4,
      "note": 66,
      "start": 23.9436,
      "duration": 0.1161,
      "velocity": 113,
      "chip": "ym2612"
    },
    {
      "channel": 1,
      "note": 61,
      "start": 24.0592,
      "duration": 0.2497,
      "velocity": 80,
      "chip": "ym2612"
    },
    {
      "channel": 4,
      "note": 73,
      "start": 24.0603,
      "duration": 0.2502,
      "velocity": 113,
      "chip": "ym2612"
    },
    {
      "channel": 5,
      "note": 69,
      "start": 24.0611,
      "duration": 0.2502,
      "velocity": 113,
      "chip": "ym2612"
    },
    {
      "channel": 2,
      "note": 25,
      "start": 24.0646,
      "duration": 0.2498,
      "velocity": 79,
      "chip": "ym2612"
    },
    {
      "channel": 0,
      "note": 88,
      "start": 24.3088,
      "duration": 1.4327,
      "velocity": 102,
      "chip": "ym2612"
    },
    {
      "channel": 1,
      "note": 54,
      "start": 24.3095,
      "duration": 0.1157,
      "velocity": 80,
      "chip": "ym2612"
    },
    {
      "channel": 3,
      "note": 88,
      "start": 24.3104,
      "duration": 1.4322,
      "velocity": 102,
      "chip": "ym2612"
    },
    {
      "channel": 4,
      "note": 66,
      "start": 24.3112,
      "duration": 0.1152,
      "velocity": 113,
      "chip": "ym2612"
    },
    {
      "channel": 2,
      "note": 25,
      "start": 24.315,
      "duration": 0.2311,
      "velocity": 127,
      "chip": "ym2612"
    },
    {
      "channel": 1,
      "note": 66,
      "start": 24.4259,
      "duration": 0.2327,
      "velocity": 80,
      "chip": "ym2612"
    },
    {
      "channel": 4,
      "note": 73,
      "start": 24.427,
      "duration": 0.2327,
      "velocity": 113,
      "chip": "ym2612"
    },
    {
      "channel": 5,
      "note": 69,
      "start": 24.4278,
      "duration": 0.2327,
      "velocity": 113,
      "chip": "ym2612"
    },
    {
      "channel": 2,
      "note": 70,
      "start": 24.5468,
      "duration": 0.1168,
      "velocity": 79,
      "chip": "ym2612"
    },
    {
      "channel": 1,
      "note": 54,
      "start": 24.6591,
      "duration": 0.1331,
      "velocity": 80,
      "chip": "ym2612"
    },
    {
      "channel": 4,
      "note": 66,
      "start": 24.6602,
      "duration": 0.1335,
      "velocity": 113,
      "chip": "ym2612"
    },
    {
      "channel": 2,
      "note": 25,
      "start": 24.6641,
      "duration": 0.2459,
      "velocity": 79,
      "chip": "ym2612"
    },
    {
      "channel": 1,
      "note": 64,
      "start": 24.7928,
      "duration": 0.2352,
      "velocity": 80,
      "chip": "ym2612"
    },
    {
      "channel": 4,
      "note": 75,
      "start": 24.7944,
      "duration": 0.2376,
      "velocity": 113,
      "chip": "ym2612"
    },
    {
      "channel": 5,
      "note": 71,
      "start": 24.7952,
      "duration": 0.2402,
      "velocity": 113,
      "chip": "ym2612"
    },
    {
      "channel": 1,
      "note": 54,
      "start": 25.0287,
      "duration": 0.2298,
      "velocity": 80,
      "chip": "ym2612"
    },
    {
      "channel": 4,
      "note": 66,
      "start": 25.0325,
      "duration": 0.2271,
      "velocity": 113,
      "chip": "ym2612"
    },
    {
      "channel": 2,
      "note": 25,
      "start": 25.0392,
      "duration": 0.222,
      "velocity": 79,
      "chip": "ym2612"
    },
    {
      "channel": 1,
      "note": 57,
      "start": 25.2591,
      "duration": 0.2494,
      "velocity": 80,
      "chip": "ym2612"
    },
    {
      "channel": 4,
      "note": 73,
      "start": 25.2602,
      "duration": 0.2494,
      "velocity": 113,
      "chip": "ym2612"
    },
    {
      "channel": 5,
      "note": 69,
      "start": 25.261,
      "duration": 0.2494,
      "velocity": 113,
      "chip": "ym2612"
    },
    {
      "channel": 1,
      "note": 54,
      "start": 25.5091,
      "duration": 0.1161,
      "velocity": 80,
      "chip": "ym2612"
    },
    {
      "channel": 4,
      "note": 66,
      "start": 25.5102,
      "duration": 0.1161,
      "velocity": 113,
      "chip": "ym2612"
    },
    {
      "channel": 2,
      "note": 70,
      "start": 25.5142,
      "duration": 0.23,
      "velocity": 127,
      "chip": "ym2612"
    },
    {
      "channel": 1,
      "note": 60,
      "start": 25.6259,
      "duration": 0.2331,
      "velocity": 80,
      "chip": "ym2612"
    },
    {
      "channel": 4,
      "note": 73,
      "start": 25.627,
      "duration": 0.2335,
      "velocity": 113,
      "chip": "ym2612"
    },
    {
      "channel": 5,
      "note": 69,
      "start": 25.6278,
      "duration": 0.2334,
      "velocity": 113,
      "chip": "ym2612"
    },
    {
      "channel": 0,
      "note": 95,
      "start": 25.7421,
      "duration": 0.716,
      "velocity": 102,
      "chip": "ym2612"
    },
    {
      "channel": 3,
      "note": 95,
      "start": 25.7433,
      "duration": 0.716,
      "velocity": 102,
      "chip": "ym2612"
    },
    {
      "channel": 1,
      "note": 54,
      "start": 25.8595,
      "duration": 0.1324,
      "velocity": 80,
      "chip": "ym2612"
    },
    {
      "channel": 4,
      "note": 66,
      "start": 25.861,
      "duration": 0.132,
      "velocity": 113,
      "chip": "ym2612"
    },
    {
      "channel": 1,
      "note": 61,
      "start": 25.9925,
      "duration": 0.2327,
      "velocity": 80,
      "chip": "ym2612"
    },
    {
      "channel": 4,
      "note": 73,
      "start": 25.9937,
      "duration": 0.2326,
      "velocity": 113,
      "chip": "ym2612"
    },
    {
      "channel": 5,
      "note": 69,
      "start": 25.9944,
      "duration": 0.2327,
      "velocity": 113,
      "chip": "ym2612"
    },
    {
      "channel": 2,
      "note": 25,
      "start": 25.998,
      "duration": 0.2322,
      "velocity": 79,
      "chip": "ym2612"
    },
    {
      "channel": 1,
      "note": 54,
      "start": 26.2258,
      "duration": 0.1161,
      "velocity": 80,
      "chip": "ym2612"
    },
    {
      "channel": 4,
      "note": 66,
      "start": 26.2269,
      "duration": 0.1161,
      "velocity": 113,
      "chip": "ym2612"
    },
    {
      "channel": 2,
      "note": 25,
      "start": 26.2308,
      "duration": 0.2329,
      "velocity": 127,
      "chip": "ym2612"
    },
    {
      "channel": 1,
      "note": 66,
      "start": 26.3424,
      "duration": 0.2494,
      "velocity": 80,
      "chip": "ym2612"
    },
    {
      "channel": 4,
      "note": 73,
      "start": 26.3436,
      "duration": 0.2494,
      "velocity": 113,
      "chip": "ym2612"
    },
    {
      "channel": 5,
      "note": 69,
      "start": 26.3444,
      "duration": 0.2494,
      "velocity": 113,
      "chip": "ym2612"
    },
    {
      "channel": 0,
      "note": 93,
      "start": 26.4588,
      "duration": 0.4827,
      "velocity": 102,
      "chip": "ym2612"
    },
    {
      "channel": 3,
      "note": 93,
      "start": 26.46,
      "duration": 0.4859,
      "velocity": 102,
      "chip": "ym2612"
    },
    {
      "channel": 2,
      "note": 70,
      "start": 26.4643,
      "duration": 0.1326,
      "velocity": 79,
      "chip": "ym2612"
    },
    {
      "channel": 1,
      "note": 54,
      "start": 26.5924,
      "duration": 0.1161,
      "velocity": 80,
      "chip": "ym2612"
    },
    {
      "channel": 4,
      "note": 66,
      "start": 26.5936,
      "duration": 0.1161,
      "velocity": 113,
      "chip": "ym2612"
    },
    {
      "channel": 2,
      "note": 25,
      "start": 26.5975,
      "duration": 0.2292,
      "velocity": 79,
      "chip": "ym2612"
    },
    {
      "channel": 1,
      "note": 64,
      "start": 26.7091,
      "duration": 0.2361,
      "velocity": 80,
      "chip": "ym2612"
    },
    {
      "channel": 4,
      "note": 75,
      "start": 26.7102,
      "duration": 0.2392,
      "velocity": 113,
      "chip": "ym2612"
    },
    {
      "channel": 5,
      "note": 71,
      "start": 26.7111,
      "duration": 0.2419,
      "velocity": 113,
      "chip": "ym2612"
    },
    {
      "channel": 0,
      "note": 92,
      "start": 26.9421,
      "duration": 0.4827,
      "velocity": 102,
      "chip": "ym2612"
    },
    {
      "channel": 1,
      "note": 54,
      "start": 26.9458,
      "duration": 0.2461,
      "velocity": 80,
      "chip": "ym2612"
    },
    {
      "channel": 3,
      "note": 85,
      "start": 26.9466,
      "duration": 0.4798,
      "velocity": 102,
      "chip": "ym2612"
    },
    {
      "channel": 4,
      "note": 66,
      "start": 26.9501,
      "duration": 0.2429,
      "velocity": 113,
      "chip": "ym2612"
    },
    {
      "channel": 2,
      "note": 25,
      "start": 26.9567,
      "duration": 0.2378,
      "velocity": 79,
      "chip": "ym2612"
    },
    {
      "channel": 1,
      "note": 57,
      "start": 27.1924,
      "duration": 0.2332,
      "velocity": 80,
      "chip": "ym2612"
    },
    {
      "channel": 4,
      "note": 73,
      "start": 27.1936,
      "duration": 0.2336,
      "velocity": 113,
      "chip": "ym2612"
    },
    {
      "channel": 5,
      "note": 69,
      "start": 27.1944,
      "duration": 0.2336,
      "velocity": 113,
      "chip": "ym2612"
    },
    {
      "channel": 0,
      "note": 93,
      "start": 27.4255,
      "duration": 0.2327,
      "velocity": 102,
      "chip": "ym2612"
    },
    {
      "channel": 1,
      "note": 54,
      "start": 27.4262,
      "duration": 0.1157,
      "velocity": 80,
      "chip": "ym2612"
    },
    {
      "channel": 3,
      "note": 100,
      "start": 27.4271,
      "duration": 0.2322,
      "velocity": 102,
      "chip": "ym2612"
    },
    {
      "channel": 4,
      "note": 66,
      "start": 27.4278,
      "duration": 0.1152,
      "velocity": 113,
      "chip": "ym2612"
    },
    {
      "channel": 2,
      "note": 70,
      "start": 27.4318,
      "duration": 0.2291,
      "velocity": 127,
      "chip": "ym2612"
    },
    {
      "channel": 1,
      "note": 60,
      "start": 27.5425,
      "duration": 0.2494,
      "velocity": 80,
      "chip": "ym2612"
    },
    {
      "channel": 4,
      "note": 73,
      "start": 27.5437,
      "duration": 0.2493,
      "velocity": 113,
      "chip": "ym2612"
    },
    {
      "channel": 5,
      "note": 69,
      "start": 27.5444,
      "duration": 0.2494,
      "velocity": 113,
      "chip": "ym2612"
    },
    {
      "channel": 0,
      "note": 92,
      "start": 27.6588,
      "duration": 3.1328,
      "velocity": 102,
      "chip": "ym2612"
    },
    {
      "channel": 3,
      "note": 85,
      "start": 27.6599,
      "duration": 3.1362,
      "velocity": 102,
      "chip": "ym2612"
    },
    {
      "channel": 1,
      "note": 54,
      "start": 27.7924,
      "duration": 0.1161,
      "velocity": 80,
      "chip": "ym2612"
    },
    {
      "channel": 4,
      "note": 66,
      "start": 27.7936,
      "duration": 0.1161,
      "velocity": 113,
      "chip": "ym2612"
    },
    {
      "channel": 1,
      "note": 61,
      "start": 27.9092,
      "duration": 0.2327,
      "velocity": 80,
      "chip": "ym2612"
    },
    {
      "channel": 4,
      "note": 73,
      "start": 27.9103,
      "duration": 0.2326,
      "velocity": 113,
      "chip": "ym2612"
    },
    {
      "channel": 5,
      "note": 69,
      "start": 27.9111,
      "duration": 0.2327,
      "velocity": 113,
      "chip": "ym2612"
    },
    {
      "channel": 2,
      "note": 25,
      "start": 27.9146,
      "duration": 0.2322,
      "velocity": 79,
      "chip": "ym2612"
    },
    {
      "channel": 1,
      "note": 54,
      "start": 28.1424,
      "duration": 0.1161,
      "velocity": 80,
      "chip": "ym2612"
    },
    {
      "channel": 4,
      "note": 66,
      "start": 28.1436,
      "duration": 0.1161,
      "velocity": 113,
      "chip": "ym2612"
    },
    {
      "channel": 2,
      "note": 25,
      "start": 28.1475,
      "duration": 0.2487,
      "velocity": 127,
      "chip": "ym2612"
    },
    {
      "channel": 1,
      "note": 66,
      "start": 28.2592,
      "duration": 0.2494,
      "velocity": 80,
      "chip": "ym2612"
    },
    {
      "channel": 4,
      "note": 73,
      "start": 28.2603,
      "duration": 0.2493,
      "velocity": 113,
      "chip": "ym2612"
    },
    {
      "channel": 5,
      "note": 69,
      "start": 28.2611,
      "duration": 0.2494,
      "velocity": 113,
      "chip": "ym2612"
    },
    {
      "channel": 2,
      "note": 70,
      "start": 28.3968,
      "duration": 0.1168,
      "velocity": 79,
      "chip": "ym2612"
    },
    {
      "channel": 1,
      "note": 54,
      "start": 28.5091,
      "duration": 0.1161,
      "velocity": 80,
      "chip": "ym2612"
    },
    {
      "channel": 4,
      "note": 66,
      "start": 28.5102,
      "duration": 0.1161,
      "velocity": 113,
      "chip": "ym2612"
    },
    {
      "channel": 2,
      "note": 25,
      "start": 28.5141,
      "duration": 0.2292,
      "velocity": 79,
      "chip": "ym2612"
    },
    {
      "channel": 1,
      "note": 64,
      "start": 28.6258,
      "duration": 0.236,
      "velocity": 80,
      "chip": "ym2612"
    },
    {
      "channel": 4,
      "note": 75,
      "start": 28.6269,
      "duration": 0.2391,
      "velocity": 113,
      "chip": "ym2612"
    },
    {
      "channel": 5,
      "note": 71,
      "start": 28.6278,
      "duration": 0.2417,
      "velocity": 113,
      "chip": "ym2612"
    },
    {
      "channel": 1,
      "note": 54,
      "start": 28.8624,
      "duration": 0.2461,
      "velocity": 80,
      "chip": "ym2612"
    },
    {
      "channel": 4,
      "note": 66,
      "start": 28.8666,
      "duration": 0.243,
      "velocity": 113,
      "chip": "ym2612"
    },
    {
      "channel": 2,
      "note": 25,
      "start": 28.8733,
      "duration": 0.2379,
      "velocity": 79,
      "chip": "ym2612"
    },
    {
      "channel": 1,
      "note": 57,
      "start": 29.1091,
      "duration": 0.2328,
      "velocity": 80,
      "chip": "ym2612"
    },
    {
      "channel": 4,
      "note": 73,
      "start": 29.1102,
      "duration": 0.2328,
      "velocity": 113,
      "chip": "ym2612"
    },
    {
      "channel": 5,
      "note": 69,
      "start": 29.111,
      "duration": 0.2328,
      "velocity": 113,
      "chip": "ym2612"
    },
    {
      "channel": 1,
      "note": 54,
      "start": 29.3424,
      "duration": 0.1161,
      "velocity": 80,
      "chip": "ym2612"
    },
    {
      "channel": 4,
      "note": 66,
      "start": 29.3436,
      "duration": 0.1161,
      "velocity": 113,
      "chip": "ym2612"
    },
    {
      "channel": 2,
      "note": 70,
      "start": 29.3475,
      "duration": 0.2458,
      "velocity": 127,
      "chip": "ym2612"
    },
    {
      "channel": 1,
      "note": 60,
      "start": 29.4591,
      "duration": 0.2494,
      "velocity": 80,
      "chip": "ym2612"
    },
    {
      "channel": 4,
      "note": 73,
      "start": 29.4602,
      "duration": 0.2494,
      "velocity": 113,
      "chip": "ym2612"
    },
    {
      "channel": 5,
      "note": 69,
      "start": 29.4611,
      "duration": 0.2494,
      "velocity": 113,
      "chip": "ym2612"
    },
    {
      "channel": 1,
      "note": 54,
      "start": 29.7091,
      "duration": 0.1161,
      "velocity": 80,
      "chip": "ym2612"
    },
    {
      "channel": 4,
      "note": 66,
      "start": 29.7102,
      "duration": 0.1161,
      "velocity": 113,
      "chip": "ym2612"
    },
    {
      "channel": 1,
      "note": 61,
      "start": 29.8258,
      "duration": 0.2328,
      "velocity": 80,
      "chip": "ym2612"
    },
    {
      "channel": 4,
      "note": 73,
      "start": 29.8269,
      "duration": 0.2327,
      "velocity": 113,
      "chip": "ym2612"
    },
    {
      "channel": 5,
      "note": 69,
      "start": 29.8278,
      "duration": 0.2327,
      "velocity": 113,
      "chip": "ym2612"
    },
    {
      "channel": 2,
      "note": 25,
      "start": 29.8313,
      "duration": 0.2322,
      "velocity": 79,
      "chip": "ym2612"
    },
    {
      "channel": 1,
      "note": 54,
      "start": 30.0591,
      "duration": 0.1328,
      "velocity": 80,
      "chip": "ym2612"
    },
    {
      "channel": 4,
      "note": 66,
      "start": 30.0602,
      "duration": 0.1328,
      "velocity": 113,
      "chip": "ym2612"
    },
    {
      "channel": 2,
      "note": 25,
      "start": 30.0641,
      "duration": 0.2487,
      "velocity": 127,
      "chip": "ym2612"
    },
    {
      "channel": 1,
      "note": 66,
      "start": 30.1924,
      "duration": 0.2328,
      "velocity": 80,
      "chip": "ym2612"
    },
    {
      "channel": 4,
      "note": 73,
      "start": 30.1936,
      "duration": 0.2328,
      "velocity": 113,
      "chip": "ym2612"
    },
    {
      "channel": 5,
      "note": 69,
      "start": 30.1944,
      "duration": 0.2327,
      "velocity": 113,
      "chip": "ym2612"
    },
    {
      "channel": 2,
      "note": 70,
      "start": 30.3134,
      "duration": 0.1168,
      "velocity": 79,
      "chip": "ym2612"
    },
    {
      "channel": 1,
      "note": 54,
      "start": 30.4258,
      "duration": 0.1161,
      "velocity": 80,
      "chip": "ym2612"
    },
    {
      "channel": 4,
      "note": 66,
      "start": 30.4269,
      "duration": 0.1161,
      "velocity": 113,
      "chip": "ym2612"
    },
    {
      "channel": 2,
      "note": 25,
      "start": 30.4308,
      "duration": 0.2292,
      "velocity": 79,
      "chip": "ym2612"
    },
    {
      "channel": 1,
      "note": 64,
      "start": 30.5424,
      "duration": 0.2528,
      "velocity": 80,
      "chip": "ym2612"
    },
    {
      "channel": 4,
      "note": 75,
      "start": 30.5436,
      "duration": 0.2561,
      "velocity": 113,
      "chip": "ym2612"
    },
    {
      "channel": 5,
      "note": 71,
      "start": 30.5444,
      "duration": 0.2587,
      "velocity": 113,
      "chip": "ym2612"
    },
    {
      "channel": 0,
      "note": 90,
      "start": 30.7922,
      "duration": 1.1993,
      "velocity": 102,
      "chip": "ym2612"
    },
    {
      "channel": 1,
      "note": 54,
      "start": 30.7959,
      "duration": 0.2293,
      "velocity": 80,
      "chip": "ym2612"
    },
    {
      "channel": 3,
      "note": 83,
      "start": 30.7968,
      "duration": 1.1963,
      "velocity": 102,
      "chip": "ym2612"
    },
    {
      "channel": 4,
      "note": 66,
      "start": 30.8003,
      "duration": 0.226,
      "velocity": 113,
      "chip": "ym2612"
    },
    {
      "channel": 2,
      "note": 25,
      "start": 30.8069,
      "duration": 0.221,
      "velocity": 79,
      "chip": "ym2612"
    },
    {
      "channel": 1,
      "note": 57,
      "start": 31.0258,
      "duration": 0.2328,
      "velocity": 80,
      "chip": "ym2612"
    },
    {
      "channel": 4,
      "note": 73,
      "start": 31.0269,
      "duration": 0.2327,
      "velocity": 113,
      "chip": "ym2612"
    },
    {
      "channel": 5,
      "note": 69,
      "start": 31.0277,
      "duration": 0.2328,
      "velocity": 113,
      "chip": "ym2612"
    },
    {
      "channel": 1,
      "note": 54,
      "start": 31.2591,
      "duration": 0.1328,
      "velocity": 80,
      "chip": "ym2612"
    },
    {
      "channel": 4,
      "note": 66,
      "start": 31.2602,
      "duration": 0.1328,
      "velocity": 113,
      "chip": "ym2612"
    },
    {
      "channel": 2,
      "note": 70,
      "start": 31.2642,
      "duration": 0.2458,
      "velocity": 127,
      "chip": "ym2612"
    },
    {
      "channel": 1,
      "note": 60,
      "start": 31.3925,
      "duration": 0.2327,
      "velocity": 80,
      "chip": "ym2612"
    },
    {
      "channel": 4,
      "note": 73,
      "start": 31.3937,
      "duration": 0.2326,
      "velocity": 113,
      "chip": "ym2612"
    },
    {
      "channel": 5,
      "note": 69,
      "start": 31.3944,
      "duration": 0.2327,
      "velocity": 113,
      "chip": "ym2612"
    },
    {
      "channel": 1,
      "note": 54,
      "start": 31.6258,
      "duration": 0.1161,
      "velocity": 80,
      "chip": "ym2612"
    },
    {
      "channel": 4,
      "note": 66,
      "start": 31.6269,
      "duration": 0.1161,
      "velocity": 113,
      "chip": "ym2612"
    },
    {
      "channel": 1,
      "note": 61,
      "start": 31.7424,
      "duration": 0.2498,
      "velocity": 80,
      "chip": "ym2612"
    },
    {
      "channel": 4,
      "note": 73,
      "start": 31.7436,
      "duration": 0.2503,
      "velocity": 113,
      "chip": "ym2612"
    },
    {
      "channel": 5,
      "note": 69,
      "start": 31.7444,
      "duration": 0.2502,
      "velocity": 113,
      "chip": "ym2612"
    },
    {
      "channel": 2,
      "note": 25,
      "start": 31.748,
      "duration": 0.2498,
      "velocity": 79,
      "chip": "ym2612"
    },
    {
      "channel": 0,
      "note": 88,
      "start": 31.9921,
      "duration": 1.4327,
      "velocity": 102,
      "chip": "ym2612"
    },
    {
      "channel": 1,
      "note": 54,
      "start": 31.9929,
      "duration": 0.1157,
      "velocity": 80,
      "chip": "ym2612"
    },
    {
      "channel": 3,
      "note": 88,
      "start": 31.9937,
      "duration": 1.4322,
      "velocity": 102,
      "chip": "ym2612"
    },
    {
      "channel": 4,
      "note": 66,
      "start": 31.9945,
      "duration": 0.1152,
      "velocity": 113,
      "chip": "ym2612"
    },
    {
      "channel": 2,
      "note": 25,
      "start": 31.9984,
      "duration": 0.2311,
      "velocity": 127,
      "chip": "ym2612"
    },
    {
      "channel": 1,
      "note": 66,
      "start": 32.1091,
      "duration": 0.2328,
      "velocity": 80,
      "chip": "ym2612"
    },
    {
      "channel": 4,
      "note": 73,
      "start": 32.1102,
      "duration": 0.2327,
      "velocity": 113,
      "chip": "ym2612"
    },
    {
      "channel": 5,
      "note": 69,
      "start": 32.1111,
      "duration": 0.2327,
      "velocity": 113,
      "chip": "ym2612"
    },
    {
      "channel": 2,
      "note": 70,
      "start": 32.2301,
      "duration": 0.1168,
      "velocity": 79,
      "chip": "ym2612"
    },
    {
      "channel": 1,
      "note": 54,
      "start": 32.3424,
      "duration": 0.1165,
      "velocity": 80,
      "chip": "ym2612"
    },
    {
      "channel": 4,
      "note": 66,
      "start": 32.3436,
      "duration": 0.1169,
      "velocity": 113,
      "chip": "ym2612"
    },
    {
      "channel": 2,
      "note": 25,
      "start": 32.3475,
      "duration": 0.2459,
      "velocity": 79,
      "chip": "ym2612"
    },
    {
      "channel": 1,
      "note": 64,
      "start": 32.4595,
      "duration": 0.2519,
      "velocity": 80,
      "chip": "ym2612"
    },
    {
      "channel": 4,
      "note": 75,
      "start": 32.461,
      "duration": 0.2542,
      "velocity": 113,
      "chip": "ym2612"
    },
    {
      "channel": 5,
      "note": 71,
      "start": 32.4618,
      "duration": 0.2569,
      "velocity": 113,
      "chip": "ym2612"
    },
    {
      "channel": 1,
      "note": 54,
      "start": 32.712,
      "duration": 0.2298,
      "velocity": 80,
      "chip": "ym2612"
    },
    {
      "channel": 4,
      "note": 66,
      "start": 32.7159,
      "duration": 0.2271,
      "velocity": 113,
      "chip": "ym2612"
    },
    {
      "channel": 2,
      "note": 25,
      "start": 32.7225,
      "duration": 0.222,
      "velocity": 79,
      "chip": "ym2612"
    },
    {
      "channel": 1,
      "note": 57,
      "start": 32.9424,
      "duration": 0.2494,
      "velocity": 80,
      "chip": "ym2612"
    },
    {
      "channel": 4,
      "note": 73,
      "start": 32.9436,
      "duration": 0.2494,
      "velocity": 113,
      "chip": "ym2612"
    },
    {
      "channel": 5,
      "note": 69,
      "start": 32.9444,
      "duration": 0.2494,
      "velocity": 113,
      "chip": "ym2612"
    },
    {
      "channel": 1,
      "note": 54,
      "start": 33.1924,
      "duration": 0.1161,
      "velocity": 80,
      "chip": "ym2612"
    },
    {
      "channel": 4,
      "note": 66,
      "start": 33.1936,
      "duration": 0.1161,
      "velocity": 113,
      "chip": "ym2612"
    },
    {
      "channel": 2,
      "note": 70,
      "start": 33.1975,
      "duration": 0.23,
      "velocity": 127,
      "chip": "ym2612"
    },
    {
      "channel": 1,
      "note": 60,
      "start": 33.3092,
      "duration": 0.2331,
      "velocity": 80,
      "chip": "ym2612"
    },
    {
      "channel": 4,
      "note": 73,
      "start": 33.3103,
      "duration": 0.2335,
      "velocity": 113,
      "chip": "ym2612"
    },
    {
      "channel": 5,
      "note": 69,
      "start": 33.3111,
      "duration": 0.2334,
      "velocity": 113,
      "chip": "ym2612"
    },
    {
      "channel": 0,
      "note": 95,
      "start": 33.4255,
      "duration": 0.716,
      "velocity": 102,
      "chip": "ym2612"
    },
    {
      "channel": 3,
      "note": 95,
      "start": 33.4267,
      "duration": 0.716,
      "velocity": 102,
      "chip": "ym2612"
    },
    {
      "channel": 1,
      "note": 54,
      "start": 33.5428,
      "duration": 0.1157,
      "velocity": 80,
      "chip": "ym2612"
    },
    {
      "channel": 4,
      "note": 66,
      "start": 33.5444,
      "duration": 0.1153,
      "velocity": 113,
      "chip": "ym2612"
    },
    {
      "channel": 1,
      "note": 61,
      "start": 33.6591,
      "duration": 0.2494,
      "velocity": 80,
      "chip": "ym2612"
    },
    {
      "channel": 4,
      "note": 73,
      "start": 33.6602,
      "duration": 0.2494,
      "velocity": 113,
      "chip": "ym2612"
    },
    {
      "channel": 5,
      "note": 69,
      "start": 33.6611,
      "duration": 0.2494,
      "velocity": 113,
      "chip": "ym2612"
    },
    {
      "channel": 2,
      "note": 25,
      "start": 33.6646,
      "duration": 0.2489,
      "velocity": 79,
      "chip": "ym2612"
    },
    {
      "channel": 1,
      "note": 54,
      "start": 33.9091,
      "duration": 0.1161,
      "velocity": 80,
      "chip": "ym2612"
    },
    {
      "channel": 4,
      "note": 66,
      "start": 33.9102,
      "duration": 0.1161,
      "velocity": 113,
      "chip": "ym2612"
    },
    {
      "channel": 2,
      "note": 25,
      "start": 33.9141,
      "duration": 0.2329,
      "velocity": 127,
      "chip": "ym2612"
    },
    {
      "channel": 1,
      "note": 66,
      "start": 34.0258,
      "duration": 0.2328,
      "velocity": 80,
      "chip": "ym2612"
    },
    {
      "channel": 4,
      "note": 73,
      "start": 34.0269,
      "duration": 0.2327,
      "velocity": 113,
      "chip": "ym2612"
    },
    {
      "channel": 5,
      "note": 69,
      "start": 34.0278,
      "duration": 0.2327,
      "velocity": 113,
      "chip": "ym2612"
    },
    {
      "channel": 0,
      "note": 93,
      "start": 34.1421,
      "duration": 0.4827,
      "velocity": 102,
      "chip": "ym2612"
    },
    {
      "channel": 3,
      "note": 93,
      "start": 34.1433,
      "duration": 0.4859,
      "velocity": 102,
      "chip": "ym2612"
    },
    {
      "channel": 2,
      "note": 70,
      "start": 34.1477,
      "duration": 0.1159,
      "velocity": 79,
      "chip": "ym2612"
    },
    {
      "channel": 1,
      "note": 54,
      "start": 34.2591,
      "duration": 0.1328,
      "velocity": 80,
      "chip": "ym2612"
    },
    {
      "channel": 4,
      "note": 66,
      "start": 34.2602,
      "duration": 0.1328,
      "velocity": 113,
      "chip": "ym2612"
    },
    {
      "channel": 2,
      "note": 25,
      "start": 34.2641,
      "duration": 0.2459,
      "velocity": 79,
      "chip": "ym2612"
    },
    {
      "channel": 1,
      "note": 64,
      "start": 34.3925,
      "duration": 0.236,
      "velocity": 80,
      "chip": "ym2612"
    },
    {
      "channel": 4,
      "note": 75,
      "start": 34.3937,
      "duration": 0.2391,
      "velocity": 113,
      "chip": "ym2612"
    },
    {
      "channel": 5,
      "note": 71,
      "start": 34.3944,
      "duration": 0.2419,
      "velocity": 113,
      "chip": "ym2612"
    },
    {
      "channel": 0,
      "note": 92,
      "start": 34.6255,
      "duration": 0.4827,
      "velocity": 102,
      "chip": "ym2612"
    },
    {
      "channel": 1,
      "note": 54,
      "start": 34.6292,
      "duration": 0.2294,
      "velocity": 80,
      "chip": "ym2612"
    },
    {
      "channel": 3,
      "note": 85,
      "start": 34.6299,
      "duration": 0.4798,
      "velocity": 102,
      "chip": "ym2612"
    },
    {
      "channel": 4,
      "note": 66,
      "start": 34.6334,
      "duration": 0.2262,
      "velocity": 113,
      "chip": "ym2612"
    },
    {
      "channel": 2,
      "note": 25,
      "start": 34.64,
      "duration": 0.2212,
      "velocity": 79,
      "chip": "ym2612"
    },
    {
      "channel": 1,
      "note": 57,
      "start": 34.8591,
      "duration": 0.2498,
      "velocity": 80,
      "chip": "ym2612"
    },
    {
      "channel": 4,
      "note": 73,
      "start": 34.8602,
      "duration": 0.2503,
      "velocity": 113,
      "chip": "ym2612"
    },
    {
      "channel": 5,
      "note": 69,
      "start": 34.861,
      "duration": 0.2502,
      "velocity": 113,
      "chip": "ym2612"
    },
    {
      "channel": 0,
      "note": 93,
      "start": 35.1088,
      "duration": 0.2327,
      "velocity": 102,
      "chip": "ym2612"
    },
    {
      "channel": 1,
      "note": 54,
      "start": 35.1095,
      "duration": 0.1157,
      "velocity": 80,
      "chip": "ym2612"
    },
    {
      "channel": 3,
      "note": 100,
      "start": 35.1104,
      "duration": 0.2322,
      "velocity": 102,
      "chip": "ym2612"
    },
    {
      "channel": 4,
      "note": 66,
      "start": 35.1112,
      "duration": 0.1152,
      "velocity": 113,
      "chip": "ym2612"
    },
    {
      "channel": 2,
      "note": 70,
      "start": 35.1151,
      "duration": 0.2291,
      "velocity": 127,
      "chip": "ym2612"
    },
    {
      "channel": 1,
      "note": 60,
      "start": 35.2258,
      "duration": 0.2328,
      "velocity": 80,
      "chip": "ym2612"
    },
    {
      "channel": 4,
      "note": 73,
      "start": 35.2269,
      "duration": 0.2327,
      "velocity": 113,
      "chip": "ym2612"
    },
    {
      "channel": 5,
      "note": 69,
      "start": 35.2278,
      "duration": 0.2327,
      "velocity": 113,
      "chip": "ym2612"
    },
    {
      "channel": 0,
      "note": 92,
      "start": 35.3421,
      "duration": 3.1161,
      "velocity": 102,
      "chip": "ym2612"
    },
    {
      "channel": 3,
      "note": 85,
      "start": 35.3433,
      "duration": 3.1197,
      "velocity": 102,
      "chip": "ym2612"
    },
    {
      "channel": 1,
      "note": 54,
      "start": 35.4591,
      "duration": 0.1328,
      "velocity": 80,
      "chip": "ym2612"
    },
    {
      "channel": 4,
      "note": 66,
      "start": 35.4602,
      "duration": 0.1328,
      "velocity": 113,
      "chip": "ym2612"
    },
    {
      "channel": 1,
      "note": 61,
      "start": 35.5924,
      "duration": 0.2328,
      "velocity": 80,
      "chip": "ym2612"
    },
    {
      "channel": 4,
      "note": 73,
      "start": 35.5936,
      "duration": 0.2327,
      "velocity": 113,
      "chip": "ym2612"
    },
    {
      "channel": 5,
      "note": 69,
      "start": 35.5944,
      "duration": 0.2327,
      "velocity": 113,
      "chip": "ym2612"
    },
    {
      "channel": 2,
      "note": 25,
      "start": 35.598,
      "duration": 0.2322,
      "velocity": 79,
      "chip": "ym2612"
    },
    {
      "channel": 1,
      "note": 54,
      "start": 35.8258,
      "duration": 0.1161,
      "velocity": 80,
      "chip": "ym2612"
    },
    {
      "channel": 4,
      "note": 66,
      "start": 35.8269,
      "duration": 0.1161,
      "velocity": 113,
      "chip": "ym2612"
    },
    {
      "channel": 2,
      "note": 25,
      "start": 35.8308,
      "duration": 0.232,
      "velocity": 127,
      "chip": "ym2612"
    },
    {
      "channel": 1,
      "note": 66,
      "start": 35.9424,
      "duration": 0.2494,
      "velocity": 80,
      "chip": "ym2612"
    },
    {
      "channel": 4,
      "note": 73,
      "start": 35.9436,
      "duration": 0.2494,
      "velocity": 113,
      "chip": "ym2612"
    },
    {
      "channel": 5,
      "note": 69,
      "start": 35.9444,
      "duration": 0.2494,
      "velocity": 113,
      "chip": "ym2612"
    },
    {
      "channel": 2,
      "note": 70,
      "start": 36.0634,
      "duration": 0.1334,
      "velocity": 79,
      "chip": "ym2612"
    },
    {
      "channel": 1,
      "note": 54,
      "start": 36.1924,
      "duration": 0.1161,
      "velocity": 80,
      "chip": "ym2612"
    },
    {
      "channel": 4,
      "note": 66,
      "start": 36.1936,
      "duration": 0.1161,
      "velocity": 113,
      "chip": "ym2612"
    },
    {
      "channel": 2,
      "note": 25,
      "start": 36.1975,
      "duration": 0.2292,
      "velocity": 79,
      "chip": "ym2612"
    },
    {
      "channel": 1,
      "note": 64,
      "start": 36.3091,
      "duration": 0.236,
      "velocity": 80,
      "chip": "ym2612"
    },
    {
      "channel": 4,
      "note": 75,
      "start": 36.3102,
      "duration": 0.2391,
      "velocity": 113,
      "chip": "ym2612"
    },
    {
      "channel": 5,
      "note": 71,
      "start": 36.3111,
      "duration": 0.2417,
      "velocity": 113,
      "chip": "ym2612"
    },
    {
      "channel": 1,
      "note": 54,
      "start": 36.5458,
      "duration": 0.2461,
      "velocity": 80,
      "chip": "ym2612"
    },
    {
      "channel": 4,
      "note": 66,
      "start": 36.55,
      "duration": 0.243,
      "velocity": 113,
      "chip": "ym2612"
    },
    {
      "channel": 2,
      "note": 25,
      "start": 36.5566,
      "duration": 0.2379,
      "velocity": 79,
      "chip": "ym2612"
    },
    {
      "channel": 1,
      "note": 57,
      "start": 36.7924,
      "duration": 0.2328,
      "velocity": 80,
      "chip": "ym2612"
    },
    {
      "channel": 4,
      "note": 73,
      "start": 36.7936,
      "duration": 0.2328,
      "velocity": 113,
      "chip": "ym2612"
    },
    {
      "channel": 5,
      "note": 69,
      "start": 36.7944,
      "duration": 0.2328,
      "velocity": 113,
      "chip": "ym2612"
    },
    {
      "channel": 1,
      "note": 54,
      "start": 37.0258,
      "duration": 0.1161,
      "velocity": 80,
      "chip": "ym2612"
    },
    {
      "channel": 4,
      "note": 66,
      "start": 37.0269,
      "duration": 0.1161,
      "velocity": 113,
      "chip": "ym2612"
    },
    {
      "channel": 2,
      "note": 70,
      "start": 37.0309,
      "duration": 0.2291,
      "velocity": 127,
      "chip": "ym2612"
    },
    {
      "channel": 1,
      "note": 60,
      "start": 37.1425,
      "duration": 0.2494,
      "velocity": 80,
      "chip": "ym2612"
    },
    {
      "channel": 4,
      "note": 73,
      "start": 37.1437,
      "duration": 0.2494,
      "velocity": 113,
      "chip": "ym2612"
    },
    {
      "channel": 5,
      "note": 69,
      "start": 37.1444,
      "duration": 0.2494,
      "velocity": 113,
      "chip": "ym2612"
    },
    {
      "channel": 1,
      "note": 54,
      "start": 37.3924,
      "duration": 0.1161,
      "velocity": 80,
      "chip": "ym2612"
    },
    {
      "channel": 4,
      "note": 66,
      "start": 37.3936,
      "duration": 0.1161,
      "velocity": 113,
      "chip": "ym2612"
    },
    {
      "channel": 1,
      "note": 61,
      "start": 37.5091,
      "duration": 0.2328,
      "velocity": 80,
      "chip": "ym2612"
    },
    {
      "channel": 4,
      "note": 73,
      "start": 37.5102,
      "duration": 0.2327,
      "velocity": 113,
      "chip": "ym2612"
    },
    {
      "channel": 5,
      "note": 69,
      "start": 37.5111,
      "duration": 0.2327,
      "velocity": 113,
      "chip": "ym2612"
    },
    {
      "channel": 2,
      "note": 25,
      "start": 37.5146,
      "duration": 0.2322,
      "velocity": 79,
      "chip": "ym2612"
    },
    {
      "channel": 1,
      "note": 54,
      "start": 37.7424,
      "duration": 0.1161,
      "velocity": 80,
      "chip": "ym2612"
    },
    {
      "channel": 4,
      "note": 66,
      "start": 37.7436,
      "duration": 0.1161,
      "velocity": 113,
      "chip": "ym2612"
    },
    {
      "channel": 2,
      "note": 25,
      "start": 37.7475,
      "duration": 0.2487,
      "velocity": 127,
      "chip": "ym2612"
    },
    {
      "channel": 1,
      "note": 66,
      "start": 37.8592,
      "duration": 0.2494,
      "velocity": 80,
      "chip": "ym2612"
    },
    {
      "channel": 4,
      "note": 73,
      "start": 37.8603,
      "duration": 0.2493,
      "velocity": 113,
      "chip": "ym2612"
    },
    {
      "channel": 5,
      "note": 69,
      "start": 37.8611,
      "duration": 0.2494,
      "velocity": 113,
      "chip": "ym2612"
    },
    {
      "channel": 2,
      "note": 70,
      "start": 37.9968,
      "duration": 0.1168,
      "velocity": 79,
      "chip": "ym2612"
    },
    {
      "channel": 1,
      "note": 54,
      "start": 38.1091,
      "duration": 0.1161,
      "velocity": 80,
      "chip": "ym2612"
    },
    {
      "channel": 4,
      "note": 66,
      "start": 38.1102,
      "duration": 0.1161,
      "velocity": 113,
      "chip": "ym2612"
    },
    {
      "channel": 2,
      "note": 25,
      "start": 38.1141,
      "duration": 0.2292,
      "velocity": 79,
      "chip": "ym2612"
    },
    {
      "channel": 1,
      "note": 64,
      "start": 38.2258,
      "duration": 0.2362,
      "velocity": 80,
      "chip": "ym2612"
    },
    {
      "channel": 4,
      "note": 75,
      "start": 38.2269,
      "duration": 0.2391,
      "velocity": 113,
      "chip": "ym2612"
    },
    {
      "channel": 5,
      "note": 71,
      "start": 38.2278,
      "duration": 0.2417,
      "velocity": 113,
      "chip": "ym2612"
    },
    {
      "channel": 0,
      "note": 90,
      "start": 38.4589,
      "duration": 0.4663,
      "velocity": 102,
      "chip": "ym2612"
    },
    {
      "channel": 1,
      "note": 54,
      "start": 38.4626,
      "duration": 0.2459,
      "velocity": 80,
      "chip": "ym2612"
    },
    {
      "channel": 4,
      "note": 66,
      "start": 38.4666,
      "duration": 0.2428,
      "velocity": 113,
      "chip": "ym2612"
    },
    {
      "channel": 2,
      "note": 25,
      "start": 38.4732,
      "duration": 0.2376,
      "velocity": 79,
      "chip": "ym2612"
    },
    {
      "channel": 1,
      "note": 57,
      "start": 38.7091,
      "duration": 0.2161,
      "velocity": 80,
      "chip": "ym2612"
    },
    {
      "channel": 4,
      "note": 73,
      "start": 38.71,
      "duration": 0.2153,
      "velocity": 113,
      "chip": "ym2612"
    },
    {
      "channel": 5,
      "note": 69,
      "start": 38.7108,
      "duration": 0.2145,
      "velocity": 113,
      "chip": "ym2612"
    }
  ]
}