{
  "track_name": "01 - Battle Scene",
  "duration_sec": 40.68,
  "sample_rate": 44100,
  "note_count": 805,
  "unique_pitches": 46,
  "pitch_range": 67,
  "avg_note_duration": 0.1831,
  "reconstruction_stats": {
    "notes_reconstructed": 805,
    "keyon_events": 805,
    "keyoff_events": 805,
    "orphan_keyons": 0,
    "unique_pitches": 46,
    "pitch_range": 67,
    "avg_duration_sec": 0.1831
  },
  "metadata": {
    "source": "S\\Sorcerer's Kingdom\\01 - Battle Scene.vgm"
  },
  "notes": [
    {
      "channel": 0,
      "note": 85,
      "start": 0.0068,
      "duration": 1.6095,
      "velocity": 91,
      "chip": "ym2612"
    },
    {
      "channel": 1,
      "note": 89,
      "start": 0.0068,
      "duration": 1.6095,
      "velocity": 117,
      "chip": "ym2612"
    },
    {
      "channel": 2,
      "note": 92,
      "start": 0.0069,
      "duration": 1.6095,
      "velocity": 117,
      "chip": "ym2612"
    },
    {
      "channel": 3,
      "note": 95,
      "start": 0.007,
      "duration": 1.6096,
      "velocity": 117,
      "chip": "ym2612"
    },
    {
      "channel": 5,
      "note": 55,
      "start": 0.0071,
      "duration": 0.0761,
      "velocity": 105,
      "chip": "ym2612"
    },
    {
      "channel": 5,
      "note": 45,
      "start": 0.1014,
      "duration": 0.0817,
      "velocity": 105,
      "chip": "ym2612"
    },
    {
      "channel": 5,
      "note": 45,
      "start": 0.2014,
      "duration": 0.0817,
      "velocity": 105,
      "chip": "ym2612"
    },
    {
      "channel": 5,
      "note": 45,
      "start": 0.3013,
      "duration": 0.0818,
      "velocity": 105,
      "chip": "ym2612"
    },
    {
      "channel": 5,
      "note": 47,
      "start": 0.4041,
      "duration": 0.079,
      "velocity": 105,
      "chip": "ym2612"
    },
    {
      "channel": 5,
      "note": 37,
      "start": 0.5013,
      "duration": 0.0818,
      "velocity": 105,
      "chip": "ym2612"
    },
    {
      "channel": 5,
      "note": 37,
      "start": 0.6013,
      "duration": 0.0817,
      "velocity": 105,
      "chip": "ym2612"
    },
    {
      "channel": 5,
      "note": 37,
      "start": 0.7013,
      "duration": 0.0817,
      "velocity": 105,
      "chip": "ym2612"
    },
    {
      "channel": 5,
      "note": 54,
      "start": 0.8038,
      "duration": 0.0793,
      "velocity": 105,
      "chip": "ym2612"
    },
    {
      "channel": 5,
      "note": 44,
      "start": 0.9012,
      "duration": 0.0817,
      "velocity": 105,
      "chip": "ym2612"
    },
    {
      "channel": 5,
      "note": 44,
      "start": 1.0012,
      "duration": 0.0817,
      "velocity": 105,
      "chip": "ym2612"
    },
    {
      "channel": 5,
      "note": 44,
      "start": 1.1012,
      "duration": 0.0817,
      "velocity": 105,
      "chip": "ym2612"
    },
    {
      "channel": 5,
      "note": 37,
      "start": 1.204,
      "duration": 0.0788,
      "velocity": 105,
      "chip": "ym2612"
    },
    {
      "channel": 5,
      "note": 37,
      "start": 1.3011,
      "duration": 0.0817,
      "velocity": 105,
      "chip": "ym2612"
    },
    {
      "channel": 5,
      "note": 37,
      "start": 1.4011,
      "duration": 0.0817,
      "velocity": 105,
      "chip": "ym2612"
    },
    {
      "channel": 5,
      "note": 37,
      "start": 1.5011,
      "duration": 0.0817,
      "velocity": 105,
      "chip": "ym2612"
    },
    {
      "channel": 0,
      "note": 66,
      "start": 1.6163,
      "duration": 0.0828,
      "velocity": 91,
      "chip": "ym2612"
    },
    {
      "channel": 1,
      "note": 85,
      "start": 1.6164,
      "duration": 0.2041,
      "velocity": 117,
      "chip": "ym2612"
    },
    {
      "channel": 2,
      "note": 78,
      "start": 1.6165,
      "duration": 0.204,
      "velocity": 117,
      "chip": "ym2612"
    },
    {
      "channel": 3,
      "note": 66,
      "start": 1.6166,
      "duration": 0.2039,
      "velocity": 117,
      "chip": "ym2612"
    },
    {
      "channel": 5,
      "note": 48,
      "start": 1.6167,
      "duration": 0.0659,
      "velocity": 101,
      "chip": "ym2612"
    },
    {
      "channel": 0,
      "note": 78,
      "start": 1.8204,
      "duration": 0.0788,
      "velocity": 91,
      "chip": "ym2612"
    },
    {
      "channel": 5,
      "note": 43,
      "start": 1.8207,
      "duration": 0.0959,
      "velocity": 127,
      "chip": "ym2612"
    },
    {
      "channel": 0,
      "note": 66,
      "start": 1.9164,
      "duration": 0.0828,
      "velocity": 91,
      "chip": "ym2612"
    },
    {
      "channel": 5,
      "note": 48,
      "start": 2.0191,
      "duration": 0.0302,
      "velocity": 101,
      "chip": "ym2612"
    },
    {
      "channel": 0,
      "note": 66,
      "start": 2.1168,
      "duration": 0.0823,
      "velocity": 91,
      "chip": "ym2612"
    },
    {
      "channel": 5,
      "note": 48,
      "start": 2.117,
      "duration": 0.0323,
      "velocity": 101,
      "chip": "ym2612"
    },
    {
      "channel": 0,
      "note": 78,
      "start": 2.2195,
      "duration": 0.0796,
      "velocity": 91,
      "chip": "ym2612"
    },
    {
      "channel": 5,
      "note": 43,
      "start": 2.2196,
      "duration": 0.0964,
      "velocity": 127,
      "chip": "ym2612"
    },
    {
      "channel": 0,
      "note": 66,
      "start": 2.4211,
      "duration": 0.078,
      "velocity": 91,
      "chip": "ym2612"
    },
    {
      "channel": 5,
      "note": 48,
      "start": 2.4212,
      "duration": 0.0613,
      "velocity": 101,
      "chip": "ym2612"
    },
    {
      "channel": 0,
      "note": 78,
      "start": 2.6195,
      "duration": 0.0796,
      "velocity": 91,
      "chip": "ym2612"
    },
    {
      "channel": 5,
      "note": 43,
      "start": 2.6196,
      "duration": 0.0989,
      "velocity": 127,
      "chip": "ym2612"
    },
    {
      "channel": 0,
      "note": 66,
      "start": 2.7182,
      "duration": 0.0809,
      "velocity": 91,
      "chip": "ym2612"
    },
    {
      "channel": 1,
      "note": 88,
      "start": 2.7183,
      "duration": 0.1015,
      "velocity": 117,
      "chip": "ym2612"
    },
    {
      "channel": 2,
      "note": 81,
      "start": 2.7184,
      "duration": 0.1015,
      "velocity": 117,
      "chip": "ym2612"
    },
    {
      "channel": 3,
      "note": 69,
      "start": 2.7184,
      "duration": 0.1015,
      "velocity": 117,
      "chip": "ym2612"
    },
    {
      "channel": 5,
      "note": 48,
      "start": 2.82,
      "duration": 0.0292,
      "velocity": 101,
      "chip": "ym2612"
    },
    {
      "channel": 0,
      "note": 66,
      "start": 2.9187,
      "duration": 0.0805,
      "velocity": 91,
      "chip": "ym2612"
    },
    {
      "channel": 1,
      "note": 88,
      "start": 2.9188,
      "duration": 0.1017,
      "velocity": 117,
      "chip": "ym2612"
    },
    {
      "channel": 2,
      "note": 81,
      "start": 2.9188,
      "duration": 0.1017,
      "velocity": 117,
      "chip": "ym2612"
    },
    {
      "channel": 3,
      "note": 69,
      "start": 2.9189,
      "duration": 0.1017,
      "velocity": 117,
      "chip": "ym2612"
    },
    {
      "channel": 5,
      "note": 48,
      "start": 2.9189,
      "duration": 0.0303,
      "velocity": 101,
      "chip": "ym2612"
    },
    {
      "channel": 0,
      "note": 78,
      "start": 3.0204,
      "duration": 0.0788,
      "velocity": 91,
      "chip": "ym2612"
    },
    {
      "channel": 5,
      "note": 43,
      "start": 3.0207,
      "duration": 0.0974,
      "velocity": 127,
      "chip": "ym2612"
    },
    {
      "channel": 1,
      "note": 88,
      "start": 3.1179,
      "duration": 0.1067,
      "velocity": 117,
      "chip": "ym2612"
    },
    {
      "channel": 2,
      "note": 81,
      "start": 3.1179,
      "duration": 0.1068,
      "velocity": 117,
      "chip": "ym2612"
    },
    {
      "channel": 3,
      "note": 69,
      "start": 3.118,
      "duration": 0.1069,
      "velocity": 117,
      "chip": "ym2612"
    },
    {
      "channel": 0,
      "note": 66,
      "start": 3.2246,
      "duration": 0.0746,
      "velocity": 91,
      "chip": "ym2612"
    },
    {
      "channel": 1,
      "note": 85,
      "start": 3.2247,
      "duration": 0.1968,
      "velocity": 117,
      "chip": "ym2612"
    },
    {
      "channel": 2,
      "note": 78,
      "start": 3.2248,
      "duration": 0.0923,
      "velocity": 117,
      "chip": "ym2612"
    },
    {
      "channel": 5,
      "note": 48,
      "start": 3.2249,
      "duration": 0.0578,
      "velocity": 101,
      "chip": "ym2612"
    },
    {
      "channel": 2,
      "note": 66,
      "start": 3.3172,
      "duration": 0.1044,
      "velocity": 117,
      "chip": "ym2612"
    },
    {
      "channel": 0,
      "note": 78,
      "start": 3.4214,
      "duration": 0.0778,
      "velocity": 91,
      "chip": "ym2612"
    },
    {
      "channel": 1,
      "note": 81,
      "start": 3.4215,
      "duration": 0.0969,
      "velocity": 117,
      "chip": "ym2612"
    },
    {
      "channel": 2,
      "note": 71,
      "start": 3.4216,
      "duration": 0.0969,
      "velocity": 117,
      "chip": "ym2612"
    },
    {
      "channel": 5,
      "note": 43,
      "start": 3.4217,
      "duration": 0.0969,
      "velocity": 127,
      "chip": "ym2612"
    },
    {
      "channel": 0,
      "note": 66,
      "start": 3.5184,
      "duration": 0.0808,
      "velocity": 91,
      "chip": "ym2612"
    },
    {
      "channel": 1,
      "note": 66,
      "start": 3.5185,
      "duration": 0.1023,
      "velocity": 117,
      "chip": "ym2612"
    },
    {
      "channel": 2,
      "note": 78,
      "start": 3.5185,
      "duration": 0.1024,
      "velocity": 117,
      "chip": "ym2612"
    },
    {
      "channel": 1,
      "note": 85,
      "start": 3.6209,
      "duration": 0.0979,
      "velocity": 117,
      "chip": "ym2612"
    },
    {
      "channel": 2,
      "note": 73,
      "start": 3.621,
      "duration": 0.098,
      "velocity": 117,
      "chip": "ym2612"
    },
    {
      "channel": 5,
      "note": 48,
      "start": 3.6211,
      "duration": 0.0282,
      "velocity": 101,
      "chip": "ym2612"
    },
    {
      "channel": 0,
      "note": 66,
      "start": 3.7188,
      "duration": 0.0804,
      "velocity": 91,
      "chip": "ym2612"
    },
    {
      "channel": 1,
      "note": 66,
      "start": 3.7189,
      "duration": 0.1026,
      "velocity": 117,
      "chip": "ym2612"
    },
    {
      "channel": 2,
      "note": 82,
      "start": 3.7189,
      "duration": 0.1026,
      "velocity": 117,
      "chip": "ym2612"
    },
    {
      "channel": 5,
      "note": 48,
      "start": 3.7191,
      "duration": 0.0302,
      "velocity": 101,
      "chip": "ym2612"
    },
    {
      "channel": 0,
      "note": 78,
      "start": 3.8214,
      "duration": 0.0778,
      "velocity": 91,
      "chip": "ym2612"
    },
    {
      "channel": 1,
      "note": 69,
      "start": 3.8215,
      "duration": 0.0967,
      "velocity": 117,
      "chip": "ym2612"
    },
    {
      "channel": 2,
      "note": 71,
      "start": 3.8216,
      "duration": 0.0968,
      "velocity": 117,
      "chip": "ym2612"
    },
    {
      "channel": 5,
      "note": 43,
      "start": 3.8217,
      "duration": 0.0968,
      "velocity": 127,
      "chip": "ym2612"
    },
    {
      "channel": 0,
      "note": 66,
      "start": 3.9182,
      "duration": 0.081,
      "velocity": 91,
      "chip": "ym2612"
    },
    {
      "channel": 1,
      "note": 71,
      "start": 3.9183,
      "duration": 0.1046,
      "velocity": 117,
      "chip": "ym2612"
    },
    {
      "channel": 2,
      "note": 82,
      "start": 3.9184,
      "duration": 0.1046,
      "velocity": 117,
      "chip": "ym2612"
    },
    {
      "channel": 0,
      "note": 78,
      "start": 4.0229,
      "duration": 0.0763,
      "velocity": 91,
      "chip": "ym2612"
    },
    {
      "channel": 1,
      "note": 73,
      "start": 4.023,
      "duration": 0.0959,
      "velocity": 117,
      "chip": "ym2612"
    },
    {
      "channel": 2,
      "note": 84,
      "start": 4.0231,
      "duration": 0.0959,
      "velocity": 117,
      "chip": "ym2612"
    },
    {
      "channel": 5,
      "note": 48,
      "start": 4.0232,
      "duration": 0.0594,
      "velocity": 101,
      "chip": "ym2612"
    },
    {
      "channel": 0,
      "note": 66,
      "start": 4.1189,
      "duration": 0.0804,
      "velocity": 91,
      "chip": "ym2612"
    },
    {
      "channel": 1,
      "note": 74,
      "start": 4.119,
      "duration": 0.1051,
      "velocity": 117,
      "chip": "ym2612"
    },
    {
      "channel": 2,
      "note": 85,
      "start": 4.1191,
      "duration": 0.1051,
      "velocity": 117,
      "chip": "ym2612"
    },
    {
      "channel": 0,
      "note": 73,
      "start": 4.2241,
      "duration": 0.0751,
      "velocity": 91,
      "chip": "ym2612"
    },
    {
      "channel": 1,
      "note": 73,
      "start": 4.2242,
      "duration": 0.3992,
      "velocity": 117,
      "chip": "ym2612"
    },
    {
      "channel": 2,
      "note": 83,
      "start": 4.2244,
      "duration": 0.3992,
      "velocity": 117,
      "chip": "ym2612"
    },
    {
      "channel": 5,
      "note": 43,
      "start": 4.2244,
      "duration": 0.0929,
      "velocity": 127,
      "chip": "ym2612"
    },
    {
      "channel": 0,
      "note": 61,
      "start": 4.3173,
      "duration": 0.082,
      "velocity": 91,
      "chip": "ym2612"
    },
    {
      "channel": 0,
      "note": 74,
      "start": 4.4205,
      "duration": 0.0788,
      "velocity": 91,
      "chip": "ym2612"
    },
    {
      "channel": 5,
      "note": 48,
      "start": 4.4206,
      "duration": 0.0287,
      "velocity": 101,
      "chip": "ym2612"
    },
    {
      "channel": 0,
      "note": 62,
      "start": 4.5177,
      "duration": 0.0816,
      "velocity": 91,
      "chip": "ym2612"
    },
    {
      "channel": 5,
      "note": 48,
      "start": 4.5178,
      "duration": 0.0315,
      "velocity": 101,
      "chip": "ym2612"
    },
    {
      "channel": 0,
      "note": 76,
      "start": 4.6234,
      "duration": 0.0758,
      "velocity": 91,
      "chip": "ym2612"
    },
    {
      "channel": 1,
      "note": 69,
      "start": 4.6235,
      "duration": 0.0966,
      "velocity": 117,
      "chip": "ym2612"
    },
    {
      "channel": 2,
      "note": 81,
      "start": 4.6236,
      "duration": 0.0966,
      "velocity": 117,
      "chip": "ym2612"
    },
    {
      "channel": 5,
      "note": 43,
      "start": 4.6237,
      "duration": 0.0966,
      "velocity": 127,
      "chip": "ym2612"
    },
    {
      "channel": 0,
      "note": 64,
      "start": 4.7201,
      "duration": 0.079,
      "velocity": 91,
      "chip": "ym2612"
    },
    {
      "channel": 1,
      "note": 66,
      "start": 4.7202,
      "duration": 0.1052,
      "velocity": 117,
      "chip": "ym2612"
    },
    {
      "channel": 2,
      "note": 78,
      "start": 4.7203,
      "duration": 0.1053,
      "velocity": 117,
      "chip": "ym2612"
    },
    {
      "channel": 0,
      "note": 66,
      "start": 4.8254,
      "duration": 0.0737,
      "velocity": 91,
      "chip": "ym2612"
    },
    {
      "channel": 1,
      "note": 85,
      "start": 4.8255,
      "duration": 0.195,
      "velocity": 117,
      "chip": "ym2612"
    },
    {
      "channel": 2,
      "note": 78,
      "start": 4.8256,
      "duration": 0.1949,
      "velocity": 117,
      "chip": "ym2612"
    },
    {
      "channel": 3,
      "note": 66,
      "start": 4.8257,
      "duration": 0.1948,
      "velocity": 117,
      "chip": "ym2612"
    },
    {
      "channel": 5,
      "note": 48,
      "start": 4.8257,
      "duration": 0.0568,
      "velocity": 101,
      "chip": "ym2612"
    },
    {
      "channel": 0,
      "note": 78,
      "start": 5.0204,
      "duration": 0.0788,
      "velocity": 91,
      "chip": "ym2612"
    },
    {
      "channel": 5,
      "note": 43,
      "start": 5.0207,
      "duration": 0.0959,
      "velocity": 127,
      "chip": "ym2612"
    },
    {
      "channel": 0,
      "note": 66,
      "start": 5.1164,
      "duration": 0.0828,
      "velocity": 91,
      "chip": "ym2612"
    },
    {
      "channel": 5,
      "note": 48,
      "start": 5.2191,
      "duration": 0.0302,
      "velocity": 101,
      "chip": "ym2612"
    },
    {
      "channel": 0,
      "note": 66,
      "start": 5.3168,
      "duration": 0.0823,
      "velocity": 91,
      "chip": "ym2612"
    },
    {
      "channel": 5,
      "note": 48,
      "start": 5.317,
      "duration": 0.0323,
      "velocity": 101,
      "chip": "ym2612"
    },
    {
      "channel": 0,
      "note": 78,
      "start": 5.4195,
      "duration": 0.0796,
      "velocity": 91,
      "chip": "ym2612"
    },
    {
      "channel": 5,
      "note": 43,
      "start": 5.4196,
      "duration": 0.0964,
      "velocity": 127,
      "chip": "ym2612"
    },
    {
      "channel": 0,
      "note": 66,
      "start": 5.6211,
      "duration": 0.078,
      "velocity": 91,
      "chip": "ym2612"
    },
    {
      "channel": 5,
      "note": 48,
      "start": 5.6212,
      "duration": 0.0613,
      "velocity": 101,
      "chip": "ym2612"
    },
    {
      "channel": 0,
      "note": 78,
      "start": 5.8195,
      "duration": 0.0796,
      "velocity": 91,
      "chip": "ym2612"
    },
    {
      "channel": 5,
      "note": 43,
      "start": 5.8196,
      "duration": 0.0989,
      "velocity": 127,
      "chip": "ym2612"
    },
    {
      "channel": 0,
      "note": 66,
      "start": 5.9182,
      "duration": 0.0809,
      "velocity": 91,
      "chip": "ym2612"
    },
    {
      "channel": 1,
      "note": 88,
      "start": 5.9183,
      "duration": 0.1015,
      "velocity": 117,
      "chip": "ym2612"
    },
    {
      "channel": 2,
      "note": 81,
      "start": 5.9184,
      "duration": 0.1015,
      "velocity": 117,
      "chip": "ym2612"
    },
    {
      "channel": 3,
      "note": 69,
      "start": 5.9184,
      "duration": 0.1015,
      "velocity": 117,
      "chip": "ym2612"
    },
    {
      "channel": 5,
      "note": 48,
      "start": 6.02,
      "duration": 0.0292,
      "velocity": 101,
      "chip": "ym2612"
    },
    {
      "channel": 0,
      "note": 66,
      "start": 6.1187,
      "duration": 0.0805,
      "velocity": 91,
      "chip": "ym2612"
    },
    {
      "channel": 1,
      "note": 88,
      "start": 6.1188,
      "duration": 0.1017,
      "velocity": 117,
      "chip": "ym2612"
    },
    {
      "channel": 2,
      "note": 81,
      "start": 6.1188,
      "duration": 0.1017,
      "velocity": 117,
      "chip": "ym2612"
    },
    {
      "channel": 3,
      "note": 69,
      "start": 6.1189,
      "duration": 0.1017,
      "velocity": 117,
      "chip": "ym2612"
    },
    {
      "channel": 5,
      "note": 48,
      "start": 6.1189,
      "duration": 0.0303,
      "velocity": 101,
      "chip": "ym2612"
    },
    {
      "channel": 0,
      "note": 78,
      "start": 6.2204,
      "duration": 0.0788,
      "velocity": 91,
      "chip": "ym2612"
    },
    {
      "channel": 5,
      "note": 43,
      "start": 6.2207,
      "duration": 0.0974,
      "velocity": 127,
      "chip": "ym2612"
    },
    {
      "channel": 1,
      "note": 88,
      "start": 6.3179,
      "duration": 0.101,
      "velocity": 117,
      "chip": "ym2612"
    },
    {
      "channel": 2,
      "note": 81,
      "start": 6.3179,
      "duration": 0.101,
      "velocity": 117,
      "chip": "ym2612"
    },
    {
      "channel": 3,
      "note": 69,
      "start": 6.318,
      "duration": 0.101,
      "velocity": 117,
      "chip": "ym2612"
    },
    {
      "channel": 0,
      "note": 61,
      "start": 6.5233,
      "duration": 0.0759,
      "velocity": 91,
      "chip": "ym2612"
    },
    {
      "channel": 1,
      "note": 78,
      "start": 6.5233,
      "duration": 0.0941,
      "velocity": 117,
      "chip": "ym2612"
    },
    {
      "channel": 2,
      "note": 85,
      "start": 6.5234,
      "duration": 0.0941,
      "velocity": 117,
      "chip": "ym2612"
    },
    {
      "channel": 5,
      "note": 43,
      "start": 6.5235,
      "duration": 0.0424,
      "velocity": 127,
      "chip": "ym2612"
    },
    {
      "channel": 0,
      "note": 61,
      "start": 6.7227,
      "duration": 0.0765,
      "velocity": 91,
      "chip": "ym2612"
    },
    {
      "channel": 1,
      "note": 80,
      "start": 6.7228,
      "duration": 0.0946,
      "velocity": 117,
      "chip": "ym2612"
    },
    {
      "channel": 2,
      "note": 85,
      "start": 6.7228,
      "duration": 0.0947,
      "velocity": 117,
      "chip": "ym2612"
    },
    {
      "channel": 5,
      "note": 43,
      "start": 6.7229,
      "duration": 0.0429,
      "velocity": 127,
      "chip": "ym2612"
    },
    {
      "channel": 0,
      "note": 61,
      "start": 6.922,
      "duration": 0.0772,
      "velocity": 91,
      "chip": "ym2612"
    },
    {
      "channel": 1,
      "note": 81,
      "start": 6.9221,
      "duration": 0.0954,
      "velocity": 117,
      "chip": "ym2612"
    },
    {
      "channel": 2,
      "note": 85,
      "start": 6.9221,
      "duration": 0.0954,
      "velocity": 117,
      "chip": "ym2612"
    },
    {
      "channel": 5,
      "note": 43,
      "start": 6.9222,
      "duration": 0.0437,
      "velocity": 127,
      "chip": "ym2612"
    },
    {
      "channel": 0,
      "note": 61,
      "start": 7.1227,
      "duration": 0.0765,
      "velocity": 91,
      "chip": "ym2612"
    },
    {
      "channel": 1,
      "note": 83,
      "start": 7.1228,
      "duration": 0.0946,
      "velocity": 117,
      "chip": "ym2612"
    },
    {
      "channel": 2,
      "note": 85,
      "start": 7.1228,
      "duration": 0.0947,
      "velocity": 117,
      "chip": "ym2612"
    },
    {
      "channel": 5,
      "note": 43,
      "start": 7.1229,
      "duration": 0.043,
      "velocity": 127,
      "chip": "ym2612"
    },
    {
      "channel": 0,
      "note": 61,
      "start": 7.3219,
      "duration": 0.0772,
      "velocity": 91,
      "chip": "ym2612"
    },
    {
      "channel": 1,
      "note": 85,
      "start": 7.322,
      "duration": 0.0954,
      "velocity": 117,
      "chip": "ym2612"
    },
    {
      "channel": 2,
      "note": 85,
      "start": 7.3221,
      "duration": 0.0954,
      "velocity": 117,
      "chip": "ym2612"
    },
    {
      "channel": 5,
      "note": 43,
      "start": 7.3222,
      "duration": 0.0437,
      "velocity": 127,
      "chip": "ym2612"
    },
    {
      "channel": 0,
      "note": 61,
      "start": 7.5227,
      "duration": 0.0765,
      "velocity": 91,
      "chip": "ym2612"
    },
    {
      "channel": 1,
      "note": 86,
      "start": 7.5228,
      "duration": 0.0957,
      "velocity": 117,
      "chip": "ym2612"
    },
    {
      "channel": 2,
      "note": 85,
      "start": 7.5228,
      "duration": 0.0957,
      "velocity": 117,
      "chip": "ym2612"
    },
    {
      "channel": 5,
      "note": 43,
      "start": 7.5229,
      "duration": 0.043,
      "velocity": 127,
      "chip": "ym2612"
    },
    {
      "channel": 0,
      "note": 61,
      "start": 7.6184,
      "duration": 0.0808,
      "velocity": 91,
      "chip": "ym2612"
    },
    {
      "channel": 0,
      "note": 68,
      "start": 7.7222,
      "duration": 0.077,
      "velocity": 91,
      "chip": "ym2612"
    },
    {
      "channel": 1,
      "note": 88,
      "start": 7.7223,
      "duration": 0.0968,
      "velocity": 117,
      "chip": "ym2612"
    },
    {
      "channel": 2,
      "note": 85,
      "start": 7.7224,
      "duration": 0.0968,
      "velocity": 117,
      "chip": "ym2612"
    },
    {
      "channel": 5,
      "note": 43,
      "start": 7.7224,
      "duration": 0.0435,
      "velocity": 127,
      "chip": "ym2612"
    },
    {
      "channel": 0,
      "note": 68,
      "start": 7.819,
      "duration": 0.0802,
      "velocity": 91,
      "chip": "ym2612"
    },
    {
      "channel": 5,
      "note": 43,
      "start": 7.8193,
      "duration": 0.0467,
      "velocity": 127,
      "chip": "ym2612"
    },
    {
      "channel": 0,
      "note": 68,
      "start": 7.9201,
      "duration": 0.0791,
      "velocity": 91,
      "chip": "ym2612"
    },
    {
      "channel": 1,
      "note": 90,
      "start": 7.9202,
      "duration": 0.109,
      "velocity": 103,
      "chip": "ym2612"
    },
    {
      "channel": 2,
      "note": 85,
      "start": 7.9202,
      "duration": 0.1091,
      "velocity": 103,
      "chip": "ym2612"
    },
    {
      "channel": 5,
      "note": 43,
      "start": 7.9203,
      "duration": 0.0456,
      "velocity": 127,
      "chip": "ym2612"
    },
    {
      "channel": 0,
      "note": 70,
      "start": 8.0291,
      "duration": 0.0866,
      "velocity": 91,
      "chip": "ym2612"
    },
    {
      "channel": 1,
      "note": 78,
      "start": 8.0293,
      "duration": 0.208,
      "velocity": 103,
      "chip": "ym2612"
    },
    {
      "channel": 2,
      "note": 78,
      "start": 8.0294,
      "duration": 0.208,
      "velocity": 103,
      "chip": "ym2612"
    },
    {
      "channel": 3,
      "note": 78,
      "start": 8.0294,
      "duration": 3.2111,
      "velocity": 117,
      "chip": "ym2612"
    },
    {
      "channel": 5,
      "note": 48,
      "start": 8.0295,
      "duration": 0.0697,
      "velocity": 101,
      "chip": "ym2612"
    },
    {
      "channel": 0,
      "note": 73,
      "start": 8.2372,
      "duration": 0.0786,
      "velocity": 91,
      "chip": "ym2612"
    },
    {
      "channel": 5,
      "note": 43,
      "start": 8.2374,
      "duration": 0.0983,
      "velocity": 127,
      "chip": "ym2612"
    },
    {
      "channel": 0,
      "note": 73,
      "start": 8.3355,
      "duration": 0.0803,
      "velocity": 91,
      "chip": "ym2612"
    },
    {
      "channel": 1,
      "note": 85,
      "start": 8.3355,
      "duration": 0.5984,
      "velocity": 103,
      "chip": "ym2612"
    },
    {
      "channel": 2,
      "note": 78,
      "start": 8.3356,
      "duration": 1.3041,
      "velocity": 103,
      "chip": "ym2612"
    },
    {
      "channel": 5,
      "note": 48,
      "start": 8.4357,
      "duration": 0.0302,
      "velocity": 101,
      "chip": "ym2612"
    },
    {
      "channel": 0,
      "note": 66,
      "start": 8.5339,
      "duration": 0.0819,
      "velocity": 91,
      "chip": "ym2612"
    },
    {
      "channel": 5,
      "note": 48,
      "start": 8.5341,
      "duration": 0.0319,
      "velocity": 101,
      "chip": "ym2612"
    },
    {
      "channel": 0,
      "note": 73,
      "start": 8.6367,
      "duration": 0.0792,
      "velocity": 91,
      "chip": "ym2612"
    },
    {
      "channel": 5,
      "note": 43,
      "start": 8.6368,
      "duration": 0.096,
      "velocity": 127,
      "chip": "ym2612"
    },
    {
      "channel": 0,
      "note": 73,
      "start": 8.8377,
      "duration": 0.0781,
      "velocity": 91,
      "chip": "ym2612"
    },
    {
      "channel": 5,
      "note": 48,
      "start": 8.8378,
      "duration": 0.0615,
      "velocity": 101,
      "chip": "ym2612"
    },
    {
      "channel": 1,
      "note": 85,
      "start": 8.934,
      "duration": 0.1033,
      "velocity": 103,
      "chip": "ym2612"
    },
    {
      "channel": 0,
      "note": 73,
      "start": 9.0373,
      "duration": 0.0786,
      "velocity": 91,
      "chip": "ym2612"
    },
    {
      "channel": 1,
      "note": 83,
      "start": 9.0374,
      "duration": 0.0969,
      "velocity": 103,
      "chip": "ym2612"
    },
    {
      "channel": 5,
      "note": 43,
      "start": 9.0375,
      "duration": 0.0969,
      "velocity": 127,
      "chip": "ym2612"
    },
    {
      "channel": 0,
      "note": 73,
      "start": 9.1342,
      "duration": 0.0816,
      "velocity": 91,
      "chip": "ym2612"
    },
    {
      "channel": 1,
      "note": 81,
      "start": 9.1343,
      "duration": 0.1027,
      "velocity": 103,
      "chip": "ym2612"
    },
    {
      "channel": 1,
      "note": 85,
      "start": 9.2371,
      "duration": 0.0976,
      "velocity": 103,
      "chip": "ym2612"
    },
    {
      "channel": 5,
      "note": 48,
      "start": 9.2372,
      "duration": 0.0288,
      "velocity": 101,
      "chip": "ym2612"
    },
    {
      "channel": 0,
      "note": 66,
      "start": 9.3346,
      "duration": 0.0812,
      "velocity": 91,
      "chip": "ym2612"
    },
    {
      "channel": 1,
      "note": 83,
      "start": 9.3347,
      "duration": 0.1026,
      "velocity": 103,
      "chip": "ym2612"
    },
    {
      "channel": 5,
      "note": 48,
      "start": 9.3348,
      "duration": 0.0311,
      "velocity": 101,
      "chip": "ym2612"
    },
    {
      "channel": 0,
      "note": 73,
      "start": 9.4373,
      "duration": 0.0786,
      "velocity": 91,
      "chip": "ym2612"
    },
    {
      "channel": 1,
      "note": 81,
      "start": 9.4374,
      "duration": 0.0964,
      "velocity": 103,
      "chip": "ym2612"
    },
    {
      "channel": 5,
      "note": 43,
      "start": 9.4375,
      "duration": 0.0965,
      "velocity": 127,
      "chip": "ym2612"
    },
    {
      "channel": 1,
      "note": 85,
      "start": 9.5338,
      "duration": 0.1058,
      "velocity": 103,
      "chip": "ym2612"
    },
    {
      "channel": 0,
      "note": 73,
      "start": 9.6396,
      "duration": 0.0761,
      "velocity": 91,
      "chip": "ym2612"
    },
    {
      "channel": 1,
      "note": 84,
      "start": 9.6397,
      "duration": 0.1976,
      "velocity": 103,
      "chip": "ym2612"
    },
    {
      "channel": 2,
      "note": 78,
      "start": 9.6398,
      "duration": 0.1975,
      "velocity": 103,
      "chip": "ym2612"
    },
    {
      "channel": 5,
      "note": 48,
      "start": 9.6399,
      "duration": 0.0594,
      "velocity": 101,
      "chip": "ym2612"
    },
    {
      "channel": 0,
      "note": 73,
      "start": 9.8372,
      "duration": 0.0787,
      "velocity": 91,
      "chip": "ym2612"
    },
    {
      "channel": 5,
      "note": 43,
      "start": 9.8374,
      "duration": 0.0983,
      "velocity": 127,
      "chip": "ym2612"
    },
    {
      "channel": 0,
      "note": 73,
      "start": 9.9355,
      "duration": 0.0803,
      "velocity": 91,
      "chip": "ym2612"
    },
    {
      "channel": 1,
      "note": 80,
      "start": 9.9356,
      "duration": 1.3047,
      "velocity": 103,
      "chip": "ym2612"
    },
    {
      "channel": 2,
      "note": 78,
      "start": 9.9357,
      "duration": 1.3048,
      "velocity": 103,
      "chip": "ym2612"
    },
    {
      "channel": 5,
      "note": 48,
      "start": 10.0357,
      "duration": 0.0302,
      "velocity": 101,
      "chip": "ym2612"
    },
    {
      "channel": 0,
      "note": 66,
      "start": 10.1339,
      "duration": 0.0819,
      "velocity": 91,
      "chip": "ym2612"
    },
    {
      "channel": 5,
      "note": 48,
      "start": 10.1341,
      "duration": 0.0319,
      "velocity": 101,
      "chip": "ym2612"
    },
    {
      "channel": 0,
      "note": 73,
      "start": 10.2367,
      "duration": 0.0792,
      "velocity": 91,
      "chip": "ym2612"
    },
    {
      "channel": 5,
      "note": 43,
      "start": 10.2368,
      "duration": 0.096,
      "velocity": 127,
      "chip": "ym2612"
    },
    {
      "channel": 0,
      "note": 73,
      "start": 10.4377,
      "duration": 0.0781,
      "velocity": 91,
      "chip": "ym2612"
    },
    {
      "channel": 5,
      "note": 48,
      "start": 10.4378,
      "duration": 0.0615,
      "velocity": 101,
      "chip": "ym2612"
    },
    {
      "channel": 0,
      "note": 73,
      "start": 10.6367,
      "duration": 0.0792,
      "velocity": 91,
      "chip": "ym2612"
    },
    {
      "channel": 5,
      "note": 43,
      "start": 10.6368,
      "duration": 0.097,
      "velocity": 127,
      "chip": "ym2612"
    },
    {
      "channel": 0,
      "note": 73,
      "start": 10.7337,
      "duration": 0.0822,
      "velocity": 91,
      "chip": "ym2612"
    },
    {
      "channel": 5,
      "note": 48,
      "start": 10.8358,
      "duration": 0.0301,
      "velocity": 101,
      "chip": "ym2612"
    },
    {
      "channel": 0,
      "note": 66,
      "start": 10.934,
      "duration": 0.0819,
      "velocity": 91,
      "chip": "ym2612"
    },
    {
      "channel": 5,
      "note": 48,
      "start": 10.9341,
      "duration": 0.0318,
      "velocity": 101,
      "chip": "ym2612"
    },
    {
      "channel": 0,
      "note": 73,
      "start": 11.0368,
      "duration": 0.0791,
      "velocity": 91,
      "chip": "ym2612"
    },
    {
      "channel": 5,
      "note": 43,
      "start": 11.0369,
      "duration": 0.0969,
      "velocity": 127,
      "chip": "ym2612"
    },
    {
      "channel": 0,
      "note": 73,
      "start": 11.2402,
      "duration": 0.0755,
      "velocity": 91,
      "chip": "ym2612"
    },
    {
      "channel": 1,
      "note": 79,
      "start": 11.2404,
      "duration": 0.1966,
      "velocity": 103,
      "chip": "ym2612"
    },
    {
      "channel": 2,
      "note": 74,
      "start": 11.2404,
      "duration": 0.2952,
      "velocity": 103,
      "chip": "ym2612"
    },
    {
      "channel": 3,
      "note": 74,
      "start": 11.2406,
      "duration": 1.5999,
      "velocity": 117,
      "chip": "ym2612"
    },
    {
      "channel": 5,
      "note": 48,
      "start": 11.2406,
      "duration": 0.0586,
      "velocity": 101,
      "chip": "ym2612"
    },
    {
      "channel": 0,
      "note": 73,
      "start": 11.4369,
      "duration": 0.0789,
      "velocity": 91,
      "chip": "ym2612"
    },
    {
      "channel": 5,
      "note": 43,
      "start": 11.4371,
      "duration": 0.0987,
      "velocity": 127,
      "chip": "ym2612"
    },
    {
      "channel": 0,
      "note": 73,
      "start": 11.5355,
      "duration": 0.0802,
      "velocity": 91,
      "chip": "ym2612"
    },
    {
      "channel": 1,
      "note": 83,
      "start": 11.5356,
      "duration": 0.5983,
      "velocity": 103,
      "chip": "ym2612"
    },
    {
      "channel": 2,
      "note": 74,
      "start": 11.5357,
      "duration": 1.3047,
      "velocity": 103,
      "chip": "ym2612"
    },
    {
      "channel": 5,
      "note": 48,
      "start": 11.6357,
      "duration": 0.0302,
      "velocity": 101,
      "chip": "ym2612"
    },
    {
      "channel": 0,
      "note": 66,
      "start": 11.7339,
      "duration": 0.0819,
      "velocity": 91,
      "chip": "ym2612"
    },
    {
      "channel": 5,
      "note": 48,
      "start": 11.7341,
      "duration": 0.0319,
      "velocity": 101,
      "chip": "ym2612"
    },
    {
      "channel": 0,
      "note": 73,
      "start": 11.8367,
      "duration": 0.0792,
      "velocity": 91,
      "chip": "ym2612"
    },
    {
      "channel": 5,
      "note": 43,
      "start": 11.8368,
      "duration": 0.096,
      "velocity": 127,
      "chip": "ym2612"
    },
    {
      "channel": 0,
      "note": 73,
      "start": 12.0377,
      "duration": 0.0781,
      "velocity": 91,
      "chip": "ym2612"
    },
    {
      "channel": 5,
      "note": 48,
      "start": 12.0378,
      "duration": 0.0615,
      "velocity": 101,
      "chip": "ym2612"
    },
    {
      "channel": 1,
      "note": 83,
      "start": 12.134,
      "duration": 0.1033,
      "velocity": 103,
      "chip": "ym2612"
    },
    {
      "channel": 0,
      "note": 73,
      "start": 12.2373,
      "duration": 0.0786,
      "velocity": 91,
      "chip": "ym2612"
    },
    {
      "channel": 1,
      "note": 81,
      "start": 12.2374,
      "duration": 0.0969,
      "velocity": 103,
      "chip": "ym2612"
    },
    {
      "channel": 5,
      "note": 43,
      "start": 12.2375,
      "duration": 0.097,
      "velocity": 127,
      "chip": "ym2612"
    },
    {
      "channel": 0,
      "note": 73,
      "start": 12.3343,
      "duration": 0.0816,
      "velocity": 91,
      "chip": "ym2612"
    },
    {
      "channel": 1,
      "note": 78,
      "start": 12.3344,
      "duration": 0.1027,
      "velocity": 103,
      "chip": "ym2612"
    },
    {
      "channel": 1,
      "note": 83,
      "start": 12.4371,
      "duration": 0.0975,
      "velocity": 103,
      "chip": "ym2612"
    },
    {
      "channel": 5,
      "note": 48,
      "start": 12.4372,
      "duration": 0.0287,
      "velocity": 101,
      "chip": "ym2612"
    },
    {
      "channel": 0,
      "note": 66,
      "start": 12.5346,
      "duration": 0.0812,
      "velocity": 91,
      "chip": "ym2612"
    },
    {
      "channel": 1,
      "note": 81,
      "start": 12.5347,
      "duration": 0.1027,
      "velocity": 103,
      "chip": "ym2612"
    },
    {
      "channel": 5,
      "note": 48,
      "start": 12.5348,
      "duration": 0.0311,
      "velocity": 101,
      "chip": "ym2612"
    },
    {
      "channel": 0,
      "note": 73,
      "start": 12.6373,
      "duration": 0.0785,
      "velocity": 91,
      "chip": "ym2612"
    },
    {
      "channel": 1,
      "note": 78,
      "start": 12.6375,
      "duration": 0.0964,
      "velocity": 103,
      "chip": "ym2612"
    },
    {
      "channel": 5,
      "note": 43,
      "start": 12.6375,
      "duration": 0.0964,
      "velocity": 127,
      "chip": "ym2612"
    },
    {
      "channel": 1,
      "note": 83,
      "start": 12.7339,
      "duration": 0.1064,
      "velocity": 103,
      "chip": "ym2612"
    },
    {
      "channel": 0,
      "note": 73,
      "start": 12.8402,
      "duration": 0.0755,
      "velocity": 91,
      "chip": "ym2612"
    },
    {
      "channel": 1,
      "note": 82,
      "start": 12.8404,
      "duration": 0.2952,
      "velocity": 103,
      "chip": "ym2612"
    },
    {
      "channel": 2,
      "note": 73,
      "start": 12.8404,
      "duration": 0.2953,
      "velocity": 103,
      "chip": "ym2612"
    },
    {
      "channel": 3,
      "note": 73,
      "start": 12.8406,
      "duration": 1.6001,
      "velocity": 117,
      "chip": "ym2612"
    },
    {
      "channel": 5,
      "note": 48,
      "start": 12.8406,
      "duration": 0.0586,
      "velocity": 101,
      "chip": "ym2612"
    },
    {
      "channel": 0,
      "note": 73,
      "start": 13.0366,
      "duration": 0.0792,
      "velocity": 91,
      "chip": "ym2612"
    },
    {
      "channel": 5,
      "note": 43,
      "start": 13.0368,
      "duration": 0.0991,
      "velocity": 127,
      "chip": "ym2612"
    },
    {
      "channel": 0,
      "note": 73,
      "start": 13.1355,
      "duration": 0.0802,
      "velocity": 91,
      "chip": "ym2612"
    },
    {
      "channel": 1,
      "note": 85,
      "start": 13.1357,
      "duration": 1.3048,
      "velocity": 103,
      "chip": "ym2612"
    },
    {
      "channel": 2,
      "note": 73,
      "start": 13.1358,
      "duration": 1.3048,
      "velocity": 103,
      "chip": "ym2612"
    },
    {
      "channel": 5,
      "note": 48,
      "start": 13.2357,
      "duration": 0.0302,
      "velocity": 101,
      "chip": "ym2612"
    },
    {
      "channel": 0,
      "note": 66,
      "start": 13.3339,
      "duration": 0.0819,
      "velocity": 91,
      "chip": "ym2612"
    },
    {
      "channel": 5,
      "note": 48,
      "start": 13.3341,
      "duration": 0.0319,
      "velocity": 101,
      "chip": "ym2612"
    },
    {
      "channel": 0,
      "note": 73,
      "start": 13.4367,
      "duration": 0.0792,
      "velocity": 91,
      "chip": "ym2612"
    },
    {
      "channel": 5,
      "note": 43,
      "start": 13.4368,
      "duration": 0.096,
      "velocity": 127,
      "chip": "ym2612"
    },
    {
      "channel": 0,
      "note": 73,
      "start": 13.6377,
      "duration": 0.0781,
      "velocity": 91,
      "chip": "ym2612"
    },
    {
      "channel": 5,
      "note": 43,
      "start": 13.6378,
      "duration": 0.0448,
      "velocity": 127,
      "chip": "ym2612"
    },
    {
      "channel": 5,
      "note": 43,
      "start": 13.7336,
      "duration": 0.049,
      "velocity": 127,
      "chip": "ym2612"
    },
    {
      "channel": 0,
      "note": 73,
      "start": 13.8352,
      "duration": 0.0806,
      "velocity": 91,
      "chip": "ym2612"
    },
    {
      "channel": 5,
      "note": 43,
      "start": 13.8354,
      "duration": 0.0473,
      "velocity": 127,
      "chip": "ym2612"
    },
    {
      "channel": 0,
      "note": 73,
      "start": 13.9353,
      "duration": 0.0805,
      "velocity": 91,
      "chip": "ym2612"
    },
    {
      "channel": 5,
      "note": 43,
      "start": 13.9354,
      "duration": 0.0472,
      "velocity": 127,
      "chip": "ym2612"
    },
    {
      "channel": 5,
      "note": 43,
      "start": 14.0336,
      "duration": 0.049,
      "velocity": 127,
      "chip": "ym2612"
    },
    {
      "channel": 0,
      "note": 66,
      "start": 14.1345,
      "duration": 0.0814,
      "velocity": 91,
      "chip": "ym2612"
    },
    {
      "channel": 5,
      "note": 43,
      "start": 14.1346,
      "duration": 0.048,
      "velocity": 127,
      "chip": "ym2612"
    },
    {
      "channel": 0,
      "note": 65,
      "start": 14.2345,
      "duration": 0.0814,
      "velocity": 91,
      "chip": "ym2612"
    },
    {
      "channel": 5,
      "note": 43,
      "start": 14.2346,
      "duration": 0.048,
      "velocity": 127,
      "chip": "ym2612"
    },
    {
      "channel": 0,
      "note": 64,
      "start": 14.3354,
      "duration": 0.0805,
      "velocity": 91,
      "chip": "ym2612"
    },
    {
      "channel": 5,
      "note": 43,
      "start": 14.3355,
      "duration": 0.0471,
      "velocity": 127,
      "chip": "ym2612"
    },
    {
      "channel": 0,
      "note": 63,
      "start": 14.4404,
      "duration": 0.0753,
      "velocity": 91,
      "chip": "ym2612"
    },
    {
      "channel": 1,
      "note": 86,
      "start": 14.4405,
      "duration": 0.1968,
      "velocity": 103,
      "chip": "ym2612"
    },
    {
      "channel": 2,
      "note": 74,
      "start": 14.4406,
      "duration": 0.7999,
      "velocity": 103,
      "chip": "ym2612"
    },
    {
      "channel": 3,
      "note": 74,
      "start": 14.4407,
      "duration": 0.7999,
      "velocity": 117,
      "chip": "ym2612"
    },
    {
      "channel": 5,
      "note": 48,
      "start": 14.4408,
      "duration": 0.0584,
      "velocity": 101,
      "chip": "ym2612"
    },
    {
      "channel": 0,
      "note": 69,
      "start": 14.6373,
      "duration": 0.0785,
      "velocity": 91,
      "chip": "ym2612"
    },
    {
      "channel": 1,
      "note": 85,
      "start": 14.6374,
      "duration": 0.0969,
      "velocity": 103,
      "chip": "ym2612"
    },
    {
      "channel": 5,
      "note": 43,
      "start": 14.6375,
      "duration": 0.097,
      "velocity": 127,
      "chip": "ym2612"
    },
    {
      "channel": 0,
      "note": 69,
      "start": 14.7343,
      "duration": 0.0816,
      "velocity": 91,
      "chip": "ym2612"
    },
    {
      "channel": 1,
      "note": 83,
      "start": 14.7344,
      "duration": 0.3038,
      "velocity": 103,
      "chip": "ym2612"
    },
    {
      "channel": 5,
      "note": 48,
      "start": 14.8357,
      "duration": 0.0302,
      "velocity": 101,
      "chip": "ym2612"
    },
    {
      "channel": 0,
      "note": 62,
      "start": 14.934,
      "duration": 0.0818,
      "velocity": 91,
      "chip": "ym2612"
    },
    {
      "channel": 5,
      "note": 48,
      "start": 14.9341,
      "duration": 0.0318,
      "velocity": 101,
      "chip": "ym2612"
    },
    {
      "channel": 0,
      "note": 69,
      "start": 15.0381,
      "duration": 0.0777,
      "velocity": 91,
      "chip": "ym2612"
    },
    {
      "channel": 1,
      "note": 78,
      "start": 15.0383,
      "duration": 0.2021,
      "velocity": 103,
      "chip": "ym2612"
    },
    {
      "channel": 5,
      "note": 43,
      "start": 15.0383,
      "duration": 0.0944,
      "velocity": 127,
      "chip": "ym2612"
    },
    {
      "channel": 0,
      "note": 70,
      "start": 15.2404,
      "duration": 0.0754,
      "velocity": 91,
      "chip": "ym2612"
    },
    {
      "channel": 1,
      "note": 80,
      "start": 15.2404,
      "duration": 0.801,
      "velocity": 103,
      "chip": "ym2612"
    },
    {
      "channel": 2,
      "note": 76,
      "start": 15.2406,
      "duration": 0.801,
      "velocity": 103,
      "chip": "ym2612"
    },
    {
      "channel": 3,
      "note": 76,
      "start": 15.2406,
      "duration": 0.801,
      "velocity": 117,
      "chip": "ym2612"
    },
    {
      "channel": 5,
      "note": 48,
      "start": 15.2407,
      "duration": 0.0585,
      "velocity": 101,
      "chip": "ym2612"
    },
    {
      "channel": 0,
      "note": 71,
      "start": 15.4367,
      "duration": 0.0792,
      "velocity": 91,
      "chip": "ym2612"
    },
    {
      "channel": 5,
      "note": 43,
      "start": 15.4368,
      "duration": 0.097,
      "velocity": 127,
      "chip": "ym2612"
    },
    {
      "channel": 0,
      "note": 71,
      "start": 15.5337,
      "duration": 0.0822,
      "velocity": 91,
      "chip": "ym2612"
    },
    {
      "channel": 5,
      "note": 48,
      "start": 15.6358,
      "duration": 0.0301,
      "velocity": 101,
      "chip": "ym2612"
    },
    {
      "channel": 0,
      "note": 64,
      "start": 15.734,
      "duration": 0.0819,
      "velocity": 91,
      "chip": "ym2612"
    },
    {
      "channel": 5,
      "note": 48,
      "start": 15.7341,
      "duration": 0.0318,
      "velocity": 101,
      "chip": "ym2612"
    },
    {
      "channel": 0,
      "note": 71,
      "start": 15.8368,
      "duration": 0.0791,
      "velocity": 91,
      "chip": "ym2612"
    },
    {
      "channel": 5,
      "note": 43,
      "start": 15.8369,
      "duration": 0.0959,
      "velocity": 127,
      "chip": "ym2612"
    },
    {
      "channel": 0,
      "note": 71,
      "start": 16.0414,
      "duration": 0.0744,
      "velocity": 91,
      "chip": "ym2612"
    },
    {
      "channel": 1,
      "note": 85,
      "start": 16.0415,
      "duration": 0.1959,
      "velocity": 103,
      "chip": "ym2612"
    },
    {
      "channel": 2,
      "note": 77,
      "start": 16.0416,
      "duration": 0.7996,
      "velocity": 103,
      "chip": "ym2612"
    },
    {
      "channel": 3,
      "note": 77,
      "start": 16.0417,
      "duration": 0.7996,
      "velocity": 117,
      "chip": "ym2612"
    },
    {
      "channel": 5,
      "note": 48,
      "start": 16.0418,
      "duration": 0.0575,
      "velocity": 101,
      "chip": "ym2612"
    },
    {
      "channel": 0,
      "note": 72,
      "start": 16.2373,
      "duration": 0.0786,
      "velocity": 91,
      "chip": "ym2612"
    },
    {
      "channel": 1,
      "note": 86,
      "start": 16.2374,
      "duration": 0.0969,
      "velocity": 103,
      "chip": "ym2612"
    },
    {
      "channel": 5,
      "note": 43,
      "start": 16.2375,
      "duration": 0.097,
      "velocity": 127,
      "chip": "ym2612"
    },
    {
      "channel": 0,
      "note": 72,
      "start": 16.3343,
      "duration": 0.0816,
      "velocity": 91,
      "chip": "ym2612"
    },
    {
      "channel": 1,
      "note": 85,
      "start": 16.3344,
      "duration": 0.3037,
      "velocity": 103,
      "chip": "ym2612"
    },
    {
      "channel": 5,
      "note": 48,
      "start": 16.4357,
      "duration": 0.0302,
      "velocity": 101,
      "chip": "ym2612"
    },
    {
      "channel": 0,
      "note": 65,
      "start": 16.534,
      "duration": 0.0818,
      "velocity": 91,
      "chip": "ym2612"
    },
    {
      "channel": 5,
      "note": 48,
      "start": 16.5341,
      "duration": 0.0318,
      "velocity": 101,
      "chip": "ym2612"
    },
    {
      "channel": 0,
      "note": 72,
      "start": 16.6381,
      "duration": 0.0777,
      "velocity": 91,
      "chip": "ym2612"
    },
    {
      "channel": 1,
      "note": 83,
      "start": 16.6382,
      "duration": 0.2029,
      "velocity": 103,
      "chip": "ym2612"
    },
    {
      "channel": 5,
      "note": 43,
      "start": 16.6383,
      "duration": 0.0945,
      "velocity": 127,
      "chip": "ym2612"
    },
    {
      "channel": 0,
      "note": 72,
      "start": 16.841,
      "duration": 0.0747,
      "velocity": 91,
      "chip": "ym2612"
    },
    {
      "channel": 1,
      "note": 81,
      "start": 16.8411,
      "duration": 0.8005,
      "velocity": 103,
      "chip": "ym2612"
    },
    {
      "channel": 2,
      "note": 78,
      "start": 16.8412,
      "duration": 0.8006,
      "velocity": 103,
      "chip": "ym2612"
    },
    {
      "channel": 3,
      "note": 78,
      "start": 16.8413,
      "duration": 0.8005,
      "velocity": 117,
      "chip": "ym2612"
    },
    {
      "channel": 5,
      "note": 48,
      "start": 16.8414,
      "duration": 0.0578,
      "velocity": 101,
      "chip": "ym2612"
    },
    {
      "channel": 0,
      "note": 73,
      "start": 17.0366,
      "duration": 0.0792,
      "velocity": 91,
      "chip": "ym2612"
    },
    {
      "channel": 5,
      "note": 43,
      "start": 17.0368,
      "duration": 0.097,
      "velocity": 127,
      "chip": "ym2612"
    },
    {
      "channel": 0,
      "note": 73,
      "start": 17.1336,
      "duration": 0.0823,
      "velocity": 91,
      "chip": "ym2612"
    },
    {
      "channel": 5,
      "note": 48,
      "start": 17.2358,
      "duration": 0.0301,
      "velocity": 101,
      "chip": "ym2612"
    },
    {
      "channel": 0,
      "note": 66,
      "start": 17.334,
      "duration": 0.0818,
      "velocity": 91,
      "chip": "ym2612"
    },
    {
      "channel": 5,
      "note": 48,
      "start": 17.3341,
      "duration": 0.0318,
      "velocity": 101,
      "chip": "ym2612"
    },
    {
      "channel": 0,
      "note": 73,
      "start": 17.4368,
      "duration": 0.0791,
      "velocity": 91,
      "chip": "ym2612"
    },
    {
      "channel": 5,
      "note": 43,
      "start": 17.4369,
      "duration": 0.0959,
      "velocity": 127,
      "chip": "ym2612"
    },
    {
      "channel": 0,
      "note": 72,
      "start": 17.6416,
      "duration": 0.0742,
      "velocity": 91,
      "chip": "ym2612"
    },
    {
      "channel": 1,
      "note": 78,
      "start": 17.6417,
      "duration": 0.2939,
      "velocity": 103,
      "chip": "ym2612"
    },
    {
      "channel": 2,
      "note": 74,
      "start": 17.6418,
      "duration": 0.294,
      "velocity": 103,
      "chip": "ym2612"
    },
    {
      "channel": 3,
      "note": 74,
      "start": 17.6419,
      "duration": 2.3988,
      "velocity": 117,
      "chip": "ym2612"
    },
    {
      "channel": 5,
      "note": 48,
      "start": 17.642,
      "duration": 0.0573,
      "velocity": 101,
      "chip": "ym2612"
    },
    {
      "channel": 0,
      "note": 69,
      "start": 17.8367,
      "duration": 0.0791,
      "velocity": 91,
      "chip": "ym2612"
    },
    {
      "channel": 5,
      "note": 43,
      "start": 17.8368,
      "duration": 0.0991,
      "velocity": 127,
      "chip": "ym2612"
    },
    {
      "channel": 0,
      "note": 69,
      "start": 17.9356,
      "duration": 0.0802,
      "velocity": 91,
      "chip": "ym2612"
    },
    {
      "channel": 1,
      "note": 80,
      "start": 17.9357,
      "duration": 0.3031,
      "velocity": 103,
      "chip": "ym2612"
    },
    {
      "channel": 2,
      "note": 73,
      "start": 17.9359,
      "duration": 0.303,
      "velocity": 103,
      "chip": "ym2612"
    },
    {
      "channel": 5,
      "note": 48,
      "start": 18.0357,
      "duration": 0.0302,
      "velocity": 101,
      "chip": "ym2612"
    },
    {
      "channel": 0,
      "note": 62,
      "start": 18.1339,
      "duration": 0.0819,
      "velocity": 91,
      "chip": "ym2612"
    },
    {
      "channel": 5,
      "note": 48,
      "start": 18.1341,
      "duration": 0.0319,
      "velocity": 101,
      "chip": "ym2612"
    },
    {
      "channel": 0,
      "note": 69,
      "start": 18.2387,
      "duration": 0.0771,
      "velocity": 91,
      "chip": "ym2612"
    },
    {
      "channel": 1,
      "note": 81,
      "start": 18.2388,
      "duration": 0.2021,
      "velocity": 103,
      "chip": "ym2612"
    },
    {
      "channel": 2,
      "note": 74,
      "start": 18.2389,
      "duration": 0.2022,
      "velocity": 103,
      "chip": "ym2612"
    },
    {
      "channel": 5,
      "note": 43,
      "start": 18.239,
      "duration": 0.0937,
      "velocity": 127,
      "chip": "ym2612"
    },
    {
      "channel": 0,
      "note": 69,
      "start": 18.4409,
      "duration": 0.0749,
      "velocity": 91,
      "chip": "ym2612"
    },
    {
      "channel": 1,
      "note": 80,
      "start": 18.441,
      "duration": 0.2946,
      "velocity": 103,
      "chip": "ym2612"
    },
    {
      "channel": 2,
      "note": 74,
      "start": 18.4411,
      "duration": 0.2947,
      "velocity": 103,
      "chip": "ym2612"
    },
    {
      "channel": 5,
      "note": 48,
      "start": 18.4412,
      "duration": 0.058,
      "velocity": 101,
      "chip": "ym2612"
    },
    {
      "channel": 0,
      "note": 69,
      "start": 18.6367,
      "duration": 0.0792,
      "velocity": 91,
      "chip": "ym2612"
    },
    {
      "channel": 5,
      "note": 43,
      "start": 18.6368,
      "duration": 0.0991,
      "velocity": 127,
      "chip": "ym2612"
    },
    {
      "channel": 0,
      "note": 69,
      "start": 18.7357,
      "duration": 0.0801,
      "velocity": 91,
      "chip": "ym2612"
    },
    {
      "channel": 1,
      "note": 81,
      "start": 18.7357,
      "duration": 0.303,
      "velocity": 103,
      "chip": "ym2612"
    },
    {
      "channel": 2,
      "note": 76,
      "start": 18.7359,
      "duration": 0.3029,
      "velocity": 103,
      "chip": "ym2612"
    },
    {
      "channel": 5,
      "note": 48,
      "start": 18.8357,
      "duration": 0.0302,
      "velocity": 101,
      "chip": "ym2612"
    },
    {
      "channel": 0,
      "note": 62,
      "start": 18.9339,
      "duration": 0.0819,
      "velocity": 91,
      "chip": "ym2612"
    },
    {
      "channel": 5,
      "note": 48,
      "start": 18.9341,
      "duration": 0.0319,
      "velocity": 101,
      "chip": "ym2612"
    },
    {
      "channel": 0,
      "note": 69,
      "start": 19.0387,
      "duration": 0.0772,
      "velocity": 91,
      "chip": "ym2612"
    },
    {
      "channel": 1,
      "note": 83,
      "start": 19.0388,
      "duration": 0.2011,
      "velocity": 103,
      "chip": "ym2612"
    },
    {
      "channel": 2,
      "note": 74,
      "start": 19.0388,
      "duration": 0.2012,
      "velocity": 103,
      "chip": "ym2612"
    },
    {
      "channel": 5,
      "note": 43,
      "start": 19.039,
      "duration": 0.0938,
      "velocity": 127,
      "chip": "ym2612"
    },
    {
      "channel": 0,
      "note": 69,
      "start": 19.2399,
      "duration": 0.0758,
      "velocity": 91,
      "chip": "ym2612"
    },
    {
      "channel": 1,
      "note": 81,
      "start": 19.24,
      "duration": 0.2957,
      "velocity": 103,
      "chip": "ym2612"
    },
    {
      "channel": 2,
      "note": 74,
      "start": 19.2401,
      "duration": 0.2956,
      "velocity": 103,
      "chip": "ym2612"
    },
    {
      "channel": 5,
      "note": 48,
      "start": 19.2402,
      "duration": 0.059,
      "velocity": 101,
      "chip": "ym2612"
    },
    {
      "channel": 0,
      "note": 69,
      "start": 19.4367,
      "duration": 0.0791,
      "velocity": 91,
      "chip": "ym2612"
    },
    {
      "channel": 5,
      "note": 43,
      "start": 19.4368,
      "duration": 0.099,
      "velocity": 127,
      "chip": "ym2612"
    },
    {
      "channel": 0,
      "note": 69,
      "start": 19.5356,
      "duration": 0.0802,
      "velocity": 91,
      "chip": "ym2612"
    },
    {
      "channel": 1,
      "note": 83,
      "start": 19.5357,
      "duration": 0.303,
      "velocity": 103,
      "chip": "ym2612"
    },
    {
      "channel": 2,
      "note": 76,
      "start": 19.5358,
      "duration": 0.303,
      "velocity": 103,
      "chip": "ym2612"
    },
    {
      "channel": 5,
      "note": 48,
      "start": 19.6357,
      "duration": 0.0302,
      "velocity": 101,
      "chip": "ym2612"
    },
    {
      "channel": 0,
      "note": 62,
      "start": 19.7339,
      "duration": 0.0819,
      "velocity": 91,
      "chip": "ym2612"
    },
    {
      "channel": 5,
      "note": 48,
      "start": 19.7341,
      "duration": 0.0319,
      "velocity": 101,
      "chip": "ym2612"
    },
    {
      "channel": 0,
      "note": 69,
      "start": 19.8387,
      "duration": 0.0772,
      "velocity": 91,
      "chip": "ym2612"
    },
    {
      "channel": 1,
      "note": 85,
      "start": 19.8388,
      "duration": 0.2018,
      "velocity": 103,
      "chip": "ym2612"
    },
    {
      "channel": 2,
      "note": 78,
      "start": 19.8388,
      "duration": 0.2018,
      "velocity": 103,
      "chip": "ym2612"
    },
    {
      "channel": 5,
      "note": 43,
      "start": 19.839,
      "duration": 0.0938,
      "velocity": 127,
      "chip": "ym2612"
    },
    {
      "channel": 0,
      "note": 69,
      "start": 20.0405,
      "duration": 0.0753,
      "velocity": 91,
      "chip": "ym2612"
    },
    {
      "channel": 1,
      "note": 90,
      "start": 20.0406,
      "duration": 0.2951,
      "velocity": 103,
      "chip": "ym2612"
    },
    {
      "channel": 2,
      "note": 74,
      "start": 20.0407,
      "duration": 0.2951,
      "velocity": 103,
      "chip": "ym2612"
    },
    {
      "channel": 3,
      "note": 73,
      "start": 20.0408,
      "duration": 0.8073,
      "velocity": 117,
      "chip": "ym2612"
    },
    {
      "channel": 5,
      "note": 43,
      "start": 20.0409,
      "duration": 0.0417,
      "velocity": 127,
      "chip": "ym2612"
    },
    {
      "channel": 5,
      "note": 43,
      "start": 20.1336,
      "duration": 0.049,
      "velocity": 127,
      "chip": "ym2612"
    },
    {
      "channel": 0,
      "note": 68,
      "start": 20.2345,
      "duration": 0.0814,
      "velocity": 91,
      "chip": "ym2612"
    },
    {
      "channel": 5,
      "note": 43,
      "start": 20.2346,
      "duration": 0.048,
      "velocity": 127,
      "chip": "ym2612"
    },
    {
      "channel": 0,
      "note": 68,
      "start": 20.3357,
      "duration": 0.08,
      "velocity": 91,
      "chip": "ym2612"
    },
    {
      "channel": 1,
      "note": 89,
      "start": 20.3358,
      "duration": 0.5121,
      "velocity": 94,
      "chip": "ym2612"
    },
    {
      "channel": 2,
      "note": 73,
      "start": 20.3359,
      "duration": 0.5121,
      "velocity": 94,
      "chip": "ym2612"
    },
    {
      "channel": 5,
      "note": 43,
      "start": 20.336,
      "duration": 0.0466,
      "velocity": 127,
      "chip": "ym2612"
    },
    {
      "channel": 5,
      "note": 43,
      "start": 20.4336,
      "duration": 0.049,
      "velocity": 127,
      "chip": "ym2612"
    },
    {
      "channel": 0,
      "note": 61,
      "start": 20.5344,
      "duration": 0.0814,
      "velocity": 91,
      "chip": "ym2612"
    },
    {
      "channel": 5,
      "note": 43,
      "start": 20.5345,
      "duration": 0.0481,
      "velocity": 127,
      "chip": "ym2612"
    },
    {
      "channel": 0,
      "note": 68,
      "start": 20.6355,
      "duration": 0.0803,
      "velocity": 91,
      "chip": "ym2612"
    },
    {
      "channel": 5,
      "note": 43,
      "start": 20.6356,
      "duration": 0.047,
      "velocity": 127,
      "chip": "ym2612"
    },
    {
      "channel": 5,
      "note": 43,
      "start": 20.7337,
      "duration": 0.0489,
      "velocity": 127,
      "chip": "ym2612"
    },
    {
      "channel": 0,
      "note": 68,
      "start": 20.8478,
      "duration": 0.0847,
      "velocity": 91,
      "chip": "ym2612"
    },
    {
      "channel": 1,
      "note": 93,
      "start": 20.8479,
      "duration": 0.8089,
      "velocity": 94,
      "chip": "ym2612"
    },
    {
      "channel": 2,
      "note": 78,
      "start": 20.8481,
      "duration": 0.4057,
      "velocity": 94,
      "chip": "ym2612"
    },
    {
      "channel": 3,
      "note": 73,
      "start": 20.8481,
      "duration": 1.6101,
      "velocity": 117,
      "chip": "ym2612"
    },
    {
      "channel": 5,
      "note": 48,
      "start": 20.8483,
      "duration": 0.0677,
      "velocity": 101,
      "chip": "ym2612"
    },
    {
      "channel": 0,
      "note": 69,
      "start": 21.0534,
      "duration": 0.0791,
      "velocity": 91,
      "chip": "ym2612"
    },
    {
      "channel": 5,
      "note": 43,
      "start": 21.0535,
      "duration": 0.097,
      "velocity": 127,
      "chip": "ym2612"
    },
    {
      "channel": 0,
      "note": 69,
      "start": 21.1504,
      "duration": 0.0822,
      "velocity": 91,
      "chip": "ym2612"
    },
    {
      "channel": 2,
      "note": 81,
      "start": 21.2539,
      "duration": 0.4031,
      "velocity": 94,
      "chip": "ym2612"
    },
    {
      "channel": 5,
      "note": 48,
      "start": 21.254,
      "duration": 0.0287,
      "velocity": 101,
      "chip": "ym2612"
    },
    {
      "channel": 0,
      "note": 62,
      "start": 21.3507,
      "duration": 0.0818,
      "velocity": 91,
      "chip": "ym2612"
    },
    {
      "channel": 5,
      "note": 48,
      "start": 21.3509,
      "duration": 0.0318,
      "velocity": 101,
      "chip": "ym2612"
    },
    {
      "channel": 0,
      "note": 69,
      "start": 21.4535,
      "duration": 0.0791,
      "velocity": 91,
      "chip": "ym2612"
    },
    {
      "channel": 5,
      "note": 43,
      "start": 21.4536,
      "duration": 0.0959,
      "velocity": 127,
      "chip": "ym2612"
    },
    {
      "channel": 0,
      "note": 69,
      "start": 21.6568,
      "duration": 0.0756,
      "velocity": 91,
      "chip": "ym2612"
    },
    {
      "channel": 1,
      "note": 90,
      "start": 21.6569,
      "duration": 0.0931,
      "velocity": 94,
      "chip": "ym2612"
    },
    {
      "channel": 2,
      "note": 86,
      "start": 21.6571,
      "duration": 0.8011,
      "velocity": 94,
      "chip": "ym2612"
    },
    {
      "channel": 5,
      "note": 48,
      "start": 21.6571,
      "duration": 0.0588,
      "velocity": 101,
      "chip": "ym2612"
    },
    {
      "channel": 1,
      "note": 93,
      "start": 21.75,
      "duration": 0.1041,
      "velocity": 94,
      "chip": "ym2612"
    },
    {
      "channel": 0,
      "note": 69,
      "start": 21.8541,
      "duration": 0.0785,
      "velocity": 91,
      "chip": "ym2612"
    },
    {
      "channel": 1,
      "note": 90,
      "start": 21.8542,
      "duration": 0.0969,
      "velocity": 94,
      "chip": "ym2612"
    },
    {
      "channel": 5,
      "note": 43,
      "start": 21.8542,
      "duration": 0.097,
      "velocity": 127,
      "chip": "ym2612"
    },
    {
      "channel": 0,
      "note": 69,
      "start": 21.951,
      "duration": 0.0816,
      "velocity": 91,
      "chip": "ym2612"
    },
    {
      "channel": 1,
      "note": 85,
      "start": 21.9511,
      "duration": 0.1019,
      "velocity": 94,
      "chip": "ym2612"
    },
    {
      "channel": 1,
      "note": 93,
      "start": 22.0531,
      "duration": 0.0983,
      "velocity": 94,
      "chip": "ym2612"
    },
    {
      "channel": 5,
      "note": 48,
      "start": 22.0532,
      "duration": 0.0295,
      "velocity": 101,
      "chip": "ym2612"
    },
    {
      "channel": 0,
      "note": 62,
      "start": 22.1514,
      "duration": 0.0812,
      "velocity": 91,
      "chip": "ym2612"
    },
    {
      "channel": 1,
      "note": 90,
      "start": 22.1515,
      "duration": 0.1026,
      "velocity": 94,
      "chip": "ym2612"
    },
    {
      "channel": 5,
      "note": 48,
      "start": 22.1516,
      "duration": 0.031,
      "velocity": 101,
      "chip": "ym2612"
    },
    {
      "channel": 0,
      "note": 69,
      "start": 22.2541,
      "duration": 0.0785,
      "velocity": 91,
      "chip": "ym2612"
    },
    {
      "channel": 1,
      "note": 85,
      "start": 22.2542,
      "duration": 0.0959,
      "velocity": 94,
      "chip": "ym2612"
    },
    {
      "channel": 5,
      "note": 43,
      "start": 22.2542,
      "duration": 0.096,
      "velocity": 127,
      "chip": "ym2612"
    },
    {
      "channel": 1,
      "note": 93,
      "start": 22.3501,
      "duration": 0.1079,
      "velocity": 94,
      "chip": "ym2612"
    },
    {
      "channel": 0,
      "note": 70,
      "start": 22.458,
      "duration": 0.0745,
      "velocity": 91,
      "chip": "ym2612"
    },
    {
      "channel": 1,
      "note": 92,
      "start": 22.4581,
      "duration": 0.2951,
      "velocity": 94,
      "chip": "ym2612"
    },
    {
      "channel": 2,
      "note": 92,
      "start": 22.4582,
      "duration": 0.295,
      "velocity": 94,
      "chip": "ym2612"
    },
    {
      "channel": 3,
      "note": 75,
      "start": 22.4583,
      "duration": 1.6002,
      "velocity": 117,
      "chip": "ym2612"
    },
    {
      "channel": 5,
      "note": 48,
      "start": 22.4584,
      "duration": 0.0576,
      "velocity": 101,
      "chip": "ym2612"
    },
    {
      "channel": 0,
      "note": 71,
      "start": 22.6534,
      "duration": 0.0792,
      "velocity": 91,
      "chip": "ym2612"
    },
    {
      "channel": 5,
      "note": 43,
      "start": 22.6535,
      "duration": 0.0998,
      "velocity": 127,
      "chip": "ym2612"
    },
    {
      "channel": 0,
      "note": 71,
      "start": 22.7531,
      "duration": 0.0795,
      "velocity": 91,
      "chip": "ym2612"
    },
    {
      "channel": 1,
      "note": 90,
      "start": 22.7532,
      "duration": 0.303,
      "velocity": 94,
      "chip": "ym2612"
    },
    {
      "channel": 2,
      "note": 90,
      "start": 22.7533,
      "duration": 0.3031,
      "velocity": 94,
      "chip": "ym2612"
    },
    {
      "channel": 5,
      "note": 48,
      "start": 22.8525,
      "duration": 0.0301,
      "velocity": 101,
      "chip": "ym2612"
    },
    {
      "channel": 0,
      "note": 64,
      "start": 22.9507,
      "duration": 0.0819,
      "velocity": 91,
      "chip": "ym2612"
    },
    {
      "channel": 5,
      "note": 48,
      "start": 22.9508,
      "duration": 0.0319,
      "velocity": 101,
      "chip": "ym2612"
    },
    {
      "channel": 0,
      "note": 71,
      "start": 23.0562,
      "duration": 0.0763,
      "velocity": 91,
      "chip": "ym2612"
    },
    {
      "channel": 1,
      "note": 92,
      "start": 23.0563,
      "duration": 1.002,
      "velocity": 94,
      "chip": "ym2612"
    },
    {
      "channel": 2,
      "note": 92,
      "start": 23.0564,
      "duration": 0.2938,
      "velocity": 94,
      "chip": "ym2612"
    },
    {
      "channel": 5,
      "note": 43,
      "start": 23.0565,
      "duration": 0.093,
      "velocity": 127,
      "chip": "ym2612"
    },
    {
      "channel": 0,
      "note": 71,
      "start": 23.2553,
      "duration": 0.0773,
      "velocity": 91,
      "chip": "ym2612"
    },
    {
      "channel": 5,
      "note": 48,
      "start": 23.2555,
      "duration": 0.0606,
      "velocity": 101,
      "chip": "ym2612"
    },
    {
      "channel": 2,
      "note": 73,
      "start": 23.3503,
      "duration": 0.1046,
      "velocity": 94,
      "chip": "ym2612"
    },
    {
      "channel": 0,
      "note": 71,
      "start": 23.4548,
      "duration": 0.0778,
      "velocity": 91,
      "chip": "ym2612"
    },
    {
      "channel": 2,
      "note": 74,
      "start": 23.4549,
      "duration": 0.0969,
      "velocity": 94,
      "chip": "ym2612"
    },
    {
      "channel": 5,
      "note": 43,
      "start": 23.4551,
      "duration": 0.0969,
      "velocity": 127,
      "chip": "ym2612"
    },
    {
      "channel": 0,
      "note": 71,
      "start": 23.5518,
      "duration": 0.0808,
      "velocity": 91,
      "chip": "ym2612"
    },
    {
      "channel": 2,
      "note": 76,
      "start": 23.5519,
      "duration": 0.1022,
      "velocity": 94,
      "chip": "ym2612"
    },
    {
      "channel": 2,
      "note": 78,
      "start": 23.6541,
      "duration": 0.0984,
      "velocity": 94,
      "chip": "ym2612"
    },
    {
      "channel": 5,
      "note": 48,
      "start": 23.6542,
      "duration": 0.0284,
      "velocity": 101,
      "chip": "ym2612"
    },
    {
      "channel": 0,
      "note": 64,
      "start": 23.7524,
      "duration": 0.0802,
      "velocity": 91,
      "chip": "ym2612"
    },
    {
      "channel": 2,
      "note": 80,
      "start": 23.7525,
      "duration": 0.1017,
      "velocity": 94,
      "chip": "ym2612"
    },
    {
      "channel": 5,
      "note": 48,
      "start": 23.7526,
      "duration": 0.0301,
      "velocity": 101,
      "chip": "ym2612"
    },
    {
      "channel": 0,
      "note": 71,
      "start": 23.8541,
      "duration": 0.0784,
      "velocity": 91,
      "chip": "ym2612"
    },
    {
      "channel": 2,
      "note": 81,
      "start": 23.8542,
      "duration": 0.0958,
      "velocity": 94,
      "chip": "ym2612"
    },
    {
      "channel": 5,
      "note": 43,
      "start": 23.8544,
      "duration": 0.0958,
      "velocity": 127,
      "chip": "ym2612"
    },
    {
      "channel": 2,
      "note": 83,
      "start": 23.9501,
      "duration": 0.1083,
      "velocity": 94,
      "chip": "ym2612"
    },
    {
      "channel": 0,
      "note": 71,
      "start": 24.0583,
      "duration": 0.0742,
      "velocity": 91,
      "chip": "ym2612"
    },
    {
      "channel": 1,
      "note": 95,
      "start": 24.0583,
      "duration": 0.7986,
      "velocity": 94,
      "chip": "ym2612"
    },
    {
      "channel": 2,
      "note": 71,
      "start": 24.0584,
      "duration": 0.3954,
      "velocity": 94,
      "chip": "ym2612"
    },
    {
      "channel": 3,
      "note": 76,
      "start": 24.0585,
      "duration": 1.5994,
      "velocity": 117,
      "chip": "ym2612"
    },
    {
      "channel": 5,
      "note": 48,
      "start": 24.0586,
      "duration": 0.0573,
      "velocity": 101,
      "chip": "ym2612"
    },
    {
      "channel": 0,
      "note": 72,
      "start": 24.2534,
      "duration": 0.0792,
      "velocity": 91,
      "chip": "ym2612"
    },
    {
      "channel": 5,
      "note": 43,
      "start": 24.2535,
      "duration": 0.0971,
      "velocity": 127,
      "chip": "ym2612"
    },
    {
      "channel": 0,
      "note": 72,
      "start": 24.3504,
      "duration": 0.0822,
      "velocity": 91,
      "chip": "ym2612"
    },
    {
      "channel": 2,
      "note": 80,
      "start": 24.4539,
      "duration": 0.4032,
      "velocity": 94,
      "chip": "ym2612"
    },
    {
      "channel": 5,
      "note": 48,
      "start": 24.4539,
      "duration": 0.0288,
      "velocity": 101,
      "chip": "ym2612"
    },
    {
      "channel": 0,
      "note": 65,
      "start": 24.5507,
      "duration": 0.0818,
      "velocity": 91,
      "chip": "ym2612"
    },
    {
      "channel": 5,
      "note": 48,
      "start": 24.5509,
      "duration": 0.0318,
      "velocity": 101,
      "chip": "ym2612"
    },
    {
      "channel": 0,
      "note": 72,
      "start": 24.6535,
      "duration": 0.0791,
      "velocity": 91,
      "chip": "ym2612"
    },
    {
      "channel": 5,
      "note": 43,
      "start": 24.6536,
      "duration": 0.0959,
      "velocity": 127,
      "chip": "ym2612"
    },
    {
      "channel": 0,
      "note": 72,
      "start": 24.8568,
      "duration": 0.0756,
      "velocity": 91,
      "chip": "ym2612"
    },
    {
      "channel": 1,
      "note": 85,
      "start": 24.857,
      "duration": 0.093,
      "velocity": 94,
      "chip": "ym2612"
    },
    {
      "channel": 2,
      "note": 83,
      "start": 24.8571,
      "duration": 0.8007,
      "velocity": 94,
      "chip": "ym2612"
    },
    {
      "channel": 5,
      "note": 48,
      "start": 24.8572,
      "duration": 0.0588,
      "velocity": 101,
      "chip": "ym2612"
    },
    {
      "channel": 1,
      "note": 95,
      "start": 24.95,
      "duration": 0.1041,
      "velocity": 94,
      "chip": "ym2612"
    },
    {
      "channel": 0,
      "note": 72,
      "start": 25.0541,
      "duration": 0.0785,
      "velocity": 91,
      "chip": "ym2612"
    },
    {
      "channel": 1,
      "note": 92,
      "start": 25.0542,
      "duration": 0.0977,
      "velocity": 94,
      "chip": "ym2612"
    },
    {
      "channel": 5,
      "note": 43,
      "start": 25.0542,
      "duration": 0.0977,
      "velocity": 127,
      "chip": "ym2612"
    },
    {
      "channel": 0,
      "note": 72,
      "start": 25.1518,
      "duration": 0.0808,
      "velocity": 91,
      "chip": "ym2612"
    },
    {
      "channel": 1,
      "note": 85,
      "start": 25.1519,
      "duration": 0.1012,
      "velocity": 94,
      "chip": "ym2612"
    },
    {
      "channel": 1,
      "note": 95,
      "start": 25.2531,
      "duration": 0.0983,
      "velocity": 94,
      "chip": "ym2612"
    },
    {
      "channel": 5,
      "note": 48,
      "start": 25.2532,
      "duration": 0.0295,
      "velocity": 101,
      "chip": "ym2612"
    },
    {
      "channel": 0,
      "note": 65,
      "start": 25.3514,
      "duration": 0.0812,
      "velocity": 91,
      "chip": "ym2612"
    },
    {
      "channel": 1,
      "note": 92,
      "start": 25.3515,
      "duration": 0.1034,
      "velocity": 94,
      "chip": "ym2612"
    },
    {
      "channel": 5,
      "note": 48,
      "start": 25.3516,
      "duration": 0.031,
      "velocity": 101,
      "chip": "ym2612"
    },
    {
      "channel": 0,
      "note": 72,
      "start": 25.4548,
      "duration": 0.0778,
      "velocity": 91,
      "chip": "ym2612"
    },
    {
      "channel": 1,
      "note": 85,
      "start": 25.4549,
      "duration": 0.0952,
      "velocity": 94,
      "chip": "ym2612"
    },
    {
      "channel": 5,
      "note": 43,
      "start": 25.455,
      "duration": 0.0952,
      "velocity": 127,
      "chip": "ym2612"
    },
    {
      "channel": 1,
      "note": 95,
      "start": 25.5501,
      "duration": 0.1076,
      "velocity": 94,
      "chip": "ym2612"
    },
    {
      "channel": 0,
      "note": 72,
      "start": 25.6577,
      "duration": 0.0748,
      "velocity": 91,
      "chip": "ym2612"
    },
    {
      "channel": 1,
      "note": 93,
      "start": 25.6578,
      "duration": 0.3961,
      "velocity": 94,
      "chip": "ym2612"
    },
    {
      "channel": 2,
      "note": 83,
      "start": 25.6579,
      "duration": 0.7994,
      "velocity": 94,
      "chip": "ym2612"
    },
    {
      "channel": 3,
      "note": 77,
      "start": 25.6579,
      "duration": 1.6059,
      "velocity": 103,
      "chip": "ym2612"
    },
    {
      "channel": 5,
      "note": 48,
      "start": 25.6581,
      "duration": 0.0579,
      "velocity": 101,
      "chip": "ym2612"
    },
    {
      "channel": 0,
      "note": 73,
      "start": 25.8534,
      "duration": 0.0793,
      "velocity": 91,
      "chip": "ym2612"
    },
    {
      "channel": 5,
      "note": 43,
      "start": 25.8535,
      "duration": 0.0971,
      "velocity": 127,
      "chip": "ym2612"
    },
    {
      "channel": 0,
      "note": 73,
      "start": 25.9504,
      "duration": 0.0822,
      "velocity": 91,
      "chip": "ym2612"
    },
    {
      "channel": 1,
      "note": 90,
      "start": 26.0539,
      "duration": 0.2002,
      "velocity": 94,
      "chip": "ym2612"
    },
    {
      "channel": 5,
      "note": 48,
      "start": 26.0539,
      "duration": 0.0288,
      "velocity": 101,
      "chip": "ym2612"
    },
    {
      "channel": 0,
      "note": 66,
      "start": 26.1507,
      "duration": 0.0819,
      "velocity": 91,
      "chip": "ym2612"
    },
    {
      "channel": 5,
      "note": 48,
      "start": 26.1508,
      "duration": 0.0318,
      "velocity": 101,
      "chip": "ym2612"
    },
    {
      "channel": 0,
      "note": 73,
      "start": 26.2541,
      "duration": 0.0785,
      "velocity": 91,
      "chip": "ym2612"
    },
    {
      "channel": 1,
      "note": 92,
      "start": 26.2541,
      "duration": 0.2031,
      "velocity": 94,
      "chip": "ym2612"
    },
    {
      "channel": 5,
      "note": 43,
      "start": 26.2542,
      "duration": 0.0953,
      "velocity": 127,
      "chip": "ym2612"
    },
    {
      "channel": 0,
      "note": 73,
      "start": 26.4572,
      "duration": 0.0753,
      "velocity": 91,
      "chip": "ym2612"
    },
    {
      "channel": 1,
      "note": 93,
      "start": 26.4573,
      "duration": 0.2945,
      "velocity": 94,
      "chip": "ym2612"
    },
    {
      "channel": 2,
      "note": 78,
      "start": 26.4574,
      "duration": 0.8064,
      "velocity": 103,
      "chip": "ym2612"
    },
    {
      "channel": 5,
      "note": 43,
      "start": 26.4575,
      "duration": 0.0418,
      "velocity": 127,
      "chip": "ym2612"
    },
    {
      "channel": 5,
      "note": 43,
      "start": 26.5503,
      "duration": 0.049,
      "velocity": 127,
      "chip": "ym2612"
    },
    {
      "channel": 0,
      "note": 73,
      "start": 26.6511,
      "duration": 0.0814,
      "velocity": 91,
      "chip": "ym2612"
    },
    {
      "channel": 5,
      "note": 43,
      "start": 26.6512,
      "duration": 0.0481,
      "velocity": 127,
      "chip": "ym2612"
    },
    {
      "channel": 0,
      "note": 73,
      "start": 26.7518,
      "duration": 0.0807,
      "velocity": 91,
      "chip": "ym2612"
    },
    {
      "channel": 1,
      "note": 95,
      "start": 26.7519,
      "duration": 0.3,
      "velocity": 94,
      "chip": "ym2612"
    },
    {
      "channel": 5,
      "note": 43,
      "start": 26.752,
      "duration": 0.0473,
      "velocity": 127,
      "chip": "ym2612"
    },
    {
      "channel": 5,
      "note": 43,
      "start": 26.8504,
      "duration": 0.0489,
      "velocity": 127,
      "chip": "ym2612"
    },
    {
      "channel": 0,
      "note": 66,
      "start": 26.9511,
      "duration": 0.0814,
      "velocity": 91,
      "chip": "ym2612"
    },
    {
      "channel": 5,
      "note": 43,
      "start": 26.9512,
      "duration": 0.0481,
      "velocity": 127,
      "chip": "ym2612"
    },
    {
      "channel": 0,
      "note": 65,
      "start": 27.0518,
      "duration": 0.0808,
      "velocity": 91,
      "chip": "ym2612"
    },
    {
      "channel": 1,
      "note": 97,
      "start": 27.0519,
      "duration": 0.2118,
      "velocity": 103,
      "chip": "ym2612"
    },
    {
      "channel": 5,
      "note": 43,
      "start": 27.052,
      "duration": 0.0473,
      "velocity": 127,
      "chip": "ym2612"
    },
    {
      "channel": 0,
      "note": 64,
      "start": 27.1511,
      "duration": 0.0814,
      "velocity": 91,
      "chip": "ym2612"
    },
    {
      "channel": 5,
      "note": 43,
      "start": 27.1512,
      "duration": 0.048,
      "velocity": 127,
      "chip": "ym2612"
    },
    {
      "channel": 0,
      "note": 63,
      "start": 27.2636,
      "duration": 0.0855,
      "velocity": 91,
      "chip": "ym2612"
    },
    {
      "channel": 1,
      "note": 98,
      "start": 27.2637,
      "duration": 0.2069,
      "velocity": 103,
      "chip": "ym2612"
    },
    {
      "channel": 2,
      "note": 86,
      "start": 27.2639,
      "duration": 0.3053,
      "velocity": 103,
      "chip": "ym2612"
    },
    {
      "channel": 3,
      "note": 74,
      "start": 27.2639,
      "duration": 0.811,
      "velocity": 103,
      "chip": "ym2612"
    },
    {
      "channel": 5,
      "note": 48,
      "start": 27.264,
      "duration": 0.0685,
      "velocity": 101,
      "chip": "ym2612"
    },
    {
      "channel": 0,
      "note": 69,
      "start": 27.4706,
      "duration": 0.0786,
      "velocity": 91,
      "chip": "ym2612"
    },
    {
      "channel": 1,
      "note": 100,
      "start": 27.4707,
      "duration": 0.0983,
      "velocity": 103,
      "chip": "ym2612"
    },
    {
      "channel": 5,
      "note": 43,
      "start": 27.4708,
      "duration": 0.0985,
      "velocity": 127,
      "chip": "ym2612"
    },
    {
      "channel": 0,
      "note": 69,
      "start": 27.5689,
      "duration": 0.0802,
      "velocity": 91,
      "chip": "ym2612"
    },
    {
      "channel": 1,
      "note": 98,
      "start": 27.5691,
      "duration": 0.3038,
      "velocity": 103,
      "chip": "ym2612"
    },
    {
      "channel": 2,
      "note": 86,
      "start": 27.5691,
      "duration": 0.3039,
      "velocity": 103,
      "chip": "ym2612"
    },
    {
      "channel": 5,
      "note": 48,
      "start": 27.6691,
      "duration": 0.0302,
      "velocity": 101,
      "chip": "ym2612"
    },
    {
      "channel": 0,
      "note": 62,
      "start": 27.7673,
      "duration": 0.0819,
      "velocity": 91,
      "chip": "ym2612"
    },
    {
      "channel": 5,
      "note": 48,
      "start": 27.7675,
      "duration": 0.0319,
      "velocity": 101,
      "chip": "ym2612"
    },
    {
      "channel": 0,
      "note": 69,
      "start": 27.8729,
      "duration": 0.0763,
      "velocity": 91,
      "chip": "ym2612"
    },
    {
      "channel": 1,
      "note": 90,
      "start": 27.8729,
      "duration": 0.2017,
      "velocity": 103,
      "chip": "ym2612"
    },
    {
      "channel": 2,
      "note": 78,
      "start": 27.8731,
      "duration": 0.2017,
      "velocity": 103,
      "chip": "ym2612"
    },
    {
      "channel": 5,
      "note": 43,
      "start": 27.8731,
      "duration": 0.0929,
      "velocity": 127,
      "chip": "ym2612"
    },
    {
      "channel": 0,
      "note": 70,
      "start": 28.0747,
      "duration": 0.0744,
      "velocity": 91,
      "chip": "ym2612"
    },
    {
      "channel": 1,
      "note": 92,
      "start": 28.0747,
      "duration": 0.8,
      "velocity": 103,
      "chip": "ym2612"
    },
    {
      "channel": 2,
      "note": 80,
      "start": 28.0749,
      "duration": 0.1959,
      "velocity": 103,
      "chip": "ym2612"
    },
    {
      "channel": 3,
      "note": 76,
      "start": 28.0749,
      "duration": 0.8,
      "velocity": 103,
      "chip": "ym2612"
    },
    {
      "channel": 5,
      "note": 48,
      "start": 28.0751,
      "duration": 0.0575,
      "velocity": 101,
      "chip": "ym2612"
    },
    {
      "channel": 0,
      "note": 71,
      "start": 28.2707,
      "duration": 0.0785,
      "velocity": 91,
      "chip": "ym2612"
    },
    {
      "channel": 2,
      "note": 81,
      "start": 28.2708,
      "duration": 0.0976,
      "velocity": 103,
      "chip": "ym2612"
    },
    {
      "channel": 5,
      "note": 43,
      "start": 28.2709,
      "duration": 0.0976,
      "velocity": 127,
      "chip": "ym2612"
    },
    {
      "channel": 0,
      "note": 71,
      "start": 28.3684,
      "duration": 0.0808,
      "velocity": 91,
      "chip": "ym2612"
    },
    {
      "channel": 2,
      "note": 83,
      "start": 28.3685,
      "duration": 0.3023,
      "velocity": 103,
      "chip": "ym2612"
    },
    {
      "channel": 5,
      "note": 48,
      "start": 28.4691,
      "duration": 0.0302,
      "velocity": 101,
      "chip": "ym2612"
    },
    {
      "channel": 0,
      "note": 64,
      "start": 28.5673,
      "duration": 0.0819,
      "velocity": 91,
      "chip": "ym2612"
    },
    {
      "channel": 5,
      "note": 48,
      "start": 28.5675,
      "duration": 0.0319,
      "velocity": 101,
      "chip": "ym2612"
    },
    {
      "channel": 0,
      "note": 71,
      "start": 28.6708,
      "duration": 0.0784,
      "velocity": 91,
      "chip": "ym2612"
    },
    {
      "channel": 2,
      "note": 80,
      "start": 28.6709,
      "duration": 0.2039,
      "velocity": 103,
      "chip": "ym2612"
    },
    {
      "channel": 5,
      "note": 43,
      "start": 28.671,
      "duration": 0.0952,
      "velocity": 127,
      "chip": "ym2612"
    },
    {
      "channel": 0,
      "note": 71,
      "start": 28.8747,
      "duration": 0.0744,
      "velocity": 91,
      "chip": "ym2612"
    },
    {
      "channel": 1,
      "note": 97,
      "start": 28.8748,
      "duration": 0.2934,
      "velocity": 103,
      "chip": "ym2612"
    },
    {
      "channel": 2,
      "note": 85,
      "start": 28.8749,
      "duration": 0.2935,
      "velocity": 103,
      "chip": "ym2612"
    },
    {
      "channel": 3,
      "note": 77,
      "start": 28.875,
      "duration": 0.7999,
      "velocity": 103,
      "chip": "ym2612"
    },
    {
      "channel": 5,
      "note": 48,
      "start": 28.8751,
      "duration": 0.0575,
      "velocity": 101,
      "chip": "ym2612"
    },
    {
      "channel": 0,
      "note": 72,
      "start": 29.07,
      "duration": 0.0791,
      "velocity": 91,
      "chip": "ym2612"
    },
    {
      "channel": 5,
      "note": 43,
      "start": 29.0702,
      "duration": 0.0983,
      "velocity": 127,
      "chip": "ym2612"
    },
    {
      "channel": 0,
      "note": 72,
      "start": 29.1682,
      "duration": 0.081,
      "velocity": 91,
      "chip": "ym2612"
    },
    {
      "channel": 1,
      "note": 95,
      "start": 29.1683,
      "duration": 0.3045,
      "velocity": 103,
      "chip": "ym2612"
    },
    {
      "channel": 2,
      "note": 83,
      "start": 29.1684,
      "duration": 0.3046,
      "velocity": 103,
      "chip": "ym2612"
    },
    {
      "channel": 5,
      "note": 48,
      "start": 29.2691,
      "duration": 0.0302,
      "velocity": 101,
      "chip": "ym2612"
    },
    {
      "channel": 0,
      "note": 65,
      "start": 29.3673,
      "duration": 0.0819,
      "velocity": 91,
      "chip": "ym2612"
    },
    {
      "channel": 5,
      "note": 48,
      "start": 29.3675,
      "duration": 0.0319,
      "velocity": 101,
      "chip": "ym2612"
    },
    {
      "channel": 0,
      "note": 72,
      "start": 29.4728,
      "duration": 0.0763,
      "velocity": 91,
      "chip": "ym2612"
    },
    {
      "channel": 1,
      "note": 97,
      "start": 29.4729,
      "duration": 0.2017,
      "velocity": 103,
      "chip": "ym2612"
    },
    {
      "channel": 2,
      "note": 77,
      "start": 29.473,
      "duration": 0.2017,
      "velocity": 103,
      "chip": "ym2612"
    },
    {
      "channel": 5,
      "note": 43,
      "start": 29.4731,
      "duration": 0.093,
      "velocity": 127,
      "chip": "ym2612"
    },
    {
      "channel": 0,
      "note": 72,
      "start": 29.6746,
      "duration": 0.0745,
      "velocity": 91,
      "chip": "ym2612"
    },
    {
      "channel": 1,
      "note": 93,
      "start": 29.6747,
      "duration": 0.8002,
      "velocity": 103,
      "chip": "ym2612"
    },
    {
      "channel": 2,
      "note": 78,
      "start": 29.6748,
      "duration": 0.1959,
      "velocity": 103,
      "chip": "ym2612"
    },
    {
      "channel": 3,
      "note": 78,
      "start": 29.6749,
      "duration": 0.8003,
      "velocity": 103,
      "chip": "ym2612"
    },
    {
      "channel": 5,
      "note": 48,
      "start": 29.675,
      "duration": 0.0576,
      "velocity": 101,
      "chip": "ym2612"
    },
    {
      "channel": 0,
      "note": 73,
      "start": 29.8706,
      "duration": 0.0786,
      "velocity": 91,
      "chip": "ym2612"
    },
    {
      "channel": 2,
      "note": 80,
      "start": 29.8707,
      "duration": 0.0977,
      "velocity": 103,
      "chip": "ym2612"
    },
    {
      "channel": 5,
      "note": 43,
      "start": 29.8708,
      "duration": 0.0977,
      "velocity": 127,
      "chip": "ym2612"
    },
    {
      "channel": 0,
      "note": 73,
      "start": 29.9684,
      "duration": 0.0808,
      "velocity": 91,
      "chip": "ym2612"
    },
    {
      "channel": 2,
      "note": 81,
      "start": 29.9685,
      "duration": 0.3022,
      "velocity": 103,
      "chip": "ym2612"
    },
    {
      "channel": 5,
      "note": 48,
      "start": 30.0691,
      "duration": 0.0302,
      "velocity": 101,
      "chip": "ym2612"
    },
    {
      "channel": 0,
      "note": 66,
      "start": 30.1673,
      "duration": 0.0819,
      "velocity": 91,
      "chip": "ym2612"
    },
    {
      "channel": 5,
      "note": 48,
      "start": 30.1675,
      "duration": 0.0319,
      "velocity": 101,
      "chip": "ym2612"
    },
    {
      "channel": 0,
      "note": 73,
      "start": 30.2707,
      "duration": 0.0786,
      "velocity": 91,
      "chip": "ym2612"
    },
    {
      "channel": 2,
      "note": 85,
      "start": 30.2708,
      "duration": 0.2043,
      "velocity": 103,
      "chip": "ym2612"
    },
    {
      "channel": 5,
      "note": 43,
      "start": 30.2709,
      "duration": 0.0952,
      "velocity": 127,
      "chip": "ym2612"
    },
    {
      "channel": 0,
      "note": 72,
      "start": 30.4749,
      "duration": 0.0742,
      "velocity": 91,
      "chip": "ym2612"
    },
    {
      "channel": 1,
      "note": 86,
      "start": 30.475,
      "duration": 0.2932,
      "velocity": 103,
      "chip": "ym2612"
    },
    {
      "channel": 2,
      "note": 74,
      "start": 30.4751,
      "duration": 0.2932,
      "velocity": 103,
      "chip": "ym2612"
    },
    {
      "channel": 3,
      "note": 74,
      "start": 30.4752,
      "duration": 2.3981,
      "velocity": 103,
      "chip": "ym2612"
    },
    {
      "channel": 5,
      "note": 48,
      "start": 30.4753,
      "duration": 0.0572,
      "velocity": 101,
      "chip": "ym2612"
    },
    {
      "channel": 0,
      "note": 69,
      "start": 30.67,
      "duration": 0.0792,
      "velocity": 91,
      "chip": "ym2612"
    },
    {
      "channel": 5,
      "note": 43,
      "start": 30.6701,
      "duration": 0.0983,
      "velocity": 127,
      "chip": "ym2612"
    },
    {
      "channel": 0,
      "note": 69,
      "start": 30.7682,
      "duration": 0.0809,
      "velocity": 91,
      "chip": "ym2612"
    },
    {
      "channel": 1,
      "note": 85,
      "start": 30.7683,
      "duration": 0.303,
      "velocity": 103,
      "chip": "ym2612"
    },
    {
      "channel": 2,
      "note": 73,
      "start": 30.7684,
      "duration": 0.303,
      "velocity": 103,
      "chip": "ym2612"
    },
    {
      "channel": 5,
      "note": 48,
      "start": 30.869,
      "duration": 0.0302,
      "velocity": 101,
      "chip": "ym2612"
    },
    {
      "channel": 0,
      "note": 62,
      "start": 30.9673,
      "duration": 0.0819,
      "velocity": 91,
      "chip": "ym2612"
    },
    {
      "channel": 5,
      "note": 48,
      "start": 30.9674,
      "duration": 0.0319,
      "velocity": 101,
      "chip": "ym2612"
    },
    {
      "channel": 0,
      "note": 69,
      "start": 31.0712,
      "duration": 0.0779,
      "velocity": 91,
      "chip": "ym2612"
    },
    {
      "channel": 1,
      "note": 86,
      "start": 31.0714,
      "duration": 0.2013,
      "velocity": 103,
      "chip": "ym2612"
    },
    {
      "channel": 2,
      "note": 74,
      "start": 31.0714,
      "duration": 0.2014,
      "velocity": 103,
      "chip": "ym2612"
    },
    {
      "channel": 5,
      "note": 43,
      "start": 31.0715,
      "duration": 0.0945,
      "velocity": 127,
      "chip": "ym2612"
    },
    {
      "channel": 0,
      "note": 69,
      "start": 31.2727,
      "duration": 0.0764,
      "velocity": 91,
      "chip": "ym2612"
    },
    {
      "channel": 1,
      "note": 86,
      "start": 31.2728,
      "duration": 0.2955,
      "velocity": 103,
      "chip": "ym2612"
    },
    {
      "channel": 2,
      "note": 74,
      "start": 31.2729,
      "duration": 0.2954,
      "velocity": 103,
      "chip": "ym2612"
    },
    {
      "channel": 5,
      "note": 48,
      "start": 31.2729,
      "duration": 0.0596,
      "velocity": 101,
      "chip": "ym2612"
    },
    {
      "channel": 0,
      "note": 69,
      "start": 31.47,
      "duration": 0.0791,
      "velocity": 91,
      "chip": "ym2612"
    },
    {
      "channel": 5,
      "note": 43,
      "start": 31.4702,
      "duration": 0.0983,
      "velocity": 127,
      "chip": "ym2612"
    },
    {
      "channel": 0,
      "note": 69,
      "start": 31.5682,
      "duration": 0.0809,
      "velocity": 91,
      "chip": "ym2612"
    },
    {
      "channel": 1,
      "note": 88,
      "start": 31.5683,
      "duration": 0.303,
      "velocity": 103,
      "chip": "ym2612"
    },
    {
      "channel": 2,
      "note": 76,
      "start": 31.5684,
      "duration": 0.303,
      "velocity": 103,
      "chip": "ym2612"
    },
    {
      "channel": 5,
      "note": 48,
      "start": 31.669,
      "duration": 0.0302,
      "velocity": 101,
      "chip": "ym2612"
    },
    {
      "channel": 0,
      "note": 62,
      "start": 31.7673,
      "duration": 0.0819,
      "velocity": 91,
      "chip": "ym2612"
    },
    {
      "channel": 5,
      "note": 48,
      "start": 31.7674,
      "duration": 0.0319,
      "velocity": 101,
      "chip": "ym2612"
    },
    {
      "channel": 0,
      "note": 69,
      "start": 31.8712,
      "duration": 0.0779,
      "velocity": 91,
      "chip": "ym2612"
    },
    {
      "channel": 1,
      "note": 90,
      "start": 31.8714,
      "duration": 0.2019,
      "velocity": 103,
      "chip": "ym2612"
    },
    {
      "channel": 2,
      "note": 78,
      "start": 31.8714,
      "duration": 0.202,
      "velocity": 103,
      "chip": "ym2612"
    },
    {
      "channel": 5,
      "note": 43,
      "start": 31.8715,
      "duration": 0.0945,
      "velocity": 127,
      "chip": "ym2612"
    },
    {
      "channel": 0,
      "note": 69,
      "start": 32.0733,
      "duration": 0.0758,
      "velocity": 91,
      "chip": "ym2612"
    },
    {
      "channel": 1,
      "note": 90,
      "start": 32.0733,
      "duration": 0.7998,
      "velocity": 103,
      "chip": "ym2612"
    },
    {
      "channel": 2,
      "note": 74,
      "start": 32.0734,
      "duration": 0.7997,
      "velocity": 103,
      "chip": "ym2612"
    },
    {
      "channel": 5,
      "note": 48,
      "start": 32.0735,
      "duration": 0.059,
      "velocity": 101,
      "chip": "ym2612"
    },
    {
      "channel": 0,
      "note": 69,
      "start": 32.27,
      "duration": 0.0791,
      "velocity": 91,
      "chip": "ym2612"
    },
    {
      "channel": 5,
      "note": 43,
      "start": 32.2702,
      "duration": 0.097,
      "velocity": 127,
      "chip": "ym2612"
    },
    {
      "channel": 0,
      "note": 69,
      "start": 32.367,
      "duration": 0.0822,
      "velocity": 91,
      "chip": "ym2612"
    },
    {
      "channel": 5,
      "note": 48,
      "start": 32.4691,
      "duration": 0.0301,
      "velocity": 101,
      "chip": "ym2612"
    },
    {
      "channel": 0,
      "note": 62,
      "start": 32.5673,
      "duration": 0.0818,
      "velocity": 91,
      "chip": "ym2612"
    },
    {
      "channel": 5,
      "note": 48,
      "start": 32.5675,
      "duration": 0.0318,
      "velocity": 101,
      "chip": "ym2612"
    },
    {
      "channel": 0,
      "note": 69,
      "start": 32.6701,
      "duration": 0.0791,
      "velocity": 91,
      "chip": "ym2612"
    },
    {
      "channel": 5,
      "note": 43,
      "start": 32.6702,
      "duration": 0.0959,
      "velocity": 127,
      "chip": "ym2612"
    },
    {
      "channel": 0,
      "note": 69,
      "start": 32.873,
      "duration": 0.0761,
      "velocity": 91,
      "chip": "ym2612"
    },
    {
      "channel": 1,
      "note": 89,
      "start": 32.8731,
      "duration": 0.2961,
      "velocity": 103,
      "chip": "ym2612"
    },
    {
      "channel": 2,
      "note": 73,
      "start": 32.8732,
      "duration": 0.8008,
      "velocity": 103,
      "chip": "ym2612"
    },
    {
      "channel": 3,
      "note": 73,
      "start": 32.8733,
      "duration": 0.8008,
      "velocity": 103,
      "chip": "ym2612"
    },
    {
      "channel": 5,
      "note": 43,
      "start": 32.8734,
      "duration": 0.0424,
      "velocity": 127,
      "chip": "ym2612"
    },
    {
      "channel": 5,
      "note": 43,
      "start": 32.9669,
      "duration": 0.0489,
      "velocity": 127,
      "chip": "ym2612"
    },
    {
      "channel": 0,
      "note": 68,
      "start": 33.0677,
      "duration": 0.0814,
      "velocity": 91,
      "chip": "ym2612"
    },
    {
      "channel": 5,
      "note": 43,
      "start": 33.0679,
      "duration": 0.0481,
      "velocity": 127,
      "chip": "ym2612"
    },
    {
      "channel": 0,
      "note": 68,
      "start": 33.1693,
      "duration": 0.0799,
      "velocity": 91,
      "chip": "ym2612"
    },
    {
      "channel": 1,
      "note": 90,
      "start": 33.1693,
      "duration": 0.2992,
      "velocity": 103,
      "chip": "ym2612"
    },
    {
      "channel": 5,
      "note": 43,
      "start": 33.1695,
      "duration": 0.0464,
      "velocity": 127,
      "chip": "ym2612"
    },
    {
      "channel": 5,
      "note": 43,
      "start": 33.267,
      "duration": 0.0489,
      "velocity": 127,
      "chip": "ym2612"
    },
    {
      "channel": 0,
      "note": 61,
      "start": 33.3677,
      "duration": 0.0814,
      "velocity": 91,
      "chip": "ym2612"
    },
    {
      "channel": 5,
      "note": 43,
      "start": 33.3679,
      "duration": 0.0481,
      "velocity": 127,
      "chip": "ym2612"
    },
    {
      "channel": 0,
      "note": 68,
      "start": 33.4684,
      "duration": 0.0807,
      "velocity": 91,
      "chip": "ym2612"
    },
    {
      "channel": 1,
      "note": 92,
      "start": 33.4685,
      "duration": 0.2054,
      "velocity": 103,
      "chip": "ym2612"
    },
    {
      "channel": 5,
      "note": 43,
      "start": 33.4686,
      "duration": 0.0473,
      "velocity": 127,
      "chip": "ym2612"
    },
    {
      "channel": 5,
      "note": 43,
      "start": 33.567,
      "duration": 0.049,
      "velocity": 127,
      "chip": "ym2612"
    },
    {
      "channel": 0,
      "note": 68,
      "start": 33.6739,
      "duration": 0.0752,
      "velocity": 91,
      "chip": "ym2612"
    },
    {
      "channel": 1,
      "note": 90,
      "start": 33.674,
      "duration": 0.2939,
      "velocity": 103,
      "chip": "ym2612"
    },
    {
      "channel": 2,
      "note": 74,
      "start": 33.6741,
      "duration": 0.8,
      "velocity": 103,
      "chip": "ym2612"
    },
    {
      "channel": 3,
      "note": 74,
      "start": 33.6742,
      "duration": 0.7999,
      "velocity": 103,
      "chip": "ym2612"
    },
    {
      "channel": 5,
      "note": 48,
      "start": 33.6743,
      "duration": 0.0582,
      "velocity": 101,
      "chip": "ym2612"
    },
    {
      "channel": 0,
      "note": 69,
      "start": 33.87,
      "duration": 0.0792,
      "velocity": 91,
      "chip": "ym2612"
    },
    {
      "channel": 5,
      "note": 43,
      "start": 33.8701,
      "duration": 0.098,
      "velocity": 127,
      "chip": "ym2612"
    },
    {
      "channel": 0,
      "note": 69,
      "start": 33.9679,
      "duration": 0.0813,
      "velocity": 91,
      "chip": "ym2612"
    },
    {
      "channel": 1,
      "note": 97,
      "start": 33.968,
      "duration": 0.5059,
      "velocity": 103,
      "chip": "ym2612"
    },
    {
      "channel": 5,
      "note": 48,
      "start": 34.0691,
      "duration": 0.0302,
      "velocity": 101,
      "chip": "ym2612"
    },
    {
      "channel": 0,
      "note": 62,
      "start": 34.1673,
      "duration": 0.0818,
      "velocity": 91,
      "chip": "ym2612"
    },
    {
      "channel": 5,
      "note": 48,
      "start": 34.1675,
      "duration": 0.0319,
      "velocity": 101,
      "chip": "ym2612"
    },
    {
      "channel": 0,
      "note": 69,
      "start": 34.2701,
      "duration": 0.0791,
      "velocity": 91,
      "chip": "ym2612"
    },
    {
      "channel": 5,
      "note": 43,
      "start": 34.2702,
      "duration": 0.0964,
      "velocity": 127,
      "chip": "ym2612"
    },
    {
      "channel": 0,
      "note": 70,
      "start": 34.4738,
      "duration": 0.0753,
      "velocity": 91,
      "chip": "ym2612"
    },
    {
      "channel": 1,
      "note": 95,
      "start": 34.474,
      "duration": 0.2939,
      "velocity": 103,
      "chip": "ym2612"
    },
    {
      "channel": 2,
      "note": 76,
      "start": 34.474,
      "duration": 0.7999,
      "velocity": 103,
      "chip": "ym2612"
    },
    {
      "channel": 3,
      "note": 76,
      "start": 34.4741,
      "duration": 0.7999,
      "velocity": 103,
      "chip": "ym2612"
    },
    {
      "channel": 5,
      "note": 48,
      "start": 34.4742,
      "duration": 0.0583,
      "velocity": 101,
      "chip": "ym2612"
    },
    {
      "channel": 0,
      "note": 71,
      "start": 34.67,
      "duration": 0.0791,
      "velocity": 91,
      "chip": "ym2612"
    },
    {
      "channel": 5,
      "note": 43,
      "start": 34.6702,
      "duration": 0.0979,
      "velocity": 127,
      "chip": "ym2612"
    },
    {
      "channel": 0,
      "note": 71,
      "start": 34.7678,
      "duration": 0.0814,
      "velocity": 91,
      "chip": "ym2612"
    },
    {
      "channel": 1,
      "note": 100,
      "start": 34.7679,
      "duration": 0.5059,
      "velocity": 103,
      "chip": "ym2612"
    },
    {
      "channel": 5,
      "note": 48,
      "start": 34.8691,
      "duration": 0.0302,
      "velocity": 101,
      "chip": "ym2612"
    },
    {
      "channel": 0,
      "note": 64,
      "start": 34.9673,
      "duration": 0.0818,
      "velocity": 91,
      "chip": "ym2612"
    },
    {
      "channel": 5,
      "note": 48,
      "start": 34.9675,
      "duration": 0.0319,
      "velocity": 101,
      "chip": "ym2612"
    },
    {
      "channel": 0,
      "note": 71,
      "start": 35.0701,
      "duration": 0.0791,
      "velocity": 91,
      "chip": "ym2612"
    },
    {
      "channel": 5,
      "note": 43,
      "start": 35.0702,
      "duration": 0.0964,
      "velocity": 127,
      "chip": "ym2612"
    },
    {
      "channel": 0,
      "note": 72,
      "start": 35.2738,
      "duration": 0.0753,
      "velocity": 91,
      "chip": "ym2612"
    },
    {
      "channel": 1,
      "note": 97,
      "start": 35.2739,
      "duration": 0.1967,
      "velocity": 103,
      "chip": "ym2612"
    },
    {
      "channel": 2,
      "note": 80,
      "start": 35.274,
      "duration": 0.3968,
      "velocity": 103,
      "chip": "ym2612"
    },
    {
      "channel": 3,
      "note": 78,
      "start": 35.2741,
      "duration": 1.6006,
      "velocity": 103,
      "chip": "ym2612"
    },
    {
      "channel": 5,
      "note": 48,
      "start": 35.2742,
      "duration": 0.0583,
      "velocity": 101,
      "chip": "ym2612"
    },
    {
      "channel": 0,
      "note": 73,
      "start": 35.4706,
      "duration": 0.0786,
      "velocity": 91,
      "chip": "ym2612"
    },
    {
      "channel": 1,
      "note": 95,
      "start": 35.4707,
      "duration": 0.0969,
      "velocity": 103,
      "chip": "ym2612"
    },
    {
      "channel": 5,
      "note": 43,
      "start": 35.4708,
      "duration": 0.097,
      "velocity": 127,
      "chip": "ym2612"
    },
    {
      "channel": 0,
      "note": 73,
      "start": 35.5676,
      "duration": 0.0816,
      "velocity": 91,
      "chip": "ym2612"
    },
    {
      "channel": 1,
      "note": 97,
      "start": 35.5677,
      "duration": 1.3068,
      "velocity": 103,
      "chip": "ym2612"
    },
    {
      "channel": 2,
      "note": 80,
      "start": 35.6709,
      "duration": 0.4014,
      "velocity": 103,
      "chip": "ym2612"
    },
    {
      "channel": 5,
      "note": 48,
      "start": 35.671,
      "duration": 0.0283,
      "velocity": 101,
      "chip": "ym2612"
    },
    {
      "channel": 0,
      "note": 66,
      "start": 35.7673,
      "duration": 0.0819,
      "velocity": 91,
      "chip": "ym2612"
    },
    {
      "channel": 5,
      "note": 48,
      "start": 35.7674,
      "duration": 0.0319,
      "velocity": 101,
      "chip": "ym2612"
    },
    {
      "channel": 0,
      "note": 73,
      "start": 35.87,
      "duration": 0.0792,
      "velocity": 91,
      "chip": "ym2612"
    },
    {
      "channel": 5,
      "note": 43,
      "start": 35.8702,
      "duration": 0.096,
      "velocity": 127,
      "chip": "ym2612"
    },
    {
      "channel": 0,
      "note": 73,
      "start": 36.0722,
      "duration": 0.0769,
      "velocity": 91,
      "chip": "ym2612"
    },
    {
      "channel": 2,
      "note": 81,
      "start": 36.0724,
      "duration": 0.1984,
      "velocity": 103,
      "chip": "ym2612"
    },
    {
      "channel": 5,
      "note": 48,
      "start": 36.0724,
      "duration": 0.0602,
      "velocity": 101,
      "chip": "ym2612"
    },
    {
      "channel": 0,
      "note": 73,
      "start": 36.2707,
      "duration": 0.0784,
      "velocity": 91,
      "chip": "ym2612"
    },
    {
      "channel": 2,
      "note": 80,
      "start": 36.2708,
      "duration": 0.1988,
      "velocity": 103,
      "chip": "ym2612"
    },
    {
      "channel": 5,
      "note": 43,
      "start": 36.2709,
      "duration": 0.0962,
      "velocity": 127,
      "chip": "ym2612"
    },
    {
      "channel": 0,
      "note": 73,
      "start": 36.367,
      "duration": 0.0822,
      "velocity": 91,
      "chip": "ym2612"
    },
    {
      "channel": 2,
      "note": 78,
      "start": 36.4697,
      "duration": 0.201,
      "velocity": 103,
      "chip": "ym2612"
    },
    {
      "channel": 5,
      "note": 48,
      "start": 36.4698,
      "duration": 0.0295,
      "velocity": 101,
      "chip": "ym2612"
    },
    {
      "channel": 0,
      "note": 66,
      "start": 36.5673,
      "duration": 0.0819,
      "velocity": 91,
      "chip": "ym2612"
    },
    {
      "channel": 5,
      "note": 48,
      "start": 36.5675,
      "duration": 0.0318,
      "velocity": 101,
      "chip": "ym2612"
    },
    {
      "channel": 0,
      "note": 65,
      "start": 36.6707,
      "duration": 0.0785,
      "velocity": 91,
      "chip": "ym2612"
    },
    {
      "channel": 2,
      "note": 76,
      "start": 36.6708,
      "duration": 0.2038,
      "velocity": 103,
      "chip": "ym2612"
    },
    {
      "channel": 5,
      "note": 43,
      "start": 36.6709,
      "duration": 0.0961,
      "velocity": 127,
      "chip": "ym2612"
    },
    {
      "channel": 0,
      "note": 64,
      "start": 36.7668,
      "duration": 0.0823,
      "velocity": 91,
      "chip": "ym2612"
    },
    {
      "channel": 0,
      "note": 63,
      "start": 36.8744,
      "duration": 0.0747,
      "velocity": 91,
      "chip": "ym2612"
    },
    {
      "channel": 1,
      "note": 90,
      "start": 36.8745,
      "duration": 0.2934,
      "velocity": 103,
      "chip": "ym2612"
    },
    {
      "channel": 2,
      "note": 74,
      "start": 36.8746,
      "duration": 0.7994,
      "velocity": 103,
      "chip": "ym2612"
    },
    {
      "channel": 3,
      "note": 74,
      "start": 36.8747,
      "duration": 0.7993,
      "velocity": 103,
      "chip": "ym2612"
    },
    {
      "channel": 5,
      "note": 48,
      "start": 36.8748,
      "duration": 0.0577,
      "velocity": 101,
      "chip": "ym2612"
    },
    {
      "channel": 0,
      "note": 69,
      "start": 37.07,
      "duration": 0.0792,
      "velocity": 91,
      "chip": "ym2612"
    },
    {
      "channel": 5,
      "note": 43,
      "start": 37.0701,
      "duration": 0.098,
      "velocity": 127,
      "chip": "ym2612"
    },
    {
      "channel": 0,
      "note": 69,
      "start": 37.1679,
      "duration": 0.0813,
      "velocity": 91,
      "chip": "ym2612"
    },
    {
      "channel": 1,
      "note": 97,
      "start": 37.168,
      "duration": 0.5059,
      "velocity": 103,
      "chip": "ym2612"
    },
    {
      "channel": 5,
      "note": 48,
      "start": 37.2691,
      "duration": 0.0302,
      "velocity": 101,
      "chip": "ym2612"
    },
    {
      "channel": 0,
      "note": 62,
      "start": 37.3673,
      "duration": 0.0818,
      "velocity": 91,
      "chip": "ym2612"
    },
    {
      "channel": 5,
      "note": 48,
      "start": 37.3675,
      "duration": 0.0319,
      "velocity": 101,
      "chip": "ym2612"
    },
    {
      "channel": 0,
      "note": 69,
      "start": 37.4701,
      "duration": 0.0791,
      "velocity": 91,
      "chip": "ym2612"
    },
    {
      "channel": 5,
      "note": 43,
      "start": 37.4702,
      "duration": 0.0964,
      "velocity": 127,
      "chip": "ym2612"
    },
    {
      "channel": 0,
      "note": 70,
      "start": 37.6738,
      "duration": 0.0753,
      "velocity": 91,
      "chip": "ym2612"
    },
    {
      "channel": 1,
      "note": 95,
      "start": 37.674,
      "duration": 0.2939,
      "velocity": 103,
      "chip": "ym2612"
    },
    {
      "channel": 2,
      "note": 76,
      "start": 37.674,
      "duration": 0.8015,
      "velocity": 103,
      "chip": "ym2612"
    },
    {
      "channel": 3,
      "note": 76,
      "start": 37.6741,
      "duration": 0.8015,
      "velocity": 103,
      "chip": "ym2612"
    },
    {
      "channel": 5,
      "note": 48,
      "start": 37.6742,
      "duration": 0.0583,
      "velocity": 101,
      "chip": "ym2612"
    },
    {
      "channel": 0,
      "note": 71,
      "start": 37.87,
      "duration": 0.0791,
      "velocity": 91,
      "chip": "ym2612"
    },
    {
      "channel": 5,
      "note": 43,
      "start": 37.8702,
      "duration": 0.0979,
      "velocity": 127,
      "chip": "ym2612"
    },
    {
      "channel": 0,
      "note": 71,
      "start": 37.9678,
      "duration": 0.0814,
      "velocity": 91,
      "chip": "ym2612"
    },
    {
      "channel": 1,
      "note": 100,
      "start": 37.9679,
      "duration": 0.5075,
      "velocity": 103,
      "chip": "ym2612"
    },
    {
      "channel": 5,
      "note": 48,
      "start": 38.0691,
      "duration": 0.0302,
      "velocity": 101,
      "chip": "ym2612"
    },
    {
      "channel": 0,
      "note": 64,
      "start": 38.1673,
      "duration": 0.0818,
      "velocity": 91,
      "chip": "ym2612"
    },
    {
      "channel": 5,
      "note": 48,
      "start": 38.1675,
      "duration": 0.0319,
      "velocity": 101,
      "chip": "ym2612"
    },
    {
      "channel": 0,
      "note": 71,
      "start": 38.2701,
      "duration": 0.0791,
      "velocity": 91,
      "chip": "ym2612"
    },
    {
      "channel": 5,
      "note": 43,
      "start": 38.2702,
      "duration": 0.0964,
      "velocity": 127,
      "chip": "ym2612"
    },
    {
      "channel": 0,
      "note": 70,
      "start": 38.4754,
      "duration": 0.0738,
      "velocity": 91,
      "chip": "ym2612"
    },
    {
      "channel": 1,
      "note": 102,
      "start": 38.4755,
      "duration": 0.7951,
      "velocity": 103,
      "chip": "ym2612"
    },
    {
      "channel": 2,
      "note": 84,
      "start": 38.4756,
      "duration": 1.6063,
      "velocity": 117,
      "chip": "ym2612"
    },
    {
      "channel": 3,
      "note": 73,
      "start": 38.4757,
      "duration": 1.6062,
      "velocity": 117,
      "chip": "ym2612"
    },
    {
      "channel": 5,
      "note": 48,
      "start": 38.4757,
      "duration": 0.0569,
      "velocity": 101,
      "chip": "ym2612"
    },
    {
      "channel": 0,
      "note": 68,
      "start": 38.67,
      "duration": 0.0792,
      "velocity": 91,
      "chip": "ym2612"
    },
    {
      "channel": 5,
      "note": 43,
      "start": 38.6702,
      "duration": 0.097,
      "velocity": 127,
      "chip": "ym2612"
    },
    {
      "channel": 0,
      "note": 68,
      "start": 38.767,
      "duration": 0.0822,
      "velocity": 91,
      "chip": "ym2612"
    },
    {
      "channel": 5,
      "note": 48,
      "start": 38.8692,
      "duration": 0.0302,
      "velocity": 101,
      "chip": "ym2612"
    },
    {
      "channel": 0,
      "note": 61,
      "start": 38.9674,
      "duration": 0.0818,
      "velocity": 91,
      "chip": "ym2612"
    },
    {
      "channel": 5,
      "note": 48,
      "start": 38.9676,
      "duration": 0.0318,
      "velocity": 101,
      "chip": "ym2612"
    },
    {
      "channel": 0,
      "note": 68,
      "start": 39.0702,
      "duration": 0.0791,
      "velocity": 91,
      "chip": "ym2612"
    },
    {
      "channel": 5,
      "note": 43,
      "start": 39.0703,
      "duration": 0.0969,
      "velocity": 127,
      "chip": "ym2612"
    },
    {
      "channel": 0,
      "note": 68,
      "start": 39.167,
      "duration": 0.0822,
      "velocity": 91,
      "chip": "ym2612"
    },
    {
      "channel": 1,
      "note": 101,
      "start": 39.2707,
      "duration": 0.1978,
      "velocity": 103,
      "chip": "ym2612"
    },
    {
      "channel": 5,
      "note": 43,
      "start": 39.2707,
      "duration": 0.0453,
      "velocity": 127,
      "chip": "ym2612"
    },
    {
      "channel": 0,
      "note": 68,
      "start": 39.3679,
      "duration": 0.0814,
      "velocity": 91,
      "chip": "ym2612"
    },
    {
      "channel": 5,
      "note": 43,
      "start": 39.368,
      "duration": 0.048,
      "velocity": 127,
      "chip": "ym2612"
    },
    {
      "channel": 0,
      "note": 72,
      "start": 39.4684,
      "duration": 0.0808,
      "velocity": 91,
      "chip": "ym2612"
    },
    {
      "channel": 1,
      "note": 101,
      "start": 39.4685,
      "duration": 0.1007,
      "velocity": 103,
      "chip": "ym2612"
    },
    {
      "channel": 5,
      "note": 43,
      "start": 39.4686,
      "duration": 0.0473,
      "velocity": 127,
      "chip": "ym2612"
    },
    {
      "channel": 0,
      "note": 71,
      "start": 39.5691,
      "duration": 0.0801,
      "velocity": 91,
      "chip": "ym2612"
    },
    {
      "channel": 1,
      "note": 102,
      "start": 39.5693,
      "duration": 0.1992,
      "velocity": 103,
      "chip": "ym2612"
    },
    {
      "channel": 5,
      "note": 43,
      "start": 39.5693,
      "duration": 0.0467,
      "velocity": 127,
      "chip": "ym2612"
    },
    {
      "channel": 0,
      "note": 70,
      "start": 39.6678,
      "duration": 0.0814,
      "velocity": 91,
      "chip": "ym2612"
    },
    {
      "channel": 5,
      "note": 43,
      "start": 39.6679,
      "duration": 0.048,
      "velocity": 127,
      "chip": "ym2612"
    },
    {
      "channel": 0,
      "note": 69,
      "start": 39.7684,
      "duration": 0.0809,
      "velocity": 91,
      "chip": "ym2612"
    },
    {
      "channel": 1,
      "note": 102,
      "start": 39.7685,
      "duration": 0.1,
      "velocity": 103,
      "chip": "ym2612"
    },
    {
      "channel": 5,
      "note": 43,
      "start": 39.7685,
      "duration": 0.0475,
      "velocity": 127,
      "chip": "ym2612"
    },
    {
      "channel": 0,
      "note": 68,
      "start": 39.8685,
      "duration": 0.0807,
      "velocity": 91,
      "chip": "ym2612"
    },
    {
      "channel": 1,
      "note": 104,
      "start": 39.8686,
      "duration": 0.2131,
      "velocity": 117,
      "chip": "ym2612"
    },
    {
      "channel": 5,
      "note": 43,
      "start": 39.8687,
      "duration": 0.0473,
      "velocity": 127,
      "chip": "ym2612"
    },
    {
      "channel": 0,
      "note": 68,
      "start": 39.9679,
      "duration": 0.0814,
      "velocity": 91,
      "chip": "ym2612"
    },
    {
      "channel": 5,
      "note": 43,
      "start": 39.968,
      "duration": 0.048,
      "velocity": 127,
      "chip": "ym2612"
    },
    {
      "channel": 0,
      "note": 67,
      "start": 40.0817,
      "duration": 0.0842,
      "velocity": 91,
      "chip": "ym2612"
    },
    {
      "channel": 1,
      "note": 85,
      "start": 40.0818,
      "duration": 0.2058,
      "velocity": 117,
      "chip": "ym2612"
    },
    {
      "channel": 2,
      "note": 72,
      "start": 40.0819,
      "duration": 0.2058,
      "velocity": 117,
      "chip": "ym2612"
    },
    {
      "channel": 3,
      "note": 66,
      "start": 40.082,
      "duration": 0.2057,
      "velocity": 117,
      "chip": "ym2612"
    },
    {
      "channel": 5,
      "note": 48,
      "start": 40.082,
      "duration": 0.0672,
      "velocity": 101,
      "chip": "ym2612"
    },
    {
      "channel": 0,
      "note": 73,
      "start": 40.2875,
      "duration": 0.0784,
      "velocity": 91,
      "chip": "ym2612"
    },
    {
      "channel": 5,
      "note": 43,
      "start": 40.2878,
      "duration": 0.0961,
      "velocity": 127,
      "chip": "ym2612"
    },
    {
      "channel": 0,
      "note": 73,
      "start": 40.3837,
      "duration": 0.0822,
      "velocity": 91,
      "chip": "ym2612"
    },
    {
      "channel": 5,
      "note": 48,
      "start": 40.4858,
      "duration": 0.0302,
      "velocity": 101,
      "chip": "ym2612"
    },
    {
      "channel": 0,
      "note": 66,
      "start": 40.5841,
      "duration": 0.0818,
      "velocity": 91,
      "chip": "ym2612"
    },
    {
      "channel": 5,
      "note": 48,
      "start": 40.5842,
      "duration": 0.0318,
      "velocity": 101,
      "chip": "ym2612"
    }
  ]
}