{
  "track_name": "01 - Track 01",
  "duration_sec": 76.761,
  "sample_rate": 44100,
  "note_count": 910,
  "unique_pitches": 28,
  "pitch_range": 60,
  "avg_note_duration": 0.4535,
  "reconstruction_stats": {
    "notes_reconstructed": 910,
    "keyon_events": 910,
    "keyoff_events": 906,
    "orphan_keyons": 2,
    "unique_pitches": 28,
    "pitch_range": 60,
    "avg_duration_sec": 0.4535
  },
  "metadata": {
    "source": "J\\Janou Touryuumon\\01 - Track 01.vgz"
  },
  "notes": [
    {
      "channel": 0,
      "note": -1,
      "start": 0.0,
      "duration": 1.9768,
      "velocity": 94,
      "chip": "ym2612"
    },
    {
      "channel": 1,
      "note": -1,
      "start": 0.0016,
      "duration": 1.0579,
      "velocity": 105,
      "chip": "ym2612"
    },
    {
      "channel": 2,
      "note": -1,
      "start": 0.0063,
      "duration": 1.0535,
      "velocity": 93,
      "chip": "ym2612"
    },
    {
      "channel": 3,
      "note": -1,
      "start": 0.0109,
      "duration": 0.6889,
      "velocity": 109,
      "chip": "ym2612"
    },
    {
      "channel": 4,
      "note": -1,
      "start": 0.0152,
      "duration": 1.9627,
      "velocity": 81,
      "chip": "ym2612"
    },
    {
      "channel": 5,
      "note": -1,
      "start": 0.37,
      "duration": 0.3304,
      "velocity": 93,
      "chip": "ym2612"
    },
    {
      "channel": 3,
      "note": 45,
      "start": 0.7354,
      "duration": 0.3247,
      "velocity": 117,
      "chip": "ym2612"
    },
    {
      "channel": 5,
      "note": 64,
      "start": 0.7374,
      "duration": 0.3232,
      "velocity": 93,
      "chip": "ym2612"
    },
    {
      "channel": 1,
      "note": 57,
      "start": 1.0922,
      "duration": 0.7048,
      "velocity": 105,
      "chip": "ym2612"
    },
    {
      "channel": 2,
      "note": 57,
      "start": 1.0956,
      "duration": 1.4266,
      "velocity": 93,
      "chip": "ym2612"
    },
    {
      "channel": 3,
      "note": 105,
      "start": 1.099,
      "duration": 0.2119,
      "velocity": 73,
      "chip": "ym2612"
    },
    {
      "channel": 5,
      "note": 71,
      "start": 1.1007,
      "duration": 1.4218,
      "velocity": 93,
      "chip": "ym2612"
    },
    {
      "channel": 3,
      "note": 76,
      "start": 1.3443,
      "duration": 0.2099,
      "velocity": 73,
      "chip": "ym2612"
    },
    {
      "channel": 3,
      "note": 76,
      "start": 1.5874,
      "duration": 0.2101,
      "velocity": 73,
      "chip": "ym2612"
    },
    {
      "channel": 1,
      "note": 57,
      "start": 1.8219,
      "duration": 0.7002,
      "velocity": 105,
      "chip": "ym2612"
    },
    {
      "channel": 3,
      "note": 76,
      "start": 1.8256,
      "duration": 0.3305,
      "velocity": 109,
      "chip": "ym2612"
    },
    {
      "channel": 0,
      "note": 64,
      "start": 2.1881,
      "duration": 0.3339,
      "velocity": 94,
      "chip": "ym2612"
    },
    {
      "channel": 3,
      "note": 45,
      "start": 2.1896,
      "duration": 0.3327,
      "velocity": 109,
      "chip": "ym2612"
    },
    {
      "channel": 4,
      "note": 57,
      "start": 2.1906,
      "duration": 0.3319,
      "velocity": 81,
      "chip": "ym2612"
    },
    {
      "channel": 0,
      "note": 66,
      "start": 2.5467,
      "duration": 0.3358,
      "velocity": 94,
      "chip": "ym2612"
    },
    {
      "channel": 1,
      "note": 57,
      "start": 2.5476,
      "duration": 0.3349,
      "velocity": 105,
      "chip": "ym2612"
    },
    {
      "channel": 3,
      "note": 57,
      "start": 2.549,
      "duration": 0.3337,
      "velocity": 109,
      "chip": "ym2612"
    },
    {
      "channel": 4,
      "note": 59,
      "start": 2.5499,
      "duration": 0.3329,
      "velocity": 81,
      "chip": "ym2612"
    },
    {
      "channel": 5,
      "note": 73,
      "start": 2.5514,
      "duration": 0.7044,
      "velocity": 93,
      "chip": "ym2612"
    },
    {
      "channel": 0,
      "note": 69,
      "start": 2.9153,
      "duration": 1.6057,
      "velocity": 94,
      "chip": "ym2612"
    },
    {
      "channel": 1,
      "note": 57,
      "start": 2.916,
      "duration": 1.0623,
      "velocity": 105,
      "chip": "ym2612"
    },
    {
      "channel": 2,
      "note": 69,
      "start": 2.9196,
      "duration": 1.0589,
      "velocity": 93,
      "chip": "ym2612"
    },
    {
      "channel": 3,
      "note": 52,
      "start": 2.923,
      "duration": 0.6889,
      "velocity": 109,
      "chip": "ym2612"
    },
    {
      "channel": 4,
      "note": 61,
      "start": 2.9237,
      "duration": 1.5975,
      "velocity": 81,
      "chip": "ym2612"
    },
    {
      "channel": 5,
      "note": 64,
      "start": 3.2792,
      "duration": 0.3332,
      "velocity": 93,
      "chip": "ym2612"
    },
    {
      "channel": 3,
      "note": 45,
      "start": 3.6471,
      "duration": 0.3315,
      "velocity": 1,
      "chip": "ym2612"
    },
    {
      "channel": 5,
      "note": 64,
      "start": 3.6488,
      "duration": 0.33,
      "velocity": 93,
      "chip": "ym2612"
    },
    {
      "channel": 1,
      "note": 57,
      "start": 4.0032,
      "duration": 0.7043,
      "velocity": 105,
      "chip": "ym2612"
    },
    {
      "channel": 2,
      "note": 57,
      "start": 4.0066,
      "duration": 1.4286,
      "velocity": 93,
      "chip": "ym2612"
    },
    {
      "channel": 3,
      "note": 105,
      "start": 4.01,
      "duration": 0.2123,
      "velocity": 73,
      "chip": "ym2612"
    },
    {
      "channel": 5,
      "note": 71,
      "start": 4.0116,
      "duration": 1.4239,
      "velocity": 93,
      "chip": "ym2612"
    },
    {
      "channel": 3,
      "note": 76,
      "start": 4.2555,
      "duration": 0.2097,
      "velocity": 73,
      "chip": "ym2612"
    },
    {
      "channel": 3,
      "note": 76,
      "start": 4.4984,
      "duration": 0.2097,
      "velocity": 73,
      "chip": "ym2612"
    },
    {
      "channel": 0,
      "note": 64,
      "start": 4.7322,
      "duration": 0.3361,
      "velocity": 94,
      "chip": "ym2612"
    },
    {
      "channel": 1,
      "note": 57,
      "start": 4.7329,
      "duration": 0.7022,
      "velocity": 105,
      "chip": "ym2612"
    },
    {
      "channel": 3,
      "note": 76,
      "start": 4.7369,
      "duration": 0.3322,
      "velocity": 109,
      "chip": "ym2612"
    },
    {
      "channel": 4,
      "note": 59,
      "start": 4.7377,
      "duration": 0.3317,
      "velocity": 81,
      "chip": "ym2612"
    },
    {
      "channel": 0,
      "note": 57,
      "start": 5.1011,
      "duration": 0.692,
      "velocity": 94,
      "chip": "ym2612"
    },
    {
      "channel": 3,
      "note": 45,
      "start": 5.1028,
      "duration": 0.3325,
      "velocity": 109,
      "chip": "ym2612"
    },
    {
      "channel": 4,
      "note": 54,
      "start": 5.1038,
      "duration": 0.6898,
      "velocity": 81,
      "chip": "ym2612"
    },
    {
      "channel": 1,
      "note": 52,
      "start": 5.4599,
      "duration": 0.3333,
      "velocity": 105,
      "chip": "ym2612"
    },
    {
      "channel": 3,
      "note": 52,
      "start": 5.4613,
      "duration": 0.3321,
      "velocity": 109,
      "chip": "ym2612"
    },
    {
      "channel": 5,
      "note": 76,
      "start": 5.4626,
      "duration": 0.7034,
      "velocity": 93,
      "chip": "ym2612"
    },
    {
      "channel": 0,
      "note": 59,
      "start": 5.8259,
      "duration": 1.9729,
      "velocity": 94,
      "chip": "ym2612"
    },
    {
      "channel": 1,
      "note": 52,
      "start": 5.8267,
      "duration": 1.0625,
      "velocity": 105,
      "chip": "ym2612"
    },
    {
      "channel": 2,
      "note": 73,
      "start": 5.8299,
      "duration": 1.0594,
      "velocity": 93,
      "chip": "ym2612"
    },
    {
      "channel": 3,
      "note": 57,
      "start": 5.8334,
      "duration": 0.6885,
      "velocity": 109,
      "chip": "ym2612"
    },
    {
      "channel": 4,
      "note": 56,
      "start": 5.8342,
      "duration": 1.9656,
      "velocity": 81,
      "chip": "ym2612"
    },
    {
      "channel": 5,
      "note": 64,
      "start": 6.1991,
      "duration": 0.3234,
      "velocity": 93,
      "chip": "ym2612"
    },
    {
      "channel": 3,
      "note": 45,
      "start": 6.5573,
      "duration": 0.3321,
      "velocity": 117,
      "chip": "ym2612"
    },
    {
      "channel": 5,
      "note": 64,
      "start": 6.5594,
      "duration": 0.3302,
      "velocity": 93,
      "chip": "ym2612"
    },
    {
      "channel": 1,
      "note": 57,
      "start": 6.9219,
      "duration": 0.6949,
      "velocity": 105,
      "chip": "ym2612"
    },
    {
      "channel": 2,
      "note": 57,
      "start": 6.925,
      "duration": 1.4195,
      "velocity": 93,
      "chip": "ym2612"
    },
    {
      "channel": 3,
      "note": 105,
      "start": 6.9282,
      "duration": 0.2101,
      "velocity": 73,
      "chip": "ym2612"
    },
    {
      "channel": 5,
      "note": 71,
      "start": 6.9295,
      "duration": 1.4155,
      "velocity": 93,
      "chip": "ym2612"
    },
    {
      "channel": 3,
      "note": 76,
      "start": 7.164,
      "duration": 0.2099,
      "velocity": 73,
      "chip": "ym2612"
    },
    {
      "channel": 3,
      "note": 76,
      "start": 7.4074,
      "duration": 0.2099,
      "velocity": 73,
      "chip": "ym2612"
    },
    {
      "channel": 1,
      "note": 57,
      "start": 7.6499,
      "duration": 0.6945,
      "velocity": 105,
      "chip": "ym2612"
    },
    {
      "channel": 3,
      "note": 76,
      "start": 7.6543,
      "duration": 0.3239,
      "velocity": 109,
      "chip": "ym2612"
    },
    {
      "channel": 0,
      "note": 64,
      "start": 8.0102,
      "duration": 0.3341,
      "velocity": 94,
      "chip": "ym2612"
    },
    {
      "channel": 3,
      "note": 45,
      "start": 8.0117,
      "duration": 0.3329,
      "velocity": 109,
      "chip": "ym2612"
    },
    {
      "channel": 4,
      "note": 57,
      "start": 8.0127,
      "duration": 0.3321,
      "velocity": 81,
      "chip": "ym2612"
    },
    {
      "channel": 0,
      "note": 66,
      "start": 8.3773,
      "duration": 0.3251,
      "velocity": 94,
      "chip": "ym2612"
    },
    {
      "channel": 1,
      "note": 57,
      "start": 8.378,
      "duration": 0.3245,
      "velocity": 105,
      "chip": "ym2612"
    },
    {
      "channel": 3,
      "note": 57,
      "start": 8.3789,
      "duration": 0.3238,
      "velocity": 109,
      "chip": "ym2612"
    },
    {
      "channel": 4,
      "note": 59,
      "start": 8.3796,
      "duration": 0.3232,
      "velocity": 81,
      "chip": "ym2612"
    },
    {
      "channel": 5,
      "note": 73,
      "start": 8.3805,
      "duration": 0.6945,
      "velocity": 93,
      "chip": "ym2612"
    },
    {
      "channel": 0,
      "note": 69,
      "start": 8.7355,
      "duration": 1.2471,
      "velocity": 94,
      "chip": "ym2612"
    },
    {
      "channel": 1,
      "note": 57,
      "start": 8.7362,
      "duration": 1.0619,
      "velocity": 105,
      "chip": "ym2612"
    },
    {
      "channel": 2,
      "note": 69,
      "start": 8.7395,
      "duration": 1.0588,
      "velocity": 93,
      "chip": "ym2612"
    },
    {
      "channel": 3,
      "note": 52,
      "start": 8.7429,
      "duration": 0.6882,
      "velocity": 109,
      "chip": "ym2612"
    },
    {
      "channel": 4,
      "note": 61,
      "start": 8.7435,
      "duration": 1.2398,
      "velocity": 81,
      "chip": "ym2612"
    },
    {
      "channel": 5,
      "note": 64,
      "start": 9.1078,
      "duration": 0.3238,
      "velocity": 93,
      "chip": "ym2612"
    },
    {
      "channel": 3,
      "note": 45,
      "start": 9.4661,
      "duration": 0.3323,
      "velocity": 1,
      "chip": "ym2612"
    },
    {
      "channel": 5,
      "note": 64,
      "start": 9.4682,
      "duration": 0.3304,
      "velocity": 93,
      "chip": "ym2612"
    },
    {
      "channel": 1,
      "note": 57,
      "start": 9.8311,
      "duration": 0.6956,
      "velocity": 105,
      "chip": "ym2612"
    },
    {
      "channel": 2,
      "note": 57,
      "start": 9.8343,
      "duration": 1.4182,
      "velocity": 93,
      "chip": "ym2612"
    },
    {
      "channel": 3,
      "note": 105,
      "start": 9.8377,
      "duration": 0.2103,
      "velocity": 73,
      "chip": "ym2612"
    },
    {
      "channel": 5,
      "note": 71,
      "start": 9.8389,
      "duration": 1.4139,
      "velocity": 93,
      "chip": "ym2612"
    },
    {
      "channel": 3,
      "note": 76,
      "start": 10.0736,
      "duration": 0.2099,
      "velocity": 73,
      "chip": "ym2612"
    },
    {
      "channel": 0,
      "note": 73,
      "start": 10.1939,
      "duration": 0.8801,
      "velocity": 94,
      "chip": "ym2612"
    },
    {
      "channel": 4,
      "note": 64,
      "start": 10.1948,
      "duration": 0.8795,
      "velocity": 81,
      "chip": "ym2612"
    },
    {
      "channel": 3,
      "note": 76,
      "start": 10.3168,
      "duration": 0.2105,
      "velocity": 73,
      "chip": "ym2612"
    },
    {
      "channel": 1,
      "note": 64,
      "start": 10.5595,
      "duration": 0.6929,
      "velocity": 105,
      "chip": "ym2612"
    },
    {
      "channel": 3,
      "note": 76,
      "start": 10.5636,
      "duration": 0.3314,
      "velocity": 109,
      "chip": "ym2612"
    },
    {
      "channel": 3,
      "note": 45,
      "start": 10.9204,
      "duration": 0.0326,
      "velocity": 109,
      "chip": "ym2612"
    },
    {
      "channel": 3,
      "note": 52,
      "start": 10.953,
      "duration": 0.2996,
      "velocity": 109,
      "chip": "ym2612"
    },
    {
      "channel": 0,
      "note": 71,
      "start": 11.2885,
      "duration": 0.3349,
      "velocity": 95,
      "chip": "ym2612"
    },
    {
      "channel": 1,
      "note": 52,
      "start": 11.2892,
      "duration": 0.3345,
      "velocity": 105,
      "chip": "ym2612"
    },
    {
      "channel": 3,
      "note": 57,
      "start": 11.2902,
      "duration": 0.3341,
      "velocity": 109,
      "chip": "ym2612"
    },
    {
      "channel": 5,
      "note": 76,
      "start": 11.2912,
      "duration": 0.3337,
      "velocity": 93,
      "chip": "ym2612"
    },
    {
      "channel": 4,
      "note": 66,
      "start": 11.5285,
      "duration": 0.3356,
      "velocity": 95,
      "chip": "ym2612"
    },
    {
      "channel": 0,
      "note": 88,
      "start": 11.6481,
      "duration": 0.5157,
      "velocity": 95,
      "chip": "ym2612"
    },
    {
      "channel": 1,
      "note": 52,
      "start": 11.6489,
      "duration": 1.0612,
      "velocity": 105,
      "chip": "ym2612"
    },
    {
      "channel": 2,
      "note": 73,
      "start": 11.6524,
      "duration": 1.0578,
      "velocity": 93,
      "chip": "ym2612"
    },
    {
      "channel": 3,
      "note": 45,
      "start": 11.6559,
      "duration": 0.6952,
      "velocity": 109,
      "chip": "ym2612"
    },
    {
      "channel": 4,
      "note": 88,
      "start": 11.8968,
      "duration": 0.5151,
      "velocity": 95,
      "chip": "ym2612"
    },
    {
      "channel": 5,
      "note": 64,
      "start": 12.0202,
      "duration": 0.3313,
      "velocity": 93,
      "chip": "ym2612"
    },
    {
      "channel": 0,
      "note": 92,
      "start": 12.1967,
      "duration": 0.0319,
      "velocity": 95,
      "chip": "ym2612"
    },
    {
      "channel": 0,
      "note": 90,
      "start": 12.2615,
      "duration": 0.0567,
      "velocity": 95,
      "chip": "ym2612"
    },
    {
      "channel": 0,
      "note": 88,
      "start": 12.3507,
      "duration": 1.4234,
      "velocity": 95,
      "chip": "ym2612"
    },
    {
      "channel": 3,
      "note": 45,
      "start": 12.3785,
      "duration": 0.3319,
      "velocity": 117,
      "chip": "ym2612"
    },
    {
      "channel": 5,
      "note": 64,
      "start": 12.3806,
      "duration": 0.33,
      "velocity": 93,
      "chip": "ym2612"
    },
    {
      "channel": 4,
      "note": 92,
      "start": 12.445,
      "duration": 0.0318,
      "velocity": 95,
      "chip": "ym2612"
    },
    {
      "channel": 4,
      "note": 90,
      "start": 12.5002,
      "duration": 0.0641,
      "velocity": 95,
      "chip": "ym2612"
    },
    {
      "channel": 4,
      "note": 88,
      "start": 12.5904,
      "duration": 1.4272,
      "velocity": 95,
      "chip": "ym2612"
    },
    {
      "channel": 1,
      "note": 57,
      "start": 12.7432,
      "duration": 0.6954,
      "velocity": 105,
      "chip": "ym2612"
    },
    {
      "channel": 2,
      "note": 57,
      "start": 12.7464,
      "duration": 1.4171,
      "velocity": 93,
      "chip": "ym2612"
    },
    {
      "channel": 3,
      "note": 105,
      "start": 12.7496,
      "duration": 0.2098,
      "velocity": 73,
      "chip": "ym2612"
    },
    {
      "channel": 5,
      "note": 71,
      "start": 12.7509,
      "duration": 1.413,
      "velocity": 93,
      "chip": "ym2612"
    },
    {
      "channel": 3,
      "note": 76,
      "start": 12.9927,
      "duration": 0.2097,
      "velocity": 73,
      "chip": "ym2612"
    },
    {
      "channel": 3,
      "note": 76,
      "start": 13.2285,
      "duration": 0.2107,
      "velocity": 73,
      "chip": "ym2612"
    },
    {
      "channel": 1,
      "note": 57,
      "start": 13.4714,
      "duration": 0.692,
      "velocity": 105,
      "chip": "ym2612"
    },
    {
      "channel": 3,
      "note": 76,
      "start": 13.4756,
      "duration": 0.3316,
      "velocity": 109,
      "chip": "ym2612"
    },
    {
      "channel": 0,
      "note": 85,
      "start": 13.8068,
      "duration": 0.5672,
      "velocity": 95,
      "chip": "ym2612"
    },
    {
      "channel": 3,
      "note": 45,
      "start": 13.8319,
      "duration": 0.3317,
      "velocity": 109,
      "chip": "ym2612"
    },
    {
      "channel": 4,
      "note": 85,
      "start": 14.0432,
      "duration": 0.5829,
      "velocity": 95,
      "chip": "ym2612"
    },
    {
      "channel": 1,
      "note": 57,
      "start": 14.1961,
      "duration": 0.3322,
      "velocity": 105,
      "chip": "ym2612"
    },
    {
      "channel": 3,
      "note": 57,
      "start": 14.1971,
      "duration": 0.3319,
      "velocity": 109,
      "chip": "ym2612"
    },
    {
      "channel": 5,
      "note": 73,
      "start": 14.1979,
      "duration": 0.6971,
      "velocity": 93,
      "chip": "ym2612"
    },
    {
      "channel": 0,
      "note": 90,
      "start": 14.4067,
      "duration": 0.0323,
      "velocity": 95,
      "chip": "ym2612"
    },
    {
      "channel": 0,
      "note": 88,
      "start": 14.4637,
      "duration": 0.0643,
      "velocity": 95,
      "chip": "ym2612"
    },
    {
      "channel": 0,
      "note": 85,
      "start": 14.5609,
      "duration": 2.1506,
      "velocity": 95,
      "chip": "ym2612"
    },
    {
      "channel": 1,
      "note": 57,
      "start": 14.5618,
      "duration": 1.054,
      "velocity": 105,
      "chip": "ym2612"
    },
    {
      "channel": 2,
      "note": 69,
      "start": 14.5652,
      "duration": 1.0507,
      "velocity": 93,
      "chip": "ym2612"
    },
    {
      "channel": 3,
      "note": 52,
      "start": 14.5692,
      "duration": 0.6893,
      "velocity": 109,
      "chip": "ym2612"
    },
    {
      "channel": 4,
      "note": 90,
      "start": 14.6588,
      "duration": 0.0248,
      "velocity": 95,
      "chip": "ym2612"
    },
    {
      "channel": 4,
      "note": 88,
      "start": 14.7164,
      "duration": 0.0557,
      "velocity": 95,
      "chip": "ym2612"
    },
    {
      "channel": 4,
      "note": 85,
      "start": 14.8049,
      "duration": 2.15,
      "velocity": 95,
      "chip": "ym2612"
    },
    {
      "channel": 5,
      "note": 64,
      "start": 14.928,
      "duration": 0.3307,
      "velocity": 93,
      "chip": "ym2612"
    },
    {
      "channel": 3,
      "note": 45,
      "start": 15.2935,
      "duration": 0.3225,
      "velocity": 1,
      "chip": "ym2612"
    },
    {
      "channel": 5,
      "note": 64,
      "start": 15.2948,
      "duration": 0.3214,
      "velocity": 93,
      "chip": "ym2612"
    },
    {
      "channel": 1,
      "note": 57,
      "start": 15.6484,
      "duration": 0.6954,
      "velocity": 105,
      "chip": "ym2612"
    },
    {
      "channel": 2,
      "note": 57,
      "start": 15.652,
      "duration": 1.4165,
      "velocity": 93,
      "chip": "ym2612"
    },
    {
      "channel": 3,
      "note": 105,
      "start": 15.6551,
      "duration": 0.2096,
      "velocity": 73,
      "chip": "ym2612"
    },
    {
      "channel": 5,
      "note": 71,
      "start": 15.6563,
      "duration": 1.4124,
      "velocity": 93,
      "chip": "ym2612"
    },
    {
      "channel": 3,
      "note": 76,
      "start": 15.8982,
      "duration": 0.2097,
      "velocity": 73,
      "chip": "ym2612"
    },
    {
      "channel": 3,
      "note": 76,
      "start": 16.1339,
      "duration": 0.2104,
      "velocity": 73,
      "chip": "ym2612"
    },
    {
      "channel": 1,
      "note": 57,
      "start": 16.3769,
      "duration": 0.6914,
      "velocity": 105,
      "chip": "ym2612"
    },
    {
      "channel": 3,
      "note": 76,
      "start": 16.381,
      "duration": 0.3307,
      "velocity": 109,
      "chip": "ym2612"
    },
    {
      "channel": 0,
      "note": 83,
      "start": 16.7441,
      "duration": 0.3887,
      "velocity": 95,
      "chip": "ym2612"
    },
    {
      "channel": 3,
      "note": 45,
      "start": 16.7449,
      "duration": 0.3236,
      "velocity": 109,
      "chip": "ym2612"
    },
    {
      "channel": 4,
      "note": 83,
      "start": 16.9804,
      "duration": 0.4534,
      "velocity": 95,
      "chip": "ym2612"
    },
    {
      "channel": 1,
      "note": 52,
      "start": 17.1011,
      "duration": 0.3318,
      "velocity": 105,
      "chip": "ym2612"
    },
    {
      "channel": 3,
      "note": 52,
      "start": 17.1023,
      "duration": 0.3312,
      "velocity": 109,
      "chip": "ym2612"
    },
    {
      "channel": 5,
      "note": 76,
      "start": 17.1032,
      "duration": 0.6971,
      "velocity": 93,
      "chip": "ym2612"
    },
    {
      "channel": 0,
      "note": 85,
      "start": 17.2224,
      "duration": 0.0889,
      "velocity": 95,
      "chip": "ym2612"
    },
    {
      "channel": 0,
      "note": 83,
      "start": 17.3439,
      "duration": 0.0887,
      "velocity": 95,
      "chip": "ym2612"
    },
    {
      "channel": 0,
      "note": 81,
      "start": 17.4657,
      "duration": 0.698,
      "velocity": 95,
      "chip": "ym2612"
    },
    {
      "channel": 1,
      "note": 52,
      "start": 17.4666,
      "duration": 1.0636,
      "velocity": 105,
      "chip": "ym2612"
    },
    {
      "channel": 2,
      "note": 73,
      "start": 17.4705,
      "duration": 1.0602,
      "velocity": 93,
      "chip": "ym2612"
    },
    {
      "channel": 3,
      "note": 57,
      "start": 17.4741,
      "duration": 0.6898,
      "velocity": 109,
      "chip": "ym2612"
    },
    {
      "channel": 4,
      "note": 85,
      "start": 17.475,
      "duration": 0.0889,
      "velocity": 95,
      "chip": "ym2612"
    },
    {
      "channel": 4,
      "note": 83,
      "start": 17.5967,
      "duration": 0.0895,
      "velocity": 95,
      "chip": "ym2612"
    },
    {
      "channel": 4,
      "note": 81,
      "start": 17.7104,
      "duration": 0.6986,
      "velocity": 95,
      "chip": "ym2612"
    },
    {
      "channel": 5,
      "note": 64,
      "start": 17.8332,
      "duration": 0.3309,
      "velocity": 93,
      "chip": "ym2612"
    },
    {
      "channel": 0,
      "note": 78,
      "start": 18.1965,
      "duration": 3.6008,
      "velocity": 95,
      "chip": "ym2612"
    },
    {
      "channel": 3,
      "note": 45,
      "start": 18.1998,
      "duration": 0.3311,
      "velocity": 117,
      "chip": "ym2612"
    },
    {
      "channel": 5,
      "note": 64,
      "start": 18.2014,
      "duration": 0.3301,
      "velocity": 93,
      "chip": "ym2612"
    },
    {
      "channel": 4,
      "note": 78,
      "start": 18.4351,
      "duration": 3.6066,
      "velocity": 95,
      "chip": "ym2612"
    },
    {
      "channel": 1,
      "note": 57,
      "start": 18.5549,
      "duration": 0.7025,
      "velocity": 105,
      "chip": "ym2612"
    },
    {
      "channel": 2,
      "note": 57,
      "start": 18.558,
      "duration": 1.4254,
      "velocity": 93,
      "chip": "ym2612"
    },
    {
      "channel": 3,
      "note": 105,
      "start": 18.5612,
      "duration": 0.2093,
      "velocity": 73,
      "chip": "ym2612"
    },
    {
      "channel": 5,
      "note": 71,
      "start": 18.5624,
      "duration": 1.4225,
      "velocity": 93,
      "chip": "ym2612"
    },
    {
      "channel": 3,
      "note": 76,
      "start": 18.8037,
      "duration": 0.2102,
      "velocity": 73,
      "chip": "ym2612"
    },
    {
      "channel": 3,
      "note": 76,
      "start": 19.0471,
      "duration": 0.2104,
      "velocity": 73,
      "chip": "ym2612"
    },
    {
      "channel": 1,
      "note": 57,
      "start": 19.2825,
      "duration": 0.7006,
      "velocity": 105,
      "chip": "ym2612"
    },
    {
      "channel": 3,
      "note": 76,
      "start": 19.2869,
      "duration": 0.3316,
      "velocity": 109,
      "chip": "ym2612"
    },
    {
      "channel": 3,
      "note": 45,
      "start": 19.6516,
      "duration": 0.3321,
      "velocity": 109,
      "chip": "ym2612"
    },
    {
      "channel": 1,
      "note": 57,
      "start": 20.0072,
      "duration": 0.3319,
      "velocity": 105,
      "chip": "ym2612"
    },
    {
      "channel": 3,
      "note": 57,
      "start": 20.0083,
      "duration": 0.3315,
      "velocity": 109,
      "chip": "ym2612"
    },
    {
      "channel": 5,
      "note": 73,
      "start": 20.0091,
      "duration": 0.7027,
      "velocity": 93,
      "chip": "ym2612"
    },
    {
      "channel": 1,
      "note": 57,
      "start": 20.3724,
      "duration": 1.0625,
      "velocity": 105,
      "chip": "ym2612"
    },
    {
      "channel": 2,
      "note": 69,
      "start": 20.3759,
      "duration": 1.0594,
      "velocity": 93,
      "chip": "ym2612"
    },
    {
      "channel": 3,
      "note": 52,
      "start": 20.3795,
      "duration": 0.689,
      "velocity": 109,
      "chip": "ym2612"
    },
    {
      "channel": 5,
      "note": 64,
      "start": 20.7383,
      "duration": 0.3304,
      "velocity": 93,
      "chip": "ym2612"
    },
    {
      "channel": 3,
      "note": 45,
      "start": 21.104,
      "duration": 0.3316,
      "velocity": 1,
      "chip": "ym2612"
    },
    {
      "channel": 5,
      "note": 64,
      "start": 21.1053,
      "duration": 0.3312,
      "velocity": 93,
      "chip": "ym2612"
    },
    {
      "channel": 1,
      "note": 57,
      "start": 21.459,
      "duration": 0.7038,
      "velocity": 105,
      "chip": "ym2612"
    },
    {
      "channel": 2,
      "note": 57,
      "start": 21.4622,
      "duration": 1.4256,
      "velocity": 93,
      "chip": "ym2612"
    },
    {
      "channel": 3,
      "note": 105,
      "start": 21.4654,
      "duration": 0.2112,
      "velocity": 73,
      "chip": "ym2612"
    },
    {
      "channel": 5,
      "note": 71,
      "start": 21.4666,
      "duration": 1.4221,
      "velocity": 93,
      "chip": "ym2612"
    },
    {
      "channel": 3,
      "note": 76,
      "start": 21.7093,
      "duration": 0.2099,
      "velocity": 73,
      "chip": "ym2612"
    },
    {
      "channel": 3,
      "note": 76,
      "start": 21.9527,
      "duration": 0.2104,
      "velocity": 73,
      "chip": "ym2612"
    },
    {
      "channel": 1,
      "note": 69,
      "start": 22.1878,
      "duration": 0.6997,
      "velocity": 105,
      "chip": "ym2612"
    },
    {
      "channel": 3,
      "note": 76,
      "start": 22.1918,
      "duration": 0.3313,
      "velocity": 109,
      "chip": "ym2612"
    },
    {
      "channel": 3,
      "note": 45,
      "start": 22.5558,
      "duration": 0.3322,
      "velocity": 109,
      "chip": "ym2612"
    },
    {
      "channel": 0,
      "note": 76,
      "start": 22.9201,
      "duration": 0.3252,
      "velocity": 95,
      "chip": "ym2612"
    },
    {
      "channel": 1,
      "note": 52,
      "start": 22.921,
      "duration": 0.3246,
      "velocity": 105,
      "chip": "ym2612"
    },
    {
      "channel": 3,
      "note": 52,
      "start": 22.9224,
      "duration": 0.3238,
      "velocity": 109,
      "chip": "ym2612"
    },
    {
      "channel": 5,
      "note": 76,
      "start": 22.9238,
      "duration": 0.6956,
      "velocity": 93,
      "chip": "ym2612"
    },
    {
      "channel": 4,
      "note": 76,
      "start": 23.157,
      "duration": 0.3415,
      "velocity": 95,
      "chip": "ym2612"
    },
    {
      "channel": 0,
      "note": 85,
      "start": 23.2782,
      "duration": 0.341,
      "velocity": 95,
      "chip": "ym2612"
    },
    {
      "channel": 1,
      "note": 52,
      "start": 23.2791,
      "duration": 1.0624,
      "velocity": 105,
      "chip": "ym2612"
    },
    {
      "channel": 2,
      "note": 73,
      "start": 23.2826,
      "duration": 1.4218,
      "velocity": 93,
      "chip": "ym2612"
    },
    {
      "channel": 3,
      "note": 57,
      "start": 23.2866,
      "duration": 0.689,
      "velocity": 109,
      "chip": "ym2612"
    },
    {
      "channel": 4,
      "note": 85,
      "start": 23.5315,
      "duration": 0.3306,
      "velocity": 95,
      "chip": "ym2612"
    },
    {
      "channel": 0,
      "note": 86,
      "start": 23.6521,
      "duration": 0.3233,
      "velocity": 95,
      "chip": "ym2612"
    },
    {
      "channel": 5,
      "note": 64,
      "start": 23.6531,
      "duration": 0.3227,
      "velocity": 93,
      "chip": "ym2612"
    },
    {
      "channel": 4,
      "note": 86,
      "start": 23.888,
      "duration": 0.3321,
      "velocity": 95,
      "chip": "ym2612"
    },
    {
      "channel": 0,
      "note": 85,
      "start": 24.0082,
      "duration": 0.333,
      "velocity": 95,
      "chip": "ym2612"
    },
    {
      "channel": 3,
      "note": 45,
      "start": 24.0115,
      "duration": 0.3308,
      "velocity": 117,
      "chip": "ym2612"
    },
    {
      "channel": 5,
      "note": 66,
      "start": 24.0128,
      "duration": 0.3303,
      "velocity": 93,
      "chip": "ym2612"
    },
    {
      "channel": 4,
      "note": 85,
      "start": 24.2528,
      "duration": 0.3389,
      "velocity": 95,
      "chip": "ym2612"
    },
    {
      "channel": 0,
      "note": 83,
      "start": 24.3741,
      "duration": 0.3298,
      "velocity": 95,
      "chip": "ym2612"
    },
    {
      "channel": 1,
      "note": 59,
      "start": 24.375,
      "duration": 0.695,
      "velocity": 105,
      "chip": "ym2612"
    },
    {
      "channel": 3,
      "note": 105,
      "start": 24.379,
      "duration": 0.2124,
      "velocity": 73,
      "chip": "ym2612"
    },
    {
      "channel": 5,
      "note": 71,
      "start": 24.3806,
      "duration": 0.6898,
      "velocity": 93,
      "chip": "ym2612"
    },
    {
      "channel": 3,
      "note": 76,
      "start": 24.6157,
      "duration": 0.2109,
      "velocity": 73,
      "chip": "ym2612"
    },
    {
      "channel": 4,
      "note": 83,
      "start": 24.6164,
      "duration": 0.3326,
      "velocity": 95,
      "chip": "ym2612"
    },
    {
      "channel": 0,
      "note": 81,
      "start": 24.7367,
      "duration": 2.5073,
      "velocity": 95,
      "chip": "ym2612"
    },
    {
      "channel": 2,
      "note": 59,
      "start": 24.738,
      "duration": 0.6902,
      "velocity": 93,
      "chip": "ym2612"
    },
    {
      "channel": 3,
      "note": 76,
      "start": 24.8598,
      "duration": 0.2104,
      "velocity": 73,
      "chip": "ym2612"
    },
    {
      "channel": 4,
      "note": 81,
      "start": 24.9821,
      "duration": 2.5125,
      "velocity": 95,
      "chip": "ym2612"
    },
    {
      "channel": 1,
      "note": 59,
      "start": 25.1028,
      "duration": 0.6903,
      "velocity": 105,
      "chip": "ym2612"
    },
    {
      "channel": 3,
      "note": 76,
      "start": 25.1065,
      "duration": 0.3219,
      "velocity": 109,
      "chip": "ym2612"
    },
    {
      "channel": 5,
      "note": 73,
      "start": 25.1072,
      "duration": 0.6876,
      "velocity": 93,
      "chip": "ym2612"
    },
    {
      "channel": 2,
      "note": 74,
      "start": 25.461,
      "duration": 0.6905,
      "velocity": 93,
      "chip": "ym2612"
    },
    {
      "channel": 3,
      "note": 45,
      "start": 25.4617,
      "duration": 0.3322,
      "velocity": 109,
      "chip": "ym2612"
    },
    {
      "channel": 1,
      "note": 59,
      "start": 25.8259,
      "duration": 0.3249,
      "velocity": 105,
      "chip": "ym2612"
    },
    {
      "channel": 3,
      "note": 57,
      "start": 25.8275,
      "duration": 0.3244,
      "velocity": 109,
      "chip": "ym2612"
    },
    {
      "channel": 5,
      "note": 73,
      "start": 25.829,
      "duration": 0.6938,
      "velocity": 93,
      "chip": "ym2612"
    },
    {
      "channel": 1,
      "note": 59,
      "start": 26.1851,
      "duration": 1.0592,
      "velocity": 105,
      "chip": "ym2612"
    },
    {
      "channel": 2,
      "note": 71,
      "start": 26.1861,
      "duration": 1.4287,
      "velocity": 93,
      "chip": "ym2612"
    },
    {
      "channel": 3,
      "note": 52,
      "start": 26.1897,
      "duration": 0.6982,
      "velocity": 109,
      "chip": "ym2612"
    },
    {
      "channel": 5,
      "note": 66,
      "start": 26.5554,
      "duration": 0.3334,
      "velocity": 93,
      "chip": "ym2612"
    },
    {
      "channel": 3,
      "note": 45,
      "start": 26.9138,
      "duration": 0.3313,
      "velocity": 1,
      "chip": "ym2612"
    },
    {
      "channel": 5,
      "note": 66,
      "start": 26.9151,
      "duration": 0.3308,
      "velocity": 93,
      "chip": "ym2612"
    },
    {
      "channel": 0,
      "note": 83,
      "start": 27.2769,
      "duration": 0.3377,
      "velocity": 95,
      "chip": "ym2612"
    },
    {
      "channel": 1,
      "note": 59,
      "start": 27.2779,
      "duration": 0.6945,
      "velocity": 105,
      "chip": "ym2612"
    },
    {
      "channel": 3,
      "note": 105,
      "start": 27.2817,
      "duration": 0.2126,
      "velocity": 73,
      "chip": "ym2612"
    },
    {
      "channel": 5,
      "note": 71,
      "start": 27.2837,
      "duration": 0.6891,
      "velocity": 93,
      "chip": "ym2612"
    },
    {
      "channel": 3,
      "note": 76,
      "start": 27.5193,
      "duration": 0.2095,
      "velocity": 73,
      "chip": "ym2612"
    },
    {
      "channel": 4,
      "note": 83,
      "start": 27.52,
      "duration": 0.3317,
      "velocity": 95,
      "chip": "ym2612"
    },
    {
      "channel": 0,
      "note": 85,
      "start": 27.6395,
      "duration": 0.3328,
      "velocity": 95,
      "chip": "ym2612"
    },
    {
      "channel": 2,
      "note": 59,
      "start": 27.6407,
      "duration": 0.6992,
      "velocity": 93,
      "chip": "ym2612"
    },
    {
      "channel": 3,
      "note": 76,
      "start": 27.7619,
      "duration": 0.2108,
      "velocity": 73,
      "chip": "ym2612"
    },
    {
      "channel": 4,
      "note": 85,
      "start": 27.8842,
      "duration": 0.3343,
      "velocity": 95,
      "chip": "ym2612"
    },
    {
      "channel": 0,
      "note": 86,
      "start": 28.0051,
      "duration": 0.3343,
      "velocity": 95,
      "chip": "ym2612"
    },
    {
      "channel": 1,
      "note": 59,
      "start": 28.0059,
      "duration": 0.691,
      "velocity": 105,
      "chip": "ym2612"
    },
    {
      "channel": 3,
      "note": 76,
      "start": 28.0096,
      "duration": 0.3307,
      "velocity": 109,
      "chip": "ym2612"
    },
    {
      "channel": 5,
      "note": 73,
      "start": 28.0103,
      "duration": 0.6882,
      "velocity": 93,
      "chip": "ym2612"
    },
    {
      "channel": 4,
      "note": 86,
      "start": 28.2442,
      "duration": 0.3309,
      "velocity": 95,
      "chip": "ym2612"
    },
    {
      "channel": 0,
      "note": 88,
      "start": 28.3643,
      "duration": 0.3323,
      "velocity": 95,
      "chip": "ym2612"
    },
    {
      "channel": 2,
      "note": 74,
      "start": 28.3651,
      "duration": 0.6984,
      "velocity": 93,
      "chip": "ym2612"
    },
    {
      "channel": 3,
      "note": 45,
      "start": 28.3658,
      "duration": 0.332,
      "velocity": 109,
      "chip": "ym2612"
    },
    {
      "channel": 4,
      "note": 88,
      "start": 28.6079,
      "duration": 0.3356,
      "velocity": 95,
      "chip": "ym2612"
    },
    {
      "channel": 0,
      "note": 90,
      "start": 28.7295,
      "duration": 0.3337,
      "velocity": 95,
      "chip": "ym2612"
    },
    {
      "channel": 1,
      "note": 52,
      "start": 28.7305,
      "duration": 0.3329,
      "velocity": 105,
      "chip": "ym2612"
    },
    {
      "channel": 3,
      "note": 52,
      "start": 28.732,
      "duration": 0.3315,
      "velocity": 109,
      "chip": "ym2612"
    },
    {
      "channel": 5,
      "note": 76,
      "start": 28.7332,
      "duration": 0.6934,
      "velocity": 93,
      "chip": "ym2612"
    },
    {
      "channel": 4,
      "note": 90,
      "start": 28.9761,
      "duration": 0.3295,
      "velocity": 95,
      "chip": "ym2612"
    },
    {
      "channel": 0,
      "note": 93,
      "start": 29.0881,
      "duration": 0.703,
      "velocity": 95,
      "chip": "ym2612"
    },
    {
      "channel": 1,
      "note": 52,
      "start": 29.0891,
      "duration": 1.0605,
      "velocity": 105,
      "chip": "ym2612"
    },
    {
      "channel": 2,
      "note": 78,
      "start": 29.0901,
      "duration": 1.4296,
      "velocity": 93,
      "chip": "ym2612"
    },
    {
      "channel": 3,
      "note": 57,
      "start": 29.0938,
      "duration": 0.6983,
      "velocity": 109,
      "chip": "ym2612"
    },
    {
      "channel": 4,
      "note": 93,
      "start": 29.3385,
      "duration": 0.6896,
      "velocity": 95,
      "chip": "ym2612"
    },
    {
      "channel": 5,
      "note": 71,
      "start": 29.4599,
      "duration": 0.3328,
      "velocity": 93,
      "chip": "ym2612"
    },
    {
      "channel": 0,
      "note": 92,
      "start": 29.8157,
      "duration": 3.6098,
      "velocity": 95,
      "chip": "ym2612"
    },
    {
      "channel": 3,
      "note": 45,
      "start": 29.8193,
      "duration": 0.3311,
      "velocity": 117,
      "chip": "ym2612"
    },
    {
      "channel": 5,
      "note": 64,
      "start": 29.8206,
      "duration": 0.3305,
      "velocity": 93,
      "chip": "ym2612"
    },
    {
      "channel": 4,
      "note": 92,
      "start": 30.0608,
      "duration": 3.6078,
      "velocity": 95,
      "chip": "ym2612"
    },
    {
      "channel": 1,
      "note": 57,
      "start": 30.1824,
      "duration": 0.6941,
      "velocity": 105,
      "chip": "ym2612"
    },
    {
      "channel": 3,
      "note": 105,
      "start": 30.1866,
      "duration": 0.2122,
      "velocity": 73,
      "chip": "ym2612"
    },
    {
      "channel": 5,
      "note": 69,
      "start": 30.1878,
      "duration": 0.689,
      "velocity": 93,
      "chip": "ym2612"
    },
    {
      "channel": 3,
      "note": 76,
      "start": 30.4322,
      "duration": 0.2099,
      "velocity": 73,
      "chip": "ym2612"
    },
    {
      "channel": 2,
      "note": 57,
      "start": 30.5452,
      "duration": 0.6986,
      "velocity": 93,
      "chip": "ym2612"
    },
    {
      "channel": 3,
      "note": 76,
      "start": 30.6663,
      "duration": 0.2104,
      "velocity": 73,
      "chip": "ym2612"
    },
    {
      "channel": 1,
      "note": 57,
      "start": 30.9093,
      "duration": 0.6917,
      "velocity": 105,
      "chip": "ym2612"
    },
    {
      "channel": 3,
      "note": 76,
      "start": 30.913,
      "duration": 0.3311,
      "velocity": 109,
      "chip": "ym2612"
    },
    {
      "channel": 5,
      "note": 71,
      "start": 30.9138,
      "duration": 0.6892,
      "velocity": 93,
      "chip": "ym2612"
    },
    {
      "channel": 2,
      "note": 73,
      "start": 31.2766,
      "duration": 0.6903,
      "velocity": 93,
      "chip": "ym2612"
    },
    {
      "channel": 3,
      "note": 45,
      "start": 31.2776,
      "duration": 0.3245,
      "velocity": 109,
      "chip": "ym2612"
    },
    {
      "channel": 1,
      "note": 57,
      "start": 31.6338,
      "duration": 0.333,
      "velocity": 105,
      "chip": "ym2612"
    },
    {
      "channel": 3,
      "note": 57,
      "start": 31.6356,
      "duration": 0.3315,
      "velocity": 109,
      "chip": "ym2612"
    },
    {
      "channel": 5,
      "note": 71,
      "start": 31.6373,
      "duration": 0.6894,
      "velocity": 93,
      "chip": "ym2612"
    },
    {
      "channel": 1,
      "note": 57,
      "start": 31.9999,
      "duration": 1.0523,
      "velocity": 105,
      "chip": "ym2612"
    },
    {
      "channel": 2,
      "note": 69,
      "start": 32.0007,
      "duration": 1.0518,
      "velocity": 93,
      "chip": "ym2612"
    },
    {
      "channel": 3,
      "note": 52,
      "start": 32.0044,
      "duration": 0.6885,
      "velocity": 109,
      "chip": "ym2612"
    },
    {
      "channel": 5,
      "note": 64,
      "start": 32.3594,
      "duration": 0.3344,
      "velocity": 93,
      "chip": "ym2612"
    },
    {
      "channel": 3,
      "note": 45,
      "start": 32.728,
      "duration": 0.3248,
      "velocity": 1,
      "chip": "ym2612"
    },
    {
      "channel": 5,
      "note": 64,
      "start": 32.73,
      "duration": 0.3238,
      "velocity": 93,
      "chip": "ym2612"
    },
    {
      "channel": 1,
      "note": 57,
      "start": 33.0854,
      "duration": 0.6963,
      "velocity": 105,
      "chip": "ym2612"
    },
    {
      "channel": 2,
      "note": 57,
      "start": 33.0888,
      "duration": 1.4176,
      "velocity": 93,
      "chip": "ym2612"
    },
    {
      "channel": 3,
      "note": 105,
      "start": 33.0922,
      "duration": 0.2127,
      "velocity": 73,
      "chip": "ym2612"
    },
    {
      "channel": 5,
      "note": 71,
      "start": 33.0941,
      "duration": 0.688,
      "velocity": 93,
      "chip": "ym2612"
    },
    {
      "channel": 3,
      "note": 76,
      "start": 33.3378,
      "duration": 0.2097,
      "velocity": 73,
      "chip": "ym2612"
    },
    {
      "channel": 3,
      "note": 76,
      "start": 33.572,
      "duration": 0.2099,
      "velocity": 73,
      "chip": "ym2612"
    },
    {
      "channel": 1,
      "note": 64,
      "start": 33.8144,
      "duration": 0.6916,
      "velocity": 105,
      "chip": "ym2612"
    },
    {
      "channel": 3,
      "note": 76,
      "start": 33.8184,
      "duration": 0.3309,
      "velocity": 109,
      "chip": "ym2612"
    },
    {
      "channel": 5,
      "note": 76,
      "start": 33.8196,
      "duration": 0.3302,
      "velocity": 93,
      "chip": "ym2612"
    },
    {
      "channel": 3,
      "note": 45,
      "start": 34.1821,
      "duration": 0.0244,
      "velocity": 109,
      "chip": "ym2612"
    },
    {
      "channel": 5,
      "note": 69,
      "start": 34.1838,
      "duration": 0.3234,
      "velocity": 93,
      "chip": "ym2612"
    },
    {
      "channel": 3,
      "note": 52,
      "start": 34.2065,
      "duration": 0.3001,
      "velocity": 109,
      "chip": "ym2612"
    },
    {
      "channel": 0,
      "note": 85,
      "start": 34.5385,
      "duration": 0.3342,
      "velocity": 95,
      "chip": "ym2612"
    },
    {
      "channel": 1,
      "note": 52,
      "start": 34.5395,
      "duration": 0.3334,
      "velocity": 105,
      "chip": "ym2612"
    },
    {
      "channel": 3,
      "note": 57,
      "start": 34.5408,
      "duration": 0.3322,
      "velocity": 109,
      "chip": "ym2612"
    },
    {
      "channel": 5,
      "note": 71,
      "start": 34.5426,
      "duration": 0.152,
      "velocity": 93,
      "chip": "ym2612"
    },
    {
      "channel": 4,
      "note": 85,
      "start": 34.7855,
      "duration": 0.3366,
      "velocity": 95,
      "chip": "ym2612"
    },
    {
      "channel": 0,
      "note": 88,
      "start": 34.9057,
      "duration": 0.5162,
      "velocity": 95,
      "chip": "ym2612"
    },
    {
      "channel": 1,
      "note": 52,
      "start": 34.9065,
      "duration": 1.0625,
      "velocity": 105,
      "chip": "ym2612"
    },
    {
      "channel": 2,
      "note": 73,
      "start": 34.9097,
      "duration": 1.0593,
      "velocity": 93,
      "chip": "ym2612"
    },
    {
      "channel": 3,
      "note": 45,
      "start": 34.9132,
      "duration": 0.6892,
      "velocity": 109,
      "chip": "ym2612"
    },
    {
      "channel": 4,
      "note": 88,
      "start": 35.1477,
      "duration": 0.5134,
      "velocity": 95,
      "chip": "ym2612"
    },
    {
      "channel": 5,
      "note": 64,
      "start": 35.2689,
      "duration": 0.3341,
      "velocity": 93,
      "chip": "ym2612"
    },
    {
      "channel": 0,
      "note": 92,
      "start": 35.4547,
      "duration": 0.0239,
      "velocity": 95,
      "chip": "ym2612"
    },
    {
      "channel": 0,
      "note": 90,
      "start": 35.5113,
      "duration": 0.0569,
      "velocity": 95,
      "chip": "ym2612"
    },
    {
      "channel": 0,
      "note": 88,
      "start": 35.6007,
      "duration": 1.4225,
      "velocity": 95,
      "chip": "ym2612"
    },
    {
      "channel": 3,
      "note": 45,
      "start": 35.637,
      "duration": 0.3322,
      "velocity": 117,
      "chip": "ym2612"
    },
    {
      "channel": 5,
      "note": 64,
      "start": 35.639,
      "duration": 0.3303,
      "velocity": 93,
      "chip": "ym2612"
    },
    {
      "channel": 4,
      "note": 92,
      "start": 35.6938,
      "duration": 0.0322,
      "velocity": 95,
      "chip": "ym2612"
    },
    {
      "channel": 4,
      "note": 90,
      "start": 35.7588,
      "duration": 0.0575,
      "velocity": 95,
      "chip": "ym2612"
    },
    {
      "channel": 4,
      "note": 88,
      "start": 35.8491,
      "duration": 1.4191,
      "velocity": 95,
      "chip": "ym2612"
    },
    {
      "channel": 1,
      "note": 57,
      "start": 35.9939,
      "duration": 0.7052,
      "velocity": 105,
      "chip": "ym2612"
    },
    {
      "channel": 2,
      "note": 57,
      "start": 35.9973,
      "duration": 1.4238,
      "velocity": 93,
      "chip": "ym2612"
    },
    {
      "channel": 3,
      "note": 105,
      "start": 36.0007,
      "duration": 0.2121,
      "velocity": 73,
      "chip": "ym2612"
    },
    {
      "channel": 5,
      "note": 71,
      "start": 36.0028,
      "duration": 1.4186,
      "velocity": 93,
      "chip": "ym2612"
    },
    {
      "channel": 3,
      "note": 76,
      "start": 36.2461,
      "duration": 0.2097,
      "velocity": 73,
      "chip": "ym2612"
    },
    {
      "channel": 3,
      "note": 76,
      "start": 36.4891,
      "duration": 0.2106,
      "velocity": 73,
      "chip": "ym2612"
    },
    {
      "channel": 1,
      "note": 57,
      "start": 36.7234,
      "duration": 0.6976,
      "velocity": 105,
      "chip": "ym2612"
    },
    {
      "channel": 3,
      "note": 76,
      "start": 36.7271,
      "duration": 0.3302,
      "velocity": 109,
      "chip": "ym2612"
    },
    {
      "channel": 0,
      "note": 85,
      "start": 37.0563,
      "duration": 0.5761,
      "velocity": 95,
      "chip": "ym2612"
    },
    {
      "channel": 3,
      "note": 45,
      "start": 37.0899,
      "duration": 0.3314,
      "velocity": 109,
      "chip": "ym2612"
    },
    {
      "channel": 4,
      "note": 85,
      "start": 37.3007,
      "duration": 0.5737,
      "velocity": 95,
      "chip": "ym2612"
    },
    {
      "channel": 1,
      "note": 57,
      "start": 37.446,
      "duration": 0.3324,
      "velocity": 105,
      "chip": "ym2612"
    },
    {
      "channel": 3,
      "note": 57,
      "start": 37.4474,
      "duration": 0.3312,
      "velocity": 109,
      "chip": "ym2612"
    },
    {
      "channel": 5,
      "note": 73,
      "start": 37.4486,
      "duration": 0.7023,
      "velocity": 93,
      "chip": "ym2612"
    },
    {
      "channel": 0,
      "note": 90,
      "start": 37.657,
      "duration": 0.0321,
      "velocity": 95,
      "chip": "ym2612"
    },
    {
      "channel": 0,
      "note": 88,
      "start": 37.7219,
      "duration": 0.0563,
      "velocity": 95,
      "chip": "ym2612"
    },
    {
      "channel": 0,
      "note": 85,
      "start": 37.811,
      "duration": 2.1541,
      "velocity": 95,
      "chip": "ym2612"
    },
    {
      "channel": 1,
      "note": 57,
      "start": 37.8117,
      "duration": 1.0625,
      "velocity": 105,
      "chip": "ym2612"
    },
    {
      "channel": 2,
      "note": 69,
      "start": 37.8149,
      "duration": 1.0594,
      "velocity": 93,
      "chip": "ym2612"
    },
    {
      "channel": 3,
      "note": 52,
      "start": 37.8187,
      "duration": 0.6884,
      "velocity": 109,
      "chip": "ym2612"
    },
    {
      "channel": 4,
      "note": 90,
      "start": 37.9073,
      "duration": 0.0322,
      "velocity": 95,
      "chip": "ym2612"
    },
    {
      "channel": 4,
      "note": 88,
      "start": 37.9635,
      "duration": 0.0645,
      "velocity": 95,
      "chip": "ym2612"
    },
    {
      "channel": 4,
      "note": 85,
      "start": 38.0607,
      "duration": 2.1497,
      "velocity": 95,
      "chip": "ym2612"
    },
    {
      "channel": 5,
      "note": 64,
      "start": 38.1741,
      "duration": 0.3336,
      "velocity": 93,
      "chip": "ym2612"
    },
    {
      "channel": 3,
      "note": 45,
      "start": 38.5427,
      "duration": 0.3318,
      "velocity": 1,
      "chip": "ym2612"
    },
    {
      "channel": 5,
      "note": 64,
      "start": 38.5445,
      "duration": 0.3301,
      "velocity": 93,
      "chip": "ym2612"
    },
    {
      "channel": 1,
      "note": 57,
      "start": 38.8993,
      "duration": 0.7054,
      "velocity": 105,
      "chip": "ym2612"
    },
    {
      "channel": 2,
      "note": 57,
      "start": 38.903,
      "duration": 1.4278,
      "velocity": 93,
      "chip": "ym2612"
    },
    {
      "channel": 3,
      "note": 105,
      "start": 38.9064,
      "duration": 0.2123,
      "velocity": 73,
      "chip": "ym2612"
    },
    {
      "channel": 5,
      "note": 71,
      "start": 38.9083,
      "duration": 1.4228,
      "velocity": 93,
      "chip": "ym2612"
    },
    {
      "channel": 3,
      "note": 76,
      "start": 39.152,
      "duration": 0.21,
      "velocity": 73,
      "chip": "ym2612"
    },
    {
      "channel": 3,
      "note": 76,
      "start": 39.3952,
      "duration": 0.2101,
      "velocity": 73,
      "chip": "ym2612"
    },
    {
      "channel": 1,
      "note": 57,
      "start": 39.6376,
      "duration": 0.6931,
      "velocity": 105,
      "chip": "ym2612"
    },
    {
      "channel": 3,
      "note": 76,
      "start": 39.6417,
      "duration": 0.3243,
      "velocity": 109,
      "chip": "ym2612"
    },
    {
      "channel": 0,
      "note": 83,
      "start": 39.9979,
      "duration": 0.3896,
      "velocity": 95,
      "chip": "ym2612"
    },
    {
      "channel": 3,
      "note": 45,
      "start": 39.9994,
      "duration": 0.3315,
      "velocity": 109,
      "chip": "ym2612"
    },
    {
      "channel": 4,
      "note": 83,
      "start": 40.2432,
      "duration": 0.4445,
      "velocity": 95,
      "chip": "ym2612"
    },
    {
      "channel": 1,
      "note": 52,
      "start": 40.3638,
      "duration": 0.3235,
      "velocity": 105,
      "chip": "ym2612"
    },
    {
      "channel": 3,
      "note": 52,
      "start": 40.3647,
      "duration": 0.3228,
      "velocity": 109,
      "chip": "ym2612"
    },
    {
      "channel": 5,
      "note": 76,
      "start": 40.3656,
      "duration": 0.6948,
      "velocity": 93,
      "chip": "ym2612"
    },
    {
      "channel": 0,
      "note": 85,
      "start": 40.477,
      "duration": 0.0969,
      "velocity": 95,
      "chip": "ym2612"
    },
    {
      "channel": 0,
      "note": 83,
      "start": 40.5986,
      "duration": 0.0885,
      "velocity": 95,
      "chip": "ym2612"
    },
    {
      "channel": 0,
      "note": 81,
      "start": 40.7199,
      "duration": 0.6956,
      "velocity": 95,
      "chip": "ym2612"
    },
    {
      "channel": 1,
      "note": 52,
      "start": 40.7207,
      "duration": 1.0644,
      "velocity": 105,
      "chip": "ym2612"
    },
    {
      "channel": 2,
      "note": 73,
      "start": 40.7239,
      "duration": 1.0612,
      "velocity": 93,
      "chip": "ym2612"
    },
    {
      "channel": 3,
      "note": 57,
      "start": 40.7274,
      "duration": 0.6892,
      "velocity": 109,
      "chip": "ym2612"
    },
    {
      "channel": 4,
      "note": 85,
      "start": 40.7281,
      "duration": 0.0882,
      "velocity": 95,
      "chip": "ym2612"
    },
    {
      "channel": 4,
      "note": 83,
      "start": 40.8491,
      "duration": 0.0878,
      "velocity": 95,
      "chip": "ym2612"
    },
    {
      "channel": 4,
      "note": 81,
      "start": 40.9699,
      "duration": 0.6949,
      "velocity": 95,
      "chip": "ym2612"
    },
    {
      "channel": 5,
      "note": 64,
      "start": 41.0932,
      "duration": 0.324,
      "velocity": 93,
      "chip": "ym2612"
    },
    {
      "channel": 0,
      "note": 78,
      "start": 41.4484,
      "duration": 3.6141,
      "velocity": 95,
      "chip": "ym2612"
    },
    {
      "channel": 3,
      "note": 45,
      "start": 41.453,
      "duration": 0.3323,
      "velocity": 117,
      "chip": "ym2612"
    },
    {
      "channel": 5,
      "note": 64,
      "start": 41.4551,
      "duration": 0.3304,
      "velocity": 93,
      "chip": "ym2612"
    },
    {
      "channel": 4,
      "note": 78,
      "start": 41.6976,
      "duration": 3.6003,
      "velocity": 95,
      "chip": "ym2612"
    },
    {
      "channel": 1,
      "note": 57,
      "start": 41.8182,
      "duration": 0.6952,
      "velocity": 105,
      "chip": "ym2612"
    },
    {
      "channel": 2,
      "note": 57,
      "start": 41.8213,
      "duration": 1.4169,
      "velocity": 93,
      "chip": "ym2612"
    },
    {
      "channel": 3,
      "note": 105,
      "start": 41.8246,
      "duration": 0.2095,
      "velocity": 73,
      "chip": "ym2612"
    },
    {
      "channel": 5,
      "note": 71,
      "start": 41.8258,
      "duration": 1.4127,
      "velocity": 93,
      "chip": "ym2612"
    },
    {
      "channel": 3,
      "note": 76,
      "start": 42.0601,
      "duration": 0.2097,
      "velocity": 73,
      "chip": "ym2612"
    },
    {
      "channel": 3,
      "note": 76,
      "start": 42.3035,
      "duration": 0.2105,
      "velocity": 73,
      "chip": "ym2612"
    },
    {
      "channel": 1,
      "note": 57,
      "start": 42.5461,
      "duration": 0.692,
      "velocity": 105,
      "chip": "ym2612"
    },
    {
      "channel": 3,
      "note": 76,
      "start": 42.5502,
      "duration": 0.3237,
      "velocity": 109,
      "chip": "ym2612"
    },
    {
      "channel": 3,
      "note": 45,
      "start": 42.9067,
      "duration": 0.3316,
      "velocity": 109,
      "chip": "ym2612"
    },
    {
      "channel": 1,
      "note": 57,
      "start": 43.2708,
      "duration": 0.332,
      "velocity": 105,
      "chip": "ym2612"
    },
    {
      "channel": 3,
      "note": 57,
      "start": 43.2718,
      "duration": 0.3317,
      "velocity": 109,
      "chip": "ym2612"
    },
    {
      "channel": 5,
      "note": 73,
      "start": 43.2726,
      "duration": 0.6945,
      "velocity": 93,
      "chip": "ym2612"
    },
    {
      "channel": 1,
      "note": 57,
      "start": 43.6276,
      "duration": 1.0623,
      "velocity": 105,
      "chip": "ym2612"
    },
    {
      "channel": 2,
      "note": 69,
      "start": 43.6309,
      "duration": 1.0592,
      "velocity": 93,
      "chip": "ym2612"
    },
    {
      "channel": 3,
      "note": 52,
      "start": 43.6343,
      "duration": 0.6954,
      "velocity": 109,
      "chip": "ym2612"
    },
    {
      "channel": 5,
      "note": 64,
      "start": 43.9999,
      "duration": 0.33,
      "velocity": 93,
      "chip": "ym2612"
    },
    {
      "channel": 3,
      "note": 45,
      "start": 44.3579,
      "duration": 0.3323,
      "velocity": 1,
      "chip": "ym2612"
    },
    {
      "channel": 5,
      "note": 64,
      "start": 44.3598,
      "duration": 0.3305,
      "velocity": 93,
      "chip": "ym2612"
    },
    {
      "channel": 1,
      "note": 57,
      "start": 44.7229,
      "duration": 0.6967,
      "velocity": 105,
      "chip": "ym2612"
    },
    {
      "channel": 2,
      "note": 57,
      "start": 44.7261,
      "duration": 1.4182,
      "velocity": 93,
      "chip": "ym2612"
    },
    {
      "channel": 3,
      "note": 105,
      "start": 44.7293,
      "duration": 0.2118,
      "velocity": 73,
      "chip": "ym2612"
    },
    {
      "channel": 5,
      "note": 71,
      "start": 44.7305,
      "duration": 1.4141,
      "velocity": 93,
      "chip": "ym2612"
    },
    {
      "channel": 3,
      "note": 76,
      "start": 44.9666,
      "duration": 0.21,
      "velocity": 73,
      "chip": "ym2612"
    },
    {
      "channel": 3,
      "note": 76,
      "start": 45.21,
      "duration": 0.2102,
      "velocity": 73,
      "chip": "ym2612"
    },
    {
      "channel": 1,
      "note": 69,
      "start": 45.4527,
      "duration": 0.6916,
      "velocity": 105,
      "chip": "ym2612"
    },
    {
      "channel": 3,
      "note": 76,
      "start": 45.4567,
      "duration": 0.3315,
      "velocity": 109,
      "chip": "ym2612"
    },
    {
      "channel": 3,
      "note": 45,
      "start": 45.8135,
      "duration": 0.331,
      "velocity": 109,
      "chip": "ym2612"
    },
    {
      "channel": 0,
      "note": 76,
      "start": 46.177,
      "duration": 0.3312,
      "velocity": 95,
      "chip": "ym2612"
    },
    {
      "channel": 1,
      "note": 52,
      "start": 46.1777,
      "duration": 0.3308,
      "velocity": 105,
      "chip": "ym2612"
    },
    {
      "channel": 3,
      "note": 52,
      "start": 46.1787,
      "duration": 0.3305,
      "velocity": 109,
      "chip": "ym2612"
    },
    {
      "channel": 5,
      "note": 76,
      "start": 46.1795,
      "duration": 0.6932,
      "velocity": 93,
      "chip": "ym2612"
    },
    {
      "channel": 4,
      "note": 76,
      "start": 46.4201,
      "duration": 0.3297,
      "velocity": 95,
      "chip": "ym2612"
    },
    {
      "channel": 0,
      "note": 85,
      "start": 46.5328,
      "duration": 0.3381,
      "velocity": 95,
      "chip": "ym2612"
    },
    {
      "channel": 1,
      "note": 52,
      "start": 46.5336,
      "duration": 1.0633,
      "velocity": 105,
      "chip": "ym2612"
    },
    {
      "channel": 2,
      "note": 73,
      "start": 46.5371,
      "duration": 1.4279,
      "velocity": 93,
      "chip": "ym2612"
    },
    {
      "channel": 3,
      "note": 57,
      "start": 46.5406,
      "duration": 0.6952,
      "velocity": 109,
      "chip": "ym2612"
    },
    {
      "channel": 4,
      "note": 85,
      "start": 46.7826,
      "duration": 0.3329,
      "velocity": 95,
      "chip": "ym2612"
    },
    {
      "channel": 0,
      "note": 86,
      "start": 46.9037,
      "duration": 0.3319,
      "velocity": 95,
      "chip": "ym2612"
    },
    {
      "channel": 5,
      "note": 64,
      "start": 46.906,
      "duration": 0.33,
      "velocity": 93,
      "chip": "ym2612"
    },
    {
      "channel": 4,
      "note": 86,
      "start": 47.1484,
      "duration": 0.3284,
      "velocity": 95,
      "chip": "ym2612"
    },
    {
      "channel": 0,
      "note": 85,
      "start": 47.2603,
      "duration": 0.3364,
      "velocity": 95,
      "chip": "ym2612"
    },
    {
      "channel": 3,
      "note": 45,
      "start": 47.2645,
      "duration": 0.3324,
      "velocity": 117,
      "chip": "ym2612"
    },
    {
      "channel": 5,
      "note": 66,
      "start": 47.2668,
      "duration": 0.3304,
      "velocity": 93,
      "chip": "ym2612"
    },
    {
      "channel": 4,
      "note": 85,
      "start": 47.5095,
      "duration": 0.3339,
      "velocity": 95,
      "chip": "ym2612"
    },
    {
      "channel": 0,
      "note": 83,
      "start": 47.6294,
      "duration": 0.335,
      "velocity": 95,
      "chip": "ym2612"
    },
    {
      "channel": 1,
      "note": 59,
      "start": 47.6301,
      "duration": 0.6925,
      "velocity": 105,
      "chip": "ym2612"
    },
    {
      "channel": 3,
      "note": 105,
      "start": 47.6334,
      "duration": 0.2099,
      "velocity": 73,
      "chip": "ym2612"
    },
    {
      "channel": 5,
      "note": 71,
      "start": 47.635,
      "duration": 0.6891,
      "velocity": 93,
      "chip": "ym2612"
    },
    {
      "channel": 3,
      "note": 76,
      "start": 47.8764,
      "duration": 0.2109,
      "velocity": 73,
      "chip": "ym2612"
    },
    {
      "channel": 4,
      "note": 83,
      "start": 47.8771,
      "duration": 0.3245,
      "velocity": 95,
      "chip": "ym2612"
    },
    {
      "channel": 0,
      "note": 81,
      "start": 47.9976,
      "duration": 2.4995,
      "velocity": 95,
      "chip": "ym2612"
    },
    {
      "channel": 2,
      "note": 59,
      "start": 47.9989,
      "duration": 0.6927,
      "velocity": 93,
      "chip": "ym2612"
    },
    {
      "channel": 3,
      "note": 76,
      "start": 48.1132,
      "duration": 0.2104,
      "velocity": 73,
      "chip": "ym2612"
    },
    {
      "channel": 4,
      "note": 81,
      "start": 48.2341,
      "duration": 2.5094,
      "velocity": 95,
      "chip": "ym2612"
    },
    {
      "channel": 1,
      "note": 59,
      "start": 48.3558,
      "duration": 0.6918,
      "velocity": 105,
      "chip": "ym2612"
    },
    {
      "channel": 3,
      "note": 76,
      "start": 48.3602,
      "duration": 0.3316,
      "velocity": 109,
      "chip": "ym2612"
    },
    {
      "channel": 5,
      "note": 73,
      "start": 48.3614,
      "duration": 0.6865,
      "velocity": 93,
      "chip": "ym2612"
    },
    {
      "channel": 2,
      "note": 74,
      "start": 48.7243,
      "duration": 0.6884,
      "velocity": 93,
      "chip": "ym2612"
    },
    {
      "channel": 3,
      "note": 45,
      "start": 48.7251,
      "duration": 0.3227,
      "velocity": 109,
      "chip": "ym2612"
    },
    {
      "channel": 1,
      "note": 59,
      "start": 49.0805,
      "duration": 0.332,
      "velocity": 105,
      "chip": "ym2612"
    },
    {
      "channel": 3,
      "note": 57,
      "start": 49.0813,
      "duration": 0.3318,
      "velocity": 109,
      "chip": "ym2612"
    },
    {
      "channel": 5,
      "note": 73,
      "start": 49.0821,
      "duration": 0.6943,
      "velocity": 93,
      "chip": "ym2612"
    },
    {
      "channel": 1,
      "note": 59,
      "start": 49.4459,
      "duration": 1.0513,
      "velocity": 105,
      "chip": "ym2612"
    },
    {
      "channel": 2,
      "note": 71,
      "start": 49.4469,
      "duration": 1.4183,
      "velocity": 93,
      "chip": "ym2612"
    },
    {
      "channel": 3,
      "note": 52,
      "start": 49.4505,
      "duration": 0.6895,
      "velocity": 109,
      "chip": "ym2612"
    },
    {
      "channel": 5,
      "note": 66,
      "start": 49.8093,
      "duration": 0.331,
      "velocity": 93,
      "chip": "ym2612"
    },
    {
      "channel": 3,
      "note": 45,
      "start": 50.1756,
      "duration": 0.3218,
      "velocity": 1,
      "chip": "ym2612"
    },
    {
      "channel": 5,
      "note": 66,
      "start": 50.1768,
      "duration": 0.3207,
      "velocity": 93,
      "chip": "ym2612"
    },
    {
      "channel": 0,
      "note": 83,
      "start": 50.5299,
      "duration": 0.3348,
      "velocity": 95,
      "chip": "ym2612"
    },
    {
      "channel": 1,
      "note": 59,
      "start": 50.5306,
      "duration": 0.6922,
      "velocity": 105,
      "chip": "ym2612"
    },
    {
      "channel": 3,
      "note": 105,
      "start": 50.5337,
      "duration": 0.2096,
      "velocity": 73,
      "chip": "ym2612"
    },
    {
      "channel": 5,
      "note": 71,
      "start": 50.5353,
      "duration": 0.6891,
      "velocity": 93,
      "chip": "ym2612"
    },
    {
      "channel": 3,
      "note": 76,
      "start": 50.7765,
      "duration": 0.2112,
      "velocity": 73,
      "chip": "ym2612"
    },
    {
      "channel": 4,
      "note": 83,
      "start": 50.7772,
      "duration": 0.3331,
      "velocity": 95,
      "chip": "ym2612"
    },
    {
      "channel": 0,
      "note": 85,
      "start": 50.8976,
      "duration": 0.3249,
      "velocity": 95,
      "chip": "ym2612"
    },
    {
      "channel": 2,
      "note": 59,
      "start": 50.8989,
      "duration": 0.6943,
      "velocity": 93,
      "chip": "ym2612"
    },
    {
      "channel": 3,
      "note": 76,
      "start": 51.0208,
      "duration": 0.2028,
      "velocity": 73,
      "chip": "ym2612"
    },
    {
      "channel": 4,
      "note": 85,
      "start": 51.1341,
      "duration": 0.3382,
      "velocity": 95,
      "chip": "ym2612"
    },
    {
      "channel": 0,
      "note": 86,
      "start": 51.2556,
      "duration": 0.3373,
      "velocity": 95,
      "chip": "ym2612"
    },
    {
      "channel": 1,
      "note": 59,
      "start": 51.2566,
      "duration": 0.7015,
      "velocity": 105,
      "chip": "ym2612"
    },
    {
      "channel": 3,
      "note": 76,
      "start": 51.261,
      "duration": 0.3323,
      "velocity": 109,
      "chip": "ym2612"
    },
    {
      "channel": 5,
      "note": 73,
      "start": 51.2622,
      "duration": 0.6975,
      "velocity": 93,
      "chip": "ym2612"
    },
    {
      "channel": 4,
      "note": 86,
      "start": 51.5051,
      "duration": 0.3315,
      "velocity": 95,
      "chip": "ym2612"
    },
    {
      "channel": 0,
      "note": 88,
      "start": 51.6259,
      "duration": 0.3319,
      "velocity": 95,
      "chip": "ym2612"
    },
    {
      "channel": 2,
      "note": 74,
      "start": 51.6266,
      "duration": 0.6879,
      "velocity": 93,
      "chip": "ym2612"
    },
    {
      "channel": 3,
      "note": 45,
      "start": 51.6273,
      "duration": 0.3316,
      "velocity": 109,
      "chip": "ym2612"
    },
    {
      "channel": 4,
      "note": 88,
      "start": 51.8622,
      "duration": 0.3306,
      "velocity": 95,
      "chip": "ym2612"
    },
    {
      "channel": 0,
      "note": 90,
      "start": 51.9825,
      "duration": 0.3314,
      "velocity": 95,
      "chip": "ym2612"
    },
    {
      "channel": 1,
      "note": 52,
      "start": 51.9832,
      "duration": 0.331,
      "velocity": 105,
      "chip": "ym2612"
    },
    {
      "channel": 3,
      "note": 52,
      "start": 51.984,
      "duration": 0.3308,
      "velocity": 109,
      "chip": "ym2612"
    },
    {
      "channel": 5,
      "note": 76,
      "start": 51.9851,
      "duration": 0.7004,
      "velocity": 93,
      "chip": "ym2612"
    },
    {
      "channel": 4,
      "note": 90,
      "start": 52.2256,
      "duration": 0.3394,
      "velocity": 95,
      "chip": "ym2612"
    },
    {
      "channel": 0,
      "note": 93,
      "start": 52.3472,
      "duration": 4.3281,
      "velocity": 95,
      "chip": "ym2612"
    },
    {
      "channel": 1,
      "note": 52,
      "start": 52.3481,
      "duration": 1.0601,
      "velocity": 105,
      "chip": "ym2612"
    },
    {
      "channel": 2,
      "note": 78,
      "start": 52.3491,
      "duration": 1.4197,
      "velocity": 93,
      "chip": "ym2612"
    },
    {
      "channel": 3,
      "note": 57,
      "start": 52.3532,
      "duration": 0.6891,
      "velocity": 109,
      "chip": "ym2612"
    },
    {
      "channel": 4,
      "note": 93,
      "start": 52.5888,
      "duration": 4.3333,
      "velocity": 95,
      "chip": "ym2612"
    },
    {
      "channel": 5,
      "note": 71,
      "start": 52.7123,
      "duration": 0.3301,
      "velocity": 93,
      "chip": "ym2612"
    },
    {
      "channel": 3,
      "note": 45,
      "start": 53.0775,
      "duration": 0.3316,
      "velocity": 117,
      "chip": "ym2612"
    },
    {
      "channel": 5,
      "note": 64,
      "start": 53.0787,
      "duration": 0.3312,
      "velocity": 93,
      "chip": "ym2612"
    },
    {
      "channel": 1,
      "note": 57,
      "start": 53.4325,
      "duration": 0.701,
      "velocity": 105,
      "chip": "ym2612"
    },
    {
      "channel": 3,
      "note": 105,
      "start": 53.436,
      "duration": 0.2102,
      "velocity": 73,
      "chip": "ym2612"
    },
    {
      "channel": 5,
      "note": 69,
      "start": 53.4368,
      "duration": 0.697,
      "velocity": 93,
      "chip": "ym2612"
    },
    {
      "channel": 3,
      "note": 76,
      "start": 53.6794,
      "duration": 0.2107,
      "velocity": 73,
      "chip": "ym2612"
    },
    {
      "channel": 2,
      "note": 57,
      "start": 53.8019,
      "duration": 0.6919,
      "velocity": 93,
      "chip": "ym2612"
    },
    {
      "channel": 3,
      "note": 76,
      "start": 53.9234,
      "duration": 0.2102,
      "velocity": 73,
      "chip": "ym2612"
    },
    {
      "channel": 1,
      "note": 57,
      "start": 54.1586,
      "duration": 0.7001,
      "velocity": 105,
      "chip": "ym2612"
    },
    {
      "channel": 3,
      "note": 76,
      "start": 54.1629,
      "duration": 0.331,
      "velocity": 109,
      "chip": "ym2612"
    },
    {
      "channel": 5,
      "note": 71,
      "start": 54.1645,
      "duration": 0.6959,
      "velocity": 93,
      "chip": "ym2612"
    },
    {
      "channel": 2,
      "note": 73,
      "start": 54.5269,
      "duration": 0.6885,
      "velocity": 93,
      "chip": "ym2612"
    },
    {
      "channel": 3,
      "note": 45,
      "start": 54.5277,
      "duration": 0.3318,
      "velocity": 109,
      "chip": "ym2612"
    },
    {
      "channel": 1,
      "note": 57,
      "start": 54.8829,
      "duration": 0.3322,
      "velocity": 105,
      "chip": "ym2612"
    },
    {
      "channel": 3,
      "note": 57,
      "start": 54.8837,
      "duration": 0.3321,
      "velocity": 109,
      "chip": "ym2612"
    },
    {
      "channel": 5,
      "note": 71,
      "start": 54.8849,
      "duration": 0.3317,
      "velocity": 93,
      "chip": "ym2612"
    },
    {
      "channel": 1,
      "note": 57,
      "start": 55.2486,
      "duration": 1.0616,
      "velocity": 105,
      "chip": "ym2612"
    },
    {
      "channel": 2,
      "note": 69,
      "start": 55.2524,
      "duration": 1.0582,
      "velocity": 93,
      "chip": "ym2612"
    },
    {
      "channel": 3,
      "note": 52,
      "start": 55.256,
      "duration": 0.6878,
      "velocity": 109,
      "chip": "ym2612"
    },
    {
      "channel": 5,
      "note": 64,
      "start": 55.6148,
      "duration": 0.3292,
      "velocity": 93,
      "chip": "ym2612"
    },
    {
      "channel": 3,
      "note": 45,
      "start": 55.9795,
      "duration": 0.3315,
      "velocity": 1,
      "chip": "ym2612"
    },
    {
      "channel": 5,
      "note": 64,
      "start": 55.9808,
      "duration": 0.3312,
      "velocity": 93,
      "chip": "ym2612"
    },
    {
      "channel": 1,
      "note": 57,
      "start": 56.3431,
      "duration": 0.7029,
      "velocity": 105,
      "chip": "ym2612"
    },
    {
      "channel": 2,
      "note": 57,
      "start": 56.3465,
      "duration": 1.4271,
      "velocity": 93,
      "chip": "ym2612"
    },
    {
      "channel": 3,
      "note": 105,
      "start": 56.3498,
      "duration": 0.2046,
      "velocity": 73,
      "chip": "ym2612"
    },
    {
      "channel": 5,
      "note": 71,
      "start": 56.3521,
      "duration": 0.6943,
      "velocity": 93,
      "chip": "ym2612"
    },
    {
      "channel": 3,
      "note": 76,
      "start": 56.5872,
      "duration": 0.2127,
      "velocity": 73,
      "chip": "ym2612"
    },
    {
      "channel": 0,
      "note": 97,
      "start": 56.711,
      "duration": 0.1534,
      "velocity": 87,
      "chip": "ym2612"
    },
    {
      "channel": 3,
      "note": 76,
      "start": 56.8332,
      "duration": 0.213,
      "velocity": 73,
      "chip": "ym2612"
    },
    {
      "channel": 0,
      "note": 73,
      "start": 56.889,
      "duration": 0.1568,
      "velocity": 87,
      "chip": "ym2612"
    },
    {
      "channel": 4,
      "note": 97,
      "start": 56.9579,
      "duration": 0.1489,
      "velocity": 87,
      "chip": "ym2612"
    },
    {
      "channel": 0,
      "note": 74,
      "start": 57.0785,
      "duration": 0.1487,
      "velocity": 87,
      "chip": "ym2612"
    },
    {
      "channel": 1,
      "note": 69,
      "start": 57.0793,
      "duration": 0.694,
      "velocity": 105,
      "chip": "ym2612"
    },
    {
      "channel": 3,
      "note": 76,
      "start": 57.083,
      "duration": 0.3224,
      "velocity": 109,
      "chip": "ym2612"
    },
    {
      "channel": 5,
      "note": 76,
      "start": 57.0842,
      "duration": 0.3214,
      "velocity": 93,
      "chip": "ym2612"
    },
    {
      "channel": 4,
      "note": 73,
      "start": 57.1395,
      "duration": 0.1526,
      "velocity": 87,
      "chip": "ym2612"
    },
    {
      "channel": 0,
      "note": 76,
      "start": 57.2602,
      "duration": 0.145,
      "velocity": 87,
      "chip": "ym2612"
    },
    {
      "channel": 4,
      "note": 74,
      "start": 57.3177,
      "duration": 0.1554,
      "velocity": 87,
      "chip": "ym2612"
    },
    {
      "channel": 0,
      "note": 78,
      "start": 57.4384,
      "duration": 0.1564,
      "velocity": 87,
      "chip": "ym2612"
    },
    {
      "channel": 3,
      "note": 45,
      "start": 57.4392,
      "duration": 0.1564,
      "velocity": 109,
      "chip": "ym2612"
    },
    {
      "channel": 5,
      "note": 69,
      "start": 57.4404,
      "duration": 0.3341,
      "velocity": 93,
      "chip": "ym2612"
    },
    {
      "channel": 4,
      "note": 76,
      "start": 57.4987,
      "duration": 0.1531,
      "velocity": 87,
      "chip": "ym2612"
    },
    {
      "channel": 0,
      "note": 80,
      "start": 57.6195,
      "duration": 0.1535,
      "velocity": 87,
      "chip": "ym2612"
    },
    {
      "channel": 3,
      "note": 52,
      "start": 57.6204,
      "duration": 0.1536,
      "velocity": 109,
      "chip": "ym2612"
    },
    {
      "channel": 4,
      "note": 78,
      "start": 57.6854,
      "duration": 0.1464,
      "velocity": 87,
      "chip": "ym2612"
    },
    {
      "channel": 0,
      "note": 81,
      "start": 57.8061,
      "duration": 0.1473,
      "velocity": 87,
      "chip": "ym2612"
    },
    {
      "channel": 1,
      "note": 59,
      "start": 57.807,
      "duration": 0.3256,
      "velocity": 105,
      "chip": "ym2612"
    },
    {
      "channel": 3,
      "note": 57,
      "start": 57.8084,
      "duration": 0.1458,
      "velocity": 109,
      "chip": "ym2612"
    },
    {
      "channel": 5,
      "note": 71,
      "start": 57.8097,
      "duration": 0.3663,
      "velocity": 93,
      "chip": "ym2612"
    },
    {
      "channel": 4,
      "note": 80,
      "start": 57.8647,
      "duration": 0.1548,
      "velocity": 87,
      "chip": "ym2612"
    },
    {
      "channel": 0,
      "note": 83,
      "start": 57.9862,
      "duration": 0.1461,
      "velocity": 87,
      "chip": "ym2612"
    },
    {
      "channel": 3,
      "note": 45,
      "start": 57.9877,
      "duration": 0.1456,
      "velocity": 109,
      "chip": "ym2612"
    },
    {
      "channel": 4,
      "note": 81,
      "start": 58.0437,
      "duration": 0.1667,
      "velocity": 87,
      "chip": "ym2612"
    },
    {
      "channel": 0,
      "note": 85,
      "start": 58.1668,
      "duration": 0.0991,
      "velocity": 87,
      "chip": "ym2612"
    },
    {
      "channel": 1,
      "note": 61,
      "start": 58.1677,
      "duration": 1.068,
      "velocity": 105,
      "chip": "ym2612"
    },
    {
      "channel": 2,
      "note": 76,
      "start": 58.1715,
      "duration": 1.4269,
      "velocity": 93,
      "chip": "ym2612"
    },
    {
      "channel": 3,
      "note": 45,
      "start": 58.1751,
      "duration": 0.692,
      "velocity": 109,
      "chip": "ym2612"
    },
    {
      "channel": 4,
      "note": 83,
      "start": 58.2432,
      "duration": 0.1451,
      "velocity": 87,
      "chip": "ym2612"
    },
    {
      "channel": 0,
      "note": 86,
      "start": 58.2987,
      "duration": 0.0884,
      "velocity": 87,
      "chip": "ym2612"
    },
    {
      "channel": 0,
      "note": 85,
      "start": 58.42,
      "duration": 0.0896,
      "velocity": 87,
      "chip": "ym2612"
    },
    {
      "channel": 4,
      "note": 85,
      "start": 58.4222,
      "duration": 0.0878,
      "velocity": 87,
      "chip": "ym2612"
    },
    {
      "channel": 0,
      "note": 83,
      "start": 58.5425,
      "duration": 0.0886,
      "velocity": 87,
      "chip": "ym2612"
    },
    {
      "channel": 4,
      "note": 86,
      "start": 58.5434,
      "duration": 0.0891,
      "velocity": 87,
      "chip": "ym2612"
    },
    {
      "channel": 5,
      "note": 76,
      "start": 58.5442,
      "duration": 0.3232,
      "velocity": 93,
      "chip": "ym2612"
    },
    {
      "channel": 0,
      "note": 81,
      "start": 58.6566,
      "duration": 0.0963,
      "velocity": 87,
      "chip": "ym2612"
    },
    {
      "channel": 4,
      "note": 85,
      "start": 58.6575,
      "duration": 0.0957,
      "velocity": 87,
      "chip": "ym2612"
    },
    {
      "channel": 0,
      "note": 80,
      "start": 58.7775,
      "duration": 0.0894,
      "velocity": 87,
      "chip": "ym2612"
    },
    {
      "channel": 4,
      "note": 83,
      "start": 58.7795,
      "duration": 0.0877,
      "velocity": 87,
      "chip": "ym2612"
    },
    {
      "channel": 0,
      "note": 78,
      "start": 58.8997,
      "duration": 0.092,
      "velocity": 87,
      "chip": "ym2612"
    },
    {
      "channel": 3,
      "note": 45,
      "start": 58.9033,
      "duration": 0.3333,
      "velocity": 117,
      "chip": "ym2612"
    },
    {
      "channel": 4,
      "note": 81,
      "start": 58.9045,
      "duration": 0.0886,
      "velocity": 87,
      "chip": "ym2612"
    },
    {
      "channel": 5,
      "note": 69,
      "start": 58.9057,
      "duration": 0.3315,
      "velocity": 93,
      "chip": "ym2612"
    },
    {
      "channel": 0,
      "note": 76,
      "start": 59.0243,
      "duration": 0.0896,
      "velocity": 87,
      "chip": "ym2612"
    },
    {
      "channel": 4,
      "note": 80,
      "start": 59.0264,
      "duration": 0.0878,
      "velocity": 87,
      "chip": "ym2612"
    },
    {
      "channel": 0,
      "note": 74,
      "start": 59.1471,
      "duration": 0.0883,
      "velocity": 87,
      "chip": "ym2612"
    },
    {
      "channel": 4,
      "note": 78,
      "start": 59.148,
      "duration": 0.0889,
      "velocity": 87,
      "chip": "ym2612"
    },
    {
      "channel": 0,
      "note": 73,
      "start": 59.2686,
      "duration": 0.0942,
      "velocity": 87,
      "chip": "ym2612"
    },
    {
      "channel": 1,
      "note": 62,
      "start": 59.2696,
      "duration": 0.3285,
      "velocity": 105,
      "chip": "ym2612"
    },
    {
      "channel": 3,
      "note": 105,
      "start": 59.2734,
      "duration": 0.2125,
      "velocity": 73,
      "chip": "ym2612"
    },
    {
      "channel": 4,
      "note": 76,
      "start": 59.2744,
      "duration": 0.0887,
      "velocity": 87,
      "chip": "ym2612"
    },
    {
      "channel": 5,
      "note": 76,
      "start": 59.2759,
      "duration": 0.3235,
      "velocity": 93,
      "chip": "ym2612"
    },
    {
      "channel": 0,
      "note": 71,
      "start": 59.3956,
      "duration": 0.0892,
      "velocity": 87,
      "chip": "ym2612"
    },
    {
      "channel": 4,
      "note": 74,
      "start": 59.397,
      "duration": 0.0893,
      "velocity": 87,
      "chip": "ym2612"
    },
    {
      "channel": 0,
      "note": 69,
      "start": 59.5093,
      "duration": 0.0884,
      "velocity": 87,
      "chip": "ym2612"
    },
    {
      "channel": 3,
      "note": 76,
      "start": 59.5106,
      "duration": 0.0881,
      "velocity": 73,
      "chip": "ym2612"
    },
    {
      "channel": 4,
      "note": 73,
      "start": 59.5113,
      "duration": 0.0877,
      "velocity": 87,
      "chip": "ym2612"
    },
    {
      "channel": 0,
      "note": 68,
      "start": 59.6315,
      "duration": 0.0949,
      "velocity": 87,
      "chip": "ym2612"
    },
    {
      "channel": 1,
      "note": 62,
      "start": 59.6324,
      "duration": 1.0613,
      "velocity": 105,
      "chip": "ym2612"
    },
    {
      "channel": 2,
      "note": 62,
      "start": 59.6333,
      "duration": 1.4275,
      "velocity": 93,
      "chip": "ym2612"
    },
    {
      "channel": 3,
      "note": 76,
      "start": 59.6374,
      "duration": 0.3333,
      "velocity": 109,
      "chip": "ym2612"
    },
    {
      "channel": 4,
      "note": 71,
      "start": 59.6384,
      "duration": 0.0883,
      "velocity": 87,
      "chip": "ym2612"
    },
    {
      "channel": 0,
      "note": 85,
      "start": 59.7591,
      "duration": 0.0884,
      "velocity": 87,
      "chip": "ym2612"
    },
    {
      "channel": 4,
      "note": 69,
      "start": 59.76,
      "duration": 0.0886,
      "velocity": 87,
      "chip": "ym2612"
    },
    {
      "channel": 0,
      "note": 83,
      "start": 59.8805,
      "duration": 0.09,
      "velocity": 87,
      "chip": "ym2612"
    },
    {
      "channel": 4,
      "note": 68,
      "start": 59.8828,
      "duration": 0.088,
      "velocity": 87,
      "chip": "ym2612"
    },
    {
      "channel": 0,
      "note": 81,
      "start": 60.0032,
      "duration": 0.0884,
      "velocity": 87,
      "chip": "ym2612"
    },
    {
      "channel": 3,
      "note": 45,
      "start": 60.004,
      "duration": 0.3327,
      "velocity": 109,
      "chip": "ym2612"
    },
    {
      "channel": 4,
      "note": 85,
      "start": 60.0048,
      "duration": 0.0882,
      "velocity": 87,
      "chip": "ym2612"
    },
    {
      "channel": 5,
      "note": 78,
      "start": 60.0056,
      "duration": 0.3318,
      "velocity": 93,
      "chip": "ym2612"
    },
    {
      "channel": 0,
      "note": 80,
      "start": 60.1249,
      "duration": 0.089,
      "velocity": 87,
      "chip": "ym2612"
    },
    {
      "channel": 4,
      "note": 83,
      "start": 60.1268,
      "duration": 0.0873,
      "velocity": 87,
      "chip": "ym2612"
    },
    {
      "channel": 0,
      "note": 78,
      "start": 60.2385,
      "duration": 0.0971,
      "velocity": 87,
      "chip": "ym2612"
    },
    {
      "channel": 4,
      "note": 81,
      "start": 60.2405,
      "duration": 0.0966,
      "velocity": 87,
      "chip": "ym2612"
    },
    {
      "channel": 0,
      "note": 76,
      "start": 60.3603,
      "duration": 0.089,
      "velocity": 87,
      "chip": "ym2612"
    },
    {
      "channel": 3,
      "note": 57,
      "start": 60.3612,
      "duration": 0.3333,
      "velocity": 109,
      "chip": "ym2612"
    },
    {
      "channel": 4,
      "note": 80,
      "start": 60.3624,
      "duration": 0.0883,
      "velocity": 87,
      "chip": "ym2612"
    },
    {
      "channel": 5,
      "note": 68,
      "start": 60.3637,
      "duration": 0.3316,
      "velocity": 93,
      "chip": "ym2612"
    },
    {
      "channel": 0,
      "note": 74,
      "start": 60.4822,
      "duration": 0.0896,
      "velocity": 87,
      "chip": "ym2612"
    },
    {
      "channel": 4,
      "note": 78,
      "start": 60.4842,
      "duration": 0.088,
      "velocity": 87,
      "chip": "ym2612"
    },
    {
      "channel": 0,
      "note": 73,
      "start": 60.6051,
      "duration": 0.0882,
      "velocity": 87,
      "chip": "ym2612"
    },
    {
      "channel": 4,
      "note": 76,
      "start": 60.606,
      "duration": 0.0888,
      "velocity": 87,
      "chip": "ym2612"
    },
    {
      "channel": 0,
      "note": 71,
      "start": 60.7264,
      "duration": 0.0918,
      "velocity": 87,
      "chip": "ym2612"
    },
    {
      "channel": 1,
      "note": 61,
      "start": 60.7273,
      "duration": 0.3334,
      "velocity": 105,
      "chip": "ym2612"
    },
    {
      "channel": 3,
      "note": 52,
      "start": 60.7288,
      "duration": 0.3321,
      "velocity": 109,
      "chip": "ym2612"
    },
    {
      "channel": 4,
      "note": 74,
      "start": 60.7298,
      "duration": 0.0887,
      "velocity": 87,
      "chip": "ym2612"
    },
    {
      "channel": 5,
      "note": 74,
      "start": 60.7311,
      "duration": 0.33,
      "velocity": 93,
      "chip": "ym2612"
    },
    {
      "channel": 0,
      "note": 69,
      "start": 60.8507,
      "duration": 0.0883,
      "velocity": 87,
      "chip": "ym2612"
    },
    {
      "channel": 4,
      "note": 73,
      "start": 60.8524,
      "duration": 0.088,
      "velocity": 87,
      "chip": "ym2612"
    },
    {
      "channel": 0,
      "note": 68,
      "start": 60.9637,
      "duration": 0.0969,
      "velocity": 87,
      "chip": "ym2612"
    },
    {
      "channel": 4,
      "note": 71,
      "start": 60.9645,
      "duration": 0.0965,
      "velocity": 87,
      "chip": "ym2612"
    },
    {
      "channel": 0,
      "note": 66,
      "start": 61.086,
      "duration": 0.0974,
      "velocity": 87,
      "chip": "ym2612"
    },
    {
      "channel": 1,
      "note": 54,
      "start": 61.0871,
      "duration": 1.0667,
      "velocity": 105,
      "chip": "ym2612"
    },
    {
      "channel": 2,
      "note": 61,
      "start": 61.088,
      "duration": 1.4376,
      "velocity": 93,
      "chip": "ym2612"
    },
    {
      "channel": 3,
      "note": 45,
      "start": 61.0916,
      "duration": 0.7035,
      "velocity": 109,
      "chip": "ym2612"
    },
    {
      "channel": 4,
      "note": 69,
      "start": 61.0926,
      "duration": 0.0912,
      "velocity": 87,
      "chip": "ym2612"
    },
    {
      "channel": 0,
      "note": 83,
      "start": 61.2161,
      "duration": 0.0886,
      "velocity": 87,
      "chip": "ym2612"
    },
    {
      "channel": 4,
      "note": 68,
      "start": 61.217,
      "duration": 0.0888,
      "velocity": 87,
      "chip": "ym2612"
    },
    {
      "channel": 0,
      "note": 81,
      "start": 61.3377,
      "duration": 0.0895,
      "velocity": 87,
      "chip": "ym2612"
    },
    {
      "channel": 4,
      "note": 66,
      "start": 61.34,
      "duration": 0.0875,
      "velocity": 87,
      "chip": "ym2612"
    },
    {
      "channel": 0,
      "note": 80,
      "start": 61.4603,
      "duration": 0.0889,
      "velocity": 87,
      "chip": "ym2612"
    },
    {
      "channel": 4,
      "note": 83,
      "start": 61.4612,
      "duration": 0.0894,
      "velocity": 87,
      "chip": "ym2612"
    },
    {
      "channel": 5,
      "note": 76,
      "start": 61.4619,
      "duration": 0.3339,
      "velocity": 93,
      "chip": "ym2612"
    },
    {
      "channel": 0,
      "note": 78,
      "start": 61.5825,
      "duration": 0.0899,
      "velocity": 87,
      "chip": "ym2612"
    },
    {
      "channel": 4,
      "note": 81,
      "start": 61.5848,
      "duration": 0.0878,
      "velocity": 87,
      "chip": "ym2612"
    },
    {
      "channel": 0,
      "note": 76,
      "start": 61.6971,
      "duration": 0.097,
      "velocity": 87,
      "chip": "ym2612"
    },
    {
      "channel": 4,
      "note": 80,
      "start": 61.699,
      "duration": 0.0964,
      "velocity": 87,
      "chip": "ym2612"
    },
    {
      "channel": 0,
      "note": 74,
      "start": 61.8188,
      "duration": 0.0914,
      "velocity": 87,
      "chip": "ym2612"
    },
    {
      "channel": 3,
      "note": 45,
      "start": 61.822,
      "duration": 0.3325,
      "velocity": 1,
      "chip": "ym2612"
    },
    {
      "channel": 4,
      "note": 78,
      "start": 61.8232,
      "duration": 0.0883,
      "velocity": 87,
      "chip": "ym2612"
    },
    {
      "channel": 5,
      "note": 66,
      "start": 61.8244,
      "duration": 0.3308,
      "velocity": 93,
      "chip": "ym2612"
    },
    {
      "channel": 0,
      "note": 73,
      "start": 61.9431,
      "duration": 0.0887,
      "velocity": 87,
      "chip": "ym2612"
    },
    {
      "channel": 4,
      "note": 76,
      "start": 61.9451,
      "duration": 0.087,
      "velocity": 87,
      "chip": "ym2612"
    },
    {
      "channel": 0,
      "note": 71,
      "start": 62.0649,
      "duration": 0.0885,
      "velocity": 87,
      "chip": "ym2612"
    },
    {
      "channel": 4,
      "note": 74,
      "start": 62.0658,
      "duration": 0.0891,
      "velocity": 87,
      "chip": "ym2612"
    },
    {
      "channel": 0,
      "note": 69,
      "start": 62.1863,
      "duration": 0.0941,
      "velocity": 87,
      "chip": "ym2612"
    },
    {
      "channel": 1,
      "note": 59,
      "start": 62.1874,
      "duration": 0.7013,
      "velocity": 105,
      "chip": "ym2612"
    },
    {
      "channel": 3,
      "note": 105,
      "start": 62.1912,
      "duration": 0.2121,
      "velocity": 73,
      "chip": "ym2612"
    },
    {
      "channel": 4,
      "note": 73,
      "start": 62.1922,
      "duration": 0.0889,
      "velocity": 87,
      "chip": "ym2612"
    },
    {
      "channel": 5,
      "note": 71,
      "start": 62.1937,
      "duration": 0.6954,
      "velocity": 93,
      "chip": "ym2612"
    },
    {
      "channel": 0,
      "note": 68,
      "start": 62.3132,
      "duration": 0.0886,
      "velocity": 87,
      "chip": "ym2612"
    },
    {
      "channel": 4,
      "note": 71,
      "start": 62.3149,
      "duration": 0.0888,
      "velocity": 87,
      "chip": "ym2612"
    },
    {
      "channel": 0,
      "note": 66,
      "start": 62.4353,
      "duration": 0.0901,
      "velocity": 87,
      "chip": "ym2612"
    },
    {
      "channel": 3,
      "note": 76,
      "start": 62.4374,
      "duration": 0.0883,
      "velocity": 73,
      "chip": "ym2612"
    },
    {
      "channel": 4,
      "note": 69,
      "start": 62.4385,
      "duration": 0.0874,
      "velocity": 87,
      "chip": "ym2612"
    },
    {
      "channel": 0,
      "note": 64,
      "start": 62.5502,
      "duration": 0.1017,
      "velocity": 87,
      "chip": "ym2612"
    },
    {
      "channel": 2,
      "note": 59,
      "start": 62.5517,
      "duration": 0.7022,
      "velocity": 93,
      "chip": "ym2612"
    },
    {
      "channel": 3,
      "note": 76,
      "start": 62.5556,
      "duration": 0.3332,
      "velocity": 109,
      "chip": "ym2612"
    },
    {
      "channel": 4,
      "note": 68,
      "start": 62.5565,
      "duration": 0.0964,
      "velocity": 87,
      "chip": "ym2612"
    },
    {
      "channel": 0,
      "note": 62,
      "start": 62.6769,
      "duration": 0.0889,
      "velocity": 87,
      "chip": "ym2612"
    },
    {
      "channel": 4,
      "note": 66,
      "start": 62.6778,
      "duration": 0.0891,
      "velocity": 87,
      "chip": "ym2612"
    },
    {
      "channel": 0,
      "note": 64,
      "start": 62.7988,
      "duration": 0.0897,
      "velocity": 87,
      "chip": "ym2612"
    },
    {
      "channel": 4,
      "note": 64,
      "start": 62.8005,
      "duration": 0.0884,
      "velocity": 87,
      "chip": "ym2612"
    },
    {
      "channel": 0,
      "note": 66,
      "start": 62.9212,
      "duration": 0.0886,
      "velocity": 87,
      "chip": "ym2612"
    },
    {
      "channel": 1,
      "note": 71,
      "start": 62.922,
      "duration": 0.6917,
      "velocity": 105,
      "chip": "ym2612"
    },
    {
      "channel": 3,
      "note": 45,
      "start": 62.9227,
      "duration": 0.3315,
      "velocity": 109,
      "chip": "ym2612"
    },
    {
      "channel": 4,
      "note": 62,
      "start": 62.9234,
      "duration": 0.0877,
      "velocity": 87,
      "chip": "ym2612"
    },
    {
      "channel": 5,
      "note": 73,
      "start": 62.9242,
      "duration": 0.691,
      "velocity": 93,
      "chip": "ym2612"
    },
    {
      "channel": 0,
      "note": 68,
      "start": 63.043,
      "duration": 0.0887,
      "velocity": 87,
      "chip": "ym2612"
    },
    {
      "channel": 4,
      "note": 64,
      "start": 63.045,
      "duration": 0.0871,
      "velocity": 87,
      "chip": "ym2612"
    },
    {
      "channel": 0,
      "note": 69,
      "start": 63.1644,
      "duration": 0.0889,
      "velocity": 87,
      "chip": "ym2612"
    },
    {
      "channel": 4,
      "note": 66,
      "start": 63.1653,
      "duration": 0.0893,
      "velocity": 87,
      "chip": "ym2612"
    },
    {
      "channel": 0,
      "note": 71,
      "start": 63.2785,
      "duration": 0.0986,
      "velocity": 87,
      "chip": "ym2612"
    },
    {
      "channel": 2,
      "note": 74,
      "start": 63.2793,
      "duration": 0.7018,
      "velocity": 93,
      "chip": "ym2612"
    },
    {
      "channel": 3,
      "note": 52,
      "start": 63.2801,
      "duration": 0.3344,
      "velocity": 109,
      "chip": "ym2612"
    },
    {
      "channel": 4,
      "note": 68,
      "start": 63.2813,
      "duration": 0.0961,
      "velocity": 87,
      "chip": "ym2612"
    },
    {
      "channel": 0,
      "note": 73,
      "start": 63.4021,
      "duration": 0.0896,
      "velocity": 87,
      "chip": "ym2612"
    },
    {
      "channel": 4,
      "note": 69,
      "start": 63.4038,
      "duration": 0.0882,
      "velocity": 87,
      "chip": "ym2612"
    },
    {
      "channel": 0,
      "note": 74,
      "start": 63.5248,
      "duration": 0.0885,
      "velocity": 87,
      "chip": "ym2612"
    },
    {
      "channel": 4,
      "note": 71,
      "start": 63.5257,
      "duration": 0.0891,
      "velocity": 87,
      "chip": "ym2612"
    },
    {
      "channel": 0,
      "note": 76,
      "start": 63.6461,
      "duration": 0.0919,
      "velocity": 87,
      "chip": "ym2612"
    },
    {
      "channel": 1,
      "note": 59,
      "start": 63.6471,
      "duration": 0.3339,
      "velocity": 105,
      "chip": "ym2612"
    },
    {
      "channel": 3,
      "note": 57,
      "start": 63.6486,
      "duration": 0.3326,
      "velocity": 109,
      "chip": "ym2612"
    },
    {
      "channel": 4,
      "note": 73,
      "start": 63.6495,
      "duration": 0.0888,
      "velocity": 87,
      "chip": "ym2612"
    },
    {
      "channel": 5,
      "note": 73,
      "start": 63.6506,
      "duration": 0.3308,
      "velocity": 93,
      "chip": "ym2612"
    },
    {
      "channel": 0,
      "note": 78,
      "start": 63.7707,
      "duration": 0.0885,
      "velocity": 87,
      "chip": "ym2612"
    },
    {
      "channel": 4,
      "note": 74,
      "start": 63.772,
      "duration": 0.0885,
      "velocity": 87,
      "chip": "ym2612"
    },
    {
      "channel": 0,
      "note": 80,
      "start": 63.892,
      "duration": 0.0888,
      "velocity": 87,
      "chip": "ym2612"
    },
    {
      "channel": 4,
      "note": 76,
      "start": 63.894,
      "duration": 0.0873,
      "velocity": 87,
      "chip": "ym2612"
    },
    {
      "channel": 0,
      "note": 81,
      "start": 64.0056,
      "duration": 0.1052,
      "velocity": 87,
      "chip": "ym2612"
    },
    {
      "channel": 1,
      "note": 61,
      "start": 64.0066,
      "duration": 1.0679,
      "velocity": 105,
      "chip": "ym2612"
    },
    {
      "channel": 2,
      "note": 71,
      "start": 64.0076,
      "duration": 1.4379,
      "velocity": 93,
      "chip": "ym2612"
    },
    {
      "channel": 3,
      "note": 45,
      "start": 64.0112,
      "duration": 0.7013,
      "velocity": 109,
      "chip": "ym2612"
    },
    {
      "channel": 4,
      "note": 78,
      "start": 64.0121,
      "duration": 0.0998,
      "velocity": 87,
      "chip": "ym2612"
    },
    {
      "channel": 0,
      "note": 86,
      "start": 64.1356,
      "duration": 0.0885,
      "velocity": 87,
      "chip": "ym2612"
    },
    {
      "channel": 4,
      "note": 80,
      "start": 64.1365,
      "duration": 0.0888,
      "velocity": 87,
      "chip": "ym2612"
    },
    {
      "channel": 0,
      "note": 85,
      "start": 64.2568,
      "duration": 0.0888,
      "velocity": 87,
      "chip": "ym2612"
    },
    {
      "channel": 4,
      "note": 81,
      "start": 64.2586,
      "duration": 0.0873,
      "velocity": 87,
      "chip": "ym2612"
    },
    {
      "channel": 0,
      "note": 83,
      "start": 64.3784,
      "duration": 0.089,
      "velocity": 87,
      "chip": "ym2612"
    },
    {
      "channel": 4,
      "note": 86,
      "start": 64.3793,
      "duration": 0.0898,
      "velocity": 87,
      "chip": "ym2612"
    },
    {
      "channel": 5,
      "note": 61,
      "start": 64.3801,
      "duration": 0.333,
      "velocity": 93,
      "chip": "ym2612"
    },
    {
      "channel": 0,
      "note": 81,
      "start": 64.5007,
      "duration": 0.0893,
      "velocity": 87,
      "chip": "ym2612"
    },
    {
      "channel": 4,
      "note": 85,
      "start": 64.503,
      "duration": 0.0872,
      "velocity": 87,
      "chip": "ym2612"
    },
    {
      "channel": 0,
      "note": 80,
      "start": 64.6228,
      "duration": 0.0885,
      "velocity": 87,
      "chip": "ym2612"
    },
    {
      "channel": 4,
      "note": 83,
      "start": 64.6237,
      "duration": 0.0891,
      "velocity": 87,
      "chip": "ym2612"
    },
    {
      "channel": 0,
      "note": 78,
      "start": 64.7442,
      "duration": 0.0948,
      "velocity": 87,
      "chip": "ym2612"
    },
    {
      "channel": 3,
      "note": 45,
      "start": 64.7484,
      "duration": 0.3269,
      "velocity": 117,
      "chip": "ym2612"
    },
    {
      "channel": 4,
      "note": 81,
      "start": 64.7502,
      "duration": 0.0891,
      "velocity": 87,
      "chip": "ym2612"
    },
    {
      "channel": 5,
      "note": 69,
      "start": 64.7519,
      "duration": 0.3242,
      "velocity": 93,
      "chip": "ym2612"
    },
    {
      "channel": 0,
      "note": 76,
      "start": 64.8637,
      "duration": 0.089,
      "velocity": 87,
      "chip": "ym2612"
    },
    {
      "channel": 4,
      "note": 80,
      "start": 64.8658,
      "duration": 0.0873,
      "velocity": 87,
      "chip": "ym2612"
    },
    {
      "channel": 0,
      "note": 74,
      "start": 64.986,
      "duration": 0.0881,
      "velocity": 87,
      "chip": "ym2612"
    },
    {
      "channel": 4,
      "note": 78,
      "start": 64.9869,
      "duration": 0.0887,
      "velocity": 87,
      "chip": "ym2612"
    },
    {
      "channel": 0,
      "note": 73,
      "start": 65.1068,
      "duration": 0.0938,
      "velocity": 87,
      "chip": "ym2612"
    },
    {
      "channel": 1,
      "note": 62,
      "start": 65.1077,
      "duration": 0.3377,
      "velocity": 105,
      "chip": "ym2612"
    },
    {
      "channel": 3,
      "note": 105,
      "start": 65.1116,
      "duration": 0.2113,
      "velocity": 73,
      "chip": "ym2612"
    },
    {
      "channel": 4,
      "note": 76,
      "start": 65.1126,
      "duration": 0.0884,
      "velocity": 87,
      "chip": "ym2612"
    },
    {
      "channel": 5,
      "note": 76,
      "start": 65.114,
      "duration": 0.3319,
      "velocity": 93,
      "chip": "ym2612"
    },
    {
      "channel": 0,
      "note": 71,
      "start": 65.2334,
      "duration": 0.0884,
      "velocity": 87,
      "chip": "ym2612"
    },
    {
      "channel": 4,
      "note": 74,
      "start": 65.2351,
      "duration": 0.0882,
      "velocity": 87,
      "chip": "ym2612"
    },
    {
      "channel": 0,
      "note": 69,
      "start": 65.3547,
      "duration": 0.0905,
      "velocity": 87,
      "chip": "ym2612"
    },
    {
      "channel": 3,
      "note": 76,
      "start": 65.3569,
      "duration": 0.0887,
      "velocity": 73,
      "chip": "ym2612"
    },
    {
      "channel": 4,
      "note": 73,
      "start": 65.3579,
      "duration": 0.0878,
      "velocity": 87,
      "chip": "ym2612"
    },
    {
      "channel": 0,
      "note": 68,
      "start": 65.4787,
      "duration": 0.0927,
      "velocity": 87,
      "chip": "ym2612"
    },
    {
      "channel": 1,
      "note": 62,
      "start": 65.4794,
      "duration": 1.0531,
      "velocity": 105,
      "chip": "ym2612"
    },
    {
      "channel": 2,
      "note": 62,
      "start": 65.4801,
      "duration": 1.4193,
      "velocity": 93,
      "chip": "ym2612"
    },
    {
      "channel": 3,
      "note": 76,
      "start": 65.4837,
      "duration": 0.3243,
      "velocity": 109,
      "chip": "ym2612"
    },
    {
      "channel": 4,
      "note": 71,
      "start": 65.4844,
      "duration": 0.0881,
      "velocity": 87,
      "chip": "ym2612"
    },
    {
      "channel": 0,
      "note": 85,
      "start": 65.5962,
      "duration": 0.0968,
      "velocity": 87,
      "chip": "ym2612"
    },
    {
      "channel": 4,
      "note": 69,
      "start": 65.5971,
      "duration": 0.0962,
      "velocity": 87,
      "chip": "ym2612"
    },
    {
      "channel": 0,
      "note": 83,
      "start": 65.7177,
      "duration": 0.0901,
      "velocity": 87,
      "chip": "ym2612"
    },
    {
      "channel": 4,
      "note": 68,
      "start": 65.7203,
      "duration": 0.0878,
      "velocity": 87,
      "chip": "ym2612"
    },
    {
      "channel": 0,
      "note": 81,
      "start": 65.8406,
      "duration": 0.0889,
      "velocity": 87,
      "chip": "ym2612"
    },
    {
      "channel": 3,
      "note": 45,
      "start": 65.8415,
      "duration": 0.3326,
      "velocity": 109,
      "chip": "ym2612"
    },
    {
      "channel": 4,
      "note": 85,
      "start": 65.8422,
      "duration": 0.0887,
      "velocity": 87,
      "chip": "ym2612"
    },
    {
      "channel": 5,
      "note": 78,
      "start": 65.843,
      "duration": 0.3317,
      "velocity": 93,
      "chip": "ym2612"
    },
    {
      "channel": 0,
      "note": 80,
      "start": 65.9628,
      "duration": 0.089,
      "velocity": 87,
      "chip": "ym2612"
    },
    {
      "channel": 4,
      "note": 83,
      "start": 65.9648,
      "duration": 0.0873,
      "velocity": 87,
      "chip": "ym2612"
    },
    {
      "channel": 0,
      "note": 78,
      "start": 66.0848,
      "duration": 0.0882,
      "velocity": 87,
      "chip": "ym2612"
    },
    {
      "channel": 4,
      "note": 81,
      "start": 66.0857,
      "duration": 0.0887,
      "velocity": 87,
      "chip": "ym2612"
    },
    {
      "channel": 0,
      "note": 76,
      "start": 66.2061,
      "duration": 0.091,
      "velocity": 87,
      "chip": "ym2612"
    },
    {
      "channel": 3,
      "note": 57,
      "start": 66.2079,
      "duration": 0.3254,
      "velocity": 109,
      "chip": "ym2612"
    },
    {
      "channel": 4,
      "note": 80,
      "start": 66.2093,
      "duration": 0.0881,
      "velocity": 87,
      "chip": "ym2612"
    },
    {
      "channel": 5,
      "note": 68,
      "start": 66.2103,
      "duration": 0.3236,
      "velocity": 93,
      "chip": "ym2612"
    },
    {
      "channel": 0,
      "note": 74,
      "start": 66.3218,
      "duration": 0.0969,
      "velocity": 87,
      "chip": "ym2612"
    },
    {
      "channel": 4,
      "note": 78,
      "start": 66.3238,
      "duration": 0.0963,
      "velocity": 87,
      "chip": "ym2612"
    },
    {
      "channel": 0,
      "note": 73,
      "start": 66.444,
      "duration": 0.0881,
      "velocity": 87,
      "chip": "ym2612"
    },
    {
      "channel": 4,
      "note": 76,
      "start": 66.4449,
      "duration": 0.0887,
      "velocity": 87,
      "chip": "ym2612"
    },
    {
      "channel": 0,
      "note": 71,
      "start": 66.5649,
      "duration": 0.0914,
      "velocity": 87,
      "chip": "ym2612"
    },
    {
      "channel": 1,
      "note": 61,
      "start": 66.5658,
      "duration": 0.3334,
      "velocity": 105,
      "chip": "ym2612"
    },
    {
      "channel": 3,
      "note": 52,
      "start": 66.5672,
      "duration": 0.3322,
      "velocity": 109,
      "chip": "ym2612"
    },
    {
      "channel": 4,
      "note": 74,
      "start": 66.5685,
      "duration": 0.088,
      "velocity": 87,
      "chip": "ym2612"
    },
    {
      "channel": 5,
      "note": 73,
      "start": 66.5694,
      "duration": 0.3303,
      "velocity": 93,
      "chip": "ym2612"
    },
    {
      "channel": 0,
      "note": 69,
      "start": 66.689,
      "duration": 0.0884,
      "velocity": 87,
      "chip": "ym2612"
    },
    {
      "channel": 4,
      "note": 73,
      "start": 66.6903,
      "duration": 0.0885,
      "velocity": 87,
      "chip": "ym2612"
    },
    {
      "channel": 0,
      "note": 68,
      "start": 66.8103,
      "duration": 0.0888,
      "velocity": 87,
      "chip": "ym2612"
    },
    {
      "channel": 4,
      "note": 71,
      "start": 66.8123,
      "duration": 0.0873,
      "velocity": 87,
      "chip": "ym2612"
    },
    {
      "channel": 0,
      "note": 66,
      "start": 66.9325,
      "duration": 0.095,
      "velocity": 87,
      "chip": "ym2612"
    },
    {
      "channel": 1,
      "note": 61,
      "start": 66.9332,
      "duration": 1.0588,
      "velocity": 105,
      "chip": "ym2612"
    },
    {
      "channel": 2,
      "note": 61,
      "start": 66.9339,
      "duration": 1.4291,
      "velocity": 93,
      "chip": "ym2612"
    },
    {
      "channel": 3,
      "note": 45,
      "start": 66.9376,
      "duration": 0.6929,
      "velocity": 109,
      "chip": "ym2612"
    },
    {
      "channel": 4,
      "note": 69,
      "start": 66.9385,
      "duration": 0.0901,
      "velocity": 87,
      "chip": "ym2612"
    },
    {
      "channel": 0,
      "note": 83,
      "start": 67.0523,
      "duration": 0.0966,
      "velocity": 87,
      "chip": "ym2612"
    },
    {
      "channel": 4,
      "note": 68,
      "start": 67.0532,
      "duration": 0.096,
      "velocity": 87,
      "chip": "ym2612"
    },
    {
      "channel": 0,
      "note": 81,
      "start": 67.1737,
      "duration": 0.0896,
      "velocity": 87,
      "chip": "ym2612"
    },
    {
      "channel": 4,
      "note": 66,
      "start": 67.176,
      "duration": 0.0875,
      "velocity": 87,
      "chip": "ym2612"
    },
    {
      "channel": 0,
      "note": 80,
      "start": 67.2961,
      "duration": 0.0889,
      "velocity": 87,
      "chip": "ym2612"
    },
    {
      "channel": 4,
      "note": 83,
      "start": 67.2971,
      "duration": 0.0893,
      "velocity": 87,
      "chip": "ym2612"
    },
    {
      "channel": 5,
      "note": 74,
      "start": 67.2978,
      "duration": 0.3336,
      "velocity": 93,
      "chip": "ym2612"
    },
    {
      "channel": 0,
      "note": 78,
      "start": 67.4186,
      "duration": 0.0892,
      "velocity": 87,
      "chip": "ym2612"
    },
    {
      "channel": 4,
      "note": 81,
      "start": 67.4207,
      "duration": 0.0875,
      "velocity": 87,
      "chip": "ym2612"
    },
    {
      "channel": 0,
      "note": 76,
      "start": 67.5406,
      "duration": 0.0889,
      "velocity": 87,
      "chip": "ym2612"
    },
    {
      "channel": 4,
      "note": 80,
      "start": 67.5415,
      "duration": 0.0894,
      "velocity": 87,
      "chip": "ym2612"
    },
    {
      "channel": 0,
      "note": 74,
      "start": 67.6624,
      "duration": 0.0941,
      "velocity": 87,
      "chip": "ym2612"
    },
    {
      "channel": 3,
      "note": 45,
      "start": 67.6665,
      "duration": 0.3263,
      "velocity": 1,
      "chip": "ym2612"
    },
    {
      "channel": 4,
      "note": 78,
      "start": 67.6682,
      "duration": 0.0886,
      "velocity": 87,
      "chip": "ym2612"
    },
    {
      "channel": 5,
      "note": 66,
      "start": 67.6696,
      "duration": 0.3238,
      "velocity": 93,
      "chip": "ym2612"
    },
    {
      "channel": 0,
      "note": 73,
      "start": 67.7895,
      "duration": 0.0887,
      "velocity": 87,
      "chip": "ym2612"
    },
    {
      "channel": 4,
      "note": 76,
      "start": 67.7904,
      "duration": 0.0891,
      "velocity": 87,
      "chip": "ym2612"
    },
    {
      "channel": 0,
      "note": 71,
      "start": 67.9032,
      "duration": 0.0885,
      "velocity": 87,
      "chip": "ym2612"
    },
    {
      "channel": 4,
      "note": 74,
      "start": 67.904,
      "duration": 0.0891,
      "velocity": 87,
      "chip": "ym2612"
    },
    {
      "channel": 0,
      "note": 69,
      "start": 68.0245,
      "duration": 0.0939,
      "velocity": 87,
      "chip": "ym2612"
    },
    {
      "channel": 1,
      "note": 59,
      "start": 68.0254,
      "duration": 0.3376,
      "velocity": 105,
      "chip": "ym2612"
    },
    {
      "channel": 3,
      "note": 105,
      "start": 68.0292,
      "duration": 0.2113,
      "velocity": 73,
      "chip": "ym2612"
    },
    {
      "channel": 4,
      "note": 73,
      "start": 68.0302,
      "duration": 0.0884,
      "velocity": 87,
      "chip": "ym2612"
    },
    {
      "channel": 5,
      "note": 71,
      "start": 68.0317,
      "duration": 0.3317,
      "velocity": 93,
      "chip": "ym2612"
    },
    {
      "channel": 0,
      "note": 68,
      "start": 68.1511,
      "duration": 0.0883,
      "velocity": 87,
      "chip": "ym2612"
    },
    {
      "channel": 4,
      "note": 71,
      "start": 68.1527,
      "duration": 0.0882,
      "velocity": 87,
      "chip": "ym2612"
    },
    {
      "channel": 0,
      "note": 66,
      "start": 68.2723,
      "duration": 0.0905,
      "velocity": 87,
      "chip": "ym2612"
    },
    {
      "channel": 3,
      "note": 76,
      "start": 68.2745,
      "duration": 0.0887,
      "velocity": 73,
      "chip": "ym2612"
    },
    {
      "channel": 4,
      "note": 69,
      "start": 68.2754,
      "duration": 0.0879,
      "velocity": 87,
      "chip": "ym2612"
    },
    {
      "channel": 0,
      "note": 64,
      "start": 68.3956,
      "duration": 0.092,
      "velocity": 87,
      "chip": "ym2612"
    },
    {
      "channel": 1,
      "note": 59,
      "start": 68.3963,
      "duration": 1.0595,
      "velocity": 105,
      "chip": "ym2612"
    },
    {
      "channel": 2,
      "note": 59,
      "start": 68.3971,
      "duration": 1.4189,
      "velocity": 93,
      "chip": "ym2612"
    },
    {
      "channel": 3,
      "note": 76,
      "start": 68.4007,
      "duration": 0.3316,
      "velocity": 109,
      "chip": "ym2612"
    },
    {
      "channel": 4,
      "note": 68,
      "start": 68.4017,
      "duration": 0.087,
      "velocity": 87,
      "chip": "ym2612"
    },
    {
      "channel": 0,
      "note": 62,
      "start": 68.5205,
      "duration": 0.0889,
      "velocity": 87,
      "chip": "ym2612"
    },
    {
      "channel": 4,
      "note": 66,
      "start": 68.5222,
      "duration": 0.0875,
      "velocity": 87,
      "chip": "ym2612"
    },
    {
      "channel": 0,
      "note": 64,
      "start": 68.634,
      "duration": 0.0972,
      "velocity": 87,
      "chip": "ym2612"
    },
    {
      "channel": 4,
      "note": 64,
      "start": 68.636,
      "duration": 0.0966,
      "velocity": 87,
      "chip": "ym2612"
    },
    {
      "channel": 0,
      "note": 66,
      "start": 68.7562,
      "duration": 0.0886,
      "velocity": 87,
      "chip": "ym2612"
    },
    {
      "channel": 3,
      "note": 45,
      "start": 68.757,
      "duration": 0.3327,
      "velocity": 109,
      "chip": "ym2612"
    },
    {
      "channel": 4,
      "note": 62,
      "start": 68.7577,
      "duration": 0.0884,
      "velocity": 87,
      "chip": "ym2612"
    },
    {
      "channel": 5,
      "note": 73,
      "start": 68.7585,
      "duration": 0.3319,
      "velocity": 93,
      "chip": "ym2612"
    },
    {
      "channel": 0,
      "note": 68,
      "start": 68.8782,
      "duration": 0.0891,
      "velocity": 87,
      "chip": "ym2612"
    },
    {
      "channel": 4,
      "note": 64,
      "start": 68.8802,
      "duration": 0.0874,
      "velocity": 87,
      "chip": "ym2612"
    },
    {
      "channel": 0,
      "note": 69,
      "start": 69.0001,
      "duration": 0.0885,
      "velocity": 87,
      "chip": "ym2612"
    },
    {
      "channel": 4,
      "note": 66,
      "start": 69.001,
      "duration": 0.089,
      "velocity": 87,
      "chip": "ym2612"
    },
    {
      "channel": 0,
      "note": 71,
      "start": 69.1214,
      "duration": 0.0914,
      "velocity": 87,
      "chip": "ym2612"
    },
    {
      "channel": 3,
      "note": 52,
      "start": 69.1232,
      "duration": 0.3328,
      "velocity": 109,
      "chip": "ym2612"
    },
    {
      "channel": 4,
      "note": 68,
      "start": 69.1246,
      "duration": 0.0885,
      "velocity": 87,
      "chip": "ym2612"
    },
    {
      "channel": 5,
      "note": 64,
      "start": 69.1261,
      "duration": 0.3302,
      "velocity": 93,
      "chip": "ym2612"
    },
    {
      "channel": 0,
      "note": 73,
      "start": 69.2455,
      "duration": 0.0885,
      "velocity": 87,
      "chip": "ym2612"
    },
    {
      "channel": 4,
      "note": 69,
      "start": 69.2463,
      "duration": 0.0893,
      "velocity": 87,
      "chip": "ym2612"
    },
    {
      "channel": 0,
      "note": 74,
      "start": 69.3591,
      "duration": 0.0966,
      "velocity": 87,
      "chip": "ym2612"
    },
    {
      "channel": 4,
      "note": 71,
      "start": 69.36,
      "duration": 0.0961,
      "velocity": 87,
      "chip": "ym2612"
    },
    {
      "channel": 0,
      "note": 76,
      "start": 69.4804,
      "duration": 0.092,
      "velocity": 87,
      "chip": "ym2612"
    },
    {
      "channel": 1,
      "note": 57,
      "start": 69.4813,
      "duration": 0.3345,
      "velocity": 105,
      "chip": "ym2612"
    },
    {
      "channel": 3,
      "note": 57,
      "start": 69.4829,
      "duration": 0.3332,
      "velocity": 109,
      "chip": "ym2612"
    },
    {
      "channel": 4,
      "note": 73,
      "start": 69.4838,
      "duration": 0.0889,
      "velocity": 87,
      "chip": "ym2612"
    },
    {
      "channel": 5,
      "note": 69,
      "start": 69.4855,
      "duration": 0.3308,
      "velocity": 93,
      "chip": "ym2612"
    },
    {
      "channel": 0,
      "note": 78,
      "start": 69.6056,
      "duration": 0.0883,
      "velocity": 87,
      "chip": "ym2612"
    },
    {
      "channel": 4,
      "note": 74,
      "start": 69.607,
      "duration": 0.0883,
      "velocity": 87,
      "chip": "ym2612"
    },
    {
      "channel": 0,
      "note": 80,
      "start": 69.727,
      "duration": 0.0888,
      "velocity": 87,
      "chip": "ym2612"
    },
    {
      "channel": 4,
      "note": 76,
      "start": 69.729,
      "duration": 0.0872,
      "velocity": 87,
      "chip": "ym2612"
    },
    {
      "channel": 0,
      "note": 81,
      "start": 69.8491,
      "duration": 0.1506,
      "velocity": 87,
      "chip": "ym2612"
    },
    {
      "channel": 1,
      "note": 54,
      "start": 69.8499,
      "duration": 1.066,
      "velocity": 105,
      "chip": "ym2612"
    },
    {
      "channel": 2,
      "note": 57,
      "start": 69.8507,
      "duration": 1.4276,
      "velocity": 93,
      "chip": "ym2612"
    },
    {
      "channel": 3,
      "note": 45,
      "start": 69.8544,
      "duration": 0.6899,
      "velocity": 109,
      "chip": "ym2612"
    },
    {
      "channel": 4,
      "note": 78,
      "start": 69.8556,
      "duration": 0.0887,
      "velocity": 87,
      "chip": "ym2612"
    },
    {
      "channel": 4,
      "note": 80,
      "start": 69.9771,
      "duration": 0.0875,
      "velocity": 87,
      "chip": "ym2612"
    },
    {
      "channel": 0,
      "note": 76,
      "start": 70.0324,
      "duration": 0.1538,
      "velocity": 87,
      "chip": "ym2612"
    },
    {
      "channel": 4,
      "note": 81,
      "start": 70.091,
      "duration": 0.1522,
      "velocity": 87,
      "chip": "ym2612"
    },
    {
      "channel": 0,
      "note": 78,
      "start": 70.2114,
      "duration": 0.153,
      "velocity": 87,
      "chip": "ym2612"
    },
    {
      "channel": 5,
      "note": 71,
      "start": 70.2123,
      "duration": 0.3326,
      "velocity": 93,
      "chip": "ym2612"
    },
    {
      "channel": 4,
      "note": 76,
      "start": 70.2761,
      "duration": 0.146,
      "velocity": 87,
      "chip": "ym2612"
    },
    {
      "channel": 0,
      "note": 80,
      "start": 70.3981,
      "duration": 0.1451,
      "velocity": 87,
      "chip": "ym2612"
    },
    {
      "channel": 4,
      "note": 78,
      "start": 70.4553,
      "duration": 0.1612,
      "velocity": 87,
      "chip": "ym2612"
    },
    {
      "channel": 0,
      "note": 81,
      "start": 70.5768,
      "duration": 0.1518,
      "velocity": 87,
      "chip": "ym2612"
    },
    {
      "channel": 3,
      "note": 45,
      "start": 70.581,
      "duration": 0.335,
      "velocity": 117,
      "chip": "ym2612"
    },
    {
      "channel": 5,
      "note": 59,
      "start": 70.5831,
      "duration": 0.3331,
      "velocity": 93,
      "chip": "ym2612"
    },
    {
      "channel": 4,
      "note": 80,
      "start": 70.6406,
      "duration": 0.1548,
      "velocity": 87,
      "chip": "ym2612"
    },
    {
      "channel": 0,
      "note": 80,
      "start": 70.7619,
      "duration": 0.1538,
      "velocity": 87,
      "chip": "ym2612"
    },
    {
      "channel": 4,
      "note": 81,
      "start": 70.8288,
      "duration": 0.1495,
      "velocity": 87,
      "chip": "ym2612"
    },
    {
      "channel": 0,
      "note": 78,
      "start": 70.9405,
      "duration": 0.1584,
      "velocity": 87,
      "chip": "ym2612"
    },
    {
      "channel": 1,
      "note": 52,
      "start": 70.9415,
      "duration": 0.701,
      "velocity": 105,
      "chip": "ym2612"
    },
    {
      "channel": 3,
      "note": 105,
      "start": 70.9454,
      "duration": 0.2112,
      "velocity": 73,
      "chip": "ym2612"
    },
    {
      "channel": 5,
      "note": 64,
      "start": 70.9471,
      "duration": 0.6969,
      "velocity": 93,
      "chip": "ym2612"
    },
    {
      "channel": 4,
      "note": 80,
      "start": 71.0119,
      "duration": 0.1451,
      "velocity": 87,
      "chip": "ym2612"
    },
    {
      "channel": 0,
      "note": 76,
      "start": 71.1315,
      "duration": 0.1466,
      "velocity": 87,
      "chip": "ym2612"
    },
    {
      "channel": 3,
      "note": 76,
      "start": 71.19,
      "duration": 0.2101,
      "velocity": 73,
      "chip": "ym2612"
    },
    {
      "channel": 4,
      "note": 78,
      "start": 71.1909,
      "duration": 0.1518,
      "velocity": 87,
      "chip": "ym2612"
    },
    {
      "channel": 0,
      "note": 78,
      "start": 71.3112,
      "duration": 0.1451,
      "velocity": 87,
      "chip": "ym2612"
    },
    {
      "channel": 2,
      "note": 52,
      "start": 71.3121,
      "duration": 0.6901,
      "velocity": 93,
      "chip": "ym2612"
    },
    {
      "channel": 4,
      "note": 76,
      "start": 71.3686,
      "duration": 0.1525,
      "velocity": 87,
      "chip": "ym2612"
    },
    {
      "channel": 3,
      "note": 76,
      "start": 71.4332,
      "duration": 0.21,
      "velocity": 73,
      "chip": "ym2612"
    },
    {
      "channel": 0,
      "note": 80,
      "start": 71.4895,
      "duration": 0.1527,
      "velocity": 87,
      "chip": "ym2612"
    },
    {
      "channel": 4,
      "note": 78,
      "start": 71.5542,
      "duration": 0.1478,
      "velocity": 87,
      "chip": "ym2612"
    },
    {
      "channel": 0,
      "note": 81,
      "start": 71.6673,
      "duration": 0.1554,
      "velocity": 87,
      "chip": "ym2612"
    },
    {
      "channel": 1,
      "note": 52,
      "start": 71.6684,
      "duration": 0.6991,
      "velocity": 105,
      "chip": "ym2612"
    },
    {
      "channel": 3,
      "note": 76,
      "start": 71.672,
      "duration": 0.3305,
      "velocity": 109,
      "chip": "ym2612"
    },
    {
      "channel": 5,
      "note": 66,
      "start": 71.6728,
      "duration": 0.6953,
      "velocity": 93,
      "chip": "ym2612"
    },
    {
      "channel": 4,
      "note": 80,
      "start": 71.7355,
      "duration": 0.1444,
      "velocity": 87,
      "chip": "ym2612"
    },
    {
      "channel": 0,
      "note": 80,
      "start": 71.8561,
      "duration": 0.1455,
      "velocity": 87,
      "chip": "ym2612"
    },
    {
      "channel": 4,
      "note": 81,
      "start": 71.9132,
      "duration": 0.1556,
      "velocity": 87,
      "chip": "ym2612"
    },
    {
      "channel": 0,
      "note": 78,
      "start": 72.0341,
      "duration": 0.1468,
      "velocity": 87,
      "chip": "ym2612"
    },
    {
      "channel": 2,
      "note": 68,
      "start": 72.0356,
      "duration": 0.6911,
      "velocity": 93,
      "chip": "ym2612"
    },
    {
      "channel": 3,
      "note": 45,
      "start": 72.0366,
      "duration": 0.331,
      "velocity": 109,
      "chip": "ym2612"
    },
    {
      "channel": 4,
      "note": 80,
      "start": 72.0927,
      "duration": 0.1541,
      "velocity": 87,
      "chip": "ym2612"
    },
    {
      "channel": 0,
      "note": 76,
      "start": 72.2137,
      "duration": 0.1536,
      "velocity": 87,
      "chip": "ym2612"
    },
    {
      "channel": 4,
      "note": 78,
      "start": 72.2795,
      "duration": 0.1487,
      "velocity": 87,
      "chip": "ym2612"
    },
    {
      "channel": 0,
      "note": 78,
      "start": 72.3923,
      "duration": 0.1555,
      "velocity": 87,
      "chip": "ym2612"
    },
    {
      "channel": 1,
      "note": 52,
      "start": 72.3934,
      "duration": 0.3331,
      "velocity": 105,
      "chip": "ym2612"
    },
    {
      "channel": 3,
      "note": 57,
      "start": 72.3949,
      "duration": 0.332,
      "velocity": 109,
      "chip": "ym2612"
    },
    {
      "channel": 5,
      "note": 66,
      "start": 72.3962,
      "duration": 0.7027,
      "velocity": 93,
      "chip": "ym2612"
    },
    {
      "channel": 4,
      "note": 76,
      "start": 72.4609,
      "duration": 0.1451,
      "velocity": 87,
      "chip": "ym2612"
    },
    {
      "channel": 0,
      "note": 80,
      "start": 72.5814,
      "duration": 0.145,
      "velocity": 87,
      "chip": "ym2612"
    },
    {
      "channel": 4,
      "note": 78,
      "start": 72.6392,
      "duration": 0.158,
      "velocity": 87,
      "chip": "ym2612"
    },
    {
      "channel": 0,
      "note": 81,
      "start": 72.7598,
      "duration": 0.1594,
      "velocity": 87,
      "chip": "ym2612"
    },
    {
      "channel": 1,
      "note": 59,
      "start": 72.7605,
      "duration": 1.0632,
      "velocity": 105,
      "chip": "ym2612"
    },
    {
      "channel": 2,
      "note": 64,
      "start": 72.7612,
      "duration": 1.424,
      "velocity": 93,
      "chip": "ym2612"
    },
    {
      "channel": 3,
      "note": 52,
      "start": 72.7647,
      "duration": 0.6903,
      "velocity": 109,
      "chip": "ym2612"
    },
    {
      "channel": 4,
      "note": 80,
      "start": 72.8234,
      "duration": 0.1527,
      "velocity": 87,
      "chip": "ym2612"
    },
    {
      "channel": 0,
      "note": 80,
      "start": 72.9443,
      "duration": 0.153,
      "velocity": 87,
      "chip": "ym2612"
    },
    {
      "channel": 4,
      "note": 81,
      "start": 73.0095,
      "duration": 0.1454,
      "velocity": 87,
      "chip": "ym2612"
    },
    {
      "channel": 0,
      "note": 78,
      "start": 73.1305,
      "duration": 0.1455,
      "velocity": 87,
      "chip": "ym2612"
    },
    {
      "channel": 5,
      "note": 59,
      "start": 73.1328,
      "duration": 0.3227,
      "velocity": 93,
      "chip": "ym2612"
    },
    {
      "channel": 4,
      "note": 80,
      "start": 73.188,
      "duration": 0.1445,
      "velocity": 87,
      "chip": "ym2612"
    },
    {
      "channel": 0,
      "note": 76,
      "start": 73.3086,
      "duration": 0.1452,
      "velocity": 87,
      "chip": "ym2612"
    },
    {
      "channel": 4,
      "note": 78,
      "start": 73.3652,
      "duration": 0.159,
      "velocity": 87,
      "chip": "ym2612"
    },
    {
      "channel": 0,
      "note": 78,
      "start": 73.4872,
      "duration": 0.1576,
      "velocity": 87,
      "chip": "ym2612"
    },
    {
      "channel": 3,
      "note": 45,
      "start": 73.4913,
      "duration": 0.3325,
      "velocity": 1,
      "chip": "ym2612"
    },
    {
      "channel": 5,
      "note": 59,
      "start": 73.493,
      "duration": 0.331,
      "velocity": 93,
      "chip": "ym2612"
    },
    {
      "channel": 4,
      "note": 76,
      "start": 73.5479,
      "duration": 0.1551,
      "velocity": 87,
      "chip": "ym2612"
    },
    {
      "channel": 0,
      "note": 80,
      "start": 73.6699,
      "duration": 0.1537,
      "velocity": 87,
      "chip": "ym2612"
    },
    {
      "channel": 4,
      "note": 78,
      "start": 73.7366,
      "duration": 0.1475,
      "velocity": 87,
      "chip": "ym2612"
    },
    {
      "channel": 0,
      "note": 81,
      "start": 73.8568,
      "duration": 0.1488,
      "velocity": 87,
      "chip": "ym2612"
    },
    {
      "channel": 1,
      "note": 64,
      "start": 73.8575,
      "duration": 0.6922,
      "velocity": 105,
      "chip": "ym2612"
    },
    {
      "channel": 3,
      "note": 105,
      "start": 73.8607,
      "duration": 0.2098,
      "velocity": 73,
      "chip": "ym2612"
    },
    {
      "channel": 5,
      "note": 64,
      "start": 73.8619,
      "duration": 0.6896,
      "velocity": 93,
      "chip": "ym2612"
    },
    {
      "channel": 4,
      "note": 80,
      "start": 73.9175,
      "duration": 0.1531,
      "velocity": 87,
      "chip": "ym2612"
    },
    {
      "channel": 0,
      "note": 80,
      "start": 74.0389,
      "duration": 0.1461,
      "velocity": 87,
      "chip": "ym2612"
    },
    {
      "channel": 3,
      "note": 76,
      "start": 74.0965,
      "duration": 0.2106,
      "velocity": 73,
      "chip": "ym2612"
    },
    {
      "channel": 4,
      "note": 81,
      "start": 74.0979,
      "duration": 0.1517,
      "velocity": 87,
      "chip": "ym2612"
    },
    {
      "channel": 0,
      "note": 78,
      "start": 74.2177,
      "duration": 0.1535,
      "velocity": 87,
      "chip": "ym2612"
    },
    {
      "channel": 2,
      "note": 52,
      "start": 74.2188,
      "duration": 0.6928,
      "velocity": 93,
      "chip": "ym2612"
    },
    {
      "channel": 4,
      "note": 80,
      "start": 74.2756,
      "duration": 0.1524,
      "velocity": 87,
      "chip": "ym2612"
    },
    {
      "channel": 3,
      "note": 76,
      "start": 74.3402,
      "duration": 0.2103,
      "velocity": 73,
      "chip": "ym2612"
    },
    {
      "channel": 0,
      "note": 76,
      "start": 74.3958,
      "duration": 0.1535,
      "velocity": 87,
      "chip": "ym2612"
    },
    {
      "channel": 4,
      "note": 78,
      "start": 74.4607,
      "duration": 0.1505,
      "velocity": 87,
      "chip": "ym2612"
    },
    {
      "channel": 0,
      "note": 78,
      "start": 74.5822,
      "duration": 0.1504,
      "velocity": 87,
      "chip": "ym2612"
    },
    {
      "channel": 1,
      "note": 64,
      "start": 74.5832,
      "duration": 0.6951,
      "velocity": 105,
      "chip": "ym2612"
    },
    {
      "channel": 3,
      "note": 76,
      "start": 74.5878,
      "duration": 0.3241,
      "velocity": 109,
      "chip": "ym2612"
    },
    {
      "channel": 5,
      "note": 66,
      "start": 74.5891,
      "duration": 0.6896,
      "velocity": 93,
      "chip": "ym2612"
    },
    {
      "channel": 4,
      "note": 76,
      "start": 74.6439,
      "duration": 0.1548,
      "velocity": 87,
      "chip": "ym2612"
    },
    {
      "channel": 0,
      "note": 80,
      "start": 74.7654,
      "duration": 0.1457,
      "velocity": 87,
      "chip": "ym2612"
    },
    {
      "channel": 4,
      "note": 78,
      "start": 74.8229,
      "duration": 0.1556,
      "velocity": 87,
      "chip": "ym2612"
    },
    {
      "channel": 0,
      "note": 81,
      "start": 74.9443,
      "duration": 0.0905,
      "velocity": 87,
      "chip": "ym2612"
    },
    {
      "channel": 2,
      "note": 68,
      "start": 74.9456,
      "duration": 0.6898,
      "velocity": 93,
      "chip": "ym2612"
    },
    {
      "channel": 3,
      "note": 45,
      "start": 74.9465,
      "duration": 0.332,
      "velocity": 109,
      "chip": "ym2612"
    },
    {
      "channel": 4,
      "note": 80,
      "start": 75.0115,
      "duration": 0.1454,
      "velocity": 87,
      "chip": "ym2612"
    },
    {
      "channel": 0,
      "note": 78,
      "start": 75.0672,
      "duration": 0.0885,
      "velocity": 87,
      "chip": "ym2612"
    },
    {
      "channel": 0,
      "note": 80,
      "start": 75.189,
      "duration": 0.0892,
      "velocity": 87,
      "chip": "ym2612"
    },
    {
      "channel": 4,
      "note": 81,
      "start": 75.1907,
      "duration": 0.0878,
      "velocity": 87,
      "chip": "ym2612"
    },
    {
      "channel": 0,
      "note": 81,
      "start": 75.311,
      "duration": 0.0888,
      "velocity": 87,
      "chip": "ym2612"
    },
    {
      "channel": 1,
      "note": 52,
      "start": 75.3117,
      "duration": 0.3236,
      "velocity": 105,
      "chip": "ym2612"
    },
    {
      "channel": 3,
      "note": 52,
      "start": 75.3125,
      "duration": 0.323,
      "velocity": 109,
      "chip": "ym2612"
    },
    {
      "channel": 4,
      "note": 78,
      "start": 75.3132,
      "duration": 0.0882,
      "velocity": 87,
      "chip": "ym2612"
    },
    {
      "channel": 5,
      "note": 69,
      "start": 75.314,
      "duration": 0.3217,
      "velocity": 93,
      "chip": "ym2612"
    },
    {
      "channel": 0,
      "note": 83,
      "start": 75.4245,
      "duration": 0.0969,
      "velocity": 87,
      "chip": "ym2612"
    },
    {
      "channel": 4,
      "note": 80,
      "start": 75.4254,
      "duration": 0.0963,
      "velocity": 87,
      "chip": "ym2612"
    },
    {
      "channel": 0,
      "note": 85,
      "start": 75.5461,
      "duration": 0.089,
      "velocity": 87,
      "chip": "ym2612"
    },
    {
      "channel": 4,
      "note": 81,
      "start": 75.5481,
      "duration": 0.0875,
      "velocity": 87,
      "chip": "ym2612"
    },
    {
      "channel": 0,
      "note": 86,
      "start": 75.6717,
      "duration": 1.0894,
      "velocity": 94,
      "chip": "ym2612"
    },
    {
      "channel": 1,
      "note": 52,
      "start": 75.6727,
      "duration": 1.0719,
      "velocity": 105,
      "chip": "ym2612"
    },
    {
      "channel": 2,
      "note": 71,
      "start": 75.6768,
      "duration": 1.0679,
      "velocity": 93,
      "chip": "ym2612"
    },
    {
      "channel": 3,
      "note": 57,
      "start": 75.6803,
      "duration": 0.6976,
      "velocity": 109,
      "chip": "ym2612"
    },
    {
      "channel": 4,
      "note": 83,
      "start": 75.6853,
      "duration": 1.0757,
      "velocity": 81,
      "chip": "ym2612"
    },
    {
      "channel": 5,
      "note": 73,
      "start": 76.0544,
      "duration": 0.3241,
      "velocity": 93,
      "chip": "ym2612"
    },
    {
      "channel": 3,
      "note": 45,
      "start": 76.4133,
      "duration": 0.3316,
      "velocity": 117,
      "chip": "ym2612"
    },
    {
      "channel": 5,
      "note": 64,
      "start": 76.4154,
      "duration": 0.3296,
      "velocity": 93,
      "chip": "ym2612"
    }
  ]
}