{
  "track_name": "01 - Tittle-Tattle",
  "duration_sec": 36.22,
  "sample_rate": 44100,
  "note_count": 504,
  "unique_pitches": 24,
  "pitch_range": 74,
  "avg_note_duration": 0.2701,
  "reconstruction_stats": {
    "notes_reconstructed": 504,
    "keyon_events": 504,
    "keyoff_events": 502,
    "orphan_keyons": 2,
    "unique_pitches": 24,
    "pitch_range": 74,
    "avg_duration_sec": 0.2701
  },
  "metadata": {
    "source": "V\\Viper-GTS\\01 - Tittle-Tattle.vgz"
  },
  "notes": [
    {
      "channel": 1,
      "note": 47,
      "start": 0.0024,
      "duration": 0.2507,
      "velocity": 91,
      "chip": "ym2612"
    },
    {
      "channel": 3,
      "note": 54,
      "start": 0.0047,
      "duration": 0.7358,
      "velocity": 99,
      "chip": "ym2612"
    },
    {
      "channel": 4,
      "note": 50,
      "start": 0.0068,
      "duration": 0.7339,
      "velocity": 99,
      "chip": "ym2612"
    },
    {
      "channel": 5,
      "note": 66,
      "start": 0.0088,
      "duration": 0.3379,
      "velocity": 127,
      "chip": "ym2612"
    },
    {
      "channel": 5,
      "note": 53,
      "start": 0.3798,
      "duration": 0.0291,
      "velocity": 121,
      "chip": "ym2612"
    },
    {
      "channel": 1,
      "note": 46,
      "start": 0.6266,
      "duration": 0.1242,
      "velocity": 91,
      "chip": "ym2612"
    },
    {
      "channel": 5,
      "note": 53,
      "start": 0.6271,
      "duration": 0.0307,
      "velocity": 121,
      "chip": "ym2612"
    },
    {
      "channel": 1,
      "note": 47,
      "start": 0.751,
      "duration": 0.2486,
      "velocity": 91,
      "chip": "ym2612"
    },
    {
      "channel": 3,
      "note": 57,
      "start": 0.7514,
      "duration": 0.7356,
      "velocity": 99,
      "chip": "ym2612"
    },
    {
      "channel": 4,
      "note": 54,
      "start": 0.7517,
      "duration": 0.7354,
      "velocity": 99,
      "chip": "ym2612"
    },
    {
      "channel": 5,
      "note": 66,
      "start": 0.754,
      "duration": 0.3392,
      "velocity": 127,
      "chip": "ym2612"
    },
    {
      "channel": 5,
      "note": 53,
      "start": 1.1263,
      "duration": 0.0292,
      "velocity": 121,
      "chip": "ym2612"
    },
    {
      "channel": 1,
      "note": 46,
      "start": 1.3731,
      "duration": 0.1242,
      "velocity": 91,
      "chip": "ym2612"
    },
    {
      "channel": 5,
      "note": 53,
      "start": 1.3736,
      "duration": 0.0306,
      "velocity": 121,
      "chip": "ym2612"
    },
    {
      "channel": 1,
      "note": 47,
      "start": 1.4975,
      "duration": 0.2486,
      "velocity": 91,
      "chip": "ym2612"
    },
    {
      "channel": 3,
      "note": 56,
      "start": 1.4979,
      "duration": 0.7356,
      "velocity": 99,
      "chip": "ym2612"
    },
    {
      "channel": 4,
      "note": 52,
      "start": 1.4982,
      "duration": 0.7354,
      "velocity": 99,
      "chip": "ym2612"
    },
    {
      "channel": 5,
      "note": 66,
      "start": 1.5002,
      "duration": 0.3395,
      "velocity": 127,
      "chip": "ym2612"
    },
    {
      "channel": 5,
      "note": 53,
      "start": 1.873,
      "duration": 0.0289,
      "velocity": 121,
      "chip": "ym2612"
    },
    {
      "channel": 1,
      "note": 46,
      "start": 2.1196,
      "duration": 0.1242,
      "velocity": 91,
      "chip": "ym2612"
    },
    {
      "channel": 5,
      "note": 53,
      "start": 2.1201,
      "duration": 0.0306,
      "velocity": 121,
      "chip": "ym2612"
    },
    {
      "channel": 1,
      "note": 47,
      "start": 2.244,
      "duration": 0.2486,
      "velocity": 91,
      "chip": "ym2612"
    },
    {
      "channel": 3,
      "note": 55,
      "start": 2.2444,
      "duration": 0.7356,
      "velocity": 99,
      "chip": "ym2612"
    },
    {
      "channel": 4,
      "note": 50,
      "start": 2.2447,
      "duration": 0.7354,
      "velocity": 99,
      "chip": "ym2612"
    },
    {
      "channel": 5,
      "note": 66,
      "start": 2.2467,
      "duration": 0.3395,
      "velocity": 127,
      "chip": "ym2612"
    },
    {
      "channel": 5,
      "note": 53,
      "start": 2.6193,
      "duration": 0.0291,
      "velocity": 121,
      "chip": "ym2612"
    },
    {
      "channel": 5,
      "note": 53,
      "start": 2.8664,
      "duration": 0.0309,
      "velocity": 121,
      "chip": "ym2612"
    },
    {
      "channel": 1,
      "note": 47,
      "start": 2.9905,
      "duration": 0.2486,
      "velocity": 91,
      "chip": "ym2612"
    },
    {
      "channel": 3,
      "note": 54,
      "start": 2.9909,
      "duration": 0.7356,
      "velocity": 99,
      "chip": "ym2612"
    },
    {
      "channel": 4,
      "note": 50,
      "start": 2.9912,
      "duration": 0.7354,
      "velocity": 99,
      "chip": "ym2612"
    },
    {
      "channel": 5,
      "note": 66,
      "start": 2.9934,
      "duration": 0.3393,
      "velocity": 127,
      "chip": "ym2612"
    },
    {
      "channel": 5,
      "note": 53,
      "start": 3.3657,
      "duration": 0.0292,
      "velocity": 121,
      "chip": "ym2612"
    },
    {
      "channel": 1,
      "note": 46,
      "start": 3.6127,
      "duration": 0.1241,
      "velocity": 91,
      "chip": "ym2612"
    },
    {
      "channel": 5,
      "note": 53,
      "start": 3.6132,
      "duration": 0.0305,
      "velocity": 121,
      "chip": "ym2612"
    },
    {
      "channel": 1,
      "note": 47,
      "start": 3.737,
      "duration": 0.2486,
      "velocity": 91,
      "chip": "ym2612"
    },
    {
      "channel": 3,
      "note": 57,
      "start": 3.7374,
      "duration": 0.7356,
      "velocity": 99,
      "chip": "ym2612"
    },
    {
      "channel": 4,
      "note": 54,
      "start": 3.7377,
      "duration": 0.7354,
      "velocity": 99,
      "chip": "ym2612"
    },
    {
      "channel": 5,
      "note": 66,
      "start": 3.7397,
      "duration": 0.3395,
      "velocity": 127,
      "chip": "ym2612"
    },
    {
      "channel": 5,
      "note": 53,
      "start": 4.1125,
      "duration": 0.0289,
      "velocity": 121,
      "chip": "ym2612"
    },
    {
      "channel": 1,
      "note": 46,
      "start": 4.359,
      "duration": 0.1242,
      "velocity": 91,
      "chip": "ym2612"
    },
    {
      "channel": 5,
      "note": 53,
      "start": 4.3596,
      "duration": 0.0306,
      "velocity": 121,
      "chip": "ym2612"
    },
    {
      "channel": 1,
      "note": 47,
      "start": 4.4835,
      "duration": 0.2489,
      "velocity": 91,
      "chip": "ym2612"
    },
    {
      "channel": 3,
      "note": 56,
      "start": 4.4839,
      "duration": 0.7356,
      "velocity": 99,
      "chip": "ym2612"
    },
    {
      "channel": 4,
      "note": 52,
      "start": 4.4842,
      "duration": 0.7354,
      "velocity": 99,
      "chip": "ym2612"
    },
    {
      "channel": 5,
      "note": 66,
      "start": 4.4862,
      "duration": 0.3395,
      "velocity": 127,
      "chip": "ym2612"
    },
    {
      "channel": 5,
      "note": 53,
      "start": 4.8588,
      "duration": 0.0291,
      "velocity": 121,
      "chip": "ym2612"
    },
    {
      "channel": 1,
      "note": 46,
      "start": 5.1056,
      "duration": 0.1242,
      "velocity": 91,
      "chip": "ym2612"
    },
    {
      "channel": 5,
      "note": 53,
      "start": 5.1061,
      "duration": 0.0306,
      "velocity": 121,
      "chip": "ym2612"
    },
    {
      "channel": 1,
      "note": 47,
      "start": 5.23,
      "duration": 0.2486,
      "velocity": 91,
      "chip": "ym2612"
    },
    {
      "channel": 3,
      "note": 55,
      "start": 5.2304,
      "duration": 0.7356,
      "velocity": 99,
      "chip": "ym2612"
    },
    {
      "channel": 4,
      "note": 50,
      "start": 5.2307,
      "duration": 0.7354,
      "velocity": 99,
      "chip": "ym2612"
    },
    {
      "channel": 5,
      "note": 66,
      "start": 5.233,
      "duration": 0.3394,
      "velocity": 127,
      "chip": "ym2612"
    },
    {
      "channel": 5,
      "note": 53,
      "start": 5.6052,
      "duration": 0.0291,
      "velocity": 121,
      "chip": "ym2612"
    },
    {
      "channel": 5,
      "note": 53,
      "start": 5.8526,
      "duration": 0.0306,
      "velocity": 121,
      "chip": "ym2612"
    },
    {
      "channel": 1,
      "note": 47,
      "start": 5.9782,
      "duration": 0.2469,
      "velocity": 91,
      "chip": "ym2612"
    },
    {
      "channel": 3,
      "note": 54,
      "start": 5.9802,
      "duration": 0.7323,
      "velocity": 99,
      "chip": "ym2612"
    },
    {
      "channel": 4,
      "note": 50,
      "start": 5.9825,
      "duration": 0.7302,
      "velocity": 99,
      "chip": "ym2612"
    },
    {
      "channel": 5,
      "note": 66,
      "start": 5.9846,
      "duration": 0.3341,
      "velocity": 127,
      "chip": "ym2612"
    },
    {
      "channel": 5,
      "note": 53,
      "start": 6.3517,
      "duration": 0.0292,
      "velocity": 121,
      "chip": "ym2612"
    },
    {
      "channel": 1,
      "note": 46,
      "start": 6.5985,
      "duration": 0.1242,
      "velocity": 91,
      "chip": "ym2612"
    },
    {
      "channel": 5,
      "note": 53,
      "start": 6.5991,
      "duration": 0.0306,
      "velocity": 121,
      "chip": "ym2612"
    },
    {
      "channel": 1,
      "note": 47,
      "start": 6.723,
      "duration": 0.2486,
      "velocity": 91,
      "chip": "ym2612"
    },
    {
      "channel": 3,
      "note": 57,
      "start": 6.7234,
      "duration": 0.7356,
      "velocity": 99,
      "chip": "ym2612"
    },
    {
      "channel": 4,
      "note": 54,
      "start": 6.7237,
      "duration": 0.7355,
      "velocity": 99,
      "chip": "ym2612"
    },
    {
      "channel": 5,
      "note": 66,
      "start": 6.7257,
      "duration": 0.3395,
      "velocity": 127,
      "chip": "ym2612"
    },
    {
      "channel": 5,
      "note": 53,
      "start": 7.0982,
      "duration": 0.0291,
      "velocity": 121,
      "chip": "ym2612"
    },
    {
      "channel": 1,
      "note": 46,
      "start": 7.345,
      "duration": 0.1242,
      "velocity": 91,
      "chip": "ym2612"
    },
    {
      "channel": 5,
      "note": 53,
      "start": 7.3456,
      "duration": 0.0307,
      "velocity": 121,
      "chip": "ym2612"
    },
    {
      "channel": 1,
      "note": 47,
      "start": 7.4695,
      "duration": 0.2486,
      "velocity": 91,
      "chip": "ym2612"
    },
    {
      "channel": 3,
      "note": 56,
      "start": 7.4698,
      "duration": 0.7356,
      "velocity": 99,
      "chip": "ym2612"
    },
    {
      "channel": 4,
      "note": 52,
      "start": 7.4702,
      "duration": 0.7354,
      "velocity": 99,
      "chip": "ym2612"
    },
    {
      "channel": 5,
      "note": 66,
      "start": 7.4724,
      "duration": 0.3392,
      "velocity": 127,
      "chip": "ym2612"
    },
    {
      "channel": 5,
      "note": 53,
      "start": 7.8447,
      "duration": 0.0292,
      "velocity": 121,
      "chip": "ym2612"
    },
    {
      "channel": 1,
      "note": 46,
      "start": 8.0916,
      "duration": 0.1242,
      "velocity": 91,
      "chip": "ym2612"
    },
    {
      "channel": 5,
      "note": 53,
      "start": 8.0921,
      "duration": 0.0306,
      "velocity": 121,
      "chip": "ym2612"
    },
    {
      "channel": 1,
      "note": 47,
      "start": 8.216,
      "duration": 0.2486,
      "velocity": 91,
      "chip": "ym2612"
    },
    {
      "channel": 3,
      "note": 55,
      "start": 8.2164,
      "duration": 0.7355,
      "velocity": 99,
      "chip": "ym2612"
    },
    {
      "channel": 4,
      "note": 50,
      "start": 8.2167,
      "duration": 0.7354,
      "velocity": 99,
      "chip": "ym2612"
    },
    {
      "channel": 5,
      "note": 66,
      "start": 8.2187,
      "duration": 0.3394,
      "velocity": 127,
      "chip": "ym2612"
    },
    {
      "channel": 5,
      "note": 53,
      "start": 8.5912,
      "duration": 0.0291,
      "velocity": 121,
      "chip": "ym2612"
    },
    {
      "channel": 5,
      "note": 53,
      "start": 8.8383,
      "duration": 0.0309,
      "velocity": 121,
      "chip": "ym2612"
    },
    {
      "channel": 1,
      "note": 47,
      "start": 8.9627,
      "duration": 0.2484,
      "velocity": 91,
      "chip": "ym2612"
    },
    {
      "channel": 3,
      "note": 54,
      "start": 8.963,
      "duration": 0.7354,
      "velocity": 99,
      "chip": "ym2612"
    },
    {
      "channel": 4,
      "note": 50,
      "start": 8.9634,
      "duration": 0.7352,
      "velocity": 99,
      "chip": "ym2612"
    },
    {
      "channel": 5,
      "note": 66,
      "start": 8.9654,
      "duration": 0.3393,
      "velocity": 127,
      "chip": "ym2612"
    },
    {
      "channel": 5,
      "note": 53,
      "start": 9.3377,
      "duration": 0.0292,
      "velocity": 121,
      "chip": "ym2612"
    },
    {
      "channel": 1,
      "note": 46,
      "start": 9.5845,
      "duration": 0.1242,
      "velocity": 91,
      "chip": "ym2612"
    },
    {
      "channel": 5,
      "note": 53,
      "start": 9.5851,
      "duration": 0.0306,
      "velocity": 121,
      "chip": "ym2612"
    },
    {
      "channel": 1,
      "note": 47,
      "start": 9.709,
      "duration": 0.2486,
      "velocity": 91,
      "chip": "ym2612"
    },
    {
      "channel": 3,
      "note": 57,
      "start": 9.7093,
      "duration": 0.7356,
      "velocity": 99,
      "chip": "ym2612"
    },
    {
      "channel": 4,
      "note": 54,
      "start": 9.7097,
      "duration": 0.7354,
      "velocity": 99,
      "chip": "ym2612"
    },
    {
      "channel": 5,
      "note": 66,
      "start": 9.7117,
      "duration": 0.3395,
      "velocity": 127,
      "chip": "ym2612"
    },
    {
      "channel": 5,
      "note": 53,
      "start": 10.0845,
      "duration": 0.0288,
      "velocity": 121,
      "chip": "ym2612"
    },
    {
      "channel": 1,
      "note": 46,
      "start": 10.331,
      "duration": 0.1242,
      "velocity": 91,
      "chip": "ym2612"
    },
    {
      "channel": 5,
      "note": 53,
      "start": 10.3315,
      "duration": 0.0309,
      "velocity": 121,
      "chip": "ym2612"
    },
    {
      "channel": 1,
      "note": 47,
      "start": 10.4555,
      "duration": 0.2486,
      "velocity": 91,
      "chip": "ym2612"
    },
    {
      "channel": 3,
      "note": 56,
      "start": 10.4558,
      "duration": 0.7356,
      "velocity": 99,
      "chip": "ym2612"
    },
    {
      "channel": 4,
      "note": 52,
      "start": 10.4562,
      "duration": 0.7354,
      "velocity": 99,
      "chip": "ym2612"
    },
    {
      "channel": 5,
      "note": 66,
      "start": 10.4582,
      "duration": 0.3395,
      "velocity": 127,
      "chip": "ym2612"
    },
    {
      "channel": 5,
      "note": 53,
      "start": 10.8307,
      "duration": 0.0292,
      "velocity": 121,
      "chip": "ym2612"
    },
    {
      "channel": 1,
      "note": 46,
      "start": 11.0775,
      "duration": 0.1242,
      "velocity": 91,
      "chip": "ym2612"
    },
    {
      "channel": 5,
      "note": 53,
      "start": 11.078,
      "duration": 0.0306,
      "velocity": 121,
      "chip": "ym2612"
    },
    {
      "channel": 1,
      "note": 47,
      "start": 11.202,
      "duration": 0.2486,
      "velocity": 91,
      "chip": "ym2612"
    },
    {
      "channel": 3,
      "note": 55,
      "start": 11.2026,
      "duration": 0.7353,
      "velocity": 99,
      "chip": "ym2612"
    },
    {
      "channel": 4,
      "note": 50,
      "start": 11.2029,
      "duration": 0.7351,
      "velocity": 99,
      "chip": "ym2612"
    },
    {
      "channel": 5,
      "note": 66,
      "start": 11.2049,
      "duration": 0.3392,
      "velocity": 127,
      "chip": "ym2612"
    },
    {
      "channel": 5,
      "note": 53,
      "start": 11.5772,
      "duration": 0.0291,
      "velocity": 121,
      "chip": "ym2612"
    },
    {
      "channel": 5,
      "note": 53,
      "start": 11.8243,
      "duration": 0.0309,
      "velocity": 121,
      "chip": "ym2612"
    },
    {
      "channel": 0,
      "note": 59,
      "start": 11.9502,
      "duration": 0.1225,
      "velocity": 97,
      "chip": "ym2612"
    },
    {
      "channel": 1,
      "note": 47,
      "start": 11.9524,
      "duration": 0.2447,
      "velocity": 91,
      "chip": "ym2612"
    },
    {
      "channel": 3,
      "note": 54,
      "start": 11.9561,
      "duration": 0.7283,
      "velocity": 99,
      "chip": "ym2612"
    },
    {
      "channel": 4,
      "note": 50,
      "start": 11.9582,
      "duration": 0.7264,
      "velocity": 99,
      "chip": "ym2612"
    },
    {
      "channel": 5,
      "note": 66,
      "start": 11.9602,
      "duration": 0.3305,
      "velocity": 127,
      "chip": "ym2612"
    },
    {
      "channel": 2,
      "note": 59,
      "start": 12.1351,
      "duration": 0.1242,
      "velocity": 97,
      "chip": "ym2612"
    },
    {
      "channel": 0,
      "note": 54,
      "start": 12.3217,
      "duration": 0.1242,
      "velocity": 97,
      "chip": "ym2612"
    },
    {
      "channel": 5,
      "note": 53,
      "start": 12.3242,
      "duration": 0.0287,
      "velocity": 121,
      "chip": "ym2612"
    },
    {
      "channel": 2,
      "note": 54,
      "start": 12.5083,
      "duration": 0.1242,
      "velocity": 97,
      "chip": "ym2612"
    },
    {
      "channel": 1,
      "note": 46,
      "start": 12.5705,
      "duration": 0.1242,
      "velocity": 91,
      "chip": "ym2612"
    },
    {
      "channel": 5,
      "note": 53,
      "start": 12.571,
      "duration": 0.0306,
      "velocity": 121,
      "chip": "ym2612"
    },
    {
      "channel": 1,
      "note": 47,
      "start": 12.695,
      "duration": 0.2486,
      "velocity": 91,
      "chip": "ym2612"
    },
    {
      "channel": 3,
      "note": 57,
      "start": 12.6953,
      "duration": 0.7356,
      "velocity": 99,
      "chip": "ym2612"
    },
    {
      "channel": 4,
      "note": 54,
      "start": 12.6956,
      "duration": 0.7354,
      "velocity": 99,
      "chip": "ym2612"
    },
    {
      "channel": 5,
      "note": 66,
      "start": 12.6977,
      "duration": 0.3395,
      "velocity": 127,
      "chip": "ym2612"
    },
    {
      "channel": 0,
      "note": 52,
      "start": 13.0682,
      "duration": 0.1243,
      "velocity": 97,
      "chip": "ym2612"
    },
    {
      "channel": 5,
      "note": 53,
      "start": 13.0704,
      "duration": 0.0289,
      "velocity": 121,
      "chip": "ym2612"
    },
    {
      "channel": 2,
      "note": 52,
      "start": 13.2548,
      "duration": 0.1242,
      "velocity": 97,
      "chip": "ym2612"
    },
    {
      "channel": 0,
      "note": 54,
      "start": 13.317,
      "duration": 0.1242,
      "velocity": 97,
      "chip": "ym2612"
    },
    {
      "channel": 1,
      "note": 46,
      "start": 13.3172,
      "duration": 0.1243,
      "velocity": 91,
      "chip": "ym2612"
    },
    {
      "channel": 5,
      "note": 53,
      "start": 13.3178,
      "duration": 0.0304,
      "velocity": 121,
      "chip": "ym2612"
    },
    {
      "channel": 0,
      "note": 50,
      "start": 13.4415,
      "duration": 0.1242,
      "velocity": 97,
      "chip": "ym2612"
    },
    {
      "channel": 1,
      "note": 47,
      "start": 13.4417,
      "duration": 0.2486,
      "velocity": 91,
      "chip": "ym2612"
    },
    {
      "channel": 3,
      "note": 56,
      "start": 13.4421,
      "duration": 0.7353,
      "velocity": 99,
      "chip": "ym2612"
    },
    {
      "channel": 4,
      "note": 52,
      "start": 13.4427,
      "duration": 0.7349,
      "velocity": 99,
      "chip": "ym2612"
    },
    {
      "channel": 5,
      "note": 66,
      "start": 13.4447,
      "duration": 0.3389,
      "velocity": 127,
      "chip": "ym2612"
    },
    {
      "channel": 2,
      "note": 54,
      "start": 13.5037,
      "duration": 0.1242,
      "velocity": 97,
      "chip": "ym2612"
    },
    {
      "channel": 2,
      "note": 50,
      "start": 13.6281,
      "duration": 0.1244,
      "velocity": 97,
      "chip": "ym2612"
    },
    {
      "channel": 0,
      "note": 47,
      "start": 13.6902,
      "duration": 0.1242,
      "velocity": 97,
      "chip": "ym2612"
    },
    {
      "channel": 5,
      "note": 53,
      "start": 13.8168,
      "duration": 0.0291,
      "velocity": 121,
      "chip": "ym2612"
    },
    {
      "channel": 2,
      "note": 47,
      "start": 13.8769,
      "duration": 0.1242,
      "velocity": 97,
      "chip": "ym2612"
    },
    {
      "channel": 0,
      "note": 47,
      "start": 14.0635,
      "duration": 0.1242,
      "velocity": 97,
      "chip": "ym2612"
    },
    {
      "channel": 1,
      "note": 46,
      "start": 14.0637,
      "duration": 0.1241,
      "velocity": 91,
      "chip": "ym2612"
    },
    {
      "channel": 5,
      "note": 53,
      "start": 14.0643,
      "duration": 0.0304,
      "velocity": 121,
      "chip": "ym2612"
    },
    {
      "channel": 1,
      "note": 47,
      "start": 14.188,
      "duration": 0.2485,
      "velocity": 91,
      "chip": "ym2612"
    },
    {
      "channel": 3,
      "note": 55,
      "start": 14.1884,
      "duration": 0.7355,
      "velocity": 99,
      "chip": "ym2612"
    },
    {
      "channel": 4,
      "note": 50,
      "start": 14.1887,
      "duration": 0.7354,
      "velocity": 99,
      "chip": "ym2612"
    },
    {
      "channel": 5,
      "note": 66,
      "start": 14.1907,
      "duration": 0.3394,
      "velocity": 127,
      "chip": "ym2612"
    },
    {
      "channel": 2,
      "note": 47,
      "start": 14.2501,
      "duration": 0.1242,
      "velocity": 97,
      "chip": "ym2612"
    },
    {
      "channel": 0,
      "note": 45,
      "start": 14.5612,
      "duration": 0.1242,
      "velocity": 97,
      "chip": "ym2612"
    },
    {
      "channel": 5,
      "note": 53,
      "start": 14.5637,
      "duration": 0.0289,
      "velocity": 121,
      "chip": "ym2612"
    },
    {
      "channel": 2,
      "note": 45,
      "start": 14.7478,
      "duration": 0.1242,
      "velocity": 97,
      "chip": "ym2612"
    },
    {
      "channel": 0,
      "note": 47,
      "start": 14.81,
      "duration": 0.1242,
      "velocity": 97,
      "chip": "ym2612"
    },
    {
      "channel": 5,
      "note": 53,
      "start": 14.8105,
      "duration": 0.0307,
      "velocity": 121,
      "chip": "ym2612"
    },
    {
      "channel": 0,
      "note": 50,
      "start": 14.9345,
      "duration": 0.1242,
      "velocity": 97,
      "chip": "ym2612"
    },
    {
      "channel": 1,
      "note": 47,
      "start": 14.9347,
      "duration": 0.2486,
      "velocity": 91,
      "chip": "ym2612"
    },
    {
      "channel": 3,
      "note": 54,
      "start": 14.935,
      "duration": 0.7354,
      "velocity": 99,
      "chip": "ym2612"
    },
    {
      "channel": 4,
      "note": 50,
      "start": 14.9354,
      "duration": 0.7352,
      "velocity": 99,
      "chip": "ym2612"
    },
    {
      "channel": 5,
      "note": 66,
      "start": 14.9374,
      "duration": 0.3392,
      "velocity": 127,
      "chip": "ym2612"
    },
    {
      "channel": 2,
      "note": 47,
      "start": 14.9966,
      "duration": 0.1242,
      "velocity": 97,
      "chip": "ym2612"
    },
    {
      "channel": 2,
      "note": 50,
      "start": 15.1211,
      "duration": 0.1242,
      "velocity": 97,
      "chip": "ym2612"
    },
    {
      "channel": 0,
      "note": 47,
      "start": 15.1832,
      "duration": 0.1242,
      "velocity": 97,
      "chip": "ym2612"
    },
    {
      "channel": 5,
      "note": 53,
      "start": 15.3097,
      "duration": 0.0291,
      "velocity": 121,
      "chip": "ym2612"
    },
    {
      "channel": 2,
      "note": 47,
      "start": 15.3699,
      "duration": 0.1242,
      "velocity": 97,
      "chip": "ym2612"
    },
    {
      "channel": 0,
      "note": 47,
      "start": 15.5565,
      "duration": 0.1242,
      "velocity": 97,
      "chip": "ym2612"
    },
    {
      "channel": 1,
      "note": 46,
      "start": 15.5567,
      "duration": 0.1241,
      "velocity": 91,
      "chip": "ym2612"
    },
    {
      "channel": 5,
      "note": 53,
      "start": 15.5573,
      "duration": 0.0304,
      "velocity": 121,
      "chip": "ym2612"
    },
    {
      "channel": 1,
      "note": 47,
      "start": 15.681,
      "duration": 0.2485,
      "velocity": 91,
      "chip": "ym2612"
    },
    {
      "channel": 3,
      "note": 57,
      "start": 15.6814,
      "duration": 0.7355,
      "velocity": 99,
      "chip": "ym2612"
    },
    {
      "channel": 4,
      "note": 54,
      "start": 15.6817,
      "duration": 0.7354,
      "velocity": 99,
      "chip": "ym2612"
    },
    {
      "channel": 5,
      "note": 66,
      "start": 15.6839,
      "duration": 0.3392,
      "velocity": 127,
      "chip": "ym2612"
    },
    {
      "channel": 2,
      "note": 47,
      "start": 15.7431,
      "duration": 0.1242,
      "velocity": 97,
      "chip": "ym2612"
    },
    {
      "channel": 0,
      "note": 45,
      "start": 16.0541,
      "duration": 0.1242,
      "velocity": 97,
      "chip": "ym2612"
    },
    {
      "channel": 5,
      "note": 53,
      "start": 16.0564,
      "duration": 0.0289,
      "velocity": 121,
      "chip": "ym2612"
    },
    {
      "channel": 2,
      "note": 45,
      "start": 16.2408,
      "duration": 0.1242,
      "velocity": 97,
      "chip": "ym2612"
    },
    {
      "channel": 0,
      "note": 47,
      "start": 16.303,
      "duration": 0.1242,
      "velocity": 97,
      "chip": "ym2612"
    },
    {
      "channel": 1,
      "note": 46,
      "start": 16.3032,
      "duration": 0.1243,
      "velocity": 91,
      "chip": "ym2612"
    },
    {
      "channel": 5,
      "note": 53,
      "start": 16.3037,
      "duration": 0.0304,
      "velocity": 121,
      "chip": "ym2612"
    },
    {
      "channel": 0,
      "note": 50,
      "start": 16.4275,
      "duration": 0.1242,
      "velocity": 97,
      "chip": "ym2612"
    },
    {
      "channel": 1,
      "note": 47,
      "start": 16.4277,
      "duration": 0.2485,
      "velocity": 91,
      "chip": "ym2612"
    },
    {
      "channel": 3,
      "note": 56,
      "start": 16.4281,
      "duration": 0.7353,
      "velocity": 99,
      "chip": "ym2612"
    },
    {
      "channel": 4,
      "note": 52,
      "start": 16.4284,
      "duration": 0.7351,
      "velocity": 99,
      "chip": "ym2612"
    },
    {
      "channel": 5,
      "note": 66,
      "start": 16.4304,
      "duration": 0.3392,
      "velocity": 127,
      "chip": "ym2612"
    },
    {
      "channel": 2,
      "note": 47,
      "start": 16.4896,
      "duration": 0.1242,
      "velocity": 97,
      "chip": "ym2612"
    },
    {
      "channel": 2,
      "note": 50,
      "start": 16.6141,
      "duration": 0.1242,
      "velocity": 97,
      "chip": "ym2612"
    },
    {
      "channel": 0,
      "note": 52,
      "start": 16.6762,
      "duration": 0.1242,
      "velocity": 97,
      "chip": "ym2612"
    },
    {
      "channel": 5,
      "note": 53,
      "start": 16.803,
      "duration": 0.0288,
      "velocity": 121,
      "chip": "ym2612"
    },
    {
      "channel": 2,
      "note": 52,
      "start": 16.8629,
      "duration": 0.1242,
      "velocity": 97,
      "chip": "ym2612"
    },
    {
      "channel": 0,
      "note": 50,
      "start": 17.0495,
      "duration": 0.1242,
      "velocity": 97,
      "chip": "ym2612"
    },
    {
      "channel": 1,
      "note": 46,
      "start": 17.0497,
      "duration": 0.1241,
      "velocity": 91,
      "chip": "ym2612"
    },
    {
      "channel": 5,
      "note": 53,
      "start": 17.0502,
      "duration": 0.0304,
      "velocity": 121,
      "chip": "ym2612"
    },
    {
      "channel": 1,
      "note": 47,
      "start": 17.174,
      "duration": 0.2485,
      "velocity": 91,
      "chip": "ym2612"
    },
    {
      "channel": 3,
      "note": 55,
      "start": 17.1744,
      "duration": 0.7355,
      "velocity": 99,
      "chip": "ym2612"
    },
    {
      "channel": 4,
      "note": 50,
      "start": 17.1747,
      "duration": 0.7354,
      "velocity": 99,
      "chip": "ym2612"
    },
    {
      "channel": 5,
      "note": 66,
      "start": 17.1767,
      "duration": 0.3395,
      "velocity": 127,
      "chip": "ym2612"
    },
    {
      "channel": 2,
      "note": 50,
      "start": 17.2361,
      "duration": 0.1242,
      "velocity": 97,
      "chip": "ym2612"
    },
    {
      "channel": 5,
      "note": 53,
      "start": 17.5492,
      "duration": 0.0292,
      "velocity": 121,
      "chip": "ym2612"
    },
    {
      "channel": 5,
      "note": 53,
      "start": 17.7963,
      "duration": 0.0309,
      "velocity": 121,
      "chip": "ym2612"
    },
    {
      "channel": 0,
      "note": 59,
      "start": 17.9204,
      "duration": 0.1242,
      "velocity": 97,
      "chip": "ym2612"
    },
    {
      "channel": 1,
      "note": 47,
      "start": 17.9226,
      "duration": 0.2464,
      "velocity": 91,
      "chip": "ym2612"
    },
    {
      "channel": 3,
      "note": 54,
      "start": 17.9246,
      "duration": 0.7317,
      "velocity": 99,
      "chip": "ym2612"
    },
    {
      "channel": 4,
      "note": 50,
      "start": 17.9266,
      "duration": 0.7299,
      "velocity": 99,
      "chip": "ym2612"
    },
    {
      "channel": 5,
      "note": 66,
      "start": 17.9287,
      "duration": 0.3341,
      "velocity": 127,
      "chip": "ym2612"
    },
    {
      "channel": 2,
      "note": 59,
      "start": 18.107,
      "duration": 0.1242,
      "velocity": 97,
      "chip": "ym2612"
    },
    {
      "channel": 0,
      "note": 54,
      "start": 18.2937,
      "duration": 0.1242,
      "velocity": 97,
      "chip": "ym2612"
    },
    {
      "channel": 5,
      "note": 53,
      "start": 18.2959,
      "duration": 0.0289,
      "velocity": 121,
      "chip": "ym2612"
    },
    {
      "channel": 2,
      "note": 54,
      "start": 18.4803,
      "duration": 0.1242,
      "velocity": 97,
      "chip": "ym2612"
    },
    {
      "channel": 1,
      "note": 46,
      "start": 18.5427,
      "duration": 0.1241,
      "velocity": 91,
      "chip": "ym2612"
    },
    {
      "channel": 5,
      "note": 53,
      "start": 18.5432,
      "duration": 0.0305,
      "velocity": 121,
      "chip": "ym2612"
    },
    {
      "channel": 1,
      "note": 47,
      "start": 18.6669,
      "duration": 0.2486,
      "velocity": 91,
      "chip": "ym2612"
    },
    {
      "channel": 3,
      "note": 57,
      "start": 18.6673,
      "duration": 0.7356,
      "velocity": 99,
      "chip": "ym2612"
    },
    {
      "channel": 4,
      "note": 54,
      "start": 18.6676,
      "duration": 0.7354,
      "velocity": 99,
      "chip": "ym2612"
    },
    {
      "channel": 5,
      "note": 66,
      "start": 18.6696,
      "duration": 0.3395,
      "velocity": 127,
      "chip": "ym2612"
    },
    {
      "channel": 0,
      "note": 52,
      "start": 19.0401,
      "duration": 0.1242,
      "velocity": 97,
      "chip": "ym2612"
    },
    {
      "channel": 5,
      "note": 53,
      "start": 19.0427,
      "duration": 0.0287,
      "velocity": 121,
      "chip": "ym2612"
    },
    {
      "channel": 2,
      "note": 52,
      "start": 19.2268,
      "duration": 0.1242,
      "velocity": 97,
      "chip": "ym2612"
    },
    {
      "channel": 0,
      "note": 54,
      "start": 19.289,
      "duration": 0.1242,
      "velocity": 97,
      "chip": "ym2612"
    },
    {
      "channel": 1,
      "note": 46,
      "start": 19.2892,
      "duration": 0.1243,
      "velocity": 91,
      "chip": "ym2612"
    },
    {
      "channel": 5,
      "note": 53,
      "start": 19.2897,
      "duration": 0.0304,
      "velocity": 121,
      "chip": "ym2612"
    },
    {
      "channel": 0,
      "note": 50,
      "start": 19.4134,
      "duration": 0.1242,
      "velocity": 97,
      "chip": "ym2612"
    },
    {
      "channel": 1,
      "note": 47,
      "start": 19.4137,
      "duration": 0.2488,
      "velocity": 91,
      "chip": "ym2612"
    },
    {
      "channel": 3,
      "note": 56,
      "start": 19.4141,
      "duration": 0.7353,
      "velocity": 99,
      "chip": "ym2612"
    },
    {
      "channel": 4,
      "note": 52,
      "start": 19.4144,
      "duration": 0.7352,
      "velocity": 99,
      "chip": "ym2612"
    },
    {
      "channel": 5,
      "note": 66,
      "start": 19.4164,
      "duration": 0.3392,
      "velocity": 127,
      "chip": "ym2612"
    },
    {
      "channel": 2,
      "note": 54,
      "start": 19.4756,
      "duration": 0.1242,
      "velocity": 97,
      "chip": "ym2612"
    },
    {
      "channel": 2,
      "note": 50,
      "start": 19.6001,
      "duration": 0.1242,
      "velocity": 97,
      "chip": "ym2612"
    },
    {
      "channel": 0,
      "note": 47,
      "start": 19.6625,
      "duration": 0.124,
      "velocity": 97,
      "chip": "ym2612"
    },
    {
      "channel": 5,
      "note": 53,
      "start": 19.7887,
      "duration": 0.0291,
      "velocity": 121,
      "chip": "ym2612"
    },
    {
      "channel": 2,
      "note": 47,
      "start": 19.8489,
      "duration": 0.1242,
      "velocity": 97,
      "chip": "ym2612"
    },
    {
      "channel": 0,
      "note": 47,
      "start": 20.0355,
      "duration": 0.1242,
      "velocity": 97,
      "chip": "ym2612"
    },
    {
      "channel": 1,
      "note": 46,
      "start": 20.0357,
      "duration": 0.1241,
      "velocity": 91,
      "chip": "ym2612"
    },
    {
      "channel": 5,
      "note": 53,
      "start": 20.0362,
      "duration": 0.0304,
      "velocity": 121,
      "chip": "ym2612"
    },
    {
      "channel": 1,
      "note": 47,
      "start": 20.16,
      "duration": 0.2485,
      "velocity": 91,
      "chip": "ym2612"
    },
    {
      "channel": 3,
      "note": 55,
      "start": 20.1603,
      "duration": 0.7355,
      "velocity": 99,
      "chip": "ym2612"
    },
    {
      "channel": 4,
      "note": 50,
      "start": 20.1607,
      "duration": 0.7354,
      "velocity": 99,
      "chip": "ym2612"
    },
    {
      "channel": 5,
      "note": 66,
      "start": 20.1629,
      "duration": 0.3392,
      "velocity": 127,
      "chip": "ym2612"
    },
    {
      "channel": 2,
      "note": 47,
      "start": 20.2221,
      "duration": 0.1242,
      "velocity": 97,
      "chip": "ym2612"
    },
    {
      "channel": 0,
      "note": 45,
      "start": 20.5331,
      "duration": 0.1242,
      "velocity": 97,
      "chip": "ym2612"
    },
    {
      "channel": 5,
      "note": 53,
      "start": 20.5354,
      "duration": 0.0289,
      "velocity": 121,
      "chip": "ym2612"
    },
    {
      "channel": 2,
      "note": 45,
      "start": 20.7198,
      "duration": 0.1242,
      "velocity": 97,
      "chip": "ym2612"
    },
    {
      "channel": 0,
      "note": 47,
      "start": 20.782,
      "duration": 0.1242,
      "velocity": 97,
      "chip": "ym2612"
    },
    {
      "channel": 5,
      "note": 53,
      "start": 20.7828,
      "duration": 0.0303,
      "velocity": 121,
      "chip": "ym2612"
    },
    {
      "channel": 0,
      "note": 50,
      "start": 20.9064,
      "duration": 0.1242,
      "velocity": 97,
      "chip": "ym2612"
    },
    {
      "channel": 1,
      "note": 47,
      "start": 20.9067,
      "duration": 0.2486,
      "velocity": 91,
      "chip": "ym2612"
    },
    {
      "channel": 3,
      "note": 54,
      "start": 20.907,
      "duration": 0.7355,
      "velocity": 99,
      "chip": "ym2612"
    },
    {
      "channel": 4,
      "note": 50,
      "start": 20.9073,
      "duration": 0.7353,
      "velocity": 99,
      "chip": "ym2612"
    },
    {
      "channel": 5,
      "note": 66,
      "start": 20.9094,
      "duration": 0.3392,
      "velocity": 127,
      "chip": "ym2612"
    },
    {
      "channel": 2,
      "note": 47,
      "start": 20.9686,
      "duration": 0.1242,
      "velocity": 97,
      "chip": "ym2612"
    },
    {
      "channel": 2,
      "note": 50,
      "start": 21.0931,
      "duration": 0.1242,
      "velocity": 97,
      "chip": "ym2612"
    },
    {
      "channel": 0,
      "note": 47,
      "start": 21.1552,
      "duration": 0.1242,
      "velocity": 97,
      "chip": "ym2612"
    },
    {
      "channel": 5,
      "note": 53,
      "start": 21.2817,
      "duration": 0.0291,
      "velocity": 121,
      "chip": "ym2612"
    },
    {
      "channel": 2,
      "note": 47,
      "start": 21.3419,
      "duration": 0.1243,
      "velocity": 97,
      "chip": "ym2612"
    },
    {
      "channel": 0,
      "note": 47,
      "start": 21.5285,
      "duration": 0.1242,
      "velocity": 97,
      "chip": "ym2612"
    },
    {
      "channel": 1,
      "note": 46,
      "start": 21.5287,
      "duration": 0.1241,
      "velocity": 91,
      "chip": "ym2612"
    },
    {
      "channel": 5,
      "note": 53,
      "start": 21.5292,
      "duration": 0.0304,
      "velocity": 121,
      "chip": "ym2612"
    },
    {
      "channel": 1,
      "note": 47,
      "start": 21.653,
      "duration": 0.2485,
      "velocity": 91,
      "chip": "ym2612"
    },
    {
      "channel": 3,
      "note": 57,
      "start": 21.6533,
      "duration": 0.7355,
      "velocity": 99,
      "chip": "ym2612"
    },
    {
      "channel": 4,
      "note": 54,
      "start": 21.6537,
      "duration": 0.7354,
      "velocity": 99,
      "chip": "ym2612"
    },
    {
      "channel": 5,
      "note": 66,
      "start": 21.6557,
      "duration": 0.3394,
      "velocity": 127,
      "chip": "ym2612"
    },
    {
      "channel": 2,
      "note": 47,
      "start": 21.7151,
      "duration": 0.1242,
      "velocity": 97,
      "chip": "ym2612"
    },
    {
      "channel": 0,
      "note": 45,
      "start": 22.0261,
      "duration": 0.1242,
      "velocity": 97,
      "chip": "ym2612"
    },
    {
      "channel": 5,
      "note": 53,
      "start": 22.0284,
      "duration": 0.0289,
      "velocity": 121,
      "chip": "ym2612"
    },
    {
      "channel": 2,
      "note": 45,
      "start": 22.2128,
      "duration": 0.1242,
      "velocity": 97,
      "chip": "ym2612"
    },
    {
      "channel": 0,
      "note": 47,
      "start": 22.275,
      "duration": 0.1242,
      "velocity": 97,
      "chip": "ym2612"
    },
    {
      "channel": 1,
      "note": 46,
      "start": 22.2752,
      "duration": 0.1243,
      "velocity": 91,
      "chip": "ym2612"
    },
    {
      "channel": 5,
      "note": 53,
      "start": 22.2757,
      "duration": 0.0304,
      "velocity": 121,
      "chip": "ym2612"
    },
    {
      "channel": 0,
      "note": 50,
      "start": 22.3995,
      "duration": 0.373,
      "velocity": 97,
      "chip": "ym2612"
    },
    {
      "channel": 1,
      "note": 47,
      "start": 22.3998,
      "duration": 0.2485,
      "velocity": 91,
      "chip": "ym2612"
    },
    {
      "channel": 3,
      "note": 56,
      "start": 22.4001,
      "duration": 0.7353,
      "velocity": 99,
      "chip": "ym2612"
    },
    {
      "channel": 4,
      "note": 52,
      "start": 22.4004,
      "duration": 0.7351,
      "velocity": 99,
      "chip": "ym2612"
    },
    {
      "channel": 5,
      "note": 66,
      "start": 22.4027,
      "duration": 0.3389,
      "velocity": 127,
      "chip": "ym2612"
    },
    {
      "channel": 2,
      "note": 47,
      "start": 22.4616,
      "duration": 0.1242,
      "velocity": 97,
      "chip": "ym2612"
    },
    {
      "channel": 2,
      "note": 50,
      "start": 22.5861,
      "duration": 0.373,
      "velocity": 97,
      "chip": "ym2612"
    },
    {
      "channel": 0,
      "note": 45,
      "start": 22.7727,
      "duration": 0.1241,
      "velocity": 97,
      "chip": "ym2612"
    },
    {
      "channel": 5,
      "note": 53,
      "start": 22.7749,
      "duration": 0.0288,
      "velocity": 121,
      "chip": "ym2612"
    },
    {
      "channel": 2,
      "note": 45,
      "start": 22.9593,
      "duration": 0.0624,
      "velocity": 97,
      "chip": "ym2612"
    },
    {
      "channel": 0,
      "note": 47,
      "start": 23.0215,
      "duration": 0.1242,
      "velocity": 97,
      "chip": "ym2612"
    },
    {
      "channel": 1,
      "note": 46,
      "start": 23.0217,
      "duration": 0.1241,
      "velocity": 91,
      "chip": "ym2612"
    },
    {
      "channel": 5,
      "note": 53,
      "start": 23.0225,
      "duration": 0.0302,
      "velocity": 121,
      "chip": "ym2612"
    },
    {
      "channel": 1,
      "note": 47,
      "start": 23.146,
      "duration": 0.2486,
      "velocity": 91,
      "chip": "ym2612"
    },
    {
      "channel": 2,
      "note": 48,
      "start": 23.1479,
      "duration": 0.1015,
      "velocity": 127,
      "chip": "ym2612"
    },
    {
      "channel": 3,
      "note": 55,
      "start": 23.1483,
      "duration": 0.7337,
      "velocity": 99,
      "chip": "ym2612"
    },
    {
      "channel": 4,
      "note": 50,
      "start": 23.1486,
      "duration": 0.7335,
      "velocity": 99,
      "chip": "ym2612"
    },
    {
      "channel": 5,
      "note": 66,
      "start": 23.1506,
      "duration": 0.3376,
      "velocity": 127,
      "chip": "ym2612"
    },
    {
      "channel": 2,
      "note": 48,
      "start": 23.3948,
      "duration": 0.1034,
      "velocity": 127,
      "chip": "ym2612"
    },
    {
      "channel": 2,
      "note": 42,
      "start": 23.5209,
      "duration": 0.1121,
      "velocity": 91,
      "chip": "ym2612"
    },
    {
      "channel": 5,
      "note": 53,
      "start": 23.5234,
      "duration": 0.027,
      "velocity": 121,
      "chip": "ym2612"
    },
    {
      "channel": 5,
      "note": 53,
      "start": 23.7684,
      "duration": 0.0309,
      "velocity": 121,
      "chip": "ym2612"
    },
    {
      "channel": 0,
      "note": 68,
      "start": 23.8943,
      "duration": 0.4955,
      "velocity": 109,
      "chip": "ym2612"
    },
    {
      "channel": 2,
      "note": 37,
      "start": 23.8963,
      "duration": 0.11,
      "velocity": 127,
      "chip": "ym2612"
    },
    {
      "channel": 3,
      "note": 57,
      "start": 23.8966,
      "duration": 1.4783,
      "velocity": 99,
      "chip": "ym2612"
    },
    {
      "channel": 4,
      "note": 54,
      "start": 23.897,
      "duration": 1.4781,
      "velocity": 99,
      "chip": "ym2612"
    },
    {
      "channel": 5,
      "note": 111,
      "start": 23.899,
      "duration": 0.3358,
      "velocity": 127,
      "chip": "ym2612"
    },
    {
      "channel": 2,
      "note": 37,
      "start": 24.1414,
      "duration": 0.1138,
      "velocity": 127,
      "chip": "ym2612"
    },
    {
      "channel": 1,
      "note": 54,
      "start": 24.2659,
      "duration": 0.3731,
      "velocity": 91,
      "chip": "ym2612"
    },
    {
      "channel": 2,
      "note": 37,
      "start": 24.2663,
      "duration": 0.1132,
      "velocity": 127,
      "chip": "ym2612"
    },
    {
      "channel": 5,
      "note": 111,
      "start": 24.2668,
      "duration": 0.0301,
      "velocity": 127,
      "chip": "ym2612"
    },
    {
      "channel": 0,
      "note": 66,
      "start": 24.3901,
      "duration": 0.1242,
      "velocity": 109,
      "chip": "ym2612"
    },
    {
      "channel": 5,
      "note": 111,
      "start": 24.5149,
      "duration": 0.0308,
      "velocity": 127,
      "chip": "ym2612"
    },
    {
      "channel": 0,
      "note": 64,
      "start": 24.6389,
      "duration": 0.1242,
      "velocity": 109,
      "chip": "ym2612"
    },
    {
      "channel": 1,
      "note": 52,
      "start": 24.6391,
      "duration": 0.1242,
      "velocity": 91,
      "chip": "ym2612"
    },
    {
      "channel": 2,
      "note": 48,
      "start": 24.6411,
      "duration": 0.1014,
      "velocity": 127,
      "chip": "ym2612"
    },
    {
      "channel": 5,
      "note": 111,
      "start": 24.6416,
      "duration": 0.3395,
      "velocity": 127,
      "chip": "ym2612"
    },
    {
      "channel": 0,
      "note": 64,
      "start": 24.7633,
      "duration": 0.1242,
      "velocity": 109,
      "chip": "ym2612"
    },
    {
      "channel": 0,
      "note": 66,
      "start": 24.8878,
      "duration": 0.373,
      "velocity": 109,
      "chip": "ym2612"
    },
    {
      "channel": 1,
      "note": 54,
      "start": 24.888,
      "duration": 0.3731,
      "velocity": 91,
      "chip": "ym2612"
    },
    {
      "channel": 2,
      "note": 37,
      "start": 25.0141,
      "duration": 0.1015,
      "velocity": 127,
      "chip": "ym2612"
    },
    {
      "channel": 5,
      "note": 111,
      "start": 25.0146,
      "duration": 0.0288,
      "velocity": 127,
      "chip": "ym2612"
    },
    {
      "channel": 0,
      "note": 69,
      "start": 25.261,
      "duration": 0.4974,
      "velocity": 109,
      "chip": "ym2612"
    },
    {
      "channel": 1,
      "note": 49,
      "start": 25.2613,
      "duration": 0.2483,
      "velocity": 91,
      "chip": "ym2612"
    },
    {
      "channel": 2,
      "note": 37,
      "start": 25.2616,
      "duration": 0.1028,
      "velocity": 127,
      "chip": "ym2612"
    },
    {
      "channel": 5,
      "note": 111,
      "start": 25.2621,
      "duration": 0.0304,
      "velocity": 127,
      "chip": "ym2612"
    },
    {
      "channel": 2,
      "note": 37,
      "start": 25.3855,
      "duration": 0.1034,
      "velocity": 127,
      "chip": "ym2612"
    },
    {
      "channel": 3,
      "note": 59,
      "start": 25.3859,
      "duration": 1.4821,
      "velocity": 99,
      "chip": "ym2612"
    },
    {
      "channel": 4,
      "note": 56,
      "start": 25.3862,
      "duration": 1.482,
      "velocity": 99,
      "chip": "ym2612"
    },
    {
      "channel": 5,
      "note": 111,
      "start": 25.3865,
      "duration": 0.3412,
      "velocity": 127,
      "chip": "ym2612"
    },
    {
      "channel": 1,
      "note": 49,
      "start": 25.6342,
      "duration": 0.1245,
      "velocity": 91,
      "chip": "ym2612"
    },
    {
      "channel": 2,
      "note": 48,
      "start": 25.6361,
      "duration": 0.1016,
      "velocity": 127,
      "chip": "ym2612"
    },
    {
      "channel": 0,
      "note": 66,
      "start": 25.7587,
      "duration": 0.1242,
      "velocity": 109,
      "chip": "ym2612"
    },
    {
      "channel": 1,
      "note": 52,
      "start": 25.7589,
      "duration": 0.2484,
      "velocity": 91,
      "chip": "ym2612"
    },
    {
      "channel": 2,
      "note": 37,
      "start": 25.7609,
      "duration": 0.1015,
      "velocity": 127,
      "chip": "ym2612"
    },
    {
      "channel": 5,
      "note": 111,
      "start": 25.7615,
      "duration": 0.0284,
      "velocity": 127,
      "chip": "ym2612"
    },
    {
      "channel": 0,
      "note": 66,
      "start": 25.8831,
      "duration": 0.1242,
      "velocity": 109,
      "chip": "ym2612"
    },
    {
      "channel": 1,
      "note": 49,
      "start": 26.0076,
      "duration": 0.1244,
      "velocity": 91,
      "chip": "ym2612"
    },
    {
      "channel": 5,
      "note": 111,
      "start": 26.0081,
      "duration": 0.0306,
      "velocity": 127,
      "chip": "ym2612"
    },
    {
      "channel": 0,
      "note": 64,
      "start": 26.1319,
      "duration": 0.1242,
      "velocity": 109,
      "chip": "ym2612"
    },
    {
      "channel": 1,
      "note": 54,
      "start": 26.1324,
      "duration": 0.2484,
      "velocity": 91,
      "chip": "ym2612"
    },
    {
      "channel": 2,
      "note": 48,
      "start": 26.1344,
      "duration": 0.101,
      "velocity": 127,
      "chip": "ym2612"
    },
    {
      "channel": 5,
      "note": 111,
      "start": 26.1349,
      "duration": 0.3393,
      "velocity": 127,
      "chip": "ym2612"
    },
    {
      "channel": 0,
      "note": 64,
      "start": 26.2563,
      "duration": 0.1242,
      "velocity": 109,
      "chip": "ym2612"
    },
    {
      "channel": 0,
      "note": 66,
      "start": 26.3807,
      "duration": 0.1242,
      "velocity": 109,
      "chip": "ym2612"
    },
    {
      "channel": 1,
      "note": 49,
      "start": 26.381,
      "duration": 0.1242,
      "velocity": 91,
      "chip": "ym2612"
    },
    {
      "channel": 0,
      "note": 66,
      "start": 26.5051,
      "duration": 0.1242,
      "velocity": 109,
      "chip": "ym2612"
    },
    {
      "channel": 1,
      "note": 47,
      "start": 26.5054,
      "duration": 0.2485,
      "velocity": 91,
      "chip": "ym2612"
    },
    {
      "channel": 2,
      "note": 42,
      "start": 26.5074,
      "duration": 0.1116,
      "velocity": 91,
      "chip": "ym2612"
    },
    {
      "channel": 5,
      "note": 111,
      "start": 26.5079,
      "duration": 0.0285,
      "velocity": 127,
      "chip": "ym2612"
    },
    {
      "channel": 2,
      "note": 39,
      "start": 26.6297,
      "duration": 0.1137,
      "velocity": 91,
      "chip": "ym2612"
    },
    {
      "channel": 0,
      "note": 72,
      "start": 26.7539,
      "duration": 0.3731,
      "velocity": 109,
      "chip": "ym2612"
    },
    {
      "channel": 1,
      "note": 42,
      "start": 26.7542,
      "duration": 0.4975,
      "velocity": 91,
      "chip": "ym2612"
    },
    {
      "channel": 2,
      "note": 48,
      "start": 26.7562,
      "duration": 0.1012,
      "velocity": 127,
      "chip": "ym2612"
    },
    {
      "channel": 5,
      "note": 111,
      "start": 26.7567,
      "duration": 0.0285,
      "velocity": 127,
      "chip": "ym2612"
    },
    {
      "channel": 2,
      "note": 37,
      "start": 26.8801,
      "duration": 0.1017,
      "velocity": 127,
      "chip": "ym2612"
    },
    {
      "channel": 3,
      "note": 61,
      "start": 26.8805,
      "duration": 1.4805,
      "velocity": 99,
      "chip": "ym2612"
    },
    {
      "channel": 4,
      "note": 57,
      "start": 26.8808,
      "duration": 1.4803,
      "velocity": 99,
      "chip": "ym2612"
    },
    {
      "channel": 5,
      "note": 111,
      "start": 26.8811,
      "duration": 0.3396,
      "velocity": 127,
      "chip": "ym2612"
    },
    {
      "channel": 0,
      "note": 72,
      "start": 27.1272,
      "duration": 0.1242,
      "velocity": 109,
      "chip": "ym2612"
    },
    {
      "channel": 2,
      "note": 37,
      "start": 27.1276,
      "duration": 0.1031,
      "velocity": 127,
      "chip": "ym2612"
    },
    {
      "channel": 0,
      "note": 71,
      "start": 27.2517,
      "duration": 0.1242,
      "velocity": 109,
      "chip": "ym2612"
    },
    {
      "channel": 1,
      "note": 54,
      "start": 27.2519,
      "duration": 0.373,
      "velocity": 91,
      "chip": "ym2612"
    },
    {
      "channel": 2,
      "note": 37,
      "start": 27.2526,
      "duration": 0.1025,
      "velocity": 127,
      "chip": "ym2612"
    },
    {
      "channel": 5,
      "note": 111,
      "start": 27.2531,
      "duration": 0.0298,
      "velocity": 127,
      "chip": "ym2612"
    },
    {
      "channel": 0,
      "note": 71,
      "start": 27.3761,
      "duration": 0.1242,
      "velocity": 109,
      "chip": "ym2612"
    },
    {
      "channel": 5,
      "note": 111,
      "start": 27.5008,
      "duration": 0.0309,
      "velocity": 127,
      "chip": "ym2612"
    },
    {
      "channel": 0,
      "note": 69,
      "start": 27.6249,
      "duration": 0.1242,
      "velocity": 109,
      "chip": "ym2612"
    },
    {
      "channel": 1,
      "note": 52,
      "start": 27.6251,
      "duration": 0.2487,
      "velocity": 91,
      "chip": "ym2612"
    },
    {
      "channel": 2,
      "note": 48,
      "start": 27.6271,
      "duration": 0.1013,
      "velocity": 127,
      "chip": "ym2612"
    },
    {
      "channel": 5,
      "note": 111,
      "start": 27.6276,
      "duration": 0.3395,
      "velocity": 127,
      "chip": "ym2612"
    },
    {
      "channel": 0,
      "note": 69,
      "start": 27.7493,
      "duration": 0.1242,
      "velocity": 109,
      "chip": "ym2612"
    },
    {
      "channel": 0,
      "note": 66,
      "start": 27.8737,
      "duration": 0.1242,
      "velocity": 109,
      "chip": "ym2612"
    },
    {
      "channel": 1,
      "note": 54,
      "start": 27.874,
      "duration": 0.373,
      "velocity": 91,
      "chip": "ym2612"
    },
    {
      "channel": 0,
      "note": 66,
      "start": 27.9981,
      "duration": 0.1243,
      "velocity": 109,
      "chip": "ym2612"
    },
    {
      "channel": 2,
      "note": 37,
      "start": 28.0001,
      "duration": 0.1015,
      "velocity": 127,
      "chip": "ym2612"
    },
    {
      "channel": 5,
      "note": 111,
      "start": 28.0006,
      "duration": 0.0287,
      "velocity": 127,
      "chip": "ym2612"
    },
    {
      "channel": 0,
      "note": 64,
      "start": 28.2469,
      "duration": 0.2487,
      "velocity": 109,
      "chip": "ym2612"
    },
    {
      "channel": 1,
      "note": 49,
      "start": 28.2472,
      "duration": 0.2487,
      "velocity": 91,
      "chip": "ym2612"
    },
    {
      "channel": 2,
      "note": 37,
      "start": 28.2475,
      "duration": 0.1029,
      "velocity": 127,
      "chip": "ym2612"
    },
    {
      "channel": 5,
      "note": 111,
      "start": 28.248,
      "duration": 0.0302,
      "velocity": 127,
      "chip": "ym2612"
    },
    {
      "channel": 2,
      "note": 37,
      "start": 28.3715,
      "duration": 0.1034,
      "velocity": 127,
      "chip": "ym2612"
    },
    {
      "channel": 3,
      "note": 59,
      "start": 28.3718,
      "duration": 1.4821,
      "velocity": 99,
      "chip": "ym2612"
    },
    {
      "channel": 4,
      "note": 56,
      "start": 28.3724,
      "duration": 1.4817,
      "velocity": 99,
      "chip": "ym2612"
    },
    {
      "channel": 5,
      "note": 111,
      "start": 28.3727,
      "duration": 0.341,
      "velocity": 127,
      "chip": "ym2612"
    },
    {
      "channel": 0,
      "note": 64,
      "start": 28.4958,
      "duration": 0.1242,
      "velocity": 109,
      "chip": "ym2612"
    },
    {
      "channel": 0,
      "note": 66,
      "start": 28.6202,
      "duration": 0.1242,
      "velocity": 109,
      "chip": "ym2612"
    },
    {
      "channel": 1,
      "note": 49,
      "start": 28.6205,
      "duration": 0.1242,
      "velocity": 91,
      "chip": "ym2612"
    },
    {
      "channel": 2,
      "note": 48,
      "start": 28.6227,
      "duration": 0.101,
      "velocity": 127,
      "chip": "ym2612"
    },
    {
      "channel": 0,
      "note": 69,
      "start": 28.7446,
      "duration": 0.1242,
      "velocity": 109,
      "chip": "ym2612"
    },
    {
      "channel": 1,
      "note": 52,
      "start": 28.7449,
      "duration": 0.2486,
      "velocity": 91,
      "chip": "ym2612"
    },
    {
      "channel": 2,
      "note": 37,
      "start": 28.7469,
      "duration": 0.1012,
      "velocity": 127,
      "chip": "ym2612"
    },
    {
      "channel": 5,
      "note": 111,
      "start": 28.7474,
      "duration": 0.0284,
      "velocity": 127,
      "chip": "ym2612"
    },
    {
      "channel": 0,
      "note": 69,
      "start": 28.8691,
      "duration": 0.1242,
      "velocity": 109,
      "chip": "ym2612"
    },
    {
      "channel": 0,
      "note": 66,
      "start": 28.9935,
      "duration": 0.1242,
      "velocity": 109,
      "chip": "ym2612"
    },
    {
      "channel": 1,
      "note": 49,
      "start": 28.9938,
      "duration": 0.1242,
      "velocity": 91,
      "chip": "ym2612"
    },
    {
      "channel": 5,
      "note": 111,
      "start": 28.9943,
      "duration": 0.0304,
      "velocity": 127,
      "chip": "ym2612"
    },
    {
      "channel": 0,
      "note": 66,
      "start": 29.1179,
      "duration": 0.1242,
      "velocity": 109,
      "chip": "ym2612"
    },
    {
      "channel": 1,
      "note": 54,
      "start": 29.1182,
      "duration": 0.2483,
      "velocity": 91,
      "chip": "ym2612"
    },
    {
      "channel": 2,
      "note": 48,
      "start": 29.1201,
      "duration": 0.1012,
      "velocity": 127,
      "chip": "ym2612"
    },
    {
      "channel": 5,
      "note": 111,
      "start": 29.1207,
      "duration": 0.3395,
      "velocity": 127,
      "chip": "ym2612"
    },
    {
      "channel": 1,
      "note": 49,
      "start": 29.3667,
      "duration": 0.1242,
      "velocity": 91,
      "chip": "ym2612"
    },
    {
      "channel": 1,
      "note": 47,
      "start": 29.4911,
      "duration": 0.2486,
      "velocity": 91,
      "chip": "ym2612"
    },
    {
      "channel": 2,
      "note": 42,
      "start": 29.4934,
      "duration": 0.1116,
      "velocity": 91,
      "chip": "ym2612"
    },
    {
      "channel": 5,
      "note": 111,
      "start": 29.4939,
      "duration": 0.0287,
      "velocity": 127,
      "chip": "ym2612"
    },
    {
      "channel": 2,
      "note": 39,
      "start": 29.6156,
      "duration": 0.1138,
      "velocity": 91,
      "chip": "ym2612"
    },
    {
      "channel": 1,
      "note": 49,
      "start": 29.74,
      "duration": 0.1259,
      "velocity": 91,
      "chip": "ym2612"
    },
    {
      "channel": 2,
      "note": 48,
      "start": 29.742,
      "duration": 0.1015,
      "velocity": 127,
      "chip": "ym2612"
    },
    {
      "channel": 5,
      "note": 111,
      "start": 29.7427,
      "duration": 0.0285,
      "velocity": 127,
      "chip": "ym2612"
    },
    {
      "channel": 2,
      "note": 37,
      "start": 29.8679,
      "duration": 0.1,
      "velocity": 127,
      "chip": "ym2612"
    },
    {
      "channel": 3,
      "note": 57,
      "start": 29.8682,
      "duration": 1.4788,
      "velocity": 99,
      "chip": "ym2612"
    },
    {
      "channel": 4,
      "note": 54,
      "start": 29.8685,
      "duration": 1.4786,
      "velocity": 99,
      "chip": "ym2612"
    },
    {
      "channel": 5,
      "note": 111,
      "start": 29.8705,
      "duration": 0.3361,
      "velocity": 127,
      "chip": "ym2612"
    },
    {
      "channel": 2,
      "note": 37,
      "start": 30.1133,
      "duration": 0.1034,
      "velocity": 127,
      "chip": "ym2612"
    },
    {
      "channel": 0,
      "note": 66,
      "start": 30.2376,
      "duration": 0.1242,
      "velocity": 109,
      "chip": "ym2612"
    },
    {
      "channel": 1,
      "note": 54,
      "start": 30.2378,
      "duration": 0.3731,
      "velocity": 91,
      "chip": "ym2612"
    },
    {
      "channel": 2,
      "note": 37,
      "start": 30.2382,
      "duration": 0.1029,
      "velocity": 127,
      "chip": "ym2612"
    },
    {
      "channel": 5,
      "note": 111,
      "start": 30.2387,
      "duration": 0.0302,
      "velocity": 127,
      "chip": "ym2612"
    },
    {
      "channel": 0,
      "note": 66,
      "start": 30.3621,
      "duration": 0.1242,
      "velocity": 109,
      "chip": "ym2612"
    },
    {
      "channel": 5,
      "note": 111,
      "start": 30.4868,
      "duration": 0.0309,
      "velocity": 127,
      "chip": "ym2612"
    },
    {
      "channel": 0,
      "note": 64,
      "start": 30.6108,
      "duration": 0.1242,
      "velocity": 109,
      "chip": "ym2612"
    },
    {
      "channel": 1,
      "note": 52,
      "start": 30.6111,
      "duration": 0.1242,
      "velocity": 91,
      "chip": "ym2612"
    },
    {
      "channel": 2,
      "note": 48,
      "start": 30.6133,
      "duration": 0.101,
      "velocity": 127,
      "chip": "ym2612"
    },
    {
      "channel": 5,
      "note": 111,
      "start": 30.6139,
      "duration": 0.3393,
      "velocity": 127,
      "chip": "ym2612"
    },
    {
      "channel": 0,
      "note": 64,
      "start": 30.7353,
      "duration": 0.1242,
      "velocity": 109,
      "chip": "ym2612"
    },
    {
      "channel": 0,
      "note": 66,
      "start": 30.8597,
      "duration": 0.3731,
      "velocity": 109,
      "chip": "ym2612"
    },
    {
      "channel": 1,
      "note": 54,
      "start": 30.86,
      "duration": 0.3731,
      "velocity": 91,
      "chip": "ym2612"
    },
    {
      "channel": 2,
      "note": 37,
      "start": 30.9858,
      "duration": 0.1018,
      "velocity": 127,
      "chip": "ym2612"
    },
    {
      "channel": 5,
      "note": 111,
      "start": 30.9863,
      "duration": 0.029,
      "velocity": 127,
      "chip": "ym2612"
    },
    {
      "channel": 0,
      "note": 69,
      "start": 31.233,
      "duration": 0.4974,
      "velocity": 109,
      "chip": "ym2612"
    },
    {
      "channel": 1,
      "note": 49,
      "start": 31.2333,
      "duration": 0.2483,
      "velocity": 91,
      "chip": "ym2612"
    },
    {
      "channel": 2,
      "note": 37,
      "start": 31.2336,
      "duration": 0.1028,
      "velocity": 127,
      "chip": "ym2612"
    },
    {
      "channel": 5,
      "note": 111,
      "start": 31.2341,
      "duration": 0.0301,
      "velocity": 127,
      "chip": "ym2612"
    },
    {
      "channel": 2,
      "note": 37,
      "start": 31.3575,
      "duration": 0.1034,
      "velocity": 127,
      "chip": "ym2612"
    },
    {
      "channel": 3,
      "note": 59,
      "start": 31.3578,
      "duration": 1.4821,
      "velocity": 99,
      "chip": "ym2612"
    },
    {
      "channel": 4,
      "note": 56,
      "start": 31.3581,
      "duration": 1.482,
      "velocity": 99,
      "chip": "ym2612"
    },
    {
      "channel": 5,
      "note": 111,
      "start": 31.3584,
      "duration": 0.3412,
      "velocity": 127,
      "chip": "ym2612"
    },
    {
      "channel": 1,
      "note": 49,
      "start": 31.6062,
      "duration": 0.1245,
      "velocity": 91,
      "chip": "ym2612"
    },
    {
      "channel": 2,
      "note": 48,
      "start": 31.6081,
      "duration": 0.1016,
      "velocity": 127,
      "chip": "ym2612"
    },
    {
      "channel": 0,
      "note": 66,
      "start": 31.7306,
      "duration": 0.1242,
      "velocity": 109,
      "chip": "ym2612"
    },
    {
      "channel": 1,
      "note": 52,
      "start": 31.7309,
      "duration": 0.2484,
      "velocity": 91,
      "chip": "ym2612"
    },
    {
      "channel": 2,
      "note": 37,
      "start": 31.7332,
      "duration": 0.1009,
      "velocity": 127,
      "chip": "ym2612"
    },
    {
      "channel": 5,
      "note": 111,
      "start": 31.7337,
      "duration": 0.0281,
      "velocity": 127,
      "chip": "ym2612"
    },
    {
      "channel": 0,
      "note": 66,
      "start": 31.855,
      "duration": 0.1242,
      "velocity": 109,
      "chip": "ym2612"
    },
    {
      "channel": 1,
      "note": 49,
      "start": 31.9795,
      "duration": 0.1244,
      "velocity": 91,
      "chip": "ym2612"
    },
    {
      "channel": 5,
      "note": 111,
      "start": 31.9801,
      "duration": 0.0306,
      "velocity": 127,
      "chip": "ym2612"
    },
    {
      "channel": 0,
      "note": 64,
      "start": 32.1038,
      "duration": 0.1242,
      "velocity": 109,
      "chip": "ym2612"
    },
    {
      "channel": 1,
      "note": 54,
      "start": 32.1041,
      "duration": 0.2487,
      "velocity": 91,
      "chip": "ym2612"
    },
    {
      "channel": 2,
      "note": 48,
      "start": 32.1061,
      "duration": 0.1013,
      "velocity": 127,
      "chip": "ym2612"
    },
    {
      "channel": 5,
      "note": 111,
      "start": 32.1066,
      "duration": 0.3396,
      "velocity": 127,
      "chip": "ym2612"
    },
    {
      "channel": 0,
      "note": 64,
      "start": 32.2283,
      "duration": 0.1242,
      "velocity": 109,
      "chip": "ym2612"
    },
    {
      "channel": 0,
      "note": 66,
      "start": 32.3527,
      "duration": 0.1242,
      "velocity": 109,
      "chip": "ym2612"
    },
    {
      "channel": 1,
      "note": 49,
      "start": 32.353,
      "duration": 0.1242,
      "velocity": 91,
      "chip": "ym2612"
    },
    {
      "channel": 0,
      "note": 66,
      "start": 32.4771,
      "duration": 0.1242,
      "velocity": 109,
      "chip": "ym2612"
    },
    {
      "channel": 1,
      "note": 47,
      "start": 32.4774,
      "duration": 0.2485,
      "velocity": 91,
      "chip": "ym2612"
    },
    {
      "channel": 2,
      "note": 42,
      "start": 32.4794,
      "duration": 0.1116,
      "velocity": 91,
      "chip": "ym2612"
    },
    {
      "channel": 5,
      "note": 111,
      "start": 32.4799,
      "duration": 0.0285,
      "velocity": 127,
      "chip": "ym2612"
    },
    {
      "channel": 2,
      "note": 39,
      "start": 32.6017,
      "duration": 0.1137,
      "velocity": 91,
      "chip": "ym2612"
    },
    {
      "channel": 0,
      "note": 72,
      "start": 32.7259,
      "duration": 0.3731,
      "velocity": 109,
      "chip": "ym2612"
    },
    {
      "channel": 1,
      "note": 42,
      "start": 32.7262,
      "duration": 0.4975,
      "velocity": 91,
      "chip": "ym2612"
    },
    {
      "channel": 2,
      "note": 48,
      "start": 32.7282,
      "duration": 0.1012,
      "velocity": 127,
      "chip": "ym2612"
    },
    {
      "channel": 5,
      "note": 111,
      "start": 32.7287,
      "duration": 0.0285,
      "velocity": 127,
      "chip": "ym2612"
    },
    {
      "channel": 2,
      "note": 37,
      "start": 32.8521,
      "duration": 0.1017,
      "velocity": 127,
      "chip": "ym2612"
    },
    {
      "channel": 3,
      "note": 61,
      "start": 32.8527,
      "duration": 1.4803,
      "velocity": 99,
      "chip": "ym2612"
    },
    {
      "channel": 4,
      "note": 57,
      "start": 32.853,
      "duration": 1.4801,
      "velocity": 99,
      "chip": "ym2612"
    },
    {
      "channel": 5,
      "note": 111,
      "start": 32.8533,
      "duration": 0.3395,
      "velocity": 127,
      "chip": "ym2612"
    },
    {
      "channel": 0,
      "note": 72,
      "start": 33.0992,
      "duration": 0.1242,
      "velocity": 109,
      "chip": "ym2612"
    },
    {
      "channel": 2,
      "note": 37,
      "start": 33.0996,
      "duration": 0.1031,
      "velocity": 127,
      "chip": "ym2612"
    },
    {
      "channel": 0,
      "note": 71,
      "start": 33.2236,
      "duration": 0.1242,
      "velocity": 109,
      "chip": "ym2612"
    },
    {
      "channel": 1,
      "note": 54,
      "start": 33.2239,
      "duration": 0.373,
      "velocity": 91,
      "chip": "ym2612"
    },
    {
      "channel": 2,
      "note": 37,
      "start": 33.2243,
      "duration": 0.1028,
      "velocity": 127,
      "chip": "ym2612"
    },
    {
      "channel": 5,
      "note": 111,
      "start": 33.2248,
      "duration": 0.03,
      "velocity": 127,
      "chip": "ym2612"
    },
    {
      "channel": 0,
      "note": 71,
      "start": 33.348,
      "duration": 0.1244,
      "velocity": 109,
      "chip": "ym2612"
    },
    {
      "channel": 5,
      "note": 111,
      "start": 33.4731,
      "duration": 0.0306,
      "velocity": 127,
      "chip": "ym2612"
    },
    {
      "channel": 0,
      "note": 69,
      "start": 33.5968,
      "duration": 0.1242,
      "velocity": 109,
      "chip": "ym2612"
    },
    {
      "channel": 1,
      "note": 52,
      "start": 33.5971,
      "duration": 0.2487,
      "velocity": 91,
      "chip": "ym2612"
    },
    {
      "channel": 2,
      "note": 48,
      "start": 33.599,
      "duration": 0.1013,
      "velocity": 127,
      "chip": "ym2612"
    },
    {
      "channel": 5,
      "note": 111,
      "start": 33.5996,
      "duration": 0.3395,
      "velocity": 127,
      "chip": "ym2612"
    },
    {
      "channel": 0,
      "note": 69,
      "start": 33.7213,
      "duration": 0.1242,
      "velocity": 109,
      "chip": "ym2612"
    },
    {
      "channel": 0,
      "note": 66,
      "start": 33.8457,
      "duration": 0.1242,
      "velocity": 109,
      "chip": "ym2612"
    },
    {
      "channel": 1,
      "note": 54,
      "start": 33.846,
      "duration": 0.373,
      "velocity": 91,
      "chip": "ym2612"
    },
    {
      "channel": 0,
      "note": 66,
      "start": 33.9701,
      "duration": 0.1242,
      "velocity": 109,
      "chip": "ym2612"
    },
    {
      "channel": 2,
      "note": 37,
      "start": 33.9721,
      "duration": 0.1015,
      "velocity": 127,
      "chip": "ym2612"
    },
    {
      "channel": 5,
      "note": 111,
      "start": 33.9729,
      "duration": 0.0285,
      "velocity": 127,
      "chip": "ym2612"
    },
    {
      "channel": 0,
      "note": 64,
      "start": 34.2189,
      "duration": 0.2487,
      "velocity": 109,
      "chip": "ym2612"
    },
    {
      "channel": 1,
      "note": 49,
      "start": 34.2192,
      "duration": 0.2487,
      "velocity": 91,
      "chip": "ym2612"
    },
    {
      "channel": 2,
      "note": 37,
      "start": 34.2195,
      "duration": 0.103,
      "velocity": 127,
      "chip": "ym2612"
    },
    {
      "channel": 5,
      "note": 111,
      "start": 34.22,
      "duration": 0.0302,
      "velocity": 127,
      "chip": "ym2612"
    },
    {
      "channel": 2,
      "note": 37,
      "start": 34.3435,
      "duration": 0.1034,
      "velocity": 127,
      "chip": "ym2612"
    },
    {
      "channel": 3,
      "note": 59,
      "start": 34.3438,
      "duration": 1.4925,
      "velocity": 99,
      "chip": "ym2612"
    },
    {
      "channel": 4,
      "note": 56,
      "start": 34.3441,
      "duration": 1.4923,
      "velocity": 99,
      "chip": "ym2612"
    },
    {
      "channel": 5,
      "note": 111,
      "start": 34.3444,
      "duration": 0.3412,
      "velocity": 127,
      "chip": "ym2612"
    },
    {
      "channel": 0,
      "note": 64,
      "start": 34.4678,
      "duration": 0.1242,
      "velocity": 109,
      "chip": "ym2612"
    },
    {
      "channel": 0,
      "note": 66,
      "start": 34.5924,
      "duration": 0.1239,
      "velocity": 109,
      "chip": "ym2612"
    },
    {
      "channel": 1,
      "note": 49,
      "start": 34.5927,
      "duration": 0.124,
      "velocity": 91,
      "chip": "ym2612"
    },
    {
      "channel": 2,
      "note": 48,
      "start": 34.5946,
      "duration": 0.101,
      "velocity": 127,
      "chip": "ym2612"
    },
    {
      "channel": 0,
      "note": 69,
      "start": 34.7166,
      "duration": 0.1242,
      "velocity": 109,
      "chip": "ym2612"
    },
    {
      "channel": 1,
      "note": 52,
      "start": 34.7169,
      "duration": 0.2486,
      "velocity": 91,
      "chip": "ym2612"
    },
    {
      "channel": 2,
      "note": 37,
      "start": 34.7189,
      "duration": 0.1012,
      "velocity": 127,
      "chip": "ym2612"
    },
    {
      "channel": 5,
      "note": 111,
      "start": 34.7194,
      "duration": 0.0284,
      "velocity": 127,
      "chip": "ym2612"
    },
    {
      "channel": 0,
      "note": 69,
      "start": 34.841,
      "duration": 0.1242,
      "velocity": 109,
      "chip": "ym2612"
    },
    {
      "channel": 0,
      "note": 66,
      "start": 34.9654,
      "duration": 0.1242,
      "velocity": 109,
      "chip": "ym2612"
    },
    {
      "channel": 1,
      "note": 49,
      "start": 34.9657,
      "duration": 0.1242,
      "velocity": 91,
      "chip": "ym2612"
    },
    {
      "channel": 5,
      "note": 111,
      "start": 34.9663,
      "duration": 0.0303,
      "velocity": 127,
      "chip": "ym2612"
    },
    {
      "channel": 0,
      "note": 66,
      "start": 35.0899,
      "duration": 0.1242,
      "velocity": 109,
      "chip": "ym2612"
    },
    {
      "channel": 1,
      "note": 54,
      "start": 35.0901,
      "duration": 0.2483,
      "velocity": 91,
      "chip": "ym2612"
    },
    {
      "channel": 2,
      "note": 48,
      "start": 35.0921,
      "duration": 0.1012,
      "velocity": 127,
      "chip": "ym2612"
    },
    {
      "channel": 5,
      "note": 111,
      "start": 35.0929,
      "duration": 0.3395,
      "velocity": 127,
      "chip": "ym2612"
    },
    {
      "channel": 1,
      "note": 49,
      "start": 35.3387,
      "duration": 0.1346,
      "velocity": 91,
      "chip": "ym2612"
    },
    {
      "channel": 1,
      "note": 47,
      "start": 35.4735,
      "duration": 0.2486,
      "velocity": 91,
      "chip": "ym2612"
    },
    {
      "channel": 2,
      "note": 42,
      "start": 35.4754,
      "duration": 0.1119,
      "velocity": 91,
      "chip": "ym2612"
    },
    {
      "channel": 5,
      "note": 111,
      "start": 35.4759,
      "duration": 0.0288,
      "velocity": 127,
      "chip": "ym2612"
    },
    {
      "channel": 2,
      "note": 39,
      "start": 35.5979,
      "duration": 0.1138,
      "velocity": 91,
      "chip": "ym2612"
    },
    {
      "channel": 1,
      "note": 49,
      "start": 35.7226,
      "duration": 0.124,
      "velocity": 91,
      "chip": "ym2612"
    },
    {
      "channel": 2,
      "note": 48,
      "start": 35.7246,
      "duration": 0.1012,
      "velocity": 127,
      "chip": "ym2612"
    },
    {
      "channel": 5,
      "note": 111,
      "start": 35.725,
      "duration": 0.0285,
      "velocity": 127,
      "chip": "ym2612"
    },
    {
      "channel": 1,
      "note": 47,
      "start": 35.8485,
      "duration": 0.2468,
      "velocity": 91,
      "chip": "ym2612"
    },
    {
      "channel": 3,
      "note": 54,
      "start": 35.8506,
      "duration": 0.3691,
      "velocity": 99,
      "chip": "ym2612"
    },
    {
      "channel": 4,
      "note": 50,
      "start": 35.8529,
      "duration": 0.3668,
      "velocity": 99,
      "chip": "ym2612"
    },
    {
      "channel": 5,
      "note": 66,
      "start": 35.855,
      "duration": 0.3339,
      "velocity": 127,
      "chip": "ym2612"
    }
  ]
}