{
  "track_name": "01 - Ending Theme",
  "duration_sec": 104.878,
  "sample_rate": 44100,
  "note_count": 2315,
  "unique_pitches": 30,
  "pitch_range": 69,
  "avg_note_duration": 0.2544,
  "reconstruction_stats": {
    "notes_reconstructed": 2315,
    "keyon_events": 2315,
    "keyoff_events": 2309,
    "orphan_keyons": 6,
    "unique_pitches": 30,
    "pitch_range": 69,
    "avg_duration_sec": 0.2544
  },
  "metadata": {
    "source": "S\\Skeleton Krew\\01 - Ending Theme.vgz"
  },
  "notes": [
    {
      "channel": 0,
      "note": 63,
      "start": 0.0,
      "duration": 0.0,
      "velocity": 97,
      "chip": "ym2612"
    },
    {
      "channel": 0,
      "note": 64,
      "start": 0.0,
      "duration": 0.0,
      "velocity": 97,
      "chip": "ym2612"
    },
    {
      "channel": 0,
      "note": 61,
      "start": 0.0,
      "duration": 0.0,
      "velocity": 97,
      "chip": "ym2612"
    },
    {
      "channel": 0,
      "note": 66,
      "start": 0.0,
      "duration": 0.0,
      "velocity": 86,
      "chip": "ym2612"
    },
    {
      "channel": 0,
      "note": 44,
      "start": 0.0,
      "duration": 0.0,
      "velocity": 1,
      "chip": "ym2612"
    },
    {
      "channel": 2,
      "note": 20,
      "start": 0.0,
      "duration": 0.0,
      "velocity": 1,
      "chip": "ym2612"
    },
    {
      "channel": 3,
      "note": 39,
      "start": 0.0,
      "duration": 0.0,
      "velocity": 1,
      "chip": "ym2612"
    },
    {
      "channel": 4,
      "note": 44,
      "start": 0.0,
      "duration": 0.0,
      "velocity": 86,
      "chip": "ym2612"
    },
    {
      "channel": 4,
      "note": 44,
      "start": 0.0,
      "duration": 0.0,
      "velocity": 86,
      "chip": "ym2612"
    },
    {
      "channel": 4,
      "note": 44,
      "start": 0.0,
      "duration": 0.0,
      "velocity": 86,
      "chip": "ym2612"
    },
    {
      "channel": 4,
      "note": 44,
      "start": 0.0,
      "duration": 0.0,
      "velocity": 86,
      "chip": "ym2612"
    },
    {
      "channel": 4,
      "note": 44,
      "start": 0.0,
      "duration": 0.0,
      "velocity": 86,
      "chip": "ym2612"
    },
    {
      "channel": 4,
      "note": 44,
      "start": 0.0,
      "duration": 0.0,
      "velocity": 86,
      "chip": "ym2612"
    },
    {
      "channel": 4,
      "note": 44,
      "start": 0.0,
      "duration": 0.0,
      "velocity": 86,
      "chip": "ym2612"
    },
    {
      "channel": 4,
      "note": 44,
      "start": 0.0,
      "duration": 0.0,
      "velocity": 86,
      "chip": "ym2612"
    },
    {
      "channel": 4,
      "note": 44,
      "start": 0.0,
      "duration": 0.0,
      "velocity": 86,
      "chip": "ym2612"
    },
    {
      "channel": 4,
      "note": 44,
      "start": 0.0,
      "duration": 0.0,
      "velocity": 86,
      "chip": "ym2612"
    },
    {
      "channel": 4,
      "note": 44,
      "start": 0.0,
      "duration": 0.0,
      "velocity": 86,
      "chip": "ym2612"
    },
    {
      "channel": 4,
      "note": 44,
      "start": 0.0,
      "duration": 0.0,
      "velocity": 1,
      "chip": "ym2612"
    },
    {
      "channel": 0,
      "note": 73,
      "start": 0.0014,
      "duration": 0.1971,
      "velocity": 106,
      "chip": "ym2612"
    },
    {
      "channel": 2,
      "note": 43,
      "start": 0.003,
      "duration": 0.0978,
      "velocity": 86,
      "chip": "ym2612"
    },
    {
      "channel": 1,
      "note": 70,
      "start": 0.1006,
      "duration": 0.1972,
      "velocity": 106,
      "chip": "ym2612"
    },
    {
      "channel": 2,
      "note": 34,
      "start": 0.101,
      "duration": 0.0978,
      "velocity": 86,
      "chip": "ym2612"
    },
    {
      "channel": 0,
      "note": 70,
      "start": 0.1986,
      "duration": 0.1985,
      "velocity": 106,
      "chip": "ym2612"
    },
    {
      "channel": 2,
      "note": 41,
      "start": 0.1989,
      "duration": 0.0992,
      "velocity": 86,
      "chip": "ym2612"
    },
    {
      "channel": 1,
      "note": 73,
      "start": 0.2979,
      "duration": 0.1985,
      "velocity": 106,
      "chip": "ym2612"
    },
    {
      "channel": 2,
      "note": 36,
      "start": 0.2982,
      "duration": 0.0993,
      "velocity": 86,
      "chip": "ym2612"
    },
    {
      "channel": 0,
      "note": 63,
      "start": 0.3972,
      "duration": 0.1985,
      "velocity": 106,
      "chip": "ym2612"
    },
    {
      "channel": 2,
      "note": 39,
      "start": 0.3976,
      "duration": 0.0992,
      "velocity": 86,
      "chip": "ym2612"
    },
    {
      "channel": 1,
      "note": 70,
      "start": 0.4966,
      "duration": 0.1985,
      "velocity": 106,
      "chip": "ym2612"
    },
    {
      "channel": 2,
      "note": 37,
      "start": 0.4969,
      "duration": 0.0992,
      "velocity": 86,
      "chip": "ym2612"
    },
    {
      "channel": 0,
      "note": 75,
      "start": 0.5959,
      "duration": 0.1985,
      "velocity": 106,
      "chip": "ym2612"
    },
    {
      "channel": 2,
      "note": 43,
      "start": 0.5962,
      "duration": 0.0992,
      "velocity": 86,
      "chip": "ym2612"
    },
    {
      "channel": 1,
      "note": 63,
      "start": 0.6952,
      "duration": 0.1985,
      "velocity": 106,
      "chip": "ym2612"
    },
    {
      "channel": 2,
      "note": 34,
      "start": 0.6955,
      "duration": 0.0992,
      "velocity": 86,
      "chip": "ym2612"
    },
    {
      "channel": 0,
      "note": 70,
      "start": 0.7946,
      "duration": 0.1985,
      "velocity": 106,
      "chip": "ym2612"
    },
    {
      "channel": 2,
      "note": 41,
      "start": 0.7949,
      "duration": 0.0992,
      "velocity": 86,
      "chip": "ym2612"
    },
    {
      "channel": 1,
      "note": 75,
      "start": 0.8939,
      "duration": 0.1985,
      "velocity": 106,
      "chip": "ym2612"
    },
    {
      "channel": 2,
      "note": 36,
      "start": 0.8942,
      "duration": 0.0992,
      "velocity": 86,
      "chip": "ym2612"
    },
    {
      "channel": 0,
      "note": 63,
      "start": 0.9932,
      "duration": 0.1985,
      "velocity": 106,
      "chip": "ym2612"
    },
    {
      "channel": 2,
      "note": 39,
      "start": 0.9935,
      "duration": 0.0992,
      "velocity": 86,
      "chip": "ym2612"
    },
    {
      "channel": 1,
      "note": 70,
      "start": 1.0924,
      "duration": 0.1985,
      "velocity": 106,
      "chip": "ym2612"
    },
    {
      "channel": 2,
      "note": 37,
      "start": 1.0928,
      "duration": 0.0992,
      "velocity": 86,
      "chip": "ym2612"
    },
    {
      "channel": 0,
      "note": 73,
      "start": 1.1918,
      "duration": 0.1985,
      "velocity": 106,
      "chip": "ym2612"
    },
    {
      "channel": 2,
      "note": 43,
      "start": 1.1921,
      "duration": 0.0992,
      "velocity": 86,
      "chip": "ym2612"
    },
    {
      "channel": 1,
      "note": 63,
      "start": 1.2911,
      "duration": 0.1985,
      "velocity": 106,
      "chip": "ym2612"
    },
    {
      "channel": 2,
      "note": 34,
      "start": 1.2914,
      "duration": 0.0992,
      "velocity": 86,
      "chip": "ym2612"
    },
    {
      "channel": 0,
      "note": 70,
      "start": 1.3904,
      "duration": 0.1985,
      "velocity": 106,
      "chip": "ym2612"
    },
    {
      "channel": 2,
      "note": 41,
      "start": 1.3907,
      "duration": 0.0992,
      "velocity": 86,
      "chip": "ym2612"
    },
    {
      "channel": 1,
      "note": 73,
      "start": 1.4897,
      "duration": 0.1987,
      "velocity": 106,
      "chip": "ym2612"
    },
    {
      "channel": 2,
      "note": 36,
      "start": 1.49,
      "duration": 0.0992,
      "velocity": 86,
      "chip": "ym2612"
    },
    {
      "channel": 0,
      "note": 63,
      "start": 1.589,
      "duration": 0.1989,
      "velocity": 106,
      "chip": "ym2612"
    },
    {
      "channel": 2,
      "note": 39,
      "start": 1.5893,
      "duration": 0.0994,
      "velocity": 86,
      "chip": "ym2612"
    },
    {
      "channel": 1,
      "note": 70,
      "start": 1.6885,
      "duration": 0.1983,
      "velocity": 106,
      "chip": "ym2612"
    },
    {
      "channel": 2,
      "note": 37,
      "start": 1.6888,
      "duration": 0.0994,
      "velocity": 86,
      "chip": "ym2612"
    },
    {
      "channel": 0,
      "note": 75,
      "start": 1.7881,
      "duration": 0.1981,
      "velocity": 106,
      "chip": "ym2612"
    },
    {
      "channel": 2,
      "note": 43,
      "start": 1.7884,
      "duration": 0.0988,
      "velocity": 86,
      "chip": "ym2612"
    },
    {
      "channel": 1,
      "note": 63,
      "start": 1.887,
      "duration": 0.1985,
      "velocity": 106,
      "chip": "ym2612"
    },
    {
      "channel": 2,
      "note": 34,
      "start": 1.8873,
      "duration": 0.0992,
      "velocity": 86,
      "chip": "ym2612"
    },
    {
      "channel": 0,
      "note": 70,
      "start": 1.9863,
      "duration": 0.1985,
      "velocity": 106,
      "chip": "ym2612"
    },
    {
      "channel": 2,
      "note": 41,
      "start": 1.9866,
      "duration": 0.0992,
      "velocity": 86,
      "chip": "ym2612"
    },
    {
      "channel": 1,
      "note": 75,
      "start": 2.0856,
      "duration": 0.1985,
      "velocity": 106,
      "chip": "ym2612"
    },
    {
      "channel": 2,
      "note": 36,
      "start": 2.086,
      "duration": 0.0992,
      "velocity": 86,
      "chip": "ym2612"
    },
    {
      "channel": 0,
      "note": 63,
      "start": 2.1849,
      "duration": 0.1985,
      "velocity": 106,
      "chip": "ym2612"
    },
    {
      "channel": 2,
      "note": 39,
      "start": 2.1853,
      "duration": 0.0992,
      "velocity": 86,
      "chip": "ym2612"
    },
    {
      "channel": 1,
      "note": 70,
      "start": 2.2842,
      "duration": 0.1985,
      "velocity": 106,
      "chip": "ym2612"
    },
    {
      "channel": 2,
      "note": 37,
      "start": 2.2846,
      "duration": 0.0992,
      "velocity": 86,
      "chip": "ym2612"
    },
    {
      "channel": 0,
      "note": 73,
      "start": 2.3835,
      "duration": 0.1985,
      "velocity": 106,
      "chip": "ym2612"
    },
    {
      "channel": 2,
      "note": 43,
      "start": 2.3839,
      "duration": 0.0993,
      "velocity": 86,
      "chip": "ym2612"
    },
    {
      "channel": 1,
      "note": 63,
      "start": 2.4829,
      "duration": 0.1985,
      "velocity": 106,
      "chip": "ym2612"
    },
    {
      "channel": 2,
      "note": 34,
      "start": 2.4832,
      "duration": 0.0992,
      "velocity": 86,
      "chip": "ym2612"
    },
    {
      "channel": 0,
      "note": 70,
      "start": 2.5822,
      "duration": 0.1985,
      "velocity": 106,
      "chip": "ym2612"
    },
    {
      "channel": 2,
      "note": 41,
      "start": 2.5825,
      "duration": 0.0992,
      "velocity": 86,
      "chip": "ym2612"
    },
    {
      "channel": 1,
      "note": 73,
      "start": 2.6815,
      "duration": 0.1985,
      "velocity": 106,
      "chip": "ym2612"
    },
    {
      "channel": 2,
      "note": 36,
      "start": 2.6818,
      "duration": 0.0992,
      "velocity": 86,
      "chip": "ym2612"
    },
    {
      "channel": 0,
      "note": 73,
      "start": 2.7808,
      "duration": 0.1985,
      "velocity": 106,
      "chip": "ym2612"
    },
    {
      "channel": 2,
      "note": 39,
      "start": 2.7811,
      "duration": 0.0992,
      "velocity": 86,
      "chip": "ym2612"
    },
    {
      "channel": 1,
      "note": 70,
      "start": 2.8801,
      "duration": 0.1985,
      "velocity": 106,
      "chip": "ym2612"
    },
    {
      "channel": 2,
      "note": 37,
      "start": 2.8804,
      "duration": 0.0992,
      "velocity": 86,
      "chip": "ym2612"
    },
    {
      "channel": 0,
      "note": 70,
      "start": 2.9795,
      "duration": 0.1985,
      "velocity": 106,
      "chip": "ym2612"
    },
    {
      "channel": 2,
      "note": 43,
      "start": 2.9798,
      "duration": 0.0992,
      "velocity": 86,
      "chip": "ym2612"
    },
    {
      "channel": 1,
      "note": 73,
      "start": 3.0788,
      "duration": 0.1985,
      "velocity": 106,
      "chip": "ym2612"
    },
    {
      "channel": 2,
      "note": 34,
      "start": 3.0791,
      "duration": 0.0993,
      "velocity": 86,
      "chip": "ym2612"
    },
    {
      "channel": 0,
      "note": 73,
      "start": 3.1781,
      "duration": 0.1984,
      "velocity": 106,
      "chip": "ym2612"
    },
    {
      "channel": 2,
      "note": 43,
      "start": 3.1785,
      "duration": 0.0991,
      "velocity": 86,
      "chip": "ym2612"
    },
    {
      "channel": 1,
      "note": 70,
      "start": 3.2774,
      "duration": 0.1985,
      "velocity": 106,
      "chip": "ym2612"
    },
    {
      "channel": 2,
      "note": 34,
      "start": 3.2778,
      "duration": 0.0992,
      "velocity": 86,
      "chip": "ym2612"
    },
    {
      "channel": 0,
      "note": 70,
      "start": 3.3767,
      "duration": 0.1985,
      "velocity": 106,
      "chip": "ym2612"
    },
    {
      "channel": 2,
      "note": 41,
      "start": 3.3771,
      "duration": 0.0992,
      "velocity": 86,
      "chip": "ym2612"
    },
    {
      "channel": 1,
      "note": 73,
      "start": 3.476,
      "duration": 0.1985,
      "velocity": 106,
      "chip": "ym2612"
    },
    {
      "channel": 2,
      "note": 36,
      "start": 3.4763,
      "duration": 0.0992,
      "velocity": 86,
      "chip": "ym2612"
    },
    {
      "channel": 0,
      "note": 63,
      "start": 3.5753,
      "duration": 0.1985,
      "velocity": 106,
      "chip": "ym2612"
    },
    {
      "channel": 2,
      "note": 39,
      "start": 3.5757,
      "duration": 0.0992,
      "velocity": 86,
      "chip": "ym2612"
    },
    {
      "channel": 1,
      "note": 70,
      "start": 3.6746,
      "duration": 0.1985,
      "velocity": 106,
      "chip": "ym2612"
    },
    {
      "channel": 2,
      "note": 37,
      "start": 3.675,
      "duration": 0.0992,
      "velocity": 86,
      "chip": "ym2612"
    },
    {
      "channel": 0,
      "note": 75,
      "start": 3.774,
      "duration": 0.1985,
      "velocity": 106,
      "chip": "ym2612"
    },
    {
      "channel": 2,
      "note": 43,
      "start": 3.7743,
      "duration": 0.0992,
      "velocity": 86,
      "chip": "ym2612"
    },
    {
      "channel": 1,
      "note": 63,
      "start": 3.8733,
      "duration": 0.1985,
      "velocity": 106,
      "chip": "ym2612"
    },
    {
      "channel": 2,
      "note": 34,
      "start": 3.8736,
      "duration": 0.0992,
      "velocity": 86,
      "chip": "ym2612"
    },
    {
      "channel": 0,
      "note": 70,
      "start": 3.9726,
      "duration": 0.1989,
      "velocity": 106,
      "chip": "ym2612"
    },
    {
      "channel": 2,
      "note": 41,
      "start": 3.9729,
      "duration": 0.0992,
      "velocity": 86,
      "chip": "ym2612"
    },
    {
      "channel": 1,
      "note": 75,
      "start": 4.0719,
      "duration": 0.1985,
      "velocity": 106,
      "chip": "ym2612"
    },
    {
      "channel": 2,
      "note": 36,
      "start": 4.0722,
      "duration": 0.0996,
      "velocity": 86,
      "chip": "ym2612"
    },
    {
      "channel": 0,
      "note": 63,
      "start": 4.1717,
      "duration": 0.1981,
      "velocity": 106,
      "chip": "ym2612"
    },
    {
      "channel": 2,
      "note": 39,
      "start": 4.172,
      "duration": 0.0992,
      "velocity": 86,
      "chip": "ym2612"
    },
    {
      "channel": 1,
      "note": 70,
      "start": 4.2706,
      "duration": 0.1985,
      "velocity": 106,
      "chip": "ym2612"
    },
    {
      "channel": 2,
      "note": 37,
      "start": 4.2713,
      "duration": 0.0988,
      "velocity": 86,
      "chip": "ym2612"
    },
    {
      "channel": 0,
      "note": 73,
      "start": 4.3699,
      "duration": 0.1985,
      "velocity": 106,
      "chip": "ym2612"
    },
    {
      "channel": 2,
      "note": 43,
      "start": 4.3702,
      "duration": 0.0992,
      "velocity": 86,
      "chip": "ym2612"
    },
    {
      "channel": 1,
      "note": 63,
      "start": 4.4692,
      "duration": 0.1985,
      "velocity": 106,
      "chip": "ym2612"
    },
    {
      "channel": 2,
      "note": 34,
      "start": 4.4695,
      "duration": 0.0992,
      "velocity": 86,
      "chip": "ym2612"
    },
    {
      "channel": 0,
      "note": 70,
      "start": 4.5685,
      "duration": 0.1985,
      "velocity": 106,
      "chip": "ym2612"
    },
    {
      "channel": 2,
      "note": 41,
      "start": 4.5688,
      "duration": 0.0992,
      "velocity": 86,
      "chip": "ym2612"
    },
    {
      "channel": 1,
      "note": 73,
      "start": 4.6678,
      "duration": 0.1985,
      "velocity": 106,
      "chip": "ym2612"
    },
    {
      "channel": 2,
      "note": 36,
      "start": 4.6681,
      "duration": 0.0992,
      "velocity": 86,
      "chip": "ym2612"
    },
    {
      "channel": 0,
      "note": 63,
      "start": 4.7671,
      "duration": 0.1985,
      "velocity": 106,
      "chip": "ym2612"
    },
    {
      "channel": 2,
      "note": 39,
      "start": 4.7675,
      "duration": 0.0992,
      "velocity": 86,
      "chip": "ym2612"
    },
    {
      "channel": 1,
      "note": 70,
      "start": 4.8664,
      "duration": 0.1985,
      "velocity": 106,
      "chip": "ym2612"
    },
    {
      "channel": 2,
      "note": 37,
      "start": 4.8668,
      "duration": 0.0992,
      "velocity": 86,
      "chip": "ym2612"
    },
    {
      "channel": 0,
      "note": 75,
      "start": 4.9657,
      "duration": 0.1985,
      "velocity": 106,
      "chip": "ym2612"
    },
    {
      "channel": 2,
      "note": 43,
      "start": 4.9661,
      "duration": 0.0992,
      "velocity": 86,
      "chip": "ym2612"
    },
    {
      "channel": 1,
      "note": 63,
      "start": 5.0651,
      "duration": 0.1985,
      "velocity": 106,
      "chip": "ym2612"
    },
    {
      "channel": 2,
      "note": 34,
      "start": 5.0654,
      "duration": 0.0992,
      "velocity": 86,
      "chip": "ym2612"
    },
    {
      "channel": 0,
      "note": 70,
      "start": 5.1644,
      "duration": 0.1985,
      "velocity": 106,
      "chip": "ym2612"
    },
    {
      "channel": 2,
      "note": 41,
      "start": 5.1647,
      "duration": 0.0992,
      "velocity": 86,
      "chip": "ym2612"
    },
    {
      "channel": 1,
      "note": 75,
      "start": 5.2637,
      "duration": 0.1985,
      "velocity": 106,
      "chip": "ym2612"
    },
    {
      "channel": 2,
      "note": 36,
      "start": 5.264,
      "duration": 0.0992,
      "velocity": 86,
      "chip": "ym2612"
    },
    {
      "channel": 0,
      "note": 63,
      "start": 5.363,
      "duration": 0.1985,
      "velocity": 106,
      "chip": "ym2612"
    },
    {
      "channel": 2,
      "note": 39,
      "start": 5.3633,
      "duration": 0.0993,
      "velocity": 86,
      "chip": "ym2612"
    },
    {
      "channel": 1,
      "note": 70,
      "start": 5.4623,
      "duration": 0.1985,
      "velocity": 106,
      "chip": "ym2612"
    },
    {
      "channel": 2,
      "note": 37,
      "start": 5.4627,
      "duration": 0.0992,
      "velocity": 86,
      "chip": "ym2612"
    },
    {
      "channel": 0,
      "note": 73,
      "start": 5.5617,
      "duration": 0.1985,
      "velocity": 106,
      "chip": "ym2612"
    },
    {
      "channel": 2,
      "note": 43,
      "start": 5.562,
      "duration": 0.0992,
      "velocity": 86,
      "chip": "ym2612"
    },
    {
      "channel": 1,
      "note": 63,
      "start": 5.661,
      "duration": 0.1985,
      "velocity": 106,
      "chip": "ym2612"
    },
    {
      "channel": 2,
      "note": 34,
      "start": 5.6613,
      "duration": 0.0992,
      "velocity": 86,
      "chip": "ym2612"
    },
    {
      "channel": 0,
      "note": 70,
      "start": 5.7603,
      "duration": 0.1985,
      "velocity": 106,
      "chip": "ym2612"
    },
    {
      "channel": 2,
      "note": 41,
      "start": 5.7606,
      "duration": 0.0992,
      "velocity": 86,
      "chip": "ym2612"
    },
    {
      "channel": 1,
      "note": 73,
      "start": 5.8596,
      "duration": 0.1985,
      "velocity": 106,
      "chip": "ym2612"
    },
    {
      "channel": 2,
      "note": 36,
      "start": 5.8599,
      "duration": 0.0992,
      "velocity": 86,
      "chip": "ym2612"
    },
    {
      "channel": 0,
      "note": 73,
      "start": 5.9589,
      "duration": 0.1985,
      "velocity": 106,
      "chip": "ym2612"
    },
    {
      "channel": 2,
      "note": 39,
      "start": 5.9593,
      "duration": 0.0992,
      "velocity": 86,
      "chip": "ym2612"
    },
    {
      "channel": 1,
      "note": 70,
      "start": 6.0582,
      "duration": 0.1985,
      "velocity": 106,
      "chip": "ym2612"
    },
    {
      "channel": 2,
      "note": 37,
      "start": 6.0585,
      "duration": 0.0992,
      "velocity": 86,
      "chip": "ym2612"
    },
    {
      "channel": 0,
      "note": 70,
      "start": 6.1575,
      "duration": 0.1986,
      "velocity": 106,
      "chip": "ym2612"
    },
    {
      "channel": 2,
      "note": 43,
      "start": 6.1578,
      "duration": 0.0992,
      "velocity": 86,
      "chip": "ym2612"
    },
    {
      "channel": 1,
      "note": 73,
      "start": 6.2568,
      "duration": 0.1985,
      "velocity": 106,
      "chip": "ym2612"
    },
    {
      "channel": 2,
      "note": 34,
      "start": 6.2571,
      "duration": 0.0993,
      "velocity": 86,
      "chip": "ym2612"
    },
    {
      "channel": 0,
      "note": 73,
      "start": 6.3563,
      "duration": 0.1988,
      "velocity": 106,
      "chip": "ym2612"
    },
    {
      "channel": 2,
      "note": 43,
      "start": 6.3566,
      "duration": 0.0991,
      "velocity": 86,
      "chip": "ym2612"
    },
    {
      "channel": 1,
      "note": 70,
      "start": 6.4555,
      "duration": 0.1985,
      "velocity": 106,
      "chip": "ym2612"
    },
    {
      "channel": 2,
      "note": 34,
      "start": 6.4558,
      "duration": 0.0996,
      "velocity": 86,
      "chip": "ym2612"
    },
    {
      "channel": 0,
      "note": 70,
      "start": 6.5552,
      "duration": 0.1981,
      "velocity": 106,
      "chip": "ym2612"
    },
    {
      "channel": 2,
      "note": 41,
      "start": 6.5555,
      "duration": 0.0993,
      "velocity": 86,
      "chip": "ym2612"
    },
    {
      "channel": 1,
      "note": 73,
      "start": 6.6545,
      "duration": 0.198,
      "velocity": 106,
      "chip": "ym2612"
    },
    {
      "channel": 2,
      "note": 36,
      "start": 6.6549,
      "duration": 0.0988,
      "velocity": 86,
      "chip": "ym2612"
    },
    {
      "channel": 0,
      "note": 63,
      "start": 6.7534,
      "duration": 0.1985,
      "velocity": 106,
      "chip": "ym2612"
    },
    {
      "channel": 2,
      "note": 39,
      "start": 6.7538,
      "duration": 0.0992,
      "velocity": 86,
      "chip": "ym2612"
    },
    {
      "channel": 1,
      "note": 70,
      "start": 6.8528,
      "duration": 0.1985,
      "velocity": 106,
      "chip": "ym2612"
    },
    {
      "channel": 2,
      "note": 37,
      "start": 6.8531,
      "duration": 0.0992,
      "velocity": 86,
      "chip": "ym2612"
    },
    {
      "channel": 0,
      "note": 75,
      "start": 6.9521,
      "duration": 0.1985,
      "velocity": 106,
      "chip": "ym2612"
    },
    {
      "channel": 2,
      "note": 43,
      "start": 6.9524,
      "duration": 0.0992,
      "velocity": 86,
      "chip": "ym2612"
    },
    {
      "channel": 1,
      "note": 63,
      "start": 7.0514,
      "duration": 0.1985,
      "velocity": 106,
      "chip": "ym2612"
    },
    {
      "channel": 2,
      "note": 34,
      "start": 7.0517,
      "duration": 0.0992,
      "velocity": 86,
      "chip": "ym2612"
    },
    {
      "channel": 0,
      "note": 70,
      "start": 7.1507,
      "duration": 0.1985,
      "velocity": 106,
      "chip": "ym2612"
    },
    {
      "channel": 2,
      "note": 41,
      "start": 7.151,
      "duration": 0.0992,
      "velocity": 86,
      "chip": "ym2612"
    },
    {
      "channel": 1,
      "note": 75,
      "start": 7.25,
      "duration": 0.1985,
      "velocity": 106,
      "chip": "ym2612"
    },
    {
      "channel": 2,
      "note": 36,
      "start": 7.2503,
      "duration": 0.0992,
      "velocity": 86,
      "chip": "ym2612"
    },
    {
      "channel": 0,
      "note": 63,
      "start": 7.3493,
      "duration": 0.1985,
      "velocity": 106,
      "chip": "ym2612"
    },
    {
      "channel": 2,
      "note": 39,
      "start": 7.3496,
      "duration": 0.0992,
      "velocity": 86,
      "chip": "ym2612"
    },
    {
      "channel": 1,
      "note": 70,
      "start": 7.4486,
      "duration": 0.1985,
      "velocity": 106,
      "chip": "ym2612"
    },
    {
      "channel": 2,
      "note": 37,
      "start": 7.4489,
      "duration": 0.0992,
      "velocity": 86,
      "chip": "ym2612"
    },
    {
      "channel": 0,
      "note": 73,
      "start": 7.5479,
      "duration": 0.1985,
      "velocity": 106,
      "chip": "ym2612"
    },
    {
      "channel": 2,
      "note": 43,
      "start": 7.5482,
      "duration": 0.0993,
      "velocity": 86,
      "chip": "ym2612"
    },
    {
      "channel": 1,
      "note": 63,
      "start": 7.6473,
      "duration": 0.1985,
      "velocity": 106,
      "chip": "ym2612"
    },
    {
      "channel": 2,
      "note": 34,
      "start": 7.6476,
      "duration": 0.0992,
      "velocity": 86,
      "chip": "ym2612"
    },
    {
      "channel": 0,
      "note": 70,
      "start": 7.7466,
      "duration": 0.1985,
      "velocity": 106,
      "chip": "ym2612"
    },
    {
      "channel": 2,
      "note": 41,
      "start": 7.7469,
      "duration": 0.0992,
      "velocity": 86,
      "chip": "ym2612"
    },
    {
      "channel": 1,
      "note": 73,
      "start": 7.8459,
      "duration": 0.1985,
      "velocity": 106,
      "chip": "ym2612"
    },
    {
      "channel": 2,
      "note": 36,
      "start": 7.8462,
      "duration": 0.0992,
      "velocity": 86,
      "chip": "ym2612"
    },
    {
      "channel": 0,
      "note": 63,
      "start": 7.9452,
      "duration": 0.1985,
      "velocity": 106,
      "chip": "ym2612"
    },
    {
      "channel": 2,
      "note": 39,
      "start": 7.9455,
      "duration": 0.0992,
      "velocity": 86,
      "chip": "ym2612"
    },
    {
      "channel": 1,
      "note": 70,
      "start": 8.0445,
      "duration": 0.1985,
      "velocity": 106,
      "chip": "ym2612"
    },
    {
      "channel": 2,
      "note": 37,
      "start": 8.0449,
      "duration": 0.0992,
      "velocity": 86,
      "chip": "ym2612"
    },
    {
      "channel": 0,
      "note": 75,
      "start": 8.1439,
      "duration": 0.1985,
      "velocity": 106,
      "chip": "ym2612"
    },
    {
      "channel": 2,
      "note": 43,
      "start": 8.1442,
      "duration": 0.0992,
      "velocity": 86,
      "chip": "ym2612"
    },
    {
      "channel": 1,
      "note": 63,
      "start": 8.2432,
      "duration": 0.1985,
      "velocity": 106,
      "chip": "ym2612"
    },
    {
      "channel": 2,
      "note": 34,
      "start": 8.2435,
      "duration": 0.0992,
      "velocity": 86,
      "chip": "ym2612"
    },
    {
      "channel": 0,
      "note": 70,
      "start": 8.3424,
      "duration": 0.1985,
      "velocity": 106,
      "chip": "ym2612"
    },
    {
      "channel": 2,
      "note": 41,
      "start": 8.3428,
      "duration": 0.0992,
      "velocity": 86,
      "chip": "ym2612"
    },
    {
      "channel": 1,
      "note": 75,
      "start": 8.4417,
      "duration": 0.1985,
      "velocity": 106,
      "chip": "ym2612"
    },
    {
      "channel": 2,
      "note": 36,
      "start": 8.4421,
      "duration": 0.0993,
      "velocity": 86,
      "chip": "ym2612"
    },
    {
      "channel": 0,
      "note": 63,
      "start": 8.5411,
      "duration": 0.1985,
      "velocity": 106,
      "chip": "ym2612"
    },
    {
      "channel": 2,
      "note": 39,
      "start": 8.5414,
      "duration": 0.0992,
      "velocity": 86,
      "chip": "ym2612"
    },
    {
      "channel": 1,
      "note": 70,
      "start": 8.6404,
      "duration": 0.1985,
      "velocity": 106,
      "chip": "ym2612"
    },
    {
      "channel": 2,
      "note": 37,
      "start": 8.6407,
      "duration": 0.0992,
      "velocity": 86,
      "chip": "ym2612"
    },
    {
      "channel": 0,
      "note": 73,
      "start": 8.7397,
      "duration": 0.1987,
      "velocity": 106,
      "chip": "ym2612"
    },
    {
      "channel": 2,
      "note": 43,
      "start": 8.74,
      "duration": 0.0992,
      "velocity": 86,
      "chip": "ym2612"
    },
    {
      "channel": 1,
      "note": 63,
      "start": 8.839,
      "duration": 0.1989,
      "velocity": 106,
      "chip": "ym2612"
    },
    {
      "channel": 2,
      "note": 34,
      "start": 8.8394,
      "duration": 0.0994,
      "velocity": 86,
      "chip": "ym2612"
    },
    {
      "channel": 0,
      "note": 70,
      "start": 8.9385,
      "duration": 0.1983,
      "velocity": 106,
      "chip": "ym2612"
    },
    {
      "channel": 2,
      "note": 41,
      "start": 8.9389,
      "duration": 0.0994,
      "velocity": 86,
      "chip": "ym2612"
    },
    {
      "channel": 1,
      "note": 73,
      "start": 9.0381,
      "duration": 0.1981,
      "velocity": 106,
      "chip": "ym2612"
    },
    {
      "channel": 2,
      "note": 36,
      "start": 9.0384,
      "duration": 0.0988,
      "velocity": 86,
      "chip": "ym2612"
    },
    {
      "channel": 0,
      "note": 73,
      "start": 9.137,
      "duration": 0.1985,
      "velocity": 106,
      "chip": "ym2612"
    },
    {
      "channel": 2,
      "note": 39,
      "start": 9.1373,
      "duration": 0.0992,
      "velocity": 86,
      "chip": "ym2612"
    },
    {
      "channel": 1,
      "note": 70,
      "start": 9.2363,
      "duration": 0.1985,
      "velocity": 106,
      "chip": "ym2612"
    },
    {
      "channel": 2,
      "note": 37,
      "start": 9.2366,
      "duration": 0.0992,
      "velocity": 86,
      "chip": "ym2612"
    },
    {
      "channel": 0,
      "note": 70,
      "start": 9.3356,
      "duration": 0.1985,
      "velocity": 106,
      "chip": "ym2612"
    },
    {
      "channel": 2,
      "note": 43,
      "start": 9.336,
      "duration": 0.0992,
      "velocity": 86,
      "chip": "ym2612"
    },
    {
      "channel": 1,
      "note": 73,
      "start": 9.4349,
      "duration": 0.1985,
      "velocity": 106,
      "chip": "ym2612"
    },
    {
      "channel": 2,
      "note": 34,
      "start": 9.4353,
      "duration": 0.1006,
      "velocity": 83,
      "chip": "ym2612"
    },
    {
      "channel": 0,
      "note": 73,
      "start": 9.5342,
      "duration": 0.1985,
      "velocity": 106,
      "chip": "ym2612"
    },
    {
      "channel": 2,
      "note": 56,
      "start": 9.536,
      "duration": 3.1791,
      "velocity": 105,
      "chip": "ym2612"
    },
    {
      "channel": 3,
      "note": 57,
      "start": 9.5381,
      "duration": 3.1787,
      "velocity": 106,
      "chip": "ym2612"
    },
    {
      "channel": 4,
      "note": 43,
      "start": 9.5397,
      "duration": 0.0941,
      "velocity": 86,
      "chip": "ym2612"
    },
    {
      "channel": 1,
      "note": 70,
      "start": 9.6335,
      "duration": 0.1985,
      "velocity": 106,
      "chip": "ym2612"
    },
    {
      "channel": 4,
      "note": 34,
      "start": 9.6339,
      "duration": 0.0991,
      "velocity": 86,
      "chip": "ym2612"
    },
    {
      "channel": 0,
      "note": 70,
      "start": 9.7329,
      "duration": 0.1985,
      "velocity": 106,
      "chip": "ym2612"
    },
    {
      "channel": 4,
      "note": 41,
      "start": 9.7332,
      "duration": 0.0992,
      "velocity": 86,
      "chip": "ym2612"
    },
    {
      "channel": 1,
      "note": 73,
      "start": 9.8322,
      "duration": 0.1985,
      "velocity": 106,
      "chip": "ym2612"
    },
    {
      "channel": 4,
      "note": 36,
      "start": 9.8325,
      "duration": 0.0992,
      "velocity": 86,
      "chip": "ym2612"
    },
    {
      "channel": 0,
      "note": 63,
      "start": 9.9315,
      "duration": 0.1985,
      "velocity": 106,
      "chip": "ym2612"
    },
    {
      "channel": 4,
      "note": 39,
      "start": 9.9318,
      "duration": 0.0992,
      "velocity": 86,
      "chip": "ym2612"
    },
    {
      "channel": 1,
      "note": 70,
      "start": 10.0308,
      "duration": 0.1985,
      "velocity": 106,
      "chip": "ym2612"
    },
    {
      "channel": 4,
      "note": 37,
      "start": 10.0311,
      "duration": 0.0992,
      "velocity": 86,
      "chip": "ym2612"
    },
    {
      "channel": 0,
      "note": 75,
      "start": 10.1301,
      "duration": 0.1985,
      "velocity": 106,
      "chip": "ym2612"
    },
    {
      "channel": 4,
      "note": 43,
      "start": 10.1304,
      "duration": 0.0992,
      "velocity": 86,
      "chip": "ym2612"
    },
    {
      "channel": 1,
      "note": 63,
      "start": 10.2295,
      "duration": 0.1985,
      "velocity": 106,
      "chip": "ym2612"
    },
    {
      "channel": 4,
      "note": 34,
      "start": 10.2298,
      "duration": 0.0992,
      "velocity": 86,
      "chip": "ym2612"
    },
    {
      "channel": 0,
      "note": 70,
      "start": 10.3288,
      "duration": 0.1985,
      "velocity": 106,
      "chip": "ym2612"
    },
    {
      "channel": 4,
      "note": 41,
      "start": 10.3291,
      "duration": 0.0992,
      "velocity": 86,
      "chip": "ym2612"
    },
    {
      "channel": 1,
      "note": 75,
      "start": 10.4281,
      "duration": 0.1985,
      "velocity": 106,
      "chip": "ym2612"
    },
    {
      "channel": 4,
      "note": 36,
      "start": 10.4284,
      "duration": 0.0992,
      "velocity": 86,
      "chip": "ym2612"
    },
    {
      "channel": 0,
      "note": 63,
      "start": 10.5274,
      "duration": 0.1985,
      "velocity": 106,
      "chip": "ym2612"
    },
    {
      "channel": 4,
      "note": 39,
      "start": 10.5277,
      "duration": 0.0993,
      "velocity": 86,
      "chip": "ym2612"
    },
    {
      "channel": 1,
      "note": 70,
      "start": 10.6267,
      "duration": 0.1985,
      "velocity": 106,
      "chip": "ym2612"
    },
    {
      "channel": 4,
      "note": 37,
      "start": 10.6271,
      "duration": 0.0992,
      "velocity": 86,
      "chip": "ym2612"
    },
    {
      "channel": 0,
      "note": 73,
      "start": 10.726,
      "duration": 0.1985,
      "velocity": 106,
      "chip": "ym2612"
    },
    {
      "channel": 4,
      "note": 43,
      "start": 10.7263,
      "duration": 0.0992,
      "velocity": 86,
      "chip": "ym2612"
    },
    {
      "channel": 1,
      "note": 63,
      "start": 10.8253,
      "duration": 0.1985,
      "velocity": 106,
      "chip": "ym2612"
    },
    {
      "channel": 4,
      "note": 34,
      "start": 10.8257,
      "duration": 0.0992,
      "velocity": 86,
      "chip": "ym2612"
    },
    {
      "channel": 0,
      "note": 70,
      "start": 10.9246,
      "duration": 0.1985,
      "velocity": 106,
      "chip": "ym2612"
    },
    {
      "channel": 4,
      "note": 41,
      "start": 10.925,
      "duration": 0.0992,
      "velocity": 86,
      "chip": "ym2612"
    },
    {
      "channel": 1,
      "note": 73,
      "start": 11.0239,
      "duration": 0.1985,
      "velocity": 106,
      "chip": "ym2612"
    },
    {
      "channel": 4,
      "note": 36,
      "start": 11.0243,
      "duration": 0.0992,
      "velocity": 86,
      "chip": "ym2612"
    },
    {
      "channel": 0,
      "note": 63,
      "start": 11.1233,
      "duration": 0.1985,
      "velocity": 106,
      "chip": "ym2612"
    },
    {
      "channel": 4,
      "note": 39,
      "start": 11.1236,
      "duration": 0.0992,
      "velocity": 86,
      "chip": "ym2612"
    },
    {
      "channel": 1,
      "note": 70,
      "start": 11.2226,
      "duration": 0.1989,
      "velocity": 106,
      "chip": "ym2612"
    },
    {
      "channel": 4,
      "note": 37,
      "start": 11.2229,
      "duration": 0.0992,
      "velocity": 86,
      "chip": "ym2612"
    },
    {
      "channel": 0,
      "note": 75,
      "start": 11.3219,
      "duration": 0.1985,
      "velocity": 106,
      "chip": "ym2612"
    },
    {
      "channel": 4,
      "note": 43,
      "start": 11.3222,
      "duration": 0.0996,
      "velocity": 86,
      "chip": "ym2612"
    },
    {
      "channel": 1,
      "note": 63,
      "start": 11.4217,
      "duration": 0.1981,
      "velocity": 106,
      "chip": "ym2612"
    },
    {
      "channel": 4,
      "note": 34,
      "start": 11.422,
      "duration": 0.0992,
      "velocity": 86,
      "chip": "ym2612"
    },
    {
      "channel": 0,
      "note": 70,
      "start": 11.5205,
      "duration": 0.1985,
      "velocity": 106,
      "chip": "ym2612"
    },
    {
      "channel": 4,
      "note": 41,
      "start": 11.5213,
      "duration": 0.0988,
      "velocity": 86,
      "chip": "ym2612"
    },
    {
      "channel": 1,
      "note": 75,
      "start": 11.6199,
      "duration": 0.1985,
      "velocity": 106,
      "chip": "ym2612"
    },
    {
      "channel": 4,
      "note": 36,
      "start": 11.6202,
      "duration": 0.0992,
      "velocity": 86,
      "chip": "ym2612"
    },
    {
      "channel": 0,
      "note": 63,
      "start": 11.7192,
      "duration": 0.1985,
      "velocity": 106,
      "chip": "ym2612"
    },
    {
      "channel": 4,
      "note": 39,
      "start": 11.7195,
      "duration": 0.0992,
      "velocity": 86,
      "chip": "ym2612"
    },
    {
      "channel": 1,
      "note": 70,
      "start": 11.8185,
      "duration": 0.1985,
      "velocity": 106,
      "chip": "ym2612"
    },
    {
      "channel": 4,
      "note": 37,
      "start": 11.8188,
      "duration": 0.0992,
      "velocity": 86,
      "chip": "ym2612"
    },
    {
      "channel": 0,
      "note": 73,
      "start": 11.9178,
      "duration": 0.1985,
      "velocity": 106,
      "chip": "ym2612"
    },
    {
      "channel": 4,
      "note": 43,
      "start": 11.9181,
      "duration": 0.0992,
      "velocity": 86,
      "chip": "ym2612"
    },
    {
      "channel": 1,
      "note": 63,
      "start": 12.0171,
      "duration": 0.1985,
      "velocity": 106,
      "chip": "ym2612"
    },
    {
      "channel": 4,
      "note": 34,
      "start": 12.0175,
      "duration": 0.0992,
      "velocity": 86,
      "chip": "ym2612"
    },
    {
      "channel": 0,
      "note": 70,
      "start": 12.1164,
      "duration": 0.1985,
      "velocity": 106,
      "chip": "ym2612"
    },
    {
      "channel": 4,
      "note": 41,
      "start": 12.1168,
      "duration": 0.0992,
      "velocity": 86,
      "chip": "ym2612"
    },
    {
      "channel": 1,
      "note": 73,
      "start": 12.2157,
      "duration": 0.1985,
      "velocity": 106,
      "chip": "ym2612"
    },
    {
      "channel": 4,
      "note": 36,
      "start": 12.2161,
      "duration": 0.0992,
      "velocity": 86,
      "chip": "ym2612"
    },
    {
      "channel": 0,
      "note": 73,
      "start": 12.315,
      "duration": 0.1985,
      "velocity": 106,
      "chip": "ym2612"
    },
    {
      "channel": 4,
      "note": 39,
      "start": 12.3154,
      "duration": 0.0992,
      "velocity": 86,
      "chip": "ym2612"
    },
    {
      "channel": 1,
      "note": 70,
      "start": 12.4144,
      "duration": 0.1985,
      "velocity": 106,
      "chip": "ym2612"
    },
    {
      "channel": 4,
      "note": 37,
      "start": 12.4147,
      "duration": 0.0992,
      "velocity": 86,
      "chip": "ym2612"
    },
    {
      "channel": 0,
      "note": 70,
      "start": 12.5137,
      "duration": 0.1998,
      "velocity": 105,
      "chip": "ym2612"
    },
    {
      "channel": 4,
      "note": 43,
      "start": 12.514,
      "duration": 0.0992,
      "velocity": 86,
      "chip": "ym2612"
    },
    {
      "channel": 1,
      "note": 73,
      "start": 12.613,
      "duration": 0.1998,
      "velocity": 105,
      "chip": "ym2612"
    },
    {
      "channel": 4,
      "note": 34,
      "start": 12.6133,
      "duration": 0.2012,
      "velocity": 106,
      "chip": "ym2612"
    },
    {
      "channel": 0,
      "note": 63,
      "start": 12.7136,
      "duration": 0.1972,
      "velocity": 105,
      "chip": "ym2612"
    },
    {
      "channel": 2,
      "note": 51,
      "start": 12.7152,
      "duration": 0.5932,
      "velocity": 105,
      "chip": "ym2612"
    },
    {
      "channel": 3,
      "note": 63,
      "start": 12.7169,
      "duration": 0.1943,
      "velocity": 106,
      "chip": "ym2612"
    },
    {
      "channel": 5,
      "note": 43,
      "start": 12.7185,
      "duration": 0.0963,
      "velocity": 86,
      "chip": "ym2612"
    },
    {
      "channel": 1,
      "note": 70,
      "start": 12.8129,
      "duration": 0.1972,
      "velocity": 105,
      "chip": "ym2612"
    },
    {
      "channel": 4,
      "note": 70,
      "start": 12.8146,
      "duration": 0.1959,
      "velocity": 106,
      "chip": "ym2612"
    },
    {
      "channel": 5,
      "note": 34,
      "start": 12.8149,
      "duration": 0.0966,
      "velocity": 86,
      "chip": "ym2612"
    },
    {
      "channel": 0,
      "note": 75,
      "start": 12.911,
      "duration": 0.1985,
      "velocity": 105,
      "chip": "ym2612"
    },
    {
      "channel": 3,
      "note": 75,
      "start": 12.9113,
      "duration": 0.1985,
      "velocity": 106,
      "chip": "ym2612"
    },
    {
      "channel": 5,
      "note": 41,
      "start": 12.9116,
      "duration": 0.0992,
      "velocity": 86,
      "chip": "ym2612"
    },
    {
      "channel": 1,
      "note": 63,
      "start": 13.0103,
      "duration": 0.1985,
      "velocity": 105,
      "chip": "ym2612"
    },
    {
      "channel": 4,
      "note": 63,
      "start": 13.0106,
      "duration": 0.1985,
      "velocity": 106,
      "chip": "ym2612"
    },
    {
      "channel": 5,
      "note": 36,
      "start": 13.0109,
      "duration": 0.0992,
      "velocity": 86,
      "chip": "ym2612"
    },
    {
      "channel": 0,
      "note": 70,
      "start": 13.1096,
      "duration": 0.1985,
      "velocity": 105,
      "chip": "ym2612"
    },
    {
      "channel": 3,
      "note": 70,
      "start": 13.1099,
      "duration": 0.1988,
      "velocity": 106,
      "chip": "ym2612"
    },
    {
      "channel": 5,
      "note": 39,
      "start": 13.1102,
      "duration": 0.0992,
      "velocity": 86,
      "chip": "ym2612"
    },
    {
      "channel": 1,
      "note": 75,
      "start": 13.2089,
      "duration": 0.1985,
      "velocity": 105,
      "chip": "ym2612"
    },
    {
      "channel": 4,
      "note": 75,
      "start": 13.2093,
      "duration": 0.1985,
      "velocity": 106,
      "chip": "ym2612"
    },
    {
      "channel": 5,
      "note": 37,
      "start": 13.2096,
      "duration": 0.0995,
      "velocity": 86,
      "chip": "ym2612"
    },
    {
      "channel": 0,
      "note": 63,
      "start": 13.3082,
      "duration": 0.1985,
      "velocity": 105,
      "chip": "ym2612"
    },
    {
      "channel": 2,
      "note": 51,
      "start": 13.3085,
      "duration": 0.5961,
      "velocity": 105,
      "chip": "ym2612"
    },
    {
      "channel": 3,
      "note": 63,
      "start": 13.3089,
      "duration": 0.1982,
      "velocity": 106,
      "chip": "ym2612"
    },
    {
      "channel": 5,
      "note": 43,
      "start": 13.3092,
      "duration": 0.0988,
      "velocity": 86,
      "chip": "ym2612"
    },
    {
      "channel": 1,
      "note": 70,
      "start": 13.4075,
      "duration": 0.1985,
      "velocity": 105,
      "chip": "ym2612"
    },
    {
      "channel": 4,
      "note": 70,
      "start": 13.4078,
      "duration": 0.1985,
      "velocity": 106,
      "chip": "ym2612"
    },
    {
      "channel": 5,
      "note": 34,
      "start": 13.4082,
      "duration": 0.0992,
      "velocity": 86,
      "chip": "ym2612"
    },
    {
      "channel": 0,
      "note": 73,
      "start": 13.5068,
      "duration": 0.1985,
      "velocity": 105,
      "chip": "ym2612"
    },
    {
      "channel": 3,
      "note": 73,
      "start": 13.5071,
      "duration": 0.1985,
      "velocity": 106,
      "chip": "ym2612"
    },
    {
      "channel": 5,
      "note": 41,
      "start": 13.5075,
      "duration": 0.0993,
      "velocity": 86,
      "chip": "ym2612"
    },
    {
      "channel": 1,
      "note": 63,
      "start": 13.6062,
      "duration": 0.1989,
      "velocity": 105,
      "chip": "ym2612"
    },
    {
      "channel": 4,
      "note": 63,
      "start": 13.6065,
      "duration": 0.1989,
      "velocity": 106,
      "chip": "ym2612"
    },
    {
      "channel": 5,
      "note": 36,
      "start": 13.6068,
      "duration": 0.0992,
      "velocity": 86,
      "chip": "ym2612"
    },
    {
      "channel": 0,
      "note": 70,
      "start": 13.7055,
      "duration": 0.1985,
      "velocity": 105,
      "chip": "ym2612"
    },
    {
      "channel": 3,
      "note": 70,
      "start": 13.7058,
      "duration": 0.1993,
      "velocity": 106,
      "chip": "ym2612"
    },
    {
      "channel": 5,
      "note": 39,
      "start": 13.7061,
      "duration": 0.0996,
      "velocity": 86,
      "chip": "ym2612"
    },
    {
      "channel": 1,
      "note": 73,
      "start": 13.8052,
      "duration": 0.1981,
      "velocity": 105,
      "chip": "ym2612"
    },
    {
      "channel": 4,
      "note": 73,
      "start": 13.8055,
      "duration": 0.1981,
      "velocity": 106,
      "chip": "ym2612"
    },
    {
      "channel": 5,
      "note": 37,
      "start": 13.8059,
      "duration": 0.0995,
      "velocity": 86,
      "chip": "ym2612"
    },
    {
      "channel": 0,
      "note": 63,
      "start": 13.9045,
      "duration": 0.1982,
      "velocity": 105,
      "chip": "ym2612"
    },
    {
      "channel": 2,
      "note": 51,
      "start": 13.9048,
      "duration": 0.5954,
      "velocity": 105,
      "chip": "ym2612"
    },
    {
      "channel": 3,
      "note": 63,
      "start": 13.9052,
      "duration": 0.1978,
      "velocity": 106,
      "chip": "ym2612"
    },
    {
      "channel": 5,
      "note": 43,
      "start": 13.9055,
      "duration": 0.0985,
      "velocity": 86,
      "chip": "ym2612"
    },
    {
      "channel": 1,
      "note": 70,
      "start": 14.0034,
      "duration": 0.1985,
      "velocity": 105,
      "chip": "ym2612"
    },
    {
      "channel": 4,
      "note": 70,
      "start": 14.0037,
      "duration": 0.1985,
      "velocity": 106,
      "chip": "ym2612"
    },
    {
      "channel": 5,
      "note": 34,
      "start": 14.0045,
      "duration": 0.0988,
      "velocity": 86,
      "chip": "ym2612"
    },
    {
      "channel": 0,
      "note": 75,
      "start": 14.1028,
      "duration": 0.1985,
      "velocity": 105,
      "chip": "ym2612"
    },
    {
      "channel": 3,
      "note": 75,
      "start": 14.1031,
      "duration": 0.1985,
      "velocity": 106,
      "chip": "ym2612"
    },
    {
      "channel": 5,
      "note": 41,
      "start": 14.1034,
      "duration": 0.0992,
      "velocity": 86,
      "chip": "ym2612"
    },
    {
      "channel": 1,
      "note": 63,
      "start": 14.2021,
      "duration": 0.1985,
      "velocity": 105,
      "chip": "ym2612"
    },
    {
      "channel": 4,
      "note": 63,
      "start": 14.2024,
      "duration": 0.1985,
      "velocity": 106,
      "chip": "ym2612"
    },
    {
      "channel": 5,
      "note": 36,
      "start": 14.2027,
      "duration": 0.0992,
      "velocity": 86,
      "chip": "ym2612"
    },
    {
      "channel": 0,
      "note": 70,
      "start": 14.3014,
      "duration": 0.1985,
      "velocity": 105,
      "chip": "ym2612"
    },
    {
      "channel": 3,
      "note": 70,
      "start": 14.3017,
      "duration": 0.1988,
      "velocity": 106,
      "chip": "ym2612"
    },
    {
      "channel": 5,
      "note": 39,
      "start": 14.302,
      "duration": 0.0992,
      "velocity": 86,
      "chip": "ym2612"
    },
    {
      "channel": 1,
      "note": 75,
      "start": 14.4007,
      "duration": 0.1985,
      "velocity": 105,
      "chip": "ym2612"
    },
    {
      "channel": 4,
      "note": 75,
      "start": 14.401,
      "duration": 0.1985,
      "velocity": 106,
      "chip": "ym2612"
    },
    {
      "channel": 5,
      "note": 37,
      "start": 14.4014,
      "duration": 0.0995,
      "velocity": 86,
      "chip": "ym2612"
    },
    {
      "channel": 0,
      "note": 63,
      "start": 14.5,
      "duration": 0.1985,
      "velocity": 105,
      "chip": "ym2612"
    },
    {
      "channel": 2,
      "note": 51,
      "start": 14.5003,
      "duration": 1.3903,
      "velocity": 105,
      "chip": "ym2612"
    },
    {
      "channel": 3,
      "note": 63,
      "start": 14.5007,
      "duration": 0.1982,
      "velocity": 106,
      "chip": "ym2612"
    },
    {
      "channel": 5,
      "note": 43,
      "start": 14.501,
      "duration": 0.0989,
      "velocity": 86,
      "chip": "ym2612"
    },
    {
      "channel": 1,
      "note": 70,
      "start": 14.5993,
      "duration": 0.1985,
      "velocity": 105,
      "chip": "ym2612"
    },
    {
      "channel": 4,
      "note": 70,
      "start": 14.5996,
      "duration": 0.1985,
      "velocity": 106,
      "chip": "ym2612"
    },
    {
      "channel": 5,
      "note": 34,
      "start": 14.6,
      "duration": 0.0992,
      "velocity": 86,
      "chip": "ym2612"
    },
    {
      "channel": 0,
      "note": 73,
      "start": 14.6986,
      "duration": 0.1985,
      "velocity": 105,
      "chip": "ym2612"
    },
    {
      "channel": 3,
      "note": 73,
      "start": 14.6989,
      "duration": 0.1985,
      "velocity": 106,
      "chip": "ym2612"
    },
    {
      "channel": 5,
      "note": 41,
      "start": 14.6993,
      "duration": 0.0992,
      "velocity": 86,
      "chip": "ym2612"
    },
    {
      "channel": 1,
      "note": 63,
      "start": 14.7979,
      "duration": 0.1985,
      "velocity": 105,
      "chip": "ym2612"
    },
    {
      "channel": 4,
      "note": 63,
      "start": 14.7982,
      "duration": 0.1985,
      "velocity": 106,
      "chip": "ym2612"
    },
    {
      "channel": 5,
      "note": 36,
      "start": 14.7985,
      "duration": 0.0993,
      "velocity": 86,
      "chip": "ym2612"
    },
    {
      "channel": 0,
      "note": 70,
      "start": 14.8973,
      "duration": 0.1985,
      "velocity": 105,
      "chip": "ym2612"
    },
    {
      "channel": 3,
      "note": 70,
      "start": 14.8976,
      "duration": 0.1985,
      "velocity": 106,
      "chip": "ym2612"
    },
    {
      "channel": 5,
      "note": 39,
      "start": 14.8979,
      "duration": 0.0992,
      "velocity": 86,
      "chip": "ym2612"
    },
    {
      "channel": 1,
      "note": 73,
      "start": 14.9966,
      "duration": 0.1985,
      "velocity": 105,
      "chip": "ym2612"
    },
    {
      "channel": 4,
      "note": 73,
      "start": 14.9969,
      "duration": 0.1985,
      "velocity": 106,
      "chip": "ym2612"
    },
    {
      "channel": 5,
      "note": 37,
      "start": 14.9972,
      "duration": 0.0992,
      "velocity": 86,
      "chip": "ym2612"
    },
    {
      "channel": 0,
      "note": 73,
      "start": 15.0959,
      "duration": 0.1985,
      "velocity": 105,
      "chip": "ym2612"
    },
    {
      "channel": 3,
      "note": 73,
      "start": 15.0962,
      "duration": 0.1985,
      "velocity": 106,
      "chip": "ym2612"
    },
    {
      "channel": 5,
      "note": 43,
      "start": 15.0965,
      "duration": 0.0992,
      "velocity": 86,
      "chip": "ym2612"
    },
    {
      "channel": 1,
      "note": 70,
      "start": 15.1952,
      "duration": 0.1985,
      "velocity": 105,
      "chip": "ym2612"
    },
    {
      "channel": 4,
      "note": 70,
      "start": 15.1955,
      "duration": 0.1985,
      "velocity": 106,
      "chip": "ym2612"
    },
    {
      "channel": 5,
      "note": 34,
      "start": 15.1958,
      "duration": 0.0992,
      "velocity": 86,
      "chip": "ym2612"
    },
    {
      "channel": 0,
      "note": 70,
      "start": 15.2945,
      "duration": 0.1985,
      "velocity": 105,
      "chip": "ym2612"
    },
    {
      "channel": 3,
      "note": 70,
      "start": 15.2948,
      "duration": 0.1985,
      "velocity": 106,
      "chip": "ym2612"
    },
    {
      "channel": 5,
      "note": 41,
      "start": 15.2952,
      "duration": 0.0992,
      "velocity": 86,
      "chip": "ym2612"
    },
    {
      "channel": 1,
      "note": 73,
      "start": 15.3939,
      "duration": 0.1985,
      "velocity": 105,
      "chip": "ym2612"
    },
    {
      "channel": 4,
      "note": 73,
      "start": 15.3942,
      "duration": 0.1985,
      "velocity": 106,
      "chip": "ym2612"
    },
    {
      "channel": 5,
      "note": 36,
      "start": 15.3945,
      "duration": 0.0992,
      "velocity": 86,
      "chip": "ym2612"
    },
    {
      "channel": 0,
      "note": 73,
      "start": 15.4932,
      "duration": 0.1985,
      "velocity": 105,
      "chip": "ym2612"
    },
    {
      "channel": 3,
      "note": 73,
      "start": 15.4935,
      "duration": 0.1985,
      "velocity": 106,
      "chip": "ym2612"
    },
    {
      "channel": 5,
      "note": 39,
      "start": 15.4938,
      "duration": 0.0992,
      "velocity": 86,
      "chip": "ym2612"
    },
    {
      "channel": 1,
      "note": 70,
      "start": 15.5924,
      "duration": 0.1985,
      "velocity": 105,
      "chip": "ym2612"
    },
    {
      "channel": 4,
      "note": 70,
      "start": 15.5928,
      "duration": 0.1985,
      "velocity": 106,
      "chip": "ym2612"
    },
    {
      "channel": 5,
      "note": 37,
      "start": 15.5931,
      "duration": 0.0993,
      "velocity": 86,
      "chip": "ym2612"
    },
    {
      "channel": 0,
      "note": 70,
      "start": 15.6917,
      "duration": 0.1985,
      "velocity": 105,
      "chip": "ym2612"
    },
    {
      "channel": 3,
      "note": 70,
      "start": 15.6921,
      "duration": 0.1989,
      "velocity": 106,
      "chip": "ym2612"
    },
    {
      "channel": 5,
      "note": 43,
      "start": 15.6924,
      "duration": 0.0992,
      "velocity": 86,
      "chip": "ym2612"
    },
    {
      "channel": 1,
      "note": 73,
      "start": 15.7911,
      "duration": 0.1985,
      "velocity": 105,
      "chip": "ym2612"
    },
    {
      "channel": 4,
      "note": 73,
      "start": 15.7914,
      "duration": 0.1985,
      "velocity": 106,
      "chip": "ym2612"
    },
    {
      "channel": 5,
      "note": 34,
      "start": 15.7917,
      "duration": 0.0996,
      "velocity": 86,
      "chip": "ym2612"
    },
    {
      "channel": 0,
      "note": 63,
      "start": 15.8904,
      "duration": 0.1985,
      "velocity": 105,
      "chip": "ym2612"
    },
    {
      "channel": 2,
      "note": 51,
      "start": 15.8907,
      "duration": 0.5957,
      "velocity": 105,
      "chip": "ym2612"
    },
    {
      "channel": 3,
      "note": 63,
      "start": 15.8911,
      "duration": 0.1981,
      "velocity": 106,
      "chip": "ym2612"
    },
    {
      "channel": 5,
      "note": 43,
      "start": 15.8914,
      "duration": 0.0989,
      "velocity": 86,
      "chip": "ym2612"
    },
    {
      "channel": 1,
      "note": 70,
      "start": 15.9897,
      "duration": 0.1987,
      "velocity": 105,
      "chip": "ym2612"
    },
    {
      "channel": 4,
      "note": 70,
      "start": 15.99,
      "duration": 0.1987,
      "velocity": 106,
      "chip": "ym2612"
    },
    {
      "channel": 5,
      "note": 34,
      "start": 15.9904,
      "duration": 0.0991,
      "velocity": 86,
      "chip": "ym2612"
    },
    {
      "channel": 0,
      "note": 75,
      "start": 16.089,
      "duration": 0.1989,
      "velocity": 105,
      "chip": "ym2612"
    },
    {
      "channel": 3,
      "note": 75,
      "start": 16.0893,
      "duration": 0.1989,
      "velocity": 106,
      "chip": "ym2612"
    },
    {
      "channel": 5,
      "note": 41,
      "start": 16.0897,
      "duration": 0.0994,
      "velocity": 86,
      "chip": "ym2612"
    },
    {
      "channel": 1,
      "note": 63,
      "start": 16.1885,
      "duration": 0.1983,
      "velocity": 105,
      "chip": "ym2612"
    },
    {
      "channel": 4,
      "note": 63,
      "start": 16.1889,
      "duration": 0.1983,
      "velocity": 106,
      "chip": "ym2612"
    },
    {
      "channel": 5,
      "note": 36,
      "start": 16.1892,
      "duration": 0.0994,
      "velocity": 86,
      "chip": "ym2612"
    },
    {
      "channel": 0,
      "note": 70,
      "start": 16.2881,
      "duration": 0.1981,
      "velocity": 105,
      "chip": "ym2612"
    },
    {
      "channel": 3,
      "note": 70,
      "start": 16.2884,
      "duration": 0.1984,
      "velocity": 106,
      "chip": "ym2612"
    },
    {
      "channel": 5,
      "note": 39,
      "start": 16.2887,
      "duration": 0.0992,
      "velocity": 86,
      "chip": "ym2612"
    },
    {
      "channel": 1,
      "note": 75,
      "start": 16.387,
      "duration": 0.1985,
      "velocity": 105,
      "chip": "ym2612"
    },
    {
      "channel": 4,
      "note": 75,
      "start": 16.3873,
      "duration": 0.1985,
      "velocity": 106,
      "chip": "ym2612"
    },
    {
      "channel": 5,
      "note": 37,
      "start": 16.3881,
      "duration": 0.0991,
      "velocity": 86,
      "chip": "ym2612"
    },
    {
      "channel": 0,
      "note": 63,
      "start": 16.4863,
      "duration": 0.1985,
      "velocity": 105,
      "chip": "ym2612"
    },
    {
      "channel": 2,
      "note": 51,
      "start": 16.4866,
      "duration": 0.5958,
      "velocity": 105,
      "chip": "ym2612"
    },
    {
      "channel": 3,
      "note": 63,
      "start": 16.4869,
      "duration": 0.1982,
      "velocity": 106,
      "chip": "ym2612"
    },
    {
      "channel": 5,
      "note": 43,
      "start": 16.4873,
      "duration": 0.0988,
      "velocity": 86,
      "chip": "ym2612"
    },
    {
      "channel": 1,
      "note": 70,
      "start": 16.5856,
      "duration": 0.1985,
      "velocity": 105,
      "chip": "ym2612"
    },
    {
      "channel": 4,
      "note": 70,
      "start": 16.586,
      "duration": 0.1985,
      "velocity": 106,
      "chip": "ym2612"
    },
    {
      "channel": 5,
      "note": 34,
      "start": 16.5863,
      "duration": 0.0992,
      "velocity": 86,
      "chip": "ym2612"
    },
    {
      "channel": 0,
      "note": 73,
      "start": 16.6849,
      "duration": 0.1985,
      "velocity": 105,
      "chip": "ym2612"
    },
    {
      "channel": 3,
      "note": 73,
      "start": 16.6853,
      "duration": 0.1985,
      "velocity": 106,
      "chip": "ym2612"
    },
    {
      "channel": 5,
      "note": 41,
      "start": 16.6856,
      "duration": 0.0992,
      "velocity": 86,
      "chip": "ym2612"
    },
    {
      "channel": 1,
      "note": 63,
      "start": 16.7842,
      "duration": 0.1985,
      "velocity": 105,
      "chip": "ym2612"
    },
    {
      "channel": 4,
      "note": 63,
      "start": 16.7846,
      "duration": 0.1985,
      "velocity": 106,
      "chip": "ym2612"
    },
    {
      "channel": 5,
      "note": 36,
      "start": 16.7849,
      "duration": 0.0992,
      "velocity": 86,
      "chip": "ym2612"
    },
    {
      "channel": 0,
      "note": 70,
      "start": 16.8835,
      "duration": 0.1985,
      "velocity": 105,
      "chip": "ym2612"
    },
    {
      "channel": 3,
      "note": 70,
      "start": 16.8839,
      "duration": 0.1989,
      "velocity": 106,
      "chip": "ym2612"
    },
    {
      "channel": 5,
      "note": 39,
      "start": 16.8842,
      "duration": 0.0993,
      "velocity": 86,
      "chip": "ym2612"
    },
    {
      "channel": 1,
      "note": 73,
      "start": 16.9829,
      "duration": 0.1985,
      "velocity": 105,
      "chip": "ym2612"
    },
    {
      "channel": 4,
      "note": 73,
      "start": 16.9832,
      "duration": 0.1985,
      "velocity": 106,
      "chip": "ym2612"
    },
    {
      "channel": 5,
      "note": 37,
      "start": 16.9835,
      "duration": 0.0995,
      "velocity": 86,
      "chip": "ym2612"
    },
    {
      "channel": 0,
      "note": 63,
      "start": 17.0822,
      "duration": 0.1985,
      "velocity": 105,
      "chip": "ym2612"
    },
    {
      "channel": 2,
      "note": 51,
      "start": 17.0825,
      "duration": 0.5958,
      "velocity": 105,
      "chip": "ym2612"
    },
    {
      "channel": 3,
      "note": 63,
      "start": 17.0829,
      "duration": 0.1981,
      "velocity": 106,
      "chip": "ym2612"
    },
    {
      "channel": 5,
      "note": 43,
      "start": 17.0832,
      "duration": 0.0988,
      "velocity": 86,
      "chip": "ym2612"
    },
    {
      "channel": 1,
      "note": 70,
      "start": 17.1815,
      "duration": 0.1985,
      "velocity": 105,
      "chip": "ym2612"
    },
    {
      "channel": 4,
      "note": 70,
      "start": 17.1818,
      "duration": 0.1985,
      "velocity": 106,
      "chip": "ym2612"
    },
    {
      "channel": 5,
      "note": 34,
      "start": 17.1822,
      "duration": 0.0992,
      "velocity": 86,
      "chip": "ym2612"
    },
    {
      "channel": 0,
      "note": 75,
      "start": 17.2808,
      "duration": 0.1985,
      "velocity": 105,
      "chip": "ym2612"
    },
    {
      "channel": 3,
      "note": 75,
      "start": 17.2811,
      "duration": 0.1985,
      "velocity": 106,
      "chip": "ym2612"
    },
    {
      "channel": 5,
      "note": 41,
      "start": 17.2815,
      "duration": 0.0992,
      "velocity": 86,
      "chip": "ym2612"
    },
    {
      "channel": 1,
      "note": 63,
      "start": 17.3801,
      "duration": 0.1985,
      "velocity": 105,
      "chip": "ym2612"
    },
    {
      "channel": 4,
      "note": 63,
      "start": 17.3804,
      "duration": 0.1985,
      "velocity": 106,
      "chip": "ym2612"
    },
    {
      "channel": 5,
      "note": 36,
      "start": 17.3807,
      "duration": 0.0992,
      "velocity": 86,
      "chip": "ym2612"
    },
    {
      "channel": 0,
      "note": 70,
      "start": 17.4795,
      "duration": 0.1985,
      "velocity": 105,
      "chip": "ym2612"
    },
    {
      "channel": 3,
      "note": 70,
      "start": 17.4798,
      "duration": 0.1988,
      "velocity": 106,
      "chip": "ym2612"
    },
    {
      "channel": 5,
      "note": 39,
      "start": 17.4801,
      "duration": 0.0992,
      "velocity": 86,
      "chip": "ym2612"
    },
    {
      "channel": 1,
      "note": 75,
      "start": 17.5788,
      "duration": 0.1985,
      "velocity": 105,
      "chip": "ym2612"
    },
    {
      "channel": 4,
      "note": 75,
      "start": 17.5791,
      "duration": 0.1985,
      "velocity": 106,
      "chip": "ym2612"
    },
    {
      "channel": 5,
      "note": 37,
      "start": 17.5794,
      "duration": 0.0995,
      "velocity": 86,
      "chip": "ym2612"
    },
    {
      "channel": 0,
      "note": 63,
      "start": 17.6781,
      "duration": 0.1985,
      "velocity": 105,
      "chip": "ym2612"
    },
    {
      "channel": 2,
      "note": 51,
      "start": 17.6784,
      "duration": 1.3903,
      "velocity": 105,
      "chip": "ym2612"
    },
    {
      "channel": 3,
      "note": 63,
      "start": 17.6787,
      "duration": 0.1982,
      "velocity": 106,
      "chip": "ym2612"
    },
    {
      "channel": 5,
      "note": 43,
      "start": 17.679,
      "duration": 0.0989,
      "velocity": 86,
      "chip": "ym2612"
    },
    {
      "channel": 1,
      "note": 70,
      "start": 17.7774,
      "duration": 0.1985,
      "velocity": 105,
      "chip": "ym2612"
    },
    {
      "channel": 4,
      "note": 70,
      "start": 17.7777,
      "duration": 0.1985,
      "velocity": 106,
      "chip": "ym2612"
    },
    {
      "channel": 5,
      "note": 34,
      "start": 17.778,
      "duration": 0.0993,
      "velocity": 86,
      "chip": "ym2612"
    },
    {
      "channel": 0,
      "note": 73,
      "start": 17.8767,
      "duration": 0.1985,
      "velocity": 105,
      "chip": "ym2612"
    },
    {
      "channel": 3,
      "note": 73,
      "start": 17.877,
      "duration": 0.1985,
      "velocity": 106,
      "chip": "ym2612"
    },
    {
      "channel": 5,
      "note": 41,
      "start": 17.8774,
      "duration": 0.0992,
      "velocity": 86,
      "chip": "ym2612"
    },
    {
      "channel": 1,
      "note": 63,
      "start": 17.976,
      "duration": 0.1985,
      "velocity": 105,
      "chip": "ym2612"
    },
    {
      "channel": 4,
      "note": 63,
      "start": 17.9763,
      "duration": 0.1985,
      "velocity": 106,
      "chip": "ym2612"
    },
    {
      "channel": 5,
      "note": 36,
      "start": 17.9767,
      "duration": 0.0992,
      "velocity": 86,
      "chip": "ym2612"
    },
    {
      "channel": 0,
      "note": 70,
      "start": 18.0753,
      "duration": 0.1985,
      "velocity": 105,
      "chip": "ym2612"
    },
    {
      "channel": 3,
      "note": 70,
      "start": 18.0757,
      "duration": 0.1985,
      "velocity": 106,
      "chip": "ym2612"
    },
    {
      "channel": 5,
      "note": 39,
      "start": 18.076,
      "duration": 0.0992,
      "velocity": 86,
      "chip": "ym2612"
    },
    {
      "channel": 1,
      "note": 73,
      "start": 18.1746,
      "duration": 0.1985,
      "velocity": 105,
      "chip": "ym2612"
    },
    {
      "channel": 4,
      "note": 73,
      "start": 18.175,
      "duration": 0.1985,
      "velocity": 106,
      "chip": "ym2612"
    },
    {
      "channel": 5,
      "note": 37,
      "start": 18.1753,
      "duration": 0.0992,
      "velocity": 86,
      "chip": "ym2612"
    },
    {
      "channel": 0,
      "note": 73,
      "start": 18.2739,
      "duration": 0.1985,
      "velocity": 105,
      "chip": "ym2612"
    },
    {
      "channel": 3,
      "note": 73,
      "start": 18.2743,
      "duration": 0.1985,
      "velocity": 106,
      "chip": "ym2612"
    },
    {
      "channel": 5,
      "note": 43,
      "start": 18.2746,
      "duration": 0.0992,
      "velocity": 86,
      "chip": "ym2612"
    },
    {
      "channel": 1,
      "note": 70,
      "start": 18.3732,
      "duration": 0.1985,
      "velocity": 105,
      "chip": "ym2612"
    },
    {
      "channel": 4,
      "note": 70,
      "start": 18.3736,
      "duration": 0.1985,
      "velocity": 106,
      "chip": "ym2612"
    },
    {
      "channel": 5,
      "note": 34,
      "start": 18.3739,
      "duration": 0.0992,
      "velocity": 86,
      "chip": "ym2612"
    },
    {
      "channel": 0,
      "note": 70,
      "start": 18.4726,
      "duration": 0.1988,
      "velocity": 105,
      "chip": "ym2612"
    },
    {
      "channel": 3,
      "note": 70,
      "start": 18.4729,
      "duration": 0.1989,
      "velocity": 106,
      "chip": "ym2612"
    },
    {
      "channel": 5,
      "note": 41,
      "start": 18.4732,
      "duration": 0.0992,
      "velocity": 86,
      "chip": "ym2612"
    },
    {
      "channel": 1,
      "note": 73,
      "start": 18.5719,
      "duration": 0.1985,
      "velocity": 105,
      "chip": "ym2612"
    },
    {
      "channel": 4,
      "note": 73,
      "start": 18.5722,
      "duration": 0.1989,
      "velocity": 106,
      "chip": "ym2612"
    },
    {
      "channel": 5,
      "note": 36,
      "start": 18.5725,
      "duration": 0.0996,
      "velocity": 86,
      "chip": "ym2612"
    },
    {
      "channel": 0,
      "note": 73,
      "start": 18.6717,
      "duration": 0.1981,
      "velocity": 105,
      "chip": "ym2612"
    },
    {
      "channel": 3,
      "note": 73,
      "start": 18.672,
      "duration": 0.1981,
      "velocity": 106,
      "chip": "ym2612"
    },
    {
      "channel": 5,
      "note": 39,
      "start": 18.6723,
      "duration": 0.0992,
      "velocity": 86,
      "chip": "ym2612"
    },
    {
      "channel": 1,
      "note": 70,
      "start": 18.7705,
      "duration": 0.1985,
      "velocity": 105,
      "chip": "ym2612"
    },
    {
      "channel": 4,
      "note": 70,
      "start": 18.7713,
      "duration": 0.1981,
      "velocity": 106,
      "chip": "ym2612"
    },
    {
      "channel": 5,
      "note": 37,
      "start": 18.7716,
      "duration": 0.0988,
      "velocity": 86,
      "chip": "ym2612"
    },
    {
      "channel": 0,
      "note": 70,
      "start": 18.8699,
      "duration": 0.1985,
      "velocity": 105,
      "chip": "ym2612"
    },
    {
      "channel": 3,
      "note": 70,
      "start": 18.8702,
      "duration": 0.1989,
      "velocity": 106,
      "chip": "ym2612"
    },
    {
      "channel": 5,
      "note": 43,
      "start": 18.8705,
      "duration": 0.0992,
      "velocity": 86,
      "chip": "ym2612"
    },
    {
      "channel": 1,
      "note": 73,
      "start": 18.9692,
      "duration": 0.1985,
      "velocity": 105,
      "chip": "ym2612"
    },
    {
      "channel": 4,
      "note": 73,
      "start": 18.9695,
      "duration": 0.1985,
      "velocity": 106,
      "chip": "ym2612"
    },
    {
      "channel": 5,
      "note": 34,
      "start": 18.9698,
      "duration": 0.0996,
      "velocity": 86,
      "chip": "ym2612"
    },
    {
      "channel": 0,
      "note": 63,
      "start": 19.0685,
      "duration": 0.1984,
      "velocity": 105,
      "chip": "ym2612"
    },
    {
      "channel": 2,
      "note": 51,
      "start": 19.0688,
      "duration": 0.5957,
      "velocity": 105,
      "chip": "ym2612"
    },
    {
      "channel": 3,
      "note": 63,
      "start": 19.0692,
      "duration": 0.1982,
      "velocity": 106,
      "chip": "ym2612"
    },
    {
      "channel": 5,
      "note": 43,
      "start": 19.0695,
      "duration": 0.0988,
      "velocity": 86,
      "chip": "ym2612"
    },
    {
      "channel": 1,
      "note": 70,
      "start": 19.1678,
      "duration": 0.1985,
      "velocity": 105,
      "chip": "ym2612"
    },
    {
      "channel": 4,
      "note": 70,
      "start": 19.1681,
      "duration": 0.1985,
      "velocity": 106,
      "chip": "ym2612"
    },
    {
      "channel": 5,
      "note": 34,
      "start": 19.1685,
      "duration": 0.0992,
      "velocity": 86,
      "chip": "ym2612"
    },
    {
      "channel": 0,
      "note": 75,
      "start": 19.2671,
      "duration": 0.1985,
      "velocity": 105,
      "chip": "ym2612"
    },
    {
      "channel": 3,
      "note": 75,
      "start": 19.2675,
      "duration": 0.1985,
      "velocity": 106,
      "chip": "ym2612"
    },
    {
      "channel": 5,
      "note": 41,
      "start": 19.2678,
      "duration": 0.0992,
      "velocity": 86,
      "chip": "ym2612"
    },
    {
      "channel": 1,
      "note": 63,
      "start": 19.3664,
      "duration": 0.1985,
      "velocity": 105,
      "chip": "ym2612"
    },
    {
      "channel": 4,
      "note": 63,
      "start": 19.3668,
      "duration": 0.1985,
      "velocity": 106,
      "chip": "ym2612"
    },
    {
      "channel": 5,
      "note": 36,
      "start": 19.3671,
      "duration": 0.0992,
      "velocity": 86,
      "chip": "ym2612"
    },
    {
      "channel": 0,
      "note": 70,
      "start": 19.4657,
      "duration": 0.1985,
      "velocity": 105,
      "chip": "ym2612"
    },
    {
      "channel": 3,
      "note": 70,
      "start": 19.4661,
      "duration": 0.1988,
      "velocity": 106,
      "chip": "ym2612"
    },
    {
      "channel": 5,
      "note": 39,
      "start": 19.4664,
      "duration": 0.0992,
      "velocity": 86,
      "chip": "ym2612"
    },
    {
      "channel": 1,
      "note": 75,
      "start": 19.565,
      "duration": 0.1985,
      "velocity": 105,
      "chip": "ym2612"
    },
    {
      "channel": 4,
      "note": 75,
      "start": 19.5654,
      "duration": 0.1985,
      "velocity": 106,
      "chip": "ym2612"
    },
    {
      "channel": 5,
      "note": 37,
      "start": 19.5657,
      "duration": 0.0995,
      "velocity": 86,
      "chip": "ym2612"
    },
    {
      "channel": 0,
      "note": 63,
      "start": 19.6644,
      "duration": 0.1985,
      "velocity": 105,
      "chip": "ym2612"
    },
    {
      "channel": 2,
      "note": 51,
      "start": 19.6647,
      "duration": 0.5957,
      "velocity": 105,
      "chip": "ym2612"
    },
    {
      "channel": 3,
      "note": 63,
      "start": 19.665,
      "duration": 0.1982,
      "velocity": 106,
      "chip": "ym2612"
    },
    {
      "channel": 5,
      "note": 43,
      "start": 19.6654,
      "duration": 0.0989,
      "velocity": 86,
      "chip": "ym2612"
    },
    {
      "channel": 1,
      "note": 70,
      "start": 19.7637,
      "duration": 0.1985,
      "velocity": 105,
      "chip": "ym2612"
    },
    {
      "channel": 4,
      "note": 70,
      "start": 19.764,
      "duration": 0.1985,
      "velocity": 106,
      "chip": "ym2612"
    },
    {
      "channel": 5,
      "note": 34,
      "start": 19.7643,
      "duration": 0.0992,
      "velocity": 86,
      "chip": "ym2612"
    },
    {
      "channel": 0,
      "note": 73,
      "start": 19.863,
      "duration": 0.1985,
      "velocity": 105,
      "chip": "ym2612"
    },
    {
      "channel": 3,
      "note": 73,
      "start": 19.8633,
      "duration": 0.1985,
      "velocity": 106,
      "chip": "ym2612"
    },
    {
      "channel": 5,
      "note": 41,
      "start": 19.8636,
      "duration": 0.0992,
      "velocity": 86,
      "chip": "ym2612"
    },
    {
      "channel": 1,
      "note": 63,
      "start": 19.9623,
      "duration": 0.1985,
      "velocity": 105,
      "chip": "ym2612"
    },
    {
      "channel": 4,
      "note": 63,
      "start": 19.9626,
      "duration": 0.1985,
      "velocity": 106,
      "chip": "ym2612"
    },
    {
      "channel": 5,
      "note": 36,
      "start": 19.9629,
      "duration": 0.0993,
      "velocity": 86,
      "chip": "ym2612"
    },
    {
      "channel": 0,
      "note": 70,
      "start": 20.0617,
      "duration": 0.1985,
      "velocity": 105,
      "chip": "ym2612"
    },
    {
      "channel": 3,
      "note": 70,
      "start": 20.062,
      "duration": 0.1988,
      "velocity": 106,
      "chip": "ym2612"
    },
    {
      "channel": 5,
      "note": 39,
      "start": 20.0623,
      "duration": 0.0992,
      "velocity": 86,
      "chip": "ym2612"
    },
    {
      "channel": 1,
      "note": 73,
      "start": 20.161,
      "duration": 0.1985,
      "velocity": 105,
      "chip": "ym2612"
    },
    {
      "channel": 4,
      "note": 73,
      "start": 20.1613,
      "duration": 0.1985,
      "velocity": 106,
      "chip": "ym2612"
    },
    {
      "channel": 5,
      "note": 37,
      "start": 20.1616,
      "duration": 0.0995,
      "velocity": 86,
      "chip": "ym2612"
    },
    {
      "channel": 0,
      "note": 63,
      "start": 20.2603,
      "duration": 0.1985,
      "velocity": 105,
      "chip": "ym2612"
    },
    {
      "channel": 2,
      "note": 51,
      "start": 20.2606,
      "duration": 0.5957,
      "velocity": 105,
      "chip": "ym2612"
    },
    {
      "channel": 3,
      "note": 63,
      "start": 20.2609,
      "duration": 0.1982,
      "velocity": 106,
      "chip": "ym2612"
    },
    {
      "channel": 5,
      "note": 43,
      "start": 20.2612,
      "duration": 0.0988,
      "velocity": 86,
      "chip": "ym2612"
    },
    {
      "channel": 1,
      "note": 70,
      "start": 20.3596,
      "duration": 0.1985,
      "velocity": 105,
      "chip": "ym2612"
    },
    {
      "channel": 4,
      "note": 70,
      "start": 20.3599,
      "duration": 0.1985,
      "velocity": 106,
      "chip": "ym2612"
    },
    {
      "channel": 5,
      "note": 34,
      "start": 20.3602,
      "duration": 0.0992,
      "velocity": 86,
      "chip": "ym2612"
    },
    {
      "channel": 0,
      "note": 75,
      "start": 20.4589,
      "duration": 0.1985,
      "velocity": 105,
      "chip": "ym2612"
    },
    {
      "channel": 3,
      "note": 75,
      "start": 20.4593,
      "duration": 0.1985,
      "velocity": 106,
      "chip": "ym2612"
    },
    {
      "channel": 5,
      "note": 41,
      "start": 20.4596,
      "duration": 0.0992,
      "velocity": 86,
      "chip": "ym2612"
    },
    {
      "channel": 1,
      "note": 63,
      "start": 20.5582,
      "duration": 0.1985,
      "velocity": 105,
      "chip": "ym2612"
    },
    {
      "channel": 4,
      "note": 63,
      "start": 20.5585,
      "duration": 0.1985,
      "velocity": 106,
      "chip": "ym2612"
    },
    {
      "channel": 5,
      "note": 36,
      "start": 20.5589,
      "duration": 0.0992,
      "velocity": 86,
      "chip": "ym2612"
    },
    {
      "channel": 0,
      "note": 70,
      "start": 20.6575,
      "duration": 0.1985,
      "velocity": 105,
      "chip": "ym2612"
    },
    {
      "channel": 3,
      "note": 70,
      "start": 20.6578,
      "duration": 0.1989,
      "velocity": 106,
      "chip": "ym2612"
    },
    {
      "channel": 5,
      "note": 39,
      "start": 20.6582,
      "duration": 0.0992,
      "velocity": 86,
      "chip": "ym2612"
    },
    {
      "channel": 1,
      "note": 75,
      "start": 20.7568,
      "duration": 0.1985,
      "velocity": 105,
      "chip": "ym2612"
    },
    {
      "channel": 4,
      "note": 75,
      "start": 20.7571,
      "duration": 0.1985,
      "velocity": 106,
      "chip": "ym2612"
    },
    {
      "channel": 5,
      "note": 37,
      "start": 20.7575,
      "duration": 0.0996,
      "velocity": 86,
      "chip": "ym2612"
    },
    {
      "channel": 0,
      "note": 63,
      "start": 20.8561,
      "duration": 0.1989,
      "velocity": 105,
      "chip": "ym2612"
    },
    {
      "channel": 2,
      "note": 51,
      "start": 20.8564,
      "duration": 1.3903,
      "velocity": 105,
      "chip": "ym2612"
    },
    {
      "channel": 3,
      "note": 63,
      "start": 20.8568,
      "duration": 0.1985,
      "velocity": 106,
      "chip": "ym2612"
    },
    {
      "channel": 5,
      "note": 43,
      "start": 20.8571,
      "duration": 0.0989,
      "velocity": 86,
      "chip": "ym2612"
    },
    {
      "channel": 1,
      "note": 70,
      "start": 20.9555,
      "duration": 0.1985,
      "velocity": 105,
      "chip": "ym2612"
    },
    {
      "channel": 4,
      "note": 70,
      "start": 20.9558,
      "duration": 0.1989,
      "velocity": 106,
      "chip": "ym2612"
    },
    {
      "channel": 5,
      "note": 34,
      "start": 20.9561,
      "duration": 0.0996,
      "velocity": 86,
      "chip": "ym2612"
    },
    {
      "channel": 0,
      "note": 73,
      "start": 21.0552,
      "duration": 0.1981,
      "velocity": 105,
      "chip": "ym2612"
    },
    {
      "channel": 3,
      "note": 73,
      "start": 21.0555,
      "duration": 0.1982,
      "velocity": 106,
      "chip": "ym2612"
    },
    {
      "channel": 5,
      "note": 41,
      "start": 21.0559,
      "duration": 0.0992,
      "velocity": 86,
      "chip": "ym2612"
    },
    {
      "channel": 1,
      "note": 63,
      "start": 21.1545,
      "duration": 0.198,
      "velocity": 105,
      "chip": "ym2612"
    },
    {
      "channel": 4,
      "note": 63,
      "start": 21.1549,
      "duration": 0.1981,
      "velocity": 106,
      "chip": "ym2612"
    },
    {
      "channel": 5,
      "note": 36,
      "start": 21.1552,
      "duration": 0.0988,
      "velocity": 86,
      "chip": "ym2612"
    },
    {
      "channel": 0,
      "note": 70,
      "start": 21.2534,
      "duration": 0.1985,
      "velocity": 105,
      "chip": "ym2612"
    },
    {
      "channel": 3,
      "note": 70,
      "start": 21.2538,
      "duration": 0.1985,
      "velocity": 106,
      "chip": "ym2612"
    },
    {
      "channel": 5,
      "note": 39,
      "start": 21.2545,
      "duration": 0.0988,
      "velocity": 86,
      "chip": "ym2612"
    },
    {
      "channel": 1,
      "note": 73,
      "start": 21.3528,
      "duration": 0.1985,
      "velocity": 105,
      "chip": "ym2612"
    },
    {
      "channel": 4,
      "note": 73,
      "start": 21.3531,
      "duration": 0.1985,
      "velocity": 106,
      "chip": "ym2612"
    },
    {
      "channel": 5,
      "note": 37,
      "start": 21.3534,
      "duration": 0.0992,
      "velocity": 86,
      "chip": "ym2612"
    },
    {
      "channel": 0,
      "note": 73,
      "start": 21.4521,
      "duration": 0.1985,
      "velocity": 105,
      "chip": "ym2612"
    },
    {
      "channel": 3,
      "note": 73,
      "start": 21.4524,
      "duration": 0.1985,
      "velocity": 106,
      "chip": "ym2612"
    },
    {
      "channel": 5,
      "note": 43,
      "start": 21.4527,
      "duration": 0.0992,
      "velocity": 86,
      "chip": "ym2612"
    },
    {
      "channel": 1,
      "note": 70,
      "start": 21.5514,
      "duration": 0.1985,
      "velocity": 105,
      "chip": "ym2612"
    },
    {
      "channel": 4,
      "note": 70,
      "start": 21.5517,
      "duration": 0.1985,
      "velocity": 106,
      "chip": "ym2612"
    },
    {
      "channel": 5,
      "note": 34,
      "start": 21.552,
      "duration": 0.0992,
      "velocity": 86,
      "chip": "ym2612"
    },
    {
      "channel": 0,
      "note": 70,
      "start": 21.6507,
      "duration": 0.1985,
      "velocity": 105,
      "chip": "ym2612"
    },
    {
      "channel": 3,
      "note": 70,
      "start": 21.651,
      "duration": 0.1985,
      "velocity": 106,
      "chip": "ym2612"
    },
    {
      "channel": 5,
      "note": 41,
      "start": 21.6513,
      "duration": 0.0992,
      "velocity": 86,
      "chip": "ym2612"
    },
    {
      "channel": 1,
      "note": 73,
      "start": 21.75,
      "duration": 0.1985,
      "velocity": 105,
      "chip": "ym2612"
    },
    {
      "channel": 4,
      "note": 73,
      "start": 21.7503,
      "duration": 0.1985,
      "velocity": 106,
      "chip": "ym2612"
    },
    {
      "channel": 5,
      "note": 36,
      "start": 21.7507,
      "duration": 0.0992,
      "velocity": 86,
      "chip": "ym2612"
    },
    {
      "channel": 0,
      "note": 73,
      "start": 21.8493,
      "duration": 0.1985,
      "velocity": 105,
      "chip": "ym2612"
    },
    {
      "channel": 3,
      "note": 73,
      "start": 21.8496,
      "duration": 0.1985,
      "velocity": 106,
      "chip": "ym2612"
    },
    {
      "channel": 5,
      "note": 39,
      "start": 21.85,
      "duration": 0.0992,
      "velocity": 86,
      "chip": "ym2612"
    },
    {
      "channel": 1,
      "note": 70,
      "start": 21.9486,
      "duration": 0.1985,
      "velocity": 105,
      "chip": "ym2612"
    },
    {
      "channel": 4,
      "note": 70,
      "start": 21.9489,
      "duration": 0.1985,
      "velocity": 106,
      "chip": "ym2612"
    },
    {
      "channel": 5,
      "note": 37,
      "start": 21.9493,
      "duration": 0.0992,
      "velocity": 86,
      "chip": "ym2612"
    },
    {
      "channel": 0,
      "note": 70,
      "start": 22.0479,
      "duration": 0.1985,
      "velocity": 105,
      "chip": "ym2612"
    },
    {
      "channel": 3,
      "note": 70,
      "start": 22.0482,
      "duration": 0.1989,
      "velocity": 106,
      "chip": "ym2612"
    },
    {
      "channel": 5,
      "note": 43,
      "start": 22.0485,
      "duration": 0.0993,
      "velocity": 86,
      "chip": "ym2612"
    },
    {
      "channel": 1,
      "note": 73,
      "start": 22.1472,
      "duration": 0.1985,
      "velocity": 105,
      "chip": "ym2612"
    },
    {
      "channel": 4,
      "note": 73,
      "start": 22.1476,
      "duration": 0.1985,
      "velocity": 106,
      "chip": "ym2612"
    },
    {
      "channel": 5,
      "note": 34,
      "start": 22.1479,
      "duration": 0.0996,
      "velocity": 86,
      "chip": "ym2612"
    },
    {
      "channel": 0,
      "note": 63,
      "start": 22.2466,
      "duration": 0.1985,
      "velocity": 105,
      "chip": "ym2612"
    },
    {
      "channel": 2,
      "note": 51,
      "start": 22.2469,
      "duration": 0.5958,
      "velocity": 105,
      "chip": "ym2612"
    },
    {
      "channel": 3,
      "note": 63,
      "start": 22.2472,
      "duration": 0.1981,
      "velocity": 106,
      "chip": "ym2612"
    },
    {
      "channel": 5,
      "note": 43,
      "start": 22.2476,
      "duration": 0.0989,
      "velocity": 86,
      "chip": "ym2612"
    },
    {
      "channel": 1,
      "note": 70,
      "start": 22.3459,
      "duration": 0.1985,
      "velocity": 105,
      "chip": "ym2612"
    },
    {
      "channel": 4,
      "note": 70,
      "start": 22.3462,
      "duration": 0.1985,
      "velocity": 106,
      "chip": "ym2612"
    },
    {
      "channel": 5,
      "note": 34,
      "start": 22.3466,
      "duration": 0.0991,
      "velocity": 86,
      "chip": "ym2612"
    },
    {
      "channel": 0,
      "note": 75,
      "start": 22.4452,
      "duration": 0.1985,
      "velocity": 105,
      "chip": "ym2612"
    },
    {
      "channel": 3,
      "note": 75,
      "start": 22.4455,
      "duration": 0.1985,
      "velocity": 106,
      "chip": "ym2612"
    },
    {
      "channel": 5,
      "note": 41,
      "start": 22.4458,
      "duration": 0.0992,
      "velocity": 86,
      "chip": "ym2612"
    },
    {
      "channel": 1,
      "note": 63,
      "start": 22.5445,
      "duration": 0.1985,
      "velocity": 105,
      "chip": "ym2612"
    },
    {
      "channel": 4,
      "note": 63,
      "start": 22.5449,
      "duration": 0.1985,
      "velocity": 106,
      "chip": "ym2612"
    },
    {
      "channel": 5,
      "note": 36,
      "start": 22.5452,
      "duration": 0.0992,
      "velocity": 86,
      "chip": "ym2612"
    },
    {
      "channel": 0,
      "note": 70,
      "start": 22.6439,
      "duration": 0.1985,
      "velocity": 105,
      "chip": "ym2612"
    },
    {
      "channel": 3,
      "note": 70,
      "start": 22.6442,
      "duration": 0.1988,
      "velocity": 106,
      "chip": "ym2612"
    },
    {
      "channel": 5,
      "note": 39,
      "start": 22.6445,
      "duration": 0.0992,
      "velocity": 86,
      "chip": "ym2612"
    },
    {
      "channel": 1,
      "note": 75,
      "start": 22.7432,
      "duration": 0.1985,
      "velocity": 105,
      "chip": "ym2612"
    },
    {
      "channel": 4,
      "note": 75,
      "start": 22.7435,
      "duration": 0.1985,
      "velocity": 106,
      "chip": "ym2612"
    },
    {
      "channel": 5,
      "note": 37,
      "start": 22.7438,
      "duration": 0.0995,
      "velocity": 86,
      "chip": "ym2612"
    },
    {
      "channel": 0,
      "note": 63,
      "start": 22.8424,
      "duration": 0.1985,
      "velocity": 105,
      "chip": "ym2612"
    },
    {
      "channel": 2,
      "note": 51,
      "start": 22.8428,
      "duration": 0.596,
      "velocity": 105,
      "chip": "ym2612"
    },
    {
      "channel": 3,
      "note": 63,
      "start": 22.8431,
      "duration": 0.1982,
      "velocity": 106,
      "chip": "ym2612"
    },
    {
      "channel": 5,
      "note": 43,
      "start": 22.8435,
      "duration": 0.0988,
      "velocity": 86,
      "chip": "ym2612"
    },
    {
      "channel": 1,
      "note": 70,
      "start": 22.9417,
      "duration": 0.1985,
      "velocity": 105,
      "chip": "ym2612"
    },
    {
      "channel": 4,
      "note": 70,
      "start": 22.9421,
      "duration": 0.1985,
      "velocity": 106,
      "chip": "ym2612"
    },
    {
      "channel": 5,
      "note": 34,
      "start": 22.9424,
      "duration": 0.0993,
      "velocity": 86,
      "chip": "ym2612"
    },
    {
      "channel": 0,
      "note": 73,
      "start": 23.0411,
      "duration": 0.1985,
      "velocity": 105,
      "chip": "ym2612"
    },
    {
      "channel": 3,
      "note": 73,
      "start": 23.0414,
      "duration": 0.1985,
      "velocity": 106,
      "chip": "ym2612"
    },
    {
      "channel": 5,
      "note": 41,
      "start": 23.0417,
      "duration": 0.0992,
      "velocity": 86,
      "chip": "ym2612"
    },
    {
      "channel": 1,
      "note": 63,
      "start": 23.1404,
      "duration": 0.1985,
      "velocity": 105,
      "chip": "ym2612"
    },
    {
      "channel": 4,
      "note": 63,
      "start": 23.1407,
      "duration": 0.1985,
      "velocity": 106,
      "chip": "ym2612"
    },
    {
      "channel": 5,
      "note": 36,
      "start": 23.141,
      "duration": 0.0992,
      "velocity": 86,
      "chip": "ym2612"
    },
    {
      "channel": 0,
      "note": 70,
      "start": 23.2397,
      "duration": 0.1987,
      "velocity": 105,
      "chip": "ym2612"
    },
    {
      "channel": 3,
      "note": 70,
      "start": 23.24,
      "duration": 0.199,
      "velocity": 106,
      "chip": "ym2612"
    },
    {
      "channel": 5,
      "note": 39,
      "start": 23.2404,
      "duration": 0.0992,
      "velocity": 86,
      "chip": "ym2612"
    },
    {
      "channel": 1,
      "note": 73,
      "start": 23.339,
      "duration": 0.1989,
      "velocity": 105,
      "chip": "ym2612"
    },
    {
      "channel": 4,
      "note": 73,
      "start": 23.3393,
      "duration": 0.1989,
      "velocity": 106,
      "chip": "ym2612"
    },
    {
      "channel": 5,
      "note": 37,
      "start": 23.3397,
      "duration": 0.0997,
      "velocity": 86,
      "chip": "ym2612"
    },
    {
      "channel": 0,
      "note": 63,
      "start": 23.4385,
      "duration": 0.1983,
      "velocity": 105,
      "chip": "ym2612"
    },
    {
      "channel": 2,
      "note": 51,
      "start": 23.4389,
      "duration": 0.5956,
      "velocity": 105,
      "chip": "ym2612"
    },
    {
      "channel": 3,
      "note": 63,
      "start": 23.4392,
      "duration": 0.198,
      "velocity": 106,
      "chip": "ym2612"
    },
    {
      "channel": 5,
      "note": 43,
      "start": 23.4395,
      "duration": 0.099,
      "velocity": 86,
      "chip": "ym2612"
    },
    {
      "channel": 1,
      "note": 70,
      "start": 23.5381,
      "duration": 0.1981,
      "velocity": 105,
      "chip": "ym2612"
    },
    {
      "channel": 4,
      "note": 70,
      "start": 23.5384,
      "duration": 0.1981,
      "velocity": 106,
      "chip": "ym2612"
    },
    {
      "channel": 5,
      "note": 34,
      "start": 23.5387,
      "duration": 0.0992,
      "velocity": 86,
      "chip": "ym2612"
    },
    {
      "channel": 0,
      "note": 75,
      "start": 23.637,
      "duration": 0.1985,
      "velocity": 105,
      "chip": "ym2612"
    },
    {
      "channel": 3,
      "note": 75,
      "start": 23.6373,
      "duration": 0.1985,
      "velocity": 106,
      "chip": "ym2612"
    },
    {
      "channel": 5,
      "note": 41,
      "start": 23.638,
      "duration": 0.0988,
      "velocity": 86,
      "chip": "ym2612"
    },
    {
      "channel": 1,
      "note": 63,
      "start": 23.7363,
      "duration": 0.1985,
      "velocity": 105,
      "chip": "ym2612"
    },
    {
      "channel": 4,
      "note": 63,
      "start": 23.7366,
      "duration": 0.1985,
      "velocity": 106,
      "chip": "ym2612"
    },
    {
      "channel": 5,
      "note": 36,
      "start": 23.7369,
      "duration": 0.0992,
      "velocity": 86,
      "chip": "ym2612"
    },
    {
      "channel": 0,
      "note": 70,
      "start": 23.8356,
      "duration": 0.1985,
      "velocity": 105,
      "chip": "ym2612"
    },
    {
      "channel": 3,
      "note": 70,
      "start": 23.8359,
      "duration": 0.1989,
      "velocity": 106,
      "chip": "ym2612"
    },
    {
      "channel": 5,
      "note": 39,
      "start": 23.8363,
      "duration": 0.0992,
      "velocity": 86,
      "chip": "ym2612"
    },
    {
      "channel": 1,
      "note": 75,
      "start": 23.9349,
      "duration": 0.1985,
      "velocity": 105,
      "chip": "ym2612"
    },
    {
      "channel": 4,
      "note": 75,
      "start": 23.9353,
      "duration": 0.1985,
      "velocity": 106,
      "chip": "ym2612"
    },
    {
      "channel": 5,
      "note": 37,
      "start": 23.9356,
      "duration": 0.0995,
      "velocity": 86,
      "chip": "ym2612"
    },
    {
      "channel": 0,
      "note": 63,
      "start": 24.0342,
      "duration": 0.1985,
      "velocity": 105,
      "chip": "ym2612"
    },
    {
      "channel": 2,
      "note": 51,
      "start": 24.0346,
      "duration": 1.3903,
      "velocity": 105,
      "chip": "ym2612"
    },
    {
      "channel": 3,
      "note": 63,
      "start": 24.0349,
      "duration": 0.1982,
      "velocity": 106,
      "chip": "ym2612"
    },
    {
      "channel": 5,
      "note": 43,
      "start": 24.0352,
      "duration": 0.0989,
      "velocity": 86,
      "chip": "ym2612"
    },
    {
      "channel": 1,
      "note": 70,
      "start": 24.1335,
      "duration": 0.1985,
      "velocity": 105,
      "chip": "ym2612"
    },
    {
      "channel": 4,
      "note": 70,
      "start": 24.1339,
      "duration": 0.1985,
      "velocity": 106,
      "chip": "ym2612"
    },
    {
      "channel": 5,
      "note": 34,
      "start": 24.1342,
      "duration": 0.0992,
      "velocity": 86,
      "chip": "ym2612"
    },
    {
      "channel": 0,
      "note": 73,
      "start": 24.2329,
      "duration": 0.1985,
      "velocity": 105,
      "chip": "ym2612"
    },
    {
      "channel": 3,
      "note": 73,
      "start": 24.2332,
      "duration": 0.1985,
      "velocity": 106,
      "chip": "ym2612"
    },
    {
      "channel": 5,
      "note": 41,
      "start": 24.2335,
      "duration": 0.0992,
      "velocity": 86,
      "chip": "ym2612"
    },
    {
      "channel": 1,
      "note": 63,
      "start": 24.3322,
      "duration": 0.1985,
      "velocity": 105,
      "chip": "ym2612"
    },
    {
      "channel": 4,
      "note": 63,
      "start": 24.3325,
      "duration": 0.1985,
      "velocity": 106,
      "chip": "ym2612"
    },
    {
      "channel": 5,
      "note": 36,
      "start": 24.3329,
      "duration": 0.0992,
      "velocity": 86,
      "chip": "ym2612"
    },
    {
      "channel": 0,
      "note": 70,
      "start": 24.4315,
      "duration": 0.1985,
      "velocity": 105,
      "chip": "ym2612"
    },
    {
      "channel": 3,
      "note": 70,
      "start": 24.4318,
      "duration": 0.1985,
      "velocity": 106,
      "chip": "ym2612"
    },
    {
      "channel": 5,
      "note": 39,
      "start": 24.4322,
      "duration": 0.0992,
      "velocity": 86,
      "chip": "ym2612"
    },
    {
      "channel": 1,
      "note": 73,
      "start": 24.5308,
      "duration": 0.1985,
      "velocity": 105,
      "chip": "ym2612"
    },
    {
      "channel": 4,
      "note": 73,
      "start": 24.5311,
      "duration": 0.1985,
      "velocity": 106,
      "chip": "ym2612"
    },
    {
      "channel": 5,
      "note": 37,
      "start": 24.5315,
      "duration": 0.0992,
      "velocity": 86,
      "chip": "ym2612"
    },
    {
      "channel": 0,
      "note": 73,
      "start": 24.6301,
      "duration": 0.1985,
      "velocity": 105,
      "chip": "ym2612"
    },
    {
      "channel": 3,
      "note": 73,
      "start": 24.6304,
      "duration": 0.1985,
      "velocity": 106,
      "chip": "ym2612"
    },
    {
      "channel": 5,
      "note": 43,
      "start": 24.6307,
      "duration": 0.0992,
      "velocity": 86,
      "chip": "ym2612"
    },
    {
      "channel": 1,
      "note": 70,
      "start": 24.7294,
      "duration": 0.1985,
      "velocity": 105,
      "chip": "ym2612"
    },
    {
      "channel": 4,
      "note": 70,
      "start": 24.7297,
      "duration": 0.1985,
      "velocity": 106,
      "chip": "ym2612"
    },
    {
      "channel": 5,
      "note": 34,
      "start": 24.7301,
      "duration": 0.0992,
      "velocity": 86,
      "chip": "ym2612"
    },
    {
      "channel": 0,
      "note": 70,
      "start": 24.8288,
      "duration": 0.1985,
      "velocity": 105,
      "chip": "ym2612"
    },
    {
      "channel": 3,
      "note": 70,
      "start": 24.8291,
      "duration": 0.1985,
      "velocity": 106,
      "chip": "ym2612"
    },
    {
      "channel": 5,
      "note": 41,
      "start": 24.8294,
      "duration": 0.0992,
      "velocity": 86,
      "chip": "ym2612"
    },
    {
      "channel": 1,
      "note": 73,
      "start": 24.9281,
      "duration": 0.1985,
      "velocity": 105,
      "chip": "ym2612"
    },
    {
      "channel": 4,
      "note": 73,
      "start": 24.9284,
      "duration": 0.1985,
      "velocity": 106,
      "chip": "ym2612"
    },
    {
      "channel": 5,
      "note": 36,
      "start": 24.9287,
      "duration": 0.0992,
      "velocity": 86,
      "chip": "ym2612"
    },
    {
      "channel": 0,
      "note": 73,
      "start": 25.0274,
      "duration": 0.1985,
      "velocity": 105,
      "chip": "ym2612"
    },
    {
      "channel": 3,
      "note": 73,
      "start": 25.0277,
      "duration": 0.1985,
      "velocity": 106,
      "chip": "ym2612"
    },
    {
      "channel": 5,
      "note": 39,
      "start": 25.028,
      "duration": 0.0993,
      "velocity": 86,
      "chip": "ym2612"
    },
    {
      "channel": 1,
      "note": 70,
      "start": 25.1267,
      "duration": 0.1985,
      "velocity": 105,
      "chip": "ym2612"
    },
    {
      "channel": 4,
      "note": 70,
      "start": 25.127,
      "duration": 0.1985,
      "velocity": 106,
      "chip": "ym2612"
    },
    {
      "channel": 5,
      "note": 37,
      "start": 25.1274,
      "duration": 0.0992,
      "velocity": 86,
      "chip": "ym2612"
    },
    {
      "channel": 0,
      "note": 70,
      "start": 25.226,
      "duration": 0.1985,
      "velocity": 105,
      "chip": "ym2612"
    },
    {
      "channel": 3,
      "note": 70,
      "start": 25.2263,
      "duration": 0.1989,
      "velocity": 106,
      "chip": "ym2612"
    },
    {
      "channel": 5,
      "note": 43,
      "start": 25.2267,
      "duration": 0.0992,
      "velocity": 86,
      "chip": "ym2612"
    },
    {
      "channel": 1,
      "note": 73,
      "start": 25.3253,
      "duration": 0.1985,
      "velocity": 105,
      "chip": "ym2612"
    },
    {
      "channel": 4,
      "note": 73,
      "start": 25.3257,
      "duration": 0.1985,
      "velocity": 106,
      "chip": "ym2612"
    },
    {
      "channel": 5,
      "note": 34,
      "start": 25.326,
      "duration": 0.1008,
      "velocity": 97,
      "chip": "ym2612"
    },
    {
      "channel": 0,
      "note": 66,
      "start": 25.4246,
      "duration": 0.1985,
      "velocity": 105,
      "chip": "ym2612"
    },
    {
      "channel": 2,
      "note": 54,
      "start": 25.425,
      "duration": 0.5961,
      "velocity": 105,
      "chip": "ym2612"
    },
    {
      "channel": 3,
      "note": 54,
      "start": 25.4253,
      "duration": 0.1982,
      "velocity": 106,
      "chip": "ym2612"
    },
    {
      "channel": 5,
      "note": 43,
      "start": 25.427,
      "duration": 0.0975,
      "velocity": 97,
      "chip": "ym2612"
    },
    {
      "channel": 1,
      "note": 73,
      "start": 25.5239,
      "duration": 0.1985,
      "velocity": 105,
      "chip": "ym2612"
    },
    {
      "channel": 4,
      "note": 61,
      "start": 25.5243,
      "duration": 0.1985,
      "velocity": 106,
      "chip": "ym2612"
    },
    {
      "channel": 5,
      "note": 34,
      "start": 25.5246,
      "duration": 0.0992,
      "velocity": 97,
      "chip": "ym2612"
    },
    {
      "channel": 0,
      "note": 78,
      "start": 25.6232,
      "duration": 0.1985,
      "velocity": 105,
      "chip": "ym2612"
    },
    {
      "channel": 3,
      "note": 66,
      "start": 25.6236,
      "duration": 0.1985,
      "velocity": 106,
      "chip": "ym2612"
    },
    {
      "channel": 5,
      "note": 41,
      "start": 25.6239,
      "duration": 0.0992,
      "velocity": 97,
      "chip": "ym2612"
    },
    {
      "channel": 1,
      "note": 66,
      "start": 25.7226,
      "duration": 0.1989,
      "velocity": 105,
      "chip": "ym2612"
    },
    {
      "channel": 4,
      "note": 54,
      "start": 25.7229,
      "duration": 0.1989,
      "velocity": 106,
      "chip": "ym2612"
    },
    {
      "channel": 5,
      "note": 36,
      "start": 25.7232,
      "duration": 0.0992,
      "velocity": 97,
      "chip": "ym2612"
    },
    {
      "channel": 0,
      "note": 73,
      "start": 25.8219,
      "duration": 0.1985,
      "velocity": 105,
      "chip": "ym2612"
    },
    {
      "channel": 3,
      "note": 61,
      "start": 25.8222,
      "duration": 0.1992,
      "velocity": 106,
      "chip": "ym2612"
    },
    {
      "channel": 5,
      "note": 39,
      "start": 25.8225,
      "duration": 0.0996,
      "velocity": 97,
      "chip": "ym2612"
    },
    {
      "channel": 1,
      "note": 78,
      "start": 25.9217,
      "duration": 0.198,
      "velocity": 105,
      "chip": "ym2612"
    },
    {
      "channel": 4,
      "note": 66,
      "start": 25.922,
      "duration": 0.1981,
      "velocity": 106,
      "chip": "ym2612"
    },
    {
      "channel": 5,
      "note": 37,
      "start": 25.9223,
      "duration": 0.0995,
      "velocity": 97,
      "chip": "ym2612"
    },
    {
      "channel": 0,
      "note": 66,
      "start": 26.0205,
      "duration": 0.1985,
      "velocity": 105,
      "chip": "ym2612"
    },
    {
      "channel": 2,
      "note": 54,
      "start": 26.0213,
      "duration": 0.5954,
      "velocity": 105,
      "chip": "ym2612"
    },
    {
      "channel": 3,
      "note": 54,
      "start": 26.0216,
      "duration": 0.1978,
      "velocity": 106,
      "chip": "ym2612"
    },
    {
      "channel": 5,
      "note": 43,
      "start": 26.0219,
      "duration": 0.0985,
      "velocity": 97,
      "chip": "ym2612"
    },
    {
      "channel": 1,
      "note": 73,
      "start": 26.1199,
      "duration": 0.1985,
      "velocity": 105,
      "chip": "ym2612"
    },
    {
      "channel": 4,
      "note": 61,
      "start": 26.1202,
      "duration": 0.1985,
      "velocity": 106,
      "chip": "ym2612"
    },
    {
      "channel": 5,
      "note": 34,
      "start": 26.1205,
      "duration": 0.0992,
      "velocity": 97,
      "chip": "ym2612"
    },
    {
      "channel": 0,
      "note": 76,
      "start": 26.2192,
      "duration": 0.1985,
      "velocity": 105,
      "chip": "ym2612"
    },
    {
      "channel": 3,
      "note": 64,
      "start": 26.2195,
      "duration": 0.1985,
      "velocity": 106,
      "chip": "ym2612"
    },
    {
      "channel": 5,
      "note": 41,
      "start": 26.2198,
      "duration": 0.0992,
      "velocity": 97,
      "chip": "ym2612"
    },
    {
      "channel": 1,
      "note": 66,
      "start": 26.3185,
      "duration": 0.1985,
      "velocity": 105,
      "chip": "ym2612"
    },
    {
      "channel": 4,
      "note": 54,
      "start": 26.3188,
      "duration": 0.1985,
      "velocity": 106,
      "chip": "ym2612"
    },
    {
      "channel": 5,
      "note": 36,
      "start": 26.3191,
      "duration": 0.0992,
      "velocity": 97,
      "chip": "ym2612"
    },
    {
      "channel": 0,
      "note": 73,
      "start": 26.4178,
      "duration": 0.1985,
      "velocity": 105,
      "chip": "ym2612"
    },
    {
      "channel": 3,
      "note": 61,
      "start": 26.4181,
      "duration": 0.1988,
      "velocity": 106,
      "chip": "ym2612"
    },
    {
      "channel": 5,
      "note": 39,
      "start": 26.4185,
      "duration": 0.0992,
      "velocity": 97,
      "chip": "ym2612"
    },
    {
      "channel": 1,
      "note": 76,
      "start": 26.5171,
      "duration": 0.1985,
      "velocity": 105,
      "chip": "ym2612"
    },
    {
      "channel": 4,
      "note": 64,
      "start": 26.5175,
      "duration": 0.1985,
      "velocity": 106,
      "chip": "ym2612"
    },
    {
      "channel": 5,
      "note": 37,
      "start": 26.5178,
      "duration": 0.0995,
      "velocity": 97,
      "chip": "ym2612"
    },
    {
      "channel": 0,
      "note": 66,
      "start": 26.6164,
      "duration": 0.1985,
      "velocity": 105,
      "chip": "ym2612"
    },
    {
      "channel": 2,
      "note": 54,
      "start": 26.6168,
      "duration": 0.5957,
      "velocity": 105,
      "chip": "ym2612"
    },
    {
      "channel": 3,
      "note": 54,
      "start": 26.6171,
      "duration": 0.1982,
      "velocity": 106,
      "chip": "ym2612"
    },
    {
      "channel": 5,
      "note": 43,
      "start": 26.6174,
      "duration": 0.0988,
      "velocity": 97,
      "chip": "ym2612"
    },
    {
      "channel": 1,
      "note": 73,
      "start": 26.7157,
      "duration": 0.1985,
      "velocity": 105,
      "chip": "ym2612"
    },
    {
      "channel": 4,
      "note": 61,
      "start": 26.7161,
      "duration": 0.1985,
      "velocity": 106,
      "chip": "ym2612"
    },
    {
      "channel": 5,
      "note": 34,
      "start": 26.7164,
      "duration": 0.0992,
      "velocity": 97,
      "chip": "ym2612"
    },
    {
      "channel": 0,
      "note": 78,
      "start": 26.815,
      "duration": 0.1985,
      "velocity": 105,
      "chip": "ym2612"
    },
    {
      "channel": 3,
      "note": 66,
      "start": 26.8154,
      "duration": 0.1985,
      "velocity": 106,
      "chip": "ym2612"
    },
    {
      "channel": 5,
      "note": 41,
      "start": 26.8157,
      "duration": 0.0992,
      "velocity": 97,
      "chip": "ym2612"
    },
    {
      "channel": 1,
      "note": 66,
      "start": 26.9144,
      "duration": 0.1985,
      "velocity": 105,
      "chip": "ym2612"
    },
    {
      "channel": 4,
      "note": 54,
      "start": 26.9147,
      "duration": 0.1985,
      "velocity": 106,
      "chip": "ym2612"
    },
    {
      "channel": 5,
      "note": 36,
      "start": 26.915,
      "duration": 0.0992,
      "velocity": 97,
      "chip": "ym2612"
    },
    {
      "channel": 0,
      "note": 73,
      "start": 27.0137,
      "duration": 0.1985,
      "velocity": 105,
      "chip": "ym2612"
    },
    {
      "channel": 3,
      "note": 61,
      "start": 27.014,
      "duration": 0.1988,
      "velocity": 106,
      "chip": "ym2612"
    },
    {
      "channel": 5,
      "note": 39,
      "start": 27.0143,
      "duration": 0.0992,
      "velocity": 97,
      "chip": "ym2612"
    },
    {
      "channel": 1,
      "note": 78,
      "start": 27.113,
      "duration": 0.1985,
      "velocity": 105,
      "chip": "ym2612"
    },
    {
      "channel": 4,
      "note": 66,
      "start": 27.1133,
      "duration": 0.1985,
      "velocity": 106,
      "chip": "ym2612"
    },
    {
      "channel": 5,
      "note": 37,
      "start": 27.1136,
      "duration": 0.0996,
      "velocity": 97,
      "chip": "ym2612"
    },
    {
      "channel": 0,
      "note": 66,
      "start": 27.2123,
      "duration": 0.1985,
      "velocity": 105,
      "chip": "ym2612"
    },
    {
      "channel": 2,
      "note": 54,
      "start": 27.2126,
      "duration": 1.3903,
      "velocity": 105,
      "chip": "ym2612"
    },
    {
      "channel": 3,
      "note": 54,
      "start": 27.2129,
      "duration": 0.1982,
      "velocity": 106,
      "chip": "ym2612"
    },
    {
      "channel": 5,
      "note": 43,
      "start": 27.2133,
      "duration": 0.0989,
      "velocity": 97,
      "chip": "ym2612"
    },
    {
      "channel": 1,
      "note": 73,
      "start": 27.3117,
      "duration": 0.1985,
      "velocity": 105,
      "chip": "ym2612"
    },
    {
      "channel": 4,
      "note": 61,
      "start": 27.312,
      "duration": 0.1985,
      "velocity": 106,
      "chip": "ym2612"
    },
    {
      "channel": 5,
      "note": 34,
      "start": 27.3123,
      "duration": 0.0992,
      "velocity": 97,
      "chip": "ym2612"
    },
    {
      "channel": 0,
      "note": 76,
      "start": 27.411,
      "duration": 0.1985,
      "velocity": 105,
      "chip": "ym2612"
    },
    {
      "channel": 3,
      "note": 64,
      "start": 27.4113,
      "duration": 0.1985,
      "velocity": 106,
      "chip": "ym2612"
    },
    {
      "channel": 5,
      "note": 41,
      "start": 27.4116,
      "duration": 0.0992,
      "velocity": 97,
      "chip": "ym2612"
    },
    {
      "channel": 1,
      "note": 66,
      "start": 27.5103,
      "duration": 0.1985,
      "velocity": 105,
      "chip": "ym2612"
    },
    {
      "channel": 4,
      "note": 54,
      "start": 27.5106,
      "duration": 0.1985,
      "velocity": 106,
      "chip": "ym2612"
    },
    {
      "channel": 5,
      "note": 36,
      "start": 27.5109,
      "duration": 0.0992,
      "velocity": 97,
      "chip": "ym2612"
    },
    {
      "channel": 0,
      "note": 73,
      "start": 27.6096,
      "duration": 0.1985,
      "velocity": 105,
      "chip": "ym2612"
    },
    {
      "channel": 3,
      "note": 61,
      "start": 27.6099,
      "duration": 0.1985,
      "velocity": 106,
      "chip": "ym2612"
    },
    {
      "channel": 5,
      "note": 39,
      "start": 27.6102,
      "duration": 0.0992,
      "velocity": 97,
      "chip": "ym2612"
    },
    {
      "channel": 1,
      "note": 76,
      "start": 27.7089,
      "duration": 0.1985,
      "velocity": 105,
      "chip": "ym2612"
    },
    {
      "channel": 4,
      "note": 64,
      "start": 27.7092,
      "duration": 0.1985,
      "velocity": 106,
      "chip": "ym2612"
    },
    {
      "channel": 5,
      "note": 37,
      "start": 27.7096,
      "duration": 0.0992,
      "velocity": 97,
      "chip": "ym2612"
    },
    {
      "channel": 0,
      "note": 76,
      "start": 27.8082,
      "duration": 0.1985,
      "velocity": 105,
      "chip": "ym2612"
    },
    {
      "channel": 3,
      "note": 64,
      "start": 27.8085,
      "duration": 0.1985,
      "velocity": 106,
      "chip": "ym2612"
    },
    {
      "channel": 5,
      "note": 43,
      "start": 27.8089,
      "duration": 0.0992,
      "velocity": 97,
      "chip": "ym2612"
    },
    {
      "channel": 1,
      "note": 73,
      "start": 27.9075,
      "duration": 0.1985,
      "velocity": 105,
      "chip": "ym2612"
    },
    {
      "channel": 4,
      "note": 61,
      "start": 27.9078,
      "duration": 0.1985,
      "velocity": 106,
      "chip": "ym2612"
    },
    {
      "channel": 5,
      "note": 34,
      "start": 27.9082,
      "duration": 0.0992,
      "velocity": 97,
      "chip": "ym2612"
    },
    {
      "channel": 0,
      "note": 73,
      "start": 28.0068,
      "duration": 0.1985,
      "velocity": 105,
      "chip": "ym2612"
    },
    {
      "channel": 3,
      "note": 61,
      "start": 28.0071,
      "duration": 0.1985,
      "velocity": 106,
      "chip": "ym2612"
    },
    {
      "channel": 5,
      "note": 41,
      "start": 28.0075,
      "duration": 0.0993,
      "velocity": 97,
      "chip": "ym2612"
    },
    {
      "channel": 1,
      "note": 76,
      "start": 28.1061,
      "duration": 0.1989,
      "velocity": 105,
      "chip": "ym2612"
    },
    {
      "channel": 4,
      "note": 64,
      "start": 28.1065,
      "duration": 0.1989,
      "velocity": 106,
      "chip": "ym2612"
    },
    {
      "channel": 5,
      "note": 36,
      "start": 28.1068,
      "duration": 0.0992,
      "velocity": 97,
      "chip": "ym2612"
    },
    {
      "channel": 0,
      "note": 76,
      "start": 28.2055,
      "duration": 0.1985,
      "velocity": 105,
      "chip": "ym2612"
    },
    {
      "channel": 3,
      "note": 64,
      "start": 28.2058,
      "duration": 0.1989,
      "velocity": 106,
      "chip": "ym2612"
    },
    {
      "channel": 5,
      "note": 39,
      "start": 28.2061,
      "duration": 0.0996,
      "velocity": 97,
      "chip": "ym2612"
    },
    {
      "channel": 1,
      "note": 73,
      "start": 28.3052,
      "duration": 0.1981,
      "velocity": 105,
      "chip": "ym2612"
    },
    {
      "channel": 4,
      "note": 61,
      "start": 28.3055,
      "duration": 0.1981,
      "velocity": 106,
      "chip": "ym2612"
    },
    {
      "channel": 5,
      "note": 37,
      "start": 28.3059,
      "duration": 0.0992,
      "velocity": 97,
      "chip": "ym2612"
    },
    {
      "channel": 0,
      "note": 73,
      "start": 28.4045,
      "duration": 0.1982,
      "velocity": 105,
      "chip": "ym2612"
    },
    {
      "channel": 3,
      "note": 61,
      "start": 28.4048,
      "duration": 0.1985,
      "velocity": 106,
      "chip": "ym2612"
    },
    {
      "channel": 5,
      "note": 43,
      "start": 28.4052,
      "duration": 0.0987,
      "velocity": 97,
      "chip": "ym2612"
    },
    {
      "channel": 1,
      "note": 76,
      "start": 28.5034,
      "duration": 0.1985,
      "velocity": 105,
      "chip": "ym2612"
    },
    {
      "channel": 4,
      "note": 64,
      "start": 28.5037,
      "duration": 0.1985,
      "velocity": 106,
      "chip": "ym2612"
    },
    {
      "channel": 5,
      "note": 34,
      "start": 28.5045,
      "duration": 0.0992,
      "velocity": 97,
      "chip": "ym2612"
    },
    {
      "channel": 0,
      "note": 66,
      "start": 28.6028,
      "duration": 0.1985,
      "velocity": 105,
      "chip": "ym2612"
    },
    {
      "channel": 2,
      "note": 54,
      "start": 28.6031,
      "duration": 0.5957,
      "velocity": 105,
      "chip": "ym2612"
    },
    {
      "channel": 3,
      "note": 54,
      "start": 28.6034,
      "duration": 0.1981,
      "velocity": 106,
      "chip": "ym2612"
    },
    {
      "channel": 5,
      "note": 43,
      "start": 28.6038,
      "duration": 0.0988,
      "velocity": 97,
      "chip": "ym2612"
    },
    {
      "channel": 1,
      "note": 73,
      "start": 28.7021,
      "duration": 0.1985,
      "velocity": 105,
      "chip": "ym2612"
    },
    {
      "channel": 4,
      "note": 61,
      "start": 28.7024,
      "duration": 0.1985,
      "velocity": 106,
      "chip": "ym2612"
    },
    {
      "channel": 5,
      "note": 34,
      "start": 28.7027,
      "duration": 0.0992,
      "velocity": 97,
      "chip": "ym2612"
    },
    {
      "channel": 0,
      "note": 78,
      "start": 28.8014,
      "duration": 0.1985,
      "velocity": 105,
      "chip": "ym2612"
    },
    {
      "channel": 3,
      "note": 66,
      "start": 28.8017,
      "duration": 0.1985,
      "velocity": 106,
      "chip": "ym2612"
    },
    {
      "channel": 5,
      "note": 41,
      "start": 28.802,
      "duration": 0.0992,
      "velocity": 97,
      "chip": "ym2612"
    },
    {
      "channel": 1,
      "note": 66,
      "start": 28.9007,
      "duration": 0.1985,
      "velocity": 105,
      "chip": "ym2612"
    },
    {
      "channel": 4,
      "note": 54,
      "start": 28.901,
      "duration": 0.1985,
      "velocity": 106,
      "chip": "ym2612"
    },
    {
      "channel": 5,
      "note": 36,
      "start": 28.9013,
      "duration": 0.0992,
      "velocity": 97,
      "chip": "ym2612"
    },
    {
      "channel": 0,
      "note": 73,
      "start": 29.0,
      "duration": 0.1985,
      "velocity": 105,
      "chip": "ym2612"
    },
    {
      "channel": 3,
      "note": 61,
      "start": 29.0003,
      "duration": 0.1989,
      "velocity": 106,
      "chip": "ym2612"
    },
    {
      "channel": 5,
      "note": 39,
      "start": 29.0007,
      "duration": 0.0992,
      "velocity": 97,
      "chip": "ym2612"
    },
    {
      "channel": 1,
      "note": 78,
      "start": 29.0993,
      "duration": 0.1985,
      "velocity": 105,
      "chip": "ym2612"
    },
    {
      "channel": 4,
      "note": 66,
      "start": 29.0996,
      "duration": 0.1985,
      "velocity": 106,
      "chip": "ym2612"
    },
    {
      "channel": 5,
      "note": 37,
      "start": 29.1,
      "duration": 0.0995,
      "velocity": 97,
      "chip": "ym2612"
    },
    {
      "channel": 0,
      "note": 66,
      "start": 29.1986,
      "duration": 0.1985,
      "velocity": 105,
      "chip": "ym2612"
    },
    {
      "channel": 2,
      "note": 54,
      "start": 29.1989,
      "duration": 0.5957,
      "velocity": 105,
      "chip": "ym2612"
    },
    {
      "channel": 3,
      "note": 54,
      "start": 29.1993,
      "duration": 0.1982,
      "velocity": 106,
      "chip": "ym2612"
    },
    {
      "channel": 5,
      "note": 43,
      "start": 29.1996,
      "duration": 0.0989,
      "velocity": 97,
      "chip": "ym2612"
    },
    {
      "channel": 1,
      "note": 73,
      "start": 29.2979,
      "duration": 0.1985,
      "velocity": 105,
      "chip": "ym2612"
    },
    {
      "channel": 4,
      "note": 61,
      "start": 29.2982,
      "duration": 0.1985,
      "velocity": 106,
      "chip": "ym2612"
    },
    {
      "channel": 5,
      "note": 34,
      "start": 29.2985,
      "duration": 0.0993,
      "velocity": 97,
      "chip": "ym2612"
    },
    {
      "channel": 0,
      "note": 76,
      "start": 29.3972,
      "duration": 0.1985,
      "velocity": 105,
      "chip": "ym2612"
    },
    {
      "channel": 3,
      "note": 64,
      "start": 29.3976,
      "duration": 0.1985,
      "velocity": 106,
      "chip": "ym2612"
    },
    {
      "channel": 5,
      "note": 41,
      "start": 29.3979,
      "duration": 0.0992,
      "velocity": 97,
      "chip": "ym2612"
    },
    {
      "channel": 1,
      "note": 66,
      "start": 29.4966,
      "duration": 0.1985,
      "velocity": 105,
      "chip": "ym2612"
    },
    {
      "channel": 4,
      "note": 54,
      "start": 29.4969,
      "duration": 0.1985,
      "velocity": 106,
      "chip": "ym2612"
    },
    {
      "channel": 5,
      "note": 36,
      "start": 29.4972,
      "duration": 0.0992,
      "velocity": 97,
      "chip": "ym2612"
    },
    {
      "channel": 0,
      "note": 73,
      "start": 29.5959,
      "duration": 0.1985,
      "velocity": 105,
      "chip": "ym2612"
    },
    {
      "channel": 3,
      "note": 61,
      "start": 29.5962,
      "duration": 0.1988,
      "velocity": 106,
      "chip": "ym2612"
    },
    {
      "channel": 5,
      "note": 39,
      "start": 29.5965,
      "duration": 0.0992,
      "velocity": 97,
      "chip": "ym2612"
    },
    {
      "channel": 1,
      "note": 76,
      "start": 29.6952,
      "duration": 0.1985,
      "velocity": 105,
      "chip": "ym2612"
    },
    {
      "channel": 4,
      "note": 64,
      "start": 29.6955,
      "duration": 0.1985,
      "velocity": 106,
      "chip": "ym2612"
    },
    {
      "channel": 5,
      "note": 37,
      "start": 29.6958,
      "duration": 0.0995,
      "velocity": 97,
      "chip": "ym2612"
    },
    {
      "channel": 0,
      "note": 66,
      "start": 29.7945,
      "duration": 0.1985,
      "velocity": 105,
      "chip": "ym2612"
    },
    {
      "channel": 2,
      "note": 54,
      "start": 29.7948,
      "duration": 0.5958,
      "velocity": 105,
      "chip": "ym2612"
    },
    {
      "channel": 3,
      "note": 54,
      "start": 29.7951,
      "duration": 0.1982,
      "velocity": 106,
      "chip": "ym2612"
    },
    {
      "channel": 5,
      "note": 43,
      "start": 29.7955,
      "duration": 0.0988,
      "velocity": 97,
      "chip": "ym2612"
    },
    {
      "channel": 1,
      "note": 73,
      "start": 29.8939,
      "duration": 0.1985,
      "velocity": 105,
      "chip": "ym2612"
    },
    {
      "channel": 4,
      "note": 61,
      "start": 29.8942,
      "duration": 0.1985,
      "velocity": 106,
      "chip": "ym2612"
    },
    {
      "channel": 5,
      "note": 34,
      "start": 29.8945,
      "duration": 0.0992,
      "velocity": 97,
      "chip": "ym2612"
    },
    {
      "channel": 0,
      "note": 78,
      "start": 29.9932,
      "duration": 0.1985,
      "velocity": 105,
      "chip": "ym2612"
    },
    {
      "channel": 3,
      "note": 66,
      "start": 29.9935,
      "duration": 0.1985,
      "velocity": 106,
      "chip": "ym2612"
    },
    {
      "channel": 5,
      "note": 41,
      "start": 29.9938,
      "duration": 0.0992,
      "velocity": 97,
      "chip": "ym2612"
    },
    {
      "channel": 1,
      "note": 66,
      "start": 30.0924,
      "duration": 0.1985,
      "velocity": 105,
      "chip": "ym2612"
    },
    {
      "channel": 4,
      "note": 54,
      "start": 30.0928,
      "duration": 0.1985,
      "velocity": 106,
      "chip": "ym2612"
    },
    {
      "channel": 5,
      "note": 36,
      "start": 30.0931,
      "duration": 0.0992,
      "velocity": 97,
      "chip": "ym2612"
    },
    {
      "channel": 0,
      "note": 73,
      "start": 30.1917,
      "duration": 0.1985,
      "velocity": 105,
      "chip": "ym2612"
    },
    {
      "channel": 3,
      "note": 61,
      "start": 30.1921,
      "duration": 0.1989,
      "velocity": 106,
      "chip": "ym2612"
    },
    {
      "channel": 5,
      "note": 39,
      "start": 30.1924,
      "duration": 0.0993,
      "velocity": 97,
      "chip": "ym2612"
    },
    {
      "channel": 1,
      "note": 78,
      "start": 30.291,
      "duration": 0.1985,
      "velocity": 105,
      "chip": "ym2612"
    },
    {
      "channel": 4,
      "note": 66,
      "start": 30.2914,
      "duration": 0.1985,
      "velocity": 106,
      "chip": "ym2612"
    },
    {
      "channel": 5,
      "note": 37,
      "start": 30.2917,
      "duration": 0.0995,
      "velocity": 97,
      "chip": "ym2612"
    },
    {
      "channel": 0,
      "note": 66,
      "start": 30.3904,
      "duration": 0.1985,
      "velocity": 105,
      "chip": "ym2612"
    },
    {
      "channel": 2,
      "note": 54,
      "start": 30.3907,
      "duration": 1.3903,
      "velocity": 105,
      "chip": "ym2612"
    },
    {
      "channel": 3,
      "note": 54,
      "start": 30.391,
      "duration": 0.1982,
      "velocity": 106,
      "chip": "ym2612"
    },
    {
      "channel": 5,
      "note": 43,
      "start": 30.3914,
      "duration": 0.0989,
      "velocity": 97,
      "chip": "ym2612"
    },
    {
      "channel": 1,
      "note": 73,
      "start": 30.4897,
      "duration": 0.1987,
      "velocity": 105,
      "chip": "ym2612"
    },
    {
      "channel": 4,
      "note": 61,
      "start": 30.49,
      "duration": 0.1987,
      "velocity": 106,
      "chip": "ym2612"
    },
    {
      "channel": 5,
      "note": 34,
      "start": 30.4904,
      "duration": 0.0992,
      "velocity": 97,
      "chip": "ym2612"
    },
    {
      "channel": 0,
      "note": 76,
      "start": 30.589,
      "duration": 0.1989,
      "velocity": 105,
      "chip": "ym2612"
    },
    {
      "channel": 3,
      "note": 64,
      "start": 30.5893,
      "duration": 0.1989,
      "velocity": 106,
      "chip": "ym2612"
    },
    {
      "channel": 5,
      "note": 41,
      "start": 30.5897,
      "duration": 0.0994,
      "velocity": 97,
      "chip": "ym2612"
    },
    {
      "channel": 1,
      "note": 66,
      "start": 30.6885,
      "duration": 0.1983,
      "velocity": 105,
      "chip": "ym2612"
    },
    {
      "channel": 4,
      "note": 54,
      "start": 30.6889,
      "duration": 0.1983,
      "velocity": 106,
      "chip": "ym2612"
    },
    {
      "channel": 5,
      "note": 36,
      "start": 30.6892,
      "duration": 0.0994,
      "velocity": 97,
      "chip": "ym2612"
    },
    {
      "channel": 0,
      "note": 73,
      "start": 30.7881,
      "duration": 0.1981,
      "velocity": 105,
      "chip": "ym2612"
    },
    {
      "channel": 3,
      "note": 61,
      "start": 30.7884,
      "duration": 0.1981,
      "velocity": 106,
      "chip": "ym2612"
    },
    {
      "channel": 5,
      "note": 39,
      "start": 30.7887,
      "duration": 0.0992,
      "velocity": 97,
      "chip": "ym2612"
    },
    {
      "channel": 1,
      "note": 76,
      "start": 30.887,
      "duration": 0.1985,
      "velocity": 105,
      "chip": "ym2612"
    },
    {
      "channel": 4,
      "note": 64,
      "start": 30.8873,
      "duration": 0.1985,
      "velocity": 106,
      "chip": "ym2612"
    },
    {
      "channel": 5,
      "note": 37,
      "start": 30.888,
      "duration": 0.0988,
      "velocity": 97,
      "chip": "ym2612"
    },
    {
      "channel": 0,
      "note": 76,
      "start": 30.9863,
      "duration": 0.1985,
      "velocity": 105,
      "chip": "ym2612"
    },
    {
      "channel": 3,
      "note": 64,
      "start": 30.9866,
      "duration": 0.1985,
      "velocity": 106,
      "chip": "ym2612"
    },
    {
      "channel": 5,
      "note": 43,
      "start": 30.9869,
      "duration": 0.0992,
      "velocity": 97,
      "chip": "ym2612"
    },
    {
      "channel": 1,
      "note": 73,
      "start": 31.0856,
      "duration": 0.1985,
      "velocity": 105,
      "chip": "ym2612"
    },
    {
      "channel": 4,
      "note": 61,
      "start": 31.0859,
      "duration": 0.1985,
      "velocity": 106,
      "chip": "ym2612"
    },
    {
      "channel": 5,
      "note": 34,
      "start": 31.0862,
      "duration": 0.0993,
      "velocity": 97,
      "chip": "ym2612"
    },
    {
      "channel": 0,
      "note": 73,
      "start": 31.1849,
      "duration": 0.1985,
      "velocity": 105,
      "chip": "ym2612"
    },
    {
      "channel": 3,
      "note": 61,
      "start": 31.1853,
      "duration": 0.1985,
      "velocity": 106,
      "chip": "ym2612"
    },
    {
      "channel": 5,
      "note": 41,
      "start": 31.1856,
      "duration": 0.0992,
      "velocity": 97,
      "chip": "ym2612"
    },
    {
      "channel": 1,
      "note": 76,
      "start": 31.2842,
      "duration": 0.1985,
      "velocity": 105,
      "chip": "ym2612"
    },
    {
      "channel": 4,
      "note": 64,
      "start": 31.2846,
      "duration": 0.1985,
      "velocity": 106,
      "chip": "ym2612"
    },
    {
      "channel": 5,
      "note": 36,
      "start": 31.2849,
      "duration": 0.0992,
      "velocity": 97,
      "chip": "ym2612"
    },
    {
      "channel": 0,
      "note": 76,
      "start": 31.3835,
      "duration": 0.1985,
      "velocity": 105,
      "chip": "ym2612"
    },
    {
      "channel": 3,
      "note": 64,
      "start": 31.3839,
      "duration": 0.1985,
      "velocity": 106,
      "chip": "ym2612"
    },
    {
      "channel": 5,
      "note": 39,
      "start": 31.3842,
      "duration": 0.0992,
      "velocity": 97,
      "chip": "ym2612"
    },
    {
      "channel": 1,
      "note": 73,
      "start": 31.4829,
      "duration": 0.1985,
      "velocity": 105,
      "chip": "ym2612"
    },
    {
      "channel": 4,
      "note": 61,
      "start": 31.4832,
      "duration": 0.1985,
      "velocity": 106,
      "chip": "ym2612"
    },
    {
      "channel": 5,
      "note": 37,
      "start": 31.4835,
      "duration": 0.0992,
      "velocity": 97,
      "chip": "ym2612"
    },
    {
      "channel": 0,
      "note": 73,
      "start": 31.5822,
      "duration": 0.1985,
      "velocity": 105,
      "chip": "ym2612"
    },
    {
      "channel": 3,
      "note": 61,
      "start": 31.5825,
      "duration": 0.1989,
      "velocity": 106,
      "chip": "ym2612"
    },
    {
      "channel": 5,
      "note": 43,
      "start": 31.5829,
      "duration": 0.0992,
      "velocity": 97,
      "chip": "ym2612"
    },
    {
      "channel": 1,
      "note": 76,
      "start": 31.6815,
      "duration": 0.1985,
      "velocity": 105,
      "chip": "ym2612"
    },
    {
      "channel": 4,
      "note": 64,
      "start": 31.6818,
      "duration": 0.1985,
      "velocity": 106,
      "chip": "ym2612"
    },
    {
      "channel": 5,
      "note": 34,
      "start": 31.6822,
      "duration": 0.1008,
      "velocity": 86,
      "chip": "ym2612"
    },
    {
      "channel": 0,
      "note": 63,
      "start": 31.7808,
      "duration": 0.1985,
      "velocity": 105,
      "chip": "ym2612"
    },
    {
      "channel": 2,
      "note": 51,
      "start": 31.7812,
      "duration": 0.5957,
      "velocity": 105,
      "chip": "ym2612"
    },
    {
      "channel": 3,
      "note": 63,
      "start": 31.7815,
      "duration": 0.1981,
      "velocity": 106,
      "chip": "ym2612"
    },
    {
      "channel": 5,
      "note": 43,
      "start": 31.7832,
      "duration": 0.0975,
      "velocity": 86,
      "chip": "ym2612"
    },
    {
      "channel": 1,
      "note": 70,
      "start": 31.8801,
      "duration": 0.1985,
      "velocity": 105,
      "chip": "ym2612"
    },
    {
      "channel": 4,
      "note": 70,
      "start": 31.8805,
      "duration": 0.1985,
      "velocity": 106,
      "chip": "ym2612"
    },
    {
      "channel": 5,
      "note": 34,
      "start": 31.8808,
      "duration": 0.0992,
      "velocity": 86,
      "chip": "ym2612"
    },
    {
      "channel": 0,
      "note": 75,
      "start": 31.9794,
      "duration": 0.1985,
      "velocity": 105,
      "chip": "ym2612"
    },
    {
      "channel": 3,
      "note": 75,
      "start": 31.9798,
      "duration": 0.1985,
      "velocity": 106,
      "chip": "ym2612"
    },
    {
      "channel": 5,
      "note": 41,
      "start": 31.9801,
      "duration": 0.0992,
      "velocity": 86,
      "chip": "ym2612"
    },
    {
      "channel": 1,
      "note": 63,
      "start": 32.0788,
      "duration": 0.1985,
      "velocity": 105,
      "chip": "ym2612"
    },
    {
      "channel": 4,
      "note": 63,
      "start": 32.0791,
      "duration": 0.1985,
      "velocity": 106,
      "chip": "ym2612"
    },
    {
      "channel": 5,
      "note": 36,
      "start": 32.0794,
      "duration": 0.0992,
      "velocity": 86,
      "chip": "ym2612"
    },
    {
      "channel": 0,
      "note": 70,
      "start": 32.1781,
      "duration": 0.1985,
      "velocity": 105,
      "chip": "ym2612"
    },
    {
      "channel": 3,
      "note": 70,
      "start": 32.1784,
      "duration": 0.1989,
      "velocity": 106,
      "chip": "ym2612"
    },
    {
      "channel": 5,
      "note": 39,
      "start": 32.1787,
      "duration": 0.0992,
      "velocity": 86,
      "chip": "ym2612"
    },
    {
      "channel": 1,
      "note": 75,
      "start": 32.2774,
      "duration": 0.1985,
      "velocity": 105,
      "chip": "ym2612"
    },
    {
      "channel": 4,
      "note": 75,
      "start": 32.2777,
      "duration": 0.1985,
      "velocity": 106,
      "chip": "ym2612"
    },
    {
      "channel": 5,
      "note": 37,
      "start": 32.278,
      "duration": 0.0996,
      "velocity": 86,
      "chip": "ym2612"
    },
    {
      "channel": 0,
      "note": 63,
      "start": 32.3767,
      "duration": 0.1985,
      "velocity": 105,
      "chip": "ym2612"
    },
    {
      "channel": 2,
      "note": 51,
      "start": 32.3771,
      "duration": 0.5957,
      "velocity": 105,
      "chip": "ym2612"
    },
    {
      "channel": 3,
      "note": 63,
      "start": 32.3774,
      "duration": 0.1982,
      "velocity": 106,
      "chip": "ym2612"
    },
    {
      "channel": 5,
      "note": 43,
      "start": 32.3777,
      "duration": 0.0989,
      "velocity": 86,
      "chip": "ym2612"
    },
    {
      "channel": 1,
      "note": 70,
      "start": 32.476,
      "duration": 0.1985,
      "velocity": 105,
      "chip": "ym2612"
    },
    {
      "channel": 4,
      "note": 70,
      "start": 32.4763,
      "duration": 0.1985,
      "velocity": 106,
      "chip": "ym2612"
    },
    {
      "channel": 5,
      "note": 34,
      "start": 32.4767,
      "duration": 0.0992,
      "velocity": 86,
      "chip": "ym2612"
    },
    {
      "channel": 0,
      "note": 73,
      "start": 32.5753,
      "duration": 0.1985,
      "velocity": 105,
      "chip": "ym2612"
    },
    {
      "channel": 3,
      "note": 73,
      "start": 32.5757,
      "duration": 0.1985,
      "velocity": 106,
      "chip": "ym2612"
    },
    {
      "channel": 5,
      "note": 41,
      "start": 32.576,
      "duration": 0.0992,
      "velocity": 86,
      "chip": "ym2612"
    },
    {
      "channel": 1,
      "note": 63,
      "start": 32.6746,
      "duration": 0.1985,
      "velocity": 105,
      "chip": "ym2612"
    },
    {
      "channel": 4,
      "note": 63,
      "start": 32.675,
      "duration": 0.1985,
      "velocity": 106,
      "chip": "ym2612"
    },
    {
      "channel": 5,
      "note": 36,
      "start": 32.6753,
      "duration": 0.0992,
      "velocity": 86,
      "chip": "ym2612"
    },
    {
      "channel": 0,
      "note": 70,
      "start": 32.7739,
      "duration": 0.1985,
      "velocity": 105,
      "chip": "ym2612"
    },
    {
      "channel": 3,
      "note": 70,
      "start": 32.7743,
      "duration": 0.1988,
      "velocity": 106,
      "chip": "ym2612"
    },
    {
      "channel": 5,
      "note": 39,
      "start": 32.7746,
      "duration": 0.0992,
      "velocity": 86,
      "chip": "ym2612"
    },
    {
      "channel": 1,
      "note": 73,
      "start": 32.8733,
      "duration": 0.1985,
      "velocity": 105,
      "chip": "ym2612"
    },
    {
      "channel": 4,
      "note": 73,
      "start": 32.8736,
      "duration": 0.1985,
      "velocity": 106,
      "chip": "ym2612"
    },
    {
      "channel": 5,
      "note": 37,
      "start": 32.8739,
      "duration": 0.0995,
      "velocity": 86,
      "chip": "ym2612"
    },
    {
      "channel": 0,
      "note": 63,
      "start": 32.9726,
      "duration": 0.1988,
      "velocity": 105,
      "chip": "ym2612"
    },
    {
      "channel": 2,
      "note": 51,
      "start": 32.9729,
      "duration": 0.5957,
      "velocity": 105,
      "chip": "ym2612"
    },
    {
      "channel": 3,
      "note": 63,
      "start": 32.9732,
      "duration": 0.1986,
      "velocity": 106,
      "chip": "ym2612"
    },
    {
      "channel": 5,
      "note": 43,
      "start": 32.9736,
      "duration": 0.0988,
      "velocity": 86,
      "chip": "ym2612"
    },
    {
      "channel": 1,
      "note": 70,
      "start": 33.0719,
      "duration": 0.1985,
      "velocity": 105,
      "chip": "ym2612"
    },
    {
      "channel": 4,
      "note": 70,
      "start": 33.0722,
      "duration": 0.1989,
      "velocity": 106,
      "chip": "ym2612"
    },
    {
      "channel": 5,
      "note": 34,
      "start": 33.0725,
      "duration": 0.0996,
      "velocity": 86,
      "chip": "ym2612"
    },
    {
      "channel": 0,
      "note": 75,
      "start": 33.1717,
      "duration": 0.1981,
      "velocity": 105,
      "chip": "ym2612"
    },
    {
      "channel": 3,
      "note": 75,
      "start": 33.172,
      "duration": 0.1981,
      "velocity": 106,
      "chip": "ym2612"
    },
    {
      "channel": 5,
      "note": 41,
      "start": 33.1723,
      "duration": 0.0992,
      "velocity": 86,
      "chip": "ym2612"
    },
    {
      "channel": 1,
      "note": 63,
      "start": 33.2705,
      "duration": 0.1985,
      "velocity": 105,
      "chip": "ym2612"
    },
    {
      "channel": 4,
      "note": 63,
      "start": 33.2713,
      "duration": 0.1981,
      "velocity": 106,
      "chip": "ym2612"
    },
    {
      "channel": 5,
      "note": 36,
      "start": 33.2716,
      "duration": 0.0988,
      "velocity": 86,
      "chip": "ym2612"
    },
    {
      "channel": 0,
      "note": 70,
      "start": 33.3699,
      "duration": 0.1985,
      "velocity": 105,
      "chip": "ym2612"
    },
    {
      "channel": 3,
      "note": 70,
      "start": 33.3702,
      "duration": 0.1988,
      "velocity": 106,
      "chip": "ym2612"
    },
    {
      "channel": 5,
      "note": 39,
      "start": 33.3705,
      "duration": 0.0992,
      "velocity": 86,
      "chip": "ym2612"
    },
    {
      "channel": 1,
      "note": 75,
      "start": 33.4692,
      "duration": 0.1985,
      "velocity": 105,
      "chip": "ym2612"
    },
    {
      "channel": 4,
      "note": 75,
      "start": 33.4695,
      "duration": 0.1985,
      "velocity": 106,
      "chip": "ym2612"
    },
    {
      "channel": 5,
      "note": 37,
      "start": 33.4698,
      "duration": 0.0996,
      "velocity": 86,
      "chip": "ym2612"
    },
    {
      "channel": 0,
      "note": 63,
      "start": 33.5685,
      "duration": 0.1985,
      "velocity": 105,
      "chip": "ym2612"
    },
    {
      "channel": 2,
      "note": 51,
      "start": 33.5688,
      "duration": 1.3903,
      "velocity": 105,
      "chip": "ym2612"
    },
    {
      "channel": 3,
      "note": 63,
      "start": 33.5691,
      "duration": 0.1982,
      "velocity": 106,
      "chip": "ym2612"
    },
    {
      "channel": 5,
      "note": 43,
      "start": 33.5695,
      "duration": 0.0989,
      "velocity": 86,
      "chip": "ym2612"
    },
    {
      "channel": 1,
      "note": 70,
      "start": 33.6678,
      "duration": 0.1985,
      "velocity": 105,
      "chip": "ym2612"
    },
    {
      "channel": 4,
      "note": 70,
      "start": 33.6681,
      "duration": 0.1985,
      "velocity": 106,
      "chip": "ym2612"
    },
    {
      "channel": 5,
      "note": 34,
      "start": 33.6685,
      "duration": 0.0992,
      "velocity": 86,
      "chip": "ym2612"
    },
    {
      "channel": 0,
      "note": 73,
      "start": 33.7671,
      "duration": 0.1985,
      "velocity": 105,
      "chip": "ym2612"
    },
    {
      "channel": 3,
      "note": 73,
      "start": 33.7675,
      "duration": 0.1985,
      "velocity": 106,
      "chip": "ym2612"
    },
    {
      "channel": 5,
      "note": 41,
      "start": 33.7678,
      "duration": 0.0992,
      "velocity": 86,
      "chip": "ym2612"
    },
    {
      "channel": 1,
      "note": 63,
      "start": 33.8664,
      "duration": 0.1985,
      "velocity": 105,
      "chip": "ym2612"
    },
    {
      "channel": 4,
      "note": 63,
      "start": 33.8668,
      "duration": 0.1985,
      "velocity": 106,
      "chip": "ym2612"
    },
    {
      "channel": 5,
      "note": 36,
      "start": 33.8671,
      "duration": 0.0992,
      "velocity": 86,
      "chip": "ym2612"
    },
    {
      "channel": 0,
      "note": 70,
      "start": 33.9657,
      "duration": 0.1985,
      "velocity": 105,
      "chip": "ym2612"
    },
    {
      "channel": 3,
      "note": 70,
      "start": 33.9661,
      "duration": 0.1985,
      "velocity": 106,
      "chip": "ym2612"
    },
    {
      "channel": 5,
      "note": 39,
      "start": 33.9664,
      "duration": 0.0992,
      "velocity": 86,
      "chip": "ym2612"
    },
    {
      "channel": 1,
      "note": 73,
      "start": 34.065,
      "duration": 0.1985,
      "velocity": 105,
      "chip": "ym2612"
    },
    {
      "channel": 4,
      "note": 73,
      "start": 34.0654,
      "duration": 0.1985,
      "velocity": 106,
      "chip": "ym2612"
    },
    {
      "channel": 5,
      "note": 37,
      "start": 34.0657,
      "duration": 0.0992,
      "velocity": 86,
      "chip": "ym2612"
    },
    {
      "channel": 0,
      "note": 73,
      "start": 34.1644,
      "duration": 0.1985,
      "velocity": 105,
      "chip": "ym2612"
    },
    {
      "channel": 3,
      "note": 73,
      "start": 34.1647,
      "duration": 0.1985,
      "velocity": 106,
      "chip": "ym2612"
    },
    {
      "channel": 5,
      "note": 43,
      "start": 34.165,
      "duration": 0.0992,
      "velocity": 86,
      "chip": "ym2612"
    },
    {
      "channel": 1,
      "note": 70,
      "start": 34.2637,
      "duration": 0.1985,
      "velocity": 105,
      "chip": "ym2612"
    },
    {
      "channel": 4,
      "note": 70,
      "start": 34.264,
      "duration": 0.1985,
      "velocity": 106,
      "chip": "ym2612"
    },
    {
      "channel": 5,
      "note": 34,
      "start": 34.2643,
      "duration": 0.0992,
      "velocity": 86,
      "chip": "ym2612"
    },
    {
      "channel": 0,
      "note": 70,
      "start": 34.363,
      "duration": 0.1985,
      "velocity": 105,
      "chip": "ym2612"
    },
    {
      "channel": 3,
      "note": 70,
      "start": 34.3633,
      "duration": 0.1985,
      "velocity": 106,
      "chip": "ym2612"
    },
    {
      "channel": 5,
      "note": 41,
      "start": 34.3636,
      "duration": 0.0992,
      "velocity": 86,
      "chip": "ym2612"
    },
    {
      "channel": 1,
      "note": 73,
      "start": 34.4623,
      "duration": 0.1985,
      "velocity": 105,
      "chip": "ym2612"
    },
    {
      "channel": 4,
      "note": 73,
      "start": 34.4626,
      "duration": 0.1985,
      "velocity": 106,
      "chip": "ym2612"
    },
    {
      "channel": 5,
      "note": 36,
      "start": 34.4629,
      "duration": 0.0993,
      "velocity": 86,
      "chip": "ym2612"
    },
    {
      "channel": 0,
      "note": 73,
      "start": 34.5616,
      "duration": 0.1985,
      "velocity": 105,
      "chip": "ym2612"
    },
    {
      "channel": 3,
      "note": 73,
      "start": 34.5619,
      "duration": 0.1985,
      "velocity": 106,
      "chip": "ym2612"
    },
    {
      "channel": 5,
      "note": 39,
      "start": 34.5623,
      "duration": 0.0992,
      "velocity": 86,
      "chip": "ym2612"
    },
    {
      "channel": 1,
      "note": 70,
      "start": 34.661,
      "duration": 0.1985,
      "velocity": 105,
      "chip": "ym2612"
    },
    {
      "channel": 4,
      "note": 70,
      "start": 34.6613,
      "duration": 0.1985,
      "velocity": 106,
      "chip": "ym2612"
    },
    {
      "channel": 5,
      "note": 37,
      "start": 34.6616,
      "duration": 0.0992,
      "velocity": 86,
      "chip": "ym2612"
    },
    {
      "channel": 0,
      "note": 70,
      "start": 34.7603,
      "duration": 0.1985,
      "velocity": 105,
      "chip": "ym2612"
    },
    {
      "channel": 3,
      "note": 70,
      "start": 34.7606,
      "duration": 0.1988,
      "velocity": 106,
      "chip": "ym2612"
    },
    {
      "channel": 5,
      "note": 43,
      "start": 34.7609,
      "duration": 0.0992,
      "velocity": 86,
      "chip": "ym2612"
    },
    {
      "channel": 1,
      "note": 73,
      "start": 34.8596,
      "duration": 0.1985,
      "velocity": 105,
      "chip": "ym2612"
    },
    {
      "channel": 4,
      "note": 73,
      "start": 34.8599,
      "duration": 0.1985,
      "velocity": 106,
      "chip": "ym2612"
    },
    {
      "channel": 5,
      "note": 34,
      "start": 34.8602,
      "duration": 0.0996,
      "velocity": 86,
      "chip": "ym2612"
    },
    {
      "channel": 0,
      "note": 63,
      "start": 34.9589,
      "duration": 0.1985,
      "velocity": 105,
      "chip": "ym2612"
    },
    {
      "channel": 2,
      "note": 51,
      "start": 34.9593,
      "duration": 0.5961,
      "velocity": 105,
      "chip": "ym2612"
    },
    {
      "channel": 3,
      "note": 63,
      "start": 34.9596,
      "duration": 0.1981,
      "velocity": 106,
      "chip": "ym2612"
    },
    {
      "channel": 5,
      "note": 43,
      "start": 34.96,
      "duration": 0.0988,
      "velocity": 86,
      "chip": "ym2612"
    },
    {
      "channel": 1,
      "note": 70,
      "start": 35.0582,
      "duration": 0.1985,
      "velocity": 105,
      "chip": "ym2612"
    },
    {
      "channel": 4,
      "note": 70,
      "start": 35.0585,
      "duration": 0.1985,
      "velocity": 106,
      "chip": "ym2612"
    },
    {
      "channel": 5,
      "note": 34,
      "start": 35.0589,
      "duration": 0.0992,
      "velocity": 86,
      "chip": "ym2612"
    },
    {
      "channel": 0,
      "note": 75,
      "start": 35.1575,
      "duration": 0.1985,
      "velocity": 105,
      "chip": "ym2612"
    },
    {
      "channel": 3,
      "note": 75,
      "start": 35.1578,
      "duration": 0.1985,
      "velocity": 106,
      "chip": "ym2612"
    },
    {
      "channel": 5,
      "note": 41,
      "start": 35.1582,
      "duration": 0.0992,
      "velocity": 86,
      "chip": "ym2612"
    },
    {
      "channel": 1,
      "note": 63,
      "start": 35.2568,
      "duration": 0.1985,
      "velocity": 105,
      "chip": "ym2612"
    },
    {
      "channel": 4,
      "note": 63,
      "start": 35.2571,
      "duration": 0.1985,
      "velocity": 106,
      "chip": "ym2612"
    },
    {
      "channel": 5,
      "note": 36,
      "start": 35.2575,
      "duration": 0.0992,
      "velocity": 86,
      "chip": "ym2612"
    },
    {
      "channel": 0,
      "note": 70,
      "start": 35.3561,
      "duration": 0.1989,
      "velocity": 105,
      "chip": "ym2612"
    },
    {
      "channel": 3,
      "note": 70,
      "start": 35.3564,
      "duration": 0.1993,
      "velocity": 106,
      "chip": "ym2612"
    },
    {
      "channel": 5,
      "note": 39,
      "start": 35.3568,
      "duration": 0.0993,
      "velocity": 86,
      "chip": "ym2612"
    },
    {
      "channel": 1,
      "note": 75,
      "start": 35.4555,
      "duration": 0.1985,
      "velocity": 105,
      "chip": "ym2612"
    },
    {
      "channel": 4,
      "note": 75,
      "start": 35.4558,
      "duration": 0.1989,
      "velocity": 106,
      "chip": "ym2612"
    },
    {
      "channel": 5,
      "note": 37,
      "start": 35.4561,
      "duration": 0.0999,
      "velocity": 86,
      "chip": "ym2612"
    },
    {
      "channel": 0,
      "note": 63,
      "start": 35.5552,
      "duration": 0.1981,
      "velocity": 105,
      "chip": "ym2612"
    },
    {
      "channel": 2,
      "note": 51,
      "start": 35.5555,
      "duration": 0.5968,
      "velocity": 105,
      "chip": "ym2612"
    },
    {
      "channel": 3,
      "note": 63,
      "start": 35.5558,
      "duration": 0.1978,
      "velocity": 106,
      "chip": "ym2612"
    },
    {
      "channel": 5,
      "note": 43,
      "start": 35.5561,
      "duration": 0.0989,
      "velocity": 86,
      "chip": "ym2612"
    },
    {
      "channel": 1,
      "note": 70,
      "start": 35.6545,
      "duration": 0.1981,
      "velocity": 105,
      "chip": "ym2612"
    },
    {
      "channel": 4,
      "note": 70,
      "start": 35.6548,
      "duration": 0.1981,
      "velocity": 106,
      "chip": "ym2612"
    },
    {
      "channel": 5,
      "note": 34,
      "start": 35.6552,
      "duration": 0.0987,
      "velocity": 86,
      "chip": "ym2612"
    },
    {
      "channel": 0,
      "note": 73,
      "start": 35.7534,
      "duration": 0.1985,
      "velocity": 105,
      "chip": "ym2612"
    },
    {
      "channel": 3,
      "note": 73,
      "start": 35.7537,
      "duration": 0.1985,
      "velocity": 106,
      "chip": "ym2612"
    },
    {
      "channel": 5,
      "note": 41,
      "start": 35.7545,
      "duration": 0.0988,
      "velocity": 86,
      "chip": "ym2612"
    },
    {
      "channel": 1,
      "note": 63,
      "start": 35.8527,
      "duration": 0.1985,
      "velocity": 105,
      "chip": "ym2612"
    },
    {
      "channel": 4,
      "note": 63,
      "start": 35.853,
      "duration": 0.1985,
      "velocity": 106,
      "chip": "ym2612"
    },
    {
      "channel": 5,
      "note": 36,
      "start": 35.8534,
      "duration": 0.0992,
      "velocity": 86,
      "chip": "ym2612"
    },
    {
      "channel": 0,
      "note": 70,
      "start": 35.9521,
      "duration": 0.1999,
      "velocity": 121,
      "chip": "ym2612"
    },
    {
      "channel": 3,
      "note": 70,
      "start": 35.9524,
      "duration": 0.2002,
      "velocity": 106,
      "chip": "ym2612"
    },
    {
      "channel": 5,
      "note": 39,
      "start": 35.9527,
      "duration": 0.0992,
      "velocity": 86,
      "chip": "ym2612"
    },
    {
      "channel": 1,
      "note": 73,
      "start": 36.0514,
      "duration": 0.1985,
      "velocity": 105,
      "chip": "ym2612"
    },
    {
      "channel": 4,
      "note": 73,
      "start": 36.0517,
      "duration": 0.1985,
      "velocity": 106,
      "chip": "ym2612"
    },
    {
      "channel": 5,
      "note": 37,
      "start": 36.052,
      "duration": 0.1009,
      "velocity": 86,
      "chip": "ym2612"
    },
    {
      "channel": 0,
      "note": 39,
      "start": 36.1521,
      "duration": 1.9865,
      "velocity": 106,
      "chip": "ym2612"
    },
    {
      "channel": 2,
      "note": 51,
      "start": 36.1524,
      "duration": 1.9878,
      "velocity": 97,
      "chip": "ym2612"
    },
    {
      "channel": 3,
      "note": 63,
      "start": 36.1527,
      "duration": 0.1964,
      "velocity": 106,
      "chip": "ym2612"
    },
    {
      "channel": 5,
      "note": 43,
      "start": 36.153,
      "duration": 0.0975,
      "velocity": 86,
      "chip": "ym2612"
    },
    {
      "channel": 1,
      "note": 70,
      "start": 36.25,
      "duration": 1.9879,
      "velocity": 106,
      "chip": "ym2612"
    },
    {
      "channel": 4,
      "note": 70,
      "start": 36.2503,
      "duration": 0.1982,
      "velocity": 106,
      "chip": "ym2612"
    },
    {
      "channel": 5,
      "note": 34,
      "start": 36.2507,
      "duration": 0.0989,
      "velocity": 86,
      "chip": "ym2612"
    },
    {
      "channel": 3,
      "note": 75,
      "start": 36.3493,
      "duration": 0.1985,
      "velocity": 106,
      "chip": "ym2612"
    },
    {
      "channel": 5,
      "note": 41,
      "start": 36.3496,
      "duration": 0.0992,
      "velocity": 86,
      "chip": "ym2612"
    },
    {
      "channel": 4,
      "note": 63,
      "start": 36.4486,
      "duration": 0.1985,
      "velocity": 106,
      "chip": "ym2612"
    },
    {
      "channel": 5,
      "note": 36,
      "start": 36.4489,
      "duration": 0.0992,
      "velocity": 86,
      "chip": "ym2612"
    },
    {
      "channel": 3,
      "note": 70,
      "start": 36.5479,
      "duration": 0.3971,
      "velocity": 106,
      "chip": "ym2612"
    },
    {
      "channel": 5,
      "note": 39,
      "start": 36.5482,
      "duration": 0.0992,
      "velocity": 86,
      "chip": "ym2612"
    },
    {
      "channel": 4,
      "note": 75,
      "start": 36.6472,
      "duration": 0.1985,
      "velocity": 106,
      "chip": "ym2612"
    },
    {
      "channel": 5,
      "note": 37,
      "start": 36.6476,
      "duration": 0.0988,
      "velocity": 86,
      "chip": "ym2612"
    },
    {
      "channel": 5,
      "note": 43,
      "start": 36.7465,
      "duration": 0.0995,
      "velocity": 86,
      "chip": "ym2612"
    },
    {
      "channel": 4,
      "note": 70,
      "start": 36.8459,
      "duration": 0.3971,
      "velocity": 106,
      "chip": "ym2612"
    },
    {
      "channel": 5,
      "note": 34,
      "start": 36.8462,
      "duration": 0.0992,
      "velocity": 86,
      "chip": "ym2612"
    },
    {
      "channel": 3,
      "note": 73,
      "start": 36.9452,
      "duration": 0.1985,
      "velocity": 106,
      "chip": "ym2612"
    },
    {
      "channel": 5,
      "note": 41,
      "start": 36.9455,
      "duration": 0.0988,
      "velocity": 86,
      "chip": "ym2612"
    },
    {
      "channel": 5,
      "note": 36,
      "start": 37.0445,
      "duration": 0.0995,
      "velocity": 86,
      "chip": "ym2612"
    },
    {
      "channel": 3,
      "note": 70,
      "start": 37.1438,
      "duration": 0.1985,
      "velocity": 106,
      "chip": "ym2612"
    },
    {
      "channel": 5,
      "note": 39,
      "start": 37.1442,
      "duration": 0.0992,
      "velocity": 86,
      "chip": "ym2612"
    },
    {
      "channel": 4,
      "note": 73,
      "start": 37.2432,
      "duration": 0.1985,
      "velocity": 106,
      "chip": "ym2612"
    },
    {
      "channel": 5,
      "note": 37,
      "start": 37.2435,
      "duration": 0.0992,
      "velocity": 86,
      "chip": "ym2612"
    },
    {
      "channel": 3,
      "note": 73,
      "start": 37.3424,
      "duration": 0.1985,
      "velocity": 106,
      "chip": "ym2612"
    },
    {
      "channel": 5,
      "note": 43,
      "start": 37.3428,
      "duration": 0.0992,
      "velocity": 86,
      "chip": "ym2612"
    },
    {
      "channel": 4,
      "note": 70,
      "start": 37.4417,
      "duration": 0.1985,
      "velocity": 106,
      "chip": "ym2612"
    },
    {
      "channel": 5,
      "note": 34,
      "start": 37.4421,
      "duration": 0.0992,
      "velocity": 86,
      "chip": "ym2612"
    },
    {
      "channel": 3,
      "note": 70,
      "start": 37.541,
      "duration": 0.1985,
      "velocity": 106,
      "chip": "ym2612"
    },
    {
      "channel": 5,
      "note": 41,
      "start": 37.5414,
      "duration": 0.0993,
      "velocity": 86,
      "chip": "ym2612"
    },
    {
      "channel": 4,
      "note": 73,
      "start": 37.6404,
      "duration": 0.1985,
      "velocity": 106,
      "chip": "ym2612"
    },
    {
      "channel": 5,
      "note": 36,
      "start": 37.6407,
      "duration": 0.0992,
      "velocity": 86,
      "chip": "ym2612"
    },
    {
      "channel": 3,
      "note": 73,
      "start": 37.7397,
      "duration": 0.1987,
      "velocity": 106,
      "chip": "ym2612"
    },
    {
      "channel": 5,
      "note": 39,
      "start": 37.74,
      "duration": 0.0992,
      "velocity": 86,
      "chip": "ym2612"
    },
    {
      "channel": 4,
      "note": 70,
      "start": 37.839,
      "duration": 0.1989,
      "velocity": 106,
      "chip": "ym2612"
    },
    {
      "channel": 5,
      "note": 37,
      "start": 37.8393,
      "duration": 0.0994,
      "velocity": 86,
      "chip": "ym2612"
    },
    {
      "channel": 3,
      "note": 70,
      "start": 37.9385,
      "duration": 0.2034,
      "velocity": 105,
      "chip": "ym2612"
    },
    {
      "channel": 5,
      "note": 43,
      "start": 37.9388,
      "duration": 0.0994,
      "velocity": 86,
      "chip": "ym2612"
    },
    {
      "channel": 4,
      "note": 73,
      "start": 38.0381,
      "duration": 0.1055,
      "velocity": 105,
      "chip": "ym2612"
    },
    {
      "channel": 5,
      "note": 34,
      "start": 38.0384,
      "duration": 25.5268,
      "velocity": 105,
      "chip": "ym2612"
    },
    {
      "channel": 0,
      "note": 63,
      "start": 38.1387,
      "duration": 0.1968,
      "velocity": 106,
      "chip": "ym2612"
    },
    {
      "channel": 2,
      "note": 43,
      "start": 38.1403,
      "duration": 0.0979,
      "velocity": 97,
      "chip": "ym2612"
    },
    {
      "channel": 3,
      "note": 51,
      "start": 38.142,
      "duration": 3.1737,
      "velocity": 105,
      "chip": "ym2612"
    },
    {
      "channel": 4,
      "note": 51,
      "start": 38.1437,
      "duration": 3.1724,
      "velocity": 105,
      "chip": "ym2612"
    },
    {
      "channel": 1,
      "note": 70,
      "start": 38.238,
      "duration": 0.1968,
      "velocity": 106,
      "chip": "ym2612"
    },
    {
      "channel": 2,
      "note": 34,
      "start": 38.2383,
      "duration": 0.0975,
      "velocity": 97,
      "chip": "ym2612"
    },
    {
      "channel": 0,
      "note": 75,
      "start": 38.3356,
      "duration": 0.1985,
      "velocity": 106,
      "chip": "ym2612"
    },
    {
      "channel": 2,
      "note": 41,
      "start": 38.3359,
      "duration": 0.0993,
      "velocity": 97,
      "chip": "ym2612"
    },
    {
      "channel": 1,
      "note": 63,
      "start": 38.4349,
      "duration": 0.1985,
      "velocity": 106,
      "chip": "ym2612"
    },
    {
      "channel": 2,
      "note": 36,
      "start": 38.4353,
      "duration": 0.0992,
      "velocity": 97,
      "chip": "ym2612"
    },
    {
      "channel": 0,
      "note": 70,
      "start": 38.5342,
      "duration": 0.1985,
      "velocity": 106,
      "chip": "ym2612"
    },
    {
      "channel": 2,
      "note": 39,
      "start": 38.5346,
      "duration": 0.0992,
      "velocity": 97,
      "chip": "ym2612"
    },
    {
      "channel": 1,
      "note": 75,
      "start": 38.6335,
      "duration": 0.1985,
      "velocity": 106,
      "chip": "ym2612"
    },
    {
      "channel": 2,
      "note": 37,
      "start": 38.6339,
      "duration": 0.0992,
      "velocity": 97,
      "chip": "ym2612"
    },
    {
      "channel": 0,
      "note": 63,
      "start": 38.7329,
      "duration": 0.1985,
      "velocity": 106,
      "chip": "ym2612"
    },
    {
      "channel": 2,
      "note": 43,
      "start": 38.7332,
      "duration": 0.0992,
      "velocity": 97,
      "chip": "ym2612"
    },
    {
      "channel": 1,
      "note": 70,
      "start": 38.8322,
      "duration": 0.1985,
      "velocity": 106,
      "chip": "ym2612"
    },
    {
      "channel": 2,
      "note": 34,
      "start": 38.8325,
      "duration": 0.0992,
      "velocity": 97,
      "chip": "ym2612"
    },
    {
      "channel": 0,
      "note": 73,
      "start": 38.9315,
      "duration": 0.1985,
      "velocity": 106,
      "chip": "ym2612"
    },
    {
      "channel": 2,
      "note": 41,
      "start": 38.9318,
      "duration": 0.0992,
      "velocity": 97,
      "chip": "ym2612"
    },
    {
      "channel": 1,
      "note": 63,
      "start": 39.0308,
      "duration": 0.1985,
      "velocity": 106,
      "chip": "ym2612"
    },
    {
      "channel": 2,
      "note": 36,
      "start": 39.0311,
      "duration": 0.0992,
      "velocity": 97,
      "chip": "ym2612"
    },
    {
      "channel": 0,
      "note": 70,
      "start": 39.1301,
      "duration": 0.1985,
      "velocity": 106,
      "chip": "ym2612"
    },
    {
      "channel": 2,
      "note": 39,
      "start": 39.1304,
      "duration": 0.0992,
      "velocity": 97,
      "chip": "ym2612"
    },
    {
      "channel": 1,
      "note": 73,
      "start": 39.2294,
      "duration": 0.1985,
      "velocity": 106,
      "chip": "ym2612"
    },
    {
      "channel": 2,
      "note": 37,
      "start": 39.2298,
      "duration": 0.0992,
      "velocity": 97,
      "chip": "ym2612"
    },
    {
      "channel": 0,
      "note": 63,
      "start": 39.3287,
      "duration": 0.1985,
      "velocity": 106,
      "chip": "ym2612"
    },
    {
      "channel": 2,
      "note": 43,
      "start": 39.3291,
      "duration": 0.0992,
      "velocity": 97,
      "chip": "ym2612"
    },
    {
      "channel": 1,
      "note": 70,
      "start": 39.4281,
      "duration": 0.1985,
      "velocity": 106,
      "chip": "ym2612"
    },
    {
      "channel": 2,
      "note": 34,
      "start": 39.4284,
      "duration": 0.0992,
      "velocity": 97,
      "chip": "ym2612"
    },
    {
      "channel": 0,
      "note": 75,
      "start": 39.5274,
      "duration": 0.1985,
      "velocity": 106,
      "chip": "ym2612"
    },
    {
      "channel": 2,
      "note": 41,
      "start": 39.5277,
      "duration": 0.0992,
      "velocity": 97,
      "chip": "ym2612"
    },
    {
      "channel": 1,
      "note": 63,
      "start": 39.6267,
      "duration": 0.1985,
      "velocity": 106,
      "chip": "ym2612"
    },
    {
      "channel": 2,
      "note": 36,
      "start": 39.627,
      "duration": 0.0993,
      "velocity": 97,
      "chip": "ym2612"
    },
    {
      "channel": 0,
      "note": 70,
      "start": 39.726,
      "duration": 0.1985,
      "velocity": 106,
      "chip": "ym2612"
    },
    {
      "channel": 2,
      "note": 39,
      "start": 39.7263,
      "duration": 0.0992,
      "velocity": 97,
      "chip": "ym2612"
    },
    {
      "channel": 1,
      "note": 75,
      "start": 39.8253,
      "duration": 0.1985,
      "velocity": 106,
      "chip": "ym2612"
    },
    {
      "channel": 2,
      "note": 37,
      "start": 39.8257,
      "duration": 0.0992,
      "velocity": 97,
      "chip": "ym2612"
    },
    {
      "channel": 0,
      "note": 63,
      "start": 39.9246,
      "duration": 0.1985,
      "velocity": 106,
      "chip": "ym2612"
    },
    {
      "channel": 2,
      "note": 43,
      "start": 39.925,
      "duration": 0.0992,
      "velocity": 97,
      "chip": "ym2612"
    },
    {
      "channel": 1,
      "note": 70,
      "start": 40.0239,
      "duration": 0.1985,
      "velocity": 106,
      "chip": "ym2612"
    },
    {
      "channel": 2,
      "note": 34,
      "start": 40.0243,
      "duration": 0.0992,
      "velocity": 97,
      "chip": "ym2612"
    },
    {
      "channel": 0,
      "note": 73,
      "start": 40.1232,
      "duration": 0.1985,
      "velocity": 106,
      "chip": "ym2612"
    },
    {
      "channel": 2,
      "note": 41,
      "start": 40.1236,
      "duration": 0.0992,
      "velocity": 97,
      "chip": "ym2612"
    },
    {
      "channel": 1,
      "note": 63,
      "start": 40.2226,
      "duration": 0.1988,
      "velocity": 106,
      "chip": "ym2612"
    },
    {
      "channel": 2,
      "note": 36,
      "start": 40.2229,
      "duration": 0.0992,
      "velocity": 97,
      "chip": "ym2612"
    },
    {
      "channel": 0,
      "note": 70,
      "start": 40.3219,
      "duration": 0.1985,
      "velocity": 106,
      "chip": "ym2612"
    },
    {
      "channel": 2,
      "note": 39,
      "start": 40.3222,
      "duration": 0.0996,
      "velocity": 97,
      "chip": "ym2612"
    },
    {
      "channel": 1,
      "note": 73,
      "start": 40.4216,
      "duration": 0.1981,
      "velocity": 106,
      "chip": "ym2612"
    },
    {
      "channel": 2,
      "note": 37,
      "start": 40.422,
      "duration": 0.0992,
      "velocity": 97,
      "chip": "ym2612"
    },
    {
      "channel": 0,
      "note": 73,
      "start": 40.5205,
      "duration": 0.1985,
      "velocity": 106,
      "chip": "ym2612"
    },
    {
      "channel": 2,
      "note": 43,
      "start": 40.5213,
      "duration": 0.0988,
      "velocity": 97,
      "chip": "ym2612"
    },
    {
      "channel": 1,
      "note": 70,
      "start": 40.6198,
      "duration": 0.1985,
      "velocity": 106,
      "chip": "ym2612"
    },
    {
      "channel": 2,
      "note": 34,
      "start": 40.6202,
      "duration": 0.0992,
      "velocity": 97,
      "chip": "ym2612"
    },
    {
      "channel": 0,
      "note": 70,
      "start": 40.7192,
      "duration": 0.1985,
      "velocity": 106,
      "chip": "ym2612"
    },
    {
      "channel": 2,
      "note": 41,
      "start": 40.7195,
      "duration": 0.0992,
      "velocity": 97,
      "chip": "ym2612"
    },
    {
      "channel": 1,
      "note": 73,
      "start": 40.8185,
      "duration": 0.1985,
      "velocity": 106,
      "chip": "ym2612"
    },
    {
      "channel": 2,
      "note": 36,
      "start": 40.8188,
      "duration": 0.0992,
      "velocity": 97,
      "chip": "ym2612"
    },
    {
      "channel": 0,
      "note": 73,
      "start": 40.9178,
      "duration": 0.1985,
      "velocity": 106,
      "chip": "ym2612"
    },
    {
      "channel": 2,
      "note": 39,
      "start": 40.9181,
      "duration": 0.0992,
      "velocity": 97,
      "chip": "ym2612"
    },
    {
      "channel": 1,
      "note": 70,
      "start": 41.0171,
      "duration": 0.1985,
      "velocity": 106,
      "chip": "ym2612"
    },
    {
      "channel": 2,
      "note": 37,
      "start": 41.0175,
      "duration": 0.0992,
      "velocity": 97,
      "chip": "ym2612"
    },
    {
      "channel": 0,
      "note": 70,
      "start": 41.1164,
      "duration": 0.1985,
      "velocity": 106,
      "chip": "ym2612"
    },
    {
      "channel": 2,
      "note": 43,
      "start": 41.1168,
      "duration": 0.0992,
      "velocity": 97,
      "chip": "ym2612"
    },
    {
      "channel": 1,
      "note": 73,
      "start": 41.2157,
      "duration": 0.1985,
      "velocity": 106,
      "chip": "ym2612"
    },
    {
      "channel": 2,
      "note": 34,
      "start": 41.2161,
      "duration": 0.0992,
      "velocity": 97,
      "chip": "ym2612"
    },
    {
      "channel": 0,
      "note": 63,
      "start": 41.3151,
      "duration": 0.1984,
      "velocity": 106,
      "chip": "ym2612"
    },
    {
      "channel": 2,
      "note": 43,
      "start": 41.3154,
      "duration": 0.0992,
      "velocity": 97,
      "chip": "ym2612"
    },
    {
      "channel": 3,
      "note": 51,
      "start": 41.3159,
      "duration": 3.1804,
      "velocity": 97,
      "chip": "ym2612"
    },
    {
      "channel": 4,
      "note": 51,
      "start": 41.3162,
      "duration": 6.3589,
      "velocity": 97,
      "chip": "ym2612"
    },
    {
      "channel": 1,
      "note": 70,
      "start": 41.4144,
      "duration": 0.1985,
      "velocity": 106,
      "chip": "ym2612"
    },
    {
      "channel": 2,
      "note": 34,
      "start": 41.4147,
      "duration": 0.0992,
      "velocity": 97,
      "chip": "ym2612"
    },
    {
      "channel": 0,
      "note": 75,
      "start": 41.5137,
      "duration": 0.1985,
      "velocity": 106,
      "chip": "ym2612"
    },
    {
      "channel": 2,
      "note": 41,
      "start": 41.514,
      "duration": 0.0992,
      "velocity": 97,
      "chip": "ym2612"
    },
    {
      "channel": 1,
      "note": 63,
      "start": 41.613,
      "duration": 0.1985,
      "velocity": 106,
      "chip": "ym2612"
    },
    {
      "channel": 2,
      "note": 36,
      "start": 41.6133,
      "duration": 0.0992,
      "velocity": 97,
      "chip": "ym2612"
    },
    {
      "channel": 0,
      "note": 70,
      "start": 41.7123,
      "duration": 0.1985,
      "velocity": 106,
      "chip": "ym2612"
    },
    {
      "channel": 2,
      "note": 39,
      "start": 41.7126,
      "duration": 0.0993,
      "velocity": 97,
      "chip": "ym2612"
    },
    {
      "channel": 1,
      "note": 75,
      "start": 41.8116,
      "duration": 0.1985,
      "velocity": 106,
      "chip": "ym2612"
    },
    {
      "channel": 2,
      "note": 37,
      "start": 41.812,
      "duration": 0.0992,
      "velocity": 97,
      "chip": "ym2612"
    },
    {
      "channel": 0,
      "note": 63,
      "start": 41.911,
      "duration": 0.1985,
      "velocity": 106,
      "chip": "ym2612"
    },
    {
      "channel": 2,
      "note": 43,
      "start": 41.9113,
      "duration": 0.0992,
      "velocity": 97,
      "chip": "ym2612"
    },
    {
      "channel": 1,
      "note": 70,
      "start": 42.0103,
      "duration": 0.1985,
      "velocity": 106,
      "chip": "ym2612"
    },
    {
      "channel": 2,
      "note": 34,
      "start": 42.0106,
      "duration": 0.0992,
      "velocity": 97,
      "chip": "ym2612"
    },
    {
      "channel": 0,
      "note": 73,
      "start": 42.1096,
      "duration": 0.1985,
      "velocity": 106,
      "chip": "ym2612"
    },
    {
      "channel": 2,
      "note": 41,
      "start": 42.1099,
      "duration": 0.0992,
      "velocity": 97,
      "chip": "ym2612"
    },
    {
      "channel": 1,
      "note": 63,
      "start": 42.2089,
      "duration": 0.1985,
      "velocity": 106,
      "chip": "ym2612"
    },
    {
      "channel": 2,
      "note": 36,
      "start": 42.2092,
      "duration": 0.0992,
      "velocity": 97,
      "chip": "ym2612"
    },
    {
      "channel": 0,
      "note": 70,
      "start": 42.3082,
      "duration": 0.1985,
      "velocity": 106,
      "chip": "ym2612"
    },
    {
      "channel": 2,
      "note": 39,
      "start": 42.3085,
      "duration": 0.0992,
      "velocity": 97,
      "chip": "ym2612"
    },
    {
      "channel": 1,
      "note": 73,
      "start": 42.4075,
      "duration": 0.1985,
      "velocity": 106,
      "chip": "ym2612"
    },
    {
      "channel": 2,
      "note": 37,
      "start": 42.4078,
      "duration": 0.0992,
      "velocity": 97,
      "chip": "ym2612"
    },
    {
      "channel": 0,
      "note": 63,
      "start": 42.5068,
      "duration": 0.1985,
      "velocity": 106,
      "chip": "ym2612"
    },
    {
      "channel": 2,
      "note": 43,
      "start": 42.5071,
      "duration": 0.0992,
      "velocity": 97,
      "chip": "ym2612"
    },
    {
      "channel": 1,
      "note": 70,
      "start": 42.6061,
      "duration": 0.1989,
      "velocity": 106,
      "chip": "ym2612"
    },
    {
      "channel": 2,
      "note": 34,
      "start": 42.6064,
      "duration": 0.0993,
      "velocity": 97,
      "chip": "ym2612"
    },
    {
      "channel": 0,
      "note": 75,
      "start": 42.7054,
      "duration": 0.1985,
      "velocity": 106,
      "chip": "ym2612"
    },
    {
      "channel": 2,
      "note": 41,
      "start": 42.7058,
      "duration": 0.0996,
      "velocity": 97,
      "chip": "ym2612"
    },
    {
      "channel": 1,
      "note": 63,
      "start": 42.8052,
      "duration": 0.1981,
      "velocity": 106,
      "chip": "ym2612"
    },
    {
      "channel": 2,
      "note": 36,
      "start": 42.8055,
      "duration": 0.0992,
      "velocity": 97,
      "chip": "ym2612"
    },
    {
      "channel": 0,
      "note": 70,
      "start": 42.9045,
      "duration": 0.1981,
      "velocity": 106,
      "chip": "ym2612"
    },
    {
      "channel": 2,
      "note": 39,
      "start": 42.9048,
      "duration": 0.0988,
      "velocity": 97,
      "chip": "ym2612"
    },
    {
      "channel": 1,
      "note": 75,
      "start": 43.0034,
      "duration": 0.1985,
      "velocity": 106,
      "chip": "ym2612"
    },
    {
      "channel": 2,
      "note": 37,
      "start": 43.0037,
      "duration": 0.0992,
      "velocity": 97,
      "chip": "ym2612"
    },
    {
      "channel": 0,
      "note": 63,
      "start": 43.1027,
      "duration": 0.1985,
      "velocity": 106,
      "chip": "ym2612"
    },
    {
      "channel": 2,
      "note": 43,
      "start": 43.1031,
      "duration": 0.0992,
      "velocity": 97,
      "chip": "ym2612"
    },
    {
      "channel": 1,
      "note": 70,
      "start": 43.2021,
      "duration": 0.1985,
      "velocity": 106,
      "chip": "ym2612"
    },
    {
      "channel": 2,
      "note": 34,
      "start": 43.2024,
      "duration": 0.0992,
      "velocity": 97,
      "chip": "ym2612"
    },
    {
      "channel": 0,
      "note": 73,
      "start": 43.3014,
      "duration": 0.1985,
      "velocity": 106,
      "chip": "ym2612"
    },
    {
      "channel": 2,
      "note": 41,
      "start": 43.3017,
      "duration": 0.0992,
      "velocity": 97,
      "chip": "ym2612"
    },
    {
      "channel": 1,
      "note": 63,
      "start": 43.4007,
      "duration": 0.1985,
      "velocity": 106,
      "chip": "ym2612"
    },
    {
      "channel": 2,
      "note": 36,
      "start": 43.401,
      "duration": 0.0992,
      "velocity": 97,
      "chip": "ym2612"
    },
    {
      "channel": 0,
      "note": 70,
      "start": 43.5,
      "duration": 0.1985,
      "velocity": 106,
      "chip": "ym2612"
    },
    {
      "channel": 2,
      "note": 39,
      "start": 43.5003,
      "duration": 0.0993,
      "velocity": 97,
      "chip": "ym2612"
    },
    {
      "channel": 1,
      "note": 73,
      "start": 43.5993,
      "duration": 0.1985,
      "velocity": 106,
      "chip": "ym2612"
    },
    {
      "channel": 2,
      "note": 37,
      "start": 43.5996,
      "duration": 0.0992,
      "velocity": 97,
      "chip": "ym2612"
    },
    {
      "channel": 0,
      "note": 73,
      "start": 43.6986,
      "duration": 0.1985,
      "velocity": 106,
      "chip": "ym2612"
    },
    {
      "channel": 2,
      "note": 43,
      "start": 43.6989,
      "duration": 0.0992,
      "velocity": 97,
      "chip": "ym2612"
    },
    {
      "channel": 1,
      "note": 70,
      "start": 43.7979,
      "duration": 0.1985,
      "velocity": 106,
      "chip": "ym2612"
    },
    {
      "channel": 2,
      "note": 34,
      "start": 43.7982,
      "duration": 0.0992,
      "velocity": 97,
      "chip": "ym2612"
    },
    {
      "channel": 0,
      "note": 70,
      "start": 43.8972,
      "duration": 0.1985,
      "velocity": 106,
      "chip": "ym2612"
    },
    {
      "channel": 2,
      "note": 41,
      "start": 43.8976,
      "duration": 0.0992,
      "velocity": 97,
      "chip": "ym2612"
    },
    {
      "channel": 1,
      "note": 73,
      "start": 43.9965,
      "duration": 0.1985,
      "velocity": 106,
      "chip": "ym2612"
    },
    {
      "channel": 2,
      "note": 36,
      "start": 43.9969,
      "duration": 0.0992,
      "velocity": 97,
      "chip": "ym2612"
    },
    {
      "channel": 0,
      "note": 73,
      "start": 44.0959,
      "duration": 0.1985,
      "velocity": 106,
      "chip": "ym2612"
    },
    {
      "channel": 2,
      "note": 39,
      "start": 44.0962,
      "duration": 0.0992,
      "velocity": 97,
      "chip": "ym2612"
    },
    {
      "channel": 1,
      "note": 70,
      "start": 44.1952,
      "duration": 0.1985,
      "velocity": 106,
      "chip": "ym2612"
    },
    {
      "channel": 2,
      "note": 37,
      "start": 44.1955,
      "duration": 0.0992,
      "velocity": 97,
      "chip": "ym2612"
    },
    {
      "channel": 0,
      "note": 70,
      "start": 44.2945,
      "duration": 0.1985,
      "velocity": 106,
      "chip": "ym2612"
    },
    {
      "channel": 2,
      "note": 43,
      "start": 44.2948,
      "duration": 0.0992,
      "velocity": 97,
      "chip": "ym2612"
    },
    {
      "channel": 1,
      "note": 73,
      "start": 44.3938,
      "duration": 0.1985,
      "velocity": 106,
      "chip": "ym2612"
    },
    {
      "channel": 2,
      "note": 34,
      "start": 44.3942,
      "duration": 0.1005,
      "velocity": 106,
      "chip": "ym2612"
    },
    {
      "channel": 0,
      "note": 63,
      "start": 44.4932,
      "duration": 0.1985,
      "velocity": 106,
      "chip": "ym2612"
    },
    {
      "channel": 2,
      "note": 27,
      "start": 44.4947,
      "duration": 3.1771,
      "velocity": 106,
      "chip": "ym2612"
    },
    {
      "channel": 3,
      "note": 43,
      "start": 44.4964,
      "duration": 0.0963,
      "velocity": 97,
      "chip": "ym2612"
    },
    {
      "channel": 1,
      "note": 70,
      "start": 44.5924,
      "duration": 0.1985,
      "velocity": 106,
      "chip": "ym2612"
    },
    {
      "channel": 3,
      "note": 34,
      "start": 44.5928,
      "duration": 0.0992,
      "velocity": 97,
      "chip": "ym2612"
    },
    {
      "channel": 0,
      "note": 75,
      "start": 44.6917,
      "duration": 0.1985,
      "velocity": 106,
      "chip": "ym2612"
    },
    {
      "channel": 3,
      "note": 41,
      "start": 44.6921,
      "duration": 0.0992,
      "velocity": 97,
      "chip": "ym2612"
    },
    {
      "channel": 1,
      "note": 63,
      "start": 44.791,
      "duration": 0.1985,
      "velocity": 106,
      "chip": "ym2612"
    },
    {
      "channel": 3,
      "note": 36,
      "start": 44.7914,
      "duration": 0.0993,
      "velocity": 97,
      "chip": "ym2612"
    },
    {
      "channel": 0,
      "note": 70,
      "start": 44.8904,
      "duration": 0.1985,
      "velocity": 106,
      "chip": "ym2612"
    },
    {
      "channel": 3,
      "note": 39,
      "start": 44.8907,
      "duration": 0.0992,
      "velocity": 97,
      "chip": "ym2612"
    },
    {
      "channel": 1,
      "note": 75,
      "start": 44.9897,
      "duration": 0.1987,
      "velocity": 106,
      "chip": "ym2612"
    },
    {
      "channel": 3,
      "note": 37,
      "start": 44.99,
      "duration": 0.0992,
      "velocity": 97,
      "chip": "ym2612"
    },
    {
      "channel": 0,
      "note": 63,
      "start": 45.089,
      "duration": 0.1989,
      "velocity": 106,
      "chip": "ym2612"
    },
    {
      "channel": 3,
      "note": 43,
      "start": 45.0893,
      "duration": 0.0994,
      "velocity": 97,
      "chip": "ym2612"
    },
    {
      "channel": 1,
      "note": 70,
      "start": 45.1885,
      "duration": 0.1983,
      "velocity": 106,
      "chip": "ym2612"
    },
    {
      "channel": 3,
      "note": 34,
      "start": 45.1888,
      "duration": 0.0996,
      "velocity": 97,
      "chip": "ym2612"
    },
    {
      "channel": 0,
      "note": 73,
      "start": 45.2881,
      "duration": 0.1981,
      "velocity": 106,
      "chip": "ym2612"
    },
    {
      "channel": 3,
      "note": 41,
      "start": 45.2885,
      "duration": 0.0987,
      "velocity": 97,
      "chip": "ym2612"
    },
    {
      "channel": 1,
      "note": 63,
      "start": 45.387,
      "duration": 0.1985,
      "velocity": 106,
      "chip": "ym2612"
    },
    {
      "channel": 3,
      "note": 36,
      "start": 45.3873,
      "duration": 0.0992,
      "velocity": 97,
      "chip": "ym2612"
    },
    {
      "channel": 0,
      "note": 70,
      "start": 45.4863,
      "duration": 0.1985,
      "velocity": 106,
      "chip": "ym2612"
    },
    {
      "channel": 3,
      "note": 39,
      "start": 45.4866,
      "duration": 0.0992,
      "velocity": 97,
      "chip": "ym2612"
    },
    {
      "channel": 1,
      "note": 73,
      "start": 45.5856,
      "duration": 0.1985,
      "velocity": 106,
      "chip": "ym2612"
    },
    {
      "channel": 3,
      "note": 37,
      "start": 45.5859,
      "duration": 0.0992,
      "velocity": 97,
      "chip": "ym2612"
    },
    {
      "channel": 0,
      "note": 63,
      "start": 45.6849,
      "duration": 0.1985,
      "velocity": 106,
      "chip": "ym2612"
    },
    {
      "channel": 3,
      "note": 43,
      "start": 45.6852,
      "duration": 0.0993,
      "velocity": 97,
      "chip": "ym2612"
    },
    {
      "channel": 1,
      "note": 70,
      "start": 45.7842,
      "duration": 0.1985,
      "velocity": 106,
      "chip": "ym2612"
    },
    {
      "channel": 3,
      "note": 34,
      "start": 45.7846,
      "duration": 0.0992,
      "velocity": 97,
      "chip": "ym2612"
    },
    {
      "channel": 0,
      "note": 75,
      "start": 45.8835,
      "duration": 0.1985,
      "velocity": 106,
      "chip": "ym2612"
    },
    {
      "channel": 3,
      "note": 41,
      "start": 45.8839,
      "duration": 0.0992,
      "velocity": 97,
      "chip": "ym2612"
    },
    {
      "channel": 1,
      "note": 63,
      "start": 45.9829,
      "duration": 0.1985,
      "velocity": 106,
      "chip": "ym2612"
    },
    {
      "channel": 3,
      "note": 36,
      "start": 45.9832,
      "duration": 0.0993,
      "velocity": 97,
      "chip": "ym2612"
    },
    {
      "channel": 0,
      "note": 70,
      "start": 46.0822,
      "duration": 0.1985,
      "velocity": 106,
      "chip": "ym2612"
    },
    {
      "channel": 3,
      "note": 39,
      "start": 46.0826,
      "duration": 0.0991,
      "velocity": 97,
      "chip": "ym2612"
    },
    {
      "channel": 1,
      "note": 75,
      "start": 46.1815,
      "duration": 0.1985,
      "velocity": 106,
      "chip": "ym2612"
    },
    {
      "channel": 3,
      "note": 37,
      "start": 46.1818,
      "duration": 0.0992,
      "velocity": 97,
      "chip": "ym2612"
    },
    {
      "channel": 0,
      "note": 63,
      "start": 46.2808,
      "duration": 0.1985,
      "velocity": 106,
      "chip": "ym2612"
    },
    {
      "channel": 3,
      "note": 43,
      "start": 46.2811,
      "duration": 0.0992,
      "velocity": 97,
      "chip": "ym2612"
    },
    {
      "channel": 1,
      "note": 70,
      "start": 46.3801,
      "duration": 0.1985,
      "velocity": 106,
      "chip": "ym2612"
    },
    {
      "channel": 3,
      "note": 34,
      "start": 46.3804,
      "duration": 0.0992,
      "velocity": 97,
      "chip": "ym2612"
    },
    {
      "channel": 0,
      "note": 73,
      "start": 46.4794,
      "duration": 0.1985,
      "velocity": 106,
      "chip": "ym2612"
    },
    {
      "channel": 3,
      "note": 41,
      "start": 46.4797,
      "duration": 0.0992,
      "velocity": 97,
      "chip": "ym2612"
    },
    {
      "channel": 1,
      "note": 63,
      "start": 46.5787,
      "duration": 0.1985,
      "velocity": 106,
      "chip": "ym2612"
    },
    {
      "channel": 3,
      "note": 36,
      "start": 46.5791,
      "duration": 0.0992,
      "velocity": 97,
      "chip": "ym2612"
    },
    {
      "channel": 0,
      "note": 70,
      "start": 46.6781,
      "duration": 0.1985,
      "velocity": 106,
      "chip": "ym2612"
    },
    {
      "channel": 3,
      "note": 39,
      "start": 46.6784,
      "duration": 0.0992,
      "velocity": 97,
      "chip": "ym2612"
    },
    {
      "channel": 1,
      "note": 73,
      "start": 46.7774,
      "duration": 0.1985,
      "velocity": 106,
      "chip": "ym2612"
    },
    {
      "channel": 3,
      "note": 37,
      "start": 46.7777,
      "duration": 0.0993,
      "velocity": 97,
      "chip": "ym2612"
    },
    {
      "channel": 0,
      "note": 73,
      "start": 46.8767,
      "duration": 0.1985,
      "velocity": 106,
      "chip": "ym2612"
    },
    {
      "channel": 3,
      "note": 43,
      "start": 46.8771,
      "duration": 0.0991,
      "velocity": 97,
      "chip": "ym2612"
    },
    {
      "channel": 1,
      "note": 70,
      "start": 46.976,
      "duration": 0.1985,
      "velocity": 106,
      "chip": "ym2612"
    },
    {
      "channel": 3,
      "note": 34,
      "start": 46.9763,
      "duration": 0.0992,
      "velocity": 97,
      "chip": "ym2612"
    },
    {
      "channel": 0,
      "note": 70,
      "start": 47.0753,
      "duration": 0.1985,
      "velocity": 106,
      "chip": "ym2612"
    },
    {
      "channel": 3,
      "note": 41,
      "start": 47.0757,
      "duration": 0.0992,
      "velocity": 97,
      "chip": "ym2612"
    },
    {
      "channel": 1,
      "note": 73,
      "start": 47.1746,
      "duration": 0.1985,
      "velocity": 106,
      "chip": "ym2612"
    },
    {
      "channel": 3,
      "note": 36,
      "start": 47.175,
      "duration": 0.0992,
      "velocity": 97,
      "chip": "ym2612"
    },
    {
      "channel": 0,
      "note": 73,
      "start": 47.2739,
      "duration": 0.1985,
      "velocity": 106,
      "chip": "ym2612"
    },
    {
      "channel": 3,
      "note": 39,
      "start": 47.2743,
      "duration": 0.0992,
      "velocity": 97,
      "chip": "ym2612"
    },
    {
      "channel": 1,
      "note": 70,
      "start": 47.3732,
      "duration": 0.1985,
      "velocity": 106,
      "chip": "ym2612"
    },
    {
      "channel": 3,
      "note": 37,
      "start": 47.3736,
      "duration": 0.0992,
      "velocity": 97,
      "chip": "ym2612"
    },
    {
      "channel": 0,
      "note": 70,
      "start": 47.4725,
      "duration": 0.199,
      "velocity": 106,
      "chip": "ym2612"
    },
    {
      "channel": 3,
      "note": 43,
      "start": 47.4729,
      "duration": 0.0992,
      "velocity": 97,
      "chip": "ym2612"
    },
    {
      "channel": 1,
      "note": 73,
      "start": 47.5719,
      "duration": 0.1985,
      "velocity": 106,
      "chip": "ym2612"
    },
    {
      "channel": 3,
      "note": 34,
      "start": 47.5722,
      "duration": 0.1013,
      "velocity": 106,
      "chip": "ym2612"
    },
    {
      "channel": 0,
      "note": 63,
      "start": 47.6717,
      "duration": 0.198,
      "velocity": 106,
      "chip": "ym2612"
    },
    {
      "channel": 2,
      "note": 27,
      "start": 47.672,
      "duration": 3.0781,
      "velocity": 106,
      "chip": "ym2612"
    },
    {
      "channel": 3,
      "note": 20,
      "start": 47.6737,
      "duration": 3.1258,
      "velocity": 106,
      "chip": "ym2612"
    },
    {
      "channel": 4,
      "note": 43,
      "start": 47.6753,
      "duration": 0.0959,
      "velocity": 97,
      "chip": "ym2612"
    },
    {
      "channel": 1,
      "note": 70,
      "start": 47.7706,
      "duration": 0.1985,
      "velocity": 106,
      "chip": "ym2612"
    },
    {
      "channel": 4,
      "note": 34,
      "start": 47.7713,
      "duration": 0.0988,
      "velocity": 97,
      "chip": "ym2612"
    },
    {
      "channel": 0,
      "note": 75,
      "start": 47.8699,
      "duration": 0.1985,
      "velocity": 106,
      "chip": "ym2612"
    },
    {
      "channel": 4,
      "note": 41,
      "start": 47.8702,
      "duration": 0.0992,
      "velocity": 97,
      "chip": "ym2612"
    },
    {
      "channel": 1,
      "note": 63,
      "start": 47.9692,
      "duration": 0.1985,
      "velocity": 106,
      "chip": "ym2612"
    },
    {
      "channel": 4,
      "note": 36,
      "start": 47.9695,
      "duration": 0.0992,
      "velocity": 97,
      "chip": "ym2612"
    },
    {
      "channel": 0,
      "note": 70,
      "start": 48.0685,
      "duration": 0.1985,
      "velocity": 106,
      "chip": "ym2612"
    },
    {
      "channel": 4,
      "note": 39,
      "start": 48.0688,
      "duration": 0.0992,
      "velocity": 97,
      "chip": "ym2612"
    },
    {
      "channel": 1,
      "note": 75,
      "start": 48.1678,
      "duration": 0.1985,
      "velocity": 106,
      "chip": "ym2612"
    },
    {
      "channel": 4,
      "note": 37,
      "start": 48.1681,
      "duration": 0.0992,
      "velocity": 97,
      "chip": "ym2612"
    },
    {
      "channel": 0,
      "note": 63,
      "start": 48.2671,
      "duration": 0.1985,
      "velocity": 106,
      "chip": "ym2612"
    },
    {
      "channel": 4,
      "note": 43,
      "start": 48.2674,
      "duration": 0.0992,
      "velocity": 97,
      "chip": "ym2612"
    },
    {
      "channel": 1,
      "note": 70,
      "start": 48.3664,
      "duration": 0.1985,
      "velocity": 106,
      "chip": "ym2612"
    },
    {
      "channel": 4,
      "note": 34,
      "start": 48.3668,
      "duration": 0.0993,
      "velocity": 97,
      "chip": "ym2612"
    },
    {
      "channel": 0,
      "note": 73,
      "start": 48.4657,
      "duration": 0.1985,
      "velocity": 106,
      "chip": "ym2612"
    },
    {
      "channel": 4,
      "note": 41,
      "start": 48.4662,
      "duration": 0.099,
      "velocity": 97,
      "chip": "ym2612"
    },
    {
      "channel": 1,
      "note": 63,
      "start": 48.565,
      "duration": 0.1985,
      "velocity": 106,
      "chip": "ym2612"
    },
    {
      "channel": 4,
      "note": 36,
      "start": 48.5654,
      "duration": 0.0992,
      "velocity": 97,
      "chip": "ym2612"
    },
    {
      "channel": 0,
      "note": 70,
      "start": 48.6643,
      "duration": 0.1985,
      "velocity": 106,
      "chip": "ym2612"
    },
    {
      "channel": 4,
      "note": 39,
      "start": 48.6646,
      "duration": 0.0993,
      "velocity": 97,
      "chip": "ym2612"
    },
    {
      "channel": 1,
      "note": 73,
      "start": 48.7637,
      "duration": 0.1985,
      "velocity": 106,
      "chip": "ym2612"
    },
    {
      "channel": 4,
      "note": 37,
      "start": 48.764,
      "duration": 0.0992,
      "velocity": 97,
      "chip": "ym2612"
    },
    {
      "channel": 0,
      "note": 63,
      "start": 48.863,
      "duration": 0.1985,
      "velocity": 106,
      "chip": "ym2612"
    },
    {
      "channel": 4,
      "note": 43,
      "start": 48.8633,
      "duration": 0.0992,
      "velocity": 97,
      "chip": "ym2612"
    },
    {
      "channel": 1,
      "note": 70,
      "start": 48.9623,
      "duration": 0.1985,
      "velocity": 106,
      "chip": "ym2612"
    },
    {
      "channel": 4,
      "note": 34,
      "start": 48.9626,
      "duration": 0.0992,
      "velocity": 97,
      "chip": "ym2612"
    },
    {
      "channel": 0,
      "note": 75,
      "start": 49.0616,
      "duration": 0.1985,
      "velocity": 106,
      "chip": "ym2612"
    },
    {
      "channel": 4,
      "note": 41,
      "start": 49.0619,
      "duration": 0.0992,
      "velocity": 97,
      "chip": "ym2612"
    },
    {
      "channel": 1,
      "note": 63,
      "start": 49.161,
      "duration": 0.1985,
      "velocity": 106,
      "chip": "ym2612"
    },
    {
      "channel": 4,
      "note": 36,
      "start": 49.1613,
      "duration": 0.0994,
      "velocity": 97,
      "chip": "ym2612"
    },
    {
      "channel": 0,
      "note": 70,
      "start": 49.2603,
      "duration": 0.1985,
      "velocity": 106,
      "chip": "ym2612"
    },
    {
      "channel": 4,
      "note": 39,
      "start": 49.2608,
      "duration": 0.0989,
      "velocity": 97,
      "chip": "ym2612"
    },
    {
      "channel": 1,
      "note": 75,
      "start": 49.3596,
      "duration": 0.1985,
      "velocity": 106,
      "chip": "ym2612"
    },
    {
      "channel": 4,
      "note": 37,
      "start": 49.3599,
      "duration": 0.0992,
      "velocity": 97,
      "chip": "ym2612"
    },
    {
      "channel": 0,
      "note": 63,
      "start": 49.4589,
      "duration": 0.1985,
      "velocity": 106,
      "chip": "ym2612"
    },
    {
      "channel": 4,
      "note": 43,
      "start": 49.4592,
      "duration": 0.0992,
      "velocity": 97,
      "chip": "ym2612"
    },
    {
      "channel": 1,
      "note": 70,
      "start": 49.5582,
      "duration": 0.1985,
      "velocity": 106,
      "chip": "ym2612"
    },
    {
      "channel": 4,
      "note": 34,
      "start": 49.5585,
      "duration": 0.0992,
      "velocity": 97,
      "chip": "ym2612"
    },
    {
      "channel": 0,
      "note": 73,
      "start": 49.6575,
      "duration": 0.1985,
      "velocity": 106,
      "chip": "ym2612"
    },
    {
      "channel": 4,
      "note": 41,
      "start": 49.6578,
      "duration": 0.0992,
      "velocity": 97,
      "chip": "ym2612"
    },
    {
      "channel": 1,
      "note": 63,
      "start": 49.7568,
      "duration": 0.1985,
      "velocity": 106,
      "chip": "ym2612"
    },
    {
      "channel": 4,
      "note": 36,
      "start": 49.7571,
      "duration": 0.0992,
      "velocity": 97,
      "chip": "ym2612"
    },
    {
      "channel": 0,
      "note": 70,
      "start": 49.8561,
      "duration": 0.1989,
      "velocity": 106,
      "chip": "ym2612"
    },
    {
      "channel": 4,
      "note": 39,
      "start": 49.8564,
      "duration": 0.0992,
      "velocity": 97,
      "chip": "ym2612"
    },
    {
      "channel": 1,
      "note": 73,
      "start": 49.9554,
      "duration": 0.1985,
      "velocity": 106,
      "chip": "ym2612"
    },
    {
      "channel": 4,
      "note": 37,
      "start": 49.9557,
      "duration": 0.0998,
      "velocity": 97,
      "chip": "ym2612"
    },
    {
      "channel": 0,
      "note": 73,
      "start": 50.0552,
      "duration": 0.1981,
      "velocity": 106,
      "chip": "ym2612"
    },
    {
      "channel": 4,
      "note": 43,
      "start": 50.0556,
      "duration": 0.099,
      "velocity": 97,
      "chip": "ym2612"
    },
    {
      "channel": 1,
      "note": 70,
      "start": 50.1545,
      "duration": 0.1981,
      "velocity": 106,
      "chip": "ym2612"
    },
    {
      "channel": 4,
      "note": 34,
      "start": 50.1548,
      "duration": 0.0988,
      "velocity": 97,
      "chip": "ym2612"
    },
    {
      "channel": 0,
      "note": 70,
      "start": 50.2534,
      "duration": 0.1985,
      "velocity": 106,
      "chip": "ym2612"
    },
    {
      "channel": 4,
      "note": 41,
      "start": 50.2537,
      "duration": 0.0992,
      "velocity": 97,
      "chip": "ym2612"
    },
    {
      "channel": 1,
      "note": 73,
      "start": 50.3527,
      "duration": 0.1985,
      "velocity": 106,
      "chip": "ym2612"
    },
    {
      "channel": 4,
      "note": 36,
      "start": 50.353,
      "duration": 0.0992,
      "velocity": 97,
      "chip": "ym2612"
    },
    {
      "channel": 0,
      "note": 73,
      "start": 50.4521,
      "duration": 0.1985,
      "velocity": 106,
      "chip": "ym2612"
    },
    {
      "channel": 4,
      "note": 39,
      "start": 50.4524,
      "duration": 0.0992,
      "velocity": 97,
      "chip": "ym2612"
    },
    {
      "channel": 1,
      "note": 70,
      "start": 50.5514,
      "duration": 0.1985,
      "velocity": 106,
      "chip": "ym2612"
    },
    {
      "channel": 4,
      "note": 37,
      "start": 50.5517,
      "duration": 0.0992,
      "velocity": 97,
      "chip": "ym2612"
    },
    {
      "channel": 0,
      "note": 70,
      "start": 50.6507,
      "duration": 0.1998,
      "velocity": 106,
      "chip": "ym2612"
    },
    {
      "channel": 4,
      "note": 43,
      "start": 50.651,
      "duration": 0.0993,
      "velocity": 97,
      "chip": "ym2612"
    },
    {
      "channel": 1,
      "note": 73,
      "start": 50.75,
      "duration": 0.1998,
      "velocity": 106,
      "chip": "ym2612"
    },
    {
      "channel": 4,
      "note": 34,
      "start": 50.7504,
      "duration": 0.0492,
      "velocity": 97,
      "chip": "ym2612"
    },
    {
      "channel": 0,
      "note": 27,
      "start": 50.8506,
      "duration": 0.1972,
      "velocity": 106,
      "chip": "ym2612"
    },
    {
      "channel": 2,
      "note": 63,
      "start": 50.8523,
      "duration": 6.3534,
      "velocity": 105,
      "chip": "ym2612"
    },
    {
      "channel": 3,
      "note": 63,
      "start": 50.854,
      "duration": 6.3522,
      "velocity": 105,
      "chip": "ym2612"
    },
    {
      "channel": 1,
      "note": 34,
      "start": 50.9499,
      "duration": 0.1972,
      "velocity": 106,
      "chip": "ym2612"
    },
    {
      "channel": 0,
      "note": 39,
      "start": 51.0479,
      "duration": 0.1985,
      "velocity": 106,
      "chip": "ym2612"
    },
    {
      "channel": 1,
      "note": 27,
      "start": 51.1472,
      "duration": 0.1985,
      "velocity": 106,
      "chip": "ym2612"
    },
    {
      "channel": 0,
      "note": 34,
      "start": 51.2465,
      "duration": 0.1985,
      "velocity": 106,
      "chip": "ym2612"
    },
    {
      "channel": 1,
      "note": 39,
      "start": 51.3459,
      "duration": 0.1985,
      "velocity": 106,
      "chip": "ym2612"
    },
    {
      "channel": 0,
      "note": 27,
      "start": 51.4452,
      "duration": 0.1985,
      "velocity": 106,
      "chip": "ym2612"
    },
    {
      "channel": 1,
      "note": 34,
      "start": 51.5445,
      "duration": 0.1985,
      "velocity": 106,
      "chip": "ym2612"
    },
    {
      "channel": 0,
      "note": 37,
      "start": 51.6438,
      "duration": 0.1985,
      "velocity": 106,
      "chip": "ym2612"
    },
    {
      "channel": 1,
      "note": 27,
      "start": 51.7431,
      "duration": 0.1985,
      "velocity": 106,
      "chip": "ym2612"
    },
    {
      "channel": 0,
      "note": 34,
      "start": 51.8424,
      "duration": 0.1985,
      "velocity": 106,
      "chip": "ym2612"
    },
    {
      "channel": 1,
      "note": 37,
      "start": 51.9417,
      "duration": 0.1985,
      "velocity": 106,
      "chip": "ym2612"
    },
    {
      "channel": 0,
      "note": 27,
      "start": 52.041,
      "duration": 0.1985,
      "velocity": 106,
      "chip": "ym2612"
    },
    {
      "channel": 1,
      "note": 34,
      "start": 52.1404,
      "duration": 0.1985,
      "velocity": 106,
      "chip": "ym2612"
    },
    {
      "channel": 0,
      "note": 39,
      "start": 52.2397,
      "duration": 0.1987,
      "velocity": 106,
      "chip": "ym2612"
    },
    {
      "channel": 1,
      "note": 27,
      "start": 52.339,
      "duration": 0.1989,
      "velocity": 106,
      "chip": "ym2612"
    },
    {
      "channel": 0,
      "note": 34,
      "start": 52.4385,
      "duration": 0.1983,
      "velocity": 106,
      "chip": "ym2612"
    },
    {
      "channel": 1,
      "note": 39,
      "start": 52.5381,
      "duration": 0.1981,
      "velocity": 106,
      "chip": "ym2612"
    },
    {
      "channel": 0,
      "note": 27,
      "start": 52.637,
      "duration": 0.1985,
      "velocity": 106,
      "chip": "ym2612"
    },
    {
      "channel": 1,
      "note": 34,
      "start": 52.7363,
      "duration": 0.1985,
      "velocity": 106,
      "chip": "ym2612"
    },
    {
      "channel": 0,
      "note": 37,
      "start": 52.8356,
      "duration": 0.1985,
      "velocity": 106,
      "chip": "ym2612"
    },
    {
      "channel": 1,
      "note": 27,
      "start": 52.9349,
      "duration": 0.1985,
      "velocity": 106,
      "chip": "ym2612"
    },
    {
      "channel": 0,
      "note": 34,
      "start": 53.0342,
      "duration": 0.1985,
      "velocity": 106,
      "chip": "ym2612"
    },
    {
      "channel": 1,
      "note": 37,
      "start": 53.1335,
      "duration": 0.1985,
      "velocity": 106,
      "chip": "ym2612"
    },
    {
      "channel": 0,
      "note": 37,
      "start": 53.2329,
      "duration": 0.1985,
      "velocity": 106,
      "chip": "ym2612"
    },
    {
      "channel": 1,
      "note": 34,
      "start": 53.3322,
      "duration": 0.1985,
      "velocity": 106,
      "chip": "ym2612"
    },
    {
      "channel": 0,
      "note": 34,
      "start": 53.4315,
      "duration": 0.1985,
      "velocity": 106,
      "chip": "ym2612"
    },
    {
      "channel": 1,
      "note": 37,
      "start": 53.5308,
      "duration": 0.1985,
      "velocity": 106,
      "chip": "ym2612"
    },
    {
      "channel": 0,
      "note": 37,
      "start": 53.6301,
      "duration": 0.1985,
      "velocity": 106,
      "chip": "ym2612"
    },
    {
      "channel": 1,
      "note": 34,
      "start": 53.7294,
      "duration": 0.1985,
      "velocity": 106,
      "chip": "ym2612"
    },
    {
      "channel": 0,
      "note": 34,
      "start": 53.8287,
      "duration": 0.1985,
      "velocity": 106,
      "chip": "ym2612"
    },
    {
      "channel": 1,
      "note": 37,
      "start": 53.9281,
      "duration": 0.1985,
      "velocity": 106,
      "chip": "ym2612"
    },
    {
      "channel": 0,
      "note": 27,
      "start": 54.0274,
      "duration": 0.1985,
      "velocity": 106,
      "chip": "ym2612"
    },
    {
      "channel": 1,
      "note": 34,
      "start": 54.1267,
      "duration": 0.1985,
      "velocity": 106,
      "chip": "ym2612"
    },
    {
      "channel": 0,
      "note": 39,
      "start": 54.226,
      "duration": 0.1985,
      "velocity": 106,
      "chip": "ym2612"
    },
    {
      "channel": 1,
      "note": 27,
      "start": 54.3253,
      "duration": 0.1985,
      "velocity": 106,
      "chip": "ym2612"
    },
    {
      "channel": 0,
      "note": 34,
      "start": 54.4246,
      "duration": 0.1985,
      "velocity": 106,
      "chip": "ym2612"
    },
    {
      "channel": 1,
      "note": 39,
      "start": 54.5239,
      "duration": 0.1985,
      "velocity": 106,
      "chip": "ym2612"
    },
    {
      "channel": 0,
      "note": 27,
      "start": 54.6232,
      "duration": 0.1985,
      "velocity": 106,
      "chip": "ym2612"
    },
    {
      "channel": 1,
      "note": 34,
      "start": 54.7225,
      "duration": 0.1989,
      "velocity": 106,
      "chip": "ym2612"
    },
    {
      "channel": 0,
      "note": 37,
      "start": 54.8219,
      "duration": 0.1985,
      "velocity": 106,
      "chip": "ym2612"
    },
    {
      "channel": 1,
      "note": 27,
      "start": 54.9216,
      "duration": 0.1981,
      "velocity": 106,
      "chip": "ym2612"
    },
    {
      "channel": 0,
      "note": 34,
      "start": 55.0205,
      "duration": 0.1985,
      "velocity": 106,
      "chip": "ym2612"
    },
    {
      "channel": 1,
      "note": 37,
      "start": 55.1198,
      "duration": 0.1985,
      "velocity": 106,
      "chip": "ym2612"
    },
    {
      "channel": 0,
      "note": 27,
      "start": 55.2192,
      "duration": 0.1985,
      "velocity": 106,
      "chip": "ym2612"
    },
    {
      "channel": 1,
      "note": 34,
      "start": 55.3185,
      "duration": 0.1985,
      "velocity": 106,
      "chip": "ym2612"
    },
    {
      "channel": 0,
      "note": 39,
      "start": 55.4178,
      "duration": 0.1985,
      "velocity": 106,
      "chip": "ym2612"
    },
    {
      "channel": 1,
      "note": 27,
      "start": 55.5171,
      "duration": 0.1985,
      "velocity": 106,
      "chip": "ym2612"
    },
    {
      "channel": 0,
      "note": 34,
      "start": 55.6164,
      "duration": 0.1985,
      "velocity": 106,
      "chip": "ym2612"
    },
    {
      "channel": 1,
      "note": 39,
      "start": 55.7157,
      "duration": 0.1985,
      "velocity": 106,
      "chip": "ym2612"
    },
    {
      "channel": 0,
      "note": 27,
      "start": 55.815,
      "duration": 0.1985,
      "velocity": 106,
      "chip": "ym2612"
    },
    {
      "channel": 1,
      "note": 34,
      "start": 55.9143,
      "duration": 0.1985,
      "velocity": 106,
      "chip": "ym2612"
    },
    {
      "channel": 0,
      "note": 37,
      "start": 56.0137,
      "duration": 0.1985,
      "velocity": 106,
      "chip": "ym2612"
    },
    {
      "channel": 1,
      "note": 27,
      "start": 56.113,
      "duration": 0.1985,
      "velocity": 106,
      "chip": "ym2612"
    },
    {
      "channel": 0,
      "note": 34,
      "start": 56.2123,
      "duration": 0.1985,
      "velocity": 106,
      "chip": "ym2612"
    },
    {
      "channel": 1,
      "note": 37,
      "start": 56.3116,
      "duration": 0.1985,
      "velocity": 106,
      "chip": "ym2612"
    },
    {
      "channel": 0,
      "note": 37,
      "start": 56.4109,
      "duration": 0.1985,
      "velocity": 106,
      "chip": "ym2612"
    },
    {
      "channel": 1,
      "note": 34,
      "start": 56.5103,
      "duration": 0.1985,
      "velocity": 106,
      "chip": "ym2612"
    },
    {
      "channel": 0,
      "note": 34,
      "start": 56.6096,
      "duration": 0.1985,
      "velocity": 106,
      "chip": "ym2612"
    },
    {
      "channel": 1,
      "note": 37,
      "start": 56.7089,
      "duration": 0.1985,
      "velocity": 106,
      "chip": "ym2612"
    },
    {
      "channel": 0,
      "note": 37,
      "start": 56.8082,
      "duration": 0.1985,
      "velocity": 106,
      "chip": "ym2612"
    },
    {
      "channel": 1,
      "note": 34,
      "start": 56.9075,
      "duration": 0.1985,
      "velocity": 106,
      "chip": "ym2612"
    },
    {
      "channel": 0,
      "note": 34,
      "start": 57.0068,
      "duration": 0.1985,
      "velocity": 106,
      "chip": "ym2612"
    },
    {
      "channel": 1,
      "note": 37,
      "start": 57.1061,
      "duration": 0.1989,
      "velocity": 106,
      "chip": "ym2612"
    },
    {
      "channel": 0,
      "note": 27,
      "start": 57.2055,
      "duration": 0.1985,
      "velocity": 106,
      "chip": "ym2612"
    },
    {
      "channel": 2,
      "note": 63,
      "start": 57.2059,
      "duration": 6.3561,
      "velocity": 105,
      "chip": "ym2612"
    },
    {
      "channel": 3,
      "note": 63,
      "start": 57.2063,
      "duration": 6.3572,
      "velocity": 105,
      "chip": "ym2612"
    },
    {
      "channel": 1,
      "note": 34,
      "start": 57.3052,
      "duration": 0.1981,
      "velocity": 106,
      "chip": "ym2612"
    },
    {
      "channel": 0,
      "note": 39,
      "start": 57.4045,
      "duration": 0.1981,
      "velocity": 106,
      "chip": "ym2612"
    },
    {
      "channel": 1,
      "note": 27,
      "start": 57.5034,
      "duration": 0.1985,
      "velocity": 106,
      "chip": "ym2612"
    },
    {
      "channel": 0,
      "note": 34,
      "start": 57.6027,
      "duration": 0.1985,
      "velocity": 106,
      "chip": "ym2612"
    },
    {
      "channel": 1,
      "note": 39,
      "start": 57.702,
      "duration": 0.1985,
      "velocity": 106,
      "chip": "ym2612"
    },
    {
      "channel": 0,
      "note": 27,
      "start": 57.8014,
      "duration": 0.1985,
      "velocity": 106,
      "chip": "ym2612"
    },
    {
      "channel": 1,
      "note": 34,
      "start": 57.9007,
      "duration": 0.1985,
      "velocity": 106,
      "chip": "ym2612"
    },
    {
      "channel": 0,
      "note": 37,
      "start": 58.0,
      "duration": 0.1985,
      "velocity": 106,
      "chip": "ym2612"
    },
    {
      "channel": 1,
      "note": 27,
      "start": 58.0993,
      "duration": 0.1985,
      "velocity": 106,
      "chip": "ym2612"
    },
    {
      "channel": 0,
      "note": 34,
      "start": 58.1986,
      "duration": 0.1985,
      "velocity": 106,
      "chip": "ym2612"
    },
    {
      "channel": 1,
      "note": 37,
      "start": 58.2979,
      "duration": 0.1985,
      "velocity": 106,
      "chip": "ym2612"
    },
    {
      "channel": 0,
      "note": 27,
      "start": 58.3972,
      "duration": 0.1985,
      "velocity": 106,
      "chip": "ym2612"
    },
    {
      "channel": 1,
      "note": 34,
      "start": 58.4965,
      "duration": 0.1985,
      "velocity": 106,
      "chip": "ym2612"
    },
    {
      "channel": 0,
      "note": 39,
      "start": 58.5958,
      "duration": 0.1985,
      "velocity": 106,
      "chip": "ym2612"
    },
    {
      "channel": 1,
      "note": 27,
      "start": 58.6952,
      "duration": 0.1985,
      "velocity": 106,
      "chip": "ym2612"
    },
    {
      "channel": 0,
      "note": 34,
      "start": 58.7945,
      "duration": 0.1985,
      "velocity": 106,
      "chip": "ym2612"
    },
    {
      "channel": 1,
      "note": 39,
      "start": 58.8938,
      "duration": 0.1985,
      "velocity": 106,
      "chip": "ym2612"
    },
    {
      "channel": 0,
      "note": 27,
      "start": 58.9931,
      "duration": 0.1985,
      "velocity": 106,
      "chip": "ym2612"
    },
    {
      "channel": 1,
      "note": 34,
      "start": 59.0924,
      "duration": 0.1985,
      "velocity": 106,
      "chip": "ym2612"
    },
    {
      "channel": 0,
      "note": 37,
      "start": 59.1917,
      "duration": 0.1985,
      "velocity": 106,
      "chip": "ym2612"
    },
    {
      "channel": 1,
      "note": 27,
      "start": 59.291,
      "duration": 0.1985,
      "velocity": 106,
      "chip": "ym2612"
    },
    {
      "channel": 0,
      "note": 34,
      "start": 59.3904,
      "duration": 0.1985,
      "velocity": 106,
      "chip": "ym2612"
    },
    {
      "channel": 1,
      "note": 37,
      "start": 59.4897,
      "duration": 0.1987,
      "velocity": 106,
      "chip": "ym2612"
    },
    {
      "channel": 0,
      "note": 37,
      "start": 59.589,
      "duration": 0.1989,
      "velocity": 106,
      "chip": "ym2612"
    },
    {
      "channel": 1,
      "note": 34,
      "start": 59.6885,
      "duration": 0.1983,
      "velocity": 106,
      "chip": "ym2612"
    },
    {
      "channel": 0,
      "note": 34,
      "start": 59.7881,
      "duration": 0.1981,
      "velocity": 106,
      "chip": "ym2612"
    },
    {
      "channel": 1,
      "note": 37,
      "start": 59.887,
      "duration": 0.1985,
      "velocity": 106,
      "chip": "ym2612"
    },
    {
      "channel": 0,
      "note": 37,
      "start": 59.9863,
      "duration": 0.1985,
      "velocity": 106,
      "chip": "ym2612"
    },
    {
      "channel": 1,
      "note": 34,
      "start": 60.0856,
      "duration": 0.1985,
      "velocity": 106,
      "chip": "ym2612"
    },
    {
      "channel": 0,
      "note": 34,
      "start": 60.1849,
      "duration": 0.1985,
      "velocity": 106,
      "chip": "ym2612"
    },
    {
      "channel": 1,
      "note": 37,
      "start": 60.2842,
      "duration": 0.1985,
      "velocity": 106,
      "chip": "ym2612"
    },
    {
      "channel": 0,
      "note": 27,
      "start": 60.3835,
      "duration": 0.1985,
      "velocity": 106,
      "chip": "ym2612"
    },
    {
      "channel": 1,
      "note": 34,
      "start": 60.4829,
      "duration": 0.1985,
      "velocity": 106,
      "chip": "ym2612"
    },
    {
      "channel": 0,
      "note": 39,
      "start": 60.5822,
      "duration": 0.1985,
      "velocity": 106,
      "chip": "ym2612"
    },
    {
      "channel": 1,
      "note": 27,
      "start": 60.6815,
      "duration": 0.1985,
      "velocity": 106,
      "chip": "ym2612"
    },
    {
      "channel": 0,
      "note": 34,
      "start": 60.7808,
      "duration": 0.1985,
      "velocity": 106,
      "chip": "ym2612"
    },
    {
      "channel": 1,
      "note": 39,
      "start": 60.8801,
      "duration": 0.1985,
      "velocity": 106,
      "chip": "ym2612"
    },
    {
      "channel": 0,
      "note": 27,
      "start": 60.9794,
      "duration": 0.1985,
      "velocity": 106,
      "chip": "ym2612"
    },
    {
      "channel": 1,
      "note": 34,
      "start": 61.0787,
      "duration": 0.1985,
      "velocity": 106,
      "chip": "ym2612"
    },
    {
      "channel": 0,
      "note": 37,
      "start": 61.178,
      "duration": 0.1985,
      "velocity": 106,
      "chip": "ym2612"
    },
    {
      "channel": 1,
      "note": 27,
      "start": 61.2774,
      "duration": 0.1985,
      "velocity": 106,
      "chip": "ym2612"
    },
    {
      "channel": 0,
      "note": 34,
      "start": 61.3767,
      "duration": 0.1985,
      "velocity": 106,
      "chip": "ym2612"
    },
    {
      "channel": 1,
      "note": 37,
      "start": 61.476,
      "duration": 0.1985,
      "velocity": 106,
      "chip": "ym2612"
    },
    {
      "channel": 0,
      "note": 27,
      "start": 61.5753,
      "duration": 0.1985,
      "velocity": 106,
      "chip": "ym2612"
    },
    {
      "channel": 1,
      "note": 34,
      "start": 61.6746,
      "duration": 0.1985,
      "velocity": 106,
      "chip": "ym2612"
    },
    {
      "channel": 0,
      "note": 39,
      "start": 61.7739,
      "duration": 0.1985,
      "velocity": 106,
      "chip": "ym2612"
    },
    {
      "channel": 1,
      "note": 27,
      "start": 61.8732,
      "duration": 0.1985,
      "velocity": 106,
      "chip": "ym2612"
    },
    {
      "channel": 0,
      "note": 34,
      "start": 61.9725,
      "duration": 0.1989,
      "velocity": 106,
      "chip": "ym2612"
    },
    {
      "channel": 1,
      "note": 39,
      "start": 62.0719,
      "duration": 0.1985,
      "velocity": 106,
      "chip": "ym2612"
    },
    {
      "channel": 0,
      "note": 27,
      "start": 62.1716,
      "duration": 0.1981,
      "velocity": 106,
      "chip": "ym2612"
    },
    {
      "channel": 1,
      "note": 34,
      "start": 62.2705,
      "duration": 0.1985,
      "velocity": 106,
      "chip": "ym2612"
    },
    {
      "channel": 0,
      "note": 37,
      "start": 62.3698,
      "duration": 0.1985,
      "velocity": 106,
      "chip": "ym2612"
    },
    {
      "channel": 1,
      "note": 27,
      "start": 62.4692,
      "duration": 0.1985,
      "velocity": 106,
      "chip": "ym2612"
    },
    {
      "channel": 0,
      "note": 34,
      "start": 62.5685,
      "duration": 0.1985,
      "velocity": 106,
      "chip": "ym2612"
    },
    {
      "channel": 1,
      "note": 37,
      "start": 62.6678,
      "duration": 0.1985,
      "velocity": 106,
      "chip": "ym2612"
    },
    {
      "channel": 0,
      "note": 37,
      "start": 62.7671,
      "duration": 0.1985,
      "velocity": 106,
      "chip": "ym2612"
    },
    {
      "channel": 1,
      "note": 34,
      "start": 62.8664,
      "duration": 0.1985,
      "velocity": 106,
      "chip": "ym2612"
    },
    {
      "channel": 0,
      "note": 34,
      "start": 62.9657,
      "duration": 0.1985,
      "velocity": 106,
      "chip": "ym2612"
    },
    {
      "channel": 1,
      "note": 37,
      "start": 63.065,
      "duration": 0.1985,
      "velocity": 106,
      "chip": "ym2612"
    },
    {
      "channel": 0,
      "note": 37,
      "start": 63.1643,
      "duration": 0.1985,
      "velocity": 106,
      "chip": "ym2612"
    },
    {
      "channel": 1,
      "note": 34,
      "start": 63.2636,
      "duration": 0.1985,
      "velocity": 106,
      "chip": "ym2612"
    },
    {
      "channel": 0,
      "note": 34,
      "start": 63.363,
      "duration": 0.1985,
      "velocity": 106,
      "chip": "ym2612"
    },
    {
      "channel": 1,
      "note": 37,
      "start": 63.4623,
      "duration": 0.1985,
      "velocity": 106,
      "chip": "ym2612"
    },
    {
      "channel": 0,
      "note": 30,
      "start": 63.5616,
      "duration": 0.1985,
      "velocity": 106,
      "chip": "ym2612"
    },
    {
      "channel": 2,
      "note": 54,
      "start": 63.562,
      "duration": 4.767,
      "velocity": 105,
      "chip": "ym2612"
    },
    {
      "channel": 3,
      "note": 66,
      "start": 63.5636,
      "duration": 0.1968,
      "velocity": 105,
      "chip": "ym2612"
    },
    {
      "channel": 5,
      "note": 54,
      "start": 63.5654,
      "duration": 4.7644,
      "velocity": 105,
      "chip": "ym2612"
    },
    {
      "channel": 1,
      "note": 37,
      "start": 63.661,
      "duration": 0.1985,
      "velocity": 106,
      "chip": "ym2612"
    },
    {
      "channel": 4,
      "note": 73,
      "start": 63.6626,
      "duration": 0.1972,
      "velocity": 105,
      "chip": "ym2612"
    },
    {
      "channel": 0,
      "note": 42,
      "start": 63.7603,
      "duration": 0.1985,
      "velocity": 106,
      "chip": "ym2612"
    },
    {
      "channel": 3,
      "note": 78,
      "start": 63.7606,
      "duration": 0.1985,
      "velocity": 105,
      "chip": "ym2612"
    },
    {
      "channel": 1,
      "note": 30,
      "start": 63.8596,
      "duration": 0.1985,
      "velocity": 106,
      "chip": "ym2612"
    },
    {
      "channel": 4,
      "note": 66,
      "start": 63.8599,
      "duration": 0.1985,
      "velocity": 105,
      "chip": "ym2612"
    },
    {
      "channel": 0,
      "note": 37,
      "start": 63.9589,
      "duration": 0.1985,
      "velocity": 106,
      "chip": "ym2612"
    },
    {
      "channel": 3,
      "note": 73,
      "start": 63.9592,
      "duration": 0.1985,
      "velocity": 105,
      "chip": "ym2612"
    },
    {
      "channel": 1,
      "note": 42,
      "start": 64.0582,
      "duration": 0.1985,
      "velocity": 106,
      "chip": "ym2612"
    },
    {
      "channel": 4,
      "note": 78,
      "start": 64.0585,
      "duration": 0.1985,
      "velocity": 105,
      "chip": "ym2612"
    },
    {
      "channel": 0,
      "note": 30,
      "start": 64.1575,
      "duration": 0.1985,
      "velocity": 106,
      "chip": "ym2612"
    },
    {
      "channel": 3,
      "note": 66,
      "start": 64.1578,
      "duration": 0.1985,
      "velocity": 105,
      "chip": "ym2612"
    },
    {
      "channel": 1,
      "note": 37,
      "start": 64.2568,
      "duration": 0.1985,
      "velocity": 106,
      "chip": "ym2612"
    },
    {
      "channel": 4,
      "note": 73,
      "start": 64.2571,
      "duration": 0.1985,
      "velocity": 105,
      "chip": "ym2612"
    },
    {
      "channel": 0,
      "note": 40,
      "start": 64.3561,
      "duration": 0.1989,
      "velocity": 106,
      "chip": "ym2612"
    },
    {
      "channel": 3,
      "note": 76,
      "start": 64.3564,
      "duration": 0.1989,
      "velocity": 105,
      "chip": "ym2612"
    },
    {
      "channel": 1,
      "note": 30,
      "start": 64.4554,
      "duration": 0.1985,
      "velocity": 106,
      "chip": "ym2612"
    },
    {
      "channel": 4,
      "note": 66,
      "start": 64.4557,
      "duration": 0.1989,
      "velocity": 105,
      "chip": "ym2612"
    },
    {
      "channel": 0,
      "note": 37,
      "start": 64.5552,
      "duration": 0.1981,
      "velocity": 106,
      "chip": "ym2612"
    },
    {
      "channel": 3,
      "note": 73,
      "start": 64.5555,
      "duration": 0.1981,
      "velocity": 105,
      "chip": "ym2612"
    },
    {
      "channel": 1,
      "note": 40,
      "start": 64.6545,
      "duration": 0.1981,
      "velocity": 106,
      "chip": "ym2612"
    },
    {
      "channel": 4,
      "note": 76,
      "start": 64.6548,
      "duration": 0.1981,
      "velocity": 105,
      "chip": "ym2612"
    },
    {
      "channel": 0,
      "note": 30,
      "start": 64.7534,
      "duration": 0.1985,
      "velocity": 106,
      "chip": "ym2612"
    },
    {
      "channel": 3,
      "note": 66,
      "start": 64.7537,
      "duration": 0.1985,
      "velocity": 105,
      "chip": "ym2612"
    },
    {
      "channel": 1,
      "note": 37,
      "start": 64.8527,
      "duration": 0.1985,
      "velocity": 106,
      "chip": "ym2612"
    },
    {
      "channel": 4,
      "note": 73,
      "start": 64.853,
      "duration": 0.1985,
      "velocity": 105,
      "chip": "ym2612"
    },
    {
      "channel": 0,
      "note": 42,
      "start": 64.952,
      "duration": 0.1985,
      "velocity": 106,
      "chip": "ym2612"
    },
    {
      "channel": 3,
      "note": 78,
      "start": 64.9524,
      "duration": 0.1985,
      "velocity": 105,
      "chip": "ym2612"
    },
    {
      "channel": 1,
      "note": 30,
      "start": 65.0514,
      "duration": 0.1985,
      "velocity": 106,
      "chip": "ym2612"
    },
    {
      "channel": 4,
      "note": 66,
      "start": 65.0517,
      "duration": 0.1985,
      "velocity": 105,
      "chip": "ym2612"
    },
    {
      "channel": 0,
      "note": 37,
      "start": 65.1507,
      "duration": 0.1985,
      "velocity": 106,
      "chip": "ym2612"
    },
    {
      "channel": 3,
      "note": 73,
      "start": 65.151,
      "duration": 0.1985,
      "velocity": 105,
      "chip": "ym2612"
    },
    {
      "channel": 1,
      "note": 42,
      "start": 65.25,
      "duration": 0.1985,
      "velocity": 106,
      "chip": "ym2612"
    },
    {
      "channel": 4,
      "note": 78,
      "start": 65.2503,
      "duration": 0.1985,
      "velocity": 105,
      "chip": "ym2612"
    },
    {
      "channel": 0,
      "note": 30,
      "start": 65.3493,
      "duration": 0.1985,
      "velocity": 106,
      "chip": "ym2612"
    },
    {
      "channel": 3,
      "note": 66,
      "start": 65.3496,
      "duration": 0.1985,
      "velocity": 105,
      "chip": "ym2612"
    },
    {
      "channel": 1,
      "note": 37,
      "start": 65.4485,
      "duration": 0.1985,
      "velocity": 106,
      "chip": "ym2612"
    },
    {
      "channel": 4,
      "note": 73,
      "start": 65.4489,
      "duration": 0.1985,
      "velocity": 105,
      "chip": "ym2612"
    },
    {
      "channel": 0,
      "note": 40,
      "start": 65.5479,
      "duration": 0.1985,
      "velocity": 106,
      "chip": "ym2612"
    },
    {
      "channel": 3,
      "note": 76,
      "start": 65.5482,
      "duration": 0.1985,
      "velocity": 105,
      "chip": "ym2612"
    },
    {
      "channel": 1,
      "note": 30,
      "start": 65.6472,
      "duration": 0.1985,
      "velocity": 106,
      "chip": "ym2612"
    },
    {
      "channel": 4,
      "note": 66,
      "start": 65.6476,
      "duration": 0.1985,
      "velocity": 105,
      "chip": "ym2612"
    },
    {
      "channel": 0,
      "note": 37,
      "start": 65.7465,
      "duration": 0.1985,
      "velocity": 106,
      "chip": "ym2612"
    },
    {
      "channel": 3,
      "note": 73,
      "start": 65.7468,
      "duration": 0.1985,
      "velocity": 105,
      "chip": "ym2612"
    },
    {
      "channel": 1,
      "note": 40,
      "start": 65.8458,
      "duration": 0.1985,
      "velocity": 106,
      "chip": "ym2612"
    },
    {
      "channel": 4,
      "note": 76,
      "start": 65.8462,
      "duration": 0.1985,
      "velocity": 105,
      "chip": "ym2612"
    },
    {
      "channel": 0,
      "note": 40,
      "start": 65.9452,
      "duration": 0.1985,
      "velocity": 106,
      "chip": "ym2612"
    },
    {
      "channel": 3,
      "note": 76,
      "start": 65.9455,
      "duration": 0.1985,
      "velocity": 105,
      "chip": "ym2612"
    },
    {
      "channel": 1,
      "note": 37,
      "start": 66.0445,
      "duration": 0.1985,
      "velocity": 106,
      "chip": "ym2612"
    },
    {
      "channel": 4,
      "note": 73,
      "start": 66.0448,
      "duration": 0.1985,
      "velocity": 105,
      "chip": "ym2612"
    },
    {
      "channel": 0,
      "note": 37,
      "start": 66.1438,
      "duration": 0.1985,
      "velocity": 106,
      "chip": "ym2612"
    },
    {
      "channel": 3,
      "note": 73,
      "start": 66.1441,
      "duration": 0.1985,
      "velocity": 105,
      "chip": "ym2612"
    },
    {
      "channel": 1,
      "note": 40,
      "start": 66.2431,
      "duration": 0.1985,
      "velocity": 106,
      "chip": "ym2612"
    },
    {
      "channel": 4,
      "note": 76,
      "start": 66.2435,
      "duration": 0.1985,
      "velocity": 105,
      "chip": "ym2612"
    },
    {
      "channel": 0,
      "note": 40,
      "start": 66.3424,
      "duration": 0.1985,
      "velocity": 106,
      "chip": "ym2612"
    },
    {
      "channel": 3,
      "note": 76,
      "start": 66.3428,
      "duration": 0.1985,
      "velocity": 105,
      "chip": "ym2612"
    },
    {
      "channel": 1,
      "note": 37,
      "start": 66.4417,
      "duration": 0.1985,
      "velocity": 106,
      "chip": "ym2612"
    },
    {
      "channel": 4,
      "note": 73,
      "start": 66.4421,
      "duration": 0.1985,
      "velocity": 105,
      "chip": "ym2612"
    },
    {
      "channel": 0,
      "note": 37,
      "start": 66.541,
      "duration": 0.1985,
      "velocity": 106,
      "chip": "ym2612"
    },
    {
      "channel": 3,
      "note": 73,
      "start": 66.5414,
      "duration": 0.1985,
      "velocity": 105,
      "chip": "ym2612"
    },
    {
      "channel": 1,
      "note": 40,
      "start": 66.6404,
      "duration": 0.1985,
      "velocity": 106,
      "chip": "ym2612"
    },
    {
      "channel": 4,
      "note": 76,
      "start": 66.6407,
      "duration": 0.1985,
      "velocity": 105,
      "chip": "ym2612"
    },
    {
      "channel": 0,
      "note": 30,
      "start": 66.7397,
      "duration": 0.1987,
      "velocity": 106,
      "chip": "ym2612"
    },
    {
      "channel": 3,
      "note": 66,
      "start": 66.74,
      "duration": 0.1987,
      "velocity": 105,
      "chip": "ym2612"
    },
    {
      "channel": 1,
      "note": 37,
      "start": 66.839,
      "duration": 0.1988,
      "velocity": 106,
      "chip": "ym2612"
    },
    {
      "channel": 4,
      "note": 73,
      "start": 66.8393,
      "duration": 0.1989,
      "velocity": 105,
      "chip": "ym2612"
    },
    {
      "channel": 0,
      "note": 42,
      "start": 66.9385,
      "duration": 0.1983,
      "velocity": 106,
      "chip": "ym2612"
    },
    {
      "channel": 3,
      "note": 78,
      "start": 66.9388,
      "duration": 0.1983,
      "velocity": 105,
      "chip": "ym2612"
    },
    {
      "channel": 1,
      "note": 30,
      "start": 67.0381,
      "duration": 0.1981,
      "velocity": 106,
      "chip": "ym2612"
    },
    {
      "channel": 4,
      "note": 66,
      "start": 67.0384,
      "duration": 0.1981,
      "velocity": 105,
      "chip": "ym2612"
    },
    {
      "channel": 0,
      "note": 37,
      "start": 67.137,
      "duration": 0.1985,
      "velocity": 106,
      "chip": "ym2612"
    },
    {
      "channel": 3,
      "note": 73,
      "start": 67.1373,
      "duration": 0.1985,
      "velocity": 105,
      "chip": "ym2612"
    },
    {
      "channel": 1,
      "note": 42,
      "start": 67.2363,
      "duration": 0.1985,
      "velocity": 106,
      "chip": "ym2612"
    },
    {
      "channel": 4,
      "note": 78,
      "start": 67.2366,
      "duration": 0.1985,
      "velocity": 105,
      "chip": "ym2612"
    },
    {
      "channel": 0,
      "note": 30,
      "start": 67.3356,
      "duration": 0.1985,
      "velocity": 106,
      "chip": "ym2612"
    },
    {
      "channel": 3,
      "note": 66,
      "start": 67.3359,
      "duration": 0.1985,
      "velocity": 105,
      "chip": "ym2612"
    },
    {
      "channel": 1,
      "note": 37,
      "start": 67.4349,
      "duration": 0.1985,
      "velocity": 106,
      "chip": "ym2612"
    },
    {
      "channel": 4,
      "note": 73,
      "start": 67.4352,
      "duration": 0.1985,
      "velocity": 105,
      "chip": "ym2612"
    },
    {
      "channel": 0,
      "note": 40,
      "start": 67.5342,
      "duration": 0.1985,
      "velocity": 106,
      "chip": "ym2612"
    },
    {
      "channel": 3,
      "note": 76,
      "start": 67.5346,
      "duration": 0.1985,
      "velocity": 105,
      "chip": "ym2612"
    },
    {
      "channel": 1,
      "note": 30,
      "start": 67.6335,
      "duration": 0.1985,
      "velocity": 106,
      "chip": "ym2612"
    },
    {
      "channel": 4,
      "note": 66,
      "start": 67.6339,
      "duration": 0.1985,
      "velocity": 105,
      "chip": "ym2612"
    },
    {
      "channel": 0,
      "note": 37,
      "start": 67.7329,
      "duration": 0.1985,
      "velocity": 106,
      "chip": "ym2612"
    },
    {
      "channel": 3,
      "note": 73,
      "start": 67.7332,
      "duration": 0.1985,
      "velocity": 105,
      "chip": "ym2612"
    },
    {
      "channel": 1,
      "note": 40,
      "start": 67.8322,
      "duration": 0.1985,
      "velocity": 106,
      "chip": "ym2612"
    },
    {
      "channel": 4,
      "note": 76,
      "start": 67.8325,
      "duration": 0.1985,
      "velocity": 105,
      "chip": "ym2612"
    },
    {
      "channel": 0,
      "note": 30,
      "start": 67.9315,
      "duration": 0.1985,
      "velocity": 106,
      "chip": "ym2612"
    },
    {
      "channel": 3,
      "note": 66,
      "start": 67.9318,
      "duration": 0.1985,
      "velocity": 105,
      "chip": "ym2612"
    },
    {
      "channel": 1,
      "note": 37,
      "start": 68.0308,
      "duration": 0.1985,
      "velocity": 106,
      "chip": "ym2612"
    },
    {
      "channel": 4,
      "note": 73,
      "start": 68.0311,
      "duration": 0.1985,
      "velocity": 105,
      "chip": "ym2612"
    },
    {
      "channel": 0,
      "note": 42,
      "start": 68.1301,
      "duration": 0.1985,
      "velocity": 106,
      "chip": "ym2612"
    },
    {
      "channel": 3,
      "note": 78,
      "start": 68.1304,
      "duration": 0.1989,
      "velocity": 105,
      "chip": "ym2612"
    },
    {
      "channel": 1,
      "note": 30,
      "start": 68.2294,
      "duration": 0.1985,
      "velocity": 106,
      "chip": "ym2612"
    },
    {
      "channel": 4,
      "note": 66,
      "start": 68.2297,
      "duration": 0.1985,
      "velocity": 105,
      "chip": "ym2612"
    },
    {
      "channel": 0,
      "note": 37,
      "start": 68.3287,
      "duration": 0.1985,
      "velocity": 106,
      "chip": "ym2612"
    },
    {
      "channel": 2,
      "note": 54,
      "start": 68.3292,
      "duration": 1.5889,
      "velocity": 105,
      "chip": "ym2612"
    },
    {
      "channel": 3,
      "note": 73,
      "start": 68.3295,
      "duration": 0.1981,
      "velocity": 105,
      "chip": "ym2612"
    },
    {
      "channel": 5,
      "note": 54,
      "start": 68.3299,
      "duration": 1.5889,
      "velocity": 105,
      "chip": "ym2612"
    },
    {
      "channel": 1,
      "note": 42,
      "start": 68.428,
      "duration": 0.1985,
      "velocity": 106,
      "chip": "ym2612"
    },
    {
      "channel": 4,
      "note": 78,
      "start": 68.4284,
      "duration": 0.1985,
      "velocity": 105,
      "chip": "ym2612"
    },
    {
      "channel": 0,
      "note": 30,
      "start": 68.5274,
      "duration": 0.1985,
      "velocity": 106,
      "chip": "ym2612"
    },
    {
      "channel": 3,
      "note": 66,
      "start": 68.5277,
      "duration": 0.1985,
      "velocity": 105,
      "chip": "ym2612"
    },
    {
      "channel": 1,
      "note": 37,
      "start": 68.6267,
      "duration": 0.1985,
      "velocity": 106,
      "chip": "ym2612"
    },
    {
      "channel": 4,
      "note": 73,
      "start": 68.627,
      "duration": 0.1985,
      "velocity": 105,
      "chip": "ym2612"
    },
    {
      "channel": 0,
      "note": 40,
      "start": 68.726,
      "duration": 0.1985,
      "velocity": 106,
      "chip": "ym2612"
    },
    {
      "channel": 3,
      "note": 76,
      "start": 68.7263,
      "duration": 0.1985,
      "velocity": 105,
      "chip": "ym2612"
    },
    {
      "channel": 1,
      "note": 30,
      "start": 68.8253,
      "duration": 0.1985,
      "velocity": 106,
      "chip": "ym2612"
    },
    {
      "channel": 4,
      "note": 66,
      "start": 68.8257,
      "duration": 0.1985,
      "velocity": 105,
      "chip": "ym2612"
    },
    {
      "channel": 0,
      "note": 37,
      "start": 68.9246,
      "duration": 0.1985,
      "velocity": 106,
      "chip": "ym2612"
    },
    {
      "channel": 3,
      "note": 73,
      "start": 68.925,
      "duration": 0.1985,
      "velocity": 105,
      "chip": "ym2612"
    },
    {
      "channel": 1,
      "note": 40,
      "start": 69.0239,
      "duration": 0.1985,
      "velocity": 106,
      "chip": "ym2612"
    },
    {
      "channel": 4,
      "note": 76,
      "start": 69.0243,
      "duration": 0.1985,
      "velocity": 105,
      "chip": "ym2612"
    },
    {
      "channel": 0,
      "note": 40,
      "start": 69.1232,
      "duration": 0.1985,
      "velocity": 106,
      "chip": "ym2612"
    },
    {
      "channel": 3,
      "note": 76,
      "start": 69.1236,
      "duration": 0.1985,
      "velocity": 105,
      "chip": "ym2612"
    },
    {
      "channel": 1,
      "note": 37,
      "start": 69.2225,
      "duration": 0.1989,
      "velocity": 106,
      "chip": "ym2612"
    },
    {
      "channel": 4,
      "note": 73,
      "start": 69.2229,
      "duration": 0.1988,
      "velocity": 105,
      "chip": "ym2612"
    },
    {
      "channel": 0,
      "note": 37,
      "start": 69.3219,
      "duration": 0.1985,
      "velocity": 106,
      "chip": "ym2612"
    },
    {
      "channel": 3,
      "note": 73,
      "start": 69.3222,
      "duration": 0.1985,
      "velocity": 105,
      "chip": "ym2612"
    },
    {
      "channel": 1,
      "note": 40,
      "start": 69.4216,
      "duration": 0.1981,
      "velocity": 106,
      "chip": "ym2612"
    },
    {
      "channel": 4,
      "note": 76,
      "start": 69.4219,
      "duration": 0.1982,
      "velocity": 105,
      "chip": "ym2612"
    },
    {
      "channel": 0,
      "note": 40,
      "start": 69.5205,
      "duration": 0.1985,
      "velocity": 106,
      "chip": "ym2612"
    },
    {
      "channel": 3,
      "note": 76,
      "start": 69.5213,
      "duration": 0.1981,
      "velocity": 105,
      "chip": "ym2612"
    },
    {
      "channel": 1,
      "note": 37,
      "start": 69.6198,
      "duration": 0.1985,
      "velocity": 106,
      "chip": "ym2612"
    },
    {
      "channel": 4,
      "note": 73,
      "start": 69.6202,
      "duration": 0.1985,
      "velocity": 105,
      "chip": "ym2612"
    },
    {
      "channel": 0,
      "note": 37,
      "start": 69.7191,
      "duration": 0.1985,
      "velocity": 106,
      "chip": "ym2612"
    },
    {
      "channel": 3,
      "note": 73,
      "start": 69.7195,
      "duration": 0.1989,
      "velocity": 105,
      "chip": "ym2612"
    },
    {
      "channel": 1,
      "note": 40,
      "start": 69.8185,
      "duration": 0.1985,
      "velocity": 106,
      "chip": "ym2612"
    },
    {
      "channel": 4,
      "note": 76,
      "start": 69.8188,
      "duration": 0.1985,
      "velocity": 105,
      "chip": "ym2612"
    },
    {
      "channel": 0,
      "note": 27,
      "start": 69.9178,
      "duration": 0.1985,
      "velocity": 106,
      "chip": "ym2612"
    },
    {
      "channel": 2,
      "note": 63,
      "start": 69.9182,
      "duration": 6.356,
      "velocity": 105,
      "chip": "ym2612"
    },
    {
      "channel": 3,
      "note": 75,
      "start": 69.9185,
      "duration": 0.1981,
      "velocity": 105,
      "chip": "ym2612"
    },
    {
      "channel": 5,
      "note": 63,
      "start": 69.919,
      "duration": 6.356,
      "velocity": 105,
      "chip": "ym2612"
    },
    {
      "channel": 1,
      "note": 34,
      "start": 70.0171,
      "duration": 0.1985,
      "velocity": 106,
      "chip": "ym2612"
    },
    {
      "channel": 4,
      "note": 84,
      "start": 70.0175,
      "duration": 0.1985,
      "velocity": 105,
      "chip": "ym2612"
    },
    {
      "channel": 0,
      "note": 39,
      "start": 70.1164,
      "duration": 0.1985,
      "velocity": 106,
      "chip": "ym2612"
    },
    {
      "channel": 3,
      "note": 87,
      "start": 70.1168,
      "duration": 0.1985,
      "velocity": 105,
      "chip": "ym2612"
    },
    {
      "channel": 1,
      "note": 27,
      "start": 70.2157,
      "duration": 0.1985,
      "velocity": 106,
      "chip": "ym2612"
    },
    {
      "channel": 4,
      "note": 75,
      "start": 70.2161,
      "duration": 0.1985,
      "velocity": 105,
      "chip": "ym2612"
    },
    {
      "channel": 0,
      "note": 34,
      "start": 70.315,
      "duration": 0.1985,
      "velocity": 106,
      "chip": "ym2612"
    },
    {
      "channel": 3,
      "note": 82,
      "start": 70.3154,
      "duration": 0.1985,
      "velocity": 105,
      "chip": "ym2612"
    },
    {
      "channel": 1,
      "note": 39,
      "start": 70.4143,
      "duration": 0.1985,
      "velocity": 106,
      "chip": "ym2612"
    },
    {
      "channel": 4,
      "note": 87,
      "start": 70.4146,
      "duration": 0.1985,
      "velocity": 105,
      "chip": "ym2612"
    },
    {
      "channel": 0,
      "note": 27,
      "start": 70.5136,
      "duration": 0.1985,
      "velocity": 106,
      "chip": "ym2612"
    },
    {
      "channel": 3,
      "note": 75,
      "start": 70.514,
      "duration": 0.1985,
      "velocity": 105,
      "chip": "ym2612"
    },
    {
      "channel": 1,
      "note": 34,
      "start": 70.613,
      "duration": 0.1985,
      "velocity": 106,
      "chip": "ym2612"
    },
    {
      "channel": 4,
      "note": 82,
      "start": 70.6133,
      "duration": 0.1985,
      "velocity": 105,
      "chip": "ym2612"
    },
    {
      "channel": 0,
      "note": 37,
      "start": 70.7123,
      "duration": 0.1985,
      "velocity": 106,
      "chip": "ym2612"
    },
    {
      "channel": 3,
      "note": 85,
      "start": 70.7126,
      "duration": 0.1985,
      "velocity": 105,
      "chip": "ym2612"
    },
    {
      "channel": 1,
      "note": 27,
      "start": 70.8116,
      "duration": 0.1985,
      "velocity": 106,
      "chip": "ym2612"
    },
    {
      "channel": 4,
      "note": 75,
      "start": 70.8119,
      "duration": 0.1985,
      "velocity": 105,
      "chip": "ym2612"
    },
    {
      "channel": 0,
      "note": 34,
      "start": 70.9109,
      "duration": 0.1985,
      "velocity": 106,
      "chip": "ym2612"
    },
    {
      "channel": 3,
      "note": 82,
      "start": 70.9113,
      "duration": 0.1985,
      "velocity": 105,
      "chip": "ym2612"
    },
    {
      "channel": 1,
      "note": 37,
      "start": 71.0102,
      "duration": 0.1985,
      "velocity": 106,
      "chip": "ym2612"
    },
    {
      "channel": 4,
      "note": 85,
      "start": 71.0106,
      "duration": 0.1985,
      "velocity": 105,
      "chip": "ym2612"
    },
    {
      "channel": 0,
      "note": 27,
      "start": 71.1096,
      "duration": 0.1985,
      "velocity": 106,
      "chip": "ym2612"
    },
    {
      "channel": 3,
      "note": 75,
      "start": 71.1099,
      "duration": 0.1985,
      "velocity": 105,
      "chip": "ym2612"
    },
    {
      "channel": 1,
      "note": 34,
      "start": 71.2089,
      "duration": 0.1985,
      "velocity": 106,
      "chip": "ym2612"
    },
    {
      "channel": 4,
      "note": 82,
      "start": 71.2092,
      "duration": 0.1985,
      "velocity": 105,
      "chip": "ym2612"
    },
    {
      "channel": 0,
      "note": 39,
      "start": 71.3082,
      "duration": 0.1985,
      "velocity": 106,
      "chip": "ym2612"
    },
    {
      "channel": 3,
      "note": 89,
      "start": 71.3085,
      "duration": 0.1985,
      "velocity": 105,
      "chip": "ym2612"
    },
    {
      "channel": 1,
      "note": 27,
      "start": 71.4075,
      "duration": 0.1985,
      "velocity": 106,
      "chip": "ym2612"
    },
    {
      "channel": 4,
      "note": 75,
      "start": 71.4078,
      "duration": 0.1985,
      "velocity": 105,
      "chip": "ym2612"
    },
    {
      "channel": 0,
      "note": 34,
      "start": 71.5068,
      "duration": 0.1985,
      "velocity": 106,
      "chip": "ym2612"
    },
    {
      "channel": 3,
      "note": 82,
      "start": 71.5071,
      "duration": 0.1985,
      "velocity": 105,
      "chip": "ym2612"
    },
    {
      "channel": 1,
      "note": 39,
      "start": 71.6061,
      "duration": 0.1989,
      "velocity": 106,
      "chip": "ym2612"
    },
    {
      "channel": 4,
      "note": 89,
      "start": 71.6064,
      "duration": 0.1989,
      "velocity": 105,
      "chip": "ym2612"
    },
    {
      "channel": 0,
      "note": 27,
      "start": 71.7054,
      "duration": 0.1985,
      "velocity": 106,
      "chip": "ym2612"
    },
    {
      "channel": 3,
      "note": 75,
      "start": 71.7057,
      "duration": 0.1989,
      "velocity": 105,
      "chip": "ym2612"
    },
    {
      "channel": 1,
      "note": 34,
      "start": 71.8052,
      "duration": 0.1981,
      "velocity": 106,
      "chip": "ym2612"
    },
    {
      "channel": 4,
      "note": 82,
      "start": 71.8055,
      "duration": 0.1981,
      "velocity": 105,
      "chip": "ym2612"
    },
    {
      "channel": 0,
      "note": 37,
      "start": 71.9045,
      "duration": 0.1981,
      "velocity": 106,
      "chip": "ym2612"
    },
    {
      "channel": 3,
      "note": 85,
      "start": 71.9048,
      "duration": 0.1981,
      "velocity": 105,
      "chip": "ym2612"
    },
    {
      "channel": 1,
      "note": 27,
      "start": 72.0034,
      "duration": 0.1985,
      "velocity": 106,
      "chip": "ym2612"
    },
    {
      "channel": 4,
      "note": 75,
      "start": 72.0037,
      "duration": 0.1985,
      "velocity": 105,
      "chip": "ym2612"
    },
    {
      "channel": 0,
      "note": 34,
      "start": 72.1027,
      "duration": 0.1985,
      "velocity": 106,
      "chip": "ym2612"
    },
    {
      "channel": 3,
      "note": 82,
      "start": 72.103,
      "duration": 0.1985,
      "velocity": 105,
      "chip": "ym2612"
    },
    {
      "channel": 1,
      "note": 37,
      "start": 72.202,
      "duration": 0.1985,
      "velocity": 106,
      "chip": "ym2612"
    },
    {
      "channel": 4,
      "note": 85,
      "start": 72.2024,
      "duration": 0.1985,
      "velocity": 105,
      "chip": "ym2612"
    },
    {
      "channel": 0,
      "note": 37,
      "start": 72.3013,
      "duration": 0.1985,
      "velocity": 106,
      "chip": "ym2612"
    },
    {
      "channel": 3,
      "note": 85,
      "start": 72.3017,
      "duration": 0.1985,
      "velocity": 105,
      "chip": "ym2612"
    },
    {
      "channel": 1,
      "note": 34,
      "start": 72.4007,
      "duration": 0.1985,
      "velocity": 106,
      "chip": "ym2612"
    },
    {
      "channel": 4,
      "note": 82,
      "start": 72.401,
      "duration": 0.1985,
      "velocity": 105,
      "chip": "ym2612"
    },
    {
      "channel": 0,
      "note": 34,
      "start": 72.5,
      "duration": 0.1985,
      "velocity": 106,
      "chip": "ym2612"
    },
    {
      "channel": 3,
      "note": 82,
      "start": 72.5003,
      "duration": 0.1985,
      "velocity": 105,
      "chip": "ym2612"
    },
    {
      "channel": 1,
      "note": 37,
      "start": 72.5993,
      "duration": 0.1985,
      "velocity": 106,
      "chip": "ym2612"
    },
    {
      "channel": 4,
      "note": 85,
      "start": 72.5996,
      "duration": 0.1985,
      "velocity": 105,
      "chip": "ym2612"
    },
    {
      "channel": 0,
      "note": 37,
      "start": 72.6985,
      "duration": 0.1985,
      "velocity": 106,
      "chip": "ym2612"
    },
    {
      "channel": 3,
      "note": 85,
      "start": 72.6989,
      "duration": 0.1985,
      "velocity": 105,
      "chip": "ym2612"
    },
    {
      "channel": 1,
      "note": 34,
      "start": 72.7979,
      "duration": 0.1985,
      "velocity": 106,
      "chip": "ym2612"
    },
    {
      "channel": 4,
      "note": 82,
      "start": 72.7982,
      "duration": 0.1985,
      "velocity": 105,
      "chip": "ym2612"
    },
    {
      "channel": 0,
      "note": 34,
      "start": 72.8972,
      "duration": 0.1985,
      "velocity": 106,
      "chip": "ym2612"
    },
    {
      "channel": 3,
      "note": 84,
      "start": 72.8976,
      "duration": 0.1985,
      "velocity": 105,
      "chip": "ym2612"
    },
    {
      "channel": 1,
      "note": 37,
      "start": 72.9965,
      "duration": 0.1985,
      "velocity": 106,
      "chip": "ym2612"
    },
    {
      "channel": 4,
      "note": 85,
      "start": 72.9968,
      "duration": 0.1985,
      "velocity": 105,
      "chip": "ym2612"
    },
    {
      "channel": 0,
      "note": 27,
      "start": 73.0959,
      "duration": 0.1985,
      "velocity": 106,
      "chip": "ym2612"
    },
    {
      "channel": 3,
      "note": 75,
      "start": 73.0962,
      "duration": 0.1985,
      "velocity": 105,
      "chip": "ym2612"
    },
    {
      "channel": 1,
      "note": 34,
      "start": 73.1952,
      "duration": 0.1985,
      "velocity": 106,
      "chip": "ym2612"
    },
    {
      "channel": 4,
      "note": 84,
      "start": 73.1955,
      "duration": 0.1985,
      "velocity": 105,
      "chip": "ym2612"
    },
    {
      "channel": 0,
      "note": 39,
      "start": 73.2945,
      "duration": 0.1985,
      "velocity": 106,
      "chip": "ym2612"
    },
    {
      "channel": 3,
      "note": 87,
      "start": 73.2948,
      "duration": 0.1985,
      "velocity": 105,
      "chip": "ym2612"
    },
    {
      "channel": 1,
      "note": 27,
      "start": 73.3938,
      "duration": 0.1985,
      "velocity": 106,
      "chip": "ym2612"
    },
    {
      "channel": 4,
      "note": 75,
      "start": 73.3941,
      "duration": 0.1985,
      "velocity": 105,
      "chip": "ym2612"
    },
    {
      "channel": 0,
      "note": 34,
      "start": 73.4931,
      "duration": 0.1985,
      "velocity": 106,
      "chip": "ym2612"
    },
    {
      "channel": 3,
      "note": 82,
      "start": 73.4934,
      "duration": 0.1985,
      "velocity": 105,
      "chip": "ym2612"
    },
    {
      "channel": 1,
      "note": 39,
      "start": 73.5924,
      "duration": 0.1985,
      "velocity": 106,
      "chip": "ym2612"
    },
    {
      "channel": 4,
      "note": 87,
      "start": 73.5928,
      "duration": 0.1985,
      "velocity": 105,
      "chip": "ym2612"
    },
    {
      "channel": 0,
      "note": 27,
      "start": 73.6917,
      "duration": 0.1985,
      "velocity": 106,
      "chip": "ym2612"
    },
    {
      "channel": 3,
      "note": 75,
      "start": 73.6921,
      "duration": 0.1985,
      "velocity": 105,
      "chip": "ym2612"
    },
    {
      "channel": 1,
      "note": 34,
      "start": 73.791,
      "duration": 0.1985,
      "velocity": 106,
      "chip": "ym2612"
    },
    {
      "channel": 4,
      "note": 82,
      "start": 73.7914,
      "duration": 0.1985,
      "velocity": 105,
      "chip": "ym2612"
    },
    {
      "channel": 0,
      "note": 37,
      "start": 73.8904,
      "duration": 0.1985,
      "velocity": 106,
      "chip": "ym2612"
    },
    {
      "channel": 3,
      "note": 85,
      "start": 73.8907,
      "duration": 0.1985,
      "velocity": 105,
      "chip": "ym2612"
    },
    {
      "channel": 1,
      "note": 27,
      "start": 73.9897,
      "duration": 0.1987,
      "velocity": 106,
      "chip": "ym2612"
    },
    {
      "channel": 4,
      "note": 75,
      "start": 73.99,
      "duration": 0.1987,
      "velocity": 105,
      "chip": "ym2612"
    },
    {
      "channel": 0,
      "note": 34,
      "start": 74.089,
      "duration": 0.1988,
      "velocity": 106,
      "chip": "ym2612"
    },
    {
      "channel": 3,
      "note": 82,
      "start": 74.0893,
      "duration": 0.1989,
      "velocity": 105,
      "chip": "ym2612"
    },
    {
      "channel": 1,
      "note": 37,
      "start": 74.1885,
      "duration": 0.1983,
      "velocity": 106,
      "chip": "ym2612"
    },
    {
      "channel": 4,
      "note": 85,
      "start": 74.1889,
      "duration": 0.1983,
      "velocity": 105,
      "chip": "ym2612"
    },
    {
      "channel": 0,
      "note": 27,
      "start": 74.2881,
      "duration": 0.198,
      "velocity": 106,
      "chip": "ym2612"
    },
    {
      "channel": 3,
      "note": 75,
      "start": 74.2884,
      "duration": 0.1981,
      "velocity": 105,
      "chip": "ym2612"
    },
    {
      "channel": 1,
      "note": 34,
      "start": 74.3869,
      "duration": 0.1985,
      "velocity": 106,
      "chip": "ym2612"
    },
    {
      "channel": 4,
      "note": 82,
      "start": 74.3873,
      "duration": 0.1985,
      "velocity": 105,
      "chip": "ym2612"
    },
    {
      "channel": 0,
      "note": 39,
      "start": 74.4863,
      "duration": 0.1985,
      "velocity": 106,
      "chip": "ym2612"
    },
    {
      "channel": 3,
      "note": 89,
      "start": 74.4866,
      "duration": 0.1985,
      "velocity": 105,
      "chip": "ym2612"
    },
    {
      "channel": 1,
      "note": 27,
      "start": 74.5856,
      "duration": 0.1985,
      "velocity": 106,
      "chip": "ym2612"
    },
    {
      "channel": 4,
      "note": 75,
      "start": 74.5859,
      "duration": 0.1985,
      "velocity": 105,
      "chip": "ym2612"
    },
    {
      "channel": 0,
      "note": 34,
      "start": 74.6849,
      "duration": 0.1985,
      "velocity": 106,
      "chip": "ym2612"
    },
    {
      "channel": 3,
      "note": 82,
      "start": 74.6852,
      "duration": 0.1985,
      "velocity": 105,
      "chip": "ym2612"
    },
    {
      "channel": 1,
      "note": 39,
      "start": 74.7842,
      "duration": 0.1985,
      "velocity": 106,
      "chip": "ym2612"
    },
    {
      "channel": 4,
      "note": 89,
      "start": 74.7845,
      "duration": 0.1985,
      "velocity": 105,
      "chip": "ym2612"
    },
    {
      "channel": 0,
      "note": 27,
      "start": 74.8835,
      "duration": 0.1985,
      "velocity": 106,
      "chip": "ym2612"
    },
    {
      "channel": 3,
      "note": 75,
      "start": 74.8839,
      "duration": 0.1985,
      "velocity": 105,
      "chip": "ym2612"
    },
    {
      "channel": 1,
      "note": 34,
      "start": 74.9829,
      "duration": 0.1985,
      "velocity": 106,
      "chip": "ym2612"
    },
    {
      "channel": 4,
      "note": 82,
      "start": 74.9832,
      "duration": 0.1985,
      "velocity": 105,
      "chip": "ym2612"
    },
    {
      "channel": 0,
      "note": 37,
      "start": 75.0822,
      "duration": 0.1985,
      "velocity": 106,
      "chip": "ym2612"
    },
    {
      "channel": 3,
      "note": 85,
      "start": 75.0825,
      "duration": 0.1985,
      "velocity": 105,
      "chip": "ym2612"
    },
    {
      "channel": 1,
      "note": 27,
      "start": 75.1815,
      "duration": 0.1985,
      "velocity": 106,
      "chip": "ym2612"
    },
    {
      "channel": 4,
      "note": 75,
      "start": 75.1818,
      "duration": 0.1985,
      "velocity": 105,
      "chip": "ym2612"
    },
    {
      "channel": 0,
      "note": 34,
      "start": 75.2808,
      "duration": 0.1985,
      "velocity": 106,
      "chip": "ym2612"
    },
    {
      "channel": 3,
      "note": 82,
      "start": 75.2811,
      "duration": 0.1985,
      "velocity": 105,
      "chip": "ym2612"
    },
    {
      "channel": 1,
      "note": 37,
      "start": 75.3801,
      "duration": 0.1985,
      "velocity": 106,
      "chip": "ym2612"
    },
    {
      "channel": 4,
      "note": 85,
      "start": 75.3804,
      "duration": 0.1985,
      "velocity": 105,
      "chip": "ym2612"
    },
    {
      "channel": 0,
      "note": 37,
      "start": 75.4794,
      "duration": 0.1985,
      "velocity": 106,
      "chip": "ym2612"
    },
    {
      "channel": 3,
      "note": 85,
      "start": 75.4797,
      "duration": 0.1985,
      "velocity": 105,
      "chip": "ym2612"
    },
    {
      "channel": 1,
      "note": 34,
      "start": 75.5787,
      "duration": 0.1985,
      "velocity": 106,
      "chip": "ym2612"
    },
    {
      "channel": 4,
      "note": 82,
      "start": 75.579,
      "duration": 0.1985,
      "velocity": 105,
      "chip": "ym2612"
    },
    {
      "channel": 0,
      "note": 34,
      "start": 75.678,
      "duration": 0.1985,
      "velocity": 106,
      "chip": "ym2612"
    },
    {
      "channel": 3,
      "note": 82,
      "start": 75.6784,
      "duration": 0.1985,
      "velocity": 105,
      "chip": "ym2612"
    },
    {
      "channel": 1,
      "note": 37,
      "start": 75.7774,
      "duration": 0.1985,
      "velocity": 106,
      "chip": "ym2612"
    },
    {
      "channel": 4,
      "note": 85,
      "start": 75.7777,
      "duration": 0.1985,
      "velocity": 105,
      "chip": "ym2612"
    },
    {
      "channel": 0,
      "note": 37,
      "start": 75.8767,
      "duration": 0.1985,
      "velocity": 106,
      "chip": "ym2612"
    },
    {
      "channel": 3,
      "note": 85,
      "start": 75.877,
      "duration": 0.1985,
      "velocity": 105,
      "chip": "ym2612"
    },
    {
      "channel": 1,
      "note": 34,
      "start": 75.976,
      "duration": 0.1985,
      "velocity": 106,
      "chip": "ym2612"
    },
    {
      "channel": 4,
      "note": 82,
      "start": 75.9763,
      "duration": 0.1985,
      "velocity": 105,
      "chip": "ym2612"
    },
    {
      "channel": 0,
      "note": 34,
      "start": 76.0753,
      "duration": 0.1985,
      "velocity": 106,
      "chip": "ym2612"
    },
    {
      "channel": 3,
      "note": 84,
      "start": 76.0757,
      "duration": 0.1989,
      "velocity": 105,
      "chip": "ym2612"
    },
    {
      "channel": 1,
      "note": 37,
      "start": 76.1746,
      "duration": 0.1985,
      "velocity": 106,
      "chip": "ym2612"
    },
    {
      "channel": 4,
      "note": 85,
      "start": 76.175,
      "duration": 0.1985,
      "velocity": 105,
      "chip": "ym2612"
    },
    {
      "channel": 0,
      "note": 27,
      "start": 76.2739,
      "duration": 0.1985,
      "velocity": 106,
      "chip": "ym2612"
    },
    {
      "channel": 2,
      "note": 63,
      "start": 76.2744,
      "duration": 6.3585,
      "velocity": 106,
      "chip": "ym2612"
    },
    {
      "channel": 3,
      "note": 75,
      "start": 76.2747,
      "duration": 0.1981,
      "velocity": 105,
      "chip": "ym2612"
    },
    {
      "channel": 5,
      "note": 63,
      "start": 76.2751,
      "duration": 6.4571,
      "velocity": 106,
      "chip": "ym2612"
    },
    {
      "channel": 1,
      "note": 34,
      "start": 76.3732,
      "duration": 0.1985,
      "velocity": 106,
      "chip": "ym2612"
    },
    {
      "channel": 4,
      "note": 84,
      "start": 76.3736,
      "duration": 0.1985,
      "velocity": 105,
      "chip": "ym2612"
    },
    {
      "channel": 0,
      "note": 39,
      "start": 76.4725,
      "duration": 0.1989,
      "velocity": 106,
      "chip": "ym2612"
    },
    {
      "channel": 3,
      "note": 87,
      "start": 76.4729,
      "duration": 0.1988,
      "velocity": 105,
      "chip": "ym2612"
    },
    {
      "channel": 1,
      "note": 27,
      "start": 76.5718,
      "duration": 0.1985,
      "velocity": 106,
      "chip": "ym2612"
    },
    {
      "channel": 4,
      "note": 75,
      "start": 76.5722,
      "duration": 0.1985,
      "velocity": 105,
      "chip": "ym2612"
    },
    {
      "channel": 0,
      "note": 34,
      "start": 76.6716,
      "duration": 0.1981,
      "velocity": 106,
      "chip": "ym2612"
    },
    {
      "channel": 3,
      "note": 82,
      "start": 76.6719,
      "duration": 0.1981,
      "velocity": 105,
      "chip": "ym2612"
    },
    {
      "channel": 1,
      "note": 39,
      "start": 76.7705,
      "duration": 0.1985,
      "velocity": 106,
      "chip": "ym2612"
    },
    {
      "channel": 4,
      "note": 87,
      "start": 76.7713,
      "duration": 0.1981,
      "velocity": 105,
      "chip": "ym2612"
    },
    {
      "channel": 0,
      "note": 27,
      "start": 76.8698,
      "duration": 0.1985,
      "velocity": 106,
      "chip": "ym2612"
    },
    {
      "channel": 3,
      "note": 75,
      "start": 76.8701,
      "duration": 0.1985,
      "velocity": 105,
      "chip": "ym2612"
    },
    {
      "channel": 1,
      "note": 34,
      "start": 76.9691,
      "duration": 0.1985,
      "velocity": 106,
      "chip": "ym2612"
    },
    {
      "channel": 4,
      "note": 82,
      "start": 76.9695,
      "duration": 0.1985,
      "velocity": 105,
      "chip": "ym2612"
    },
    {
      "channel": 0,
      "note": 37,
      "start": 77.0685,
      "duration": 0.1985,
      "velocity": 106,
      "chip": "ym2612"
    },
    {
      "channel": 3,
      "note": 85,
      "start": 77.0688,
      "duration": 0.1985,
      "velocity": 105,
      "chip": "ym2612"
    },
    {
      "channel": 1,
      "note": 27,
      "start": 77.1678,
      "duration": 0.1985,
      "velocity": 106,
      "chip": "ym2612"
    },
    {
      "channel": 4,
      "note": 75,
      "start": 77.1681,
      "duration": 0.1985,
      "velocity": 105,
      "chip": "ym2612"
    },
    {
      "channel": 0,
      "note": 34,
      "start": 77.2671,
      "duration": 0.1985,
      "velocity": 106,
      "chip": "ym2612"
    },
    {
      "channel": 3,
      "note": 82,
      "start": 77.2674,
      "duration": 0.1985,
      "velocity": 105,
      "chip": "ym2612"
    },
    {
      "channel": 1,
      "note": 37,
      "start": 77.3664,
      "duration": 0.1985,
      "velocity": 106,
      "chip": "ym2612"
    },
    {
      "channel": 4,
      "note": 85,
      "start": 77.3668,
      "duration": 0.1985,
      "velocity": 105,
      "chip": "ym2612"
    },
    {
      "channel": 0,
      "note": 27,
      "start": 77.4657,
      "duration": 0.1985,
      "velocity": 106,
      "chip": "ym2612"
    },
    {
      "channel": 3,
      "note": 75,
      "start": 77.4661,
      "duration": 0.1985,
      "velocity": 105,
      "chip": "ym2612"
    },
    {
      "channel": 1,
      "note": 34,
      "start": 77.565,
      "duration": 0.1985,
      "velocity": 106,
      "chip": "ym2612"
    },
    {
      "channel": 4,
      "note": 82,
      "start": 77.5654,
      "duration": 0.1985,
      "velocity": 105,
      "chip": "ym2612"
    },
    {
      "channel": 0,
      "note": 39,
      "start": 77.6643,
      "duration": 0.1985,
      "velocity": 106,
      "chip": "ym2612"
    },
    {
      "channel": 3,
      "note": 89,
      "start": 77.6646,
      "duration": 0.1985,
      "velocity": 105,
      "chip": "ym2612"
    },
    {
      "channel": 1,
      "note": 27,
      "start": 77.7636,
      "duration": 0.1985,
      "velocity": 106,
      "chip": "ym2612"
    },
    {
      "channel": 4,
      "note": 75,
      "start": 77.764,
      "duration": 0.1985,
      "velocity": 105,
      "chip": "ym2612"
    },
    {
      "channel": 0,
      "note": 34,
      "start": 77.8629,
      "duration": 0.1985,
      "velocity": 106,
      "chip": "ym2612"
    },
    {
      "channel": 3,
      "note": 82,
      "start": 77.8633,
      "duration": 0.1985,
      "velocity": 105,
      "chip": "ym2612"
    },
    {
      "channel": 1,
      "note": 39,
      "start": 77.9623,
      "duration": 0.1985,
      "velocity": 106,
      "chip": "ym2612"
    },
    {
      "channel": 4,
      "note": 89,
      "start": 77.9626,
      "duration": 0.1985,
      "velocity": 105,
      "chip": "ym2612"
    },
    {
      "channel": 0,
      "note": 27,
      "start": 78.0616,
      "duration": 0.1985,
      "velocity": 106,
      "chip": "ym2612"
    },
    {
      "channel": 3,
      "note": 75,
      "start": 78.0619,
      "duration": 0.1985,
      "velocity": 105,
      "chip": "ym2612"
    },
    {
      "channel": 1,
      "note": 34,
      "start": 78.1609,
      "duration": 0.1985,
      "velocity": 106,
      "chip": "ym2612"
    },
    {
      "channel": 4,
      "note": 82,
      "start": 78.1612,
      "duration": 0.1985,
      "velocity": 105,
      "chip": "ym2612"
    },
    {
      "channel": 0,
      "note": 37,
      "start": 78.2602,
      "duration": 0.1985,
      "velocity": 106,
      "chip": "ym2612"
    },
    {
      "channel": 3,
      "note": 85,
      "start": 78.2606,
      "duration": 0.1985,
      "velocity": 105,
      "chip": "ym2612"
    },
    {
      "channel": 1,
      "note": 27,
      "start": 78.3596,
      "duration": 0.1985,
      "velocity": 106,
      "chip": "ym2612"
    },
    {
      "channel": 4,
      "note": 75,
      "start": 78.3599,
      "duration": 0.1985,
      "velocity": 105,
      "chip": "ym2612"
    },
    {
      "channel": 0,
      "note": 34,
      "start": 78.4589,
      "duration": 0.1985,
      "velocity": 106,
      "chip": "ym2612"
    },
    {
      "channel": 3,
      "note": 82,
      "start": 78.4592,
      "duration": 0.1985,
      "velocity": 105,
      "chip": "ym2612"
    },
    {
      "channel": 1,
      "note": 37,
      "start": 78.5582,
      "duration": 0.1985,
      "velocity": 106,
      "chip": "ym2612"
    },
    {
      "channel": 4,
      "note": 85,
      "start": 78.5585,
      "duration": 0.1985,
      "velocity": 105,
      "chip": "ym2612"
    },
    {
      "channel": 0,
      "note": 37,
      "start": 78.6575,
      "duration": 0.1985,
      "velocity": 106,
      "chip": "ym2612"
    },
    {
      "channel": 3,
      "note": 85,
      "start": 78.6578,
      "duration": 0.1985,
      "velocity": 105,
      "chip": "ym2612"
    },
    {
      "channel": 1,
      "note": 34,
      "start": 78.7568,
      "duration": 0.1985,
      "velocity": 106,
      "chip": "ym2612"
    },
    {
      "channel": 4,
      "note": 82,
      "start": 78.7571,
      "duration": 0.1985,
      "velocity": 105,
      "chip": "ym2612"
    },
    {
      "channel": 0,
      "note": 34,
      "start": 78.8561,
      "duration": 0.1989,
      "velocity": 106,
      "chip": "ym2612"
    },
    {
      "channel": 3,
      "note": 82,
      "start": 78.8564,
      "duration": 0.1989,
      "velocity": 105,
      "chip": "ym2612"
    },
    {
      "channel": 1,
      "note": 37,
      "start": 78.9554,
      "duration": 0.1985,
      "velocity": 106,
      "chip": "ym2612"
    },
    {
      "channel": 4,
      "note": 85,
      "start": 78.9557,
      "duration": 0.1989,
      "velocity": 105,
      "chip": "ym2612"
    },
    {
      "channel": 0,
      "note": 37,
      "start": 79.0552,
      "duration": 0.1981,
      "velocity": 106,
      "chip": "ym2612"
    },
    {
      "channel": 3,
      "note": 85,
      "start": 79.0555,
      "duration": 0.1981,
      "velocity": 105,
      "chip": "ym2612"
    },
    {
      "channel": 1,
      "note": 34,
      "start": 79.1545,
      "duration": 0.1981,
      "velocity": 106,
      "chip": "ym2612"
    },
    {
      "channel": 4,
      "note": 82,
      "start": 79.1548,
      "duration": 0.1981,
      "velocity": 105,
      "chip": "ym2612"
    },
    {
      "channel": 0,
      "note": 34,
      "start": 79.2534,
      "duration": 0.1985,
      "velocity": 106,
      "chip": "ym2612"
    },
    {
      "channel": 3,
      "note": 84,
      "start": 79.2537,
      "duration": 0.1985,
      "velocity": 105,
      "chip": "ym2612"
    },
    {
      "channel": 1,
      "note": 37,
      "start": 79.3527,
      "duration": 0.1985,
      "velocity": 106,
      "chip": "ym2612"
    },
    {
      "channel": 4,
      "note": 85,
      "start": 79.353,
      "duration": 0.1985,
      "velocity": 105,
      "chip": "ym2612"
    },
    {
      "channel": 0,
      "note": 27,
      "start": 79.452,
      "duration": 0.1985,
      "velocity": 106,
      "chip": "ym2612"
    },
    {
      "channel": 3,
      "note": 75,
      "start": 79.4524,
      "duration": 0.1985,
      "velocity": 105,
      "chip": "ym2612"
    },
    {
      "channel": 1,
      "note": 34,
      "start": 79.5514,
      "duration": 0.1985,
      "velocity": 106,
      "chip": "ym2612"
    },
    {
      "channel": 4,
      "note": 84,
      "start": 79.5517,
      "duration": 0.1985,
      "velocity": 105,
      "chip": "ym2612"
    },
    {
      "channel": 0,
      "note": 39,
      "start": 79.6507,
      "duration": 0.1985,
      "velocity": 106,
      "chip": "ym2612"
    },
    {
      "channel": 3,
      "note": 87,
      "start": 79.651,
      "duration": 0.1985,
      "velocity": 105,
      "chip": "ym2612"
    },
    {
      "channel": 1,
      "note": 27,
      "start": 79.75,
      "duration": 0.1985,
      "velocity": 106,
      "chip": "ym2612"
    },
    {
      "channel": 4,
      "note": 75,
      "start": 79.7503,
      "duration": 0.1985,
      "velocity": 105,
      "chip": "ym2612"
    },
    {
      "channel": 0,
      "note": 34,
      "start": 79.8493,
      "duration": 0.1985,
      "velocity": 106,
      "chip": "ym2612"
    },
    {
      "channel": 3,
      "note": 82,
      "start": 79.8496,
      "duration": 0.1985,
      "velocity": 105,
      "chip": "ym2612"
    },
    {
      "channel": 1,
      "note": 39,
      "start": 79.9485,
      "duration": 0.1985,
      "velocity": 106,
      "chip": "ym2612"
    },
    {
      "channel": 4,
      "note": 87,
      "start": 79.9489,
      "duration": 0.1985,
      "velocity": 105,
      "chip": "ym2612"
    },
    {
      "channel": 0,
      "note": 27,
      "start": 80.0479,
      "duration": 0.1985,
      "velocity": 106,
      "chip": "ym2612"
    },
    {
      "channel": 3,
      "note": 75,
      "start": 80.0482,
      "duration": 0.1985,
      "velocity": 105,
      "chip": "ym2612"
    },
    {
      "channel": 1,
      "note": 34,
      "start": 80.1472,
      "duration": 0.1985,
      "velocity": 106,
      "chip": "ym2612"
    },
    {
      "channel": 4,
      "note": 82,
      "start": 80.1476,
      "duration": 0.1985,
      "velocity": 105,
      "chip": "ym2612"
    },
    {
      "channel": 0,
      "note": 37,
      "start": 80.2465,
      "duration": 0.1985,
      "velocity": 106,
      "chip": "ym2612"
    },
    {
      "channel": 3,
      "note": 85,
      "start": 80.2468,
      "duration": 0.1985,
      "velocity": 105,
      "chip": "ym2612"
    },
    {
      "channel": 1,
      "note": 27,
      "start": 80.3458,
      "duration": 0.1985,
      "velocity": 106,
      "chip": "ym2612"
    },
    {
      "channel": 4,
      "note": 75,
      "start": 80.3462,
      "duration": 0.1985,
      "velocity": 105,
      "chip": "ym2612"
    },
    {
      "channel": 0,
      "note": 34,
      "start": 80.4452,
      "duration": 0.1985,
      "velocity": 106,
      "chip": "ym2612"
    },
    {
      "channel": 3,
      "note": 82,
      "start": 80.4455,
      "duration": 0.1985,
      "velocity": 105,
      "chip": "ym2612"
    },
    {
      "channel": 1,
      "note": 37,
      "start": 80.5445,
      "duration": 0.1985,
      "velocity": 106,
      "chip": "ym2612"
    },
    {
      "channel": 4,
      "note": 85,
      "start": 80.5448,
      "duration": 0.1985,
      "velocity": 105,
      "chip": "ym2612"
    },
    {
      "channel": 0,
      "note": 27,
      "start": 80.6438,
      "duration": 0.1985,
      "velocity": 106,
      "chip": "ym2612"
    },
    {
      "channel": 3,
      "note": 75,
      "start": 80.6441,
      "duration": 0.1985,
      "velocity": 105,
      "chip": "ym2612"
    },
    {
      "channel": 1,
      "note": 34,
      "start": 80.7431,
      "duration": 0.1985,
      "velocity": 106,
      "chip": "ym2612"
    },
    {
      "channel": 4,
      "note": 82,
      "start": 80.7435,
      "duration": 0.1985,
      "velocity": 105,
      "chip": "ym2612"
    },
    {
      "channel": 0,
      "note": 39,
      "start": 80.8424,
      "duration": 0.1985,
      "velocity": 106,
      "chip": "ym2612"
    },
    {
      "channel": 3,
      "note": 89,
      "start": 80.8428,
      "duration": 0.1985,
      "velocity": 105,
      "chip": "ym2612"
    },
    {
      "channel": 1,
      "note": 27,
      "start": 80.9417,
      "duration": 0.1985,
      "velocity": 106,
      "chip": "ym2612"
    },
    {
      "channel": 4,
      "note": 75,
      "start": 80.9421,
      "duration": 0.1985,
      "velocity": 105,
      "chip": "ym2612"
    },
    {
      "channel": 0,
      "note": 34,
      "start": 81.041,
      "duration": 0.1985,
      "velocity": 106,
      "chip": "ym2612"
    },
    {
      "channel": 3,
      "note": 82,
      "start": 81.0414,
      "duration": 0.1985,
      "velocity": 105,
      "chip": "ym2612"
    },
    {
      "channel": 1,
      "note": 39,
      "start": 81.1404,
      "duration": 0.1985,
      "velocity": 106,
      "chip": "ym2612"
    },
    {
      "channel": 4,
      "note": 89,
      "start": 81.1407,
      "duration": 0.1985,
      "velocity": 105,
      "chip": "ym2612"
    },
    {
      "channel": 0,
      "note": 27,
      "start": 81.2397,
      "duration": 0.1987,
      "velocity": 106,
      "chip": "ym2612"
    },
    {
      "channel": 3,
      "note": 75,
      "start": 81.24,
      "duration": 0.1987,
      "velocity": 105,
      "chip": "ym2612"
    },
    {
      "channel": 1,
      "note": 34,
      "start": 81.339,
      "duration": 0.1988,
      "velocity": 106,
      "chip": "ym2612"
    },
    {
      "channel": 4,
      "note": 82,
      "start": 81.3393,
      "duration": 0.1989,
      "velocity": 105,
      "chip": "ym2612"
    },
    {
      "channel": 0,
      "note": 37,
      "start": 81.4385,
      "duration": 0.1983,
      "velocity": 106,
      "chip": "ym2612"
    },
    {
      "channel": 3,
      "note": 85,
      "start": 81.4388,
      "duration": 0.1983,
      "velocity": 105,
      "chip": "ym2612"
    },
    {
      "channel": 1,
      "note": 27,
      "start": 81.5381,
      "duration": 0.198,
      "velocity": 106,
      "chip": "ym2612"
    },
    {
      "channel": 4,
      "note": 75,
      "start": 81.5384,
      "duration": 0.1981,
      "velocity": 105,
      "chip": "ym2612"
    },
    {
      "channel": 0,
      "note": 34,
      "start": 81.6369,
      "duration": 0.1985,
      "velocity": 106,
      "chip": "ym2612"
    },
    {
      "channel": 3,
      "note": 82,
      "start": 81.6373,
      "duration": 0.1985,
      "velocity": 105,
      "chip": "ym2612"
    },
    {
      "channel": 1,
      "note": 37,
      "start": 81.7363,
      "duration": 0.1985,
      "velocity": 106,
      "chip": "ym2612"
    },
    {
      "channel": 4,
      "note": 85,
      "start": 81.7366,
      "duration": 0.1985,
      "velocity": 105,
      "chip": "ym2612"
    },
    {
      "channel": 0,
      "note": 37,
      "start": 81.8356,
      "duration": 0.1985,
      "velocity": 106,
      "chip": "ym2612"
    },
    {
      "channel": 3,
      "note": 85,
      "start": 81.8359,
      "duration": 0.1985,
      "velocity": 105,
      "chip": "ym2612"
    },
    {
      "channel": 1,
      "note": 34,
      "start": 81.9349,
      "duration": 0.1985,
      "velocity": 106,
      "chip": "ym2612"
    },
    {
      "channel": 4,
      "note": 82,
      "start": 81.9352,
      "duration": 0.1985,
      "velocity": 105,
      "chip": "ym2612"
    },
    {
      "channel": 0,
      "note": 34,
      "start": 82.0342,
      "duration": 0.1985,
      "velocity": 106,
      "chip": "ym2612"
    },
    {
      "channel": 3,
      "note": 82,
      "start": 82.0346,
      "duration": 0.1985,
      "velocity": 105,
      "chip": "ym2612"
    },
    {
      "channel": 1,
      "note": 37,
      "start": 82.1335,
      "duration": 0.1985,
      "velocity": 106,
      "chip": "ym2612"
    },
    {
      "channel": 4,
      "note": 85,
      "start": 82.1339,
      "duration": 0.1985,
      "velocity": 105,
      "chip": "ym2612"
    },
    {
      "channel": 0,
      "note": 37,
      "start": 82.2329,
      "duration": 0.1985,
      "velocity": 106,
      "chip": "ym2612"
    },
    {
      "channel": 3,
      "note": 85,
      "start": 82.2332,
      "duration": 0.1985,
      "velocity": 105,
      "chip": "ym2612"
    },
    {
      "channel": 1,
      "note": 34,
      "start": 82.3322,
      "duration": 0.1985,
      "velocity": 106,
      "chip": "ym2612"
    },
    {
      "channel": 4,
      "note": 82,
      "start": 82.3325,
      "duration": 0.1985,
      "velocity": 105,
      "chip": "ym2612"
    },
    {
      "channel": 0,
      "note": 34,
      "start": 82.4315,
      "duration": 0.1998,
      "velocity": 105,
      "chip": "ym2612"
    },
    {
      "channel": 3,
      "note": 84,
      "start": 82.4318,
      "duration": 0.2027,
      "velocity": 105,
      "chip": "ym2612"
    },
    {
      "channel": 1,
      "note": 37,
      "start": 82.5307,
      "duration": 0.1998,
      "velocity": 105,
      "chip": "ym2612"
    },
    {
      "channel": 4,
      "note": 85,
      "start": 82.5311,
      "duration": 0.105,
      "velocity": 105,
      "chip": "ym2612"
    },
    {
      "channel": 0,
      "note": 75,
      "start": 82.6314,
      "duration": 0.1972,
      "velocity": 105,
      "chip": "ym2612"
    },
    {
      "channel": 2,
      "note": 73,
      "start": 82.633,
      "duration": 0.1959,
      "velocity": 106,
      "chip": "ym2612"
    },
    {
      "channel": 3,
      "note": 51,
      "start": 82.6346,
      "duration": 3.1741,
      "velocity": 105,
      "chip": "ym2612"
    },
    {
      "channel": 4,
      "note": 82,
      "start": 82.6363,
      "duration": 0.1929,
      "velocity": 105,
      "chip": "ym2612"
    },
    {
      "channel": 1,
      "note": 84,
      "start": 82.7307,
      "duration": 0.1972,
      "velocity": 105,
      "chip": "ym2612"
    },
    {
      "channel": 5,
      "note": 70,
      "start": 82.7323,
      "duration": 0.1959,
      "velocity": 106,
      "chip": "ym2612"
    },
    {
      "channel": 0,
      "note": 87,
      "start": 82.8287,
      "duration": 0.1985,
      "velocity": 105,
      "chip": "ym2612"
    },
    {
      "channel": 2,
      "note": 70,
      "start": 82.829,
      "duration": 0.1985,
      "velocity": 106,
      "chip": "ym2612"
    },
    {
      "channel": 4,
      "note": 85,
      "start": 82.8293,
      "duration": 0.1985,
      "velocity": 105,
      "chip": "ym2612"
    },
    {
      "channel": 1,
      "note": 75,
      "start": 82.928,
      "duration": 0.1985,
      "velocity": 105,
      "chip": "ym2612"
    },
    {
      "channel": 5,
      "note": 73,
      "start": 82.9283,
      "duration": 0.1985,
      "velocity": 106,
      "chip": "ym2612"
    },
    {
      "channel": 0,
      "note": 82,
      "start": 83.0274,
      "duration": 0.1985,
      "velocity": 105,
      "chip": "ym2612"
    },
    {
      "channel": 2,
      "note": 63,
      "start": 83.0277,
      "duration": 0.1985,
      "velocity": 106,
      "chip": "ym2612"
    },
    {
      "channel": 4,
      "note": 84,
      "start": 83.028,
      "duration": 0.1985,
      "velocity": 105,
      "chip": "ym2612"
    },
    {
      "channel": 1,
      "note": 87,
      "start": 83.1267,
      "duration": 0.1985,
      "velocity": 105,
      "chip": "ym2612"
    },
    {
      "channel": 5,
      "note": 70,
      "start": 83.127,
      "duration": 0.1985,
      "velocity": 106,
      "chip": "ym2612"
    },
    {
      "channel": 0,
      "note": 75,
      "start": 83.226,
      "duration": 0.1985,
      "velocity": 105,
      "chip": "ym2612"
    },
    {
      "channel": 2,
      "note": 75,
      "start": 83.2263,
      "duration": 0.1985,
      "velocity": 106,
      "chip": "ym2612"
    },
    {
      "channel": 4,
      "note": 75,
      "start": 83.2266,
      "duration": 0.1985,
      "velocity": 105,
      "chip": "ym2612"
    },
    {
      "channel": 1,
      "note": 82,
      "start": 83.3253,
      "duration": 0.1985,
      "velocity": 105,
      "chip": "ym2612"
    },
    {
      "channel": 5,
      "note": 63,
      "start": 83.3257,
      "duration": 0.1985,
      "velocity": 106,
      "chip": "ym2612"
    },
    {
      "channel": 0,
      "note": 85,
      "start": 83.4246,
      "duration": 0.1985,
      "velocity": 105,
      "chip": "ym2612"
    },
    {
      "channel": 2,
      "note": 70,
      "start": 83.425,
      "duration": 0.1985,
      "velocity": 106,
      "chip": "ym2612"
    },
    {
      "channel": 4,
      "note": 87,
      "start": 83.4253,
      "duration": 0.1985,
      "velocity": 105,
      "chip": "ym2612"
    },
    {
      "channel": 1,
      "note": 75,
      "start": 83.5239,
      "duration": 0.1985,
      "velocity": 105,
      "chip": "ym2612"
    },
    {
      "channel": 5,
      "note": 75,
      "start": 83.5243,
      "duration": 0.1985,
      "velocity": 106,
      "chip": "ym2612"
    },
    {
      "channel": 0,
      "note": 82,
      "start": 83.6232,
      "duration": 0.1985,
      "velocity": 105,
      "chip": "ym2612"
    },
    {
      "channel": 2,
      "note": 63,
      "start": 83.6236,
      "duration": 0.1985,
      "velocity": 106,
      "chip": "ym2612"
    },
    {
      "channel": 4,
      "note": 82,
      "start": 83.6239,
      "duration": 0.1985,
      "velocity": 105,
      "chip": "ym2612"
    },
    {
      "channel": 1,
      "note": 85,
      "start": 83.7225,
      "duration": 0.1989,
      "velocity": 105,
      "chip": "ym2612"
    },
    {
      "channel": 5,
      "note": 70,
      "start": 83.7229,
      "duration": 0.1989,
      "velocity": 106,
      "chip": "ym2612"
    },
    {
      "channel": 0,
      "note": 75,
      "start": 83.8219,
      "duration": 0.1985,
      "velocity": 105,
      "chip": "ym2612"
    },
    {
      "channel": 2,
      "note": 73,
      "start": 83.8222,
      "duration": 0.1985,
      "velocity": 106,
      "chip": "ym2612"
    },
    {
      "channel": 4,
      "note": 75,
      "start": 83.8225,
      "duration": 0.1989,
      "velocity": 105,
      "chip": "ym2612"
    },
    {
      "channel": 1,
      "note": 82,
      "start": 83.9216,
      "duration": 0.1981,
      "velocity": 105,
      "chip": "ym2612"
    },
    {
      "channel": 5,
      "note": 63,
      "start": 83.9219,
      "duration": 0.1981,
      "velocity": 106,
      "chip": "ym2612"
    },
    {
      "channel": 0,
      "note": 89,
      "start": 84.0205,
      "duration": 0.1985,
      "velocity": 105,
      "chip": "ym2612"
    },
    {
      "channel": 2,
      "note": 70,
      "start": 84.0212,
      "duration": 0.1981,
      "velocity": 106,
      "chip": "ym2612"
    },
    {
      "channel": 4,
      "note": 85,
      "start": 84.0216,
      "duration": 0.1981,
      "velocity": 105,
      "chip": "ym2612"
    },
    {
      "channel": 1,
      "note": 75,
      "start": 84.1198,
      "duration": 0.1985,
      "velocity": 105,
      "chip": "ym2612"
    },
    {
      "channel": 5,
      "note": 73,
      "start": 84.1201,
      "duration": 0.1985,
      "velocity": 106,
      "chip": "ym2612"
    },
    {
      "channel": 0,
      "note": 82,
      "start": 84.2191,
      "duration": 0.1985,
      "velocity": 105,
      "chip": "ym2612"
    },
    {
      "channel": 2,
      "note": 63,
      "start": 84.2194,
      "duration": 0.1985,
      "velocity": 106,
      "chip": "ym2612"
    },
    {
      "channel": 4,
      "note": 82,
      "start": 84.2198,
      "duration": 0.1985,
      "velocity": 105,
      "chip": "ym2612"
    },
    {
      "channel": 1,
      "note": 89,
      "start": 84.3185,
      "duration": 0.1985,
      "velocity": 105,
      "chip": "ym2612"
    },
    {
      "channel": 5,
      "note": 70,
      "start": 84.3188,
      "duration": 0.1985,
      "velocity": 106,
      "chip": "ym2612"
    },
    {
      "channel": 0,
      "note": 75,
      "start": 84.4178,
      "duration": 0.1985,
      "velocity": 105,
      "chip": "ym2612"
    },
    {
      "channel": 2,
      "note": 75,
      "start": 84.4181,
      "duration": 0.1985,
      "velocity": 106,
      "chip": "ym2612"
    },
    {
      "channel": 4,
      "note": 75,
      "start": 84.4184,
      "duration": 0.1985,
      "velocity": 105,
      "chip": "ym2612"
    },
    {
      "channel": 1,
      "note": 82,
      "start": 84.5171,
      "duration": 0.1985,
      "velocity": 105,
      "chip": "ym2612"
    },
    {
      "channel": 5,
      "note": 63,
      "start": 84.5174,
      "duration": 0.1985,
      "velocity": 106,
      "chip": "ym2612"
    },
    {
      "channel": 0,
      "note": 85,
      "start": 84.6164,
      "duration": 0.1985,
      "velocity": 105,
      "chip": "ym2612"
    },
    {
      "channel": 2,
      "note": 70,
      "start": 84.6167,
      "duration": 0.1985,
      "velocity": 106,
      "chip": "ym2612"
    },
    {
      "channel": 4,
      "note": 89,
      "start": 84.6171,
      "duration": 0.1985,
      "velocity": 105,
      "chip": "ym2612"
    },
    {
      "channel": 1,
      "note": 75,
      "start": 84.7157,
      "duration": 0.1985,
      "velocity": 105,
      "chip": "ym2612"
    },
    {
      "channel": 5,
      "note": 75,
      "start": 84.7161,
      "duration": 0.1985,
      "velocity": 106,
      "chip": "ym2612"
    },
    {
      "channel": 0,
      "note": 82,
      "start": 84.815,
      "duration": 0.1985,
      "velocity": 105,
      "chip": "ym2612"
    },
    {
      "channel": 2,
      "note": 63,
      "start": 84.8154,
      "duration": 0.1985,
      "velocity": 106,
      "chip": "ym2612"
    },
    {
      "channel": 4,
      "note": 82,
      "start": 84.8157,
      "duration": 0.1985,
      "velocity": 105,
      "chip": "ym2612"
    },
    {
      "channel": 1,
      "note": 85,
      "start": 84.9143,
      "duration": 0.1985,
      "velocity": 105,
      "chip": "ym2612"
    },
    {
      "channel": 5,
      "note": 70,
      "start": 84.9146,
      "duration": 0.1985,
      "velocity": 106,
      "chip": "ym2612"
    },
    {
      "channel": 0,
      "note": 85,
      "start": 85.0136,
      "duration": 0.1985,
      "velocity": 105,
      "chip": "ym2612"
    },
    {
      "channel": 2,
      "note": 73,
      "start": 85.0139,
      "duration": 0.1985,
      "velocity": 106,
      "chip": "ym2612"
    },
    {
      "channel": 4,
      "note": 75,
      "start": 85.0143,
      "duration": 0.1985,
      "velocity": 105,
      "chip": "ym2612"
    },
    {
      "channel": 1,
      "note": 82,
      "start": 85.113,
      "duration": 0.1985,
      "velocity": 105,
      "chip": "ym2612"
    },
    {
      "channel": 5,
      "note": 63,
      "start": 85.1133,
      "duration": 0.1985,
      "velocity": 106,
      "chip": "ym2612"
    },
    {
      "channel": 0,
      "note": 82,
      "start": 85.2123,
      "duration": 0.1985,
      "velocity": 105,
      "chip": "ym2612"
    },
    {
      "channel": 2,
      "note": 70,
      "start": 85.2126,
      "duration": 0.1985,
      "velocity": 106,
      "chip": "ym2612"
    },
    {
      "channel": 4,
      "note": 85,
      "start": 85.2129,
      "duration": 0.1985,
      "velocity": 105,
      "chip": "ym2612"
    },
    {
      "channel": 1,
      "note": 85,
      "start": 85.3116,
      "duration": 0.1985,
      "velocity": 105,
      "chip": "ym2612"
    },
    {
      "channel": 5,
      "note": 73,
      "start": 85.3119,
      "duration": 0.1985,
      "velocity": 106,
      "chip": "ym2612"
    },
    {
      "channel": 0,
      "note": 85,
      "start": 85.4109,
      "duration": 0.1985,
      "velocity": 105,
      "chip": "ym2612"
    },
    {
      "channel": 2,
      "note": 73,
      "start": 85.4112,
      "duration": 0.1985,
      "velocity": 106,
      "chip": "ym2612"
    },
    {
      "channel": 4,
      "note": 82,
      "start": 85.4115,
      "duration": 0.1985,
      "velocity": 105,
      "chip": "ym2612"
    },
    {
      "channel": 1,
      "note": 82,
      "start": 85.5103,
      "duration": 0.1985,
      "velocity": 105,
      "chip": "ym2612"
    },
    {
      "channel": 5,
      "note": 70,
      "start": 85.5106,
      "duration": 0.1985,
      "velocity": 106,
      "chip": "ym2612"
    },
    {
      "channel": 0,
      "note": 84,
      "start": 85.6096,
      "duration": 0.1985,
      "velocity": 105,
      "chip": "ym2612"
    },
    {
      "channel": 2,
      "note": 70,
      "start": 85.6099,
      "duration": 0.1985,
      "velocity": 106,
      "chip": "ym2612"
    },
    {
      "channel": 4,
      "note": 85,
      "start": 85.6102,
      "duration": 0.1988,
      "velocity": 105,
      "chip": "ym2612"
    },
    {
      "channel": 1,
      "note": 85,
      "start": 85.7089,
      "duration": 0.1985,
      "velocity": 105,
      "chip": "ym2612"
    },
    {
      "channel": 5,
      "note": 73,
      "start": 85.7092,
      "duration": 0.1985,
      "velocity": 106,
      "chip": "ym2612"
    },
    {
      "channel": 0,
      "note": 75,
      "start": 85.8082,
      "duration": 0.1985,
      "velocity": 105,
      "chip": "ym2612"
    },
    {
      "channel": 2,
      "note": 73,
      "start": 85.8085,
      "duration": 0.1985,
      "velocity": 106,
      "chip": "ym2612"
    },
    {
      "channel": 3,
      "note": 51,
      "start": 85.8089,
      "duration": 3.1779,
      "velocity": 105,
      "chip": "ym2612"
    },
    {
      "channel": 4,
      "note": 82,
      "start": 85.8092,
      "duration": 0.1982,
      "velocity": 105,
      "chip": "ym2612"
    },
    {
      "channel": 1,
      "note": 84,
      "start": 85.9075,
      "duration": 0.1985,
      "velocity": 105,
      "chip": "ym2612"
    },
    {
      "channel": 5,
      "note": 70,
      "start": 85.9078,
      "duration": 0.1985,
      "velocity": 106,
      "chip": "ym2612"
    },
    {
      "channel": 0,
      "note": 87,
      "start": 86.0068,
      "duration": 0.1985,
      "velocity": 105,
      "chip": "ym2612"
    },
    {
      "channel": 2,
      "note": 70,
      "start": 86.0071,
      "duration": 0.1985,
      "velocity": 106,
      "chip": "ym2612"
    },
    {
      "channel": 4,
      "note": 85,
      "start": 86.0075,
      "duration": 0.1985,
      "velocity": 105,
      "chip": "ym2612"
    },
    {
      "channel": 1,
      "note": 75,
      "start": 86.1061,
      "duration": 0.1989,
      "velocity": 105,
      "chip": "ym2612"
    },
    {
      "channel": 5,
      "note": 73,
      "start": 86.1064,
      "duration": 0.1989,
      "velocity": 106,
      "chip": "ym2612"
    },
    {
      "channel": 0,
      "note": 82,
      "start": 86.2054,
      "duration": 0.1985,
      "velocity": 105,
      "chip": "ym2612"
    },
    {
      "channel": 2,
      "note": 63,
      "start": 86.2057,
      "duration": 0.1989,
      "velocity": 106,
      "chip": "ym2612"
    },
    {
      "channel": 4,
      "note": 84,
      "start": 86.2061,
      "duration": 0.1989,
      "velocity": 105,
      "chip": "ym2612"
    },
    {
      "channel": 1,
      "note": 87,
      "start": 86.3052,
      "duration": 0.1981,
      "velocity": 105,
      "chip": "ym2612"
    },
    {
      "channel": 5,
      "note": 70,
      "start": 86.3055,
      "duration": 0.1981,
      "velocity": 106,
      "chip": "ym2612"
    },
    {
      "channel": 0,
      "note": 75,
      "start": 86.4045,
      "duration": 0.1981,
      "velocity": 105,
      "chip": "ym2612"
    },
    {
      "channel": 2,
      "note": 75,
      "start": 86.4048,
      "duration": 0.1981,
      "velocity": 106,
      "chip": "ym2612"
    },
    {
      "channel": 4,
      "note": 75,
      "start": 86.4051,
      "duration": 0.1981,
      "velocity": 105,
      "chip": "ym2612"
    },
    {
      "channel": 1,
      "note": 82,
      "start": 86.5034,
      "duration": 0.1985,
      "velocity": 105,
      "chip": "ym2612"
    },
    {
      "channel": 5,
      "note": 63,
      "start": 86.5037,
      "duration": 0.1985,
      "velocity": 106,
      "chip": "ym2612"
    },
    {
      "channel": 0,
      "note": 85,
      "start": 86.6027,
      "duration": 0.1985,
      "velocity": 105,
      "chip": "ym2612"
    },
    {
      "channel": 2,
      "note": 70,
      "start": 86.603,
      "duration": 0.1985,
      "velocity": 106,
      "chip": "ym2612"
    },
    {
      "channel": 4,
      "note": 87,
      "start": 86.6033,
      "duration": 0.1985,
      "velocity": 105,
      "chip": "ym2612"
    },
    {
      "channel": 1,
      "note": 75,
      "start": 86.702,
      "duration": 0.1985,
      "velocity": 105,
      "chip": "ym2612"
    },
    {
      "channel": 5,
      "note": 75,
      "start": 86.7023,
      "duration": 0.1985,
      "velocity": 106,
      "chip": "ym2612"
    },
    {
      "channel": 0,
      "note": 82,
      "start": 86.8014,
      "duration": 0.1985,
      "velocity": 105,
      "chip": "ym2612"
    },
    {
      "channel": 2,
      "note": 63,
      "start": 86.8017,
      "duration": 0.1985,
      "velocity": 106,
      "chip": "ym2612"
    },
    {
      "channel": 4,
      "note": 82,
      "start": 86.802,
      "duration": 0.1985,
      "velocity": 105,
      "chip": "ym2612"
    },
    {
      "channel": 1,
      "note": 85,
      "start": 86.9007,
      "duration": 0.1985,
      "velocity": 105,
      "chip": "ym2612"
    },
    {
      "channel": 5,
      "note": 70,
      "start": 86.901,
      "duration": 0.1985,
      "velocity": 106,
      "chip": "ym2612"
    },
    {
      "channel": 0,
      "note": 75,
      "start": 87.0,
      "duration": 0.1985,
      "velocity": 105,
      "chip": "ym2612"
    },
    {
      "channel": 2,
      "note": 73,
      "start": 87.0003,
      "duration": 0.1985,
      "velocity": 106,
      "chip": "ym2612"
    },
    {
      "channel": 4,
      "note": 75,
      "start": 87.0006,
      "duration": 0.1985,
      "velocity": 105,
      "chip": "ym2612"
    },
    {
      "channel": 1,
      "note": 82,
      "start": 87.0993,
      "duration": 0.1985,
      "velocity": 105,
      "chip": "ym2612"
    },
    {
      "channel": 5,
      "note": 63,
      "start": 87.0996,
      "duration": 0.1985,
      "velocity": 106,
      "chip": "ym2612"
    },
    {
      "channel": 0,
      "note": 89,
      "start": 87.1985,
      "duration": 0.1985,
      "velocity": 105,
      "chip": "ym2612"
    },
    {
      "channel": 2,
      "note": 70,
      "start": 87.1989,
      "duration": 0.1985,
      "velocity": 106,
      "chip": "ym2612"
    },
    {
      "channel": 4,
      "note": 85,
      "start": 87.1993,
      "duration": 0.1985,
      "velocity": 105,
      "chip": "ym2612"
    },
    {
      "channel": 1,
      "note": 75,
      "start": 87.2979,
      "duration": 0.1985,
      "velocity": 105,
      "chip": "ym2612"
    },
    {
      "channel": 5,
      "note": 73,
      "start": 87.2982,
      "duration": 0.1985,
      "velocity": 106,
      "chip": "ym2612"
    },
    {
      "channel": 0,
      "note": 82,
      "start": 87.3972,
      "duration": 0.1985,
      "velocity": 105,
      "chip": "ym2612"
    },
    {
      "channel": 2,
      "note": 63,
      "start": 87.3976,
      "duration": 0.1985,
      "velocity": 106,
      "chip": "ym2612"
    },
    {
      "channel": 4,
      "note": 82,
      "start": 87.3979,
      "duration": 0.1985,
      "velocity": 105,
      "chip": "ym2612"
    },
    {
      "channel": 1,
      "note": 89,
      "start": 87.4965,
      "duration": 0.1985,
      "velocity": 105,
      "chip": "ym2612"
    },
    {
      "channel": 5,
      "note": 70,
      "start": 87.4968,
      "duration": 0.1985,
      "velocity": 106,
      "chip": "ym2612"
    },
    {
      "channel": 0,
      "note": 75,
      "start": 87.5958,
      "duration": 0.1985,
      "velocity": 105,
      "chip": "ym2612"
    },
    {
      "channel": 2,
      "note": 75,
      "start": 87.5962,
      "duration": 0.1985,
      "velocity": 106,
      "chip": "ym2612"
    },
    {
      "channel": 4,
      "note": 75,
      "start": 87.5965,
      "duration": 0.1985,
      "velocity": 105,
      "chip": "ym2612"
    },
    {
      "channel": 1,
      "note": 82,
      "start": 87.6952,
      "duration": 0.1985,
      "velocity": 105,
      "chip": "ym2612"
    },
    {
      "channel": 5,
      "note": 63,
      "start": 87.6955,
      "duration": 0.1985,
      "velocity": 106,
      "chip": "ym2612"
    },
    {
      "channel": 0,
      "note": 85,
      "start": 87.7945,
      "duration": 0.1985,
      "velocity": 105,
      "chip": "ym2612"
    },
    {
      "channel": 2,
      "note": 70,
      "start": 87.7948,
      "duration": 0.1985,
      "velocity": 106,
      "chip": "ym2612"
    },
    {
      "channel": 4,
      "note": 89,
      "start": 87.7951,
      "duration": 0.1985,
      "velocity": 105,
      "chip": "ym2612"
    },
    {
      "channel": 1,
      "note": 75,
      "start": 87.8938,
      "duration": 0.1985,
      "velocity": 105,
      "chip": "ym2612"
    },
    {
      "channel": 5,
      "note": 75,
      "start": 87.8941,
      "duration": 0.1985,
      "velocity": 106,
      "chip": "ym2612"
    },
    {
      "channel": 0,
      "note": 82,
      "start": 87.9931,
      "duration": 0.1985,
      "velocity": 105,
      "chip": "ym2612"
    },
    {
      "channel": 2,
      "note": 63,
      "start": 87.9934,
      "duration": 0.1985,
      "velocity": 106,
      "chip": "ym2612"
    },
    {
      "channel": 4,
      "note": 82,
      "start": 87.9937,
      "duration": 0.1985,
      "velocity": 105,
      "chip": "ym2612"
    },
    {
      "channel": 1,
      "note": 85,
      "start": 88.0924,
      "duration": 0.1985,
      "velocity": 105,
      "chip": "ym2612"
    },
    {
      "channel": 5,
      "note": 70,
      "start": 88.0928,
      "duration": 0.1985,
      "velocity": 106,
      "chip": "ym2612"
    },
    {
      "channel": 0,
      "note": 85,
      "start": 88.1917,
      "duration": 0.1985,
      "velocity": 105,
      "chip": "ym2612"
    },
    {
      "channel": 2,
      "note": 73,
      "start": 88.1921,
      "duration": 0.1985,
      "velocity": 106,
      "chip": "ym2612"
    },
    {
      "channel": 4,
      "note": 75,
      "start": 88.1924,
      "duration": 0.1985,
      "velocity": 105,
      "chip": "ym2612"
    },
    {
      "channel": 1,
      "note": 82,
      "start": 88.291,
      "duration": 0.1985,
      "velocity": 105,
      "chip": "ym2612"
    },
    {
      "channel": 5,
      "note": 63,
      "start": 88.2914,
      "duration": 0.1985,
      "velocity": 106,
      "chip": "ym2612"
    },
    {
      "channel": 0,
      "note": 82,
      "start": 88.3904,
      "duration": 0.1985,
      "velocity": 105,
      "chip": "ym2612"
    },
    {
      "channel": 2,
      "note": 70,
      "start": 88.3907,
      "duration": 0.1985,
      "velocity": 106,
      "chip": "ym2612"
    },
    {
      "channel": 4,
      "note": 85,
      "start": 88.391,
      "duration": 0.1985,
      "velocity": 105,
      "chip": "ym2612"
    },
    {
      "channel": 1,
      "note": 85,
      "start": 88.4897,
      "duration": 0.1987,
      "velocity": 105,
      "chip": "ym2612"
    },
    {
      "channel": 5,
      "note": 73,
      "start": 88.49,
      "duration": 0.1987,
      "velocity": 106,
      "chip": "ym2612"
    },
    {
      "channel": 0,
      "note": 85,
      "start": 88.589,
      "duration": 0.1988,
      "velocity": 105,
      "chip": "ym2612"
    },
    {
      "channel": 2,
      "note": 73,
      "start": 88.5893,
      "duration": 0.1989,
      "velocity": 106,
      "chip": "ym2612"
    },
    {
      "channel": 4,
      "note": 82,
      "start": 88.5897,
      "duration": 0.1989,
      "velocity": 105,
      "chip": "ym2612"
    },
    {
      "channel": 1,
      "note": 82,
      "start": 88.6885,
      "duration": 0.1983,
      "velocity": 105,
      "chip": "ym2612"
    },
    {
      "channel": 5,
      "note": 70,
      "start": 88.6888,
      "duration": 0.1983,
      "velocity": 106,
      "chip": "ym2612"
    },
    {
      "channel": 0,
      "note": 84,
      "start": 88.7881,
      "duration": 0.1981,
      "velocity": 105,
      "chip": "ym2612"
    },
    {
      "channel": 2,
      "note": 70,
      "start": 88.7884,
      "duration": 0.1981,
      "velocity": 106,
      "chip": "ym2612"
    },
    {
      "channel": 4,
      "note": 85,
      "start": 88.7887,
      "duration": 0.1985,
      "velocity": 105,
      "chip": "ym2612"
    },
    {
      "channel": 1,
      "note": 85,
      "start": 88.8869,
      "duration": 0.1985,
      "velocity": 105,
      "chip": "ym2612"
    },
    {
      "channel": 5,
      "note": 73,
      "start": 88.8873,
      "duration": 0.1985,
      "velocity": 106,
      "chip": "ym2612"
    },
    {
      "channel": 0,
      "note": 75,
      "start": 88.9863,
      "duration": 0.1985,
      "velocity": 105,
      "chip": "ym2612"
    },
    {
      "channel": 2,
      "note": 73,
      "start": 88.9866,
      "duration": 0.1985,
      "velocity": 106,
      "chip": "ym2612"
    },
    {
      "channel": 3,
      "note": 51,
      "start": 88.9869,
      "duration": 3.1805,
      "velocity": 105,
      "chip": "ym2612"
    },
    {
      "channel": 4,
      "note": 82,
      "start": 88.9873,
      "duration": 0.1981,
      "velocity": 105,
      "chip": "ym2612"
    },
    {
      "channel": 1,
      "note": 84,
      "start": 89.0856,
      "duration": 0.1985,
      "velocity": 105,
      "chip": "ym2612"
    },
    {
      "channel": 5,
      "note": 70,
      "start": 89.0859,
      "duration": 0.1985,
      "velocity": 106,
      "chip": "ym2612"
    },
    {
      "channel": 0,
      "note": 87,
      "start": 89.1849,
      "duration": 0.1985,
      "velocity": 105,
      "chip": "ym2612"
    },
    {
      "channel": 2,
      "note": 70,
      "start": 89.1852,
      "duration": 0.1985,
      "velocity": 106,
      "chip": "ym2612"
    },
    {
      "channel": 4,
      "note": 85,
      "start": 89.1855,
      "duration": 0.1985,
      "velocity": 105,
      "chip": "ym2612"
    },
    {
      "channel": 1,
      "note": 75,
      "start": 89.2842,
      "duration": 0.1985,
      "velocity": 105,
      "chip": "ym2612"
    },
    {
      "channel": 5,
      "note": 73,
      "start": 89.2845,
      "duration": 0.1985,
      "velocity": 106,
      "chip": "ym2612"
    },
    {
      "channel": 0,
      "note": 82,
      "start": 89.3835,
      "duration": 0.1985,
      "velocity": 105,
      "chip": "ym2612"
    },
    {
      "channel": 2,
      "note": 63,
      "start": 89.3839,
      "duration": 0.1985,
      "velocity": 106,
      "chip": "ym2612"
    },
    {
      "channel": 4,
      "note": 84,
      "start": 89.3842,
      "duration": 0.1985,
      "velocity": 105,
      "chip": "ym2612"
    },
    {
      "channel": 1,
      "note": 87,
      "start": 89.4829,
      "duration": 0.1985,
      "velocity": 105,
      "chip": "ym2612"
    },
    {
      "channel": 5,
      "note": 70,
      "start": 89.4832,
      "duration": 0.1985,
      "velocity": 106,
      "chip": "ym2612"
    },
    {
      "channel": 0,
      "note": 75,
      "start": 89.5822,
      "duration": 0.1985,
      "velocity": 105,
      "chip": "ym2612"
    },
    {
      "channel": 2,
      "note": 75,
      "start": 89.5825,
      "duration": 0.1985,
      "velocity": 106,
      "chip": "ym2612"
    },
    {
      "channel": 4,
      "note": 75,
      "start": 89.5828,
      "duration": 0.1985,
      "velocity": 105,
      "chip": "ym2612"
    },
    {
      "channel": 1,
      "note": 82,
      "start": 89.6815,
      "duration": 0.1985,
      "velocity": 105,
      "chip": "ym2612"
    },
    {
      "channel": 5,
      "note": 63,
      "start": 89.6818,
      "duration": 0.1985,
      "velocity": 106,
      "chip": "ym2612"
    },
    {
      "channel": 0,
      "note": 85,
      "start": 89.7807,
      "duration": 0.1985,
      "velocity": 105,
      "chip": "ym2612"
    },
    {
      "channel": 2,
      "note": 70,
      "start": 89.7811,
      "duration": 0.1985,
      "velocity": 106,
      "chip": "ym2612"
    },
    {
      "channel": 4,
      "note": 87,
      "start": 89.7815,
      "duration": 0.1985,
      "velocity": 105,
      "chip": "ym2612"
    },
    {
      "channel": 1,
      "note": 75,
      "start": 89.8801,
      "duration": 0.1985,
      "velocity": 105,
      "chip": "ym2612"
    },
    {
      "channel": 5,
      "note": 75,
      "start": 89.8804,
      "duration": 0.1985,
      "velocity": 106,
      "chip": "ym2612"
    },
    {
      "channel": 0,
      "note": 82,
      "start": 89.9794,
      "duration": 0.1985,
      "velocity": 105,
      "chip": "ym2612"
    },
    {
      "channel": 2,
      "note": 63,
      "start": 89.9797,
      "duration": 0.1985,
      "velocity": 106,
      "chip": "ym2612"
    },
    {
      "channel": 4,
      "note": 82,
      "start": 89.98,
      "duration": 0.1985,
      "velocity": 105,
      "chip": "ym2612"
    },
    {
      "channel": 1,
      "note": 85,
      "start": 90.0787,
      "duration": 0.1985,
      "velocity": 105,
      "chip": "ym2612"
    },
    {
      "channel": 5,
      "note": 70,
      "start": 90.079,
      "duration": 0.1985,
      "velocity": 106,
      "chip": "ym2612"
    },
    {
      "channel": 0,
      "note": 75,
      "start": 90.178,
      "duration": 0.1985,
      "velocity": 105,
      "chip": "ym2612"
    },
    {
      "channel": 2,
      "note": 73,
      "start": 90.1784,
      "duration": 0.1985,
      "velocity": 106,
      "chip": "ym2612"
    },
    {
      "channel": 4,
      "note": 75,
      "start": 90.1787,
      "duration": 0.1985,
      "velocity": 105,
      "chip": "ym2612"
    },
    {
      "channel": 1,
      "note": 82,
      "start": 90.2774,
      "duration": 0.1985,
      "velocity": 105,
      "chip": "ym2612"
    },
    {
      "channel": 5,
      "note": 63,
      "start": 90.2777,
      "duration": 0.1985,
      "velocity": 106,
      "chip": "ym2612"
    },
    {
      "channel": 0,
      "note": 89,
      "start": 90.3767,
      "duration": 0.1985,
      "velocity": 105,
      "chip": "ym2612"
    },
    {
      "channel": 2,
      "note": 70,
      "start": 90.377,
      "duration": 0.1985,
      "velocity": 106,
      "chip": "ym2612"
    },
    {
      "channel": 4,
      "note": 85,
      "start": 90.3773,
      "duration": 0.1985,
      "velocity": 105,
      "chip": "ym2612"
    },
    {
      "channel": 1,
      "note": 75,
      "start": 90.476,
      "duration": 0.1985,
      "velocity": 105,
      "chip": "ym2612"
    },
    {
      "channel": 5,
      "note": 73,
      "start": 90.4763,
      "duration": 0.1985,
      "velocity": 106,
      "chip": "ym2612"
    },
    {
      "channel": 0,
      "note": 82,
      "start": 90.5753,
      "duration": 0.1985,
      "velocity": 105,
      "chip": "ym2612"
    },
    {
      "channel": 2,
      "note": 63,
      "start": 90.5756,
      "duration": 0.1985,
      "velocity": 106,
      "chip": "ym2612"
    },
    {
      "channel": 4,
      "note": 82,
      "start": 90.5759,
      "duration": 0.1985,
      "velocity": 105,
      "chip": "ym2612"
    },
    {
      "channel": 1,
      "note": 89,
      "start": 90.6746,
      "duration": 0.1985,
      "velocity": 105,
      "chip": "ym2612"
    },
    {
      "channel": 5,
      "note": 70,
      "start": 90.675,
      "duration": 0.1985,
      "velocity": 106,
      "chip": "ym2612"
    },
    {
      "channel": 0,
      "note": 75,
      "start": 90.7739,
      "duration": 0.1985,
      "velocity": 105,
      "chip": "ym2612"
    },
    {
      "channel": 2,
      "note": 75,
      "start": 90.7743,
      "duration": 0.1985,
      "velocity": 106,
      "chip": "ym2612"
    },
    {
      "channel": 4,
      "note": 75,
      "start": 90.7746,
      "duration": 0.1985,
      "velocity": 105,
      "chip": "ym2612"
    },
    {
      "channel": 1,
      "note": 82,
      "start": 90.8732,
      "duration": 0.1985,
      "velocity": 105,
      "chip": "ym2612"
    },
    {
      "channel": 5,
      "note": 63,
      "start": 90.8736,
      "duration": 0.1985,
      "velocity": 106,
      "chip": "ym2612"
    },
    {
      "channel": 0,
      "note": 85,
      "start": 90.9725,
      "duration": 0.1989,
      "velocity": 105,
      "chip": "ym2612"
    },
    {
      "channel": 2,
      "note": 70,
      "start": 90.9729,
      "duration": 0.1989,
      "velocity": 106,
      "chip": "ym2612"
    },
    {
      "channel": 4,
      "note": 89,
      "start": 90.9732,
      "duration": 0.1989,
      "velocity": 105,
      "chip": "ym2612"
    },
    {
      "channel": 1,
      "note": 75,
      "start": 91.0718,
      "duration": 0.1985,
      "velocity": 105,
      "chip": "ym2612"
    },
    {
      "channel": 5,
      "note": 75,
      "start": 91.0722,
      "duration": 0.1985,
      "velocity": 106,
      "chip": "ym2612"
    },
    {
      "channel": 0,
      "note": 82,
      "start": 91.1716,
      "duration": 0.1981,
      "velocity": 105,
      "chip": "ym2612"
    },
    {
      "channel": 2,
      "note": 63,
      "start": 91.1719,
      "duration": 0.1981,
      "velocity": 106,
      "chip": "ym2612"
    },
    {
      "channel": 4,
      "note": 82,
      "start": 91.1722,
      "duration": 0.1981,
      "velocity": 105,
      "chip": "ym2612"
    },
    {
      "channel": 1,
      "note": 85,
      "start": 91.2705,
      "duration": 0.1985,
      "velocity": 105,
      "chip": "ym2612"
    },
    {
      "channel": 5,
      "note": 70,
      "start": 91.2712,
      "duration": 0.1981,
      "velocity": 106,
      "chip": "ym2612"
    },
    {
      "channel": 0,
      "note": 85,
      "start": 91.3698,
      "duration": 0.1985,
      "velocity": 105,
      "chip": "ym2612"
    },
    {
      "channel": 2,
      "note": 73,
      "start": 91.3701,
      "duration": 0.1985,
      "velocity": 106,
      "chip": "ym2612"
    },
    {
      "channel": 4,
      "note": 75,
      "start": 91.3704,
      "duration": 0.1985,
      "velocity": 105,
      "chip": "ym2612"
    },
    {
      "channel": 1,
      "note": 82,
      "start": 91.4691,
      "duration": 0.1985,
      "velocity": 105,
      "chip": "ym2612"
    },
    {
      "channel": 5,
      "note": 63,
      "start": 91.4694,
      "duration": 0.1985,
      "velocity": 106,
      "chip": "ym2612"
    },
    {
      "channel": 0,
      "note": 82,
      "start": 91.5684,
      "duration": 0.1985,
      "velocity": 105,
      "chip": "ym2612"
    },
    {
      "channel": 2,
      "note": 70,
      "start": 91.5688,
      "duration": 0.1985,
      "velocity": 106,
      "chip": "ym2612"
    },
    {
      "channel": 4,
      "note": 85,
      "start": 91.5691,
      "duration": 0.1985,
      "velocity": 105,
      "chip": "ym2612"
    },
    {
      "channel": 1,
      "note": 85,
      "start": 91.6678,
      "duration": 0.1985,
      "velocity": 105,
      "chip": "ym2612"
    },
    {
      "channel": 5,
      "note": 73,
      "start": 91.6681,
      "duration": 0.1985,
      "velocity": 106,
      "chip": "ym2612"
    },
    {
      "channel": 0,
      "note": 85,
      "start": 91.7671,
      "duration": 0.1985,
      "velocity": 105,
      "chip": "ym2612"
    },
    {
      "channel": 2,
      "note": 73,
      "start": 91.7674,
      "duration": 0.1985,
      "velocity": 106,
      "chip": "ym2612"
    },
    {
      "channel": 4,
      "note": 82,
      "start": 91.7677,
      "duration": 0.1985,
      "velocity": 105,
      "chip": "ym2612"
    },
    {
      "channel": 1,
      "note": 82,
      "start": 91.8664,
      "duration": 0.1985,
      "velocity": 105,
      "chip": "ym2612"
    },
    {
      "channel": 5,
      "note": 70,
      "start": 91.8667,
      "duration": 0.1985,
      "velocity": 106,
      "chip": "ym2612"
    },
    {
      "channel": 0,
      "note": 84,
      "start": 91.9657,
      "duration": 0.1998,
      "velocity": 106,
      "chip": "ym2612"
    },
    {
      "channel": 2,
      "note": 70,
      "start": 91.9661,
      "duration": 0.2011,
      "velocity": 105,
      "chip": "ym2612"
    },
    {
      "channel": 4,
      "note": 85,
      "start": 91.9664,
      "duration": 12.9117,
      "velocity": 105,
      "chip": "ym2612"
    },
    {
      "channel": 1,
      "note": 85,
      "start": 92.065,
      "duration": 0.1985,
      "velocity": 105,
      "chip": "ym2612"
    },
    {
      "channel": 5,
      "note": 73,
      "start": 92.0654,
      "duration": 12.8127,
      "velocity": 106,
      "chip": "ym2612"
    },
    {
      "channel": 0,
      "note": 73,
      "start": 92.1656,
      "duration": 0.1972,
      "velocity": 106,
      "chip": "ym2612"
    },
    {
      "channel": 2,
      "note": 82,
      "start": 92.1673,
      "duration": 0.1959,
      "velocity": 105,
      "chip": "ym2612"
    },
    {
      "channel": 3,
      "note": 51,
      "start": 92.1676,
      "duration": 12.7105,
      "velocity": 105,
      "chip": "ym2612"
    },
    {
      "channel": 1,
      "note": 84,
      "start": 92.2636,
      "duration": 0.1998,
      "velocity": 106,
      "chip": "ym2612"
    },
    {
      "channel": 0,
      "note": 70,
      "start": 92.363,
      "duration": 0.1985,
      "velocity": 106,
      "chip": "ym2612"
    },
    {
      "channel": 2,
      "note": 85,
      "start": 92.3633,
      "duration": 0.1985,
      "velocity": 105,
      "chip": "ym2612"
    },
    {
      "channel": 1,
      "note": 73,
      "start": 92.4636,
      "duration": 0.1972,
      "velocity": 106,
      "chip": "ym2612"
    },
    {
      "channel": 0,
      "note": 63,
      "start": 92.5616,
      "duration": 0.1985,
      "velocity": 106,
      "chip": "ym2612"
    },
    {
      "channel": 2,
      "note": 84,
      "start": 92.5619,
      "duration": 2.782,
      "velocity": 86,
      "chip": "ym2612"
    },
    {
      "channel": 1,
      "note": 70,
      "start": 92.6609,
      "duration": 0.1985,
      "velocity": 106,
      "chip": "ym2612"
    },
    {
      "channel": 0,
      "note": 75,
      "start": 92.7602,
      "duration": 0.1985,
      "velocity": 106,
      "chip": "ym2612"
    },
    {
      "channel": 1,
      "note": 63,
      "start": 92.8596,
      "duration": 0.1985,
      "velocity": 106,
      "chip": "ym2612"
    },
    {
      "channel": 0,
      "note": 70,
      "start": 92.9589,
      "duration": 0.1985,
      "velocity": 106,
      "chip": "ym2612"
    },
    {
      "channel": 1,
      "note": 75,
      "start": 93.0582,
      "duration": 0.1985,
      "velocity": 106,
      "chip": "ym2612"
    },
    {
      "channel": 0,
      "note": 63,
      "start": 93.1575,
      "duration": 0.1985,
      "velocity": 106,
      "chip": "ym2612"
    },
    {
      "channel": 1,
      "note": 70,
      "start": 93.2568,
      "duration": 0.1985,
      "velocity": 106,
      "chip": "ym2612"
    },
    {
      "channel": 0,
      "note": 73,
      "start": 93.3561,
      "duration": 0.1989,
      "velocity": 106,
      "chip": "ym2612"
    },
    {
      "channel": 1,
      "note": 63,
      "start": 93.4554,
      "duration": 0.1985,
      "velocity": 106,
      "chip": "ym2612"
    },
    {
      "channel": 0,
      "note": 70,
      "start": 93.5552,
      "duration": 0.1981,
      "velocity": 106,
      "chip": "ym2612"
    },
    {
      "channel": 1,
      "note": 73,
      "start": 93.6545,
      "duration": 0.1981,
      "velocity": 106,
      "chip": "ym2612"
    },
    {
      "channel": 0,
      "note": 63,
      "start": 93.7534,
      "duration": 0.1985,
      "velocity": 106,
      "chip": "ym2612"
    },
    {
      "channel": 1,
      "note": 70,
      "start": 93.8527,
      "duration": 0.1985,
      "velocity": 106,
      "chip": "ym2612"
    },
    {
      "channel": 0,
      "note": 75,
      "start": 93.952,
      "duration": 0.1985,
      "velocity": 106,
      "chip": "ym2612"
    },
    {
      "channel": 1,
      "note": 63,
      "start": 94.0513,
      "duration": 0.1985,
      "velocity": 106,
      "chip": "ym2612"
    },
    {
      "channel": 0,
      "note": 70,
      "start": 94.1507,
      "duration": 0.1985,
      "velocity": 106,
      "chip": "ym2612"
    },
    {
      "channel": 1,
      "note": 75,
      "start": 94.25,
      "duration": 0.1985,
      "velocity": 106,
      "chip": "ym2612"
    },
    {
      "channel": 0,
      "note": 63,
      "start": 94.3493,
      "duration": 0.1985,
      "velocity": 106,
      "chip": "ym2612"
    },
    {
      "channel": 1,
      "note": 70,
      "start": 94.4485,
      "duration": 0.1985,
      "velocity": 106,
      "chip": "ym2612"
    },
    {
      "channel": 0,
      "note": 73,
      "start": 94.5479,
      "duration": 0.1985,
      "velocity": 106,
      "chip": "ym2612"
    },
    {
      "channel": 1,
      "note": 63,
      "start": 94.6472,
      "duration": 0.1985,
      "velocity": 106,
      "chip": "ym2612"
    },
    {
      "channel": 0,
      "note": 70,
      "start": 94.7465,
      "duration": 0.1985,
      "velocity": 106,
      "chip": "ym2612"
    },
    {
      "channel": 1,
      "note": 73,
      "start": 94.8458,
      "duration": 0.1985,
      "velocity": 106,
      "chip": "ym2612"
    },
    {
      "channel": 0,
      "note": 73,
      "start": 94.9452,
      "duration": 0.1985,
      "velocity": 106,
      "chip": "ym2612"
    },
    {
      "channel": 1,
      "note": 70,
      "start": 95.0445,
      "duration": 0.1985,
      "velocity": 106,
      "chip": "ym2612"
    },
    {
      "channel": 0,
      "note": 70,
      "start": 95.1438,
      "duration": 0.1985,
      "velocity": 106,
      "chip": "ym2612"
    },
    {
      "channel": 1,
      "note": 73,
      "start": 95.2431,
      "duration": 0.1985,
      "velocity": 106,
      "chip": "ym2612"
    },
    {
      "channel": 0,
      "note": 73,
      "start": 95.3424,
      "duration": 0.1985,
      "velocity": 106,
      "chip": "ym2612"
    },
    {
      "channel": 2,
      "note": 43,
      "start": 95.3441,
      "duration": 0.0978,
      "velocity": 86,
      "chip": "ym2612"
    },
    {
      "channel": 1,
      "note": 70,
      "start": 95.4417,
      "duration": 0.1985,
      "velocity": 106,
      "chip": "ym2612"
    },
    {
      "channel": 2,
      "note": 34,
      "start": 95.4421,
      "duration": 0.0992,
      "velocity": 86,
      "chip": "ym2612"
    },
    {
      "channel": 0,
      "note": 70,
      "start": 95.541,
      "duration": 0.1985,
      "velocity": 106,
      "chip": "ym2612"
    },
    {
      "channel": 2,
      "note": 41,
      "start": 95.5414,
      "duration": 0.0992,
      "velocity": 86,
      "chip": "ym2612"
    },
    {
      "channel": 1,
      "note": 73,
      "start": 95.6404,
      "duration": 0.1985,
      "velocity": 106,
      "chip": "ym2612"
    },
    {
      "channel": 2,
      "note": 36,
      "start": 95.6407,
      "duration": 0.0992,
      "velocity": 86,
      "chip": "ym2612"
    },
    {
      "channel": 0,
      "note": 63,
      "start": 95.7397,
      "duration": 0.1987,
      "velocity": 106,
      "chip": "ym2612"
    },
    {
      "channel": 2,
      "note": 39,
      "start": 95.74,
      "duration": 0.0992,
      "velocity": 86,
      "chip": "ym2612"
    },
    {
      "channel": 1,
      "note": 70,
      "start": 95.839,
      "duration": 0.1988,
      "velocity": 106,
      "chip": "ym2612"
    },
    {
      "channel": 2,
      "note": 37,
      "start": 95.8393,
      "duration": 0.0994,
      "velocity": 86,
      "chip": "ym2612"
    },
    {
      "channel": 0,
      "note": 75,
      "start": 95.9385,
      "duration": 0.1983,
      "velocity": 106,
      "chip": "ym2612"
    },
    {
      "channel": 2,
      "note": 43,
      "start": 95.9389,
      "duration": 0.0994,
      "velocity": 86,
      "chip": "ym2612"
    },
    {
      "channel": 1,
      "note": 63,
      "start": 96.0381,
      "duration": 0.198,
      "velocity": 106,
      "chip": "ym2612"
    },
    {
      "channel": 2,
      "note": 34,
      "start": 96.0384,
      "duration": 0.0987,
      "velocity": 86,
      "chip": "ym2612"
    },
    {
      "channel": 0,
      "note": 70,
      "start": 96.1369,
      "duration": 0.1985,
      "velocity": 106,
      "chip": "ym2612"
    },
    {
      "channel": 2,
      "note": 41,
      "start": 96.1372,
      "duration": 0.0992,
      "velocity": 86,
      "chip": "ym2612"
    },
    {
      "channel": 1,
      "note": 75,
      "start": 96.2363,
      "duration": 0.1985,
      "velocity": 106,
      "chip": "ym2612"
    },
    {
      "channel": 2,
      "note": 36,
      "start": 96.2366,
      "duration": 0.0992,
      "velocity": 86,
      "chip": "ym2612"
    },
    {
      "channel": 0,
      "note": 63,
      "start": 96.3356,
      "duration": 0.1985,
      "velocity": 106,
      "chip": "ym2612"
    },
    {
      "channel": 2,
      "note": 39,
      "start": 96.3359,
      "duration": 0.0992,
      "velocity": 86,
      "chip": "ym2612"
    },
    {
      "channel": 1,
      "note": 70,
      "start": 96.4349,
      "duration": 0.1985,
      "velocity": 106,
      "chip": "ym2612"
    },
    {
      "channel": 2,
      "note": 37,
      "start": 96.4352,
      "duration": 0.0992,
      "velocity": 86,
      "chip": "ym2612"
    },
    {
      "channel": 0,
      "note": 73,
      "start": 96.5342,
      "duration": 0.1985,
      "velocity": 106,
      "chip": "ym2612"
    },
    {
      "channel": 2,
      "note": 43,
      "start": 96.5345,
      "duration": 0.0993,
      "velocity": 86,
      "chip": "ym2612"
    },
    {
      "channel": 1,
      "note": 63,
      "start": 96.6335,
      "duration": 0.1985,
      "velocity": 106,
      "chip": "ym2612"
    },
    {
      "channel": 2,
      "note": 34,
      "start": 96.6339,
      "duration": 0.0992,
      "velocity": 86,
      "chip": "ym2612"
    },
    {
      "channel": 0,
      "note": 70,
      "start": 96.7329,
      "duration": 0.1985,
      "velocity": 106,
      "chip": "ym2612"
    },
    {
      "channel": 2,
      "note": 41,
      "start": 96.7332,
      "duration": 0.0992,
      "velocity": 86,
      "chip": "ym2612"
    },
    {
      "channel": 1,
      "note": 73,
      "start": 96.8322,
      "duration": 0.1985,
      "velocity": 106,
      "chip": "ym2612"
    },
    {
      "channel": 2,
      "note": 36,
      "start": 96.8325,
      "duration": 0.0992,
      "velocity": 86,
      "chip": "ym2612"
    },
    {
      "channel": 0,
      "note": 63,
      "start": 96.9315,
      "duration": 0.1985,
      "velocity": 106,
      "chip": "ym2612"
    },
    {
      "channel": 2,
      "note": 39,
      "start": 96.9318,
      "duration": 0.0992,
      "velocity": 86,
      "chip": "ym2612"
    },
    {
      "channel": 1,
      "note": 70,
      "start": 97.0307,
      "duration": 0.1985,
      "velocity": 106,
      "chip": "ym2612"
    },
    {
      "channel": 2,
      "note": 37,
      "start": 97.0311,
      "duration": 0.0992,
      "velocity": 86,
      "chip": "ym2612"
    },
    {
      "channel": 0,
      "note": 75,
      "start": 97.13,
      "duration": 0.1985,
      "velocity": 106,
      "chip": "ym2612"
    },
    {
      "channel": 2,
      "note": 43,
      "start": 97.1304,
      "duration": 0.0992,
      "velocity": 86,
      "chip": "ym2612"
    },
    {
      "channel": 1,
      "note": 63,
      "start": 97.2294,
      "duration": 0.1985,
      "velocity": 106,
      "chip": "ym2612"
    },
    {
      "channel": 2,
      "note": 34,
      "start": 97.2297,
      "duration": 0.0992,
      "velocity": 86,
      "chip": "ym2612"
    },
    {
      "channel": 0,
      "note": 70,
      "start": 97.3287,
      "duration": 0.1985,
      "velocity": 106,
      "chip": "ym2612"
    },
    {
      "channel": 2,
      "note": 41,
      "start": 97.329,
      "duration": 0.0992,
      "velocity": 86,
      "chip": "ym2612"
    },
    {
      "channel": 1,
      "note": 75,
      "start": 97.428,
      "duration": 0.1985,
      "velocity": 106,
      "chip": "ym2612"
    },
    {
      "channel": 2,
      "note": 36,
      "start": 97.4283,
      "duration": 0.0993,
      "velocity": 86,
      "chip": "ym2612"
    },
    {
      "channel": 0,
      "note": 63,
      "start": 97.5274,
      "duration": 0.1985,
      "velocity": 106,
      "chip": "ym2612"
    },
    {
      "channel": 2,
      "note": 39,
      "start": 97.5277,
      "duration": 0.0992,
      "velocity": 86,
      "chip": "ym2612"
    },
    {
      "channel": 1,
      "note": 70,
      "start": 97.6267,
      "duration": 0.1985,
      "velocity": 106,
      "chip": "ym2612"
    },
    {
      "channel": 2,
      "note": 37,
      "start": 97.627,
      "duration": 0.0992,
      "velocity": 86,
      "chip": "ym2612"
    },
    {
      "channel": 0,
      "note": 73,
      "start": 97.726,
      "duration": 0.1985,
      "velocity": 106,
      "chip": "ym2612"
    },
    {
      "channel": 2,
      "note": 43,
      "start": 97.7263,
      "duration": 0.0992,
      "velocity": 86,
      "chip": "ym2612"
    },
    {
      "channel": 1,
      "note": 63,
      "start": 97.8253,
      "duration": 0.1985,
      "velocity": 106,
      "chip": "ym2612"
    },
    {
      "channel": 2,
      "note": 34,
      "start": 97.8256,
      "duration": 0.0992,
      "velocity": 86,
      "chip": "ym2612"
    },
    {
      "channel": 0,
      "note": 70,
      "start": 97.9246,
      "duration": 0.1985,
      "velocity": 106,
      "chip": "ym2612"
    },
    {
      "channel": 2,
      "note": 41,
      "start": 97.925,
      "duration": 0.0992,
      "velocity": 86,
      "chip": "ym2612"
    },
    {
      "channel": 1,
      "note": 73,
      "start": 98.0239,
      "duration": 0.1985,
      "velocity": 106,
      "chip": "ym2612"
    },
    {
      "channel": 2,
      "note": 36,
      "start": 98.0243,
      "duration": 0.0992,
      "velocity": 86,
      "chip": "ym2612"
    },
    {
      "channel": 0,
      "note": 73,
      "start": 98.1232,
      "duration": 0.1985,
      "velocity": 106,
      "chip": "ym2612"
    },
    {
      "channel": 2,
      "note": 39,
      "start": 98.1236,
      "duration": 0.0992,
      "velocity": 86,
      "chip": "ym2612"
    },
    {
      "channel": 1,
      "note": 70,
      "start": 98.2225,
      "duration": 0.1989,
      "velocity": 106,
      "chip": "ym2612"
    },
    {
      "channel": 2,
      "note": 37,
      "start": 98.2229,
      "duration": 0.0992,
      "velocity": 86,
      "chip": "ym2612"
    },
    {
      "channel": 0,
      "note": 70,
      "start": 98.3218,
      "duration": 0.1986,
      "velocity": 106,
      "chip": "ym2612"
    },
    {
      "channel": 2,
      "note": 43,
      "start": 98.3222,
      "duration": 0.0996,
      "velocity": 86,
      "chip": "ym2612"
    },
    {
      "channel": 1,
      "note": 73,
      "start": 98.4216,
      "duration": 0.1981,
      "velocity": 106,
      "chip": "ym2612"
    },
    {
      "channel": 2,
      "note": 34,
      "start": 98.4219,
      "duration": 0.0993,
      "velocity": 86,
      "chip": "ym2612"
    },
    {
      "channel": 0,
      "note": 73,
      "start": 98.5206,
      "duration": 0.1984,
      "velocity": 106,
      "chip": "ym2612"
    },
    {
      "channel": 2,
      "note": 43,
      "start": 98.5213,
      "duration": 0.0987,
      "velocity": 86,
      "chip": "ym2612"
    },
    {
      "channel": 1,
      "note": 70,
      "start": 98.6198,
      "duration": 0.1985,
      "velocity": 106,
      "chip": "ym2612"
    },
    {
      "channel": 2,
      "note": 34,
      "start": 98.6202,
      "duration": 0.0991,
      "velocity": 86,
      "chip": "ym2612"
    },
    {
      "channel": 0,
      "note": 70,
      "start": 98.7191,
      "duration": 0.1985,
      "velocity": 106,
      "chip": "ym2612"
    },
    {
      "channel": 2,
      "note": 41,
      "start": 98.7194,
      "duration": 0.0992,
      "velocity": 86,
      "chip": "ym2612"
    },
    {
      "channel": 1,
      "note": 73,
      "start": 98.8184,
      "duration": 0.1985,
      "velocity": 106,
      "chip": "ym2612"
    },
    {
      "channel": 2,
      "note": 36,
      "start": 98.8188,
      "duration": 0.0992,
      "velocity": 86,
      "chip": "ym2612"
    },
    {
      "channel": 0,
      "note": 63,
      "start": 98.9178,
      "duration": 0.1985,
      "velocity": 106,
      "chip": "ym2612"
    },
    {
      "channel": 2,
      "note": 39,
      "start": 98.9181,
      "duration": 0.0992,
      "velocity": 86,
      "chip": "ym2612"
    },
    {
      "channel": 1,
      "note": 70,
      "start": 99.0171,
      "duration": 0.1985,
      "velocity": 106,
      "chip": "ym2612"
    },
    {
      "channel": 2,
      "note": 37,
      "start": 99.0174,
      "duration": 0.0992,
      "velocity": 86,
      "chip": "ym2612"
    },
    {
      "channel": 0,
      "note": 75,
      "start": 99.1164,
      "duration": 0.1985,
      "velocity": 106,
      "chip": "ym2612"
    },
    {
      "channel": 2,
      "note": 43,
      "start": 99.1167,
      "duration": 0.0992,
      "velocity": 86,
      "chip": "ym2612"
    },
    {
      "channel": 1,
      "note": 63,
      "start": 99.2157,
      "duration": 0.1985,
      "velocity": 106,
      "chip": "ym2612"
    },
    {
      "channel": 2,
      "note": 34,
      "start": 99.2161,
      "duration": 0.0992,
      "velocity": 86,
      "chip": "ym2612"
    },
    {
      "channel": 0,
      "note": 70,
      "start": 99.315,
      "duration": 0.1985,
      "velocity": 106,
      "chip": "ym2612"
    },
    {
      "channel": 2,
      "note": 41,
      "start": 99.3154,
      "duration": 0.0992,
      "velocity": 86,
      "chip": "ym2612"
    },
    {
      "channel": 1,
      "note": 75,
      "start": 99.4143,
      "duration": 0.1985,
      "velocity": 106,
      "chip": "ym2612"
    },
    {
      "channel": 2,
      "note": 36,
      "start": 99.4146,
      "duration": 0.0992,
      "velocity": 86,
      "chip": "ym2612"
    },
    {
      "channel": 0,
      "note": 63,
      "start": 99.5136,
      "duration": 0.1985,
      "velocity": 106,
      "chip": "ym2612"
    },
    {
      "channel": 2,
      "note": 39,
      "start": 99.5139,
      "duration": 0.0993,
      "velocity": 86,
      "chip": "ym2612"
    },
    {
      "channel": 1,
      "note": 70,
      "start": 99.6129,
      "duration": 0.1985,
      "velocity": 106,
      "chip": "ym2612"
    },
    {
      "channel": 2,
      "note": 37,
      "start": 99.6133,
      "duration": 0.0992,
      "velocity": 86,
      "chip": "ym2612"
    },
    {
      "channel": 0,
      "note": 73,
      "start": 99.7123,
      "duration": 0.1985,
      "velocity": 106,
      "chip": "ym2612"
    },
    {
      "channel": 2,
      "note": 43,
      "start": 99.7126,
      "duration": 0.0992,
      "velocity": 86,
      "chip": "ym2612"
    },
    {
      "channel": 1,
      "note": 63,
      "start": 99.8116,
      "duration": 0.1985,
      "velocity": 106,
      "chip": "ym2612"
    },
    {
      "channel": 2,
      "note": 34,
      "start": 99.8119,
      "duration": 0.0992,
      "velocity": 86,
      "chip": "ym2612"
    },
    {
      "channel": 0,
      "note": 70,
      "start": 99.9109,
      "duration": 0.1985,
      "velocity": 106,
      "chip": "ym2612"
    },
    {
      "channel": 2,
      "note": 41,
      "start": 99.9112,
      "duration": 0.0992,
      "velocity": 86,
      "chip": "ym2612"
    },
    {
      "channel": 1,
      "note": 73,
      "start": 100.0102,
      "duration": 0.1985,
      "velocity": 106,
      "chip": "ym2612"
    },
    {
      "channel": 2,
      "note": 36,
      "start": 100.0105,
      "duration": 0.0992,
      "velocity": 86,
      "chip": "ym2612"
    },
    {
      "channel": 0,
      "note": 63,
      "start": 100.1095,
      "duration": 0.1985,
      "velocity": 106,
      "chip": "ym2612"
    },
    {
      "channel": 2,
      "note": 39,
      "start": 100.1099,
      "duration": 0.0992,
      "velocity": 86,
      "chip": "ym2612"
    },
    {
      "channel": 1,
      "note": 70,
      "start": 100.2089,
      "duration": 0.1985,
      "velocity": 106,
      "chip": "ym2612"
    },
    {
      "channel": 2,
      "note": 37,
      "start": 100.2092,
      "duration": 0.0992,
      "velocity": 86,
      "chip": "ym2612"
    },
    {
      "channel": 0,
      "note": 75,
      "start": 100.3082,
      "duration": 0.1985,
      "velocity": 106,
      "chip": "ym2612"
    },
    {
      "channel": 2,
      "note": 43,
      "start": 100.3085,
      "duration": 0.0992,
      "velocity": 86,
      "chip": "ym2612"
    },
    {
      "channel": 1,
      "note": 63,
      "start": 100.4075,
      "duration": 0.1985,
      "velocity": 106,
      "chip": "ym2612"
    },
    {
      "channel": 2,
      "note": 34,
      "start": 100.4078,
      "duration": 0.0993,
      "velocity": 86,
      "chip": "ym2612"
    },
    {
      "channel": 0,
      "note": 70,
      "start": 100.5068,
      "duration": 0.1985,
      "velocity": 106,
      "chip": "ym2612"
    },
    {
      "channel": 2,
      "note": 41,
      "start": 100.5071,
      "duration": 0.0992,
      "velocity": 86,
      "chip": "ym2612"
    },
    {
      "channel": 1,
      "note": 75,
      "start": 100.6061,
      "duration": 0.1989,
      "velocity": 106,
      "chip": "ym2612"
    },
    {
      "channel": 2,
      "note": 36,
      "start": 100.6064,
      "duration": 0.0992,
      "velocity": 86,
      "chip": "ym2612"
    },
    {
      "channel": 0,
      "note": 63,
      "start": 100.7054,
      "duration": 0.1985,
      "velocity": 106,
      "chip": "ym2612"
    },
    {
      "channel": 2,
      "note": 39,
      "start": 100.7057,
      "duration": 0.0996,
      "velocity": 86,
      "chip": "ym2612"
    },
    {
      "channel": 1,
      "note": 70,
      "start": 100.8052,
      "duration": 0.198,
      "velocity": 106,
      "chip": "ym2612"
    },
    {
      "channel": 2,
      "note": 37,
      "start": 100.8055,
      "duration": 0.0992,
      "velocity": 86,
      "chip": "ym2612"
    },
    {
      "channel": 0,
      "note": 73,
      "start": 100.9045,
      "duration": 0.1981,
      "velocity": 106,
      "chip": "ym2612"
    },
    {
      "channel": 2,
      "note": 43,
      "start": 100.9048,
      "duration": 0.0988,
      "velocity": 86,
      "chip": "ym2612"
    },
    {
      "channel": 1,
      "note": 63,
      "start": 101.0034,
      "duration": 0.1985,
      "velocity": 106,
      "chip": "ym2612"
    },
    {
      "channel": 2,
      "note": 34,
      "start": 101.0037,
      "duration": 0.0992,
      "velocity": 86,
      "chip": "ym2612"
    },
    {
      "channel": 0,
      "note": 70,
      "start": 101.1027,
      "duration": 0.1985,
      "velocity": 106,
      "chip": "ym2612"
    },
    {
      "channel": 2,
      "note": 41,
      "start": 101.103,
      "duration": 0.0992,
      "velocity": 86,
      "chip": "ym2612"
    },
    {
      "channel": 1,
      "note": 73,
      "start": 101.202,
      "duration": 0.1985,
      "velocity": 106,
      "chip": "ym2612"
    },
    {
      "channel": 2,
      "note": 36,
      "start": 101.2023,
      "duration": 0.0992,
      "velocity": 86,
      "chip": "ym2612"
    },
    {
      "channel": 0,
      "note": 73,
      "start": 101.3013,
      "duration": 0.1985,
      "velocity": 106,
      "chip": "ym2612"
    },
    {
      "channel": 2,
      "note": 39,
      "start": 101.3016,
      "duration": 0.0992,
      "velocity": 86,
      "chip": "ym2612"
    },
    {
      "channel": 1,
      "note": 70,
      "start": 101.4006,
      "duration": 0.1985,
      "velocity": 106,
      "chip": "ym2612"
    },
    {
      "channel": 2,
      "note": 37,
      "start": 101.401,
      "duration": 0.0992,
      "velocity": 86,
      "chip": "ym2612"
    },
    {
      "channel": 0,
      "note": 70,
      "start": 101.5,
      "duration": 0.1985,
      "velocity": 106,
      "chip": "ym2612"
    },
    {
      "channel": 2,
      "note": 43,
      "start": 101.5003,
      "duration": 0.0992,
      "velocity": 86,
      "chip": "ym2612"
    },
    {
      "channel": 1,
      "note": 73,
      "start": 101.5993,
      "duration": 0.1985,
      "velocity": 106,
      "chip": "ym2612"
    },
    {
      "channel": 2,
      "note": 34,
      "start": 101.5996,
      "duration": 0.0993,
      "velocity": 86,
      "chip": "ym2612"
    },
    {
      "channel": 0,
      "note": 73,
      "start": 101.6986,
      "duration": 0.1984,
      "velocity": 106,
      "chip": "ym2612"
    },
    {
      "channel": 2,
      "note": 43,
      "start": 101.699,
      "duration": 0.0991,
      "velocity": 86,
      "chip": "ym2612"
    },
    {
      "channel": 1,
      "note": 70,
      "start": 101.7979,
      "duration": 0.1985,
      "velocity": 106,
      "chip": "ym2612"
    },
    {
      "channel": 2,
      "note": 34,
      "start": 101.7982,
      "duration": 0.0992,
      "velocity": 86,
      "chip": "ym2612"
    },
    {
      "channel": 0,
      "note": 70,
      "start": 101.8972,
      "duration": 0.1985,
      "velocity": 106,
      "chip": "ym2612"
    },
    {
      "channel": 2,
      "note": 41,
      "start": 101.8976,
      "duration": 0.0992,
      "velocity": 86,
      "chip": "ym2612"
    },
    {
      "channel": 1,
      "note": 73,
      "start": 101.9965,
      "duration": 0.1985,
      "velocity": 106,
      "chip": "ym2612"
    },
    {
      "channel": 2,
      "note": 36,
      "start": 101.9968,
      "duration": 0.0992,
      "velocity": 86,
      "chip": "ym2612"
    },
    {
      "channel": 0,
      "note": 63,
      "start": 102.0958,
      "duration": 0.1985,
      "velocity": 106,
      "chip": "ym2612"
    },
    {
      "channel": 2,
      "note": 39,
      "start": 102.0961,
      "duration": 0.0992,
      "velocity": 86,
      "chip": "ym2612"
    },
    {
      "channel": 1,
      "note": 70,
      "start": 102.1951,
      "duration": 0.1985,
      "velocity": 106,
      "chip": "ym2612"
    },
    {
      "channel": 2,
      "note": 37,
      "start": 102.1954,
      "duration": 0.0992,
      "velocity": 86,
      "chip": "ym2612"
    },
    {
      "channel": 0,
      "note": 75,
      "start": 102.2945,
      "duration": 0.1985,
      "velocity": 106,
      "chip": "ym2612"
    },
    {
      "channel": 2,
      "note": 43,
      "start": 102.2948,
      "duration": 0.0992,
      "velocity": 86,
      "chip": "ym2612"
    },
    {
      "channel": 1,
      "note": 63,
      "start": 102.3938,
      "duration": 0.1985,
      "velocity": 106,
      "chip": "ym2612"
    },
    {
      "channel": 2,
      "note": 34,
      "start": 102.3941,
      "duration": 0.0992,
      "velocity": 86,
      "chip": "ym2612"
    },
    {
      "channel": 0,
      "note": 70,
      "start": 102.4931,
      "duration": 0.1985,
      "velocity": 106,
      "chip": "ym2612"
    },
    {
      "channel": 2,
      "note": 41,
      "start": 102.4934,
      "duration": 0.0993,
      "velocity": 86,
      "chip": "ym2612"
    },
    {
      "channel": 1,
      "note": 75,
      "start": 102.5924,
      "duration": 0.1985,
      "velocity": 106,
      "chip": "ym2612"
    },
    {
      "channel": 2,
      "note": 36,
      "start": 102.5928,
      "duration": 0.0992,
      "velocity": 86,
      "chip": "ym2612"
    },
    {
      "channel": 0,
      "note": 63,
      "start": 102.6917,
      "duration": 0.1985,
      "velocity": 106,
      "chip": "ym2612"
    },
    {
      "channel": 2,
      "note": 39,
      "start": 102.6921,
      "duration": 0.0992,
      "velocity": 86,
      "chip": "ym2612"
    },
    {
      "channel": 1,
      "note": 70,
      "start": 102.791,
      "duration": 0.1985,
      "velocity": 106,
      "chip": "ym2612"
    },
    {
      "channel": 2,
      "note": 37,
      "start": 102.7914,
      "duration": 0.0992,
      "velocity": 86,
      "chip": "ym2612"
    },
    {
      "channel": 0,
      "note": 73,
      "start": 102.8904,
      "duration": 0.1985,
      "velocity": 106,
      "chip": "ym2612"
    },
    {
      "channel": 2,
      "note": 43,
      "start": 102.8907,
      "duration": 0.0992,
      "velocity": 86,
      "chip": "ym2612"
    },
    {
      "channel": 1,
      "note": 63,
      "start": 102.9897,
      "duration": 0.1987,
      "velocity": 106,
      "chip": "ym2612"
    },
    {
      "channel": 2,
      "note": 34,
      "start": 102.99,
      "duration": 0.0992,
      "velocity": 86,
      "chip": "ym2612"
    },
    {
      "channel": 0,
      "note": 70,
      "start": 103.089,
      "duration": 0.1989,
      "velocity": 106,
      "chip": "ym2612"
    },
    {
      "channel": 2,
      "note": 41,
      "start": 103.0893,
      "duration": 0.0994,
      "velocity": 86,
      "chip": "ym2612"
    },
    {
      "channel": 1,
      "note": 73,
      "start": 103.1885,
      "duration": 0.1983,
      "velocity": 106,
      "chip": "ym2612"
    },
    {
      "channel": 2,
      "note": 36,
      "start": 103.1888,
      "duration": 0.0994,
      "velocity": 86,
      "chip": "ym2612"
    },
    {
      "channel": 0,
      "note": 63,
      "start": 103.288,
      "duration": 0.1981,
      "velocity": 106,
      "chip": "ym2612"
    },
    {
      "channel": 2,
      "note": 39,
      "start": 103.2883,
      "duration": 0.0988,
      "velocity": 86,
      "chip": "ym2612"
    },
    {
      "channel": 1,
      "note": 70,
      "start": 103.3869,
      "duration": 0.1985,
      "velocity": 106,
      "chip": "ym2612"
    },
    {
      "channel": 2,
      "note": 37,
      "start": 103.3872,
      "duration": 0.0992,
      "velocity": 86,
      "chip": "ym2612"
    },
    {
      "channel": 0,
      "note": 75,
      "start": 103.4863,
      "duration": 0.1985,
      "velocity": 106,
      "chip": "ym2612"
    },
    {
      "channel": 2,
      "note": 43,
      "start": 103.4866,
      "duration": 0.0992,
      "velocity": 86,
      "chip": "ym2612"
    },
    {
      "channel": 1,
      "note": 63,
      "start": 103.5856,
      "duration": 0.1985,
      "velocity": 106,
      "chip": "ym2612"
    },
    {
      "channel": 2,
      "note": 34,
      "start": 103.5859,
      "duration": 0.0992,
      "velocity": 86,
      "chip": "ym2612"
    },
    {
      "channel": 0,
      "note": 70,
      "start": 103.6849,
      "duration": 0.1985,
      "velocity": 106,
      "chip": "ym2612"
    },
    {
      "channel": 2,
      "note": 41,
      "start": 103.6852,
      "duration": 0.0992,
      "velocity": 86,
      "chip": "ym2612"
    },
    {
      "channel": 1,
      "note": 75,
      "start": 103.7842,
      "duration": 0.1985,
      "velocity": 106,
      "chip": "ym2612"
    },
    {
      "channel": 2,
      "note": 36,
      "start": 103.7845,
      "duration": 0.0993,
      "velocity": 86,
      "chip": "ym2612"
    },
    {
      "channel": 0,
      "note": 63,
      "start": 103.8835,
      "duration": 0.1985,
      "velocity": 106,
      "chip": "ym2612"
    },
    {
      "channel": 2,
      "note": 39,
      "start": 103.8839,
      "duration": 0.0992,
      "velocity": 86,
      "chip": "ym2612"
    },
    {
      "channel": 1,
      "note": 70,
      "start": 103.9829,
      "duration": 0.1985,
      "velocity": 106,
      "chip": "ym2612"
    },
    {
      "channel": 2,
      "note": 37,
      "start": 103.9832,
      "duration": 0.0992,
      "velocity": 86,
      "chip": "ym2612"
    },
    {
      "channel": 0,
      "note": 73,
      "start": 104.0822,
      "duration": 0.1985,
      "velocity": 106,
      "chip": "ym2612"
    },
    {
      "channel": 2,
      "note": 43,
      "start": 104.0825,
      "duration": 0.0992,
      "velocity": 86,
      "chip": "ym2612"
    },
    {
      "channel": 1,
      "note": 63,
      "start": 104.1815,
      "duration": 0.1985,
      "velocity": 106,
      "chip": "ym2612"
    },
    {
      "channel": 2,
      "note": 34,
      "start": 104.1818,
      "duration": 0.0992,
      "velocity": 86,
      "chip": "ym2612"
    },
    {
      "channel": 0,
      "note": 70,
      "start": 104.2807,
      "duration": 0.1985,
      "velocity": 106,
      "chip": "ym2612"
    },
    {
      "channel": 2,
      "note": 41,
      "start": 104.2811,
      "duration": 0.0992,
      "velocity": 86,
      "chip": "ym2612"
    },
    {
      "channel": 1,
      "note": 73,
      "start": 104.38,
      "duration": 0.1985,
      "velocity": 106,
      "chip": "ym2612"
    },
    {
      "channel": 2,
      "note": 36,
      "start": 104.3804,
      "duration": 0.0992,
      "velocity": 86,
      "chip": "ym2612"
    },
    {
      "channel": 0,
      "note": 73,
      "start": 104.4794,
      "duration": 0.1985,
      "velocity": 106,
      "chip": "ym2612"
    },
    {
      "channel": 2,
      "note": 39,
      "start": 104.4797,
      "duration": 0.0992,
      "velocity": 86,
      "chip": "ym2612"
    },
    {
      "channel": 1,
      "note": 70,
      "start": 104.5787,
      "duration": 0.1985,
      "velocity": 106,
      "chip": "ym2612"
    },
    {
      "channel": 2,
      "note": 37,
      "start": 104.579,
      "duration": 0.0992,
      "velocity": 86,
      "chip": "ym2612"
    },
    {
      "channel": 0,
      "note": 70,
      "start": 104.678,
      "duration": 0.1985,
      "velocity": 106,
      "chip": "ym2612"
    },
    {
      "channel": 2,
      "note": 43,
      "start": 104.6783,
      "duration": 0.0993,
      "velocity": 86,
      "chip": "ym2612"
    },
    {
      "channel": 1,
      "note": 73,
      "start": 104.7774,
      "duration": 0.1007,
      "velocity": 106,
      "chip": "ym2612"
    },
    {
      "channel": 2,
      "note": 34,
      "start": 104.7777,
      "duration": 0.1004,
      "velocity": 83,
      "chip": "ym2612"
    },
    {
      "channel": 0,
      "note": 73,
      "start": 104.8767,
      "duration": 0.0014,
      "velocity": 106,
      "chip": "ym2612"
    }
  ]
}