{
  "track_name": "01 - Bonus Table 1",
  "duration_sec": 43.905,
  "sample_rate": 44100,
  "note_count": 1433,
  "unique_pitches": 27,
  "pitch_range": 65,
  "avg_note_duration": 0.0975,
  "reconstruction_stats": {
    "notes_reconstructed": 1433,
    "keyon_events": 1433,
    "keyoff_events": 1431,
    "orphan_keyons": 2,
    "unique_pitches": 27,
    "pitch_range": 65,
    "avg_duration_sec": 0.0975
  },
  "metadata": {
    "source": "D\\Dragon's Fury\\01 - Bonus Table 1.vgz"
  },
  "notes": [
    {
      "channel": 0,
      "note": 76,
      "start": 0.0,
      "duration": 0.0,
      "velocity": 101,
      "chip": "ym2612"
    },
    {
      "channel": 0,
      "note": 78,
      "start": 0.0,
      "duration": 0.0,
      "velocity": 101,
      "chip": "ym2612"
    },
    {
      "channel": 0,
      "note": 71,
      "start": 0.0,
      "duration": 0.0,
      "velocity": 101,
      "chip": "ym2612"
    },
    {
      "channel": 0,
      "note": 73,
      "start": 0.0,
      "duration": 0.0,
      "velocity": 101,
      "chip": "ym2612"
    },
    {
      "channel": 0,
      "note": 74,
      "start": 0.0,
      "duration": 0.0,
      "velocity": 101,
      "chip": "ym2612"
    },
    {
      "channel": 0,
      "note": 112,
      "start": 0.0,
      "duration": 0.0225,
      "velocity": 98,
      "chip": "ym2612"
    },
    {
      "channel": 1,
      "note": 66,
      "start": 0.0,
      "duration": 0.0,
      "velocity": 103,
      "chip": "ym2612"
    },
    {
      "channel": 1,
      "note": 59,
      "start": 0.0,
      "duration": 0.0,
      "velocity": 103,
      "chip": "ym2612"
    },
    {
      "channel": 1,
      "note": 59,
      "start": 0.0,
      "duration": 0.0,
      "velocity": 103,
      "chip": "ym2612"
    },
    {
      "channel": 2,
      "note": 74,
      "start": 0.0,
      "duration": 0.0,
      "velocity": 109,
      "chip": "ym2612"
    },
    {
      "channel": 3,
      "note": 61,
      "start": 0.0,
      "duration": 0.0,
      "velocity": 127,
      "chip": "ym2612"
    },
    {
      "channel": 3,
      "note": 61,
      "start": 0.0,
      "duration": 0.0,
      "velocity": 127,
      "chip": "ym2612"
    },
    {
      "channel": 3,
      "note": 61,
      "start": 0.0,
      "duration": 0.0,
      "velocity": 127,
      "chip": "ym2612"
    },
    {
      "channel": 4,
      "note": 71,
      "start": 0.0,
      "duration": 0.0,
      "velocity": 109,
      "chip": "ym2612"
    },
    {
      "channel": 5,
      "note": 71,
      "start": 0.0,
      "duration": 0.0,
      "velocity": 101,
      "chip": "ym2612"
    },
    {
      "channel": 5,
      "note": 73,
      "start": 0.0,
      "duration": 0.0,
      "velocity": 101,
      "chip": "ym2612"
    },
    {
      "channel": 5,
      "note": 74,
      "start": 0.0,
      "duration": 0.0,
      "velocity": 101,
      "chip": "ym2612"
    },
    {
      "channel": 5,
      "note": 76,
      "start": 0.0,
      "duration": 0.0,
      "velocity": 101,
      "chip": "ym2612"
    },
    {
      "channel": 5,
      "note": 78,
      "start": 0.0,
      "duration": 0.0,
      "velocity": 101,
      "chip": "ym2612"
    },
    {
      "channel": 1,
      "note": 52,
      "start": 0.0001,
      "duration": 0.0847,
      "velocity": 103,
      "chip": "ym2612"
    },
    {
      "channel": 2,
      "note": 112,
      "start": 0.0018,
      "duration": 0.021,
      "velocity": 94,
      "chip": "ym2612"
    },
    {
      "channel": 3,
      "note": 61,
      "start": 0.0069,
      "duration": 0.0576,
      "velocity": 127,
      "chip": "ym2612"
    },
    {
      "channel": 4,
      "note": 107,
      "start": 0.0085,
      "duration": 0.015,
      "velocity": 94,
      "chip": "ym2612"
    },
    {
      "channel": 1,
      "note": 52,
      "start": 0.1291,
      "duration": 0.0804,
      "velocity": 103,
      "chip": "ym2612"
    },
    {
      "channel": 5,
      "note": 112,
      "start": 0.1911,
      "duration": 0.0194,
      "velocity": 98,
      "chip": "ym2612"
    },
    {
      "channel": 1,
      "note": 52,
      "start": 0.2537,
      "duration": 0.0805,
      "velocity": 103,
      "chip": "ym2612"
    },
    {
      "channel": 3,
      "note": 61,
      "start": 0.2559,
      "duration": 0.0579,
      "velocity": 127,
      "chip": "ym2612"
    },
    {
      "channel": 1,
      "note": 52,
      "start": 0.3783,
      "duration": 0.0803,
      "velocity": 103,
      "chip": "ym2612"
    },
    {
      "channel": 1,
      "note": 52,
      "start": 0.5033,
      "duration": 0.08,
      "velocity": 103,
      "chip": "ym2612"
    },
    {
      "channel": 3,
      "note": 62,
      "start": 0.5087,
      "duration": 0.013,
      "velocity": 127,
      "chip": "ym2612"
    },
    {
      "channel": 1,
      "note": 52,
      "start": 0.6274,
      "duration": 0.0804,
      "velocity": 103,
      "chip": "ym2612"
    },
    {
      "channel": 1,
      "note": 52,
      "start": 0.7521,
      "duration": 0.0804,
      "velocity": 103,
      "chip": "ym2612"
    },
    {
      "channel": 1,
      "note": 52,
      "start": 0.8766,
      "duration": 0.0804,
      "velocity": 103,
      "chip": "ym2612"
    },
    {
      "channel": 1,
      "note": 52,
      "start": 1.0013,
      "duration": 0.0803,
      "velocity": 103,
      "chip": "ym2612"
    },
    {
      "channel": 3,
      "note": 61,
      "start": 1.0068,
      "duration": 0.0545,
      "velocity": 127,
      "chip": "ym2612"
    },
    {
      "channel": 1,
      "note": 52,
      "start": 1.1258,
      "duration": 0.0804,
      "velocity": 103,
      "chip": "ym2612"
    },
    {
      "channel": 1,
      "note": 52,
      "start": 1.2505,
      "duration": 0.0804,
      "velocity": 103,
      "chip": "ym2612"
    },
    {
      "channel": 3,
      "note": 61,
      "start": 1.2527,
      "duration": 0.0577,
      "velocity": 127,
      "chip": "ym2612"
    },
    {
      "channel": 1,
      "note": 52,
      "start": 1.375,
      "duration": 0.0804,
      "velocity": 103,
      "chip": "ym2612"
    },
    {
      "channel": 1,
      "note": 52,
      "start": 1.4996,
      "duration": 0.0805,
      "velocity": 103,
      "chip": "ym2612"
    },
    {
      "channel": 3,
      "note": 62,
      "start": 1.5051,
      "duration": 0.0134,
      "velocity": 127,
      "chip": "ym2612"
    },
    {
      "channel": 1,
      "note": 52,
      "start": 1.6243,
      "duration": 0.0803,
      "velocity": 103,
      "chip": "ym2612"
    },
    {
      "channel": 1,
      "note": 52,
      "start": 1.7488,
      "duration": 0.0814,
      "velocity": 103,
      "chip": "ym2612"
    },
    {
      "channel": 1,
      "note": 52,
      "start": 1.8734,
      "duration": 0.0803,
      "velocity": 103,
      "chip": "ym2612"
    },
    {
      "channel": 0,
      "note": 112,
      "start": 1.9971,
      "duration": 0.0189,
      "velocity": 98,
      "chip": "ym2612"
    },
    {
      "channel": 1,
      "note": 52,
      "start": 2.0001,
      "duration": 0.0783,
      "velocity": 103,
      "chip": "ym2612"
    },
    {
      "channel": 2,
      "note": 112,
      "start": 2.0021,
      "duration": 0.0143,
      "velocity": 94,
      "chip": "ym2612"
    },
    {
      "channel": 3,
      "note": 61,
      "start": 2.008,
      "duration": 0.05,
      "velocity": 127,
      "chip": "ym2612"
    },
    {
      "channel": 4,
      "note": 107,
      "start": 2.0099,
      "duration": 0.0072,
      "velocity": 94,
      "chip": "ym2612"
    },
    {
      "channel": 1,
      "note": 52,
      "start": 2.1226,
      "duration": 0.0804,
      "velocity": 103,
      "chip": "ym2612"
    },
    {
      "channel": 5,
      "note": 112,
      "start": 2.1849,
      "duration": 0.0191,
      "velocity": 98,
      "chip": "ym2612"
    },
    {
      "channel": 1,
      "note": 52,
      "start": 2.2472,
      "duration": 0.0804,
      "velocity": 103,
      "chip": "ym2612"
    },
    {
      "channel": 3,
      "note": 61,
      "start": 2.2495,
      "duration": 0.0577,
      "velocity": 127,
      "chip": "ym2612"
    },
    {
      "channel": 1,
      "note": 52,
      "start": 2.3718,
      "duration": 0.0803,
      "velocity": 103,
      "chip": "ym2612"
    },
    {
      "channel": 1,
      "note": 52,
      "start": 2.4964,
      "duration": 0.0803,
      "velocity": 103,
      "chip": "ym2612"
    },
    {
      "channel": 3,
      "note": 62,
      "start": 2.502,
      "duration": 0.0133,
      "velocity": 127,
      "chip": "ym2612"
    },
    {
      "channel": 1,
      "note": 52,
      "start": 2.621,
      "duration": 0.0804,
      "velocity": 103,
      "chip": "ym2612"
    },
    {
      "channel": 1,
      "note": 52,
      "start": 2.7456,
      "duration": 0.0804,
      "velocity": 103,
      "chip": "ym2612"
    },
    {
      "channel": 1,
      "note": 52,
      "start": 2.8702,
      "duration": 0.0809,
      "velocity": 103,
      "chip": "ym2612"
    },
    {
      "channel": 1,
      "note": 52,
      "start": 2.9947,
      "duration": 0.0804,
      "velocity": 103,
      "chip": "ym2612"
    },
    {
      "channel": 3,
      "note": 61,
      "start": 3.0004,
      "duration": 0.0543,
      "velocity": 127,
      "chip": "ym2612"
    },
    {
      "channel": 1,
      "note": 52,
      "start": 3.1194,
      "duration": 0.0805,
      "velocity": 103,
      "chip": "ym2612"
    },
    {
      "channel": 1,
      "note": 52,
      "start": 3.244,
      "duration": 0.0803,
      "velocity": 103,
      "chip": "ym2612"
    },
    {
      "channel": 3,
      "note": 61,
      "start": 3.2461,
      "duration": 0.0578,
      "velocity": 127,
      "chip": "ym2612"
    },
    {
      "channel": 1,
      "note": 52,
      "start": 3.3686,
      "duration": 0.0803,
      "velocity": 103,
      "chip": "ym2612"
    },
    {
      "channel": 1,
      "note": 52,
      "start": 3.4932,
      "duration": 0.0803,
      "velocity": 103,
      "chip": "ym2612"
    },
    {
      "channel": 3,
      "note": 62,
      "start": 3.4985,
      "duration": 0.0139,
      "velocity": 127,
      "chip": "ym2612"
    },
    {
      "channel": 1,
      "note": 52,
      "start": 3.6187,
      "duration": 0.0795,
      "velocity": 103,
      "chip": "ym2612"
    },
    {
      "channel": 1,
      "note": 52,
      "start": 3.7423,
      "duration": 0.0804,
      "velocity": 103,
      "chip": "ym2612"
    },
    {
      "channel": 1,
      "note": 52,
      "start": 3.8669,
      "duration": 0.0803,
      "velocity": 103,
      "chip": "ym2612"
    },
    {
      "channel": 0,
      "note": 112,
      "start": 3.9906,
      "duration": 0.0189,
      "velocity": 98,
      "chip": "ym2612"
    },
    {
      "channel": 1,
      "note": 52,
      "start": 3.9935,
      "duration": 0.0786,
      "velocity": 103,
      "chip": "ym2612"
    },
    {
      "channel": 2,
      "note": 112,
      "start": 3.9954,
      "duration": 0.0144,
      "velocity": 94,
      "chip": "ym2612"
    },
    {
      "channel": 3,
      "note": 61,
      "start": 4.0015,
      "duration": 0.05,
      "velocity": 127,
      "chip": "ym2612"
    },
    {
      "channel": 4,
      "note": 107,
      "start": 4.0035,
      "duration": 0.0071,
      "velocity": 94,
      "chip": "ym2612"
    },
    {
      "channel": 1,
      "note": 52,
      "start": 4.1162,
      "duration": 0.0803,
      "velocity": 103,
      "chip": "ym2612"
    },
    {
      "channel": 5,
      "note": 112,
      "start": 4.1791,
      "duration": 0.0185,
      "velocity": 98,
      "chip": "ym2612"
    },
    {
      "channel": 1,
      "note": 52,
      "start": 4.2407,
      "duration": 0.0804,
      "velocity": 103,
      "chip": "ym2612"
    },
    {
      "channel": 3,
      "note": 61,
      "start": 4.2429,
      "duration": 0.0578,
      "velocity": 127,
      "chip": "ym2612"
    },
    {
      "channel": 1,
      "note": 52,
      "start": 4.3654,
      "duration": 0.0803,
      "velocity": 103,
      "chip": "ym2612"
    },
    {
      "channel": 1,
      "note": 52,
      "start": 4.4899,
      "duration": 0.0803,
      "velocity": 103,
      "chip": "ym2612"
    },
    {
      "channel": 3,
      "note": 62,
      "start": 4.4954,
      "duration": 0.0134,
      "velocity": 127,
      "chip": "ym2612"
    },
    {
      "channel": 1,
      "note": 52,
      "start": 4.6145,
      "duration": 0.0804,
      "velocity": 103,
      "chip": "ym2612"
    },
    {
      "channel": 1,
      "note": 52,
      "start": 4.7396,
      "duration": 0.0799,
      "velocity": 103,
      "chip": "ym2612"
    },
    {
      "channel": 1,
      "note": 52,
      "start": 4.8637,
      "duration": 0.0803,
      "velocity": 103,
      "chip": "ym2612"
    },
    {
      "channel": 1,
      "note": 52,
      "start": 4.9883,
      "duration": 0.0804,
      "velocity": 103,
      "chip": "ym2612"
    },
    {
      "channel": 3,
      "note": 61,
      "start": 4.9939,
      "duration": 0.0544,
      "velocity": 127,
      "chip": "ym2612"
    },
    {
      "channel": 1,
      "note": 52,
      "start": 5.1129,
      "duration": 0.0804,
      "velocity": 103,
      "chip": "ym2612"
    },
    {
      "channel": 1,
      "note": 52,
      "start": 5.2375,
      "duration": 0.0803,
      "velocity": 103,
      "chip": "ym2612"
    },
    {
      "channel": 3,
      "note": 61,
      "start": 5.2397,
      "duration": 0.0581,
      "velocity": 127,
      "chip": "ym2612"
    },
    {
      "channel": 1,
      "note": 52,
      "start": 5.362,
      "duration": 0.0804,
      "velocity": 103,
      "chip": "ym2612"
    },
    {
      "channel": 1,
      "note": 52,
      "start": 5.4867,
      "duration": 0.0804,
      "velocity": 103,
      "chip": "ym2612"
    },
    {
      "channel": 3,
      "note": 62,
      "start": 5.4921,
      "duration": 0.0134,
      "velocity": 127,
      "chip": "ym2612"
    },
    {
      "channel": 1,
      "note": 52,
      "start": 5.6113,
      "duration": 0.0803,
      "velocity": 103,
      "chip": "ym2612"
    },
    {
      "channel": 1,
      "note": 52,
      "start": 5.7359,
      "duration": 0.0804,
      "velocity": 103,
      "chip": "ym2612"
    },
    {
      "channel": 1,
      "note": 52,
      "start": 5.8606,
      "duration": 0.0803,
      "velocity": 103,
      "chip": "ym2612"
    },
    {
      "channel": 0,
      "note": 112,
      "start": 5.9842,
      "duration": 0.0189,
      "velocity": 98,
      "chip": "ym2612"
    },
    {
      "channel": 1,
      "note": 52,
      "start": 5.9871,
      "duration": 0.0783,
      "velocity": 103,
      "chip": "ym2612"
    },
    {
      "channel": 2,
      "note": 112,
      "start": 5.989,
      "duration": 0.0144,
      "velocity": 94,
      "chip": "ym2612"
    },
    {
      "channel": 3,
      "note": 62,
      "start": 5.995,
      "duration": 0.0092,
      "velocity": 127,
      "chip": "ym2612"
    },
    {
      "channel": 4,
      "note": 107,
      "start": 5.997,
      "duration": 0.0074,
      "velocity": 94,
      "chip": "ym2612"
    },
    {
      "channel": 1,
      "note": 52,
      "start": 6.1096,
      "duration": 0.0804,
      "velocity": 103,
      "chip": "ym2612"
    },
    {
      "channel": 3,
      "note": 62,
      "start": 6.1119,
      "duration": 0.0167,
      "velocity": 127,
      "chip": "ym2612"
    },
    {
      "channel": 5,
      "note": 112,
      "start": 6.172,
      "duration": 0.0191,
      "velocity": 98,
      "chip": "ym2612"
    },
    {
      "channel": 1,
      "note": 52,
      "start": 6.2343,
      "duration": 0.0803,
      "velocity": 103,
      "chip": "ym2612"
    },
    {
      "channel": 3,
      "note": 61,
      "start": 6.2398,
      "duration": 0.0545,
      "velocity": 127,
      "chip": "ym2612"
    },
    {
      "channel": 1,
      "note": 52,
      "start": 6.3589,
      "duration": 0.0803,
      "velocity": 103,
      "chip": "ym2612"
    },
    {
      "channel": 3,
      "note": 61,
      "start": 6.3612,
      "duration": 0.0576,
      "velocity": 127,
      "chip": "ym2612"
    },
    {
      "channel": 1,
      "note": 52,
      "start": 6.4835,
      "duration": 0.0804,
      "velocity": 103,
      "chip": "ym2612"
    },
    {
      "channel": 3,
      "note": 62,
      "start": 6.4891,
      "duration": 0.0132,
      "velocity": 127,
      "chip": "ym2612"
    },
    {
      "channel": 1,
      "note": 52,
      "start": 6.608,
      "duration": 0.0804,
      "velocity": 103,
      "chip": "ym2612"
    },
    {
      "channel": 3,
      "note": 62,
      "start": 6.6102,
      "duration": 0.0176,
      "velocity": 127,
      "chip": "ym2612"
    },
    {
      "channel": 1,
      "note": 52,
      "start": 6.7326,
      "duration": 0.0804,
      "velocity": 103,
      "chip": "ym2612"
    },
    {
      "channel": 3,
      "note": 61,
      "start": 6.7382,
      "duration": 0.0543,
      "velocity": 127,
      "chip": "ym2612"
    },
    {
      "channel": 1,
      "note": 52,
      "start": 6.8572,
      "duration": 0.0804,
      "velocity": 103,
      "chip": "ym2612"
    },
    {
      "channel": 3,
      "note": 61,
      "start": 6.8594,
      "duration": 0.0577,
      "velocity": 127,
      "chip": "ym2612"
    },
    {
      "channel": 1,
      "note": 52,
      "start": 6.9818,
      "duration": 0.0804,
      "velocity": 103,
      "chip": "ym2612"
    },
    {
      "channel": 3,
      "note": 62,
      "start": 6.9876,
      "duration": 0.0132,
      "velocity": 127,
      "chip": "ym2612"
    },
    {
      "channel": 1,
      "note": 52,
      "start": 7.1064,
      "duration": 0.0812,
      "velocity": 103,
      "chip": "ym2612"
    },
    {
      "channel": 1,
      "note": 52,
      "start": 7.231,
      "duration": 0.0804,
      "velocity": 103,
      "chip": "ym2612"
    },
    {
      "channel": 1,
      "note": 52,
      "start": 7.3556,
      "duration": 0.0803,
      "velocity": 103,
      "chip": "ym2612"
    },
    {
      "channel": 3,
      "note": 62,
      "start": 7.3578,
      "duration": 0.0166,
      "velocity": 127,
      "chip": "ym2612"
    },
    {
      "channel": 1,
      "note": 52,
      "start": 7.4802,
      "duration": 0.0804,
      "velocity": 103,
      "chip": "ym2612"
    },
    {
      "channel": 3,
      "note": 62,
      "start": 7.4825,
      "duration": 0.0166,
      "velocity": 127,
      "chip": "ym2612"
    },
    {
      "channel": 1,
      "note": 52,
      "start": 7.6048,
      "duration": 0.0803,
      "velocity": 103,
      "chip": "ym2612"
    },
    {
      "channel": 3,
      "note": 62,
      "start": 7.607,
      "duration": 0.0166,
      "velocity": 127,
      "chip": "ym2612"
    },
    {
      "channel": 1,
      "note": 52,
      "start": 7.7293,
      "duration": 0.0804,
      "velocity": 103,
      "chip": "ym2612"
    },
    {
      "channel": 1,
      "note": 52,
      "start": 7.854,
      "duration": 0.0804,
      "velocity": 103,
      "chip": "ym2612"
    },
    {
      "channel": 0,
      "note": 112,
      "start": 7.9776,
      "duration": 0.0192,
      "velocity": 98,
      "chip": "ym2612"
    },
    {
      "channel": 1,
      "note": 52,
      "start": 7.9805,
      "duration": 0.0784,
      "velocity": 103,
      "chip": "ym2612"
    },
    {
      "channel": 2,
      "note": 64,
      "start": 7.9827,
      "duration": 0.4502,
      "velocity": 94,
      "chip": "ym2612"
    },
    {
      "channel": 3,
      "note": 61,
      "start": 7.9887,
      "duration": 0.0498,
      "velocity": 127,
      "chip": "ym2612"
    },
    {
      "channel": 4,
      "note": 59,
      "start": 7.9908,
      "duration": 0.443,
      "velocity": 94,
      "chip": "ym2612"
    },
    {
      "channel": 1,
      "note": 52,
      "start": 8.1032,
      "duration": 0.0803,
      "velocity": 103,
      "chip": "ym2612"
    },
    {
      "channel": 5,
      "note": 112,
      "start": 8.1656,
      "duration": 0.019,
      "velocity": 98,
      "chip": "ym2612"
    },
    {
      "channel": 1,
      "note": 52,
      "start": 8.2278,
      "duration": 0.0813,
      "velocity": 103,
      "chip": "ym2612"
    },
    {
      "channel": 3,
      "note": 61,
      "start": 8.23,
      "duration": 0.0578,
      "velocity": 127,
      "chip": "ym2612"
    },
    {
      "channel": 1,
      "note": 52,
      "start": 8.3524,
      "duration": 0.0803,
      "velocity": 103,
      "chip": "ym2612"
    },
    {
      "channel": 1,
      "note": 52,
      "start": 8.4769,
      "duration": 0.0804,
      "velocity": 103,
      "chip": "ym2612"
    },
    {
      "channel": 2,
      "note": 65,
      "start": 8.4786,
      "duration": 0.2035,
      "velocity": 94,
      "chip": "ym2612"
    },
    {
      "channel": 3,
      "note": 62,
      "start": 8.4841,
      "duration": 0.0118,
      "velocity": 127,
      "chip": "ym2612"
    },
    {
      "channel": 4,
      "note": 60,
      "start": 8.4858,
      "duration": 0.1971,
      "velocity": 94,
      "chip": "ym2612"
    },
    {
      "channel": 1,
      "note": 52,
      "start": 8.6016,
      "duration": 0.0803,
      "velocity": 103,
      "chip": "ym2612"
    },
    {
      "channel": 1,
      "note": 52,
      "start": 8.7261,
      "duration": 0.0804,
      "velocity": 103,
      "chip": "ym2612"
    },
    {
      "channel": 2,
      "note": 52,
      "start": 8.7279,
      "duration": 0.2034,
      "velocity": 94,
      "chip": "ym2612"
    },
    {
      "channel": 4,
      "note": 47,
      "start": 8.7304,
      "duration": 0.2017,
      "velocity": 94,
      "chip": "ym2612"
    },
    {
      "channel": 1,
      "note": 52,
      "start": 8.8508,
      "duration": 0.0804,
      "velocity": 103,
      "chip": "ym2612"
    },
    {
      "channel": 1,
      "note": 52,
      "start": 8.976,
      "duration": 0.0797,
      "velocity": 103,
      "chip": "ym2612"
    },
    {
      "channel": 2,
      "note": 52,
      "start": 8.9776,
      "duration": 0.2029,
      "velocity": 94,
      "chip": "ym2612"
    },
    {
      "channel": 3,
      "note": 61,
      "start": 8.9832,
      "duration": 0.0521,
      "velocity": 127,
      "chip": "ym2612"
    },
    {
      "channel": 4,
      "note": 47,
      "start": 8.9849,
      "duration": 0.1964,
      "velocity": 94,
      "chip": "ym2612"
    },
    {
      "channel": 1,
      "note": 52,
      "start": 9.1,
      "duration": 0.0803,
      "velocity": 103,
      "chip": "ym2612"
    },
    {
      "channel": 1,
      "note": 52,
      "start": 9.2245,
      "duration": 0.0804,
      "velocity": 103,
      "chip": "ym2612"
    },
    {
      "channel": 2,
      "note": 64,
      "start": 9.2262,
      "duration": 0.2036,
      "velocity": 94,
      "chip": "ym2612"
    },
    {
      "channel": 3,
      "note": 61,
      "start": 9.2283,
      "duration": 0.0562,
      "velocity": 127,
      "chip": "ym2612"
    },
    {
      "channel": 4,
      "note": 59,
      "start": 9.2299,
      "duration": 0.2008,
      "velocity": 94,
      "chip": "ym2612"
    },
    {
      "channel": 1,
      "note": 52,
      "start": 9.3491,
      "duration": 0.0805,
      "velocity": 103,
      "chip": "ym2612"
    },
    {
      "channel": 1,
      "note": 52,
      "start": 9.4737,
      "duration": 0.0804,
      "velocity": 103,
      "chip": "ym2612"
    },
    {
      "channel": 2,
      "note": 65,
      "start": 9.4753,
      "duration": 0.2036,
      "velocity": 94,
      "chip": "ym2612"
    },
    {
      "channel": 3,
      "note": 62,
      "start": 9.4807,
      "duration": 0.0119,
      "velocity": 127,
      "chip": "ym2612"
    },
    {
      "channel": 4,
      "note": 60,
      "start": 9.4825,
      "duration": 0.1972,
      "velocity": 94,
      "chip": "ym2612"
    },
    {
      "channel": 1,
      "note": 52,
      "start": 9.5983,
      "duration": 0.0804,
      "velocity": 103,
      "chip": "ym2612"
    },
    {
      "channel": 1,
      "note": 52,
      "start": 9.7229,
      "duration": 0.0803,
      "velocity": 103,
      "chip": "ym2612"
    },
    {
      "channel": 2,
      "note": 52,
      "start": 9.7247,
      "duration": 0.2034,
      "velocity": 94,
      "chip": "ym2612"
    },
    {
      "channel": 4,
      "note": 47,
      "start": 9.7271,
      "duration": 0.2018,
      "velocity": 94,
      "chip": "ym2612"
    },
    {
      "channel": 1,
      "note": 52,
      "start": 9.8475,
      "duration": 0.0804,
      "velocity": 103,
      "chip": "ym2612"
    },
    {
      "channel": 0,
      "note": 112,
      "start": 9.9711,
      "duration": 0.019,
      "velocity": 98,
      "chip": "ym2612"
    },
    {
      "channel": 1,
      "note": 52,
      "start": 9.9741,
      "duration": 0.0784,
      "velocity": 103,
      "chip": "ym2612"
    },
    {
      "channel": 2,
      "note": 52,
      "start": 9.9757,
      "duration": 0.2016,
      "velocity": 94,
      "chip": "ym2612"
    },
    {
      "channel": 3,
      "note": 61,
      "start": 9.9827,
      "duration": 0.0494,
      "velocity": 127,
      "chip": "ym2612"
    },
    {
      "channel": 4,
      "note": 47,
      "start": 9.9844,
      "duration": 0.1937,
      "velocity": 94,
      "chip": "ym2612"
    },
    {
      "channel": 1,
      "note": 52,
      "start": 10.097,
      "duration": 0.08,
      "velocity": 103,
      "chip": "ym2612"
    },
    {
      "channel": 5,
      "note": 112,
      "start": 10.159,
      "duration": 0.0192,
      "velocity": 98,
      "chip": "ym2612"
    },
    {
      "channel": 1,
      "note": 52,
      "start": 10.2213,
      "duration": 0.0805,
      "velocity": 103,
      "chip": "ym2612"
    },
    {
      "channel": 2,
      "note": 64,
      "start": 10.2229,
      "duration": 0.2036,
      "velocity": 94,
      "chip": "ym2612"
    },
    {
      "channel": 3,
      "note": 61,
      "start": 10.225,
      "duration": 0.0562,
      "velocity": 127,
      "chip": "ym2612"
    },
    {
      "channel": 4,
      "note": 59,
      "start": 10.2267,
      "duration": 0.2006,
      "velocity": 94,
      "chip": "ym2612"
    },
    {
      "channel": 1,
      "note": 52,
      "start": 10.3459,
      "duration": 0.0803,
      "velocity": 103,
      "chip": "ym2612"
    },
    {
      "channel": 1,
      "note": 52,
      "start": 10.4704,
      "duration": 0.0804,
      "velocity": 103,
      "chip": "ym2612"
    },
    {
      "channel": 2,
      "note": 65,
      "start": 10.4721,
      "duration": 0.2036,
      "velocity": 94,
      "chip": "ym2612"
    },
    {
      "channel": 3,
      "note": 62,
      "start": 10.4774,
      "duration": 0.0119,
      "velocity": 127,
      "chip": "ym2612"
    },
    {
      "channel": 4,
      "note": 60,
      "start": 10.4791,
      "duration": 0.1973,
      "velocity": 94,
      "chip": "ym2612"
    },
    {
      "channel": 1,
      "note": 52,
      "start": 10.5951,
      "duration": 0.0804,
      "velocity": 103,
      "chip": "ym2612"
    },
    {
      "channel": 1,
      "note": 52,
      "start": 10.7197,
      "duration": 0.0803,
      "velocity": 103,
      "chip": "ym2612"
    },
    {
      "channel": 2,
      "note": 52,
      "start": 10.7215,
      "duration": 0.2034,
      "velocity": 94,
      "chip": "ym2612"
    },
    {
      "channel": 4,
      "note": 47,
      "start": 10.7238,
      "duration": 0.2018,
      "velocity": 94,
      "chip": "ym2612"
    },
    {
      "channel": 1,
      "note": 52,
      "start": 10.8442,
      "duration": 0.0804,
      "velocity": 103,
      "chip": "ym2612"
    },
    {
      "channel": 1,
      "note": 52,
      "start": 10.9689,
      "duration": 0.0803,
      "velocity": 103,
      "chip": "ym2612"
    },
    {
      "channel": 2,
      "note": 67,
      "start": 10.9706,
      "duration": 0.2034,
      "velocity": 94,
      "chip": "ym2612"
    },
    {
      "channel": 3,
      "note": 61,
      "start": 10.976,
      "duration": 0.0527,
      "velocity": 127,
      "chip": "ym2612"
    },
    {
      "channel": 4,
      "note": 62,
      "start": 10.9777,
      "duration": 0.1971,
      "velocity": 94,
      "chip": "ym2612"
    },
    {
      "channel": 1,
      "note": 52,
      "start": 11.0934,
      "duration": 0.0804,
      "velocity": 103,
      "chip": "ym2612"
    },
    {
      "channel": 1,
      "note": 52,
      "start": 11.2181,
      "duration": 0.0803,
      "velocity": 103,
      "chip": "ym2612"
    },
    {
      "channel": 2,
      "note": 52,
      "start": 11.2197,
      "duration": 0.2045,
      "velocity": 94,
      "chip": "ym2612"
    },
    {
      "channel": 3,
      "note": 61,
      "start": 11.2218,
      "duration": 0.0561,
      "velocity": 127,
      "chip": "ym2612"
    },
    {
      "channel": 4,
      "note": 47,
      "start": 11.2235,
      "duration": 0.2015,
      "velocity": 94,
      "chip": "ym2612"
    },
    {
      "channel": 1,
      "note": 52,
      "start": 11.3426,
      "duration": 0.0813,
      "velocity": 103,
      "chip": "ym2612"
    },
    {
      "channel": 1,
      "note": 52,
      "start": 11.4673,
      "duration": 0.0803,
      "velocity": 103,
      "chip": "ym2612"
    },
    {
      "channel": 2,
      "note": 65,
      "start": 11.4689,
      "duration": 0.2035,
      "velocity": 94,
      "chip": "ym2612"
    },
    {
      "channel": 3,
      "note": 62,
      "start": 11.4743,
      "duration": 0.0118,
      "velocity": 127,
      "chip": "ym2612"
    },
    {
      "channel": 4,
      "note": 60,
      "start": 11.476,
      "duration": 0.1973,
      "velocity": 94,
      "chip": "ym2612"
    },
    {
      "channel": 1,
      "note": 52,
      "start": 11.5918,
      "duration": 0.0804,
      "velocity": 103,
      "chip": "ym2612"
    },
    {
      "channel": 1,
      "note": 52,
      "start": 11.7165,
      "duration": 0.0804,
      "velocity": 103,
      "chip": "ym2612"
    },
    {
      "channel": 2,
      "note": 64,
      "start": 11.7181,
      "duration": 0.2034,
      "velocity": 94,
      "chip": "ym2612"
    },
    {
      "channel": 4,
      "note": 59,
      "start": 11.7204,
      "duration": 0.202,
      "velocity": 94,
      "chip": "ym2612"
    },
    {
      "channel": 1,
      "note": 52,
      "start": 11.841,
      "duration": 0.0804,
      "velocity": 103,
      "chip": "ym2612"
    },
    {
      "channel": 0,
      "note": 69,
      "start": 11.965,
      "duration": 0.0602,
      "velocity": 98,
      "chip": "ym2612"
    },
    {
      "channel": 1,
      "note": 52,
      "start": 11.968,
      "duration": 0.0797,
      "velocity": 103,
      "chip": "ym2612"
    },
    {
      "channel": 2,
      "note": 52,
      "start": 11.9701,
      "duration": 0.0779,
      "velocity": 94,
      "chip": "ym2612"
    },
    {
      "channel": 3,
      "note": 61,
      "start": 11.9771,
      "duration": 0.0485,
      "velocity": 127,
      "chip": "ym2612"
    },
    {
      "channel": 4,
      "note": 47,
      "start": 11.9793,
      "duration": 0.0695,
      "velocity": 94,
      "chip": "ym2612"
    },
    {
      "channel": 0,
      "note": 68,
      "start": 12.0475,
      "duration": 0.0607,
      "velocity": 98,
      "chip": "ym2612"
    },
    {
      "channel": 1,
      "note": 52,
      "start": 12.0902,
      "duration": 0.0804,
      "velocity": 103,
      "chip": "ym2612"
    },
    {
      "channel": 2,
      "note": 52,
      "start": 12.092,
      "duration": 0.0788,
      "velocity": 94,
      "chip": "ym2612"
    },
    {
      "channel": 4,
      "note": 47,
      "start": 12.0944,
      "duration": 0.0772,
      "velocity": 94,
      "chip": "ym2612"
    },
    {
      "channel": 0,
      "note": 66,
      "start": 12.1305,
      "duration": 0.0607,
      "velocity": 98,
      "chip": "ym2612"
    },
    {
      "channel": 5,
      "note": 69,
      "start": 12.1529,
      "duration": 0.0697,
      "velocity": 98,
      "chip": "ym2612"
    },
    {
      "channel": 0,
      "note": 65,
      "start": 12.2136,
      "duration": 0.0607,
      "velocity": 98,
      "chip": "ym2612"
    },
    {
      "channel": 1,
      "note": 52,
      "start": 12.2166,
      "duration": 0.0803,
      "velocity": 103,
      "chip": "ym2612"
    },
    {
      "channel": 2,
      "note": 52,
      "start": 12.2184,
      "duration": 0.0788,
      "velocity": 94,
      "chip": "ym2612"
    },
    {
      "channel": 3,
      "note": 61,
      "start": 12.2205,
      "duration": 0.0543,
      "velocity": 127,
      "chip": "ym2612"
    },
    {
      "channel": 4,
      "note": 47,
      "start": 12.2223,
      "duration": 0.0756,
      "velocity": 94,
      "chip": "ym2612"
    },
    {
      "channel": 5,
      "note": 68,
      "start": 12.2354,
      "duration": 0.0628,
      "velocity": 98,
      "chip": "ym2612"
    },
    {
      "channel": 0,
      "note": 64,
      "start": 12.2966,
      "duration": 0.0607,
      "velocity": 98,
      "chip": "ym2612"
    },
    {
      "channel": 5,
      "note": 66,
      "start": 12.3184,
      "duration": 0.0625,
      "velocity": 98,
      "chip": "ym2612"
    },
    {
      "channel": 1,
      "note": 52,
      "start": 12.3394,
      "duration": 0.0804,
      "velocity": 103,
      "chip": "ym2612"
    },
    {
      "channel": 2,
      "note": 52,
      "start": 12.3412,
      "duration": 0.0788,
      "velocity": 94,
      "chip": "ym2612"
    },
    {
      "channel": 4,
      "note": 47,
      "start": 12.3436,
      "duration": 0.0772,
      "velocity": 94,
      "chip": "ym2612"
    },
    {
      "channel": 0,
      "note": 62,
      "start": 12.3797,
      "duration": 0.0608,
      "velocity": 98,
      "chip": "ym2612"
    },
    {
      "channel": 5,
      "note": 65,
      "start": 12.4015,
      "duration": 0.0737,
      "velocity": 98,
      "chip": "ym2612"
    },
    {
      "channel": 0,
      "note": 69,
      "start": 12.4629,
      "duration": 0.0606,
      "velocity": 98,
      "chip": "ym2612"
    },
    {
      "channel": 1,
      "note": 52,
      "start": 12.4659,
      "duration": 0.0808,
      "velocity": 103,
      "chip": "ym2612"
    },
    {
      "channel": 2,
      "note": 52,
      "start": 12.4678,
      "duration": 0.0791,
      "velocity": 94,
      "chip": "ym2612"
    },
    {
      "channel": 3,
      "note": 62,
      "start": 12.4731,
      "duration": 0.0098,
      "velocity": 127,
      "chip": "ym2612"
    },
    {
      "channel": 4,
      "note": 47,
      "start": 12.4749,
      "duration": 0.0727,
      "velocity": 94,
      "chip": "ym2612"
    },
    {
      "channel": 5,
      "note": 64,
      "start": 12.4848,
      "duration": 0.0632,
      "velocity": 98,
      "chip": "ym2612"
    },
    {
      "channel": 0,
      "note": 68,
      "start": 12.5464,
      "duration": 0.0602,
      "velocity": 98,
      "chip": "ym2612"
    },
    {
      "channel": 5,
      "note": 62,
      "start": 12.5676,
      "duration": 0.0625,
      "velocity": 98,
      "chip": "ym2612"
    },
    {
      "channel": 1,
      "note": 52,
      "start": 12.5886,
      "duration": 0.0803,
      "velocity": 103,
      "chip": "ym2612"
    },
    {
      "channel": 2,
      "note": 52,
      "start": 12.5904,
      "duration": 0.0788,
      "velocity": 94,
      "chip": "ym2612"
    },
    {
      "channel": 4,
      "note": 47,
      "start": 12.5928,
      "duration": 0.0771,
      "velocity": 94,
      "chip": "ym2612"
    },
    {
      "channel": 0,
      "note": 66,
      "start": 12.6289,
      "duration": 0.0608,
      "velocity": 98,
      "chip": "ym2612"
    },
    {
      "channel": 5,
      "note": 69,
      "start": 12.6508,
      "duration": 0.0686,
      "velocity": 98,
      "chip": "ym2612"
    },
    {
      "channel": 0,
      "note": 65,
      "start": 12.712,
      "duration": 0.0607,
      "velocity": 98,
      "chip": "ym2612"
    },
    {
      "channel": 1,
      "note": 52,
      "start": 12.7149,
      "duration": 0.0803,
      "velocity": 103,
      "chip": "ym2612"
    },
    {
      "channel": 2,
      "note": 52,
      "start": 12.7168,
      "duration": 0.0786,
      "velocity": 94,
      "chip": "ym2612"
    },
    {
      "channel": 4,
      "note": 47,
      "start": 12.7192,
      "duration": 0.077,
      "velocity": 94,
      "chip": "ym2612"
    },
    {
      "channel": 5,
      "note": 68,
      "start": 12.7337,
      "duration": 0.0627,
      "velocity": 98,
      "chip": "ym2612"
    },
    {
      "channel": 0,
      "note": 64,
      "start": 12.7951,
      "duration": 0.0607,
      "velocity": 98,
      "chip": "ym2612"
    },
    {
      "channel": 5,
      "note": 66,
      "start": 12.8168,
      "duration": 0.0624,
      "velocity": 98,
      "chip": "ym2612"
    },
    {
      "channel": 1,
      "note": 52,
      "start": 12.8378,
      "duration": 0.0804,
      "velocity": 103,
      "chip": "ym2612"
    },
    {
      "channel": 2,
      "note": 52,
      "start": 12.8396,
      "duration": 0.0788,
      "velocity": 94,
      "chip": "ym2612"
    },
    {
      "channel": 4,
      "note": 47,
      "start": 12.842,
      "duration": 0.0772,
      "velocity": 94,
      "chip": "ym2612"
    },
    {
      "channel": 0,
      "note": 62,
      "start": 12.8781,
      "duration": 0.0607,
      "velocity": 98,
      "chip": "ym2612"
    },
    {
      "channel": 5,
      "note": 65,
      "start": 12.8999,
      "duration": 0.0739,
      "velocity": 98,
      "chip": "ym2612"
    },
    {
      "channel": 0,
      "note": 69,
      "start": 12.9613,
      "duration": 0.0606,
      "velocity": 98,
      "chip": "ym2612"
    },
    {
      "channel": 1,
      "note": 52,
      "start": 12.9642,
      "duration": 0.0802,
      "velocity": 103,
      "chip": "ym2612"
    },
    {
      "channel": 2,
      "note": 52,
      "start": 12.9661,
      "duration": 0.0785,
      "velocity": 94,
      "chip": "ym2612"
    },
    {
      "channel": 3,
      "note": 61,
      "start": 12.9717,
      "duration": 0.0507,
      "velocity": 127,
      "chip": "ym2612"
    },
    {
      "channel": 4,
      "note": 47,
      "start": 12.9735,
      "duration": 0.072,
      "velocity": 94,
      "chip": "ym2612"
    },
    {
      "channel": 5,
      "note": 64,
      "start": 12.983,
      "duration": 0.0627,
      "velocity": 98,
      "chip": "ym2612"
    },
    {
      "channel": 0,
      "note": 68,
      "start": 13.0442,
      "duration": 0.0611,
      "velocity": 98,
      "chip": "ym2612"
    },
    {
      "channel": 5,
      "note": 62,
      "start": 13.066,
      "duration": 0.0624,
      "velocity": 98,
      "chip": "ym2612"
    },
    {
      "channel": 1,
      "note": 52,
      "start": 13.087,
      "duration": 0.0804,
      "velocity": 103,
      "chip": "ym2612"
    },
    {
      "channel": 2,
      "note": 52,
      "start": 13.0888,
      "duration": 0.0788,
      "velocity": 94,
      "chip": "ym2612"
    },
    {
      "channel": 4,
      "note": 47,
      "start": 13.0912,
      "duration": 0.0772,
      "velocity": 94,
      "chip": "ym2612"
    },
    {
      "channel": 0,
      "note": 66,
      "start": 13.1273,
      "duration": 0.0607,
      "velocity": 98,
      "chip": "ym2612"
    },
    {
      "channel": 5,
      "note": 69,
      "start": 13.1493,
      "duration": 0.071,
      "velocity": 98,
      "chip": "ym2612"
    },
    {
      "channel": 0,
      "note": 65,
      "start": 13.2112,
      "duration": 0.0598,
      "velocity": 98,
      "chip": "ym2612"
    },
    {
      "channel": 1,
      "note": 52,
      "start": 13.2141,
      "duration": 0.0795,
      "velocity": 103,
      "chip": "ym2612"
    },
    {
      "channel": 2,
      "note": 52,
      "start": 13.2161,
      "duration": 0.0778,
      "velocity": 94,
      "chip": "ym2612"
    },
    {
      "channel": 3,
      "note": 61,
      "start": 13.2182,
      "duration": 0.0534,
      "velocity": 127,
      "chip": "ym2612"
    },
    {
      "channel": 4,
      "note": 47,
      "start": 13.22,
      "duration": 0.0746,
      "velocity": 94,
      "chip": "ym2612"
    },
    {
      "channel": 5,
      "note": 68,
      "start": 13.2322,
      "duration": 0.0627,
      "velocity": 98,
      "chip": "ym2612"
    },
    {
      "channel": 0,
      "note": 64,
      "start": 13.2934,
      "duration": 0.0607,
      "velocity": 98,
      "chip": "ym2612"
    },
    {
      "channel": 5,
      "note": 66,
      "start": 13.3152,
      "duration": 0.0624,
      "velocity": 98,
      "chip": "ym2612"
    },
    {
      "channel": 1,
      "note": 52,
      "start": 13.3361,
      "duration": 0.0805,
      "velocity": 103,
      "chip": "ym2612"
    },
    {
      "channel": 2,
      "note": 52,
      "start": 13.338,
      "duration": 0.0788,
      "velocity": 94,
      "chip": "ym2612"
    },
    {
      "channel": 4,
      "note": 47,
      "start": 13.3403,
      "duration": 0.0772,
      "velocity": 94,
      "chip": "ym2612"
    },
    {
      "channel": 0,
      "note": 62,
      "start": 13.3765,
      "duration": 0.0607,
      "velocity": 98,
      "chip": "ym2612"
    },
    {
      "channel": 5,
      "note": 65,
      "start": 13.3983,
      "duration": 0.0737,
      "velocity": 98,
      "chip": "ym2612"
    },
    {
      "channel": 0,
      "note": 69,
      "start": 13.4597,
      "duration": 0.0606,
      "velocity": 98,
      "chip": "ym2612"
    },
    {
      "channel": 1,
      "note": 52,
      "start": 13.4626,
      "duration": 0.0802,
      "velocity": 103,
      "chip": "ym2612"
    },
    {
      "channel": 2,
      "note": 52,
      "start": 13.4644,
      "duration": 0.0786,
      "velocity": 94,
      "chip": "ym2612"
    },
    {
      "channel": 3,
      "note": 62,
      "start": 13.4699,
      "duration": 0.0098,
      "velocity": 127,
      "chip": "ym2612"
    },
    {
      "channel": 4,
      "note": 47,
      "start": 13.4717,
      "duration": 0.0721,
      "velocity": 94,
      "chip": "ym2612"
    },
    {
      "channel": 5,
      "note": 64,
      "start": 13.4815,
      "duration": 0.0625,
      "velocity": 98,
      "chip": "ym2612"
    },
    {
      "channel": 0,
      "note": 68,
      "start": 13.5426,
      "duration": 0.0607,
      "velocity": 98,
      "chip": "ym2612"
    },
    {
      "channel": 5,
      "note": 62,
      "start": 13.5646,
      "duration": 0.0622,
      "velocity": 98,
      "chip": "ym2612"
    },
    {
      "channel": 1,
      "note": 52,
      "start": 13.5854,
      "duration": 0.0805,
      "velocity": 103,
      "chip": "ym2612"
    },
    {
      "channel": 2,
      "note": 52,
      "start": 13.5872,
      "duration": 0.0789,
      "velocity": 94,
      "chip": "ym2612"
    },
    {
      "channel": 4,
      "note": 47,
      "start": 13.5897,
      "duration": 0.0773,
      "velocity": 94,
      "chip": "ym2612"
    },
    {
      "channel": 0,
      "note": 66,
      "start": 13.6256,
      "duration": 0.0607,
      "velocity": 98,
      "chip": "ym2612"
    },
    {
      "channel": 5,
      "note": 69,
      "start": 13.6475,
      "duration": 0.0686,
      "velocity": 98,
      "chip": "ym2612"
    },
    {
      "channel": 0,
      "note": 65,
      "start": 13.7087,
      "duration": 0.0614,
      "velocity": 98,
      "chip": "ym2612"
    },
    {
      "channel": 1,
      "note": 52,
      "start": 13.7116,
      "duration": 0.0804,
      "velocity": 103,
      "chip": "ym2612"
    },
    {
      "channel": 2,
      "note": 52,
      "start": 13.7134,
      "duration": 0.0788,
      "velocity": 94,
      "chip": "ym2612"
    },
    {
      "channel": 4,
      "note": 47,
      "start": 13.7159,
      "duration": 0.0772,
      "velocity": 94,
      "chip": "ym2612"
    },
    {
      "channel": 5,
      "note": 68,
      "start": 13.7305,
      "duration": 0.0627,
      "velocity": 98,
      "chip": "ym2612"
    },
    {
      "channel": 0,
      "note": 64,
      "start": 13.7918,
      "duration": 0.0607,
      "velocity": 98,
      "chip": "ym2612"
    },
    {
      "channel": 5,
      "note": 66,
      "start": 13.8135,
      "duration": 0.0624,
      "velocity": 98,
      "chip": "ym2612"
    },
    {
      "channel": 1,
      "note": 52,
      "start": 13.8346,
      "duration": 0.0803,
      "velocity": 103,
      "chip": "ym2612"
    },
    {
      "channel": 2,
      "note": 52,
      "start": 13.8364,
      "duration": 0.0788,
      "velocity": 94,
      "chip": "ym2612"
    },
    {
      "channel": 4,
      "note": 47,
      "start": 13.8388,
      "duration": 0.0771,
      "velocity": 94,
      "chip": "ym2612"
    },
    {
      "channel": 0,
      "note": 62,
      "start": 13.8748,
      "duration": 0.0607,
      "velocity": 98,
      "chip": "ym2612"
    },
    {
      "channel": 5,
      "note": 65,
      "start": 13.8966,
      "duration": 0.0754,
      "velocity": 98,
      "chip": "ym2612"
    },
    {
      "channel": 0,
      "note": 69,
      "start": 13.9581,
      "duration": 0.0606,
      "velocity": 98,
      "chip": "ym2612"
    },
    {
      "channel": 1,
      "note": 52,
      "start": 13.961,
      "duration": 0.0802,
      "velocity": 103,
      "chip": "ym2612"
    },
    {
      "channel": 2,
      "note": 52,
      "start": 13.9628,
      "duration": 0.0785,
      "velocity": 94,
      "chip": "ym2612"
    },
    {
      "channel": 3,
      "note": 61,
      "start": 13.9699,
      "duration": 0.0493,
      "velocity": 127,
      "chip": "ym2612"
    },
    {
      "channel": 4,
      "note": 47,
      "start": 13.9718,
      "duration": 0.0704,
      "velocity": 94,
      "chip": "ym2612"
    },
    {
      "channel": 5,
      "note": 64,
      "start": 13.9797,
      "duration": 0.0627,
      "velocity": 98,
      "chip": "ym2612"
    },
    {
      "channel": 0,
      "note": 68,
      "start": 14.041,
      "duration": 0.0608,
      "velocity": 98,
      "chip": "ym2612"
    },
    {
      "channel": 5,
      "note": 62,
      "start": 14.0627,
      "duration": 0.0624,
      "velocity": 98,
      "chip": "ym2612"
    },
    {
      "channel": 1,
      "note": 52,
      "start": 14.0838,
      "duration": 0.0804,
      "velocity": 103,
      "chip": "ym2612"
    },
    {
      "channel": 2,
      "note": 52,
      "start": 14.0856,
      "duration": 0.0787,
      "velocity": 94,
      "chip": "ym2612"
    },
    {
      "channel": 4,
      "note": 47,
      "start": 14.088,
      "duration": 0.0771,
      "velocity": 94,
      "chip": "ym2612"
    },
    {
      "channel": 0,
      "note": 66,
      "start": 14.1241,
      "duration": 0.0607,
      "velocity": 98,
      "chip": "ym2612"
    },
    {
      "channel": 5,
      "note": 69,
      "start": 14.1459,
      "duration": 0.0701,
      "velocity": 98,
      "chip": "ym2612"
    },
    {
      "channel": 0,
      "note": 65,
      "start": 14.2071,
      "duration": 0.0607,
      "velocity": 98,
      "chip": "ym2612"
    },
    {
      "channel": 1,
      "note": 52,
      "start": 14.21,
      "duration": 0.0804,
      "velocity": 103,
      "chip": "ym2612"
    },
    {
      "channel": 2,
      "note": 52,
      "start": 14.2118,
      "duration": 0.0788,
      "velocity": 94,
      "chip": "ym2612"
    },
    {
      "channel": 3,
      "note": 61,
      "start": 14.2139,
      "duration": 0.0545,
      "velocity": 127,
      "chip": "ym2612"
    },
    {
      "channel": 4,
      "note": 47,
      "start": 14.2158,
      "duration": 0.0756,
      "velocity": 94,
      "chip": "ym2612"
    },
    {
      "channel": 5,
      "note": 68,
      "start": 14.229,
      "duration": 0.0627,
      "velocity": 98,
      "chip": "ym2612"
    },
    {
      "channel": 0,
      "note": 64,
      "start": 14.2902,
      "duration": 0.0607,
      "velocity": 98,
      "chip": "ym2612"
    },
    {
      "channel": 5,
      "note": 66,
      "start": 14.3119,
      "duration": 0.0625,
      "velocity": 98,
      "chip": "ym2612"
    },
    {
      "channel": 1,
      "note": 52,
      "start": 14.3335,
      "duration": 0.0799,
      "velocity": 103,
      "chip": "ym2612"
    },
    {
      "channel": 2,
      "note": 52,
      "start": 14.3354,
      "duration": 0.0782,
      "velocity": 94,
      "chip": "ym2612"
    },
    {
      "channel": 4,
      "note": 47,
      "start": 14.3378,
      "duration": 0.0766,
      "velocity": 94,
      "chip": "ym2612"
    },
    {
      "channel": 0,
      "note": 62,
      "start": 14.3732,
      "duration": 0.0607,
      "velocity": 98,
      "chip": "ym2612"
    },
    {
      "channel": 5,
      "note": 65,
      "start": 14.3949,
      "duration": 0.0738,
      "velocity": 98,
      "chip": "ym2612"
    },
    {
      "channel": 0,
      "note": 60,
      "start": 14.4564,
      "duration": 0.0606,
      "velocity": 98,
      "chip": "ym2612"
    },
    {
      "channel": 1,
      "note": 52,
      "start": 14.4594,
      "duration": 0.0802,
      "velocity": 103,
      "chip": "ym2612"
    },
    {
      "channel": 2,
      "note": 52,
      "start": 14.4612,
      "duration": 0.0786,
      "velocity": 94,
      "chip": "ym2612"
    },
    {
      "channel": 3,
      "note": 62,
      "start": 14.4666,
      "duration": 0.0099,
      "velocity": 127,
      "chip": "ym2612"
    },
    {
      "channel": 4,
      "note": 47,
      "start": 14.4685,
      "duration": 0.0722,
      "velocity": 94,
      "chip": "ym2612"
    },
    {
      "channel": 5,
      "note": 64,
      "start": 14.4782,
      "duration": 0.0626,
      "velocity": 98,
      "chip": "ym2612"
    },
    {
      "channel": 0,
      "note": 59,
      "start": 14.5394,
      "duration": 0.0607,
      "velocity": 98,
      "chip": "ym2612"
    },
    {
      "channel": 5,
      "note": 62,
      "start": 14.5611,
      "duration": 0.0625,
      "velocity": 98,
      "chip": "ym2612"
    },
    {
      "channel": 1,
      "note": 52,
      "start": 14.5821,
      "duration": 0.0804,
      "velocity": 103,
      "chip": "ym2612"
    },
    {
      "channel": 2,
      "note": 52,
      "start": 14.5841,
      "duration": 0.0787,
      "velocity": 94,
      "chip": "ym2612"
    },
    {
      "channel": 4,
      "note": 47,
      "start": 14.5865,
      "duration": 0.0771,
      "velocity": 94,
      "chip": "ym2612"
    },
    {
      "channel": 0,
      "note": 57,
      "start": 14.6224,
      "duration": 0.0607,
      "velocity": 98,
      "chip": "ym2612"
    },
    {
      "channel": 5,
      "note": 60,
      "start": 14.6443,
      "duration": 0.0685,
      "velocity": 98,
      "chip": "ym2612"
    },
    {
      "channel": 0,
      "note": 55,
      "start": 14.7055,
      "duration": 0.0608,
      "velocity": 98,
      "chip": "ym2612"
    },
    {
      "channel": 1,
      "note": 52,
      "start": 14.7083,
      "duration": 0.0804,
      "velocity": 103,
      "chip": "ym2612"
    },
    {
      "channel": 2,
      "note": 52,
      "start": 14.7102,
      "duration": 0.0788,
      "velocity": 94,
      "chip": "ym2612"
    },
    {
      "channel": 4,
      "note": 47,
      "start": 14.7125,
      "duration": 0.0772,
      "velocity": 94,
      "chip": "ym2612"
    },
    {
      "channel": 5,
      "note": 59,
      "start": 14.7272,
      "duration": 0.0627,
      "velocity": 98,
      "chip": "ym2612"
    },
    {
      "channel": 0,
      "note": 54,
      "start": 14.7886,
      "duration": 0.0607,
      "velocity": 98,
      "chip": "ym2612"
    },
    {
      "channel": 5,
      "note": 57,
      "start": 14.8103,
      "duration": 0.0624,
      "velocity": 98,
      "chip": "ym2612"
    },
    {
      "channel": 1,
      "note": 52,
      "start": 14.8313,
      "duration": 0.0804,
      "velocity": 103,
      "chip": "ym2612"
    },
    {
      "channel": 2,
      "note": 52,
      "start": 14.8332,
      "duration": 0.0787,
      "velocity": 94,
      "chip": "ym2612"
    },
    {
      "channel": 4,
      "note": 47,
      "start": 14.8356,
      "duration": 0.077,
      "velocity": 94,
      "chip": "ym2612"
    },
    {
      "channel": 0,
      "note": 52,
      "start": 14.8716,
      "duration": 0.0608,
      "velocity": 98,
      "chip": "ym2612"
    },
    {
      "channel": 5,
      "note": 55,
      "start": 14.8937,
      "duration": 0.0734,
      "velocity": 98,
      "chip": "ym2612"
    },
    {
      "channel": 0,
      "note": 60,
      "start": 14.9547,
      "duration": 0.0607,
      "velocity": 98,
      "chip": "ym2612"
    },
    {
      "channel": 1,
      "note": 52,
      "start": 14.9576,
      "duration": 0.0803,
      "velocity": 103,
      "chip": "ym2612"
    },
    {
      "channel": 2,
      "note": 52,
      "start": 14.9594,
      "duration": 0.0788,
      "velocity": 94,
      "chip": "ym2612"
    },
    {
      "channel": 3,
      "note": 61,
      "start": 14.9648,
      "duration": 0.0511,
      "velocity": 127,
      "chip": "ym2612"
    },
    {
      "channel": 4,
      "note": 47,
      "start": 14.9668,
      "duration": 0.0722,
      "velocity": 94,
      "chip": "ym2612"
    },
    {
      "channel": 5,
      "note": 54,
      "start": 14.9764,
      "duration": 0.0627,
      "velocity": 98,
      "chip": "ym2612"
    },
    {
      "channel": 0,
      "note": 59,
      "start": 15.0377,
      "duration": 0.0607,
      "velocity": 98,
      "chip": "ym2612"
    },
    {
      "channel": 5,
      "note": 52,
      "start": 15.0594,
      "duration": 0.0625,
      "velocity": 98,
      "chip": "ym2612"
    },
    {
      "channel": 1,
      "note": 52,
      "start": 15.0805,
      "duration": 0.0804,
      "velocity": 103,
      "chip": "ym2612"
    },
    {
      "channel": 2,
      "note": 52,
      "start": 15.0824,
      "duration": 0.0787,
      "velocity": 94,
      "chip": "ym2612"
    },
    {
      "channel": 4,
      "note": 47,
      "start": 15.0848,
      "duration": 0.0771,
      "velocity": 94,
      "chip": "ym2612"
    },
    {
      "channel": 0,
      "note": 57,
      "start": 15.1208,
      "duration": 0.0607,
      "velocity": 98,
      "chip": "ym2612"
    },
    {
      "channel": 5,
      "note": 60,
      "start": 15.1425,
      "duration": 0.0702,
      "velocity": 98,
      "chip": "ym2612"
    },
    {
      "channel": 0,
      "note": 65,
      "start": 15.2039,
      "duration": 0.0607,
      "velocity": 98,
      "chip": "ym2612"
    },
    {
      "channel": 1,
      "note": 52,
      "start": 15.2068,
      "duration": 0.0804,
      "velocity": 103,
      "chip": "ym2612"
    },
    {
      "channel": 2,
      "note": 52,
      "start": 15.2086,
      "duration": 0.0788,
      "velocity": 94,
      "chip": "ym2612"
    },
    {
      "channel": 3,
      "note": 61,
      "start": 15.2107,
      "duration": 0.0544,
      "velocity": 127,
      "chip": "ym2612"
    },
    {
      "channel": 4,
      "note": 47,
      "start": 15.2125,
      "duration": 0.0756,
      "velocity": 94,
      "chip": "ym2612"
    },
    {
      "channel": 5,
      "note": 59,
      "start": 15.2256,
      "duration": 0.0627,
      "velocity": 98,
      "chip": "ym2612"
    },
    {
      "channel": 0,
      "note": 64,
      "start": 15.2869,
      "duration": 0.0607,
      "velocity": 98,
      "chip": "ym2612"
    },
    {
      "channel": 5,
      "note": 57,
      "start": 15.3087,
      "duration": 0.0625,
      "velocity": 98,
      "chip": "ym2612"
    },
    {
      "channel": 1,
      "note": 52,
      "start": 15.3297,
      "duration": 0.0804,
      "velocity": 103,
      "chip": "ym2612"
    },
    {
      "channel": 2,
      "note": 52,
      "start": 15.3315,
      "duration": 0.0788,
      "velocity": 94,
      "chip": "ym2612"
    },
    {
      "channel": 4,
      "note": 47,
      "start": 15.334,
      "duration": 0.077,
      "velocity": 94,
      "chip": "ym2612"
    },
    {
      "channel": 0,
      "note": 62,
      "start": 15.37,
      "duration": 0.0607,
      "velocity": 98,
      "chip": "ym2612"
    },
    {
      "channel": 5,
      "note": 65,
      "start": 15.3917,
      "duration": 0.0742,
      "velocity": 98,
      "chip": "ym2612"
    },
    {
      "channel": 0,
      "note": 60,
      "start": 15.4537,
      "duration": 0.0601,
      "velocity": 98,
      "chip": "ym2612"
    },
    {
      "channel": 1,
      "note": 52,
      "start": 15.4566,
      "duration": 0.0798,
      "velocity": 103,
      "chip": "ym2612"
    },
    {
      "channel": 2,
      "note": 52,
      "start": 15.4584,
      "duration": 0.0781,
      "velocity": 94,
      "chip": "ym2612"
    },
    {
      "channel": 3,
      "note": 62,
      "start": 15.4638,
      "duration": 0.0094,
      "velocity": 127,
      "chip": "ym2612"
    },
    {
      "channel": 4,
      "note": 47,
      "start": 15.4657,
      "duration": 0.0717,
      "velocity": 94,
      "chip": "ym2612"
    },
    {
      "channel": 5,
      "note": 64,
      "start": 15.475,
      "duration": 0.0625,
      "velocity": 98,
      "chip": "ym2612"
    },
    {
      "channel": 0,
      "note": 59,
      "start": 15.5361,
      "duration": 0.0607,
      "velocity": 98,
      "chip": "ym2612"
    },
    {
      "channel": 5,
      "note": 62,
      "start": 15.5585,
      "duration": 0.0618,
      "velocity": 98,
      "chip": "ym2612"
    },
    {
      "channel": 1,
      "note": 52,
      "start": 15.5789,
      "duration": 0.0804,
      "velocity": 103,
      "chip": "ym2612"
    },
    {
      "channel": 2,
      "note": 52,
      "start": 15.5807,
      "duration": 0.0788,
      "velocity": 94,
      "chip": "ym2612"
    },
    {
      "channel": 4,
      "note": 47,
      "start": 15.5832,
      "duration": 0.077,
      "velocity": 94,
      "chip": "ym2612"
    },
    {
      "channel": 0,
      "note": 57,
      "start": 15.6192,
      "duration": 0.0607,
      "velocity": 98,
      "chip": "ym2612"
    },
    {
      "channel": 5,
      "note": 60,
      "start": 15.6409,
      "duration": 0.0686,
      "velocity": 98,
      "chip": "ym2612"
    },
    {
      "channel": 0,
      "note": 55,
      "start": 15.7022,
      "duration": 0.0607,
      "velocity": 98,
      "chip": "ym2612"
    },
    {
      "channel": 1,
      "note": 52,
      "start": 15.7051,
      "duration": 0.0804,
      "velocity": 103,
      "chip": "ym2612"
    },
    {
      "channel": 2,
      "note": 52,
      "start": 15.707,
      "duration": 0.0788,
      "velocity": 94,
      "chip": "ym2612"
    },
    {
      "channel": 4,
      "note": 47,
      "start": 15.7093,
      "duration": 0.0772,
      "velocity": 94,
      "chip": "ym2612"
    },
    {
      "channel": 5,
      "note": 59,
      "start": 15.724,
      "duration": 0.0627,
      "velocity": 98,
      "chip": "ym2612"
    },
    {
      "channel": 0,
      "note": 54,
      "start": 15.7853,
      "duration": 0.0607,
      "velocity": 98,
      "chip": "ym2612"
    },
    {
      "channel": 5,
      "note": 57,
      "start": 15.807,
      "duration": 0.0625,
      "velocity": 98,
      "chip": "ym2612"
    },
    {
      "channel": 1,
      "note": 52,
      "start": 15.8281,
      "duration": 0.0804,
      "velocity": 103,
      "chip": "ym2612"
    },
    {
      "channel": 2,
      "note": 52,
      "start": 15.8299,
      "duration": 0.0788,
      "velocity": 94,
      "chip": "ym2612"
    },
    {
      "channel": 4,
      "note": 47,
      "start": 15.8323,
      "duration": 0.0771,
      "velocity": 94,
      "chip": "ym2612"
    },
    {
      "channel": 0,
      "note": 52,
      "start": 15.8683,
      "duration": 0.0607,
      "velocity": 98,
      "chip": "ym2612"
    },
    {
      "channel": 5,
      "note": 55,
      "start": 15.8901,
      "duration": 0.0763,
      "velocity": 98,
      "chip": "ym2612"
    },
    {
      "channel": 0,
      "note": 52,
      "start": 15.9519,
      "duration": 0.0602,
      "velocity": 98,
      "chip": "ym2612"
    },
    {
      "channel": 1,
      "note": 52,
      "start": 15.9548,
      "duration": 0.08,
      "velocity": 103,
      "chip": "ym2612"
    },
    {
      "channel": 2,
      "note": 65,
      "start": 15.9569,
      "duration": 0.4501,
      "velocity": 94,
      "chip": "ym2612"
    },
    {
      "channel": 3,
      "note": 61,
      "start": 15.9639,
      "duration": 0.0488,
      "velocity": 127,
      "chip": "ym2612"
    },
    {
      "channel": 4,
      "note": 60,
      "start": 15.9662,
      "duration": 0.4417,
      "velocity": 94,
      "chip": "ym2612"
    },
    {
      "channel": 5,
      "note": 54,
      "start": 15.9744,
      "duration": 0.0614,
      "velocity": 98,
      "chip": "ym2612"
    },
    {
      "channel": 0,
      "note": 50,
      "start": 16.0346,
      "duration": 0.0607,
      "velocity": 98,
      "chip": "ym2612"
    },
    {
      "channel": 5,
      "note": 52,
      "start": 16.0563,
      "duration": 0.0631,
      "velocity": 98,
      "chip": "ym2612"
    },
    {
      "channel": 1,
      "note": 52,
      "start": 16.0772,
      "duration": 0.0804,
      "velocity": 103,
      "chip": "ym2612"
    },
    {
      "channel": 0,
      "note": 52,
      "start": 16.1183,
      "duration": 0.06,
      "velocity": 98,
      "chip": "ym2612"
    },
    {
      "channel": 5,
      "note": 52,
      "start": 16.1398,
      "duration": 0.0663,
      "velocity": 98,
      "chip": "ym2612"
    },
    {
      "channel": 0,
      "note": 50,
      "start": 16.2007,
      "duration": 0.0607,
      "velocity": 98,
      "chip": "ym2612"
    },
    {
      "channel": 1,
      "note": 52,
      "start": 16.2036,
      "duration": 0.0805,
      "velocity": 103,
      "chip": "ym2612"
    },
    {
      "channel": 3,
      "note": 61,
      "start": 16.2057,
      "duration": 0.0562,
      "velocity": 127,
      "chip": "ym2612"
    },
    {
      "channel": 5,
      "note": 50,
      "start": 16.2232,
      "duration": 0.0619,
      "velocity": 98,
      "chip": "ym2612"
    },
    {
      "channel": 0,
      "note": 52,
      "start": 16.2839,
      "duration": 0.0605,
      "velocity": 98,
      "chip": "ym2612"
    },
    {
      "channel": 5,
      "note": 52,
      "start": 16.3056,
      "duration": 0.0623,
      "velocity": 98,
      "chip": "ym2612"
    },
    {
      "channel": 1,
      "note": 52,
      "start": 16.3264,
      "duration": 0.0804,
      "velocity": 103,
      "chip": "ym2612"
    },
    {
      "channel": 0,
      "note": 50,
      "start": 16.3668,
      "duration": 0.0607,
      "velocity": 98,
      "chip": "ym2612"
    },
    {
      "channel": 5,
      "note": 50,
      "start": 16.3885,
      "duration": 0.0734,
      "velocity": 98,
      "chip": "ym2612"
    },
    {
      "channel": 0,
      "note": 52,
      "start": 16.45,
      "duration": 0.0605,
      "velocity": 98,
      "chip": "ym2612"
    },
    {
      "channel": 1,
      "note": 52,
      "start": 16.4529,
      "duration": 0.0802,
      "velocity": 103,
      "chip": "ym2612"
    },
    {
      "channel": 2,
      "note": 67,
      "start": 16.4546,
      "duration": 0.2017,
      "velocity": 94,
      "chip": "ym2612"
    },
    {
      "channel": 3,
      "note": 62,
      "start": 16.4599,
      "duration": 0.01,
      "velocity": 127,
      "chip": "ym2612"
    },
    {
      "channel": 4,
      "note": 62,
      "start": 16.4617,
      "duration": 0.1954,
      "velocity": 94,
      "chip": "ym2612"
    },
    {
      "channel": 5,
      "note": 52,
      "start": 16.4719,
      "duration": 0.0623,
      "velocity": 98,
      "chip": "ym2612"
    },
    {
      "channel": 0,
      "note": 50,
      "start": 16.5329,
      "duration": 0.0607,
      "velocity": 98,
      "chip": "ym2612"
    },
    {
      "channel": 5,
      "note": 50,
      "start": 16.5546,
      "duration": 0.0627,
      "velocity": 98,
      "chip": "ym2612"
    },
    {
      "channel": 1,
      "note": 52,
      "start": 16.5756,
      "duration": 0.0803,
      "velocity": 103,
      "chip": "ym2612"
    },
    {
      "channel": 0,
      "note": 52,
      "start": 16.6161,
      "duration": 0.0609,
      "velocity": 98,
      "chip": "ym2612"
    },
    {
      "channel": 5,
      "note": 52,
      "start": 16.6378,
      "duration": 0.0686,
      "velocity": 98,
      "chip": "ym2612"
    },
    {
      "channel": 0,
      "note": 50,
      "start": 16.699,
      "duration": 0.0607,
      "velocity": 98,
      "chip": "ym2612"
    },
    {
      "channel": 1,
      "note": 52,
      "start": 16.7019,
      "duration": 0.0814,
      "velocity": 103,
      "chip": "ym2612"
    },
    {
      "channel": 2,
      "note": 52,
      "start": 16.7038,
      "duration": 0.2017,
      "velocity": 94,
      "chip": "ym2612"
    },
    {
      "channel": 4,
      "note": 47,
      "start": 16.7062,
      "duration": 0.2,
      "velocity": 94,
      "chip": "ym2612"
    },
    {
      "channel": 5,
      "note": 50,
      "start": 16.7207,
      "duration": 0.0636,
      "velocity": 98,
      "chip": "ym2612"
    },
    {
      "channel": 0,
      "note": 52,
      "start": 16.783,
      "duration": 0.0598,
      "velocity": 98,
      "chip": "ym2612"
    },
    {
      "channel": 5,
      "note": 52,
      "start": 16.804,
      "duration": 0.0623,
      "velocity": 98,
      "chip": "ym2612"
    },
    {
      "channel": 1,
      "note": 52,
      "start": 16.8248,
      "duration": 0.0804,
      "velocity": 103,
      "chip": "ym2612"
    },
    {
      "channel": 0,
      "note": 50,
      "start": 16.8651,
      "duration": 0.0607,
      "velocity": 98,
      "chip": "ym2612"
    },
    {
      "channel": 5,
      "note": 50,
      "start": 16.8868,
      "duration": 0.0736,
      "velocity": 98,
      "chip": "ym2612"
    },
    {
      "channel": 0,
      "note": 52,
      "start": 16.9484,
      "duration": 0.0606,
      "velocity": 98,
      "chip": "ym2612"
    },
    {
      "channel": 1,
      "note": 52,
      "start": 16.9514,
      "duration": 0.0801,
      "velocity": 103,
      "chip": "ym2612"
    },
    {
      "channel": 2,
      "note": 52,
      "start": 16.9531,
      "duration": 0.2015,
      "velocity": 94,
      "chip": "ym2612"
    },
    {
      "channel": 3,
      "note": 61,
      "start": 16.9585,
      "duration": 0.0509,
      "velocity": 127,
      "chip": "ym2612"
    },
    {
      "channel": 4,
      "note": 47,
      "start": 16.9602,
      "duration": 0.1952,
      "velocity": 94,
      "chip": "ym2612"
    },
    {
      "channel": 5,
      "note": 52,
      "start": 16.9701,
      "duration": 0.0625,
      "velocity": 98,
      "chip": "ym2612"
    },
    {
      "channel": 0,
      "note": 50,
      "start": 17.0312,
      "duration": 0.0607,
      "velocity": 98,
      "chip": "ym2612"
    },
    {
      "channel": 5,
      "note": 50,
      "start": 17.053,
      "duration": 0.0627,
      "velocity": 98,
      "chip": "ym2612"
    },
    {
      "channel": 1,
      "note": 52,
      "start": 17.074,
      "duration": 0.0804,
      "velocity": 103,
      "chip": "ym2612"
    },
    {
      "channel": 0,
      "note": 52,
      "start": 17.1145,
      "duration": 0.0606,
      "velocity": 98,
      "chip": "ym2612"
    },
    {
      "channel": 5,
      "note": 52,
      "start": 17.1362,
      "duration": 0.0698,
      "velocity": 98,
      "chip": "ym2612"
    },
    {
      "channel": 0,
      "note": 50,
      "start": 17.1974,
      "duration": 0.0607,
      "velocity": 98,
      "chip": "ym2612"
    },
    {
      "channel": 1,
      "note": 52,
      "start": 17.2004,
      "duration": 0.0805,
      "velocity": 103,
      "chip": "ym2612"
    },
    {
      "channel": 2,
      "note": 65,
      "start": 17.2021,
      "duration": 0.2018,
      "velocity": 94,
      "chip": "ym2612"
    },
    {
      "channel": 3,
      "note": 61,
      "start": 17.2041,
      "duration": 0.0545,
      "velocity": 127,
      "chip": "ym2612"
    },
    {
      "channel": 4,
      "note": 60,
      "start": 17.2058,
      "duration": 0.1988,
      "velocity": 94,
      "chip": "ym2612"
    },
    {
      "channel": 5,
      "note": 50,
      "start": 17.2192,
      "duration": 0.0628,
      "velocity": 98,
      "chip": "ym2612"
    },
    {
      "channel": 0,
      "note": 52,
      "start": 17.2806,
      "duration": 0.0612,
      "velocity": 98,
      "chip": "ym2612"
    },
    {
      "channel": 5,
      "note": 52,
      "start": 17.3024,
      "duration": 0.0623,
      "velocity": 98,
      "chip": "ym2612"
    },
    {
      "channel": 1,
      "note": 52,
      "start": 17.3232,
      "duration": 0.0803,
      "velocity": 103,
      "chip": "ym2612"
    },
    {
      "channel": 0,
      "note": 50,
      "start": 17.3635,
      "duration": 0.0607,
      "velocity": 98,
      "chip": "ym2612"
    },
    {
      "channel": 5,
      "note": 50,
      "start": 17.3853,
      "duration": 0.0734,
      "velocity": 98,
      "chip": "ym2612"
    },
    {
      "channel": 0,
      "note": 52,
      "start": 17.4467,
      "duration": 0.0606,
      "velocity": 98,
      "chip": "ym2612"
    },
    {
      "channel": 1,
      "note": 52,
      "start": 17.4498,
      "duration": 0.0801,
      "velocity": 103,
      "chip": "ym2612"
    },
    {
      "channel": 2,
      "note": 67,
      "start": 17.4514,
      "duration": 0.2016,
      "velocity": 94,
      "chip": "ym2612"
    },
    {
      "channel": 3,
      "note": 62,
      "start": 17.4568,
      "duration": 0.01,
      "velocity": 127,
      "chip": "ym2612"
    },
    {
      "channel": 4,
      "note": 62,
      "start": 17.4584,
      "duration": 0.1954,
      "velocity": 94,
      "chip": "ym2612"
    },
    {
      "channel": 5,
      "note": 52,
      "start": 17.4687,
      "duration": 0.0622,
      "velocity": 98,
      "chip": "ym2612"
    },
    {
      "channel": 0,
      "note": 50,
      "start": 17.5296,
      "duration": 0.0608,
      "velocity": 98,
      "chip": "ym2612"
    },
    {
      "channel": 5,
      "note": 50,
      "start": 17.5514,
      "duration": 0.0627,
      "velocity": 98,
      "chip": "ym2612"
    },
    {
      "channel": 1,
      "note": 52,
      "start": 17.5724,
      "duration": 0.0804,
      "velocity": 103,
      "chip": "ym2612"
    },
    {
      "channel": 0,
      "note": 52,
      "start": 17.6129,
      "duration": 0.0606,
      "velocity": 98,
      "chip": "ym2612"
    },
    {
      "channel": 5,
      "note": 52,
      "start": 17.6346,
      "duration": 0.0686,
      "velocity": 98,
      "chip": "ym2612"
    },
    {
      "channel": 0,
      "note": 50,
      "start": 17.6958,
      "duration": 0.0607,
      "velocity": 98,
      "chip": "ym2612"
    },
    {
      "channel": 1,
      "note": 52,
      "start": 17.6987,
      "duration": 0.0805,
      "velocity": 103,
      "chip": "ym2612"
    },
    {
      "channel": 2,
      "note": 52,
      "start": 17.7006,
      "duration": 0.202,
      "velocity": 94,
      "chip": "ym2612"
    },
    {
      "channel": 4,
      "note": 47,
      "start": 17.703,
      "duration": 0.2004,
      "velocity": 94,
      "chip": "ym2612"
    },
    {
      "channel": 5,
      "note": 50,
      "start": 17.7175,
      "duration": 0.0628,
      "velocity": 98,
      "chip": "ym2612"
    },
    {
      "channel": 0,
      "note": 52,
      "start": 17.779,
      "duration": 0.0606,
      "velocity": 98,
      "chip": "ym2612"
    },
    {
      "channel": 5,
      "note": 52,
      "start": 17.8008,
      "duration": 0.0623,
      "velocity": 98,
      "chip": "ym2612"
    },
    {
      "channel": 1,
      "note": 52,
      "start": 17.8216,
      "duration": 0.0808,
      "velocity": 103,
      "chip": "ym2612"
    },
    {
      "channel": 0,
      "note": 50,
      "start": 17.8619,
      "duration": 0.0607,
      "velocity": 98,
      "chip": "ym2612"
    },
    {
      "channel": 5,
      "note": 50,
      "start": 17.8837,
      "duration": 0.0751,
      "velocity": 98,
      "chip": "ym2612"
    },
    {
      "channel": 0,
      "note": 52,
      "start": 17.9451,
      "duration": 0.0615,
      "velocity": 98,
      "chip": "ym2612"
    },
    {
      "channel": 1,
      "note": 52,
      "start": 17.948,
      "duration": 0.0802,
      "velocity": 103,
      "chip": "ym2612"
    },
    {
      "channel": 2,
      "note": 52,
      "start": 17.9498,
      "duration": 0.2015,
      "velocity": 94,
      "chip": "ym2612"
    },
    {
      "channel": 3,
      "note": 61,
      "start": 17.9568,
      "duration": 0.0502,
      "velocity": 127,
      "chip": "ym2612"
    },
    {
      "channel": 4,
      "note": 47,
      "start": 17.9585,
      "duration": 0.1937,
      "velocity": 94,
      "chip": "ym2612"
    },
    {
      "channel": 5,
      "note": 52,
      "start": 17.9669,
      "duration": 0.0623,
      "velocity": 98,
      "chip": "ym2612"
    },
    {
      "channel": 0,
      "note": 50,
      "start": 18.028,
      "duration": 0.0607,
      "velocity": 98,
      "chip": "ym2612"
    },
    {
      "channel": 5,
      "note": 50,
      "start": 18.0498,
      "duration": 0.0626,
      "velocity": 98,
      "chip": "ym2612"
    },
    {
      "channel": 1,
      "note": 52,
      "start": 18.0707,
      "duration": 0.0804,
      "velocity": 103,
      "chip": "ym2612"
    },
    {
      "channel": 0,
      "note": 52,
      "start": 18.1113,
      "duration": 0.0606,
      "velocity": 98,
      "chip": "ym2612"
    },
    {
      "channel": 5,
      "note": 52,
      "start": 18.133,
      "duration": 0.0698,
      "velocity": 98,
      "chip": "ym2612"
    },
    {
      "channel": 0,
      "note": 50,
      "start": 18.1942,
      "duration": 0.0607,
      "velocity": 98,
      "chip": "ym2612"
    },
    {
      "channel": 1,
      "note": 52,
      "start": 18.197,
      "duration": 0.0805,
      "velocity": 103,
      "chip": "ym2612"
    },
    {
      "channel": 2,
      "note": 65,
      "start": 18.1988,
      "duration": 0.2018,
      "velocity": 94,
      "chip": "ym2612"
    },
    {
      "channel": 3,
      "note": 61,
      "start": 18.2009,
      "duration": 0.0545,
      "velocity": 127,
      "chip": "ym2612"
    },
    {
      "channel": 4,
      "note": 60,
      "start": 18.2026,
      "duration": 0.1988,
      "velocity": 94,
      "chip": "ym2612"
    },
    {
      "channel": 5,
      "note": 50,
      "start": 18.216,
      "duration": 0.0626,
      "velocity": 98,
      "chip": "ym2612"
    },
    {
      "channel": 0,
      "note": 52,
      "start": 18.2774,
      "duration": 0.0606,
      "velocity": 98,
      "chip": "ym2612"
    },
    {
      "channel": 5,
      "note": 52,
      "start": 18.2992,
      "duration": 0.0622,
      "velocity": 98,
      "chip": "ym2612"
    },
    {
      "channel": 1,
      "note": 52,
      "start": 18.32,
      "duration": 0.0803,
      "velocity": 103,
      "chip": "ym2612"
    },
    {
      "channel": 0,
      "note": 50,
      "start": 18.3602,
      "duration": 0.0608,
      "velocity": 98,
      "chip": "ym2612"
    },
    {
      "channel": 5,
      "note": 50,
      "start": 18.3821,
      "duration": 0.0733,
      "velocity": 98,
      "chip": "ym2612"
    },
    {
      "channel": 0,
      "note": 52,
      "start": 18.4435,
      "duration": 0.0606,
      "velocity": 98,
      "chip": "ym2612"
    },
    {
      "channel": 1,
      "note": 52,
      "start": 18.4464,
      "duration": 0.0802,
      "velocity": 103,
      "chip": "ym2612"
    },
    {
      "channel": 2,
      "note": 67,
      "start": 18.448,
      "duration": 0.2018,
      "velocity": 94,
      "chip": "ym2612"
    },
    {
      "channel": 3,
      "note": 62,
      "start": 18.4535,
      "duration": 0.0101,
      "velocity": 127,
      "chip": "ym2612"
    },
    {
      "channel": 4,
      "note": 62,
      "start": 18.4552,
      "duration": 0.1954,
      "velocity": 94,
      "chip": "ym2612"
    },
    {
      "channel": 5,
      "note": 52,
      "start": 18.4657,
      "duration": 0.0619,
      "velocity": 98,
      "chip": "ym2612"
    },
    {
      "channel": 0,
      "note": 50,
      "start": 18.5264,
      "duration": 0.0607,
      "velocity": 98,
      "chip": "ym2612"
    },
    {
      "channel": 5,
      "note": 50,
      "start": 18.5481,
      "duration": 0.0627,
      "velocity": 98,
      "chip": "ym2612"
    },
    {
      "channel": 1,
      "note": 52,
      "start": 18.5699,
      "duration": 0.0796,
      "velocity": 103,
      "chip": "ym2612"
    },
    {
      "channel": 0,
      "note": 52,
      "start": 18.6096,
      "duration": 0.0606,
      "velocity": 98,
      "chip": "ym2612"
    },
    {
      "channel": 5,
      "note": 52,
      "start": 18.6314,
      "duration": 0.0686,
      "velocity": 98,
      "chip": "ym2612"
    },
    {
      "channel": 0,
      "note": 50,
      "start": 18.6925,
      "duration": 0.0607,
      "velocity": 98,
      "chip": "ym2612"
    },
    {
      "channel": 1,
      "note": 52,
      "start": 18.6954,
      "duration": 0.0805,
      "velocity": 103,
      "chip": "ym2612"
    },
    {
      "channel": 2,
      "note": 52,
      "start": 18.6972,
      "duration": 0.2017,
      "velocity": 94,
      "chip": "ym2612"
    },
    {
      "channel": 4,
      "note": 47,
      "start": 18.6997,
      "duration": 0.2001,
      "velocity": 94,
      "chip": "ym2612"
    },
    {
      "channel": 5,
      "note": 50,
      "start": 18.7143,
      "duration": 0.0627,
      "velocity": 98,
      "chip": "ym2612"
    },
    {
      "channel": 0,
      "note": 52,
      "start": 18.7757,
      "duration": 0.0606,
      "velocity": 98,
      "chip": "ym2612"
    },
    {
      "channel": 5,
      "note": 52,
      "start": 18.7975,
      "duration": 0.0623,
      "velocity": 98,
      "chip": "ym2612"
    },
    {
      "channel": 1,
      "note": 52,
      "start": 18.8184,
      "duration": 0.0803,
      "velocity": 103,
      "chip": "ym2612"
    },
    {
      "channel": 0,
      "note": 50,
      "start": 18.8587,
      "duration": 0.0607,
      "velocity": 98,
      "chip": "ym2612"
    },
    {
      "channel": 5,
      "note": 50,
      "start": 18.8804,
      "duration": 0.0736,
      "velocity": 98,
      "chip": "ym2612"
    },
    {
      "channel": 0,
      "note": 52,
      "start": 18.9419,
      "duration": 0.0606,
      "velocity": 98,
      "chip": "ym2612"
    },
    {
      "channel": 1,
      "note": 52,
      "start": 18.9448,
      "duration": 0.0803,
      "velocity": 103,
      "chip": "ym2612"
    },
    {
      "channel": 2,
      "note": 67,
      "start": 18.9465,
      "duration": 0.2017,
      "velocity": 94,
      "chip": "ym2612"
    },
    {
      "channel": 3,
      "note": 61,
      "start": 18.9521,
      "duration": 0.051,
      "velocity": 127,
      "chip": "ym2612"
    },
    {
      "channel": 4,
      "note": 62,
      "start": 18.9537,
      "duration": 0.1951,
      "velocity": 94,
      "chip": "ym2612"
    },
    {
      "channel": 5,
      "note": 52,
      "start": 18.9636,
      "duration": 0.0625,
      "velocity": 98,
      "chip": "ym2612"
    },
    {
      "channel": 0,
      "note": 50,
      "start": 19.0248,
      "duration": 0.0607,
      "velocity": 98,
      "chip": "ym2612"
    },
    {
      "channel": 5,
      "note": 50,
      "start": 19.0465,
      "duration": 0.0627,
      "velocity": 98,
      "chip": "ym2612"
    },
    {
      "channel": 1,
      "note": 52,
      "start": 19.0676,
      "duration": 0.0803,
      "velocity": 103,
      "chip": "ym2612"
    },
    {
      "channel": 0,
      "note": 52,
      "start": 19.108,
      "duration": 0.0606,
      "velocity": 98,
      "chip": "ym2612"
    },
    {
      "channel": 5,
      "note": 52,
      "start": 19.1307,
      "duration": 0.0689,
      "velocity": 98,
      "chip": "ym2612"
    },
    {
      "channel": 0,
      "note": 50,
      "start": 19.1909,
      "duration": 0.0607,
      "velocity": 98,
      "chip": "ym2612"
    },
    {
      "channel": 1,
      "note": 52,
      "start": 19.1938,
      "duration": 0.0806,
      "velocity": 103,
      "chip": "ym2612"
    },
    {
      "channel": 2,
      "note": 52,
      "start": 19.1954,
      "duration": 0.2019,
      "velocity": 94,
      "chip": "ym2612"
    },
    {
      "channel": 3,
      "note": 61,
      "start": 19.1975,
      "duration": 0.0546,
      "velocity": 127,
      "chip": "ym2612"
    },
    {
      "channel": 4,
      "note": 47,
      "start": 19.1993,
      "duration": 0.1989,
      "velocity": 94,
      "chip": "ym2612"
    },
    {
      "channel": 5,
      "note": 50,
      "start": 19.2127,
      "duration": 0.0627,
      "velocity": 98,
      "chip": "ym2612"
    },
    {
      "channel": 0,
      "note": 52,
      "start": 19.2741,
      "duration": 0.0606,
      "velocity": 98,
      "chip": "ym2612"
    },
    {
      "channel": 5,
      "note": 52,
      "start": 19.2959,
      "duration": 0.0623,
      "velocity": 98,
      "chip": "ym2612"
    },
    {
      "channel": 1,
      "note": 52,
      "start": 19.3168,
      "duration": 0.0804,
      "velocity": 103,
      "chip": "ym2612"
    },
    {
      "channel": 0,
      "note": 50,
      "start": 19.357,
      "duration": 0.0607,
      "velocity": 98,
      "chip": "ym2612"
    },
    {
      "channel": 5,
      "note": 50,
      "start": 19.3788,
      "duration": 0.0734,
      "velocity": 98,
      "chip": "ym2612"
    },
    {
      "channel": 0,
      "note": 52,
      "start": 19.4403,
      "duration": 0.0605,
      "velocity": 98,
      "chip": "ym2612"
    },
    {
      "channel": 1,
      "note": 52,
      "start": 19.4432,
      "duration": 0.0803,
      "velocity": 103,
      "chip": "ym2612"
    },
    {
      "channel": 2,
      "note": 65,
      "start": 19.4448,
      "duration": 0.2017,
      "velocity": 94,
      "chip": "ym2612"
    },
    {
      "channel": 3,
      "note": 62,
      "start": 19.4502,
      "duration": 0.01,
      "velocity": 127,
      "chip": "ym2612"
    },
    {
      "channel": 4,
      "note": 60,
      "start": 19.4519,
      "duration": 0.1955,
      "velocity": 94,
      "chip": "ym2612"
    },
    {
      "channel": 5,
      "note": 52,
      "start": 19.4622,
      "duration": 0.0623,
      "velocity": 98,
      "chip": "ym2612"
    },
    {
      "channel": 0,
      "note": 50,
      "start": 19.5232,
      "duration": 0.0607,
      "velocity": 98,
      "chip": "ym2612"
    },
    {
      "channel": 5,
      "note": 50,
      "start": 19.5449,
      "duration": 0.0627,
      "velocity": 98,
      "chip": "ym2612"
    },
    {
      "channel": 1,
      "note": 52,
      "start": 19.5659,
      "duration": 0.0804,
      "velocity": 103,
      "chip": "ym2612"
    },
    {
      "channel": 0,
      "note": 52,
      "start": 19.6064,
      "duration": 0.0606,
      "velocity": 98,
      "chip": "ym2612"
    },
    {
      "channel": 5,
      "note": 52,
      "start": 19.6281,
      "duration": 0.0686,
      "velocity": 98,
      "chip": "ym2612"
    },
    {
      "channel": 0,
      "note": 50,
      "start": 19.6897,
      "duration": 0.0604,
      "velocity": 98,
      "chip": "ym2612"
    },
    {
      "channel": 1,
      "note": 52,
      "start": 19.6926,
      "duration": 0.0801,
      "velocity": 103,
      "chip": "ym2612"
    },
    {
      "channel": 2,
      "note": 64,
      "start": 19.6942,
      "duration": 0.2015,
      "velocity": 94,
      "chip": "ym2612"
    },
    {
      "channel": 4,
      "note": 59,
      "start": 19.6964,
      "duration": 0.2001,
      "velocity": 94,
      "chip": "ym2612"
    },
    {
      "channel": 5,
      "note": 50,
      "start": 19.711,
      "duration": 0.0627,
      "velocity": 98,
      "chip": "ym2612"
    },
    {
      "channel": 0,
      "note": 52,
      "start": 19.7725,
      "duration": 0.0606,
      "velocity": 98,
      "chip": "ym2612"
    },
    {
      "channel": 5,
      "note": 52,
      "start": 19.795,
      "duration": 0.0616,
      "velocity": 98,
      "chip": "ym2612"
    },
    {
      "channel": 1,
      "note": 52,
      "start": 19.8151,
      "duration": 0.0804,
      "velocity": 103,
      "chip": "ym2612"
    },
    {
      "channel": 0,
      "note": 50,
      "start": 19.8554,
      "duration": 0.0607,
      "velocity": 98,
      "chip": "ym2612"
    },
    {
      "channel": 5,
      "note": 50,
      "start": 19.8771,
      "duration": 0.076,
      "velocity": 98,
      "chip": "ym2612"
    },
    {
      "channel": 0,
      "note": 52,
      "start": 19.9386,
      "duration": 0.0606,
      "velocity": 98,
      "chip": "ym2612"
    },
    {
      "channel": 1,
      "note": 52,
      "start": 19.9415,
      "duration": 0.0803,
      "velocity": 103,
      "chip": "ym2612"
    },
    {
      "channel": 2,
      "note": 52,
      "start": 19.9436,
      "duration": 0.0784,
      "velocity": 94,
      "chip": "ym2612"
    },
    {
      "channel": 3,
      "note": 61,
      "start": 19.9507,
      "duration": 0.0492,
      "velocity": 127,
      "chip": "ym2612"
    },
    {
      "channel": 4,
      "note": 47,
      "start": 19.9529,
      "duration": 0.0698,
      "velocity": 94,
      "chip": "ym2612"
    },
    {
      "channel": 5,
      "note": 52,
      "start": 19.9612,
      "duration": 0.0618,
      "velocity": 98,
      "chip": "ym2612"
    },
    {
      "channel": 0,
      "note": 53,
      "start": 20.0215,
      "duration": 0.0607,
      "velocity": 98,
      "chip": "ym2612"
    },
    {
      "channel": 5,
      "note": 50,
      "start": 20.0433,
      "duration": 0.0625,
      "velocity": 98,
      "chip": "ym2612"
    },
    {
      "channel": 1,
      "note": 52,
      "start": 20.0643,
      "duration": 0.0803,
      "velocity": 103,
      "chip": "ym2612"
    },
    {
      "channel": 2,
      "note": 52,
      "start": 20.0662,
      "duration": 0.0787,
      "velocity": 94,
      "chip": "ym2612"
    },
    {
      "channel": 4,
      "note": 47,
      "start": 20.0687,
      "duration": 0.077,
      "velocity": 94,
      "chip": "ym2612"
    },
    {
      "channel": 0,
      "note": 56,
      "start": 20.1046,
      "duration": 0.0607,
      "velocity": 98,
      "chip": "ym2612"
    },
    {
      "channel": 5,
      "note": 52,
      "start": 20.1265,
      "duration": 0.0701,
      "velocity": 98,
      "chip": "ym2612"
    },
    {
      "channel": 0,
      "note": 57,
      "start": 20.1877,
      "duration": 0.0609,
      "velocity": 98,
      "chip": "ym2612"
    },
    {
      "channel": 1,
      "note": 52,
      "start": 20.1906,
      "duration": 0.0803,
      "velocity": 103,
      "chip": "ym2612"
    },
    {
      "channel": 2,
      "note": 52,
      "start": 20.1924,
      "duration": 0.0788,
      "velocity": 94,
      "chip": "ym2612"
    },
    {
      "channel": 3,
      "note": 61,
      "start": 20.1945,
      "duration": 0.0546,
      "velocity": 127,
      "chip": "ym2612"
    },
    {
      "channel": 4,
      "note": 47,
      "start": 20.1963,
      "duration": 0.0756,
      "velocity": 94,
      "chip": "ym2612"
    },
    {
      "channel": 5,
      "note": 53,
      "start": 20.2094,
      "duration": 0.0627,
      "velocity": 98,
      "chip": "ym2612"
    },
    {
      "channel": 0,
      "note": 59,
      "start": 20.2707,
      "duration": 0.0607,
      "velocity": 98,
      "chip": "ym2612"
    },
    {
      "channel": 5,
      "note": 56,
      "start": 20.2924,
      "duration": 0.0632,
      "velocity": 98,
      "chip": "ym2612"
    },
    {
      "channel": 1,
      "note": 52,
      "start": 20.3135,
      "duration": 0.0804,
      "velocity": 103,
      "chip": "ym2612"
    },
    {
      "channel": 2,
      "note": 52,
      "start": 20.3154,
      "duration": 0.0787,
      "velocity": 94,
      "chip": "ym2612"
    },
    {
      "channel": 4,
      "note": 47,
      "start": 20.3178,
      "duration": 0.0771,
      "velocity": 94,
      "chip": "ym2612"
    },
    {
      "channel": 0,
      "note": 60,
      "start": 20.3545,
      "duration": 0.06,
      "velocity": 98,
      "chip": "ym2612"
    },
    {
      "channel": 5,
      "note": 57,
      "start": 20.3755,
      "duration": 0.0735,
      "velocity": 98,
      "chip": "ym2612"
    },
    {
      "channel": 0,
      "note": 62,
      "start": 20.4368,
      "duration": 0.0607,
      "velocity": 98,
      "chip": "ym2612"
    },
    {
      "channel": 1,
      "note": 52,
      "start": 20.4398,
      "duration": 0.0804,
      "velocity": 103,
      "chip": "ym2612"
    },
    {
      "channel": 2,
      "note": 52,
      "start": 20.4416,
      "duration": 0.0788,
      "velocity": 94,
      "chip": "ym2612"
    },
    {
      "channel": 3,
      "note": 62,
      "start": 20.4469,
      "duration": 0.0101,
      "velocity": 127,
      "chip": "ym2612"
    },
    {
      "channel": 4,
      "note": 47,
      "start": 20.4488,
      "duration": 0.0723,
      "velocity": 94,
      "chip": "ym2612"
    },
    {
      "channel": 5,
      "note": 59,
      "start": 20.4588,
      "duration": 0.0626,
      "velocity": 98,
      "chip": "ym2612"
    },
    {
      "channel": 0,
      "note": 64,
      "start": 20.5199,
      "duration": 0.0607,
      "velocity": 98,
      "chip": "ym2612"
    },
    {
      "channel": 5,
      "note": 60,
      "start": 20.5417,
      "duration": 0.0624,
      "velocity": 98,
      "chip": "ym2612"
    },
    {
      "channel": 1,
      "note": 52,
      "start": 20.5627,
      "duration": 0.0804,
      "velocity": 103,
      "chip": "ym2612"
    },
    {
      "channel": 2,
      "note": 52,
      "start": 20.5645,
      "duration": 0.0788,
      "velocity": 94,
      "chip": "ym2612"
    },
    {
      "channel": 4,
      "note": 47,
      "start": 20.567,
      "duration": 0.077,
      "velocity": 94,
      "chip": "ym2612"
    },
    {
      "channel": 0,
      "note": 65,
      "start": 20.603,
      "duration": 0.0607,
      "velocity": 98,
      "chip": "ym2612"
    },
    {
      "channel": 5,
      "note": 62,
      "start": 20.6248,
      "duration": 0.0686,
      "velocity": 98,
      "chip": "ym2612"
    },
    {
      "channel": 0,
      "note": 68,
      "start": 20.6861,
      "duration": 0.0608,
      "velocity": 98,
      "chip": "ym2612"
    },
    {
      "channel": 1,
      "note": 52,
      "start": 20.689,
      "duration": 0.0804,
      "velocity": 103,
      "chip": "ym2612"
    },
    {
      "channel": 2,
      "note": 52,
      "start": 20.6908,
      "duration": 0.0788,
      "velocity": 94,
      "chip": "ym2612"
    },
    {
      "channel": 4,
      "note": 47,
      "start": 20.6932,
      "duration": 0.0772,
      "velocity": 94,
      "chip": "ym2612"
    },
    {
      "channel": 5,
      "note": 64,
      "start": 20.7078,
      "duration": 0.0628,
      "velocity": 98,
      "chip": "ym2612"
    },
    {
      "channel": 0,
      "note": 69,
      "start": 20.7692,
      "duration": 0.0607,
      "velocity": 98,
      "chip": "ym2612"
    },
    {
      "channel": 5,
      "note": 65,
      "start": 20.7909,
      "duration": 0.0625,
      "velocity": 98,
      "chip": "ym2612"
    },
    {
      "channel": 1,
      "note": 52,
      "start": 20.8119,
      "duration": 0.0804,
      "velocity": 103,
      "chip": "ym2612"
    },
    {
      "channel": 2,
      "note": 52,
      "start": 20.8137,
      "duration": 0.0788,
      "velocity": 94,
      "chip": "ym2612"
    },
    {
      "channel": 4,
      "note": 47,
      "start": 20.8162,
      "duration": 0.077,
      "velocity": 94,
      "chip": "ym2612"
    },
    {
      "channel": 0,
      "note": 71,
      "start": 20.8522,
      "duration": 0.0613,
      "velocity": 98,
      "chip": "ym2612"
    },
    {
      "channel": 5,
      "note": 68,
      "start": 20.8739,
      "duration": 0.0737,
      "velocity": 98,
      "chip": "ym2612"
    },
    {
      "channel": 0,
      "note": 72,
      "start": 20.9353,
      "duration": 0.0607,
      "velocity": 98,
      "chip": "ym2612"
    },
    {
      "channel": 1,
      "note": 52,
      "start": 20.9381,
      "duration": 0.0814,
      "velocity": 103,
      "chip": "ym2612"
    },
    {
      "channel": 2,
      "note": 52,
      "start": 20.94,
      "duration": 0.0797,
      "velocity": 94,
      "chip": "ym2612"
    },
    {
      "channel": 3,
      "note": 61,
      "start": 20.9454,
      "duration": 0.0511,
      "velocity": 127,
      "chip": "ym2612"
    },
    {
      "channel": 4,
      "note": 47,
      "start": 20.9473,
      "duration": 0.0732,
      "velocity": 94,
      "chip": "ym2612"
    },
    {
      "channel": 5,
      "note": 69,
      "start": 20.957,
      "duration": 0.0637,
      "velocity": 98,
      "chip": "ym2612"
    },
    {
      "channel": 0,
      "note": 74,
      "start": 21.0192,
      "duration": 0.0598,
      "velocity": 98,
      "chip": "ym2612"
    },
    {
      "channel": 5,
      "note": 71,
      "start": 21.04,
      "duration": 0.0627,
      "velocity": 98,
      "chip": "ym2612"
    },
    {
      "channel": 1,
      "note": 52,
      "start": 21.0611,
      "duration": 0.0804,
      "velocity": 103,
      "chip": "ym2612"
    },
    {
      "channel": 2,
      "note": 52,
      "start": 21.0629,
      "duration": 0.0788,
      "velocity": 94,
      "chip": "ym2612"
    },
    {
      "channel": 4,
      "note": 47,
      "start": 21.0654,
      "duration": 0.0771,
      "velocity": 94,
      "chip": "ym2612"
    },
    {
      "channel": 0,
      "note": 76,
      "start": 21.1015,
      "duration": 0.0606,
      "velocity": 98,
      "chip": "ym2612"
    },
    {
      "channel": 5,
      "note": 72,
      "start": 21.1231,
      "duration": 0.0703,
      "velocity": 98,
      "chip": "ym2612"
    },
    {
      "channel": 0,
      "note": 77,
      "start": 21.1845,
      "duration": 0.0607,
      "velocity": 98,
      "chip": "ym2612"
    },
    {
      "channel": 1,
      "note": 52,
      "start": 21.1874,
      "duration": 0.0803,
      "velocity": 103,
      "chip": "ym2612"
    },
    {
      "channel": 2,
      "note": 52,
      "start": 21.1892,
      "duration": 0.0788,
      "velocity": 94,
      "chip": "ym2612"
    },
    {
      "channel": 3,
      "note": 61,
      "start": 21.1913,
      "duration": 0.0544,
      "velocity": 127,
      "chip": "ym2612"
    },
    {
      "channel": 4,
      "note": 47,
      "start": 21.1932,
      "duration": 0.0756,
      "velocity": 94,
      "chip": "ym2612"
    },
    {
      "channel": 5,
      "note": 74,
      "start": 21.2062,
      "duration": 0.0628,
      "velocity": 98,
      "chip": "ym2612"
    },
    {
      "channel": 0,
      "note": 76,
      "start": 21.2676,
      "duration": 0.0607,
      "velocity": 98,
      "chip": "ym2612"
    },
    {
      "channel": 5,
      "note": 76,
      "start": 21.2894,
      "duration": 0.0624,
      "velocity": 98,
      "chip": "ym2612"
    },
    {
      "channel": 1,
      "note": 52,
      "start": 21.3102,
      "duration": 0.0804,
      "velocity": 103,
      "chip": "ym2612"
    },
    {
      "channel": 2,
      "note": 52,
      "start": 21.312,
      "duration": 0.0788,
      "velocity": 94,
      "chip": "ym2612"
    },
    {
      "channel": 4,
      "note": 47,
      "start": 21.3145,
      "duration": 0.0771,
      "velocity": 94,
      "chip": "ym2612"
    },
    {
      "channel": 0,
      "note": 74,
      "start": 21.3507,
      "duration": 0.0606,
      "velocity": 98,
      "chip": "ym2612"
    },
    {
      "channel": 5,
      "note": 77,
      "start": 21.3723,
      "duration": 0.0737,
      "velocity": 98,
      "chip": "ym2612"
    },
    {
      "channel": 0,
      "note": 76,
      "start": 21.4339,
      "duration": 0.0605,
      "velocity": 98,
      "chip": "ym2612"
    },
    {
      "channel": 1,
      "note": 52,
      "start": 21.4367,
      "duration": 0.0802,
      "velocity": 103,
      "chip": "ym2612"
    },
    {
      "channel": 2,
      "note": 52,
      "start": 21.4386,
      "duration": 0.0786,
      "velocity": 94,
      "chip": "ym2612"
    },
    {
      "channel": 3,
      "note": 62,
      "start": 21.4439,
      "duration": 0.0098,
      "velocity": 127,
      "chip": "ym2612"
    },
    {
      "channel": 4,
      "note": 47,
      "start": 21.4458,
      "duration": 0.0722,
      "velocity": 94,
      "chip": "ym2612"
    },
    {
      "channel": 5,
      "note": 76,
      "start": 21.4556,
      "duration": 0.0627,
      "velocity": 98,
      "chip": "ym2612"
    },
    {
      "channel": 0,
      "note": 77,
      "start": 21.5168,
      "duration": 0.0615,
      "velocity": 98,
      "chip": "ym2612"
    },
    {
      "channel": 5,
      "note": 74,
      "start": 21.5384,
      "duration": 0.0625,
      "velocity": 98,
      "chip": "ym2612"
    },
    {
      "channel": 1,
      "note": 52,
      "start": 21.5594,
      "duration": 0.0804,
      "velocity": 103,
      "chip": "ym2612"
    },
    {
      "channel": 2,
      "note": 52,
      "start": 21.5613,
      "duration": 0.0788,
      "velocity": 94,
      "chip": "ym2612"
    },
    {
      "channel": 4,
      "note": 47,
      "start": 21.5637,
      "duration": 0.0772,
      "velocity": 94,
      "chip": "ym2612"
    },
    {
      "channel": 0,
      "note": 76,
      "start": 21.5998,
      "duration": 0.0607,
      "velocity": 98,
      "chip": "ym2612"
    },
    {
      "channel": 5,
      "note": 76,
      "start": 21.6217,
      "duration": 0.0686,
      "velocity": 98,
      "chip": "ym2612"
    },
    {
      "channel": 0,
      "note": 74,
      "start": 21.6828,
      "duration": 0.0607,
      "velocity": 98,
      "chip": "ym2612"
    },
    {
      "channel": 1,
      "note": 52,
      "start": 21.6858,
      "duration": 0.0805,
      "velocity": 103,
      "chip": "ym2612"
    },
    {
      "channel": 2,
      "note": 52,
      "start": 21.6876,
      "duration": 0.0789,
      "velocity": 94,
      "chip": "ym2612"
    },
    {
      "channel": 4,
      "note": 47,
      "start": 21.69,
      "duration": 0.0773,
      "velocity": 94,
      "chip": "ym2612"
    },
    {
      "channel": 5,
      "note": 77,
      "start": 21.7045,
      "duration": 0.063,
      "velocity": 98,
      "chip": "ym2612"
    },
    {
      "channel": 0,
      "note": 76,
      "start": 21.7661,
      "duration": 0.0605,
      "velocity": 98,
      "chip": "ym2612"
    },
    {
      "channel": 5,
      "note": 76,
      "start": 21.7876,
      "duration": 0.0625,
      "velocity": 98,
      "chip": "ym2612"
    },
    {
      "channel": 1,
      "note": 52,
      "start": 21.8086,
      "duration": 0.0804,
      "velocity": 103,
      "chip": "ym2612"
    },
    {
      "channel": 2,
      "note": 52,
      "start": 21.8105,
      "duration": 0.0788,
      "velocity": 94,
      "chip": "ym2612"
    },
    {
      "channel": 4,
      "note": 47,
      "start": 21.8128,
      "duration": 0.0772,
      "velocity": 94,
      "chip": "ym2612"
    },
    {
      "channel": 0,
      "note": 77,
      "start": 21.8489,
      "duration": 0.0607,
      "velocity": 98,
      "chip": "ym2612"
    },
    {
      "channel": 5,
      "note": 74,
      "start": 21.8707,
      "duration": 0.0751,
      "velocity": 98,
      "chip": "ym2612"
    },
    {
      "channel": 0,
      "note": 76,
      "start": 21.932,
      "duration": 0.0607,
      "velocity": 98,
      "chip": "ym2612"
    },
    {
      "channel": 1,
      "note": 52,
      "start": 21.9349,
      "duration": 0.0803,
      "velocity": 103,
      "chip": "ym2612"
    },
    {
      "channel": 2,
      "note": 52,
      "start": 21.9368,
      "duration": 0.0788,
      "velocity": 94,
      "chip": "ym2612"
    },
    {
      "channel": 3,
      "note": 61,
      "start": 21.9438,
      "duration": 0.0495,
      "velocity": 127,
      "chip": "ym2612"
    },
    {
      "channel": 4,
      "note": 47,
      "start": 21.9456,
      "duration": 0.0707,
      "velocity": 94,
      "chip": "ym2612"
    },
    {
      "channel": 5,
      "note": 76,
      "start": 21.954,
      "duration": 0.0626,
      "velocity": 98,
      "chip": "ym2612"
    },
    {
      "channel": 0,
      "note": 74,
      "start": 22.0151,
      "duration": 0.0607,
      "velocity": 98,
      "chip": "ym2612"
    },
    {
      "channel": 5,
      "note": 77,
      "start": 22.0369,
      "duration": 0.0627,
      "velocity": 98,
      "chip": "ym2612"
    },
    {
      "channel": 1,
      "note": 52,
      "start": 22.0578,
      "duration": 0.0809,
      "velocity": 103,
      "chip": "ym2612"
    },
    {
      "channel": 2,
      "note": 52,
      "start": 22.0596,
      "duration": 0.0793,
      "velocity": 94,
      "chip": "ym2612"
    },
    {
      "channel": 4,
      "note": 47,
      "start": 22.062,
      "duration": 0.0777,
      "velocity": 94,
      "chip": "ym2612"
    },
    {
      "channel": 0,
      "note": 76,
      "start": 22.0983,
      "duration": 0.0606,
      "velocity": 98,
      "chip": "ym2612"
    },
    {
      "channel": 5,
      "note": 76,
      "start": 22.1199,
      "duration": 0.0704,
      "velocity": 98,
      "chip": "ym2612"
    },
    {
      "channel": 0,
      "note": 77,
      "start": 22.1812,
      "duration": 0.0608,
      "velocity": 98,
      "chip": "ym2612"
    },
    {
      "channel": 1,
      "note": 52,
      "start": 22.1842,
      "duration": 0.0803,
      "velocity": 103,
      "chip": "ym2612"
    },
    {
      "channel": 2,
      "note": 52,
      "start": 22.186,
      "duration": 0.0788,
      "velocity": 94,
      "chip": "ym2612"
    },
    {
      "channel": 3,
      "note": 61,
      "start": 22.1881,
      "duration": 0.0543,
      "velocity": 127,
      "chip": "ym2612"
    },
    {
      "channel": 4,
      "note": 47,
      "start": 22.19,
      "duration": 0.0756,
      "velocity": 94,
      "chip": "ym2612"
    },
    {
      "channel": 5,
      "note": 74,
      "start": 22.2029,
      "duration": 0.0629,
      "velocity": 98,
      "chip": "ym2612"
    },
    {
      "channel": 0,
      "note": 76,
      "start": 22.2643,
      "duration": 0.0607,
      "velocity": 98,
      "chip": "ym2612"
    },
    {
      "channel": 5,
      "note": 76,
      "start": 22.2861,
      "duration": 0.0624,
      "velocity": 98,
      "chip": "ym2612"
    },
    {
      "channel": 1,
      "note": 52,
      "start": 22.307,
      "duration": 0.0804,
      "velocity": 103,
      "chip": "ym2612"
    },
    {
      "channel": 2,
      "note": 52,
      "start": 22.3089,
      "duration": 0.0788,
      "velocity": 94,
      "chip": "ym2612"
    },
    {
      "channel": 4,
      "note": 47,
      "start": 22.3112,
      "duration": 0.0771,
      "velocity": 94,
      "chip": "ym2612"
    },
    {
      "channel": 0,
      "note": 74,
      "start": 22.3473,
      "duration": 0.0607,
      "velocity": 98,
      "chip": "ym2612"
    },
    {
      "channel": 5,
      "note": 77,
      "start": 22.369,
      "duration": 0.0737,
      "velocity": 98,
      "chip": "ym2612"
    },
    {
      "channel": 0,
      "note": 72,
      "start": 22.4305,
      "duration": 0.0606,
      "velocity": 98,
      "chip": "ym2612"
    },
    {
      "channel": 1,
      "note": 52,
      "start": 22.4335,
      "duration": 0.0802,
      "velocity": 103,
      "chip": "ym2612"
    },
    {
      "channel": 2,
      "note": 52,
      "start": 22.4354,
      "duration": 0.0785,
      "velocity": 94,
      "chip": "ym2612"
    },
    {
      "channel": 3,
      "note": 62,
      "start": 22.4407,
      "duration": 0.0098,
      "velocity": 127,
      "chip": "ym2612"
    },
    {
      "channel": 4,
      "note": 47,
      "start": 22.4426,
      "duration": 0.0721,
      "velocity": 94,
      "chip": "ym2612"
    },
    {
      "channel": 5,
      "note": 76,
      "start": 22.4524,
      "duration": 0.0626,
      "velocity": 98,
      "chip": "ym2612"
    },
    {
      "channel": 0,
      "note": 76,
      "start": 22.5134,
      "duration": 0.0607,
      "velocity": 98,
      "chip": "ym2612"
    },
    {
      "channel": 5,
      "note": 74,
      "start": 22.5353,
      "duration": 0.0625,
      "velocity": 98,
      "chip": "ym2612"
    },
    {
      "channel": 1,
      "note": 52,
      "start": 22.5563,
      "duration": 0.0803,
      "velocity": 103,
      "chip": "ym2612"
    },
    {
      "channel": 2,
      "note": 52,
      "start": 22.558,
      "duration": 0.0788,
      "velocity": 94,
      "chip": "ym2612"
    },
    {
      "channel": 4,
      "note": 47,
      "start": 22.5605,
      "duration": 0.0771,
      "velocity": 94,
      "chip": "ym2612"
    },
    {
      "channel": 0,
      "note": 74,
      "start": 22.5965,
      "duration": 0.0607,
      "velocity": 98,
      "chip": "ym2612"
    },
    {
      "channel": 5,
      "note": 72,
      "start": 22.6184,
      "duration": 0.0686,
      "velocity": 98,
      "chip": "ym2612"
    },
    {
      "channel": 0,
      "note": 72,
      "start": 22.6796,
      "duration": 0.0607,
      "velocity": 98,
      "chip": "ym2612"
    },
    {
      "channel": 1,
      "note": 52,
      "start": 22.6825,
      "duration": 0.0803,
      "velocity": 103,
      "chip": "ym2612"
    },
    {
      "channel": 2,
      "note": 52,
      "start": 22.6844,
      "duration": 0.0786,
      "velocity": 94,
      "chip": "ym2612"
    },
    {
      "channel": 4,
      "note": 47,
      "start": 22.6868,
      "duration": 0.0771,
      "velocity": 94,
      "chip": "ym2612"
    },
    {
      "channel": 5,
      "note": 76,
      "start": 22.7017,
      "duration": 0.0624,
      "velocity": 98,
      "chip": "ym2612"
    },
    {
      "channel": 0,
      "note": 71,
      "start": 22.7627,
      "duration": 0.0607,
      "velocity": 98,
      "chip": "ym2612"
    },
    {
      "channel": 5,
      "note": 74,
      "start": 22.7844,
      "duration": 0.0625,
      "velocity": 98,
      "chip": "ym2612"
    },
    {
      "channel": 1,
      "note": 52,
      "start": 22.8063,
      "duration": 0.0796,
      "velocity": 103,
      "chip": "ym2612"
    },
    {
      "channel": 2,
      "note": 52,
      "start": 22.8081,
      "duration": 0.0779,
      "velocity": 94,
      "chip": "ym2612"
    },
    {
      "channel": 4,
      "note": 47,
      "start": 22.8105,
      "duration": 0.0763,
      "velocity": 94,
      "chip": "ym2612"
    },
    {
      "channel": 0,
      "note": 72,
      "start": 22.8457,
      "duration": 0.0607,
      "velocity": 98,
      "chip": "ym2612"
    },
    {
      "channel": 5,
      "note": 72,
      "start": 22.8675,
      "duration": 0.0737,
      "velocity": 98,
      "chip": "ym2612"
    },
    {
      "channel": 0,
      "note": 74,
      "start": 22.9288,
      "duration": 0.0607,
      "velocity": 98,
      "chip": "ym2612"
    },
    {
      "channel": 1,
      "note": 52,
      "start": 22.9317,
      "duration": 0.0803,
      "velocity": 103,
      "chip": "ym2612"
    },
    {
      "channel": 2,
      "note": 52,
      "start": 22.9336,
      "duration": 0.0787,
      "velocity": 94,
      "chip": "ym2612"
    },
    {
      "channel": 3,
      "note": 61,
      "start": 22.9391,
      "duration": 0.051,
      "velocity": 127,
      "chip": "ym2612"
    },
    {
      "channel": 4,
      "note": 47,
      "start": 22.9409,
      "duration": 0.0721,
      "velocity": 94,
      "chip": "ym2612"
    },
    {
      "channel": 5,
      "note": 71,
      "start": 22.9506,
      "duration": 0.0627,
      "velocity": 98,
      "chip": "ym2612"
    },
    {
      "channel": 0,
      "note": 72,
      "start": 23.0119,
      "duration": 0.0607,
      "velocity": 98,
      "chip": "ym2612"
    },
    {
      "channel": 5,
      "note": 72,
      "start": 23.0337,
      "duration": 0.0624,
      "velocity": 98,
      "chip": "ym2612"
    },
    {
      "channel": 1,
      "note": 52,
      "start": 23.0546,
      "duration": 0.0804,
      "velocity": 103,
      "chip": "ym2612"
    },
    {
      "channel": 2,
      "note": 52,
      "start": 23.0564,
      "duration": 0.0788,
      "velocity": 94,
      "chip": "ym2612"
    },
    {
      "channel": 4,
      "note": 47,
      "start": 23.0588,
      "duration": 0.0772,
      "velocity": 94,
      "chip": "ym2612"
    },
    {
      "channel": 0,
      "note": 71,
      "start": 23.0949,
      "duration": 0.7876,
      "velocity": 98,
      "chip": "ym2612"
    },
    {
      "channel": 5,
      "note": 74,
      "start": 23.1167,
      "duration": 0.0686,
      "velocity": 98,
      "chip": "ym2612"
    },
    {
      "channel": 1,
      "note": 52,
      "start": 23.1792,
      "duration": 0.0806,
      "velocity": 103,
      "chip": "ym2612"
    },
    {
      "channel": 2,
      "note": 52,
      "start": 23.181,
      "duration": 0.0791,
      "velocity": 94,
      "chip": "ym2612"
    },
    {
      "channel": 3,
      "note": 61,
      "start": 23.1832,
      "duration": 0.0559,
      "velocity": 127,
      "chip": "ym2612"
    },
    {
      "channel": 4,
      "note": 47,
      "start": 23.1851,
      "duration": 0.0758,
      "velocity": 94,
      "chip": "ym2612"
    },
    {
      "channel": 5,
      "note": 72,
      "start": 23.1998,
      "duration": 0.0612,
      "velocity": 98,
      "chip": "ym2612"
    },
    {
      "channel": 5,
      "note": 71,
      "start": 23.2828,
      "duration": 0.8083,
      "velocity": 98,
      "chip": "ym2612"
    },
    {
      "channel": 1,
      "note": 52,
      "start": 23.3038,
      "duration": 0.0805,
      "velocity": 103,
      "chip": "ym2612"
    },
    {
      "channel": 2,
      "note": 52,
      "start": 23.3056,
      "duration": 0.0788,
      "velocity": 94,
      "chip": "ym2612"
    },
    {
      "channel": 4,
      "note": 47,
      "start": 23.308,
      "duration": 0.0772,
      "velocity": 94,
      "chip": "ym2612"
    },
    {
      "channel": 1,
      "note": 52,
      "start": 23.4285,
      "duration": 0.0803,
      "velocity": 103,
      "chip": "ym2612"
    },
    {
      "channel": 2,
      "note": 52,
      "start": 23.4302,
      "duration": 0.0788,
      "velocity": 94,
      "chip": "ym2612"
    },
    {
      "channel": 3,
      "note": 62,
      "start": 23.4357,
      "duration": 0.0117,
      "velocity": 127,
      "chip": "ym2612"
    },
    {
      "channel": 4,
      "note": 47,
      "start": 23.4376,
      "duration": 0.0722,
      "velocity": 94,
      "chip": "ym2612"
    },
    {
      "channel": 1,
      "note": 52,
      "start": 23.5529,
      "duration": 0.0804,
      "velocity": 103,
      "chip": "ym2612"
    },
    {
      "channel": 2,
      "note": 52,
      "start": 23.5548,
      "duration": 0.0788,
      "velocity": 94,
      "chip": "ym2612"
    },
    {
      "channel": 4,
      "note": 47,
      "start": 23.5571,
      "duration": 0.0772,
      "velocity": 94,
      "chip": "ym2612"
    },
    {
      "channel": 1,
      "note": 52,
      "start": 23.6776,
      "duration": 0.0804,
      "velocity": 103,
      "chip": "ym2612"
    },
    {
      "channel": 2,
      "note": 52,
      "start": 23.6793,
      "duration": 0.0788,
      "velocity": 94,
      "chip": "ym2612"
    },
    {
      "channel": 4,
      "note": 47,
      "start": 23.6818,
      "duration": 0.0771,
      "velocity": 94,
      "chip": "ym2612"
    },
    {
      "channel": 1,
      "note": 52,
      "start": 23.8022,
      "duration": 0.0805,
      "velocity": 103,
      "chip": "ym2612"
    },
    {
      "channel": 2,
      "note": 52,
      "start": 23.804,
      "duration": 0.0788,
      "velocity": 94,
      "chip": "ym2612"
    },
    {
      "channel": 4,
      "note": 47,
      "start": 23.8064,
      "duration": 0.0773,
      "velocity": 94,
      "chip": "ym2612"
    },
    {
      "channel": 0,
      "note": 72,
      "start": 23.9265,
      "duration": 0.1013,
      "velocity": 98,
      "chip": "ym2612"
    },
    {
      "channel": 1,
      "note": 52,
      "start": 23.9294,
      "duration": 0.0986,
      "velocity": 103,
      "chip": "ym2612"
    },
    {
      "channel": 2,
      "note": 64,
      "start": 23.9325,
      "duration": 0.4695,
      "velocity": 94,
      "chip": "ym2612"
    },
    {
      "channel": 3,
      "note": 61,
      "start": 23.9396,
      "duration": 0.0679,
      "velocity": 127,
      "chip": "ym2612"
    },
    {
      "channel": 4,
      "note": 59,
      "start": 23.9427,
      "duration": 0.46,
      "velocity": 94,
      "chip": "ym2612"
    },
    {
      "channel": 0,
      "note": 74,
      "start": 24.0709,
      "duration": 0.0815,
      "velocity": 98,
      "chip": "ym2612"
    },
    {
      "channel": 1,
      "note": 52,
      "start": 24.0738,
      "duration": 0.0788,
      "velocity": 103,
      "chip": "ym2612"
    },
    {
      "channel": 5,
      "note": 72,
      "start": 24.1347,
      "duration": 0.081,
      "velocity": 98,
      "chip": "ym2612"
    },
    {
      "channel": 0,
      "note": 71,
      "start": 24.1955,
      "duration": 0.0815,
      "velocity": 98,
      "chip": "ym2612"
    },
    {
      "channel": 1,
      "note": 52,
      "start": 24.1984,
      "duration": 0.0788,
      "velocity": 103,
      "chip": "ym2612"
    },
    {
      "channel": 3,
      "note": 61,
      "start": 24.2007,
      "duration": 0.0559,
      "velocity": 127,
      "chip": "ym2612"
    },
    {
      "channel": 5,
      "note": 74,
      "start": 24.2585,
      "duration": 0.0819,
      "velocity": 98,
      "chip": "ym2612"
    },
    {
      "channel": 0,
      "note": 74,
      "start": 24.3201,
      "duration": 0.0815,
      "velocity": 98,
      "chip": "ym2612"
    },
    {
      "channel": 1,
      "note": 52,
      "start": 24.323,
      "duration": 0.0788,
      "velocity": 103,
      "chip": "ym2612"
    },
    {
      "channel": 5,
      "note": 71,
      "start": 24.3834,
      "duration": 0.0817,
      "velocity": 98,
      "chip": "ym2612"
    },
    {
      "channel": 0,
      "note": 69,
      "start": 24.4447,
      "duration": 0.0815,
      "velocity": 98,
      "chip": "ym2612"
    },
    {
      "channel": 1,
      "note": 52,
      "start": 24.4476,
      "duration": 0.0788,
      "velocity": 103,
      "chip": "ym2612"
    },
    {
      "channel": 2,
      "note": 65,
      "start": 24.4493,
      "duration": 0.2018,
      "velocity": 94,
      "chip": "ym2612"
    },
    {
      "channel": 3,
      "note": 62,
      "start": 24.4547,
      "duration": 0.0101,
      "velocity": 127,
      "chip": "ym2612"
    },
    {
      "channel": 4,
      "note": 60,
      "start": 24.4564,
      "duration": 0.1956,
      "velocity": 94,
      "chip": "ym2612"
    },
    {
      "channel": 5,
      "note": 74,
      "start": 24.508,
      "duration": 0.0828,
      "velocity": 98,
      "chip": "ym2612"
    },
    {
      "channel": 0,
      "note": 74,
      "start": 24.5693,
      "duration": 0.0815,
      "velocity": 98,
      "chip": "ym2612"
    },
    {
      "channel": 1,
      "note": 52,
      "start": 24.5722,
      "duration": 0.0788,
      "velocity": 103,
      "chip": "ym2612"
    },
    {
      "channel": 5,
      "note": 69,
      "start": 24.6326,
      "duration": 0.0816,
      "velocity": 98,
      "chip": "ym2612"
    },
    {
      "channel": 0,
      "note": 68,
      "start": 24.6939,
      "duration": 0.0815,
      "velocity": 98,
      "chip": "ym2612"
    },
    {
      "channel": 1,
      "note": 52,
      "start": 24.6968,
      "duration": 0.0788,
      "velocity": 103,
      "chip": "ym2612"
    },
    {
      "channel": 2,
      "note": 52,
      "start": 24.6987,
      "duration": 0.2017,
      "velocity": 94,
      "chip": "ym2612"
    },
    {
      "channel": 4,
      "note": 47,
      "start": 24.7012,
      "duration": 0.2,
      "velocity": 94,
      "chip": "ym2612"
    },
    {
      "channel": 5,
      "note": 74,
      "start": 24.7571,
      "duration": 0.0815,
      "velocity": 98,
      "chip": "ym2612"
    },
    {
      "channel": 0,
      "note": 74,
      "start": 24.8185,
      "duration": 0.0815,
      "velocity": 98,
      "chip": "ym2612"
    },
    {
      "channel": 1,
      "note": 52,
      "start": 24.8214,
      "duration": 0.0788,
      "velocity": 103,
      "chip": "ym2612"
    },
    {
      "channel": 5,
      "note": 68,
      "start": 24.8818,
      "duration": 0.0815,
      "velocity": 98,
      "chip": "ym2612"
    },
    {
      "channel": 0,
      "note": 72,
      "start": 24.9432,
      "duration": 0.0814,
      "velocity": 98,
      "chip": "ym2612"
    },
    {
      "channel": 1,
      "note": 52,
      "start": 24.9461,
      "duration": 0.0786,
      "velocity": 103,
      "chip": "ym2612"
    },
    {
      "channel": 2,
      "note": 52,
      "start": 24.9477,
      "duration": 0.2025,
      "velocity": 94,
      "chip": "ym2612"
    },
    {
      "channel": 3,
      "note": 61,
      "start": 24.9534,
      "duration": 0.0508,
      "velocity": 127,
      "chip": "ym2612"
    },
    {
      "channel": 4,
      "note": 47,
      "start": 24.955,
      "duration": 0.196,
      "velocity": 94,
      "chip": "ym2612"
    },
    {
      "channel": 5,
      "note": 74,
      "start": 25.0061,
      "duration": 0.0818,
      "velocity": 98,
      "chip": "ym2612"
    },
    {
      "channel": 0,
      "note": 74,
      "start": 25.0677,
      "duration": 0.0821,
      "velocity": 98,
      "chip": "ym2612"
    },
    {
      "channel": 1,
      "note": 52,
      "start": 25.0706,
      "duration": 0.0794,
      "velocity": 103,
      "chip": "ym2612"
    },
    {
      "channel": 5,
      "note": 72,
      "start": 25.1311,
      "duration": 0.0815,
      "velocity": 98,
      "chip": "ym2612"
    },
    {
      "channel": 0,
      "note": 71,
      "start": 25.1923,
      "duration": 0.0815,
      "velocity": 98,
      "chip": "ym2612"
    },
    {
      "channel": 1,
      "note": 52,
      "start": 25.1952,
      "duration": 0.0788,
      "velocity": 103,
      "chip": "ym2612"
    },
    {
      "channel": 2,
      "note": 64,
      "start": 25.1968,
      "duration": 0.202,
      "velocity": 94,
      "chip": "ym2612"
    },
    {
      "channel": 3,
      "note": 61,
      "start": 25.199,
      "duration": 0.0544,
      "velocity": 127,
      "chip": "ym2612"
    },
    {
      "channel": 4,
      "note": 59,
      "start": 25.2007,
      "duration": 0.1988,
      "velocity": 94,
      "chip": "ym2612"
    },
    {
      "channel": 5,
      "note": 74,
      "start": 25.2552,
      "duration": 0.0819,
      "velocity": 98,
      "chip": "ym2612"
    },
    {
      "channel": 0,
      "note": 74,
      "start": 25.3169,
      "duration": 0.0814,
      "velocity": 98,
      "chip": "ym2612"
    },
    {
      "channel": 1,
      "note": 52,
      "start": 25.3198,
      "duration": 0.0788,
      "velocity": 103,
      "chip": "ym2612"
    },
    {
      "channel": 5,
      "note": 71,
      "start": 25.3801,
      "duration": 0.0817,
      "velocity": 98,
      "chip": "ym2612"
    },
    {
      "channel": 0,
      "note": 69,
      "start": 25.4414,
      "duration": 0.0815,
      "velocity": 98,
      "chip": "ym2612"
    },
    {
      "channel": 1,
      "note": 52,
      "start": 25.4444,
      "duration": 0.0788,
      "velocity": 103,
      "chip": "ym2612"
    },
    {
      "channel": 2,
      "note": 65,
      "start": 25.4459,
      "duration": 0.202,
      "velocity": 94,
      "chip": "ym2612"
    },
    {
      "channel": 3,
      "note": 62,
      "start": 25.4514,
      "duration": 0.0101,
      "velocity": 127,
      "chip": "ym2612"
    },
    {
      "channel": 4,
      "note": 60,
      "start": 25.4531,
      "duration": 0.1956,
      "velocity": 94,
      "chip": "ym2612"
    },
    {
      "channel": 5,
      "note": 74,
      "start": 25.5047,
      "duration": 0.0816,
      "velocity": 98,
      "chip": "ym2612"
    },
    {
      "channel": 0,
      "note": 74,
      "start": 25.5661,
      "duration": 0.0815,
      "velocity": 98,
      "chip": "ym2612"
    },
    {
      "channel": 1,
      "note": 52,
      "start": 25.569,
      "duration": 0.0788,
      "velocity": 103,
      "chip": "ym2612"
    },
    {
      "channel": 5,
      "note": 69,
      "start": 25.6293,
      "duration": 0.082,
      "velocity": 98,
      "chip": "ym2612"
    },
    {
      "channel": 0,
      "note": 68,
      "start": 25.6906,
      "duration": 0.0815,
      "velocity": 98,
      "chip": "ym2612"
    },
    {
      "channel": 1,
      "note": 52,
      "start": 25.6935,
      "duration": 0.0788,
      "velocity": 103,
      "chip": "ym2612"
    },
    {
      "channel": 2,
      "note": 52,
      "start": 25.6953,
      "duration": 0.2019,
      "velocity": 94,
      "chip": "ym2612"
    },
    {
      "channel": 4,
      "note": 47,
      "start": 25.6977,
      "duration": 0.2002,
      "velocity": 94,
      "chip": "ym2612"
    },
    {
      "channel": 5,
      "note": 74,
      "start": 25.7539,
      "duration": 0.0815,
      "velocity": 98,
      "chip": "ym2612"
    },
    {
      "channel": 0,
      "note": 74,
      "start": 25.8162,
      "duration": 0.0807,
      "velocity": 98,
      "chip": "ym2612"
    },
    {
      "channel": 1,
      "note": 52,
      "start": 25.819,
      "duration": 0.078,
      "velocity": 103,
      "chip": "ym2612"
    },
    {
      "channel": 5,
      "note": 68,
      "start": 25.8785,
      "duration": 0.0815,
      "velocity": 98,
      "chip": "ym2612"
    },
    {
      "channel": 0,
      "note": 72,
      "start": 25.94,
      "duration": 0.0814,
      "velocity": 98,
      "chip": "ym2612"
    },
    {
      "channel": 1,
      "note": 52,
      "start": 25.9429,
      "duration": 0.0786,
      "velocity": 103,
      "chip": "ym2612"
    },
    {
      "channel": 2,
      "note": 52,
      "start": 25.9446,
      "duration": 0.2018,
      "velocity": 94,
      "chip": "ym2612"
    },
    {
      "channel": 3,
      "note": 61,
      "start": 25.9516,
      "duration": 0.0494,
      "velocity": 127,
      "chip": "ym2612"
    },
    {
      "channel": 4,
      "note": 47,
      "start": 25.9533,
      "duration": 0.1938,
      "velocity": 94,
      "chip": "ym2612"
    },
    {
      "channel": 5,
      "note": 74,
      "start": 26.0028,
      "duration": 0.0818,
      "velocity": 98,
      "chip": "ym2612"
    },
    {
      "channel": 0,
      "note": 74,
      "start": 26.0644,
      "duration": 0.0815,
      "velocity": 98,
      "chip": "ym2612"
    },
    {
      "channel": 1,
      "note": 52,
      "start": 26.0674,
      "duration": 0.0787,
      "velocity": 103,
      "chip": "ym2612"
    },
    {
      "channel": 5,
      "note": 72,
      "start": 26.1278,
      "duration": 0.0815,
      "velocity": 98,
      "chip": "ym2612"
    },
    {
      "channel": 0,
      "note": 71,
      "start": 26.189,
      "duration": 0.0818,
      "velocity": 98,
      "chip": "ym2612"
    },
    {
      "channel": 1,
      "note": 52,
      "start": 26.192,
      "duration": 0.0791,
      "velocity": 103,
      "chip": "ym2612"
    },
    {
      "channel": 2,
      "note": 64,
      "start": 26.1935,
      "duration": 0.202,
      "velocity": 94,
      "chip": "ym2612"
    },
    {
      "channel": 3,
      "note": 61,
      "start": 26.1957,
      "duration": 0.0546,
      "velocity": 127,
      "chip": "ym2612"
    },
    {
      "channel": 4,
      "note": 59,
      "start": 26.1973,
      "duration": 0.199,
      "velocity": 94,
      "chip": "ym2612"
    },
    {
      "channel": 5,
      "note": 74,
      "start": 26.2521,
      "duration": 0.0818,
      "velocity": 98,
      "chip": "ym2612"
    },
    {
      "channel": 0,
      "note": 74,
      "start": 26.3136,
      "duration": 0.0815,
      "velocity": 98,
      "chip": "ym2612"
    },
    {
      "channel": 1,
      "note": 52,
      "start": 26.3166,
      "duration": 0.0787,
      "velocity": 103,
      "chip": "ym2612"
    },
    {
      "channel": 5,
      "note": 71,
      "start": 26.3776,
      "duration": 0.081,
      "velocity": 98,
      "chip": "ym2612"
    },
    {
      "channel": 0,
      "note": 69,
      "start": 26.4382,
      "duration": 0.0815,
      "velocity": 98,
      "chip": "ym2612"
    },
    {
      "channel": 1,
      "note": 52,
      "start": 26.4411,
      "duration": 0.0788,
      "velocity": 103,
      "chip": "ym2612"
    },
    {
      "channel": 2,
      "note": 65,
      "start": 26.4428,
      "duration": 0.202,
      "velocity": 94,
      "chip": "ym2612"
    },
    {
      "channel": 3,
      "note": 62,
      "start": 26.4481,
      "duration": 0.0102,
      "velocity": 127,
      "chip": "ym2612"
    },
    {
      "channel": 4,
      "note": 60,
      "start": 26.4499,
      "duration": 0.1956,
      "velocity": 94,
      "chip": "ym2612"
    },
    {
      "channel": 5,
      "note": 74,
      "start": 26.5015,
      "duration": 0.0816,
      "velocity": 98,
      "chip": "ym2612"
    },
    {
      "channel": 0,
      "note": 74,
      "start": 26.5628,
      "duration": 0.0815,
      "velocity": 98,
      "chip": "ym2612"
    },
    {
      "channel": 1,
      "note": 52,
      "start": 26.5657,
      "duration": 0.0788,
      "velocity": 103,
      "chip": "ym2612"
    },
    {
      "channel": 5,
      "note": 69,
      "start": 26.626,
      "duration": 0.0816,
      "velocity": 98,
      "chip": "ym2612"
    },
    {
      "channel": 0,
      "note": 68,
      "start": 26.6874,
      "duration": 0.0815,
      "velocity": 98,
      "chip": "ym2612"
    },
    {
      "channel": 1,
      "note": 52,
      "start": 26.6903,
      "duration": 0.0788,
      "velocity": 103,
      "chip": "ym2612"
    },
    {
      "channel": 2,
      "note": 52,
      "start": 26.6921,
      "duration": 0.2018,
      "velocity": 94,
      "chip": "ym2612"
    },
    {
      "channel": 4,
      "note": 47,
      "start": 26.6944,
      "duration": 0.2002,
      "velocity": 94,
      "chip": "ym2612"
    },
    {
      "channel": 5,
      "note": 74,
      "start": 26.7507,
      "duration": 0.0816,
      "velocity": 98,
      "chip": "ym2612"
    },
    {
      "channel": 0,
      "note": 74,
      "start": 26.812,
      "duration": 0.0816,
      "velocity": 98,
      "chip": "ym2612"
    },
    {
      "channel": 1,
      "note": 52,
      "start": 26.8149,
      "duration": 0.0788,
      "velocity": 103,
      "chip": "ym2612"
    },
    {
      "channel": 5,
      "note": 68,
      "start": 26.8753,
      "duration": 0.0816,
      "velocity": 98,
      "chip": "ym2612"
    },
    {
      "channel": 0,
      "note": 72,
      "start": 26.9373,
      "duration": 0.0808,
      "velocity": 98,
      "chip": "ym2612"
    },
    {
      "channel": 1,
      "note": 52,
      "start": 26.9402,
      "duration": 0.078,
      "velocity": 103,
      "chip": "ym2612"
    },
    {
      "channel": 2,
      "note": 67,
      "start": 26.9419,
      "duration": 0.2012,
      "velocity": 94,
      "chip": "ym2612"
    },
    {
      "channel": 3,
      "note": 61,
      "start": 26.9473,
      "duration": 0.0504,
      "velocity": 127,
      "chip": "ym2612"
    },
    {
      "channel": 4,
      "note": 62,
      "start": 26.9491,
      "duration": 0.1948,
      "velocity": 94,
      "chip": "ym2612"
    },
    {
      "channel": 5,
      "note": 74,
      "start": 26.9996,
      "duration": 0.0817,
      "velocity": 98,
      "chip": "ym2612"
    },
    {
      "channel": 0,
      "note": 74,
      "start": 27.0612,
      "duration": 0.0815,
      "velocity": 98,
      "chip": "ym2612"
    },
    {
      "channel": 1,
      "note": 52,
      "start": 27.0641,
      "duration": 0.0788,
      "velocity": 103,
      "chip": "ym2612"
    },
    {
      "channel": 5,
      "note": 72,
      "start": 27.1246,
      "duration": 0.0814,
      "velocity": 98,
      "chip": "ym2612"
    },
    {
      "channel": 0,
      "note": 71,
      "start": 27.1858,
      "duration": 0.0815,
      "velocity": 98,
      "chip": "ym2612"
    },
    {
      "channel": 1,
      "note": 52,
      "start": 27.1887,
      "duration": 0.0788,
      "velocity": 103,
      "chip": "ym2612"
    },
    {
      "channel": 2,
      "note": 52,
      "start": 27.1903,
      "duration": 0.202,
      "velocity": 94,
      "chip": "ym2612"
    },
    {
      "channel": 3,
      "note": 61,
      "start": 27.1924,
      "duration": 0.0546,
      "velocity": 127,
      "chip": "ym2612"
    },
    {
      "channel": 4,
      "note": 47,
      "start": 27.194,
      "duration": 0.199,
      "velocity": 94,
      "chip": "ym2612"
    },
    {
      "channel": 5,
      "note": 74,
      "start": 27.2488,
      "duration": 0.0819,
      "velocity": 98,
      "chip": "ym2612"
    },
    {
      "channel": 0,
      "note": 74,
      "start": 27.3104,
      "duration": 0.0815,
      "velocity": 98,
      "chip": "ym2612"
    },
    {
      "channel": 1,
      "note": 52,
      "start": 27.3133,
      "duration": 0.0788,
      "velocity": 103,
      "chip": "ym2612"
    },
    {
      "channel": 5,
      "note": 71,
      "start": 27.3736,
      "duration": 0.0818,
      "velocity": 98,
      "chip": "ym2612"
    },
    {
      "channel": 0,
      "note": 69,
      "start": 27.4349,
      "duration": 0.0815,
      "velocity": 98,
      "chip": "ym2612"
    },
    {
      "channel": 1,
      "note": 52,
      "start": 27.4379,
      "duration": 0.0788,
      "velocity": 103,
      "chip": "ym2612"
    },
    {
      "channel": 2,
      "note": 65,
      "start": 27.4395,
      "duration": 0.202,
      "velocity": 94,
      "chip": "ym2612"
    },
    {
      "channel": 3,
      "note": 62,
      "start": 27.4449,
      "duration": 0.0102,
      "velocity": 127,
      "chip": "ym2612"
    },
    {
      "channel": 4,
      "note": 60,
      "start": 27.4465,
      "duration": 0.1957,
      "velocity": 94,
      "chip": "ym2612"
    },
    {
      "channel": 5,
      "note": 74,
      "start": 27.4987,
      "duration": 0.0811,
      "velocity": 98,
      "chip": "ym2612"
    },
    {
      "channel": 0,
      "note": 74,
      "start": 27.5596,
      "duration": 0.0815,
      "velocity": 98,
      "chip": "ym2612"
    },
    {
      "channel": 1,
      "note": 52,
      "start": 27.5625,
      "duration": 0.0788,
      "velocity": 103,
      "chip": "ym2612"
    },
    {
      "channel": 5,
      "note": 69,
      "start": 27.6228,
      "duration": 0.0816,
      "velocity": 98,
      "chip": "ym2612"
    },
    {
      "channel": 0,
      "note": 68,
      "start": 27.6842,
      "duration": 0.0815,
      "velocity": 98,
      "chip": "ym2612"
    },
    {
      "channel": 1,
      "note": 52,
      "start": 27.6871,
      "duration": 0.0788,
      "velocity": 103,
      "chip": "ym2612"
    },
    {
      "channel": 2,
      "note": 64,
      "start": 27.6888,
      "duration": 0.2019,
      "velocity": 94,
      "chip": "ym2612"
    },
    {
      "channel": 4,
      "note": 59,
      "start": 27.691,
      "duration": 0.2005,
      "velocity": 94,
      "chip": "ym2612"
    },
    {
      "channel": 5,
      "note": 74,
      "start": 27.7474,
      "duration": 0.0815,
      "velocity": 98,
      "chip": "ym2612"
    },
    {
      "channel": 0,
      "note": 74,
      "start": 27.8087,
      "duration": 0.0815,
      "velocity": 98,
      "chip": "ym2612"
    },
    {
      "channel": 1,
      "note": 52,
      "start": 27.8117,
      "duration": 0.0788,
      "velocity": 103,
      "chip": "ym2612"
    },
    {
      "channel": 5,
      "note": 68,
      "start": 27.872,
      "duration": 0.0824,
      "velocity": 98,
      "chip": "ym2612"
    },
    {
      "channel": 0,
      "note": 74,
      "start": 27.9335,
      "duration": 0.0813,
      "velocity": 98,
      "chip": "ym2612"
    },
    {
      "channel": 1,
      "note": 52,
      "start": 27.9364,
      "duration": 0.0787,
      "velocity": 103,
      "chip": "ym2612"
    },
    {
      "channel": 2,
      "note": 52,
      "start": 27.9385,
      "duration": 0.0768,
      "velocity": 94,
      "chip": "ym2612"
    },
    {
      "channel": 3,
      "note": 61,
      "start": 27.9455,
      "duration": 0.049,
      "velocity": 127,
      "chip": "ym2612"
    },
    {
      "channel": 4,
      "note": 47,
      "start": 27.9477,
      "duration": 0.0684,
      "velocity": 94,
      "chip": "ym2612"
    },
    {
      "channel": 5,
      "note": 74,
      "start": 27.9963,
      "duration": 0.0819,
      "velocity": 98,
      "chip": "ym2612"
    },
    {
      "channel": 0,
      "note": 72,
      "start": 28.0582,
      "duration": 0.0813,
      "velocity": 98,
      "chip": "ym2612"
    },
    {
      "channel": 1,
      "note": 52,
      "start": 28.061,
      "duration": 0.0786,
      "velocity": 103,
      "chip": "ym2612"
    },
    {
      "channel": 2,
      "note": 52,
      "start": 28.0629,
      "duration": 0.0771,
      "velocity": 94,
      "chip": "ym2612"
    },
    {
      "channel": 4,
      "note": 47,
      "start": 28.0653,
      "duration": 0.0754,
      "velocity": 94,
      "chip": "ym2612"
    },
    {
      "channel": 5,
      "note": 74,
      "start": 28.1213,
      "duration": 0.0815,
      "velocity": 98,
      "chip": "ym2612"
    },
    {
      "channel": 0,
      "note": 71,
      "start": 28.1825,
      "duration": 0.0816,
      "velocity": 98,
      "chip": "ym2612"
    },
    {
      "channel": 1,
      "note": 52,
      "start": 28.1855,
      "duration": 0.0788,
      "velocity": 103,
      "chip": "ym2612"
    },
    {
      "channel": 2,
      "note": 52,
      "start": 28.1873,
      "duration": 0.0772,
      "velocity": 94,
      "chip": "ym2612"
    },
    {
      "channel": 3,
      "note": 61,
      "start": 28.1894,
      "duration": 0.0543,
      "velocity": 127,
      "chip": "ym2612"
    },
    {
      "channel": 4,
      "note": 47,
      "start": 28.1912,
      "duration": 0.074,
      "velocity": 94,
      "chip": "ym2612"
    },
    {
      "channel": 5,
      "note": 72,
      "start": 28.2455,
      "duration": 0.0819,
      "velocity": 98,
      "chip": "ym2612"
    },
    {
      "channel": 0,
      "note": 69,
      "start": 28.3071,
      "duration": 0.0815,
      "velocity": 98,
      "chip": "ym2612"
    },
    {
      "channel": 1,
      "note": 52,
      "start": 28.31,
      "duration": 0.0789,
      "velocity": 103,
      "chip": "ym2612"
    },
    {
      "channel": 2,
      "note": 52,
      "start": 28.3119,
      "duration": 0.0772,
      "velocity": 94,
      "chip": "ym2612"
    },
    {
      "channel": 4,
      "note": 47,
      "start": 28.3142,
      "duration": 0.0756,
      "velocity": 94,
      "chip": "ym2612"
    },
    {
      "channel": 5,
      "note": 71,
      "start": 28.3704,
      "duration": 0.0817,
      "velocity": 98,
      "chip": "ym2612"
    },
    {
      "channel": 0,
      "note": 68,
      "start": 28.4317,
      "duration": 0.0815,
      "velocity": 98,
      "chip": "ym2612"
    },
    {
      "channel": 1,
      "note": 52,
      "start": 28.4347,
      "duration": 0.0788,
      "velocity": 103,
      "chip": "ym2612"
    },
    {
      "channel": 2,
      "note": 52,
      "start": 28.4365,
      "duration": 0.0773,
      "velocity": 94,
      "chip": "ym2612"
    },
    {
      "channel": 3,
      "note": 62,
      "start": 28.4418,
      "duration": 0.01,
      "velocity": 127,
      "chip": "ym2612"
    },
    {
      "channel": 4,
      "note": 47,
      "start": 28.4437,
      "duration": 0.0709,
      "velocity": 94,
      "chip": "ym2612"
    },
    {
      "channel": 5,
      "note": 69,
      "start": 28.495,
      "duration": 0.0816,
      "velocity": 98,
      "chip": "ym2612"
    },
    {
      "channel": 0,
      "note": 65,
      "start": 28.5563,
      "duration": 0.0815,
      "velocity": 98,
      "chip": "ym2612"
    },
    {
      "channel": 1,
      "note": 52,
      "start": 28.5593,
      "duration": 0.0788,
      "velocity": 103,
      "chip": "ym2612"
    },
    {
      "channel": 2,
      "note": 52,
      "start": 28.561,
      "duration": 0.0772,
      "velocity": 94,
      "chip": "ym2612"
    },
    {
      "channel": 4,
      "note": 47,
      "start": 28.5634,
      "duration": 0.0756,
      "velocity": 94,
      "chip": "ym2612"
    },
    {
      "channel": 5,
      "note": 68,
      "start": 28.6197,
      "duration": 0.0814,
      "velocity": 98,
      "chip": "ym2612"
    },
    {
      "channel": 0,
      "note": 64,
      "start": 28.6809,
      "duration": 0.0815,
      "velocity": 98,
      "chip": "ym2612"
    },
    {
      "channel": 1,
      "note": 52,
      "start": 28.6839,
      "duration": 0.0788,
      "velocity": 103,
      "chip": "ym2612"
    },
    {
      "channel": 2,
      "note": 52,
      "start": 28.6858,
      "duration": 0.0771,
      "velocity": 94,
      "chip": "ym2612"
    },
    {
      "channel": 4,
      "note": 47,
      "start": 28.6881,
      "duration": 0.0756,
      "velocity": 94,
      "chip": "ym2612"
    },
    {
      "channel": 5,
      "note": 65,
      "start": 28.7442,
      "duration": 0.0815,
      "velocity": 98,
      "chip": "ym2612"
    },
    {
      "channel": 0,
      "note": 62,
      "start": 28.8055,
      "duration": 0.0816,
      "velocity": 98,
      "chip": "ym2612"
    },
    {
      "channel": 1,
      "note": 52,
      "start": 28.8084,
      "duration": 0.0788,
      "velocity": 103,
      "chip": "ym2612"
    },
    {
      "channel": 2,
      "note": 52,
      "start": 28.8102,
      "duration": 0.0772,
      "velocity": 94,
      "chip": "ym2612"
    },
    {
      "channel": 4,
      "note": 47,
      "start": 28.8126,
      "duration": 0.0756,
      "velocity": 94,
      "chip": "ym2612"
    },
    {
      "channel": 5,
      "note": 64,
      "start": 28.8688,
      "duration": 0.0816,
      "velocity": 98,
      "chip": "ym2612"
    },
    {
      "channel": 0,
      "note": 62,
      "start": 28.9303,
      "duration": 2.9469,
      "velocity": 98,
      "chip": "ym2612"
    },
    {
      "channel": 1,
      "note": 52,
      "start": 28.9333,
      "duration": 0.0784,
      "velocity": 103,
      "chip": "ym2612"
    },
    {
      "channel": 2,
      "note": 52,
      "start": 28.9351,
      "duration": 0.0768,
      "velocity": 94,
      "chip": "ym2612"
    },
    {
      "channel": 3,
      "note": 61,
      "start": 28.9406,
      "duration": 0.0506,
      "velocity": 127,
      "chip": "ym2612"
    },
    {
      "channel": 4,
      "note": 47,
      "start": 28.9424,
      "duration": 0.0702,
      "velocity": 94,
      "chip": "ym2612"
    },
    {
      "channel": 5,
      "note": 62,
      "start": 28.9931,
      "duration": 0.0818,
      "velocity": 98,
      "chip": "ym2612"
    },
    {
      "channel": 1,
      "note": 52,
      "start": 29.0559,
      "duration": 0.0803,
      "velocity": 103,
      "chip": "ym2612"
    },
    {
      "channel": 2,
      "note": 52,
      "start": 29.0577,
      "duration": 0.0788,
      "velocity": 94,
      "chip": "ym2612"
    },
    {
      "channel": 4,
      "note": 47,
      "start": 29.0601,
      "duration": 0.0772,
      "velocity": 94,
      "chip": "ym2612"
    },
    {
      "channel": 5,
      "note": 62,
      "start": 29.1181,
      "duration": 2.9473,
      "velocity": 98,
      "chip": "ym2612"
    },
    {
      "channel": 1,
      "note": 52,
      "start": 29.1805,
      "duration": 0.0804,
      "velocity": 103,
      "chip": "ym2612"
    },
    {
      "channel": 2,
      "note": 52,
      "start": 29.1824,
      "duration": 0.0787,
      "velocity": 94,
      "chip": "ym2612"
    },
    {
      "channel": 3,
      "note": 61,
      "start": 29.1846,
      "duration": 0.0559,
      "velocity": 127,
      "chip": "ym2612"
    },
    {
      "channel": 4,
      "note": 47,
      "start": 29.1864,
      "duration": 0.0755,
      "velocity": 94,
      "chip": "ym2612"
    },
    {
      "channel": 1,
      "note": 52,
      "start": 29.3051,
      "duration": 0.0811,
      "velocity": 103,
      "chip": "ym2612"
    },
    {
      "channel": 2,
      "note": 52,
      "start": 29.3069,
      "duration": 0.0795,
      "velocity": 94,
      "chip": "ym2612"
    },
    {
      "channel": 4,
      "note": 47,
      "start": 29.3093,
      "duration": 0.0779,
      "velocity": 94,
      "chip": "ym2612"
    },
    {
      "channel": 1,
      "note": 52,
      "start": 29.4297,
      "duration": 0.0803,
      "velocity": 103,
      "chip": "ym2612"
    },
    {
      "channel": 2,
      "note": 52,
      "start": 29.4315,
      "duration": 0.0788,
      "velocity": 94,
      "chip": "ym2612"
    },
    {
      "channel": 3,
      "note": 62,
      "start": 29.437,
      "duration": 0.0116,
      "velocity": 127,
      "chip": "ym2612"
    },
    {
      "channel": 4,
      "note": 47,
      "start": 29.4388,
      "duration": 0.0723,
      "velocity": 94,
      "chip": "ym2612"
    },
    {
      "channel": 1,
      "note": 52,
      "start": 29.5543,
      "duration": 0.0804,
      "velocity": 103,
      "chip": "ym2612"
    },
    {
      "channel": 2,
      "note": 52,
      "start": 29.5561,
      "duration": 0.0788,
      "velocity": 94,
      "chip": "ym2612"
    },
    {
      "channel": 4,
      "note": 47,
      "start": 29.5585,
      "duration": 0.0772,
      "velocity": 94,
      "chip": "ym2612"
    },
    {
      "channel": 1,
      "note": 52,
      "start": 29.6789,
      "duration": 0.0804,
      "velocity": 103,
      "chip": "ym2612"
    },
    {
      "channel": 2,
      "note": 52,
      "start": 29.6807,
      "duration": 0.0788,
      "velocity": 94,
      "chip": "ym2612"
    },
    {
      "channel": 4,
      "note": 47,
      "start": 29.6832,
      "duration": 0.077,
      "velocity": 94,
      "chip": "ym2612"
    },
    {
      "channel": 1,
      "note": 52,
      "start": 29.8034,
      "duration": 0.0804,
      "velocity": 103,
      "chip": "ym2612"
    },
    {
      "channel": 2,
      "note": 52,
      "start": 29.8053,
      "duration": 0.0788,
      "velocity": 94,
      "chip": "ym2612"
    },
    {
      "channel": 4,
      "note": 47,
      "start": 29.8076,
      "duration": 0.0772,
      "velocity": 94,
      "chip": "ym2612"
    },
    {
      "channel": 1,
      "note": 52,
      "start": 29.9297,
      "duration": 0.0792,
      "velocity": 103,
      "chip": "ym2612"
    },
    {
      "channel": 2,
      "note": 52,
      "start": 29.9315,
      "duration": 0.0777,
      "velocity": 94,
      "chip": "ym2612"
    },
    {
      "channel": 3,
      "note": 61,
      "start": 29.9386,
      "duration": 0.0499,
      "velocity": 127,
      "chip": "ym2612"
    },
    {
      "channel": 4,
      "note": 47,
      "start": 29.9404,
      "duration": 0.0695,
      "velocity": 94,
      "chip": "ym2612"
    },
    {
      "channel": 1,
      "note": 52,
      "start": 30.0531,
      "duration": 0.0805,
      "velocity": 103,
      "chip": "ym2612"
    },
    {
      "channel": 2,
      "note": 52,
      "start": 30.0549,
      "duration": 0.0788,
      "velocity": 94,
      "chip": "ym2612"
    },
    {
      "channel": 4,
      "note": 47,
      "start": 30.0573,
      "duration": 0.0772,
      "velocity": 94,
      "chip": "ym2612"
    },
    {
      "channel": 1,
      "note": 52,
      "start": 30.1777,
      "duration": 0.0804,
      "velocity": 103,
      "chip": "ym2612"
    },
    {
      "channel": 2,
      "note": 52,
      "start": 30.1795,
      "duration": 0.0788,
      "velocity": 94,
      "chip": "ym2612"
    },
    {
      "channel": 3,
      "note": 61,
      "start": 30.1816,
      "duration": 0.056,
      "velocity": 127,
      "chip": "ym2612"
    },
    {
      "channel": 4,
      "note": 47,
      "start": 30.1836,
      "duration": 0.0755,
      "velocity": 94,
      "chip": "ym2612"
    },
    {
      "channel": 1,
      "note": 52,
      "start": 30.3024,
      "duration": 0.0803,
      "velocity": 103,
      "chip": "ym2612"
    },
    {
      "channel": 2,
      "note": 52,
      "start": 30.3041,
      "duration": 0.0788,
      "velocity": 94,
      "chip": "ym2612"
    },
    {
      "channel": 4,
      "note": 47,
      "start": 30.3066,
      "duration": 0.0772,
      "velocity": 94,
      "chip": "ym2612"
    },
    {
      "channel": 1,
      "note": 52,
      "start": 30.4269,
      "duration": 0.0803,
      "velocity": 103,
      "chip": "ym2612"
    },
    {
      "channel": 2,
      "note": 52,
      "start": 30.4288,
      "duration": 0.0786,
      "velocity": 94,
      "chip": "ym2612"
    },
    {
      "channel": 3,
      "note": 62,
      "start": 30.4342,
      "duration": 0.0111,
      "velocity": 127,
      "chip": "ym2612"
    },
    {
      "channel": 4,
      "note": 47,
      "start": 30.436,
      "duration": 0.0721,
      "velocity": 94,
      "chip": "ym2612"
    },
    {
      "channel": 1,
      "note": 52,
      "start": 30.5511,
      "duration": 0.0804,
      "velocity": 103,
      "chip": "ym2612"
    },
    {
      "channel": 2,
      "note": 52,
      "start": 30.5529,
      "duration": 0.0787,
      "velocity": 94,
      "chip": "ym2612"
    },
    {
      "channel": 4,
      "note": 47,
      "start": 30.5553,
      "duration": 0.0772,
      "velocity": 94,
      "chip": "ym2612"
    },
    {
      "channel": 1,
      "note": 52,
      "start": 30.6756,
      "duration": 0.0804,
      "velocity": 103,
      "chip": "ym2612"
    },
    {
      "channel": 2,
      "note": 52,
      "start": 30.6774,
      "duration": 0.0788,
      "velocity": 94,
      "chip": "ym2612"
    },
    {
      "channel": 4,
      "note": 47,
      "start": 30.6799,
      "duration": 0.0771,
      "velocity": 94,
      "chip": "ym2612"
    },
    {
      "channel": 1,
      "note": 52,
      "start": 30.8003,
      "duration": 0.0803,
      "velocity": 103,
      "chip": "ym2612"
    },
    {
      "channel": 2,
      "note": 52,
      "start": 30.8021,
      "duration": 0.0788,
      "velocity": 94,
      "chip": "ym2612"
    },
    {
      "channel": 4,
      "note": 47,
      "start": 30.8045,
      "duration": 0.0771,
      "velocity": 94,
      "chip": "ym2612"
    },
    {
      "channel": 1,
      "note": 52,
      "start": 30.9263,
      "duration": 0.0793,
      "velocity": 103,
      "chip": "ym2612"
    },
    {
      "channel": 2,
      "note": 52,
      "start": 30.9282,
      "duration": 0.0777,
      "velocity": 94,
      "chip": "ym2612"
    },
    {
      "channel": 3,
      "note": 61,
      "start": 30.9337,
      "duration": 0.0515,
      "velocity": 127,
      "chip": "ym2612"
    },
    {
      "channel": 4,
      "note": 47,
      "start": 30.9356,
      "duration": 0.071,
      "velocity": 94,
      "chip": "ym2612"
    },
    {
      "channel": 1,
      "note": 52,
      "start": 31.05,
      "duration": 0.0803,
      "velocity": 103,
      "chip": "ym2612"
    },
    {
      "channel": 2,
      "note": 52,
      "start": 31.0518,
      "duration": 0.0788,
      "velocity": 94,
      "chip": "ym2612"
    },
    {
      "channel": 4,
      "note": 47,
      "start": 31.0542,
      "duration": 0.0771,
      "velocity": 94,
      "chip": "ym2612"
    },
    {
      "channel": 1,
      "note": 52,
      "start": 31.1751,
      "duration": 0.0798,
      "velocity": 103,
      "chip": "ym2612"
    },
    {
      "channel": 2,
      "note": 52,
      "start": 31.1769,
      "duration": 0.0782,
      "velocity": 94,
      "chip": "ym2612"
    },
    {
      "channel": 3,
      "note": 61,
      "start": 31.179,
      "duration": 0.0555,
      "velocity": 127,
      "chip": "ym2612"
    },
    {
      "channel": 4,
      "note": 47,
      "start": 31.1808,
      "duration": 0.0751,
      "velocity": 94,
      "chip": "ym2612"
    },
    {
      "channel": 1,
      "note": 52,
      "start": 31.2991,
      "duration": 0.0804,
      "velocity": 103,
      "chip": "ym2612"
    },
    {
      "channel": 2,
      "note": 52,
      "start": 31.301,
      "duration": 0.0786,
      "velocity": 94,
      "chip": "ym2612"
    },
    {
      "channel": 4,
      "note": 47,
      "start": 31.3034,
      "duration": 0.0771,
      "velocity": 94,
      "chip": "ym2612"
    },
    {
      "channel": 1,
      "note": 52,
      "start": 31.4236,
      "duration": 0.08,
      "velocity": 103,
      "chip": "ym2612"
    },
    {
      "channel": 2,
      "note": 52,
      "start": 31.4255,
      "duration": 0.0784,
      "velocity": 94,
      "chip": "ym2612"
    },
    {
      "channel": 3,
      "note": 62,
      "start": 31.4308,
      "duration": 0.0118,
      "velocity": 127,
      "chip": "ym2612"
    },
    {
      "channel": 4,
      "note": 47,
      "start": 31.4328,
      "duration": 0.0718,
      "velocity": 94,
      "chip": "ym2612"
    },
    {
      "channel": 1,
      "note": 52,
      "start": 31.5478,
      "duration": 0.0804,
      "velocity": 103,
      "chip": "ym2612"
    },
    {
      "channel": 2,
      "note": 52,
      "start": 31.5498,
      "duration": 0.0787,
      "velocity": 94,
      "chip": "ym2612"
    },
    {
      "channel": 4,
      "note": 47,
      "start": 31.5522,
      "duration": 0.077,
      "velocity": 94,
      "chip": "ym2612"
    },
    {
      "channel": 1,
      "note": 52,
      "start": 31.6724,
      "duration": 0.0804,
      "velocity": 103,
      "chip": "ym2612"
    },
    {
      "channel": 2,
      "note": 52,
      "start": 31.6743,
      "duration": 0.0788,
      "velocity": 94,
      "chip": "ym2612"
    },
    {
      "channel": 4,
      "note": 47,
      "start": 31.6766,
      "duration": 0.0772,
      "velocity": 94,
      "chip": "ym2612"
    },
    {
      "channel": 1,
      "note": 52,
      "start": 31.797,
      "duration": 0.0805,
      "velocity": 103,
      "chip": "ym2612"
    },
    {
      "channel": 2,
      "note": 52,
      "start": 31.7989,
      "duration": 0.0788,
      "velocity": 94,
      "chip": "ym2612"
    },
    {
      "channel": 4,
      "note": 47,
      "start": 31.8014,
      "duration": 0.0771,
      "velocity": 94,
      "chip": "ym2612"
    },
    {
      "channel": 0,
      "note": 64,
      "start": 31.9211,
      "duration": 0.0601,
      "velocity": 98,
      "chip": "ym2612"
    },
    {
      "channel": 1,
      "note": 52,
      "start": 31.924,
      "duration": 0.0797,
      "velocity": 103,
      "chip": "ym2612"
    },
    {
      "channel": 2,
      "note": 65,
      "start": 31.9261,
      "duration": 0.4499,
      "velocity": 94,
      "chip": "ym2612"
    },
    {
      "channel": 3,
      "note": 61,
      "start": 31.9332,
      "duration": 0.0485,
      "velocity": 127,
      "chip": "ym2612"
    },
    {
      "channel": 4,
      "note": 60,
      "start": 31.9354,
      "duration": 0.4414,
      "velocity": 94,
      "chip": "ym2612"
    },
    {
      "channel": 0,
      "note": 65,
      "start": 32.0034,
      "duration": 0.0607,
      "velocity": 98,
      "chip": "ym2612"
    },
    {
      "channel": 1,
      "note": 52,
      "start": 32.0462,
      "duration": 0.0804,
      "velocity": 103,
      "chip": "ym2612"
    },
    {
      "channel": 0,
      "note": 68,
      "start": 32.0865,
      "duration": 0.0607,
      "velocity": 98,
      "chip": "ym2612"
    },
    {
      "channel": 5,
      "note": 64,
      "start": 32.1089,
      "duration": 0.0663,
      "velocity": 98,
      "chip": "ym2612"
    },
    {
      "channel": 0,
      "note": 64,
      "start": 32.1697,
      "duration": 0.0606,
      "velocity": 98,
      "chip": "ym2612"
    },
    {
      "channel": 1,
      "note": 52,
      "start": 32.1727,
      "duration": 0.0802,
      "velocity": 103,
      "chip": "ym2612"
    },
    {
      "channel": 3,
      "note": 61,
      "start": 32.1749,
      "duration": 0.056,
      "velocity": 127,
      "chip": "ym2612"
    },
    {
      "channel": 5,
      "note": 65,
      "start": 32.1913,
      "duration": 0.0626,
      "velocity": 98,
      "chip": "ym2612"
    },
    {
      "channel": 0,
      "note": 65,
      "start": 32.2527,
      "duration": 0.0608,
      "velocity": 98,
      "chip": "ym2612"
    },
    {
      "channel": 5,
      "note": 68,
      "start": 32.2744,
      "duration": 0.0625,
      "velocity": 98,
      "chip": "ym2612"
    },
    {
      "channel": 1,
      "note": 52,
      "start": 32.2958,
      "duration": 0.08,
      "velocity": 103,
      "chip": "ym2612"
    },
    {
      "channel": 0,
      "note": 68,
      "start": 32.3357,
      "duration": 0.0616,
      "velocity": 98,
      "chip": "ym2612"
    },
    {
      "channel": 5,
      "note": 64,
      "start": 32.3576,
      "duration": 0.0733,
      "velocity": 98,
      "chip": "ym2612"
    },
    {
      "channel": 0,
      "note": 64,
      "start": 32.419,
      "duration": 0.0605,
      "velocity": 98,
      "chip": "ym2612"
    },
    {
      "channel": 1,
      "note": 52,
      "start": 32.4218,
      "duration": 0.0802,
      "velocity": 103,
      "chip": "ym2612"
    },
    {
      "channel": 2,
      "note": 67,
      "start": 32.4235,
      "duration": 0.2017,
      "velocity": 94,
      "chip": "ym2612"
    },
    {
      "channel": 3,
      "note": 62,
      "start": 32.4289,
      "duration": 0.01,
      "velocity": 127,
      "chip": "ym2612"
    },
    {
      "channel": 4,
      "note": 62,
      "start": 32.4305,
      "duration": 0.1954,
      "velocity": 94,
      "chip": "ym2612"
    },
    {
      "channel": 5,
      "note": 65,
      "start": 32.4407,
      "duration": 0.0623,
      "velocity": 98,
      "chip": "ym2612"
    },
    {
      "channel": 0,
      "note": 65,
      "start": 32.5019,
      "duration": 0.0607,
      "velocity": 98,
      "chip": "ym2612"
    },
    {
      "channel": 5,
      "note": 68,
      "start": 32.5236,
      "duration": 0.0625,
      "velocity": 98,
      "chip": "ym2612"
    },
    {
      "channel": 1,
      "note": 52,
      "start": 32.5446,
      "duration": 0.0804,
      "velocity": 103,
      "chip": "ym2612"
    },
    {
      "channel": 0,
      "note": 68,
      "start": 32.5849,
      "duration": 0.0607,
      "velocity": 98,
      "chip": "ym2612"
    },
    {
      "channel": 5,
      "note": 64,
      "start": 32.6068,
      "duration": 0.0688,
      "velocity": 98,
      "chip": "ym2612"
    },
    {
      "channel": 0,
      "note": 64,
      "start": 32.6682,
      "duration": 0.0605,
      "velocity": 98,
      "chip": "ym2612"
    },
    {
      "channel": 1,
      "note": 52,
      "start": 32.6711,
      "duration": 0.0802,
      "velocity": 103,
      "chip": "ym2612"
    },
    {
      "channel": 2,
      "note": 52,
      "start": 32.6729,
      "duration": 0.2015,
      "velocity": 94,
      "chip": "ym2612"
    },
    {
      "channel": 4,
      "note": 47,
      "start": 32.6753,
      "duration": 0.1998,
      "velocity": 94,
      "chip": "ym2612"
    },
    {
      "channel": 5,
      "note": 65,
      "start": 32.6897,
      "duration": 0.0626,
      "velocity": 98,
      "chip": "ym2612"
    },
    {
      "channel": 0,
      "note": 65,
      "start": 32.7511,
      "duration": 0.0607,
      "velocity": 98,
      "chip": "ym2612"
    },
    {
      "channel": 5,
      "note": 68,
      "start": 32.7728,
      "duration": 0.0625,
      "velocity": 98,
      "chip": "ym2612"
    },
    {
      "channel": 1,
      "note": 52,
      "start": 32.7938,
      "duration": 0.0804,
      "velocity": 103,
      "chip": "ym2612"
    },
    {
      "channel": 0,
      "note": 68,
      "start": 32.8341,
      "duration": 0.0607,
      "velocity": 98,
      "chip": "ym2612"
    },
    {
      "channel": 5,
      "note": 64,
      "start": 32.8563,
      "duration": 0.073,
      "velocity": 98,
      "chip": "ym2612"
    },
    {
      "channel": 0,
      "note": 64,
      "start": 32.9174,
      "duration": 0.0605,
      "velocity": 98,
      "chip": "ym2612"
    },
    {
      "channel": 1,
      "note": 52,
      "start": 32.9202,
      "duration": 0.0802,
      "velocity": 103,
      "chip": "ym2612"
    },
    {
      "channel": 2,
      "note": 52,
      "start": 32.9219,
      "duration": 0.2017,
      "velocity": 94,
      "chip": "ym2612"
    },
    {
      "channel": 3,
      "note": 61,
      "start": 32.9274,
      "duration": 0.051,
      "velocity": 127,
      "chip": "ym2612"
    },
    {
      "channel": 4,
      "note": 47,
      "start": 32.929,
      "duration": 0.1954,
      "velocity": 94,
      "chip": "ym2612"
    },
    {
      "channel": 5,
      "note": 65,
      "start": 32.9389,
      "duration": 0.0626,
      "velocity": 98,
      "chip": "ym2612"
    },
    {
      "channel": 0,
      "note": 65,
      "start": 33.0003,
      "duration": 0.0607,
      "velocity": 98,
      "chip": "ym2612"
    },
    {
      "channel": 5,
      "note": 68,
      "start": 33.022,
      "duration": 0.0625,
      "velocity": 98,
      "chip": "ym2612"
    },
    {
      "channel": 1,
      "note": 52,
      "start": 33.0429,
      "duration": 0.0804,
      "velocity": 103,
      "chip": "ym2612"
    },
    {
      "channel": 0,
      "note": 68,
      "start": 33.0834,
      "duration": 0.0607,
      "velocity": 98,
      "chip": "ym2612"
    },
    {
      "channel": 5,
      "note": 64,
      "start": 33.1052,
      "duration": 0.0699,
      "velocity": 98,
      "chip": "ym2612"
    },
    {
      "channel": 0,
      "note": 64,
      "start": 33.1666,
      "duration": 0.0605,
      "velocity": 98,
      "chip": "ym2612"
    },
    {
      "channel": 1,
      "note": 52,
      "start": 33.1695,
      "duration": 0.0802,
      "velocity": 103,
      "chip": "ym2612"
    },
    {
      "channel": 2,
      "note": 65,
      "start": 33.1711,
      "duration": 0.2017,
      "velocity": 94,
      "chip": "ym2612"
    },
    {
      "channel": 3,
      "note": 61,
      "start": 33.1732,
      "duration": 0.0544,
      "velocity": 127,
      "chip": "ym2612"
    },
    {
      "channel": 4,
      "note": 60,
      "start": 33.1748,
      "duration": 0.1987,
      "velocity": 94,
      "chip": "ym2612"
    },
    {
      "channel": 5,
      "note": 65,
      "start": 33.188,
      "duration": 0.0627,
      "velocity": 98,
      "chip": "ym2612"
    },
    {
      "channel": 0,
      "note": 65,
      "start": 33.2495,
      "duration": 0.0607,
      "velocity": 98,
      "chip": "ym2612"
    },
    {
      "channel": 5,
      "note": 68,
      "start": 33.2711,
      "duration": 0.0625,
      "velocity": 98,
      "chip": "ym2612"
    },
    {
      "channel": 1,
      "note": 52,
      "start": 33.2922,
      "duration": 0.0803,
      "velocity": 103,
      "chip": "ym2612"
    },
    {
      "channel": 0,
      "note": 68,
      "start": 33.3325,
      "duration": 0.0607,
      "velocity": 98,
      "chip": "ym2612"
    },
    {
      "channel": 5,
      "note": 64,
      "start": 33.3544,
      "duration": 0.0733,
      "velocity": 98,
      "chip": "ym2612"
    },
    {
      "channel": 0,
      "note": 64,
      "start": 33.4159,
      "duration": 0.0604,
      "velocity": 98,
      "chip": "ym2612"
    },
    {
      "channel": 1,
      "note": 52,
      "start": 33.4188,
      "duration": 0.08,
      "velocity": 103,
      "chip": "ym2612"
    },
    {
      "channel": 2,
      "note": 67,
      "start": 33.4204,
      "duration": 0.2015,
      "velocity": 94,
      "chip": "ym2612"
    },
    {
      "channel": 3,
      "note": 62,
      "start": 33.4258,
      "duration": 0.0099,
      "velocity": 127,
      "chip": "ym2612"
    },
    {
      "channel": 4,
      "note": 62,
      "start": 33.4274,
      "duration": 0.1953,
      "velocity": 94,
      "chip": "ym2612"
    },
    {
      "channel": 5,
      "note": 65,
      "start": 33.4375,
      "duration": 0.0624,
      "velocity": 98,
      "chip": "ym2612"
    },
    {
      "channel": 0,
      "note": 65,
      "start": 33.4986,
      "duration": 0.0607,
      "velocity": 98,
      "chip": "ym2612"
    },
    {
      "channel": 5,
      "note": 68,
      "start": 33.5213,
      "duration": 0.0616,
      "velocity": 98,
      "chip": "ym2612"
    },
    {
      "channel": 1,
      "note": 52,
      "start": 33.5414,
      "duration": 0.0804,
      "velocity": 103,
      "chip": "ym2612"
    },
    {
      "channel": 0,
      "note": 68,
      "start": 33.5817,
      "duration": 0.0607,
      "velocity": 98,
      "chip": "ym2612"
    },
    {
      "channel": 5,
      "note": 64,
      "start": 33.6036,
      "duration": 0.0688,
      "velocity": 98,
      "chip": "ym2612"
    },
    {
      "channel": 0,
      "note": 64,
      "start": 33.6649,
      "duration": 0.0606,
      "velocity": 98,
      "chip": "ym2612"
    },
    {
      "channel": 1,
      "note": 52,
      "start": 33.668,
      "duration": 0.0802,
      "velocity": 103,
      "chip": "ym2612"
    },
    {
      "channel": 2,
      "note": 52,
      "start": 33.6697,
      "duration": 0.2014,
      "velocity": 94,
      "chip": "ym2612"
    },
    {
      "channel": 4,
      "note": 47,
      "start": 33.6722,
      "duration": 0.1998,
      "velocity": 94,
      "chip": "ym2612"
    },
    {
      "channel": 5,
      "note": 65,
      "start": 33.6865,
      "duration": 0.0627,
      "velocity": 98,
      "chip": "ym2612"
    },
    {
      "channel": 0,
      "note": 65,
      "start": 33.7478,
      "duration": 0.0607,
      "velocity": 98,
      "chip": "ym2612"
    },
    {
      "channel": 5,
      "note": 68,
      "start": 33.7695,
      "duration": 0.0625,
      "velocity": 98,
      "chip": "ym2612"
    },
    {
      "channel": 1,
      "note": 52,
      "start": 33.7905,
      "duration": 0.0804,
      "velocity": 103,
      "chip": "ym2612"
    },
    {
      "channel": 0,
      "note": 68,
      "start": 33.8309,
      "duration": 0.0607,
      "velocity": 98,
      "chip": "ym2612"
    },
    {
      "channel": 5,
      "note": 64,
      "start": 33.8527,
      "duration": 0.0749,
      "velocity": 98,
      "chip": "ym2612"
    },
    {
      "channel": 0,
      "note": 64,
      "start": 33.9141,
      "duration": 0.0606,
      "velocity": 98,
      "chip": "ym2612"
    },
    {
      "channel": 1,
      "note": 52,
      "start": 33.9171,
      "duration": 0.0802,
      "velocity": 103,
      "chip": "ym2612"
    },
    {
      "channel": 2,
      "note": 52,
      "start": 33.9188,
      "duration": 0.2015,
      "velocity": 94,
      "chip": "ym2612"
    },
    {
      "channel": 3,
      "note": 61,
      "start": 33.9258,
      "duration": 0.0494,
      "velocity": 127,
      "chip": "ym2612"
    },
    {
      "channel": 4,
      "note": 47,
      "start": 33.9274,
      "duration": 0.1937,
      "velocity": 94,
      "chip": "ym2612"
    },
    {
      "channel": 5,
      "note": 65,
      "start": 33.9357,
      "duration": 0.0626,
      "velocity": 98,
      "chip": "ym2612"
    },
    {
      "channel": 0,
      "note": 65,
      "start": 33.997,
      "duration": 0.0607,
      "velocity": 98,
      "chip": "ym2612"
    },
    {
      "channel": 5,
      "note": 68,
      "start": 34.0188,
      "duration": 0.0629,
      "velocity": 98,
      "chip": "ym2612"
    },
    {
      "channel": 1,
      "note": 52,
      "start": 34.0397,
      "duration": 0.0804,
      "velocity": 103,
      "chip": "ym2612"
    },
    {
      "channel": 0,
      "note": 68,
      "start": 34.0805,
      "duration": 0.0603,
      "velocity": 98,
      "chip": "ym2612"
    },
    {
      "channel": 5,
      "note": 64,
      "start": 34.102,
      "duration": 0.07,
      "velocity": 98,
      "chip": "ym2612"
    },
    {
      "channel": 0,
      "note": 64,
      "start": 34.1633,
      "duration": 0.0606,
      "velocity": 98,
      "chip": "ym2612"
    },
    {
      "channel": 1,
      "note": 52,
      "start": 34.1663,
      "duration": 0.0801,
      "velocity": 103,
      "chip": "ym2612"
    },
    {
      "channel": 2,
      "note": 65,
      "start": 34.168,
      "duration": 0.2016,
      "velocity": 94,
      "chip": "ym2612"
    },
    {
      "channel": 3,
      "note": 61,
      "start": 34.17,
      "duration": 0.0543,
      "velocity": 127,
      "chip": "ym2612"
    },
    {
      "channel": 4,
      "note": 60,
      "start": 34.1717,
      "duration": 0.1986,
      "velocity": 94,
      "chip": "ym2612"
    },
    {
      "channel": 5,
      "note": 65,
      "start": 34.1857,
      "duration": 0.0618,
      "velocity": 98,
      "chip": "ym2612"
    },
    {
      "channel": 0,
      "note": 65,
      "start": 34.2461,
      "duration": 0.0607,
      "velocity": 98,
      "chip": "ym2612"
    },
    {
      "channel": 5,
      "note": 68,
      "start": 34.268,
      "duration": 0.0625,
      "velocity": 98,
      "chip": "ym2612"
    },
    {
      "channel": 1,
      "note": 52,
      "start": 34.2889,
      "duration": 0.0805,
      "velocity": 103,
      "chip": "ym2612"
    },
    {
      "channel": 0,
      "note": 68,
      "start": 34.3292,
      "duration": 0.0608,
      "velocity": 98,
      "chip": "ym2612"
    },
    {
      "channel": 5,
      "note": 64,
      "start": 34.3512,
      "duration": 0.0732,
      "velocity": 98,
      "chip": "ym2612"
    },
    {
      "channel": 0,
      "note": 69,
      "start": 34.4124,
      "duration": 0.0606,
      "velocity": 98,
      "chip": "ym2612"
    },
    {
      "channel": 1,
      "note": 52,
      "start": 34.4154,
      "duration": 0.0802,
      "velocity": 103,
      "chip": "ym2612"
    },
    {
      "channel": 2,
      "note": 67,
      "start": 34.4171,
      "duration": 0.2016,
      "velocity": 94,
      "chip": "ym2612"
    },
    {
      "channel": 3,
      "note": 62,
      "start": 34.4225,
      "duration": 0.0099,
      "velocity": 127,
      "chip": "ym2612"
    },
    {
      "channel": 4,
      "note": 62,
      "start": 34.4241,
      "duration": 0.1954,
      "velocity": 94,
      "chip": "ym2612"
    },
    {
      "channel": 5,
      "note": 65,
      "start": 34.4343,
      "duration": 0.0623,
      "velocity": 98,
      "chip": "ym2612"
    },
    {
      "channel": 0,
      "note": 68,
      "start": 34.4954,
      "duration": 0.0607,
      "velocity": 98,
      "chip": "ym2612"
    },
    {
      "channel": 5,
      "note": 68,
      "start": 34.5171,
      "duration": 0.0624,
      "velocity": 98,
      "chip": "ym2612"
    },
    {
      "channel": 1,
      "note": 52,
      "start": 34.5381,
      "duration": 0.0804,
      "velocity": 103,
      "chip": "ym2612"
    },
    {
      "channel": 0,
      "note": 69,
      "start": 34.5784,
      "duration": 0.0609,
      "velocity": 98,
      "chip": "ym2612"
    },
    {
      "channel": 5,
      "note": 69,
      "start": 34.6003,
      "duration": 0.0686,
      "velocity": 98,
      "chip": "ym2612"
    },
    {
      "channel": 0,
      "note": 71,
      "start": 34.6615,
      "duration": 0.0607,
      "velocity": 98,
      "chip": "ym2612"
    },
    {
      "channel": 1,
      "note": 52,
      "start": 34.6644,
      "duration": 0.081,
      "velocity": 103,
      "chip": "ym2612"
    },
    {
      "channel": 2,
      "note": 52,
      "start": 34.6663,
      "duration": 0.2016,
      "velocity": 94,
      "chip": "ym2612"
    },
    {
      "channel": 4,
      "note": 47,
      "start": 34.6687,
      "duration": 0.2,
      "velocity": 94,
      "chip": "ym2612"
    },
    {
      "channel": 5,
      "note": 68,
      "start": 34.6832,
      "duration": 0.0632,
      "velocity": 98,
      "chip": "ym2612"
    },
    {
      "channel": 0,
      "note": 72,
      "start": 34.7452,
      "duration": 0.0601,
      "velocity": 98,
      "chip": "ym2612"
    },
    {
      "channel": 5,
      "note": 69,
      "start": 34.7663,
      "duration": 0.0625,
      "velocity": 98,
      "chip": "ym2612"
    },
    {
      "channel": 1,
      "note": 52,
      "start": 34.7873,
      "duration": 0.0804,
      "velocity": 103,
      "chip": "ym2612"
    },
    {
      "channel": 0,
      "note": 71,
      "start": 34.8276,
      "duration": 0.0607,
      "velocity": 98,
      "chip": "ym2612"
    },
    {
      "channel": 5,
      "note": 71,
      "start": 34.8493,
      "duration": 0.0734,
      "velocity": 98,
      "chip": "ym2612"
    },
    {
      "channel": 0,
      "note": 72,
      "start": 34.9107,
      "duration": 0.0607,
      "velocity": 98,
      "chip": "ym2612"
    },
    {
      "channel": 1,
      "note": 52,
      "start": 34.9136,
      "duration": 0.0804,
      "velocity": 103,
      "chip": "ym2612"
    },
    {
      "channel": 2,
      "note": 67,
      "start": 34.9153,
      "duration": 0.2018,
      "velocity": 94,
      "chip": "ym2612"
    },
    {
      "channel": 3,
      "note": 61,
      "start": 34.9208,
      "duration": 0.0511,
      "velocity": 127,
      "chip": "ym2612"
    },
    {
      "channel": 4,
      "note": 62,
      "start": 34.9225,
      "duration": 0.1954,
      "velocity": 94,
      "chip": "ym2612"
    },
    {
      "channel": 5,
      "note": 72,
      "start": 34.9325,
      "duration": 0.0625,
      "velocity": 98,
      "chip": "ym2612"
    },
    {
      "channel": 0,
      "note": 74,
      "start": 34.9937,
      "duration": 0.0607,
      "velocity": 98,
      "chip": "ym2612"
    },
    {
      "channel": 5,
      "note": 71,
      "start": 35.0155,
      "duration": 0.0624,
      "velocity": 98,
      "chip": "ym2612"
    },
    {
      "channel": 1,
      "note": 52,
      "start": 35.0365,
      "duration": 0.0804,
      "velocity": 103,
      "chip": "ym2612"
    },
    {
      "channel": 0,
      "note": 71,
      "start": 35.0768,
      "duration": 0.0607,
      "velocity": 98,
      "chip": "ym2612"
    },
    {
      "channel": 5,
      "note": 72,
      "start": 35.0986,
      "duration": 0.07,
      "velocity": 98,
      "chip": "ym2612"
    },
    {
      "channel": 0,
      "note": 72,
      "start": 35.1599,
      "duration": 0.0607,
      "velocity": 98,
      "chip": "ym2612"
    },
    {
      "channel": 1,
      "note": 52,
      "start": 35.1628,
      "duration": 0.0803,
      "velocity": 103,
      "chip": "ym2612"
    },
    {
      "channel": 2,
      "note": 52,
      "start": 35.1644,
      "duration": 0.202,
      "velocity": 94,
      "chip": "ym2612"
    },
    {
      "channel": 3,
      "note": 61,
      "start": 35.1667,
      "duration": 0.0544,
      "velocity": 127,
      "chip": "ym2612"
    },
    {
      "channel": 4,
      "note": 47,
      "start": 35.1683,
      "duration": 0.1988,
      "velocity": 94,
      "chip": "ym2612"
    },
    {
      "channel": 5,
      "note": 74,
      "start": 35.1817,
      "duration": 0.0625,
      "velocity": 98,
      "chip": "ym2612"
    },
    {
      "channel": 0,
      "note": 74,
      "start": 35.2429,
      "duration": 0.0612,
      "velocity": 98,
      "chip": "ym2612"
    },
    {
      "channel": 5,
      "note": 71,
      "start": 35.2646,
      "duration": 0.0625,
      "velocity": 98,
      "chip": "ym2612"
    },
    {
      "channel": 1,
      "note": 52,
      "start": 35.2857,
      "duration": 0.0804,
      "velocity": 103,
      "chip": "ym2612"
    },
    {
      "channel": 0,
      "note": 71,
      "start": 35.326,
      "duration": 0.0607,
      "velocity": 98,
      "chip": "ym2612"
    },
    {
      "channel": 5,
      "note": 72,
      "start": 35.3477,
      "duration": 0.0746,
      "velocity": 98,
      "chip": "ym2612"
    },
    {
      "channel": 0,
      "note": 77,
      "start": 35.4104,
      "duration": 0.0594,
      "velocity": 98,
      "chip": "ym2612"
    },
    {
      "channel": 1,
      "note": 52,
      "start": 35.4133,
      "duration": 0.0791,
      "velocity": 103,
      "chip": "ym2612"
    },
    {
      "channel": 2,
      "note": 65,
      "start": 35.415,
      "duration": 0.2004,
      "velocity": 94,
      "chip": "ym2612"
    },
    {
      "channel": 3,
      "note": 62,
      "start": 35.4204,
      "duration": 0.0087,
      "velocity": 127,
      "chip": "ym2612"
    },
    {
      "channel": 4,
      "note": 60,
      "start": 35.4221,
      "duration": 0.1942,
      "velocity": 94,
      "chip": "ym2612"
    },
    {
      "channel": 5,
      "note": 74,
      "start": 35.431,
      "duration": 0.0624,
      "velocity": 98,
      "chip": "ym2612"
    },
    {
      "channel": 0,
      "note": 76,
      "start": 35.4921,
      "duration": 0.0607,
      "velocity": 98,
      "chip": "ym2612"
    },
    {
      "channel": 5,
      "note": 71,
      "start": 35.5138,
      "duration": 0.0625,
      "velocity": 98,
      "chip": "ym2612"
    },
    {
      "channel": 1,
      "note": 52,
      "start": 35.5349,
      "duration": 0.0803,
      "velocity": 103,
      "chip": "ym2612"
    },
    {
      "channel": 0,
      "note": 74,
      "start": 35.5752,
      "duration": 0.0607,
      "velocity": 98,
      "chip": "ym2612"
    },
    {
      "channel": 5,
      "note": 77,
      "start": 35.5969,
      "duration": 0.0685,
      "velocity": 98,
      "chip": "ym2612"
    },
    {
      "channel": 0,
      "note": 71,
      "start": 35.6582,
      "duration": 0.0607,
      "velocity": 98,
      "chip": "ym2612"
    },
    {
      "channel": 1,
      "note": 52,
      "start": 35.6612,
      "duration": 0.0804,
      "velocity": 103,
      "chip": "ym2612"
    },
    {
      "channel": 2,
      "note": 64,
      "start": 35.6628,
      "duration": 0.2021,
      "velocity": 94,
      "chip": "ym2612"
    },
    {
      "channel": 4,
      "note": 59,
      "start": 35.6651,
      "duration": 0.2006,
      "velocity": 94,
      "chip": "ym2612"
    },
    {
      "channel": 5,
      "note": 76,
      "start": 35.68,
      "duration": 0.0626,
      "velocity": 98,
      "chip": "ym2612"
    },
    {
      "channel": 0,
      "note": 72,
      "start": 35.7413,
      "duration": 0.0608,
      "velocity": 98,
      "chip": "ym2612"
    },
    {
      "channel": 5,
      "note": 74,
      "start": 35.7631,
      "duration": 0.0625,
      "velocity": 98,
      "chip": "ym2612"
    },
    {
      "channel": 1,
      "note": 52,
      "start": 35.7841,
      "duration": 0.0806,
      "velocity": 103,
      "chip": "ym2612"
    },
    {
      "channel": 0,
      "note": 69,
      "start": 35.8244,
      "duration": 0.0607,
      "velocity": 98,
      "chip": "ym2612"
    },
    {
      "channel": 5,
      "note": 71,
      "start": 35.8461,
      "duration": 0.0758,
      "velocity": 98,
      "chip": "ym2612"
    },
    {
      "channel": 0,
      "note": 71,
      "start": 35.9075,
      "duration": 0.0615,
      "velocity": 98,
      "chip": "ym2612"
    },
    {
      "channel": 1,
      "note": 52,
      "start": 35.9103,
      "duration": 0.0804,
      "velocity": 103,
      "chip": "ym2612"
    },
    {
      "channel": 2,
      "note": 52,
      "start": 35.9124,
      "duration": 0.0785,
      "velocity": 94,
      "chip": "ym2612"
    },
    {
      "channel": 3,
      "note": 61,
      "start": 35.9195,
      "duration": 0.05,
      "velocity": 127,
      "chip": "ym2612"
    },
    {
      "channel": 4,
      "note": 47,
      "start": 35.9217,
      "duration": 0.07,
      "velocity": 94,
      "chip": "ym2612"
    },
    {
      "channel": 5,
      "note": 72,
      "start": 35.9299,
      "duration": 0.062,
      "velocity": 98,
      "chip": "ym2612"
    },
    {
      "channel": 0,
      "note": 72,
      "start": 35.9905,
      "duration": 0.0607,
      "velocity": 98,
      "chip": "ym2612"
    },
    {
      "channel": 5,
      "note": 69,
      "start": 36.0122,
      "duration": 0.0625,
      "velocity": 98,
      "chip": "ym2612"
    },
    {
      "channel": 1,
      "note": 52,
      "start": 36.0333,
      "duration": 0.0803,
      "velocity": 103,
      "chip": "ym2612"
    },
    {
      "channel": 2,
      "note": 52,
      "start": 36.0351,
      "duration": 0.0788,
      "velocity": 94,
      "chip": "ym2612"
    },
    {
      "channel": 4,
      "note": 47,
      "start": 36.0375,
      "duration": 0.0772,
      "velocity": 94,
      "chip": "ym2612"
    },
    {
      "channel": 0,
      "note": 74,
      "start": 36.0736,
      "duration": 0.0607,
      "velocity": 98,
      "chip": "ym2612"
    },
    {
      "channel": 5,
      "note": 71,
      "start": 36.0953,
      "duration": 0.0703,
      "velocity": 98,
      "chip": "ym2612"
    },
    {
      "channel": 0,
      "note": 72,
      "start": 36.1566,
      "duration": 0.0607,
      "velocity": 98,
      "chip": "ym2612"
    },
    {
      "channel": 1,
      "note": 52,
      "start": 36.1596,
      "duration": 0.0803,
      "velocity": 103,
      "chip": "ym2612"
    },
    {
      "channel": 2,
      "note": 52,
      "start": 36.1613,
      "duration": 0.0788,
      "velocity": 94,
      "chip": "ym2612"
    },
    {
      "channel": 3,
      "note": 61,
      "start": 36.1634,
      "duration": 0.0544,
      "velocity": 127,
      "chip": "ym2612"
    },
    {
      "channel": 4,
      "note": 47,
      "start": 36.1654,
      "duration": 0.0756,
      "velocity": 94,
      "chip": "ym2612"
    },
    {
      "channel": 5,
      "note": 72,
      "start": 36.1784,
      "duration": 0.0627,
      "velocity": 98,
      "chip": "ym2612"
    },
    {
      "channel": 0,
      "note": 71,
      "start": 36.2397,
      "duration": 0.0607,
      "velocity": 98,
      "chip": "ym2612"
    },
    {
      "channel": 5,
      "note": 74,
      "start": 36.2614,
      "duration": 0.0625,
      "velocity": 98,
      "chip": "ym2612"
    },
    {
      "channel": 1,
      "note": 52,
      "start": 36.2825,
      "duration": 0.0804,
      "velocity": 103,
      "chip": "ym2612"
    },
    {
      "channel": 2,
      "note": 52,
      "start": 36.2844,
      "duration": 0.0787,
      "velocity": 94,
      "chip": "ym2612"
    },
    {
      "channel": 4,
      "note": 47,
      "start": 36.2868,
      "duration": 0.0771,
      "velocity": 94,
      "chip": "ym2612"
    },
    {
      "channel": 0,
      "note": 69,
      "start": 36.3228,
      "duration": 0.0607,
      "velocity": 98,
      "chip": "ym2612"
    },
    {
      "channel": 5,
      "note": 72,
      "start": 36.3445,
      "duration": 0.0736,
      "velocity": 98,
      "chip": "ym2612"
    },
    {
      "channel": 0,
      "note": 68,
      "start": 36.4058,
      "duration": 0.0607,
      "velocity": 98,
      "chip": "ym2612"
    },
    {
      "channel": 1,
      "note": 52,
      "start": 36.4087,
      "duration": 0.0803,
      "velocity": 103,
      "chip": "ym2612"
    },
    {
      "channel": 2,
      "note": 52,
      "start": 36.4105,
      "duration": 0.0788,
      "velocity": 94,
      "chip": "ym2612"
    },
    {
      "channel": 3,
      "note": 62,
      "start": 36.4159,
      "duration": 0.0102,
      "velocity": 127,
      "chip": "ym2612"
    },
    {
      "channel": 4,
      "note": 47,
      "start": 36.4178,
      "duration": 0.0723,
      "velocity": 94,
      "chip": "ym2612"
    },
    {
      "channel": 5,
      "note": 71,
      "start": 36.4278,
      "duration": 0.0625,
      "velocity": 98,
      "chip": "ym2612"
    },
    {
      "channel": 0,
      "note": 65,
      "start": 36.4889,
      "duration": 0.0608,
      "velocity": 98,
      "chip": "ym2612"
    },
    {
      "channel": 5,
      "note": 69,
      "start": 36.5106,
      "duration": 0.0625,
      "velocity": 98,
      "chip": "ym2612"
    },
    {
      "channel": 1,
      "note": 52,
      "start": 36.5322,
      "duration": 0.0798,
      "velocity": 103,
      "chip": "ym2612"
    },
    {
      "channel": 2,
      "note": 52,
      "start": 36.5342,
      "duration": 0.078,
      "velocity": 94,
      "chip": "ym2612"
    },
    {
      "channel": 4,
      "note": 47,
      "start": 36.5365,
      "duration": 0.0765,
      "velocity": 94,
      "chip": "ym2612"
    },
    {
      "channel": 0,
      "note": 64,
      "start": 36.572,
      "duration": 0.0607,
      "velocity": 98,
      "chip": "ym2612"
    },
    {
      "channel": 5,
      "note": 68,
      "start": 36.5937,
      "duration": 0.0687,
      "velocity": 98,
      "chip": "ym2612"
    },
    {
      "channel": 0,
      "note": 62,
      "start": 36.655,
      "duration": 0.0607,
      "velocity": 98,
      "chip": "ym2612"
    },
    {
      "channel": 1,
      "note": 52,
      "start": 36.6579,
      "duration": 0.0804,
      "velocity": 103,
      "chip": "ym2612"
    },
    {
      "channel": 2,
      "note": 52,
      "start": 36.6597,
      "duration": 0.0788,
      "velocity": 94,
      "chip": "ym2612"
    },
    {
      "channel": 4,
      "note": 47,
      "start": 36.6621,
      "duration": 0.0772,
      "velocity": 94,
      "chip": "ym2612"
    },
    {
      "channel": 5,
      "note": 65,
      "start": 36.6767,
      "duration": 0.0628,
      "velocity": 98,
      "chip": "ym2612"
    },
    {
      "channel": 0,
      "note": 64,
      "start": 36.738,
      "duration": 0.0607,
      "velocity": 98,
      "chip": "ym2612"
    },
    {
      "channel": 5,
      "note": 64,
      "start": 36.7598,
      "duration": 0.0625,
      "velocity": 98,
      "chip": "ym2612"
    },
    {
      "channel": 1,
      "note": 52,
      "start": 36.7809,
      "duration": 0.0804,
      "velocity": 103,
      "chip": "ym2612"
    },
    {
      "channel": 2,
      "note": 52,
      "start": 36.7827,
      "duration": 0.0787,
      "velocity": 94,
      "chip": "ym2612"
    },
    {
      "channel": 4,
      "note": 47,
      "start": 36.7852,
      "duration": 0.077,
      "velocity": 94,
      "chip": "ym2612"
    },
    {
      "channel": 0,
      "note": 65,
      "start": 36.8211,
      "duration": 0.0607,
      "velocity": 98,
      "chip": "ym2612"
    },
    {
      "channel": 5,
      "note": 62,
      "start": 36.8429,
      "duration": 0.0737,
      "velocity": 98,
      "chip": "ym2612"
    },
    {
      "channel": 0,
      "note": 68,
      "start": 36.9042,
      "duration": 0.0607,
      "velocity": 98,
      "chip": "ym2612"
    },
    {
      "channel": 1,
      "note": 52,
      "start": 36.9071,
      "duration": 0.0804,
      "velocity": 103,
      "chip": "ym2612"
    },
    {
      "channel": 2,
      "note": 52,
      "start": 36.9089,
      "duration": 0.0788,
      "velocity": 94,
      "chip": "ym2612"
    },
    {
      "channel": 3,
      "note": 61,
      "start": 36.9144,
      "duration": 0.0511,
      "velocity": 127,
      "chip": "ym2612"
    },
    {
      "channel": 4,
      "note": 47,
      "start": 36.9164,
      "duration": 0.0721,
      "velocity": 94,
      "chip": "ym2612"
    },
    {
      "channel": 5,
      "note": 64,
      "start": 36.926,
      "duration": 0.0627,
      "velocity": 98,
      "chip": "ym2612"
    },
    {
      "channel": 0,
      "note": 64,
      "start": 36.9873,
      "duration": 0.0607,
      "velocity": 98,
      "chip": "ym2612"
    },
    {
      "channel": 5,
      "note": 65,
      "start": 37.009,
      "duration": 0.0625,
      "velocity": 98,
      "chip": "ym2612"
    },
    {
      "channel": 1,
      "note": 52,
      "start": 37.03,
      "duration": 0.0804,
      "velocity": 103,
      "chip": "ym2612"
    },
    {
      "channel": 2,
      "note": 52,
      "start": 37.032,
      "duration": 0.0787,
      "velocity": 94,
      "chip": "ym2612"
    },
    {
      "channel": 4,
      "note": 47,
      "start": 37.0344,
      "duration": 0.077,
      "velocity": 94,
      "chip": "ym2612"
    },
    {
      "channel": 0,
      "note": 62,
      "start": 37.0703,
      "duration": 0.0607,
      "velocity": 98,
      "chip": "ym2612"
    },
    {
      "channel": 5,
      "note": 68,
      "start": 37.0924,
      "duration": 0.0698,
      "velocity": 98,
      "chip": "ym2612"
    },
    {
      "channel": 0,
      "note": 64,
      "start": 37.1534,
      "duration": 0.0608,
      "velocity": 98,
      "chip": "ym2612"
    },
    {
      "channel": 1,
      "note": 52,
      "start": 37.1563,
      "duration": 0.0803,
      "velocity": 103,
      "chip": "ym2612"
    },
    {
      "channel": 2,
      "note": 52,
      "start": 37.1581,
      "duration": 0.0788,
      "velocity": 94,
      "chip": "ym2612"
    },
    {
      "channel": 3,
      "note": 61,
      "start": 37.1602,
      "duration": 0.0544,
      "velocity": 127,
      "chip": "ym2612"
    },
    {
      "channel": 4,
      "note": 47,
      "start": 37.162,
      "duration": 0.0756,
      "velocity": 94,
      "chip": "ym2612"
    },
    {
      "channel": 5,
      "note": 64,
      "start": 37.1751,
      "duration": 0.0627,
      "velocity": 98,
      "chip": "ym2612"
    },
    {
      "channel": 0,
      "note": 65,
      "start": 37.2365,
      "duration": 0.0607,
      "velocity": 98,
      "chip": "ym2612"
    },
    {
      "channel": 5,
      "note": 62,
      "start": 37.2582,
      "duration": 0.0625,
      "velocity": 98,
      "chip": "ym2612"
    },
    {
      "channel": 1,
      "note": 52,
      "start": 37.2792,
      "duration": 0.0804,
      "velocity": 103,
      "chip": "ym2612"
    },
    {
      "channel": 2,
      "note": 52,
      "start": 37.2811,
      "duration": 0.0788,
      "velocity": 94,
      "chip": "ym2612"
    },
    {
      "channel": 4,
      "note": 47,
      "start": 37.2835,
      "duration": 0.077,
      "velocity": 94,
      "chip": "ym2612"
    },
    {
      "channel": 0,
      "note": 68,
      "start": 37.3195,
      "duration": 0.0607,
      "velocity": 98,
      "chip": "ym2612"
    },
    {
      "channel": 5,
      "note": 64,
      "start": 37.3412,
      "duration": 0.0735,
      "velocity": 98,
      "chip": "ym2612"
    },
    {
      "channel": 0,
      "note": 69,
      "start": 37.4026,
      "duration": 0.0607,
      "velocity": 98,
      "chip": "ym2612"
    },
    {
      "channel": 1,
      "note": 52,
      "start": 37.4055,
      "duration": 0.0804,
      "velocity": 103,
      "chip": "ym2612"
    },
    {
      "channel": 2,
      "note": 52,
      "start": 37.4073,
      "duration": 0.0788,
      "velocity": 94,
      "chip": "ym2612"
    },
    {
      "channel": 3,
      "note": 62,
      "start": 37.4126,
      "duration": 0.01,
      "velocity": 127,
      "chip": "ym2612"
    },
    {
      "channel": 4,
      "note": 47,
      "start": 37.4145,
      "duration": 0.0724,
      "velocity": 94,
      "chip": "ym2612"
    },
    {
      "channel": 5,
      "note": 65,
      "start": 37.4245,
      "duration": 0.0626,
      "velocity": 98,
      "chip": "ym2612"
    },
    {
      "channel": 0,
      "note": 71,
      "start": 37.4856,
      "duration": 0.0607,
      "velocity": 98,
      "chip": "ym2612"
    },
    {
      "channel": 5,
      "note": 68,
      "start": 37.5074,
      "duration": 0.0625,
      "velocity": 98,
      "chip": "ym2612"
    },
    {
      "channel": 1,
      "note": 52,
      "start": 37.5284,
      "duration": 0.0804,
      "velocity": 103,
      "chip": "ym2612"
    },
    {
      "channel": 2,
      "note": 52,
      "start": 37.5302,
      "duration": 0.0788,
      "velocity": 94,
      "chip": "ym2612"
    },
    {
      "channel": 4,
      "note": 47,
      "start": 37.5327,
      "duration": 0.077,
      "velocity": 94,
      "chip": "ym2612"
    },
    {
      "channel": 0,
      "note": 69,
      "start": 37.5687,
      "duration": 0.0607,
      "velocity": 98,
      "chip": "ym2612"
    },
    {
      "channel": 5,
      "note": 69,
      "start": 37.5905,
      "duration": 0.0689,
      "velocity": 98,
      "chip": "ym2612"
    },
    {
      "channel": 0,
      "note": 68,
      "start": 37.6521,
      "duration": 0.0605,
      "velocity": 98,
      "chip": "ym2612"
    },
    {
      "channel": 1,
      "note": 52,
      "start": 37.6549,
      "duration": 0.0802,
      "velocity": 103,
      "chip": "ym2612"
    },
    {
      "channel": 2,
      "note": 52,
      "start": 37.6568,
      "duration": 0.0785,
      "velocity": 94,
      "chip": "ym2612"
    },
    {
      "channel": 4,
      "note": 47,
      "start": 37.6591,
      "duration": 0.0769,
      "velocity": 94,
      "chip": "ym2612"
    },
    {
      "channel": 5,
      "note": 71,
      "start": 37.6735,
      "duration": 0.0628,
      "velocity": 98,
      "chip": "ym2612"
    },
    {
      "channel": 0,
      "note": 65,
      "start": 37.7348,
      "duration": 0.0607,
      "velocity": 98,
      "chip": "ym2612"
    },
    {
      "channel": 5,
      "note": 69,
      "start": 37.7573,
      "duration": 0.0618,
      "velocity": 98,
      "chip": "ym2612"
    },
    {
      "channel": 1,
      "note": 52,
      "start": 37.7776,
      "duration": 0.0803,
      "velocity": 103,
      "chip": "ym2612"
    },
    {
      "channel": 2,
      "note": 52,
      "start": 37.7794,
      "duration": 0.0788,
      "velocity": 94,
      "chip": "ym2612"
    },
    {
      "channel": 4,
      "note": 47,
      "start": 37.7819,
      "duration": 0.0771,
      "velocity": 94,
      "chip": "ym2612"
    },
    {
      "channel": 0,
      "note": 68,
      "start": 37.818,
      "duration": 0.0607,
      "velocity": 98,
      "chip": "ym2612"
    },
    {
      "channel": 5,
      "note": 68,
      "start": 37.8397,
      "duration": 0.0757,
      "velocity": 98,
      "chip": "ym2612"
    },
    {
      "channel": 0,
      "note": 68,
      "start": 37.9015,
      "duration": 5.9577,
      "velocity": 98,
      "chip": "ym2612"
    },
    {
      "channel": 1,
      "note": 52,
      "start": 37.9044,
      "duration": 0.0787,
      "velocity": 103,
      "chip": "ym2612"
    },
    {
      "channel": 2,
      "note": 52,
      "start": 37.9062,
      "duration": 0.0771,
      "velocity": 94,
      "chip": "ym2612"
    },
    {
      "channel": 3,
      "note": 61,
      "start": 37.9132,
      "duration": 0.0493,
      "velocity": 127,
      "chip": "ym2612"
    },
    {
      "channel": 4,
      "note": 47,
      "start": 37.9151,
      "duration": 0.069,
      "velocity": 94,
      "chip": "ym2612"
    },
    {
      "channel": 5,
      "note": 65,
      "start": 37.9232,
      "duration": 0.0611,
      "velocity": 98,
      "chip": "ym2612"
    },
    {
      "channel": 5,
      "note": 68,
      "start": 38.0062,
      "duration": 0.0609,
      "velocity": 98,
      "chip": "ym2612"
    },
    {
      "channel": 1,
      "note": 52,
      "start": 38.0272,
      "duration": 0.0804,
      "velocity": 103,
      "chip": "ym2612"
    },
    {
      "channel": 2,
      "note": 52,
      "start": 38.0291,
      "duration": 0.0788,
      "velocity": 94,
      "chip": "ym2612"
    },
    {
      "channel": 4,
      "note": 47,
      "start": 38.0315,
      "duration": 0.0772,
      "velocity": 94,
      "chip": "ym2612"
    },
    {
      "channel": 5,
      "note": 68,
      "start": 38.0897,
      "duration": 5.8152,
      "velocity": 98,
      "chip": "ym2612"
    },
    {
      "channel": 1,
      "note": 52,
      "start": 38.1514,
      "duration": 0.0804,
      "velocity": 103,
      "chip": "ym2612"
    },
    {
      "channel": 2,
      "note": 52,
      "start": 38.1533,
      "duration": 0.0788,
      "velocity": 94,
      "chip": "ym2612"
    },
    {
      "channel": 3,
      "note": 61,
      "start": 38.1554,
      "duration": 0.0561,
      "velocity": 127,
      "chip": "ym2612"
    },
    {
      "channel": 4,
      "note": 47,
      "start": 38.1571,
      "duration": 0.0757,
      "velocity": 94,
      "chip": "ym2612"
    },
    {
      "channel": 1,
      "note": 52,
      "start": 38.276,
      "duration": 0.0803,
      "velocity": 103,
      "chip": "ym2612"
    },
    {
      "channel": 2,
      "note": 52,
      "start": 38.2778,
      "duration": 0.0788,
      "velocity": 94,
      "chip": "ym2612"
    },
    {
      "channel": 4,
      "note": 47,
      "start": 38.2802,
      "duration": 0.0771,
      "velocity": 94,
      "chip": "ym2612"
    },
    {
      "channel": 1,
      "note": 52,
      "start": 38.4007,
      "duration": 0.0803,
      "velocity": 103,
      "chip": "ym2612"
    },
    {
      "channel": 2,
      "note": 52,
      "start": 38.4024,
      "duration": 0.0787,
      "velocity": 94,
      "chip": "ym2612"
    },
    {
      "channel": 3,
      "note": 62,
      "start": 38.4078,
      "duration": 0.0126,
      "velocity": 127,
      "chip": "ym2612"
    },
    {
      "channel": 4,
      "note": 47,
      "start": 38.4096,
      "duration": 0.0723,
      "velocity": 94,
      "chip": "ym2612"
    },
    {
      "channel": 1,
      "note": 52,
      "start": 38.5251,
      "duration": 0.0804,
      "velocity": 103,
      "chip": "ym2612"
    },
    {
      "channel": 2,
      "note": 52,
      "start": 38.527,
      "duration": 0.0788,
      "velocity": 94,
      "chip": "ym2612"
    },
    {
      "channel": 4,
      "note": 47,
      "start": 38.5293,
      "duration": 0.0772,
      "velocity": 94,
      "chip": "ym2612"
    },
    {
      "channel": 1,
      "note": 52,
      "start": 38.6498,
      "duration": 0.0805,
      "velocity": 103,
      "chip": "ym2612"
    },
    {
      "channel": 2,
      "note": 52,
      "start": 38.6516,
      "duration": 0.0788,
      "velocity": 94,
      "chip": "ym2612"
    },
    {
      "channel": 4,
      "note": 47,
      "start": 38.654,
      "duration": 0.0771,
      "velocity": 94,
      "chip": "ym2612"
    },
    {
      "channel": 1,
      "note": 52,
      "start": 38.7743,
      "duration": 0.0804,
      "velocity": 103,
      "chip": "ym2612"
    },
    {
      "channel": 2,
      "note": 52,
      "start": 38.7762,
      "duration": 0.0788,
      "velocity": 94,
      "chip": "ym2612"
    },
    {
      "channel": 4,
      "note": 47,
      "start": 38.7785,
      "duration": 0.0772,
      "velocity": 94,
      "chip": "ym2612"
    },
    {
      "channel": 1,
      "note": 52,
      "start": 38.9006,
      "duration": 0.0801,
      "velocity": 103,
      "chip": "ym2612"
    },
    {
      "channel": 2,
      "note": 52,
      "start": 38.9024,
      "duration": 0.0785,
      "velocity": 94,
      "chip": "ym2612"
    },
    {
      "channel": 3,
      "note": 61,
      "start": 38.9078,
      "duration": 0.0515,
      "velocity": 127,
      "chip": "ym2612"
    },
    {
      "channel": 4,
      "note": 47,
      "start": 38.9097,
      "duration": 0.072,
      "velocity": 94,
      "chip": "ym2612"
    },
    {
      "channel": 1,
      "note": 52,
      "start": 39.024,
      "duration": 0.0804,
      "velocity": 103,
      "chip": "ym2612"
    },
    {
      "channel": 2,
      "note": 52,
      "start": 39.0258,
      "duration": 0.0788,
      "velocity": 94,
      "chip": "ym2612"
    },
    {
      "channel": 4,
      "note": 47,
      "start": 39.0282,
      "duration": 0.0771,
      "velocity": 94,
      "chip": "ym2612"
    },
    {
      "channel": 1,
      "note": 52,
      "start": 39.1486,
      "duration": 0.0799,
      "velocity": 103,
      "chip": "ym2612"
    },
    {
      "channel": 2,
      "note": 52,
      "start": 39.1506,
      "duration": 0.0782,
      "velocity": 94,
      "chip": "ym2612"
    },
    {
      "channel": 3,
      "note": 61,
      "start": 39.1527,
      "duration": 0.0553,
      "velocity": 127,
      "chip": "ym2612"
    },
    {
      "channel": 4,
      "note": 47,
      "start": 39.1545,
      "duration": 0.0751,
      "velocity": 94,
      "chip": "ym2612"
    },
    {
      "channel": 1,
      "note": 52,
      "start": 39.2727,
      "duration": 0.0804,
      "velocity": 103,
      "chip": "ym2612"
    },
    {
      "channel": 2,
      "note": 52,
      "start": 39.2745,
      "duration": 0.0788,
      "velocity": 94,
      "chip": "ym2612"
    },
    {
      "channel": 4,
      "note": 47,
      "start": 39.2769,
      "duration": 0.0772,
      "velocity": 94,
      "chip": "ym2612"
    },
    {
      "channel": 1,
      "note": 52,
      "start": 39.3973,
      "duration": 0.0804,
      "velocity": 103,
      "chip": "ym2612"
    },
    {
      "channel": 2,
      "note": 52,
      "start": 39.3992,
      "duration": 0.0788,
      "velocity": 94,
      "chip": "ym2612"
    },
    {
      "channel": 3,
      "note": 62,
      "start": 39.4046,
      "duration": 0.0116,
      "velocity": 127,
      "chip": "ym2612"
    },
    {
      "channel": 4,
      "note": 47,
      "start": 39.4064,
      "duration": 0.0723,
      "velocity": 94,
      "chip": "ym2612"
    },
    {
      "channel": 1,
      "note": 52,
      "start": 39.5219,
      "duration": 0.0804,
      "velocity": 103,
      "chip": "ym2612"
    },
    {
      "channel": 2,
      "note": 52,
      "start": 39.5237,
      "duration": 0.0788,
      "velocity": 94,
      "chip": "ym2612"
    },
    {
      "channel": 4,
      "note": 47,
      "start": 39.5262,
      "duration": 0.0771,
      "velocity": 94,
      "chip": "ym2612"
    },
    {
      "channel": 1,
      "note": 52,
      "start": 39.6465,
      "duration": 0.0804,
      "velocity": 103,
      "chip": "ym2612"
    },
    {
      "channel": 2,
      "note": 52,
      "start": 39.6484,
      "duration": 0.0788,
      "velocity": 94,
      "chip": "ym2612"
    },
    {
      "channel": 4,
      "note": 47,
      "start": 39.6508,
      "duration": 0.0771,
      "velocity": 94,
      "chip": "ym2612"
    },
    {
      "channel": 1,
      "note": 52,
      "start": 39.7711,
      "duration": 0.0804,
      "velocity": 103,
      "chip": "ym2612"
    },
    {
      "channel": 2,
      "note": 52,
      "start": 39.7729,
      "duration": 0.0788,
      "velocity": 94,
      "chip": "ym2612"
    },
    {
      "channel": 4,
      "note": 47,
      "start": 39.7753,
      "duration": 0.0772,
      "velocity": 94,
      "chip": "ym2612"
    },
    {
      "channel": 1,
      "note": 52,
      "start": 39.8972,
      "duration": 0.1002,
      "velocity": 103,
      "chip": "ym2612"
    },
    {
      "channel": 2,
      "note": 64,
      "start": 39.9004,
      "duration": 0.4704,
      "velocity": 94,
      "chip": "ym2612"
    },
    {
      "channel": 3,
      "note": 61,
      "start": 39.9074,
      "duration": 0.0695,
      "velocity": 127,
      "chip": "ym2612"
    },
    {
      "channel": 4,
      "note": 59,
      "start": 39.9105,
      "duration": 0.4611,
      "velocity": 94,
      "chip": "ym2612"
    },
    {
      "channel": 1,
      "note": 52,
      "start": 40.0416,
      "duration": 0.0803,
      "velocity": 103,
      "chip": "ym2612"
    },
    {
      "channel": 1,
      "note": 52,
      "start": 40.1662,
      "duration": 0.0798,
      "velocity": 103,
      "chip": "ym2612"
    },
    {
      "channel": 3,
      "note": 61,
      "start": 40.1685,
      "duration": 0.0571,
      "velocity": 127,
      "chip": "ym2612"
    },
    {
      "channel": 1,
      "note": 52,
      "start": 40.2903,
      "duration": 0.0803,
      "velocity": 103,
      "chip": "ym2612"
    },
    {
      "channel": 1,
      "note": 52,
      "start": 40.4148,
      "duration": 0.0804,
      "velocity": 103,
      "chip": "ym2612"
    },
    {
      "channel": 2,
      "note": 65,
      "start": 40.4167,
      "duration": 0.2034,
      "velocity": 94,
      "chip": "ym2612"
    },
    {
      "channel": 3,
      "note": 62,
      "start": 40.422,
      "duration": 0.0118,
      "velocity": 127,
      "chip": "ym2612"
    },
    {
      "channel": 4,
      "note": 60,
      "start": 40.4237,
      "duration": 0.1971,
      "velocity": 94,
      "chip": "ym2612"
    },
    {
      "channel": 1,
      "note": 52,
      "start": 40.5395,
      "duration": 0.0803,
      "velocity": 103,
      "chip": "ym2612"
    },
    {
      "channel": 1,
      "note": 52,
      "start": 40.6644,
      "duration": 0.08,
      "velocity": 103,
      "chip": "ym2612"
    },
    {
      "channel": 2,
      "note": 52,
      "start": 40.6664,
      "duration": 0.2029,
      "velocity": 94,
      "chip": "ym2612"
    },
    {
      "channel": 4,
      "note": 47,
      "start": 40.6687,
      "duration": 0.2013,
      "velocity": 94,
      "chip": "ym2612"
    },
    {
      "channel": 1,
      "note": 52,
      "start": 40.7886,
      "duration": 0.0804,
      "velocity": 103,
      "chip": "ym2612"
    },
    {
      "channel": 1,
      "note": 52,
      "start": 40.9132,
      "duration": 0.0803,
      "velocity": 103,
      "chip": "ym2612"
    },
    {
      "channel": 2,
      "note": 52,
      "start": 40.915,
      "duration": 0.2034,
      "velocity": 94,
      "chip": "ym2612"
    },
    {
      "channel": 3,
      "note": 61,
      "start": 40.9205,
      "duration": 0.0527,
      "velocity": 127,
      "chip": "ym2612"
    },
    {
      "channel": 4,
      "note": 47,
      "start": 40.9222,
      "duration": 0.197,
      "velocity": 94,
      "chip": "ym2612"
    },
    {
      "channel": 1,
      "note": 52,
      "start": 41.0378,
      "duration": 0.0804,
      "velocity": 103,
      "chip": "ym2612"
    },
    {
      "channel": 1,
      "note": 52,
      "start": 41.1624,
      "duration": 0.0804,
      "velocity": 103,
      "chip": "ym2612"
    },
    {
      "channel": 2,
      "note": 64,
      "start": 41.1641,
      "duration": 0.2035,
      "velocity": 94,
      "chip": "ym2612"
    },
    {
      "channel": 3,
      "note": 61,
      "start": 41.1663,
      "duration": 0.0562,
      "velocity": 127,
      "chip": "ym2612"
    },
    {
      "channel": 4,
      "note": 59,
      "start": 41.168,
      "duration": 0.2005,
      "velocity": 94,
      "chip": "ym2612"
    },
    {
      "channel": 1,
      "note": 52,
      "start": 41.2871,
      "duration": 0.0803,
      "velocity": 103,
      "chip": "ym2612"
    },
    {
      "channel": 1,
      "note": 52,
      "start": 41.4131,
      "duration": 0.0793,
      "velocity": 103,
      "chip": "ym2612"
    },
    {
      "channel": 2,
      "note": 65,
      "start": 41.4148,
      "duration": 0.2024,
      "velocity": 94,
      "chip": "ym2612"
    },
    {
      "channel": 3,
      "note": 62,
      "start": 41.4202,
      "duration": 0.0108,
      "velocity": 127,
      "chip": "ym2612"
    },
    {
      "channel": 4,
      "note": 60,
      "start": 41.4219,
      "duration": 0.1962,
      "velocity": 94,
      "chip": "ym2612"
    },
    {
      "channel": 1,
      "note": 52,
      "start": 41.5367,
      "duration": 0.0804,
      "velocity": 103,
      "chip": "ym2612"
    },
    {
      "channel": 1,
      "note": 52,
      "start": 41.6613,
      "duration": 0.0799,
      "velocity": 103,
      "chip": "ym2612"
    },
    {
      "channel": 2,
      "note": 52,
      "start": 41.6631,
      "duration": 0.2029,
      "velocity": 94,
      "chip": "ym2612"
    },
    {
      "channel": 4,
      "note": 47,
      "start": 41.6655,
      "duration": 0.2013,
      "velocity": 94,
      "chip": "ym2612"
    },
    {
      "channel": 1,
      "note": 52,
      "start": 41.7854,
      "duration": 0.0804,
      "velocity": 103,
      "chip": "ym2612"
    },
    {
      "channel": 1,
      "note": 52,
      "start": 41.91,
      "duration": 0.0812,
      "velocity": 103,
      "chip": "ym2612"
    },
    {
      "channel": 2,
      "note": 52,
      "start": 41.9116,
      "duration": 0.2036,
      "velocity": 94,
      "chip": "ym2612"
    },
    {
      "channel": 3,
      "note": 61,
      "start": 41.9187,
      "duration": 0.0513,
      "velocity": 127,
      "chip": "ym2612"
    },
    {
      "channel": 4,
      "note": 47,
      "start": 41.9204,
      "duration": 0.1955,
      "velocity": 94,
      "chip": "ym2612"
    },
    {
      "channel": 1,
      "note": 52,
      "start": 42.0346,
      "duration": 0.0803,
      "velocity": 103,
      "chip": "ym2612"
    },
    {
      "channel": 1,
      "note": 52,
      "start": 42.1592,
      "duration": 0.0804,
      "velocity": 103,
      "chip": "ym2612"
    },
    {
      "channel": 2,
      "note": 64,
      "start": 42.1608,
      "duration": 0.2036,
      "velocity": 94,
      "chip": "ym2612"
    },
    {
      "channel": 3,
      "note": 61,
      "start": 42.1629,
      "duration": 0.0562,
      "velocity": 127,
      "chip": "ym2612"
    },
    {
      "channel": 4,
      "note": 59,
      "start": 42.1646,
      "duration": 0.2006,
      "velocity": 94,
      "chip": "ym2612"
    },
    {
      "channel": 1,
      "note": 52,
      "start": 42.2838,
      "duration": 0.0804,
      "velocity": 103,
      "chip": "ym2612"
    },
    {
      "channel": 1,
      "note": 52,
      "start": 42.4083,
      "duration": 0.0804,
      "velocity": 103,
      "chip": "ym2612"
    },
    {
      "channel": 2,
      "note": 65,
      "start": 42.41,
      "duration": 0.2036,
      "velocity": 94,
      "chip": "ym2612"
    },
    {
      "channel": 3,
      "note": 62,
      "start": 42.4154,
      "duration": 0.0119,
      "velocity": 127,
      "chip": "ym2612"
    },
    {
      "channel": 4,
      "note": 60,
      "start": 42.4172,
      "duration": 0.1972,
      "velocity": 94,
      "chip": "ym2612"
    },
    {
      "channel": 1,
      "note": 52,
      "start": 42.533,
      "duration": 0.0804,
      "velocity": 103,
      "chip": "ym2612"
    },
    {
      "channel": 1,
      "note": 52,
      "start": 42.6576,
      "duration": 0.0803,
      "velocity": 103,
      "chip": "ym2612"
    },
    {
      "channel": 2,
      "note": 52,
      "start": 42.6594,
      "duration": 0.2034,
      "velocity": 94,
      "chip": "ym2612"
    },
    {
      "channel": 4,
      "note": 47,
      "start": 42.6617,
      "duration": 0.2018,
      "velocity": 94,
      "chip": "ym2612"
    },
    {
      "channel": 1,
      "note": 52,
      "start": 42.7821,
      "duration": 0.0804,
      "velocity": 103,
      "chip": "ym2612"
    },
    {
      "channel": 1,
      "note": 52,
      "start": 42.9083,
      "duration": 0.0793,
      "velocity": 103,
      "chip": "ym2612"
    },
    {
      "channel": 2,
      "note": 67,
      "start": 42.9099,
      "duration": 0.203,
      "velocity": 94,
      "chip": "ym2612"
    },
    {
      "channel": 3,
      "note": 61,
      "start": 42.9154,
      "duration": 0.0518,
      "velocity": 127,
      "chip": "ym2612"
    },
    {
      "channel": 4,
      "note": 62,
      "start": 42.9173,
      "duration": 0.1965,
      "velocity": 94,
      "chip": "ym2612"
    },
    {
      "channel": 1,
      "note": 52,
      "start": 43.0318,
      "duration": 0.0809,
      "velocity": 103,
      "chip": "ym2612"
    },
    {
      "channel": 1,
      "note": 52,
      "start": 43.1564,
      "duration": 0.08,
      "velocity": 103,
      "chip": "ym2612"
    },
    {
      "channel": 2,
      "note": 52,
      "start": 43.158,
      "duration": 0.2031,
      "velocity": 94,
      "chip": "ym2612"
    },
    {
      "channel": 3,
      "note": 61,
      "start": 43.1601,
      "duration": 0.0557,
      "velocity": 127,
      "chip": "ym2612"
    },
    {
      "channel": 4,
      "note": 47,
      "start": 43.1618,
      "duration": 0.2001,
      "velocity": 94,
      "chip": "ym2612"
    },
    {
      "channel": 1,
      "note": 52,
      "start": 43.2805,
      "duration": 0.0804,
      "velocity": 103,
      "chip": "ym2612"
    },
    {
      "channel": 1,
      "note": 52,
      "start": 43.4051,
      "duration": 0.0804,
      "velocity": 103,
      "chip": "ym2612"
    },
    {
      "channel": 2,
      "note": 65,
      "start": 43.4068,
      "duration": 0.2036,
      "velocity": 94,
      "chip": "ym2612"
    },
    {
      "channel": 3,
      "note": 62,
      "start": 43.4121,
      "duration": 0.0119,
      "velocity": 127,
      "chip": "ym2612"
    },
    {
      "channel": 4,
      "note": 60,
      "start": 43.4138,
      "duration": 0.1973,
      "velocity": 94,
      "chip": "ym2612"
    },
    {
      "channel": 1,
      "note": 52,
      "start": 43.5297,
      "duration": 0.0804,
      "velocity": 103,
      "chip": "ym2612"
    },
    {
      "channel": 1,
      "note": 52,
      "start": 43.6544,
      "duration": 0.0803,
      "velocity": 103,
      "chip": "ym2612"
    },
    {
      "channel": 2,
      "note": 64,
      "start": 43.6559,
      "duration": 0.2037,
      "velocity": 94,
      "chip": "ym2612"
    },
    {
      "channel": 4,
      "note": 59,
      "start": 43.6582,
      "duration": 0.2022,
      "velocity": 94,
      "chip": "ym2612"
    },
    {
      "channel": 1,
      "note": 52,
      "start": 43.7797,
      "duration": 0.0796,
      "velocity": 103,
      "chip": "ym2612"
    },
    {
      "channel": 0,
      "note": 69,
      "start": 43.9038,
      "duration": 0.0011,
      "velocity": 98,
      "chip": "ym2612"
    }
  ]
}