{
  "track_name": "01 - Artemis City 2142",
  "duration_sec": 107.972,
  "sample_rate": 44100,
  "note_count": 1180,
  "unique_pitches": 21,
  "pitch_range": 67,
  "avg_note_duration": 0.073,
  "reconstruction_stats": {
    "notes_reconstructed": 1180,
    "keyon_events": 1180,
    "keyoff_events": 1180,
    "orphan_keyons": 0,
    "unique_pitches": 21,
    "pitch_range": 67,
    "avg_duration_sec": 0.073
  },
  "metadata": {
    "source": "M\\Mad Stalker - Full Metal Force\\01 - Artemis City 2142.vgz"
  },
  "notes": [
    {
      "channel": 0,
      "note": 49,
      "start": 0.0012,
      "duration": 1.3794,
      "velocity": 109,
      "chip": "ym2612"
    },
    {
      "channel": 1,
      "note": 49,
      "start": 0.0026,
      "duration": 1.3783,
      "velocity": 109,
      "chip": "ym2612"
    },
    {
      "channel": 2,
      "note": 49,
      "start": 0.0039,
      "duration": 1.3773,
      "velocity": 109,
      "chip": "ym2612"
    },
    {
      "channel": 3,
      "note": 37,
      "start": 0.0054,
      "duration": 1.3761,
      "velocity": 103,
      "chip": "ym2612"
    },
    {
      "channel": 4,
      "note": 37,
      "start": 0.0069,
      "duration": 1.3749,
      "velocity": 103,
      "chip": "ym2612"
    },
    {
      "channel": 0,
      "note": 49,
      "start": 1.3808,
      "duration": 1.3476,
      "velocity": 99,
      "chip": "ym2612"
    },
    {
      "channel": 1,
      "note": 49,
      "start": 1.3811,
      "duration": 1.3484,
      "velocity": 99,
      "chip": "ym2612"
    },
    {
      "channel": 2,
      "note": 49,
      "start": 1.3813,
      "duration": 1.3493,
      "velocity": 115,
      "chip": "ym2612"
    },
    {
      "channel": 3,
      "note": 37,
      "start": 1.3816,
      "duration": 1.349,
      "velocity": 103,
      "chip": "ym2612"
    },
    {
      "channel": 4,
      "note": 37,
      "start": 1.3819,
      "duration": 1.3488,
      "velocity": 103,
      "chip": "ym2612"
    },
    {
      "channel": 0,
      "note": 73,
      "start": 2.7322,
      "duration": 0.0008,
      "velocity": 99,
      "chip": "ym2612"
    },
    {
      "channel": 0,
      "note": 80,
      "start": 2.734,
      "duration": 0.0007,
      "velocity": 99,
      "chip": "ym2612"
    },
    {
      "channel": 0,
      "note": 73,
      "start": 2.7637,
      "duration": 0.1,
      "velocity": 99,
      "chip": "ym2612"
    },
    {
      "channel": 0,
      "note": 81,
      "start": 2.964,
      "duration": 0.0012,
      "velocity": 99,
      "chip": "ym2612"
    },
    {
      "channel": 1,
      "note": 73,
      "start": 2.9642,
      "duration": 0.0011,
      "velocity": 99,
      "chip": "ym2612"
    },
    {
      "channel": 0,
      "note": 73,
      "start": 2.9667,
      "duration": 0.0012,
      "velocity": 99,
      "chip": "ym2612"
    },
    {
      "channel": 1,
      "note": 80,
      "start": 2.9668,
      "duration": 0.0011,
      "velocity": 99,
      "chip": "ym2612"
    },
    {
      "channel": 0,
      "note": 78,
      "start": 2.9686,
      "duration": 0.0011,
      "velocity": 99,
      "chip": "ym2612"
    },
    {
      "channel": 1,
      "note": 73,
      "start": 2.9688,
      "duration": 0.001,
      "velocity": 99,
      "chip": "ym2612"
    },
    {
      "channel": 0,
      "note": 80,
      "start": 2.9985,
      "duration": 0.1,
      "velocity": 99,
      "chip": "ym2612"
    },
    {
      "channel": 1,
      "note": 81,
      "start": 2.9987,
      "duration": 0.0999,
      "velocity": 99,
      "chip": "ym2612"
    },
    {
      "channel": 0,
      "note": 73,
      "start": 3.1988,
      "duration": 0.001,
      "velocity": 99,
      "chip": "ym2612"
    },
    {
      "channel": 1,
      "note": 73,
      "start": 3.1989,
      "duration": 0.0009,
      "velocity": 99,
      "chip": "ym2612"
    },
    {
      "channel": 0,
      "note": 78,
      "start": 3.2012,
      "duration": 0.001,
      "velocity": 99,
      "chip": "ym2612"
    },
    {
      "channel": 1,
      "note": 78,
      "start": 3.2014,
      "duration": 0.0009,
      "velocity": 99,
      "chip": "ym2612"
    },
    {
      "channel": 0,
      "note": 73,
      "start": 3.2033,
      "duration": 0.0013,
      "velocity": 99,
      "chip": "ym2612"
    },
    {
      "channel": 1,
      "note": 80,
      "start": 3.2034,
      "duration": 0.0012,
      "velocity": 99,
      "chip": "ym2612"
    },
    {
      "channel": 2,
      "note": 85,
      "start": 3.2037,
      "duration": 0.0004,
      "velocity": 115,
      "chip": "ym2612"
    },
    {
      "channel": 2,
      "note": 92,
      "start": 3.2048,
      "duration": 0.0002,
      "velocity": 115,
      "chip": "ym2612"
    },
    {
      "channel": 0,
      "note": 76,
      "start": 3.233,
      "duration": 0.0833,
      "velocity": 99,
      "chip": "ym2612"
    },
    {
      "channel": 1,
      "note": 73,
      "start": 3.2332,
      "duration": 0.0832,
      "velocity": 99,
      "chip": "ym2612"
    },
    {
      "channel": 2,
      "note": 97,
      "start": 3.2334,
      "duration": 0.0329,
      "velocity": 115,
      "chip": "ym2612"
    },
    {
      "channel": 2,
      "note": 92,
      "start": 3.3166,
      "duration": 0.0332,
      "velocity": 115,
      "chip": "ym2612"
    },
    {
      "channel": 0,
      "note": 73,
      "start": 3.4166,
      "duration": 0.0015,
      "velocity": 99,
      "chip": "ym2612"
    },
    {
      "channel": 1,
      "note": 78,
      "start": 3.4167,
      "duration": 0.0014,
      "velocity": 99,
      "chip": "ym2612"
    },
    {
      "channel": 2,
      "note": 90,
      "start": 3.4169,
      "duration": 0.0005,
      "velocity": 115,
      "chip": "ym2612"
    },
    {
      "channel": 2,
      "note": 97,
      "start": 3.4183,
      "duration": 0.0004,
      "velocity": 115,
      "chip": "ym2612"
    },
    {
      "channel": 0,
      "note": 75,
      "start": 3.4191,
      "duration": 0.0015,
      "velocity": 99,
      "chip": "ym2612"
    },
    {
      "channel": 1,
      "note": 73,
      "start": 3.4192,
      "duration": 0.0015,
      "velocity": 99,
      "chip": "ym2612"
    },
    {
      "channel": 2,
      "note": 102,
      "start": 3.4194,
      "duration": 0.0006,
      "velocity": 115,
      "chip": "ym2612"
    },
    {
      "channel": 2,
      "note": 97,
      "start": 3.4209,
      "duration": 0.0003,
      "velocity": 115,
      "chip": "ym2612"
    },
    {
      "channel": 0,
      "note": 76,
      "start": 3.4219,
      "duration": 0.0017,
      "velocity": 99,
      "chip": "ym2612"
    },
    {
      "channel": 1,
      "note": 76,
      "start": 3.422,
      "duration": 0.0016,
      "velocity": 99,
      "chip": "ym2612"
    },
    {
      "channel": 2,
      "note": 88,
      "start": 3.4222,
      "duration": 0.0007,
      "velocity": 115,
      "chip": "ym2612"
    },
    {
      "channel": 2,
      "note": 83,
      "start": 3.4238,
      "duration": 0.0003,
      "velocity": 115,
      "chip": "ym2612"
    },
    {
      "channel": 0,
      "note": 78,
      "start": 3.4248,
      "duration": 0.0013,
      "velocity": 99,
      "chip": "ym2612"
    },
    {
      "channel": 1,
      "note": 73,
      "start": 3.425,
      "duration": 0.0012,
      "velocity": 99,
      "chip": "ym2612"
    },
    {
      "channel": 2,
      "note": 88,
      "start": 3.4253,
      "duration": 0.0004,
      "velocity": 115,
      "chip": "ym2612"
    },
    {
      "channel": 2,
      "note": 83,
      "start": 3.4263,
      "duration": 0.0003,
      "velocity": 115,
      "chip": "ym2612"
    },
    {
      "channel": 1,
      "note": 75,
      "start": 3.4276,
      "duration": 0.0011,
      "velocity": 99,
      "chip": "ym2612"
    },
    {
      "channel": 0,
      "note": 73,
      "start": 3.4301,
      "duration": 0.0012,
      "velocity": 99,
      "chip": "ym2612"
    },
    {
      "channel": 1,
      "note": 76,
      "start": 3.4303,
      "duration": 0.0011,
      "velocity": 99,
      "chip": "ym2612"
    },
    {
      "channel": 0,
      "note": 80,
      "start": 3.4321,
      "duration": 0.001,
      "velocity": 99,
      "chip": "ym2612"
    },
    {
      "channel": 1,
      "note": 78,
      "start": 3.4323,
      "duration": 0.0009,
      "velocity": 99,
      "chip": "ym2612"
    },
    {
      "channel": 0,
      "note": 73,
      "start": 3.4615,
      "duration": 0.1,
      "velocity": 99,
      "chip": "ym2612"
    },
    {
      "channel": 0,
      "note": 81,
      "start": 3.6618,
      "duration": 0.0011,
      "velocity": 99,
      "chip": "ym2612"
    },
    {
      "channel": 1,
      "note": 73,
      "start": 3.662,
      "duration": 0.001,
      "velocity": 99,
      "chip": "ym2612"
    },
    {
      "channel": 0,
      "note": 73,
      "start": 3.6645,
      "duration": 0.001,
      "velocity": 99,
      "chip": "ym2612"
    },
    {
      "channel": 1,
      "note": 80,
      "start": 3.6647,
      "duration": 0.0008,
      "velocity": 99,
      "chip": "ym2612"
    },
    {
      "channel": 0,
      "note": 78,
      "start": 3.6665,
      "duration": 0.0008,
      "velocity": 99,
      "chip": "ym2612"
    },
    {
      "channel": 1,
      "note": 73,
      "start": 3.6666,
      "duration": 0.0007,
      "velocity": 99,
      "chip": "ym2612"
    },
    {
      "channel": 0,
      "note": 80,
      "start": 3.6961,
      "duration": 0.1,
      "velocity": 99,
      "chip": "ym2612"
    },
    {
      "channel": 1,
      "note": 81,
      "start": 3.6963,
      "duration": 0.0999,
      "velocity": 99,
      "chip": "ym2612"
    },
    {
      "channel": 0,
      "note": 73,
      "start": 3.8964,
      "duration": 0.0012,
      "velocity": 99,
      "chip": "ym2612"
    },
    {
      "channel": 1,
      "note": 73,
      "start": 3.8966,
      "duration": 0.001,
      "velocity": 99,
      "chip": "ym2612"
    },
    {
      "channel": 0,
      "note": 78,
      "start": 3.899,
      "duration": 0.0012,
      "velocity": 99,
      "chip": "ym2612"
    },
    {
      "channel": 1,
      "note": 78,
      "start": 3.8992,
      "duration": 0.0011,
      "velocity": 99,
      "chip": "ym2612"
    },
    {
      "channel": 0,
      "note": 73,
      "start": 3.9015,
      "duration": 0.0018,
      "velocity": 99,
      "chip": "ym2612"
    },
    {
      "channel": 1,
      "note": 80,
      "start": 3.9017,
      "duration": 0.0017,
      "velocity": 99,
      "chip": "ym2612"
    },
    {
      "channel": 2,
      "note": 85,
      "start": 3.9019,
      "duration": 0.0008,
      "velocity": 115,
      "chip": "ym2612"
    },
    {
      "channel": 2,
      "note": 92,
      "start": 3.9036,
      "duration": 0.0003,
      "velocity": 115,
      "chip": "ym2612"
    },
    {
      "channel": 0,
      "note": 76,
      "start": 3.9046,
      "duration": 0.0012,
      "velocity": 99,
      "chip": "ym2612"
    },
    {
      "channel": 1,
      "note": 73,
      "start": 3.9047,
      "duration": 0.0011,
      "velocity": 99,
      "chip": "ym2612"
    },
    {
      "channel": 2,
      "note": 97,
      "start": 3.9049,
      "duration": 0.0002,
      "velocity": 115,
      "chip": "ym2612"
    },
    {
      "channel": 2,
      "note": 92,
      "start": 3.906,
      "duration": 0.0004,
      "velocity": 115,
      "chip": "ym2612"
    },
    {
      "channel": 0,
      "note": 73,
      "start": 3.9071,
      "duration": 0.0014,
      "velocity": 99,
      "chip": "ym2612"
    },
    {
      "channel": 1,
      "note": 78,
      "start": 3.9072,
      "duration": 0.0013,
      "velocity": 99,
      "chip": "ym2612"
    },
    {
      "channel": 2,
      "note": 90,
      "start": 3.9074,
      "duration": 0.0005,
      "velocity": 115,
      "chip": "ym2612"
    },
    {
      "channel": 2,
      "note": 97,
      "start": 3.9086,
      "duration": 0.0004,
      "velocity": 115,
      "chip": "ym2612"
    },
    {
      "channel": 0,
      "note": 75,
      "start": 3.9097,
      "duration": 0.0011,
      "velocity": 99,
      "chip": "ym2612"
    },
    {
      "channel": 1,
      "note": 73,
      "start": 3.9099,
      "duration": 0.0009,
      "velocity": 99,
      "chip": "ym2612"
    },
    {
      "channel": 2,
      "note": 102,
      "start": 3.9101,
      "duration": 0.0003,
      "velocity": 115,
      "chip": "ym2612"
    },
    {
      "channel": 2,
      "note": 97,
      "start": 3.911,
      "duration": 0.0003,
      "velocity": 115,
      "chip": "ym2612"
    },
    {
      "channel": 0,
      "note": 76,
      "start": 3.9123,
      "duration": 0.002,
      "velocity": 99,
      "chip": "ym2612"
    },
    {
      "channel": 1,
      "note": 76,
      "start": 3.9124,
      "duration": 0.0019,
      "velocity": 99,
      "chip": "ym2612"
    },
    {
      "channel": 2,
      "note": 102,
      "start": 3.9128,
      "duration": 0.0009,
      "velocity": 115,
      "chip": "ym2612"
    },
    {
      "channel": 2,
      "note": 97,
      "start": 3.9145,
      "duration": 0.0002,
      "velocity": 115,
      "chip": "ym2612"
    },
    {
      "channel": 0,
      "note": 78,
      "start": 3.9153,
      "duration": 0.0015,
      "velocity": 99,
      "chip": "ym2612"
    },
    {
      "channel": 1,
      "note": 73,
      "start": 3.9155,
      "duration": 0.0014,
      "velocity": 99,
      "chip": "ym2612"
    },
    {
      "channel": 2,
      "note": 102,
      "start": 3.9159,
      "duration": 0.0003,
      "velocity": 115,
      "chip": "ym2612"
    },
    {
      "channel": 2,
      "note": 97,
      "start": 3.9171,
      "duration": 0.0003,
      "velocity": 115,
      "chip": "ym2612"
    },
    {
      "channel": 1,
      "note": 75,
      "start": 3.918,
      "duration": 0.002,
      "velocity": 99,
      "chip": "ym2612"
    },
    {
      "channel": 3,
      "note": 37,
      "start": 3.9197,
      "duration": 0.0012,
      "velocity": 105,
      "chip": "ym2612"
    },
    {
      "channel": 0,
      "note": 73,
      "start": 3.9207,
      "duration": 0.001,
      "velocity": 99,
      "chip": "ym2612"
    },
    {
      "channel": 1,
      "note": 76,
      "start": 3.9208,
      "duration": 0.0009,
      "velocity": 99,
      "chip": "ym2612"
    },
    {
      "channel": 3,
      "note": 37,
      "start": 3.9211,
      "duration": 0.0016,
      "velocity": 105,
      "chip": "ym2612"
    },
    {
      "channel": 0,
      "note": 80,
      "start": 3.9222,
      "duration": 0.0009,
      "velocity": 99,
      "chip": "ym2612"
    },
    {
      "channel": 1,
      "note": 78,
      "start": 3.9224,
      "duration": 0.0008,
      "velocity": 99,
      "chip": "ym2612"
    },
    {
      "channel": 3,
      "note": 37,
      "start": 3.9228,
      "duration": 0.0297,
      "velocity": 105,
      "chip": "ym2612"
    },
    {
      "channel": 0,
      "note": 73,
      "start": 3.9521,
      "duration": 0.1,
      "velocity": 99,
      "chip": "ym2612"
    },
    {
      "channel": 3,
      "note": 37,
      "start": 3.9526,
      "duration": 0.1835,
      "velocity": 105,
      "chip": "ym2612"
    },
    {
      "channel": 4,
      "note": 37,
      "start": 3.9538,
      "duration": 0.1825,
      "velocity": 105,
      "chip": "ym2612"
    },
    {
      "channel": 0,
      "note": 81,
      "start": 4.1357,
      "duration": 0.001,
      "velocity": 99,
      "chip": "ym2612"
    },
    {
      "channel": 1,
      "note": 73,
      "start": 4.1358,
      "duration": 0.0009,
      "velocity": 99,
      "chip": "ym2612"
    },
    {
      "channel": 3,
      "note": 37,
      "start": 4.1362,
      "duration": 0.0022,
      "velocity": 105,
      "chip": "ym2612"
    },
    {
      "channel": 4,
      "note": 37,
      "start": 4.1364,
      "duration": 0.0024,
      "velocity": 105,
      "chip": "ym2612"
    },
    {
      "channel": 0,
      "note": 73,
      "start": 4.138,
      "duration": 0.0012,
      "velocity": 99,
      "chip": "ym2612"
    },
    {
      "channel": 1,
      "note": 80,
      "start": 4.1382,
      "duration": 0.0011,
      "velocity": 99,
      "chip": "ym2612"
    },
    {
      "channel": 3,
      "note": 37,
      "start": 4.1385,
      "duration": 0.0014,
      "velocity": 105,
      "chip": "ym2612"
    },
    {
      "channel": 4,
      "note": 37,
      "start": 4.1389,
      "duration": 0.0014,
      "velocity": 105,
      "chip": "ym2612"
    },
    {
      "channel": 0,
      "note": 78,
      "start": 4.1395,
      "duration": 0.001,
      "velocity": 99,
      "chip": "ym2612"
    },
    {
      "channel": 1,
      "note": 73,
      "start": 4.1397,
      "duration": 0.0009,
      "velocity": 99,
      "chip": "ym2612"
    },
    {
      "channel": 3,
      "note": 37,
      "start": 4.1401,
      "duration": 0.0297,
      "velocity": 105,
      "chip": "ym2612"
    },
    {
      "channel": 4,
      "note": 37,
      "start": 4.1404,
      "duration": 0.0297,
      "velocity": 105,
      "chip": "ym2612"
    },
    {
      "channel": 0,
      "note": 80,
      "start": 4.1694,
      "duration": 0.1,
      "velocity": 99,
      "chip": "ym2612"
    },
    {
      "channel": 1,
      "note": 81,
      "start": 4.1695,
      "duration": 0.0999,
      "velocity": 99,
      "chip": "ym2612"
    },
    {
      "channel": 3,
      "note": 37,
      "start": 4.1699,
      "duration": 0.2003,
      "velocity": 105,
      "chip": "ym2612"
    },
    {
      "channel": 4,
      "note": 37,
      "start": 4.1702,
      "duration": 0.2002,
      "velocity": 105,
      "chip": "ym2612"
    },
    {
      "channel": 0,
      "note": 73,
      "start": 4.3696,
      "duration": 0.0012,
      "velocity": 99,
      "chip": "ym2612"
    },
    {
      "channel": 1,
      "note": 73,
      "start": 4.3698,
      "duration": 0.0011,
      "velocity": 99,
      "chip": "ym2612"
    },
    {
      "channel": 4,
      "note": 37,
      "start": 4.3705,
      "duration": 0.0021,
      "velocity": 105,
      "chip": "ym2612"
    },
    {
      "channel": 0,
      "note": 78,
      "start": 4.3722,
      "duration": 0.0008,
      "velocity": 99,
      "chip": "ym2612"
    },
    {
      "channel": 1,
      "note": 78,
      "start": 4.3723,
      "duration": 0.0007,
      "velocity": 99,
      "chip": "ym2612"
    },
    {
      "channel": 4,
      "note": 37,
      "start": 4.3727,
      "duration": 0.0012,
      "velocity": 105,
      "chip": "ym2612"
    },
    {
      "channel": 0,
      "note": 73,
      "start": 4.3733,
      "duration": 0.001,
      "velocity": 99,
      "chip": "ym2612"
    },
    {
      "channel": 1,
      "note": 80,
      "start": 4.3735,
      "duration": 0.0009,
      "velocity": 99,
      "chip": "ym2612"
    },
    {
      "channel": 2,
      "note": 85,
      "start": 4.3737,
      "duration": 0.0005,
      "velocity": 115,
      "chip": "ym2612"
    },
    {
      "channel": 4,
      "note": 37,
      "start": 4.3741,
      "duration": 0.0304,
      "velocity": 105,
      "chip": "ym2612"
    },
    {
      "channel": 2,
      "note": 92,
      "start": 4.3746,
      "duration": 0.0002,
      "velocity": 115,
      "chip": "ym2612"
    },
    {
      "channel": 0,
      "note": 76,
      "start": 4.4037,
      "duration": 0.1,
      "velocity": 99,
      "chip": "ym2612"
    },
    {
      "channel": 1,
      "note": 73,
      "start": 4.4039,
      "duration": 0.0999,
      "velocity": 99,
      "chip": "ym2612"
    },
    {
      "channel": 2,
      "note": 97,
      "start": 4.4041,
      "duration": 0.0329,
      "velocity": 115,
      "chip": "ym2612"
    },
    {
      "channel": 2,
      "note": 92,
      "start": 4.5039,
      "duration": 0.0332,
      "velocity": 115,
      "chip": "ym2612"
    },
    {
      "channel": 0,
      "note": 73,
      "start": 4.604,
      "duration": 0.0009,
      "velocity": 99,
      "chip": "ym2612"
    },
    {
      "channel": 1,
      "note": 78,
      "start": 4.6041,
      "duration": 0.0008,
      "velocity": 99,
      "chip": "ym2612"
    },
    {
      "channel": 2,
      "note": 90,
      "start": 4.6043,
      "duration": 0.0003,
      "velocity": 115,
      "chip": "ym2612"
    },
    {
      "channel": 2,
      "note": 97,
      "start": 4.6051,
      "duration": 0.0001,
      "velocity": 115,
      "chip": "ym2612"
    },
    {
      "channel": 0,
      "note": 75,
      "start": 4.6056,
      "duration": 0.0009,
      "velocity": 99,
      "chip": "ym2612"
    },
    {
      "channel": 1,
      "note": 73,
      "start": 4.6058,
      "duration": 0.0007,
      "velocity": 99,
      "chip": "ym2612"
    },
    {
      "channel": 2,
      "note": 102,
      "start": 4.606,
      "duration": 0.0003,
      "velocity": 115,
      "chip": "ym2612"
    },
    {
      "channel": 2,
      "note": 97,
      "start": 4.6067,
      "duration": 0.0002,
      "velocity": 115,
      "chip": "ym2612"
    },
    {
      "channel": 0,
      "note": 76,
      "start": 4.6071,
      "duration": 0.0014,
      "velocity": 99,
      "chip": "ym2612"
    },
    {
      "channel": 1,
      "note": 76,
      "start": 4.6073,
      "duration": 0.0012,
      "velocity": 99,
      "chip": "ym2612"
    },
    {
      "channel": 2,
      "note": 88,
      "start": 4.6075,
      "duration": 0.0008,
      "velocity": 115,
      "chip": "ym2612"
    },
    {
      "channel": 3,
      "note": 35,
      "start": 4.6077,
      "duration": 0.0021,
      "velocity": 105,
      "chip": "ym2612"
    },
    {
      "channel": 2,
      "note": 83,
      "start": 4.6087,
      "duration": 0.0002,
      "velocity": 115,
      "chip": "ym2612"
    },
    {
      "channel": 0,
      "note": 78,
      "start": 4.6091,
      "duration": 0.0011,
      "velocity": 99,
      "chip": "ym2612"
    },
    {
      "channel": 1,
      "note": 73,
      "start": 4.6093,
      "duration": 0.001,
      "velocity": 99,
      "chip": "ym2612"
    },
    {
      "channel": 2,
      "note": 88,
      "start": 4.6096,
      "duration": 0.0005,
      "velocity": 115,
      "chip": "ym2612"
    },
    {
      "channel": 3,
      "note": 35,
      "start": 4.6099,
      "duration": 0.0016,
      "velocity": 105,
      "chip": "ym2612"
    },
    {
      "channel": 2,
      "note": 83,
      "start": 4.6105,
      "duration": 0.0002,
      "velocity": 115,
      "chip": "ym2612"
    },
    {
      "channel": 1,
      "note": 75,
      "start": 4.6111,
      "duration": 0.0007,
      "velocity": 99,
      "chip": "ym2612"
    },
    {
      "channel": 3,
      "note": 37,
      "start": 4.6117,
      "duration": 0.0012,
      "velocity": 105,
      "chip": "ym2612"
    },
    {
      "channel": 0,
      "note": 73,
      "start": 4.6126,
      "duration": 0.0009,
      "velocity": 99,
      "chip": "ym2612"
    },
    {
      "channel": 1,
      "note": 76,
      "start": 4.6127,
      "duration": 0.0007,
      "velocity": 99,
      "chip": "ym2612"
    },
    {
      "channel": 3,
      "note": 37,
      "start": 4.6129,
      "duration": 0.0013,
      "velocity": 105,
      "chip": "ym2612"
    },
    {
      "channel": 4,
      "note": 35,
      "start": 4.6132,
      "duration": 0.0014,
      "velocity": 105,
      "chip": "ym2612"
    },
    {
      "channel": 0,
      "note": 80,
      "start": 4.6138,
      "duration": 0.001,
      "velocity": 99,
      "chip": "ym2612"
    },
    {
      "channel": 1,
      "note": 78,
      "start": 4.6139,
      "duration": 0.0009,
      "velocity": 99,
      "chip": "ym2612"
    },
    {
      "channel": 3,
      "note": 37,
      "start": 4.6143,
      "duration": 0.03,
      "velocity": 105,
      "chip": "ym2612"
    },
    {
      "channel": 4,
      "note": 35,
      "start": 4.6147,
      "duration": 0.03,
      "velocity": 105,
      "chip": "ym2612"
    },
    {
      "channel": 0,
      "note": 73,
      "start": 4.6439,
      "duration": 0.0833,
      "velocity": 99,
      "chip": "ym2612"
    },
    {
      "channel": 3,
      "note": 37,
      "start": 4.6444,
      "duration": 0.1835,
      "velocity": 105,
      "chip": "ym2612"
    },
    {
      "channel": 4,
      "note": 37,
      "start": 4.6448,
      "duration": 0.1834,
      "velocity": 105,
      "chip": "ym2612"
    },
    {
      "channel": 0,
      "note": 81,
      "start": 4.8275,
      "duration": 0.001,
      "velocity": 99,
      "chip": "ym2612"
    },
    {
      "channel": 1,
      "note": 73,
      "start": 4.8277,
      "duration": 0.0009,
      "velocity": 99,
      "chip": "ym2612"
    },
    {
      "channel": 3,
      "note": 37,
      "start": 4.828,
      "duration": 0.0023,
      "velocity": 105,
      "chip": "ym2612"
    },
    {
      "channel": 4,
      "note": 37,
      "start": 4.8282,
      "duration": 0.0024,
      "velocity": 105,
      "chip": "ym2612"
    },
    {
      "channel": 0,
      "note": 73,
      "start": 4.8299,
      "duration": 0.0011,
      "velocity": 99,
      "chip": "ym2612"
    },
    {
      "channel": 1,
      "note": 80,
      "start": 4.83,
      "duration": 0.001,
      "velocity": 99,
      "chip": "ym2612"
    },
    {
      "channel": 3,
      "note": 37,
      "start": 4.8304,
      "duration": 0.0013,
      "velocity": 105,
      "chip": "ym2612"
    },
    {
      "channel": 4,
      "note": 37,
      "start": 4.8308,
      "duration": 0.0013,
      "velocity": 105,
      "chip": "ym2612"
    },
    {
      "channel": 0,
      "note": 78,
      "start": 4.8313,
      "duration": 0.001,
      "velocity": 99,
      "chip": "ym2612"
    },
    {
      "channel": 1,
      "note": 73,
      "start": 4.8315,
      "duration": 0.0008,
      "velocity": 99,
      "chip": "ym2612"
    },
    {
      "channel": 3,
      "note": 37,
      "start": 4.8319,
      "duration": 0.0297,
      "velocity": 105,
      "chip": "ym2612"
    },
    {
      "channel": 4,
      "note": 37,
      "start": 4.8322,
      "duration": 0.0297,
      "velocity": 105,
      "chip": "ym2612"
    },
    {
      "channel": 0,
      "note": 80,
      "start": 4.8612,
      "duration": 0.1,
      "velocity": 99,
      "chip": "ym2612"
    },
    {
      "channel": 1,
      "note": 81,
      "start": 4.8614,
      "duration": 0.0999,
      "velocity": 99,
      "chip": "ym2612"
    },
    {
      "channel": 3,
      "note": 37,
      "start": 4.8617,
      "duration": 0.1836,
      "velocity": 105,
      "chip": "ym2612"
    },
    {
      "channel": 4,
      "note": 37,
      "start": 4.8621,
      "duration": 0.1835,
      "velocity": 105,
      "chip": "ym2612"
    },
    {
      "channel": 0,
      "note": 73,
      "start": 5.0448,
      "duration": 0.0012,
      "velocity": 99,
      "chip": "ym2612"
    },
    {
      "channel": 1,
      "note": 73,
      "start": 5.0449,
      "duration": 0.0011,
      "velocity": 99,
      "chip": "ym2612"
    },
    {
      "channel": 4,
      "note": 37,
      "start": 5.0457,
      "duration": 0.0019,
      "velocity": 105,
      "chip": "ym2612"
    },
    {
      "channel": 0,
      "note": 78,
      "start": 5.0471,
      "duration": 0.0009,
      "velocity": 99,
      "chip": "ym2612"
    },
    {
      "channel": 1,
      "note": 78,
      "start": 5.0473,
      "duration": 0.0008,
      "velocity": 99,
      "chip": "ym2612"
    },
    {
      "channel": 4,
      "note": 37,
      "start": 5.0477,
      "duration": 0.0015,
      "velocity": 105,
      "chip": "ym2612"
    },
    {
      "channel": 0,
      "note": 73,
      "start": 5.0485,
      "duration": 0.0014,
      "velocity": 99,
      "chip": "ym2612"
    },
    {
      "channel": 1,
      "note": 80,
      "start": 5.0487,
      "duration": 0.0013,
      "velocity": 99,
      "chip": "ym2612"
    },
    {
      "channel": 2,
      "note": 85,
      "start": 5.0489,
      "duration": 0.0009,
      "velocity": 115,
      "chip": "ym2612"
    },
    {
      "channel": 4,
      "note": 37,
      "start": 5.0493,
      "duration": 0.0031,
      "velocity": 105,
      "chip": "ym2612"
    },
    {
      "channel": 2,
      "note": 92,
      "start": 5.0502,
      "duration": 0.0002,
      "velocity": 115,
      "chip": "ym2612"
    },
    {
      "channel": 0,
      "note": 76,
      "start": 5.0516,
      "duration": 0.0012,
      "velocity": 99,
      "chip": "ym2612"
    },
    {
      "channel": 1,
      "note": 73,
      "start": 5.0517,
      "duration": 0.0011,
      "velocity": 99,
      "chip": "ym2612"
    },
    {
      "channel": 2,
      "note": 97,
      "start": 5.052,
      "duration": 0.0007,
      "velocity": 115,
      "chip": "ym2612"
    },
    {
      "channel": 2,
      "note": 92,
      "start": 5.053,
      "duration": 0.0002,
      "velocity": 115,
      "chip": "ym2612"
    },
    {
      "channel": 0,
      "note": 73,
      "start": 5.0542,
      "duration": 0.0009,
      "velocity": 99,
      "chip": "ym2612"
    },
    {
      "channel": 1,
      "note": 78,
      "start": 5.0544,
      "duration": 0.0008,
      "velocity": 99,
      "chip": "ym2612"
    },
    {
      "channel": 2,
      "note": 90,
      "start": 5.0546,
      "duration": 0.0003,
      "velocity": 115,
      "chip": "ym2612"
    },
    {
      "channel": 2,
      "note": 97,
      "start": 5.0553,
      "duration": 0.0001,
      "velocity": 115,
      "chip": "ym2612"
    },
    {
      "channel": 0,
      "note": 75,
      "start": 5.0559,
      "duration": 0.0009,
      "velocity": 99,
      "chip": "ym2612"
    },
    {
      "channel": 1,
      "note": 73,
      "start": 5.056,
      "duration": 0.0008,
      "velocity": 99,
      "chip": "ym2612"
    },
    {
      "channel": 2,
      "note": 102,
      "start": 5.0562,
      "duration": 0.0004,
      "velocity": 115,
      "chip": "ym2612"
    },
    {
      "channel": 2,
      "note": 97,
      "start": 5.057,
      "duration": 0.0001,
      "velocity": 115,
      "chip": "ym2612"
    },
    {
      "channel": 0,
      "note": 76,
      "start": 5.0573,
      "duration": 0.0015,
      "velocity": 99,
      "chip": "ym2612"
    },
    {
      "channel": 1,
      "note": 76,
      "start": 5.0575,
      "duration": 0.0013,
      "velocity": 99,
      "chip": "ym2612"
    },
    {
      "channel": 2,
      "note": 102,
      "start": 5.0578,
      "duration": 0.0008,
      "velocity": 115,
      "chip": "ym2612"
    },
    {
      "channel": 3,
      "note": 35,
      "start": 5.058,
      "duration": 0.0021,
      "velocity": 105,
      "chip": "ym2612"
    },
    {
      "channel": 2,
      "note": 97,
      "start": 5.059,
      "duration": 0.0002,
      "velocity": 115,
      "chip": "ym2612"
    },
    {
      "channel": 0,
      "note": 78,
      "start": 5.0594,
      "duration": 0.0011,
      "velocity": 99,
      "chip": "ym2612"
    },
    {
      "channel": 1,
      "note": 73,
      "start": 5.0596,
      "duration": 0.001,
      "velocity": 99,
      "chip": "ym2612"
    },
    {
      "channel": 2,
      "note": 102,
      "start": 5.0599,
      "duration": 0.0005,
      "velocity": 115,
      "chip": "ym2612"
    },
    {
      "channel": 3,
      "note": 35,
      "start": 5.0602,
      "duration": 0.0033,
      "velocity": 105,
      "chip": "ym2612"
    },
    {
      "channel": 2,
      "note": 97,
      "start": 5.0608,
      "duration": 0.0002,
      "velocity": 115,
      "chip": "ym2612"
    },
    {
      "channel": 0,
      "note": 71,
      "start": 5.0627,
      "duration": 0.461,
      "velocity": 99,
      "chip": "ym2612"
    },
    {
      "channel": 1,
      "note": 75,
      "start": 5.0629,
      "duration": 0.0016,
      "velocity": 99,
      "chip": "ym2612"
    },
    {
      "channel": 3,
      "note": 37,
      "start": 5.0636,
      "duration": 0.0019,
      "velocity": 105,
      "chip": "ym2612"
    },
    {
      "channel": 1,
      "note": 76,
      "start": 5.0654,
      "duration": 0.0005,
      "velocity": 99,
      "chip": "ym2612"
    },
    {
      "channel": 3,
      "note": 37,
      "start": 5.0656,
      "duration": 0.0008,
      "velocity": 105,
      "chip": "ym2612"
    },
    {
      "channel": 4,
      "note": 35,
      "start": 5.0658,
      "duration": 0.001,
      "velocity": 105,
      "chip": "ym2612"
    },
    {
      "channel": 1,
      "note": 78,
      "start": 5.0661,
      "duration": 0.0008,
      "velocity": 99,
      "chip": "ym2612"
    },
    {
      "channel": 3,
      "note": 37,
      "start": 5.0665,
      "duration": 0.0023,
      "velocity": 105,
      "chip": "ym2612"
    },
    {
      "channel": 4,
      "note": 35,
      "start": 5.0669,
      "duration": 0.0023,
      "velocity": 105,
      "chip": "ym2612"
    },
    {
      "channel": 1,
      "note": 71,
      "start": 5.0686,
      "duration": 0.4595,
      "velocity": 99,
      "chip": "ym2612"
    },
    {
      "channel": 3,
      "note": 37,
      "start": 5.069,
      "duration": 0.0019,
      "velocity": 105,
      "chip": "ym2612"
    },
    {
      "channel": 4,
      "note": 37,
      "start": 5.0693,
      "duration": 0.0017,
      "velocity": 105,
      "chip": "ym2612"
    },
    {
      "channel": 3,
      "note": 37,
      "start": 5.0709,
      "duration": 0.0007,
      "velocity": 105,
      "chip": "ym2612"
    },
    {
      "channel": 4,
      "note": 37,
      "start": 5.0711,
      "duration": 0.0008,
      "velocity": 105,
      "chip": "ym2612"
    },
    {
      "channel": 3,
      "note": 37,
      "start": 5.0717,
      "duration": 0.0007,
      "velocity": 105,
      "chip": "ym2612"
    },
    {
      "channel": 4,
      "note": 37,
      "start": 5.0721,
      "duration": 0.0007,
      "velocity": 105,
      "chip": "ym2612"
    },
    {
      "channel": 3,
      "note": 37,
      "start": 5.0726,
      "duration": 0.0469,
      "velocity": 105,
      "chip": "ym2612"
    },
    {
      "channel": 4,
      "note": 37,
      "start": 5.0729,
      "duration": 0.0469,
      "velocity": 105,
      "chip": "ym2612"
    },
    {
      "channel": 3,
      "note": 37,
      "start": 5.1196,
      "duration": 0.1836,
      "velocity": 105,
      "chip": "ym2612"
    },
    {
      "channel": 4,
      "note": 37,
      "start": 5.1199,
      "duration": 0.1835,
      "velocity": 105,
      "chip": "ym2612"
    },
    {
      "channel": 4,
      "note": 37,
      "start": 5.3035,
      "duration": 0.0016,
      "velocity": 105,
      "chip": "ym2612"
    },
    {
      "channel": 4,
      "note": 37,
      "start": 5.3053,
      "duration": 0.0007,
      "velocity": 105,
      "chip": "ym2612"
    },
    {
      "channel": 2,
      "note": 85,
      "start": 5.3057,
      "duration": 0.0005,
      "velocity": 115,
      "chip": "ym2612"
    },
    {
      "channel": 4,
      "note": 37,
      "start": 5.3061,
      "duration": 0.0307,
      "velocity": 105,
      "chip": "ym2612"
    },
    {
      "channel": 2,
      "note": 92,
      "start": 5.3064,
      "duration": 0.0002,
      "velocity": 115,
      "chip": "ym2612"
    },
    {
      "channel": 2,
      "note": 97,
      "start": 5.3364,
      "duration": 0.0332,
      "velocity": 115,
      "chip": "ym2612"
    },
    {
      "channel": 2,
      "note": 92,
      "start": 5.4364,
      "duration": 0.0166,
      "velocity": 115,
      "chip": "ym2612"
    },
    {
      "channel": 2,
      "note": 90,
      "start": 5.5199,
      "duration": 0.0006,
      "velocity": 115,
      "chip": "ym2612"
    },
    {
      "channel": 3,
      "note": 61,
      "start": 5.5202,
      "duration": 0.0023,
      "velocity": 105,
      "chip": "ym2612"
    },
    {
      "channel": 2,
      "note": 97,
      "start": 5.5207,
      "duration": 0.0002,
      "velocity": 115,
      "chip": "ym2612"
    },
    {
      "channel": 2,
      "note": 102,
      "start": 5.5223,
      "duration": 0.0005,
      "velocity": 115,
      "chip": "ym2612"
    },
    {
      "channel": 2,
      "note": 97,
      "start": 5.523,
      "duration": 0.0001,
      "velocity": 115,
      "chip": "ym2612"
    },
    {
      "channel": 0,
      "note": 75,
      "start": 5.5238,
      "duration": 0.0031,
      "velocity": 99,
      "chip": "ym2612"
    },
    {
      "channel": 2,
      "note": 88,
      "start": 5.524,
      "duration": 0.0008,
      "velocity": 115,
      "chip": "ym2612"
    },
    {
      "channel": 3,
      "note": 35,
      "start": 5.5242,
      "duration": 0.0016,
      "velocity": 105,
      "chip": "ym2612"
    },
    {
      "channel": 2,
      "note": 83,
      "start": 5.5251,
      "duration": 0.0002,
      "velocity": 115,
      "chip": "ym2612"
    },
    {
      "channel": 2,
      "note": 88,
      "start": 5.5256,
      "duration": 0.0008,
      "velocity": 115,
      "chip": "ym2612"
    },
    {
      "channel": 3,
      "note": 35,
      "start": 5.5259,
      "duration": 0.0016,
      "velocity": 105,
      "chip": "ym2612"
    },
    {
      "channel": 4,
      "note": 61,
      "start": 5.5263,
      "duration": 0.0016,
      "velocity": 105,
      "chip": "ym2612"
    },
    {
      "channel": 2,
      "note": 83,
      "start": 5.5266,
      "duration": 0.0002,
      "velocity": 115,
      "chip": "ym2612"
    },
    {
      "channel": 0,
      "note": 76,
      "start": 5.527,
      "duration": 0.4777,
      "velocity": 99,
      "chip": "ym2612"
    },
    {
      "channel": 3,
      "note": 37,
      "start": 5.5276,
      "duration": 0.0007,
      "velocity": 105,
      "chip": "ym2612"
    },
    {
      "channel": 1,
      "note": 75,
      "start": 5.5282,
      "duration": 0.0307,
      "velocity": 99,
      "chip": "ym2612"
    },
    {
      "channel": 3,
      "note": 37,
      "start": 5.5284,
      "duration": 0.0006,
      "velocity": 105,
      "chip": "ym2612"
    },
    {
      "channel": 4,
      "note": 35,
      "start": 5.5286,
      "duration": 0.0008,
      "velocity": 105,
      "chip": "ym2612"
    },
    {
      "channel": 3,
      "note": 37,
      "start": 5.5291,
      "duration": 0.0301,
      "velocity": 105,
      "chip": "ym2612"
    },
    {
      "channel": 4,
      "note": 35,
      "start": 5.5295,
      "duration": 0.0301,
      "velocity": 105,
      "chip": "ym2612"
    },
    {
      "channel": 1,
      "note": 76,
      "start": 5.559,
      "duration": 0.4778,
      "velocity": 99,
      "chip": "ym2612"
    },
    {
      "channel": 3,
      "note": 37,
      "start": 5.5594,
      "duration": 0.2,
      "velocity": 105,
      "chip": "ym2612"
    },
    {
      "channel": 4,
      "note": 37,
      "start": 5.5597,
      "duration": 0.1999,
      "velocity": 105,
      "chip": "ym2612"
    },
    {
      "channel": 3,
      "note": 37,
      "start": 5.7595,
      "duration": 0.0011,
      "velocity": 105,
      "chip": "ym2612"
    },
    {
      "channel": 4,
      "note": 37,
      "start": 5.7597,
      "duration": 0.0012,
      "velocity": 105,
      "chip": "ym2612"
    },
    {
      "channel": 3,
      "note": 37,
      "start": 5.7607,
      "duration": 0.0008,
      "velocity": 105,
      "chip": "ym2612"
    },
    {
      "channel": 4,
      "note": 37,
      "start": 5.761,
      "duration": 0.0008,
      "velocity": 105,
      "chip": "ym2612"
    },
    {
      "channel": 3,
      "note": 37,
      "start": 5.7616,
      "duration": 0.0299,
      "velocity": 105,
      "chip": "ym2612"
    },
    {
      "channel": 4,
      "note": 37,
      "start": 5.7619,
      "duration": 0.0299,
      "velocity": 105,
      "chip": "ym2612"
    },
    {
      "channel": 3,
      "note": 37,
      "start": 5.7916,
      "duration": 0.2003,
      "velocity": 105,
      "chip": "ym2612"
    },
    {
      "channel": 4,
      "note": 37,
      "start": 5.7919,
      "duration": 0.2002,
      "velocity": 105,
      "chip": "ym2612"
    },
    {
      "channel": 4,
      "note": 37,
      "start": 5.9922,
      "duration": 0.0007,
      "velocity": 105,
      "chip": "ym2612"
    },
    {
      "channel": 4,
      "note": 37,
      "start": 5.993,
      "duration": 0.0012,
      "velocity": 105,
      "chip": "ym2612"
    },
    {
      "channel": 2,
      "note": 85,
      "start": 5.9939,
      "duration": 0.001,
      "velocity": 115,
      "chip": "ym2612"
    },
    {
      "channel": 4,
      "note": 37,
      "start": 5.9943,
      "duration": 0.0018,
      "velocity": 105,
      "chip": "ym2612"
    },
    {
      "channel": 2,
      "note": 92,
      "start": 5.9951,
      "duration": 0.0002,
      "velocity": 115,
      "chip": "ym2612"
    },
    {
      "channel": 2,
      "note": 97,
      "start": 5.9957,
      "duration": 0.0007,
      "velocity": 115,
      "chip": "ym2612"
    },
    {
      "channel": 2,
      "note": 92,
      "start": 5.9966,
      "duration": 0.0002,
      "velocity": 115,
      "chip": "ym2612"
    },
    {
      "channel": 2,
      "note": 90,
      "start": 5.9973,
      "duration": 0.0006,
      "velocity": 115,
      "chip": "ym2612"
    },
    {
      "channel": 3,
      "note": 61,
      "start": 5.9976,
      "duration": 0.0023,
      "velocity": 105,
      "chip": "ym2612"
    },
    {
      "channel": 2,
      "note": 97,
      "start": 5.9981,
      "duration": 0.0002,
      "velocity": 115,
      "chip": "ym2612"
    },
    {
      "channel": 2,
      "note": 102,
      "start": 5.9997,
      "duration": 0.0005,
      "velocity": 115,
      "chip": "ym2612"
    },
    {
      "channel": 2,
      "note": 97,
      "start": 6.0005,
      "duration": 0.0002,
      "velocity": 115,
      "chip": "ym2612"
    },
    {
      "channel": 2,
      "note": 102,
      "start": 6.0014,
      "duration": 0.0008,
      "velocity": 115,
      "chip": "ym2612"
    },
    {
      "channel": 3,
      "note": 35,
      "start": 6.0016,
      "duration": 0.0016,
      "velocity": 105,
      "chip": "ym2612"
    },
    {
      "channel": 2,
      "note": 97,
      "start": 6.0024,
      "duration": 0.0002,
      "velocity": 115,
      "chip": "ym2612"
    },
    {
      "channel": 2,
      "note": 102,
      "start": 6.003,
      "duration": 0.0007,
      "velocity": 115,
      "chip": "ym2612"
    },
    {
      "channel": 3,
      "note": 35,
      "start": 6.0033,
      "duration": 0.0022,
      "velocity": 105,
      "chip": "ym2612"
    },
    {
      "channel": 4,
      "note": 61,
      "start": 6.0036,
      "duration": 0.0022,
      "velocity": 105,
      "chip": "ym2612"
    },
    {
      "channel": 2,
      "note": 97,
      "start": 6.0039,
      "duration": 0.0002,
      "velocity": 115,
      "chip": "ym2612"
    },
    {
      "channel": 0,
      "note": 75,
      "start": 6.0049,
      "duration": 0.7001,
      "velocity": 99,
      "chip": "ym2612"
    },
    {
      "channel": 3,
      "note": 37,
      "start": 6.0056,
      "duration": 0.0005,
      "velocity": 105,
      "chip": "ym2612"
    },
    {
      "channel": 3,
      "note": 37,
      "start": 6.0062,
      "duration": 0.0006,
      "velocity": 105,
      "chip": "ym2612"
    },
    {
      "channel": 4,
      "note": 35,
      "start": 6.0064,
      "duration": 0.0007,
      "velocity": 105,
      "chip": "ym2612"
    },
    {
      "channel": 3,
      "note": 37,
      "start": 6.0069,
      "duration": 0.0303,
      "velocity": 105,
      "chip": "ym2612"
    },
    {
      "channel": 4,
      "note": 35,
      "start": 6.0072,
      "duration": 0.0302,
      "velocity": 105,
      "chip": "ym2612"
    },
    {
      "channel": 1,
      "note": 75,
      "start": 6.0369,
      "duration": 0.6732,
      "velocity": 99,
      "chip": "ym2612"
    },
    {
      "channel": 3,
      "note": 37,
      "start": 6.0373,
      "duration": 0.2,
      "velocity": 105,
      "chip": "ym2612"
    },
    {
      "channel": 4,
      "note": 37,
      "start": 6.0376,
      "duration": 0.1999,
      "velocity": 105,
      "chip": "ym2612"
    },
    {
      "channel": 3,
      "note": 37,
      "start": 6.2374,
      "duration": 0.0011,
      "velocity": 105,
      "chip": "ym2612"
    },
    {
      "channel": 4,
      "note": 37,
      "start": 6.2376,
      "duration": 0.0013,
      "velocity": 105,
      "chip": "ym2612"
    },
    {
      "channel": 3,
      "note": 37,
      "start": 6.2386,
      "duration": 0.0008,
      "velocity": 105,
      "chip": "ym2612"
    },
    {
      "channel": 4,
      "note": 37,
      "start": 6.2389,
      "duration": 0.0008,
      "velocity": 105,
      "chip": "ym2612"
    },
    {
      "channel": 3,
      "note": 37,
      "start": 6.2395,
      "duration": 0.0299,
      "velocity": 105,
      "chip": "ym2612"
    },
    {
      "channel": 4,
      "note": 37,
      "start": 6.2398,
      "duration": 0.0299,
      "velocity": 105,
      "chip": "ym2612"
    },
    {
      "channel": 3,
      "note": 37,
      "start": 6.2695,
      "duration": 0.2004,
      "velocity": 105,
      "chip": "ym2612"
    },
    {
      "channel": 4,
      "note": 37,
      "start": 6.2698,
      "duration": 0.2003,
      "velocity": 105,
      "chip": "ym2612"
    },
    {
      "channel": 4,
      "note": 37,
      "start": 6.4702,
      "duration": 0.0007,
      "velocity": 105,
      "chip": "ym2612"
    },
    {
      "channel": 4,
      "note": 37,
      "start": 6.4711,
      "duration": 0.0007,
      "velocity": 105,
      "chip": "ym2612"
    },
    {
      "channel": 2,
      "note": 85,
      "start": 6.4715,
      "duration": 0.0005,
      "velocity": 115,
      "chip": "ym2612"
    },
    {
      "channel": 4,
      "note": 37,
      "start": 6.4719,
      "duration": 0.0306,
      "velocity": 105,
      "chip": "ym2612"
    },
    {
      "channel": 2,
      "note": 92,
      "start": 6.4722,
      "duration": 0.0001,
      "velocity": 115,
      "chip": "ym2612"
    },
    {
      "channel": 2,
      "note": 97,
      "start": 6.5021,
      "duration": 0.0331,
      "velocity": 115,
      "chip": "ym2612"
    },
    {
      "channel": 2,
      "note": 92,
      "start": 6.6021,
      "duration": 0.0332,
      "velocity": 115,
      "chip": "ym2612"
    },
    {
      "channel": 2,
      "note": 90,
      "start": 6.7022,
      "duration": 0.0006,
      "velocity": 115,
      "chip": "ym2612"
    },
    {
      "channel": 3,
      "note": 61,
      "start": 6.7026,
      "duration": 0.0015,
      "velocity": 105,
      "chip": "ym2612"
    },
    {
      "channel": 2,
      "note": 97,
      "start": 6.7031,
      "duration": 0.0001,
      "velocity": 115,
      "chip": "ym2612"
    },
    {
      "channel": 2,
      "note": 102,
      "start": 6.7038,
      "duration": 0.0005,
      "velocity": 115,
      "chip": "ym2612"
    },
    {
      "channel": 2,
      "note": 97,
      "start": 6.7046,
      "duration": 0.0002,
      "velocity": 115,
      "chip": "ym2612"
    },
    {
      "channel": 0,
      "note": 76,
      "start": 6.7051,
      "duration": 0.0035,
      "velocity": 99,
      "chip": "ym2612"
    },
    {
      "channel": 2,
      "note": 88,
      "start": 6.7054,
      "duration": 0.0008,
      "velocity": 115,
      "chip": "ym2612"
    },
    {
      "channel": 3,
      "note": 35,
      "start": 6.7055,
      "duration": 0.0016,
      "velocity": 105,
      "chip": "ym2612"
    },
    {
      "channel": 2,
      "note": 83,
      "start": 6.7063,
      "duration": 0.0001,
      "velocity": 115,
      "chip": "ym2612"
    },
    {
      "channel": 2,
      "note": 88,
      "start": 6.7069,
      "duration": 0.0007,
      "velocity": 115,
      "chip": "ym2612"
    },
    {
      "channel": 3,
      "note": 35,
      "start": 6.7072,
      "duration": 0.002,
      "velocity": 105,
      "chip": "ym2612"
    },
    {
      "channel": 4,
      "note": 61,
      "start": 6.7076,
      "duration": 0.002,
      "velocity": 105,
      "chip": "ym2612"
    },
    {
      "channel": 2,
      "note": 83,
      "start": 6.7079,
      "duration": 0.0002,
      "velocity": 115,
      "chip": "ym2612"
    },
    {
      "channel": 0,
      "note": 78,
      "start": 6.7088,
      "duration": 0.4442,
      "velocity": 99,
      "chip": "ym2612"
    },
    {
      "channel": 3,
      "note": 37,
      "start": 6.7093,
      "duration": 0.001,
      "velocity": 105,
      "chip": "ym2612"
    },
    {
      "channel": 1,
      "note": 76,
      "start": 6.7102,
      "duration": 0.0308,
      "velocity": 99,
      "chip": "ym2612"
    },
    {
      "channel": 3,
      "note": 37,
      "start": 6.7104,
      "duration": 0.0006,
      "velocity": 105,
      "chip": "ym2612"
    },
    {
      "channel": 4,
      "note": 35,
      "start": 6.7106,
      "duration": 0.0007,
      "velocity": 105,
      "chip": "ym2612"
    },
    {
      "channel": 3,
      "note": 37,
      "start": 6.7111,
      "duration": 0.0302,
      "velocity": 105,
      "chip": "ym2612"
    },
    {
      "channel": 4,
      "note": 35,
      "start": 6.7115,
      "duration": 0.0302,
      "velocity": 105,
      "chip": "ym2612"
    },
    {
      "channel": 1,
      "note": 78,
      "start": 6.741,
      "duration": 0.4154,
      "velocity": 99,
      "chip": "ym2612"
    },
    {
      "channel": 3,
      "note": 37,
      "start": 6.7414,
      "duration": 0.1833,
      "velocity": 105,
      "chip": "ym2612"
    },
    {
      "channel": 4,
      "note": 37,
      "start": 6.7418,
      "duration": 0.1832,
      "velocity": 105,
      "chip": "ym2612"
    },
    {
      "channel": 3,
      "note": 37,
      "start": 6.9249,
      "duration": 0.001,
      "velocity": 105,
      "chip": "ym2612"
    },
    {
      "channel": 4,
      "note": 37,
      "start": 6.9251,
      "duration": 0.0011,
      "velocity": 105,
      "chip": "ym2612"
    },
    {
      "channel": 3,
      "note": 37,
      "start": 6.926,
      "duration": 0.0008,
      "velocity": 105,
      "chip": "ym2612"
    },
    {
      "channel": 4,
      "note": 37,
      "start": 6.9263,
      "duration": 0.0008,
      "velocity": 105,
      "chip": "ym2612"
    },
    {
      "channel": 3,
      "note": 37,
      "start": 6.9268,
      "duration": 0.0299,
      "velocity": 105,
      "chip": "ym2612"
    },
    {
      "channel": 4,
      "note": 37,
      "start": 6.9272,
      "duration": 0.0299,
      "velocity": 105,
      "chip": "ym2612"
    },
    {
      "channel": 3,
      "note": 37,
      "start": 6.9568,
      "duration": 0.1836,
      "velocity": 105,
      "chip": "ym2612"
    },
    {
      "channel": 4,
      "note": 37,
      "start": 6.9572,
      "duration": 0.1835,
      "velocity": 105,
      "chip": "ym2612"
    },
    {
      "channel": 4,
      "note": 37,
      "start": 7.1408,
      "duration": 0.0007,
      "velocity": 105,
      "chip": "ym2612"
    },
    {
      "channel": 4,
      "note": 37,
      "start": 7.1416,
      "duration": 0.0012,
      "velocity": 105,
      "chip": "ym2612"
    },
    {
      "channel": 2,
      "note": 85,
      "start": 7.1425,
      "duration": 0.001,
      "velocity": 115,
      "chip": "ym2612"
    },
    {
      "channel": 4,
      "note": 37,
      "start": 7.1429,
      "duration": 0.0017,
      "velocity": 105,
      "chip": "ym2612"
    },
    {
      "channel": 2,
      "note": 92,
      "start": 7.1437,
      "duration": 0.0001,
      "velocity": 115,
      "chip": "ym2612"
    },
    {
      "channel": 2,
      "note": 97,
      "start": 7.1441,
      "duration": 0.0005,
      "velocity": 115,
      "chip": "ym2612"
    },
    {
      "channel": 2,
      "note": 92,
      "start": 7.1449,
      "duration": 0.0001,
      "velocity": 115,
      "chip": "ym2612"
    },
    {
      "channel": 2,
      "note": 90,
      "start": 7.1464,
      "duration": 0.0007,
      "velocity": 115,
      "chip": "ym2612"
    },
    {
      "channel": 3,
      "note": 61,
      "start": 7.1468,
      "duration": 0.0014,
      "velocity": 105,
      "chip": "ym2612"
    },
    {
      "channel": 2,
      "note": 97,
      "start": 7.1473,
      "duration": 0.0001,
      "velocity": 115,
      "chip": "ym2612"
    },
    {
      "channel": 2,
      "note": 102,
      "start": 7.148,
      "duration": 0.0005,
      "velocity": 115,
      "chip": "ym2612"
    },
    {
      "channel": 2,
      "note": 97,
      "start": 7.1487,
      "duration": 0.0002,
      "velocity": 115,
      "chip": "ym2612"
    },
    {
      "channel": 2,
      "note": 102,
      "start": 7.1495,
      "duration": 0.0008,
      "velocity": 115,
      "chip": "ym2612"
    },
    {
      "channel": 3,
      "note": 35,
      "start": 7.1496,
      "duration": 0.0016,
      "velocity": 105,
      "chip": "ym2612"
    },
    {
      "channel": 2,
      "note": 97,
      "start": 7.1505,
      "duration": 0.0001,
      "velocity": 115,
      "chip": "ym2612"
    },
    {
      "channel": 2,
      "note": 102,
      "start": 7.151,
      "duration": 0.0008,
      "velocity": 115,
      "chip": "ym2612"
    },
    {
      "channel": 3,
      "note": 35,
      "start": 7.1514,
      "duration": 0.0033,
      "velocity": 105,
      "chip": "ym2612"
    },
    {
      "channel": 4,
      "note": 61,
      "start": 7.1517,
      "duration": 0.0033,
      "velocity": 105,
      "chip": "ym2612"
    },
    {
      "channel": 2,
      "note": 97,
      "start": 7.1521,
      "duration": 0.0002,
      "velocity": 115,
      "chip": "ym2612"
    },
    {
      "channel": 0,
      "note": 73,
      "start": 7.1531,
      "duration": 0.4395,
      "velocity": 99,
      "chip": "ym2612"
    },
    {
      "channel": 3,
      "note": 37,
      "start": 7.1548,
      "duration": 0.0005,
      "velocity": 105,
      "chip": "ym2612"
    },
    {
      "channel": 3,
      "note": 37,
      "start": 7.1554,
      "duration": 0.0004,
      "velocity": 105,
      "chip": "ym2612"
    },
    {
      "channel": 4,
      "note": 35,
      "start": 7.1555,
      "duration": 0.0006,
      "velocity": 105,
      "chip": "ym2612"
    },
    {
      "channel": 3,
      "note": 37,
      "start": 7.1559,
      "duration": 0.0009,
      "velocity": 105,
      "chip": "ym2612"
    },
    {
      "channel": 4,
      "note": 35,
      "start": 7.1562,
      "duration": 0.0009,
      "velocity": 105,
      "chip": "ym2612"
    },
    {
      "channel": 1,
      "note": 73,
      "start": 7.1565,
      "duration": 0.4421,
      "velocity": 99,
      "chip": "ym2612"
    },
    {
      "channel": 3,
      "note": 37,
      "start": 7.1569,
      "duration": 0.0009,
      "velocity": 105,
      "chip": "ym2612"
    },
    {
      "channel": 4,
      "note": 37,
      "start": 7.1572,
      "duration": 0.0008,
      "velocity": 105,
      "chip": "ym2612"
    },
    {
      "channel": 2,
      "note": 61,
      "start": 7.1576,
      "duration": 0.0016,
      "velocity": 113,
      "chip": "ym2612"
    },
    {
      "channel": 3,
      "note": 37,
      "start": 7.158,
      "duration": 0.0006,
      "velocity": 105,
      "chip": "ym2612"
    },
    {
      "channel": 4,
      "note": 37,
      "start": 7.1581,
      "duration": 0.0007,
      "velocity": 105,
      "chip": "ym2612"
    },
    {
      "channel": 3,
      "note": 37,
      "start": 7.1586,
      "duration": 0.001,
      "velocity": 105,
      "chip": "ym2612"
    },
    {
      "channel": 4,
      "note": 37,
      "start": 7.159,
      "duration": 0.001,
      "velocity": 105,
      "chip": "ym2612"
    },
    {
      "channel": 2,
      "note": 61,
      "start": 7.1594,
      "duration": 0.0008,
      "velocity": 113,
      "chip": "ym2612"
    },
    {
      "channel": 3,
      "note": 37,
      "start": 7.1597,
      "duration": 0.0298,
      "velocity": 105,
      "chip": "ym2612"
    },
    {
      "channel": 4,
      "note": 37,
      "start": 7.16,
      "duration": 0.0298,
      "velocity": 105,
      "chip": "ym2612"
    },
    {
      "channel": 3,
      "note": 37,
      "start": 7.1897,
      "duration": 0.1837,
      "velocity": 105,
      "chip": "ym2612"
    },
    {
      "channel": 4,
      "note": 37,
      "start": 7.19,
      "duration": 0.1836,
      "velocity": 105,
      "chip": "ym2612"
    },
    {
      "channel": 4,
      "note": 37,
      "start": 7.3737,
      "duration": 0.0016,
      "velocity": 105,
      "chip": "ym2612"
    },
    {
      "channel": 4,
      "note": 37,
      "start": 7.3754,
      "duration": 0.0016,
      "velocity": 105,
      "chip": "ym2612"
    },
    {
      "channel": 2,
      "note": 85,
      "start": 7.3768,
      "duration": 0.0005,
      "velocity": 115,
      "chip": "ym2612"
    },
    {
      "channel": 4,
      "note": 37,
      "start": 7.3772,
      "duration": 0.0298,
      "velocity": 105,
      "chip": "ym2612"
    },
    {
      "channel": 2,
      "note": 92,
      "start": 7.3775,
      "duration": 0.0001,
      "velocity": 115,
      "chip": "ym2612"
    },
    {
      "channel": 2,
      "note": 97,
      "start": 7.4066,
      "duration": 0.0332,
      "velocity": 115,
      "chip": "ym2612"
    },
    {
      "channel": 2,
      "note": 92,
      "start": 7.5066,
      "duration": 0.0333,
      "velocity": 115,
      "chip": "ym2612"
    },
    {
      "channel": 2,
      "note": 90,
      "start": 7.59,
      "duration": 0.0006,
      "velocity": 115,
      "chip": "ym2612"
    },
    {
      "channel": 3,
      "note": 61,
      "start": 7.5904,
      "duration": 0.0012,
      "velocity": 105,
      "chip": "ym2612"
    },
    {
      "channel": 2,
      "note": 97,
      "start": 7.5909,
      "duration": 0.0002,
      "velocity": 115,
      "chip": "ym2612"
    },
    {
      "channel": 2,
      "note": 102,
      "start": 7.5914,
      "duration": 0.0005,
      "velocity": 115,
      "chip": "ym2612"
    },
    {
      "channel": 2,
      "note": 97,
      "start": 7.5921,
      "duration": 0.0002,
      "velocity": 115,
      "chip": "ym2612"
    },
    {
      "channel": 0,
      "note": 75,
      "start": 7.5927,
      "duration": 0.0036,
      "velocity": 99,
      "chip": "ym2612"
    },
    {
      "channel": 2,
      "note": 88,
      "start": 7.5929,
      "duration": 0.0008,
      "velocity": 115,
      "chip": "ym2612"
    },
    {
      "channel": 3,
      "note": 35,
      "start": 7.5931,
      "duration": 0.0016,
      "velocity": 105,
      "chip": "ym2612"
    },
    {
      "channel": 2,
      "note": 83,
      "start": 7.594,
      "duration": 0.0002,
      "velocity": 115,
      "chip": "ym2612"
    },
    {
      "channel": 2,
      "note": 88,
      "start": 7.5945,
      "duration": 0.0007,
      "velocity": 115,
      "chip": "ym2612"
    },
    {
      "channel": 3,
      "note": 35,
      "start": 7.5949,
      "duration": 0.0029,
      "velocity": 105,
      "chip": "ym2612"
    },
    {
      "channel": 4,
      "note": 61,
      "start": 7.5952,
      "duration": 0.0029,
      "velocity": 105,
      "chip": "ym2612"
    },
    {
      "channel": 2,
      "note": 83,
      "start": 7.5955,
      "duration": 0.0001,
      "velocity": 115,
      "chip": "ym2612"
    },
    {
      "channel": 0,
      "note": 76,
      "start": 7.5964,
      "duration": 0.4792,
      "velocity": 99,
      "chip": "ym2612"
    },
    {
      "channel": 3,
      "note": 37,
      "start": 7.5979,
      "duration": 0.0009,
      "velocity": 105,
      "chip": "ym2612"
    },
    {
      "channel": 1,
      "note": 75,
      "start": 7.5988,
      "duration": 0.0307,
      "velocity": 99,
      "chip": "ym2612"
    },
    {
      "channel": 3,
      "note": 37,
      "start": 7.599,
      "duration": 0.0006,
      "velocity": 105,
      "chip": "ym2612"
    },
    {
      "channel": 4,
      "note": 35,
      "start": 7.5992,
      "duration": 0.0008,
      "velocity": 105,
      "chip": "ym2612"
    },
    {
      "channel": 3,
      "note": 37,
      "start": 7.5997,
      "duration": 0.0302,
      "velocity": 105,
      "chip": "ym2612"
    },
    {
      "channel": 4,
      "note": 35,
      "start": 7.6,
      "duration": 0.0302,
      "velocity": 105,
      "chip": "ym2612"
    },
    {
      "channel": 1,
      "note": 76,
      "start": 7.6296,
      "duration": 0.4795,
      "velocity": 99,
      "chip": "ym2612"
    },
    {
      "channel": 3,
      "note": 37,
      "start": 7.63,
      "duration": 0.2002,
      "velocity": 105,
      "chip": "ym2612"
    },
    {
      "channel": 4,
      "note": 37,
      "start": 7.6303,
      "duration": 0.2,
      "velocity": 105,
      "chip": "ym2612"
    },
    {
      "channel": 2,
      "note": 61,
      "start": 7.8299,
      "duration": 0.002,
      "velocity": 113,
      "chip": "ym2612"
    },
    {
      "channel": 3,
      "note": 37,
      "start": 7.8302,
      "duration": 0.0009,
      "velocity": 105,
      "chip": "ym2612"
    },
    {
      "channel": 4,
      "note": 37,
      "start": 7.8305,
      "duration": 0.0011,
      "velocity": 105,
      "chip": "ym2612"
    },
    {
      "channel": 3,
      "note": 37,
      "start": 7.8313,
      "duration": 0.001,
      "velocity": 105,
      "chip": "ym2612"
    },
    {
      "channel": 4,
      "note": 37,
      "start": 7.8316,
      "duration": 0.001,
      "velocity": 105,
      "chip": "ym2612"
    },
    {
      "channel": 2,
      "note": 61,
      "start": 7.8321,
      "duration": 0.0008,
      "velocity": 113,
      "chip": "ym2612"
    },
    {
      "channel": 3,
      "note": 37,
      "start": 7.8324,
      "duration": 0.0468,
      "velocity": 105,
      "chip": "ym2612"
    },
    {
      "channel": 4,
      "note": 37,
      "start": 7.8327,
      "duration": 0.0468,
      "velocity": 105,
      "chip": "ym2612"
    },
    {
      "channel": 3,
      "note": 37,
      "start": 7.8793,
      "duration": 0.1836,
      "velocity": 105,
      "chip": "ym2612"
    },
    {
      "channel": 4,
      "note": 37,
      "start": 7.8796,
      "duration": 0.1835,
      "velocity": 105,
      "chip": "ym2612"
    },
    {
      "channel": 4,
      "note": 37,
      "start": 8.0632,
      "duration": 0.0007,
      "velocity": 105,
      "chip": "ym2612"
    },
    {
      "channel": 4,
      "note": 37,
      "start": 8.064,
      "duration": 0.0023,
      "velocity": 105,
      "chip": "ym2612"
    },
    {
      "channel": 2,
      "note": 85,
      "start": 8.0659,
      "duration": 0.0011,
      "velocity": 115,
      "chip": "ym2612"
    },
    {
      "channel": 3,
      "note": 37,
      "start": 8.0661,
      "duration": 0.0017,
      "velocity": 105,
      "chip": "ym2612"
    },
    {
      "channel": 4,
      "note": 37,
      "start": 8.0665,
      "duration": 0.0017,
      "velocity": 105,
      "chip": "ym2612"
    },
    {
      "channel": 2,
      "note": 92,
      "start": 8.0673,
      "duration": 0.0002,
      "velocity": 115,
      "chip": "ym2612"
    },
    {
      "channel": 2,
      "note": 97,
      "start": 8.0677,
      "duration": 0.0005,
      "velocity": 115,
      "chip": "ym2612"
    },
    {
      "channel": 2,
      "note": 92,
      "start": 8.0685,
      "duration": 0.0001,
      "velocity": 115,
      "chip": "ym2612"
    },
    {
      "channel": 2,
      "note": 90,
      "start": 8.0691,
      "duration": 0.0007,
      "velocity": 115,
      "chip": "ym2612"
    },
    {
      "channel": 3,
      "note": 61,
      "start": 8.0695,
      "duration": 0.0012,
      "velocity": 105,
      "chip": "ym2612"
    },
    {
      "channel": 2,
      "note": 97,
      "start": 8.07,
      "duration": 0.0002,
      "velocity": 115,
      "chip": "ym2612"
    },
    {
      "channel": 2,
      "note": 102,
      "start": 8.0705,
      "duration": 0.0007,
      "velocity": 115,
      "chip": "ym2612"
    },
    {
      "channel": 4,
      "note": 37,
      "start": 8.0709,
      "duration": 0.0016,
      "velocity": 105,
      "chip": "ym2612"
    },
    {
      "channel": 2,
      "note": 97,
      "start": 8.0714,
      "duration": 0.0002,
      "velocity": 115,
      "chip": "ym2612"
    },
    {
      "channel": 2,
      "note": 102,
      "start": 8.0722,
      "duration": 0.0008,
      "velocity": 115,
      "chip": "ym2612"
    },
    {
      "channel": 3,
      "note": 35,
      "start": 8.0724,
      "duration": 0.0017,
      "velocity": 105,
      "chip": "ym2612"
    },
    {
      "channel": 2,
      "note": 97,
      "start": 8.0733,
      "duration": 0.0001,
      "velocity": 115,
      "chip": "ym2612"
    },
    {
      "channel": 2,
      "note": 102,
      "start": 8.0738,
      "duration": 0.0008,
      "velocity": 115,
      "chip": "ym2612"
    },
    {
      "channel": 3,
      "note": 35,
      "start": 8.0741,
      "duration": 0.0031,
      "velocity": 105,
      "chip": "ym2612"
    },
    {
      "channel": 4,
      "note": 61,
      "start": 8.0745,
      "duration": 0.0031,
      "velocity": 105,
      "chip": "ym2612"
    },
    {
      "channel": 2,
      "note": 97,
      "start": 8.0748,
      "duration": 0.0002,
      "velocity": 115,
      "chip": "ym2612"
    },
    {
      "channel": 0,
      "note": 75,
      "start": 8.0757,
      "duration": 0.7032,
      "velocity": 99,
      "chip": "ym2612"
    },
    {
      "channel": 3,
      "note": 37,
      "start": 8.0774,
      "duration": 0.001,
      "velocity": 105,
      "chip": "ym2612"
    },
    {
      "channel": 3,
      "note": 37,
      "start": 8.0785,
      "duration": 0.0006,
      "velocity": 105,
      "chip": "ym2612"
    },
    {
      "channel": 4,
      "note": 35,
      "start": 8.0787,
      "duration": 0.0007,
      "velocity": 105,
      "chip": "ym2612"
    },
    {
      "channel": 3,
      "note": 37,
      "start": 8.0792,
      "duration": 0.0303,
      "velocity": 105,
      "chip": "ym2612"
    },
    {
      "channel": 4,
      "note": 35,
      "start": 8.0795,
      "duration": 0.0303,
      "velocity": 105,
      "chip": "ym2612"
    },
    {
      "channel": 1,
      "note": 75,
      "start": 8.1092,
      "duration": 0.6761,
      "velocity": 99,
      "chip": "ym2612"
    },
    {
      "channel": 3,
      "note": 37,
      "start": 8.1096,
      "duration": 0.2002,
      "velocity": 105,
      "chip": "ym2612"
    },
    {
      "channel": 4,
      "note": 37,
      "start": 8.1099,
      "duration": 0.2,
      "velocity": 105,
      "chip": "ym2612"
    },
    {
      "channel": 2,
      "note": 61,
      "start": 8.3095,
      "duration": 0.002,
      "velocity": 113,
      "chip": "ym2612"
    },
    {
      "channel": 3,
      "note": 37,
      "start": 8.3099,
      "duration": 0.0009,
      "velocity": 105,
      "chip": "ym2612"
    },
    {
      "channel": 4,
      "note": 37,
      "start": 8.3101,
      "duration": 0.0011,
      "velocity": 105,
      "chip": "ym2612"
    },
    {
      "channel": 3,
      "note": 37,
      "start": 8.3109,
      "duration": 0.001,
      "velocity": 105,
      "chip": "ym2612"
    },
    {
      "channel": 4,
      "note": 37,
      "start": 8.3113,
      "duration": 0.001,
      "velocity": 105,
      "chip": "ym2612"
    },
    {
      "channel": 2,
      "note": 61,
      "start": 8.3117,
      "duration": 0.0008,
      "velocity": 113,
      "chip": "ym2612"
    },
    {
      "channel": 3,
      "note": 37,
      "start": 8.3121,
      "duration": 0.0298,
      "velocity": 105,
      "chip": "ym2612"
    },
    {
      "channel": 4,
      "note": 37,
      "start": 8.3124,
      "duration": 0.0298,
      "velocity": 105,
      "chip": "ym2612"
    },
    {
      "channel": 3,
      "note": 37,
      "start": 8.342,
      "duration": 0.2004,
      "velocity": 105,
      "chip": "ym2612"
    },
    {
      "channel": 4,
      "note": 37,
      "start": 8.3423,
      "duration": 0.2002,
      "velocity": 105,
      "chip": "ym2612"
    },
    {
      "channel": 4,
      "note": 37,
      "start": 8.5427,
      "duration": 0.0007,
      "velocity": 105,
      "chip": "ym2612"
    },
    {
      "channel": 4,
      "note": 37,
      "start": 8.5435,
      "duration": 0.0016,
      "velocity": 105,
      "chip": "ym2612"
    },
    {
      "channel": 2,
      "note": 85,
      "start": 8.5449,
      "duration": 0.0005,
      "velocity": 115,
      "chip": "ym2612"
    },
    {
      "channel": 4,
      "note": 37,
      "start": 8.5452,
      "duration": 0.03,
      "velocity": 105,
      "chip": "ym2612"
    },
    {
      "channel": 2,
      "note": 92,
      "start": 8.5456,
      "duration": 0.0002,
      "velocity": 115,
      "chip": "ym2612"
    },
    {
      "channel": 2,
      "note": 97,
      "start": 8.5748,
      "duration": 0.0332,
      "velocity": 115,
      "chip": "ym2612"
    },
    {
      "channel": 2,
      "note": 92,
      "start": 8.6749,
      "duration": 0.0332,
      "velocity": 115,
      "chip": "ym2612"
    },
    {
      "channel": 2,
      "note": 90,
      "start": 8.775,
      "duration": 0.0006,
      "velocity": 115,
      "chip": "ym2612"
    },
    {
      "channel": 3,
      "note": 61,
      "start": 8.7754,
      "duration": 0.0023,
      "velocity": 105,
      "chip": "ym2612"
    },
    {
      "channel": 2,
      "note": 97,
      "start": 8.7759,
      "duration": 0.0002,
      "velocity": 115,
      "chip": "ym2612"
    },
    {
      "channel": 2,
      "note": 102,
      "start": 8.7775,
      "duration": 0.0005,
      "velocity": 115,
      "chip": "ym2612"
    },
    {
      "channel": 2,
      "note": 97,
      "start": 8.7782,
      "duration": 0.0002,
      "velocity": 115,
      "chip": "ym2612"
    },
    {
      "channel": 0,
      "note": 76,
      "start": 8.7789,
      "duration": 0.0035,
      "velocity": 99,
      "chip": "ym2612"
    },
    {
      "channel": 2,
      "note": 88,
      "start": 8.7792,
      "duration": 0.0008,
      "velocity": 115,
      "chip": "ym2612"
    },
    {
      "channel": 3,
      "note": 35,
      "start": 8.7793,
      "duration": 0.0016,
      "velocity": 105,
      "chip": "ym2612"
    },
    {
      "channel": 2,
      "note": 83,
      "start": 8.7802,
      "duration": 0.0002,
      "velocity": 115,
      "chip": "ym2612"
    },
    {
      "channel": 2,
      "note": 88,
      "start": 8.7807,
      "duration": 0.0008,
      "velocity": 115,
      "chip": "ym2612"
    },
    {
      "channel": 3,
      "note": 35,
      "start": 8.7811,
      "duration": 0.0029,
      "velocity": 105,
      "chip": "ym2612"
    },
    {
      "channel": 4,
      "note": 61,
      "start": 8.7814,
      "duration": 0.0029,
      "velocity": 105,
      "chip": "ym2612"
    },
    {
      "channel": 2,
      "note": 83,
      "start": 8.7818,
      "duration": 0.0002,
      "velocity": 115,
      "chip": "ym2612"
    },
    {
      "channel": 0,
      "note": 75,
      "start": 8.7826,
      "duration": 0.0026,
      "velocity": 99,
      "chip": "ym2612"
    },
    {
      "channel": 3,
      "note": 37,
      "start": 8.7841,
      "duration": 0.0014,
      "velocity": 105,
      "chip": "ym2612"
    },
    {
      "channel": 0,
      "note": 71,
      "start": 8.7853,
      "duration": 0.0008,
      "velocity": 99,
      "chip": "ym2612"
    },
    {
      "channel": 1,
      "note": 76,
      "start": 8.7855,
      "duration": 0.0307,
      "velocity": 99,
      "chip": "ym2612"
    },
    {
      "channel": 3,
      "note": 37,
      "start": 8.7857,
      "duration": 0.0009,
      "velocity": 105,
      "chip": "ym2612"
    },
    {
      "channel": 4,
      "note": 35,
      "start": 8.7859,
      "duration": 0.001,
      "velocity": 105,
      "chip": "ym2612"
    },
    {
      "channel": 0,
      "note": 70,
      "start": 8.7863,
      "duration": 0.2169,
      "velocity": 99,
      "chip": "ym2612"
    },
    {
      "channel": 3,
      "note": 37,
      "start": 8.7867,
      "duration": 0.0299,
      "velocity": 105,
      "chip": "ym2612"
    },
    {
      "channel": 4,
      "note": 35,
      "start": 8.787,
      "duration": 0.0299,
      "velocity": 105,
      "chip": "ym2612"
    },
    {
      "channel": 1,
      "note": 75,
      "start": 8.8163,
      "duration": 0.1835,
      "velocity": 99,
      "chip": "ym2612"
    },
    {
      "channel": 3,
      "note": 37,
      "start": 8.8167,
      "duration": 0.1837,
      "velocity": 105,
      "chip": "ym2612"
    },
    {
      "channel": 4,
      "note": 37,
      "start": 8.817,
      "duration": 0.1836,
      "velocity": 105,
      "chip": "ym2612"
    },
    {
      "channel": 1,
      "note": 71,
      "start": 9.0,
      "duration": 0.002,
      "velocity": 99,
      "chip": "ym2612"
    },
    {
      "channel": 2,
      "note": 61,
      "start": 9.0002,
      "duration": 0.0028,
      "velocity": 113,
      "chip": "ym2612"
    },
    {
      "channel": 3,
      "note": 37,
      "start": 9.0005,
      "duration": 0.0018,
      "velocity": 105,
      "chip": "ym2612"
    },
    {
      "channel": 4,
      "note": 37,
      "start": 9.0007,
      "duration": 0.0019,
      "velocity": 105,
      "chip": "ym2612"
    },
    {
      "channel": 1,
      "note": 70,
      "start": 9.002,
      "duration": 0.2326,
      "velocity": 99,
      "chip": "ym2612"
    },
    {
      "channel": 3,
      "note": 37,
      "start": 9.0024,
      "duration": 0.0013,
      "velocity": 105,
      "chip": "ym2612"
    },
    {
      "channel": 4,
      "note": 37,
      "start": 9.0027,
      "duration": 0.0013,
      "velocity": 105,
      "chip": "ym2612"
    },
    {
      "channel": 0,
      "note": 69,
      "start": 9.0033,
      "duration": 0.2421,
      "velocity": 99,
      "chip": "ym2612"
    },
    {
      "channel": 2,
      "note": 61,
      "start": 9.0035,
      "duration": 0.0008,
      "velocity": 113,
      "chip": "ym2612"
    },
    {
      "channel": 3,
      "note": 37,
      "start": 9.0038,
      "duration": 0.0298,
      "velocity": 105,
      "chip": "ym2612"
    },
    {
      "channel": 4,
      "note": 37,
      "start": 9.0041,
      "duration": 0.0298,
      "velocity": 105,
      "chip": "ym2612"
    },
    {
      "channel": 2,
      "note": 61,
      "start": 9.0334,
      "duration": 0.1333,
      "velocity": 113,
      "chip": "ym2612"
    },
    {
      "channel": 3,
      "note": 37,
      "start": 9.0338,
      "duration": 0.2001,
      "velocity": 105,
      "chip": "ym2612"
    },
    {
      "channel": 4,
      "note": 37,
      "start": 9.0341,
      "duration": 0.2,
      "velocity": 105,
      "chip": "ym2612"
    },
    {
      "channel": 4,
      "note": 37,
      "start": 9.2342,
      "duration": 0.0008,
      "velocity": 105,
      "chip": "ym2612"
    },
    {
      "channel": 1,
      "note": 69,
      "start": 9.2348,
      "duration": 0.0152,
      "velocity": 99,
      "chip": "ym2612"
    },
    {
      "channel": 4,
      "note": 37,
      "start": 9.2352,
      "duration": 0.0021,
      "velocity": 105,
      "chip": "ym2612"
    },
    {
      "channel": 2,
      "note": 85,
      "start": 9.2369,
      "duration": 0.0011,
      "velocity": 115,
      "chip": "ym2612"
    },
    {
      "channel": 3,
      "note": 37,
      "start": 9.2371,
      "duration": 0.0019,
      "velocity": 105,
      "chip": "ym2612"
    },
    {
      "channel": 4,
      "note": 37,
      "start": 9.2374,
      "duration": 0.0019,
      "velocity": 105,
      "chip": "ym2612"
    },
    {
      "channel": 2,
      "note": 92,
      "start": 9.2382,
      "duration": 0.0001,
      "velocity": 115,
      "chip": "ym2612"
    },
    {
      "channel": 2,
      "note": 97,
      "start": 9.2389,
      "duration": 0.0007,
      "velocity": 115,
      "chip": "ym2612"
    },
    {
      "channel": 2,
      "note": 92,
      "start": 9.2398,
      "duration": 0.0001,
      "velocity": 115,
      "chip": "ym2612"
    },
    {
      "channel": 2,
      "note": 90,
      "start": 9.2413,
      "duration": 0.0007,
      "velocity": 115,
      "chip": "ym2612"
    },
    {
      "channel": 3,
      "note": 61,
      "start": 9.2416,
      "duration": 0.0015,
      "velocity": 105,
      "chip": "ym2612"
    },
    {
      "channel": 2,
      "note": 97,
      "start": 9.2422,
      "duration": 0.0001,
      "velocity": 115,
      "chip": "ym2612"
    },
    {
      "channel": 2,
      "note": 102,
      "start": 9.2429,
      "duration": 0.0007,
      "velocity": 115,
      "chip": "ym2612"
    },
    {
      "channel": 4,
      "note": 37,
      "start": 9.2433,
      "duration": 0.0013,
      "velocity": 105,
      "chip": "ym2612"
    },
    {
      "channel": 2,
      "note": 97,
      "start": 9.2438,
      "duration": 0.0002,
      "velocity": 115,
      "chip": "ym2612"
    },
    {
      "channel": 2,
      "note": 102,
      "start": 9.2443,
      "duration": 0.0005,
      "velocity": 115,
      "chip": "ym2612"
    },
    {
      "channel": 3,
      "note": 35,
      "start": 9.2445,
      "duration": 0.0016,
      "velocity": 105,
      "chip": "ym2612"
    },
    {
      "channel": 2,
      "note": 97,
      "start": 9.2451,
      "duration": 0.0002,
      "velocity": 115,
      "chip": "ym2612"
    },
    {
      "channel": 0,
      "note": 68,
      "start": 9.2455,
      "duration": 0.0013,
      "velocity": 99,
      "chip": "ym2612"
    },
    {
      "channel": 2,
      "note": 102,
      "start": 9.2459,
      "duration": 0.0008,
      "velocity": 115,
      "chip": "ym2612"
    },
    {
      "channel": 3,
      "note": 35,
      "start": 9.2462,
      "duration": 0.0029,
      "velocity": 105,
      "chip": "ym2612"
    },
    {
      "channel": 4,
      "note": 61,
      "start": 9.2465,
      "duration": 0.0029,
      "velocity": 105,
      "chip": "ym2612"
    },
    {
      "channel": 0,
      "note": 69,
      "start": 9.2469,
      "duration": 0.0005,
      "velocity": 99,
      "chip": "ym2612"
    },
    {
      "channel": 2,
      "note": 97,
      "start": 9.2471,
      "duration": 0.0001,
      "velocity": 115,
      "chip": "ym2612"
    },
    {
      "channel": 0,
      "note": 68,
      "start": 9.2476,
      "duration": 0.4584,
      "velocity": 107,
      "chip": "ym2612"
    },
    {
      "channel": 3,
      "note": 37,
      "start": 9.2493,
      "duration": 0.0003,
      "velocity": 105,
      "chip": "ym2612"
    },
    {
      "channel": 3,
      "note": 37,
      "start": 9.2497,
      "duration": 0.0006,
      "velocity": 105,
      "chip": "ym2612"
    },
    {
      "channel": 4,
      "note": 35,
      "start": 9.2499,
      "duration": 0.0008,
      "velocity": 105,
      "chip": "ym2612"
    },
    {
      "channel": 1,
      "note": 68,
      "start": 9.25,
      "duration": 0.0008,
      "velocity": 99,
      "chip": "ym2612"
    },
    {
      "channel": 3,
      "note": 37,
      "start": 9.2504,
      "duration": 0.0011,
      "velocity": 105,
      "chip": "ym2612"
    },
    {
      "channel": 4,
      "note": 35,
      "start": 9.2508,
      "duration": 0.0011,
      "velocity": 105,
      "chip": "ym2612"
    },
    {
      "channel": 1,
      "note": 69,
      "start": 9.2509,
      "duration": 0.0002,
      "velocity": 99,
      "chip": "ym2612"
    },
    {
      "channel": 1,
      "note": 68,
      "start": 9.2512,
      "duration": 0.4882,
      "velocity": 107,
      "chip": "ym2612"
    },
    {
      "channel": 3,
      "note": 37,
      "start": 9.2516,
      "duration": 0.0007,
      "velocity": 105,
      "chip": "ym2612"
    },
    {
      "channel": 4,
      "note": 37,
      "start": 9.252,
      "duration": 0.0006,
      "velocity": 105,
      "chip": "ym2612"
    },
    {
      "channel": 2,
      "note": 61,
      "start": 9.2521,
      "duration": 0.0021,
      "velocity": 113,
      "chip": "ym2612"
    },
    {
      "channel": 3,
      "note": 37,
      "start": 9.2525,
      "duration": 0.001,
      "velocity": 105,
      "chip": "ym2612"
    },
    {
      "channel": 4,
      "note": 37,
      "start": 9.2527,
      "duration": 0.0012,
      "velocity": 105,
      "chip": "ym2612"
    },
    {
      "channel": 3,
      "note": 37,
      "start": 9.2536,
      "duration": 0.001,
      "velocity": 105,
      "chip": "ym2612"
    },
    {
      "channel": 4,
      "note": 37,
      "start": 9.2539,
      "duration": 0.001,
      "velocity": 105,
      "chip": "ym2612"
    },
    {
      "channel": 2,
      "note": 61,
      "start": 9.2544,
      "duration": 0.0008,
      "velocity": 113,
      "chip": "ym2612"
    },
    {
      "channel": 3,
      "note": 37,
      "start": 9.2547,
      "duration": 0.0298,
      "velocity": 105,
      "chip": "ym2612"
    },
    {
      "channel": 4,
      "note": 37,
      "start": 9.2551,
      "duration": 0.0298,
      "velocity": 105,
      "chip": "ym2612"
    },
    {
      "channel": 3,
      "note": 37,
      "start": 9.2847,
      "duration": 0.1836,
      "velocity": 105,
      "chip": "ym2612"
    },
    {
      "channel": 4,
      "note": 37,
      "start": 9.285,
      "duration": 0.1835,
      "velocity": 105,
      "chip": "ym2612"
    },
    {
      "channel": 4,
      "note": 37,
      "start": 9.4686,
      "duration": 0.0007,
      "velocity": 105,
      "chip": "ym2612"
    },
    {
      "channel": 2,
      "note": 61,
      "start": 9.469,
      "duration": 0.0007,
      "velocity": 113,
      "chip": "ym2612"
    },
    {
      "channel": 4,
      "note": 37,
      "start": 9.4694,
      "duration": 0.0014,
      "velocity": 105,
      "chip": "ym2612"
    },
    {
      "channel": 2,
      "note": 61,
      "start": 9.47,
      "duration": 0.0002,
      "velocity": 113,
      "chip": "ym2612"
    },
    {
      "channel": 2,
      "note": 61,
      "start": 9.4705,
      "duration": 0.0005,
      "velocity": 113,
      "chip": "ym2612"
    },
    {
      "channel": 4,
      "note": 37,
      "start": 9.4708,
      "duration": 0.0303,
      "velocity": 105,
      "chip": "ym2612"
    },
    {
      "channel": 2,
      "note": 61,
      "start": 9.4712,
      "duration": 0.0001,
      "velocity": 113,
      "chip": "ym2612"
    },
    {
      "channel": 2,
      "note": 61,
      "start": 9.5007,
      "duration": 0.0332,
      "velocity": 113,
      "chip": "ym2612"
    },
    {
      "channel": 2,
      "note": 61,
      "start": 9.6009,
      "duration": 0.0332,
      "velocity": 113,
      "chip": "ym2612"
    },
    {
      "channel": 3,
      "note": 35,
      "start": 9.7034,
      "duration": 0.0008,
      "velocity": 105,
      "chip": "ym2612"
    },
    {
      "channel": 3,
      "note": 35,
      "start": 9.7043,
      "duration": 0.0021,
      "velocity": 105,
      "chip": "ym2612"
    },
    {
      "channel": 0,
      "note": 49,
      "start": 9.7061,
      "duration": 0.001,
      "velocity": 107,
      "chip": "ym2612"
    },
    {
      "channel": 3,
      "note": 37,
      "start": 9.7065,
      "duration": 0.0009,
      "velocity": 105,
      "chip": "ym2612"
    },
    {
      "channel": 0,
      "note": 49,
      "start": 9.7073,
      "duration": 0.031,
      "velocity": 107,
      "chip": "ym2612"
    },
    {
      "channel": 3,
      "note": 37,
      "start": 9.7075,
      "duration": 0.0006,
      "velocity": 105,
      "chip": "ym2612"
    },
    {
      "channel": 4,
      "note": 35,
      "start": 9.7077,
      "duration": 0.0008,
      "velocity": 105,
      "chip": "ym2612"
    },
    {
      "channel": 3,
      "note": 37,
      "start": 9.7083,
      "duration": 0.0316,
      "velocity": 105,
      "chip": "ym2612"
    },
    {
      "channel": 4,
      "note": 35,
      "start": 9.7086,
      "duration": 0.0316,
      "velocity": 105,
      "chip": "ym2612"
    },
    {
      "channel": 0,
      "note": 49,
      "start": 9.7383,
      "duration": 0.2001,
      "velocity": 107,
      "chip": "ym2612"
    },
    {
      "channel": 1,
      "note": 49,
      "start": 9.7396,
      "duration": 0.1991,
      "velocity": 107,
      "chip": "ym2612"
    },
    {
      "channel": 3,
      "note": 37,
      "start": 9.74,
      "duration": 0.1992,
      "velocity": 105,
      "chip": "ym2612"
    },
    {
      "channel": 4,
      "note": 37,
      "start": 9.7403,
      "duration": 0.1991,
      "velocity": 105,
      "chip": "ym2612"
    },
    {
      "channel": 0,
      "note": 49,
      "start": 9.9386,
      "duration": 0.0012,
      "velocity": 107,
      "chip": "ym2612"
    },
    {
      "channel": 1,
      "note": 49,
      "start": 9.9388,
      "duration": 0.0022,
      "velocity": 107,
      "chip": "ym2612"
    },
    {
      "channel": 2,
      "note": 61,
      "start": 9.939,
      "duration": 0.0018,
      "velocity": 113,
      "chip": "ym2612"
    },
    {
      "channel": 3,
      "note": 37,
      "start": 9.9393,
      "duration": 0.0008,
      "velocity": 105,
      "chip": "ym2612"
    },
    {
      "channel": 4,
      "note": 37,
      "start": 9.9395,
      "duration": 0.0009,
      "velocity": 105,
      "chip": "ym2612"
    },
    {
      "channel": 3,
      "note": 37,
      "start": 9.9402,
      "duration": 0.0013,
      "velocity": 105,
      "chip": "ym2612"
    },
    {
      "channel": 4,
      "note": 37,
      "start": 9.9405,
      "duration": 0.0013,
      "velocity": 105,
      "chip": "ym2612"
    },
    {
      "channel": 0,
      "note": 49,
      "start": 9.941,
      "duration": 0.2135,
      "velocity": 107,
      "chip": "ym2612"
    },
    {
      "channel": 1,
      "note": 49,
      "start": 9.9411,
      "duration": 0.0298,
      "velocity": 107,
      "chip": "ym2612"
    },
    {
      "channel": 2,
      "note": 61,
      "start": 9.9413,
      "duration": 0.0008,
      "velocity": 113,
      "chip": "ym2612"
    },
    {
      "channel": 3,
      "note": 37,
      "start": 9.9416,
      "duration": 0.0298,
      "velocity": 105,
      "chip": "ym2612"
    },
    {
      "channel": 4,
      "note": 37,
      "start": 9.942,
      "duration": 0.0298,
      "velocity": 105,
      "chip": "ym2612"
    },
    {
      "channel": 1,
      "note": 49,
      "start": 9.971,
      "duration": 0.1834,
      "velocity": 107,
      "chip": "ym2612"
    },
    {
      "channel": 2,
      "note": 61,
      "start": 9.9712,
      "duration": 0.1165,
      "velocity": 113,
      "chip": "ym2612"
    },
    {
      "channel": 3,
      "note": 37,
      "start": 9.9716,
      "duration": 0.1833,
      "velocity": 105,
      "chip": "ym2612"
    },
    {
      "channel": 4,
      "note": 37,
      "start": 9.9719,
      "duration": 0.1832,
      "velocity": 105,
      "chip": "ym2612"
    },
    {
      "channel": 4,
      "note": 37,
      "start": 10.1552,
      "duration": 0.0007,
      "velocity": 105,
      "chip": "ym2612"
    },
    {
      "channel": 1,
      "note": 49,
      "start": 10.1555,
      "duration": 0.0029,
      "velocity": 107,
      "chip": "ym2612"
    },
    {
      "channel": 2,
      "note": 61,
      "start": 10.1557,
      "duration": 0.0007,
      "velocity": 113,
      "chip": "ym2612"
    },
    {
      "channel": 4,
      "note": 37,
      "start": 10.1561,
      "duration": 0.0013,
      "velocity": 105,
      "chip": "ym2612"
    },
    {
      "channel": 2,
      "note": 61,
      "start": 10.1567,
      "duration": 0.0002,
      "velocity": 113,
      "chip": "ym2612"
    },
    {
      "channel": 2,
      "note": 61,
      "start": 10.1571,
      "duration": 0.0007,
      "velocity": 113,
      "chip": "ym2612"
    },
    {
      "channel": 4,
      "note": 37,
      "start": 10.1575,
      "duration": 0.0015,
      "velocity": 105,
      "chip": "ym2612"
    },
    {
      "channel": 2,
      "note": 61,
      "start": 10.1581,
      "duration": 0.0001,
      "velocity": 113,
      "chip": "ym2612"
    },
    {
      "channel": 2,
      "note": 61,
      "start": 10.1586,
      "duration": 0.0007,
      "velocity": 113,
      "chip": "ym2612"
    },
    {
      "channel": 2,
      "note": 61,
      "start": 10.1596,
      "duration": 0.0002,
      "velocity": 113,
      "chip": "ym2612"
    },
    {
      "channel": 3,
      "note": 35,
      "start": 10.1618,
      "duration": 0.0005,
      "velocity": 105,
      "chip": "ym2612"
    },
    {
      "channel": 3,
      "note": 35,
      "start": 10.1624,
      "duration": 0.0005,
      "velocity": 105,
      "chip": "ym2612"
    },
    {
      "channel": 0,
      "note": 49,
      "start": 10.1625,
      "duration": 0.0009,
      "velocity": 107,
      "chip": "ym2612"
    },
    {
      "channel": 3,
      "note": 37,
      "start": 10.1629,
      "duration": 0.0007,
      "velocity": 105,
      "chip": "ym2612"
    },
    {
      "channel": 0,
      "note": 49,
      "start": 10.1635,
      "duration": 0.0307,
      "velocity": 107,
      "chip": "ym2612"
    },
    {
      "channel": 3,
      "note": 37,
      "start": 10.1638,
      "duration": 0.0006,
      "velocity": 105,
      "chip": "ym2612"
    },
    {
      "channel": 4,
      "note": 35,
      "start": 10.164,
      "duration": 0.0008,
      "velocity": 105,
      "chip": "ym2612"
    },
    {
      "channel": 3,
      "note": 37,
      "start": 10.1645,
      "duration": 0.0303,
      "velocity": 105,
      "chip": "ym2612"
    },
    {
      "channel": 4,
      "note": 35,
      "start": 10.1649,
      "duration": 0.0303,
      "velocity": 105,
      "chip": "ym2612"
    },
    {
      "channel": 0,
      "note": 49,
      "start": 10.1944,
      "duration": 0.2002,
      "velocity": 107,
      "chip": "ym2612"
    },
    {
      "channel": 1,
      "note": 49,
      "start": 10.1946,
      "duration": 0.2001,
      "velocity": 107,
      "chip": "ym2612"
    },
    {
      "channel": 3,
      "note": 37,
      "start": 10.1949,
      "duration": 0.2003,
      "velocity": 105,
      "chip": "ym2612"
    },
    {
      "channel": 4,
      "note": 37,
      "start": 10.1953,
      "duration": 0.2001,
      "velocity": 105,
      "chip": "ym2612"
    },
    {
      "channel": 0,
      "note": 49,
      "start": 10.3947,
      "duration": 0.0011,
      "velocity": 107,
      "chip": "ym2612"
    },
    {
      "channel": 1,
      "note": 49,
      "start": 10.3948,
      "duration": 0.0022,
      "velocity": 107,
      "chip": "ym2612"
    },
    {
      "channel": 2,
      "note": 61,
      "start": 10.395,
      "duration": 0.0018,
      "velocity": 113,
      "chip": "ym2612"
    },
    {
      "channel": 3,
      "note": 37,
      "start": 10.3954,
      "duration": 0.0007,
      "velocity": 105,
      "chip": "ym2612"
    },
    {
      "channel": 4,
      "note": 37,
      "start": 10.3956,
      "duration": 0.0009,
      "velocity": 105,
      "chip": "ym2612"
    },
    {
      "channel": 3,
      "note": 37,
      "start": 10.3962,
      "duration": 0.0014,
      "velocity": 105,
      "chip": "ym2612"
    },
    {
      "channel": 4,
      "note": 37,
      "start": 10.3966,
      "duration": 0.0014,
      "velocity": 105,
      "chip": "ym2612"
    },
    {
      "channel": 0,
      "note": 49,
      "start": 10.397,
      "duration": 0.2302,
      "velocity": 107,
      "chip": "ym2612"
    },
    {
      "channel": 1,
      "note": 49,
      "start": 10.3972,
      "duration": 0.0298,
      "velocity": 107,
      "chip": "ym2612"
    },
    {
      "channel": 2,
      "note": 61,
      "start": 10.3973,
      "duration": 0.0008,
      "velocity": 113,
      "chip": "ym2612"
    },
    {
      "channel": 3,
      "note": 37,
      "start": 10.3977,
      "duration": 0.0298,
      "velocity": 105,
      "chip": "ym2612"
    },
    {
      "channel": 4,
      "note": 37,
      "start": 10.398,
      "duration": 0.0298,
      "velocity": 105,
      "chip": "ym2612"
    },
    {
      "channel": 1,
      "note": 49,
      "start": 10.4271,
      "duration": 0.2001,
      "velocity": 107,
      "chip": "ym2612"
    },
    {
      "channel": 2,
      "note": 61,
      "start": 10.4273,
      "duration": 0.1332,
      "velocity": 113,
      "chip": "ym2612"
    },
    {
      "channel": 3,
      "note": 37,
      "start": 10.4276,
      "duration": 0.2,
      "velocity": 105,
      "chip": "ym2612"
    },
    {
      "channel": 4,
      "note": 37,
      "start": 10.428,
      "duration": 0.1999,
      "velocity": 105,
      "chip": "ym2612"
    },
    {
      "channel": 4,
      "note": 37,
      "start": 10.628,
      "duration": 0.0007,
      "velocity": 105,
      "chip": "ym2612"
    },
    {
      "channel": 1,
      "note": 49,
      "start": 10.6283,
      "duration": 0.0315,
      "velocity": 107,
      "chip": "ym2612"
    },
    {
      "channel": 2,
      "note": 61,
      "start": 10.6285,
      "duration": 0.0007,
      "velocity": 113,
      "chip": "ym2612"
    },
    {
      "channel": 4,
      "note": 37,
      "start": 10.6288,
      "duration": 0.0013,
      "velocity": 105,
      "chip": "ym2612"
    },
    {
      "channel": 2,
      "note": 61,
      "start": 10.6294,
      "duration": 0.0001,
      "velocity": 113,
      "chip": "ym2612"
    },
    {
      "channel": 2,
      "note": 61,
      "start": 10.6299,
      "duration": 0.0005,
      "velocity": 113,
      "chip": "ym2612"
    },
    {
      "channel": 4,
      "note": 37,
      "start": 10.6302,
      "duration": 0.0301,
      "velocity": 105,
      "chip": "ym2612"
    },
    {
      "channel": 2,
      "note": 61,
      "start": 10.6307,
      "duration": 0.0002,
      "velocity": 113,
      "chip": "ym2612"
    },
    {
      "channel": 2,
      "note": 61,
      "start": 10.6599,
      "duration": 0.0332,
      "velocity": 113,
      "chip": "ym2612"
    },
    {
      "channel": 2,
      "note": 61,
      "start": 10.7434,
      "duration": 0.0332,
      "velocity": 113,
      "chip": "ym2612"
    },
    {
      "channel": 3,
      "note": 61,
      "start": 10.8437,
      "duration": 0.0012,
      "velocity": 105,
      "chip": "ym2612"
    },
    {
      "channel": 3,
      "note": 35,
      "start": 10.846,
      "duration": 0.0008,
      "velocity": 105,
      "chip": "ym2612"
    },
    {
      "channel": 3,
      "note": 35,
      "start": 10.8469,
      "duration": 0.0007,
      "velocity": 105,
      "chip": "ym2612"
    },
    {
      "channel": 4,
      "note": 61,
      "start": 10.8472,
      "duration": 0.0007,
      "velocity": 105,
      "chip": "ym2612"
    },
    {
      "channel": 0,
      "note": 49,
      "start": 10.8473,
      "duration": 0.0013,
      "velocity": 107,
      "chip": "ym2612"
    },
    {
      "channel": 3,
      "note": 37,
      "start": 10.8477,
      "duration": 0.0011,
      "velocity": 105,
      "chip": "ym2612"
    },
    {
      "channel": 0,
      "note": 49,
      "start": 10.8487,
      "duration": 0.0307,
      "velocity": 107,
      "chip": "ym2612"
    },
    {
      "channel": 3,
      "note": 37,
      "start": 10.849,
      "duration": 0.0006,
      "velocity": 105,
      "chip": "ym2612"
    },
    {
      "channel": 4,
      "note": 35,
      "start": 10.8491,
      "duration": 0.0008,
      "velocity": 105,
      "chip": "ym2612"
    },
    {
      "channel": 3,
      "note": 37,
      "start": 10.8497,
      "duration": 0.0303,
      "velocity": 105,
      "chip": "ym2612"
    },
    {
      "channel": 4,
      "note": 35,
      "start": 10.85,
      "duration": 0.0303,
      "velocity": 105,
      "chip": "ym2612"
    },
    {
      "channel": 0,
      "note": 49,
      "start": 10.8795,
      "duration": 0.2001,
      "velocity": 107,
      "chip": "ym2612"
    },
    {
      "channel": 1,
      "note": 49,
      "start": 10.8797,
      "duration": 0.2002,
      "velocity": 107,
      "chip": "ym2612"
    },
    {
      "channel": 3,
      "note": 37,
      "start": 10.8801,
      "duration": 0.2003,
      "velocity": 105,
      "chip": "ym2612"
    },
    {
      "channel": 4,
      "note": 37,
      "start": 10.8804,
      "duration": 0.2002,
      "velocity": 105,
      "chip": "ym2612"
    },
    {
      "channel": 0,
      "note": 49,
      "start": 11.0798,
      "duration": 0.0011,
      "velocity": 107,
      "chip": "ym2612"
    },
    {
      "channel": 1,
      "note": 49,
      "start": 11.08,
      "duration": 0.0022,
      "velocity": 107,
      "chip": "ym2612"
    },
    {
      "channel": 2,
      "note": 61,
      "start": 11.0802,
      "duration": 0.0018,
      "velocity": 113,
      "chip": "ym2612"
    },
    {
      "channel": 3,
      "note": 37,
      "start": 11.0805,
      "duration": 0.0007,
      "velocity": 105,
      "chip": "ym2612"
    },
    {
      "channel": 4,
      "note": 37,
      "start": 11.0807,
      "duration": 0.0009,
      "velocity": 105,
      "chip": "ym2612"
    },
    {
      "channel": 3,
      "note": 37,
      "start": 11.0813,
      "duration": 0.0013,
      "velocity": 105,
      "chip": "ym2612"
    },
    {
      "channel": 4,
      "note": 37,
      "start": 11.0817,
      "duration": 0.0013,
      "velocity": 105,
      "chip": "ym2612"
    },
    {
      "channel": 0,
      "note": 49,
      "start": 11.0821,
      "duration": 0.2302,
      "velocity": 107,
      "chip": "ym2612"
    },
    {
      "channel": 1,
      "note": 49,
      "start": 11.0823,
      "duration": 0.0298,
      "velocity": 107,
      "chip": "ym2612"
    },
    {
      "channel": 2,
      "note": 61,
      "start": 11.0824,
      "duration": 0.0008,
      "velocity": 113,
      "chip": "ym2612"
    },
    {
      "channel": 3,
      "note": 37,
      "start": 11.0828,
      "duration": 0.0298,
      "velocity": 105,
      "chip": "ym2612"
    },
    {
      "channel": 4,
      "note": 37,
      "start": 11.0831,
      "duration": 0.0298,
      "velocity": 105,
      "chip": "ym2612"
    },
    {
      "channel": 1,
      "note": 49,
      "start": 11.1122,
      "duration": 0.2001,
      "velocity": 107,
      "chip": "ym2612"
    },
    {
      "channel": 2,
      "note": 61,
      "start": 11.1124,
      "duration": 0.1332,
      "velocity": 113,
      "chip": "ym2612"
    },
    {
      "channel": 3,
      "note": 37,
      "start": 11.1127,
      "duration": 0.2,
      "velocity": 105,
      "chip": "ym2612"
    },
    {
      "channel": 4,
      "note": 37,
      "start": 11.1131,
      "duration": 0.1999,
      "velocity": 105,
      "chip": "ym2612"
    },
    {
      "channel": 4,
      "note": 37,
      "start": 11.3131,
      "duration": 0.0007,
      "velocity": 105,
      "chip": "ym2612"
    },
    {
      "channel": 1,
      "note": 49,
      "start": 11.3134,
      "duration": 0.0028,
      "velocity": 107,
      "chip": "ym2612"
    },
    {
      "channel": 2,
      "note": 61,
      "start": 11.3136,
      "duration": 0.0005,
      "velocity": 113,
      "chip": "ym2612"
    },
    {
      "channel": 4,
      "note": 37,
      "start": 11.3139,
      "duration": 0.0013,
      "velocity": 105,
      "chip": "ym2612"
    },
    {
      "channel": 2,
      "note": 61,
      "start": 11.3144,
      "duration": 0.0002,
      "velocity": 113,
      "chip": "ym2612"
    },
    {
      "channel": 2,
      "note": 61,
      "start": 11.3148,
      "duration": 0.0006,
      "velocity": 113,
      "chip": "ym2612"
    },
    {
      "channel": 3,
      "note": 37,
      "start": 11.315,
      "duration": 0.0014,
      "velocity": 105,
      "chip": "ym2612"
    },
    {
      "channel": 4,
      "note": 37,
      "start": 11.3154,
      "duration": 0.0014,
      "velocity": 105,
      "chip": "ym2612"
    },
    {
      "channel": 2,
      "note": 61,
      "start": 11.3158,
      "duration": 0.0002,
      "velocity": 113,
      "chip": "ym2612"
    },
    {
      "channel": 2,
      "note": 61,
      "start": 11.3163,
      "duration": 0.0005,
      "velocity": 113,
      "chip": "ym2612"
    },
    {
      "channel": 2,
      "note": 61,
      "start": 11.3171,
      "duration": 0.0002,
      "velocity": 113,
      "chip": "ym2612"
    },
    {
      "channel": 3,
      "note": 61,
      "start": 11.3177,
      "duration": 0.0012,
      "velocity": 105,
      "chip": "ym2612"
    },
    {
      "channel": 4,
      "note": 37,
      "start": 11.3191,
      "duration": 0.0009,
      "velocity": 105,
      "chip": "ym2612"
    },
    {
      "channel": 3,
      "note": 35,
      "start": 11.3199,
      "duration": 0.0008,
      "velocity": 105,
      "chip": "ym2612"
    },
    {
      "channel": 3,
      "note": 35,
      "start": 11.3209,
      "duration": 0.0044,
      "velocity": 105,
      "chip": "ym2612"
    },
    {
      "channel": 4,
      "note": 61,
      "start": 11.3212,
      "duration": 0.0044,
      "velocity": 105,
      "chip": "ym2612"
    },
    {
      "channel": 0,
      "note": 71,
      "start": 11.3228,
      "duration": 0.4773,
      "velocity": 99,
      "chip": "ym2612"
    },
    {
      "channel": 2,
      "note": 49,
      "start": 11.325,
      "duration": 0.0033,
      "velocity": 113,
      "chip": "ym2612"
    },
    {
      "channel": 3,
      "note": 37,
      "start": 11.3253,
      "duration": 0.0019,
      "velocity": 105,
      "chip": "ym2612"
    },
    {
      "channel": 3,
      "note": 37,
      "start": 11.3273,
      "duration": 0.0004,
      "velocity": 105,
      "chip": "ym2612"
    },
    {
      "channel": 4,
      "note": 35,
      "start": 11.3275,
      "duration": 0.0006,
      "velocity": 105,
      "chip": "ym2612"
    },
    {
      "channel": 3,
      "note": 37,
      "start": 11.3279,
      "duration": 0.0024,
      "velocity": 105,
      "chip": "ym2612"
    },
    {
      "channel": 4,
      "note": 35,
      "start": 11.3282,
      "duration": 0.0024,
      "velocity": 105,
      "chip": "ym2612"
    },
    {
      "channel": 1,
      "note": 71,
      "start": 11.3298,
      "duration": 0.4764,
      "velocity": 99,
      "chip": "ym2612"
    },
    {
      "channel": 2,
      "note": 61,
      "start": 11.3301,
      "duration": 0.0015,
      "velocity": 113,
      "chip": "ym2612"
    },
    {
      "channel": 3,
      "note": 37,
      "start": 11.3304,
      "duration": 0.0019,
      "velocity": 105,
      "chip": "ym2612"
    },
    {
      "channel": 4,
      "note": 37,
      "start": 11.3307,
      "duration": 0.0018,
      "velocity": 105,
      "chip": "ym2612"
    },
    {
      "channel": 2,
      "note": 61,
      "start": 11.3321,
      "duration": 0.0019,
      "velocity": 113,
      "chip": "ym2612"
    },
    {
      "channel": 3,
      "note": 37,
      "start": 11.3324,
      "duration": 0.0009,
      "velocity": 105,
      "chip": "ym2612"
    },
    {
      "channel": 4,
      "note": 37,
      "start": 11.3326,
      "duration": 0.001,
      "velocity": 105,
      "chip": "ym2612"
    },
    {
      "channel": 3,
      "note": 37,
      "start": 11.3334,
      "duration": 0.001,
      "velocity": 105,
      "chip": "ym2612"
    },
    {
      "channel": 4,
      "note": 37,
      "start": 11.3338,
      "duration": 0.001,
      "velocity": 105,
      "chip": "ym2612"
    },
    {
      "channel": 2,
      "note": 61,
      "start": 11.3342,
      "duration": 0.0008,
      "velocity": 113,
      "chip": "ym2612"
    },
    {
      "channel": 3,
      "note": 37,
      "start": 11.3345,
      "duration": 0.0299,
      "velocity": 105,
      "chip": "ym2612"
    },
    {
      "channel": 4,
      "note": 37,
      "start": 11.3349,
      "duration": 0.0299,
      "velocity": 105,
      "chip": "ym2612"
    },
    {
      "channel": 3,
      "note": 37,
      "start": 11.3645,
      "duration": 0.2003,
      "velocity": 105,
      "chip": "ym2612"
    },
    {
      "channel": 4,
      "note": 37,
      "start": 11.3649,
      "duration": 0.2002,
      "velocity": 105,
      "chip": "ym2612"
    },
    {
      "channel": 4,
      "note": 37,
      "start": 11.5652,
      "duration": 0.0007,
      "velocity": 105,
      "chip": "ym2612"
    },
    {
      "channel": 4,
      "note": 37,
      "start": 11.566,
      "duration": 0.0016,
      "velocity": 105,
      "chip": "ym2612"
    },
    {
      "channel": 2,
      "note": 85,
      "start": 11.5674,
      "duration": 0.0005,
      "velocity": 115,
      "chip": "ym2612"
    },
    {
      "channel": 4,
      "note": 37,
      "start": 11.5677,
      "duration": 0.0298,
      "velocity": 105,
      "chip": "ym2612"
    },
    {
      "channel": 2,
      "note": 92,
      "start": 11.568,
      "duration": 0.0002,
      "velocity": 115,
      "chip": "ym2612"
    },
    {
      "channel": 2,
      "note": 97,
      "start": 11.5971,
      "duration": 0.0332,
      "velocity": 115,
      "chip": "ym2612"
    },
    {
      "channel": 2,
      "note": 92,
      "start": 11.6971,
      "duration": 0.0332,
      "velocity": 115,
      "chip": "ym2612"
    },
    {
      "channel": 2,
      "note": 90,
      "start": 11.7973,
      "duration": 0.0006,
      "velocity": 115,
      "chip": "ym2612"
    },
    {
      "channel": 3,
      "note": 61,
      "start": 11.7976,
      "duration": 0.0015,
      "velocity": 105,
      "chip": "ym2612"
    },
    {
      "channel": 2,
      "note": 97,
      "start": 11.7981,
      "duration": 0.0002,
      "velocity": 115,
      "chip": "ym2612"
    },
    {
      "channel": 2,
      "note": 102,
      "start": 11.7989,
      "duration": 0.0005,
      "velocity": 115,
      "chip": "ym2612"
    },
    {
      "channel": 2,
      "note": 97,
      "start": 11.7996,
      "duration": 0.0002,
      "velocity": 115,
      "chip": "ym2612"
    },
    {
      "channel": 0,
      "note": 75,
      "start": 11.8002,
      "duration": 0.0036,
      "velocity": 99,
      "chip": "ym2612"
    },
    {
      "channel": 2,
      "note": 88,
      "start": 11.8004,
      "duration": 0.0008,
      "velocity": 115,
      "chip": "ym2612"
    },
    {
      "channel": 3,
      "note": 35,
      "start": 11.8006,
      "duration": 0.0016,
      "velocity": 105,
      "chip": "ym2612"
    },
    {
      "channel": 2,
      "note": 83,
      "start": 11.8015,
      "duration": 0.0002,
      "velocity": 115,
      "chip": "ym2612"
    },
    {
      "channel": 2,
      "note": 88,
      "start": 11.802,
      "duration": 0.0008,
      "velocity": 115,
      "chip": "ym2612"
    },
    {
      "channel": 3,
      "note": 35,
      "start": 11.8024,
      "duration": 0.003,
      "velocity": 105,
      "chip": "ym2612"
    },
    {
      "channel": 4,
      "note": 61,
      "start": 11.8027,
      "duration": 0.003,
      "velocity": 105,
      "chip": "ym2612"
    },
    {
      "channel": 2,
      "note": 83,
      "start": 11.803,
      "duration": 0.0002,
      "velocity": 115,
      "chip": "ym2612"
    },
    {
      "channel": 0,
      "note": 76,
      "start": 11.8039,
      "duration": 0.4637,
      "velocity": 99,
      "chip": "ym2612"
    },
    {
      "channel": 3,
      "note": 37,
      "start": 11.8055,
      "duration": 0.001,
      "velocity": 105,
      "chip": "ym2612"
    },
    {
      "channel": 1,
      "note": 75,
      "start": 11.8063,
      "duration": 0.0478,
      "velocity": 99,
      "chip": "ym2612"
    },
    {
      "channel": 3,
      "note": 37,
      "start": 11.8066,
      "duration": 0.0007,
      "velocity": 105,
      "chip": "ym2612"
    },
    {
      "channel": 4,
      "note": 35,
      "start": 11.8067,
      "duration": 0.0009,
      "velocity": 105,
      "chip": "ym2612"
    },
    {
      "channel": 2,
      "note": 85,
      "start": 11.8071,
      "duration": 0.0008,
      "velocity": 113,
      "chip": "ym2612"
    },
    {
      "channel": 3,
      "note": 37,
      "start": 11.8074,
      "duration": 0.0471,
      "velocity": 105,
      "chip": "ym2612"
    },
    {
      "channel": 4,
      "note": 35,
      "start": 11.8078,
      "duration": 0.0471,
      "velocity": 105,
      "chip": "ym2612"
    },
    {
      "channel": 1,
      "note": 76,
      "start": 11.8542,
      "duration": 0.4464,
      "velocity": 99,
      "chip": "ym2612"
    },
    {
      "channel": 3,
      "note": 37,
      "start": 11.8546,
      "duration": 0.1835,
      "velocity": 105,
      "chip": "ym2612"
    },
    {
      "channel": 4,
      "note": 37,
      "start": 11.8549,
      "duration": 0.1833,
      "velocity": 105,
      "chip": "ym2612"
    },
    {
      "channel": 2,
      "note": 61,
      "start": 12.0378,
      "duration": 0.0021,
      "velocity": 113,
      "chip": "ym2612"
    },
    {
      "channel": 3,
      "note": 37,
      "start": 12.0382,
      "duration": 0.001,
      "velocity": 105,
      "chip": "ym2612"
    },
    {
      "channel": 4,
      "note": 37,
      "start": 12.0384,
      "duration": 0.0012,
      "velocity": 105,
      "chip": "ym2612"
    },
    {
      "channel": 3,
      "note": 37,
      "start": 12.0393,
      "duration": 0.001,
      "velocity": 105,
      "chip": "ym2612"
    },
    {
      "channel": 4,
      "note": 37,
      "start": 12.0397,
      "duration": 0.001,
      "velocity": 105,
      "chip": "ym2612"
    },
    {
      "channel": 2,
      "note": 61,
      "start": 12.0401,
      "duration": 0.0008,
      "velocity": 113,
      "chip": "ym2612"
    },
    {
      "channel": 3,
      "note": 37,
      "start": 12.0404,
      "duration": 0.0299,
      "velocity": 105,
      "chip": "ym2612"
    },
    {
      "channel": 4,
      "note": 37,
      "start": 12.0408,
      "duration": 0.0299,
      "velocity": 105,
      "chip": "ym2612"
    },
    {
      "channel": 3,
      "note": 37,
      "start": 12.0704,
      "duration": 0.1836,
      "velocity": 105,
      "chip": "ym2612"
    },
    {
      "channel": 4,
      "note": 37,
      "start": 12.0708,
      "duration": 0.1835,
      "velocity": 105,
      "chip": "ym2612"
    },
    {
      "channel": 4,
      "note": 37,
      "start": 12.2544,
      "duration": 0.0004,
      "velocity": 105,
      "chip": "ym2612"
    },
    {
      "channel": 4,
      "note": 37,
      "start": 12.2549,
      "duration": 0.0024,
      "velocity": 105,
      "chip": "ym2612"
    },
    {
      "channel": 2,
      "note": 85,
      "start": 12.2569,
      "duration": 0.0011,
      "velocity": 115,
      "chip": "ym2612"
    },
    {
      "channel": 3,
      "note": 37,
      "start": 12.2571,
      "duration": 0.0018,
      "velocity": 105,
      "chip": "ym2612"
    },
    {
      "channel": 4,
      "note": 37,
      "start": 12.2574,
      "duration": 0.0018,
      "velocity": 105,
      "chip": "ym2612"
    },
    {
      "channel": 2,
      "note": 92,
      "start": 12.2582,
      "duration": 0.0002,
      "velocity": 115,
      "chip": "ym2612"
    },
    {
      "channel": 2,
      "note": 97,
      "start": 12.2588,
      "duration": 0.0007,
      "velocity": 115,
      "chip": "ym2612"
    },
    {
      "channel": 2,
      "note": 92,
      "start": 12.2597,
      "duration": 0.0002,
      "velocity": 115,
      "chip": "ym2612"
    },
    {
      "channel": 2,
      "note": 90,
      "start": 12.2613,
      "duration": 0.0006,
      "velocity": 115,
      "chip": "ym2612"
    },
    {
      "channel": 3,
      "note": 61,
      "start": 12.2617,
      "duration": 0.0015,
      "velocity": 105,
      "chip": "ym2612"
    },
    {
      "channel": 2,
      "note": 97,
      "start": 12.2622,
      "duration": 0.0001,
      "velocity": 115,
      "chip": "ym2612"
    },
    {
      "channel": 2,
      "note": 102,
      "start": 12.263,
      "duration": 0.0007,
      "velocity": 115,
      "chip": "ym2612"
    },
    {
      "channel": 4,
      "note": 37,
      "start": 12.2634,
      "duration": 0.0013,
      "velocity": 105,
      "chip": "ym2612"
    },
    {
      "channel": 2,
      "note": 97,
      "start": 12.2639,
      "duration": 0.0001,
      "velocity": 115,
      "chip": "ym2612"
    },
    {
      "channel": 2,
      "note": 102,
      "start": 12.2644,
      "duration": 0.0006,
      "velocity": 115,
      "chip": "ym2612"
    },
    {
      "channel": 3,
      "note": 35,
      "start": 12.2646,
      "duration": 0.0015,
      "velocity": 105,
      "chip": "ym2612"
    },
    {
      "channel": 2,
      "note": 97,
      "start": 12.2653,
      "duration": 0.0002,
      "velocity": 115,
      "chip": "ym2612"
    },
    {
      "channel": 2,
      "note": 102,
      "start": 12.2658,
      "duration": 0.0007,
      "velocity": 115,
      "chip": "ym2612"
    },
    {
      "channel": 3,
      "note": 35,
      "start": 12.2662,
      "duration": 0.0031,
      "velocity": 105,
      "chip": "ym2612"
    },
    {
      "channel": 4,
      "note": 61,
      "start": 12.2665,
      "duration": 0.0031,
      "velocity": 105,
      "chip": "ym2612"
    },
    {
      "channel": 2,
      "note": 97,
      "start": 12.2668,
      "duration": 0.0002,
      "velocity": 115,
      "chip": "ym2612"
    },
    {
      "channel": 0,
      "note": 75,
      "start": 12.2677,
      "duration": 0.6861,
      "velocity": 99,
      "chip": "ym2612"
    },
    {
      "channel": 3,
      "note": 37,
      "start": 12.2694,
      "duration": 0.0005,
      "velocity": 105,
      "chip": "ym2612"
    },
    {
      "channel": 3,
      "note": 37,
      "start": 12.27,
      "duration": 0.0006,
      "velocity": 105,
      "chip": "ym2612"
    },
    {
      "channel": 4,
      "note": 35,
      "start": 12.2701,
      "duration": 0.0008,
      "velocity": 105,
      "chip": "ym2612"
    },
    {
      "channel": 3,
      "note": 37,
      "start": 12.2707,
      "duration": 0.0304,
      "velocity": 105,
      "chip": "ym2612"
    },
    {
      "channel": 4,
      "note": 35,
      "start": 12.271,
      "duration": 0.0304,
      "velocity": 105,
      "chip": "ym2612"
    },
    {
      "channel": 1,
      "note": 75,
      "start": 12.3008,
      "duration": 0.6595,
      "velocity": 99,
      "chip": "ym2612"
    },
    {
      "channel": 3,
      "note": 37,
      "start": 12.3012,
      "duration": 0.2002,
      "velocity": 105,
      "chip": "ym2612"
    },
    {
      "channel": 4,
      "note": 37,
      "start": 12.3015,
      "duration": 0.2,
      "velocity": 105,
      "chip": "ym2612"
    },
    {
      "channel": 2,
      "note": 61,
      "start": 12.5011,
      "duration": 0.0022,
      "velocity": 113,
      "chip": "ym2612"
    },
    {
      "channel": 3,
      "note": 37,
      "start": 12.5014,
      "duration": 0.0011,
      "velocity": 105,
      "chip": "ym2612"
    },
    {
      "channel": 4,
      "note": 37,
      "start": 12.5016,
      "duration": 0.0012,
      "velocity": 105,
      "chip": "ym2612"
    },
    {
      "channel": 3,
      "note": 37,
      "start": 12.5026,
      "duration": 0.001,
      "velocity": 105,
      "chip": "ym2612"
    },
    {
      "channel": 4,
      "note": 37,
      "start": 12.503,
      "duration": 0.001,
      "velocity": 105,
      "chip": "ym2612"
    },
    {
      "channel": 2,
      "note": 61,
      "start": 12.5034,
      "duration": 0.0008,
      "velocity": 113,
      "chip": "ym2612"
    },
    {
      "channel": 3,
      "note": 37,
      "start": 12.5037,
      "duration": 0.0467,
      "velocity": 105,
      "chip": "ym2612"
    },
    {
      "channel": 4,
      "note": 37,
      "start": 12.5041,
      "duration": 0.0467,
      "velocity": 105,
      "chip": "ym2612"
    },
    {
      "channel": 3,
      "note": 37,
      "start": 12.5506,
      "duration": 0.1837,
      "velocity": 105,
      "chip": "ym2612"
    },
    {
      "channel": 4,
      "note": 37,
      "start": 12.5509,
      "duration": 0.1836,
      "velocity": 105,
      "chip": "ym2612"
    },
    {
      "channel": 4,
      "note": 37,
      "start": 12.7346,
      "duration": 0.0016,
      "velocity": 105,
      "chip": "ym2612"
    },
    {
      "channel": 4,
      "note": 37,
      "start": 12.7363,
      "duration": 0.0017,
      "velocity": 105,
      "chip": "ym2612"
    },
    {
      "channel": 2,
      "note": 85,
      "start": 12.7377,
      "duration": 0.0005,
      "velocity": 115,
      "chip": "ym2612"
    },
    {
      "channel": 4,
      "note": 37,
      "start": 12.738,
      "duration": 0.0297,
      "velocity": 105,
      "chip": "ym2612"
    },
    {
      "channel": 2,
      "note": 92,
      "start": 12.7383,
      "duration": 0.0002,
      "velocity": 115,
      "chip": "ym2612"
    },
    {
      "channel": 2,
      "note": 97,
      "start": 12.7674,
      "duration": 0.0331,
      "velocity": 115,
      "chip": "ym2612"
    },
    {
      "channel": 2,
      "note": 92,
      "start": 12.8674,
      "duration": 0.0166,
      "velocity": 115,
      "chip": "ym2612"
    },
    {
      "channel": 2,
      "note": 90,
      "start": 12.9509,
      "duration": 0.0006,
      "velocity": 115,
      "chip": "ym2612"
    },
    {
      "channel": 3,
      "note": 61,
      "start": 12.9512,
      "duration": 0.0015,
      "velocity": 105,
      "chip": "ym2612"
    },
    {
      "channel": 2,
      "note": 97,
      "start": 12.9517,
      "duration": 0.0001,
      "velocity": 115,
      "chip": "ym2612"
    },
    {
      "channel": 2,
      "note": 102,
      "start": 12.9525,
      "duration": 0.0005,
      "velocity": 115,
      "chip": "ym2612"
    },
    {
      "channel": 2,
      "note": 97,
      "start": 12.9532,
      "duration": 0.0002,
      "velocity": 115,
      "chip": "ym2612"
    },
    {
      "channel": 0,
      "note": 76,
      "start": 12.9539,
      "duration": 0.0036,
      "velocity": 99,
      "chip": "ym2612"
    },
    {
      "channel": 2,
      "note": 88,
      "start": 12.9542,
      "duration": 0.0008,
      "velocity": 115,
      "chip": "ym2612"
    },
    {
      "channel": 3,
      "note": 35,
      "start": 12.9544,
      "duration": 0.0017,
      "velocity": 105,
      "chip": "ym2612"
    },
    {
      "channel": 2,
      "note": 83,
      "start": 12.9552,
      "duration": 0.0002,
      "velocity": 115,
      "chip": "ym2612"
    },
    {
      "channel": 2,
      "note": 88,
      "start": 12.9558,
      "duration": 0.0007,
      "velocity": 115,
      "chip": "ym2612"
    },
    {
      "channel": 3,
      "note": 35,
      "start": 12.9561,
      "duration": 0.0029,
      "velocity": 105,
      "chip": "ym2612"
    },
    {
      "channel": 4,
      "note": 61,
      "start": 12.9565,
      "duration": 0.0029,
      "velocity": 105,
      "chip": "ym2612"
    },
    {
      "channel": 2,
      "note": 83,
      "start": 12.9568,
      "duration": 0.0002,
      "velocity": 115,
      "chip": "ym2612"
    },
    {
      "channel": 0,
      "note": 78,
      "start": 12.9576,
      "duration": 0.48,
      "velocity": 99,
      "chip": "ym2612"
    },
    {
      "channel": 3,
      "note": 37,
      "start": 12.9592,
      "duration": 0.0012,
      "velocity": 105,
      "chip": "ym2612"
    },
    {
      "channel": 1,
      "note": 76,
      "start": 12.9603,
      "duration": 0.0308,
      "velocity": 99,
      "chip": "ym2612"
    },
    {
      "channel": 3,
      "note": 37,
      "start": 12.9606,
      "duration": 0.0007,
      "velocity": 105,
      "chip": "ym2612"
    },
    {
      "channel": 4,
      "note": 35,
      "start": 12.9607,
      "duration": 0.0009,
      "velocity": 105,
      "chip": "ym2612"
    },
    {
      "channel": 2,
      "note": 85,
      "start": 12.9611,
      "duration": 0.0008,
      "velocity": 113,
      "chip": "ym2612"
    },
    {
      "channel": 3,
      "note": 37,
      "start": 12.9614,
      "duration": 0.0301,
      "velocity": 105,
      "chip": "ym2612"
    },
    {
      "channel": 4,
      "note": 35,
      "start": 12.9617,
      "duration": 0.0301,
      "velocity": 105,
      "chip": "ym2612"
    },
    {
      "channel": 1,
      "note": 78,
      "start": 12.9912,
      "duration": 0.4499,
      "velocity": 99,
      "chip": "ym2612"
    },
    {
      "channel": 3,
      "note": 37,
      "start": 12.9917,
      "duration": 0.2002,
      "velocity": 105,
      "chip": "ym2612"
    },
    {
      "channel": 4,
      "note": 37,
      "start": 12.992,
      "duration": 0.2,
      "velocity": 105,
      "chip": "ym2612"
    },
    {
      "channel": 2,
      "note": 61,
      "start": 13.1916,
      "duration": 0.0021,
      "velocity": 113,
      "chip": "ym2612"
    },
    {
      "channel": 3,
      "note": 37,
      "start": 13.1919,
      "duration": 0.001,
      "velocity": 105,
      "chip": "ym2612"
    },
    {
      "channel": 4,
      "note": 37,
      "start": 13.1921,
      "duration": 0.0012,
      "velocity": 105,
      "chip": "ym2612"
    },
    {
      "channel": 3,
      "note": 37,
      "start": 13.1931,
      "duration": 0.001,
      "velocity": 105,
      "chip": "ym2612"
    },
    {
      "channel": 4,
      "note": 37,
      "start": 13.1934,
      "duration": 0.001,
      "velocity": 105,
      "chip": "ym2612"
    },
    {
      "channel": 2,
      "note": 61,
      "start": 13.1938,
      "duration": 0.0008,
      "velocity": 113,
      "chip": "ym2612"
    },
    {
      "channel": 3,
      "note": 37,
      "start": 13.1941,
      "duration": 0.0298,
      "velocity": 105,
      "chip": "ym2612"
    },
    {
      "channel": 4,
      "note": 37,
      "start": 13.1945,
      "duration": 0.0298,
      "velocity": 105,
      "chip": "ym2612"
    },
    {
      "channel": 3,
      "note": 37,
      "start": 13.224,
      "duration": 0.2003,
      "velocity": 105,
      "chip": "ym2612"
    },
    {
      "channel": 4,
      "note": 37,
      "start": 13.2244,
      "duration": 0.2002,
      "velocity": 105,
      "chip": "ym2612"
    },
    {
      "channel": 4,
      "note": 37,
      "start": 13.4246,
      "duration": 0.0007,
      "velocity": 105,
      "chip": "ym2612"
    },
    {
      "channel": 4,
      "note": 37,
      "start": 13.4255,
      "duration": 0.0023,
      "velocity": 105,
      "chip": "ym2612"
    },
    {
      "channel": 2,
      "note": 85,
      "start": 13.4274,
      "duration": 0.0011,
      "velocity": 115,
      "chip": "ym2612"
    },
    {
      "channel": 3,
      "note": 37,
      "start": 13.4276,
      "duration": 0.0018,
      "velocity": 105,
      "chip": "ym2612"
    },
    {
      "channel": 4,
      "note": 37,
      "start": 13.4279,
      "duration": 0.0019,
      "velocity": 105,
      "chip": "ym2612"
    },
    {
      "channel": 2,
      "note": 92,
      "start": 13.4287,
      "duration": 0.0002,
      "velocity": 115,
      "chip": "ym2612"
    },
    {
      "channel": 2,
      "note": 97,
      "start": 13.4294,
      "duration": 0.0007,
      "velocity": 115,
      "chip": "ym2612"
    },
    {
      "channel": 2,
      "note": 92,
      "start": 13.4303,
      "duration": 0.0001,
      "velocity": 115,
      "chip": "ym2612"
    },
    {
      "channel": 2,
      "note": 90,
      "start": 13.4309,
      "duration": 0.0006,
      "velocity": 115,
      "chip": "ym2612"
    },
    {
      "channel": 3,
      "note": 61,
      "start": 13.4312,
      "duration": 0.0015,
      "velocity": 105,
      "chip": "ym2612"
    },
    {
      "channel": 2,
      "note": 97,
      "start": 13.4317,
      "duration": 0.0001,
      "velocity": 115,
      "chip": "ym2612"
    },
    {
      "channel": 2,
      "note": 102,
      "start": 13.4325,
      "duration": 0.0007,
      "velocity": 115,
      "chip": "ym2612"
    },
    {
      "channel": 4,
      "note": 37,
      "start": 13.4329,
      "duration": 0.0015,
      "velocity": 105,
      "chip": "ym2612"
    },
    {
      "channel": 2,
      "note": 97,
      "start": 13.4334,
      "duration": 0.0002,
      "velocity": 115,
      "chip": "ym2612"
    },
    {
      "channel": 2,
      "note": 102,
      "start": 13.4342,
      "duration": 0.0008,
      "velocity": 115,
      "chip": "ym2612"
    },
    {
      "channel": 3,
      "note": 35,
      "start": 13.4344,
      "duration": 0.0016,
      "velocity": 105,
      "chip": "ym2612"
    },
    {
      "channel": 2,
      "note": 97,
      "start": 13.4353,
      "duration": 0.0001,
      "velocity": 115,
      "chip": "ym2612"
    },
    {
      "channel": 2,
      "note": 102,
      "start": 13.4358,
      "duration": 0.0007,
      "velocity": 115,
      "chip": "ym2612"
    },
    {
      "channel": 3,
      "note": 35,
      "start": 13.4361,
      "duration": 0.0032,
      "velocity": 105,
      "chip": "ym2612"
    },
    {
      "channel": 4,
      "note": 61,
      "start": 13.4365,
      "duration": 0.0032,
      "velocity": 105,
      "chip": "ym2612"
    },
    {
      "channel": 2,
      "note": 97,
      "start": 13.4368,
      "duration": 0.0001,
      "velocity": 115,
      "chip": "ym2612"
    },
    {
      "channel": 0,
      "note": 73,
      "start": 13.4378,
      "duration": 0.4728,
      "velocity": 99,
      "chip": "ym2612"
    },
    {
      "channel": 3,
      "note": 37,
      "start": 13.4395,
      "duration": 0.0005,
      "velocity": 105,
      "chip": "ym2612"
    },
    {
      "channel": 3,
      "note": 37,
      "start": 13.44,
      "duration": 0.0004,
      "velocity": 105,
      "chip": "ym2612"
    },
    {
      "channel": 4,
      "note": 35,
      "start": 13.4402,
      "duration": 0.0006,
      "velocity": 105,
      "chip": "ym2612"
    },
    {
      "channel": 3,
      "note": 37,
      "start": 13.4406,
      "duration": 0.0009,
      "velocity": 105,
      "chip": "ym2612"
    },
    {
      "channel": 4,
      "note": 35,
      "start": 13.4409,
      "duration": 0.0009,
      "velocity": 105,
      "chip": "ym2612"
    },
    {
      "channel": 1,
      "note": 73,
      "start": 13.4412,
      "duration": 0.4756,
      "velocity": 99,
      "chip": "ym2612"
    },
    {
      "channel": 3,
      "note": 37,
      "start": 13.4416,
      "duration": 0.001,
      "velocity": 105,
      "chip": "ym2612"
    },
    {
      "channel": 4,
      "note": 37,
      "start": 13.442,
      "duration": 0.0008,
      "velocity": 105,
      "chip": "ym2612"
    },
    {
      "channel": 2,
      "note": 61,
      "start": 13.4424,
      "duration": 0.0021,
      "velocity": 113,
      "chip": "ym2612"
    },
    {
      "channel": 3,
      "note": 37,
      "start": 13.4427,
      "duration": 0.0011,
      "velocity": 105,
      "chip": "ym2612"
    },
    {
      "channel": 4,
      "note": 37,
      "start": 13.4429,
      "duration": 0.0012,
      "velocity": 105,
      "chip": "ym2612"
    },
    {
      "channel": 3,
      "note": 37,
      "start": 13.4439,
      "duration": 0.001,
      "velocity": 105,
      "chip": "ym2612"
    },
    {
      "channel": 4,
      "note": 37,
      "start": 13.4442,
      "duration": 0.001,
      "velocity": 105,
      "chip": "ym2612"
    },
    {
      "channel": 2,
      "note": 61,
      "start": 13.4446,
      "duration": 0.0007,
      "velocity": 113,
      "chip": "ym2612"
    },
    {
      "channel": 3,
      "note": 37,
      "start": 13.445,
      "duration": 0.0299,
      "velocity": 105,
      "chip": "ym2612"
    },
    {
      "channel": 4,
      "note": 37,
      "start": 13.4453,
      "duration": 0.0299,
      "velocity": 105,
      "chip": "ym2612"
    },
    {
      "channel": 2,
      "note": 61,
      "start": 13.4746,
      "duration": 0.1334,
      "velocity": 113,
      "chip": "ym2612"
    },
    {
      "channel": 3,
      "note": 37,
      "start": 13.475,
      "duration": 0.2002,
      "velocity": 105,
      "chip": "ym2612"
    },
    {
      "channel": 4,
      "note": 37,
      "start": 13.4753,
      "duration": 0.2001,
      "velocity": 105,
      "chip": "ym2612"
    },
    {
      "channel": 4,
      "note": 37,
      "start": 13.6756,
      "duration": 0.0007,
      "velocity": 105,
      "chip": "ym2612"
    },
    {
      "channel": 4,
      "note": 37,
      "start": 13.6764,
      "duration": 0.0016,
      "velocity": 105,
      "chip": "ym2612"
    },
    {
      "channel": 2,
      "note": 85,
      "start": 13.6777,
      "duration": 0.0005,
      "velocity": 115,
      "chip": "ym2612"
    },
    {
      "channel": 4,
      "note": 37,
      "start": 13.6781,
      "duration": 0.0298,
      "velocity": 105,
      "chip": "ym2612"
    },
    {
      "channel": 2,
      "note": 92,
      "start": 13.6784,
      "duration": 0.0002,
      "velocity": 115,
      "chip": "ym2612"
    },
    {
      "channel": 2,
      "note": 97,
      "start": 13.7075,
      "duration": 0.0332,
      "velocity": 115,
      "chip": "ym2612"
    },
    {
      "channel": 2,
      "note": 92,
      "start": 13.8075,
      "duration": 0.0333,
      "velocity": 115,
      "chip": "ym2612"
    },
    {
      "channel": 2,
      "note": 90,
      "start": 13.9077,
      "duration": 0.0006,
      "velocity": 115,
      "chip": "ym2612"
    },
    {
      "channel": 3,
      "note": 61,
      "start": 13.908,
      "duration": 0.0016,
      "velocity": 105,
      "chip": "ym2612"
    },
    {
      "channel": 2,
      "note": 97,
      "start": 13.9085,
      "duration": 0.0002,
      "velocity": 115,
      "chip": "ym2612"
    },
    {
      "channel": 2,
      "note": 102,
      "start": 13.9094,
      "duration": 0.0005,
      "velocity": 115,
      "chip": "ym2612"
    },
    {
      "channel": 2,
      "note": 97,
      "start": 13.9101,
      "duration": 0.0002,
      "velocity": 115,
      "chip": "ym2612"
    },
    {
      "channel": 0,
      "note": 75,
      "start": 13.9107,
      "duration": 0.0035,
      "velocity": 99,
      "chip": "ym2612"
    },
    {
      "channel": 2,
      "note": 88,
      "start": 13.9109,
      "duration": 0.0008,
      "velocity": 115,
      "chip": "ym2612"
    },
    {
      "channel": 3,
      "note": 35,
      "start": 13.9111,
      "duration": 0.0016,
      "velocity": 105,
      "chip": "ym2612"
    },
    {
      "channel": 2,
      "note": 83,
      "start": 13.912,
      "duration": 0.0001,
      "velocity": 115,
      "chip": "ym2612"
    },
    {
      "channel": 2,
      "note": 88,
      "start": 13.9125,
      "duration": 0.0007,
      "velocity": 115,
      "chip": "ym2612"
    },
    {
      "channel": 3,
      "note": 35,
      "start": 13.9128,
      "duration": 0.0029,
      "velocity": 105,
      "chip": "ym2612"
    },
    {
      "channel": 4,
      "note": 61,
      "start": 13.9132,
      "duration": 0.0029,
      "velocity": 105,
      "chip": "ym2612"
    },
    {
      "channel": 2,
      "note": 83,
      "start": 13.9134,
      "duration": 0.0002,
      "velocity": 115,
      "chip": "ym2612"
    },
    {
      "channel": 0,
      "note": 76,
      "start": 13.9143,
      "duration": 0.4471,
      "velocity": 99,
      "chip": "ym2612"
    },
    {
      "channel": 3,
      "note": 37,
      "start": 13.9159,
      "duration": 0.0013,
      "velocity": 105,
      "chip": "ym2612"
    },
    {
      "channel": 1,
      "note": 75,
      "start": 13.917,
      "duration": 0.0309,
      "velocity": 99,
      "chip": "ym2612"
    },
    {
      "channel": 3,
      "note": 37,
      "start": 13.9172,
      "duration": 0.0008,
      "velocity": 105,
      "chip": "ym2612"
    },
    {
      "channel": 4,
      "note": 35,
      "start": 13.9174,
      "duration": 0.001,
      "velocity": 105,
      "chip": "ym2612"
    },
    {
      "channel": 2,
      "note": 85,
      "start": 13.9178,
      "duration": 0.0007,
      "velocity": 113,
      "chip": "ym2612"
    },
    {
      "channel": 3,
      "note": 37,
      "start": 13.9181,
      "duration": 0.0301,
      "velocity": 105,
      "chip": "ym2612"
    },
    {
      "channel": 4,
      "note": 35,
      "start": 13.9185,
      "duration": 0.0301,
      "velocity": 105,
      "chip": "ym2612"
    },
    {
      "channel": 1,
      "note": 76,
      "start": 13.948,
      "duration": 0.4468,
      "velocity": 99,
      "chip": "ym2612"
    },
    {
      "channel": 3,
      "note": 37,
      "start": 13.9484,
      "duration": 0.1835,
      "velocity": 105,
      "chip": "ym2612"
    },
    {
      "channel": 4,
      "note": 37,
      "start": 13.9487,
      "duration": 0.1833,
      "velocity": 105,
      "chip": "ym2612"
    },
    {
      "channel": 2,
      "note": 61,
      "start": 14.1316,
      "duration": 0.0021,
      "velocity": 113,
      "chip": "ym2612"
    },
    {
      "channel": 3,
      "note": 37,
      "start": 14.132,
      "duration": 0.001,
      "velocity": 105,
      "chip": "ym2612"
    },
    {
      "channel": 4,
      "note": 37,
      "start": 14.1322,
      "duration": 0.0012,
      "velocity": 105,
      "chip": "ym2612"
    },
    {
      "channel": 3,
      "note": 37,
      "start": 14.1331,
      "duration": 0.001,
      "velocity": 105,
      "chip": "ym2612"
    },
    {
      "channel": 4,
      "note": 37,
      "start": 14.1334,
      "duration": 0.001,
      "velocity": 105,
      "chip": "ym2612"
    },
    {
      "channel": 2,
      "note": 61,
      "start": 14.1339,
      "duration": 0.0007,
      "velocity": 113,
      "chip": "ym2612"
    },
    {
      "channel": 3,
      "note": 37,
      "start": 14.1342,
      "duration": 0.03,
      "velocity": 105,
      "chip": "ym2612"
    },
    {
      "channel": 4,
      "note": 37,
      "start": 14.1346,
      "duration": 0.03,
      "velocity": 105,
      "chip": "ym2612"
    },
    {
      "channel": 2,
      "note": 61,
      "start": 14.164,
      "duration": 0.1333,
      "velocity": 113,
      "chip": "ym2612"
    },
    {
      "channel": 3,
      "note": 37,
      "start": 14.1643,
      "duration": 0.1834,
      "velocity": 105,
      "chip": "ym2612"
    },
    {
      "channel": 4,
      "note": 37,
      "start": 14.1647,
      "duration": 0.1833,
      "velocity": 105,
      "chip": "ym2612"
    },
    {
      "channel": 4,
      "note": 37,
      "start": 14.3481,
      "duration": 0.0007,
      "velocity": 105,
      "chip": "ym2612"
    },
    {
      "channel": 4,
      "note": 37,
      "start": 14.3489,
      "duration": 0.0022,
      "velocity": 105,
      "chip": "ym2612"
    },
    {
      "channel": 2,
      "note": 85,
      "start": 14.3507,
      "duration": 0.0011,
      "velocity": 115,
      "chip": "ym2612"
    },
    {
      "channel": 3,
      "note": 37,
      "start": 14.3509,
      "duration": 0.0019,
      "velocity": 105,
      "chip": "ym2612"
    },
    {
      "channel": 4,
      "note": 37,
      "start": 14.3512,
      "duration": 0.0019,
      "velocity": 105,
      "chip": "ym2612"
    },
    {
      "channel": 2,
      "note": 92,
      "start": 14.352,
      "duration": 0.0002,
      "velocity": 115,
      "chip": "ym2612"
    },
    {
      "channel": 2,
      "note": 97,
      "start": 14.3527,
      "duration": 0.0007,
      "velocity": 115,
      "chip": "ym2612"
    },
    {
      "channel": 2,
      "note": 92,
      "start": 14.3537,
      "duration": 0.0002,
      "velocity": 115,
      "chip": "ym2612"
    },
    {
      "channel": 2,
      "note": 90,
      "start": 14.3552,
      "duration": 0.0006,
      "velocity": 115,
      "chip": "ym2612"
    },
    {
      "channel": 3,
      "note": 61,
      "start": 14.3556,
      "duration": 0.0015,
      "velocity": 105,
      "chip": "ym2612"
    },
    {
      "channel": 2,
      "note": 97,
      "start": 14.3561,
      "duration": 0.0002,
      "velocity": 115,
      "chip": "ym2612"
    },
    {
      "channel": 2,
      "note": 102,
      "start": 14.3568,
      "duration": 0.0007,
      "velocity": 115,
      "chip": "ym2612"
    },
    {
      "channel": 4,
      "note": 37,
      "start": 14.3572,
      "duration": 0.0013,
      "velocity": 105,
      "chip": "ym2612"
    },
    {
      "channel": 2,
      "note": 97,
      "start": 14.3578,
      "duration": 0.0002,
      "velocity": 115,
      "chip": "ym2612"
    },
    {
      "channel": 2,
      "note": 102,
      "start": 14.3583,
      "duration": 0.0005,
      "velocity": 115,
      "chip": "ym2612"
    },
    {
      "channel": 3,
      "note": 35,
      "start": 14.3585,
      "duration": 0.0014,
      "velocity": 105,
      "chip": "ym2612"
    },
    {
      "channel": 2,
      "note": 97,
      "start": 14.3591,
      "duration": 0.0002,
      "velocity": 115,
      "chip": "ym2612"
    },
    {
      "channel": 2,
      "note": 102,
      "start": 14.3596,
      "duration": 0.0007,
      "velocity": 115,
      "chip": "ym2612"
    },
    {
      "channel": 3,
      "note": 35,
      "start": 14.36,
      "duration": 0.0031,
      "velocity": 105,
      "chip": "ym2612"
    },
    {
      "channel": 4,
      "note": 61,
      "start": 14.3603,
      "duration": 0.0031,
      "velocity": 105,
      "chip": "ym2612"
    },
    {
      "channel": 2,
      "note": 97,
      "start": 14.3606,
      "duration": 0.0002,
      "velocity": 115,
      "chip": "ym2612"
    },
    {
      "channel": 0,
      "note": 75,
      "start": 14.3615,
      "duration": 0.6695,
      "velocity": 99,
      "chip": "ym2612"
    },
    {
      "channel": 3,
      "note": 37,
      "start": 14.3632,
      "duration": 0.0005,
      "velocity": 105,
      "chip": "ym2612"
    },
    {
      "channel": 3,
      "note": 37,
      "start": 14.3638,
      "duration": 0.0007,
      "velocity": 105,
      "chip": "ym2612"
    },
    {
      "channel": 4,
      "note": 35,
      "start": 14.364,
      "duration": 0.0008,
      "velocity": 105,
      "chip": "ym2612"
    },
    {
      "channel": 3,
      "note": 37,
      "start": 14.3646,
      "duration": 0.0306,
      "velocity": 105,
      "chip": "ym2612"
    },
    {
      "channel": 4,
      "note": 35,
      "start": 14.3649,
      "duration": 0.0306,
      "velocity": 105,
      "chip": "ym2612"
    },
    {
      "channel": 1,
      "note": 75,
      "start": 14.3949,
      "duration": 0.6424,
      "velocity": 99,
      "chip": "ym2612"
    },
    {
      "channel": 3,
      "note": 37,
      "start": 14.3952,
      "duration": 0.2002,
      "velocity": 105,
      "chip": "ym2612"
    },
    {
      "channel": 4,
      "note": 37,
      "start": 14.3956,
      "duration": 0.2,
      "velocity": 105,
      "chip": "ym2612"
    },
    {
      "channel": 2,
      "note": 61,
      "start": 14.5952,
      "duration": 0.0021,
      "velocity": 113,
      "chip": "ym2612"
    },
    {
      "channel": 3,
      "note": 37,
      "start": 14.5955,
      "duration": 0.001,
      "velocity": 105,
      "chip": "ym2612"
    },
    {
      "channel": 4,
      "note": 37,
      "start": 14.5957,
      "duration": 0.0012,
      "velocity": 105,
      "chip": "ym2612"
    },
    {
      "channel": 3,
      "note": 37,
      "start": 14.5967,
      "duration": 0.001,
      "velocity": 105,
      "chip": "ym2612"
    },
    {
      "channel": 4,
      "note": 37,
      "start": 14.597,
      "duration": 0.001,
      "velocity": 105,
      "chip": "ym2612"
    },
    {
      "channel": 2,
      "note": 61,
      "start": 14.5974,
      "duration": 0.0008,
      "velocity": 113,
      "chip": "ym2612"
    },
    {
      "channel": 3,
      "note": 37,
      "start": 14.5978,
      "duration": 0.03,
      "velocity": 105,
      "chip": "ym2612"
    },
    {
      "channel": 4,
      "note": 37,
      "start": 14.5981,
      "duration": 0.03,
      "velocity": 105,
      "chip": "ym2612"
    },
    {
      "channel": 2,
      "note": 61,
      "start": 14.6276,
      "duration": 0.1167,
      "velocity": 113,
      "chip": "ym2612"
    },
    {
      "channel": 3,
      "note": 37,
      "start": 14.6279,
      "duration": 0.1835,
      "velocity": 105,
      "chip": "ym2612"
    },
    {
      "channel": 4,
      "note": 37,
      "start": 14.6282,
      "duration": 0.1834,
      "velocity": 105,
      "chip": "ym2612"
    },
    {
      "channel": 4,
      "note": 37,
      "start": 14.8117,
      "duration": 0.0016,
      "velocity": 105,
      "chip": "ym2612"
    },
    {
      "channel": 4,
      "note": 37,
      "start": 14.8135,
      "duration": 0.0017,
      "velocity": 105,
      "chip": "ym2612"
    },
    {
      "channel": 2,
      "note": 85,
      "start": 14.8149,
      "duration": 0.0005,
      "velocity": 115,
      "chip": "ym2612"
    },
    {
      "channel": 4,
      "note": 37,
      "start": 14.8153,
      "duration": 0.0298,
      "velocity": 105,
      "chip": "ym2612"
    },
    {
      "channel": 2,
      "note": 92,
      "start": 14.8156,
      "duration": 0.0002,
      "velocity": 115,
      "chip": "ym2612"
    },
    {
      "channel": 2,
      "note": 97,
      "start": 14.8446,
      "duration": 0.0332,
      "velocity": 115,
      "chip": "ym2612"
    },
    {
      "channel": 2,
      "note": 92,
      "start": 14.9446,
      "duration": 0.0332,
      "velocity": 115,
      "chip": "ym2612"
    },
    {
      "channel": 2,
      "note": 90,
      "start": 15.0281,
      "duration": 0.0006,
      "velocity": 115,
      "chip": "ym2612"
    },
    {
      "channel": 3,
      "note": 61,
      "start": 15.0285,
      "duration": 0.0016,
      "velocity": 105,
      "chip": "ym2612"
    },
    {
      "channel": 2,
      "note": 97,
      "start": 15.029,
      "duration": 0.0002,
      "velocity": 115,
      "chip": "ym2612"
    },
    {
      "channel": 2,
      "note": 102,
      "start": 15.0299,
      "duration": 0.0005,
      "velocity": 115,
      "chip": "ym2612"
    },
    {
      "channel": 2,
      "note": 97,
      "start": 15.0306,
      "duration": 0.0002,
      "velocity": 115,
      "chip": "ym2612"
    },
    {
      "channel": 0,
      "note": 76,
      "start": 15.0312,
      "duration": 0.0036,
      "velocity": 99,
      "chip": "ym2612"
    },
    {
      "channel": 2,
      "note": 88,
      "start": 15.0314,
      "duration": 0.0008,
      "velocity": 115,
      "chip": "ym2612"
    },
    {
      "channel": 3,
      "note": 35,
      "start": 15.0316,
      "duration": 0.0017,
      "velocity": 105,
      "chip": "ym2612"
    },
    {
      "channel": 2,
      "note": 83,
      "start": 15.0325,
      "duration": 0.0002,
      "velocity": 115,
      "chip": "ym2612"
    },
    {
      "channel": 2,
      "note": 88,
      "start": 15.0331,
      "duration": 0.0007,
      "velocity": 115,
      "chip": "ym2612"
    },
    {
      "channel": 3,
      "note": 35,
      "start": 15.0334,
      "duration": 0.0029,
      "velocity": 105,
      "chip": "ym2612"
    },
    {
      "channel": 4,
      "note": 61,
      "start": 15.0337,
      "duration": 0.0029,
      "velocity": 105,
      "chip": "ym2612"
    },
    {
      "channel": 2,
      "note": 83,
      "start": 15.0341,
      "duration": 0.0001,
      "velocity": 115,
      "chip": "ym2612"
    },
    {
      "channel": 0,
      "note": 75,
      "start": 15.0348,
      "duration": 0.0023,
      "velocity": 99,
      "chip": "ym2612"
    },
    {
      "channel": 3,
      "note": 37,
      "start": 15.0364,
      "duration": 0.0011,
      "velocity": 105,
      "chip": "ym2612"
    },
    {
      "channel": 0,
      "note": 71,
      "start": 15.0372,
      "duration": 0.0008,
      "velocity": 99,
      "chip": "ym2612"
    },
    {
      "channel": 1,
      "note": 76,
      "start": 15.0374,
      "duration": 0.0309,
      "velocity": 99,
      "chip": "ym2612"
    },
    {
      "channel": 3,
      "note": 37,
      "start": 15.0376,
      "duration": 0.001,
      "velocity": 105,
      "chip": "ym2612"
    },
    {
      "channel": 4,
      "note": 35,
      "start": 15.0378,
      "duration": 0.0012,
      "velocity": 105,
      "chip": "ym2612"
    },
    {
      "channel": 0,
      "note": 70,
      "start": 15.0382,
      "duration": 0.2329,
      "velocity": 99,
      "chip": "ym2612"
    },
    {
      "channel": 2,
      "note": 85,
      "start": 15.0384,
      "duration": 0.0008,
      "velocity": 113,
      "chip": "ym2612"
    },
    {
      "channel": 3,
      "note": 37,
      "start": 15.0388,
      "duration": 0.0299,
      "velocity": 105,
      "chip": "ym2612"
    },
    {
      "channel": 4,
      "note": 35,
      "start": 15.0391,
      "duration": 0.0299,
      "velocity": 105,
      "chip": "ym2612"
    },
    {
      "channel": 1,
      "note": 75,
      "start": 15.0684,
      "duration": 0.2002,
      "velocity": 99,
      "chip": "ym2612"
    },
    {
      "channel": 3,
      "note": 37,
      "start": 15.0688,
      "duration": 0.2004,
      "velocity": 105,
      "chip": "ym2612"
    },
    {
      "channel": 4,
      "note": 37,
      "start": 15.0691,
      "duration": 0.2002,
      "velocity": 105,
      "chip": "ym2612"
    },
    {
      "channel": 1,
      "note": 71,
      "start": 15.2687,
      "duration": 0.0011,
      "velocity": 99,
      "chip": "ym2612"
    },
    {
      "channel": 2,
      "note": 61,
      "start": 15.2689,
      "duration": 0.002,
      "velocity": 113,
      "chip": "ym2612"
    },
    {
      "channel": 3,
      "note": 37,
      "start": 15.2692,
      "duration": 0.0009,
      "velocity": 105,
      "chip": "ym2612"
    },
    {
      "channel": 4,
      "note": 37,
      "start": 15.2694,
      "duration": 0.0011,
      "velocity": 105,
      "chip": "ym2612"
    },
    {
      "channel": 1,
      "note": 70,
      "start": 15.2699,
      "duration": 0.2337,
      "velocity": 99,
      "chip": "ym2612"
    },
    {
      "channel": 3,
      "note": 37,
      "start": 15.2703,
      "duration": 0.0013,
      "velocity": 105,
      "chip": "ym2612"
    },
    {
      "channel": 4,
      "note": 37,
      "start": 15.2706,
      "duration": 0.0013,
      "velocity": 105,
      "chip": "ym2612"
    },
    {
      "channel": 0,
      "note": 69,
      "start": 15.2712,
      "duration": 0.2431,
      "velocity": 99,
      "chip": "ym2612"
    },
    {
      "channel": 2,
      "note": 61,
      "start": 15.2714,
      "duration": 0.0008,
      "velocity": 113,
      "chip": "ym2612"
    },
    {
      "channel": 3,
      "note": 37,
      "start": 15.2717,
      "duration": 0.03,
      "velocity": 105,
      "chip": "ym2612"
    },
    {
      "channel": 4,
      "note": 37,
      "start": 15.272,
      "duration": 0.03,
      "velocity": 105,
      "chip": "ym2612"
    },
    {
      "channel": 2,
      "note": 61,
      "start": 15.3015,
      "duration": 0.1333,
      "velocity": 113,
      "chip": "ym2612"
    },
    {
      "channel": 3,
      "note": 37,
      "start": 15.3018,
      "duration": 0.2001,
      "velocity": 105,
      "chip": "ym2612"
    },
    {
      "channel": 4,
      "note": 37,
      "start": 15.3022,
      "duration": 0.2,
      "velocity": 105,
      "chip": "ym2612"
    },
    {
      "channel": 4,
      "note": 37,
      "start": 15.5023,
      "duration": 0.0017,
      "velocity": 105,
      "chip": "ym2612"
    },
    {
      "channel": 1,
      "note": 69,
      "start": 15.5037,
      "duration": 0.0153,
      "velocity": 99,
      "chip": "ym2612"
    },
    {
      "channel": 4,
      "note": 37,
      "start": 15.5041,
      "duration": 0.0023,
      "velocity": 105,
      "chip": "ym2612"
    },
    {
      "channel": 2,
      "note": 85,
      "start": 15.5061,
      "duration": 0.0011,
      "velocity": 115,
      "chip": "ym2612"
    },
    {
      "channel": 3,
      "note": 37,
      "start": 15.5062,
      "duration": 0.0019,
      "velocity": 105,
      "chip": "ym2612"
    },
    {
      "channel": 4,
      "note": 37,
      "start": 15.5066,
      "duration": 0.0019,
      "velocity": 105,
      "chip": "ym2612"
    },
    {
      "channel": 2,
      "note": 92,
      "start": 15.5074,
      "duration": 0.0002,
      "velocity": 115,
      "chip": "ym2612"
    },
    {
      "channel": 2,
      "note": 97,
      "start": 15.5081,
      "duration": 0.0007,
      "velocity": 115,
      "chip": "ym2612"
    },
    {
      "channel": 2,
      "note": 92,
      "start": 15.509,
      "duration": 0.0001,
      "velocity": 115,
      "chip": "ym2612"
    },
    {
      "channel": 2,
      "note": 90,
      "start": 15.5095,
      "duration": 0.0006,
      "velocity": 115,
      "chip": "ym2612"
    },
    {
      "channel": 3,
      "note": 61,
      "start": 15.5098,
      "duration": 0.0015,
      "velocity": 105,
      "chip": "ym2612"
    },
    {
      "channel": 2,
      "note": 97,
      "start": 15.5103,
      "duration": 0.0002,
      "velocity": 115,
      "chip": "ym2612"
    },
    {
      "channel": 2,
      "note": 102,
      "start": 15.5111,
      "duration": 0.0007,
      "velocity": 115,
      "chip": "ym2612"
    },
    {
      "channel": 4,
      "note": 37,
      "start": 15.5115,
      "duration": 0.0016,
      "velocity": 105,
      "chip": "ym2612"
    },
    {
      "channel": 2,
      "note": 97,
      "start": 15.512,
      "duration": 0.0001,
      "velocity": 115,
      "chip": "ym2612"
    },
    {
      "channel": 2,
      "note": 102,
      "start": 15.5129,
      "duration": 0.0008,
      "velocity": 115,
      "chip": "ym2612"
    },
    {
      "channel": 3,
      "note": 35,
      "start": 15.5131,
      "duration": 0.0019,
      "velocity": 105,
      "chip": "ym2612"
    },
    {
      "channel": 2,
      "note": 97,
      "start": 15.5139,
      "duration": 0.0002,
      "velocity": 115,
      "chip": "ym2612"
    },
    {
      "channel": 0,
      "note": 68,
      "start": 15.5144,
      "duration": 0.0013,
      "velocity": 99,
      "chip": "ym2612"
    },
    {
      "channel": 2,
      "note": 102,
      "start": 15.5147,
      "duration": 0.0008,
      "velocity": 115,
      "chip": "ym2612"
    },
    {
      "channel": 3,
      "note": 35,
      "start": 15.5151,
      "duration": 0.003,
      "velocity": 105,
      "chip": "ym2612"
    },
    {
      "channel": 4,
      "note": 61,
      "start": 15.5154,
      "duration": 0.003,
      "velocity": 105,
      "chip": "ym2612"
    },
    {
      "channel": 0,
      "note": 69,
      "start": 15.5158,
      "duration": 0.0006,
      "velocity": 99,
      "chip": "ym2612"
    },
    {
      "channel": 2,
      "note": 97,
      "start": 15.516,
      "duration": 0.0002,
      "velocity": 115,
      "chip": "ym2612"
    },
    {
      "channel": 0,
      "note": 68,
      "start": 15.5165,
      "duration": 0.4758,
      "velocity": 107,
      "chip": "ym2612"
    },
    {
      "channel": 3,
      "note": 37,
      "start": 15.5182,
      "duration": 0.0005,
      "velocity": 105,
      "chip": "ym2612"
    },
    {
      "channel": 3,
      "note": 37,
      "start": 15.5188,
      "duration": 0.0006,
      "velocity": 105,
      "chip": "ym2612"
    },
    {
      "channel": 4,
      "note": 35,
      "start": 15.519,
      "duration": 0.0008,
      "velocity": 105,
      "chip": "ym2612"
    },
    {
      "channel": 1,
      "note": 68,
      "start": 15.5192,
      "duration": 0.0008,
      "velocity": 99,
      "chip": "ym2612"
    },
    {
      "channel": 3,
      "note": 37,
      "start": 15.5195,
      "duration": 0.0011,
      "velocity": 105,
      "chip": "ym2612"
    },
    {
      "channel": 4,
      "note": 35,
      "start": 15.5199,
      "duration": 0.0011,
      "velocity": 105,
      "chip": "ym2612"
    },
    {
      "channel": 1,
      "note": 69,
      "start": 15.5201,
      "duration": 0.0002,
      "velocity": 99,
      "chip": "ym2612"
    },
    {
      "channel": 1,
      "note": 68,
      "start": 15.5204,
      "duration": 0.5059,
      "velocity": 107,
      "chip": "ym2612"
    },
    {
      "channel": 3,
      "note": 37,
      "start": 15.5208,
      "duration": 0.0007,
      "velocity": 105,
      "chip": "ym2612"
    },
    {
      "channel": 4,
      "note": 37,
      "start": 15.5211,
      "duration": 0.0006,
      "velocity": 105,
      "chip": "ym2612"
    },
    {
      "channel": 2,
      "note": 61,
      "start": 15.5213,
      "duration": 0.0022,
      "velocity": 113,
      "chip": "ym2612"
    },
    {
      "channel": 3,
      "note": 37,
      "start": 15.5216,
      "duration": 0.0011,
      "velocity": 105,
      "chip": "ym2612"
    },
    {
      "channel": 4,
      "note": 37,
      "start": 15.5218,
      "duration": 0.0012,
      "velocity": 105,
      "chip": "ym2612"
    },
    {
      "channel": 3,
      "note": 37,
      "start": 15.5228,
      "duration": 0.001,
      "velocity": 105,
      "chip": "ym2612"
    },
    {
      "channel": 4,
      "note": 37,
      "start": 15.5232,
      "duration": 0.001,
      "velocity": 105,
      "chip": "ym2612"
    },
    {
      "channel": 2,
      "note": 61,
      "start": 15.5236,
      "duration": 0.0007,
      "velocity": 113,
      "chip": "ym2612"
    },
    {
      "channel": 3,
      "note": 37,
      "start": 15.5239,
      "duration": 0.03,
      "velocity": 105,
      "chip": "ym2612"
    },
    {
      "channel": 4,
      "note": 37,
      "start": 15.5243,
      "duration": 0.03,
      "velocity": 105,
      "chip": "ym2612"
    },
    {
      "channel": 2,
      "note": 61,
      "start": 15.5536,
      "duration": 0.1334,
      "velocity": 113,
      "chip": "ym2612"
    },
    {
      "channel": 3,
      "note": 37,
      "start": 15.554,
      "duration": 0.2001,
      "velocity": 105,
      "chip": "ym2612"
    },
    {
      "channel": 4,
      "note": 37,
      "start": 15.5543,
      "duration": 0.2,
      "velocity": 105,
      "chip": "ym2612"
    },
    {
      "channel": 4,
      "note": 37,
      "start": 15.7544,
      "duration": 0.0009,
      "velocity": 105,
      "chip": "ym2612"
    },
    {
      "channel": 2,
      "note": 61,
      "start": 15.7551,
      "duration": 0.0006,
      "velocity": 113,
      "chip": "ym2612"
    },
    {
      "channel": 4,
      "note": 37,
      "start": 15.7555,
      "duration": 0.0012,
      "velocity": 105,
      "chip": "ym2612"
    },
    {
      "channel": 2,
      "note": 61,
      "start": 15.756,
      "duration": 0.0002,
      "velocity": 113,
      "chip": "ym2612"
    },
    {
      "channel": 2,
      "note": 61,
      "start": 15.7564,
      "duration": 0.0005,
      "velocity": 113,
      "chip": "ym2612"
    },
    {
      "channel": 4,
      "note": 37,
      "start": 15.7568,
      "duration": 0.0306,
      "velocity": 105,
      "chip": "ym2612"
    },
    {
      "channel": 2,
      "note": 61,
      "start": 15.7572,
      "duration": 0.0001,
      "velocity": 113,
      "chip": "ym2612"
    },
    {
      "channel": 2,
      "note": 61,
      "start": 15.787,
      "duration": 0.0332,
      "velocity": 113,
      "chip": "ym2612"
    },
    {
      "channel": 2,
      "note": 61,
      "start": 15.8871,
      "duration": 0.0332,
      "velocity": 113,
      "chip": "ym2612"
    },
    {
      "channel": 3,
      "note": 61,
      "start": 15.9874,
      "duration": 0.0012,
      "velocity": 105,
      "chip": "ym2612"
    },
    {
      "channel": 3,
      "note": 35,
      "start": 15.9898,
      "duration": 0.0007,
      "velocity": 105,
      "chip": "ym2612"
    },
    {
      "channel": 3,
      "note": 35,
      "start": 15.9907,
      "duration": 0.002,
      "velocity": 105,
      "chip": "ym2612"
    },
    {
      "channel": 4,
      "note": 61,
      "start": 15.991,
      "duration": 0.002,
      "velocity": 105,
      "chip": "ym2612"
    },
    {
      "channel": 0,
      "note": 49,
      "start": 15.9924,
      "duration": 0.0015,
      "velocity": 107,
      "chip": "ym2612"
    },
    {
      "channel": 3,
      "note": 37,
      "start": 15.9928,
      "duration": 0.0014,
      "velocity": 105,
      "chip": "ym2612"
    },
    {
      "channel": 0,
      "note": 49,
      "start": 15.9941,
      "duration": 0.0309,
      "velocity": 107,
      "chip": "ym2612"
    },
    {
      "channel": 3,
      "note": 37,
      "start": 15.9943,
      "duration": 0.0009,
      "velocity": 105,
      "chip": "ym2612"
    },
    {
      "channel": 4,
      "note": 35,
      "start": 15.9945,
      "duration": 0.001,
      "velocity": 105,
      "chip": "ym2612"
    },
    {
      "channel": 2,
      "note": 85,
      "start": 15.9949,
      "duration": 0.0008,
      "velocity": 113,
      "chip": "ym2612"
    },
    {
      "channel": 3,
      "note": 37,
      "start": 15.9953,
      "duration": 0.0313,
      "velocity": 105,
      "chip": "ym2612"
    },
    {
      "channel": 4,
      "note": 35,
      "start": 15.9956,
      "duration": 0.0313,
      "velocity": 105,
      "chip": "ym2612"
    },
    {
      "channel": 0,
      "note": 49,
      "start": 16.0251,
      "duration": 0.1834,
      "velocity": 107,
      "chip": "ym2612"
    },
    {
      "channel": 1,
      "note": 49,
      "start": 16.0263,
      "duration": 0.1824,
      "velocity": 107,
      "chip": "ym2612"
    },
    {
      "channel": 3,
      "note": 37,
      "start": 16.0267,
      "duration": 0.1825,
      "velocity": 105,
      "chip": "ym2612"
    },
    {
      "channel": 4,
      "note": 37,
      "start": 16.0271,
      "duration": 0.1824,
      "velocity": 105,
      "chip": "ym2612"
    },
    {
      "channel": 0,
      "note": 49,
      "start": 16.2087,
      "duration": 0.0011,
      "velocity": 107,
      "chip": "ym2612"
    },
    {
      "channel": 1,
      "note": 49,
      "start": 16.2088,
      "duration": 0.0022,
      "velocity": 107,
      "chip": "ym2612"
    },
    {
      "channel": 2,
      "note": 61,
      "start": 16.209,
      "duration": 0.0018,
      "velocity": 113,
      "chip": "ym2612"
    },
    {
      "channel": 3,
      "note": 37,
      "start": 16.2094,
      "duration": 0.0007,
      "velocity": 105,
      "chip": "ym2612"
    },
    {
      "channel": 4,
      "note": 37,
      "start": 16.2096,
      "duration": 0.0009,
      "velocity": 105,
      "chip": "ym2612"
    },
    {
      "channel": 3,
      "note": 37,
      "start": 16.2102,
      "duration": 0.0013,
      "velocity": 105,
      "chip": "ym2612"
    },
    {
      "channel": 4,
      "note": 37,
      "start": 16.2105,
      "duration": 0.0013,
      "velocity": 105,
      "chip": "ym2612"
    },
    {
      "channel": 0,
      "note": 49,
      "start": 16.211,
      "duration": 0.2302,
      "velocity": 107,
      "chip": "ym2612"
    },
    {
      "channel": 1,
      "note": 49,
      "start": 16.2111,
      "duration": 0.0298,
      "velocity": 107,
      "chip": "ym2612"
    },
    {
      "channel": 2,
      "note": 61,
      "start": 16.2113,
      "duration": 0.0008,
      "velocity": 113,
      "chip": "ym2612"
    },
    {
      "channel": 3,
      "note": 37,
      "start": 16.2116,
      "duration": 0.0298,
      "velocity": 105,
      "chip": "ym2612"
    },
    {
      "channel": 4,
      "note": 37,
      "start": 16.212,
      "duration": 0.0298,
      "velocity": 105,
      "chip": "ym2612"
    },
    {
      "channel": 1,
      "note": 49,
      "start": 16.241,
      "duration": 0.2001,
      "velocity": 107,
      "chip": "ym2612"
    },
    {
      "channel": 2,
      "note": 61,
      "start": 16.2412,
      "duration": 0.1332,
      "velocity": 113,
      "chip": "ym2612"
    },
    {
      "channel": 3,
      "note": 37,
      "start": 16.2416,
      "duration": 0.2,
      "velocity": 105,
      "chip": "ym2612"
    },
    {
      "channel": 4,
      "note": 37,
      "start": 16.2419,
      "duration": 0.1999,
      "velocity": 105,
      "chip": "ym2612"
    },
    {
      "channel": 4,
      "note": 37,
      "start": 16.4419,
      "duration": 0.001,
      "velocity": 105,
      "chip": "ym2612"
    },
    {
      "channel": 1,
      "note": 49,
      "start": 16.4425,
      "duration": 0.0039,
      "velocity": 107,
      "chip": "ym2612"
    },
    {
      "channel": 2,
      "note": 61,
      "start": 16.4427,
      "duration": 0.0006,
      "velocity": 113,
      "chip": "ym2612"
    },
    {
      "channel": 4,
      "note": 37,
      "start": 16.4431,
      "duration": 0.0014,
      "velocity": 105,
      "chip": "ym2612"
    },
    {
      "channel": 2,
      "note": 61,
      "start": 16.4437,
      "duration": 0.0001,
      "velocity": 113,
      "chip": "ym2612"
    },
    {
      "channel": 2,
      "note": 61,
      "start": 16.4441,
      "duration": 0.0006,
      "velocity": 113,
      "chip": "ym2612"
    },
    {
      "channel": 3,
      "note": 37,
      "start": 16.4443,
      "duration": 0.0024,
      "velocity": 105,
      "chip": "ym2612"
    },
    {
      "channel": 4,
      "note": 37,
      "start": 16.4446,
      "duration": 0.0024,
      "velocity": 105,
      "chip": "ym2612"
    },
    {
      "channel": 2,
      "note": 61,
      "start": 16.445,
      "duration": 0.0001,
      "velocity": 113,
      "chip": "ym2612"
    },
    {
      "channel": 2,
      "note": 61,
      "start": 16.4466,
      "duration": 0.0007,
      "velocity": 113,
      "chip": "ym2612"
    },
    {
      "channel": 2,
      "note": 61,
      "start": 16.4476,
      "duration": 0.0002,
      "velocity": 113,
      "chip": "ym2612"
    },
    {
      "channel": 3,
      "note": 61,
      "start": 16.4493,
      "duration": 0.0012,
      "velocity": 105,
      "chip": "ym2612"
    },
    {
      "channel": 4,
      "note": 37,
      "start": 16.4507,
      "duration": 0.0009,
      "velocity": 105,
      "chip": "ym2612"
    },
    {
      "channel": 3,
      "note": 35,
      "start": 16.4515,
      "duration": 0.0008,
      "velocity": 105,
      "chip": "ym2612"
    },
    {
      "channel": 3,
      "note": 35,
      "start": 16.4525,
      "duration": 0.0007,
      "velocity": 105,
      "chip": "ym2612"
    },
    {
      "channel": 4,
      "note": 61,
      "start": 16.4528,
      "duration": 0.0007,
      "velocity": 105,
      "chip": "ym2612"
    },
    {
      "channel": 0,
      "note": 49,
      "start": 16.4529,
      "duration": 0.0013,
      "velocity": 107,
      "chip": "ym2612"
    },
    {
      "channel": 3,
      "note": 37,
      "start": 16.4533,
      "duration": 0.0011,
      "velocity": 105,
      "chip": "ym2612"
    },
    {
      "channel": 0,
      "note": 49,
      "start": 16.4543,
      "duration": 0.0308,
      "velocity": 107,
      "chip": "ym2612"
    },
    {
      "channel": 3,
      "note": 37,
      "start": 16.4546,
      "duration": 0.0006,
      "velocity": 105,
      "chip": "ym2612"
    },
    {
      "channel": 4,
      "note": 35,
      "start": 16.4547,
      "duration": 0.0008,
      "velocity": 105,
      "chip": "ym2612"
    },
    {
      "channel": 3,
      "note": 37,
      "start": 16.4553,
      "duration": 0.0303,
      "velocity": 105,
      "chip": "ym2612"
    },
    {
      "channel": 4,
      "note": 35,
      "start": 16.4556,
      "duration": 0.0303,
      "velocity": 105,
      "chip": "ym2612"
    },
    {
      "channel": 0,
      "note": 49,
      "start": 16.4852,
      "duration": 0.1835,
      "velocity": 107,
      "chip": "ym2612"
    },
    {
      "channel": 1,
      "note": 49,
      "start": 16.4854,
      "duration": 0.1834,
      "velocity": 107,
      "chip": "ym2612"
    },
    {
      "channel": 3,
      "note": 37,
      "start": 16.4857,
      "duration": 0.1836,
      "velocity": 105,
      "chip": "ym2612"
    },
    {
      "channel": 4,
      "note": 37,
      "start": 16.4861,
      "duration": 0.1835,
      "velocity": 105,
      "chip": "ym2612"
    },
    {
      "channel": 0,
      "note": 49,
      "start": 16.6688,
      "duration": 0.0011,
      "velocity": 107,
      "chip": "ym2612"
    },
    {
      "channel": 1,
      "note": 49,
      "start": 16.6689,
      "duration": 0.0022,
      "velocity": 107,
      "chip": "ym2612"
    },
    {
      "channel": 2,
      "note": 61,
      "start": 16.6691,
      "duration": 0.0018,
      "velocity": 113,
      "chip": "ym2612"
    },
    {
      "channel": 3,
      "note": 37,
      "start": 16.6695,
      "duration": 0.0007,
      "velocity": 105,
      "chip": "ym2612"
    },
    {
      "channel": 4,
      "note": 37,
      "start": 16.6697,
      "duration": 0.0009,
      "velocity": 105,
      "chip": "ym2612"
    },
    {
      "channel": 3,
      "note": 37,
      "start": 16.6703,
      "duration": 0.0014,
      "velocity": 105,
      "chip": "ym2612"
    },
    {
      "channel": 4,
      "note": 37,
      "start": 16.6707,
      "duration": 0.0014,
      "velocity": 105,
      "chip": "ym2612"
    },
    {
      "channel": 0,
      "note": 49,
      "start": 16.6711,
      "duration": 0.2135,
      "velocity": 107,
      "chip": "ym2612"
    },
    {
      "channel": 1,
      "note": 49,
      "start": 16.6713,
      "duration": 0.0298,
      "velocity": 107,
      "chip": "ym2612"
    },
    {
      "channel": 2,
      "note": 61,
      "start": 16.6715,
      "duration": 0.0007,
      "velocity": 113,
      "chip": "ym2612"
    },
    {
      "channel": 3,
      "note": 37,
      "start": 16.6718,
      "duration": 0.0296,
      "velocity": 105,
      "chip": "ym2612"
    },
    {
      "channel": 4,
      "note": 37,
      "start": 16.6721,
      "duration": 0.0296,
      "velocity": 105,
      "chip": "ym2612"
    },
    {
      "channel": 1,
      "note": 49,
      "start": 16.7011,
      "duration": 0.1835,
      "velocity": 107,
      "chip": "ym2612"
    },
    {
      "channel": 3,
      "note": 37,
      "start": 16.7015,
      "duration": 0.1835,
      "velocity": 105,
      "chip": "ym2612"
    },
    {
      "channel": 4,
      "note": 37,
      "start": 16.7019,
      "duration": 0.1834,
      "velocity": 105,
      "chip": "ym2612"
    },
    {
      "channel": 4,
      "note": 37,
      "start": 16.8854,
      "duration": 0.0007,
      "velocity": 105,
      "chip": "ym2612"
    },
    {
      "channel": 1,
      "note": 49,
      "start": 16.8856,
      "duration": 0.0316,
      "velocity": 107,
      "chip": "ym2612"
    },
    {
      "channel": 2,
      "note": 61,
      "start": 16.8858,
      "duration": 0.0006,
      "velocity": 113,
      "chip": "ym2612"
    },
    {
      "channel": 4,
      "note": 37,
      "start": 16.8862,
      "duration": 0.0013,
      "velocity": 105,
      "chip": "ym2612"
    },
    {
      "channel": 2,
      "note": 61,
      "start": 16.8868,
      "duration": 0.0002,
      "velocity": 113,
      "chip": "ym2612"
    },
    {
      "channel": 2,
      "note": 61,
      "start": 16.8872,
      "duration": 0.0005,
      "velocity": 113,
      "chip": "ym2612"
    },
    {
      "channel": 4,
      "note": 37,
      "start": 16.8876,
      "duration": 0.0302,
      "velocity": 105,
      "chip": "ym2612"
    },
    {
      "channel": 2,
      "note": 61,
      "start": 16.888,
      "duration": 0.0001,
      "velocity": 113,
      "chip": "ym2612"
    },
    {
      "channel": 2,
      "note": 61,
      "start": 16.9174,
      "duration": 0.0332,
      "velocity": 113,
      "chip": "ym2612"
    },
    {
      "channel": 2,
      "note": 61,
      "start": 17.0175,
      "duration": 0.0332,
      "velocity": 113,
      "chip": "ym2612"
    },
    {
      "channel": 3,
      "note": 61,
      "start": 17.1178,
      "duration": 0.0012,
      "velocity": 105,
      "chip": "ym2612"
    },
    {
      "channel": 3,
      "note": 35,
      "start": 17.1201,
      "duration": 0.0008,
      "velocity": 105,
      "chip": "ym2612"
    },
    {
      "channel": 3,
      "note": 35,
      "start": 17.121,
      "duration": 0.0007,
      "velocity": 105,
      "chip": "ym2612"
    },
    {
      "channel": 4,
      "note": 61,
      "start": 17.1213,
      "duration": 0.0007,
      "velocity": 105,
      "chip": "ym2612"
    },
    {
      "channel": 0,
      "note": 49,
      "start": 17.1214,
      "duration": 0.0011,
      "velocity": 107,
      "chip": "ym2612"
    },
    {
      "channel": 3,
      "note": 37,
      "start": 17.1218,
      "duration": 0.0009,
      "velocity": 105,
      "chip": "ym2612"
    },
    {
      "channel": 0,
      "note": 49,
      "start": 17.1226,
      "duration": 0.0308,
      "velocity": 107,
      "chip": "ym2612"
    },
    {
      "channel": 3,
      "note": 37,
      "start": 17.1228,
      "duration": 0.0006,
      "velocity": 105,
      "chip": "ym2612"
    },
    {
      "channel": 4,
      "note": 35,
      "start": 17.123,
      "duration": 0.0008,
      "velocity": 105,
      "chip": "ym2612"
    },
    {
      "channel": 3,
      "note": 37,
      "start": 17.1236,
      "duration": 0.0303,
      "velocity": 105,
      "chip": "ym2612"
    },
    {
      "channel": 4,
      "note": 35,
      "start": 17.1239,
      "duration": 0.0303,
      "velocity": 105,
      "chip": "ym2612"
    },
    {
      "channel": 0,
      "note": 49,
      "start": 17.1535,
      "duration": 0.2002,
      "velocity": 107,
      "chip": "ym2612"
    },
    {
      "channel": 1,
      "note": 49,
      "start": 17.1537,
      "duration": 0.2001,
      "velocity": 107,
      "chip": "ym2612"
    },
    {
      "channel": 3,
      "note": 37,
      "start": 17.154,
      "duration": 0.2002,
      "velocity": 105,
      "chip": "ym2612"
    },
    {
      "channel": 4,
      "note": 37,
      "start": 17.1544,
      "duration": 0.2,
      "velocity": 105,
      "chip": "ym2612"
    },
    {
      "channel": 0,
      "note": 49,
      "start": 17.3537,
      "duration": 0.0012,
      "velocity": 107,
      "chip": "ym2612"
    },
    {
      "channel": 1,
      "note": 49,
      "start": 17.3539,
      "duration": 0.0021,
      "velocity": 107,
      "chip": "ym2612"
    },
    {
      "channel": 3,
      "note": 37,
      "start": 17.3543,
      "duration": 0.0009,
      "velocity": 105,
      "chip": "ym2612"
    },
    {
      "channel": 4,
      "note": 37,
      "start": 17.3545,
      "duration": 0.0011,
      "velocity": 105,
      "chip": "ym2612"
    },
    {
      "channel": 3,
      "note": 37,
      "start": 17.3553,
      "duration": 0.001,
      "velocity": 105,
      "chip": "ym2612"
    },
    {
      "channel": 4,
      "note": 37,
      "start": 17.3557,
      "duration": 0.001,
      "velocity": 105,
      "chip": "ym2612"
    },
    {
      "channel": 0,
      "note": 49,
      "start": 17.3559,
      "duration": 0.049,
      "velocity": 107,
      "chip": "ym2612"
    },
    {
      "channel": 1,
      "note": 49,
      "start": 17.3561,
      "duration": 0.0466,
      "velocity": 107,
      "chip": "ym2612"
    },
    {
      "channel": 3,
      "note": 37,
      "start": 17.3565,
      "duration": 0.0477,
      "velocity": 103,
      "chip": "ym2612"
    },
    {
      "channel": 4,
      "note": 37,
      "start": 17.3568,
      "duration": 0.0477,
      "velocity": 105,
      "chip": "ym2612"
    },
    {
      "channel": 1,
      "note": 49,
      "start": 17.4028,
      "duration": 0.0022,
      "velocity": 107,
      "chip": "ym2612"
    },
    {
      "channel": 3,
      "note": 37,
      "start": 17.4043,
      "duration": 7.984,
      "velocity": 103,
      "chip": "ym2612"
    },
    {
      "channel": 4,
      "note": 37,
      "start": 17.4046,
      "duration": 0.0008,
      "velocity": 105,
      "chip": "ym2612"
    },
    {
      "channel": 4,
      "note": 37,
      "start": 17.4055,
      "duration": 0.0005,
      "velocity": 105,
      "chip": "ym2612"
    },
    {
      "channel": 1,
      "note": 49,
      "start": 17.4056,
      "duration": 0.0037,
      "velocity": 107,
      "chip": "ym2612"
    },
    {
      "channel": 2,
      "note": 61,
      "start": 17.4058,
      "duration": 0.0004,
      "velocity": 113,
      "chip": "ym2612"
    },
    {
      "channel": 4,
      "note": 37,
      "start": 17.4061,
      "duration": 0.0022,
      "velocity": 103,
      "chip": "ym2612"
    },
    {
      "channel": 2,
      "note": 61,
      "start": 17.4065,
      "duration": 0.0002,
      "velocity": 113,
      "chip": "ym2612"
    },
    {
      "channel": 2,
      "note": 61,
      "start": 17.407,
      "duration": 0.0015,
      "velocity": 113,
      "chip": "ym2612"
    },
    {
      "channel": 4,
      "note": 37,
      "start": 17.4085,
      "duration": 7.9799,
      "velocity": 103,
      "chip": "ym2612"
    },
    {
      "channel": 2,
      "note": 61,
      "start": 17.4089,
      "duration": 0.0001,
      "velocity": 113,
      "chip": "ym2612"
    },
    {
      "channel": 2,
      "note": 61,
      "start": 17.4094,
      "duration": 0.0002,
      "velocity": 113,
      "chip": "ym2612"
    },
    {
      "channel": 2,
      "note": 61,
      "start": 17.41,
      "duration": 0.0002,
      "velocity": 113,
      "chip": "ym2612"
    },
    {
      "channel": 2,
      "note": 61,
      "start": 17.6966,
      "duration": 7.6917,
      "velocity": 107,
      "chip": "ym2612"
    }
  ]
}