{
  "track_name": "01 - It's RoboCod!",
  "duration_sec": 84.031,
  "sample_rate": 44100,
  "note_count": 1248,
  "unique_pitches": 41,
  "pitch_range": 98,
  "avg_note_duration": 0.3182,
  "reconstruction_stats": {
    "notes_reconstructed": 1248,
    "keyon_events": 1248,
    "keyoff_events": 1248,
    "orphan_keyons": 0,
    "unique_pitches": 41,
    "pitch_range": 98,
    "avg_duration_sec": 0.3182
  },
  "metadata": {
    "source": "J\\James Pond II - Codename RoboCod\\01 - It's RoboCod!.vgz"
  },
  "notes": [
    {
      "channel": 2,
      "note": -1,
      "start": 0.0238,
      "duration": 0.1789,
      "velocity": 100,
      "chip": "ym2612"
    },
    {
      "channel": 5,
      "note": -1,
      "start": 0.0281,
      "duration": 0.3747,
      "velocity": 127,
      "chip": "ym2612"
    },
    {
      "channel": 0,
      "note": 0,
      "start": 0.2192,
      "duration": 0.1832,
      "velocity": 121,
      "chip": "ym2612"
    },
    {
      "channel": 2,
      "note": 39,
      "start": 0.2207,
      "duration": 0.1819,
      "velocity": 98,
      "chip": "ym2612"
    },
    {
      "channel": 3,
      "note": -1,
      "start": 0.221,
      "duration": 0.1817,
      "velocity": 98,
      "chip": "ym2612"
    },
    {
      "channel": 0,
      "note": 75,
      "start": 0.4192,
      "duration": 0.1832,
      "velocity": 121,
      "chip": "ym2612"
    },
    {
      "channel": 2,
      "note": 87,
      "start": 0.4207,
      "duration": 0.1819,
      "velocity": 100,
      "chip": "ym2612"
    },
    {
      "channel": 5,
      "note": 42,
      "start": 0.4211,
      "duration": 0.3818,
      "velocity": 127,
      "chip": "ym2612"
    },
    {
      "channel": 0,
      "note": 78,
      "start": 0.6193,
      "duration": 0.1832,
      "velocity": 121,
      "chip": "ym2612"
    },
    {
      "channel": 2,
      "note": 39,
      "start": 0.6208,
      "duration": 0.1819,
      "velocity": 98,
      "chip": "ym2612"
    },
    {
      "channel": 3,
      "note": 78,
      "start": 0.621,
      "duration": 0.1817,
      "velocity": 98,
      "chip": "ym2612"
    },
    {
      "channel": 0,
      "note": 75,
      "start": 0.8193,
      "duration": 0.3832,
      "velocity": 121,
      "chip": "ym2612"
    },
    {
      "channel": 2,
      "note": 87,
      "start": 0.8208,
      "duration": 0.1819,
      "velocity": 100,
      "chip": "ym2612"
    },
    {
      "channel": 5,
      "note": 42,
      "start": 0.8212,
      "duration": 0.3817,
      "velocity": 127,
      "chip": "ym2612"
    },
    {
      "channel": 2,
      "note": 46,
      "start": 1.0206,
      "duration": 0.182,
      "velocity": 98,
      "chip": "ym2612"
    },
    {
      "channel": 3,
      "note": 78,
      "start": 1.0208,
      "duration": 0.1819,
      "velocity": 98,
      "chip": "ym2612"
    },
    {
      "channel": 0,
      "note": 77,
      "start": 1.2193,
      "duration": 0.3832,
      "velocity": 121,
      "chip": "ym2612"
    },
    {
      "channel": 2,
      "note": 85,
      "start": 1.2208,
      "duration": 0.1817,
      "velocity": 100,
      "chip": "ym2612"
    },
    {
      "channel": 5,
      "note": 42,
      "start": 1.2212,
      "duration": 0.3817,
      "velocity": 127,
      "chip": "ym2612"
    },
    {
      "channel": 2,
      "note": 46,
      "start": 1.4207,
      "duration": 0.1821,
      "velocity": 98,
      "chip": "ym2612"
    },
    {
      "channel": 3,
      "note": 77,
      "start": 1.4209,
      "duration": 0.1819,
      "velocity": 98,
      "chip": "ym2612"
    },
    {
      "channel": 2,
      "note": 85,
      "start": 1.6207,
      "duration": 0.1821,
      "velocity": 100,
      "chip": "ym2612"
    },
    {
      "channel": 5,
      "note": 42,
      "start": 1.621,
      "duration": 0.3819,
      "velocity": 127,
      "chip": "ym2612"
    },
    {
      "channel": 0,
      "note": 73,
      "start": 1.8193,
      "duration": 0.1832,
      "velocity": 121,
      "chip": "ym2612"
    },
    {
      "channel": 2,
      "note": 39,
      "start": 1.8208,
      "duration": 0.1819,
      "velocity": 98,
      "chip": "ym2612"
    },
    {
      "channel": 3,
      "note": 77,
      "start": 1.821,
      "duration": 0.1817,
      "velocity": 98,
      "chip": "ym2612"
    },
    {
      "channel": 0,
      "note": 75,
      "start": 2.0192,
      "duration": 0.1833,
      "velocity": 121,
      "chip": "ym2612"
    },
    {
      "channel": 2,
      "note": 87,
      "start": 2.0207,
      "duration": 0.1819,
      "velocity": 100,
      "chip": "ym2612"
    },
    {
      "channel": 5,
      "note": 42,
      "start": 2.0211,
      "duration": 0.3817,
      "velocity": 127,
      "chip": "ym2612"
    },
    {
      "channel": 0,
      "note": 78,
      "start": 2.2192,
      "duration": 0.1832,
      "velocity": 121,
      "chip": "ym2612"
    },
    {
      "channel": 2,
      "note": 42,
      "start": 2.2207,
      "duration": 0.1819,
      "velocity": 98,
      "chip": "ym2612"
    },
    {
      "channel": 3,
      "note": 78,
      "start": 2.221,
      "duration": 0.1817,
      "velocity": 98,
      "chip": "ym2612"
    },
    {
      "channel": 0,
      "note": 75,
      "start": 2.4193,
      "duration": 0.3831,
      "velocity": 121,
      "chip": "ym2612"
    },
    {
      "channel": 2,
      "note": 87,
      "start": 2.4208,
      "duration": 0.0817,
      "velocity": 100,
      "chip": "ym2612"
    },
    {
      "channel": 5,
      "note": 42,
      "start": 2.4212,
      "duration": 0.3817,
      "velocity": 127,
      "chip": "ym2612"
    },
    {
      "channel": 2,
      "note": 46,
      "start": 2.5194,
      "duration": 0.0833,
      "velocity": 100,
      "chip": "ym2612"
    },
    {
      "channel": 2,
      "note": 46,
      "start": 2.6208,
      "duration": 0.1819,
      "velocity": 98,
      "chip": "ym2612"
    },
    {
      "channel": 3,
      "note": 78,
      "start": 2.621,
      "duration": 0.1817,
      "velocity": 98,
      "chip": "ym2612"
    },
    {
      "channel": 0,
      "note": 77,
      "start": 2.8192,
      "duration": 0.3833,
      "velocity": 121,
      "chip": "ym2612"
    },
    {
      "channel": 2,
      "note": 85,
      "start": 2.8207,
      "duration": 0.1819,
      "velocity": 100,
      "chip": "ym2612"
    },
    {
      "channel": 5,
      "note": 42,
      "start": 2.8211,
      "duration": 0.382,
      "velocity": 127,
      "chip": "ym2612"
    },
    {
      "channel": 2,
      "note": 46,
      "start": 3.0207,
      "duration": 0.1821,
      "velocity": 98,
      "chip": "ym2612"
    },
    {
      "channel": 3,
      "note": 77,
      "start": 3.0209,
      "duration": 0.182,
      "velocity": 98,
      "chip": "ym2612"
    },
    {
      "channel": 2,
      "note": 85,
      "start": 3.2207,
      "duration": 0.182,
      "velocity": 100,
      "chip": "ym2612"
    },
    {
      "channel": 5,
      "note": 42,
      "start": 3.2211,
      "duration": 0.3817,
      "velocity": 127,
      "chip": "ym2612"
    },
    {
      "channel": 0,
      "note": 80,
      "start": 3.4192,
      "duration": 0.1832,
      "velocity": 121,
      "chip": "ym2612"
    },
    {
      "channel": 2,
      "note": 39,
      "start": 3.4207,
      "duration": 0.1819,
      "velocity": 98,
      "chip": "ym2612"
    },
    {
      "channel": 3,
      "note": 77,
      "start": 3.421,
      "duration": 0.1817,
      "velocity": 98,
      "chip": "ym2612"
    },
    {
      "channel": 0,
      "note": 75,
      "start": 3.6192,
      "duration": 0.1832,
      "velocity": 121,
      "chip": "ym2612"
    },
    {
      "channel": 2,
      "note": 87,
      "start": 3.6207,
      "duration": 0.1819,
      "velocity": 100,
      "chip": "ym2612"
    },
    {
      "channel": 5,
      "note": 42,
      "start": 3.6211,
      "duration": 0.3819,
      "velocity": 127,
      "chip": "ym2612"
    },
    {
      "channel": 0,
      "note": 78,
      "start": 3.8193,
      "duration": 0.1832,
      "velocity": 121,
      "chip": "ym2612"
    },
    {
      "channel": 2,
      "note": 39,
      "start": 3.8208,
      "duration": 0.1819,
      "velocity": 98,
      "chip": "ym2612"
    },
    {
      "channel": 3,
      "note": 78,
      "start": 3.821,
      "duration": 0.1817,
      "velocity": 98,
      "chip": "ym2612"
    },
    {
      "channel": 0,
      "note": 75,
      "start": 4.0193,
      "duration": 0.3832,
      "velocity": 121,
      "chip": "ym2612"
    },
    {
      "channel": 2,
      "note": 87,
      "start": 4.0208,
      "duration": 0.1819,
      "velocity": 100,
      "chip": "ym2612"
    },
    {
      "channel": 5,
      "note": 42,
      "start": 4.0212,
      "duration": 0.3817,
      "velocity": 127,
      "chip": "ym2612"
    },
    {
      "channel": 2,
      "note": 46,
      "start": 4.2207,
      "duration": 0.182,
      "velocity": 98,
      "chip": "ym2612"
    },
    {
      "channel": 3,
      "note": 78,
      "start": 4.2208,
      "duration": 0.1819,
      "velocity": 98,
      "chip": "ym2612"
    },
    {
      "channel": 0,
      "note": 77,
      "start": 4.4192,
      "duration": 0.3833,
      "velocity": 121,
      "chip": "ym2612"
    },
    {
      "channel": 2,
      "note": 85,
      "start": 4.4207,
      "duration": 0.1819,
      "velocity": 100,
      "chip": "ym2612"
    },
    {
      "channel": 5,
      "note": 42,
      "start": 4.4211,
      "duration": 0.3818,
      "velocity": 127,
      "chip": "ym2612"
    },
    {
      "channel": 2,
      "note": 46,
      "start": 4.6207,
      "duration": 0.182,
      "velocity": 98,
      "chip": "ym2612"
    },
    {
      "channel": 3,
      "note": 77,
      "start": 4.6209,
      "duration": 0.1819,
      "velocity": 98,
      "chip": "ym2612"
    },
    {
      "channel": 0,
      "note": 73,
      "start": 4.8193,
      "duration": 0.5832,
      "velocity": 121,
      "chip": "ym2612"
    },
    {
      "channel": 2,
      "note": 85,
      "start": 4.8208,
      "duration": 0.1819,
      "velocity": 100,
      "chip": "ym2612"
    },
    {
      "channel": 5,
      "note": 42,
      "start": 4.8212,
      "duration": 0.3816,
      "velocity": 127,
      "chip": "ym2612"
    },
    {
      "channel": 2,
      "note": 42,
      "start": 5.0206,
      "duration": 0.1819,
      "velocity": 98,
      "chip": "ym2612"
    },
    {
      "channel": 3,
      "note": 77,
      "start": 5.0208,
      "duration": 0.1818,
      "velocity": 98,
      "chip": "ym2612"
    },
    {
      "channel": 2,
      "note": 90,
      "start": 5.2207,
      "duration": 0.1819,
      "velocity": 100,
      "chip": "ym2612"
    },
    {
      "channel": 5,
      "note": 42,
      "start": 5.221,
      "duration": 0.3818,
      "velocity": 127,
      "chip": "ym2612"
    },
    {
      "channel": 0,
      "note": 70,
      "start": 5.4193,
      "duration": 0.0831,
      "velocity": 121,
      "chip": "ym2612"
    },
    {
      "channel": 2,
      "note": 42,
      "start": 5.4208,
      "duration": 0.0817,
      "velocity": 98,
      "chip": "ym2612"
    },
    {
      "channel": 3,
      "note": 82,
      "start": 5.421,
      "duration": 0.0817,
      "velocity": 98,
      "chip": "ym2612"
    },
    {
      "channel": 0,
      "note": 70,
      "start": 5.5193,
      "duration": 0.0832,
      "velocity": 121,
      "chip": "ym2612"
    },
    {
      "channel": 2,
      "note": 90,
      "start": 5.5195,
      "duration": 0.0832,
      "velocity": 98,
      "chip": "ym2612"
    },
    {
      "channel": 3,
      "note": 82,
      "start": 5.5197,
      "duration": 0.083,
      "velocity": 98,
      "chip": "ym2612"
    },
    {
      "channel": 0,
      "note": 70,
      "start": 5.6193,
      "duration": 0.1831,
      "velocity": 121,
      "chip": "ym2612"
    },
    {
      "channel": 2,
      "note": 90,
      "start": 5.6208,
      "duration": 0.1818,
      "velocity": 100,
      "chip": "ym2612"
    },
    {
      "channel": 5,
      "note": 42,
      "start": 5.6212,
      "duration": 0.3816,
      "velocity": 127,
      "chip": "ym2612"
    },
    {
      "channel": 0,
      "note": 70,
      "start": 5.8194,
      "duration": 0.0831,
      "velocity": 121,
      "chip": "ym2612"
    },
    {
      "channel": 2,
      "note": 49,
      "start": 5.821,
      "duration": 0.0817,
      "velocity": 98,
      "chip": "ym2612"
    },
    {
      "channel": 3,
      "note": 82,
      "start": 5.8212,
      "duration": 0.0816,
      "velocity": 98,
      "chip": "ym2612"
    },
    {
      "channel": 0,
      "note": 70,
      "start": 5.9192,
      "duration": 0.0832,
      "velocity": 121,
      "chip": "ym2612"
    },
    {
      "channel": 2,
      "note": 90,
      "start": 5.9195,
      "duration": 0.0831,
      "velocity": 98,
      "chip": "ym2612"
    },
    {
      "channel": 3,
      "note": 82,
      "start": 5.9197,
      "duration": 0.083,
      "velocity": 98,
      "chip": "ym2612"
    },
    {
      "channel": 0,
      "note": 70,
      "start": 6.0193,
      "duration": 0.1831,
      "velocity": 121,
      "chip": "ym2612"
    },
    {
      "channel": 2,
      "note": 90,
      "start": 6.0208,
      "duration": 0.1817,
      "velocity": 100,
      "chip": "ym2612"
    },
    {
      "channel": 5,
      "note": 42,
      "start": 6.0212,
      "duration": 0.3818,
      "velocity": 127,
      "chip": "ym2612"
    },
    {
      "channel": 0,
      "note": 70,
      "start": 6.2193,
      "duration": 0.1833,
      "velocity": 121,
      "chip": "ym2612"
    },
    {
      "channel": 2,
      "note": 49,
      "start": 6.2208,
      "duration": 0.0819,
      "velocity": 98,
      "chip": "ym2612"
    },
    {
      "channel": 3,
      "note": 82,
      "start": 6.221,
      "duration": 0.0817,
      "velocity": 98,
      "chip": "ym2612"
    },
    {
      "channel": 2,
      "note": 90,
      "start": 6.3193,
      "duration": 0.0835,
      "velocity": 98,
      "chip": "ym2612"
    },
    {
      "channel": 3,
      "note": 82,
      "start": 6.3196,
      "duration": 0.0833,
      "velocity": 98,
      "chip": "ym2612"
    },
    {
      "channel": 0,
      "note": 70,
      "start": 6.4195,
      "duration": 0.5829,
      "velocity": 121,
      "chip": "ym2612"
    },
    {
      "channel": 1,
      "note": -1,
      "start": 6.4198,
      "duration": 1.5829,
      "velocity": 86,
      "chip": "ym2612"
    },
    {
      "channel": 2,
      "note": 90,
      "start": 6.4212,
      "duration": 0.1814,
      "velocity": 100,
      "chip": "ym2612"
    },
    {
      "channel": 5,
      "note": 42,
      "start": 6.4217,
      "duration": 0.3812,
      "velocity": 127,
      "chip": "ym2612"
    },
    {
      "channel": 2,
      "note": 46,
      "start": 6.6207,
      "duration": 0.1819,
      "velocity": 98,
      "chip": "ym2612"
    },
    {
      "channel": 3,
      "note": 82,
      "start": 6.6209,
      "duration": 0.1819,
      "velocity": 98,
      "chip": "ym2612"
    },
    {
      "channel": 2,
      "note": 82,
      "start": 6.8207,
      "duration": 0.1819,
      "velocity": 100,
      "chip": "ym2612"
    },
    {
      "channel": 5,
      "note": 42,
      "start": 6.821,
      "duration": 0.3818,
      "velocity": 127,
      "chip": "ym2612"
    },
    {
      "channel": 0,
      "note": 70,
      "start": 7.0194,
      "duration": 0.0831,
      "velocity": 121,
      "chip": "ym2612"
    },
    {
      "channel": 2,
      "note": 41,
      "start": 7.0209,
      "duration": 0.0818,
      "velocity": 98,
      "chip": "ym2612"
    },
    {
      "channel": 3,
      "note": 86,
      "start": 7.0212,
      "duration": 0.0816,
      "velocity": 98,
      "chip": "ym2612"
    },
    {
      "channel": 0,
      "note": 70,
      "start": 7.1192,
      "duration": 0.0832,
      "velocity": 121,
      "chip": "ym2612"
    },
    {
      "channel": 2,
      "note": 82,
      "start": 7.1195,
      "duration": 0.0831,
      "velocity": 98,
      "chip": "ym2612"
    },
    {
      "channel": 3,
      "note": 86,
      "start": 7.1197,
      "duration": 0.083,
      "velocity": 98,
      "chip": "ym2612"
    },
    {
      "channel": 0,
      "note": 70,
      "start": 7.2193,
      "duration": 0.1831,
      "velocity": 121,
      "chip": "ym2612"
    },
    {
      "channel": 2,
      "note": 82,
      "start": 7.2208,
      "duration": 0.1818,
      "velocity": 100,
      "chip": "ym2612"
    },
    {
      "channel": 5,
      "note": 42,
      "start": 7.2212,
      "duration": 0.3817,
      "velocity": 127,
      "chip": "ym2612"
    },
    {
      "channel": 0,
      "note": 70,
      "start": 7.4193,
      "duration": 0.0832,
      "velocity": 121,
      "chip": "ym2612"
    },
    {
      "channel": 2,
      "note": 46,
      "start": 7.4208,
      "duration": 0.0819,
      "velocity": 98,
      "chip": "ym2612"
    },
    {
      "channel": 3,
      "note": 86,
      "start": 7.421,
      "duration": 0.0817,
      "velocity": 98,
      "chip": "ym2612"
    },
    {
      "channel": 0,
      "note": 70,
      "start": 7.5192,
      "duration": 0.0832,
      "velocity": 121,
      "chip": "ym2612"
    },
    {
      "channel": 2,
      "note": 82,
      "start": 7.5195,
      "duration": 0.0831,
      "velocity": 98,
      "chip": "ym2612"
    },
    {
      "channel": 3,
      "note": 86,
      "start": 7.5197,
      "duration": 0.083,
      "velocity": 98,
      "chip": "ym2612"
    },
    {
      "channel": 0,
      "note": 70,
      "start": 7.6193,
      "duration": 0.1832,
      "velocity": 121,
      "chip": "ym2612"
    },
    {
      "channel": 2,
      "note": 82,
      "start": 7.6208,
      "duration": 0.1819,
      "velocity": 100,
      "chip": "ym2612"
    },
    {
      "channel": 5,
      "note": 42,
      "start": 7.6212,
      "duration": 0.3819,
      "velocity": 127,
      "chip": "ym2612"
    },
    {
      "channel": 0,
      "note": 70,
      "start": 7.8192,
      "duration": 0.1833,
      "velocity": 121,
      "chip": "ym2612"
    },
    {
      "channel": 2,
      "note": 41,
      "start": 7.8208,
      "duration": 0.0818,
      "velocity": 98,
      "chip": "ym2612"
    },
    {
      "channel": 3,
      "note": 86,
      "start": 7.821,
      "duration": 0.0817,
      "velocity": 98,
      "chip": "ym2612"
    },
    {
      "channel": 2,
      "note": 82,
      "start": 7.9194,
      "duration": 0.0833,
      "velocity": 98,
      "chip": "ym2612"
    },
    {
      "channel": 3,
      "note": 86,
      "start": 7.9196,
      "duration": 0.0832,
      "velocity": 98,
      "chip": "ym2612"
    },
    {
      "channel": 2,
      "note": 82,
      "start": 8.0225,
      "duration": 0.1802,
      "velocity": 100,
      "chip": "ym2612"
    },
    {
      "channel": 5,
      "note": 42,
      "start": 8.0255,
      "duration": 0.3775,
      "velocity": 127,
      "chip": "ym2612"
    },
    {
      "channel": 0,
      "note": 70,
      "start": 8.2193,
      "duration": 0.1832,
      "velocity": 121,
      "chip": "ym2612"
    },
    {
      "channel": 1,
      "note": 74,
      "start": 8.2196,
      "duration": 0.1831,
      "velocity": 86,
      "chip": "ym2612"
    },
    {
      "channel": 2,
      "note": 39,
      "start": 8.2211,
      "duration": 0.1816,
      "velocity": 98,
      "chip": "ym2612"
    },
    {
      "channel": 3,
      "note": 86,
      "start": 8.2213,
      "duration": 0.1815,
      "velocity": 98,
      "chip": "ym2612"
    },
    {
      "channel": 0,
      "note": 75,
      "start": 8.4193,
      "duration": 0.1832,
      "velocity": 121,
      "chip": "ym2612"
    },
    {
      "channel": 1,
      "note": 70,
      "start": 8.4195,
      "duration": 0.1831,
      "velocity": 86,
      "chip": "ym2612"
    },
    {
      "channel": 2,
      "note": 87,
      "start": 8.421,
      "duration": 0.1817,
      "velocity": 100,
      "chip": "ym2612"
    },
    {
      "channel": 5,
      "note": 42,
      "start": 8.4214,
      "duration": 0.3816,
      "velocity": 127,
      "chip": "ym2612"
    },
    {
      "channel": 0,
      "note": 78,
      "start": 8.6192,
      "duration": 0.1833,
      "velocity": 121,
      "chip": "ym2612"
    },
    {
      "channel": 1,
      "note": 75,
      "start": 8.6195,
      "duration": 0.1832,
      "velocity": 86,
      "chip": "ym2612"
    },
    {
      "channel": 2,
      "note": 39,
      "start": 8.621,
      "duration": 0.1817,
      "velocity": 98,
      "chip": "ym2612"
    },
    {
      "channel": 3,
      "note": 78,
      "start": 8.6212,
      "duration": 0.1817,
      "velocity": 98,
      "chip": "ym2612"
    },
    {
      "channel": 0,
      "note": 75,
      "start": 8.8193,
      "duration": 0.3831,
      "velocity": 121,
      "chip": "ym2612"
    },
    {
      "channel": 1,
      "note": 70,
      "start": 8.8195,
      "duration": 0.7832,
      "velocity": 86,
      "chip": "ym2612"
    },
    {
      "channel": 2,
      "note": 87,
      "start": 8.821,
      "duration": 0.1815,
      "velocity": 100,
      "chip": "ym2612"
    },
    {
      "channel": 5,
      "note": 42,
      "start": 8.8214,
      "duration": 0.3815,
      "velocity": 127,
      "chip": "ym2612"
    },
    {
      "channel": 2,
      "note": 46,
      "start": 9.0207,
      "duration": 0.1819,
      "velocity": 98,
      "chip": "ym2612"
    },
    {
      "channel": 3,
      "note": 78,
      "start": 9.0209,
      "duration": 0.1818,
      "velocity": 98,
      "chip": "ym2612"
    },
    {
      "channel": 0,
      "note": 77,
      "start": 9.2193,
      "duration": 0.3832,
      "velocity": 121,
      "chip": "ym2612"
    },
    {
      "channel": 2,
      "note": 85,
      "start": 9.2208,
      "duration": 0.1817,
      "velocity": 100,
      "chip": "ym2612"
    },
    {
      "channel": 5,
      "note": 42,
      "start": 9.2212,
      "duration": 0.3818,
      "velocity": 127,
      "chip": "ym2612"
    },
    {
      "channel": 2,
      "note": 46,
      "start": 9.4207,
      "duration": 0.1821,
      "velocity": 98,
      "chip": "ym2612"
    },
    {
      "channel": 3,
      "note": 77,
      "start": 9.4209,
      "duration": 0.1819,
      "velocity": 98,
      "chip": "ym2612"
    },
    {
      "channel": 2,
      "note": 85,
      "start": 9.6208,
      "duration": 0.1819,
      "velocity": 100,
      "chip": "ym2612"
    },
    {
      "channel": 5,
      "note": 42,
      "start": 9.6211,
      "duration": 0.3819,
      "velocity": 127,
      "chip": "ym2612"
    },
    {
      "channel": 0,
      "note": 73,
      "start": 9.8193,
      "duration": 0.1832,
      "velocity": 121,
      "chip": "ym2612"
    },
    {
      "channel": 1,
      "note": 73,
      "start": 9.8195,
      "duration": 0.1832,
      "velocity": 86,
      "chip": "ym2612"
    },
    {
      "channel": 2,
      "note": 39,
      "start": 9.821,
      "duration": 0.1818,
      "velocity": 98,
      "chip": "ym2612"
    },
    {
      "channel": 3,
      "note": 77,
      "start": 9.8212,
      "duration": 0.1817,
      "velocity": 98,
      "chip": "ym2612"
    },
    {
      "channel": 0,
      "note": 75,
      "start": 10.0193,
      "duration": 0.1832,
      "velocity": 121,
      "chip": "ym2612"
    },
    {
      "channel": 1,
      "note": 70,
      "start": 10.0195,
      "duration": 0.1832,
      "velocity": 86,
      "chip": "ym2612"
    },
    {
      "channel": 2,
      "note": 87,
      "start": 10.021,
      "duration": 0.1817,
      "velocity": 100,
      "chip": "ym2612"
    },
    {
      "channel": 5,
      "note": 42,
      "start": 10.0214,
      "duration": 0.3817,
      "velocity": 127,
      "chip": "ym2612"
    },
    {
      "channel": 0,
      "note": 78,
      "start": 10.2193,
      "duration": 0.1833,
      "velocity": 121,
      "chip": "ym2612"
    },
    {
      "channel": 1,
      "note": 75,
      "start": 10.2195,
      "duration": 0.1832,
      "velocity": 86,
      "chip": "ym2612"
    },
    {
      "channel": 2,
      "note": 42,
      "start": 10.221,
      "duration": 0.1818,
      "velocity": 98,
      "chip": "ym2612"
    },
    {
      "channel": 3,
      "note": 78,
      "start": 10.2212,
      "duration": 0.1817,
      "velocity": 98,
      "chip": "ym2612"
    },
    {
      "channel": 0,
      "note": 75,
      "start": 10.4193,
      "duration": 0.383,
      "velocity": 121,
      "chip": "ym2612"
    },
    {
      "channel": 1,
      "note": 70,
      "start": 10.4196,
      "duration": 0.783,
      "velocity": 86,
      "chip": "ym2612"
    },
    {
      "channel": 2,
      "note": 87,
      "start": 10.421,
      "duration": 0.0816,
      "velocity": 100,
      "chip": "ym2612"
    },
    {
      "channel": 5,
      "note": 42,
      "start": 10.4214,
      "duration": 0.3814,
      "velocity": 127,
      "chip": "ym2612"
    },
    {
      "channel": 2,
      "note": 46,
      "start": 10.5193,
      "duration": 0.0833,
      "velocity": 100,
      "chip": "ym2612"
    },
    {
      "channel": 2,
      "note": 46,
      "start": 10.6207,
      "duration": 0.1819,
      "velocity": 98,
      "chip": "ym2612"
    },
    {
      "channel": 3,
      "note": 78,
      "start": 10.6209,
      "duration": 0.1817,
      "velocity": 98,
      "chip": "ym2612"
    },
    {
      "channel": 0,
      "note": 77,
      "start": 10.8191,
      "duration": 0.3833,
      "velocity": 121,
      "chip": "ym2612"
    },
    {
      "channel": 2,
      "note": 85,
      "start": 10.8207,
      "duration": 0.1819,
      "velocity": 100,
      "chip": "ym2612"
    },
    {
      "channel": 5,
      "note": 42,
      "start": 10.821,
      "duration": 0.382,
      "velocity": 127,
      "chip": "ym2612"
    },
    {
      "channel": 2,
      "note": 46,
      "start": 11.0207,
      "duration": 0.1821,
      "velocity": 98,
      "chip": "ym2612"
    },
    {
      "channel": 3,
      "note": 77,
      "start": 11.0208,
      "duration": 0.182,
      "velocity": 98,
      "chip": "ym2612"
    },
    {
      "channel": 2,
      "note": 85,
      "start": 11.2207,
      "duration": 0.182,
      "velocity": 100,
      "chip": "ym2612"
    },
    {
      "channel": 5,
      "note": 42,
      "start": 11.221,
      "duration": 0.3819,
      "velocity": 127,
      "chip": "ym2612"
    },
    {
      "channel": 0,
      "note": 80,
      "start": 11.4192,
      "duration": 0.1832,
      "velocity": 121,
      "chip": "ym2612"
    },
    {
      "channel": 1,
      "note": 73,
      "start": 11.4194,
      "duration": 0.1832,
      "velocity": 86,
      "chip": "ym2612"
    },
    {
      "channel": 2,
      "note": 39,
      "start": 11.4209,
      "duration": 0.1817,
      "velocity": 98,
      "chip": "ym2612"
    },
    {
      "channel": 3,
      "note": 77,
      "start": 11.4211,
      "duration": 0.1817,
      "velocity": 98,
      "chip": "ym2612"
    },
    {
      "channel": 0,
      "note": 75,
      "start": 11.6193,
      "duration": 0.1831,
      "velocity": 121,
      "chip": "ym2612"
    },
    {
      "channel": 1,
      "note": 70,
      "start": 11.6195,
      "duration": 0.1831,
      "velocity": 86,
      "chip": "ym2612"
    },
    {
      "channel": 2,
      "note": 87,
      "start": 11.621,
      "duration": 0.1817,
      "velocity": 100,
      "chip": "ym2612"
    },
    {
      "channel": 5,
      "note": 42,
      "start": 11.6213,
      "duration": 0.3815,
      "velocity": 127,
      "chip": "ym2612"
    },
    {
      "channel": 0,
      "note": 78,
      "start": 11.8191,
      "duration": 0.1832,
      "velocity": 121,
      "chip": "ym2612"
    },
    {
      "channel": 1,
      "note": 75,
      "start": 11.8194,
      "duration": 0.1831,
      "velocity": 86,
      "chip": "ym2612"
    },
    {
      "channel": 2,
      "note": 39,
      "start": 11.8208,
      "duration": 0.1818,
      "velocity": 98,
      "chip": "ym2612"
    },
    {
      "channel": 3,
      "note": 78,
      "start": 11.8211,
      "duration": 0.1816,
      "velocity": 98,
      "chip": "ym2612"
    },
    {
      "channel": 0,
      "note": 75,
      "start": 12.0193,
      "duration": 0.3831,
      "velocity": 121,
      "chip": "ym2612"
    },
    {
      "channel": 1,
      "note": 70,
      "start": 12.0196,
      "duration": 0.7831,
      "velocity": 86,
      "chip": "ym2612"
    },
    {
      "channel": 2,
      "note": 87,
      "start": 12.021,
      "duration": 0.1815,
      "velocity": 100,
      "chip": "ym2612"
    },
    {
      "channel": 5,
      "note": 42,
      "start": 12.0214,
      "duration": 0.3814,
      "velocity": 127,
      "chip": "ym2612"
    },
    {
      "channel": 2,
      "note": 46,
      "start": 12.2207,
      "duration": 0.182,
      "velocity": 98,
      "chip": "ym2612"
    },
    {
      "channel": 3,
      "note": 78,
      "start": 12.2208,
      "duration": 0.1819,
      "velocity": 98,
      "chip": "ym2612"
    },
    {
      "channel": 0,
      "note": 77,
      "start": 12.4192,
      "duration": 0.3833,
      "velocity": 121,
      "chip": "ym2612"
    },
    {
      "channel": 2,
      "note": 85,
      "start": 12.4207,
      "duration": 0.1819,
      "velocity": 100,
      "chip": "ym2612"
    },
    {
      "channel": 5,
      "note": 42,
      "start": 12.4211,
      "duration": 0.3819,
      "velocity": 127,
      "chip": "ym2612"
    },
    {
      "channel": 2,
      "note": 46,
      "start": 12.6205,
      "duration": 0.1822,
      "velocity": 98,
      "chip": "ym2612"
    },
    {
      "channel": 3,
      "note": 77,
      "start": 12.6208,
      "duration": 0.182,
      "velocity": 98,
      "chip": "ym2612"
    },
    {
      "channel": 0,
      "note": 73,
      "start": 12.8193,
      "duration": 0.583,
      "velocity": 121,
      "chip": "ym2612"
    },
    {
      "channel": 1,
      "note": 73,
      "start": 12.8195,
      "duration": 1.5832,
      "velocity": 86,
      "chip": "ym2612"
    },
    {
      "channel": 2,
      "note": 85,
      "start": 12.821,
      "duration": 0.1815,
      "velocity": 100,
      "chip": "ym2612"
    },
    {
      "channel": 5,
      "note": 42,
      "start": 12.8214,
      "duration": 0.3814,
      "velocity": 127,
      "chip": "ym2612"
    },
    {
      "channel": 2,
      "note": 42,
      "start": 13.0205,
      "duration": 0.182,
      "velocity": 98,
      "chip": "ym2612"
    },
    {
      "channel": 3,
      "note": 77,
      "start": 13.0208,
      "duration": 0.1818,
      "velocity": 98,
      "chip": "ym2612"
    },
    {
      "channel": 2,
      "note": 90,
      "start": 13.2207,
      "duration": 0.1819,
      "velocity": 100,
      "chip": "ym2612"
    },
    {
      "channel": 5,
      "note": 42,
      "start": 13.221,
      "duration": 0.3819,
      "velocity": 127,
      "chip": "ym2612"
    },
    {
      "channel": 0,
      "note": 70,
      "start": 13.4193,
      "duration": 0.0831,
      "velocity": 121,
      "chip": "ym2612"
    },
    {
      "channel": 2,
      "note": 42,
      "start": 13.4209,
      "duration": 0.0817,
      "velocity": 98,
      "chip": "ym2612"
    },
    {
      "channel": 3,
      "note": 82,
      "start": 13.4211,
      "duration": 0.0816,
      "velocity": 98,
      "chip": "ym2612"
    },
    {
      "channel": 0,
      "note": 70,
      "start": 13.5191,
      "duration": 0.0833,
      "velocity": 121,
      "chip": "ym2612"
    },
    {
      "channel": 2,
      "note": 90,
      "start": 13.5194,
      "duration": 0.0833,
      "velocity": 98,
      "chip": "ym2612"
    },
    {
      "channel": 3,
      "note": 82,
      "start": 13.5196,
      "duration": 0.0831,
      "velocity": 98,
      "chip": "ym2612"
    },
    {
      "channel": 0,
      "note": 70,
      "start": 13.6193,
      "duration": 0.1831,
      "velocity": 121,
      "chip": "ym2612"
    },
    {
      "channel": 2,
      "note": 90,
      "start": 13.6209,
      "duration": 0.1817,
      "velocity": 100,
      "chip": "ym2612"
    },
    {
      "channel": 5,
      "note": 42,
      "start": 13.6212,
      "duration": 0.3816,
      "velocity": 127,
      "chip": "ym2612"
    },
    {
      "channel": 0,
      "note": 70,
      "start": 13.8193,
      "duration": 0.0831,
      "velocity": 121,
      "chip": "ym2612"
    },
    {
      "channel": 2,
      "note": 49,
      "start": 13.8208,
      "duration": 0.0817,
      "velocity": 98,
      "chip": "ym2612"
    },
    {
      "channel": 3,
      "note": 82,
      "start": 13.821,
      "duration": 0.0816,
      "velocity": 98,
      "chip": "ym2612"
    },
    {
      "channel": 0,
      "note": 70,
      "start": 13.9191,
      "duration": 0.0833,
      "velocity": 121,
      "chip": "ym2612"
    },
    {
      "channel": 2,
      "note": 90,
      "start": 13.9193,
      "duration": 0.0833,
      "velocity": 98,
      "chip": "ym2612"
    },
    {
      "channel": 3,
      "note": 82,
      "start": 13.9196,
      "duration": 0.0832,
      "velocity": 98,
      "chip": "ym2612"
    },
    {
      "channel": 0,
      "note": 70,
      "start": 14.0193,
      "duration": 0.183,
      "velocity": 121,
      "chip": "ym2612"
    },
    {
      "channel": 2,
      "note": 90,
      "start": 14.0208,
      "duration": 0.1817,
      "velocity": 100,
      "chip": "ym2612"
    },
    {
      "channel": 5,
      "note": 42,
      "start": 14.0212,
      "duration": 0.3818,
      "velocity": 127,
      "chip": "ym2612"
    },
    {
      "channel": 0,
      "note": 70,
      "start": 14.2192,
      "duration": 0.1833,
      "velocity": 121,
      "chip": "ym2612"
    },
    {
      "channel": 2,
      "note": 49,
      "start": 14.2208,
      "duration": 0.0818,
      "velocity": 98,
      "chip": "ym2612"
    },
    {
      "channel": 3,
      "note": 82,
      "start": 14.221,
      "duration": 0.0817,
      "velocity": 98,
      "chip": "ym2612"
    },
    {
      "channel": 2,
      "note": 90,
      "start": 14.3193,
      "duration": 0.0835,
      "velocity": 98,
      "chip": "ym2612"
    },
    {
      "channel": 3,
      "note": 82,
      "start": 14.3195,
      "duration": 0.0833,
      "velocity": 98,
      "chip": "ym2612"
    },
    {
      "channel": 1,
      "note": 73,
      "start": 14.4198,
      "duration": 1.5827,
      "velocity": 86,
      "chip": "ym2612"
    },
    {
      "channel": 2,
      "note": 90,
      "start": 14.4214,
      "duration": 0.1812,
      "velocity": 100,
      "chip": "ym2612"
    },
    {
      "channel": 4,
      "note": -1,
      "start": 14.4229,
      "duration": 0.7798,
      "velocity": 86,
      "chip": "ym2612"
    },
    {
      "channel": 5,
      "note": 42,
      "start": 14.4244,
      "duration": 0.3785,
      "velocity": 127,
      "chip": "ym2612"
    },
    {
      "channel": 0,
      "note": 70,
      "start": 14.6193,
      "duration": 0.1832,
      "velocity": 121,
      "chip": "ym2612"
    },
    {
      "channel": 2,
      "note": 44,
      "start": 14.6208,
      "duration": 0.1819,
      "velocity": 98,
      "chip": "ym2612"
    },
    {
      "channel": 3,
      "note": 82,
      "start": 14.621,
      "duration": 0.1817,
      "velocity": 98,
      "chip": "ym2612"
    },
    {
      "channel": 0,
      "note": 68,
      "start": 14.8192,
      "duration": 0.1833,
      "velocity": 121,
      "chip": "ym2612"
    },
    {
      "channel": 2,
      "note": 87,
      "start": 14.8207,
      "duration": 0.1819,
      "velocity": 100,
      "chip": "ym2612"
    },
    {
      "channel": 5,
      "note": 42,
      "start": 14.8211,
      "duration": 0.3817,
      "velocity": 127,
      "chip": "ym2612"
    },
    {
      "channel": 0,
      "note": 71,
      "start": 15.0192,
      "duration": 0.1832,
      "velocity": 121,
      "chip": "ym2612"
    },
    {
      "channel": 2,
      "note": 44,
      "start": 15.0207,
      "duration": 0.1819,
      "velocity": 98,
      "chip": "ym2612"
    },
    {
      "channel": 3,
      "note": 92,
      "start": 15.0209,
      "duration": 0.1817,
      "velocity": 98,
      "chip": "ym2612"
    },
    {
      "channel": 0,
      "note": 68,
      "start": 15.2193,
      "duration": 0.383,
      "velocity": 121,
      "chip": "ym2612"
    },
    {
      "channel": 2,
      "note": 87,
      "start": 15.2208,
      "duration": 0.1817,
      "velocity": 100,
      "chip": "ym2612"
    },
    {
      "channel": 4,
      "note": 71,
      "start": 15.2212,
      "duration": 0.7816,
      "velocity": 86,
      "chip": "ym2612"
    },
    {
      "channel": 5,
      "note": 42,
      "start": 15.2214,
      "duration": 0.3814,
      "velocity": 127,
      "chip": "ym2612"
    },
    {
      "channel": 2,
      "note": 39,
      "start": 15.4205,
      "duration": 0.1821,
      "velocity": 98,
      "chip": "ym2612"
    },
    {
      "channel": 3,
      "note": 92,
      "start": 15.4208,
      "duration": 0.1819,
      "velocity": 98,
      "chip": "ym2612"
    },
    {
      "channel": 0,
      "note": 70,
      "start": 15.6191,
      "duration": 0.3832,
      "velocity": 121,
      "chip": "ym2612"
    },
    {
      "channel": 2,
      "note": 87,
      "start": 15.6207,
      "duration": 0.1819,
      "velocity": 100,
      "chip": "ym2612"
    },
    {
      "channel": 5,
      "note": 42,
      "start": 15.621,
      "duration": 0.3819,
      "velocity": 127,
      "chip": "ym2612"
    },
    {
      "channel": 2,
      "note": 39,
      "start": 15.8205,
      "duration": 0.1821,
      "velocity": 98,
      "chip": "ym2612"
    },
    {
      "channel": 3,
      "note": 90,
      "start": 15.8208,
      "duration": 0.1819,
      "velocity": 98,
      "chip": "ym2612"
    },
    {
      "channel": 1,
      "note": 75,
      "start": 16.0195,
      "duration": 0.7997,
      "velocity": 86,
      "chip": "ym2612"
    },
    {
      "channel": 2,
      "note": 87,
      "start": 16.021,
      "duration": 0.1815,
      "velocity": 100,
      "chip": "ym2612"
    },
    {
      "channel": 4,
      "note": 70,
      "start": 16.0213,
      "duration": 0.7982,
      "velocity": 86,
      "chip": "ym2612"
    },
    {
      "channel": 5,
      "note": 42,
      "start": 16.0215,
      "duration": 0.3981,
      "velocity": 127,
      "chip": "ym2612"
    },
    {
      "channel": 0,
      "note": 63,
      "start": 16.2192,
      "duration": 0.2,
      "velocity": 121,
      "chip": "ym2612"
    },
    {
      "channel": 2,
      "note": 49,
      "start": 16.2207,
      "duration": 0.1986,
      "velocity": 98,
      "chip": "ym2612"
    },
    {
      "channel": 3,
      "note": 90,
      "start": 16.2209,
      "duration": 0.1985,
      "velocity": 98,
      "chip": "ym2612"
    },
    {
      "channel": 0,
      "note": 73,
      "start": 16.4359,
      "duration": 0.1833,
      "velocity": 121,
      "chip": "ym2612"
    },
    {
      "channel": 2,
      "note": 85,
      "start": 16.4375,
      "duration": 0.1819,
      "velocity": 100,
      "chip": "ym2612"
    },
    {
      "channel": 5,
      "note": 42,
      "start": 16.4378,
      "duration": 0.3818,
      "velocity": 127,
      "chip": "ym2612"
    },
    {
      "channel": 0,
      "note": 77,
      "start": 16.6359,
      "duration": 0.1832,
      "velocity": 121,
      "chip": "ym2612"
    },
    {
      "channel": 2,
      "note": 49,
      "start": 16.6374,
      "duration": 0.1819,
      "velocity": 98,
      "chip": "ym2612"
    },
    {
      "channel": 3,
      "note": 89,
      "start": 16.6376,
      "duration": 0.1818,
      "velocity": 98,
      "chip": "ym2612"
    },
    {
      "channel": 0,
      "note": 73,
      "start": 16.8359,
      "duration": 0.7832,
      "velocity": 121,
      "chip": "ym2612"
    },
    {
      "channel": 1,
      "note": 73,
      "start": 16.8361,
      "duration": 0.7831,
      "velocity": 86,
      "chip": "ym2612"
    },
    {
      "channel": 2,
      "note": 85,
      "start": 16.8376,
      "duration": 0.1816,
      "velocity": 100,
      "chip": "ym2612"
    },
    {
      "channel": 4,
      "note": 68,
      "start": 16.838,
      "duration": 0.7815,
      "velocity": 86,
      "chip": "ym2612"
    },
    {
      "channel": 5,
      "note": 42,
      "start": 16.8381,
      "duration": 0.3812,
      "velocity": 127,
      "chip": "ym2612"
    },
    {
      "channel": 2,
      "note": 39,
      "start": 17.0372,
      "duration": 0.182,
      "velocity": 98,
      "chip": "ym2612"
    },
    {
      "channel": 3,
      "note": 89,
      "start": 17.0375,
      "duration": 0.1818,
      "velocity": 98,
      "chip": "ym2612"
    },
    {
      "channel": 2,
      "note": 87,
      "start": 17.2373,
      "duration": 0.1819,
      "velocity": 100,
      "chip": "ym2612"
    },
    {
      "channel": 5,
      "note": 42,
      "start": 17.2376,
      "duration": 0.382,
      "velocity": 127,
      "chip": "ym2612"
    },
    {
      "channel": 2,
      "note": 39,
      "start": 17.4373,
      "duration": 0.182,
      "velocity": 98,
      "chip": "ym2612"
    },
    {
      "channel": 3,
      "note": 90,
      "start": 17.4375,
      "duration": 0.182,
      "velocity": 98,
      "chip": "ym2612"
    },
    {
      "channel": 1,
      "note": 75,
      "start": 17.6362,
      "duration": 1.583,
      "velocity": 86,
      "chip": "ym2612"
    },
    {
      "channel": 2,
      "note": 87,
      "start": 17.6377,
      "duration": 0.1815,
      "velocity": 100,
      "chip": "ym2612"
    },
    {
      "channel": 4,
      "note": 70,
      "start": 17.638,
      "duration": 0.7815,
      "velocity": 86,
      "chip": "ym2612"
    },
    {
      "channel": 5,
      "note": 42,
      "start": 17.6382,
      "duration": 0.3813,
      "velocity": 127,
      "chip": "ym2612"
    },
    {
      "channel": 0,
      "note": 75,
      "start": 17.8359,
      "duration": 0.1832,
      "velocity": 121,
      "chip": "ym2612"
    },
    {
      "channel": 2,
      "note": 44,
      "start": 17.8375,
      "duration": 0.1818,
      "velocity": 98,
      "chip": "ym2612"
    },
    {
      "channel": 3,
      "note": 90,
      "start": 17.8376,
      "duration": 0.1817,
      "velocity": 98,
      "chip": "ym2612"
    },
    {
      "channel": 0,
      "note": 68,
      "start": 18.0358,
      "duration": 0.1832,
      "velocity": 121,
      "chip": "ym2612"
    },
    {
      "channel": 2,
      "note": 87,
      "start": 18.0374,
      "duration": 0.1819,
      "velocity": 100,
      "chip": "ym2612"
    },
    {
      "channel": 5,
      "note": 42,
      "start": 18.0377,
      "duration": 0.3819,
      "velocity": 127,
      "chip": "ym2612"
    },
    {
      "channel": 0,
      "note": 71,
      "start": 18.2359,
      "duration": 0.1832,
      "velocity": 121,
      "chip": "ym2612"
    },
    {
      "channel": 2,
      "note": 44,
      "start": 18.2375,
      "duration": 0.1819,
      "velocity": 98,
      "chip": "ym2612"
    },
    {
      "channel": 3,
      "note": 92,
      "start": 18.2376,
      "duration": 0.1817,
      "velocity": 98,
      "chip": "ym2612"
    },
    {
      "channel": 0,
      "note": 68,
      "start": 18.4359,
      "duration": 0.3832,
      "velocity": 121,
      "chip": "ym2612"
    },
    {
      "channel": 2,
      "note": 87,
      "start": 18.4375,
      "duration": 0.1818,
      "velocity": 100,
      "chip": "ym2612"
    },
    {
      "channel": 4,
      "note": 71,
      "start": 18.4378,
      "duration": 0.7817,
      "velocity": 86,
      "chip": "ym2612"
    },
    {
      "channel": 5,
      "note": 42,
      "start": 18.438,
      "duration": 0.3816,
      "velocity": 127,
      "chip": "ym2612"
    },
    {
      "channel": 2,
      "note": 39,
      "start": 18.6373,
      "duration": 0.182,
      "velocity": 98,
      "chip": "ym2612"
    },
    {
      "channel": 3,
      "note": 92,
      "start": 18.6376,
      "duration": 0.1819,
      "velocity": 98,
      "chip": "ym2612"
    },
    {
      "channel": 0,
      "note": 70,
      "start": 18.8359,
      "duration": 0.3831,
      "velocity": 121,
      "chip": "ym2612"
    },
    {
      "channel": 2,
      "note": 87,
      "start": 18.8375,
      "duration": 0.1818,
      "velocity": 100,
      "chip": "ym2612"
    },
    {
      "channel": 5,
      "note": 42,
      "start": 18.8378,
      "duration": 0.3818,
      "velocity": 127,
      "chip": "ym2612"
    },
    {
      "channel": 2,
      "note": 39,
      "start": 19.0373,
      "duration": 0.1821,
      "velocity": 98,
      "chip": "ym2612"
    },
    {
      "channel": 3,
      "note": 90,
      "start": 19.0375,
      "duration": 0.1819,
      "velocity": 98,
      "chip": "ym2612"
    },
    {
      "channel": 0,
      "note": 75,
      "start": 19.2362,
      "duration": 0.5828,
      "velocity": 121,
      "chip": "ym2612"
    },
    {
      "channel": 1,
      "note": 75,
      "start": 19.2364,
      "duration": 0.5828,
      "velocity": 86,
      "chip": "ym2612"
    },
    {
      "channel": 2,
      "note": 87,
      "start": 19.2379,
      "duration": 0.1814,
      "velocity": 100,
      "chip": "ym2612"
    },
    {
      "channel": 4,
      "note": 70,
      "start": 19.2382,
      "duration": 0.5812,
      "velocity": 86,
      "chip": "ym2612"
    },
    {
      "channel": 5,
      "note": 42,
      "start": 19.2385,
      "duration": 0.3809,
      "velocity": 127,
      "chip": "ym2612"
    },
    {
      "channel": 2,
      "note": 49,
      "start": 19.4372,
      "duration": 0.182,
      "velocity": 98,
      "chip": "ym2612"
    },
    {
      "channel": 3,
      "note": 90,
      "start": 19.4375,
      "duration": 0.1818,
      "velocity": 98,
      "chip": "ym2612"
    },
    {
      "channel": 2,
      "note": 85,
      "start": 19.6373,
      "duration": 0.1819,
      "velocity": 100,
      "chip": "ym2612"
    },
    {
      "channel": 5,
      "note": 42,
      "start": 19.6376,
      "duration": 0.3819,
      "velocity": 127,
      "chip": "ym2612"
    },
    {
      "channel": 0,
      "note": 73,
      "start": 19.836,
      "duration": 0.083,
      "velocity": 121,
      "chip": "ym2612"
    },
    {
      "channel": 1,
      "note": 77,
      "start": 19.8362,
      "duration": 0.083,
      "velocity": 86,
      "chip": "ym2612"
    },
    {
      "channel": 2,
      "note": 44,
      "start": 19.8377,
      "duration": 0.1816,
      "velocity": 98,
      "chip": "ym2612"
    },
    {
      "channel": 3,
      "note": 89,
      "start": 19.8379,
      "duration": 0.1815,
      "velocity": 98,
      "chip": "ym2612"
    },
    {
      "channel": 4,
      "note": 68,
      "start": 19.8381,
      "duration": 0.0812,
      "velocity": 86,
      "chip": "ym2612"
    },
    {
      "channel": 0,
      "note": 73,
      "start": 19.9359,
      "duration": 0.0832,
      "velocity": 121,
      "chip": "ym2612"
    },
    {
      "channel": 1,
      "note": 77,
      "start": 19.9361,
      "duration": 0.0831,
      "velocity": 86,
      "chip": "ym2612"
    },
    {
      "channel": 4,
      "note": 68,
      "start": 19.9364,
      "duration": 0.0831,
      "velocity": 86,
      "chip": "ym2612"
    },
    {
      "channel": 0,
      "note": 73,
      "start": 20.0361,
      "duration": 0.183,
      "velocity": 121,
      "chip": "ym2612"
    },
    {
      "channel": 1,
      "note": 77,
      "start": 20.0362,
      "duration": 0.183,
      "velocity": 86,
      "chip": "ym2612"
    },
    {
      "channel": 2,
      "note": 85,
      "start": 20.0378,
      "duration": 0.1816,
      "velocity": 100,
      "chip": "ym2612"
    },
    {
      "channel": 4,
      "note": 68,
      "start": 20.0381,
      "duration": 0.1814,
      "velocity": 86,
      "chip": "ym2612"
    },
    {
      "channel": 5,
      "note": 42,
      "start": 20.0383,
      "duration": 0.3814,
      "velocity": 127,
      "chip": "ym2612"
    },
    {
      "channel": 0,
      "note": 73,
      "start": 20.2361,
      "duration": 0.083,
      "velocity": 121,
      "chip": "ym2612"
    },
    {
      "channel": 1,
      "note": 77,
      "start": 20.2362,
      "duration": 0.083,
      "velocity": 86,
      "chip": "ym2612"
    },
    {
      "channel": 2,
      "note": 49,
      "start": 20.2378,
      "duration": 0.1816,
      "velocity": 98,
      "chip": "ym2612"
    },
    {
      "channel": 3,
      "note": 89,
      "start": 20.238,
      "duration": 0.1815,
      "velocity": 98,
      "chip": "ym2612"
    },
    {
      "channel": 4,
      "note": 68,
      "start": 20.2382,
      "duration": 0.0812,
      "velocity": 86,
      "chip": "ym2612"
    },
    {
      "channel": 0,
      "note": 73,
      "start": 20.3358,
      "duration": 0.0833,
      "velocity": 121,
      "chip": "ym2612"
    },
    {
      "channel": 1,
      "note": 77,
      "start": 20.336,
      "duration": 0.0833,
      "velocity": 86,
      "chip": "ym2612"
    },
    {
      "channel": 4,
      "note": 68,
      "start": 20.3363,
      "duration": 0.0833,
      "velocity": 86,
      "chip": "ym2612"
    },
    {
      "channel": 0,
      "note": 73,
      "start": 20.436,
      "duration": 0.183,
      "velocity": 121,
      "chip": "ym2612"
    },
    {
      "channel": 1,
      "note": 77,
      "start": 20.4362,
      "duration": 0.1829,
      "velocity": 86,
      "chip": "ym2612"
    },
    {
      "channel": 2,
      "note": 85,
      "start": 20.4377,
      "duration": 0.1816,
      "velocity": 100,
      "chip": "ym2612"
    },
    {
      "channel": 4,
      "note": 68,
      "start": 20.438,
      "duration": 0.1814,
      "velocity": 86,
      "chip": "ym2612"
    },
    {
      "channel": 5,
      "note": 42,
      "start": 20.4383,
      "duration": 0.3813,
      "velocity": 127,
      "chip": "ym2612"
    },
    {
      "channel": 0,
      "note": 73,
      "start": 20.6359,
      "duration": 0.1832,
      "velocity": 121,
      "chip": "ym2612"
    },
    {
      "channel": 1,
      "note": 77,
      "start": 20.6361,
      "duration": 0.1831,
      "velocity": 86,
      "chip": "ym2612"
    },
    {
      "channel": 2,
      "note": 44,
      "start": 20.6363,
      "duration": 0.183,
      "velocity": 100,
      "chip": "ym2612"
    },
    {
      "channel": 3,
      "note": 89,
      "start": 20.6365,
      "duration": 0.1829,
      "velocity": 98,
      "chip": "ym2612"
    },
    {
      "channel": 4,
      "note": 68,
      "start": 20.6368,
      "duration": 0.1827,
      "velocity": 86,
      "chip": "ym2612"
    },
    {
      "channel": 1,
      "note": 77,
      "start": 20.8363,
      "duration": 1.5829,
      "velocity": 86,
      "chip": "ym2612"
    },
    {
      "channel": 2,
      "note": 46,
      "start": 20.8378,
      "duration": 0.1815,
      "velocity": 100,
      "chip": "ym2612"
    },
    {
      "channel": 4,
      "note": 68,
      "start": 20.8381,
      "duration": 0.7814,
      "velocity": 86,
      "chip": "ym2612"
    },
    {
      "channel": 5,
      "note": 42,
      "start": 20.8396,
      "duration": 0.3799,
      "velocity": 127,
      "chip": "ym2612"
    },
    {
      "channel": 0,
      "note": 73,
      "start": 21.0359,
      "duration": 0.1832,
      "velocity": 121,
      "chip": "ym2612"
    },
    {
      "channel": 2,
      "note": 44,
      "start": 21.0375,
      "duration": 0.1818,
      "velocity": 98,
      "chip": "ym2612"
    },
    {
      "channel": 3,
      "note": 89,
      "start": 21.0376,
      "duration": 0.1817,
      "velocity": 98,
      "chip": "ym2612"
    },
    {
      "channel": 0,
      "note": 68,
      "start": 21.2358,
      "duration": 0.1832,
      "velocity": 121,
      "chip": "ym2612"
    },
    {
      "channel": 2,
      "note": 87,
      "start": 21.2374,
      "duration": 0.1819,
      "velocity": 100,
      "chip": "ym2612"
    },
    {
      "channel": 5,
      "note": 42,
      "start": 21.2377,
      "duration": 0.3819,
      "velocity": 127,
      "chip": "ym2612"
    },
    {
      "channel": 0,
      "note": 71,
      "start": 21.4359,
      "duration": 0.1832,
      "velocity": 121,
      "chip": "ym2612"
    },
    {
      "channel": 2,
      "note": 44,
      "start": 21.4375,
      "duration": 0.1819,
      "velocity": 98,
      "chip": "ym2612"
    },
    {
      "channel": 3,
      "note": 92,
      "start": 21.4376,
      "duration": 0.1817,
      "velocity": 98,
      "chip": "ym2612"
    },
    {
      "channel": 0,
      "note": 68,
      "start": 21.6359,
      "duration": 0.3831,
      "velocity": 121,
      "chip": "ym2612"
    },
    {
      "channel": 2,
      "note": 87,
      "start": 21.6375,
      "duration": 0.1818,
      "velocity": 100,
      "chip": "ym2612"
    },
    {
      "channel": 4,
      "note": 71,
      "start": 21.6378,
      "duration": 0.7817,
      "velocity": 86,
      "chip": "ym2612"
    },
    {
      "channel": 5,
      "note": 42,
      "start": 21.638,
      "duration": 0.3814,
      "velocity": 127,
      "chip": "ym2612"
    },
    {
      "channel": 2,
      "note": 39,
      "start": 21.8372,
      "duration": 0.182,
      "velocity": 98,
      "chip": "ym2612"
    },
    {
      "channel": 3,
      "note": 92,
      "start": 21.8375,
      "duration": 0.1819,
      "velocity": 98,
      "chip": "ym2612"
    },
    {
      "channel": 0,
      "note": 70,
      "start": 22.0359,
      "duration": 0.3831,
      "velocity": 121,
      "chip": "ym2612"
    },
    {
      "channel": 2,
      "note": 87,
      "start": 22.0375,
      "duration": 0.1817,
      "velocity": 100,
      "chip": "ym2612"
    },
    {
      "channel": 5,
      "note": 42,
      "start": 22.0378,
      "duration": 0.3817,
      "velocity": 127,
      "chip": "ym2612"
    },
    {
      "channel": 2,
      "note": 39,
      "start": 22.2373,
      "duration": 0.1821,
      "velocity": 98,
      "chip": "ym2612"
    },
    {
      "channel": 3,
      "note": 90,
      "start": 22.2375,
      "duration": 0.1819,
      "velocity": 98,
      "chip": "ym2612"
    },
    {
      "channel": 1,
      "note": 75,
      "start": 22.4361,
      "duration": 0.7831,
      "velocity": 86,
      "chip": "ym2612"
    },
    {
      "channel": 2,
      "note": 87,
      "start": 22.4376,
      "duration": 0.1817,
      "velocity": 100,
      "chip": "ym2612"
    },
    {
      "channel": 4,
      "note": 70,
      "start": 22.438,
      "duration": 0.7815,
      "velocity": 86,
      "chip": "ym2612"
    },
    {
      "channel": 5,
      "note": 42,
      "start": 22.4381,
      "duration": 0.3814,
      "velocity": 127,
      "chip": "ym2612"
    },
    {
      "channel": 0,
      "note": 63,
      "start": 22.6359,
      "duration": 0.1832,
      "velocity": 121,
      "chip": "ym2612"
    },
    {
      "channel": 2,
      "note": 37,
      "start": 22.6374,
      "duration": 0.1819,
      "velocity": 98,
      "chip": "ym2612"
    },
    {
      "channel": 3,
      "note": 90,
      "start": 22.6376,
      "duration": 0.1817,
      "velocity": 98,
      "chip": "ym2612"
    },
    {
      "channel": 0,
      "note": 73,
      "start": 22.8358,
      "duration": 0.1833,
      "velocity": 121,
      "chip": "ym2612"
    },
    {
      "channel": 2,
      "note": 85,
      "start": 22.8374,
      "duration": 0.1819,
      "velocity": 100,
      "chip": "ym2612"
    },
    {
      "channel": 5,
      "note": 42,
      "start": 22.8377,
      "duration": 0.3819,
      "velocity": 127,
      "chip": "ym2612"
    },
    {
      "channel": 0,
      "note": 77,
      "start": 23.0358,
      "duration": 0.1833,
      "velocity": 121,
      "chip": "ym2612"
    },
    {
      "channel": 2,
      "note": 37,
      "start": 23.0373,
      "duration": 0.182,
      "velocity": 98,
      "chip": "ym2612"
    },
    {
      "channel": 3,
      "note": 89,
      "start": 23.0375,
      "duration": 0.182,
      "velocity": 98,
      "chip": "ym2612"
    },
    {
      "channel": 0,
      "note": 73,
      "start": 23.2359,
      "duration": 0.3831,
      "velocity": 121,
      "chip": "ym2612"
    },
    {
      "channel": 1,
      "note": 73,
      "start": 23.2362,
      "duration": 0.7831,
      "velocity": 86,
      "chip": "ym2612"
    },
    {
      "channel": 2,
      "note": 85,
      "start": 23.2377,
      "duration": 0.1815,
      "velocity": 100,
      "chip": "ym2612"
    },
    {
      "channel": 4,
      "note": 68,
      "start": 23.238,
      "duration": 0.7815,
      "velocity": 86,
      "chip": "ym2612"
    },
    {
      "channel": 5,
      "note": 42,
      "start": 23.2382,
      "duration": 0.3813,
      "velocity": 127,
      "chip": "ym2612"
    },
    {
      "channel": 2,
      "note": 39,
      "start": 23.4373,
      "duration": 0.182,
      "velocity": 98,
      "chip": "ym2612"
    },
    {
      "channel": 3,
      "note": 89,
      "start": 23.4375,
      "duration": 0.1818,
      "velocity": 98,
      "chip": "ym2612"
    },
    {
      "channel": 0,
      "note": 75,
      "start": 23.6358,
      "duration": 0.1833,
      "velocity": 121,
      "chip": "ym2612"
    },
    {
      "channel": 2,
      "note": 87,
      "start": 23.6374,
      "duration": 0.1819,
      "velocity": 100,
      "chip": "ym2612"
    },
    {
      "channel": 5,
      "note": 42,
      "start": 23.6377,
      "duration": 0.3819,
      "velocity": 127,
      "chip": "ym2612"
    },
    {
      "channel": 0,
      "note": 75,
      "start": 23.8358,
      "duration": 0.1833,
      "velocity": 121,
      "chip": "ym2612"
    },
    {
      "channel": 2,
      "note": 39,
      "start": 23.8373,
      "duration": 0.182,
      "velocity": 98,
      "chip": "ym2612"
    },
    {
      "channel": 3,
      "note": 90,
      "start": 23.8375,
      "duration": 0.182,
      "velocity": 98,
      "chip": "ym2612"
    },
    {
      "channel": 0,
      "note": 77,
      "start": 24.0361,
      "duration": 0.3829,
      "velocity": 121,
      "chip": "ym2612"
    },
    {
      "channel": 1,
      "note": 75,
      "start": 24.0363,
      "duration": 1.5829,
      "velocity": 86,
      "chip": "ym2612"
    },
    {
      "channel": 2,
      "note": 87,
      "start": 24.0378,
      "duration": 0.1813,
      "velocity": 100,
      "chip": "ym2612"
    },
    {
      "channel": 4,
      "note": 70,
      "start": 24.0381,
      "duration": 1.5814,
      "velocity": 86,
      "chip": "ym2612"
    },
    {
      "channel": 5,
      "note": 42,
      "start": 24.0383,
      "duration": 0.3811,
      "velocity": 127,
      "chip": "ym2612"
    },
    {
      "channel": 2,
      "note": 35,
      "start": 24.2373,
      "duration": 0.182,
      "velocity": 98,
      "chip": "ym2612"
    },
    {
      "channel": 3,
      "note": 90,
      "start": 24.2375,
      "duration": 0.1819,
      "velocity": 98,
      "chip": "ym2612"
    },
    {
      "channel": 0,
      "note": 78,
      "start": 24.4359,
      "duration": 0.1831,
      "velocity": 121,
      "chip": "ym2612"
    },
    {
      "channel": 2,
      "note": 83,
      "start": 24.4375,
      "duration": 0.1818,
      "velocity": 100,
      "chip": "ym2612"
    },
    {
      "channel": 5,
      "note": 42,
      "start": 24.4378,
      "duration": 0.3817,
      "velocity": 127,
      "chip": "ym2612"
    },
    {
      "channel": 0,
      "note": 78,
      "start": 24.6359,
      "duration": 0.1832,
      "velocity": 121,
      "chip": "ym2612"
    },
    {
      "channel": 2,
      "note": 35,
      "start": 24.6375,
      "duration": 0.1818,
      "velocity": 98,
      "chip": "ym2612"
    },
    {
      "channel": 3,
      "note": 87,
      "start": 24.6376,
      "duration": 0.1817,
      "velocity": 98,
      "chip": "ym2612"
    },
    {
      "channel": 0,
      "note": 78,
      "start": 24.836,
      "duration": 0.3831,
      "velocity": 121,
      "chip": "ym2612"
    },
    {
      "channel": 2,
      "note": 83,
      "start": 24.8375,
      "duration": 0.1817,
      "velocity": 100,
      "chip": "ym2612"
    },
    {
      "channel": 5,
      "note": 42,
      "start": 24.8378,
      "duration": 0.3817,
      "velocity": 127,
      "chip": "ym2612"
    },
    {
      "channel": 2,
      "note": 35,
      "start": 25.0373,
      "duration": 0.182,
      "velocity": 98,
      "chip": "ym2612"
    },
    {
      "channel": 3,
      "note": 87,
      "start": 25.0375,
      "duration": 0.1819,
      "velocity": 98,
      "chip": "ym2612"
    },
    {
      "channel": 0,
      "note": 78,
      "start": 25.2359,
      "duration": 0.1832,
      "velocity": 121,
      "chip": "ym2612"
    },
    {
      "channel": 2,
      "note": 83,
      "start": 25.2374,
      "duration": 0.1819,
      "velocity": 100,
      "chip": "ym2612"
    },
    {
      "channel": 5,
      "note": 42,
      "start": 25.2378,
      "duration": 0.3819,
      "velocity": 127,
      "chip": "ym2612"
    },
    {
      "channel": 0,
      "note": 77,
      "start": 25.4358,
      "duration": 0.1833,
      "velocity": 121,
      "chip": "ym2612"
    },
    {
      "channel": 2,
      "note": 35,
      "start": 25.4374,
      "duration": 0.182,
      "velocity": 98,
      "chip": "ym2612"
    },
    {
      "channel": 3,
      "note": 87,
      "start": 25.4376,
      "duration": 0.1819,
      "velocity": 98,
      "chip": "ym2612"
    },
    {
      "channel": 0,
      "note": 75,
      "start": 25.6361,
      "duration": 0.5829,
      "velocity": 121,
      "chip": "ym2612"
    },
    {
      "channel": 1,
      "note": 75,
      "start": 25.6364,
      "duration": 0.5828,
      "velocity": 86,
      "chip": "ym2612"
    },
    {
      "channel": 2,
      "note": 83,
      "start": 25.6378,
      "duration": 0.1814,
      "velocity": 100,
      "chip": "ym2612"
    },
    {
      "channel": 4,
      "note": 71,
      "start": 25.6381,
      "duration": 0.5813,
      "velocity": 86,
      "chip": "ym2612"
    },
    {
      "channel": 5,
      "note": 42,
      "start": 25.6384,
      "duration": 0.381,
      "velocity": 127,
      "chip": "ym2612"
    },
    {
      "channel": 2,
      "note": 34,
      "start": 25.8373,
      "duration": 0.1819,
      "velocity": 98,
      "chip": "ym2612"
    },
    {
      "channel": 3,
      "note": 87,
      "start": 25.8375,
      "duration": 0.1817,
      "velocity": 98,
      "chip": "ym2612"
    },
    {
      "channel": 2,
      "note": 87,
      "start": 26.0373,
      "duration": 0.182,
      "velocity": 100,
      "chip": "ym2612"
    },
    {
      "channel": 5,
      "note": 42,
      "start": 26.0377,
      "duration": 0.3819,
      "velocity": 127,
      "chip": "ym2612"
    },
    {
      "channel": 0,
      "note": 77,
      "start": 26.236,
      "duration": 0.083,
      "velocity": 121,
      "chip": "ym2612"
    },
    {
      "channel": 1,
      "note": 70,
      "start": 26.2362,
      "duration": 0.083,
      "velocity": 86,
      "chip": "ym2612"
    },
    {
      "channel": 2,
      "note": 34,
      "start": 26.2377,
      "duration": 0.1816,
      "velocity": 98,
      "chip": "ym2612"
    },
    {
      "channel": 3,
      "note": 89,
      "start": 26.238,
      "duration": 0.1814,
      "velocity": 98,
      "chip": "ym2612"
    },
    {
      "channel": 4,
      "note": 68,
      "start": 26.2381,
      "duration": 0.0812,
      "velocity": 86,
      "chip": "ym2612"
    },
    {
      "channel": 0,
      "note": 77,
      "start": 26.3357,
      "duration": 0.0833,
      "velocity": 121,
      "chip": "ym2612"
    },
    {
      "channel": 1,
      "note": 70,
      "start": 26.336,
      "duration": 0.0832,
      "velocity": 86,
      "chip": "ym2612"
    },
    {
      "channel": 4,
      "note": 68,
      "start": 26.3362,
      "duration": 0.0833,
      "velocity": 86,
      "chip": "ym2612"
    },
    {
      "channel": 0,
      "note": 77,
      "start": 26.4361,
      "duration": 0.1831,
      "velocity": 121,
      "chip": "ym2612"
    },
    {
      "channel": 1,
      "note": 70,
      "start": 26.4362,
      "duration": 0.183,
      "velocity": 86,
      "chip": "ym2612"
    },
    {
      "channel": 2,
      "note": 87,
      "start": 26.4378,
      "duration": 0.1816,
      "velocity": 100,
      "chip": "ym2612"
    },
    {
      "channel": 4,
      "note": 68,
      "start": 26.4381,
      "duration": 0.1815,
      "velocity": 86,
      "chip": "ym2612"
    },
    {
      "channel": 5,
      "note": 42,
      "start": 26.4383,
      "duration": 0.3813,
      "velocity": 127,
      "chip": "ym2612"
    },
    {
      "channel": 0,
      "note": 77,
      "start": 26.6361,
      "duration": 0.083,
      "velocity": 121,
      "chip": "ym2612"
    },
    {
      "channel": 1,
      "note": 70,
      "start": 26.6363,
      "duration": 0.0829,
      "velocity": 86,
      "chip": "ym2612"
    },
    {
      "channel": 2,
      "note": 34,
      "start": 26.6378,
      "duration": 0.1816,
      "velocity": 98,
      "chip": "ym2612"
    },
    {
      "channel": 3,
      "note": 89,
      "start": 26.638,
      "duration": 0.1815,
      "velocity": 98,
      "chip": "ym2612"
    },
    {
      "channel": 4,
      "note": 68,
      "start": 26.6382,
      "duration": 0.0812,
      "velocity": 86,
      "chip": "ym2612"
    },
    {
      "channel": 0,
      "note": 77,
      "start": 26.7358,
      "duration": 0.0833,
      "velocity": 121,
      "chip": "ym2612"
    },
    {
      "channel": 1,
      "note": 70,
      "start": 26.7361,
      "duration": 0.0833,
      "velocity": 86,
      "chip": "ym2612"
    },
    {
      "channel": 4,
      "note": 68,
      "start": 26.7364,
      "duration": 0.0832,
      "velocity": 86,
      "chip": "ym2612"
    },
    {
      "channel": 0,
      "note": 77,
      "start": 26.836,
      "duration": 0.183,
      "velocity": 121,
      "chip": "ym2612"
    },
    {
      "channel": 1,
      "note": 70,
      "start": 26.8362,
      "duration": 0.1829,
      "velocity": 86,
      "chip": "ym2612"
    },
    {
      "channel": 2,
      "note": 87,
      "start": 26.8377,
      "duration": 0.1816,
      "velocity": 100,
      "chip": "ym2612"
    },
    {
      "channel": 4,
      "note": 68,
      "start": 26.838,
      "duration": 0.1814,
      "velocity": 86,
      "chip": "ym2612"
    },
    {
      "channel": 5,
      "note": 42,
      "start": 26.8383,
      "duration": 0.3814,
      "velocity": 127,
      "chip": "ym2612"
    },
    {
      "channel": 0,
      "note": 77,
      "start": 27.0359,
      "duration": 0.1833,
      "velocity": 121,
      "chip": "ym2612"
    },
    {
      "channel": 1,
      "note": 70,
      "start": 27.0361,
      "duration": 0.1833,
      "velocity": 86,
      "chip": "ym2612"
    },
    {
      "channel": 2,
      "note": 34,
      "start": 27.0376,
      "duration": 0.1818,
      "velocity": 98,
      "chip": "ym2612"
    },
    {
      "channel": 3,
      "note": 89,
      "start": 27.0378,
      "duration": 0.1817,
      "velocity": 98,
      "chip": "ym2612"
    },
    {
      "channel": 4,
      "note": 68,
      "start": 27.038,
      "duration": 0.1815,
      "velocity": 86,
      "chip": "ym2612"
    },
    {
      "channel": 0,
      "note": 77,
      "start": 27.2361,
      "duration": 0.5829,
      "velocity": 121,
      "chip": "ym2612"
    },
    {
      "channel": 1,
      "note": 70,
      "start": 27.2364,
      "duration": 0.5829,
      "velocity": 86,
      "chip": "ym2612"
    },
    {
      "channel": 2,
      "note": 87,
      "start": 27.2378,
      "duration": 0.1814,
      "velocity": 100,
      "chip": "ym2612"
    },
    {
      "channel": 4,
      "note": 68,
      "start": 27.2381,
      "duration": 0.5814,
      "velocity": 86,
      "chip": "ym2612"
    },
    {
      "channel": 5,
      "note": 42,
      "start": 27.2384,
      "duration": 0.381,
      "velocity": 127,
      "chip": "ym2612"
    },
    {
      "channel": 2,
      "note": 34,
      "start": 27.4373,
      "duration": 0.1819,
      "velocity": 98,
      "chip": "ym2612"
    },
    {
      "channel": 3,
      "note": 89,
      "start": 27.4375,
      "duration": 0.1818,
      "velocity": 98,
      "chip": "ym2612"
    },
    {
      "channel": 2,
      "note": 86,
      "start": 27.6373,
      "duration": 0.1821,
      "velocity": 100,
      "chip": "ym2612"
    },
    {
      "channel": 5,
      "note": 42,
      "start": 27.6376,
      "duration": 0.3821,
      "velocity": 127,
      "chip": "ym2612"
    },
    {
      "channel": 0,
      "note": 77,
      "start": 27.8361,
      "duration": 0.083,
      "velocity": 121,
      "chip": "ym2612"
    },
    {
      "channel": 1,
      "note": 86,
      "start": 27.8362,
      "duration": 0.083,
      "velocity": 86,
      "chip": "ym2612"
    },
    {
      "channel": 2,
      "note": 29,
      "start": 27.8378,
      "duration": 0.1816,
      "velocity": 98,
      "chip": "ym2612"
    },
    {
      "channel": 3,
      "note": 82,
      "start": 27.838,
      "duration": 0.1815,
      "velocity": 98,
      "chip": "ym2612"
    },
    {
      "channel": 4,
      "note": 68,
      "start": 27.8382,
      "duration": 0.0812,
      "velocity": 86,
      "chip": "ym2612"
    },
    {
      "channel": 0,
      "note": 77,
      "start": 27.9358,
      "duration": 0.0833,
      "velocity": 121,
      "chip": "ym2612"
    },
    {
      "channel": 1,
      "note": 86,
      "start": 27.936,
      "duration": 0.0833,
      "velocity": 86,
      "chip": "ym2612"
    },
    {
      "channel": 4,
      "note": 68,
      "start": 27.9363,
      "duration": 0.0833,
      "velocity": 86,
      "chip": "ym2612"
    },
    {
      "channel": 0,
      "note": 77,
      "start": 28.0361,
      "duration": 0.1829,
      "velocity": 121,
      "chip": "ym2612"
    },
    {
      "channel": 1,
      "note": 86,
      "start": 28.0364,
      "duration": 0.1828,
      "velocity": 86,
      "chip": "ym2612"
    },
    {
      "channel": 2,
      "note": 86,
      "start": 28.0378,
      "duration": 0.1814,
      "velocity": 100,
      "chip": "ym2612"
    },
    {
      "channel": 4,
      "note": 68,
      "start": 28.0381,
      "duration": 0.1813,
      "velocity": 86,
      "chip": "ym2612"
    },
    {
      "channel": 5,
      "note": 42,
      "start": 28.0384,
      "duration": 0.3813,
      "velocity": 127,
      "chip": "ym2612"
    },
    {
      "channel": 0,
      "note": 77,
      "start": 28.2361,
      "duration": 0.0829,
      "velocity": 121,
      "chip": "ym2612"
    },
    {
      "channel": 1,
      "note": 86,
      "start": 28.2364,
      "duration": 0.0828,
      "velocity": 86,
      "chip": "ym2612"
    },
    {
      "channel": 2,
      "note": 34,
      "start": 28.2378,
      "duration": 0.0815,
      "velocity": 98,
      "chip": "ym2612"
    },
    {
      "channel": 3,
      "note": 82,
      "start": 28.2381,
      "duration": 0.1814,
      "velocity": 98,
      "chip": "ym2612"
    },
    {
      "channel": 4,
      "note": 68,
      "start": 28.2383,
      "duration": 0.0812,
      "velocity": 86,
      "chip": "ym2612"
    },
    {
      "channel": 0,
      "note": 77,
      "start": 28.3358,
      "duration": 0.0833,
      "velocity": 121,
      "chip": "ym2612"
    },
    {
      "channel": 1,
      "note": 86,
      "start": 28.336,
      "duration": 0.0833,
      "velocity": 86,
      "chip": "ym2612"
    },
    {
      "channel": 2,
      "note": 86,
      "start": 28.3362,
      "duration": 0.0832,
      "velocity": 98,
      "chip": "ym2612"
    },
    {
      "channel": 4,
      "note": 68,
      "start": 28.3365,
      "duration": 0.0831,
      "velocity": 86,
      "chip": "ym2612"
    },
    {
      "channel": 0,
      "note": 77,
      "start": 28.436,
      "duration": 0.1831,
      "velocity": 121,
      "chip": "ym2612"
    },
    {
      "channel": 1,
      "note": 86,
      "start": 28.4362,
      "duration": 0.183,
      "velocity": 86,
      "chip": "ym2612"
    },
    {
      "channel": 2,
      "note": 86,
      "start": 28.4377,
      "duration": 0.1816,
      "velocity": 100,
      "chip": "ym2612"
    },
    {
      "channel": 4,
      "note": 68,
      "start": 28.438,
      "duration": 0.1815,
      "velocity": 86,
      "chip": "ym2612"
    },
    {
      "channel": 5,
      "note": 42,
      "start": 28.4383,
      "duration": 0.3813,
      "velocity": 127,
      "chip": "ym2612"
    },
    {
      "channel": 0,
      "note": 77,
      "start": 28.6359,
      "duration": 0.1832,
      "velocity": 121,
      "chip": "ym2612"
    },
    {
      "channel": 1,
      "note": 86,
      "start": 28.6361,
      "duration": 0.1831,
      "velocity": 86,
      "chip": "ym2612"
    },
    {
      "channel": 2,
      "note": 29,
      "start": 28.6376,
      "duration": 0.1817,
      "velocity": 98,
      "chip": "ym2612"
    },
    {
      "channel": 3,
      "note": 82,
      "start": 28.6378,
      "duration": 0.1816,
      "velocity": 98,
      "chip": "ym2612"
    },
    {
      "channel": 4,
      "note": 68,
      "start": 28.638,
      "duration": 0.1814,
      "velocity": 86,
      "chip": "ym2612"
    },
    {
      "channel": 2,
      "note": 86,
      "start": 28.8404,
      "duration": 0.1789,
      "velocity": 100,
      "chip": "ym2612"
    },
    {
      "channel": 5,
      "note": 42,
      "start": 28.8447,
      "duration": 0.3749,
      "velocity": 127,
      "chip": "ym2612"
    },
    {
      "channel": 0,
      "note": 77,
      "start": 29.036,
      "duration": 0.1832,
      "velocity": 121,
      "chip": "ym2612"
    },
    {
      "channel": 1,
      "note": 86,
      "start": 29.0362,
      "duration": 0.1831,
      "velocity": 76,
      "chip": "ym2612"
    },
    {
      "channel": 2,
      "note": 39,
      "start": 29.0378,
      "duration": 0.1816,
      "velocity": 98,
      "chip": "ym2612"
    },
    {
      "channel": 3,
      "note": 82,
      "start": 29.038,
      "duration": 0.1815,
      "velocity": 98,
      "chip": "ym2612"
    },
    {
      "channel": 4,
      "note": 68,
      "start": 29.0382,
      "duration": 0.3814,
      "velocity": 86,
      "chip": "ym2612"
    },
    {
      "channel": 0,
      "note": 75,
      "start": 29.2358,
      "duration": 0.1833,
      "velocity": 121,
      "chip": "ym2612"
    },
    {
      "channel": 1,
      "note": 87,
      "start": 29.2361,
      "duration": 0.1832,
      "velocity": 76,
      "chip": "ym2612"
    },
    {
      "channel": 2,
      "note": 87,
      "start": 29.2375,
      "duration": 0.1819,
      "velocity": 100,
      "chip": "ym2612"
    },
    {
      "channel": 5,
      "note": 42,
      "start": 29.2379,
      "duration": 0.3817,
      "velocity": 127,
      "chip": "ym2612"
    },
    {
      "channel": 0,
      "note": 78,
      "start": 29.4359,
      "duration": 0.1832,
      "velocity": 121,
      "chip": "ym2612"
    },
    {
      "channel": 1,
      "note": 90,
      "start": 29.4362,
      "duration": 0.1831,
      "velocity": 76,
      "chip": "ym2612"
    },
    {
      "channel": 2,
      "note": 39,
      "start": 29.4376,
      "duration": 0.1817,
      "velocity": 98,
      "chip": "ym2612"
    },
    {
      "channel": 3,
      "note": 78,
      "start": 29.4379,
      "duration": 0.1816,
      "velocity": 98,
      "chip": "ym2612"
    },
    {
      "channel": 4,
      "note": 87,
      "start": 29.4381,
      "duration": 0.1814,
      "velocity": 86,
      "chip": "ym2612"
    },
    {
      "channel": 0,
      "note": 75,
      "start": 29.6361,
      "duration": 0.3829,
      "velocity": 121,
      "chip": "ym2612"
    },
    {
      "channel": 1,
      "note": 87,
      "start": 29.6363,
      "duration": 0.3829,
      "velocity": 76,
      "chip": "ym2612"
    },
    {
      "channel": 2,
      "note": 87,
      "start": 29.6378,
      "duration": 0.1813,
      "velocity": 100,
      "chip": "ym2612"
    },
    {
      "channel": 4,
      "note": 82,
      "start": 29.6381,
      "duration": 0.7814,
      "velocity": 86,
      "chip": "ym2612"
    },
    {
      "channel": 5,
      "note": 42,
      "start": 29.6383,
      "duration": 0.3812,
      "velocity": 127,
      "chip": "ym2612"
    },
    {
      "channel": 2,
      "note": 46,
      "start": 29.8373,
      "duration": 0.182,
      "velocity": 98,
      "chip": "ym2612"
    },
    {
      "channel": 3,
      "note": 78,
      "start": 29.8375,
      "duration": 0.1819,
      "velocity": 98,
      "chip": "ym2612"
    },
    {
      "channel": 0,
      "note": 77,
      "start": 30.0359,
      "duration": 0.3833,
      "velocity": 121,
      "chip": "ym2612"
    },
    {
      "channel": 1,
      "note": 89,
      "start": 30.0361,
      "duration": 0.3833,
      "velocity": 76,
      "chip": "ym2612"
    },
    {
      "channel": 2,
      "note": 85,
      "start": 30.0376,
      "duration": 0.1817,
      "velocity": 100,
      "chip": "ym2612"
    },
    {
      "channel": 5,
      "note": 42,
      "start": 30.0379,
      "duration": 0.3818,
      "velocity": 127,
      "chip": "ym2612"
    },
    {
      "channel": 2,
      "note": 46,
      "start": 30.2372,
      "duration": 0.1822,
      "velocity": 98,
      "chip": "ym2612"
    },
    {
      "channel": 3,
      "note": 77,
      "start": 30.2375,
      "duration": 0.182,
      "velocity": 98,
      "chip": "ym2612"
    },
    {
      "channel": 2,
      "note": 85,
      "start": 30.4375,
      "duration": 0.1819,
      "velocity": 100,
      "chip": "ym2612"
    },
    {
      "channel": 5,
      "note": 42,
      "start": 30.4379,
      "duration": 0.3816,
      "velocity": 127,
      "chip": "ym2612"
    },
    {
      "channel": 0,
      "note": 73,
      "start": 30.6361,
      "duration": 0.1829,
      "velocity": 121,
      "chip": "ym2612"
    },
    {
      "channel": 1,
      "note": 92,
      "start": 30.6362,
      "duration": 0.1829,
      "velocity": 76,
      "chip": "ym2612"
    },
    {
      "channel": 2,
      "note": 39,
      "start": 30.6378,
      "duration": 0.1815,
      "velocity": 98,
      "chip": "ym2612"
    },
    {
      "channel": 3,
      "note": 77,
      "start": 30.638,
      "duration": 0.1814,
      "velocity": 98,
      "chip": "ym2612"
    },
    {
      "channel": 4,
      "note": 85,
      "start": 30.6382,
      "duration": 0.3814,
      "velocity": 86,
      "chip": "ym2612"
    },
    {
      "channel": 0,
      "note": 75,
      "start": 30.8359,
      "duration": 0.1833,
      "velocity": 121,
      "chip": "ym2612"
    },
    {
      "channel": 1,
      "note": 87,
      "start": 30.8361,
      "duration": 0.1832,
      "velocity": 76,
      "chip": "ym2612"
    },
    {
      "channel": 2,
      "note": 87,
      "start": 30.8376,
      "duration": 0.1818,
      "velocity": 100,
      "chip": "ym2612"
    },
    {
      "channel": 5,
      "note": 42,
      "start": 30.8379,
      "duration": 0.3817,
      "velocity": 127,
      "chip": "ym2612"
    },
    {
      "channel": 0,
      "note": 78,
      "start": 31.0359,
      "duration": 0.1832,
      "velocity": 121,
      "chip": "ym2612"
    },
    {
      "channel": 1,
      "note": 90,
      "start": 31.0362,
      "duration": 0.1831,
      "velocity": 76,
      "chip": "ym2612"
    },
    {
      "channel": 2,
      "note": 42,
      "start": 31.0376,
      "duration": 0.1817,
      "velocity": 98,
      "chip": "ym2612"
    },
    {
      "channel": 3,
      "note": 78,
      "start": 31.0379,
      "duration": 0.1816,
      "velocity": 98,
      "chip": "ym2612"
    },
    {
      "channel": 4,
      "note": 87,
      "start": 31.0381,
      "duration": 0.1814,
      "velocity": 86,
      "chip": "ym2612"
    },
    {
      "channel": 0,
      "note": 75,
      "start": 31.2361,
      "duration": 0.383,
      "velocity": 121,
      "chip": "ym2612"
    },
    {
      "channel": 1,
      "note": 87,
      "start": 31.2363,
      "duration": 0.383,
      "velocity": 76,
      "chip": "ym2612"
    },
    {
      "channel": 2,
      "note": 87,
      "start": 31.2378,
      "duration": 0.0814,
      "velocity": 100,
      "chip": "ym2612"
    },
    {
      "channel": 4,
      "note": 82,
      "start": 31.2381,
      "duration": 0.7814,
      "velocity": 86,
      "chip": "ym2612"
    },
    {
      "channel": 5,
      "note": 42,
      "start": 31.2383,
      "duration": 0.3813,
      "velocity": 127,
      "chip": "ym2612"
    },
    {
      "channel": 2,
      "note": 46,
      "start": 31.336,
      "duration": 0.0833,
      "velocity": 100,
      "chip": "ym2612"
    },
    {
      "channel": 2,
      "note": 46,
      "start": 31.4374,
      "duration": 0.182,
      "velocity": 98,
      "chip": "ym2612"
    },
    {
      "channel": 3,
      "note": 78,
      "start": 31.4376,
      "duration": 0.1819,
      "velocity": 98,
      "chip": "ym2612"
    },
    {
      "channel": 0,
      "note": 77,
      "start": 31.6358,
      "duration": 0.3833,
      "velocity": 121,
      "chip": "ym2612"
    },
    {
      "channel": 1,
      "note": 92,
      "start": 31.6361,
      "duration": 0.3832,
      "velocity": 76,
      "chip": "ym2612"
    },
    {
      "channel": 2,
      "note": 85,
      "start": 31.6375,
      "duration": 0.1817,
      "velocity": 100,
      "chip": "ym2612"
    },
    {
      "channel": 5,
      "note": 42,
      "start": 31.6379,
      "duration": 0.3817,
      "velocity": 127,
      "chip": "ym2612"
    },
    {
      "channel": 2,
      "note": 46,
      "start": 31.8373,
      "duration": 0.1821,
      "velocity": 98,
      "chip": "ym2612"
    },
    {
      "channel": 3,
      "note": 77,
      "start": 31.8375,
      "duration": 0.182,
      "velocity": 98,
      "chip": "ym2612"
    },
    {
      "channel": 2,
      "note": 85,
      "start": 32.0374,
      "duration": 0.182,
      "velocity": 100,
      "chip": "ym2612"
    },
    {
      "channel": 5,
      "note": 42,
      "start": 32.0378,
      "duration": 0.3818,
      "velocity": 127,
      "chip": "ym2612"
    },
    {
      "channel": 0,
      "note": 80,
      "start": 32.2359,
      "duration": 0.1832,
      "velocity": 121,
      "chip": "ym2612"
    },
    {
      "channel": 1,
      "note": 89,
      "start": 32.2362,
      "duration": 0.1831,
      "velocity": 76,
      "chip": "ym2612"
    },
    {
      "channel": 2,
      "note": 39,
      "start": 32.2377,
      "duration": 0.1817,
      "velocity": 98,
      "chip": "ym2612"
    },
    {
      "channel": 3,
      "note": 77,
      "start": 32.2379,
      "duration": 0.1816,
      "velocity": 98,
      "chip": "ym2612"
    },
    {
      "channel": 4,
      "note": 85,
      "start": 32.2381,
      "duration": 0.3813,
      "velocity": 86,
      "chip": "ym2612"
    },
    {
      "channel": 0,
      "note": 75,
      "start": 32.4359,
      "duration": 0.1831,
      "velocity": 121,
      "chip": "ym2612"
    },
    {
      "channel": 1,
      "note": 87,
      "start": 32.4361,
      "duration": 0.1831,
      "velocity": 76,
      "chip": "ym2612"
    },
    {
      "channel": 2,
      "note": 87,
      "start": 32.4376,
      "duration": 0.1817,
      "velocity": 100,
      "chip": "ym2612"
    },
    {
      "channel": 5,
      "note": 42,
      "start": 32.438,
      "duration": 0.3817,
      "velocity": 127,
      "chip": "ym2612"
    },
    {
      "channel": 0,
      "note": 78,
      "start": 32.636,
      "duration": 0.1832,
      "velocity": 121,
      "chip": "ym2612"
    },
    {
      "channel": 1,
      "note": 90,
      "start": 32.6362,
      "duration": 0.1831,
      "velocity": 76,
      "chip": "ym2612"
    },
    {
      "channel": 2,
      "note": 39,
      "start": 32.6377,
      "duration": 0.1817,
      "velocity": 98,
      "chip": "ym2612"
    },
    {
      "channel": 3,
      "note": 78,
      "start": 32.638,
      "duration": 0.1815,
      "velocity": 98,
      "chip": "ym2612"
    },
    {
      "channel": 4,
      "note": 87,
      "start": 32.6381,
      "duration": 0.1814,
      "velocity": 86,
      "chip": "ym2612"
    },
    {
      "channel": 0,
      "note": 75,
      "start": 32.836,
      "duration": 0.3831,
      "velocity": 121,
      "chip": "ym2612"
    },
    {
      "channel": 1,
      "note": 87,
      "start": 32.8362,
      "duration": 0.3831,
      "velocity": 76,
      "chip": "ym2612"
    },
    {
      "channel": 2,
      "note": 87,
      "start": 32.8377,
      "duration": 0.1815,
      "velocity": 100,
      "chip": "ym2612"
    },
    {
      "channel": 4,
      "note": 82,
      "start": 32.838,
      "duration": 0.7815,
      "velocity": 86,
      "chip": "ym2612"
    },
    {
      "channel": 5,
      "note": 42,
      "start": 32.8383,
      "duration": 0.3813,
      "velocity": 127,
      "chip": "ym2612"
    },
    {
      "channel": 2,
      "note": 46,
      "start": 33.0373,
      "duration": 0.182,
      "velocity": 98,
      "chip": "ym2612"
    },
    {
      "channel": 3,
      "note": 78,
      "start": 33.0375,
      "duration": 0.182,
      "velocity": 98,
      "chip": "ym2612"
    },
    {
      "channel": 0,
      "note": 77,
      "start": 33.2359,
      "duration": 0.3832,
      "velocity": 121,
      "chip": "ym2612"
    },
    {
      "channel": 1,
      "note": 89,
      "start": 33.2361,
      "duration": 0.3831,
      "velocity": 76,
      "chip": "ym2612"
    },
    {
      "channel": 2,
      "note": 85,
      "start": 33.2376,
      "duration": 0.1816,
      "velocity": 100,
      "chip": "ym2612"
    },
    {
      "channel": 5,
      "note": 42,
      "start": 33.238,
      "duration": 0.3817,
      "velocity": 127,
      "chip": "ym2612"
    },
    {
      "channel": 2,
      "note": 46,
      "start": 33.4373,
      "duration": 0.1821,
      "velocity": 98,
      "chip": "ym2612"
    },
    {
      "channel": 3,
      "note": 77,
      "start": 33.4376,
      "duration": 0.1819,
      "velocity": 98,
      "chip": "ym2612"
    },
    {
      "channel": 0,
      "note": 73,
      "start": 33.6361,
      "duration": 0.5829,
      "velocity": 121,
      "chip": "ym2612"
    },
    {
      "channel": 1,
      "note": 92,
      "start": 33.6363,
      "duration": 0.5829,
      "velocity": 76,
      "chip": "ym2612"
    },
    {
      "channel": 2,
      "note": 85,
      "start": 33.6378,
      "duration": 0.1814,
      "velocity": 100,
      "chip": "ym2612"
    },
    {
      "channel": 4,
      "note": 85,
      "start": 33.6381,
      "duration": 0.5814,
      "velocity": 86,
      "chip": "ym2612"
    },
    {
      "channel": 5,
      "note": 42,
      "start": 33.6383,
      "duration": 0.3811,
      "velocity": 127,
      "chip": "ym2612"
    },
    {
      "channel": 2,
      "note": 42,
      "start": 33.8373,
      "duration": 0.1819,
      "velocity": 98,
      "chip": "ym2612"
    },
    {
      "channel": 3,
      "note": 77,
      "start": 33.8375,
      "duration": 0.1818,
      "velocity": 98,
      "chip": "ym2612"
    },
    {
      "channel": 2,
      "note": 90,
      "start": 34.0373,
      "duration": 0.1821,
      "velocity": 100,
      "chip": "ym2612"
    },
    {
      "channel": 5,
      "note": 42,
      "start": 34.0376,
      "duration": 0.382,
      "velocity": 127,
      "chip": "ym2612"
    },
    {
      "channel": 0,
      "note": 70,
      "start": 34.2361,
      "duration": 0.083,
      "velocity": 121,
      "chip": "ym2612"
    },
    {
      "channel": 1,
      "note": 90,
      "start": 34.2363,
      "duration": 0.0829,
      "velocity": 76,
      "chip": "ym2612"
    },
    {
      "channel": 2,
      "note": 42,
      "start": 34.2378,
      "duration": 0.0816,
      "velocity": 98,
      "chip": "ym2612"
    },
    {
      "channel": 3,
      "note": 82,
      "start": 34.238,
      "duration": 0.0814,
      "velocity": 98,
      "chip": "ym2612"
    },
    {
      "channel": 4,
      "note": 85,
      "start": 34.2382,
      "duration": 0.0813,
      "velocity": 86,
      "chip": "ym2612"
    },
    {
      "channel": 0,
      "note": 70,
      "start": 34.3359,
      "duration": 0.0831,
      "velocity": 121,
      "chip": "ym2612"
    },
    {
      "channel": 1,
      "note": 90,
      "start": 34.3361,
      "duration": 0.0831,
      "velocity": 76,
      "chip": "ym2612"
    },
    {
      "channel": 2,
      "note": 90,
      "start": 34.3364,
      "duration": 0.0829,
      "velocity": 98,
      "chip": "ym2612"
    },
    {
      "channel": 3,
      "note": 82,
      "start": 34.3366,
      "duration": 0.0828,
      "velocity": 98,
      "chip": "ym2612"
    },
    {
      "channel": 4,
      "note": 85,
      "start": 34.3368,
      "duration": 0.0827,
      "velocity": 86,
      "chip": "ym2612"
    },
    {
      "channel": 0,
      "note": 70,
      "start": 34.4362,
      "duration": 0.1829,
      "velocity": 121,
      "chip": "ym2612"
    },
    {
      "channel": 1,
      "note": 90,
      "start": 34.4364,
      "duration": 0.1829,
      "velocity": 76,
      "chip": "ym2612"
    },
    {
      "channel": 2,
      "note": 90,
      "start": 34.4379,
      "duration": 0.1814,
      "velocity": 100,
      "chip": "ym2612"
    },
    {
      "channel": 4,
      "note": 85,
      "start": 34.4382,
      "duration": 0.1813,
      "velocity": 86,
      "chip": "ym2612"
    },
    {
      "channel": 5,
      "note": 42,
      "start": 34.4385,
      "duration": 0.3811,
      "velocity": 127,
      "chip": "ym2612"
    },
    {
      "channel": 0,
      "note": 70,
      "start": 34.6361,
      "duration": 0.083,
      "velocity": 121,
      "chip": "ym2612"
    },
    {
      "channel": 1,
      "note": 90,
      "start": 34.6362,
      "duration": 0.083,
      "velocity": 76,
      "chip": "ym2612"
    },
    {
      "channel": 2,
      "note": 49,
      "start": 34.6378,
      "duration": 0.0815,
      "velocity": 98,
      "chip": "ym2612"
    },
    {
      "channel": 3,
      "note": 82,
      "start": 34.638,
      "duration": 0.0815,
      "velocity": 98,
      "chip": "ym2612"
    },
    {
      "channel": 4,
      "note": 85,
      "start": 34.6382,
      "duration": 0.0813,
      "velocity": 86,
      "chip": "ym2612"
    },
    {
      "channel": 0,
      "note": 70,
      "start": 34.7359,
      "duration": 0.0831,
      "velocity": 121,
      "chip": "ym2612"
    },
    {
      "channel": 1,
      "note": 90,
      "start": 34.7361,
      "duration": 0.0831,
      "velocity": 76,
      "chip": "ym2612"
    },
    {
      "channel": 2,
      "note": 90,
      "start": 34.7364,
      "duration": 0.0829,
      "velocity": 98,
      "chip": "ym2612"
    },
    {
      "channel": 3,
      "note": 82,
      "start": 34.7366,
      "duration": 0.0828,
      "velocity": 98,
      "chip": "ym2612"
    },
    {
      "channel": 4,
      "note": 85,
      "start": 34.7368,
      "duration": 0.0827,
      "velocity": 86,
      "chip": "ym2612"
    },
    {
      "channel": 0,
      "note": 70,
      "start": 34.8361,
      "duration": 0.1829,
      "velocity": 121,
      "chip": "ym2612"
    },
    {
      "channel": 1,
      "note": 90,
      "start": 34.8362,
      "duration": 0.1829,
      "velocity": 76,
      "chip": "ym2612"
    },
    {
      "channel": 2,
      "note": 90,
      "start": 34.8378,
      "duration": 0.1815,
      "velocity": 100,
      "chip": "ym2612"
    },
    {
      "channel": 4,
      "note": 85,
      "start": 34.8381,
      "duration": 0.1814,
      "velocity": 86,
      "chip": "ym2612"
    },
    {
      "channel": 5,
      "note": 42,
      "start": 34.8383,
      "duration": 0.3813,
      "velocity": 127,
      "chip": "ym2612"
    },
    {
      "channel": 0,
      "note": 70,
      "start": 35.036,
      "duration": 0.183,
      "velocity": 121,
      "chip": "ym2612"
    },
    {
      "channel": 1,
      "note": 90,
      "start": 35.0362,
      "duration": 0.183,
      "velocity": 76,
      "chip": "ym2612"
    },
    {
      "channel": 2,
      "note": 49,
      "start": 35.0377,
      "duration": 0.0815,
      "velocity": 98,
      "chip": "ym2612"
    },
    {
      "channel": 3,
      "note": 82,
      "start": 35.038,
      "duration": 0.0813,
      "velocity": 98,
      "chip": "ym2612"
    },
    {
      "channel": 4,
      "note": 85,
      "start": 35.0381,
      "duration": 0.1814,
      "velocity": 86,
      "chip": "ym2612"
    },
    {
      "channel": 2,
      "note": 90,
      "start": 35.136,
      "duration": 0.0833,
      "velocity": 98,
      "chip": "ym2612"
    },
    {
      "channel": 3,
      "note": 82,
      "start": 35.1362,
      "duration": 0.0832,
      "velocity": 98,
      "chip": "ym2612"
    },
    {
      "channel": 0,
      "note": 70,
      "start": 35.2362,
      "duration": 0.5828,
      "velocity": 121,
      "chip": "ym2612"
    },
    {
      "channel": 1,
      "note": 90,
      "start": 35.2364,
      "duration": 0.5827,
      "velocity": 76,
      "chip": "ym2612"
    },
    {
      "channel": 2,
      "note": 90,
      "start": 35.2379,
      "duration": 0.1814,
      "velocity": 100,
      "chip": "ym2612"
    },
    {
      "channel": 4,
      "note": 85,
      "start": 35.2382,
      "duration": 1.5814,
      "velocity": 86,
      "chip": "ym2612"
    },
    {
      "channel": 5,
      "note": 42,
      "start": 35.2385,
      "duration": 0.3809,
      "velocity": 127,
      "chip": "ym2612"
    },
    {
      "channel": 2,
      "note": 46,
      "start": 35.4372,
      "duration": 0.182,
      "velocity": 98,
      "chip": "ym2612"
    },
    {
      "channel": 3,
      "note": 82,
      "start": 35.4375,
      "duration": 0.1818,
      "velocity": 98,
      "chip": "ym2612"
    },
    {
      "channel": 2,
      "note": 82,
      "start": 35.6373,
      "duration": 0.182,
      "velocity": 100,
      "chip": "ym2612"
    },
    {
      "channel": 5,
      "note": 42,
      "start": 35.6376,
      "duration": 0.3819,
      "velocity": 127,
      "chip": "ym2612"
    },
    {
      "channel": 0,
      "note": 70,
      "start": 35.8361,
      "duration": 0.0829,
      "velocity": 121,
      "chip": "ym2612"
    },
    {
      "channel": 1,
      "note": 89,
      "start": 35.8363,
      "duration": 0.0829,
      "velocity": 76,
      "chip": "ym2612"
    },
    {
      "channel": 2,
      "note": 41,
      "start": 35.8378,
      "duration": 0.0815,
      "velocity": 98,
      "chip": "ym2612"
    },
    {
      "channel": 3,
      "note": 86,
      "start": 35.838,
      "duration": 0.0814,
      "velocity": 98,
      "chip": "ym2612"
    },
    {
      "channel": 0,
      "note": 70,
      "start": 35.9359,
      "duration": 0.0832,
      "velocity": 121,
      "chip": "ym2612"
    },
    {
      "channel": 1,
      "note": 89,
      "start": 35.9361,
      "duration": 0.0832,
      "velocity": 76,
      "chip": "ym2612"
    },
    {
      "channel": 2,
      "note": 82,
      "start": 35.9363,
      "duration": 0.083,
      "velocity": 98,
      "chip": "ym2612"
    },
    {
      "channel": 3,
      "note": 86,
      "start": 35.9365,
      "duration": 0.083,
      "velocity": 98,
      "chip": "ym2612"
    },
    {
      "channel": 0,
      "note": 70,
      "start": 36.0361,
      "duration": 0.1829,
      "velocity": 121,
      "chip": "ym2612"
    },
    {
      "channel": 1,
      "note": 89,
      "start": 36.0362,
      "duration": 0.1829,
      "velocity": 76,
      "chip": "ym2612"
    },
    {
      "channel": 2,
      "note": 82,
      "start": 36.0378,
      "duration": 0.1815,
      "velocity": 100,
      "chip": "ym2612"
    },
    {
      "channel": 5,
      "note": 42,
      "start": 36.0381,
      "duration": 0.3815,
      "velocity": 127,
      "chip": "ym2612"
    },
    {
      "channel": 0,
      "note": 70,
      "start": 36.2359,
      "duration": 0.0832,
      "velocity": 121,
      "chip": "ym2612"
    },
    {
      "channel": 1,
      "note": 89,
      "start": 36.2362,
      "duration": 0.0831,
      "velocity": 76,
      "chip": "ym2612"
    },
    {
      "channel": 2,
      "note": 46,
      "start": 36.2376,
      "duration": 0.0817,
      "velocity": 98,
      "chip": "ym2612"
    },
    {
      "channel": 3,
      "note": 86,
      "start": 36.2379,
      "duration": 0.0816,
      "velocity": 98,
      "chip": "ym2612"
    },
    {
      "channel": 0,
      "note": 70,
      "start": 36.3359,
      "duration": 0.0832,
      "velocity": 121,
      "chip": "ym2612"
    },
    {
      "channel": 1,
      "note": 89,
      "start": 36.3361,
      "duration": 0.0832,
      "velocity": 76,
      "chip": "ym2612"
    },
    {
      "channel": 2,
      "note": 82,
      "start": 36.3363,
      "duration": 0.083,
      "velocity": 98,
      "chip": "ym2612"
    },
    {
      "channel": 3,
      "note": 86,
      "start": 36.3365,
      "duration": 0.083,
      "velocity": 98,
      "chip": "ym2612"
    },
    {
      "channel": 0,
      "note": 70,
      "start": 36.4361,
      "duration": 0.1829,
      "velocity": 121,
      "chip": "ym2612"
    },
    {
      "channel": 1,
      "note": 89,
      "start": 36.4362,
      "duration": 0.1829,
      "velocity": 76,
      "chip": "ym2612"
    },
    {
      "channel": 2,
      "note": 82,
      "start": 36.4378,
      "duration": 0.1815,
      "velocity": 100,
      "chip": "ym2612"
    },
    {
      "channel": 5,
      "note": 42,
      "start": 36.4381,
      "duration": 0.3815,
      "velocity": 127,
      "chip": "ym2612"
    },
    {
      "channel": 0,
      "note": 70,
      "start": 36.6359,
      "duration": 0.1832,
      "velocity": 121,
      "chip": "ym2612"
    },
    {
      "channel": 1,
      "note": 89,
      "start": 36.6362,
      "duration": 0.1832,
      "velocity": 76,
      "chip": "ym2612"
    },
    {
      "channel": 2,
      "note": 41,
      "start": 36.6376,
      "duration": 0.0816,
      "velocity": 98,
      "chip": "ym2612"
    },
    {
      "channel": 3,
      "note": 86,
      "start": 36.6379,
      "duration": 0.0814,
      "velocity": 98,
      "chip": "ym2612"
    },
    {
      "channel": 2,
      "note": 82,
      "start": 36.7359,
      "duration": 0.0835,
      "velocity": 98,
      "chip": "ym2612"
    },
    {
      "channel": 3,
      "note": 86,
      "start": 36.7361,
      "duration": 0.0833,
      "velocity": 98,
      "chip": "ym2612"
    },
    {
      "channel": 2,
      "note": 82,
      "start": 36.839,
      "duration": 0.1803,
      "velocity": 100,
      "chip": "ym2612"
    },
    {
      "channel": 5,
      "note": 42,
      "start": 36.8432,
      "duration": 0.3763,
      "velocity": 127,
      "chip": "ym2612"
    },
    {
      "channel": 0,
      "note": 70,
      "start": 37.036,
      "duration": 0.1831,
      "velocity": 121,
      "chip": "ym2612"
    },
    {
      "channel": 1,
      "note": 89,
      "start": 37.0362,
      "duration": 0.1831,
      "velocity": 76,
      "chip": "ym2612"
    },
    {
      "channel": 2,
      "note": 39,
      "start": 37.0377,
      "duration": 0.1817,
      "velocity": 98,
      "chip": "ym2612"
    },
    {
      "channel": 3,
      "note": 86,
      "start": 37.0379,
      "duration": 0.1816,
      "velocity": 98,
      "chip": "ym2612"
    },
    {
      "channel": 4,
      "note": 86,
      "start": 37.0381,
      "duration": 0.3814,
      "velocity": 86,
      "chip": "ym2612"
    },
    {
      "channel": 0,
      "note": 75,
      "start": 37.2359,
      "duration": 0.1831,
      "velocity": 121,
      "chip": "ym2612"
    },
    {
      "channel": 1,
      "note": 87,
      "start": 37.2361,
      "duration": 0.1831,
      "velocity": 76,
      "chip": "ym2612"
    },
    {
      "channel": 2,
      "note": 87,
      "start": 37.2376,
      "duration": 0.1817,
      "velocity": 100,
      "chip": "ym2612"
    },
    {
      "channel": 5,
      "note": 42,
      "start": 37.238,
      "duration": 0.3817,
      "velocity": 127,
      "chip": "ym2612"
    },
    {
      "channel": 0,
      "note": 78,
      "start": 37.436,
      "duration": 0.1832,
      "velocity": 121,
      "chip": "ym2612"
    },
    {
      "channel": 1,
      "note": 90,
      "start": 37.4362,
      "duration": 0.1831,
      "velocity": 76,
      "chip": "ym2612"
    },
    {
      "channel": 2,
      "note": 39,
      "start": 37.4377,
      "duration": 0.1817,
      "velocity": 98,
      "chip": "ym2612"
    },
    {
      "channel": 3,
      "note": 78,
      "start": 37.438,
      "duration": 0.1815,
      "velocity": 98,
      "chip": "ym2612"
    },
    {
      "channel": 4,
      "note": 87,
      "start": 37.4381,
      "duration": 0.1814,
      "velocity": 86,
      "chip": "ym2612"
    },
    {
      "channel": 0,
      "note": 75,
      "start": 37.636,
      "duration": 0.3831,
      "velocity": 121,
      "chip": "ym2612"
    },
    {
      "channel": 1,
      "note": 87,
      "start": 37.6362,
      "duration": 0.383,
      "velocity": 76,
      "chip": "ym2612"
    },
    {
      "channel": 2,
      "note": 87,
      "start": 37.6377,
      "duration": 0.1815,
      "velocity": 100,
      "chip": "ym2612"
    },
    {
      "channel": 4,
      "note": 82,
      "start": 37.638,
      "duration": 0.7815,
      "velocity": 86,
      "chip": "ym2612"
    },
    {
      "channel": 5,
      "note": 42,
      "start": 37.6383,
      "duration": 0.3813,
      "velocity": 127,
      "chip": "ym2612"
    },
    {
      "channel": 2,
      "note": 46,
      "start": 37.8373,
      "duration": 0.1821,
      "velocity": 98,
      "chip": "ym2612"
    },
    {
      "channel": 3,
      "note": 78,
      "start": 37.8375,
      "duration": 0.182,
      "velocity": 98,
      "chip": "ym2612"
    },
    {
      "channel": 0,
      "note": 77,
      "start": 38.0359,
      "duration": 0.3832,
      "velocity": 121,
      "chip": "ym2612"
    },
    {
      "channel": 1,
      "note": 89,
      "start": 38.0361,
      "duration": 0.3831,
      "velocity": 76,
      "chip": "ym2612"
    },
    {
      "channel": 2,
      "note": 85,
      "start": 38.0376,
      "duration": 0.1815,
      "velocity": 100,
      "chip": "ym2612"
    },
    {
      "channel": 5,
      "note": 42,
      "start": 38.038,
      "duration": 0.3817,
      "velocity": 127,
      "chip": "ym2612"
    },
    {
      "channel": 2,
      "note": 46,
      "start": 38.2373,
      "duration": 0.182,
      "velocity": 98,
      "chip": "ym2612"
    },
    {
      "channel": 3,
      "note": 77,
      "start": 38.2375,
      "duration": 0.182,
      "velocity": 98,
      "chip": "ym2612"
    },
    {
      "channel": 2,
      "note": 85,
      "start": 38.4374,
      "duration": 0.1819,
      "velocity": 100,
      "chip": "ym2612"
    },
    {
      "channel": 5,
      "note": 42,
      "start": 38.4378,
      "duration": 0.3817,
      "velocity": 127,
      "chip": "ym2612"
    },
    {
      "channel": 0,
      "note": 73,
      "start": 38.636,
      "duration": 0.1831,
      "velocity": 121,
      "chip": "ym2612"
    },
    {
      "channel": 1,
      "note": 92,
      "start": 38.6362,
      "duration": 0.1831,
      "velocity": 76,
      "chip": "ym2612"
    },
    {
      "channel": 2,
      "note": 39,
      "start": 38.6377,
      "duration": 0.1817,
      "velocity": 98,
      "chip": "ym2612"
    },
    {
      "channel": 3,
      "note": 77,
      "start": 38.638,
      "duration": 0.1815,
      "velocity": 98,
      "chip": "ym2612"
    },
    {
      "channel": 4,
      "note": 85,
      "start": 38.6381,
      "duration": 0.3814,
      "velocity": 86,
      "chip": "ym2612"
    },
    {
      "channel": 0,
      "note": 75,
      "start": 38.8359,
      "duration": 0.1832,
      "velocity": 121,
      "chip": "ym2612"
    },
    {
      "channel": 1,
      "note": 87,
      "start": 38.8361,
      "duration": 0.1831,
      "velocity": 76,
      "chip": "ym2612"
    },
    {
      "channel": 2,
      "note": 87,
      "start": 38.8376,
      "duration": 0.1817,
      "velocity": 100,
      "chip": "ym2612"
    },
    {
      "channel": 5,
      "note": 42,
      "start": 38.838,
      "duration": 0.3816,
      "velocity": 127,
      "chip": "ym2612"
    },
    {
      "channel": 0,
      "note": 78,
      "start": 39.036,
      "duration": 0.183,
      "velocity": 121,
      "chip": "ym2612"
    },
    {
      "channel": 1,
      "note": 90,
      "start": 39.0362,
      "duration": 0.1829,
      "velocity": 76,
      "chip": "ym2612"
    },
    {
      "channel": 2,
      "note": 42,
      "start": 39.0377,
      "duration": 0.1815,
      "velocity": 98,
      "chip": "ym2612"
    },
    {
      "channel": 3,
      "note": 78,
      "start": 39.038,
      "duration": 0.1814,
      "velocity": 98,
      "chip": "ym2612"
    },
    {
      "channel": 4,
      "note": 87,
      "start": 39.0381,
      "duration": 0.1813,
      "velocity": 86,
      "chip": "ym2612"
    },
    {
      "channel": 0,
      "note": 75,
      "start": 39.2361,
      "duration": 0.383,
      "velocity": 121,
      "chip": "ym2612"
    },
    {
      "channel": 1,
      "note": 87,
      "start": 39.2362,
      "duration": 0.383,
      "velocity": 76,
      "chip": "ym2612"
    },
    {
      "channel": 2,
      "note": 87,
      "start": 39.2378,
      "duration": 0.0815,
      "velocity": 100,
      "chip": "ym2612"
    },
    {
      "channel": 4,
      "note": 82,
      "start": 39.2381,
      "duration": 0.7814,
      "velocity": 86,
      "chip": "ym2612"
    },
    {
      "channel": 5,
      "note": 42,
      "start": 39.2383,
      "duration": 0.3813,
      "velocity": 127,
      "chip": "ym2612"
    },
    {
      "channel": 2,
      "note": 46,
      "start": 39.3359,
      "duration": 0.0833,
      "velocity": 100,
      "chip": "ym2612"
    },
    {
      "channel": 2,
      "note": 46,
      "start": 39.4373,
      "duration": 0.182,
      "velocity": 98,
      "chip": "ym2612"
    },
    {
      "channel": 3,
      "note": 78,
      "start": 39.4375,
      "duration": 0.182,
      "velocity": 98,
      "chip": "ym2612"
    },
    {
      "channel": 0,
      "note": 77,
      "start": 39.6359,
      "duration": 0.3832,
      "velocity": 121,
      "chip": "ym2612"
    },
    {
      "channel": 1,
      "note": 92,
      "start": 39.6361,
      "duration": 0.3831,
      "velocity": 76,
      "chip": "ym2612"
    },
    {
      "channel": 2,
      "note": 85,
      "start": 39.6376,
      "duration": 0.1815,
      "velocity": 100,
      "chip": "ym2612"
    },
    {
      "channel": 5,
      "note": 42,
      "start": 39.638,
      "duration": 0.3817,
      "velocity": 127,
      "chip": "ym2612"
    },
    {
      "channel": 2,
      "note": 46,
      "start": 39.8373,
      "duration": 0.182,
      "velocity": 98,
      "chip": "ym2612"
    },
    {
      "channel": 3,
      "note": 77,
      "start": 39.8375,
      "duration": 0.182,
      "velocity": 98,
      "chip": "ym2612"
    },
    {
      "channel": 2,
      "note": 85,
      "start": 40.0374,
      "duration": 0.1819,
      "velocity": 100,
      "chip": "ym2612"
    },
    {
      "channel": 5,
      "note": 42,
      "start": 40.0378,
      "duration": 0.3817,
      "velocity": 127,
      "chip": "ym2612"
    },
    {
      "channel": 0,
      "note": 80,
      "start": 40.236,
      "duration": 0.1831,
      "velocity": 121,
      "chip": "ym2612"
    },
    {
      "channel": 1,
      "note": 89,
      "start": 40.2362,
      "duration": 0.1831,
      "velocity": 76,
      "chip": "ym2612"
    },
    {
      "channel": 2,
      "note": 39,
      "start": 40.2377,
      "duration": 0.1817,
      "velocity": 98,
      "chip": "ym2612"
    },
    {
      "channel": 3,
      "note": 77,
      "start": 40.238,
      "duration": 0.1815,
      "velocity": 98,
      "chip": "ym2612"
    },
    {
      "channel": 4,
      "note": 85,
      "start": 40.2381,
      "duration": 0.3814,
      "velocity": 86,
      "chip": "ym2612"
    },
    {
      "channel": 0,
      "note": 75,
      "start": 40.4359,
      "duration": 0.1832,
      "velocity": 121,
      "chip": "ym2612"
    },
    {
      "channel": 1,
      "note": 87,
      "start": 40.4361,
      "duration": 0.1831,
      "velocity": 76,
      "chip": "ym2612"
    },
    {
      "channel": 2,
      "note": 87,
      "start": 40.4376,
      "duration": 0.1817,
      "velocity": 100,
      "chip": "ym2612"
    },
    {
      "channel": 5,
      "note": 42,
      "start": 40.438,
      "duration": 0.3816,
      "velocity": 127,
      "chip": "ym2612"
    },
    {
      "channel": 0,
      "note": 78,
      "start": 40.6359,
      "duration": 0.1832,
      "velocity": 121,
      "chip": "ym2612"
    },
    {
      "channel": 1,
      "note": 90,
      "start": 40.6361,
      "duration": 0.1831,
      "velocity": 76,
      "chip": "ym2612"
    },
    {
      "channel": 2,
      "note": 39,
      "start": 40.6376,
      "duration": 0.1817,
      "velocity": 98,
      "chip": "ym2612"
    },
    {
      "channel": 3,
      "note": 78,
      "start": 40.6378,
      "duration": 0.1816,
      "velocity": 98,
      "chip": "ym2612"
    },
    {
      "channel": 4,
      "note": 87,
      "start": 40.638,
      "duration": 0.1814,
      "velocity": 86,
      "chip": "ym2612"
    },
    {
      "channel": 0,
      "note": 75,
      "start": 40.8361,
      "duration": 0.383,
      "velocity": 121,
      "chip": "ym2612"
    },
    {
      "channel": 1,
      "note": 87,
      "start": 40.8362,
      "duration": 0.383,
      "velocity": 76,
      "chip": "ym2612"
    },
    {
      "channel": 2,
      "note": 87,
      "start": 40.8378,
      "duration": 0.1815,
      "velocity": 100,
      "chip": "ym2612"
    },
    {
      "channel": 4,
      "note": 82,
      "start": 40.8381,
      "duration": 0.7814,
      "velocity": 86,
      "chip": "ym2612"
    },
    {
      "channel": 5,
      "note": 42,
      "start": 40.8383,
      "duration": 0.3813,
      "velocity": 127,
      "chip": "ym2612"
    },
    {
      "channel": 2,
      "note": 46,
      "start": 41.0373,
      "duration": 0.1821,
      "velocity": 98,
      "chip": "ym2612"
    },
    {
      "channel": 3,
      "note": 78,
      "start": 41.0376,
      "duration": 0.1819,
      "velocity": 98,
      "chip": "ym2612"
    },
    {
      "channel": 0,
      "note": 77,
      "start": 41.2359,
      "duration": 0.3831,
      "velocity": 121,
      "chip": "ym2612"
    },
    {
      "channel": 1,
      "note": 89,
      "start": 41.2361,
      "duration": 0.3831,
      "velocity": 76,
      "chip": "ym2612"
    },
    {
      "channel": 2,
      "note": 85,
      "start": 41.2376,
      "duration": 0.1816,
      "velocity": 100,
      "chip": "ym2612"
    },
    {
      "channel": 5,
      "note": 42,
      "start": 41.238,
      "duration": 0.3816,
      "velocity": 127,
      "chip": "ym2612"
    },
    {
      "channel": 2,
      "note": 46,
      "start": 41.4372,
      "duration": 0.1821,
      "velocity": 98,
      "chip": "ym2612"
    },
    {
      "channel": 3,
      "note": 77,
      "start": 41.4375,
      "duration": 0.1819,
      "velocity": 98,
      "chip": "ym2612"
    },
    {
      "channel": 0,
      "note": 73,
      "start": 41.636,
      "duration": 0.5831,
      "velocity": 121,
      "chip": "ym2612"
    },
    {
      "channel": 1,
      "note": 92,
      "start": 41.6362,
      "duration": 0.583,
      "velocity": 76,
      "chip": "ym2612"
    },
    {
      "channel": 2,
      "note": 85,
      "start": 41.6378,
      "duration": 0.1814,
      "velocity": 100,
      "chip": "ym2612"
    },
    {
      "channel": 4,
      "note": 85,
      "start": 41.6381,
      "duration": 0.5814,
      "velocity": 86,
      "chip": "ym2612"
    },
    {
      "channel": 5,
      "note": 42,
      "start": 41.6383,
      "duration": 0.3812,
      "velocity": 127,
      "chip": "ym2612"
    },
    {
      "channel": 2,
      "note": 42,
      "start": 41.8373,
      "duration": 0.1819,
      "velocity": 98,
      "chip": "ym2612"
    },
    {
      "channel": 3,
      "note": 77,
      "start": 41.8375,
      "duration": 0.1819,
      "velocity": 98,
      "chip": "ym2612"
    },
    {
      "channel": 2,
      "note": 90,
      "start": 42.0374,
      "duration": 0.1819,
      "velocity": 100,
      "chip": "ym2612"
    },
    {
      "channel": 5,
      "note": 42,
      "start": 42.0377,
      "duration": 0.382,
      "velocity": 127,
      "chip": "ym2612"
    },
    {
      "channel": 0,
      "note": 70,
      "start": 42.2362,
      "duration": 0.0829,
      "velocity": 121,
      "chip": "ym2612"
    },
    {
      "channel": 1,
      "note": 94,
      "start": 42.2364,
      "duration": 0.0829,
      "velocity": 76,
      "chip": "ym2612"
    },
    {
      "channel": 2,
      "note": 42,
      "start": 42.2379,
      "duration": 0.0814,
      "velocity": 98,
      "chip": "ym2612"
    },
    {
      "channel": 3,
      "note": 82,
      "start": 42.2381,
      "duration": 0.0813,
      "velocity": 98,
      "chip": "ym2612"
    },
    {
      "channel": 4,
      "note": 85,
      "start": 42.2383,
      "duration": 0.0812,
      "velocity": 86,
      "chip": "ym2612"
    },
    {
      "channel": 0,
      "note": 70,
      "start": 42.3359,
      "duration": 0.0832,
      "velocity": 121,
      "chip": "ym2612"
    },
    {
      "channel": 1,
      "note": 94,
      "start": 42.3361,
      "duration": 0.0832,
      "velocity": 76,
      "chip": "ym2612"
    },
    {
      "channel": 2,
      "note": 90,
      "start": 42.3364,
      "duration": 0.0831,
      "velocity": 98,
      "chip": "ym2612"
    },
    {
      "channel": 3,
      "note": 82,
      "start": 42.3366,
      "duration": 0.0829,
      "velocity": 98,
      "chip": "ym2612"
    },
    {
      "channel": 4,
      "note": 85,
      "start": 42.3368,
      "duration": 0.0828,
      "velocity": 86,
      "chip": "ym2612"
    },
    {
      "channel": 0,
      "note": 70,
      "start": 42.4362,
      "duration": 0.183,
      "velocity": 121,
      "chip": "ym2612"
    },
    {
      "channel": 1,
      "note": 94,
      "start": 42.4364,
      "duration": 0.1829,
      "velocity": 76,
      "chip": "ym2612"
    },
    {
      "channel": 2,
      "note": 90,
      "start": 42.4379,
      "duration": 0.1815,
      "velocity": 100,
      "chip": "ym2612"
    },
    {
      "channel": 4,
      "note": 85,
      "start": 42.4382,
      "duration": 0.1814,
      "velocity": 86,
      "chip": "ym2612"
    },
    {
      "channel": 5,
      "note": 42,
      "start": 42.4385,
      "duration": 0.3812,
      "velocity": 127,
      "chip": "ym2612"
    },
    {
      "channel": 0,
      "note": 70,
      "start": 42.6361,
      "duration": 0.083,
      "velocity": 121,
      "chip": "ym2612"
    },
    {
      "channel": 1,
      "note": 94,
      "start": 42.6363,
      "duration": 0.083,
      "velocity": 76,
      "chip": "ym2612"
    },
    {
      "channel": 2,
      "note": 49,
      "start": 42.6378,
      "duration": 0.0816,
      "velocity": 98,
      "chip": "ym2612"
    },
    {
      "channel": 3,
      "note": 82,
      "start": 42.638,
      "duration": 0.0815,
      "velocity": 98,
      "chip": "ym2612"
    },
    {
      "channel": 4,
      "note": 85,
      "start": 42.6383,
      "duration": 0.0813,
      "velocity": 86,
      "chip": "ym2612"
    },
    {
      "channel": 0,
      "note": 70,
      "start": 42.736,
      "duration": 0.0831,
      "velocity": 121,
      "chip": "ym2612"
    },
    {
      "channel": 1,
      "note": 94,
      "start": 42.7362,
      "duration": 0.0831,
      "velocity": 76,
      "chip": "ym2612"
    },
    {
      "channel": 2,
      "note": 90,
      "start": 42.7364,
      "duration": 0.0829,
      "velocity": 98,
      "chip": "ym2612"
    },
    {
      "channel": 3,
      "note": 82,
      "start": 42.7366,
      "duration": 0.0828,
      "velocity": 98,
      "chip": "ym2612"
    },
    {
      "channel": 4,
      "note": 85,
      "start": 42.7369,
      "duration": 0.0826,
      "velocity": 86,
      "chip": "ym2612"
    },
    {
      "channel": 0,
      "note": 70,
      "start": 42.8361,
      "duration": 0.183,
      "velocity": 121,
      "chip": "ym2612"
    },
    {
      "channel": 1,
      "note": 94,
      "start": 42.8363,
      "duration": 0.183,
      "velocity": 76,
      "chip": "ym2612"
    },
    {
      "channel": 2,
      "note": 90,
      "start": 42.8378,
      "duration": 0.1816,
      "velocity": 100,
      "chip": "ym2612"
    },
    {
      "channel": 4,
      "note": 85,
      "start": 42.8381,
      "duration": 0.1814,
      "velocity": 86,
      "chip": "ym2612"
    },
    {
      "channel": 5,
      "note": 42,
      "start": 42.8383,
      "duration": 0.3812,
      "velocity": 127,
      "chip": "ym2612"
    },
    {
      "channel": 0,
      "note": 70,
      "start": 43.036,
      "duration": 0.1831,
      "velocity": 121,
      "chip": "ym2612"
    },
    {
      "channel": 1,
      "note": 94,
      "start": 43.0362,
      "duration": 0.1831,
      "velocity": 76,
      "chip": "ym2612"
    },
    {
      "channel": 2,
      "note": 49,
      "start": 43.0377,
      "duration": 0.0816,
      "velocity": 98,
      "chip": "ym2612"
    },
    {
      "channel": 3,
      "note": 82,
      "start": 43.0379,
      "duration": 0.0815,
      "velocity": 98,
      "chip": "ym2612"
    },
    {
      "channel": 4,
      "note": 85,
      "start": 43.0381,
      "duration": 0.1814,
      "velocity": 86,
      "chip": "ym2612"
    },
    {
      "channel": 2,
      "note": 90,
      "start": 43.136,
      "duration": 0.0833,
      "velocity": 98,
      "chip": "ym2612"
    },
    {
      "channel": 3,
      "note": 82,
      "start": 43.1362,
      "duration": 0.0832,
      "velocity": 98,
      "chip": "ym2612"
    },
    {
      "channel": 1,
      "note": 94,
      "start": 43.2366,
      "duration": 1.5827,
      "velocity": 76,
      "chip": "ym2612"
    },
    {
      "channel": 2,
      "note": 90,
      "start": 43.2381,
      "duration": 0.1812,
      "velocity": 100,
      "chip": "ym2612"
    },
    {
      "channel": 4,
      "note": 85,
      "start": 43.2397,
      "duration": 0.7799,
      "velocity": 86,
      "chip": "ym2612"
    },
    {
      "channel": 5,
      "note": 42,
      "start": 43.2412,
      "duration": 0.3783,
      "velocity": 127,
      "chip": "ym2612"
    },
    {
      "channel": 0,
      "note": 70,
      "start": 43.4359,
      "duration": 0.1832,
      "velocity": 121,
      "chip": "ym2612"
    },
    {
      "channel": 2,
      "note": 44,
      "start": 43.4374,
      "duration": 0.1819,
      "velocity": 98,
      "chip": "ym2612"
    },
    {
      "channel": 3,
      "note": 82,
      "start": 43.4376,
      "duration": 0.1818,
      "velocity": 98,
      "chip": "ym2612"
    },
    {
      "channel": 0,
      "note": 68,
      "start": 43.6358,
      "duration": 0.1833,
      "velocity": 121,
      "chip": "ym2612"
    },
    {
      "channel": 2,
      "note": 87,
      "start": 43.6374,
      "duration": 0.1819,
      "velocity": 100,
      "chip": "ym2612"
    },
    {
      "channel": 5,
      "note": 42,
      "start": 43.6377,
      "duration": 0.3819,
      "velocity": 127,
      "chip": "ym2612"
    },
    {
      "channel": 0,
      "note": 71,
      "start": 43.8358,
      "duration": 0.1833,
      "velocity": 121,
      "chip": "ym2612"
    },
    {
      "channel": 2,
      "note": 44,
      "start": 43.8373,
      "duration": 0.1821,
      "velocity": 98,
      "chip": "ym2612"
    },
    {
      "channel": 3,
      "note": 92,
      "start": 43.8376,
      "duration": 0.1819,
      "velocity": 98,
      "chip": "ym2612"
    },
    {
      "channel": 0,
      "note": 68,
      "start": 44.036,
      "duration": 0.3832,
      "velocity": 121,
      "chip": "ym2612"
    },
    {
      "channel": 2,
      "note": 87,
      "start": 44.0375,
      "duration": 0.1817,
      "velocity": 100,
      "chip": "ym2612"
    },
    {
      "channel": 4,
      "note": 71,
      "start": 44.0378,
      "duration": 0.7817,
      "velocity": 86,
      "chip": "ym2612"
    },
    {
      "channel": 5,
      "note": 42,
      "start": 44.0381,
      "duration": 0.3815,
      "velocity": 127,
      "chip": "ym2612"
    },
    {
      "channel": 2,
      "note": 39,
      "start": 44.2373,
      "duration": 0.182,
      "velocity": 98,
      "chip": "ym2612"
    },
    {
      "channel": 3,
      "note": 92,
      "start": 44.2375,
      "duration": 0.182,
      "velocity": 98,
      "chip": "ym2612"
    },
    {
      "channel": 0,
      "note": 70,
      "start": 44.4359,
      "duration": 0.3832,
      "velocity": 121,
      "chip": "ym2612"
    },
    {
      "channel": 2,
      "note": 87,
      "start": 44.4375,
      "duration": 0.1817,
      "velocity": 100,
      "chip": "ym2612"
    },
    {
      "channel": 5,
      "note": 42,
      "start": 44.4378,
      "duration": 0.3819,
      "velocity": 127,
      "chip": "ym2612"
    },
    {
      "channel": 2,
      "note": 39,
      "start": 44.6373,
      "duration": 0.1821,
      "velocity": 98,
      "chip": "ym2612"
    },
    {
      "channel": 3,
      "note": 90,
      "start": 44.6375,
      "duration": 0.182,
      "velocity": 98,
      "chip": "ym2612"
    },
    {
      "channel": 1,
      "note": 87,
      "start": 44.8362,
      "duration": 0.7831,
      "velocity": 76,
      "chip": "ym2612"
    },
    {
      "channel": 2,
      "note": 87,
      "start": 44.8377,
      "duration": 0.1815,
      "velocity": 100,
      "chip": "ym2612"
    },
    {
      "channel": 4,
      "note": 70,
      "start": 44.838,
      "duration": 0.7815,
      "velocity": 86,
      "chip": "ym2612"
    },
    {
      "channel": 5,
      "note": 42,
      "start": 44.8382,
      "duration": 0.3815,
      "velocity": 127,
      "chip": "ym2612"
    },
    {
      "channel": 0,
      "note": 63,
      "start": 45.0359,
      "duration": 0.1833,
      "velocity": 121,
      "chip": "ym2612"
    },
    {
      "channel": 2,
      "note": 49,
      "start": 45.0375,
      "duration": 0.182,
      "velocity": 98,
      "chip": "ym2612"
    },
    {
      "channel": 3,
      "note": 90,
      "start": 45.0377,
      "duration": 0.1819,
      "velocity": 98,
      "chip": "ym2612"
    },
    {
      "channel": 0,
      "note": 73,
      "start": 45.2359,
      "duration": 0.1832,
      "velocity": 121,
      "chip": "ym2612"
    },
    {
      "channel": 2,
      "note": 85,
      "start": 45.2375,
      "duration": 0.1819,
      "velocity": 100,
      "chip": "ym2612"
    },
    {
      "channel": 5,
      "note": 42,
      "start": 45.2378,
      "duration": 0.3819,
      "velocity": 127,
      "chip": "ym2612"
    },
    {
      "channel": 0,
      "note": 77,
      "start": 45.4359,
      "duration": 0.1832,
      "velocity": 121,
      "chip": "ym2612"
    },
    {
      "channel": 2,
      "note": 49,
      "start": 45.4375,
      "duration": 0.1819,
      "velocity": 98,
      "chip": "ym2612"
    },
    {
      "channel": 3,
      "note": 89,
      "start": 45.4376,
      "duration": 0.1818,
      "velocity": 98,
      "chip": "ym2612"
    },
    {
      "channel": 0,
      "note": 73,
      "start": 45.636,
      "duration": 0.7831,
      "velocity": 121,
      "chip": "ym2612"
    },
    {
      "channel": 1,
      "note": 85,
      "start": 45.6362,
      "duration": 0.7831,
      "velocity": 76,
      "chip": "ym2612"
    },
    {
      "channel": 2,
      "note": 85,
      "start": 45.6377,
      "duration": 0.1815,
      "velocity": 100,
      "chip": "ym2612"
    },
    {
      "channel": 4,
      "note": 68,
      "start": 45.638,
      "duration": 0.7815,
      "velocity": 86,
      "chip": "ym2612"
    },
    {
      "channel": 5,
      "note": 42,
      "start": 45.6382,
      "duration": 0.3813,
      "velocity": 127,
      "chip": "ym2612"
    },
    {
      "channel": 2,
      "note": 39,
      "start": 45.8373,
      "duration": 0.1819,
      "velocity": 98,
      "chip": "ym2612"
    },
    {
      "channel": 3,
      "note": 89,
      "start": 45.8375,
      "duration": 0.1819,
      "velocity": 98,
      "chip": "ym2612"
    },
    {
      "channel": 2,
      "note": 87,
      "start": 46.0373,
      "duration": 0.1821,
      "velocity": 100,
      "chip": "ym2612"
    },
    {
      "channel": 5,
      "note": 42,
      "start": 46.0376,
      "duration": 0.382,
      "velocity": 127,
      "chip": "ym2612"
    },
    {
      "channel": 2,
      "note": 39,
      "start": 46.2373,
      "duration": 0.1821,
      "velocity": 98,
      "chip": "ym2612"
    },
    {
      "channel": 3,
      "note": 90,
      "start": 46.2375,
      "duration": 0.182,
      "velocity": 98,
      "chip": "ym2612"
    },
    {
      "channel": 1,
      "note": 87,
      "start": 46.4362,
      "duration": 1.5831,
      "velocity": 76,
      "chip": "ym2612"
    },
    {
      "channel": 2,
      "note": 87,
      "start": 46.4377,
      "duration": 0.1815,
      "velocity": 100,
      "chip": "ym2612"
    },
    {
      "channel": 4,
      "note": 70,
      "start": 46.438,
      "duration": 0.7814,
      "velocity": 86,
      "chip": "ym2612"
    },
    {
      "channel": 5,
      "note": 42,
      "start": 46.4382,
      "duration": 0.3814,
      "velocity": 127,
      "chip": "ym2612"
    },
    {
      "channel": 0,
      "note": 75,
      "start": 46.6359,
      "duration": 0.1832,
      "velocity": 121,
      "chip": "ym2612"
    },
    {
      "channel": 2,
      "note": 44,
      "start": 46.6375,
      "duration": 0.1819,
      "velocity": 98,
      "chip": "ym2612"
    },
    {
      "channel": 3,
      "note": 90,
      "start": 46.6376,
      "duration": 0.1818,
      "velocity": 98,
      "chip": "ym2612"
    },
    {
      "channel": 0,
      "note": 68,
      "start": 46.8359,
      "duration": 0.1832,
      "velocity": 121,
      "chip": "ym2612"
    },
    {
      "channel": 2,
      "note": 87,
      "start": 46.8375,
      "duration": 0.1819,
      "velocity": 100,
      "chip": "ym2612"
    },
    {
      "channel": 5,
      "note": 42,
      "start": 46.8378,
      "duration": 0.3818,
      "velocity": 127,
      "chip": "ym2612"
    },
    {
      "channel": 0,
      "note": 71,
      "start": 47.0359,
      "duration": 0.1832,
      "velocity": 121,
      "chip": "ym2612"
    },
    {
      "channel": 2,
      "note": 44,
      "start": 47.0375,
      "duration": 0.1819,
      "velocity": 98,
      "chip": "ym2612"
    },
    {
      "channel": 3,
      "note": 92,
      "start": 47.0376,
      "duration": 0.1817,
      "velocity": 98,
      "chip": "ym2612"
    },
    {
      "channel": 0,
      "note": 68,
      "start": 47.2359,
      "duration": 0.3832,
      "velocity": 121,
      "chip": "ym2612"
    },
    {
      "channel": 2,
      "note": 87,
      "start": 47.2375,
      "duration": 0.1818,
      "velocity": 100,
      "chip": "ym2612"
    },
    {
      "channel": 4,
      "note": 71,
      "start": 47.2378,
      "duration": 0.7818,
      "velocity": 86,
      "chip": "ym2612"
    },
    {
      "channel": 5,
      "note": 42,
      "start": 47.238,
      "duration": 0.3816,
      "velocity": 127,
      "chip": "ym2612"
    },
    {
      "channel": 2,
      "note": 39,
      "start": 47.4373,
      "duration": 0.1821,
      "velocity": 98,
      "chip": "ym2612"
    },
    {
      "channel": 3,
      "note": 92,
      "start": 47.4376,
      "duration": 0.1819,
      "velocity": 98,
      "chip": "ym2612"
    },
    {
      "channel": 0,
      "note": 70,
      "start": 47.6359,
      "duration": 0.3832,
      "velocity": 121,
      "chip": "ym2612"
    },
    {
      "channel": 2,
      "note": 87,
      "start": 47.6375,
      "duration": 0.1817,
      "velocity": 100,
      "chip": "ym2612"
    },
    {
      "channel": 5,
      "note": 42,
      "start": 47.6378,
      "duration": 0.3818,
      "velocity": 127,
      "chip": "ym2612"
    },
    {
      "channel": 2,
      "note": 39,
      "start": 47.8373,
      "duration": 0.1821,
      "velocity": 98,
      "chip": "ym2612"
    },
    {
      "channel": 3,
      "note": 90,
      "start": 47.8375,
      "duration": 0.182,
      "velocity": 98,
      "chip": "ym2612"
    },
    {
      "channel": 0,
      "note": 75,
      "start": 48.0361,
      "duration": 0.5831,
      "velocity": 121,
      "chip": "ym2612"
    },
    {
      "channel": 1,
      "note": 87,
      "start": 48.0363,
      "duration": 0.5832,
      "velocity": 76,
      "chip": "ym2612"
    },
    {
      "channel": 2,
      "note": 87,
      "start": 48.0378,
      "duration": 0.1814,
      "velocity": 100,
      "chip": "ym2612"
    },
    {
      "channel": 4,
      "note": 70,
      "start": 48.0381,
      "duration": 0.5816,
      "velocity": 86,
      "chip": "ym2612"
    },
    {
      "channel": 5,
      "note": 42,
      "start": 48.0383,
      "duration": 0.3813,
      "velocity": 127,
      "chip": "ym2612"
    },
    {
      "channel": 2,
      "note": 49,
      "start": 48.2373,
      "duration": 0.1821,
      "velocity": 98,
      "chip": "ym2612"
    },
    {
      "channel": 3,
      "note": 90,
      "start": 48.2375,
      "duration": 0.182,
      "velocity": 98,
      "chip": "ym2612"
    },
    {
      "channel": 2,
      "note": 85,
      "start": 48.4373,
      "duration": 0.1823,
      "velocity": 100,
      "chip": "ym2612"
    },
    {
      "channel": 5,
      "note": 42,
      "start": 48.4376,
      "duration": 0.3819,
      "velocity": 127,
      "chip": "ym2612"
    },
    {
      "channel": 0,
      "note": 73,
      "start": 48.6361,
      "duration": 0.083,
      "velocity": 121,
      "chip": "ym2612"
    },
    {
      "channel": 1,
      "note": 89,
      "start": 48.6363,
      "duration": 0.083,
      "velocity": 76,
      "chip": "ym2612"
    },
    {
      "channel": 2,
      "note": 44,
      "start": 48.6378,
      "duration": 0.1815,
      "velocity": 98,
      "chip": "ym2612"
    },
    {
      "channel": 3,
      "note": 89,
      "start": 48.638,
      "duration": 0.1814,
      "velocity": 98,
      "chip": "ym2612"
    },
    {
      "channel": 4,
      "note": 68,
      "start": 48.6383,
      "duration": 0.0812,
      "velocity": 86,
      "chip": "ym2612"
    },
    {
      "channel": 0,
      "note": 73,
      "start": 48.7359,
      "duration": 0.0832,
      "velocity": 121,
      "chip": "ym2612"
    },
    {
      "channel": 1,
      "note": 89,
      "start": 48.7361,
      "duration": 0.0831,
      "velocity": 76,
      "chip": "ym2612"
    },
    {
      "channel": 4,
      "note": 68,
      "start": 48.7364,
      "duration": 0.0831,
      "velocity": 86,
      "chip": "ym2612"
    },
    {
      "channel": 0,
      "note": 73,
      "start": 48.8361,
      "duration": 0.1831,
      "velocity": 121,
      "chip": "ym2612"
    },
    {
      "channel": 1,
      "note": 89,
      "start": 48.8363,
      "duration": 0.183,
      "velocity": 76,
      "chip": "ym2612"
    },
    {
      "channel": 2,
      "note": 85,
      "start": 48.8378,
      "duration": 0.1817,
      "velocity": 100,
      "chip": "ym2612"
    },
    {
      "channel": 4,
      "note": 68,
      "start": 48.8381,
      "duration": 0.1815,
      "velocity": 86,
      "chip": "ym2612"
    },
    {
      "channel": 5,
      "note": 42,
      "start": 48.8383,
      "duration": 0.3812,
      "velocity": 127,
      "chip": "ym2612"
    },
    {
      "channel": 0,
      "note": 73,
      "start": 49.0361,
      "duration": 0.083,
      "velocity": 121,
      "chip": "ym2612"
    },
    {
      "channel": 1,
      "note": 89,
      "start": 49.0363,
      "duration": 0.083,
      "velocity": 76,
      "chip": "ym2612"
    },
    {
      "channel": 2,
      "note": 49,
      "start": 49.0378,
      "duration": 0.1815,
      "velocity": 98,
      "chip": "ym2612"
    },
    {
      "channel": 3,
      "note": 89,
      "start": 49.0381,
      "duration": 0.1814,
      "velocity": 98,
      "chip": "ym2612"
    },
    {
      "channel": 4,
      "note": 68,
      "start": 49.0383,
      "duration": 0.0812,
      "velocity": 86,
      "chip": "ym2612"
    },
    {
      "channel": 0,
      "note": 73,
      "start": 49.1359,
      "duration": 0.0832,
      "velocity": 121,
      "chip": "ym2612"
    },
    {
      "channel": 1,
      "note": 89,
      "start": 49.1361,
      "duration": 0.0831,
      "velocity": 76,
      "chip": "ym2612"
    },
    {
      "channel": 4,
      "note": 68,
      "start": 49.1364,
      "duration": 0.0831,
      "velocity": 86,
      "chip": "ym2612"
    },
    {
      "channel": 0,
      "note": 73,
      "start": 49.2362,
      "duration": 0.183,
      "velocity": 121,
      "chip": "ym2612"
    },
    {
      "channel": 1,
      "note": 89,
      "start": 49.2364,
      "duration": 0.1829,
      "velocity": 76,
      "chip": "ym2612"
    },
    {
      "channel": 2,
      "note": 85,
      "start": 49.238,
      "duration": 0.1815,
      "velocity": 100,
      "chip": "ym2612"
    },
    {
      "channel": 4,
      "note": 68,
      "start": 49.2383,
      "duration": 0.1814,
      "velocity": 86,
      "chip": "ym2612"
    },
    {
      "channel": 5,
      "note": 42,
      "start": 49.2385,
      "duration": 0.3812,
      "velocity": 127,
      "chip": "ym2612"
    },
    {
      "channel": 0,
      "note": 73,
      "start": 49.4359,
      "duration": 0.1833,
      "velocity": 121,
      "chip": "ym2612"
    },
    {
      "channel": 1,
      "note": 89,
      "start": 49.4361,
      "duration": 0.1833,
      "velocity": 76,
      "chip": "ym2612"
    },
    {
      "channel": 2,
      "note": 44,
      "start": 49.4363,
      "duration": 0.1831,
      "velocity": 100,
      "chip": "ym2612"
    },
    {
      "channel": 3,
      "note": 89,
      "start": 49.4365,
      "duration": 0.183,
      "velocity": 98,
      "chip": "ym2612"
    },
    {
      "channel": 4,
      "note": 68,
      "start": 49.4368,
      "duration": 0.1828,
      "velocity": 86,
      "chip": "ym2612"
    },
    {
      "channel": 1,
      "note": 89,
      "start": 49.6364,
      "duration": 1.5829,
      "velocity": 76,
      "chip": "ym2612"
    },
    {
      "channel": 2,
      "note": 46,
      "start": 49.6379,
      "duration": 0.1815,
      "velocity": 100,
      "chip": "ym2612"
    },
    {
      "channel": 4,
      "note": 68,
      "start": 49.6382,
      "duration": 0.7812,
      "velocity": 86,
      "chip": "ym2612"
    },
    {
      "channel": 5,
      "note": 42,
      "start": 49.6397,
      "duration": 0.3798,
      "velocity": 127,
      "chip": "ym2612"
    },
    {
      "channel": 0,
      "note": 73,
      "start": 49.8359,
      "duration": 0.1832,
      "velocity": 121,
      "chip": "ym2612"
    },
    {
      "channel": 2,
      "note": 44,
      "start": 49.8374,
      "duration": 0.1819,
      "velocity": 98,
      "chip": "ym2612"
    },
    {
      "channel": 3,
      "note": 89,
      "start": 49.8376,
      "duration": 0.1817,
      "velocity": 98,
      "chip": "ym2612"
    },
    {
      "channel": 0,
      "note": 68,
      "start": 50.0359,
      "duration": 0.1833,
      "velocity": 121,
      "chip": "ym2612"
    },
    {
      "channel": 2,
      "note": 87,
      "start": 50.0374,
      "duration": 0.1819,
      "velocity": 100,
      "chip": "ym2612"
    },
    {
      "channel": 5,
      "note": 42,
      "start": 50.0378,
      "duration": 0.3818,
      "velocity": 127,
      "chip": "ym2612"
    },
    {
      "channel": 0,
      "note": 71,
      "start": 50.2359,
      "duration": 0.1832,
      "velocity": 121,
      "chip": "ym2612"
    },
    {
      "channel": 2,
      "note": 44,
      "start": 50.2374,
      "duration": 0.1819,
      "velocity": 98,
      "chip": "ym2612"
    },
    {
      "channel": 3,
      "note": 92,
      "start": 50.2376,
      "duration": 0.1818,
      "velocity": 98,
      "chip": "ym2612"
    },
    {
      "channel": 0,
      "note": 68,
      "start": 50.436,
      "duration": 0.3832,
      "velocity": 121,
      "chip": "ym2612"
    },
    {
      "channel": 2,
      "note": 87,
      "start": 50.4376,
      "duration": 0.1816,
      "velocity": 100,
      "chip": "ym2612"
    },
    {
      "channel": 4,
      "note": 71,
      "start": 50.4379,
      "duration": 0.7817,
      "velocity": 86,
      "chip": "ym2612"
    },
    {
      "channel": 5,
      "note": 42,
      "start": 50.4381,
      "duration": 0.3815,
      "velocity": 127,
      "chip": "ym2612"
    },
    {
      "channel": 2,
      "note": 39,
      "start": 50.6373,
      "duration": 0.1821,
      "velocity": 98,
      "chip": "ym2612"
    },
    {
      "channel": 3,
      "note": 92,
      "start": 50.6375,
      "duration": 0.182,
      "velocity": 98,
      "chip": "ym2612"
    },
    {
      "channel": 0,
      "note": 70,
      "start": 50.8359,
      "duration": 0.3832,
      "velocity": 121,
      "chip": "ym2612"
    },
    {
      "channel": 2,
      "note": 87,
      "start": 50.8375,
      "duration": 0.1817,
      "velocity": 100,
      "chip": "ym2612"
    },
    {
      "channel": 5,
      "note": 42,
      "start": 50.8378,
      "duration": 0.3819,
      "velocity": 127,
      "chip": "ym2612"
    },
    {
      "channel": 2,
      "note": 39,
      "start": 51.0373,
      "duration": 0.1821,
      "velocity": 98,
      "chip": "ym2612"
    },
    {
      "channel": 3,
      "note": 90,
      "start": 51.0375,
      "duration": 0.182,
      "velocity": 98,
      "chip": "ym2612"
    },
    {
      "channel": 1,
      "note": 87,
      "start": 51.2362,
      "duration": 0.7832,
      "velocity": 76,
      "chip": "ym2612"
    },
    {
      "channel": 2,
      "note": 87,
      "start": 51.2377,
      "duration": 0.1815,
      "velocity": 100,
      "chip": "ym2612"
    },
    {
      "channel": 4,
      "note": 70,
      "start": 51.238,
      "duration": 0.7815,
      "velocity": 86,
      "chip": "ym2612"
    },
    {
      "channel": 5,
      "note": 42,
      "start": 51.2382,
      "duration": 0.3816,
      "velocity": 127,
      "chip": "ym2612"
    },
    {
      "channel": 0,
      "note": 63,
      "start": 51.4359,
      "duration": 0.1833,
      "velocity": 121,
      "chip": "ym2612"
    },
    {
      "channel": 2,
      "note": 37,
      "start": 51.4375,
      "duration": 0.182,
      "velocity": 98,
      "chip": "ym2612"
    },
    {
      "channel": 3,
      "note": 90,
      "start": 51.4377,
      "duration": 0.1819,
      "velocity": 98,
      "chip": "ym2612"
    },
    {
      "channel": 0,
      "note": 73,
      "start": 51.6361,
      "duration": 0.183,
      "velocity": 121,
      "chip": "ym2612"
    },
    {
      "channel": 2,
      "note": 85,
      "start": 51.6376,
      "duration": 0.1817,
      "velocity": 100,
      "chip": "ym2612"
    },
    {
      "channel": 5,
      "note": 42,
      "start": 51.638,
      "duration": 0.3817,
      "velocity": 127,
      "chip": "ym2612"
    },
    {
      "channel": 0,
      "note": 77,
      "start": 51.8359,
      "duration": 0.1832,
      "velocity": 121,
      "chip": "ym2612"
    },
    {
      "channel": 2,
      "note": 37,
      "start": 51.8375,
      "duration": 0.1819,
      "velocity": 98,
      "chip": "ym2612"
    },
    {
      "channel": 3,
      "note": 89,
      "start": 51.8377,
      "duration": 0.1818,
      "velocity": 98,
      "chip": "ym2612"
    },
    {
      "channel": 0,
      "note": 73,
      "start": 52.0361,
      "duration": 0.3831,
      "velocity": 121,
      "chip": "ym2612"
    },
    {
      "channel": 1,
      "note": 85,
      "start": 52.0362,
      "duration": 0.7831,
      "velocity": 76,
      "chip": "ym2612"
    },
    {
      "channel": 2,
      "note": 85,
      "start": 52.0378,
      "duration": 0.1815,
      "velocity": 100,
      "chip": "ym2612"
    },
    {
      "channel": 4,
      "note": 68,
      "start": 52.0381,
      "duration": 0.7815,
      "velocity": 86,
      "chip": "ym2612"
    },
    {
      "channel": 5,
      "note": 42,
      "start": 52.0383,
      "duration": 0.3814,
      "velocity": 127,
      "chip": "ym2612"
    },
    {
      "channel": 2,
      "note": 39,
      "start": 52.2374,
      "duration": 0.182,
      "velocity": 98,
      "chip": "ym2612"
    },
    {
      "channel": 3,
      "note": 89,
      "start": 52.2376,
      "duration": 0.1819,
      "velocity": 98,
      "chip": "ym2612"
    },
    {
      "channel": 0,
      "note": 75,
      "start": 52.4359,
      "duration": 0.1833,
      "velocity": 121,
      "chip": "ym2612"
    },
    {
      "channel": 2,
      "note": 87,
      "start": 52.4375,
      "duration": 0.1819,
      "velocity": 100,
      "chip": "ym2612"
    },
    {
      "channel": 5,
      "note": 42,
      "start": 52.4378,
      "duration": 0.3818,
      "velocity": 127,
      "chip": "ym2612"
    },
    {
      "channel": 0,
      "note": 75,
      "start": 52.6359,
      "duration": 0.1832,
      "velocity": 121,
      "chip": "ym2612"
    },
    {
      "channel": 2,
      "note": 39,
      "start": 52.6375,
      "duration": 0.1819,
      "velocity": 98,
      "chip": "ym2612"
    },
    {
      "channel": 3,
      "note": 90,
      "start": 52.6376,
      "duration": 0.1819,
      "velocity": 98,
      "chip": "ym2612"
    },
    {
      "channel": 0,
      "note": 77,
      "start": 52.8361,
      "duration": 0.383,
      "velocity": 121,
      "chip": "ym2612"
    },
    {
      "channel": 1,
      "note": 87,
      "start": 52.8364,
      "duration": 1.583,
      "velocity": 76,
      "chip": "ym2612"
    },
    {
      "channel": 2,
      "note": 87,
      "start": 52.8378,
      "duration": 0.1814,
      "velocity": 100,
      "chip": "ym2612"
    },
    {
      "channel": 4,
      "note": 70,
      "start": 52.8381,
      "duration": 1.5815,
      "velocity": 86,
      "chip": "ym2612"
    },
    {
      "channel": 5,
      "note": 42,
      "start": 52.8384,
      "duration": 0.3812,
      "velocity": 127,
      "chip": "ym2612"
    },
    {
      "channel": 2,
      "note": 35,
      "start": 53.0374,
      "duration": 0.182,
      "velocity": 98,
      "chip": "ym2612"
    },
    {
      "channel": 3,
      "note": 90,
      "start": 53.0376,
      "duration": 0.1819,
      "velocity": 98,
      "chip": "ym2612"
    },
    {
      "channel": 0,
      "note": 78,
      "start": 53.2359,
      "duration": 0.1833,
      "velocity": 121,
      "chip": "ym2612"
    },
    {
      "channel": 2,
      "note": 83,
      "start": 53.2375,
      "duration": 0.1819,
      "velocity": 100,
      "chip": "ym2612"
    },
    {
      "channel": 5,
      "note": 42,
      "start": 53.2378,
      "duration": 0.3817,
      "velocity": 127,
      "chip": "ym2612"
    },
    {
      "channel": 0,
      "note": 78,
      "start": 53.4359,
      "duration": 0.1832,
      "velocity": 121,
      "chip": "ym2612"
    },
    {
      "channel": 2,
      "note": 35,
      "start": 53.4375,
      "duration": 0.1819,
      "velocity": 98,
      "chip": "ym2612"
    },
    {
      "channel": 3,
      "note": 87,
      "start": 53.4376,
      "duration": 0.1817,
      "velocity": 98,
      "chip": "ym2612"
    },
    {
      "channel": 0,
      "note": 78,
      "start": 53.636,
      "duration": 0.3832,
      "velocity": 121,
      "chip": "ym2612"
    },
    {
      "channel": 2,
      "note": 83,
      "start": 53.6375,
      "duration": 0.1817,
      "velocity": 100,
      "chip": "ym2612"
    },
    {
      "channel": 5,
      "note": 42,
      "start": 53.6379,
      "duration": 0.3817,
      "velocity": 127,
      "chip": "ym2612"
    },
    {
      "channel": 2,
      "note": 35,
      "start": 53.8374,
      "duration": 0.182,
      "velocity": 98,
      "chip": "ym2612"
    },
    {
      "channel": 3,
      "note": 87,
      "start": 53.8376,
      "duration": 0.1819,
      "velocity": 98,
      "chip": "ym2612"
    },
    {
      "channel": 0,
      "note": 78,
      "start": 54.0361,
      "duration": 0.1831,
      "velocity": 121,
      "chip": "ym2612"
    },
    {
      "channel": 2,
      "note": 83,
      "start": 54.0376,
      "duration": 0.1818,
      "velocity": 100,
      "chip": "ym2612"
    },
    {
      "channel": 5,
      "note": 42,
      "start": 54.038,
      "duration": 0.3818,
      "velocity": 127,
      "chip": "ym2612"
    },
    {
      "channel": 0,
      "note": 77,
      "start": 54.2359,
      "duration": 0.1833,
      "velocity": 121,
      "chip": "ym2612"
    },
    {
      "channel": 2,
      "note": 35,
      "start": 54.2375,
      "duration": 0.182,
      "velocity": 98,
      "chip": "ym2612"
    },
    {
      "channel": 3,
      "note": 87,
      "start": 54.2376,
      "duration": 0.1819,
      "velocity": 98,
      "chip": "ym2612"
    },
    {
      "channel": 0,
      "note": 75,
      "start": 54.4362,
      "duration": 0.5829,
      "velocity": 121,
      "chip": "ym2612"
    },
    {
      "channel": 1,
      "note": 87,
      "start": 54.4364,
      "duration": 0.5828,
      "velocity": 76,
      "chip": "ym2612"
    },
    {
      "channel": 2,
      "note": 83,
      "start": 54.438,
      "duration": 0.1814,
      "velocity": 100,
      "chip": "ym2612"
    },
    {
      "channel": 4,
      "note": 71,
      "start": 54.4383,
      "duration": 0.5812,
      "velocity": 86,
      "chip": "ym2612"
    },
    {
      "channel": 5,
      "note": 42,
      "start": 54.4385,
      "duration": 0.381,
      "velocity": 127,
      "chip": "ym2612"
    },
    {
      "channel": 2,
      "note": 34,
      "start": 54.6373,
      "duration": 0.1819,
      "velocity": 98,
      "chip": "ym2612"
    },
    {
      "channel": 3,
      "note": 87,
      "start": 54.6375,
      "duration": 0.1818,
      "velocity": 98,
      "chip": "ym2612"
    },
    {
      "channel": 2,
      "note": 87,
      "start": 54.8374,
      "duration": 0.1819,
      "velocity": 100,
      "chip": "ym2612"
    },
    {
      "channel": 5,
      "note": 42,
      "start": 54.8377,
      "duration": 0.3819,
      "velocity": 127,
      "chip": "ym2612"
    },
    {
      "channel": 0,
      "note": 77,
      "start": 55.0361,
      "duration": 0.083,
      "velocity": 121,
      "chip": "ym2612"
    },
    {
      "channel": 1,
      "note": 82,
      "start": 55.0362,
      "duration": 0.083,
      "velocity": 76,
      "chip": "ym2612"
    },
    {
      "channel": 2,
      "note": 34,
      "start": 55.0378,
      "duration": 0.1816,
      "velocity": 98,
      "chip": "ym2612"
    },
    {
      "channel": 3,
      "note": 89,
      "start": 55.038,
      "duration": 0.1815,
      "velocity": 98,
      "chip": "ym2612"
    },
    {
      "channel": 4,
      "note": 68,
      "start": 55.0382,
      "duration": 0.0812,
      "velocity": 86,
      "chip": "ym2612"
    },
    {
      "channel": 0,
      "note": 77,
      "start": 55.1358,
      "duration": 0.0833,
      "velocity": 121,
      "chip": "ym2612"
    },
    {
      "channel": 1,
      "note": 82,
      "start": 55.136,
      "duration": 0.0833,
      "velocity": 76,
      "chip": "ym2612"
    },
    {
      "channel": 4,
      "note": 68,
      "start": 55.1363,
      "duration": 0.0833,
      "velocity": 86,
      "chip": "ym2612"
    },
    {
      "channel": 0,
      "note": 77,
      "start": 55.2361,
      "duration": 0.1831,
      "velocity": 121,
      "chip": "ym2612"
    },
    {
      "channel": 1,
      "note": 82,
      "start": 55.2364,
      "duration": 0.183,
      "velocity": 76,
      "chip": "ym2612"
    },
    {
      "channel": 2,
      "note": 87,
      "start": 55.2378,
      "duration": 0.1816,
      "velocity": 100,
      "chip": "ym2612"
    },
    {
      "channel": 4,
      "note": 68,
      "start": 55.2381,
      "duration": 0.1815,
      "velocity": 86,
      "chip": "ym2612"
    },
    {
      "channel": 5,
      "note": 42,
      "start": 55.2384,
      "duration": 0.3812,
      "velocity": 127,
      "chip": "ym2612"
    },
    {
      "channel": 0,
      "note": 77,
      "start": 55.436,
      "duration": 0.0831,
      "velocity": 121,
      "chip": "ym2612"
    },
    {
      "channel": 1,
      "note": 82,
      "start": 55.4362,
      "duration": 0.083,
      "velocity": 76,
      "chip": "ym2612"
    },
    {
      "channel": 2,
      "note": 34,
      "start": 55.4378,
      "duration": 0.1816,
      "velocity": 98,
      "chip": "ym2612"
    },
    {
      "channel": 3,
      "note": 89,
      "start": 55.438,
      "duration": 0.1815,
      "velocity": 98,
      "chip": "ym2612"
    },
    {
      "channel": 4,
      "note": 68,
      "start": 55.4382,
      "duration": 0.0812,
      "velocity": 86,
      "chip": "ym2612"
    },
    {
      "channel": 0,
      "note": 77,
      "start": 55.5359,
      "duration": 0.0832,
      "velocity": 121,
      "chip": "ym2612"
    },
    {
      "channel": 1,
      "note": 82,
      "start": 55.5361,
      "duration": 0.0831,
      "velocity": 76,
      "chip": "ym2612"
    },
    {
      "channel": 4,
      "note": 68,
      "start": 55.5364,
      "duration": 0.0831,
      "velocity": 86,
      "chip": "ym2612"
    },
    {
      "channel": 0,
      "note": 77,
      "start": 55.6361,
      "duration": 0.1829,
      "velocity": 121,
      "chip": "ym2612"
    },
    {
      "channel": 1,
      "note": 82,
      "start": 55.6363,
      "duration": 0.1829,
      "velocity": 76,
      "chip": "ym2612"
    },
    {
      "channel": 2,
      "note": 87,
      "start": 55.6378,
      "duration": 0.1815,
      "velocity": 100,
      "chip": "ym2612"
    },
    {
      "channel": 4,
      "note": 68,
      "start": 55.6381,
      "duration": 0.1814,
      "velocity": 86,
      "chip": "ym2612"
    },
    {
      "channel": 5,
      "note": 42,
      "start": 55.6384,
      "duration": 0.3813,
      "velocity": 127,
      "chip": "ym2612"
    },
    {
      "channel": 0,
      "note": 77,
      "start": 55.8361,
      "duration": 0.1831,
      "velocity": 121,
      "chip": "ym2612"
    },
    {
      "channel": 1,
      "note": 82,
      "start": 55.8362,
      "duration": 0.1832,
      "velocity": 76,
      "chip": "ym2612"
    },
    {
      "channel": 2,
      "note": 34,
      "start": 55.8378,
      "duration": 0.1817,
      "velocity": 98,
      "chip": "ym2612"
    },
    {
      "channel": 3,
      "note": 89,
      "start": 55.838,
      "duration": 0.1816,
      "velocity": 98,
      "chip": "ym2612"
    },
    {
      "channel": 4,
      "note": 68,
      "start": 55.8382,
      "duration": 0.1814,
      "velocity": 86,
      "chip": "ym2612"
    },
    {
      "channel": 0,
      "note": 77,
      "start": 56.0362,
      "duration": 0.583,
      "velocity": 121,
      "chip": "ym2612"
    },
    {
      "channel": 1,
      "note": 82,
      "start": 56.0364,
      "duration": 0.5829,
      "velocity": 76,
      "chip": "ym2612"
    },
    {
      "channel": 2,
      "note": 87,
      "start": 56.0379,
      "duration": 0.1814,
      "velocity": 100,
      "chip": "ym2612"
    },
    {
      "channel": 4,
      "note": 68,
      "start": 56.0382,
      "duration": 0.5814,
      "velocity": 86,
      "chip": "ym2612"
    },
    {
      "channel": 5,
      "note": 42,
      "start": 56.0385,
      "duration": 0.3811,
      "velocity": 127,
      "chip": "ym2612"
    },
    {
      "channel": 2,
      "note": 34,
      "start": 56.2374,
      "duration": 0.1819,
      "velocity": 98,
      "chip": "ym2612"
    },
    {
      "channel": 3,
      "note": 89,
      "start": 56.2376,
      "duration": 0.1818,
      "velocity": 98,
      "chip": "ym2612"
    },
    {
      "channel": 2,
      "note": 86,
      "start": 56.4373,
      "duration": 0.1821,
      "velocity": 100,
      "chip": "ym2612"
    },
    {
      "channel": 5,
      "note": 42,
      "start": 56.4377,
      "duration": 0.3819,
      "velocity": 127,
      "chip": "ym2612"
    },
    {
      "channel": 0,
      "note": 77,
      "start": 56.6361,
      "duration": 0.0831,
      "velocity": 121,
      "chip": "ym2612"
    },
    {
      "channel": 1,
      "note": 98,
      "start": 56.6364,
      "duration": 0.083,
      "velocity": 76,
      "chip": "ym2612"
    },
    {
      "channel": 2,
      "note": 29,
      "start": 56.6379,
      "duration": 0.1814,
      "velocity": 98,
      "chip": "ym2612"
    },
    {
      "channel": 3,
      "note": 82,
      "start": 56.6381,
      "duration": 0.1814,
      "velocity": 98,
      "chip": "ym2612"
    },
    {
      "channel": 4,
      "note": 68,
      "start": 56.6383,
      "duration": 0.0812,
      "velocity": 86,
      "chip": "ym2612"
    },
    {
      "channel": 0,
      "note": 77,
      "start": 56.7359,
      "duration": 0.0832,
      "velocity": 121,
      "chip": "ym2612"
    },
    {
      "channel": 1,
      "note": 98,
      "start": 56.7361,
      "duration": 0.0831,
      "velocity": 76,
      "chip": "ym2612"
    },
    {
      "channel": 4,
      "note": 68,
      "start": 56.7364,
      "duration": 0.0831,
      "velocity": 86,
      "chip": "ym2612"
    },
    {
      "channel": 0,
      "note": 77,
      "start": 56.8362,
      "duration": 0.1829,
      "velocity": 121,
      "chip": "ym2612"
    },
    {
      "channel": 1,
      "note": 98,
      "start": 56.8364,
      "duration": 0.1829,
      "velocity": 76,
      "chip": "ym2612"
    },
    {
      "channel": 2,
      "note": 86,
      "start": 56.838,
      "duration": 0.1815,
      "velocity": 100,
      "chip": "ym2612"
    },
    {
      "channel": 4,
      "note": 68,
      "start": 56.8383,
      "duration": 0.1814,
      "velocity": 86,
      "chip": "ym2612"
    },
    {
      "channel": 5,
      "note": 42,
      "start": 56.8385,
      "duration": 0.3812,
      "velocity": 127,
      "chip": "ym2612"
    },
    {
      "channel": 0,
      "note": 77,
      "start": 57.0361,
      "duration": 0.0831,
      "velocity": 121,
      "chip": "ym2612"
    },
    {
      "channel": 1,
      "note": 98,
      "start": 57.0364,
      "duration": 0.0829,
      "velocity": 76,
      "chip": "ym2612"
    },
    {
      "channel": 2,
      "note": 34,
      "start": 57.0378,
      "duration": 0.0816,
      "velocity": 98,
      "chip": "ym2612"
    },
    {
      "channel": 3,
      "note": 82,
      "start": 57.0381,
      "duration": 0.1814,
      "velocity": 98,
      "chip": "ym2612"
    },
    {
      "channel": 4,
      "note": 68,
      "start": 57.0383,
      "duration": 0.0813,
      "velocity": 86,
      "chip": "ym2612"
    },
    {
      "channel": 0,
      "note": 77,
      "start": 57.1359,
      "duration": 0.0832,
      "velocity": 121,
      "chip": "ym2612"
    },
    {
      "channel": 1,
      "note": 98,
      "start": 57.1362,
      "duration": 0.0832,
      "velocity": 76,
      "chip": "ym2612"
    },
    {
      "channel": 2,
      "note": 86,
      "start": 57.1364,
      "duration": 0.0831,
      "velocity": 98,
      "chip": "ym2612"
    },
    {
      "channel": 4,
      "note": 68,
      "start": 57.1367,
      "duration": 0.0829,
      "velocity": 86,
      "chip": "ym2612"
    },
    {
      "channel": 0,
      "note": 77,
      "start": 57.2362,
      "duration": 0.183,
      "velocity": 121,
      "chip": "ym2612"
    },
    {
      "channel": 1,
      "note": 98,
      "start": 57.2364,
      "duration": 0.1829,
      "velocity": 76,
      "chip": "ym2612"
    },
    {
      "channel": 2,
      "note": 86,
      "start": 57.2379,
      "duration": 0.1815,
      "velocity": 100,
      "chip": "ym2612"
    },
    {
      "channel": 4,
      "note": 68,
      "start": 57.2382,
      "duration": 0.1814,
      "velocity": 86,
      "chip": "ym2612"
    },
    {
      "channel": 5,
      "note": 42,
      "start": 57.2384,
      "duration": 0.3812,
      "velocity": 127,
      "chip": "ym2612"
    },
    {
      "channel": 0,
      "note": 77,
      "start": 57.4359,
      "duration": 0.1832,
      "velocity": 121,
      "chip": "ym2612"
    },
    {
      "channel": 1,
      "note": 98,
      "start": 57.4362,
      "duration": 0.1831,
      "velocity": 76,
      "chip": "ym2612"
    },
    {
      "channel": 2,
      "note": 29,
      "start": 57.4377,
      "duration": 0.1817,
      "velocity": 98,
      "chip": "ym2612"
    },
    {
      "channel": 3,
      "note": 82,
      "start": 57.4379,
      "duration": 0.1816,
      "velocity": 98,
      "chip": "ym2612"
    },
    {
      "channel": 4,
      "note": 68,
      "start": 57.4381,
      "duration": 0.1814,
      "velocity": 86,
      "chip": "ym2612"
    },
    {
      "channel": 0,
      "note": 77,
      "start": 57.638,
      "duration": 0.1811,
      "velocity": 76,
      "chip": "ym2612"
    },
    {
      "channel": 1,
      "note": 98,
      "start": 57.6394,
      "duration": 3.18,
      "velocity": 96,
      "chip": "ym2612"
    },
    {
      "channel": 2,
      "note": 86,
      "start": 57.641,
      "duration": 3.1785,
      "velocity": 96,
      "chip": "ym2612"
    },
    {
      "channel": 3,
      "note": 82,
      "start": 57.6425,
      "duration": 3.1771,
      "velocity": 96,
      "chip": "ym2612"
    },
    {
      "channel": 4,
      "note": 68,
      "start": 57.6439,
      "duration": 3.1757,
      "velocity": 96,
      "chip": "ym2612"
    },
    {
      "channel": 0,
      "note": 59,
      "start": 57.8358,
      "duration": 0.1833,
      "velocity": 76,
      "chip": "ym2612"
    },
    {
      "channel": 0,
      "note": 63,
      "start": 58.0361,
      "duration": 0.1831,
      "velocity": 76,
      "chip": "ym2612"
    },
    {
      "channel": 0,
      "note": 66,
      "start": 58.2357,
      "duration": 0.1833,
      "velocity": 76,
      "chip": "ym2612"
    },
    {
      "channel": 0,
      "note": 70,
      "start": 58.4359,
      "duration": 0.1832,
      "velocity": 76,
      "chip": "ym2612"
    },
    {
      "channel": 0,
      "note": 71,
      "start": 58.6358,
      "duration": 0.1833,
      "velocity": 76,
      "chip": "ym2612"
    },
    {
      "channel": 0,
      "note": 75,
      "start": 58.8357,
      "duration": 0.1833,
      "velocity": 76,
      "chip": "ym2612"
    },
    {
      "channel": 0,
      "note": 78,
      "start": 59.0359,
      "duration": 0.1832,
      "velocity": 76,
      "chip": "ym2612"
    },
    {
      "channel": 0,
      "note": 79,
      "start": 59.2358,
      "duration": 0.1833,
      "velocity": 76,
      "chip": "ym2612"
    },
    {
      "channel": 0,
      "note": 71,
      "start": 59.4358,
      "duration": 0.1833,
      "velocity": 76,
      "chip": "ym2612"
    },
    {
      "channel": 0,
      "note": 75,
      "start": 59.6357,
      "duration": 0.1833,
      "velocity": 76,
      "chip": "ym2612"
    },
    {
      "channel": 0,
      "note": 78,
      "start": 59.8359,
      "duration": 0.1832,
      "velocity": 76,
      "chip": "ym2612"
    },
    {
      "channel": 0,
      "note": 82,
      "start": 60.0358,
      "duration": 0.1833,
      "velocity": 76,
      "chip": "ym2612"
    },
    {
      "channel": 0,
      "note": 83,
      "start": 60.2358,
      "duration": 0.1833,
      "velocity": 76,
      "chip": "ym2612"
    },
    {
      "channel": 0,
      "note": 87,
      "start": 60.4357,
      "duration": 0.1833,
      "velocity": 76,
      "chip": "ym2612"
    },
    {
      "channel": 0,
      "note": 90,
      "start": 60.6357,
      "duration": 0.1834,
      "velocity": 76,
      "chip": "ym2612"
    },
    {
      "channel": 0,
      "note": 91,
      "start": 60.8359,
      "duration": 0.1832,
      "velocity": 76,
      "chip": "ym2612"
    },
    {
      "channel": 1,
      "note": 58,
      "start": 60.8362,
      "duration": 3.183,
      "velocity": 96,
      "chip": "ym2612"
    },
    {
      "channel": 2,
      "note": 54,
      "start": 60.8364,
      "duration": 3.1829,
      "velocity": 96,
      "chip": "ym2612"
    },
    {
      "channel": 3,
      "note": 51,
      "start": 60.8366,
      "duration": 3.1828,
      "velocity": 96,
      "chip": "ym2612"
    },
    {
      "channel": 4,
      "note": 59,
      "start": 60.8368,
      "duration": 3.1827,
      "velocity": 96,
      "chip": "ym2612"
    },
    {
      "channel": 0,
      "note": 58,
      "start": 61.0358,
      "duration": 0.1833,
      "velocity": 76,
      "chip": "ym2612"
    },
    {
      "channel": 0,
      "note": 63,
      "start": 61.2357,
      "duration": 0.1833,
      "velocity": 76,
      "chip": "ym2612"
    },
    {
      "channel": 0,
      "note": 67,
      "start": 61.4358,
      "duration": 0.1833,
      "velocity": 76,
      "chip": "ym2612"
    },
    {
      "channel": 0,
      "note": 70,
      "start": 61.6358,
      "duration": 0.1833,
      "velocity": 76,
      "chip": "ym2612"
    },
    {
      "channel": 0,
      "note": 71,
      "start": 61.8357,
      "duration": 0.1833,
      "velocity": 76,
      "chip": "ym2612"
    },
    {
      "channel": 0,
      "note": 70,
      "start": 62.0359,
      "duration": 0.1833,
      "velocity": 76,
      "chip": "ym2612"
    },
    {
      "channel": 0,
      "note": 67,
      "start": 62.2358,
      "duration": 0.1833,
      "velocity": 76,
      "chip": "ym2612"
    },
    {
      "channel": 0,
      "note": 63,
      "start": 62.4357,
      "duration": 0.1834,
      "velocity": 76,
      "chip": "ym2612"
    },
    {
      "channel": 0,
      "note": 58,
      "start": 62.6357,
      "duration": 0.1833,
      "velocity": 76,
      "chip": "ym2612"
    },
    {
      "channel": 0,
      "note": 63,
      "start": 62.8359,
      "duration": 0.1833,
      "velocity": 76,
      "chip": "ym2612"
    },
    {
      "channel": 0,
      "note": 67,
      "start": 63.0358,
      "duration": 0.1833,
      "velocity": 76,
      "chip": "ym2612"
    },
    {
      "channel": 0,
      "note": 70,
      "start": 63.2358,
      "duration": 0.1833,
      "velocity": 76,
      "chip": "ym2612"
    },
    {
      "channel": 0,
      "note": 71,
      "start": 63.4357,
      "duration": 0.1833,
      "velocity": 76,
      "chip": "ym2612"
    },
    {
      "channel": 0,
      "note": 70,
      "start": 63.6359,
      "duration": 0.1832,
      "velocity": 76,
      "chip": "ym2612"
    },
    {
      "channel": 0,
      "note": 67,
      "start": 63.8358,
      "duration": 0.1832,
      "velocity": 76,
      "chip": "ym2612"
    },
    {
      "channel": 0,
      "note": 63,
      "start": 64.0373,
      "duration": 0.1817,
      "velocity": 76,
      "chip": "ym2612"
    },
    {
      "channel": 1,
      "note": 58,
      "start": 64.0375,
      "duration": 2.3817,
      "velocity": 96,
      "chip": "ym2612"
    },
    {
      "channel": 2,
      "note": 55,
      "start": 64.0377,
      "duration": 3.1816,
      "velocity": 96,
      "chip": "ym2612"
    },
    {
      "channel": 3,
      "note": 46,
      "start": 64.038,
      "duration": 3.1814,
      "velocity": 96,
      "chip": "ym2612"
    },
    {
      "channel": 4,
      "note": 63,
      "start": 64.0395,
      "duration": 3.18,
      "velocity": 121,
      "chip": "ym2612"
    },
    {
      "channel": 0,
      "note": 59,
      "start": 64.2358,
      "duration": 0.1832,
      "velocity": 76,
      "chip": "ym2612"
    },
    {
      "channel": 0,
      "note": 63,
      "start": 64.4357,
      "duration": 0.1833,
      "velocity": 76,
      "chip": "ym2612"
    },
    {
      "channel": 0,
      "note": 66,
      "start": 64.6358,
      "duration": 0.1833,
      "velocity": 76,
      "chip": "ym2612"
    },
    {
      "channel": 0,
      "note": 70,
      "start": 64.8357,
      "duration": 0.1833,
      "velocity": 76,
      "chip": "ym2612"
    },
    {
      "channel": 0,
      "note": 71,
      "start": 65.0358,
      "duration": 0.1833,
      "velocity": 76,
      "chip": "ym2612"
    },
    {
      "channel": 0,
      "note": 75,
      "start": 65.2357,
      "duration": 0.1833,
      "velocity": 76,
      "chip": "ym2612"
    },
    {
      "channel": 0,
      "note": 78,
      "start": 65.4358,
      "duration": 0.1833,
      "velocity": 76,
      "chip": "ym2612"
    },
    {
      "channel": 0,
      "note": 79,
      "start": 65.6357,
      "duration": 0.1833,
      "velocity": 76,
      "chip": "ym2612"
    },
    {
      "channel": 0,
      "note": 71,
      "start": 65.8358,
      "duration": 0.1833,
      "velocity": 76,
      "chip": "ym2612"
    },
    {
      "channel": 0,
      "note": 75,
      "start": 66.0357,
      "duration": 0.1833,
      "velocity": 76,
      "chip": "ym2612"
    },
    {
      "channel": 0,
      "note": 78,
      "start": 66.2358,
      "duration": 0.1833,
      "velocity": 76,
      "chip": "ym2612"
    },
    {
      "channel": 0,
      "note": 82,
      "start": 66.4357,
      "duration": 0.1833,
      "velocity": 76,
      "chip": "ym2612"
    },
    {
      "channel": 1,
      "note": 78,
      "start": 66.436,
      "duration": 0.7832,
      "velocity": 96,
      "chip": "ym2612"
    },
    {
      "channel": 0,
      "note": 83,
      "start": 66.6357,
      "duration": 0.1833,
      "velocity": 76,
      "chip": "ym2612"
    },
    {
      "channel": 0,
      "note": 87,
      "start": 66.8358,
      "duration": 0.1833,
      "velocity": 76,
      "chip": "ym2612"
    },
    {
      "channel": 0,
      "note": 90,
      "start": 67.0357,
      "duration": 0.1833,
      "velocity": 76,
      "chip": "ym2612"
    },
    {
      "channel": 0,
      "note": 91,
      "start": 67.2359,
      "duration": 0.1831,
      "velocity": 76,
      "chip": "ym2612"
    },
    {
      "channel": 1,
      "note": 75,
      "start": 67.2361,
      "duration": 2.7831,
      "velocity": 96,
      "chip": "ym2612"
    },
    {
      "channel": 2,
      "note": 66,
      "start": 67.2364,
      "duration": 3.1829,
      "velocity": 96,
      "chip": "ym2612"
    },
    {
      "channel": 3,
      "note": 59,
      "start": 67.2366,
      "duration": 3.1828,
      "velocity": 96,
      "chip": "ym2612"
    },
    {
      "channel": 4,
      "note": 47,
      "start": 67.2368,
      "duration": 3.1827,
      "velocity": 121,
      "chip": "ym2612"
    },
    {
      "channel": 0,
      "note": 58,
      "start": 67.4358,
      "duration": 0.1833,
      "velocity": 76,
      "chip": "ym2612"
    },
    {
      "channel": 0,
      "note": 63,
      "start": 67.6357,
      "duration": 0.1833,
      "velocity": 76,
      "chip": "ym2612"
    },
    {
      "channel": 0,
      "note": 67,
      "start": 67.8358,
      "duration": 0.1833,
      "velocity": 76,
      "chip": "ym2612"
    },
    {
      "channel": 0,
      "note": 70,
      "start": 68.0357,
      "duration": 0.1833,
      "velocity": 76,
      "chip": "ym2612"
    },
    {
      "channel": 0,
      "note": 71,
      "start": 68.2358,
      "duration": 0.1833,
      "velocity": 76,
      "chip": "ym2612"
    },
    {
      "channel": 0,
      "note": 70,
      "start": 68.4357,
      "duration": 0.1833,
      "velocity": 76,
      "chip": "ym2612"
    },
    {
      "channel": 0,
      "note": 67,
      "start": 68.6357,
      "duration": 0.1833,
      "velocity": 76,
      "chip": "ym2612"
    },
    {
      "channel": 0,
      "note": 63,
      "start": 68.8358,
      "duration": 0.1832,
      "velocity": 76,
      "chip": "ym2612"
    },
    {
      "channel": 0,
      "note": 58,
      "start": 69.0357,
      "duration": 0.1832,
      "velocity": 76,
      "chip": "ym2612"
    },
    {
      "channel": 0,
      "note": 63,
      "start": 69.2357,
      "duration": 0.1833,
      "velocity": 76,
      "chip": "ym2612"
    },
    {
      "channel": 0,
      "note": 67,
      "start": 69.4357,
      "duration": 0.1834,
      "velocity": 76,
      "chip": "ym2612"
    },
    {
      "channel": 0,
      "note": 70,
      "start": 69.6357,
      "duration": 0.1833,
      "velocity": 76,
      "chip": "ym2612"
    },
    {
      "channel": 0,
      "note": 71,
      "start": 69.8357,
      "duration": 0.1833,
      "velocity": 76,
      "chip": "ym2612"
    },
    {
      "channel": 0,
      "note": 70,
      "start": 70.0359,
      "duration": 0.1832,
      "velocity": 76,
      "chip": "ym2612"
    },
    {
      "channel": 1,
      "note": 79,
      "start": 70.0361,
      "duration": 0.3831,
      "velocity": 96,
      "chip": "ym2612"
    },
    {
      "channel": 0,
      "note": 67,
      "start": 70.2357,
      "duration": 0.1833,
      "velocity": 76,
      "chip": "ym2612"
    },
    {
      "channel": 0,
      "note": 63,
      "start": 70.4377,
      "duration": 0.1814,
      "velocity": 76,
      "chip": "ym2612"
    },
    {
      "channel": 1,
      "note": 75,
      "start": 70.4392,
      "duration": 3.18,
      "velocity": 96,
      "chip": "ym2612"
    },
    {
      "channel": 2,
      "note": 70,
      "start": 70.4407,
      "duration": 3.1786,
      "velocity": 96,
      "chip": "ym2612"
    },
    {
      "channel": 3,
      "note": 67,
      "start": 70.4422,
      "duration": 3.1772,
      "velocity": 96,
      "chip": "ym2612"
    },
    {
      "channel": 4,
      "note": 51,
      "start": 70.4437,
      "duration": 3.1758,
      "velocity": 96,
      "chip": "ym2612"
    },
    {
      "channel": 0,
      "note": 59,
      "start": 70.6357,
      "duration": 0.1833,
      "velocity": 76,
      "chip": "ym2612"
    },
    {
      "channel": 0,
      "note": 63,
      "start": 70.8357,
      "duration": 0.1833,
      "velocity": 76,
      "chip": "ym2612"
    },
    {
      "channel": 0,
      "note": 66,
      "start": 71.0358,
      "duration": 0.1833,
      "velocity": 76,
      "chip": "ym2612"
    },
    {
      "channel": 0,
      "note": 70,
      "start": 71.2357,
      "duration": 0.1833,
      "velocity": 76,
      "chip": "ym2612"
    },
    {
      "channel": 0,
      "note": 71,
      "start": 71.4358,
      "duration": 0.1833,
      "velocity": 76,
      "chip": "ym2612"
    },
    {
      "channel": 0,
      "note": 75,
      "start": 71.6357,
      "duration": 0.1833,
      "velocity": 76,
      "chip": "ym2612"
    },
    {
      "channel": 0,
      "note": 78,
      "start": 71.8358,
      "duration": 0.1833,
      "velocity": 76,
      "chip": "ym2612"
    },
    {
      "channel": 0,
      "note": 79,
      "start": 72.0357,
      "duration": 0.1833,
      "velocity": 76,
      "chip": "ym2612"
    },
    {
      "channel": 0,
      "note": 71,
      "start": 72.2358,
      "duration": 0.1833,
      "velocity": 76,
      "chip": "ym2612"
    },
    {
      "channel": 0,
      "note": 75,
      "start": 72.4357,
      "duration": 0.1833,
      "velocity": 76,
      "chip": "ym2612"
    },
    {
      "channel": 0,
      "note": 78,
      "start": 72.6358,
      "duration": 0.1833,
      "velocity": 76,
      "chip": "ym2612"
    },
    {
      "channel": 0,
      "note": 82,
      "start": 72.8357,
      "duration": 0.1833,
      "velocity": 76,
      "chip": "ym2612"
    },
    {
      "channel": 0,
      "note": 83,
      "start": 73.0358,
      "duration": 0.1833,
      "velocity": 76,
      "chip": "ym2612"
    },
    {
      "channel": 0,
      "note": 87,
      "start": 73.2357,
      "duration": 0.1833,
      "velocity": 76,
      "chip": "ym2612"
    },
    {
      "channel": 0,
      "note": 90,
      "start": 73.4358,
      "duration": 0.1833,
      "velocity": 76,
      "chip": "ym2612"
    },
    {
      "channel": 0,
      "note": 91,
      "start": 73.6359,
      "duration": 0.1832,
      "velocity": 76,
      "chip": "ym2612"
    },
    {
      "channel": 1,
      "note": 58,
      "start": 73.6361,
      "duration": 3.1833,
      "velocity": 96,
      "chip": "ym2612"
    },
    {
      "channel": 2,
      "note": 54,
      "start": 73.6363,
      "duration": 3.1831,
      "velocity": 96,
      "chip": "ym2612"
    },
    {
      "channel": 3,
      "note": 51,
      "start": 73.6365,
      "duration": 3.183,
      "velocity": 96,
      "chip": "ym2612"
    },
    {
      "channel": 4,
      "note": 59,
      "start": 73.6368,
      "duration": 3.1828,
      "velocity": 96,
      "chip": "ym2612"
    },
    {
      "channel": 0,
      "note": 58,
      "start": 73.8358,
      "duration": 0.1833,
      "velocity": 76,
      "chip": "ym2612"
    },
    {
      "channel": 0,
      "note": 63,
      "start": 74.0357,
      "duration": 0.1833,
      "velocity": 76,
      "chip": "ym2612"
    },
    {
      "channel": 0,
      "note": 67,
      "start": 74.2358,
      "duration": 0.1833,
      "velocity": 76,
      "chip": "ym2612"
    },
    {
      "channel": 0,
      "note": 70,
      "start": 74.4357,
      "duration": 0.1833,
      "velocity": 76,
      "chip": "ym2612"
    },
    {
      "channel": 0,
      "note": 71,
      "start": 74.6358,
      "duration": 0.1833,
      "velocity": 76,
      "chip": "ym2612"
    },
    {
      "channel": 0,
      "note": 70,
      "start": 74.8357,
      "duration": 0.1833,
      "velocity": 76,
      "chip": "ym2612"
    },
    {
      "channel": 0,
      "note": 67,
      "start": 75.0358,
      "duration": 0.1833,
      "velocity": 76,
      "chip": "ym2612"
    },
    {
      "channel": 0,
      "note": 63,
      "start": 75.2357,
      "duration": 0.1833,
      "velocity": 76,
      "chip": "ym2612"
    },
    {
      "channel": 0,
      "note": 58,
      "start": 75.4358,
      "duration": 0.1833,
      "velocity": 76,
      "chip": "ym2612"
    },
    {
      "channel": 0,
      "note": 63,
      "start": 75.6357,
      "duration": 0.1833,
      "velocity": 76,
      "chip": "ym2612"
    },
    {
      "channel": 0,
      "note": 67,
      "start": 75.8358,
      "duration": 0.1833,
      "velocity": 76,
      "chip": "ym2612"
    },
    {
      "channel": 0,
      "note": 70,
      "start": 76.0357,
      "duration": 0.1833,
      "velocity": 76,
      "chip": "ym2612"
    },
    {
      "channel": 0,
      "note": 71,
      "start": 76.2358,
      "duration": 0.1833,
      "velocity": 76,
      "chip": "ym2612"
    },
    {
      "channel": 0,
      "note": 70,
      "start": 76.4357,
      "duration": 0.1833,
      "velocity": 76,
      "chip": "ym2612"
    },
    {
      "channel": 0,
      "note": 67,
      "start": 76.6357,
      "duration": 0.1835,
      "velocity": 76,
      "chip": "ym2612"
    },
    {
      "channel": 0,
      "note": 63,
      "start": 76.8373,
      "duration": 0.1818,
      "velocity": 76,
      "chip": "ym2612"
    },
    {
      "channel": 1,
      "note": 58,
      "start": 76.8375,
      "duration": 2.3817,
      "velocity": 96,
      "chip": "ym2612"
    },
    {
      "channel": 2,
      "note": 55,
      "start": 76.8377,
      "duration": 3.1815,
      "velocity": 96,
      "chip": "ym2612"
    },
    {
      "channel": 3,
      "note": 46,
      "start": 76.838,
      "duration": 3.1814,
      "velocity": 96,
      "chip": "ym2612"
    },
    {
      "channel": 4,
      "note": 63,
      "start": 76.8395,
      "duration": 3.18,
      "velocity": 121,
      "chip": "ym2612"
    },
    {
      "channel": 0,
      "note": 59,
      "start": 77.0357,
      "duration": 0.1833,
      "velocity": 76,
      "chip": "ym2612"
    },
    {
      "channel": 0,
      "note": 63,
      "start": 77.2358,
      "duration": 0.1833,
      "velocity": 76,
      "chip": "ym2612"
    },
    {
      "channel": 0,
      "note": 66,
      "start": 77.4357,
      "duration": 0.1833,
      "velocity": 76,
      "chip": "ym2612"
    },
    {
      "channel": 0,
      "note": 70,
      "start": 77.6358,
      "duration": 0.1833,
      "velocity": 76,
      "chip": "ym2612"
    },
    {
      "channel": 0,
      "note": 71,
      "start": 77.8357,
      "duration": 0.1833,
      "velocity": 76,
      "chip": "ym2612"
    },
    {
      "channel": 0,
      "note": 75,
      "start": 78.0358,
      "duration": 0.1833,
      "velocity": 76,
      "chip": "ym2612"
    },
    {
      "channel": 0,
      "note": 78,
      "start": 78.2357,
      "duration": 0.1833,
      "velocity": 76,
      "chip": "ym2612"
    },
    {
      "channel": 0,
      "note": 79,
      "start": 78.4358,
      "duration": 0.1833,
      "velocity": 76,
      "chip": "ym2612"
    },
    {
      "channel": 0,
      "note": 71,
      "start": 78.6357,
      "duration": 0.1833,
      "velocity": 76,
      "chip": "ym2612"
    },
    {
      "channel": 0,
      "note": 75,
      "start": 78.8358,
      "duration": 0.1833,
      "velocity": 76,
      "chip": "ym2612"
    },
    {
      "channel": 0,
      "note": 78,
      "start": 79.0357,
      "duration": 0.1833,
      "velocity": 76,
      "chip": "ym2612"
    },
    {
      "channel": 0,
      "note": 82,
      "start": 79.2358,
      "duration": 0.1832,
      "velocity": 76,
      "chip": "ym2612"
    },
    {
      "channel": 1,
      "note": 78,
      "start": 79.2361,
      "duration": 0.7831,
      "velocity": 96,
      "chip": "ym2612"
    },
    {
      "channel": 0,
      "note": 83,
      "start": 79.4358,
      "duration": 0.1833,
      "velocity": 76,
      "chip": "ym2612"
    },
    {
      "channel": 0,
      "note": 87,
      "start": 79.6357,
      "duration": 0.1833,
      "velocity": 76,
      "chip": "ym2612"
    },
    {
      "channel": 0,
      "note": 90,
      "start": 79.8357,
      "duration": 0.1833,
      "velocity": 76,
      "chip": "ym2612"
    },
    {
      "channel": 0,
      "note": 91,
      "start": 80.0359,
      "duration": 0.1832,
      "velocity": 76,
      "chip": "ym2612"
    },
    {
      "channel": 1,
      "note": 75,
      "start": 80.0361,
      "duration": 2.7831,
      "velocity": 96,
      "chip": "ym2612"
    },
    {
      "channel": 2,
      "note": 66,
      "start": 80.0363,
      "duration": 3.183,
      "velocity": 96,
      "chip": "ym2612"
    },
    {
      "channel": 3,
      "note": 59,
      "start": 80.0366,
      "duration": 3.1829,
      "velocity": 96,
      "chip": "ym2612"
    },
    {
      "channel": 4,
      "note": 47,
      "start": 80.0368,
      "duration": 3.1827,
      "velocity": 121,
      "chip": "ym2612"
    },
    {
      "channel": 0,
      "note": 58,
      "start": 80.2358,
      "duration": 0.1833,
      "velocity": 76,
      "chip": "ym2612"
    },
    {
      "channel": 0,
      "note": 63,
      "start": 80.4357,
      "duration": 0.1833,
      "velocity": 76,
      "chip": "ym2612"
    },
    {
      "channel": 0,
      "note": 67,
      "start": 80.6358,
      "duration": 0.1833,
      "velocity": 76,
      "chip": "ym2612"
    },
    {
      "channel": 0,
      "note": 70,
      "start": 80.8357,
      "duration": 0.1833,
      "velocity": 76,
      "chip": "ym2612"
    },
    {
      "channel": 0,
      "note": 71,
      "start": 81.0358,
      "duration": 0.1833,
      "velocity": 76,
      "chip": "ym2612"
    },
    {
      "channel": 0,
      "note": 70,
      "start": 81.2357,
      "duration": 0.1833,
      "velocity": 76,
      "chip": "ym2612"
    },
    {
      "channel": 0,
      "note": 67,
      "start": 81.4358,
      "duration": 0.1833,
      "velocity": 76,
      "chip": "ym2612"
    },
    {
      "channel": 0,
      "note": 63,
      "start": 81.6357,
      "duration": 0.1833,
      "velocity": 76,
      "chip": "ym2612"
    },
    {
      "channel": 0,
      "note": 58,
      "start": 81.8358,
      "duration": 0.1833,
      "velocity": 76,
      "chip": "ym2612"
    },
    {
      "channel": 0,
      "note": 63,
      "start": 82.0357,
      "duration": 0.1833,
      "velocity": 76,
      "chip": "ym2612"
    },
    {
      "channel": 0,
      "note": 67,
      "start": 82.2358,
      "duration": 0.1833,
      "velocity": 76,
      "chip": "ym2612"
    },
    {
      "channel": 0,
      "note": 70,
      "start": 82.4357,
      "duration": 0.1833,
      "velocity": 76,
      "chip": "ym2612"
    },
    {
      "channel": 0,
      "note": 71,
      "start": 82.6358,
      "duration": 0.1833,
      "velocity": 76,
      "chip": "ym2612"
    },
    {
      "channel": 0,
      "note": 70,
      "start": 82.8357,
      "duration": 0.1834,
      "velocity": 76,
      "chip": "ym2612"
    },
    {
      "channel": 1,
      "note": 79,
      "start": 82.836,
      "duration": 0.3833,
      "velocity": 96,
      "chip": "ym2612"
    },
    {
      "channel": 0,
      "note": 67,
      "start": 83.0357,
      "duration": 0.1833,
      "velocity": 76,
      "chip": "ym2612"
    },
    {
      "channel": 2,
      "note": 70,
      "start": 83.2405,
      "duration": 0.1787,
      "velocity": 100,
      "chip": "ym2612"
    },
    {
      "channel": 5,
      "note": 42,
      "start": 83.2448,
      "duration": 0.3747,
      "velocity": 127,
      "chip": "ym2612"
    },
    {
      "channel": 0,
      "note": 63,
      "start": 83.4359,
      "duration": 0.1832,
      "velocity": 121,
      "chip": "ym2612"
    },
    {
      "channel": 2,
      "note": 39,
      "start": 83.4374,
      "duration": 0.1819,
      "velocity": 98,
      "chip": "ym2612"
    },
    {
      "channel": 3,
      "note": 67,
      "start": 83.4376,
      "duration": 0.1817,
      "velocity": 98,
      "chip": "ym2612"
    },
    {
      "channel": 0,
      "note": 75,
      "start": 83.6358,
      "duration": 0.1833,
      "velocity": 121,
      "chip": "ym2612"
    },
    {
      "channel": 2,
      "note": 87,
      "start": 83.6374,
      "duration": 0.1819,
      "velocity": 100,
      "chip": "ym2612"
    },
    {
      "channel": 5,
      "note": 42,
      "start": 83.6377,
      "duration": 0.3819,
      "velocity": 127,
      "chip": "ym2612"
    },
    {
      "channel": 0,
      "note": 78,
      "start": 83.8358,
      "duration": 0.1833,
      "velocity": 121,
      "chip": "ym2612"
    },
    {
      "channel": 2,
      "note": 39,
      "start": 83.8373,
      "duration": 0.182,
      "velocity": 98,
      "chip": "ym2612"
    },
    {
      "channel": 3,
      "note": 78,
      "start": 83.8375,
      "duration": 0.1819,
      "velocity": 98,
      "chip": "ym2612"
    }
  ]
}