{
  "track_name": "01 - The Fighter Called Emergency to Base",
  "duration_sec": 38.674,
  "sample_rate": 44100,
  "note_count": 1448,
  "unique_pitches": 18,
  "pitch_range": 54,
  "avg_note_duration": 0.1293,
  "reconstruction_stats": {
    "notes_reconstructed": 1448,
    "keyon_events": 1448,
    "keyoff_events": 1444,
    "orphan_keyons": 4,
    "unique_pitches": 18,
    "pitch_range": 54,
    "avg_duration_sec": 0.1293
  },
  "metadata": {
    "source": "H\\Herzog Zwei\\01 - The Fighter Called Emergency to Base.vgz"
  },
  "notes": [
    {
      "channel": 0,
      "note": 78,
      "start": 0.0,
      "duration": 0.0803,
      "velocity": 107,
      "chip": "ym2612"
    },
    {
      "channel": 2,
      "note": 64,
      "start": 0.0018,
      "duration": 0.128,
      "velocity": 107,
      "chip": "ym2612"
    },
    {
      "channel": 3,
      "note": 37,
      "start": 0.004,
      "duration": 0.2742,
      "velocity": 127,
      "chip": "ym2612"
    },
    {
      "channel": 4,
      "note": 72,
      "start": 0.0056,
      "duration": 0.2728,
      "velocity": 107,
      "chip": "ym2612"
    },
    {
      "channel": 1,
      "note": 78,
      "start": 0.0571,
      "duration": 0.0726,
      "velocity": 107,
      "chip": "ym2612"
    },
    {
      "channel": 0,
      "note": 79,
      "start": 0.1063,
      "duration": 0.0729,
      "velocity": 107,
      "chip": "ym2612"
    },
    {
      "channel": 1,
      "note": 79,
      "start": 0.1557,
      "duration": 0.0727,
      "velocity": 107,
      "chip": "ym2612"
    },
    {
      "channel": 2,
      "note": 64,
      "start": 0.1574,
      "duration": 0.1206,
      "velocity": 107,
      "chip": "ym2612"
    },
    {
      "channel": 5,
      "note": 72,
      "start": 0.1593,
      "duration": 0.2688,
      "velocity": 107,
      "chip": "ym2612"
    },
    {
      "channel": 0,
      "note": 76,
      "start": 0.2049,
      "duration": 0.0727,
      "velocity": 107,
      "chip": "ym2612"
    },
    {
      "channel": 1,
      "note": 76,
      "start": 0.2544,
      "duration": 0.0727,
      "velocity": 107,
      "chip": "ym2612"
    },
    {
      "channel": 0,
      "note": 78,
      "start": 0.3077,
      "duration": 0.0687,
      "velocity": 107,
      "chip": "ym2612"
    },
    {
      "channel": 2,
      "note": 64,
      "start": 0.3094,
      "duration": 0.1178,
      "velocity": 107,
      "chip": "ym2612"
    },
    {
      "channel": 3,
      "note": 37,
      "start": 0.3114,
      "duration": 0.1028,
      "velocity": 127,
      "chip": "ym2612"
    },
    {
      "channel": 4,
      "note": 71,
      "start": 0.313,
      "duration": 0.1148,
      "velocity": 107,
      "chip": "ym2612"
    },
    {
      "channel": 1,
      "note": 78,
      "start": 0.3569,
      "duration": 0.07,
      "velocity": 107,
      "chip": "ym2612"
    },
    {
      "channel": 0,
      "note": 79,
      "start": 0.4024,
      "duration": 0.0727,
      "velocity": 107,
      "chip": "ym2612"
    },
    {
      "channel": 1,
      "note": 79,
      "start": 0.4519,
      "duration": 0.0727,
      "velocity": 107,
      "chip": "ym2612"
    },
    {
      "channel": 2,
      "note": 64,
      "start": 0.4535,
      "duration": 0.1206,
      "velocity": 107,
      "chip": "ym2612"
    },
    {
      "channel": 3,
      "note": 37,
      "start": 0.4554,
      "duration": 0.1064,
      "velocity": 127,
      "chip": "ym2612"
    },
    {
      "channel": 4,
      "note": 72,
      "start": 0.457,
      "duration": 0.4139,
      "velocity": 107,
      "chip": "ym2612"
    },
    {
      "channel": 5,
      "note": 71,
      "start": 0.4586,
      "duration": 0.1163,
      "velocity": 107,
      "chip": "ym2612"
    },
    {
      "channel": 0,
      "note": 76,
      "start": 0.5011,
      "duration": 0.0727,
      "velocity": 107,
      "chip": "ym2612"
    },
    {
      "channel": 1,
      "note": 76,
      "start": 0.5505,
      "duration": 0.0728,
      "velocity": 107,
      "chip": "ym2612"
    },
    {
      "channel": 0,
      "note": 78,
      "start": 0.6038,
      "duration": 0.0687,
      "velocity": 107,
      "chip": "ym2612"
    },
    {
      "channel": 2,
      "note": 64,
      "start": 0.6055,
      "duration": 0.1167,
      "velocity": 107,
      "chip": "ym2612"
    },
    {
      "channel": 3,
      "note": 44,
      "start": 0.6074,
      "duration": 0.2632,
      "velocity": 127,
      "chip": "ym2612"
    },
    {
      "channel": 5,
      "note": 72,
      "start": 0.6092,
      "duration": 0.4099,
      "velocity": 107,
      "chip": "ym2612"
    },
    {
      "channel": 1,
      "note": 78,
      "start": 0.6537,
      "duration": 0.0683,
      "velocity": 107,
      "chip": "ym2612"
    },
    {
      "channel": 0,
      "note": 79,
      "start": 0.6985,
      "duration": 0.0727,
      "velocity": 107,
      "chip": "ym2612"
    },
    {
      "channel": 1,
      "note": 79,
      "start": 0.748,
      "duration": 0.0727,
      "velocity": 107,
      "chip": "ym2612"
    },
    {
      "channel": 2,
      "note": 76,
      "start": 0.7496,
      "duration": 0.1207,
      "velocity": 107,
      "chip": "ym2612"
    },
    {
      "channel": 0,
      "note": 76,
      "start": 0.7973,
      "duration": 0.0728,
      "velocity": 107,
      "chip": "ym2612"
    },
    {
      "channel": 1,
      "note": 76,
      "start": 0.8467,
      "duration": 0.0727,
      "velocity": 107,
      "chip": "ym2612"
    },
    {
      "channel": 0,
      "note": 78,
      "start": 0.8999,
      "duration": 0.0688,
      "velocity": 107,
      "chip": "ym2612"
    },
    {
      "channel": 2,
      "note": 64,
      "start": 0.9016,
      "duration": 0.1167,
      "velocity": 107,
      "chip": "ym2612"
    },
    {
      "channel": 3,
      "note": 37,
      "start": 0.9037,
      "duration": 0.1024,
      "velocity": 127,
      "chip": "ym2612"
    },
    {
      "channel": 4,
      "note": 72,
      "start": 0.9053,
      "duration": 0.2615,
      "velocity": 107,
      "chip": "ym2612"
    },
    {
      "channel": 1,
      "note": 78,
      "start": 0.9492,
      "duration": 0.069,
      "velocity": 107,
      "chip": "ym2612"
    },
    {
      "channel": 0,
      "note": 79,
      "start": 0.9947,
      "duration": 0.0727,
      "velocity": 107,
      "chip": "ym2612"
    },
    {
      "channel": 1,
      "note": 79,
      "start": 1.0441,
      "duration": 0.0737,
      "velocity": 107,
      "chip": "ym2612"
    },
    {
      "channel": 2,
      "note": 64,
      "start": 1.0457,
      "duration": 0.1207,
      "velocity": 107,
      "chip": "ym2612"
    },
    {
      "channel": 3,
      "note": 37,
      "start": 1.0478,
      "duration": 0.267,
      "velocity": 127,
      "chip": "ym2612"
    },
    {
      "channel": 5,
      "note": 72,
      "start": 1.0494,
      "duration": 0.2657,
      "velocity": 107,
      "chip": "ym2612"
    },
    {
      "channel": 0,
      "note": 76,
      "start": 1.0934,
      "duration": 0.0727,
      "velocity": 107,
      "chip": "ym2612"
    },
    {
      "channel": 1,
      "note": 76,
      "start": 1.1429,
      "duration": 0.0726,
      "velocity": 107,
      "chip": "ym2612"
    },
    {
      "channel": 0,
      "note": 78,
      "start": 1.1961,
      "duration": 0.0687,
      "velocity": 107,
      "chip": "ym2612"
    },
    {
      "channel": 2,
      "note": 64,
      "start": 1.1978,
      "duration": 0.1167,
      "velocity": 107,
      "chip": "ym2612"
    },
    {
      "channel": 4,
      "note": 71,
      "start": 1.1995,
      "duration": 0.1154,
      "velocity": 107,
      "chip": "ym2612"
    },
    {
      "channel": 1,
      "note": 78,
      "start": 1.2454,
      "duration": 0.0688,
      "velocity": 107,
      "chip": "ym2612"
    },
    {
      "channel": 0,
      "note": 79,
      "start": 1.2908,
      "duration": 0.0727,
      "velocity": 107,
      "chip": "ym2612"
    },
    {
      "channel": 1,
      "note": 79,
      "start": 1.3407,
      "duration": 0.0722,
      "velocity": 107,
      "chip": "ym2612"
    },
    {
      "channel": 2,
      "note": 64,
      "start": 1.3424,
      "duration": 0.1201,
      "velocity": 107,
      "chip": "ym2612"
    },
    {
      "channel": 3,
      "note": 37,
      "start": 1.3444,
      "duration": 0.1059,
      "velocity": 127,
      "chip": "ym2612"
    },
    {
      "channel": 4,
      "note": 72,
      "start": 1.346,
      "duration": 1.0057,
      "velocity": 107,
      "chip": "ym2612"
    },
    {
      "channel": 5,
      "note": 71,
      "start": 1.3476,
      "duration": 0.1158,
      "velocity": 107,
      "chip": "ym2612"
    },
    {
      "channel": 0,
      "note": 76,
      "start": 1.3895,
      "duration": 0.0727,
      "velocity": 107,
      "chip": "ym2612"
    },
    {
      "channel": 1,
      "note": 76,
      "start": 1.439,
      "duration": 0.0727,
      "velocity": 107,
      "chip": "ym2612"
    },
    {
      "channel": 0,
      "note": 78,
      "start": 1.4922,
      "duration": 0.0688,
      "velocity": 107,
      "chip": "ym2612"
    },
    {
      "channel": 2,
      "note": 64,
      "start": 1.4939,
      "duration": 0.1167,
      "velocity": 107,
      "chip": "ym2612"
    },
    {
      "channel": 3,
      "note": 37,
      "start": 1.496,
      "duration": 0.1024,
      "velocity": 127,
      "chip": "ym2612"
    },
    {
      "channel": 5,
      "note": 72,
      "start": 1.4976,
      "duration": 1.0026,
      "velocity": 107,
      "chip": "ym2612"
    },
    {
      "channel": 1,
      "note": 78,
      "start": 1.5415,
      "duration": 0.069,
      "velocity": 107,
      "chip": "ym2612"
    },
    {
      "channel": 0,
      "note": 79,
      "start": 1.5869,
      "duration": 0.0727,
      "velocity": 107,
      "chip": "ym2612"
    },
    {
      "channel": 1,
      "note": 79,
      "start": 1.6364,
      "duration": 0.0727,
      "velocity": 107,
      "chip": "ym2612"
    },
    {
      "channel": 2,
      "note": 64,
      "start": 1.638,
      "duration": 0.1207,
      "velocity": 107,
      "chip": "ym2612"
    },
    {
      "channel": 3,
      "note": 37,
      "start": 1.64,
      "duration": 0.1064,
      "velocity": 127,
      "chip": "ym2612"
    },
    {
      "channel": 0,
      "note": 76,
      "start": 1.6857,
      "duration": 0.0727,
      "velocity": 107,
      "chip": "ym2612"
    },
    {
      "channel": 1,
      "note": 76,
      "start": 1.7352,
      "duration": 0.0735,
      "velocity": 107,
      "chip": "ym2612"
    },
    {
      "channel": 0,
      "note": 78,
      "start": 1.7883,
      "duration": 0.0688,
      "velocity": 107,
      "chip": "ym2612"
    },
    {
      "channel": 2,
      "note": 64,
      "start": 1.7901,
      "duration": 0.1168,
      "velocity": 107,
      "chip": "ym2612"
    },
    {
      "channel": 3,
      "note": 41,
      "start": 1.792,
      "duration": 0.2136,
      "velocity": 127,
      "chip": "ym2612"
    },
    {
      "channel": 1,
      "note": 78,
      "start": 1.8376,
      "duration": 0.0691,
      "velocity": 107,
      "chip": "ym2612"
    },
    {
      "channel": 0,
      "note": 79,
      "start": 1.8831,
      "duration": 0.0727,
      "velocity": 107,
      "chip": "ym2612"
    },
    {
      "channel": 1,
      "note": 79,
      "start": 1.9325,
      "duration": 0.0727,
      "velocity": 107,
      "chip": "ym2612"
    },
    {
      "channel": 2,
      "note": 74,
      "start": 1.9342,
      "duration": 0.1206,
      "velocity": 107,
      "chip": "ym2612"
    },
    {
      "channel": 0,
      "note": 76,
      "start": 1.9818,
      "duration": 0.0727,
      "velocity": 107,
      "chip": "ym2612"
    },
    {
      "channel": 1,
      "note": 76,
      "start": 2.0316,
      "duration": 0.0724,
      "velocity": 107,
      "chip": "ym2612"
    },
    {
      "channel": 0,
      "note": 78,
      "start": 2.0845,
      "duration": 0.0688,
      "velocity": 107,
      "chip": "ym2612"
    },
    {
      "channel": 2,
      "note": 64,
      "start": 2.0862,
      "duration": 0.1167,
      "velocity": 107,
      "chip": "ym2612"
    },
    {
      "channel": 3,
      "note": 37,
      "start": 2.0881,
      "duration": 0.1025,
      "velocity": 127,
      "chip": "ym2612"
    },
    {
      "channel": 1,
      "note": 78,
      "start": 2.1338,
      "duration": 0.0689,
      "velocity": 107,
      "chip": "ym2612"
    },
    {
      "channel": 0,
      "note": 79,
      "start": 2.1793,
      "duration": 0.0727,
      "velocity": 107,
      "chip": "ym2612"
    },
    {
      "channel": 1,
      "note": 79,
      "start": 2.2287,
      "duration": 0.0727,
      "velocity": 107,
      "chip": "ym2612"
    },
    {
      "channel": 2,
      "note": 64,
      "start": 2.2303,
      "duration": 0.1206,
      "velocity": 107,
      "chip": "ym2612"
    },
    {
      "channel": 3,
      "note": 37,
      "start": 2.2323,
      "duration": 0.1064,
      "velocity": 127,
      "chip": "ym2612"
    },
    {
      "channel": 0,
      "note": 76,
      "start": 2.278,
      "duration": 0.0727,
      "velocity": 107,
      "chip": "ym2612"
    },
    {
      "channel": 1,
      "note": 76,
      "start": 2.3274,
      "duration": 0.0727,
      "velocity": 107,
      "chip": "ym2612"
    },
    {
      "channel": 0,
      "note": 78,
      "start": 2.3806,
      "duration": 0.0687,
      "velocity": 107,
      "chip": "ym2612"
    },
    {
      "channel": 2,
      "note": 64,
      "start": 2.3824,
      "duration": 0.1174,
      "velocity": 107,
      "chip": "ym2612"
    },
    {
      "channel": 3,
      "note": 37,
      "start": 2.3845,
      "duration": 0.2629,
      "velocity": 127,
      "chip": "ym2612"
    },
    {
      "channel": 4,
      "note": 73,
      "start": 2.3861,
      "duration": 0.2615,
      "velocity": 107,
      "chip": "ym2612"
    },
    {
      "channel": 1,
      "note": 78,
      "start": 2.4299,
      "duration": 0.0697,
      "velocity": 107,
      "chip": "ym2612"
    },
    {
      "channel": 0,
      "note": 79,
      "start": 2.4754,
      "duration": 0.0727,
      "velocity": 107,
      "chip": "ym2612"
    },
    {
      "channel": 1,
      "note": 79,
      "start": 2.5249,
      "duration": 0.0727,
      "velocity": 107,
      "chip": "ym2612"
    },
    {
      "channel": 2,
      "note": 64,
      "start": 2.5265,
      "duration": 0.1206,
      "velocity": 107,
      "chip": "ym2612"
    },
    {
      "channel": 5,
      "note": 73,
      "start": 2.5283,
      "duration": 0.2677,
      "velocity": 107,
      "chip": "ym2612"
    },
    {
      "channel": 0,
      "note": 76,
      "start": 2.5741,
      "duration": 0.0727,
      "velocity": 107,
      "chip": "ym2612"
    },
    {
      "channel": 1,
      "note": 76,
      "start": 2.6235,
      "duration": 0.0727,
      "velocity": 107,
      "chip": "ym2612"
    },
    {
      "channel": 0,
      "note": 78,
      "start": 2.6768,
      "duration": 0.0686,
      "velocity": 107,
      "chip": "ym2612"
    },
    {
      "channel": 2,
      "note": 64,
      "start": 2.6785,
      "duration": 0.1166,
      "velocity": 107,
      "chip": "ym2612"
    },
    {
      "channel": 3,
      "note": 37,
      "start": 2.6805,
      "duration": 0.1024,
      "velocity": 127,
      "chip": "ym2612"
    },
    {
      "channel": 4,
      "note": 72,
      "start": 2.6821,
      "duration": 0.1137,
      "velocity": 107,
      "chip": "ym2612"
    },
    {
      "channel": 1,
      "note": 78,
      "start": 2.7263,
      "duration": 0.0686,
      "velocity": 107,
      "chip": "ym2612"
    },
    {
      "channel": 0,
      "note": 79,
      "start": 2.7715,
      "duration": 0.0727,
      "velocity": 107,
      "chip": "ym2612"
    },
    {
      "channel": 1,
      "note": 79,
      "start": 2.821,
      "duration": 0.0727,
      "velocity": 107,
      "chip": "ym2612"
    },
    {
      "channel": 2,
      "note": 64,
      "start": 2.8226,
      "duration": 0.1207,
      "velocity": 107,
      "chip": "ym2612"
    },
    {
      "channel": 3,
      "note": 37,
      "start": 2.8245,
      "duration": 0.1065,
      "velocity": 127,
      "chip": "ym2612"
    },
    {
      "channel": 4,
      "note": 73,
      "start": 2.8262,
      "duration": 0.4136,
      "velocity": 107,
      "chip": "ym2612"
    },
    {
      "channel": 5,
      "note": 72,
      "start": 2.8278,
      "duration": 0.1163,
      "velocity": 107,
      "chip": "ym2612"
    },
    {
      "channel": 0,
      "note": 76,
      "start": 2.8702,
      "duration": 0.0727,
      "velocity": 107,
      "chip": "ym2612"
    },
    {
      "channel": 1,
      "note": 76,
      "start": 2.9197,
      "duration": 0.0727,
      "velocity": 107,
      "chip": "ym2612"
    },
    {
      "channel": 0,
      "note": 78,
      "start": 2.974,
      "duration": 0.0677,
      "velocity": 107,
      "chip": "ym2612"
    },
    {
      "channel": 2,
      "note": 64,
      "start": 2.9757,
      "duration": 0.1156,
      "velocity": 107,
      "chip": "ym2612"
    },
    {
      "channel": 3,
      "note": 44,
      "start": 2.9777,
      "duration": 0.2619,
      "velocity": 127,
      "chip": "ym2612"
    },
    {
      "channel": 5,
      "note": 73,
      "start": 2.9794,
      "duration": 0.4088,
      "velocity": 107,
      "chip": "ym2612"
    },
    {
      "channel": 1,
      "note": 78,
      "start": 3.0222,
      "duration": 0.0689,
      "velocity": 107,
      "chip": "ym2612"
    },
    {
      "channel": 0,
      "note": 79,
      "start": 3.0677,
      "duration": 0.0727,
      "velocity": 107,
      "chip": "ym2612"
    },
    {
      "channel": 1,
      "note": 79,
      "start": 3.1171,
      "duration": 0.0734,
      "velocity": 107,
      "chip": "ym2612"
    },
    {
      "channel": 2,
      "note": 76,
      "start": 3.1188,
      "duration": 0.1206,
      "velocity": 107,
      "chip": "ym2612"
    },
    {
      "channel": 0,
      "note": 76,
      "start": 3.1664,
      "duration": 0.0727,
      "velocity": 107,
      "chip": "ym2612"
    },
    {
      "channel": 1,
      "note": 76,
      "start": 3.2158,
      "duration": 0.0727,
      "velocity": 107,
      "chip": "ym2612"
    },
    {
      "channel": 0,
      "note": 78,
      "start": 3.269,
      "duration": 0.0688,
      "velocity": 107,
      "chip": "ym2612"
    },
    {
      "channel": 2,
      "note": 64,
      "start": 3.2707,
      "duration": 0.1167,
      "velocity": 107,
      "chip": "ym2612"
    },
    {
      "channel": 3,
      "note": 37,
      "start": 3.2727,
      "duration": 0.1024,
      "velocity": 127,
      "chip": "ym2612"
    },
    {
      "channel": 4,
      "note": 73,
      "start": 3.2744,
      "duration": 0.2615,
      "velocity": 107,
      "chip": "ym2612"
    },
    {
      "channel": 1,
      "note": 78,
      "start": 3.3183,
      "duration": 0.069,
      "velocity": 107,
      "chip": "ym2612"
    },
    {
      "channel": 0,
      "note": 79,
      "start": 3.3638,
      "duration": 0.0727,
      "velocity": 107,
      "chip": "ym2612"
    },
    {
      "channel": 1,
      "note": 79,
      "start": 3.4133,
      "duration": 0.0726,
      "velocity": 107,
      "chip": "ym2612"
    },
    {
      "channel": 2,
      "note": 64,
      "start": 3.4149,
      "duration": 0.1206,
      "velocity": 107,
      "chip": "ym2612"
    },
    {
      "channel": 3,
      "note": 37,
      "start": 3.417,
      "duration": 0.2669,
      "velocity": 127,
      "chip": "ym2612"
    },
    {
      "channel": 5,
      "note": 73,
      "start": 3.4186,
      "duration": 0.2656,
      "velocity": 107,
      "chip": "ym2612"
    },
    {
      "channel": 0,
      "note": 76,
      "start": 3.4625,
      "duration": 0.0727,
      "velocity": 107,
      "chip": "ym2612"
    },
    {
      "channel": 1,
      "note": 76,
      "start": 3.512,
      "duration": 0.0727,
      "velocity": 107,
      "chip": "ym2612"
    },
    {
      "channel": 0,
      "note": 78,
      "start": 3.5652,
      "duration": 0.0687,
      "velocity": 107,
      "chip": "ym2612"
    },
    {
      "channel": 2,
      "note": 64,
      "start": 3.5669,
      "duration": 0.1167,
      "velocity": 107,
      "chip": "ym2612"
    },
    {
      "channel": 4,
      "note": 72,
      "start": 3.5685,
      "duration": 0.1155,
      "velocity": 107,
      "chip": "ym2612"
    },
    {
      "channel": 1,
      "note": 78,
      "start": 3.6144,
      "duration": 0.069,
      "velocity": 107,
      "chip": "ym2612"
    },
    {
      "channel": 0,
      "note": 79,
      "start": 3.661,
      "duration": 0.0716,
      "velocity": 107,
      "chip": "ym2612"
    },
    {
      "channel": 1,
      "note": 79,
      "start": 3.7095,
      "duration": 0.0727,
      "velocity": 107,
      "chip": "ym2612"
    },
    {
      "channel": 2,
      "note": 64,
      "start": 3.711,
      "duration": 0.1206,
      "velocity": 107,
      "chip": "ym2612"
    },
    {
      "channel": 3,
      "note": 37,
      "start": 3.713,
      "duration": 0.1064,
      "velocity": 127,
      "chip": "ym2612"
    },
    {
      "channel": 4,
      "note": 73,
      "start": 3.7146,
      "duration": 1.0062,
      "velocity": 107,
      "chip": "ym2612"
    },
    {
      "channel": 5,
      "note": 72,
      "start": 3.7162,
      "duration": 0.1162,
      "velocity": 107,
      "chip": "ym2612"
    },
    {
      "channel": 0,
      "note": 76,
      "start": 3.7586,
      "duration": 0.0727,
      "velocity": 107,
      "chip": "ym2612"
    },
    {
      "channel": 1,
      "note": 76,
      "start": 3.8081,
      "duration": 0.0732,
      "velocity": 107,
      "chip": "ym2612"
    },
    {
      "channel": 0,
      "note": 78,
      "start": 3.8614,
      "duration": 0.0687,
      "velocity": 107,
      "chip": "ym2612"
    },
    {
      "channel": 2,
      "note": 64,
      "start": 3.8631,
      "duration": 0.1167,
      "velocity": 107,
      "chip": "ym2612"
    },
    {
      "channel": 3,
      "note": 37,
      "start": 3.8651,
      "duration": 0.1024,
      "velocity": 127,
      "chip": "ym2612"
    },
    {
      "channel": 5,
      "note": 73,
      "start": 3.8668,
      "duration": 1.0141,
      "velocity": 107,
      "chip": "ym2612"
    },
    {
      "channel": 1,
      "note": 78,
      "start": 3.9106,
      "duration": 0.0689,
      "velocity": 107,
      "chip": "ym2612"
    },
    {
      "channel": 0,
      "note": 79,
      "start": 3.9561,
      "duration": 0.0727,
      "velocity": 107,
      "chip": "ym2612"
    },
    {
      "channel": 1,
      "note": 79,
      "start": 4.0055,
      "duration": 0.0727,
      "velocity": 107,
      "chip": "ym2612"
    },
    {
      "channel": 2,
      "note": 64,
      "start": 4.0072,
      "duration": 0.1206,
      "velocity": 107,
      "chip": "ym2612"
    },
    {
      "channel": 3,
      "note": 37,
      "start": 4.0091,
      "duration": 0.1071,
      "velocity": 127,
      "chip": "ym2612"
    },
    {
      "channel": 0,
      "note": 76,
      "start": 4.0548,
      "duration": 0.0727,
      "velocity": 107,
      "chip": "ym2612"
    },
    {
      "channel": 1,
      "note": 76,
      "start": 4.1042,
      "duration": 0.0727,
      "velocity": 107,
      "chip": "ym2612"
    },
    {
      "channel": 0,
      "note": 78,
      "start": 4.1575,
      "duration": 0.0687,
      "velocity": 107,
      "chip": "ym2612"
    },
    {
      "channel": 2,
      "note": 64,
      "start": 4.1592,
      "duration": 0.1167,
      "velocity": 107,
      "chip": "ym2612"
    },
    {
      "channel": 3,
      "note": 41,
      "start": 4.1612,
      "duration": 0.2135,
      "velocity": 127,
      "chip": "ym2612"
    },
    {
      "channel": 1,
      "note": 78,
      "start": 4.2067,
      "duration": 0.069,
      "velocity": 107,
      "chip": "ym2612"
    },
    {
      "channel": 0,
      "note": 79,
      "start": 4.2522,
      "duration": 0.0727,
      "velocity": 107,
      "chip": "ym2612"
    },
    {
      "channel": 1,
      "note": 79,
      "start": 4.3017,
      "duration": 0.0727,
      "velocity": 107,
      "chip": "ym2612"
    },
    {
      "channel": 2,
      "note": 77,
      "start": 4.3033,
      "duration": 0.1207,
      "velocity": 107,
      "chip": "ym2612"
    },
    {
      "channel": 0,
      "note": 76,
      "start": 4.3518,
      "duration": 0.0719,
      "velocity": 107,
      "chip": "ym2612"
    },
    {
      "channel": 1,
      "note": 76,
      "start": 4.4004,
      "duration": 0.0727,
      "velocity": 107,
      "chip": "ym2612"
    },
    {
      "channel": 0,
      "note": 78,
      "start": 4.4536,
      "duration": 0.0687,
      "velocity": 107,
      "chip": "ym2612"
    },
    {
      "channel": 2,
      "note": 64,
      "start": 4.4553,
      "duration": 0.117,
      "velocity": 107,
      "chip": "ym2612"
    },
    {
      "channel": 3,
      "note": 37,
      "start": 4.4573,
      "duration": 0.1025,
      "velocity": 127,
      "chip": "ym2612"
    },
    {
      "channel": 1,
      "note": 78,
      "start": 4.5028,
      "duration": 0.0693,
      "velocity": 107,
      "chip": "ym2612"
    },
    {
      "channel": 0,
      "note": 79,
      "start": 4.5483,
      "duration": 0.0727,
      "velocity": 107,
      "chip": "ym2612"
    },
    {
      "channel": 1,
      "note": 79,
      "start": 4.5978,
      "duration": 0.0727,
      "velocity": 107,
      "chip": "ym2612"
    },
    {
      "channel": 2,
      "note": 64,
      "start": 4.5994,
      "duration": 0.1207,
      "velocity": 107,
      "chip": "ym2612"
    },
    {
      "channel": 3,
      "note": 37,
      "start": 4.6014,
      "duration": 0.1065,
      "velocity": 127,
      "chip": "ym2612"
    },
    {
      "channel": 0,
      "note": 76,
      "start": 4.6471,
      "duration": 0.0727,
      "velocity": 107,
      "chip": "ym2612"
    },
    {
      "channel": 1,
      "note": 76,
      "start": 4.6966,
      "duration": 0.085,
      "velocity": 107,
      "chip": "ym2612"
    },
    {
      "channel": 0,
      "note": 78,
      "start": 4.7497,
      "duration": 0.081,
      "velocity": 107,
      "chip": "ym2612"
    },
    {
      "channel": 2,
      "note": 64,
      "start": 4.7555,
      "duration": 0.1249,
      "velocity": 107,
      "chip": "ym2612"
    },
    {
      "channel": 3,
      "note": 37,
      "start": 4.7576,
      "duration": 0.2712,
      "velocity": 127,
      "chip": "ym2612"
    },
    {
      "channel": 4,
      "note": 72,
      "start": 4.7595,
      "duration": 0.2695,
      "velocity": 107,
      "chip": "ym2612"
    },
    {
      "channel": 1,
      "note": 78,
      "start": 4.812,
      "duration": 0.0683,
      "velocity": 107,
      "chip": "ym2612"
    },
    {
      "channel": 0,
      "note": 79,
      "start": 4.8568,
      "duration": 0.0727,
      "velocity": 107,
      "chip": "ym2612"
    },
    {
      "channel": 1,
      "note": 79,
      "start": 4.9063,
      "duration": 0.0727,
      "velocity": 107,
      "chip": "ym2612"
    },
    {
      "channel": 2,
      "note": 64,
      "start": 4.908,
      "duration": 0.1205,
      "velocity": 107,
      "chip": "ym2612"
    },
    {
      "channel": 5,
      "note": 72,
      "start": 4.9102,
      "duration": 0.2674,
      "velocity": 107,
      "chip": "ym2612"
    },
    {
      "channel": 0,
      "note": 76,
      "start": 4.9555,
      "duration": 0.0728,
      "velocity": 107,
      "chip": "ym2612"
    },
    {
      "channel": 1,
      "note": 76,
      "start": 5.005,
      "duration": 0.0727,
      "velocity": 107,
      "chip": "ym2612"
    },
    {
      "channel": 0,
      "note": 78,
      "start": 5.0582,
      "duration": 0.0688,
      "velocity": 107,
      "chip": "ym2612"
    },
    {
      "channel": 2,
      "note": 64,
      "start": 5.06,
      "duration": 0.1167,
      "velocity": 107,
      "chip": "ym2612"
    },
    {
      "channel": 3,
      "note": 37,
      "start": 5.062,
      "duration": 0.1024,
      "velocity": 127,
      "chip": "ym2612"
    },
    {
      "channel": 4,
      "note": 71,
      "start": 5.0635,
      "duration": 0.1138,
      "velocity": 107,
      "chip": "ym2612"
    },
    {
      "channel": 1,
      "note": 78,
      "start": 5.1075,
      "duration": 0.0689,
      "velocity": 107,
      "chip": "ym2612"
    },
    {
      "channel": 0,
      "note": 79,
      "start": 5.153,
      "duration": 0.0728,
      "velocity": 107,
      "chip": "ym2612"
    },
    {
      "channel": 1,
      "note": 79,
      "start": 5.2025,
      "duration": 0.0736,
      "velocity": 107,
      "chip": "ym2612"
    },
    {
      "channel": 2,
      "note": 64,
      "start": 5.2041,
      "duration": 0.1206,
      "velocity": 107,
      "chip": "ym2612"
    },
    {
      "channel": 3,
      "note": 37,
      "start": 5.206,
      "duration": 0.1064,
      "velocity": 127,
      "chip": "ym2612"
    },
    {
      "channel": 4,
      "note": 72,
      "start": 5.2076,
      "duration": 0.4137,
      "velocity": 107,
      "chip": "ym2612"
    },
    {
      "channel": 5,
      "note": 71,
      "start": 5.2092,
      "duration": 0.1163,
      "velocity": 107,
      "chip": "ym2612"
    },
    {
      "channel": 0,
      "note": 76,
      "start": 5.2517,
      "duration": 0.0727,
      "velocity": 107,
      "chip": "ym2612"
    },
    {
      "channel": 1,
      "note": 76,
      "start": 5.3011,
      "duration": 0.0727,
      "velocity": 107,
      "chip": "ym2612"
    },
    {
      "channel": 0,
      "note": 78,
      "start": 5.3544,
      "duration": 0.0687,
      "velocity": 107,
      "chip": "ym2612"
    },
    {
      "channel": 2,
      "note": 64,
      "start": 5.3561,
      "duration": 0.1167,
      "velocity": 107,
      "chip": "ym2612"
    },
    {
      "channel": 3,
      "note": 44,
      "start": 5.358,
      "duration": 0.2631,
      "velocity": 127,
      "chip": "ym2612"
    },
    {
      "channel": 5,
      "note": 72,
      "start": 5.3598,
      "duration": 0.4099,
      "velocity": 107,
      "chip": "ym2612"
    },
    {
      "channel": 1,
      "note": 78,
      "start": 5.4036,
      "duration": 0.069,
      "velocity": 107,
      "chip": "ym2612"
    },
    {
      "channel": 0,
      "note": 79,
      "start": 5.4491,
      "duration": 0.0727,
      "velocity": 107,
      "chip": "ym2612"
    },
    {
      "channel": 1,
      "note": 79,
      "start": 5.499,
      "duration": 0.0723,
      "velocity": 107,
      "chip": "ym2612"
    },
    {
      "channel": 2,
      "note": 76,
      "start": 5.5005,
      "duration": 0.1202,
      "velocity": 107,
      "chip": "ym2612"
    },
    {
      "channel": 0,
      "note": 76,
      "start": 5.5478,
      "duration": 0.0727,
      "velocity": 107,
      "chip": "ym2612"
    },
    {
      "channel": 1,
      "note": 76,
      "start": 5.5973,
      "duration": 0.0727,
      "velocity": 107,
      "chip": "ym2612"
    },
    {
      "channel": 0,
      "note": 78,
      "start": 5.6505,
      "duration": 0.0687,
      "velocity": 107,
      "chip": "ym2612"
    },
    {
      "channel": 2,
      "note": 64,
      "start": 5.6522,
      "duration": 0.1167,
      "velocity": 107,
      "chip": "ym2612"
    },
    {
      "channel": 3,
      "note": 37,
      "start": 5.6542,
      "duration": 0.1026,
      "velocity": 127,
      "chip": "ym2612"
    },
    {
      "channel": 4,
      "note": 72,
      "start": 5.6558,
      "duration": 0.2615,
      "velocity": 107,
      "chip": "ym2612"
    },
    {
      "channel": 1,
      "note": 78,
      "start": 5.6997,
      "duration": 0.069,
      "velocity": 107,
      "chip": "ym2612"
    },
    {
      "channel": 0,
      "note": 79,
      "start": 5.7453,
      "duration": 0.0726,
      "velocity": 107,
      "chip": "ym2612"
    },
    {
      "channel": 1,
      "note": 79,
      "start": 5.7947,
      "duration": 0.0727,
      "velocity": 107,
      "chip": "ym2612"
    },
    {
      "channel": 2,
      "note": 64,
      "start": 5.7963,
      "duration": 0.1207,
      "velocity": 107,
      "chip": "ym2612"
    },
    {
      "channel": 3,
      "note": 37,
      "start": 5.7983,
      "duration": 0.267,
      "velocity": 127,
      "chip": "ym2612"
    },
    {
      "channel": 5,
      "note": 72,
      "start": 5.8,
      "duration": 0.2657,
      "velocity": 107,
      "chip": "ym2612"
    },
    {
      "channel": 0,
      "note": 76,
      "start": 5.8439,
      "duration": 0.0727,
      "velocity": 107,
      "chip": "ym2612"
    },
    {
      "channel": 1,
      "note": 76,
      "start": 5.8934,
      "duration": 0.0735,
      "velocity": 107,
      "chip": "ym2612"
    },
    {
      "channel": 0,
      "note": 78,
      "start": 5.9467,
      "duration": 0.0687,
      "velocity": 107,
      "chip": "ym2612"
    },
    {
      "channel": 2,
      "note": 64,
      "start": 5.9484,
      "duration": 0.1167,
      "velocity": 107,
      "chip": "ym2612"
    },
    {
      "channel": 4,
      "note": 71,
      "start": 5.9501,
      "duration": 0.1154,
      "velocity": 107,
      "chip": "ym2612"
    },
    {
      "channel": 1,
      "note": 78,
      "start": 5.9959,
      "duration": 0.069,
      "velocity": 107,
      "chip": "ym2612"
    },
    {
      "channel": 0,
      "note": 79,
      "start": 6.0414,
      "duration": 0.0727,
      "velocity": 107,
      "chip": "ym2612"
    },
    {
      "channel": 1,
      "note": 79,
      "start": 6.0908,
      "duration": 0.0727,
      "velocity": 107,
      "chip": "ym2612"
    },
    {
      "channel": 2,
      "note": 64,
      "start": 6.0925,
      "duration": 0.1206,
      "velocity": 107,
      "chip": "ym2612"
    },
    {
      "channel": 3,
      "note": 37,
      "start": 6.0945,
      "duration": 0.1073,
      "velocity": 127,
      "chip": "ym2612"
    },
    {
      "channel": 4,
      "note": 72,
      "start": 6.0961,
      "duration": 1.0061,
      "velocity": 107,
      "chip": "ym2612"
    },
    {
      "channel": 5,
      "note": 71,
      "start": 6.0977,
      "duration": 0.1162,
      "velocity": 107,
      "chip": "ym2612"
    },
    {
      "channel": 0,
      "note": 76,
      "start": 6.1401,
      "duration": 0.0727,
      "velocity": 107,
      "chip": "ym2612"
    },
    {
      "channel": 1,
      "note": 76,
      "start": 6.1898,
      "duration": 0.0725,
      "velocity": 107,
      "chip": "ym2612"
    },
    {
      "channel": 0,
      "note": 78,
      "start": 6.2428,
      "duration": 0.0687,
      "velocity": 107,
      "chip": "ym2612"
    },
    {
      "channel": 2,
      "note": 64,
      "start": 6.2445,
      "duration": 0.1167,
      "velocity": 107,
      "chip": "ym2612"
    },
    {
      "channel": 3,
      "note": 37,
      "start": 6.2466,
      "duration": 0.1024,
      "velocity": 127,
      "chip": "ym2612"
    },
    {
      "channel": 5,
      "note": 72,
      "start": 6.2482,
      "duration": 1.0141,
      "velocity": 107,
      "chip": "ym2612"
    },
    {
      "channel": 1,
      "note": 78,
      "start": 6.292,
      "duration": 0.069,
      "velocity": 107,
      "chip": "ym2612"
    },
    {
      "channel": 0,
      "note": 79,
      "start": 6.3375,
      "duration": 0.0727,
      "velocity": 107,
      "chip": "ym2612"
    },
    {
      "channel": 1,
      "note": 79,
      "start": 6.3869,
      "duration": 0.0728,
      "velocity": 107,
      "chip": "ym2612"
    },
    {
      "channel": 2,
      "note": 64,
      "start": 6.3886,
      "duration": 0.1207,
      "velocity": 107,
      "chip": "ym2612"
    },
    {
      "channel": 3,
      "note": 37,
      "start": 6.3906,
      "duration": 0.1064,
      "velocity": 127,
      "chip": "ym2612"
    },
    {
      "channel": 0,
      "note": 76,
      "start": 6.4362,
      "duration": 0.0727,
      "velocity": 107,
      "chip": "ym2612"
    },
    {
      "channel": 1,
      "note": 76,
      "start": 6.4857,
      "duration": 0.0727,
      "velocity": 107,
      "chip": "ym2612"
    },
    {
      "channel": 0,
      "note": 78,
      "start": 6.5389,
      "duration": 0.0687,
      "velocity": 107,
      "chip": "ym2612"
    },
    {
      "channel": 2,
      "note": 64,
      "start": 6.5406,
      "duration": 0.1173,
      "velocity": 107,
      "chip": "ym2612"
    },
    {
      "channel": 3,
      "note": 41,
      "start": 6.5427,
      "duration": 0.2135,
      "velocity": 127,
      "chip": "ym2612"
    },
    {
      "channel": 1,
      "note": 78,
      "start": 6.5881,
      "duration": 0.0696,
      "velocity": 107,
      "chip": "ym2612"
    },
    {
      "channel": 0,
      "note": 79,
      "start": 6.6337,
      "duration": 0.0727,
      "velocity": 107,
      "chip": "ym2612"
    },
    {
      "channel": 1,
      "note": 79,
      "start": 6.6831,
      "duration": 0.0727,
      "velocity": 107,
      "chip": "ym2612"
    },
    {
      "channel": 2,
      "note": 74,
      "start": 6.6847,
      "duration": 0.1207,
      "velocity": 107,
      "chip": "ym2612"
    },
    {
      "channel": 0,
      "note": 76,
      "start": 6.7324,
      "duration": 0.0727,
      "velocity": 107,
      "chip": "ym2612"
    },
    {
      "channel": 1,
      "note": 76,
      "start": 6.7819,
      "duration": 0.0727,
      "velocity": 107,
      "chip": "ym2612"
    },
    {
      "channel": 0,
      "note": 78,
      "start": 6.835,
      "duration": 0.0688,
      "velocity": 107,
      "chip": "ym2612"
    },
    {
      "channel": 2,
      "note": 64,
      "start": 6.8368,
      "duration": 0.1167,
      "velocity": 107,
      "chip": "ym2612"
    },
    {
      "channel": 3,
      "note": 37,
      "start": 6.8388,
      "duration": 0.1024,
      "velocity": 127,
      "chip": "ym2612"
    },
    {
      "channel": 1,
      "note": 78,
      "start": 6.8844,
      "duration": 0.0688,
      "velocity": 107,
      "chip": "ym2612"
    },
    {
      "channel": 0,
      "note": 79,
      "start": 6.9298,
      "duration": 0.0727,
      "velocity": 107,
      "chip": "ym2612"
    },
    {
      "channel": 1,
      "note": 79,
      "start": 6.9793,
      "duration": 0.0727,
      "velocity": 107,
      "chip": "ym2612"
    },
    {
      "channel": 2,
      "note": 64,
      "start": 6.9809,
      "duration": 0.1206,
      "velocity": 107,
      "chip": "ym2612"
    },
    {
      "channel": 3,
      "note": 37,
      "start": 6.9829,
      "duration": 0.1064,
      "velocity": 127,
      "chip": "ym2612"
    },
    {
      "channel": 0,
      "note": 76,
      "start": 7.0285,
      "duration": 0.0727,
      "velocity": 107,
      "chip": "ym2612"
    },
    {
      "channel": 1,
      "note": 76,
      "start": 7.078,
      "duration": 0.085,
      "velocity": 107,
      "chip": "ym2612"
    },
    {
      "channel": 0,
      "note": 78,
      "start": 7.1322,
      "duration": 0.0801,
      "velocity": 107,
      "chip": "ym2612"
    },
    {
      "channel": 2,
      "note": 64,
      "start": 7.1339,
      "duration": 0.1281,
      "velocity": 107,
      "chip": "ym2612"
    },
    {
      "channel": 3,
      "note": 37,
      "start": 7.1361,
      "duration": 0.2742,
      "velocity": 127,
      "chip": "ym2612"
    },
    {
      "channel": 4,
      "note": 75,
      "start": 7.1376,
      "duration": 0.2728,
      "velocity": 107,
      "chip": "ym2612"
    },
    {
      "channel": 1,
      "note": 78,
      "start": 7.1929,
      "duration": 0.0689,
      "velocity": 107,
      "chip": "ym2612"
    },
    {
      "channel": 0,
      "note": 79,
      "start": 7.2383,
      "duration": 0.0727,
      "velocity": 107,
      "chip": "ym2612"
    },
    {
      "channel": 1,
      "note": 79,
      "start": 7.2878,
      "duration": 0.0726,
      "velocity": 107,
      "chip": "ym2612"
    },
    {
      "channel": 2,
      "note": 64,
      "start": 7.2894,
      "duration": 0.1206,
      "velocity": 107,
      "chip": "ym2612"
    },
    {
      "channel": 5,
      "note": 75,
      "start": 7.2912,
      "duration": 0.2678,
      "velocity": 107,
      "chip": "ym2612"
    },
    {
      "channel": 0,
      "note": 76,
      "start": 7.337,
      "duration": 0.0727,
      "velocity": 107,
      "chip": "ym2612"
    },
    {
      "channel": 1,
      "note": 76,
      "start": 7.3864,
      "duration": 0.0728,
      "velocity": 107,
      "chip": "ym2612"
    },
    {
      "channel": 0,
      "note": 78,
      "start": 7.4397,
      "duration": 0.0687,
      "velocity": 107,
      "chip": "ym2612"
    },
    {
      "channel": 2,
      "note": 64,
      "start": 7.4415,
      "duration": 0.1166,
      "velocity": 107,
      "chip": "ym2612"
    },
    {
      "channel": 3,
      "note": 37,
      "start": 7.4435,
      "duration": 0.1024,
      "velocity": 127,
      "chip": "ym2612"
    },
    {
      "channel": 4,
      "note": 74,
      "start": 7.4451,
      "duration": 0.1137,
      "velocity": 107,
      "chip": "ym2612"
    },
    {
      "channel": 1,
      "note": 78,
      "start": 7.4889,
      "duration": 0.069,
      "velocity": 107,
      "chip": "ym2612"
    },
    {
      "channel": 0,
      "note": 79,
      "start": 7.5345,
      "duration": 0.0726,
      "velocity": 107,
      "chip": "ym2612"
    },
    {
      "channel": 1,
      "note": 79,
      "start": 7.5846,
      "duration": 0.0721,
      "velocity": 107,
      "chip": "ym2612"
    },
    {
      "channel": 2,
      "note": 64,
      "start": 7.5862,
      "duration": 0.12,
      "velocity": 107,
      "chip": "ym2612"
    },
    {
      "channel": 3,
      "note": 37,
      "start": 7.5881,
      "duration": 0.1057,
      "velocity": 127,
      "chip": "ym2612"
    },
    {
      "channel": 4,
      "note": 75,
      "start": 7.5897,
      "duration": 0.413,
      "velocity": 107,
      "chip": "ym2612"
    },
    {
      "channel": 5,
      "note": 74,
      "start": 7.5913,
      "duration": 0.1156,
      "velocity": 107,
      "chip": "ym2612"
    },
    {
      "channel": 0,
      "note": 76,
      "start": 7.6331,
      "duration": 0.0727,
      "velocity": 107,
      "chip": "ym2612"
    },
    {
      "channel": 1,
      "note": 76,
      "start": 7.6826,
      "duration": 0.0727,
      "velocity": 107,
      "chip": "ym2612"
    },
    {
      "channel": 0,
      "note": 78,
      "start": 7.7358,
      "duration": 0.069,
      "velocity": 107,
      "chip": "ym2612"
    },
    {
      "channel": 2,
      "note": 64,
      "start": 7.7375,
      "duration": 0.1167,
      "velocity": 107,
      "chip": "ym2612"
    },
    {
      "channel": 3,
      "note": 44,
      "start": 7.7395,
      "duration": 0.263,
      "velocity": 127,
      "chip": "ym2612"
    },
    {
      "channel": 5,
      "note": 75,
      "start": 7.7412,
      "duration": 0.4099,
      "velocity": 107,
      "chip": "ym2612"
    },
    {
      "channel": 1,
      "note": 78,
      "start": 7.7851,
      "duration": 0.0689,
      "velocity": 107,
      "chip": "ym2612"
    },
    {
      "channel": 0,
      "note": 79,
      "start": 7.8306,
      "duration": 0.0727,
      "velocity": 107,
      "chip": "ym2612"
    },
    {
      "channel": 1,
      "note": 79,
      "start": 7.88,
      "duration": 0.0727,
      "velocity": 107,
      "chip": "ym2612"
    },
    {
      "channel": 2,
      "note": 76,
      "start": 7.8817,
      "duration": 0.1206,
      "velocity": 107,
      "chip": "ym2612"
    },
    {
      "channel": 0,
      "note": 76,
      "start": 7.9293,
      "duration": 0.0727,
      "velocity": 107,
      "chip": "ym2612"
    },
    {
      "channel": 1,
      "note": 76,
      "start": 7.9787,
      "duration": 0.0738,
      "velocity": 107,
      "chip": "ym2612"
    },
    {
      "channel": 0,
      "note": 78,
      "start": 8.032,
      "duration": 0.0687,
      "velocity": 107,
      "chip": "ym2612"
    },
    {
      "channel": 2,
      "note": 64,
      "start": 8.0337,
      "duration": 0.1167,
      "velocity": 107,
      "chip": "ym2612"
    },
    {
      "channel": 3,
      "note": 37,
      "start": 8.0357,
      "duration": 0.1024,
      "velocity": 127,
      "chip": "ym2612"
    },
    {
      "channel": 4,
      "note": 75,
      "start": 8.0373,
      "duration": 0.2618,
      "velocity": 107,
      "chip": "ym2612"
    },
    {
      "channel": 1,
      "note": 78,
      "start": 8.0812,
      "duration": 0.0689,
      "velocity": 107,
      "chip": "ym2612"
    },
    {
      "channel": 0,
      "note": 79,
      "start": 8.1268,
      "duration": 0.0727,
      "velocity": 107,
      "chip": "ym2612"
    },
    {
      "channel": 1,
      "note": 79,
      "start": 8.1762,
      "duration": 0.0727,
      "velocity": 107,
      "chip": "ym2612"
    },
    {
      "channel": 2,
      "note": 64,
      "start": 8.1778,
      "duration": 0.1205,
      "velocity": 107,
      "chip": "ym2612"
    },
    {
      "channel": 3,
      "note": 37,
      "start": 8.1798,
      "duration": 0.1063,
      "velocity": 127,
      "chip": "ym2612"
    },
    {
      "channel": 5,
      "note": 75,
      "start": 8.1815,
      "duration": 0.2659,
      "velocity": 107,
      "chip": "ym2612"
    },
    {
      "channel": 0,
      "note": 76,
      "start": 8.2254,
      "duration": 0.0727,
      "velocity": 107,
      "chip": "ym2612"
    },
    {
      "channel": 1,
      "note": 76,
      "start": 8.2754,
      "duration": 0.0722,
      "velocity": 107,
      "chip": "ym2612"
    },
    {
      "channel": 0,
      "note": 78,
      "start": 8.3282,
      "duration": 0.0686,
      "velocity": 107,
      "chip": "ym2612"
    },
    {
      "channel": 2,
      "note": 64,
      "start": 8.3299,
      "duration": 0.1166,
      "velocity": 107,
      "chip": "ym2612"
    },
    {
      "channel": 3,
      "note": 37,
      "start": 8.332,
      "duration": 0.1023,
      "velocity": 127,
      "chip": "ym2612"
    },
    {
      "channel": 4,
      "note": 74,
      "start": 8.3336,
      "duration": 0.1136,
      "velocity": 107,
      "chip": "ym2612"
    },
    {
      "channel": 1,
      "note": 78,
      "start": 8.3774,
      "duration": 0.0689,
      "velocity": 107,
      "chip": "ym2612"
    },
    {
      "channel": 0,
      "note": 79,
      "start": 8.4228,
      "duration": 0.0728,
      "velocity": 107,
      "chip": "ym2612"
    },
    {
      "channel": 1,
      "note": 79,
      "start": 8.4723,
      "duration": 0.0727,
      "velocity": 107,
      "chip": "ym2612"
    },
    {
      "channel": 2,
      "note": 64,
      "start": 8.4739,
      "duration": 0.1207,
      "velocity": 107,
      "chip": "ym2612"
    },
    {
      "channel": 3,
      "note": 37,
      "start": 8.4759,
      "duration": 0.1063,
      "velocity": 127,
      "chip": "ym2612"
    },
    {
      "channel": 4,
      "note": 75,
      "start": 8.4775,
      "duration": 1.0062,
      "velocity": 107,
      "chip": "ym2612"
    },
    {
      "channel": 5,
      "note": 74,
      "start": 8.4791,
      "duration": 0.1162,
      "velocity": 107,
      "chip": "ym2612"
    },
    {
      "channel": 0,
      "note": 76,
      "start": 8.5215,
      "duration": 0.0727,
      "velocity": 107,
      "chip": "ym2612"
    },
    {
      "channel": 1,
      "note": 76,
      "start": 8.571,
      "duration": 0.0726,
      "velocity": 107,
      "chip": "ym2612"
    },
    {
      "channel": 0,
      "note": 78,
      "start": 8.6242,
      "duration": 0.0688,
      "velocity": 107,
      "chip": "ym2612"
    },
    {
      "channel": 2,
      "note": 64,
      "start": 8.626,
      "duration": 0.1176,
      "velocity": 107,
      "chip": "ym2612"
    },
    {
      "channel": 3,
      "note": 37,
      "start": 8.628,
      "duration": 0.1027,
      "velocity": 127,
      "chip": "ym2612"
    },
    {
      "channel": 5,
      "note": 75,
      "start": 8.6296,
      "duration": 1.0142,
      "velocity": 107,
      "chip": "ym2612"
    },
    {
      "channel": 1,
      "note": 78,
      "start": 8.6735,
      "duration": 0.0699,
      "velocity": 107,
      "chip": "ym2612"
    },
    {
      "channel": 0,
      "note": 79,
      "start": 8.719,
      "duration": 0.0727,
      "velocity": 107,
      "chip": "ym2612"
    },
    {
      "channel": 1,
      "note": 79,
      "start": 8.7684,
      "duration": 0.0727,
      "velocity": 107,
      "chip": "ym2612"
    },
    {
      "channel": 2,
      "note": 64,
      "start": 8.77,
      "duration": 0.1207,
      "velocity": 107,
      "chip": "ym2612"
    },
    {
      "channel": 3,
      "note": 37,
      "start": 8.772,
      "duration": 0.1065,
      "velocity": 127,
      "chip": "ym2612"
    },
    {
      "channel": 0,
      "note": 76,
      "start": 8.8177,
      "duration": 0.0727,
      "velocity": 107,
      "chip": "ym2612"
    },
    {
      "channel": 1,
      "note": 76,
      "start": 8.8672,
      "duration": 0.0727,
      "velocity": 107,
      "chip": "ym2612"
    },
    {
      "channel": 0,
      "note": 78,
      "start": 8.9203,
      "duration": 0.0688,
      "velocity": 107,
      "chip": "ym2612"
    },
    {
      "channel": 2,
      "note": 64,
      "start": 8.9221,
      "duration": 0.1167,
      "velocity": 107,
      "chip": "ym2612"
    },
    {
      "channel": 3,
      "note": 37,
      "start": 8.9242,
      "duration": 0.1023,
      "velocity": 127,
      "chip": "ym2612"
    },
    {
      "channel": 1,
      "note": 78,
      "start": 8.9701,
      "duration": 0.0684,
      "velocity": 107,
      "chip": "ym2612"
    },
    {
      "channel": 0,
      "note": 79,
      "start": 9.0151,
      "duration": 0.0727,
      "velocity": 107,
      "chip": "ym2612"
    },
    {
      "channel": 1,
      "note": 79,
      "start": 9.0646,
      "duration": 0.0727,
      "velocity": 107,
      "chip": "ym2612"
    },
    {
      "channel": 2,
      "note": 77,
      "start": 9.0662,
      "duration": 0.1206,
      "velocity": 107,
      "chip": "ym2612"
    },
    {
      "channel": 3,
      "note": 37,
      "start": 9.0682,
      "duration": 0.1064,
      "velocity": 127,
      "chip": "ym2612"
    },
    {
      "channel": 0,
      "note": 76,
      "start": 9.1139,
      "duration": 0.0726,
      "velocity": 107,
      "chip": "ym2612"
    },
    {
      "channel": 1,
      "note": 76,
      "start": 9.1633,
      "duration": 0.0727,
      "velocity": 107,
      "chip": "ym2612"
    },
    {
      "channel": 0,
      "note": 78,
      "start": 9.2165,
      "duration": 0.0688,
      "velocity": 107,
      "chip": "ym2612"
    },
    {
      "channel": 2,
      "note": 64,
      "start": 9.2182,
      "duration": 0.1167,
      "velocity": 107,
      "chip": "ym2612"
    },
    {
      "channel": 3,
      "note": 37,
      "start": 9.2202,
      "duration": 0.1025,
      "velocity": 127,
      "chip": "ym2612"
    },
    {
      "channel": 1,
      "note": 78,
      "start": 9.2658,
      "duration": 0.069,
      "velocity": 107,
      "chip": "ym2612"
    },
    {
      "channel": 0,
      "note": 79,
      "start": 9.3112,
      "duration": 0.0727,
      "velocity": 107,
      "chip": "ym2612"
    },
    {
      "channel": 1,
      "note": 79,
      "start": 9.3607,
      "duration": 0.0735,
      "velocity": 107,
      "chip": "ym2612"
    },
    {
      "channel": 2,
      "note": 64,
      "start": 9.3623,
      "duration": 0.1207,
      "velocity": 107,
      "chip": "ym2612"
    },
    {
      "channel": 3,
      "note": 37,
      "start": 9.3643,
      "duration": 0.1064,
      "velocity": 127,
      "chip": "ym2612"
    },
    {
      "channel": 0,
      "note": 76,
      "start": 9.41,
      "duration": 0.0727,
      "velocity": 107,
      "chip": "ym2612"
    },
    {
      "channel": 1,
      "note": 76,
      "start": 9.4595,
      "duration": 0.085,
      "velocity": 107,
      "chip": "ym2612"
    },
    {
      "channel": 0,
      "note": 78,
      "start": 9.5127,
      "duration": 0.081,
      "velocity": 107,
      "chip": "ym2612"
    },
    {
      "channel": 2,
      "note": 64,
      "start": 9.5185,
      "duration": 0.1249,
      "velocity": 107,
      "chip": "ym2612"
    },
    {
      "channel": 3,
      "note": 37,
      "start": 9.521,
      "duration": 0.2707,
      "velocity": 127,
      "chip": "ym2612"
    },
    {
      "channel": 4,
      "note": 84,
      "start": 9.523,
      "duration": 0.269,
      "velocity": 107,
      "chip": "ym2612"
    },
    {
      "channel": 1,
      "note": 78,
      "start": 9.5743,
      "duration": 0.0689,
      "velocity": 107,
      "chip": "ym2612"
    },
    {
      "channel": 0,
      "note": 79,
      "start": 9.6198,
      "duration": 0.0727,
      "velocity": 107,
      "chip": "ym2612"
    },
    {
      "channel": 1,
      "note": 79,
      "start": 9.6703,
      "duration": 0.0716,
      "velocity": 107,
      "chip": "ym2612"
    },
    {
      "channel": 2,
      "note": 64,
      "start": 9.672,
      "duration": 0.1195,
      "velocity": 107,
      "chip": "ym2612"
    },
    {
      "channel": 5,
      "note": 84,
      "start": 9.6742,
      "duration": 0.2662,
      "velocity": 107,
      "chip": "ym2612"
    },
    {
      "channel": 0,
      "note": 76,
      "start": 9.7184,
      "duration": 0.0727,
      "velocity": 107,
      "chip": "ym2612"
    },
    {
      "channel": 1,
      "note": 76,
      "start": 9.7679,
      "duration": 0.0727,
      "velocity": 107,
      "chip": "ym2612"
    },
    {
      "channel": 0,
      "note": 78,
      "start": 9.8211,
      "duration": 0.0693,
      "velocity": 107,
      "chip": "ym2612"
    },
    {
      "channel": 2,
      "note": 64,
      "start": 9.8228,
      "duration": 0.1167,
      "velocity": 107,
      "chip": "ym2612"
    },
    {
      "channel": 3,
      "note": 37,
      "start": 9.8248,
      "duration": 0.1025,
      "velocity": 127,
      "chip": "ym2612"
    },
    {
      "channel": 4,
      "note": 83,
      "start": 9.8264,
      "duration": 0.1137,
      "velocity": 107,
      "chip": "ym2612"
    },
    {
      "channel": 1,
      "note": 78,
      "start": 9.8704,
      "duration": 0.0689,
      "velocity": 107,
      "chip": "ym2612"
    },
    {
      "channel": 0,
      "note": 79,
      "start": 9.9159,
      "duration": 0.0727,
      "velocity": 107,
      "chip": "ym2612"
    },
    {
      "channel": 1,
      "note": 79,
      "start": 9.9654,
      "duration": 0.0727,
      "velocity": 107,
      "chip": "ym2612"
    },
    {
      "channel": 2,
      "note": 64,
      "start": 9.967,
      "duration": 0.1206,
      "velocity": 107,
      "chip": "ym2612"
    },
    {
      "channel": 3,
      "note": 37,
      "start": 9.9689,
      "duration": 0.1064,
      "velocity": 127,
      "chip": "ym2612"
    },
    {
      "channel": 4,
      "note": 84,
      "start": 9.9705,
      "duration": 0.4137,
      "velocity": 107,
      "chip": "ym2612"
    },
    {
      "channel": 5,
      "note": 83,
      "start": 9.9721,
      "duration": 0.1163,
      "velocity": 107,
      "chip": "ym2612"
    },
    {
      "channel": 0,
      "note": 76,
      "start": 10.0146,
      "duration": 0.0727,
      "velocity": 107,
      "chip": "ym2612"
    },
    {
      "channel": 1,
      "note": 76,
      "start": 10.064,
      "duration": 0.0727,
      "velocity": 107,
      "chip": "ym2612"
    },
    {
      "channel": 0,
      "note": 78,
      "start": 10.1173,
      "duration": 0.0687,
      "velocity": 107,
      "chip": "ym2612"
    },
    {
      "channel": 2,
      "note": 64,
      "start": 10.119,
      "duration": 0.1167,
      "velocity": 107,
      "chip": "ym2612"
    },
    {
      "channel": 3,
      "note": 44,
      "start": 10.121,
      "duration": 0.263,
      "velocity": 127,
      "chip": "ym2612"
    },
    {
      "channel": 5,
      "note": 84,
      "start": 10.1227,
      "duration": 0.4099,
      "velocity": 107,
      "chip": "ym2612"
    },
    {
      "channel": 1,
      "note": 78,
      "start": 10.1665,
      "duration": 0.069,
      "velocity": 107,
      "chip": "ym2612"
    },
    {
      "channel": 0,
      "note": 79,
      "start": 10.212,
      "duration": 0.0727,
      "velocity": 107,
      "chip": "ym2612"
    },
    {
      "channel": 1,
      "note": 79,
      "start": 10.2615,
      "duration": 0.0727,
      "velocity": 107,
      "chip": "ym2612"
    },
    {
      "channel": 2,
      "note": 76,
      "start": 10.2631,
      "duration": 0.1207,
      "velocity": 107,
      "chip": "ym2612"
    },
    {
      "channel": 0,
      "note": 76,
      "start": 10.3107,
      "duration": 0.0727,
      "velocity": 107,
      "chip": "ym2612"
    },
    {
      "channel": 1,
      "note": 76,
      "start": 10.3611,
      "duration": 0.0718,
      "velocity": 107,
      "chip": "ym2612"
    },
    {
      "channel": 0,
      "note": 78,
      "start": 10.4134,
      "duration": 0.0688,
      "velocity": 107,
      "chip": "ym2612"
    },
    {
      "channel": 2,
      "note": 64,
      "start": 10.4151,
      "duration": 0.1167,
      "velocity": 107,
      "chip": "ym2612"
    },
    {
      "channel": 3,
      "note": 37,
      "start": 10.4172,
      "duration": 0.1024,
      "velocity": 127,
      "chip": "ym2612"
    },
    {
      "channel": 4,
      "note": 84,
      "start": 10.4188,
      "duration": 0.2618,
      "velocity": 107,
      "chip": "ym2612"
    },
    {
      "channel": 1,
      "note": 78,
      "start": 10.4627,
      "duration": 0.0689,
      "velocity": 107,
      "chip": "ym2612"
    },
    {
      "channel": 0,
      "note": 79,
      "start": 10.5082,
      "duration": 0.073,
      "velocity": 107,
      "chip": "ym2612"
    },
    {
      "channel": 1,
      "note": 79,
      "start": 10.5576,
      "duration": 0.0727,
      "velocity": 107,
      "chip": "ym2612"
    },
    {
      "channel": 2,
      "note": 64,
      "start": 10.5593,
      "duration": 0.1206,
      "velocity": 107,
      "chip": "ym2612"
    },
    {
      "channel": 3,
      "note": 37,
      "start": 10.5612,
      "duration": 0.1063,
      "velocity": 127,
      "chip": "ym2612"
    },
    {
      "channel": 5,
      "note": 84,
      "start": 10.5629,
      "duration": 0.2659,
      "velocity": 107,
      "chip": "ym2612"
    },
    {
      "channel": 0,
      "note": 76,
      "start": 10.6068,
      "duration": 0.0727,
      "velocity": 107,
      "chip": "ym2612"
    },
    {
      "channel": 1,
      "note": 76,
      "start": 10.6563,
      "duration": 0.0726,
      "velocity": 107,
      "chip": "ym2612"
    },
    {
      "channel": 0,
      "note": 78,
      "start": 10.7096,
      "duration": 0.0687,
      "velocity": 107,
      "chip": "ym2612"
    },
    {
      "channel": 2,
      "note": 64,
      "start": 10.7113,
      "duration": 0.1167,
      "velocity": 107,
      "chip": "ym2612"
    },
    {
      "channel": 3,
      "note": 37,
      "start": 10.7133,
      "duration": 0.103,
      "velocity": 127,
      "chip": "ym2612"
    },
    {
      "channel": 4,
      "note": 83,
      "start": 10.7149,
      "duration": 0.1138,
      "velocity": 107,
      "chip": "ym2612"
    },
    {
      "channel": 1,
      "note": 78,
      "start": 10.7588,
      "duration": 0.0689,
      "velocity": 107,
      "chip": "ym2612"
    },
    {
      "channel": 0,
      "note": 79,
      "start": 10.8043,
      "duration": 0.0727,
      "velocity": 107,
      "chip": "ym2612"
    },
    {
      "channel": 1,
      "note": 79,
      "start": 10.8537,
      "duration": 0.0727,
      "velocity": 107,
      "chip": "ym2612"
    },
    {
      "channel": 2,
      "note": 64,
      "start": 10.8554,
      "duration": 0.1206,
      "velocity": 107,
      "chip": "ym2612"
    },
    {
      "channel": 3,
      "note": 37,
      "start": 10.8574,
      "duration": 0.1064,
      "velocity": 127,
      "chip": "ym2612"
    },
    {
      "channel": 4,
      "note": 84,
      "start": 10.859,
      "duration": 1.0061,
      "velocity": 107,
      "chip": "ym2612"
    },
    {
      "channel": 5,
      "note": 83,
      "start": 10.8606,
      "duration": 0.1162,
      "velocity": 107,
      "chip": "ym2612"
    },
    {
      "channel": 0,
      "note": 76,
      "start": 10.903,
      "duration": 0.0727,
      "velocity": 107,
      "chip": "ym2612"
    },
    {
      "channel": 1,
      "note": 76,
      "start": 10.9525,
      "duration": 0.0727,
      "velocity": 107,
      "chip": "ym2612"
    },
    {
      "channel": 0,
      "note": 78,
      "start": 11.0057,
      "duration": 0.0687,
      "velocity": 107,
      "chip": "ym2612"
    },
    {
      "channel": 2,
      "note": 64,
      "start": 11.0074,
      "duration": 0.1167,
      "velocity": 107,
      "chip": "ym2612"
    },
    {
      "channel": 3,
      "note": 37,
      "start": 11.0094,
      "duration": 0.1025,
      "velocity": 127,
      "chip": "ym2612"
    },
    {
      "channel": 5,
      "note": 84,
      "start": 11.0111,
      "duration": 1.0018,
      "velocity": 107,
      "chip": "ym2612"
    },
    {
      "channel": 1,
      "note": 78,
      "start": 11.0556,
      "duration": 0.0683,
      "velocity": 107,
      "chip": "ym2612"
    },
    {
      "channel": 0,
      "note": 79,
      "start": 11.1004,
      "duration": 0.0727,
      "velocity": 107,
      "chip": "ym2612"
    },
    {
      "channel": 1,
      "note": 79,
      "start": 11.1499,
      "duration": 0.0727,
      "velocity": 107,
      "chip": "ym2612"
    },
    {
      "channel": 2,
      "note": 64,
      "start": 11.1515,
      "duration": 0.1209,
      "velocity": 107,
      "chip": "ym2612"
    },
    {
      "channel": 3,
      "note": 37,
      "start": 11.1535,
      "duration": 0.1064,
      "velocity": 127,
      "chip": "ym2612"
    },
    {
      "channel": 0,
      "note": 76,
      "start": 11.1992,
      "duration": 0.0729,
      "velocity": 107,
      "chip": "ym2612"
    },
    {
      "channel": 1,
      "note": 76,
      "start": 11.2486,
      "duration": 0.0727,
      "velocity": 107,
      "chip": "ym2612"
    },
    {
      "channel": 0,
      "note": 78,
      "start": 11.3018,
      "duration": 0.0687,
      "velocity": 107,
      "chip": "ym2612"
    },
    {
      "channel": 2,
      "note": 64,
      "start": 11.3035,
      "duration": 0.1167,
      "velocity": 107,
      "chip": "ym2612"
    },
    {
      "channel": 3,
      "note": 41,
      "start": 11.3055,
      "duration": 0.2147,
      "velocity": 127,
      "chip": "ym2612"
    },
    {
      "channel": 1,
      "note": 78,
      "start": 11.3511,
      "duration": 0.069,
      "velocity": 107,
      "chip": "ym2612"
    },
    {
      "channel": 0,
      "note": 79,
      "start": 11.3966,
      "duration": 0.0727,
      "velocity": 107,
      "chip": "ym2612"
    },
    {
      "channel": 1,
      "note": 79,
      "start": 11.446,
      "duration": 0.0738,
      "velocity": 107,
      "chip": "ym2612"
    },
    {
      "channel": 2,
      "note": 74,
      "start": 11.4476,
      "duration": 0.1207,
      "velocity": 107,
      "chip": "ym2612"
    },
    {
      "channel": 0,
      "note": 76,
      "start": 11.4953,
      "duration": 0.0727,
      "velocity": 107,
      "chip": "ym2612"
    },
    {
      "channel": 1,
      "note": 76,
      "start": 11.5448,
      "duration": 0.0727,
      "velocity": 107,
      "chip": "ym2612"
    },
    {
      "channel": 0,
      "note": 78,
      "start": 11.5979,
      "duration": 0.0688,
      "velocity": 107,
      "chip": "ym2612"
    },
    {
      "channel": 2,
      "note": 64,
      "start": 11.5997,
      "duration": 0.1167,
      "velocity": 107,
      "chip": "ym2612"
    },
    {
      "channel": 3,
      "note": 37,
      "start": 11.6017,
      "duration": 0.1024,
      "velocity": 127,
      "chip": "ym2612"
    },
    {
      "channel": 1,
      "note": 78,
      "start": 11.6473,
      "duration": 0.0689,
      "velocity": 107,
      "chip": "ym2612"
    },
    {
      "channel": 0,
      "note": 79,
      "start": 11.6928,
      "duration": 0.0726,
      "velocity": 107,
      "chip": "ym2612"
    },
    {
      "channel": 1,
      "note": 79,
      "start": 11.7428,
      "duration": 0.0721,
      "velocity": 107,
      "chip": "ym2612"
    },
    {
      "channel": 2,
      "note": 64,
      "start": 11.7444,
      "duration": 0.12,
      "velocity": 107,
      "chip": "ym2612"
    },
    {
      "channel": 3,
      "note": 37,
      "start": 11.7464,
      "duration": 0.1058,
      "velocity": 127,
      "chip": "ym2612"
    },
    {
      "channel": 0,
      "note": 76,
      "start": 11.7915,
      "duration": 0.0727,
      "velocity": 107,
      "chip": "ym2612"
    },
    {
      "channel": 1,
      "note": 76,
      "start": 11.8409,
      "duration": 0.0727,
      "velocity": 107,
      "chip": "ym2612"
    },
    {
      "channel": 0,
      "note": 78,
      "start": 11.8941,
      "duration": 0.0688,
      "velocity": 107,
      "chip": "ym2612"
    },
    {
      "channel": 2,
      "note": 64,
      "start": 11.8959,
      "duration": 0.1167,
      "velocity": 107,
      "chip": "ym2612"
    },
    {
      "channel": 3,
      "note": 37,
      "start": 11.898,
      "duration": 0.2629,
      "velocity": 127,
      "chip": "ym2612"
    },
    {
      "channel": 4,
      "note": 85,
      "start": 11.8996,
      "duration": 0.2615,
      "velocity": 107,
      "chip": "ym2612"
    },
    {
      "channel": 1,
      "note": 78,
      "start": 11.9434,
      "duration": 0.0688,
      "velocity": 107,
      "chip": "ym2612"
    },
    {
      "channel": 0,
      "note": 79,
      "start": 11.9888,
      "duration": 0.0727,
      "velocity": 107,
      "chip": "ym2612"
    },
    {
      "channel": 1,
      "note": 79,
      "start": 12.0383,
      "duration": 0.0727,
      "velocity": 107,
      "chip": "ym2612"
    },
    {
      "channel": 2,
      "note": 64,
      "start": 12.0399,
      "duration": 0.1207,
      "velocity": 107,
      "chip": "ym2612"
    },
    {
      "channel": 5,
      "note": 85,
      "start": 12.0417,
      "duration": 0.2679,
      "velocity": 107,
      "chip": "ym2612"
    },
    {
      "channel": 0,
      "note": 76,
      "start": 12.0876,
      "duration": 0.0727,
      "velocity": 107,
      "chip": "ym2612"
    },
    {
      "channel": 1,
      "note": 76,
      "start": 12.137,
      "duration": 0.0737,
      "velocity": 107,
      "chip": "ym2612"
    },
    {
      "channel": 0,
      "note": 78,
      "start": 12.1902,
      "duration": 0.0688,
      "velocity": 107,
      "chip": "ym2612"
    },
    {
      "channel": 2,
      "note": 64,
      "start": 12.192,
      "duration": 0.1167,
      "velocity": 107,
      "chip": "ym2612"
    },
    {
      "channel": 3,
      "note": 37,
      "start": 12.194,
      "duration": 0.1024,
      "velocity": 127,
      "chip": "ym2612"
    },
    {
      "channel": 4,
      "note": 84,
      "start": 12.1956,
      "duration": 0.1138,
      "velocity": 107,
      "chip": "ym2612"
    },
    {
      "channel": 1,
      "note": 78,
      "start": 12.2395,
      "duration": 0.069,
      "velocity": 107,
      "chip": "ym2612"
    },
    {
      "channel": 0,
      "note": 79,
      "start": 12.285,
      "duration": 0.0727,
      "velocity": 107,
      "chip": "ym2612"
    },
    {
      "channel": 1,
      "note": 79,
      "start": 12.3345,
      "duration": 0.0727,
      "velocity": 107,
      "chip": "ym2612"
    },
    {
      "channel": 2,
      "note": 64,
      "start": 12.3361,
      "duration": 0.1207,
      "velocity": 107,
      "chip": "ym2612"
    },
    {
      "channel": 3,
      "note": 37,
      "start": 12.338,
      "duration": 0.1064,
      "velocity": 127,
      "chip": "ym2612"
    },
    {
      "channel": 4,
      "note": 85,
      "start": 12.3396,
      "duration": 0.4137,
      "velocity": 107,
      "chip": "ym2612"
    },
    {
      "channel": 5,
      "note": 84,
      "start": 12.3412,
      "duration": 0.1164,
      "velocity": 107,
      "chip": "ym2612"
    },
    {
      "channel": 0,
      "note": 76,
      "start": 12.3837,
      "duration": 0.0727,
      "velocity": 107,
      "chip": "ym2612"
    },
    {
      "channel": 1,
      "note": 76,
      "start": 12.4336,
      "duration": 0.0722,
      "velocity": 107,
      "chip": "ym2612"
    },
    {
      "channel": 0,
      "note": 78,
      "start": 12.4864,
      "duration": 0.0688,
      "velocity": 107,
      "chip": "ym2612"
    },
    {
      "channel": 2,
      "note": 64,
      "start": 12.4881,
      "duration": 0.1167,
      "velocity": 107,
      "chip": "ym2612"
    },
    {
      "channel": 3,
      "note": 44,
      "start": 12.4901,
      "duration": 0.263,
      "velocity": 127,
      "chip": "ym2612"
    },
    {
      "channel": 5,
      "note": 85,
      "start": 12.4918,
      "duration": 0.4107,
      "velocity": 107,
      "chip": "ym2612"
    },
    {
      "channel": 1,
      "note": 78,
      "start": 12.5357,
      "duration": 0.0689,
      "velocity": 107,
      "chip": "ym2612"
    },
    {
      "channel": 0,
      "note": 79,
      "start": 12.5811,
      "duration": 0.0728,
      "velocity": 107,
      "chip": "ym2612"
    },
    {
      "channel": 1,
      "note": 79,
      "start": 12.6306,
      "duration": 0.0727,
      "velocity": 107,
      "chip": "ym2612"
    },
    {
      "channel": 2,
      "note": 76,
      "start": 12.6322,
      "duration": 0.1207,
      "velocity": 107,
      "chip": "ym2612"
    },
    {
      "channel": 0,
      "note": 76,
      "start": 12.6798,
      "duration": 0.0727,
      "velocity": 107,
      "chip": "ym2612"
    },
    {
      "channel": 1,
      "note": 76,
      "start": 12.7293,
      "duration": 0.0727,
      "velocity": 107,
      "chip": "ym2612"
    },
    {
      "channel": 0,
      "note": 78,
      "start": 12.7825,
      "duration": 0.0688,
      "velocity": 107,
      "chip": "ym2612"
    },
    {
      "channel": 2,
      "note": 64,
      "start": 12.7842,
      "duration": 0.1176,
      "velocity": 107,
      "chip": "ym2612"
    },
    {
      "channel": 3,
      "note": 37,
      "start": 12.7862,
      "duration": 0.1026,
      "velocity": 127,
      "chip": "ym2612"
    },
    {
      "channel": 4,
      "note": 85,
      "start": 12.7878,
      "duration": 0.2618,
      "velocity": 107,
      "chip": "ym2612"
    },
    {
      "channel": 1,
      "note": 78,
      "start": 12.8318,
      "duration": 0.0698,
      "velocity": 107,
      "chip": "ym2612"
    },
    {
      "channel": 0,
      "note": 79,
      "start": 12.8773,
      "duration": 0.0727,
      "velocity": 107,
      "chip": "ym2612"
    },
    {
      "channel": 1,
      "note": 79,
      "start": 12.9268,
      "duration": 0.0727,
      "velocity": 107,
      "chip": "ym2612"
    },
    {
      "channel": 2,
      "note": 64,
      "start": 12.9283,
      "duration": 0.1206,
      "velocity": 107,
      "chip": "ym2612"
    },
    {
      "channel": 3,
      "note": 37,
      "start": 12.9303,
      "duration": 0.1064,
      "velocity": 127,
      "chip": "ym2612"
    },
    {
      "channel": 5,
      "note": 85,
      "start": 12.932,
      "duration": 0.2659,
      "velocity": 107,
      "chip": "ym2612"
    },
    {
      "channel": 0,
      "note": 76,
      "start": 12.9761,
      "duration": 0.0727,
      "velocity": 107,
      "chip": "ym2612"
    },
    {
      "channel": 1,
      "note": 76,
      "start": 13.0254,
      "duration": 0.0727,
      "velocity": 107,
      "chip": "ym2612"
    },
    {
      "channel": 0,
      "note": 78,
      "start": 13.0787,
      "duration": 0.0687,
      "velocity": 107,
      "chip": "ym2612"
    },
    {
      "channel": 2,
      "note": 64,
      "start": 13.0804,
      "duration": 0.1167,
      "velocity": 107,
      "chip": "ym2612"
    },
    {
      "channel": 3,
      "note": 37,
      "start": 13.0824,
      "duration": 0.1024,
      "velocity": 127,
      "chip": "ym2612"
    },
    {
      "channel": 4,
      "note": 84,
      "start": 13.084,
      "duration": 0.1137,
      "velocity": 107,
      "chip": "ym2612"
    },
    {
      "channel": 1,
      "note": 78,
      "start": 13.1283,
      "duration": 0.0686,
      "velocity": 107,
      "chip": "ym2612"
    },
    {
      "channel": 0,
      "note": 79,
      "start": 13.1734,
      "duration": 0.0727,
      "velocity": 107,
      "chip": "ym2612"
    },
    {
      "channel": 1,
      "note": 79,
      "start": 13.2229,
      "duration": 0.0727,
      "velocity": 107,
      "chip": "ym2612"
    },
    {
      "channel": 2,
      "note": 64,
      "start": 13.2245,
      "duration": 0.1207,
      "velocity": 107,
      "chip": "ym2612"
    },
    {
      "channel": 3,
      "note": 37,
      "start": 13.2265,
      "duration": 0.1064,
      "velocity": 127,
      "chip": "ym2612"
    },
    {
      "channel": 4,
      "note": 85,
      "start": 13.2281,
      "duration": 1.0062,
      "velocity": 107,
      "chip": "ym2612"
    },
    {
      "channel": 5,
      "note": 84,
      "start": 13.2297,
      "duration": 0.1162,
      "velocity": 107,
      "chip": "ym2612"
    },
    {
      "channel": 0,
      "note": 76,
      "start": 13.2721,
      "duration": 0.0727,
      "velocity": 107,
      "chip": "ym2612"
    },
    {
      "channel": 1,
      "note": 76,
      "start": 13.3216,
      "duration": 0.0727,
      "velocity": 107,
      "chip": "ym2612"
    },
    {
      "channel": 0,
      "note": 78,
      "start": 13.3748,
      "duration": 0.0687,
      "velocity": 107,
      "chip": "ym2612"
    },
    {
      "channel": 2,
      "note": 64,
      "start": 13.3766,
      "duration": 0.1166,
      "velocity": 107,
      "chip": "ym2612"
    },
    {
      "channel": 3,
      "note": 37,
      "start": 13.3785,
      "duration": 0.1024,
      "velocity": 127,
      "chip": "ym2612"
    },
    {
      "channel": 5,
      "note": 85,
      "start": 13.3803,
      "duration": 1.0141,
      "velocity": 107,
      "chip": "ym2612"
    },
    {
      "channel": 1,
      "note": 78,
      "start": 13.4241,
      "duration": 0.0689,
      "velocity": 107,
      "chip": "ym2612"
    },
    {
      "channel": 0,
      "note": 79,
      "start": 13.4696,
      "duration": 0.0727,
      "velocity": 107,
      "chip": "ym2612"
    },
    {
      "channel": 1,
      "note": 79,
      "start": 13.519,
      "duration": 0.0735,
      "velocity": 107,
      "chip": "ym2612"
    },
    {
      "channel": 2,
      "note": 64,
      "start": 13.5206,
      "duration": 0.1207,
      "velocity": 107,
      "chip": "ym2612"
    },
    {
      "channel": 3,
      "note": 37,
      "start": 13.5226,
      "duration": 0.1064,
      "velocity": 127,
      "chip": "ym2612"
    },
    {
      "channel": 0,
      "note": 76,
      "start": 13.5682,
      "duration": 0.0727,
      "velocity": 107,
      "chip": "ym2612"
    },
    {
      "channel": 1,
      "note": 76,
      "start": 13.6177,
      "duration": 0.0727,
      "velocity": 107,
      "chip": "ym2612"
    },
    {
      "channel": 0,
      "note": 78,
      "start": 13.6709,
      "duration": 0.0688,
      "velocity": 107,
      "chip": "ym2612"
    },
    {
      "channel": 2,
      "note": 64,
      "start": 13.6726,
      "duration": 0.1167,
      "velocity": 107,
      "chip": "ym2612"
    },
    {
      "channel": 3,
      "note": 41,
      "start": 13.6746,
      "duration": 0.2136,
      "velocity": 127,
      "chip": "ym2612"
    },
    {
      "channel": 1,
      "note": 78,
      "start": 13.7202,
      "duration": 0.0689,
      "velocity": 107,
      "chip": "ym2612"
    },
    {
      "channel": 0,
      "note": 79,
      "start": 13.7657,
      "duration": 0.0727,
      "velocity": 107,
      "chip": "ym2612"
    },
    {
      "channel": 1,
      "note": 79,
      "start": 13.8154,
      "duration": 0.0724,
      "velocity": 107,
      "chip": "ym2612"
    },
    {
      "channel": 2,
      "note": 77,
      "start": 13.817,
      "duration": 0.1204,
      "velocity": 107,
      "chip": "ym2612"
    },
    {
      "channel": 0,
      "note": 76,
      "start": 13.8644,
      "duration": 0.0727,
      "velocity": 107,
      "chip": "ym2612"
    },
    {
      "channel": 1,
      "note": 76,
      "start": 13.9139,
      "duration": 0.0727,
      "velocity": 107,
      "chip": "ym2612"
    },
    {
      "channel": 0,
      "note": 78,
      "start": 13.967,
      "duration": 0.0688,
      "velocity": 107,
      "chip": "ym2612"
    },
    {
      "channel": 2,
      "note": 64,
      "start": 13.9688,
      "duration": 0.1167,
      "velocity": 107,
      "chip": "ym2612"
    },
    {
      "channel": 3,
      "note": 37,
      "start": 13.9708,
      "duration": 0.1025,
      "velocity": 127,
      "chip": "ym2612"
    },
    {
      "channel": 1,
      "note": 78,
      "start": 14.0163,
      "duration": 0.0689,
      "velocity": 107,
      "chip": "ym2612"
    },
    {
      "channel": 0,
      "note": 79,
      "start": 14.0629,
      "duration": 0.0716,
      "velocity": 107,
      "chip": "ym2612"
    },
    {
      "channel": 1,
      "note": 79,
      "start": 14.1112,
      "duration": 0.0728,
      "velocity": 107,
      "chip": "ym2612"
    },
    {
      "channel": 2,
      "note": 64,
      "start": 14.1129,
      "duration": 0.1207,
      "velocity": 107,
      "chip": "ym2612"
    },
    {
      "channel": 3,
      "note": 37,
      "start": 14.1149,
      "duration": 0.1064,
      "velocity": 127,
      "chip": "ym2612"
    },
    {
      "channel": 0,
      "note": 76,
      "start": 14.1605,
      "duration": 0.0727,
      "velocity": 107,
      "chip": "ym2612"
    },
    {
      "channel": 1,
      "note": 76,
      "start": 14.21,
      "duration": 0.085,
      "velocity": 107,
      "chip": "ym2612"
    },
    {
      "channel": 0,
      "note": 78,
      "start": 14.2633,
      "duration": 0.081,
      "velocity": 107,
      "chip": "ym2612"
    },
    {
      "channel": 2,
      "note": 64,
      "start": 14.2691,
      "duration": 0.1249,
      "velocity": 107,
      "chip": "ym2612"
    },
    {
      "channel": 3,
      "note": 37,
      "start": 14.2712,
      "duration": 0.2712,
      "velocity": 127,
      "chip": "ym2612"
    },
    {
      "channel": 4,
      "note": 84,
      "start": 14.2731,
      "duration": 0.2695,
      "velocity": 107,
      "chip": "ym2612"
    },
    {
      "channel": 1,
      "note": 78,
      "start": 14.3248,
      "duration": 0.069,
      "velocity": 107,
      "chip": "ym2612"
    },
    {
      "channel": 0,
      "note": 79,
      "start": 14.3703,
      "duration": 0.0727,
      "velocity": 107,
      "chip": "ym2612"
    },
    {
      "channel": 1,
      "note": 79,
      "start": 14.4198,
      "duration": 0.0728,
      "velocity": 107,
      "chip": "ym2612"
    },
    {
      "channel": 2,
      "note": 64,
      "start": 14.4215,
      "duration": 0.1205,
      "velocity": 107,
      "chip": "ym2612"
    },
    {
      "channel": 5,
      "note": 84,
      "start": 14.4236,
      "duration": 0.2675,
      "velocity": 107,
      "chip": "ym2612"
    },
    {
      "channel": 0,
      "note": 76,
      "start": 14.469,
      "duration": 0.0727,
      "velocity": 107,
      "chip": "ym2612"
    },
    {
      "channel": 1,
      "note": 76,
      "start": 14.5193,
      "duration": 0.072,
      "velocity": 107,
      "chip": "ym2612"
    },
    {
      "channel": 0,
      "note": 78,
      "start": 14.5717,
      "duration": 0.0688,
      "velocity": 107,
      "chip": "ym2612"
    },
    {
      "channel": 2,
      "note": 64,
      "start": 14.5734,
      "duration": 0.1168,
      "velocity": 107,
      "chip": "ym2612"
    },
    {
      "channel": 3,
      "note": 37,
      "start": 14.5754,
      "duration": 0.1025,
      "velocity": 127,
      "chip": "ym2612"
    },
    {
      "channel": 4,
      "note": 83,
      "start": 14.577,
      "duration": 0.1139,
      "velocity": 107,
      "chip": "ym2612"
    },
    {
      "channel": 1,
      "note": 78,
      "start": 14.621,
      "duration": 0.069,
      "velocity": 107,
      "chip": "ym2612"
    },
    {
      "channel": 0,
      "note": 79,
      "start": 14.6665,
      "duration": 0.0729,
      "velocity": 107,
      "chip": "ym2612"
    },
    {
      "channel": 1,
      "note": 79,
      "start": 14.7159,
      "duration": 0.0727,
      "velocity": 107,
      "chip": "ym2612"
    },
    {
      "channel": 2,
      "note": 64,
      "start": 14.7175,
      "duration": 0.1207,
      "velocity": 107,
      "chip": "ym2612"
    },
    {
      "channel": 3,
      "note": 37,
      "start": 14.7195,
      "duration": 0.1066,
      "velocity": 127,
      "chip": "ym2612"
    },
    {
      "channel": 4,
      "note": 84,
      "start": 14.721,
      "duration": 0.4137,
      "velocity": 107,
      "chip": "ym2612"
    },
    {
      "channel": 5,
      "note": 83,
      "start": 14.7226,
      "duration": 0.1163,
      "velocity": 107,
      "chip": "ym2612"
    },
    {
      "channel": 0,
      "note": 76,
      "start": 14.7652,
      "duration": 0.0726,
      "velocity": 107,
      "chip": "ym2612"
    },
    {
      "channel": 1,
      "note": 76,
      "start": 14.8146,
      "duration": 0.0727,
      "velocity": 107,
      "chip": "ym2612"
    },
    {
      "channel": 0,
      "note": 78,
      "start": 14.8678,
      "duration": 0.0687,
      "velocity": 107,
      "chip": "ym2612"
    },
    {
      "channel": 2,
      "note": 64,
      "start": 14.8696,
      "duration": 0.1178,
      "velocity": 107,
      "chip": "ym2612"
    },
    {
      "channel": 3,
      "note": 44,
      "start": 14.8715,
      "duration": 0.263,
      "velocity": 127,
      "chip": "ym2612"
    },
    {
      "channel": 5,
      "note": 84,
      "start": 14.8733,
      "duration": 0.4099,
      "velocity": 107,
      "chip": "ym2612"
    },
    {
      "channel": 1,
      "note": 78,
      "start": 14.9171,
      "duration": 0.07,
      "velocity": 107,
      "chip": "ym2612"
    },
    {
      "channel": 0,
      "note": 79,
      "start": 14.9626,
      "duration": 0.0727,
      "velocity": 107,
      "chip": "ym2612"
    },
    {
      "channel": 1,
      "note": 79,
      "start": 15.012,
      "duration": 0.0728,
      "velocity": 107,
      "chip": "ym2612"
    },
    {
      "channel": 2,
      "note": 76,
      "start": 15.0137,
      "duration": 0.1206,
      "velocity": 107,
      "chip": "ym2612"
    },
    {
      "channel": 0,
      "note": 76,
      "start": 15.0613,
      "duration": 0.0727,
      "velocity": 107,
      "chip": "ym2612"
    },
    {
      "channel": 1,
      "note": 76,
      "start": 15.1107,
      "duration": 0.0727,
      "velocity": 107,
      "chip": "ym2612"
    },
    {
      "channel": 0,
      "note": 78,
      "start": 15.164,
      "duration": 0.0686,
      "velocity": 107,
      "chip": "ym2612"
    },
    {
      "channel": 2,
      "note": 64,
      "start": 15.1658,
      "duration": 0.1166,
      "velocity": 107,
      "chip": "ym2612"
    },
    {
      "channel": 3,
      "note": 37,
      "start": 15.1677,
      "duration": 0.1024,
      "velocity": 127,
      "chip": "ym2612"
    },
    {
      "channel": 4,
      "note": 84,
      "start": 15.1693,
      "duration": 0.262,
      "velocity": 107,
      "chip": "ym2612"
    },
    {
      "channel": 1,
      "note": 78,
      "start": 15.2139,
      "duration": 0.0683,
      "velocity": 107,
      "chip": "ym2612"
    },
    {
      "channel": 0,
      "note": 79,
      "start": 15.2588,
      "duration": 0.0727,
      "velocity": 107,
      "chip": "ym2612"
    },
    {
      "channel": 1,
      "note": 79,
      "start": 15.3082,
      "duration": 0.0727,
      "velocity": 107,
      "chip": "ym2612"
    },
    {
      "channel": 2,
      "note": 64,
      "start": 15.3098,
      "duration": 0.1207,
      "velocity": 107,
      "chip": "ym2612"
    },
    {
      "channel": 3,
      "note": 37,
      "start": 15.3118,
      "duration": 0.1063,
      "velocity": 127,
      "chip": "ym2612"
    },
    {
      "channel": 5,
      "note": 84,
      "start": 15.3135,
      "duration": 0.266,
      "velocity": 107,
      "chip": "ym2612"
    },
    {
      "channel": 0,
      "note": 76,
      "start": 15.3574,
      "duration": 0.0729,
      "velocity": 107,
      "chip": "ym2612"
    },
    {
      "channel": 1,
      "note": 76,
      "start": 15.4069,
      "duration": 0.0727,
      "velocity": 107,
      "chip": "ym2612"
    },
    {
      "channel": 0,
      "note": 78,
      "start": 15.4602,
      "duration": 0.0687,
      "velocity": 107,
      "chip": "ym2612"
    },
    {
      "channel": 2,
      "note": 64,
      "start": 15.4619,
      "duration": 0.1167,
      "velocity": 107,
      "chip": "ym2612"
    },
    {
      "channel": 3,
      "note": 37,
      "start": 15.4639,
      "duration": 0.1023,
      "velocity": 127,
      "chip": "ym2612"
    },
    {
      "channel": 4,
      "note": 83,
      "start": 15.4655,
      "duration": 0.1137,
      "velocity": 107,
      "chip": "ym2612"
    },
    {
      "channel": 1,
      "note": 78,
      "start": 15.5094,
      "duration": 0.0689,
      "velocity": 107,
      "chip": "ym2612"
    },
    {
      "channel": 0,
      "note": 79,
      "start": 15.5549,
      "duration": 0.0727,
      "velocity": 107,
      "chip": "ym2612"
    },
    {
      "channel": 1,
      "note": 79,
      "start": 15.6043,
      "duration": 0.0737,
      "velocity": 107,
      "chip": "ym2612"
    },
    {
      "channel": 2,
      "note": 64,
      "start": 15.6059,
      "duration": 0.1207,
      "velocity": 107,
      "chip": "ym2612"
    },
    {
      "channel": 3,
      "note": 37,
      "start": 15.6079,
      "duration": 0.1064,
      "velocity": 127,
      "chip": "ym2612"
    },
    {
      "channel": 4,
      "note": 84,
      "start": 15.6096,
      "duration": 1.0061,
      "velocity": 107,
      "chip": "ym2612"
    },
    {
      "channel": 5,
      "note": 83,
      "start": 15.6112,
      "duration": 0.1162,
      "velocity": 107,
      "chip": "ym2612"
    },
    {
      "channel": 0,
      "note": 76,
      "start": 15.6536,
      "duration": 0.0727,
      "velocity": 107,
      "chip": "ym2612"
    },
    {
      "channel": 1,
      "note": 76,
      "start": 15.703,
      "duration": 0.0728,
      "velocity": 107,
      "chip": "ym2612"
    },
    {
      "channel": 0,
      "note": 78,
      "start": 15.7562,
      "duration": 0.0688,
      "velocity": 107,
      "chip": "ym2612"
    },
    {
      "channel": 2,
      "note": 64,
      "start": 15.758,
      "duration": 0.1167,
      "velocity": 107,
      "chip": "ym2612"
    },
    {
      "channel": 3,
      "note": 37,
      "start": 15.76,
      "duration": 0.1024,
      "velocity": 127,
      "chip": "ym2612"
    },
    {
      "channel": 5,
      "note": 84,
      "start": 15.7617,
      "duration": 1.0017,
      "velocity": 107,
      "chip": "ym2612"
    },
    {
      "channel": 1,
      "note": 78,
      "start": 15.8055,
      "duration": 0.0689,
      "velocity": 107,
      "chip": "ym2612"
    },
    {
      "channel": 0,
      "note": 79,
      "start": 15.851,
      "duration": 0.0727,
      "velocity": 107,
      "chip": "ym2612"
    },
    {
      "channel": 1,
      "note": 79,
      "start": 15.901,
      "duration": 0.0721,
      "velocity": 107,
      "chip": "ym2612"
    },
    {
      "channel": 2,
      "note": 64,
      "start": 15.9026,
      "duration": 0.1201,
      "velocity": 107,
      "chip": "ym2612"
    },
    {
      "channel": 3,
      "note": 37,
      "start": 15.9046,
      "duration": 0.1059,
      "velocity": 127,
      "chip": "ym2612"
    },
    {
      "channel": 0,
      "note": 76,
      "start": 15.9497,
      "duration": 0.0727,
      "velocity": 107,
      "chip": "ym2612"
    },
    {
      "channel": 1,
      "note": 76,
      "start": 15.9992,
      "duration": 0.0727,
      "velocity": 107,
      "chip": "ym2612"
    },
    {
      "channel": 0,
      "note": 78,
      "start": 16.0524,
      "duration": 0.0687,
      "velocity": 107,
      "chip": "ym2612"
    },
    {
      "channel": 2,
      "note": 64,
      "start": 16.0541,
      "duration": 0.1167,
      "velocity": 107,
      "chip": "ym2612"
    },
    {
      "channel": 3,
      "note": 41,
      "start": 16.0561,
      "duration": 0.2136,
      "velocity": 127,
      "chip": "ym2612"
    },
    {
      "channel": 1,
      "note": 78,
      "start": 16.1016,
      "duration": 0.069,
      "velocity": 107,
      "chip": "ym2612"
    },
    {
      "channel": 0,
      "note": 79,
      "start": 16.1471,
      "duration": 0.0727,
      "velocity": 107,
      "chip": "ym2612"
    },
    {
      "channel": 1,
      "note": 79,
      "start": 16.1966,
      "duration": 0.0727,
      "velocity": 107,
      "chip": "ym2612"
    },
    {
      "channel": 2,
      "note": 74,
      "start": 16.1982,
      "duration": 0.1207,
      "velocity": 107,
      "chip": "ym2612"
    },
    {
      "channel": 0,
      "note": 76,
      "start": 16.2459,
      "duration": 0.0727,
      "velocity": 107,
      "chip": "ym2612"
    },
    {
      "channel": 1,
      "note": 76,
      "start": 16.2953,
      "duration": 0.0735,
      "velocity": 107,
      "chip": "ym2612"
    },
    {
      "channel": 0,
      "note": 78,
      "start": 16.3485,
      "duration": 0.0688,
      "velocity": 107,
      "chip": "ym2612"
    },
    {
      "channel": 2,
      "note": 64,
      "start": 16.3502,
      "duration": 0.1167,
      "velocity": 107,
      "chip": "ym2612"
    },
    {
      "channel": 3,
      "note": 37,
      "start": 16.3523,
      "duration": 0.1024,
      "velocity": 127,
      "chip": "ym2612"
    },
    {
      "channel": 1,
      "note": 78,
      "start": 16.3978,
      "duration": 0.0689,
      "velocity": 107,
      "chip": "ym2612"
    },
    {
      "channel": 0,
      "note": 79,
      "start": 16.4433,
      "duration": 0.0726,
      "velocity": 107,
      "chip": "ym2612"
    },
    {
      "channel": 1,
      "note": 79,
      "start": 16.4928,
      "duration": 0.0727,
      "velocity": 107,
      "chip": "ym2612"
    },
    {
      "channel": 2,
      "note": 64,
      "start": 16.4944,
      "duration": 0.1206,
      "velocity": 107,
      "chip": "ym2612"
    },
    {
      "channel": 3,
      "note": 37,
      "start": 16.4963,
      "duration": 0.1074,
      "velocity": 127,
      "chip": "ym2612"
    },
    {
      "channel": 0,
      "note": 76,
      "start": 16.542,
      "duration": 0.0727,
      "velocity": 107,
      "chip": "ym2612"
    },
    {
      "channel": 1,
      "note": 76,
      "start": 16.5919,
      "duration": 0.0723,
      "velocity": 107,
      "chip": "ym2612"
    },
    {
      "channel": 0,
      "note": 78,
      "start": 16.6447,
      "duration": 0.0687,
      "velocity": 107,
      "chip": "ym2612"
    },
    {
      "channel": 2,
      "note": 64,
      "start": 16.6464,
      "duration": 0.1167,
      "velocity": 107,
      "chip": "ym2612"
    },
    {
      "channel": 3,
      "note": 37,
      "start": 16.6485,
      "duration": 0.2629,
      "velocity": 127,
      "chip": "ym2612"
    },
    {
      "channel": 4,
      "note": 91,
      "start": 16.6501,
      "duration": 0.2615,
      "velocity": 107,
      "chip": "ym2612"
    },
    {
      "channel": 1,
      "note": 78,
      "start": 16.6939,
      "duration": 0.069,
      "velocity": 107,
      "chip": "ym2612"
    },
    {
      "channel": 0,
      "note": 79,
      "start": 16.7394,
      "duration": 0.0727,
      "velocity": 107,
      "chip": "ym2612"
    },
    {
      "channel": 1,
      "note": 79,
      "start": 16.7888,
      "duration": 0.0727,
      "velocity": 107,
      "chip": "ym2612"
    },
    {
      "channel": 2,
      "note": 64,
      "start": 16.7905,
      "duration": 0.1206,
      "velocity": 107,
      "chip": "ym2612"
    },
    {
      "channel": 5,
      "note": 91,
      "start": 16.7924,
      "duration": 0.2686,
      "velocity": 107,
      "chip": "ym2612"
    },
    {
      "channel": 0,
      "note": 76,
      "start": 16.8381,
      "duration": 0.0727,
      "velocity": 107,
      "chip": "ym2612"
    },
    {
      "channel": 1,
      "note": 76,
      "start": 16.8876,
      "duration": 0.0727,
      "velocity": 107,
      "chip": "ym2612"
    },
    {
      "channel": 0,
      "note": 78,
      "start": 16.9408,
      "duration": 0.0687,
      "velocity": 107,
      "chip": "ym2612"
    },
    {
      "channel": 2,
      "note": 64,
      "start": 16.9425,
      "duration": 0.1175,
      "velocity": 107,
      "chip": "ym2612"
    },
    {
      "channel": 3,
      "note": 37,
      "start": 16.9446,
      "duration": 0.1025,
      "velocity": 127,
      "chip": "ym2612"
    },
    {
      "channel": 4,
      "note": 90,
      "start": 16.9462,
      "duration": 0.1146,
      "velocity": 107,
      "chip": "ym2612"
    },
    {
      "channel": 1,
      "note": 78,
      "start": 16.9901,
      "duration": 0.0697,
      "velocity": 107,
      "chip": "ym2612"
    },
    {
      "channel": 0,
      "note": 79,
      "start": 17.0355,
      "duration": 0.0727,
      "velocity": 107,
      "chip": "ym2612"
    },
    {
      "channel": 1,
      "note": 79,
      "start": 17.085,
      "duration": 0.0727,
      "velocity": 107,
      "chip": "ym2612"
    },
    {
      "channel": 2,
      "note": 64,
      "start": 17.0866,
      "duration": 0.1207,
      "velocity": 107,
      "chip": "ym2612"
    },
    {
      "channel": 3,
      "note": 37,
      "start": 17.0886,
      "duration": 0.1064,
      "velocity": 127,
      "chip": "ym2612"
    },
    {
      "channel": 4,
      "note": 91,
      "start": 17.0902,
      "duration": 0.4137,
      "velocity": 107,
      "chip": "ym2612"
    },
    {
      "channel": 5,
      "note": 90,
      "start": 17.0918,
      "duration": 0.1163,
      "velocity": 107,
      "chip": "ym2612"
    },
    {
      "channel": 0,
      "note": 76,
      "start": 17.1343,
      "duration": 0.0727,
      "velocity": 107,
      "chip": "ym2612"
    },
    {
      "channel": 1,
      "note": 76,
      "start": 17.1838,
      "duration": 0.0727,
      "velocity": 107,
      "chip": "ym2612"
    },
    {
      "channel": 0,
      "note": 78,
      "start": 17.2369,
      "duration": 0.0688,
      "velocity": 107,
      "chip": "ym2612"
    },
    {
      "channel": 2,
      "note": 64,
      "start": 17.2387,
      "duration": 0.1167,
      "velocity": 107,
      "chip": "ym2612"
    },
    {
      "channel": 3,
      "note": 44,
      "start": 17.2406,
      "duration": 0.263,
      "velocity": 127,
      "chip": "ym2612"
    },
    {
      "channel": 5,
      "note": 91,
      "start": 17.2424,
      "duration": 0.4222,
      "velocity": 107,
      "chip": "ym2612"
    },
    {
      "channel": 1,
      "note": 78,
      "start": 17.2864,
      "duration": 0.0687,
      "velocity": 107,
      "chip": "ym2612"
    },
    {
      "channel": 0,
      "note": 79,
      "start": 17.3317,
      "duration": 0.0727,
      "velocity": 107,
      "chip": "ym2612"
    },
    {
      "channel": 1,
      "note": 79,
      "start": 17.3812,
      "duration": 0.0727,
      "velocity": 107,
      "chip": "ym2612"
    },
    {
      "channel": 2,
      "note": 76,
      "start": 17.3827,
      "duration": 0.1207,
      "velocity": 107,
      "chip": "ym2612"
    },
    {
      "channel": 0,
      "note": 76,
      "start": 17.4304,
      "duration": 0.0727,
      "velocity": 107,
      "chip": "ym2612"
    },
    {
      "channel": 1,
      "note": 76,
      "start": 17.4799,
      "duration": 0.085,
      "velocity": 107,
      "chip": "ym2612"
    },
    {
      "channel": 0,
      "note": 78,
      "start": 17.5341,
      "duration": 0.08,
      "velocity": 107,
      "chip": "ym2612"
    },
    {
      "channel": 2,
      "note": 64,
      "start": 17.5359,
      "duration": 0.1279,
      "velocity": 107,
      "chip": "ym2612"
    },
    {
      "channel": 3,
      "note": 37,
      "start": 17.5379,
      "duration": 0.1137,
      "velocity": 127,
      "chip": "ym2612"
    },
    {
      "channel": 4,
      "note": 91,
      "start": 17.5395,
      "duration": 0.2731,
      "velocity": 107,
      "chip": "ym2612"
    },
    {
      "channel": 1,
      "note": 78,
      "start": 17.5947,
      "duration": 0.0689,
      "velocity": 107,
      "chip": "ym2612"
    },
    {
      "channel": 0,
      "note": 79,
      "start": 17.6402,
      "duration": 0.0727,
      "velocity": 107,
      "chip": "ym2612"
    },
    {
      "channel": 1,
      "note": 79,
      "start": 17.6896,
      "duration": 0.0727,
      "velocity": 107,
      "chip": "ym2612"
    },
    {
      "channel": 2,
      "note": 64,
      "start": 17.6913,
      "duration": 0.1206,
      "velocity": 107,
      "chip": "ym2612"
    },
    {
      "channel": 3,
      "note": 37,
      "start": 17.6932,
      "duration": 0.1064,
      "velocity": 127,
      "chip": "ym2612"
    },
    {
      "channel": 5,
      "note": 91,
      "start": 17.695,
      "duration": 0.2659,
      "velocity": 107,
      "chip": "ym2612"
    },
    {
      "channel": 0,
      "note": 76,
      "start": 17.7389,
      "duration": 0.0727,
      "velocity": 107,
      "chip": "ym2612"
    },
    {
      "channel": 1,
      "note": 76,
      "start": 17.7883,
      "duration": 0.0727,
      "velocity": 107,
      "chip": "ym2612"
    },
    {
      "channel": 0,
      "note": 78,
      "start": 17.8416,
      "duration": 0.0687,
      "velocity": 107,
      "chip": "ym2612"
    },
    {
      "channel": 2,
      "note": 64,
      "start": 17.8433,
      "duration": 0.1167,
      "velocity": 107,
      "chip": "ym2612"
    },
    {
      "channel": 3,
      "note": 37,
      "start": 17.8455,
      "duration": 0.1022,
      "velocity": 127,
      "chip": "ym2612"
    },
    {
      "channel": 4,
      "note": 90,
      "start": 17.8471,
      "duration": 0.1136,
      "velocity": 107,
      "chip": "ym2612"
    },
    {
      "channel": 1,
      "note": 78,
      "start": 17.8908,
      "duration": 0.069,
      "velocity": 107,
      "chip": "ym2612"
    },
    {
      "channel": 0,
      "note": 79,
      "start": 17.9363,
      "duration": 0.0728,
      "velocity": 107,
      "chip": "ym2612"
    },
    {
      "channel": 1,
      "note": 79,
      "start": 17.9866,
      "duration": 0.072,
      "velocity": 107,
      "chip": "ym2612"
    },
    {
      "channel": 2,
      "note": 64,
      "start": 17.9882,
      "duration": 0.1198,
      "velocity": 107,
      "chip": "ym2612"
    },
    {
      "channel": 3,
      "note": 37,
      "start": 17.9902,
      "duration": 0.1056,
      "velocity": 127,
      "chip": "ym2612"
    },
    {
      "channel": 4,
      "note": 91,
      "start": 17.9918,
      "duration": 1.0054,
      "velocity": 107,
      "chip": "ym2612"
    },
    {
      "channel": 5,
      "note": 90,
      "start": 17.9934,
      "duration": 0.1155,
      "velocity": 107,
      "chip": "ym2612"
    },
    {
      "channel": 0,
      "note": 76,
      "start": 18.035,
      "duration": 0.0727,
      "velocity": 107,
      "chip": "ym2612"
    },
    {
      "channel": 1,
      "note": 76,
      "start": 18.0845,
      "duration": 0.0727,
      "velocity": 107,
      "chip": "ym2612"
    },
    {
      "channel": 0,
      "note": 78,
      "start": 18.1377,
      "duration": 0.069,
      "velocity": 107,
      "chip": "ym2612"
    },
    {
      "channel": 2,
      "note": 64,
      "start": 18.1394,
      "duration": 0.1167,
      "velocity": 107,
      "chip": "ym2612"
    },
    {
      "channel": 3,
      "note": 37,
      "start": 18.1414,
      "duration": 0.1025,
      "velocity": 127,
      "chip": "ym2612"
    },
    {
      "channel": 5,
      "note": 91,
      "start": 18.1431,
      "duration": 1.0265,
      "velocity": 107,
      "chip": "ym2612"
    },
    {
      "channel": 1,
      "note": 78,
      "start": 18.1869,
      "duration": 0.069,
      "velocity": 107,
      "chip": "ym2612"
    },
    {
      "channel": 0,
      "note": 79,
      "start": 18.2324,
      "duration": 0.0727,
      "velocity": 107,
      "chip": "ym2612"
    },
    {
      "channel": 1,
      "note": 79,
      "start": 18.2819,
      "duration": 0.0727,
      "velocity": 107,
      "chip": "ym2612"
    },
    {
      "channel": 2,
      "note": 64,
      "start": 18.2836,
      "duration": 0.1206,
      "velocity": 107,
      "chip": "ym2612"
    },
    {
      "channel": 3,
      "note": 37,
      "start": 18.2855,
      "duration": 0.1064,
      "velocity": 127,
      "chip": "ym2612"
    },
    {
      "channel": 0,
      "note": 76,
      "start": 18.3312,
      "duration": 0.0727,
      "velocity": 107,
      "chip": "ym2612"
    },
    {
      "channel": 1,
      "note": 76,
      "start": 18.3806,
      "duration": 0.0727,
      "velocity": 107,
      "chip": "ym2612"
    },
    {
      "channel": 0,
      "note": 78,
      "start": 18.4338,
      "duration": 0.0688,
      "velocity": 107,
      "chip": "ym2612"
    },
    {
      "channel": 2,
      "note": 64,
      "start": 18.4355,
      "duration": 0.1167,
      "velocity": 107,
      "chip": "ym2612"
    },
    {
      "channel": 3,
      "note": 37,
      "start": 18.4376,
      "duration": 0.1025,
      "velocity": 127,
      "chip": "ym2612"
    },
    {
      "channel": 1,
      "note": 78,
      "start": 18.4831,
      "duration": 0.0689,
      "velocity": 107,
      "chip": "ym2612"
    },
    {
      "channel": 0,
      "note": 79,
      "start": 18.5286,
      "duration": 0.0727,
      "velocity": 107,
      "chip": "ym2612"
    },
    {
      "channel": 1,
      "note": 79,
      "start": 18.578,
      "duration": 0.0727,
      "velocity": 107,
      "chip": "ym2612"
    },
    {
      "channel": 2,
      "note": 77,
      "start": 18.5797,
      "duration": 0.1206,
      "velocity": 107,
      "chip": "ym2612"
    },
    {
      "channel": 3,
      "note": 37,
      "start": 18.5817,
      "duration": 0.1064,
      "velocity": 127,
      "chip": "ym2612"
    },
    {
      "channel": 0,
      "note": 76,
      "start": 18.6273,
      "duration": 0.0727,
      "velocity": 107,
      "chip": "ym2612"
    },
    {
      "channel": 1,
      "note": 76,
      "start": 18.6775,
      "duration": 0.072,
      "velocity": 107,
      "chip": "ym2612"
    },
    {
      "channel": 0,
      "note": 78,
      "start": 18.73,
      "duration": 0.0687,
      "velocity": 107,
      "chip": "ym2612"
    },
    {
      "channel": 2,
      "note": 64,
      "start": 18.7317,
      "duration": 0.1167,
      "velocity": 107,
      "chip": "ym2612"
    },
    {
      "channel": 3,
      "note": 37,
      "start": 18.7337,
      "duration": 0.1024,
      "velocity": 127,
      "chip": "ym2612"
    },
    {
      "channel": 1,
      "note": 78,
      "start": 18.7793,
      "duration": 0.0689,
      "velocity": 107,
      "chip": "ym2612"
    },
    {
      "channel": 0,
      "note": 79,
      "start": 18.8247,
      "duration": 0.0729,
      "velocity": 107,
      "chip": "ym2612"
    },
    {
      "channel": 1,
      "note": 79,
      "start": 18.8741,
      "duration": 0.0728,
      "velocity": 107,
      "chip": "ym2612"
    },
    {
      "channel": 2,
      "note": 64,
      "start": 18.8758,
      "duration": 0.1206,
      "velocity": 107,
      "chip": "ym2612"
    },
    {
      "channel": 3,
      "note": 37,
      "start": 18.8778,
      "duration": 0.1064,
      "velocity": 127,
      "chip": "ym2612"
    },
    {
      "channel": 0,
      "note": 76,
      "start": 18.9234,
      "duration": 0.0727,
      "velocity": 107,
      "chip": "ym2612"
    },
    {
      "channel": 1,
      "note": 76,
      "start": 18.9729,
      "duration": 0.0974,
      "velocity": 107,
      "chip": "ym2612"
    },
    {
      "channel": 0,
      "note": 78,
      "start": 19.0261,
      "duration": 0.0934,
      "velocity": 107,
      "chip": "ym2612"
    },
    {
      "channel": 2,
      "note": 64,
      "start": 19.0319,
      "duration": 0.1373,
      "velocity": 107,
      "chip": "ym2612"
    },
    {
      "channel": 3,
      "note": 37,
      "start": 19.0383,
      "duration": 0.2792,
      "velocity": 127,
      "chip": "ym2612"
    },
    {
      "channel": 4,
      "note": 72,
      "start": 19.0439,
      "duration": 0.2739,
      "velocity": 107,
      "chip": "ym2612"
    },
    {
      "channel": 1,
      "note": 78,
      "start": 19.1,
      "duration": 0.069,
      "velocity": 107,
      "chip": "ym2612"
    },
    {
      "channel": 0,
      "note": 79,
      "start": 19.1467,
      "duration": 0.0716,
      "velocity": 107,
      "chip": "ym2612"
    },
    {
      "channel": 1,
      "note": 79,
      "start": 19.195,
      "duration": 0.0727,
      "velocity": 107,
      "chip": "ym2612"
    },
    {
      "channel": 2,
      "note": 64,
      "start": 19.1967,
      "duration": 0.1205,
      "velocity": 107,
      "chip": "ym2612"
    },
    {
      "channel": 5,
      "note": 72,
      "start": 19.2022,
      "duration": 0.264,
      "velocity": 107,
      "chip": "ym2612"
    },
    {
      "channel": 0,
      "note": 76,
      "start": 19.2443,
      "duration": 0.0727,
      "velocity": 107,
      "chip": "ym2612"
    },
    {
      "channel": 1,
      "note": 76,
      "start": 19.2937,
      "duration": 0.0732,
      "velocity": 107,
      "chip": "ym2612"
    },
    {
      "channel": 0,
      "note": 78,
      "start": 19.3469,
      "duration": 0.0688,
      "velocity": 107,
      "chip": "ym2612"
    },
    {
      "channel": 2,
      "note": 64,
      "start": 19.3486,
      "duration": 0.1167,
      "velocity": 107,
      "chip": "ym2612"
    },
    {
      "channel": 3,
      "note": 37,
      "start": 19.3507,
      "duration": 0.1024,
      "velocity": 127,
      "chip": "ym2612"
    },
    {
      "channel": 4,
      "note": 71,
      "start": 19.3523,
      "duration": 0.1137,
      "velocity": 107,
      "chip": "ym2612"
    },
    {
      "channel": 1,
      "note": 78,
      "start": 19.3962,
      "duration": 0.0689,
      "velocity": 107,
      "chip": "ym2612"
    },
    {
      "channel": 0,
      "note": 79,
      "start": 19.4417,
      "duration": 0.0727,
      "velocity": 107,
      "chip": "ym2612"
    },
    {
      "channel": 1,
      "note": 79,
      "start": 19.4911,
      "duration": 0.0727,
      "velocity": 107,
      "chip": "ym2612"
    },
    {
      "channel": 2,
      "note": 64,
      "start": 19.4928,
      "duration": 0.1206,
      "velocity": 107,
      "chip": "ym2612"
    },
    {
      "channel": 3,
      "note": 37,
      "start": 19.4948,
      "duration": 0.1071,
      "velocity": 127,
      "chip": "ym2612"
    },
    {
      "channel": 4,
      "note": 72,
      "start": 19.4963,
      "duration": 0.4137,
      "velocity": 107,
      "chip": "ym2612"
    },
    {
      "channel": 5,
      "note": 71,
      "start": 19.4979,
      "duration": 0.1163,
      "velocity": 107,
      "chip": "ym2612"
    },
    {
      "channel": 0,
      "note": 76,
      "start": 19.5404,
      "duration": 0.0727,
      "velocity": 107,
      "chip": "ym2612"
    },
    {
      "channel": 1,
      "note": 76,
      "start": 19.5899,
      "duration": 0.0727,
      "velocity": 107,
      "chip": "ym2612"
    },
    {
      "channel": 0,
      "note": 78,
      "start": 19.6431,
      "duration": 0.0687,
      "velocity": 107,
      "chip": "ym2612"
    },
    {
      "channel": 2,
      "note": 64,
      "start": 19.6448,
      "duration": 0.1167,
      "velocity": 107,
      "chip": "ym2612"
    },
    {
      "channel": 3,
      "note": 44,
      "start": 19.6468,
      "duration": 0.263,
      "velocity": 127,
      "chip": "ym2612"
    },
    {
      "channel": 5,
      "note": 72,
      "start": 19.6485,
      "duration": 0.4104,
      "velocity": 107,
      "chip": "ym2612"
    },
    {
      "channel": 1,
      "note": 78,
      "start": 19.6924,
      "duration": 0.069,
      "velocity": 107,
      "chip": "ym2612"
    },
    {
      "channel": 0,
      "note": 79,
      "start": 19.7378,
      "duration": 0.0727,
      "velocity": 107,
      "chip": "ym2612"
    },
    {
      "channel": 1,
      "note": 79,
      "start": 19.7873,
      "duration": 0.0727,
      "velocity": 107,
      "chip": "ym2612"
    },
    {
      "channel": 2,
      "note": 76,
      "start": 19.7889,
      "duration": 0.1206,
      "velocity": 107,
      "chip": "ym2612"
    },
    {
      "channel": 0,
      "note": 76,
      "start": 19.8375,
      "duration": 0.0717,
      "velocity": 107,
      "chip": "ym2612"
    },
    {
      "channel": 1,
      "note": 76,
      "start": 19.886,
      "duration": 0.0727,
      "velocity": 107,
      "chip": "ym2612"
    },
    {
      "channel": 0,
      "note": 78,
      "start": 19.9392,
      "duration": 0.0687,
      "velocity": 107,
      "chip": "ym2612"
    },
    {
      "channel": 2,
      "note": 64,
      "start": 19.941,
      "duration": 0.1172,
      "velocity": 107,
      "chip": "ym2612"
    },
    {
      "channel": 3,
      "note": 37,
      "start": 19.943,
      "duration": 0.1023,
      "velocity": 127,
      "chip": "ym2612"
    },
    {
      "channel": 4,
      "note": 72,
      "start": 19.9446,
      "duration": 0.2614,
      "velocity": 107,
      "chip": "ym2612"
    },
    {
      "channel": 1,
      "note": 78,
      "start": 19.9885,
      "duration": 0.0695,
      "velocity": 107,
      "chip": "ym2612"
    },
    {
      "channel": 0,
      "note": 79,
      "start": 20.0339,
      "duration": 0.0727,
      "velocity": 107,
      "chip": "ym2612"
    },
    {
      "channel": 1,
      "note": 79,
      "start": 20.0834,
      "duration": 0.0727,
      "velocity": 107,
      "chip": "ym2612"
    },
    {
      "channel": 2,
      "note": 64,
      "start": 20.085,
      "duration": 0.1207,
      "velocity": 107,
      "chip": "ym2612"
    },
    {
      "channel": 3,
      "note": 37,
      "start": 20.087,
      "duration": 0.2671,
      "velocity": 127,
      "chip": "ym2612"
    },
    {
      "channel": 5,
      "note": 72,
      "start": 20.0887,
      "duration": 0.2657,
      "velocity": 107,
      "chip": "ym2612"
    },
    {
      "channel": 0,
      "note": 76,
      "start": 20.1327,
      "duration": 0.0727,
      "velocity": 107,
      "chip": "ym2612"
    },
    {
      "channel": 1,
      "note": 76,
      "start": 20.1822,
      "duration": 0.0726,
      "velocity": 107,
      "chip": "ym2612"
    },
    {
      "channel": 0,
      "note": 78,
      "start": 20.2354,
      "duration": 0.0688,
      "velocity": 107,
      "chip": "ym2612"
    },
    {
      "channel": 2,
      "note": 64,
      "start": 20.2371,
      "duration": 0.1167,
      "velocity": 107,
      "chip": "ym2612"
    },
    {
      "channel": 4,
      "note": 71,
      "start": 20.2387,
      "duration": 0.1155,
      "velocity": 107,
      "chip": "ym2612"
    },
    {
      "channel": 1,
      "note": 78,
      "start": 20.2846,
      "duration": 0.0689,
      "velocity": 107,
      "chip": "ym2612"
    },
    {
      "channel": 0,
      "note": 79,
      "start": 20.3301,
      "duration": 0.0727,
      "velocity": 107,
      "chip": "ym2612"
    },
    {
      "channel": 1,
      "note": 79,
      "start": 20.3796,
      "duration": 0.0727,
      "velocity": 107,
      "chip": "ym2612"
    },
    {
      "channel": 2,
      "note": 64,
      "start": 20.3812,
      "duration": 0.1207,
      "velocity": 107,
      "chip": "ym2612"
    },
    {
      "channel": 3,
      "note": 37,
      "start": 20.3832,
      "duration": 0.1063,
      "velocity": 127,
      "chip": "ym2612"
    },
    {
      "channel": 4,
      "note": 72,
      "start": 20.3848,
      "duration": 1.0062,
      "velocity": 107,
      "chip": "ym2612"
    },
    {
      "channel": 5,
      "note": 71,
      "start": 20.3864,
      "duration": 0.1163,
      "velocity": 107,
      "chip": "ym2612"
    },
    {
      "channel": 0,
      "note": 76,
      "start": 20.4288,
      "duration": 0.0727,
      "velocity": 107,
      "chip": "ym2612"
    },
    {
      "channel": 1,
      "note": 76,
      "start": 20.4783,
      "duration": 0.0727,
      "velocity": 107,
      "chip": "ym2612"
    },
    {
      "channel": 0,
      "note": 78,
      "start": 20.5323,
      "duration": 0.0679,
      "velocity": 107,
      "chip": "ym2612"
    },
    {
      "channel": 2,
      "note": 64,
      "start": 20.534,
      "duration": 0.1159,
      "velocity": 107,
      "chip": "ym2612"
    },
    {
      "channel": 3,
      "note": 37,
      "start": 20.536,
      "duration": 0.1017,
      "velocity": 127,
      "chip": "ym2612"
    },
    {
      "channel": 5,
      "note": 72,
      "start": 20.5377,
      "duration": 1.001,
      "velocity": 107,
      "chip": "ym2612"
    },
    {
      "channel": 1,
      "note": 78,
      "start": 20.5808,
      "duration": 0.0689,
      "velocity": 107,
      "chip": "ym2612"
    },
    {
      "channel": 0,
      "note": 79,
      "start": 20.6263,
      "duration": 0.0726,
      "velocity": 107,
      "chip": "ym2612"
    },
    {
      "channel": 1,
      "note": 79,
      "start": 20.6757,
      "duration": 0.073,
      "velocity": 107,
      "chip": "ym2612"
    },
    {
      "channel": 2,
      "note": 64,
      "start": 20.6773,
      "duration": 0.1206,
      "velocity": 107,
      "chip": "ym2612"
    },
    {
      "channel": 3,
      "note": 37,
      "start": 20.6793,
      "duration": 0.1064,
      "velocity": 127,
      "chip": "ym2612"
    },
    {
      "channel": 0,
      "note": 76,
      "start": 20.725,
      "duration": 0.0726,
      "velocity": 107,
      "chip": "ym2612"
    },
    {
      "channel": 1,
      "note": 76,
      "start": 20.7744,
      "duration": 0.0727,
      "velocity": 107,
      "chip": "ym2612"
    },
    {
      "channel": 0,
      "note": 78,
      "start": 20.8276,
      "duration": 0.0687,
      "velocity": 107,
      "chip": "ym2612"
    },
    {
      "channel": 2,
      "note": 64,
      "start": 20.8294,
      "duration": 0.1167,
      "velocity": 107,
      "chip": "ym2612"
    },
    {
      "channel": 3,
      "note": 41,
      "start": 20.8314,
      "duration": 0.2136,
      "velocity": 127,
      "chip": "ym2612"
    },
    {
      "channel": 1,
      "note": 78,
      "start": 20.877,
      "duration": 0.0689,
      "velocity": 107,
      "chip": "ym2612"
    },
    {
      "channel": 0,
      "note": 79,
      "start": 20.9224,
      "duration": 0.0727,
      "velocity": 107,
      "chip": "ym2612"
    },
    {
      "channel": 1,
      "note": 79,
      "start": 20.9719,
      "duration": 0.0727,
      "velocity": 107,
      "chip": "ym2612"
    },
    {
      "channel": 2,
      "note": 74,
      "start": 20.9734,
      "duration": 0.1206,
      "velocity": 107,
      "chip": "ym2612"
    },
    {
      "channel": 0,
      "note": 76,
      "start": 21.0211,
      "duration": 0.0727,
      "velocity": 107,
      "chip": "ym2612"
    },
    {
      "channel": 1,
      "note": 76,
      "start": 21.0706,
      "duration": 0.0727,
      "velocity": 107,
      "chip": "ym2612"
    },
    {
      "channel": 0,
      "note": 78,
      "start": 21.1238,
      "duration": 0.0687,
      "velocity": 107,
      "chip": "ym2612"
    },
    {
      "channel": 2,
      "note": 64,
      "start": 21.1255,
      "duration": 0.1167,
      "velocity": 107,
      "chip": "ym2612"
    },
    {
      "channel": 3,
      "note": 37,
      "start": 21.1275,
      "duration": 0.1024,
      "velocity": 127,
      "chip": "ym2612"
    },
    {
      "channel": 1,
      "note": 78,
      "start": 21.173,
      "duration": 0.069,
      "velocity": 107,
      "chip": "ym2612"
    },
    {
      "channel": 0,
      "note": 79,
      "start": 21.2192,
      "duration": 0.072,
      "velocity": 107,
      "chip": "ym2612"
    },
    {
      "channel": 1,
      "note": 79,
      "start": 21.268,
      "duration": 0.0727,
      "velocity": 107,
      "chip": "ym2612"
    },
    {
      "channel": 2,
      "note": 64,
      "start": 21.2696,
      "duration": 0.1207,
      "velocity": 107,
      "chip": "ym2612"
    },
    {
      "channel": 3,
      "note": 37,
      "start": 21.2716,
      "duration": 0.1064,
      "velocity": 127,
      "chip": "ym2612"
    },
    {
      "channel": 0,
      "note": 76,
      "start": 21.3172,
      "duration": 0.0728,
      "velocity": 107,
      "chip": "ym2612"
    },
    {
      "channel": 1,
      "note": 76,
      "start": 21.3667,
      "duration": 0.0729,
      "velocity": 107,
      "chip": "ym2612"
    },
    {
      "channel": 0,
      "note": 78,
      "start": 21.4199,
      "duration": 0.0688,
      "velocity": 107,
      "chip": "ym2612"
    },
    {
      "channel": 2,
      "note": 64,
      "start": 21.4216,
      "duration": 0.1167,
      "velocity": 107,
      "chip": "ym2612"
    },
    {
      "channel": 3,
      "note": 37,
      "start": 21.4238,
      "duration": 0.2639,
      "velocity": 127,
      "chip": "ym2612"
    },
    {
      "channel": 4,
      "note": 73,
      "start": 21.4253,
      "duration": 0.2626,
      "velocity": 107,
      "chip": "ym2612"
    },
    {
      "channel": 1,
      "note": 78,
      "start": 21.4692,
      "duration": 0.0689,
      "velocity": 107,
      "chip": "ym2612"
    },
    {
      "channel": 0,
      "note": 79,
      "start": 21.5147,
      "duration": 0.0727,
      "velocity": 107,
      "chip": "ym2612"
    },
    {
      "channel": 1,
      "note": 79,
      "start": 21.5641,
      "duration": 0.0727,
      "velocity": 107,
      "chip": "ym2612"
    },
    {
      "channel": 2,
      "note": 64,
      "start": 21.5658,
      "duration": 0.1216,
      "velocity": 107,
      "chip": "ym2612"
    },
    {
      "channel": 5,
      "note": 73,
      "start": 21.5675,
      "duration": 0.2678,
      "velocity": 107,
      "chip": "ym2612"
    },
    {
      "channel": 0,
      "note": 76,
      "start": 21.6134,
      "duration": 0.0737,
      "velocity": 107,
      "chip": "ym2612"
    },
    {
      "channel": 1,
      "note": 76,
      "start": 21.6628,
      "duration": 0.0727,
      "velocity": 107,
      "chip": "ym2612"
    },
    {
      "channel": 0,
      "note": 78,
      "start": 21.7161,
      "duration": 0.0687,
      "velocity": 107,
      "chip": "ym2612"
    },
    {
      "channel": 2,
      "note": 64,
      "start": 21.7178,
      "duration": 0.1167,
      "velocity": 107,
      "chip": "ym2612"
    },
    {
      "channel": 3,
      "note": 37,
      "start": 21.7198,
      "duration": 0.1024,
      "velocity": 127,
      "chip": "ym2612"
    },
    {
      "channel": 4,
      "note": 72,
      "start": 21.7214,
      "duration": 0.1138,
      "velocity": 107,
      "chip": "ym2612"
    },
    {
      "channel": 1,
      "note": 78,
      "start": 21.7653,
      "duration": 0.069,
      "velocity": 107,
      "chip": "ym2612"
    },
    {
      "channel": 0,
      "note": 79,
      "start": 21.8108,
      "duration": 0.0727,
      "velocity": 107,
      "chip": "ym2612"
    },
    {
      "channel": 1,
      "note": 79,
      "start": 21.8603,
      "duration": 0.0727,
      "velocity": 107,
      "chip": "ym2612"
    },
    {
      "channel": 2,
      "note": 64,
      "start": 21.862,
      "duration": 0.1206,
      "velocity": 107,
      "chip": "ym2612"
    },
    {
      "channel": 3,
      "note": 37,
      "start": 21.8639,
      "duration": 0.1063,
      "velocity": 127,
      "chip": "ym2612"
    },
    {
      "channel": 4,
      "note": 73,
      "start": 21.8654,
      "duration": 0.4137,
      "velocity": 107,
      "chip": "ym2612"
    },
    {
      "channel": 5,
      "note": 72,
      "start": 21.867,
      "duration": 0.1163,
      "velocity": 107,
      "chip": "ym2612"
    },
    {
      "channel": 0,
      "note": 76,
      "start": 21.9101,
      "duration": 0.0721,
      "velocity": 107,
      "chip": "ym2612"
    },
    {
      "channel": 1,
      "note": 76,
      "start": 21.959,
      "duration": 0.0726,
      "velocity": 107,
      "chip": "ym2612"
    },
    {
      "channel": 0,
      "note": 78,
      "start": 22.0122,
      "duration": 0.0688,
      "velocity": 107,
      "chip": "ym2612"
    },
    {
      "channel": 2,
      "note": 64,
      "start": 22.0139,
      "duration": 0.1167,
      "velocity": 107,
      "chip": "ym2612"
    },
    {
      "channel": 3,
      "note": 44,
      "start": 22.0159,
      "duration": 0.263,
      "velocity": 127,
      "chip": "ym2612"
    },
    {
      "channel": 5,
      "note": 73,
      "start": 22.0176,
      "duration": 0.4099,
      "velocity": 107,
      "chip": "ym2612"
    },
    {
      "channel": 1,
      "note": 78,
      "start": 22.0615,
      "duration": 0.0689,
      "velocity": 107,
      "chip": "ym2612"
    },
    {
      "channel": 0,
      "note": 79,
      "start": 22.1069,
      "duration": 0.0727,
      "velocity": 107,
      "chip": "ym2612"
    },
    {
      "channel": 1,
      "note": 79,
      "start": 22.1564,
      "duration": 0.0727,
      "velocity": 107,
      "chip": "ym2612"
    },
    {
      "channel": 2,
      "note": 76,
      "start": 22.158,
      "duration": 0.1207,
      "velocity": 107,
      "chip": "ym2612"
    },
    {
      "channel": 0,
      "note": 76,
      "start": 22.2056,
      "duration": 0.0727,
      "velocity": 107,
      "chip": "ym2612"
    },
    {
      "channel": 1,
      "note": 76,
      "start": 22.2551,
      "duration": 0.0727,
      "velocity": 107,
      "chip": "ym2612"
    },
    {
      "channel": 0,
      "note": 78,
      "start": 22.3083,
      "duration": 0.0697,
      "velocity": 107,
      "chip": "ym2612"
    },
    {
      "channel": 2,
      "note": 64,
      "start": 22.3101,
      "duration": 0.1167,
      "velocity": 107,
      "chip": "ym2612"
    },
    {
      "channel": 3,
      "note": 37,
      "start": 22.3121,
      "duration": 0.1024,
      "velocity": 127,
      "chip": "ym2612"
    },
    {
      "channel": 4,
      "note": 73,
      "start": 22.3137,
      "duration": 0.2615,
      "velocity": 107,
      "chip": "ym2612"
    },
    {
      "channel": 1,
      "note": 78,
      "start": 22.3576,
      "duration": 0.069,
      "velocity": 107,
      "chip": "ym2612"
    },
    {
      "channel": 0,
      "note": 79,
      "start": 22.4031,
      "duration": 0.0726,
      "velocity": 107,
      "chip": "ym2612"
    },
    {
      "channel": 1,
      "note": 79,
      "start": 22.4525,
      "duration": 0.0727,
      "velocity": 107,
      "chip": "ym2612"
    },
    {
      "channel": 2,
      "note": 64,
      "start": 22.4542,
      "duration": 0.1206,
      "velocity": 107,
      "chip": "ym2612"
    },
    {
      "channel": 3,
      "note": 37,
      "start": 22.4561,
      "duration": 0.267,
      "velocity": 127,
      "chip": "ym2612"
    },
    {
      "channel": 5,
      "note": 73,
      "start": 22.4578,
      "duration": 0.2657,
      "velocity": 107,
      "chip": "ym2612"
    },
    {
      "channel": 0,
      "note": 76,
      "start": 22.5018,
      "duration": 0.0727,
      "velocity": 107,
      "chip": "ym2612"
    },
    {
      "channel": 1,
      "note": 76,
      "start": 22.5512,
      "duration": 0.0727,
      "velocity": 107,
      "chip": "ym2612"
    },
    {
      "channel": 0,
      "note": 78,
      "start": 22.6049,
      "duration": 0.0684,
      "velocity": 107,
      "chip": "ym2612"
    },
    {
      "channel": 2,
      "note": 64,
      "start": 22.6066,
      "duration": 0.1163,
      "velocity": 107,
      "chip": "ym2612"
    },
    {
      "channel": 4,
      "note": 72,
      "start": 22.6083,
      "duration": 0.1151,
      "velocity": 107,
      "chip": "ym2612"
    },
    {
      "channel": 1,
      "note": 78,
      "start": 22.6537,
      "duration": 0.069,
      "velocity": 107,
      "chip": "ym2612"
    },
    {
      "channel": 0,
      "note": 79,
      "start": 22.6992,
      "duration": 0.0727,
      "velocity": 107,
      "chip": "ym2612"
    },
    {
      "channel": 1,
      "note": 79,
      "start": 22.7487,
      "duration": 0.0727,
      "velocity": 107,
      "chip": "ym2612"
    },
    {
      "channel": 2,
      "note": 64,
      "start": 22.7503,
      "duration": 0.1206,
      "velocity": 107,
      "chip": "ym2612"
    },
    {
      "channel": 3,
      "note": 37,
      "start": 22.7523,
      "duration": 0.1064,
      "velocity": 127,
      "chip": "ym2612"
    },
    {
      "channel": 4,
      "note": 73,
      "start": 22.7539,
      "duration": 1.0069,
      "velocity": 107,
      "chip": "ym2612"
    },
    {
      "channel": 5,
      "note": 72,
      "start": 22.7554,
      "duration": 0.1163,
      "velocity": 107,
      "chip": "ym2612"
    },
    {
      "channel": 0,
      "note": 76,
      "start": 22.7979,
      "duration": 0.0727,
      "velocity": 107,
      "chip": "ym2612"
    },
    {
      "channel": 1,
      "note": 76,
      "start": 22.8474,
      "duration": 0.0727,
      "velocity": 107,
      "chip": "ym2612"
    },
    {
      "channel": 0,
      "note": 78,
      "start": 22.9006,
      "duration": 0.0688,
      "velocity": 107,
      "chip": "ym2612"
    },
    {
      "channel": 2,
      "note": 64,
      "start": 22.9023,
      "duration": 0.1167,
      "velocity": 107,
      "chip": "ym2612"
    },
    {
      "channel": 3,
      "note": 37,
      "start": 22.9043,
      "duration": 0.1025,
      "velocity": 127,
      "chip": "ym2612"
    },
    {
      "channel": 5,
      "note": 73,
      "start": 22.906,
      "duration": 1.0141,
      "velocity": 107,
      "chip": "ym2612"
    },
    {
      "channel": 1,
      "note": 78,
      "start": 22.9499,
      "duration": 0.069,
      "velocity": 107,
      "chip": "ym2612"
    },
    {
      "channel": 0,
      "note": 79,
      "start": 22.9953,
      "duration": 0.0735,
      "velocity": 107,
      "chip": "ym2612"
    },
    {
      "channel": 1,
      "note": 79,
      "start": 23.0448,
      "duration": 0.0727,
      "velocity": 107,
      "chip": "ym2612"
    },
    {
      "channel": 2,
      "note": 64,
      "start": 23.0464,
      "duration": 0.1207,
      "velocity": 107,
      "chip": "ym2612"
    },
    {
      "channel": 3,
      "note": 37,
      "start": 23.0484,
      "duration": 0.1064,
      "velocity": 127,
      "chip": "ym2612"
    },
    {
      "channel": 0,
      "note": 76,
      "start": 23.0941,
      "duration": 0.0727,
      "velocity": 107,
      "chip": "ym2612"
    },
    {
      "channel": 1,
      "note": 76,
      "start": 23.1436,
      "duration": 0.0727,
      "velocity": 107,
      "chip": "ym2612"
    },
    {
      "channel": 0,
      "note": 78,
      "start": 23.1967,
      "duration": 0.0688,
      "velocity": 107,
      "chip": "ym2612"
    },
    {
      "channel": 2,
      "note": 64,
      "start": 23.1985,
      "duration": 0.1167,
      "velocity": 107,
      "chip": "ym2612"
    },
    {
      "channel": 3,
      "note": 41,
      "start": 23.2005,
      "duration": 0.2135,
      "velocity": 127,
      "chip": "ym2612"
    },
    {
      "channel": 1,
      "note": 78,
      "start": 23.246,
      "duration": 0.0689,
      "velocity": 107,
      "chip": "ym2612"
    },
    {
      "channel": 0,
      "note": 79,
      "start": 23.2918,
      "duration": 0.0723,
      "velocity": 107,
      "chip": "ym2612"
    },
    {
      "channel": 1,
      "note": 79,
      "start": 23.341,
      "duration": 0.0727,
      "velocity": 107,
      "chip": "ym2612"
    },
    {
      "channel": 2,
      "note": 77,
      "start": 23.3426,
      "duration": 0.1206,
      "velocity": 107,
      "chip": "ym2612"
    },
    {
      "channel": 0,
      "note": 76,
      "start": 23.3902,
      "duration": 0.0727,
      "velocity": 107,
      "chip": "ym2612"
    },
    {
      "channel": 1,
      "note": 76,
      "start": 23.4397,
      "duration": 0.0727,
      "velocity": 107,
      "chip": "ym2612"
    },
    {
      "channel": 0,
      "note": 78,
      "start": 23.4929,
      "duration": 0.0687,
      "velocity": 107,
      "chip": "ym2612"
    },
    {
      "channel": 2,
      "note": 64,
      "start": 23.4946,
      "duration": 0.1167,
      "velocity": 107,
      "chip": "ym2612"
    },
    {
      "channel": 3,
      "note": 37,
      "start": 23.4967,
      "duration": 0.1024,
      "velocity": 127,
      "chip": "ym2612"
    },
    {
      "channel": 1,
      "note": 78,
      "start": 23.5433,
      "duration": 0.0677,
      "velocity": 107,
      "chip": "ym2612"
    },
    {
      "channel": 0,
      "note": 79,
      "start": 23.5876,
      "duration": 0.0727,
      "velocity": 107,
      "chip": "ym2612"
    },
    {
      "channel": 1,
      "note": 79,
      "start": 23.6371,
      "duration": 0.0727,
      "velocity": 107,
      "chip": "ym2612"
    },
    {
      "channel": 2,
      "note": 64,
      "start": 23.6387,
      "duration": 0.1213,
      "velocity": 107,
      "chip": "ym2612"
    },
    {
      "channel": 3,
      "note": 37,
      "start": 23.6407,
      "duration": 0.1064,
      "velocity": 127,
      "chip": "ym2612"
    },
    {
      "channel": 0,
      "note": 76,
      "start": 23.6864,
      "duration": 0.0733,
      "velocity": 107,
      "chip": "ym2612"
    },
    {
      "channel": 1,
      "note": 76,
      "start": 23.7358,
      "duration": 0.085,
      "velocity": 107,
      "chip": "ym2612"
    },
    {
      "channel": 0,
      "note": 78,
      "start": 23.789,
      "duration": 0.081,
      "velocity": 107,
      "chip": "ym2612"
    },
    {
      "channel": 2,
      "note": 64,
      "start": 23.7948,
      "duration": 0.1249,
      "velocity": 107,
      "chip": "ym2612"
    },
    {
      "channel": 3,
      "note": 37,
      "start": 23.797,
      "duration": 0.2711,
      "velocity": 127,
      "chip": "ym2612"
    },
    {
      "channel": 4,
      "note": 72,
      "start": 23.7988,
      "duration": 0.2695,
      "velocity": 107,
      "chip": "ym2612"
    },
    {
      "channel": 1,
      "note": 78,
      "start": 23.8506,
      "duration": 0.069,
      "velocity": 107,
      "chip": "ym2612"
    },
    {
      "channel": 0,
      "note": 79,
      "start": 23.8961,
      "duration": 0.0727,
      "velocity": 107,
      "chip": "ym2612"
    },
    {
      "channel": 1,
      "note": 79,
      "start": 23.9456,
      "duration": 0.0727,
      "velocity": 107,
      "chip": "ym2612"
    },
    {
      "channel": 2,
      "note": 64,
      "start": 23.9473,
      "duration": 0.1205,
      "velocity": 107,
      "chip": "ym2612"
    },
    {
      "channel": 5,
      "note": 72,
      "start": 23.9493,
      "duration": 0.2678,
      "velocity": 107,
      "chip": "ym2612"
    },
    {
      "channel": 0,
      "note": 76,
      "start": 23.9956,
      "duration": 0.0719,
      "velocity": 107,
      "chip": "ym2612"
    },
    {
      "channel": 1,
      "note": 76,
      "start": 24.0443,
      "duration": 0.0727,
      "velocity": 107,
      "chip": "ym2612"
    },
    {
      "channel": 0,
      "note": 78,
      "start": 24.0976,
      "duration": 0.0687,
      "velocity": 107,
      "chip": "ym2612"
    },
    {
      "channel": 2,
      "note": 64,
      "start": 24.0993,
      "duration": 0.1169,
      "velocity": 107,
      "chip": "ym2612"
    },
    {
      "channel": 3,
      "note": 37,
      "start": 24.1012,
      "duration": 0.1024,
      "velocity": 127,
      "chip": "ym2612"
    },
    {
      "channel": 4,
      "note": 71,
      "start": 24.1028,
      "duration": 0.1141,
      "velocity": 107,
      "chip": "ym2612"
    },
    {
      "channel": 1,
      "note": 78,
      "start": 24.1468,
      "duration": 0.0692,
      "velocity": 107,
      "chip": "ym2612"
    },
    {
      "channel": 0,
      "note": 79,
      "start": 24.1923,
      "duration": 0.0727,
      "velocity": 107,
      "chip": "ym2612"
    },
    {
      "channel": 1,
      "note": 79,
      "start": 24.2417,
      "duration": 0.0727,
      "velocity": 107,
      "chip": "ym2612"
    },
    {
      "channel": 2,
      "note": 64,
      "start": 24.2434,
      "duration": 0.1206,
      "velocity": 107,
      "chip": "ym2612"
    },
    {
      "channel": 3,
      "note": 37,
      "start": 24.2453,
      "duration": 0.1064,
      "velocity": 127,
      "chip": "ym2612"
    },
    {
      "channel": 4,
      "note": 72,
      "start": 24.2469,
      "duration": 0.4137,
      "velocity": 107,
      "chip": "ym2612"
    },
    {
      "channel": 5,
      "note": 71,
      "start": 24.2485,
      "duration": 0.1163,
      "velocity": 107,
      "chip": "ym2612"
    },
    {
      "channel": 0,
      "note": 76,
      "start": 24.291,
      "duration": 0.0727,
      "velocity": 107,
      "chip": "ym2612"
    },
    {
      "channel": 1,
      "note": 76,
      "start": 24.3404,
      "duration": 0.0727,
      "velocity": 107,
      "chip": "ym2612"
    },
    {
      "channel": 0,
      "note": 78,
      "start": 24.3937,
      "duration": 0.0687,
      "velocity": 107,
      "chip": "ym2612"
    },
    {
      "channel": 2,
      "note": 64,
      "start": 24.3954,
      "duration": 0.1166,
      "velocity": 107,
      "chip": "ym2612"
    },
    {
      "channel": 3,
      "note": 44,
      "start": 24.3974,
      "duration": 0.263,
      "velocity": 127,
      "chip": "ym2612"
    },
    {
      "channel": 5,
      "note": 72,
      "start": 24.3991,
      "duration": 0.4099,
      "velocity": 107,
      "chip": "ym2612"
    },
    {
      "channel": 1,
      "note": 78,
      "start": 24.443,
      "duration": 0.0688,
      "velocity": 107,
      "chip": "ym2612"
    },
    {
      "channel": 0,
      "note": 79,
      "start": 24.4884,
      "duration": 0.0727,
      "velocity": 107,
      "chip": "ym2612"
    },
    {
      "channel": 1,
      "note": 79,
      "start": 24.5378,
      "duration": 0.0727,
      "velocity": 107,
      "chip": "ym2612"
    },
    {
      "channel": 2,
      "note": 76,
      "start": 24.5395,
      "duration": 0.1206,
      "velocity": 107,
      "chip": "ym2612"
    },
    {
      "channel": 0,
      "note": 76,
      "start": 24.5871,
      "duration": 0.0727,
      "velocity": 107,
      "chip": "ym2612"
    },
    {
      "channel": 1,
      "note": 76,
      "start": 24.6366,
      "duration": 0.0727,
      "velocity": 107,
      "chip": "ym2612"
    },
    {
      "channel": 0,
      "note": 78,
      "start": 24.6904,
      "duration": 0.0681,
      "velocity": 107,
      "chip": "ym2612"
    },
    {
      "channel": 2,
      "note": 64,
      "start": 24.6922,
      "duration": 0.116,
      "velocity": 107,
      "chip": "ym2612"
    },
    {
      "channel": 3,
      "note": 37,
      "start": 24.6942,
      "duration": 0.1017,
      "velocity": 127,
      "chip": "ym2612"
    },
    {
      "channel": 4,
      "note": 72,
      "start": 24.6958,
      "duration": 0.2609,
      "velocity": 107,
      "chip": "ym2612"
    },
    {
      "channel": 1,
      "note": 78,
      "start": 24.739,
      "duration": 0.069,
      "velocity": 107,
      "chip": "ym2612"
    },
    {
      "channel": 0,
      "note": 79,
      "start": 24.7845,
      "duration": 0.0727,
      "velocity": 107,
      "chip": "ym2612"
    },
    {
      "channel": 1,
      "note": 79,
      "start": 24.834,
      "duration": 0.0729,
      "velocity": 107,
      "chip": "ym2612"
    },
    {
      "channel": 2,
      "note": 64,
      "start": 24.8356,
      "duration": 0.1207,
      "velocity": 107,
      "chip": "ym2612"
    },
    {
      "channel": 3,
      "note": 37,
      "start": 24.8376,
      "duration": 0.2671,
      "velocity": 127,
      "chip": "ym2612"
    },
    {
      "channel": 5,
      "note": 72,
      "start": 24.8393,
      "duration": 0.2657,
      "velocity": 107,
      "chip": "ym2612"
    },
    {
      "channel": 0,
      "note": 76,
      "start": 24.8832,
      "duration": 0.0727,
      "velocity": 107,
      "chip": "ym2612"
    },
    {
      "channel": 1,
      "note": 76,
      "start": 24.9327,
      "duration": 0.0727,
      "velocity": 107,
      "chip": "ym2612"
    },
    {
      "channel": 0,
      "note": 78,
      "start": 24.9859,
      "duration": 0.0687,
      "velocity": 107,
      "chip": "ym2612"
    },
    {
      "channel": 2,
      "note": 64,
      "start": 24.9876,
      "duration": 0.1167,
      "velocity": 107,
      "chip": "ym2612"
    },
    {
      "channel": 4,
      "note": 71,
      "start": 24.9893,
      "duration": 0.1155,
      "velocity": 107,
      "chip": "ym2612"
    },
    {
      "channel": 1,
      "note": 78,
      "start": 25.0352,
      "duration": 0.069,
      "velocity": 107,
      "chip": "ym2612"
    },
    {
      "channel": 0,
      "note": 79,
      "start": 25.0806,
      "duration": 0.0738,
      "velocity": 107,
      "chip": "ym2612"
    },
    {
      "channel": 1,
      "note": 79,
      "start": 25.1301,
      "duration": 0.0727,
      "velocity": 107,
      "chip": "ym2612"
    },
    {
      "channel": 2,
      "note": 64,
      "start": 25.1317,
      "duration": 0.1207,
      "velocity": 107,
      "chip": "ym2612"
    },
    {
      "channel": 3,
      "note": 37,
      "start": 25.1338,
      "duration": 0.1064,
      "velocity": 127,
      "chip": "ym2612"
    },
    {
      "channel": 4,
      "note": 72,
      "start": 25.1354,
      "duration": 1.0062,
      "velocity": 107,
      "chip": "ym2612"
    },
    {
      "channel": 5,
      "note": 71,
      "start": 25.1369,
      "duration": 0.1163,
      "velocity": 107,
      "chip": "ym2612"
    },
    {
      "channel": 0,
      "note": 76,
      "start": 25.1794,
      "duration": 0.0727,
      "velocity": 107,
      "chip": "ym2612"
    },
    {
      "channel": 1,
      "note": 76,
      "start": 25.2289,
      "duration": 0.0727,
      "velocity": 107,
      "chip": "ym2612"
    },
    {
      "channel": 0,
      "note": 78,
      "start": 25.282,
      "duration": 0.0688,
      "velocity": 107,
      "chip": "ym2612"
    },
    {
      "channel": 2,
      "note": 64,
      "start": 25.2838,
      "duration": 0.1167,
      "velocity": 107,
      "chip": "ym2612"
    },
    {
      "channel": 3,
      "note": 37,
      "start": 25.2857,
      "duration": 0.1025,
      "velocity": 127,
      "chip": "ym2612"
    },
    {
      "channel": 5,
      "note": 72,
      "start": 25.2875,
      "duration": 1.0018,
      "velocity": 107,
      "chip": "ym2612"
    },
    {
      "channel": 1,
      "note": 78,
      "start": 25.3313,
      "duration": 0.0689,
      "velocity": 107,
      "chip": "ym2612"
    },
    {
      "channel": 0,
      "note": 79,
      "start": 25.3774,
      "duration": 0.0722,
      "velocity": 107,
      "chip": "ym2612"
    },
    {
      "channel": 1,
      "note": 79,
      "start": 25.4263,
      "duration": 0.0726,
      "velocity": 107,
      "chip": "ym2612"
    },
    {
      "channel": 2,
      "note": 64,
      "start": 25.4279,
      "duration": 0.1206,
      "velocity": 107,
      "chip": "ym2612"
    },
    {
      "channel": 3,
      "note": 37,
      "start": 25.4299,
      "duration": 0.1064,
      "velocity": 127,
      "chip": "ym2612"
    },
    {
      "channel": 0,
      "note": 76,
      "start": 25.4756,
      "duration": 0.0727,
      "velocity": 107,
      "chip": "ym2612"
    },
    {
      "channel": 1,
      "note": 76,
      "start": 25.525,
      "duration": 0.0728,
      "velocity": 107,
      "chip": "ym2612"
    },
    {
      "channel": 0,
      "note": 78,
      "start": 25.5782,
      "duration": 0.0687,
      "velocity": 107,
      "chip": "ym2612"
    },
    {
      "channel": 2,
      "note": 64,
      "start": 25.5799,
      "duration": 0.1167,
      "velocity": 107,
      "chip": "ym2612"
    },
    {
      "channel": 3,
      "note": 41,
      "start": 25.582,
      "duration": 0.2136,
      "velocity": 127,
      "chip": "ym2612"
    },
    {
      "channel": 1,
      "note": 78,
      "start": 25.6275,
      "duration": 0.0689,
      "velocity": 107,
      "chip": "ym2612"
    },
    {
      "channel": 0,
      "note": 79,
      "start": 25.6729,
      "duration": 0.0727,
      "velocity": 107,
      "chip": "ym2612"
    },
    {
      "channel": 1,
      "note": 79,
      "start": 25.7224,
      "duration": 0.0727,
      "velocity": 107,
      "chip": "ym2612"
    },
    {
      "channel": 2,
      "note": 74,
      "start": 25.724,
      "duration": 0.1216,
      "velocity": 107,
      "chip": "ym2612"
    },
    {
      "channel": 0,
      "note": 76,
      "start": 25.7717,
      "duration": 0.0737,
      "velocity": 107,
      "chip": "ym2612"
    },
    {
      "channel": 1,
      "note": 76,
      "start": 25.8211,
      "duration": 0.0727,
      "velocity": 107,
      "chip": "ym2612"
    },
    {
      "channel": 0,
      "note": 78,
      "start": 25.8744,
      "duration": 0.0688,
      "velocity": 107,
      "chip": "ym2612"
    },
    {
      "channel": 2,
      "note": 64,
      "start": 25.8761,
      "duration": 0.1167,
      "velocity": 107,
      "chip": "ym2612"
    },
    {
      "channel": 3,
      "note": 37,
      "start": 25.8781,
      "duration": 0.1024,
      "velocity": 127,
      "chip": "ym2612"
    },
    {
      "channel": 1,
      "note": 78,
      "start": 25.9236,
      "duration": 0.069,
      "velocity": 107,
      "chip": "ym2612"
    },
    {
      "channel": 0,
      "note": 79,
      "start": 25.9691,
      "duration": 0.0726,
      "velocity": 107,
      "chip": "ym2612"
    },
    {
      "channel": 1,
      "note": 79,
      "start": 26.0185,
      "duration": 0.0727,
      "velocity": 107,
      "chip": "ym2612"
    },
    {
      "channel": 2,
      "note": 64,
      "start": 26.0201,
      "duration": 0.1207,
      "velocity": 107,
      "chip": "ym2612"
    },
    {
      "channel": 3,
      "note": 37,
      "start": 26.0221,
      "duration": 0.1064,
      "velocity": 127,
      "chip": "ym2612"
    },
    {
      "channel": 0,
      "note": 76,
      "start": 26.0682,
      "duration": 0.0723,
      "velocity": 107,
      "chip": "ym2612"
    },
    {
      "channel": 1,
      "note": 76,
      "start": 26.1173,
      "duration": 0.0727,
      "velocity": 107,
      "chip": "ym2612"
    },
    {
      "channel": 0,
      "note": 78,
      "start": 26.1705,
      "duration": 0.0688,
      "velocity": 107,
      "chip": "ym2612"
    },
    {
      "channel": 2,
      "note": 64,
      "start": 26.1722,
      "duration": 0.1167,
      "velocity": 107,
      "chip": "ym2612"
    },
    {
      "channel": 3,
      "note": 37,
      "start": 26.1744,
      "duration": 0.2629,
      "velocity": 127,
      "chip": "ym2612"
    },
    {
      "channel": 4,
      "note": 75,
      "start": 26.1759,
      "duration": 0.2615,
      "velocity": 107,
      "chip": "ym2612"
    },
    {
      "channel": 1,
      "note": 78,
      "start": 26.2197,
      "duration": 0.069,
      "velocity": 107,
      "chip": "ym2612"
    },
    {
      "channel": 0,
      "note": 79,
      "start": 26.2652,
      "duration": 0.0727,
      "velocity": 107,
      "chip": "ym2612"
    },
    {
      "channel": 1,
      "note": 79,
      "start": 26.3147,
      "duration": 0.0727,
      "velocity": 107,
      "chip": "ym2612"
    },
    {
      "channel": 2,
      "note": 64,
      "start": 26.3163,
      "duration": 0.1207,
      "velocity": 107,
      "chip": "ym2612"
    },
    {
      "channel": 5,
      "note": 75,
      "start": 26.3181,
      "duration": 0.2678,
      "velocity": 107,
      "chip": "ym2612"
    },
    {
      "channel": 0,
      "note": 76,
      "start": 26.3639,
      "duration": 0.0728,
      "velocity": 107,
      "chip": "ym2612"
    },
    {
      "channel": 1,
      "note": 76,
      "start": 26.4134,
      "duration": 0.0727,
      "velocity": 107,
      "chip": "ym2612"
    },
    {
      "channel": 0,
      "note": 78,
      "start": 26.4666,
      "duration": 0.0696,
      "velocity": 107,
      "chip": "ym2612"
    },
    {
      "channel": 2,
      "note": 64,
      "start": 26.4683,
      "duration": 0.1167,
      "velocity": 107,
      "chip": "ym2612"
    },
    {
      "channel": 3,
      "note": 37,
      "start": 26.4703,
      "duration": 0.1024,
      "velocity": 127,
      "chip": "ym2612"
    },
    {
      "channel": 4,
      "note": 74,
      "start": 26.4719,
      "duration": 0.1138,
      "velocity": 107,
      "chip": "ym2612"
    },
    {
      "channel": 1,
      "note": 78,
      "start": 26.5159,
      "duration": 0.069,
      "velocity": 107,
      "chip": "ym2612"
    },
    {
      "channel": 0,
      "note": 79,
      "start": 26.5614,
      "duration": 0.0727,
      "velocity": 107,
      "chip": "ym2612"
    },
    {
      "channel": 1,
      "note": 79,
      "start": 26.6108,
      "duration": 0.0727,
      "velocity": 107,
      "chip": "ym2612"
    },
    {
      "channel": 2,
      "note": 64,
      "start": 26.6124,
      "duration": 0.1207,
      "velocity": 107,
      "chip": "ym2612"
    },
    {
      "channel": 3,
      "note": 37,
      "start": 26.6144,
      "duration": 0.1064,
      "velocity": 127,
      "chip": "ym2612"
    },
    {
      "channel": 4,
      "note": 75,
      "start": 26.6159,
      "duration": 0.4137,
      "velocity": 107,
      "chip": "ym2612"
    },
    {
      "channel": 5,
      "note": 74,
      "start": 26.6175,
      "duration": 0.1163,
      "velocity": 107,
      "chip": "ym2612"
    },
    {
      "channel": 0,
      "note": 76,
      "start": 26.6601,
      "duration": 0.0727,
      "velocity": 107,
      "chip": "ym2612"
    },
    {
      "channel": 1,
      "note": 76,
      "start": 26.7096,
      "duration": 0.0726,
      "velocity": 107,
      "chip": "ym2612"
    },
    {
      "channel": 0,
      "note": 78,
      "start": 26.7632,
      "duration": 0.0684,
      "velocity": 107,
      "chip": "ym2612"
    },
    {
      "channel": 2,
      "note": 64,
      "start": 26.7649,
      "duration": 0.1163,
      "velocity": 107,
      "chip": "ym2612"
    },
    {
      "channel": 3,
      "note": 44,
      "start": 26.7668,
      "duration": 0.2627,
      "velocity": 127,
      "chip": "ym2612"
    },
    {
      "channel": 5,
      "note": 75,
      "start": 26.7685,
      "duration": 0.4095,
      "velocity": 107,
      "chip": "ym2612"
    },
    {
      "channel": 1,
      "note": 78,
      "start": 26.8121,
      "duration": 0.0689,
      "velocity": 107,
      "chip": "ym2612"
    },
    {
      "channel": 0,
      "note": 79,
      "start": 26.8575,
      "duration": 0.0727,
      "velocity": 107,
      "chip": "ym2612"
    },
    {
      "channel": 1,
      "note": 79,
      "start": 26.907,
      "duration": 0.0727,
      "velocity": 107,
      "chip": "ym2612"
    },
    {
      "channel": 2,
      "note": 76,
      "start": 26.9086,
      "duration": 0.1207,
      "velocity": 107,
      "chip": "ym2612"
    },
    {
      "channel": 0,
      "note": 76,
      "start": 26.9562,
      "duration": 0.0727,
      "velocity": 107,
      "chip": "ym2612"
    },
    {
      "channel": 1,
      "note": 76,
      "start": 27.0057,
      "duration": 0.0726,
      "velocity": 107,
      "chip": "ym2612"
    },
    {
      "channel": 0,
      "note": 78,
      "start": 27.059,
      "duration": 0.0687,
      "velocity": 107,
      "chip": "ym2612"
    },
    {
      "channel": 2,
      "note": 64,
      "start": 27.0607,
      "duration": 0.1166,
      "velocity": 107,
      "chip": "ym2612"
    },
    {
      "channel": 3,
      "note": 37,
      "start": 27.0626,
      "duration": 0.1024,
      "velocity": 127,
      "chip": "ym2612"
    },
    {
      "channel": 4,
      "note": 75,
      "start": 27.0642,
      "duration": 0.2619,
      "velocity": 107,
      "chip": "ym2612"
    },
    {
      "channel": 1,
      "note": 78,
      "start": 27.1082,
      "duration": 0.0689,
      "velocity": 107,
      "chip": "ym2612"
    },
    {
      "channel": 0,
      "note": 79,
      "start": 27.1537,
      "duration": 0.0733,
      "velocity": 107,
      "chip": "ym2612"
    },
    {
      "channel": 1,
      "note": 79,
      "start": 27.2031,
      "duration": 0.0728,
      "velocity": 107,
      "chip": "ym2612"
    },
    {
      "channel": 2,
      "note": 64,
      "start": 27.2047,
      "duration": 0.1207,
      "velocity": 107,
      "chip": "ym2612"
    },
    {
      "channel": 3,
      "note": 37,
      "start": 27.2067,
      "duration": 0.1065,
      "velocity": 127,
      "chip": "ym2612"
    },
    {
      "channel": 5,
      "note": 75,
      "start": 27.2084,
      "duration": 0.266,
      "velocity": 107,
      "chip": "ym2612"
    },
    {
      "channel": 0,
      "note": 76,
      "start": 27.2524,
      "duration": 0.0726,
      "velocity": 107,
      "chip": "ym2612"
    },
    {
      "channel": 1,
      "note": 76,
      "start": 27.3018,
      "duration": 0.0727,
      "velocity": 107,
      "chip": "ym2612"
    },
    {
      "channel": 0,
      "note": 78,
      "start": 27.355,
      "duration": 0.0688,
      "velocity": 107,
      "chip": "ym2612"
    },
    {
      "channel": 2,
      "note": 64,
      "start": 27.3567,
      "duration": 0.1168,
      "velocity": 107,
      "chip": "ym2612"
    },
    {
      "channel": 3,
      "note": 37,
      "start": 27.359,
      "duration": 0.1031,
      "velocity": 127,
      "chip": "ym2612"
    },
    {
      "channel": 4,
      "note": 74,
      "start": 27.3605,
      "duration": 0.1137,
      "velocity": 107,
      "chip": "ym2612"
    },
    {
      "channel": 1,
      "note": 78,
      "start": 27.4043,
      "duration": 0.069,
      "velocity": 107,
      "chip": "ym2612"
    },
    {
      "channel": 0,
      "note": 79,
      "start": 27.45,
      "duration": 0.0725,
      "velocity": 107,
      "chip": "ym2612"
    },
    {
      "channel": 1,
      "note": 79,
      "start": 27.4993,
      "duration": 0.0727,
      "velocity": 107,
      "chip": "ym2612"
    },
    {
      "channel": 2,
      "note": 64,
      "start": 27.5009,
      "duration": 0.1206,
      "velocity": 107,
      "chip": "ym2612"
    },
    {
      "channel": 3,
      "note": 37,
      "start": 27.5028,
      "duration": 0.1065,
      "velocity": 127,
      "chip": "ym2612"
    },
    {
      "channel": 4,
      "note": 75,
      "start": 27.5044,
      "duration": 1.0062,
      "velocity": 107,
      "chip": "ym2612"
    },
    {
      "channel": 5,
      "note": 74,
      "start": 27.506,
      "duration": 0.1163,
      "velocity": 107,
      "chip": "ym2612"
    },
    {
      "channel": 0,
      "note": 76,
      "start": 27.5485,
      "duration": 0.0727,
      "velocity": 107,
      "chip": "ym2612"
    },
    {
      "channel": 1,
      "note": 76,
      "start": 27.5979,
      "duration": 0.0727,
      "velocity": 107,
      "chip": "ym2612"
    },
    {
      "channel": 0,
      "note": 78,
      "start": 27.6512,
      "duration": 0.0688,
      "velocity": 107,
      "chip": "ym2612"
    },
    {
      "channel": 2,
      "note": 64,
      "start": 27.6529,
      "duration": 0.1167,
      "velocity": 107,
      "chip": "ym2612"
    },
    {
      "channel": 3,
      "note": 37,
      "start": 27.6549,
      "duration": 0.1024,
      "velocity": 127,
      "chip": "ym2612"
    },
    {
      "channel": 5,
      "note": 75,
      "start": 27.6565,
      "duration": 1.0142,
      "velocity": 107,
      "chip": "ym2612"
    },
    {
      "channel": 1,
      "note": 78,
      "start": 27.7015,
      "duration": 0.0679,
      "velocity": 107,
      "chip": "ym2612"
    },
    {
      "channel": 0,
      "note": 79,
      "start": 27.746,
      "duration": 0.0727,
      "velocity": 107,
      "chip": "ym2612"
    },
    {
      "channel": 1,
      "note": 79,
      "start": 27.7954,
      "duration": 0.0727,
      "velocity": 107,
      "chip": "ym2612"
    },
    {
      "channel": 2,
      "note": 64,
      "start": 27.797,
      "duration": 0.1212,
      "velocity": 107,
      "chip": "ym2612"
    },
    {
      "channel": 3,
      "note": 37,
      "start": 27.799,
      "duration": 0.1064,
      "velocity": 127,
      "chip": "ym2612"
    },
    {
      "channel": 0,
      "note": 76,
      "start": 27.8446,
      "duration": 0.0732,
      "velocity": 107,
      "chip": "ym2612"
    },
    {
      "channel": 1,
      "note": 76,
      "start": 27.8941,
      "duration": 0.0727,
      "velocity": 107,
      "chip": "ym2612"
    },
    {
      "channel": 0,
      "note": 78,
      "start": 27.9474,
      "duration": 0.0687,
      "velocity": 107,
      "chip": "ym2612"
    },
    {
      "channel": 2,
      "note": 64,
      "start": 27.9491,
      "duration": 0.1167,
      "velocity": 107,
      "chip": "ym2612"
    },
    {
      "channel": 3,
      "note": 37,
      "start": 27.9512,
      "duration": 0.1023,
      "velocity": 127,
      "chip": "ym2612"
    },
    {
      "channel": 1,
      "note": 78,
      "start": 27.9966,
      "duration": 0.0689,
      "velocity": 107,
      "chip": "ym2612"
    },
    {
      "channel": 0,
      "note": 79,
      "start": 28.0421,
      "duration": 0.0727,
      "velocity": 107,
      "chip": "ym2612"
    },
    {
      "channel": 1,
      "note": 79,
      "start": 28.0915,
      "duration": 0.0727,
      "velocity": 107,
      "chip": "ym2612"
    },
    {
      "channel": 2,
      "note": 77,
      "start": 28.0932,
      "duration": 0.1206,
      "velocity": 107,
      "chip": "ym2612"
    },
    {
      "channel": 3,
      "note": 37,
      "start": 28.0952,
      "duration": 0.1063,
      "velocity": 127,
      "chip": "ym2612"
    },
    {
      "channel": 0,
      "note": 76,
      "start": 28.1408,
      "duration": 0.0727,
      "velocity": 107,
      "chip": "ym2612"
    },
    {
      "channel": 1,
      "note": 76,
      "start": 28.1902,
      "duration": 0.0727,
      "velocity": 107,
      "chip": "ym2612"
    },
    {
      "channel": 0,
      "note": 78,
      "start": 28.2435,
      "duration": 0.0687,
      "velocity": 107,
      "chip": "ym2612"
    },
    {
      "channel": 2,
      "note": 64,
      "start": 28.2452,
      "duration": 0.1167,
      "velocity": 107,
      "chip": "ym2612"
    },
    {
      "channel": 3,
      "note": 37,
      "start": 28.2472,
      "duration": 0.1024,
      "velocity": 127,
      "chip": "ym2612"
    },
    {
      "channel": 1,
      "note": 78,
      "start": 28.2928,
      "duration": 0.0689,
      "velocity": 107,
      "chip": "ym2612"
    },
    {
      "channel": 0,
      "note": 79,
      "start": 28.3382,
      "duration": 0.0727,
      "velocity": 107,
      "chip": "ym2612"
    },
    {
      "channel": 1,
      "note": 79,
      "start": 28.3886,
      "duration": 0.0717,
      "velocity": 107,
      "chip": "ym2612"
    },
    {
      "channel": 2,
      "note": 64,
      "start": 28.3902,
      "duration": 0.1197,
      "velocity": 107,
      "chip": "ym2612"
    },
    {
      "channel": 3,
      "note": 37,
      "start": 28.3922,
      "duration": 0.1055,
      "velocity": 127,
      "chip": "ym2612"
    },
    {
      "channel": 0,
      "note": 76,
      "start": 28.4369,
      "duration": 0.0727,
      "velocity": 107,
      "chip": "ym2612"
    },
    {
      "channel": 1,
      "note": 76,
      "start": 28.4864,
      "duration": 0.0851,
      "velocity": 107,
      "chip": "ym2612"
    },
    {
      "channel": 0,
      "note": 78,
      "start": 28.5396,
      "duration": 0.0822,
      "velocity": 107,
      "chip": "ym2612"
    },
    {
      "channel": 2,
      "note": 64,
      "start": 28.5455,
      "duration": 0.1248,
      "velocity": 107,
      "chip": "ym2612"
    },
    {
      "channel": 3,
      "note": 37,
      "start": 28.548,
      "duration": 0.2707,
      "velocity": 127,
      "chip": "ym2612"
    },
    {
      "channel": 4,
      "note": 84,
      "start": 28.55,
      "duration": 0.2688,
      "velocity": 107,
      "chip": "ym2612"
    },
    {
      "channel": 1,
      "note": 78,
      "start": 28.6012,
      "duration": 0.069,
      "velocity": 107,
      "chip": "ym2612"
    },
    {
      "channel": 0,
      "note": 79,
      "start": 28.6467,
      "duration": 0.0727,
      "velocity": 107,
      "chip": "ym2612"
    },
    {
      "channel": 1,
      "note": 79,
      "start": 28.6962,
      "duration": 0.0727,
      "velocity": 107,
      "chip": "ym2612"
    },
    {
      "channel": 2,
      "note": 64,
      "start": 28.6979,
      "duration": 0.1205,
      "velocity": 107,
      "chip": "ym2612"
    },
    {
      "channel": 5,
      "note": 84,
      "start": 28.7,
      "duration": 0.2673,
      "velocity": 107,
      "chip": "ym2612"
    },
    {
      "channel": 0,
      "note": 76,
      "start": 28.7454,
      "duration": 0.0727,
      "velocity": 107,
      "chip": "ym2612"
    },
    {
      "channel": 1,
      "note": 76,
      "start": 28.7949,
      "duration": 0.0726,
      "velocity": 107,
      "chip": "ym2612"
    },
    {
      "channel": 0,
      "note": 78,
      "start": 28.8487,
      "duration": 0.0681,
      "velocity": 107,
      "chip": "ym2612"
    },
    {
      "channel": 2,
      "note": 64,
      "start": 28.8504,
      "duration": 0.116,
      "velocity": 107,
      "chip": "ym2612"
    },
    {
      "channel": 3,
      "note": 37,
      "start": 28.8524,
      "duration": 0.1018,
      "velocity": 127,
      "chip": "ym2612"
    },
    {
      "channel": 4,
      "note": 83,
      "start": 28.854,
      "duration": 0.1132,
      "velocity": 107,
      "chip": "ym2612"
    },
    {
      "channel": 1,
      "note": 78,
      "start": 28.8974,
      "duration": 0.0689,
      "velocity": 107,
      "chip": "ym2612"
    },
    {
      "channel": 0,
      "note": 79,
      "start": 28.9429,
      "duration": 0.0727,
      "velocity": 107,
      "chip": "ym2612"
    },
    {
      "channel": 1,
      "note": 79,
      "start": 28.9924,
      "duration": 0.0727,
      "velocity": 107,
      "chip": "ym2612"
    },
    {
      "channel": 2,
      "note": 64,
      "start": 28.9939,
      "duration": 0.1206,
      "velocity": 107,
      "chip": "ym2612"
    },
    {
      "channel": 3,
      "note": 37,
      "start": 28.9959,
      "duration": 0.1064,
      "velocity": 127,
      "chip": "ym2612"
    },
    {
      "channel": 4,
      "note": 84,
      "start": 28.9975,
      "duration": 0.4137,
      "velocity": 107,
      "chip": "ym2612"
    },
    {
      "channel": 5,
      "note": 83,
      "start": 28.9991,
      "duration": 0.1163,
      "velocity": 107,
      "chip": "ym2612"
    },
    {
      "channel": 0,
      "note": 76,
      "start": 29.0415,
      "duration": 0.0727,
      "velocity": 107,
      "chip": "ym2612"
    },
    {
      "channel": 1,
      "note": 76,
      "start": 29.091,
      "duration": 0.0726,
      "velocity": 107,
      "chip": "ym2612"
    },
    {
      "channel": 0,
      "note": 78,
      "start": 29.1443,
      "duration": 0.0687,
      "velocity": 107,
      "chip": "ym2612"
    },
    {
      "channel": 2,
      "note": 64,
      "start": 29.146,
      "duration": 0.1167,
      "velocity": 107,
      "chip": "ym2612"
    },
    {
      "channel": 3,
      "note": 44,
      "start": 29.1479,
      "duration": 0.263,
      "velocity": 127,
      "chip": "ym2612"
    },
    {
      "channel": 5,
      "note": 84,
      "start": 29.1497,
      "duration": 0.4099,
      "velocity": 107,
      "chip": "ym2612"
    },
    {
      "channel": 1,
      "note": 78,
      "start": 29.1935,
      "duration": 0.069,
      "velocity": 107,
      "chip": "ym2612"
    },
    {
      "channel": 0,
      "note": 79,
      "start": 29.239,
      "duration": 0.0737,
      "velocity": 107,
      "chip": "ym2612"
    },
    {
      "channel": 1,
      "note": 79,
      "start": 29.2884,
      "duration": 0.0727,
      "velocity": 107,
      "chip": "ym2612"
    },
    {
      "channel": 2,
      "note": 76,
      "start": 29.2901,
      "duration": 0.1206,
      "velocity": 107,
      "chip": "ym2612"
    },
    {
      "channel": 0,
      "note": 76,
      "start": 29.3377,
      "duration": 0.0726,
      "velocity": 107,
      "chip": "ym2612"
    },
    {
      "channel": 1,
      "note": 76,
      "start": 29.3871,
      "duration": 0.0727,
      "velocity": 107,
      "chip": "ym2612"
    },
    {
      "channel": 0,
      "note": 78,
      "start": 29.4404,
      "duration": 0.0687,
      "velocity": 107,
      "chip": "ym2612"
    },
    {
      "channel": 2,
      "note": 64,
      "start": 29.4421,
      "duration": 0.1167,
      "velocity": 107,
      "chip": "ym2612"
    },
    {
      "channel": 3,
      "note": 37,
      "start": 29.4441,
      "duration": 0.1024,
      "velocity": 127,
      "chip": "ym2612"
    },
    {
      "channel": 4,
      "note": 84,
      "start": 29.4457,
      "duration": 0.2618,
      "velocity": 107,
      "chip": "ym2612"
    },
    {
      "channel": 1,
      "note": 78,
      "start": 29.4896,
      "duration": 0.069,
      "velocity": 107,
      "chip": "ym2612"
    },
    {
      "channel": 0,
      "note": 79,
      "start": 29.5356,
      "duration": 0.0722,
      "velocity": 107,
      "chip": "ym2612"
    },
    {
      "channel": 1,
      "note": 79,
      "start": 29.5846,
      "duration": 0.0727,
      "velocity": 107,
      "chip": "ym2612"
    },
    {
      "channel": 2,
      "note": 64,
      "start": 29.5862,
      "duration": 0.1206,
      "velocity": 107,
      "chip": "ym2612"
    },
    {
      "channel": 3,
      "note": 37,
      "start": 29.5881,
      "duration": 0.1064,
      "velocity": 127,
      "chip": "ym2612"
    },
    {
      "channel": 5,
      "note": 84,
      "start": 29.5898,
      "duration": 0.266,
      "velocity": 107,
      "chip": "ym2612"
    },
    {
      "channel": 0,
      "note": 76,
      "start": 29.6338,
      "duration": 0.0727,
      "velocity": 107,
      "chip": "ym2612"
    },
    {
      "channel": 1,
      "note": 76,
      "start": 29.6832,
      "duration": 0.0727,
      "velocity": 107,
      "chip": "ym2612"
    },
    {
      "channel": 0,
      "note": 78,
      "start": 29.7365,
      "duration": 0.0688,
      "velocity": 107,
      "chip": "ym2612"
    },
    {
      "channel": 2,
      "note": 64,
      "start": 29.7382,
      "duration": 0.1167,
      "velocity": 107,
      "chip": "ym2612"
    },
    {
      "channel": 3,
      "note": 37,
      "start": 29.7402,
      "duration": 0.1025,
      "velocity": 127,
      "chip": "ym2612"
    },
    {
      "channel": 4,
      "note": 83,
      "start": 29.7418,
      "duration": 0.1138,
      "velocity": 107,
      "chip": "ym2612"
    },
    {
      "channel": 1,
      "note": 78,
      "start": 29.7857,
      "duration": 0.069,
      "velocity": 107,
      "chip": "ym2612"
    },
    {
      "channel": 0,
      "note": 79,
      "start": 29.8312,
      "duration": 0.0727,
      "velocity": 107,
      "chip": "ym2612"
    },
    {
      "channel": 1,
      "note": 79,
      "start": 29.8807,
      "duration": 0.0727,
      "velocity": 107,
      "chip": "ym2612"
    },
    {
      "channel": 2,
      "note": 64,
      "start": 29.8823,
      "duration": 0.1215,
      "velocity": 107,
      "chip": "ym2612"
    },
    {
      "channel": 3,
      "note": 37,
      "start": 29.8843,
      "duration": 0.1066,
      "velocity": 127,
      "chip": "ym2612"
    },
    {
      "channel": 4,
      "note": 84,
      "start": 29.8859,
      "duration": 1.0062,
      "velocity": 107,
      "chip": "ym2612"
    },
    {
      "channel": 5,
      "note": 83,
      "start": 29.8875,
      "duration": 0.1171,
      "velocity": 107,
      "chip": "ym2612"
    },
    {
      "channel": 0,
      "note": 76,
      "start": 29.9299,
      "duration": 0.0735,
      "velocity": 107,
      "chip": "ym2612"
    },
    {
      "channel": 1,
      "note": 76,
      "start": 29.9794,
      "duration": 0.0727,
      "velocity": 107,
      "chip": "ym2612"
    },
    {
      "channel": 0,
      "note": 78,
      "start": 30.0326,
      "duration": 0.0688,
      "velocity": 107,
      "chip": "ym2612"
    },
    {
      "channel": 2,
      "note": 64,
      "start": 30.0343,
      "duration": 0.1167,
      "velocity": 107,
      "chip": "ym2612"
    },
    {
      "channel": 3,
      "note": 37,
      "start": 30.0363,
      "duration": 0.1025,
      "velocity": 127,
      "chip": "ym2612"
    },
    {
      "channel": 5,
      "note": 84,
      "start": 30.038,
      "duration": 1.0142,
      "velocity": 107,
      "chip": "ym2612"
    },
    {
      "channel": 1,
      "note": 78,
      "start": 30.0819,
      "duration": 0.0689,
      "velocity": 107,
      "chip": "ym2612"
    },
    {
      "channel": 0,
      "note": 79,
      "start": 30.1274,
      "duration": 0.0727,
      "velocity": 107,
      "chip": "ym2612"
    },
    {
      "channel": 1,
      "note": 79,
      "start": 30.1769,
      "duration": 0.0727,
      "velocity": 107,
      "chip": "ym2612"
    },
    {
      "channel": 2,
      "note": 64,
      "start": 30.1785,
      "duration": 0.1206,
      "velocity": 107,
      "chip": "ym2612"
    },
    {
      "channel": 3,
      "note": 37,
      "start": 30.1805,
      "duration": 0.1064,
      "velocity": 127,
      "chip": "ym2612"
    },
    {
      "channel": 0,
      "note": 76,
      "start": 30.2264,
      "duration": 0.0723,
      "velocity": 107,
      "chip": "ym2612"
    },
    {
      "channel": 1,
      "note": 76,
      "start": 30.2756,
      "duration": 0.0726,
      "velocity": 107,
      "chip": "ym2612"
    },
    {
      "channel": 0,
      "note": 78,
      "start": 30.3288,
      "duration": 0.0687,
      "velocity": 107,
      "chip": "ym2612"
    },
    {
      "channel": 2,
      "note": 64,
      "start": 30.3305,
      "duration": 0.1167,
      "velocity": 107,
      "chip": "ym2612"
    },
    {
      "channel": 3,
      "note": 41,
      "start": 30.3325,
      "duration": 0.2136,
      "velocity": 127,
      "chip": "ym2612"
    },
    {
      "channel": 1,
      "note": 78,
      "start": 30.3781,
      "duration": 0.0689,
      "velocity": 107,
      "chip": "ym2612"
    },
    {
      "channel": 0,
      "note": 79,
      "start": 30.4235,
      "duration": 0.0727,
      "velocity": 107,
      "chip": "ym2612"
    },
    {
      "channel": 1,
      "note": 79,
      "start": 30.4729,
      "duration": 0.0727,
      "velocity": 107,
      "chip": "ym2612"
    },
    {
      "channel": 2,
      "note": 74,
      "start": 30.4746,
      "duration": 0.1206,
      "velocity": 107,
      "chip": "ym2612"
    },
    {
      "channel": 0,
      "note": 76,
      "start": 30.5222,
      "duration": 0.0727,
      "velocity": 107,
      "chip": "ym2612"
    },
    {
      "channel": 1,
      "note": 76,
      "start": 30.5717,
      "duration": 0.0727,
      "velocity": 107,
      "chip": "ym2612"
    },
    {
      "channel": 0,
      "note": 78,
      "start": 30.6249,
      "duration": 0.0695,
      "velocity": 107,
      "chip": "ym2612"
    },
    {
      "channel": 2,
      "note": 64,
      "start": 30.6267,
      "duration": 0.1166,
      "velocity": 107,
      "chip": "ym2612"
    },
    {
      "channel": 3,
      "note": 37,
      "start": 30.6287,
      "duration": 0.1024,
      "velocity": 127,
      "chip": "ym2612"
    },
    {
      "channel": 1,
      "note": 78,
      "start": 30.6741,
      "duration": 0.069,
      "velocity": 107,
      "chip": "ym2612"
    },
    {
      "channel": 0,
      "note": 79,
      "start": 30.7196,
      "duration": 0.0728,
      "velocity": 107,
      "chip": "ym2612"
    },
    {
      "channel": 1,
      "note": 79,
      "start": 30.7691,
      "duration": 0.0727,
      "velocity": 107,
      "chip": "ym2612"
    },
    {
      "channel": 2,
      "note": 64,
      "start": 30.7707,
      "duration": 0.1207,
      "velocity": 107,
      "chip": "ym2612"
    },
    {
      "channel": 3,
      "note": 37,
      "start": 30.7727,
      "duration": 0.1064,
      "velocity": 127,
      "chip": "ym2612"
    },
    {
      "channel": 0,
      "note": 76,
      "start": 30.8184,
      "duration": 0.0727,
      "velocity": 107,
      "chip": "ym2612"
    },
    {
      "channel": 1,
      "note": 76,
      "start": 30.8678,
      "duration": 0.0851,
      "velocity": 107,
      "chip": "ym2612"
    },
    {
      "channel": 0,
      "note": 78,
      "start": 30.9212,
      "duration": 0.0809,
      "velocity": 107,
      "chip": "ym2612"
    },
    {
      "channel": 2,
      "note": 64,
      "start": 30.9229,
      "duration": 0.1289,
      "velocity": 107,
      "chip": "ym2612"
    },
    {
      "channel": 3,
      "note": 37,
      "start": 30.9251,
      "duration": 0.275,
      "velocity": 127,
      "chip": "ym2612"
    },
    {
      "channel": 4,
      "note": 85,
      "start": 30.9267,
      "duration": 0.2736,
      "velocity": 107,
      "chip": "ym2612"
    },
    {
      "channel": 1,
      "note": 78,
      "start": 30.9826,
      "duration": 0.069,
      "velocity": 107,
      "chip": "ym2612"
    },
    {
      "channel": 0,
      "note": 79,
      "start": 31.0282,
      "duration": 0.0727,
      "velocity": 107,
      "chip": "ym2612"
    },
    {
      "channel": 1,
      "note": 79,
      "start": 31.0776,
      "duration": 0.0731,
      "velocity": 107,
      "chip": "ym2612"
    },
    {
      "channel": 2,
      "note": 64,
      "start": 31.0792,
      "duration": 0.1207,
      "velocity": 107,
      "chip": "ym2612"
    },
    {
      "channel": 5,
      "note": 85,
      "start": 31.081,
      "duration": 0.2678,
      "velocity": 107,
      "chip": "ym2612"
    },
    {
      "channel": 0,
      "note": 76,
      "start": 31.1269,
      "duration": 0.0727,
      "velocity": 107,
      "chip": "ym2612"
    },
    {
      "channel": 1,
      "note": 76,
      "start": 31.1764,
      "duration": 0.0727,
      "velocity": 107,
      "chip": "ym2612"
    },
    {
      "channel": 0,
      "note": 78,
      "start": 31.2296,
      "duration": 0.0687,
      "velocity": 107,
      "chip": "ym2612"
    },
    {
      "channel": 2,
      "note": 64,
      "start": 31.2313,
      "duration": 0.1167,
      "velocity": 107,
      "chip": "ym2612"
    },
    {
      "channel": 3,
      "note": 37,
      "start": 31.2333,
      "duration": 0.1024,
      "velocity": 127,
      "chip": "ym2612"
    },
    {
      "channel": 4,
      "note": 84,
      "start": 31.2349,
      "duration": 0.1137,
      "velocity": 107,
      "chip": "ym2612"
    },
    {
      "channel": 1,
      "note": 78,
      "start": 31.2788,
      "duration": 0.0689,
      "velocity": 107,
      "chip": "ym2612"
    },
    {
      "channel": 0,
      "note": 79,
      "start": 31.3243,
      "duration": 0.0727,
      "velocity": 107,
      "chip": "ym2612"
    },
    {
      "channel": 1,
      "note": 79,
      "start": 31.3737,
      "duration": 0.0727,
      "velocity": 107,
      "chip": "ym2612"
    },
    {
      "channel": 2,
      "note": 64,
      "start": 31.3754,
      "duration": 0.1206,
      "velocity": 107,
      "chip": "ym2612"
    },
    {
      "channel": 3,
      "note": 37,
      "start": 31.3773,
      "duration": 0.1064,
      "velocity": 127,
      "chip": "ym2612"
    },
    {
      "channel": 4,
      "note": 85,
      "start": 31.3789,
      "duration": 0.4137,
      "velocity": 107,
      "chip": "ym2612"
    },
    {
      "channel": 5,
      "note": 84,
      "start": 31.3805,
      "duration": 0.1163,
      "velocity": 107,
      "chip": "ym2612"
    },
    {
      "channel": 0,
      "note": 76,
      "start": 31.423,
      "duration": 0.0727,
      "velocity": 107,
      "chip": "ym2612"
    },
    {
      "channel": 1,
      "note": 76,
      "start": 31.4724,
      "duration": 0.0727,
      "velocity": 107,
      "chip": "ym2612"
    },
    {
      "channel": 0,
      "note": 78,
      "start": 31.5257,
      "duration": 0.0688,
      "velocity": 107,
      "chip": "ym2612"
    },
    {
      "channel": 2,
      "note": 64,
      "start": 31.5274,
      "duration": 0.1167,
      "velocity": 107,
      "chip": "ym2612"
    },
    {
      "channel": 3,
      "note": 44,
      "start": 31.5294,
      "duration": 0.263,
      "velocity": 127,
      "chip": "ym2612"
    },
    {
      "channel": 5,
      "note": 85,
      "start": 31.5311,
      "duration": 0.41,
      "velocity": 107,
      "chip": "ym2612"
    },
    {
      "channel": 1,
      "note": 78,
      "start": 31.5749,
      "duration": 0.069,
      "velocity": 107,
      "chip": "ym2612"
    },
    {
      "channel": 0,
      "note": 79,
      "start": 31.6212,
      "duration": 0.072,
      "velocity": 107,
      "chip": "ym2612"
    },
    {
      "channel": 1,
      "note": 79,
      "start": 31.6699,
      "duration": 0.0727,
      "velocity": 107,
      "chip": "ym2612"
    },
    {
      "channel": 2,
      "note": 76,
      "start": 31.6715,
      "duration": 0.1207,
      "velocity": 107,
      "chip": "ym2612"
    },
    {
      "channel": 0,
      "note": 76,
      "start": 31.7191,
      "duration": 0.0727,
      "velocity": 107,
      "chip": "ym2612"
    },
    {
      "channel": 1,
      "note": 76,
      "start": 31.7686,
      "duration": 0.0729,
      "velocity": 107,
      "chip": "ym2612"
    },
    {
      "channel": 0,
      "note": 78,
      "start": 31.8218,
      "duration": 0.0688,
      "velocity": 107,
      "chip": "ym2612"
    },
    {
      "channel": 2,
      "note": 64,
      "start": 31.8235,
      "duration": 0.1168,
      "velocity": 107,
      "chip": "ym2612"
    },
    {
      "channel": 3,
      "note": 37,
      "start": 31.8256,
      "duration": 0.1024,
      "velocity": 127,
      "chip": "ym2612"
    },
    {
      "channel": 4,
      "note": 85,
      "start": 31.8271,
      "duration": 0.2629,
      "velocity": 107,
      "chip": "ym2612"
    },
    {
      "channel": 1,
      "note": 78,
      "start": 31.8711,
      "duration": 0.069,
      "velocity": 107,
      "chip": "ym2612"
    },
    {
      "channel": 0,
      "note": 79,
      "start": 31.9166,
      "duration": 0.0727,
      "velocity": 107,
      "chip": "ym2612"
    },
    {
      "channel": 1,
      "note": 79,
      "start": 31.966,
      "duration": 0.0727,
      "velocity": 107,
      "chip": "ym2612"
    },
    {
      "channel": 2,
      "note": 64,
      "start": 31.9676,
      "duration": 0.1218,
      "velocity": 107,
      "chip": "ym2612"
    },
    {
      "channel": 3,
      "note": 37,
      "start": 31.9696,
      "duration": 0.1069,
      "velocity": 127,
      "chip": "ym2612"
    },
    {
      "channel": 5,
      "note": 85,
      "start": 31.9713,
      "duration": 0.266,
      "velocity": 107,
      "chip": "ym2612"
    },
    {
      "channel": 0,
      "note": 76,
      "start": 32.0152,
      "duration": 0.0739,
      "velocity": 107,
      "chip": "ym2612"
    },
    {
      "channel": 1,
      "note": 76,
      "start": 32.0647,
      "duration": 0.0727,
      "velocity": 107,
      "chip": "ym2612"
    },
    {
      "channel": 0,
      "note": 78,
      "start": 32.1179,
      "duration": 0.0688,
      "velocity": 107,
      "chip": "ym2612"
    },
    {
      "channel": 2,
      "note": 64,
      "start": 32.1196,
      "duration": 0.1167,
      "velocity": 107,
      "chip": "ym2612"
    },
    {
      "channel": 3,
      "note": 37,
      "start": 32.1216,
      "duration": 0.1025,
      "velocity": 127,
      "chip": "ym2612"
    },
    {
      "channel": 4,
      "note": 84,
      "start": 32.1232,
      "duration": 0.1139,
      "velocity": 107,
      "chip": "ym2612"
    },
    {
      "channel": 1,
      "note": 78,
      "start": 32.1672,
      "duration": 0.069,
      "velocity": 107,
      "chip": "ym2612"
    },
    {
      "channel": 0,
      "note": 79,
      "start": 32.2127,
      "duration": 0.0727,
      "velocity": 107,
      "chip": "ym2612"
    },
    {
      "channel": 1,
      "note": 79,
      "start": 32.2621,
      "duration": 0.0727,
      "velocity": 107,
      "chip": "ym2612"
    },
    {
      "channel": 2,
      "note": 64,
      "start": 32.2638,
      "duration": 0.1206,
      "velocity": 107,
      "chip": "ym2612"
    },
    {
      "channel": 3,
      "note": 37,
      "start": 32.2658,
      "duration": 0.1064,
      "velocity": 127,
      "chip": "ym2612"
    },
    {
      "channel": 4,
      "note": 85,
      "start": 32.2673,
      "duration": 1.0062,
      "velocity": 107,
      "chip": "ym2612"
    },
    {
      "channel": 5,
      "note": 84,
      "start": 32.2689,
      "duration": 0.1163,
      "velocity": 107,
      "chip": "ym2612"
    },
    {
      "channel": 0,
      "note": 76,
      "start": 32.3121,
      "duration": 0.0721,
      "velocity": 107,
      "chip": "ym2612"
    },
    {
      "channel": 1,
      "note": 76,
      "start": 32.3609,
      "duration": 0.0727,
      "velocity": 107,
      "chip": "ym2612"
    },
    {
      "channel": 0,
      "note": 78,
      "start": 32.4141,
      "duration": 0.0687,
      "velocity": 107,
      "chip": "ym2612"
    },
    {
      "channel": 2,
      "note": 64,
      "start": 32.4158,
      "duration": 0.1168,
      "velocity": 107,
      "chip": "ym2612"
    },
    {
      "channel": 3,
      "note": 37,
      "start": 32.4178,
      "duration": 0.1025,
      "velocity": 127,
      "chip": "ym2612"
    },
    {
      "channel": 5,
      "note": 85,
      "start": 32.4195,
      "duration": 1.0141,
      "velocity": 107,
      "chip": "ym2612"
    },
    {
      "channel": 1,
      "note": 78,
      "start": 32.4633,
      "duration": 0.0691,
      "velocity": 107,
      "chip": "ym2612"
    },
    {
      "channel": 0,
      "note": 79,
      "start": 32.5089,
      "duration": 0.0727,
      "velocity": 107,
      "chip": "ym2612"
    },
    {
      "channel": 1,
      "note": 79,
      "start": 32.5583,
      "duration": 0.0726,
      "velocity": 107,
      "chip": "ym2612"
    },
    {
      "channel": 2,
      "note": 64,
      "start": 32.56,
      "duration": 0.1206,
      "velocity": 107,
      "chip": "ym2612"
    },
    {
      "channel": 3,
      "note": 37,
      "start": 32.562,
      "duration": 0.1063,
      "velocity": 127,
      "chip": "ym2612"
    },
    {
      "channel": 0,
      "note": 76,
      "start": 32.6076,
      "duration": 0.0727,
      "velocity": 107,
      "chip": "ym2612"
    },
    {
      "channel": 1,
      "note": 76,
      "start": 32.657,
      "duration": 0.0727,
      "velocity": 107,
      "chip": "ym2612"
    },
    {
      "channel": 0,
      "note": 78,
      "start": 32.7103,
      "duration": 0.0697,
      "velocity": 107,
      "chip": "ym2612"
    },
    {
      "channel": 2,
      "note": 64,
      "start": 32.712,
      "duration": 0.1166,
      "velocity": 107,
      "chip": "ym2612"
    },
    {
      "channel": 3,
      "note": 41,
      "start": 32.714,
      "duration": 0.2136,
      "velocity": 127,
      "chip": "ym2612"
    },
    {
      "channel": 1,
      "note": 78,
      "start": 32.7595,
      "duration": 0.0689,
      "velocity": 107,
      "chip": "ym2612"
    },
    {
      "channel": 0,
      "note": 79,
      "start": 32.805,
      "duration": 0.0726,
      "velocity": 107,
      "chip": "ym2612"
    },
    {
      "channel": 1,
      "note": 79,
      "start": 32.8544,
      "duration": 0.0727,
      "velocity": 107,
      "chip": "ym2612"
    },
    {
      "channel": 2,
      "note": 77,
      "start": 32.856,
      "duration": 0.1207,
      "velocity": 107,
      "chip": "ym2612"
    },
    {
      "channel": 0,
      "note": 76,
      "start": 32.9037,
      "duration": 0.0727,
      "velocity": 107,
      "chip": "ym2612"
    },
    {
      "channel": 1,
      "note": 76,
      "start": 32.9532,
      "duration": 0.0727,
      "velocity": 107,
      "chip": "ym2612"
    },
    {
      "channel": 0,
      "note": 78,
      "start": 33.0068,
      "duration": 0.0683,
      "velocity": 107,
      "chip": "ym2612"
    },
    {
      "channel": 2,
      "note": 64,
      "start": 33.0086,
      "duration": 0.1161,
      "velocity": 107,
      "chip": "ym2612"
    },
    {
      "channel": 3,
      "note": 37,
      "start": 33.0106,
      "duration": 0.1019,
      "velocity": 127,
      "chip": "ym2612"
    },
    {
      "channel": 1,
      "note": 78,
      "start": 33.0556,
      "duration": 0.0689,
      "velocity": 107,
      "chip": "ym2612"
    },
    {
      "channel": 0,
      "note": 79,
      "start": 33.1011,
      "duration": 0.0727,
      "velocity": 107,
      "chip": "ym2612"
    },
    {
      "channel": 1,
      "note": 79,
      "start": 33.1505,
      "duration": 0.0727,
      "velocity": 107,
      "chip": "ym2612"
    },
    {
      "channel": 2,
      "note": 64,
      "start": 33.1522,
      "duration": 0.1206,
      "velocity": 107,
      "chip": "ym2612"
    },
    {
      "channel": 3,
      "note": 37,
      "start": 33.1542,
      "duration": 0.1064,
      "velocity": 127,
      "chip": "ym2612"
    },
    {
      "channel": 0,
      "note": 76,
      "start": 33.1998,
      "duration": 0.0727,
      "velocity": 107,
      "chip": "ym2612"
    },
    {
      "channel": 1,
      "note": 76,
      "start": 33.2493,
      "duration": 0.0851,
      "velocity": 107,
      "chip": "ym2612"
    },
    {
      "channel": 0,
      "note": 78,
      "start": 33.3025,
      "duration": 0.081,
      "velocity": 107,
      "chip": "ym2612"
    },
    {
      "channel": 2,
      "note": 64,
      "start": 33.3083,
      "duration": 0.1249,
      "velocity": 107,
      "chip": "ym2612"
    },
    {
      "channel": 3,
      "note": 37,
      "start": 33.3105,
      "duration": 0.2711,
      "velocity": 127,
      "chip": "ym2612"
    },
    {
      "channel": 4,
      "note": 84,
      "start": 33.3123,
      "duration": 0.2695,
      "velocity": 107,
      "chip": "ym2612"
    },
    {
      "channel": 1,
      "note": 78,
      "start": 33.3642,
      "duration": 0.0689,
      "velocity": 107,
      "chip": "ym2612"
    },
    {
      "channel": 0,
      "note": 79,
      "start": 33.4097,
      "duration": 0.0726,
      "velocity": 107,
      "chip": "ym2612"
    },
    {
      "channel": 1,
      "note": 79,
      "start": 33.4593,
      "duration": 0.0725,
      "velocity": 107,
      "chip": "ym2612"
    },
    {
      "channel": 2,
      "note": 64,
      "start": 33.461,
      "duration": 0.1204,
      "velocity": 107,
      "chip": "ym2612"
    },
    {
      "channel": 5,
      "note": 84,
      "start": 33.4631,
      "duration": 0.2672,
      "velocity": 107,
      "chip": "ym2612"
    },
    {
      "channel": 0,
      "note": 76,
      "start": 33.5083,
      "duration": 0.0727,
      "velocity": 107,
      "chip": "ym2612"
    },
    {
      "channel": 1,
      "note": 76,
      "start": 33.5577,
      "duration": 0.0727,
      "velocity": 107,
      "chip": "ym2612"
    },
    {
      "channel": 0,
      "note": 78,
      "start": 33.611,
      "duration": 0.0687,
      "velocity": 107,
      "chip": "ym2612"
    },
    {
      "channel": 2,
      "note": 64,
      "start": 33.6128,
      "duration": 0.1166,
      "velocity": 107,
      "chip": "ym2612"
    },
    {
      "channel": 3,
      "note": 37,
      "start": 33.6147,
      "duration": 0.1024,
      "velocity": 127,
      "chip": "ym2612"
    },
    {
      "channel": 4,
      "note": 83,
      "start": 33.6163,
      "duration": 0.1137,
      "velocity": 107,
      "chip": "ym2612"
    },
    {
      "channel": 1,
      "note": 78,
      "start": 33.6603,
      "duration": 0.0689,
      "velocity": 107,
      "chip": "ym2612"
    },
    {
      "channel": 0,
      "note": 79,
      "start": 33.7068,
      "duration": 0.0716,
      "velocity": 107,
      "chip": "ym2612"
    },
    {
      "channel": 1,
      "note": 79,
      "start": 33.7552,
      "duration": 0.0727,
      "velocity": 107,
      "chip": "ym2612"
    },
    {
      "channel": 2,
      "note": 64,
      "start": 33.7568,
      "duration": 0.1206,
      "velocity": 107,
      "chip": "ym2612"
    },
    {
      "channel": 3,
      "note": 37,
      "start": 33.7588,
      "duration": 0.1064,
      "velocity": 127,
      "chip": "ym2612"
    },
    {
      "channel": 4,
      "note": 84,
      "start": 33.7604,
      "duration": 0.4137,
      "velocity": 107,
      "chip": "ym2612"
    },
    {
      "channel": 5,
      "note": 83,
      "start": 33.762,
      "duration": 0.1162,
      "velocity": 107,
      "chip": "ym2612"
    },
    {
      "channel": 0,
      "note": 76,
      "start": 33.8044,
      "duration": 0.0727,
      "velocity": 107,
      "chip": "ym2612"
    },
    {
      "channel": 1,
      "note": 76,
      "start": 33.8539,
      "duration": 0.0733,
      "velocity": 107,
      "chip": "ym2612"
    },
    {
      "channel": 0,
      "note": 78,
      "start": 33.9071,
      "duration": 0.0688,
      "velocity": 107,
      "chip": "ym2612"
    },
    {
      "channel": 2,
      "note": 64,
      "start": 33.9089,
      "duration": 0.1167,
      "velocity": 107,
      "chip": "ym2612"
    },
    {
      "channel": 3,
      "note": 44,
      "start": 33.9109,
      "duration": 0.263,
      "velocity": 127,
      "chip": "ym2612"
    },
    {
      "channel": 5,
      "note": 84,
      "start": 33.9126,
      "duration": 0.4099,
      "velocity": 107,
      "chip": "ym2612"
    },
    {
      "channel": 1,
      "note": 78,
      "start": 33.9564,
      "duration": 0.0689,
      "velocity": 107,
      "chip": "ym2612"
    },
    {
      "channel": 0,
      "note": 79,
      "start": 34.0019,
      "duration": 0.0727,
      "velocity": 107,
      "chip": "ym2612"
    },
    {
      "channel": 1,
      "note": 79,
      "start": 34.0513,
      "duration": 0.0727,
      "velocity": 107,
      "chip": "ym2612"
    },
    {
      "channel": 2,
      "note": 76,
      "start": 34.053,
      "duration": 0.1207,
      "velocity": 107,
      "chip": "ym2612"
    },
    {
      "channel": 0,
      "note": 76,
      "start": 34.1005,
      "duration": 0.0728,
      "velocity": 107,
      "chip": "ym2612"
    },
    {
      "channel": 1,
      "note": 76,
      "start": 34.1501,
      "duration": 0.0726,
      "velocity": 107,
      "chip": "ym2612"
    },
    {
      "channel": 0,
      "note": 78,
      "start": 34.2032,
      "duration": 0.0688,
      "velocity": 107,
      "chip": "ym2612"
    },
    {
      "channel": 2,
      "note": 64,
      "start": 34.2049,
      "duration": 0.1167,
      "velocity": 107,
      "chip": "ym2612"
    },
    {
      "channel": 3,
      "note": 37,
      "start": 34.207,
      "duration": 0.1025,
      "velocity": 127,
      "chip": "ym2612"
    },
    {
      "channel": 4,
      "note": 84,
      "start": 34.2086,
      "duration": 0.2618,
      "velocity": 107,
      "chip": "ym2612"
    },
    {
      "channel": 1,
      "note": 78,
      "start": 34.2525,
      "duration": 0.069,
      "velocity": 107,
      "chip": "ym2612"
    },
    {
      "channel": 0,
      "note": 79,
      "start": 34.298,
      "duration": 0.0727,
      "velocity": 107,
      "chip": "ym2612"
    },
    {
      "channel": 1,
      "note": 79,
      "start": 34.3475,
      "duration": 0.0727,
      "velocity": 107,
      "chip": "ym2612"
    },
    {
      "channel": 2,
      "note": 64,
      "start": 34.3491,
      "duration": 0.1206,
      "velocity": 107,
      "chip": "ym2612"
    },
    {
      "channel": 3,
      "note": 37,
      "start": 34.3511,
      "duration": 0.1064,
      "velocity": 127,
      "chip": "ym2612"
    },
    {
      "channel": 5,
      "note": 84,
      "start": 34.3527,
      "duration": 0.2664,
      "velocity": 107,
      "chip": "ym2612"
    },
    {
      "channel": 0,
      "note": 76,
      "start": 34.3977,
      "duration": 0.0718,
      "velocity": 107,
      "chip": "ym2612"
    },
    {
      "channel": 1,
      "note": 76,
      "start": 34.4462,
      "duration": 0.0727,
      "velocity": 107,
      "chip": "ym2612"
    },
    {
      "channel": 0,
      "note": 78,
      "start": 34.4994,
      "duration": 0.0687,
      "velocity": 107,
      "chip": "ym2612"
    },
    {
      "channel": 2,
      "note": 64,
      "start": 34.5011,
      "duration": 0.1171,
      "velocity": 107,
      "chip": "ym2612"
    },
    {
      "channel": 3,
      "note": 37,
      "start": 34.5031,
      "duration": 0.1025,
      "velocity": 127,
      "chip": "ym2612"
    },
    {
      "channel": 4,
      "note": 83,
      "start": 34.5047,
      "duration": 0.1142,
      "velocity": 107,
      "chip": "ym2612"
    },
    {
      "channel": 1,
      "note": 78,
      "start": 34.5486,
      "duration": 0.0694,
      "velocity": 107,
      "chip": "ym2612"
    },
    {
      "channel": 0,
      "note": 79,
      "start": 34.5941,
      "duration": 0.0727,
      "velocity": 107,
      "chip": "ym2612"
    },
    {
      "channel": 1,
      "note": 79,
      "start": 34.6436,
      "duration": 0.0727,
      "velocity": 107,
      "chip": "ym2612"
    },
    {
      "channel": 2,
      "note": 64,
      "start": 34.6453,
      "duration": 0.1206,
      "velocity": 107,
      "chip": "ym2612"
    },
    {
      "channel": 3,
      "note": 37,
      "start": 34.6473,
      "duration": 0.1063,
      "velocity": 127,
      "chip": "ym2612"
    },
    {
      "channel": 4,
      "note": 84,
      "start": 34.6488,
      "duration": 1.0062,
      "velocity": 107,
      "chip": "ym2612"
    },
    {
      "channel": 5,
      "note": 83,
      "start": 34.6504,
      "duration": 0.1162,
      "velocity": 107,
      "chip": "ym2612"
    },
    {
      "channel": 0,
      "note": 76,
      "start": 34.6929,
      "duration": 0.0726,
      "velocity": 107,
      "chip": "ym2612"
    },
    {
      "channel": 1,
      "note": 76,
      "start": 34.7424,
      "duration": 0.0726,
      "velocity": 107,
      "chip": "ym2612"
    },
    {
      "channel": 0,
      "note": 78,
      "start": 34.7956,
      "duration": 0.0687,
      "velocity": 107,
      "chip": "ym2612"
    },
    {
      "channel": 2,
      "note": 64,
      "start": 34.7973,
      "duration": 0.1166,
      "velocity": 107,
      "chip": "ym2612"
    },
    {
      "channel": 3,
      "note": 37,
      "start": 34.7993,
      "duration": 0.1024,
      "velocity": 127,
      "chip": "ym2612"
    },
    {
      "channel": 5,
      "note": 84,
      "start": 34.8009,
      "duration": 1.0019,
      "velocity": 107,
      "chip": "ym2612"
    },
    {
      "channel": 1,
      "note": 78,
      "start": 34.8448,
      "duration": 0.0689,
      "velocity": 107,
      "chip": "ym2612"
    },
    {
      "channel": 0,
      "note": 79,
      "start": 34.8903,
      "duration": 0.0726,
      "velocity": 107,
      "chip": "ym2612"
    },
    {
      "channel": 1,
      "note": 79,
      "start": 34.9398,
      "duration": 0.0727,
      "velocity": 107,
      "chip": "ym2612"
    },
    {
      "channel": 2,
      "note": 64,
      "start": 34.9414,
      "duration": 0.1206,
      "velocity": 107,
      "chip": "ym2612"
    },
    {
      "channel": 3,
      "note": 37,
      "start": 34.9434,
      "duration": 0.1064,
      "velocity": 127,
      "chip": "ym2612"
    },
    {
      "channel": 0,
      "note": 76,
      "start": 34.989,
      "duration": 0.0727,
      "velocity": 107,
      "chip": "ym2612"
    },
    {
      "channel": 1,
      "note": 76,
      "start": 35.0385,
      "duration": 0.0727,
      "velocity": 107,
      "chip": "ym2612"
    },
    {
      "channel": 0,
      "note": 78,
      "start": 35.0925,
      "duration": 0.0679,
      "velocity": 107,
      "chip": "ym2612"
    },
    {
      "channel": 2,
      "note": 64,
      "start": 35.0942,
      "duration": 0.1159,
      "velocity": 107,
      "chip": "ym2612"
    },
    {
      "channel": 3,
      "note": 41,
      "start": 35.0962,
      "duration": 0.2131,
      "velocity": 127,
      "chip": "ym2612"
    },
    {
      "channel": 1,
      "note": 78,
      "start": 35.141,
      "duration": 0.069,
      "velocity": 107,
      "chip": "ym2612"
    },
    {
      "channel": 0,
      "note": 79,
      "start": 35.1864,
      "duration": 0.0727,
      "velocity": 107,
      "chip": "ym2612"
    },
    {
      "channel": 1,
      "note": 79,
      "start": 35.2359,
      "duration": 0.073,
      "velocity": 107,
      "chip": "ym2612"
    },
    {
      "channel": 2,
      "note": 74,
      "start": 35.2375,
      "duration": 0.1206,
      "velocity": 107,
      "chip": "ym2612"
    },
    {
      "channel": 0,
      "note": 76,
      "start": 35.2852,
      "duration": 0.0727,
      "velocity": 107,
      "chip": "ym2612"
    },
    {
      "channel": 1,
      "note": 76,
      "start": 35.3346,
      "duration": 0.0727,
      "velocity": 107,
      "chip": "ym2612"
    },
    {
      "channel": 0,
      "note": 78,
      "start": 35.3878,
      "duration": 0.0688,
      "velocity": 107,
      "chip": "ym2612"
    },
    {
      "channel": 2,
      "note": 64,
      "start": 35.3895,
      "duration": 0.1167,
      "velocity": 107,
      "chip": "ym2612"
    },
    {
      "channel": 3,
      "note": 37,
      "start": 35.3915,
      "duration": 0.1025,
      "velocity": 127,
      "chip": "ym2612"
    },
    {
      "channel": 1,
      "note": 78,
      "start": 35.4371,
      "duration": 0.069,
      "velocity": 107,
      "chip": "ym2612"
    },
    {
      "channel": 0,
      "note": 79,
      "start": 35.4825,
      "duration": 0.0727,
      "velocity": 107,
      "chip": "ym2612"
    },
    {
      "channel": 1,
      "note": 79,
      "start": 35.532,
      "duration": 0.0727,
      "velocity": 107,
      "chip": "ym2612"
    },
    {
      "channel": 2,
      "note": 64,
      "start": 35.5336,
      "duration": 0.1207,
      "velocity": 107,
      "chip": "ym2612"
    },
    {
      "channel": 3,
      "note": 37,
      "start": 35.5356,
      "duration": 0.1064,
      "velocity": 127,
      "chip": "ym2612"
    },
    {
      "channel": 0,
      "note": 76,
      "start": 35.5813,
      "duration": 0.0727,
      "velocity": 107,
      "chip": "ym2612"
    },
    {
      "channel": 1,
      "note": 76,
      "start": 35.6308,
      "duration": 0.0727,
      "velocity": 107,
      "chip": "ym2612"
    },
    {
      "channel": 0,
      "note": 78,
      "start": 35.6839,
      "duration": 0.0688,
      "velocity": 107,
      "chip": "ym2612"
    },
    {
      "channel": 2,
      "note": 64,
      "start": 35.6857,
      "duration": 0.1167,
      "velocity": 107,
      "chip": "ym2612"
    },
    {
      "channel": 3,
      "note": 37,
      "start": 35.6878,
      "duration": 0.2629,
      "velocity": 127,
      "chip": "ym2612"
    },
    {
      "channel": 4,
      "note": 91,
      "start": 35.6894,
      "duration": 0.2615,
      "velocity": 107,
      "chip": "ym2612"
    },
    {
      "channel": 1,
      "note": 78,
      "start": 35.7332,
      "duration": 0.069,
      "velocity": 107,
      "chip": "ym2612"
    },
    {
      "channel": 0,
      "note": 79,
      "start": 35.7796,
      "duration": 0.0718,
      "velocity": 107,
      "chip": "ym2612"
    },
    {
      "channel": 1,
      "note": 79,
      "start": 35.8282,
      "duration": 0.0727,
      "velocity": 107,
      "chip": "ym2612"
    },
    {
      "channel": 2,
      "note": 64,
      "start": 35.8298,
      "duration": 0.1207,
      "velocity": 107,
      "chip": "ym2612"
    },
    {
      "channel": 5,
      "note": 91,
      "start": 35.8316,
      "duration": 0.2678,
      "velocity": 107,
      "chip": "ym2612"
    },
    {
      "channel": 0,
      "note": 76,
      "start": 35.8774,
      "duration": 0.0727,
      "velocity": 107,
      "chip": "ym2612"
    },
    {
      "channel": 1,
      "note": 76,
      "start": 35.927,
      "duration": 0.0728,
      "velocity": 107,
      "chip": "ym2612"
    },
    {
      "channel": 0,
      "note": 78,
      "start": 35.9801,
      "duration": 0.0687,
      "velocity": 107,
      "chip": "ym2612"
    },
    {
      "channel": 2,
      "note": 64,
      "start": 35.9819,
      "duration": 0.1166,
      "velocity": 107,
      "chip": "ym2612"
    },
    {
      "channel": 3,
      "note": 37,
      "start": 35.9839,
      "duration": 0.1024,
      "velocity": 127,
      "chip": "ym2612"
    },
    {
      "channel": 4,
      "note": 90,
      "start": 35.9855,
      "duration": 0.1137,
      "velocity": 107,
      "chip": "ym2612"
    },
    {
      "channel": 1,
      "note": 78,
      "start": 36.0294,
      "duration": 0.0689,
      "velocity": 107,
      "chip": "ym2612"
    },
    {
      "channel": 0,
      "note": 79,
      "start": 36.0749,
      "duration": 0.0727,
      "velocity": 107,
      "chip": "ym2612"
    },
    {
      "channel": 1,
      "note": 79,
      "start": 36.1243,
      "duration": 0.0727,
      "velocity": 107,
      "chip": "ym2612"
    },
    {
      "channel": 2,
      "note": 64,
      "start": 36.1259,
      "duration": 0.1217,
      "velocity": 107,
      "chip": "ym2612"
    },
    {
      "channel": 3,
      "note": 37,
      "start": 36.1279,
      "duration": 0.1067,
      "velocity": 127,
      "chip": "ym2612"
    },
    {
      "channel": 4,
      "note": 91,
      "start": 36.1295,
      "duration": 0.4137,
      "velocity": 107,
      "chip": "ym2612"
    },
    {
      "channel": 5,
      "note": 90,
      "start": 36.1311,
      "duration": 0.1174,
      "velocity": 107,
      "chip": "ym2612"
    },
    {
      "channel": 0,
      "note": 76,
      "start": 36.1736,
      "duration": 0.0737,
      "velocity": 107,
      "chip": "ym2612"
    },
    {
      "channel": 1,
      "note": 76,
      "start": 36.223,
      "duration": 0.0727,
      "velocity": 107,
      "chip": "ym2612"
    },
    {
      "channel": 0,
      "note": 78,
      "start": 36.2763,
      "duration": 0.0687,
      "velocity": 107,
      "chip": "ym2612"
    },
    {
      "channel": 2,
      "note": 64,
      "start": 36.278,
      "duration": 0.1167,
      "velocity": 107,
      "chip": "ym2612"
    },
    {
      "channel": 3,
      "note": 44,
      "start": 36.28,
      "duration": 0.263,
      "velocity": 127,
      "chip": "ym2612"
    },
    {
      "channel": 5,
      "note": 91,
      "start": 36.2817,
      "duration": 0.41,
      "velocity": 107,
      "chip": "ym2612"
    },
    {
      "channel": 1,
      "note": 78,
      "start": 36.3256,
      "duration": 0.0689,
      "velocity": 107,
      "chip": "ym2612"
    },
    {
      "channel": 0,
      "note": 79,
      "start": 36.371,
      "duration": 0.0727,
      "velocity": 107,
      "chip": "ym2612"
    },
    {
      "channel": 1,
      "note": 79,
      "start": 36.4205,
      "duration": 0.0727,
      "velocity": 107,
      "chip": "ym2612"
    },
    {
      "channel": 2,
      "note": 76,
      "start": 36.4221,
      "duration": 0.1207,
      "velocity": 107,
      "chip": "ym2612"
    },
    {
      "channel": 0,
      "note": 76,
      "start": 36.4702,
      "duration": 0.0722,
      "velocity": 107,
      "chip": "ym2612"
    },
    {
      "channel": 1,
      "note": 76,
      "start": 36.5191,
      "duration": 0.0727,
      "velocity": 107,
      "chip": "ym2612"
    },
    {
      "channel": 0,
      "note": 78,
      "start": 36.5724,
      "duration": 0.0688,
      "velocity": 107,
      "chip": "ym2612"
    },
    {
      "channel": 2,
      "note": 64,
      "start": 36.5741,
      "duration": 0.1168,
      "velocity": 107,
      "chip": "ym2612"
    },
    {
      "channel": 3,
      "note": 37,
      "start": 36.5761,
      "duration": 0.1024,
      "velocity": 127,
      "chip": "ym2612"
    },
    {
      "channel": 4,
      "note": 91,
      "start": 36.5777,
      "duration": 0.2618,
      "velocity": 107,
      "chip": "ym2612"
    },
    {
      "channel": 1,
      "note": 78,
      "start": 36.6216,
      "duration": 0.0691,
      "velocity": 107,
      "chip": "ym2612"
    },
    {
      "channel": 0,
      "note": 79,
      "start": 36.6671,
      "duration": 0.0727,
      "velocity": 107,
      "chip": "ym2612"
    },
    {
      "channel": 1,
      "note": 79,
      "start": 36.7166,
      "duration": 0.0727,
      "velocity": 107,
      "chip": "ym2612"
    },
    {
      "channel": 2,
      "note": 64,
      "start": 36.7182,
      "duration": 0.1207,
      "velocity": 107,
      "chip": "ym2612"
    },
    {
      "channel": 3,
      "note": 37,
      "start": 36.7201,
      "duration": 0.1065,
      "velocity": 127,
      "chip": "ym2612"
    },
    {
      "channel": 5,
      "note": 91,
      "start": 36.7219,
      "duration": 0.266,
      "velocity": 107,
      "chip": "ym2612"
    },
    {
      "channel": 0,
      "note": 76,
      "start": 36.7658,
      "duration": 0.0727,
      "velocity": 107,
      "chip": "ym2612"
    },
    {
      "channel": 1,
      "note": 76,
      "start": 36.8153,
      "duration": 0.0727,
      "velocity": 107,
      "chip": "ym2612"
    },
    {
      "channel": 0,
      "note": 78,
      "start": 36.8685,
      "duration": 0.0696,
      "velocity": 107,
      "chip": "ym2612"
    },
    {
      "channel": 2,
      "note": 64,
      "start": 36.8702,
      "duration": 0.1167,
      "velocity": 107,
      "chip": "ym2612"
    },
    {
      "channel": 3,
      "note": 37,
      "start": 36.8724,
      "duration": 0.1023,
      "velocity": 127,
      "chip": "ym2612"
    },
    {
      "channel": 4,
      "note": 90,
      "start": 36.874,
      "duration": 0.1137,
      "velocity": 107,
      "chip": "ym2612"
    },
    {
      "channel": 1,
      "note": 78,
      "start": 36.9178,
      "duration": 0.069,
      "velocity": 107,
      "chip": "ym2612"
    },
    {
      "channel": 0,
      "note": 79,
      "start": 36.9633,
      "duration": 0.0727,
      "velocity": 107,
      "chip": "ym2612"
    },
    {
      "channel": 1,
      "note": 79,
      "start": 37.0127,
      "duration": 0.0727,
      "velocity": 107,
      "chip": "ym2612"
    },
    {
      "channel": 2,
      "note": 64,
      "start": 37.0144,
      "duration": 0.1206,
      "velocity": 107,
      "chip": "ym2612"
    },
    {
      "channel": 3,
      "note": 37,
      "start": 37.0163,
      "duration": 0.1064,
      "velocity": 127,
      "chip": "ym2612"
    },
    {
      "channel": 4,
      "note": 91,
      "start": 37.0179,
      "duration": 1.0062,
      "velocity": 107,
      "chip": "ym2612"
    },
    {
      "channel": 5,
      "note": 90,
      "start": 37.0195,
      "duration": 0.1163,
      "velocity": 107,
      "chip": "ym2612"
    },
    {
      "channel": 0,
      "note": 76,
      "start": 37.062,
      "duration": 0.0727,
      "velocity": 107,
      "chip": "ym2612"
    },
    {
      "channel": 1,
      "note": 76,
      "start": 37.1114,
      "duration": 0.0727,
      "velocity": 107,
      "chip": "ym2612"
    },
    {
      "channel": 0,
      "note": 78,
      "start": 37.1651,
      "duration": 0.0683,
      "velocity": 107,
      "chip": "ym2612"
    },
    {
      "channel": 2,
      "note": 64,
      "start": 37.1668,
      "duration": 0.1162,
      "velocity": 107,
      "chip": "ym2612"
    },
    {
      "channel": 3,
      "note": 37,
      "start": 37.1688,
      "duration": 0.102,
      "velocity": 127,
      "chip": "ym2612"
    },
    {
      "channel": 5,
      "note": 91,
      "start": 37.1705,
      "duration": 1.0261,
      "velocity": 107,
      "chip": "ym2612"
    },
    {
      "channel": 1,
      "note": 78,
      "start": 37.214,
      "duration": 0.0689,
      "velocity": 107,
      "chip": "ym2612"
    },
    {
      "channel": 0,
      "note": 79,
      "start": 37.2595,
      "duration": 0.0727,
      "velocity": 107,
      "chip": "ym2612"
    },
    {
      "channel": 1,
      "note": 79,
      "start": 37.309,
      "duration": 0.0726,
      "velocity": 107,
      "chip": "ym2612"
    },
    {
      "channel": 2,
      "note": 64,
      "start": 37.3105,
      "duration": 0.1205,
      "velocity": 107,
      "chip": "ym2612"
    },
    {
      "channel": 3,
      "note": 37,
      "start": 37.3125,
      "duration": 0.1063,
      "velocity": 127,
      "chip": "ym2612"
    },
    {
      "channel": 0,
      "note": 76,
      "start": 37.3581,
      "duration": 0.0727,
      "velocity": 107,
      "chip": "ym2612"
    },
    {
      "channel": 1,
      "note": 76,
      "start": 37.4076,
      "duration": 0.0727,
      "velocity": 107,
      "chip": "ym2612"
    },
    {
      "channel": 0,
      "note": 78,
      "start": 37.4608,
      "duration": 0.0688,
      "velocity": 107,
      "chip": "ym2612"
    },
    {
      "channel": 2,
      "note": 64,
      "start": 37.4625,
      "duration": 0.1167,
      "velocity": 107,
      "chip": "ym2612"
    },
    {
      "channel": 3,
      "note": 37,
      "start": 37.4647,
      "duration": 0.1023,
      "velocity": 127,
      "chip": "ym2612"
    },
    {
      "channel": 1,
      "note": 78,
      "start": 37.5101,
      "duration": 0.0689,
      "velocity": 107,
      "chip": "ym2612"
    },
    {
      "channel": 0,
      "note": 79,
      "start": 37.5555,
      "duration": 0.0735,
      "velocity": 107,
      "chip": "ym2612"
    },
    {
      "channel": 1,
      "note": 79,
      "start": 37.605,
      "duration": 0.0727,
      "velocity": 107,
      "chip": "ym2612"
    },
    {
      "channel": 2,
      "note": 77,
      "start": 37.6066,
      "duration": 0.1207,
      "velocity": 107,
      "chip": "ym2612"
    },
    {
      "channel": 3,
      "note": 37,
      "start": 37.6086,
      "duration": 0.1063,
      "velocity": 127,
      "chip": "ym2612"
    },
    {
      "channel": 0,
      "note": 76,
      "start": 37.6542,
      "duration": 0.0727,
      "velocity": 107,
      "chip": "ym2612"
    },
    {
      "channel": 1,
      "note": 76,
      "start": 37.7037,
      "duration": 0.0726,
      "velocity": 107,
      "chip": "ym2612"
    },
    {
      "channel": 0,
      "note": 78,
      "start": 37.7569,
      "duration": 0.0688,
      "velocity": 107,
      "chip": "ym2612"
    },
    {
      "channel": 2,
      "note": 64,
      "start": 37.7586,
      "duration": 0.1167,
      "velocity": 107,
      "chip": "ym2612"
    },
    {
      "channel": 3,
      "note": 37,
      "start": 37.7607,
      "duration": 0.1034,
      "velocity": 127,
      "chip": "ym2612"
    },
    {
      "channel": 1,
      "note": 78,
      "start": 37.8062,
      "duration": 0.0689,
      "velocity": 107,
      "chip": "ym2612"
    },
    {
      "channel": 0,
      "note": 79,
      "start": 37.852,
      "duration": 0.0724,
      "velocity": 107,
      "chip": "ym2612"
    },
    {
      "channel": 1,
      "note": 79,
      "start": 37.9011,
      "duration": 0.0727,
      "velocity": 107,
      "chip": "ym2612"
    },
    {
      "channel": 2,
      "note": 64,
      "start": 37.9028,
      "duration": 0.1206,
      "velocity": 107,
      "chip": "ym2612"
    },
    {
      "channel": 3,
      "note": 37,
      "start": 37.9048,
      "duration": 0.1064,
      "velocity": 127,
      "chip": "ym2612"
    },
    {
      "channel": 0,
      "note": 76,
      "start": 37.9504,
      "duration": 0.0727,
      "velocity": 107,
      "chip": "ym2612"
    },
    {
      "channel": 1,
      "note": 76,
      "start": 37.9999,
      "duration": 0.0974,
      "velocity": 107,
      "chip": "ym2612"
    },
    {
      "channel": 0,
      "note": 78,
      "start": 38.0531,
      "duration": 0.0934,
      "velocity": 107,
      "chip": "ym2612"
    },
    {
      "channel": 2,
      "note": 64,
      "start": 38.059,
      "duration": 0.1372,
      "velocity": 107,
      "chip": "ym2612"
    },
    {
      "channel": 3,
      "note": 37,
      "start": 38.0653,
      "duration": 0.2792,
      "velocity": 127,
      "chip": "ym2612"
    },
    {
      "channel": 4,
      "note": 72,
      "start": 38.0708,
      "duration": 0.2739,
      "velocity": 107,
      "chip": "ym2612"
    },
    {
      "channel": 1,
      "note": 78,
      "start": 38.1271,
      "duration": 0.0688,
      "velocity": 107,
      "chip": "ym2612"
    },
    {
      "channel": 0,
      "note": 79,
      "start": 38.1725,
      "duration": 0.0727,
      "velocity": 107,
      "chip": "ym2612"
    },
    {
      "channel": 1,
      "note": 79,
      "start": 38.222,
      "duration": 0.0727,
      "velocity": 107,
      "chip": "ym2612"
    },
    {
      "channel": 2,
      "note": 64,
      "start": 38.2237,
      "duration": 0.1205,
      "velocity": 107,
      "chip": "ym2612"
    },
    {
      "channel": 5,
      "note": 72,
      "start": 38.2293,
      "duration": 0.264,
      "velocity": 107,
      "chip": "ym2612"
    },
    {
      "channel": 0,
      "note": 76,
      "start": 38.2712,
      "duration": 0.0727,
      "velocity": 107,
      "chip": "ym2612"
    },
    {
      "channel": 1,
      "note": 76,
      "start": 38.3214,
      "duration": 0.072,
      "velocity": 107,
      "chip": "ym2612"
    },
    {
      "channel": 0,
      "note": 78,
      "start": 38.3739,
      "duration": 0.0687,
      "velocity": 107,
      "chip": "ym2612"
    },
    {
      "channel": 2,
      "note": 64,
      "start": 38.3756,
      "duration": 0.1167,
      "velocity": 107,
      "chip": "ym2612"
    },
    {
      "channel": 3,
      "note": 37,
      "start": 38.3776,
      "duration": 0.1024,
      "velocity": 127,
      "chip": "ym2612"
    },
    {
      "channel": 4,
      "note": 71,
      "start": 38.3793,
      "duration": 0.1138,
      "velocity": 107,
      "chip": "ym2612"
    },
    {
      "channel": 1,
      "note": 78,
      "start": 38.4231,
      "duration": 0.069,
      "velocity": 107,
      "chip": "ym2612"
    },
    {
      "channel": 0,
      "note": 79,
      "start": 38.4686,
      "duration": 0.0729,
      "velocity": 107,
      "chip": "ym2612"
    },
    {
      "channel": 1,
      "note": 79,
      "start": 38.5181,
      "duration": 0.0726,
      "velocity": 107,
      "chip": "ym2612"
    },
    {
      "channel": 2,
      "note": 64,
      "start": 38.5197,
      "duration": 0.1207,
      "velocity": 107,
      "chip": "ym2612"
    },
    {
      "channel": 3,
      "note": 37,
      "start": 38.5217,
      "duration": 0.1064,
      "velocity": 127,
      "chip": "ym2612"
    },
    {
      "channel": 4,
      "note": 72,
      "start": 38.5233,
      "duration": 0.1504,
      "velocity": 107,
      "chip": "ym2612"
    },
    {
      "channel": 5,
      "note": 71,
      "start": 38.5249,
      "duration": 0.1163,
      "velocity": 107,
      "chip": "ym2612"
    },
    {
      "channel": 0,
      "note": 76,
      "start": 38.5673,
      "duration": 0.0727,
      "velocity": 107,
      "chip": "ym2612"
    },
    {
      "channel": 1,
      "note": 76,
      "start": 38.6168,
      "duration": 0.0568,
      "velocity": 107,
      "chip": "ym2612"
    },
    {
      "channel": 0,
      "note": 78,
      "start": 38.67,
      "duration": 0.0037,
      "velocity": 107,
      "chip": "ym2612"
    },
    {
      "channel": 2,
      "note": 64,
      "start": 38.6717,
      "duration": 0.002,
      "velocity": 107,
      "chip": "ym2612"
    }
  ]
}