{
  "track_name": "01 - 1st Half (English)",
  "duration_sec": 70.014,
  "sample_rate": 44100,
  "note_count": 1335,
  "unique_pitches": 28,
  "pitch_range": 56,
  "avg_note_duration": 0.1448,
  "reconstruction_stats": {
    "notes_reconstructed": 1335,
    "keyon_events": 1335,
    "keyoff_events": 1332,
    "orphan_keyons": 3,
    "unique_pitches": 28,
    "pitch_range": 56,
    "avg_duration_sec": 0.1448
  },
  "metadata": {
    "source": "S\\Super Real Basketball\\01 - 1st Half (English).vgz"
  },
  "notes": [
    {
      "channel": 0,
      "note": 58,
      "start": 0.0,
      "duration": 0.1208,
      "velocity": 117,
      "chip": "ym2612"
    },
    {
      "channel": 1,
      "note": 63,
      "start": 0.0007,
      "duration": 0.1209,
      "velocity": 117,
      "chip": "ym2612"
    },
    {
      "channel": 3,
      "note": 68,
      "start": 0.0014,
      "duration": 0.1209,
      "velocity": 117,
      "chip": "ym2612"
    },
    {
      "channel": 4,
      "note": 75,
      "start": 0.0022,
      "duration": 0.1209,
      "velocity": 117,
      "chip": "ym2612"
    },
    {
      "channel": 5,
      "note": 63,
      "start": 0.0029,
      "duration": 0.1209,
      "velocity": 91,
      "chip": "ym2612"
    },
    {
      "channel": 2,
      "note": 87,
      "start": 0.004,
      "duration": 0.1141,
      "velocity": 127,
      "chip": "ym2612"
    },
    {
      "channel": 0,
      "note": 58,
      "start": 0.1215,
      "duration": 0.121,
      "velocity": 117,
      "chip": "ym2612"
    },
    {
      "channel": 1,
      "note": 63,
      "start": 0.1222,
      "duration": 0.121,
      "velocity": 117,
      "chip": "ym2612"
    },
    {
      "channel": 3,
      "note": 68,
      "start": 0.1229,
      "duration": 0.1212,
      "velocity": 117,
      "chip": "ym2612"
    },
    {
      "channel": 4,
      "note": 75,
      "start": 0.1236,
      "duration": 0.1212,
      "velocity": 117,
      "chip": "ym2612"
    },
    {
      "channel": 5,
      "note": 63,
      "start": 0.1244,
      "duration": 0.1212,
      "velocity": 91,
      "chip": "ym2612"
    },
    {
      "channel": 2,
      "note": 87,
      "start": 0.1254,
      "duration": 0.1142,
      "velocity": 127,
      "chip": "ym2612"
    },
    {
      "channel": 0,
      "note": 58,
      "start": 0.2431,
      "duration": 0.1209,
      "velocity": 117,
      "chip": "ym2612"
    },
    {
      "channel": 1,
      "note": 63,
      "start": 0.244,
      "duration": 0.1208,
      "velocity": 117,
      "chip": "ym2612"
    },
    {
      "channel": 3,
      "note": 68,
      "start": 0.2448,
      "duration": 0.1208,
      "velocity": 117,
      "chip": "ym2612"
    },
    {
      "channel": 4,
      "note": 75,
      "start": 0.2455,
      "duration": 0.1207,
      "velocity": 117,
      "chip": "ym2612"
    },
    {
      "channel": 5,
      "note": 63,
      "start": 0.2462,
      "duration": 0.1208,
      "velocity": 91,
      "chip": "ym2612"
    },
    {
      "channel": 2,
      "note": 83,
      "start": 0.2473,
      "duration": 0.1139,
      "velocity": 127,
      "chip": "ym2612"
    },
    {
      "channel": 0,
      "note": 58,
      "start": 0.3647,
      "duration": 0.1182,
      "velocity": 117,
      "chip": "ym2612"
    },
    {
      "channel": 1,
      "note": 63,
      "start": 0.3654,
      "duration": 0.1178,
      "velocity": 117,
      "chip": "ym2612"
    },
    {
      "channel": 3,
      "note": 68,
      "start": 0.3661,
      "duration": 0.1174,
      "velocity": 117,
      "chip": "ym2612"
    },
    {
      "channel": 4,
      "note": 75,
      "start": 0.3668,
      "duration": 0.117,
      "velocity": 117,
      "chip": "ym2612"
    },
    {
      "channel": 5,
      "note": 63,
      "start": 0.3676,
      "duration": 0.2429,
      "velocity": 91,
      "chip": "ym2612"
    },
    {
      "channel": 2,
      "note": 83,
      "start": 0.3687,
      "duration": 0.1689,
      "velocity": 127,
      "chip": "ym2612"
    },
    {
      "channel": 0,
      "note": 56,
      "start": 0.6079,
      "duration": 0.121,
      "velocity": 117,
      "chip": "ym2612"
    },
    {
      "channel": 1,
      "note": 63,
      "start": 0.6085,
      "duration": 0.121,
      "velocity": 117,
      "chip": "ym2612"
    },
    {
      "channel": 3,
      "note": 68,
      "start": 0.6093,
      "duration": 0.121,
      "velocity": 117,
      "chip": "ym2612"
    },
    {
      "channel": 4,
      "note": 75,
      "start": 0.6101,
      "duration": 0.121,
      "velocity": 117,
      "chip": "ym2612"
    },
    {
      "channel": 5,
      "note": 63,
      "start": 0.6111,
      "duration": 0.1207,
      "velocity": 91,
      "chip": "ym2612"
    },
    {
      "channel": 2,
      "note": 83,
      "start": 0.6121,
      "duration": 0.1137,
      "velocity": 127,
      "chip": "ym2612"
    },
    {
      "channel": 0,
      "note": 56,
      "start": 0.7294,
      "duration": 0.1207,
      "velocity": 117,
      "chip": "ym2612"
    },
    {
      "channel": 1,
      "note": 63,
      "start": 0.7302,
      "duration": 0.1207,
      "velocity": 117,
      "chip": "ym2612"
    },
    {
      "channel": 3,
      "note": 68,
      "start": 0.7309,
      "duration": 0.1207,
      "velocity": 117,
      "chip": "ym2612"
    },
    {
      "channel": 4,
      "note": 75,
      "start": 0.7317,
      "duration": 0.1207,
      "velocity": 117,
      "chip": "ym2612"
    },
    {
      "channel": 5,
      "note": 63,
      "start": 0.7324,
      "duration": 0.1207,
      "velocity": 91,
      "chip": "ym2612"
    },
    {
      "channel": 2,
      "note": 83,
      "start": 0.7334,
      "duration": 0.1139,
      "velocity": 127,
      "chip": "ym2612"
    },
    {
      "channel": 0,
      "note": 56,
      "start": 0.8507,
      "duration": 0.121,
      "velocity": 117,
      "chip": "ym2612"
    },
    {
      "channel": 1,
      "note": 63,
      "start": 0.8514,
      "duration": 0.121,
      "velocity": 117,
      "chip": "ym2612"
    },
    {
      "channel": 3,
      "note": 68,
      "start": 0.8522,
      "duration": 0.121,
      "velocity": 117,
      "chip": "ym2612"
    },
    {
      "channel": 4,
      "note": 75,
      "start": 0.8529,
      "duration": 0.121,
      "velocity": 117,
      "chip": "ym2612"
    },
    {
      "channel": 5,
      "note": 63,
      "start": 0.8537,
      "duration": 0.121,
      "velocity": 91,
      "chip": "ym2612"
    },
    {
      "channel": 2,
      "note": 75,
      "start": 0.8546,
      "duration": 0.1143,
      "velocity": 127,
      "chip": "ym2612"
    },
    {
      "channel": 0,
      "note": 56,
      "start": 0.9723,
      "duration": 0.1184,
      "velocity": 117,
      "chip": "ym2612"
    },
    {
      "channel": 1,
      "note": 63,
      "start": 0.9731,
      "duration": 0.1179,
      "velocity": 117,
      "chip": "ym2612"
    },
    {
      "channel": 3,
      "note": 68,
      "start": 0.9738,
      "duration": 0.1176,
      "velocity": 117,
      "chip": "ym2612"
    },
    {
      "channel": 4,
      "note": 75,
      "start": 0.9745,
      "duration": 0.1171,
      "velocity": 117,
      "chip": "ym2612"
    },
    {
      "channel": 5,
      "note": 63,
      "start": 0.9753,
      "duration": 0.2425,
      "velocity": 91,
      "chip": "ym2612"
    },
    {
      "channel": 2,
      "note": 75,
      "start": 0.9762,
      "duration": 0.1692,
      "velocity": 127,
      "chip": "ym2612"
    },
    {
      "channel": 0,
      "note": 56,
      "start": 1.2154,
      "duration": 0.1183,
      "velocity": 117,
      "chip": "ym2612"
    },
    {
      "channel": 1,
      "note": 63,
      "start": 1.2161,
      "duration": 0.1179,
      "velocity": 117,
      "chip": "ym2612"
    },
    {
      "channel": 3,
      "note": 68,
      "start": 1.2169,
      "duration": 0.1175,
      "velocity": 117,
      "chip": "ym2612"
    },
    {
      "channel": 4,
      "note": 75,
      "start": 1.2176,
      "duration": 0.1171,
      "velocity": 117,
      "chip": "ym2612"
    },
    {
      "channel": 5,
      "note": 63,
      "start": 1.2183,
      "duration": 0.2427,
      "velocity": 91,
      "chip": "ym2612"
    },
    {
      "channel": 2,
      "note": 38,
      "start": 1.219,
      "duration": 0.0893,
      "velocity": 120,
      "chip": "ym2612"
    },
    {
      "channel": 0,
      "note": 56,
      "start": 1.4585,
      "duration": 0.1183,
      "velocity": 117,
      "chip": "ym2612"
    },
    {
      "channel": 1,
      "note": 63,
      "start": 1.4592,
      "duration": 0.1181,
      "velocity": 117,
      "chip": "ym2612"
    },
    {
      "channel": 3,
      "note": 68,
      "start": 1.46,
      "duration": 0.1177,
      "velocity": 117,
      "chip": "ym2612"
    },
    {
      "channel": 4,
      "note": 75,
      "start": 1.4609,
      "duration": 0.1171,
      "velocity": 117,
      "chip": "ym2612"
    },
    {
      "channel": 5,
      "note": 63,
      "start": 1.4616,
      "duration": 0.2387,
      "velocity": 91,
      "chip": "ym2612"
    },
    {
      "channel": 2,
      "note": 32,
      "start": 1.4624,
      "duration": 0.196,
      "velocity": 116,
      "chip": "ym2612"
    },
    {
      "channel": 0,
      "note": 58,
      "start": 1.9449,
      "duration": 0.1208,
      "velocity": 117,
      "chip": "ym2612"
    },
    {
      "channel": 1,
      "note": 63,
      "start": 1.9456,
      "duration": 0.1208,
      "velocity": 117,
      "chip": "ym2612"
    },
    {
      "channel": 3,
      "note": 68,
      "start": 1.9464,
      "duration": 0.1207,
      "velocity": 117,
      "chip": "ym2612"
    },
    {
      "channel": 4,
      "note": 75,
      "start": 1.9472,
      "duration": 0.1207,
      "velocity": 117,
      "chip": "ym2612"
    },
    {
      "channel": 5,
      "note": 63,
      "start": 1.9479,
      "duration": 0.1207,
      "velocity": 91,
      "chip": "ym2612"
    },
    {
      "channel": 2,
      "note": 87,
      "start": 1.949,
      "duration": 0.1139,
      "velocity": 127,
      "chip": "ym2612"
    },
    {
      "channel": 0,
      "note": 58,
      "start": 2.0663,
      "duration": 0.1209,
      "velocity": 117,
      "chip": "ym2612"
    },
    {
      "channel": 1,
      "note": 63,
      "start": 2.067,
      "duration": 0.1209,
      "velocity": 117,
      "chip": "ym2612"
    },
    {
      "channel": 3,
      "note": 68,
      "start": 2.0677,
      "duration": 0.1209,
      "velocity": 117,
      "chip": "ym2612"
    },
    {
      "channel": 4,
      "note": 75,
      "start": 2.0685,
      "duration": 0.1209,
      "velocity": 117,
      "chip": "ym2612"
    },
    {
      "channel": 5,
      "note": 63,
      "start": 2.0692,
      "duration": 0.1209,
      "velocity": 91,
      "chip": "ym2612"
    },
    {
      "channel": 2,
      "note": 87,
      "start": 2.0703,
      "duration": 0.1141,
      "velocity": 127,
      "chip": "ym2612"
    },
    {
      "channel": 0,
      "note": 58,
      "start": 2.1878,
      "duration": 0.1209,
      "velocity": 117,
      "chip": "ym2612"
    },
    {
      "channel": 1,
      "note": 63,
      "start": 2.1885,
      "duration": 0.1209,
      "velocity": 117,
      "chip": "ym2612"
    },
    {
      "channel": 3,
      "note": 68,
      "start": 2.1892,
      "duration": 0.1209,
      "velocity": 117,
      "chip": "ym2612"
    },
    {
      "channel": 4,
      "note": 75,
      "start": 2.19,
      "duration": 0.1211,
      "velocity": 117,
      "chip": "ym2612"
    },
    {
      "channel": 5,
      "note": 63,
      "start": 2.1907,
      "duration": 0.1212,
      "velocity": 91,
      "chip": "ym2612"
    },
    {
      "channel": 2,
      "note": 83,
      "start": 2.1918,
      "duration": 0.1141,
      "velocity": 127,
      "chip": "ym2612"
    },
    {
      "channel": 0,
      "note": 58,
      "start": 2.3093,
      "duration": 0.1188,
      "velocity": 117,
      "chip": "ym2612"
    },
    {
      "channel": 1,
      "note": 63,
      "start": 2.31,
      "duration": 0.1184,
      "velocity": 117,
      "chip": "ym2612"
    },
    {
      "channel": 3,
      "note": 68,
      "start": 2.311,
      "duration": 0.1178,
      "velocity": 117,
      "chip": "ym2612"
    },
    {
      "channel": 4,
      "note": 75,
      "start": 2.3117,
      "duration": 0.1174,
      "velocity": 117,
      "chip": "ym2612"
    },
    {
      "channel": 5,
      "note": 63,
      "start": 2.3125,
      "duration": 0.2423,
      "velocity": 91,
      "chip": "ym2612"
    },
    {
      "channel": 2,
      "note": 83,
      "start": 2.3135,
      "duration": 0.1689,
      "velocity": 127,
      "chip": "ym2612"
    },
    {
      "channel": 0,
      "note": 56,
      "start": 2.5524,
      "duration": 0.121,
      "velocity": 117,
      "chip": "ym2612"
    },
    {
      "channel": 1,
      "note": 63,
      "start": 2.5532,
      "duration": 0.1209,
      "velocity": 117,
      "chip": "ym2612"
    },
    {
      "channel": 3,
      "note": 68,
      "start": 2.5539,
      "duration": 0.1209,
      "velocity": 117,
      "chip": "ym2612"
    },
    {
      "channel": 4,
      "note": 75,
      "start": 2.5547,
      "duration": 0.1209,
      "velocity": 117,
      "chip": "ym2612"
    },
    {
      "channel": 5,
      "note": 63,
      "start": 2.5554,
      "duration": 0.1209,
      "velocity": 91,
      "chip": "ym2612"
    },
    {
      "channel": 2,
      "note": 83,
      "start": 2.5565,
      "duration": 0.1141,
      "velocity": 127,
      "chip": "ym2612"
    },
    {
      "channel": 0,
      "note": 56,
      "start": 2.6739,
      "duration": 0.1212,
      "velocity": 117,
      "chip": "ym2612"
    },
    {
      "channel": 1,
      "note": 63,
      "start": 2.6746,
      "duration": 0.1213,
      "velocity": 117,
      "chip": "ym2612"
    },
    {
      "channel": 3,
      "note": 68,
      "start": 2.6754,
      "duration": 0.1212,
      "velocity": 117,
      "chip": "ym2612"
    },
    {
      "channel": 4,
      "note": 75,
      "start": 2.6761,
      "duration": 0.1213,
      "velocity": 117,
      "chip": "ym2612"
    },
    {
      "channel": 5,
      "note": 63,
      "start": 2.6771,
      "duration": 0.121,
      "velocity": 91,
      "chip": "ym2612"
    },
    {
      "channel": 2,
      "note": 83,
      "start": 2.6781,
      "duration": 0.1141,
      "velocity": 127,
      "chip": "ym2612"
    },
    {
      "channel": 0,
      "note": 56,
      "start": 2.7958,
      "duration": 0.1207,
      "velocity": 117,
      "chip": "ym2612"
    },
    {
      "channel": 1,
      "note": 63,
      "start": 2.7965,
      "duration": 0.1207,
      "velocity": 117,
      "chip": "ym2612"
    },
    {
      "channel": 3,
      "note": 68,
      "start": 2.7972,
      "duration": 0.1207,
      "velocity": 117,
      "chip": "ym2612"
    },
    {
      "channel": 4,
      "note": 75,
      "start": 2.798,
      "duration": 0.1207,
      "velocity": 117,
      "chip": "ym2612"
    },
    {
      "channel": 5,
      "note": 63,
      "start": 2.7987,
      "duration": 0.1207,
      "velocity": 91,
      "chip": "ym2612"
    },
    {
      "channel": 2,
      "note": 75,
      "start": 2.7997,
      "duration": 0.114,
      "velocity": 127,
      "chip": "ym2612"
    },
    {
      "channel": 0,
      "note": 56,
      "start": 2.9171,
      "duration": 0.1183,
      "velocity": 117,
      "chip": "ym2612"
    },
    {
      "channel": 1,
      "note": 63,
      "start": 2.9178,
      "duration": 0.1179,
      "velocity": 117,
      "chip": "ym2612"
    },
    {
      "channel": 3,
      "note": 68,
      "start": 2.9185,
      "duration": 0.1175,
      "velocity": 117,
      "chip": "ym2612"
    },
    {
      "channel": 4,
      "note": 75,
      "start": 2.9193,
      "duration": 0.1171,
      "velocity": 117,
      "chip": "ym2612"
    },
    {
      "channel": 5,
      "note": 63,
      "start": 2.9201,
      "duration": 0.2427,
      "velocity": 91,
      "chip": "ym2612"
    },
    {
      "channel": 2,
      "note": 75,
      "start": 2.921,
      "duration": 0.169,
      "velocity": 127,
      "chip": "ym2612"
    },
    {
      "channel": 0,
      "note": 56,
      "start": 3.1602,
      "duration": 0.1184,
      "velocity": 117,
      "chip": "ym2612"
    },
    {
      "channel": 1,
      "note": 63,
      "start": 3.1611,
      "duration": 0.1177,
      "velocity": 117,
      "chip": "ym2612"
    },
    {
      "channel": 3,
      "note": 68,
      "start": 3.1619,
      "duration": 0.1173,
      "velocity": 117,
      "chip": "ym2612"
    },
    {
      "channel": 4,
      "note": 75,
      "start": 3.1626,
      "duration": 0.1169,
      "velocity": 117,
      "chip": "ym2612"
    },
    {
      "channel": 5,
      "note": 63,
      "start": 3.1633,
      "duration": 0.2422,
      "velocity": 91,
      "chip": "ym2612"
    },
    {
      "channel": 2,
      "note": 38,
      "start": 3.164,
      "duration": 0.0891,
      "velocity": 120,
      "chip": "ym2612"
    },
    {
      "channel": 0,
      "note": 56,
      "start": 3.4032,
      "duration": 0.1184,
      "velocity": 117,
      "chip": "ym2612"
    },
    {
      "channel": 1,
      "note": 63,
      "start": 3.404,
      "duration": 0.1179,
      "velocity": 117,
      "chip": "ym2612"
    },
    {
      "channel": 3,
      "note": 68,
      "start": 3.4047,
      "duration": 0.1176,
      "velocity": 117,
      "chip": "ym2612"
    },
    {
      "channel": 4,
      "note": 75,
      "start": 3.4054,
      "duration": 0.1171,
      "velocity": 117,
      "chip": "ym2612"
    },
    {
      "channel": 5,
      "note": 63,
      "start": 3.4061,
      "duration": 0.2422,
      "velocity": 91,
      "chip": "ym2612"
    },
    {
      "channel": 2,
      "note": 32,
      "start": 3.407,
      "duration": 0.1963,
      "velocity": 116,
      "chip": "ym2612"
    },
    {
      "channel": 5,
      "note": 63,
      "start": 3.649,
      "duration": 0.2415,
      "velocity": 91,
      "chip": "ym2612"
    },
    {
      "channel": 2,
      "note": 38,
      "start": 3.6497,
      "duration": 0.0886,
      "velocity": 120,
      "chip": "ym2612"
    },
    {
      "channel": 0,
      "note": 51,
      "start": 3.8895,
      "duration": 0.2425,
      "velocity": 117,
      "chip": "ym2612"
    },
    {
      "channel": 1,
      "note": 58,
      "start": 3.8902,
      "duration": 0.2421,
      "velocity": 117,
      "chip": "ym2612"
    },
    {
      "channel": 5,
      "note": 63,
      "start": 3.8909,
      "duration": 0.1178,
      "velocity": 91,
      "chip": "ym2612"
    },
    {
      "channel": 2,
      "note": 38,
      "start": 3.8917,
      "duration": 0.0901,
      "velocity": 120,
      "chip": "ym2612"
    },
    {
      "channel": 5,
      "note": 63,
      "start": 4.0091,
      "duration": 0.1236,
      "velocity": 91,
      "chip": "ym2612"
    },
    {
      "channel": 5,
      "note": 75,
      "start": 4.1334,
      "duration": 0.1206,
      "velocity": 91,
      "chip": "ym2612"
    },
    {
      "channel": 2,
      "note": 32,
      "start": 4.1341,
      "duration": 0.1167,
      "velocity": 116,
      "chip": "ym2612"
    },
    {
      "channel": 5,
      "note": 63,
      "start": 4.2545,
      "duration": 0.1187,
      "velocity": 91,
      "chip": "ym2612"
    },
    {
      "channel": 2,
      "note": 38,
      "start": 4.2552,
      "duration": 0.0908,
      "velocity": 120,
      "chip": "ym2612"
    },
    {
      "channel": 5,
      "note": 63,
      "start": 4.4977,
      "duration": 0.1195,
      "velocity": 91,
      "chip": "ym2612"
    },
    {
      "channel": 2,
      "note": 32,
      "start": 4.4985,
      "duration": 0.1995,
      "velocity": 116,
      "chip": "ym2612"
    },
    {
      "channel": 0,
      "note": 61,
      "start": 4.6162,
      "duration": 0.2425,
      "velocity": 117,
      "chip": "ym2612"
    },
    {
      "channel": 1,
      "note": 66,
      "start": 4.617,
      "duration": 0.2425,
      "velocity": 117,
      "chip": "ym2612"
    },
    {
      "channel": 5,
      "note": 73,
      "start": 4.6178,
      "duration": 0.1228,
      "velocity": 91,
      "chip": "ym2612"
    },
    {
      "channel": 5,
      "note": 75,
      "start": 4.7412,
      "duration": 0.1193,
      "velocity": 91,
      "chip": "ym2612"
    },
    {
      "channel": 2,
      "note": 32,
      "start": 4.742,
      "duration": 0.1987,
      "velocity": 116,
      "chip": "ym2612"
    },
    {
      "channel": 0,
      "note": 61,
      "start": 4.8593,
      "duration": 0.2451,
      "velocity": 117,
      "chip": "ym2612"
    },
    {
      "channel": 1,
      "note": 66,
      "start": 4.86,
      "duration": 0.2446,
      "velocity": 117,
      "chip": "ym2612"
    },
    {
      "channel": 5,
      "note": 73,
      "start": 4.8611,
      "duration": 0.1225,
      "velocity": 91,
      "chip": "ym2612"
    },
    {
      "channel": 5,
      "note": 72,
      "start": 4.9842,
      "duration": 0.121,
      "velocity": 91,
      "chip": "ym2612"
    },
    {
      "channel": 2,
      "note": 38,
      "start": 4.985,
      "duration": 0.0909,
      "velocity": 120,
      "chip": "ym2612"
    },
    {
      "channel": 2,
      "note": 32,
      "start": 5.1061,
      "duration": 0.117,
      "velocity": 116,
      "chip": "ym2612"
    },
    {
      "channel": 0,
      "note": 61,
      "start": 5.2266,
      "duration": 0.3641,
      "velocity": 117,
      "chip": "ym2612"
    },
    {
      "channel": 1,
      "note": 66,
      "start": 5.2275,
      "duration": 0.3635,
      "velocity": 117,
      "chip": "ym2612"
    },
    {
      "channel": 5,
      "note": 63,
      "start": 5.2284,
      "duration": 0.12,
      "velocity": 91,
      "chip": "ym2612"
    },
    {
      "channel": 2,
      "note": 38,
      "start": 5.2292,
      "duration": 0.0898,
      "velocity": 120,
      "chip": "ym2612"
    },
    {
      "channel": 2,
      "note": 32,
      "start": 5.3493,
      "duration": 0.1992,
      "velocity": 116,
      "chip": "ym2612"
    },
    {
      "channel": 5,
      "note": 63,
      "start": 5.4678,
      "duration": 0.1242,
      "velocity": 91,
      "chip": "ym2612"
    },
    {
      "channel": 5,
      "note": 61,
      "start": 5.5925,
      "duration": 0.2414,
      "velocity": 91,
      "chip": "ym2612"
    },
    {
      "channel": 2,
      "note": 38,
      "start": 5.5932,
      "duration": 0.0898,
      "velocity": 120,
      "chip": "ym2612"
    },
    {
      "channel": 5,
      "note": 61,
      "start": 5.8344,
      "duration": 0.1185,
      "velocity": 91,
      "chip": "ym2612"
    },
    {
      "channel": 2,
      "note": 38,
      "start": 5.8351,
      "duration": 0.091,
      "velocity": 120,
      "chip": "ym2612"
    },
    {
      "channel": 5,
      "note": 61,
      "start": 5.9534,
      "duration": 0.1253,
      "velocity": 91,
      "chip": "ym2612"
    },
    {
      "channel": 0,
      "note": 51,
      "start": 6.0776,
      "duration": 0.3638,
      "velocity": 117,
      "chip": "ym2612"
    },
    {
      "channel": 1,
      "note": 58,
      "start": 6.0783,
      "duration": 0.3637,
      "velocity": 117,
      "chip": "ym2612"
    },
    {
      "channel": 5,
      "note": 73,
      "start": 6.0793,
      "duration": 0.1198,
      "velocity": 91,
      "chip": "ym2612"
    },
    {
      "channel": 2,
      "note": 32,
      "start": 6.0801,
      "duration": 0.1153,
      "velocity": 116,
      "chip": "ym2612"
    },
    {
      "channel": 5,
      "note": 61,
      "start": 6.1997,
      "duration": 0.1183,
      "velocity": 91,
      "chip": "ym2612"
    },
    {
      "channel": 2,
      "note": 38,
      "start": 6.2004,
      "duration": 0.0909,
      "velocity": 120,
      "chip": "ym2612"
    },
    {
      "channel": 0,
      "note": 51,
      "start": 6.4419,
      "duration": 0.1186,
      "velocity": 117,
      "chip": "ym2612"
    },
    {
      "channel": 1,
      "note": 58,
      "start": 6.4425,
      "duration": 0.1188,
      "velocity": 117,
      "chip": "ym2612"
    },
    {
      "channel": 5,
      "note": 61,
      "start": 6.4434,
      "duration": 0.1188,
      "velocity": 91,
      "chip": "ym2612"
    },
    {
      "channel": 2,
      "note": 32,
      "start": 6.4444,
      "duration": 0.198,
      "velocity": 116,
      "chip": "ym2612"
    },
    {
      "channel": 0,
      "note": 56,
      "start": 6.5611,
      "duration": 0.2422,
      "velocity": 117,
      "chip": "ym2612"
    },
    {
      "channel": 1,
      "note": 73,
      "start": 6.5619,
      "duration": 0.2422,
      "velocity": 117,
      "chip": "ym2612"
    },
    {
      "channel": 5,
      "note": 63,
      "start": 6.5628,
      "duration": 0.2422,
      "velocity": 91,
      "chip": "ym2612"
    },
    {
      "channel": 2,
      "note": 32,
      "start": 6.6863,
      "duration": 0.1993,
      "velocity": 116,
      "chip": "ym2612"
    },
    {
      "channel": 0,
      "note": 56,
      "start": 6.8039,
      "duration": 0.2452,
      "velocity": 117,
      "chip": "ym2612"
    },
    {
      "channel": 1,
      "note": 73,
      "start": 6.8047,
      "duration": 0.2448,
      "velocity": 117,
      "chip": "ym2612"
    },
    {
      "channel": 5,
      "note": 63,
      "start": 6.8054,
      "duration": 0.1233,
      "velocity": 91,
      "chip": "ym2612"
    },
    {
      "channel": 5,
      "note": 63,
      "start": 6.9292,
      "duration": 0.1208,
      "velocity": 91,
      "chip": "ym2612"
    },
    {
      "channel": 2,
      "note": 38,
      "start": 6.9299,
      "duration": 0.0907,
      "velocity": 120,
      "chip": "ym2612"
    },
    {
      "channel": 5,
      "note": 75,
      "start": 7.0506,
      "duration": 0.1217,
      "velocity": 91,
      "chip": "ym2612"
    },
    {
      "channel": 2,
      "note": 32,
      "start": 7.0514,
      "duration": 0.1165,
      "velocity": 116,
      "chip": "ym2612"
    },
    {
      "channel": 0,
      "note": 56,
      "start": 7.1712,
      "duration": 0.121,
      "velocity": 117,
      "chip": "ym2612"
    },
    {
      "channel": 1,
      "note": 73,
      "start": 7.172,
      "duration": 0.121,
      "velocity": 117,
      "chip": "ym2612"
    },
    {
      "channel": 5,
      "note": 63,
      "start": 7.1729,
      "duration": 0.1212,
      "velocity": 91,
      "chip": "ym2612"
    },
    {
      "channel": 2,
      "note": 38,
      "start": 7.1736,
      "duration": 0.0902,
      "velocity": 120,
      "chip": "ym2612"
    },
    {
      "channel": 0,
      "note": 56,
      "start": 7.2928,
      "duration": 0.1183,
      "velocity": 117,
      "chip": "ym2612"
    },
    {
      "channel": 1,
      "note": 73,
      "start": 7.2938,
      "duration": 0.118,
      "velocity": 117,
      "chip": "ym2612"
    },
    {
      "channel": 2,
      "note": 32,
      "start": 7.2951,
      "duration": 0.1983,
      "velocity": 116,
      "chip": "ym2612"
    },
    {
      "channel": 0,
      "note": 56,
      "start": 7.4117,
      "duration": 0.1238,
      "velocity": 117,
      "chip": "ym2612"
    },
    {
      "channel": 1,
      "note": 73,
      "start": 7.4124,
      "duration": 0.1234,
      "velocity": 117,
      "chip": "ym2612"
    },
    {
      "channel": 5,
      "note": 63,
      "start": 7.4133,
      "duration": 0.1234,
      "velocity": 91,
      "chip": "ym2612"
    },
    {
      "channel": 5,
      "note": 63,
      "start": 7.5373,
      "duration": 0.2429,
      "velocity": 91,
      "chip": "ym2612"
    },
    {
      "channel": 2,
      "note": 38,
      "start": 7.5381,
      "duration": 0.0899,
      "velocity": 120,
      "chip": "ym2612"
    },
    {
      "channel": 0,
      "note": 58,
      "start": 7.7792,
      "duration": 0.2422,
      "velocity": 117,
      "chip": "ym2612"
    },
    {
      "channel": 1,
      "note": 63,
      "start": 7.7799,
      "duration": 0.2419,
      "velocity": 117,
      "chip": "ym2612"
    },
    {
      "channel": 5,
      "note": 63,
      "start": 7.7807,
      "duration": 0.1175,
      "velocity": 91,
      "chip": "ym2612"
    },
    {
      "channel": 2,
      "note": 38,
      "start": 7.7815,
      "duration": 0.09,
      "velocity": 120,
      "chip": "ym2612"
    },
    {
      "channel": 5,
      "note": 63,
      "start": 7.8986,
      "duration": 0.1237,
      "velocity": 91,
      "chip": "ym2612"
    },
    {
      "channel": 5,
      "note": 75,
      "start": 8.0229,
      "duration": 0.122,
      "velocity": 91,
      "chip": "ym2612"
    },
    {
      "channel": 2,
      "note": 32,
      "start": 8.0237,
      "duration": 0.1166,
      "velocity": 116,
      "chip": "ym2612"
    },
    {
      "channel": 0,
      "note": 58,
      "start": 8.1439,
      "duration": 0.1181,
      "velocity": 117,
      "chip": "ym2612"
    },
    {
      "channel": 1,
      "note": 63,
      "start": 8.1446,
      "duration": 0.1181,
      "velocity": 117,
      "chip": "ym2612"
    },
    {
      "channel": 5,
      "note": 63,
      "start": 8.1455,
      "duration": 0.1181,
      "velocity": 91,
      "chip": "ym2612"
    },
    {
      "channel": 2,
      "note": 38,
      "start": 8.1463,
      "duration": 0.0898,
      "velocity": 120,
      "chip": "ym2612"
    },
    {
      "channel": 0,
      "note": 58,
      "start": 8.2625,
      "duration": 0.1237,
      "velocity": 117,
      "chip": "ym2612"
    },
    {
      "channel": 1,
      "note": 63,
      "start": 8.2633,
      "duration": 0.1237,
      "velocity": 117,
      "chip": "ym2612"
    },
    {
      "channel": 0,
      "note": 58,
      "start": 8.3868,
      "duration": 0.1183,
      "velocity": 117,
      "chip": "ym2612"
    },
    {
      "channel": 1,
      "note": 63,
      "start": 8.3875,
      "duration": 0.1183,
      "velocity": 117,
      "chip": "ym2612"
    },
    {
      "channel": 5,
      "note": 63,
      "start": 8.3884,
      "duration": 0.1183,
      "velocity": 91,
      "chip": "ym2612"
    },
    {
      "channel": 2,
      "note": 32,
      "start": 8.3892,
      "duration": 0.198,
      "velocity": 116,
      "chip": "ym2612"
    },
    {
      "channel": 0,
      "note": 61,
      "start": 8.5057,
      "duration": 0.2425,
      "velocity": 117,
      "chip": "ym2612"
    },
    {
      "channel": 1,
      "note": 66,
      "start": 8.5064,
      "duration": 0.2426,
      "velocity": 117,
      "chip": "ym2612"
    },
    {
      "channel": 5,
      "note": 73,
      "start": 8.5073,
      "duration": 0.123,
      "velocity": 91,
      "chip": "ym2612"
    },
    {
      "channel": 5,
      "note": 72,
      "start": 8.631,
      "duration": 0.1188,
      "velocity": 91,
      "chip": "ym2612"
    },
    {
      "channel": 2,
      "note": 32,
      "start": 8.6318,
      "duration": 0.1986,
      "velocity": 116,
      "chip": "ym2612"
    },
    {
      "channel": 0,
      "note": 61,
      "start": 8.7488,
      "duration": 0.2452,
      "velocity": 117,
      "chip": "ym2612"
    },
    {
      "channel": 1,
      "note": 66,
      "start": 8.7495,
      "duration": 0.2449,
      "velocity": 117,
      "chip": "ym2612"
    },
    {
      "channel": 5,
      "note": 73,
      "start": 8.7504,
      "duration": 0.1228,
      "velocity": 91,
      "chip": "ym2612"
    },
    {
      "channel": 5,
      "note": 75,
      "start": 8.8738,
      "duration": 0.121,
      "velocity": 91,
      "chip": "ym2612"
    },
    {
      "channel": 2,
      "note": 38,
      "start": 8.8746,
      "duration": 0.0907,
      "velocity": 120,
      "chip": "ym2612"
    },
    {
      "channel": 2,
      "note": 32,
      "start": 8.9959,
      "duration": 0.1167,
      "velocity": 116,
      "chip": "ym2612"
    },
    {
      "channel": 0,
      "note": 61,
      "start": 9.116,
      "duration": 0.3648,
      "velocity": 117,
      "chip": "ym2612"
    },
    {
      "channel": 1,
      "note": 66,
      "start": 9.1168,
      "duration": 0.3644,
      "velocity": 117,
      "chip": "ym2612"
    },
    {
      "channel": 5,
      "note": 70,
      "start": 9.1177,
      "duration": 0.1202,
      "velocity": 91,
      "chip": "ym2612"
    },
    {
      "channel": 2,
      "note": 38,
      "start": 9.1184,
      "duration": 0.09,
      "velocity": 120,
      "chip": "ym2612"
    },
    {
      "channel": 5,
      "note": 70,
      "start": 9.2385,
      "duration": 0.1183,
      "velocity": 91,
      "chip": "ym2612"
    },
    {
      "channel": 2,
      "note": 32,
      "start": 9.2392,
      "duration": 0.1988,
      "velocity": 116,
      "chip": "ym2612"
    },
    {
      "channel": 5,
      "note": 70,
      "start": 9.3573,
      "duration": 0.1248,
      "velocity": 91,
      "chip": "ym2612"
    },
    {
      "channel": 5,
      "note": 61,
      "start": 9.4828,
      "duration": 0.2421,
      "velocity": 91,
      "chip": "ym2612"
    },
    {
      "channel": 2,
      "note": 38,
      "start": 9.4835,
      "duration": 0.0891,
      "velocity": 120,
      "chip": "ym2612"
    },
    {
      "channel": 0,
      "note": 58,
      "start": 9.7238,
      "duration": 0.2424,
      "velocity": 117,
      "chip": "ym2612"
    },
    {
      "channel": 1,
      "note": 63,
      "start": 9.7246,
      "duration": 0.242,
      "velocity": 117,
      "chip": "ym2612"
    },
    {
      "channel": 5,
      "note": 61,
      "start": 9.7254,
      "duration": 0.1176,
      "velocity": 91,
      "chip": "ym2612"
    },
    {
      "channel": 2,
      "note": 38,
      "start": 9.7261,
      "duration": 0.0901,
      "velocity": 120,
      "chip": "ym2612"
    },
    {
      "channel": 5,
      "note": 61,
      "start": 9.8434,
      "duration": 0.1237,
      "velocity": 91,
      "chip": "ym2612"
    },
    {
      "channel": 5,
      "note": 68,
      "start": 9.9677,
      "duration": 0.1218,
      "velocity": 91,
      "chip": "ym2612"
    },
    {
      "channel": 2,
      "note": 32,
      "start": 9.9685,
      "duration": 0.1166,
      "velocity": 116,
      "chip": "ym2612"
    },
    {
      "channel": 0,
      "note": 58,
      "start": 10.0885,
      "duration": 0.1183,
      "velocity": 117,
      "chip": "ym2612"
    },
    {
      "channel": 1,
      "note": 63,
      "start": 10.0892,
      "duration": 0.1183,
      "velocity": 117,
      "chip": "ym2612"
    },
    {
      "channel": 5,
      "note": 70,
      "start": 10.0901,
      "duration": 0.1183,
      "velocity": 91,
      "chip": "ym2612"
    },
    {
      "channel": 2,
      "note": 38,
      "start": 10.0909,
      "duration": 0.09,
      "velocity": 120,
      "chip": "ym2612"
    },
    {
      "channel": 0,
      "note": 58,
      "start": 10.2074,
      "duration": 0.1235,
      "velocity": 117,
      "chip": "ym2612"
    },
    {
      "channel": 1,
      "note": 63,
      "start": 10.2081,
      "duration": 0.1236,
      "velocity": 117,
      "chip": "ym2612"
    },
    {
      "channel": 5,
      "note": 68,
      "start": 10.209,
      "duration": 0.1236,
      "velocity": 91,
      "chip": "ym2612"
    },
    {
      "channel": 0,
      "note": 58,
      "start": 10.3316,
      "duration": 0.1183,
      "velocity": 117,
      "chip": "ym2612"
    },
    {
      "channel": 1,
      "note": 63,
      "start": 10.3323,
      "duration": 0.1184,
      "velocity": 117,
      "chip": "ym2612"
    },
    {
      "channel": 5,
      "note": 67,
      "start": 10.3332,
      "duration": 0.1184,
      "velocity": 91,
      "chip": "ym2612"
    },
    {
      "channel": 2,
      "note": 32,
      "start": 10.334,
      "duration": 0.198,
      "velocity": 116,
      "chip": "ym2612"
    },
    {
      "channel": 0,
      "note": 56,
      "start": 10.4505,
      "duration": 0.2424,
      "velocity": 117,
      "chip": "ym2612"
    },
    {
      "channel": 1,
      "note": 61,
      "start": 10.4512,
      "duration": 0.2426,
      "velocity": 117,
      "chip": "ym2612"
    },
    {
      "channel": 5,
      "note": 63,
      "start": 10.4522,
      "duration": 0.2426,
      "velocity": 91,
      "chip": "ym2612"
    },
    {
      "channel": 2,
      "note": 32,
      "start": 10.5759,
      "duration": 0.1993,
      "velocity": 116,
      "chip": "ym2612"
    },
    {
      "channel": 0,
      "note": 56,
      "start": 10.6935,
      "duration": 0.2452,
      "velocity": 117,
      "chip": "ym2612"
    },
    {
      "channel": 1,
      "note": 61,
      "start": 10.6944,
      "duration": 0.2446,
      "velocity": 117,
      "chip": "ym2612"
    },
    {
      "channel": 5,
      "note": 63,
      "start": 10.6952,
      "duration": 0.1228,
      "velocity": 91,
      "chip": "ym2612"
    },
    {
      "channel": 5,
      "note": 63,
      "start": 10.8184,
      "duration": 0.1211,
      "velocity": 91,
      "chip": "ym2612"
    },
    {
      "channel": 2,
      "note": 38,
      "start": 10.8192,
      "duration": 0.091,
      "velocity": 120,
      "chip": "ym2612"
    },
    {
      "channel": 5,
      "note": 70,
      "start": 10.9402,
      "duration": 0.1219,
      "velocity": 91,
      "chip": "ym2612"
    },
    {
      "channel": 2,
      "note": 32,
      "start": 10.9409,
      "duration": 0.1165,
      "velocity": 116,
      "chip": "ym2612"
    },
    {
      "channel": 0,
      "note": 56,
      "start": 11.061,
      "duration": 0.1208,
      "velocity": 117,
      "chip": "ym2612"
    },
    {
      "channel": 1,
      "note": 61,
      "start": 11.0617,
      "duration": 0.1207,
      "velocity": 117,
      "chip": "ym2612"
    },
    {
      "channel": 5,
      "note": 68,
      "start": 11.0626,
      "duration": 0.1207,
      "velocity": 91,
      "chip": "ym2612"
    },
    {
      "channel": 2,
      "note": 38,
      "start": 11.0634,
      "duration": 0.0901,
      "velocity": 120,
      "chip": "ym2612"
    },
    {
      "channel": 0,
      "note": 56,
      "start": 11.1824,
      "duration": 0.1183,
      "velocity": 117,
      "chip": "ym2612"
    },
    {
      "channel": 1,
      "note": 61,
      "start": 11.183,
      "duration": 0.1184,
      "velocity": 117,
      "chip": "ym2612"
    },
    {
      "channel": 5,
      "note": 67,
      "start": 11.1839,
      "duration": 0.1184,
      "velocity": 91,
      "chip": "ym2612"
    },
    {
      "channel": 2,
      "note": 32,
      "start": 11.1848,
      "duration": 0.198,
      "velocity": 116,
      "chip": "ym2612"
    },
    {
      "channel": 0,
      "note": 56,
      "start": 11.3012,
      "duration": 0.1237,
      "velocity": 117,
      "chip": "ym2612"
    },
    {
      "channel": 1,
      "note": 61,
      "start": 11.302,
      "duration": 0.1233,
      "velocity": 117,
      "chip": "ym2612"
    },
    {
      "channel": 5,
      "note": 68,
      "start": 11.3029,
      "duration": 0.1235,
      "velocity": 91,
      "chip": "ym2612"
    },
    {
      "channel": 5,
      "note": 63,
      "start": 11.4272,
      "duration": 0.2411,
      "velocity": 91,
      "chip": "ym2612"
    },
    {
      "channel": 2,
      "note": 38,
      "start": 11.4279,
      "duration": 0.0895,
      "velocity": 120,
      "chip": "ym2612"
    },
    {
      "channel": 5,
      "note": 63,
      "start": 11.6687,
      "duration": 0.1185,
      "velocity": 91,
      "chip": "ym2612"
    },
    {
      "channel": 2,
      "note": 38,
      "start": 11.6694,
      "duration": 0.0913,
      "velocity": 120,
      "chip": "ym2612"
    },
    {
      "channel": 5,
      "note": 63,
      "start": 11.7877,
      "duration": 0.1247,
      "velocity": 91,
      "chip": "ym2612"
    },
    {
      "channel": 5,
      "note": 75,
      "start": 11.913,
      "duration": 0.1218,
      "velocity": 91,
      "chip": "ym2612"
    },
    {
      "channel": 2,
      "note": 32,
      "start": 11.9138,
      "duration": 0.116,
      "velocity": 116,
      "chip": "ym2612"
    },
    {
      "channel": 0,
      "note": 51,
      "start": 12.0331,
      "duration": 0.1184,
      "velocity": 117,
      "chip": "ym2612"
    },
    {
      "channel": 1,
      "note": 58,
      "start": 12.0339,
      "duration": 0.1179,
      "velocity": 117,
      "chip": "ym2612"
    },
    {
      "channel": 3,
      "note": 63,
      "start": 12.0346,
      "duration": 0.1176,
      "velocity": 117,
      "chip": "ym2612"
    },
    {
      "channel": 5,
      "note": 63,
      "start": 12.0354,
      "duration": 0.1171,
      "velocity": 91,
      "chip": "ym2612"
    },
    {
      "channel": 2,
      "note": 38,
      "start": 12.0362,
      "duration": 0.0898,
      "velocity": 120,
      "chip": "ym2612"
    },
    {
      "channel": 0,
      "note": 51,
      "start": 12.2762,
      "duration": 0.1183,
      "velocity": 117,
      "chip": "ym2612"
    },
    {
      "channel": 1,
      "note": 58,
      "start": 12.2772,
      "duration": 0.1178,
      "velocity": 117,
      "chip": "ym2612"
    },
    {
      "channel": 3,
      "note": 63,
      "start": 12.278,
      "duration": 0.1173,
      "velocity": 117,
      "chip": "ym2612"
    },
    {
      "channel": 5,
      "note": 63,
      "start": 12.2788,
      "duration": 0.1169,
      "velocity": 91,
      "chip": "ym2612"
    },
    {
      "channel": 2,
      "note": 32,
      "start": 12.2795,
      "duration": 0.1968,
      "velocity": 116,
      "chip": "ym2612"
    },
    {
      "channel": 5,
      "note": 73,
      "start": 12.3963,
      "duration": 0.1229,
      "velocity": 91,
      "chip": "ym2612"
    },
    {
      "channel": 5,
      "note": 75,
      "start": 12.5198,
      "duration": 0.1183,
      "velocity": 91,
      "chip": "ym2612"
    },
    {
      "channel": 2,
      "note": 32,
      "start": 12.5206,
      "duration": 0.1987,
      "velocity": 116,
      "chip": "ym2612"
    },
    {
      "channel": 5,
      "note": 73,
      "start": 12.6386,
      "duration": 0.1239,
      "velocity": 91,
      "chip": "ym2612"
    },
    {
      "channel": 5,
      "note": 72,
      "start": 12.7631,
      "duration": 0.122,
      "velocity": 91,
      "chip": "ym2612"
    },
    {
      "channel": 2,
      "note": 38,
      "start": 12.7638,
      "duration": 0.0905,
      "velocity": 120,
      "chip": "ym2612"
    },
    {
      "channel": 0,
      "note": 61,
      "start": 12.884,
      "duration": 0.121,
      "velocity": 117,
      "chip": "ym2612"
    },
    {
      "channel": 1,
      "note": 73,
      "start": 12.8848,
      "duration": 0.121,
      "velocity": 117,
      "chip": "ym2612"
    },
    {
      "channel": 2,
      "note": 32,
      "start": 12.886,
      "duration": 0.1162,
      "velocity": 116,
      "chip": "ym2612"
    },
    {
      "channel": 0,
      "note": 60,
      "start": 13.0056,
      "duration": 0.1215,
      "velocity": 117,
      "chip": "ym2612"
    },
    {
      "channel": 1,
      "note": 72,
      "start": 13.0064,
      "duration": 0.1214,
      "velocity": 117,
      "chip": "ym2612"
    },
    {
      "channel": 5,
      "note": 63,
      "start": 13.0073,
      "duration": 0.1215,
      "velocity": 91,
      "chip": "ym2612"
    },
    {
      "channel": 2,
      "note": 38,
      "start": 13.008,
      "duration": 0.09,
      "velocity": 120,
      "chip": "ym2612"
    },
    {
      "channel": 0,
      "note": 58,
      "start": 13.1277,
      "duration": 0.1177,
      "velocity": 117,
      "chip": "ym2612"
    },
    {
      "channel": 1,
      "note": 70,
      "start": 13.1285,
      "duration": 0.1177,
      "velocity": 117,
      "chip": "ym2612"
    },
    {
      "channel": 2,
      "note": 32,
      "start": 13.1298,
      "duration": 0.1981,
      "velocity": 116,
      "chip": "ym2612"
    },
    {
      "channel": 0,
      "note": 56,
      "start": 13.246,
      "duration": 0.1237,
      "velocity": 117,
      "chip": "ym2612"
    },
    {
      "channel": 1,
      "note": 68,
      "start": 13.2467,
      "duration": 0.1233,
      "velocity": 117,
      "chip": "ym2612"
    },
    {
      "channel": 5,
      "note": 63,
      "start": 13.2476,
      "duration": 0.1234,
      "velocity": 91,
      "chip": "ym2612"
    },
    {
      "channel": 5,
      "note": 61,
      "start": 13.3717,
      "duration": 0.2416,
      "velocity": 91,
      "chip": "ym2612"
    },
    {
      "channel": 2,
      "note": 38,
      "start": 13.3724,
      "duration": 0.0899,
      "velocity": 120,
      "chip": "ym2612"
    },
    {
      "channel": 5,
      "note": 61,
      "start": 13.6137,
      "duration": 0.1183,
      "velocity": 91,
      "chip": "ym2612"
    },
    {
      "channel": 2,
      "note": 38,
      "start": 13.6144,
      "duration": 0.0908,
      "velocity": 120,
      "chip": "ym2612"
    },
    {
      "channel": 5,
      "note": 61,
      "start": 13.7324,
      "duration": 0.1251,
      "velocity": 91,
      "chip": "ym2612"
    },
    {
      "channel": 0,
      "note": 60,
      "start": 13.8565,
      "duration": 0.2398,
      "velocity": 117,
      "chip": "ym2612"
    },
    {
      "channel": 1,
      "note": 72,
      "start": 13.8572,
      "duration": 0.2394,
      "velocity": 117,
      "chip": "ym2612"
    },
    {
      "channel": 5,
      "note": 73,
      "start": 13.8582,
      "duration": 0.1209,
      "velocity": 91,
      "chip": "ym2612"
    },
    {
      "channel": 2,
      "note": 32,
      "start": 13.8589,
      "duration": 0.1156,
      "velocity": 116,
      "chip": "ym2612"
    },
    {
      "channel": 5,
      "note": 61,
      "start": 13.9798,
      "duration": 0.1173,
      "velocity": 91,
      "chip": "ym2612"
    },
    {
      "channel": 2,
      "note": 38,
      "start": 13.9804,
      "duration": 0.0899,
      "velocity": 120,
      "chip": "ym2612"
    },
    {
      "channel": 0,
      "note": 56,
      "start": 14.2211,
      "duration": 0.1183,
      "velocity": 117,
      "chip": "ym2612"
    },
    {
      "channel": 1,
      "note": 68,
      "start": 14.2218,
      "duration": 0.1179,
      "velocity": 117,
      "chip": "ym2612"
    },
    {
      "channel": 5,
      "note": 61,
      "start": 14.2227,
      "duration": 0.1176,
      "velocity": 91,
      "chip": "ym2612"
    },
    {
      "channel": 2,
      "note": 32,
      "start": 14.2235,
      "duration": 0.1975,
      "velocity": 116,
      "chip": "ym2612"
    },
    {
      "channel": 5,
      "note": 63,
      "start": 14.3408,
      "duration": 0.242,
      "velocity": 91,
      "chip": "ym2612"
    },
    {
      "channel": 2,
      "note": 32,
      "start": 14.465,
      "duration": 0.1992,
      "velocity": 116,
      "chip": "ym2612"
    },
    {
      "channel": 5,
      "note": 63,
      "start": 14.5832,
      "duration": 0.1237,
      "velocity": 91,
      "chip": "ym2612"
    },
    {
      "channel": 5,
      "note": 63,
      "start": 14.7074,
      "duration": 0.1227,
      "velocity": 91,
      "chip": "ym2612"
    },
    {
      "channel": 2,
      "note": 38,
      "start": 14.7081,
      "duration": 0.0913,
      "velocity": 120,
      "chip": "ym2612"
    },
    {
      "channel": 0,
      "note": 58,
      "start": 14.829,
      "duration": 0.121,
      "velocity": 117,
      "chip": "ym2612"
    },
    {
      "channel": 1,
      "note": 63,
      "start": 14.8298,
      "duration": 0.121,
      "velocity": 117,
      "chip": "ym2612"
    },
    {
      "channel": 5,
      "note": 75,
      "start": 14.8307,
      "duration": 0.121,
      "velocity": 91,
      "chip": "ym2612"
    },
    {
      "channel": 2,
      "note": 32,
      "start": 14.8315,
      "duration": 0.1158,
      "velocity": 116,
      "chip": "ym2612"
    },
    {
      "channel": 0,
      "note": 56,
      "start": 14.9507,
      "duration": 0.1207,
      "velocity": 117,
      "chip": "ym2612"
    },
    {
      "channel": 1,
      "note": 61,
      "start": 14.9514,
      "duration": 0.1207,
      "velocity": 117,
      "chip": "ym2612"
    },
    {
      "channel": 5,
      "note": 63,
      "start": 14.9523,
      "duration": 0.1207,
      "velocity": 91,
      "chip": "ym2612"
    },
    {
      "channel": 2,
      "note": 38,
      "start": 14.953,
      "duration": 0.0898,
      "velocity": 120,
      "chip": "ym2612"
    },
    {
      "channel": 0,
      "note": 55,
      "start": 15.0719,
      "duration": 0.1183,
      "velocity": 117,
      "chip": "ym2612"
    },
    {
      "channel": 1,
      "note": 60,
      "start": 15.0727,
      "duration": 0.1182,
      "velocity": 117,
      "chip": "ym2612"
    },
    {
      "channel": 2,
      "note": 32,
      "start": 15.0739,
      "duration": 0.1984,
      "velocity": 116,
      "chip": "ym2612"
    },
    {
      "channel": 0,
      "note": 51,
      "start": 15.1907,
      "duration": 0.1239,
      "velocity": 117,
      "chip": "ym2612"
    },
    {
      "channel": 1,
      "note": 56,
      "start": 15.1915,
      "duration": 0.1235,
      "velocity": 117,
      "chip": "ym2612"
    },
    {
      "channel": 5,
      "note": 63,
      "start": 15.1923,
      "duration": 0.1235,
      "velocity": 91,
      "chip": "ym2612"
    },
    {
      "channel": 5,
      "note": 63,
      "start": 15.3165,
      "duration": 0.2427,
      "velocity": 91,
      "chip": "ym2612"
    },
    {
      "channel": 2,
      "note": 38,
      "start": 15.3172,
      "duration": 0.0897,
      "velocity": 120,
      "chip": "ym2612"
    },
    {
      "channel": 0,
      "note": 51,
      "start": 15.5581,
      "duration": 0.1183,
      "velocity": 117,
      "chip": "ym2612"
    },
    {
      "channel": 1,
      "note": 58,
      "start": 15.5589,
      "duration": 0.1178,
      "velocity": 117,
      "chip": "ym2612"
    },
    {
      "channel": 5,
      "note": 63,
      "start": 15.5596,
      "duration": 0.1178,
      "velocity": 91,
      "chip": "ym2612"
    },
    {
      "channel": 2,
      "note": 38,
      "start": 15.5605,
      "duration": 0.09,
      "velocity": 120,
      "chip": "ym2612"
    },
    {
      "channel": 5,
      "note": 63,
      "start": 15.6778,
      "duration": 0.123,
      "velocity": 91,
      "chip": "ym2612"
    },
    {
      "channel": 5,
      "note": 75,
      "start": 15.8015,
      "duration": 0.121,
      "velocity": 91,
      "chip": "ym2612"
    },
    {
      "channel": 2,
      "note": 32,
      "start": 15.8023,
      "duration": 0.117,
      "velocity": 116,
      "chip": "ym2612"
    },
    {
      "channel": 5,
      "note": 63,
      "start": 15.9231,
      "duration": 0.1196,
      "velocity": 91,
      "chip": "ym2612"
    },
    {
      "channel": 2,
      "note": 38,
      "start": 15.9238,
      "duration": 0.0909,
      "velocity": 120,
      "chip": "ym2612"
    },
    {
      "channel": 0,
      "note": 51,
      "start": 16.0416,
      "duration": 0.1236,
      "velocity": 117,
      "chip": "ym2612"
    },
    {
      "channel": 1,
      "note": 58,
      "start": 16.0423,
      "duration": 0.1232,
      "velocity": 117,
      "chip": "ym2612"
    },
    {
      "channel": 5,
      "note": 63,
      "start": 16.1666,
      "duration": 0.1198,
      "velocity": 91,
      "chip": "ym2612"
    },
    {
      "channel": 2,
      "note": 32,
      "start": 16.1674,
      "duration": 0.1993,
      "velocity": 116,
      "chip": "ym2612"
    },
    {
      "channel": 0,
      "note": 66,
      "start": 16.2847,
      "duration": 0.1237,
      "velocity": 117,
      "chip": "ym2612"
    },
    {
      "channel": 1,
      "note": 56,
      "start": 16.2855,
      "duration": 0.1232,
      "velocity": 117,
      "chip": "ym2612"
    },
    {
      "channel": 3,
      "note": 61,
      "start": 16.2862,
      "duration": 0.1228,
      "velocity": 117,
      "chip": "ym2612"
    },
    {
      "channel": 5,
      "note": 73,
      "start": 16.2871,
      "duration": 0.1223,
      "velocity": 91,
      "chip": "ym2612"
    },
    {
      "channel": 5,
      "note": 72,
      "start": 16.41,
      "duration": 0.1197,
      "velocity": 91,
      "chip": "ym2612"
    },
    {
      "channel": 2,
      "note": 32,
      "start": 16.411,
      "duration": 0.1987,
      "velocity": 116,
      "chip": "ym2612"
    },
    {
      "channel": 0,
      "note": 66,
      "start": 16.528,
      "duration": 0.1235,
      "velocity": 117,
      "chip": "ym2612"
    },
    {
      "channel": 1,
      "note": 56,
      "start": 16.5287,
      "duration": 0.123,
      "velocity": 117,
      "chip": "ym2612"
    },
    {
      "channel": 3,
      "note": 61,
      "start": 16.5295,
      "duration": 0.1226,
      "velocity": 117,
      "chip": "ym2612"
    },
    {
      "channel": 5,
      "note": 73,
      "start": 16.5303,
      "duration": 0.1221,
      "velocity": 91,
      "chip": "ym2612"
    },
    {
      "channel": 5,
      "note": 75,
      "start": 16.6531,
      "duration": 0.1213,
      "velocity": 91,
      "chip": "ym2612"
    },
    {
      "channel": 2,
      "note": 38,
      "start": 16.6538,
      "duration": 0.0903,
      "velocity": 120,
      "chip": "ym2612"
    },
    {
      "channel": 2,
      "note": 32,
      "start": 16.7754,
      "duration": 0.1163,
      "velocity": 116,
      "chip": "ym2612"
    },
    {
      "channel": 0,
      "note": 66,
      "start": 16.8954,
      "duration": 0.1207,
      "velocity": 117,
      "chip": "ym2612"
    },
    {
      "channel": 1,
      "note": 56,
      "start": 16.8961,
      "duration": 0.1207,
      "velocity": 117,
      "chip": "ym2612"
    },
    {
      "channel": 3,
      "note": 61,
      "start": 16.8968,
      "duration": 0.1207,
      "velocity": 117,
      "chip": "ym2612"
    },
    {
      "channel": 5,
      "note": 70,
      "start": 16.8976,
      "duration": 0.1207,
      "velocity": 91,
      "chip": "ym2612"
    },
    {
      "channel": 2,
      "note": 38,
      "start": 16.8984,
      "duration": 0.0894,
      "velocity": 120,
      "chip": "ym2612"
    },
    {
      "channel": 0,
      "note": 66,
      "start": 17.0166,
      "duration": 0.1183,
      "velocity": 117,
      "chip": "ym2612"
    },
    {
      "channel": 1,
      "note": 56,
      "start": 17.0174,
      "duration": 0.1183,
      "velocity": 117,
      "chip": "ym2612"
    },
    {
      "channel": 3,
      "note": 61,
      "start": 17.0181,
      "duration": 0.1183,
      "velocity": 117,
      "chip": "ym2612"
    },
    {
      "channel": 5,
      "note": 70,
      "start": 17.0189,
      "duration": 0.1183,
      "velocity": 91,
      "chip": "ym2612"
    },
    {
      "channel": 2,
      "note": 32,
      "start": 17.0198,
      "duration": 0.1977,
      "velocity": 116,
      "chip": "ym2612"
    },
    {
      "channel": 0,
      "note": 66,
      "start": 17.1356,
      "duration": 0.1237,
      "velocity": 117,
      "chip": "ym2612"
    },
    {
      "channel": 1,
      "note": 56,
      "start": 17.1363,
      "duration": 0.1235,
      "velocity": 117,
      "chip": "ym2612"
    },
    {
      "channel": 3,
      "note": 61,
      "start": 17.137,
      "duration": 0.1231,
      "velocity": 117,
      "chip": "ym2612"
    },
    {
      "channel": 5,
      "note": 70,
      "start": 17.1378,
      "duration": 0.1232,
      "velocity": 91,
      "chip": "ym2612"
    },
    {
      "channel": 5,
      "note": 61,
      "start": 17.2616,
      "duration": 0.241,
      "velocity": 91,
      "chip": "ym2612"
    },
    {
      "channel": 2,
      "note": 38,
      "start": 17.2624,
      "duration": 0.0893,
      "velocity": 120,
      "chip": "ym2612"
    },
    {
      "channel": 5,
      "note": 61,
      "start": 17.5031,
      "duration": 0.1185,
      "velocity": 91,
      "chip": "ym2612"
    },
    {
      "channel": 2,
      "note": 38,
      "start": 17.5038,
      "duration": 0.0912,
      "velocity": 120,
      "chip": "ym2612"
    },
    {
      "channel": 5,
      "note": 61,
      "start": 17.622,
      "duration": 0.1246,
      "velocity": 91,
      "chip": "ym2612"
    },
    {
      "channel": 5,
      "note": 68,
      "start": 17.7472,
      "duration": 0.122,
      "velocity": 91,
      "chip": "ym2612"
    },
    {
      "channel": 2,
      "note": 32,
      "start": 17.748,
      "duration": 0.1161,
      "velocity": 116,
      "chip": "ym2612"
    },
    {
      "channel": 0,
      "note": 61,
      "start": 17.8675,
      "duration": 0.1209,
      "velocity": 117,
      "chip": "ym2612"
    },
    {
      "channel": 1,
      "note": 66,
      "start": 17.8683,
      "duration": 0.1209,
      "velocity": 117,
      "chip": "ym2612"
    },
    {
      "channel": 3,
      "note": 73,
      "start": 17.869,
      "duration": 0.1209,
      "velocity": 117,
      "chip": "ym2612"
    },
    {
      "channel": 5,
      "note": 70,
      "start": 17.8698,
      "duration": 0.1209,
      "velocity": 91,
      "chip": "ym2612"
    },
    {
      "channel": 2,
      "note": 38,
      "start": 17.8706,
      "duration": 0.0896,
      "velocity": 120,
      "chip": "ym2612"
    },
    {
      "channel": 0,
      "note": 61,
      "start": 17.989,
      "duration": 0.1209,
      "velocity": 117,
      "chip": "ym2612"
    },
    {
      "channel": 1,
      "note": 66,
      "start": 17.9897,
      "duration": 0.1212,
      "velocity": 117,
      "chip": "ym2612"
    },
    {
      "channel": 3,
      "note": 73,
      "start": 17.9905,
      "duration": 0.1212,
      "velocity": 117,
      "chip": "ym2612"
    },
    {
      "channel": 5,
      "note": 68,
      "start": 17.9913,
      "duration": 0.1212,
      "velocity": 91,
      "chip": "ym2612"
    },
    {
      "channel": 2,
      "note": 73,
      "start": 17.9922,
      "duration": 0.1033,
      "velocity": 116,
      "chip": "ym2612"
    },
    {
      "channel": 0,
      "note": 61,
      "start": 18.1108,
      "duration": 0.1207,
      "velocity": 117,
      "chip": "ym2612"
    },
    {
      "channel": 1,
      "note": 66,
      "start": 18.1115,
      "duration": 0.1208,
      "velocity": 117,
      "chip": "ym2612"
    },
    {
      "channel": 3,
      "note": 73,
      "start": 18.1122,
      "duration": 0.1208,
      "velocity": 117,
      "chip": "ym2612"
    },
    {
      "channel": 5,
      "note": 67,
      "start": 18.1131,
      "duration": 0.1204,
      "velocity": 91,
      "chip": "ym2612"
    },
    {
      "channel": 2,
      "note": 32,
      "start": 18.1139,
      "duration": 0.1148,
      "velocity": 116,
      "chip": "ym2612"
    },
    {
      "channel": 0,
      "note": 63,
      "start": 18.2322,
      "duration": 0.1209,
      "velocity": 117,
      "chip": "ym2612"
    },
    {
      "channel": 1,
      "note": 75,
      "start": 18.2329,
      "duration": 0.1209,
      "velocity": 117,
      "chip": "ym2612"
    },
    {
      "channel": 5,
      "note": 63,
      "start": 18.2341,
      "duration": 0.2422,
      "velocity": 91,
      "chip": "ym2612"
    },
    {
      "channel": 2,
      "note": 87,
      "start": 18.2351,
      "duration": 0.1152,
      "velocity": 127,
      "chip": "ym2612"
    },
    {
      "channel": 0,
      "note": 61,
      "start": 18.3537,
      "duration": 0.121,
      "velocity": 117,
      "chip": "ym2612"
    },
    {
      "channel": 1,
      "note": 73,
      "start": 18.3544,
      "duration": 0.1209,
      "velocity": 117,
      "chip": "ym2612"
    },
    {
      "channel": 2,
      "note": 87,
      "start": 18.3559,
      "duration": 0.1159,
      "velocity": 127,
      "chip": "ym2612"
    },
    {
      "channel": 0,
      "note": 58,
      "start": 18.4752,
      "duration": 0.1215,
      "velocity": 117,
      "chip": "ym2612"
    },
    {
      "channel": 1,
      "note": 70,
      "start": 18.476,
      "duration": 0.1214,
      "velocity": 117,
      "chip": "ym2612"
    },
    {
      "channel": 5,
      "note": 63,
      "start": 18.4768,
      "duration": 0.1216,
      "velocity": 91,
      "chip": "ym2612"
    },
    {
      "channel": 2,
      "note": 83,
      "start": 18.478,
      "duration": 0.116,
      "velocity": 127,
      "chip": "ym2612"
    },
    {
      "channel": 0,
      "note": 56,
      "start": 18.5973,
      "duration": 0.1205,
      "velocity": 117,
      "chip": "ym2612"
    },
    {
      "channel": 1,
      "note": 68,
      "start": 18.598,
      "duration": 0.1205,
      "velocity": 117,
      "chip": "ym2612"
    },
    {
      "channel": 5,
      "note": 63,
      "start": 18.5988,
      "duration": 0.1207,
      "velocity": 91,
      "chip": "ym2612"
    },
    {
      "channel": 2,
      "note": 83,
      "start": 18.5998,
      "duration": 0.1151,
      "velocity": 127,
      "chip": "ym2612"
    },
    {
      "channel": 0,
      "note": 61,
      "start": 18.7183,
      "duration": 0.121,
      "velocity": 117,
      "chip": "ym2612"
    },
    {
      "channel": 1,
      "note": 73,
      "start": 18.7191,
      "duration": 0.1209,
      "velocity": 117,
      "chip": "ym2612"
    },
    {
      "channel": 5,
      "note": 70,
      "start": 18.7201,
      "duration": 0.1209,
      "velocity": 91,
      "chip": "ym2612"
    },
    {
      "channel": 2,
      "note": 75,
      "start": 18.721,
      "duration": 0.1155,
      "velocity": 127,
      "chip": "ym2612"
    },
    {
      "channel": 0,
      "note": 58,
      "start": 18.8399,
      "duration": 0.1211,
      "velocity": 117,
      "chip": "ym2612"
    },
    {
      "channel": 1,
      "note": 70,
      "start": 18.8406,
      "duration": 0.1212,
      "velocity": 117,
      "chip": "ym2612"
    },
    {
      "channel": 2,
      "note": 75,
      "start": 18.8421,
      "duration": 0.116,
      "velocity": 127,
      "chip": "ym2612"
    },
    {
      "channel": 0,
      "note": 56,
      "start": 18.9616,
      "duration": 0.1207,
      "velocity": 117,
      "chip": "ym2612"
    },
    {
      "channel": 1,
      "note": 68,
      "start": 18.9624,
      "duration": 0.1207,
      "velocity": 117,
      "chip": "ym2612"
    },
    {
      "channel": 5,
      "note": 70,
      "start": 18.9633,
      "duration": 0.1207,
      "velocity": 91,
      "chip": "ym2612"
    },
    {
      "channel": 2,
      "note": 75,
      "start": 18.9643,
      "duration": 0.1153,
      "velocity": 127,
      "chip": "ym2612"
    },
    {
      "channel": 0,
      "note": 54,
      "start": 19.0829,
      "duration": 0.1212,
      "velocity": 117,
      "chip": "ym2612"
    },
    {
      "channel": 1,
      "note": 66,
      "start": 19.0837,
      "duration": 0.1209,
      "velocity": 117,
      "chip": "ym2612"
    },
    {
      "channel": 5,
      "note": 70,
      "start": 19.0846,
      "duration": 0.1213,
      "velocity": 91,
      "chip": "ym2612"
    },
    {
      "channel": 2,
      "note": 75,
      "start": 19.0856,
      "duration": 0.1157,
      "velocity": 127,
      "chip": "ym2612"
    },
    {
      "channel": 5,
      "note": 63,
      "start": 19.2065,
      "duration": 0.2421,
      "velocity": 91,
      "chip": "ym2612"
    },
    {
      "channel": 2,
      "note": 38,
      "start": 19.2072,
      "duration": 0.0893,
      "velocity": 120,
      "chip": "ym2612"
    },
    {
      "channel": 0,
      "note": 51,
      "start": 19.4476,
      "duration": 0.2425,
      "velocity": 117,
      "chip": "ym2612"
    },
    {
      "channel": 1,
      "note": 58,
      "start": 19.4483,
      "duration": 0.2421,
      "velocity": 117,
      "chip": "ym2612"
    },
    {
      "channel": 5,
      "note": 63,
      "start": 19.4491,
      "duration": 0.1178,
      "velocity": 91,
      "chip": "ym2612"
    },
    {
      "channel": 2,
      "note": 38,
      "start": 19.4498,
      "duration": 0.0902,
      "velocity": 120,
      "chip": "ym2612"
    },
    {
      "channel": 5,
      "note": 63,
      "start": 19.5673,
      "duration": 0.1235,
      "velocity": 91,
      "chip": "ym2612"
    },
    {
      "channel": 5,
      "note": 75,
      "start": 19.6915,
      "duration": 0.1207,
      "velocity": 91,
      "chip": "ym2612"
    },
    {
      "channel": 2,
      "note": 32,
      "start": 19.6923,
      "duration": 0.1166,
      "velocity": 116,
      "chip": "ym2612"
    },
    {
      "channel": 5,
      "note": 63,
      "start": 19.8128,
      "duration": 0.1186,
      "velocity": 91,
      "chip": "ym2612"
    },
    {
      "channel": 2,
      "note": 38,
      "start": 19.8136,
      "duration": 0.0907,
      "velocity": 120,
      "chip": "ym2612"
    },
    {
      "channel": 5,
      "note": 63,
      "start": 20.0556,
      "duration": 0.1197,
      "velocity": 91,
      "chip": "ym2612"
    },
    {
      "channel": 2,
      "note": 32,
      "start": 20.0565,
      "duration": 0.1994,
      "velocity": 116,
      "chip": "ym2612"
    },
    {
      "channel": 0,
      "note": 61,
      "start": 20.1742,
      "duration": 0.2428,
      "velocity": 117,
      "chip": "ym2612"
    },
    {
      "channel": 1,
      "note": 66,
      "start": 20.175,
      "duration": 0.2427,
      "velocity": 117,
      "chip": "ym2612"
    },
    {
      "channel": 5,
      "note": 73,
      "start": 20.1759,
      "duration": 0.1228,
      "velocity": 91,
      "chip": "ym2612"
    },
    {
      "channel": 5,
      "note": 75,
      "start": 20.2994,
      "duration": 0.1192,
      "velocity": 91,
      "chip": "ym2612"
    },
    {
      "channel": 2,
      "note": 32,
      "start": 20.3002,
      "duration": 0.1988,
      "velocity": 116,
      "chip": "ym2612"
    },
    {
      "channel": 0,
      "note": 61,
      "start": 20.4176,
      "duration": 0.2452,
      "velocity": 117,
      "chip": "ym2612"
    },
    {
      "channel": 1,
      "note": 66,
      "start": 20.4183,
      "duration": 0.2448,
      "velocity": 117,
      "chip": "ym2612"
    },
    {
      "channel": 5,
      "note": 73,
      "start": 20.4192,
      "duration": 0.1227,
      "velocity": 91,
      "chip": "ym2612"
    },
    {
      "channel": 5,
      "note": 72,
      "start": 20.5425,
      "duration": 0.1212,
      "velocity": 91,
      "chip": "ym2612"
    },
    {
      "channel": 2,
      "note": 38,
      "start": 20.5432,
      "duration": 0.0909,
      "velocity": 120,
      "chip": "ym2612"
    },
    {
      "channel": 2,
      "note": 32,
      "start": 20.6646,
      "duration": 0.1166,
      "velocity": 116,
      "chip": "ym2612"
    },
    {
      "channel": 0,
      "note": 61,
      "start": 20.7846,
      "duration": 0.3642,
      "velocity": 117,
      "chip": "ym2612"
    },
    {
      "channel": 1,
      "note": 66,
      "start": 20.7854,
      "duration": 0.3637,
      "velocity": 117,
      "chip": "ym2612"
    },
    {
      "channel": 5,
      "note": 63,
      "start": 20.7863,
      "duration": 0.1202,
      "velocity": 91,
      "chip": "ym2612"
    },
    {
      "channel": 2,
      "note": 38,
      "start": 20.787,
      "duration": 0.0903,
      "velocity": 120,
      "chip": "ym2612"
    },
    {
      "channel": 2,
      "note": 32,
      "start": 20.9074,
      "duration": 0.1994,
      "velocity": 116,
      "chip": "ym2612"
    },
    {
      "channel": 5,
      "note": 63,
      "start": 21.0259,
      "duration": 0.1242,
      "velocity": 91,
      "chip": "ym2612"
    },
    {
      "channel": 5,
      "note": 61,
      "start": 21.1507,
      "duration": 0.2415,
      "velocity": 91,
      "chip": "ym2612"
    },
    {
      "channel": 2,
      "note": 38,
      "start": 21.1514,
      "duration": 0.0898,
      "velocity": 120,
      "chip": "ym2612"
    },
    {
      "channel": 5,
      "note": 61,
      "start": 21.3927,
      "duration": 0.1187,
      "velocity": 91,
      "chip": "ym2612"
    },
    {
      "channel": 2,
      "note": 38,
      "start": 21.3934,
      "duration": 0.0909,
      "velocity": 120,
      "chip": "ym2612"
    },
    {
      "channel": 5,
      "note": 61,
      "start": 21.5118,
      "duration": 0.1248,
      "velocity": 91,
      "chip": "ym2612"
    },
    {
      "channel": 0,
      "note": 51,
      "start": 21.6355,
      "duration": 0.364,
      "velocity": 117,
      "chip": "ym2612"
    },
    {
      "channel": 1,
      "note": 58,
      "start": 21.6363,
      "duration": 0.3638,
      "velocity": 117,
      "chip": "ym2612"
    },
    {
      "channel": 5,
      "note": 73,
      "start": 21.6373,
      "duration": 0.12,
      "velocity": 91,
      "chip": "ym2612"
    },
    {
      "channel": 2,
      "note": 32,
      "start": 21.638,
      "duration": 0.1156,
      "velocity": 116,
      "chip": "ym2612"
    },
    {
      "channel": 5,
      "note": 61,
      "start": 21.7579,
      "duration": 0.1184,
      "velocity": 91,
      "chip": "ym2612"
    },
    {
      "channel": 2,
      "note": 38,
      "start": 21.7585,
      "duration": 0.0909,
      "velocity": 120,
      "chip": "ym2612"
    },
    {
      "channel": 0,
      "note": 51,
      "start": 22.0,
      "duration": 0.1185,
      "velocity": 117,
      "chip": "ym2612"
    },
    {
      "channel": 1,
      "note": 58,
      "start": 22.0005,
      "duration": 0.1187,
      "velocity": 117,
      "chip": "ym2612"
    },
    {
      "channel": 5,
      "note": 61,
      "start": 22.0014,
      "duration": 0.1188,
      "velocity": 91,
      "chip": "ym2612"
    },
    {
      "channel": 2,
      "note": 32,
      "start": 22.0022,
      "duration": 0.1984,
      "velocity": 116,
      "chip": "ym2612"
    },
    {
      "channel": 0,
      "note": 56,
      "start": 22.1191,
      "duration": 0.2424,
      "velocity": 117,
      "chip": "ym2612"
    },
    {
      "channel": 1,
      "note": 73,
      "start": 22.1199,
      "duration": 0.2424,
      "velocity": 117,
      "chip": "ym2612"
    },
    {
      "channel": 5,
      "note": 63,
      "start": 22.1208,
      "duration": 0.2424,
      "velocity": 91,
      "chip": "ym2612"
    },
    {
      "channel": 2,
      "note": 32,
      "start": 22.2448,
      "duration": 0.199,
      "velocity": 116,
      "chip": "ym2612"
    },
    {
      "channel": 0,
      "note": 56,
      "start": 22.3621,
      "duration": 0.2452,
      "velocity": 117,
      "chip": "ym2612"
    },
    {
      "channel": 1,
      "note": 73,
      "start": 22.3628,
      "duration": 0.2448,
      "velocity": 117,
      "chip": "ym2612"
    },
    {
      "channel": 5,
      "note": 63,
      "start": 22.3636,
      "duration": 0.123,
      "velocity": 91,
      "chip": "ym2612"
    },
    {
      "channel": 5,
      "note": 63,
      "start": 22.4871,
      "duration": 0.121,
      "velocity": 91,
      "chip": "ym2612"
    },
    {
      "channel": 2,
      "note": 38,
      "start": 22.4878,
      "duration": 0.091,
      "velocity": 120,
      "chip": "ym2612"
    },
    {
      "channel": 5,
      "note": 75,
      "start": 22.6088,
      "duration": 0.122,
      "velocity": 91,
      "chip": "ym2612"
    },
    {
      "channel": 2,
      "note": 32,
      "start": 22.6095,
      "duration": 0.1166,
      "velocity": 116,
      "chip": "ym2612"
    },
    {
      "channel": 0,
      "note": 56,
      "start": 22.7296,
      "duration": 0.1208,
      "velocity": 117,
      "chip": "ym2612"
    },
    {
      "channel": 1,
      "note": 73,
      "start": 22.7304,
      "duration": 0.1207,
      "velocity": 117,
      "chip": "ym2612"
    },
    {
      "channel": 5,
      "note": 63,
      "start": 22.7313,
      "duration": 0.1208,
      "velocity": 91,
      "chip": "ym2612"
    },
    {
      "channel": 2,
      "note": 38,
      "start": 22.732,
      "duration": 0.0898,
      "velocity": 120,
      "chip": "ym2612"
    },
    {
      "channel": 0,
      "note": 56,
      "start": 22.851,
      "duration": 0.1183,
      "velocity": 117,
      "chip": "ym2612"
    },
    {
      "channel": 1,
      "note": 73,
      "start": 22.8517,
      "duration": 0.1183,
      "velocity": 117,
      "chip": "ym2612"
    },
    {
      "channel": 2,
      "note": 32,
      "start": 22.853,
      "duration": 0.1983,
      "velocity": 116,
      "chip": "ym2612"
    },
    {
      "channel": 0,
      "note": 56,
      "start": 22.9699,
      "duration": 0.1239,
      "velocity": 117,
      "chip": "ym2612"
    },
    {
      "channel": 1,
      "note": 73,
      "start": 22.9706,
      "duration": 0.1235,
      "velocity": 117,
      "chip": "ym2612"
    },
    {
      "channel": 5,
      "note": 63,
      "start": 22.9715,
      "duration": 0.1235,
      "velocity": 91,
      "chip": "ym2612"
    },
    {
      "channel": 5,
      "note": 63,
      "start": 23.0956,
      "duration": 0.2426,
      "velocity": 91,
      "chip": "ym2612"
    },
    {
      "channel": 2,
      "note": 38,
      "start": 23.0964,
      "duration": 0.0895,
      "velocity": 120,
      "chip": "ym2612"
    },
    {
      "channel": 0,
      "note": 58,
      "start": 23.3372,
      "duration": 0.2427,
      "velocity": 117,
      "chip": "ym2612"
    },
    {
      "channel": 1,
      "note": 63,
      "start": 23.3379,
      "duration": 0.2424,
      "velocity": 117,
      "chip": "ym2612"
    },
    {
      "channel": 5,
      "note": 63,
      "start": 23.3386,
      "duration": 0.1177,
      "velocity": 91,
      "chip": "ym2612"
    },
    {
      "channel": 2,
      "note": 38,
      "start": 23.3394,
      "duration": 0.0903,
      "velocity": 120,
      "chip": "ym2612"
    },
    {
      "channel": 5,
      "note": 63,
      "start": 23.4568,
      "duration": 0.124,
      "velocity": 91,
      "chip": "ym2612"
    },
    {
      "channel": 5,
      "note": 75,
      "start": 23.5814,
      "duration": 0.1215,
      "velocity": 91,
      "chip": "ym2612"
    },
    {
      "channel": 2,
      "note": 32,
      "start": 23.5822,
      "duration": 0.1163,
      "velocity": 116,
      "chip": "ym2612"
    },
    {
      "channel": 0,
      "note": 58,
      "start": 23.7019,
      "duration": 0.1183,
      "velocity": 117,
      "chip": "ym2612"
    },
    {
      "channel": 1,
      "note": 63,
      "start": 23.7026,
      "duration": 0.1183,
      "velocity": 117,
      "chip": "ym2612"
    },
    {
      "channel": 5,
      "note": 63,
      "start": 23.7035,
      "duration": 0.1183,
      "velocity": 91,
      "chip": "ym2612"
    },
    {
      "channel": 2,
      "note": 38,
      "start": 23.7042,
      "duration": 0.0902,
      "velocity": 120,
      "chip": "ym2612"
    },
    {
      "channel": 0,
      "note": 58,
      "start": 23.8207,
      "duration": 0.1238,
      "velocity": 117,
      "chip": "ym2612"
    },
    {
      "channel": 1,
      "note": 63,
      "start": 23.8215,
      "duration": 0.1238,
      "velocity": 117,
      "chip": "ym2612"
    },
    {
      "channel": 0,
      "note": 58,
      "start": 23.9451,
      "duration": 0.1183,
      "velocity": 117,
      "chip": "ym2612"
    },
    {
      "channel": 1,
      "note": 63,
      "start": 23.9458,
      "duration": 0.1184,
      "velocity": 117,
      "chip": "ym2612"
    },
    {
      "channel": 5,
      "note": 63,
      "start": 23.9467,
      "duration": 0.1184,
      "velocity": 91,
      "chip": "ym2612"
    },
    {
      "channel": 2,
      "note": 32,
      "start": 23.9476,
      "duration": 0.1979,
      "velocity": 116,
      "chip": "ym2612"
    },
    {
      "channel": 0,
      "note": 61,
      "start": 24.0641,
      "duration": 0.2423,
      "velocity": 117,
      "chip": "ym2612"
    },
    {
      "channel": 1,
      "note": 66,
      "start": 24.0648,
      "duration": 0.2423,
      "velocity": 117,
      "chip": "ym2612"
    },
    {
      "channel": 5,
      "note": 73,
      "start": 24.0657,
      "duration": 0.1225,
      "velocity": 91,
      "chip": "ym2612"
    },
    {
      "channel": 5,
      "note": 72,
      "start": 24.1888,
      "duration": 0.1191,
      "velocity": 91,
      "chip": "ym2612"
    },
    {
      "channel": 2,
      "note": 32,
      "start": 24.1896,
      "duration": 0.1989,
      "velocity": 116,
      "chip": "ym2612"
    },
    {
      "channel": 0,
      "note": 61,
      "start": 24.307,
      "duration": 0.245,
      "velocity": 117,
      "chip": "ym2612"
    },
    {
      "channel": 1,
      "note": 66,
      "start": 24.3077,
      "duration": 0.2446,
      "velocity": 117,
      "chip": "ym2612"
    },
    {
      "channel": 5,
      "note": 73,
      "start": 24.3086,
      "duration": 0.1227,
      "velocity": 91,
      "chip": "ym2612"
    },
    {
      "channel": 5,
      "note": 75,
      "start": 24.4319,
      "duration": 0.1209,
      "velocity": 91,
      "chip": "ym2612"
    },
    {
      "channel": 2,
      "note": 38,
      "start": 24.4327,
      "duration": 0.0908,
      "velocity": 120,
      "chip": "ym2612"
    },
    {
      "channel": 2,
      "note": 32,
      "start": 24.5538,
      "duration": 0.117,
      "velocity": 116,
      "chip": "ym2612"
    },
    {
      "channel": 0,
      "note": 61,
      "start": 24.6741,
      "duration": 0.3642,
      "velocity": 117,
      "chip": "ym2612"
    },
    {
      "channel": 1,
      "note": 66,
      "start": 24.6749,
      "duration": 0.3637,
      "velocity": 117,
      "chip": "ym2612"
    },
    {
      "channel": 5,
      "note": 70,
      "start": 24.6758,
      "duration": 0.1205,
      "velocity": 91,
      "chip": "ym2612"
    },
    {
      "channel": 2,
      "note": 38,
      "start": 24.6766,
      "duration": 0.0901,
      "velocity": 120,
      "chip": "ym2612"
    },
    {
      "channel": 5,
      "note": 70,
      "start": 24.7968,
      "duration": 0.118,
      "velocity": 91,
      "chip": "ym2612"
    },
    {
      "channel": 2,
      "note": 32,
      "start": 24.7977,
      "duration": 0.1985,
      "velocity": 116,
      "chip": "ym2612"
    },
    {
      "channel": 5,
      "note": 70,
      "start": 24.9155,
      "duration": 0.1242,
      "velocity": 91,
      "chip": "ym2612"
    },
    {
      "channel": 5,
      "note": 61,
      "start": 25.0403,
      "duration": 0.2426,
      "velocity": 91,
      "chip": "ym2612"
    },
    {
      "channel": 2,
      "note": 38,
      "start": 25.041,
      "duration": 0.0898,
      "velocity": 120,
      "chip": "ym2612"
    },
    {
      "channel": 0,
      "note": 58,
      "start": 25.2819,
      "duration": 0.2425,
      "velocity": 117,
      "chip": "ym2612"
    },
    {
      "channel": 1,
      "note": 63,
      "start": 25.2826,
      "duration": 0.2422,
      "velocity": 117,
      "chip": "ym2612"
    },
    {
      "channel": 5,
      "note": 61,
      "start": 25.2834,
      "duration": 0.1177,
      "velocity": 91,
      "chip": "ym2612"
    },
    {
      "channel": 2,
      "note": 38,
      "start": 25.2841,
      "duration": 0.0903,
      "velocity": 120,
      "chip": "ym2612"
    },
    {
      "channel": 5,
      "note": 61,
      "start": 25.4016,
      "duration": 0.1237,
      "velocity": 91,
      "chip": "ym2612"
    },
    {
      "channel": 5,
      "note": 68,
      "start": 25.5259,
      "duration": 0.122,
      "velocity": 91,
      "chip": "ym2612"
    },
    {
      "channel": 2,
      "note": 32,
      "start": 25.5266,
      "duration": 0.1165,
      "velocity": 116,
      "chip": "ym2612"
    },
    {
      "channel": 0,
      "note": 58,
      "start": 25.6468,
      "duration": 0.1181,
      "velocity": 117,
      "chip": "ym2612"
    },
    {
      "channel": 1,
      "note": 63,
      "start": 25.6476,
      "duration": 0.1181,
      "velocity": 117,
      "chip": "ym2612"
    },
    {
      "channel": 5,
      "note": 70,
      "start": 25.6484,
      "duration": 0.1181,
      "velocity": 91,
      "chip": "ym2612"
    },
    {
      "channel": 2,
      "note": 38,
      "start": 25.6492,
      "duration": 0.0898,
      "velocity": 120,
      "chip": "ym2612"
    },
    {
      "channel": 0,
      "note": 58,
      "start": 25.7656,
      "duration": 0.1237,
      "velocity": 117,
      "chip": "ym2612"
    },
    {
      "channel": 1,
      "note": 63,
      "start": 25.7663,
      "duration": 0.1237,
      "velocity": 117,
      "chip": "ym2612"
    },
    {
      "channel": 5,
      "note": 68,
      "start": 25.7671,
      "duration": 0.1237,
      "velocity": 91,
      "chip": "ym2612"
    },
    {
      "channel": 0,
      "note": 58,
      "start": 25.8899,
      "duration": 0.1182,
      "velocity": 117,
      "chip": "ym2612"
    },
    {
      "channel": 1,
      "note": 63,
      "start": 25.8905,
      "duration": 0.1183,
      "velocity": 117,
      "chip": "ym2612"
    },
    {
      "channel": 5,
      "note": 67,
      "start": 25.8915,
      "duration": 0.1183,
      "velocity": 91,
      "chip": "ym2612"
    },
    {
      "channel": 2,
      "note": 32,
      "start": 25.8923,
      "duration": 0.1979,
      "velocity": 116,
      "chip": "ym2612"
    },
    {
      "channel": 0,
      "note": 56,
      "start": 26.0086,
      "duration": 0.2425,
      "velocity": 117,
      "chip": "ym2612"
    },
    {
      "channel": 1,
      "note": 61,
      "start": 26.0094,
      "duration": 0.2424,
      "velocity": 117,
      "chip": "ym2612"
    },
    {
      "channel": 5,
      "note": 63,
      "start": 26.0105,
      "duration": 0.2422,
      "velocity": 91,
      "chip": "ym2612"
    },
    {
      "channel": 2,
      "note": 32,
      "start": 26.1341,
      "duration": 0.1992,
      "velocity": 116,
      "chip": "ym2612"
    },
    {
      "channel": 0,
      "note": 56,
      "start": 26.2517,
      "duration": 0.2453,
      "velocity": 117,
      "chip": "ym2612"
    },
    {
      "channel": 1,
      "note": 61,
      "start": 26.2524,
      "duration": 0.2449,
      "velocity": 117,
      "chip": "ym2612"
    },
    {
      "channel": 5,
      "note": 63,
      "start": 26.2532,
      "duration": 0.1229,
      "velocity": 91,
      "chip": "ym2612"
    },
    {
      "channel": 5,
      "note": 63,
      "start": 26.3766,
      "duration": 0.1212,
      "velocity": 91,
      "chip": "ym2612"
    },
    {
      "channel": 2,
      "note": 38,
      "start": 26.3776,
      "duration": 0.0907,
      "velocity": 120,
      "chip": "ym2612"
    },
    {
      "channel": 5,
      "note": 70,
      "start": 26.4984,
      "duration": 0.1216,
      "velocity": 91,
      "chip": "ym2612"
    },
    {
      "channel": 2,
      "note": 32,
      "start": 26.4992,
      "duration": 0.1163,
      "velocity": 116,
      "chip": "ym2612"
    },
    {
      "channel": 0,
      "note": 56,
      "start": 26.6189,
      "duration": 0.121,
      "velocity": 117,
      "chip": "ym2612"
    },
    {
      "channel": 1,
      "note": 61,
      "start": 26.6197,
      "duration": 0.121,
      "velocity": 117,
      "chip": "ym2612"
    },
    {
      "channel": 5,
      "note": 68,
      "start": 26.6206,
      "duration": 0.121,
      "velocity": 91,
      "chip": "ym2612"
    },
    {
      "channel": 2,
      "note": 38,
      "start": 26.6213,
      "duration": 0.0904,
      "velocity": 120,
      "chip": "ym2612"
    },
    {
      "channel": 0,
      "note": 56,
      "start": 26.7405,
      "duration": 0.1183,
      "velocity": 117,
      "chip": "ym2612"
    },
    {
      "channel": 1,
      "note": 61,
      "start": 26.7412,
      "duration": 0.1183,
      "velocity": 117,
      "chip": "ym2612"
    },
    {
      "channel": 5,
      "note": 67,
      "start": 26.7422,
      "duration": 0.1185,
      "velocity": 91,
      "chip": "ym2612"
    },
    {
      "channel": 2,
      "note": 32,
      "start": 26.743,
      "duration": 0.1981,
      "velocity": 116,
      "chip": "ym2612"
    },
    {
      "channel": 0,
      "note": 56,
      "start": 26.8594,
      "duration": 0.1237,
      "velocity": 117,
      "chip": "ym2612"
    },
    {
      "channel": 1,
      "note": 61,
      "start": 26.8601,
      "duration": 0.1233,
      "velocity": 117,
      "chip": "ym2612"
    },
    {
      "channel": 5,
      "note": 68,
      "start": 26.8612,
      "duration": 0.1233,
      "velocity": 91,
      "chip": "ym2612"
    },
    {
      "channel": 5,
      "note": 63,
      "start": 26.9851,
      "duration": 0.2414,
      "velocity": 91,
      "chip": "ym2612"
    },
    {
      "channel": 2,
      "note": 38,
      "start": 26.9858,
      "duration": 0.0897,
      "velocity": 120,
      "chip": "ym2612"
    },
    {
      "channel": 5,
      "note": 63,
      "start": 27.2271,
      "duration": 0.1183,
      "velocity": 91,
      "chip": "ym2612"
    },
    {
      "channel": 2,
      "note": 38,
      "start": 27.2278,
      "duration": 0.0908,
      "velocity": 120,
      "chip": "ym2612"
    },
    {
      "channel": 5,
      "note": 63,
      "start": 27.3459,
      "duration": 0.1244,
      "velocity": 91,
      "chip": "ym2612"
    },
    {
      "channel": 5,
      "note": 75,
      "start": 27.471,
      "duration": 0.122,
      "velocity": 91,
      "chip": "ym2612"
    },
    {
      "channel": 2,
      "note": 32,
      "start": 27.4717,
      "duration": 0.1162,
      "velocity": 116,
      "chip": "ym2612"
    },
    {
      "channel": 0,
      "note": 51,
      "start": 27.5913,
      "duration": 0.1185,
      "velocity": 117,
      "chip": "ym2612"
    },
    {
      "channel": 1,
      "note": 58,
      "start": 27.592,
      "duration": 0.1181,
      "velocity": 117,
      "chip": "ym2612"
    },
    {
      "channel": 3,
      "note": 63,
      "start": 27.5928,
      "duration": 0.1178,
      "velocity": 117,
      "chip": "ym2612"
    },
    {
      "channel": 5,
      "note": 63,
      "start": 27.5938,
      "duration": 0.1172,
      "velocity": 91,
      "chip": "ym2612"
    },
    {
      "channel": 2,
      "note": 38,
      "start": 27.5945,
      "duration": 0.0895,
      "velocity": 120,
      "chip": "ym2612"
    },
    {
      "channel": 0,
      "note": 51,
      "start": 27.8344,
      "duration": 0.1185,
      "velocity": 117,
      "chip": "ym2612"
    },
    {
      "channel": 1,
      "note": 58,
      "start": 27.8351,
      "duration": 0.1181,
      "velocity": 117,
      "chip": "ym2612"
    },
    {
      "channel": 3,
      "note": 63,
      "start": 27.8359,
      "duration": 0.1176,
      "velocity": 117,
      "chip": "ym2612"
    },
    {
      "channel": 5,
      "note": 63,
      "start": 27.8367,
      "duration": 0.1172,
      "velocity": 91,
      "chip": "ym2612"
    },
    {
      "channel": 2,
      "note": 32,
      "start": 27.8374,
      "duration": 0.1969,
      "velocity": 116,
      "chip": "ym2612"
    },
    {
      "channel": 5,
      "note": 73,
      "start": 27.9545,
      "duration": 0.123,
      "velocity": 91,
      "chip": "ym2612"
    },
    {
      "channel": 5,
      "note": 75,
      "start": 28.0781,
      "duration": 0.1181,
      "velocity": 91,
      "chip": "ym2612"
    },
    {
      "channel": 2,
      "note": 32,
      "start": 28.0789,
      "duration": 0.1988,
      "velocity": 116,
      "chip": "ym2612"
    },
    {
      "channel": 5,
      "note": 73,
      "start": 28.1968,
      "duration": 0.1237,
      "velocity": 91,
      "chip": "ym2612"
    },
    {
      "channel": 5,
      "note": 72,
      "start": 28.321,
      "duration": 0.1223,
      "velocity": 91,
      "chip": "ym2612"
    },
    {
      "channel": 2,
      "note": 38,
      "start": 28.3217,
      "duration": 0.0909,
      "velocity": 120,
      "chip": "ym2612"
    },
    {
      "channel": 0,
      "note": 61,
      "start": 28.4422,
      "duration": 0.1211,
      "velocity": 117,
      "chip": "ym2612"
    },
    {
      "channel": 1,
      "note": 73,
      "start": 28.443,
      "duration": 0.1211,
      "velocity": 117,
      "chip": "ym2612"
    },
    {
      "channel": 2,
      "note": 32,
      "start": 28.4445,
      "duration": 0.116,
      "velocity": 116,
      "chip": "ym2612"
    },
    {
      "channel": 0,
      "note": 60,
      "start": 28.5639,
      "duration": 0.1208,
      "velocity": 117,
      "chip": "ym2612"
    },
    {
      "channel": 1,
      "note": 72,
      "start": 28.5647,
      "duration": 0.1208,
      "velocity": 117,
      "chip": "ym2612"
    },
    {
      "channel": 5,
      "note": 63,
      "start": 28.5656,
      "duration": 0.1208,
      "velocity": 91,
      "chip": "ym2612"
    },
    {
      "channel": 2,
      "note": 38,
      "start": 28.5663,
      "duration": 0.09,
      "velocity": 120,
      "chip": "ym2612"
    },
    {
      "channel": 0,
      "note": 58,
      "start": 28.6853,
      "duration": 0.1183,
      "velocity": 117,
      "chip": "ym2612"
    },
    {
      "channel": 1,
      "note": 70,
      "start": 28.686,
      "duration": 0.1182,
      "velocity": 117,
      "chip": "ym2612"
    },
    {
      "channel": 2,
      "note": 32,
      "start": 28.6873,
      "duration": 0.1985,
      "velocity": 116,
      "chip": "ym2612"
    },
    {
      "channel": 0,
      "note": 56,
      "start": 28.8041,
      "duration": 0.124,
      "velocity": 117,
      "chip": "ym2612"
    },
    {
      "channel": 1,
      "note": 68,
      "start": 28.8049,
      "duration": 0.1235,
      "velocity": 117,
      "chip": "ym2612"
    },
    {
      "channel": 5,
      "note": 63,
      "start": 28.8058,
      "duration": 0.1237,
      "velocity": 91,
      "chip": "ym2612"
    },
    {
      "channel": 5,
      "note": 61,
      "start": 28.93,
      "duration": 0.2413,
      "velocity": 91,
      "chip": "ym2612"
    },
    {
      "channel": 2,
      "note": 38,
      "start": 28.9307,
      "duration": 0.0896,
      "velocity": 120,
      "chip": "ym2612"
    },
    {
      "channel": 5,
      "note": 61,
      "start": 29.1717,
      "duration": 0.1184,
      "velocity": 91,
      "chip": "ym2612"
    },
    {
      "channel": 2,
      "note": 38,
      "start": 29.1724,
      "duration": 0.091,
      "velocity": 120,
      "chip": "ym2612"
    },
    {
      "channel": 5,
      "note": 61,
      "start": 29.2905,
      "duration": 0.1251,
      "velocity": 91,
      "chip": "ym2612"
    },
    {
      "channel": 0,
      "note": 60,
      "start": 29.4146,
      "duration": 0.2399,
      "velocity": 117,
      "chip": "ym2612"
    },
    {
      "channel": 1,
      "note": 72,
      "start": 29.4154,
      "duration": 0.2394,
      "velocity": 117,
      "chip": "ym2612"
    },
    {
      "channel": 5,
      "note": 73,
      "start": 29.4163,
      "duration": 0.1208,
      "velocity": 91,
      "chip": "ym2612"
    },
    {
      "channel": 2,
      "note": 32,
      "start": 29.4171,
      "duration": 0.1156,
      "velocity": 116,
      "chip": "ym2612"
    },
    {
      "channel": 5,
      "note": 61,
      "start": 29.5377,
      "duration": 0.1176,
      "velocity": 91,
      "chip": "ym2612"
    },
    {
      "channel": 2,
      "note": 38,
      "start": 29.5384,
      "duration": 0.0904,
      "velocity": 120,
      "chip": "ym2612"
    },
    {
      "channel": 0,
      "note": 56,
      "start": 29.7794,
      "duration": 0.118,
      "velocity": 117,
      "chip": "ym2612"
    },
    {
      "channel": 1,
      "note": 68,
      "start": 29.7802,
      "duration": 0.1176,
      "velocity": 117,
      "chip": "ym2612"
    },
    {
      "channel": 5,
      "note": 61,
      "start": 29.7811,
      "duration": 0.1173,
      "velocity": 91,
      "chip": "ym2612"
    },
    {
      "channel": 2,
      "note": 32,
      "start": 29.7818,
      "duration": 0.1977,
      "velocity": 116,
      "chip": "ym2612"
    },
    {
      "channel": 5,
      "note": 63,
      "start": 29.899,
      "duration": 0.242,
      "velocity": 91,
      "chip": "ym2612"
    },
    {
      "channel": 2,
      "note": 32,
      "start": 30.023,
      "duration": 0.1993,
      "velocity": 116,
      "chip": "ym2612"
    },
    {
      "channel": 5,
      "note": 63,
      "start": 30.1415,
      "duration": 0.1237,
      "velocity": 91,
      "chip": "ym2612"
    },
    {
      "channel": 5,
      "note": 63,
      "start": 30.2656,
      "duration": 0.1224,
      "velocity": 91,
      "chip": "ym2612"
    },
    {
      "channel": 2,
      "note": 38,
      "start": 30.2664,
      "duration": 0.091,
      "velocity": 120,
      "chip": "ym2612"
    },
    {
      "channel": 0,
      "note": 58,
      "start": 30.387,
      "duration": 0.1209,
      "velocity": 117,
      "chip": "ym2612"
    },
    {
      "channel": 1,
      "note": 63,
      "start": 30.3878,
      "duration": 0.1209,
      "velocity": 117,
      "chip": "ym2612"
    },
    {
      "channel": 5,
      "note": 75,
      "start": 30.3887,
      "duration": 0.1209,
      "velocity": 91,
      "chip": "ym2612"
    },
    {
      "channel": 2,
      "note": 32,
      "start": 30.3895,
      "duration": 0.1156,
      "velocity": 116,
      "chip": "ym2612"
    },
    {
      "channel": 0,
      "note": 56,
      "start": 30.5085,
      "duration": 0.1212,
      "velocity": 117,
      "chip": "ym2612"
    },
    {
      "channel": 1,
      "note": 61,
      "start": 30.5093,
      "duration": 0.1211,
      "velocity": 117,
      "chip": "ym2612"
    },
    {
      "channel": 5,
      "note": 63,
      "start": 30.5102,
      "duration": 0.1211,
      "velocity": 91,
      "chip": "ym2612"
    },
    {
      "channel": 2,
      "note": 38,
      "start": 30.5111,
      "duration": 0.0898,
      "velocity": 120,
      "chip": "ym2612"
    },
    {
      "channel": 0,
      "note": 55,
      "start": 30.6302,
      "duration": 0.1181,
      "velocity": 117,
      "chip": "ym2612"
    },
    {
      "channel": 1,
      "note": 60,
      "start": 30.631,
      "duration": 0.1181,
      "velocity": 117,
      "chip": "ym2612"
    },
    {
      "channel": 2,
      "note": 32,
      "start": 30.6322,
      "duration": 0.1983,
      "velocity": 116,
      "chip": "ym2612"
    },
    {
      "channel": 0,
      "note": 51,
      "start": 30.7489,
      "duration": 0.1238,
      "velocity": 117,
      "chip": "ym2612"
    },
    {
      "channel": 1,
      "note": 56,
      "start": 30.7496,
      "duration": 0.1235,
      "velocity": 117,
      "chip": "ym2612"
    },
    {
      "channel": 5,
      "note": 63,
      "start": 30.7505,
      "duration": 0.1235,
      "velocity": 91,
      "chip": "ym2612"
    },
    {
      "channel": 5,
      "note": 63,
      "start": 30.8746,
      "duration": 0.2428,
      "velocity": 91,
      "chip": "ym2612"
    },
    {
      "channel": 2,
      "note": 38,
      "start": 30.8754,
      "duration": 0.0897,
      "velocity": 120,
      "chip": "ym2612"
    },
    {
      "channel": 0,
      "note": 51,
      "start": 31.1163,
      "duration": 0.1183,
      "velocity": 117,
      "chip": "ym2612"
    },
    {
      "channel": 1,
      "note": 58,
      "start": 31.117,
      "duration": 0.1179,
      "velocity": 117,
      "chip": "ym2612"
    },
    {
      "channel": 5,
      "note": 63,
      "start": 31.1178,
      "duration": 0.1176,
      "velocity": 91,
      "chip": "ym2612"
    },
    {
      "channel": 2,
      "note": 38,
      "start": 31.1185,
      "duration": 0.0903,
      "velocity": 120,
      "chip": "ym2612"
    },
    {
      "channel": 5,
      "note": 63,
      "start": 31.2359,
      "duration": 0.1232,
      "velocity": 91,
      "chip": "ym2612"
    },
    {
      "channel": 5,
      "note": 75,
      "start": 31.3597,
      "duration": 0.1209,
      "velocity": 91,
      "chip": "ym2612"
    },
    {
      "channel": 2,
      "note": 32,
      "start": 31.3607,
      "duration": 0.1168,
      "velocity": 116,
      "chip": "ym2612"
    },
    {
      "channel": 5,
      "note": 63,
      "start": 31.4812,
      "duration": 0.1197,
      "velocity": 91,
      "chip": "ym2612"
    },
    {
      "channel": 2,
      "note": 38,
      "start": 31.482,
      "duration": 0.0908,
      "velocity": 120,
      "chip": "ym2612"
    },
    {
      "channel": 0,
      "note": 51,
      "start": 31.5998,
      "duration": 0.1235,
      "velocity": 117,
      "chip": "ym2612"
    },
    {
      "channel": 1,
      "note": 58,
      "start": 31.6005,
      "duration": 0.1232,
      "velocity": 117,
      "chip": "ym2612"
    },
    {
      "channel": 5,
      "note": 63,
      "start": 31.7248,
      "duration": 0.1201,
      "velocity": 91,
      "chip": "ym2612"
    },
    {
      "channel": 2,
      "note": 32,
      "start": 31.7255,
      "duration": 0.1992,
      "velocity": 116,
      "chip": "ym2612"
    },
    {
      "channel": 0,
      "note": 66,
      "start": 31.8429,
      "duration": 0.1235,
      "velocity": 117,
      "chip": "ym2612"
    },
    {
      "channel": 1,
      "note": 56,
      "start": 31.8439,
      "duration": 0.1229,
      "velocity": 117,
      "chip": "ym2612"
    },
    {
      "channel": 3,
      "note": 61,
      "start": 31.8446,
      "duration": 0.1224,
      "velocity": 117,
      "chip": "ym2612"
    },
    {
      "channel": 5,
      "note": 73,
      "start": 31.8455,
      "duration": 0.122,
      "velocity": 91,
      "chip": "ym2612"
    },
    {
      "channel": 5,
      "note": 72,
      "start": 31.968,
      "duration": 0.1197,
      "velocity": 91,
      "chip": "ym2612"
    },
    {
      "channel": 2,
      "note": 32,
      "start": 31.9689,
      "duration": 0.1989,
      "velocity": 116,
      "chip": "ym2612"
    },
    {
      "channel": 0,
      "note": 66,
      "start": 32.086,
      "duration": 0.1237,
      "velocity": 117,
      "chip": "ym2612"
    },
    {
      "channel": 1,
      "note": 56,
      "start": 32.0867,
      "duration": 0.1232,
      "velocity": 117,
      "chip": "ym2612"
    },
    {
      "channel": 3,
      "note": 61,
      "start": 32.0874,
      "duration": 0.123,
      "velocity": 117,
      "chip": "ym2612"
    },
    {
      "channel": 5,
      "note": 73,
      "start": 32.0883,
      "duration": 0.1226,
      "velocity": 91,
      "chip": "ym2612"
    },
    {
      "channel": 5,
      "note": 75,
      "start": 32.2115,
      "duration": 0.1207,
      "velocity": 91,
      "chip": "ym2612"
    },
    {
      "channel": 2,
      "note": 38,
      "start": 32.2122,
      "duration": 0.09,
      "velocity": 120,
      "chip": "ym2612"
    },
    {
      "channel": 2,
      "note": 32,
      "start": 32.3331,
      "duration": 0.1168,
      "velocity": 116,
      "chip": "ym2612"
    },
    {
      "channel": 0,
      "note": 66,
      "start": 32.4533,
      "duration": 0.1209,
      "velocity": 117,
      "chip": "ym2612"
    },
    {
      "channel": 1,
      "note": 56,
      "start": 32.454,
      "duration": 0.1209,
      "velocity": 117,
      "chip": "ym2612"
    },
    {
      "channel": 3,
      "note": 61,
      "start": 32.4547,
      "duration": 0.121,
      "velocity": 117,
      "chip": "ym2612"
    },
    {
      "channel": 5,
      "note": 70,
      "start": 32.4556,
      "duration": 0.1209,
      "velocity": 91,
      "chip": "ym2612"
    },
    {
      "channel": 2,
      "note": 38,
      "start": 32.4563,
      "duration": 0.0897,
      "velocity": 120,
      "chip": "ym2612"
    },
    {
      "channel": 0,
      "note": 66,
      "start": 32.5749,
      "duration": 0.1183,
      "velocity": 117,
      "chip": "ym2612"
    },
    {
      "channel": 1,
      "note": 56,
      "start": 32.5755,
      "duration": 0.1185,
      "velocity": 117,
      "chip": "ym2612"
    },
    {
      "channel": 3,
      "note": 61,
      "start": 32.5763,
      "duration": 0.1185,
      "velocity": 117,
      "chip": "ym2612"
    },
    {
      "channel": 5,
      "note": 70,
      "start": 32.5773,
      "duration": 0.1183,
      "velocity": 91,
      "chip": "ym2612"
    },
    {
      "channel": 2,
      "note": 32,
      "start": 32.5781,
      "duration": 0.1973,
      "velocity": 116,
      "chip": "ym2612"
    },
    {
      "channel": 0,
      "note": 66,
      "start": 32.6939,
      "duration": 0.1236,
      "velocity": 117,
      "chip": "ym2612"
    },
    {
      "channel": 1,
      "note": 56,
      "start": 32.6946,
      "duration": 0.1233,
      "velocity": 117,
      "chip": "ym2612"
    },
    {
      "channel": 3,
      "note": 61,
      "start": 32.6954,
      "duration": 0.1229,
      "velocity": 117,
      "chip": "ym2612"
    },
    {
      "channel": 5,
      "note": 70,
      "start": 32.6962,
      "duration": 0.1228,
      "velocity": 91,
      "chip": "ym2612"
    },
    {
      "channel": 5,
      "note": 61,
      "start": 32.8196,
      "duration": 0.2413,
      "velocity": 91,
      "chip": "ym2612"
    },
    {
      "channel": 2,
      "note": 38,
      "start": 32.8203,
      "duration": 0.0895,
      "velocity": 120,
      "chip": "ym2612"
    },
    {
      "channel": 5,
      "note": 61,
      "start": 33.0614,
      "duration": 0.1183,
      "velocity": 91,
      "chip": "ym2612"
    },
    {
      "channel": 2,
      "note": 38,
      "start": 33.0621,
      "duration": 0.0908,
      "velocity": 120,
      "chip": "ym2612"
    },
    {
      "channel": 5,
      "note": 61,
      "start": 33.1801,
      "duration": 0.1245,
      "velocity": 91,
      "chip": "ym2612"
    },
    {
      "channel": 5,
      "note": 68,
      "start": 33.3052,
      "duration": 0.1224,
      "velocity": 91,
      "chip": "ym2612"
    },
    {
      "channel": 2,
      "note": 32,
      "start": 33.306,
      "duration": 0.1163,
      "velocity": 116,
      "chip": "ym2612"
    },
    {
      "channel": 0,
      "note": 61,
      "start": 33.4257,
      "duration": 0.1212,
      "velocity": 117,
      "chip": "ym2612"
    },
    {
      "channel": 1,
      "note": 66,
      "start": 33.4264,
      "duration": 0.1211,
      "velocity": 117,
      "chip": "ym2612"
    },
    {
      "channel": 3,
      "note": 73,
      "start": 33.4274,
      "duration": 0.1209,
      "velocity": 117,
      "chip": "ym2612"
    },
    {
      "channel": 5,
      "note": 70,
      "start": 33.4282,
      "duration": 0.1209,
      "velocity": 91,
      "chip": "ym2612"
    },
    {
      "channel": 2,
      "note": 38,
      "start": 33.429,
      "duration": 0.0894,
      "velocity": 120,
      "chip": "ym2612"
    },
    {
      "channel": 0,
      "note": 61,
      "start": 33.5474,
      "duration": 0.1207,
      "velocity": 117,
      "chip": "ym2612"
    },
    {
      "channel": 1,
      "note": 66,
      "start": 33.5481,
      "duration": 0.1208,
      "velocity": 117,
      "chip": "ym2612"
    },
    {
      "channel": 3,
      "note": 73,
      "start": 33.5489,
      "duration": 0.1207,
      "velocity": 117,
      "chip": "ym2612"
    },
    {
      "channel": 5,
      "note": 68,
      "start": 33.5497,
      "duration": 0.1207,
      "velocity": 91,
      "chip": "ym2612"
    },
    {
      "channel": 2,
      "note": 73,
      "start": 33.5505,
      "duration": 0.1028,
      "velocity": 116,
      "chip": "ym2612"
    },
    {
      "channel": 0,
      "note": 61,
      "start": 33.6687,
      "duration": 0.1211,
      "velocity": 117,
      "chip": "ym2612"
    },
    {
      "channel": 1,
      "note": 66,
      "start": 33.6695,
      "duration": 0.121,
      "velocity": 117,
      "chip": "ym2612"
    },
    {
      "channel": 3,
      "note": 73,
      "start": 33.6703,
      "duration": 0.121,
      "velocity": 117,
      "chip": "ym2612"
    },
    {
      "channel": 5,
      "note": 67,
      "start": 33.671,
      "duration": 0.1207,
      "velocity": 91,
      "chip": "ym2612"
    },
    {
      "channel": 2,
      "note": 32,
      "start": 33.6719,
      "duration": 0.1151,
      "velocity": 116,
      "chip": "ym2612"
    },
    {
      "channel": 0,
      "note": 51,
      "start": 33.7904,
      "duration": 0.0777,
      "velocity": 117,
      "chip": "ym2612"
    },
    {
      "channel": 1,
      "note": 63,
      "start": 33.7911,
      "duration": 0.0777,
      "velocity": 117,
      "chip": "ym2612"
    },
    {
      "channel": 5,
      "note": 63,
      "start": 33.7923,
      "duration": 0.2422,
      "velocity": 91,
      "chip": "ym2612"
    },
    {
      "channel": 2,
      "note": 87,
      "start": 33.7933,
      "duration": 0.1152,
      "velocity": 127,
      "chip": "ym2612"
    },
    {
      "channel": 0,
      "note": 54,
      "start": 33.8686,
      "duration": 0.0429,
      "velocity": 117,
      "chip": "ym2612"
    },
    {
      "channel": 1,
      "note": 66,
      "start": 33.8694,
      "duration": 0.0429,
      "velocity": 117,
      "chip": "ym2612"
    },
    {
      "channel": 0,
      "note": 56,
      "start": 33.9121,
      "duration": 0.0774,
      "velocity": 117,
      "chip": "ym2612"
    },
    {
      "channel": 1,
      "note": 68,
      "start": 33.9129,
      "duration": 0.0773,
      "velocity": 117,
      "chip": "ym2612"
    },
    {
      "channel": 2,
      "note": 87,
      "start": 33.9144,
      "duration": 0.1156,
      "velocity": 127,
      "chip": "ym2612"
    },
    {
      "channel": 0,
      "note": 58,
      "start": 33.9901,
      "duration": 0.0427,
      "velocity": 117,
      "chip": "ym2612"
    },
    {
      "channel": 1,
      "note": 70,
      "start": 33.9909,
      "duration": 0.0427,
      "velocity": 117,
      "chip": "ym2612"
    },
    {
      "channel": 0,
      "note": 56,
      "start": 34.0334,
      "duration": 0.0777,
      "velocity": 117,
      "chip": "ym2612"
    },
    {
      "channel": 1,
      "note": 68,
      "start": 34.0341,
      "duration": 0.0777,
      "velocity": 117,
      "chip": "ym2612"
    },
    {
      "channel": 5,
      "note": 63,
      "start": 34.035,
      "duration": 0.1211,
      "velocity": 91,
      "chip": "ym2612"
    },
    {
      "channel": 2,
      "note": 83,
      "start": 34.036,
      "duration": 0.1157,
      "velocity": 127,
      "chip": "ym2612"
    },
    {
      "channel": 0,
      "note": 58,
      "start": 34.1117,
      "duration": 0.0427,
      "velocity": 117,
      "chip": "ym2612"
    },
    {
      "channel": 1,
      "note": 70,
      "start": 34.1124,
      "duration": 0.0427,
      "velocity": 117,
      "chip": "ym2612"
    },
    {
      "channel": 0,
      "note": 61,
      "start": 34.155,
      "duration": 0.0777,
      "velocity": 117,
      "chip": "ym2612"
    },
    {
      "channel": 1,
      "note": 73,
      "start": 34.1558,
      "duration": 0.0777,
      "velocity": 117,
      "chip": "ym2612"
    },
    {
      "channel": 5,
      "note": 63,
      "start": 34.1565,
      "duration": 0.1213,
      "velocity": 91,
      "chip": "ym2612"
    },
    {
      "channel": 2,
      "note": 83,
      "start": 34.1575,
      "duration": 0.1156,
      "velocity": 127,
      "chip": "ym2612"
    },
    {
      "channel": 0,
      "note": 63,
      "start": 34.2333,
      "duration": 0.0426,
      "velocity": 117,
      "chip": "ym2612"
    },
    {
      "channel": 1,
      "note": 75,
      "start": 34.2341,
      "duration": 0.0426,
      "velocity": 117,
      "chip": "ym2612"
    },
    {
      "channel": 0,
      "note": 63,
      "start": 34.2766,
      "duration": 0.0776,
      "velocity": 117,
      "chip": "ym2612"
    },
    {
      "channel": 1,
      "note": 75,
      "start": 34.2775,
      "duration": 0.0774,
      "velocity": 117,
      "chip": "ym2612"
    },
    {
      "channel": 5,
      "note": 70,
      "start": 34.2785,
      "duration": 0.1206,
      "velocity": 91,
      "chip": "ym2612"
    },
    {
      "channel": 2,
      "note": 75,
      "start": 34.2794,
      "duration": 0.1152,
      "velocity": 127,
      "chip": "ym2612"
    },
    {
      "channel": 0,
      "note": 66,
      "start": 34.3547,
      "duration": 0.0427,
      "velocity": 117,
      "chip": "ym2612"
    },
    {
      "channel": 1,
      "note": 78,
      "start": 34.3555,
      "duration": 0.0427,
      "velocity": 117,
      "chip": "ym2612"
    },
    {
      "channel": 0,
      "note": 68,
      "start": 34.398,
      "duration": 0.0777,
      "velocity": 117,
      "chip": "ym2612"
    },
    {
      "channel": 1,
      "note": 80,
      "start": 34.3988,
      "duration": 0.0777,
      "velocity": 117,
      "chip": "ym2612"
    },
    {
      "channel": 2,
      "note": 75,
      "start": 34.4002,
      "duration": 0.116,
      "velocity": 127,
      "chip": "ym2612"
    },
    {
      "channel": 0,
      "note": 70,
      "start": 34.4763,
      "duration": 0.0427,
      "velocity": 117,
      "chip": "ym2612"
    },
    {
      "channel": 1,
      "note": 82,
      "start": 34.4773,
      "duration": 0.0426,
      "velocity": 117,
      "chip": "ym2612"
    },
    {
      "channel": 0,
      "note": 73,
      "start": 34.5196,
      "duration": 0.0777,
      "velocity": 117,
      "chip": "ym2612"
    },
    {
      "channel": 1,
      "note": 85,
      "start": 34.5204,
      "duration": 0.0777,
      "velocity": 117,
      "chip": "ym2612"
    },
    {
      "channel": 5,
      "note": 70,
      "start": 34.5213,
      "duration": 0.1209,
      "velocity": 91,
      "chip": "ym2612"
    },
    {
      "channel": 2,
      "note": 75,
      "start": 34.5223,
      "duration": 0.1155,
      "velocity": 127,
      "chip": "ym2612"
    },
    {
      "channel": 0,
      "note": 70,
      "start": 34.5979,
      "duration": 0.0427,
      "velocity": 117,
      "chip": "ym2612"
    },
    {
      "channel": 1,
      "note": 82,
      "start": 34.5987,
      "duration": 0.0426,
      "velocity": 117,
      "chip": "ym2612"
    },
    {
      "channel": 0,
      "note": 73,
      "start": 34.6412,
      "duration": 0.0777,
      "velocity": 117,
      "chip": "ym2612"
    },
    {
      "channel": 1,
      "note": 85,
      "start": 34.642,
      "duration": 0.0777,
      "velocity": 117,
      "chip": "ym2612"
    },
    {
      "channel": 5,
      "note": 70,
      "start": 34.6428,
      "duration": 0.1226,
      "velocity": 91,
      "chip": "ym2612"
    },
    {
      "channel": 2,
      "note": 75,
      "start": 34.6441,
      "duration": 0.1154,
      "velocity": 127,
      "chip": "ym2612"
    },
    {
      "channel": 0,
      "note": 75,
      "start": 34.7195,
      "duration": 0.0431,
      "velocity": 117,
      "chip": "ym2612"
    },
    {
      "channel": 1,
      "note": 87,
      "start": 34.7203,
      "duration": 0.0431,
      "velocity": 117,
      "chip": "ym2612"
    },
    {
      "channel": 0,
      "note": 51,
      "start": 34.7632,
      "duration": 0.1178,
      "velocity": 117,
      "chip": "ym2612"
    },
    {
      "channel": 1,
      "note": 58,
      "start": 34.764,
      "duration": 0.1178,
      "velocity": 117,
      "chip": "ym2612"
    },
    {
      "channel": 3,
      "note": 63,
      "start": 34.7648,
      "duration": 0.1177,
      "velocity": 117,
      "chip": "ym2612"
    },
    {
      "channel": 5,
      "note": 51,
      "start": 34.7661,
      "duration": 0.3583,
      "velocity": 91,
      "chip": "ym2612"
    },
    {
      "channel": 2,
      "note": 38,
      "start": 34.7668,
      "duration": 0.0886,
      "velocity": 120,
      "chip": "ym2612"
    },
    {
      "channel": 0,
      "note": 51,
      "start": 34.8816,
      "duration": 0.1236,
      "velocity": 117,
      "chip": "ym2612"
    },
    {
      "channel": 1,
      "note": 58,
      "start": 34.8823,
      "duration": 0.1232,
      "velocity": 117,
      "chip": "ym2612"
    },
    {
      "channel": 3,
      "note": 63,
      "start": 34.883,
      "duration": 0.1228,
      "velocity": 117,
      "chip": "ym2612"
    },
    {
      "channel": 2,
      "note": 38,
      "start": 35.0072,
      "duration": 0.0905,
      "velocity": 120,
      "chip": "ym2612"
    },
    {
      "channel": 5,
      "note": 58,
      "start": 35.125,
      "duration": 0.3661,
      "velocity": 91,
      "chip": "ym2612"
    },
    {
      "channel": 2,
      "note": 32,
      "start": 35.2497,
      "duration": 0.1173,
      "velocity": 116,
      "chip": "ym2612"
    },
    {
      "channel": 2,
      "note": 38,
      "start": 35.3711,
      "duration": 0.0912,
      "velocity": 120,
      "chip": "ym2612"
    },
    {
      "channel": 0,
      "note": 51,
      "start": 35.4893,
      "duration": 0.4856,
      "velocity": 117,
      "chip": "ym2612"
    },
    {
      "channel": 1,
      "note": 58,
      "start": 35.49,
      "duration": 0.4852,
      "velocity": 117,
      "chip": "ym2612"
    },
    {
      "channel": 3,
      "note": 63,
      "start": 35.4908,
      "duration": 0.4848,
      "velocity": 117,
      "chip": "ym2612"
    },
    {
      "channel": 5,
      "note": 63,
      "start": 35.4916,
      "duration": 0.2414,
      "velocity": 91,
      "chip": "ym2612"
    },
    {
      "channel": 2,
      "note": 32,
      "start": 35.6153,
      "duration": 0.1987,
      "velocity": 116,
      "chip": "ym2612"
    },
    {
      "channel": 2,
      "note": 32,
      "start": 35.8579,
      "duration": 0.1987,
      "velocity": 116,
      "chip": "ym2612"
    },
    {
      "channel": 5,
      "note": 60,
      "start": 35.9766,
      "duration": 0.2471,
      "velocity": 91,
      "chip": "ym2612"
    },
    {
      "channel": 2,
      "note": 38,
      "start": 36.1004,
      "duration": 0.0912,
      "velocity": 120,
      "chip": "ym2612"
    },
    {
      "channel": 0,
      "note": 51,
      "start": 36.2213,
      "duration": 0.1208,
      "velocity": 117,
      "chip": "ym2612"
    },
    {
      "channel": 1,
      "note": 58,
      "start": 36.222,
      "duration": 0.1209,
      "velocity": 117,
      "chip": "ym2612"
    },
    {
      "channel": 3,
      "note": 63,
      "start": 36.2228,
      "duration": 0.121,
      "velocity": 117,
      "chip": "ym2612"
    },
    {
      "channel": 4,
      "note": 61,
      "start": 36.2236,
      "duration": 0.121,
      "velocity": 117,
      "chip": "ym2612"
    },
    {
      "channel": 5,
      "note": 61,
      "start": 36.2243,
      "duration": 0.121,
      "velocity": 91,
      "chip": "ym2612"
    },
    {
      "channel": 2,
      "note": 32,
      "start": 36.2251,
      "duration": 0.1142,
      "velocity": 116,
      "chip": "ym2612"
    },
    {
      "channel": 0,
      "note": 51,
      "start": 36.3427,
      "duration": 0.1211,
      "velocity": 117,
      "chip": "ym2612"
    },
    {
      "channel": 1,
      "note": 58,
      "start": 36.3435,
      "duration": 0.1207,
      "velocity": 117,
      "chip": "ym2612"
    },
    {
      "channel": 3,
      "note": 63,
      "start": 36.3444,
      "duration": 0.12,
      "velocity": 117,
      "chip": "ym2612"
    },
    {
      "channel": 4,
      "note": 63,
      "start": 36.3452,
      "duration": 0.1197,
      "velocity": 117,
      "chip": "ym2612"
    },
    {
      "channel": 5,
      "note": 63,
      "start": 36.3459,
      "duration": 0.1197,
      "velocity": 91,
      "chip": "ym2612"
    },
    {
      "channel": 2,
      "note": 38,
      "start": 36.3467,
      "duration": 0.0894,
      "velocity": 120,
      "chip": "ym2612"
    },
    {
      "channel": 4,
      "note": 61,
      "start": 36.4654,
      "duration": 0.1179,
      "velocity": 117,
      "chip": "ym2612"
    },
    {
      "channel": 5,
      "note": 61,
      "start": 36.4661,
      "duration": 0.1179,
      "velocity": 91,
      "chip": "ym2612"
    },
    {
      "channel": 2,
      "note": 32,
      "start": 36.467,
      "duration": 0.1976,
      "velocity": 116,
      "chip": "ym2612"
    },
    {
      "channel": 4,
      "note": 60,
      "start": 36.5839,
      "duration": 0.1253,
      "velocity": 117,
      "chip": "ym2612"
    },
    {
      "channel": 5,
      "note": 60,
      "start": 36.5846,
      "duration": 0.1249,
      "velocity": 91,
      "chip": "ym2612"
    },
    {
      "channel": 0,
      "note": 53,
      "start": 36.7075,
      "duration": 0.1182,
      "velocity": 117,
      "chip": "ym2612"
    },
    {
      "channel": 1,
      "note": 60,
      "start": 36.7082,
      "duration": 0.1182,
      "velocity": 117,
      "chip": "ym2612"
    },
    {
      "channel": 3,
      "note": 65,
      "start": 36.709,
      "duration": 0.1184,
      "velocity": 117,
      "chip": "ym2612"
    },
    {
      "channel": 5,
      "note": 53,
      "start": 36.7101,
      "duration": 0.3591,
      "velocity": 91,
      "chip": "ym2612"
    },
    {
      "channel": 2,
      "note": 38,
      "start": 36.711,
      "duration": 0.0891,
      "velocity": 120,
      "chip": "ym2612"
    },
    {
      "channel": 0,
      "note": 53,
      "start": 36.8263,
      "duration": 0.1237,
      "velocity": 117,
      "chip": "ym2612"
    },
    {
      "channel": 1,
      "note": 60,
      "start": 36.8273,
      "duration": 0.123,
      "velocity": 117,
      "chip": "ym2612"
    },
    {
      "channel": 3,
      "note": 65,
      "start": 36.828,
      "duration": 0.1227,
      "velocity": 117,
      "chip": "ym2612"
    },
    {
      "channel": 2,
      "note": 38,
      "start": 36.952,
      "duration": 0.0905,
      "velocity": 120,
      "chip": "ym2612"
    },
    {
      "channel": 5,
      "note": 60,
      "start": 37.0698,
      "duration": 0.366,
      "velocity": 91,
      "chip": "ym2612"
    },
    {
      "channel": 2,
      "note": 32,
      "start": 37.1946,
      "duration": 0.1172,
      "velocity": 116,
      "chip": "ym2612"
    },
    {
      "channel": 2,
      "note": 38,
      "start": 37.3159,
      "duration": 0.0912,
      "velocity": 120,
      "chip": "ym2612"
    },
    {
      "channel": 0,
      "note": 53,
      "start": 37.434,
      "duration": 0.4857,
      "velocity": 117,
      "chip": "ym2612"
    },
    {
      "channel": 1,
      "note": 60,
      "start": 37.4348,
      "duration": 0.4853,
      "velocity": 117,
      "chip": "ym2612"
    },
    {
      "channel": 3,
      "note": 65,
      "start": 37.4355,
      "duration": 0.4849,
      "velocity": 117,
      "chip": "ym2612"
    },
    {
      "channel": 5,
      "note": 65,
      "start": 37.4363,
      "duration": 0.2415,
      "velocity": 91,
      "chip": "ym2612"
    },
    {
      "channel": 2,
      "note": 32,
      "start": 37.5598,
      "duration": 0.199,
      "velocity": 116,
      "chip": "ym2612"
    },
    {
      "channel": 2,
      "note": 32,
      "start": 37.8027,
      "duration": 0.1987,
      "velocity": 116,
      "chip": "ym2612"
    },
    {
      "channel": 5,
      "note": 63,
      "start": 37.9213,
      "duration": 0.2471,
      "velocity": 91,
      "chip": "ym2612"
    },
    {
      "channel": 2,
      "note": 38,
      "start": 38.0454,
      "duration": 0.091,
      "velocity": 120,
      "chip": "ym2612"
    },
    {
      "channel": 0,
      "note": 53,
      "start": 38.166,
      "duration": 0.121,
      "velocity": 117,
      "chip": "ym2612"
    },
    {
      "channel": 1,
      "note": 60,
      "start": 38.1668,
      "duration": 0.1209,
      "velocity": 117,
      "chip": "ym2612"
    },
    {
      "channel": 3,
      "note": 65,
      "start": 38.1675,
      "duration": 0.1209,
      "velocity": 117,
      "chip": "ym2612"
    },
    {
      "channel": 4,
      "note": 63,
      "start": 38.1683,
      "duration": 0.1209,
      "velocity": 117,
      "chip": "ym2612"
    },
    {
      "channel": 5,
      "note": 65,
      "start": 38.169,
      "duration": 0.2419,
      "velocity": 91,
      "chip": "ym2612"
    },
    {
      "channel": 2,
      "note": 32,
      "start": 38.1698,
      "duration": 0.1144,
      "velocity": 116,
      "chip": "ym2612"
    },
    {
      "channel": 0,
      "note": 53,
      "start": 38.2876,
      "duration": 0.1213,
      "velocity": 117,
      "chip": "ym2612"
    },
    {
      "channel": 1,
      "note": 60,
      "start": 38.2883,
      "duration": 0.1209,
      "velocity": 117,
      "chip": "ym2612"
    },
    {
      "channel": 3,
      "note": 65,
      "start": 38.289,
      "duration": 0.1205,
      "velocity": 117,
      "chip": "ym2612"
    },
    {
      "channel": 4,
      "note": 65,
      "start": 38.2898,
      "duration": 0.1201,
      "velocity": 117,
      "chip": "ym2612"
    },
    {
      "channel": 2,
      "note": 38,
      "start": 38.2909,
      "duration": 0.0897,
      "velocity": 120,
      "chip": "ym2612"
    },
    {
      "channel": 4,
      "note": 63,
      "start": 38.4107,
      "duration": 0.1172,
      "velocity": 117,
      "chip": "ym2612"
    },
    {
      "channel": 5,
      "note": 63,
      "start": 38.4114,
      "duration": 0.2429,
      "velocity": 91,
      "chip": "ym2612"
    },
    {
      "channel": 2,
      "note": 32,
      "start": 38.4122,
      "duration": 0.1971,
      "velocity": 116,
      "chip": "ym2612"
    },
    {
      "channel": 4,
      "note": 74,
      "start": 38.5285,
      "duration": 0.1255,
      "velocity": 117,
      "chip": "ym2612"
    },
    {
      "channel": 0,
      "note": 56,
      "start": 38.6524,
      "duration": 0.1181,
      "velocity": 117,
      "chip": "ym2612"
    },
    {
      "channel": 1,
      "note": 63,
      "start": 38.6531,
      "duration": 0.1182,
      "velocity": 117,
      "chip": "ym2612"
    },
    {
      "channel": 3,
      "note": 68,
      "start": 38.6539,
      "duration": 0.1181,
      "velocity": 117,
      "chip": "ym2612"
    },
    {
      "channel": 5,
      "note": 56,
      "start": 38.6549,
      "duration": 0.359,
      "velocity": 91,
      "chip": "ym2612"
    },
    {
      "channel": 2,
      "note": 38,
      "start": 38.6557,
      "duration": 0.0894,
      "velocity": 120,
      "chip": "ym2612"
    },
    {
      "channel": 0,
      "note": 56,
      "start": 38.7711,
      "duration": 0.1239,
      "velocity": 117,
      "chip": "ym2612"
    },
    {
      "channel": 1,
      "note": 63,
      "start": 38.7719,
      "duration": 0.1235,
      "velocity": 117,
      "chip": "ym2612"
    },
    {
      "channel": 3,
      "note": 68,
      "start": 38.7726,
      "duration": 0.1231,
      "velocity": 117,
      "chip": "ym2612"
    },
    {
      "channel": 2,
      "note": 38,
      "start": 38.897,
      "duration": 0.0903,
      "velocity": 120,
      "chip": "ym2612"
    },
    {
      "channel": 5,
      "note": 63,
      "start": 39.0145,
      "duration": 0.366,
      "velocity": 91,
      "chip": "ym2612"
    },
    {
      "channel": 2,
      "note": 32,
      "start": 39.1391,
      "duration": 0.1174,
      "velocity": 116,
      "chip": "ym2612"
    },
    {
      "channel": 2,
      "note": 38,
      "start": 39.2608,
      "duration": 0.0911,
      "velocity": 120,
      "chip": "ym2612"
    },
    {
      "channel": 0,
      "note": 56,
      "start": 39.3788,
      "duration": 0.4856,
      "velocity": 117,
      "chip": "ym2612"
    },
    {
      "channel": 1,
      "note": 63,
      "start": 39.3795,
      "duration": 0.4852,
      "velocity": 117,
      "chip": "ym2612"
    },
    {
      "channel": 3,
      "note": 68,
      "start": 39.3803,
      "duration": 0.4848,
      "velocity": 117,
      "chip": "ym2612"
    },
    {
      "channel": 5,
      "note": 68,
      "start": 39.3811,
      "duration": 0.4844,
      "velocity": 91,
      "chip": "ym2612"
    },
    {
      "channel": 2,
      "note": 32,
      "start": 39.5046,
      "duration": 0.1992,
      "velocity": 116,
      "chip": "ym2612"
    },
    {
      "channel": 2,
      "note": 32,
      "start": 39.7479,
      "duration": 0.1982,
      "velocity": 116,
      "chip": "ym2612"
    },
    {
      "channel": 5,
      "note": 67,
      "start": 39.8661,
      "duration": 0.2473,
      "velocity": 91,
      "chip": "ym2612"
    },
    {
      "channel": 2,
      "note": 38,
      "start": 39.9899,
      "duration": 0.0915,
      "velocity": 120,
      "chip": "ym2612"
    },
    {
      "channel": 0,
      "note": 56,
      "start": 40.111,
      "duration": 0.1211,
      "velocity": 117,
      "chip": "ym2612"
    },
    {
      "channel": 1,
      "note": 63,
      "start": 40.1117,
      "duration": 0.121,
      "velocity": 117,
      "chip": "ym2612"
    },
    {
      "channel": 3,
      "note": 68,
      "start": 40.1125,
      "duration": 0.1211,
      "velocity": 117,
      "chip": "ym2612"
    },
    {
      "channel": 4,
      "note": 67,
      "start": 40.1133,
      "duration": 0.121,
      "velocity": 117,
      "chip": "ym2612"
    },
    {
      "channel": 5,
      "note": 65,
      "start": 40.114,
      "duration": 0.2411,
      "velocity": 91,
      "chip": "ym2612"
    },
    {
      "channel": 2,
      "note": 32,
      "start": 40.1148,
      "duration": 0.1145,
      "velocity": 116,
      "chip": "ym2612"
    },
    {
      "channel": 0,
      "note": 56,
      "start": 40.2327,
      "duration": 0.1206,
      "velocity": 117,
      "chip": "ym2612"
    },
    {
      "channel": 1,
      "note": 63,
      "start": 40.2334,
      "duration": 0.1203,
      "velocity": 117,
      "chip": "ym2612"
    },
    {
      "channel": 3,
      "note": 68,
      "start": 40.2341,
      "duration": 0.1198,
      "velocity": 117,
      "chip": "ym2612"
    },
    {
      "channel": 4,
      "note": 68,
      "start": 40.2348,
      "duration": 0.1195,
      "velocity": 117,
      "chip": "ym2612"
    },
    {
      "channel": 2,
      "note": 38,
      "start": 40.2359,
      "duration": 0.0893,
      "velocity": 120,
      "chip": "ym2612"
    },
    {
      "channel": 4,
      "note": 67,
      "start": 40.3549,
      "duration": 0.1176,
      "velocity": 117,
      "chip": "ym2612"
    },
    {
      "channel": 5,
      "note": 63,
      "start": 40.3556,
      "duration": 0.2438,
      "velocity": 91,
      "chip": "ym2612"
    },
    {
      "channel": 2,
      "note": 32,
      "start": 40.3564,
      "duration": 0.1978,
      "velocity": 116,
      "chip": "ym2612"
    },
    {
      "channel": 4,
      "note": 65,
      "start": 40.4731,
      "duration": 0.1259,
      "velocity": 117,
      "chip": "ym2612"
    },
    {
      "channel": 0,
      "note": 58,
      "start": 40.5973,
      "duration": 0.1179,
      "velocity": 117,
      "chip": "ym2612"
    },
    {
      "channel": 1,
      "note": 65,
      "start": 40.598,
      "duration": 0.118,
      "velocity": 117,
      "chip": "ym2612"
    },
    {
      "channel": 3,
      "note": 70,
      "start": 40.5988,
      "duration": 0.1179,
      "velocity": 117,
      "chip": "ym2612"
    },
    {
      "channel": 5,
      "note": 58,
      "start": 40.6,
      "duration": 0.3588,
      "velocity": 91,
      "chip": "ym2612"
    },
    {
      "channel": 2,
      "note": 38,
      "start": 40.6007,
      "duration": 0.0889,
      "velocity": 120,
      "chip": "ym2612"
    },
    {
      "channel": 0,
      "note": 58,
      "start": 40.7158,
      "duration": 0.1237,
      "velocity": 117,
      "chip": "ym2612"
    },
    {
      "channel": 1,
      "note": 65,
      "start": 40.7166,
      "duration": 0.1232,
      "velocity": 117,
      "chip": "ym2612"
    },
    {
      "channel": 3,
      "note": 70,
      "start": 40.7173,
      "duration": 0.1228,
      "velocity": 117,
      "chip": "ym2612"
    },
    {
      "channel": 2,
      "note": 38,
      "start": 40.8415,
      "duration": 0.0905,
      "velocity": 120,
      "chip": "ym2612"
    },
    {
      "channel": 5,
      "note": 65,
      "start": 40.9594,
      "duration": 0.366,
      "velocity": 91,
      "chip": "ym2612"
    },
    {
      "channel": 2,
      "note": 32,
      "start": 41.0839,
      "duration": 0.1175,
      "velocity": 116,
      "chip": "ym2612"
    },
    {
      "channel": 2,
      "note": 38,
      "start": 41.2054,
      "duration": 0.0912,
      "velocity": 120,
      "chip": "ym2612"
    },
    {
      "channel": 0,
      "note": 58,
      "start": 41.3237,
      "duration": 0.4855,
      "velocity": 117,
      "chip": "ym2612"
    },
    {
      "channel": 1,
      "note": 65,
      "start": 41.3244,
      "duration": 0.4851,
      "velocity": 117,
      "chip": "ym2612"
    },
    {
      "channel": 3,
      "note": 70,
      "start": 41.3252,
      "duration": 0.4846,
      "velocity": 117,
      "chip": "ym2612"
    },
    {
      "channel": 5,
      "note": 70,
      "start": 41.326,
      "duration": 0.4845,
      "velocity": 91,
      "chip": "ym2612"
    },
    {
      "channel": 2,
      "note": 32,
      "start": 41.4493,
      "duration": 0.1992,
      "velocity": 116,
      "chip": "ym2612"
    },
    {
      "channel": 2,
      "note": 32,
      "start": 41.6925,
      "duration": 0.1984,
      "velocity": 116,
      "chip": "ym2612"
    },
    {
      "channel": 5,
      "note": 65,
      "start": 41.8111,
      "duration": 0.2472,
      "velocity": 91,
      "chip": "ym2612"
    },
    {
      "channel": 2,
      "note": 38,
      "start": 41.9347,
      "duration": 0.0912,
      "velocity": 120,
      "chip": "ym2612"
    },
    {
      "channel": 0,
      "note": 58,
      "start": 42.0559,
      "duration": 0.1206,
      "velocity": 117,
      "chip": "ym2612"
    },
    {
      "channel": 1,
      "note": 65,
      "start": 42.0566,
      "duration": 0.1208,
      "velocity": 117,
      "chip": "ym2612"
    },
    {
      "channel": 3,
      "note": 70,
      "start": 42.0574,
      "duration": 0.1208,
      "velocity": 117,
      "chip": "ym2612"
    },
    {
      "channel": 4,
      "note": 68,
      "start": 42.0582,
      "duration": 0.1208,
      "velocity": 117,
      "chip": "ym2612"
    },
    {
      "channel": 5,
      "note": 58,
      "start": 42.0589,
      "duration": 0.241,
      "velocity": 91,
      "chip": "ym2612"
    },
    {
      "channel": 2,
      "note": 32,
      "start": 42.0597,
      "duration": 0.114,
      "velocity": 116,
      "chip": "ym2612"
    },
    {
      "channel": 0,
      "note": 58,
      "start": 42.1773,
      "duration": 0.1208,
      "velocity": 117,
      "chip": "ym2612"
    },
    {
      "channel": 1,
      "note": 65,
      "start": 42.178,
      "duration": 0.1204,
      "velocity": 117,
      "chip": "ym2612"
    },
    {
      "channel": 3,
      "note": 70,
      "start": 42.1788,
      "duration": 0.12,
      "velocity": 117,
      "chip": "ym2612"
    },
    {
      "channel": 4,
      "note": 70,
      "start": 42.1795,
      "duration": 0.1196,
      "velocity": 117,
      "chip": "ym2612"
    },
    {
      "channel": 2,
      "note": 38,
      "start": 42.1806,
      "duration": 0.0894,
      "velocity": 120,
      "chip": "ym2612"
    },
    {
      "channel": 4,
      "note": 68,
      "start": 42.2997,
      "duration": 0.1175,
      "velocity": 117,
      "chip": "ym2612"
    },
    {
      "channel": 5,
      "note": 65,
      "start": 42.3004,
      "duration": 0.2442,
      "velocity": 91,
      "chip": "ym2612"
    },
    {
      "channel": 2,
      "note": 32,
      "start": 42.3012,
      "duration": 0.1976,
      "velocity": 116,
      "chip": "ym2612"
    },
    {
      "channel": 4,
      "note": 67,
      "start": 42.4178,
      "duration": 0.1264,
      "velocity": 117,
      "chip": "ym2612"
    },
    {
      "channel": 0,
      "note": 51,
      "start": 42.542,
      "duration": 0.1181,
      "velocity": 117,
      "chip": "ym2612"
    },
    {
      "channel": 1,
      "note": 58,
      "start": 42.5428,
      "duration": 0.1182,
      "velocity": 117,
      "chip": "ym2612"
    },
    {
      "channel": 3,
      "note": 63,
      "start": 42.5439,
      "duration": 0.1179,
      "velocity": 117,
      "chip": "ym2612"
    },
    {
      "channel": 5,
      "note": 51,
      "start": 42.5452,
      "duration": 0.3583,
      "velocity": 91,
      "chip": "ym2612"
    },
    {
      "channel": 2,
      "note": 38,
      "start": 42.546,
      "duration": 0.0884,
      "velocity": 120,
      "chip": "ym2612"
    },
    {
      "channel": 0,
      "note": 51,
      "start": 42.6608,
      "duration": 0.1234,
      "velocity": 117,
      "chip": "ym2612"
    },
    {
      "channel": 1,
      "note": 58,
      "start": 42.6616,
      "duration": 0.123,
      "velocity": 117,
      "chip": "ym2612"
    },
    {
      "channel": 3,
      "note": 63,
      "start": 42.6624,
      "duration": 0.1225,
      "velocity": 117,
      "chip": "ym2612"
    },
    {
      "channel": 2,
      "note": 38,
      "start": 42.7862,
      "duration": 0.0905,
      "velocity": 120,
      "chip": "ym2612"
    },
    {
      "channel": 5,
      "note": 58,
      "start": 42.9041,
      "duration": 0.366,
      "velocity": 91,
      "chip": "ym2612"
    },
    {
      "channel": 2,
      "note": 32,
      "start": 43.0289,
      "duration": 0.1171,
      "velocity": 116,
      "chip": "ym2612"
    },
    {
      "channel": 2,
      "note": 38,
      "start": 43.1501,
      "duration": 0.0914,
      "velocity": 120,
      "chip": "ym2612"
    },
    {
      "channel": 0,
      "note": 51,
      "start": 43.2684,
      "duration": 0.4856,
      "velocity": 117,
      "chip": "ym2612"
    },
    {
      "channel": 1,
      "note": 58,
      "start": 43.2692,
      "duration": 0.4852,
      "velocity": 117,
      "chip": "ym2612"
    },
    {
      "channel": 3,
      "note": 63,
      "start": 43.2699,
      "duration": 0.4848,
      "velocity": 117,
      "chip": "ym2612"
    },
    {
      "channel": 5,
      "note": 63,
      "start": 43.2708,
      "duration": 0.2413,
      "velocity": 91,
      "chip": "ym2612"
    },
    {
      "channel": 2,
      "note": 32,
      "start": 43.3943,
      "duration": 0.1988,
      "velocity": 116,
      "chip": "ym2612"
    },
    {
      "channel": 2,
      "note": 32,
      "start": 43.6369,
      "duration": 0.1987,
      "velocity": 116,
      "chip": "ym2612"
    },
    {
      "channel": 5,
      "note": 60,
      "start": 43.7556,
      "duration": 0.2471,
      "velocity": 91,
      "chip": "ym2612"
    },
    {
      "channel": 2,
      "note": 38,
      "start": 43.8799,
      "duration": 0.0908,
      "velocity": 120,
      "chip": "ym2612"
    },
    {
      "channel": 0,
      "note": 51,
      "start": 44.0003,
      "duration": 0.121,
      "velocity": 117,
      "chip": "ym2612"
    },
    {
      "channel": 1,
      "note": 58,
      "start": 44.001,
      "duration": 0.1209,
      "velocity": 117,
      "chip": "ym2612"
    },
    {
      "channel": 3,
      "note": 63,
      "start": 44.0018,
      "duration": 0.1209,
      "velocity": 117,
      "chip": "ym2612"
    },
    {
      "channel": 4,
      "note": 61,
      "start": 44.0026,
      "duration": 0.1209,
      "velocity": 117,
      "chip": "ym2612"
    },
    {
      "channel": 5,
      "note": 61,
      "start": 44.0033,
      "duration": 0.1209,
      "velocity": 91,
      "chip": "ym2612"
    },
    {
      "channel": 2,
      "note": 32,
      "start": 44.0041,
      "duration": 0.1144,
      "velocity": 116,
      "chip": "ym2612"
    },
    {
      "channel": 0,
      "note": 51,
      "start": 44.1219,
      "duration": 0.121,
      "velocity": 117,
      "chip": "ym2612"
    },
    {
      "channel": 1,
      "note": 58,
      "start": 44.1226,
      "duration": 0.1206,
      "velocity": 117,
      "chip": "ym2612"
    },
    {
      "channel": 3,
      "note": 63,
      "start": 44.1233,
      "duration": 0.1202,
      "velocity": 117,
      "chip": "ym2612"
    },
    {
      "channel": 4,
      "note": 63,
      "start": 44.124,
      "duration": 0.12,
      "velocity": 117,
      "chip": "ym2612"
    },
    {
      "channel": 5,
      "note": 63,
      "start": 44.1248,
      "duration": 0.12,
      "velocity": 91,
      "chip": "ym2612"
    },
    {
      "channel": 2,
      "note": 38,
      "start": 44.1255,
      "duration": 0.0894,
      "velocity": 120,
      "chip": "ym2612"
    },
    {
      "channel": 4,
      "note": 61,
      "start": 44.2446,
      "duration": 0.1174,
      "velocity": 117,
      "chip": "ym2612"
    },
    {
      "channel": 5,
      "note": 61,
      "start": 44.2454,
      "duration": 0.1174,
      "velocity": 91,
      "chip": "ym2612"
    },
    {
      "channel": 2,
      "note": 32,
      "start": 44.2461,
      "duration": 0.1977,
      "velocity": 116,
      "chip": "ym2612"
    },
    {
      "channel": 4,
      "note": 60,
      "start": 44.3626,
      "duration": 0.1257,
      "velocity": 117,
      "chip": "ym2612"
    },
    {
      "channel": 5,
      "note": 60,
      "start": 44.3634,
      "duration": 0.1252,
      "velocity": 91,
      "chip": "ym2612"
    },
    {
      "channel": 0,
      "note": 53,
      "start": 44.4867,
      "duration": 0.1181,
      "velocity": 117,
      "chip": "ym2612"
    },
    {
      "channel": 1,
      "note": 60,
      "start": 44.4874,
      "duration": 0.1181,
      "velocity": 117,
      "chip": "ym2612"
    },
    {
      "channel": 3,
      "note": 65,
      "start": 44.4882,
      "duration": 0.118,
      "velocity": 117,
      "chip": "ym2612"
    },
    {
      "channel": 5,
      "note": 53,
      "start": 44.4893,
      "duration": 0.359,
      "velocity": 91,
      "chip": "ym2612"
    },
    {
      "channel": 2,
      "note": 38,
      "start": 44.49,
      "duration": 0.0892,
      "velocity": 120,
      "chip": "ym2612"
    },
    {
      "channel": 0,
      "note": 53,
      "start": 44.6054,
      "duration": 0.1239,
      "velocity": 117,
      "chip": "ym2612"
    },
    {
      "channel": 1,
      "note": 60,
      "start": 44.6061,
      "duration": 0.1235,
      "velocity": 117,
      "chip": "ym2612"
    },
    {
      "channel": 3,
      "note": 65,
      "start": 44.6068,
      "duration": 0.1231,
      "velocity": 117,
      "chip": "ym2612"
    },
    {
      "channel": 2,
      "note": 38,
      "start": 44.7313,
      "duration": 0.0903,
      "velocity": 120,
      "chip": "ym2612"
    },
    {
      "channel": 5,
      "note": 60,
      "start": 44.8488,
      "duration": 0.366,
      "velocity": 91,
      "chip": "ym2612"
    },
    {
      "channel": 2,
      "note": 32,
      "start": 44.9735,
      "duration": 0.1173,
      "velocity": 116,
      "chip": "ym2612"
    },
    {
      "channel": 2,
      "note": 38,
      "start": 45.0951,
      "duration": 0.091,
      "velocity": 120,
      "chip": "ym2612"
    },
    {
      "channel": 0,
      "note": 53,
      "start": 45.2131,
      "duration": 0.4859,
      "velocity": 117,
      "chip": "ym2612"
    },
    {
      "channel": 1,
      "note": 60,
      "start": 45.2138,
      "duration": 0.4855,
      "velocity": 117,
      "chip": "ym2612"
    },
    {
      "channel": 3,
      "note": 65,
      "start": 45.2145,
      "duration": 0.4851,
      "velocity": 117,
      "chip": "ym2612"
    },
    {
      "channel": 5,
      "note": 65,
      "start": 45.2154,
      "duration": 0.2414,
      "velocity": 91,
      "chip": "ym2612"
    },
    {
      "channel": 2,
      "note": 32,
      "start": 45.3389,
      "duration": 0.199,
      "velocity": 116,
      "chip": "ym2612"
    },
    {
      "channel": 2,
      "note": 32,
      "start": 45.5819,
      "duration": 0.1985,
      "velocity": 116,
      "chip": "ym2612"
    },
    {
      "channel": 5,
      "note": 63,
      "start": 45.7007,
      "duration": 0.2471,
      "velocity": 91,
      "chip": "ym2612"
    },
    {
      "channel": 2,
      "note": 38,
      "start": 45.8242,
      "duration": 0.0912,
      "velocity": 120,
      "chip": "ym2612"
    },
    {
      "channel": 0,
      "note": 53,
      "start": 45.9454,
      "duration": 0.1207,
      "velocity": 117,
      "chip": "ym2612"
    },
    {
      "channel": 1,
      "note": 60,
      "start": 45.9461,
      "duration": 0.1207,
      "velocity": 117,
      "chip": "ym2612"
    },
    {
      "channel": 3,
      "note": 65,
      "start": 45.9468,
      "duration": 0.1207,
      "velocity": 117,
      "chip": "ym2612"
    },
    {
      "channel": 4,
      "note": 63,
      "start": 45.9476,
      "duration": 0.1206,
      "velocity": 117,
      "chip": "ym2612"
    },
    {
      "channel": 5,
      "note": 65,
      "start": 45.9484,
      "duration": 0.241,
      "velocity": 91,
      "chip": "ym2612"
    },
    {
      "channel": 2,
      "note": 32,
      "start": 45.9491,
      "duration": 0.1141,
      "velocity": 116,
      "chip": "ym2612"
    },
    {
      "channel": 0,
      "note": 53,
      "start": 46.0666,
      "duration": 0.121,
      "velocity": 117,
      "chip": "ym2612"
    },
    {
      "channel": 1,
      "note": 60,
      "start": 46.0673,
      "duration": 0.1207,
      "velocity": 117,
      "chip": "ym2612"
    },
    {
      "channel": 3,
      "note": 65,
      "start": 46.0681,
      "duration": 0.1202,
      "velocity": 117,
      "chip": "ym2612"
    },
    {
      "channel": 4,
      "note": 65,
      "start": 46.0688,
      "duration": 0.1198,
      "velocity": 117,
      "chip": "ym2612"
    },
    {
      "channel": 2,
      "note": 38,
      "start": 46.0699,
      "duration": 0.0898,
      "velocity": 120,
      "chip": "ym2612"
    },
    {
      "channel": 4,
      "note": 63,
      "start": 46.1892,
      "duration": 0.1176,
      "velocity": 117,
      "chip": "ym2612"
    },
    {
      "channel": 5,
      "note": 63,
      "start": 46.19,
      "duration": 0.2434,
      "velocity": 91,
      "chip": "ym2612"
    },
    {
      "channel": 2,
      "note": 32,
      "start": 46.1907,
      "duration": 0.1977,
      "velocity": 116,
      "chip": "ym2612"
    },
    {
      "channel": 4,
      "note": 74,
      "start": 46.3073,
      "duration": 0.1257,
      "velocity": 117,
      "chip": "ym2612"
    },
    {
      "channel": 0,
      "note": 56,
      "start": 46.4314,
      "duration": 0.1183,
      "velocity": 117,
      "chip": "ym2612"
    },
    {
      "channel": 1,
      "note": 63,
      "start": 46.4321,
      "duration": 0.1183,
      "velocity": 117,
      "chip": "ym2612"
    },
    {
      "channel": 3,
      "note": 68,
      "start": 46.4329,
      "duration": 0.1183,
      "velocity": 117,
      "chip": "ym2612"
    },
    {
      "channel": 5,
      "note": 56,
      "start": 46.4339,
      "duration": 0.3591,
      "velocity": 91,
      "chip": "ym2612"
    },
    {
      "channel": 2,
      "note": 38,
      "start": 46.4347,
      "duration": 0.0893,
      "velocity": 120,
      "chip": "ym2612"
    },
    {
      "channel": 0,
      "note": 56,
      "start": 46.5502,
      "duration": 0.1236,
      "velocity": 117,
      "chip": "ym2612"
    },
    {
      "channel": 1,
      "note": 63,
      "start": 46.5509,
      "duration": 0.1232,
      "velocity": 117,
      "chip": "ym2612"
    },
    {
      "channel": 3,
      "note": 68,
      "start": 46.5517,
      "duration": 0.1228,
      "velocity": 117,
      "chip": "ym2612"
    },
    {
      "channel": 2,
      "note": 38,
      "start": 46.6758,
      "duration": 0.0905,
      "velocity": 120,
      "chip": "ym2612"
    },
    {
      "channel": 5,
      "note": 63,
      "start": 46.7938,
      "duration": 0.3659,
      "velocity": 91,
      "chip": "ym2612"
    },
    {
      "channel": 2,
      "note": 32,
      "start": 46.9182,
      "duration": 0.1174,
      "velocity": 116,
      "chip": "ym2612"
    },
    {
      "channel": 2,
      "note": 38,
      "start": 47.0397,
      "duration": 0.0913,
      "velocity": 120,
      "chip": "ym2612"
    },
    {
      "channel": 0,
      "note": 56,
      "start": 47.158,
      "duration": 0.4858,
      "velocity": 117,
      "chip": "ym2612"
    },
    {
      "channel": 1,
      "note": 63,
      "start": 47.1587,
      "duration": 0.4854,
      "velocity": 117,
      "chip": "ym2612"
    },
    {
      "channel": 3,
      "note": 68,
      "start": 47.1595,
      "duration": 0.485,
      "velocity": 117,
      "chip": "ym2612"
    },
    {
      "channel": 5,
      "note": 68,
      "start": 47.1605,
      "duration": 0.4844,
      "velocity": 91,
      "chip": "ym2612"
    },
    {
      "channel": 2,
      "note": 32,
      "start": 47.2836,
      "duration": 0.1993,
      "velocity": 116,
      "chip": "ym2612"
    },
    {
      "channel": 2,
      "note": 32,
      "start": 47.5272,
      "duration": 0.198,
      "velocity": 116,
      "chip": "ym2612"
    },
    {
      "channel": 5,
      "note": 67,
      "start": 47.6455,
      "duration": 0.2468,
      "velocity": 91,
      "chip": "ym2612"
    },
    {
      "channel": 2,
      "note": 38,
      "start": 47.769,
      "duration": 0.0915,
      "velocity": 120,
      "chip": "ym2612"
    },
    {
      "channel": 0,
      "note": 56,
      "start": 47.8899,
      "duration": 0.1212,
      "velocity": 117,
      "chip": "ym2612"
    },
    {
      "channel": 1,
      "note": 63,
      "start": 47.8906,
      "duration": 0.1212,
      "velocity": 117,
      "chip": "ym2612"
    },
    {
      "channel": 3,
      "note": 68,
      "start": 47.8914,
      "duration": 0.1212,
      "velocity": 117,
      "chip": "ym2612"
    },
    {
      "channel": 4,
      "note": 67,
      "start": 47.8922,
      "duration": 0.1212,
      "velocity": 117,
      "chip": "ym2612"
    },
    {
      "channel": 5,
      "note": 65,
      "start": 47.8928,
      "duration": 0.2414,
      "velocity": 91,
      "chip": "ym2612"
    },
    {
      "channel": 2,
      "note": 32,
      "start": 47.8939,
      "duration": 0.1143,
      "velocity": 116,
      "chip": "ym2612"
    },
    {
      "channel": 0,
      "note": 56,
      "start": 48.0117,
      "duration": 0.1207,
      "velocity": 117,
      "chip": "ym2612"
    },
    {
      "channel": 1,
      "note": 63,
      "start": 48.0124,
      "duration": 0.1204,
      "velocity": 117,
      "chip": "ym2612"
    },
    {
      "channel": 3,
      "note": 68,
      "start": 48.0131,
      "duration": 0.12,
      "velocity": 117,
      "chip": "ym2612"
    },
    {
      "channel": 4,
      "note": 68,
      "start": 48.0139,
      "duration": 0.1195,
      "velocity": 117,
      "chip": "ym2612"
    },
    {
      "channel": 2,
      "note": 38,
      "start": 48.015,
      "duration": 0.0894,
      "velocity": 120,
      "chip": "ym2612"
    },
    {
      "channel": 4,
      "note": 67,
      "start": 48.134,
      "duration": 0.1175,
      "velocity": 117,
      "chip": "ym2612"
    },
    {
      "channel": 5,
      "note": 63,
      "start": 48.1348,
      "duration": 0.2437,
      "velocity": 91,
      "chip": "ym2612"
    },
    {
      "channel": 2,
      "note": 32,
      "start": 48.1355,
      "duration": 0.1976,
      "velocity": 116,
      "chip": "ym2612"
    },
    {
      "channel": 4,
      "note": 65,
      "start": 48.2521,
      "duration": 0.126,
      "velocity": 117,
      "chip": "ym2612"
    },
    {
      "channel": 0,
      "note": 58,
      "start": 48.3762,
      "duration": 0.1183,
      "velocity": 117,
      "chip": "ym2612"
    },
    {
      "channel": 1,
      "note": 65,
      "start": 48.3771,
      "duration": 0.118,
      "velocity": 117,
      "chip": "ym2612"
    },
    {
      "channel": 3,
      "note": 70,
      "start": 48.3779,
      "duration": 0.118,
      "velocity": 117,
      "chip": "ym2612"
    },
    {
      "channel": 5,
      "note": 58,
      "start": 48.3791,
      "duration": 0.3587,
      "velocity": 91,
      "chip": "ym2612"
    },
    {
      "channel": 2,
      "note": 38,
      "start": 48.3798,
      "duration": 0.089,
      "velocity": 120,
      "chip": "ym2612"
    },
    {
      "channel": 0,
      "note": 58,
      "start": 48.495,
      "duration": 0.1236,
      "velocity": 117,
      "chip": "ym2612"
    },
    {
      "channel": 1,
      "note": 65,
      "start": 48.4958,
      "duration": 0.1232,
      "velocity": 117,
      "chip": "ym2612"
    },
    {
      "channel": 3,
      "note": 70,
      "start": 48.4965,
      "duration": 0.1228,
      "velocity": 117,
      "chip": "ym2612"
    },
    {
      "channel": 2,
      "note": 38,
      "start": 48.6206,
      "duration": 0.0907,
      "velocity": 120,
      "chip": "ym2612"
    },
    {
      "channel": 5,
      "note": 65,
      "start": 48.7383,
      "duration": 0.3687,
      "velocity": 91,
      "chip": "ym2612"
    },
    {
      "channel": 2,
      "note": 32,
      "start": 48.8633,
      "duration": 0.1172,
      "velocity": 116,
      "chip": "ym2612"
    },
    {
      "channel": 2,
      "note": 38,
      "start": 48.9844,
      "duration": 0.0912,
      "velocity": 120,
      "chip": "ym2612"
    },
    {
      "channel": 0,
      "note": 58,
      "start": 49.1053,
      "duration": 0.4856,
      "velocity": 117,
      "chip": "ym2612"
    },
    {
      "channel": 1,
      "note": 65,
      "start": 49.106,
      "duration": 0.4852,
      "velocity": 117,
      "chip": "ym2612"
    },
    {
      "channel": 3,
      "note": 70,
      "start": 49.1068,
      "duration": 0.4848,
      "velocity": 117,
      "chip": "ym2612"
    },
    {
      "channel": 5,
      "note": 70,
      "start": 49.1076,
      "duration": 0.2416,
      "velocity": 91,
      "chip": "ym2612"
    },
    {
      "channel": 2,
      "note": 73,
      "start": 49.1085,
      "duration": 0.1032,
      "velocity": 116,
      "chip": "ym2612"
    },
    {
      "channel": 2,
      "note": 32,
      "start": 49.2286,
      "duration": 0.1167,
      "velocity": 116,
      "chip": "ym2612"
    },
    {
      "channel": 2,
      "note": 87,
      "start": 49.3504,
      "duration": 0.1162,
      "velocity": 127,
      "chip": "ym2612"
    },
    {
      "channel": 2,
      "note": 87,
      "start": 49.4715,
      "duration": 0.1166,
      "velocity": 127,
      "chip": "ym2612"
    },
    {
      "channel": 5,
      "note": 70,
      "start": 49.5927,
      "duration": 0.1205,
      "velocity": 91,
      "chip": "ym2612"
    },
    {
      "channel": 2,
      "note": 83,
      "start": 49.5939,
      "duration": 0.1159,
      "velocity": 127,
      "chip": "ym2612"
    },
    {
      "channel": 5,
      "note": 70,
      "start": 49.7137,
      "duration": 0.1234,
      "velocity": 91,
      "chip": "ym2612"
    },
    {
      "channel": 2,
      "note": 83,
      "start": 49.7147,
      "duration": 0.1166,
      "velocity": 127,
      "chip": "ym2612"
    },
    {
      "channel": 0,
      "note": 58,
      "start": 49.8347,
      "duration": 0.1209,
      "velocity": 117,
      "chip": "ym2612"
    },
    {
      "channel": 1,
      "note": 65,
      "start": 49.8354,
      "duration": 0.121,
      "velocity": 117,
      "chip": "ym2612"
    },
    {
      "channel": 3,
      "note": 70,
      "start": 49.8362,
      "duration": 0.1209,
      "velocity": 117,
      "chip": "ym2612"
    },
    {
      "channel": 4,
      "note": 68,
      "start": 49.837,
      "duration": 0.1209,
      "velocity": 117,
      "chip": "ym2612"
    },
    {
      "channel": 5,
      "note": 68,
      "start": 49.8378,
      "duration": 0.2414,
      "velocity": 91,
      "chip": "ym2612"
    },
    {
      "channel": 2,
      "note": 75,
      "start": 49.8387,
      "duration": 0.1141,
      "velocity": 127,
      "chip": "ym2612"
    },
    {
      "channel": 0,
      "note": 58,
      "start": 49.9562,
      "duration": 0.1212,
      "velocity": 117,
      "chip": "ym2612"
    },
    {
      "channel": 1,
      "note": 65,
      "start": 49.957,
      "duration": 0.1207,
      "velocity": 117,
      "chip": "ym2612"
    },
    {
      "channel": 3,
      "note": 70,
      "start": 49.9577,
      "duration": 0.1203,
      "velocity": 117,
      "chip": "ym2612"
    },
    {
      "channel": 4,
      "note": 70,
      "start": 49.9584,
      "duration": 0.12,
      "velocity": 117,
      "chip": "ym2612"
    },
    {
      "channel": 2,
      "note": 75,
      "start": 49.9598,
      "duration": 0.1146,
      "velocity": 127,
      "chip": "ym2612"
    },
    {
      "channel": 4,
      "note": 68,
      "start": 50.079,
      "duration": 0.12,
      "velocity": 117,
      "chip": "ym2612"
    },
    {
      "channel": 5,
      "note": 67,
      "start": 50.0798,
      "duration": 0.12,
      "velocity": 91,
      "chip": "ym2612"
    },
    {
      "channel": 2,
      "note": 75,
      "start": 50.0807,
      "duration": 0.1153,
      "velocity": 127,
      "chip": "ym2612"
    },
    {
      "channel": 4,
      "note": 67,
      "start": 50.1996,
      "duration": 0.1221,
      "velocity": 117,
      "chip": "ym2612"
    },
    {
      "channel": 5,
      "note": 65,
      "start": 50.2003,
      "duration": 0.1217,
      "velocity": 91,
      "chip": "ym2612"
    },
    {
      "channel": 2,
      "note": 75,
      "start": 50.2013,
      "duration": 0.1162,
      "velocity": 127,
      "chip": "ym2612"
    },
    {
      "channel": 5,
      "note": 63,
      "start": 50.3226,
      "duration": 0.1169,
      "velocity": 91,
      "chip": "ym2612"
    },
    {
      "channel": 2,
      "note": 31,
      "start": 50.3234,
      "duration": 0.1027,
      "velocity": 117,
      "chip": "ym2612"
    },
    {
      "channel": 5,
      "note": 63,
      "start": 50.4401,
      "duration": 0.1251,
      "velocity": 91,
      "chip": "ym2612"
    },
    {
      "channel": 0,
      "note": 58,
      "start": 50.5641,
      "duration": 0.2422,
      "velocity": 117,
      "chip": "ym2612"
    },
    {
      "channel": 1,
      "note": 63,
      "start": 50.5649,
      "duration": 0.2419,
      "velocity": 117,
      "chip": "ym2612"
    },
    {
      "channel": 5,
      "note": 60,
      "start": 50.5658,
      "duration": 0.2414,
      "velocity": 91,
      "chip": "ym2612"
    },
    {
      "channel": 2,
      "note": 31,
      "start": 50.5666,
      "duration": 0.1032,
      "velocity": 117,
      "chip": "ym2612"
    },
    {
      "channel": 5,
      "note": 61,
      "start": 50.8078,
      "duration": 0.2425,
      "velocity": 91,
      "chip": "ym2612"
    },
    {
      "channel": 2,
      "note": 32,
      "start": 50.8086,
      "duration": 0.1166,
      "velocity": 116,
      "chip": "ym2612"
    },
    {
      "channel": 0,
      "note": 58,
      "start": 50.9288,
      "duration": 0.1208,
      "velocity": 117,
      "chip": "ym2612"
    },
    {
      "channel": 1,
      "note": 63,
      "start": 50.9295,
      "duration": 0.1204,
      "velocity": 117,
      "chip": "ym2612"
    },
    {
      "channel": 2,
      "note": 31,
      "start": 50.9308,
      "duration": 0.1037,
      "velocity": 117,
      "chip": "ym2612"
    },
    {
      "channel": 5,
      "note": 62,
      "start": 51.0509,
      "duration": 0.2443,
      "velocity": 91,
      "chip": "ym2612"
    },
    {
      "channel": 2,
      "note": 73,
      "start": 51.0518,
      "duration": 0.1038,
      "velocity": 116,
      "chip": "ym2612"
    },
    {
      "channel": 2,
      "note": 32,
      "start": 51.1729,
      "duration": 0.1169,
      "velocity": 116,
      "chip": "ym2612"
    },
    {
      "channel": 0,
      "note": 63,
      "start": 51.2932,
      "duration": 0.1209,
      "velocity": 117,
      "chip": "ym2612"
    },
    {
      "channel": 1,
      "note": 70,
      "start": 51.2942,
      "duration": 0.1203,
      "velocity": 117,
      "chip": "ym2612"
    },
    {
      "channel": 3,
      "note": 82,
      "start": 51.2949,
      "duration": 0.1198,
      "velocity": 117,
      "chip": "ym2612"
    },
    {
      "channel": 5,
      "note": 63,
      "start": 51.2958,
      "duration": 0.3638,
      "velocity": 91,
      "chip": "ym2612"
    },
    {
      "channel": 2,
      "note": 73,
      "start": 51.2967,
      "duration": 0.1027,
      "velocity": 116,
      "chip": "ym2612"
    },
    {
      "channel": 2,
      "note": 32,
      "start": 51.4162,
      "duration": 0.1167,
      "velocity": 116,
      "chip": "ym2612"
    },
    {
      "channel": 2,
      "note": 73,
      "start": 51.5378,
      "duration": 0.1039,
      "velocity": 116,
      "chip": "ym2612"
    },
    {
      "channel": 0,
      "note": 63,
      "start": 51.6579,
      "duration": 0.1212,
      "velocity": 117,
      "chip": "ym2612"
    },
    {
      "channel": 1,
      "note": 70,
      "start": 51.6586,
      "duration": 0.1208,
      "velocity": 117,
      "chip": "ym2612"
    },
    {
      "channel": 3,
      "note": 82,
      "start": 51.6594,
      "duration": 0.1204,
      "velocity": 117,
      "chip": "ym2612"
    },
    {
      "channel": 5,
      "note": 63,
      "start": 51.6605,
      "duration": 0.3639,
      "velocity": 91,
      "chip": "ym2612"
    },
    {
      "channel": 2,
      "note": 38,
      "start": 51.6612,
      "duration": 0.0893,
      "velocity": 120,
      "chip": "ym2612"
    },
    {
      "channel": 2,
      "note": 32,
      "start": 51.7811,
      "duration": 0.1166,
      "velocity": 116,
      "chip": "ym2612"
    },
    {
      "channel": 2,
      "note": 31,
      "start": 51.9024,
      "duration": 0.1039,
      "velocity": 117,
      "chip": "ym2612"
    },
    {
      "channel": 0,
      "note": 63,
      "start": 52.0226,
      "duration": 0.2427,
      "velocity": 117,
      "chip": "ym2612"
    },
    {
      "channel": 1,
      "note": 70,
      "start": 52.0233,
      "duration": 0.2423,
      "velocity": 117,
      "chip": "ym2612"
    },
    {
      "channel": 3,
      "note": 82,
      "start": 52.0241,
      "duration": 0.242,
      "velocity": 117,
      "chip": "ym2612"
    },
    {
      "channel": 5,
      "note": 63,
      "start": 52.0249,
      "duration": 0.2419,
      "velocity": 91,
      "chip": "ym2612"
    },
    {
      "channel": 2,
      "note": 32,
      "start": 52.0257,
      "duration": 0.1976,
      "velocity": 116,
      "chip": "ym2612"
    },
    {
      "channel": 5,
      "note": 63,
      "start": 52.2674,
      "duration": 0.1169,
      "velocity": 91,
      "chip": "ym2612"
    },
    {
      "channel": 2,
      "note": 31,
      "start": 52.2682,
      "duration": 0.1028,
      "velocity": 117,
      "chip": "ym2612"
    },
    {
      "channel": 5,
      "note": 63,
      "start": 52.3848,
      "duration": 0.1249,
      "velocity": 91,
      "chip": "ym2612"
    },
    {
      "channel": 0,
      "note": 58,
      "start": 52.5087,
      "duration": 0.2426,
      "velocity": 117,
      "chip": "ym2612"
    },
    {
      "channel": 1,
      "note": 63,
      "start": 52.5094,
      "duration": 0.2422,
      "velocity": 117,
      "chip": "ym2612"
    },
    {
      "channel": 5,
      "note": 60,
      "start": 52.5105,
      "duration": 0.2415,
      "velocity": 91,
      "chip": "ym2612"
    },
    {
      "channel": 2,
      "note": 31,
      "start": 52.5114,
      "duration": 0.1033,
      "velocity": 117,
      "chip": "ym2612"
    },
    {
      "channel": 5,
      "note": 61,
      "start": 52.7526,
      "duration": 0.2428,
      "velocity": 91,
      "chip": "ym2612"
    },
    {
      "channel": 2,
      "note": 32,
      "start": 52.7535,
      "duration": 0.1164,
      "velocity": 116,
      "chip": "ym2612"
    },
    {
      "channel": 0,
      "note": 58,
      "start": 52.8733,
      "duration": 0.1212,
      "velocity": 117,
      "chip": "ym2612"
    },
    {
      "channel": 1,
      "note": 63,
      "start": 52.874,
      "duration": 0.1209,
      "velocity": 117,
      "chip": "ym2612"
    },
    {
      "channel": 2,
      "note": 31,
      "start": 52.8754,
      "duration": 0.104,
      "velocity": 117,
      "chip": "ym2612"
    },
    {
      "channel": 5,
      "note": 62,
      "start": 52.996,
      "duration": 0.2438,
      "velocity": 91,
      "chip": "ym2612"
    },
    {
      "channel": 2,
      "note": 73,
      "start": 52.9968,
      "duration": 0.1034,
      "velocity": 116,
      "chip": "ym2612"
    },
    {
      "channel": 2,
      "note": 32,
      "start": 53.1177,
      "duration": 0.117,
      "velocity": 116,
      "chip": "ym2612"
    },
    {
      "channel": 0,
      "note": 63,
      "start": 53.238,
      "duration": 0.121,
      "velocity": 117,
      "chip": "ym2612"
    },
    {
      "channel": 1,
      "note": 70,
      "start": 53.2388,
      "duration": 0.1205,
      "velocity": 117,
      "chip": "ym2612"
    },
    {
      "channel": 3,
      "note": 82,
      "start": 53.2395,
      "duration": 0.1201,
      "velocity": 117,
      "chip": "ym2612"
    },
    {
      "channel": 5,
      "note": 63,
      "start": 53.2404,
      "duration": 0.364,
      "velocity": 91,
      "chip": "ym2612"
    },
    {
      "channel": 2,
      "note": 73,
      "start": 53.2412,
      "duration": 0.1032,
      "velocity": 116,
      "chip": "ym2612"
    },
    {
      "channel": 2,
      "note": 32,
      "start": 53.3612,
      "duration": 0.1164,
      "velocity": 116,
      "chip": "ym2612"
    },
    {
      "channel": 2,
      "note": 73,
      "start": 53.4825,
      "duration": 0.1039,
      "velocity": 116,
      "chip": "ym2612"
    },
    {
      "channel": 0,
      "note": 63,
      "start": 53.6026,
      "duration": 0.1209,
      "velocity": 117,
      "chip": "ym2612"
    },
    {
      "channel": 1,
      "note": 70,
      "start": 53.6034,
      "duration": 0.1205,
      "velocity": 117,
      "chip": "ym2612"
    },
    {
      "channel": 3,
      "note": 82,
      "start": 53.6042,
      "duration": 0.12,
      "velocity": 117,
      "chip": "ym2612"
    },
    {
      "channel": 5,
      "note": 63,
      "start": 53.6049,
      "duration": 0.3642,
      "velocity": 91,
      "chip": "ym2612"
    },
    {
      "channel": 2,
      "note": 38,
      "start": 53.6057,
      "duration": 0.0899,
      "velocity": 120,
      "chip": "ym2612"
    },
    {
      "channel": 2,
      "note": 32,
      "start": 53.7256,
      "duration": 0.1167,
      "velocity": 116,
      "chip": "ym2612"
    },
    {
      "channel": 2,
      "note": 31,
      "start": 53.8474,
      "duration": 0.1038,
      "velocity": 117,
      "chip": "ym2612"
    },
    {
      "channel": 0,
      "note": 63,
      "start": 53.9673,
      "duration": 0.2427,
      "velocity": 117,
      "chip": "ym2612"
    },
    {
      "channel": 1,
      "note": 70,
      "start": 53.9681,
      "duration": 0.2426,
      "velocity": 117,
      "chip": "ym2612"
    },
    {
      "channel": 3,
      "note": 82,
      "start": 53.9689,
      "duration": 0.2422,
      "velocity": 117,
      "chip": "ym2612"
    },
    {
      "channel": 5,
      "note": 63,
      "start": 53.9697,
      "duration": 0.2421,
      "velocity": 91,
      "chip": "ym2612"
    },
    {
      "channel": 2,
      "note": 32,
      "start": 53.9705,
      "duration": 0.1975,
      "velocity": 116,
      "chip": "ym2612"
    },
    {
      "channel": 5,
      "note": 68,
      "start": 54.2124,
      "duration": 0.1166,
      "velocity": 91,
      "chip": "ym2612"
    },
    {
      "channel": 2,
      "note": 31,
      "start": 54.2133,
      "duration": 0.1025,
      "velocity": 117,
      "chip": "ym2612"
    },
    {
      "channel": 5,
      "note": 68,
      "start": 54.3296,
      "duration": 0.1249,
      "velocity": 91,
      "chip": "ym2612"
    },
    {
      "channel": 0,
      "note": 56,
      "start": 54.4535,
      "duration": 0.2427,
      "velocity": 117,
      "chip": "ym2612"
    },
    {
      "channel": 1,
      "note": 63,
      "start": 54.4542,
      "duration": 0.2422,
      "velocity": 117,
      "chip": "ym2612"
    },
    {
      "channel": 5,
      "note": 65,
      "start": 54.4551,
      "duration": 0.2419,
      "velocity": 91,
      "chip": "ym2612"
    },
    {
      "channel": 2,
      "note": 31,
      "start": 54.4559,
      "duration": 0.1034,
      "velocity": 117,
      "chip": "ym2612"
    },
    {
      "channel": 5,
      "note": 66,
      "start": 54.6976,
      "duration": 0.2423,
      "velocity": 91,
      "chip": "ym2612"
    },
    {
      "channel": 2,
      "note": 32,
      "start": 54.6984,
      "duration": 0.1164,
      "velocity": 116,
      "chip": "ym2612"
    },
    {
      "channel": 0,
      "note": 56,
      "start": 54.8182,
      "duration": 0.1209,
      "velocity": 117,
      "chip": "ym2612"
    },
    {
      "channel": 1,
      "note": 63,
      "start": 54.8189,
      "duration": 0.1205,
      "velocity": 117,
      "chip": "ym2612"
    },
    {
      "channel": 2,
      "note": 31,
      "start": 54.8203,
      "duration": 0.1037,
      "velocity": 117,
      "chip": "ym2612"
    },
    {
      "channel": 5,
      "note": 67,
      "start": 54.9404,
      "duration": 0.244,
      "velocity": 91,
      "chip": "ym2612"
    },
    {
      "channel": 2,
      "note": 73,
      "start": 54.9413,
      "duration": 0.1038,
      "velocity": 116,
      "chip": "ym2612"
    },
    {
      "channel": 2,
      "note": 32,
      "start": 55.0626,
      "duration": 0.1168,
      "velocity": 116,
      "chip": "ym2612"
    },
    {
      "channel": 0,
      "note": 63,
      "start": 55.1827,
      "duration": 0.1209,
      "velocity": 117,
      "chip": "ym2612"
    },
    {
      "channel": 1,
      "note": 68,
      "start": 55.1835,
      "duration": 0.1205,
      "velocity": 117,
      "chip": "ym2612"
    },
    {
      "channel": 3,
      "note": 75,
      "start": 55.1843,
      "duration": 0.12,
      "velocity": 117,
      "chip": "ym2612"
    },
    {
      "channel": 5,
      "note": 68,
      "start": 55.1851,
      "duration": 0.3642,
      "velocity": 91,
      "chip": "ym2612"
    },
    {
      "channel": 2,
      "note": 73,
      "start": 55.186,
      "duration": 0.103,
      "velocity": 116,
      "chip": "ym2612"
    },
    {
      "channel": 2,
      "note": 32,
      "start": 55.3057,
      "duration": 0.1168,
      "velocity": 116,
      "chip": "ym2612"
    },
    {
      "channel": 2,
      "note": 73,
      "start": 55.4276,
      "duration": 0.1036,
      "velocity": 116,
      "chip": "ym2612"
    },
    {
      "channel": 0,
      "note": 63,
      "start": 55.5476,
      "duration": 0.1208,
      "velocity": 117,
      "chip": "ym2612"
    },
    {
      "channel": 1,
      "note": 68,
      "start": 55.5483,
      "duration": 0.1203,
      "velocity": 117,
      "chip": "ym2612"
    },
    {
      "channel": 3,
      "note": 75,
      "start": 55.549,
      "duration": 0.12,
      "velocity": 117,
      "chip": "ym2612"
    },
    {
      "channel": 5,
      "note": 68,
      "start": 55.5498,
      "duration": 0.3642,
      "velocity": 91,
      "chip": "ym2612"
    },
    {
      "channel": 2,
      "note": 38,
      "start": 55.5506,
      "duration": 0.0894,
      "velocity": 120,
      "chip": "ym2612"
    },
    {
      "channel": 2,
      "note": 32,
      "start": 55.6703,
      "duration": 0.1168,
      "velocity": 116,
      "chip": "ym2612"
    },
    {
      "channel": 2,
      "note": 31,
      "start": 55.792,
      "duration": 0.1039,
      "velocity": 117,
      "chip": "ym2612"
    },
    {
      "channel": 0,
      "note": 63,
      "start": 55.9123,
      "duration": 0.2423,
      "velocity": 117,
      "chip": "ym2612"
    },
    {
      "channel": 1,
      "note": 68,
      "start": 55.9131,
      "duration": 0.2418,
      "velocity": 117,
      "chip": "ym2612"
    },
    {
      "channel": 3,
      "note": 75,
      "start": 55.9138,
      "duration": 0.2415,
      "velocity": 117,
      "chip": "ym2612"
    },
    {
      "channel": 5,
      "note": 68,
      "start": 55.9147,
      "duration": 0.2413,
      "velocity": 91,
      "chip": "ym2612"
    },
    {
      "channel": 2,
      "note": 32,
      "start": 55.9155,
      "duration": 0.1973,
      "velocity": 116,
      "chip": "ym2612"
    },
    {
      "channel": 5,
      "note": 68,
      "start": 56.1565,
      "duration": 0.1173,
      "velocity": 91,
      "chip": "ym2612"
    },
    {
      "channel": 2,
      "note": 38,
      "start": 56.1572,
      "duration": 0.0902,
      "velocity": 120,
      "chip": "ym2612"
    },
    {
      "channel": 5,
      "note": 68,
      "start": 56.2744,
      "duration": 0.1249,
      "velocity": 91,
      "chip": "ym2612"
    },
    {
      "channel": 0,
      "note": 56,
      "start": 56.3983,
      "duration": 0.2424,
      "velocity": 117,
      "chip": "ym2612"
    },
    {
      "channel": 1,
      "note": 63,
      "start": 56.399,
      "duration": 0.242,
      "velocity": 117,
      "chip": "ym2612"
    },
    {
      "channel": 5,
      "note": 65,
      "start": 56.4,
      "duration": 0.2416,
      "velocity": 91,
      "chip": "ym2612"
    },
    {
      "channel": 2,
      "note": 38,
      "start": 56.4007,
      "duration": 0.09,
      "velocity": 120,
      "chip": "ym2612"
    },
    {
      "channel": 5,
      "note": 66,
      "start": 56.6422,
      "duration": 0.2424,
      "velocity": 91,
      "chip": "ym2612"
    },
    {
      "channel": 2,
      "note": 32,
      "start": 56.643,
      "duration": 0.1165,
      "velocity": 116,
      "chip": "ym2612"
    },
    {
      "channel": 0,
      "note": 56,
      "start": 56.7631,
      "duration": 0.1207,
      "velocity": 117,
      "chip": "ym2612"
    },
    {
      "channel": 1,
      "note": 63,
      "start": 56.7638,
      "duration": 0.1203,
      "velocity": 117,
      "chip": "ym2612"
    },
    {
      "channel": 2,
      "note": 38,
      "start": 56.7651,
      "duration": 0.0902,
      "velocity": 120,
      "chip": "ym2612"
    },
    {
      "channel": 5,
      "note": 67,
      "start": 56.8852,
      "duration": 0.2432,
      "velocity": 91,
      "chip": "ym2612"
    },
    {
      "channel": 2,
      "note": 73,
      "start": 56.886,
      "duration": 0.1039,
      "velocity": 116,
      "chip": "ym2612"
    },
    {
      "channel": 2,
      "note": 32,
      "start": 57.0072,
      "duration": 0.1169,
      "velocity": 116,
      "chip": "ym2612"
    },
    {
      "channel": 0,
      "note": 51,
      "start": 57.1278,
      "duration": 0.1207,
      "velocity": 117,
      "chip": "ym2612"
    },
    {
      "channel": 5,
      "note": 63,
      "start": 57.129,
      "duration": 0.1203,
      "velocity": 91,
      "chip": "ym2612"
    },
    {
      "channel": 2,
      "note": 87,
      "start": 57.1301,
      "duration": 0.1156,
      "velocity": 127,
      "chip": "ym2612"
    },
    {
      "channel": 0,
      "note": 53,
      "start": 57.249,
      "duration": 0.121,
      "velocity": 117,
      "chip": "ym2612"
    },
    {
      "channel": 5,
      "note": 65,
      "start": 57.25,
      "duration": 0.121,
      "velocity": 91,
      "chip": "ym2612"
    },
    {
      "channel": 2,
      "note": 87,
      "start": 57.251,
      "duration": 0.1162,
      "velocity": 127,
      "chip": "ym2612"
    },
    {
      "channel": 0,
      "note": 53,
      "start": 57.3706,
      "duration": 0.1209,
      "velocity": 117,
      "chip": "ym2612"
    },
    {
      "channel": 5,
      "note": 65,
      "start": 57.3716,
      "duration": 0.1209,
      "velocity": 91,
      "chip": "ym2612"
    },
    {
      "channel": 2,
      "note": 83,
      "start": 57.3727,
      "duration": 0.1161,
      "velocity": 127,
      "chip": "ym2612"
    },
    {
      "channel": 0,
      "note": 51,
      "start": 57.4922,
      "duration": 0.1212,
      "velocity": 117,
      "chip": "ym2612"
    },
    {
      "channel": 5,
      "note": 63,
      "start": 57.4931,
      "duration": 0.1212,
      "velocity": 91,
      "chip": "ym2612"
    },
    {
      "channel": 2,
      "note": 83,
      "start": 57.4944,
      "duration": 0.1162,
      "velocity": 127,
      "chip": "ym2612"
    },
    {
      "channel": 0,
      "note": 53,
      "start": 57.614,
      "duration": 0.1207,
      "velocity": 117,
      "chip": "ym2612"
    },
    {
      "channel": 5,
      "note": 65,
      "start": 57.6149,
      "duration": 0.1207,
      "velocity": 91,
      "chip": "ym2612"
    },
    {
      "channel": 2,
      "note": 75,
      "start": 57.6159,
      "duration": 0.1159,
      "velocity": 127,
      "chip": "ym2612"
    },
    {
      "channel": 0,
      "note": 53,
      "start": 57.7352,
      "duration": 0.121,
      "velocity": 117,
      "chip": "ym2612"
    },
    {
      "channel": 5,
      "note": 65,
      "start": 57.7362,
      "duration": 0.121,
      "velocity": 91,
      "chip": "ym2612"
    },
    {
      "channel": 2,
      "note": 75,
      "start": 57.7372,
      "duration": 0.1162,
      "velocity": 127,
      "chip": "ym2612"
    },
    {
      "channel": 0,
      "note": 51,
      "start": 57.8568,
      "duration": 0.1211,
      "velocity": 117,
      "chip": "ym2612"
    },
    {
      "channel": 5,
      "note": 63,
      "start": 57.8577,
      "duration": 0.1212,
      "velocity": 91,
      "chip": "ym2612"
    },
    {
      "channel": 2,
      "note": 75,
      "start": 57.8588,
      "duration": 0.1161,
      "velocity": 127,
      "chip": "ym2612"
    },
    {
      "channel": 0,
      "note": 53,
      "start": 57.9785,
      "duration": 0.1208,
      "velocity": 117,
      "chip": "ym2612"
    },
    {
      "channel": 5,
      "note": 65,
      "start": 57.9795,
      "duration": 0.1212,
      "velocity": 91,
      "chip": "ym2612"
    },
    {
      "channel": 2,
      "note": 75,
      "start": 57.9805,
      "duration": 0.116,
      "velocity": 127,
      "chip": "ym2612"
    },
    {
      "channel": 2,
      "note": 38,
      "start": 58.1016,
      "duration": 0.09,
      "velocity": 120,
      "chip": "ym2612"
    },
    {
      "channel": 2,
      "note": 73,
      "start": 58.2219,
      "duration": 0.1048,
      "velocity": 116,
      "chip": "ym2612"
    },
    {
      "channel": 2,
      "note": 38,
      "start": 58.3434,
      "duration": 0.0913,
      "velocity": 120,
      "chip": "ym2612"
    },
    {
      "channel": 2,
      "note": 32,
      "start": 58.5866,
      "duration": 0.1177,
      "velocity": 116,
      "chip": "ym2612"
    },
    {
      "channel": 2,
      "note": 38,
      "start": 58.708,
      "duration": 0.0912,
      "velocity": 120,
      "chip": "ym2612"
    },
    {
      "channel": 2,
      "note": 73,
      "start": 58.83,
      "duration": 0.1043,
      "velocity": 116,
      "chip": "ym2612"
    },
    {
      "channel": 2,
      "note": 32,
      "start": 58.9512,
      "duration": 0.1178,
      "velocity": 116,
      "chip": "ym2612"
    },
    {
      "channel": 2,
      "note": 73,
      "start": 59.0729,
      "duration": 0.1048,
      "velocity": 116,
      "chip": "ym2612"
    },
    {
      "channel": 2,
      "note": 32,
      "start": 59.1945,
      "duration": 0.1176,
      "velocity": 116,
      "chip": "ym2612"
    },
    {
      "channel": 2,
      "note": 73,
      "start": 59.316,
      "duration": 0.1045,
      "velocity": 116,
      "chip": "ym2612"
    },
    {
      "channel": 2,
      "note": 38,
      "start": 59.4374,
      "duration": 0.0913,
      "velocity": 120,
      "chip": "ym2612"
    },
    {
      "channel": 2,
      "note": 32,
      "start": 59.5589,
      "duration": 0.1177,
      "velocity": 116,
      "chip": "ym2612"
    },
    {
      "channel": 2,
      "note": 38,
      "start": 59.6806,
      "duration": 0.091,
      "velocity": 120,
      "chip": "ym2612"
    },
    {
      "channel": 2,
      "note": 32,
      "start": 59.8021,
      "duration": 0.1177,
      "velocity": 116,
      "chip": "ym2612"
    },
    {
      "channel": 2,
      "note": 32,
      "start": 59.9236,
      "duration": 0.1178,
      "velocity": 116,
      "chip": "ym2612"
    },
    {
      "channel": 2,
      "note": 38,
      "start": 60.0466,
      "duration": 0.0897,
      "velocity": 120,
      "chip": "ym2612"
    },
    {
      "channel": 2,
      "note": 73,
      "start": 60.1668,
      "duration": 0.1046,
      "velocity": 116,
      "chip": "ym2612"
    },
    {
      "channel": 2,
      "note": 38,
      "start": 60.2881,
      "duration": 0.0913,
      "velocity": 120,
      "chip": "ym2612"
    },
    {
      "channel": 2,
      "note": 32,
      "start": 60.5314,
      "duration": 0.1176,
      "velocity": 116,
      "chip": "ym2612"
    },
    {
      "channel": 2,
      "note": 38,
      "start": 60.6528,
      "duration": 0.0915,
      "velocity": 120,
      "chip": "ym2612"
    },
    {
      "channel": 2,
      "note": 73,
      "start": 60.7745,
      "duration": 0.1049,
      "velocity": 116,
      "chip": "ym2612"
    },
    {
      "channel": 2,
      "note": 32,
      "start": 60.8963,
      "duration": 0.1174,
      "velocity": 116,
      "chip": "ym2612"
    },
    {
      "channel": 2,
      "note": 73,
      "start": 61.0176,
      "duration": 0.1046,
      "velocity": 116,
      "chip": "ym2612"
    },
    {
      "channel": 2,
      "note": 32,
      "start": 61.139,
      "duration": 0.1178,
      "velocity": 116,
      "chip": "ym2612"
    },
    {
      "channel": 2,
      "note": 73,
      "start": 61.261,
      "duration": 0.1043,
      "velocity": 116,
      "chip": "ym2612"
    },
    {
      "channel": 2,
      "note": 38,
      "start": 61.3822,
      "duration": 0.0912,
      "velocity": 120,
      "chip": "ym2612"
    },
    {
      "channel": 2,
      "note": 32,
      "start": 61.5037,
      "duration": 0.1178,
      "velocity": 116,
      "chip": "ym2612"
    },
    {
      "channel": 2,
      "note": 38,
      "start": 61.6252,
      "duration": 0.0915,
      "velocity": 120,
      "chip": "ym2612"
    },
    {
      "channel": 2,
      "note": 32,
      "start": 61.7471,
      "duration": 0.1178,
      "velocity": 116,
      "chip": "ym2612"
    },
    {
      "channel": 2,
      "note": 32,
      "start": 61.8688,
      "duration": 0.1173,
      "velocity": 116,
      "chip": "ym2612"
    },
    {
      "channel": 2,
      "note": 38,
      "start": 61.9911,
      "duration": 0.0899,
      "velocity": 120,
      "chip": "ym2612"
    },
    {
      "channel": 2,
      "note": 73,
      "start": 62.1118,
      "duration": 0.1043,
      "velocity": 116,
      "chip": "ym2612"
    },
    {
      "channel": 2,
      "note": 38,
      "start": 62.2329,
      "duration": 0.0912,
      "velocity": 120,
      "chip": "ym2612"
    },
    {
      "channel": 2,
      "note": 32,
      "start": 62.4761,
      "duration": 0.1179,
      "velocity": 116,
      "chip": "ym2612"
    },
    {
      "channel": 2,
      "note": 38,
      "start": 62.5979,
      "duration": 0.091,
      "velocity": 120,
      "chip": "ym2612"
    },
    {
      "channel": 2,
      "note": 73,
      "start": 62.7193,
      "duration": 0.1046,
      "velocity": 116,
      "chip": "ym2612"
    },
    {
      "channel": 2,
      "note": 32,
      "start": 62.8408,
      "duration": 0.1176,
      "velocity": 116,
      "chip": "ym2612"
    },
    {
      "channel": 2,
      "note": 73,
      "start": 62.9626,
      "duration": 0.1043,
      "velocity": 116,
      "chip": "ym2612"
    },
    {
      "channel": 2,
      "note": 32,
      "start": 63.0839,
      "duration": 0.1176,
      "velocity": 116,
      "chip": "ym2612"
    },
    {
      "channel": 2,
      "note": 73,
      "start": 63.2054,
      "duration": 0.1046,
      "velocity": 116,
      "chip": "ym2612"
    },
    {
      "channel": 2,
      "note": 38,
      "start": 63.3268,
      "duration": 0.0913,
      "velocity": 120,
      "chip": "ym2612"
    },
    {
      "channel": 2,
      "note": 32,
      "start": 63.4485,
      "duration": 0.1176,
      "velocity": 116,
      "chip": "ym2612"
    },
    {
      "channel": 2,
      "note": 38,
      "start": 63.57,
      "duration": 0.0913,
      "velocity": 120,
      "chip": "ym2612"
    },
    {
      "channel": 2,
      "note": 32,
      "start": 63.692,
      "duration": 0.1174,
      "velocity": 116,
      "chip": "ym2612"
    },
    {
      "channel": 2,
      "note": 32,
      "start": 63.8134,
      "duration": 0.1176,
      "velocity": 116,
      "chip": "ym2612"
    },
    {
      "channel": 2,
      "note": 38,
      "start": 63.936,
      "duration": 0.09,
      "velocity": 120,
      "chip": "ym2612"
    },
    {
      "channel": 2,
      "note": 73,
      "start": 64.0563,
      "duration": 0.1049,
      "velocity": 116,
      "chip": "ym2612"
    },
    {
      "channel": 2,
      "note": 38,
      "start": 64.1779,
      "duration": 0.0911,
      "velocity": 120,
      "chip": "ym2612"
    },
    {
      "channel": 2,
      "note": 32,
      "start": 64.4208,
      "duration": 0.1177,
      "velocity": 116,
      "chip": "ym2612"
    },
    {
      "channel": 2,
      "note": 38,
      "start": 64.5423,
      "duration": 0.0913,
      "velocity": 120,
      "chip": "ym2612"
    },
    {
      "channel": 2,
      "note": 73,
      "start": 64.6644,
      "duration": 0.1043,
      "velocity": 116,
      "chip": "ym2612"
    },
    {
      "channel": 2,
      "note": 32,
      "start": 64.7855,
      "duration": 0.1177,
      "velocity": 116,
      "chip": "ym2612"
    },
    {
      "channel": 2,
      "note": 87,
      "start": 64.9073,
      "duration": 0.1175,
      "velocity": 127,
      "chip": "ym2612"
    },
    {
      "channel": 2,
      "note": 87,
      "start": 65.0291,
      "duration": 0.1172,
      "velocity": 127,
      "chip": "ym2612"
    },
    {
      "channel": 2,
      "note": 83,
      "start": 65.1503,
      "duration": 0.1174,
      "velocity": 127,
      "chip": "ym2612"
    },
    {
      "channel": 2,
      "note": 83,
      "start": 65.2719,
      "duration": 0.1175,
      "velocity": 127,
      "chip": "ym2612"
    },
    {
      "channel": 2,
      "note": 75,
      "start": 65.3934,
      "duration": 0.1179,
      "velocity": 127,
      "chip": "ym2612"
    },
    {
      "channel": 2,
      "note": 75,
      "start": 65.5154,
      "duration": 0.1171,
      "velocity": 127,
      "chip": "ym2612"
    },
    {
      "channel": 2,
      "note": 75,
      "start": 65.6365,
      "duration": 0.1176,
      "velocity": 127,
      "chip": "ym2612"
    },
    {
      "channel": 2,
      "note": 75,
      "start": 65.758,
      "duration": 0.1175,
      "velocity": 127,
      "chip": "ym2612"
    },
    {
      "channel": 0,
      "note": 58,
      "start": 65.8792,
      "duration": 0.1207,
      "velocity": 117,
      "chip": "ym2612"
    },
    {
      "channel": 1,
      "note": 63,
      "start": 65.8799,
      "duration": 0.1207,
      "velocity": 117,
      "chip": "ym2612"
    },
    {
      "channel": 3,
      "note": 68,
      "start": 65.8807,
      "duration": 0.1207,
      "velocity": 117,
      "chip": "ym2612"
    },
    {
      "channel": 4,
      "note": 75,
      "start": 65.8815,
      "duration": 0.1207,
      "velocity": 117,
      "chip": "ym2612"
    },
    {
      "channel": 5,
      "note": 51,
      "start": 65.8822,
      "duration": 0.1207,
      "velocity": 91,
      "chip": "ym2612"
    },
    {
      "channel": 2,
      "note": 38,
      "start": 65.8829,
      "duration": 0.089,
      "velocity": 120,
      "chip": "ym2612"
    },
    {
      "channel": 0,
      "note": 58,
      "start": 66.0005,
      "duration": 0.1183,
      "velocity": 117,
      "chip": "ym2612"
    },
    {
      "channel": 1,
      "note": 63,
      "start": 66.0012,
      "duration": 0.1179,
      "velocity": 117,
      "chip": "ym2612"
    },
    {
      "channel": 3,
      "note": 68,
      "start": 66.002,
      "duration": 0.1175,
      "velocity": 117,
      "chip": "ym2612"
    },
    {
      "channel": 4,
      "note": 75,
      "start": 66.0027,
      "duration": 0.1171,
      "velocity": 117,
      "chip": "ym2612"
    },
    {
      "channel": 5,
      "note": 51,
      "start": 66.0035,
      "duration": 0.1167,
      "velocity": 91,
      "chip": "ym2612"
    },
    {
      "channel": 2,
      "note": 38,
      "start": 66.0042,
      "duration": 0.0893,
      "velocity": 120,
      "chip": "ym2612"
    },
    {
      "channel": 0,
      "note": 58,
      "start": 66.6082,
      "duration": 0.1212,
      "velocity": 117,
      "chip": "ym2612"
    },
    {
      "channel": 1,
      "note": 63,
      "start": 66.609,
      "duration": 0.1212,
      "velocity": 117,
      "chip": "ym2612"
    },
    {
      "channel": 3,
      "note": 68,
      "start": 66.6098,
      "duration": 0.1212,
      "velocity": 117,
      "chip": "ym2612"
    },
    {
      "channel": 4,
      "note": 75,
      "start": 66.6107,
      "duration": 0.121,
      "velocity": 117,
      "chip": "ym2612"
    },
    {
      "channel": 5,
      "note": 51,
      "start": 66.6115,
      "duration": 0.121,
      "velocity": 91,
      "chip": "ym2612"
    },
    {
      "channel": 2,
      "note": 38,
      "start": 66.6122,
      "duration": 0.0891,
      "velocity": 120,
      "chip": "ym2612"
    },
    {
      "channel": 0,
      "note": 58,
      "start": 66.7301,
      "duration": 0.118,
      "velocity": 117,
      "chip": "ym2612"
    },
    {
      "channel": 1,
      "note": 63,
      "start": 66.7308,
      "duration": 0.1176,
      "velocity": 117,
      "chip": "ym2612"
    },
    {
      "channel": 3,
      "note": 68,
      "start": 66.7316,
      "duration": 0.1172,
      "velocity": 117,
      "chip": "ym2612"
    },
    {
      "channel": 4,
      "note": 75,
      "start": 66.7323,
      "duration": 0.1168,
      "velocity": 117,
      "chip": "ym2612"
    },
    {
      "channel": 5,
      "note": 51,
      "start": 66.733,
      "duration": 0.1164,
      "velocity": 91,
      "chip": "ym2612"
    },
    {
      "channel": 2,
      "note": 38,
      "start": 66.7337,
      "duration": 0.089,
      "velocity": 120,
      "chip": "ym2612"
    },
    {
      "channel": 0,
      "note": 58,
      "start": 67.3379,
      "duration": 0.118,
      "velocity": 117,
      "chip": "ym2612"
    },
    {
      "channel": 1,
      "note": 63,
      "start": 67.3387,
      "duration": 0.1175,
      "velocity": 117,
      "chip": "ym2612"
    },
    {
      "channel": 3,
      "note": 68,
      "start": 67.3395,
      "duration": 0.1171,
      "velocity": 117,
      "chip": "ym2612"
    },
    {
      "channel": 4,
      "note": 75,
      "start": 67.3402,
      "duration": 0.1166,
      "velocity": 117,
      "chip": "ym2612"
    },
    {
      "channel": 5,
      "note": 51,
      "start": 67.3409,
      "duration": 0.2424,
      "velocity": 91,
      "chip": "ym2612"
    },
    {
      "channel": 2,
      "note": 32,
      "start": 67.3418,
      "duration": 0.1958,
      "velocity": 116,
      "chip": "ym2612"
    },
    {
      "channel": 0,
      "note": 58,
      "start": 67.581,
      "duration": 0.1206,
      "velocity": 117,
      "chip": "ym2612"
    },
    {
      "channel": 1,
      "note": 63,
      "start": 67.5817,
      "duration": 0.1207,
      "velocity": 117,
      "chip": "ym2612"
    },
    {
      "channel": 3,
      "note": 68,
      "start": 67.5824,
      "duration": 0.1207,
      "velocity": 117,
      "chip": "ym2612"
    },
    {
      "channel": 4,
      "note": 75,
      "start": 67.5832,
      "duration": 0.1206,
      "velocity": 117,
      "chip": "ym2612"
    },
    {
      "channel": 5,
      "note": 51,
      "start": 67.5837,
      "duration": 0.1208,
      "velocity": 91,
      "chip": "ym2612"
    },
    {
      "channel": 2,
      "note": 32,
      "start": 67.5845,
      "duration": 0.1142,
      "velocity": 116,
      "chip": "ym2612"
    },
    {
      "channel": 0,
      "note": 58,
      "start": 67.7022,
      "duration": 0.1211,
      "velocity": 117,
      "chip": "ym2612"
    },
    {
      "channel": 1,
      "note": 63,
      "start": 67.7029,
      "duration": 0.1212,
      "velocity": 117,
      "chip": "ym2612"
    },
    {
      "channel": 3,
      "note": 68,
      "start": 67.7037,
      "duration": 0.1214,
      "velocity": 117,
      "chip": "ym2612"
    },
    {
      "channel": 4,
      "note": 75,
      "start": 67.7044,
      "duration": 0.1215,
      "velocity": 117,
      "chip": "ym2612"
    },
    {
      "channel": 5,
      "note": 51,
      "start": 67.705,
      "duration": 0.1218,
      "velocity": 91,
      "chip": "ym2612"
    },
    {
      "channel": 2,
      "note": 32,
      "start": 67.7058,
      "duration": 0.1146,
      "velocity": 116,
      "chip": "ym2612"
    },
    {
      "channel": 0,
      "note": 58,
      "start": 67.8239,
      "duration": 0.1211,
      "velocity": 117,
      "chip": "ym2612"
    },
    {
      "channel": 1,
      "note": 63,
      "start": 67.8248,
      "duration": 0.1209,
      "velocity": 117,
      "chip": "ym2612"
    },
    {
      "channel": 3,
      "note": 68,
      "start": 67.8256,
      "duration": 0.1209,
      "velocity": 117,
      "chip": "ym2612"
    },
    {
      "channel": 4,
      "note": 75,
      "start": 67.8265,
      "duration": 0.1207,
      "velocity": 117,
      "chip": "ym2612"
    },
    {
      "channel": 5,
      "note": 51,
      "start": 67.8275,
      "duration": 0.1204,
      "velocity": 91,
      "chip": "ym2612"
    },
    {
      "channel": 2,
      "note": 38,
      "start": 67.8283,
      "duration": 0.0885,
      "velocity": 120,
      "chip": "ym2612"
    },
    {
      "channel": 0,
      "note": 58,
      "start": 67.9456,
      "duration": 0.118,
      "velocity": 117,
      "chip": "ym2612"
    },
    {
      "channel": 1,
      "note": 63,
      "start": 67.9463,
      "duration": 0.1176,
      "velocity": 117,
      "chip": "ym2612"
    },
    {
      "channel": 3,
      "note": 68,
      "start": 67.9471,
      "duration": 0.1172,
      "velocity": 117,
      "chip": "ym2612"
    },
    {
      "channel": 4,
      "note": 75,
      "start": 67.9478,
      "duration": 0.1168,
      "velocity": 117,
      "chip": "ym2612"
    },
    {
      "channel": 5,
      "note": 51,
      "start": 67.9485,
      "duration": 0.1164,
      "velocity": 91,
      "chip": "ym2612"
    },
    {
      "channel": 2,
      "note": 38,
      "start": 67.9493,
      "duration": 0.089,
      "velocity": 120,
      "chip": "ym2612"
    },
    {
      "channel": 0,
      "note": 58,
      "start": 68.5531,
      "duration": 0.1209,
      "velocity": 117,
      "chip": "ym2612"
    },
    {
      "channel": 1,
      "note": 63,
      "start": 68.5539,
      "duration": 0.1209,
      "velocity": 117,
      "chip": "ym2612"
    },
    {
      "channel": 3,
      "note": 68,
      "start": 68.5546,
      "duration": 0.1209,
      "velocity": 117,
      "chip": "ym2612"
    },
    {
      "channel": 4,
      "note": 75,
      "start": 68.5554,
      "duration": 0.1209,
      "velocity": 117,
      "chip": "ym2612"
    },
    {
      "channel": 5,
      "note": 51,
      "start": 68.5561,
      "duration": 0.121,
      "velocity": 91,
      "chip": "ym2612"
    },
    {
      "channel": 2,
      "note": 38,
      "start": 68.5568,
      "duration": 0.0892,
      "velocity": 120,
      "chip": "ym2612"
    },
    {
      "channel": 0,
      "note": 58,
      "start": 68.6746,
      "duration": 0.1183,
      "velocity": 117,
      "chip": "ym2612"
    },
    {
      "channel": 1,
      "note": 63,
      "start": 68.6754,
      "duration": 0.1179,
      "velocity": 117,
      "chip": "ym2612"
    },
    {
      "channel": 3,
      "note": 68,
      "start": 68.6761,
      "duration": 0.1177,
      "velocity": 117,
      "chip": "ym2612"
    },
    {
      "channel": 4,
      "note": 75,
      "start": 68.6768,
      "duration": 0.1173,
      "velocity": 117,
      "chip": "ym2612"
    },
    {
      "channel": 5,
      "note": 51,
      "start": 68.6778,
      "duration": 0.1167,
      "velocity": 91,
      "chip": "ym2612"
    },
    {
      "channel": 2,
      "note": 38,
      "start": 68.6785,
      "duration": 0.0891,
      "velocity": 120,
      "chip": "ym2612"
    },
    {
      "channel": 0,
      "note": 58,
      "start": 69.2823,
      "duration": 0.121,
      "velocity": 117,
      "chip": "ym2612"
    },
    {
      "channel": 1,
      "note": 63,
      "start": 69.283,
      "duration": 0.1206,
      "velocity": 117,
      "chip": "ym2612"
    },
    {
      "channel": 3,
      "note": 68,
      "start": 69.2838,
      "duration": 0.1202,
      "velocity": 117,
      "chip": "ym2612"
    },
    {
      "channel": 4,
      "note": 75,
      "start": 69.2846,
      "duration": 0.1197,
      "velocity": 117,
      "chip": "ym2612"
    },
    {
      "channel": 5,
      "note": 51,
      "start": 69.2853,
      "duration": 0.2427,
      "velocity": 91,
      "chip": "ym2612"
    },
    {
      "channel": 2,
      "note": 32,
      "start": 69.2861,
      "duration": 0.1144,
      "velocity": 116,
      "chip": "ym2612"
    },
    {
      "channel": 2,
      "note": 32,
      "start": 69.4056,
      "duration": 0.1165,
      "velocity": 116,
      "chip": "ym2612"
    },
    {
      "channel": 0,
      "note": 58,
      "start": 69.5255,
      "duration": 0.1212,
      "velocity": 117,
      "chip": "ym2612"
    },
    {
      "channel": 1,
      "note": 63,
      "start": 69.5262,
      "duration": 0.1212,
      "velocity": 117,
      "chip": "ym2612"
    },
    {
      "channel": 3,
      "note": 68,
      "start": 69.5271,
      "duration": 0.121,
      "velocity": 117,
      "chip": "ym2612"
    },
    {
      "channel": 4,
      "note": 75,
      "start": 69.5279,
      "duration": 0.1209,
      "velocity": 117,
      "chip": "ym2612"
    },
    {
      "channel": 5,
      "note": 51,
      "start": 69.5285,
      "duration": 0.1211,
      "velocity": 91,
      "chip": "ym2612"
    },
    {
      "channel": 2,
      "note": 32,
      "start": 69.5293,
      "duration": 0.1145,
      "velocity": 116,
      "chip": "ym2612"
    },
    {
      "channel": 0,
      "note": 58,
      "start": 69.6472,
      "duration": 0.1211,
      "velocity": 117,
      "chip": "ym2612"
    },
    {
      "channel": 1,
      "note": 63,
      "start": 69.6479,
      "duration": 0.1209,
      "velocity": 117,
      "chip": "ym2612"
    },
    {
      "channel": 3,
      "note": 68,
      "start": 69.6487,
      "duration": 0.1207,
      "velocity": 117,
      "chip": "ym2612"
    },
    {
      "channel": 4,
      "note": 75,
      "start": 69.6494,
      "duration": 0.1204,
      "velocity": 117,
      "chip": "ym2612"
    },
    {
      "channel": 5,
      "note": 51,
      "start": 69.65,
      "duration": 0.1204,
      "velocity": 91,
      "chip": "ym2612"
    },
    {
      "channel": 2,
      "note": 32,
      "start": 69.6508,
      "duration": 0.1144,
      "velocity": 116,
      "chip": "ym2612"
    },
    {
      "channel": 5,
      "note": 63,
      "start": 69.771,
      "duration": 0.2419,
      "velocity": 91,
      "chip": "ym2612"
    },
    {
      "channel": 2,
      "note": 38,
      "start": 69.7717,
      "duration": 0.0889,
      "velocity": 120,
      "chip": "ym2612"
    },
    {
      "channel": 0,
      "note": 51,
      "start": 70.0119,
      "duration": 0.0017,
      "velocity": 117,
      "chip": "ym2612"
    },
    {
      "channel": 1,
      "note": 58,
      "start": 70.0126,
      "duration": 0.001,
      "velocity": 117,
      "chip": "ym2612"
    },
    {
      "channel": 5,
      "note": 63,
      "start": 70.0134,
      "duration": 0.0002,
      "velocity": 91,
      "chip": "ym2612"
    }
  ]
}