{
  "track_name": "01 - Desertion - Briefing - BGM 1",
  "duration_sec": 108.945,
  "sample_rate": 44100,
  "note_count": 1789,
  "unique_pitches": 41,
  "pitch_range": 60,
  "avg_note_duration": 0.1365,
  "reconstruction_stats": {
    "notes_reconstructed": 1789,
    "keyon_events": 1789,
    "keyoff_events": 1789,
    "orphan_keyons": 0,
    "unique_pitches": 41,
    "pitch_range": 60,
    "avg_duration_sec": 0.1365
  },
  "metadata": {
    "source": "M\\Master of Weapon\\01 - Desertion - Briefing - BGM 1.vgz"
  },
  "notes": [
    {
      "channel": 0,
      "note": 75,
      "start": 0.0546,
      "duration": 0.3231,
      "velocity": 107,
      "chip": "ym2612"
    },
    {
      "channel": 1,
      "note": 44,
      "start": 0.069,
      "duration": 1.5438,
      "velocity": 112,
      "chip": "ym2612"
    },
    {
      "channel": 2,
      "note": 64,
      "start": 0.0841,
      "duration": 0.1223,
      "velocity": 121,
      "chip": "ym2612"
    },
    {
      "channel": 3,
      "note": 75,
      "start": 0.1002,
      "duration": 0.2782,
      "velocity": 107,
      "chip": "ym2612"
    },
    {
      "channel": 2,
      "note": 71,
      "start": 0.2939,
      "duration": 0.1183,
      "velocity": 121,
      "chip": "ym2612"
    },
    {
      "channel": 2,
      "note": 71,
      "start": 0.4996,
      "duration": 0.1184,
      "velocity": 121,
      "chip": "ym2612"
    },
    {
      "channel": 0,
      "note": 75,
      "start": 0.7049,
      "duration": 0.2901,
      "velocity": 107,
      "chip": "ym2612"
    },
    {
      "channel": 2,
      "note": 64,
      "start": 0.7083,
      "duration": 0.047,
      "velocity": 121,
      "chip": "ym2612"
    },
    {
      "channel": 3,
      "note": 75,
      "start": 0.7111,
      "duration": 0.2847,
      "velocity": 107,
      "chip": "ym2612"
    },
    {
      "channel": 2,
      "note": 71,
      "start": 0.8084,
      "duration": 0.0497,
      "velocity": 121,
      "chip": "ym2612"
    },
    {
      "channel": 2,
      "note": 71,
      "start": 1.014,
      "duration": 0.0498,
      "velocity": 121,
      "chip": "ym2612"
    },
    {
      "channel": 2,
      "note": 64,
      "start": 1.2198,
      "duration": 0.0498,
      "velocity": 121,
      "chip": "ym2612"
    },
    {
      "channel": 0,
      "note": 75,
      "start": 1.3222,
      "duration": 0.2901,
      "velocity": 107,
      "chip": "ym2612"
    },
    {
      "channel": 2,
      "note": 71,
      "start": 1.3256,
      "duration": 0.1155,
      "velocity": 121,
      "chip": "ym2612"
    },
    {
      "channel": 3,
      "note": 75,
      "start": 1.3284,
      "duration": 0.285,
      "velocity": 107,
      "chip": "ym2612"
    },
    {
      "channel": 2,
      "note": 64,
      "start": 1.5285,
      "duration": 0.0498,
      "velocity": 121,
      "chip": "ym2612"
    },
    {
      "channel": 2,
      "note": 64,
      "start": 1.6314,
      "duration": 0.0497,
      "velocity": 121,
      "chip": "ym2612"
    },
    {
      "channel": 1,
      "note": 47,
      "start": 1.7337,
      "duration": 1.1475,
      "velocity": 112,
      "chip": "ym2612"
    },
    {
      "channel": 2,
      "note": 71,
      "start": 1.7369,
      "duration": 0.047,
      "velocity": 121,
      "chip": "ym2612"
    },
    {
      "channel": 2,
      "note": 64,
      "start": 1.8371,
      "duration": 0.1183,
      "velocity": 121,
      "chip": "ym2612"
    },
    {
      "channel": 0,
      "note": 75,
      "start": 1.9402,
      "duration": 0.2895,
      "velocity": 107,
      "chip": "ym2612"
    },
    {
      "channel": 3,
      "note": 75,
      "start": 1.9453,
      "duration": 0.2851,
      "velocity": 107,
      "chip": "ym2612"
    },
    {
      "channel": 2,
      "note": 64,
      "start": 2.0429,
      "duration": 0.0497,
      "velocity": 121,
      "chip": "ym2612"
    },
    {
      "channel": 2,
      "note": 71,
      "start": 2.1458,
      "duration": 0.1183,
      "velocity": 121,
      "chip": "ym2612"
    },
    {
      "channel": 2,
      "note": 64,
      "start": 2.3516,
      "duration": 0.1183,
      "velocity": 121,
      "chip": "ym2612"
    },
    {
      "channel": 0,
      "note": 75,
      "start": 2.5568,
      "duration": 0.2901,
      "velocity": 107,
      "chip": "ym2612"
    },
    {
      "channel": 2,
      "note": 71,
      "start": 2.5601,
      "duration": 0.1155,
      "velocity": 121,
      "chip": "ym2612"
    },
    {
      "channel": 3,
      "note": 75,
      "start": 2.5629,
      "duration": 0.2847,
      "velocity": 107,
      "chip": "ym2612"
    },
    {
      "channel": 2,
      "note": 64,
      "start": 2.7631,
      "duration": 0.0498,
      "velocity": 121,
      "chip": "ym2612"
    },
    {
      "channel": 2,
      "note": 64,
      "start": 2.866,
      "duration": 0.0497,
      "velocity": 121,
      "chip": "ym2612"
    },
    {
      "channel": 1,
      "note": 44,
      "start": 2.9683,
      "duration": 0.376,
      "velocity": 112,
      "chip": "ym2612"
    },
    {
      "channel": 2,
      "note": 71,
      "start": 3.0717,
      "duration": 0.0498,
      "velocity": 121,
      "chip": "ym2612"
    },
    {
      "channel": 0,
      "note": 75,
      "start": 3.1741,
      "duration": 0.2901,
      "velocity": 107,
      "chip": "ym2612"
    },
    {
      "channel": 2,
      "note": 64,
      "start": 3.1774,
      "duration": 0.0469,
      "velocity": 121,
      "chip": "ym2612"
    },
    {
      "channel": 3,
      "note": 75,
      "start": 3.1802,
      "duration": 0.2847,
      "velocity": 107,
      "chip": "ym2612"
    },
    {
      "channel": 1,
      "note": 51,
      "start": 3.3798,
      "duration": 1.1476,
      "velocity": 112,
      "chip": "ym2612"
    },
    {
      "channel": 2,
      "note": 64,
      "start": 3.3838,
      "duration": 0.1148,
      "velocity": 121,
      "chip": "ym2612"
    },
    {
      "channel": 2,
      "note": 71,
      "start": 3.5861,
      "duration": 0.1183,
      "velocity": 121,
      "chip": "ym2612"
    },
    {
      "channel": 0,
      "note": 75,
      "start": 3.792,
      "duration": 0.2894,
      "velocity": 107,
      "chip": "ym2612"
    },
    {
      "channel": 2,
      "note": 71,
      "start": 3.7954,
      "duration": 0.1148,
      "velocity": 121,
      "chip": "ym2612"
    },
    {
      "channel": 3,
      "note": 75,
      "start": 3.8004,
      "duration": 0.2817,
      "velocity": 107,
      "chip": "ym2612"
    },
    {
      "channel": 2,
      "note": 64,
      "start": 3.9976,
      "duration": 0.0498,
      "velocity": 121,
      "chip": "ym2612"
    },
    {
      "channel": 2,
      "note": 71,
      "start": 4.1005,
      "duration": 0.0497,
      "velocity": 121,
      "chip": "ym2612"
    },
    {
      "channel": 2,
      "note": 71,
      "start": 4.3062,
      "duration": 0.0498,
      "velocity": 121,
      "chip": "ym2612"
    },
    {
      "channel": 0,
      "note": 75,
      "start": 4.4086,
      "duration": 0.2901,
      "velocity": 107,
      "chip": "ym2612"
    },
    {
      "channel": 3,
      "note": 75,
      "start": 4.4121,
      "duration": 0.2874,
      "velocity": 107,
      "chip": "ym2612"
    },
    {
      "channel": 2,
      "note": 64,
      "start": 4.512,
      "duration": 0.0497,
      "velocity": 121,
      "chip": "ym2612"
    },
    {
      "channel": 1,
      "note": 54,
      "start": 4.6144,
      "duration": 0.1873,
      "velocity": 112,
      "chip": "ym2612"
    },
    {
      "channel": 2,
      "note": 71,
      "start": 4.6177,
      "duration": 0.1155,
      "velocity": 121,
      "chip": "ym2612"
    },
    {
      "channel": 1,
      "note": 53,
      "start": 4.8202,
      "duration": 0.1873,
      "velocity": 112,
      "chip": "ym2612"
    },
    {
      "channel": 2,
      "note": 64,
      "start": 4.8235,
      "duration": 0.047,
      "velocity": 121,
      "chip": "ym2612"
    },
    {
      "channel": 2,
      "note": 64,
      "start": 4.9237,
      "duration": 0.0497,
      "velocity": 121,
      "chip": "ym2612"
    },
    {
      "channel": 0,
      "note": 75,
      "start": 5.026,
      "duration": 0.2901,
      "velocity": 107,
      "chip": "ym2612"
    },
    {
      "channel": 2,
      "note": 71,
      "start": 5.0298,
      "duration": 0.0465,
      "velocity": 121,
      "chip": "ym2612"
    },
    {
      "channel": 3,
      "note": 75,
      "start": 5.0326,
      "duration": 0.2842,
      "velocity": 107,
      "chip": "ym2612"
    },
    {
      "channel": 2,
      "note": 64,
      "start": 5.1294,
      "duration": 0.1183,
      "velocity": 121,
      "chip": "ym2612"
    },
    {
      "channel": 2,
      "note": 64,
      "start": 5.3352,
      "duration": 0.0496,
      "velocity": 121,
      "chip": "ym2612"
    },
    {
      "channel": 1,
      "note": 53,
      "start": 5.4375,
      "duration": 0.1873,
      "velocity": 112,
      "chip": "ym2612"
    },
    {
      "channel": 2,
      "note": 71,
      "start": 5.4407,
      "duration": 0.1156,
      "velocity": 121,
      "chip": "ym2612"
    },
    {
      "channel": 0,
      "note": 75,
      "start": 5.644,
      "duration": 0.2894,
      "velocity": 107,
      "chip": "ym2612"
    },
    {
      "channel": 1,
      "note": 52,
      "start": 5.6467,
      "duration": 0.1839,
      "velocity": 112,
      "chip": "ym2612"
    },
    {
      "channel": 2,
      "note": 64,
      "start": 5.65,
      "duration": 0.1121,
      "velocity": 121,
      "chip": "ym2612"
    },
    {
      "channel": 3,
      "note": 75,
      "start": 5.6549,
      "duration": 0.2791,
      "velocity": 107,
      "chip": "ym2612"
    },
    {
      "channel": 2,
      "note": 71,
      "start": 5.8499,
      "duration": 0.1179,
      "velocity": 121,
      "chip": "ym2612"
    },
    {
      "channel": 2,
      "note": 64,
      "start": 6.0553,
      "duration": 0.0497,
      "velocity": 121,
      "chip": "ym2612"
    },
    {
      "channel": 2,
      "note": 64,
      "start": 6.1581,
      "duration": 0.0497,
      "velocity": 121,
      "chip": "ym2612"
    },
    {
      "channel": 0,
      "note": 75,
      "start": 6.2605,
      "duration": 0.2901,
      "velocity": 107,
      "chip": "ym2612"
    },
    {
      "channel": 1,
      "note": 52,
      "start": 6.2633,
      "duration": 0.1845,
      "velocity": 112,
      "chip": "ym2612"
    },
    {
      "channel": 3,
      "note": 75,
      "start": 6.2666,
      "duration": 0.2847,
      "velocity": 107,
      "chip": "ym2612"
    },
    {
      "channel": 2,
      "note": 71,
      "start": 6.3639,
      "duration": 0.0498,
      "velocity": 121,
      "chip": "ym2612"
    },
    {
      "channel": 1,
      "note": 51,
      "start": 6.4663,
      "duration": 0.962,
      "velocity": 112,
      "chip": "ym2612"
    },
    {
      "channel": 2,
      "note": 71,
      "start": 6.4695,
      "duration": 0.0298,
      "velocity": 121,
      "chip": "ym2612"
    },
    {
      "channel": 2,
      "note": 71,
      "start": 6.5354,
      "duration": 0.0325,
      "velocity": 121,
      "chip": "ym2612"
    },
    {
      "channel": 2,
      "note": 71,
      "start": 6.604,
      "duration": 0.0325,
      "velocity": 121,
      "chip": "ym2612"
    },
    {
      "channel": 2,
      "note": 71,
      "start": 6.6725,
      "duration": 0.0326,
      "velocity": 121,
      "chip": "ym2612"
    },
    {
      "channel": 2,
      "note": 71,
      "start": 6.7412,
      "duration": 0.0325,
      "velocity": 121,
      "chip": "ym2612"
    },
    {
      "channel": 2,
      "note": 71,
      "start": 6.8097,
      "duration": 0.0326,
      "velocity": 121,
      "chip": "ym2612"
    },
    {
      "channel": 0,
      "note": 75,
      "start": 6.8777,
      "duration": 0.2901,
      "velocity": 107,
      "chip": "ym2612"
    },
    {
      "channel": 2,
      "note": 64,
      "start": 6.8811,
      "duration": 0.0298,
      "velocity": 121,
      "chip": "ym2612"
    },
    {
      "channel": 3,
      "note": 75,
      "start": 6.884,
      "duration": 0.2846,
      "velocity": 107,
      "chip": "ym2612"
    },
    {
      "channel": 2,
      "note": 64,
      "start": 6.9469,
      "duration": 0.0326,
      "velocity": 121,
      "chip": "ym2612"
    },
    {
      "channel": 2,
      "note": 64,
      "start": 7.0154,
      "duration": 0.0326,
      "velocity": 121,
      "chip": "ym2612"
    },
    {
      "channel": 2,
      "note": 64,
      "start": 7.0841,
      "duration": 0.0325,
      "velocity": 121,
      "chip": "ym2612"
    },
    {
      "channel": 2,
      "note": 64,
      "start": 7.1526,
      "duration": 0.0326,
      "velocity": 121,
      "chip": "ym2612"
    },
    {
      "channel": 2,
      "note": 64,
      "start": 7.2212,
      "duration": 0.0326,
      "velocity": 121,
      "chip": "ym2612"
    },
    {
      "channel": 2,
      "note": 61,
      "start": 7.2898,
      "duration": 0.0326,
      "velocity": 121,
      "chip": "ym2612"
    },
    {
      "channel": 2,
      "note": 61,
      "start": 7.3584,
      "duration": 0.0326,
      "velocity": 121,
      "chip": "ym2612"
    },
    {
      "channel": 2,
      "note": 61,
      "start": 7.427,
      "duration": 0.0325,
      "velocity": 121,
      "chip": "ym2612"
    },
    {
      "channel": 0,
      "note": 75,
      "start": 7.4957,
      "duration": 0.2894,
      "velocity": 107,
      "chip": "ym2612"
    },
    {
      "channel": 1,
      "note": 44,
      "start": 7.4985,
      "duration": 1.5216,
      "velocity": 112,
      "chip": "ym2612"
    },
    {
      "channel": 2,
      "note": 64,
      "start": 7.5025,
      "duration": 0.1114,
      "velocity": 121,
      "chip": "ym2612"
    },
    {
      "channel": 3,
      "note": 75,
      "start": 7.5074,
      "duration": 0.2784,
      "velocity": 107,
      "chip": "ym2612"
    },
    {
      "channel": 2,
      "note": 71,
      "start": 7.7013,
      "duration": 0.1183,
      "velocity": 121,
      "chip": "ym2612"
    },
    {
      "channel": 2,
      "note": 71,
      "start": 7.907,
      "duration": 0.1183,
      "velocity": 121,
      "chip": "ym2612"
    },
    {
      "channel": 0,
      "note": 75,
      "start": 8.1122,
      "duration": 0.2901,
      "velocity": 107,
      "chip": "ym2612"
    },
    {
      "channel": 2,
      "note": 64,
      "start": 8.1155,
      "duration": 0.0469,
      "velocity": 121,
      "chip": "ym2612"
    },
    {
      "channel": 3,
      "note": 75,
      "start": 8.1184,
      "duration": 0.2847,
      "velocity": 107,
      "chip": "ym2612"
    },
    {
      "channel": 2,
      "note": 71,
      "start": 8.2156,
      "duration": 0.0497,
      "velocity": 121,
      "chip": "ym2612"
    },
    {
      "channel": 2,
      "note": 71,
      "start": 8.4213,
      "duration": 0.0498,
      "velocity": 121,
      "chip": "ym2612"
    },
    {
      "channel": 2,
      "note": 64,
      "start": 8.6271,
      "duration": 0.0497,
      "velocity": 121,
      "chip": "ym2612"
    },
    {
      "channel": 0,
      "note": 75,
      "start": 8.7294,
      "duration": 0.2902,
      "velocity": 107,
      "chip": "ym2612"
    },
    {
      "channel": 2,
      "note": 71,
      "start": 8.7327,
      "duration": 0.1155,
      "velocity": 121,
      "chip": "ym2612"
    },
    {
      "channel": 3,
      "note": 75,
      "start": 8.7356,
      "duration": 0.2851,
      "velocity": 107,
      "chip": "ym2612"
    },
    {
      "channel": 2,
      "note": 64,
      "start": 8.9357,
      "duration": 0.0498,
      "velocity": 121,
      "chip": "ym2612"
    },
    {
      "channel": 2,
      "note": 64,
      "start": 9.0386,
      "duration": 0.0497,
      "velocity": 121,
      "chip": "ym2612"
    },
    {
      "channel": 1,
      "note": 47,
      "start": 9.1409,
      "duration": 1.1476,
      "velocity": 112,
      "chip": "ym2612"
    },
    {
      "channel": 2,
      "note": 71,
      "start": 9.1441,
      "duration": 0.047,
      "velocity": 121,
      "chip": "ym2612"
    },
    {
      "channel": 2,
      "note": 64,
      "start": 9.2443,
      "duration": 0.1183,
      "velocity": 121,
      "chip": "ym2612"
    },
    {
      "channel": 0,
      "note": 75,
      "start": 9.3474,
      "duration": 0.2895,
      "velocity": 107,
      "chip": "ym2612"
    },
    {
      "channel": 3,
      "note": 75,
      "start": 9.3525,
      "duration": 0.2849,
      "velocity": 107,
      "chip": "ym2612"
    },
    {
      "channel": 2,
      "note": 64,
      "start": 9.4501,
      "duration": 0.0497,
      "velocity": 121,
      "chip": "ym2612"
    },
    {
      "channel": 2,
      "note": 71,
      "start": 9.553,
      "duration": 0.1183,
      "velocity": 121,
      "chip": "ym2612"
    },
    {
      "channel": 2,
      "note": 64,
      "start": 9.7587,
      "duration": 0.1183,
      "velocity": 121,
      "chip": "ym2612"
    },
    {
      "channel": 0,
      "note": 75,
      "start": 9.9639,
      "duration": 0.2902,
      "velocity": 107,
      "chip": "ym2612"
    },
    {
      "channel": 2,
      "note": 71,
      "start": 9.9673,
      "duration": 0.1154,
      "velocity": 121,
      "chip": "ym2612"
    },
    {
      "channel": 3,
      "note": 75,
      "start": 9.9701,
      "duration": 0.2847,
      "velocity": 107,
      "chip": "ym2612"
    },
    {
      "channel": 2,
      "note": 64,
      "start": 10.1703,
      "duration": 0.0498,
      "velocity": 121,
      "chip": "ym2612"
    },
    {
      "channel": 2,
      "note": 64,
      "start": 10.2732,
      "duration": 0.0497,
      "velocity": 121,
      "chip": "ym2612"
    },
    {
      "channel": 1,
      "note": 44,
      "start": 10.3754,
      "duration": 0.376,
      "velocity": 112,
      "chip": "ym2612"
    },
    {
      "channel": 2,
      "note": 71,
      "start": 10.4788,
      "duration": 0.0498,
      "velocity": 121,
      "chip": "ym2612"
    },
    {
      "channel": 0,
      "note": 75,
      "start": 10.5812,
      "duration": 0.2901,
      "velocity": 107,
      "chip": "ym2612"
    },
    {
      "channel": 2,
      "note": 64,
      "start": 10.5846,
      "duration": 0.0469,
      "velocity": 121,
      "chip": "ym2612"
    },
    {
      "channel": 3,
      "note": 75,
      "start": 10.5874,
      "duration": 0.2847,
      "velocity": 107,
      "chip": "ym2612"
    },
    {
      "channel": 1,
      "note": 51,
      "start": 10.787,
      "duration": 1.1475,
      "velocity": 112,
      "chip": "ym2612"
    },
    {
      "channel": 2,
      "note": 64,
      "start": 10.791,
      "duration": 0.1148,
      "velocity": 121,
      "chip": "ym2612"
    },
    {
      "channel": 2,
      "note": 71,
      "start": 10.9932,
      "duration": 0.1183,
      "velocity": 121,
      "chip": "ym2612"
    },
    {
      "channel": 0,
      "note": 75,
      "start": 11.2018,
      "duration": 0.2868,
      "velocity": 107,
      "chip": "ym2612"
    },
    {
      "channel": 2,
      "note": 71,
      "start": 11.2051,
      "duration": 0.1123,
      "velocity": 121,
      "chip": "ym2612"
    },
    {
      "channel": 3,
      "note": 75,
      "start": 11.2107,
      "duration": 0.2785,
      "velocity": 107,
      "chip": "ym2612"
    },
    {
      "channel": 2,
      "note": 64,
      "start": 11.4048,
      "duration": 0.0497,
      "velocity": 121,
      "chip": "ym2612"
    },
    {
      "channel": 2,
      "note": 71,
      "start": 11.5077,
      "duration": 0.0497,
      "velocity": 121,
      "chip": "ym2612"
    },
    {
      "channel": 2,
      "note": 71,
      "start": 11.7134,
      "duration": 0.0497,
      "velocity": 121,
      "chip": "ym2612"
    },
    {
      "channel": 0,
      "note": 75,
      "start": 11.8158,
      "duration": 0.2901,
      "velocity": 107,
      "chip": "ym2612"
    },
    {
      "channel": 3,
      "note": 75,
      "start": 11.8192,
      "duration": 0.2873,
      "velocity": 107,
      "chip": "ym2612"
    },
    {
      "channel": 2,
      "note": 64,
      "start": 11.9191,
      "duration": 0.0498,
      "velocity": 121,
      "chip": "ym2612"
    },
    {
      "channel": 1,
      "note": 54,
      "start": 12.0215,
      "duration": 0.1873,
      "velocity": 112,
      "chip": "ym2612"
    },
    {
      "channel": 2,
      "note": 71,
      "start": 12.0247,
      "duration": 0.1156,
      "velocity": 121,
      "chip": "ym2612"
    },
    {
      "channel": 1,
      "note": 53,
      "start": 12.2273,
      "duration": 0.1872,
      "velocity": 112,
      "chip": "ym2612"
    },
    {
      "channel": 2,
      "note": 64,
      "start": 12.2305,
      "duration": 0.047,
      "velocity": 121,
      "chip": "ym2612"
    },
    {
      "channel": 2,
      "note": 64,
      "start": 12.3307,
      "duration": 0.0497,
      "velocity": 121,
      "chip": "ym2612"
    },
    {
      "channel": 0,
      "note": 75,
      "start": 12.433,
      "duration": 0.2902,
      "velocity": 107,
      "chip": "ym2612"
    },
    {
      "channel": 2,
      "note": 71,
      "start": 12.4368,
      "duration": 0.0464,
      "velocity": 121,
      "chip": "ym2612"
    },
    {
      "channel": 3,
      "note": 75,
      "start": 12.4396,
      "duration": 0.2842,
      "velocity": 107,
      "chip": "ym2612"
    },
    {
      "channel": 2,
      "note": 64,
      "start": 12.5364,
      "duration": 0.1184,
      "velocity": 121,
      "chip": "ym2612"
    },
    {
      "channel": 2,
      "note": 64,
      "start": 12.7422,
      "duration": 0.0497,
      "velocity": 121,
      "chip": "ym2612"
    },
    {
      "channel": 1,
      "note": 53,
      "start": 12.8445,
      "duration": 0.1873,
      "velocity": 112,
      "chip": "ym2612"
    },
    {
      "channel": 2,
      "note": 71,
      "start": 12.8478,
      "duration": 0.1156,
      "velocity": 121,
      "chip": "ym2612"
    },
    {
      "channel": 0,
      "note": 75,
      "start": 13.0511,
      "duration": 0.2894,
      "velocity": 107,
      "chip": "ym2612"
    },
    {
      "channel": 1,
      "note": 52,
      "start": 13.0539,
      "duration": 0.1838,
      "velocity": 112,
      "chip": "ym2612"
    },
    {
      "channel": 2,
      "note": 64,
      "start": 13.0571,
      "duration": 0.1122,
      "velocity": 121,
      "chip": "ym2612"
    },
    {
      "channel": 3,
      "note": 75,
      "start": 13.062,
      "duration": 0.2792,
      "velocity": 107,
      "chip": "ym2612"
    },
    {
      "channel": 2,
      "note": 71,
      "start": 13.2571,
      "duration": 0.1178,
      "velocity": 121,
      "chip": "ym2612"
    },
    {
      "channel": 2,
      "note": 64,
      "start": 13.4624,
      "duration": 0.0497,
      "velocity": 121,
      "chip": "ym2612"
    },
    {
      "channel": 2,
      "note": 64,
      "start": 13.5653,
      "duration": 0.0497,
      "velocity": 121,
      "chip": "ym2612"
    },
    {
      "channel": 0,
      "note": 75,
      "start": 13.6676,
      "duration": 0.2901,
      "velocity": 107,
      "chip": "ym2612"
    },
    {
      "channel": 1,
      "note": 52,
      "start": 13.6704,
      "duration": 0.1845,
      "velocity": 112,
      "chip": "ym2612"
    },
    {
      "channel": 3,
      "note": 75,
      "start": 13.6737,
      "duration": 0.2847,
      "velocity": 107,
      "chip": "ym2612"
    },
    {
      "channel": 2,
      "note": 71,
      "start": 13.771,
      "duration": 0.0498,
      "velocity": 121,
      "chip": "ym2612"
    },
    {
      "channel": 1,
      "note": 51,
      "start": 13.8733,
      "duration": 0.962,
      "velocity": 112,
      "chip": "ym2612"
    },
    {
      "channel": 2,
      "note": 71,
      "start": 13.8766,
      "duration": 0.0299,
      "velocity": 121,
      "chip": "ym2612"
    },
    {
      "channel": 2,
      "note": 71,
      "start": 13.9425,
      "duration": 0.0325,
      "velocity": 121,
      "chip": "ym2612"
    },
    {
      "channel": 2,
      "note": 71,
      "start": 14.011,
      "duration": 0.0326,
      "velocity": 121,
      "chip": "ym2612"
    },
    {
      "channel": 2,
      "note": 71,
      "start": 14.0796,
      "duration": 0.0326,
      "velocity": 121,
      "chip": "ym2612"
    },
    {
      "channel": 2,
      "note": 71,
      "start": 14.1482,
      "duration": 0.0325,
      "velocity": 121,
      "chip": "ym2612"
    },
    {
      "channel": 2,
      "note": 71,
      "start": 14.2168,
      "duration": 0.0325,
      "velocity": 121,
      "chip": "ym2612"
    },
    {
      "channel": 0,
      "note": 75,
      "start": 14.2849,
      "duration": 0.2901,
      "velocity": 107,
      "chip": "ym2612"
    },
    {
      "channel": 2,
      "note": 64,
      "start": 14.2882,
      "duration": 0.0298,
      "velocity": 121,
      "chip": "ym2612"
    },
    {
      "channel": 3,
      "note": 75,
      "start": 14.291,
      "duration": 0.2847,
      "velocity": 107,
      "chip": "ym2612"
    },
    {
      "channel": 2,
      "note": 64,
      "start": 14.354,
      "duration": 0.0326,
      "velocity": 121,
      "chip": "ym2612"
    },
    {
      "channel": 2,
      "note": 64,
      "start": 14.4226,
      "duration": 0.0326,
      "velocity": 121,
      "chip": "ym2612"
    },
    {
      "channel": 2,
      "note": 64,
      "start": 14.4912,
      "duration": 0.0326,
      "velocity": 121,
      "chip": "ym2612"
    },
    {
      "channel": 2,
      "note": 64,
      "start": 14.5597,
      "duration": 0.0325,
      "velocity": 121,
      "chip": "ym2612"
    },
    {
      "channel": 2,
      "note": 64,
      "start": 14.6282,
      "duration": 0.0326,
      "velocity": 121,
      "chip": "ym2612"
    },
    {
      "channel": 2,
      "note": 61,
      "start": 14.6968,
      "duration": 0.0326,
      "velocity": 121,
      "chip": "ym2612"
    },
    {
      "channel": 2,
      "note": 61,
      "start": 14.7654,
      "duration": 0.0326,
      "velocity": 121,
      "chip": "ym2612"
    },
    {
      "channel": 2,
      "note": 61,
      "start": 14.8341,
      "duration": 0.0324,
      "velocity": 121,
      "chip": "ym2612"
    },
    {
      "channel": 0,
      "note": 75,
      "start": 14.9028,
      "duration": 0.2895,
      "velocity": 107,
      "chip": "ym2612"
    },
    {
      "channel": 1,
      "note": 47,
      "start": 14.9056,
      "duration": 1.5217,
      "velocity": 112,
      "chip": "ym2612"
    },
    {
      "channel": 2,
      "note": 64,
      "start": 14.9095,
      "duration": 0.1115,
      "velocity": 121,
      "chip": "ym2612"
    },
    {
      "channel": 3,
      "note": 75,
      "start": 14.9144,
      "duration": 0.2785,
      "velocity": 107,
      "chip": "ym2612"
    },
    {
      "channel": 2,
      "note": 71,
      "start": 15.1085,
      "duration": 0.1183,
      "velocity": 121,
      "chip": "ym2612"
    },
    {
      "channel": 2,
      "note": 71,
      "start": 15.3142,
      "duration": 0.1183,
      "velocity": 121,
      "chip": "ym2612"
    },
    {
      "channel": 0,
      "note": 75,
      "start": 15.5194,
      "duration": 0.2901,
      "velocity": 107,
      "chip": "ym2612"
    },
    {
      "channel": 2,
      "note": 64,
      "start": 15.5228,
      "duration": 0.0469,
      "velocity": 121,
      "chip": "ym2612"
    },
    {
      "channel": 3,
      "note": 75,
      "start": 15.5256,
      "duration": 0.2846,
      "velocity": 107,
      "chip": "ym2612"
    },
    {
      "channel": 2,
      "note": 71,
      "start": 15.6228,
      "duration": 0.0497,
      "velocity": 121,
      "chip": "ym2612"
    },
    {
      "channel": 2,
      "note": 71,
      "start": 15.8285,
      "duration": 0.0498,
      "velocity": 121,
      "chip": "ym2612"
    },
    {
      "channel": 2,
      "note": 64,
      "start": 16.0343,
      "duration": 0.0497,
      "velocity": 121,
      "chip": "ym2612"
    },
    {
      "channel": 0,
      "note": 75,
      "start": 16.1366,
      "duration": 0.2902,
      "velocity": 107,
      "chip": "ym2612"
    },
    {
      "channel": 2,
      "note": 71,
      "start": 16.14,
      "duration": 0.1155,
      "velocity": 121,
      "chip": "ym2612"
    },
    {
      "channel": 3,
      "note": 75,
      "start": 16.1428,
      "duration": 0.2851,
      "velocity": 107,
      "chip": "ym2612"
    },
    {
      "channel": 2,
      "note": 64,
      "start": 16.3429,
      "duration": 0.0498,
      "velocity": 121,
      "chip": "ym2612"
    },
    {
      "channel": 2,
      "note": 64,
      "start": 16.4458,
      "duration": 0.0497,
      "velocity": 121,
      "chip": "ym2612"
    },
    {
      "channel": 1,
      "note": 50,
      "start": 16.5481,
      "duration": 1.1476,
      "velocity": 112,
      "chip": "ym2612"
    },
    {
      "channel": 2,
      "note": 71,
      "start": 16.5514,
      "duration": 0.047,
      "velocity": 121,
      "chip": "ym2612"
    },
    {
      "channel": 2,
      "note": 64,
      "start": 16.6516,
      "duration": 0.1183,
      "velocity": 121,
      "chip": "ym2612"
    },
    {
      "channel": 0,
      "note": 75,
      "start": 16.7546,
      "duration": 0.2895,
      "velocity": 107,
      "chip": "ym2612"
    },
    {
      "channel": 3,
      "note": 75,
      "start": 16.7597,
      "duration": 0.285,
      "velocity": 107,
      "chip": "ym2612"
    },
    {
      "channel": 2,
      "note": 64,
      "start": 16.8574,
      "duration": 0.0498,
      "velocity": 121,
      "chip": "ym2612"
    },
    {
      "channel": 2,
      "note": 71,
      "start": 16.9602,
      "duration": 0.1183,
      "velocity": 121,
      "chip": "ym2612"
    },
    {
      "channel": 2,
      "note": 64,
      "start": 17.166,
      "duration": 0.1184,
      "velocity": 121,
      "chip": "ym2612"
    },
    {
      "channel": 0,
      "note": 75,
      "start": 17.3712,
      "duration": 0.2902,
      "velocity": 107,
      "chip": "ym2612"
    },
    {
      "channel": 2,
      "note": 71,
      "start": 17.3746,
      "duration": 0.1155,
      "velocity": 121,
      "chip": "ym2612"
    },
    {
      "channel": 3,
      "note": 75,
      "start": 17.3774,
      "duration": 0.2846,
      "velocity": 107,
      "chip": "ym2612"
    },
    {
      "channel": 2,
      "note": 64,
      "start": 17.5775,
      "duration": 0.0498,
      "velocity": 121,
      "chip": "ym2612"
    },
    {
      "channel": 2,
      "note": 64,
      "start": 17.6804,
      "duration": 0.0496,
      "velocity": 121,
      "chip": "ym2612"
    },
    {
      "channel": 1,
      "note": 47,
      "start": 17.7827,
      "duration": 0.376,
      "velocity": 112,
      "chip": "ym2612"
    },
    {
      "channel": 2,
      "note": 71,
      "start": 17.8861,
      "duration": 0.0498,
      "velocity": 121,
      "chip": "ym2612"
    },
    {
      "channel": 0,
      "note": 75,
      "start": 17.9885,
      "duration": 0.2901,
      "velocity": 107,
      "chip": "ym2612"
    },
    {
      "channel": 2,
      "note": 64,
      "start": 17.9918,
      "duration": 0.047,
      "velocity": 121,
      "chip": "ym2612"
    },
    {
      "channel": 3,
      "note": 75,
      "start": 17.9946,
      "duration": 0.2847,
      "velocity": 107,
      "chip": "ym2612"
    },
    {
      "channel": 1,
      "note": 53,
      "start": 18.1943,
      "duration": 1.5247,
      "velocity": 112,
      "chip": "ym2612"
    },
    {
      "channel": 2,
      "note": 64,
      "start": 18.1982,
      "duration": 0.1148,
      "velocity": 121,
      "chip": "ym2612"
    },
    {
      "channel": 2,
      "note": 71,
      "start": 18.4006,
      "duration": 0.1183,
      "velocity": 121,
      "chip": "ym2612"
    },
    {
      "channel": 0,
      "note": 75,
      "start": 18.6065,
      "duration": 0.2894,
      "velocity": 107,
      "chip": "ym2612"
    },
    {
      "channel": 2,
      "note": 71,
      "start": 18.6098,
      "duration": 0.1148,
      "velocity": 121,
      "chip": "ym2612"
    },
    {
      "channel": 3,
      "note": 75,
      "start": 18.6147,
      "duration": 0.2818,
      "velocity": 107,
      "chip": "ym2612"
    },
    {
      "channel": 2,
      "note": 64,
      "start": 18.8121,
      "duration": 0.0497,
      "velocity": 121,
      "chip": "ym2612"
    },
    {
      "channel": 2,
      "note": 71,
      "start": 18.9149,
      "duration": 0.0498,
      "velocity": 121,
      "chip": "ym2612"
    },
    {
      "channel": 2,
      "note": 71,
      "start": 19.1207,
      "duration": 0.0498,
      "velocity": 121,
      "chip": "ym2612"
    },
    {
      "channel": 0,
      "note": 75,
      "start": 19.2231,
      "duration": 0.2901,
      "velocity": 107,
      "chip": "ym2612"
    },
    {
      "channel": 3,
      "note": 75,
      "start": 19.2265,
      "duration": 0.2874,
      "velocity": 107,
      "chip": "ym2612"
    },
    {
      "channel": 2,
      "note": 64,
      "start": 19.3265,
      "duration": 0.0498,
      "velocity": 121,
      "chip": "ym2612"
    },
    {
      "channel": 2,
      "note": 71,
      "start": 19.4294,
      "duration": 0.1183,
      "velocity": 121,
      "chip": "ym2612"
    },
    {
      "channel": 2,
      "note": 64,
      "start": 19.6352,
      "duration": 0.0497,
      "velocity": 121,
      "chip": "ym2612"
    },
    {
      "channel": 2,
      "note": 64,
      "start": 19.738,
      "duration": 0.0497,
      "velocity": 121,
      "chip": "ym2612"
    },
    {
      "channel": 0,
      "note": 75,
      "start": 19.8404,
      "duration": 0.2901,
      "velocity": 107,
      "chip": "ym2612"
    },
    {
      "channel": 1,
      "note": 52,
      "start": 19.8431,
      "duration": 1.5224,
      "velocity": 112,
      "chip": "ym2612"
    },
    {
      "channel": 2,
      "note": 71,
      "start": 19.8464,
      "duration": 0.0443,
      "velocity": 121,
      "chip": "ym2612"
    },
    {
      "channel": 3,
      "note": 75,
      "start": 19.8492,
      "duration": 0.2819,
      "velocity": 107,
      "chip": "ym2612"
    },
    {
      "channel": 2,
      "note": 64,
      "start": 19.9438,
      "duration": 0.1183,
      "velocity": 121,
      "chip": "ym2612"
    },
    {
      "channel": 2,
      "note": 64,
      "start": 20.1495,
      "duration": 0.0497,
      "velocity": 121,
      "chip": "ym2612"
    },
    {
      "channel": 2,
      "note": 71,
      "start": 20.2524,
      "duration": 0.1183,
      "velocity": 121,
      "chip": "ym2612"
    },
    {
      "channel": 0,
      "note": 75,
      "start": 20.4583,
      "duration": 0.2894,
      "velocity": 107,
      "chip": "ym2612"
    },
    {
      "channel": 2,
      "note": 64,
      "start": 20.4616,
      "duration": 0.1148,
      "velocity": 121,
      "chip": "ym2612"
    },
    {
      "channel": 3,
      "note": 75,
      "start": 20.4666,
      "duration": 0.2818,
      "velocity": 107,
      "chip": "ym2612"
    },
    {
      "channel": 2,
      "note": 71,
      "start": 20.6639,
      "duration": 0.1183,
      "velocity": 121,
      "chip": "ym2612"
    },
    {
      "channel": 2,
      "note": 64,
      "start": 20.8696,
      "duration": 0.0497,
      "velocity": 121,
      "chip": "ym2612"
    },
    {
      "channel": 2,
      "note": 64,
      "start": 20.9725,
      "duration": 0.0497,
      "velocity": 121,
      "chip": "ym2612"
    },
    {
      "channel": 0,
      "note": 75,
      "start": 21.0749,
      "duration": 0.2902,
      "velocity": 107,
      "chip": "ym2612"
    },
    {
      "channel": 3,
      "note": 75,
      "start": 21.0783,
      "duration": 0.2878,
      "velocity": 107,
      "chip": "ym2612"
    },
    {
      "channel": 2,
      "note": 71,
      "start": 21.1782,
      "duration": 0.0498,
      "velocity": 121,
      "chip": "ym2612"
    },
    {
      "channel": 2,
      "note": 64,
      "start": 21.2812,
      "duration": 0.0498,
      "velocity": 121,
      "chip": "ym2612"
    },
    {
      "channel": 1,
      "note": 44,
      "start": 21.4978,
      "duration": 0.11,
      "velocity": 107,
      "chip": "ym2612"
    },
    {
      "channel": 2,
      "note": 64,
      "start": 21.5018,
      "duration": 0.1067,
      "velocity": 121,
      "chip": "ym2612"
    },
    {
      "channel": 0,
      "note": 75,
      "start": 21.6949,
      "duration": 0.2902,
      "velocity": 107,
      "chip": "ym2612"
    },
    {
      "channel": 1,
      "note": 51,
      "start": 21.6977,
      "duration": 0.116,
      "velocity": 107,
      "chip": "ym2612"
    },
    {
      "channel": 2,
      "note": 71,
      "start": 21.701,
      "duration": 0.1132,
      "velocity": 121,
      "chip": "ym2612"
    },
    {
      "channel": 3,
      "note": 75,
      "start": 21.7038,
      "duration": 0.282,
      "velocity": 107,
      "chip": "ym2612"
    },
    {
      "channel": 1,
      "note": 44,
      "start": 21.9007,
      "duration": 0.1187,
      "velocity": 107,
      "chip": "ym2612"
    },
    {
      "channel": 2,
      "note": 71,
      "start": 21.9039,
      "duration": 0.116,
      "velocity": 121,
      "chip": "ym2612"
    },
    {
      "channel": 1,
      "note": 46,
      "start": 22.1065,
      "duration": 0.1187,
      "velocity": 107,
      "chip": "ym2612"
    },
    {
      "channel": 2,
      "note": 64,
      "start": 22.1097,
      "duration": 0.0471,
      "velocity": 121,
      "chip": "ym2612"
    },
    {
      "channel": 2,
      "note": 71,
      "start": 22.2098,
      "duration": 0.0497,
      "velocity": 121,
      "chip": "ym2612"
    },
    {
      "channel": 0,
      "note": 75,
      "start": 22.3154,
      "duration": 0.2869,
      "velocity": 107,
      "chip": "ym2612"
    },
    {
      "channel": 1,
      "note": 47,
      "start": 22.3183,
      "duration": 0.1127,
      "velocity": 107,
      "chip": "ym2612"
    },
    {
      "channel": 3,
      "note": 75,
      "start": 22.3244,
      "duration": 0.2786,
      "velocity": 107,
      "chip": "ym2612"
    },
    {
      "channel": 2,
      "note": 71,
      "start": 22.4155,
      "duration": 0.0498,
      "velocity": 121,
      "chip": "ym2612"
    },
    {
      "channel": 1,
      "note": 46,
      "start": 22.518,
      "duration": 0.1186,
      "velocity": 107,
      "chip": "ym2612"
    },
    {
      "channel": 2,
      "note": 64,
      "start": 22.6213,
      "duration": 0.0497,
      "velocity": 121,
      "chip": "ym2612"
    },
    {
      "channel": 1,
      "note": 44,
      "start": 22.7237,
      "duration": 0.1187,
      "velocity": 107,
      "chip": "ym2612"
    },
    {
      "channel": 2,
      "note": 71,
      "start": 22.7269,
      "duration": 0.116,
      "velocity": 121,
      "chip": "ym2612"
    },
    {
      "channel": 0,
      "note": 75,
      "start": 22.9294,
      "duration": 0.2901,
      "velocity": 107,
      "chip": "ym2612"
    },
    {
      "channel": 1,
      "note": 46,
      "start": 22.9322,
      "duration": 0.116,
      "velocity": 107,
      "chip": "ym2612"
    },
    {
      "channel": 2,
      "note": 64,
      "start": 22.9354,
      "duration": 0.0442,
      "velocity": 121,
      "chip": "ym2612"
    },
    {
      "channel": 3,
      "note": 75,
      "start": 22.9382,
      "duration": 0.282,
      "velocity": 107,
      "chip": "ym2612"
    },
    {
      "channel": 2,
      "note": 64,
      "start": 23.0327,
      "duration": 0.0498,
      "velocity": 121,
      "chip": "ym2612"
    },
    {
      "channel": 1,
      "note": 44,
      "start": 23.1352,
      "duration": 0.1187,
      "velocity": 107,
      "chip": "ym2612"
    },
    {
      "channel": 2,
      "note": 71,
      "start": 23.1384,
      "duration": 0.047,
      "velocity": 121,
      "chip": "ym2612"
    },
    {
      "channel": 2,
      "note": 64,
      "start": 23.2385,
      "duration": 0.1183,
      "velocity": 121,
      "chip": "ym2612"
    },
    {
      "channel": 1,
      "note": 51,
      "start": 23.3409,
      "duration": 0.1187,
      "velocity": 107,
      "chip": "ym2612"
    },
    {
      "channel": 2,
      "note": 64,
      "start": 23.4443,
      "duration": 0.0496,
      "velocity": 121,
      "chip": "ym2612"
    },
    {
      "channel": 0,
      "note": 75,
      "start": 23.5467,
      "duration": 0.2901,
      "velocity": 107,
      "chip": "ym2612"
    },
    {
      "channel": 1,
      "note": 49,
      "start": 23.5494,
      "duration": 0.116,
      "velocity": 107,
      "chip": "ym2612"
    },
    {
      "channel": 2,
      "note": 71,
      "start": 23.5527,
      "duration": 0.1132,
      "velocity": 121,
      "chip": "ym2612"
    },
    {
      "channel": 3,
      "note": 75,
      "start": 23.5555,
      "duration": 0.282,
      "velocity": 107,
      "chip": "ym2612"
    },
    {
      "channel": 1,
      "note": 47,
      "start": 23.7525,
      "duration": 0.1187,
      "velocity": 107,
      "chip": "ym2612"
    },
    {
      "channel": 2,
      "note": 64,
      "start": 23.7556,
      "duration": 0.116,
      "velocity": 121,
      "chip": "ym2612"
    },
    {
      "channel": 1,
      "note": 46,
      "start": 23.9581,
      "duration": 0.1188,
      "velocity": 107,
      "chip": "ym2612"
    },
    {
      "channel": 2,
      "note": 71,
      "start": 23.9614,
      "duration": 0.116,
      "velocity": 121,
      "chip": "ym2612"
    },
    {
      "channel": 0,
      "note": 75,
      "start": 24.1646,
      "duration": 0.2895,
      "velocity": 107,
      "chip": "ym2612"
    },
    {
      "channel": 1,
      "note": 47,
      "start": 24.1675,
      "duration": 0.1152,
      "velocity": 107,
      "chip": "ym2612"
    },
    {
      "channel": 2,
      "note": 64,
      "start": 24.1707,
      "duration": 0.0435,
      "velocity": 121,
      "chip": "ym2612"
    },
    {
      "channel": 3,
      "note": 75,
      "start": 24.1756,
      "duration": 0.2792,
      "velocity": 107,
      "chip": "ym2612"
    },
    {
      "channel": 2,
      "note": 64,
      "start": 24.2674,
      "duration": 0.0497,
      "velocity": 121,
      "chip": "ym2612"
    },
    {
      "channel": 1,
      "note": 44,
      "start": 24.3698,
      "duration": 0.1186,
      "velocity": 107,
      "chip": "ym2612"
    },
    {
      "channel": 2,
      "note": 71,
      "start": 24.4731,
      "duration": 0.0498,
      "velocity": 121,
      "chip": "ym2612"
    },
    {
      "channel": 1,
      "note": 47,
      "start": 24.5754,
      "duration": 0.1188,
      "velocity": 107,
      "chip": "ym2612"
    },
    {
      "channel": 2,
      "note": 64,
      "start": 24.5787,
      "duration": 0.047,
      "velocity": 121,
      "chip": "ym2612"
    },
    {
      "channel": 0,
      "note": 75,
      "start": 24.7812,
      "duration": 0.2901,
      "velocity": 107,
      "chip": "ym2612"
    },
    {
      "channel": 1,
      "note": 46,
      "start": 24.7841,
      "duration": 0.1159,
      "velocity": 107,
      "chip": "ym2612"
    },
    {
      "channel": 2,
      "note": 64,
      "start": 24.7877,
      "duration": 0.1129,
      "velocity": 121,
      "chip": "ym2612"
    },
    {
      "channel": 3,
      "note": 75,
      "start": 24.7905,
      "duration": 0.2815,
      "velocity": 107,
      "chip": "ym2612"
    },
    {
      "channel": 1,
      "note": 44,
      "start": 24.987,
      "duration": 0.1187,
      "velocity": 107,
      "chip": "ym2612"
    },
    {
      "channel": 2,
      "note": 71,
      "start": 24.9902,
      "duration": 0.116,
      "velocity": 121,
      "chip": "ym2612"
    },
    {
      "channel": 1,
      "note": 43,
      "start": 25.1927,
      "duration": 0.1187,
      "velocity": 107,
      "chip": "ym2612"
    },
    {
      "channel": 2,
      "note": 71,
      "start": 25.196,
      "duration": 0.116,
      "velocity": 121,
      "chip": "ym2612"
    },
    {
      "channel": 0,
      "note": 75,
      "start": 25.3985,
      "duration": 0.2901,
      "velocity": 107,
      "chip": "ym2612"
    },
    {
      "channel": 1,
      "note": 44,
      "start": 25.4013,
      "duration": 0.116,
      "velocity": 107,
      "chip": "ym2612"
    },
    {
      "channel": 2,
      "note": 64,
      "start": 25.4045,
      "duration": 0.0442,
      "velocity": 121,
      "chip": "ym2612"
    },
    {
      "channel": 3,
      "note": 75,
      "start": 25.4073,
      "duration": 0.282,
      "velocity": 107,
      "chip": "ym2612"
    },
    {
      "channel": 2,
      "note": 71,
      "start": 25.502,
      "duration": 0.0497,
      "velocity": 121,
      "chip": "ym2612"
    },
    {
      "channel": 1,
      "note": 46,
      "start": 25.6042,
      "duration": 0.1187,
      "velocity": 107,
      "chip": "ym2612"
    },
    {
      "channel": 2,
      "note": 71,
      "start": 25.7076,
      "duration": 0.0497,
      "velocity": 121,
      "chip": "ym2612"
    },
    {
      "channel": 1,
      "note": 39,
      "start": 25.8099,
      "duration": 0.1188,
      "velocity": 107,
      "chip": "ym2612"
    },
    {
      "channel": 2,
      "note": 64,
      "start": 25.9134,
      "duration": 0.0497,
      "velocity": 121,
      "chip": "ym2612"
    },
    {
      "channel": 0,
      "note": 75,
      "start": 26.0164,
      "duration": 0.2895,
      "velocity": 107,
      "chip": "ym2612"
    },
    {
      "channel": 1,
      "note": 43,
      "start": 26.0192,
      "duration": 0.1153,
      "velocity": 107,
      "chip": "ym2612"
    },
    {
      "channel": 2,
      "note": 71,
      "start": 26.0224,
      "duration": 0.1125,
      "velocity": 121,
      "chip": "ym2612"
    },
    {
      "channel": 3,
      "note": 75,
      "start": 26.0273,
      "duration": 0.2791,
      "velocity": 107,
      "chip": "ym2612"
    },
    {
      "channel": 1,
      "note": 51,
      "start": 26.2214,
      "duration": 0.1187,
      "velocity": 107,
      "chip": "ym2612"
    },
    {
      "channel": 2,
      "note": 64,
      "start": 26.2247,
      "duration": 0.0471,
      "velocity": 121,
      "chip": "ym2612"
    },
    {
      "channel": 2,
      "note": 64,
      "start": 26.3249,
      "duration": 0.0496,
      "velocity": 121,
      "chip": "ym2612"
    },
    {
      "channel": 1,
      "note": 49,
      "start": 26.4271,
      "duration": 0.1188,
      "velocity": 107,
      "chip": "ym2612"
    },
    {
      "channel": 2,
      "note": 68,
      "start": 26.4304,
      "duration": 0.116,
      "velocity": 121,
      "chip": "ym2612"
    },
    {
      "channel": 0,
      "note": 75,
      "start": 26.6329,
      "duration": 0.2902,
      "velocity": 107,
      "chip": "ym2612"
    },
    {
      "channel": 1,
      "note": 47,
      "start": 26.6358,
      "duration": 0.116,
      "velocity": 107,
      "chip": "ym2612"
    },
    {
      "channel": 2,
      "note": 64,
      "start": 26.639,
      "duration": 0.1134,
      "velocity": 121,
      "chip": "ym2612"
    },
    {
      "channel": 3,
      "note": 75,
      "start": 26.6418,
      "duration": 0.2821,
      "velocity": 107,
      "chip": "ym2612"
    },
    {
      "channel": 1,
      "note": 46,
      "start": 26.8388,
      "duration": 0.1187,
      "velocity": 107,
      "chip": "ym2612"
    },
    {
      "channel": 2,
      "note": 68,
      "start": 26.842,
      "duration": 0.116,
      "velocity": 121,
      "chip": "ym2612"
    },
    {
      "channel": 1,
      "note": 47,
      "start": 27.0445,
      "duration": 0.1188,
      "velocity": 107,
      "chip": "ym2612"
    },
    {
      "channel": 2,
      "note": 64,
      "start": 27.0478,
      "duration": 0.116,
      "velocity": 121,
      "chip": "ym2612"
    },
    {
      "channel": 0,
      "note": 75,
      "start": 27.2504,
      "duration": 0.2901,
      "velocity": 107,
      "chip": "ym2612"
    },
    {
      "channel": 1,
      "note": 46,
      "start": 27.2531,
      "duration": 0.116,
      "velocity": 107,
      "chip": "ym2612"
    },
    {
      "channel": 2,
      "note": 68,
      "start": 27.2563,
      "duration": 0.1132,
      "velocity": 121,
      "chip": "ym2612"
    },
    {
      "channel": 3,
      "note": 75,
      "start": 27.2591,
      "duration": 0.282,
      "velocity": 107,
      "chip": "ym2612"
    },
    {
      "channel": 1,
      "note": 47,
      "start": 27.4561,
      "duration": 0.1186,
      "velocity": 107,
      "chip": "ym2612"
    },
    {
      "channel": 2,
      "note": 64,
      "start": 27.4593,
      "duration": 0.0471,
      "velocity": 121,
      "chip": "ym2612"
    },
    {
      "channel": 2,
      "note": 68,
      "start": 27.5595,
      "duration": 0.0496,
      "velocity": 121,
      "chip": "ym2612"
    },
    {
      "channel": 1,
      "note": 44,
      "start": 27.6617,
      "duration": 0.1188,
      "velocity": 107,
      "chip": "ym2612"
    },
    {
      "channel": 2,
      "note": 68,
      "start": 27.7652,
      "duration": 0.0497,
      "velocity": 121,
      "chip": "ym2612"
    },
    {
      "channel": 0,
      "note": 75,
      "start": 27.8683,
      "duration": 0.3041,
      "velocity": 107,
      "chip": "ym2612"
    },
    {
      "channel": 1,
      "note": 46,
      "start": 27.871,
      "duration": 0.1153,
      "velocity": 107,
      "chip": "ym2612"
    },
    {
      "channel": 2,
      "note": 64,
      "start": 27.8743,
      "duration": 0.1126,
      "velocity": 121,
      "chip": "ym2612"
    },
    {
      "channel": 3,
      "note": 75,
      "start": 27.8792,
      "duration": 0.2939,
      "velocity": 107,
      "chip": "ym2612"
    },
    {
      "channel": 1,
      "note": 39,
      "start": 28.0848,
      "duration": 0.7599,
      "velocity": 107,
      "chip": "ym2612"
    },
    {
      "channel": 2,
      "note": 75,
      "start": 28.0994,
      "duration": 0.1588,
      "velocity": 127,
      "chip": "ym2612"
    },
    {
      "channel": 2,
      "note": 64,
      "start": 28.3042,
      "duration": 0.073,
      "velocity": 121,
      "chip": "ym2612"
    },
    {
      "channel": 2,
      "note": 64,
      "start": 28.3961,
      "duration": 0.084,
      "velocity": 121,
      "chip": "ym2612"
    },
    {
      "channel": 0,
      "note": 75,
      "start": 28.4984,
      "duration": 0.2948,
      "velocity": 107,
      "chip": "ym2612"
    },
    {
      "channel": 2,
      "note": 75,
      "start": 28.5128,
      "duration": 0.1616,
      "velocity": 127,
      "chip": "ym2612"
    },
    {
      "channel": 3,
      "note": 75,
      "start": 28.5156,
      "duration": 0.2786,
      "velocity": 107,
      "chip": "ym2612"
    },
    {
      "channel": 2,
      "note": 64,
      "start": 28.7204,
      "duration": 0.0734,
      "velocity": 121,
      "chip": "ym2612"
    },
    {
      "channel": 2,
      "note": 64,
      "start": 28.8122,
      "duration": 0.084,
      "velocity": 121,
      "chip": "ym2612"
    },
    {
      "channel": 2,
      "note": 68,
      "start": 28.9165,
      "duration": 0.1683,
      "velocity": 121,
      "chip": "ym2612"
    },
    {
      "channel": 0,
      "note": 75,
      "start": 29.1203,
      "duration": 0.2972,
      "velocity": 107,
      "chip": "ym2612"
    },
    {
      "channel": 2,
      "note": 75,
      "start": 29.1362,
      "duration": 0.1615,
      "velocity": 127,
      "chip": "ym2612"
    },
    {
      "channel": 3,
      "note": 75,
      "start": 29.139,
      "duration": 0.2793,
      "velocity": 107,
      "chip": "ym2612"
    },
    {
      "channel": 2,
      "note": 75,
      "start": 29.3341,
      "duration": 0.1707,
      "velocity": 127,
      "chip": "ym2612"
    },
    {
      "channel": 2,
      "note": 64,
      "start": 29.5509,
      "duration": 0.0718,
      "velocity": 121,
      "chip": "ym2612"
    },
    {
      "channel": 2,
      "note": 64,
      "start": 29.6431,
      "duration": 0.0826,
      "velocity": 121,
      "chip": "ym2612"
    },
    {
      "channel": 0,
      "note": 75,
      "start": 29.7447,
      "duration": 0.3001,
      "velocity": 107,
      "chip": "ym2612"
    },
    {
      "channel": 1,
      "note": 44,
      "start": 29.7589,
      "duration": 0.1146,
      "velocity": 107,
      "chip": "ym2612"
    },
    {
      "channel": 2,
      "note": 64,
      "start": 29.7624,
      "duration": 0.1625,
      "velocity": 121,
      "chip": "ym2612"
    },
    {
      "channel": 3,
      "note": 75,
      "start": 29.7673,
      "duration": 0.2781,
      "velocity": 107,
      "chip": "ym2612"
    },
    {
      "channel": 1,
      "note": 51,
      "start": 29.9604,
      "duration": 0.1187,
      "velocity": 107,
      "chip": "ym2612"
    },
    {
      "channel": 2,
      "note": 71,
      "start": 29.9637,
      "duration": 0.167,
      "velocity": 121,
      "chip": "ym2612"
    },
    {
      "channel": 1,
      "note": 44,
      "start": 30.1661,
      "duration": 0.1188,
      "velocity": 107,
      "chip": "ym2612"
    },
    {
      "channel": 2,
      "note": 71,
      "start": 30.1694,
      "duration": 0.1671,
      "velocity": 121,
      "chip": "ym2612"
    },
    {
      "channel": 0,
      "note": 75,
      "start": 30.3719,
      "duration": 0.2902,
      "velocity": 107,
      "chip": "ym2612"
    },
    {
      "channel": 1,
      "note": 46,
      "start": 30.3747,
      "duration": 0.116,
      "velocity": 107,
      "chip": "ym2612"
    },
    {
      "channel": 2,
      "note": 64,
      "start": 30.3779,
      "duration": 0.0786,
      "velocity": 121,
      "chip": "ym2612"
    },
    {
      "channel": 3,
      "note": 75,
      "start": 30.3807,
      "duration": 0.2821,
      "velocity": 107,
      "chip": "ym2612"
    },
    {
      "channel": 2,
      "note": 71,
      "start": 30.4754,
      "duration": 0.084,
      "velocity": 121,
      "chip": "ym2612"
    },
    {
      "channel": 1,
      "note": 47,
      "start": 30.5777,
      "duration": 0.1187,
      "velocity": 107,
      "chip": "ym2612"
    },
    {
      "channel": 2,
      "note": 71,
      "start": 30.681,
      "duration": 0.084,
      "velocity": 121,
      "chip": "ym2612"
    },
    {
      "channel": 1,
      "note": 46,
      "start": 30.7834,
      "duration": 0.1188,
      "velocity": 107,
      "chip": "ym2612"
    },
    {
      "channel": 2,
      "note": 64,
      "start": 30.8869,
      "duration": 0.084,
      "velocity": 121,
      "chip": "ym2612"
    },
    {
      "channel": 0,
      "note": 75,
      "start": 30.9892,
      "duration": 0.2902,
      "velocity": 107,
      "chip": "ym2612"
    },
    {
      "channel": 1,
      "note": 44,
      "start": 30.992,
      "duration": 0.116,
      "velocity": 107,
      "chip": "ym2612"
    },
    {
      "channel": 2,
      "note": 71,
      "start": 30.9953,
      "duration": 0.1642,
      "velocity": 121,
      "chip": "ym2612"
    },
    {
      "channel": 3,
      "note": 75,
      "start": 30.9981,
      "duration": 0.2824,
      "velocity": 107,
      "chip": "ym2612"
    },
    {
      "channel": 1,
      "note": 46,
      "start": 31.195,
      "duration": 0.1187,
      "velocity": 107,
      "chip": "ym2612"
    },
    {
      "channel": 2,
      "note": 64,
      "start": 31.1983,
      "duration": 0.0817,
      "velocity": 121,
      "chip": "ym2612"
    },
    {
      "channel": 2,
      "note": 64,
      "start": 31.2984,
      "duration": 0.084,
      "velocity": 121,
      "chip": "ym2612"
    },
    {
      "channel": 1,
      "note": 44,
      "start": 31.4008,
      "duration": 0.1187,
      "velocity": 107,
      "chip": "ym2612"
    },
    {
      "channel": 2,
      "note": 71,
      "start": 31.404,
      "duration": 0.0814,
      "velocity": 121,
      "chip": "ym2612"
    },
    {
      "channel": 2,
      "note": 64,
      "start": 31.5042,
      "duration": 0.1698,
      "velocity": 121,
      "chip": "ym2612"
    },
    {
      "channel": 0,
      "note": 75,
      "start": 31.6072,
      "duration": 0.2895,
      "velocity": 107,
      "chip": "ym2612"
    },
    {
      "channel": 1,
      "note": 51,
      "start": 31.61,
      "duration": 0.1153,
      "velocity": 107,
      "chip": "ym2612"
    },
    {
      "channel": 3,
      "note": 75,
      "start": 31.6151,
      "duration": 0.2823,
      "velocity": 107,
      "chip": "ym2612"
    },
    {
      "channel": 2,
      "note": 64,
      "start": 31.71,
      "duration": 0.084,
      "velocity": 121,
      "chip": "ym2612"
    },
    {
      "channel": 1,
      "note": 49,
      "start": 31.8123,
      "duration": 0.1187,
      "velocity": 107,
      "chip": "ym2612"
    },
    {
      "channel": 2,
      "note": 71,
      "start": 31.8156,
      "duration": 0.1669,
      "velocity": 121,
      "chip": "ym2612"
    },
    {
      "channel": 1,
      "note": 47,
      "start": 32.0181,
      "duration": 0.1187,
      "velocity": 107,
      "chip": "ym2612"
    },
    {
      "channel": 2,
      "note": 64,
      "start": 32.0213,
      "duration": 0.1671,
      "velocity": 121,
      "chip": "ym2612"
    },
    {
      "channel": 0,
      "note": 75,
      "start": 32.2239,
      "duration": 0.2901,
      "velocity": 107,
      "chip": "ym2612"
    },
    {
      "channel": 1,
      "note": 46,
      "start": 32.2266,
      "duration": 0.116,
      "velocity": 107,
      "chip": "ym2612"
    },
    {
      "channel": 2,
      "note": 71,
      "start": 32.2298,
      "duration": 0.1643,
      "velocity": 121,
      "chip": "ym2612"
    },
    {
      "channel": 3,
      "note": 75,
      "start": 32.2326,
      "duration": 0.2824,
      "velocity": 107,
      "chip": "ym2612"
    },
    {
      "channel": 1,
      "note": 47,
      "start": 32.4296,
      "duration": 0.1187,
      "velocity": 107,
      "chip": "ym2612"
    },
    {
      "channel": 2,
      "note": 64,
      "start": 32.4328,
      "duration": 0.0817,
      "velocity": 121,
      "chip": "ym2612"
    },
    {
      "channel": 2,
      "note": 64,
      "start": 32.533,
      "duration": 0.084,
      "velocity": 121,
      "chip": "ym2612"
    },
    {
      "channel": 1,
      "note": 44,
      "start": 32.6354,
      "duration": 0.1188,
      "velocity": 107,
      "chip": "ym2612"
    },
    {
      "channel": 2,
      "note": 71,
      "start": 32.7388,
      "duration": 0.084,
      "velocity": 121,
      "chip": "ym2612"
    },
    {
      "channel": 0,
      "note": 75,
      "start": 32.8412,
      "duration": 0.2901,
      "velocity": 107,
      "chip": "ym2612"
    },
    {
      "channel": 1,
      "note": 47,
      "start": 32.8439,
      "duration": 0.116,
      "velocity": 107,
      "chip": "ym2612"
    },
    {
      "channel": 2,
      "note": 64,
      "start": 32.8472,
      "duration": 0.0786,
      "velocity": 121,
      "chip": "ym2612"
    },
    {
      "channel": 3,
      "note": 75,
      "start": 32.85,
      "duration": 0.2819,
      "velocity": 107,
      "chip": "ym2612"
    },
    {
      "channel": 1,
      "note": 46,
      "start": 33.0469,
      "duration": 0.1187,
      "velocity": 107,
      "chip": "ym2612"
    },
    {
      "channel": 2,
      "note": 64,
      "start": 33.0506,
      "duration": 0.1666,
      "velocity": 121,
      "chip": "ym2612"
    },
    {
      "channel": 1,
      "note": 44,
      "start": 33.2527,
      "duration": 0.1188,
      "velocity": 107,
      "chip": "ym2612"
    },
    {
      "channel": 2,
      "note": 71,
      "start": 33.2559,
      "duration": 0.167,
      "velocity": 121,
      "chip": "ym2612"
    },
    {
      "channel": 0,
      "note": 75,
      "start": 33.4616,
      "duration": 0.2892,
      "velocity": 107,
      "chip": "ym2612"
    },
    {
      "channel": 1,
      "note": 43,
      "start": 33.4644,
      "duration": 0.115,
      "velocity": 107,
      "chip": "ym2612"
    },
    {
      "channel": 2,
      "note": 71,
      "start": 33.4677,
      "duration": 0.1632,
      "velocity": 121,
      "chip": "ym2612"
    },
    {
      "channel": 3,
      "note": 75,
      "start": 33.4733,
      "duration": 0.2786,
      "velocity": 107,
      "chip": "ym2612"
    },
    {
      "channel": 1,
      "note": 44,
      "start": 33.6664,
      "duration": 0.1188,
      "velocity": 107,
      "chip": "ym2612"
    },
    {
      "channel": 2,
      "note": 64,
      "start": 33.6697,
      "duration": 0.0817,
      "velocity": 121,
      "chip": "ym2612"
    },
    {
      "channel": 2,
      "note": 71,
      "start": 33.7699,
      "duration": 0.0839,
      "velocity": 121,
      "chip": "ym2612"
    },
    {
      "channel": 1,
      "note": 46,
      "start": 33.8722,
      "duration": 0.1188,
      "velocity": 107,
      "chip": "ym2612"
    },
    {
      "channel": 2,
      "note": 71,
      "start": 33.9756,
      "duration": 0.084,
      "velocity": 121,
      "chip": "ym2612"
    },
    {
      "channel": 0,
      "note": 75,
      "start": 34.078,
      "duration": 0.2901,
      "velocity": 107,
      "chip": "ym2612"
    },
    {
      "channel": 1,
      "note": 39,
      "start": 34.0807,
      "duration": 0.116,
      "velocity": 107,
      "chip": "ym2612"
    },
    {
      "channel": 3,
      "note": 75,
      "start": 34.0841,
      "duration": 0.2847,
      "velocity": 107,
      "chip": "ym2612"
    },
    {
      "channel": 2,
      "note": 64,
      "start": 34.1814,
      "duration": 0.084,
      "velocity": 121,
      "chip": "ym2612"
    },
    {
      "channel": 1,
      "note": 43,
      "start": 34.2838,
      "duration": 0.1187,
      "velocity": 107,
      "chip": "ym2612"
    },
    {
      "channel": 2,
      "note": 71,
      "start": 34.2869,
      "duration": 0.167,
      "velocity": 121,
      "chip": "ym2612"
    },
    {
      "channel": 1,
      "note": 51,
      "start": 34.4895,
      "duration": 0.1187,
      "velocity": 107,
      "chip": "ym2612"
    },
    {
      "channel": 2,
      "note": 64,
      "start": 34.4927,
      "duration": 0.0814,
      "velocity": 121,
      "chip": "ym2612"
    },
    {
      "channel": 2,
      "note": 64,
      "start": 34.5929,
      "duration": 0.0839,
      "velocity": 121,
      "chip": "ym2612"
    },
    {
      "channel": 0,
      "note": 75,
      "start": 34.6952,
      "duration": 0.2901,
      "velocity": 107,
      "chip": "ym2612"
    },
    {
      "channel": 1,
      "note": 49,
      "start": 34.698,
      "duration": 0.116,
      "velocity": 107,
      "chip": "ym2612"
    },
    {
      "channel": 2,
      "note": 68,
      "start": 34.7013,
      "duration": 0.1641,
      "velocity": 121,
      "chip": "ym2612"
    },
    {
      "channel": 3,
      "note": 75,
      "start": 34.7041,
      "duration": 0.2819,
      "velocity": 107,
      "chip": "ym2612"
    },
    {
      "channel": 1,
      "note": 47,
      "start": 34.901,
      "duration": 0.1187,
      "velocity": 107,
      "chip": "ym2612"
    },
    {
      "channel": 2,
      "note": 71,
      "start": 34.9042,
      "duration": 0.167,
      "velocity": 121,
      "chip": "ym2612"
    },
    {
      "channel": 1,
      "note": 46,
      "start": 35.1067,
      "duration": 0.1187,
      "velocity": 107,
      "chip": "ym2612"
    },
    {
      "channel": 2,
      "note": 68,
      "start": 35.1099,
      "duration": 0.1671,
      "velocity": 121,
      "chip": "ym2612"
    },
    {
      "channel": 0,
      "note": 75,
      "start": 35.3132,
      "duration": 0.2896,
      "velocity": 107,
      "chip": "ym2612"
    },
    {
      "channel": 1,
      "note": 47,
      "start": 35.316,
      "duration": 0.1153,
      "velocity": 107,
      "chip": "ym2612"
    },
    {
      "channel": 2,
      "note": 64,
      "start": 35.3192,
      "duration": 0.0778,
      "velocity": 121,
      "chip": "ym2612"
    },
    {
      "channel": 3,
      "note": 75,
      "start": 35.3242,
      "duration": 0.2792,
      "velocity": 107,
      "chip": "ym2612"
    },
    {
      "channel": 2,
      "note": 64,
      "start": 35.4159,
      "duration": 0.084,
      "velocity": 121,
      "chip": "ym2612"
    },
    {
      "channel": 1,
      "note": 46,
      "start": 35.5183,
      "duration": 0.1188,
      "velocity": 107,
      "chip": "ym2612"
    },
    {
      "channel": 2,
      "note": 68,
      "start": 35.5215,
      "duration": 0.1671,
      "velocity": 121,
      "chip": "ym2612"
    },
    {
      "channel": 1,
      "note": 49,
      "start": 35.724,
      "duration": 0.1187,
      "velocity": 107,
      "chip": "ym2612"
    },
    {
      "channel": 2,
      "note": 68,
      "start": 35.7272,
      "duration": 0.1671,
      "velocity": 121,
      "chip": "ym2612"
    },
    {
      "channel": 0,
      "note": 75,
      "start": 35.9298,
      "duration": 0.2919,
      "velocity": 107,
      "chip": "ym2612"
    },
    {
      "channel": 1,
      "note": 52,
      "start": 35.9326,
      "duration": 0.1171,
      "velocity": 107,
      "chip": "ym2612"
    },
    {
      "channel": 2,
      "note": 64,
      "start": 35.9358,
      "duration": 0.0785,
      "velocity": 121,
      "chip": "ym2612"
    },
    {
      "channel": 3,
      "note": 75,
      "start": 35.9386,
      "duration": 0.2842,
      "velocity": 107,
      "chip": "ym2612"
    },
    {
      "channel": 2,
      "note": 75,
      "start": 36.0443,
      "duration": 0.074,
      "velocity": 127,
      "chip": "ym2612"
    },
    {
      "channel": 1,
      "note": 54,
      "start": 36.1356,
      "duration": 0.1215,
      "velocity": 107,
      "chip": "ym2612"
    },
    {
      "channel": 2,
      "note": 64,
      "start": 36.1497,
      "duration": 0.0725,
      "velocity": 121,
      "chip": "ym2612"
    },
    {
      "channel": 2,
      "note": 75,
      "start": 36.2517,
      "duration": 0.074,
      "velocity": 127,
      "chip": "ym2612"
    },
    {
      "channel": 1,
      "note": 32,
      "start": 36.3544,
      "duration": 0.1386,
      "velocity": 108,
      "chip": "ym2612"
    },
    {
      "channel": 2,
      "note": 64,
      "start": 36.3698,
      "duration": 0.1576,
      "velocity": 121,
      "chip": "ym2612"
    },
    {
      "channel": 0,
      "note": 75,
      "start": 36.5629,
      "duration": 0.293,
      "velocity": 107,
      "chip": "ym2612"
    },
    {
      "channel": 1,
      "note": 44,
      "start": 36.5657,
      "duration": 0.1331,
      "velocity": 108,
      "chip": "ym2612"
    },
    {
      "channel": 2,
      "note": 71,
      "start": 36.5689,
      "duration": 0.1642,
      "velocity": 121,
      "chip": "ym2612"
    },
    {
      "channel": 3,
      "note": 75,
      "start": 36.5717,
      "duration": 0.2849,
      "velocity": 107,
      "chip": "ym2612"
    },
    {
      "channel": 1,
      "note": 47,
      "start": 36.7687,
      "duration": 0.1387,
      "velocity": 108,
      "chip": "ym2612"
    },
    {
      "channel": 2,
      "note": 75,
      "start": 36.783,
      "duration": 0.1588,
      "velocity": 127,
      "chip": "ym2612"
    },
    {
      "channel": 1,
      "note": 44,
      "start": 36.9762,
      "duration": 0.1376,
      "velocity": 108,
      "chip": "ym2612"
    },
    {
      "channel": 2,
      "note": 64,
      "start": 36.9905,
      "duration": 0.0719,
      "velocity": 121,
      "chip": "ym2612"
    },
    {
      "channel": 2,
      "note": 71,
      "start": 37.0814,
      "duration": 0.0839,
      "velocity": 121,
      "chip": "ym2612"
    },
    {
      "channel": 0,
      "note": 75,
      "start": 37.1844,
      "duration": 0.2895,
      "velocity": 107,
      "chip": "ym2612"
    },
    {
      "channel": 1,
      "note": 49,
      "start": 37.1872,
      "duration": 0.1324,
      "velocity": 108,
      "chip": "ym2612"
    },
    {
      "channel": 3,
      "note": 75,
      "start": 37.1926,
      "duration": 0.2819,
      "velocity": 107,
      "chip": "ym2612"
    },
    {
      "channel": 2,
      "note": 71,
      "start": 37.2871,
      "duration": 0.084,
      "velocity": 121,
      "chip": "ym2612"
    },
    {
      "channel": 1,
      "note": 44,
      "start": 37.3895,
      "duration": 0.1358,
      "velocity": 108,
      "chip": "ym2612"
    },
    {
      "channel": 2,
      "note": 64,
      "start": 37.4928,
      "duration": 0.084,
      "velocity": 121,
      "chip": "ym2612"
    },
    {
      "channel": 1,
      "note": 51,
      "start": 37.5951,
      "duration": 0.1387,
      "velocity": 108,
      "chip": "ym2612"
    },
    {
      "channel": 2,
      "note": 75,
      "start": 37.6095,
      "duration": 0.1587,
      "velocity": 127,
      "chip": "ym2612"
    },
    {
      "channel": 0,
      "note": 75,
      "start": 37.8027,
      "duration": 0.2974,
      "velocity": 107,
      "chip": "ym2612"
    },
    {
      "channel": 1,
      "note": 44,
      "start": 37.8055,
      "duration": 0.1403,
      "velocity": 108,
      "chip": "ym2612"
    },
    {
      "channel": 2,
      "note": 64,
      "start": 37.8198,
      "duration": 0.0747,
      "velocity": 121,
      "chip": "ym2612"
    },
    {
      "channel": 3,
      "note": 75,
      "start": 37.8226,
      "duration": 0.2786,
      "velocity": 107,
      "chip": "ym2612"
    },
    {
      "channel": 2,
      "note": 64,
      "start": 37.9134,
      "duration": 0.084,
      "velocity": 121,
      "chip": "ym2612"
    },
    {
      "channel": 1,
      "note": 51,
      "start": 38.016,
      "duration": 0.0498,
      "velocity": 108,
      "chip": "ym2612"
    },
    {
      "channel": 2,
      "note": 71,
      "start": 38.0193,
      "duration": 0.0814,
      "velocity": 121,
      "chip": "ym2612"
    },
    {
      "channel": 1,
      "note": 52,
      "start": 38.1186,
      "duration": 0.0501,
      "velocity": 108,
      "chip": "ym2612"
    },
    {
      "channel": 2,
      "note": 64,
      "start": 38.1218,
      "duration": 0.167,
      "velocity": 121,
      "chip": "ym2612"
    },
    {
      "channel": 1,
      "note": 51,
      "start": 38.2214,
      "duration": 0.1187,
      "velocity": 108,
      "chip": "ym2612"
    },
    {
      "channel": 2,
      "note": 64,
      "start": 38.3248,
      "duration": 0.084,
      "velocity": 121,
      "chip": "ym2612"
    },
    {
      "channel": 0,
      "note": 75,
      "start": 38.4271,
      "duration": 0.2993,
      "velocity": 107,
      "chip": "ym2612"
    },
    {
      "channel": 1,
      "note": 49,
      "start": 38.43,
      "duration": 0.0558,
      "velocity": 108,
      "chip": "ym2612"
    },
    {
      "channel": 2,
      "note": 75,
      "start": 38.4443,
      "duration": 0.1616,
      "velocity": 127,
      "chip": "ym2612"
    },
    {
      "channel": 3,
      "note": 75,
      "start": 38.4471,
      "duration": 0.28,
      "velocity": 107,
      "chip": "ym2612"
    },
    {
      "channel": 1,
      "note": 51,
      "start": 38.5374,
      "duration": 0.0513,
      "velocity": 108,
      "chip": "ym2612"
    },
    {
      "channel": 1,
      "note": 49,
      "start": 38.6402,
      "duration": 0.1204,
      "velocity": 108,
      "chip": "ym2612"
    },
    {
      "channel": 2,
      "note": 64,
      "start": 38.6545,
      "duration": 0.1577,
      "velocity": 121,
      "chip": "ym2612"
    },
    {
      "channel": 1,
      "note": 47,
      "start": 38.8477,
      "duration": 0.0501,
      "velocity": 108,
      "chip": "ym2612"
    },
    {
      "channel": 2,
      "note": 71,
      "start": 38.851,
      "duration": 0.167,
      "velocity": 121,
      "chip": "ym2612"
    },
    {
      "channel": 1,
      "note": 49,
      "start": 38.9506,
      "duration": 0.0501,
      "velocity": 108,
      "chip": "ym2612"
    },
    {
      "channel": 0,
      "note": 75,
      "start": 39.0542,
      "duration": 0.2922,
      "velocity": 107,
      "chip": "ym2612"
    },
    {
      "channel": 1,
      "note": 47,
      "start": 39.0571,
      "duration": 0.1153,
      "velocity": 108,
      "chip": "ym2612"
    },
    {
      "channel": 2,
      "note": 64,
      "start": 39.0602,
      "duration": 0.0779,
      "velocity": 121,
      "chip": "ym2612"
    },
    {
      "channel": 3,
      "note": 75,
      "start": 39.0652,
      "duration": 0.2824,
      "velocity": 107,
      "chip": "ym2612"
    },
    {
      "channel": 2,
      "note": 64,
      "start": 39.1569,
      "duration": 0.084,
      "velocity": 121,
      "chip": "ym2612"
    },
    {
      "channel": 1,
      "note": 46,
      "start": 39.2593,
      "duration": 0.0531,
      "velocity": 108,
      "chip": "ym2612"
    },
    {
      "channel": 2,
      "note": 75,
      "start": 39.2737,
      "duration": 0.0734,
      "velocity": 127,
      "chip": "ym2612"
    },
    {
      "channel": 1,
      "note": 47,
      "start": 39.3639,
      "duration": 0.0518,
      "velocity": 108,
      "chip": "ym2612"
    },
    {
      "channel": 2,
      "note": 71,
      "start": 39.3782,
      "duration": 0.072,
      "velocity": 121,
      "chip": "ym2612"
    },
    {
      "channel": 1,
      "note": 46,
      "start": 39.4685,
      "duration": 0.1187,
      "velocity": 108,
      "chip": "ym2612"
    },
    {
      "channel": 2,
      "note": 64,
      "start": 39.4717,
      "duration": 0.1671,
      "velocity": 121,
      "chip": "ym2612"
    },
    {
      "channel": 0,
      "note": 75,
      "start": 39.6742,
      "duration": 0.2902,
      "velocity": 107,
      "chip": "ym2612"
    },
    {
      "channel": 1,
      "note": 47,
      "start": 39.677,
      "duration": 0.0474,
      "velocity": 108,
      "chip": "ym2612"
    },
    {
      "channel": 2,
      "note": 64,
      "start": 39.6814,
      "duration": 0.1632,
      "velocity": 121,
      "chip": "ym2612"
    },
    {
      "channel": 3,
      "note": 75,
      "start": 39.6842,
      "duration": 0.2808,
      "velocity": 107,
      "chip": "ym2612"
    },
    {
      "channel": 1,
      "note": 46,
      "start": 39.7771,
      "duration": 0.0502,
      "velocity": 108,
      "chip": "ym2612"
    },
    {
      "channel": 1,
      "note": 44,
      "start": 39.88,
      "duration": 0.1187,
      "velocity": 108,
      "chip": "ym2612"
    },
    {
      "channel": 2,
      "note": 71,
      "start": 39.8832,
      "duration": 0.1671,
      "velocity": 121,
      "chip": "ym2612"
    },
    {
      "channel": 1,
      "note": 43,
      "start": 40.0857,
      "duration": 0.1215,
      "velocity": 108,
      "chip": "ym2612"
    },
    {
      "channel": 2,
      "note": 75,
      "start": 40.1001,
      "duration": 0.1587,
      "velocity": 127,
      "chip": "ym2612"
    },
    {
      "channel": 0,
      "note": 75,
      "start": 40.2932,
      "duration": 0.2974,
      "velocity": 107,
      "chip": "ym2612"
    },
    {
      "channel": 1,
      "note": 44,
      "start": 40.296,
      "duration": 0.1233,
      "velocity": 108,
      "chip": "ym2612"
    },
    {
      "channel": 2,
      "note": 64,
      "start": 40.3103,
      "duration": 0.0747,
      "velocity": 121,
      "chip": "ym2612"
    },
    {
      "channel": 3,
      "note": 75,
      "start": 40.3131,
      "duration": 0.2783,
      "velocity": 107,
      "chip": "ym2612"
    },
    {
      "channel": 2,
      "note": 71,
      "start": 40.4039,
      "duration": 0.084,
      "velocity": 121,
      "chip": "ym2612"
    },
    {
      "channel": 1,
      "note": 46,
      "start": 40.5063,
      "duration": 0.1186,
      "velocity": 108,
      "chip": "ym2612"
    },
    {
      "channel": 2,
      "note": 71,
      "start": 40.6096,
      "duration": 0.084,
      "velocity": 121,
      "chip": "ym2612"
    },
    {
      "channel": 1,
      "note": 39,
      "start": 40.712,
      "duration": 0.1188,
      "velocity": 108,
      "chip": "ym2612"
    },
    {
      "channel": 2,
      "note": 64,
      "start": 40.8154,
      "duration": 0.084,
      "velocity": 121,
      "chip": "ym2612"
    },
    {
      "channel": 0,
      "note": 75,
      "start": 40.9185,
      "duration": 0.3013,
      "velocity": 107,
      "chip": "ym2612"
    },
    {
      "channel": 1,
      "note": 43,
      "start": 40.9213,
      "duration": 0.1265,
      "velocity": 108,
      "chip": "ym2612"
    },
    {
      "channel": 2,
      "note": 75,
      "start": 40.9357,
      "duration": 0.1636,
      "velocity": 127,
      "chip": "ym2612"
    },
    {
      "channel": 3,
      "note": 75,
      "start": 40.9406,
      "duration": 0.2804,
      "velocity": 107,
      "chip": "ym2612"
    },
    {
      "channel": 1,
      "note": 46,
      "start": 41.1337,
      "duration": 0.1205,
      "velocity": 108,
      "chip": "ym2612"
    },
    {
      "channel": 2,
      "note": 64,
      "start": 41.148,
      "duration": 0.0725,
      "velocity": 121,
      "chip": "ym2612"
    },
    {
      "channel": 2,
      "note": 64,
      "start": 41.2389,
      "duration": 0.084,
      "velocity": 121,
      "chip": "ym2612"
    },
    {
      "channel": 1,
      "note": 51,
      "start": 41.3412,
      "duration": 0.033,
      "velocity": 108,
      "chip": "ym2612"
    },
    {
      "channel": 2,
      "note": 71,
      "start": 41.3444,
      "duration": 0.0813,
      "velocity": 121,
      "chip": "ym2612"
    },
    {
      "channel": 1,
      "note": 52,
      "start": 41.4098,
      "duration": 0.0361,
      "velocity": 108,
      "chip": "ym2612"
    },
    {
      "channel": 2,
      "note": 64,
      "start": 41.4446,
      "duration": 0.1697,
      "velocity": 121,
      "chip": "ym2612"
    },
    {
      "channel": 1,
      "note": 51,
      "start": 41.4784,
      "duration": 0.033,
      "velocity": 108,
      "chip": "ym2612"
    },
    {
      "channel": 0,
      "note": 75,
      "start": 41.5469,
      "duration": 0.2931,
      "velocity": 107,
      "chip": "ym2612"
    },
    {
      "channel": 1,
      "note": 49,
      "start": 41.5497,
      "duration": 0.116,
      "velocity": 108,
      "chip": "ym2612"
    },
    {
      "channel": 3,
      "note": 75,
      "start": 41.5527,
      "duration": 0.288,
      "velocity": 107,
      "chip": "ym2612"
    },
    {
      "channel": 2,
      "note": 64,
      "start": 41.6504,
      "duration": 0.084,
      "velocity": 121,
      "chip": "ym2612"
    },
    {
      "channel": 1,
      "note": 49,
      "start": 41.7528,
      "duration": 0.0359,
      "velocity": 108,
      "chip": "ym2612"
    },
    {
      "channel": 2,
      "note": 75,
      "start": 41.7672,
      "duration": 0.1592,
      "velocity": 127,
      "chip": "ym2612"
    },
    {
      "channel": 1,
      "note": 51,
      "start": 41.8232,
      "duration": 0.034,
      "velocity": 108,
      "chip": "ym2612"
    },
    {
      "channel": 1,
      "note": 49,
      "start": 41.8917,
      "duration": 0.034,
      "velocity": 108,
      "chip": "ym2612"
    },
    {
      "channel": 1,
      "note": 47,
      "start": 41.9603,
      "duration": 0.1204,
      "velocity": 108,
      "chip": "ym2612"
    },
    {
      "channel": 2,
      "note": 64,
      "start": 41.9746,
      "duration": 0.1576,
      "velocity": 121,
      "chip": "ym2612"
    },
    {
      "channel": 0,
      "note": 75,
      "start": 42.1678,
      "duration": 0.2902,
      "velocity": 107,
      "chip": "ym2612"
    },
    {
      "channel": 1,
      "note": 47,
      "start": 42.1705,
      "duration": 0.0303,
      "velocity": 108,
      "chip": "ym2612"
    },
    {
      "channel": 2,
      "note": 71,
      "start": 42.1738,
      "duration": 0.1648,
      "velocity": 121,
      "chip": "ym2612"
    },
    {
      "channel": 3,
      "note": 75,
      "start": 42.1766,
      "duration": 0.2825,
      "velocity": 107,
      "chip": "ym2612"
    },
    {
      "channel": 1,
      "note": 49,
      "start": 42.2364,
      "duration": 0.033,
      "velocity": 108,
      "chip": "ym2612"
    },
    {
      "channel": 1,
      "note": 47,
      "start": 42.305,
      "duration": 0.0331,
      "velocity": 108,
      "chip": "ym2612"
    },
    {
      "channel": 1,
      "note": 46,
      "start": 42.3737,
      "duration": 0.1186,
      "velocity": 108,
      "chip": "ym2612"
    },
    {
      "channel": 2,
      "note": 64,
      "start": 42.3768,
      "duration": 0.0817,
      "velocity": 121,
      "chip": "ym2612"
    },
    {
      "channel": 2,
      "note": 64,
      "start": 42.477,
      "duration": 0.084,
      "velocity": 121,
      "chip": "ym2612"
    },
    {
      "channel": 1,
      "note": 46,
      "start": 42.5793,
      "duration": 0.0358,
      "velocity": 108,
      "chip": "ym2612"
    },
    {
      "channel": 2,
      "note": 75,
      "start": 42.5937,
      "duration": 0.073,
      "velocity": 127,
      "chip": "ym2612"
    },
    {
      "channel": 1,
      "note": 47,
      "start": 42.6496,
      "duration": 0.0472,
      "velocity": 108,
      "chip": "ym2612"
    },
    {
      "channel": 2,
      "note": 71,
      "start": 42.6955,
      "duration": 0.073,
      "velocity": 121,
      "chip": "ym2612"
    },
    {
      "channel": 1,
      "note": 46,
      "start": 42.7183,
      "duration": 0.033,
      "velocity": 108,
      "chip": "ym2612"
    },
    {
      "channel": 0,
      "note": 75,
      "start": 42.7876,
      "duration": 0.2895,
      "velocity": 107,
      "chip": "ym2612"
    },
    {
      "channel": 1,
      "note": 43,
      "start": 42.7904,
      "duration": 0.1153,
      "velocity": 108,
      "chip": "ym2612"
    },
    {
      "channel": 2,
      "note": 64,
      "start": 42.7936,
      "duration": 0.1636,
      "velocity": 121,
      "chip": "ym2612"
    },
    {
      "channel": 3,
      "note": 75,
      "start": 42.7985,
      "duration": 0.2792,
      "velocity": 107,
      "chip": "ym2612"
    },
    {
      "channel": 1,
      "note": 44,
      "start": 42.9927,
      "duration": 0.1187,
      "velocity": 108,
      "chip": "ym2612"
    },
    {
      "channel": 2,
      "note": 64,
      "start": 42.997,
      "duration": 0.1659,
      "velocity": 121,
      "chip": "ym2612"
    },
    {
      "channel": 1,
      "note": 46,
      "start": 43.1984,
      "duration": 0.1188,
      "velocity": 108,
      "chip": "ym2612"
    },
    {
      "channel": 2,
      "note": 71,
      "start": 43.2016,
      "duration": 0.1671,
      "velocity": 121,
      "chip": "ym2612"
    },
    {
      "channel": 0,
      "note": 75,
      "start": 43.4042,
      "duration": 0.2995,
      "velocity": 107,
      "chip": "ym2612"
    },
    {
      "channel": 1,
      "note": 47,
      "start": 43.407,
      "duration": 0.1243,
      "velocity": 108,
      "chip": "ym2612"
    },
    {
      "channel": 2,
      "note": 75,
      "start": 43.4213,
      "duration": 0.1615,
      "velocity": 127,
      "chip": "ym2612"
    },
    {
      "channel": 3,
      "note": 75,
      "start": 43.4241,
      "duration": 0.2807,
      "velocity": 107,
      "chip": "ym2612"
    },
    {
      "channel": 1,
      "note": 49,
      "start": 43.6176,
      "duration": 0.3432,
      "velocity": 108,
      "chip": "ym2612"
    },
    {
      "channel": 2,
      "note": 64,
      "start": 43.6318,
      "duration": 0.0725,
      "velocity": 121,
      "chip": "ym2612"
    },
    {
      "channel": 2,
      "note": 71,
      "start": 43.7227,
      "duration": 0.084,
      "velocity": 121,
      "chip": "ym2612"
    },
    {
      "channel": 2,
      "note": 71,
      "start": 43.9284,
      "duration": 0.084,
      "velocity": 121,
      "chip": "ym2612"
    },
    {
      "channel": 0,
      "note": 75,
      "start": 44.0308,
      "duration": 0.2929,
      "velocity": 107,
      "chip": "ym2612"
    },
    {
      "channel": 1,
      "note": 47,
      "start": 44.034,
      "duration": 0.1327,
      "velocity": 108,
      "chip": "ym2612"
    },
    {
      "channel": 3,
      "note": 75,
      "start": 44.0373,
      "duration": 0.2872,
      "velocity": 107,
      "chip": "ym2612"
    },
    {
      "channel": 2,
      "note": 64,
      "start": 44.1342,
      "duration": 0.084,
      "velocity": 121,
      "chip": "ym2612"
    },
    {
      "channel": 1,
      "note": 49,
      "start": 44.2365,
      "duration": 0.1387,
      "velocity": 108,
      "chip": "ym2612"
    },
    {
      "channel": 2,
      "note": 75,
      "start": 44.2509,
      "duration": 0.1587,
      "velocity": 127,
      "chip": "ym2612"
    },
    {
      "channel": 1,
      "note": 51,
      "start": 44.4444,
      "duration": 0.3433,
      "velocity": 108,
      "chip": "ym2612"
    },
    {
      "channel": 2,
      "note": 64,
      "start": 44.4586,
      "duration": 0.072,
      "velocity": 121,
      "chip": "ym2612"
    },
    {
      "channel": 2,
      "note": 64,
      "start": 44.5495,
      "duration": 0.084,
      "velocity": 121,
      "chip": "ym2612"
    },
    {
      "channel": 0,
      "note": 75,
      "start": 44.655,
      "duration": 0.287,
      "velocity": 107,
      "chip": "ym2612"
    },
    {
      "channel": 2,
      "note": 71,
      "start": 44.6584,
      "duration": 0.078,
      "velocity": 121,
      "chip": "ym2612"
    },
    {
      "channel": 3,
      "note": 75,
      "start": 44.664,
      "duration": 0.2786,
      "velocity": 107,
      "chip": "ym2612"
    },
    {
      "channel": 2,
      "note": 64,
      "start": 44.7553,
      "duration": 0.1697,
      "velocity": 121,
      "chip": "ym2612"
    },
    {
      "channel": 1,
      "note": 55,
      "start": 44.8579,
      "duration": 0.1355,
      "velocity": 108,
      "chip": "ym2612"
    },
    {
      "channel": 2,
      "note": 64,
      "start": 44.961,
      "duration": 0.084,
      "velocity": 121,
      "chip": "ym2612"
    },
    {
      "channel": 1,
      "note": 56,
      "start": 45.0633,
      "duration": 0.1387,
      "velocity": 108,
      "chip": "ym2612"
    },
    {
      "channel": 2,
      "note": 75,
      "start": 45.0777,
      "duration": 0.1586,
      "velocity": 127,
      "chip": "ym2612"
    },
    {
      "channel": 0,
      "note": 75,
      "start": 45.2709,
      "duration": 0.2974,
      "velocity": 107,
      "chip": "ym2612"
    },
    {
      "channel": 1,
      "note": 51,
      "start": 45.2736,
      "duration": 0.1404,
      "velocity": 108,
      "chip": "ym2612"
    },
    {
      "channel": 2,
      "note": 64,
      "start": 45.2879,
      "duration": 0.1604,
      "velocity": 121,
      "chip": "ym2612"
    },
    {
      "channel": 3,
      "note": 75,
      "start": 45.2907,
      "duration": 0.2782,
      "velocity": 107,
      "chip": "ym2612"
    },
    {
      "channel": 1,
      "note": 49,
      "start": 45.4838,
      "duration": 0.1359,
      "velocity": 108,
      "chip": "ym2612"
    },
    {
      "channel": 2,
      "note": 71,
      "start": 45.4871,
      "duration": 0.167,
      "velocity": 121,
      "chip": "ym2612"
    },
    {
      "channel": 1,
      "note": 47,
      "start": 45.6895,
      "duration": 0.0673,
      "velocity": 108,
      "chip": "ym2612"
    },
    {
      "channel": 2,
      "note": 64,
      "start": 45.6928,
      "duration": 0.0813,
      "velocity": 121,
      "chip": "ym2612"
    },
    {
      "channel": 1,
      "note": 46,
      "start": 45.7924,
      "duration": 0.0673,
      "velocity": 108,
      "chip": "ym2612"
    },
    {
      "channel": 2,
      "note": 64,
      "start": 45.7957,
      "duration": 0.0813,
      "velocity": 121,
      "chip": "ym2612"
    },
    {
      "channel": 0,
      "note": 75,
      "start": 45.8954,
      "duration": 0.2974,
      "velocity": 107,
      "chip": "ym2612"
    },
    {
      "channel": 1,
      "note": 47,
      "start": 45.8981,
      "duration": 0.1405,
      "velocity": 108,
      "chip": "ym2612"
    },
    {
      "channel": 2,
      "note": 75,
      "start": 45.9124,
      "duration": 0.0758,
      "velocity": 127,
      "chip": "ym2612"
    },
    {
      "channel": 3,
      "note": 75,
      "start": 45.9153,
      "duration": 0.2782,
      "velocity": 107,
      "chip": "ym2612"
    },
    {
      "channel": 2,
      "note": 71,
      "start": 46.0171,
      "duration": 0.073,
      "velocity": 121,
      "chip": "ym2612"
    },
    {
      "channel": 1,
      "note": 46,
      "start": 46.1084,
      "duration": 0.0673,
      "velocity": 108,
      "chip": "ym2612"
    },
    {
      "channel": 2,
      "note": 64,
      "start": 46.1116,
      "duration": 0.1674,
      "velocity": 121,
      "chip": "ym2612"
    },
    {
      "channel": 1,
      "note": 44,
      "start": 46.2112,
      "duration": 0.0672,
      "velocity": 108,
      "chip": "ym2612"
    },
    {
      "channel": 1,
      "note": 46,
      "start": 46.3141,
      "duration": 0.0673,
      "velocity": 108,
      "chip": "ym2612"
    },
    {
      "channel": 2,
      "note": 64,
      "start": 46.3184,
      "duration": 0.1663,
      "velocity": 121,
      "chip": "ym2612"
    },
    {
      "channel": 1,
      "note": 51,
      "start": 46.417,
      "duration": 0.0673,
      "velocity": 108,
      "chip": "ym2612"
    },
    {
      "channel": 0,
      "note": 75,
      "start": 46.5205,
      "duration": 0.2923,
      "velocity": 107,
      "chip": "ym2612"
    },
    {
      "channel": 1,
      "note": 49,
      "start": 46.5233,
      "duration": 0.0639,
      "velocity": 108,
      "chip": "ym2612"
    },
    {
      "channel": 2,
      "note": 71,
      "start": 46.5266,
      "duration": 0.164,
      "velocity": 121,
      "chip": "ym2612"
    },
    {
      "channel": 3,
      "note": 75,
      "start": 46.5315,
      "duration": 0.2821,
      "velocity": 107,
      "chip": "ym2612"
    },
    {
      "channel": 1,
      "note": 47,
      "start": 46.6228,
      "duration": 0.0673,
      "velocity": 108,
      "chip": "ym2612"
    },
    {
      "channel": 1,
      "note": 46,
      "start": 46.7256,
      "duration": 0.0702,
      "velocity": 108,
      "chip": "ym2612"
    },
    {
      "channel": 2,
      "note": 75,
      "start": 46.7399,
      "duration": 0.1592,
      "velocity": 127,
      "chip": "ym2612"
    },
    {
      "channel": 1,
      "note": 47,
      "start": 46.8303,
      "duration": 0.0683,
      "velocity": 108,
      "chip": "ym2612"
    },
    {
      "channel": 1,
      "note": 46,
      "start": 46.9331,
      "duration": 0.0691,
      "velocity": 108,
      "chip": "ym2612"
    },
    {
      "channel": 2,
      "note": 64,
      "start": 46.9474,
      "duration": 0.072,
      "velocity": 121,
      "chip": "ym2612"
    },
    {
      "channel": 1,
      "note": 44,
      "start": 47.0378,
      "duration": 0.0673,
      "velocity": 108,
      "chip": "ym2612"
    },
    {
      "channel": 2,
      "note": 71,
      "start": 47.041,
      "duration": 0.0813,
      "velocity": 121,
      "chip": "ym2612"
    },
    {
      "channel": 0,
      "note": 75,
      "start": 47.1407,
      "duration": 0.2901,
      "velocity": 107,
      "chip": "ym2612"
    },
    {
      "channel": 1,
      "note": 46,
      "start": 47.1434,
      "duration": 0.0646,
      "velocity": 108,
      "chip": "ym2612"
    },
    {
      "channel": 3,
      "note": 75,
      "start": 47.1467,
      "duration": 0.2847,
      "velocity": 107,
      "chip": "ym2612"
    },
    {
      "channel": 1,
      "note": 51,
      "start": 47.2436,
      "duration": 0.0673,
      "velocity": 108,
      "chip": "ym2612"
    },
    {
      "channel": 2,
      "note": 71,
      "start": 47.2467,
      "duration": 0.0813,
      "velocity": 121,
      "chip": "ym2612"
    },
    {
      "channel": 1,
      "note": 49,
      "start": 47.3464,
      "duration": 0.0673,
      "velocity": 108,
      "chip": "ym2612"
    },
    {
      "channel": 1,
      "note": 47,
      "start": 47.4493,
      "duration": 0.0673,
      "velocity": 108,
      "chip": "ym2612"
    },
    {
      "channel": 2,
      "note": 64,
      "start": 47.4525,
      "duration": 0.0813,
      "velocity": 121,
      "chip": "ym2612"
    },
    {
      "channel": 1,
      "note": 46,
      "start": 47.5522,
      "duration": 0.07,
      "velocity": 108,
      "chip": "ym2612"
    },
    {
      "channel": 2,
      "note": 75,
      "start": 47.5665,
      "duration": 0.1592,
      "velocity": 127,
      "chip": "ym2612"
    },
    {
      "channel": 1,
      "note": 47,
      "start": 47.6567,
      "duration": 0.0683,
      "velocity": 108,
      "chip": "ym2612"
    },
    {
      "channel": 0,
      "note": 75,
      "start": 47.7597,
      "duration": 0.2974,
      "velocity": 107,
      "chip": "ym2612"
    },
    {
      "channel": 1,
      "note": 46,
      "start": 47.7624,
      "duration": 0.0719,
      "velocity": 108,
      "chip": "ym2612"
    },
    {
      "channel": 2,
      "note": 64,
      "start": 47.7767,
      "duration": 0.0747,
      "velocity": 121,
      "chip": "ym2612"
    },
    {
      "channel": 3,
      "note": 75,
      "start": 47.7795,
      "duration": 0.2786,
      "velocity": 107,
      "chip": "ym2612"
    },
    {
      "channel": 1,
      "note": 44,
      "start": 47.8698,
      "duration": 0.0674,
      "velocity": 108,
      "chip": "ym2612"
    },
    {
      "channel": 2,
      "note": 64,
      "start": 47.873,
      "duration": 0.0813,
      "velocity": 121,
      "chip": "ym2612"
    },
    {
      "channel": 1,
      "note": 49,
      "start": 47.9726,
      "duration": 0.0674,
      "velocity": 108,
      "chip": "ym2612"
    },
    {
      "channel": 2,
      "note": 71,
      "start": 47.9759,
      "duration": 0.0817,
      "velocity": 121,
      "chip": "ym2612"
    },
    {
      "channel": 1,
      "note": 55,
      "start": 48.0756,
      "duration": 0.0672,
      "velocity": 108,
      "chip": "ym2612"
    },
    {
      "channel": 2,
      "note": 64,
      "start": 48.0788,
      "duration": 0.1675,
      "velocity": 121,
      "chip": "ym2612"
    },
    {
      "channel": 1,
      "note": 52,
      "start": 48.1784,
      "duration": 0.0673,
      "velocity": 108,
      "chip": "ym2612"
    },
    {
      "channel": 1,
      "note": 51,
      "start": 48.2813,
      "duration": 0.0672,
      "velocity": 108,
      "chip": "ym2612"
    },
    {
      "channel": 2,
      "note": 64,
      "start": 48.2845,
      "duration": 0.0812,
      "velocity": 121,
      "chip": "ym2612"
    },
    {
      "channel": 0,
      "note": 75,
      "start": 48.3849,
      "duration": 0.3013,
      "velocity": 107,
      "chip": "ym2612"
    },
    {
      "channel": 1,
      "note": 49,
      "start": 48.3876,
      "duration": 0.075,
      "velocity": 108,
      "chip": "ym2612"
    },
    {
      "channel": 2,
      "note": 75,
      "start": 48.402,
      "duration": 0.164,
      "velocity": 127,
      "chip": "ym2612"
    },
    {
      "channel": 3,
      "note": 75,
      "start": 48.4069,
      "duration": 0.2799,
      "velocity": 107,
      "chip": "ym2612"
    },
    {
      "channel": 1,
      "note": 51,
      "start": 48.4971,
      "duration": 0.0684,
      "velocity": 108,
      "chip": "ym2612"
    },
    {
      "channel": 1,
      "note": 49,
      "start": 48.6001,
      "duration": 0.069,
      "velocity": 108,
      "chip": "ym2612"
    },
    {
      "channel": 2,
      "note": 64,
      "start": 48.6143,
      "duration": 0.1581,
      "velocity": 121,
      "chip": "ym2612"
    },
    {
      "channel": 1,
      "note": 47,
      "start": 48.7046,
      "duration": 0.0673,
      "velocity": 108,
      "chip": "ym2612"
    },
    {
      "channel": 1,
      "note": 49,
      "start": 48.8075,
      "duration": 0.0673,
      "velocity": 108,
      "chip": "ym2612"
    },
    {
      "channel": 2,
      "note": 71,
      "start": 48.8107,
      "duration": 0.1674,
      "velocity": 121,
      "chip": "ym2612"
    },
    {
      "channel": 1,
      "note": 55,
      "start": 48.9104,
      "duration": 0.0673,
      "velocity": 108,
      "chip": "ym2612"
    },
    {
      "channel": 0,
      "note": 75,
      "start": 49.0133,
      "duration": 0.2929,
      "velocity": 107,
      "chip": "ym2612"
    },
    {
      "channel": 1,
      "note": 52,
      "start": 49.016,
      "duration": 0.0646,
      "velocity": 108,
      "chip": "ym2612"
    },
    {
      "channel": 2,
      "note": 64,
      "start": 49.0193,
      "duration": 0.0784,
      "velocity": 121,
      "chip": "ym2612"
    },
    {
      "channel": 3,
      "note": 75,
      "start": 49.0221,
      "duration": 0.2852,
      "velocity": 107,
      "chip": "ym2612"
    },
    {
      "channel": 1,
      "note": 51,
      "start": 49.1161,
      "duration": 0.0674,
      "velocity": 108,
      "chip": "ym2612"
    },
    {
      "channel": 2,
      "note": 64,
      "start": 49.1194,
      "duration": 0.0813,
      "velocity": 121,
      "chip": "ym2612"
    },
    {
      "channel": 1,
      "note": 49,
      "start": 49.219,
      "duration": 0.0702,
      "velocity": 108,
      "chip": "ym2612"
    },
    {
      "channel": 2,
      "note": 75,
      "start": 49.2333,
      "duration": 0.0735,
      "velocity": 127,
      "chip": "ym2612"
    },
    {
      "channel": 1,
      "note": 51,
      "start": 49.3237,
      "duration": 0.069,
      "velocity": 108,
      "chip": "ym2612"
    },
    {
      "channel": 2,
      "note": 71,
      "start": 49.3379,
      "duration": 0.0719,
      "velocity": 121,
      "chip": "ym2612"
    },
    {
      "channel": 1,
      "note": 55,
      "start": 49.4282,
      "duration": 0.0673,
      "velocity": 108,
      "chip": "ym2612"
    },
    {
      "channel": 2,
      "note": 64,
      "start": 49.4314,
      "duration": 0.1675,
      "velocity": 121,
      "chip": "ym2612"
    },
    {
      "channel": 1,
      "note": 58,
      "start": 49.531,
      "duration": 0.0673,
      "velocity": 108,
      "chip": "ym2612"
    },
    {
      "channel": 0,
      "note": 75,
      "start": 49.634,
      "duration": 0.3102,
      "velocity": 107,
      "chip": "ym2612"
    },
    {
      "channel": 1,
      "note": 44,
      "start": 49.6478,
      "duration": 0.1422,
      "velocity": 112,
      "chip": "ym2612"
    },
    {
      "channel": 2,
      "note": 75,
      "start": 49.6628,
      "duration": 0.1615,
      "velocity": 127,
      "chip": "ym2612"
    },
    {
      "channel": 3,
      "note": 75,
      "start": 49.6656,
      "duration": 0.2792,
      "velocity": 107,
      "chip": "ym2612"
    },
    {
      "channel": 1,
      "note": 43,
      "start": 49.8588,
      "duration": 0.1368,
      "velocity": 112,
      "chip": "ym2612"
    },
    {
      "channel": 2,
      "note": 75,
      "start": 49.862,
      "duration": 0.1679,
      "velocity": 127,
      "chip": "ym2612"
    },
    {
      "channel": 1,
      "note": 44,
      "start": 50.0644,
      "duration": 0.2977,
      "velocity": 112,
      "chip": "ym2612"
    },
    {
      "channel": 2,
      "note": 75,
      "start": 50.0677,
      "duration": 0.1681,
      "velocity": 127,
      "chip": "ym2612"
    },
    {
      "channel": 0,
      "note": 75,
      "start": 50.2709,
      "duration": 0.2968,
      "velocity": 107,
      "chip": "ym2612"
    },
    {
      "channel": 2,
      "note": 64,
      "start": 50.2853,
      "duration": 0.0773,
      "velocity": 121,
      "chip": "ym2612"
    },
    {
      "channel": 3,
      "note": 75,
      "start": 50.2902,
      "duration": 0.2782,
      "velocity": 107,
      "chip": "ym2612"
    },
    {
      "channel": 2,
      "note": 71,
      "start": 50.381,
      "duration": 0.084,
      "velocity": 121,
      "chip": "ym2612"
    },
    {
      "channel": 2,
      "note": 71,
      "start": 50.5868,
      "duration": 0.084,
      "velocity": 121,
      "chip": "ym2612"
    },
    {
      "channel": 1,
      "note": 44,
      "start": 50.6891,
      "duration": 0.1359,
      "velocity": 112,
      "chip": "ym2612"
    },
    {
      "channel": 2,
      "note": 64,
      "start": 50.7925,
      "duration": 0.084,
      "velocity": 121,
      "chip": "ym2612"
    },
    {
      "channel": 0,
      "note": 75,
      "start": 50.8949,
      "duration": 0.2902,
      "velocity": 107,
      "chip": "ym2612"
    },
    {
      "channel": 2,
      "note": 68,
      "start": 50.8986,
      "duration": 0.1666,
      "velocity": 121,
      "chip": "ym2612"
    },
    {
      "channel": 3,
      "note": 75,
      "start": 50.9015,
      "duration": 0.2847,
      "velocity": 107,
      "chip": "ym2612"
    },
    {
      "channel": 1,
      "note": 44,
      "start": 51.1007,
      "duration": 0.2902,
      "velocity": 112,
      "chip": "ym2612"
    },
    {
      "channel": 2,
      "note": 64,
      "start": 51.1039,
      "duration": 0.0817,
      "velocity": 121,
      "chip": "ym2612"
    },
    {
      "channel": 2,
      "note": 64,
      "start": 51.2041,
      "duration": 0.084,
      "velocity": 121,
      "chip": "ym2612"
    },
    {
      "channel": 2,
      "note": 71,
      "start": 51.307,
      "duration": 0.0844,
      "velocity": 121,
      "chip": "ym2612"
    },
    {
      "channel": 2,
      "note": 64,
      "start": 51.4098,
      "duration": 0.1698,
      "velocity": 121,
      "chip": "ym2612"
    },
    {
      "channel": 0,
      "note": 75,
      "start": 51.5122,
      "duration": 0.293,
      "velocity": 107,
      "chip": "ym2612"
    },
    {
      "channel": 1,
      "note": 43,
      "start": 51.515,
      "duration": 0.1331,
      "velocity": 112,
      "chip": "ym2612"
    },
    {
      "channel": 3,
      "note": 75,
      "start": 51.5179,
      "duration": 0.288,
      "velocity": 107,
      "chip": "ym2612"
    },
    {
      "channel": 2,
      "note": 64,
      "start": 51.6156,
      "duration": 0.084,
      "velocity": 121,
      "chip": "ym2612"
    },
    {
      "channel": 1,
      "note": 44,
      "start": 51.718,
      "duration": 0.1387,
      "velocity": 112,
      "chip": "ym2612"
    },
    {
      "channel": 2,
      "note": 75,
      "start": 51.7323,
      "duration": 0.1587,
      "velocity": 127,
      "chip": "ym2612"
    },
    {
      "channel": 1,
      "note": 51,
      "start": 51.9366,
      "duration": 0.069,
      "velocity": 108,
      "chip": "ym2612"
    },
    {
      "channel": 2,
      "note": 64,
      "start": 51.9509,
      "duration": 0.1581,
      "velocity": 121,
      "chip": "ym2612"
    },
    {
      "channel": 1,
      "note": 55,
      "start": 52.0411,
      "duration": 0.0673,
      "velocity": 108,
      "chip": "ym2612"
    },
    {
      "channel": 0,
      "note": 75,
      "start": 52.1447,
      "duration": 0.2894,
      "velocity": 107,
      "chip": "ym2612"
    },
    {
      "channel": 1,
      "note": 56,
      "start": 52.1475,
      "duration": 0.0638,
      "velocity": 108,
      "chip": "ym2612"
    },
    {
      "channel": 2,
      "note": 71,
      "start": 52.1507,
      "duration": 0.164,
      "velocity": 121,
      "chip": "ym2612"
    },
    {
      "channel": 3,
      "note": 75,
      "start": 52.1557,
      "duration": 0.2796,
      "velocity": 107,
      "chip": "ym2612"
    },
    {
      "channel": 1,
      "note": 52,
      "start": 52.2469,
      "duration": 0.0674,
      "velocity": 108,
      "chip": "ym2612"
    },
    {
      "channel": 1,
      "note": 51,
      "start": 52.3498,
      "duration": 0.0674,
      "velocity": 108,
      "chip": "ym2612"
    },
    {
      "channel": 2,
      "note": 64,
      "start": 52.353,
      "duration": 0.0817,
      "velocity": 121,
      "chip": "ym2612"
    },
    {
      "channel": 1,
      "note": 49,
      "start": 52.4527,
      "duration": 0.0673,
      "velocity": 108,
      "chip": "ym2612"
    },
    {
      "channel": 2,
      "note": 64,
      "start": 52.4559,
      "duration": 0.0813,
      "velocity": 121,
      "chip": "ym2612"
    },
    {
      "channel": 1,
      "note": 47,
      "start": 52.5555,
      "duration": 0.0673,
      "velocity": 108,
      "chip": "ym2612"
    },
    {
      "channel": 2,
      "note": 68,
      "start": 52.5588,
      "duration": 0.0813,
      "velocity": 121,
      "chip": "ym2612"
    },
    {
      "channel": 1,
      "note": 49,
      "start": 52.6584,
      "duration": 0.0673,
      "velocity": 108,
      "chip": "ym2612"
    },
    {
      "channel": 2,
      "note": 71,
      "start": 52.6616,
      "duration": 0.0813,
      "velocity": 121,
      "chip": "ym2612"
    },
    {
      "channel": 0,
      "note": 75,
      "start": 52.7613,
      "duration": 0.3047,
      "velocity": 107,
      "chip": "ym2612"
    },
    {
      "channel": 1,
      "note": 44,
      "start": 52.764,
      "duration": 0.0646,
      "velocity": 108,
      "chip": "ym2612"
    },
    {
      "channel": 2,
      "note": 64,
      "start": 52.7673,
      "duration": 0.0784,
      "velocity": 121,
      "chip": "ym2612"
    },
    {
      "channel": 3,
      "note": 75,
      "start": 52.7702,
      "duration": 0.2966,
      "velocity": 107,
      "chip": "ym2612"
    },
    {
      "channel": 1,
      "note": 46,
      "start": 52.8642,
      "duration": 0.0673,
      "velocity": 108,
      "chip": "ym2612"
    },
    {
      "channel": 1,
      "note": 44,
      "start": 52.978,
      "duration": 0.1395,
      "velocity": 112,
      "chip": "ym2612"
    },
    {
      "channel": 2,
      "note": 75,
      "start": 52.9931,
      "duration": 0.1588,
      "velocity": 127,
      "chip": "ym2612"
    },
    {
      "channel": 1,
      "note": 43,
      "start": 53.1864,
      "duration": 0.1369,
      "velocity": 112,
      "chip": "ym2612"
    },
    {
      "channel": 2,
      "note": 75,
      "start": 53.1897,
      "duration": 0.168,
      "velocity": 127,
      "chip": "ym2612"
    },
    {
      "channel": 0,
      "note": 75,
      "start": 53.3922,
      "duration": 0.2901,
      "velocity": 107,
      "chip": "ym2612"
    },
    {
      "channel": 1,
      "note": 44,
      "start": 53.395,
      "duration": 0.2878,
      "velocity": 112,
      "chip": "ym2612"
    },
    {
      "channel": 2,
      "note": 75,
      "start": 53.3982,
      "duration": 0.1653,
      "velocity": 127,
      "chip": "ym2612"
    },
    {
      "channel": 3,
      "note": 75,
      "start": 53.4011,
      "duration": 0.2828,
      "velocity": 107,
      "chip": "ym2612"
    },
    {
      "channel": 2,
      "note": 64,
      "start": 53.6095,
      "duration": 0.0739,
      "velocity": 121,
      "chip": "ym2612"
    },
    {
      "channel": 2,
      "note": 71,
      "start": 53.7013,
      "duration": 0.084,
      "velocity": 121,
      "chip": "ym2612"
    },
    {
      "channel": 2,
      "note": 71,
      "start": 53.907,
      "duration": 0.084,
      "velocity": 121,
      "chip": "ym2612"
    },
    {
      "channel": 0,
      "note": 75,
      "start": 54.0101,
      "duration": 0.2894,
      "velocity": 107,
      "chip": "ym2612"
    },
    {
      "channel": 1,
      "note": 44,
      "start": 54.0128,
      "duration": 0.1324,
      "velocity": 112,
      "chip": "ym2612"
    },
    {
      "channel": 3,
      "note": 75,
      "start": 54.0183,
      "duration": 0.282,
      "velocity": 107,
      "chip": "ym2612"
    },
    {
      "channel": 2,
      "note": 64,
      "start": 54.1128,
      "duration": 0.084,
      "velocity": 121,
      "chip": "ym2612"
    },
    {
      "channel": 2,
      "note": 68,
      "start": 54.2161,
      "duration": 0.1693,
      "velocity": 121,
      "chip": "ym2612"
    },
    {
      "channel": 1,
      "note": 44,
      "start": 54.4209,
      "duration": 0.2903,
      "velocity": 112,
      "chip": "ym2612"
    },
    {
      "channel": 2,
      "note": 64,
      "start": 54.4242,
      "duration": 0.0814,
      "velocity": 121,
      "chip": "ym2612"
    },
    {
      "channel": 2,
      "note": 64,
      "start": 54.5244,
      "duration": 0.084,
      "velocity": 121,
      "chip": "ym2612"
    },
    {
      "channel": 0,
      "note": 75,
      "start": 54.6267,
      "duration": 0.2901,
      "velocity": 107,
      "chip": "ym2612"
    },
    {
      "channel": 2,
      "note": 71,
      "start": 54.6301,
      "duration": 0.0816,
      "velocity": 121,
      "chip": "ym2612"
    },
    {
      "channel": 3,
      "note": 75,
      "start": 54.6329,
      "duration": 0.2847,
      "velocity": 107,
      "chip": "ym2612"
    },
    {
      "channel": 2,
      "note": 64,
      "start": 54.7301,
      "duration": 0.1697,
      "velocity": 121,
      "chip": "ym2612"
    },
    {
      "channel": 1,
      "note": 43,
      "start": 54.8325,
      "duration": 0.1359,
      "velocity": 112,
      "chip": "ym2612"
    },
    {
      "channel": 2,
      "note": 64,
      "start": 54.9359,
      "duration": 0.084,
      "velocity": 121,
      "chip": "ym2612"
    },
    {
      "channel": 1,
      "note": 44,
      "start": 55.0382,
      "duration": 0.1386,
      "velocity": 112,
      "chip": "ym2612"
    },
    {
      "channel": 2,
      "note": 75,
      "start": 55.0525,
      "duration": 0.1587,
      "velocity": 127,
      "chip": "ym2612"
    },
    {
      "channel": 0,
      "note": 75,
      "start": 55.2457,
      "duration": 0.3085,
      "velocity": 107,
      "chip": "ym2612"
    },
    {
      "channel": 1,
      "note": 68,
      "start": 55.2595,
      "duration": 0.2433,
      "velocity": 108,
      "chip": "ym2612"
    },
    {
      "channel": 2,
      "note": 64,
      "start": 55.2738,
      "duration": 0.1605,
      "velocity": 121,
      "chip": "ym2612"
    },
    {
      "channel": 3,
      "note": 75,
      "start": 55.2766,
      "duration": 0.2783,
      "velocity": 107,
      "chip": "ym2612"
    },
    {
      "channel": 2,
      "note": 71,
      "start": 55.4703,
      "duration": 0.1712,
      "velocity": 121,
      "chip": "ym2612"
    },
    {
      "channel": 2,
      "note": 64,
      "start": 55.6775,
      "duration": 0.0825,
      "velocity": 121,
      "chip": "ym2612"
    },
    {
      "channel": 2,
      "note": 64,
      "start": 55.7804,
      "duration": 0.0825,
      "velocity": 121,
      "chip": "ym2612"
    },
    {
      "channel": 0,
      "note": 75,
      "start": 55.8846,
      "duration": 0.2893,
      "velocity": 107,
      "chip": "ym2612"
    },
    {
      "channel": 2,
      "note": 68,
      "start": 55.8893,
      "duration": 0.0775,
      "velocity": 121,
      "chip": "ym2612"
    },
    {
      "channel": 3,
      "note": 75,
      "start": 55.8949,
      "duration": 0.2801,
      "velocity": 107,
      "chip": "ym2612"
    },
    {
      "channel": 2,
      "note": 71,
      "start": 55.9871,
      "duration": 0.0826,
      "velocity": 121,
      "chip": "ym2612"
    },
    {
      "channel": 2,
      "note": 64,
      "start": 56.09,
      "duration": 0.0845,
      "velocity": 121,
      "chip": "ym2612"
    },
    {
      "channel": 1,
      "note": 44,
      "start": 56.3048,
      "duration": 0.1393,
      "velocity": 112,
      "chip": "ym2612"
    },
    {
      "channel": 2,
      "note": 75,
      "start": 56.3199,
      "duration": 0.1586,
      "velocity": 127,
      "chip": "ym2612"
    },
    {
      "channel": 0,
      "note": 75,
      "start": 56.513,
      "duration": 0.2912,
      "velocity": 107,
      "chip": "ym2612"
    },
    {
      "channel": 1,
      "note": 43,
      "start": 56.5158,
      "duration": 0.1342,
      "velocity": 112,
      "chip": "ym2612"
    },
    {
      "channel": 2,
      "note": 75,
      "start": 56.5191,
      "duration": 0.1652,
      "velocity": 127,
      "chip": "ym2612"
    },
    {
      "channel": 3,
      "note": 75,
      "start": 56.5219,
      "duration": 0.283,
      "velocity": 107,
      "chip": "ym2612"
    },
    {
      "channel": 1,
      "note": 44,
      "start": 56.7188,
      "duration": 0.2901,
      "velocity": 112,
      "chip": "ym2612"
    },
    {
      "channel": 2,
      "note": 75,
      "start": 56.7221,
      "duration": 0.168,
      "velocity": 127,
      "chip": "ym2612"
    },
    {
      "channel": 2,
      "note": 64,
      "start": 56.9361,
      "duration": 0.0733,
      "velocity": 121,
      "chip": "ym2612"
    },
    {
      "channel": 2,
      "note": 71,
      "start": 57.0279,
      "duration": 0.084,
      "velocity": 121,
      "chip": "ym2612"
    },
    {
      "channel": 0,
      "note": 75,
      "start": 57.1303,
      "duration": 0.2901,
      "velocity": 107,
      "chip": "ym2612"
    },
    {
      "channel": 3,
      "note": 75,
      "start": 57.1341,
      "duration": 0.2869,
      "velocity": 107,
      "chip": "ym2612"
    },
    {
      "channel": 2,
      "note": 71,
      "start": 57.2337,
      "duration": 0.084,
      "velocity": 121,
      "chip": "ym2612"
    },
    {
      "channel": 1,
      "note": 44,
      "start": 57.336,
      "duration": 0.1359,
      "velocity": 112,
      "chip": "ym2612"
    },
    {
      "channel": 2,
      "note": 64,
      "start": 57.4394,
      "duration": 0.084,
      "velocity": 121,
      "chip": "ym2612"
    },
    {
      "channel": 2,
      "note": 68,
      "start": 57.5427,
      "duration": 0.1693,
      "velocity": 121,
      "chip": "ym2612"
    },
    {
      "channel": 0,
      "note": 75,
      "start": 57.7481,
      "duration": 0.2894,
      "velocity": 107,
      "chip": "ym2612"
    },
    {
      "channel": 1,
      "note": 44,
      "start": 57.751,
      "duration": 0.2871,
      "velocity": 112,
      "chip": "ym2612"
    },
    {
      "channel": 2,
      "note": 64,
      "start": 57.7542,
      "duration": 0.0778,
      "velocity": 121,
      "chip": "ym2612"
    },
    {
      "channel": 3,
      "note": 75,
      "start": 57.7591,
      "duration": 0.28,
      "velocity": 107,
      "chip": "ym2612"
    },
    {
      "channel": 2,
      "note": 64,
      "start": 57.851,
      "duration": 0.084,
      "velocity": 121,
      "chip": "ym2612"
    },
    {
      "channel": 2,
      "note": 71,
      "start": 57.9537,
      "duration": 0.0849,
      "velocity": 121,
      "chip": "ym2612"
    },
    {
      "channel": 2,
      "note": 64,
      "start": 58.0566,
      "duration": 0.1697,
      "velocity": 121,
      "chip": "ym2612"
    },
    {
      "channel": 1,
      "note": 43,
      "start": 58.159,
      "duration": 0.1359,
      "velocity": 112,
      "chip": "ym2612"
    },
    {
      "channel": 2,
      "note": 64,
      "start": 58.2623,
      "duration": 0.084,
      "velocity": 121,
      "chip": "ym2612"
    },
    {
      "channel": 0,
      "note": 75,
      "start": 58.3647,
      "duration": 0.2991,
      "velocity": 107,
      "chip": "ym2612"
    },
    {
      "channel": 1,
      "note": 44,
      "start": 58.3676,
      "duration": 0.1414,
      "velocity": 112,
      "chip": "ym2612"
    },
    {
      "channel": 2,
      "note": 75,
      "start": 58.3818,
      "duration": 0.1615,
      "velocity": 127,
      "chip": "ym2612"
    },
    {
      "channel": 3,
      "note": 75,
      "start": 58.3846,
      "duration": 0.2803,
      "velocity": 107,
      "chip": "ym2612"
    },
    {
      "channel": 1,
      "note": 44,
      "start": 58.5777,
      "duration": 0.0866,
      "velocity": 112,
      "chip": "ym2612"
    },
    {
      "channel": 2,
      "note": 64,
      "start": 58.592,
      "duration": 0.1581,
      "velocity": 121,
      "chip": "ym2612"
    },
    {
      "channel": 1,
      "note": 51,
      "start": 58.7276,
      "duration": 0.022,
      "velocity": 108,
      "chip": "ym2612"
    },
    {
      "channel": 1,
      "note": 56,
      "start": 58.7852,
      "duration": 0.033,
      "velocity": 108,
      "chip": "ym2612"
    },
    {
      "channel": 2,
      "note": 71,
      "start": 58.7885,
      "duration": 0.1674,
      "velocity": 121,
      "chip": "ym2612"
    },
    {
      "channel": 1,
      "note": 51,
      "start": 58.8538,
      "duration": 0.033,
      "velocity": 108,
      "chip": "ym2612"
    },
    {
      "channel": 1,
      "note": 49,
      "start": 58.9224,
      "duration": 0.033,
      "velocity": 108,
      "chip": "ym2612"
    },
    {
      "channel": 0,
      "note": 75,
      "start": 58.991,
      "duration": 0.2902,
      "velocity": 107,
      "chip": "ym2612"
    },
    {
      "channel": 1,
      "note": 47,
      "start": 58.9938,
      "duration": 0.1331,
      "velocity": 108,
      "chip": "ym2612"
    },
    {
      "channel": 2,
      "note": 64,
      "start": 58.997,
      "duration": 0.0785,
      "velocity": 121,
      "chip": "ym2612"
    },
    {
      "channel": 3,
      "note": 75,
      "start": 58.9998,
      "duration": 0.2824,
      "velocity": 107,
      "chip": "ym2612"
    },
    {
      "channel": 2,
      "note": 64,
      "start": 59.0944,
      "duration": 0.084,
      "velocity": 121,
      "chip": "ym2612"
    },
    {
      "channel": 1,
      "note": 51,
      "start": 59.1967,
      "duration": 0.033,
      "velocity": 108,
      "chip": "ym2612"
    },
    {
      "channel": 2,
      "note": 68,
      "start": 59.2,
      "duration": 0.0817,
      "velocity": 121,
      "chip": "ym2612"
    },
    {
      "channel": 1,
      "note": 49,
      "start": 59.2653,
      "duration": 0.0362,
      "velocity": 108,
      "chip": "ym2612"
    },
    {
      "channel": 2,
      "note": 71,
      "start": 59.3002,
      "duration": 0.0839,
      "velocity": 121,
      "chip": "ym2612"
    },
    {
      "channel": 1,
      "note": 47,
      "start": 59.334,
      "duration": 0.033,
      "velocity": 108,
      "chip": "ym2612"
    },
    {
      "channel": 1,
      "note": 46,
      "start": 59.4025,
      "duration": 0.1359,
      "velocity": 108,
      "chip": "ym2612"
    },
    {
      "channel": 2,
      "note": 64,
      "start": 59.4057,
      "duration": 0.0814,
      "velocity": 121,
      "chip": "ym2612"
    },
    {
      "channel": 0,
      "note": 75,
      "start": 59.609,
      "duration": 0.3124,
      "velocity": 107,
      "chip": "ym2612"
    },
    {
      "channel": 1,
      "note": 44,
      "start": 59.6228,
      "duration": 0.1444,
      "velocity": 112,
      "chip": "ym2612"
    },
    {
      "channel": 2,
      "note": 75,
      "start": 59.6379,
      "duration": 0.1637,
      "velocity": 127,
      "chip": "ym2612"
    },
    {
      "channel": 3,
      "note": 75,
      "start": 59.6429,
      "duration": 0.2792,
      "velocity": 107,
      "chip": "ym2612"
    },
    {
      "channel": 1,
      "note": 43,
      "start": 59.836,
      "duration": 0.1368,
      "velocity": 112,
      "chip": "ym2612"
    },
    {
      "channel": 2,
      "note": 75,
      "start": 59.8393,
      "duration": 0.1679,
      "velocity": 127,
      "chip": "ym2612"
    },
    {
      "channel": 1,
      "note": 44,
      "start": 60.0417,
      "duration": 0.2948,
      "velocity": 112,
      "chip": "ym2612"
    },
    {
      "channel": 2,
      "note": 75,
      "start": 60.045,
      "duration": 0.168,
      "velocity": 127,
      "chip": "ym2612"
    },
    {
      "channel": 0,
      "note": 75,
      "start": 60.2474,
      "duration": 0.2947,
      "velocity": 107,
      "chip": "ym2612"
    },
    {
      "channel": 2,
      "note": 64,
      "start": 60.2617,
      "duration": 0.0752,
      "velocity": 121,
      "chip": "ym2612"
    },
    {
      "channel": 3,
      "note": 75,
      "start": 60.2646,
      "duration": 0.2782,
      "velocity": 107,
      "chip": "ym2612"
    },
    {
      "channel": 2,
      "note": 71,
      "start": 60.3553,
      "duration": 0.084,
      "velocity": 121,
      "chip": "ym2612"
    },
    {
      "channel": 2,
      "note": 71,
      "start": 60.5611,
      "duration": 0.084,
      "velocity": 121,
      "chip": "ym2612"
    },
    {
      "channel": 1,
      "note": 44,
      "start": 60.6634,
      "duration": 0.1359,
      "velocity": 112,
      "chip": "ym2612"
    },
    {
      "channel": 2,
      "note": 64,
      "start": 60.7668,
      "duration": 0.084,
      "velocity": 121,
      "chip": "ym2612"
    },
    {
      "channel": 0,
      "note": 75,
      "start": 60.8693,
      "duration": 0.2901,
      "velocity": 107,
      "chip": "ym2612"
    },
    {
      "channel": 2,
      "note": 68,
      "start": 60.8729,
      "duration": 0.1666,
      "velocity": 121,
      "chip": "ym2612"
    },
    {
      "channel": 3,
      "note": 75,
      "start": 60.8758,
      "duration": 0.2847,
      "velocity": 107,
      "chip": "ym2612"
    },
    {
      "channel": 1,
      "note": 44,
      "start": 61.075,
      "duration": 0.2902,
      "velocity": 112,
      "chip": "ym2612"
    },
    {
      "channel": 2,
      "note": 64,
      "start": 61.0782,
      "duration": 0.0817,
      "velocity": 121,
      "chip": "ym2612"
    },
    {
      "channel": 2,
      "note": 64,
      "start": 61.1784,
      "duration": 0.084,
      "velocity": 121,
      "chip": "ym2612"
    },
    {
      "channel": 2,
      "note": 71,
      "start": 61.2813,
      "duration": 0.0844,
      "velocity": 121,
      "chip": "ym2612"
    },
    {
      "channel": 2,
      "note": 64,
      "start": 61.3842,
      "duration": 0.1698,
      "velocity": 121,
      "chip": "ym2612"
    },
    {
      "channel": 0,
      "note": 75,
      "start": 61.4873,
      "duration": 0.2922,
      "velocity": 107,
      "chip": "ym2612"
    },
    {
      "channel": 1,
      "note": 43,
      "start": 61.4901,
      "duration": 0.1324,
      "velocity": 112,
      "chip": "ym2612"
    },
    {
      "channel": 3,
      "note": 75,
      "start": 61.495,
      "duration": 0.2852,
      "velocity": 107,
      "chip": "ym2612"
    },
    {
      "channel": 2,
      "note": 64,
      "start": 61.59,
      "duration": 0.084,
      "velocity": 121,
      "chip": "ym2612"
    },
    {
      "channel": 1,
      "note": 44,
      "start": 61.6923,
      "duration": 0.1387,
      "velocity": 112,
      "chip": "ym2612"
    },
    {
      "channel": 2,
      "note": 75,
      "start": 61.7067,
      "duration": 0.1587,
      "velocity": 127,
      "chip": "ym2612"
    },
    {
      "channel": 2,
      "note": 64,
      "start": 61.9118,
      "duration": 0.1587,
      "velocity": 121,
      "chip": "ym2612"
    },
    {
      "channel": 1,
      "note": 51,
      "start": 62.0027,
      "duration": 0.0674,
      "velocity": 112,
      "chip": "ym2612"
    },
    {
      "channel": 0,
      "note": 75,
      "start": 62.1056,
      "duration": 0.2974,
      "velocity": 107,
      "chip": "ym2612"
    },
    {
      "channel": 1,
      "note": 67,
      "start": 62.1194,
      "duration": 0.1293,
      "velocity": 108,
      "chip": "ym2612"
    },
    {
      "channel": 2,
      "note": 71,
      "start": 62.1226,
      "duration": 0.1604,
      "velocity": 121,
      "chip": "ym2612"
    },
    {
      "channel": 3,
      "note": 75,
      "start": 62.1254,
      "duration": 0.2786,
      "velocity": 107,
      "chip": "ym2612"
    },
    {
      "channel": 1,
      "note": 67,
      "start": 62.3186,
      "duration": 0.1358,
      "velocity": 108,
      "chip": "ym2612"
    },
    {
      "channel": 2,
      "note": 64,
      "start": 62.3218,
      "duration": 0.0817,
      "velocity": 121,
      "chip": "ym2612"
    },
    {
      "channel": 2,
      "note": 64,
      "start": 62.422,
      "duration": 0.0839,
      "velocity": 121,
      "chip": "ym2612"
    },
    {
      "channel": 1,
      "note": 67,
      "start": 62.5243,
      "duration": 0.1359,
      "velocity": 108,
      "chip": "ym2612"
    },
    {
      "channel": 2,
      "note": 68,
      "start": 62.5275,
      "duration": 0.0813,
      "velocity": 121,
      "chip": "ym2612"
    },
    {
      "channel": 2,
      "note": 71,
      "start": 62.6277,
      "duration": 0.084,
      "velocity": 121,
      "chip": "ym2612"
    },
    {
      "channel": 0,
      "note": 75,
      "start": 62.7301,
      "duration": 0.2902,
      "velocity": 107,
      "chip": "ym2612"
    },
    {
      "channel": 1,
      "note": 67,
      "start": 62.7328,
      "duration": 0.1332,
      "velocity": 108,
      "chip": "ym2612"
    },
    {
      "channel": 2,
      "note": 64,
      "start": 62.7361,
      "duration": 0.0785,
      "velocity": 121,
      "chip": "ym2612"
    },
    {
      "channel": 3,
      "note": 75,
      "start": 62.7389,
      "duration": 0.2821,
      "velocity": 107,
      "chip": "ym2612"
    },
    {
      "channel": 1,
      "note": 39,
      "start": 62.9359,
      "duration": 0.1359,
      "velocity": 108,
      "chip": "ym2612"
    },
    {
      "channel": 2,
      "note": 64,
      "start": 62.9402,
      "duration": 0.1659,
      "velocity": 121,
      "chip": "ym2612"
    },
    {
      "channel": 1,
      "note": 44,
      "start": 63.1417,
      "duration": 0.1358,
      "velocity": 108,
      "chip": "ym2612"
    },
    {
      "channel": 2,
      "note": 71,
      "start": 63.1448,
      "duration": 0.167,
      "velocity": 121,
      "chip": "ym2612"
    },
    {
      "channel": 0,
      "note": 75,
      "start": 63.3481,
      "duration": 0.3013,
      "velocity": 107,
      "chip": "ym2612"
    },
    {
      "channel": 1,
      "note": 47,
      "start": 63.351,
      "duration": 0.1435,
      "velocity": 108,
      "chip": "ym2612"
    },
    {
      "channel": 2,
      "note": 75,
      "start": 63.3652,
      "duration": 0.1636,
      "velocity": 127,
      "chip": "ym2612"
    },
    {
      "channel": 3,
      "note": 75,
      "start": 63.3702,
      "duration": 0.2804,
      "velocity": 107,
      "chip": "ym2612"
    },
    {
      "channel": 1,
      "note": 44,
      "start": 63.5632,
      "duration": 0.1377,
      "velocity": 108,
      "chip": "ym2612"
    },
    {
      "channel": 2,
      "note": 64,
      "start": 63.5775,
      "duration": 0.0725,
      "velocity": 121,
      "chip": "ym2612"
    },
    {
      "channel": 2,
      "note": 71,
      "start": 63.6684,
      "duration": 0.084,
      "velocity": 121,
      "chip": "ym2612"
    },
    {
      "channel": 1,
      "note": 49,
      "start": 63.7707,
      "duration": 0.1359,
      "velocity": 108,
      "chip": "ym2612"
    },
    {
      "channel": 2,
      "note": 71,
      "start": 63.8742,
      "duration": 0.084,
      "velocity": 121,
      "chip": "ym2612"
    },
    {
      "channel": 0,
      "note": 75,
      "start": 63.9765,
      "duration": 0.293,
      "velocity": 107,
      "chip": "ym2612"
    },
    {
      "channel": 1,
      "note": 44,
      "start": 63.9793,
      "duration": 0.1332,
      "velocity": 108,
      "chip": "ym2612"
    },
    {
      "channel": 3,
      "note": 75,
      "start": 63.9826,
      "duration": 0.2877,
      "velocity": 107,
      "chip": "ym2612"
    },
    {
      "channel": 2,
      "note": 64,
      "start": 64.0799,
      "duration": 0.084,
      "velocity": 121,
      "chip": "ym2612"
    },
    {
      "channel": 1,
      "note": 51,
      "start": 64.1822,
      "duration": 0.1387,
      "velocity": 108,
      "chip": "ym2612"
    },
    {
      "channel": 2,
      "note": 75,
      "start": 64.1966,
      "duration": 0.1588,
      "velocity": 127,
      "chip": "ym2612"
    },
    {
      "channel": 1,
      "note": 44,
      "start": 64.3898,
      "duration": 0.1375,
      "velocity": 108,
      "chip": "ym2612"
    },
    {
      "channel": 2,
      "note": 64,
      "start": 64.4041,
      "duration": 0.072,
      "velocity": 121,
      "chip": "ym2612"
    },
    {
      "channel": 2,
      "note": 64,
      "start": 64.4949,
      "duration": 0.0839,
      "velocity": 121,
      "chip": "ym2612"
    },
    {
      "channel": 0,
      "note": 75,
      "start": 64.5972,
      "duration": 0.2902,
      "velocity": 107,
      "chip": "ym2612"
    },
    {
      "channel": 1,
      "note": 51,
      "start": 64.6,
      "duration": 0.0646,
      "velocity": 108,
      "chip": "ym2612"
    },
    {
      "channel": 2,
      "note": 71,
      "start": 64.6032,
      "duration": 0.0785,
      "velocity": 121,
      "chip": "ym2612"
    },
    {
      "channel": 3,
      "note": 75,
      "start": 64.606,
      "duration": 0.2821,
      "velocity": 107,
      "chip": "ym2612"
    },
    {
      "channel": 1,
      "note": 52,
      "start": 64.7001,
      "duration": 0.0674,
      "velocity": 108,
      "chip": "ym2612"
    },
    {
      "channel": 2,
      "note": 64,
      "start": 64.7034,
      "duration": 0.1671,
      "velocity": 121,
      "chip": "ym2612"
    },
    {
      "channel": 1,
      "note": 51,
      "start": 64.803,
      "duration": 0.1359,
      "velocity": 108,
      "chip": "ym2612"
    },
    {
      "channel": 2,
      "note": 64,
      "start": 64.9065,
      "duration": 0.0839,
      "velocity": 121,
      "chip": "ym2612"
    },
    {
      "channel": 1,
      "note": 49,
      "start": 65.0088,
      "duration": 0.07,
      "velocity": 108,
      "chip": "ym2612"
    },
    {
      "channel": 2,
      "note": 75,
      "start": 65.0231,
      "duration": 0.1592,
      "velocity": 127,
      "chip": "ym2612"
    },
    {
      "channel": 1,
      "note": 51,
      "start": 65.1134,
      "duration": 0.0683,
      "velocity": 108,
      "chip": "ym2612"
    },
    {
      "channel": 0,
      "note": 75,
      "start": 65.217,
      "duration": 0.2994,
      "velocity": 107,
      "chip": "ym2612"
    },
    {
      "channel": 1,
      "note": 49,
      "start": 65.2198,
      "duration": 0.1424,
      "velocity": 108,
      "chip": "ym2612"
    },
    {
      "channel": 2,
      "note": 64,
      "start": 65.2341,
      "duration": 0.1625,
      "velocity": 121,
      "chip": "ym2612"
    },
    {
      "channel": 3,
      "note": 75,
      "start": 65.239,
      "duration": 0.2782,
      "velocity": 107,
      "chip": "ym2612"
    },
    {
      "channel": 1,
      "note": 47,
      "start": 65.432,
      "duration": 0.0674,
      "velocity": 108,
      "chip": "ym2612"
    },
    {
      "channel": 2,
      "note": 71,
      "start": 65.4354,
      "duration": 0.1674,
      "velocity": 121,
      "chip": "ym2612"
    },
    {
      "channel": 1,
      "note": 49,
      "start": 65.535,
      "duration": 0.0673,
      "velocity": 108,
      "chip": "ym2612"
    },
    {
      "channel": 1,
      "note": 47,
      "start": 65.6378,
      "duration": 0.1359,
      "velocity": 108,
      "chip": "ym2612"
    },
    {
      "channel": 2,
      "note": 64,
      "start": 65.6411,
      "duration": 0.0813,
      "velocity": 121,
      "chip": "ym2612"
    },
    {
      "channel": 2,
      "note": 64,
      "start": 65.7413,
      "duration": 0.084,
      "velocity": 121,
      "chip": "ym2612"
    },
    {
      "channel": 0,
      "note": 75,
      "start": 65.8436,
      "duration": 0.2992,
      "velocity": 107,
      "chip": "ym2612"
    },
    {
      "channel": 1,
      "note": 46,
      "start": 65.8464,
      "duration": 0.0729,
      "velocity": 108,
      "chip": "ym2612"
    },
    {
      "channel": 2,
      "note": 75,
      "start": 65.8607,
      "duration": 0.0758,
      "velocity": 127,
      "chip": "ym2612"
    },
    {
      "channel": 3,
      "note": 75,
      "start": 65.8635,
      "duration": 0.28,
      "velocity": 107,
      "chip": "ym2612"
    },
    {
      "channel": 1,
      "note": 47,
      "start": 65.9538,
      "duration": 0.0691,
      "velocity": 108,
      "chip": "ym2612"
    },
    {
      "channel": 2,
      "note": 71,
      "start": 65.9681,
      "duration": 0.072,
      "velocity": 121,
      "chip": "ym2612"
    },
    {
      "channel": 1,
      "note": 46,
      "start": 66.0584,
      "duration": 0.1359,
      "velocity": 108,
      "chip": "ym2612"
    },
    {
      "channel": 2,
      "note": 64,
      "start": 66.0616,
      "duration": 0.167,
      "velocity": 121,
      "chip": "ym2612"
    },
    {
      "channel": 1,
      "note": 47,
      "start": 66.2641,
      "duration": 0.0673,
      "velocity": 108,
      "chip": "ym2612"
    },
    {
      "channel": 2,
      "note": 64,
      "start": 66.2685,
      "duration": 0.1663,
      "velocity": 121,
      "chip": "ym2612"
    },
    {
      "channel": 1,
      "note": 46,
      "start": 66.367,
      "duration": 0.0673,
      "velocity": 108,
      "chip": "ym2612"
    },
    {
      "channel": 0,
      "note": 75,
      "start": 66.47,
      "duration": 0.2929,
      "velocity": 107,
      "chip": "ym2612"
    },
    {
      "channel": 1,
      "note": 44,
      "start": 66.4727,
      "duration": 0.1332,
      "velocity": 108,
      "chip": "ym2612"
    },
    {
      "channel": 2,
      "note": 71,
      "start": 66.4759,
      "duration": 0.1642,
      "velocity": 121,
      "chip": "ym2612"
    },
    {
      "channel": 3,
      "note": 75,
      "start": 66.4788,
      "duration": 0.2849,
      "velocity": 107,
      "chip": "ym2612"
    },
    {
      "channel": 1,
      "note": 43,
      "start": 66.6757,
      "duration": 0.1387,
      "velocity": 108,
      "chip": "ym2612"
    },
    {
      "channel": 2,
      "note": 75,
      "start": 66.69,
      "duration": 0.1587,
      "velocity": 127,
      "chip": "ym2612"
    },
    {
      "channel": 1,
      "note": 44,
      "start": 66.8832,
      "duration": 0.1377,
      "velocity": 108,
      "chip": "ym2612"
    },
    {
      "channel": 2,
      "note": 64,
      "start": 66.8975,
      "duration": 0.072,
      "velocity": 121,
      "chip": "ym2612"
    },
    {
      "channel": 2,
      "note": 71,
      "start": 66.9884,
      "duration": 0.0839,
      "velocity": 121,
      "chip": "ym2612"
    },
    {
      "channel": 0,
      "note": 75,
      "start": 67.0939,
      "duration": 0.2869,
      "velocity": 107,
      "chip": "ym2612"
    },
    {
      "channel": 1,
      "note": 46,
      "start": 67.0967,
      "duration": 0.13,
      "velocity": 108,
      "chip": "ym2612"
    },
    {
      "channel": 3,
      "note": 75,
      "start": 67.1029,
      "duration": 0.2787,
      "velocity": 107,
      "chip": "ym2612"
    },
    {
      "channel": 2,
      "note": 71,
      "start": 67.1941,
      "duration": 0.084,
      "velocity": 121,
      "chip": "ym2612"
    },
    {
      "channel": 1,
      "note": 39,
      "start": 67.2965,
      "duration": 0.1358,
      "velocity": 108,
      "chip": "ym2612"
    },
    {
      "channel": 2,
      "note": 64,
      "start": 67.3998,
      "duration": 0.0841,
      "velocity": 121,
      "chip": "ym2612"
    },
    {
      "channel": 1,
      "note": 43,
      "start": 67.5022,
      "duration": 0.1386,
      "velocity": 108,
      "chip": "ym2612"
    },
    {
      "channel": 2,
      "note": 75,
      "start": 67.5165,
      "duration": 0.1586,
      "velocity": 127,
      "chip": "ym2612"
    },
    {
      "channel": 0,
      "note": 75,
      "start": 67.7097,
      "duration": 0.2975,
      "velocity": 107,
      "chip": "ym2612"
    },
    {
      "channel": 1,
      "note": 46,
      "start": 67.7124,
      "duration": 0.1405,
      "velocity": 108,
      "chip": "ym2612"
    },
    {
      "channel": 2,
      "note": 64,
      "start": 67.7268,
      "duration": 0.0747,
      "velocity": 121,
      "chip": "ym2612"
    },
    {
      "channel": 3,
      "note": 75,
      "start": 67.7296,
      "duration": 0.2787,
      "velocity": 107,
      "chip": "ym2612"
    },
    {
      "channel": 2,
      "note": 64,
      "start": 67.8204,
      "duration": 0.084,
      "velocity": 121,
      "chip": "ym2612"
    },
    {
      "channel": 1,
      "note": 51,
      "start": 67.9228,
      "duration": 0.033,
      "velocity": 108,
      "chip": "ym2612"
    },
    {
      "channel": 2,
      "note": 71,
      "start": 67.926,
      "duration": 0.0817,
      "velocity": 121,
      "chip": "ym2612"
    },
    {
      "channel": 1,
      "note": 52,
      "start": 67.9913,
      "duration": 0.0361,
      "velocity": 108,
      "chip": "ym2612"
    },
    {
      "channel": 2,
      "note": 64,
      "start": 68.0261,
      "duration": 0.1697,
      "velocity": 121,
      "chip": "ym2612"
    },
    {
      "channel": 1,
      "note": 51,
      "start": 68.0599,
      "duration": 0.0329,
      "velocity": 108,
      "chip": "ym2612"
    },
    {
      "channel": 1,
      "note": 49,
      "start": 68.1285,
      "duration": 0.1359,
      "velocity": 108,
      "chip": "ym2612"
    },
    {
      "channel": 2,
      "note": 64,
      "start": 68.2319,
      "duration": 0.084,
      "velocity": 121,
      "chip": "ym2612"
    },
    {
      "channel": 0,
      "note": 75,
      "start": 68.3343,
      "duration": 0.2992,
      "velocity": 107,
      "chip": "ym2612"
    },
    {
      "channel": 1,
      "note": 49,
      "start": 68.3371,
      "duration": 0.0385,
      "velocity": 108,
      "chip": "ym2612"
    },
    {
      "channel": 2,
      "note": 75,
      "start": 68.3515,
      "duration": 0.1619,
      "velocity": 127,
      "chip": "ym2612"
    },
    {
      "channel": 3,
      "note": 75,
      "start": 68.3542,
      "duration": 0.28,
      "velocity": 107,
      "chip": "ym2612"
    },
    {
      "channel": 1,
      "note": 51,
      "start": 68.4102,
      "duration": 0.0341,
      "velocity": 108,
      "chip": "ym2612"
    },
    {
      "channel": 1,
      "note": 49,
      "start": 68.4788,
      "duration": 0.0341,
      "velocity": 108,
      "chip": "ym2612"
    },
    {
      "channel": 1,
      "note": 47,
      "start": 68.5473,
      "duration": 0.1376,
      "velocity": 108,
      "chip": "ym2612"
    },
    {
      "channel": 2,
      "note": 64,
      "start": 68.5616,
      "duration": 0.1578,
      "velocity": 121,
      "chip": "ym2612"
    },
    {
      "channel": 1,
      "note": 47,
      "start": 68.7548,
      "duration": 0.0329,
      "velocity": 108,
      "chip": "ym2612"
    },
    {
      "channel": 2,
      "note": 71,
      "start": 68.758,
      "duration": 0.1674,
      "velocity": 121,
      "chip": "ym2612"
    },
    {
      "channel": 1,
      "note": 49,
      "start": 68.8234,
      "duration": 0.0329,
      "velocity": 108,
      "chip": "ym2612"
    },
    {
      "channel": 1,
      "note": 47,
      "start": 68.8919,
      "duration": 0.033,
      "velocity": 108,
      "chip": "ym2612"
    },
    {
      "channel": 0,
      "note": 75,
      "start": 68.9612,
      "duration": 0.2923,
      "velocity": 107,
      "chip": "ym2612"
    },
    {
      "channel": 1,
      "note": 46,
      "start": 68.964,
      "duration": 0.1324,
      "velocity": 108,
      "chip": "ym2612"
    },
    {
      "channel": 2,
      "note": 64,
      "start": 68.9673,
      "duration": 0.0778,
      "velocity": 121,
      "chip": "ym2612"
    },
    {
      "channel": 3,
      "note": 75,
      "start": 68.9722,
      "duration": 0.2825,
      "velocity": 107,
      "chip": "ym2612"
    },
    {
      "channel": 2,
      "note": 64,
      "start": 69.0639,
      "duration": 0.084,
      "velocity": 121,
      "chip": "ym2612"
    },
    {
      "channel": 1,
      "note": 46,
      "start": 69.1663,
      "duration": 0.0359,
      "velocity": 108,
      "chip": "ym2612"
    },
    {
      "channel": 2,
      "note": 75,
      "start": 69.1806,
      "duration": 0.0736,
      "velocity": 127,
      "chip": "ym2612"
    },
    {
      "channel": 1,
      "note": 47,
      "start": 69.2367,
      "duration": 0.0472,
      "velocity": 108,
      "chip": "ym2612"
    },
    {
      "channel": 2,
      "note": 71,
      "start": 69.2825,
      "duration": 0.073,
      "velocity": 121,
      "chip": "ym2612"
    },
    {
      "channel": 1,
      "note": 46,
      "start": 69.3053,
      "duration": 0.033,
      "velocity": 108,
      "chip": "ym2612"
    },
    {
      "channel": 1,
      "note": 43,
      "start": 69.3739,
      "duration": 0.1359,
      "velocity": 108,
      "chip": "ym2612"
    },
    {
      "channel": 2,
      "note": 64,
      "start": 69.3771,
      "duration": 0.167,
      "velocity": 121,
      "chip": "ym2612"
    },
    {
      "channel": 0,
      "note": 75,
      "start": 69.5796,
      "duration": 0.2902,
      "velocity": 107,
      "chip": "ym2612"
    },
    {
      "channel": 1,
      "note": 44,
      "start": 69.5824,
      "duration": 0.0302,
      "velocity": 108,
      "chip": "ym2612"
    },
    {
      "channel": 2,
      "note": 64,
      "start": 69.5861,
      "duration": 0.1643,
      "velocity": 121,
      "chip": "ym2612"
    },
    {
      "channel": 3,
      "note": 75,
      "start": 69.5889,
      "duration": 0.2816,
      "velocity": 107,
      "chip": "ym2612"
    },
    {
      "channel": 1,
      "note": 46,
      "start": 69.6482,
      "duration": 0.033,
      "velocity": 108,
      "chip": "ym2612"
    },
    {
      "channel": 1,
      "note": 44,
      "start": 69.7168,
      "duration": 0.033,
      "velocity": 108,
      "chip": "ym2612"
    },
    {
      "channel": 1,
      "note": 42,
      "start": 69.7854,
      "duration": 0.1359,
      "velocity": 108,
      "chip": "ym2612"
    },
    {
      "channel": 2,
      "note": 71,
      "start": 69.7887,
      "duration": 0.1671,
      "velocity": 121,
      "chip": "ym2612"
    },
    {
      "channel": 1,
      "note": 42,
      "start": 69.9912,
      "duration": 0.033,
      "velocity": 108,
      "chip": "ym2612"
    },
    {
      "channel": 2,
      "note": 68,
      "start": 69.9944,
      "duration": 0.1674,
      "velocity": 121,
      "chip": "ym2612"
    },
    {
      "channel": 1,
      "note": 44,
      "start": 70.0598,
      "duration": 0.033,
      "velocity": 108,
      "chip": "ym2612"
    },
    {
      "channel": 1,
      "note": 42,
      "start": 70.1284,
      "duration": 0.033,
      "velocity": 108,
      "chip": "ym2612"
    },
    {
      "channel": 0,
      "note": 75,
      "start": 70.197,
      "duration": 0.2901,
      "velocity": 107,
      "chip": "ym2612"
    },
    {
      "channel": 1,
      "note": 40,
      "start": 70.1997,
      "duration": 0.1331,
      "velocity": 108,
      "chip": "ym2612"
    },
    {
      "channel": 2,
      "note": 64,
      "start": 70.203,
      "duration": 0.0784,
      "velocity": 121,
      "chip": "ym2612"
    },
    {
      "channel": 3,
      "note": 75,
      "start": 70.2059,
      "duration": 0.282,
      "velocity": 107,
      "chip": "ym2612"
    },
    {
      "channel": 2,
      "note": 71,
      "start": 70.3004,
      "duration": 0.084,
      "velocity": 121,
      "chip": "ym2612"
    },
    {
      "channel": 1,
      "note": 51,
      "start": 70.4027,
      "duration": 0.0331,
      "velocity": 108,
      "chip": "ym2612"
    },
    {
      "channel": 2,
      "note": 71,
      "start": 70.406,
      "duration": 0.047,
      "velocity": 121,
      "chip": "ym2612"
    },
    {
      "channel": 1,
      "note": 49,
      "start": 70.4713,
      "duration": 0.033,
      "velocity": 108,
      "chip": "ym2612"
    },
    {
      "channel": 2,
      "note": 71,
      "start": 70.4745,
      "duration": 0.047,
      "velocity": 121,
      "chip": "ym2612"
    },
    {
      "channel": 1,
      "note": 48,
      "start": 70.5399,
      "duration": 0.033,
      "velocity": 108,
      "chip": "ym2612"
    },
    {
      "channel": 2,
      "note": 71,
      "start": 70.5431,
      "duration": 0.0469,
      "velocity": 121,
      "chip": "ym2612"
    },
    {
      "channel": 1,
      "note": 47,
      "start": 70.6085,
      "duration": 0.033,
      "velocity": 108,
      "chip": "ym2612"
    },
    {
      "channel": 2,
      "note": 71,
      "start": 70.6117,
      "duration": 0.0469,
      "velocity": 121,
      "chip": "ym2612"
    },
    {
      "channel": 1,
      "note": 46,
      "start": 70.677,
      "duration": 0.033,
      "velocity": 108,
      "chip": "ym2612"
    },
    {
      "channel": 2,
      "note": 71,
      "start": 70.6803,
      "duration": 0.0469,
      "velocity": 121,
      "chip": "ym2612"
    },
    {
      "channel": 1,
      "note": 44,
      "start": 70.7456,
      "duration": 0.033,
      "velocity": 108,
      "chip": "ym2612"
    },
    {
      "channel": 2,
      "note": 71,
      "start": 70.7488,
      "duration": 0.0469,
      "velocity": 121,
      "chip": "ym2612"
    },
    {
      "channel": 0,
      "note": 75,
      "start": 70.8149,
      "duration": 0.2895,
      "velocity": 107,
      "chip": "ym2612"
    },
    {
      "channel": 1,
      "note": 42,
      "start": 70.8177,
      "duration": 0.0295,
      "velocity": 108,
      "chip": "ym2612"
    },
    {
      "channel": 2,
      "note": 64,
      "start": 70.8209,
      "duration": 0.0435,
      "velocity": 121,
      "chip": "ym2612"
    },
    {
      "channel": 3,
      "note": 75,
      "start": 70.8259,
      "duration": 0.2792,
      "velocity": 107,
      "chip": "ym2612"
    },
    {
      "channel": 1,
      "note": 40,
      "start": 70.8827,
      "duration": 0.0331,
      "velocity": 108,
      "chip": "ym2612"
    },
    {
      "channel": 2,
      "note": 64,
      "start": 70.8861,
      "duration": 0.0469,
      "velocity": 121,
      "chip": "ym2612"
    },
    {
      "channel": 1,
      "note": 39,
      "start": 70.9514,
      "duration": 0.0331,
      "velocity": 108,
      "chip": "ym2612"
    },
    {
      "channel": 2,
      "note": 64,
      "start": 70.9546,
      "duration": 0.047,
      "velocity": 121,
      "chip": "ym2612"
    },
    {
      "channel": 1,
      "note": 37,
      "start": 71.02,
      "duration": 0.0331,
      "velocity": 108,
      "chip": "ym2612"
    },
    {
      "channel": 2,
      "note": 61,
      "start": 71.0232,
      "duration": 0.047,
      "velocity": 121,
      "chip": "ym2612"
    },
    {
      "channel": 1,
      "note": 35,
      "start": 71.0886,
      "duration": 0.033,
      "velocity": 108,
      "chip": "ym2612"
    },
    {
      "channel": 2,
      "note": 61,
      "start": 71.0918,
      "duration": 0.047,
      "velocity": 121,
      "chip": "ym2612"
    },
    {
      "channel": 1,
      "note": 34,
      "start": 71.1572,
      "duration": 0.033,
      "velocity": 108,
      "chip": "ym2612"
    },
    {
      "channel": 2,
      "note": 61,
      "start": 71.1604,
      "duration": 0.0432,
      "velocity": 121,
      "chip": "ym2612"
    },
    {
      "channel": 0,
      "note": 56,
      "start": 71.3958,
      "duration": 0.0506,
      "velocity": 104,
      "chip": "ym2612"
    },
    {
      "channel": 2,
      "note": 44,
      "start": 71.4255,
      "duration": 1.1393,
      "velocity": 103,
      "chip": "ym2612"
    },
    {
      "channel": 0,
      "note": 58,
      "start": 71.4657,
      "duration": 0.0322,
      "velocity": 104,
      "chip": "ym2612"
    },
    {
      "channel": 1,
      "note": 56,
      "start": 71.4858,
      "duration": 0.0329,
      "velocity": 104,
      "chip": "ym2612"
    },
    {
      "channel": 0,
      "note": 61,
      "start": 71.5172,
      "duration": 0.0321,
      "velocity": 104,
      "chip": "ym2612"
    },
    {
      "channel": 1,
      "note": 58,
      "start": 71.5346,
      "duration": 0.0356,
      "velocity": 104,
      "chip": "ym2612"
    },
    {
      "channel": 0,
      "note": 63,
      "start": 71.5687,
      "duration": 0.0321,
      "velocity": 104,
      "chip": "ym2612"
    },
    {
      "channel": 1,
      "note": 61,
      "start": 71.586,
      "duration": 0.0356,
      "velocity": 104,
      "chip": "ym2612"
    },
    {
      "channel": 0,
      "note": 68,
      "start": 71.6201,
      "duration": 0.0321,
      "velocity": 104,
      "chip": "ym2612"
    },
    {
      "channel": 1,
      "note": 63,
      "start": 71.6375,
      "duration": 0.0356,
      "velocity": 104,
      "chip": "ym2612"
    },
    {
      "channel": 0,
      "note": 70,
      "start": 71.6715,
      "duration": 0.0322,
      "velocity": 104,
      "chip": "ym2612"
    },
    {
      "channel": 1,
      "note": 68,
      "start": 71.6889,
      "duration": 0.0356,
      "velocity": 104,
      "chip": "ym2612"
    },
    {
      "channel": 0,
      "note": 73,
      "start": 71.7229,
      "duration": 0.0321,
      "velocity": 104,
      "chip": "ym2612"
    },
    {
      "channel": 1,
      "note": 70,
      "start": 71.7403,
      "duration": 0.0356,
      "velocity": 104,
      "chip": "ym2612"
    },
    {
      "channel": 0,
      "note": 75,
      "start": 71.7744,
      "duration": 0.0322,
      "velocity": 104,
      "chip": "ym2612"
    },
    {
      "channel": 1,
      "note": 73,
      "start": 71.7917,
      "duration": 0.0356,
      "velocity": 104,
      "chip": "ym2612"
    },
    {
      "channel": 0,
      "note": 80,
      "start": 71.8258,
      "duration": 0.0321,
      "velocity": 104,
      "chip": "ym2612"
    },
    {
      "channel": 1,
      "note": 75,
      "start": 71.8432,
      "duration": 0.0356,
      "velocity": 104,
      "chip": "ym2612"
    },
    {
      "channel": 0,
      "note": 82,
      "start": 71.8772,
      "duration": 0.0322,
      "velocity": 104,
      "chip": "ym2612"
    },
    {
      "channel": 1,
      "note": 80,
      "start": 71.8946,
      "duration": 0.0356,
      "velocity": 104,
      "chip": "ym2612"
    },
    {
      "channel": 0,
      "note": 85,
      "start": 71.9287,
      "duration": 0.0321,
      "velocity": 104,
      "chip": "ym2612"
    },
    {
      "channel": 1,
      "note": 82,
      "start": 71.9461,
      "duration": 0.0356,
      "velocity": 104,
      "chip": "ym2612"
    },
    {
      "channel": 0,
      "note": 87,
      "start": 71.9801,
      "duration": 0.0322,
      "velocity": 104,
      "chip": "ym2612"
    },
    {
      "channel": 1,
      "note": 85,
      "start": 71.9974,
      "duration": 0.0356,
      "velocity": 104,
      "chip": "ym2612"
    },
    {
      "channel": 0,
      "note": 92,
      "start": 72.0315,
      "duration": 0.0321,
      "velocity": 104,
      "chip": "ym2612"
    },
    {
      "channel": 1,
      "note": 87,
      "start": 72.0488,
      "duration": 0.0357,
      "velocity": 104,
      "chip": "ym2612"
    },
    {
      "channel": 0,
      "note": 87,
      "start": 72.0829,
      "duration": 0.0322,
      "velocity": 104,
      "chip": "ym2612"
    },
    {
      "channel": 1,
      "note": 92,
      "start": 72.1004,
      "duration": 0.0356,
      "velocity": 104,
      "chip": "ym2612"
    },
    {
      "channel": 0,
      "note": 85,
      "start": 72.1345,
      "duration": 0.0321,
      "velocity": 104,
      "chip": "ym2612"
    },
    {
      "channel": 1,
      "note": 87,
      "start": 72.1518,
      "duration": 0.0356,
      "velocity": 104,
      "chip": "ym2612"
    },
    {
      "channel": 0,
      "note": 82,
      "start": 72.1859,
      "duration": 0.0322,
      "velocity": 104,
      "chip": "ym2612"
    },
    {
      "channel": 1,
      "note": 85,
      "start": 72.2032,
      "duration": 0.0356,
      "velocity": 104,
      "chip": "ym2612"
    },
    {
      "channel": 0,
      "note": 80,
      "start": 72.2373,
      "duration": 0.0321,
      "velocity": 104,
      "chip": "ym2612"
    },
    {
      "channel": 1,
      "note": 82,
      "start": 72.2547,
      "duration": 0.0356,
      "velocity": 104,
      "chip": "ym2612"
    },
    {
      "channel": 0,
      "note": 75,
      "start": 72.2887,
      "duration": 0.0322,
      "velocity": 104,
      "chip": "ym2612"
    },
    {
      "channel": 1,
      "note": 80,
      "start": 72.3061,
      "duration": 0.0356,
      "velocity": 104,
      "chip": "ym2612"
    },
    {
      "channel": 0,
      "note": 73,
      "start": 72.3402,
      "duration": 0.0321,
      "velocity": 104,
      "chip": "ym2612"
    },
    {
      "channel": 1,
      "note": 75,
      "start": 72.3576,
      "duration": 0.0356,
      "velocity": 104,
      "chip": "ym2612"
    },
    {
      "channel": 0,
      "note": 70,
      "start": 72.3916,
      "duration": 0.0322,
      "velocity": 104,
      "chip": "ym2612"
    },
    {
      "channel": 1,
      "note": 73,
      "start": 72.409,
      "duration": 0.0356,
      "velocity": 104,
      "chip": "ym2612"
    },
    {
      "channel": 0,
      "note": 68,
      "start": 72.4431,
      "duration": 0.0321,
      "velocity": 104,
      "chip": "ym2612"
    },
    {
      "channel": 1,
      "note": 70,
      "start": 72.4604,
      "duration": 0.0356,
      "velocity": 104,
      "chip": "ym2612"
    },
    {
      "channel": 0,
      "note": 63,
      "start": 72.4944,
      "duration": 0.0322,
      "velocity": 104,
      "chip": "ym2612"
    },
    {
      "channel": 1,
      "note": 68,
      "start": 72.5118,
      "duration": 0.0356,
      "velocity": 104,
      "chip": "ym2612"
    },
    {
      "channel": 0,
      "note": 61,
      "start": 72.5459,
      "duration": 0.0321,
      "velocity": 104,
      "chip": "ym2612"
    },
    {
      "channel": 1,
      "note": 63,
      "start": 72.5633,
      "duration": 0.0356,
      "velocity": 104,
      "chip": "ym2612"
    },
    {
      "channel": 0,
      "note": 58,
      "start": 72.5974,
      "duration": 0.0321,
      "velocity": 104,
      "chip": "ym2612"
    },
    {
      "channel": 1,
      "note": 61,
      "start": 72.6147,
      "duration": 0.0422,
      "velocity": 104,
      "chip": "ym2612"
    },
    {
      "channel": 0,
      "note": 56,
      "start": 72.6515,
      "duration": 0.0295,
      "velocity": 104,
      "chip": "ym2612"
    },
    {
      "channel": 2,
      "note": 36,
      "start": 72.6556,
      "duration": 0.0468,
      "velocity": 103,
      "chip": "ym2612"
    },
    {
      "channel": 1,
      "note": 58,
      "start": 72.6661,
      "duration": 0.0357,
      "velocity": 104,
      "chip": "ym2612"
    },
    {
      "channel": 0,
      "note": 58,
      "start": 72.7003,
      "duration": 0.032,
      "velocity": 104,
      "chip": "ym2612"
    },
    {
      "channel": 1,
      "note": 56,
      "start": 72.7207,
      "duration": 0.0326,
      "velocity": 104,
      "chip": "ym2612"
    },
    {
      "channel": 0,
      "note": 61,
      "start": 72.7517,
      "duration": 0.0358,
      "velocity": 104,
      "chip": "ym2612"
    },
    {
      "channel": 1,
      "note": 58,
      "start": 72.7691,
      "duration": 0.0356,
      "velocity": 104,
      "chip": "ym2612"
    },
    {
      "channel": 2,
      "note": 39,
      "start": 72.7862,
      "duration": 0.0497,
      "velocity": 103,
      "chip": "ym2612"
    },
    {
      "channel": 0,
      "note": 63,
      "start": 72.8032,
      "duration": 0.0321,
      "velocity": 104,
      "chip": "ym2612"
    },
    {
      "channel": 1,
      "note": 61,
      "start": 72.8205,
      "duration": 0.0356,
      "velocity": 104,
      "chip": "ym2612"
    },
    {
      "channel": 0,
      "note": 68,
      "start": 72.8546,
      "duration": 0.0321,
      "velocity": 104,
      "chip": "ym2612"
    },
    {
      "channel": 1,
      "note": 63,
      "start": 72.8719,
      "duration": 0.0356,
      "velocity": 104,
      "chip": "ym2612"
    },
    {
      "channel": 0,
      "note": 70,
      "start": 72.906,
      "duration": 0.0321,
      "velocity": 104,
      "chip": "ym2612"
    },
    {
      "channel": 1,
      "note": 68,
      "start": 72.9233,
      "duration": 0.0356,
      "velocity": 104,
      "chip": "ym2612"
    },
    {
      "channel": 2,
      "note": 44,
      "start": 72.927,
      "duration": 0.1007,
      "velocity": 103,
      "chip": "ym2612"
    },
    {
      "channel": 0,
      "note": 73,
      "start": 72.9574,
      "duration": 0.0321,
      "velocity": 104,
      "chip": "ym2612"
    },
    {
      "channel": 1,
      "note": 70,
      "start": 72.9748,
      "duration": 0.0356,
      "velocity": 104,
      "chip": "ym2612"
    },
    {
      "channel": 0,
      "note": 75,
      "start": 73.0088,
      "duration": 0.0321,
      "velocity": 104,
      "chip": "ym2612"
    },
    {
      "channel": 1,
      "note": 73,
      "start": 73.0262,
      "duration": 0.0356,
      "velocity": 104,
      "chip": "ym2612"
    },
    {
      "channel": 0,
      "note": 80,
      "start": 73.0603,
      "duration": 0.0321,
      "velocity": 104,
      "chip": "ym2612"
    },
    {
      "channel": 1,
      "note": 75,
      "start": 73.0777,
      "duration": 0.0356,
      "velocity": 104,
      "chip": "ym2612"
    },
    {
      "channel": 0,
      "note": 82,
      "start": 73.1117,
      "duration": 0.0321,
      "velocity": 104,
      "chip": "ym2612"
    },
    {
      "channel": 1,
      "note": 80,
      "start": 73.1291,
      "duration": 0.0396,
      "velocity": 104,
      "chip": "ym2612"
    },
    {
      "channel": 0,
      "note": 85,
      "start": 73.1632,
      "duration": 0.0321,
      "velocity": 104,
      "chip": "ym2612"
    },
    {
      "channel": 2,
      "note": 42,
      "start": 73.1673,
      "duration": 1.3659,
      "velocity": 103,
      "chip": "ym2612"
    },
    {
      "channel": 1,
      "note": 82,
      "start": 73.1805,
      "duration": 0.0356,
      "velocity": 104,
      "chip": "ym2612"
    },
    {
      "channel": 0,
      "note": 87,
      "start": 73.2146,
      "duration": 0.0322,
      "velocity": 104,
      "chip": "ym2612"
    },
    {
      "channel": 1,
      "note": 85,
      "start": 73.2319,
      "duration": 0.0357,
      "velocity": 104,
      "chip": "ym2612"
    },
    {
      "channel": 0,
      "note": 92,
      "start": 73.266,
      "duration": 0.0321,
      "velocity": 104,
      "chip": "ym2612"
    },
    {
      "channel": 1,
      "note": 87,
      "start": 73.2834,
      "duration": 0.0356,
      "velocity": 104,
      "chip": "ym2612"
    },
    {
      "channel": 0,
      "note": 87,
      "start": 73.3175,
      "duration": 0.0321,
      "velocity": 104,
      "chip": "ym2612"
    },
    {
      "channel": 1,
      "note": 92,
      "start": 73.3349,
      "duration": 0.0356,
      "velocity": 104,
      "chip": "ym2612"
    },
    {
      "channel": 0,
      "note": 85,
      "start": 73.3689,
      "duration": 0.0321,
      "velocity": 104,
      "chip": "ym2612"
    },
    {
      "channel": 1,
      "note": 87,
      "start": 73.3863,
      "duration": 0.0356,
      "velocity": 104,
      "chip": "ym2612"
    },
    {
      "channel": 0,
      "note": 82,
      "start": 73.4203,
      "duration": 0.0322,
      "velocity": 104,
      "chip": "ym2612"
    },
    {
      "channel": 1,
      "note": 85,
      "start": 73.4377,
      "duration": 0.0356,
      "velocity": 104,
      "chip": "ym2612"
    },
    {
      "channel": 0,
      "note": 80,
      "start": 73.4718,
      "duration": 0.0321,
      "velocity": 104,
      "chip": "ym2612"
    },
    {
      "channel": 1,
      "note": 82,
      "start": 73.4892,
      "duration": 0.0356,
      "velocity": 104,
      "chip": "ym2612"
    },
    {
      "channel": 0,
      "note": 75,
      "start": 73.5232,
      "duration": 0.0322,
      "velocity": 104,
      "chip": "ym2612"
    },
    {
      "channel": 1,
      "note": 80,
      "start": 73.5406,
      "duration": 0.0356,
      "velocity": 104,
      "chip": "ym2612"
    },
    {
      "channel": 0,
      "note": 73,
      "start": 73.5747,
      "duration": 0.0321,
      "velocity": 104,
      "chip": "ym2612"
    },
    {
      "channel": 1,
      "note": 75,
      "start": 73.592,
      "duration": 0.0356,
      "velocity": 104,
      "chip": "ym2612"
    },
    {
      "channel": 0,
      "note": 70,
      "start": 73.6261,
      "duration": 0.0322,
      "velocity": 104,
      "chip": "ym2612"
    },
    {
      "channel": 1,
      "note": 73,
      "start": 73.6434,
      "duration": 0.0356,
      "velocity": 104,
      "chip": "ym2612"
    },
    {
      "channel": 0,
      "note": 68,
      "start": 73.6775,
      "duration": 0.0321,
      "velocity": 104,
      "chip": "ym2612"
    },
    {
      "channel": 1,
      "note": 70,
      "start": 73.6949,
      "duration": 0.0356,
      "velocity": 104,
      "chip": "ym2612"
    },
    {
      "channel": 0,
      "note": 63,
      "start": 73.7289,
      "duration": 0.0322,
      "velocity": 104,
      "chip": "ym2612"
    },
    {
      "channel": 1,
      "note": 68,
      "start": 73.7463,
      "duration": 0.0356,
      "velocity": 104,
      "chip": "ym2612"
    },
    {
      "channel": 0,
      "note": 61,
      "start": 73.7804,
      "duration": 0.0321,
      "velocity": 104,
      "chip": "ym2612"
    },
    {
      "channel": 1,
      "note": 63,
      "start": 73.7978,
      "duration": 0.0356,
      "velocity": 104,
      "chip": "ym2612"
    },
    {
      "channel": 0,
      "note": 58,
      "start": 73.8318,
      "duration": 0.0322,
      "velocity": 104,
      "chip": "ym2612"
    },
    {
      "channel": 1,
      "note": 61,
      "start": 73.8492,
      "duration": 0.0382,
      "velocity": 104,
      "chip": "ym2612"
    },
    {
      "channel": 0,
      "note": 56,
      "start": 73.8859,
      "duration": 0.0295,
      "velocity": 104,
      "chip": "ym2612"
    },
    {
      "channel": 1,
      "note": 58,
      "start": 73.9006,
      "duration": 0.0356,
      "velocity": 104,
      "chip": "ym2612"
    },
    {
      "channel": 0,
      "note": 58,
      "start": 73.9347,
      "duration": 0.0322,
      "velocity": 104,
      "chip": "ym2612"
    },
    {
      "channel": 1,
      "note": 56,
      "start": 73.9551,
      "duration": 0.0326,
      "velocity": 104,
      "chip": "ym2612"
    },
    {
      "channel": 0,
      "note": 61,
      "start": 73.9862,
      "duration": 0.0322,
      "velocity": 104,
      "chip": "ym2612"
    },
    {
      "channel": 1,
      "note": 58,
      "start": 74.0036,
      "duration": 0.0356,
      "velocity": 104,
      "chip": "ym2612"
    },
    {
      "channel": 0,
      "note": 63,
      "start": 74.0376,
      "duration": 0.0322,
      "velocity": 104,
      "chip": "ym2612"
    },
    {
      "channel": 1,
      "note": 61,
      "start": 74.055,
      "duration": 0.0356,
      "velocity": 104,
      "chip": "ym2612"
    },
    {
      "channel": 0,
      "note": 68,
      "start": 74.0891,
      "duration": 0.0321,
      "velocity": 104,
      "chip": "ym2612"
    },
    {
      "channel": 1,
      "note": 63,
      "start": 74.1065,
      "duration": 0.0356,
      "velocity": 104,
      "chip": "ym2612"
    },
    {
      "channel": 0,
      "note": 70,
      "start": 74.1405,
      "duration": 0.0322,
      "velocity": 104,
      "chip": "ym2612"
    },
    {
      "channel": 1,
      "note": 68,
      "start": 74.1579,
      "duration": 0.0356,
      "velocity": 104,
      "chip": "ym2612"
    },
    {
      "channel": 0,
      "note": 73,
      "start": 74.192,
      "duration": 0.0321,
      "velocity": 104,
      "chip": "ym2612"
    },
    {
      "channel": 1,
      "note": 70,
      "start": 74.2093,
      "duration": 0.0356,
      "velocity": 104,
      "chip": "ym2612"
    },
    {
      "channel": 0,
      "note": 75,
      "start": 74.2434,
      "duration": 0.0322,
      "velocity": 104,
      "chip": "ym2612"
    },
    {
      "channel": 1,
      "note": 73,
      "start": 74.2607,
      "duration": 0.0356,
      "velocity": 104,
      "chip": "ym2612"
    },
    {
      "channel": 0,
      "note": 80,
      "start": 74.2948,
      "duration": 0.0321,
      "velocity": 104,
      "chip": "ym2612"
    },
    {
      "channel": 1,
      "note": 75,
      "start": 74.3122,
      "duration": 0.0356,
      "velocity": 104,
      "chip": "ym2612"
    },
    {
      "channel": 0,
      "note": 82,
      "start": 74.3462,
      "duration": 0.0322,
      "velocity": 104,
      "chip": "ym2612"
    },
    {
      "channel": 1,
      "note": 80,
      "start": 74.3636,
      "duration": 0.0356,
      "velocity": 104,
      "chip": "ym2612"
    },
    {
      "channel": 0,
      "note": 85,
      "start": 74.3977,
      "duration": 0.0321,
      "velocity": 104,
      "chip": "ym2612"
    },
    {
      "channel": 1,
      "note": 82,
      "start": 74.4151,
      "duration": 0.0356,
      "velocity": 104,
      "chip": "ym2612"
    },
    {
      "channel": 0,
      "note": 87,
      "start": 74.4491,
      "duration": 0.0322,
      "velocity": 104,
      "chip": "ym2612"
    },
    {
      "channel": 1,
      "note": 85,
      "start": 74.4665,
      "duration": 0.0357,
      "velocity": 104,
      "chip": "ym2612"
    },
    {
      "channel": 0,
      "note": 92,
      "start": 74.5006,
      "duration": 0.032,
      "velocity": 104,
      "chip": "ym2612"
    },
    {
      "channel": 1,
      "note": 87,
      "start": 74.5179,
      "duration": 0.0356,
      "velocity": 104,
      "chip": "ym2612"
    },
    {
      "channel": 0,
      "note": 87,
      "start": 74.552,
      "duration": 0.0321,
      "velocity": 104,
      "chip": "ym2612"
    },
    {
      "channel": 1,
      "note": 92,
      "start": 74.5694,
      "duration": 0.0356,
      "velocity": 104,
      "chip": "ym2612"
    },
    {
      "channel": 0,
      "note": 85,
      "start": 74.6035,
      "duration": 0.036,
      "velocity": 104,
      "chip": "ym2612"
    },
    {
      "channel": 1,
      "note": 87,
      "start": 74.6208,
      "duration": 0.0356,
      "velocity": 104,
      "chip": "ym2612"
    },
    {
      "channel": 2,
      "note": 41,
      "start": 74.6383,
      "duration": 0.0494,
      "velocity": 103,
      "chip": "ym2612"
    },
    {
      "channel": 0,
      "note": 82,
      "start": 74.6549,
      "duration": 0.0321,
      "velocity": 104,
      "chip": "ym2612"
    },
    {
      "channel": 1,
      "note": 85,
      "start": 74.6722,
      "duration": 0.0356,
      "velocity": 104,
      "chip": "ym2612"
    },
    {
      "channel": 0,
      "note": 80,
      "start": 74.7063,
      "duration": 0.0321,
      "velocity": 104,
      "chip": "ym2612"
    },
    {
      "channel": 1,
      "note": 82,
      "start": 74.7237,
      "duration": 0.0356,
      "velocity": 104,
      "chip": "ym2612"
    },
    {
      "channel": 0,
      "note": 75,
      "start": 74.7578,
      "duration": 0.0321,
      "velocity": 104,
      "chip": "ym2612"
    },
    {
      "channel": 1,
      "note": 80,
      "start": 74.7751,
      "duration": 0.0356,
      "velocity": 104,
      "chip": "ym2612"
    },
    {
      "channel": 2,
      "note": 43,
      "start": 74.7788,
      "duration": 0.0493,
      "velocity": 103,
      "chip": "ym2612"
    },
    {
      "channel": 0,
      "note": 73,
      "start": 74.8092,
      "duration": 0.0321,
      "velocity": 104,
      "chip": "ym2612"
    },
    {
      "channel": 1,
      "note": 75,
      "start": 74.8266,
      "duration": 0.0356,
      "velocity": 104,
      "chip": "ym2612"
    },
    {
      "channel": 0,
      "note": 70,
      "start": 74.8606,
      "duration": 0.0321,
      "velocity": 104,
      "chip": "ym2612"
    },
    {
      "channel": 1,
      "note": 73,
      "start": 74.878,
      "duration": 0.0396,
      "velocity": 104,
      "chip": "ym2612"
    },
    {
      "channel": 0,
      "note": 68,
      "start": 74.9121,
      "duration": 0.0321,
      "velocity": 104,
      "chip": "ym2612"
    },
    {
      "channel": 2,
      "note": 41,
      "start": 74.9162,
      "duration": 1.5202,
      "velocity": 103,
      "chip": "ym2612"
    },
    {
      "channel": 1,
      "note": 70,
      "start": 74.9294,
      "duration": 0.0356,
      "velocity": 104,
      "chip": "ym2612"
    },
    {
      "channel": 0,
      "note": 63,
      "start": 74.9635,
      "duration": 0.0321,
      "velocity": 104,
      "chip": "ym2612"
    },
    {
      "channel": 1,
      "note": 68,
      "start": 74.9808,
      "duration": 0.0356,
      "velocity": 104,
      "chip": "ym2612"
    },
    {
      "channel": 0,
      "note": 61,
      "start": 75.0149,
      "duration": 0.0322,
      "velocity": 104,
      "chip": "ym2612"
    },
    {
      "channel": 1,
      "note": 63,
      "start": 75.0322,
      "duration": 0.0357,
      "velocity": 104,
      "chip": "ym2612"
    },
    {
      "channel": 0,
      "note": 58,
      "start": 75.0663,
      "duration": 0.0321,
      "velocity": 104,
      "chip": "ym2612"
    },
    {
      "channel": 1,
      "note": 61,
      "start": 75.0838,
      "duration": 0.0382,
      "velocity": 104,
      "chip": "ym2612"
    },
    {
      "channel": 0,
      "note": 56,
      "start": 75.1204,
      "duration": 0.0295,
      "velocity": 104,
      "chip": "ym2612"
    },
    {
      "channel": 1,
      "note": 58,
      "start": 75.1352,
      "duration": 0.0356,
      "velocity": 104,
      "chip": "ym2612"
    },
    {
      "channel": 0,
      "note": 58,
      "start": 75.1693,
      "duration": 0.0321,
      "velocity": 104,
      "chip": "ym2612"
    },
    {
      "channel": 1,
      "note": 56,
      "start": 75.1895,
      "duration": 0.0327,
      "velocity": 104,
      "chip": "ym2612"
    },
    {
      "channel": 0,
      "note": 61,
      "start": 75.2207,
      "duration": 0.0321,
      "velocity": 104,
      "chip": "ym2612"
    },
    {
      "channel": 1,
      "note": 58,
      "start": 75.238,
      "duration": 0.0356,
      "velocity": 104,
      "chip": "ym2612"
    },
    {
      "channel": 0,
      "note": 63,
      "start": 75.2721,
      "duration": 0.0322,
      "velocity": 104,
      "chip": "ym2612"
    },
    {
      "channel": 1,
      "note": 61,
      "start": 75.2894,
      "duration": 0.0356,
      "velocity": 104,
      "chip": "ym2612"
    },
    {
      "channel": 0,
      "note": 68,
      "start": 75.3235,
      "duration": 0.0321,
      "velocity": 104,
      "chip": "ym2612"
    },
    {
      "channel": 1,
      "note": 63,
      "start": 75.3409,
      "duration": 0.0356,
      "velocity": 104,
      "chip": "ym2612"
    },
    {
      "channel": 0,
      "note": 70,
      "start": 75.3749,
      "duration": 0.0322,
      "velocity": 104,
      "chip": "ym2612"
    },
    {
      "channel": 1,
      "note": 68,
      "start": 75.3923,
      "duration": 0.0356,
      "velocity": 104,
      "chip": "ym2612"
    },
    {
      "channel": 0,
      "note": 73,
      "start": 75.4264,
      "duration": 0.0321,
      "velocity": 104,
      "chip": "ym2612"
    },
    {
      "channel": 1,
      "note": 70,
      "start": 75.4438,
      "duration": 0.0356,
      "velocity": 104,
      "chip": "ym2612"
    },
    {
      "channel": 0,
      "note": 75,
      "start": 75.4778,
      "duration": 0.0322,
      "velocity": 104,
      "chip": "ym2612"
    },
    {
      "channel": 1,
      "note": 73,
      "start": 75.4951,
      "duration": 0.0358,
      "velocity": 104,
      "chip": "ym2612"
    },
    {
      "channel": 0,
      "note": 80,
      "start": 75.5293,
      "duration": 0.0321,
      "velocity": 104,
      "chip": "ym2612"
    },
    {
      "channel": 1,
      "note": 75,
      "start": 75.5466,
      "duration": 0.0356,
      "velocity": 104,
      "chip": "ym2612"
    },
    {
      "channel": 0,
      "note": 82,
      "start": 75.5807,
      "duration": 0.0322,
      "velocity": 104,
      "chip": "ym2612"
    },
    {
      "channel": 1,
      "note": 80,
      "start": 75.598,
      "duration": 0.0356,
      "velocity": 104,
      "chip": "ym2612"
    },
    {
      "channel": 0,
      "note": 85,
      "start": 75.6321,
      "duration": 0.0321,
      "velocity": 104,
      "chip": "ym2612"
    },
    {
      "channel": 1,
      "note": 82,
      "start": 75.6495,
      "duration": 0.0356,
      "velocity": 104,
      "chip": "ym2612"
    },
    {
      "channel": 0,
      "note": 87,
      "start": 75.6836,
      "duration": 0.0321,
      "velocity": 104,
      "chip": "ym2612"
    },
    {
      "channel": 1,
      "note": 85,
      "start": 75.701,
      "duration": 0.0356,
      "velocity": 104,
      "chip": "ym2612"
    },
    {
      "channel": 0,
      "note": 92,
      "start": 75.735,
      "duration": 0.0321,
      "velocity": 104,
      "chip": "ym2612"
    },
    {
      "channel": 1,
      "note": 87,
      "start": 75.7523,
      "duration": 0.0356,
      "velocity": 104,
      "chip": "ym2612"
    },
    {
      "channel": 0,
      "note": 87,
      "start": 75.7864,
      "duration": 0.0322,
      "velocity": 104,
      "chip": "ym2612"
    },
    {
      "channel": 1,
      "note": 92,
      "start": 75.8038,
      "duration": 0.0356,
      "velocity": 104,
      "chip": "ym2612"
    },
    {
      "channel": 0,
      "note": 85,
      "start": 75.8379,
      "duration": 0.0321,
      "velocity": 104,
      "chip": "ym2612"
    },
    {
      "channel": 1,
      "note": 87,
      "start": 75.8553,
      "duration": 0.0356,
      "velocity": 104,
      "chip": "ym2612"
    },
    {
      "channel": 0,
      "note": 82,
      "start": 75.8893,
      "duration": 0.0322,
      "velocity": 104,
      "chip": "ym2612"
    },
    {
      "channel": 1,
      "note": 85,
      "start": 75.9067,
      "duration": 0.0356,
      "velocity": 104,
      "chip": "ym2612"
    },
    {
      "channel": 0,
      "note": 80,
      "start": 75.9408,
      "duration": 0.0321,
      "velocity": 104,
      "chip": "ym2612"
    },
    {
      "channel": 1,
      "note": 82,
      "start": 75.9581,
      "duration": 0.0356,
      "velocity": 104,
      "chip": "ym2612"
    },
    {
      "channel": 0,
      "note": 75,
      "start": 75.9922,
      "duration": 0.0322,
      "velocity": 104,
      "chip": "ym2612"
    },
    {
      "channel": 1,
      "note": 80,
      "start": 76.0095,
      "duration": 0.0356,
      "velocity": 104,
      "chip": "ym2612"
    },
    {
      "channel": 0,
      "note": 73,
      "start": 76.0436,
      "duration": 0.0321,
      "velocity": 104,
      "chip": "ym2612"
    },
    {
      "channel": 1,
      "note": 75,
      "start": 76.061,
      "duration": 0.0356,
      "velocity": 104,
      "chip": "ym2612"
    },
    {
      "channel": 0,
      "note": 70,
      "start": 76.095,
      "duration": 0.0322,
      "velocity": 104,
      "chip": "ym2612"
    },
    {
      "channel": 1,
      "note": 73,
      "start": 76.1124,
      "duration": 0.0356,
      "velocity": 104,
      "chip": "ym2612"
    },
    {
      "channel": 0,
      "note": 68,
      "start": 76.1465,
      "duration": 0.0321,
      "velocity": 104,
      "chip": "ym2612"
    },
    {
      "channel": 1,
      "note": 70,
      "start": 76.1639,
      "duration": 0.0356,
      "velocity": 104,
      "chip": "ym2612"
    },
    {
      "channel": 0,
      "note": 63,
      "start": 76.1979,
      "duration": 0.0322,
      "velocity": 104,
      "chip": "ym2612"
    },
    {
      "channel": 1,
      "note": 68,
      "start": 76.2153,
      "duration": 0.0357,
      "velocity": 104,
      "chip": "ym2612"
    },
    {
      "channel": 0,
      "note": 61,
      "start": 76.2493,
      "duration": 0.0321,
      "velocity": 104,
      "chip": "ym2612"
    },
    {
      "channel": 1,
      "note": 63,
      "start": 76.2667,
      "duration": 0.0356,
      "velocity": 104,
      "chip": "ym2612"
    },
    {
      "channel": 0,
      "note": 58,
      "start": 76.3008,
      "duration": 0.0321,
      "velocity": 104,
      "chip": "ym2612"
    },
    {
      "channel": 1,
      "note": 61,
      "start": 76.3182,
      "duration": 0.0382,
      "velocity": 104,
      "chip": "ym2612"
    },
    {
      "channel": 0,
      "note": 56,
      "start": 76.3548,
      "duration": 0.0296,
      "velocity": 104,
      "chip": "ym2612"
    },
    {
      "channel": 1,
      "note": 58,
      "start": 76.3696,
      "duration": 0.0356,
      "velocity": 104,
      "chip": "ym2612"
    },
    {
      "channel": 0,
      "note": 58,
      "start": 76.4037,
      "duration": 0.0322,
      "velocity": 104,
      "chip": "ym2612"
    },
    {
      "channel": 1,
      "note": 56,
      "start": 76.424,
      "duration": 0.0326,
      "velocity": 104,
      "chip": "ym2612"
    },
    {
      "channel": 0,
      "note": 61,
      "start": 76.4551,
      "duration": 0.0321,
      "velocity": 104,
      "chip": "ym2612"
    },
    {
      "channel": 1,
      "note": 58,
      "start": 76.4725,
      "duration": 0.0356,
      "velocity": 104,
      "chip": "ym2612"
    },
    {
      "channel": 0,
      "note": 63,
      "start": 76.5066,
      "duration": 0.0321,
      "velocity": 104,
      "chip": "ym2612"
    },
    {
      "channel": 1,
      "note": 61,
      "start": 76.5239,
      "duration": 0.0392,
      "velocity": 104,
      "chip": "ym2612"
    },
    {
      "channel": 0,
      "note": 68,
      "start": 76.558,
      "duration": 0.0321,
      "velocity": 104,
      "chip": "ym2612"
    },
    {
      "channel": 2,
      "note": 40,
      "start": 76.5618,
      "duration": 0.7491,
      "velocity": 103,
      "chip": "ym2612"
    },
    {
      "channel": 1,
      "note": 63,
      "start": 76.5754,
      "duration": 0.0356,
      "velocity": 104,
      "chip": "ym2612"
    },
    {
      "channel": 0,
      "note": 70,
      "start": 76.6094,
      "duration": 0.0322,
      "velocity": 104,
      "chip": "ym2612"
    },
    {
      "channel": 1,
      "note": 68,
      "start": 76.6268,
      "duration": 0.0356,
      "velocity": 104,
      "chip": "ym2612"
    },
    {
      "channel": 0,
      "note": 73,
      "start": 76.6609,
      "duration": 0.0321,
      "velocity": 104,
      "chip": "ym2612"
    },
    {
      "channel": 1,
      "note": 70,
      "start": 76.6782,
      "duration": 0.0356,
      "velocity": 104,
      "chip": "ym2612"
    },
    {
      "channel": 0,
      "note": 75,
      "start": 76.7123,
      "duration": 0.0322,
      "velocity": 104,
      "chip": "ym2612"
    },
    {
      "channel": 1,
      "note": 73,
      "start": 76.7296,
      "duration": 0.0356,
      "velocity": 104,
      "chip": "ym2612"
    },
    {
      "channel": 0,
      "note": 80,
      "start": 76.7637,
      "duration": 0.0321,
      "velocity": 104,
      "chip": "ym2612"
    },
    {
      "channel": 1,
      "note": 75,
      "start": 76.781,
      "duration": 0.0356,
      "velocity": 104,
      "chip": "ym2612"
    },
    {
      "channel": 0,
      "note": 82,
      "start": 76.8151,
      "duration": 0.0322,
      "velocity": 104,
      "chip": "ym2612"
    },
    {
      "channel": 1,
      "note": 80,
      "start": 76.8325,
      "duration": 0.0357,
      "velocity": 104,
      "chip": "ym2612"
    },
    {
      "channel": 0,
      "note": 85,
      "start": 76.8666,
      "duration": 0.0321,
      "velocity": 104,
      "chip": "ym2612"
    },
    {
      "channel": 1,
      "note": 82,
      "start": 76.884,
      "duration": 0.0356,
      "velocity": 104,
      "chip": "ym2612"
    },
    {
      "channel": 0,
      "note": 87,
      "start": 76.918,
      "duration": 0.0322,
      "velocity": 104,
      "chip": "ym2612"
    },
    {
      "channel": 1,
      "note": 85,
      "start": 76.9354,
      "duration": 0.0356,
      "velocity": 104,
      "chip": "ym2612"
    },
    {
      "channel": 0,
      "note": 92,
      "start": 76.9695,
      "duration": 0.0322,
      "velocity": 104,
      "chip": "ym2612"
    },
    {
      "channel": 1,
      "note": 87,
      "start": 76.9869,
      "duration": 0.0356,
      "velocity": 104,
      "chip": "ym2612"
    },
    {
      "channel": 0,
      "note": 87,
      "start": 77.021,
      "duration": 0.0322,
      "velocity": 104,
      "chip": "ym2612"
    },
    {
      "channel": 1,
      "note": 92,
      "start": 77.0383,
      "duration": 0.0356,
      "velocity": 104,
      "chip": "ym2612"
    },
    {
      "channel": 0,
      "note": 85,
      "start": 77.0724,
      "duration": 0.0321,
      "velocity": 104,
      "chip": "ym2612"
    },
    {
      "channel": 1,
      "note": 87,
      "start": 77.0898,
      "duration": 0.0356,
      "velocity": 104,
      "chip": "ym2612"
    },
    {
      "channel": 0,
      "note": 82,
      "start": 77.1239,
      "duration": 0.0322,
      "velocity": 104,
      "chip": "ym2612"
    },
    {
      "channel": 1,
      "note": 85,
      "start": 77.1412,
      "duration": 0.0356,
      "velocity": 104,
      "chip": "ym2612"
    },
    {
      "channel": 0,
      "note": 80,
      "start": 77.1753,
      "duration": 0.0321,
      "velocity": 104,
      "chip": "ym2612"
    },
    {
      "channel": 1,
      "note": 82,
      "start": 77.1927,
      "duration": 0.0356,
      "velocity": 104,
      "chip": "ym2612"
    },
    {
      "channel": 0,
      "note": 75,
      "start": 77.2267,
      "duration": 0.0322,
      "velocity": 104,
      "chip": "ym2612"
    },
    {
      "channel": 1,
      "note": 80,
      "start": 77.2441,
      "duration": 0.0356,
      "velocity": 104,
      "chip": "ym2612"
    },
    {
      "channel": 0,
      "note": 73,
      "start": 77.2782,
      "duration": 0.0321,
      "velocity": 104,
      "chip": "ym2612"
    },
    {
      "channel": 1,
      "note": 75,
      "start": 77.2955,
      "duration": 0.0356,
      "velocity": 104,
      "chip": "ym2612"
    },
    {
      "channel": 0,
      "note": 70,
      "start": 77.3296,
      "duration": 0.0321,
      "velocity": 104,
      "chip": "ym2612"
    },
    {
      "channel": 1,
      "note": 73,
      "start": 77.3469,
      "duration": 0.0415,
      "velocity": 104,
      "chip": "ym2612"
    },
    {
      "channel": 0,
      "note": 68,
      "start": 77.381,
      "duration": 0.0322,
      "velocity": 104,
      "chip": "ym2612"
    },
    {
      "channel": 2,
      "note": 42,
      "start": 77.3871,
      "duration": 0.7468,
      "velocity": 103,
      "chip": "ym2612"
    },
    {
      "channel": 1,
      "note": 70,
      "start": 77.3984,
      "duration": 0.0356,
      "velocity": 104,
      "chip": "ym2612"
    },
    {
      "channel": 0,
      "note": 63,
      "start": 77.4325,
      "duration": 0.0321,
      "velocity": 104,
      "chip": "ym2612"
    },
    {
      "channel": 1,
      "note": 68,
      "start": 77.4498,
      "duration": 0.0357,
      "velocity": 104,
      "chip": "ym2612"
    },
    {
      "channel": 0,
      "note": 61,
      "start": 77.484,
      "duration": 0.0321,
      "velocity": 104,
      "chip": "ym2612"
    },
    {
      "channel": 1,
      "note": 63,
      "start": 77.5013,
      "duration": 0.0356,
      "velocity": 104,
      "chip": "ym2612"
    },
    {
      "channel": 0,
      "note": 58,
      "start": 77.5354,
      "duration": 0.0321,
      "velocity": 104,
      "chip": "ym2612"
    },
    {
      "channel": 1,
      "note": 61,
      "start": 77.5527,
      "duration": 0.0382,
      "velocity": 104,
      "chip": "ym2612"
    },
    {
      "channel": 0,
      "note": 56,
      "start": 77.5894,
      "duration": 0.0296,
      "velocity": 104,
      "chip": "ym2612"
    },
    {
      "channel": 1,
      "note": 58,
      "start": 77.6042,
      "duration": 0.0356,
      "velocity": 104,
      "chip": "ym2612"
    },
    {
      "channel": 0,
      "note": 58,
      "start": 77.6382,
      "duration": 0.0322,
      "velocity": 104,
      "chip": "ym2612"
    },
    {
      "channel": 1,
      "note": 56,
      "start": 77.6586,
      "duration": 0.0326,
      "velocity": 104,
      "chip": "ym2612"
    },
    {
      "channel": 0,
      "note": 61,
      "start": 77.6897,
      "duration": 0.0321,
      "velocity": 104,
      "chip": "ym2612"
    },
    {
      "channel": 1,
      "note": 58,
      "start": 77.7071,
      "duration": 0.0356,
      "velocity": 104,
      "chip": "ym2612"
    },
    {
      "channel": 0,
      "note": 63,
      "start": 77.7411,
      "duration": 0.0322,
      "velocity": 104,
      "chip": "ym2612"
    },
    {
      "channel": 1,
      "note": 61,
      "start": 77.7585,
      "duration": 0.0356,
      "velocity": 104,
      "chip": "ym2612"
    },
    {
      "channel": 0,
      "note": 68,
      "start": 77.7925,
      "duration": 0.0321,
      "velocity": 104,
      "chip": "ym2612"
    },
    {
      "channel": 1,
      "note": 63,
      "start": 77.8099,
      "duration": 0.0356,
      "velocity": 104,
      "chip": "ym2612"
    },
    {
      "channel": 0,
      "note": 70,
      "start": 77.8439,
      "duration": 0.0322,
      "velocity": 104,
      "chip": "ym2612"
    },
    {
      "channel": 1,
      "note": 68,
      "start": 77.8613,
      "duration": 0.0356,
      "velocity": 104,
      "chip": "ym2612"
    },
    {
      "channel": 0,
      "note": 73,
      "start": 77.8954,
      "duration": 0.0321,
      "velocity": 104,
      "chip": "ym2612"
    },
    {
      "channel": 1,
      "note": 70,
      "start": 77.9128,
      "duration": 0.0356,
      "velocity": 104,
      "chip": "ym2612"
    },
    {
      "channel": 0,
      "note": 75,
      "start": 77.9468,
      "duration": 0.0322,
      "velocity": 104,
      "chip": "ym2612"
    },
    {
      "channel": 1,
      "note": 73,
      "start": 77.9642,
      "duration": 0.0356,
      "velocity": 104,
      "chip": "ym2612"
    },
    {
      "channel": 0,
      "note": 80,
      "start": 77.9983,
      "duration": 0.0321,
      "velocity": 104,
      "chip": "ym2612"
    },
    {
      "channel": 1,
      "note": 75,
      "start": 78.0156,
      "duration": 0.0357,
      "velocity": 104,
      "chip": "ym2612"
    },
    {
      "channel": 0,
      "note": 82,
      "start": 78.0497,
      "duration": 0.0321,
      "velocity": 104,
      "chip": "ym2612"
    },
    {
      "channel": 1,
      "note": 80,
      "start": 78.0671,
      "duration": 0.0356,
      "velocity": 104,
      "chip": "ym2612"
    },
    {
      "channel": 0,
      "note": 85,
      "start": 78.1011,
      "duration": 0.0321,
      "velocity": 104,
      "chip": "ym2612"
    },
    {
      "channel": 1,
      "note": 82,
      "start": 78.1185,
      "duration": 0.0356,
      "velocity": 104,
      "chip": "ym2612"
    },
    {
      "channel": 0,
      "note": 87,
      "start": 78.1526,
      "duration": 0.0321,
      "velocity": 104,
      "chip": "ym2612"
    },
    {
      "channel": 1,
      "note": 85,
      "start": 78.1699,
      "duration": 0.0392,
      "velocity": 104,
      "chip": "ym2612"
    },
    {
      "channel": 0,
      "note": 92,
      "start": 78.204,
      "duration": 0.0322,
      "velocity": 104,
      "chip": "ym2612"
    },
    {
      "channel": 2,
      "note": 44,
      "start": 78.2078,
      "duration": 3.8352,
      "velocity": 103,
      "chip": "ym2612"
    },
    {
      "channel": 1,
      "note": 87,
      "start": 78.2214,
      "duration": 0.0356,
      "velocity": 104,
      "chip": "ym2612"
    },
    {
      "channel": 0,
      "note": 87,
      "start": 78.2555,
      "duration": 0.0321,
      "velocity": 104,
      "chip": "ym2612"
    },
    {
      "channel": 1,
      "note": 92,
      "start": 78.2728,
      "duration": 0.0356,
      "velocity": 104,
      "chip": "ym2612"
    },
    {
      "channel": 0,
      "note": 85,
      "start": 78.3068,
      "duration": 0.0322,
      "velocity": 104,
      "chip": "ym2612"
    },
    {
      "channel": 1,
      "note": 87,
      "start": 78.3242,
      "duration": 0.0356,
      "velocity": 104,
      "chip": "ym2612"
    },
    {
      "channel": 0,
      "note": 82,
      "start": 78.3583,
      "duration": 0.0321,
      "velocity": 104,
      "chip": "ym2612"
    },
    {
      "channel": 1,
      "note": 85,
      "start": 78.3757,
      "duration": 0.0356,
      "velocity": 104,
      "chip": "ym2612"
    },
    {
      "channel": 0,
      "note": 80,
      "start": 78.4097,
      "duration": 0.0322,
      "velocity": 104,
      "chip": "ym2612"
    },
    {
      "channel": 1,
      "note": 82,
      "start": 78.4271,
      "duration": 0.0356,
      "velocity": 104,
      "chip": "ym2612"
    },
    {
      "channel": 0,
      "note": 75,
      "start": 78.4612,
      "duration": 0.0321,
      "velocity": 104,
      "chip": "ym2612"
    },
    {
      "channel": 1,
      "note": 80,
      "start": 78.4785,
      "duration": 0.0356,
      "velocity": 104,
      "chip": "ym2612"
    },
    {
      "channel": 0,
      "note": 73,
      "start": 78.5126,
      "duration": 0.0322,
      "velocity": 104,
      "chip": "ym2612"
    },
    {
      "channel": 1,
      "note": 75,
      "start": 78.53,
      "duration": 0.0356,
      "velocity": 104,
      "chip": "ym2612"
    },
    {
      "channel": 0,
      "note": 70,
      "start": 78.564,
      "duration": 0.0321,
      "velocity": 104,
      "chip": "ym2612"
    },
    {
      "channel": 1,
      "note": 73,
      "start": 78.5814,
      "duration": 0.0357,
      "velocity": 104,
      "chip": "ym2612"
    },
    {
      "channel": 0,
      "note": 68,
      "start": 78.6154,
      "duration": 0.0322,
      "velocity": 104,
      "chip": "ym2612"
    },
    {
      "channel": 1,
      "note": 70,
      "start": 78.6328,
      "duration": 0.0357,
      "velocity": 104,
      "chip": "ym2612"
    },
    {
      "channel": 0,
      "note": 63,
      "start": 78.667,
      "duration": 0.032,
      "velocity": 104,
      "chip": "ym2612"
    },
    {
      "channel": 1,
      "note": 68,
      "start": 78.6843,
      "duration": 0.0356,
      "velocity": 104,
      "chip": "ym2612"
    },
    {
      "channel": 0,
      "note": 61,
      "start": 78.7184,
      "duration": 0.0321,
      "velocity": 104,
      "chip": "ym2612"
    },
    {
      "channel": 1,
      "note": 63,
      "start": 78.7357,
      "duration": 0.0356,
      "velocity": 104,
      "chip": "ym2612"
    },
    {
      "channel": 0,
      "note": 58,
      "start": 78.7698,
      "duration": 0.0322,
      "velocity": 104,
      "chip": "ym2612"
    },
    {
      "channel": 1,
      "note": 61,
      "start": 78.7871,
      "duration": 0.036,
      "velocity": 104,
      "chip": "ym2612"
    },
    {
      "channel": 0,
      "note": 56,
      "start": 78.8217,
      "duration": 0.0317,
      "velocity": 104,
      "chip": "ym2612"
    },
    {
      "channel": 1,
      "note": 58,
      "start": 78.8386,
      "duration": 0.0356,
      "velocity": 104,
      "chip": "ym2612"
    },
    {
      "channel": 0,
      "note": 58,
      "start": 78.8726,
      "duration": 0.0322,
      "velocity": 104,
      "chip": "ym2612"
    },
    {
      "channel": 1,
      "note": 56,
      "start": 78.8905,
      "duration": 0.0352,
      "velocity": 104,
      "chip": "ym2612"
    },
    {
      "channel": 0,
      "note": 61,
      "start": 78.9241,
      "duration": 0.0321,
      "velocity": 104,
      "chip": "ym2612"
    },
    {
      "channel": 1,
      "note": 58,
      "start": 78.9415,
      "duration": 0.0356,
      "velocity": 104,
      "chip": "ym2612"
    },
    {
      "channel": 0,
      "note": 63,
      "start": 78.9755,
      "duration": 0.0322,
      "velocity": 104,
      "chip": "ym2612"
    },
    {
      "channel": 1,
      "note": 61,
      "start": 78.9929,
      "duration": 0.0356,
      "velocity": 104,
      "chip": "ym2612"
    },
    {
      "channel": 0,
      "note": 68,
      "start": 79.027,
      "duration": 0.0321,
      "velocity": 104,
      "chip": "ym2612"
    },
    {
      "channel": 1,
      "note": 63,
      "start": 79.0443,
      "duration": 0.0356,
      "velocity": 104,
      "chip": "ym2612"
    },
    {
      "channel": 0,
      "note": 70,
      "start": 79.0784,
      "duration": 0.0322,
      "velocity": 104,
      "chip": "ym2612"
    },
    {
      "channel": 1,
      "note": 68,
      "start": 79.0957,
      "duration": 0.0356,
      "velocity": 104,
      "chip": "ym2612"
    },
    {
      "channel": 0,
      "note": 73,
      "start": 79.1298,
      "duration": 0.0321,
      "velocity": 104,
      "chip": "ym2612"
    },
    {
      "channel": 1,
      "note": 70,
      "start": 79.1472,
      "duration": 0.0356,
      "velocity": 104,
      "chip": "ym2612"
    },
    {
      "channel": 0,
      "note": 75,
      "start": 79.1812,
      "duration": 0.0322,
      "velocity": 104,
      "chip": "ym2612"
    },
    {
      "channel": 1,
      "note": 73,
      "start": 79.1986,
      "duration": 0.0357,
      "velocity": 104,
      "chip": "ym2612"
    },
    {
      "channel": 0,
      "note": 80,
      "start": 79.2327,
      "duration": 0.0321,
      "velocity": 104,
      "chip": "ym2612"
    },
    {
      "channel": 1,
      "note": 75,
      "start": 79.25,
      "duration": 0.0356,
      "velocity": 104,
      "chip": "ym2612"
    },
    {
      "channel": 0,
      "note": 82,
      "start": 79.2841,
      "duration": 0.0321,
      "velocity": 104,
      "chip": "ym2612"
    },
    {
      "channel": 1,
      "note": 80,
      "start": 79.3015,
      "duration": 0.0356,
      "velocity": 104,
      "chip": "ym2612"
    },
    {
      "channel": 0,
      "note": 85,
      "start": 79.3356,
      "duration": 0.0321,
      "velocity": 104,
      "chip": "ym2612"
    },
    {
      "channel": 1,
      "note": 82,
      "start": 79.3529,
      "duration": 0.0356,
      "velocity": 104,
      "chip": "ym2612"
    },
    {
      "channel": 0,
      "note": 87,
      "start": 79.387,
      "duration": 0.0322,
      "velocity": 104,
      "chip": "ym2612"
    },
    {
      "channel": 1,
      "note": 85,
      "start": 79.4044,
      "duration": 0.0356,
      "velocity": 104,
      "chip": "ym2612"
    },
    {
      "channel": 0,
      "note": 92,
      "start": 79.4385,
      "duration": 0.0321,
      "velocity": 104,
      "chip": "ym2612"
    },
    {
      "channel": 1,
      "note": 87,
      "start": 79.4559,
      "duration": 0.0356,
      "velocity": 104,
      "chip": "ym2612"
    },
    {
      "channel": 0,
      "note": 87,
      "start": 79.4899,
      "duration": 0.0322,
      "velocity": 104,
      "chip": "ym2612"
    },
    {
      "channel": 1,
      "note": 92,
      "start": 79.5072,
      "duration": 0.0356,
      "velocity": 104,
      "chip": "ym2612"
    },
    {
      "channel": 0,
      "note": 85,
      "start": 79.5413,
      "duration": 0.0321,
      "velocity": 104,
      "chip": "ym2612"
    },
    {
      "channel": 1,
      "note": 87,
      "start": 79.5587,
      "duration": 0.0356,
      "velocity": 104,
      "chip": "ym2612"
    },
    {
      "channel": 0,
      "note": 82,
      "start": 79.5927,
      "duration": 0.0322,
      "velocity": 104,
      "chip": "ym2612"
    },
    {
      "channel": 1,
      "note": 85,
      "start": 79.6101,
      "duration": 0.0358,
      "velocity": 104,
      "chip": "ym2612"
    },
    {
      "channel": 0,
      "note": 80,
      "start": 79.6442,
      "duration": 0.0321,
      "velocity": 104,
      "chip": "ym2612"
    },
    {
      "channel": 1,
      "note": 82,
      "start": 79.6616,
      "duration": 0.0356,
      "velocity": 104,
      "chip": "ym2612"
    },
    {
      "channel": 0,
      "note": 75,
      "start": 79.6956,
      "duration": 0.0322,
      "velocity": 104,
      "chip": "ym2612"
    },
    {
      "channel": 1,
      "note": 80,
      "start": 79.713,
      "duration": 0.0356,
      "velocity": 104,
      "chip": "ym2612"
    },
    {
      "channel": 0,
      "note": 73,
      "start": 79.7471,
      "duration": 0.0321,
      "velocity": 104,
      "chip": "ym2612"
    },
    {
      "channel": 1,
      "note": 75,
      "start": 79.7644,
      "duration": 0.0356,
      "velocity": 104,
      "chip": "ym2612"
    },
    {
      "channel": 0,
      "note": 70,
      "start": 79.7985,
      "duration": 0.0322,
      "velocity": 104,
      "chip": "ym2612"
    },
    {
      "channel": 1,
      "note": 73,
      "start": 79.8158,
      "duration": 0.0357,
      "velocity": 104,
      "chip": "ym2612"
    },
    {
      "channel": 0,
      "note": 68,
      "start": 79.8499,
      "duration": 0.0321,
      "velocity": 104,
      "chip": "ym2612"
    },
    {
      "channel": 1,
      "note": 70,
      "start": 79.8673,
      "duration": 0.0356,
      "velocity": 104,
      "chip": "ym2612"
    },
    {
      "channel": 0,
      "note": 63,
      "start": 79.9014,
      "duration": 0.0322,
      "velocity": 104,
      "chip": "ym2612"
    },
    {
      "channel": 1,
      "note": 68,
      "start": 79.9188,
      "duration": 0.0356,
      "velocity": 104,
      "chip": "ym2612"
    },
    {
      "channel": 0,
      "note": 61,
      "start": 79.9529,
      "duration": 0.0322,
      "velocity": 104,
      "chip": "ym2612"
    },
    {
      "channel": 1,
      "note": 63,
      "start": 79.9702,
      "duration": 0.0356,
      "velocity": 104,
      "chip": "ym2612"
    },
    {
      "channel": 0,
      "note": 58,
      "start": 80.0043,
      "duration": 0.0322,
      "velocity": 104,
      "chip": "ym2612"
    },
    {
      "channel": 1,
      "note": 61,
      "start": 80.0217,
      "duration": 0.0356,
      "velocity": 104,
      "chip": "ym2612"
    },
    {
      "channel": 0,
      "note": 56,
      "start": 80.0558,
      "duration": 0.0321,
      "velocity": 104,
      "chip": "ym2612"
    },
    {
      "channel": 1,
      "note": 58,
      "start": 80.0731,
      "duration": 0.0356,
      "velocity": 104,
      "chip": "ym2612"
    },
    {
      "channel": 0,
      "note": 58,
      "start": 80.1072,
      "duration": 0.0322,
      "velocity": 104,
      "chip": "ym2612"
    },
    {
      "channel": 1,
      "note": 56,
      "start": 80.1245,
      "duration": 0.0356,
      "velocity": 104,
      "chip": "ym2612"
    },
    {
      "channel": 0,
      "note": 61,
      "start": 80.1586,
      "duration": 0.0321,
      "velocity": 104,
      "chip": "ym2612"
    },
    {
      "channel": 1,
      "note": 58,
      "start": 80.176,
      "duration": 0.0356,
      "velocity": 104,
      "chip": "ym2612"
    },
    {
      "channel": 0,
      "note": 63,
      "start": 80.21,
      "duration": 0.0322,
      "velocity": 104,
      "chip": "ym2612"
    },
    {
      "channel": 1,
      "note": 61,
      "start": 80.2274,
      "duration": 0.0356,
      "velocity": 104,
      "chip": "ym2612"
    },
    {
      "channel": 0,
      "note": 68,
      "start": 80.2615,
      "duration": 0.0321,
      "velocity": 104,
      "chip": "ym2612"
    },
    {
      "channel": 1,
      "note": 63,
      "start": 80.2789,
      "duration": 0.0356,
      "velocity": 104,
      "chip": "ym2612"
    },
    {
      "channel": 0,
      "note": 70,
      "start": 80.3129,
      "duration": 0.0322,
      "velocity": 104,
      "chip": "ym2612"
    },
    {
      "channel": 1,
      "note": 68,
      "start": 80.3303,
      "duration": 0.0356,
      "velocity": 104,
      "chip": "ym2612"
    },
    {
      "channel": 0,
      "note": 73,
      "start": 80.3644,
      "duration": 0.0321,
      "velocity": 104,
      "chip": "ym2612"
    },
    {
      "channel": 1,
      "note": 70,
      "start": 80.3817,
      "duration": 0.0357,
      "velocity": 104,
      "chip": "ym2612"
    },
    {
      "channel": 0,
      "note": 75,
      "start": 80.4158,
      "duration": 0.0322,
      "velocity": 104,
      "chip": "ym2612"
    },
    {
      "channel": 1,
      "note": 73,
      "start": 80.4331,
      "duration": 0.0357,
      "velocity": 104,
      "chip": "ym2612"
    },
    {
      "channel": 0,
      "note": 80,
      "start": 80.4673,
      "duration": 0.032,
      "velocity": 104,
      "chip": "ym2612"
    },
    {
      "channel": 1,
      "note": 75,
      "start": 80.4846,
      "duration": 0.0356,
      "velocity": 104,
      "chip": "ym2612"
    },
    {
      "channel": 0,
      "note": 82,
      "start": 80.5188,
      "duration": 0.0321,
      "velocity": 104,
      "chip": "ym2612"
    },
    {
      "channel": 1,
      "note": 80,
      "start": 80.5361,
      "duration": 0.0356,
      "velocity": 104,
      "chip": "ym2612"
    },
    {
      "channel": 0,
      "note": 85,
      "start": 80.5702,
      "duration": 0.0321,
      "velocity": 104,
      "chip": "ym2612"
    },
    {
      "channel": 1,
      "note": 82,
      "start": 80.5875,
      "duration": 0.0356,
      "velocity": 104,
      "chip": "ym2612"
    },
    {
      "channel": 0,
      "note": 87,
      "start": 80.6216,
      "duration": 0.0322,
      "velocity": 104,
      "chip": "ym2612"
    },
    {
      "channel": 1,
      "note": 85,
      "start": 80.6389,
      "duration": 0.0356,
      "velocity": 104,
      "chip": "ym2612"
    },
    {
      "channel": 0,
      "note": 92,
      "start": 80.673,
      "duration": 0.0321,
      "velocity": 104,
      "chip": "ym2612"
    },
    {
      "channel": 1,
      "note": 87,
      "start": 80.6904,
      "duration": 0.0356,
      "velocity": 104,
      "chip": "ym2612"
    },
    {
      "channel": 0,
      "note": 87,
      "start": 80.7244,
      "duration": 0.0322,
      "velocity": 104,
      "chip": "ym2612"
    },
    {
      "channel": 1,
      "note": 92,
      "start": 80.7418,
      "duration": 0.0356,
      "velocity": 104,
      "chip": "ym2612"
    },
    {
      "channel": 0,
      "note": 85,
      "start": 80.7759,
      "duration": 0.0321,
      "velocity": 104,
      "chip": "ym2612"
    },
    {
      "channel": 1,
      "note": 87,
      "start": 80.7932,
      "duration": 0.0356,
      "velocity": 104,
      "chip": "ym2612"
    },
    {
      "channel": 0,
      "note": 82,
      "start": 80.8273,
      "duration": 0.0322,
      "velocity": 104,
      "chip": "ym2612"
    },
    {
      "channel": 1,
      "note": 85,
      "start": 80.8446,
      "duration": 0.0356,
      "velocity": 104,
      "chip": "ym2612"
    },
    {
      "channel": 0,
      "note": 80,
      "start": 80.8788,
      "duration": 0.0321,
      "velocity": 104,
      "chip": "ym2612"
    },
    {
      "channel": 1,
      "note": 82,
      "start": 80.8961,
      "duration": 0.0356,
      "velocity": 104,
      "chip": "ym2612"
    },
    {
      "channel": 0,
      "note": 75,
      "start": 80.9301,
      "duration": 0.0322,
      "velocity": 104,
      "chip": "ym2612"
    },
    {
      "channel": 1,
      "note": 80,
      "start": 80.9475,
      "duration": 0.0356,
      "velocity": 104,
      "chip": "ym2612"
    },
    {
      "channel": 0,
      "note": 73,
      "start": 80.9816,
      "duration": 0.0321,
      "velocity": 104,
      "chip": "ym2612"
    },
    {
      "channel": 1,
      "note": 75,
      "start": 80.9989,
      "duration": 0.0357,
      "velocity": 104,
      "chip": "ym2612"
    },
    {
      "channel": 0,
      "note": 70,
      "start": 81.033,
      "duration": 0.0321,
      "velocity": 104,
      "chip": "ym2612"
    },
    {
      "channel": 1,
      "note": 73,
      "start": 81.0504,
      "duration": 0.0356,
      "velocity": 104,
      "chip": "ym2612"
    },
    {
      "channel": 0,
      "note": 68,
      "start": 81.0845,
      "duration": 0.0321,
      "velocity": 104,
      "chip": "ym2612"
    },
    {
      "channel": 1,
      "note": 70,
      "start": 81.1018,
      "duration": 0.0356,
      "velocity": 104,
      "chip": "ym2612"
    },
    {
      "channel": 0,
      "note": 63,
      "start": 81.1359,
      "duration": 0.0321,
      "velocity": 104,
      "chip": "ym2612"
    },
    {
      "channel": 1,
      "note": 68,
      "start": 81.1532,
      "duration": 0.0356,
      "velocity": 104,
      "chip": "ym2612"
    },
    {
      "channel": 0,
      "note": 61,
      "start": 81.1873,
      "duration": 0.0321,
      "velocity": 104,
      "chip": "ym2612"
    },
    {
      "channel": 1,
      "note": 63,
      "start": 81.2047,
      "duration": 0.0356,
      "velocity": 104,
      "chip": "ym2612"
    },
    {
      "channel": 0,
      "note": 58,
      "start": 81.2387,
      "duration": 0.0322,
      "velocity": 104,
      "chip": "ym2612"
    },
    {
      "channel": 1,
      "note": 61,
      "start": 81.2561,
      "duration": 0.0356,
      "velocity": 104,
      "chip": "ym2612"
    },
    {
      "channel": 0,
      "note": 56,
      "start": 81.2902,
      "duration": 0.0321,
      "velocity": 104,
      "chip": "ym2612"
    },
    {
      "channel": 1,
      "note": 58,
      "start": 81.3076,
      "duration": 0.0356,
      "velocity": 104,
      "chip": "ym2612"
    },
    {
      "channel": 0,
      "note": 58,
      "start": 81.3416,
      "duration": 0.0322,
      "velocity": 104,
      "chip": "ym2612"
    },
    {
      "channel": 1,
      "note": 56,
      "start": 81.359,
      "duration": 0.0356,
      "velocity": 104,
      "chip": "ym2612"
    },
    {
      "channel": 0,
      "note": 61,
      "start": 81.3931,
      "duration": 0.0321,
      "velocity": 104,
      "chip": "ym2612"
    },
    {
      "channel": 1,
      "note": 58,
      "start": 81.4104,
      "duration": 0.0356,
      "velocity": 104,
      "chip": "ym2612"
    },
    {
      "channel": 0,
      "note": 63,
      "start": 81.4444,
      "duration": 0.0322,
      "velocity": 104,
      "chip": "ym2612"
    },
    {
      "channel": 1,
      "note": 61,
      "start": 81.4618,
      "duration": 0.0356,
      "velocity": 104,
      "chip": "ym2612"
    },
    {
      "channel": 0,
      "note": 68,
      "start": 81.4959,
      "duration": 0.0321,
      "velocity": 104,
      "chip": "ym2612"
    },
    {
      "channel": 1,
      "note": 63,
      "start": 81.5133,
      "duration": 0.0356,
      "velocity": 104,
      "chip": "ym2612"
    },
    {
      "channel": 0,
      "note": 70,
      "start": 81.5473,
      "duration": 0.0322,
      "velocity": 104,
      "chip": "ym2612"
    },
    {
      "channel": 1,
      "note": 68,
      "start": 81.5647,
      "duration": 0.0356,
      "velocity": 104,
      "chip": "ym2612"
    },
    {
      "channel": 0,
      "note": 73,
      "start": 81.5988,
      "duration": 0.0321,
      "velocity": 104,
      "chip": "ym2612"
    },
    {
      "channel": 1,
      "note": 70,
      "start": 81.6161,
      "duration": 0.0356,
      "velocity": 104,
      "chip": "ym2612"
    },
    {
      "channel": 0,
      "note": 75,
      "start": 81.6502,
      "duration": 0.0321,
      "velocity": 104,
      "chip": "ym2612"
    },
    {
      "channel": 1,
      "note": 73,
      "start": 81.6676,
      "duration": 0.0356,
      "velocity": 104,
      "chip": "ym2612"
    },
    {
      "channel": 0,
      "note": 80,
      "start": 81.7017,
      "duration": 0.0321,
      "velocity": 104,
      "chip": "ym2612"
    },
    {
      "channel": 1,
      "note": 75,
      "start": 81.719,
      "duration": 0.0356,
      "velocity": 104,
      "chip": "ym2612"
    },
    {
      "channel": 0,
      "note": 82,
      "start": 81.7531,
      "duration": 0.0322,
      "velocity": 104,
      "chip": "ym2612"
    },
    {
      "channel": 1,
      "note": 80,
      "start": 81.7705,
      "duration": 0.0356,
      "velocity": 104,
      "chip": "ym2612"
    },
    {
      "channel": 0,
      "note": 85,
      "start": 81.8046,
      "duration": 0.0321,
      "velocity": 104,
      "chip": "ym2612"
    },
    {
      "channel": 1,
      "note": 82,
      "start": 81.8219,
      "duration": 0.0356,
      "velocity": 104,
      "chip": "ym2612"
    },
    {
      "channel": 0,
      "note": 87,
      "start": 81.856,
      "duration": 0.0322,
      "velocity": 104,
      "chip": "ym2612"
    },
    {
      "channel": 1,
      "note": 85,
      "start": 81.8733,
      "duration": 0.0356,
      "velocity": 104,
      "chip": "ym2612"
    },
    {
      "channel": 0,
      "note": 92,
      "start": 81.9074,
      "duration": 0.0321,
      "velocity": 104,
      "chip": "ym2612"
    },
    {
      "channel": 1,
      "note": 87,
      "start": 81.9248,
      "duration": 0.0356,
      "velocity": 104,
      "chip": "ym2612"
    },
    {
      "channel": 0,
      "note": 87,
      "start": 81.9588,
      "duration": 0.0322,
      "velocity": 104,
      "chip": "ym2612"
    },
    {
      "channel": 1,
      "note": 92,
      "start": 81.9762,
      "duration": 0.0356,
      "velocity": 104,
      "chip": "ym2612"
    },
    {
      "channel": 0,
      "note": 85,
      "start": 82.0103,
      "duration": 0.0321,
      "velocity": 104,
      "chip": "ym2612"
    },
    {
      "channel": 1,
      "note": 87,
      "start": 82.0277,
      "duration": 0.0356,
      "velocity": 104,
      "chip": "ym2612"
    },
    {
      "channel": 0,
      "note": 82,
      "start": 82.0617,
      "duration": 0.0321,
      "velocity": 104,
      "chip": "ym2612"
    },
    {
      "channel": 1,
      "note": 85,
      "start": 82.0791,
      "duration": 0.0356,
      "velocity": 104,
      "chip": "ym2612"
    },
    {
      "channel": 0,
      "note": 80,
      "start": 82.1132,
      "duration": 0.0321,
      "velocity": 104,
      "chip": "ym2612"
    },
    {
      "channel": 1,
      "note": 82,
      "start": 82.1305,
      "duration": 0.0356,
      "velocity": 104,
      "chip": "ym2612"
    },
    {
      "channel": 0,
      "note": 75,
      "start": 82.1646,
      "duration": 0.0321,
      "velocity": 104,
      "chip": "ym2612"
    },
    {
      "channel": 1,
      "note": 80,
      "start": 82.1819,
      "duration": 0.0357,
      "velocity": 104,
      "chip": "ym2612"
    },
    {
      "channel": 0,
      "note": 73,
      "start": 82.216,
      "duration": 0.0321,
      "velocity": 104,
      "chip": "ym2612"
    },
    {
      "channel": 1,
      "note": 75,
      "start": 82.2334,
      "duration": 0.0356,
      "velocity": 104,
      "chip": "ym2612"
    },
    {
      "channel": 0,
      "note": 70,
      "start": 82.2676,
      "duration": 0.0321,
      "velocity": 104,
      "chip": "ym2612"
    },
    {
      "channel": 1,
      "note": 73,
      "start": 82.2849,
      "duration": 0.0358,
      "velocity": 104,
      "chip": "ym2612"
    },
    {
      "channel": 0,
      "note": 68,
      "start": 82.3189,
      "duration": 0.0321,
      "velocity": 104,
      "chip": "ym2612"
    },
    {
      "channel": 1,
      "note": 70,
      "start": 82.3363,
      "duration": 0.0356,
      "velocity": 104,
      "chip": "ym2612"
    },
    {
      "channel": 0,
      "note": 63,
      "start": 82.3703,
      "duration": 0.0321,
      "velocity": 104,
      "chip": "ym2612"
    },
    {
      "channel": 1,
      "note": 68,
      "start": 82.3877,
      "duration": 0.0356,
      "velocity": 104,
      "chip": "ym2612"
    },
    {
      "channel": 0,
      "note": 61,
      "start": 82.4218,
      "duration": 0.0321,
      "velocity": 104,
      "chip": "ym2612"
    },
    {
      "channel": 1,
      "note": 63,
      "start": 82.4391,
      "duration": 0.0356,
      "velocity": 104,
      "chip": "ym2612"
    },
    {
      "channel": 0,
      "note": 58,
      "start": 82.4732,
      "duration": 0.0321,
      "velocity": 104,
      "chip": "ym2612"
    },
    {
      "channel": 1,
      "note": 61,
      "start": 82.4906,
      "duration": 0.0153,
      "velocity": 104,
      "chip": "ym2612"
    },
    {
      "channel": 0,
      "note": 61,
      "start": 82.5352,
      "duration": 0.0704,
      "velocity": 94,
      "chip": "ym2612"
    },
    {
      "channel": 1,
      "note": 63,
      "start": 82.5502,
      "duration": 0.194,
      "velocity": 115,
      "chip": "ym2612"
    },
    {
      "channel": 2,
      "note": 56,
      "start": 82.5677,
      "duration": 0.1771,
      "velocity": 103,
      "chip": "ym2612"
    },
    {
      "channel": 1,
      "note": 68,
      "start": 82.7632,
      "duration": 0.0861,
      "velocity": 115,
      "chip": "ym2612"
    },
    {
      "channel": 2,
      "note": 51,
      "start": 82.848,
      "duration": 0.2041,
      "velocity": 103,
      "chip": "ym2612"
    },
    {
      "channel": 1,
      "note": 75,
      "start": 82.8646,
      "duration": 0.1869,
      "velocity": 115,
      "chip": "ym2612"
    },
    {
      "channel": 1,
      "note": 73,
      "start": 83.0704,
      "duration": 0.1868,
      "velocity": 115,
      "chip": "ym2612"
    },
    {
      "channel": 2,
      "note": 49,
      "start": 83.1567,
      "duration": 0.2036,
      "velocity": 103,
      "chip": "ym2612"
    },
    {
      "channel": 1,
      "note": 75,
      "start": 83.2761,
      "duration": 0.1904,
      "velocity": 115,
      "chip": "ym2612"
    },
    {
      "channel": 2,
      "note": 51,
      "start": 83.4653,
      "duration": 0.204,
      "velocity": 103,
      "chip": "ym2612"
    },
    {
      "channel": 1,
      "note": 70,
      "start": 83.4819,
      "duration": 0.1869,
      "velocity": 115,
      "chip": "ym2612"
    },
    {
      "channel": 1,
      "note": 73,
      "start": 83.6876,
      "duration": 0.0875,
      "velocity": 115,
      "chip": "ym2612"
    },
    {
      "channel": 2,
      "note": 56,
      "start": 83.7739,
      "duration": 0.135,
      "velocity": 103,
      "chip": "ym2612"
    },
    {
      "channel": 0,
      "note": 68,
      "start": 83.7899,
      "duration": 0.3759,
      "velocity": 94,
      "chip": "ym2612"
    },
    {
      "channel": 1,
      "note": 68,
      "start": 83.7932,
      "duration": 0.1878,
      "velocity": 115,
      "chip": "ym2612"
    },
    {
      "channel": 2,
      "note": 49,
      "start": 83.9796,
      "duration": 0.1349,
      "velocity": 103,
      "chip": "ym2612"
    },
    {
      "channel": 1,
      "note": 70,
      "start": 83.9962,
      "duration": 0.1905,
      "velocity": 115,
      "chip": "ym2612"
    },
    {
      "channel": 2,
      "note": 54,
      "start": 84.1854,
      "duration": 0.204,
      "velocity": 103,
      "chip": "ym2612"
    },
    {
      "channel": 0,
      "note": 68,
      "start": 84.2015,
      "duration": 0.0502,
      "velocity": 94,
      "chip": "ym2612"
    },
    {
      "channel": 1,
      "note": 63,
      "start": 84.2046,
      "duration": 0.1842,
      "velocity": 115,
      "chip": "ym2612"
    },
    {
      "channel": 1,
      "note": 68,
      "start": 84.4091,
      "duration": 0.0861,
      "velocity": 115,
      "chip": "ym2612"
    },
    {
      "channel": 2,
      "note": 49,
      "start": 84.494,
      "duration": 0.204,
      "velocity": 103,
      "chip": "ym2612"
    },
    {
      "channel": 1,
      "note": 75,
      "start": 84.5106,
      "duration": 0.1868,
      "velocity": 115,
      "chip": "ym2612"
    },
    {
      "channel": 1,
      "note": 73,
      "start": 84.7163,
      "duration": 0.1869,
      "velocity": 115,
      "chip": "ym2612"
    },
    {
      "channel": 2,
      "note": 42,
      "start": 84.8027,
      "duration": 0.2036,
      "velocity": 103,
      "chip": "ym2612"
    },
    {
      "channel": 1,
      "note": 75,
      "start": 84.9221,
      "duration": 0.1905,
      "velocity": 115,
      "chip": "ym2612"
    },
    {
      "channel": 2,
      "note": 49,
      "start": 85.1112,
      "duration": 0.204,
      "velocity": 103,
      "chip": "ym2612"
    },
    {
      "channel": 1,
      "note": 70,
      "start": 85.1278,
      "duration": 0.1869,
      "velocity": 115,
      "chip": "ym2612"
    },
    {
      "channel": 1,
      "note": 73,
      "start": 85.3337,
      "duration": 0.0876,
      "velocity": 115,
      "chip": "ym2612"
    },
    {
      "channel": 2,
      "note": 54,
      "start": 85.42,
      "duration": 0.135,
      "velocity": 103,
      "chip": "ym2612"
    },
    {
      "channel": 0,
      "note": 75,
      "start": 85.436,
      "duration": 0.191,
      "velocity": 94,
      "chip": "ym2612"
    },
    {
      "channel": 1,
      "note": 68,
      "start": 85.4392,
      "duration": 0.1882,
      "velocity": 115,
      "chip": "ym2612"
    },
    {
      "channel": 2,
      "note": 42,
      "start": 85.6257,
      "duration": 0.135,
      "velocity": 103,
      "chip": "ym2612"
    },
    {
      "channel": 1,
      "note": 70,
      "start": 85.6437,
      "duration": 0.189,
      "velocity": 115,
      "chip": "ym2612"
    },
    {
      "channel": 2,
      "note": 37,
      "start": 85.8314,
      "duration": 0.204,
      "velocity": 103,
      "chip": "ym2612"
    },
    {
      "channel": 0,
      "note": 68,
      "start": 85.8474,
      "duration": 1.1475,
      "velocity": 94,
      "chip": "ym2612"
    },
    {
      "channel": 1,
      "note": 63,
      "start": 85.8507,
      "duration": 0.1842,
      "velocity": 115,
      "chip": "ym2612"
    },
    {
      "channel": 1,
      "note": 68,
      "start": 86.0537,
      "duration": 0.0876,
      "velocity": 115,
      "chip": "ym2612"
    },
    {
      "channel": 2,
      "note": 44,
      "start": 86.14,
      "duration": 0.204,
      "velocity": 103,
      "chip": "ym2612"
    },
    {
      "channel": 1,
      "note": 75,
      "start": 86.1566,
      "duration": 0.1869,
      "velocity": 115,
      "chip": "ym2612"
    },
    {
      "channel": 1,
      "note": 73,
      "start": 86.3623,
      "duration": 0.1869,
      "velocity": 115,
      "chip": "ym2612"
    },
    {
      "channel": 2,
      "note": 49,
      "start": 86.4486,
      "duration": 0.2036,
      "velocity": 103,
      "chip": "ym2612"
    },
    {
      "channel": 1,
      "note": 75,
      "start": 86.5681,
      "duration": 0.1905,
      "velocity": 115,
      "chip": "ym2612"
    },
    {
      "channel": 2,
      "note": 44,
      "start": 86.7573,
      "duration": 0.204,
      "velocity": 103,
      "chip": "ym2612"
    },
    {
      "channel": 1,
      "note": 70,
      "start": 86.7739,
      "duration": 0.1869,
      "velocity": 115,
      "chip": "ym2612"
    },
    {
      "channel": 1,
      "note": 73,
      "start": 86.9796,
      "duration": 0.0876,
      "velocity": 115,
      "chip": "ym2612"
    },
    {
      "channel": 2,
      "note": 39,
      "start": 87.0659,
      "duration": 0.1351,
      "velocity": 103,
      "chip": "ym2612"
    },
    {
      "channel": 1,
      "note": 68,
      "start": 87.0829,
      "duration": 0.1901,
      "velocity": 115,
      "chip": "ym2612"
    },
    {
      "channel": 2,
      "note": 44,
      "start": 87.2717,
      "duration": 0.1371,
      "velocity": 103,
      "chip": "ym2612"
    },
    {
      "channel": 0,
      "note": 68,
      "start": 87.2992,
      "duration": 0.0752,
      "velocity": 87,
      "chip": "ym2612"
    },
    {
      "channel": 1,
      "note": 70,
      "start": 87.3025,
      "duration": 0.1788,
      "velocity": 115,
      "chip": "ym2612"
    },
    {
      "channel": 0,
      "note": 70,
      "start": 87.3927,
      "duration": 0.088,
      "velocity": 87,
      "chip": "ym2612"
    },
    {
      "channel": 2,
      "note": 52,
      "start": 87.4796,
      "duration": 0.2066,
      "velocity": 103,
      "chip": "ym2612"
    },
    {
      "channel": 0,
      "note": 71,
      "start": 87.507,
      "duration": 0.1615,
      "velocity": 94,
      "chip": "ym2612"
    },
    {
      "channel": 1,
      "note": 63,
      "start": 87.5102,
      "duration": 0.1754,
      "velocity": 115,
      "chip": "ym2612"
    },
    {
      "channel": 0,
      "note": 68,
      "start": 87.7039,
      "duration": 0.1702,
      "velocity": 94,
      "chip": "ym2612"
    },
    {
      "channel": 1,
      "note": 68,
      "start": 87.7072,
      "duration": 0.0849,
      "velocity": 115,
      "chip": "ym2612"
    },
    {
      "channel": 2,
      "note": 47,
      "start": 87.7908,
      "duration": 0.204,
      "velocity": 103,
      "chip": "ym2612"
    },
    {
      "channel": 1,
      "note": 75,
      "start": 87.8074,
      "duration": 0.1869,
      "velocity": 115,
      "chip": "ym2612"
    },
    {
      "channel": 0,
      "note": 64,
      "start": 87.91,
      "duration": 0.1906,
      "velocity": 94,
      "chip": "ym2612"
    },
    {
      "channel": 1,
      "note": 73,
      "start": 88.0131,
      "duration": 0.1883,
      "velocity": 115,
      "chip": "ym2612"
    },
    {
      "channel": 2,
      "note": 40,
      "start": 88.0993,
      "duration": 0.2036,
      "velocity": 103,
      "chip": "ym2612"
    },
    {
      "channel": 0,
      "note": 71,
      "start": 88.1154,
      "duration": 0.0159,
      "velocity": 94,
      "chip": "ym2612"
    },
    {
      "channel": 1,
      "note": 75,
      "start": 88.2203,
      "duration": 0.189,
      "velocity": 115,
      "chip": "ym2612"
    },
    {
      "channel": 2,
      "note": 47,
      "start": 88.408,
      "duration": 0.204,
      "velocity": 103,
      "chip": "ym2612"
    },
    {
      "channel": 1,
      "note": 70,
      "start": 88.4246,
      "duration": 0.1869,
      "velocity": 115,
      "chip": "ym2612"
    },
    {
      "channel": 0,
      "note": 71,
      "start": 88.5269,
      "duration": 0.191,
      "velocity": 94,
      "chip": "ym2612"
    },
    {
      "channel": 1,
      "note": 73,
      "start": 88.6303,
      "duration": 0.0881,
      "velocity": 115,
      "chip": "ym2612"
    },
    {
      "channel": 2,
      "note": 52,
      "start": 88.7166,
      "duration": 0.135,
      "velocity": 103,
      "chip": "ym2612"
    },
    {
      "channel": 0,
      "note": 70,
      "start": 88.7326,
      "duration": 0.191,
      "velocity": 94,
      "chip": "ym2612"
    },
    {
      "channel": 1,
      "note": 70,
      "start": 88.7359,
      "duration": 0.0814,
      "velocity": 115,
      "chip": "ym2612"
    },
    {
      "channel": 1,
      "note": 75,
      "start": 88.8361,
      "duration": 0.088,
      "velocity": 115,
      "chip": "ym2612"
    },
    {
      "channel": 2,
      "note": 37,
      "start": 88.9224,
      "duration": 0.135,
      "velocity": 103,
      "chip": "ym2612"
    },
    {
      "channel": 0,
      "note": 68,
      "start": 88.9384,
      "duration": 1.1476,
      "velocity": 94,
      "chip": "ym2612"
    },
    {
      "channel": 1,
      "note": 78,
      "start": 88.9417,
      "duration": 0.0814,
      "velocity": 115,
      "chip": "ym2612"
    },
    {
      "channel": 1,
      "note": 80,
      "start": 89.0419,
      "duration": 0.0875,
      "velocity": 115,
      "chip": "ym2612"
    },
    {
      "channel": 2,
      "note": 56,
      "start": 89.1282,
      "duration": 0.2039,
      "velocity": 103,
      "chip": "ym2612"
    },
    {
      "channel": 1,
      "note": 63,
      "start": 89.1447,
      "duration": 0.1869,
      "velocity": 115,
      "chip": "ym2612"
    },
    {
      "channel": 1,
      "note": 68,
      "start": 89.3506,
      "duration": 0.0875,
      "velocity": 115,
      "chip": "ym2612"
    },
    {
      "channel": 2,
      "note": 51,
      "start": 89.4368,
      "duration": 0.2039,
      "velocity": 103,
      "chip": "ym2612"
    },
    {
      "channel": 1,
      "note": 75,
      "start": 89.4534,
      "duration": 0.1868,
      "velocity": 115,
      "chip": "ym2612"
    },
    {
      "channel": 1,
      "note": 73,
      "start": 89.6591,
      "duration": 0.1869,
      "velocity": 115,
      "chip": "ym2612"
    },
    {
      "channel": 2,
      "note": 49,
      "start": 89.7454,
      "duration": 0.2036,
      "velocity": 103,
      "chip": "ym2612"
    },
    {
      "channel": 1,
      "note": 75,
      "start": 89.8649,
      "duration": 0.1905,
      "velocity": 115,
      "chip": "ym2612"
    },
    {
      "channel": 2,
      "note": 51,
      "start": 90.0541,
      "duration": 0.2039,
      "velocity": 103,
      "chip": "ym2612"
    },
    {
      "channel": 1,
      "note": 70,
      "start": 90.0707,
      "duration": 0.1868,
      "velocity": 115,
      "chip": "ym2612"
    },
    {
      "channel": 1,
      "note": 73,
      "start": 90.2765,
      "duration": 0.0875,
      "velocity": 115,
      "chip": "ym2612"
    },
    {
      "channel": 2,
      "note": 56,
      "start": 90.3627,
      "duration": 0.135,
      "velocity": 103,
      "chip": "ym2612"
    },
    {
      "channel": 0,
      "note": 75,
      "start": 90.3788,
      "duration": 0.191,
      "velocity": 94,
      "chip": "ym2612"
    },
    {
      "channel": 1,
      "note": 68,
      "start": 90.382,
      "duration": 0.1883,
      "velocity": 115,
      "chip": "ym2612"
    },
    {
      "channel": 2,
      "note": 49,
      "start": 90.5685,
      "duration": 0.135,
      "velocity": 103,
      "chip": "ym2612"
    },
    {
      "channel": 1,
      "note": 70,
      "start": 90.5865,
      "duration": 0.1891,
      "velocity": 115,
      "chip": "ym2612"
    },
    {
      "channel": 2,
      "note": 54,
      "start": 90.7743,
      "duration": 0.204,
      "velocity": 103,
      "chip": "ym2612"
    },
    {
      "channel": 0,
      "note": 70,
      "start": 90.7903,
      "duration": 1.1476,
      "velocity": 94,
      "chip": "ym2612"
    },
    {
      "channel": 1,
      "note": 63,
      "start": 90.7936,
      "duration": 0.1842,
      "velocity": 115,
      "chip": "ym2612"
    },
    {
      "channel": 1,
      "note": 68,
      "start": 90.9966,
      "duration": 0.0877,
      "velocity": 115,
      "chip": "ym2612"
    },
    {
      "channel": 2,
      "note": 49,
      "start": 91.0829,
      "duration": 0.2041,
      "velocity": 103,
      "chip": "ym2612"
    },
    {
      "channel": 1,
      "note": 75,
      "start": 91.0995,
      "duration": 0.187,
      "velocity": 115,
      "chip": "ym2612"
    },
    {
      "channel": 1,
      "note": 73,
      "start": 91.3053,
      "duration": 0.1869,
      "velocity": 115,
      "chip": "ym2612"
    },
    {
      "channel": 2,
      "note": 42,
      "start": 91.3915,
      "duration": 0.2036,
      "velocity": 103,
      "chip": "ym2612"
    },
    {
      "channel": 1,
      "note": 75,
      "start": 91.511,
      "duration": 0.1905,
      "velocity": 115,
      "chip": "ym2612"
    },
    {
      "channel": 2,
      "note": 49,
      "start": 91.7002,
      "duration": 0.2041,
      "velocity": 103,
      "chip": "ym2612"
    },
    {
      "channel": 1,
      "note": 70,
      "start": 91.7168,
      "duration": 0.187,
      "velocity": 115,
      "chip": "ym2612"
    },
    {
      "channel": 1,
      "note": 73,
      "start": 91.9226,
      "duration": 0.0875,
      "velocity": 115,
      "chip": "ym2612"
    },
    {
      "channel": 2,
      "note": 54,
      "start": 92.0089,
      "duration": 0.135,
      "velocity": 103,
      "chip": "ym2612"
    },
    {
      "channel": 1,
      "note": 68,
      "start": 92.0259,
      "duration": 0.1901,
      "velocity": 115,
      "chip": "ym2612"
    },
    {
      "channel": 2,
      "note": 42,
      "start": 92.2146,
      "duration": 0.1368,
      "velocity": 103,
      "chip": "ym2612"
    },
    {
      "channel": 0,
      "note": 70,
      "start": 92.2418,
      "duration": 0.0751,
      "velocity": 87,
      "chip": "ym2612"
    },
    {
      "channel": 1,
      "note": 70,
      "start": 92.245,
      "duration": 0.1789,
      "velocity": 115,
      "chip": "ym2612"
    },
    {
      "channel": 0,
      "note": 71,
      "start": 92.3354,
      "duration": 0.0881,
      "velocity": 87,
      "chip": "ym2612"
    },
    {
      "channel": 2,
      "note": 37,
      "start": 92.4222,
      "duration": 0.2061,
      "velocity": 103,
      "chip": "ym2612"
    },
    {
      "channel": 0,
      "note": 73,
      "start": 92.4492,
      "duration": 1.1387,
      "velocity": 94,
      "chip": "ym2612"
    },
    {
      "channel": 1,
      "note": 63,
      "start": 92.4525,
      "duration": 0.1752,
      "velocity": 115,
      "chip": "ym2612"
    },
    {
      "channel": 1,
      "note": 68,
      "start": 92.6467,
      "duration": 0.0876,
      "velocity": 115,
      "chip": "ym2612"
    },
    {
      "channel": 2,
      "note": 44,
      "start": 92.7329,
      "duration": 0.2041,
      "velocity": 103,
      "chip": "ym2612"
    },
    {
      "channel": 1,
      "note": 75,
      "start": 92.7495,
      "duration": 0.187,
      "velocity": 115,
      "chip": "ym2612"
    },
    {
      "channel": 1,
      "note": 73,
      "start": 92.9553,
      "duration": 0.1869,
      "velocity": 115,
      "chip": "ym2612"
    },
    {
      "channel": 2,
      "note": 49,
      "start": 93.0416,
      "duration": 0.2036,
      "velocity": 103,
      "chip": "ym2612"
    },
    {
      "channel": 1,
      "note": 75,
      "start": 93.1611,
      "duration": 0.1905,
      "velocity": 115,
      "chip": "ym2612"
    },
    {
      "channel": 2,
      "note": 44,
      "start": 93.3502,
      "duration": 0.204,
      "velocity": 103,
      "chip": "ym2612"
    },
    {
      "channel": 1,
      "note": 70,
      "start": 93.3668,
      "duration": 0.1869,
      "velocity": 115,
      "chip": "ym2612"
    },
    {
      "channel": 1,
      "note": 73,
      "start": 93.5726,
      "duration": 0.0875,
      "velocity": 115,
      "chip": "ym2612"
    },
    {
      "channel": 2,
      "note": 39,
      "start": 93.6589,
      "duration": 0.135,
      "velocity": 103,
      "chip": "ym2612"
    },
    {
      "channel": 1,
      "note": 68,
      "start": 93.6759,
      "duration": 0.1901,
      "velocity": 115,
      "chip": "ym2612"
    },
    {
      "channel": 2,
      "note": 44,
      "start": 93.8646,
      "duration": 0.1368,
      "velocity": 103,
      "chip": "ym2612"
    },
    {
      "channel": 0,
      "note": 73,
      "start": 93.8918,
      "duration": 0.0751,
      "velocity": 87,
      "chip": "ym2612"
    },
    {
      "channel": 1,
      "note": 70,
      "start": 93.895,
      "duration": 0.1789,
      "velocity": 115,
      "chip": "ym2612"
    },
    {
      "channel": 0,
      "note": 75,
      "start": 93.9854,
      "duration": 0.0881,
      "velocity": 87,
      "chip": "ym2612"
    },
    {
      "channel": 2,
      "note": 52,
      "start": 94.0722,
      "duration": 0.2066,
      "velocity": 103,
      "chip": "ym2612"
    },
    {
      "channel": 0,
      "note": 75,
      "start": 94.0992,
      "duration": 0.005,
      "velocity": 94,
      "chip": "ym2612"
    },
    {
      "channel": 1,
      "note": 63,
      "start": 94.1025,
      "duration": 0.1757,
      "velocity": 115,
      "chip": "ym2612"
    },
    {
      "channel": 0,
      "note": 75,
      "start": 94.2966,
      "duration": 0.1874,
      "velocity": 94,
      "chip": "ym2612"
    },
    {
      "channel": 1,
      "note": 68,
      "start": 94.2998,
      "duration": 0.085,
      "velocity": 115,
      "chip": "ym2612"
    },
    {
      "channel": 2,
      "note": 47,
      "start": 94.3834,
      "duration": 0.204,
      "velocity": 103,
      "chip": "ym2612"
    },
    {
      "channel": 1,
      "note": 75,
      "start": 94.4,
      "duration": 0.1869,
      "velocity": 115,
      "chip": "ym2612"
    },
    {
      "channel": 0,
      "note": 73,
      "start": 94.5023,
      "duration": 0.191,
      "velocity": 94,
      "chip": "ym2612"
    },
    {
      "channel": 1,
      "note": 73,
      "start": 94.6058,
      "duration": 0.1868,
      "velocity": 115,
      "chip": "ym2612"
    },
    {
      "channel": 2,
      "note": 40,
      "start": 94.692,
      "duration": 0.2036,
      "velocity": 103,
      "chip": "ym2612"
    },
    {
      "channel": 0,
      "note": 76,
      "start": 94.7081,
      "duration": 0.0015,
      "velocity": 94,
      "chip": "ym2612"
    },
    {
      "channel": 1,
      "note": 75,
      "start": 94.8129,
      "duration": 0.189,
      "velocity": 115,
      "chip": "ym2612"
    },
    {
      "channel": 2,
      "note": 47,
      "start": 95.0007,
      "duration": 0.2041,
      "velocity": 103,
      "chip": "ym2612"
    },
    {
      "channel": 1,
      "note": 70,
      "start": 95.0173,
      "duration": 0.1869,
      "velocity": 115,
      "chip": "ym2612"
    },
    {
      "channel": 0,
      "note": 76,
      "start": 95.1196,
      "duration": 0.191,
      "velocity": 94,
      "chip": "ym2612"
    },
    {
      "channel": 1,
      "note": 73,
      "start": 95.2231,
      "duration": 0.088,
      "velocity": 115,
      "chip": "ym2612"
    },
    {
      "channel": 2,
      "note": 52,
      "start": 95.3093,
      "duration": 0.135,
      "velocity": 103,
      "chip": "ym2612"
    },
    {
      "channel": 0,
      "note": 78,
      "start": 95.3254,
      "duration": 0.1909,
      "velocity": 94,
      "chip": "ym2612"
    },
    {
      "channel": 1,
      "note": 70,
      "start": 95.3287,
      "duration": 0.0813,
      "velocity": 115,
      "chip": "ym2612"
    },
    {
      "channel": 1,
      "note": 75,
      "start": 95.4289,
      "duration": 0.088,
      "velocity": 115,
      "chip": "ym2612"
    },
    {
      "channel": 2,
      "note": 37,
      "start": 95.5151,
      "duration": 0.1349,
      "velocity": 103,
      "chip": "ym2612"
    },
    {
      "channel": 0,
      "note": 78,
      "start": 95.5312,
      "duration": 0.0845,
      "velocity": 94,
      "chip": "ym2612"
    },
    {
      "channel": 1,
      "note": 78,
      "start": 95.5344,
      "duration": 0.0817,
      "velocity": 115,
      "chip": "ym2612"
    },
    {
      "channel": 1,
      "note": 80,
      "start": 95.636,
      "duration": 0.0861,
      "velocity": 115,
      "chip": "ym2612"
    },
    {
      "channel": 2,
      "note": 56,
      "start": 95.7209,
      "duration": 0.204,
      "velocity": 103,
      "chip": "ym2612"
    },
    {
      "channel": 1,
      "note": 63,
      "start": 95.7389,
      "duration": 0.1854,
      "velocity": 115,
      "chip": "ym2612"
    },
    {
      "channel": 1,
      "note": 68,
      "start": 95.9432,
      "duration": 0.0876,
      "velocity": 115,
      "chip": "ym2612"
    },
    {
      "channel": 2,
      "note": 51,
      "start": 96.0294,
      "duration": 0.2041,
      "velocity": 103,
      "chip": "ym2612"
    },
    {
      "channel": 1,
      "note": 75,
      "start": 96.0461,
      "duration": 0.1869,
      "velocity": 115,
      "chip": "ym2612"
    },
    {
      "channel": 1,
      "note": 73,
      "start": 96.2519,
      "duration": 0.1868,
      "velocity": 115,
      "chip": "ym2612"
    },
    {
      "channel": 2,
      "note": 49,
      "start": 96.3382,
      "duration": 0.2036,
      "velocity": 103,
      "chip": "ym2612"
    },
    {
      "channel": 1,
      "note": 75,
      "start": 96.4576,
      "duration": 0.1904,
      "velocity": 115,
      "chip": "ym2612"
    },
    {
      "channel": 2,
      "note": 51,
      "start": 96.6467,
      "duration": 0.204,
      "velocity": 103,
      "chip": "ym2612"
    },
    {
      "channel": 1,
      "note": 70,
      "start": 96.6634,
      "duration": 0.1869,
      "velocity": 115,
      "chip": "ym2612"
    },
    {
      "channel": 1,
      "note": 73,
      "start": 96.8691,
      "duration": 0.0875,
      "velocity": 115,
      "chip": "ym2612"
    },
    {
      "channel": 2,
      "note": 56,
      "start": 96.9554,
      "duration": 0.1366,
      "velocity": 103,
      "chip": "ym2612"
    },
    {
      "channel": 0,
      "note": 71,
      "start": 96.9824,
      "duration": 0.0752,
      "velocity": 87,
      "chip": "ym2612"
    },
    {
      "channel": 1,
      "note": 68,
      "start": 96.9857,
      "duration": 0.1788,
      "velocity": 115,
      "chip": "ym2612"
    },
    {
      "channel": 0,
      "note": 75,
      "start": 97.076,
      "duration": 0.088,
      "velocity": 87,
      "chip": "ym2612"
    },
    {
      "channel": 2,
      "note": 49,
      "start": 97.1628,
      "duration": 0.1366,
      "velocity": 103,
      "chip": "ym2612"
    },
    {
      "channel": 0,
      "note": 80,
      "start": 97.1899,
      "duration": 0.1816,
      "velocity": 94,
      "chip": "ym2612"
    },
    {
      "channel": 1,
      "note": 70,
      "start": 97.1931,
      "duration": 0.1789,
      "velocity": 115,
      "chip": "ym2612"
    },
    {
      "channel": 2,
      "note": 54,
      "start": 97.3702,
      "duration": 0.2041,
      "velocity": 103,
      "chip": "ym2612"
    },
    {
      "channel": 0,
      "note": 77,
      "start": 97.3863,
      "duration": 0.0159,
      "velocity": 94,
      "chip": "ym2612"
    },
    {
      "channel": 1,
      "note": 63,
      "start": 97.3895,
      "duration": 0.1842,
      "velocity": 115,
      "chip": "ym2612"
    },
    {
      "channel": 1,
      "note": 68,
      "start": 97.5926,
      "duration": 0.0876,
      "velocity": 115,
      "chip": "ym2612"
    },
    {
      "channel": 2,
      "note": 49,
      "start": 97.6789,
      "duration": 0.204,
      "velocity": 103,
      "chip": "ym2612"
    },
    {
      "channel": 1,
      "note": 75,
      "start": 97.6955,
      "duration": 0.1869,
      "velocity": 115,
      "chip": "ym2612"
    },
    {
      "channel": 1,
      "note": 73,
      "start": 97.9013,
      "duration": 0.1868,
      "velocity": 115,
      "chip": "ym2612"
    },
    {
      "channel": 2,
      "note": 42,
      "start": 97.9876,
      "duration": 0.2035,
      "velocity": 103,
      "chip": "ym2612"
    },
    {
      "channel": 1,
      "note": 75,
      "start": 98.1071,
      "duration": 0.1904,
      "velocity": 115,
      "chip": "ym2612"
    },
    {
      "channel": 2,
      "note": 49,
      "start": 98.2962,
      "duration": 0.204,
      "velocity": 103,
      "chip": "ym2612"
    },
    {
      "channel": 1,
      "note": 70,
      "start": 98.3128,
      "duration": 0.1868,
      "velocity": 115,
      "chip": "ym2612"
    },
    {
      "channel": 1,
      "note": 73,
      "start": 98.5186,
      "duration": 0.0876,
      "velocity": 115,
      "chip": "ym2612"
    },
    {
      "channel": 2,
      "note": 54,
      "start": 98.6048,
      "duration": 0.135,
      "velocity": 103,
      "chip": "ym2612"
    },
    {
      "channel": 1,
      "note": 68,
      "start": 98.6214,
      "duration": 0.1905,
      "velocity": 115,
      "chip": "ym2612"
    },
    {
      "channel": 2,
      "note": 42,
      "start": 98.8106,
      "duration": 0.1366,
      "velocity": 103,
      "chip": "ym2612"
    },
    {
      "channel": 0,
      "note": 77,
      "start": 98.8377,
      "duration": 0.0751,
      "velocity": 87,
      "chip": "ym2612"
    },
    {
      "channel": 1,
      "note": 70,
      "start": 98.841,
      "duration": 0.1789,
      "velocity": 115,
      "chip": "ym2612"
    },
    {
      "channel": 0,
      "note": 78,
      "start": 98.9312,
      "duration": 0.0881,
      "velocity": 87,
      "chip": "ym2612"
    },
    {
      "channel": 2,
      "note": 37,
      "start": 99.018,
      "duration": 0.2061,
      "velocity": 103,
      "chip": "ym2612"
    },
    {
      "channel": 0,
      "note": 77,
      "start": 99.0451,
      "duration": 1.5159,
      "velocity": 94,
      "chip": "ym2612"
    },
    {
      "channel": 1,
      "note": 63,
      "start": 99.0483,
      "duration": 0.1753,
      "velocity": 115,
      "chip": "ym2612"
    },
    {
      "channel": 1,
      "note": 68,
      "start": 99.2425,
      "duration": 0.0875,
      "velocity": 115,
      "chip": "ym2612"
    },
    {
      "channel": 2,
      "note": 44,
      "start": 99.3288,
      "duration": 0.204,
      "velocity": 103,
      "chip": "ym2612"
    },
    {
      "channel": 1,
      "note": 75,
      "start": 99.3454,
      "duration": 0.1869,
      "velocity": 115,
      "chip": "ym2612"
    },
    {
      "channel": 1,
      "note": 73,
      "start": 99.5512,
      "duration": 0.1868,
      "velocity": 115,
      "chip": "ym2612"
    },
    {
      "channel": 2,
      "note": 49,
      "start": 99.6375,
      "duration": 0.2035,
      "velocity": 103,
      "chip": "ym2612"
    },
    {
      "channel": 1,
      "note": 75,
      "start": 99.7568,
      "duration": 0.1905,
      "velocity": 115,
      "chip": "ym2612"
    },
    {
      "channel": 2,
      "note": 44,
      "start": 99.9461,
      "duration": 0.2039,
      "velocity": 103,
      "chip": "ym2612"
    },
    {
      "channel": 1,
      "note": 70,
      "start": 99.9627,
      "duration": 0.1868,
      "velocity": 115,
      "chip": "ym2612"
    },
    {
      "channel": 1,
      "note": 73,
      "start": 100.1684,
      "duration": 0.0875,
      "velocity": 115,
      "chip": "ym2612"
    },
    {
      "channel": 2,
      "note": 39,
      "start": 100.2547,
      "duration": 0.1349,
      "velocity": 103,
      "chip": "ym2612"
    },
    {
      "channel": 1,
      "note": 68,
      "start": 100.2712,
      "duration": 0.1905,
      "velocity": 115,
      "chip": "ym2612"
    },
    {
      "channel": 2,
      "note": 44,
      "start": 100.4604,
      "duration": 0.1349,
      "velocity": 103,
      "chip": "ym2612"
    },
    {
      "channel": 1,
      "note": 70,
      "start": 100.477,
      "duration": 0.1905,
      "velocity": 115,
      "chip": "ym2612"
    },
    {
      "channel": 2,
      "note": 52,
      "start": 100.6661,
      "duration": 0.2062,
      "velocity": 103,
      "chip": "ym2612"
    },
    {
      "channel": 0,
      "note": 75,
      "start": 100.6932,
      "duration": 0.0756,
      "velocity": 94,
      "chip": "ym2612"
    },
    {
      "channel": 1,
      "note": 63,
      "start": 100.6965,
      "duration": 0.1753,
      "velocity": 115,
      "chip": "ym2612"
    },
    {
      "channel": 1,
      "note": 68,
      "start": 100.8907,
      "duration": 0.0876,
      "velocity": 115,
      "chip": "ym2612"
    },
    {
      "channel": 2,
      "note": 47,
      "start": 100.977,
      "duration": 0.204,
      "velocity": 103,
      "chip": "ym2612"
    },
    {
      "channel": 1,
      "note": 75,
      "start": 100.9936,
      "duration": 0.1869,
      "velocity": 115,
      "chip": "ym2612"
    },
    {
      "channel": 1,
      "note": 73,
      "start": 101.1993,
      "duration": 0.1869,
      "velocity": 115,
      "chip": "ym2612"
    },
    {
      "channel": 2,
      "note": 40,
      "start": 101.2857,
      "duration": 0.2035,
      "velocity": 103,
      "chip": "ym2612"
    },
    {
      "channel": 1,
      "note": 75,
      "start": 101.4051,
      "duration": 0.1919,
      "velocity": 115,
      "chip": "ym2612"
    },
    {
      "channel": 0,
      "note": 73,
      "start": 101.5074,
      "duration": 0.0014,
      "velocity": 94,
      "chip": "ym2612"
    },
    {
      "channel": 2,
      "note": 47,
      "start": 101.5957,
      "duration": 0.2025,
      "velocity": 103,
      "chip": "ym2612"
    },
    {
      "channel": 1,
      "note": 70,
      "start": 101.6123,
      "duration": 0.1854,
      "velocity": 115,
      "chip": "ym2612"
    },
    {
      "channel": 1,
      "note": 73,
      "start": 101.8167,
      "duration": 0.0876,
      "velocity": 115,
      "chip": "ym2612"
    },
    {
      "channel": 2,
      "note": 52,
      "start": 101.903,
      "duration": 0.135,
      "velocity": 103,
      "chip": "ym2612"
    },
    {
      "channel": 0,
      "note": 73,
      "start": 101.919,
      "duration": 0.0845,
      "velocity": 94,
      "chip": "ym2612"
    },
    {
      "channel": 1,
      "note": 70,
      "start": 101.9222,
      "duration": 0.0818,
      "velocity": 115,
      "chip": "ym2612"
    },
    {
      "channel": 1,
      "note": 75,
      "start": 102.0229,
      "duration": 0.0871,
      "velocity": 115,
      "chip": "ym2612"
    },
    {
      "channel": 2,
      "note": 37,
      "start": 102.1087,
      "duration": 0.1349,
      "velocity": 103,
      "chip": "ym2612"
    },
    {
      "channel": 1,
      "note": 78,
      "start": 102.1253,
      "duration": 0.084,
      "velocity": 115,
      "chip": "ym2612"
    },
    {
      "channel": 1,
      "note": 80,
      "start": 102.2282,
      "duration": 0.0899,
      "velocity": 115,
      "chip": "ym2612"
    },
    {
      "channel": 2,
      "note": 44,
      "start": 102.3167,
      "duration": 0.8584,
      "velocity": 103,
      "chip": "ym2612"
    },
    {
      "channel": 0,
      "note": 59,
      "start": 102.3451,
      "duration": 0.1955,
      "velocity": 102,
      "chip": "ym2612"
    },
    {
      "channel": 1,
      "note": 63,
      "start": 102.3483,
      "duration": 0.1927,
      "velocity": 115,
      "chip": "ym2612"
    },
    {
      "channel": 3,
      "note": 56,
      "start": 102.3659,
      "duration": 0.1758,
      "velocity": 102,
      "chip": "ym2612"
    },
    {
      "channel": 0,
      "note": 59,
      "start": 102.5598,
      "duration": 0.0836,
      "velocity": 102,
      "chip": "ym2612"
    },
    {
      "channel": 1,
      "note": 68,
      "start": 102.563,
      "duration": 0.0809,
      "velocity": 115,
      "chip": "ym2612"
    },
    {
      "channel": 3,
      "note": 56,
      "start": 102.5669,
      "duration": 0.0776,
      "velocity": 102,
      "chip": "ym2612"
    },
    {
      "channel": 0,
      "note": 59,
      "start": 102.6627,
      "duration": 0.1864,
      "velocity": 102,
      "chip": "ym2612"
    },
    {
      "channel": 1,
      "note": 75,
      "start": 102.6659,
      "duration": 0.1838,
      "velocity": 115,
      "chip": "ym2612"
    },
    {
      "channel": 3,
      "note": 56,
      "start": 102.6698,
      "duration": 0.1805,
      "velocity": 102,
      "chip": "ym2612"
    },
    {
      "channel": 0,
      "note": 58,
      "start": 102.8684,
      "duration": 0.1865,
      "velocity": 102,
      "chip": "ym2612"
    },
    {
      "channel": 1,
      "note": 73,
      "start": 102.8717,
      "duration": 0.1838,
      "velocity": 115,
      "chip": "ym2612"
    },
    {
      "channel": 3,
      "note": 54,
      "start": 102.8755,
      "duration": 0.1805,
      "velocity": 102,
      "chip": "ym2612"
    },
    {
      "channel": 0,
      "note": 59,
      "start": 103.0742,
      "duration": 0.1864,
      "velocity": 102,
      "chip": "ym2612"
    },
    {
      "channel": 1,
      "note": 75,
      "start": 103.0774,
      "duration": 0.1838,
      "velocity": 115,
      "chip": "ym2612"
    },
    {
      "channel": 3,
      "note": 56,
      "start": 103.0812,
      "duration": 0.1805,
      "velocity": 102,
      "chip": "ym2612"
    },
    {
      "channel": 0,
      "note": 61,
      "start": 103.28,
      "duration": 0.1864,
      "velocity": 102,
      "chip": "ym2612"
    },
    {
      "channel": 1,
      "note": 70,
      "start": 103.2831,
      "duration": 0.1838,
      "velocity": 115,
      "chip": "ym2612"
    },
    {
      "channel": 3,
      "note": 58,
      "start": 103.287,
      "duration": 0.1805,
      "velocity": 102,
      "chip": "ym2612"
    },
    {
      "channel": 0,
      "note": 58,
      "start": 103.4857,
      "duration": 0.0875,
      "velocity": 102,
      "chip": "ym2612"
    },
    {
      "channel": 1,
      "note": 73,
      "start": 103.4889,
      "duration": 0.0849,
      "velocity": 115,
      "chip": "ym2612"
    },
    {
      "channel": 3,
      "note": 54,
      "start": 103.4927,
      "duration": 0.0816,
      "velocity": 102,
      "chip": "ym2612"
    },
    {
      "channel": 2,
      "note": 35,
      "start": 103.5719,
      "duration": 0.0318,
      "velocity": 103,
      "chip": "ym2612"
    },
    {
      "channel": 0,
      "note": 59,
      "start": 103.5885,
      "duration": 0.1901,
      "velocity": 102,
      "chip": "ym2612"
    },
    {
      "channel": 1,
      "note": 68,
      "start": 103.5918,
      "duration": 0.1873,
      "velocity": 115,
      "chip": "ym2612"
    },
    {
      "channel": 3,
      "note": 56,
      "start": 103.5956,
      "duration": 0.1841,
      "velocity": 102,
      "chip": "ym2612"
    },
    {
      "channel": 2,
      "note": 39,
      "start": 103.6745,
      "duration": 0.0321,
      "velocity": 103,
      "chip": "ym2612"
    },
    {
      "channel": 2,
      "note": 44,
      "start": 103.7774,
      "duration": 0.0835,
      "velocity": 103,
      "chip": "ym2612"
    },
    {
      "channel": 0,
      "note": 61,
      "start": 103.7943,
      "duration": 0.1904,
      "velocity": 102,
      "chip": "ym2612"
    },
    {
      "channel": 1,
      "note": 70,
      "start": 103.7975,
      "duration": 0.1878,
      "velocity": 115,
      "chip": "ym2612"
    },
    {
      "channel": 3,
      "note": 58,
      "start": 103.8014,
      "duration": 0.1845,
      "velocity": 102,
      "chip": "ym2612"
    },
    {
      "channel": 2,
      "note": 42,
      "start": 103.9835,
      "duration": 1.1565,
      "velocity": 103,
      "chip": "ym2612"
    },
    {
      "channel": 0,
      "note": 59,
      "start": 104.0,
      "duration": 0.1865,
      "velocity": 102,
      "chip": "ym2612"
    },
    {
      "channel": 1,
      "note": 63,
      "start": 104.0033,
      "duration": 0.1838,
      "velocity": 115,
      "chip": "ym2612"
    },
    {
      "channel": 3,
      "note": 56,
      "start": 104.0071,
      "duration": 0.1805,
      "velocity": 102,
      "chip": "ym2612"
    },
    {
      "channel": 0,
      "note": 59,
      "start": 104.2059,
      "duration": 0.0835,
      "velocity": 102,
      "chip": "ym2612"
    },
    {
      "channel": 1,
      "note": 68,
      "start": 104.209,
      "duration": 0.0809,
      "velocity": 115,
      "chip": "ym2612"
    },
    {
      "channel": 3,
      "note": 56,
      "start": 104.2128,
      "duration": 0.0777,
      "velocity": 102,
      "chip": "ym2612"
    },
    {
      "channel": 0,
      "note": 59,
      "start": 104.3087,
      "duration": 0.1864,
      "velocity": 102,
      "chip": "ym2612"
    },
    {
      "channel": 1,
      "note": 75,
      "start": 104.3119,
      "duration": 0.1838,
      "velocity": 115,
      "chip": "ym2612"
    },
    {
      "channel": 3,
      "note": 56,
      "start": 104.3157,
      "duration": 0.1805,
      "velocity": 102,
      "chip": "ym2612"
    },
    {
      "channel": 0,
      "note": 58,
      "start": 104.5144,
      "duration": 0.1865,
      "velocity": 102,
      "chip": "ym2612"
    },
    {
      "channel": 1,
      "note": 73,
      "start": 104.5177,
      "duration": 0.1838,
      "velocity": 115,
      "chip": "ym2612"
    },
    {
      "channel": 3,
      "note": 54,
      "start": 104.5215,
      "duration": 0.1805,
      "velocity": 102,
      "chip": "ym2612"
    },
    {
      "channel": 0,
      "note": 59,
      "start": 104.7202,
      "duration": 0.1864,
      "velocity": 102,
      "chip": "ym2612"
    },
    {
      "channel": 1,
      "note": 75,
      "start": 104.7234,
      "duration": 0.1838,
      "velocity": 115,
      "chip": "ym2612"
    },
    {
      "channel": 3,
      "note": 56,
      "start": 104.7272,
      "duration": 0.1805,
      "velocity": 102,
      "chip": "ym2612"
    },
    {
      "channel": 0,
      "note": 61,
      "start": 104.9259,
      "duration": 0.1864,
      "velocity": 102,
      "chip": "ym2612"
    },
    {
      "channel": 1,
      "note": 70,
      "start": 104.9291,
      "duration": 0.1838,
      "velocity": 115,
      "chip": "ym2612"
    },
    {
      "channel": 3,
      "note": 58,
      "start": 104.9329,
      "duration": 0.1805,
      "velocity": 102,
      "chip": "ym2612"
    },
    {
      "channel": 0,
      "note": 58,
      "start": 105.1317,
      "duration": 0.084,
      "velocity": 102,
      "chip": "ym2612"
    },
    {
      "channel": 1,
      "note": 73,
      "start": 105.1349,
      "duration": 0.0812,
      "velocity": 115,
      "chip": "ym2612"
    },
    {
      "channel": 3,
      "note": 54,
      "start": 105.1387,
      "duration": 0.078,
      "velocity": 102,
      "chip": "ym2612"
    },
    {
      "channel": 0,
      "note": 59,
      "start": 105.2345,
      "duration": 0.1904,
      "velocity": 102,
      "chip": "ym2612"
    },
    {
      "channel": 1,
      "note": 68,
      "start": 105.2378,
      "duration": 0.1877,
      "velocity": 115,
      "chip": "ym2612"
    },
    {
      "channel": 3,
      "note": 56,
      "start": 105.2416,
      "duration": 0.1845,
      "velocity": 102,
      "chip": "ym2612"
    },
    {
      "channel": 2,
      "note": 41,
      "start": 105.4237,
      "duration": 0.0317,
      "velocity": 103,
      "chip": "ym2612"
    },
    {
      "channel": 0,
      "note": 61,
      "start": 105.4403,
      "duration": 0.1904,
      "velocity": 102,
      "chip": "ym2612"
    },
    {
      "channel": 1,
      "note": 70,
      "start": 105.4435,
      "duration": 0.1877,
      "velocity": 115,
      "chip": "ym2612"
    },
    {
      "channel": 3,
      "note": 58,
      "start": 105.4473,
      "duration": 0.1845,
      "velocity": 102,
      "chip": "ym2612"
    },
    {
      "channel": 2,
      "note": 42,
      "start": 105.5262,
      "duration": 0.0321,
      "velocity": 103,
      "chip": "ym2612"
    },
    {
      "channel": 2,
      "note": 41,
      "start": 105.6294,
      "duration": 1.5235,
      "velocity": 103,
      "chip": "ym2612"
    },
    {
      "channel": 0,
      "note": 59,
      "start": 105.6461,
      "duration": 0.1864,
      "velocity": 102,
      "chip": "ym2612"
    },
    {
      "channel": 1,
      "note": 63,
      "start": 105.6492,
      "duration": 0.1838,
      "velocity": 115,
      "chip": "ym2612"
    },
    {
      "channel": 3,
      "note": 56,
      "start": 105.6531,
      "duration": 0.1805,
      "velocity": 102,
      "chip": "ym2612"
    },
    {
      "channel": 0,
      "note": 59,
      "start": 105.8518,
      "duration": 0.0836,
      "velocity": 102,
      "chip": "ym2612"
    },
    {
      "channel": 1,
      "note": 68,
      "start": 105.855,
      "duration": 0.0809,
      "velocity": 115,
      "chip": "ym2612"
    },
    {
      "channel": 3,
      "note": 56,
      "start": 105.8588,
      "duration": 0.0777,
      "velocity": 102,
      "chip": "ym2612"
    },
    {
      "channel": 0,
      "note": 59,
      "start": 105.9547,
      "duration": 0.1864,
      "velocity": 102,
      "chip": "ym2612"
    },
    {
      "channel": 1,
      "note": 75,
      "start": 105.9579,
      "duration": 0.1838,
      "velocity": 115,
      "chip": "ym2612"
    },
    {
      "channel": 3,
      "note": 56,
      "start": 105.9617,
      "duration": 0.1805,
      "velocity": 102,
      "chip": "ym2612"
    },
    {
      "channel": 0,
      "note": 58,
      "start": 106.1604,
      "duration": 0.1864,
      "velocity": 102,
      "chip": "ym2612"
    },
    {
      "channel": 1,
      "note": 73,
      "start": 106.1636,
      "duration": 0.1838,
      "velocity": 115,
      "chip": "ym2612"
    },
    {
      "channel": 3,
      "note": 54,
      "start": 106.1675,
      "duration": 0.1805,
      "velocity": 102,
      "chip": "ym2612"
    },
    {
      "channel": 0,
      "note": 59,
      "start": 106.3661,
      "duration": 0.1865,
      "velocity": 102,
      "chip": "ym2612"
    },
    {
      "channel": 1,
      "note": 75,
      "start": 106.3694,
      "duration": 0.1838,
      "velocity": 115,
      "chip": "ym2612"
    },
    {
      "channel": 3,
      "note": 56,
      "start": 106.3732,
      "duration": 0.1806,
      "velocity": 102,
      "chip": "ym2612"
    },
    {
      "channel": 0,
      "note": 61,
      "start": 106.5719,
      "duration": 0.1865,
      "velocity": 102,
      "chip": "ym2612"
    },
    {
      "channel": 1,
      "note": 70,
      "start": 106.5752,
      "duration": 0.1837,
      "velocity": 115,
      "chip": "ym2612"
    },
    {
      "channel": 3,
      "note": 58,
      "start": 106.579,
      "duration": 0.1805,
      "velocity": 102,
      "chip": "ym2612"
    },
    {
      "channel": 0,
      "note": 58,
      "start": 106.7777,
      "duration": 0.0836,
      "velocity": 102,
      "chip": "ym2612"
    },
    {
      "channel": 1,
      "note": 73,
      "start": 106.7809,
      "duration": 0.0808,
      "velocity": 115,
      "chip": "ym2612"
    },
    {
      "channel": 3,
      "note": 54,
      "start": 106.7848,
      "duration": 0.0776,
      "velocity": 102,
      "chip": "ym2612"
    },
    {
      "channel": 0,
      "note": 59,
      "start": 106.8805,
      "duration": 0.1865,
      "velocity": 102,
      "chip": "ym2612"
    },
    {
      "channel": 1,
      "note": 68,
      "start": 106.8838,
      "duration": 0.1837,
      "velocity": 115,
      "chip": "ym2612"
    },
    {
      "channel": 3,
      "note": 56,
      "start": 106.8876,
      "duration": 0.1805,
      "velocity": 102,
      "chip": "ym2612"
    },
    {
      "channel": 0,
      "note": 61,
      "start": 107.0863,
      "duration": 0.1903,
      "velocity": 102,
      "chip": "ym2612"
    },
    {
      "channel": 1,
      "note": 70,
      "start": 107.0895,
      "duration": 0.1877,
      "velocity": 115,
      "chip": "ym2612"
    },
    {
      "channel": 3,
      "note": 58,
      "start": 107.0934,
      "duration": 0.1844,
      "velocity": 102,
      "chip": "ym2612"
    },
    {
      "channel": 2,
      "note": 40,
      "start": 107.2754,
      "duration": 0.5976,
      "velocity": 103,
      "chip": "ym2612"
    },
    {
      "channel": 0,
      "note": 56,
      "start": 107.292,
      "duration": 0.1864,
      "velocity": 102,
      "chip": "ym2612"
    },
    {
      "channel": 1,
      "note": 63,
      "start": 107.2952,
      "duration": 0.1838,
      "velocity": 115,
      "chip": "ym2612"
    },
    {
      "channel": 3,
      "note": 52,
      "start": 107.299,
      "duration": 0.1805,
      "velocity": 102,
      "chip": "ym2612"
    },
    {
      "channel": 0,
      "note": 59,
      "start": 107.4978,
      "duration": 0.0835,
      "velocity": 102,
      "chip": "ym2612"
    },
    {
      "channel": 1,
      "note": 68,
      "start": 107.501,
      "duration": 0.0809,
      "velocity": 115,
      "chip": "ym2612"
    },
    {
      "channel": 3,
      "note": 56,
      "start": 107.5048,
      "duration": 0.0776,
      "velocity": 102,
      "chip": "ym2612"
    },
    {
      "channel": 0,
      "note": 59,
      "start": 107.6006,
      "duration": 0.1864,
      "velocity": 102,
      "chip": "ym2612"
    },
    {
      "channel": 1,
      "note": 75,
      "start": 107.6039,
      "duration": 0.1838,
      "velocity": 115,
      "chip": "ym2612"
    },
    {
      "channel": 3,
      "note": 56,
      "start": 107.6077,
      "duration": 0.1805,
      "velocity": 102,
      "chip": "ym2612"
    },
    {
      "channel": 0,
      "note": 58,
      "start": 107.8064,
      "duration": 0.1864,
      "velocity": 102,
      "chip": "ym2612"
    },
    {
      "channel": 1,
      "note": 73,
      "start": 107.8096,
      "duration": 0.1838,
      "velocity": 115,
      "chip": "ym2612"
    },
    {
      "channel": 3,
      "note": 54,
      "start": 107.8134,
      "duration": 0.1805,
      "velocity": 102,
      "chip": "ym2612"
    },
    {
      "channel": 0,
      "note": 59,
      "start": 108.0121,
      "duration": 0.1865,
      "velocity": 102,
      "chip": "ym2612"
    },
    {
      "channel": 1,
      "note": 75,
      "start": 108.0153,
      "duration": 0.1838,
      "velocity": 115,
      "chip": "ym2612"
    },
    {
      "channel": 3,
      "note": 56,
      "start": 108.0192,
      "duration": 0.1805,
      "velocity": 102,
      "chip": "ym2612"
    },
    {
      "channel": 2,
      "note": 42,
      "start": 108.0981,
      "duration": 0.4437,
      "velocity": 103,
      "chip": "ym2612"
    },
    {
      "channel": 0,
      "note": 61,
      "start": 108.2179,
      "duration": 0.1864,
      "velocity": 102,
      "chip": "ym2612"
    },
    {
      "channel": 1,
      "note": 70,
      "start": 108.2212,
      "duration": 0.1837,
      "velocity": 115,
      "chip": "ym2612"
    },
    {
      "channel": 3,
      "note": 58,
      "start": 108.225,
      "duration": 0.1805,
      "velocity": 102,
      "chip": "ym2612"
    },
    {
      "channel": 0,
      "note": 58,
      "start": 108.424,
      "duration": 0.0318,
      "velocity": 102,
      "chip": "ym2612"
    },
    {
      "channel": 1,
      "note": 73,
      "start": 108.4273,
      "duration": 0.08,
      "velocity": 115,
      "chip": "ym2612"
    },
    {
      "channel": 3,
      "note": 54,
      "start": 108.4315,
      "duration": 0.025,
      "velocity": 102,
      "chip": "ym2612"
    },
    {
      "channel": 0,
      "note": 61,
      "start": 108.5266,
      "duration": 0.0321,
      "velocity": 102,
      "chip": "ym2612"
    },
    {
      "channel": 1,
      "note": 70,
      "start": 108.5298,
      "duration": 0.0804,
      "velocity": 115,
      "chip": "ym2612"
    },
    {
      "channel": 3,
      "note": 58,
      "start": 108.5337,
      "duration": 0.0257,
      "velocity": 102,
      "chip": "ym2612"
    },
    {
      "channel": 0,
      "note": 59,
      "start": 108.6294,
      "duration": 0.0321,
      "velocity": 102,
      "chip": "ym2612"
    },
    {
      "channel": 1,
      "note": 75,
      "start": 108.6327,
      "duration": 0.0839,
      "velocity": 115,
      "chip": "ym2612"
    },
    {
      "channel": 3,
      "note": 56,
      "start": 108.6365,
      "duration": 0.0258,
      "velocity": 102,
      "chip": "ym2612"
    },
    {
      "channel": 2,
      "note": 42,
      "start": 108.7153,
      "duration": 0.135,
      "velocity": 103,
      "chip": "ym2612"
    },
    {
      "channel": 0,
      "note": 61,
      "start": 108.7323,
      "duration": 0.0321,
      "velocity": 102,
      "chip": "ym2612"
    },
    {
      "channel": 1,
      "note": 78,
      "start": 108.7356,
      "duration": 0.0803,
      "velocity": 115,
      "chip": "ym2612"
    },
    {
      "channel": 3,
      "note": 58,
      "start": 108.7394,
      "duration": 0.0258,
      "velocity": 102,
      "chip": "ym2612"
    },
    {
      "channel": 0,
      "note": 63,
      "start": 108.8352,
      "duration": 0.0321,
      "velocity": 102,
      "chip": "ym2612"
    },
    {
      "channel": 1,
      "note": 80,
      "start": 108.8384,
      "duration": 0.0808,
      "velocity": 115,
      "chip": "ym2612"
    },
    {
      "channel": 3,
      "note": 59,
      "start": 108.8422,
      "duration": 0.0258,
      "velocity": 102,
      "chip": "ym2612"
    }
  ]
}