{
  "track_name": "01 - Main Theme (1992)",
  "duration_sec": 110.552,
  "sample_rate": 44100,
  "note_count": 2824,
  "unique_pitches": 40,
  "pitch_range": 72,
  "avg_note_duration": 0.2309,
  "reconstruction_stats": {
    "notes_reconstructed": 2824,
    "keyon_events": 2824,
    "keyoff_events": 2314,
    "orphan_keyons": 6,
    "unique_pitches": 40,
    "pitch_range": 72,
    "avg_duration_sec": 0.2309
  },
  "metadata": {
    "source": "S\\Speedball 2 - Brutal Deluxe\\01 - Main Theme (1992).vgm"
  },
  "notes": [
    {
      "channel": 0,
      "note": 77,
      "start": 0.0,
      "duration": 0.077,
      "velocity": 116,
      "chip": "ym2612"
    },
    {
      "channel": 1,
      "note": 77,
      "start": 0.001,
      "duration": 0.079,
      "velocity": 114,
      "chip": "ym2612"
    },
    {
      "channel": 0,
      "note": 79,
      "start": 0.0771,
      "duration": 0.0799,
      "velocity": 116,
      "chip": "ym2612"
    },
    {
      "channel": 2,
      "note": 79,
      "start": 0.0794,
      "duration": 0.079,
      "velocity": 114,
      "chip": "ym2612"
    },
    {
      "channel": 1,
      "note": 76,
      "start": 0.08,
      "duration": 0.0167,
      "velocity": 114,
      "chip": "ym2612"
    },
    {
      "channel": 1,
      "note": 76,
      "start": 0.0967,
      "duration": 0.0206,
      "velocity": 114,
      "chip": "ym2612"
    },
    {
      "channel": 1,
      "note": 75,
      "start": 0.1173,
      "duration": 0.0194,
      "velocity": 114,
      "chip": "ym2612"
    },
    {
      "channel": 1,
      "note": 74,
      "start": 0.1367,
      "duration": 0.0208,
      "velocity": 114,
      "chip": "ym2612"
    },
    {
      "channel": 0,
      "note": 77,
      "start": 0.1571,
      "duration": 0.0799,
      "velocity": 116,
      "chip": "ym2612"
    },
    {
      "channel": 1,
      "note": 77,
      "start": 0.1577,
      "duration": 0.0807,
      "velocity": 114,
      "chip": "ym2612"
    },
    {
      "channel": 2,
      "note": 78,
      "start": 0.1585,
      "duration": 0.0182,
      "velocity": 114,
      "chip": "ym2612"
    },
    {
      "channel": 2,
      "note": 78,
      "start": 0.1767,
      "duration": 0.0207,
      "velocity": 114,
      "chip": "ym2612"
    },
    {
      "channel": 2,
      "note": 77,
      "start": 0.1974,
      "duration": 0.0193,
      "velocity": 114,
      "chip": "ym2612"
    },
    {
      "channel": 2,
      "note": 76,
      "start": 0.2167,
      "duration": 0.021,
      "velocity": 114,
      "chip": "ym2612"
    },
    {
      "channel": 0,
      "note": 76,
      "start": 0.2372,
      "duration": 0.0798,
      "velocity": 116,
      "chip": "ym2612"
    },
    {
      "channel": 2,
      "note": 76,
      "start": 0.2379,
      "duration": 0.0805,
      "velocity": 114,
      "chip": "ym2612"
    },
    {
      "channel": 1,
      "note": 76,
      "start": 0.2384,
      "duration": 0.0183,
      "velocity": 114,
      "chip": "ym2612"
    },
    {
      "channel": 1,
      "note": 76,
      "start": 0.2567,
      "duration": 0.0206,
      "velocity": 114,
      "chip": "ym2612"
    },
    {
      "channel": 1,
      "note": 75,
      "start": 0.2773,
      "duration": 0.0194,
      "velocity": 114,
      "chip": "ym2612"
    },
    {
      "channel": 1,
      "note": 74,
      "start": 0.2967,
      "duration": 0.0208,
      "velocity": 114,
      "chip": "ym2612"
    },
    {
      "channel": 0,
      "note": 72,
      "start": 0.3171,
      "duration": 0.0799,
      "velocity": 116,
      "chip": "ym2612"
    },
    {
      "channel": 1,
      "note": 72,
      "start": 0.3177,
      "duration": 0.0807,
      "velocity": 114,
      "chip": "ym2612"
    },
    {
      "channel": 2,
      "note": 75,
      "start": 0.3184,
      "duration": 0.0183,
      "velocity": 114,
      "chip": "ym2612"
    },
    {
      "channel": 2,
      "note": 75,
      "start": 0.3367,
      "duration": 0.0206,
      "velocity": 114,
      "chip": "ym2612"
    },
    {
      "channel": 2,
      "note": 74,
      "start": 0.3573,
      "duration": 0.0194,
      "velocity": 114,
      "chip": "ym2612"
    },
    {
      "channel": 2,
      "note": 73,
      "start": 0.3767,
      "duration": 0.021,
      "velocity": 114,
      "chip": "ym2612"
    },
    {
      "channel": 0,
      "note": 74,
      "start": 0.3972,
      "duration": 0.0798,
      "velocity": 116,
      "chip": "ym2612"
    },
    {
      "channel": 2,
      "note": 74,
      "start": 0.3979,
      "duration": 0.0806,
      "velocity": 114,
      "chip": "ym2612"
    },
    {
      "channel": 1,
      "note": 71,
      "start": 0.3984,
      "duration": 0.0183,
      "velocity": 114,
      "chip": "ym2612"
    },
    {
      "channel": 1,
      "note": 70,
      "start": 0.4167,
      "duration": 0.0206,
      "velocity": 114,
      "chip": "ym2612"
    },
    {
      "channel": 1,
      "note": 69,
      "start": 0.4373,
      "duration": 0.0194,
      "velocity": 114,
      "chip": "ym2612"
    },
    {
      "channel": 1,
      "note": 68,
      "start": 0.4567,
      "duration": 0.0209,
      "velocity": 114,
      "chip": "ym2612"
    },
    {
      "channel": 0,
      "note": 75,
      "start": 0.4772,
      "duration": 0.0798,
      "velocity": 116,
      "chip": "ym2612"
    },
    {
      "channel": 1,
      "note": 75,
      "start": 0.4777,
      "duration": 0.0807,
      "velocity": 114,
      "chip": "ym2612"
    },
    {
      "channel": 2,
      "note": 73,
      "start": 0.4785,
      "duration": 0.0182,
      "velocity": 114,
      "chip": "ym2612"
    },
    {
      "channel": 2,
      "note": 72,
      "start": 0.4967,
      "duration": 0.0206,
      "velocity": 114,
      "chip": "ym2612"
    },
    {
      "channel": 2,
      "note": 71,
      "start": 0.5173,
      "duration": 0.0194,
      "velocity": 114,
      "chip": "ym2612"
    },
    {
      "channel": 2,
      "note": 70,
      "start": 0.5367,
      "duration": 0.021,
      "velocity": 114,
      "chip": "ym2612"
    },
    {
      "channel": 0,
      "note": 77,
      "start": 0.5572,
      "duration": 0.0798,
      "velocity": 116,
      "chip": "ym2612"
    },
    {
      "channel": 2,
      "note": 77,
      "start": 0.5579,
      "duration": 0.0806,
      "velocity": 114,
      "chip": "ym2612"
    },
    {
      "channel": 1,
      "note": 74,
      "start": 0.5584,
      "duration": 0.0183,
      "velocity": 114,
      "chip": "ym2612"
    },
    {
      "channel": 1,
      "note": 73,
      "start": 0.5767,
      "duration": 0.0206,
      "velocity": 114,
      "chip": "ym2612"
    },
    {
      "channel": 1,
      "note": 73,
      "start": 0.5973,
      "duration": 0.0193,
      "velocity": 114,
      "chip": "ym2612"
    },
    {
      "channel": 1,
      "note": 72,
      "start": 0.6166,
      "duration": 0.0209,
      "velocity": 114,
      "chip": "ym2612"
    },
    {
      "channel": 0,
      "note": 75,
      "start": 0.6371,
      "duration": 0.0799,
      "velocity": 116,
      "chip": "ym2612"
    },
    {
      "channel": 1,
      "note": 75,
      "start": 0.6377,
      "duration": 0.0807,
      "velocity": 114,
      "chip": "ym2612"
    },
    {
      "channel": 2,
      "note": 76,
      "start": 0.6385,
      "duration": 0.0182,
      "velocity": 114,
      "chip": "ym2612"
    },
    {
      "channel": 2,
      "note": 76,
      "start": 0.6567,
      "duration": 0.0207,
      "velocity": 114,
      "chip": "ym2612"
    },
    {
      "channel": 2,
      "note": 75,
      "start": 0.6774,
      "duration": 0.0193,
      "velocity": 114,
      "chip": "ym2612"
    },
    {
      "channel": 2,
      "note": 74,
      "start": 0.6967,
      "duration": 0.021,
      "velocity": 114,
      "chip": "ym2612"
    },
    {
      "channel": 0,
      "note": 74,
      "start": 0.7172,
      "duration": 0.0798,
      "velocity": 116,
      "chip": "ym2612"
    },
    {
      "channel": 2,
      "note": 74,
      "start": 0.7179,
      "duration": 0.0805,
      "velocity": 114,
      "chip": "ym2612"
    },
    {
      "channel": 1,
      "note": 74,
      "start": 0.7184,
      "duration": 0.0183,
      "velocity": 114,
      "chip": "ym2612"
    },
    {
      "channel": 1,
      "note": 73,
      "start": 0.7367,
      "duration": 0.0206,
      "velocity": 114,
      "chip": "ym2612"
    },
    {
      "channel": 1,
      "note": 73,
      "start": 0.7573,
      "duration": 0.0194,
      "velocity": 114,
      "chip": "ym2612"
    },
    {
      "channel": 1,
      "note": 72,
      "start": 0.7767,
      "duration": 0.0208,
      "velocity": 114,
      "chip": "ym2612"
    },
    {
      "channel": 0,
      "note": 72,
      "start": 0.7971,
      "duration": 0.0799,
      "velocity": 116,
      "chip": "ym2612"
    },
    {
      "channel": 1,
      "note": 72,
      "start": 0.7977,
      "duration": 0.0807,
      "velocity": 114,
      "chip": "ym2612"
    },
    {
      "channel": 2,
      "note": 73,
      "start": 0.7984,
      "duration": 0.0183,
      "velocity": 114,
      "chip": "ym2612"
    },
    {
      "channel": 2,
      "note": 72,
      "start": 0.8167,
      "duration": 0.0206,
      "velocity": 114,
      "chip": "ym2612"
    },
    {
      "channel": 2,
      "note": 71,
      "start": 0.8373,
      "duration": 0.0194,
      "velocity": 114,
      "chip": "ym2612"
    },
    {
      "channel": 2,
      "note": 70,
      "start": 0.8567,
      "duration": 0.021,
      "velocity": 114,
      "chip": "ym2612"
    },
    {
      "channel": 0,
      "note": 70,
      "start": 0.8772,
      "duration": 0.0798,
      "velocity": 116,
      "chip": "ym2612"
    },
    {
      "channel": 2,
      "note": 70,
      "start": 0.8779,
      "duration": 0.4003,
      "velocity": 114,
      "chip": "ym2612"
    },
    {
      "channel": 1,
      "note": 71,
      "start": 0.8784,
      "duration": 0.0183,
      "velocity": 114,
      "chip": "ym2612"
    },
    {
      "channel": 1,
      "note": 70,
      "start": 0.8967,
      "duration": 0.0206,
      "velocity": 114,
      "chip": "ym2612"
    },
    {
      "channel": 1,
      "note": 69,
      "start": 0.9173,
      "duration": 0.0194,
      "velocity": 114,
      "chip": "ym2612"
    },
    {
      "channel": 1,
      "note": 68,
      "start": 0.9367,
      "duration": 0.0208,
      "velocity": 114,
      "chip": "ym2612"
    },
    {
      "channel": 0,
      "note": 72,
      "start": 0.9571,
      "duration": 0.32,
      "velocity": 116,
      "chip": "ym2612"
    },
    {
      "channel": 1,
      "note": 72,
      "start": 0.9577,
      "duration": 0.1196,
      "velocity": 114,
      "chip": "ym2612"
    },
    {
      "channel": 1,
      "note": 72,
      "start": 1.0773,
      "duration": 0.0194,
      "velocity": 114,
      "chip": "ym2612"
    },
    {
      "channel": 1,
      "note": 72,
      "start": 1.0967,
      "duration": 0.0206,
      "velocity": 114,
      "chip": "ym2612"
    },
    {
      "channel": 1,
      "note": 71,
      "start": 1.1173,
      "duration": 0.0194,
      "velocity": 114,
      "chip": "ym2612"
    },
    {
      "channel": 1,
      "note": 71,
      "start": 1.1367,
      "duration": 0.0205,
      "velocity": 114,
      "chip": "ym2612"
    },
    {
      "channel": 1,
      "note": 71,
      "start": 1.1572,
      "duration": 0.0195,
      "velocity": 114,
      "chip": "ym2612"
    },
    {
      "channel": 1,
      "note": 71,
      "start": 1.1767,
      "duration": 0.0205,
      "velocity": 114,
      "chip": "ym2612"
    },
    {
      "channel": 1,
      "note": 71,
      "start": 1.1972,
      "duration": 0.0195,
      "velocity": 114,
      "chip": "ym2612"
    },
    {
      "channel": 1,
      "note": 71,
      "start": 1.2167,
      "duration": 0.0205,
      "velocity": 114,
      "chip": "ym2612"
    },
    {
      "channel": 1,
      "note": 70,
      "start": 1.2372,
      "duration": 0.0195,
      "velocity": 114,
      "chip": "ym2612"
    },
    {
      "channel": 1,
      "note": 70,
      "start": 1.2567,
      "duration": 0.0209,
      "velocity": 114,
      "chip": "ym2612"
    },
    {
      "channel": 0,
      "note": 53,
      "start": 1.2772,
      "duration": 1.4013,
      "velocity": 97,
      "chip": "ym2612"
    },
    {
      "channel": 1,
      "note": 29,
      "start": 1.2778,
      "duration": 0.4408,
      "velocity": 127,
      "chip": "ym2612"
    },
    {
      "channel": 2,
      "note": 41,
      "start": 1.2783,
      "duration": 2.241,
      "velocity": 97,
      "chip": "ym2612"
    },
    {
      "channel": 1,
      "note": 65,
      "start": 1.7188,
      "duration": 0.1182,
      "velocity": 127,
      "chip": "ym2612"
    },
    {
      "channel": 1,
      "note": 77,
      "start": 1.8371,
      "duration": 0.1199,
      "velocity": 127,
      "chip": "ym2612"
    },
    {
      "channel": 1,
      "note": 65,
      "start": 1.9572,
      "duration": 0.2398,
      "velocity": 127,
      "chip": "ym2612"
    },
    {
      "channel": 1,
      "note": 65,
      "start": 2.1971,
      "duration": 0.1199,
      "velocity": 127,
      "chip": "ym2612"
    },
    {
      "channel": 1,
      "note": 77,
      "start": 2.3172,
      "duration": 0.1198,
      "velocity": 127,
      "chip": "ym2612"
    },
    {
      "channel": 1,
      "note": 65,
      "start": 2.4372,
      "duration": 0.2419,
      "velocity": 127,
      "chip": "ym2612"
    },
    {
      "channel": 0,
      "note": 41,
      "start": 2.6787,
      "duration": 0.1182,
      "velocity": 97,
      "chip": "ym2612"
    },
    {
      "channel": 1,
      "note": 65,
      "start": 2.6793,
      "duration": 0.1182,
      "velocity": 127,
      "chip": "ym2612"
    },
    {
      "channel": 0,
      "note": 41,
      "start": 2.7971,
      "duration": 0.1198,
      "velocity": 97,
      "chip": "ym2612"
    },
    {
      "channel": 1,
      "note": 77,
      "start": 2.7977,
      "duration": 0.1198,
      "velocity": 127,
      "chip": "ym2612"
    },
    {
      "channel": 0,
      "note": 41,
      "start": 2.9171,
      "duration": 0.1198,
      "velocity": 97,
      "chip": "ym2612"
    },
    {
      "channel": 1,
      "note": 65,
      "start": 2.9177,
      "duration": 0.2398,
      "velocity": 127,
      "chip": "ym2612"
    },
    {
      "channel": 0,
      "note": 41,
      "start": 3.0371,
      "duration": 0.1198,
      "velocity": 97,
      "chip": "ym2612"
    },
    {
      "channel": 0,
      "note": 41,
      "start": 3.1571,
      "duration": 0.1198,
      "velocity": 97,
      "chip": "ym2612"
    },
    {
      "channel": 1,
      "note": 65,
      "start": 3.1577,
      "duration": 0.1198,
      "velocity": 127,
      "chip": "ym2612"
    },
    {
      "channel": 0,
      "note": 41,
      "start": 3.2771,
      "duration": 0.12,
      "velocity": 97,
      "chip": "ym2612"
    },
    {
      "channel": 1,
      "note": 77,
      "start": 3.2777,
      "duration": 0.1199,
      "velocity": 127,
      "chip": "ym2612"
    },
    {
      "channel": 0,
      "note": 41,
      "start": 3.3972,
      "duration": 0.12,
      "velocity": 97,
      "chip": "ym2612"
    },
    {
      "channel": 1,
      "note": 65,
      "start": 3.3978,
      "duration": 0.3528,
      "velocity": 110,
      "chip": "ym2612"
    },
    {
      "channel": 0,
      "note": 41,
      "start": 3.5174,
      "duration": 0.1111,
      "velocity": 97,
      "chip": "ym2612"
    },
    {
      "channel": 2,
      "note": 60,
      "start": 3.5196,
      "duration": 6.4525,
      "velocity": 104,
      "chip": "ym2612"
    },
    {
      "channel": 3,
      "note": 65,
      "start": 3.5217,
      "duration": 6.4525,
      "velocity": 104,
      "chip": "ym2612"
    },
    {
      "channel": 0,
      "note": 41,
      "start": 3.6286,
      "duration": 0.1198,
      "velocity": 97,
      "chip": "ym2612"
    },
    {
      "channel": 4,
      "note": 65,
      "start": 3.631,
      "duration": 0.1202,
      "velocity": 127,
      "chip": "ym2612"
    },
    {
      "channel": 0,
      "note": 41,
      "start": 3.7486,
      "duration": 0.1198,
      "velocity": 97,
      "chip": "ym2612"
    },
    {
      "channel": 1,
      "note": 65,
      "start": 3.7507,
      "duration": 0.2383,
      "velocity": 110,
      "chip": "ym2612"
    },
    {
      "channel": 4,
      "note": 77,
      "start": 3.7514,
      "duration": 0.1178,
      "velocity": 127,
      "chip": "ym2612"
    },
    {
      "channel": 5,
      "note": 21,
      "start": 3.7536,
      "duration": 0.1162,
      "velocity": 84,
      "chip": "ym2612"
    },
    {
      "channel": 0,
      "note": 41,
      "start": 3.8686,
      "duration": 0.1198,
      "velocity": 97,
      "chip": "ym2612"
    },
    {
      "channel": 4,
      "note": 65,
      "start": 3.8693,
      "duration": 0.2255,
      "velocity": 127,
      "chip": "ym2612"
    },
    {
      "channel": 5,
      "note": 21,
      "start": 3.8699,
      "duration": 0.3464,
      "velocity": 84,
      "chip": "ym2612"
    },
    {
      "channel": 0,
      "note": 41,
      "start": 3.9886,
      "duration": 0.1056,
      "velocity": 97,
      "chip": "ym2612"
    },
    {
      "channel": 1,
      "note": 58,
      "start": 3.9892,
      "duration": 0.2244,
      "velocity": 110,
      "chip": "ym2612"
    },
    {
      "channel": 0,
      "note": 41,
      "start": 4.0943,
      "duration": 0.1187,
      "velocity": 97,
      "chip": "ym2612"
    },
    {
      "channel": 4,
      "note": 65,
      "start": 4.0951,
      "duration": 0.1192,
      "velocity": 127,
      "chip": "ym2612"
    },
    {
      "channel": 0,
      "note": 41,
      "start": 4.2132,
      "duration": 0.1198,
      "velocity": 97,
      "chip": "ym2612"
    },
    {
      "channel": 1,
      "note": 60,
      "start": 4.2137,
      "duration": 0.2398,
      "velocity": 110,
      "chip": "ym2612"
    },
    {
      "channel": 4,
      "note": 77,
      "start": 4.2144,
      "duration": 0.1194,
      "velocity": 127,
      "chip": "ym2612"
    },
    {
      "channel": 5,
      "note": 21,
      "start": 4.2166,
      "duration": 0.1178,
      "velocity": 84,
      "chip": "ym2612"
    },
    {
      "channel": 0,
      "note": 41,
      "start": 4.3332,
      "duration": 0.1198,
      "velocity": 97,
      "chip": "ym2612"
    },
    {
      "channel": 4,
      "note": 65,
      "start": 4.3339,
      "duration": 0.2272,
      "velocity": 127,
      "chip": "ym2612"
    },
    {
      "channel": 5,
      "note": 21,
      "start": 4.3345,
      "duration": 0.3492,
      "velocity": 84,
      "chip": "ym2612"
    },
    {
      "channel": 0,
      "note": 41,
      "start": 4.4532,
      "duration": 0.1072,
      "velocity": 97,
      "chip": "ym2612"
    },
    {
      "channel": 1,
      "note": 65,
      "start": 4.4537,
      "duration": 0.2271,
      "velocity": 110,
      "chip": "ym2612"
    },
    {
      "channel": 0,
      "note": 41,
      "start": 4.5605,
      "duration": 0.1198,
      "velocity": 97,
      "chip": "ym2612"
    },
    {
      "channel": 4,
      "note": 65,
      "start": 4.5613,
      "duration": 0.1203,
      "velocity": 127,
      "chip": "ym2612"
    },
    {
      "channel": 0,
      "note": 41,
      "start": 4.6805,
      "duration": 0.1198,
      "velocity": 97,
      "chip": "ym2612"
    },
    {
      "channel": 1,
      "note": 58,
      "start": 4.6811,
      "duration": 0.2398,
      "velocity": 110,
      "chip": "ym2612"
    },
    {
      "channel": 4,
      "note": 77,
      "start": 4.6817,
      "duration": 0.1194,
      "velocity": 127,
      "chip": "ym2612"
    },
    {
      "channel": 5,
      "note": 21,
      "start": 4.6839,
      "duration": 0.1178,
      "velocity": 84,
      "chip": "ym2612"
    },
    {
      "channel": 0,
      "note": 41,
      "start": 4.8005,
      "duration": 0.1198,
      "velocity": 97,
      "chip": "ym2612"
    },
    {
      "channel": 4,
      "note": 65,
      "start": 4.8013,
      "duration": 0.2255,
      "velocity": 127,
      "chip": "ym2612"
    },
    {
      "channel": 5,
      "note": 21,
      "start": 4.8018,
      "duration": 0.3465,
      "velocity": 84,
      "chip": "ym2612"
    },
    {
      "channel": 0,
      "note": 41,
      "start": 4.9205,
      "duration": 0.1056,
      "velocity": 97,
      "chip": "ym2612"
    },
    {
      "channel": 1,
      "note": 60,
      "start": 4.9211,
      "duration": 0.2244,
      "velocity": 110,
      "chip": "ym2612"
    },
    {
      "channel": 0,
      "note": 41,
      "start": 5.0262,
      "duration": 0.1187,
      "velocity": 97,
      "chip": "ym2612"
    },
    {
      "channel": 4,
      "note": 65,
      "start": 5.027,
      "duration": 0.1192,
      "velocity": 127,
      "chip": "ym2612"
    },
    {
      "channel": 0,
      "note": 41,
      "start": 5.1451,
      "duration": 0.1198,
      "velocity": 97,
      "chip": "ym2612"
    },
    {
      "channel": 1,
      "note": 63,
      "start": 5.1457,
      "duration": 0.2231,
      "velocity": 110,
      "chip": "ym2612"
    },
    {
      "channel": 4,
      "note": 77,
      "start": 5.1463,
      "duration": 0.1194,
      "velocity": 127,
      "chip": "ym2612"
    },
    {
      "channel": 5,
      "note": 21,
      "start": 5.1485,
      "duration": 0.4527,
      "velocity": 84,
      "chip": "ym2612"
    },
    {
      "channel": 0,
      "note": 41,
      "start": 5.2651,
      "duration": 0.1032,
      "velocity": 97,
      "chip": "ym2612"
    },
    {
      "channel": 4,
      "note": 65,
      "start": 5.2659,
      "duration": 0.2128,
      "velocity": 127,
      "chip": "ym2612"
    },
    {
      "channel": 0,
      "note": 41,
      "start": 5.3684,
      "duration": 0.1095,
      "velocity": 97,
      "chip": "ym2612"
    },
    {
      "channel": 1,
      "note": 65,
      "start": 5.369,
      "duration": 0.2294,
      "velocity": 110,
      "chip": "ym2612"
    },
    {
      "channel": 0,
      "note": 41,
      "start": 5.478,
      "duration": 0.1198,
      "velocity": 97,
      "chip": "ym2612"
    },
    {
      "channel": 4,
      "note": 65,
      "start": 5.4788,
      "duration": 0.1203,
      "velocity": 127,
      "chip": "ym2612"
    },
    {
      "channel": 0,
      "note": 41,
      "start": 5.598,
      "duration": 0.1198,
      "velocity": 97,
      "chip": "ym2612"
    },
    {
      "channel": 1,
      "note": 66,
      "start": 5.5986,
      "duration": 0.2398,
      "velocity": 110,
      "chip": "ym2612"
    },
    {
      "channel": 4,
      "note": 77,
      "start": 5.5993,
      "duration": 0.1194,
      "velocity": 127,
      "chip": "ym2612"
    },
    {
      "channel": 5,
      "note": 21,
      "start": 5.6015,
      "duration": 0.1178,
      "velocity": 84,
      "chip": "ym2612"
    },
    {
      "channel": 0,
      "note": 41,
      "start": 5.718,
      "duration": 0.1198,
      "velocity": 97,
      "chip": "ym2612"
    },
    {
      "channel": 4,
      "note": 65,
      "start": 5.7188,
      "duration": 0.2205,
      "velocity": 127,
      "chip": "ym2612"
    },
    {
      "channel": 5,
      "note": 21,
      "start": 5.7194,
      "duration": 0.3415,
      "velocity": 84,
      "chip": "ym2612"
    },
    {
      "channel": 0,
      "note": 41,
      "start": 5.838,
      "duration": 0.1006,
      "velocity": 97,
      "chip": "ym2612"
    },
    {
      "channel": 1,
      "note": 68,
      "start": 5.8386,
      "duration": 0.2194,
      "velocity": 110,
      "chip": "ym2612"
    },
    {
      "channel": 0,
      "note": 41,
      "start": 5.9388,
      "duration": 0.1187,
      "velocity": 97,
      "chip": "ym2612"
    },
    {
      "channel": 4,
      "note": 65,
      "start": 5.9395,
      "duration": 0.1192,
      "velocity": 127,
      "chip": "ym2612"
    },
    {
      "channel": 0,
      "note": 41,
      "start": 6.0577,
      "duration": 0.1198,
      "velocity": 97,
      "chip": "ym2612"
    },
    {
      "channel": 1,
      "note": 63,
      "start": 6.0583,
      "duration": 0.5746,
      "velocity": 114,
      "chip": "ym2612"
    },
    {
      "channel": 4,
      "note": 77,
      "start": 6.0589,
      "duration": 0.1194,
      "velocity": 127,
      "chip": "ym2612"
    },
    {
      "channel": 5,
      "note": 21,
      "start": 6.0611,
      "duration": 0.1178,
      "velocity": 84,
      "chip": "ym2612"
    },
    {
      "channel": 0,
      "note": 41,
      "start": 6.1777,
      "duration": 0.1198,
      "velocity": 97,
      "chip": "ym2612"
    },
    {
      "channel": 4,
      "note": 65,
      "start": 6.1784,
      "duration": 0.2249,
      "velocity": 127,
      "chip": "ym2612"
    },
    {
      "channel": 5,
      "note": 21,
      "start": 6.179,
      "duration": 0.3346,
      "velocity": 84,
      "chip": "ym2612"
    },
    {
      "channel": 0,
      "note": 41,
      "start": 6.2977,
      "duration": 0.105,
      "velocity": 97,
      "chip": "ym2612"
    },
    {
      "channel": 0,
      "note": 41,
      "start": 6.4027,
      "duration": 0.108,
      "velocity": 97,
      "chip": "ym2612"
    },
    {
      "channel": 4,
      "note": 65,
      "start": 6.4035,
      "duration": 0.108,
      "velocity": 127,
      "chip": "ym2612"
    },
    {
      "channel": 0,
      "note": 41,
      "start": 6.5109,
      "duration": 0.1198,
      "velocity": 97,
      "chip": "ym2612"
    },
    {
      "channel": 4,
      "note": 77,
      "start": 6.5116,
      "duration": 0.122,
      "velocity": 127,
      "chip": "ym2612"
    },
    {
      "channel": 5,
      "note": 21,
      "start": 6.5138,
      "duration": 0.1204,
      "velocity": 84,
      "chip": "ym2612"
    },
    {
      "channel": 0,
      "note": 41,
      "start": 6.6309,
      "duration": 0.1198,
      "velocity": 97,
      "chip": "ym2612"
    },
    {
      "channel": 1,
      "note": 66,
      "start": 6.6331,
      "duration": 0.1182,
      "velocity": 114,
      "chip": "ym2612"
    },
    {
      "channel": 4,
      "note": 65,
      "start": 6.6337,
      "duration": 0.224,
      "velocity": 127,
      "chip": "ym2612"
    },
    {
      "channel": 5,
      "note": 21,
      "start": 6.6343,
      "duration": 0.342,
      "velocity": 84,
      "chip": "ym2612"
    },
    {
      "channel": 0,
      "note": 41,
      "start": 6.7509,
      "duration": 0.1056,
      "velocity": 97,
      "chip": "ym2612"
    },
    {
      "channel": 1,
      "note": 78,
      "start": 6.7515,
      "duration": 0.1055,
      "velocity": 114,
      "chip": "ym2612"
    },
    {
      "channel": 0,
      "note": 41,
      "start": 6.8566,
      "duration": 0.1163,
      "velocity": 97,
      "chip": "ym2612"
    },
    {
      "channel": 1,
      "note": 73,
      "start": 6.8572,
      "duration": 0.1163,
      "velocity": 114,
      "chip": "ym2612"
    },
    {
      "channel": 4,
      "note": 65,
      "start": 6.8578,
      "duration": 0.1163,
      "velocity": 127,
      "chip": "ym2612"
    },
    {
      "channel": 0,
      "note": 41,
      "start": 6.9731,
      "duration": 0.1198,
      "velocity": 97,
      "chip": "ym2612"
    },
    {
      "channel": 1,
      "note": 66,
      "start": 6.9737,
      "duration": 0.1198,
      "velocity": 114,
      "chip": "ym2612"
    },
    {
      "channel": 4,
      "note": 77,
      "start": 6.9743,
      "duration": 0.1199,
      "velocity": 127,
      "chip": "ym2612"
    },
    {
      "channel": 5,
      "note": 21,
      "start": 6.9765,
      "duration": 0.4551,
      "velocity": 84,
      "chip": "ym2612"
    },
    {
      "channel": 0,
      "note": 41,
      "start": 7.0931,
      "duration": 0.1057,
      "velocity": 97,
      "chip": "ym2612"
    },
    {
      "channel": 1,
      "note": 65,
      "start": 7.0937,
      "duration": 0.3351,
      "velocity": 110,
      "chip": "ym2612"
    },
    {
      "channel": 4,
      "note": 65,
      "start": 7.0943,
      "duration": 0.213,
      "velocity": 127,
      "chip": "ym2612"
    },
    {
      "channel": 0,
      "note": 41,
      "start": 7.199,
      "duration": 0.1076,
      "velocity": 97,
      "chip": "ym2612"
    },
    {
      "channel": 0,
      "note": 41,
      "start": 7.3068,
      "duration": 0.1198,
      "velocity": 97,
      "chip": "ym2612"
    },
    {
      "channel": 4,
      "note": 65,
      "start": 7.3075,
      "duration": 0.1219,
      "velocity": 127,
      "chip": "ym2612"
    },
    {
      "channel": 0,
      "note": 41,
      "start": 7.4268,
      "duration": 0.1198,
      "velocity": 97,
      "chip": "ym2612"
    },
    {
      "channel": 1,
      "note": 65,
      "start": 7.4289,
      "duration": 0.2383,
      "velocity": 110,
      "chip": "ym2612"
    },
    {
      "channel": 4,
      "note": 77,
      "start": 7.4296,
      "duration": 0.1178,
      "velocity": 127,
      "chip": "ym2612"
    },
    {
      "channel": 5,
      "note": 21,
      "start": 7.4318,
      "duration": 0.1162,
      "velocity": 84,
      "chip": "ym2612"
    },
    {
      "channel": 0,
      "note": 41,
      "start": 7.5468,
      "duration": 0.1198,
      "velocity": 97,
      "chip": "ym2612"
    },
    {
      "channel": 4,
      "note": 65,
      "start": 7.5476,
      "duration": 0.2256,
      "velocity": 127,
      "chip": "ym2612"
    },
    {
      "channel": 5,
      "note": 21,
      "start": 7.5481,
      "duration": 0.3441,
      "velocity": 84,
      "chip": "ym2612"
    },
    {
      "channel": 0,
      "note": 41,
      "start": 7.6668,
      "duration": 0.1056,
      "velocity": 97,
      "chip": "ym2612"
    },
    {
      "channel": 1,
      "note": 58,
      "start": 7.6674,
      "duration": 0.222,
      "velocity": 110,
      "chip": "ym2612"
    },
    {
      "channel": 0,
      "note": 41,
      "start": 7.7726,
      "duration": 0.1163,
      "velocity": 97,
      "chip": "ym2612"
    },
    {
      "channel": 4,
      "note": 65,
      "start": 7.7733,
      "duration": 0.1168,
      "velocity": 127,
      "chip": "ym2612"
    },
    {
      "channel": 0,
      "note": 41,
      "start": 7.889,
      "duration": 0.1198,
      "velocity": 97,
      "chip": "ym2612"
    },
    {
      "channel": 1,
      "note": 60,
      "start": 7.8896,
      "duration": 0.2398,
      "velocity": 110,
      "chip": "ym2612"
    },
    {
      "channel": 4,
      "note": 77,
      "start": 7.8902,
      "duration": 0.1194,
      "velocity": 127,
      "chip": "ym2612"
    },
    {
      "channel": 5,
      "note": 21,
      "start": 7.8924,
      "duration": 0.1178,
      "velocity": 84,
      "chip": "ym2612"
    },
    {
      "channel": 0,
      "note": 41,
      "start": 8.009,
      "duration": 0.1198,
      "velocity": 97,
      "chip": "ym2612"
    },
    {
      "channel": 4,
      "note": 65,
      "start": 8.0098,
      "duration": 0.2326,
      "velocity": 127,
      "chip": "ym2612"
    },
    {
      "channel": 5,
      "note": 21,
      "start": 8.0104,
      "duration": 0.3546,
      "velocity": 84,
      "chip": "ym2612"
    },
    {
      "channel": 0,
      "note": 41,
      "start": 8.129,
      "duration": 0.1126,
      "velocity": 97,
      "chip": "ym2612"
    },
    {
      "channel": 1,
      "note": 65,
      "start": 8.1296,
      "duration": 0.2326,
      "velocity": 110,
      "chip": "ym2612"
    },
    {
      "channel": 0,
      "note": 41,
      "start": 8.2418,
      "duration": 0.1198,
      "velocity": 97,
      "chip": "ym2612"
    },
    {
      "channel": 4,
      "note": 65,
      "start": 8.2426,
      "duration": 0.1203,
      "velocity": 127,
      "chip": "ym2612"
    },
    {
      "channel": 0,
      "note": 41,
      "start": 8.3618,
      "duration": 0.1198,
      "velocity": 97,
      "chip": "ym2612"
    },
    {
      "channel": 1,
      "note": 58,
      "start": 8.3624,
      "duration": 0.2398,
      "velocity": 110,
      "chip": "ym2612"
    },
    {
      "channel": 4,
      "note": 77,
      "start": 8.363,
      "duration": 0.1194,
      "velocity": 127,
      "chip": "ym2612"
    },
    {
      "channel": 5,
      "note": 21,
      "start": 8.3652,
      "duration": 0.1178,
      "velocity": 84,
      "chip": "ym2612"
    },
    {
      "channel": 0,
      "note": 41,
      "start": 8.4818,
      "duration": 0.1198,
      "velocity": 97,
      "chip": "ym2612"
    },
    {
      "channel": 4,
      "note": 65,
      "start": 8.4826,
      "duration": 0.2205,
      "velocity": 127,
      "chip": "ym2612"
    },
    {
      "channel": 5,
      "note": 21,
      "start": 8.4831,
      "duration": 0.3415,
      "velocity": 84,
      "chip": "ym2612"
    },
    {
      "channel": 0,
      "note": 41,
      "start": 8.6018,
      "duration": 0.1006,
      "velocity": 97,
      "chip": "ym2612"
    },
    {
      "channel": 1,
      "note": 60,
      "start": 8.6024,
      "duration": 0.2194,
      "velocity": 110,
      "chip": "ym2612"
    },
    {
      "channel": 0,
      "note": 41,
      "start": 8.7025,
      "duration": 0.1187,
      "velocity": 97,
      "chip": "ym2612"
    },
    {
      "channel": 4,
      "note": 65,
      "start": 8.7033,
      "duration": 0.1192,
      "velocity": 127,
      "chip": "ym2612"
    },
    {
      "channel": 0,
      "note": 41,
      "start": 8.8214,
      "duration": 0.1198,
      "velocity": 97,
      "chip": "ym2612"
    },
    {
      "channel": 1,
      "note": 63,
      "start": 8.822,
      "duration": 0.326,
      "velocity": 110,
      "chip": "ym2612"
    },
    {
      "channel": 4,
      "note": 77,
      "start": 8.8226,
      "duration": 0.1194,
      "velocity": 127,
      "chip": "ym2612"
    },
    {
      "channel": 5,
      "note": 21,
      "start": 8.8248,
      "duration": 0.4456,
      "velocity": 84,
      "chip": "ym2612"
    },
    {
      "channel": 0,
      "note": 41,
      "start": 8.9414,
      "duration": 0.1007,
      "velocity": 97,
      "chip": "ym2612"
    },
    {
      "channel": 4,
      "note": 65,
      "start": 8.9422,
      "duration": 0.2065,
      "velocity": 127,
      "chip": "ym2612"
    },
    {
      "channel": 0,
      "note": 41,
      "start": 9.0422,
      "duration": 0.1052,
      "velocity": 97,
      "chip": "ym2612"
    },
    {
      "channel": 0,
      "note": 41,
      "start": 9.1476,
      "duration": 0.1198,
      "velocity": 97,
      "chip": "ym2612"
    },
    {
      "channel": 1,
      "note": 65,
      "start": 9.1482,
      "duration": 0.2398,
      "velocity": 110,
      "chip": "ym2612"
    },
    {
      "channel": 4,
      "note": 65,
      "start": 9.1488,
      "duration": 0.1194,
      "velocity": 127,
      "chip": "ym2612"
    },
    {
      "channel": 0,
      "note": 41,
      "start": 9.2676,
      "duration": 0.1198,
      "velocity": 97,
      "chip": "ym2612"
    },
    {
      "channel": 4,
      "note": 77,
      "start": 9.2684,
      "duration": 0.1203,
      "velocity": 127,
      "chip": "ym2612"
    },
    {
      "channel": 5,
      "note": 21,
      "start": 9.2705,
      "duration": 0.1188,
      "velocity": 84,
      "chip": "ym2612"
    },
    {
      "channel": 0,
      "note": 41,
      "start": 9.3876,
      "duration": 0.1198,
      "velocity": 97,
      "chip": "ym2612"
    },
    {
      "channel": 1,
      "note": 65,
      "start": 9.3882,
      "duration": 0.1198,
      "velocity": 110,
      "chip": "ym2612"
    },
    {
      "channel": 4,
      "note": 65,
      "start": 9.3888,
      "duration": 0.2252,
      "velocity": 127,
      "chip": "ym2612"
    },
    {
      "channel": 5,
      "note": 21,
      "start": 9.3894,
      "duration": 0.3432,
      "velocity": 84,
      "chip": "ym2612"
    },
    {
      "channel": 0,
      "note": 41,
      "start": 9.5076,
      "duration": 0.1057,
      "velocity": 97,
      "chip": "ym2612"
    },
    {
      "channel": 1,
      "note": 66,
      "start": 9.5082,
      "duration": 0.3421,
      "velocity": 110,
      "chip": "ym2612"
    },
    {
      "channel": 0,
      "note": 41,
      "start": 9.6135,
      "duration": 0.1163,
      "velocity": 97,
      "chip": "ym2612"
    },
    {
      "channel": 4,
      "note": 65,
      "start": 9.6142,
      "duration": 0.1162,
      "velocity": 127,
      "chip": "ym2612"
    },
    {
      "channel": 0,
      "note": 41,
      "start": 9.7299,
      "duration": 0.1198,
      "velocity": 97,
      "chip": "ym2612"
    },
    {
      "channel": 4,
      "note": 77,
      "start": 9.7306,
      "duration": 0.1204,
      "velocity": 127,
      "chip": "ym2612"
    },
    {
      "channel": 5,
      "note": 21,
      "start": 9.7328,
      "duration": 0.1188,
      "velocity": 84,
      "chip": "ym2612"
    },
    {
      "channel": 0,
      "note": 41,
      "start": 9.8499,
      "duration": 0.1199,
      "velocity": 97,
      "chip": "ym2612"
    },
    {
      "channel": 1,
      "note": 66,
      "start": 9.8505,
      "duration": 0.2272,
      "velocity": 110,
      "chip": "ym2612"
    },
    {
      "channel": 4,
      "note": 65,
      "start": 9.8512,
      "duration": 0.2272,
      "velocity": 127,
      "chip": "ym2612"
    },
    {
      "channel": 5,
      "note": 21,
      "start": 9.8517,
      "duration": 0.336,
      "velocity": 84,
      "chip": "ym2612"
    },
    {
      "channel": 0,
      "note": 41,
      "start": 9.97,
      "duration": 0.1071,
      "velocity": 97,
      "chip": "ym2612"
    },
    {
      "channel": 2,
      "note": 75,
      "start": 9.9722,
      "duration": 0.003,
      "velocity": 104,
      "chip": "ym2612"
    },
    {
      "channel": 3,
      "note": 78,
      "start": 9.9744,
      "duration": 0.0011,
      "velocity": 104,
      "chip": "ym2612"
    },
    {
      "channel": 2,
      "note": 76,
      "start": 9.9752,
      "duration": 0.0116,
      "velocity": 104,
      "chip": "ym2612"
    },
    {
      "channel": 3,
      "note": 79,
      "start": 9.9755,
      "duration": 0.0117,
      "velocity": 104,
      "chip": "ym2612"
    },
    {
      "channel": 2,
      "note": 77,
      "start": 9.9868,
      "duration": 0.0164,
      "velocity": 104,
      "chip": "ym2612"
    },
    {
      "channel": 3,
      "note": 80,
      "start": 9.9872,
      "duration": 0.0164,
      "velocity": 104,
      "chip": "ym2612"
    },
    {
      "channel": 2,
      "note": 78,
      "start": 10.0033,
      "duration": 0.0187,
      "velocity": 104,
      "chip": "ym2612"
    },
    {
      "channel": 3,
      "note": 81,
      "start": 10.0036,
      "duration": 0.0186,
      "velocity": 104,
      "chip": "ym2612"
    },
    {
      "channel": 2,
      "note": 79,
      "start": 10.022,
      "duration": 0.0163,
      "velocity": 104,
      "chip": "ym2612"
    },
    {
      "channel": 3,
      "note": 82,
      "start": 10.0222,
      "duration": 0.0163,
      "velocity": 104,
      "chip": "ym2612"
    },
    {
      "channel": 2,
      "note": 80,
      "start": 10.0382,
      "duration": 0.0185,
      "velocity": 104,
      "chip": "ym2612"
    },
    {
      "channel": 3,
      "note": 84,
      "start": 10.0385,
      "duration": 0.0185,
      "velocity": 104,
      "chip": "ym2612"
    },
    {
      "channel": 2,
      "note": 81,
      "start": 10.0567,
      "duration": 0.0225,
      "velocity": 104,
      "chip": "ym2612"
    },
    {
      "channel": 3,
      "note": 85,
      "start": 10.0571,
      "duration": 0.0226,
      "velocity": 104,
      "chip": "ym2612"
    },
    {
      "channel": 0,
      "note": 41,
      "start": 10.0773,
      "duration": 0.106,
      "velocity": 97,
      "chip": "ym2612"
    },
    {
      "channel": 1,
      "note": 66,
      "start": 10.0779,
      "duration": 0.106,
      "velocity": 110,
      "chip": "ym2612"
    },
    {
      "channel": 4,
      "note": 65,
      "start": 10.0785,
      "duration": 0.107,
      "velocity": 127,
      "chip": "ym2612"
    },
    {
      "channel": 2,
      "note": 82,
      "start": 10.0793,
      "duration": 0.0144,
      "velocity": 104,
      "chip": "ym2612"
    },
    {
      "channel": 3,
      "note": 86,
      "start": 10.0796,
      "duration": 0.0144,
      "velocity": 104,
      "chip": "ym2612"
    },
    {
      "channel": 2,
      "note": 84,
      "start": 10.0937,
      "duration": 0.0188,
      "velocity": 104,
      "chip": "ym2612"
    },
    {
      "channel": 3,
      "note": 87,
      "start": 10.094,
      "duration": 0.0188,
      "velocity": 104,
      "chip": "ym2612"
    },
    {
      "channel": 2,
      "note": 85,
      "start": 10.1126,
      "duration": 0.0188,
      "velocity": 104,
      "chip": "ym2612"
    },
    {
      "channel": 3,
      "note": 88,
      "start": 10.1128,
      "duration": 0.0188,
      "velocity": 104,
      "chip": "ym2612"
    },
    {
      "channel": 2,
      "note": 86,
      "start": 10.1313,
      "duration": 0.0164,
      "velocity": 104,
      "chip": "ym2612"
    },
    {
      "channel": 3,
      "note": 89,
      "start": 10.1316,
      "duration": 0.0164,
      "velocity": 104,
      "chip": "ym2612"
    },
    {
      "channel": 2,
      "note": 87,
      "start": 10.1477,
      "duration": 0.0165,
      "velocity": 104,
      "chip": "ym2612"
    },
    {
      "channel": 3,
      "note": 90,
      "start": 10.148,
      "duration": 0.0164,
      "velocity": 104,
      "chip": "ym2612"
    },
    {
      "channel": 2,
      "note": 88,
      "start": 10.1642,
      "duration": 0.0202,
      "velocity": 104,
      "chip": "ym2612"
    },
    {
      "channel": 3,
      "note": 91,
      "start": 10.1645,
      "duration": 0.0206,
      "velocity": 104,
      "chip": "ym2612"
    },
    {
      "channel": 0,
      "note": 41,
      "start": 10.1835,
      "duration": 0.1198,
      "velocity": 97,
      "chip": "ym2612"
    },
    {
      "channel": 1,
      "note": 68,
      "start": 10.1841,
      "duration": 0.3436,
      "velocity": 110,
      "chip": "ym2612"
    },
    {
      "channel": 2,
      "note": 87,
      "start": 10.1846,
      "duration": 0.2394,
      "velocity": 104,
      "chip": "ym2612"
    },
    {
      "channel": 3,
      "note": 90,
      "start": 10.1851,
      "duration": 0.2395,
      "velocity": 104,
      "chip": "ym2612"
    },
    {
      "channel": 4,
      "note": 77,
      "start": 10.1857,
      "duration": 0.1183,
      "velocity": 127,
      "chip": "ym2612"
    },
    {
      "channel": 5,
      "note": 21,
      "start": 10.1879,
      "duration": 0.1167,
      "velocity": 84,
      "chip": "ym2612"
    },
    {
      "channel": 0,
      "note": 41,
      "start": 10.3035,
      "duration": 0.1198,
      "velocity": 97,
      "chip": "ym2612"
    },
    {
      "channel": 4,
      "note": 65,
      "start": 10.3043,
      "duration": 0.224,
      "velocity": 127,
      "chip": "ym2612"
    },
    {
      "channel": 5,
      "note": 21,
      "start": 10.3048,
      "duration": 0.7821,
      "velocity": 84,
      "chip": "ym2612"
    },
    {
      "channel": 0,
      "note": 41,
      "start": 10.4235,
      "duration": 0.1035,
      "velocity": 97,
      "chip": "ym2612"
    },
    {
      "channel": 2,
      "note": 78,
      "start": 10.4242,
      "duration": 0.0015,
      "velocity": 104,
      "chip": "ym2612"
    },
    {
      "channel": 3,
      "note": 80,
      "start": 10.4248,
      "duration": 0.0011,
      "velocity": 104,
      "chip": "ym2612"
    },
    {
      "channel": 2,
      "note": 79,
      "start": 10.4257,
      "duration": 0.0143,
      "velocity": 104,
      "chip": "ym2612"
    },
    {
      "channel": 3,
      "note": 82,
      "start": 10.4259,
      "duration": 0.0143,
      "velocity": 104,
      "chip": "ym2612"
    },
    {
      "channel": 2,
      "note": 80,
      "start": 10.4399,
      "duration": 0.0188,
      "velocity": 104,
      "chip": "ym2612"
    },
    {
      "channel": 3,
      "note": 83,
      "start": 10.4402,
      "duration": 0.0188,
      "velocity": 104,
      "chip": "ym2612"
    },
    {
      "channel": 2,
      "note": 81,
      "start": 10.4588,
      "duration": 0.0164,
      "velocity": 104,
      "chip": "ym2612"
    },
    {
      "channel": 3,
      "note": 84,
      "start": 10.459,
      "duration": 0.0164,
      "velocity": 104,
      "chip": "ym2612"
    },
    {
      "channel": 2,
      "note": 82,
      "start": 10.4751,
      "duration": 0.0163,
      "velocity": 104,
      "chip": "ym2612"
    },
    {
      "channel": 3,
      "note": 85,
      "start": 10.4754,
      "duration": 0.0163,
      "velocity": 104,
      "chip": "ym2612"
    },
    {
      "channel": 2,
      "note": 84,
      "start": 10.4914,
      "duration": 0.0164,
      "velocity": 104,
      "chip": "ym2612"
    },
    {
      "channel": 3,
      "note": 86,
      "start": 10.4917,
      "duration": 0.0164,
      "velocity": 104,
      "chip": "ym2612"
    },
    {
      "channel": 2,
      "note": 85,
      "start": 10.5078,
      "duration": 0.0211,
      "velocity": 104,
      "chip": "ym2612"
    },
    {
      "channel": 3,
      "note": 88,
      "start": 10.5081,
      "duration": 0.0211,
      "velocity": 104,
      "chip": "ym2612"
    },
    {
      "channel": 0,
      "note": 41,
      "start": 10.5272,
      "duration": 0.1176,
      "velocity": 97,
      "chip": "ym2612"
    },
    {
      "channel": 1,
      "note": 66,
      "start": 10.5277,
      "duration": 0.2257,
      "velocity": 110,
      "chip": "ym2612"
    },
    {
      "channel": 4,
      "note": 65,
      "start": 10.5284,
      "duration": 0.1181,
      "velocity": 127,
      "chip": "ym2612"
    },
    {
      "channel": 2,
      "note": 86,
      "start": 10.5289,
      "duration": 0.0166,
      "velocity": 104,
      "chip": "ym2612"
    },
    {
      "channel": 3,
      "note": 89,
      "start": 10.5291,
      "duration": 0.0167,
      "velocity": 104,
      "chip": "ym2612"
    },
    {
      "channel": 2,
      "note": 87,
      "start": 10.5455,
      "duration": 0.0189,
      "velocity": 104,
      "chip": "ym2612"
    },
    {
      "channel": 3,
      "note": 89,
      "start": 10.5459,
      "duration": 0.0189,
      "velocity": 104,
      "chip": "ym2612"
    },
    {
      "channel": 2,
      "note": 88,
      "start": 10.5645,
      "duration": 0.02,
      "velocity": 104,
      "chip": "ym2612"
    },
    {
      "channel": 3,
      "note": 90,
      "start": 10.5648,
      "duration": 0.02,
      "velocity": 104,
      "chip": "ym2612"
    },
    {
      "channel": 2,
      "note": 89,
      "start": 10.5845,
      "duration": 0.02,
      "velocity": 104,
      "chip": "ym2612"
    },
    {
      "channel": 3,
      "note": 91,
      "start": 10.5848,
      "duration": 0.02,
      "velocity": 104,
      "chip": "ym2612"
    },
    {
      "channel": 2,
      "note": 90,
      "start": 10.6045,
      "duration": 0.02,
      "velocity": 104,
      "chip": "ym2612"
    },
    {
      "channel": 3,
      "note": 92,
      "start": 10.6048,
      "duration": 0.02,
      "velocity": 104,
      "chip": "ym2612"
    },
    {
      "channel": 2,
      "note": 91,
      "start": 10.6245,
      "duration": 0.021,
      "velocity": 104,
      "chip": "ym2612"
    },
    {
      "channel": 3,
      "note": 93,
      "start": 10.6248,
      "duration": 0.0213,
      "velocity": 104,
      "chip": "ym2612"
    },
    {
      "channel": 0,
      "note": 41,
      "start": 10.645,
      "duration": 0.1078,
      "velocity": 97,
      "chip": "ym2612"
    },
    {
      "channel": 2,
      "note": 90,
      "start": 10.6456,
      "duration": 0.2103,
      "velocity": 97,
      "chip": "ym2612"
    },
    {
      "channel": 3,
      "note": 92,
      "start": 10.6462,
      "duration": 0.2119,
      "velocity": 97,
      "chip": "ym2612"
    },
    {
      "channel": 4,
      "note": 77,
      "start": 10.6468,
      "duration": 0.1074,
      "velocity": 127,
      "chip": "ym2612"
    },
    {
      "channel": 0,
      "note": 41,
      "start": 10.7531,
      "duration": 0.1006,
      "velocity": 97,
      "chip": "ym2612"
    },
    {
      "channel": 1,
      "note": 68,
      "start": 10.7537,
      "duration": 0.3319,
      "velocity": 110,
      "chip": "ym2612"
    },
    {
      "channel": 4,
      "note": 65,
      "start": 10.7543,
      "duration": 0.2115,
      "velocity": 127,
      "chip": "ym2612"
    },
    {
      "channel": 0,
      "note": 41,
      "start": 10.8539,
      "duration": 0.1111,
      "velocity": 97,
      "chip": "ym2612"
    },
    {
      "channel": 2,
      "note": 60,
      "start": 10.8561,
      "duration": 6.4682,
      "velocity": 104,
      "chip": "ym2612"
    },
    {
      "channel": 3,
      "note": 65,
      "start": 10.8583,
      "duration": 6.4682,
      "velocity": 104,
      "chip": "ym2612"
    },
    {
      "channel": 0,
      "note": 41,
      "start": 10.9651,
      "duration": 0.1198,
      "velocity": 97,
      "chip": "ym2612"
    },
    {
      "channel": 4,
      "note": 65,
      "start": 10.9659,
      "duration": 0.1203,
      "velocity": 127,
      "chip": "ym2612"
    },
    {
      "channel": 0,
      "note": 41,
      "start": 11.0851,
      "duration": 0.1198,
      "velocity": 97,
      "chip": "ym2612"
    },
    {
      "channel": 1,
      "note": 65,
      "start": 11.0857,
      "duration": 0.2398,
      "velocity": 110,
      "chip": "ym2612"
    },
    {
      "channel": 4,
      "note": 77,
      "start": 11.0864,
      "duration": 0.1193,
      "velocity": 127,
      "chip": "ym2612"
    },
    {
      "channel": 5,
      "note": 21,
      "start": 11.087,
      "duration": 0.1192,
      "velocity": 84,
      "chip": "ym2612"
    },
    {
      "channel": 0,
      "note": 41,
      "start": 11.2051,
      "duration": 0.1198,
      "velocity": 97,
      "chip": "ym2612"
    },
    {
      "channel": 4,
      "note": 65,
      "start": 11.2059,
      "duration": 0.2256,
      "velocity": 127,
      "chip": "ym2612"
    },
    {
      "channel": 5,
      "note": 21,
      "start": 11.2064,
      "duration": 0.3441,
      "velocity": 84,
      "chip": "ym2612"
    },
    {
      "channel": 0,
      "note": 41,
      "start": 11.3251,
      "duration": 0.1056,
      "velocity": 97,
      "chip": "ym2612"
    },
    {
      "channel": 1,
      "note": 58,
      "start": 11.3257,
      "duration": 0.222,
      "velocity": 110,
      "chip": "ym2612"
    },
    {
      "channel": 0,
      "note": 41,
      "start": 11.4309,
      "duration": 0.1163,
      "velocity": 97,
      "chip": "ym2612"
    },
    {
      "channel": 4,
      "note": 65,
      "start": 11.4317,
      "duration": 0.1168,
      "velocity": 127,
      "chip": "ym2612"
    },
    {
      "channel": 0,
      "note": 41,
      "start": 11.5473,
      "duration": 0.1198,
      "velocity": 97,
      "chip": "ym2612"
    },
    {
      "channel": 1,
      "note": 60,
      "start": 11.5479,
      "duration": 0.2398,
      "velocity": 110,
      "chip": "ym2612"
    },
    {
      "channel": 4,
      "note": 77,
      "start": 11.5486,
      "duration": 0.1194,
      "velocity": 127,
      "chip": "ym2612"
    },
    {
      "channel": 5,
      "note": 21,
      "start": 11.5507,
      "duration": 0.1178,
      "velocity": 84,
      "chip": "ym2612"
    },
    {
      "channel": 0,
      "note": 41,
      "start": 11.6673,
      "duration": 0.1198,
      "velocity": 97,
      "chip": "ym2612"
    },
    {
      "channel": 4,
      "note": 65,
      "start": 11.6681,
      "duration": 0.2326,
      "velocity": 127,
      "chip": "ym2612"
    },
    {
      "channel": 5,
      "note": 21,
      "start": 11.6687,
      "duration": 0.3546,
      "velocity": 84,
      "chip": "ym2612"
    },
    {
      "channel": 0,
      "note": 41,
      "start": 11.7873,
      "duration": 0.1126,
      "velocity": 97,
      "chip": "ym2612"
    },
    {
      "channel": 1,
      "note": 65,
      "start": 11.7879,
      "duration": 0.2326,
      "velocity": 110,
      "chip": "ym2612"
    },
    {
      "channel": 0,
      "note": 41,
      "start": 11.9001,
      "duration": 0.1198,
      "velocity": 97,
      "chip": "ym2612"
    },
    {
      "channel": 4,
      "note": 65,
      "start": 11.9009,
      "duration": 0.1203,
      "velocity": 127,
      "chip": "ym2612"
    },
    {
      "channel": 0,
      "note": 41,
      "start": 12.0201,
      "duration": 0.1198,
      "velocity": 97,
      "chip": "ym2612"
    },
    {
      "channel": 1,
      "note": 58,
      "start": 12.0207,
      "duration": 0.2398,
      "velocity": 110,
      "chip": "ym2612"
    },
    {
      "channel": 4,
      "note": 77,
      "start": 12.0213,
      "duration": 0.1194,
      "velocity": 127,
      "chip": "ym2612"
    },
    {
      "channel": 5,
      "note": 21,
      "start": 12.0235,
      "duration": 0.1178,
      "velocity": 84,
      "chip": "ym2612"
    },
    {
      "channel": 0,
      "note": 41,
      "start": 12.1401,
      "duration": 0.1198,
      "velocity": 97,
      "chip": "ym2612"
    },
    {
      "channel": 4,
      "note": 65,
      "start": 12.1409,
      "duration": 0.2205,
      "velocity": 127,
      "chip": "ym2612"
    },
    {
      "channel": 5,
      "note": 21,
      "start": 12.1415,
      "duration": 0.3415,
      "velocity": 84,
      "chip": "ym2612"
    },
    {
      "channel": 0,
      "note": 41,
      "start": 12.2601,
      "duration": 0.1006,
      "velocity": 97,
      "chip": "ym2612"
    },
    {
      "channel": 1,
      "note": 60,
      "start": 12.2607,
      "duration": 0.2194,
      "velocity": 110,
      "chip": "ym2612"
    },
    {
      "channel": 0,
      "note": 41,
      "start": 12.3608,
      "duration": 0.1187,
      "velocity": 97,
      "chip": "ym2612"
    },
    {
      "channel": 4,
      "note": 65,
      "start": 12.3616,
      "duration": 0.1192,
      "velocity": 127,
      "chip": "ym2612"
    },
    {
      "channel": 0,
      "note": 41,
      "start": 12.4797,
      "duration": 0.1198,
      "velocity": 97,
      "chip": "ym2612"
    },
    {
      "channel": 1,
      "note": 63,
      "start": 12.4803,
      "duration": 0.2232,
      "velocity": 110,
      "chip": "ym2612"
    },
    {
      "channel": 4,
      "note": 77,
      "start": 12.481,
      "duration": 0.1194,
      "velocity": 127,
      "chip": "ym2612"
    },
    {
      "channel": 5,
      "note": 21,
      "start": 12.4831,
      "duration": 0.4549,
      "velocity": 84,
      "chip": "ym2612"
    },
    {
      "channel": 0,
      "note": 41,
      "start": 12.5997,
      "duration": 0.1032,
      "velocity": 97,
      "chip": "ym2612"
    },
    {
      "channel": 4,
      "note": 65,
      "start": 12.6005,
      "duration": 0.2149,
      "velocity": 127,
      "chip": "ym2612"
    },
    {
      "channel": 0,
      "note": 41,
      "start": 12.7031,
      "duration": 0.1115,
      "velocity": 97,
      "chip": "ym2612"
    },
    {
      "channel": 1,
      "note": 65,
      "start": 12.7036,
      "duration": 0.2316,
      "velocity": 110,
      "chip": "ym2612"
    },
    {
      "channel": 0,
      "note": 41,
      "start": 12.8148,
      "duration": 0.1198,
      "velocity": 97,
      "chip": "ym2612"
    },
    {
      "channel": 4,
      "note": 65,
      "start": 12.8156,
      "duration": 0.1203,
      "velocity": 127,
      "chip": "ym2612"
    },
    {
      "channel": 0,
      "note": 41,
      "start": 12.9348,
      "duration": 0.1198,
      "velocity": 97,
      "chip": "ym2612"
    },
    {
      "channel": 1,
      "note": 66,
      "start": 12.9354,
      "duration": 0.2398,
      "velocity": 110,
      "chip": "ym2612"
    },
    {
      "channel": 4,
      "note": 77,
      "start": 12.9361,
      "duration": 0.1194,
      "velocity": 127,
      "chip": "ym2612"
    },
    {
      "channel": 5,
      "note": 21,
      "start": 12.9382,
      "duration": 0.1178,
      "velocity": 84,
      "chip": "ym2612"
    },
    {
      "channel": 0,
      "note": 41,
      "start": 13.0548,
      "duration": 0.1198,
      "velocity": 97,
      "chip": "ym2612"
    },
    {
      "channel": 4,
      "note": 65,
      "start": 13.0556,
      "duration": 0.2255,
      "velocity": 127,
      "chip": "ym2612"
    },
    {
      "channel": 5,
      "note": 21,
      "start": 13.0562,
      "duration": 0.3464,
      "velocity": 84,
      "chip": "ym2612"
    },
    {
      "channel": 0,
      "note": 41,
      "start": 13.1748,
      "duration": 0.1056,
      "velocity": 97,
      "chip": "ym2612"
    },
    {
      "channel": 1,
      "note": 68,
      "start": 13.1754,
      "duration": 0.2244,
      "velocity": 110,
      "chip": "ym2612"
    },
    {
      "channel": 0,
      "note": 41,
      "start": 13.2805,
      "duration": 0.1187,
      "velocity": 97,
      "chip": "ym2612"
    },
    {
      "channel": 4,
      "note": 65,
      "start": 13.2813,
      "duration": 0.1192,
      "velocity": 127,
      "chip": "ym2612"
    },
    {
      "channel": 0,
      "note": 41,
      "start": 13.3994,
      "duration": 0.1198,
      "velocity": 97,
      "chip": "ym2612"
    },
    {
      "channel": 1,
      "note": 63,
      "start": 13.4,
      "duration": 0.5676,
      "velocity": 114,
      "chip": "ym2612"
    },
    {
      "channel": 4,
      "note": 77,
      "start": 13.4006,
      "duration": 0.1194,
      "velocity": 127,
      "chip": "ym2612"
    },
    {
      "channel": 5,
      "note": 21,
      "start": 13.4028,
      "duration": 0.1178,
      "velocity": 84,
      "chip": "ym2612"
    },
    {
      "channel": 0,
      "note": 41,
      "start": 13.5194,
      "duration": 0.1198,
      "velocity": 97,
      "chip": "ym2612"
    },
    {
      "channel": 4,
      "note": 65,
      "start": 13.5202,
      "duration": 0.2251,
      "velocity": 127,
      "chip": "ym2612"
    },
    {
      "channel": 5,
      "note": 21,
      "start": 13.5207,
      "duration": 0.3276,
      "velocity": 84,
      "chip": "ym2612"
    },
    {
      "channel": 0,
      "note": 41,
      "start": 13.6394,
      "duration": 0.1051,
      "velocity": 97,
      "chip": "ym2612"
    },
    {
      "channel": 0,
      "note": 41,
      "start": 13.7447,
      "duration": 0.1007,
      "velocity": 97,
      "chip": "ym2612"
    },
    {
      "channel": 4,
      "note": 65,
      "start": 13.7454,
      "duration": 0.1007,
      "velocity": 127,
      "chip": "ym2612"
    },
    {
      "channel": 0,
      "note": 41,
      "start": 13.8456,
      "duration": 0.1198,
      "velocity": 97,
      "chip": "ym2612"
    },
    {
      "channel": 4,
      "note": 77,
      "start": 13.8463,
      "duration": 0.1219,
      "velocity": 127,
      "chip": "ym2612"
    },
    {
      "channel": 5,
      "note": 21,
      "start": 13.8484,
      "duration": 0.1203,
      "velocity": 84,
      "chip": "ym2612"
    },
    {
      "channel": 0,
      "note": 41,
      "start": 13.9656,
      "duration": 0.1198,
      "velocity": 97,
      "chip": "ym2612"
    },
    {
      "channel": 1,
      "note": 66,
      "start": 13.9677,
      "duration": 0.1183,
      "velocity": 114,
      "chip": "ym2612"
    },
    {
      "channel": 4,
      "note": 65,
      "start": 13.9684,
      "duration": 0.2241,
      "velocity": 127,
      "chip": "ym2612"
    },
    {
      "channel": 5,
      "note": 21,
      "start": 13.969,
      "duration": 0.342,
      "velocity": 84,
      "chip": "ym2612"
    },
    {
      "channel": 0,
      "note": 41,
      "start": 14.0856,
      "duration": 0.1056,
      "velocity": 97,
      "chip": "ym2612"
    },
    {
      "channel": 1,
      "note": 78,
      "start": 14.0861,
      "duration": 0.1056,
      "velocity": 114,
      "chip": "ym2612"
    },
    {
      "channel": 0,
      "note": 41,
      "start": 14.1913,
      "duration": 0.1163,
      "velocity": 97,
      "chip": "ym2612"
    },
    {
      "channel": 1,
      "note": 73,
      "start": 14.1919,
      "duration": 0.1163,
      "velocity": 114,
      "chip": "ym2612"
    },
    {
      "channel": 4,
      "note": 65,
      "start": 14.1926,
      "duration": 0.1163,
      "velocity": 127,
      "chip": "ym2612"
    },
    {
      "channel": 0,
      "note": 41,
      "start": 14.3078,
      "duration": 0.1198,
      "velocity": 97,
      "chip": "ym2612"
    },
    {
      "channel": 1,
      "note": 66,
      "start": 14.3084,
      "duration": 0.1198,
      "velocity": 114,
      "chip": "ym2612"
    },
    {
      "channel": 4,
      "note": 77,
      "start": 14.309,
      "duration": 0.1199,
      "velocity": 127,
      "chip": "ym2612"
    },
    {
      "channel": 5,
      "note": 21,
      "start": 14.3112,
      "duration": 0.4579,
      "velocity": 84,
      "chip": "ym2612"
    },
    {
      "channel": 0,
      "note": 41,
      "start": 14.4278,
      "duration": 0.1059,
      "velocity": 97,
      "chip": "ym2612"
    },
    {
      "channel": 1,
      "note": 65,
      "start": 14.4284,
      "duration": 0.3379,
      "velocity": 110,
      "chip": "ym2612"
    },
    {
      "channel": 4,
      "note": 65,
      "start": 14.429,
      "duration": 0.2158,
      "velocity": 127,
      "chip": "ym2612"
    },
    {
      "channel": 0,
      "note": 41,
      "start": 14.5339,
      "duration": 0.1103,
      "velocity": 97,
      "chip": "ym2612"
    },
    {
      "channel": 0,
      "note": 41,
      "start": 14.6442,
      "duration": 0.1199,
      "velocity": 97,
      "chip": "ym2612"
    },
    {
      "channel": 4,
      "note": 65,
      "start": 14.645,
      "duration": 0.1219,
      "velocity": 127,
      "chip": "ym2612"
    },
    {
      "channel": 0,
      "note": 41,
      "start": 14.7643,
      "duration": 0.1198,
      "velocity": 97,
      "chip": "ym2612"
    },
    {
      "channel": 1,
      "note": 65,
      "start": 14.7664,
      "duration": 0.2383,
      "velocity": 110,
      "chip": "ym2612"
    },
    {
      "channel": 4,
      "note": 77,
      "start": 14.7671,
      "duration": 0.1178,
      "velocity": 127,
      "chip": "ym2612"
    },
    {
      "channel": 5,
      "note": 21,
      "start": 14.7693,
      "duration": 0.1162,
      "velocity": 84,
      "chip": "ym2612"
    },
    {
      "channel": 0,
      "note": 41,
      "start": 14.8843,
      "duration": 0.1198,
      "velocity": 97,
      "chip": "ym2612"
    },
    {
      "channel": 4,
      "note": 65,
      "start": 14.8851,
      "duration": 0.2307,
      "velocity": 127,
      "chip": "ym2612"
    },
    {
      "channel": 5,
      "note": 21,
      "start": 14.8856,
      "duration": 0.3516,
      "velocity": 84,
      "chip": "ym2612"
    },
    {
      "channel": 0,
      "note": 41,
      "start": 15.0043,
      "duration": 0.1107,
      "velocity": 97,
      "chip": "ym2612"
    },
    {
      "channel": 1,
      "note": 58,
      "start": 15.0049,
      "duration": 0.2295,
      "velocity": 110,
      "chip": "ym2612"
    },
    {
      "channel": 0,
      "note": 41,
      "start": 15.1151,
      "duration": 0.1187,
      "velocity": 97,
      "chip": "ym2612"
    },
    {
      "channel": 4,
      "note": 65,
      "start": 15.1159,
      "duration": 0.1192,
      "velocity": 127,
      "chip": "ym2612"
    },
    {
      "channel": 0,
      "note": 41,
      "start": 15.234,
      "duration": 0.1198,
      "velocity": 97,
      "chip": "ym2612"
    },
    {
      "channel": 1,
      "note": 60,
      "start": 15.2346,
      "duration": 0.2398,
      "velocity": 110,
      "chip": "ym2612"
    },
    {
      "channel": 4,
      "note": 77,
      "start": 15.2353,
      "duration": 0.1194,
      "velocity": 127,
      "chip": "ym2612"
    },
    {
      "channel": 5,
      "note": 21,
      "start": 15.2374,
      "duration": 0.1178,
      "velocity": 84,
      "chip": "ym2612"
    },
    {
      "channel": 0,
      "note": 41,
      "start": 15.354,
      "duration": 0.1198,
      "velocity": 97,
      "chip": "ym2612"
    },
    {
      "channel": 4,
      "note": 65,
      "start": 15.3548,
      "duration": 0.2326,
      "velocity": 127,
      "chip": "ym2612"
    },
    {
      "channel": 5,
      "note": 21,
      "start": 15.3554,
      "duration": 0.3546,
      "velocity": 84,
      "chip": "ym2612"
    },
    {
      "channel": 0,
      "note": 41,
      "start": 15.474,
      "duration": 0.1126,
      "velocity": 97,
      "chip": "ym2612"
    },
    {
      "channel": 1,
      "note": 65,
      "start": 15.4746,
      "duration": 0.2326,
      "velocity": 110,
      "chip": "ym2612"
    },
    {
      "channel": 0,
      "note": 41,
      "start": 15.5868,
      "duration": 0.1198,
      "velocity": 97,
      "chip": "ym2612"
    },
    {
      "channel": 4,
      "note": 65,
      "start": 15.5876,
      "duration": 0.1203,
      "velocity": 127,
      "chip": "ym2612"
    },
    {
      "channel": 0,
      "note": 41,
      "start": 15.7068,
      "duration": 0.1198,
      "velocity": 97,
      "chip": "ym2612"
    },
    {
      "channel": 1,
      "note": 58,
      "start": 15.7074,
      "duration": 0.2398,
      "velocity": 110,
      "chip": "ym2612"
    },
    {
      "channel": 4,
      "note": 77,
      "start": 15.708,
      "duration": 0.1194,
      "velocity": 127,
      "chip": "ym2612"
    },
    {
      "channel": 5,
      "note": 21,
      "start": 15.7102,
      "duration": 0.1178,
      "velocity": 84,
      "chip": "ym2612"
    },
    {
      "channel": 0,
      "note": 41,
      "start": 15.8268,
      "duration": 0.1198,
      "velocity": 97,
      "chip": "ym2612"
    },
    {
      "channel": 4,
      "note": 65,
      "start": 15.8276,
      "duration": 0.2255,
      "velocity": 127,
      "chip": "ym2612"
    },
    {
      "channel": 5,
      "note": 21,
      "start": 15.8281,
      "duration": 0.3464,
      "velocity": 84,
      "chip": "ym2612"
    },
    {
      "channel": 0,
      "note": 41,
      "start": 15.9468,
      "duration": 0.1056,
      "velocity": 97,
      "chip": "ym2612"
    },
    {
      "channel": 1,
      "note": 60,
      "start": 15.9474,
      "duration": 0.2244,
      "velocity": 110,
      "chip": "ym2612"
    },
    {
      "channel": 0,
      "note": 41,
      "start": 16.0525,
      "duration": 0.1187,
      "velocity": 97,
      "chip": "ym2612"
    },
    {
      "channel": 4,
      "note": 65,
      "start": 16.0533,
      "duration": 0.1192,
      "velocity": 127,
      "chip": "ym2612"
    },
    {
      "channel": 0,
      "note": 41,
      "start": 16.1714,
      "duration": 0.1198,
      "velocity": 97,
      "chip": "ym2612"
    },
    {
      "channel": 1,
      "note": 63,
      "start": 16.172,
      "duration": 0.3311,
      "velocity": 110,
      "chip": "ym2612"
    },
    {
      "channel": 4,
      "note": 77,
      "start": 16.1726,
      "duration": 0.1194,
      "velocity": 127,
      "chip": "ym2612"
    },
    {
      "channel": 5,
      "note": 21,
      "start": 16.1748,
      "duration": 0.4506,
      "velocity": 84,
      "chip": "ym2612"
    },
    {
      "channel": 0,
      "note": 41,
      "start": 16.2914,
      "duration": 0.1032,
      "velocity": 97,
      "chip": "ym2612"
    },
    {
      "channel": 4,
      "note": 65,
      "start": 16.2921,
      "duration": 0.2116,
      "velocity": 127,
      "chip": "ym2612"
    },
    {
      "channel": 0,
      "note": 41,
      "start": 16.3947,
      "duration": 0.1077,
      "velocity": 97,
      "chip": "ym2612"
    },
    {
      "channel": 0,
      "note": 41,
      "start": 16.5026,
      "duration": 0.1198,
      "velocity": 97,
      "chip": "ym2612"
    },
    {
      "channel": 1,
      "note": 65,
      "start": 16.5032,
      "duration": 0.2398,
      "velocity": 110,
      "chip": "ym2612"
    },
    {
      "channel": 4,
      "note": 65,
      "start": 16.5039,
      "duration": 0.1194,
      "velocity": 127,
      "chip": "ym2612"
    },
    {
      "channel": 0,
      "note": 41,
      "start": 16.6226,
      "duration": 0.1198,
      "velocity": 97,
      "chip": "ym2612"
    },
    {
      "channel": 4,
      "note": 77,
      "start": 16.6234,
      "duration": 0.1203,
      "velocity": 127,
      "chip": "ym2612"
    },
    {
      "channel": 5,
      "note": 21,
      "start": 16.6255,
      "duration": 0.1188,
      "velocity": 84,
      "chip": "ym2612"
    },
    {
      "channel": 0,
      "note": 41,
      "start": 16.7426,
      "duration": 0.1198,
      "velocity": 97,
      "chip": "ym2612"
    },
    {
      "channel": 1,
      "note": 65,
      "start": 16.7432,
      "duration": 0.1198,
      "velocity": 110,
      "chip": "ym2612"
    },
    {
      "channel": 4,
      "note": 65,
      "start": 16.7439,
      "duration": 0.2201,
      "velocity": 127,
      "chip": "ym2612"
    },
    {
      "channel": 5,
      "note": 21,
      "start": 16.7444,
      "duration": 0.3405,
      "velocity": 84,
      "chip": "ym2612"
    },
    {
      "channel": 0,
      "note": 41,
      "start": 16.8626,
      "duration": 0.1006,
      "velocity": 97,
      "chip": "ym2612"
    },
    {
      "channel": 1,
      "note": 66,
      "start": 16.8632,
      "duration": 0.3394,
      "velocity": 110,
      "chip": "ym2612"
    },
    {
      "channel": 0,
      "note": 41,
      "start": 16.9633,
      "duration": 0.1187,
      "velocity": 97,
      "chip": "ym2612"
    },
    {
      "channel": 4,
      "note": 65,
      "start": 16.9641,
      "duration": 0.1186,
      "velocity": 127,
      "chip": "ym2612"
    },
    {
      "channel": 0,
      "note": 41,
      "start": 17.0822,
      "duration": 0.1198,
      "velocity": 97,
      "chip": "ym2612"
    },
    {
      "channel": 4,
      "note": 77,
      "start": 17.0829,
      "duration": 0.1204,
      "velocity": 127,
      "chip": "ym2612"
    },
    {
      "channel": 5,
      "note": 21,
      "start": 17.0851,
      "duration": 0.1188,
      "velocity": 84,
      "chip": "ym2612"
    },
    {
      "channel": 0,
      "note": 41,
      "start": 17.2022,
      "duration": 0.1199,
      "velocity": 97,
      "chip": "ym2612"
    },
    {
      "channel": 1,
      "note": 66,
      "start": 17.2028,
      "duration": 0.2286,
      "velocity": 110,
      "chip": "ym2612"
    },
    {
      "channel": 4,
      "note": 65,
      "start": 17.2034,
      "duration": 0.2287,
      "velocity": 127,
      "chip": "ym2612"
    },
    {
      "channel": 5,
      "note": 21,
      "start": 17.204,
      "duration": 0.3374,
      "velocity": 84,
      "chip": "ym2612"
    },
    {
      "channel": 0,
      "note": 41,
      "start": 17.3223,
      "duration": 0.1086,
      "velocity": 97,
      "chip": "ym2612"
    },
    {
      "channel": 2,
      "note": 75,
      "start": 17.3245,
      "duration": 0.003,
      "velocity": 104,
      "chip": "ym2612"
    },
    {
      "channel": 3,
      "note": 78,
      "start": 17.3267,
      "duration": 0.0011,
      "velocity": 104,
      "chip": "ym2612"
    },
    {
      "channel": 2,
      "note": 76,
      "start": 17.3275,
      "duration": 0.0132,
      "velocity": 104,
      "chip": "ym2612"
    },
    {
      "channel": 3,
      "note": 79,
      "start": 17.3278,
      "duration": 0.0132,
      "velocity": 104,
      "chip": "ym2612"
    },
    {
      "channel": 2,
      "note": 77,
      "start": 17.3407,
      "duration": 0.0164,
      "velocity": 104,
      "chip": "ym2612"
    },
    {
      "channel": 3,
      "note": 80,
      "start": 17.341,
      "duration": 0.0164,
      "velocity": 104,
      "chip": "ym2612"
    },
    {
      "channel": 2,
      "note": 78,
      "start": 17.357,
      "duration": 0.0165,
      "velocity": 104,
      "chip": "ym2612"
    },
    {
      "channel": 3,
      "note": 81,
      "start": 17.3573,
      "duration": 0.0165,
      "velocity": 104,
      "chip": "ym2612"
    },
    {
      "channel": 2,
      "note": 79,
      "start": 17.3735,
      "duration": 0.0186,
      "velocity": 104,
      "chip": "ym2612"
    },
    {
      "channel": 3,
      "note": 82,
      "start": 17.3738,
      "duration": 0.0185,
      "velocity": 104,
      "chip": "ym2612"
    },
    {
      "channel": 2,
      "note": 80,
      "start": 17.3921,
      "duration": 0.0184,
      "velocity": 104,
      "chip": "ym2612"
    },
    {
      "channel": 3,
      "note": 84,
      "start": 17.3923,
      "duration": 0.0185,
      "velocity": 104,
      "chip": "ym2612"
    },
    {
      "channel": 2,
      "note": 81,
      "start": 17.4105,
      "duration": 0.0225,
      "velocity": 104,
      "chip": "ym2612"
    },
    {
      "channel": 3,
      "note": 85,
      "start": 17.4108,
      "duration": 0.0226,
      "velocity": 104,
      "chip": "ym2612"
    },
    {
      "channel": 0,
      "note": 41,
      "start": 17.431,
      "duration": 0.106,
      "velocity": 97,
      "chip": "ym2612"
    },
    {
      "channel": 1,
      "note": 66,
      "start": 17.4316,
      "duration": 0.106,
      "velocity": 110,
      "chip": "ym2612"
    },
    {
      "channel": 4,
      "note": 65,
      "start": 17.4323,
      "duration": 0.107,
      "velocity": 127,
      "chip": "ym2612"
    },
    {
      "channel": 2,
      "note": 82,
      "start": 17.433,
      "duration": 0.0144,
      "velocity": 104,
      "chip": "ym2612"
    },
    {
      "channel": 3,
      "note": 86,
      "start": 17.4334,
      "duration": 0.0144,
      "velocity": 104,
      "chip": "ym2612"
    },
    {
      "channel": 2,
      "note": 84,
      "start": 17.4475,
      "duration": 0.0188,
      "velocity": 104,
      "chip": "ym2612"
    },
    {
      "channel": 3,
      "note": 87,
      "start": 17.4478,
      "duration": 0.0188,
      "velocity": 104,
      "chip": "ym2612"
    },
    {
      "channel": 2,
      "note": 85,
      "start": 17.4663,
      "duration": 0.0163,
      "velocity": 104,
      "chip": "ym2612"
    },
    {
      "channel": 3,
      "note": 88,
      "start": 17.4666,
      "duration": 0.0163,
      "velocity": 104,
      "chip": "ym2612"
    },
    {
      "channel": 2,
      "note": 86,
      "start": 17.4826,
      "duration": 0.0164,
      "velocity": 104,
      "chip": "ym2612"
    },
    {
      "channel": 3,
      "note": 89,
      "start": 17.4829,
      "duration": 0.0164,
      "velocity": 104,
      "chip": "ym2612"
    },
    {
      "channel": 2,
      "note": 87,
      "start": 17.4989,
      "duration": 0.019,
      "velocity": 104,
      "chip": "ym2612"
    },
    {
      "channel": 3,
      "note": 90,
      "start": 17.4993,
      "duration": 0.019,
      "velocity": 104,
      "chip": "ym2612"
    },
    {
      "channel": 2,
      "note": 88,
      "start": 17.5179,
      "duration": 0.0202,
      "velocity": 104,
      "chip": "ym2612"
    },
    {
      "channel": 3,
      "note": 91,
      "start": 17.5182,
      "duration": 0.0205,
      "velocity": 104,
      "chip": "ym2612"
    },
    {
      "channel": 0,
      "note": 41,
      "start": 17.5372,
      "duration": 0.1198,
      "velocity": 97,
      "chip": "ym2612"
    },
    {
      "channel": 1,
      "note": 68,
      "start": 17.5378,
      "duration": 0.346,
      "velocity": 110,
      "chip": "ym2612"
    },
    {
      "channel": 2,
      "note": 87,
      "start": 17.5383,
      "duration": 0.2394,
      "velocity": 104,
      "chip": "ym2612"
    },
    {
      "channel": 3,
      "note": 90,
      "start": 17.5389,
      "duration": 0.2394,
      "velocity": 104,
      "chip": "ym2612"
    },
    {
      "channel": 4,
      "note": 77,
      "start": 17.5394,
      "duration": 0.1183,
      "velocity": 127,
      "chip": "ym2612"
    },
    {
      "channel": 5,
      "note": 21,
      "start": 17.5416,
      "duration": 0.1167,
      "velocity": 84,
      "chip": "ym2612"
    },
    {
      "channel": 0,
      "note": 41,
      "start": 17.6572,
      "duration": 0.1198,
      "velocity": 97,
      "chip": "ym2612"
    },
    {
      "channel": 4,
      "note": 65,
      "start": 17.658,
      "duration": 0.2265,
      "velocity": 127,
      "chip": "ym2612"
    },
    {
      "channel": 5,
      "note": 21,
      "start": 17.6585,
      "duration": 4.2245,
      "velocity": 84,
      "chip": "ym2612"
    },
    {
      "channel": 0,
      "note": 41,
      "start": 17.7772,
      "duration": 0.106,
      "velocity": 97,
      "chip": "ym2612"
    },
    {
      "channel": 2,
      "note": 78,
      "start": 17.7779,
      "duration": 0.0015,
      "velocity": 104,
      "chip": "ym2612"
    },
    {
      "channel": 3,
      "note": 80,
      "start": 17.7785,
      "duration": 0.0011,
      "velocity": 104,
      "chip": "ym2612"
    },
    {
      "channel": 2,
      "note": 79,
      "start": 17.7794,
      "duration": 0.0143,
      "velocity": 104,
      "chip": "ym2612"
    },
    {
      "channel": 3,
      "note": 82,
      "start": 17.7796,
      "duration": 0.0143,
      "velocity": 104,
      "chip": "ym2612"
    },
    {
      "channel": 2,
      "note": 80,
      "start": 17.7936,
      "duration": 0.0188,
      "velocity": 104,
      "chip": "ym2612"
    },
    {
      "channel": 3,
      "note": 83,
      "start": 17.7939,
      "duration": 0.0188,
      "velocity": 104,
      "chip": "ym2612"
    },
    {
      "channel": 2,
      "note": 81,
      "start": 17.8124,
      "duration": 0.0188,
      "velocity": 104,
      "chip": "ym2612"
    },
    {
      "channel": 3,
      "note": 84,
      "start": 17.8127,
      "duration": 0.0188,
      "velocity": 104,
      "chip": "ym2612"
    },
    {
      "channel": 2,
      "note": 82,
      "start": 17.8312,
      "duration": 0.0164,
      "velocity": 104,
      "chip": "ym2612"
    },
    {
      "channel": 3,
      "note": 85,
      "start": 17.8315,
      "duration": 0.0164,
      "velocity": 104,
      "chip": "ym2612"
    },
    {
      "channel": 2,
      "note": 84,
      "start": 17.8476,
      "duration": 0.0165,
      "velocity": 104,
      "chip": "ym2612"
    },
    {
      "channel": 3,
      "note": 86,
      "start": 17.8479,
      "duration": 0.0164,
      "velocity": 104,
      "chip": "ym2612"
    },
    {
      "channel": 2,
      "note": 85,
      "start": 17.8641,
      "duration": 0.021,
      "velocity": 104,
      "chip": "ym2612"
    },
    {
      "channel": 3,
      "note": 88,
      "start": 17.8644,
      "duration": 0.021,
      "velocity": 104,
      "chip": "ym2612"
    },
    {
      "channel": 0,
      "note": 41,
      "start": 17.8834,
      "duration": 0.1157,
      "velocity": 97,
      "chip": "ym2612"
    },
    {
      "channel": 1,
      "note": 66,
      "start": 17.884,
      "duration": 0.2288,
      "velocity": 110,
      "chip": "ym2612"
    },
    {
      "channel": 4,
      "note": 65,
      "start": 17.8846,
      "duration": 0.1162,
      "velocity": 127,
      "chip": "ym2612"
    },
    {
      "channel": 2,
      "note": 86,
      "start": 17.8851,
      "duration": 0.0147,
      "velocity": 104,
      "chip": "ym2612"
    },
    {
      "channel": 3,
      "note": 89,
      "start": 17.8854,
      "duration": 0.0147,
      "velocity": 104,
      "chip": "ym2612"
    },
    {
      "channel": 2,
      "note": 87,
      "start": 17.8997,
      "duration": 0.019,
      "velocity": 104,
      "chip": "ym2612"
    },
    {
      "channel": 3,
      "note": 89,
      "start": 17.9,
      "duration": 0.019,
      "velocity": 104,
      "chip": "ym2612"
    },
    {
      "channel": 2,
      "note": 88,
      "start": 17.9187,
      "duration": 0.02,
      "velocity": 104,
      "chip": "ym2612"
    },
    {
      "channel": 3,
      "note": 90,
      "start": 17.919,
      "duration": 0.02,
      "velocity": 104,
      "chip": "ym2612"
    },
    {
      "channel": 2,
      "note": 89,
      "start": 17.9387,
      "duration": 0.02,
      "velocity": 104,
      "chip": "ym2612"
    },
    {
      "channel": 3,
      "note": 91,
      "start": 17.939,
      "duration": 0.02,
      "velocity": 104,
      "chip": "ym2612"
    },
    {
      "channel": 2,
      "note": 90,
      "start": 17.9587,
      "duration": 0.02,
      "velocity": 104,
      "chip": "ym2612"
    },
    {
      "channel": 3,
      "note": 92,
      "start": 17.959,
      "duration": 0.02,
      "velocity": 104,
      "chip": "ym2612"
    },
    {
      "channel": 2,
      "note": 91,
      "start": 17.9787,
      "duration": 0.021,
      "velocity": 104,
      "chip": "ym2612"
    },
    {
      "channel": 3,
      "note": 93,
      "start": 17.979,
      "duration": 0.0212,
      "velocity": 104,
      "chip": "ym2612"
    },
    {
      "channel": 0,
      "note": 41,
      "start": 17.9993,
      "duration": 0.1129,
      "velocity": 97,
      "chip": "ym2612"
    },
    {
      "channel": 2,
      "note": 90,
      "start": 17.9999,
      "duration": 0.2895,
      "velocity": 114,
      "chip": "ym2612"
    },
    {
      "channel": 3,
      "note": 92,
      "start": 18.0005,
      "duration": 0.2257,
      "velocity": 1,
      "chip": "ym2612"
    },
    {
      "channel": 4,
      "note": 77,
      "start": 18.001,
      "duration": 0.1124,
      "velocity": 127,
      "chip": "ym2612"
    },
    {
      "channel": 0,
      "note": 41,
      "start": 18.1124,
      "duration": 0.1094,
      "velocity": 116,
      "chip": "ym2612"
    },
    {
      "channel": 1,
      "note": 68,
      "start": 18.1129,
      "duration": 0.111,
      "velocity": 114,
      "chip": "ym2612"
    },
    {
      "channel": 4,
      "note": 65,
      "start": 18.1136,
      "duration": 0.1147,
      "velocity": 1,
      "chip": "ym2612"
    },
    {
      "channel": 0,
      "note": 77,
      "start": 18.222,
      "duration": 0.0651,
      "velocity": 116,
      "chip": "ym2612"
    },
    {
      "channel": 1,
      "note": 77,
      "start": 18.2241,
      "duration": 0.066,
      "velocity": 114,
      "chip": "ym2612"
    },
    {
      "channel": 3,
      "note": 79,
      "start": 18.2264,
      "duration": 3.0222,
      "velocity": 114,
      "chip": "ym2612"
    },
    {
      "channel": 4,
      "note": 79,
      "start": 18.2285,
      "duration": 3.5335,
      "velocity": 127,
      "chip": "ym2612"
    },
    {
      "channel": 0,
      "note": 79,
      "start": 18.2872,
      "duration": 0.079,
      "velocity": 116,
      "chip": "ym2612"
    },
    {
      "channel": 2,
      "note": 79,
      "start": 18.2895,
      "duration": 0.0782,
      "velocity": 114,
      "chip": "ym2612"
    },
    {
      "channel": 1,
      "note": 76,
      "start": 18.2901,
      "duration": 0.0158,
      "velocity": 114,
      "chip": "ym2612"
    },
    {
      "channel": 1,
      "note": 76,
      "start": 18.3059,
      "duration": 0.0207,
      "velocity": 114,
      "chip": "ym2612"
    },
    {
      "channel": 1,
      "note": 75,
      "start": 18.3266,
      "duration": 0.0194,
      "velocity": 114,
      "chip": "ym2612"
    },
    {
      "channel": 1,
      "note": 74,
      "start": 18.3459,
      "duration": 0.0208,
      "velocity": 114,
      "chip": "ym2612"
    },
    {
      "channel": 0,
      "note": 77,
      "start": 18.3664,
      "duration": 0.0799,
      "velocity": 116,
      "chip": "ym2612"
    },
    {
      "channel": 1,
      "note": 77,
      "start": 18.367,
      "duration": 0.0807,
      "velocity": 114,
      "chip": "ym2612"
    },
    {
      "channel": 2,
      "note": 78,
      "start": 18.3677,
      "duration": 0.0182,
      "velocity": 114,
      "chip": "ym2612"
    },
    {
      "channel": 2,
      "note": 78,
      "start": 18.3859,
      "duration": 0.0207,
      "velocity": 114,
      "chip": "ym2612"
    },
    {
      "channel": 2,
      "note": 77,
      "start": 18.4066,
      "duration": 0.0193,
      "velocity": 114,
      "chip": "ym2612"
    },
    {
      "channel": 2,
      "note": 76,
      "start": 18.4259,
      "duration": 0.021,
      "velocity": 114,
      "chip": "ym2612"
    },
    {
      "channel": 0,
      "note": 76,
      "start": 18.4464,
      "duration": 0.0798,
      "velocity": 116,
      "chip": "ym2612"
    },
    {
      "channel": 2,
      "note": 76,
      "start": 18.4471,
      "duration": 0.0805,
      "velocity": 114,
      "chip": "ym2612"
    },
    {
      "channel": 1,
      "note": 76,
      "start": 18.4477,
      "duration": 0.0183,
      "velocity": 114,
      "chip": "ym2612"
    },
    {
      "channel": 1,
      "note": 76,
      "start": 18.4659,
      "duration": 0.0206,
      "velocity": 114,
      "chip": "ym2612"
    },
    {
      "channel": 1,
      "note": 75,
      "start": 18.4866,
      "duration": 0.0194,
      "velocity": 114,
      "chip": "ym2612"
    },
    {
      "channel": 1,
      "note": 74,
      "start": 18.5059,
      "duration": 0.0208,
      "velocity": 114,
      "chip": "ym2612"
    },
    {
      "channel": 0,
      "note": 72,
      "start": 18.5264,
      "duration": 0.0799,
      "velocity": 116,
      "chip": "ym2612"
    },
    {
      "channel": 1,
      "note": 72,
      "start": 18.527,
      "duration": 0.0807,
      "velocity": 114,
      "chip": "ym2612"
    },
    {
      "channel": 2,
      "note": 75,
      "start": 18.5277,
      "duration": 0.0183,
      "velocity": 114,
      "chip": "ym2612"
    },
    {
      "channel": 2,
      "note": 75,
      "start": 18.5459,
      "duration": 0.0206,
      "velocity": 114,
      "chip": "ym2612"
    },
    {
      "channel": 2,
      "note": 74,
      "start": 18.5666,
      "duration": 0.0194,
      "velocity": 114,
      "chip": "ym2612"
    },
    {
      "channel": 2,
      "note": 73,
      "start": 18.5859,
      "duration": 0.021,
      "velocity": 114,
      "chip": "ym2612"
    },
    {
      "channel": 0,
      "note": 74,
      "start": 18.6064,
      "duration": 0.0798,
      "velocity": 116,
      "chip": "ym2612"
    },
    {
      "channel": 2,
      "note": 74,
      "start": 18.6071,
      "duration": 0.0806,
      "velocity": 114,
      "chip": "ym2612"
    },
    {
      "channel": 1,
      "note": 71,
      "start": 18.6077,
      "duration": 0.0183,
      "velocity": 114,
      "chip": "ym2612"
    },
    {
      "channel": 1,
      "note": 70,
      "start": 18.6259,
      "duration": 0.0206,
      "velocity": 114,
      "chip": "ym2612"
    },
    {
      "channel": 1,
      "note": 69,
      "start": 18.6466,
      "duration": 0.0193,
      "velocity": 114,
      "chip": "ym2612"
    },
    {
      "channel": 1,
      "note": 68,
      "start": 18.6659,
      "duration": 0.0209,
      "velocity": 114,
      "chip": "ym2612"
    },
    {
      "channel": 0,
      "note": 75,
      "start": 18.6864,
      "duration": 0.0799,
      "velocity": 116,
      "chip": "ym2612"
    },
    {
      "channel": 1,
      "note": 75,
      "start": 18.687,
      "duration": 0.0807,
      "velocity": 114,
      "chip": "ym2612"
    },
    {
      "channel": 2,
      "note": 73,
      "start": 18.6877,
      "duration": 0.0182,
      "velocity": 114,
      "chip": "ym2612"
    },
    {
      "channel": 2,
      "note": 72,
      "start": 18.7059,
      "duration": 0.0206,
      "velocity": 114,
      "chip": "ym2612"
    },
    {
      "channel": 2,
      "note": 71,
      "start": 18.7266,
      "duration": 0.0194,
      "velocity": 114,
      "chip": "ym2612"
    },
    {
      "channel": 2,
      "note": 70,
      "start": 18.7459,
      "duration": 0.021,
      "velocity": 114,
      "chip": "ym2612"
    },
    {
      "channel": 0,
      "note": 77,
      "start": 18.7664,
      "duration": 0.0798,
      "velocity": 116,
      "chip": "ym2612"
    },
    {
      "channel": 2,
      "note": 77,
      "start": 18.7671,
      "duration": 0.0805,
      "velocity": 114,
      "chip": "ym2612"
    },
    {
      "channel": 1,
      "note": 74,
      "start": 18.7677,
      "duration": 0.0183,
      "velocity": 114,
      "chip": "ym2612"
    },
    {
      "channel": 1,
      "note": 73,
      "start": 18.7859,
      "duration": 0.0206,
      "velocity": 114,
      "chip": "ym2612"
    },
    {
      "channel": 1,
      "note": 73,
      "start": 18.8066,
      "duration": 0.0194,
      "velocity": 114,
      "chip": "ym2612"
    },
    {
      "channel": 1,
      "note": 72,
      "start": 18.8259,
      "duration": 0.0208,
      "velocity": 114,
      "chip": "ym2612"
    },
    {
      "channel": 0,
      "note": 75,
      "start": 18.8464,
      "duration": 0.0799,
      "velocity": 116,
      "chip": "ym2612"
    },
    {
      "channel": 1,
      "note": 75,
      "start": 18.847,
      "duration": 0.0807,
      "velocity": 114,
      "chip": "ym2612"
    },
    {
      "channel": 2,
      "note": 76,
      "start": 18.8477,
      "duration": 0.0183,
      "velocity": 114,
      "chip": "ym2612"
    },
    {
      "channel": 2,
      "note": 76,
      "start": 18.8659,
      "duration": 0.0207,
      "velocity": 114,
      "chip": "ym2612"
    },
    {
      "channel": 2,
      "note": 75,
      "start": 18.8866,
      "duration": 0.0193,
      "velocity": 114,
      "chip": "ym2612"
    },
    {
      "channel": 2,
      "note": 74,
      "start": 18.9059,
      "duration": 0.021,
      "velocity": 114,
      "chip": "ym2612"
    },
    {
      "channel": 0,
      "note": 74,
      "start": 18.9264,
      "duration": 0.0798,
      "velocity": 116,
      "chip": "ym2612"
    },
    {
      "channel": 2,
      "note": 74,
      "start": 18.9271,
      "duration": 0.0805,
      "velocity": 114,
      "chip": "ym2612"
    },
    {
      "channel": 1,
      "note": 74,
      "start": 18.9277,
      "duration": 0.0183,
      "velocity": 114,
      "chip": "ym2612"
    },
    {
      "channel": 1,
      "note": 73,
      "start": 18.9459,
      "duration": 0.0206,
      "velocity": 114,
      "chip": "ym2612"
    },
    {
      "channel": 1,
      "note": 73,
      "start": 18.9666,
      "duration": 0.0194,
      "velocity": 114,
      "chip": "ym2612"
    },
    {
      "channel": 1,
      "note": 72,
      "start": 18.9859,
      "duration": 0.0208,
      "velocity": 114,
      "chip": "ym2612"
    },
    {
      "channel": 0,
      "note": 72,
      "start": 19.0064,
      "duration": 0.0799,
      "velocity": 116,
      "chip": "ym2612"
    },
    {
      "channel": 1,
      "note": 72,
      "start": 19.007,
      "duration": 0.0807,
      "velocity": 114,
      "chip": "ym2612"
    },
    {
      "channel": 2,
      "note": 73,
      "start": 19.0077,
      "duration": 0.0183,
      "velocity": 114,
      "chip": "ym2612"
    },
    {
      "channel": 2,
      "note": 72,
      "start": 19.0259,
      "duration": 0.0207,
      "velocity": 114,
      "chip": "ym2612"
    },
    {
      "channel": 2,
      "note": 71,
      "start": 19.0466,
      "duration": 0.0193,
      "velocity": 114,
      "chip": "ym2612"
    },
    {
      "channel": 2,
      "note": 70,
      "start": 19.0659,
      "duration": 0.021,
      "velocity": 114,
      "chip": "ym2612"
    },
    {
      "channel": 0,
      "note": 70,
      "start": 19.0864,
      "duration": 0.0798,
      "velocity": 116,
      "chip": "ym2612"
    },
    {
      "channel": 2,
      "note": 70,
      "start": 19.0871,
      "duration": 0.4003,
      "velocity": 114,
      "chip": "ym2612"
    },
    {
      "channel": 1,
      "note": 71,
      "start": 19.0877,
      "duration": 0.0183,
      "velocity": 114,
      "chip": "ym2612"
    },
    {
      "channel": 1,
      "note": 70,
      "start": 19.1059,
      "duration": 0.0206,
      "velocity": 114,
      "chip": "ym2612"
    },
    {
      "channel": 1,
      "note": 69,
      "start": 19.1266,
      "duration": 0.0194,
      "velocity": 114,
      "chip": "ym2612"
    },
    {
      "channel": 1,
      "note": 68,
      "start": 19.1459,
      "duration": 0.0208,
      "velocity": 114,
      "chip": "ym2612"
    },
    {
      "channel": 0,
      "note": 72,
      "start": 19.1664,
      "duration": 0.32,
      "velocity": 116,
      "chip": "ym2612"
    },
    {
      "channel": 1,
      "note": 72,
      "start": 19.167,
      "duration": 0.1196,
      "velocity": 114,
      "chip": "ym2612"
    },
    {
      "channel": 1,
      "note": 72,
      "start": 19.2866,
      "duration": 0.0194,
      "velocity": 114,
      "chip": "ym2612"
    },
    {
      "channel": 1,
      "note": 72,
      "start": 19.3059,
      "duration": 0.0206,
      "velocity": 114,
      "chip": "ym2612"
    },
    {
      "channel": 1,
      "note": 71,
      "start": 19.3265,
      "duration": 0.0194,
      "velocity": 114,
      "chip": "ym2612"
    },
    {
      "channel": 1,
      "note": 71,
      "start": 19.3459,
      "duration": 0.0205,
      "velocity": 114,
      "chip": "ym2612"
    },
    {
      "channel": 1,
      "note": 71,
      "start": 19.3664,
      "duration": 0.0195,
      "velocity": 114,
      "chip": "ym2612"
    },
    {
      "channel": 1,
      "note": 71,
      "start": 19.3859,
      "duration": 0.0206,
      "velocity": 114,
      "chip": "ym2612"
    },
    {
      "channel": 1,
      "note": 71,
      "start": 19.4065,
      "duration": 0.0194,
      "velocity": 114,
      "chip": "ym2612"
    },
    {
      "channel": 1,
      "note": 71,
      "start": 19.4259,
      "duration": 0.0206,
      "velocity": 114,
      "chip": "ym2612"
    },
    {
      "channel": 1,
      "note": 70,
      "start": 19.4465,
      "duration": 0.0194,
      "velocity": 114,
      "chip": "ym2612"
    },
    {
      "channel": 1,
      "note": 70,
      "start": 19.4659,
      "duration": 0.021,
      "velocity": 114,
      "chip": "ym2612"
    },
    {
      "channel": 0,
      "note": 53,
      "start": 19.4865,
      "duration": 1.4013,
      "velocity": 97,
      "chip": "ym2612"
    },
    {
      "channel": 1,
      "note": 29,
      "start": 19.487,
      "duration": 0.4408,
      "velocity": 127,
      "chip": "ym2612"
    },
    {
      "channel": 2,
      "note": 41,
      "start": 19.4876,
      "duration": 2.1688,
      "velocity": 97,
      "chip": "ym2612"
    },
    {
      "channel": 1,
      "note": 65,
      "start": 19.928,
      "duration": 0.1182,
      "velocity": 127,
      "chip": "ym2612"
    },
    {
      "channel": 1,
      "note": 77,
      "start": 20.0464,
      "duration": 0.1199,
      "velocity": 127,
      "chip": "ym2612"
    },
    {
      "channel": 1,
      "note": 65,
      "start": 20.1664,
      "duration": 0.2399,
      "velocity": 127,
      "chip": "ym2612"
    },
    {
      "channel": 1,
      "note": 65,
      "start": 20.4064,
      "duration": 0.1199,
      "velocity": 127,
      "chip": "ym2612"
    },
    {
      "channel": 1,
      "note": 77,
      "start": 20.5264,
      "duration": 0.1198,
      "velocity": 127,
      "chip": "ym2612"
    },
    {
      "channel": 1,
      "note": 65,
      "start": 20.6464,
      "duration": 0.2419,
      "velocity": 127,
      "chip": "ym2612"
    },
    {
      "channel": 0,
      "note": 41,
      "start": 20.888,
      "duration": 0.1182,
      "velocity": 97,
      "chip": "ym2612"
    },
    {
      "channel": 1,
      "note": 65,
      "start": 20.8885,
      "duration": 0.1182,
      "velocity": 127,
      "chip": "ym2612"
    },
    {
      "channel": 0,
      "note": 41,
      "start": 21.0064,
      "duration": 0.1198,
      "velocity": 97,
      "chip": "ym2612"
    },
    {
      "channel": 1,
      "note": 77,
      "start": 21.007,
      "duration": 0.1198,
      "velocity": 127,
      "chip": "ym2612"
    },
    {
      "channel": 0,
      "note": 41,
      "start": 21.1264,
      "duration": 0.1199,
      "velocity": 97,
      "chip": "ym2612"
    },
    {
      "channel": 1,
      "note": 65,
      "start": 21.127,
      "duration": 0.2209,
      "velocity": 127,
      "chip": "ym2612"
    },
    {
      "channel": 0,
      "note": 41,
      "start": 21.2464,
      "duration": 0.1009,
      "velocity": 97,
      "chip": "ym2612"
    },
    {
      "channel": 3,
      "note": 66,
      "start": 21.2487,
      "duration": 0.0998,
      "velocity": 114,
      "chip": "ym2612"
    },
    {
      "channel": 0,
      "note": 41,
      "start": 21.3475,
      "duration": 0.1008,
      "velocity": 97,
      "chip": "ym2612"
    },
    {
      "channel": 1,
      "note": 65,
      "start": 21.348,
      "duration": 0.1008,
      "velocity": 127,
      "chip": "ym2612"
    },
    {
      "channel": 3,
      "note": 78,
      "start": 21.3487,
      "duration": 0.1008,
      "velocity": 114,
      "chip": "ym2612"
    },
    {
      "channel": 0,
      "note": 41,
      "start": 21.4485,
      "duration": 0.1006,
      "velocity": 97,
      "chip": "ym2612"
    },
    {
      "channel": 1,
      "note": 77,
      "start": 21.449,
      "duration": 0.1006,
      "velocity": 127,
      "chip": "ym2612"
    },
    {
      "channel": 3,
      "note": 73,
      "start": 21.4496,
      "duration": 0.1006,
      "velocity": 114,
      "chip": "ym2612"
    },
    {
      "channel": 0,
      "note": 41,
      "start": 21.5492,
      "duration": 0.1029,
      "velocity": 97,
      "chip": "ym2612"
    },
    {
      "channel": 1,
      "note": 65,
      "start": 21.5498,
      "duration": 0.1044,
      "velocity": 114,
      "chip": "ym2612"
    },
    {
      "channel": 3,
      "note": 66,
      "start": 21.5505,
      "duration": 0.108,
      "velocity": 97,
      "chip": "ym2612"
    },
    {
      "channel": 0,
      "note": 41,
      "start": 21.6522,
      "duration": 0.1074,
      "velocity": 97,
      "chip": "ym2612"
    },
    {
      "channel": 1,
      "note": 65,
      "start": 21.6544,
      "duration": 0.2274,
      "velocity": 110,
      "chip": "ym2612"
    },
    {
      "channel": 2,
      "note": 60,
      "start": 21.6565,
      "duration": 6.4418,
      "velocity": 104,
      "chip": "ym2612"
    },
    {
      "channel": 3,
      "note": 65,
      "start": 21.6587,
      "duration": 6.4419,
      "velocity": 104,
      "chip": "ym2612"
    },
    {
      "channel": 0,
      "note": 41,
      "start": 21.7598,
      "duration": 0.1198,
      "velocity": 97,
      "chip": "ym2612"
    },
    {
      "channel": 4,
      "note": 65,
      "start": 21.7622,
      "duration": 0.1202,
      "velocity": 127,
      "chip": "ym2612"
    },
    {
      "channel": 0,
      "note": 41,
      "start": 21.8798,
      "duration": 0.1198,
      "velocity": 97,
      "chip": "ym2612"
    },
    {
      "channel": 1,
      "note": 65,
      "start": 21.8819,
      "duration": 0.2383,
      "velocity": 110,
      "chip": "ym2612"
    },
    {
      "channel": 4,
      "note": 77,
      "start": 21.8826,
      "duration": 0.1178,
      "velocity": 127,
      "chip": "ym2612"
    },
    {
      "channel": 5,
      "note": 21,
      "start": 21.8832,
      "duration": 0.1177,
      "velocity": 84,
      "chip": "ym2612"
    },
    {
      "channel": 0,
      "note": 41,
      "start": 21.9998,
      "duration": 0.1198,
      "velocity": 97,
      "chip": "ym2612"
    },
    {
      "channel": 4,
      "note": 65,
      "start": 22.0005,
      "duration": 0.2205,
      "velocity": 127,
      "chip": "ym2612"
    },
    {
      "channel": 5,
      "note": 21,
      "start": 22.0011,
      "duration": 0.3415,
      "velocity": 84,
      "chip": "ym2612"
    },
    {
      "channel": 0,
      "note": 41,
      "start": 22.1198,
      "duration": 0.1006,
      "velocity": 97,
      "chip": "ym2612"
    },
    {
      "channel": 1,
      "note": 58,
      "start": 22.1204,
      "duration": 0.2194,
      "velocity": 110,
      "chip": "ym2612"
    },
    {
      "channel": 0,
      "note": 41,
      "start": 22.2205,
      "duration": 0.1187,
      "velocity": 97,
      "chip": "ym2612"
    },
    {
      "channel": 4,
      "note": 65,
      "start": 22.2212,
      "duration": 0.1192,
      "velocity": 127,
      "chip": "ym2612"
    },
    {
      "channel": 0,
      "note": 41,
      "start": 22.3394,
      "duration": 0.1198,
      "velocity": 97,
      "chip": "ym2612"
    },
    {
      "channel": 1,
      "note": 60,
      "start": 22.34,
      "duration": 0.2398,
      "velocity": 110,
      "chip": "ym2612"
    },
    {
      "channel": 4,
      "note": 77,
      "start": 22.3406,
      "duration": 0.1194,
      "velocity": 127,
      "chip": "ym2612"
    },
    {
      "channel": 5,
      "note": 21,
      "start": 22.3428,
      "duration": 0.1178,
      "velocity": 84,
      "chip": "ym2612"
    },
    {
      "channel": 0,
      "note": 41,
      "start": 22.4594,
      "duration": 0.1198,
      "velocity": 97,
      "chip": "ym2612"
    },
    {
      "channel": 4,
      "note": 65,
      "start": 22.4602,
      "duration": 0.2326,
      "velocity": 127,
      "chip": "ym2612"
    },
    {
      "channel": 5,
      "note": 21,
      "start": 22.4607,
      "duration": 0.3546,
      "velocity": 84,
      "chip": "ym2612"
    },
    {
      "channel": 0,
      "note": 41,
      "start": 22.5794,
      "duration": 0.1126,
      "velocity": 97,
      "chip": "ym2612"
    },
    {
      "channel": 1,
      "note": 65,
      "start": 22.58,
      "duration": 0.2326,
      "velocity": 110,
      "chip": "ym2612"
    },
    {
      "channel": 0,
      "note": 41,
      "start": 22.6922,
      "duration": 0.1198,
      "velocity": 97,
      "chip": "ym2612"
    },
    {
      "channel": 4,
      "note": 65,
      "start": 22.6929,
      "duration": 0.1203,
      "velocity": 127,
      "chip": "ym2612"
    },
    {
      "channel": 0,
      "note": 41,
      "start": 22.8122,
      "duration": 0.1198,
      "velocity": 97,
      "chip": "ym2612"
    },
    {
      "channel": 1,
      "note": 58,
      "start": 22.8127,
      "duration": 0.2398,
      "velocity": 110,
      "chip": "ym2612"
    },
    {
      "channel": 4,
      "note": 77,
      "start": 22.8134,
      "duration": 0.1194,
      "velocity": 127,
      "chip": "ym2612"
    },
    {
      "channel": 5,
      "note": 21,
      "start": 22.8156,
      "duration": 0.1178,
      "velocity": 84,
      "chip": "ym2612"
    },
    {
      "channel": 0,
      "note": 41,
      "start": 22.9322,
      "duration": 0.1198,
      "velocity": 97,
      "chip": "ym2612"
    },
    {
      "channel": 4,
      "note": 65,
      "start": 22.9329,
      "duration": 0.2256,
      "velocity": 127,
      "chip": "ym2612"
    },
    {
      "channel": 5,
      "note": 21,
      "start": 22.9335,
      "duration": 0.3441,
      "velocity": 84,
      "chip": "ym2612"
    },
    {
      "channel": 0,
      "note": 41,
      "start": 23.0522,
      "duration": 0.1056,
      "velocity": 97,
      "chip": "ym2612"
    },
    {
      "channel": 1,
      "note": 60,
      "start": 23.0527,
      "duration": 0.222,
      "velocity": 110,
      "chip": "ym2612"
    },
    {
      "channel": 0,
      "note": 41,
      "start": 23.1579,
      "duration": 0.1163,
      "velocity": 97,
      "chip": "ym2612"
    },
    {
      "channel": 4,
      "note": 65,
      "start": 23.1587,
      "duration": 0.1168,
      "velocity": 127,
      "chip": "ym2612"
    },
    {
      "channel": 0,
      "note": 41,
      "start": 23.2744,
      "duration": 0.1198,
      "velocity": 97,
      "chip": "ym2612"
    },
    {
      "channel": 1,
      "note": 63,
      "start": 23.275,
      "duration": 0.2231,
      "velocity": 110,
      "chip": "ym2612"
    },
    {
      "channel": 4,
      "note": 77,
      "start": 23.2756,
      "duration": 0.1194,
      "velocity": 127,
      "chip": "ym2612"
    },
    {
      "channel": 5,
      "note": 21,
      "start": 23.2778,
      "duration": 0.4551,
      "velocity": 84,
      "chip": "ym2612"
    },
    {
      "channel": 0,
      "note": 41,
      "start": 23.3944,
      "duration": 0.1032,
      "velocity": 97,
      "chip": "ym2612"
    },
    {
      "channel": 4,
      "note": 65,
      "start": 23.3952,
      "duration": 0.2151,
      "velocity": 127,
      "chip": "ym2612"
    },
    {
      "channel": 0,
      "note": 41,
      "start": 23.4977,
      "duration": 0.1117,
      "velocity": 97,
      "chip": "ym2612"
    },
    {
      "channel": 1,
      "note": 65,
      "start": 23.4983,
      "duration": 0.2317,
      "velocity": 110,
      "chip": "ym2612"
    },
    {
      "channel": 0,
      "note": 41,
      "start": 23.6097,
      "duration": 0.1198,
      "velocity": 97,
      "chip": "ym2612"
    },
    {
      "channel": 4,
      "note": 65,
      "start": 23.6104,
      "duration": 0.1203,
      "velocity": 127,
      "chip": "ym2612"
    },
    {
      "channel": 0,
      "note": 41,
      "start": 23.7297,
      "duration": 0.1198,
      "velocity": 97,
      "chip": "ym2612"
    },
    {
      "channel": 1,
      "note": 66,
      "start": 23.7302,
      "duration": 0.2398,
      "velocity": 110,
      "chip": "ym2612"
    },
    {
      "channel": 4,
      "note": 77,
      "start": 23.7309,
      "duration": 0.1194,
      "velocity": 127,
      "chip": "ym2612"
    },
    {
      "channel": 5,
      "note": 21,
      "start": 23.7331,
      "duration": 0.1178,
      "velocity": 84,
      "chip": "ym2612"
    },
    {
      "channel": 0,
      "note": 41,
      "start": 23.8497,
      "duration": 0.1198,
      "velocity": 97,
      "chip": "ym2612"
    },
    {
      "channel": 4,
      "note": 65,
      "start": 23.8504,
      "duration": 0.2205,
      "velocity": 127,
      "chip": "ym2612"
    },
    {
      "channel": 5,
      "note": 21,
      "start": 23.851,
      "duration": 0.3415,
      "velocity": 84,
      "chip": "ym2612"
    },
    {
      "channel": 0,
      "note": 41,
      "start": 23.9697,
      "duration": 0.1006,
      "velocity": 97,
      "chip": "ym2612"
    },
    {
      "channel": 1,
      "note": 68,
      "start": 23.9702,
      "duration": 0.2194,
      "velocity": 110,
      "chip": "ym2612"
    },
    {
      "channel": 0,
      "note": 41,
      "start": 24.0704,
      "duration": 0.1187,
      "velocity": 97,
      "chip": "ym2612"
    },
    {
      "channel": 4,
      "note": 65,
      "start": 24.0711,
      "duration": 0.1192,
      "velocity": 127,
      "chip": "ym2612"
    },
    {
      "channel": 0,
      "note": 41,
      "start": 24.1893,
      "duration": 0.1198,
      "velocity": 97,
      "chip": "ym2612"
    },
    {
      "channel": 1,
      "note": 63,
      "start": 24.1899,
      "duration": 0.5774,
      "velocity": 114,
      "chip": "ym2612"
    },
    {
      "channel": 4,
      "note": 77,
      "start": 24.1905,
      "duration": 0.1194,
      "velocity": 127,
      "chip": "ym2612"
    },
    {
      "channel": 5,
      "note": 21,
      "start": 24.1927,
      "duration": 0.1178,
      "velocity": 84,
      "chip": "ym2612"
    },
    {
      "channel": 0,
      "note": 41,
      "start": 24.3093,
      "duration": 0.1198,
      "velocity": 97,
      "chip": "ym2612"
    },
    {
      "channel": 4,
      "note": 65,
      "start": 24.31,
      "duration": 0.23,
      "velocity": 127,
      "chip": "ym2612"
    },
    {
      "channel": 5,
      "note": 21,
      "start": 24.3106,
      "duration": 0.3374,
      "velocity": 84,
      "chip": "ym2612"
    },
    {
      "channel": 0,
      "note": 41,
      "start": 24.4293,
      "duration": 0.11,
      "velocity": 97,
      "chip": "ym2612"
    },
    {
      "channel": 0,
      "note": 41,
      "start": 24.5395,
      "duration": 0.1056,
      "velocity": 97,
      "chip": "ym2612"
    },
    {
      "channel": 4,
      "note": 65,
      "start": 24.5402,
      "duration": 0.1057,
      "velocity": 127,
      "chip": "ym2612"
    },
    {
      "channel": 0,
      "note": 41,
      "start": 24.6453,
      "duration": 0.1198,
      "velocity": 97,
      "chip": "ym2612"
    },
    {
      "channel": 4,
      "note": 77,
      "start": 24.6461,
      "duration": 0.1219,
      "velocity": 127,
      "chip": "ym2612"
    },
    {
      "channel": 5,
      "note": 21,
      "start": 24.6482,
      "duration": 0.1203,
      "velocity": 84,
      "chip": "ym2612"
    },
    {
      "channel": 0,
      "note": 41,
      "start": 24.7653,
      "duration": 0.1198,
      "velocity": 97,
      "chip": "ym2612"
    },
    {
      "channel": 1,
      "note": 66,
      "start": 24.7674,
      "duration": 0.1183,
      "velocity": 114,
      "chip": "ym2612"
    },
    {
      "channel": 4,
      "note": 65,
      "start": 24.7681,
      "duration": 0.219,
      "velocity": 127,
      "chip": "ym2612"
    },
    {
      "channel": 5,
      "note": 21,
      "start": 24.7687,
      "duration": 0.337,
      "velocity": 84,
      "chip": "ym2612"
    },
    {
      "channel": 0,
      "note": 41,
      "start": 24.8853,
      "duration": 0.1006,
      "velocity": 97,
      "chip": "ym2612"
    },
    {
      "channel": 1,
      "note": 78,
      "start": 24.8859,
      "duration": 0.1005,
      "velocity": 114,
      "chip": "ym2612"
    },
    {
      "channel": 0,
      "note": 41,
      "start": 24.986,
      "duration": 0.1163,
      "velocity": 97,
      "chip": "ym2612"
    },
    {
      "channel": 1,
      "note": 73,
      "start": 24.9866,
      "duration": 0.1163,
      "velocity": 114,
      "chip": "ym2612"
    },
    {
      "channel": 4,
      "note": 65,
      "start": 24.9873,
      "duration": 0.1163,
      "velocity": 127,
      "chip": "ym2612"
    },
    {
      "channel": 0,
      "note": 41,
      "start": 25.1025,
      "duration": 0.1198,
      "velocity": 97,
      "chip": "ym2612"
    },
    {
      "channel": 1,
      "note": 66,
      "start": 25.1031,
      "duration": 0.1198,
      "velocity": 114,
      "chip": "ym2612"
    },
    {
      "channel": 4,
      "note": 77,
      "start": 25.1037,
      "duration": 0.1199,
      "velocity": 127,
      "chip": "ym2612"
    },
    {
      "channel": 5,
      "note": 21,
      "start": 25.1059,
      "duration": 0.4551,
      "velocity": 84,
      "chip": "ym2612"
    },
    {
      "channel": 0,
      "note": 41,
      "start": 25.2225,
      "duration": 0.1057,
      "velocity": 97,
      "chip": "ym2612"
    },
    {
      "channel": 1,
      "note": 65,
      "start": 25.2231,
      "duration": 0.3351,
      "velocity": 110,
      "chip": "ym2612"
    },
    {
      "channel": 4,
      "note": 65,
      "start": 25.2237,
      "duration": 0.213,
      "velocity": 127,
      "chip": "ym2612"
    },
    {
      "channel": 0,
      "note": 41,
      "start": 25.3284,
      "duration": 0.1076,
      "velocity": 97,
      "chip": "ym2612"
    },
    {
      "channel": 0,
      "note": 41,
      "start": 25.4362,
      "duration": 0.1198,
      "velocity": 97,
      "chip": "ym2612"
    },
    {
      "channel": 4,
      "note": 65,
      "start": 25.4369,
      "duration": 0.1219,
      "velocity": 127,
      "chip": "ym2612"
    },
    {
      "channel": 0,
      "note": 41,
      "start": 25.5562,
      "duration": 0.1198,
      "velocity": 97,
      "chip": "ym2612"
    },
    {
      "channel": 1,
      "note": 65,
      "start": 25.5583,
      "duration": 0.2383,
      "velocity": 110,
      "chip": "ym2612"
    },
    {
      "channel": 4,
      "note": 77,
      "start": 25.559,
      "duration": 0.1178,
      "velocity": 127,
      "chip": "ym2612"
    },
    {
      "channel": 5,
      "note": 21,
      "start": 25.5612,
      "duration": 0.1162,
      "velocity": 84,
      "chip": "ym2612"
    },
    {
      "channel": 0,
      "note": 41,
      "start": 25.6762,
      "duration": 0.1198,
      "velocity": 97,
      "chip": "ym2612"
    },
    {
      "channel": 4,
      "note": 65,
      "start": 25.677,
      "duration": 0.2255,
      "velocity": 127,
      "chip": "ym2612"
    },
    {
      "channel": 5,
      "note": 21,
      "start": 25.6775,
      "duration": 0.3464,
      "velocity": 84,
      "chip": "ym2612"
    },
    {
      "channel": 0,
      "note": 41,
      "start": 25.7962,
      "duration": 0.1056,
      "velocity": 97,
      "chip": "ym2612"
    },
    {
      "channel": 1,
      "note": 58,
      "start": 25.7968,
      "duration": 0.2244,
      "velocity": 110,
      "chip": "ym2612"
    },
    {
      "channel": 0,
      "note": 41,
      "start": 25.9019,
      "duration": 0.1187,
      "velocity": 97,
      "chip": "ym2612"
    },
    {
      "channel": 4,
      "note": 65,
      "start": 25.9027,
      "duration": 0.1192,
      "velocity": 127,
      "chip": "ym2612"
    },
    {
      "channel": 0,
      "note": 41,
      "start": 26.0207,
      "duration": 0.1198,
      "velocity": 97,
      "chip": "ym2612"
    },
    {
      "channel": 1,
      "note": 60,
      "start": 26.0213,
      "duration": 0.2398,
      "velocity": 110,
      "chip": "ym2612"
    },
    {
      "channel": 4,
      "note": 77,
      "start": 26.022,
      "duration": 0.1194,
      "velocity": 127,
      "chip": "ym2612"
    },
    {
      "channel": 5,
      "note": 21,
      "start": 26.0241,
      "duration": 0.1178,
      "velocity": 84,
      "chip": "ym2612"
    },
    {
      "channel": 0,
      "note": 41,
      "start": 26.1407,
      "duration": 0.1198,
      "velocity": 97,
      "chip": "ym2612"
    },
    {
      "channel": 4,
      "note": 65,
      "start": 26.1415,
      "duration": 0.2272,
      "velocity": 127,
      "chip": "ym2612"
    },
    {
      "channel": 5,
      "note": 21,
      "start": 26.1421,
      "duration": 0.3492,
      "velocity": 84,
      "chip": "ym2612"
    },
    {
      "channel": 0,
      "note": 41,
      "start": 26.2607,
      "duration": 0.1072,
      "velocity": 97,
      "chip": "ym2612"
    },
    {
      "channel": 1,
      "note": 65,
      "start": 26.2613,
      "duration": 0.2271,
      "velocity": 110,
      "chip": "ym2612"
    },
    {
      "channel": 0,
      "note": 41,
      "start": 26.3681,
      "duration": 0.1198,
      "velocity": 97,
      "chip": "ym2612"
    },
    {
      "channel": 4,
      "note": 65,
      "start": 26.3689,
      "duration": 0.1203,
      "velocity": 127,
      "chip": "ym2612"
    },
    {
      "channel": 0,
      "note": 41,
      "start": 26.4881,
      "duration": 0.1198,
      "velocity": 97,
      "chip": "ym2612"
    },
    {
      "channel": 1,
      "note": 58,
      "start": 26.4887,
      "duration": 0.2398,
      "velocity": 110,
      "chip": "ym2612"
    },
    {
      "channel": 4,
      "note": 77,
      "start": 26.4893,
      "duration": 0.1194,
      "velocity": 127,
      "chip": "ym2612"
    },
    {
      "channel": 5,
      "note": 21,
      "start": 26.4915,
      "duration": 0.1178,
      "velocity": 84,
      "chip": "ym2612"
    },
    {
      "channel": 0,
      "note": 41,
      "start": 26.6081,
      "duration": 0.1198,
      "velocity": 97,
      "chip": "ym2612"
    },
    {
      "channel": 4,
      "note": 65,
      "start": 26.6089,
      "duration": 0.2205,
      "velocity": 127,
      "chip": "ym2612"
    },
    {
      "channel": 5,
      "note": 21,
      "start": 26.6094,
      "duration": 0.3415,
      "velocity": 84,
      "chip": "ym2612"
    },
    {
      "channel": 0,
      "note": 41,
      "start": 26.7281,
      "duration": 0.1006,
      "velocity": 97,
      "chip": "ym2612"
    },
    {
      "channel": 1,
      "note": 60,
      "start": 26.7287,
      "duration": 0.2194,
      "velocity": 110,
      "chip": "ym2612"
    },
    {
      "channel": 0,
      "note": 41,
      "start": 26.8288,
      "duration": 0.1187,
      "velocity": 97,
      "chip": "ym2612"
    },
    {
      "channel": 4,
      "note": 65,
      "start": 26.8296,
      "duration": 0.1192,
      "velocity": 127,
      "chip": "ym2612"
    },
    {
      "channel": 0,
      "note": 41,
      "start": 26.9477,
      "duration": 0.1198,
      "velocity": 97,
      "chip": "ym2612"
    },
    {
      "channel": 1,
      "note": 63,
      "start": 26.9483,
      "duration": 0.326,
      "velocity": 110,
      "chip": "ym2612"
    },
    {
      "channel": 4,
      "note": 77,
      "start": 26.9489,
      "duration": 0.1194,
      "velocity": 127,
      "chip": "ym2612"
    },
    {
      "channel": 5,
      "note": 21,
      "start": 26.9511,
      "duration": 0.4456,
      "velocity": 84,
      "chip": "ym2612"
    },
    {
      "channel": 0,
      "note": 41,
      "start": 27.0677,
      "duration": 0.1007,
      "velocity": 97,
      "chip": "ym2612"
    },
    {
      "channel": 4,
      "note": 65,
      "start": 27.0685,
      "duration": 0.2065,
      "velocity": 127,
      "chip": "ym2612"
    },
    {
      "channel": 0,
      "note": 41,
      "start": 27.1685,
      "duration": 0.1052,
      "velocity": 97,
      "chip": "ym2612"
    },
    {
      "channel": 0,
      "note": 41,
      "start": 27.2739,
      "duration": 0.1198,
      "velocity": 97,
      "chip": "ym2612"
    },
    {
      "channel": 1,
      "note": 65,
      "start": 27.2745,
      "duration": 0.2398,
      "velocity": 110,
      "chip": "ym2612"
    },
    {
      "channel": 4,
      "note": 65,
      "start": 27.2751,
      "duration": 0.1194,
      "velocity": 127,
      "chip": "ym2612"
    },
    {
      "channel": 0,
      "note": 41,
      "start": 27.3939,
      "duration": 0.1198,
      "velocity": 97,
      "chip": "ym2612"
    },
    {
      "channel": 4,
      "note": 77,
      "start": 27.3947,
      "duration": 0.1203,
      "velocity": 127,
      "chip": "ym2612"
    },
    {
      "channel": 5,
      "note": 21,
      "start": 27.3968,
      "duration": 0.1188,
      "velocity": 84,
      "chip": "ym2612"
    },
    {
      "channel": 0,
      "note": 41,
      "start": 27.5139,
      "duration": 0.1198,
      "velocity": 97,
      "chip": "ym2612"
    },
    {
      "channel": 1,
      "note": 65,
      "start": 27.5145,
      "duration": 0.1198,
      "velocity": 110,
      "chip": "ym2612"
    },
    {
      "channel": 4,
      "note": 65,
      "start": 27.5151,
      "duration": 0.2252,
      "velocity": 127,
      "chip": "ym2612"
    },
    {
      "channel": 5,
      "note": 21,
      "start": 27.5157,
      "duration": 0.3432,
      "velocity": 84,
      "chip": "ym2612"
    },
    {
      "channel": 0,
      "note": 41,
      "start": 27.6339,
      "duration": 0.1057,
      "velocity": 97,
      "chip": "ym2612"
    },
    {
      "channel": 1,
      "note": 66,
      "start": 27.6345,
      "duration": 0.3421,
      "velocity": 110,
      "chip": "ym2612"
    },
    {
      "channel": 0,
      "note": 41,
      "start": 27.7398,
      "duration": 0.1163,
      "velocity": 97,
      "chip": "ym2612"
    },
    {
      "channel": 4,
      "note": 65,
      "start": 27.7405,
      "duration": 0.1162,
      "velocity": 127,
      "chip": "ym2612"
    },
    {
      "channel": 0,
      "note": 41,
      "start": 27.8562,
      "duration": 0.1198,
      "velocity": 97,
      "chip": "ym2612"
    },
    {
      "channel": 4,
      "note": 77,
      "start": 27.8569,
      "duration": 0.1204,
      "velocity": 127,
      "chip": "ym2612"
    },
    {
      "channel": 5,
      "note": 21,
      "start": 27.8591,
      "duration": 0.1188,
      "velocity": 84,
      "chip": "ym2612"
    },
    {
      "channel": 0,
      "note": 41,
      "start": 27.9762,
      "duration": 0.1199,
      "velocity": 97,
      "chip": "ym2612"
    },
    {
      "channel": 1,
      "note": 66,
      "start": 27.9768,
      "duration": 0.2271,
      "velocity": 110,
      "chip": "ym2612"
    },
    {
      "channel": 4,
      "note": 65,
      "start": 27.9775,
      "duration": 0.2272,
      "velocity": 127,
      "chip": "ym2612"
    },
    {
      "channel": 5,
      "note": 21,
      "start": 27.978,
      "duration": 0.3359,
      "velocity": 84,
      "chip": "ym2612"
    },
    {
      "channel": 0,
      "note": 41,
      "start": 28.0963,
      "duration": 0.1071,
      "velocity": 97,
      "chip": "ym2612"
    },
    {
      "channel": 2,
      "note": 75,
      "start": 28.0985,
      "duration": 0.003,
      "velocity": 104,
      "chip": "ym2612"
    },
    {
      "channel": 3,
      "note": 78,
      "start": 28.1007,
      "duration": 0.0011,
      "velocity": 104,
      "chip": "ym2612"
    },
    {
      "channel": 2,
      "note": 76,
      "start": 28.1015,
      "duration": 0.0116,
      "velocity": 104,
      "chip": "ym2612"
    },
    {
      "channel": 3,
      "note": 79,
      "start": 28.1018,
      "duration": 0.0117,
      "velocity": 104,
      "chip": "ym2612"
    },
    {
      "channel": 2,
      "note": 77,
      "start": 28.1132,
      "duration": 0.0164,
      "velocity": 104,
      "chip": "ym2612"
    },
    {
      "channel": 3,
      "note": 80,
      "start": 28.1135,
      "duration": 0.0164,
      "velocity": 104,
      "chip": "ym2612"
    },
    {
      "channel": 2,
      "note": 78,
      "start": 28.1296,
      "duration": 0.0187,
      "velocity": 104,
      "chip": "ym2612"
    },
    {
      "channel": 3,
      "note": 81,
      "start": 28.1299,
      "duration": 0.0186,
      "velocity": 104,
      "chip": "ym2612"
    },
    {
      "channel": 2,
      "note": 79,
      "start": 28.1483,
      "duration": 0.0163,
      "velocity": 104,
      "chip": "ym2612"
    },
    {
      "channel": 3,
      "note": 82,
      "start": 28.1485,
      "duration": 0.0163,
      "velocity": 104,
      "chip": "ym2612"
    },
    {
      "channel": 2,
      "note": 80,
      "start": 28.1645,
      "duration": 0.0185,
      "velocity": 104,
      "chip": "ym2612"
    },
    {
      "channel": 3,
      "note": 84,
      "start": 28.1648,
      "duration": 0.0185,
      "velocity": 104,
      "chip": "ym2612"
    },
    {
      "channel": 2,
      "note": 81,
      "start": 28.183,
      "duration": 0.0225,
      "velocity": 104,
      "chip": "ym2612"
    },
    {
      "channel": 3,
      "note": 85,
      "start": 28.1833,
      "duration": 0.0226,
      "velocity": 104,
      "chip": "ym2612"
    },
    {
      "channel": 0,
      "note": 41,
      "start": 28.2036,
      "duration": 0.1059,
      "velocity": 97,
      "chip": "ym2612"
    },
    {
      "channel": 1,
      "note": 66,
      "start": 28.2041,
      "duration": 0.1059,
      "velocity": 110,
      "chip": "ym2612"
    },
    {
      "channel": 4,
      "note": 65,
      "start": 28.2048,
      "duration": 0.1069,
      "velocity": 127,
      "chip": "ym2612"
    },
    {
      "channel": 2,
      "note": 82,
      "start": 28.2056,
      "duration": 0.0144,
      "velocity": 104,
      "chip": "ym2612"
    },
    {
      "channel": 3,
      "note": 86,
      "start": 28.2059,
      "duration": 0.0144,
      "velocity": 104,
      "chip": "ym2612"
    },
    {
      "channel": 2,
      "note": 84,
      "start": 28.22,
      "duration": 0.0188,
      "velocity": 104,
      "chip": "ym2612"
    },
    {
      "channel": 3,
      "note": 87,
      "start": 28.2203,
      "duration": 0.0188,
      "velocity": 104,
      "chip": "ym2612"
    },
    {
      "channel": 2,
      "note": 85,
      "start": 28.2388,
      "duration": 0.0163,
      "velocity": 104,
      "chip": "ym2612"
    },
    {
      "channel": 3,
      "note": 88,
      "start": 28.2391,
      "duration": 0.0163,
      "velocity": 104,
      "chip": "ym2612"
    },
    {
      "channel": 2,
      "note": 86,
      "start": 28.2551,
      "duration": 0.0165,
      "velocity": 104,
      "chip": "ym2612"
    },
    {
      "channel": 3,
      "note": 89,
      "start": 28.2554,
      "duration": 0.0165,
      "velocity": 104,
      "chip": "ym2612"
    },
    {
      "channel": 2,
      "note": 87,
      "start": 28.2716,
      "duration": 0.0188,
      "velocity": 104,
      "chip": "ym2612"
    },
    {
      "channel": 3,
      "note": 90,
      "start": 28.2719,
      "duration": 0.0188,
      "velocity": 104,
      "chip": "ym2612"
    },
    {
      "channel": 2,
      "note": 88,
      "start": 28.2904,
      "duration": 0.0202,
      "velocity": 104,
      "chip": "ym2612"
    },
    {
      "channel": 3,
      "note": 91,
      "start": 28.2907,
      "duration": 0.0206,
      "velocity": 104,
      "chip": "ym2612"
    },
    {
      "channel": 0,
      "note": 41,
      "start": 28.3097,
      "duration": 0.1198,
      "velocity": 97,
      "chip": "ym2612"
    },
    {
      "channel": 1,
      "note": 68,
      "start": 28.3103,
      "duration": 0.3436,
      "velocity": 110,
      "chip": "ym2612"
    },
    {
      "channel": 2,
      "note": 87,
      "start": 28.3108,
      "duration": 0.2394,
      "velocity": 104,
      "chip": "ym2612"
    },
    {
      "channel": 3,
      "note": 90,
      "start": 28.3114,
      "duration": 0.2395,
      "velocity": 104,
      "chip": "ym2612"
    },
    {
      "channel": 4,
      "note": 77,
      "start": 28.312,
      "duration": 0.1183,
      "velocity": 127,
      "chip": "ym2612"
    },
    {
      "channel": 5,
      "note": 21,
      "start": 28.3141,
      "duration": 0.1167,
      "velocity": 84,
      "chip": "ym2612"
    },
    {
      "channel": 0,
      "note": 41,
      "start": 28.4297,
      "duration": 0.1198,
      "velocity": 97,
      "chip": "ym2612"
    },
    {
      "channel": 4,
      "note": 65,
      "start": 28.4305,
      "duration": 0.224,
      "velocity": 127,
      "chip": "ym2612"
    },
    {
      "channel": 5,
      "note": 21,
      "start": 28.431,
      "duration": 0.7846,
      "velocity": 84,
      "chip": "ym2612"
    },
    {
      "channel": 0,
      "note": 41,
      "start": 28.5497,
      "duration": 0.1035,
      "velocity": 97,
      "chip": "ym2612"
    },
    {
      "channel": 2,
      "note": 78,
      "start": 28.5504,
      "duration": 0.0015,
      "velocity": 104,
      "chip": "ym2612"
    },
    {
      "channel": 3,
      "note": 80,
      "start": 28.551,
      "duration": 0.0011,
      "velocity": 104,
      "chip": "ym2612"
    },
    {
      "channel": 2,
      "note": 79,
      "start": 28.5519,
      "duration": 0.0143,
      "velocity": 104,
      "chip": "ym2612"
    },
    {
      "channel": 3,
      "note": 82,
      "start": 28.5521,
      "duration": 0.0143,
      "velocity": 104,
      "chip": "ym2612"
    },
    {
      "channel": 2,
      "note": 80,
      "start": 28.5661,
      "duration": 0.0188,
      "velocity": 104,
      "chip": "ym2612"
    },
    {
      "channel": 3,
      "note": 83,
      "start": 28.5665,
      "duration": 0.0188,
      "velocity": 104,
      "chip": "ym2612"
    },
    {
      "channel": 2,
      "note": 81,
      "start": 28.585,
      "duration": 0.0164,
      "velocity": 104,
      "chip": "ym2612"
    },
    {
      "channel": 3,
      "note": 84,
      "start": 28.5852,
      "duration": 0.0164,
      "velocity": 104,
      "chip": "ym2612"
    },
    {
      "channel": 2,
      "note": 82,
      "start": 28.6013,
      "duration": 0.0163,
      "velocity": 104,
      "chip": "ym2612"
    },
    {
      "channel": 3,
      "note": 85,
      "start": 28.6016,
      "duration": 0.0163,
      "velocity": 104,
      "chip": "ym2612"
    },
    {
      "channel": 2,
      "note": 84,
      "start": 28.6176,
      "duration": 0.0164,
      "velocity": 104,
      "chip": "ym2612"
    },
    {
      "channel": 3,
      "note": 86,
      "start": 28.6179,
      "duration": 0.0164,
      "velocity": 104,
      "chip": "ym2612"
    },
    {
      "channel": 2,
      "note": 85,
      "start": 28.634,
      "duration": 0.0211,
      "velocity": 104,
      "chip": "ym2612"
    },
    {
      "channel": 3,
      "note": 88,
      "start": 28.6343,
      "duration": 0.0211,
      "velocity": 104,
      "chip": "ym2612"
    },
    {
      "channel": 0,
      "note": 41,
      "start": 28.6534,
      "duration": 0.1176,
      "velocity": 97,
      "chip": "ym2612"
    },
    {
      "channel": 1,
      "note": 66,
      "start": 28.6539,
      "duration": 0.2232,
      "velocity": 110,
      "chip": "ym2612"
    },
    {
      "channel": 4,
      "note": 65,
      "start": 28.6546,
      "duration": 0.1181,
      "velocity": 127,
      "chip": "ym2612"
    },
    {
      "channel": 2,
      "note": 86,
      "start": 28.6551,
      "duration": 0.0166,
      "velocity": 104,
      "chip": "ym2612"
    },
    {
      "channel": 3,
      "note": 89,
      "start": 28.6554,
      "duration": 0.0167,
      "velocity": 104,
      "chip": "ym2612"
    },
    {
      "channel": 2,
      "note": 87,
      "start": 28.6717,
      "duration": 0.0189,
      "velocity": 104,
      "chip": "ym2612"
    },
    {
      "channel": 3,
      "note": 89,
      "start": 28.6721,
      "duration": 0.0189,
      "velocity": 104,
      "chip": "ym2612"
    },
    {
      "channel": 2,
      "note": 88,
      "start": 28.6907,
      "duration": 0.02,
      "velocity": 104,
      "chip": "ym2612"
    },
    {
      "channel": 3,
      "note": 90,
      "start": 28.691,
      "duration": 0.02,
      "velocity": 104,
      "chip": "ym2612"
    },
    {
      "channel": 2,
      "note": 89,
      "start": 28.7107,
      "duration": 0.02,
      "velocity": 104,
      "chip": "ym2612"
    },
    {
      "channel": 3,
      "note": 91,
      "start": 28.711,
      "duration": 0.02,
      "velocity": 104,
      "chip": "ym2612"
    },
    {
      "channel": 2,
      "note": 90,
      "start": 28.7307,
      "duration": 0.02,
      "velocity": 104,
      "chip": "ym2612"
    },
    {
      "channel": 3,
      "note": 92,
      "start": 28.731,
      "duration": 0.02,
      "velocity": 104,
      "chip": "ym2612"
    },
    {
      "channel": 2,
      "note": 91,
      "start": 28.7507,
      "duration": 0.021,
      "velocity": 104,
      "chip": "ym2612"
    },
    {
      "channel": 3,
      "note": 93,
      "start": 28.751,
      "duration": 0.0212,
      "velocity": 104,
      "chip": "ym2612"
    },
    {
      "channel": 0,
      "note": 41,
      "start": 28.7712,
      "duration": 0.1053,
      "velocity": 97,
      "chip": "ym2612"
    },
    {
      "channel": 2,
      "note": 90,
      "start": 28.7718,
      "duration": 0.2101,
      "velocity": 97,
      "chip": "ym2612"
    },
    {
      "channel": 3,
      "note": 92,
      "start": 28.7724,
      "duration": 0.2117,
      "velocity": 97,
      "chip": "ym2612"
    },
    {
      "channel": 4,
      "note": 77,
      "start": 28.773,
      "duration": 0.1048,
      "velocity": 127,
      "chip": "ym2612"
    },
    {
      "channel": 0,
      "note": 41,
      "start": 28.8768,
      "duration": 0.1029,
      "velocity": 97,
      "chip": "ym2612"
    },
    {
      "channel": 1,
      "note": 68,
      "start": 28.8773,
      "duration": 0.3371,
      "velocity": 110,
      "chip": "ym2612"
    },
    {
      "channel": 4,
      "note": 65,
      "start": 28.878,
      "duration": 0.2166,
      "velocity": 127,
      "chip": "ym2612"
    },
    {
      "channel": 0,
      "note": 41,
      "start": 28.9799,
      "duration": 0.1139,
      "velocity": 97,
      "chip": "ym2612"
    },
    {
      "channel": 2,
      "note": 60,
      "start": 28.9821,
      "duration": 6.4751,
      "velocity": 104,
      "chip": "ym2612"
    },
    {
      "channel": 3,
      "note": 65,
      "start": 28.9842,
      "duration": 6.4751,
      "velocity": 104,
      "chip": "ym2612"
    },
    {
      "channel": 0,
      "note": 41,
      "start": 29.0939,
      "duration": 0.1198,
      "velocity": 97,
      "chip": "ym2612"
    },
    {
      "channel": 4,
      "note": 65,
      "start": 29.0947,
      "duration": 0.1203,
      "velocity": 127,
      "chip": "ym2612"
    },
    {
      "channel": 0,
      "note": 41,
      "start": 29.2139,
      "duration": 0.1198,
      "velocity": 97,
      "chip": "ym2612"
    },
    {
      "channel": 1,
      "note": 65,
      "start": 29.2145,
      "duration": 0.2398,
      "velocity": 110,
      "chip": "ym2612"
    },
    {
      "channel": 4,
      "note": 77,
      "start": 29.2152,
      "duration": 0.1193,
      "velocity": 127,
      "chip": "ym2612"
    },
    {
      "channel": 5,
      "note": 21,
      "start": 29.2158,
      "duration": 0.1192,
      "velocity": 84,
      "chip": "ym2612"
    },
    {
      "channel": 0,
      "note": 41,
      "start": 29.3339,
      "duration": 0.1198,
      "velocity": 97,
      "chip": "ym2612"
    },
    {
      "channel": 4,
      "note": 65,
      "start": 29.3346,
      "duration": 0.2255,
      "velocity": 127,
      "chip": "ym2612"
    },
    {
      "channel": 5,
      "note": 21,
      "start": 29.3352,
      "duration": 0.3464,
      "velocity": 84,
      "chip": "ym2612"
    },
    {
      "channel": 0,
      "note": 41,
      "start": 29.4539,
      "duration": 0.1056,
      "velocity": 97,
      "chip": "ym2612"
    },
    {
      "channel": 1,
      "note": 58,
      "start": 29.4545,
      "duration": 0.2244,
      "velocity": 110,
      "chip": "ym2612"
    },
    {
      "channel": 0,
      "note": 41,
      "start": 29.5596,
      "duration": 0.1187,
      "velocity": 97,
      "chip": "ym2612"
    },
    {
      "channel": 4,
      "note": 65,
      "start": 29.5603,
      "duration": 0.1192,
      "velocity": 127,
      "chip": "ym2612"
    },
    {
      "channel": 0,
      "note": 41,
      "start": 29.6784,
      "duration": 0.1198,
      "velocity": 97,
      "chip": "ym2612"
    },
    {
      "channel": 1,
      "note": 60,
      "start": 29.679,
      "duration": 0.2398,
      "velocity": 110,
      "chip": "ym2612"
    },
    {
      "channel": 4,
      "note": 77,
      "start": 29.6797,
      "duration": 0.1194,
      "velocity": 127,
      "chip": "ym2612"
    },
    {
      "channel": 5,
      "note": 21,
      "start": 29.6818,
      "duration": 0.1178,
      "velocity": 84,
      "chip": "ym2612"
    },
    {
      "channel": 0,
      "note": 41,
      "start": 29.7984,
      "duration": 0.1198,
      "velocity": 97,
      "chip": "ym2612"
    },
    {
      "channel": 4,
      "note": 65,
      "start": 29.7992,
      "duration": 0.2272,
      "velocity": 127,
      "chip": "ym2612"
    },
    {
      "channel": 5,
      "note": 21,
      "start": 29.7998,
      "duration": 0.3492,
      "velocity": 84,
      "chip": "ym2612"
    },
    {
      "channel": 0,
      "note": 41,
      "start": 29.9184,
      "duration": 0.1072,
      "velocity": 97,
      "chip": "ym2612"
    },
    {
      "channel": 1,
      "note": 65,
      "start": 29.919,
      "duration": 0.2271,
      "velocity": 110,
      "chip": "ym2612"
    },
    {
      "channel": 0,
      "note": 41,
      "start": 30.0258,
      "duration": 0.1198,
      "velocity": 97,
      "chip": "ym2612"
    },
    {
      "channel": 4,
      "note": 65,
      "start": 30.0266,
      "duration": 0.1203,
      "velocity": 127,
      "chip": "ym2612"
    },
    {
      "channel": 0,
      "note": 41,
      "start": 30.1458,
      "duration": 0.1198,
      "velocity": 97,
      "chip": "ym2612"
    },
    {
      "channel": 1,
      "note": 58,
      "start": 30.1464,
      "duration": 0.2398,
      "velocity": 110,
      "chip": "ym2612"
    },
    {
      "channel": 4,
      "note": 77,
      "start": 30.147,
      "duration": 0.1194,
      "velocity": 127,
      "chip": "ym2612"
    },
    {
      "channel": 5,
      "note": 21,
      "start": 30.1492,
      "duration": 0.1178,
      "velocity": 84,
      "chip": "ym2612"
    },
    {
      "channel": 0,
      "note": 41,
      "start": 30.2658,
      "duration": 0.1198,
      "velocity": 97,
      "chip": "ym2612"
    },
    {
      "channel": 4,
      "note": 65,
      "start": 30.2666,
      "duration": 0.2205,
      "velocity": 127,
      "chip": "ym2612"
    },
    {
      "channel": 5,
      "note": 21,
      "start": 30.2671,
      "duration": 0.3415,
      "velocity": 84,
      "chip": "ym2612"
    },
    {
      "channel": 0,
      "note": 41,
      "start": 30.3858,
      "duration": 0.1006,
      "velocity": 97,
      "chip": "ym2612"
    },
    {
      "channel": 1,
      "note": 60,
      "start": 30.3864,
      "duration": 0.2194,
      "velocity": 110,
      "chip": "ym2612"
    },
    {
      "channel": 0,
      "note": 41,
      "start": 30.4865,
      "duration": 0.1187,
      "velocity": 97,
      "chip": "ym2612"
    },
    {
      "channel": 4,
      "note": 65,
      "start": 30.4873,
      "duration": 0.1192,
      "velocity": 127,
      "chip": "ym2612"
    },
    {
      "channel": 0,
      "note": 41,
      "start": 30.6054,
      "duration": 0.1198,
      "velocity": 97,
      "chip": "ym2612"
    },
    {
      "channel": 1,
      "note": 63,
      "start": 30.606,
      "duration": 0.2231,
      "velocity": 110,
      "chip": "ym2612"
    },
    {
      "channel": 4,
      "note": 77,
      "start": 30.6066,
      "duration": 0.1194,
      "velocity": 127,
      "chip": "ym2612"
    },
    {
      "channel": 5,
      "note": 21,
      "start": 30.6088,
      "duration": 0.4551,
      "velocity": 84,
      "chip": "ym2612"
    },
    {
      "channel": 0,
      "note": 41,
      "start": 30.7254,
      "duration": 0.1032,
      "velocity": 97,
      "chip": "ym2612"
    },
    {
      "channel": 4,
      "note": 65,
      "start": 30.7262,
      "duration": 0.2151,
      "velocity": 127,
      "chip": "ym2612"
    },
    {
      "channel": 0,
      "note": 41,
      "start": 30.8287,
      "duration": 0.1118,
      "velocity": 97,
      "chip": "ym2612"
    },
    {
      "channel": 1,
      "note": 65,
      "start": 30.8293,
      "duration": 0.2318,
      "velocity": 110,
      "chip": "ym2612"
    },
    {
      "channel": 0,
      "note": 41,
      "start": 30.9407,
      "duration": 0.1198,
      "velocity": 97,
      "chip": "ym2612"
    },
    {
      "channel": 4,
      "note": 65,
      "start": 30.9415,
      "duration": 0.1203,
      "velocity": 127,
      "chip": "ym2612"
    },
    {
      "channel": 0,
      "note": 41,
      "start": 31.0607,
      "duration": 0.1198,
      "velocity": 97,
      "chip": "ym2612"
    },
    {
      "channel": 1,
      "note": 66,
      "start": 31.0613,
      "duration": 0.2398,
      "velocity": 110,
      "chip": "ym2612"
    },
    {
      "channel": 4,
      "note": 77,
      "start": 31.0619,
      "duration": 0.1194,
      "velocity": 127,
      "chip": "ym2612"
    },
    {
      "channel": 5,
      "note": 21,
      "start": 31.0641,
      "duration": 0.1178,
      "velocity": 84,
      "chip": "ym2612"
    },
    {
      "channel": 0,
      "note": 41,
      "start": 31.1807,
      "duration": 0.1198,
      "velocity": 97,
      "chip": "ym2612"
    },
    {
      "channel": 4,
      "note": 65,
      "start": 31.1815,
      "duration": 0.2255,
      "velocity": 127,
      "chip": "ym2612"
    },
    {
      "channel": 5,
      "note": 21,
      "start": 31.182,
      "duration": 0.3464,
      "velocity": 84,
      "chip": "ym2612"
    },
    {
      "channel": 0,
      "note": 41,
      "start": 31.3007,
      "duration": 0.1056,
      "velocity": 97,
      "chip": "ym2612"
    },
    {
      "channel": 1,
      "note": 68,
      "start": 31.3013,
      "duration": 0.2244,
      "velocity": 110,
      "chip": "ym2612"
    },
    {
      "channel": 0,
      "note": 41,
      "start": 31.4064,
      "duration": 0.1187,
      "velocity": 97,
      "chip": "ym2612"
    },
    {
      "channel": 4,
      "note": 65,
      "start": 31.4072,
      "duration": 0.1192,
      "velocity": 127,
      "chip": "ym2612"
    },
    {
      "channel": 0,
      "note": 41,
      "start": 31.5253,
      "duration": 0.1198,
      "velocity": 97,
      "chip": "ym2612"
    },
    {
      "channel": 1,
      "note": 63,
      "start": 31.5259,
      "duration": 0.5797,
      "velocity": 114,
      "chip": "ym2612"
    },
    {
      "channel": 4,
      "note": 77,
      "start": 31.5265,
      "duration": 0.1194,
      "velocity": 127,
      "chip": "ym2612"
    },
    {
      "channel": 5,
      "note": 21,
      "start": 31.5287,
      "duration": 0.1178,
      "velocity": 84,
      "chip": "ym2612"
    },
    {
      "channel": 0,
      "note": 41,
      "start": 31.6453,
      "duration": 0.1198,
      "velocity": 97,
      "chip": "ym2612"
    },
    {
      "channel": 4,
      "note": 65,
      "start": 31.6461,
      "duration": 0.23,
      "velocity": 127,
      "chip": "ym2612"
    },
    {
      "channel": 5,
      "note": 21,
      "start": 31.6466,
      "duration": 0.3397,
      "velocity": 84,
      "chip": "ym2612"
    },
    {
      "channel": 0,
      "note": 41,
      "start": 31.7653,
      "duration": 0.11,
      "velocity": 97,
      "chip": "ym2612"
    },
    {
      "channel": 0,
      "note": 41,
      "start": 31.8754,
      "duration": 0.1079,
      "velocity": 97,
      "chip": "ym2612"
    },
    {
      "channel": 4,
      "note": 65,
      "start": 31.8762,
      "duration": 0.1079,
      "velocity": 127,
      "chip": "ym2612"
    },
    {
      "channel": 0,
      "note": 41,
      "start": 31.9836,
      "duration": 0.1198,
      "velocity": 97,
      "chip": "ym2612"
    },
    {
      "channel": 4,
      "note": 77,
      "start": 31.9843,
      "duration": 0.1219,
      "velocity": 127,
      "chip": "ym2612"
    },
    {
      "channel": 5,
      "note": 21,
      "start": 31.9864,
      "duration": 0.1203,
      "velocity": 84,
      "chip": "ym2612"
    },
    {
      "channel": 0,
      "note": 41,
      "start": 32.1036,
      "duration": 0.1198,
      "velocity": 97,
      "chip": "ym2612"
    },
    {
      "channel": 1,
      "note": 66,
      "start": 32.1057,
      "duration": 0.1183,
      "velocity": 114,
      "chip": "ym2612"
    },
    {
      "channel": 4,
      "note": 65,
      "start": 32.1064,
      "duration": 0.224,
      "velocity": 127,
      "chip": "ym2612"
    },
    {
      "channel": 5,
      "note": 21,
      "start": 32.107,
      "duration": 0.342,
      "velocity": 84,
      "chip": "ym2612"
    },
    {
      "channel": 0,
      "note": 41,
      "start": 32.2236,
      "duration": 0.1056,
      "velocity": 97,
      "chip": "ym2612"
    },
    {
      "channel": 1,
      "note": 78,
      "start": 32.2241,
      "duration": 0.1055,
      "velocity": 114,
      "chip": "ym2612"
    },
    {
      "channel": 0,
      "note": 41,
      "start": 32.3293,
      "duration": 0.1163,
      "velocity": 97,
      "chip": "ym2612"
    },
    {
      "channel": 1,
      "note": 73,
      "start": 32.3298,
      "duration": 0.1163,
      "velocity": 114,
      "chip": "ym2612"
    },
    {
      "channel": 4,
      "note": 65,
      "start": 32.3305,
      "duration": 0.1163,
      "velocity": 127,
      "chip": "ym2612"
    },
    {
      "channel": 0,
      "note": 41,
      "start": 32.4457,
      "duration": 0.1198,
      "velocity": 97,
      "chip": "ym2612"
    },
    {
      "channel": 1,
      "note": 66,
      "start": 32.4463,
      "duration": 0.1198,
      "velocity": 114,
      "chip": "ym2612"
    },
    {
      "channel": 4,
      "note": 77,
      "start": 32.4469,
      "duration": 0.1199,
      "velocity": 127,
      "chip": "ym2612"
    },
    {
      "channel": 5,
      "note": 21,
      "start": 32.4491,
      "duration": 0.4527,
      "velocity": 84,
      "chip": "ym2612"
    },
    {
      "channel": 0,
      "note": 41,
      "start": 32.5657,
      "duration": 0.1059,
      "velocity": 97,
      "chip": "ym2612"
    },
    {
      "channel": 1,
      "note": 65,
      "start": 32.5663,
      "duration": 0.3327,
      "velocity": 110,
      "chip": "ym2612"
    },
    {
      "channel": 4,
      "note": 65,
      "start": 32.5669,
      "duration": 0.2106,
      "velocity": 127,
      "chip": "ym2612"
    },
    {
      "channel": 0,
      "note": 41,
      "start": 32.6717,
      "duration": 0.1052,
      "velocity": 97,
      "chip": "ym2612"
    },
    {
      "channel": 0,
      "note": 41,
      "start": 32.7771,
      "duration": 0.1198,
      "velocity": 97,
      "chip": "ym2612"
    },
    {
      "channel": 4,
      "note": 65,
      "start": 32.7778,
      "duration": 0.122,
      "velocity": 127,
      "chip": "ym2612"
    },
    {
      "channel": 0,
      "note": 41,
      "start": 32.8971,
      "duration": 0.1198,
      "velocity": 97,
      "chip": "ym2612"
    },
    {
      "channel": 1,
      "note": 65,
      "start": 32.8992,
      "duration": 0.2382,
      "velocity": 110,
      "chip": "ym2612"
    },
    {
      "channel": 4,
      "note": 77,
      "start": 32.8999,
      "duration": 0.1178,
      "velocity": 127,
      "chip": "ym2612"
    },
    {
      "channel": 5,
      "note": 21,
      "start": 32.902,
      "duration": 0.1162,
      "velocity": 84,
      "chip": "ym2612"
    },
    {
      "channel": 0,
      "note": 41,
      "start": 33.0171,
      "duration": 0.1198,
      "velocity": 97,
      "chip": "ym2612"
    },
    {
      "channel": 4,
      "note": 65,
      "start": 33.0178,
      "duration": 0.2281,
      "velocity": 127,
      "chip": "ym2612"
    },
    {
      "channel": 5,
      "note": 21,
      "start": 33.0184,
      "duration": 0.3466,
      "velocity": 84,
      "chip": "ym2612"
    },
    {
      "channel": 0,
      "note": 41,
      "start": 33.1371,
      "duration": 0.1081,
      "velocity": 97,
      "chip": "ym2612"
    },
    {
      "channel": 1,
      "note": 58,
      "start": 33.1376,
      "duration": 0.2246,
      "velocity": 110,
      "chip": "ym2612"
    },
    {
      "channel": 0,
      "note": 41,
      "start": 33.2454,
      "duration": 0.1163,
      "velocity": 97,
      "chip": "ym2612"
    },
    {
      "channel": 4,
      "note": 65,
      "start": 33.2461,
      "duration": 0.1168,
      "velocity": 127,
      "chip": "ym2612"
    },
    {
      "channel": 0,
      "note": 41,
      "start": 33.3618,
      "duration": 0.1198,
      "velocity": 97,
      "chip": "ym2612"
    },
    {
      "channel": 1,
      "note": 60,
      "start": 33.3624,
      "duration": 0.2398,
      "velocity": 110,
      "chip": "ym2612"
    },
    {
      "channel": 4,
      "note": 77,
      "start": 33.3631,
      "duration": 0.1194,
      "velocity": 127,
      "chip": "ym2612"
    },
    {
      "channel": 5,
      "note": 21,
      "start": 33.3652,
      "duration": 0.1178,
      "velocity": 84,
      "chip": "ym2612"
    },
    {
      "channel": 0,
      "note": 41,
      "start": 33.4818,
      "duration": 0.1198,
      "velocity": 97,
      "chip": "ym2612"
    },
    {
      "channel": 4,
      "note": 65,
      "start": 33.4826,
      "duration": 0.2326,
      "velocity": 127,
      "chip": "ym2612"
    },
    {
      "channel": 5,
      "note": 21,
      "start": 33.4832,
      "duration": 0.3546,
      "velocity": 84,
      "chip": "ym2612"
    },
    {
      "channel": 0,
      "note": 41,
      "start": 33.6018,
      "duration": 0.1126,
      "velocity": 97,
      "chip": "ym2612"
    },
    {
      "channel": 1,
      "note": 65,
      "start": 33.6024,
      "duration": 0.2326,
      "velocity": 110,
      "chip": "ym2612"
    },
    {
      "channel": 0,
      "note": 41,
      "start": 33.7146,
      "duration": 0.1198,
      "velocity": 97,
      "chip": "ym2612"
    },
    {
      "channel": 4,
      "note": 65,
      "start": 33.7154,
      "duration": 0.1203,
      "velocity": 127,
      "chip": "ym2612"
    },
    {
      "channel": 0,
      "note": 41,
      "start": 33.8346,
      "duration": 0.1198,
      "velocity": 97,
      "chip": "ym2612"
    },
    {
      "channel": 1,
      "note": 58,
      "start": 33.8352,
      "duration": 0.2398,
      "velocity": 110,
      "chip": "ym2612"
    },
    {
      "channel": 4,
      "note": 77,
      "start": 33.8358,
      "duration": 0.1194,
      "velocity": 127,
      "chip": "ym2612"
    },
    {
      "channel": 5,
      "note": 21,
      "start": 33.838,
      "duration": 0.1178,
      "velocity": 84,
      "chip": "ym2612"
    },
    {
      "channel": 0,
      "note": 41,
      "start": 33.9546,
      "duration": 0.1198,
      "velocity": 97,
      "chip": "ym2612"
    },
    {
      "channel": 4,
      "note": 65,
      "start": 33.9554,
      "duration": 0.2255,
      "velocity": 127,
      "chip": "ym2612"
    },
    {
      "channel": 5,
      "note": 21,
      "start": 33.9559,
      "duration": 0.3464,
      "velocity": 84,
      "chip": "ym2612"
    },
    {
      "channel": 0,
      "note": 41,
      "start": 34.0746,
      "duration": 0.1056,
      "velocity": 97,
      "chip": "ym2612"
    },
    {
      "channel": 1,
      "note": 60,
      "start": 34.0752,
      "duration": 0.2244,
      "velocity": 110,
      "chip": "ym2612"
    },
    {
      "channel": 0,
      "note": 41,
      "start": 34.1803,
      "duration": 0.1187,
      "velocity": 97,
      "chip": "ym2612"
    },
    {
      "channel": 4,
      "note": 65,
      "start": 34.1811,
      "duration": 0.1192,
      "velocity": 127,
      "chip": "ym2612"
    },
    {
      "channel": 0,
      "note": 41,
      "start": 34.2992,
      "duration": 0.1198,
      "velocity": 97,
      "chip": "ym2612"
    },
    {
      "channel": 1,
      "note": 63,
      "start": 34.2998,
      "duration": 0.3311,
      "velocity": 110,
      "chip": "ym2612"
    },
    {
      "channel": 4,
      "note": 77,
      "start": 34.3004,
      "duration": 0.1194,
      "velocity": 127,
      "chip": "ym2612"
    },
    {
      "channel": 5,
      "note": 21,
      "start": 34.3026,
      "duration": 0.4506,
      "velocity": 84,
      "chip": "ym2612"
    },
    {
      "channel": 0,
      "note": 41,
      "start": 34.4192,
      "duration": 0.1032,
      "velocity": 97,
      "chip": "ym2612"
    },
    {
      "channel": 4,
      "note": 65,
      "start": 34.42,
      "duration": 0.2116,
      "velocity": 127,
      "chip": "ym2612"
    },
    {
      "channel": 0,
      "note": 41,
      "start": 34.5225,
      "duration": 0.1077,
      "velocity": 97,
      "chip": "ym2612"
    },
    {
      "channel": 0,
      "note": 41,
      "start": 34.6305,
      "duration": 0.1198,
      "velocity": 97,
      "chip": "ym2612"
    },
    {
      "channel": 1,
      "note": 65,
      "start": 34.631,
      "duration": 0.2398,
      "velocity": 110,
      "chip": "ym2612"
    },
    {
      "channel": 4,
      "note": 65,
      "start": 34.6317,
      "duration": 0.1194,
      "velocity": 127,
      "chip": "ym2612"
    },
    {
      "channel": 0,
      "note": 41,
      "start": 34.7505,
      "duration": 0.1198,
      "velocity": 97,
      "chip": "ym2612"
    },
    {
      "channel": 4,
      "note": 77,
      "start": 34.7512,
      "duration": 0.1203,
      "velocity": 127,
      "chip": "ym2612"
    },
    {
      "channel": 5,
      "note": 21,
      "start": 34.7533,
      "duration": 0.1188,
      "velocity": 84,
      "chip": "ym2612"
    },
    {
      "channel": 0,
      "note": 41,
      "start": 34.8705,
      "duration": 0.1198,
      "velocity": 97,
      "chip": "ym2612"
    },
    {
      "channel": 1,
      "note": 65,
      "start": 34.871,
      "duration": 0.1198,
      "velocity": 110,
      "chip": "ym2612"
    },
    {
      "channel": 4,
      "note": 65,
      "start": 34.8717,
      "duration": 0.2251,
      "velocity": 127,
      "chip": "ym2612"
    },
    {
      "channel": 5,
      "note": 21,
      "start": 34.8722,
      "duration": 0.3455,
      "velocity": 84,
      "chip": "ym2612"
    },
    {
      "channel": 0,
      "note": 41,
      "start": 34.9905,
      "duration": 0.1056,
      "velocity": 97,
      "chip": "ym2612"
    },
    {
      "channel": 1,
      "note": 66,
      "start": 34.991,
      "duration": 0.3444,
      "velocity": 110,
      "chip": "ym2612"
    },
    {
      "channel": 0,
      "note": 41,
      "start": 35.0961,
      "duration": 0.1187,
      "velocity": 97,
      "chip": "ym2612"
    },
    {
      "channel": 4,
      "note": 65,
      "start": 35.0969,
      "duration": 0.1186,
      "velocity": 127,
      "chip": "ym2612"
    },
    {
      "channel": 0,
      "note": 41,
      "start": 35.215,
      "duration": 0.1198,
      "velocity": 97,
      "chip": "ym2612"
    },
    {
      "channel": 4,
      "note": 77,
      "start": 35.2157,
      "duration": 0.1204,
      "velocity": 127,
      "chip": "ym2612"
    },
    {
      "channel": 5,
      "note": 21,
      "start": 35.2179,
      "duration": 0.1188,
      "velocity": 84,
      "chip": "ym2612"
    },
    {
      "channel": 0,
      "note": 41,
      "start": 35.335,
      "duration": 0.1199,
      "velocity": 97,
      "chip": "ym2612"
    },
    {
      "channel": 1,
      "note": 66,
      "start": 35.3356,
      "duration": 0.2286,
      "velocity": 110,
      "chip": "ym2612"
    },
    {
      "channel": 4,
      "note": 65,
      "start": 35.3362,
      "duration": 0.2287,
      "velocity": 127,
      "chip": "ym2612"
    },
    {
      "channel": 5,
      "note": 21,
      "start": 35.3368,
      "duration": 0.3375,
      "velocity": 84,
      "chip": "ym2612"
    },
    {
      "channel": 0,
      "note": 41,
      "start": 35.4551,
      "duration": 0.1086,
      "velocity": 97,
      "chip": "ym2612"
    },
    {
      "channel": 2,
      "note": 75,
      "start": 35.4573,
      "duration": 0.003,
      "velocity": 104,
      "chip": "ym2612"
    },
    {
      "channel": 3,
      "note": 78,
      "start": 35.4595,
      "duration": 0.0011,
      "velocity": 104,
      "chip": "ym2612"
    },
    {
      "channel": 2,
      "note": 76,
      "start": 35.4603,
      "duration": 0.0132,
      "velocity": 104,
      "chip": "ym2612"
    },
    {
      "channel": 3,
      "note": 79,
      "start": 35.4606,
      "duration": 0.0132,
      "velocity": 104,
      "chip": "ym2612"
    },
    {
      "channel": 2,
      "note": 77,
      "start": 35.4735,
      "duration": 0.0164,
      "velocity": 104,
      "chip": "ym2612"
    },
    {
      "channel": 3,
      "note": 80,
      "start": 35.4738,
      "duration": 0.0164,
      "velocity": 104,
      "chip": "ym2612"
    },
    {
      "channel": 2,
      "note": 78,
      "start": 35.4898,
      "duration": 0.0165,
      "velocity": 104,
      "chip": "ym2612"
    },
    {
      "channel": 3,
      "note": 81,
      "start": 35.4902,
      "duration": 0.0165,
      "velocity": 104,
      "chip": "ym2612"
    },
    {
      "channel": 2,
      "note": 79,
      "start": 35.5063,
      "duration": 0.0186,
      "velocity": 104,
      "chip": "ym2612"
    },
    {
      "channel": 3,
      "note": 82,
      "start": 35.5066,
      "duration": 0.0185,
      "velocity": 104,
      "chip": "ym2612"
    },
    {
      "channel": 2,
      "note": 80,
      "start": 35.5249,
      "duration": 0.0184,
      "velocity": 104,
      "chip": "ym2612"
    },
    {
      "channel": 3,
      "note": 84,
      "start": 35.5251,
      "duration": 0.0185,
      "velocity": 104,
      "chip": "ym2612"
    },
    {
      "channel": 2,
      "note": 81,
      "start": 35.5433,
      "duration": 0.0225,
      "velocity": 104,
      "chip": "ym2612"
    },
    {
      "channel": 3,
      "note": 85,
      "start": 35.5436,
      "duration": 0.0226,
      "velocity": 104,
      "chip": "ym2612"
    },
    {
      "channel": 0,
      "note": 41,
      "start": 35.5639,
      "duration": 0.106,
      "velocity": 97,
      "chip": "ym2612"
    },
    {
      "channel": 1,
      "note": 66,
      "start": 35.5644,
      "duration": 0.106,
      "velocity": 110,
      "chip": "ym2612"
    },
    {
      "channel": 4,
      "note": 65,
      "start": 35.5651,
      "duration": 0.107,
      "velocity": 127,
      "chip": "ym2612"
    },
    {
      "channel": 2,
      "note": 82,
      "start": 35.5658,
      "duration": 0.0144,
      "velocity": 104,
      "chip": "ym2612"
    },
    {
      "channel": 3,
      "note": 86,
      "start": 35.5662,
      "duration": 0.0144,
      "velocity": 104,
      "chip": "ym2612"
    },
    {
      "channel": 2,
      "note": 84,
      "start": 35.5803,
      "duration": 0.0188,
      "velocity": 104,
      "chip": "ym2612"
    },
    {
      "channel": 3,
      "note": 87,
      "start": 35.5806,
      "duration": 0.0188,
      "velocity": 104,
      "chip": "ym2612"
    },
    {
      "channel": 2,
      "note": 85,
      "start": 35.5991,
      "duration": 0.0188,
      "velocity": 104,
      "chip": "ym2612"
    },
    {
      "channel": 3,
      "note": 88,
      "start": 35.5994,
      "duration": 0.0188,
      "velocity": 104,
      "chip": "ym2612"
    },
    {
      "channel": 2,
      "note": 86,
      "start": 35.6179,
      "duration": 0.0164,
      "velocity": 104,
      "chip": "ym2612"
    },
    {
      "channel": 3,
      "note": 89,
      "start": 35.6182,
      "duration": 0.0164,
      "velocity": 104,
      "chip": "ym2612"
    },
    {
      "channel": 2,
      "note": 87,
      "start": 35.6343,
      "duration": 0.0165,
      "velocity": 104,
      "chip": "ym2612"
    },
    {
      "channel": 3,
      "note": 90,
      "start": 35.6346,
      "duration": 0.0164,
      "velocity": 104,
      "chip": "ym2612"
    },
    {
      "channel": 2,
      "note": 88,
      "start": 35.6508,
      "duration": 0.0202,
      "velocity": 104,
      "chip": "ym2612"
    },
    {
      "channel": 3,
      "note": 91,
      "start": 35.651,
      "duration": 0.0206,
      "velocity": 104,
      "chip": "ym2612"
    },
    {
      "channel": 0,
      "note": 41,
      "start": 35.67,
      "duration": 0.1198,
      "velocity": 97,
      "chip": "ym2612"
    },
    {
      "channel": 1,
      "note": 68,
      "start": 35.6706,
      "duration": 0.3435,
      "velocity": 110,
      "chip": "ym2612"
    },
    {
      "channel": 2,
      "note": 87,
      "start": 35.6711,
      "duration": 0.2394,
      "velocity": 104,
      "chip": "ym2612"
    },
    {
      "channel": 3,
      "note": 90,
      "start": 35.6717,
      "duration": 0.2395,
      "velocity": 104,
      "chip": "ym2612"
    },
    {
      "channel": 4,
      "note": 77,
      "start": 35.6723,
      "duration": 0.1183,
      "velocity": 127,
      "chip": "ym2612"
    },
    {
      "channel": 5,
      "note": 21,
      "start": 35.6745,
      "duration": 0.1167,
      "velocity": 84,
      "chip": "ym2612"
    },
    {
      "channel": 0,
      "note": 41,
      "start": 35.79,
      "duration": 0.1198,
      "velocity": 97,
      "chip": "ym2612"
    },
    {
      "channel": 4,
      "note": 65,
      "start": 35.7908,
      "duration": 0.224,
      "velocity": 127,
      "chip": "ym2612"
    },
    {
      "channel": 5,
      "note": 21,
      "start": 35.7914,
      "duration": 0.7847,
      "velocity": 84,
      "chip": "ym2612"
    },
    {
      "channel": 0,
      "note": 41,
      "start": 35.91,
      "duration": 0.1035,
      "velocity": 97,
      "chip": "ym2612"
    },
    {
      "channel": 2,
      "note": 78,
      "start": 35.9107,
      "duration": 0.0015,
      "velocity": 104,
      "chip": "ym2612"
    },
    {
      "channel": 3,
      "note": 80,
      "start": 35.9114,
      "duration": 0.0011,
      "velocity": 104,
      "chip": "ym2612"
    },
    {
      "channel": 2,
      "note": 79,
      "start": 35.9122,
      "duration": 0.0143,
      "velocity": 104,
      "chip": "ym2612"
    },
    {
      "channel": 3,
      "note": 82,
      "start": 35.9125,
      "duration": 0.0143,
      "velocity": 104,
      "chip": "ym2612"
    },
    {
      "channel": 2,
      "note": 80,
      "start": 35.9265,
      "duration": 0.0188,
      "velocity": 104,
      "chip": "ym2612"
    },
    {
      "channel": 3,
      "note": 83,
      "start": 35.9268,
      "duration": 0.0188,
      "velocity": 104,
      "chip": "ym2612"
    },
    {
      "channel": 2,
      "note": 81,
      "start": 35.9453,
      "duration": 0.0164,
      "velocity": 104,
      "chip": "ym2612"
    },
    {
      "channel": 3,
      "note": 84,
      "start": 35.9456,
      "duration": 0.0164,
      "velocity": 104,
      "chip": "ym2612"
    },
    {
      "channel": 2,
      "note": 82,
      "start": 35.9617,
      "duration": 0.0163,
      "velocity": 104,
      "chip": "ym2612"
    },
    {
      "channel": 3,
      "note": 85,
      "start": 35.9619,
      "duration": 0.0163,
      "velocity": 104,
      "chip": "ym2612"
    },
    {
      "channel": 2,
      "note": 84,
      "start": 35.9779,
      "duration": 0.0165,
      "velocity": 104,
      "chip": "ym2612"
    },
    {
      "channel": 3,
      "note": 86,
      "start": 35.9783,
      "duration": 0.0165,
      "velocity": 104,
      "chip": "ym2612"
    },
    {
      "channel": 2,
      "note": 85,
      "start": 35.9944,
      "duration": 0.021,
      "velocity": 104,
      "chip": "ym2612"
    },
    {
      "channel": 3,
      "note": 88,
      "start": 35.9947,
      "duration": 0.0209,
      "velocity": 104,
      "chip": "ym2612"
    },
    {
      "channel": 0,
      "note": 41,
      "start": 36.0137,
      "duration": 0.1156,
      "velocity": 97,
      "chip": "ym2612"
    },
    {
      "channel": 1,
      "note": 66,
      "start": 36.0143,
      "duration": 0.2287,
      "velocity": 110,
      "chip": "ym2612"
    },
    {
      "channel": 4,
      "note": 65,
      "start": 36.015,
      "duration": 0.116,
      "velocity": 127,
      "chip": "ym2612"
    },
    {
      "channel": 2,
      "note": 86,
      "start": 36.0154,
      "duration": 0.0145,
      "velocity": 104,
      "chip": "ym2612"
    },
    {
      "channel": 3,
      "note": 89,
      "start": 36.0157,
      "duration": 0.0145,
      "velocity": 104,
      "chip": "ym2612"
    },
    {
      "channel": 2,
      "note": 87,
      "start": 36.0299,
      "duration": 0.019,
      "velocity": 104,
      "chip": "ym2612"
    },
    {
      "channel": 3,
      "note": 89,
      "start": 36.0302,
      "duration": 0.019,
      "velocity": 104,
      "chip": "ym2612"
    },
    {
      "channel": 2,
      "note": 88,
      "start": 36.0489,
      "duration": 0.02,
      "velocity": 104,
      "chip": "ym2612"
    },
    {
      "channel": 3,
      "note": 90,
      "start": 36.0492,
      "duration": 0.02,
      "velocity": 104,
      "chip": "ym2612"
    },
    {
      "channel": 2,
      "note": 89,
      "start": 36.0689,
      "duration": 0.02,
      "velocity": 104,
      "chip": "ym2612"
    },
    {
      "channel": 3,
      "note": 91,
      "start": 36.0692,
      "duration": 0.02,
      "velocity": 104,
      "chip": "ym2612"
    },
    {
      "channel": 2,
      "note": 90,
      "start": 36.0889,
      "duration": 0.02,
      "velocity": 104,
      "chip": "ym2612"
    },
    {
      "channel": 3,
      "note": 92,
      "start": 36.0892,
      "duration": 0.02,
      "velocity": 104,
      "chip": "ym2612"
    },
    {
      "channel": 2,
      "note": 91,
      "start": 36.1089,
      "duration": 0.021,
      "velocity": 104,
      "chip": "ym2612"
    },
    {
      "channel": 3,
      "note": 93,
      "start": 36.1092,
      "duration": 0.0213,
      "velocity": 104,
      "chip": "ym2612"
    },
    {
      "channel": 0,
      "note": 41,
      "start": 36.1294,
      "duration": 0.1129,
      "velocity": 97,
      "chip": "ym2612"
    },
    {
      "channel": 2,
      "note": 90,
      "start": 36.13,
      "duration": 0.2209,
      "velocity": 97,
      "chip": "ym2612"
    },
    {
      "channel": 3,
      "note": 92,
      "start": 36.1306,
      "duration": 0.2209,
      "velocity": 104,
      "chip": "ym2612"
    },
    {
      "channel": 4,
      "note": 77,
      "start": 36.1312,
      "duration": 0.1125,
      "velocity": 127,
      "chip": "ym2612"
    },
    {
      "channel": 0,
      "note": 41,
      "start": 36.2425,
      "duration": 0.1056,
      "velocity": 97,
      "chip": "ym2612"
    },
    {
      "channel": 1,
      "note": 68,
      "start": 36.2431,
      "duration": 0.1057,
      "velocity": 110,
      "chip": "ym2612"
    },
    {
      "channel": 4,
      "note": 65,
      "start": 36.2437,
      "duration": 0.11,
      "velocity": 104,
      "chip": "ym2612"
    },
    {
      "channel": 0,
      "note": 48,
      "start": 36.3483,
      "duration": 0.1071,
      "velocity": 97,
      "chip": "ym2612"
    },
    {
      "channel": 1,
      "note": 60,
      "start": 36.349,
      "duration": 0.3469,
      "velocity": 110,
      "chip": "ym2612"
    },
    {
      "channel": 2,
      "note": 60,
      "start": 36.3511,
      "duration": 7.4773,
      "velocity": 127,
      "chip": "ym2612"
    },
    {
      "channel": 3,
      "note": 84,
      "start": 36.3517,
      "duration": 31.4023,
      "velocity": 100,
      "chip": "ym2612"
    },
    {
      "channel": 4,
      "note": 87,
      "start": 36.3539,
      "duration": 31.5031,
      "velocity": 127,
      "chip": "ym2612"
    },
    {
      "channel": 0,
      "note": 48,
      "start": 36.4556,
      "duration": 0.1198,
      "velocity": 97,
      "chip": "ym2612"
    },
    {
      "channel": 0,
      "note": 48,
      "start": 36.5754,
      "duration": 0.1199,
      "velocity": 97,
      "chip": "ym2612"
    },
    {
      "channel": 5,
      "note": 21,
      "start": 36.5763,
      "duration": 0.1202,
      "velocity": 84,
      "chip": "ym2612"
    },
    {
      "channel": 0,
      "note": 48,
      "start": 36.6955,
      "duration": 0.1198,
      "velocity": 97,
      "chip": "ym2612"
    },
    {
      "channel": 1,
      "note": 68,
      "start": 36.696,
      "duration": 0.3442,
      "velocity": 110,
      "chip": "ym2612"
    },
    {
      "channel": 5,
      "note": 21,
      "start": 36.6968,
      "duration": 0.3458,
      "velocity": 84,
      "chip": "ym2612"
    },
    {
      "channel": 0,
      "note": 48,
      "start": 36.8155,
      "duration": 0.1053,
      "velocity": 97,
      "chip": "ym2612"
    },
    {
      "channel": 0,
      "note": 48,
      "start": 36.9209,
      "duration": 0.1188,
      "velocity": 97,
      "chip": "ym2612"
    },
    {
      "channel": 0,
      "note": 48,
      "start": 37.0398,
      "duration": 0.1199,
      "velocity": 97,
      "chip": "ym2612"
    },
    {
      "channel": 1,
      "note": 66,
      "start": 37.0404,
      "duration": 0.3518,
      "velocity": 110,
      "chip": "ym2612"
    },
    {
      "channel": 5,
      "note": 21,
      "start": 37.0427,
      "duration": 0.1178,
      "velocity": 84,
      "chip": "ym2612"
    },
    {
      "channel": 0,
      "note": 48,
      "start": 37.1599,
      "duration": 0.1198,
      "velocity": 97,
      "chip": "ym2612"
    },
    {
      "channel": 5,
      "note": 21,
      "start": 37.1606,
      "duration": 0.3534,
      "velocity": 84,
      "chip": "ym2612"
    },
    {
      "channel": 0,
      "note": 48,
      "start": 37.2798,
      "duration": 0.1118,
      "velocity": 97,
      "chip": "ym2612"
    },
    {
      "channel": 0,
      "note": 48,
      "start": 37.3918,
      "duration": 0.1198,
      "velocity": 97,
      "chip": "ym2612"
    },
    {
      "channel": 1,
      "note": 58,
      "start": 37.3923,
      "duration": 0.3599,
      "velocity": 110,
      "chip": "ym2612"
    },
    {
      "channel": 0,
      "note": 48,
      "start": 37.5118,
      "duration": 0.1198,
      "velocity": 97,
      "chip": "ym2612"
    },
    {
      "channel": 5,
      "note": 21,
      "start": 37.5142,
      "duration": 0.1182,
      "velocity": 84,
      "chip": "ym2612"
    },
    {
      "channel": 0,
      "note": 48,
      "start": 37.6317,
      "duration": 0.1199,
      "velocity": 97,
      "chip": "ym2612"
    },
    {
      "channel": 5,
      "note": 21,
      "start": 37.6326,
      "duration": 0.3466,
      "velocity": 84,
      "chip": "ym2612"
    },
    {
      "channel": 0,
      "note": 48,
      "start": 37.7518,
      "duration": 0.1056,
      "velocity": 97,
      "chip": "ym2612"
    },
    {
      "channel": 1,
      "note": 60,
      "start": 37.7523,
      "duration": 0.2245,
      "velocity": 110,
      "chip": "ym2612"
    },
    {
      "channel": 0,
      "note": 48,
      "start": 37.8576,
      "duration": 0.1187,
      "velocity": 97,
      "chip": "ym2612"
    },
    {
      "channel": 0,
      "note": 48,
      "start": 37.9765,
      "duration": 0.1198,
      "velocity": 97,
      "chip": "ym2612"
    },
    {
      "channel": 1,
      "note": 61,
      "start": 37.977,
      "duration": 0.2257,
      "velocity": 110,
      "chip": "ym2612"
    },
    {
      "channel": 5,
      "note": 21,
      "start": 37.9794,
      "duration": 0.4524,
      "velocity": 84,
      "chip": "ym2612"
    },
    {
      "channel": 0,
      "note": 48,
      "start": 38.0964,
      "duration": 0.1058,
      "velocity": 97,
      "chip": "ym2612"
    },
    {
      "channel": 0,
      "note": 48,
      "start": 38.2023,
      "duration": 0.1071,
      "velocity": 97,
      "chip": "ym2612"
    },
    {
      "channel": 1,
      "note": 60,
      "start": 38.2029,
      "duration": 0.3471,
      "velocity": 110,
      "chip": "ym2612"
    },
    {
      "channel": 0,
      "note": 48,
      "start": 38.3096,
      "duration": 0.1198,
      "velocity": 97,
      "chip": "ym2612"
    },
    {
      "channel": 0,
      "note": 48,
      "start": 38.4295,
      "duration": 0.1199,
      "velocity": 97,
      "chip": "ym2612"
    },
    {
      "channel": 5,
      "note": 21,
      "start": 38.4319,
      "duration": 0.1188,
      "velocity": 84,
      "chip": "ym2612"
    },
    {
      "channel": 0,
      "note": 48,
      "start": 38.5496,
      "duration": 0.1198,
      "velocity": 97,
      "chip": "ym2612"
    },
    {
      "channel": 1,
      "note": 69,
      "start": 38.5501,
      "duration": 0.3442,
      "velocity": 110,
      "chip": "ym2612"
    },
    {
      "channel": 5,
      "note": 21,
      "start": 38.5509,
      "duration": 0.3458,
      "velocity": 84,
      "chip": "ym2612"
    },
    {
      "channel": 0,
      "note": 48,
      "start": 38.6696,
      "duration": 0.1053,
      "velocity": 97,
      "chip": "ym2612"
    },
    {
      "channel": 0,
      "note": 48,
      "start": 38.775,
      "duration": 0.1188,
      "velocity": 97,
      "chip": "ym2612"
    },
    {
      "channel": 0,
      "note": 48,
      "start": 38.894,
      "duration": 0.1198,
      "velocity": 97,
      "chip": "ym2612"
    },
    {
      "channel": 1,
      "note": 68,
      "start": 38.8945,
      "duration": 0.3498,
      "velocity": 110,
      "chip": "ym2612"
    },
    {
      "channel": 5,
      "note": 21,
      "start": 38.8969,
      "duration": 0.1178,
      "velocity": 84,
      "chip": "ym2612"
    },
    {
      "channel": 0,
      "note": 48,
      "start": 39.014,
      "duration": 0.1198,
      "velocity": 97,
      "chip": "ym2612"
    },
    {
      "channel": 5,
      "note": 21,
      "start": 39.0148,
      "duration": 0.3322,
      "velocity": 84,
      "chip": "ym2612"
    },
    {
      "channel": 0,
      "note": 48,
      "start": 39.1339,
      "duration": 0.1098,
      "velocity": 97,
      "chip": "ym2612"
    },
    {
      "channel": 0,
      "note": 48,
      "start": 39.2439,
      "duration": 0.1007,
      "velocity": 97,
      "chip": "ym2612"
    },
    {
      "channel": 1,
      "note": 56,
      "start": 39.2444,
      "duration": 0.3407,
      "velocity": 110,
      "chip": "ym2612"
    },
    {
      "channel": 0,
      "note": 48,
      "start": 39.3447,
      "duration": 0.1198,
      "velocity": 97,
      "chip": "ym2612"
    },
    {
      "channel": 5,
      "note": 21,
      "start": 39.3471,
      "duration": 0.1182,
      "velocity": 84,
      "chip": "ym2612"
    },
    {
      "channel": 0,
      "note": 48,
      "start": 39.4647,
      "duration": 0.1199,
      "velocity": 97,
      "chip": "ym2612"
    },
    {
      "channel": 5,
      "note": 21,
      "start": 39.4655,
      "duration": 0.3487,
      "velocity": 84,
      "chip": "ym2612"
    },
    {
      "channel": 0,
      "note": 48,
      "start": 39.5847,
      "duration": 0.1078,
      "velocity": 97,
      "chip": "ym2612"
    },
    {
      "channel": 1,
      "note": 58,
      "start": 39.5853,
      "duration": 0.2266,
      "velocity": 110,
      "chip": "ym2612"
    },
    {
      "channel": 0,
      "note": 48,
      "start": 39.6927,
      "duration": 0.1187,
      "velocity": 97,
      "chip": "ym2612"
    },
    {
      "channel": 0,
      "note": 48,
      "start": 39.8115,
      "duration": 0.1199,
      "velocity": 97,
      "chip": "ym2612"
    },
    {
      "channel": 1,
      "note": 59,
      "start": 39.8121,
      "duration": 0.2206,
      "velocity": 110,
      "chip": "ym2612"
    },
    {
      "channel": 5,
      "note": 21,
      "start": 39.8144,
      "duration": 0.4519,
      "velocity": 84,
      "chip": "ym2612"
    },
    {
      "channel": 0,
      "note": 48,
      "start": 39.9315,
      "duration": 0.1005,
      "velocity": 97,
      "chip": "ym2612"
    },
    {
      "channel": 0,
      "note": 48,
      "start": 40.0323,
      "duration": 0.1117,
      "velocity": 97,
      "chip": "ym2612"
    },
    {
      "channel": 1,
      "note": 60,
      "start": 40.0329,
      "duration": 0.3516,
      "velocity": 110,
      "chip": "ym2612"
    },
    {
      "channel": 0,
      "note": 48,
      "start": 40.1441,
      "duration": 0.1198,
      "velocity": 97,
      "chip": "ym2612"
    },
    {
      "channel": 0,
      "note": 48,
      "start": 40.264,
      "duration": 0.1199,
      "velocity": 97,
      "chip": "ym2612"
    },
    {
      "channel": 5,
      "note": 21,
      "start": 40.2664,
      "duration": 0.1188,
      "velocity": 84,
      "chip": "ym2612"
    },
    {
      "channel": 0,
      "note": 48,
      "start": 40.3841,
      "duration": 0.1198,
      "velocity": 97,
      "chip": "ym2612"
    },
    {
      "channel": 1,
      "note": 68,
      "start": 40.3846,
      "duration": 0.3442,
      "velocity": 110,
      "chip": "ym2612"
    },
    {
      "channel": 5,
      "note": 21,
      "start": 40.3854,
      "duration": 0.3458,
      "velocity": 84,
      "chip": "ym2612"
    },
    {
      "channel": 0,
      "note": 48,
      "start": 40.5041,
      "duration": 0.1053,
      "velocity": 97,
      "chip": "ym2612"
    },
    {
      "channel": 0,
      "note": 48,
      "start": 40.6095,
      "duration": 0.1188,
      "velocity": 97,
      "chip": "ym2612"
    },
    {
      "channel": 0,
      "note": 48,
      "start": 40.7285,
      "duration": 0.1198,
      "velocity": 97,
      "chip": "ym2612"
    },
    {
      "channel": 1,
      "note": 66,
      "start": 40.729,
      "duration": 0.352,
      "velocity": 110,
      "chip": "ym2612"
    },
    {
      "channel": 5,
      "note": 21,
      "start": 40.7314,
      "duration": 0.1178,
      "velocity": 84,
      "chip": "ym2612"
    },
    {
      "channel": 0,
      "note": 48,
      "start": 40.8485,
      "duration": 0.1198,
      "velocity": 97,
      "chip": "ym2612"
    },
    {
      "channel": 5,
      "note": 21,
      "start": 40.8493,
      "duration": 0.3535,
      "velocity": 84,
      "chip": "ym2612"
    },
    {
      "channel": 0,
      "note": 48,
      "start": 40.9684,
      "duration": 0.112,
      "velocity": 97,
      "chip": "ym2612"
    },
    {
      "channel": 0,
      "note": 48,
      "start": 41.0806,
      "duration": 0.1198,
      "velocity": 97,
      "chip": "ym2612"
    },
    {
      "channel": 1,
      "note": 58,
      "start": 41.0811,
      "duration": 0.3599,
      "velocity": 110,
      "chip": "ym2612"
    },
    {
      "channel": 0,
      "note": 48,
      "start": 41.2006,
      "duration": 0.1198,
      "velocity": 97,
      "chip": "ym2612"
    },
    {
      "channel": 5,
      "note": 21,
      "start": 41.203,
      "duration": 0.1182,
      "velocity": 84,
      "chip": "ym2612"
    },
    {
      "channel": 0,
      "note": 48,
      "start": 41.3205,
      "duration": 0.1199,
      "velocity": 97,
      "chip": "ym2612"
    },
    {
      "channel": 5,
      "note": 21,
      "start": 41.3214,
      "duration": 0.3466,
      "velocity": 84,
      "chip": "ym2612"
    },
    {
      "channel": 0,
      "note": 48,
      "start": 41.4406,
      "duration": 0.1056,
      "velocity": 97,
      "chip": "ym2612"
    },
    {
      "channel": 1,
      "note": 60,
      "start": 41.4411,
      "duration": 0.2245,
      "velocity": 110,
      "chip": "ym2612"
    },
    {
      "channel": 0,
      "note": 48,
      "start": 41.5464,
      "duration": 0.1187,
      "velocity": 97,
      "chip": "ym2612"
    },
    {
      "channel": 0,
      "note": 48,
      "start": 41.6653,
      "duration": 0.1198,
      "velocity": 97,
      "chip": "ym2612"
    },
    {
      "channel": 1,
      "note": 61,
      "start": 41.6658,
      "duration": 0.2206,
      "velocity": 110,
      "chip": "ym2612"
    },
    {
      "channel": 5,
      "note": 21,
      "start": 41.6681,
      "duration": 0.4525,
      "velocity": 84,
      "chip": "ym2612"
    },
    {
      "channel": 0,
      "note": 48,
      "start": 41.7853,
      "duration": 0.1006,
      "velocity": 97,
      "chip": "ym2612"
    },
    {
      "channel": 0,
      "note": 48,
      "start": 41.886,
      "duration": 0.1123,
      "velocity": 97,
      "chip": "ym2612"
    },
    {
      "channel": 1,
      "note": 60,
      "start": 41.8865,
      "duration": 0.3524,
      "velocity": 110,
      "chip": "ym2612"
    },
    {
      "channel": 0,
      "note": 48,
      "start": 41.9985,
      "duration": 0.1198,
      "velocity": 97,
      "chip": "ym2612"
    },
    {
      "channel": 0,
      "note": 48,
      "start": 42.1184,
      "duration": 0.1199,
      "velocity": 97,
      "chip": "ym2612"
    },
    {
      "channel": 5,
      "note": 21,
      "start": 42.1208,
      "duration": 0.1188,
      "velocity": 84,
      "chip": "ym2612"
    },
    {
      "channel": 0,
      "note": 48,
      "start": 42.2385,
      "duration": 0.1198,
      "velocity": 97,
      "chip": "ym2612"
    },
    {
      "channel": 1,
      "note": 69,
      "start": 42.239,
      "duration": 0.3442,
      "velocity": 110,
      "chip": "ym2612"
    },
    {
      "channel": 5,
      "note": 21,
      "start": 42.2398,
      "duration": 0.3458,
      "velocity": 84,
      "chip": "ym2612"
    },
    {
      "channel": 0,
      "note": 48,
      "start": 42.3585,
      "duration": 0.1053,
      "velocity": 97,
      "chip": "ym2612"
    },
    {
      "channel": 0,
      "note": 48,
      "start": 42.4639,
      "duration": 0.1188,
      "velocity": 97,
      "chip": "ym2612"
    },
    {
      "channel": 0,
      "note": 48,
      "start": 42.5829,
      "duration": 0.1198,
      "velocity": 97,
      "chip": "ym2612"
    },
    {
      "channel": 1,
      "note": 68,
      "start": 42.5834,
      "duration": 0.3518,
      "velocity": 110,
      "chip": "ym2612"
    },
    {
      "channel": 5,
      "note": 21,
      "start": 42.5858,
      "duration": 0.1178,
      "velocity": 84,
      "chip": "ym2612"
    },
    {
      "channel": 0,
      "note": 48,
      "start": 42.7029,
      "duration": 0.1198,
      "velocity": 97,
      "chip": "ym2612"
    },
    {
      "channel": 5,
      "note": 21,
      "start": 42.7037,
      "duration": 0.3364,
      "velocity": 84,
      "chip": "ym2612"
    },
    {
      "channel": 0,
      "note": 48,
      "start": 42.8228,
      "duration": 0.1118,
      "velocity": 97,
      "chip": "ym2612"
    },
    {
      "channel": 0,
      "note": 48,
      "start": 42.9348,
      "duration": 0.1029,
      "velocity": 97,
      "chip": "ym2612"
    },
    {
      "channel": 1,
      "note": 56,
      "start": 42.9354,
      "duration": 0.3429,
      "velocity": 110,
      "chip": "ym2612"
    },
    {
      "channel": 0,
      "note": 48,
      "start": 43.0379,
      "duration": 0.1198,
      "velocity": 97,
      "chip": "ym2612"
    },
    {
      "channel": 5,
      "note": 21,
      "start": 43.0403,
      "duration": 0.1182,
      "velocity": 84,
      "chip": "ym2612"
    },
    {
      "channel": 0,
      "note": 48,
      "start": 43.1578,
      "duration": 0.1199,
      "velocity": 97,
      "chip": "ym2612"
    },
    {
      "channel": 5,
      "note": 21,
      "start": 43.1587,
      "duration": 0.7888,
      "velocity": 84,
      "chip": "ym2612"
    },
    {
      "channel": 0,
      "note": 48,
      "start": 43.2779,
      "duration": 0.1056,
      "velocity": 97,
      "chip": "ym2612"
    },
    {
      "channel": 1,
      "note": 58,
      "start": 43.2784,
      "duration": 0.2245,
      "velocity": 110,
      "chip": "ym2612"
    },
    {
      "channel": 0,
      "note": 48,
      "start": 43.3836,
      "duration": 0.1187,
      "velocity": 97,
      "chip": "ym2612"
    },
    {
      "channel": 0,
      "note": 48,
      "start": 43.5025,
      "duration": 0.113,
      "velocity": 97,
      "chip": "ym2612"
    },
    {
      "channel": 1,
      "note": 59,
      "start": 43.503,
      "duration": 0.2139,
      "velocity": 110,
      "chip": "ym2612"
    },
    {
      "channel": 0,
      "note": 48,
      "start": 43.6157,
      "duration": 0.1006,
      "velocity": 97,
      "chip": "ym2612"
    },
    {
      "channel": 0,
      "note": 48,
      "start": 43.7165,
      "duration": 0.1096,
      "velocity": 97,
      "chip": "ym2612"
    },
    {
      "channel": 1,
      "note": 60,
      "start": 43.7171,
      "duration": 0.3496,
      "velocity": 110,
      "chip": "ym2612"
    },
    {
      "channel": 0,
      "note": 48,
      "start": 43.8263,
      "duration": 0.1198,
      "velocity": 97,
      "chip": "ym2612"
    },
    {
      "channel": 2,
      "note": 60,
      "start": 43.8285,
      "duration": 0.1183,
      "velocity": 127,
      "chip": "ym2612"
    },
    {
      "channel": 0,
      "note": 48,
      "start": 43.9463,
      "duration": 0.1198,
      "velocity": 97,
      "chip": "ym2612"
    },
    {
      "channel": 2,
      "note": 72,
      "start": 43.9469,
      "duration": 0.1204,
      "velocity": 127,
      "chip": "ym2612"
    },
    {
      "channel": 5,
      "note": 21,
      "start": 43.9476,
      "duration": 0.1203,
      "velocity": 84,
      "chip": "ym2612"
    },
    {
      "channel": 0,
      "note": 48,
      "start": 44.0663,
      "duration": 0.1198,
      "velocity": 97,
      "chip": "ym2612"
    },
    {
      "channel": 1,
      "note": 68,
      "start": 44.0669,
      "duration": 0.3421,
      "velocity": 110,
      "chip": "ym2612"
    },
    {
      "channel": 2,
      "note": 60,
      "start": 44.0674,
      "duration": 0.2251,
      "velocity": 127,
      "chip": "ym2612"
    },
    {
      "channel": 5,
      "note": 21,
      "start": 44.0681,
      "duration": 0.3437,
      "velocity": 84,
      "chip": "ym2612"
    },
    {
      "channel": 0,
      "note": 48,
      "start": 44.1863,
      "duration": 0.1055,
      "velocity": 97,
      "chip": "ym2612"
    },
    {
      "channel": 0,
      "note": 48,
      "start": 44.292,
      "duration": 0.1164,
      "velocity": 97,
      "chip": "ym2612"
    },
    {
      "channel": 2,
      "note": 60,
      "start": 44.2926,
      "duration": 0.1169,
      "velocity": 127,
      "chip": "ym2612"
    },
    {
      "channel": 0,
      "note": 48,
      "start": 44.4085,
      "duration": 0.1198,
      "velocity": 97,
      "chip": "ym2612"
    },
    {
      "channel": 1,
      "note": 66,
      "start": 44.4091,
      "duration": 0.35,
      "velocity": 110,
      "chip": "ym2612"
    },
    {
      "channel": 2,
      "note": 72,
      "start": 44.4096,
      "duration": 0.1194,
      "velocity": 127,
      "chip": "ym2612"
    },
    {
      "channel": 5,
      "note": 21,
      "start": 44.412,
      "duration": 0.1178,
      "velocity": 84,
      "chip": "ym2612"
    },
    {
      "channel": 0,
      "note": 48,
      "start": 44.5285,
      "duration": 0.1198,
      "velocity": 97,
      "chip": "ym2612"
    },
    {
      "channel": 2,
      "note": 60,
      "start": 44.5292,
      "duration": 0.2306,
      "velocity": 127,
      "chip": "ym2612"
    },
    {
      "channel": 5,
      "note": 21,
      "start": 44.5299,
      "duration": 0.3516,
      "velocity": 84,
      "chip": "ym2612"
    },
    {
      "channel": 0,
      "note": 48,
      "start": 44.6485,
      "duration": 0.11,
      "velocity": 97,
      "chip": "ym2612"
    },
    {
      "channel": 0,
      "note": 48,
      "start": 44.7588,
      "duration": 0.1198,
      "velocity": 97,
      "chip": "ym2612"
    },
    {
      "channel": 1,
      "note": 58,
      "start": 44.7594,
      "duration": 0.3598,
      "velocity": 110,
      "chip": "ym2612"
    },
    {
      "channel": 2,
      "note": 60,
      "start": 44.7599,
      "duration": 0.1194,
      "velocity": 127,
      "chip": "ym2612"
    },
    {
      "channel": 0,
      "note": 48,
      "start": 44.8788,
      "duration": 0.1198,
      "velocity": 97,
      "chip": "ym2612"
    },
    {
      "channel": 2,
      "note": 72,
      "start": 44.8794,
      "duration": 0.1198,
      "velocity": 127,
      "chip": "ym2612"
    },
    {
      "channel": 5,
      "note": 21,
      "start": 44.8817,
      "duration": 0.1182,
      "velocity": 84,
      "chip": "ym2612"
    },
    {
      "channel": 0,
      "note": 48,
      "start": 44.9988,
      "duration": 0.1198,
      "velocity": 97,
      "chip": "ym2612"
    },
    {
      "channel": 2,
      "note": 60,
      "start": 44.9994,
      "duration": 0.2256,
      "velocity": 127,
      "chip": "ym2612"
    },
    {
      "channel": 5,
      "note": 21,
      "start": 45.0001,
      "duration": 0.3466,
      "velocity": 84,
      "chip": "ym2612"
    },
    {
      "channel": 0,
      "note": 48,
      "start": 45.1188,
      "duration": 0.1056,
      "velocity": 97,
      "chip": "ym2612"
    },
    {
      "channel": 1,
      "note": 60,
      "start": 45.1194,
      "duration": 0.2245,
      "velocity": 110,
      "chip": "ym2612"
    },
    {
      "channel": 0,
      "note": 48,
      "start": 45.2246,
      "duration": 0.1187,
      "velocity": 97,
      "chip": "ym2612"
    },
    {
      "channel": 2,
      "note": 60,
      "start": 45.2252,
      "duration": 0.1193,
      "velocity": 127,
      "chip": "ym2612"
    },
    {
      "channel": 0,
      "note": 48,
      "start": 45.3435,
      "duration": 0.1198,
      "velocity": 97,
      "chip": "ym2612"
    },
    {
      "channel": 1,
      "note": 61,
      "start": 45.3441,
      "duration": 0.2206,
      "velocity": 110,
      "chip": "ym2612"
    },
    {
      "channel": 2,
      "note": 72,
      "start": 45.3446,
      "duration": 0.1194,
      "velocity": 127,
      "chip": "ym2612"
    },
    {
      "channel": 5,
      "note": 21,
      "start": 45.3469,
      "duration": 0.4455,
      "velocity": 84,
      "chip": "ym2612"
    },
    {
      "channel": 0,
      "note": 48,
      "start": 45.4635,
      "duration": 0.1007,
      "velocity": 97,
      "chip": "ym2612"
    },
    {
      "channel": 2,
      "note": 60,
      "start": 45.4641,
      "duration": 0.206,
      "velocity": 127,
      "chip": "ym2612"
    },
    {
      "channel": 0,
      "note": 48,
      "start": 45.5643,
      "duration": 0.1052,
      "velocity": 97,
      "chip": "ym2612"
    },
    {
      "channel": 1,
      "note": 60,
      "start": 45.5649,
      "duration": 0.3452,
      "velocity": 110,
      "chip": "ym2612"
    },
    {
      "channel": 0,
      "note": 48,
      "start": 45.6696,
      "duration": 0.1198,
      "velocity": 97,
      "chip": "ym2612"
    },
    {
      "channel": 2,
      "note": 60,
      "start": 45.6703,
      "duration": 0.1198,
      "velocity": 127,
      "chip": "ym2612"
    },
    {
      "channel": 0,
      "note": 48,
      "start": 45.7896,
      "duration": 0.1198,
      "velocity": 97,
      "chip": "ym2612"
    },
    {
      "channel": 2,
      "note": 72,
      "start": 45.7902,
      "duration": 0.1204,
      "velocity": 127,
      "chip": "ym2612"
    },
    {
      "channel": 5,
      "note": 21,
      "start": 45.7925,
      "duration": 0.1188,
      "velocity": 84,
      "chip": "ym2612"
    },
    {
      "channel": 0,
      "note": 48,
      "start": 45.9096,
      "duration": 0.1198,
      "velocity": 97,
      "chip": "ym2612"
    },
    {
      "channel": 1,
      "note": 69,
      "start": 45.9102,
      "duration": 0.3394,
      "velocity": 110,
      "chip": "ym2612"
    },
    {
      "channel": 2,
      "note": 60,
      "start": 45.9107,
      "duration": 0.22,
      "velocity": 127,
      "chip": "ym2612"
    },
    {
      "channel": 5,
      "note": 21,
      "start": 45.9114,
      "duration": 0.341,
      "velocity": 84,
      "chip": "ym2612"
    },
    {
      "channel": 0,
      "note": 48,
      "start": 46.0296,
      "duration": 0.1004,
      "velocity": 97,
      "chip": "ym2612"
    },
    {
      "channel": 0,
      "note": 48,
      "start": 46.1302,
      "duration": 0.1188,
      "velocity": 97,
      "chip": "ym2612"
    },
    {
      "channel": 2,
      "note": 60,
      "start": 46.1309,
      "duration": 0.1193,
      "velocity": 127,
      "chip": "ym2612"
    },
    {
      "channel": 0,
      "note": 48,
      "start": 46.2492,
      "duration": 0.1198,
      "velocity": 97,
      "chip": "ym2612"
    },
    {
      "channel": 1,
      "note": 68,
      "start": 46.2498,
      "duration": 0.3451,
      "velocity": 110,
      "chip": "ym2612"
    },
    {
      "channel": 2,
      "note": 72,
      "start": 46.2503,
      "duration": 0.1194,
      "velocity": 127,
      "chip": "ym2612"
    },
    {
      "channel": 5,
      "note": 21,
      "start": 46.2526,
      "duration": 0.1178,
      "velocity": 84,
      "chip": "ym2612"
    },
    {
      "channel": 0,
      "note": 48,
      "start": 46.3692,
      "duration": 0.1198,
      "velocity": 97,
      "chip": "ym2612"
    },
    {
      "channel": 2,
      "note": 60,
      "start": 46.3698,
      "duration": 0.2256,
      "velocity": 127,
      "chip": "ym2612"
    },
    {
      "channel": 5,
      "note": 21,
      "start": 46.3705,
      "duration": 0.3373,
      "velocity": 84,
      "chip": "ym2612"
    },
    {
      "channel": 0,
      "note": 48,
      "start": 46.4892,
      "duration": 0.1051,
      "velocity": 97,
      "chip": "ym2612"
    },
    {
      "channel": 0,
      "note": 48,
      "start": 46.5945,
      "duration": 0.1105,
      "velocity": 97,
      "chip": "ym2612"
    },
    {
      "channel": 1,
      "note": 56,
      "start": 46.5951,
      "duration": 0.3504,
      "velocity": 110,
      "chip": "ym2612"
    },
    {
      "channel": 2,
      "note": 60,
      "start": 46.5956,
      "duration": 0.11,
      "velocity": 127,
      "chip": "ym2612"
    },
    {
      "channel": 0,
      "note": 48,
      "start": 46.7051,
      "duration": 0.1198,
      "velocity": 97,
      "chip": "ym2612"
    },
    {
      "channel": 2,
      "note": 72,
      "start": 46.7058,
      "duration": 0.1198,
      "velocity": 127,
      "chip": "ym2612"
    },
    {
      "channel": 5,
      "note": 21,
      "start": 46.7081,
      "duration": 0.1181,
      "velocity": 84,
      "chip": "ym2612"
    },
    {
      "channel": 0,
      "note": 48,
      "start": 46.8251,
      "duration": 0.1198,
      "velocity": 97,
      "chip": "ym2612"
    },
    {
      "channel": 2,
      "note": 60,
      "start": 46.8257,
      "duration": 0.2206,
      "velocity": 127,
      "chip": "ym2612"
    },
    {
      "channel": 5,
      "note": 21,
      "start": 46.8264,
      "duration": 0.3391,
      "velocity": 84,
      "chip": "ym2612"
    },
    {
      "channel": 0,
      "note": 48,
      "start": 46.9451,
      "duration": 0.1006,
      "velocity": 97,
      "chip": "ym2612"
    },
    {
      "channel": 1,
      "note": 58,
      "start": 46.9457,
      "duration": 0.217,
      "velocity": 110,
      "chip": "ym2612"
    },
    {
      "channel": 0,
      "note": 48,
      "start": 47.0459,
      "duration": 0.1163,
      "velocity": 97,
      "chip": "ym2612"
    },
    {
      "channel": 2,
      "note": 60,
      "start": 47.0465,
      "duration": 0.1168,
      "velocity": 127,
      "chip": "ym2612"
    },
    {
      "channel": 0,
      "note": 48,
      "start": 47.1623,
      "duration": 0.1198,
      "velocity": 97,
      "chip": "ym2612"
    },
    {
      "channel": 1,
      "note": 59,
      "start": 47.1629,
      "duration": 0.2257,
      "velocity": 110,
      "chip": "ym2612"
    },
    {
      "channel": 2,
      "note": 72,
      "start": 47.1634,
      "duration": 0.1194,
      "velocity": 127,
      "chip": "ym2612"
    },
    {
      "channel": 5,
      "note": 21,
      "start": 47.1657,
      "duration": 13.4665,
      "velocity": 84,
      "chip": "ym2612"
    },
    {
      "channel": 0,
      "note": 48,
      "start": 47.2823,
      "duration": 0.1058,
      "velocity": 97,
      "chip": "ym2612"
    },
    {
      "channel": 2,
      "note": 60,
      "start": 47.2829,
      "duration": 0.216,
      "velocity": 127,
      "chip": "ym2612"
    },
    {
      "channel": 0,
      "note": 48,
      "start": 47.3883,
      "duration": 0.1101,
      "velocity": 97,
      "chip": "ym2612"
    },
    {
      "channel": 1,
      "note": 60,
      "start": 47.3888,
      "duration": 0.3501,
      "velocity": 110,
      "chip": "ym2612"
    },
    {
      "channel": 0,
      "note": 48,
      "start": 47.4985,
      "duration": 0.1198,
      "velocity": 97,
      "chip": "ym2612"
    },
    {
      "channel": 2,
      "note": 60,
      "start": 47.4992,
      "duration": 0.1198,
      "velocity": 127,
      "chip": "ym2612"
    },
    {
      "channel": 0,
      "note": 48,
      "start": 47.6185,
      "duration": 0.1199,
      "velocity": 97,
      "chip": "ym2612"
    },
    {
      "channel": 2,
      "note": 72,
      "start": 47.6191,
      "duration": 0.1203,
      "velocity": 127,
      "chip": "ym2612"
    },
    {
      "channel": 0,
      "note": 48,
      "start": 47.7385,
      "duration": 0.1198,
      "velocity": 97,
      "chip": "ym2612"
    },
    {
      "channel": 1,
      "note": 68,
      "start": 47.739,
      "duration": 0.3599,
      "velocity": 110,
      "chip": "ym2612"
    },
    {
      "channel": 2,
      "note": 60,
      "start": 47.7396,
      "duration": 0.2393,
      "velocity": 127,
      "chip": "ym2612"
    },
    {
      "channel": 0,
      "note": 48,
      "start": 47.8585,
      "duration": 0.1198,
      "velocity": 97,
      "chip": "ym2612"
    },
    {
      "channel": 0,
      "note": 48,
      "start": 47.9785,
      "duration": 0.1199,
      "velocity": 97,
      "chip": "ym2612"
    },
    {
      "channel": 2,
      "note": 60,
      "start": 47.9791,
      "duration": 0.1203,
      "velocity": 127,
      "chip": "ym2612"
    },
    {
      "channel": 0,
      "note": 48,
      "start": 48.0985,
      "duration": 0.1198,
      "velocity": 97,
      "chip": "ym2612"
    },
    {
      "channel": 1,
      "note": 66,
      "start": 48.099,
      "duration": 0.3599,
      "velocity": 110,
      "chip": "ym2612"
    },
    {
      "channel": 2,
      "note": 72,
      "start": 48.0996,
      "duration": 0.1194,
      "velocity": 127,
      "chip": "ym2612"
    },
    {
      "channel": 0,
      "note": 48,
      "start": 48.2185,
      "duration": 0.1198,
      "velocity": 97,
      "chip": "ym2612"
    },
    {
      "channel": 2,
      "note": 60,
      "start": 48.2191,
      "duration": 0.2403,
      "velocity": 127,
      "chip": "ym2612"
    },
    {
      "channel": 0,
      "note": 48,
      "start": 48.3385,
      "duration": 0.1199,
      "velocity": 97,
      "chip": "ym2612"
    },
    {
      "channel": 0,
      "note": 48,
      "start": 48.4585,
      "duration": 0.1198,
      "velocity": 97,
      "chip": "ym2612"
    },
    {
      "channel": 1,
      "note": 58,
      "start": 48.459,
      "duration": 0.3598,
      "velocity": 110,
      "chip": "ym2612"
    },
    {
      "channel": 2,
      "note": 60,
      "start": 48.4596,
      "duration": 0.1194,
      "velocity": 127,
      "chip": "ym2612"
    },
    {
      "channel": 0,
      "note": 48,
      "start": 48.5785,
      "duration": 0.1198,
      "velocity": 97,
      "chip": "ym2612"
    },
    {
      "channel": 2,
      "note": 72,
      "start": 48.5791,
      "duration": 0.1198,
      "velocity": 127,
      "chip": "ym2612"
    },
    {
      "channel": 0,
      "note": 48,
      "start": 48.6985,
      "duration": 0.1199,
      "velocity": 97,
      "chip": "ym2612"
    },
    {
      "channel": 2,
      "note": 60,
      "start": 48.6991,
      "duration": 0.2399,
      "velocity": 127,
      "chip": "ym2612"
    },
    {
      "channel": 0,
      "note": 48,
      "start": 48.8185,
      "duration": 0.1199,
      "velocity": 97,
      "chip": "ym2612"
    },
    {
      "channel": 1,
      "note": 60,
      "start": 48.819,
      "duration": 0.2399,
      "velocity": 110,
      "chip": "ym2612"
    },
    {
      "channel": 0,
      "note": 48,
      "start": 48.9385,
      "duration": 0.1198,
      "velocity": 97,
      "chip": "ym2612"
    },
    {
      "channel": 2,
      "note": 60,
      "start": 48.9391,
      "duration": 0.1203,
      "velocity": 127,
      "chip": "ym2612"
    },
    {
      "channel": 0,
      "note": 48,
      "start": 49.0585,
      "duration": 0.1199,
      "velocity": 97,
      "chip": "ym2612"
    },
    {
      "channel": 1,
      "note": 61,
      "start": 49.059,
      "duration": 0.2431,
      "velocity": 114,
      "chip": "ym2612"
    },
    {
      "channel": 2,
      "note": 72,
      "start": 49.0596,
      "duration": 0.1194,
      "velocity": 127,
      "chip": "ym2612"
    },
    {
      "channel": 0,
      "note": 48,
      "start": 49.1786,
      "duration": 0.1215,
      "velocity": 116,
      "chip": "ym2612"
    },
    {
      "channel": 2,
      "note": 60,
      "start": 49.1792,
      "duration": 0.2015,
      "velocity": 114,
      "chip": "ym2612"
    },
    {
      "channel": 0,
      "note": 77,
      "start": 49.3002,
      "duration": 0.0781,
      "velocity": 116,
      "chip": "ym2612"
    },
    {
      "channel": 1,
      "note": 77,
      "start": 49.3024,
      "duration": 0.079,
      "velocity": 114,
      "chip": "ym2612"
    },
    {
      "channel": 0,
      "note": 79,
      "start": 49.3785,
      "duration": 0.0799,
      "velocity": 116,
      "chip": "ym2612"
    },
    {
      "channel": 2,
      "note": 79,
      "start": 49.3808,
      "duration": 0.079,
      "velocity": 114,
      "chip": "ym2612"
    },
    {
      "channel": 1,
      "note": 76,
      "start": 49.3813,
      "duration": 0.0167,
      "velocity": 114,
      "chip": "ym2612"
    },
    {
      "channel": 1,
      "note": 76,
      "start": 49.398,
      "duration": 0.0206,
      "velocity": 114,
      "chip": "ym2612"
    },
    {
      "channel": 1,
      "note": 75,
      "start": 49.4187,
      "duration": 0.0194,
      "velocity": 114,
      "chip": "ym2612"
    },
    {
      "channel": 1,
      "note": 74,
      "start": 49.438,
      "duration": 0.0208,
      "velocity": 114,
      "chip": "ym2612"
    },
    {
      "channel": 0,
      "note": 77,
      "start": 49.4585,
      "duration": 0.0799,
      "velocity": 116,
      "chip": "ym2612"
    },
    {
      "channel": 1,
      "note": 77,
      "start": 49.459,
      "duration": 0.0807,
      "velocity": 114,
      "chip": "ym2612"
    },
    {
      "channel": 2,
      "note": 78,
      "start": 49.4598,
      "duration": 0.0182,
      "velocity": 114,
      "chip": "ym2612"
    },
    {
      "channel": 2,
      "note": 78,
      "start": 49.478,
      "duration": 0.0206,
      "velocity": 114,
      "chip": "ym2612"
    },
    {
      "channel": 2,
      "note": 77,
      "start": 49.4987,
      "duration": 0.0194,
      "velocity": 114,
      "chip": "ym2612"
    },
    {
      "channel": 2,
      "note": 76,
      "start": 49.518,
      "duration": 0.021,
      "velocity": 114,
      "chip": "ym2612"
    },
    {
      "channel": 0,
      "note": 76,
      "start": 49.5385,
      "duration": 0.0798,
      "velocity": 116,
      "chip": "ym2612"
    },
    {
      "channel": 2,
      "note": 76,
      "start": 49.5392,
      "duration": 0.0806,
      "velocity": 114,
      "chip": "ym2612"
    },
    {
      "channel": 1,
      "note": 76,
      "start": 49.5398,
      "duration": 0.0183,
      "velocity": 114,
      "chip": "ym2612"
    },
    {
      "channel": 1,
      "note": 76,
      "start": 49.558,
      "duration": 0.0206,
      "velocity": 114,
      "chip": "ym2612"
    },
    {
      "channel": 1,
      "note": 75,
      "start": 49.5787,
      "duration": 0.0193,
      "velocity": 114,
      "chip": "ym2612"
    },
    {
      "channel": 1,
      "note": 74,
      "start": 49.598,
      "duration": 0.0209,
      "velocity": 114,
      "chip": "ym2612"
    },
    {
      "channel": 0,
      "note": 72,
      "start": 49.6185,
      "duration": 0.0799,
      "velocity": 116,
      "chip": "ym2612"
    },
    {
      "channel": 1,
      "note": 72,
      "start": 49.619,
      "duration": 0.0807,
      "velocity": 114,
      "chip": "ym2612"
    },
    {
      "channel": 2,
      "note": 75,
      "start": 49.6198,
      "duration": 0.0182,
      "velocity": 114,
      "chip": "ym2612"
    },
    {
      "channel": 2,
      "note": 75,
      "start": 49.638,
      "duration": 0.0206,
      "velocity": 114,
      "chip": "ym2612"
    },
    {
      "channel": 2,
      "note": 74,
      "start": 49.6587,
      "duration": 0.0194,
      "velocity": 114,
      "chip": "ym2612"
    },
    {
      "channel": 2,
      "note": 73,
      "start": 49.678,
      "duration": 0.021,
      "velocity": 114,
      "chip": "ym2612"
    },
    {
      "channel": 0,
      "note": 74,
      "start": 49.6985,
      "duration": 0.0798,
      "velocity": 116,
      "chip": "ym2612"
    },
    {
      "channel": 2,
      "note": 74,
      "start": 49.6992,
      "duration": 0.0805,
      "velocity": 114,
      "chip": "ym2612"
    },
    {
      "channel": 1,
      "note": 71,
      "start": 49.6998,
      "duration": 0.0183,
      "velocity": 114,
      "chip": "ym2612"
    },
    {
      "channel": 1,
      "note": 70,
      "start": 49.718,
      "duration": 0.0206,
      "velocity": 114,
      "chip": "ym2612"
    },
    {
      "channel": 1,
      "note": 69,
      "start": 49.7387,
      "duration": 0.0194,
      "velocity": 114,
      "chip": "ym2612"
    },
    {
      "channel": 1,
      "note": 68,
      "start": 49.758,
      "duration": 0.0208,
      "velocity": 114,
      "chip": "ym2612"
    },
    {
      "channel": 0,
      "note": 75,
      "start": 49.7785,
      "duration": 0.0799,
      "velocity": 116,
      "chip": "ym2612"
    },
    {
      "channel": 1,
      "note": 75,
      "start": 49.779,
      "duration": 0.0807,
      "velocity": 114,
      "chip": "ym2612"
    },
    {
      "channel": 2,
      "note": 73,
      "start": 49.7798,
      "duration": 0.0183,
      "velocity": 114,
      "chip": "ym2612"
    },
    {
      "channel": 2,
      "note": 72,
      "start": 49.798,
      "duration": 0.0207,
      "velocity": 114,
      "chip": "ym2612"
    },
    {
      "channel": 2,
      "note": 71,
      "start": 49.8187,
      "duration": 0.0193,
      "velocity": 114,
      "chip": "ym2612"
    },
    {
      "channel": 2,
      "note": 70,
      "start": 49.838,
      "duration": 0.021,
      "velocity": 114,
      "chip": "ym2612"
    },
    {
      "channel": 0,
      "note": 77,
      "start": 49.8585,
      "duration": 0.0798,
      "velocity": 116,
      "chip": "ym2612"
    },
    {
      "channel": 2,
      "note": 77,
      "start": 49.8592,
      "duration": 0.0805,
      "velocity": 114,
      "chip": "ym2612"
    },
    {
      "channel": 1,
      "note": 74,
      "start": 49.8598,
      "duration": 0.0183,
      "velocity": 114,
      "chip": "ym2612"
    },
    {
      "channel": 1,
      "note": 73,
      "start": 49.878,
      "duration": 0.0206,
      "velocity": 114,
      "chip": "ym2612"
    },
    {
      "channel": 1,
      "note": 73,
      "start": 49.8987,
      "duration": 0.0194,
      "velocity": 114,
      "chip": "ym2612"
    },
    {
      "channel": 1,
      "note": 72,
      "start": 49.918,
      "duration": 0.0208,
      "velocity": 114,
      "chip": "ym2612"
    },
    {
      "channel": 0,
      "note": 75,
      "start": 49.9385,
      "duration": 0.0799,
      "velocity": 116,
      "chip": "ym2612"
    },
    {
      "channel": 1,
      "note": 75,
      "start": 49.939,
      "duration": 0.0807,
      "velocity": 114,
      "chip": "ym2612"
    },
    {
      "channel": 2,
      "note": 76,
      "start": 49.9398,
      "duration": 0.0183,
      "velocity": 114,
      "chip": "ym2612"
    },
    {
      "channel": 2,
      "note": 76,
      "start": 49.958,
      "duration": 0.0207,
      "velocity": 114,
      "chip": "ym2612"
    },
    {
      "channel": 2,
      "note": 75,
      "start": 49.9787,
      "duration": 0.0193,
      "velocity": 114,
      "chip": "ym2612"
    },
    {
      "channel": 2,
      "note": 74,
      "start": 49.998,
      "duration": 0.021,
      "velocity": 114,
      "chip": "ym2612"
    },
    {
      "channel": 0,
      "note": 74,
      "start": 50.0185,
      "duration": 0.0798,
      "velocity": 116,
      "chip": "ym2612"
    },
    {
      "channel": 2,
      "note": 74,
      "start": 50.0192,
      "duration": 0.0806,
      "velocity": 114,
      "chip": "ym2612"
    },
    {
      "channel": 1,
      "note": 74,
      "start": 50.0198,
      "duration": 0.0183,
      "velocity": 114,
      "chip": "ym2612"
    },
    {
      "channel": 1,
      "note": 73,
      "start": 50.038,
      "duration": 0.0206,
      "velocity": 114,
      "chip": "ym2612"
    },
    {
      "channel": 1,
      "note": 73,
      "start": 50.0587,
      "duration": 0.0194,
      "velocity": 114,
      "chip": "ym2612"
    },
    {
      "channel": 1,
      "note": 72,
      "start": 50.078,
      "duration": 0.0209,
      "velocity": 114,
      "chip": "ym2612"
    },
    {
      "channel": 0,
      "note": 72,
      "start": 50.0985,
      "duration": 0.0798,
      "velocity": 116,
      "chip": "ym2612"
    },
    {
      "channel": 1,
      "note": 72,
      "start": 50.099,
      "duration": 0.0807,
      "velocity": 114,
      "chip": "ym2612"
    },
    {
      "channel": 2,
      "note": 73,
      "start": 50.0998,
      "duration": 0.0182,
      "velocity": 114,
      "chip": "ym2612"
    },
    {
      "channel": 2,
      "note": 72,
      "start": 50.118,
      "duration": 0.0207,
      "velocity": 114,
      "chip": "ym2612"
    },
    {
      "channel": 2,
      "note": 71,
      "start": 50.1387,
      "duration": 0.0193,
      "velocity": 114,
      "chip": "ym2612"
    },
    {
      "channel": 2,
      "note": 70,
      "start": 50.158,
      "duration": 0.021,
      "velocity": 114,
      "chip": "ym2612"
    },
    {
      "channel": 0,
      "note": 70,
      "start": 50.1785,
      "duration": 0.0798,
      "velocity": 116,
      "chip": "ym2612"
    },
    {
      "channel": 2,
      "note": 70,
      "start": 50.1792,
      "duration": 0.4003,
      "velocity": 114,
      "chip": "ym2612"
    },
    {
      "channel": 1,
      "note": 71,
      "start": 50.1798,
      "duration": 0.0183,
      "velocity": 114,
      "chip": "ym2612"
    },
    {
      "channel": 1,
      "note": 70,
      "start": 50.198,
      "duration": 0.0206,
      "velocity": 114,
      "chip": "ym2612"
    },
    {
      "channel": 1,
      "note": 69,
      "start": 50.2187,
      "duration": 0.0194,
      "velocity": 114,
      "chip": "ym2612"
    },
    {
      "channel": 1,
      "note": 68,
      "start": 50.238,
      "duration": 0.0208,
      "velocity": 114,
      "chip": "ym2612"
    },
    {
      "channel": 0,
      "note": 72,
      "start": 50.2585,
      "duration": 0.32,
      "velocity": 116,
      "chip": "ym2612"
    },
    {
      "channel": 1,
      "note": 72,
      "start": 50.259,
      "duration": 0.1196,
      "velocity": 114,
      "chip": "ym2612"
    },
    {
      "channel": 1,
      "note": 72,
      "start": 50.3787,
      "duration": 0.0194,
      "velocity": 114,
      "chip": "ym2612"
    },
    {
      "channel": 1,
      "note": 72,
      "start": 50.398,
      "duration": 0.0206,
      "velocity": 114,
      "chip": "ym2612"
    },
    {
      "channel": 1,
      "note": 71,
      "start": 50.4186,
      "duration": 0.0194,
      "velocity": 114,
      "chip": "ym2612"
    },
    {
      "channel": 1,
      "note": 71,
      "start": 50.438,
      "duration": 0.0206,
      "velocity": 114,
      "chip": "ym2612"
    },
    {
      "channel": 1,
      "note": 71,
      "start": 50.4586,
      "duration": 0.0194,
      "velocity": 114,
      "chip": "ym2612"
    },
    {
      "channel": 1,
      "note": 71,
      "start": 50.478,
      "duration": 0.0206,
      "velocity": 114,
      "chip": "ym2612"
    },
    {
      "channel": 1,
      "note": 71,
      "start": 50.4986,
      "duration": 0.0194,
      "velocity": 114,
      "chip": "ym2612"
    },
    {
      "channel": 1,
      "note": 71,
      "start": 50.518,
      "duration": 0.0206,
      "velocity": 114,
      "chip": "ym2612"
    },
    {
      "channel": 1,
      "note": 70,
      "start": 50.5386,
      "duration": 0.0194,
      "velocity": 114,
      "chip": "ym2612"
    },
    {
      "channel": 1,
      "note": 70,
      "start": 50.558,
      "duration": 0.021,
      "velocity": 114,
      "chip": "ym2612"
    },
    {
      "channel": 0,
      "note": 53,
      "start": 50.5786,
      "duration": 1.4013,
      "velocity": 97,
      "chip": "ym2612"
    },
    {
      "channel": 1,
      "note": 29,
      "start": 50.5791,
      "duration": 0.4408,
      "velocity": 127,
      "chip": "ym2612"
    },
    {
      "channel": 2,
      "note": 41,
      "start": 50.5797,
      "duration": 2.3608,
      "velocity": 127,
      "chip": "ym2612"
    },
    {
      "channel": 1,
      "note": 65,
      "start": 51.0201,
      "duration": 0.1182,
      "velocity": 127,
      "chip": "ym2612"
    },
    {
      "channel": 1,
      "note": 77,
      "start": 51.1385,
      "duration": 0.1199,
      "velocity": 127,
      "chip": "ym2612"
    },
    {
      "channel": 1,
      "note": 65,
      "start": 51.2585,
      "duration": 0.2398,
      "velocity": 127,
      "chip": "ym2612"
    },
    {
      "channel": 1,
      "note": 65,
      "start": 51.4985,
      "duration": 0.1199,
      "velocity": 127,
      "chip": "ym2612"
    },
    {
      "channel": 1,
      "note": 77,
      "start": 51.6185,
      "duration": 0.1199,
      "velocity": 127,
      "chip": "ym2612"
    },
    {
      "channel": 1,
      "note": 65,
      "start": 51.7385,
      "duration": 0.2419,
      "velocity": 127,
      "chip": "ym2612"
    },
    {
      "channel": 0,
      "note": 41,
      "start": 51.9801,
      "duration": 0.1182,
      "velocity": 97,
      "chip": "ym2612"
    },
    {
      "channel": 1,
      "note": 65,
      "start": 51.9806,
      "duration": 0.1182,
      "velocity": 127,
      "chip": "ym2612"
    },
    {
      "channel": 0,
      "note": 41,
      "start": 52.0985,
      "duration": 0.1198,
      "velocity": 97,
      "chip": "ym2612"
    },
    {
      "channel": 1,
      "note": 77,
      "start": 52.099,
      "duration": 0.1198,
      "velocity": 127,
      "chip": "ym2612"
    },
    {
      "channel": 0,
      "note": 41,
      "start": 52.2185,
      "duration": 0.1198,
      "velocity": 97,
      "chip": "ym2612"
    },
    {
      "channel": 1,
      "note": 65,
      "start": 52.219,
      "duration": 0.2398,
      "velocity": 127,
      "chip": "ym2612"
    },
    {
      "channel": 0,
      "note": 41,
      "start": 52.3385,
      "duration": 0.1198,
      "velocity": 97,
      "chip": "ym2612"
    },
    {
      "channel": 0,
      "note": 41,
      "start": 52.4585,
      "duration": 0.1198,
      "velocity": 97,
      "chip": "ym2612"
    },
    {
      "channel": 1,
      "note": 65,
      "start": 52.459,
      "duration": 0.1198,
      "velocity": 127,
      "chip": "ym2612"
    },
    {
      "channel": 0,
      "note": 41,
      "start": 52.5785,
      "duration": 0.12,
      "velocity": 97,
      "chip": "ym2612"
    },
    {
      "channel": 1,
      "note": 77,
      "start": 52.579,
      "duration": 0.1199,
      "velocity": 127,
      "chip": "ym2612"
    },
    {
      "channel": 0,
      "note": 41,
      "start": 52.6985,
      "duration": 0.12,
      "velocity": 97,
      "chip": "ym2612"
    },
    {
      "channel": 1,
      "note": 65,
      "start": 52.6991,
      "duration": 0.1215,
      "velocity": 100,
      "chip": "ym2612"
    },
    {
      "channel": 0,
      "note": 41,
      "start": 52.8187,
      "duration": 0.1196,
      "velocity": 97,
      "chip": "ym2612"
    },
    {
      "channel": 1,
      "note": 65,
      "start": 52.8208,
      "duration": 0.2381,
      "velocity": 100,
      "chip": "ym2612"
    },
    {
      "channel": 0,
      "note": 41,
      "start": 52.9385,
      "duration": 0.1199,
      "velocity": 97,
      "chip": "ym2612"
    },
    {
      "channel": 2,
      "note": 65,
      "start": 52.9407,
      "duration": 0.1187,
      "velocity": 127,
      "chip": "ym2612"
    },
    {
      "channel": 0,
      "note": 41,
      "start": 53.0585,
      "duration": 0.1198,
      "velocity": 97,
      "chip": "ym2612"
    },
    {
      "channel": 1,
      "note": 72,
      "start": 53.059,
      "duration": 0.2398,
      "velocity": 100,
      "chip": "ym2612"
    },
    {
      "channel": 2,
      "note": 77,
      "start": 53.0596,
      "duration": 0.1193,
      "velocity": 127,
      "chip": "ym2612"
    },
    {
      "channel": 0,
      "note": 41,
      "start": 53.1785,
      "duration": 0.1198,
      "velocity": 97,
      "chip": "ym2612"
    },
    {
      "channel": 2,
      "note": 65,
      "start": 53.1791,
      "duration": 0.2398,
      "velocity": 127,
      "chip": "ym2612"
    },
    {
      "channel": 0,
      "note": 41,
      "start": 53.2985,
      "duration": 0.1199,
      "velocity": 97,
      "chip": "ym2612"
    },
    {
      "channel": 1,
      "note": 65,
      "start": 53.299,
      "duration": 0.2399,
      "velocity": 100,
      "chip": "ym2612"
    },
    {
      "channel": 0,
      "note": 41,
      "start": 53.4185,
      "duration": 0.1199,
      "velocity": 97,
      "chip": "ym2612"
    },
    {
      "channel": 2,
      "note": 65,
      "start": 53.4191,
      "duration": 0.1203,
      "velocity": 127,
      "chip": "ym2612"
    },
    {
      "channel": 0,
      "note": 41,
      "start": 53.5385,
      "duration": 0.1198,
      "velocity": 97,
      "chip": "ym2612"
    },
    {
      "channel": 1,
      "note": 77,
      "start": 53.539,
      "duration": 0.1199,
      "velocity": 100,
      "chip": "ym2612"
    },
    {
      "channel": 2,
      "note": 77,
      "start": 53.5396,
      "duration": 0.1198,
      "velocity": 127,
      "chip": "ym2612"
    },
    {
      "channel": 0,
      "note": 41,
      "start": 53.6585,
      "duration": 0.1198,
      "velocity": 97,
      "chip": "ym2612"
    },
    {
      "channel": 1,
      "note": 65,
      "start": 53.659,
      "duration": 0.2398,
      "velocity": 100,
      "chip": "ym2612"
    },
    {
      "channel": 2,
      "note": 65,
      "start": 53.6596,
      "duration": 0.2398,
      "velocity": 127,
      "chip": "ym2612"
    },
    {
      "channel": 0,
      "note": 41,
      "start": 53.7785,
      "duration": 0.1198,
      "velocity": 97,
      "chip": "ym2612"
    },
    {
      "channel": 0,
      "note": 41,
      "start": 53.8985,
      "duration": 0.1199,
      "velocity": 97,
      "chip": "ym2612"
    },
    {
      "channel": 1,
      "note": 72,
      "start": 53.899,
      "duration": 0.1198,
      "velocity": 100,
      "chip": "ym2612"
    },
    {
      "channel": 2,
      "note": 65,
      "start": 53.8996,
      "duration": 0.1198,
      "velocity": 127,
      "chip": "ym2612"
    },
    {
      "channel": 0,
      "note": 41,
      "start": 54.0185,
      "duration": 0.1199,
      "velocity": 97,
      "chip": "ym2612"
    },
    {
      "channel": 1,
      "note": 65,
      "start": 54.019,
      "duration": 0.2399,
      "velocity": 100,
      "chip": "ym2612"
    },
    {
      "channel": 2,
      "note": 77,
      "start": 54.0196,
      "duration": 0.1194,
      "velocity": 127,
      "chip": "ym2612"
    },
    {
      "channel": 0,
      "note": 41,
      "start": 54.1385,
      "duration": 0.1198,
      "velocity": 97,
      "chip": "ym2612"
    },
    {
      "channel": 2,
      "note": 65,
      "start": 54.1391,
      "duration": 0.2398,
      "velocity": 127,
      "chip": "ym2612"
    },
    {
      "channel": 0,
      "note": 41,
      "start": 54.2585,
      "duration": 0.1198,
      "velocity": 97,
      "chip": "ym2612"
    },
    {
      "channel": 1,
      "note": 77,
      "start": 54.259,
      "duration": 0.2398,
      "velocity": 100,
      "chip": "ym2612"
    },
    {
      "channel": 0,
      "note": 41,
      "start": 54.3785,
      "duration": 0.1198,
      "velocity": 97,
      "chip": "ym2612"
    },
    {
      "channel": 2,
      "note": 65,
      "start": 54.3791,
      "duration": 0.1203,
      "velocity": 127,
      "chip": "ym2612"
    },
    {
      "channel": 0,
      "note": 41,
      "start": 54.4985,
      "duration": 0.1199,
      "velocity": 97,
      "chip": "ym2612"
    },
    {
      "channel": 1,
      "note": 75,
      "start": 54.499,
      "duration": 0.2399,
      "velocity": 100,
      "chip": "ym2612"
    },
    {
      "channel": 2,
      "note": 77,
      "start": 54.4996,
      "duration": 0.1194,
      "velocity": 127,
      "chip": "ym2612"
    },
    {
      "channel": 0,
      "note": 41,
      "start": 54.6185,
      "duration": 0.1198,
      "velocity": 97,
      "chip": "ym2612"
    },
    {
      "channel": 2,
      "note": 65,
      "start": 54.6191,
      "duration": 0.2399,
      "velocity": 127,
      "chip": "ym2612"
    },
    {
      "channel": 0,
      "note": 41,
      "start": 54.7385,
      "duration": 0.1198,
      "velocity": 97,
      "chip": "ym2612"
    },
    {
      "channel": 1,
      "note": 65,
      "start": 54.739,
      "duration": 0.2398,
      "velocity": 100,
      "chip": "ym2612"
    },
    {
      "channel": 0,
      "note": 41,
      "start": 54.8585,
      "duration": 0.1198,
      "velocity": 97,
      "chip": "ym2612"
    },
    {
      "channel": 2,
      "note": 65,
      "start": 54.8591,
      "duration": 0.1203,
      "velocity": 127,
      "chip": "ym2612"
    },
    {
      "channel": 0,
      "note": 41,
      "start": 54.9785,
      "duration": 0.1199,
      "velocity": 97,
      "chip": "ym2612"
    },
    {
      "channel": 1,
      "note": 72,
      "start": 54.979,
      "duration": 0.2399,
      "velocity": 100,
      "chip": "ym2612"
    },
    {
      "channel": 2,
      "note": 77,
      "start": 54.9796,
      "duration": 0.1193,
      "velocity": 127,
      "chip": "ym2612"
    },
    {
      "channel": 0,
      "note": 41,
      "start": 55.0985,
      "duration": 0.1199,
      "velocity": 97,
      "chip": "ym2612"
    },
    {
      "channel": 2,
      "note": 65,
      "start": 55.0991,
      "duration": 0.2398,
      "velocity": 127,
      "chip": "ym2612"
    },
    {
      "channel": 0,
      "note": 41,
      "start": 55.2185,
      "duration": 0.1198,
      "velocity": 97,
      "chip": "ym2612"
    },
    {
      "channel": 1,
      "note": 65,
      "start": 55.219,
      "duration": 0.2398,
      "velocity": 100,
      "chip": "ym2612"
    },
    {
      "channel": 0,
      "note": 41,
      "start": 55.3385,
      "duration": 0.1198,
      "velocity": 97,
      "chip": "ym2612"
    },
    {
      "channel": 2,
      "note": 65,
      "start": 55.3391,
      "duration": 0.1203,
      "velocity": 127,
      "chip": "ym2612"
    },
    {
      "channel": 0,
      "note": 41,
      "start": 55.4585,
      "duration": 0.1199,
      "velocity": 97,
      "chip": "ym2612"
    },
    {
      "channel": 1,
      "note": 77,
      "start": 55.459,
      "duration": 0.1199,
      "velocity": 100,
      "chip": "ym2612"
    },
    {
      "channel": 2,
      "note": 77,
      "start": 55.4596,
      "duration": 0.1198,
      "velocity": 127,
      "chip": "ym2612"
    },
    {
      "channel": 0,
      "note": 41,
      "start": 55.5785,
      "duration": 0.1198,
      "velocity": 97,
      "chip": "ym2612"
    },
    {
      "channel": 1,
      "note": 65,
      "start": 55.579,
      "duration": 0.2399,
      "velocity": 100,
      "chip": "ym2612"
    },
    {
      "channel": 2,
      "note": 65,
      "start": 55.5796,
      "duration": 0.2398,
      "velocity": 127,
      "chip": "ym2612"
    },
    {
      "channel": 0,
      "note": 41,
      "start": 55.6985,
      "duration": 0.1198,
      "velocity": 97,
      "chip": "ym2612"
    },
    {
      "channel": 0,
      "note": 41,
      "start": 55.8185,
      "duration": 0.1198,
      "velocity": 97,
      "chip": "ym2612"
    },
    {
      "channel": 1,
      "note": 72,
      "start": 55.819,
      "duration": 0.1199,
      "velocity": 100,
      "chip": "ym2612"
    },
    {
      "channel": 2,
      "note": 65,
      "start": 55.8196,
      "duration": 0.1198,
      "velocity": 127,
      "chip": "ym2612"
    },
    {
      "channel": 0,
      "note": 41,
      "start": 55.9385,
      "duration": 0.1198,
      "velocity": 97,
      "chip": "ym2612"
    },
    {
      "channel": 1,
      "note": 65,
      "start": 55.939,
      "duration": 0.2399,
      "velocity": 100,
      "chip": "ym2612"
    },
    {
      "channel": 2,
      "note": 77,
      "start": 55.9396,
      "duration": 0.1193,
      "velocity": 127,
      "chip": "ym2612"
    },
    {
      "channel": 0,
      "note": 41,
      "start": 56.0585,
      "duration": 0.1199,
      "velocity": 97,
      "chip": "ym2612"
    },
    {
      "channel": 2,
      "note": 65,
      "start": 56.0591,
      "duration": 0.2398,
      "velocity": 127,
      "chip": "ym2612"
    },
    {
      "channel": 0,
      "note": 41,
      "start": 56.1785,
      "duration": 0.1198,
      "velocity": 97,
      "chip": "ym2612"
    },
    {
      "channel": 1,
      "note": 77,
      "start": 56.179,
      "duration": 0.2398,
      "velocity": 100,
      "chip": "ym2612"
    },
    {
      "channel": 0,
      "note": 41,
      "start": 56.2985,
      "duration": 0.1198,
      "velocity": 97,
      "chip": "ym2612"
    },
    {
      "channel": 2,
      "note": 65,
      "start": 56.2991,
      "duration": 0.1203,
      "velocity": 127,
      "chip": "ym2612"
    },
    {
      "channel": 0,
      "note": 41,
      "start": 56.4185,
      "duration": 0.1199,
      "velocity": 97,
      "chip": "ym2612"
    },
    {
      "channel": 1,
      "note": 75,
      "start": 56.419,
      "duration": 0.2399,
      "velocity": 100,
      "chip": "ym2612"
    },
    {
      "channel": 2,
      "note": 77,
      "start": 56.4196,
      "duration": 0.1193,
      "velocity": 127,
      "chip": "ym2612"
    },
    {
      "channel": 0,
      "note": 41,
      "start": 56.5385,
      "duration": 0.1199,
      "velocity": 97,
      "chip": "ym2612"
    },
    {
      "channel": 2,
      "note": 65,
      "start": 56.5391,
      "duration": 0.2398,
      "velocity": 127,
      "chip": "ym2612"
    },
    {
      "channel": 0,
      "note": 41,
      "start": 56.6585,
      "duration": 0.1198,
      "velocity": 97,
      "chip": "ym2612"
    },
    {
      "channel": 1,
      "note": 65,
      "start": 56.659,
      "duration": 0.2399,
      "velocity": 100,
      "chip": "ym2612"
    },
    {
      "channel": 0,
      "note": 41,
      "start": 56.7785,
      "duration": 0.1198,
      "velocity": 97,
      "chip": "ym2612"
    },
    {
      "channel": 2,
      "note": 65,
      "start": 56.7791,
      "duration": 0.1203,
      "velocity": 127,
      "chip": "ym2612"
    },
    {
      "channel": 0,
      "note": 41,
      "start": 56.8985,
      "duration": 0.1198,
      "velocity": 97,
      "chip": "ym2612"
    },
    {
      "channel": 1,
      "note": 72,
      "start": 56.899,
      "duration": 0.2399,
      "velocity": 100,
      "chip": "ym2612"
    },
    {
      "channel": 2,
      "note": 77,
      "start": 56.8996,
      "duration": 0.1193,
      "velocity": 127,
      "chip": "ym2612"
    },
    {
      "channel": 0,
      "note": 41,
      "start": 57.0185,
      "duration": 0.1199,
      "velocity": 97,
      "chip": "ym2612"
    },
    {
      "channel": 2,
      "note": 65,
      "start": 57.0191,
      "duration": 0.2398,
      "velocity": 127,
      "chip": "ym2612"
    },
    {
      "channel": 0,
      "note": 41,
      "start": 57.1385,
      "duration": 0.1198,
      "velocity": 97,
      "chip": "ym2612"
    },
    {
      "channel": 1,
      "note": 65,
      "start": 57.139,
      "duration": 0.2399,
      "velocity": 100,
      "chip": "ym2612"
    },
    {
      "channel": 0,
      "note": 41,
      "start": 57.2585,
      "duration": 0.1198,
      "velocity": 97,
      "chip": "ym2612"
    },
    {
      "channel": 2,
      "note": 65,
      "start": 57.2591,
      "duration": 0.1203,
      "velocity": 127,
      "chip": "ym2612"
    },
    {
      "channel": 0,
      "note": 41,
      "start": 57.3785,
      "duration": 0.1198,
      "velocity": 97,
      "chip": "ym2612"
    },
    {
      "channel": 1,
      "note": 77,
      "start": 57.379,
      "duration": 0.1198,
      "velocity": 100,
      "chip": "ym2612"
    },
    {
      "channel": 2,
      "note": 77,
      "start": 57.3796,
      "duration": 0.1198,
      "velocity": 127,
      "chip": "ym2612"
    },
    {
      "channel": 0,
      "note": 41,
      "start": 57.4985,
      "duration": 0.1199,
      "velocity": 97,
      "chip": "ym2612"
    },
    {
      "channel": 1,
      "note": 65,
      "start": 57.499,
      "duration": 0.2399,
      "velocity": 100,
      "chip": "ym2612"
    },
    {
      "channel": 2,
      "note": 65,
      "start": 57.4996,
      "duration": 0.2398,
      "velocity": 127,
      "chip": "ym2612"
    },
    {
      "channel": 0,
      "note": 41,
      "start": 57.6185,
      "duration": 0.1199,
      "velocity": 97,
      "chip": "ym2612"
    },
    {
      "channel": 0,
      "note": 41,
      "start": 57.7385,
      "duration": 0.1198,
      "velocity": 97,
      "chip": "ym2612"
    },
    {
      "channel": 1,
      "note": 72,
      "start": 57.739,
      "duration": 0.1199,
      "velocity": 100,
      "chip": "ym2612"
    },
    {
      "channel": 2,
      "note": 65,
      "start": 57.7396,
      "duration": 0.1198,
      "velocity": 127,
      "chip": "ym2612"
    },
    {
      "channel": 0,
      "note": 41,
      "start": 57.8585,
      "duration": 0.1198,
      "velocity": 97,
      "chip": "ym2612"
    },
    {
      "channel": 1,
      "note": 65,
      "start": 57.859,
      "duration": 0.2398,
      "velocity": 100,
      "chip": "ym2612"
    },
    {
      "channel": 2,
      "note": 77,
      "start": 57.8596,
      "duration": 0.1193,
      "velocity": 127,
      "chip": "ym2612"
    },
    {
      "channel": 0,
      "note": 41,
      "start": 57.9785,
      "duration": 0.1198,
      "velocity": 97,
      "chip": "ym2612"
    },
    {
      "channel": 2,
      "note": 65,
      "start": 57.9791,
      "duration": 0.2398,
      "velocity": 127,
      "chip": "ym2612"
    },
    {
      "channel": 0,
      "note": 41,
      "start": 58.0985,
      "duration": 0.1199,
      "velocity": 97,
      "chip": "ym2612"
    },
    {
      "channel": 1,
      "note": 77,
      "start": 58.099,
      "duration": 0.2399,
      "velocity": 100,
      "chip": "ym2612"
    },
    {
      "channel": 0,
      "note": 41,
      "start": 58.2185,
      "duration": 0.1199,
      "velocity": 97,
      "chip": "ym2612"
    },
    {
      "channel": 2,
      "note": 65,
      "start": 58.2191,
      "duration": 0.1203,
      "velocity": 127,
      "chip": "ym2612"
    },
    {
      "channel": 0,
      "note": 41,
      "start": 58.3385,
      "duration": 0.1198,
      "velocity": 97,
      "chip": "ym2612"
    },
    {
      "channel": 1,
      "note": 75,
      "start": 58.339,
      "duration": 0.2399,
      "velocity": 100,
      "chip": "ym2612"
    },
    {
      "channel": 2,
      "note": 77,
      "start": 58.3396,
      "duration": 0.1193,
      "velocity": 127,
      "chip": "ym2612"
    },
    {
      "channel": 0,
      "note": 41,
      "start": 58.4585,
      "duration": 0.1199,
      "velocity": 97,
      "chip": "ym2612"
    },
    {
      "channel": 2,
      "note": 65,
      "start": 58.4591,
      "duration": 0.2398,
      "velocity": 127,
      "chip": "ym2612"
    },
    {
      "channel": 0,
      "note": 41,
      "start": 58.5785,
      "duration": 0.1198,
      "velocity": 97,
      "chip": "ym2612"
    },
    {
      "channel": 1,
      "note": 65,
      "start": 58.579,
      "duration": 0.2399,
      "velocity": 100,
      "chip": "ym2612"
    },
    {
      "channel": 0,
      "note": 41,
      "start": 58.6985,
      "duration": 0.1198,
      "velocity": 97,
      "chip": "ym2612"
    },
    {
      "channel": 2,
      "note": 65,
      "start": 58.6991,
      "duration": 0.1203,
      "velocity": 127,
      "chip": "ym2612"
    },
    {
      "channel": 0,
      "note": 41,
      "start": 58.8185,
      "duration": 0.1198,
      "velocity": 97,
      "chip": "ym2612"
    },
    {
      "channel": 1,
      "note": 72,
      "start": 58.819,
      "duration": 0.2399,
      "velocity": 100,
      "chip": "ym2612"
    },
    {
      "channel": 2,
      "note": 77,
      "start": 58.8196,
      "duration": 0.1194,
      "velocity": 127,
      "chip": "ym2612"
    },
    {
      "channel": 0,
      "note": 41,
      "start": 58.9385,
      "duration": 0.1198,
      "velocity": 97,
      "chip": "ym2612"
    },
    {
      "channel": 2,
      "note": 65,
      "start": 58.9391,
      "duration": 0.2398,
      "velocity": 127,
      "chip": "ym2612"
    },
    {
      "channel": 0,
      "note": 41,
      "start": 59.0585,
      "duration": 0.1198,
      "velocity": 97,
      "chip": "ym2612"
    },
    {
      "channel": 1,
      "note": 65,
      "start": 59.059,
      "duration": 0.2398,
      "velocity": 100,
      "chip": "ym2612"
    },
    {
      "channel": 0,
      "note": 41,
      "start": 59.1785,
      "duration": 0.1198,
      "velocity": 97,
      "chip": "ym2612"
    },
    {
      "channel": 2,
      "note": 65,
      "start": 59.1791,
      "duration": 0.1203,
      "velocity": 127,
      "chip": "ym2612"
    },
    {
      "channel": 0,
      "note": 41,
      "start": 59.2985,
      "duration": 0.1199,
      "velocity": 97,
      "chip": "ym2612"
    },
    {
      "channel": 1,
      "note": 77,
      "start": 59.299,
      "duration": 0.1199,
      "velocity": 100,
      "chip": "ym2612"
    },
    {
      "channel": 2,
      "note": 77,
      "start": 59.2996,
      "duration": 0.1198,
      "velocity": 127,
      "chip": "ym2612"
    },
    {
      "channel": 0,
      "note": 41,
      "start": 59.4185,
      "duration": 0.1198,
      "velocity": 97,
      "chip": "ym2612"
    },
    {
      "channel": 1,
      "note": 65,
      "start": 59.419,
      "duration": 0.2258,
      "velocity": 100,
      "chip": "ym2612"
    },
    {
      "channel": 2,
      "note": 65,
      "start": 59.4196,
      "duration": 0.2258,
      "velocity": 127,
      "chip": "ym2612"
    },
    {
      "channel": 0,
      "note": 41,
      "start": 59.5385,
      "duration": 0.1057,
      "velocity": 97,
      "chip": "ym2612"
    },
    {
      "channel": 0,
      "note": 41,
      "start": 59.6444,
      "duration": 0.1026,
      "velocity": 97,
      "chip": "ym2612"
    },
    {
      "channel": 1,
      "note": 72,
      "start": 59.645,
      "duration": 0.1025,
      "velocity": 100,
      "chip": "ym2612"
    },
    {
      "channel": 2,
      "note": 65,
      "start": 59.6455,
      "duration": 0.1026,
      "velocity": 127,
      "chip": "ym2612"
    },
    {
      "channel": 0,
      "note": 41,
      "start": 59.7471,
      "duration": 0.1112,
      "velocity": 97,
      "chip": "ym2612"
    },
    {
      "channel": 1,
      "note": 65,
      "start": 59.7477,
      "duration": 0.2169,
      "velocity": 100,
      "chip": "ym2612"
    },
    {
      "channel": 2,
      "note": 77,
      "start": 59.7482,
      "duration": 0.1107,
      "velocity": 127,
      "chip": "ym2612"
    },
    {
      "channel": 0,
      "note": 41,
      "start": 59.8585,
      "duration": 0.1056,
      "velocity": 97,
      "chip": "ym2612"
    },
    {
      "channel": 2,
      "note": 65,
      "start": 59.8591,
      "duration": 0.2114,
      "velocity": 127,
      "chip": "ym2612"
    },
    {
      "channel": 0,
      "note": 41,
      "start": 59.9643,
      "duration": 0.1056,
      "velocity": 97,
      "chip": "ym2612"
    },
    {
      "channel": 1,
      "note": 77,
      "start": 59.9649,
      "duration": 0.2193,
      "velocity": 100,
      "chip": "ym2612"
    },
    {
      "channel": 0,
      "note": 41,
      "start": 60.0701,
      "duration": 0.1136,
      "velocity": 97,
      "chip": "ym2612"
    },
    {
      "channel": 2,
      "note": 65,
      "start": 60.0707,
      "duration": 0.1141,
      "velocity": 127,
      "chip": "ym2612"
    },
    {
      "channel": 0,
      "note": 41,
      "start": 60.1838,
      "duration": 0.1069,
      "velocity": 97,
      "chip": "ym2612"
    },
    {
      "channel": 1,
      "note": 75,
      "start": 60.1844,
      "duration": 0.2153,
      "velocity": 100,
      "chip": "ym2612"
    },
    {
      "channel": 2,
      "note": 77,
      "start": 60.1849,
      "duration": 0.1064,
      "velocity": 127,
      "chip": "ym2612"
    },
    {
      "channel": 0,
      "note": 41,
      "start": 60.2908,
      "duration": 0.1082,
      "velocity": 97,
      "chip": "ym2612"
    },
    {
      "channel": 2,
      "note": 65,
      "start": 60.2915,
      "duration": 0.2181,
      "velocity": 127,
      "chip": "ym2612"
    },
    {
      "channel": 0,
      "note": 41,
      "start": 60.3992,
      "duration": 0.1096,
      "velocity": 97,
      "chip": "ym2612"
    },
    {
      "channel": 1,
      "note": 65,
      "start": 60.3999,
      "duration": 0.2296,
      "velocity": 100,
      "chip": "ym2612"
    },
    {
      "channel": 0,
      "note": 41,
      "start": 60.509,
      "duration": 0.1198,
      "velocity": 97,
      "chip": "ym2612"
    },
    {
      "channel": 2,
      "note": 65,
      "start": 60.5098,
      "duration": 0.1203,
      "velocity": 127,
      "chip": "ym2612"
    },
    {
      "channel": 0,
      "note": 41,
      "start": 60.629,
      "duration": 0.1198,
      "velocity": 97,
      "chip": "ym2612"
    },
    {
      "channel": 1,
      "note": 72,
      "start": 60.6296,
      "duration": 0.2398,
      "velocity": 100,
      "chip": "ym2612"
    },
    {
      "channel": 2,
      "note": 77,
      "start": 60.6301,
      "duration": 0.1194,
      "velocity": 127,
      "chip": "ym2612"
    },
    {
      "channel": 5,
      "note": 21,
      "start": 60.6324,
      "duration": 0.1178,
      "velocity": 84,
      "chip": "ym2612"
    },
    {
      "channel": 0,
      "note": 41,
      "start": 60.749,
      "duration": 0.1198,
      "velocity": 97,
      "chip": "ym2612"
    },
    {
      "channel": 2,
      "note": 65,
      "start": 60.7497,
      "duration": 0.2256,
      "velocity": 127,
      "chip": "ym2612"
    },
    {
      "channel": 5,
      "note": 21,
      "start": 60.7504,
      "duration": 0.3466,
      "velocity": 84,
      "chip": "ym2612"
    },
    {
      "channel": 0,
      "note": 41,
      "start": 60.869,
      "duration": 0.1056,
      "velocity": 97,
      "chip": "ym2612"
    },
    {
      "channel": 1,
      "note": 65,
      "start": 60.8696,
      "duration": 0.2245,
      "velocity": 100,
      "chip": "ym2612"
    },
    {
      "channel": 0,
      "note": 41,
      "start": 60.9748,
      "duration": 0.1187,
      "velocity": 97,
      "chip": "ym2612"
    },
    {
      "channel": 2,
      "note": 65,
      "start": 60.9755,
      "duration": 0.1193,
      "velocity": 127,
      "chip": "ym2612"
    },
    {
      "channel": 0,
      "note": 41,
      "start": 61.0937,
      "duration": 0.1198,
      "velocity": 97,
      "chip": "ym2612"
    },
    {
      "channel": 1,
      "note": 77,
      "start": 61.0943,
      "duration": 0.1198,
      "velocity": 100,
      "chip": "ym2612"
    },
    {
      "channel": 2,
      "note": 77,
      "start": 61.0948,
      "duration": 0.1199,
      "velocity": 127,
      "chip": "ym2612"
    },
    {
      "channel": 5,
      "note": 21,
      "start": 61.0971,
      "duration": 0.1183,
      "velocity": 84,
      "chip": "ym2612"
    },
    {
      "channel": 0,
      "note": 41,
      "start": 61.2137,
      "duration": 0.1198,
      "velocity": 97,
      "chip": "ym2612"
    },
    {
      "channel": 1,
      "note": 65,
      "start": 61.2143,
      "duration": 0.2295,
      "velocity": 100,
      "chip": "ym2612"
    },
    {
      "channel": 2,
      "note": 65,
      "start": 61.2148,
      "duration": 0.2296,
      "velocity": 127,
      "chip": "ym2612"
    },
    {
      "channel": 5,
      "note": 21,
      "start": 61.2155,
      "duration": 0.3511,
      "velocity": 84,
      "chip": "ym2612"
    },
    {
      "channel": 0,
      "note": 41,
      "start": 61.3337,
      "duration": 0.1095,
      "velocity": 97,
      "chip": "ym2612"
    },
    {
      "channel": 0,
      "note": 41,
      "start": 61.4434,
      "duration": 0.1198,
      "velocity": 97,
      "chip": "ym2612"
    },
    {
      "channel": 1,
      "note": 72,
      "start": 61.444,
      "duration": 0.1198,
      "velocity": 100,
      "chip": "ym2612"
    },
    {
      "channel": 2,
      "note": 65,
      "start": 61.4445,
      "duration": 0.1199,
      "velocity": 127,
      "chip": "ym2612"
    },
    {
      "channel": 0,
      "note": 41,
      "start": 61.5634,
      "duration": 0.1198,
      "velocity": 97,
      "chip": "ym2612"
    },
    {
      "channel": 1,
      "note": 65,
      "start": 61.564,
      "duration": 0.2398,
      "velocity": 100,
      "chip": "ym2612"
    },
    {
      "channel": 2,
      "note": 77,
      "start": 61.5645,
      "duration": 0.1194,
      "velocity": 127,
      "chip": "ym2612"
    },
    {
      "channel": 5,
      "note": 21,
      "start": 61.5668,
      "duration": 0.1178,
      "velocity": 84,
      "chip": "ym2612"
    },
    {
      "channel": 0,
      "note": 41,
      "start": 61.6834,
      "duration": 0.1198,
      "velocity": 97,
      "chip": "ym2612"
    },
    {
      "channel": 2,
      "note": 65,
      "start": 61.6841,
      "duration": 0.2307,
      "velocity": 127,
      "chip": "ym2612"
    },
    {
      "channel": 5,
      "note": 21,
      "start": 61.6848,
      "duration": 0.3492,
      "velocity": 84,
      "chip": "ym2612"
    },
    {
      "channel": 0,
      "note": 41,
      "start": 61.8034,
      "duration": 0.1107,
      "velocity": 97,
      "chip": "ym2612"
    },
    {
      "channel": 1,
      "note": 77,
      "start": 61.804,
      "duration": 0.2271,
      "velocity": 100,
      "chip": "ym2612"
    },
    {
      "channel": 0,
      "note": 41,
      "start": 61.9143,
      "duration": 0.1163,
      "velocity": 97,
      "chip": "ym2612"
    },
    {
      "channel": 2,
      "note": 65,
      "start": 61.9149,
      "duration": 0.1168,
      "velocity": 127,
      "chip": "ym2612"
    },
    {
      "channel": 0,
      "note": 41,
      "start": 62.0307,
      "duration": 0.1198,
      "velocity": 97,
      "chip": "ym2612"
    },
    {
      "channel": 1,
      "note": 75,
      "start": 62.0313,
      "duration": 0.2256,
      "velocity": 100,
      "chip": "ym2612"
    },
    {
      "channel": 2,
      "note": 77,
      "start": 62.0318,
      "duration": 0.1194,
      "velocity": 127,
      "chip": "ym2612"
    },
    {
      "channel": 5,
      "note": 21,
      "start": 62.0341,
      "duration": 0.451,
      "velocity": 84,
      "chip": "ym2612"
    },
    {
      "channel": 0,
      "note": 41,
      "start": 62.1507,
      "duration": 0.1057,
      "velocity": 97,
      "chip": "ym2612"
    },
    {
      "channel": 2,
      "note": 65,
      "start": 62.1514,
      "duration": 0.211,
      "velocity": 127,
      "chip": "ym2612"
    },
    {
      "channel": 0,
      "note": 41,
      "start": 62.2566,
      "duration": 0.1052,
      "velocity": 97,
      "chip": "ym2612"
    },
    {
      "channel": 1,
      "note": 65,
      "start": 62.2571,
      "duration": 0.2252,
      "velocity": 100,
      "chip": "ym2612"
    },
    {
      "channel": 0,
      "note": 41,
      "start": 62.3619,
      "duration": 0.1198,
      "velocity": 97,
      "chip": "ym2612"
    },
    {
      "channel": 2,
      "note": 65,
      "start": 62.3626,
      "duration": 0.1203,
      "velocity": 127,
      "chip": "ym2612"
    },
    {
      "channel": 0,
      "note": 41,
      "start": 62.4819,
      "duration": 0.1198,
      "velocity": 97,
      "chip": "ym2612"
    },
    {
      "channel": 1,
      "note": 72,
      "start": 62.4825,
      "duration": 0.2398,
      "velocity": 100,
      "chip": "ym2612"
    },
    {
      "channel": 2,
      "note": 77,
      "start": 62.483,
      "duration": 0.1194,
      "velocity": 127,
      "chip": "ym2612"
    },
    {
      "channel": 5,
      "note": 21,
      "start": 62.4853,
      "duration": 0.1178,
      "velocity": 84,
      "chip": "ym2612"
    },
    {
      "channel": 0,
      "note": 41,
      "start": 62.6019,
      "duration": 0.1198,
      "velocity": 97,
      "chip": "ym2612"
    },
    {
      "channel": 2,
      "note": 65,
      "start": 62.6026,
      "duration": 0.2205,
      "velocity": 127,
      "chip": "ym2612"
    },
    {
      "channel": 5,
      "note": 21,
      "start": 62.6033,
      "duration": 0.339,
      "velocity": 84,
      "chip": "ym2612"
    },
    {
      "channel": 0,
      "note": 41,
      "start": 62.7219,
      "duration": 0.1006,
      "velocity": 97,
      "chip": "ym2612"
    },
    {
      "channel": 1,
      "note": 65,
      "start": 62.7225,
      "duration": 0.217,
      "velocity": 100,
      "chip": "ym2612"
    },
    {
      "channel": 0,
      "note": 41,
      "start": 62.8226,
      "duration": 0.1163,
      "velocity": 97,
      "chip": "ym2612"
    },
    {
      "channel": 2,
      "note": 65,
      "start": 62.8233,
      "duration": 0.1168,
      "velocity": 127,
      "chip": "ym2612"
    },
    {
      "channel": 0,
      "note": 41,
      "start": 62.9391,
      "duration": 0.1198,
      "velocity": 97,
      "chip": "ym2612"
    },
    {
      "channel": 1,
      "note": 77,
      "start": 62.9397,
      "duration": 0.1198,
      "velocity": 100,
      "chip": "ym2612"
    },
    {
      "channel": 2,
      "note": 77,
      "start": 62.9402,
      "duration": 0.1199,
      "velocity": 127,
      "chip": "ym2612"
    },
    {
      "channel": 5,
      "note": 21,
      "start": 62.9425,
      "duration": 0.1183,
      "velocity": 84,
      "chip": "ym2612"
    },
    {
      "channel": 0,
      "note": 41,
      "start": 63.0591,
      "duration": 0.1198,
      "velocity": 97,
      "chip": "ym2612"
    },
    {
      "channel": 1,
      "note": 65,
      "start": 63.0597,
      "duration": 0.2274,
      "velocity": 100,
      "chip": "ym2612"
    },
    {
      "channel": 2,
      "note": 65,
      "start": 63.0602,
      "duration": 0.2275,
      "velocity": 127,
      "chip": "ym2612"
    },
    {
      "channel": 5,
      "note": 21,
      "start": 63.0609,
      "duration": 0.3321,
      "velocity": 84,
      "chip": "ym2612"
    },
    {
      "channel": 0,
      "note": 41,
      "start": 63.1791,
      "duration": 0.1074,
      "velocity": 97,
      "chip": "ym2612"
    },
    {
      "channel": 0,
      "note": 41,
      "start": 63.2867,
      "duration": 0.103,
      "velocity": 97,
      "chip": "ym2612"
    },
    {
      "channel": 1,
      "note": 72,
      "start": 63.2873,
      "duration": 0.1029,
      "velocity": 100,
      "chip": "ym2612"
    },
    {
      "channel": 2,
      "note": 65,
      "start": 63.2878,
      "duration": 0.103,
      "velocity": 127,
      "chip": "ym2612"
    },
    {
      "channel": 0,
      "note": 41,
      "start": 63.3898,
      "duration": 0.1198,
      "velocity": 97,
      "chip": "ym2612"
    },
    {
      "channel": 1,
      "note": 65,
      "start": 63.3904,
      "duration": 0.2398,
      "velocity": 100,
      "chip": "ym2612"
    },
    {
      "channel": 2,
      "note": 77,
      "start": 63.3909,
      "duration": 0.1194,
      "velocity": 127,
      "chip": "ym2612"
    },
    {
      "channel": 5,
      "note": 21,
      "start": 63.3932,
      "duration": 0.1178,
      "velocity": 84,
      "chip": "ym2612"
    },
    {
      "channel": 0,
      "note": 41,
      "start": 63.5098,
      "duration": 0.1198,
      "velocity": 97,
      "chip": "ym2612"
    },
    {
      "channel": 2,
      "note": 65,
      "start": 63.5104,
      "duration": 0.2256,
      "velocity": 127,
      "chip": "ym2612"
    },
    {
      "channel": 5,
      "note": 21,
      "start": 63.5111,
      "duration": 0.3466,
      "velocity": 84,
      "chip": "ym2612"
    },
    {
      "channel": 0,
      "note": 41,
      "start": 63.6298,
      "duration": 0.1056,
      "velocity": 97,
      "chip": "ym2612"
    },
    {
      "channel": 1,
      "note": 77,
      "start": 63.6304,
      "duration": 0.2245,
      "velocity": 100,
      "chip": "ym2612"
    },
    {
      "channel": 0,
      "note": 41,
      "start": 63.7356,
      "duration": 0.1187,
      "velocity": 97,
      "chip": "ym2612"
    },
    {
      "channel": 2,
      "note": 65,
      "start": 63.7362,
      "duration": 0.1193,
      "velocity": 127,
      "chip": "ym2612"
    },
    {
      "channel": 0,
      "note": 41,
      "start": 63.8545,
      "duration": 0.1198,
      "velocity": 97,
      "chip": "ym2612"
    },
    {
      "channel": 1,
      "note": 75,
      "start": 63.8551,
      "duration": 0.2206,
      "velocity": 100,
      "chip": "ym2612"
    },
    {
      "channel": 2,
      "note": 77,
      "start": 63.8556,
      "duration": 0.1194,
      "velocity": 127,
      "chip": "ym2612"
    },
    {
      "channel": 5,
      "note": 21,
      "start": 63.8579,
      "duration": 0.4459,
      "velocity": 84,
      "chip": "ym2612"
    },
    {
      "channel": 0,
      "note": 41,
      "start": 63.9745,
      "duration": 0.1007,
      "velocity": 97,
      "chip": "ym2612"
    },
    {
      "channel": 2,
      "note": 65,
      "start": 63.9751,
      "duration": 0.206,
      "velocity": 127,
      "chip": "ym2612"
    },
    {
      "channel": 0,
      "note": 41,
      "start": 64.0753,
      "duration": 0.1052,
      "velocity": 97,
      "chip": "ym2612"
    },
    {
      "channel": 1,
      "note": 65,
      "start": 64.0759,
      "duration": 0.2252,
      "velocity": 100,
      "chip": "ym2612"
    },
    {
      "channel": 0,
      "note": 41,
      "start": 64.1806,
      "duration": 0.1198,
      "velocity": 97,
      "chip": "ym2612"
    },
    {
      "channel": 2,
      "note": 65,
      "start": 64.1813,
      "duration": 0.1203,
      "velocity": 127,
      "chip": "ym2612"
    },
    {
      "channel": 0,
      "note": 41,
      "start": 64.3006,
      "duration": 0.1198,
      "velocity": 97,
      "chip": "ym2612"
    },
    {
      "channel": 1,
      "note": 72,
      "start": 64.3012,
      "duration": 0.2398,
      "velocity": 100,
      "chip": "ym2612"
    },
    {
      "channel": 2,
      "note": 77,
      "start": 64.3017,
      "duration": 0.1194,
      "velocity": 127,
      "chip": "ym2612"
    },
    {
      "channel": 5,
      "note": 21,
      "start": 64.304,
      "duration": 0.1178,
      "velocity": 84,
      "chip": "ym2612"
    },
    {
      "channel": 0,
      "note": 41,
      "start": 64.4206,
      "duration": 0.1198,
      "velocity": 97,
      "chip": "ym2612"
    },
    {
      "channel": 2,
      "note": 65,
      "start": 64.4213,
      "duration": 0.2255,
      "velocity": 127,
      "chip": "ym2612"
    },
    {
      "channel": 5,
      "note": 21,
      "start": 64.422,
      "duration": 0.344,
      "velocity": 84,
      "chip": "ym2612"
    },
    {
      "channel": 0,
      "note": 41,
      "start": 64.5406,
      "duration": 0.1056,
      "velocity": 97,
      "chip": "ym2612"
    },
    {
      "channel": 1,
      "note": 65,
      "start": 64.5412,
      "duration": 0.222,
      "velocity": 100,
      "chip": "ym2612"
    },
    {
      "channel": 0,
      "note": 41,
      "start": 64.6463,
      "duration": 0.1163,
      "velocity": 97,
      "chip": "ym2612"
    },
    {
      "channel": 2,
      "note": 65,
      "start": 64.647,
      "duration": 0.1168,
      "velocity": 127,
      "chip": "ym2612"
    },
    {
      "channel": 0,
      "note": 41,
      "start": 64.7628,
      "duration": 0.1198,
      "velocity": 97,
      "chip": "ym2612"
    },
    {
      "channel": 1,
      "note": 77,
      "start": 64.7634,
      "duration": 0.1198,
      "velocity": 100,
      "chip": "ym2612"
    },
    {
      "channel": 2,
      "note": 77,
      "start": 64.7639,
      "duration": 0.1199,
      "velocity": 127,
      "chip": "ym2612"
    },
    {
      "channel": 5,
      "note": 21,
      "start": 64.7662,
      "duration": 0.1183,
      "velocity": 84,
      "chip": "ym2612"
    },
    {
      "channel": 0,
      "note": 41,
      "start": 64.8828,
      "duration": 0.1198,
      "velocity": 97,
      "chip": "ym2612"
    },
    {
      "channel": 1,
      "note": 65,
      "start": 64.8834,
      "duration": 0.2274,
      "velocity": 100,
      "chip": "ym2612"
    },
    {
      "channel": 2,
      "note": 65,
      "start": 64.8839,
      "duration": 0.2275,
      "velocity": 127,
      "chip": "ym2612"
    },
    {
      "channel": 5,
      "note": 21,
      "start": 64.8846,
      "duration": 0.349,
      "velocity": 84,
      "chip": "ym2612"
    },
    {
      "channel": 0,
      "note": 41,
      "start": 65.0028,
      "duration": 0.1074,
      "velocity": 97,
      "chip": "ym2612"
    },
    {
      "channel": 0,
      "note": 41,
      "start": 65.1104,
      "duration": 0.1198,
      "velocity": 97,
      "chip": "ym2612"
    },
    {
      "channel": 1,
      "note": 72,
      "start": 65.111,
      "duration": 0.1198,
      "velocity": 100,
      "chip": "ym2612"
    },
    {
      "channel": 2,
      "note": 65,
      "start": 65.1115,
      "duration": 0.1199,
      "velocity": 127,
      "chip": "ym2612"
    },
    {
      "channel": 0,
      "note": 41,
      "start": 65.2304,
      "duration": 0.1198,
      "velocity": 97,
      "chip": "ym2612"
    },
    {
      "channel": 1,
      "note": 65,
      "start": 65.231,
      "duration": 0.2398,
      "velocity": 100,
      "chip": "ym2612"
    },
    {
      "channel": 2,
      "note": 77,
      "start": 65.2315,
      "duration": 0.1194,
      "velocity": 127,
      "chip": "ym2612"
    },
    {
      "channel": 5,
      "note": 21,
      "start": 65.2338,
      "duration": 0.1178,
      "velocity": 84,
      "chip": "ym2612"
    },
    {
      "channel": 0,
      "note": 41,
      "start": 65.3504,
      "duration": 0.1198,
      "velocity": 97,
      "chip": "ym2612"
    },
    {
      "channel": 2,
      "note": 65,
      "start": 65.351,
      "duration": 0.2256,
      "velocity": 127,
      "chip": "ym2612"
    },
    {
      "channel": 5,
      "note": 21,
      "start": 65.3517,
      "duration": 0.3466,
      "velocity": 84,
      "chip": "ym2612"
    },
    {
      "channel": 0,
      "note": 41,
      "start": 65.4704,
      "duration": 0.1056,
      "velocity": 97,
      "chip": "ym2612"
    },
    {
      "channel": 1,
      "note": 77,
      "start": 65.471,
      "duration": 0.2245,
      "velocity": 100,
      "chip": "ym2612"
    },
    {
      "channel": 0,
      "note": 41,
      "start": 65.5761,
      "duration": 0.1187,
      "velocity": 97,
      "chip": "ym2612"
    },
    {
      "channel": 2,
      "note": 65,
      "start": 65.5768,
      "duration": 0.1193,
      "velocity": 127,
      "chip": "ym2612"
    },
    {
      "channel": 0,
      "note": 41,
      "start": 65.6951,
      "duration": 0.1198,
      "velocity": 97,
      "chip": "ym2612"
    },
    {
      "channel": 1,
      "note": 75,
      "start": 65.6956,
      "duration": 0.2282,
      "velocity": 100,
      "chip": "ym2612"
    },
    {
      "channel": 2,
      "note": 77,
      "start": 65.6961,
      "duration": 0.1194,
      "velocity": 127,
      "chip": "ym2612"
    },
    {
      "channel": 5,
      "note": 21,
      "start": 65.6985,
      "duration": 0.461,
      "velocity": 84,
      "chip": "ym2612"
    },
    {
      "channel": 0,
      "note": 41,
      "start": 65.8151,
      "duration": 0.1082,
      "velocity": 97,
      "chip": "ym2612"
    },
    {
      "channel": 2,
      "note": 65,
      "start": 65.8157,
      "duration": 0.221,
      "velocity": 127,
      "chip": "ym2612"
    },
    {
      "channel": 0,
      "note": 41,
      "start": 65.9234,
      "duration": 0.1126,
      "velocity": 97,
      "chip": "ym2612"
    },
    {
      "channel": 1,
      "note": 65,
      "start": 65.924,
      "duration": 0.2326,
      "velocity": 100,
      "chip": "ym2612"
    },
    {
      "channel": 0,
      "note": 41,
      "start": 66.0362,
      "duration": 0.1198,
      "velocity": 97,
      "chip": "ym2612"
    },
    {
      "channel": 2,
      "note": 65,
      "start": 66.0368,
      "duration": 0.1203,
      "velocity": 127,
      "chip": "ym2612"
    },
    {
      "channel": 0,
      "note": 41,
      "start": 66.1562,
      "duration": 0.1198,
      "velocity": 97,
      "chip": "ym2612"
    },
    {
      "channel": 1,
      "note": 72,
      "start": 66.1568,
      "duration": 0.2398,
      "velocity": 100,
      "chip": "ym2612"
    },
    {
      "channel": 2,
      "note": 77,
      "start": 66.1573,
      "duration": 0.1194,
      "velocity": 127,
      "chip": "ym2612"
    },
    {
      "channel": 5,
      "note": 21,
      "start": 66.1596,
      "duration": 0.1178,
      "velocity": 84,
      "chip": "ym2612"
    },
    {
      "channel": 0,
      "note": 41,
      "start": 66.2762,
      "duration": 0.1198,
      "velocity": 97,
      "chip": "ym2612"
    },
    {
      "channel": 2,
      "note": 65,
      "start": 66.2768,
      "duration": 0.2256,
      "velocity": 127,
      "chip": "ym2612"
    },
    {
      "channel": 5,
      "note": 21,
      "start": 66.2776,
      "duration": 0.3466,
      "velocity": 84,
      "chip": "ym2612"
    },
    {
      "channel": 0,
      "note": 41,
      "start": 66.3962,
      "duration": 0.1056,
      "velocity": 97,
      "chip": "ym2612"
    },
    {
      "channel": 1,
      "note": 65,
      "start": 66.3968,
      "duration": 0.2245,
      "velocity": 100,
      "chip": "ym2612"
    },
    {
      "channel": 0,
      "note": 41,
      "start": 66.502,
      "duration": 0.1187,
      "velocity": 97,
      "chip": "ym2612"
    },
    {
      "channel": 2,
      "note": 65,
      "start": 66.5026,
      "duration": 0.1193,
      "velocity": 127,
      "chip": "ym2612"
    },
    {
      "channel": 0,
      "note": 41,
      "start": 66.6209,
      "duration": 0.1198,
      "velocity": 97,
      "chip": "ym2612"
    },
    {
      "channel": 1,
      "note": 77,
      "start": 66.6215,
      "duration": 0.1198,
      "velocity": 100,
      "chip": "ym2612"
    },
    {
      "channel": 2,
      "note": 77,
      "start": 66.622,
      "duration": 0.1199,
      "velocity": 127,
      "chip": "ym2612"
    },
    {
      "channel": 5,
      "note": 21,
      "start": 66.6243,
      "duration": 0.1183,
      "velocity": 84,
      "chip": "ym2612"
    },
    {
      "channel": 0,
      "note": 41,
      "start": 66.7409,
      "duration": 0.1198,
      "velocity": 97,
      "chip": "ym2612"
    },
    {
      "channel": 1,
      "note": 65,
      "start": 66.7415,
      "duration": 0.2272,
      "velocity": 100,
      "chip": "ym2612"
    },
    {
      "channel": 2,
      "note": 65,
      "start": 66.742,
      "duration": 0.2273,
      "velocity": 127,
      "chip": "ym2612"
    },
    {
      "channel": 5,
      "note": 21,
      "start": 66.7427,
      "duration": 0.3369,
      "velocity": 84,
      "chip": "ym2612"
    },
    {
      "channel": 0,
      "note": 41,
      "start": 66.8609,
      "duration": 0.1072,
      "velocity": 97,
      "chip": "ym2612"
    },
    {
      "channel": 0,
      "note": 41,
      "start": 66.9683,
      "duration": 0.1079,
      "velocity": 97,
      "chip": "ym2612"
    },
    {
      "channel": 1,
      "note": 72,
      "start": 66.9689,
      "duration": 0.1078,
      "velocity": 100,
      "chip": "ym2612"
    },
    {
      "channel": 2,
      "note": 65,
      "start": 66.9694,
      "duration": 0.1079,
      "velocity": 127,
      "chip": "ym2612"
    },
    {
      "channel": 0,
      "note": 41,
      "start": 67.0763,
      "duration": 0.1198,
      "velocity": 97,
      "chip": "ym2612"
    },
    {
      "channel": 1,
      "note": 65,
      "start": 67.0769,
      "duration": 0.2398,
      "velocity": 100,
      "chip": "ym2612"
    },
    {
      "channel": 2,
      "note": 77,
      "start": 67.0775,
      "duration": 0.1193,
      "velocity": 127,
      "chip": "ym2612"
    },
    {
      "channel": 5,
      "note": 21,
      "start": 67.0797,
      "duration": 0.1178,
      "velocity": 84,
      "chip": "ym2612"
    },
    {
      "channel": 0,
      "note": 41,
      "start": 67.1963,
      "duration": 0.1198,
      "velocity": 97,
      "chip": "ym2612"
    },
    {
      "channel": 2,
      "note": 65,
      "start": 67.1969,
      "duration": 0.2205,
      "velocity": 127,
      "chip": "ym2612"
    },
    {
      "channel": 5,
      "note": 21,
      "start": 67.1976,
      "duration": 0.781,
      "velocity": 84,
      "chip": "ym2612"
    },
    {
      "channel": 0,
      "note": 41,
      "start": 67.3163,
      "duration": 0.1006,
      "velocity": 97,
      "chip": "ym2612"
    },
    {
      "channel": 1,
      "note": 77,
      "start": 67.3169,
      "duration": 0.217,
      "velocity": 100,
      "chip": "ym2612"
    },
    {
      "channel": 0,
      "note": 41,
      "start": 67.417,
      "duration": 0.1163,
      "velocity": 97,
      "chip": "ym2612"
    },
    {
      "channel": 2,
      "note": 65,
      "start": 67.4176,
      "duration": 0.1168,
      "velocity": 127,
      "chip": "ym2612"
    },
    {
      "channel": 0,
      "note": 41,
      "start": 67.5335,
      "duration": 0.108,
      "velocity": 97,
      "chip": "ym2612"
    },
    {
      "channel": 1,
      "note": 75,
      "start": 67.5341,
      "duration": 0.4427,
      "velocity": 110,
      "chip": "ym2612"
    },
    {
      "channel": 2,
      "note": 77,
      "start": 67.5346,
      "duration": 0.1076,
      "velocity": 127,
      "chip": "ym2612"
    },
    {
      "channel": 0,
      "note": 41,
      "start": 67.6417,
      "duration": 0.108,
      "velocity": 97,
      "chip": "ym2612"
    },
    {
      "channel": 2,
      "note": 65,
      "start": 67.6422,
      "duration": 0.1097,
      "velocity": 97,
      "chip": "ym2612"
    },
    {
      "channel": 0,
      "note": 41,
      "start": 67.7499,
      "duration": 0.1048,
      "velocity": 97,
      "chip": "ym2612"
    },
    {
      "channel": 2,
      "note": 60,
      "start": 67.752,
      "duration": 6.4235,
      "velocity": 104,
      "chip": "ym2612"
    },
    {
      "channel": 3,
      "note": 65,
      "start": 67.7542,
      "duration": 0.2232,
      "velocity": 100,
      "chip": "ym2612"
    },
    {
      "channel": 0,
      "note": 41,
      "start": 67.8548,
      "duration": 0.1199,
      "velocity": 97,
      "chip": "ym2612"
    },
    {
      "channel": 4,
      "note": 65,
      "start": 67.8572,
      "duration": 0.1207,
      "velocity": 127,
      "chip": "ym2612"
    },
    {
      "channel": 0,
      "note": 41,
      "start": 67.9748,
      "duration": 0.1199,
      "velocity": 97,
      "chip": "ym2612"
    },
    {
      "channel": 1,
      "note": 65,
      "start": 67.977,
      "duration": 0.2382,
      "velocity": 110,
      "chip": "ym2612"
    },
    {
      "channel": 3,
      "note": 72,
      "start": 67.9776,
      "duration": 0.2383,
      "velocity": 100,
      "chip": "ym2612"
    },
    {
      "channel": 4,
      "note": 77,
      "start": 67.9781,
      "duration": 0.1173,
      "velocity": 127,
      "chip": "ym2612"
    },
    {
      "channel": 5,
      "note": 21,
      "start": 67.9788,
      "duration": 0.1172,
      "velocity": 84,
      "chip": "ym2612"
    },
    {
      "channel": 0,
      "note": 41,
      "start": 68.0948,
      "duration": 0.1199,
      "velocity": 97,
      "chip": "ym2612"
    },
    {
      "channel": 4,
      "note": 65,
      "start": 68.0956,
      "duration": 0.2207,
      "velocity": 127,
      "chip": "ym2612"
    },
    {
      "channel": 5,
      "note": 21,
      "start": 68.0961,
      "duration": 0.3399,
      "velocity": 84,
      "chip": "ym2612"
    },
    {
      "channel": 0,
      "note": 41,
      "start": 68.2148,
      "duration": 0.1007,
      "velocity": 97,
      "chip": "ym2612"
    },
    {
      "channel": 1,
      "note": 58,
      "start": 68.2154,
      "duration": 0.2173,
      "velocity": 110,
      "chip": "ym2612"
    },
    {
      "channel": 3,
      "note": 65,
      "start": 68.216,
      "duration": 0.2172,
      "velocity": 100,
      "chip": "ym2612"
    },
    {
      "channel": 0,
      "note": 41,
      "start": 68.3157,
      "duration": 0.1164,
      "velocity": 97,
      "chip": "ym2612"
    },
    {
      "channel": 4,
      "note": 65,
      "start": 68.3165,
      "duration": 0.1173,
      "velocity": 127,
      "chip": "ym2612"
    },
    {
      "channel": 0,
      "note": 41,
      "start": 68.4323,
      "duration": 0.1198,
      "velocity": 97,
      "chip": "ym2612"
    },
    {
      "channel": 1,
      "note": 60,
      "start": 68.4328,
      "duration": 0.2398,
      "velocity": 110,
      "chip": "ym2612"
    },
    {
      "channel": 3,
      "note": 77,
      "start": 68.4334,
      "duration": 0.1194,
      "velocity": 100,
      "chip": "ym2612"
    },
    {
      "channel": 4,
      "note": 77,
      "start": 68.434,
      "duration": 0.1193,
      "velocity": 127,
      "chip": "ym2612"
    },
    {
      "channel": 5,
      "note": 21,
      "start": 68.4361,
      "duration": 0.1178,
      "velocity": 84,
      "chip": "ym2612"
    },
    {
      "channel": 0,
      "note": 41,
      "start": 68.5523,
      "duration": 0.1198,
      "velocity": 97,
      "chip": "ym2612"
    },
    {
      "channel": 3,
      "note": 65,
      "start": 68.5529,
      "duration": 0.2294,
      "velocity": 100,
      "chip": "ym2612"
    },
    {
      "channel": 4,
      "note": 65,
      "start": 68.5535,
      "duration": 0.2294,
      "velocity": 127,
      "chip": "ym2612"
    },
    {
      "channel": 5,
      "note": 21,
      "start": 68.5541,
      "duration": 0.3515,
      "velocity": 84,
      "chip": "ym2612"
    },
    {
      "channel": 0,
      "note": 41,
      "start": 68.6722,
      "duration": 0.1095,
      "velocity": 97,
      "chip": "ym2612"
    },
    {
      "channel": 1,
      "note": 65,
      "start": 68.6728,
      "duration": 0.2294,
      "velocity": 110,
      "chip": "ym2612"
    },
    {
      "channel": 0,
      "note": 41,
      "start": 68.7818,
      "duration": 0.1199,
      "velocity": 97,
      "chip": "ym2612"
    },
    {
      "channel": 3,
      "note": 72,
      "start": 68.7825,
      "duration": 0.1203,
      "velocity": 100,
      "chip": "ym2612"
    },
    {
      "channel": 4,
      "note": 65,
      "start": 68.7831,
      "duration": 0.1203,
      "velocity": 127,
      "chip": "ym2612"
    },
    {
      "channel": 0,
      "note": 41,
      "start": 68.9018,
      "duration": 0.1199,
      "velocity": 97,
      "chip": "ym2612"
    },
    {
      "channel": 1,
      "note": 58,
      "start": 68.9024,
      "duration": 0.2398,
      "velocity": 110,
      "chip": "ym2612"
    },
    {
      "channel": 3,
      "note": 65,
      "start": 68.903,
      "duration": 0.2398,
      "velocity": 100,
      "chip": "ym2612"
    },
    {
      "channel": 4,
      "note": 77,
      "start": 68.9036,
      "duration": 0.1188,
      "velocity": 127,
      "chip": "ym2612"
    },
    {
      "channel": 5,
      "note": 21,
      "start": 68.9057,
      "duration": 0.1173,
      "velocity": 84,
      "chip": "ym2612"
    },
    {
      "channel": 0,
      "note": 41,
      "start": 69.0219,
      "duration": 0.1198,
      "velocity": 97,
      "chip": "ym2612"
    },
    {
      "channel": 4,
      "note": 65,
      "start": 69.0226,
      "duration": 0.2207,
      "velocity": 127,
      "chip": "ym2612"
    },
    {
      "channel": 5,
      "note": 21,
      "start": 69.0232,
      "duration": 0.3399,
      "velocity": 84,
      "chip": "ym2612"
    },
    {
      "channel": 0,
      "note": 41,
      "start": 69.1418,
      "duration": 0.1007,
      "velocity": 97,
      "chip": "ym2612"
    },
    {
      "channel": 1,
      "note": 60,
      "start": 69.1424,
      "duration": 0.2173,
      "velocity": 110,
      "chip": "ym2612"
    },
    {
      "channel": 3,
      "note": 77,
      "start": 69.143,
      "duration": 0.2172,
      "velocity": 100,
      "chip": "ym2612"
    },
    {
      "channel": 0,
      "note": 41,
      "start": 69.2427,
      "duration": 0.1164,
      "velocity": 97,
      "chip": "ym2612"
    },
    {
      "channel": 4,
      "note": 65,
      "start": 69.2435,
      "duration": 0.1173,
      "velocity": 127,
      "chip": "ym2612"
    },
    {
      "channel": 0,
      "note": 41,
      "start": 69.3593,
      "duration": 0.1198,
      "velocity": 97,
      "chip": "ym2612"
    },
    {
      "channel": 1,
      "note": 63,
      "start": 69.3598,
      "duration": 0.2206,
      "velocity": 110,
      "chip": "ym2612"
    },
    {
      "channel": 3,
      "note": 75,
      "start": 69.3605,
      "duration": 0.2206,
      "velocity": 100,
      "chip": "ym2612"
    },
    {
      "channel": 4,
      "note": 77,
      "start": 69.361,
      "duration": 0.1188,
      "velocity": 127,
      "chip": "ym2612"
    },
    {
      "channel": 5,
      "note": 21,
      "start": 69.3631,
      "duration": 0.4522,
      "velocity": 84,
      "chip": "ym2612"
    },
    {
      "channel": 0,
      "note": 41,
      "start": 69.4793,
      "duration": 0.1006,
      "velocity": 97,
      "chip": "ym2612"
    },
    {
      "channel": 4,
      "note": 65,
      "start": 69.48,
      "duration": 0.2121,
      "velocity": 127,
      "chip": "ym2612"
    },
    {
      "channel": 0,
      "note": 41,
      "start": 69.5801,
      "duration": 0.1113,
      "velocity": 97,
      "chip": "ym2612"
    },
    {
      "channel": 1,
      "note": 65,
      "start": 69.5806,
      "duration": 0.2313,
      "velocity": 110,
      "chip": "ym2612"
    },
    {
      "channel": 3,
      "note": 65,
      "start": 69.5812,
      "duration": 0.2313,
      "velocity": 100,
      "chip": "ym2612"
    },
    {
      "channel": 0,
      "note": 41,
      "start": 69.6915,
      "duration": 0.1199,
      "velocity": 97,
      "chip": "ym2612"
    },
    {
      "channel": 4,
      "note": 65,
      "start": 69.6923,
      "duration": 0.1208,
      "velocity": 127,
      "chip": "ym2612"
    },
    {
      "channel": 0,
      "note": 41,
      "start": 69.8115,
      "duration": 0.1199,
      "velocity": 97,
      "chip": "ym2612"
    },
    {
      "channel": 1,
      "note": 66,
      "start": 69.8121,
      "duration": 0.2398,
      "velocity": 110,
      "chip": "ym2612"
    },
    {
      "channel": 3,
      "note": 72,
      "start": 69.8127,
      "duration": 0.2398,
      "velocity": 100,
      "chip": "ym2612"
    },
    {
      "channel": 4,
      "note": 77,
      "start": 69.8133,
      "duration": 0.1188,
      "velocity": 127,
      "chip": "ym2612"
    },
    {
      "channel": 5,
      "note": 21,
      "start": 69.8154,
      "duration": 0.1173,
      "velocity": 84,
      "chip": "ym2612"
    },
    {
      "channel": 0,
      "note": 41,
      "start": 69.9316,
      "duration": 0.1198,
      "velocity": 97,
      "chip": "ym2612"
    },
    {
      "channel": 4,
      "note": 65,
      "start": 69.9323,
      "duration": 0.2206,
      "velocity": 127,
      "chip": "ym2612"
    },
    {
      "channel": 5,
      "note": 21,
      "start": 69.9328,
      "duration": 0.3396,
      "velocity": 84,
      "chip": "ym2612"
    },
    {
      "channel": 0,
      "note": 41,
      "start": 70.0515,
      "duration": 0.1006,
      "velocity": 97,
      "chip": "ym2612"
    },
    {
      "channel": 1,
      "note": 68,
      "start": 70.0521,
      "duration": 0.2169,
      "velocity": 110,
      "chip": "ym2612"
    },
    {
      "channel": 3,
      "note": 65,
      "start": 70.0527,
      "duration": 0.2169,
      "velocity": 100,
      "chip": "ym2612"
    },
    {
      "channel": 0,
      "note": 41,
      "start": 70.1523,
      "duration": 0.1162,
      "velocity": 97,
      "chip": "ym2612"
    },
    {
      "channel": 4,
      "note": 65,
      "start": 70.153,
      "duration": 0.1172,
      "velocity": 127,
      "chip": "ym2612"
    },
    {
      "channel": 0,
      "note": 41,
      "start": 70.2686,
      "duration": 0.1199,
      "velocity": 97,
      "chip": "ym2612"
    },
    {
      "channel": 1,
      "note": 63,
      "start": 70.2692,
      "duration": 0.572,
      "velocity": 114,
      "chip": "ym2612"
    },
    {
      "channel": 3,
      "note": 77,
      "start": 70.2699,
      "duration": 0.1194,
      "velocity": 100,
      "chip": "ym2612"
    },
    {
      "channel": 4,
      "note": 77,
      "start": 70.2704,
      "duration": 0.1193,
      "velocity": 127,
      "chip": "ym2612"
    },
    {
      "channel": 5,
      "note": 21,
      "start": 70.2725,
      "duration": 0.1178,
      "velocity": 84,
      "chip": "ym2612"
    },
    {
      "channel": 0,
      "note": 41,
      "start": 70.3887,
      "duration": 0.1198,
      "velocity": 97,
      "chip": "ym2612"
    },
    {
      "channel": 3,
      "note": 65,
      "start": 70.3893,
      "duration": 0.2295,
      "velocity": 100,
      "chip": "ym2612"
    },
    {
      "channel": 4,
      "note": 65,
      "start": 70.3899,
      "duration": 0.2295,
      "velocity": 127,
      "chip": "ym2612"
    },
    {
      "channel": 5,
      "note": 21,
      "start": 70.3905,
      "duration": 0.332,
      "velocity": 84,
      "chip": "ym2612"
    },
    {
      "channel": 0,
      "note": 41,
      "start": 70.5086,
      "duration": 0.1095,
      "velocity": 97,
      "chip": "ym2612"
    },
    {
      "channel": 0,
      "note": 41,
      "start": 70.6183,
      "duration": 0.1007,
      "velocity": 97,
      "chip": "ym2612"
    },
    {
      "channel": 3,
      "note": 72,
      "start": 70.619,
      "duration": 0.1007,
      "velocity": 100,
      "chip": "ym2612"
    },
    {
      "channel": 4,
      "note": 65,
      "start": 70.6196,
      "duration": 0.1007,
      "velocity": 127,
      "chip": "ym2612"
    },
    {
      "channel": 0,
      "note": 41,
      "start": 70.7193,
      "duration": 0.1198,
      "velocity": 97,
      "chip": "ym2612"
    },
    {
      "channel": 3,
      "note": 65,
      "start": 70.7199,
      "duration": 0.2403,
      "velocity": 100,
      "chip": "ym2612"
    },
    {
      "channel": 4,
      "note": 77,
      "start": 70.7205,
      "duration": 0.1214,
      "velocity": 127,
      "chip": "ym2612"
    },
    {
      "channel": 5,
      "note": 21,
      "start": 70.7226,
      "duration": 0.1198,
      "velocity": 84,
      "chip": "ym2612"
    },
    {
      "channel": 0,
      "note": 41,
      "start": 70.8392,
      "duration": 0.1199,
      "velocity": 97,
      "chip": "ym2612"
    },
    {
      "channel": 1,
      "note": 66,
      "start": 70.8414,
      "duration": 0.1183,
      "velocity": 114,
      "chip": "ym2612"
    },
    {
      "channel": 4,
      "note": 65,
      "start": 70.8421,
      "duration": 0.2262,
      "velocity": 127,
      "chip": "ym2612"
    },
    {
      "channel": 5,
      "note": 21,
      "start": 70.8426,
      "duration": 0.3447,
      "velocity": 84,
      "chip": "ym2612"
    },
    {
      "channel": 0,
      "note": 41,
      "start": 70.9593,
      "duration": 0.1078,
      "velocity": 97,
      "chip": "ym2612"
    },
    {
      "channel": 1,
      "note": 78,
      "start": 70.9598,
      "duration": 0.1078,
      "velocity": 114,
      "chip": "ym2612"
    },
    {
      "channel": 3,
      "note": 77,
      "start": 70.9604,
      "duration": 0.2242,
      "velocity": 100,
      "chip": "ym2612"
    },
    {
      "channel": 0,
      "note": 41,
      "start": 71.0672,
      "duration": 0.1162,
      "velocity": 97,
      "chip": "ym2612"
    },
    {
      "channel": 1,
      "note": 73,
      "start": 71.0678,
      "duration": 0.1162,
      "velocity": 114,
      "chip": "ym2612"
    },
    {
      "channel": 4,
      "note": 65,
      "start": 71.0684,
      "duration": 0.1167,
      "velocity": 127,
      "chip": "ym2612"
    },
    {
      "channel": 0,
      "note": 41,
      "start": 71.1836,
      "duration": 0.1199,
      "velocity": 97,
      "chip": "ym2612"
    },
    {
      "channel": 1,
      "note": 66,
      "start": 71.1841,
      "duration": 0.1199,
      "velocity": 114,
      "chip": "ym2612"
    },
    {
      "channel": 3,
      "note": 75,
      "start": 71.1848,
      "duration": 0.2274,
      "velocity": 100,
      "chip": "ym2612"
    },
    {
      "channel": 4,
      "note": 77,
      "start": 71.1854,
      "duration": 0.1193,
      "velocity": 127,
      "chip": "ym2612"
    },
    {
      "channel": 5,
      "note": 21,
      "start": 71.1875,
      "duration": 0.4595,
      "velocity": 84,
      "chip": "ym2612"
    },
    {
      "channel": 0,
      "note": 41,
      "start": 71.3036,
      "duration": 0.1079,
      "velocity": 97,
      "chip": "ym2612"
    },
    {
      "channel": 1,
      "note": 65,
      "start": 71.3041,
      "duration": 0.3395,
      "velocity": 110,
      "chip": "ym2612"
    },
    {
      "channel": 4,
      "note": 65,
      "start": 71.3049,
      "duration": 0.2174,
      "velocity": 127,
      "chip": "ym2612"
    },
    {
      "channel": 0,
      "note": 41,
      "start": 71.4117,
      "duration": 0.1098,
      "velocity": 97,
      "chip": "ym2612"
    },
    {
      "channel": 3,
      "note": 65,
      "start": 71.4124,
      "duration": 0.2319,
      "velocity": 100,
      "chip": "ym2612"
    },
    {
      "channel": 0,
      "note": 41,
      "start": 71.5216,
      "duration": 0.1199,
      "velocity": 97,
      "chip": "ym2612"
    },
    {
      "channel": 4,
      "note": 65,
      "start": 71.5224,
      "duration": 0.1224,
      "velocity": 127,
      "chip": "ym2612"
    },
    {
      "channel": 0,
      "note": 41,
      "start": 71.6416,
      "duration": 0.1199,
      "velocity": 97,
      "chip": "ym2612"
    },
    {
      "channel": 1,
      "note": 65,
      "start": 71.6438,
      "duration": 0.2382,
      "velocity": 110,
      "chip": "ym2612"
    },
    {
      "channel": 3,
      "note": 72,
      "start": 71.6444,
      "duration": 0.2383,
      "velocity": 100,
      "chip": "ym2612"
    },
    {
      "channel": 4,
      "note": 77,
      "start": 71.645,
      "duration": 0.1173,
      "velocity": 127,
      "chip": "ym2612"
    },
    {
      "channel": 5,
      "note": 21,
      "start": 71.6471,
      "duration": 0.1157,
      "velocity": 84,
      "chip": "ym2612"
    },
    {
      "channel": 0,
      "note": 41,
      "start": 71.7617,
      "duration": 0.1198,
      "velocity": 97,
      "chip": "ym2612"
    },
    {
      "channel": 4,
      "note": 65,
      "start": 71.7624,
      "duration": 0.2206,
      "velocity": 127,
      "chip": "ym2612"
    },
    {
      "channel": 5,
      "note": 21,
      "start": 71.763,
      "duration": 0.3397,
      "velocity": 84,
      "chip": "ym2612"
    },
    {
      "channel": 0,
      "note": 41,
      "start": 71.8816,
      "duration": 0.1006,
      "velocity": 97,
      "chip": "ym2612"
    },
    {
      "channel": 1,
      "note": 58,
      "start": 71.8822,
      "duration": 0.2171,
      "velocity": 110,
      "chip": "ym2612"
    },
    {
      "channel": 3,
      "note": 65,
      "start": 71.8829,
      "duration": 0.2171,
      "velocity": 100,
      "chip": "ym2612"
    },
    {
      "channel": 0,
      "note": 41,
      "start": 71.9824,
      "duration": 0.1164,
      "velocity": 97,
      "chip": "ym2612"
    },
    {
      "channel": 4,
      "note": 65,
      "start": 71.9832,
      "duration": 0.1173,
      "velocity": 127,
      "chip": "ym2612"
    },
    {
      "channel": 0,
      "note": 41,
      "start": 72.099,
      "duration": 0.1198,
      "velocity": 97,
      "chip": "ym2612"
    },
    {
      "channel": 1,
      "note": 60,
      "start": 72.0995,
      "duration": 0.2398,
      "velocity": 110,
      "chip": "ym2612"
    },
    {
      "channel": 3,
      "note": 77,
      "start": 72.1001,
      "duration": 0.1194,
      "velocity": 100,
      "chip": "ym2612"
    },
    {
      "channel": 4,
      "note": 77,
      "start": 72.1007,
      "duration": 0.1193,
      "velocity": 127,
      "chip": "ym2612"
    },
    {
      "channel": 5,
      "note": 21,
      "start": 72.1028,
      "duration": 0.1178,
      "velocity": 84,
      "chip": "ym2612"
    },
    {
      "channel": 0,
      "note": 41,
      "start": 72.219,
      "duration": 0.1198,
      "velocity": 97,
      "chip": "ym2612"
    },
    {
      "channel": 3,
      "note": 65,
      "start": 72.2196,
      "duration": 0.2295,
      "velocity": 100,
      "chip": "ym2612"
    },
    {
      "channel": 4,
      "note": 65,
      "start": 72.2202,
      "duration": 0.2295,
      "velocity": 127,
      "chip": "ym2612"
    },
    {
      "channel": 5,
      "note": 21,
      "start": 72.2208,
      "duration": 0.3516,
      "velocity": 84,
      "chip": "ym2612"
    },
    {
      "channel": 0,
      "note": 41,
      "start": 72.3389,
      "duration": 0.1095,
      "velocity": 97,
      "chip": "ym2612"
    },
    {
      "channel": 1,
      "note": 65,
      "start": 72.3395,
      "duration": 0.2295,
      "velocity": 110,
      "chip": "ym2612"
    },
    {
      "channel": 0,
      "note": 41,
      "start": 72.4486,
      "duration": 0.1199,
      "velocity": 97,
      "chip": "ym2612"
    },
    {
      "channel": 3,
      "note": 72,
      "start": 72.4493,
      "duration": 0.1203,
      "velocity": 100,
      "chip": "ym2612"
    },
    {
      "channel": 4,
      "note": 65,
      "start": 72.4499,
      "duration": 0.1203,
      "velocity": 127,
      "chip": "ym2612"
    },
    {
      "channel": 0,
      "note": 41,
      "start": 72.5686,
      "duration": 0.1199,
      "velocity": 97,
      "chip": "ym2612"
    },
    {
      "channel": 1,
      "note": 58,
      "start": 72.5692,
      "duration": 0.2398,
      "velocity": 110,
      "chip": "ym2612"
    },
    {
      "channel": 3,
      "note": 65,
      "start": 72.5698,
      "duration": 0.2398,
      "velocity": 100,
      "chip": "ym2612"
    },
    {
      "channel": 4,
      "note": 77,
      "start": 72.5704,
      "duration": 0.1188,
      "velocity": 127,
      "chip": "ym2612"
    },
    {
      "channel": 5,
      "note": 21,
      "start": 72.5725,
      "duration": 0.1173,
      "velocity": 84,
      "chip": "ym2612"
    },
    {
      "channel": 0,
      "note": 41,
      "start": 72.6886,
      "duration": 0.1198,
      "velocity": 97,
      "chip": "ym2612"
    },
    {
      "channel": 4,
      "note": 65,
      "start": 72.6893,
      "duration": 0.2206,
      "velocity": 127,
      "chip": "ym2612"
    },
    {
      "channel": 5,
      "note": 21,
      "start": 72.6899,
      "duration": 0.3396,
      "velocity": 84,
      "chip": "ym2612"
    },
    {
      "channel": 0,
      "note": 41,
      "start": 72.8086,
      "duration": 0.1006,
      "velocity": 97,
      "chip": "ym2612"
    },
    {
      "channel": 1,
      "note": 60,
      "start": 72.8092,
      "duration": 0.217,
      "velocity": 110,
      "chip": "ym2612"
    },
    {
      "channel": 3,
      "note": 77,
      "start": 72.8098,
      "duration": 0.2169,
      "velocity": 100,
      "chip": "ym2612"
    },
    {
      "channel": 0,
      "note": 41,
      "start": 72.9094,
      "duration": 0.1162,
      "velocity": 97,
      "chip": "ym2612"
    },
    {
      "channel": 4,
      "note": 65,
      "start": 72.9101,
      "duration": 0.1172,
      "velocity": 127,
      "chip": "ym2612"
    },
    {
      "channel": 0,
      "note": 41,
      "start": 73.0258,
      "duration": 0.1198,
      "velocity": 97,
      "chip": "ym2612"
    },
    {
      "channel": 1,
      "note": 63,
      "start": 73.0263,
      "duration": 0.3282,
      "velocity": 110,
      "chip": "ym2612"
    },
    {
      "channel": 3,
      "note": 75,
      "start": 73.0269,
      "duration": 0.2202,
      "velocity": 100,
      "chip": "ym2612"
    },
    {
      "channel": 4,
      "note": 77,
      "start": 73.0275,
      "duration": 0.1188,
      "velocity": 127,
      "chip": "ym2612"
    },
    {
      "channel": 5,
      "note": 21,
      "start": 73.0296,
      "duration": 0.4477,
      "velocity": 84,
      "chip": "ym2612"
    },
    {
      "channel": 0,
      "note": 41,
      "start": 73.1458,
      "duration": 0.1006,
      "velocity": 97,
      "chip": "ym2612"
    },
    {
      "channel": 4,
      "note": 65,
      "start": 73.1465,
      "duration": 0.2087,
      "velocity": 127,
      "chip": "ym2612"
    },
    {
      "channel": 0,
      "note": 41,
      "start": 73.2466,
      "duration": 0.1074,
      "velocity": 97,
      "chip": "ym2612"
    },
    {
      "channel": 3,
      "note": 65,
      "start": 73.2473,
      "duration": 0.2274,
      "velocity": 100,
      "chip": "ym2612"
    },
    {
      "channel": 0,
      "note": 41,
      "start": 73.3541,
      "duration": 0.1199,
      "velocity": 97,
      "chip": "ym2612"
    },
    {
      "channel": 1,
      "note": 65,
      "start": 73.3546,
      "duration": 0.2398,
      "velocity": 110,
      "chip": "ym2612"
    },
    {
      "channel": 4,
      "note": 65,
      "start": 73.3554,
      "duration": 0.1198,
      "velocity": 127,
      "chip": "ym2612"
    },
    {
      "channel": 0,
      "note": 41,
      "start": 73.4741,
      "duration": 0.1198,
      "velocity": 97,
      "chip": "ym2612"
    },
    {
      "channel": 3,
      "note": 72,
      "start": 73.4748,
      "duration": 0.2403,
      "velocity": 100,
      "chip": "ym2612"
    },
    {
      "channel": 4,
      "note": 77,
      "start": 73.4754,
      "duration": 0.1198,
      "velocity": 127,
      "chip": "ym2612"
    },
    {
      "channel": 5,
      "note": 21,
      "start": 73.4775,
      "duration": 0.1182,
      "velocity": 84,
      "chip": "ym2612"
    },
    {
      "channel": 0,
      "note": 41,
      "start": 73.5941,
      "duration": 0.1199,
      "velocity": 97,
      "chip": "ym2612"
    },
    {
      "channel": 1,
      "note": 65,
      "start": 73.5946,
      "duration": 0.1199,
      "velocity": 110,
      "chip": "ym2612"
    },
    {
      "channel": 4,
      "note": 65,
      "start": 73.5954,
      "duration": 0.2223,
      "velocity": 127,
      "chip": "ym2612"
    },
    {
      "channel": 5,
      "note": 21,
      "start": 73.5959,
      "duration": 0.3407,
      "velocity": 84,
      "chip": "ym2612"
    },
    {
      "channel": 0,
      "note": 41,
      "start": 73.7141,
      "duration": 0.1028,
      "velocity": 97,
      "chip": "ym2612"
    },
    {
      "channel": 1,
      "note": 66,
      "start": 73.7146,
      "duration": 0.3392,
      "velocity": 110,
      "chip": "ym2612"
    },
    {
      "channel": 3,
      "note": 65,
      "start": 73.7153,
      "duration": 0.2187,
      "velocity": 100,
      "chip": "ym2612"
    },
    {
      "channel": 0,
      "note": 41,
      "start": 73.8171,
      "duration": 0.1161,
      "velocity": 97,
      "chip": "ym2612"
    },
    {
      "channel": 4,
      "note": 65,
      "start": 73.8178,
      "duration": 0.1167,
      "velocity": 127,
      "chip": "ym2612"
    },
    {
      "channel": 0,
      "note": 41,
      "start": 73.9334,
      "duration": 0.1199,
      "velocity": 97,
      "chip": "ym2612"
    },
    {
      "channel": 3,
      "note": 77,
      "start": 73.9341,
      "duration": 0.1203,
      "velocity": 100,
      "chip": "ym2612"
    },
    {
      "channel": 4,
      "note": 77,
      "start": 73.9346,
      "duration": 0.1204,
      "velocity": 127,
      "chip": "ym2612"
    },
    {
      "channel": 5,
      "note": 21,
      "start": 73.9368,
      "duration": 0.1188,
      "velocity": 84,
      "chip": "ym2612"
    },
    {
      "channel": 0,
      "note": 41,
      "start": 74.0534,
      "duration": 0.1199,
      "velocity": 97,
      "chip": "ym2612"
    },
    {
      "channel": 1,
      "note": 66,
      "start": 74.054,
      "duration": 0.2309,
      "velocity": 110,
      "chip": "ym2612"
    },
    {
      "channel": 3,
      "note": 65,
      "start": 74.0546,
      "duration": 0.1231,
      "velocity": 104,
      "chip": "ym2612"
    },
    {
      "channel": 4,
      "note": 65,
      "start": 74.0552,
      "duration": 0.2304,
      "velocity": 127,
      "chip": "ym2612"
    },
    {
      "channel": 5,
      "note": 21,
      "start": 74.0558,
      "duration": 0.3416,
      "velocity": 84,
      "chip": "ym2612"
    },
    {
      "channel": 0,
      "note": 41,
      "start": 74.1735,
      "duration": 0.1108,
      "velocity": 97,
      "chip": "ym2612"
    },
    {
      "channel": 2,
      "note": 75,
      "start": 74.1757,
      "duration": 0.003,
      "velocity": 104,
      "chip": "ym2612"
    },
    {
      "channel": 3,
      "note": 78,
      "start": 74.1779,
      "duration": 0.0011,
      "velocity": 104,
      "chip": "ym2612"
    },
    {
      "channel": 2,
      "note": 76,
      "start": 74.1787,
      "duration": 0.0132,
      "velocity": 104,
      "chip": "ym2612"
    },
    {
      "channel": 3,
      "note": 79,
      "start": 74.179,
      "duration": 0.0132,
      "velocity": 104,
      "chip": "ym2612"
    },
    {
      "channel": 2,
      "note": 77,
      "start": 74.1919,
      "duration": 0.0164,
      "velocity": 104,
      "chip": "ym2612"
    },
    {
      "channel": 3,
      "note": 80,
      "start": 74.1922,
      "duration": 0.0164,
      "velocity": 104,
      "chip": "ym2612"
    },
    {
      "channel": 2,
      "note": 78,
      "start": 74.2083,
      "duration": 0.0187,
      "velocity": 104,
      "chip": "ym2612"
    },
    {
      "channel": 3,
      "note": 81,
      "start": 74.2086,
      "duration": 0.0187,
      "velocity": 104,
      "chip": "ym2612"
    },
    {
      "channel": 2,
      "note": 79,
      "start": 74.227,
      "duration": 0.0186,
      "velocity": 104,
      "chip": "ym2612"
    },
    {
      "channel": 3,
      "note": 82,
      "start": 74.2273,
      "duration": 0.0185,
      "velocity": 104,
      "chip": "ym2612"
    },
    {
      "channel": 2,
      "note": 80,
      "start": 74.2456,
      "duration": 0.0184,
      "velocity": 104,
      "chip": "ym2612"
    },
    {
      "channel": 3,
      "note": 84,
      "start": 74.2458,
      "duration": 0.0185,
      "velocity": 104,
      "chip": "ym2612"
    },
    {
      "channel": 2,
      "note": 81,
      "start": 74.2639,
      "duration": 0.0225,
      "velocity": 104,
      "chip": "ym2612"
    },
    {
      "channel": 3,
      "note": 85,
      "start": 74.2643,
      "duration": 0.0226,
      "velocity": 104,
      "chip": "ym2612"
    },
    {
      "channel": 0,
      "note": 41,
      "start": 74.2845,
      "duration": 0.1085,
      "velocity": 97,
      "chip": "ym2612"
    },
    {
      "channel": 1,
      "note": 66,
      "start": 74.2851,
      "duration": 0.1085,
      "velocity": 110,
      "chip": "ym2612"
    },
    {
      "channel": 4,
      "note": 65,
      "start": 74.2857,
      "duration": 0.1095,
      "velocity": 127,
      "chip": "ym2612"
    },
    {
      "channel": 2,
      "note": 82,
      "start": 74.2865,
      "duration": 0.0144,
      "velocity": 104,
      "chip": "ym2612"
    },
    {
      "channel": 3,
      "note": 86,
      "start": 74.2868,
      "duration": 0.0144,
      "velocity": 104,
      "chip": "ym2612"
    },
    {
      "channel": 2,
      "note": 84,
      "start": 74.3009,
      "duration": 0.0188,
      "velocity": 104,
      "chip": "ym2612"
    },
    {
      "channel": 3,
      "note": 87,
      "start": 74.3012,
      "duration": 0.0188,
      "velocity": 104,
      "chip": "ym2612"
    },
    {
      "channel": 2,
      "note": 85,
      "start": 74.3198,
      "duration": 0.0188,
      "velocity": 104,
      "chip": "ym2612"
    },
    {
      "channel": 3,
      "note": 88,
      "start": 74.32,
      "duration": 0.0188,
      "velocity": 104,
      "chip": "ym2612"
    },
    {
      "channel": 2,
      "note": 86,
      "start": 74.3385,
      "duration": 0.0164,
      "velocity": 104,
      "chip": "ym2612"
    },
    {
      "channel": 3,
      "note": 89,
      "start": 74.3388,
      "duration": 0.0164,
      "velocity": 104,
      "chip": "ym2612"
    },
    {
      "channel": 2,
      "note": 87,
      "start": 74.3549,
      "duration": 0.019,
      "velocity": 104,
      "chip": "ym2612"
    },
    {
      "channel": 3,
      "note": 90,
      "start": 74.3552,
      "duration": 0.0189,
      "velocity": 104,
      "chip": "ym2612"
    },
    {
      "channel": 2,
      "note": 88,
      "start": 74.3739,
      "duration": 0.0202,
      "velocity": 104,
      "chip": "ym2612"
    },
    {
      "channel": 3,
      "note": 91,
      "start": 74.3741,
      "duration": 0.0206,
      "velocity": 104,
      "chip": "ym2612"
    },
    {
      "channel": 0,
      "note": 41,
      "start": 74.3932,
      "duration": 0.1198,
      "velocity": 97,
      "chip": "ym2612"
    },
    {
      "channel": 1,
      "note": 68,
      "start": 74.3937,
      "duration": 0.3435,
      "velocity": 110,
      "chip": "ym2612"
    },
    {
      "channel": 2,
      "note": 87,
      "start": 74.3942,
      "duration": 0.2394,
      "velocity": 104,
      "chip": "ym2612"
    },
    {
      "channel": 3,
      "note": 90,
      "start": 74.3948,
      "duration": 0.2395,
      "velocity": 104,
      "chip": "ym2612"
    },
    {
      "channel": 4,
      "note": 77,
      "start": 74.3954,
      "duration": 0.1183,
      "velocity": 127,
      "chip": "ym2612"
    },
    {
      "channel": 5,
      "note": 21,
      "start": 74.3976,
      "duration": 0.1167,
      "velocity": 84,
      "chip": "ym2612"
    },
    {
      "channel": 0,
      "note": 41,
      "start": 74.5132,
      "duration": 0.1198,
      "velocity": 97,
      "chip": "ym2612"
    },
    {
      "channel": 4,
      "note": 65,
      "start": 74.5139,
      "duration": 0.2241,
      "velocity": 127,
      "chip": "ym2612"
    },
    {
      "channel": 5,
      "note": 21,
      "start": 74.5144,
      "duration": 0.7841,
      "velocity": 84,
      "chip": "ym2612"
    },
    {
      "channel": 0,
      "note": 41,
      "start": 74.6332,
      "duration": 0.1036,
      "velocity": 97,
      "chip": "ym2612"
    },
    {
      "channel": 2,
      "note": 78,
      "start": 74.6339,
      "duration": 0.0015,
      "velocity": 104,
      "chip": "ym2612"
    },
    {
      "channel": 3,
      "note": 80,
      "start": 74.6345,
      "duration": 0.0011,
      "velocity": 104,
      "chip": "ym2612"
    },
    {
      "channel": 2,
      "note": 79,
      "start": 74.6353,
      "duration": 0.0143,
      "velocity": 104,
      "chip": "ym2612"
    },
    {
      "channel": 3,
      "note": 82,
      "start": 74.6356,
      "duration": 0.0143,
      "velocity": 104,
      "chip": "ym2612"
    },
    {
      "channel": 2,
      "note": 80,
      "start": 74.6496,
      "duration": 0.0188,
      "velocity": 104,
      "chip": "ym2612"
    },
    {
      "channel": 3,
      "note": 83,
      "start": 74.6499,
      "duration": 0.0188,
      "velocity": 104,
      "chip": "ym2612"
    },
    {
      "channel": 2,
      "note": 81,
      "start": 74.6684,
      "duration": 0.0164,
      "velocity": 104,
      "chip": "ym2612"
    },
    {
      "channel": 3,
      "note": 84,
      "start": 74.6687,
      "duration": 0.0164,
      "velocity": 104,
      "chip": "ym2612"
    },
    {
      "channel": 2,
      "note": 82,
      "start": 74.6848,
      "duration": 0.0163,
      "velocity": 104,
      "chip": "ym2612"
    },
    {
      "channel": 3,
      "note": 85,
      "start": 74.685,
      "duration": 0.0163,
      "velocity": 104,
      "chip": "ym2612"
    },
    {
      "channel": 2,
      "note": 84,
      "start": 74.701,
      "duration": 0.0165,
      "velocity": 104,
      "chip": "ym2612"
    },
    {
      "channel": 3,
      "note": 86,
      "start": 74.7014,
      "duration": 0.0165,
      "velocity": 104,
      "chip": "ym2612"
    },
    {
      "channel": 2,
      "note": 85,
      "start": 74.7175,
      "duration": 0.0211,
      "velocity": 104,
      "chip": "ym2612"
    },
    {
      "channel": 3,
      "note": 88,
      "start": 74.7178,
      "duration": 0.021,
      "velocity": 104,
      "chip": "ym2612"
    },
    {
      "channel": 0,
      "note": 41,
      "start": 74.7369,
      "duration": 0.1156,
      "velocity": 97,
      "chip": "ym2612"
    },
    {
      "channel": 1,
      "note": 66,
      "start": 74.7374,
      "duration": 0.2237,
      "velocity": 110,
      "chip": "ym2612"
    },
    {
      "channel": 4,
      "note": 65,
      "start": 74.7381,
      "duration": 0.116,
      "velocity": 127,
      "chip": "ym2612"
    },
    {
      "channel": 2,
      "note": 86,
      "start": 74.7386,
      "duration": 0.0145,
      "velocity": 104,
      "chip": "ym2612"
    },
    {
      "channel": 3,
      "note": 89,
      "start": 74.7388,
      "duration": 0.0145,
      "velocity": 104,
      "chip": "ym2612"
    },
    {
      "channel": 2,
      "note": 87,
      "start": 74.7531,
      "duration": 0.019,
      "velocity": 104,
      "chip": "ym2612"
    },
    {
      "channel": 3,
      "note": 89,
      "start": 74.7534,
      "duration": 0.019,
      "velocity": 104,
      "chip": "ym2612"
    },
    {
      "channel": 2,
      "note": 88,
      "start": 74.772,
      "duration": 0.02,
      "velocity": 104,
      "chip": "ym2612"
    },
    {
      "channel": 3,
      "note": 90,
      "start": 74.7724,
      "duration": 0.02,
      "velocity": 104,
      "chip": "ym2612"
    },
    {
      "channel": 2,
      "note": 89,
      "start": 74.792,
      "duration": 0.02,
      "velocity": 104,
      "chip": "ym2612"
    },
    {
      "channel": 3,
      "note": 91,
      "start": 74.7924,
      "duration": 0.02,
      "velocity": 104,
      "chip": "ym2612"
    },
    {
      "channel": 2,
      "note": 90,
      "start": 74.812,
      "duration": 0.02,
      "velocity": 104,
      "chip": "ym2612"
    },
    {
      "channel": 3,
      "note": 92,
      "start": 74.8124,
      "duration": 0.02,
      "velocity": 104,
      "chip": "ym2612"
    },
    {
      "channel": 2,
      "note": 91,
      "start": 74.832,
      "duration": 0.021,
      "velocity": 104,
      "chip": "ym2612"
    },
    {
      "channel": 3,
      "note": 93,
      "start": 74.8324,
      "duration": 0.0213,
      "velocity": 104,
      "chip": "ym2612"
    },
    {
      "channel": 0,
      "note": 41,
      "start": 74.8526,
      "duration": 0.1079,
      "velocity": 97,
      "chip": "ym2612"
    },
    {
      "channel": 2,
      "note": 90,
      "start": 74.8532,
      "duration": 0.2177,
      "velocity": 97,
      "chip": "ym2612"
    },
    {
      "channel": 3,
      "note": 92,
      "start": 74.8538,
      "duration": 0.2193,
      "velocity": 100,
      "chip": "ym2612"
    },
    {
      "channel": 4,
      "note": 77,
      "start": 74.8543,
      "duration": 0.1074,
      "velocity": 127,
      "chip": "ym2612"
    },
    {
      "channel": 0,
      "note": 41,
      "start": 74.9607,
      "duration": 0.108,
      "velocity": 97,
      "chip": "ym2612"
    },
    {
      "channel": 1,
      "note": 68,
      "start": 74.9612,
      "duration": 0.3355,
      "velocity": 110,
      "chip": "ym2612"
    },
    {
      "channel": 4,
      "note": 65,
      "start": 74.9619,
      "duration": 0.2149,
      "velocity": 127,
      "chip": "ym2612"
    },
    {
      "channel": 0,
      "note": 41,
      "start": 75.0689,
      "duration": 0.1072,
      "velocity": 97,
      "chip": "ym2612"
    },
    {
      "channel": 2,
      "note": 60,
      "start": 75.0711,
      "duration": 6.4219,
      "velocity": 104,
      "chip": "ym2612"
    },
    {
      "channel": 3,
      "note": 65,
      "start": 75.0732,
      "duration": 0.2241,
      "velocity": 100,
      "chip": "ym2612"
    },
    {
      "channel": 0,
      "note": 41,
      "start": 75.1763,
      "duration": 0.1198,
      "velocity": 97,
      "chip": "ym2612"
    },
    {
      "channel": 4,
      "note": 65,
      "start": 75.1771,
      "duration": 0.1208,
      "velocity": 127,
      "chip": "ym2612"
    },
    {
      "channel": 0,
      "note": 41,
      "start": 75.2963,
      "duration": 0.1198,
      "velocity": 97,
      "chip": "ym2612"
    },
    {
      "channel": 1,
      "note": 65,
      "start": 75.2968,
      "duration": 0.2398,
      "velocity": 110,
      "chip": "ym2612"
    },
    {
      "channel": 3,
      "note": 72,
      "start": 75.2975,
      "duration": 0.2397,
      "velocity": 100,
      "chip": "ym2612"
    },
    {
      "channel": 4,
      "note": 77,
      "start": 75.2981,
      "duration": 0.1187,
      "velocity": 127,
      "chip": "ym2612"
    },
    {
      "channel": 5,
      "note": 21,
      "start": 75.2987,
      "duration": 0.1187,
      "velocity": 84,
      "chip": "ym2612"
    },
    {
      "channel": 0,
      "note": 41,
      "start": 75.4163,
      "duration": 0.1198,
      "velocity": 97,
      "chip": "ym2612"
    },
    {
      "channel": 4,
      "note": 65,
      "start": 75.417,
      "duration": 0.2207,
      "velocity": 127,
      "chip": "ym2612"
    },
    {
      "channel": 5,
      "note": 21,
      "start": 75.4176,
      "duration": 0.3399,
      "velocity": 84,
      "chip": "ym2612"
    },
    {
      "channel": 0,
      "note": 41,
      "start": 75.5362,
      "duration": 0.1007,
      "velocity": 97,
      "chip": "ym2612"
    },
    {
      "channel": 1,
      "note": 58,
      "start": 75.5368,
      "duration": 0.2173,
      "velocity": 110,
      "chip": "ym2612"
    },
    {
      "channel": 3,
      "note": 65,
      "start": 75.5374,
      "duration": 0.2172,
      "velocity": 100,
      "chip": "ym2612"
    },
    {
      "channel": 0,
      "note": 41,
      "start": 75.6371,
      "duration": 0.1164,
      "velocity": 97,
      "chip": "ym2612"
    },
    {
      "channel": 4,
      "note": 65,
      "start": 75.6379,
      "duration": 0.1173,
      "velocity": 127,
      "chip": "ym2612"
    },
    {
      "channel": 0,
      "note": 41,
      "start": 75.7537,
      "duration": 0.1198,
      "velocity": 97,
      "chip": "ym2612"
    },
    {
      "channel": 1,
      "note": 60,
      "start": 75.7542,
      "duration": 0.2398,
      "velocity": 110,
      "chip": "ym2612"
    },
    {
      "channel": 3,
      "note": 77,
      "start": 75.7549,
      "duration": 0.1194,
      "velocity": 100,
      "chip": "ym2612"
    },
    {
      "channel": 4,
      "note": 77,
      "start": 75.7554,
      "duration": 0.1193,
      "velocity": 127,
      "chip": "ym2612"
    },
    {
      "channel": 5,
      "note": 21,
      "start": 75.7575,
      "duration": 0.1178,
      "velocity": 84,
      "chip": "ym2612"
    },
    {
      "channel": 0,
      "note": 41,
      "start": 75.8737,
      "duration": 0.1198,
      "velocity": 97,
      "chip": "ym2612"
    },
    {
      "channel": 3,
      "note": 65,
      "start": 75.8743,
      "duration": 0.2295,
      "velocity": 100,
      "chip": "ym2612"
    },
    {
      "channel": 4,
      "note": 65,
      "start": 75.8749,
      "duration": 0.2294,
      "velocity": 127,
      "chip": "ym2612"
    },
    {
      "channel": 5,
      "note": 21,
      "start": 75.8755,
      "duration": 0.3516,
      "velocity": 84,
      "chip": "ym2612"
    },
    {
      "channel": 0,
      "note": 41,
      "start": 75.9936,
      "duration": 0.1095,
      "velocity": 97,
      "chip": "ym2612"
    },
    {
      "channel": 1,
      "note": 65,
      "start": 75.9942,
      "duration": 0.2295,
      "velocity": 110,
      "chip": "ym2612"
    },
    {
      "channel": 0,
      "note": 41,
      "start": 76.1033,
      "duration": 0.1199,
      "velocity": 97,
      "chip": "ym2612"
    },
    {
      "channel": 3,
      "note": 72,
      "start": 76.104,
      "duration": 0.1203,
      "velocity": 100,
      "chip": "ym2612"
    },
    {
      "channel": 4,
      "note": 65,
      "start": 76.1046,
      "duration": 0.1203,
      "velocity": 127,
      "chip": "ym2612"
    },
    {
      "channel": 0,
      "note": 41,
      "start": 76.2233,
      "duration": 0.1198,
      "velocity": 97,
      "chip": "ym2612"
    },
    {
      "channel": 1,
      "note": 58,
      "start": 76.2239,
      "duration": 0.2398,
      "velocity": 110,
      "chip": "ym2612"
    },
    {
      "channel": 3,
      "note": 65,
      "start": 76.2245,
      "duration": 0.2398,
      "velocity": 100,
      "chip": "ym2612"
    },
    {
      "channel": 4,
      "note": 77,
      "start": 76.2251,
      "duration": 0.1188,
      "velocity": 127,
      "chip": "ym2612"
    },
    {
      "channel": 5,
      "note": 21,
      "start": 76.2272,
      "duration": 0.1173,
      "velocity": 84,
      "chip": "ym2612"
    },
    {
      "channel": 0,
      "note": 41,
      "start": 76.3433,
      "duration": 0.1198,
      "velocity": 97,
      "chip": "ym2612"
    },
    {
      "channel": 4,
      "note": 65,
      "start": 76.344,
      "duration": 0.2207,
      "velocity": 127,
      "chip": "ym2612"
    },
    {
      "channel": 5,
      "note": 21,
      "start": 76.3446,
      "duration": 0.3399,
      "velocity": 84,
      "chip": "ym2612"
    },
    {
      "channel": 0,
      "note": 41,
      "start": 76.4633,
      "duration": 0.1007,
      "velocity": 97,
      "chip": "ym2612"
    },
    {
      "channel": 1,
      "note": 60,
      "start": 76.4639,
      "duration": 0.2173,
      "velocity": 110,
      "chip": "ym2612"
    },
    {
      "channel": 3,
      "note": 77,
      "start": 76.4645,
      "duration": 0.2172,
      "velocity": 100,
      "chip": "ym2612"
    },
    {
      "channel": 0,
      "note": 41,
      "start": 76.5642,
      "duration": 0.1164,
      "velocity": 97,
      "chip": "ym2612"
    },
    {
      "channel": 4,
      "note": 65,
      "start": 76.565,
      "duration": 0.1173,
      "velocity": 127,
      "chip": "ym2612"
    },
    {
      "channel": 0,
      "note": 41,
      "start": 76.6807,
      "duration": 0.1198,
      "velocity": 97,
      "chip": "ym2612"
    },
    {
      "channel": 1,
      "note": 63,
      "start": 76.6813,
      "duration": 0.2206,
      "velocity": 110,
      "chip": "ym2612"
    },
    {
      "channel": 3,
      "note": 75,
      "start": 76.6819,
      "duration": 0.2206,
      "velocity": 100,
      "chip": "ym2612"
    },
    {
      "channel": 4,
      "note": 77,
      "start": 76.6825,
      "duration": 0.1188,
      "velocity": 127,
      "chip": "ym2612"
    },
    {
      "channel": 5,
      "note": 21,
      "start": 76.6846,
      "duration": 0.4526,
      "velocity": 84,
      "chip": "ym2612"
    },
    {
      "channel": 0,
      "note": 41,
      "start": 76.8007,
      "duration": 0.1006,
      "velocity": 97,
      "chip": "ym2612"
    },
    {
      "channel": 4,
      "note": 65,
      "start": 76.8015,
      "duration": 0.2125,
      "velocity": 127,
      "chip": "ym2612"
    },
    {
      "channel": 0,
      "note": 41,
      "start": 76.9015,
      "duration": 0.1118,
      "velocity": 97,
      "chip": "ym2612"
    },
    {
      "channel": 1,
      "note": 65,
      "start": 76.9021,
      "duration": 0.2317,
      "velocity": 110,
      "chip": "ym2612"
    },
    {
      "channel": 3,
      "note": 65,
      "start": 76.9027,
      "duration": 0.2317,
      "velocity": 100,
      "chip": "ym2612"
    },
    {
      "channel": 0,
      "note": 41,
      "start": 77.0134,
      "duration": 0.1199,
      "velocity": 97,
      "chip": "ym2612"
    },
    {
      "channel": 4,
      "note": 65,
      "start": 77.0142,
      "duration": 0.1208,
      "velocity": 127,
      "chip": "ym2612"
    },
    {
      "channel": 0,
      "note": 41,
      "start": 77.1334,
      "duration": 0.1199,
      "velocity": 97,
      "chip": "ym2612"
    },
    {
      "channel": 1,
      "note": 66,
      "start": 77.134,
      "duration": 0.2398,
      "velocity": 110,
      "chip": "ym2612"
    },
    {
      "channel": 3,
      "note": 72,
      "start": 77.1346,
      "duration": 0.2398,
      "velocity": 100,
      "chip": "ym2612"
    },
    {
      "channel": 4,
      "note": 77,
      "start": 77.1352,
      "duration": 0.1188,
      "velocity": 127,
      "chip": "ym2612"
    },
    {
      "channel": 5,
      "note": 21,
      "start": 77.1373,
      "duration": 0.1173,
      "velocity": 84,
      "chip": "ym2612"
    },
    {
      "channel": 0,
      "note": 41,
      "start": 77.2535,
      "duration": 0.1198,
      "velocity": 97,
      "chip": "ym2612"
    },
    {
      "channel": 4,
      "note": 65,
      "start": 77.2542,
      "duration": 0.2207,
      "velocity": 127,
      "chip": "ym2612"
    },
    {
      "channel": 5,
      "note": 21,
      "start": 77.2547,
      "duration": 0.3399,
      "velocity": 84,
      "chip": "ym2612"
    },
    {
      "channel": 0,
      "note": 41,
      "start": 77.3734,
      "duration": 0.1007,
      "velocity": 97,
      "chip": "ym2612"
    },
    {
      "channel": 1,
      "note": 68,
      "start": 77.374,
      "duration": 0.2172,
      "velocity": 110,
      "chip": "ym2612"
    },
    {
      "channel": 3,
      "note": 65,
      "start": 77.3746,
      "duration": 0.2172,
      "velocity": 100,
      "chip": "ym2612"
    },
    {
      "channel": 0,
      "note": 41,
      "start": 77.4743,
      "duration": 0.1164,
      "velocity": 97,
      "chip": "ym2612"
    },
    {
      "channel": 4,
      "note": 65,
      "start": 77.4751,
      "duration": 0.1173,
      "velocity": 127,
      "chip": "ym2612"
    },
    {
      "channel": 0,
      "note": 41,
      "start": 77.5908,
      "duration": 0.1199,
      "velocity": 97,
      "chip": "ym2612"
    },
    {
      "channel": 1,
      "note": 63,
      "start": 77.5914,
      "duration": 0.5699,
      "velocity": 114,
      "chip": "ym2612"
    },
    {
      "channel": 3,
      "note": 77,
      "start": 77.592,
      "duration": 0.1194,
      "velocity": 100,
      "chip": "ym2612"
    },
    {
      "channel": 4,
      "note": 77,
      "start": 77.5926,
      "duration": 0.1193,
      "velocity": 127,
      "chip": "ym2612"
    },
    {
      "channel": 5,
      "note": 21,
      "start": 77.5947,
      "duration": 0.1178,
      "velocity": 84,
      "chip": "ym2612"
    },
    {
      "channel": 0,
      "note": 41,
      "start": 77.7109,
      "duration": 0.1198,
      "velocity": 97,
      "chip": "ym2612"
    },
    {
      "channel": 3,
      "note": 65,
      "start": 77.7115,
      "duration": 0.2274,
      "velocity": 100,
      "chip": "ym2612"
    },
    {
      "channel": 4,
      "note": 65,
      "start": 77.7121,
      "duration": 0.2274,
      "velocity": 127,
      "chip": "ym2612"
    },
    {
      "channel": 5,
      "note": 21,
      "start": 77.7127,
      "duration": 0.3299,
      "velocity": 84,
      "chip": "ym2612"
    },
    {
      "channel": 0,
      "note": 41,
      "start": 77.8308,
      "duration": 0.1074,
      "velocity": 97,
      "chip": "ym2612"
    },
    {
      "channel": 0,
      "note": 41,
      "start": 77.9384,
      "duration": 0.1007,
      "velocity": 97,
      "chip": "ym2612"
    },
    {
      "channel": 3,
      "note": 72,
      "start": 77.9391,
      "duration": 0.1007,
      "velocity": 100,
      "chip": "ym2612"
    },
    {
      "channel": 4,
      "note": 65,
      "start": 77.9397,
      "duration": 0.1007,
      "velocity": 127,
      "chip": "ym2612"
    },
    {
      "channel": 0,
      "note": 41,
      "start": 78.0393,
      "duration": 0.1198,
      "velocity": 97,
      "chip": "ym2612"
    },
    {
      "channel": 3,
      "note": 65,
      "start": 78.04,
      "duration": 0.2403,
      "velocity": 100,
      "chip": "ym2612"
    },
    {
      "channel": 4,
      "note": 77,
      "start": 78.0406,
      "duration": 0.1214,
      "velocity": 127,
      "chip": "ym2612"
    },
    {
      "channel": 5,
      "note": 21,
      "start": 78.0427,
      "duration": 0.1198,
      "velocity": 84,
      "chip": "ym2612"
    },
    {
      "channel": 0,
      "note": 41,
      "start": 78.1593,
      "duration": 0.1199,
      "velocity": 97,
      "chip": "ym2612"
    },
    {
      "channel": 1,
      "note": 66,
      "start": 78.1615,
      "duration": 0.1182,
      "velocity": 114,
      "chip": "ym2612"
    },
    {
      "channel": 4,
      "note": 65,
      "start": 78.1621,
      "duration": 0.2192,
      "velocity": 127,
      "chip": "ym2612"
    },
    {
      "channel": 5,
      "note": 21,
      "start": 78.1627,
      "duration": 0.3377,
      "velocity": 84,
      "chip": "ym2612"
    },
    {
      "channel": 0,
      "note": 41,
      "start": 78.2793,
      "duration": 0.1007,
      "velocity": 97,
      "chip": "ym2612"
    },
    {
      "channel": 1,
      "note": 78,
      "start": 78.2799,
      "duration": 0.1007,
      "velocity": 114,
      "chip": "ym2612"
    },
    {
      "channel": 3,
      "note": 77,
      "start": 78.2805,
      "duration": 0.2171,
      "velocity": 100,
      "chip": "ym2612"
    },
    {
      "channel": 0,
      "note": 41,
      "start": 78.3802,
      "duration": 0.1162,
      "velocity": 97,
      "chip": "ym2612"
    },
    {
      "channel": 1,
      "note": 73,
      "start": 78.3808,
      "duration": 0.1162,
      "velocity": 114,
      "chip": "ym2612"
    },
    {
      "channel": 4,
      "note": 65,
      "start": 78.3814,
      "duration": 0.1167,
      "velocity": 127,
      "chip": "ym2612"
    },
    {
      "channel": 0,
      "note": 41,
      "start": 78.4966,
      "duration": 0.1198,
      "velocity": 97,
      "chip": "ym2612"
    },
    {
      "channel": 1,
      "note": 66,
      "start": 78.4971,
      "duration": 0.1199,
      "velocity": 114,
      "chip": "ym2612"
    },
    {
      "channel": 3,
      "note": 75,
      "start": 78.4978,
      "duration": 0.2275,
      "velocity": 100,
      "chip": "ym2612"
    },
    {
      "channel": 4,
      "note": 77,
      "start": 78.4983,
      "duration": 0.1193,
      "velocity": 127,
      "chip": "ym2612"
    },
    {
      "channel": 5,
      "note": 21,
      "start": 78.5005,
      "duration": 0.4615,
      "velocity": 84,
      "chip": "ym2612"
    },
    {
      "channel": 0,
      "note": 41,
      "start": 78.6166,
      "duration": 0.1079,
      "velocity": 97,
      "chip": "ym2612"
    },
    {
      "channel": 1,
      "note": 65,
      "start": 78.6171,
      "duration": 0.3414,
      "velocity": 110,
      "chip": "ym2612"
    },
    {
      "channel": 4,
      "note": 65,
      "start": 78.6178,
      "duration": 0.2193,
      "velocity": 127,
      "chip": "ym2612"
    },
    {
      "channel": 0,
      "note": 41,
      "start": 78.7247,
      "duration": 0.1116,
      "velocity": 97,
      "chip": "ym2612"
    },
    {
      "channel": 3,
      "note": 65,
      "start": 78.7254,
      "duration": 0.2337,
      "velocity": 100,
      "chip": "ym2612"
    },
    {
      "channel": 0,
      "note": 41,
      "start": 78.8365,
      "duration": 0.1199,
      "velocity": 97,
      "chip": "ym2612"
    },
    {
      "channel": 4,
      "note": 65,
      "start": 78.8373,
      "duration": 0.1224,
      "velocity": 127,
      "chip": "ym2612"
    },
    {
      "channel": 0,
      "note": 41,
      "start": 78.9565,
      "duration": 0.1199,
      "velocity": 97,
      "chip": "ym2612"
    },
    {
      "channel": 1,
      "note": 65,
      "start": 78.9587,
      "duration": 0.2382,
      "velocity": 110,
      "chip": "ym2612"
    },
    {
      "channel": 3,
      "note": 72,
      "start": 78.9593,
      "duration": 0.2382,
      "velocity": 100,
      "chip": "ym2612"
    },
    {
      "channel": 4,
      "note": 77,
      "start": 78.9599,
      "duration": 0.1172,
      "velocity": 127,
      "chip": "ym2612"
    },
    {
      "channel": 5,
      "note": 21,
      "start": 78.962,
      "duration": 0.1157,
      "velocity": 84,
      "chip": "ym2612"
    },
    {
      "channel": 0,
      "note": 41,
      "start": 79.0766,
      "duration": 0.1198,
      "velocity": 97,
      "chip": "ym2612"
    },
    {
      "channel": 4,
      "note": 65,
      "start": 79.0773,
      "duration": 0.2206,
      "velocity": 127,
      "chip": "ym2612"
    },
    {
      "channel": 5,
      "note": 21,
      "start": 79.0779,
      "duration": 0.3396,
      "velocity": 84,
      "chip": "ym2612"
    },
    {
      "channel": 0,
      "note": 41,
      "start": 79.1965,
      "duration": 0.1006,
      "velocity": 97,
      "chip": "ym2612"
    },
    {
      "channel": 1,
      "note": 58,
      "start": 79.1971,
      "duration": 0.217,
      "velocity": 110,
      "chip": "ym2612"
    },
    {
      "channel": 3,
      "note": 65,
      "start": 79.1978,
      "duration": 0.2169,
      "velocity": 100,
      "chip": "ym2612"
    },
    {
      "channel": 0,
      "note": 41,
      "start": 79.2973,
      "duration": 0.1162,
      "velocity": 97,
      "chip": "ym2612"
    },
    {
      "channel": 4,
      "note": 65,
      "start": 79.298,
      "duration": 0.1172,
      "velocity": 127,
      "chip": "ym2612"
    },
    {
      "channel": 0,
      "note": 41,
      "start": 79.4137,
      "duration": 0.1198,
      "velocity": 97,
      "chip": "ym2612"
    },
    {
      "channel": 1,
      "note": 60,
      "start": 79.4142,
      "duration": 0.2398,
      "velocity": 110,
      "chip": "ym2612"
    },
    {
      "channel": 3,
      "note": 77,
      "start": 79.4149,
      "duration": 0.1194,
      "velocity": 100,
      "chip": "ym2612"
    },
    {
      "channel": 4,
      "note": 77,
      "start": 79.4154,
      "duration": 0.1193,
      "velocity": 127,
      "chip": "ym2612"
    },
    {
      "channel": 5,
      "note": 21,
      "start": 79.4176,
      "duration": 0.1178,
      "velocity": 84,
      "chip": "ym2612"
    },
    {
      "channel": 0,
      "note": 41,
      "start": 79.5337,
      "duration": 0.1198,
      "velocity": 97,
      "chip": "ym2612"
    },
    {
      "channel": 3,
      "note": 65,
      "start": 79.5344,
      "duration": 0.2295,
      "velocity": 100,
      "chip": "ym2612"
    },
    {
      "channel": 4,
      "note": 65,
      "start": 79.5349,
      "duration": 0.2294,
      "velocity": 127,
      "chip": "ym2612"
    },
    {
      "channel": 5,
      "note": 21,
      "start": 79.5355,
      "duration": 0.3516,
      "velocity": 84,
      "chip": "ym2612"
    },
    {
      "channel": 0,
      "note": 41,
      "start": 79.6537,
      "duration": 0.1095,
      "velocity": 97,
      "chip": "ym2612"
    },
    {
      "channel": 1,
      "note": 65,
      "start": 79.6542,
      "duration": 0.2295,
      "velocity": 110,
      "chip": "ym2612"
    },
    {
      "channel": 0,
      "note": 41,
      "start": 79.7633,
      "duration": 0.1199,
      "velocity": 97,
      "chip": "ym2612"
    },
    {
      "channel": 3,
      "note": 72,
      "start": 79.764,
      "duration": 0.1203,
      "velocity": 100,
      "chip": "ym2612"
    },
    {
      "channel": 4,
      "note": 65,
      "start": 79.7646,
      "duration": 0.1203,
      "velocity": 127,
      "chip": "ym2612"
    },
    {
      "channel": 0,
      "note": 41,
      "start": 79.8834,
      "duration": 0.1198,
      "velocity": 97,
      "chip": "ym2612"
    },
    {
      "channel": 1,
      "note": 58,
      "start": 79.8839,
      "duration": 0.2398,
      "velocity": 110,
      "chip": "ym2612"
    },
    {
      "channel": 3,
      "note": 65,
      "start": 79.8845,
      "duration": 0.2398,
      "velocity": 100,
      "chip": "ym2612"
    },
    {
      "channel": 4,
      "note": 77,
      "start": 79.8851,
      "duration": 0.1188,
      "velocity": 127,
      "chip": "ym2612"
    },
    {
      "channel": 5,
      "note": 21,
      "start": 79.8872,
      "duration": 0.1173,
      "velocity": 84,
      "chip": "ym2612"
    },
    {
      "channel": 0,
      "note": 41,
      "start": 80.0034,
      "duration": 0.1198,
      "velocity": 97,
      "chip": "ym2612"
    },
    {
      "channel": 4,
      "note": 65,
      "start": 80.0041,
      "duration": 0.2206,
      "velocity": 127,
      "chip": "ym2612"
    },
    {
      "channel": 5,
      "note": 21,
      "start": 80.0046,
      "duration": 0.3396,
      "velocity": 84,
      "chip": "ym2612"
    },
    {
      "channel": 0,
      "note": 41,
      "start": 80.1233,
      "duration": 0.1006,
      "velocity": 97,
      "chip": "ym2612"
    },
    {
      "channel": 1,
      "note": 60,
      "start": 80.1239,
      "duration": 0.2169,
      "velocity": 110,
      "chip": "ym2612"
    },
    {
      "channel": 3,
      "note": 77,
      "start": 80.1245,
      "duration": 0.2169,
      "velocity": 100,
      "chip": "ym2612"
    },
    {
      "channel": 0,
      "note": 41,
      "start": 80.2241,
      "duration": 0.1162,
      "velocity": 97,
      "chip": "ym2612"
    },
    {
      "channel": 4,
      "note": 65,
      "start": 80.2248,
      "duration": 0.1172,
      "velocity": 127,
      "chip": "ym2612"
    },
    {
      "channel": 0,
      "note": 41,
      "start": 80.3404,
      "duration": 0.1199,
      "velocity": 97,
      "chip": "ym2612"
    },
    {
      "channel": 1,
      "note": 63,
      "start": 80.341,
      "duration": 0.3283,
      "velocity": 110,
      "chip": "ym2612"
    },
    {
      "channel": 3,
      "note": 75,
      "start": 80.3417,
      "duration": 0.2202,
      "velocity": 100,
      "chip": "ym2612"
    },
    {
      "channel": 4,
      "note": 77,
      "start": 80.3422,
      "duration": 0.1188,
      "velocity": 127,
      "chip": "ym2612"
    },
    {
      "channel": 5,
      "note": 21,
      "start": 80.3443,
      "duration": 0.4479,
      "velocity": 84,
      "chip": "ym2612"
    },
    {
      "channel": 0,
      "note": 41,
      "start": 80.4605,
      "duration": 0.1006,
      "velocity": 97,
      "chip": "ym2612"
    },
    {
      "channel": 4,
      "note": 65,
      "start": 80.4612,
      "duration": 0.2089,
      "velocity": 127,
      "chip": "ym2612"
    },
    {
      "channel": 0,
      "note": 41,
      "start": 80.5613,
      "duration": 0.1076,
      "velocity": 97,
      "chip": "ym2612"
    },
    {
      "channel": 3,
      "note": 65,
      "start": 80.5619,
      "duration": 0.2276,
      "velocity": 100,
      "chip": "ym2612"
    },
    {
      "channel": 0,
      "note": 41,
      "start": 80.669,
      "duration": 0.1199,
      "velocity": 97,
      "chip": "ym2612"
    },
    {
      "channel": 1,
      "note": 65,
      "start": 80.6696,
      "duration": 0.2398,
      "velocity": 110,
      "chip": "ym2612"
    },
    {
      "channel": 4,
      "note": 65,
      "start": 80.6703,
      "duration": 0.1198,
      "velocity": 127,
      "chip": "ym2612"
    },
    {
      "channel": 0,
      "note": 41,
      "start": 80.789,
      "duration": 0.1198,
      "velocity": 97,
      "chip": "ym2612"
    },
    {
      "channel": 3,
      "note": 72,
      "start": 80.7897,
      "duration": 0.2403,
      "velocity": 100,
      "chip": "ym2612"
    },
    {
      "channel": 4,
      "note": 77,
      "start": 80.7903,
      "duration": 0.1198,
      "velocity": 127,
      "chip": "ym2612"
    },
    {
      "channel": 5,
      "note": 21,
      "start": 80.7924,
      "duration": 0.1182,
      "velocity": 84,
      "chip": "ym2612"
    },
    {
      "channel": 0,
      "note": 41,
      "start": 80.909,
      "duration": 0.1199,
      "velocity": 97,
      "chip": "ym2612"
    },
    {
      "channel": 1,
      "note": 65,
      "start": 80.9096,
      "duration": 0.1199,
      "velocity": 110,
      "chip": "ym2612"
    },
    {
      "channel": 4,
      "note": 65,
      "start": 80.9103,
      "duration": 0.2224,
      "velocity": 127,
      "chip": "ym2612"
    },
    {
      "channel": 5,
      "note": 21,
      "start": 80.9108,
      "duration": 0.3433,
      "velocity": 84,
      "chip": "ym2612"
    },
    {
      "channel": 0,
      "note": 41,
      "start": 81.029,
      "duration": 0.1029,
      "velocity": 97,
      "chip": "ym2612"
    },
    {
      "channel": 1,
      "note": 66,
      "start": 81.0296,
      "duration": 0.3417,
      "velocity": 110,
      "chip": "ym2612"
    },
    {
      "channel": 3,
      "note": 65,
      "start": 81.0302,
      "duration": 0.2212,
      "velocity": 100,
      "chip": "ym2612"
    },
    {
      "channel": 0,
      "note": 41,
      "start": 81.1321,
      "duration": 0.1186,
      "velocity": 97,
      "chip": "ym2612"
    },
    {
      "channel": 4,
      "note": 65,
      "start": 81.1329,
      "duration": 0.1191,
      "velocity": 127,
      "chip": "ym2612"
    },
    {
      "channel": 0,
      "note": 41,
      "start": 81.2509,
      "duration": 0.1199,
      "velocity": 97,
      "chip": "ym2612"
    },
    {
      "channel": 3,
      "note": 77,
      "start": 81.2516,
      "duration": 0.1203,
      "velocity": 100,
      "chip": "ym2612"
    },
    {
      "channel": 4,
      "note": 77,
      "start": 81.2521,
      "duration": 0.1204,
      "velocity": 127,
      "chip": "ym2612"
    },
    {
      "channel": 5,
      "note": 21,
      "start": 81.2543,
      "duration": 0.1188,
      "velocity": 84,
      "chip": "ym2612"
    },
    {
      "channel": 0,
      "note": 41,
      "start": 81.3709,
      "duration": 0.1199,
      "velocity": 97,
      "chip": "ym2612"
    },
    {
      "channel": 1,
      "note": 66,
      "start": 81.3715,
      "duration": 0.2287,
      "velocity": 110,
      "chip": "ym2612"
    },
    {
      "channel": 3,
      "note": 65,
      "start": 81.3721,
      "duration": 0.1231,
      "velocity": 104,
      "chip": "ym2612"
    },
    {
      "channel": 4,
      "note": 65,
      "start": 81.3727,
      "duration": 0.2282,
      "velocity": 127,
      "chip": "ym2612"
    },
    {
      "channel": 5,
      "note": 21,
      "start": 81.3733,
      "duration": 0.3394,
      "velocity": 84,
      "chip": "ym2612"
    },
    {
      "channel": 0,
      "note": 41,
      "start": 81.491,
      "duration": 0.1086,
      "velocity": 97,
      "chip": "ym2612"
    },
    {
      "channel": 2,
      "note": 75,
      "start": 81.4932,
      "duration": 0.003,
      "velocity": 104,
      "chip": "ym2612"
    },
    {
      "channel": 3,
      "note": 78,
      "start": 81.4954,
      "duration": 0.0011,
      "velocity": 104,
      "chip": "ym2612"
    },
    {
      "channel": 2,
      "note": 76,
      "start": 81.4962,
      "duration": 0.0132,
      "velocity": 104,
      "chip": "ym2612"
    },
    {
      "channel": 3,
      "note": 79,
      "start": 81.4965,
      "duration": 0.0132,
      "velocity": 104,
      "chip": "ym2612"
    },
    {
      "channel": 2,
      "note": 77,
      "start": 81.5094,
      "duration": 0.0164,
      "velocity": 104,
      "chip": "ym2612"
    },
    {
      "channel": 3,
      "note": 80,
      "start": 81.5097,
      "duration": 0.0164,
      "velocity": 104,
      "chip": "ym2612"
    },
    {
      "channel": 2,
      "note": 78,
      "start": 81.5258,
      "duration": 0.0187,
      "velocity": 104,
      "chip": "ym2612"
    },
    {
      "channel": 3,
      "note": 81,
      "start": 81.5261,
      "duration": 0.0186,
      "velocity": 104,
      "chip": "ym2612"
    },
    {
      "channel": 2,
      "note": 79,
      "start": 81.5445,
      "duration": 0.0163,
      "velocity": 104,
      "chip": "ym2612"
    },
    {
      "channel": 3,
      "note": 82,
      "start": 81.5447,
      "duration": 0.0163,
      "velocity": 104,
      "chip": "ym2612"
    },
    {
      "channel": 2,
      "note": 80,
      "start": 81.5607,
      "duration": 0.0185,
      "velocity": 104,
      "chip": "ym2612"
    },
    {
      "channel": 3,
      "note": 84,
      "start": 81.561,
      "duration": 0.0185,
      "velocity": 104,
      "chip": "ym2612"
    },
    {
      "channel": 2,
      "note": 81,
      "start": 81.5792,
      "duration": 0.0225,
      "velocity": 104,
      "chip": "ym2612"
    },
    {
      "channel": 3,
      "note": 85,
      "start": 81.5795,
      "duration": 0.0226,
      "velocity": 104,
      "chip": "ym2612"
    },
    {
      "channel": 0,
      "note": 41,
      "start": 81.5998,
      "duration": 0.1086,
      "velocity": 97,
      "chip": "ym2612"
    },
    {
      "channel": 1,
      "note": 66,
      "start": 81.6003,
      "duration": 0.1085,
      "velocity": 110,
      "chip": "ym2612"
    },
    {
      "channel": 4,
      "note": 65,
      "start": 81.601,
      "duration": 0.1096,
      "velocity": 127,
      "chip": "ym2612"
    },
    {
      "channel": 2,
      "note": 82,
      "start": 81.6017,
      "duration": 0.0144,
      "velocity": 104,
      "chip": "ym2612"
    },
    {
      "channel": 3,
      "note": 86,
      "start": 81.6021,
      "duration": 0.0144,
      "velocity": 104,
      "chip": "ym2612"
    },
    {
      "channel": 2,
      "note": 84,
      "start": 81.6162,
      "duration": 0.0188,
      "velocity": 104,
      "chip": "ym2612"
    },
    {
      "channel": 3,
      "note": 87,
      "start": 81.6165,
      "duration": 0.0188,
      "velocity": 104,
      "chip": "ym2612"
    },
    {
      "channel": 2,
      "note": 85,
      "start": 81.635,
      "duration": 0.0188,
      "velocity": 104,
      "chip": "ym2612"
    },
    {
      "channel": 3,
      "note": 88,
      "start": 81.6353,
      "duration": 0.0188,
      "velocity": 104,
      "chip": "ym2612"
    },
    {
      "channel": 2,
      "note": 86,
      "start": 81.6538,
      "duration": 0.0164,
      "velocity": 104,
      "chip": "ym2612"
    },
    {
      "channel": 3,
      "note": 89,
      "start": 81.6541,
      "duration": 0.0164,
      "velocity": 104,
      "chip": "ym2612"
    },
    {
      "channel": 2,
      "note": 87,
      "start": 81.6702,
      "duration": 0.019,
      "velocity": 104,
      "chip": "ym2612"
    },
    {
      "channel": 3,
      "note": 90,
      "start": 81.6705,
      "duration": 0.019,
      "velocity": 104,
      "chip": "ym2612"
    },
    {
      "channel": 2,
      "note": 88,
      "start": 81.6891,
      "duration": 0.0203,
      "velocity": 104,
      "chip": "ym2612"
    },
    {
      "channel": 3,
      "note": 91,
      "start": 81.6895,
      "duration": 0.0206,
      "velocity": 104,
      "chip": "ym2612"
    },
    {
      "channel": 0,
      "note": 41,
      "start": 81.7085,
      "duration": 0.1198,
      "velocity": 97,
      "chip": "ym2612"
    },
    {
      "channel": 1,
      "note": 68,
      "start": 81.709,
      "duration": 0.3461,
      "velocity": 110,
      "chip": "ym2612"
    },
    {
      "channel": 2,
      "note": 87,
      "start": 81.7096,
      "duration": 0.2394,
      "velocity": 104,
      "chip": "ym2612"
    },
    {
      "channel": 3,
      "note": 90,
      "start": 81.7102,
      "duration": 0.2394,
      "velocity": 104,
      "chip": "ym2612"
    },
    {
      "channel": 4,
      "note": 77,
      "start": 81.7107,
      "duration": 0.1183,
      "velocity": 127,
      "chip": "ym2612"
    },
    {
      "channel": 5,
      "note": 21,
      "start": 81.7129,
      "duration": 0.1167,
      "velocity": 84,
      "chip": "ym2612"
    },
    {
      "channel": 0,
      "note": 41,
      "start": 81.8285,
      "duration": 0.1198,
      "velocity": 97,
      "chip": "ym2612"
    },
    {
      "channel": 4,
      "note": 65,
      "start": 81.8292,
      "duration": 0.2266,
      "velocity": 127,
      "chip": "ym2612"
    },
    {
      "channel": 5,
      "note": 21,
      "start": 81.8298,
      "duration": 0.7894,
      "velocity": 84,
      "chip": "ym2612"
    },
    {
      "channel": 0,
      "note": 41,
      "start": 81.9485,
      "duration": 0.1061,
      "velocity": 97,
      "chip": "ym2612"
    },
    {
      "channel": 2,
      "note": 78,
      "start": 81.9492,
      "duration": 0.0015,
      "velocity": 104,
      "chip": "ym2612"
    },
    {
      "channel": 3,
      "note": 80,
      "start": 81.9498,
      "duration": 0.0011,
      "velocity": 104,
      "chip": "ym2612"
    },
    {
      "channel": 2,
      "note": 79,
      "start": 81.9507,
      "duration": 0.0143,
      "velocity": 104,
      "chip": "ym2612"
    },
    {
      "channel": 3,
      "note": 82,
      "start": 81.9509,
      "duration": 0.0143,
      "velocity": 104,
      "chip": "ym2612"
    },
    {
      "channel": 2,
      "note": 80,
      "start": 81.9649,
      "duration": 0.0188,
      "velocity": 104,
      "chip": "ym2612"
    },
    {
      "channel": 3,
      "note": 83,
      "start": 81.9652,
      "duration": 0.0188,
      "velocity": 104,
      "chip": "ym2612"
    },
    {
      "channel": 2,
      "note": 81,
      "start": 81.9837,
      "duration": 0.0188,
      "velocity": 104,
      "chip": "ym2612"
    },
    {
      "channel": 3,
      "note": 84,
      "start": 81.984,
      "duration": 0.0188,
      "velocity": 104,
      "chip": "ym2612"
    },
    {
      "channel": 2,
      "note": 82,
      "start": 82.0025,
      "duration": 0.0164,
      "velocity": 104,
      "chip": "ym2612"
    },
    {
      "channel": 3,
      "note": 85,
      "start": 82.0028,
      "duration": 0.0164,
      "velocity": 104,
      "chip": "ym2612"
    },
    {
      "channel": 2,
      "note": 84,
      "start": 82.0189,
      "duration": 0.0165,
      "velocity": 104,
      "chip": "ym2612"
    },
    {
      "channel": 3,
      "note": 86,
      "start": 82.0193,
      "duration": 0.0164,
      "velocity": 104,
      "chip": "ym2612"
    },
    {
      "channel": 2,
      "note": 85,
      "start": 82.0354,
      "duration": 0.021,
      "velocity": 104,
      "chip": "ym2612"
    },
    {
      "channel": 3,
      "note": 88,
      "start": 82.0357,
      "duration": 0.021,
      "velocity": 104,
      "chip": "ym2612"
    },
    {
      "channel": 0,
      "note": 41,
      "start": 82.0547,
      "duration": 0.1164,
      "velocity": 97,
      "chip": "ym2612"
    },
    {
      "channel": 1,
      "note": 66,
      "start": 82.0553,
      "duration": 0.2295,
      "velocity": 110,
      "chip": "ym2612"
    },
    {
      "channel": 4,
      "note": 65,
      "start": 82.0559,
      "duration": 0.1169,
      "velocity": 127,
      "chip": "ym2612"
    },
    {
      "channel": 2,
      "note": 86,
      "start": 82.0564,
      "duration": 0.0146,
      "velocity": 104,
      "chip": "ym2612"
    },
    {
      "channel": 3,
      "note": 89,
      "start": 82.0567,
      "duration": 0.0146,
      "velocity": 104,
      "chip": "ym2612"
    },
    {
      "channel": 2,
      "note": 87,
      "start": 82.071,
      "duration": 0.0197,
      "velocity": 104,
      "chip": "ym2612"
    },
    {
      "channel": 3,
      "note": 89,
      "start": 82.0713,
      "duration": 0.0197,
      "velocity": 104,
      "chip": "ym2612"
    },
    {
      "channel": 2,
      "note": 88,
      "start": 82.0907,
      "duration": 0.02,
      "velocity": 104,
      "chip": "ym2612"
    },
    {
      "channel": 3,
      "note": 90,
      "start": 82.091,
      "duration": 0.02,
      "velocity": 104,
      "chip": "ym2612"
    },
    {
      "channel": 2,
      "note": 89,
      "start": 82.1107,
      "duration": 0.02,
      "velocity": 104,
      "chip": "ym2612"
    },
    {
      "channel": 3,
      "note": 91,
      "start": 82.111,
      "duration": 0.02,
      "velocity": 104,
      "chip": "ym2612"
    },
    {
      "channel": 2,
      "note": 90,
      "start": 82.1307,
      "duration": 0.02,
      "velocity": 104,
      "chip": "ym2612"
    },
    {
      "channel": 3,
      "note": 92,
      "start": 82.131,
      "duration": 0.02,
      "velocity": 104,
      "chip": "ym2612"
    },
    {
      "channel": 2,
      "note": 91,
      "start": 82.1507,
      "duration": 0.021,
      "velocity": 104,
      "chip": "ym2612"
    },
    {
      "channel": 3,
      "note": 93,
      "start": 82.151,
      "duration": 0.0213,
      "velocity": 104,
      "chip": "ym2612"
    },
    {
      "channel": 0,
      "note": 41,
      "start": 82.1713,
      "duration": 0.1129,
      "velocity": 97,
      "chip": "ym2612"
    },
    {
      "channel": 2,
      "note": 90,
      "start": 82.1718,
      "duration": 0.2182,
      "velocity": 97,
      "chip": "ym2612"
    },
    {
      "channel": 3,
      "note": 92,
      "start": 82.1724,
      "duration": 0.2182,
      "velocity": 104,
      "chip": "ym2612"
    },
    {
      "channel": 4,
      "note": 77,
      "start": 82.173,
      "duration": 0.1124,
      "velocity": 127,
      "chip": "ym2612"
    },
    {
      "channel": 0,
      "note": 41,
      "start": 82.2844,
      "duration": 0.1029,
      "velocity": 97,
      "chip": "ym2612"
    },
    {
      "channel": 1,
      "note": 68,
      "start": 82.2849,
      "duration": 0.103,
      "velocity": 110,
      "chip": "ym2612"
    },
    {
      "channel": 4,
      "note": 65,
      "start": 82.2856,
      "duration": 0.1072,
      "velocity": 104,
      "chip": "ym2612"
    },
    {
      "channel": 0,
      "note": 48,
      "start": 82.3875,
      "duration": 0.111,
      "velocity": 97,
      "chip": "ym2612"
    },
    {
      "channel": 1,
      "note": 60,
      "start": 82.3881,
      "duration": 0.3508,
      "velocity": 110,
      "chip": "ym2612"
    },
    {
      "channel": 2,
      "note": 60,
      "start": 82.3902,
      "duration": 7.4669,
      "velocity": 127,
      "chip": "ym2612"
    },
    {
      "channel": 3,
      "note": 84,
      "start": 82.3908,
      "duration": 16.5811,
      "velocity": 127,
      "chip": "ym2612"
    },
    {
      "channel": 4,
      "note": 87,
      "start": 82.3929,
      "duration": 24.2478,
      "velocity": 127,
      "chip": "ym2612"
    },
    {
      "channel": 0,
      "note": 48,
      "start": 82.4986,
      "duration": 0.1198,
      "velocity": 97,
      "chip": "ym2612"
    },
    {
      "channel": 0,
      "note": 48,
      "start": 82.6185,
      "duration": 0.1199,
      "velocity": 97,
      "chip": "ym2612"
    },
    {
      "channel": 5,
      "note": 21,
      "start": 82.6194,
      "duration": 0.1202,
      "velocity": 84,
      "chip": "ym2612"
    },
    {
      "channel": 0,
      "note": 48,
      "start": 82.7385,
      "duration": 0.1198,
      "velocity": 97,
      "chip": "ym2612"
    },
    {
      "channel": 1,
      "note": 68,
      "start": 82.739,
      "duration": 0.3442,
      "velocity": 110,
      "chip": "ym2612"
    },
    {
      "channel": 5,
      "note": 21,
      "start": 82.7398,
      "duration": 0.3458,
      "velocity": 84,
      "chip": "ym2612"
    },
    {
      "channel": 0,
      "note": 48,
      "start": 82.8585,
      "duration": 0.1053,
      "velocity": 97,
      "chip": "ym2612"
    },
    {
      "channel": 0,
      "note": 48,
      "start": 82.9639,
      "duration": 0.1188,
      "velocity": 97,
      "chip": "ym2612"
    },
    {
      "channel": 0,
      "note": 48,
      "start": 83.0829,
      "duration": 0.1198,
      "velocity": 97,
      "chip": "ym2612"
    },
    {
      "channel": 1,
      "note": 66,
      "start": 83.0834,
      "duration": 0.3518,
      "velocity": 110,
      "chip": "ym2612"
    },
    {
      "channel": 5,
      "note": 21,
      "start": 83.0858,
      "duration": 0.1178,
      "velocity": 84,
      "chip": "ym2612"
    },
    {
      "channel": 0,
      "note": 48,
      "start": 83.2029,
      "duration": 0.1198,
      "velocity": 97,
      "chip": "ym2612"
    },
    {
      "channel": 5,
      "note": 21,
      "start": 83.2037,
      "duration": 0.3534,
      "velocity": 84,
      "chip": "ym2612"
    },
    {
      "channel": 0,
      "note": 48,
      "start": 83.3228,
      "duration": 0.1118,
      "velocity": 97,
      "chip": "ym2612"
    },
    {
      "channel": 0,
      "note": 48,
      "start": 83.4349,
      "duration": 0.1198,
      "velocity": 97,
      "chip": "ym2612"
    },
    {
      "channel": 1,
      "note": 58,
      "start": 83.4354,
      "duration": 0.3599,
      "velocity": 110,
      "chip": "ym2612"
    },
    {
      "channel": 0,
      "note": 48,
      "start": 83.5549,
      "duration": 0.1198,
      "velocity": 97,
      "chip": "ym2612"
    },
    {
      "channel": 5,
      "note": 21,
      "start": 83.5572,
      "duration": 0.1182,
      "velocity": 84,
      "chip": "ym2612"
    },
    {
      "channel": 0,
      "note": 48,
      "start": 83.6748,
      "duration": 0.1199,
      "velocity": 97,
      "chip": "ym2612"
    },
    {
      "channel": 5,
      "note": 21,
      "start": 83.6756,
      "duration": 0.3514,
      "velocity": 84,
      "chip": "ym2612"
    },
    {
      "channel": 0,
      "note": 48,
      "start": 83.7949,
      "duration": 0.1128,
      "velocity": 97,
      "chip": "ym2612"
    },
    {
      "channel": 1,
      "note": 60,
      "start": 83.7954,
      "duration": 0.2293,
      "velocity": 110,
      "chip": "ym2612"
    },
    {
      "channel": 0,
      "note": 48,
      "start": 83.9078,
      "duration": 0.1163,
      "velocity": 97,
      "chip": "ym2612"
    },
    {
      "channel": 0,
      "note": 48,
      "start": 84.0243,
      "duration": 0.1198,
      "velocity": 97,
      "chip": "ym2612"
    },
    {
      "channel": 1,
      "note": 61,
      "start": 84.0248,
      "duration": 0.2206,
      "velocity": 110,
      "chip": "ym2612"
    },
    {
      "channel": 5,
      "note": 21,
      "start": 84.0272,
      "duration": 0.4472,
      "velocity": 84,
      "chip": "ym2612"
    },
    {
      "channel": 0,
      "note": 48,
      "start": 84.1443,
      "duration": 0.1005,
      "velocity": 97,
      "chip": "ym2612"
    },
    {
      "channel": 0,
      "note": 48,
      "start": 84.245,
      "duration": 0.1071,
      "velocity": 97,
      "chip": "ym2612"
    },
    {
      "channel": 1,
      "note": 60,
      "start": 84.2455,
      "duration": 0.3471,
      "velocity": 110,
      "chip": "ym2612"
    },
    {
      "channel": 0,
      "note": 48,
      "start": 84.3522,
      "duration": 0.1198,
      "velocity": 97,
      "chip": "ym2612"
    },
    {
      "channel": 0,
      "note": 48,
      "start": 84.4722,
      "duration": 0.1199,
      "velocity": 97,
      "chip": "ym2612"
    },
    {
      "channel": 5,
      "note": 21,
      "start": 84.4746,
      "duration": 0.1188,
      "velocity": 84,
      "chip": "ym2612"
    },
    {
      "channel": 0,
      "note": 48,
      "start": 84.5922,
      "duration": 0.1198,
      "velocity": 97,
      "chip": "ym2612"
    },
    {
      "channel": 1,
      "note": 69,
      "start": 84.5928,
      "duration": 0.3467,
      "velocity": 110,
      "chip": "ym2612"
    },
    {
      "channel": 5,
      "note": 21,
      "start": 84.5935,
      "duration": 0.3483,
      "velocity": 84,
      "chip": "ym2612"
    },
    {
      "channel": 0,
      "note": 48,
      "start": 84.7122,
      "duration": 0.1078,
      "velocity": 97,
      "chip": "ym2612"
    },
    {
      "channel": 0,
      "note": 48,
      "start": 84.8201,
      "duration": 0.1188,
      "velocity": 97,
      "chip": "ym2612"
    },
    {
      "channel": 0,
      "note": 48,
      "start": 84.9391,
      "duration": 0.1198,
      "velocity": 97,
      "chip": "ym2612"
    },
    {
      "channel": 1,
      "note": 68,
      "start": 84.9396,
      "duration": 0.352,
      "velocity": 110,
      "chip": "ym2612"
    },
    {
      "channel": 5,
      "note": 21,
      "start": 84.942,
      "duration": 0.1178,
      "velocity": 84,
      "chip": "ym2612"
    },
    {
      "channel": 0,
      "note": 48,
      "start": 85.0591,
      "duration": 0.1198,
      "velocity": 97,
      "chip": "ym2612"
    },
    {
      "channel": 5,
      "note": 21,
      "start": 85.0599,
      "duration": 0.3394,
      "velocity": 84,
      "chip": "ym2612"
    },
    {
      "channel": 0,
      "note": 48,
      "start": 85.179,
      "duration": 0.112,
      "velocity": 97,
      "chip": "ym2612"
    },
    {
      "channel": 0,
      "note": 48,
      "start": 85.2912,
      "duration": 0.1057,
      "velocity": 97,
      "chip": "ym2612"
    },
    {
      "channel": 1,
      "note": 56,
      "start": 85.2918,
      "duration": 0.3457,
      "velocity": 110,
      "chip": "ym2612"
    },
    {
      "channel": 0,
      "note": 48,
      "start": 85.3971,
      "duration": 0.1198,
      "velocity": 97,
      "chip": "ym2612"
    },
    {
      "channel": 5,
      "note": 21,
      "start": 85.3995,
      "duration": 0.1182,
      "velocity": 84,
      "chip": "ym2612"
    },
    {
      "channel": 0,
      "note": 48,
      "start": 85.517,
      "duration": 0.1199,
      "velocity": 97,
      "chip": "ym2612"
    },
    {
      "channel": 5,
      "note": 21,
      "start": 85.5179,
      "duration": 0.3391,
      "velocity": 84,
      "chip": "ym2612"
    },
    {
      "channel": 0,
      "note": 48,
      "start": 85.6371,
      "duration": 0.1005,
      "velocity": 97,
      "chip": "ym2612"
    },
    {
      "channel": 1,
      "note": 58,
      "start": 85.6376,
      "duration": 0.217,
      "velocity": 110,
      "chip": "ym2612"
    },
    {
      "channel": 0,
      "note": 48,
      "start": 85.7378,
      "duration": 0.1163,
      "velocity": 97,
      "chip": "ym2612"
    },
    {
      "channel": 0,
      "note": 48,
      "start": 85.8543,
      "duration": 0.1198,
      "velocity": 97,
      "chip": "ym2612"
    },
    {
      "channel": 1,
      "note": 59,
      "start": 85.8548,
      "duration": 0.2206,
      "velocity": 110,
      "chip": "ym2612"
    },
    {
      "channel": 5,
      "note": 21,
      "start": 85.8571,
      "duration": 0.455,
      "velocity": 84,
      "chip": "ym2612"
    },
    {
      "channel": 0,
      "note": 48,
      "start": 85.9743,
      "duration": 0.1006,
      "velocity": 97,
      "chip": "ym2612"
    },
    {
      "channel": 0,
      "note": 48,
      "start": 86.075,
      "duration": 0.1148,
      "velocity": 97,
      "chip": "ym2612"
    },
    {
      "channel": 1,
      "note": 60,
      "start": 86.0755,
      "duration": 0.3549,
      "velocity": 110,
      "chip": "ym2612"
    },
    {
      "channel": 0,
      "note": 48,
      "start": 86.19,
      "duration": 0.1198,
      "velocity": 97,
      "chip": "ym2612"
    },
    {
      "channel": 0,
      "note": 48,
      "start": 86.3099,
      "duration": 0.1199,
      "velocity": 97,
      "chip": "ym2612"
    },
    {
      "channel": 5,
      "note": 21,
      "start": 86.3123,
      "duration": 0.1188,
      "velocity": 84,
      "chip": "ym2612"
    },
    {
      "channel": 0,
      "note": 48,
      "start": 86.43,
      "duration": 0.1198,
      "velocity": 97,
      "chip": "ym2612"
    },
    {
      "channel": 1,
      "note": 68,
      "start": 86.4305,
      "duration": 0.3495,
      "velocity": 110,
      "chip": "ym2612"
    },
    {
      "channel": 5,
      "note": 21,
      "start": 86.4313,
      "duration": 0.351,
      "velocity": 84,
      "chip": "ym2612"
    },
    {
      "channel": 0,
      "note": 48,
      "start": 86.55,
      "duration": 0.1128,
      "velocity": 97,
      "chip": "ym2612"
    },
    {
      "channel": 0,
      "note": 48,
      "start": 86.663,
      "duration": 0.1164,
      "velocity": 97,
      "chip": "ym2612"
    },
    {
      "channel": 0,
      "note": 48,
      "start": 86.7796,
      "duration": 0.1198,
      "velocity": 97,
      "chip": "ym2612"
    },
    {
      "channel": 1,
      "note": 66,
      "start": 86.7801,
      "duration": 0.3518,
      "velocity": 110,
      "chip": "ym2612"
    },
    {
      "channel": 5,
      "note": 21,
      "start": 86.7825,
      "duration": 0.1178,
      "velocity": 84,
      "chip": "ym2612"
    },
    {
      "channel": 0,
      "note": 48,
      "start": 86.8996,
      "duration": 0.1198,
      "velocity": 97,
      "chip": "ym2612"
    },
    {
      "channel": 5,
      "note": 21,
      "start": 86.9004,
      "duration": 0.3534,
      "velocity": 84,
      "chip": "ym2612"
    },
    {
      "channel": 0,
      "note": 48,
      "start": 87.0195,
      "duration": 0.1118,
      "velocity": 97,
      "chip": "ym2612"
    },
    {
      "channel": 0,
      "note": 48,
      "start": 87.1316,
      "duration": 0.1198,
      "velocity": 97,
      "chip": "ym2612"
    },
    {
      "channel": 1,
      "note": 58,
      "start": 87.1321,
      "duration": 0.3599,
      "velocity": 110,
      "chip": "ym2612"
    },
    {
      "channel": 0,
      "note": 48,
      "start": 87.2516,
      "duration": 0.1198,
      "velocity": 97,
      "chip": "ym2612"
    },
    {
      "channel": 5,
      "note": 21,
      "start": 87.2539,
      "duration": 0.1182,
      "velocity": 84,
      "chip": "ym2612"
    },
    {
      "channel": 0,
      "note": 48,
      "start": 87.3715,
      "duration": 0.1199,
      "velocity": 97,
      "chip": "ym2612"
    },
    {
      "channel": 5,
      "note": 21,
      "start": 87.3723,
      "duration": 0.3414,
      "velocity": 84,
      "chip": "ym2612"
    },
    {
      "channel": 0,
      "note": 48,
      "start": 87.4916,
      "duration": 0.1028,
      "velocity": 97,
      "chip": "ym2612"
    },
    {
      "channel": 1,
      "note": 60,
      "start": 87.4921,
      "duration": 0.2193,
      "velocity": 110,
      "chip": "ym2612"
    },
    {
      "channel": 0,
      "note": 48,
      "start": 87.5946,
      "duration": 0.1163,
      "velocity": 97,
      "chip": "ym2612"
    },
    {
      "channel": 0,
      "note": 48,
      "start": 87.711,
      "duration": 0.1198,
      "velocity": 97,
      "chip": "ym2612"
    },
    {
      "channel": 1,
      "note": 61,
      "start": 87.7115,
      "duration": 0.2206,
      "velocity": 110,
      "chip": "ym2612"
    },
    {
      "channel": 5,
      "note": 21,
      "start": 87.7139,
      "duration": 0.4517,
      "velocity": 84,
      "chip": "ym2612"
    },
    {
      "channel": 0,
      "note": 48,
      "start": 87.831,
      "duration": 0.1005,
      "velocity": 97,
      "chip": "ym2612"
    },
    {
      "channel": 0,
      "note": 48,
      "start": 87.9317,
      "duration": 0.1115,
      "velocity": 97,
      "chip": "ym2612"
    },
    {
      "channel": 1,
      "note": 60,
      "start": 87.9323,
      "duration": 0.3515,
      "velocity": 110,
      "chip": "ym2612"
    },
    {
      "channel": 0,
      "note": 48,
      "start": 88.0434,
      "duration": 0.1198,
      "velocity": 97,
      "chip": "ym2612"
    },
    {
      "channel": 0,
      "note": 48,
      "start": 88.1634,
      "duration": 0.1199,
      "velocity": 97,
      "chip": "ym2612"
    },
    {
      "channel": 5,
      "note": 21,
      "start": 88.1657,
      "duration": 0.1188,
      "velocity": 84,
      "chip": "ym2612"
    },
    {
      "channel": 0,
      "note": 48,
      "start": 88.2834,
      "duration": 0.1198,
      "velocity": 97,
      "chip": "ym2612"
    },
    {
      "channel": 1,
      "note": 69,
      "start": 88.2839,
      "duration": 0.3442,
      "velocity": 110,
      "chip": "ym2612"
    },
    {
      "channel": 5,
      "note": 21,
      "start": 88.2847,
      "duration": 0.3458,
      "velocity": 84,
      "chip": "ym2612"
    },
    {
      "channel": 0,
      "note": 48,
      "start": 88.4034,
      "duration": 0.1053,
      "velocity": 97,
      "chip": "ym2612"
    },
    {
      "channel": 0,
      "note": 48,
      "start": 88.5088,
      "duration": 0.1188,
      "velocity": 97,
      "chip": "ym2612"
    },
    {
      "channel": 0,
      "note": 48,
      "start": 88.6278,
      "duration": 0.1198,
      "velocity": 97,
      "chip": "ym2612"
    },
    {
      "channel": 1,
      "note": 68,
      "start": 88.6283,
      "duration": 0.35,
      "velocity": 110,
      "chip": "ym2612"
    },
    {
      "channel": 5,
      "note": 21,
      "start": 88.6307,
      "duration": 0.1178,
      "velocity": 84,
      "chip": "ym2612"
    },
    {
      "channel": 0,
      "note": 48,
      "start": 88.7478,
      "duration": 0.1198,
      "velocity": 97,
      "chip": "ym2612"
    },
    {
      "channel": 5,
      "note": 21,
      "start": 88.7486,
      "duration": 0.3423,
      "velocity": 84,
      "chip": "ym2612"
    },
    {
      "channel": 0,
      "note": 48,
      "start": 88.8677,
      "duration": 0.1101,
      "velocity": 97,
      "chip": "ym2612"
    },
    {
      "channel": 0,
      "note": 48,
      "start": 88.978,
      "duration": 0.1105,
      "velocity": 97,
      "chip": "ym2612"
    },
    {
      "channel": 1,
      "note": 56,
      "start": 88.9785,
      "duration": 0.3505,
      "velocity": 110,
      "chip": "ym2612"
    },
    {
      "channel": 0,
      "note": 48,
      "start": 89.0886,
      "duration": 0.1198,
      "velocity": 97,
      "chip": "ym2612"
    },
    {
      "channel": 5,
      "note": 21,
      "start": 89.0911,
      "duration": 0.1182,
      "velocity": 84,
      "chip": "ym2612"
    },
    {
      "channel": 0,
      "note": 48,
      "start": 89.2086,
      "duration": 0.1199,
      "velocity": 97,
      "chip": "ym2612"
    },
    {
      "channel": 5,
      "note": 21,
      "start": 89.2095,
      "duration": 0.7668,
      "velocity": 84,
      "chip": "ym2612"
    },
    {
      "channel": 0,
      "note": 48,
      "start": 89.3287,
      "duration": 0.1005,
      "velocity": 97,
      "chip": "ym2612"
    },
    {
      "channel": 1,
      "note": 58,
      "start": 89.3292,
      "duration": 0.217,
      "velocity": 110,
      "chip": "ym2612"
    },
    {
      "channel": 0,
      "note": 48,
      "start": 89.4294,
      "duration": 0.1163,
      "velocity": 97,
      "chip": "ym2612"
    },
    {
      "channel": 0,
      "note": 48,
      "start": 89.5459,
      "duration": 0.1029,
      "velocity": 97,
      "chip": "ym2612"
    },
    {
      "channel": 1,
      "note": 59,
      "start": 89.5464,
      "duration": 0.2039,
      "velocity": 110,
      "chip": "ym2612"
    },
    {
      "channel": 0,
      "note": 48,
      "start": 89.649,
      "duration": 0.1006,
      "velocity": 97,
      "chip": "ym2612"
    },
    {
      "channel": 0,
      "note": 48,
      "start": 89.7498,
      "duration": 0.1051,
      "velocity": 97,
      "chip": "ym2612"
    },
    {
      "channel": 1,
      "note": 60,
      "start": 89.7505,
      "duration": 0.345,
      "velocity": 110,
      "chip": "ym2612"
    },
    {
      "channel": 0,
      "note": 48,
      "start": 89.8551,
      "duration": 0.1198,
      "velocity": 97,
      "chip": "ym2612"
    },
    {
      "channel": 2,
      "note": 60,
      "start": 89.8573,
      "duration": 0.1182,
      "velocity": 127,
      "chip": "ym2612"
    },
    {
      "channel": 0,
      "note": 48,
      "start": 89.975,
      "duration": 0.1199,
      "velocity": 97,
      "chip": "ym2612"
    },
    {
      "channel": 2,
      "note": 72,
      "start": 89.9757,
      "duration": 0.1204,
      "velocity": 127,
      "chip": "ym2612"
    },
    {
      "channel": 5,
      "note": 21,
      "start": 89.9764,
      "duration": 0.1203,
      "velocity": 84,
      "chip": "ym2612"
    },
    {
      "channel": 0,
      "note": 48,
      "start": 90.0951,
      "duration": 0.1198,
      "velocity": 97,
      "chip": "ym2612"
    },
    {
      "channel": 1,
      "note": 68,
      "start": 90.0957,
      "duration": 0.3421,
      "velocity": 110,
      "chip": "ym2612"
    },
    {
      "channel": 2,
      "note": 60,
      "start": 90.0962,
      "duration": 0.2251,
      "velocity": 127,
      "chip": "ym2612"
    },
    {
      "channel": 5,
      "note": 21,
      "start": 90.0969,
      "duration": 0.3437,
      "velocity": 84,
      "chip": "ym2612"
    },
    {
      "channel": 0,
      "note": 48,
      "start": 90.2151,
      "duration": 0.1055,
      "velocity": 97,
      "chip": "ym2612"
    },
    {
      "channel": 0,
      "note": 48,
      "start": 90.3208,
      "duration": 0.1165,
      "velocity": 97,
      "chip": "ym2612"
    },
    {
      "channel": 2,
      "note": 60,
      "start": 90.3214,
      "duration": 0.117,
      "velocity": 127,
      "chip": "ym2612"
    },
    {
      "channel": 0,
      "note": 48,
      "start": 90.4374,
      "duration": 0.1198,
      "velocity": 97,
      "chip": "ym2612"
    },
    {
      "channel": 1,
      "note": 66,
      "start": 90.438,
      "duration": 0.35,
      "velocity": 110,
      "chip": "ym2612"
    },
    {
      "channel": 2,
      "note": 72,
      "start": 90.4385,
      "duration": 0.1194,
      "velocity": 127,
      "chip": "ym2612"
    },
    {
      "channel": 5,
      "note": 21,
      "start": 90.4408,
      "duration": 0.1178,
      "velocity": 84,
      "chip": "ym2612"
    },
    {
      "channel": 0,
      "note": 48,
      "start": 90.5574,
      "duration": 0.1198,
      "velocity": 97,
      "chip": "ym2612"
    },
    {
      "channel": 2,
      "note": 60,
      "start": 90.5581,
      "duration": 0.2306,
      "velocity": 127,
      "chip": "ym2612"
    },
    {
      "channel": 5,
      "note": 21,
      "start": 90.5588,
      "duration": 0.3516,
      "velocity": 84,
      "chip": "ym2612"
    },
    {
      "channel": 0,
      "note": 48,
      "start": 90.6774,
      "duration": 0.11,
      "velocity": 97,
      "chip": "ym2612"
    },
    {
      "channel": 0,
      "note": 48,
      "start": 90.7877,
      "duration": 0.1198,
      "velocity": 97,
      "chip": "ym2612"
    },
    {
      "channel": 1,
      "note": 58,
      "start": 90.7883,
      "duration": 0.3598,
      "velocity": 110,
      "chip": "ym2612"
    },
    {
      "channel": 2,
      "note": 60,
      "start": 90.7888,
      "duration": 0.1194,
      "velocity": 127,
      "chip": "ym2612"
    },
    {
      "channel": 0,
      "note": 48,
      "start": 90.9077,
      "duration": 0.1198,
      "velocity": 97,
      "chip": "ym2612"
    },
    {
      "channel": 2,
      "note": 72,
      "start": 90.9083,
      "duration": 0.1198,
      "velocity": 127,
      "chip": "ym2612"
    },
    {
      "channel": 5,
      "note": 21,
      "start": 90.9105,
      "duration": 0.1182,
      "velocity": 84,
      "chip": "ym2612"
    },
    {
      "channel": 0,
      "note": 48,
      "start": 91.0277,
      "duration": 0.1198,
      "velocity": 97,
      "chip": "ym2612"
    },
    {
      "channel": 2,
      "note": 60,
      "start": 91.0283,
      "duration": 0.2206,
      "velocity": 127,
      "chip": "ym2612"
    },
    {
      "channel": 5,
      "note": 21,
      "start": 91.029,
      "duration": 0.3391,
      "velocity": 84,
      "chip": "ym2612"
    },
    {
      "channel": 0,
      "note": 48,
      "start": 91.1477,
      "duration": 0.1006,
      "velocity": 97,
      "chip": "ym2612"
    },
    {
      "channel": 1,
      "note": 60,
      "start": 91.1483,
      "duration": 0.217,
      "velocity": 110,
      "chip": "ym2612"
    },
    {
      "channel": 0,
      "note": 48,
      "start": 91.2484,
      "duration": 0.1163,
      "velocity": 97,
      "chip": "ym2612"
    },
    {
      "channel": 2,
      "note": 60,
      "start": 91.249,
      "duration": 0.1168,
      "velocity": 127,
      "chip": "ym2612"
    },
    {
      "channel": 0,
      "note": 48,
      "start": 91.3648,
      "duration": 0.1198,
      "velocity": 97,
      "chip": "ym2612"
    },
    {
      "channel": 1,
      "note": 61,
      "start": 91.3654,
      "duration": 0.2256,
      "velocity": 110,
      "chip": "ym2612"
    },
    {
      "channel": 2,
      "note": 72,
      "start": 91.3659,
      "duration": 0.1194,
      "velocity": 127,
      "chip": "ym2612"
    },
    {
      "channel": 5,
      "note": 21,
      "start": 91.3682,
      "duration": 0.4505,
      "velocity": 84,
      "chip": "ym2612"
    },
    {
      "channel": 0,
      "note": 48,
      "start": 91.4848,
      "duration": 0.1057,
      "velocity": 97,
      "chip": "ym2612"
    },
    {
      "channel": 2,
      "note": 60,
      "start": 91.4855,
      "duration": 0.211,
      "velocity": 127,
      "chip": "ym2612"
    },
    {
      "channel": 0,
      "note": 48,
      "start": 91.5906,
      "duration": 0.1052,
      "velocity": 97,
      "chip": "ym2612"
    },
    {
      "channel": 1,
      "note": 60,
      "start": 91.5912,
      "duration": 0.3452,
      "velocity": 110,
      "chip": "ym2612"
    },
    {
      "channel": 0,
      "note": 48,
      "start": 91.696,
      "duration": 0.1198,
      "velocity": 97,
      "chip": "ym2612"
    },
    {
      "channel": 2,
      "note": 60,
      "start": 91.6966,
      "duration": 0.1198,
      "velocity": 127,
      "chip": "ym2612"
    },
    {
      "channel": 0,
      "note": 48,
      "start": 91.8159,
      "duration": 0.1199,
      "velocity": 97,
      "chip": "ym2612"
    },
    {
      "channel": 2,
      "note": 72,
      "start": 91.8166,
      "duration": 0.1204,
      "velocity": 127,
      "chip": "ym2612"
    },
    {
      "channel": 5,
      "note": 21,
      "start": 91.8189,
      "duration": 0.1188,
      "velocity": 84,
      "chip": "ym2612"
    },
    {
      "channel": 0,
      "note": 48,
      "start": 91.936,
      "duration": 0.1198,
      "velocity": 97,
      "chip": "ym2612"
    },
    {
      "channel": 1,
      "note": 69,
      "start": 91.9366,
      "duration": 0.3421,
      "velocity": 110,
      "chip": "ym2612"
    },
    {
      "channel": 2,
      "note": 60,
      "start": 91.9371,
      "duration": 0.2251,
      "velocity": 127,
      "chip": "ym2612"
    },
    {
      "channel": 5,
      "note": 21,
      "start": 91.9378,
      "duration": 0.3437,
      "velocity": 84,
      "chip": "ym2612"
    },
    {
      "channel": 0,
      "note": 48,
      "start": 92.056,
      "duration": 0.1055,
      "velocity": 97,
      "chip": "ym2612"
    },
    {
      "channel": 0,
      "note": 48,
      "start": 92.1617,
      "duration": 0.1164,
      "velocity": 97,
      "chip": "ym2612"
    },
    {
      "channel": 2,
      "note": 60,
      "start": 92.1624,
      "duration": 0.1169,
      "velocity": 127,
      "chip": "ym2612"
    },
    {
      "channel": 0,
      "note": 48,
      "start": 92.2783,
      "duration": 0.1198,
      "velocity": 97,
      "chip": "ym2612"
    },
    {
      "channel": 1,
      "note": 68,
      "start": 92.2789,
      "duration": 0.35,
      "velocity": 110,
      "chip": "ym2612"
    },
    {
      "channel": 2,
      "note": 72,
      "start": 92.2794,
      "duration": 0.1194,
      "velocity": 127,
      "chip": "ym2612"
    },
    {
      "channel": 5,
      "note": 21,
      "start": 92.2817,
      "duration": 0.1178,
      "velocity": 84,
      "chip": "ym2612"
    },
    {
      "channel": 0,
      "note": 48,
      "start": 92.3983,
      "duration": 0.1198,
      "velocity": 97,
      "chip": "ym2612"
    },
    {
      "channel": 2,
      "note": 60,
      "start": 92.3989,
      "duration": 0.2306,
      "velocity": 127,
      "chip": "ym2612"
    },
    {
      "channel": 5,
      "note": 21,
      "start": 92.3996,
      "duration": 0.3397,
      "velocity": 84,
      "chip": "ym2612"
    },
    {
      "channel": 0,
      "note": 48,
      "start": 92.5183,
      "duration": 0.11,
      "velocity": 97,
      "chip": "ym2612"
    },
    {
      "channel": 0,
      "note": 48,
      "start": 92.6285,
      "duration": 0.1079,
      "velocity": 97,
      "chip": "ym2612"
    },
    {
      "channel": 1,
      "note": 56,
      "start": 92.6291,
      "duration": 0.3478,
      "velocity": 110,
      "chip": "ym2612"
    },
    {
      "channel": 2,
      "note": 60,
      "start": 92.6296,
      "duration": 0.1074,
      "velocity": 127,
      "chip": "ym2612"
    },
    {
      "channel": 0,
      "note": 48,
      "start": 92.7366,
      "duration": 0.1198,
      "velocity": 97,
      "chip": "ym2612"
    },
    {
      "channel": 2,
      "note": 72,
      "start": 92.7372,
      "duration": 0.1198,
      "velocity": 127,
      "chip": "ym2612"
    },
    {
      "channel": 5,
      "note": 21,
      "start": 92.7394,
      "duration": 0.1182,
      "velocity": 84,
      "chip": "ym2612"
    },
    {
      "channel": 0,
      "note": 48,
      "start": 92.8566,
      "duration": 0.1198,
      "velocity": 97,
      "chip": "ym2612"
    },
    {
      "channel": 2,
      "note": 60,
      "start": 92.8571,
      "duration": 0.2256,
      "velocity": 127,
      "chip": "ym2612"
    },
    {
      "channel": 5,
      "note": 21,
      "start": 92.8578,
      "duration": 0.3466,
      "velocity": 84,
      "chip": "ym2612"
    },
    {
      "channel": 0,
      "note": 48,
      "start": 92.9766,
      "duration": 0.1056,
      "velocity": 97,
      "chip": "ym2612"
    },
    {
      "channel": 1,
      "note": 58,
      "start": 92.9771,
      "duration": 0.2245,
      "velocity": 110,
      "chip": "ym2612"
    },
    {
      "channel": 0,
      "note": 48,
      "start": 93.0823,
      "duration": 0.1187,
      "velocity": 97,
      "chip": "ym2612"
    },
    {
      "channel": 2,
      "note": 60,
      "start": 93.083,
      "duration": 0.1193,
      "velocity": 127,
      "chip": "ym2612"
    },
    {
      "channel": 0,
      "note": 48,
      "start": 93.2012,
      "duration": 0.1198,
      "velocity": 97,
      "chip": "ym2612"
    },
    {
      "channel": 1,
      "note": 59,
      "start": 93.2018,
      "duration": 0.2206,
      "velocity": 110,
      "chip": "ym2612"
    },
    {
      "channel": 2,
      "note": 72,
      "start": 93.2023,
      "duration": 0.1194,
      "velocity": 127,
      "chip": "ym2612"
    },
    {
      "channel": 5,
      "note": 21,
      "start": 93.2046,
      "duration": 13.5587,
      "velocity": 84,
      "chip": "ym2612"
    },
    {
      "channel": 0,
      "note": 48,
      "start": 93.3212,
      "duration": 0.1007,
      "velocity": 97,
      "chip": "ym2612"
    },
    {
      "channel": 2,
      "note": 60,
      "start": 93.3219,
      "duration": 0.208,
      "velocity": 127,
      "chip": "ym2612"
    },
    {
      "channel": 0,
      "note": 48,
      "start": 93.422,
      "duration": 0.1072,
      "velocity": 97,
      "chip": "ym2612"
    },
    {
      "channel": 1,
      "note": 60,
      "start": 93.4226,
      "duration": 0.3471,
      "velocity": 110,
      "chip": "ym2612"
    },
    {
      "channel": 0,
      "note": 48,
      "start": 93.5294,
      "duration": 0.1198,
      "velocity": 97,
      "chip": "ym2612"
    },
    {
      "channel": 2,
      "note": 60,
      "start": 93.53,
      "duration": 0.1198,
      "velocity": 127,
      "chip": "ym2612"
    },
    {
      "channel": 0,
      "note": 48,
      "start": 93.6493,
      "duration": 0.1199,
      "velocity": 97,
      "chip": "ym2612"
    },
    {
      "channel": 2,
      "note": 72,
      "start": 93.65,
      "duration": 0.1203,
      "velocity": 127,
      "chip": "ym2612"
    },
    {
      "channel": 0,
      "note": 48,
      "start": 93.7693,
      "duration": 0.1199,
      "velocity": 97,
      "chip": "ym2612"
    },
    {
      "channel": 1,
      "note": 68,
      "start": 93.7699,
      "duration": 0.3598,
      "velocity": 110,
      "chip": "ym2612"
    },
    {
      "channel": 2,
      "note": 60,
      "start": 93.7705,
      "duration": 0.2393,
      "velocity": 127,
      "chip": "ym2612"
    },
    {
      "channel": 0,
      "note": 48,
      "start": 93.8894,
      "duration": 0.1198,
      "velocity": 97,
      "chip": "ym2612"
    },
    {
      "channel": 0,
      "note": 48,
      "start": 94.0093,
      "duration": 0.1199,
      "velocity": 97,
      "chip": "ym2612"
    },
    {
      "channel": 2,
      "note": 60,
      "start": 94.01,
      "duration": 0.1203,
      "velocity": 127,
      "chip": "ym2612"
    },
    {
      "channel": 0,
      "note": 48,
      "start": 94.1293,
      "duration": 0.1199,
      "velocity": 97,
      "chip": "ym2612"
    },
    {
      "channel": 1,
      "note": 66,
      "start": 94.1299,
      "duration": 0.3599,
      "velocity": 110,
      "chip": "ym2612"
    },
    {
      "channel": 2,
      "note": 72,
      "start": 94.1305,
      "duration": 0.1194,
      "velocity": 127,
      "chip": "ym2612"
    },
    {
      "channel": 0,
      "note": 48,
      "start": 94.2494,
      "duration": 0.1198,
      "velocity": 97,
      "chip": "ym2612"
    },
    {
      "channel": 2,
      "note": 60,
      "start": 94.25,
      "duration": 0.2403,
      "velocity": 127,
      "chip": "ym2612"
    },
    {
      "channel": 0,
      "note": 48,
      "start": 94.3693,
      "duration": 0.1199,
      "velocity": 97,
      "chip": "ym2612"
    },
    {
      "channel": 0,
      "note": 48,
      "start": 94.4894,
      "duration": 0.1198,
      "velocity": 97,
      "chip": "ym2612"
    },
    {
      "channel": 1,
      "note": 58,
      "start": 94.4899,
      "duration": 0.3599,
      "velocity": 110,
      "chip": "ym2612"
    },
    {
      "channel": 2,
      "note": 60,
      "start": 94.4905,
      "duration": 0.1194,
      "velocity": 127,
      "chip": "ym2612"
    },
    {
      "channel": 0,
      "note": 48,
      "start": 94.6094,
      "duration": 0.1198,
      "velocity": 97,
      "chip": "ym2612"
    },
    {
      "channel": 2,
      "note": 72,
      "start": 94.61,
      "duration": 0.1198,
      "velocity": 127,
      "chip": "ym2612"
    },
    {
      "channel": 0,
      "note": 48,
      "start": 94.7293,
      "duration": 0.1199,
      "velocity": 97,
      "chip": "ym2612"
    },
    {
      "channel": 2,
      "note": 60,
      "start": 94.73,
      "duration": 0.2398,
      "velocity": 127,
      "chip": "ym2612"
    },
    {
      "channel": 0,
      "note": 48,
      "start": 94.8494,
      "duration": 0.1198,
      "velocity": 97,
      "chip": "ym2612"
    },
    {
      "channel": 1,
      "note": 60,
      "start": 94.8499,
      "duration": 0.2399,
      "velocity": 110,
      "chip": "ym2612"
    },
    {
      "channel": 0,
      "note": 48,
      "start": 94.9693,
      "duration": 0.1199,
      "velocity": 97,
      "chip": "ym2612"
    },
    {
      "channel": 2,
      "note": 60,
      "start": 94.97,
      "duration": 0.1203,
      "velocity": 127,
      "chip": "ym2612"
    },
    {
      "channel": 0,
      "note": 48,
      "start": 95.0894,
      "duration": 0.1199,
      "velocity": 97,
      "chip": "ym2612"
    },
    {
      "channel": 1,
      "note": 61,
      "start": 95.0899,
      "duration": 0.2431,
      "velocity": 114,
      "chip": "ym2612"
    },
    {
      "channel": 2,
      "note": 72,
      "start": 95.0905,
      "duration": 0.1194,
      "velocity": 127,
      "chip": "ym2612"
    },
    {
      "channel": 0,
      "note": 48,
      "start": 95.2095,
      "duration": 0.1215,
      "velocity": 116,
      "chip": "ym2612"
    },
    {
      "channel": 2,
      "note": 60,
      "start": 95.21,
      "duration": 0.2015,
      "velocity": 114,
      "chip": "ym2612"
    },
    {
      "channel": 0,
      "note": 77,
      "start": 95.3311,
      "duration": 0.0781,
      "velocity": 116,
      "chip": "ym2612"
    },
    {
      "channel": 1,
      "note": 77,
      "start": 95.3332,
      "duration": 0.079,
      "velocity": 114,
      "chip": "ym2612"
    },
    {
      "channel": 0,
      "note": 79,
      "start": 95.4094,
      "duration": 0.0798,
      "velocity": 116,
      "chip": "ym2612"
    },
    {
      "channel": 2,
      "note": 79,
      "start": 95.4117,
      "duration": 0.079,
      "velocity": 114,
      "chip": "ym2612"
    },
    {
      "channel": 1,
      "note": 76,
      "start": 95.4122,
      "duration": 0.0167,
      "velocity": 114,
      "chip": "ym2612"
    },
    {
      "channel": 1,
      "note": 76,
      "start": 95.4289,
      "duration": 0.0206,
      "velocity": 114,
      "chip": "ym2612"
    },
    {
      "channel": 1,
      "note": 75,
      "start": 95.4495,
      "duration": 0.0193,
      "velocity": 114,
      "chip": "ym2612"
    },
    {
      "channel": 1,
      "note": 74,
      "start": 95.4688,
      "duration": 0.0209,
      "velocity": 114,
      "chip": "ym2612"
    },
    {
      "channel": 0,
      "note": 77,
      "start": 95.4893,
      "duration": 0.0799,
      "velocity": 116,
      "chip": "ym2612"
    },
    {
      "channel": 1,
      "note": 77,
      "start": 95.4899,
      "duration": 0.0807,
      "velocity": 114,
      "chip": "ym2612"
    },
    {
      "channel": 2,
      "note": 78,
      "start": 95.4907,
      "duration": 0.0182,
      "velocity": 114,
      "chip": "ym2612"
    },
    {
      "channel": 2,
      "note": 78,
      "start": 95.5089,
      "duration": 0.0207,
      "velocity": 114,
      "chip": "ym2612"
    },
    {
      "channel": 2,
      "note": 77,
      "start": 95.5296,
      "duration": 0.0193,
      "velocity": 114,
      "chip": "ym2612"
    },
    {
      "channel": 2,
      "note": 76,
      "start": 95.5489,
      "duration": 0.021,
      "velocity": 114,
      "chip": "ym2612"
    },
    {
      "channel": 0,
      "note": 76,
      "start": 95.5694,
      "duration": 0.0798,
      "velocity": 116,
      "chip": "ym2612"
    },
    {
      "channel": 2,
      "note": 76,
      "start": 95.5701,
      "duration": 0.0805,
      "velocity": 114,
      "chip": "ym2612"
    },
    {
      "channel": 1,
      "note": 76,
      "start": 95.5706,
      "duration": 0.0183,
      "velocity": 114,
      "chip": "ym2612"
    },
    {
      "channel": 1,
      "note": 76,
      "start": 95.5889,
      "duration": 0.0206,
      "velocity": 114,
      "chip": "ym2612"
    },
    {
      "channel": 1,
      "note": 75,
      "start": 95.6095,
      "duration": 0.0194,
      "velocity": 114,
      "chip": "ym2612"
    },
    {
      "channel": 1,
      "note": 74,
      "start": 95.6289,
      "duration": 0.0208,
      "velocity": 114,
      "chip": "ym2612"
    },
    {
      "channel": 0,
      "note": 72,
      "start": 95.6493,
      "duration": 0.0799,
      "velocity": 116,
      "chip": "ym2612"
    },
    {
      "channel": 1,
      "note": 72,
      "start": 95.6499,
      "duration": 0.0807,
      "velocity": 114,
      "chip": "ym2612"
    },
    {
      "channel": 2,
      "note": 75,
      "start": 95.6506,
      "duration": 0.0183,
      "velocity": 114,
      "chip": "ym2612"
    },
    {
      "channel": 2,
      "note": 75,
      "start": 95.6689,
      "duration": 0.0206,
      "velocity": 114,
      "chip": "ym2612"
    },
    {
      "channel": 2,
      "note": 74,
      "start": 95.6895,
      "duration": 0.0194,
      "velocity": 114,
      "chip": "ym2612"
    },
    {
      "channel": 2,
      "note": 73,
      "start": 95.7089,
      "duration": 0.021,
      "velocity": 114,
      "chip": "ym2612"
    },
    {
      "channel": 0,
      "note": 74,
      "start": 95.7294,
      "duration": 0.0798,
      "velocity": 116,
      "chip": "ym2612"
    },
    {
      "channel": 2,
      "note": 74,
      "start": 95.7301,
      "duration": 0.0806,
      "velocity": 114,
      "chip": "ym2612"
    },
    {
      "channel": 1,
      "note": 71,
      "start": 95.7306,
      "duration": 0.0183,
      "velocity": 114,
      "chip": "ym2612"
    },
    {
      "channel": 1,
      "note": 70,
      "start": 95.7489,
      "duration": 0.0206,
      "velocity": 114,
      "chip": "ym2612"
    },
    {
      "channel": 1,
      "note": 69,
      "start": 95.7695,
      "duration": 0.0193,
      "velocity": 114,
      "chip": "ym2612"
    },
    {
      "channel": 1,
      "note": 68,
      "start": 95.7888,
      "duration": 0.0209,
      "velocity": 114,
      "chip": "ym2612"
    },
    {
      "channel": 0,
      "note": 75,
      "start": 95.8093,
      "duration": 0.0799,
      "velocity": 116,
      "chip": "ym2612"
    },
    {
      "channel": 1,
      "note": 75,
      "start": 95.8099,
      "duration": 0.0807,
      "velocity": 114,
      "chip": "ym2612"
    },
    {
      "channel": 2,
      "note": 73,
      "start": 95.8107,
      "duration": 0.0182,
      "velocity": 114,
      "chip": "ym2612"
    },
    {
      "channel": 2,
      "note": 72,
      "start": 95.8289,
      "duration": 0.0206,
      "velocity": 114,
      "chip": "ym2612"
    },
    {
      "channel": 2,
      "note": 71,
      "start": 95.8495,
      "duration": 0.0194,
      "velocity": 114,
      "chip": "ym2612"
    },
    {
      "channel": 2,
      "note": 70,
      "start": 95.8689,
      "duration": 0.021,
      "velocity": 114,
      "chip": "ym2612"
    },
    {
      "channel": 0,
      "note": 77,
      "start": 95.8894,
      "duration": 0.0798,
      "velocity": 116,
      "chip": "ym2612"
    },
    {
      "channel": 2,
      "note": 77,
      "start": 95.8901,
      "duration": 0.0805,
      "velocity": 114,
      "chip": "ym2612"
    },
    {
      "channel": 1,
      "note": 74,
      "start": 95.8906,
      "duration": 0.0183,
      "velocity": 114,
      "chip": "ym2612"
    },
    {
      "channel": 1,
      "note": 73,
      "start": 95.9089,
      "duration": 0.0206,
      "velocity": 114,
      "chip": "ym2612"
    },
    {
      "channel": 1,
      "note": 73,
      "start": 95.9295,
      "duration": 0.0194,
      "velocity": 114,
      "chip": "ym2612"
    },
    {
      "channel": 1,
      "note": 72,
      "start": 95.9489,
      "duration": 0.0208,
      "velocity": 114,
      "chip": "ym2612"
    },
    {
      "channel": 0,
      "note": 75,
      "start": 95.9693,
      "duration": 0.0799,
      "velocity": 116,
      "chip": "ym2612"
    },
    {
      "channel": 1,
      "note": 75,
      "start": 95.9699,
      "duration": 0.0807,
      "velocity": 114,
      "chip": "ym2612"
    },
    {
      "channel": 2,
      "note": 76,
      "start": 95.9706,
      "duration": 0.0183,
      "velocity": 114,
      "chip": "ym2612"
    },
    {
      "channel": 2,
      "note": 76,
      "start": 95.9889,
      "duration": 0.0207,
      "velocity": 114,
      "chip": "ym2612"
    },
    {
      "channel": 2,
      "note": 75,
      "start": 96.0096,
      "duration": 0.0193,
      "velocity": 114,
      "chip": "ym2612"
    },
    {
      "channel": 2,
      "note": 74,
      "start": 96.0289,
      "duration": 0.021,
      "velocity": 114,
      "chip": "ym2612"
    },
    {
      "channel": 0,
      "note": 74,
      "start": 96.0494,
      "duration": 0.0798,
      "velocity": 116,
      "chip": "ym2612"
    },
    {
      "channel": 2,
      "note": 74,
      "start": 96.0501,
      "duration": 0.0805,
      "velocity": 114,
      "chip": "ym2612"
    },
    {
      "channel": 1,
      "note": 74,
      "start": 96.0506,
      "duration": 0.0183,
      "velocity": 114,
      "chip": "ym2612"
    },
    {
      "channel": 1,
      "note": 73,
      "start": 96.0689,
      "duration": 0.0206,
      "velocity": 114,
      "chip": "ym2612"
    },
    {
      "channel": 1,
      "note": 73,
      "start": 96.0895,
      "duration": 0.0194,
      "velocity": 114,
      "chip": "ym2612"
    },
    {
      "channel": 1,
      "note": 72,
      "start": 96.1089,
      "duration": 0.0208,
      "velocity": 114,
      "chip": "ym2612"
    },
    {
      "channel": 0,
      "note": 72,
      "start": 96.1293,
      "duration": 0.0799,
      "velocity": 116,
      "chip": "ym2612"
    },
    {
      "channel": 1,
      "note": 72,
      "start": 96.1299,
      "duration": 0.0807,
      "velocity": 114,
      "chip": "ym2612"
    },
    {
      "channel": 2,
      "note": 73,
      "start": 96.1306,
      "duration": 0.0183,
      "velocity": 114,
      "chip": "ym2612"
    },
    {
      "channel": 2,
      "note": 72,
      "start": 96.1489,
      "duration": 0.0207,
      "velocity": 114,
      "chip": "ym2612"
    },
    {
      "channel": 2,
      "note": 71,
      "start": 96.1696,
      "duration": 0.0193,
      "velocity": 114,
      "chip": "ym2612"
    },
    {
      "channel": 2,
      "note": 70,
      "start": 96.1889,
      "duration": 0.021,
      "velocity": 114,
      "chip": "ym2612"
    },
    {
      "channel": 0,
      "note": 70,
      "start": 96.2094,
      "duration": 0.0798,
      "velocity": 116,
      "chip": "ym2612"
    },
    {
      "channel": 2,
      "note": 70,
      "start": 96.2101,
      "duration": 0.4003,
      "velocity": 114,
      "chip": "ym2612"
    },
    {
      "channel": 1,
      "note": 71,
      "start": 96.2106,
      "duration": 0.0183,
      "velocity": 114,
      "chip": "ym2612"
    },
    {
      "channel": 1,
      "note": 70,
      "start": 96.2289,
      "duration": 0.0206,
      "velocity": 114,
      "chip": "ym2612"
    },
    {
      "channel": 1,
      "note": 69,
      "start": 96.2495,
      "duration": 0.0194,
      "velocity": 114,
      "chip": "ym2612"
    },
    {
      "channel": 1,
      "note": 68,
      "start": 96.2689,
      "duration": 0.0208,
      "velocity": 114,
      "chip": "ym2612"
    },
    {
      "channel": 0,
      "note": 72,
      "start": 96.2893,
      "duration": 0.32,
      "velocity": 116,
      "chip": "ym2612"
    },
    {
      "channel": 1,
      "note": 72,
      "start": 96.2899,
      "duration": 0.1196,
      "velocity": 114,
      "chip": "ym2612"
    },
    {
      "channel": 1,
      "note": 72,
      "start": 96.4095,
      "duration": 0.0194,
      "velocity": 114,
      "chip": "ym2612"
    },
    {
      "channel": 1,
      "note": 72,
      "start": 96.4289,
      "duration": 0.0206,
      "velocity": 114,
      "chip": "ym2612"
    },
    {
      "channel": 1,
      "note": 71,
      "start": 96.4495,
      "duration": 0.0194,
      "velocity": 114,
      "chip": "ym2612"
    },
    {
      "channel": 1,
      "note": 71,
      "start": 96.4689,
      "duration": 0.0205,
      "velocity": 114,
      "chip": "ym2612"
    },
    {
      "channel": 1,
      "note": 71,
      "start": 96.4894,
      "duration": 0.0195,
      "velocity": 114,
      "chip": "ym2612"
    },
    {
      "channel": 1,
      "note": 71,
      "start": 96.5089,
      "duration": 0.0206,
      "velocity": 114,
      "chip": "ym2612"
    },
    {
      "channel": 1,
      "note": 71,
      "start": 96.5295,
      "duration": 0.0194,
      "velocity": 114,
      "chip": "ym2612"
    },
    {
      "channel": 1,
      "note": 71,
      "start": 96.5489,
      "duration": 0.0206,
      "velocity": 114,
      "chip": "ym2612"
    },
    {
      "channel": 1,
      "note": 70,
      "start": 96.5695,
      "duration": 0.0194,
      "velocity": 114,
      "chip": "ym2612"
    },
    {
      "channel": 1,
      "note": 70,
      "start": 96.5889,
      "duration": 0.021,
      "velocity": 114,
      "chip": "ym2612"
    },
    {
      "channel": 0,
      "note": 53,
      "start": 96.6095,
      "duration": 1.4013,
      "velocity": 97,
      "chip": "ym2612"
    },
    {
      "channel": 1,
      "note": 29,
      "start": 96.61,
      "duration": 0.4408,
      "velocity": 127,
      "chip": "ym2612"
    },
    {
      "channel": 2,
      "note": 41,
      "start": 96.6105,
      "duration": 2.241,
      "velocity": 84,
      "chip": "ym2612"
    },
    {
      "channel": 1,
      "note": 65,
      "start": 97.051,
      "duration": 0.1182,
      "velocity": 127,
      "chip": "ym2612"
    },
    {
      "channel": 1,
      "note": 77,
      "start": 97.1693,
      "duration": 0.1199,
      "velocity": 127,
      "chip": "ym2612"
    },
    {
      "channel": 1,
      "note": 65,
      "start": 97.2893,
      "duration": 0.2399,
      "velocity": 127,
      "chip": "ym2612"
    },
    {
      "channel": 1,
      "note": 65,
      "start": 97.5293,
      "duration": 0.1199,
      "velocity": 127,
      "chip": "ym2612"
    },
    {
      "channel": 1,
      "note": 77,
      "start": 97.6494,
      "duration": 0.1198,
      "velocity": 127,
      "chip": "ym2612"
    },
    {
      "channel": 1,
      "note": 65,
      "start": 97.7694,
      "duration": 0.2419,
      "velocity": 127,
      "chip": "ym2612"
    },
    {
      "channel": 0,
      "note": 41,
      "start": 98.0109,
      "duration": 0.1182,
      "velocity": 97,
      "chip": "ym2612"
    },
    {
      "channel": 1,
      "note": 65,
      "start": 98.0115,
      "duration": 0.1182,
      "velocity": 127,
      "chip": "ym2612"
    },
    {
      "channel": 0,
      "note": 41,
      "start": 98.1293,
      "duration": 0.1198,
      "velocity": 97,
      "chip": "ym2612"
    },
    {
      "channel": 1,
      "note": 77,
      "start": 98.1299,
      "duration": 0.1198,
      "velocity": 127,
      "chip": "ym2612"
    },
    {
      "channel": 0,
      "note": 41,
      "start": 98.2493,
      "duration": 0.1198,
      "velocity": 97,
      "chip": "ym2612"
    },
    {
      "channel": 1,
      "note": 65,
      "start": 98.2499,
      "duration": 0.2398,
      "velocity": 127,
      "chip": "ym2612"
    },
    {
      "channel": 0,
      "note": 41,
      "start": 98.3693,
      "duration": 0.1198,
      "velocity": 97,
      "chip": "ym2612"
    },
    {
      "channel": 0,
      "note": 41,
      "start": 98.4893,
      "duration": 0.1198,
      "velocity": 97,
      "chip": "ym2612"
    },
    {
      "channel": 1,
      "note": 65,
      "start": 98.4899,
      "duration": 0.1198,
      "velocity": 127,
      "chip": "ym2612"
    },
    {
      "channel": 0,
      "note": 41,
      "start": 98.6093,
      "duration": 0.12,
      "velocity": 97,
      "chip": "ym2612"
    },
    {
      "channel": 1,
      "note": 77,
      "start": 98.6099,
      "duration": 0.1199,
      "velocity": 127,
      "chip": "ym2612"
    },
    {
      "channel": 0,
      "note": 41,
      "start": 98.7294,
      "duration": 0.12,
      "velocity": 97,
      "chip": "ym2612"
    },
    {
      "channel": 1,
      "note": 65,
      "start": 98.73,
      "duration": 8.0305,
      "velocity": 110,
      "chip": "ym2612"
    },
    {
      "channel": 0,
      "note": 41,
      "start": 98.8496,
      "duration": 0.1196,
      "velocity": 97,
      "chip": "ym2612"
    },
    {
      "channel": 2,
      "note": 31,
      "start": 98.8518,
      "duration": 0.118,
      "velocity": 84,
      "chip": "ym2612"
    },
    {
      "channel": 0,
      "note": 41,
      "start": 98.9694,
      "duration": 0.1198,
      "velocity": 97,
      "chip": "ym2612"
    },
    {
      "channel": 2,
      "note": 31,
      "start": 98.97,
      "duration": 0.1199,
      "velocity": 84,
      "chip": "ym2612"
    },
    {
      "channel": 3,
      "note": 65,
      "start": 98.9721,
      "duration": 0.1182,
      "velocity": 127,
      "chip": "ym2612"
    },
    {
      "channel": 0,
      "note": 41,
      "start": 99.0894,
      "duration": 0.1198,
      "velocity": 97,
      "chip": "ym2612"
    },
    {
      "channel": 2,
      "note": 31,
      "start": 99.09,
      "duration": 0.1214,
      "velocity": 84,
      "chip": "ym2612"
    },
    {
      "channel": 3,
      "note": 77,
      "start": 99.0905,
      "duration": 0.1214,
      "velocity": 127,
      "chip": "ym2612"
    },
    {
      "channel": 0,
      "note": 41,
      "start": 99.2094,
      "duration": 0.1198,
      "velocity": 97,
      "chip": "ym2612"
    },
    {
      "channel": 2,
      "note": 31,
      "start": 99.2116,
      "duration": 0.1198,
      "velocity": 84,
      "chip": "ym2612"
    },
    {
      "channel": 3,
      "note": 65,
      "start": 99.2121,
      "duration": 0.2382,
      "velocity": 127,
      "chip": "ym2612"
    },
    {
      "channel": 0,
      "note": 41,
      "start": 99.3293,
      "duration": 0.1199,
      "velocity": 97,
      "chip": "ym2612"
    },
    {
      "channel": 2,
      "note": 31,
      "start": 99.3316,
      "duration": 0.1182,
      "velocity": 84,
      "chip": "ym2612"
    },
    {
      "channel": 0,
      "note": 41,
      "start": 99.4494,
      "duration": 0.1198,
      "velocity": 97,
      "chip": "ym2612"
    },
    {
      "channel": 2,
      "note": 31,
      "start": 99.45,
      "duration": 0.1198,
      "velocity": 84,
      "chip": "ym2612"
    },
    {
      "channel": 3,
      "note": 65,
      "start": 99.4505,
      "duration": 0.1198,
      "velocity": 127,
      "chip": "ym2612"
    },
    {
      "channel": 0,
      "note": 41,
      "start": 99.5693,
      "duration": 0.1199,
      "velocity": 97,
      "chip": "ym2612"
    },
    {
      "channel": 2,
      "note": 31,
      "start": 99.57,
      "duration": 0.1199,
      "velocity": 84,
      "chip": "ym2612"
    },
    {
      "channel": 3,
      "note": 77,
      "start": 99.5705,
      "duration": 0.1198,
      "velocity": 127,
      "chip": "ym2612"
    },
    {
      "channel": 0,
      "note": 41,
      "start": 99.6894,
      "duration": 0.1198,
      "velocity": 97,
      "chip": "ym2612"
    },
    {
      "channel": 2,
      "note": 31,
      "start": 99.69,
      "duration": 0.1198,
      "velocity": 84,
      "chip": "ym2612"
    },
    {
      "channel": 3,
      "note": 65,
      "start": 99.6905,
      "duration": 0.2414,
      "velocity": 127,
      "chip": "ym2612"
    },
    {
      "channel": 0,
      "note": 41,
      "start": 99.8094,
      "duration": 0.1198,
      "velocity": 97,
      "chip": "ym2612"
    },
    {
      "channel": 2,
      "note": 31,
      "start": 99.81,
      "duration": 0.1214,
      "velocity": 84,
      "chip": "ym2612"
    },
    {
      "channel": 0,
      "note": 41,
      "start": 99.9294,
      "duration": 0.1198,
      "velocity": 97,
      "chip": "ym2612"
    },
    {
      "channel": 2,
      "note": 31,
      "start": 99.9316,
      "duration": 0.1198,
      "velocity": 84,
      "chip": "ym2612"
    },
    {
      "channel": 3,
      "note": 65,
      "start": 99.9321,
      "duration": 0.1198,
      "velocity": 127,
      "chip": "ym2612"
    },
    {
      "channel": 0,
      "note": 41,
      "start": 100.0494,
      "duration": 0.1198,
      "velocity": 97,
      "chip": "ym2612"
    },
    {
      "channel": 2,
      "note": 31,
      "start": 100.0516,
      "duration": 0.1182,
      "velocity": 84,
      "chip": "ym2612"
    },
    {
      "channel": 3,
      "note": 77,
      "start": 100.0521,
      "duration": 0.1182,
      "velocity": 127,
      "chip": "ym2612"
    },
    {
      "channel": 0,
      "note": 41,
      "start": 100.1693,
      "duration": 0.1199,
      "velocity": 97,
      "chip": "ym2612"
    },
    {
      "channel": 2,
      "note": 31,
      "start": 100.17,
      "duration": 0.1214,
      "velocity": 84,
      "chip": "ym2612"
    },
    {
      "channel": 3,
      "note": 65,
      "start": 100.1705,
      "duration": 0.2414,
      "velocity": 127,
      "chip": "ym2612"
    },
    {
      "channel": 0,
      "note": 41,
      "start": 100.2894,
      "duration": 0.1198,
      "velocity": 97,
      "chip": "ym2612"
    },
    {
      "channel": 2,
      "note": 31,
      "start": 100.2916,
      "duration": 0.1198,
      "velocity": 84,
      "chip": "ym2612"
    },
    {
      "channel": 0,
      "note": 41,
      "start": 100.4094,
      "duration": 0.1198,
      "velocity": 97,
      "chip": "ym2612"
    },
    {
      "channel": 2,
      "note": 31,
      "start": 100.4116,
      "duration": 0.1182,
      "velocity": 84,
      "chip": "ym2612"
    },
    {
      "channel": 3,
      "note": 65,
      "start": 100.4121,
      "duration": 0.1182,
      "velocity": 127,
      "chip": "ym2612"
    },
    {
      "channel": 0,
      "note": 41,
      "start": 100.5293,
      "duration": 0.1199,
      "velocity": 97,
      "chip": "ym2612"
    },
    {
      "channel": 2,
      "note": 31,
      "start": 100.53,
      "duration": 0.1199,
      "velocity": 84,
      "chip": "ym2612"
    },
    {
      "channel": 3,
      "note": 77,
      "start": 100.5305,
      "duration": 0.1198,
      "velocity": 127,
      "chip": "ym2612"
    },
    {
      "channel": 0,
      "note": 41,
      "start": 100.6494,
      "duration": 0.1198,
      "velocity": 97,
      "chip": "ym2612"
    },
    {
      "channel": 2,
      "note": 31,
      "start": 100.65,
      "duration": 0.1199,
      "velocity": 84,
      "chip": "ym2612"
    },
    {
      "channel": 3,
      "note": 65,
      "start": 100.6505,
      "duration": 0.2398,
      "velocity": 127,
      "chip": "ym2612"
    },
    {
      "channel": 0,
      "note": 41,
      "start": 100.7694,
      "duration": 0.1198,
      "velocity": 97,
      "chip": "ym2612"
    },
    {
      "channel": 2,
      "note": 31,
      "start": 100.77,
      "duration": 0.1198,
      "velocity": 84,
      "chip": "ym2612"
    },
    {
      "channel": 0,
      "note": 41,
      "start": 100.8894,
      "duration": 0.1198,
      "velocity": 97,
      "chip": "ym2612"
    },
    {
      "channel": 2,
      "note": 31,
      "start": 100.89,
      "duration": 0.1198,
      "velocity": 84,
      "chip": "ym2612"
    },
    {
      "channel": 3,
      "note": 65,
      "start": 100.8905,
      "duration": 0.1198,
      "velocity": 127,
      "chip": "ym2612"
    },
    {
      "channel": 0,
      "note": 41,
      "start": 101.0093,
      "duration": 0.1199,
      "velocity": 97,
      "chip": "ym2612"
    },
    {
      "channel": 2,
      "note": 31,
      "start": 101.01,
      "duration": 0.1214,
      "velocity": 84,
      "chip": "ym2612"
    },
    {
      "channel": 3,
      "note": 77,
      "start": 101.0105,
      "duration": 0.1214,
      "velocity": 127,
      "chip": "ym2612"
    },
    {
      "channel": 0,
      "note": 41,
      "start": 101.1294,
      "duration": 0.1198,
      "velocity": 97,
      "chip": "ym2612"
    },
    {
      "channel": 2,
      "note": 31,
      "start": 101.1316,
      "duration": 0.1198,
      "velocity": 84,
      "chip": "ym2612"
    },
    {
      "channel": 3,
      "note": 65,
      "start": 101.1321,
      "duration": 0.2382,
      "velocity": 127,
      "chip": "ym2612"
    },
    {
      "channel": 0,
      "note": 41,
      "start": 101.2493,
      "duration": 0.1199,
      "velocity": 97,
      "chip": "ym2612"
    },
    {
      "channel": 2,
      "note": 31,
      "start": 101.2516,
      "duration": 0.1182,
      "velocity": 84,
      "chip": "ym2612"
    },
    {
      "channel": 0,
      "note": 41,
      "start": 101.3694,
      "duration": 0.1198,
      "velocity": 97,
      "chip": "ym2612"
    },
    {
      "channel": 2,
      "note": 31,
      "start": 101.37,
      "duration": 0.1199,
      "velocity": 84,
      "chip": "ym2612"
    },
    {
      "channel": 3,
      "note": 65,
      "start": 101.3705,
      "duration": 0.1198,
      "velocity": 127,
      "chip": "ym2612"
    },
    {
      "channel": 0,
      "note": 41,
      "start": 101.4894,
      "duration": 0.1198,
      "velocity": 97,
      "chip": "ym2612"
    },
    {
      "channel": 2,
      "note": 31,
      "start": 101.49,
      "duration": 0.1198,
      "velocity": 84,
      "chip": "ym2612"
    },
    {
      "channel": 3,
      "note": 77,
      "start": 101.4905,
      "duration": 0.1198,
      "velocity": 127,
      "chip": "ym2612"
    },
    {
      "channel": 0,
      "note": 41,
      "start": 101.6093,
      "duration": 0.1199,
      "velocity": 97,
      "chip": "ym2612"
    },
    {
      "channel": 2,
      "note": 31,
      "start": 101.61,
      "duration": 0.1198,
      "velocity": 84,
      "chip": "ym2612"
    },
    {
      "channel": 3,
      "note": 65,
      "start": 101.6105,
      "duration": 0.2414,
      "velocity": 127,
      "chip": "ym2612"
    },
    {
      "channel": 0,
      "note": 41,
      "start": 101.7293,
      "duration": 0.1199,
      "velocity": 97,
      "chip": "ym2612"
    },
    {
      "channel": 2,
      "note": 31,
      "start": 101.73,
      "duration": 0.1214,
      "velocity": 84,
      "chip": "ym2612"
    },
    {
      "channel": 0,
      "note": 41,
      "start": 101.8494,
      "duration": 0.1198,
      "velocity": 97,
      "chip": "ym2612"
    },
    {
      "channel": 2,
      "note": 31,
      "start": 101.8516,
      "duration": 0.1198,
      "velocity": 84,
      "chip": "ym2612"
    },
    {
      "channel": 3,
      "note": 65,
      "start": 101.8521,
      "duration": 0.1198,
      "velocity": 127,
      "chip": "ym2612"
    },
    {
      "channel": 0,
      "note": 41,
      "start": 101.9694,
      "duration": 0.1198,
      "velocity": 97,
      "chip": "ym2612"
    },
    {
      "channel": 2,
      "note": 31,
      "start": 101.9716,
      "duration": 0.1182,
      "velocity": 84,
      "chip": "ym2612"
    },
    {
      "channel": 3,
      "note": 77,
      "start": 101.9721,
      "duration": 0.1182,
      "velocity": 127,
      "chip": "ym2612"
    },
    {
      "channel": 0,
      "note": 41,
      "start": 102.0893,
      "duration": 0.1199,
      "velocity": 97,
      "chip": "ym2612"
    },
    {
      "channel": 2,
      "note": 31,
      "start": 102.09,
      "duration": 0.1214,
      "velocity": 84,
      "chip": "ym2612"
    },
    {
      "channel": 3,
      "note": 65,
      "start": 102.0905,
      "duration": 0.2414,
      "velocity": 127,
      "chip": "ym2612"
    },
    {
      "channel": 0,
      "note": 41,
      "start": 102.2094,
      "duration": 0.1198,
      "velocity": 97,
      "chip": "ym2612"
    },
    {
      "channel": 2,
      "note": 31,
      "start": 102.2116,
      "duration": 0.1198,
      "velocity": 84,
      "chip": "ym2612"
    },
    {
      "channel": 0,
      "note": 41,
      "start": 102.3294,
      "duration": 0.1198,
      "velocity": 97,
      "chip": "ym2612"
    },
    {
      "channel": 2,
      "note": 31,
      "start": 102.3316,
      "duration": 0.1183,
      "velocity": 84,
      "chip": "ym2612"
    },
    {
      "channel": 3,
      "note": 65,
      "start": 102.3321,
      "duration": 0.1182,
      "velocity": 127,
      "chip": "ym2612"
    },
    {
      "channel": 0,
      "note": 41,
      "start": 102.4494,
      "duration": 0.1198,
      "velocity": 97,
      "chip": "ym2612"
    },
    {
      "channel": 2,
      "note": 31,
      "start": 102.45,
      "duration": 0.1214,
      "velocity": 84,
      "chip": "ym2612"
    },
    {
      "channel": 3,
      "note": 77,
      "start": 102.4505,
      "duration": 0.1214,
      "velocity": 127,
      "chip": "ym2612"
    },
    {
      "channel": 0,
      "note": 41,
      "start": 102.5694,
      "duration": 0.1198,
      "velocity": 97,
      "chip": "ym2612"
    },
    {
      "channel": 2,
      "note": 31,
      "start": 102.5716,
      "duration": 0.1198,
      "velocity": 84,
      "chip": "ym2612"
    },
    {
      "channel": 3,
      "note": 65,
      "start": 102.5721,
      "duration": 0.2382,
      "velocity": 127,
      "chip": "ym2612"
    },
    {
      "channel": 0,
      "note": 41,
      "start": 102.6894,
      "duration": 0.1198,
      "velocity": 97,
      "chip": "ym2612"
    },
    {
      "channel": 2,
      "note": 31,
      "start": 102.6916,
      "duration": 0.1182,
      "velocity": 84,
      "chip": "ym2612"
    },
    {
      "channel": 0,
      "note": 41,
      "start": 102.8094,
      "duration": 0.1198,
      "velocity": 97,
      "chip": "ym2612"
    },
    {
      "channel": 2,
      "note": 31,
      "start": 102.81,
      "duration": 0.1198,
      "velocity": 84,
      "chip": "ym2612"
    },
    {
      "channel": 3,
      "note": 65,
      "start": 102.8105,
      "duration": 0.1198,
      "velocity": 127,
      "chip": "ym2612"
    },
    {
      "channel": 0,
      "note": 41,
      "start": 102.9294,
      "duration": 0.1198,
      "velocity": 97,
      "chip": "ym2612"
    },
    {
      "channel": 2,
      "note": 31,
      "start": 102.93,
      "duration": 0.1214,
      "velocity": 84,
      "chip": "ym2612"
    },
    {
      "channel": 3,
      "note": 77,
      "start": 102.9305,
      "duration": 0.1214,
      "velocity": 127,
      "chip": "ym2612"
    },
    {
      "channel": 0,
      "note": 41,
      "start": 103.0494,
      "duration": 0.1198,
      "velocity": 97,
      "chip": "ym2612"
    },
    {
      "channel": 2,
      "note": 31,
      "start": 103.0516,
      "duration": 0.1198,
      "velocity": 84,
      "chip": "ym2612"
    },
    {
      "channel": 3,
      "note": 65,
      "start": 103.0521,
      "duration": 0.2382,
      "velocity": 127,
      "chip": "ym2612"
    },
    {
      "channel": 0,
      "note": 41,
      "start": 103.1693,
      "duration": 0.1199,
      "velocity": 97,
      "chip": "ym2612"
    },
    {
      "channel": 2,
      "note": 31,
      "start": 103.1716,
      "duration": 0.1182,
      "velocity": 84,
      "chip": "ym2612"
    },
    {
      "channel": 0,
      "note": 41,
      "start": 103.2894,
      "duration": 0.1198,
      "velocity": 97,
      "chip": "ym2612"
    },
    {
      "channel": 2,
      "note": 31,
      "start": 103.29,
      "duration": 0.1198,
      "velocity": 84,
      "chip": "ym2612"
    },
    {
      "channel": 3,
      "note": 65,
      "start": 103.2905,
      "duration": 0.1198,
      "velocity": 127,
      "chip": "ym2612"
    },
    {
      "channel": 0,
      "note": 41,
      "start": 103.4093,
      "duration": 0.1199,
      "velocity": 97,
      "chip": "ym2612"
    },
    {
      "channel": 2,
      "note": 31,
      "start": 103.41,
      "duration": 0.1198,
      "velocity": 84,
      "chip": "ym2612"
    },
    {
      "channel": 3,
      "note": 77,
      "start": 103.4105,
      "duration": 0.1198,
      "velocity": 127,
      "chip": "ym2612"
    },
    {
      "channel": 0,
      "note": 41,
      "start": 103.5294,
      "duration": 0.1198,
      "velocity": 97,
      "chip": "ym2612"
    },
    {
      "channel": 2,
      "note": 31,
      "start": 103.53,
      "duration": 0.1198,
      "velocity": 84,
      "chip": "ym2612"
    },
    {
      "channel": 3,
      "note": 65,
      "start": 103.5305,
      "duration": 0.2414,
      "velocity": 127,
      "chip": "ym2612"
    },
    {
      "channel": 0,
      "note": 41,
      "start": 103.6493,
      "duration": 0.1199,
      "velocity": 97,
      "chip": "ym2612"
    },
    {
      "channel": 2,
      "note": 31,
      "start": 103.65,
      "duration": 0.1214,
      "velocity": 84,
      "chip": "ym2612"
    },
    {
      "channel": 0,
      "note": 41,
      "start": 103.7694,
      "duration": 0.1198,
      "velocity": 97,
      "chip": "ym2612"
    },
    {
      "channel": 2,
      "note": 31,
      "start": 103.7716,
      "duration": 0.1198,
      "velocity": 84,
      "chip": "ym2612"
    },
    {
      "channel": 3,
      "note": 65,
      "start": 103.7721,
      "duration": 0.1198,
      "velocity": 127,
      "chip": "ym2612"
    },
    {
      "channel": 0,
      "note": 41,
      "start": 103.8894,
      "duration": 0.1198,
      "velocity": 97,
      "chip": "ym2612"
    },
    {
      "channel": 2,
      "note": 31,
      "start": 103.8916,
      "duration": 0.1182,
      "velocity": 84,
      "chip": "ym2612"
    },
    {
      "channel": 3,
      "note": 77,
      "start": 103.8921,
      "duration": 0.1182,
      "velocity": 127,
      "chip": "ym2612"
    },
    {
      "channel": 0,
      "note": 41,
      "start": 104.0093,
      "duration": 0.1199,
      "velocity": 97,
      "chip": "ym2612"
    },
    {
      "channel": 2,
      "note": 31,
      "start": 104.01,
      "duration": 0.1214,
      "velocity": 84,
      "chip": "ym2612"
    },
    {
      "channel": 3,
      "note": 65,
      "start": 104.0105,
      "duration": 0.2414,
      "velocity": 127,
      "chip": "ym2612"
    },
    {
      "channel": 0,
      "note": 41,
      "start": 104.1294,
      "duration": 0.1198,
      "velocity": 97,
      "chip": "ym2612"
    },
    {
      "channel": 2,
      "note": 31,
      "start": 104.1316,
      "duration": 0.1198,
      "velocity": 84,
      "chip": "ym2612"
    },
    {
      "channel": 0,
      "note": 41,
      "start": 104.2494,
      "duration": 0.1198,
      "velocity": 97,
      "chip": "ym2612"
    },
    {
      "channel": 2,
      "note": 31,
      "start": 104.2516,
      "duration": 0.1182,
      "velocity": 84,
      "chip": "ym2612"
    },
    {
      "channel": 3,
      "note": 65,
      "start": 104.2521,
      "duration": 0.1182,
      "velocity": 127,
      "chip": "ym2612"
    },
    {
      "channel": 0,
      "note": 41,
      "start": 104.3693,
      "duration": 0.1199,
      "velocity": 97,
      "chip": "ym2612"
    },
    {
      "channel": 2,
      "note": 31,
      "start": 104.37,
      "duration": 0.1199,
      "velocity": 84,
      "chip": "ym2612"
    },
    {
      "channel": 3,
      "note": 77,
      "start": 104.3705,
      "duration": 0.1198,
      "velocity": 127,
      "chip": "ym2612"
    },
    {
      "channel": 0,
      "note": 41,
      "start": 104.4894,
      "duration": 0.1198,
      "velocity": 97,
      "chip": "ym2612"
    },
    {
      "channel": 2,
      "note": 31,
      "start": 104.49,
      "duration": 0.1199,
      "velocity": 84,
      "chip": "ym2612"
    },
    {
      "channel": 3,
      "note": 65,
      "start": 104.4905,
      "duration": 0.2398,
      "velocity": 127,
      "chip": "ym2612"
    },
    {
      "channel": 0,
      "note": 41,
      "start": 104.6094,
      "duration": 0.1198,
      "velocity": 97,
      "chip": "ym2612"
    },
    {
      "channel": 2,
      "note": 31,
      "start": 104.61,
      "duration": 0.1198,
      "velocity": 84,
      "chip": "ym2612"
    },
    {
      "channel": 0,
      "note": 41,
      "start": 104.7293,
      "duration": 0.1199,
      "velocity": 97,
      "chip": "ym2612"
    },
    {
      "channel": 2,
      "note": 31,
      "start": 104.73,
      "duration": 0.1198,
      "velocity": 84,
      "chip": "ym2612"
    },
    {
      "channel": 3,
      "note": 65,
      "start": 104.7305,
      "duration": 0.1198,
      "velocity": 127,
      "chip": "ym2612"
    },
    {
      "channel": 0,
      "note": 41,
      "start": 104.8493,
      "duration": 0.1199,
      "velocity": 97,
      "chip": "ym2612"
    },
    {
      "channel": 2,
      "note": 31,
      "start": 104.85,
      "duration": 0.1214,
      "velocity": 84,
      "chip": "ym2612"
    },
    {
      "channel": 3,
      "note": 77,
      "start": 104.8505,
      "duration": 0.1214,
      "velocity": 127,
      "chip": "ym2612"
    },
    {
      "channel": 0,
      "note": 41,
      "start": 104.9694,
      "duration": 0.1198,
      "velocity": 97,
      "chip": "ym2612"
    },
    {
      "channel": 2,
      "note": 31,
      "start": 104.9716,
      "duration": 0.1198,
      "velocity": 84,
      "chip": "ym2612"
    },
    {
      "channel": 3,
      "note": 65,
      "start": 104.9721,
      "duration": 0.2382,
      "velocity": 127,
      "chip": "ym2612"
    },
    {
      "channel": 0,
      "note": 41,
      "start": 105.0894,
      "duration": 0.1198,
      "velocity": 97,
      "chip": "ym2612"
    },
    {
      "channel": 2,
      "note": 31,
      "start": 105.0916,
      "duration": 0.1182,
      "velocity": 84,
      "chip": "ym2612"
    },
    {
      "channel": 0,
      "note": 41,
      "start": 105.2094,
      "duration": 0.1198,
      "velocity": 97,
      "chip": "ym2612"
    },
    {
      "channel": 2,
      "note": 31,
      "start": 105.21,
      "duration": 0.1198,
      "velocity": 84,
      "chip": "ym2612"
    },
    {
      "channel": 3,
      "note": 65,
      "start": 105.2105,
      "duration": 0.1198,
      "velocity": 127,
      "chip": "ym2612"
    },
    {
      "channel": 0,
      "note": 41,
      "start": 105.3294,
      "duration": 0.1198,
      "velocity": 97,
      "chip": "ym2612"
    },
    {
      "channel": 2,
      "note": 31,
      "start": 105.33,
      "duration": 0.1198,
      "velocity": 84,
      "chip": "ym2612"
    },
    {
      "channel": 3,
      "note": 77,
      "start": 105.3305,
      "duration": 0.1198,
      "velocity": 127,
      "chip": "ym2612"
    },
    {
      "channel": 0,
      "note": 41,
      "start": 105.4493,
      "duration": 0.1199,
      "velocity": 97,
      "chip": "ym2612"
    },
    {
      "channel": 2,
      "note": 31,
      "start": 105.45,
      "duration": 0.1198,
      "velocity": 84,
      "chip": "ym2612"
    },
    {
      "channel": 3,
      "note": 65,
      "start": 105.4505,
      "duration": 0.2414,
      "velocity": 127,
      "chip": "ym2612"
    },
    {
      "channel": 0,
      "note": 41,
      "start": 105.5693,
      "duration": 0.1199,
      "velocity": 97,
      "chip": "ym2612"
    },
    {
      "channel": 2,
      "note": 31,
      "start": 105.57,
      "duration": 0.1214,
      "velocity": 84,
      "chip": "ym2612"
    },
    {
      "channel": 0,
      "note": 41,
      "start": 105.6893,
      "duration": 0.1199,
      "velocity": 97,
      "chip": "ym2612"
    },
    {
      "channel": 2,
      "note": 31,
      "start": 105.6916,
      "duration": 0.1198,
      "velocity": 84,
      "chip": "ym2612"
    },
    {
      "channel": 3,
      "note": 65,
      "start": 105.6921,
      "duration": 0.1198,
      "velocity": 127,
      "chip": "ym2612"
    },
    {
      "channel": 0,
      "note": 41,
      "start": 105.8094,
      "duration": 0.1198,
      "velocity": 97,
      "chip": "ym2612"
    },
    {
      "channel": 2,
      "note": 31,
      "start": 105.8116,
      "duration": 0.1183,
      "velocity": 84,
      "chip": "ym2612"
    },
    {
      "channel": 3,
      "note": 77,
      "start": 105.8121,
      "duration": 0.1182,
      "velocity": 127,
      "chip": "ym2612"
    },
    {
      "channel": 0,
      "note": 41,
      "start": 105.9294,
      "duration": 0.1198,
      "velocity": 97,
      "chip": "ym2612"
    },
    {
      "channel": 2,
      "note": 31,
      "start": 105.93,
      "duration": 0.1214,
      "velocity": 84,
      "chip": "ym2612"
    },
    {
      "channel": 3,
      "note": 65,
      "start": 105.9305,
      "duration": 0.2414,
      "velocity": 127,
      "chip": "ym2612"
    },
    {
      "channel": 0,
      "note": 41,
      "start": 106.0494,
      "duration": 0.1198,
      "velocity": 97,
      "chip": "ym2612"
    },
    {
      "channel": 2,
      "note": 31,
      "start": 106.0516,
      "duration": 0.1198,
      "velocity": 84,
      "chip": "ym2612"
    },
    {
      "channel": 0,
      "note": 41,
      "start": 106.1693,
      "duration": 0.1199,
      "velocity": 97,
      "chip": "ym2612"
    },
    {
      "channel": 2,
      "note": 31,
      "start": 106.1716,
      "duration": 0.1183,
      "velocity": 84,
      "chip": "ym2612"
    },
    {
      "channel": 3,
      "note": 65,
      "start": 106.1721,
      "duration": 0.1182,
      "velocity": 127,
      "chip": "ym2612"
    },
    {
      "channel": 0,
      "note": 41,
      "start": 106.2894,
      "duration": 0.1199,
      "velocity": 97,
      "chip": "ym2612"
    },
    {
      "channel": 2,
      "note": 31,
      "start": 106.29,
      "duration": 0.1215,
      "velocity": 84,
      "chip": "ym2612"
    },
    {
      "channel": 3,
      "note": 77,
      "start": 106.2905,
      "duration": 0.1215,
      "velocity": 127,
      "chip": "ym2612"
    },
    {
      "channel": 0,
      "note": 41,
      "start": 106.4095,
      "duration": 0.1199,
      "velocity": 97,
      "chip": "ym2612"
    },
    {
      "channel": 2,
      "note": 31,
      "start": 106.4117,
      "duration": 0.1199,
      "velocity": 97,
      "chip": "ym2612"
    },
    {
      "channel": 3,
      "note": 65,
      "start": 106.4122,
      "duration": 0.1215,
      "velocity": 97,
      "chip": "ym2612"
    },
    {
      "channel": 0,
      "note": 41,
      "start": 106.5296,
      "duration": 0.1088,
      "velocity": 97,
      "chip": "ym2612"
    },
    {
      "channel": 2,
      "note": 60,
      "start": 106.5318,
      "duration": 4.0201,
      "velocity": 97,
      "chip": "ym2612"
    },
    {
      "channel": 3,
      "note": 65,
      "start": 106.5339,
      "duration": 4.0179,
      "velocity": 97,
      "chip": "ym2612"
    },
    {
      "channel": 0,
      "note": 41,
      "start": 106.6385,
      "duration": 0.1198,
      "velocity": 97,
      "chip": "ym2612"
    },
    {
      "channel": 4,
      "note": 65,
      "start": 106.6409,
      "duration": 0.1203,
      "velocity": 127,
      "chip": "ym2612"
    },
    {
      "channel": 0,
      "note": 41,
      "start": 106.7585,
      "duration": 0.1198,
      "velocity": 97,
      "chip": "ym2612"
    },
    {
      "channel": 1,
      "note": 65,
      "start": 106.7607,
      "duration": 3.7911,
      "velocity": 110,
      "chip": "ym2612"
    },
    {
      "channel": 4,
      "note": 77,
      "start": 106.7613,
      "duration": 0.1178,
      "velocity": 127,
      "chip": "ym2612"
    },
    {
      "channel": 5,
      "note": 21,
      "start": 106.7635,
      "duration": 0.1162,
      "velocity": 84,
      "chip": "ym2612"
    },
    {
      "channel": 0,
      "note": 41,
      "start": 106.8785,
      "duration": 3.6733,
      "velocity": 97,
      "chip": "ym2612"
    },
    {
      "channel": 4,
      "note": 65,
      "start": 106.8793,
      "duration": 3.6725,
      "velocity": 127,
      "chip": "ym2612"
    },
    {
      "channel": 5,
      "note": 21,
      "start": 106.8799,
      "duration": 3.672,
      "velocity": 84,
      "chip": "ym2612"
    }
  ]
}