{
  "track_name": "01 - Theme of Spider-Man",
  "duration_sec": 61.233,
  "sample_rate": 44100,
  "note_count": 1002,
  "unique_pitches": 18,
  "pitch_range": 58,
  "avg_note_duration": 0.1087,
  "reconstruction_stats": {
    "notes_reconstructed": 1002,
    "keyon_events": 1002,
    "keyoff_events": 1002,
    "orphan_keyons": 0,
    "unique_pitches": 18,
    "pitch_range": 58,
    "avg_duration_sec": 0.1087
  },
  "metadata": {
    "source": "S\\Spider-Man - The Animated Series\\01 - Theme of Spider-Man.vgm"
  },
  "notes": [
    {
      "channel": 0,
      "note": 54,
      "start": 0.9825,
      "duration": 0.1541,
      "velocity": 113,
      "chip": "ym2612"
    },
    {
      "channel": 1,
      "note": 45,
      "start": 0.9851,
      "duration": 0.0344,
      "velocity": 118,
      "chip": "ym2612"
    },
    {
      "channel": 2,
      "note": 39,
      "start": 0.9875,
      "duration": 0.0321,
      "velocity": 119,
      "chip": "ym2612"
    },
    {
      "channel": 4,
      "note": 66,
      "start": 0.9914,
      "duration": 0.0402,
      "velocity": 118,
      "chip": "ym2612"
    },
    {
      "channel": 3,
      "note": 54,
      "start": 0.9942,
      "duration": 0.1366,
      "velocity": 106,
      "chip": "ym2612"
    },
    {
      "channel": 2,
      "note": 39,
      "start": 1.0354,
      "duration": 0.033,
      "velocity": 119,
      "chip": "ym2612"
    },
    {
      "channel": 2,
      "note": 39,
      "start": 1.0765,
      "duration": 0.0354,
      "velocity": 119,
      "chip": "ym2612"
    },
    {
      "channel": 4,
      "note": 66,
      "start": 1.0806,
      "duration": 0.0807,
      "velocity": 118,
      "chip": "ym2612"
    },
    {
      "channel": 2,
      "note": 39,
      "start": 1.1265,
      "duration": 0.0349,
      "velocity": 119,
      "chip": "ym2612"
    },
    {
      "channel": 1,
      "note": 45,
      "start": 1.17,
      "duration": 0.0423,
      "velocity": 118,
      "chip": "ym2612"
    },
    {
      "channel": 2,
      "note": 39,
      "start": 1.1731,
      "duration": 0.0394,
      "velocity": 119,
      "chip": "ym2612"
    },
    {
      "channel": 4,
      "note": 69,
      "start": 1.1757,
      "duration": 0.0802,
      "velocity": 118,
      "chip": "ym2612"
    },
    {
      "channel": 2,
      "note": 39,
      "start": 1.221,
      "duration": 0.035,
      "velocity": 119,
      "chip": "ym2612"
    },
    {
      "channel": 2,
      "note": 39,
      "start": 1.2642,
      "duration": 0.0407,
      "velocity": 119,
      "chip": "ym2612"
    },
    {
      "channel": 4,
      "note": 76,
      "start": 1.2672,
      "duration": 0.7311,
      "velocity": 118,
      "chip": "ym2612"
    },
    {
      "channel": 2,
      "note": 39,
      "start": 1.3136,
      "duration": 0.035,
      "velocity": 119,
      "chip": "ym2612"
    },
    {
      "channel": 1,
      "note": 45,
      "start": 1.3574,
      "duration": 0.0413,
      "velocity": 118,
      "chip": "ym2612"
    },
    {
      "channel": 2,
      "note": 39,
      "start": 1.3595,
      "duration": 0.0394,
      "velocity": 119,
      "chip": "ym2612"
    },
    {
      "channel": 2,
      "note": 39,
      "start": 1.4077,
      "duration": 0.0339,
      "velocity": 119,
      "chip": "ym2612"
    },
    {
      "channel": 2,
      "note": 39,
      "start": 1.4501,
      "duration": 0.0403,
      "velocity": 119,
      "chip": "ym2612"
    },
    {
      "channel": 2,
      "note": 39,
      "start": 1.499,
      "duration": 0.0346,
      "velocity": 119,
      "chip": "ym2612"
    },
    {
      "channel": 1,
      "note": 45,
      "start": 1.5422,
      "duration": 0.0892,
      "velocity": 118,
      "chip": "ym2612"
    },
    {
      "channel": 2,
      "note": 39,
      "start": 1.5444,
      "duration": 0.0873,
      "velocity": 119,
      "chip": "ym2612"
    },
    {
      "channel": 2,
      "note": 39,
      "start": 1.6512,
      "duration": 0.0971,
      "velocity": 119,
      "chip": "ym2612"
    },
    {
      "channel": 2,
      "note": 39,
      "start": 1.7844,
      "duration": 0.0973,
      "velocity": 119,
      "chip": "ym2612"
    },
    {
      "channel": 2,
      "note": 39,
      "start": 1.901,
      "duration": 0.0974,
      "velocity": 119,
      "chip": "ym2612"
    },
    {
      "channel": 1,
      "note": 45,
      "start": 2.0174,
      "duration": 0.0368,
      "velocity": 118,
      "chip": "ym2612"
    },
    {
      "channel": 2,
      "note": 39,
      "start": 2.0195,
      "duration": 0.0349,
      "velocity": 119,
      "chip": "ym2612"
    },
    {
      "channel": 4,
      "note": 75,
      "start": 2.0226,
      "duration": 0.266,
      "velocity": 118,
      "chip": "ym2612"
    },
    {
      "channel": 2,
      "note": 39,
      "start": 2.0642,
      "duration": 0.0332,
      "velocity": 119,
      "chip": "ym2612"
    },
    {
      "channel": 2,
      "note": 39,
      "start": 2.1126,
      "duration": 0.0335,
      "velocity": 119,
      "chip": "ym2612"
    },
    {
      "channel": 2,
      "note": 39,
      "start": 2.1554,
      "duration": 0.0341,
      "velocity": 119,
      "chip": "ym2612"
    },
    {
      "channel": 1,
      "note": 45,
      "start": 2.2044,
      "duration": 0.0346,
      "velocity": 118,
      "chip": "ym2612"
    },
    {
      "channel": 2,
      "note": 39,
      "start": 2.2066,
      "duration": 0.0326,
      "velocity": 119,
      "chip": "ym2612"
    },
    {
      "channel": 2,
      "note": 39,
      "start": 2.2486,
      "duration": 0.0401,
      "velocity": 119,
      "chip": "ym2612"
    },
    {
      "channel": 2,
      "note": 39,
      "start": 2.2976,
      "duration": 0.0351,
      "velocity": 119,
      "chip": "ym2612"
    },
    {
      "channel": 4,
      "note": 74,
      "start": 2.3005,
      "duration": 0.7457,
      "velocity": 118,
      "chip": "ym2612"
    },
    {
      "channel": 2,
      "note": 39,
      "start": 2.3424,
      "duration": 0.0393,
      "velocity": 119,
      "chip": "ym2612"
    },
    {
      "channel": 1,
      "note": 45,
      "start": 2.3907,
      "duration": 0.0347,
      "velocity": 118,
      "chip": "ym2612"
    },
    {
      "channel": 2,
      "note": 39,
      "start": 2.3929,
      "duration": 0.0327,
      "velocity": 119,
      "chip": "ym2612"
    },
    {
      "channel": 2,
      "note": 39,
      "start": 2.4349,
      "duration": 0.0395,
      "velocity": 119,
      "chip": "ym2612"
    },
    {
      "channel": 2,
      "note": 39,
      "start": 2.4837,
      "duration": 0.0343,
      "velocity": 119,
      "chip": "ym2612"
    },
    {
      "channel": 3,
      "note": 66,
      "start": 2.4864,
      "duration": 0.095,
      "velocity": 126,
      "chip": "ym2612"
    },
    {
      "channel": 2,
      "note": 39,
      "start": 2.5273,
      "duration": 0.0398,
      "velocity": 119,
      "chip": "ym2612"
    },
    {
      "channel": 1,
      "note": 45,
      "start": 2.5767,
      "duration": 0.0861,
      "velocity": 118,
      "chip": "ym2612"
    },
    {
      "channel": 2,
      "note": 39,
      "start": 2.5789,
      "duration": 0.0841,
      "velocity": 119,
      "chip": "ym2612"
    },
    {
      "channel": 2,
      "note": 39,
      "start": 2.6823,
      "duration": 0.114,
      "velocity": 119,
      "chip": "ym2612"
    },
    {
      "channel": 0,
      "note": 52,
      "start": 2.8161,
      "duration": 0.2466,
      "velocity": 113,
      "chip": "ym2612"
    },
    {
      "channel": 2,
      "note": 39,
      "start": 2.8185,
      "duration": 0.0945,
      "velocity": 119,
      "chip": "ym2612"
    },
    {
      "channel": 3,
      "note": 66,
      "start": 2.8218,
      "duration": 0.2748,
      "velocity": 126,
      "chip": "ym2612"
    },
    {
      "channel": 5,
      "note": 52,
      "start": 2.825,
      "duration": 0.238,
      "velocity": 106,
      "chip": "ym2612"
    },
    {
      "channel": 2,
      "note": 39,
      "start": 2.9491,
      "duration": 0.0973,
      "velocity": 119,
      "chip": "ym2612"
    },
    {
      "channel": 0,
      "note": 54,
      "start": 3.0705,
      "duration": 0.1535,
      "velocity": 113,
      "chip": "ym2612"
    },
    {
      "channel": 1,
      "note": 45,
      "start": 3.0728,
      "duration": 0.0359,
      "velocity": 118,
      "chip": "ym2612"
    },
    {
      "channel": 2,
      "note": 39,
      "start": 3.075,
      "duration": 0.005,
      "velocity": 119,
      "chip": "ym2612"
    },
    {
      "channel": 4,
      "note": 66,
      "start": 3.0781,
      "duration": 0.0426,
      "velocity": 118,
      "chip": "ym2612"
    },
    {
      "channel": 2,
      "note": 54,
      "start": 3.082,
      "duration": 0.129,
      "velocity": 106,
      "chip": "ym2612"
    },
    {
      "channel": 4,
      "note": 66,
      "start": 3.1673,
      "duration": 0.081,
      "velocity": 118,
      "chip": "ym2612"
    },
    {
      "channel": 2,
      "note": 39,
      "start": 3.2145,
      "duration": 0.034,
      "velocity": 119,
      "chip": "ym2612"
    },
    {
      "channel": 1,
      "note": 45,
      "start": 3.2572,
      "duration": 0.036,
      "velocity": 118,
      "chip": "ym2612"
    },
    {
      "channel": 2,
      "note": 39,
      "start": 3.2604,
      "duration": 0.0331,
      "velocity": 119,
      "chip": "ym2612"
    },
    {
      "channel": 4,
      "note": 69,
      "start": 3.2629,
      "duration": 0.0794,
      "velocity": 118,
      "chip": "ym2612"
    },
    {
      "channel": 2,
      "note": 39,
      "start": 3.3082,
      "duration": 0.0342,
      "velocity": 119,
      "chip": "ym2612"
    },
    {
      "channel": 2,
      "note": 39,
      "start": 3.351,
      "duration": 0.0415,
      "velocity": 119,
      "chip": "ym2612"
    },
    {
      "channel": 4,
      "note": 76,
      "start": 3.354,
      "duration": 0.5272,
      "velocity": 118,
      "chip": "ym2612"
    },
    {
      "channel": 2,
      "note": 39,
      "start": 3.4012,
      "duration": 0.0342,
      "velocity": 119,
      "chip": "ym2612"
    },
    {
      "channel": 1,
      "note": 45,
      "start": 3.4441,
      "duration": 0.0416,
      "velocity": 118,
      "chip": "ym2612"
    },
    {
      "channel": 2,
      "note": 39,
      "start": 3.4463,
      "duration": 0.0396,
      "velocity": 119,
      "chip": "ym2612"
    },
    {
      "channel": 2,
      "note": 39,
      "start": 3.4943,
      "duration": 0.0346,
      "velocity": 119,
      "chip": "ym2612"
    },
    {
      "channel": 2,
      "note": 39,
      "start": 3.5374,
      "duration": 0.0399,
      "velocity": 119,
      "chip": "ym2612"
    },
    {
      "channel": 2,
      "note": 39,
      "start": 3.5857,
      "duration": 0.035,
      "velocity": 119,
      "chip": "ym2612"
    },
    {
      "channel": 1,
      "note": 45,
      "start": 3.6291,
      "duration": 0.041,
      "velocity": 118,
      "chip": "ym2612"
    },
    {
      "channel": 2,
      "note": 39,
      "start": 3.6313,
      "duration": 0.0389,
      "velocity": 119,
      "chip": "ym2612"
    },
    {
      "channel": 2,
      "note": 39,
      "start": 3.6788,
      "duration": 0.0346,
      "velocity": 119,
      "chip": "ym2612"
    },
    {
      "channel": 2,
      "note": 39,
      "start": 3.7217,
      "duration": 0.0429,
      "velocity": 119,
      "chip": "ym2612"
    },
    {
      "channel": 2,
      "note": 39,
      "start": 3.7841,
      "duration": 0.0973,
      "velocity": 119,
      "chip": "ym2612"
    },
    {
      "channel": 1,
      "note": 45,
      "start": 3.9003,
      "duration": 0.036,
      "velocity": 118,
      "chip": "ym2612"
    },
    {
      "channel": 2,
      "note": 39,
      "start": 3.9024,
      "duration": 0.0341,
      "velocity": 119,
      "chip": "ym2612"
    },
    {
      "channel": 4,
      "note": 75,
      "start": 3.9053,
      "duration": 0.259,
      "velocity": 118,
      "chip": "ym2612"
    },
    {
      "channel": 2,
      "note": 39,
      "start": 3.9463,
      "duration": 0.0333,
      "velocity": 119,
      "chip": "ym2612"
    },
    {
      "channel": 2,
      "note": 39,
      "start": 3.9946,
      "duration": 0.0338,
      "velocity": 119,
      "chip": "ym2612"
    },
    {
      "channel": 2,
      "note": 39,
      "start": 4.0376,
      "duration": 0.0337,
      "velocity": 119,
      "chip": "ym2612"
    },
    {
      "channel": 1,
      "note": 45,
      "start": 4.086,
      "duration": 0.0353,
      "velocity": 118,
      "chip": "ym2612"
    },
    {
      "channel": 2,
      "note": 39,
      "start": 4.0881,
      "duration": 0.0333,
      "velocity": 119,
      "chip": "ym2612"
    },
    {
      "channel": 2,
      "note": 39,
      "start": 4.1307,
      "duration": 0.0337,
      "velocity": 119,
      "chip": "ym2612"
    },
    {
      "channel": 2,
      "note": 39,
      "start": 4.1794,
      "duration": 0.0357,
      "velocity": 119,
      "chip": "ym2612"
    },
    {
      "channel": 4,
      "note": 74,
      "start": 4.1824,
      "duration": 0.7461,
      "velocity": 118,
      "chip": "ym2612"
    },
    {
      "channel": 2,
      "note": 39,
      "start": 4.2247,
      "duration": 0.0395,
      "velocity": 119,
      "chip": "ym2612"
    },
    {
      "channel": 1,
      "note": 45,
      "start": 4.2735,
      "duration": 0.0346,
      "velocity": 118,
      "chip": "ym2612"
    },
    {
      "channel": 2,
      "note": 39,
      "start": 4.2756,
      "duration": 0.0327,
      "velocity": 119,
      "chip": "ym2612"
    },
    {
      "channel": 2,
      "note": 39,
      "start": 4.3177,
      "duration": 0.0395,
      "velocity": 119,
      "chip": "ym2612"
    },
    {
      "channel": 2,
      "note": 39,
      "start": 4.3663,
      "duration": 0.0342,
      "velocity": 119,
      "chip": "ym2612"
    },
    {
      "channel": 3,
      "note": 66,
      "start": 4.3689,
      "duration": 0.0949,
      "velocity": 126,
      "chip": "ym2612"
    },
    {
      "channel": 2,
      "note": 39,
      "start": 4.4099,
      "duration": 0.0396,
      "velocity": 119,
      "chip": "ym2612"
    },
    {
      "channel": 1,
      "note": 45,
      "start": 4.4591,
      "duration": 0.0859,
      "velocity": 118,
      "chip": "ym2612"
    },
    {
      "channel": 2,
      "note": 39,
      "start": 4.4613,
      "duration": 0.0839,
      "velocity": 119,
      "chip": "ym2612"
    },
    {
      "channel": 2,
      "note": 39,
      "start": 4.5646,
      "duration": 0.114,
      "velocity": 119,
      "chip": "ym2612"
    },
    {
      "channel": 0,
      "note": 52,
      "start": 4.6983,
      "duration": 0.2645,
      "velocity": 113,
      "chip": "ym2612"
    },
    {
      "channel": 2,
      "note": 39,
      "start": 4.7007,
      "duration": 0.0945,
      "velocity": 119,
      "chip": "ym2612"
    },
    {
      "channel": 3,
      "note": 66,
      "start": 4.7037,
      "duration": 0.2371,
      "velocity": 126,
      "chip": "ym2612"
    },
    {
      "channel": 2,
      "note": 39,
      "start": 4.8147,
      "duration": 0.114,
      "velocity": 119,
      "chip": "ym2612"
    },
    {
      "channel": 5,
      "note": 54,
      "start": 4.9326,
      "duration": 0.0008,
      "velocity": 106,
      "chip": "ym2612"
    },
    {
      "channel": 1,
      "note": 54,
      "start": 4.9451,
      "duration": 0.1536,
      "velocity": 113,
      "chip": "ym2612"
    },
    {
      "channel": 4,
      "note": 45,
      "start": 4.9476,
      "duration": 0.0333,
      "velocity": 118,
      "chip": "ym2612"
    },
    {
      "channel": 2,
      "note": 39,
      "start": 4.9497,
      "duration": 0.0313,
      "velocity": 119,
      "chip": "ym2612"
    },
    {
      "channel": 3,
      "note": 66,
      "start": 4.9528,
      "duration": 0.0401,
      "velocity": 118,
      "chip": "ym2612"
    },
    {
      "channel": 2,
      "note": 39,
      "start": 4.9959,
      "duration": 0.0339,
      "velocity": 119,
      "chip": "ym2612"
    },
    {
      "channel": 2,
      "note": 39,
      "start": 5.0382,
      "duration": 0.0355,
      "velocity": 119,
      "chip": "ym2612"
    },
    {
      "channel": 3,
      "note": 66,
      "start": 5.042,
      "duration": 0.0806,
      "velocity": 118,
      "chip": "ym2612"
    },
    {
      "channel": 2,
      "note": 39,
      "start": 5.0882,
      "duration": 0.0345,
      "velocity": 119,
      "chip": "ym2612"
    },
    {
      "channel": 4,
      "note": 45,
      "start": 5.1318,
      "duration": 0.0371,
      "velocity": 118,
      "chip": "ym2612"
    },
    {
      "channel": 2,
      "note": 39,
      "start": 5.1349,
      "duration": 0.0341,
      "velocity": 119,
      "chip": "ym2612"
    },
    {
      "channel": 3,
      "note": 69,
      "start": 5.1379,
      "duration": 0.0794,
      "velocity": 118,
      "chip": "ym2612"
    },
    {
      "channel": 2,
      "note": 39,
      "start": 5.1827,
      "duration": 0.0349,
      "velocity": 119,
      "chip": "ym2612"
    },
    {
      "channel": 2,
      "note": 39,
      "start": 5.2258,
      "duration": 0.0362,
      "velocity": 119,
      "chip": "ym2612"
    },
    {
      "channel": 3,
      "note": 76,
      "start": 5.2286,
      "duration": 0.7283,
      "velocity": 118,
      "chip": "ym2612"
    },
    {
      "channel": 2,
      "note": 39,
      "start": 5.2754,
      "duration": 0.0346,
      "velocity": 119,
      "chip": "ym2612"
    },
    {
      "channel": 4,
      "note": 45,
      "start": 5.3183,
      "duration": 0.042,
      "velocity": 118,
      "chip": "ym2612"
    },
    {
      "channel": 2,
      "note": 39,
      "start": 5.3204,
      "duration": 0.04,
      "velocity": 119,
      "chip": "ym2612"
    },
    {
      "channel": 2,
      "note": 39,
      "start": 5.3688,
      "duration": 0.0349,
      "velocity": 119,
      "chip": "ym2612"
    },
    {
      "channel": 2,
      "note": 39,
      "start": 5.4117,
      "duration": 0.0396,
      "velocity": 119,
      "chip": "ym2612"
    },
    {
      "channel": 2,
      "note": 39,
      "start": 5.4598,
      "duration": 0.0341,
      "velocity": 119,
      "chip": "ym2612"
    },
    {
      "channel": 4,
      "note": 45,
      "start": 5.5023,
      "duration": 0.0879,
      "velocity": 118,
      "chip": "ym2612"
    },
    {
      "channel": 2,
      "note": 39,
      "start": 5.5044,
      "duration": 0.086,
      "velocity": 119,
      "chip": "ym2612"
    },
    {
      "channel": 2,
      "note": 39,
      "start": 5.6098,
      "duration": 0.0971,
      "velocity": 119,
      "chip": "ym2612"
    },
    {
      "channel": 2,
      "note": 39,
      "start": 5.7264,
      "duration": 0.1139,
      "velocity": 119,
      "chip": "ym2612"
    },
    {
      "channel": 2,
      "note": 39,
      "start": 5.8598,
      "duration": 0.0973,
      "velocity": 119,
      "chip": "ym2612"
    },
    {
      "channel": 4,
      "note": 45,
      "start": 5.971,
      "duration": 0.0419,
      "velocity": 118,
      "chip": "ym2612"
    },
    {
      "channel": 2,
      "note": 39,
      "start": 5.9731,
      "duration": 0.0398,
      "velocity": 119,
      "chip": "ym2612"
    },
    {
      "channel": 3,
      "note": 75,
      "start": 5.976,
      "duration": 0.2657,
      "velocity": 118,
      "chip": "ym2612"
    },
    {
      "channel": 2,
      "note": 39,
      "start": 6.0226,
      "duration": 0.0334,
      "velocity": 119,
      "chip": "ym2612"
    },
    {
      "channel": 2,
      "note": 39,
      "start": 6.0712,
      "duration": 0.0335,
      "velocity": 119,
      "chip": "ym2612"
    },
    {
      "channel": 2,
      "note": 39,
      "start": 6.114,
      "duration": 0.0341,
      "velocity": 119,
      "chip": "ym2612"
    },
    {
      "channel": 4,
      "note": 45,
      "start": 6.1629,
      "duration": 0.0352,
      "velocity": 118,
      "chip": "ym2612"
    },
    {
      "channel": 2,
      "note": 39,
      "start": 6.1651,
      "duration": 0.0332,
      "velocity": 119,
      "chip": "ym2612"
    },
    {
      "channel": 2,
      "note": 39,
      "start": 6.2081,
      "duration": 0.0337,
      "velocity": 119,
      "chip": "ym2612"
    },
    {
      "channel": 2,
      "note": 39,
      "start": 6.2565,
      "duration": 0.0353,
      "velocity": 119,
      "chip": "ym2612"
    },
    {
      "channel": 3,
      "note": 74,
      "start": 6.2593,
      "duration": 0.7469,
      "velocity": 118,
      "chip": "ym2612"
    },
    {
      "channel": 2,
      "note": 39,
      "start": 6.3015,
      "duration": 0.0336,
      "velocity": 119,
      "chip": "ym2612"
    },
    {
      "channel": 4,
      "note": 45,
      "start": 6.3504,
      "duration": 0.0346,
      "velocity": 118,
      "chip": "ym2612"
    },
    {
      "channel": 2,
      "note": 39,
      "start": 6.3526,
      "duration": 0.0325,
      "velocity": 119,
      "chip": "ym2612"
    },
    {
      "channel": 2,
      "note": 39,
      "start": 6.3944,
      "duration": 0.0396,
      "velocity": 119,
      "chip": "ym2612"
    },
    {
      "channel": 2,
      "note": 39,
      "start": 6.4433,
      "duration": 0.0345,
      "velocity": 119,
      "chip": "ym2612"
    },
    {
      "channel": 0,
      "note": 66,
      "start": 6.446,
      "duration": 0.0256,
      "velocity": 126,
      "chip": "ym2612"
    },
    {
      "channel": 2,
      "note": 39,
      "start": 6.4871,
      "duration": 0.0411,
      "velocity": 119,
      "chip": "ym2612"
    },
    {
      "channel": 0,
      "note": 66,
      "start": 6.4893,
      "duration": 0.0264,
      "velocity": 126,
      "chip": "ym2612"
    },
    {
      "channel": 4,
      "note": 45,
      "start": 6.5377,
      "duration": 0.0852,
      "velocity": 118,
      "chip": "ym2612"
    },
    {
      "channel": 2,
      "note": 39,
      "start": 6.5399,
      "duration": 0.0831,
      "velocity": 119,
      "chip": "ym2612"
    },
    {
      "channel": 0,
      "note": 66,
      "start": 6.5421,
      "duration": 0.064,
      "velocity": 126,
      "chip": "ym2612"
    },
    {
      "channel": 2,
      "note": 39,
      "start": 6.6424,
      "duration": 0.1139,
      "velocity": 119,
      "chip": "ym2612"
    },
    {
      "channel": 0,
      "note": 66,
      "start": 6.6452,
      "duration": 0.0776,
      "velocity": 126,
      "chip": "ym2612"
    },
    {
      "channel": 1,
      "note": 52,
      "start": 6.7766,
      "duration": 0.2686,
      "velocity": 113,
      "chip": "ym2612"
    },
    {
      "channel": 2,
      "note": 39,
      "start": 6.779,
      "duration": 0.0939,
      "velocity": 119,
      "chip": "ym2612"
    },
    {
      "channel": 0,
      "note": 66,
      "start": 6.7814,
      "duration": 0.0747,
      "velocity": 126,
      "chip": "ym2612"
    },
    {
      "channel": 5,
      "note": 52,
      "start": 6.7849,
      "duration": 0.238,
      "velocity": 106,
      "chip": "ym2612"
    },
    {
      "channel": 2,
      "note": 39,
      "start": 6.8924,
      "duration": 0.114,
      "velocity": 119,
      "chip": "ym2612"
    },
    {
      "channel": 0,
      "note": 66,
      "start": 6.8951,
      "duration": 0.0777,
      "velocity": 126,
      "chip": "ym2612"
    },
    {
      "channel": 4,
      "note": 54,
      "start": 7.03,
      "duration": 0.153,
      "velocity": 113,
      "chip": "ym2612"
    },
    {
      "channel": 0,
      "note": 45,
      "start": 7.0324,
      "duration": 0.0351,
      "velocity": 118,
      "chip": "ym2612"
    },
    {
      "channel": 2,
      "note": 39,
      "start": 7.0346,
      "duration": 0.0048,
      "velocity": 119,
      "chip": "ym2612"
    },
    {
      "channel": 3,
      "note": 66,
      "start": 7.0376,
      "duration": 0.0361,
      "velocity": 118,
      "chip": "ym2612"
    },
    {
      "channel": 2,
      "note": 54,
      "start": 7.0414,
      "duration": 0.1289,
      "velocity": 106,
      "chip": "ym2612"
    },
    {
      "channel": 3,
      "note": 66,
      "start": 7.1259,
      "duration": 0.0808,
      "velocity": 118,
      "chip": "ym2612"
    },
    {
      "channel": 2,
      "note": 39,
      "start": 7.1738,
      "duration": 0.0331,
      "velocity": 119,
      "chip": "ym2612"
    },
    {
      "channel": 0,
      "note": 45,
      "start": 7.2155,
      "duration": 0.0365,
      "velocity": 118,
      "chip": "ym2612"
    },
    {
      "channel": 2,
      "note": 39,
      "start": 7.2186,
      "duration": 0.0337,
      "velocity": 119,
      "chip": "ym2612"
    },
    {
      "channel": 3,
      "note": 69,
      "start": 7.2214,
      "duration": 0.0795,
      "velocity": 118,
      "chip": "ym2612"
    },
    {
      "channel": 2,
      "note": 39,
      "start": 7.2668,
      "duration": 0.0343,
      "velocity": 119,
      "chip": "ym2612"
    },
    {
      "channel": 2,
      "note": 39,
      "start": 7.3095,
      "duration": 0.0359,
      "velocity": 119,
      "chip": "ym2612"
    },
    {
      "channel": 3,
      "note": 76,
      "start": 7.3138,
      "duration": 0.5263,
      "velocity": 118,
      "chip": "ym2612"
    },
    {
      "channel": 2,
      "note": 39,
      "start": 7.36,
      "duration": 0.0347,
      "velocity": 119,
      "chip": "ym2612"
    },
    {
      "channel": 0,
      "note": 45,
      "start": 7.4031,
      "duration": 0.0357,
      "velocity": 118,
      "chip": "ym2612"
    },
    {
      "channel": 2,
      "note": 39,
      "start": 7.4054,
      "duration": 0.0338,
      "velocity": 119,
      "chip": "ym2612"
    },
    {
      "channel": 2,
      "note": 39,
      "start": 7.4534,
      "duration": 0.0342,
      "velocity": 119,
      "chip": "ym2612"
    },
    {
      "channel": 2,
      "note": 39,
      "start": 7.4961,
      "duration": 0.0398,
      "velocity": 119,
      "chip": "ym2612"
    },
    {
      "channel": 2,
      "note": 39,
      "start": 7.5446,
      "duration": 0.034,
      "velocity": 119,
      "chip": "ym2612"
    },
    {
      "channel": 0,
      "note": 45,
      "start": 7.5873,
      "duration": 0.0414,
      "velocity": 118,
      "chip": "ym2612"
    },
    {
      "channel": 2,
      "note": 39,
      "start": 7.5894,
      "duration": 0.0395,
      "velocity": 119,
      "chip": "ym2612"
    },
    {
      "channel": 2,
      "note": 39,
      "start": 7.6376,
      "duration": 0.0346,
      "velocity": 119,
      "chip": "ym2612"
    },
    {
      "channel": 2,
      "note": 39,
      "start": 7.6807,
      "duration": 0.0429,
      "velocity": 119,
      "chip": "ym2612"
    },
    {
      "channel": 2,
      "note": 39,
      "start": 7.743,
      "duration": 0.0973,
      "velocity": 119,
      "chip": "ym2612"
    },
    {
      "channel": 1,
      "note": 69,
      "start": 7.7467,
      "duration": 0.0268,
      "velocity": 127,
      "chip": "ym2612"
    },
    {
      "channel": 4,
      "note": 66,
      "start": 7.8546,
      "duration": 0.0608,
      "velocity": 113,
      "chip": "ym2612"
    },
    {
      "channel": 0,
      "note": 45,
      "start": 7.8569,
      "duration": 0.0412,
      "velocity": 118,
      "chip": "ym2612"
    },
    {
      "channel": 2,
      "note": 39,
      "start": 7.859,
      "duration": 0.0393,
      "velocity": 119,
      "chip": "ym2612"
    },
    {
      "channel": 3,
      "note": 75,
      "start": 7.862,
      "duration": 0.2726,
      "velocity": 118,
      "chip": "ym2612"
    },
    {
      "channel": 1,
      "note": 69,
      "start": 7.8659,
      "duration": 0.0085,
      "velocity": 127,
      "chip": "ym2612"
    },
    {
      "channel": 1,
      "note": 64,
      "start": 7.9081,
      "duration": 0.0295,
      "velocity": 113,
      "chip": "ym2612"
    },
    {
      "channel": 2,
      "note": 39,
      "start": 7.9107,
      "duration": 0.0327,
      "velocity": 119,
      "chip": "ym2612"
    },
    {
      "channel": 0,
      "note": 69,
      "start": 7.914,
      "duration": 0.0057,
      "velocity": 127,
      "chip": "ym2612"
    },
    {
      "channel": 1,
      "note": 61,
      "start": 7.9522,
      "duration": 0.0482,
      "velocity": 113,
      "chip": "ym2612"
    },
    {
      "channel": 2,
      "note": 39,
      "start": 7.9544,
      "duration": 0.0401,
      "velocity": 119,
      "chip": "ym2612"
    },
    {
      "channel": 0,
      "note": 69,
      "start": 7.9582,
      "duration": 0.012,
      "velocity": 127,
      "chip": "ym2612"
    },
    {
      "channel": 1,
      "note": 64,
      "start": 8.0035,
      "duration": 0.0877,
      "velocity": 113,
      "chip": "ym2612"
    },
    {
      "channel": 2,
      "note": 39,
      "start": 8.0057,
      "duration": 0.0342,
      "velocity": 119,
      "chip": "ym2612"
    },
    {
      "channel": 0,
      "note": 69,
      "start": 8.0087,
      "duration": 0.0133,
      "velocity": 127,
      "chip": "ym2612"
    },
    {
      "channel": 4,
      "note": 45,
      "start": 8.0547,
      "duration": 0.0366,
      "velocity": 118,
      "chip": "ym2612"
    },
    {
      "channel": 2,
      "note": 39,
      "start": 8.0568,
      "duration": 0.0346,
      "velocity": 119,
      "chip": "ym2612"
    },
    {
      "channel": 0,
      "note": 69,
      "start": 8.0597,
      "duration": 0.0072,
      "velocity": 127,
      "chip": "ym2612"
    },
    {
      "channel": 2,
      "note": 39,
      "start": 8.101,
      "duration": 0.0337,
      "velocity": 119,
      "chip": "ym2612"
    },
    {
      "channel": 1,
      "note": 61,
      "start": 8.1503,
      "duration": 0.041,
      "velocity": 113,
      "chip": "ym2612"
    },
    {
      "channel": 2,
      "note": 39,
      "start": 8.1526,
      "duration": 0.0329,
      "velocity": 119,
      "chip": "ym2612"
    },
    {
      "channel": 3,
      "note": 74,
      "start": 8.1555,
      "duration": 0.7311,
      "velocity": 118,
      "chip": "ym2612"
    },
    {
      "channel": 1,
      "note": 59,
      "start": 8.1953,
      "duration": 0.0294,
      "velocity": 113,
      "chip": "ym2612"
    },
    {
      "channel": 2,
      "note": 39,
      "start": 8.1975,
      "duration": 0.0333,
      "velocity": 119,
      "chip": "ym2612"
    },
    {
      "channel": 0,
      "note": 66,
      "start": 8.2005,
      "duration": 0.0122,
      "velocity": 127,
      "chip": "ym2612"
    },
    {
      "channel": 1,
      "note": 61,
      "start": 8.2466,
      "duration": 0.0427,
      "velocity": 113,
      "chip": "ym2612"
    },
    {
      "channel": 4,
      "note": 45,
      "start": 8.249,
      "duration": 0.0345,
      "velocity": 118,
      "chip": "ym2612"
    },
    {
      "channel": 2,
      "note": 39,
      "start": 8.2511,
      "duration": 0.0325,
      "velocity": 119,
      "chip": "ym2612"
    },
    {
      "channel": 0,
      "note": 66,
      "start": 8.2541,
      "duration": 0.0051,
      "velocity": 127,
      "chip": "ym2612"
    },
    {
      "channel": 1,
      "note": 59,
      "start": 8.2923,
      "duration": 0.0363,
      "velocity": 113,
      "chip": "ym2612"
    },
    {
      "channel": 2,
      "note": 39,
      "start": 8.2945,
      "duration": 0.0341,
      "velocity": 119,
      "chip": "ym2612"
    },
    {
      "channel": 0,
      "note": 66,
      "start": 8.2973,
      "duration": 0.0134,
      "velocity": 127,
      "chip": "ym2612"
    },
    {
      "channel": 1,
      "note": 57,
      "start": 8.3434,
      "duration": 0.0422,
      "velocity": 113,
      "chip": "ym2612"
    },
    {
      "channel": 2,
      "note": 39,
      "start": 8.3457,
      "duration": 0.0342,
      "velocity": 119,
      "chip": "ym2612"
    },
    {
      "channel": 0,
      "note": 66,
      "start": 8.3485,
      "duration": 0.0073,
      "velocity": 127,
      "chip": "ym2612"
    },
    {
      "channel": 1,
      "note": 59,
      "start": 8.3896,
      "duration": 0.2802,
      "velocity": 113,
      "chip": "ym2612"
    },
    {
      "channel": 2,
      "note": 39,
      "start": 8.3918,
      "duration": 0.0386,
      "velocity": 119,
      "chip": "ym2612"
    },
    {
      "channel": 0,
      "note": 66,
      "start": 8.3945,
      "duration": 0.0127,
      "velocity": 127,
      "chip": "ym2612"
    },
    {
      "channel": 4,
      "note": 45,
      "start": 8.44,
      "duration": 0.0633,
      "velocity": 118,
      "chip": "ym2612"
    },
    {
      "channel": 2,
      "note": 39,
      "start": 8.4422,
      "duration": 0.0613,
      "velocity": 119,
      "chip": "ym2612"
    },
    {
      "channel": 0,
      "note": 62,
      "start": 8.4451,
      "duration": 0.0068,
      "velocity": 127,
      "chip": "ym2612"
    },
    {
      "channel": 2,
      "note": 39,
      "start": 8.5228,
      "duration": 0.1139,
      "velocity": 119,
      "chip": "ym2612"
    },
    {
      "channel": 0,
      "note": 62,
      "start": 8.5259,
      "duration": 0.044,
      "velocity": 127,
      "chip": "ym2612"
    },
    {
      "channel": 5,
      "note": 54,
      "start": 8.6572,
      "duration": 0.1795,
      "velocity": 113,
      "chip": "ym2612"
    },
    {
      "channel": 2,
      "note": 39,
      "start": 8.6596,
      "duration": 0.0939,
      "velocity": 119,
      "chip": "ym2612"
    },
    {
      "channel": 0,
      "note": 62,
      "start": 8.6627,
      "duration": 0.0238,
      "velocity": 127,
      "chip": "ym2612"
    },
    {
      "channel": 2,
      "note": 39,
      "start": 8.7729,
      "duration": 0.114,
      "velocity": 119,
      "chip": "ym2612"
    },
    {
      "channel": 0,
      "note": 62,
      "start": 8.7766,
      "duration": 0.0432,
      "velocity": 127,
      "chip": "ym2612"
    },
    {
      "channel": 4,
      "note": 54,
      "start": 8.891,
      "duration": 0.1612,
      "velocity": 106,
      "chip": "ym2612"
    },
    {
      "channel": 1,
      "note": 54,
      "start": 8.9024,
      "duration": 0.0309,
      "velocity": 113,
      "chip": "ym2612"
    },
    {
      "channel": 0,
      "note": 45,
      "start": 8.9049,
      "duration": 0.0341,
      "velocity": 118,
      "chip": "ym2612"
    },
    {
      "channel": 2,
      "note": 39,
      "start": 8.9071,
      "duration": 0.0321,
      "velocity": 119,
      "chip": "ym2612"
    },
    {
      "channel": 3,
      "note": 66,
      "start": 8.9101,
      "duration": 0.035,
      "velocity": 118,
      "chip": "ym2612"
    },
    {
      "channel": 2,
      "note": 39,
      "start": 8.9482,
      "duration": 0.0401,
      "velocity": 119,
      "chip": "ym2612"
    },
    {
      "channel": 1,
      "note": 54,
      "start": 8.9968,
      "duration": 0.037,
      "velocity": 113,
      "chip": "ym2612"
    },
    {
      "channel": 2,
      "note": 39,
      "start": 9.0,
      "duration": 0.0339,
      "velocity": 119,
      "chip": "ym2612"
    },
    {
      "channel": 3,
      "note": 66,
      "start": 9.0027,
      "duration": 0.0797,
      "velocity": 118,
      "chip": "ym2612"
    },
    {
      "channel": 2,
      "note": 39,
      "start": 9.0417,
      "duration": 0.041,
      "velocity": 119,
      "chip": "ym2612"
    },
    {
      "channel": 1,
      "note": 54,
      "start": 9.0915,
      "duration": 0.0376,
      "velocity": 113,
      "chip": "ym2612"
    },
    {
      "channel": 0,
      "note": 45,
      "start": 9.0941,
      "duration": 0.035,
      "velocity": 118,
      "chip": "ym2612"
    },
    {
      "channel": 2,
      "note": 39,
      "start": 9.0973,
      "duration": 0.0321,
      "velocity": 119,
      "chip": "ym2612"
    },
    {
      "channel": 3,
      "note": 69,
      "start": 9.1007,
      "duration": 0.0771,
      "velocity": 118,
      "chip": "ym2612"
    },
    {
      "channel": 2,
      "note": 39,
      "start": 9.1436,
      "duration": 0.0343,
      "velocity": 119,
      "chip": "ym2612"
    },
    {
      "channel": 1,
      "note": 54,
      "start": 9.1868,
      "duration": 0.0301,
      "velocity": 113,
      "chip": "ym2612"
    },
    {
      "channel": 2,
      "note": 39,
      "start": 9.189,
      "duration": 0.0338,
      "velocity": 119,
      "chip": "ym2612"
    },
    {
      "channel": 3,
      "note": 76,
      "start": 9.1922,
      "duration": 0.7262,
      "velocity": 118,
      "chip": "ym2612"
    },
    {
      "channel": 2,
      "note": 39,
      "start": 9.2382,
      "duration": 0.0337,
      "velocity": 119,
      "chip": "ym2612"
    },
    {
      "channel": 1,
      "note": 54,
      "start": 9.2818,
      "duration": 0.0359,
      "velocity": 113,
      "chip": "ym2612"
    },
    {
      "channel": 0,
      "note": 45,
      "start": 9.2842,
      "duration": 0.0333,
      "velocity": 118,
      "chip": "ym2612"
    },
    {
      "channel": 2,
      "note": 39,
      "start": 9.2863,
      "duration": 0.0316,
      "velocity": 119,
      "chip": "ym2612"
    },
    {
      "channel": 2,
      "note": 39,
      "start": 9.3332,
      "duration": 0.0336,
      "velocity": 119,
      "chip": "ym2612"
    },
    {
      "channel": 1,
      "note": 54,
      "start": 9.3766,
      "duration": 0.0281,
      "velocity": 113,
      "chip": "ym2612"
    },
    {
      "channel": 2,
      "note": 39,
      "start": 9.3788,
      "duration": 0.032,
      "velocity": 119,
      "chip": "ym2612"
    },
    {
      "channel": 2,
      "note": 39,
      "start": 9.4263,
      "duration": 0.0339,
      "velocity": 119,
      "chip": "ym2612"
    },
    {
      "channel": 1,
      "note": 54,
      "start": 9.4701,
      "duration": 0.0816,
      "velocity": 113,
      "chip": "ym2612"
    },
    {
      "channel": 0,
      "note": 45,
      "start": 9.4724,
      "duration": 0.0791,
      "velocity": 118,
      "chip": "ym2612"
    },
    {
      "channel": 2,
      "note": 39,
      "start": 9.4746,
      "duration": 0.0774,
      "velocity": 119,
      "chip": "ym2612"
    },
    {
      "channel": 2,
      "note": 39,
      "start": 9.5712,
      "duration": 0.0973,
      "velocity": 119,
      "chip": "ym2612"
    },
    {
      "channel": 1,
      "note": 54,
      "start": 9.688,
      "duration": 0.1136,
      "velocity": 113,
      "chip": "ym2612"
    },
    {
      "channel": 2,
      "note": 39,
      "start": 9.6905,
      "duration": 0.1115,
      "velocity": 119,
      "chip": "ym2612"
    },
    {
      "channel": 2,
      "note": 39,
      "start": 9.8213,
      "duration": 0.0973,
      "velocity": 119,
      "chip": "ym2612"
    },
    {
      "channel": 1,
      "note": 54,
      "start": 9.933,
      "duration": 0.0418,
      "velocity": 113,
      "chip": "ym2612"
    },
    {
      "channel": 0,
      "note": 45,
      "start": 9.9351,
      "duration": 0.0397,
      "velocity": 118,
      "chip": "ym2612"
    },
    {
      "channel": 2,
      "note": 39,
      "start": 9.9372,
      "duration": 0.0378,
      "velocity": 119,
      "chip": "ym2612"
    },
    {
      "channel": 3,
      "note": 75,
      "start": 9.9402,
      "duration": 0.2651,
      "velocity": 118,
      "chip": "ym2612"
    },
    {
      "channel": 2,
      "note": 39,
      "start": 9.9849,
      "duration": 0.033,
      "velocity": 119,
      "chip": "ym2612"
    },
    {
      "channel": 1,
      "note": 54,
      "start": 10.028,
      "duration": 0.0278,
      "velocity": 113,
      "chip": "ym2612"
    },
    {
      "channel": 2,
      "note": 39,
      "start": 10.0302,
      "duration": 0.0378,
      "velocity": 119,
      "chip": "ym2612"
    },
    {
      "channel": 2,
      "note": 39,
      "start": 10.0776,
      "duration": 0.0334,
      "velocity": 119,
      "chip": "ym2612"
    },
    {
      "channel": 1,
      "note": 54,
      "start": 10.1208,
      "duration": 0.0298,
      "velocity": 113,
      "chip": "ym2612"
    },
    {
      "channel": 0,
      "note": 45,
      "start": 10.123,
      "duration": 0.0392,
      "velocity": 118,
      "chip": "ym2612"
    },
    {
      "channel": 2,
      "note": 39,
      "start": 10.1251,
      "duration": 0.0373,
      "velocity": 119,
      "chip": "ym2612"
    },
    {
      "channel": 2,
      "note": 39,
      "start": 10.1707,
      "duration": 0.0346,
      "velocity": 119,
      "chip": "ym2612"
    },
    {
      "channel": 1,
      "note": 54,
      "start": 10.221,
      "duration": 0.0298,
      "velocity": 113,
      "chip": "ym2612"
    },
    {
      "channel": 2,
      "note": 39,
      "start": 10.2232,
      "duration": 0.0333,
      "velocity": 119,
      "chip": "ym2612"
    },
    {
      "channel": 3,
      "note": 74,
      "start": 10.2261,
      "duration": 0.7401,
      "velocity": 118,
      "chip": "ym2612"
    },
    {
      "channel": 2,
      "note": 39,
      "start": 10.2653,
      "duration": 0.0343,
      "velocity": 119,
      "chip": "ym2612"
    },
    {
      "channel": 1,
      "note": 54,
      "start": 10.3144,
      "duration": 0.0305,
      "velocity": 113,
      "chip": "ym2612"
    },
    {
      "channel": 0,
      "note": 45,
      "start": 10.3167,
      "duration": 0.0346,
      "velocity": 118,
      "chip": "ym2612"
    },
    {
      "channel": 2,
      "note": 39,
      "start": 10.3197,
      "duration": 0.0319,
      "velocity": 119,
      "chip": "ym2612"
    },
    {
      "channel": 2,
      "note": 39,
      "start": 10.3596,
      "duration": 0.035,
      "velocity": 119,
      "chip": "ym2612"
    },
    {
      "channel": 1,
      "note": 54,
      "start": 10.4085,
      "duration": 0.029,
      "velocity": 113,
      "chip": "ym2612"
    },
    {
      "channel": 2,
      "note": 39,
      "start": 10.4107,
      "duration": 0.0337,
      "velocity": 119,
      "chip": "ym2612"
    },
    {
      "channel": 2,
      "note": 39,
      "start": 10.4522,
      "duration": 0.0358,
      "velocity": 119,
      "chip": "ym2612"
    },
    {
      "channel": 1,
      "note": 54,
      "start": 10.5019,
      "duration": 0.0809,
      "velocity": 113,
      "chip": "ym2612"
    },
    {
      "channel": 0,
      "note": 45,
      "start": 10.5041,
      "duration": 0.0786,
      "velocity": 118,
      "chip": "ym2612"
    },
    {
      "channel": 2,
      "note": 39,
      "start": 10.5061,
      "duration": 0.0769,
      "velocity": 119,
      "chip": "ym2612"
    },
    {
      "channel": 2,
      "note": 39,
      "start": 10.6023,
      "duration": 0.1139,
      "velocity": 119,
      "chip": "ym2612"
    },
    {
      "channel": 1,
      "note": 52,
      "start": 10.7361,
      "duration": 0.0799,
      "velocity": 113,
      "chip": "ym2612"
    },
    {
      "channel": 2,
      "note": 39,
      "start": 10.7385,
      "duration": 0.0943,
      "velocity": 119,
      "chip": "ym2612"
    },
    {
      "channel": 4,
      "note": 52,
      "start": 10.7417,
      "duration": 0.2411,
      "velocity": 106,
      "chip": "ym2612"
    },
    {
      "channel": 1,
      "note": 53,
      "start": 10.8525,
      "duration": 0.0803,
      "velocity": 113,
      "chip": "ym2612"
    },
    {
      "channel": 2,
      "note": 39,
      "start": 10.8549,
      "duration": 0.1115,
      "velocity": 119,
      "chip": "ym2612"
    },
    {
      "channel": 1,
      "note": 54,
      "start": 10.9893,
      "duration": 0.0569,
      "velocity": 113,
      "chip": "ym2612"
    },
    {
      "channel": 0,
      "note": 45,
      "start": 10.9915,
      "duration": 0.0353,
      "velocity": 118,
      "chip": "ym2612"
    },
    {
      "channel": 2,
      "note": 39,
      "start": 10.9935,
      "duration": 0.0335,
      "velocity": 119,
      "chip": "ym2612"
    },
    {
      "channel": 3,
      "note": 66,
      "start": 10.9967,
      "duration": 0.0363,
      "velocity": 118,
      "chip": "ym2612"
    },
    {
      "channel": 4,
      "note": 54,
      "start": 10.9995,
      "duration": 0.1279,
      "velocity": 106,
      "chip": "ym2612"
    },
    {
      "channel": 2,
      "note": 39,
      "start": 11.036,
      "duration": 0.0401,
      "velocity": 119,
      "chip": "ym2612"
    },
    {
      "channel": 1,
      "note": 54,
      "start": 11.0853,
      "duration": 0.0371,
      "velocity": 113,
      "chip": "ym2612"
    },
    {
      "channel": 2,
      "note": 39,
      "start": 11.0885,
      "duration": 0.034,
      "velocity": 119,
      "chip": "ym2612"
    },
    {
      "channel": 3,
      "note": 66,
      "start": 11.0915,
      "duration": 0.079,
      "velocity": 118,
      "chip": "ym2612"
    },
    {
      "channel": 2,
      "note": 39,
      "start": 11.1299,
      "duration": 0.0408,
      "velocity": 119,
      "chip": "ym2612"
    },
    {
      "channel": 1,
      "note": 54,
      "start": 11.1793,
      "duration": 0.0374,
      "velocity": 113,
      "chip": "ym2612"
    },
    {
      "channel": 0,
      "note": 45,
      "start": 11.1817,
      "duration": 0.035,
      "velocity": 118,
      "chip": "ym2612"
    },
    {
      "channel": 2,
      "note": 39,
      "start": 11.1838,
      "duration": 0.0331,
      "velocity": 119,
      "chip": "ym2612"
    },
    {
      "channel": 3,
      "note": 69,
      "start": 11.188,
      "duration": 0.0778,
      "velocity": 118,
      "chip": "ym2612"
    },
    {
      "channel": 2,
      "note": 39,
      "start": 11.226,
      "duration": 0.0399,
      "velocity": 119,
      "chip": "ym2612"
    },
    {
      "channel": 1,
      "note": 54,
      "start": 11.2753,
      "duration": 0.0363,
      "velocity": 113,
      "chip": "ym2612"
    },
    {
      "channel": 2,
      "note": 39,
      "start": 11.2775,
      "duration": 0.0343,
      "velocity": 119,
      "chip": "ym2612"
    },
    {
      "channel": 3,
      "note": 76,
      "start": 11.2809,
      "duration": 0.521,
      "velocity": 118,
      "chip": "ym2612"
    },
    {
      "channel": 2,
      "note": 39,
      "start": 11.327,
      "duration": 0.0333,
      "velocity": 119,
      "chip": "ym2612"
    },
    {
      "channel": 1,
      "note": 54,
      "start": 11.3702,
      "duration": 0.029,
      "velocity": 113,
      "chip": "ym2612"
    },
    {
      "channel": 0,
      "note": 45,
      "start": 11.3723,
      "duration": 0.033,
      "velocity": 118,
      "chip": "ym2612"
    },
    {
      "channel": 2,
      "note": 39,
      "start": 11.3745,
      "duration": 0.031,
      "velocity": 119,
      "chip": "ym2612"
    },
    {
      "channel": 2,
      "note": 39,
      "start": 11.421,
      "duration": 0.0334,
      "velocity": 119,
      "chip": "ym2612"
    },
    {
      "channel": 1,
      "note": 54,
      "start": 11.4644,
      "duration": 0.0341,
      "velocity": 113,
      "chip": "ym2612"
    },
    {
      "channel": 2,
      "note": 39,
      "start": 11.4666,
      "duration": 0.032,
      "velocity": 119,
      "chip": "ym2612"
    },
    {
      "channel": 2,
      "note": 39,
      "start": 11.5141,
      "duration": 0.0339,
      "velocity": 119,
      "chip": "ym2612"
    },
    {
      "channel": 1,
      "note": 54,
      "start": 11.5565,
      "duration": 0.0367,
      "velocity": 113,
      "chip": "ym2612"
    },
    {
      "channel": 0,
      "note": 45,
      "start": 11.5596,
      "duration": 0.0335,
      "velocity": 118,
      "chip": "ym2612"
    },
    {
      "channel": 2,
      "note": 39,
      "start": 11.5617,
      "duration": 0.0316,
      "velocity": 119,
      "chip": "ym2612"
    },
    {
      "channel": 2,
      "note": 39,
      "start": 11.608,
      "duration": 0.0345,
      "velocity": 119,
      "chip": "ym2612"
    },
    {
      "channel": 1,
      "note": 54,
      "start": 11.651,
      "duration": 0.0411,
      "velocity": 113,
      "chip": "ym2612"
    },
    {
      "channel": 2,
      "note": 39,
      "start": 11.6533,
      "duration": 0.0389,
      "velocity": 119,
      "chip": "ym2612"
    },
    {
      "channel": 2,
      "note": 39,
      "start": 11.7048,
      "duration": 0.0973,
      "velocity": 119,
      "chip": "ym2612"
    },
    {
      "channel": 1,
      "note": 54,
      "start": 11.816,
      "duration": 0.0431,
      "velocity": 113,
      "chip": "ym2612"
    },
    {
      "channel": 0,
      "note": 45,
      "start": 11.8182,
      "duration": 0.0407,
      "velocity": 118,
      "chip": "ym2612"
    },
    {
      "channel": 2,
      "note": 39,
      "start": 11.8204,
      "duration": 0.0388,
      "velocity": 119,
      "chip": "ym2612"
    },
    {
      "channel": 3,
      "note": 75,
      "start": 11.8232,
      "duration": 0.2662,
      "velocity": 118,
      "chip": "ym2612"
    },
    {
      "channel": 2,
      "note": 39,
      "start": 11.869,
      "duration": 0.0333,
      "velocity": 119,
      "chip": "ym2612"
    },
    {
      "channel": 1,
      "note": 54,
      "start": 11.912,
      "duration": 0.0279,
      "velocity": 113,
      "chip": "ym2612"
    },
    {
      "channel": 2,
      "note": 39,
      "start": 11.9143,
      "duration": 0.0375,
      "velocity": 119,
      "chip": "ym2612"
    },
    {
      "channel": 2,
      "note": 39,
      "start": 11.9613,
      "duration": 0.0335,
      "velocity": 119,
      "chip": "ym2612"
    },
    {
      "channel": 1,
      "note": 54,
      "start": 12.0046,
      "duration": 0.0293,
      "velocity": 113,
      "chip": "ym2612"
    },
    {
      "channel": 0,
      "note": 45,
      "start": 12.0069,
      "duration": 0.039,
      "velocity": 118,
      "chip": "ym2612"
    },
    {
      "channel": 2,
      "note": 39,
      "start": 12.0089,
      "duration": 0.0372,
      "velocity": 119,
      "chip": "ym2612"
    },
    {
      "channel": 2,
      "note": 39,
      "start": 12.055,
      "duration": 0.0345,
      "velocity": 119,
      "chip": "ym2612"
    },
    {
      "channel": 1,
      "note": 54,
      "start": 12.0981,
      "duration": 0.0317,
      "velocity": 113,
      "chip": "ym2612"
    },
    {
      "channel": 2,
      "note": 39,
      "start": 12.1013,
      "duration": 0.0405,
      "velocity": 119,
      "chip": "ym2612"
    },
    {
      "channel": 3,
      "note": 74,
      "start": 12.1043,
      "duration": 0.7475,
      "velocity": 118,
      "chip": "ym2612"
    },
    {
      "channel": 4,
      "note": 69,
      "start": 12.1073,
      "duration": 0.0227,
      "velocity": 127,
      "chip": "ym2612"
    },
    {
      "channel": 2,
      "note": 39,
      "start": 12.1505,
      "duration": 0.0369,
      "velocity": 119,
      "chip": "ym2612"
    },
    {
      "channel": 4,
      "note": 69,
      "start": 12.1533,
      "duration": 0.0272,
      "velocity": 127,
      "chip": "ym2612"
    },
    {
      "channel": 1,
      "note": 54,
      "start": 12.2013,
      "duration": 0.0318,
      "velocity": 113,
      "chip": "ym2612"
    },
    {
      "channel": 0,
      "note": 45,
      "start": 12.2035,
      "duration": 0.0356,
      "velocity": 118,
      "chip": "ym2612"
    },
    {
      "channel": 2,
      "note": 39,
      "start": 12.2056,
      "duration": 0.0339,
      "velocity": 119,
      "chip": "ym2612"
    },
    {
      "channel": 4,
      "note": 69,
      "start": 12.2098,
      "duration": 0.0234,
      "velocity": 127,
      "chip": "ym2612"
    },
    {
      "channel": 2,
      "note": 39,
      "start": 12.2485,
      "duration": 0.0346,
      "velocity": 119,
      "chip": "ym2612"
    },
    {
      "channel": 4,
      "note": 69,
      "start": 12.2513,
      "duration": 0.0259,
      "velocity": 127,
      "chip": "ym2612"
    },
    {
      "channel": 1,
      "note": 54,
      "start": 12.2988,
      "duration": 0.0291,
      "velocity": 113,
      "chip": "ym2612"
    },
    {
      "channel": 2,
      "note": 39,
      "start": 12.301,
      "duration": 0.0332,
      "velocity": 119,
      "chip": "ym2612"
    },
    {
      "channel": 4,
      "note": 66,
      "start": 12.3041,
      "duration": 0.024,
      "velocity": 127,
      "chip": "ym2612"
    },
    {
      "channel": 2,
      "note": 39,
      "start": 12.3437,
      "duration": 0.0339,
      "velocity": 119,
      "chip": "ym2612"
    },
    {
      "channel": 1,
      "note": 54,
      "start": 12.3934,
      "duration": 0.075,
      "velocity": 113,
      "chip": "ym2612"
    },
    {
      "channel": 0,
      "note": 45,
      "start": 12.3955,
      "duration": 0.0728,
      "velocity": 118,
      "chip": "ym2612"
    },
    {
      "channel": 2,
      "note": 39,
      "start": 12.3977,
      "duration": 0.0711,
      "velocity": 119,
      "chip": "ym2612"
    },
    {
      "channel": 4,
      "note": 66,
      "start": 12.4015,
      "duration": 0.0504,
      "velocity": 127,
      "chip": "ym2612"
    },
    {
      "channel": 2,
      "note": 39,
      "start": 12.488,
      "duration": 0.0973,
      "velocity": 119,
      "chip": "ym2612"
    },
    {
      "channel": 4,
      "note": 66,
      "start": 12.4912,
      "duration": 0.0773,
      "velocity": 127,
      "chip": "ym2612"
    },
    {
      "channel": 1,
      "note": 52,
      "start": 12.6218,
      "duration": 0.08,
      "velocity": 113,
      "chip": "ym2612"
    },
    {
      "channel": 2,
      "note": 39,
      "start": 12.6242,
      "duration": 0.0943,
      "velocity": 119,
      "chip": "ym2612"
    },
    {
      "channel": 4,
      "note": 62,
      "start": 12.6274,
      "duration": 0.0746,
      "velocity": 127,
      "chip": "ym2612"
    },
    {
      "channel": 1,
      "note": 53,
      "start": 12.7382,
      "duration": 0.0803,
      "velocity": 113,
      "chip": "ym2612"
    },
    {
      "channel": 2,
      "note": 39,
      "start": 12.7406,
      "duration": 0.1114,
      "velocity": 119,
      "chip": "ym2612"
    },
    {
      "channel": 4,
      "note": 62,
      "start": 12.7439,
      "duration": 0.0748,
      "velocity": 127,
      "chip": "ym2612"
    },
    {
      "channel": 1,
      "note": 54,
      "start": 12.8659,
      "duration": 0.0453,
      "velocity": 113,
      "chip": "ym2612"
    },
    {
      "channel": 0,
      "note": 45,
      "start": 12.868,
      "duration": 0.0369,
      "velocity": 118,
      "chip": "ym2612"
    },
    {
      "channel": 2,
      "note": 39,
      "start": 12.8701,
      "duration": 0.0085,
      "velocity": 119,
      "chip": "ym2612"
    },
    {
      "channel": 3,
      "note": 66,
      "start": 12.8732,
      "duration": 0.038,
      "velocity": 118,
      "chip": "ym2612"
    },
    {
      "channel": 4,
      "note": 54,
      "start": 12.8773,
      "duration": 0.1467,
      "velocity": 106,
      "chip": "ym2612"
    },
    {
      "channel": 2,
      "note": 62,
      "start": 12.8807,
      "duration": 0.0185,
      "velocity": 127,
      "chip": "ym2612"
    },
    {
      "channel": 2,
      "note": 39,
      "start": 12.9142,
      "duration": 0.04,
      "velocity": 119,
      "chip": "ym2612"
    },
    {
      "channel": 1,
      "note": 54,
      "start": 12.9629,
      "duration": 0.0313,
      "velocity": 113,
      "chip": "ym2612"
    },
    {
      "channel": 2,
      "note": 39,
      "start": 12.9661,
      "duration": 0.0333,
      "velocity": 119,
      "chip": "ym2612"
    },
    {
      "channel": 3,
      "note": 66,
      "start": 12.9689,
      "duration": 0.0792,
      "velocity": 118,
      "chip": "ym2612"
    },
    {
      "channel": 2,
      "note": 39,
      "start": 13.008,
      "duration": 0.0402,
      "velocity": 119,
      "chip": "ym2612"
    },
    {
      "channel": 1,
      "note": 54,
      "start": 13.0567,
      "duration": 0.0315,
      "velocity": 113,
      "chip": "ym2612"
    },
    {
      "channel": 0,
      "note": 45,
      "start": 13.0592,
      "duration": 0.035,
      "velocity": 118,
      "chip": "ym2612"
    },
    {
      "channel": 2,
      "note": 39,
      "start": 13.0623,
      "duration": 0.0321,
      "velocity": 119,
      "chip": "ym2612"
    },
    {
      "channel": 3,
      "note": 69,
      "start": 13.0659,
      "duration": 0.0789,
      "velocity": 118,
      "chip": "ym2612"
    },
    {
      "channel": 2,
      "note": 39,
      "start": 13.1035,
      "duration": 0.0414,
      "velocity": 119,
      "chip": "ym2612"
    },
    {
      "channel": 1,
      "note": 54,
      "start": 13.1528,
      "duration": 0.0305,
      "velocity": 113,
      "chip": "ym2612"
    },
    {
      "channel": 2,
      "note": 39,
      "start": 13.1551,
      "duration": 0.0343,
      "velocity": 119,
      "chip": "ym2612"
    },
    {
      "channel": 3,
      "note": 76,
      "start": 13.1579,
      "duration": 0.7256,
      "velocity": 118,
      "chip": "ym2612"
    },
    {
      "channel": 2,
      "note": 39,
      "start": 13.1992,
      "duration": 0.0395,
      "velocity": 119,
      "chip": "ym2612"
    },
    {
      "channel": 1,
      "note": 54,
      "start": 13.2483,
      "duration": 0.0292,
      "velocity": 113,
      "chip": "ym2612"
    },
    {
      "channel": 0,
      "note": 45,
      "start": 13.2504,
      "duration": 0.0331,
      "velocity": 118,
      "chip": "ym2612"
    },
    {
      "channel": 2,
      "note": 39,
      "start": 13.2526,
      "duration": 0.0312,
      "velocity": 119,
      "chip": "ym2612"
    },
    {
      "channel": 2,
      "note": 39,
      "start": 13.2991,
      "duration": 0.0333,
      "velocity": 119,
      "chip": "ym2612"
    },
    {
      "channel": 1,
      "note": 54,
      "start": 13.342,
      "duration": 0.0278,
      "velocity": 113,
      "chip": "ym2612"
    },
    {
      "channel": 2,
      "note": 39,
      "start": 13.3442,
      "duration": 0.0318,
      "velocity": 119,
      "chip": "ym2612"
    },
    {
      "channel": 2,
      "note": 39,
      "start": 13.3914,
      "duration": 0.0334,
      "velocity": 119,
      "chip": "ym2612"
    },
    {
      "channel": 1,
      "note": 54,
      "start": 13.4345,
      "duration": 0.049,
      "velocity": 113,
      "chip": "ym2612"
    },
    {
      "channel": 0,
      "note": 45,
      "start": 13.4368,
      "duration": 0.0633,
      "velocity": 118,
      "chip": "ym2612"
    },
    {
      "channel": 2,
      "note": 39,
      "start": 13.4389,
      "duration": 0.0615,
      "velocity": 119,
      "chip": "ym2612"
    },
    {
      "channel": 2,
      "note": 39,
      "start": 13.5365,
      "duration": 0.0973,
      "velocity": 119,
      "chip": "ym2612"
    },
    {
      "channel": 1,
      "note": 54,
      "start": 13.6537,
      "duration": 0.0799,
      "velocity": 113,
      "chip": "ym2612"
    },
    {
      "channel": 2,
      "note": 39,
      "start": 13.6561,
      "duration": 0.0943,
      "velocity": 119,
      "chip": "ym2612"
    },
    {
      "channel": 2,
      "note": 39,
      "start": 13.7865,
      "duration": 0.0973,
      "velocity": 119,
      "chip": "ym2612"
    },
    {
      "channel": 1,
      "note": 54,
      "start": 13.8977,
      "duration": 0.0309,
      "velocity": 113,
      "chip": "ym2612"
    },
    {
      "channel": 0,
      "note": 45,
      "start": 13.8998,
      "duration": 0.0407,
      "velocity": 118,
      "chip": "ym2612"
    },
    {
      "channel": 2,
      "note": 39,
      "start": 13.902,
      "duration": 0.0388,
      "velocity": 119,
      "chip": "ym2612"
    },
    {
      "channel": 3,
      "note": 75,
      "start": 13.9052,
      "duration": 0.2655,
      "velocity": 118,
      "chip": "ym2612"
    },
    {
      "channel": 2,
      "note": 39,
      "start": 13.9507,
      "duration": 0.0332,
      "velocity": 119,
      "chip": "ym2612"
    },
    {
      "channel": 1,
      "note": 54,
      "start": 13.9933,
      "duration": 0.0283,
      "velocity": 113,
      "chip": "ym2612"
    },
    {
      "channel": 2,
      "note": 39,
      "start": 13.9955,
      "duration": 0.0379,
      "velocity": 119,
      "chip": "ym2612"
    },
    {
      "channel": 2,
      "note": 39,
      "start": 14.0429,
      "duration": 0.0335,
      "velocity": 119,
      "chip": "ym2612"
    },
    {
      "channel": 1,
      "note": 54,
      "start": 14.0861,
      "duration": 0.0293,
      "velocity": 113,
      "chip": "ym2612"
    },
    {
      "channel": 0,
      "note": 45,
      "start": 14.0883,
      "duration": 0.0389,
      "velocity": 118,
      "chip": "ym2612"
    },
    {
      "channel": 2,
      "note": 39,
      "start": 14.0903,
      "duration": 0.0371,
      "velocity": 119,
      "chip": "ym2612"
    },
    {
      "channel": 2,
      "note": 39,
      "start": 14.1364,
      "duration": 0.0345,
      "velocity": 119,
      "chip": "ym2612"
    },
    {
      "channel": 1,
      "note": 54,
      "start": 14.1795,
      "duration": 0.0317,
      "velocity": 113,
      "chip": "ym2612"
    },
    {
      "channel": 2,
      "note": 39,
      "start": 14.1827,
      "duration": 0.0404,
      "velocity": 119,
      "chip": "ym2612"
    },
    {
      "channel": 3,
      "note": 74,
      "start": 14.1857,
      "duration": 0.7311,
      "velocity": 118,
      "chip": "ym2612"
    },
    {
      "channel": 4,
      "note": 69,
      "start": 14.1887,
      "duration": 0.0227,
      "velocity": 127,
      "chip": "ym2612"
    },
    {
      "channel": 2,
      "note": 39,
      "start": 14.2318,
      "duration": 0.0368,
      "velocity": 119,
      "chip": "ym2612"
    },
    {
      "channel": 4,
      "note": 69,
      "start": 14.2346,
      "duration": 0.0272,
      "velocity": 127,
      "chip": "ym2612"
    },
    {
      "channel": 1,
      "note": 54,
      "start": 14.2768,
      "duration": 0.0315,
      "velocity": 113,
      "chip": "ym2612"
    },
    {
      "channel": 0,
      "note": 45,
      "start": 14.279,
      "duration": 0.0412,
      "velocity": 118,
      "chip": "ym2612"
    },
    {
      "channel": 2,
      "note": 39,
      "start": 14.2812,
      "duration": 0.0394,
      "velocity": 119,
      "chip": "ym2612"
    },
    {
      "channel": 4,
      "note": 69,
      "start": 14.2842,
      "duration": 0.0241,
      "velocity": 127,
      "chip": "ym2612"
    },
    {
      "channel": 2,
      "note": 39,
      "start": 14.3296,
      "duration": 0.0344,
      "velocity": 119,
      "chip": "ym2612"
    },
    {
      "channel": 4,
      "note": 66,
      "start": 14.3324,
      "duration": 0.0256,
      "velocity": 127,
      "chip": "ym2612"
    },
    {
      "channel": 1,
      "note": 54,
      "start": 14.3796,
      "duration": 0.0296,
      "velocity": 113,
      "chip": "ym2612"
    },
    {
      "channel": 2,
      "note": 39,
      "start": 14.3819,
      "duration": 0.0337,
      "velocity": 119,
      "chip": "ym2612"
    },
    {
      "channel": 4,
      "note": 66,
      "start": 14.3849,
      "duration": 0.0244,
      "velocity": 127,
      "chip": "ym2612"
    },
    {
      "channel": 2,
      "note": 39,
      "start": 14.4249,
      "duration": 0.034,
      "velocity": 119,
      "chip": "ym2612"
    },
    {
      "channel": 1,
      "note": 54,
      "start": 14.4746,
      "duration": 0.0756,
      "velocity": 113,
      "chip": "ym2612"
    },
    {
      "channel": 0,
      "note": 45,
      "start": 14.4769,
      "duration": 0.0732,
      "velocity": 118,
      "chip": "ym2612"
    },
    {
      "channel": 2,
      "note": 39,
      "start": 14.4791,
      "duration": 0.0714,
      "velocity": 119,
      "chip": "ym2612"
    },
    {
      "channel": 4,
      "note": 66,
      "start": 14.4827,
      "duration": 0.0507,
      "velocity": 127,
      "chip": "ym2612"
    },
    {
      "channel": 2,
      "note": 39,
      "start": 14.5698,
      "duration": 0.0972,
      "velocity": 119,
      "chip": "ym2612"
    },
    {
      "channel": 4,
      "note": 66,
      "start": 14.573,
      "duration": 0.0771,
      "velocity": 127,
      "chip": "ym2612"
    },
    {
      "channel": 1,
      "note": 52,
      "start": 14.7035,
      "duration": 0.08,
      "velocity": 113,
      "chip": "ym2612"
    },
    {
      "channel": 2,
      "note": 39,
      "start": 14.7059,
      "duration": 0.0943,
      "velocity": 119,
      "chip": "ym2612"
    },
    {
      "channel": 5,
      "note": 52,
      "start": 14.7092,
      "duration": 0.2411,
      "velocity": 106,
      "chip": "ym2612"
    },
    {
      "channel": 4,
      "note": 62,
      "start": 14.712,
      "duration": 0.0717,
      "velocity": 127,
      "chip": "ym2612"
    },
    {
      "channel": 1,
      "note": 53,
      "start": 14.8198,
      "duration": 0.0803,
      "velocity": 113,
      "chip": "ym2612"
    },
    {
      "channel": 2,
      "note": 39,
      "start": 14.8223,
      "duration": 0.0947,
      "velocity": 119,
      "chip": "ym2612"
    },
    {
      "channel": 4,
      "note": 62,
      "start": 14.8255,
      "duration": 0.0748,
      "velocity": 127,
      "chip": "ym2612"
    },
    {
      "channel": 1,
      "note": 54,
      "start": 14.9569,
      "duration": 0.0396,
      "velocity": 113,
      "chip": "ym2612"
    },
    {
      "channel": 0,
      "note": 45,
      "start": 14.959,
      "duration": 0.0375,
      "velocity": 118,
      "chip": "ym2612"
    },
    {
      "channel": 2,
      "note": 39,
      "start": 14.9611,
      "duration": 0.0082,
      "velocity": 119,
      "chip": "ym2612"
    },
    {
      "channel": 3,
      "note": 66,
      "start": 14.9642,
      "duration": 0.0379,
      "velocity": 118,
      "chip": "ym2612"
    },
    {
      "channel": 4,
      "note": 54,
      "start": 14.9671,
      "duration": 0.1293,
      "velocity": 106,
      "chip": "ym2612"
    },
    {
      "channel": 2,
      "note": 62,
      "start": 14.9715,
      "duration": 0.0186,
      "velocity": 127,
      "chip": "ym2612"
    },
    {
      "channel": 2,
      "note": 39,
      "start": 15.0051,
      "duration": 0.0402,
      "velocity": 119,
      "chip": "ym2612"
    },
    {
      "channel": 1,
      "note": 54,
      "start": 15.0544,
      "duration": 0.0298,
      "velocity": 113,
      "chip": "ym2612"
    },
    {
      "channel": 2,
      "note": 39,
      "start": 15.0567,
      "duration": 0.0334,
      "velocity": 119,
      "chip": "ym2612"
    },
    {
      "channel": 3,
      "note": 66,
      "start": 15.0604,
      "duration": 0.0793,
      "velocity": 118,
      "chip": "ym2612"
    },
    {
      "channel": 2,
      "note": 39,
      "start": 15.099,
      "duration": 0.0409,
      "velocity": 119,
      "chip": "ym2612"
    },
    {
      "channel": 1,
      "note": 54,
      "start": 15.1476,
      "duration": 0.0316,
      "velocity": 113,
      "chip": "ym2612"
    },
    {
      "channel": 0,
      "note": 45,
      "start": 15.1499,
      "duration": 0.0356,
      "velocity": 118,
      "chip": "ym2612"
    },
    {
      "channel": 2,
      "note": 39,
      "start": 15.152,
      "duration": 0.0338,
      "velocity": 119,
      "chip": "ym2612"
    },
    {
      "channel": 3,
      "note": 69,
      "start": 15.155,
      "duration": 0.0796,
      "velocity": 118,
      "chip": "ym2612"
    },
    {
      "channel": 2,
      "note": 39,
      "start": 15.195,
      "duration": 0.0398,
      "velocity": 119,
      "chip": "ym2612"
    },
    {
      "channel": 1,
      "note": 54,
      "start": 15.2445,
      "duration": 0.0293,
      "velocity": 113,
      "chip": "ym2612"
    },
    {
      "channel": 2,
      "note": 39,
      "start": 15.2468,
      "duration": 0.0335,
      "velocity": 119,
      "chip": "ym2612"
    },
    {
      "channel": 3,
      "note": 76,
      "start": 15.2498,
      "duration": 0.52,
      "velocity": 118,
      "chip": "ym2612"
    },
    {
      "channel": 2,
      "note": 39,
      "start": 15.2887,
      "duration": 0.0407,
      "velocity": 119,
      "chip": "ym2612"
    },
    {
      "channel": 1,
      "note": 54,
      "start": 15.3393,
      "duration": 0.0296,
      "velocity": 113,
      "chip": "ym2612"
    },
    {
      "channel": 0,
      "note": 45,
      "start": 15.3415,
      "duration": 0.0333,
      "velocity": 118,
      "chip": "ym2612"
    },
    {
      "channel": 2,
      "note": 39,
      "start": 15.3438,
      "duration": 0.0312,
      "velocity": 119,
      "chip": "ym2612"
    },
    {
      "channel": 2,
      "note": 39,
      "start": 15.3835,
      "duration": 0.0401,
      "velocity": 119,
      "chip": "ym2612"
    },
    {
      "channel": 1,
      "note": 54,
      "start": 15.4323,
      "duration": 0.0294,
      "velocity": 113,
      "chip": "ym2612"
    },
    {
      "channel": 2,
      "note": 39,
      "start": 15.4357,
      "duration": 0.032,
      "velocity": 119,
      "chip": "ym2612"
    },
    {
      "channel": 2,
      "note": 39,
      "start": 15.4821,
      "duration": 0.0347,
      "velocity": 119,
      "chip": "ym2612"
    },
    {
      "channel": 1,
      "note": 54,
      "start": 15.5254,
      "duration": 0.0315,
      "velocity": 113,
      "chip": "ym2612"
    },
    {
      "channel": 0,
      "note": 45,
      "start": 15.5286,
      "duration": 0.0336,
      "velocity": 118,
      "chip": "ym2612"
    },
    {
      "channel": 2,
      "note": 39,
      "start": 15.5306,
      "duration": 0.0317,
      "velocity": 119,
      "chip": "ym2612"
    },
    {
      "channel": 2,
      "note": 39,
      "start": 15.5768,
      "duration": 0.0347,
      "velocity": 119,
      "chip": "ym2612"
    },
    {
      "channel": 1,
      "note": 54,
      "start": 15.6202,
      "duration": 0.023,
      "velocity": 113,
      "chip": "ym2612"
    },
    {
      "channel": 2,
      "note": 39,
      "start": 15.6224,
      "duration": 0.0334,
      "velocity": 119,
      "chip": "ym2612"
    },
    {
      "channel": 2,
      "note": 39,
      "start": 15.6727,
      "duration": 0.0973,
      "velocity": 119,
      "chip": "ym2612"
    },
    {
      "channel": 1,
      "note": 54,
      "start": 15.784,
      "duration": 0.0305,
      "velocity": 113,
      "chip": "ym2612"
    },
    {
      "channel": 0,
      "note": 45,
      "start": 15.7861,
      "duration": 0.0341,
      "velocity": 118,
      "chip": "ym2612"
    },
    {
      "channel": 2,
      "note": 39,
      "start": 15.7883,
      "duration": 0.0322,
      "velocity": 119,
      "chip": "ym2612"
    },
    {
      "channel": 3,
      "note": 75,
      "start": 15.7925,
      "duration": 0.2652,
      "velocity": 118,
      "chip": "ym2612"
    },
    {
      "channel": 2,
      "note": 39,
      "start": 15.8363,
      "duration": 0.0332,
      "velocity": 119,
      "chip": "ym2612"
    },
    {
      "channel": 1,
      "note": 54,
      "start": 15.8792,
      "duration": 0.0222,
      "velocity": 113,
      "chip": "ym2612"
    },
    {
      "channel": 2,
      "note": 39,
      "start": 15.8815,
      "duration": 0.0377,
      "velocity": 119,
      "chip": "ym2612"
    },
    {
      "channel": 2,
      "note": 39,
      "start": 15.9289,
      "duration": 0.0339,
      "velocity": 119,
      "chip": "ym2612"
    },
    {
      "channel": 1,
      "note": 54,
      "start": 15.9723,
      "duration": 0.0296,
      "velocity": 113,
      "chip": "ym2612"
    },
    {
      "channel": 0,
      "note": 45,
      "start": 15.9745,
      "duration": 0.0393,
      "velocity": 118,
      "chip": "ym2612"
    },
    {
      "channel": 2,
      "note": 39,
      "start": 15.9766,
      "duration": 0.0374,
      "velocity": 119,
      "chip": "ym2612"
    },
    {
      "channel": 2,
      "note": 39,
      "start": 16.0225,
      "duration": 0.0354,
      "velocity": 119,
      "chip": "ym2612"
    },
    {
      "channel": 1,
      "note": 54,
      "start": 16.0663,
      "duration": 0.0317,
      "velocity": 113,
      "chip": "ym2612"
    },
    {
      "channel": 2,
      "note": 39,
      "start": 16.0696,
      "duration": 0.0406,
      "velocity": 119,
      "chip": "ym2612"
    },
    {
      "channel": 3,
      "note": 74,
      "start": 16.0726,
      "duration": 0.7305,
      "velocity": 118,
      "chip": "ym2612"
    },
    {
      "channel": 4,
      "note": 66,
      "start": 16.0756,
      "duration": 0.0226,
      "velocity": 127,
      "chip": "ym2612"
    },
    {
      "channel": 2,
      "note": 39,
      "start": 16.1188,
      "duration": 0.0365,
      "velocity": 119,
      "chip": "ym2612"
    },
    {
      "channel": 4,
      "note": 66,
      "start": 16.1218,
      "duration": 0.0267,
      "velocity": 127,
      "chip": "ym2612"
    },
    {
      "channel": 1,
      "note": 54,
      "start": 16.1636,
      "duration": 0.0312,
      "velocity": 113,
      "chip": "ym2612"
    },
    {
      "channel": 0,
      "note": 45,
      "start": 16.1659,
      "duration": 0.0408,
      "velocity": 118,
      "chip": "ym2612"
    },
    {
      "channel": 2,
      "note": 39,
      "start": 16.1681,
      "duration": 0.039,
      "velocity": 119,
      "chip": "ym2612"
    },
    {
      "channel": 4,
      "note": 66,
      "start": 16.1709,
      "duration": 0.024,
      "velocity": 127,
      "chip": "ym2612"
    },
    {
      "channel": 2,
      "note": 39,
      "start": 16.2165,
      "duration": 0.0348,
      "velocity": 119,
      "chip": "ym2612"
    },
    {
      "channel": 4,
      "note": 66,
      "start": 16.2193,
      "duration": 0.0258,
      "velocity": 127,
      "chip": "ym2612"
    },
    {
      "channel": 1,
      "note": 54,
      "start": 16.261,
      "duration": 0.029,
      "velocity": 113,
      "chip": "ym2612"
    },
    {
      "channel": 2,
      "note": 39,
      "start": 16.2632,
      "duration": 0.039,
      "velocity": 119,
      "chip": "ym2612"
    },
    {
      "channel": 4,
      "note": 69,
      "start": 16.2662,
      "duration": 0.0238,
      "velocity": 127,
      "chip": "ym2612"
    },
    {
      "channel": 2,
      "note": 39,
      "start": 16.3117,
      "duration": 0.0348,
      "velocity": 119,
      "chip": "ym2612"
    },
    {
      "channel": 4,
      "note": 69,
      "start": 16.3146,
      "duration": 0.0257,
      "velocity": 127,
      "chip": "ym2612"
    },
    {
      "channel": 1,
      "note": 54,
      "start": 16.362,
      "duration": 0.0576,
      "velocity": 113,
      "chip": "ym2612"
    },
    {
      "channel": 0,
      "note": 45,
      "start": 16.3642,
      "duration": 0.072,
      "velocity": 118,
      "chip": "ym2612"
    },
    {
      "channel": 2,
      "note": 39,
      "start": 16.3664,
      "duration": 0.0701,
      "velocity": 119,
      "chip": "ym2612"
    },
    {
      "channel": 4,
      "note": 69,
      "start": 16.37,
      "duration": 0.0498,
      "velocity": 127,
      "chip": "ym2612"
    },
    {
      "channel": 2,
      "note": 39,
      "start": 16.4559,
      "duration": 0.0973,
      "velocity": 119,
      "chip": "ym2612"
    },
    {
      "channel": 4,
      "note": 69,
      "start": 16.4594,
      "duration": 0.077,
      "velocity": 127,
      "chip": "ym2612"
    },
    {
      "channel": 1,
      "note": 54,
      "start": 16.5895,
      "duration": 0.2136,
      "velocity": 113,
      "chip": "ym2612"
    },
    {
      "channel": 2,
      "note": 39,
      "start": 16.5919,
      "duration": 0.0946,
      "velocity": 119,
      "chip": "ym2612"
    },
    {
      "channel": 2,
      "note": 39,
      "start": 16.7059,
      "duration": 0.0975,
      "velocity": 119,
      "chip": "ym2612"
    },
    {
      "channel": 1,
      "note": 50,
      "start": 16.8396,
      "duration": 0.1133,
      "velocity": 113,
      "chip": "ym2612"
    },
    {
      "channel": 0,
      "note": 45,
      "start": 16.8419,
      "duration": 0.0942,
      "velocity": 118,
      "chip": "ym2612"
    },
    {
      "channel": 2,
      "note": 39,
      "start": 16.8443,
      "duration": 0.0922,
      "velocity": 119,
      "chip": "ym2612"
    },
    {
      "channel": 3,
      "note": 66,
      "start": 16.8475,
      "duration": 0.1055,
      "velocity": 118,
      "chip": "ym2612"
    },
    {
      "channel": 5,
      "note": 50,
      "start": 16.8504,
      "duration": 0.3693,
      "velocity": 106,
      "chip": "ym2612"
    },
    {
      "channel": 2,
      "note": 39,
      "start": 16.9563,
      "duration": 0.0968,
      "velocity": 119,
      "chip": "ym2612"
    },
    {
      "channel": 1,
      "note": 50,
      "start": 17.0895,
      "duration": 0.08,
      "velocity": 113,
      "chip": "ym2612"
    },
    {
      "channel": 2,
      "note": 39,
      "start": 17.0919,
      "duration": 0.0945,
      "velocity": 119,
      "chip": "ym2612"
    },
    {
      "channel": 3,
      "note": 66,
      "start": 17.095,
      "duration": 0.2247,
      "velocity": 118,
      "chip": "ym2612"
    },
    {
      "channel": 2,
      "note": 39,
      "start": 17.2059,
      "duration": 0.114,
      "velocity": 119,
      "chip": "ym2612"
    },
    {
      "channel": 1,
      "note": 50,
      "start": 17.3395,
      "duration": 0.0969,
      "velocity": 113,
      "chip": "ym2612"
    },
    {
      "channel": 0,
      "note": 45,
      "start": 17.3422,
      "duration": 0.094,
      "velocity": 118,
      "chip": "ym2612"
    },
    {
      "channel": 2,
      "note": 39,
      "start": 17.3445,
      "duration": 0.0921,
      "velocity": 119,
      "chip": "ym2612"
    },
    {
      "channel": 3,
      "note": 69,
      "start": 17.3482,
      "duration": 0.2215,
      "velocity": 118,
      "chip": "ym2612"
    },
    {
      "channel": 5,
      "note": 50,
      "start": 17.3508,
      "duration": 0.3857,
      "velocity": 106,
      "chip": "ym2612"
    },
    {
      "channel": 2,
      "note": 39,
      "start": 17.4559,
      "duration": 0.1139,
      "velocity": 119,
      "chip": "ym2612"
    },
    {
      "channel": 1,
      "note": 50,
      "start": 17.5894,
      "duration": 0.0968,
      "velocity": 113,
      "chip": "ym2612"
    },
    {
      "channel": 2,
      "note": 39,
      "start": 17.5918,
      "duration": 0.0947,
      "velocity": 119,
      "chip": "ym2612"
    },
    {
      "channel": 3,
      "note": 76,
      "start": 17.595,
      "duration": 1.2247,
      "velocity": 118,
      "chip": "ym2612"
    },
    {
      "channel": 2,
      "note": 39,
      "start": 17.7059,
      "duration": 0.1139,
      "velocity": 119,
      "chip": "ym2612"
    },
    {
      "channel": 1,
      "note": 50,
      "start": 17.8395,
      "duration": 0.0969,
      "velocity": 113,
      "chip": "ym2612"
    },
    {
      "channel": 0,
      "note": 45,
      "start": 17.8418,
      "duration": 0.0944,
      "velocity": 118,
      "chip": "ym2612"
    },
    {
      "channel": 2,
      "note": 39,
      "start": 17.8441,
      "duration": 0.0926,
      "velocity": 119,
      "chip": "ym2612"
    },
    {
      "channel": 5,
      "note": 50,
      "start": 17.8471,
      "duration": 0.3892,
      "velocity": 106,
      "chip": "ym2612"
    },
    {
      "channel": 2,
      "note": 39,
      "start": 17.9558,
      "duration": 0.1139,
      "velocity": 119,
      "chip": "ym2612"
    },
    {
      "channel": 1,
      "note": 50,
      "start": 18.0895,
      "duration": 0.08,
      "velocity": 113,
      "chip": "ym2612"
    },
    {
      "channel": 2,
      "note": 39,
      "start": 18.0919,
      "duration": 0.0945,
      "velocity": 119,
      "chip": "ym2612"
    },
    {
      "channel": 2,
      "note": 39,
      "start": 18.2059,
      "duration": 0.1139,
      "velocity": 119,
      "chip": "ym2612"
    },
    {
      "channel": 1,
      "note": 50,
      "start": 18.3399,
      "duration": 0.0964,
      "velocity": 113,
      "chip": "ym2612"
    },
    {
      "channel": 0,
      "note": 45,
      "start": 18.3422,
      "duration": 0.0939,
      "velocity": 118,
      "chip": "ym2612"
    },
    {
      "channel": 2,
      "note": 39,
      "start": 18.3445,
      "duration": 0.092,
      "velocity": 119,
      "chip": "ym2612"
    },
    {
      "channel": 5,
      "note": 50,
      "start": 18.3484,
      "duration": 0.3881,
      "velocity": 106,
      "chip": "ym2612"
    },
    {
      "channel": 2,
      "note": 39,
      "start": 18.4726,
      "duration": 0.0973,
      "velocity": 119,
      "chip": "ym2612"
    },
    {
      "channel": 1,
      "note": 50,
      "start": 18.5896,
      "duration": 0.08,
      "velocity": 113,
      "chip": "ym2612"
    },
    {
      "channel": 2,
      "note": 39,
      "start": 18.592,
      "duration": 0.0945,
      "velocity": 119,
      "chip": "ym2612"
    },
    {
      "channel": 2,
      "note": 39,
      "start": 18.7226,
      "duration": 0.0973,
      "velocity": 119,
      "chip": "ym2612"
    },
    {
      "channel": 1,
      "note": 50,
      "start": 18.8394,
      "duration": 0.0802,
      "velocity": 113,
      "chip": "ym2612"
    },
    {
      "channel": 0,
      "note": 45,
      "start": 18.8418,
      "duration": 0.0943,
      "velocity": 118,
      "chip": "ym2612"
    },
    {
      "channel": 2,
      "note": 39,
      "start": 18.8441,
      "duration": 0.0924,
      "velocity": 119,
      "chip": "ym2612"
    },
    {
      "channel": 3,
      "note": 75,
      "start": 18.8477,
      "duration": 0.722,
      "velocity": 118,
      "chip": "ym2612"
    },
    {
      "channel": 5,
      "note": 50,
      "start": 18.8504,
      "duration": 0.3859,
      "velocity": 106,
      "chip": "ym2612"
    },
    {
      "channel": 2,
      "note": 39,
      "start": 18.9729,
      "duration": 0.0969,
      "velocity": 119,
      "chip": "ym2612"
    },
    {
      "channel": 1,
      "note": 50,
      "start": 19.0893,
      "duration": 0.0803,
      "velocity": 113,
      "chip": "ym2612"
    },
    {
      "channel": 2,
      "note": 39,
      "start": 19.0917,
      "duration": 0.0948,
      "velocity": 119,
      "chip": "ym2612"
    },
    {
      "channel": 2,
      "note": 39,
      "start": 19.2225,
      "duration": 0.0973,
      "velocity": 119,
      "chip": "ym2612"
    },
    {
      "channel": 1,
      "note": 50,
      "start": 19.3395,
      "duration": 0.1135,
      "velocity": 113,
      "chip": "ym2612"
    },
    {
      "channel": 0,
      "note": 45,
      "start": 19.3419,
      "duration": 0.1109,
      "velocity": 118,
      "chip": "ym2612"
    },
    {
      "channel": 2,
      "note": 39,
      "start": 19.3442,
      "duration": 0.109,
      "velocity": 119,
      "chip": "ym2612"
    },
    {
      "channel": 5,
      "note": 50,
      "start": 19.3478,
      "duration": 0.3886,
      "velocity": 106,
      "chip": "ym2612"
    },
    {
      "channel": 2,
      "note": 39,
      "start": 19.4726,
      "duration": 0.0973,
      "velocity": 119,
      "chip": "ym2612"
    },
    {
      "channel": 1,
      "note": 50,
      "start": 19.5895,
      "duration": 0.08,
      "velocity": 113,
      "chip": "ym2612"
    },
    {
      "channel": 2,
      "note": 39,
      "start": 19.5919,
      "duration": 0.1112,
      "velocity": 119,
      "chip": "ym2612"
    },
    {
      "channel": 3,
      "note": 74,
      "start": 19.5951,
      "duration": 1.2246,
      "velocity": 118,
      "chip": "ym2612"
    },
    {
      "channel": 2,
      "note": 39,
      "start": 19.7226,
      "duration": 0.0973,
      "velocity": 119,
      "chip": "ym2612"
    },
    {
      "channel": 1,
      "note": 50,
      "start": 19.8393,
      "duration": 0.0802,
      "velocity": 113,
      "chip": "ym2612"
    },
    {
      "channel": 0,
      "note": 45,
      "start": 19.8417,
      "duration": 0.1111,
      "velocity": 118,
      "chip": "ym2612"
    },
    {
      "channel": 2,
      "note": 39,
      "start": 19.844,
      "duration": 0.1092,
      "velocity": 119,
      "chip": "ym2612"
    },
    {
      "channel": 5,
      "note": 50,
      "start": 19.8469,
      "duration": 0.3895,
      "velocity": 106,
      "chip": "ym2612"
    },
    {
      "channel": 4,
      "note": 69,
      "start": 19.8499,
      "duration": 0.0698,
      "velocity": 127,
      "chip": "ym2612"
    },
    {
      "channel": 2,
      "note": 39,
      "start": 19.9725,
      "duration": 0.0973,
      "velocity": 119,
      "chip": "ym2612"
    },
    {
      "channel": 4,
      "note": 69,
      "start": 19.9763,
      "duration": 4.8807,
      "velocity": 127,
      "chip": "ym2612"
    },
    {
      "channel": 1,
      "note": 69,
      "start": 19.979,
      "duration": 0.3702,
      "velocity": 127,
      "chip": "ym2612"
    },
    {
      "channel": 0,
      "note": 69,
      "start": 19.982,
      "duration": 0.0709,
      "velocity": 127,
      "chip": "ym2612"
    },
    {
      "channel": 0,
      "note": 50,
      "start": 20.0895,
      "duration": 0.08,
      "velocity": 113,
      "chip": "ym2612"
    },
    {
      "channel": 2,
      "note": 39,
      "start": 20.0919,
      "duration": 0.0013,
      "velocity": 119,
      "chip": "ym2612"
    },
    {
      "channel": 2,
      "note": 66,
      "start": 20.0954,
      "duration": 0.0745,
      "velocity": 127,
      "chip": "ym2612"
    },
    {
      "channel": 2,
      "note": 39,
      "start": 20.2225,
      "duration": 0.0973,
      "velocity": 119,
      "chip": "ym2612"
    },
    {
      "channel": 0,
      "note": 66,
      "start": 20.2259,
      "duration": 0.077,
      "velocity": 127,
      "chip": "ym2612"
    },
    {
      "channel": 5,
      "note": 50,
      "start": 20.3396,
      "duration": 0.1136,
      "velocity": 113,
      "chip": "ym2612"
    },
    {
      "channel": 0,
      "note": 45,
      "start": 20.3423,
      "duration": 0.1106,
      "velocity": 118,
      "chip": "ym2612"
    },
    {
      "channel": 2,
      "note": 39,
      "start": 20.3446,
      "duration": 0.0019,
      "velocity": 119,
      "chip": "ym2612"
    },
    {
      "channel": 2,
      "note": 50,
      "start": 20.3484,
      "duration": 0.388,
      "velocity": 106,
      "chip": "ym2612"
    },
    {
      "channel": 1,
      "note": 66,
      "start": 20.3514,
      "duration": 0.0682,
      "velocity": 127,
      "chip": "ym2612"
    },
    {
      "channel": 1,
      "note": 66,
      "start": 20.4738,
      "duration": 0.0791,
      "velocity": 127,
      "chip": "ym2612"
    },
    {
      "channel": 5,
      "note": 50,
      "start": 20.6063,
      "duration": 0.0803,
      "velocity": 113,
      "chip": "ym2612"
    },
    {
      "channel": 1,
      "note": 62,
      "start": 20.6099,
      "duration": 0.0763,
      "velocity": 127,
      "chip": "ym2612"
    },
    {
      "channel": 1,
      "note": 62,
      "start": 20.7239,
      "duration": 0.0791,
      "velocity": 127,
      "chip": "ym2612"
    },
    {
      "channel": 5,
      "note": 50,
      "start": 20.8562,
      "duration": 0.0803,
      "velocity": 113,
      "chip": "ym2612"
    },
    {
      "channel": 0,
      "note": 45,
      "start": 20.8585,
      "duration": 0.0943,
      "velocity": 118,
      "chip": "ym2612"
    },
    {
      "channel": 2,
      "note": 39,
      "start": 20.8608,
      "duration": 0.0081,
      "velocity": 119,
      "chip": "ym2612"
    },
    {
      "channel": 3,
      "note": 66,
      "start": 20.864,
      "duration": 0.1057,
      "velocity": 118,
      "chip": "ym2612"
    },
    {
      "channel": 1,
      "note": 50,
      "start": 20.8678,
      "duration": 0.3684,
      "velocity": 106,
      "chip": "ym2612"
    },
    {
      "channel": 2,
      "note": 62,
      "start": 20.8711,
      "duration": 0.0655,
      "velocity": 127,
      "chip": "ym2612"
    },
    {
      "channel": 2,
      "note": 39,
      "start": 20.973,
      "duration": 0.0967,
      "velocity": 119,
      "chip": "ym2612"
    },
    {
      "channel": 5,
      "note": 50,
      "start": 21.1065,
      "duration": 0.08,
      "velocity": 113,
      "chip": "ym2612"
    },
    {
      "channel": 2,
      "note": 39,
      "start": 21.1089,
      "duration": 0.0941,
      "velocity": 119,
      "chip": "ym2612"
    },
    {
      "channel": 3,
      "note": 66,
      "start": 21.112,
      "duration": 0.2076,
      "velocity": 118,
      "chip": "ym2612"
    },
    {
      "channel": 2,
      "note": 39,
      "start": 21.2225,
      "duration": 0.0972,
      "velocity": 119,
      "chip": "ym2612"
    },
    {
      "channel": 5,
      "note": 50,
      "start": 21.3561,
      "duration": 0.0803,
      "velocity": 113,
      "chip": "ym2612"
    },
    {
      "channel": 0,
      "note": 45,
      "start": 21.3585,
      "duration": 0.0943,
      "velocity": 118,
      "chip": "ym2612"
    },
    {
      "channel": 2,
      "note": 39,
      "start": 21.3608,
      "duration": 0.0924,
      "velocity": 119,
      "chip": "ym2612"
    },
    {
      "channel": 3,
      "note": 69,
      "start": 21.3645,
      "duration": 0.2218,
      "velocity": 118,
      "chip": "ym2612"
    },
    {
      "channel": 1,
      "note": 50,
      "start": 21.3669,
      "duration": 0.386,
      "velocity": 106,
      "chip": "ym2612"
    },
    {
      "channel": 2,
      "note": 39,
      "start": 21.4725,
      "duration": 0.114,
      "velocity": 119,
      "chip": "ym2612"
    },
    {
      "channel": 5,
      "note": 50,
      "start": 21.6062,
      "duration": 0.0802,
      "velocity": 113,
      "chip": "ym2612"
    },
    {
      "channel": 2,
      "note": 39,
      "start": 21.6086,
      "duration": 0.0946,
      "velocity": 119,
      "chip": "ym2612"
    },
    {
      "channel": 3,
      "note": 76,
      "start": 21.6118,
      "duration": 1.2245,
      "velocity": 118,
      "chip": "ym2612"
    },
    {
      "channel": 2,
      "note": 39,
      "start": 21.7225,
      "duration": 0.1139,
      "velocity": 119,
      "chip": "ym2612"
    },
    {
      "channel": 5,
      "note": 50,
      "start": 21.8563,
      "duration": 0.0969,
      "velocity": 113,
      "chip": "ym2612"
    },
    {
      "channel": 0,
      "note": 45,
      "start": 21.8587,
      "duration": 0.0942,
      "velocity": 118,
      "chip": "ym2612"
    },
    {
      "channel": 2,
      "note": 39,
      "start": 21.861,
      "duration": 0.0923,
      "velocity": 119,
      "chip": "ym2612"
    },
    {
      "channel": 1,
      "note": 50,
      "start": 21.8638,
      "duration": 0.389,
      "velocity": 106,
      "chip": "ym2612"
    },
    {
      "channel": 2,
      "note": 39,
      "start": 21.9725,
      "duration": 0.1139,
      "velocity": 119,
      "chip": "ym2612"
    },
    {
      "channel": 5,
      "note": 50,
      "start": 22.1062,
      "duration": 0.0968,
      "velocity": 113,
      "chip": "ym2612"
    },
    {
      "channel": 2,
      "note": 39,
      "start": 22.1086,
      "duration": 0.0945,
      "velocity": 119,
      "chip": "ym2612"
    },
    {
      "channel": 2,
      "note": 39,
      "start": 22.2225,
      "duration": 0.1139,
      "velocity": 119,
      "chip": "ym2612"
    },
    {
      "channel": 5,
      "note": 50,
      "start": 22.3561,
      "duration": 0.0971,
      "velocity": 113,
      "chip": "ym2612"
    },
    {
      "channel": 0,
      "note": 45,
      "start": 22.3584,
      "duration": 0.0945,
      "velocity": 118,
      "chip": "ym2612"
    },
    {
      "channel": 2,
      "note": 39,
      "start": 22.3607,
      "duration": 0.0926,
      "velocity": 119,
      "chip": "ym2612"
    },
    {
      "channel": 1,
      "note": 50,
      "start": 22.3644,
      "duration": 0.3885,
      "velocity": 106,
      "chip": "ym2612"
    },
    {
      "channel": 2,
      "note": 39,
      "start": 22.4726,
      "duration": 0.1139,
      "velocity": 119,
      "chip": "ym2612"
    },
    {
      "channel": 5,
      "note": 50,
      "start": 22.6064,
      "duration": 0.1301,
      "velocity": 113,
      "chip": "ym2612"
    },
    {
      "channel": 2,
      "note": 39,
      "start": 22.6088,
      "duration": 0.0944,
      "velocity": 119,
      "chip": "ym2612"
    },
    {
      "channel": 2,
      "note": 39,
      "start": 22.7394,
      "duration": 0.0971,
      "velocity": 119,
      "chip": "ym2612"
    },
    {
      "channel": 5,
      "note": 50,
      "start": 22.8563,
      "duration": 0.0968,
      "velocity": 113,
      "chip": "ym2612"
    },
    {
      "channel": 0,
      "note": 45,
      "start": 22.8587,
      "duration": 0.0942,
      "velocity": 118,
      "chip": "ym2612"
    },
    {
      "channel": 2,
      "note": 39,
      "start": 22.861,
      "duration": 0.0922,
      "velocity": 119,
      "chip": "ym2612"
    },
    {
      "channel": 3,
      "note": 75,
      "start": 22.8642,
      "duration": 0.7222,
      "velocity": 118,
      "chip": "ym2612"
    },
    {
      "channel": 1,
      "note": 50,
      "start": 22.8668,
      "duration": 0.3861,
      "velocity": 106,
      "chip": "ym2612"
    },
    {
      "channel": 2,
      "note": 39,
      "start": 22.9895,
      "duration": 0.0969,
      "velocity": 119,
      "chip": "ym2612"
    },
    {
      "channel": 5,
      "note": 50,
      "start": 23.1063,
      "duration": 0.0801,
      "velocity": 113,
      "chip": "ym2612"
    },
    {
      "channel": 2,
      "note": 39,
      "start": 23.1087,
      "duration": 0.0945,
      "velocity": 119,
      "chip": "ym2612"
    },
    {
      "channel": 2,
      "note": 39,
      "start": 23.2391,
      "duration": 0.0973,
      "velocity": 119,
      "chip": "ym2612"
    },
    {
      "channel": 5,
      "note": 50,
      "start": 23.3562,
      "duration": 0.0969,
      "velocity": 113,
      "chip": "ym2612"
    },
    {
      "channel": 0,
      "note": 45,
      "start": 23.3585,
      "duration": 0.0943,
      "velocity": 118,
      "chip": "ym2612"
    },
    {
      "channel": 2,
      "note": 39,
      "start": 23.3609,
      "duration": 0.0923,
      "velocity": 119,
      "chip": "ym2612"
    },
    {
      "channel": 1,
      "note": 50,
      "start": 23.3644,
      "duration": 0.3885,
      "velocity": 106,
      "chip": "ym2612"
    },
    {
      "channel": 2,
      "note": 39,
      "start": 23.4893,
      "duration": 0.0973,
      "velocity": 119,
      "chip": "ym2612"
    },
    {
      "channel": 5,
      "note": 50,
      "start": 23.6068,
      "duration": 0.0797,
      "velocity": 113,
      "chip": "ym2612"
    },
    {
      "channel": 2,
      "note": 39,
      "start": 23.6092,
      "duration": 0.1107,
      "velocity": 119,
      "chip": "ym2612"
    },
    {
      "channel": 3,
      "note": 74,
      "start": 23.6129,
      "duration": 1.2181,
      "velocity": 118,
      "chip": "ym2612"
    },
    {
      "channel": 2,
      "note": 39,
      "start": 23.7392,
      "duration": 0.0973,
      "velocity": 119,
      "chip": "ym2612"
    },
    {
      "channel": 5,
      "note": 50,
      "start": 23.8563,
      "duration": 0.1136,
      "velocity": 113,
      "chip": "ym2612"
    },
    {
      "channel": 0,
      "note": 45,
      "start": 23.8587,
      "duration": 0.1109,
      "velocity": 118,
      "chip": "ym2612"
    },
    {
      "channel": 2,
      "note": 39,
      "start": 23.861,
      "duration": 0.0038,
      "velocity": 119,
      "chip": "ym2612"
    },
    {
      "channel": 1,
      "note": 50,
      "start": 23.8638,
      "duration": 0.3891,
      "velocity": 106,
      "chip": "ym2612"
    },
    {
      "channel": 2,
      "note": 69,
      "start": 23.8669,
      "duration": 0.0696,
      "velocity": 127,
      "chip": "ym2612"
    },
    {
      "channel": 2,
      "note": 39,
      "start": 23.9892,
      "duration": 0.0972,
      "velocity": 119,
      "chip": "ym2612"
    },
    {
      "channel": 0,
      "note": 69,
      "start": 23.9929,
      "duration": 0.0766,
      "velocity": 127,
      "chip": "ym2612"
    },
    {
      "channel": 5,
      "note": 50,
      "start": 24.1063,
      "duration": 0.0801,
      "velocity": 113,
      "chip": "ym2612"
    },
    {
      "channel": 2,
      "note": 39,
      "start": 24.1087,
      "duration": 0.1111,
      "velocity": 119,
      "chip": "ym2612"
    },
    {
      "channel": 0,
      "note": 66,
      "start": 24.1119,
      "duration": 0.0742,
      "velocity": 127,
      "chip": "ym2612"
    },
    {
      "channel": 2,
      "note": 39,
      "start": 24.2392,
      "duration": 0.0971,
      "velocity": 119,
      "chip": "ym2612"
    },
    {
      "channel": 5,
      "note": 50,
      "start": 24.3561,
      "duration": 0.0803,
      "velocity": 113,
      "chip": "ym2612"
    },
    {
      "channel": 0,
      "note": 45,
      "start": 24.3587,
      "duration": 0.1107,
      "velocity": 118,
      "chip": "ym2612"
    },
    {
      "channel": 2,
      "note": 39,
      "start": 24.361,
      "duration": 0.0045,
      "velocity": 119,
      "chip": "ym2612"
    },
    {
      "channel": 1,
      "note": 50,
      "start": 24.3646,
      "duration": 0.3884,
      "velocity": 106,
      "chip": "ym2612"
    },
    {
      "channel": 2,
      "note": 69,
      "start": 24.3677,
      "duration": 0.0688,
      "velocity": 127,
      "chip": "ym2612"
    },
    {
      "channel": 2,
      "note": 39,
      "start": 24.4893,
      "duration": 0.0971,
      "velocity": 119,
      "chip": "ym2612"
    },
    {
      "channel": 5,
      "note": 69,
      "start": 24.4926,
      "duration": 0.0771,
      "velocity": 127,
      "chip": "ym2612"
    },
    {
      "channel": 0,
      "note": 50,
      "start": 24.6064,
      "duration": 0.1298,
      "velocity": 113,
      "chip": "ym2612"
    },
    {
      "channel": 2,
      "note": 39,
      "start": 24.6089,
      "duration": 0.111,
      "velocity": 119,
      "chip": "ym2612"
    },
    {
      "channel": 5,
      "note": 66,
      "start": 24.6122,
      "duration": 0.0743,
      "velocity": 127,
      "chip": "ym2612"
    },
    {
      "channel": 2,
      "note": 39,
      "start": 24.7393,
      "duration": 0.0918,
      "velocity": 119,
      "chip": "ym2612"
    },
    {
      "channel": 5,
      "note": 69,
      "start": 24.7426,
      "duration": 0.0772,
      "velocity": 127,
      "chip": "ym2612"
    },
    {
      "channel": 0,
      "note": 97,
      "start": 24.8357,
      "duration": 4.0455,
      "velocity": 81,
      "chip": "ym2612"
    },
    {
      "channel": 1,
      "note": 54,
      "start": 24.8465,
      "duration": 0.0324,
      "velocity": 113,
      "chip": "ym2612"
    },
    {
      "channel": 3,
      "note": 45,
      "start": 24.8489,
      "duration": 0.036,
      "velocity": 118,
      "chip": "ym2612"
    },
    {
      "channel": 2,
      "note": 39,
      "start": 24.851,
      "duration": 0.0031,
      "velocity": 119,
      "chip": "ym2612"
    },
    {
      "channel": 2,
      "note": 54,
      "start": 24.8561,
      "duration": 0.1331,
      "velocity": 106,
      "chip": "ym2612"
    },
    {
      "channel": 4,
      "note": 62,
      "start": 24.8591,
      "duration": 0.0199,
      "velocity": 127,
      "chip": "ym2612"
    },
    {
      "channel": 1,
      "note": 54,
      "start": 24.8946,
      "duration": 0.0208,
      "velocity": 113,
      "chip": "ym2612"
    },
    {
      "channel": 1,
      "note": 54,
      "start": 24.9434,
      "duration": 0.0456,
      "velocity": 113,
      "chip": "ym2612"
    },
    {
      "channel": 4,
      "note": 57,
      "start": 24.9864,
      "duration": 0.0445,
      "velocity": 113,
      "chip": "ym2612"
    },
    {
      "channel": 3,
      "note": 45,
      "start": 25.0349,
      "duration": 0.0338,
      "velocity": 118,
      "chip": "ym2612"
    },
    {
      "channel": 2,
      "note": 39,
      "start": 25.0371,
      "duration": 0.0318,
      "velocity": 119,
      "chip": "ym2612"
    },
    {
      "channel": 1,
      "note": 57,
      "start": 25.0786,
      "duration": 0.0621,
      "velocity": 113,
      "chip": "ym2612"
    },
    {
      "channel": 2,
      "note": 39,
      "start": 25.0809,
      "duration": 0.032,
      "velocity": 119,
      "chip": "ym2612"
    },
    {
      "channel": 1,
      "note": 59,
      "start": 25.1439,
      "duration": 0.1134,
      "velocity": 113,
      "chip": "ym2612"
    },
    {
      "channel": 2,
      "note": 39,
      "start": 25.1463,
      "duration": 0.0944,
      "velocity": 119,
      "chip": "ym2612"
    },
    {
      "channel": 2,
      "note": 39,
      "start": 25.2604,
      "duration": 0.0971,
      "velocity": 119,
      "chip": "ym2612"
    },
    {
      "channel": 3,
      "note": 45,
      "start": 25.366,
      "duration": 0.0365,
      "velocity": 118,
      "chip": "ym2612"
    },
    {
      "channel": 2,
      "note": 39,
      "start": 25.3682,
      "duration": 0.0343,
      "velocity": 119,
      "chip": "ym2612"
    },
    {
      "channel": 1,
      "note": 59,
      "start": 25.4104,
      "duration": 0.0471,
      "velocity": 113,
      "chip": "ym2612"
    },
    {
      "channel": 2,
      "note": 39,
      "start": 25.4126,
      "duration": 0.0399,
      "velocity": 119,
      "chip": "ym2612"
    },
    {
      "channel": 1,
      "note": 61,
      "start": 25.4605,
      "duration": 0.0291,
      "velocity": 113,
      "chip": "ym2612"
    },
    {
      "channel": 2,
      "note": 39,
      "start": 25.4627,
      "duration": 0.033,
      "velocity": 119,
      "chip": "ym2612"
    },
    {
      "channel": 2,
      "note": 39,
      "start": 25.505,
      "duration": 0.0395,
      "velocity": 119,
      "chip": "ym2612"
    },
    {
      "channel": 1,
      "note": 64,
      "start": 25.5534,
      "duration": 0.0727,
      "velocity": 113,
      "chip": "ym2612"
    },
    {
      "channel": 3,
      "note": 45,
      "start": 25.5557,
      "duration": 0.0336,
      "velocity": 118,
      "chip": "ym2612"
    },
    {
      "channel": 2,
      "note": 39,
      "start": 25.5578,
      "duration": 0.0317,
      "velocity": 119,
      "chip": "ym2612"
    },
    {
      "channel": 2,
      "note": 39,
      "start": 25.599,
      "duration": 0.0461,
      "velocity": 119,
      "chip": "ym2612"
    },
    {
      "channel": 1,
      "note": 66,
      "start": 25.6648,
      "duration": 0.0968,
      "velocity": 113,
      "chip": "ym2612"
    },
    {
      "channel": 2,
      "note": 39,
      "start": 25.6672,
      "duration": 0.0946,
      "velocity": 119,
      "chip": "ym2612"
    },
    {
      "channel": 2,
      "note": 39,
      "start": 25.7813,
      "duration": 0.1138,
      "velocity": 119,
      "chip": "ym2612"
    },
    {
      "channel": 1,
      "note": 54,
      "start": 25.9197,
      "duration": 0.0292,
      "velocity": 113,
      "chip": "ym2612"
    },
    {
      "channel": 3,
      "note": 45,
      "start": 25.9219,
      "duration": 0.0331,
      "velocity": 118,
      "chip": "ym2612"
    },
    {
      "channel": 2,
      "note": 39,
      "start": 25.9239,
      "duration": 0.0312,
      "velocity": 119,
      "chip": "ym2612"
    },
    {
      "channel": 1,
      "note": 54,
      "start": 25.9712,
      "duration": 0.016,
      "velocity": 113,
      "chip": "ym2612"
    },
    {
      "channel": 2,
      "note": 39,
      "start": 25.9736,
      "duration": 0.0317,
      "velocity": 119,
      "chip": "ym2612"
    },
    {
      "channel": 1,
      "note": 54,
      "start": 26.0138,
      "duration": 0.0549,
      "velocity": 113,
      "chip": "ym2612"
    },
    {
      "channel": 2,
      "note": 39,
      "start": 26.0169,
      "duration": 0.0317,
      "velocity": 119,
      "chip": "ym2612"
    },
    {
      "channel": 4,
      "note": 57,
      "start": 26.0635,
      "duration": 0.041,
      "velocity": 113,
      "chip": "ym2612"
    },
    {
      "channel": 2,
      "note": 39,
      "start": 26.0667,
      "duration": 0.032,
      "velocity": 119,
      "chip": "ym2612"
    },
    {
      "channel": 3,
      "note": 45,
      "start": 26.1071,
      "duration": 0.0357,
      "velocity": 118,
      "chip": "ym2612"
    },
    {
      "channel": 2,
      "note": 39,
      "start": 26.1093,
      "duration": 0.0337,
      "velocity": 119,
      "chip": "ym2612"
    },
    {
      "channel": 1,
      "note": 57,
      "start": 26.1571,
      "duration": 0.0415,
      "velocity": 113,
      "chip": "ym2612"
    },
    {
      "channel": 2,
      "note": 39,
      "start": 26.1593,
      "duration": 0.0336,
      "velocity": 119,
      "chip": "ym2612"
    },
    {
      "channel": 1,
      "note": 59,
      "start": 26.2016,
      "duration": 0.0469,
      "velocity": 113,
      "chip": "ym2612"
    },
    {
      "channel": 2,
      "note": 39,
      "start": 26.2039,
      "duration": 0.0329,
      "velocity": 119,
      "chip": "ym2612"
    },
    {
      "channel": 2,
      "note": 39,
      "start": 26.2513,
      "duration": 0.038,
      "velocity": 119,
      "chip": "ym2612"
    },
    {
      "channel": 3,
      "note": 45,
      "start": 26.2987,
      "duration": 0.0407,
      "velocity": 118,
      "chip": "ym2612"
    },
    {
      "channel": 2,
      "note": 39,
      "start": 26.301,
      "duration": 0.0386,
      "velocity": 119,
      "chip": "ym2612"
    },
    {
      "channel": 1,
      "note": 59,
      "start": 26.3493,
      "duration": 0.0401,
      "velocity": 113,
      "chip": "ym2612"
    },
    {
      "channel": 2,
      "note": 39,
      "start": 26.3515,
      "duration": 0.032,
      "velocity": 119,
      "chip": "ym2612"
    },
    {
      "channel": 1,
      "note": 61,
      "start": 26.3937,
      "duration": 0.0281,
      "velocity": 113,
      "chip": "ym2612"
    },
    {
      "channel": 2,
      "note": 39,
      "start": 26.3959,
      "duration": 0.0377,
      "velocity": 119,
      "chip": "ym2612"
    },
    {
      "channel": 2,
      "note": 39,
      "start": 26.4429,
      "duration": 0.0342,
      "velocity": 119,
      "chip": "ym2612"
    },
    {
      "channel": 1,
      "note": 64,
      "start": 26.4869,
      "duration": 0.082,
      "velocity": 113,
      "chip": "ym2612"
    },
    {
      "channel": 3,
      "note": 45,
      "start": 26.4892,
      "duration": 0.0406,
      "velocity": 118,
      "chip": "ym2612"
    },
    {
      "channel": 2,
      "note": 39,
      "start": 26.4915,
      "duration": 0.0385,
      "velocity": 119,
      "chip": "ym2612"
    },
    {
      "channel": 4,
      "note": 69,
      "start": 26.4953,
      "duration": 0.0236,
      "velocity": 127,
      "chip": "ym2612"
    },
    {
      "channel": 2,
      "note": 39,
      "start": 26.5386,
      "duration": 0.0359,
      "velocity": 119,
      "chip": "ym2612"
    },
    {
      "channel": 4,
      "note": 69,
      "start": 26.5415,
      "duration": 0.0276,
      "velocity": 127,
      "chip": "ym2612"
    },
    {
      "channel": 1,
      "note": 66,
      "start": 26.586,
      "duration": 0.1134,
      "velocity": 113,
      "chip": "ym2612"
    },
    {
      "channel": 2,
      "note": 39,
      "start": 26.5884,
      "duration": 0.1113,
      "velocity": 119,
      "chip": "ym2612"
    },
    {
      "channel": 3,
      "note": 52,
      "start": 26.592,
      "duration": 0.2241,
      "velocity": 106,
      "chip": "ym2612"
    },
    {
      "channel": 4,
      "note": 66,
      "start": 26.5948,
      "duration": 0.0714,
      "velocity": 127,
      "chip": "ym2612"
    },
    {
      "channel": 2,
      "note": 39,
      "start": 26.719,
      "duration": 0.092,
      "velocity": 119,
      "chip": "ym2612"
    },
    {
      "channel": 4,
      "note": 66,
      "start": 26.7222,
      "duration": 0.0773,
      "velocity": 127,
      "chip": "ym2612"
    },
    {
      "channel": 1,
      "note": 54,
      "start": 26.8193,
      "duration": 0.0326,
      "velocity": 113,
      "chip": "ym2612"
    },
    {
      "channel": 4,
      "note": 45,
      "start": 26.8217,
      "duration": 0.0424,
      "velocity": 118,
      "chip": "ym2612"
    },
    {
      "channel": 2,
      "note": 39,
      "start": 26.8237,
      "duration": 0.0053,
      "velocity": 119,
      "chip": "ym2612"
    },
    {
      "channel": 3,
      "note": 54,
      "start": 26.8278,
      "duration": 0.1356,
      "velocity": 106,
      "chip": "ym2612"
    },
    {
      "channel": 2,
      "note": 62,
      "start": 26.8313,
      "duration": 0.0207,
      "velocity": 127,
      "chip": "ym2612"
    },
    {
      "channel": 1,
      "note": 54,
      "start": 26.8737,
      "duration": 0.0283,
      "velocity": 113,
      "chip": "ym2612"
    },
    {
      "channel": 2,
      "note": 39,
      "start": 26.8763,
      "duration": 0.0318,
      "velocity": 119,
      "chip": "ym2612"
    },
    {
      "channel": 1,
      "note": 54,
      "start": 26.9237,
      "duration": 0.048,
      "velocity": 113,
      "chip": "ym2612"
    },
    {
      "channel": 2,
      "note": 39,
      "start": 26.9259,
      "duration": 0.0315,
      "velocity": 119,
      "chip": "ym2612"
    },
    {
      "channel": 4,
      "note": 57,
      "start": 26.9676,
      "duration": 0.0337,
      "velocity": 113,
      "chip": "ym2612"
    },
    {
      "channel": 2,
      "note": 39,
      "start": 26.9698,
      "duration": 0.0315,
      "velocity": 119,
      "chip": "ym2612"
    },
    {
      "channel": 3,
      "note": 45,
      "start": 27.0169,
      "duration": 0.0338,
      "velocity": 118,
      "chip": "ym2612"
    },
    {
      "channel": 2,
      "note": 39,
      "start": 27.0191,
      "duration": 0.0318,
      "velocity": 119,
      "chip": "ym2612"
    },
    {
      "channel": 1,
      "note": 57,
      "start": 27.0602,
      "duration": 0.0771,
      "velocity": 113,
      "chip": "ym2612"
    },
    {
      "channel": 2,
      "note": 39,
      "start": 27.0634,
      "duration": 0.0315,
      "velocity": 119,
      "chip": "ym2612"
    },
    {
      "channel": 4,
      "note": 59,
      "start": 27.1241,
      "duration": 0.08,
      "velocity": 113,
      "chip": "ym2612"
    },
    {
      "channel": 2,
      "note": 39,
      "start": 27.1265,
      "duration": 0.0944,
      "velocity": 119,
      "chip": "ym2612"
    },
    {
      "channel": 2,
      "note": 39,
      "start": 27.2403,
      "duration": 0.0922,
      "velocity": 119,
      "chip": "ym2612"
    },
    {
      "channel": 3,
      "note": 45,
      "start": 27.3458,
      "duration": 0.036,
      "velocity": 118,
      "chip": "ym2612"
    },
    {
      "channel": 2,
      "note": 39,
      "start": 27.348,
      "duration": 0.0339,
      "velocity": 119,
      "chip": "ym2612"
    },
    {
      "channel": 1,
      "note": 59,
      "start": 27.3903,
      "duration": 0.0416,
      "velocity": 113,
      "chip": "ym2612"
    },
    {
      "channel": 2,
      "note": 39,
      "start": 27.3926,
      "duration": 0.0396,
      "velocity": 119,
      "chip": "ym2612"
    },
    {
      "channel": 1,
      "note": 61,
      "start": 27.4401,
      "duration": 0.0351,
      "velocity": 113,
      "chip": "ym2612"
    },
    {
      "channel": 2,
      "note": 39,
      "start": 27.4424,
      "duration": 0.033,
      "velocity": 119,
      "chip": "ym2612"
    },
    {
      "channel": 2,
      "note": 39,
      "start": 27.4846,
      "duration": 0.0414,
      "velocity": 119,
      "chip": "ym2612"
    },
    {
      "channel": 1,
      "note": 64,
      "start": 27.5341,
      "duration": 0.0734,
      "velocity": 113,
      "chip": "ym2612"
    },
    {
      "channel": 3,
      "note": 45,
      "start": 27.5364,
      "duration": 0.0338,
      "velocity": 118,
      "chip": "ym2612"
    },
    {
      "channel": 2,
      "note": 39,
      "start": 27.5386,
      "duration": 0.0317,
      "velocity": 119,
      "chip": "ym2612"
    },
    {
      "channel": 2,
      "note": 39,
      "start": 27.58,
      "duration": 0.0461,
      "velocity": 119,
      "chip": "ym2612"
    },
    {
      "channel": 1,
      "note": 66,
      "start": 27.6459,
      "duration": 0.1134,
      "velocity": 113,
      "chip": "ym2612"
    },
    {
      "channel": 2,
      "note": 39,
      "start": 27.6483,
      "duration": 0.0945,
      "velocity": 119,
      "chip": "ym2612"
    },
    {
      "channel": 2,
      "note": 39,
      "start": 27.7623,
      "duration": 0.1138,
      "velocity": 119,
      "chip": "ym2612"
    },
    {
      "channel": 1,
      "note": 54,
      "start": 27.8997,
      "duration": 0.0294,
      "velocity": 113,
      "chip": "ym2612"
    },
    {
      "channel": 3,
      "note": 45,
      "start": 27.902,
      "duration": 0.0333,
      "velocity": 118,
      "chip": "ym2612"
    },
    {
      "channel": 2,
      "note": 39,
      "start": 27.904,
      "duration": 0.0313,
      "velocity": 119,
      "chip": "ym2612"
    },
    {
      "channel": 1,
      "note": 54,
      "start": 27.9445,
      "duration": 0.0242,
      "velocity": 113,
      "chip": "ym2612"
    },
    {
      "channel": 2,
      "note": 39,
      "start": 27.948,
      "duration": 0.0377,
      "velocity": 119,
      "chip": "ym2612"
    },
    {
      "channel": 1,
      "note": 54,
      "start": 27.9946,
      "duration": 0.055,
      "velocity": 113,
      "chip": "ym2612"
    },
    {
      "channel": 2,
      "note": 39,
      "start": 27.9978,
      "duration": 0.0322,
      "velocity": 119,
      "chip": "ym2612"
    },
    {
      "channel": 4,
      "note": 57,
      "start": 28.0446,
      "duration": 0.0414,
      "velocity": 113,
      "chip": "ym2612"
    },
    {
      "channel": 2,
      "note": 39,
      "start": 28.0478,
      "duration": 0.0321,
      "velocity": 119,
      "chip": "ym2612"
    },
    {
      "channel": 3,
      "note": 45,
      "start": 28.0888,
      "duration": 0.036,
      "velocity": 118,
      "chip": "ym2612"
    },
    {
      "channel": 2,
      "note": 39,
      "start": 28.0911,
      "duration": 0.0339,
      "velocity": 119,
      "chip": "ym2612"
    },
    {
      "channel": 1,
      "note": 57,
      "start": 28.1393,
      "duration": 0.0496,
      "velocity": 113,
      "chip": "ym2612"
    },
    {
      "channel": 2,
      "note": 39,
      "start": 28.1416,
      "duration": 0.0338,
      "velocity": 119,
      "chip": "ym2612"
    },
    {
      "channel": 4,
      "note": 59,
      "start": 28.1838,
      "duration": 0.0361,
      "velocity": 113,
      "chip": "ym2612"
    },
    {
      "channel": 2,
      "note": 39,
      "start": 28.186,
      "duration": 0.034,
      "velocity": 119,
      "chip": "ym2612"
    },
    {
      "channel": 2,
      "note": 39,
      "start": 28.2337,
      "duration": 0.0383,
      "velocity": 119,
      "chip": "ym2612"
    },
    {
      "channel": 3,
      "note": 45,
      "start": 28.2817,
      "duration": 0.0341,
      "velocity": 118,
      "chip": "ym2612"
    },
    {
      "channel": 2,
      "note": 39,
      "start": 28.2837,
      "duration": 0.0322,
      "velocity": 119,
      "chip": "ym2612"
    },
    {
      "channel": 1,
      "note": 59,
      "start": 28.3321,
      "duration": 0.0395,
      "velocity": 113,
      "chip": "ym2612"
    },
    {
      "channel": 2,
      "note": 39,
      "start": 28.3343,
      "duration": 0.0314,
      "velocity": 119,
      "chip": "ym2612"
    },
    {
      "channel": 1,
      "note": 61,
      "start": 28.3755,
      "duration": 0.028,
      "velocity": 113,
      "chip": "ym2612"
    },
    {
      "channel": 2,
      "note": 39,
      "start": 28.3777,
      "duration": 0.0381,
      "velocity": 119,
      "chip": "ym2612"
    },
    {
      "channel": 2,
      "note": 39,
      "start": 28.4252,
      "duration": 0.0337,
      "velocity": 119,
      "chip": "ym2612"
    },
    {
      "channel": 1,
      "note": 64,
      "start": 28.4679,
      "duration": 0.0887,
      "velocity": 113,
      "chip": "ym2612"
    },
    {
      "channel": 3,
      "note": 45,
      "start": 28.4712,
      "duration": 0.0405,
      "velocity": 118,
      "chip": "ym2612"
    },
    {
      "channel": 2,
      "note": 39,
      "start": 28.4734,
      "duration": 0.0385,
      "velocity": 119,
      "chip": "ym2612"
    },
    {
      "channel": 4,
      "note": 69,
      "start": 28.4773,
      "duration": 0.0235,
      "velocity": 127,
      "chip": "ym2612"
    },
    {
      "channel": 2,
      "note": 39,
      "start": 28.5205,
      "duration": 0.0364,
      "velocity": 119,
      "chip": "ym2612"
    },
    {
      "channel": 4,
      "note": 69,
      "start": 28.5234,
      "duration": 0.0282,
      "velocity": 127,
      "chip": "ym2612"
    },
    {
      "channel": 1,
      "note": 66,
      "start": 28.5679,
      "duration": 0.1134,
      "velocity": 113,
      "chip": "ym2612"
    },
    {
      "channel": 2,
      "note": 39,
      "start": 28.5703,
      "duration": 0.1113,
      "velocity": 119,
      "chip": "ym2612"
    },
    {
      "channel": 4,
      "note": 66,
      "start": 28.5735,
      "duration": 0.0746,
      "velocity": 127,
      "chip": "ym2612"
    },
    {
      "channel": 2,
      "note": 39,
      "start": 28.7009,
      "duration": 0.0971,
      "velocity": 119,
      "chip": "ym2612"
    },
    {
      "channel": 4,
      "note": 69,
      "start": 28.7041,
      "duration": 0.0773,
      "velocity": 127,
      "chip": "ym2612"
    },
    {
      "channel": 1,
      "note": 50,
      "start": 28.8177,
      "duration": 0.1468,
      "velocity": 113,
      "chip": "ym2612"
    },
    {
      "channel": 3,
      "note": 45,
      "start": 28.8202,
      "duration": 0.1111,
      "velocity": 118,
      "chip": "ym2612"
    },
    {
      "channel": 2,
      "note": 39,
      "start": 28.8225,
      "duration": 0.0074,
      "velocity": 119,
      "chip": "ym2612"
    },
    {
      "channel": 5,
      "note": 66,
      "start": 28.8259,
      "duration": 0.1221,
      "velocity": 118,
      "chip": "ym2612"
    },
    {
      "channel": 4,
      "note": 50,
      "start": 28.8288,
      "duration": 0.3858,
      "velocity": 106,
      "chip": "ym2612"
    },
    {
      "channel": 2,
      "note": 62,
      "start": 28.832,
      "duration": 0.066,
      "velocity": 127,
      "chip": "ym2612"
    },
    {
      "channel": 2,
      "note": 39,
      "start": 28.9512,
      "duration": 0.0969,
      "velocity": 119,
      "chip": "ym2612"
    },
    {
      "channel": 1,
      "note": 50,
      "start": 29.0678,
      "duration": 0.08,
      "velocity": 113,
      "chip": "ym2612"
    },
    {
      "channel": 2,
      "note": 39,
      "start": 29.0702,
      "duration": 0.1112,
      "velocity": 119,
      "chip": "ym2612"
    },
    {
      "channel": 5,
      "note": 66,
      "start": 29.0734,
      "duration": 0.2246,
      "velocity": 118,
      "chip": "ym2612"
    },
    {
      "channel": 2,
      "note": 39,
      "start": 29.2007,
      "duration": 0.0974,
      "velocity": 119,
      "chip": "ym2612"
    },
    {
      "channel": 1,
      "note": 50,
      "start": 29.3344,
      "duration": 0.0968,
      "velocity": 113,
      "chip": "ym2612"
    },
    {
      "channel": 3,
      "note": 45,
      "start": 29.3373,
      "duration": 0.0941,
      "velocity": 118,
      "chip": "ym2612"
    },
    {
      "channel": 2,
      "note": 39,
      "start": 29.3395,
      "duration": 0.0921,
      "velocity": 119,
      "chip": "ym2612"
    },
    {
      "channel": 5,
      "note": 69,
      "start": 29.3433,
      "duration": 0.2048,
      "velocity": 118,
      "chip": "ym2612"
    },
    {
      "channel": 4,
      "note": 50,
      "start": 29.3459,
      "duration": 0.3689,
      "velocity": 106,
      "chip": "ym2612"
    },
    {
      "channel": 2,
      "note": 39,
      "start": 29.4509,
      "duration": 0.0973,
      "velocity": 119,
      "chip": "ym2612"
    },
    {
      "channel": 1,
      "note": 50,
      "start": 29.5845,
      "duration": 0.0802,
      "velocity": 113,
      "chip": "ym2612"
    },
    {
      "channel": 2,
      "note": 39,
      "start": 29.5869,
      "duration": 0.0946,
      "velocity": 119,
      "chip": "ym2612"
    },
    {
      "channel": 5,
      "note": 76,
      "start": 29.5902,
      "duration": 1.2245,
      "velocity": 118,
      "chip": "ym2612"
    },
    {
      "channel": 2,
      "note": 39,
      "start": 29.7008,
      "duration": 0.0973,
      "velocity": 119,
      "chip": "ym2612"
    },
    {
      "channel": 1,
      "note": 50,
      "start": 29.8346,
      "duration": 0.0799,
      "velocity": 113,
      "chip": "ym2612"
    },
    {
      "channel": 3,
      "note": 45,
      "start": 29.8371,
      "duration": 0.0941,
      "velocity": 118,
      "chip": "ym2612"
    },
    {
      "channel": 2,
      "note": 39,
      "start": 29.8394,
      "duration": 0.0921,
      "velocity": 119,
      "chip": "ym2612"
    },
    {
      "channel": 4,
      "note": 50,
      "start": 29.8424,
      "duration": 0.3722,
      "velocity": 106,
      "chip": "ym2612"
    },
    {
      "channel": 2,
      "note": 39,
      "start": 29.9508,
      "duration": 0.0973,
      "velocity": 119,
      "chip": "ym2612"
    },
    {
      "channel": 1,
      "note": 50,
      "start": 30.0842,
      "duration": 0.0803,
      "velocity": 113,
      "chip": "ym2612"
    },
    {
      "channel": 2,
      "note": 39,
      "start": 30.0866,
      "duration": 0.0947,
      "velocity": 119,
      "chip": "ym2612"
    },
    {
      "channel": 2,
      "note": 39,
      "start": 30.2007,
      "duration": 0.1139,
      "velocity": 119,
      "chip": "ym2612"
    },
    {
      "channel": 1,
      "note": 50,
      "start": 30.3344,
      "duration": 0.0635,
      "velocity": 113,
      "chip": "ym2612"
    },
    {
      "channel": 3,
      "note": 45,
      "start": 30.3369,
      "duration": 0.0943,
      "velocity": 118,
      "chip": "ym2612"
    },
    {
      "channel": 2,
      "note": 39,
      "start": 30.3392,
      "duration": 0.0922,
      "velocity": 119,
      "chip": "ym2612"
    },
    {
      "channel": 4,
      "note": 50,
      "start": 30.343,
      "duration": 0.3883,
      "velocity": 106,
      "chip": "ym2612"
    },
    {
      "channel": 2,
      "note": 39,
      "start": 30.4509,
      "duration": 0.1139,
      "velocity": 119,
      "chip": "ym2612"
    },
    {
      "channel": 1,
      "note": 50,
      "start": 30.5843,
      "duration": 0.0637,
      "velocity": 113,
      "chip": "ym2612"
    },
    {
      "channel": 2,
      "note": 39,
      "start": 30.5867,
      "duration": 0.0947,
      "velocity": 119,
      "chip": "ym2612"
    },
    {
      "channel": 2,
      "note": 39,
      "start": 30.7009,
      "duration": 0.1139,
      "velocity": 119,
      "chip": "ym2612"
    },
    {
      "channel": 1,
      "note": 50,
      "start": 30.8345,
      "duration": 0.0967,
      "velocity": 113,
      "chip": "ym2612"
    },
    {
      "channel": 3,
      "note": 45,
      "start": 30.8369,
      "duration": 0.0944,
      "velocity": 118,
      "chip": "ym2612"
    },
    {
      "channel": 2,
      "note": 39,
      "start": 30.8392,
      "duration": 0.0923,
      "velocity": 119,
      "chip": "ym2612"
    },
    {
      "channel": 5,
      "note": 75,
      "start": 30.8425,
      "duration": 0.7221,
      "velocity": 118,
      "chip": "ym2612"
    },
    {
      "channel": 4,
      "note": 50,
      "start": 30.8452,
      "duration": 0.3861,
      "velocity": 106,
      "chip": "ym2612"
    },
    {
      "channel": 2,
      "note": 39,
      "start": 30.9512,
      "duration": 0.1136,
      "velocity": 119,
      "chip": "ym2612"
    },
    {
      "channel": 1,
      "note": 50,
      "start": 31.0844,
      "duration": 0.0802,
      "velocity": 113,
      "chip": "ym2612"
    },
    {
      "channel": 2,
      "note": 39,
      "start": 31.0868,
      "duration": 0.0945,
      "velocity": 119,
      "chip": "ym2612"
    },
    {
      "channel": 2,
      "note": 39,
      "start": 31.2007,
      "duration": 0.1139,
      "velocity": 119,
      "chip": "ym2612"
    },
    {
      "channel": 1,
      "note": 50,
      "start": 31.3344,
      "duration": 0.0635,
      "velocity": 113,
      "chip": "ym2612"
    },
    {
      "channel": 3,
      "note": 45,
      "start": 31.3369,
      "duration": 0.0944,
      "velocity": 118,
      "chip": "ym2612"
    },
    {
      "channel": 2,
      "note": 39,
      "start": 31.3392,
      "duration": 0.0923,
      "velocity": 119,
      "chip": "ym2612"
    },
    {
      "channel": 4,
      "note": 50,
      "start": 31.3429,
      "duration": 0.3884,
      "velocity": 106,
      "chip": "ym2612"
    },
    {
      "channel": 2,
      "note": 39,
      "start": 31.4676,
      "duration": 0.0972,
      "velocity": 119,
      "chip": "ym2612"
    },
    {
      "channel": 1,
      "note": 50,
      "start": 31.5845,
      "duration": 0.2634,
      "velocity": 113,
      "chip": "ym2612"
    },
    {
      "channel": 2,
      "note": 39,
      "start": 31.5869,
      "duration": 0.0945,
      "velocity": 119,
      "chip": "ym2612"
    },
    {
      "channel": 5,
      "note": 74,
      "start": 31.5906,
      "duration": 1.2242,
      "velocity": 118,
      "chip": "ym2612"
    },
    {
      "channel": 0,
      "note": 69,
      "start": 31.5937,
      "duration": 0.0707,
      "velocity": 127,
      "chip": "ym2612"
    },
    {
      "channel": 2,
      "note": 39,
      "start": 31.7175,
      "duration": 0.0973,
      "velocity": 119,
      "chip": "ym2612"
    },
    {
      "channel": 3,
      "note": 57,
      "start": 31.8348,
      "duration": 0.0965,
      "velocity": 113,
      "chip": "ym2612"
    },
    {
      "channel": 0,
      "note": 45,
      "start": 31.8374,
      "duration": 0.0937,
      "velocity": 118,
      "chip": "ym2612"
    },
    {
      "channel": 2,
      "note": 39,
      "start": 31.8398,
      "duration": 0.0038,
      "velocity": 119,
      "chip": "ym2612"
    },
    {
      "channel": 4,
      "note": 50,
      "start": 31.8425,
      "duration": 0.3887,
      "velocity": 106,
      "chip": "ym2612"
    },
    {
      "channel": 2,
      "note": 69,
      "start": 31.8457,
      "duration": 0.069,
      "velocity": 127,
      "chip": "ym2612"
    },
    {
      "channel": 2,
      "note": 39,
      "start": 31.9676,
      "duration": 0.0971,
      "velocity": 119,
      "chip": "ym2612"
    },
    {
      "channel": 1,
      "note": 69,
      "start": 31.9709,
      "duration": 0.077,
      "velocity": 127,
      "chip": "ym2612"
    },
    {
      "channel": 3,
      "note": 57,
      "start": 32.0848,
      "duration": 0.0799,
      "velocity": 113,
      "chip": "ym2612"
    },
    {
      "channel": 2,
      "note": 39,
      "start": 32.0872,
      "duration": 0.0942,
      "velocity": 119,
      "chip": "ym2612"
    },
    {
      "channel": 1,
      "note": 66,
      "start": 32.0909,
      "duration": 0.0737,
      "velocity": 127,
      "chip": "ym2612"
    },
    {
      "channel": 2,
      "note": 39,
      "start": 32.2176,
      "duration": 0.0971,
      "velocity": 119,
      "chip": "ym2612"
    },
    {
      "channel": 3,
      "note": 57,
      "start": 32.3343,
      "duration": 0.0804,
      "velocity": 113,
      "chip": "ym2612"
    },
    {
      "channel": 0,
      "note": 45,
      "start": 32.3367,
      "duration": 0.1112,
      "velocity": 118,
      "chip": "ym2612"
    },
    {
      "channel": 2,
      "note": 39,
      "start": 32.339,
      "duration": 0.1092,
      "velocity": 119,
      "chip": "ym2612"
    },
    {
      "channel": 4,
      "note": 50,
      "start": 32.3426,
      "duration": 0.3888,
      "velocity": 106,
      "chip": "ym2612"
    },
    {
      "channel": 1,
      "note": 66,
      "start": 32.3455,
      "duration": 0.0691,
      "velocity": 127,
      "chip": "ym2612"
    },
    {
      "channel": 2,
      "note": 39,
      "start": 32.4675,
      "duration": 0.0973,
      "velocity": 119,
      "chip": "ym2612"
    },
    {
      "channel": 1,
      "note": 66,
      "start": 32.4707,
      "duration": 0.0772,
      "velocity": 127,
      "chip": "ym2612"
    },
    {
      "channel": 3,
      "note": 57,
      "start": 32.5845,
      "duration": 0.2134,
      "velocity": 113,
      "chip": "ym2612"
    },
    {
      "channel": 2,
      "note": 39,
      "start": 32.5869,
      "duration": 0.1111,
      "velocity": 119,
      "chip": "ym2612"
    },
    {
      "channel": 1,
      "note": 62,
      "start": 32.5902,
      "duration": 0.0744,
      "velocity": 127,
      "chip": "ym2612"
    },
    {
      "channel": 2,
      "note": 39,
      "start": 32.7175,
      "duration": 0.0975,
      "velocity": 119,
      "chip": "ym2612"
    },
    {
      "channel": 3,
      "note": 50,
      "start": 32.8345,
      "duration": 0.1301,
      "velocity": 113,
      "chip": "ym2612"
    },
    {
      "channel": 0,
      "note": 45,
      "start": 32.8368,
      "duration": 0.111,
      "velocity": 118,
      "chip": "ym2612"
    },
    {
      "channel": 2,
      "note": 39,
      "start": 32.8392,
      "duration": 0.109,
      "velocity": 119,
      "chip": "ym2612"
    },
    {
      "channel": 5,
      "note": 66,
      "start": 32.8424,
      "duration": 0.1223,
      "velocity": 118,
      "chip": "ym2612"
    },
    {
      "channel": 4,
      "note": 50,
      "start": 32.846,
      "duration": 0.3853,
      "velocity": 106,
      "chip": "ym2612"
    },
    {
      "channel": 1,
      "note": 62,
      "start": 32.849,
      "duration": 0.0655,
      "velocity": 127,
      "chip": "ym2612"
    },
    {
      "channel": 2,
      "note": 39,
      "start": 32.968,
      "duration": 0.0967,
      "velocity": 119,
      "chip": "ym2612"
    },
    {
      "channel": 3,
      "note": 50,
      "start": 33.0844,
      "duration": 0.0801,
      "velocity": 113,
      "chip": "ym2612"
    },
    {
      "channel": 2,
      "note": 39,
      "start": 33.0868,
      "duration": 0.1112,
      "velocity": 119,
      "chip": "ym2612"
    },
    {
      "channel": 5,
      "note": 66,
      "start": 33.09,
      "duration": 0.2246,
      "velocity": 118,
      "chip": "ym2612"
    },
    {
      "channel": 2,
      "note": 39,
      "start": 33.2174,
      "duration": 0.0973,
      "velocity": 119,
      "chip": "ym2612"
    },
    {
      "channel": 3,
      "note": 50,
      "start": 33.3344,
      "duration": 0.0802,
      "velocity": 113,
      "chip": "ym2612"
    },
    {
      "channel": 0,
      "note": 45,
      "start": 33.3368,
      "duration": 0.1111,
      "velocity": 118,
      "chip": "ym2612"
    },
    {
      "channel": 2,
      "note": 39,
      "start": 33.339,
      "duration": 0.1092,
      "velocity": 119,
      "chip": "ym2612"
    },
    {
      "channel": 5,
      "note": 69,
      "start": 33.3429,
      "duration": 0.2218,
      "velocity": 118,
      "chip": "ym2612"
    },
    {
      "channel": 4,
      "note": 50,
      "start": 33.3454,
      "duration": 0.386,
      "velocity": 106,
      "chip": "ym2612"
    },
    {
      "channel": 2,
      "note": 39,
      "start": 33.4675,
      "duration": 0.0973,
      "velocity": 119,
      "chip": "ym2612"
    },
    {
      "channel": 3,
      "note": 50,
      "start": 33.6011,
      "duration": 0.0803,
      "velocity": 113,
      "chip": "ym2612"
    },
    {
      "channel": 2,
      "note": 39,
      "start": 33.6035,
      "duration": 0.0946,
      "velocity": 119,
      "chip": "ym2612"
    },
    {
      "channel": 5,
      "note": 76,
      "start": 33.6068,
      "duration": 1.2246,
      "velocity": 118,
      "chip": "ym2612"
    },
    {
      "channel": 2,
      "note": 39,
      "start": 33.7175,
      "duration": 0.0973,
      "velocity": 119,
      "chip": "ym2612"
    },
    {
      "channel": 3,
      "note": 50,
      "start": 33.8511,
      "duration": 0.0802,
      "velocity": 113,
      "chip": "ym2612"
    },
    {
      "channel": 0,
      "note": 45,
      "start": 33.8535,
      "duration": 0.0943,
      "velocity": 118,
      "chip": "ym2612"
    },
    {
      "channel": 2,
      "note": 39,
      "start": 33.8558,
      "duration": 0.0923,
      "velocity": 119,
      "chip": "ym2612"
    },
    {
      "channel": 4,
      "note": 50,
      "start": 33.8588,
      "duration": 0.3725,
      "velocity": 106,
      "chip": "ym2612"
    },
    {
      "channel": 2,
      "note": 39,
      "start": 33.9675,
      "duration": 0.0972,
      "velocity": 119,
      "chip": "ym2612"
    },
    {
      "channel": 3,
      "note": 50,
      "start": 34.1011,
      "duration": 0.0802,
      "velocity": 113,
      "chip": "ym2612"
    },
    {
      "channel": 2,
      "note": 39,
      "start": 34.1035,
      "duration": 0.0945,
      "velocity": 119,
      "chip": "ym2612"
    },
    {
      "channel": 2,
      "note": 39,
      "start": 34.2175,
      "duration": 0.0971,
      "velocity": 119,
      "chip": "ym2612"
    },
    {
      "channel": 3,
      "note": 50,
      "start": 34.3511,
      "duration": 0.0969,
      "velocity": 113,
      "chip": "ym2612"
    },
    {
      "channel": 0,
      "note": 45,
      "start": 34.3534,
      "duration": 0.0944,
      "velocity": 118,
      "chip": "ym2612"
    },
    {
      "channel": 2,
      "note": 39,
      "start": 34.3557,
      "duration": 0.0925,
      "velocity": 119,
      "chip": "ym2612"
    },
    {
      "channel": 4,
      "note": 50,
      "start": 34.3598,
      "duration": 0.3882,
      "velocity": 106,
      "chip": "ym2612"
    },
    {
      "channel": 2,
      "note": 39,
      "start": 34.4676,
      "duration": 0.1139,
      "velocity": 119,
      "chip": "ym2612"
    },
    {
      "channel": 3,
      "note": 50,
      "start": 34.6012,
      "duration": 0.0801,
      "velocity": 113,
      "chip": "ym2612"
    },
    {
      "channel": 2,
      "note": 39,
      "start": 34.6036,
      "duration": 0.0945,
      "velocity": 119,
      "chip": "ym2612"
    },
    {
      "channel": 2,
      "note": 39,
      "start": 34.7176,
      "duration": 0.114,
      "velocity": 119,
      "chip": "ym2612"
    },
    {
      "channel": 3,
      "note": 50,
      "start": 34.8516,
      "duration": 0.0963,
      "velocity": 113,
      "chip": "ym2612"
    },
    {
      "channel": 0,
      "note": 45,
      "start": 34.8539,
      "duration": 0.0938,
      "velocity": 118,
      "chip": "ym2612"
    },
    {
      "channel": 2,
      "note": 39,
      "start": 34.8563,
      "duration": 0.0919,
      "velocity": 119,
      "chip": "ym2612"
    },
    {
      "channel": 5,
      "note": 75,
      "start": 34.8595,
      "duration": 0.7218,
      "velocity": 118,
      "chip": "ym2612"
    },
    {
      "channel": 4,
      "note": 50,
      "start": 34.8623,
      "duration": 0.3856,
      "velocity": 106,
      "chip": "ym2612"
    },
    {
      "channel": 2,
      "note": 39,
      "start": 34.9678,
      "duration": 0.1135,
      "velocity": 119,
      "chip": "ym2612"
    },
    {
      "channel": 3,
      "note": 50,
      "start": 35.1011,
      "duration": 0.0802,
      "velocity": 113,
      "chip": "ym2612"
    },
    {
      "channel": 2,
      "note": 39,
      "start": 35.1035,
      "duration": 0.0945,
      "velocity": 119,
      "chip": "ym2612"
    },
    {
      "channel": 2,
      "note": 39,
      "start": 35.2174,
      "duration": 0.114,
      "velocity": 119,
      "chip": "ym2612"
    },
    {
      "channel": 3,
      "note": 50,
      "start": 35.3511,
      "duration": 0.0969,
      "velocity": 113,
      "chip": "ym2612"
    },
    {
      "channel": 0,
      "note": 45,
      "start": 35.3534,
      "duration": 0.0943,
      "velocity": 118,
      "chip": "ym2612"
    },
    {
      "channel": 2,
      "note": 39,
      "start": 35.3557,
      "duration": 0.0925,
      "velocity": 119,
      "chip": "ym2612"
    },
    {
      "channel": 4,
      "note": 50,
      "start": 35.3593,
      "duration": 0.3887,
      "velocity": 106,
      "chip": "ym2612"
    },
    {
      "channel": 2,
      "note": 39,
      "start": 35.4675,
      "duration": 0.114,
      "velocity": 119,
      "chip": "ym2612"
    },
    {
      "channel": 3,
      "note": 50,
      "start": 35.6011,
      "duration": 0.0801,
      "velocity": 113,
      "chip": "ym2612"
    },
    {
      "channel": 2,
      "note": 39,
      "start": 35.6035,
      "duration": 0.0946,
      "velocity": 119,
      "chip": "ym2612"
    },
    {
      "channel": 5,
      "note": 74,
      "start": 35.6072,
      "duration": 1.1936,
      "velocity": 118,
      "chip": "ym2612"
    },
    {
      "channel": 2,
      "note": 39,
      "start": 35.7343,
      "duration": 0.0972,
      "velocity": 119,
      "chip": "ym2612"
    },
    {
      "channel": 3,
      "note": 50,
      "start": 35.8512,
      "duration": 0.0967,
      "velocity": 113,
      "chip": "ym2612"
    },
    {
      "channel": 0,
      "note": 45,
      "start": 35.8535,
      "duration": 0.0942,
      "velocity": 118,
      "chip": "ym2612"
    },
    {
      "channel": 2,
      "note": 39,
      "start": 35.8558,
      "duration": 0.0923,
      "velocity": 119,
      "chip": "ym2612"
    },
    {
      "channel": 4,
      "note": 50,
      "start": 35.8587,
      "duration": 0.3892,
      "velocity": 106,
      "chip": "ym2612"
    },
    {
      "channel": 1,
      "note": 69,
      "start": 35.8615,
      "duration": 0.0697,
      "velocity": 127,
      "chip": "ym2612"
    },
    {
      "channel": 2,
      "note": 39,
      "start": 35.9841,
      "duration": 0.0972,
      "velocity": 119,
      "chip": "ym2612"
    },
    {
      "channel": 1,
      "note": 69,
      "start": 35.9873,
      "duration": 0.0773,
      "velocity": 127,
      "chip": "ym2612"
    },
    {
      "channel": 3,
      "note": 50,
      "start": 36.1009,
      "duration": 0.097,
      "velocity": 113,
      "chip": "ym2612"
    },
    {
      "channel": 2,
      "note": 39,
      "start": 36.1034,
      "duration": 0.0949,
      "velocity": 119,
      "chip": "ym2612"
    },
    {
      "channel": 1,
      "note": 66,
      "start": 36.1065,
      "duration": 0.0747,
      "velocity": 127,
      "chip": "ym2612"
    },
    {
      "channel": 2,
      "note": 39,
      "start": 36.2341,
      "duration": 0.0973,
      "velocity": 119,
      "chip": "ym2612"
    },
    {
      "channel": 1,
      "note": 66,
      "start": 36.2373,
      "duration": 0.0772,
      "velocity": 127,
      "chip": "ym2612"
    },
    {
      "channel": 3,
      "note": 50,
      "start": 36.3511,
      "duration": 0.0802,
      "velocity": 113,
      "chip": "ym2612"
    },
    {
      "channel": 0,
      "note": 45,
      "start": 36.3535,
      "duration": 0.0943,
      "velocity": 118,
      "chip": "ym2612"
    },
    {
      "channel": 2,
      "note": 39,
      "start": 36.3558,
      "duration": 0.0923,
      "velocity": 119,
      "chip": "ym2612"
    },
    {
      "channel": 4,
      "note": 50,
      "start": 36.3597,
      "duration": 0.3883,
      "velocity": 106,
      "chip": "ym2612"
    },
    {
      "channel": 1,
      "note": 66,
      "start": 36.3623,
      "duration": 0.0688,
      "velocity": 127,
      "chip": "ym2612"
    },
    {
      "channel": 2,
      "note": 39,
      "start": 36.4842,
      "duration": 0.0972,
      "velocity": 119,
      "chip": "ym2612"
    },
    {
      "channel": 1,
      "note": 66,
      "start": 36.4876,
      "duration": 0.0769,
      "velocity": 127,
      "chip": "ym2612"
    },
    {
      "channel": 3,
      "note": 50,
      "start": 36.6012,
      "duration": 0.2195,
      "velocity": 113,
      "chip": "ym2612"
    },
    {
      "channel": 2,
      "note": 39,
      "start": 36.6037,
      "duration": 0.1111,
      "velocity": 119,
      "chip": "ym2612"
    },
    {
      "channel": 1,
      "note": 62,
      "start": 36.6069,
      "duration": 0.0744,
      "velocity": 127,
      "chip": "ym2612"
    },
    {
      "channel": 2,
      "note": 39,
      "start": 36.7341,
      "duration": 0.0813,
      "velocity": 119,
      "chip": "ym2612"
    },
    {
      "channel": 3,
      "note": 54,
      "start": 36.824,
      "duration": 0.0334,
      "velocity": 113,
      "chip": "ym2612"
    },
    {
      "channel": 0,
      "note": 45,
      "start": 36.8261,
      "duration": 0.0432,
      "velocity": 118,
      "chip": "ym2612"
    },
    {
      "channel": 2,
      "note": 39,
      "start": 36.8283,
      "duration": 0.0079,
      "velocity": 119,
      "chip": "ym2612"
    },
    {
      "channel": 1,
      "note": 66,
      "start": 36.8327,
      "duration": 0.0427,
      "velocity": 118,
      "chip": "ym2612"
    },
    {
      "channel": 4,
      "note": 54,
      "start": 36.8352,
      "duration": 0.1437,
      "velocity": 106,
      "chip": "ym2612"
    },
    {
      "channel": 2,
      "note": 62,
      "start": 36.8384,
      "duration": 0.0191,
      "velocity": 127,
      "chip": "ym2612"
    },
    {
      "channel": 3,
      "note": 54,
      "start": 36.8794,
      "duration": 0.0223,
      "velocity": 113,
      "chip": "ym2612"
    },
    {
      "channel": 2,
      "note": 39,
      "start": 36.882,
      "duration": 0.0319,
      "velocity": 119,
      "chip": "ym2612"
    },
    {
      "channel": 3,
      "note": 54,
      "start": 36.9235,
      "duration": 0.0553,
      "velocity": 113,
      "chip": "ym2612"
    },
    {
      "channel": 2,
      "note": 39,
      "start": 36.9258,
      "duration": 0.0392,
      "velocity": 119,
      "chip": "ym2612"
    },
    {
      "channel": 1,
      "note": 66,
      "start": 36.9285,
      "duration": 0.0808,
      "velocity": 118,
      "chip": "ym2612"
    },
    {
      "channel": 0,
      "note": 57,
      "start": 36.9738,
      "duration": 0.0414,
      "velocity": 113,
      "chip": "ym2612"
    },
    {
      "channel": 2,
      "note": 39,
      "start": 36.977,
      "duration": 0.0325,
      "velocity": 119,
      "chip": "ym2612"
    },
    {
      "channel": 3,
      "note": 45,
      "start": 37.0184,
      "duration": 0.0418,
      "velocity": 118,
      "chip": "ym2612"
    },
    {
      "channel": 2,
      "note": 39,
      "start": 37.0206,
      "duration": 0.0398,
      "velocity": 119,
      "chip": "ym2612"
    },
    {
      "channel": 1,
      "note": 69,
      "start": 37.025,
      "duration": 0.08,
      "velocity": 118,
      "chip": "ym2612"
    },
    {
      "channel": 0,
      "note": 57,
      "start": 37.0688,
      "duration": 0.0416,
      "velocity": 113,
      "chip": "ym2612"
    },
    {
      "channel": 2,
      "note": 39,
      "start": 37.0711,
      "duration": 0.0342,
      "velocity": 119,
      "chip": "ym2612"
    },
    {
      "channel": 0,
      "note": 59,
      "start": 37.1133,
      "duration": 0.0572,
      "velocity": 113,
      "chip": "ym2612"
    },
    {
      "channel": 2,
      "note": 39,
      "start": 37.1156,
      "duration": 0.0404,
      "velocity": 119,
      "chip": "ym2612"
    },
    {
      "channel": 1,
      "note": 76,
      "start": 37.1184,
      "duration": 0.6089,
      "velocity": 118,
      "chip": "ym2612"
    },
    {
      "channel": 2,
      "note": 39,
      "start": 37.1735,
      "duration": 0.0806,
      "velocity": 119,
      "chip": "ym2612"
    },
    {
      "channel": 3,
      "note": 45,
      "start": 37.2687,
      "duration": 0.0354,
      "velocity": 118,
      "chip": "ym2612"
    },
    {
      "channel": 2,
      "note": 39,
      "start": 37.2709,
      "duration": 0.0333,
      "velocity": 119,
      "chip": "ym2612"
    },
    {
      "channel": 0,
      "note": 59,
      "start": 37.3129,
      "duration": 0.0469,
      "velocity": 113,
      "chip": "ym2612"
    },
    {
      "channel": 2,
      "note": 39,
      "start": 37.3151,
      "duration": 0.034,
      "velocity": 119,
      "chip": "ym2612"
    },
    {
      "channel": 0,
      "note": 61,
      "start": 37.3631,
      "duration": 0.0285,
      "velocity": 113,
      "chip": "ym2612"
    },
    {
      "channel": 2,
      "note": 39,
      "start": 37.3653,
      "duration": 0.0334,
      "velocity": 119,
      "chip": "ym2612"
    },
    {
      "channel": 2,
      "note": 39,
      "start": 37.4065,
      "duration": 0.0359,
      "velocity": 119,
      "chip": "ym2612"
    },
    {
      "channel": 0,
      "note": 64,
      "start": 37.456,
      "duration": 0.0761,
      "velocity": 113,
      "chip": "ym2612"
    },
    {
      "channel": 3,
      "note": 45,
      "start": 37.4584,
      "duration": 0.0355,
      "velocity": 118,
      "chip": "ym2612"
    },
    {
      "channel": 2,
      "note": 39,
      "start": 37.4606,
      "duration": 0.0335,
      "velocity": 119,
      "chip": "ym2612"
    },
    {
      "channel": 4,
      "note": 69,
      "start": 37.4656,
      "duration": 0.0223,
      "velocity": 127,
      "chip": "ym2612"
    },
    {
      "channel": 2,
      "note": 39,
      "start": 37.5036,
      "duration": 0.0346,
      "velocity": 119,
      "chip": "ym2612"
    },
    {
      "channel": 4,
      "note": 69,
      "start": 37.5065,
      "duration": 0.0257,
      "velocity": 127,
      "chip": "ym2612"
    },
    {
      "channel": 0,
      "note": 66,
      "start": 37.5537,
      "duration": 0.0401,
      "velocity": 113,
      "chip": "ym2612"
    },
    {
      "channel": 2,
      "note": 39,
      "start": 37.5559,
      "duration": 0.0382,
      "velocity": 119,
      "chip": "ym2612"
    },
    {
      "channel": 3,
      "note": 52,
      "start": 37.5589,
      "duration": 0.2019,
      "velocity": 106,
      "chip": "ym2612"
    },
    {
      "channel": 4,
      "note": 69,
      "start": 37.5617,
      "duration": 0.0227,
      "velocity": 127,
      "chip": "ym2612"
    },
    {
      "channel": 2,
      "note": 39,
      "start": 37.6137,
      "duration": 0.1139,
      "velocity": 119,
      "chip": "ym2612"
    },
    {
      "channel": 4,
      "note": 69,
      "start": 37.6169,
      "duration": 0.0772,
      "velocity": 127,
      "chip": "ym2612"
    },
    {
      "channel": 0,
      "note": 54,
      "start": 37.7472,
      "duration": 0.0967,
      "velocity": 113,
      "chip": "ym2612"
    },
    {
      "channel": 5,
      "note": 45,
      "start": 37.75,
      "duration": 0.0942,
      "velocity": 118,
      "chip": "ym2612"
    },
    {
      "channel": 1,
      "note": 78,
      "start": 37.7533,
      "duration": 0.2739,
      "velocity": 118,
      "chip": "ym2612"
    },
    {
      "channel": 4,
      "note": 54,
      "start": 37.7562,
      "duration": 0.2712,
      "velocity": 106,
      "chip": "ym2612"
    },
    {
      "channel": 2,
      "note": 66,
      "start": 37.7593,
      "duration": 0.0682,
      "velocity": 127,
      "chip": "ym2612"
    }
  ]
}