{
  "track_name": "01 - Close to the Edge",
  "duration_sec": 59.863,
  "sample_rate": 44100,
  "note_count": 316,
  "unique_pitches": 24,
  "pitch_range": 41,
  "avg_note_duration": 0.6478,
  "reconstruction_stats": {
    "notes_reconstructed": 316,
    "keyon_events": 316,
    "keyoff_events": 316,
    "orphan_keyons": 0,
    "unique_pitches": 24,
    "pitch_range": 41,
    "avg_duration_sec": 0.6478
  },
  "metadata": {
    "source": "J\\Jewel Master\\01 - Close to the Edge.vgz"
  },
  "notes": [
    {
      "channel": 0,
      "note": 54,
      "start": 0.0,
      "duration": 3.5354,
      "velocity": 92,
      "chip": "ym2612"
    },
    {
      "channel": 2,
      "note": 66,
      "start": 0.0079,
      "duration": 0.5305,
      "velocity": 78,
      "chip": "ym2612"
    },
    {
      "channel": 1,
      "note": 69,
      "start": 0.5883,
      "duration": 0.5494,
      "velocity": 86,
      "chip": "ym2612"
    },
    {
      "channel": 2,
      "note": 78,
      "start": 0.5888,
      "duration": 0.2493,
      "velocity": 78,
      "chip": "ym2612"
    },
    {
      "channel": 3,
      "note": 69,
      "start": 0.5894,
      "duration": 0.5488,
      "velocity": 86,
      "chip": "ym2612"
    },
    {
      "channel": 2,
      "note": 85,
      "start": 0.8883,
      "duration": 0.2497,
      "velocity": 78,
      "chip": "ym2612"
    },
    {
      "channel": 1,
      "note": 71,
      "start": 1.1878,
      "duration": 0.5494,
      "velocity": 86,
      "chip": "ym2612"
    },
    {
      "channel": 2,
      "note": 83,
      "start": 1.1883,
      "duration": 0.2494,
      "velocity": 78,
      "chip": "ym2612"
    },
    {
      "channel": 3,
      "note": 66,
      "start": 1.189,
      "duration": 0.5488,
      "velocity": 86,
      "chip": "ym2612"
    },
    {
      "channel": 2,
      "note": 88,
      "start": 1.4878,
      "duration": 0.2497,
      "velocity": 78,
      "chip": "ym2612"
    },
    {
      "channel": 1,
      "note": 73,
      "start": 1.7874,
      "duration": 0.5493,
      "velocity": 86,
      "chip": "ym2612"
    },
    {
      "channel": 2,
      "note": 85,
      "start": 1.7879,
      "duration": 0.2492,
      "velocity": 78,
      "chip": "ym2612"
    },
    {
      "channel": 3,
      "note": 68,
      "start": 1.7885,
      "duration": 0.5488,
      "velocity": 86,
      "chip": "ym2612"
    },
    {
      "channel": 2,
      "note": 92,
      "start": 2.0873,
      "duration": 0.2497,
      "velocity": 78,
      "chip": "ym2612"
    },
    {
      "channel": 1,
      "note": 74,
      "start": 2.3868,
      "duration": 0.5494,
      "velocity": 86,
      "chip": "ym2612"
    },
    {
      "channel": 2,
      "note": 90,
      "start": 2.3873,
      "duration": 0.2493,
      "velocity": 78,
      "chip": "ym2612"
    },
    {
      "channel": 3,
      "note": 69,
      "start": 2.3879,
      "duration": 0.5489,
      "velocity": 86,
      "chip": "ym2612"
    },
    {
      "channel": 2,
      "note": 83,
      "start": 2.6868,
      "duration": 0.2497,
      "velocity": 78,
      "chip": "ym2612"
    },
    {
      "channel": 1,
      "note": 73,
      "start": 2.9863,
      "duration": 0.5494,
      "velocity": 86,
      "chip": "ym2612"
    },
    {
      "channel": 2,
      "note": 85,
      "start": 2.9868,
      "duration": 0.2494,
      "velocity": 78,
      "chip": "ym2612"
    },
    {
      "channel": 3,
      "note": 71,
      "start": 2.9874,
      "duration": 0.5489,
      "velocity": 86,
      "chip": "ym2612"
    },
    {
      "channel": 2,
      "note": 76,
      "start": 3.2863,
      "duration": 0.2497,
      "velocity": 78,
      "chip": "ym2612"
    },
    {
      "channel": 0,
      "note": 54,
      "start": 3.5857,
      "duration": 3.5467,
      "velocity": 92,
      "chip": "ym2612"
    },
    {
      "channel": 2,
      "note": 66,
      "start": 3.5868,
      "duration": 0.5486,
      "velocity": 78,
      "chip": "ym2612"
    },
    {
      "channel": 1,
      "note": 69,
      "start": 4.1853,
      "duration": 0.5494,
      "velocity": 86,
      "chip": "ym2612"
    },
    {
      "channel": 2,
      "note": 78,
      "start": 4.1858,
      "duration": 0.2494,
      "velocity": 78,
      "chip": "ym2612"
    },
    {
      "channel": 3,
      "note": 69,
      "start": 4.1863,
      "duration": 0.5489,
      "velocity": 86,
      "chip": "ym2612"
    },
    {
      "channel": 2,
      "note": 85,
      "start": 4.4853,
      "duration": 0.2497,
      "velocity": 78,
      "chip": "ym2612"
    },
    {
      "channel": 1,
      "note": 71,
      "start": 4.7848,
      "duration": 0.5494,
      "velocity": 86,
      "chip": "ym2612"
    },
    {
      "channel": 2,
      "note": 83,
      "start": 4.7853,
      "duration": 0.2494,
      "velocity": 78,
      "chip": "ym2612"
    },
    {
      "channel": 3,
      "note": 66,
      "start": 4.7859,
      "duration": 0.5488,
      "velocity": 86,
      "chip": "ym2612"
    },
    {
      "channel": 2,
      "note": 88,
      "start": 5.0848,
      "duration": 0.2496,
      "velocity": 78,
      "chip": "ym2612"
    },
    {
      "channel": 1,
      "note": 73,
      "start": 5.3843,
      "duration": 0.5494,
      "velocity": 86,
      "chip": "ym2612"
    },
    {
      "channel": 2,
      "note": 85,
      "start": 5.3848,
      "duration": 0.2494,
      "velocity": 78,
      "chip": "ym2612"
    },
    {
      "channel": 3,
      "note": 68,
      "start": 5.3855,
      "duration": 0.5488,
      "velocity": 86,
      "chip": "ym2612"
    },
    {
      "channel": 2,
      "note": 92,
      "start": 5.6843,
      "duration": 0.2497,
      "velocity": 78,
      "chip": "ym2612"
    },
    {
      "channel": 1,
      "note": 74,
      "start": 5.9839,
      "duration": 0.5494,
      "velocity": 86,
      "chip": "ym2612"
    },
    {
      "channel": 2,
      "note": 90,
      "start": 5.9844,
      "duration": 0.2493,
      "velocity": 78,
      "chip": "ym2612"
    },
    {
      "channel": 3,
      "note": 69,
      "start": 5.985,
      "duration": 0.5488,
      "velocity": 86,
      "chip": "ym2612"
    },
    {
      "channel": 2,
      "note": 83,
      "start": 6.2838,
      "duration": 0.2497,
      "velocity": 78,
      "chip": "ym2612"
    },
    {
      "channel": 1,
      "note": 73,
      "start": 6.5834,
      "duration": 0.5494,
      "velocity": 86,
      "chip": "ym2612"
    },
    {
      "channel": 2,
      "note": 85,
      "start": 6.5839,
      "duration": 0.2492,
      "velocity": 78,
      "chip": "ym2612"
    },
    {
      "channel": 3,
      "note": 71,
      "start": 6.5844,
      "duration": 0.5489,
      "velocity": 86,
      "chip": "ym2612"
    },
    {
      "channel": 2,
      "note": 76,
      "start": 6.8833,
      "duration": 0.2497,
      "velocity": 78,
      "chip": "ym2612"
    },
    {
      "channel": 0,
      "note": 54,
      "start": 7.1829,
      "duration": 3.5466,
      "velocity": 92,
      "chip": "ym2612"
    },
    {
      "channel": 2,
      "note": 80,
      "start": 7.1858,
      "duration": 0.2468,
      "velocity": 78,
      "chip": "ym2612"
    },
    {
      "channel": 2,
      "note": 81,
      "start": 7.4827,
      "duration": 0.2497,
      "velocity": 78,
      "chip": "ym2612"
    },
    {
      "channel": 1,
      "note": 76,
      "start": 7.7855,
      "duration": 0.5461,
      "velocity": 83,
      "chip": "ym2612"
    },
    {
      "channel": 2,
      "note": 80,
      "start": 7.786,
      "duration": 0.2461,
      "velocity": 78,
      "chip": "ym2612"
    },
    {
      "channel": 3,
      "note": 69,
      "start": 7.7867,
      "duration": 0.5456,
      "velocity": 86,
      "chip": "ym2612"
    },
    {
      "channel": 2,
      "note": 83,
      "start": 8.0823,
      "duration": 0.2497,
      "velocity": 78,
      "chip": "ym2612"
    },
    {
      "channel": 1,
      "note": 71,
      "start": 8.3818,
      "duration": 0.5494,
      "velocity": 83,
      "chip": "ym2612"
    },
    {
      "channel": 2,
      "note": 76,
      "start": 8.3824,
      "duration": 0.2494,
      "velocity": 78,
      "chip": "ym2612"
    },
    {
      "channel": 3,
      "note": 66,
      "start": 8.383,
      "duration": 0.5488,
      "velocity": 86,
      "chip": "ym2612"
    },
    {
      "channel": 2,
      "note": 78,
      "start": 8.6818,
      "duration": 0.2496,
      "velocity": 78,
      "chip": "ym2612"
    },
    {
      "channel": 1,
      "note": 73,
      "start": 8.9814,
      "duration": 0.5493,
      "velocity": 83,
      "chip": "ym2612"
    },
    {
      "channel": 2,
      "note": 73,
      "start": 8.9819,
      "duration": 0.2492,
      "velocity": 78,
      "chip": "ym2612"
    },
    {
      "channel": 3,
      "note": 68,
      "start": 8.9825,
      "duration": 0.5488,
      "velocity": 86,
      "chip": "ym2612"
    },
    {
      "channel": 2,
      "note": 80,
      "start": 9.2813,
      "duration": 0.2497,
      "velocity": 78,
      "chip": "ym2612"
    },
    {
      "channel": 1,
      "note": 68,
      "start": 9.5808,
      "duration": 0.5494,
      "velocity": 83,
      "chip": "ym2612"
    },
    {
      "channel": 2,
      "note": 78,
      "start": 9.5813,
      "duration": 0.2493,
      "velocity": 78,
      "chip": "ym2612"
    },
    {
      "channel": 3,
      "note": 69,
      "start": 9.5819,
      "duration": 0.5489,
      "velocity": 86,
      "chip": "ym2612"
    },
    {
      "channel": 2,
      "note": 81,
      "start": 9.8808,
      "duration": 0.2497,
      "velocity": 78,
      "chip": "ym2612"
    },
    {
      "channel": 1,
      "note": 71,
      "start": 10.1803,
      "duration": 0.5494,
      "velocity": 83,
      "chip": "ym2612"
    },
    {
      "channel": 2,
      "note": 76,
      "start": 10.1808,
      "duration": 0.2494,
      "velocity": 78,
      "chip": "ym2612"
    },
    {
      "channel": 3,
      "note": 71,
      "start": 10.1815,
      "duration": 0.5489,
      "velocity": 86,
      "chip": "ym2612"
    },
    {
      "channel": 2,
      "note": 78,
      "start": 10.4803,
      "duration": 0.2497,
      "velocity": 78,
      "chip": "ym2612"
    },
    {
      "channel": 0,
      "note": 55,
      "start": 10.7795,
      "duration": 3.5469,
      "velocity": 92,
      "chip": "ym2612"
    },
    {
      "channel": 1,
      "note": 69,
      "start": 10.7801,
      "duration": 1.1487,
      "velocity": 83,
      "chip": "ym2612"
    },
    {
      "channel": 2,
      "note": 76,
      "start": 10.7806,
      "duration": 0.2492,
      "velocity": 78,
      "chip": "ym2612"
    },
    {
      "channel": 2,
      "note": 78,
      "start": 11.08,
      "duration": 0.2496,
      "velocity": 78,
      "chip": "ym2612"
    },
    {
      "channel": 2,
      "note": 71,
      "start": 11.3798,
      "duration": 0.2497,
      "velocity": 78,
      "chip": "ym2612"
    },
    {
      "channel": 3,
      "note": 73,
      "start": 11.3803,
      "duration": 0.5492,
      "velocity": 86,
      "chip": "ym2612"
    },
    {
      "channel": 2,
      "note": 76,
      "start": 11.6795,
      "duration": 0.2497,
      "velocity": 78,
      "chip": "ym2612"
    },
    {
      "channel": 1,
      "note": 64,
      "start": 11.9791,
      "duration": 0.5491,
      "velocity": 83,
      "chip": "ym2612"
    },
    {
      "channel": 2,
      "note": 78,
      "start": 11.9796,
      "duration": 0.2491,
      "velocity": 78,
      "chip": "ym2612"
    },
    {
      "channel": 3,
      "note": 66,
      "start": 11.9802,
      "duration": 0.5485,
      "velocity": 86,
      "chip": "ym2612"
    },
    {
      "channel": 2,
      "note": 71,
      "start": 12.2788,
      "duration": 0.2496,
      "velocity": 78,
      "chip": "ym2612"
    },
    {
      "channel": 1,
      "note": 62,
      "start": 12.5783,
      "duration": 1.1489,
      "velocity": 83,
      "chip": "ym2612"
    },
    {
      "channel": 2,
      "note": 81,
      "start": 12.5791,
      "duration": 0.2491,
      "velocity": 78,
      "chip": "ym2612"
    },
    {
      "channel": 3,
      "note": 67,
      "start": 12.5797,
      "duration": 0.5485,
      "velocity": 86,
      "chip": "ym2612"
    },
    {
      "channel": 2,
      "note": 83,
      "start": 12.8783,
      "duration": 0.2495,
      "velocity": 78,
      "chip": "ym2612"
    },
    {
      "channel": 2,
      "note": 76,
      "start": 13.1781,
      "duration": 0.2496,
      "velocity": 78,
      "chip": "ym2612"
    },
    {
      "channel": 3,
      "note": 69,
      "start": 13.1787,
      "duration": 0.5492,
      "velocity": 86,
      "chip": "ym2612"
    },
    {
      "channel": 2,
      "note": 81,
      "start": 13.4778,
      "duration": 0.2498,
      "velocity": 78,
      "chip": "ym2612"
    },
    {
      "channel": 1,
      "note": 62,
      "start": 13.7773,
      "duration": 1.1488,
      "velocity": 83,
      "chip": "ym2612"
    },
    {
      "channel": 2,
      "note": 83,
      "start": 13.7778,
      "duration": 0.2493,
      "velocity": 78,
      "chip": "ym2612"
    },
    {
      "channel": 3,
      "note": 73,
      "start": 13.7785,
      "duration": 0.5488,
      "velocity": 86,
      "chip": "ym2612"
    },
    {
      "channel": 2,
      "note": 76,
      "start": 14.0773,
      "duration": 0.2496,
      "velocity": 78,
      "chip": "ym2612"
    },
    {
      "channel": 0,
      "note": 54,
      "start": 14.3768,
      "duration": 3.5467,
      "velocity": 92,
      "chip": "ym2612"
    },
    {
      "channel": 2,
      "note": 80,
      "start": 14.3775,
      "duration": 0.2492,
      "velocity": 78,
      "chip": "ym2612"
    },
    {
      "channel": 2,
      "note": 78,
      "start": 14.6769,
      "duration": 0.2496,
      "velocity": 78,
      "chip": "ym2612"
    },
    {
      "channel": 1,
      "note": 61,
      "start": 14.9763,
      "duration": 0.5494,
      "velocity": 83,
      "chip": "ym2612"
    },
    {
      "channel": 2,
      "note": 73,
      "start": 14.9768,
      "duration": 0.2493,
      "velocity": 78,
      "chip": "ym2612"
    },
    {
      "channel": 3,
      "note": 71,
      "start": 14.9774,
      "duration": 0.5488,
      "velocity": 86,
      "chip": "ym2612"
    },
    {
      "channel": 2,
      "note": 83,
      "start": 15.2763,
      "duration": 0.2497,
      "velocity": 78,
      "chip": "ym2612"
    },
    {
      "channel": 1,
      "note": 68,
      "start": 15.5759,
      "duration": 1.1489,
      "velocity": 83,
      "chip": "ym2612"
    },
    {
      "channel": 2,
      "note": 76,
      "start": 15.5764,
      "duration": 0.2494,
      "velocity": 78,
      "chip": "ym2612"
    },
    {
      "channel": 3,
      "note": 69,
      "start": 15.577,
      "duration": 0.5487,
      "velocity": 86,
      "chip": "ym2612"
    },
    {
      "channel": 2,
      "note": 78,
      "start": 15.8759,
      "duration": 0.2496,
      "velocity": 78,
      "chip": "ym2612"
    },
    {
      "channel": 2,
      "note": 73,
      "start": 16.1755,
      "duration": 0.2496,
      "velocity": 78,
      "chip": "ym2612"
    },
    {
      "channel": 3,
      "note": 71,
      "start": 16.1762,
      "duration": 0.5492,
      "velocity": 86,
      "chip": "ym2612"
    },
    {
      "channel": 2,
      "note": 80,
      "start": 16.4754,
      "duration": 0.2498,
      "velocity": 78,
      "chip": "ym2612"
    },
    {
      "channel": 1,
      "note": 66,
      "start": 16.7749,
      "duration": 0.5494,
      "velocity": 83,
      "chip": "ym2612"
    },
    {
      "channel": 2,
      "note": 78,
      "start": 16.7754,
      "duration": 0.2493,
      "velocity": 78,
      "chip": "ym2612"
    },
    {
      "channel": 3,
      "note": 69,
      "start": 16.7759,
      "duration": 0.5489,
      "velocity": 86,
      "chip": "ym2612"
    },
    {
      "channel": 2,
      "note": 83,
      "start": 17.0749,
      "duration": 0.2497,
      "velocity": 78,
      "chip": "ym2612"
    },
    {
      "channel": 1,
      "note": 73,
      "start": 17.3744,
      "duration": 0.5494,
      "velocity": 83,
      "chip": "ym2612"
    },
    {
      "channel": 2,
      "note": 76,
      "start": 17.3749,
      "duration": 0.2493,
      "velocity": 78,
      "chip": "ym2612"
    },
    {
      "channel": 3,
      "note": 68,
      "start": 17.3755,
      "duration": 0.5488,
      "velocity": 86,
      "chip": "ym2612"
    },
    {
      "channel": 2,
      "note": 78,
      "start": 17.6743,
      "duration": 0.2497,
      "velocity": 78,
      "chip": "ym2612"
    },
    {
      "channel": 0,
      "note": 55,
      "start": 17.9736,
      "duration": 3.547,
      "velocity": 92,
      "chip": "ym2612"
    },
    {
      "channel": 1,
      "note": 73,
      "start": 17.9741,
      "duration": 1.7481,
      "velocity": 83,
      "chip": "ym2612"
    },
    {
      "channel": 2,
      "note": 76,
      "start": 17.9746,
      "duration": 0.249,
      "velocity": 78,
      "chip": "ym2612"
    },
    {
      "channel": 3,
      "note": 69,
      "start": 17.9752,
      "duration": 0.5485,
      "velocity": 86,
      "chip": "ym2612"
    },
    {
      "channel": 2,
      "note": 78,
      "start": 18.2738,
      "duration": 0.2496,
      "velocity": 78,
      "chip": "ym2612"
    },
    {
      "channel": 2,
      "note": 71,
      "start": 18.5736,
      "duration": 0.2496,
      "velocity": 78,
      "chip": "ym2612"
    },
    {
      "channel": 3,
      "note": 71,
      "start": 18.5741,
      "duration": 0.5492,
      "velocity": 86,
      "chip": "ym2612"
    },
    {
      "channel": 2,
      "note": 76,
      "start": 18.8733,
      "duration": 0.2498,
      "velocity": 78,
      "chip": "ym2612"
    },
    {
      "channel": 2,
      "note": 78,
      "start": 19.1731,
      "duration": 0.2497,
      "velocity": 78,
      "chip": "ym2612"
    },
    {
      "channel": 3,
      "note": 64,
      "start": 19.1738,
      "duration": 0.549,
      "velocity": 86,
      "chip": "ym2612"
    },
    {
      "channel": 2,
      "note": 71,
      "start": 19.4729,
      "duration": 0.2496,
      "velocity": 78,
      "chip": "ym2612"
    },
    {
      "channel": 1,
      "note": 71,
      "start": 19.7724,
      "duration": 1.7483,
      "velocity": 83,
      "chip": "ym2612"
    },
    {
      "channel": 2,
      "note": 81,
      "start": 19.7729,
      "duration": 0.2493,
      "velocity": 78,
      "chip": "ym2612"
    },
    {
      "channel": 3,
      "note": 69,
      "start": 19.7735,
      "duration": 0.5487,
      "velocity": 86,
      "chip": "ym2612"
    },
    {
      "channel": 2,
      "note": 83,
      "start": 20.0724,
      "duration": 0.2496,
      "velocity": 78,
      "chip": "ym2612"
    },
    {
      "channel": 2,
      "note": 76,
      "start": 20.372,
      "duration": 0.2497,
      "velocity": 78,
      "chip": "ym2612"
    },
    {
      "channel": 3,
      "note": 71,
      "start": 20.3727,
      "duration": 0.5493,
      "velocity": 86,
      "chip": "ym2612"
    },
    {
      "channel": 2,
      "note": 81,
      "start": 20.6719,
      "duration": 0.2497,
      "velocity": 78,
      "chip": "ym2612"
    },
    {
      "channel": 2,
      "note": 83,
      "start": 20.9716,
      "duration": 0.2496,
      "velocity": 78,
      "chip": "ym2612"
    },
    {
      "channel": 3,
      "note": 78,
      "start": 20.9722,
      "duration": 0.5492,
      "velocity": 86,
      "chip": "ym2612"
    },
    {
      "channel": 2,
      "note": 78,
      "start": 21.2713,
      "duration": 0.2498,
      "velocity": 78,
      "chip": "ym2612"
    },
    {
      "channel": 0,
      "note": 54,
      "start": 21.5708,
      "duration": 3.5467,
      "velocity": 92,
      "chip": "ym2612"
    },
    {
      "channel": 2,
      "note": 80,
      "start": 21.5734,
      "duration": 0.2473,
      "velocity": 78,
      "chip": "ym2612"
    },
    {
      "channel": 2,
      "note": 81,
      "start": 21.8708,
      "duration": 0.2497,
      "velocity": 78,
      "chip": "ym2612"
    },
    {
      "channel": 1,
      "note": 76,
      "start": 22.1736,
      "duration": 0.5462,
      "velocity": 83,
      "chip": "ym2612"
    },
    {
      "channel": 2,
      "note": 80,
      "start": 22.1741,
      "duration": 0.2461,
      "velocity": 78,
      "chip": "ym2612"
    },
    {
      "channel": 3,
      "note": 76,
      "start": 22.1747,
      "duration": 0.5456,
      "velocity": 86,
      "chip": "ym2612"
    },
    {
      "channel": 2,
      "note": 83,
      "start": 22.4703,
      "duration": 0.2497,
      "velocity": 78,
      "chip": "ym2612"
    },
    {
      "channel": 1,
      "note": 71,
      "start": 22.7699,
      "duration": 0.5494,
      "velocity": 83,
      "chip": "ym2612"
    },
    {
      "channel": 2,
      "note": 76,
      "start": 22.7704,
      "duration": 0.2494,
      "velocity": 78,
      "chip": "ym2612"
    },
    {
      "channel": 3,
      "note": 66,
      "start": 22.771,
      "duration": 0.5489,
      "velocity": 86,
      "chip": "ym2612"
    },
    {
      "channel": 2,
      "note": 78,
      "start": 23.0699,
      "duration": 0.2496,
      "velocity": 78,
      "chip": "ym2612"
    },
    {
      "channel": 1,
      "note": 73,
      "start": 23.3694,
      "duration": 0.5494,
      "velocity": 83,
      "chip": "ym2612"
    },
    {
      "channel": 2,
      "note": 73,
      "start": 23.3699,
      "duration": 0.2494,
      "velocity": 78,
      "chip": "ym2612"
    },
    {
      "channel": 3,
      "note": 68,
      "start": 23.3705,
      "duration": 0.5487,
      "velocity": 86,
      "chip": "ym2612"
    },
    {
      "channel": 2,
      "note": 80,
      "start": 23.6693,
      "duration": 0.2497,
      "velocity": 78,
      "chip": "ym2612"
    },
    {
      "channel": 1,
      "note": 68,
      "start": 23.9689,
      "duration": 0.5494,
      "velocity": 83,
      "chip": "ym2612"
    },
    {
      "channel": 2,
      "note": 78,
      "start": 23.9694,
      "duration": 0.2494,
      "velocity": 78,
      "chip": "ym2612"
    },
    {
      "channel": 3,
      "note": 69,
      "start": 23.97,
      "duration": 0.5489,
      "velocity": 86,
      "chip": "ym2612"
    },
    {
      "channel": 2,
      "note": 81,
      "start": 24.2689,
      "duration": 0.2497,
      "velocity": 78,
      "chip": "ym2612"
    },
    {
      "channel": 1,
      "note": 71,
      "start": 24.5683,
      "duration": 0.5494,
      "velocity": 83,
      "chip": "ym2612"
    },
    {
      "channel": 2,
      "note": 76,
      "start": 24.5689,
      "duration": 0.2493,
      "velocity": 78,
      "chip": "ym2612"
    },
    {
      "channel": 3,
      "note": 71,
      "start": 24.5695,
      "duration": 0.5488,
      "velocity": 86,
      "chip": "ym2612"
    },
    {
      "channel": 2,
      "note": 78,
      "start": 24.8683,
      "duration": 0.2496,
      "velocity": 78,
      "chip": "ym2612"
    },
    {
      "channel": 0,
      "note": 55,
      "start": 25.1677,
      "duration": 3.5469,
      "velocity": 92,
      "chip": "ym2612"
    },
    {
      "channel": 1,
      "note": 69,
      "start": 25.1682,
      "duration": 1.1485,
      "velocity": 83,
      "chip": "ym2612"
    },
    {
      "channel": 2,
      "note": 76,
      "start": 25.1687,
      "duration": 0.249,
      "velocity": 78,
      "chip": "ym2612"
    },
    {
      "channel": 2,
      "note": 78,
      "start": 25.4678,
      "duration": 0.2496,
      "velocity": 78,
      "chip": "ym2612"
    },
    {
      "channel": 2,
      "note": 71,
      "start": 25.7676,
      "duration": 0.2496,
      "velocity": 78,
      "chip": "ym2612"
    },
    {
      "channel": 3,
      "note": 73,
      "start": 25.7682,
      "duration": 0.5492,
      "velocity": 86,
      "chip": "ym2612"
    },
    {
      "channel": 2,
      "note": 76,
      "start": 26.0673,
      "duration": 0.2497,
      "velocity": 78,
      "chip": "ym2612"
    },
    {
      "channel": 1,
      "note": 64,
      "start": 26.3669,
      "duration": 0.5494,
      "velocity": 83,
      "chip": "ym2612"
    },
    {
      "channel": 2,
      "note": 78,
      "start": 26.3674,
      "duration": 0.2494,
      "velocity": 78,
      "chip": "ym2612"
    },
    {
      "channel": 3,
      "note": 66,
      "start": 26.368,
      "duration": 0.5488,
      "velocity": 86,
      "chip": "ym2612"
    },
    {
      "channel": 2,
      "note": 71,
      "start": 26.6668,
      "duration": 0.2497,
      "velocity": 78,
      "chip": "ym2612"
    },
    {
      "channel": 1,
      "note": 62,
      "start": 26.9664,
      "duration": 1.1489,
      "velocity": 83,
      "chip": "ym2612"
    },
    {
      "channel": 2,
      "note": 81,
      "start": 26.9669,
      "duration": 0.2494,
      "velocity": 78,
      "chip": "ym2612"
    },
    {
      "channel": 3,
      "note": 67,
      "start": 26.9675,
      "duration": 0.5488,
      "velocity": 86,
      "chip": "ym2612"
    },
    {
      "channel": 2,
      "note": 83,
      "start": 27.2664,
      "duration": 0.2496,
      "velocity": 78,
      "chip": "ym2612"
    },
    {
      "channel": 2,
      "note": 76,
      "start": 27.5661,
      "duration": 0.2496,
      "velocity": 78,
      "chip": "ym2612"
    },
    {
      "channel": 3,
      "note": 69,
      "start": 27.5667,
      "duration": 0.5492,
      "velocity": 86,
      "chip": "ym2612"
    },
    {
      "channel": 2,
      "note": 81,
      "start": 27.8659,
      "duration": 0.2498,
      "velocity": 78,
      "chip": "ym2612"
    },
    {
      "channel": 1,
      "note": 62,
      "start": 28.1654,
      "duration": 1.1488,
      "velocity": 83,
      "chip": "ym2612"
    },
    {
      "channel": 2,
      "note": 83,
      "start": 28.1659,
      "duration": 0.2493,
      "velocity": 78,
      "chip": "ym2612"
    },
    {
      "channel": 3,
      "note": 73,
      "start": 28.1665,
      "duration": 0.5488,
      "velocity": 86,
      "chip": "ym2612"
    },
    {
      "channel": 2,
      "note": 76,
      "start": 28.4654,
      "duration": 0.2497,
      "velocity": 78,
      "chip": "ym2612"
    },
    {
      "channel": 0,
      "note": 54,
      "start": 28.7648,
      "duration": 3.5467,
      "velocity": 92,
      "chip": "ym2612"
    },
    {
      "channel": 2,
      "note": 80,
      "start": 28.7656,
      "duration": 0.2491,
      "velocity": 78,
      "chip": "ym2612"
    },
    {
      "channel": 2,
      "note": 78,
      "start": 29.0649,
      "duration": 0.2498,
      "velocity": 78,
      "chip": "ym2612"
    },
    {
      "channel": 1,
      "note": 61,
      "start": 29.3644,
      "duration": 0.5494,
      "velocity": 83,
      "chip": "ym2612"
    },
    {
      "channel": 2,
      "note": 73,
      "start": 29.3649,
      "duration": 0.2493,
      "velocity": 78,
      "chip": "ym2612"
    },
    {
      "channel": 3,
      "note": 71,
      "start": 29.3655,
      "duration": 0.5489,
      "velocity": 86,
      "chip": "ym2612"
    },
    {
      "channel": 2,
      "note": 83,
      "start": 29.6644,
      "duration": 0.2497,
      "velocity": 78,
      "chip": "ym2612"
    },
    {
      "channel": 1,
      "note": 68,
      "start": 29.9639,
      "duration": 1.149,
      "velocity": 83,
      "chip": "ym2612"
    },
    {
      "channel": 2,
      "note": 76,
      "start": 29.9644,
      "duration": 0.2494,
      "velocity": 78,
      "chip": "ym2612"
    },
    {
      "channel": 3,
      "note": 69,
      "start": 29.9651,
      "duration": 0.5487,
      "velocity": 86,
      "chip": "ym2612"
    },
    {
      "channel": 2,
      "note": 78,
      "start": 30.2638,
      "duration": 0.2497,
      "velocity": 78,
      "chip": "ym2612"
    },
    {
      "channel": 2,
      "note": 73,
      "start": 30.5637,
      "duration": 0.2496,
      "velocity": 78,
      "chip": "ym2612"
    },
    {
      "channel": 3,
      "note": 71,
      "start": 30.5642,
      "duration": 0.5493,
      "velocity": 86,
      "chip": "ym2612"
    },
    {
      "channel": 2,
      "note": 80,
      "start": 30.8634,
      "duration": 0.2499,
      "velocity": 78,
      "chip": "ym2612"
    },
    {
      "channel": 1,
      "note": 66,
      "start": 31.1631,
      "duration": 0.5495,
      "velocity": 83,
      "chip": "ym2612"
    },
    {
      "channel": 2,
      "note": 78,
      "start": 31.1636,
      "duration": 0.2494,
      "velocity": 78,
      "chip": "ym2612"
    },
    {
      "channel": 3,
      "note": 69,
      "start": 31.1641,
      "duration": 0.5489,
      "velocity": 86,
      "chip": "ym2612"
    },
    {
      "channel": 2,
      "note": 83,
      "start": 31.4631,
      "duration": 0.2497,
      "velocity": 78,
      "chip": "ym2612"
    },
    {
      "channel": 1,
      "note": 73,
      "start": 31.7626,
      "duration": 0.5492,
      "velocity": 83,
      "chip": "ym2612"
    },
    {
      "channel": 2,
      "note": 76,
      "start": 31.7631,
      "duration": 0.2493,
      "velocity": 78,
      "chip": "ym2612"
    },
    {
      "channel": 3,
      "note": 68,
      "start": 31.7637,
      "duration": 0.5488,
      "velocity": 86,
      "chip": "ym2612"
    },
    {
      "channel": 2,
      "note": 78,
      "start": 32.0626,
      "duration": 0.2494,
      "velocity": 78,
      "chip": "ym2612"
    },
    {
      "channel": 0,
      "note": 55,
      "start": 32.3616,
      "duration": 3.5469,
      "velocity": 92,
      "chip": "ym2612"
    },
    {
      "channel": 1,
      "note": 73,
      "start": 32.3621,
      "duration": 1.7481,
      "velocity": 83,
      "chip": "ym2612"
    },
    {
      "channel": 2,
      "note": 76,
      "start": 32.3629,
      "duration": 0.2488,
      "velocity": 78,
      "chip": "ym2612"
    },
    {
      "channel": 3,
      "note": 69,
      "start": 32.3634,
      "duration": 0.5483,
      "velocity": 86,
      "chip": "ym2612"
    },
    {
      "channel": 2,
      "note": 78,
      "start": 32.6618,
      "duration": 0.2497,
      "velocity": 78,
      "chip": "ym2612"
    },
    {
      "channel": 2,
      "note": 71,
      "start": 32.9616,
      "duration": 0.2496,
      "velocity": 78,
      "chip": "ym2612"
    },
    {
      "channel": 3,
      "note": 71,
      "start": 32.9624,
      "duration": 0.549,
      "velocity": 86,
      "chip": "ym2612"
    },
    {
      "channel": 2,
      "note": 76,
      "start": 33.2614,
      "duration": 0.2498,
      "velocity": 78,
      "chip": "ym2612"
    },
    {
      "channel": 2,
      "note": 78,
      "start": 33.5612,
      "duration": 0.2497,
      "velocity": 78,
      "chip": "ym2612"
    },
    {
      "channel": 3,
      "note": 64,
      "start": 33.5618,
      "duration": 0.549,
      "velocity": 86,
      "chip": "ym2612"
    },
    {
      "channel": 2,
      "note": 71,
      "start": 33.8609,
      "duration": 0.2496,
      "velocity": 78,
      "chip": "ym2612"
    },
    {
      "channel": 1,
      "note": 71,
      "start": 34.1604,
      "duration": 1.7484,
      "velocity": 83,
      "chip": "ym2612"
    },
    {
      "channel": 2,
      "note": 81,
      "start": 34.1609,
      "duration": 0.2493,
      "velocity": 78,
      "chip": "ym2612"
    },
    {
      "channel": 3,
      "note": 69,
      "start": 34.1615,
      "duration": 0.5488,
      "velocity": 86,
      "chip": "ym2612"
    },
    {
      "channel": 2,
      "note": 83,
      "start": 34.4604,
      "duration": 0.2496,
      "velocity": 78,
      "chip": "ym2612"
    },
    {
      "channel": 2,
      "note": 76,
      "start": 34.7602,
      "duration": 0.2496,
      "velocity": 78,
      "chip": "ym2612"
    },
    {
      "channel": 3,
      "note": 71,
      "start": 34.7607,
      "duration": 0.5492,
      "velocity": 86,
      "chip": "ym2612"
    },
    {
      "channel": 2,
      "note": 81,
      "start": 35.0599,
      "duration": 0.2497,
      "velocity": 78,
      "chip": "ym2612"
    },
    {
      "channel": 2,
      "note": 83,
      "start": 35.3597,
      "duration": 0.2495,
      "velocity": 78,
      "chip": "ym2612"
    },
    {
      "channel": 3,
      "note": 78,
      "start": 35.3603,
      "duration": 0.5491,
      "velocity": 86,
      "chip": "ym2612"
    },
    {
      "channel": 2,
      "note": 78,
      "start": 35.6594,
      "duration": 0.2497,
      "velocity": 78,
      "chip": "ym2612"
    },
    {
      "channel": 0,
      "note": 54,
      "start": 35.9589,
      "duration": 1.748,
      "velocity": 92,
      "chip": "ym2612"
    },
    {
      "channel": 1,
      "note": 68,
      "start": 36.2586,
      "duration": 0.2496,
      "velocity": 83,
      "chip": "ym2612"
    },
    {
      "channel": 3,
      "note": 76,
      "start": 36.2595,
      "duration": 0.2493,
      "velocity": 86,
      "chip": "ym2612"
    },
    {
      "channel": 1,
      "note": 69,
      "start": 36.5584,
      "duration": 0.2496,
      "velocity": 83,
      "chip": "ym2612"
    },
    {
      "channel": 3,
      "note": 61,
      "start": 36.5592,
      "duration": 0.2493,
      "velocity": 86,
      "chip": "ym2612"
    },
    {
      "channel": 1,
      "note": 76,
      "start": 36.8581,
      "duration": 3.2472,
      "velocity": 83,
      "chip": "ym2612"
    },
    {
      "channel": 3,
      "note": 66,
      "start": 36.8589,
      "duration": 0.2494,
      "velocity": 86,
      "chip": "ym2612"
    },
    {
      "channel": 3,
      "note": 68,
      "start": 37.1585,
      "duration": 0.2496,
      "velocity": 86,
      "chip": "ym2612"
    },
    {
      "channel": 3,
      "note": 69,
      "start": 37.4582,
      "duration": 2.6477,
      "velocity": 86,
      "chip": "ym2612"
    },
    {
      "channel": 0,
      "note": 54,
      "start": 37.7572,
      "duration": 2.3478,
      "velocity": 92,
      "chip": "ym2612"
    },
    {
      "channel": 2,
      "note": 95,
      "start": 38.0574,
      "duration": 0.2495,
      "velocity": 78,
      "chip": "ym2612"
    },
    {
      "channel": 2,
      "note": 88,
      "start": 38.3571,
      "duration": 0.2496,
      "velocity": 78,
      "chip": "ym2612"
    },
    {
      "channel": 2,
      "note": 92,
      "start": 38.6569,
      "duration": 0.2496,
      "velocity": 78,
      "chip": "ym2612"
    },
    {
      "channel": 2,
      "note": 85,
      "start": 38.9566,
      "duration": 0.2497,
      "velocity": 78,
      "chip": "ym2612"
    },
    {
      "channel": 2,
      "note": 88,
      "start": 39.2565,
      "duration": 0.2496,
      "velocity": 78,
      "chip": "ym2612"
    },
    {
      "channel": 2,
      "note": 83,
      "start": 39.5562,
      "duration": 0.2495,
      "velocity": 78,
      "chip": "ym2612"
    },
    {
      "channel": 2,
      "note": 85,
      "start": 39.8559,
      "duration": 0.2497,
      "velocity": 78,
      "chip": "ym2612"
    },
    {
      "channel": 0,
      "note": 54,
      "start": 40.1553,
      "duration": 1.7482,
      "velocity": 92,
      "chip": "ym2612"
    },
    {
      "channel": 1,
      "note": 68,
      "start": 40.4552,
      "duration": 0.2495,
      "velocity": 83,
      "chip": "ym2612"
    },
    {
      "channel": 3,
      "note": 73,
      "start": 40.4559,
      "duration": 0.2493,
      "velocity": 86,
      "chip": "ym2612"
    },
    {
      "channel": 1,
      "note": 69,
      "start": 40.7549,
      "duration": 0.2496,
      "velocity": 83,
      "chip": "ym2612"
    },
    {
      "channel": 3,
      "note": 62,
      "start": 40.7557,
      "duration": 0.2493,
      "velocity": 86,
      "chip": "ym2612"
    },
    {
      "channel": 1,
      "note": 76,
      "start": 41.0547,
      "duration": 0.5494,
      "velocity": 83,
      "chip": "ym2612"
    },
    {
      "channel": 3,
      "note": 66,
      "start": 41.0555,
      "duration": 0.2493,
      "velocity": 86,
      "chip": "ym2612"
    },
    {
      "channel": 3,
      "note": 68,
      "start": 41.355,
      "duration": 0.2497,
      "velocity": 86,
      "chip": "ym2612"
    },
    {
      "channel": 1,
      "note": 74,
      "start": 41.6542,
      "duration": 2.6476,
      "velocity": 83,
      "chip": "ym2612"
    },
    {
      "channel": 3,
      "note": 69,
      "start": 41.655,
      "duration": 0.2494,
      "velocity": 86,
      "chip": "ym2612"
    },
    {
      "channel": 0,
      "note": 54,
      "start": 41.9537,
      "duration": 2.3478,
      "velocity": 92,
      "chip": "ym2612"
    },
    {
      "channel": 3,
      "note": 74,
      "start": 41.9549,
      "duration": 1.4482,
      "velocity": 86,
      "chip": "ym2612"
    },
    {
      "channel": 2,
      "note": 95,
      "start": 42.2539,
      "duration": 0.2497,
      "velocity": 78,
      "chip": "ym2612"
    },
    {
      "channel": 2,
      "note": 88,
      "start": 42.5536,
      "duration": 0.2497,
      "velocity": 78,
      "chip": "ym2612"
    },
    {
      "channel": 2,
      "note": 90,
      "start": 42.8534,
      "duration": 0.2496,
      "velocity": 78,
      "chip": "ym2612"
    },
    {
      "channel": 2,
      "note": 85,
      "start": 43.1532,
      "duration": 0.2497,
      "velocity": 78,
      "chip": "ym2612"
    },
    {
      "channel": 2,
      "note": 86,
      "start": 43.4529,
      "duration": 0.2497,
      "velocity": 78,
      "chip": "ym2612"
    },
    {
      "channel": 3,
      "note": 78,
      "start": 43.4535,
      "duration": 0.2494,
      "velocity": 86,
      "chip": "ym2612"
    },
    {
      "channel": 2,
      "note": 81,
      "start": 43.7527,
      "duration": 0.2496,
      "velocity": 78,
      "chip": "ym2612"
    },
    {
      "channel": 3,
      "note": 69,
      "start": 43.7533,
      "duration": 0.2493,
      "velocity": 86,
      "chip": "ym2612"
    },
    {
      "channel": 2,
      "note": 83,
      "start": 44.0524,
      "duration": 0.2497,
      "velocity": 78,
      "chip": "ym2612"
    },
    {
      "channel": 3,
      "note": 68,
      "start": 44.053,
      "duration": 0.2494,
      "velocity": 86,
      "chip": "ym2612"
    },
    {
      "channel": 0,
      "note": 54,
      "start": 44.3518,
      "duration": 1.7482,
      "velocity": 92,
      "chip": "ym2612"
    },
    {
      "channel": 1,
      "note": 68,
      "start": 44.6516,
      "duration": 0.2496,
      "velocity": 83,
      "chip": "ym2612"
    },
    {
      "channel": 3,
      "note": 66,
      "start": 44.6524,
      "duration": 0.2494,
      "velocity": 86,
      "chip": "ym2612"
    },
    {
      "channel": 1,
      "note": 69,
      "start": 44.9514,
      "duration": 0.2496,
      "velocity": 83,
      "chip": "ym2612"
    },
    {
      "channel": 3,
      "note": 61,
      "start": 44.9522,
      "duration": 0.2493,
      "velocity": 86,
      "chip": "ym2612"
    },
    {
      "channel": 1,
      "note": 76,
      "start": 45.2512,
      "duration": 3.2471,
      "velocity": 83,
      "chip": "ym2612"
    },
    {
      "channel": 3,
      "note": 66,
      "start": 45.252,
      "duration": 0.2493,
      "velocity": 86,
      "chip": "ym2612"
    },
    {
      "channel": 3,
      "note": 68,
      "start": 45.5515,
      "duration": 0.2496,
      "velocity": 86,
      "chip": "ym2612"
    },
    {
      "channel": 3,
      "note": 69,
      "start": 45.8512,
      "duration": 2.6477,
      "velocity": 86,
      "chip": "ym2612"
    },
    {
      "channel": 0,
      "note": 54,
      "start": 46.1502,
      "duration": 2.3479,
      "velocity": 92,
      "chip": "ym2612"
    },
    {
      "channel": 2,
      "note": 95,
      "start": 46.4504,
      "duration": 0.2497,
      "velocity": 78,
      "chip": "ym2612"
    },
    {
      "channel": 2,
      "note": 88,
      "start": 46.7502,
      "duration": 0.2495,
      "velocity": 78,
      "chip": "ym2612"
    },
    {
      "channel": 2,
      "note": 92,
      "start": 47.0499,
      "duration": 0.2496,
      "velocity": 78,
      "chip": "ym2612"
    },
    {
      "channel": 2,
      "note": 85,
      "start": 47.3497,
      "duration": 0.2496,
      "velocity": 78,
      "chip": "ym2612"
    },
    {
      "channel": 2,
      "note": 88,
      "start": 47.6495,
      "duration": 0.2497,
      "velocity": 78,
      "chip": "ym2612"
    },
    {
      "channel": 2,
      "note": 83,
      "start": 47.9492,
      "duration": 0.2496,
      "velocity": 78,
      "chip": "ym2612"
    },
    {
      "channel": 2,
      "note": 85,
      "start": 48.249,
      "duration": 0.2497,
      "velocity": 78,
      "chip": "ym2612"
    },
    {
      "channel": 0,
      "note": 54,
      "start": 48.5484,
      "duration": 1.7481,
      "velocity": 92,
      "chip": "ym2612"
    },
    {
      "channel": 1,
      "note": 68,
      "start": 48.8482,
      "duration": 0.2495,
      "velocity": 83,
      "chip": "ym2612"
    },
    {
      "channel": 3,
      "note": 73,
      "start": 48.849,
      "duration": 0.2493,
      "velocity": 86,
      "chip": "ym2612"
    },
    {
      "channel": 1,
      "note": 69,
      "start": 49.1479,
      "duration": 0.2496,
      "velocity": 83,
      "chip": "ym2612"
    },
    {
      "channel": 3,
      "note": 62,
      "start": 49.1487,
      "duration": 0.2493,
      "velocity": 86,
      "chip": "ym2612"
    },
    {
      "channel": 1,
      "note": 76,
      "start": 49.4477,
      "duration": 0.5494,
      "velocity": 83,
      "chip": "ym2612"
    },
    {
      "channel": 3,
      "note": 66,
      "start": 49.4485,
      "duration": 0.2493,
      "velocity": 86,
      "chip": "ym2612"
    },
    {
      "channel": 3,
      "note": 68,
      "start": 49.748,
      "duration": 0.2497,
      "velocity": 86,
      "chip": "ym2612"
    },
    {
      "channel": 1,
      "note": 74,
      "start": 50.0472,
      "duration": 2.6476,
      "velocity": 83,
      "chip": "ym2612"
    },
    {
      "channel": 3,
      "note": 69,
      "start": 50.0481,
      "duration": 0.2493,
      "velocity": 86,
      "chip": "ym2612"
    },
    {
      "channel": 0,
      "note": 54,
      "start": 50.3467,
      "duration": 2.3478,
      "velocity": 92,
      "chip": "ym2612"
    },
    {
      "channel": 3,
      "note": 74,
      "start": 50.3479,
      "duration": 1.4485,
      "velocity": 86,
      "chip": "ym2612"
    },
    {
      "channel": 2,
      "note": 95,
      "start": 50.6469,
      "duration": 0.2496,
      "velocity": 78,
      "chip": "ym2612"
    },
    {
      "channel": 2,
      "note": 88,
      "start": 50.9467,
      "duration": 0.2498,
      "velocity": 78,
      "chip": "ym2612"
    },
    {
      "channel": 2,
      "note": 90,
      "start": 51.2466,
      "duration": 0.2497,
      "velocity": 78,
      "chip": "ym2612"
    },
    {
      "channel": 2,
      "note": 85,
      "start": 51.5465,
      "duration": 0.2496,
      "velocity": 78,
      "chip": "ym2612"
    },
    {
      "channel": 2,
      "note": 86,
      "start": 51.8462,
      "duration": 0.2496,
      "velocity": 78,
      "chip": "ym2612"
    },
    {
      "channel": 3,
      "note": 78,
      "start": 51.8468,
      "duration": 0.2493,
      "velocity": 86,
      "chip": "ym2612"
    },
    {
      "channel": 2,
      "note": 81,
      "start": 52.1459,
      "duration": 0.2494,
      "velocity": 78,
      "chip": "ym2612"
    },
    {
      "channel": 3,
      "note": 69,
      "start": 52.1465,
      "duration": 0.2493,
      "velocity": 86,
      "chip": "ym2612"
    },
    {
      "channel": 2,
      "note": 83,
      "start": 52.4455,
      "duration": 0.2497,
      "velocity": 78,
      "chip": "ym2612"
    },
    {
      "channel": 3,
      "note": 68,
      "start": 52.4463,
      "duration": 0.2492,
      "velocity": 86,
      "chip": "ym2612"
    },
    {
      "channel": 0,
      "note": 54,
      "start": 52.7448,
      "duration": 3.3354,
      "velocity": 92,
      "chip": "ym2612"
    },
    {
      "channel": 2,
      "note": 66,
      "start": 52.7461,
      "duration": 0.6212,
      "velocity": 78,
      "chip": "ym2612"
    },
    {
      "channel": 3,
      "note": 66,
      "start": 52.7468,
      "duration": 0.6207,
      "velocity": 86,
      "chip": "ym2612"
    },
    {
      "channel": 1,
      "note": 68,
      "start": 53.1915,
      "duration": 0.4164,
      "velocity": 83,
      "chip": "ym2612"
    },
    {
      "channel": 2,
      "note": 68,
      "start": 53.4277,
      "duration": 0.674,
      "velocity": 78,
      "chip": "ym2612"
    },
    {
      "channel": 3,
      "note": 71,
      "start": 53.4283,
      "duration": 1.4538,
      "velocity": 86,
      "chip": "ym2612"
    },
    {
      "channel": 1,
      "note": 64,
      "start": 53.6683,
      "duration": 0.4331,
      "velocity": 83,
      "chip": "ym2612"
    },
    {
      "channel": 1,
      "note": 66,
      "start": 54.1642,
      "duration": 0.4501,
      "velocity": 83,
      "chip": "ym2612"
    },
    {
      "channel": 2,
      "note": 69,
      "start": 54.1647,
      "duration": 0.717,
      "velocity": 78,
      "chip": "ym2612"
    },
    {
      "channel": 1,
      "note": 68,
      "start": 54.6798,
      "duration": 0.4908,
      "velocity": 83,
      "chip": "ym2612"
    },
    {
      "channel": 2,
      "note": 71,
      "start": 54.9542,
      "duration": 1.1266,
      "velocity": 78,
      "chip": "ym2612"
    },
    {
      "channel": 3,
      "note": 73,
      "start": 54.9547,
      "duration": 0.3607,
      "velocity": 86,
      "chip": "ym2612"
    },
    {
      "channel": 1,
      "note": 71,
      "start": 55.2429,
      "duration": 0.8377,
      "velocity": 83,
      "chip": "ym2612"
    },
    {
      "channel": 3,
      "note": 76,
      "start": 55.3879,
      "duration": 0.6932,
      "velocity": 86,
      "chip": "ym2612"
    },
    {
      "channel": 0,
      "note": 54,
      "start": 56.1576,
      "duration": 3.6209,
      "velocity": 92,
      "chip": "ym2612"
    },
    {
      "channel": 1,
      "note": 75,
      "start": 56.158,
      "duration": 3.6206,
      "velocity": 83,
      "chip": "ym2612"
    },
    {
      "channel": 2,
      "note": 73,
      "start": 56.1585,
      "duration": 3.6206,
      "velocity": 78,
      "chip": "ym2612"
    },
    {
      "channel": 3,
      "note": 78,
      "start": 56.1591,
      "duration": 3.6204,
      "velocity": 86,
      "chip": "ym2612"
    }
  ]
}