{
  "track_name": "02 - Where Am I",
  "duration_sec": 69.16,
  "sample_rate": 44100,
  "note_count": 108,
  "unique_pitches": 18,
  "pitch_range": 92,
  "avg_note_duration": 2.9256,
  "reconstruction_stats": {
    "notes_reconstructed": 108,
    "keyon_events": 108,
    "keyoff_events": 104,
    "orphan_keyons": 4,
    "unique_pitches": 18,
    "pitch_range": 92,
    "avg_duration_sec": 2.9256
  },
  "metadata": {
    "source": "T\\The Immortal\\02 - Where Am I.vgz"
  },
  "notes": [
    {
      "channel": 0,
      "note": 51,
      "start": 0.0,
      "duration": 0.0,
      "velocity": 93,
      "chip": "ym2612"
    },
    {
      "channel": 0,
      "note": 51,
      "start": 0.0,
      "duration": 2.4275,
      "velocity": 108,
      "chip": "ym2612"
    },
    {
      "channel": 1,
      "note": 48,
      "start": 0.0,
      "duration": 0.0,
      "velocity": 93,
      "chip": "ym2612"
    },
    {
      "channel": 1,
      "note": 48,
      "start": 0.0,
      "duration": 2.4277,
      "velocity": 108,
      "chip": "ym2612"
    },
    {
      "channel": 2,
      "note": 0,
      "start": 0.0,
      "duration": 0.0,
      "velocity": 78,
      "chip": "ym2612"
    },
    {
      "channel": 2,
      "note": 63,
      "start": 0.0,
      "duration": 0.0,
      "velocity": 78,
      "chip": "ym2612"
    },
    {
      "channel": 2,
      "note": 62,
      "start": 0.0,
      "duration": 0.0,
      "velocity": 78,
      "chip": "ym2612"
    },
    {
      "channel": 2,
      "note": 60,
      "start": 0.0,
      "duration": 0.0,
      "velocity": 78,
      "chip": "ym2612"
    },
    {
      "channel": 2,
      "note": 63,
      "start": 0.0,
      "duration": 0.0,
      "velocity": 78,
      "chip": "ym2612"
    },
    {
      "channel": 2,
      "note": 62,
      "start": 0.0,
      "duration": 0.0,
      "velocity": 78,
      "chip": "ym2612"
    },
    {
      "channel": 2,
      "note": 60,
      "start": 0.0,
      "duration": 0.0,
      "velocity": 78,
      "chip": "ym2612"
    },
    {
      "channel": 2,
      "note": 63,
      "start": 0.0,
      "duration": 0.0,
      "velocity": 78,
      "chip": "ym2612"
    },
    {
      "channel": 2,
      "note": 65,
      "start": 0.0,
      "duration": 0.0,
      "velocity": 78,
      "chip": "ym2612"
    },
    {
      "channel": 2,
      "note": 63,
      "start": 0.0,
      "duration": 0.0,
      "velocity": 78,
      "chip": "ym2612"
    },
    {
      "channel": 2,
      "note": 62,
      "start": 0.0,
      "duration": 4.7278,
      "velocity": 87,
      "chip": "ym2612"
    },
    {
      "channel": 4,
      "note": 30,
      "start": 0.0,
      "duration": 0.0,
      "velocity": 127,
      "chip": "ym2612"
    },
    {
      "channel": 5,
      "note": -1,
      "start": 0.0,
      "duration": 0.0,
      "velocity": 78,
      "chip": "ym2612"
    },
    {
      "channel": 4,
      "note": 30,
      "start": 0.0032,
      "duration": 4.725,
      "velocity": 127,
      "chip": "ym2612"
    },
    {
      "channel": 0,
      "note": 92,
      "start": 2.4442,
      "duration": 2.2832,
      "velocity": 108,
      "chip": "ym2612"
    },
    {
      "channel": 1,
      "note": 85,
      "start": 2.4445,
      "duration": 2.2832,
      "velocity": 108,
      "chip": "ym2612"
    },
    {
      "channel": 0,
      "note": 90,
      "start": 4.745,
      "duration": 2.2825,
      "velocity": 108,
      "chip": "ym2612"
    },
    {
      "channel": 1,
      "note": 85,
      "start": 4.7453,
      "duration": 2.2824,
      "velocity": 108,
      "chip": "ym2612"
    },
    {
      "channel": 2,
      "note": 49,
      "start": 4.7455,
      "duration": 4.5828,
      "velocity": 87,
      "chip": "ym2612"
    },
    {
      "channel": 4,
      "note": 42,
      "start": 4.7488,
      "duration": 4.5799,
      "velocity": 127,
      "chip": "ym2612"
    },
    {
      "channel": 0,
      "note": 90,
      "start": 7.0442,
      "duration": 2.2837,
      "velocity": 108,
      "chip": "ym2612"
    },
    {
      "channel": 1,
      "note": 83,
      "start": 7.0445,
      "duration": 2.2837,
      "velocity": 108,
      "chip": "ym2612"
    },
    {
      "channel": 0,
      "note": 88,
      "start": 9.3448,
      "duration": 2.2826,
      "velocity": 108,
      "chip": "ym2612"
    },
    {
      "channel": 1,
      "note": 83,
      "start": 9.3451,
      "duration": 2.2826,
      "velocity": 108,
      "chip": "ym2612"
    },
    {
      "channel": 2,
      "note": 49,
      "start": 9.3468,
      "duration": 4.581,
      "velocity": 87,
      "chip": "ym2612"
    },
    {
      "channel": 4,
      "note": 42,
      "start": 9.35,
      "duration": 4.5781,
      "velocity": 127,
      "chip": "ym2612"
    },
    {
      "channel": 0,
      "note": 87,
      "start": 11.6441,
      "duration": 2.2833,
      "velocity": 108,
      "chip": "ym2612"
    },
    {
      "channel": 1,
      "note": 83,
      "start": 11.6444,
      "duration": 2.2832,
      "velocity": 108,
      "chip": "ym2612"
    },
    {
      "channel": 0,
      "note": 87,
      "start": 13.9446,
      "duration": 2.2828,
      "velocity": 108,
      "chip": "ym2612"
    },
    {
      "channel": 1,
      "note": 80,
      "start": 13.9449,
      "duration": 2.2828,
      "velocity": 108,
      "chip": "ym2612"
    },
    {
      "channel": 2,
      "note": 49,
      "start": 13.9451,
      "duration": 4.5827,
      "velocity": 87,
      "chip": "ym2612"
    },
    {
      "channel": 4,
      "note": 42,
      "start": 13.9484,
      "duration": 4.5797,
      "velocity": 127,
      "chip": "ym2612"
    },
    {
      "channel": 0,
      "note": 87,
      "start": 16.2446,
      "duration": 2.2828,
      "velocity": 108,
      "chip": "ym2612"
    },
    {
      "channel": 1,
      "note": 85,
      "start": 16.2448,
      "duration": 2.2828,
      "velocity": 108,
      "chip": "ym2612"
    },
    {
      "channel": 0,
      "note": 88,
      "start": 18.5448,
      "duration": 2.2829,
      "velocity": 108,
      "chip": "ym2612"
    },
    {
      "channel": 1,
      "note": 87,
      "start": 18.545,
      "duration": 2.283,
      "velocity": 108,
      "chip": "ym2612"
    },
    {
      "channel": 2,
      "note": 49,
      "start": 18.5468,
      "duration": 4.5812,
      "velocity": 87,
      "chip": "ym2612"
    },
    {
      "channel": 4,
      "note": 42,
      "start": 18.55,
      "duration": 4.5782,
      "velocity": 127,
      "chip": "ym2612"
    },
    {
      "channel": 0,
      "note": 90,
      "start": 20.8441,
      "duration": 2.2833,
      "velocity": 108,
      "chip": "ym2612"
    },
    {
      "channel": 1,
      "note": 87,
      "start": 20.8444,
      "duration": 2.2833,
      "velocity": 108,
      "chip": "ym2612"
    },
    {
      "channel": 0,
      "note": 92,
      "start": 23.1463,
      "duration": 2.2812,
      "velocity": 108,
      "chip": "ym2612"
    },
    {
      "channel": 1,
      "note": 87,
      "start": 23.1466,
      "duration": 2.2811,
      "velocity": 108,
      "chip": "ym2612"
    },
    {
      "channel": 2,
      "note": 49,
      "start": 23.1468,
      "duration": 4.581,
      "velocity": 87,
      "chip": "ym2612"
    },
    {
      "channel": 4,
      "note": 42,
      "start": 23.15,
      "duration": 4.5781,
      "velocity": 127,
      "chip": "ym2612"
    },
    {
      "channel": 0,
      "note": 92,
      "start": 25.4445,
      "duration": 2.2829,
      "velocity": 108,
      "chip": "ym2612"
    },
    {
      "channel": 1,
      "note": 86,
      "start": 25.4462,
      "duration": 2.2815,
      "velocity": 108,
      "chip": "ym2612"
    },
    {
      "channel": 0,
      "note": 90,
      "start": 27.7452,
      "duration": 2.2823,
      "velocity": 108,
      "chip": "ym2612"
    },
    {
      "channel": 1,
      "note": 85,
      "start": 27.7455,
      "duration": 2.2821,
      "velocity": 108,
      "chip": "ym2612"
    },
    {
      "channel": 2,
      "note": 49,
      "start": 27.7473,
      "duration": 4.5811,
      "velocity": 87,
      "chip": "ym2612"
    },
    {
      "channel": 4,
      "note": 42,
      "start": 27.7505,
      "duration": 4.5782,
      "velocity": 127,
      "chip": "ym2612"
    },
    {
      "channel": 0,
      "note": 90,
      "start": 30.0442,
      "duration": 2.2837,
      "velocity": 108,
      "chip": "ym2612"
    },
    {
      "channel": 1,
      "note": 85,
      "start": 30.0445,
      "duration": 2.2837,
      "velocity": 108,
      "chip": "ym2612"
    },
    {
      "channel": 0,
      "note": 88,
      "start": 32.3446,
      "duration": 2.2828,
      "velocity": 108,
      "chip": "ym2612"
    },
    {
      "channel": 1,
      "note": 83,
      "start": 32.3449,
      "duration": 2.2828,
      "velocity": 108,
      "chip": "ym2612"
    },
    {
      "channel": 2,
      "note": 49,
      "start": 32.3451,
      "duration": 4.5828,
      "velocity": 87,
      "chip": "ym2612"
    },
    {
      "channel": 4,
      "note": 42,
      "start": 32.3484,
      "duration": 4.5798,
      "velocity": 127,
      "chip": "ym2612"
    },
    {
      "channel": 0,
      "note": 87,
      "start": 34.6442,
      "duration": 2.2833,
      "velocity": 108,
      "chip": "ym2612"
    },
    {
      "channel": 1,
      "note": 83,
      "start": 34.6444,
      "duration": 2.2833,
      "velocity": 108,
      "chip": "ym2612"
    },
    {
      "channel": 0,
      "note": 87,
      "start": 36.9449,
      "duration": 2.2825,
      "velocity": 108,
      "chip": "ym2612"
    },
    {
      "channel": 1,
      "note": 83,
      "start": 36.9451,
      "duration": 2.2824,
      "velocity": 108,
      "chip": "ym2612"
    },
    {
      "channel": 2,
      "note": 49,
      "start": 36.9468,
      "duration": 4.581,
      "velocity": 87,
      "chip": "ym2612"
    },
    {
      "channel": 4,
      "note": 42,
      "start": 36.95,
      "duration": 4.5781,
      "velocity": 127,
      "chip": "ym2612"
    },
    {
      "channel": 0,
      "note": 87,
      "start": 39.2446,
      "duration": 2.2829,
      "velocity": 108,
      "chip": "ym2612"
    },
    {
      "channel": 1,
      "note": 80,
      "start": 39.2449,
      "duration": 2.2828,
      "velocity": 108,
      "chip": "ym2612"
    },
    {
      "channel": 0,
      "note": 88,
      "start": 41.5446,
      "duration": 2.2833,
      "velocity": 108,
      "chip": "ym2612"
    },
    {
      "channel": 1,
      "note": 85,
      "start": 41.5448,
      "duration": 2.2833,
      "velocity": 108,
      "chip": "ym2612"
    },
    {
      "channel": 2,
      "note": 49,
      "start": 41.545,
      "duration": 4.5828,
      "velocity": 87,
      "chip": "ym2612"
    },
    {
      "channel": 4,
      "note": 42,
      "start": 41.5483,
      "duration": 4.5799,
      "velocity": 127,
      "chip": "ym2612"
    },
    {
      "channel": 0,
      "note": 90,
      "start": 43.8443,
      "duration": 2.2832,
      "velocity": 108,
      "chip": "ym2612"
    },
    {
      "channel": 1,
      "note": 87,
      "start": 43.8445,
      "duration": 2.2832,
      "velocity": 108,
      "chip": "ym2612"
    },
    {
      "channel": 0,
      "note": 92,
      "start": 46.1466,
      "duration": 2.2809,
      "velocity": 108,
      "chip": "ym2612"
    },
    {
      "channel": 1,
      "note": 87,
      "start": 46.1468,
      "duration": 2.2808,
      "velocity": 108,
      "chip": "ym2612"
    },
    {
      "channel": 2,
      "note": 49,
      "start": 46.1485,
      "duration": 4.5794,
      "velocity": 87,
      "chip": "ym2612"
    },
    {
      "channel": 4,
      "note": 42,
      "start": 46.1517,
      "duration": 4.5765,
      "velocity": 127,
      "chip": "ym2612"
    },
    {
      "channel": 0,
      "note": 92,
      "start": 48.4441,
      "duration": 2.2833,
      "velocity": 108,
      "chip": "ym2612"
    },
    {
      "channel": 1,
      "note": 87,
      "start": 48.4444,
      "duration": 2.2833,
      "velocity": 108,
      "chip": "ym2612"
    },
    {
      "channel": 0,
      "note": 90,
      "start": 50.7452,
      "duration": 2.2823,
      "velocity": 108,
      "chip": "ym2612"
    },
    {
      "channel": 1,
      "note": 86,
      "start": 50.7469,
      "duration": 2.2807,
      "velocity": 108,
      "chip": "ym2612"
    },
    {
      "channel": 2,
      "note": 49,
      "start": 50.7472,
      "duration": 4.5812,
      "velocity": 87,
      "chip": "ym2612"
    },
    {
      "channel": 4,
      "note": 42,
      "start": 50.7504,
      "duration": 4.5783,
      "velocity": 127,
      "chip": "ym2612"
    },
    {
      "channel": 0,
      "note": 90,
      "start": 53.0442,
      "duration": 2.2837,
      "velocity": 108,
      "chip": "ym2612"
    },
    {
      "channel": 1,
      "note": 85,
      "start": 53.0445,
      "duration": 2.2837,
      "velocity": 108,
      "chip": "ym2612"
    },
    {
      "channel": 0,
      "note": 88,
      "start": 55.3448,
      "duration": 2.2827,
      "velocity": 108,
      "chip": "ym2612"
    },
    {
      "channel": 1,
      "note": 85,
      "start": 55.3451,
      "duration": 2.2826,
      "velocity": 108,
      "chip": "ym2612"
    },
    {
      "channel": 2,
      "note": 49,
      "start": 55.3468,
      "duration": 4.581,
      "velocity": 87,
      "chip": "ym2612"
    },
    {
      "channel": 4,
      "note": 42,
      "start": 55.35,
      "duration": 4.5781,
      "velocity": 127,
      "chip": "ym2612"
    },
    {
      "channel": 0,
      "note": 87,
      "start": 57.6442,
      "duration": 2.2832,
      "velocity": 108,
      "chip": "ym2612"
    },
    {
      "channel": 1,
      "note": 83,
      "start": 57.6445,
      "duration": 2.2831,
      "velocity": 108,
      "chip": "ym2612"
    },
    {
      "channel": 0,
      "note": 87,
      "start": 59.9446,
      "duration": 2.2828,
      "velocity": 108,
      "chip": "ym2612"
    },
    {
      "channel": 1,
      "note": 83,
      "start": 59.9449,
      "duration": 2.2828,
      "velocity": 108,
      "chip": "ym2612"
    },
    {
      "channel": 2,
      "note": 49,
      "start": 59.9451,
      "duration": 4.5827,
      "velocity": 87,
      "chip": "ym2612"
    },
    {
      "channel": 4,
      "note": 42,
      "start": 59.9484,
      "duration": 4.5797,
      "velocity": 127,
      "chip": "ym2612"
    },
    {
      "channel": 0,
      "note": 87,
      "start": 62.2446,
      "duration": 2.2828,
      "velocity": 108,
      "chip": "ym2612"
    },
    {
      "channel": 1,
      "note": 83,
      "start": 62.2449,
      "duration": 2.2827,
      "velocity": 108,
      "chip": "ym2612"
    },
    {
      "channel": 0,
      "note": 88,
      "start": 64.5448,
      "duration": 2.2829,
      "velocity": 108,
      "chip": "ym2612"
    },
    {
      "channel": 1,
      "note": 80,
      "start": 64.545,
      "duration": 2.283,
      "velocity": 108,
      "chip": "ym2612"
    },
    {
      "channel": 2,
      "note": 49,
      "start": 64.5468,
      "duration": 4.5812,
      "velocity": 87,
      "chip": "ym2612"
    },
    {
      "channel": 4,
      "note": 42,
      "start": 64.55,
      "duration": 4.5782,
      "velocity": 127,
      "chip": "ym2612"
    },
    {
      "channel": 0,
      "note": 90,
      "start": 66.8441,
      "duration": 2.2833,
      "velocity": 108,
      "chip": "ym2612"
    },
    {
      "channel": 1,
      "note": 85,
      "start": 66.8444,
      "duration": 2.2833,
      "velocity": 108,
      "chip": "ym2612"
    },
    {
      "channel": 0,
      "note": 92,
      "start": 69.1463,
      "duration": 0.0141,
      "velocity": 108,
      "chip": "ym2612"
    },
    {
      "channel": 1,
      "note": 87,
      "start": 69.1466,
      "duration": 0.0138,
      "velocity": 108,
      "chip": "ym2612"
    },
    {
      "channel": 2,
      "note": 49,
      "start": 69.1468,
      "duration": 0.0136,
      "velocity": 87,
      "chip": "ym2612"
    },
    {
      "channel": 4,
      "note": 42,
      "start": 69.15,
      "duration": 0.0103,
      "velocity": 127,
      "chip": "ym2612"
    }
  ]
}