{
  "track_name": "02 - Wharf",
  "duration_sec": 76.897,
  "sample_rate": 44100,
  "note_count": 1419,
  "unique_pitches": 34,
  "pitch_range": 62,
  "avg_note_duration": 0.324,
  "reconstruction_stats": {
    "notes_reconstructed": 1419,
    "keyon_events": 1419,
    "keyoff_events": 1413,
    "orphan_keyons": 6,
    "unique_pitches": 34,
    "pitch_range": 62,
    "avg_duration_sec": 0.324
  },
  "metadata": {
    "source": "M\\Mickey Mania\\02 - Wharf.vgz"
  },
  "notes": [
    {
      "channel": 0,
      "note": 97,
      "start": 0.1032,
      "duration": 0.2361,
      "velocity": 119,
      "chip": "ym2612"
    },
    {
      "channel": 1,
      "note": 57,
      "start": 0.1067,
      "duration": 0.4727,
      "velocity": 117,
      "chip": "ym2612"
    },
    {
      "channel": 3,
      "note": 57,
      "start": 0.1104,
      "duration": 0.2334,
      "velocity": 102,
      "chip": "ym2612"
    },
    {
      "channel": 5,
      "note": 57,
      "start": 0.114,
      "duration": 0.2307,
      "velocity": 119,
      "chip": "ym2612"
    },
    {
      "channel": 0,
      "note": 97,
      "start": 0.3395,
      "duration": 0.1194,
      "velocity": 119,
      "chip": "ym2612"
    },
    {
      "channel": 2,
      "note": 61,
      "start": 0.3432,
      "duration": 0.1167,
      "velocity": 102,
      "chip": "ym2612"
    },
    {
      "channel": 3,
      "note": 64,
      "start": 0.3441,
      "duration": 0.1166,
      "velocity": 102,
      "chip": "ym2612"
    },
    {
      "channel": 5,
      "note": 64,
      "start": 0.3451,
      "duration": 0.12,
      "velocity": 119,
      "chip": "ym2612"
    },
    {
      "channel": 0,
      "note": 95,
      "start": 0.4592,
      "duration": 0.1194,
      "velocity": 119,
      "chip": "ym2612"
    },
    {
      "channel": 2,
      "note": 61,
      "start": 0.4601,
      "duration": 0.3586,
      "velocity": 102,
      "chip": "ym2612"
    },
    {
      "channel": 3,
      "note": 64,
      "start": 0.461,
      "duration": 0.1194,
      "velocity": 102,
      "chip": "ym2612"
    },
    {
      "channel": 4,
      "note": 97,
      "start": 0.4645,
      "duration": 0.234,
      "velocity": 119,
      "chip": "ym2612"
    },
    {
      "channel": 5,
      "note": 57,
      "start": 0.4654,
      "duration": 0.1159,
      "velocity": 119,
      "chip": "ym2612"
    },
    {
      "channel": 0,
      "note": 93,
      "start": 0.5789,
      "duration": 0.2389,
      "velocity": 119,
      "chip": "ym2612"
    },
    {
      "channel": 1,
      "note": 52,
      "start": 0.5797,
      "duration": 0.4781,
      "velocity": 117,
      "chip": "ym2612"
    },
    {
      "channel": 3,
      "note": 52,
      "start": 0.5806,
      "duration": 0.2389,
      "velocity": 102,
      "chip": "ym2612"
    },
    {
      "channel": 5,
      "note": 52,
      "start": 0.5816,
      "duration": 0.2397,
      "velocity": 119,
      "chip": "ym2612"
    },
    {
      "channel": 4,
      "note": 97,
      "start": 0.6988,
      "duration": 0.1216,
      "velocity": 119,
      "chip": "ym2612"
    },
    {
      "channel": 0,
      "note": 95,
      "start": 0.818,
      "duration": 0.239,
      "velocity": 119,
      "chip": "ym2612"
    },
    {
      "channel": 2,
      "note": 61,
      "start": 0.819,
      "duration": 0.4774,
      "velocity": 102,
      "chip": "ym2612"
    },
    {
      "channel": 3,
      "note": 64,
      "start": 0.8198,
      "duration": 0.239,
      "velocity": 102,
      "chip": "ym2612"
    },
    {
      "channel": 4,
      "note": 95,
      "start": 0.8207,
      "duration": 0.1171,
      "velocity": 119,
      "chip": "ym2612"
    },
    {
      "channel": 5,
      "note": 64,
      "start": 0.8215,
      "duration": 0.1171,
      "velocity": 119,
      "chip": "ym2612"
    },
    {
      "channel": 4,
      "note": 93,
      "start": 0.938,
      "duration": 0.239,
      "velocity": 119,
      "chip": "ym2612"
    },
    {
      "channel": 5,
      "note": 52,
      "start": 0.9389,
      "duration": 0.1208,
      "velocity": 119,
      "chip": "ym2612"
    },
    {
      "channel": 0,
      "note": 100,
      "start": 1.0573,
      "duration": 0.4782,
      "velocity": 119,
      "chip": "ym2612"
    },
    {
      "channel": 1,
      "note": 57,
      "start": 1.0581,
      "duration": 0.4782,
      "velocity": 117,
      "chip": "ym2612"
    },
    {
      "channel": 3,
      "note": 57,
      "start": 1.0591,
      "duration": 0.2382,
      "velocity": 102,
      "chip": "ym2612"
    },
    {
      "channel": 5,
      "note": 57,
      "start": 1.06,
      "duration": 0.2382,
      "velocity": 119,
      "chip": "ym2612"
    },
    {
      "channel": 4,
      "note": 95,
      "start": 1.1773,
      "duration": 0.2404,
      "velocity": 119,
      "chip": "ym2612"
    },
    {
      "channel": 2,
      "note": 61,
      "start": 1.2967,
      "duration": 0.1193,
      "velocity": 102,
      "chip": "ym2612"
    },
    {
      "channel": 3,
      "note": 64,
      "start": 1.2975,
      "duration": 0.1193,
      "velocity": 102,
      "chip": "ym2612"
    },
    {
      "channel": 5,
      "note": 64,
      "start": 1.2985,
      "duration": 0.1201,
      "velocity": 119,
      "chip": "ym2612"
    },
    {
      "channel": 2,
      "note": 61,
      "start": 1.4163,
      "duration": 0.3586,
      "velocity": 102,
      "chip": "ym2612"
    },
    {
      "channel": 3,
      "note": 64,
      "start": 1.4171,
      "duration": 0.1202,
      "velocity": 102,
      "chip": "ym2612"
    },
    {
      "channel": 4,
      "note": 100,
      "start": 1.418,
      "duration": 0.4767,
      "velocity": 119,
      "chip": "ym2612"
    },
    {
      "channel": 5,
      "note": 57,
      "start": 1.4188,
      "duration": 0.1194,
      "velocity": 119,
      "chip": "ym2612"
    },
    {
      "channel": 0,
      "note": 97,
      "start": 1.5358,
      "duration": 0.4781,
      "velocity": 119,
      "chip": "ym2612"
    },
    {
      "channel": 1,
      "note": 52,
      "start": 1.5366,
      "duration": 0.4781,
      "velocity": 117,
      "chip": "ym2612"
    },
    {
      "channel": 3,
      "note": 52,
      "start": 1.5376,
      "duration": 0.2381,
      "velocity": 102,
      "chip": "ym2612"
    },
    {
      "channel": 5,
      "note": 52,
      "start": 1.5385,
      "duration": 0.2381,
      "velocity": 119,
      "chip": "ym2612"
    },
    {
      "channel": 2,
      "note": 61,
      "start": 1.7751,
      "duration": 0.479,
      "velocity": 102,
      "chip": "ym2612"
    },
    {
      "channel": 3,
      "note": 64,
      "start": 1.776,
      "duration": 0.2398,
      "velocity": 102,
      "chip": "ym2612"
    },
    {
      "channel": 5,
      "note": 64,
      "start": 1.7769,
      "duration": 0.1186,
      "velocity": 119,
      "chip": "ym2612"
    },
    {
      "channel": 4,
      "note": 97,
      "start": 1.8949,
      "duration": 0.4805,
      "velocity": 119,
      "chip": "ym2612"
    },
    {
      "channel": 5,
      "note": 52,
      "start": 1.8958,
      "duration": 0.1209,
      "velocity": 119,
      "chip": "ym2612"
    },
    {
      "channel": 0,
      "note": 97,
      "start": 2.0142,
      "duration": 0.2389,
      "velocity": 119,
      "chip": "ym2612"
    },
    {
      "channel": 1,
      "note": 57,
      "start": 2.0151,
      "duration": 0.4782,
      "velocity": 117,
      "chip": "ym2612"
    },
    {
      "channel": 3,
      "note": 57,
      "start": 2.016,
      "duration": 0.2389,
      "velocity": 102,
      "chip": "ym2612"
    },
    {
      "channel": 5,
      "note": 57,
      "start": 2.017,
      "duration": 0.2389,
      "velocity": 119,
      "chip": "ym2612"
    },
    {
      "channel": 0,
      "note": 97,
      "start": 2.2534,
      "duration": 0.1194,
      "velocity": 119,
      "chip": "ym2612"
    },
    {
      "channel": 2,
      "note": 61,
      "start": 2.2544,
      "duration": 0.1194,
      "velocity": 102,
      "chip": "ym2612"
    },
    {
      "channel": 3,
      "note": 64,
      "start": 2.2552,
      "duration": 0.1194,
      "velocity": 102,
      "chip": "ym2612"
    },
    {
      "channel": 5,
      "note": 64,
      "start": 2.2562,
      "duration": 0.1201,
      "velocity": 119,
      "chip": "ym2612"
    },
    {
      "channel": 0,
      "note": 95,
      "start": 2.3731,
      "duration": 0.1194,
      "velocity": 119,
      "chip": "ym2612"
    },
    {
      "channel": 2,
      "note": 61,
      "start": 2.374,
      "duration": 0.3586,
      "velocity": 102,
      "chip": "ym2612"
    },
    {
      "channel": 3,
      "note": 64,
      "start": 2.3749,
      "duration": 0.1193,
      "velocity": 102,
      "chip": "ym2612"
    },
    {
      "channel": 4,
      "note": 97,
      "start": 2.3757,
      "duration": 0.2367,
      "velocity": 119,
      "chip": "ym2612"
    },
    {
      "channel": 5,
      "note": 57,
      "start": 2.3766,
      "duration": 0.1186,
      "velocity": 119,
      "chip": "ym2612"
    },
    {
      "channel": 0,
      "note": 93,
      "start": 2.4927,
      "duration": 0.2389,
      "velocity": 119,
      "chip": "ym2612"
    },
    {
      "channel": 1,
      "note": 52,
      "start": 2.4936,
      "duration": 0.4782,
      "velocity": 117,
      "chip": "ym2612"
    },
    {
      "channel": 3,
      "note": 52,
      "start": 2.4945,
      "duration": 0.2389,
      "velocity": 102,
      "chip": "ym2612"
    },
    {
      "channel": 5,
      "note": 52,
      "start": 2.4955,
      "duration": 0.2397,
      "velocity": 119,
      "chip": "ym2612"
    },
    {
      "channel": 4,
      "note": 97,
      "start": 2.6127,
      "duration": 0.1216,
      "velocity": 119,
      "chip": "ym2612"
    },
    {
      "channel": 0,
      "note": 97,
      "start": 2.732,
      "duration": 0.239,
      "velocity": 119,
      "chip": "ym2612"
    },
    {
      "channel": 2,
      "note": 61,
      "start": 2.7329,
      "duration": 0.4774,
      "velocity": 102,
      "chip": "ym2612"
    },
    {
      "channel": 3,
      "note": 64,
      "start": 2.7337,
      "duration": 0.239,
      "velocity": 102,
      "chip": "ym2612"
    },
    {
      "channel": 4,
      "note": 95,
      "start": 2.7346,
      "duration": 0.1171,
      "velocity": 119,
      "chip": "ym2612"
    },
    {
      "channel": 5,
      "note": 64,
      "start": 2.7354,
      "duration": 0.1171,
      "velocity": 119,
      "chip": "ym2612"
    },
    {
      "channel": 4,
      "note": 93,
      "start": 2.8519,
      "duration": 0.239,
      "velocity": 119,
      "chip": "ym2612"
    },
    {
      "channel": 5,
      "note": 52,
      "start": 2.8528,
      "duration": 0.1208,
      "velocity": 119,
      "chip": "ym2612"
    },
    {
      "channel": 0,
      "note": 95,
      "start": 2.9712,
      "duration": 0.9567,
      "velocity": 119,
      "chip": "ym2612"
    },
    {
      "channel": 1,
      "note": 59,
      "start": 2.972,
      "duration": 0.4775,
      "velocity": 117,
      "chip": "ym2612"
    },
    {
      "channel": 3,
      "note": 59,
      "start": 2.9729,
      "duration": 0.2382,
      "velocity": 102,
      "chip": "ym2612"
    },
    {
      "channel": 5,
      "note": 59,
      "start": 2.9739,
      "duration": 0.2382,
      "velocity": 119,
      "chip": "ym2612"
    },
    {
      "channel": 4,
      "note": 97,
      "start": 3.0912,
      "duration": 0.2405,
      "velocity": 119,
      "chip": "ym2612"
    },
    {
      "channel": 2,
      "note": 59,
      "start": 3.2106,
      "duration": 0.1193,
      "velocity": 102,
      "chip": "ym2612"
    },
    {
      "channel": 3,
      "note": 64,
      "start": 3.2114,
      "duration": 0.1193,
      "velocity": 102,
      "chip": "ym2612"
    },
    {
      "channel": 5,
      "note": 64,
      "start": 3.2124,
      "duration": 0.1201,
      "velocity": 119,
      "chip": "ym2612"
    },
    {
      "channel": 2,
      "note": 59,
      "start": 3.3302,
      "duration": 0.3585,
      "velocity": 102,
      "chip": "ym2612"
    },
    {
      "channel": 3,
      "note": 64,
      "start": 3.331,
      "duration": 0.1194,
      "velocity": 102,
      "chip": "ym2612"
    },
    {
      "channel": 4,
      "note": 95,
      "start": 3.3319,
      "duration": 0.9575,
      "velocity": 119,
      "chip": "ym2612"
    },
    {
      "channel": 5,
      "note": 59,
      "start": 3.3327,
      "duration": 0.1186,
      "velocity": 119,
      "chip": "ym2612"
    },
    {
      "channel": 1,
      "note": 52,
      "start": 3.4498,
      "duration": 0.4789,
      "velocity": 117,
      "chip": "ym2612"
    },
    {
      "channel": 3,
      "note": 52,
      "start": 3.4507,
      "duration": 0.2389,
      "velocity": 102,
      "chip": "ym2612"
    },
    {
      "channel": 5,
      "note": 52,
      "start": 3.4516,
      "duration": 0.2389,
      "velocity": 119,
      "chip": "ym2612"
    },
    {
      "channel": 2,
      "note": 59,
      "start": 3.689,
      "duration": 0.479,
      "velocity": 102,
      "chip": "ym2612"
    },
    {
      "channel": 3,
      "note": 64,
      "start": 3.6899,
      "duration": 0.2398,
      "velocity": 102,
      "chip": "ym2612"
    },
    {
      "channel": 5,
      "note": 64,
      "start": 3.6908,
      "duration": 0.1178,
      "velocity": 119,
      "chip": "ym2612"
    },
    {
      "channel": 5,
      "note": 52,
      "start": 3.8089,
      "duration": 0.1216,
      "velocity": 119,
      "chip": "ym2612"
    },
    {
      "channel": 0,
      "note": 97,
      "start": 3.9281,
      "duration": 0.239,
      "velocity": 119,
      "chip": "ym2612"
    },
    {
      "channel": 1,
      "note": 57,
      "start": 3.929,
      "duration": 0.4783,
      "velocity": 117,
      "chip": "ym2612"
    },
    {
      "channel": 3,
      "note": 57,
      "start": 3.9299,
      "duration": 0.239,
      "velocity": 102,
      "chip": "ym2612"
    },
    {
      "channel": 5,
      "note": 57,
      "start": 3.9308,
      "duration": 0.239,
      "velocity": 119,
      "chip": "ym2612"
    },
    {
      "channel": 0,
      "note": 97,
      "start": 4.1674,
      "duration": 0.1194,
      "velocity": 119,
      "chip": "ym2612"
    },
    {
      "channel": 2,
      "note": 61,
      "start": 4.1683,
      "duration": 0.1193,
      "velocity": 102,
      "chip": "ym2612"
    },
    {
      "channel": 3,
      "note": 64,
      "start": 4.1691,
      "duration": 0.1194,
      "velocity": 102,
      "chip": "ym2612"
    },
    {
      "channel": 5,
      "note": 64,
      "start": 4.1701,
      "duration": 0.1201,
      "velocity": 119,
      "chip": "ym2612"
    },
    {
      "channel": 0,
      "note": 95,
      "start": 4.287,
      "duration": 0.1194,
      "velocity": 119,
      "chip": "ym2612"
    },
    {
      "channel": 2,
      "note": 61,
      "start": 4.2879,
      "duration": 0.3586,
      "velocity": 102,
      "chip": "ym2612"
    },
    {
      "channel": 3,
      "note": 64,
      "start": 4.2888,
      "duration": 0.1194,
      "velocity": 102,
      "chip": "ym2612"
    },
    {
      "channel": 4,
      "note": 97,
      "start": 4.2896,
      "duration": 0.2367,
      "velocity": 119,
      "chip": "ym2612"
    },
    {
      "channel": 5,
      "note": 57,
      "start": 4.2905,
      "duration": 0.1186,
      "velocity": 119,
      "chip": "ym2612"
    },
    {
      "channel": 0,
      "note": 93,
      "start": 4.4067,
      "duration": 0.2389,
      "velocity": 119,
      "chip": "ym2612"
    },
    {
      "channel": 1,
      "note": 52,
      "start": 4.4075,
      "duration": 0.4782,
      "velocity": 117,
      "chip": "ym2612"
    },
    {
      "channel": 3,
      "note": 52,
      "start": 4.4084,
      "duration": 0.2389,
      "velocity": 102,
      "chip": "ym2612"
    },
    {
      "channel": 5,
      "note": 52,
      "start": 4.4094,
      "duration": 0.2397,
      "velocity": 119,
      "chip": "ym2612"
    },
    {
      "channel": 4,
      "note": 97,
      "start": 4.5266,
      "duration": 0.1216,
      "velocity": 119,
      "chip": "ym2612"
    },
    {
      "channel": 0,
      "note": 95,
      "start": 4.6459,
      "duration": 0.239,
      "velocity": 119,
      "chip": "ym2612"
    },
    {
      "channel": 2,
      "note": 61,
      "start": 4.6468,
      "duration": 0.4774,
      "velocity": 102,
      "chip": "ym2612"
    },
    {
      "channel": 3,
      "note": 64,
      "start": 4.6476,
      "duration": 0.239,
      "velocity": 102,
      "chip": "ym2612"
    },
    {
      "channel": 4,
      "note": 95,
      "start": 4.6485,
      "duration": 0.1171,
      "velocity": 119,
      "chip": "ym2612"
    },
    {
      "channel": 5,
      "note": 64,
      "start": 4.6493,
      "duration": 0.1171,
      "velocity": 119,
      "chip": "ym2612"
    },
    {
      "channel": 4,
      "note": 93,
      "start": 4.7659,
      "duration": 0.239,
      "velocity": 119,
      "chip": "ym2612"
    },
    {
      "channel": 5,
      "note": 52,
      "start": 4.7667,
      "duration": 0.1208,
      "velocity": 119,
      "chip": "ym2612"
    },
    {
      "channel": 0,
      "note": 102,
      "start": 4.8851,
      "duration": 0.4782,
      "velocity": 119,
      "chip": "ym2612"
    },
    {
      "channel": 1,
      "note": 62,
      "start": 4.886,
      "duration": 0.4782,
      "velocity": 117,
      "chip": "ym2612"
    },
    {
      "channel": 3,
      "note": 62,
      "start": 4.8869,
      "duration": 0.2382,
      "velocity": 102,
      "chip": "ym2612"
    },
    {
      "channel": 5,
      "note": 57,
      "start": 4.8878,
      "duration": 0.2382,
      "velocity": 119,
      "chip": "ym2612"
    },
    {
      "channel": 4,
      "note": 95,
      "start": 5.0051,
      "duration": 0.2404,
      "velocity": 119,
      "chip": "ym2612"
    },
    {
      "channel": 2,
      "note": 62,
      "start": 5.1245,
      "duration": 0.1193,
      "velocity": 102,
      "chip": "ym2612"
    },
    {
      "channel": 3,
      "note": 66,
      "start": 5.1254,
      "duration": 0.1193,
      "velocity": 102,
      "chip": "ym2612"
    },
    {
      "channel": 5,
      "note": 62,
      "start": 5.1263,
      "duration": 0.1201,
      "velocity": 119,
      "chip": "ym2612"
    },
    {
      "channel": 2,
      "note": 62,
      "start": 5.2441,
      "duration": 0.3585,
      "velocity": 102,
      "chip": "ym2612"
    },
    {
      "channel": 3,
      "note": 66,
      "start": 5.2449,
      "duration": 0.1202,
      "velocity": 102,
      "chip": "ym2612"
    },
    {
      "channel": 4,
      "note": 102,
      "start": 5.2458,
      "duration": 0.4767,
      "velocity": 119,
      "chip": "ym2612"
    },
    {
      "channel": 5,
      "note": 57,
      "start": 5.2467,
      "duration": 0.1194,
      "velocity": 119,
      "chip": "ym2612"
    },
    {
      "channel": 0,
      "note": 100,
      "start": 5.3636,
      "duration": 0.4782,
      "velocity": 119,
      "chip": "ym2612"
    },
    {
      "channel": 1,
      "note": 57,
      "start": 5.3645,
      "duration": 0.4782,
      "velocity": 117,
      "chip": "ym2612"
    },
    {
      "channel": 3,
      "note": 57,
      "start": 5.3654,
      "duration": 0.2381,
      "velocity": 102,
      "chip": "ym2612"
    },
    {
      "channel": 5,
      "note": 50,
      "start": 5.3663,
      "duration": 0.2381,
      "velocity": 119,
      "chip": "ym2612"
    },
    {
      "channel": 2,
      "note": 62,
      "start": 5.6029,
      "duration": 0.479,
      "velocity": 102,
      "chip": "ym2612"
    },
    {
      "channel": 3,
      "note": 66,
      "start": 5.6038,
      "duration": 0.2398,
      "velocity": 102,
      "chip": "ym2612"
    },
    {
      "channel": 5,
      "note": 62,
      "start": 5.6047,
      "duration": 0.1186,
      "velocity": 119,
      "chip": "ym2612"
    },
    {
      "channel": 4,
      "note": 100,
      "start": 5.7228,
      "duration": 0.4805,
      "velocity": 119,
      "chip": "ym2612"
    },
    {
      "channel": 5,
      "note": 50,
      "start": 5.7237,
      "duration": 0.1209,
      "velocity": 119,
      "chip": "ym2612"
    },
    {
      "channel": 0,
      "note": 97,
      "start": 5.8421,
      "duration": 0.2389,
      "velocity": 119,
      "chip": "ym2612"
    },
    {
      "channel": 1,
      "note": 59,
      "start": 5.8429,
      "duration": 0.4782,
      "velocity": 117,
      "chip": "ym2612"
    },
    {
      "channel": 3,
      "note": 59,
      "start": 5.8439,
      "duration": 0.2389,
      "velocity": 102,
      "chip": "ym2612"
    },
    {
      "channel": 5,
      "note": 59,
      "start": 5.8448,
      "duration": 0.2389,
      "velocity": 119,
      "chip": "ym2612"
    },
    {
      "channel": 0,
      "note": 97,
      "start": 6.0813,
      "duration": 0.1194,
      "velocity": 119,
      "chip": "ym2612"
    },
    {
      "channel": 2,
      "note": 59,
      "start": 6.0822,
      "duration": 0.1194,
      "velocity": 102,
      "chip": "ym2612"
    },
    {
      "channel": 3,
      "note": 64,
      "start": 6.083,
      "duration": 0.1194,
      "velocity": 102,
      "chip": "ym2612"
    },
    {
      "channel": 5,
      "note": 64,
      "start": 6.084,
      "duration": 0.1201,
      "velocity": 119,
      "chip": "ym2612"
    },
    {
      "channel": 0,
      "note": 97,
      "start": 6.2009,
      "duration": 0.1194,
      "velocity": 119,
      "chip": "ym2612"
    },
    {
      "channel": 2,
      "note": 59,
      "start": 6.2018,
      "duration": 0.3586,
      "velocity": 102,
      "chip": "ym2612"
    },
    {
      "channel": 3,
      "note": 64,
      "start": 6.2027,
      "duration": 0.1194,
      "velocity": 102,
      "chip": "ym2612"
    },
    {
      "channel": 4,
      "note": 97,
      "start": 6.2035,
      "duration": 0.2367,
      "velocity": 119,
      "chip": "ym2612"
    },
    {
      "channel": 5,
      "note": 59,
      "start": 6.2044,
      "duration": 0.1186,
      "velocity": 119,
      "chip": "ym2612"
    },
    {
      "channel": 0,
      "note": 95,
      "start": 6.3206,
      "duration": 0.2389,
      "velocity": 119,
      "chip": "ym2612"
    },
    {
      "channel": 1,
      "note": 52,
      "start": 6.3214,
      "duration": 0.4782,
      "velocity": 117,
      "chip": "ym2612"
    },
    {
      "channel": 3,
      "note": 52,
      "start": 6.3223,
      "duration": 0.2389,
      "velocity": 102,
      "chip": "ym2612"
    },
    {
      "channel": 5,
      "note": 52,
      "start": 6.3233,
      "duration": 0.2397,
      "velocity": 119,
      "chip": "ym2612"
    },
    {
      "channel": 4,
      "note": 97,
      "start": 6.4405,
      "duration": 0.1216,
      "velocity": 119,
      "chip": "ym2612"
    },
    {
      "channel": 0,
      "note": 97,
      "start": 6.5598,
      "duration": 0.239,
      "velocity": 119,
      "chip": "ym2612"
    },
    {
      "channel": 2,
      "note": 59,
      "start": 6.5607,
      "duration": 0.4774,
      "velocity": 102,
      "chip": "ym2612"
    },
    {
      "channel": 3,
      "note": 64,
      "start": 6.5615,
      "duration": 0.239,
      "velocity": 102,
      "chip": "ym2612"
    },
    {
      "channel": 4,
      "note": 97,
      "start": 6.5624,
      "duration": 0.1171,
      "velocity": 119,
      "chip": "ym2612"
    },
    {
      "channel": 5,
      "note": 64,
      "start": 6.5633,
      "duration": 0.1171,
      "velocity": 119,
      "chip": "ym2612"
    },
    {
      "channel": 4,
      "note": 95,
      "start": 6.6798,
      "duration": 0.239,
      "velocity": 119,
      "chip": "ym2612"
    },
    {
      "channel": 5,
      "note": 52,
      "start": 6.6806,
      "duration": 0.1209,
      "velocity": 119,
      "chip": "ym2612"
    },
    {
      "channel": 0,
      "note": 93,
      "start": 6.799,
      "duration": 0.9568,
      "velocity": 119,
      "chip": "ym2612"
    },
    {
      "channel": 1,
      "note": 57,
      "start": 6.7999,
      "duration": 0.4774,
      "velocity": 117,
      "chip": "ym2612"
    },
    {
      "channel": 3,
      "note": 57,
      "start": 6.8008,
      "duration": 0.2382,
      "velocity": 102,
      "chip": "ym2612"
    },
    {
      "channel": 5,
      "note": 57,
      "start": 6.8017,
      "duration": 0.2382,
      "velocity": 119,
      "chip": "ym2612"
    },
    {
      "channel": 4,
      "note": 97,
      "start": 6.919,
      "duration": 0.2404,
      "velocity": 119,
      "chip": "ym2612"
    },
    {
      "channel": 2,
      "note": 61,
      "start": 7.0384,
      "duration": 0.1193,
      "velocity": 102,
      "chip": "ym2612"
    },
    {
      "channel": 3,
      "note": 64,
      "start": 7.0393,
      "duration": 0.1193,
      "velocity": 102,
      "chip": "ym2612"
    },
    {
      "channel": 5,
      "note": 64,
      "start": 7.0402,
      "duration": 0.1201,
      "velocity": 119,
      "chip": "ym2612"
    },
    {
      "channel": 2,
      "note": 61,
      "start": 7.158,
      "duration": 0.3585,
      "velocity": 102,
      "chip": "ym2612"
    },
    {
      "channel": 3,
      "note": 64,
      "start": 7.1589,
      "duration": 0.1194,
      "velocity": 102,
      "chip": "ym2612"
    },
    {
      "channel": 4,
      "note": 93,
      "start": 7.1597,
      "duration": 0.9576,
      "velocity": 119,
      "chip": "ym2612"
    },
    {
      "channel": 5,
      "note": 57,
      "start": 7.1606,
      "duration": 0.1186,
      "velocity": 119,
      "chip": "ym2612"
    },
    {
      "channel": 1,
      "note": 52,
      "start": 7.2776,
      "duration": 0.4792,
      "velocity": 117,
      "chip": "ym2612"
    },
    {
      "channel": 3,
      "note": 52,
      "start": 7.2785,
      "duration": 0.2389,
      "velocity": 102,
      "chip": "ym2612"
    },
    {
      "channel": 5,
      "note": 52,
      "start": 7.2795,
      "duration": 0.2389,
      "velocity": 119,
      "chip": "ym2612"
    },
    {
      "channel": 2,
      "note": 61,
      "start": 7.5168,
      "duration": 0.4791,
      "velocity": 102,
      "chip": "ym2612"
    },
    {
      "channel": 3,
      "note": 64,
      "start": 7.5177,
      "duration": 0.2401,
      "velocity": 102,
      "chip": "ym2612"
    },
    {
      "channel": 5,
      "note": 64,
      "start": 7.5187,
      "duration": 0.1178,
      "velocity": 119,
      "chip": "ym2612"
    },
    {
      "channel": 5,
      "note": 52,
      "start": 7.6368,
      "duration": 0.122,
      "velocity": 119,
      "chip": "ym2612"
    },
    {
      "channel": 0,
      "note": 85,
      "start": 7.7561,
      "duration": 0.2388,
      "velocity": 119,
      "chip": "ym2612"
    },
    {
      "channel": 1,
      "note": 57,
      "start": 7.7571,
      "duration": 0.478,
      "velocity": 117,
      "chip": "ym2612"
    },
    {
      "channel": 3,
      "note": 57,
      "start": 7.7581,
      "duration": 0.2388,
      "velocity": 102,
      "chip": "ym2612"
    },
    {
      "channel": 5,
      "note": 57,
      "start": 7.7591,
      "duration": 0.2387,
      "velocity": 119,
      "chip": "ym2612"
    },
    {
      "channel": 0,
      "note": 85,
      "start": 7.9952,
      "duration": 0.1194,
      "velocity": 119,
      "chip": "ym2612"
    },
    {
      "channel": 2,
      "note": 61,
      "start": 7.9962,
      "duration": 0.1193,
      "velocity": 102,
      "chip": "ym2612"
    },
    {
      "channel": 3,
      "note": 64,
      "start": 7.9971,
      "duration": 0.1192,
      "velocity": 102,
      "chip": "ym2612"
    },
    {
      "channel": 5,
      "note": 64,
      "start": 7.9981,
      "duration": 0.12,
      "velocity": 119,
      "chip": "ym2612"
    },
    {
      "channel": 0,
      "note": 83,
      "start": 8.1149,
      "duration": 0.1194,
      "velocity": 119,
      "chip": "ym2612"
    },
    {
      "channel": 2,
      "note": 61,
      "start": 8.1158,
      "duration": 0.3586,
      "velocity": 102,
      "chip": "ym2612"
    },
    {
      "channel": 3,
      "note": 64,
      "start": 8.1166,
      "duration": 0.1194,
      "velocity": 102,
      "chip": "ym2612"
    },
    {
      "channel": 4,
      "note": 85,
      "start": 8.1175,
      "duration": 0.2366,
      "velocity": 119,
      "chip": "ym2612"
    },
    {
      "channel": 5,
      "note": 57,
      "start": 8.1184,
      "duration": 0.1185,
      "velocity": 119,
      "chip": "ym2612"
    },
    {
      "channel": 0,
      "note": 81,
      "start": 8.2345,
      "duration": 0.2389,
      "velocity": 119,
      "chip": "ym2612"
    },
    {
      "channel": 1,
      "note": 52,
      "start": 8.2353,
      "duration": 0.4782,
      "velocity": 117,
      "chip": "ym2612"
    },
    {
      "channel": 3,
      "note": 52,
      "start": 8.2363,
      "duration": 0.2389,
      "velocity": 102,
      "chip": "ym2612"
    },
    {
      "channel": 5,
      "note": 52,
      "start": 8.2372,
      "duration": 0.2397,
      "velocity": 119,
      "chip": "ym2612"
    },
    {
      "channel": 4,
      "note": 85,
      "start": 8.3544,
      "duration": 0.1216,
      "velocity": 119,
      "chip": "ym2612"
    },
    {
      "channel": 0,
      "note": 83,
      "start": 8.4737,
      "duration": 0.239,
      "velocity": 119,
      "chip": "ym2612"
    },
    {
      "channel": 2,
      "note": 61,
      "start": 8.4746,
      "duration": 0.4774,
      "velocity": 102,
      "chip": "ym2612"
    },
    {
      "channel": 3,
      "note": 64,
      "start": 8.4755,
      "duration": 0.239,
      "velocity": 102,
      "chip": "ym2612"
    },
    {
      "channel": 4,
      "note": 83,
      "start": 8.4763,
      "duration": 0.1171,
      "velocity": 119,
      "chip": "ym2612"
    },
    {
      "channel": 5,
      "note": 64,
      "start": 8.4772,
      "duration": 0.1171,
      "velocity": 119,
      "chip": "ym2612"
    },
    {
      "channel": 4,
      "note": 81,
      "start": 8.5937,
      "duration": 0.239,
      "velocity": 119,
      "chip": "ym2612"
    },
    {
      "channel": 5,
      "note": 52,
      "start": 8.5945,
      "duration": 0.1208,
      "velocity": 119,
      "chip": "ym2612"
    },
    {
      "channel": 0,
      "note": 88,
      "start": 8.7129,
      "duration": 0.4783,
      "velocity": 119,
      "chip": "ym2612"
    },
    {
      "channel": 1,
      "note": 57,
      "start": 8.7138,
      "duration": 0.4783,
      "velocity": 117,
      "chip": "ym2612"
    },
    {
      "channel": 3,
      "note": 57,
      "start": 8.7147,
      "duration": 0.2382,
      "velocity": 102,
      "chip": "ym2612"
    },
    {
      "channel": 5,
      "note": 57,
      "start": 8.7157,
      "duration": 0.2382,
      "velocity": 119,
      "chip": "ym2612"
    },
    {
      "channel": 4,
      "note": 83,
      "start": 8.8329,
      "duration": 0.2404,
      "velocity": 119,
      "chip": "ym2612"
    },
    {
      "channel": 2,
      "note": 61,
      "start": 8.9523,
      "duration": 0.1193,
      "velocity": 102,
      "chip": "ym2612"
    },
    {
      "channel": 3,
      "note": 64,
      "start": 8.9532,
      "duration": 0.1193,
      "velocity": 102,
      "chip": "ym2612"
    },
    {
      "channel": 5,
      "note": 64,
      "start": 8.9541,
      "duration": 0.1201,
      "velocity": 119,
      "chip": "ym2612"
    },
    {
      "channel": 2,
      "note": 61,
      "start": 9.0719,
      "duration": 0.3585,
      "velocity": 102,
      "chip": "ym2612"
    },
    {
      "channel": 3,
      "note": 64,
      "start": 9.0728,
      "duration": 0.1202,
      "velocity": 102,
      "chip": "ym2612"
    },
    {
      "channel": 4,
      "note": 88,
      "start": 9.0736,
      "duration": 0.4767,
      "velocity": 119,
      "chip": "ym2612"
    },
    {
      "channel": 5,
      "note": 57,
      "start": 9.0745,
      "duration": 0.1194,
      "velocity": 119,
      "chip": "ym2612"
    },
    {
      "channel": 0,
      "note": 85,
      "start": 9.1915,
      "duration": 0.4782,
      "velocity": 119,
      "chip": "ym2612"
    },
    {
      "channel": 1,
      "note": 52,
      "start": 9.1923,
      "duration": 0.4782,
      "velocity": 117,
      "chip": "ym2612"
    },
    {
      "channel": 3,
      "note": 52,
      "start": 9.1932,
      "duration": 0.2381,
      "velocity": 102,
      "chip": "ym2612"
    },
    {
      "channel": 5,
      "note": 52,
      "start": 9.1942,
      "duration": 0.2381,
      "velocity": 119,
      "chip": "ym2612"
    },
    {
      "channel": 2,
      "note": 61,
      "start": 9.4308,
      "duration": 0.479,
      "velocity": 102,
      "chip": "ym2612"
    },
    {
      "channel": 3,
      "note": 64,
      "start": 9.4316,
      "duration": 0.2398,
      "velocity": 102,
      "chip": "ym2612"
    },
    {
      "channel": 5,
      "note": 64,
      "start": 9.4326,
      "duration": 0.1186,
      "velocity": 119,
      "chip": "ym2612"
    },
    {
      "channel": 4,
      "note": 85,
      "start": 9.5506,
      "duration": 0.4805,
      "velocity": 119,
      "chip": "ym2612"
    },
    {
      "channel": 5,
      "note": 52,
      "start": 9.5515,
      "duration": 0.1209,
      "velocity": 119,
      "chip": "ym2612"
    },
    {
      "channel": 0,
      "note": 85,
      "start": 9.6699,
      "duration": 0.2389,
      "velocity": 119,
      "chip": "ym2612"
    },
    {
      "channel": 1,
      "note": 57,
      "start": 9.6707,
      "duration": 0.4782,
      "velocity": 117,
      "chip": "ym2612"
    },
    {
      "channel": 3,
      "note": 57,
      "start": 9.6717,
      "duration": 0.2389,
      "velocity": 102,
      "chip": "ym2612"
    },
    {
      "channel": 5,
      "note": 57,
      "start": 9.6726,
      "duration": 0.2389,
      "velocity": 119,
      "chip": "ym2612"
    },
    {
      "channel": 0,
      "note": 85,
      "start": 9.9091,
      "duration": 0.1193,
      "velocity": 119,
      "chip": "ym2612"
    },
    {
      "channel": 2,
      "note": 61,
      "start": 9.91,
      "duration": 0.1194,
      "velocity": 102,
      "chip": "ym2612"
    },
    {
      "channel": 3,
      "note": 64,
      "start": 9.9109,
      "duration": 0.1194,
      "velocity": 102,
      "chip": "ym2612"
    },
    {
      "channel": 5,
      "note": 64,
      "start": 9.9118,
      "duration": 0.1201,
      "velocity": 119,
      "chip": "ym2612"
    },
    {
      "channel": 0,
      "note": 83,
      "start": 10.0288,
      "duration": 0.1194,
      "velocity": 119,
      "chip": "ym2612"
    },
    {
      "channel": 2,
      "note": 61,
      "start": 10.0297,
      "duration": 0.3586,
      "velocity": 102,
      "chip": "ym2612"
    },
    {
      "channel": 3,
      "note": 64,
      "start": 10.0305,
      "duration": 0.1194,
      "velocity": 102,
      "chip": "ym2612"
    },
    {
      "channel": 4,
      "note": 85,
      "start": 10.0314,
      "duration": 0.2367,
      "velocity": 119,
      "chip": "ym2612"
    },
    {
      "channel": 5,
      "note": 57,
      "start": 10.0322,
      "duration": 0.1186,
      "velocity": 119,
      "chip": "ym2612"
    },
    {
      "channel": 0,
      "note": 81,
      "start": 10.1484,
      "duration": 0.2389,
      "velocity": 119,
      "chip": "ym2612"
    },
    {
      "channel": 1,
      "note": 52,
      "start": 10.1492,
      "duration": 0.4782,
      "velocity": 117,
      "chip": "ym2612"
    },
    {
      "channel": 3,
      "note": 52,
      "start": 10.1502,
      "duration": 0.2389,
      "velocity": 102,
      "chip": "ym2612"
    },
    {
      "channel": 5,
      "note": 52,
      "start": 10.1511,
      "duration": 0.2397,
      "velocity": 119,
      "chip": "ym2612"
    },
    {
      "channel": 4,
      "note": 85,
      "start": 10.2683,
      "duration": 0.1216,
      "velocity": 119,
      "chip": "ym2612"
    },
    {
      "channel": 0,
      "note": 85,
      "start": 10.3876,
      "duration": 0.239,
      "velocity": 119,
      "chip": "ym2612"
    },
    {
      "channel": 2,
      "note": 61,
      "start": 10.3885,
      "duration": 0.4774,
      "velocity": 102,
      "chip": "ym2612"
    },
    {
      "channel": 3,
      "note": 64,
      "start": 10.3894,
      "duration": 0.239,
      "velocity": 102,
      "chip": "ym2612"
    },
    {
      "channel": 4,
      "note": 83,
      "start": 10.3902,
      "duration": 0.1171,
      "velocity": 119,
      "chip": "ym2612"
    },
    {
      "channel": 5,
      "note": 64,
      "start": 10.3911,
      "duration": 0.1171,
      "velocity": 119,
      "chip": "ym2612"
    },
    {
      "channel": 4,
      "note": 81,
      "start": 10.5076,
      "duration": 0.239,
      "velocity": 119,
      "chip": "ym2612"
    },
    {
      "channel": 5,
      "note": 52,
      "start": 10.5084,
      "duration": 0.1209,
      "velocity": 119,
      "chip": "ym2612"
    },
    {
      "channel": 0,
      "note": 83,
      "start": 10.6268,
      "duration": 0.9566,
      "velocity": 119,
      "chip": "ym2612"
    },
    {
      "channel": 1,
      "note": 59,
      "start": 10.6277,
      "duration": 0.4775,
      "velocity": 117,
      "chip": "ym2612"
    },
    {
      "channel": 3,
      "note": 59,
      "start": 10.6286,
      "duration": 0.2382,
      "velocity": 102,
      "chip": "ym2612"
    },
    {
      "channel": 5,
      "note": 59,
      "start": 10.6296,
      "duration": 0.2382,
      "velocity": 119,
      "chip": "ym2612"
    },
    {
      "channel": 4,
      "note": 85,
      "start": 10.7468,
      "duration": 0.2404,
      "velocity": 119,
      "chip": "ym2612"
    },
    {
      "channel": 2,
      "note": 59,
      "start": 10.8662,
      "duration": 0.1193,
      "velocity": 102,
      "chip": "ym2612"
    },
    {
      "channel": 3,
      "note": 64,
      "start": 10.8671,
      "duration": 0.1193,
      "velocity": 102,
      "chip": "ym2612"
    },
    {
      "channel": 5,
      "note": 64,
      "start": 10.868,
      "duration": 0.1201,
      "velocity": 119,
      "chip": "ym2612"
    },
    {
      "channel": 2,
      "note": 59,
      "start": 10.9859,
      "duration": 0.3585,
      "velocity": 102,
      "chip": "ym2612"
    },
    {
      "channel": 3,
      "note": 64,
      "start": 10.9867,
      "duration": 0.1194,
      "velocity": 102,
      "chip": "ym2612"
    },
    {
      "channel": 4,
      "note": 83,
      "start": 10.9876,
      "duration": 0.9575,
      "velocity": 119,
      "chip": "ym2612"
    },
    {
      "channel": 5,
      "note": 59,
      "start": 10.9884,
      "duration": 0.1186,
      "velocity": 119,
      "chip": "ym2612"
    },
    {
      "channel": 1,
      "note": 52,
      "start": 11.1054,
      "duration": 0.4789,
      "velocity": 117,
      "chip": "ym2612"
    },
    {
      "channel": 3,
      "note": 52,
      "start": 11.1063,
      "duration": 0.2389,
      "velocity": 102,
      "chip": "ym2612"
    },
    {
      "channel": 5,
      "note": 52,
      "start": 11.1073,
      "duration": 0.2389,
      "velocity": 119,
      "chip": "ym2612"
    },
    {
      "channel": 2,
      "note": 59,
      "start": 11.3447,
      "duration": 0.479,
      "velocity": 102,
      "chip": "ym2612"
    },
    {
      "channel": 3,
      "note": 64,
      "start": 11.3455,
      "duration": 0.2397,
      "velocity": 102,
      "chip": "ym2612"
    },
    {
      "channel": 5,
      "note": 64,
      "start": 11.3465,
      "duration": 0.1178,
      "velocity": 119,
      "chip": "ym2612"
    },
    {
      "channel": 5,
      "note": 52,
      "start": 11.4646,
      "duration": 0.1216,
      "velocity": 119,
      "chip": "ym2612"
    },
    {
      "channel": 0,
      "note": 85,
      "start": 11.5838,
      "duration": 0.239,
      "velocity": 119,
      "chip": "ym2612"
    },
    {
      "channel": 1,
      "note": 57,
      "start": 11.5846,
      "duration": 0.4783,
      "velocity": 117,
      "chip": "ym2612"
    },
    {
      "channel": 3,
      "note": 57,
      "start": 11.5856,
      "duration": 0.239,
      "velocity": 102,
      "chip": "ym2612"
    },
    {
      "channel": 5,
      "note": 57,
      "start": 11.5865,
      "duration": 0.239,
      "velocity": 119,
      "chip": "ym2612"
    },
    {
      "channel": 0,
      "note": 85,
      "start": 11.823,
      "duration": 0.1194,
      "velocity": 119,
      "chip": "ym2612"
    },
    {
      "channel": 2,
      "note": 61,
      "start": 11.8239,
      "duration": 0.1194,
      "velocity": 102,
      "chip": "ym2612"
    },
    {
      "channel": 3,
      "note": 64,
      "start": 11.8248,
      "duration": 0.1194,
      "velocity": 102,
      "chip": "ym2612"
    },
    {
      "channel": 5,
      "note": 64,
      "start": 11.8258,
      "duration": 0.1201,
      "velocity": 119,
      "chip": "ym2612"
    },
    {
      "channel": 0,
      "note": 83,
      "start": 11.9427,
      "duration": 0.1194,
      "velocity": 119,
      "chip": "ym2612"
    },
    {
      "channel": 2,
      "note": 61,
      "start": 11.9436,
      "duration": 0.3586,
      "velocity": 102,
      "chip": "ym2612"
    },
    {
      "channel": 3,
      "note": 64,
      "start": 11.9444,
      "duration": 0.1194,
      "velocity": 102,
      "chip": "ym2612"
    },
    {
      "channel": 4,
      "note": 85,
      "start": 11.9453,
      "duration": 0.2367,
      "velocity": 119,
      "chip": "ym2612"
    },
    {
      "channel": 5,
      "note": 57,
      "start": 11.9462,
      "duration": 0.1186,
      "velocity": 119,
      "chip": "ym2612"
    },
    {
      "channel": 0,
      "note": 81,
      "start": 12.0623,
      "duration": 0.2389,
      "velocity": 119,
      "chip": "ym2612"
    },
    {
      "channel": 1,
      "note": 52,
      "start": 12.0632,
      "duration": 0.4782,
      "velocity": 117,
      "chip": "ym2612"
    },
    {
      "channel": 3,
      "note": 52,
      "start": 12.0641,
      "duration": 0.2389,
      "velocity": 102,
      "chip": "ym2612"
    },
    {
      "channel": 5,
      "note": 52,
      "start": 12.0651,
      "duration": 0.2397,
      "velocity": 119,
      "chip": "ym2612"
    },
    {
      "channel": 4,
      "note": 85,
      "start": 12.1822,
      "duration": 0.1216,
      "velocity": 119,
      "chip": "ym2612"
    },
    {
      "channel": 0,
      "note": 83,
      "start": 12.3015,
      "duration": 0.239,
      "velocity": 119,
      "chip": "ym2612"
    },
    {
      "channel": 2,
      "note": 61,
      "start": 12.3024,
      "duration": 0.4774,
      "velocity": 102,
      "chip": "ym2612"
    },
    {
      "channel": 3,
      "note": 64,
      "start": 12.3033,
      "duration": 0.239,
      "velocity": 102,
      "chip": "ym2612"
    },
    {
      "channel": 4,
      "note": 83,
      "start": 12.3041,
      "duration": 0.1171,
      "velocity": 119,
      "chip": "ym2612"
    },
    {
      "channel": 5,
      "note": 64,
      "start": 12.305,
      "duration": 0.1171,
      "velocity": 119,
      "chip": "ym2612"
    },
    {
      "channel": 4,
      "note": 81,
      "start": 12.4215,
      "duration": 0.239,
      "velocity": 119,
      "chip": "ym2612"
    },
    {
      "channel": 5,
      "note": 52,
      "start": 12.4224,
      "duration": 0.1209,
      "velocity": 119,
      "chip": "ym2612"
    },
    {
      "channel": 0,
      "note": 90,
      "start": 12.5408,
      "duration": 0.4782,
      "velocity": 119,
      "chip": "ym2612"
    },
    {
      "channel": 1,
      "note": 62,
      "start": 12.5416,
      "duration": 0.4782,
      "velocity": 117,
      "chip": "ym2612"
    },
    {
      "channel": 3,
      "note": 62,
      "start": 12.5425,
      "duration": 0.2382,
      "velocity": 102,
      "chip": "ym2612"
    },
    {
      "channel": 5,
      "note": 57,
      "start": 12.5435,
      "duration": 0.2382,
      "velocity": 119,
      "chip": "ym2612"
    },
    {
      "channel": 4,
      "note": 83,
      "start": 12.6607,
      "duration": 0.2404,
      "velocity": 119,
      "chip": "ym2612"
    },
    {
      "channel": 2,
      "note": 62,
      "start": 12.7802,
      "duration": 0.1193,
      "velocity": 102,
      "chip": "ym2612"
    },
    {
      "channel": 3,
      "note": 66,
      "start": 12.781,
      "duration": 0.1193,
      "velocity": 102,
      "chip": "ym2612"
    },
    {
      "channel": 5,
      "note": 62,
      "start": 12.782,
      "duration": 0.1201,
      "velocity": 119,
      "chip": "ym2612"
    },
    {
      "channel": 2,
      "note": 62,
      "start": 12.8998,
      "duration": 0.3585,
      "velocity": 102,
      "chip": "ym2612"
    },
    {
      "channel": 3,
      "note": 66,
      "start": 12.9006,
      "duration": 0.1201,
      "velocity": 102,
      "chip": "ym2612"
    },
    {
      "channel": 4,
      "note": 90,
      "start": 12.9015,
      "duration": 0.4767,
      "velocity": 119,
      "chip": "ym2612"
    },
    {
      "channel": 5,
      "note": 57,
      "start": 12.9023,
      "duration": 0.1194,
      "velocity": 119,
      "chip": "ym2612"
    },
    {
      "channel": 0,
      "note": 88,
      "start": 13.0193,
      "duration": 0.4782,
      "velocity": 119,
      "chip": "ym2612"
    },
    {
      "channel": 1,
      "note": 57,
      "start": 13.0201,
      "duration": 0.4782,
      "velocity": 117,
      "chip": "ym2612"
    },
    {
      "channel": 3,
      "note": 57,
      "start": 13.021,
      "duration": 0.2381,
      "velocity": 102,
      "chip": "ym2612"
    },
    {
      "channel": 5,
      "note": 50,
      "start": 13.022,
      "duration": 0.2381,
      "velocity": 119,
      "chip": "ym2612"
    },
    {
      "channel": 2,
      "note": 62,
      "start": 13.2586,
      "duration": 0.479,
      "velocity": 102,
      "chip": "ym2612"
    },
    {
      "channel": 3,
      "note": 66,
      "start": 13.2595,
      "duration": 0.2398,
      "velocity": 102,
      "chip": "ym2612"
    },
    {
      "channel": 5,
      "note": 62,
      "start": 13.2604,
      "duration": 0.1186,
      "velocity": 119,
      "chip": "ym2612"
    },
    {
      "channel": 4,
      "note": 88,
      "start": 13.3784,
      "duration": 0.4805,
      "velocity": 119,
      "chip": "ym2612"
    },
    {
      "channel": 5,
      "note": 50,
      "start": 13.3793,
      "duration": 0.1209,
      "velocity": 119,
      "chip": "ym2612"
    },
    {
      "channel": 0,
      "note": 85,
      "start": 13.4977,
      "duration": 0.2389,
      "velocity": 119,
      "chip": "ym2612"
    },
    {
      "channel": 1,
      "note": 59,
      "start": 13.4986,
      "duration": 0.4782,
      "velocity": 117,
      "chip": "ym2612"
    },
    {
      "channel": 3,
      "note": 59,
      "start": 13.4995,
      "duration": 0.2389,
      "velocity": 102,
      "chip": "ym2612"
    },
    {
      "channel": 5,
      "note": 59,
      "start": 13.5005,
      "duration": 0.2389,
      "velocity": 119,
      "chip": "ym2612"
    },
    {
      "channel": 0,
      "note": 85,
      "start": 13.7369,
      "duration": 0.1194,
      "velocity": 119,
      "chip": "ym2612"
    },
    {
      "channel": 2,
      "note": 59,
      "start": 13.7378,
      "duration": 0.1194,
      "velocity": 102,
      "chip": "ym2612"
    },
    {
      "channel": 3,
      "note": 64,
      "start": 13.7387,
      "duration": 0.1194,
      "velocity": 102,
      "chip": "ym2612"
    },
    {
      "channel": 5,
      "note": 64,
      "start": 13.7397,
      "duration": 0.1201,
      "velocity": 119,
      "chip": "ym2612"
    },
    {
      "channel": 0,
      "note": 85,
      "start": 13.8566,
      "duration": 0.1194,
      "velocity": 119,
      "chip": "ym2612"
    },
    {
      "channel": 2,
      "note": 59,
      "start": 13.8575,
      "duration": 0.3586,
      "velocity": 102,
      "chip": "ym2612"
    },
    {
      "channel": 3,
      "note": 64,
      "start": 13.8583,
      "duration": 0.1194,
      "velocity": 102,
      "chip": "ym2612"
    },
    {
      "channel": 4,
      "note": 85,
      "start": 13.8592,
      "duration": 0.2367,
      "velocity": 119,
      "chip": "ym2612"
    },
    {
      "channel": 5,
      "note": 59,
      "start": 13.8601,
      "duration": 0.1186,
      "velocity": 119,
      "chip": "ym2612"
    },
    {
      "channel": 0,
      "note": 83,
      "start": 13.9762,
      "duration": 0.2389,
      "velocity": 119,
      "chip": "ym2612"
    },
    {
      "channel": 1,
      "note": 52,
      "start": 13.9771,
      "duration": 0.4782,
      "velocity": 117,
      "chip": "ym2612"
    },
    {
      "channel": 3,
      "note": 52,
      "start": 13.978,
      "duration": 0.2389,
      "velocity": 102,
      "chip": "ym2612"
    },
    {
      "channel": 5,
      "note": 52,
      "start": 13.979,
      "duration": 0.2397,
      "velocity": 119,
      "chip": "ym2612"
    },
    {
      "channel": 4,
      "note": 85,
      "start": 14.0962,
      "duration": 0.1216,
      "velocity": 119,
      "chip": "ym2612"
    },
    {
      "channel": 0,
      "note": 85,
      "start": 14.2154,
      "duration": 0.239,
      "velocity": 119,
      "chip": "ym2612"
    },
    {
      "channel": 2,
      "note": 59,
      "start": 14.2163,
      "duration": 0.4774,
      "velocity": 102,
      "chip": "ym2612"
    },
    {
      "channel": 3,
      "note": 64,
      "start": 14.2172,
      "duration": 0.239,
      "velocity": 102,
      "chip": "ym2612"
    },
    {
      "channel": 4,
      "note": 85,
      "start": 14.218,
      "duration": 0.1171,
      "velocity": 119,
      "chip": "ym2612"
    },
    {
      "channel": 5,
      "note": 64,
      "start": 14.2189,
      "duration": 0.1171,
      "velocity": 119,
      "chip": "ym2612"
    },
    {
      "channel": 4,
      "note": 83,
      "start": 14.3354,
      "duration": 0.239,
      "velocity": 119,
      "chip": "ym2612"
    },
    {
      "channel": 5,
      "note": 52,
      "start": 14.3363,
      "duration": 0.1208,
      "velocity": 119,
      "chip": "ym2612"
    },
    {
      "channel": 0,
      "note": 81,
      "start": 14.4547,
      "duration": 0.9568,
      "velocity": 119,
      "chip": "ym2612"
    },
    {
      "channel": 1,
      "note": 57,
      "start": 14.4555,
      "duration": 0.4774,
      "velocity": 117,
      "chip": "ym2612"
    },
    {
      "channel": 3,
      "note": 57,
      "start": 14.4565,
      "duration": 0.2382,
      "velocity": 102,
      "chip": "ym2612"
    },
    {
      "channel": 5,
      "note": 57,
      "start": 14.4574,
      "duration": 0.2382,
      "velocity": 119,
      "chip": "ym2612"
    },
    {
      "channel": 4,
      "note": 85,
      "start": 14.5747,
      "duration": 0.2404,
      "velocity": 119,
      "chip": "ym2612"
    },
    {
      "channel": 2,
      "note": 61,
      "start": 14.6941,
      "duration": 0.1193,
      "velocity": 102,
      "chip": "ym2612"
    },
    {
      "channel": 3,
      "note": 64,
      "start": 14.6949,
      "duration": 0.1193,
      "velocity": 102,
      "chip": "ym2612"
    },
    {
      "channel": 5,
      "note": 64,
      "start": 14.6959,
      "duration": 0.1201,
      "velocity": 119,
      "chip": "ym2612"
    },
    {
      "channel": 2,
      "note": 61,
      "start": 14.8137,
      "duration": 0.3586,
      "velocity": 102,
      "chip": "ym2612"
    },
    {
      "channel": 3,
      "note": 64,
      "start": 14.8145,
      "duration": 0.1194,
      "velocity": 102,
      "chip": "ym2612"
    },
    {
      "channel": 4,
      "note": 81,
      "start": 14.8154,
      "duration": 0.9575,
      "velocity": 119,
      "chip": "ym2612"
    },
    {
      "channel": 5,
      "note": 57,
      "start": 14.8162,
      "duration": 0.1186,
      "velocity": 119,
      "chip": "ym2612"
    },
    {
      "channel": 1,
      "note": 52,
      "start": 14.9332,
      "duration": 0.4792,
      "velocity": 117,
      "chip": "ym2612"
    },
    {
      "channel": 3,
      "note": 52,
      "start": 14.9342,
      "duration": 0.2389,
      "velocity": 102,
      "chip": "ym2612"
    },
    {
      "channel": 5,
      "note": 52,
      "start": 14.9351,
      "duration": 0.2389,
      "velocity": 119,
      "chip": "ym2612"
    },
    {
      "channel": 2,
      "note": 61,
      "start": 15.1725,
      "duration": 0.4783,
      "velocity": 102,
      "chip": "ym2612"
    },
    {
      "channel": 3,
      "note": 64,
      "start": 15.1734,
      "duration": 0.4784,
      "velocity": 102,
      "chip": "ym2612"
    },
    {
      "channel": 5,
      "note": 64,
      "start": 15.1743,
      "duration": 0.1179,
      "velocity": 119,
      "chip": "ym2612"
    },
    {
      "channel": 5,
      "note": 52,
      "start": 15.2924,
      "duration": 0.1238,
      "velocity": 100,
      "chip": "ym2612"
    },
    {
      "channel": 0,
      "note": 73,
      "start": 15.4118,
      "duration": 0.1192,
      "velocity": 119,
      "chip": "ym2612"
    },
    {
      "channel": 1,
      "note": 57,
      "start": 15.4127,
      "duration": 0.478,
      "velocity": 117,
      "chip": "ym2612"
    },
    {
      "channel": 5,
      "note": 45,
      "start": 15.4166,
      "duration": 0.2361,
      "velocity": 100,
      "chip": "ym2612"
    },
    {
      "channel": 0,
      "note": 76,
      "start": 15.5312,
      "duration": 0.239,
      "velocity": 119,
      "chip": "ym2612"
    },
    {
      "channel": 2,
      "note": 61,
      "start": 15.6511,
      "duration": 0.12,
      "velocity": 102,
      "chip": "ym2612"
    },
    {
      "channel": 3,
      "note": 64,
      "start": 15.652,
      "duration": 0.12,
      "velocity": 102,
      "chip": "ym2612"
    },
    {
      "channel": 5,
      "note": 57,
      "start": 15.653,
      "duration": 0.2396,
      "velocity": 100,
      "chip": "ym2612"
    },
    {
      "channel": 0,
      "note": 73,
      "start": 15.7705,
      "duration": 0.1194,
      "velocity": 119,
      "chip": "ym2612"
    },
    {
      "channel": 2,
      "note": 61,
      "start": 15.7714,
      "duration": 0.3578,
      "velocity": 102,
      "chip": "ym2612"
    },
    {
      "channel": 3,
      "note": 64,
      "start": 15.7723,
      "duration": 0.3578,
      "velocity": 102,
      "chip": "ym2612"
    },
    {
      "channel": 4,
      "note": 73,
      "start": 15.7732,
      "duration": 0.1185,
      "velocity": 119,
      "chip": "ym2612"
    },
    {
      "channel": 0,
      "note": 76,
      "start": 15.8901,
      "duration": 0.4781,
      "velocity": 119,
      "chip": "ym2612"
    },
    {
      "channel": 1,
      "note": 57,
      "start": 15.891,
      "duration": 0.4781,
      "velocity": 117,
      "chip": "ym2612"
    },
    {
      "channel": 4,
      "note": 76,
      "start": 15.892,
      "duration": 0.2389,
      "velocity": 119,
      "chip": "ym2612"
    },
    {
      "channel": 5,
      "note": 45,
      "start": 15.8929,
      "duration": 0.2389,
      "velocity": 100,
      "chip": "ym2612"
    },
    {
      "channel": 2,
      "note": 61,
      "start": 16.1295,
      "duration": 0.4782,
      "velocity": 102,
      "chip": "ym2612"
    },
    {
      "channel": 3,
      "note": 64,
      "start": 16.1303,
      "duration": 0.4782,
      "velocity": 102,
      "chip": "ym2612"
    },
    {
      "channel": 4,
      "note": 73,
      "start": 16.1312,
      "duration": 0.1178,
      "velocity": 119,
      "chip": "ym2612"
    },
    {
      "channel": 5,
      "note": 57,
      "start": 16.132,
      "duration": 0.2382,
      "velocity": 100,
      "chip": "ym2612"
    },
    {
      "channel": 4,
      "note": 76,
      "start": 16.2493,
      "duration": 0.4805,
      "velocity": 119,
      "chip": "ym2612"
    },
    {
      "channel": 0,
      "note": 73,
      "start": 16.3685,
      "duration": 0.1193,
      "velocity": 119,
      "chip": "ym2612"
    },
    {
      "channel": 1,
      "note": 61,
      "start": 16.3694,
      "duration": 0.4783,
      "velocity": 117,
      "chip": "ym2612"
    },
    {
      "channel": 5,
      "note": 49,
      "start": 16.3705,
      "duration": 0.239,
      "velocity": 100,
      "chip": "ym2612"
    },
    {
      "channel": 0,
      "note": 76,
      "start": 16.4882,
      "duration": 0.239,
      "velocity": 119,
      "chip": "ym2612"
    },
    {
      "channel": 2,
      "note": 61,
      "start": 16.608,
      "duration": 0.1201,
      "velocity": 102,
      "chip": "ym2612"
    },
    {
      "channel": 3,
      "note": 64,
      "start": 16.6088,
      "duration": 0.1201,
      "velocity": 102,
      "chip": "ym2612"
    },
    {
      "channel": 5,
      "note": 61,
      "start": 16.6098,
      "duration": 0.2398,
      "velocity": 100,
      "chip": "ym2612"
    },
    {
      "channel": 0,
      "note": 73,
      "start": 16.7274,
      "duration": 0.1194,
      "velocity": 119,
      "chip": "ym2612"
    },
    {
      "channel": 2,
      "note": 61,
      "start": 16.7284,
      "duration": 0.3578,
      "velocity": 102,
      "chip": "ym2612"
    },
    {
      "channel": 3,
      "note": 64,
      "start": 16.7292,
      "duration": 0.3578,
      "velocity": 102,
      "chip": "ym2612"
    },
    {
      "channel": 4,
      "note": 73,
      "start": 16.7301,
      "duration": 0.1186,
      "velocity": 119,
      "chip": "ym2612"
    },
    {
      "channel": 0,
      "note": 76,
      "start": 16.8471,
      "duration": 0.4781,
      "velocity": 119,
      "chip": "ym2612"
    },
    {
      "channel": 1,
      "note": 61,
      "start": 16.848,
      "duration": 0.4781,
      "velocity": 117,
      "chip": "ym2612"
    },
    {
      "channel": 4,
      "note": 76,
      "start": 16.849,
      "duration": 0.2389,
      "velocity": 119,
      "chip": "ym2612"
    },
    {
      "channel": 5,
      "note": 49,
      "start": 16.8498,
      "duration": 0.2389,
      "velocity": 100,
      "chip": "ym2612"
    },
    {
      "channel": 2,
      "note": 61,
      "start": 17.0865,
      "duration": 0.4789,
      "velocity": 102,
      "chip": "ym2612"
    },
    {
      "channel": 3,
      "note": 64,
      "start": 17.0873,
      "duration": 0.4789,
      "velocity": 102,
      "chip": "ym2612"
    },
    {
      "channel": 4,
      "note": 73,
      "start": 17.0881,
      "duration": 0.1178,
      "velocity": 119,
      "chip": "ym2612"
    },
    {
      "channel": 5,
      "note": 61,
      "start": 17.089,
      "duration": 0.2382,
      "velocity": 100,
      "chip": "ym2612"
    },
    {
      "channel": 4,
      "note": 76,
      "start": 17.2063,
      "duration": 0.4798,
      "velocity": 119,
      "chip": "ym2612"
    },
    {
      "channel": 0,
      "note": 78,
      "start": 17.3255,
      "duration": 0.239,
      "velocity": 119,
      "chip": "ym2612"
    },
    {
      "channel": 1,
      "note": 62,
      "start": 17.3263,
      "duration": 0.4783,
      "velocity": 117,
      "chip": "ym2612"
    },
    {
      "channel": 5,
      "note": 50,
      "start": 17.3275,
      "duration": 0.2397,
      "velocity": 100,
      "chip": "ym2612"
    },
    {
      "channel": 0,
      "note": 78,
      "start": 17.5648,
      "duration": 0.239,
      "velocity": 119,
      "chip": "ym2612"
    },
    {
      "channel": 2,
      "note": 62,
      "start": 17.5657,
      "duration": 0.1186,
      "velocity": 102,
      "chip": "ym2612"
    },
    {
      "channel": 3,
      "note": 66,
      "start": 17.5665,
      "duration": 0.1186,
      "velocity": 102,
      "chip": "ym2612"
    },
    {
      "channel": 5,
      "note": 62,
      "start": 17.5675,
      "duration": 0.2383,
      "velocity": 100,
      "chip": "ym2612"
    },
    {
      "channel": 2,
      "note": 62,
      "start": 17.6846,
      "duration": 0.3593,
      "velocity": 102,
      "chip": "ym2612"
    },
    {
      "channel": 3,
      "note": 66,
      "start": 17.6854,
      "duration": 0.3593,
      "velocity": 102,
      "chip": "ym2612"
    },
    {
      "channel": 4,
      "note": 78,
      "start": 17.6863,
      "duration": 0.2374,
      "velocity": 119,
      "chip": "ym2612"
    },
    {
      "channel": 0,
      "note": 76,
      "start": 17.8041,
      "duration": 0.2389,
      "velocity": 119,
      "chip": "ym2612"
    },
    {
      "channel": 1,
      "note": 62,
      "start": 17.8049,
      "duration": 0.4781,
      "velocity": 117,
      "chip": "ym2612"
    },
    {
      "channel": 5,
      "note": 50,
      "start": 17.8061,
      "duration": 0.2397,
      "velocity": 100,
      "chip": "ym2612"
    },
    {
      "channel": 4,
      "note": 78,
      "start": 17.924,
      "duration": 0.239,
      "velocity": 119,
      "chip": "ym2612"
    },
    {
      "channel": 0,
      "note": 73,
      "start": 18.0433,
      "duration": 0.2389,
      "velocity": 119,
      "chip": "ym2612"
    },
    {
      "channel": 2,
      "note": 62,
      "start": 18.0442,
      "duration": 0.4774,
      "velocity": 102,
      "chip": "ym2612"
    },
    {
      "channel": 3,
      "note": 66,
      "start": 18.045,
      "duration": 0.4774,
      "velocity": 102,
      "chip": "ym2612"
    },
    {
      "channel": 5,
      "note": 62,
      "start": 18.046,
      "duration": 0.2382,
      "velocity": 100,
      "chip": "ym2612"
    },
    {
      "channel": 4,
      "note": 76,
      "start": 18.1632,
      "duration": 0.2389,
      "velocity": 119,
      "chip": "ym2612"
    },
    {
      "channel": 0,
      "note": 76,
      "start": 18.2825,
      "duration": 0.9566,
      "velocity": 119,
      "chip": "ym2612"
    },
    {
      "channel": 1,
      "note": 61,
      "start": 18.2833,
      "duration": 0.4775,
      "velocity": 117,
      "chip": "ym2612"
    },
    {
      "channel": 5,
      "note": 49,
      "start": 18.2845,
      "duration": 0.2389,
      "velocity": 100,
      "chip": "ym2612"
    },
    {
      "channel": 4,
      "note": 73,
      "start": 18.4025,
      "duration": 0.2405,
      "velocity": 119,
      "chip": "ym2612"
    },
    {
      "channel": 2,
      "note": 61,
      "start": 18.5219,
      "duration": 0.1193,
      "velocity": 102,
      "chip": "ym2612"
    },
    {
      "channel": 3,
      "note": 64,
      "start": 18.5227,
      "duration": 0.1193,
      "velocity": 102,
      "chip": "ym2612"
    },
    {
      "channel": 5,
      "note": 61,
      "start": 18.5237,
      "duration": 0.2382,
      "velocity": 100,
      "chip": "ym2612"
    },
    {
      "channel": 2,
      "note": 61,
      "start": 18.6415,
      "duration": 0.3585,
      "velocity": 102,
      "chip": "ym2612"
    },
    {
      "channel": 3,
      "note": 64,
      "start": 18.6424,
      "duration": 0.3585,
      "velocity": 102,
      "chip": "ym2612"
    },
    {
      "channel": 4,
      "note": 76,
      "start": 18.6432,
      "duration": 0.9574,
      "velocity": 119,
      "chip": "ym2612"
    },
    {
      "channel": 1,
      "note": 61,
      "start": 18.7611,
      "duration": 0.4789,
      "velocity": 117,
      "chip": "ym2612"
    },
    {
      "channel": 5,
      "note": 49,
      "start": 18.7622,
      "duration": 0.2397,
      "velocity": 100,
      "chip": "ym2612"
    },
    {
      "channel": 2,
      "note": 61,
      "start": 19.0003,
      "duration": 0.4782,
      "velocity": 102,
      "chip": "ym2612"
    },
    {
      "channel": 3,
      "note": 64,
      "start": 19.0012,
      "duration": 0.4782,
      "velocity": 102,
      "chip": "ym2612"
    },
    {
      "channel": 5,
      "note": 61,
      "start": 19.0022,
      "duration": 0.2389,
      "velocity": 100,
      "chip": "ym2612"
    },
    {
      "channel": 0,
      "note": 73,
      "start": 19.2394,
      "duration": 0.1193,
      "velocity": 119,
      "chip": "ym2612"
    },
    {
      "channel": 1,
      "note": 57,
      "start": 19.2402,
      "duration": 0.4783,
      "velocity": 117,
      "chip": "ym2612"
    },
    {
      "channel": 5,
      "note": 45,
      "start": 19.2414,
      "duration": 0.239,
      "velocity": 100,
      "chip": "ym2612"
    },
    {
      "channel": 0,
      "note": 76,
      "start": 19.359,
      "duration": 0.239,
      "velocity": 119,
      "chip": "ym2612"
    },
    {
      "channel": 2,
      "note": 61,
      "start": 19.4788,
      "duration": 0.1201,
      "velocity": 102,
      "chip": "ym2612"
    },
    {
      "channel": 3,
      "note": 64,
      "start": 19.4797,
      "duration": 0.1201,
      "velocity": 102,
      "chip": "ym2612"
    },
    {
      "channel": 5,
      "note": 57,
      "start": 19.4806,
      "duration": 0.2398,
      "velocity": 100,
      "chip": "ym2612"
    },
    {
      "channel": 0,
      "note": 73,
      "start": 19.5983,
      "duration": 0.1194,
      "velocity": 119,
      "chip": "ym2612"
    },
    {
      "channel": 2,
      "note": 61,
      "start": 19.5993,
      "duration": 0.3578,
      "velocity": 102,
      "chip": "ym2612"
    },
    {
      "channel": 3,
      "note": 64,
      "start": 19.6001,
      "duration": 0.3578,
      "velocity": 102,
      "chip": "ym2612"
    },
    {
      "channel": 4,
      "note": 73,
      "start": 19.601,
      "duration": 0.1186,
      "velocity": 119,
      "chip": "ym2612"
    },
    {
      "channel": 0,
      "note": 76,
      "start": 19.718,
      "duration": 0.4781,
      "velocity": 119,
      "chip": "ym2612"
    },
    {
      "channel": 1,
      "note": 57,
      "start": 19.7188,
      "duration": 0.4781,
      "velocity": 117,
      "chip": "ym2612"
    },
    {
      "channel": 4,
      "note": 76,
      "start": 19.7198,
      "duration": 0.2389,
      "velocity": 119,
      "chip": "ym2612"
    },
    {
      "channel": 5,
      "note": 45,
      "start": 19.7207,
      "duration": 0.2389,
      "velocity": 100,
      "chip": "ym2612"
    },
    {
      "channel": 2,
      "note": 61,
      "start": 19.9573,
      "duration": 0.4782,
      "velocity": 102,
      "chip": "ym2612"
    },
    {
      "channel": 3,
      "note": 64,
      "start": 19.9582,
      "duration": 0.4782,
      "velocity": 102,
      "chip": "ym2612"
    },
    {
      "channel": 4,
      "note": 73,
      "start": 19.959,
      "duration": 0.1178,
      "velocity": 119,
      "chip": "ym2612"
    },
    {
      "channel": 5,
      "note": 57,
      "start": 19.9599,
      "duration": 0.2382,
      "velocity": 100,
      "chip": "ym2612"
    },
    {
      "channel": 4,
      "note": 76,
      "start": 20.0771,
      "duration": 0.4805,
      "velocity": 119,
      "chip": "ym2612"
    },
    {
      "channel": 0,
      "note": 73,
      "start": 20.1964,
      "duration": 0.1193,
      "velocity": 119,
      "chip": "ym2612"
    },
    {
      "channel": 1,
      "note": 61,
      "start": 20.1972,
      "duration": 0.4783,
      "velocity": 117,
      "chip": "ym2612"
    },
    {
      "channel": 5,
      "note": 49,
      "start": 20.1984,
      "duration": 0.239,
      "velocity": 100,
      "chip": "ym2612"
    },
    {
      "channel": 0,
      "note": 76,
      "start": 20.316,
      "duration": 0.239,
      "velocity": 119,
      "chip": "ym2612"
    },
    {
      "channel": 2,
      "note": 61,
      "start": 20.4358,
      "duration": 0.1201,
      "velocity": 102,
      "chip": "ym2612"
    },
    {
      "channel": 3,
      "note": 64,
      "start": 20.4367,
      "duration": 0.1201,
      "velocity": 102,
      "chip": "ym2612"
    },
    {
      "channel": 5,
      "note": 61,
      "start": 20.4376,
      "duration": 0.2398,
      "velocity": 100,
      "chip": "ym2612"
    },
    {
      "channel": 0,
      "note": 73,
      "start": 20.5553,
      "duration": 0.1194,
      "velocity": 119,
      "chip": "ym2612"
    },
    {
      "channel": 2,
      "note": 61,
      "start": 20.5562,
      "duration": 0.3578,
      "velocity": 102,
      "chip": "ym2612"
    },
    {
      "channel": 3,
      "note": 64,
      "start": 20.5571,
      "duration": 0.3578,
      "velocity": 102,
      "chip": "ym2612"
    },
    {
      "channel": 4,
      "note": 73,
      "start": 20.5579,
      "duration": 0.1186,
      "velocity": 119,
      "chip": "ym2612"
    },
    {
      "channel": 0,
      "note": 76,
      "start": 20.6749,
      "duration": 0.4781,
      "velocity": 119,
      "chip": "ym2612"
    },
    {
      "channel": 1,
      "note": 61,
      "start": 20.6758,
      "duration": 0.4781,
      "velocity": 117,
      "chip": "ym2612"
    },
    {
      "channel": 4,
      "note": 76,
      "start": 20.6768,
      "duration": 0.2389,
      "velocity": 119,
      "chip": "ym2612"
    },
    {
      "channel": 5,
      "note": 49,
      "start": 20.6777,
      "duration": 0.2389,
      "velocity": 100,
      "chip": "ym2612"
    },
    {
      "channel": 2,
      "note": 61,
      "start": 20.9143,
      "duration": 0.479,
      "velocity": 102,
      "chip": "ym2612"
    },
    {
      "channel": 3,
      "note": 64,
      "start": 20.9151,
      "duration": 0.479,
      "velocity": 102,
      "chip": "ym2612"
    },
    {
      "channel": 4,
      "note": 73,
      "start": 20.916,
      "duration": 0.1178,
      "velocity": 119,
      "chip": "ym2612"
    },
    {
      "channel": 5,
      "note": 61,
      "start": 20.9168,
      "duration": 0.2382,
      "velocity": 100,
      "chip": "ym2612"
    },
    {
      "channel": 4,
      "note": 76,
      "start": 21.0341,
      "duration": 0.4797,
      "velocity": 119,
      "chip": "ym2612"
    },
    {
      "channel": 0,
      "note": 76,
      "start": 21.1534,
      "duration": 0.239,
      "velocity": 119,
      "chip": "ym2612"
    },
    {
      "channel": 1,
      "note": 59,
      "start": 21.1542,
      "duration": 0.4783,
      "velocity": 117,
      "chip": "ym2612"
    },
    {
      "channel": 5,
      "note": 47,
      "start": 21.1553,
      "duration": 0.2397,
      "velocity": 100,
      "chip": "ym2612"
    },
    {
      "channel": 0,
      "note": 73,
      "start": 21.3926,
      "duration": 0.239,
      "velocity": 119,
      "chip": "ym2612"
    },
    {
      "channel": 2,
      "note": 59,
      "start": 21.3935,
      "duration": 0.1186,
      "velocity": 102,
      "chip": "ym2612"
    },
    {
      "channel": 3,
      "note": 64,
      "start": 21.3944,
      "duration": 0.1186,
      "velocity": 102,
      "chip": "ym2612"
    },
    {
      "channel": 5,
      "note": 59,
      "start": 21.3953,
      "duration": 0.2382,
      "velocity": 100,
      "chip": "ym2612"
    },
    {
      "channel": 2,
      "note": 59,
      "start": 21.5124,
      "duration": 0.3593,
      "velocity": 102,
      "chip": "ym2612"
    },
    {
      "channel": 3,
      "note": 64,
      "start": 21.5133,
      "duration": 0.3593,
      "velocity": 102,
      "chip": "ym2612"
    },
    {
      "channel": 4,
      "note": 76,
      "start": 21.5141,
      "duration": 0.2374,
      "velocity": 119,
      "chip": "ym2612"
    },
    {
      "channel": 0,
      "note": 71,
      "start": 21.6319,
      "duration": 0.2389,
      "velocity": 119,
      "chip": "ym2612"
    },
    {
      "channel": 1,
      "note": 59,
      "start": 21.6327,
      "duration": 0.4781,
      "velocity": 117,
      "chip": "ym2612"
    },
    {
      "channel": 5,
      "note": 47,
      "start": 21.6339,
      "duration": 0.2397,
      "velocity": 100,
      "chip": "ym2612"
    },
    {
      "channel": 4,
      "note": 73,
      "start": 21.7518,
      "duration": 0.239,
      "velocity": 119,
      "chip": "ym2612"
    },
    {
      "channel": 0,
      "note": 73,
      "start": 21.8711,
      "duration": 0.2389,
      "velocity": 119,
      "chip": "ym2612"
    },
    {
      "channel": 2,
      "note": 59,
      "start": 21.872,
      "duration": 0.4774,
      "velocity": 102,
      "chip": "ym2612"
    },
    {
      "channel": 3,
      "note": 64,
      "start": 21.8729,
      "duration": 0.4774,
      "velocity": 102,
      "chip": "ym2612"
    },
    {
      "channel": 5,
      "note": 59,
      "start": 21.8738,
      "duration": 0.2382,
      "velocity": 100,
      "chip": "ym2612"
    },
    {
      "channel": 4,
      "note": 71,
      "start": 21.9911,
      "duration": 0.2389,
      "velocity": 119,
      "chip": "ym2612"
    },
    {
      "channel": 0,
      "note": 76,
      "start": 22.1103,
      "duration": 0.9568,
      "velocity": 119,
      "chip": "ym2612"
    },
    {
      "channel": 1,
      "note": 59,
      "start": 22.1112,
      "duration": 0.4775,
      "velocity": 117,
      "chip": "ym2612"
    },
    {
      "channel": 5,
      "note": 40,
      "start": 22.1123,
      "duration": 0.2389,
      "velocity": 100,
      "chip": "ym2612"
    },
    {
      "channel": 4,
      "note": 73,
      "start": 22.2303,
      "duration": 0.2405,
      "velocity": 119,
      "chip": "ym2612"
    },
    {
      "channel": 2,
      "note": 64,
      "start": 22.3497,
      "duration": 0.1193,
      "velocity": 102,
      "chip": "ym2612"
    },
    {
      "channel": 3,
      "note": 56,
      "start": 22.3506,
      "duration": 0.1193,
      "velocity": 102,
      "chip": "ym2612"
    },
    {
      "channel": 5,
      "note": 52,
      "start": 22.3515,
      "duration": 0.2382,
      "velocity": 100,
      "chip": "ym2612"
    },
    {
      "channel": 2,
      "note": 64,
      "start": 22.4693,
      "duration": 0.3585,
      "velocity": 102,
      "chip": "ym2612"
    },
    {
      "channel": 3,
      "note": 56,
      "start": 22.4702,
      "duration": 0.3585,
      "velocity": 102,
      "chip": "ym2612"
    },
    {
      "channel": 4,
      "note": 76,
      "start": 22.471,
      "duration": 0.9576,
      "velocity": 119,
      "chip": "ym2612"
    },
    {
      "channel": 1,
      "note": 59,
      "start": 22.5889,
      "duration": 0.4792,
      "velocity": 117,
      "chip": "ym2612"
    },
    {
      "channel": 5,
      "note": 40,
      "start": 22.59,
      "duration": 0.2396,
      "velocity": 100,
      "chip": "ym2612"
    },
    {
      "channel": 2,
      "note": 64,
      "start": 22.8282,
      "duration": 0.4783,
      "velocity": 102,
      "chip": "ym2612"
    },
    {
      "channel": 3,
      "note": 56,
      "start": 22.829,
      "duration": 0.4784,
      "velocity": 102,
      "chip": "ym2612"
    },
    {
      "channel": 5,
      "note": 52,
      "start": 22.83,
      "duration": 0.2393,
      "velocity": 100,
      "chip": "ym2612"
    },
    {
      "channel": 0,
      "note": 73,
      "start": 23.0675,
      "duration": 0.1191,
      "velocity": 119,
      "chip": "ym2612"
    },
    {
      "channel": 1,
      "note": 57,
      "start": 23.0684,
      "duration": 0.478,
      "velocity": 117,
      "chip": "ym2612"
    },
    {
      "channel": 5,
      "note": 45,
      "start": 23.0696,
      "duration": 0.2388,
      "velocity": 100,
      "chip": "ym2612"
    },
    {
      "channel": 0,
      "note": 76,
      "start": 23.1869,
      "duration": 0.239,
      "velocity": 119,
      "chip": "ym2612"
    },
    {
      "channel": 2,
      "note": 61,
      "start": 23.3068,
      "duration": 0.12,
      "velocity": 102,
      "chip": "ym2612"
    },
    {
      "channel": 3,
      "note": 64,
      "start": 23.3077,
      "duration": 0.12,
      "velocity": 102,
      "chip": "ym2612"
    },
    {
      "channel": 5,
      "note": 57,
      "start": 23.3086,
      "duration": 0.2396,
      "velocity": 100,
      "chip": "ym2612"
    },
    {
      "channel": 0,
      "note": 73,
      "start": 23.4262,
      "duration": 0.1194,
      "velocity": 119,
      "chip": "ym2612"
    },
    {
      "channel": 2,
      "note": 61,
      "start": 23.4271,
      "duration": 0.3578,
      "velocity": 102,
      "chip": "ym2612"
    },
    {
      "channel": 3,
      "note": 64,
      "start": 23.4279,
      "duration": 0.3578,
      "velocity": 102,
      "chip": "ym2612"
    },
    {
      "channel": 4,
      "note": 73,
      "start": 23.4288,
      "duration": 0.1185,
      "velocity": 119,
      "chip": "ym2612"
    },
    {
      "channel": 0,
      "note": 76,
      "start": 23.5458,
      "duration": 0.4781,
      "velocity": 119,
      "chip": "ym2612"
    },
    {
      "channel": 1,
      "note": 57,
      "start": 23.5466,
      "duration": 0.4781,
      "velocity": 117,
      "chip": "ym2612"
    },
    {
      "channel": 4,
      "note": 76,
      "start": 23.5477,
      "duration": 0.2389,
      "velocity": 119,
      "chip": "ym2612"
    },
    {
      "channel": 5,
      "note": 45,
      "start": 23.5485,
      "duration": 0.2389,
      "velocity": 100,
      "chip": "ym2612"
    },
    {
      "channel": 2,
      "note": 61,
      "start": 23.7852,
      "duration": 0.4782,
      "velocity": 102,
      "chip": "ym2612"
    },
    {
      "channel": 3,
      "note": 64,
      "start": 23.786,
      "duration": 0.4782,
      "velocity": 102,
      "chip": "ym2612"
    },
    {
      "channel": 4,
      "note": 73,
      "start": 23.7869,
      "duration": 0.1178,
      "velocity": 119,
      "chip": "ym2612"
    },
    {
      "channel": 5,
      "note": 57,
      "start": 23.7877,
      "duration": 0.2382,
      "velocity": 100,
      "chip": "ym2612"
    },
    {
      "channel": 4,
      "note": 76,
      "start": 23.9049,
      "duration": 0.4805,
      "velocity": 119,
      "chip": "ym2612"
    },
    {
      "channel": 0,
      "note": 73,
      "start": 24.0242,
      "duration": 0.1193,
      "velocity": 119,
      "chip": "ym2612"
    },
    {
      "channel": 1,
      "note": 61,
      "start": 24.0251,
      "duration": 0.4782,
      "velocity": 117,
      "chip": "ym2612"
    },
    {
      "channel": 5,
      "note": 49,
      "start": 24.0262,
      "duration": 0.239,
      "velocity": 100,
      "chip": "ym2612"
    },
    {
      "channel": 0,
      "note": 76,
      "start": 24.1438,
      "duration": 0.239,
      "velocity": 119,
      "chip": "ym2612"
    },
    {
      "channel": 2,
      "note": 61,
      "start": 24.2636,
      "duration": 0.1201,
      "velocity": 102,
      "chip": "ym2612"
    },
    {
      "channel": 3,
      "note": 64,
      "start": 24.2645,
      "duration": 0.1201,
      "velocity": 102,
      "chip": "ym2612"
    },
    {
      "channel": 5,
      "note": 61,
      "start": 24.2654,
      "duration": 0.2398,
      "velocity": 100,
      "chip": "ym2612"
    },
    {
      "channel": 0,
      "note": 73,
      "start": 24.3831,
      "duration": 0.1194,
      "velocity": 119,
      "chip": "ym2612"
    },
    {
      "channel": 2,
      "note": 61,
      "start": 24.384,
      "duration": 0.3578,
      "velocity": 102,
      "chip": "ym2612"
    },
    {
      "channel": 3,
      "note": 64,
      "start": 24.3849,
      "duration": 0.3578,
      "velocity": 102,
      "chip": "ym2612"
    },
    {
      "channel": 4,
      "note": 73,
      "start": 24.3857,
      "duration": 0.1186,
      "velocity": 119,
      "chip": "ym2612"
    },
    {
      "channel": 0,
      "note": 76,
      "start": 24.5028,
      "duration": 0.4781,
      "velocity": 119,
      "chip": "ym2612"
    },
    {
      "channel": 1,
      "note": 61,
      "start": 24.5036,
      "duration": 0.4781,
      "velocity": 117,
      "chip": "ym2612"
    },
    {
      "channel": 4,
      "note": 76,
      "start": 24.5046,
      "duration": 0.2389,
      "velocity": 119,
      "chip": "ym2612"
    },
    {
      "channel": 5,
      "note": 49,
      "start": 24.5055,
      "duration": 0.2389,
      "velocity": 100,
      "chip": "ym2612"
    },
    {
      "channel": 2,
      "note": 61,
      "start": 24.7421,
      "duration": 0.479,
      "velocity": 102,
      "chip": "ym2612"
    },
    {
      "channel": 3,
      "note": 64,
      "start": 24.743,
      "duration": 0.4789,
      "velocity": 102,
      "chip": "ym2612"
    },
    {
      "channel": 4,
      "note": 73,
      "start": 24.7438,
      "duration": 0.1178,
      "velocity": 119,
      "chip": "ym2612"
    },
    {
      "channel": 5,
      "note": 61,
      "start": 24.7447,
      "duration": 0.2382,
      "velocity": 100,
      "chip": "ym2612"
    },
    {
      "channel": 4,
      "note": 76,
      "start": 24.8619,
      "duration": 0.4797,
      "velocity": 119,
      "chip": "ym2612"
    },
    {
      "channel": 0,
      "note": 78,
      "start": 24.9812,
      "duration": 0.239,
      "velocity": 119,
      "chip": "ym2612"
    },
    {
      "channel": 1,
      "note": 62,
      "start": 24.982,
      "duration": 0.4783,
      "velocity": 117,
      "chip": "ym2612"
    },
    {
      "channel": 5,
      "note": 50,
      "start": 24.9832,
      "duration": 0.2397,
      "velocity": 100,
      "chip": "ym2612"
    },
    {
      "channel": 0,
      "note": 78,
      "start": 25.2204,
      "duration": 0.239,
      "velocity": 119,
      "chip": "ym2612"
    },
    {
      "channel": 2,
      "note": 62,
      "start": 25.2214,
      "duration": 0.1186,
      "velocity": 102,
      "chip": "ym2612"
    },
    {
      "channel": 3,
      "note": 66,
      "start": 25.2222,
      "duration": 0.1186,
      "velocity": 102,
      "chip": "ym2612"
    },
    {
      "channel": 5,
      "note": 62,
      "start": 25.2232,
      "duration": 0.2382,
      "velocity": 100,
      "chip": "ym2612"
    },
    {
      "channel": 2,
      "note": 62,
      "start": 25.3402,
      "duration": 0.3593,
      "velocity": 102,
      "chip": "ym2612"
    },
    {
      "channel": 3,
      "note": 66,
      "start": 25.3411,
      "duration": 0.3593,
      "velocity": 102,
      "chip": "ym2612"
    },
    {
      "channel": 4,
      "note": 78,
      "start": 25.3419,
      "duration": 0.2374,
      "velocity": 119,
      "chip": "ym2612"
    },
    {
      "channel": 0,
      "note": 76,
      "start": 25.4597,
      "duration": 0.239,
      "velocity": 119,
      "chip": "ym2612"
    },
    {
      "channel": 1,
      "note": 62,
      "start": 25.4605,
      "duration": 0.4782,
      "velocity": 117,
      "chip": "ym2612"
    },
    {
      "channel": 5,
      "note": 50,
      "start": 25.4617,
      "duration": 0.2397,
      "velocity": 100,
      "chip": "ym2612"
    },
    {
      "channel": 4,
      "note": 78,
      "start": 25.5796,
      "duration": 0.239,
      "velocity": 119,
      "chip": "ym2612"
    },
    {
      "channel": 0,
      "note": 73,
      "start": 25.6989,
      "duration": 0.2389,
      "velocity": 119,
      "chip": "ym2612"
    },
    {
      "channel": 2,
      "note": 62,
      "start": 25.6999,
      "duration": 0.4774,
      "velocity": 102,
      "chip": "ym2612"
    },
    {
      "channel": 3,
      "note": 66,
      "start": 25.7007,
      "duration": 0.4774,
      "velocity": 102,
      "chip": "ym2612"
    },
    {
      "channel": 5,
      "note": 62,
      "start": 25.7017,
      "duration": 0.2382,
      "velocity": 100,
      "chip": "ym2612"
    },
    {
      "channel": 4,
      "note": 76,
      "start": 25.8189,
      "duration": 0.2389,
      "velocity": 119,
      "chip": "ym2612"
    },
    {
      "channel": 0,
      "note": 76,
      "start": 25.9381,
      "duration": 0.9566,
      "velocity": 119,
      "chip": "ym2612"
    },
    {
      "channel": 1,
      "note": 61,
      "start": 25.939,
      "duration": 0.4775,
      "velocity": 117,
      "chip": "ym2612"
    },
    {
      "channel": 5,
      "note": 49,
      "start": 25.9401,
      "duration": 0.239,
      "velocity": 100,
      "chip": "ym2612"
    },
    {
      "channel": 4,
      "note": 73,
      "start": 26.0581,
      "duration": 0.2405,
      "velocity": 119,
      "chip": "ym2612"
    },
    {
      "channel": 2,
      "note": 61,
      "start": 26.1776,
      "duration": 0.1193,
      "velocity": 102,
      "chip": "ym2612"
    },
    {
      "channel": 3,
      "note": 64,
      "start": 26.1784,
      "duration": 0.1193,
      "velocity": 102,
      "chip": "ym2612"
    },
    {
      "channel": 5,
      "note": 61,
      "start": 26.1794,
      "duration": 0.2382,
      "velocity": 100,
      "chip": "ym2612"
    },
    {
      "channel": 2,
      "note": 61,
      "start": 26.2972,
      "duration": 0.3585,
      "velocity": 102,
      "chip": "ym2612"
    },
    {
      "channel": 3,
      "note": 64,
      "start": 26.298,
      "duration": 0.3585,
      "velocity": 102,
      "chip": "ym2612"
    },
    {
      "channel": 4,
      "note": 76,
      "start": 26.2989,
      "duration": 0.9574,
      "velocity": 119,
      "chip": "ym2612"
    },
    {
      "channel": 1,
      "note": 61,
      "start": 26.4168,
      "duration": 0.4789,
      "velocity": 117,
      "chip": "ym2612"
    },
    {
      "channel": 5,
      "note": 49,
      "start": 26.4179,
      "duration": 0.2396,
      "velocity": 100,
      "chip": "ym2612"
    },
    {
      "channel": 2,
      "note": 61,
      "start": 26.656,
      "duration": 0.4782,
      "velocity": 102,
      "chip": "ym2612"
    },
    {
      "channel": 3,
      "note": 64,
      "start": 26.6568,
      "duration": 0.4782,
      "velocity": 102,
      "chip": "ym2612"
    },
    {
      "channel": 5,
      "note": 61,
      "start": 26.6578,
      "duration": 0.239,
      "velocity": 100,
      "chip": "ym2612"
    },
    {
      "channel": 0,
      "note": 73,
      "start": 26.8951,
      "duration": 0.1193,
      "velocity": 119,
      "chip": "ym2612"
    },
    {
      "channel": 1,
      "note": 57,
      "start": 26.8959,
      "duration": 0.4783,
      "velocity": 117,
      "chip": "ym2612"
    },
    {
      "channel": 5,
      "note": 45,
      "start": 26.897,
      "duration": 0.239,
      "velocity": 100,
      "chip": "ym2612"
    },
    {
      "channel": 0,
      "note": 76,
      "start": 27.0147,
      "duration": 0.239,
      "velocity": 119,
      "chip": "ym2612"
    },
    {
      "channel": 2,
      "note": 61,
      "start": 27.1345,
      "duration": 0.1201,
      "velocity": 102,
      "chip": "ym2612"
    },
    {
      "channel": 3,
      "note": 64,
      "start": 27.1354,
      "duration": 0.1201,
      "velocity": 102,
      "chip": "ym2612"
    },
    {
      "channel": 5,
      "note": 57,
      "start": 27.1363,
      "duration": 0.2398,
      "velocity": 100,
      "chip": "ym2612"
    },
    {
      "channel": 0,
      "note": 73,
      "start": 27.254,
      "duration": 0.1194,
      "velocity": 119,
      "chip": "ym2612"
    },
    {
      "channel": 2,
      "note": 61,
      "start": 27.2549,
      "duration": 0.3578,
      "velocity": 102,
      "chip": "ym2612"
    },
    {
      "channel": 3,
      "note": 64,
      "start": 27.2557,
      "duration": 0.3578,
      "velocity": 102,
      "chip": "ym2612"
    },
    {
      "channel": 4,
      "note": 73,
      "start": 27.2566,
      "duration": 0.1186,
      "velocity": 119,
      "chip": "ym2612"
    },
    {
      "channel": 0,
      "note": 76,
      "start": 27.3737,
      "duration": 0.4781,
      "velocity": 119,
      "chip": "ym2612"
    },
    {
      "channel": 1,
      "note": 57,
      "start": 27.3745,
      "duration": 0.4781,
      "velocity": 117,
      "chip": "ym2612"
    },
    {
      "channel": 4,
      "note": 76,
      "start": 27.3755,
      "duration": 0.2389,
      "velocity": 119,
      "chip": "ym2612"
    },
    {
      "channel": 5,
      "note": 45,
      "start": 27.3764,
      "duration": 0.2389,
      "velocity": 100,
      "chip": "ym2612"
    },
    {
      "channel": 2,
      "note": 61,
      "start": 27.613,
      "duration": 0.4782,
      "velocity": 102,
      "chip": "ym2612"
    },
    {
      "channel": 3,
      "note": 64,
      "start": 27.6138,
      "duration": 0.4782,
      "velocity": 102,
      "chip": "ym2612"
    },
    {
      "channel": 4,
      "note": 73,
      "start": 27.6147,
      "duration": 0.1178,
      "velocity": 119,
      "chip": "ym2612"
    },
    {
      "channel": 5,
      "note": 57,
      "start": 27.6156,
      "duration": 0.2382,
      "velocity": 100,
      "chip": "ym2612"
    },
    {
      "channel": 4,
      "note": 76,
      "start": 27.7328,
      "duration": 0.4805,
      "velocity": 119,
      "chip": "ym2612"
    },
    {
      "channel": 0,
      "note": 73,
      "start": 27.8521,
      "duration": 0.1193,
      "velocity": 119,
      "chip": "ym2612"
    },
    {
      "channel": 1,
      "note": 61,
      "start": 27.8529,
      "duration": 0.4782,
      "velocity": 117,
      "chip": "ym2612"
    },
    {
      "channel": 5,
      "note": 49,
      "start": 27.854,
      "duration": 0.239,
      "velocity": 100,
      "chip": "ym2612"
    },
    {
      "channel": 0,
      "note": 76,
      "start": 27.9717,
      "duration": 0.239,
      "velocity": 119,
      "chip": "ym2612"
    },
    {
      "channel": 2,
      "note": 61,
      "start": 28.0915,
      "duration": 0.1201,
      "velocity": 102,
      "chip": "ym2612"
    },
    {
      "channel": 3,
      "note": 64,
      "start": 28.0923,
      "duration": 0.1201,
      "velocity": 102,
      "chip": "ym2612"
    },
    {
      "channel": 5,
      "note": 61,
      "start": 28.0933,
      "duration": 0.2398,
      "velocity": 100,
      "chip": "ym2612"
    },
    {
      "channel": 0,
      "note": 73,
      "start": 28.211,
      "duration": 0.1193,
      "velocity": 119,
      "chip": "ym2612"
    },
    {
      "channel": 2,
      "note": 61,
      "start": 28.2119,
      "duration": 0.3578,
      "velocity": 102,
      "chip": "ym2612"
    },
    {
      "channel": 3,
      "note": 64,
      "start": 28.2127,
      "duration": 0.3578,
      "velocity": 102,
      "chip": "ym2612"
    },
    {
      "channel": 4,
      "note": 73,
      "start": 28.2136,
      "duration": 0.1186,
      "velocity": 119,
      "chip": "ym2612"
    },
    {
      "channel": 0,
      "note": 76,
      "start": 28.3306,
      "duration": 0.4781,
      "velocity": 119,
      "chip": "ym2612"
    },
    {
      "channel": 1,
      "note": 61,
      "start": 28.3314,
      "duration": 0.4781,
      "velocity": 117,
      "chip": "ym2612"
    },
    {
      "channel": 4,
      "note": 76,
      "start": 28.3324,
      "duration": 0.2389,
      "velocity": 119,
      "chip": "ym2612"
    },
    {
      "channel": 5,
      "note": 49,
      "start": 28.3333,
      "duration": 0.2389,
      "velocity": 100,
      "chip": "ym2612"
    },
    {
      "channel": 2,
      "note": 61,
      "start": 28.57,
      "duration": 0.479,
      "velocity": 102,
      "chip": "ym2612"
    },
    {
      "channel": 3,
      "note": 64,
      "start": 28.5708,
      "duration": 0.479,
      "velocity": 102,
      "chip": "ym2612"
    },
    {
      "channel": 4,
      "note": 73,
      "start": 28.5716,
      "duration": 0.1178,
      "velocity": 119,
      "chip": "ym2612"
    },
    {
      "channel": 5,
      "note": 61,
      "start": 28.5725,
      "duration": 0.2382,
      "velocity": 100,
      "chip": "ym2612"
    },
    {
      "channel": 4,
      "note": 76,
      "start": 28.6898,
      "duration": 0.4797,
      "velocity": 119,
      "chip": "ym2612"
    },
    {
      "channel": 0,
      "note": 76,
      "start": 28.809,
      "duration": 0.239,
      "velocity": 119,
      "chip": "ym2612"
    },
    {
      "channel": 1,
      "note": 59,
      "start": 28.8098,
      "duration": 0.4783,
      "velocity": 117,
      "chip": "ym2612"
    },
    {
      "channel": 5,
      "note": 47,
      "start": 28.811,
      "duration": 0.2397,
      "velocity": 100,
      "chip": "ym2612"
    },
    {
      "channel": 0,
      "note": 73,
      "start": 29.0483,
      "duration": 0.239,
      "velocity": 119,
      "chip": "ym2612"
    },
    {
      "channel": 2,
      "note": 59,
      "start": 29.0492,
      "duration": 0.1186,
      "velocity": 102,
      "chip": "ym2612"
    },
    {
      "channel": 3,
      "note": 64,
      "start": 29.05,
      "duration": 0.1186,
      "velocity": 102,
      "chip": "ym2612"
    },
    {
      "channel": 5,
      "note": 59,
      "start": 29.051,
      "duration": 0.2383,
      "velocity": 100,
      "chip": "ym2612"
    },
    {
      "channel": 2,
      "note": 59,
      "start": 29.1681,
      "duration": 0.3593,
      "velocity": 102,
      "chip": "ym2612"
    },
    {
      "channel": 3,
      "note": 64,
      "start": 29.1689,
      "duration": 0.3593,
      "velocity": 102,
      "chip": "ym2612"
    },
    {
      "channel": 4,
      "note": 76,
      "start": 29.1698,
      "duration": 0.2374,
      "velocity": 119,
      "chip": "ym2612"
    },
    {
      "channel": 0,
      "note": 71,
      "start": 29.2876,
      "duration": 0.2389,
      "velocity": 119,
      "chip": "ym2612"
    },
    {
      "channel": 1,
      "note": 59,
      "start": 29.2884,
      "duration": 0.4781,
      "velocity": 117,
      "chip": "ym2612"
    },
    {
      "channel": 5,
      "note": 47,
      "start": 29.2895,
      "duration": 0.2397,
      "velocity": 100,
      "chip": "ym2612"
    },
    {
      "channel": 4,
      "note": 73,
      "start": 29.4075,
      "duration": 0.239,
      "velocity": 119,
      "chip": "ym2612"
    },
    {
      "channel": 0,
      "note": 73,
      "start": 29.5268,
      "duration": 0.2389,
      "velocity": 119,
      "chip": "ym2612"
    },
    {
      "channel": 2,
      "note": 59,
      "start": 29.5277,
      "duration": 0.4774,
      "velocity": 102,
      "chip": "ym2612"
    },
    {
      "channel": 3,
      "note": 64,
      "start": 29.5285,
      "duration": 0.4774,
      "velocity": 102,
      "chip": "ym2612"
    },
    {
      "channel": 5,
      "note": 59,
      "start": 29.5295,
      "duration": 0.2381,
      "velocity": 100,
      "chip": "ym2612"
    },
    {
      "channel": 4,
      "note": 71,
      "start": 29.6467,
      "duration": 0.2389,
      "velocity": 119,
      "chip": "ym2612"
    },
    {
      "channel": 0,
      "note": 76,
      "start": 29.766,
      "duration": 0.9568,
      "velocity": 119,
      "chip": "ym2612"
    },
    {
      "channel": 1,
      "note": 59,
      "start": 29.7668,
      "duration": 0.4775,
      "velocity": 117,
      "chip": "ym2612"
    },
    {
      "channel": 5,
      "note": 40,
      "start": 29.7679,
      "duration": 0.239,
      "velocity": 100,
      "chip": "ym2612"
    },
    {
      "channel": 4,
      "note": 73,
      "start": 29.886,
      "duration": 0.2405,
      "velocity": 119,
      "chip": "ym2612"
    },
    {
      "channel": 2,
      "note": 64,
      "start": 30.0054,
      "duration": 0.1193,
      "velocity": 102,
      "chip": "ym2612"
    },
    {
      "channel": 3,
      "note": 56,
      "start": 30.0062,
      "duration": 0.1193,
      "velocity": 102,
      "chip": "ym2612"
    },
    {
      "channel": 5,
      "note": 52,
      "start": 30.0072,
      "duration": 0.2382,
      "velocity": 100,
      "chip": "ym2612"
    },
    {
      "channel": 2,
      "note": 64,
      "start": 30.125,
      "duration": 0.3585,
      "velocity": 102,
      "chip": "ym2612"
    },
    {
      "channel": 3,
      "note": 56,
      "start": 30.1259,
      "duration": 0.3585,
      "velocity": 102,
      "chip": "ym2612"
    },
    {
      "channel": 4,
      "note": 76,
      "start": 30.1267,
      "duration": 0.6999,
      "velocity": 119,
      "chip": "ym2612"
    },
    {
      "channel": 1,
      "note": 59,
      "start": 30.2446,
      "duration": 0.4791,
      "velocity": 117,
      "chip": "ym2612"
    },
    {
      "channel": 5,
      "note": 40,
      "start": 30.2457,
      "duration": 0.2396,
      "velocity": 100,
      "chip": "ym2612"
    },
    {
      "channel": 2,
      "note": 64,
      "start": 30.4838,
      "duration": 0.3404,
      "velocity": 102,
      "chip": "ym2612"
    },
    {
      "channel": 3,
      "note": 56,
      "start": 30.4847,
      "duration": 0.2401,
      "velocity": 102,
      "chip": "ym2612"
    },
    {
      "channel": 5,
      "note": 52,
      "start": 30.4856,
      "duration": 12.2157,
      "velocity": 119,
      "chip": "ym2612"
    },
    {
      "channel": 0,
      "note": 97,
      "start": 30.7231,
      "duration": 0.1001,
      "velocity": 119,
      "chip": "ym2612"
    },
    {
      "channel": 1,
      "note": 57,
      "start": 30.724,
      "duration": 0.1335,
      "velocity": 117,
      "chip": "ym2612"
    },
    {
      "channel": 3,
      "note": 57,
      "start": 30.725,
      "duration": 0.1001,
      "velocity": 102,
      "chip": "ym2612"
    },
    {
      "channel": 0,
      "note": 97,
      "start": 30.8235,
      "duration": 0.0026,
      "velocity": 119,
      "chip": "ym2612"
    },
    {
      "channel": 2,
      "note": 61,
      "start": 30.8245,
      "duration": 0.0017,
      "velocity": 102,
      "chip": "ym2612"
    },
    {
      "channel": 3,
      "note": 64,
      "start": 30.8254,
      "duration": 0.001,
      "velocity": 102,
      "chip": "ym2612"
    },
    {
      "channel": 0,
      "note": 95,
      "start": 30.8261,
      "duration": 0.0305,
      "velocity": 119,
      "chip": "ym2612"
    },
    {
      "channel": 2,
      "note": 61,
      "start": 30.8263,
      "duration": 0.1314,
      "velocity": 102,
      "chip": "ym2612"
    },
    {
      "channel": 3,
      "note": 64,
      "start": 30.8264,
      "duration": 0.032,
      "velocity": 102,
      "chip": "ym2612"
    },
    {
      "channel": 4,
      "note": 97,
      "start": 30.8266,
      "duration": 0.0327,
      "velocity": 119,
      "chip": "ym2612"
    },
    {
      "channel": 0,
      "note": 93,
      "start": 30.8569,
      "duration": 0.0998,
      "velocity": 119,
      "chip": "ym2612"
    },
    {
      "channel": 1,
      "note": 52,
      "start": 30.8578,
      "duration": 0.1029,
      "velocity": 117,
      "chip": "ym2612"
    },
    {
      "channel": 3,
      "note": 52,
      "start": 30.8587,
      "duration": 0.0998,
      "velocity": 102,
      "chip": "ym2612"
    },
    {
      "channel": 4,
      "note": 97,
      "start": 30.8594,
      "duration": 0.1,
      "velocity": 119,
      "chip": "ym2612"
    },
    {
      "channel": 0,
      "note": 95,
      "start": 30.957,
      "duration": 0.0034,
      "velocity": 119,
      "chip": "ym2612"
    },
    {
      "channel": 2,
      "note": 61,
      "start": 30.9579,
      "duration": 0.0988,
      "velocity": 102,
      "chip": "ym2612"
    },
    {
      "channel": 3,
      "note": 64,
      "start": 30.9588,
      "duration": 0.0021,
      "velocity": 102,
      "chip": "ym2612"
    },
    {
      "channel": 4,
      "note": 95,
      "start": 30.9596,
      "duration": 0.0006,
      "velocity": 119,
      "chip": "ym2612"
    },
    {
      "channel": 4,
      "note": 93,
      "start": 30.9603,
      "duration": 0.0012,
      "velocity": 119,
      "chip": "ym2612"
    },
    {
      "channel": 0,
      "note": 100,
      "start": 30.9605,
      "duration": 0.1296,
      "velocity": 119,
      "chip": "ym2612"
    },
    {
      "channel": 1,
      "note": 57,
      "start": 30.9607,
      "duration": 0.1302,
      "velocity": 117,
      "chip": "ym2612"
    },
    {
      "channel": 3,
      "note": 57,
      "start": 30.961,
      "duration": 0.0966,
      "velocity": 102,
      "chip": "ym2612"
    },
    {
      "channel": 4,
      "note": 95,
      "start": 30.9615,
      "duration": 0.0972,
      "velocity": 119,
      "chip": "ym2612"
    },
    {
      "channel": 2,
      "note": 61,
      "start": 31.0569,
      "duration": 0.0015,
      "velocity": 102,
      "chip": "ym2612"
    },
    {
      "channel": 3,
      "note": 64,
      "start": 31.0578,
      "duration": 0.0008,
      "velocity": 102,
      "chip": "ym2612"
    },
    {
      "channel": 2,
      "note": 61,
      "start": 31.0585,
      "duration": 0.1323,
      "velocity": 102,
      "chip": "ym2612"
    },
    {
      "channel": 3,
      "note": 64,
      "start": 31.0586,
      "duration": 0.0333,
      "velocity": 102,
      "chip": "ym2612"
    },
    {
      "channel": 4,
      "note": 100,
      "start": 31.0588,
      "duration": 0.1338,
      "velocity": 119,
      "chip": "ym2612"
    },
    {
      "channel": 0,
      "note": 97,
      "start": 31.0904,
      "duration": 0.1344,
      "velocity": 119,
      "chip": "ym2612"
    },
    {
      "channel": 1,
      "note": 52,
      "start": 31.0912,
      "duration": 0.1344,
      "velocity": 117,
      "chip": "ym2612"
    },
    {
      "channel": 3,
      "note": 52,
      "start": 31.0922,
      "duration": 0.0995,
      "velocity": 102,
      "chip": "ym2612"
    },
    {
      "channel": 2,
      "note": 61,
      "start": 31.1911,
      "duration": 0.1352,
      "velocity": 102,
      "chip": "ym2612"
    },
    {
      "channel": 3,
      "note": 64,
      "start": 31.1919,
      "duration": 0.0346,
      "velocity": 102,
      "chip": "ym2612"
    },
    {
      "channel": 4,
      "note": 97,
      "start": 31.1927,
      "duration": 0.1358,
      "velocity": 119,
      "chip": "ym2612"
    },
    {
      "channel": 0,
      "note": 97,
      "start": 31.2251,
      "duration": 0.1002,
      "velocity": 119,
      "chip": "ym2612"
    },
    {
      "channel": 1,
      "note": 57,
      "start": 31.2259,
      "duration": 0.1337,
      "velocity": 117,
      "chip": "ym2612"
    },
    {
      "channel": 3,
      "note": 57,
      "start": 31.2269,
      "duration": 0.1003,
      "velocity": 102,
      "chip": "ym2612"
    },
    {
      "channel": 0,
      "note": 97,
      "start": 31.3256,
      "duration": 0.0024,
      "velocity": 119,
      "chip": "ym2612"
    },
    {
      "channel": 2,
      "note": 61,
      "start": 31.3266,
      "duration": 0.0017,
      "velocity": 102,
      "chip": "ym2612"
    },
    {
      "channel": 3,
      "note": 64,
      "start": 31.3274,
      "duration": 0.001,
      "velocity": 102,
      "chip": "ym2612"
    },
    {
      "channel": 0,
      "note": 95,
      "start": 31.3282,
      "duration": 0.0306,
      "velocity": 119,
      "chip": "ym2612"
    },
    {
      "channel": 2,
      "note": 61,
      "start": 31.3283,
      "duration": 0.1315,
      "velocity": 102,
      "chip": "ym2612"
    },
    {
      "channel": 3,
      "note": 64,
      "start": 31.3284,
      "duration": 0.0321,
      "velocity": 102,
      "chip": "ym2612"
    },
    {
      "channel": 4,
      "note": 97,
      "start": 31.3286,
      "duration": 0.0329,
      "velocity": 119,
      "chip": "ym2612"
    },
    {
      "channel": 0,
      "note": 93,
      "start": 31.3591,
      "duration": 0.0998,
      "velocity": 119,
      "chip": "ym2612"
    },
    {
      "channel": 1,
      "note": 52,
      "start": 31.3599,
      "duration": 0.1029,
      "velocity": 117,
      "chip": "ym2612"
    },
    {
      "channel": 3,
      "note": 52,
      "start": 31.3608,
      "duration": 0.0998,
      "velocity": 102,
      "chip": "ym2612"
    },
    {
      "channel": 4,
      "note": 97,
      "start": 31.3615,
      "duration": 0.1,
      "velocity": 119,
      "chip": "ym2612"
    },
    {
      "channel": 0,
      "note": 97,
      "start": 31.4591,
      "duration": 0.0035,
      "velocity": 119,
      "chip": "ym2612"
    },
    {
      "channel": 2,
      "note": 61,
      "start": 31.4601,
      "duration": 0.0985,
      "velocity": 102,
      "chip": "ym2612"
    },
    {
      "channel": 3,
      "note": 64,
      "start": 31.4609,
      "duration": 0.0022,
      "velocity": 102,
      "chip": "ym2612"
    },
    {
      "channel": 4,
      "note": 95,
      "start": 31.4618,
      "duration": 0.0006,
      "velocity": 119,
      "chip": "ym2612"
    },
    {
      "channel": 4,
      "note": 93,
      "start": 31.4624,
      "duration": 0.0009,
      "velocity": 119,
      "chip": "ym2612"
    },
    {
      "channel": 0,
      "note": 95,
      "start": 31.4627,
      "duration": 0.2644,
      "velocity": 119,
      "chip": "ym2612"
    },
    {
      "channel": 1,
      "note": 59,
      "start": 31.4629,
      "duration": 0.1292,
      "velocity": 117,
      "chip": "ym2612"
    },
    {
      "channel": 3,
      "note": 59,
      "start": 31.4632,
      "duration": 0.0962,
      "velocity": 102,
      "chip": "ym2612"
    },
    {
      "channel": 4,
      "note": 97,
      "start": 31.4634,
      "duration": 0.0973,
      "velocity": 119,
      "chip": "ym2612"
    },
    {
      "channel": 2,
      "note": 59,
      "start": 31.5588,
      "duration": 0.0015,
      "velocity": 102,
      "chip": "ym2612"
    },
    {
      "channel": 3,
      "note": 64,
      "start": 31.5597,
      "duration": 0.0007,
      "velocity": 102,
      "chip": "ym2612"
    },
    {
      "channel": 2,
      "note": 59,
      "start": 31.5604,
      "duration": 0.1324,
      "velocity": 102,
      "chip": "ym2612"
    },
    {
      "channel": 3,
      "note": 64,
      "start": 31.5605,
      "duration": 0.0325,
      "velocity": 102,
      "chip": "ym2612"
    },
    {
      "channel": 4,
      "note": 95,
      "start": 31.5607,
      "duration": 0.2701,
      "velocity": 119,
      "chip": "ym2612"
    },
    {
      "channel": 1,
      "note": 52,
      "start": 31.5924,
      "duration": 0.1355,
      "velocity": 117,
      "chip": "ym2612"
    },
    {
      "channel": 3,
      "note": 52,
      "start": 31.5933,
      "duration": 0.1002,
      "velocity": 102,
      "chip": "ym2612"
    },
    {
      "channel": 2,
      "note": 59,
      "start": 31.693,
      "duration": 0.1356,
      "velocity": 102,
      "chip": "ym2612"
    },
    {
      "channel": 3,
      "note": 64,
      "start": 31.6939,
      "duration": 0.035,
      "velocity": 102,
      "chip": "ym2612"
    },
    {
      "channel": 0,
      "note": 97,
      "start": 31.7273,
      "duration": 0.1003,
      "velocity": 119,
      "chip": "ym2612"
    },
    {
      "channel": 1,
      "note": 57,
      "start": 31.7282,
      "duration": 0.1338,
      "velocity": 117,
      "chip": "ym2612"
    },
    {
      "channel": 3,
      "note": 57,
      "start": 31.7291,
      "duration": 0.1003,
      "velocity": 102,
      "chip": "ym2612"
    },
    {
      "channel": 0,
      "note": 97,
      "start": 31.8279,
      "duration": 0.0025,
      "velocity": 119,
      "chip": "ym2612"
    },
    {
      "channel": 2,
      "note": 61,
      "start": 31.8288,
      "duration": 0.0017,
      "velocity": 102,
      "chip": "ym2612"
    },
    {
      "channel": 3,
      "note": 64,
      "start": 31.8297,
      "duration": 0.001,
      "velocity": 102,
      "chip": "ym2612"
    },
    {
      "channel": 0,
      "note": 95,
      "start": 31.8305,
      "duration": 0.0307,
      "velocity": 119,
      "chip": "ym2612"
    },
    {
      "channel": 2,
      "note": 61,
      "start": 31.8306,
      "duration": 0.1315,
      "velocity": 102,
      "chip": "ym2612"
    },
    {
      "channel": 3,
      "note": 64,
      "start": 31.8307,
      "duration": 0.0322,
      "velocity": 102,
      "chip": "ym2612"
    },
    {
      "channel": 4,
      "note": 97,
      "start": 31.8309,
      "duration": 0.0329,
      "velocity": 119,
      "chip": "ym2612"
    },
    {
      "channel": 0,
      "note": 93,
      "start": 31.8614,
      "duration": 0.0998,
      "velocity": 119,
      "chip": "ym2612"
    },
    {
      "channel": 1,
      "note": 52,
      "start": 31.8623,
      "duration": 0.103,
      "velocity": 117,
      "chip": "ym2612"
    },
    {
      "channel": 3,
      "note": 52,
      "start": 31.8632,
      "duration": 0.0998,
      "velocity": 102,
      "chip": "ym2612"
    },
    {
      "channel": 4,
      "note": 97,
      "start": 31.8639,
      "duration": 0.1,
      "velocity": 119,
      "chip": "ym2612"
    },
    {
      "channel": 0,
      "note": 95,
      "start": 31.9615,
      "duration": 0.0035,
      "velocity": 119,
      "chip": "ym2612"
    },
    {
      "channel": 2,
      "note": 61,
      "start": 31.9624,
      "duration": 0.0988,
      "velocity": 102,
      "chip": "ym2612"
    },
    {
      "channel": 3,
      "note": 64,
      "start": 31.9633,
      "duration": 0.0022,
      "velocity": 102,
      "chip": "ym2612"
    },
    {
      "channel": 4,
      "note": 95,
      "start": 31.9641,
      "duration": 0.0006,
      "velocity": 119,
      "chip": "ym2612"
    },
    {
      "channel": 4,
      "note": 93,
      "start": 31.9648,
      "duration": 0.0013,
      "velocity": 119,
      "chip": "ym2612"
    },
    {
      "channel": 0,
      "note": 102,
      "start": 31.9651,
      "duration": 0.1297,
      "velocity": 119,
      "chip": "ym2612"
    },
    {
      "channel": 1,
      "note": 62,
      "start": 31.9653,
      "duration": 0.1303,
      "velocity": 117,
      "chip": "ym2612"
    },
    {
      "channel": 3,
      "note": 62,
      "start": 31.9656,
      "duration": 0.0966,
      "velocity": 102,
      "chip": "ym2612"
    },
    {
      "channel": 4,
      "note": 95,
      "start": 31.9662,
      "duration": 0.0972,
      "velocity": 119,
      "chip": "ym2612"
    },
    {
      "channel": 2,
      "note": 62,
      "start": 32.0616,
      "duration": 0.0015,
      "velocity": 102,
      "chip": "ym2612"
    },
    {
      "channel": 3,
      "note": 66,
      "start": 32.0624,
      "duration": 0.0007,
      "velocity": 102,
      "chip": "ym2612"
    },
    {
      "channel": 2,
      "note": 62,
      "start": 32.0631,
      "duration": 0.1324,
      "velocity": 102,
      "chip": "ym2612"
    },
    {
      "channel": 3,
      "note": 66,
      "start": 32.0632,
      "duration": 0.0333,
      "velocity": 102,
      "chip": "ym2612"
    },
    {
      "channel": 4,
      "note": 102,
      "start": 32.0634,
      "duration": 0.1338,
      "velocity": 119,
      "chip": "ym2612"
    },
    {
      "channel": 0,
      "note": 100,
      "start": 32.0951,
      "duration": 0.1344,
      "velocity": 119,
      "chip": "ym2612"
    },
    {
      "channel": 1,
      "note": 57,
      "start": 32.0959,
      "duration": 0.1345,
      "velocity": 117,
      "chip": "ym2612"
    },
    {
      "channel": 3,
      "note": 57,
      "start": 32.0968,
      "duration": 0.0995,
      "velocity": 102,
      "chip": "ym2612"
    },
    {
      "channel": 2,
      "note": 62,
      "start": 32.1957,
      "duration": 0.1352,
      "velocity": 102,
      "chip": "ym2612"
    },
    {
      "channel": 3,
      "note": 66,
      "start": 32.1966,
      "duration": 0.0347,
      "velocity": 102,
      "chip": "ym2612"
    },
    {
      "channel": 4,
      "note": 100,
      "start": 32.1973,
      "duration": 0.1359,
      "velocity": 119,
      "chip": "ym2612"
    },
    {
      "channel": 0,
      "note": 97,
      "start": 32.2298,
      "duration": 0.1002,
      "velocity": 119,
      "chip": "ym2612"
    },
    {
      "channel": 1,
      "note": 59,
      "start": 32.2306,
      "duration": 0.1337,
      "velocity": 117,
      "chip": "ym2612"
    },
    {
      "channel": 3,
      "note": 59,
      "start": 32.2316,
      "duration": 0.1002,
      "velocity": 102,
      "chip": "ym2612"
    },
    {
      "channel": 0,
      "note": 97,
      "start": 32.3303,
      "duration": 0.0024,
      "velocity": 119,
      "chip": "ym2612"
    },
    {
      "channel": 2,
      "note": 59,
      "start": 32.3312,
      "duration": 0.0016,
      "velocity": 102,
      "chip": "ym2612"
    },
    {
      "channel": 3,
      "note": 64,
      "start": 32.3321,
      "duration": 0.0009,
      "velocity": 102,
      "chip": "ym2612"
    },
    {
      "channel": 0,
      "note": 97,
      "start": 32.3328,
      "duration": 0.0307,
      "velocity": 119,
      "chip": "ym2612"
    },
    {
      "channel": 2,
      "note": 59,
      "start": 32.3329,
      "duration": 0.1316,
      "velocity": 102,
      "chip": "ym2612"
    },
    {
      "channel": 3,
      "note": 64,
      "start": 32.3331,
      "duration": 0.0322,
      "velocity": 102,
      "chip": "ym2612"
    },
    {
      "channel": 4,
      "note": 97,
      "start": 32.3333,
      "duration": 0.0329,
      "velocity": 119,
      "chip": "ym2612"
    },
    {
      "channel": 0,
      "note": 95,
      "start": 32.3638,
      "duration": 0.0998,
      "velocity": 119,
      "chip": "ym2612"
    },
    {
      "channel": 1,
      "note": 52,
      "start": 32.3646,
      "duration": 0.1029,
      "velocity": 117,
      "chip": "ym2612"
    },
    {
      "channel": 3,
      "note": 52,
      "start": 32.3656,
      "duration": 0.0998,
      "velocity": 102,
      "chip": "ym2612"
    },
    {
      "channel": 4,
      "note": 97,
      "start": 32.3663,
      "duration": 0.1,
      "velocity": 119,
      "chip": "ym2612"
    },
    {
      "channel": 0,
      "note": 97,
      "start": 32.4639,
      "duration": 0.0034,
      "velocity": 119,
      "chip": "ym2612"
    },
    {
      "channel": 2,
      "note": 59,
      "start": 32.4648,
      "duration": 0.0988,
      "velocity": 102,
      "chip": "ym2612"
    },
    {
      "channel": 3,
      "note": 64,
      "start": 32.4657,
      "duration": 0.0021,
      "velocity": 102,
      "chip": "ym2612"
    },
    {
      "channel": 4,
      "note": 97,
      "start": 32.4665,
      "duration": 0.0006,
      "velocity": 119,
      "chip": "ym2612"
    },
    {
      "channel": 4,
      "note": 95,
      "start": 32.4672,
      "duration": 0.0012,
      "velocity": 119,
      "chip": "ym2612"
    },
    {
      "channel": 0,
      "note": 93,
      "start": 32.4674,
      "duration": 0.2648,
      "velocity": 119,
      "chip": "ym2612"
    },
    {
      "channel": 1,
      "note": 57,
      "start": 32.4676,
      "duration": 0.1294,
      "velocity": 117,
      "chip": "ym2612"
    },
    {
      "channel": 3,
      "note": 57,
      "start": 32.4679,
      "duration": 0.0965,
      "velocity": 102,
      "chip": "ym2612"
    },
    {
      "channel": 4,
      "note": 97,
      "start": 32.4684,
      "duration": 0.0972,
      "velocity": 119,
      "chip": "ym2612"
    },
    {
      "channel": 2,
      "note": 61,
      "start": 32.5638,
      "duration": 0.0015,
      "velocity": 102,
      "chip": "ym2612"
    },
    {
      "channel": 3,
      "note": 64,
      "start": 32.5647,
      "duration": 0.0007,
      "velocity": 102,
      "chip": "ym2612"
    },
    {
      "channel": 2,
      "note": 61,
      "start": 32.5654,
      "duration": 0.1323,
      "velocity": 102,
      "chip": "ym2612"
    },
    {
      "channel": 3,
      "note": 64,
      "start": 32.5655,
      "duration": 0.0325,
      "velocity": 102,
      "chip": "ym2612"
    },
    {
      "channel": 4,
      "note": 93,
      "start": 32.5657,
      "duration": 0.2702,
      "velocity": 119,
      "chip": "ym2612"
    },
    {
      "channel": 1,
      "note": 52,
      "start": 32.5973,
      "duration": 0.1357,
      "velocity": 117,
      "chip": "ym2612"
    },
    {
      "channel": 3,
      "note": 52,
      "start": 32.5983,
      "duration": 0.1002,
      "velocity": 102,
      "chip": "ym2612"
    },
    {
      "channel": 2,
      "note": 61,
      "start": 32.6979,
      "duration": 0.1356,
      "velocity": 102,
      "chip": "ym2612"
    },
    {
      "channel": 3,
      "note": 64,
      "start": 32.6988,
      "duration": 0.0354,
      "velocity": 102,
      "chip": "ym2612"
    },
    {
      "channel": 0,
      "note": 85,
      "start": 32.7325,
      "duration": 0.1001,
      "velocity": 119,
      "chip": "ym2612"
    },
    {
      "channel": 1,
      "note": 57,
      "start": 32.7334,
      "duration": 0.1335,
      "velocity": 117,
      "chip": "ym2612"
    },
    {
      "channel": 3,
      "note": 57,
      "start": 32.7344,
      "duration": 0.1,
      "velocity": 102,
      "chip": "ym2612"
    },
    {
      "channel": 0,
      "note": 85,
      "start": 32.8329,
      "duration": 0.0026,
      "velocity": 119,
      "chip": "ym2612"
    },
    {
      "channel": 2,
      "note": 61,
      "start": 32.8338,
      "duration": 0.0018,
      "velocity": 102,
      "chip": "ym2612"
    },
    {
      "channel": 3,
      "note": 64,
      "start": 32.8348,
      "duration": 0.001,
      "velocity": 102,
      "chip": "ym2612"
    },
    {
      "channel": 0,
      "note": 83,
      "start": 32.8355,
      "duration": 0.0305,
      "velocity": 119,
      "chip": "ym2612"
    },
    {
      "channel": 2,
      "note": 61,
      "start": 32.8357,
      "duration": 0.1314,
      "velocity": 102,
      "chip": "ym2612"
    },
    {
      "channel": 3,
      "note": 64,
      "start": 32.8358,
      "duration": 0.032,
      "velocity": 102,
      "chip": "ym2612"
    },
    {
      "channel": 4,
      "note": 85,
      "start": 32.836,
      "duration": 0.0327,
      "velocity": 119,
      "chip": "ym2612"
    },
    {
      "channel": 0,
      "note": 81,
      "start": 32.8663,
      "duration": 0.0998,
      "velocity": 119,
      "chip": "ym2612"
    },
    {
      "channel": 1,
      "note": 52,
      "start": 32.8672,
      "duration": 0.103,
      "velocity": 117,
      "chip": "ym2612"
    },
    {
      "channel": 3,
      "note": 52,
      "start": 32.8681,
      "duration": 0.0998,
      "velocity": 102,
      "chip": "ym2612"
    },
    {
      "channel": 4,
      "note": 85,
      "start": 32.8688,
      "duration": 0.1,
      "velocity": 119,
      "chip": "ym2612"
    },
    {
      "channel": 0,
      "note": 83,
      "start": 32.9664,
      "duration": 0.0035,
      "velocity": 119,
      "chip": "ym2612"
    },
    {
      "channel": 2,
      "note": 61,
      "start": 32.9673,
      "duration": 0.0988,
      "velocity": 102,
      "chip": "ym2612"
    },
    {
      "channel": 3,
      "note": 64,
      "start": 32.9682,
      "duration": 0.0022,
      "velocity": 102,
      "chip": "ym2612"
    },
    {
      "channel": 4,
      "note": 83,
      "start": 32.969,
      "duration": 0.0006,
      "velocity": 119,
      "chip": "ym2612"
    },
    {
      "channel": 4,
      "note": 81,
      "start": 32.9697,
      "duration": 0.0012,
      "velocity": 119,
      "chip": "ym2612"
    },
    {
      "channel": 0,
      "note": 88,
      "start": 32.97,
      "duration": 0.1296,
      "velocity": 119,
      "chip": "ym2612"
    },
    {
      "channel": 1,
      "note": 57,
      "start": 32.9702,
      "duration": 0.1302,
      "velocity": 117,
      "chip": "ym2612"
    },
    {
      "channel": 3,
      "note": 57,
      "start": 32.9704,
      "duration": 0.0966,
      "velocity": 102,
      "chip": "ym2612"
    },
    {
      "channel": 4,
      "note": 83,
      "start": 32.971,
      "duration": 0.0972,
      "velocity": 119,
      "chip": "ym2612"
    },
    {
      "channel": 2,
      "note": 61,
      "start": 33.0664,
      "duration": 0.0015,
      "velocity": 102,
      "chip": "ym2612"
    },
    {
      "channel": 3,
      "note": 64,
      "start": 33.0673,
      "duration": 0.0007,
      "velocity": 102,
      "chip": "ym2612"
    },
    {
      "channel": 2,
      "note": 61,
      "start": 33.0679,
      "duration": 0.1324,
      "velocity": 102,
      "chip": "ym2612"
    },
    {
      "channel": 3,
      "note": 64,
      "start": 33.0681,
      "duration": 0.0333,
      "velocity": 102,
      "chip": "ym2612"
    },
    {
      "channel": 4,
      "note": 88,
      "start": 33.0683,
      "duration": 0.1338,
      "velocity": 119,
      "chip": "ym2612"
    },
    {
      "channel": 0,
      "note": 85,
      "start": 33.0999,
      "duration": 0.1344,
      "velocity": 119,
      "chip": "ym2612"
    },
    {
      "channel": 1,
      "note": 52,
      "start": 33.1007,
      "duration": 0.1344,
      "velocity": 117,
      "chip": "ym2612"
    },
    {
      "channel": 3,
      "note": 52,
      "start": 33.1017,
      "duration": 0.0995,
      "velocity": 102,
      "chip": "ym2612"
    },
    {
      "channel": 2,
      "note": 61,
      "start": 33.2006,
      "duration": 0.1352,
      "velocity": 102,
      "chip": "ym2612"
    },
    {
      "channel": 3,
      "note": 64,
      "start": 33.2014,
      "duration": 0.0346,
      "velocity": 102,
      "chip": "ym2612"
    },
    {
      "channel": 4,
      "note": 85,
      "start": 33.2022,
      "duration": 0.1358,
      "velocity": 119,
      "chip": "ym2612"
    },
    {
      "channel": 0,
      "note": 85,
      "start": 33.2346,
      "duration": 0.1003,
      "velocity": 119,
      "chip": "ym2612"
    },
    {
      "channel": 1,
      "note": 57,
      "start": 33.2354,
      "duration": 0.1337,
      "velocity": 117,
      "chip": "ym2612"
    },
    {
      "channel": 3,
      "note": 57,
      "start": 33.2364,
      "duration": 0.1002,
      "velocity": 102,
      "chip": "ym2612"
    },
    {
      "channel": 0,
      "note": 85,
      "start": 33.3351,
      "duration": 0.0025,
      "velocity": 119,
      "chip": "ym2612"
    },
    {
      "channel": 2,
      "note": 61,
      "start": 33.3361,
      "duration": 0.0017,
      "velocity": 102,
      "chip": "ym2612"
    },
    {
      "channel": 3,
      "note": 64,
      "start": 33.3369,
      "duration": 0.001,
      "velocity": 102,
      "chip": "ym2612"
    },
    {
      "channel": 0,
      "note": 83,
      "start": 33.3377,
      "duration": 0.0306,
      "velocity": 119,
      "chip": "ym2612"
    },
    {
      "channel": 2,
      "note": 61,
      "start": 33.3378,
      "duration": 0.1315,
      "velocity": 102,
      "chip": "ym2612"
    },
    {
      "channel": 3,
      "note": 64,
      "start": 33.338,
      "duration": 0.0321,
      "velocity": 102,
      "chip": "ym2612"
    },
    {
      "channel": 4,
      "note": 85,
      "start": 33.3381,
      "duration": 0.0329,
      "velocity": 119,
      "chip": "ym2612"
    },
    {
      "channel": 0,
      "note": 81,
      "start": 33.3686,
      "duration": 0.0998,
      "velocity": 119,
      "chip": "ym2612"
    },
    {
      "channel": 1,
      "note": 52,
      "start": 33.3694,
      "duration": 0.1029,
      "velocity": 117,
      "chip": "ym2612"
    },
    {
      "channel": 3,
      "note": 52,
      "start": 33.3704,
      "duration": 0.0998,
      "velocity": 102,
      "chip": "ym2612"
    },
    {
      "channel": 4,
      "note": 85,
      "start": 33.371,
      "duration": 0.1,
      "velocity": 119,
      "chip": "ym2612"
    },
    {
      "channel": 0,
      "note": 85,
      "start": 33.4687,
      "duration": 0.0035,
      "velocity": 119,
      "chip": "ym2612"
    },
    {
      "channel": 2,
      "note": 61,
      "start": 33.4696,
      "duration": 0.0988,
      "velocity": 102,
      "chip": "ym2612"
    },
    {
      "channel": 3,
      "note": 64,
      "start": 33.4704,
      "duration": 0.0022,
      "velocity": 102,
      "chip": "ym2612"
    },
    {
      "channel": 4,
      "note": 83,
      "start": 33.4713,
      "duration": 0.0006,
      "velocity": 119,
      "chip": "ym2612"
    },
    {
      "channel": 4,
      "note": 81,
      "start": 33.472,
      "duration": 0.0012,
      "velocity": 119,
      "chip": "ym2612"
    },
    {
      "channel": 0,
      "note": 83,
      "start": 33.4722,
      "duration": 0.2646,
      "velocity": 119,
      "chip": "ym2612"
    },
    {
      "channel": 1,
      "note": 59,
      "start": 33.4724,
      "duration": 0.1294,
      "velocity": 117,
      "chip": "ym2612"
    },
    {
      "channel": 3,
      "note": 59,
      "start": 33.4727,
      "duration": 0.0966,
      "velocity": 102,
      "chip": "ym2612"
    },
    {
      "channel": 4,
      "note": 85,
      "start": 33.4733,
      "duration": 0.0972,
      "velocity": 119,
      "chip": "ym2612"
    },
    {
      "channel": 2,
      "note": 59,
      "start": 33.5687,
      "duration": 0.0015,
      "velocity": 102,
      "chip": "ym2612"
    },
    {
      "channel": 3,
      "note": 64,
      "start": 33.5695,
      "duration": 0.0007,
      "velocity": 102,
      "chip": "ym2612"
    },
    {
      "channel": 2,
      "note": 59,
      "start": 33.5702,
      "duration": 0.1323,
      "velocity": 102,
      "chip": "ym2612"
    },
    {
      "channel": 3,
      "note": 64,
      "start": 33.5703,
      "duration": 0.0325,
      "velocity": 102,
      "chip": "ym2612"
    },
    {
      "channel": 4,
      "note": 83,
      "start": 33.5705,
      "duration": 0.2702,
      "velocity": 119,
      "chip": "ym2612"
    },
    {
      "channel": 1,
      "note": 52,
      "start": 33.6021,
      "duration": 0.1356,
      "velocity": 117,
      "chip": "ym2612"
    },
    {
      "channel": 3,
      "note": 52,
      "start": 33.6031,
      "duration": 0.1003,
      "velocity": 102,
      "chip": "ym2612"
    },
    {
      "channel": 2,
      "note": 59,
      "start": 33.7028,
      "duration": 0.1356,
      "velocity": 102,
      "chip": "ym2612"
    },
    {
      "channel": 3,
      "note": 64,
      "start": 33.7036,
      "duration": 0.035,
      "velocity": 102,
      "chip": "ym2612"
    },
    {
      "channel": 0,
      "note": 85,
      "start": 33.7371,
      "duration": 0.1003,
      "velocity": 119,
      "chip": "ym2612"
    },
    {
      "channel": 1,
      "note": 57,
      "start": 33.738,
      "duration": 0.1339,
      "velocity": 117,
      "chip": "ym2612"
    },
    {
      "channel": 3,
      "note": 57,
      "start": 33.7389,
      "duration": 0.1003,
      "velocity": 102,
      "chip": "ym2612"
    },
    {
      "channel": 0,
      "note": 85,
      "start": 33.8377,
      "duration": 0.0025,
      "velocity": 119,
      "chip": "ym2612"
    },
    {
      "channel": 2,
      "note": 61,
      "start": 33.8386,
      "duration": 0.0017,
      "velocity": 102,
      "chip": "ym2612"
    },
    {
      "channel": 3,
      "note": 64,
      "start": 33.8395,
      "duration": 0.001,
      "velocity": 102,
      "chip": "ym2612"
    },
    {
      "channel": 0,
      "note": 83,
      "start": 33.8402,
      "duration": 0.0307,
      "velocity": 119,
      "chip": "ym2612"
    },
    {
      "channel": 2,
      "note": 61,
      "start": 33.8404,
      "duration": 0.1316,
      "velocity": 102,
      "chip": "ym2612"
    },
    {
      "channel": 3,
      "note": 64,
      "start": 33.8405,
      "duration": 0.0322,
      "velocity": 102,
      "chip": "ym2612"
    },
    {
      "channel": 4,
      "note": 85,
      "start": 33.8407,
      "duration": 0.0329,
      "velocity": 119,
      "chip": "ym2612"
    },
    {
      "channel": 0,
      "note": 81,
      "start": 33.8712,
      "duration": 0.0998,
      "velocity": 119,
      "chip": "ym2612"
    },
    {
      "channel": 1,
      "note": 52,
      "start": 33.8721,
      "duration": 0.1029,
      "velocity": 117,
      "chip": "ym2612"
    },
    {
      "channel": 3,
      "note": 52,
      "start": 33.873,
      "duration": 0.0998,
      "velocity": 102,
      "chip": "ym2612"
    },
    {
      "channel": 4,
      "note": 85,
      "start": 33.8737,
      "duration": 0.1,
      "velocity": 119,
      "chip": "ym2612"
    },
    {
      "channel": 0,
      "note": 83,
      "start": 33.9714,
      "duration": 0.0034,
      "velocity": 119,
      "chip": "ym2612"
    },
    {
      "channel": 2,
      "note": 61,
      "start": 33.9723,
      "duration": 0.0988,
      "velocity": 102,
      "chip": "ym2612"
    },
    {
      "channel": 3,
      "note": 64,
      "start": 33.9731,
      "duration": 0.0021,
      "velocity": 102,
      "chip": "ym2612"
    },
    {
      "channel": 4,
      "note": 83,
      "start": 33.974,
      "duration": 0.0006,
      "velocity": 119,
      "chip": "ym2612"
    },
    {
      "channel": 4,
      "note": 81,
      "start": 33.9746,
      "duration": 0.0012,
      "velocity": 119,
      "chip": "ym2612"
    },
    {
      "channel": 0,
      "note": 90,
      "start": 33.9749,
      "duration": 0.1296,
      "velocity": 119,
      "chip": "ym2612"
    },
    {
      "channel": 1,
      "note": 62,
      "start": 33.9751,
      "duration": 0.1302,
      "velocity": 117,
      "chip": "ym2612"
    },
    {
      "channel": 3,
      "note": 62,
      "start": 33.9753,
      "duration": 0.0965,
      "velocity": 102,
      "chip": "ym2612"
    },
    {
      "channel": 4,
      "note": 83,
      "start": 33.9759,
      "duration": 0.0972,
      "velocity": 119,
      "chip": "ym2612"
    },
    {
      "channel": 2,
      "note": 62,
      "start": 34.0713,
      "duration": 0.0015,
      "velocity": 102,
      "chip": "ym2612"
    },
    {
      "channel": 3,
      "note": 66,
      "start": 34.0722,
      "duration": 0.0007,
      "velocity": 102,
      "chip": "ym2612"
    },
    {
      "channel": 2,
      "note": 62,
      "start": 34.0728,
      "duration": 0.1323,
      "velocity": 102,
      "chip": "ym2612"
    },
    {
      "channel": 3,
      "note": 66,
      "start": 34.0729,
      "duration": 0.0333,
      "velocity": 102,
      "chip": "ym2612"
    },
    {
      "channel": 4,
      "note": 90,
      "start": 34.0732,
      "duration": 0.1338,
      "velocity": 119,
      "chip": "ym2612"
    },
    {
      "channel": 0,
      "note": 88,
      "start": 34.1047,
      "duration": 0.1344,
      "velocity": 119,
      "chip": "ym2612"
    },
    {
      "channel": 1,
      "note": 57,
      "start": 34.1056,
      "duration": 0.1344,
      "velocity": 117,
      "chip": "ym2612"
    },
    {
      "channel": 3,
      "note": 57,
      "start": 34.1065,
      "duration": 0.0995,
      "velocity": 102,
      "chip": "ym2612"
    },
    {
      "channel": 2,
      "note": 62,
      "start": 34.2054,
      "duration": 0.1352,
      "velocity": 102,
      "chip": "ym2612"
    },
    {
      "channel": 3,
      "note": 66,
      "start": 34.2063,
      "duration": 0.0346,
      "velocity": 102,
      "chip": "ym2612"
    },
    {
      "channel": 4,
      "note": 88,
      "start": 34.207,
      "duration": 0.1358,
      "velocity": 119,
      "chip": "ym2612"
    },
    {
      "channel": 0,
      "note": 85,
      "start": 34.2394,
      "duration": 0.1003,
      "velocity": 119,
      "chip": "ym2612"
    },
    {
      "channel": 1,
      "note": 59,
      "start": 34.2403,
      "duration": 0.1337,
      "velocity": 117,
      "chip": "ym2612"
    },
    {
      "channel": 3,
      "note": 59,
      "start": 34.2412,
      "duration": 0.1003,
      "velocity": 102,
      "chip": "ym2612"
    },
    {
      "channel": 0,
      "note": 85,
      "start": 34.34,
      "duration": 0.0024,
      "velocity": 119,
      "chip": "ym2612"
    },
    {
      "channel": 2,
      "note": 59,
      "start": 34.3409,
      "duration": 0.0016,
      "velocity": 102,
      "chip": "ym2612"
    },
    {
      "channel": 3,
      "note": 64,
      "start": 34.3417,
      "duration": 0.0009,
      "velocity": 102,
      "chip": "ym2612"
    },
    {
      "channel": 0,
      "note": 85,
      "start": 34.3424,
      "duration": 0.0307,
      "velocity": 119,
      "chip": "ym2612"
    },
    {
      "channel": 2,
      "note": 59,
      "start": 34.3426,
      "duration": 0.1316,
      "velocity": 102,
      "chip": "ym2612"
    },
    {
      "channel": 3,
      "note": 64,
      "start": 34.3427,
      "duration": 0.0322,
      "velocity": 102,
      "chip": "ym2612"
    },
    {
      "channel": 4,
      "note": 85,
      "start": 34.3429,
      "duration": 0.0329,
      "velocity": 119,
      "chip": "ym2612"
    },
    {
      "channel": 0,
      "note": 83,
      "start": 34.3734,
      "duration": 0.0998,
      "velocity": 119,
      "chip": "ym2612"
    },
    {
      "channel": 1,
      "note": 52,
      "start": 34.3743,
      "duration": 0.103,
      "velocity": 117,
      "chip": "ym2612"
    },
    {
      "channel": 3,
      "note": 52,
      "start": 34.3752,
      "duration": 0.0998,
      "velocity": 102,
      "chip": "ym2612"
    },
    {
      "channel": 4,
      "note": 85,
      "start": 34.3759,
      "duration": 0.1,
      "velocity": 119,
      "chip": "ym2612"
    },
    {
      "channel": 0,
      "note": 85,
      "start": 34.4735,
      "duration": 0.0035,
      "velocity": 119,
      "chip": "ym2612"
    },
    {
      "channel": 2,
      "note": 59,
      "start": 34.4744,
      "duration": 0.0988,
      "velocity": 102,
      "chip": "ym2612"
    },
    {
      "channel": 3,
      "note": 64,
      "start": 34.4753,
      "duration": 0.0022,
      "velocity": 102,
      "chip": "ym2612"
    },
    {
      "channel": 4,
      "note": 85,
      "start": 34.4761,
      "duration": 0.0006,
      "velocity": 119,
      "chip": "ym2612"
    },
    {
      "channel": 4,
      "note": 83,
      "start": 34.4768,
      "duration": 0.0012,
      "velocity": 119,
      "chip": "ym2612"
    },
    {
      "channel": 0,
      "note": 81,
      "start": 34.4771,
      "duration": 0.2647,
      "velocity": 119,
      "chip": "ym2612"
    },
    {
      "channel": 1,
      "note": 57,
      "start": 34.4773,
      "duration": 0.1294,
      "velocity": 117,
      "chip": "ym2612"
    },
    {
      "channel": 3,
      "note": 57,
      "start": 34.4775,
      "duration": 0.0966,
      "velocity": 102,
      "chip": "ym2612"
    },
    {
      "channel": 4,
      "note": 85,
      "start": 34.4781,
      "duration": 0.0972,
      "velocity": 119,
      "chip": "ym2612"
    },
    {
      "channel": 2,
      "note": 61,
      "start": 34.5735,
      "duration": 0.0015,
      "velocity": 102,
      "chip": "ym2612"
    },
    {
      "channel": 3,
      "note": 64,
      "start": 34.5744,
      "duration": 0.0007,
      "velocity": 102,
      "chip": "ym2612"
    },
    {
      "channel": 2,
      "note": 61,
      "start": 34.575,
      "duration": 0.1323,
      "velocity": 102,
      "chip": "ym2612"
    },
    {
      "channel": 3,
      "note": 64,
      "start": 34.5752,
      "duration": 0.0325,
      "velocity": 102,
      "chip": "ym2612"
    },
    {
      "channel": 4,
      "note": 81,
      "start": 34.5754,
      "duration": 0.2691,
      "velocity": 119,
      "chip": "ym2612"
    },
    {
      "channel": 1,
      "note": 52,
      "start": 34.607,
      "duration": 0.1357,
      "velocity": 117,
      "chip": "ym2612"
    },
    {
      "channel": 3,
      "note": 52,
      "start": 34.6079,
      "duration": 0.1002,
      "velocity": 102,
      "chip": "ym2612"
    },
    {
      "channel": 2,
      "note": 61,
      "start": 34.7076,
      "duration": 0.1346,
      "velocity": 102,
      "chip": "ym2612"
    },
    {
      "channel": 3,
      "note": 64,
      "start": 34.7084,
      "duration": 0.1346,
      "velocity": 102,
      "chip": "ym2612"
    },
    {
      "channel": 0,
      "note": 73,
      "start": 34.7421,
      "duration": 0.0018,
      "velocity": 119,
      "chip": "ym2612"
    },
    {
      "channel": 1,
      "note": 57,
      "start": 34.743,
      "duration": 0.1332,
      "velocity": 117,
      "chip": "ym2612"
    },
    {
      "channel": 0,
      "note": 76,
      "start": 34.744,
      "duration": 0.1,
      "velocity": 119,
      "chip": "ym2612"
    },
    {
      "channel": 2,
      "note": 61,
      "start": 34.8424,
      "duration": 0.0017,
      "velocity": 102,
      "chip": "ym2612"
    },
    {
      "channel": 3,
      "note": 64,
      "start": 34.8434,
      "duration": 0.001,
      "velocity": 102,
      "chip": "ym2612"
    },
    {
      "channel": 0,
      "note": 73,
      "start": 34.8441,
      "duration": 0.0313,
      "velocity": 119,
      "chip": "ym2612"
    },
    {
      "channel": 2,
      "note": 61,
      "start": 34.8443,
      "duration": 0.1319,
      "velocity": 102,
      "chip": "ym2612"
    },
    {
      "channel": 3,
      "note": 64,
      "start": 34.8444,
      "duration": 0.1326,
      "velocity": 102,
      "chip": "ym2612"
    },
    {
      "channel": 4,
      "note": 73,
      "start": 34.8446,
      "duration": 0.0327,
      "velocity": 119,
      "chip": "ym2612"
    },
    {
      "channel": 0,
      "note": 76,
      "start": 34.8757,
      "duration": 0.1033,
      "velocity": 119,
      "chip": "ym2612"
    },
    {
      "channel": 1,
      "note": 57,
      "start": 34.8765,
      "duration": 0.1028,
      "velocity": 117,
      "chip": "ym2612"
    },
    {
      "channel": 4,
      "note": 76,
      "start": 34.8776,
      "duration": 0.1002,
      "velocity": 119,
      "chip": "ym2612"
    },
    {
      "channel": 2,
      "note": 61,
      "start": 34.9764,
      "duration": 0.1013,
      "velocity": 102,
      "chip": "ym2612"
    },
    {
      "channel": 3,
      "note": 64,
      "start": 34.9773,
      "duration": 0.1013,
      "velocity": 102,
      "chip": "ym2612"
    },
    {
      "channel": 4,
      "note": 73,
      "start": 34.9781,
      "duration": 0.0006,
      "velocity": 119,
      "chip": "ym2612"
    },
    {
      "channel": 4,
      "note": 76,
      "start": 34.9788,
      "duration": 0.1012,
      "velocity": 119,
      "chip": "ym2612"
    },
    {
      "channel": 0,
      "note": 73,
      "start": 34.979,
      "duration": 0.0021,
      "velocity": 119,
      "chip": "ym2612"
    },
    {
      "channel": 1,
      "note": 61,
      "start": 34.9798,
      "duration": 0.132,
      "velocity": 117,
      "chip": "ym2612"
    },
    {
      "channel": 0,
      "note": 76,
      "start": 34.9812,
      "duration": 0.0983,
      "velocity": 119,
      "chip": "ym2612"
    },
    {
      "channel": 2,
      "note": 61,
      "start": 35.078,
      "duration": 0.0017,
      "velocity": 102,
      "chip": "ym2612"
    },
    {
      "channel": 3,
      "note": 64,
      "start": 35.0788,
      "duration": 0.001,
      "velocity": 102,
      "chip": "ym2612"
    },
    {
      "channel": 0,
      "note": 73,
      "start": 35.0796,
      "duration": 0.0314,
      "velocity": 119,
      "chip": "ym2612"
    },
    {
      "channel": 2,
      "note": 61,
      "start": 35.0797,
      "duration": 0.132,
      "velocity": 102,
      "chip": "ym2612"
    },
    {
      "channel": 3,
      "note": 64,
      "start": 35.0799,
      "duration": 0.1327,
      "velocity": 102,
      "chip": "ym2612"
    },
    {
      "channel": 4,
      "note": 73,
      "start": 35.0801,
      "duration": 0.0328,
      "velocity": 119,
      "chip": "ym2612"
    },
    {
      "channel": 0,
      "note": 76,
      "start": 35.1113,
      "duration": 0.1344,
      "velocity": 119,
      "chip": "ym2612"
    },
    {
      "channel": 1,
      "note": 61,
      "start": 35.1121,
      "duration": 0.1344,
      "velocity": 117,
      "chip": "ym2612"
    },
    {
      "channel": 4,
      "note": 76,
      "start": 35.1132,
      "duration": 0.1002,
      "velocity": 119,
      "chip": "ym2612"
    },
    {
      "channel": 2,
      "note": 61,
      "start": 35.212,
      "duration": 0.1352,
      "velocity": 102,
      "chip": "ym2612"
    },
    {
      "channel": 3,
      "note": 64,
      "start": 35.2128,
      "duration": 0.1352,
      "velocity": 102,
      "chip": "ym2612"
    },
    {
      "channel": 4,
      "note": 73,
      "start": 35.2137,
      "duration": 0.0006,
      "velocity": 119,
      "chip": "ym2612"
    },
    {
      "channel": 4,
      "note": 76,
      "start": 35.2144,
      "duration": 0.1349,
      "velocity": 119,
      "chip": "ym2612"
    },
    {
      "channel": 0,
      "note": 78,
      "start": 35.246,
      "duration": 0.1003,
      "velocity": 119,
      "chip": "ym2612"
    },
    {
      "channel": 1,
      "note": 62,
      "start": 35.2468,
      "duration": 0.134,
      "velocity": 117,
      "chip": "ym2612"
    },
    {
      "channel": 0,
      "note": 78,
      "start": 35.3465,
      "duration": 0.0334,
      "velocity": 119,
      "chip": "ym2612"
    },
    {
      "channel": 2,
      "note": 62,
      "start": 35.3475,
      "duration": 0.0015,
      "velocity": 102,
      "chip": "ym2612"
    },
    {
      "channel": 3,
      "note": 66,
      "start": 35.3483,
      "duration": 0.0007,
      "velocity": 102,
      "chip": "ym2612"
    },
    {
      "channel": 2,
      "note": 62,
      "start": 35.349,
      "duration": 0.132,
      "velocity": 102,
      "chip": "ym2612"
    },
    {
      "channel": 3,
      "note": 66,
      "start": 35.3491,
      "duration": 0.1327,
      "velocity": 102,
      "chip": "ym2612"
    },
    {
      "channel": 4,
      "note": 78,
      "start": 35.3493,
      "duration": 0.0325,
      "velocity": 119,
      "chip": "ym2612"
    },
    {
      "channel": 0,
      "note": 76,
      "start": 35.3802,
      "duration": 0.0998,
      "velocity": 119,
      "chip": "ym2612"
    },
    {
      "channel": 1,
      "note": 62,
      "start": 35.381,
      "duration": 0.1023,
      "velocity": 117,
      "chip": "ym2612"
    },
    {
      "channel": 4,
      "note": 78,
      "start": 35.3819,
      "duration": 0.1008,
      "velocity": 119,
      "chip": "ym2612"
    },
    {
      "channel": 0,
      "note": 73,
      "start": 35.4803,
      "duration": 0.0027,
      "velocity": 119,
      "chip": "ym2612"
    },
    {
      "channel": 2,
      "note": 62,
      "start": 35.4812,
      "duration": 0.1004,
      "velocity": 102,
      "chip": "ym2612"
    },
    {
      "channel": 3,
      "note": 66,
      "start": 35.4821,
      "duration": 0.1004,
      "velocity": 102,
      "chip": "ym2612"
    },
    {
      "channel": 4,
      "note": 76,
      "start": 35.4828,
      "duration": 0.0023,
      "velocity": 119,
      "chip": "ym2612"
    },
    {
      "channel": 0,
      "note": 76,
      "start": 35.4831,
      "duration": 0.267,
      "velocity": 119,
      "chip": "ym2612"
    },
    {
      "channel": 1,
      "note": 61,
      "start": 35.4838,
      "duration": 0.1314,
      "velocity": 117,
      "chip": "ym2612"
    },
    {
      "channel": 4,
      "note": 73,
      "start": 35.4852,
      "duration": 0.0985,
      "velocity": 119,
      "chip": "ym2612"
    },
    {
      "channel": 2,
      "note": 61,
      "start": 35.5819,
      "duration": 0.0015,
      "velocity": 102,
      "chip": "ym2612"
    },
    {
      "channel": 3,
      "note": 64,
      "start": 35.5828,
      "duration": 0.0007,
      "velocity": 102,
      "chip": "ym2612"
    },
    {
      "channel": 2,
      "note": 61,
      "start": 35.5834,
      "duration": 0.1323,
      "velocity": 102,
      "chip": "ym2612"
    },
    {
      "channel": 3,
      "note": 64,
      "start": 35.5836,
      "duration": 0.133,
      "velocity": 102,
      "chip": "ym2612"
    },
    {
      "channel": 4,
      "note": 76,
      "start": 35.5838,
      "duration": 0.269,
      "velocity": 119,
      "chip": "ym2612"
    },
    {
      "channel": 1,
      "note": 61,
      "start": 35.6154,
      "duration": 0.1355,
      "velocity": 117,
      "chip": "ym2612"
    },
    {
      "channel": 2,
      "note": 61,
      "start": 35.7161,
      "duration": 0.1344,
      "velocity": 102,
      "chip": "ym2612"
    },
    {
      "channel": 3,
      "note": 64,
      "start": 35.7169,
      "duration": 0.1344,
      "velocity": 102,
      "chip": "ym2612"
    },
    {
      "channel": 0,
      "note": 73,
      "start": 35.7504,
      "duration": 0.0017,
      "velocity": 119,
      "chip": "ym2612"
    },
    {
      "channel": 1,
      "note": 57,
      "start": 35.7512,
      "duration": 0.1334,
      "velocity": 117,
      "chip": "ym2612"
    },
    {
      "channel": 0,
      "note": 76,
      "start": 35.7522,
      "duration": 0.1001,
      "velocity": 119,
      "chip": "ym2612"
    },
    {
      "channel": 2,
      "note": 61,
      "start": 35.8507,
      "duration": 0.0017,
      "velocity": 102,
      "chip": "ym2612"
    },
    {
      "channel": 3,
      "note": 64,
      "start": 35.8516,
      "duration": 0.001,
      "velocity": 102,
      "chip": "ym2612"
    },
    {
      "channel": 0,
      "note": 73,
      "start": 35.8524,
      "duration": 0.0314,
      "velocity": 119,
      "chip": "ym2612"
    },
    {
      "channel": 2,
      "note": 61,
      "start": 35.8525,
      "duration": 0.132,
      "velocity": 102,
      "chip": "ym2612"
    },
    {
      "channel": 3,
      "note": 64,
      "start": 35.8526,
      "duration": 0.1327,
      "velocity": 102,
      "chip": "ym2612"
    },
    {
      "channel": 4,
      "note": 73,
      "start": 35.8528,
      "duration": 0.0328,
      "velocity": 119,
      "chip": "ym2612"
    },
    {
      "channel": 0,
      "note": 76,
      "start": 35.884,
      "duration": 0.1033,
      "velocity": 119,
      "chip": "ym2612"
    },
    {
      "channel": 1,
      "note": 57,
      "start": 35.8849,
      "duration": 0.1029,
      "velocity": 117,
      "chip": "ym2612"
    },
    {
      "channel": 4,
      "note": 76,
      "start": 35.8859,
      "duration": 0.1003,
      "velocity": 119,
      "chip": "ym2612"
    },
    {
      "channel": 2,
      "note": 61,
      "start": 35.9848,
      "duration": 0.1013,
      "velocity": 102,
      "chip": "ym2612"
    },
    {
      "channel": 3,
      "note": 64,
      "start": 35.9856,
      "duration": 0.1013,
      "velocity": 102,
      "chip": "ym2612"
    },
    {
      "channel": 4,
      "note": 73,
      "start": 35.9864,
      "duration": 0.0006,
      "velocity": 119,
      "chip": "ym2612"
    },
    {
      "channel": 4,
      "note": 76,
      "start": 35.9871,
      "duration": 0.1013,
      "velocity": 119,
      "chip": "ym2612"
    },
    {
      "channel": 0,
      "note": 73,
      "start": 35.9874,
      "duration": 0.0021,
      "velocity": 119,
      "chip": "ym2612"
    },
    {
      "channel": 1,
      "note": 61,
      "start": 35.9882,
      "duration": 0.132,
      "velocity": 117,
      "chip": "ym2612"
    },
    {
      "channel": 0,
      "note": 76,
      "start": 35.9896,
      "duration": 0.0983,
      "velocity": 119,
      "chip": "ym2612"
    },
    {
      "channel": 2,
      "note": 61,
      "start": 36.0863,
      "duration": 0.0017,
      "velocity": 102,
      "chip": "ym2612"
    },
    {
      "channel": 3,
      "note": 64,
      "start": 36.0872,
      "duration": 0.001,
      "velocity": 102,
      "chip": "ym2612"
    },
    {
      "channel": 0,
      "note": 73,
      "start": 36.088,
      "duration": 0.0314,
      "velocity": 119,
      "chip": "ym2612"
    },
    {
      "channel": 2,
      "note": 61,
      "start": 36.0881,
      "duration": 0.132,
      "velocity": 102,
      "chip": "ym2612"
    },
    {
      "channel": 3,
      "note": 64,
      "start": 36.0882,
      "duration": 0.1327,
      "velocity": 102,
      "chip": "ym2612"
    },
    {
      "channel": 4,
      "note": 73,
      "start": 36.0885,
      "duration": 0.0328,
      "velocity": 119,
      "chip": "ym2612"
    },
    {
      "channel": 0,
      "note": 76,
      "start": 36.1196,
      "duration": 0.1344,
      "velocity": 119,
      "chip": "ym2612"
    },
    {
      "channel": 1,
      "note": 61,
      "start": 36.1205,
      "duration": 0.1344,
      "velocity": 117,
      "chip": "ym2612"
    },
    {
      "channel": 4,
      "note": 76,
      "start": 36.1215,
      "duration": 0.1002,
      "velocity": 119,
      "chip": "ym2612"
    },
    {
      "channel": 2,
      "note": 61,
      "start": 36.2203,
      "duration": 0.1352,
      "velocity": 102,
      "chip": "ym2612"
    },
    {
      "channel": 3,
      "note": 64,
      "start": 36.2212,
      "duration": 0.1352,
      "velocity": 102,
      "chip": "ym2612"
    },
    {
      "channel": 4,
      "note": 73,
      "start": 36.222,
      "duration": 0.0006,
      "velocity": 119,
      "chip": "ym2612"
    },
    {
      "channel": 4,
      "note": 76,
      "start": 36.2227,
      "duration": 0.1349,
      "velocity": 119,
      "chip": "ym2612"
    },
    {
      "channel": 0,
      "note": 76,
      "start": 36.2543,
      "duration": 0.1003,
      "velocity": 119,
      "chip": "ym2612"
    },
    {
      "channel": 1,
      "note": 59,
      "start": 36.2551,
      "duration": 0.1339,
      "velocity": 117,
      "chip": "ym2612"
    },
    {
      "channel": 0,
      "note": 73,
      "start": 36.3549,
      "duration": 0.0333,
      "velocity": 119,
      "chip": "ym2612"
    },
    {
      "channel": 2,
      "note": 59,
      "start": 36.3559,
      "duration": 0.0015,
      "velocity": 102,
      "chip": "ym2612"
    },
    {
      "channel": 3,
      "note": 64,
      "start": 36.3567,
      "duration": 0.0007,
      "velocity": 102,
      "chip": "ym2612"
    },
    {
      "channel": 2,
      "note": 59,
      "start": 36.3574,
      "duration": 0.132,
      "velocity": 102,
      "chip": "ym2612"
    },
    {
      "channel": 3,
      "note": 64,
      "start": 36.3575,
      "duration": 0.1327,
      "velocity": 102,
      "chip": "ym2612"
    },
    {
      "channel": 4,
      "note": 76,
      "start": 36.3576,
      "duration": 0.0326,
      "velocity": 119,
      "chip": "ym2612"
    },
    {
      "channel": 0,
      "note": 71,
      "start": 36.3885,
      "duration": 0.0999,
      "velocity": 119,
      "chip": "ym2612"
    },
    {
      "channel": 1,
      "note": 59,
      "start": 36.3894,
      "duration": 0.1023,
      "velocity": 117,
      "chip": "ym2612"
    },
    {
      "channel": 4,
      "note": 73,
      "start": 36.3903,
      "duration": 0.1009,
      "velocity": 119,
      "chip": "ym2612"
    },
    {
      "channel": 0,
      "note": 73,
      "start": 36.4887,
      "duration": 0.0027,
      "velocity": 119,
      "chip": "ym2612"
    },
    {
      "channel": 2,
      "note": 59,
      "start": 36.4896,
      "duration": 0.1004,
      "velocity": 102,
      "chip": "ym2612"
    },
    {
      "channel": 3,
      "note": 64,
      "start": 36.4905,
      "duration": 0.1004,
      "velocity": 102,
      "chip": "ym2612"
    },
    {
      "channel": 4,
      "note": 71,
      "start": 36.4912,
      "duration": 0.0022,
      "velocity": 119,
      "chip": "ym2612"
    },
    {
      "channel": 0,
      "note": 76,
      "start": 36.4915,
      "duration": 0.2672,
      "velocity": 119,
      "chip": "ym2612"
    },
    {
      "channel": 1,
      "note": 59,
      "start": 36.4922,
      "duration": 0.1314,
      "velocity": 117,
      "chip": "ym2612"
    },
    {
      "channel": 4,
      "note": 73,
      "start": 36.4935,
      "duration": 0.0986,
      "velocity": 119,
      "chip": "ym2612"
    },
    {
      "channel": 2,
      "note": 64,
      "start": 36.5903,
      "duration": 0.0015,
      "velocity": 102,
      "chip": "ym2612"
    },
    {
      "channel": 3,
      "note": 56,
      "start": 36.5912,
      "duration": 0.0007,
      "velocity": 102,
      "chip": "ym2612"
    },
    {
      "channel": 2,
      "note": 64,
      "start": 36.5918,
      "duration": 0.1323,
      "velocity": 102,
      "chip": "ym2612"
    },
    {
      "channel": 3,
      "note": 56,
      "start": 36.592,
      "duration": 0.1331,
      "velocity": 102,
      "chip": "ym2612"
    },
    {
      "channel": 4,
      "note": 76,
      "start": 36.5922,
      "duration": 0.2692,
      "velocity": 119,
      "chip": "ym2612"
    },
    {
      "channel": 1,
      "note": 59,
      "start": 36.6239,
      "duration": 0.1358,
      "velocity": 117,
      "chip": "ym2612"
    },
    {
      "channel": 2,
      "note": 64,
      "start": 36.7245,
      "duration": 0.1345,
      "velocity": 102,
      "chip": "ym2612"
    },
    {
      "channel": 3,
      "note": 56,
      "start": 36.7253,
      "duration": 0.1346,
      "velocity": 102,
      "chip": "ym2612"
    },
    {
      "channel": 0,
      "note": 73,
      "start": 36.759,
      "duration": 0.0018,
      "velocity": 119,
      "chip": "ym2612"
    },
    {
      "channel": 1,
      "note": 57,
      "start": 36.7599,
      "duration": 0.1332,
      "velocity": 117,
      "chip": "ym2612"
    },
    {
      "channel": 0,
      "note": 76,
      "start": 36.7609,
      "duration": 0.1,
      "velocity": 119,
      "chip": "ym2612"
    },
    {
      "channel": 2,
      "note": 61,
      "start": 36.8593,
      "duration": 0.0017,
      "velocity": 102,
      "chip": "ym2612"
    },
    {
      "channel": 3,
      "note": 64,
      "start": 36.8602,
      "duration": 0.001,
      "velocity": 102,
      "chip": "ym2612"
    },
    {
      "channel": 0,
      "note": 73,
      "start": 36.861,
      "duration": 0.0313,
      "velocity": 119,
      "chip": "ym2612"
    },
    {
      "channel": 2,
      "note": 61,
      "start": 36.8611,
      "duration": 0.1319,
      "velocity": 102,
      "chip": "ym2612"
    },
    {
      "channel": 3,
      "note": 64,
      "start": 36.8612,
      "duration": 0.1326,
      "velocity": 102,
      "chip": "ym2612"
    },
    {
      "channel": 4,
      "note": 73,
      "start": 36.8615,
      "duration": 0.0327,
      "velocity": 119,
      "chip": "ym2612"
    },
    {
      "channel": 0,
      "note": 76,
      "start": 36.8925,
      "duration": 0.1033,
      "velocity": 119,
      "chip": "ym2612"
    },
    {
      "channel": 1,
      "note": 57,
      "start": 36.8934,
      "duration": 0.1028,
      "velocity": 117,
      "chip": "ym2612"
    },
    {
      "channel": 4,
      "note": 76,
      "start": 36.8944,
      "duration": 0.1003,
      "velocity": 119,
      "chip": "ym2612"
    },
    {
      "channel": 2,
      "note": 61,
      "start": 36.9932,
      "duration": 0.1012,
      "velocity": 102,
      "chip": "ym2612"
    },
    {
      "channel": 3,
      "note": 64,
      "start": 36.9941,
      "duration": 0.1012,
      "velocity": 102,
      "chip": "ym2612"
    },
    {
      "channel": 4,
      "note": 73,
      "start": 36.9949,
      "duration": 0.0006,
      "velocity": 119,
      "chip": "ym2612"
    },
    {
      "channel": 4,
      "note": 76,
      "start": 36.9956,
      "duration": 0.1012,
      "velocity": 119,
      "chip": "ym2612"
    },
    {
      "channel": 0,
      "note": 73,
      "start": 36.9959,
      "duration": 0.0021,
      "velocity": 119,
      "chip": "ym2612"
    },
    {
      "channel": 1,
      "note": 61,
      "start": 36.9967,
      "duration": 0.132,
      "velocity": 117,
      "chip": "ym2612"
    },
    {
      "channel": 0,
      "note": 76,
      "start": 36.998,
      "duration": 0.0983,
      "velocity": 119,
      "chip": "ym2612"
    },
    {
      "channel": 2,
      "note": 61,
      "start": 37.0948,
      "duration": 0.0017,
      "velocity": 102,
      "chip": "ym2612"
    },
    {
      "channel": 3,
      "note": 64,
      "start": 37.0956,
      "duration": 0.001,
      "velocity": 102,
      "chip": "ym2612"
    },
    {
      "channel": 0,
      "note": 73,
      "start": 37.0964,
      "duration": 0.0314,
      "velocity": 119,
      "chip": "ym2612"
    },
    {
      "channel": 2,
      "note": 61,
      "start": 37.0965,
      "duration": 0.132,
      "velocity": 102,
      "chip": "ym2612"
    },
    {
      "channel": 3,
      "note": 64,
      "start": 37.0967,
      "duration": 0.1327,
      "velocity": 102,
      "chip": "ym2612"
    },
    {
      "channel": 4,
      "note": 73,
      "start": 37.0969,
      "duration": 0.0328,
      "velocity": 119,
      "chip": "ym2612"
    },
    {
      "channel": 0,
      "note": 76,
      "start": 37.1281,
      "duration": 0.1344,
      "velocity": 119,
      "chip": "ym2612"
    },
    {
      "channel": 1,
      "note": 61,
      "start": 37.1289,
      "duration": 0.1344,
      "velocity": 117,
      "chip": "ym2612"
    },
    {
      "channel": 4,
      "note": 76,
      "start": 37.13,
      "duration": 0.1003,
      "velocity": 119,
      "chip": "ym2612"
    },
    {
      "channel": 2,
      "note": 61,
      "start": 37.2288,
      "duration": 0.1351,
      "velocity": 102,
      "chip": "ym2612"
    },
    {
      "channel": 3,
      "note": 64,
      "start": 37.2297,
      "duration": 0.1351,
      "velocity": 102,
      "chip": "ym2612"
    },
    {
      "channel": 4,
      "note": 73,
      "start": 37.2305,
      "duration": 0.0006,
      "velocity": 119,
      "chip": "ym2612"
    },
    {
      "channel": 4,
      "note": 76,
      "start": 37.2312,
      "duration": 0.1349,
      "velocity": 119,
      "chip": "ym2612"
    },
    {
      "channel": 0,
      "note": 78,
      "start": 37.2628,
      "duration": 0.1002,
      "velocity": 119,
      "chip": "ym2612"
    },
    {
      "channel": 1,
      "note": 62,
      "start": 37.2636,
      "duration": 0.1339,
      "velocity": 117,
      "chip": "ym2612"
    },
    {
      "channel": 0,
      "note": 78,
      "start": 37.3633,
      "duration": 0.0334,
      "velocity": 119,
      "chip": "ym2612"
    },
    {
      "channel": 2,
      "note": 62,
      "start": 37.3642,
      "duration": 0.0015,
      "velocity": 102,
      "chip": "ym2612"
    },
    {
      "channel": 3,
      "note": 66,
      "start": 37.3651,
      "duration": 0.0007,
      "velocity": 102,
      "chip": "ym2612"
    },
    {
      "channel": 2,
      "note": 62,
      "start": 37.3658,
      "duration": 0.132,
      "velocity": 102,
      "chip": "ym2612"
    },
    {
      "channel": 3,
      "note": 66,
      "start": 37.3659,
      "duration": 0.1327,
      "velocity": 102,
      "chip": "ym2612"
    },
    {
      "channel": 4,
      "note": 78,
      "start": 37.3661,
      "duration": 0.0325,
      "velocity": 119,
      "chip": "ym2612"
    },
    {
      "channel": 0,
      "note": 76,
      "start": 37.397,
      "duration": 0.0998,
      "velocity": 119,
      "chip": "ym2612"
    },
    {
      "channel": 1,
      "note": 62,
      "start": 37.3978,
      "duration": 0.1023,
      "velocity": 117,
      "chip": "ym2612"
    },
    {
      "channel": 4,
      "note": 78,
      "start": 37.3987,
      "duration": 0.1009,
      "velocity": 119,
      "chip": "ym2612"
    },
    {
      "channel": 0,
      "note": 73,
      "start": 37.4971,
      "duration": 0.0027,
      "velocity": 119,
      "chip": "ym2612"
    },
    {
      "channel": 2,
      "note": 62,
      "start": 37.498,
      "duration": 0.1005,
      "velocity": 102,
      "chip": "ym2612"
    },
    {
      "channel": 3,
      "note": 66,
      "start": 37.4989,
      "duration": 0.1005,
      "velocity": 102,
      "chip": "ym2612"
    },
    {
      "channel": 4,
      "note": 76,
      "start": 37.4997,
      "duration": 0.0023,
      "velocity": 119,
      "chip": "ym2612"
    },
    {
      "channel": 0,
      "note": 76,
      "start": 37.4999,
      "duration": 0.2671,
      "velocity": 119,
      "chip": "ym2612"
    },
    {
      "channel": 1,
      "note": 61,
      "start": 37.5007,
      "duration": 0.1314,
      "velocity": 117,
      "chip": "ym2612"
    },
    {
      "channel": 4,
      "note": 73,
      "start": 37.502,
      "duration": 0.0986,
      "velocity": 119,
      "chip": "ym2612"
    },
    {
      "channel": 2,
      "note": 61,
      "start": 37.5988,
      "duration": 0.0015,
      "velocity": 102,
      "chip": "ym2612"
    },
    {
      "channel": 3,
      "note": 64,
      "start": 37.5997,
      "duration": 0.0007,
      "velocity": 102,
      "chip": "ym2612"
    },
    {
      "channel": 2,
      "note": 61,
      "start": 37.6003,
      "duration": 0.1323,
      "velocity": 102,
      "chip": "ym2612"
    },
    {
      "channel": 3,
      "note": 64,
      "start": 37.6005,
      "duration": 0.1331,
      "velocity": 102,
      "chip": "ym2612"
    },
    {
      "channel": 4,
      "note": 76,
      "start": 37.6007,
      "duration": 0.269,
      "velocity": 119,
      "chip": "ym2612"
    },
    {
      "channel": 1,
      "note": 61,
      "start": 37.6324,
      "duration": 0.1355,
      "velocity": 117,
      "chip": "ym2612"
    },
    {
      "channel": 2,
      "note": 61,
      "start": 37.733,
      "duration": 0.1344,
      "velocity": 102,
      "chip": "ym2612"
    },
    {
      "channel": 3,
      "note": 64,
      "start": 37.7338,
      "duration": 0.1344,
      "velocity": 102,
      "chip": "ym2612"
    },
    {
      "channel": 0,
      "note": 73,
      "start": 37.7673,
      "duration": 0.0017,
      "velocity": 119,
      "chip": "ym2612"
    },
    {
      "channel": 1,
      "note": 57,
      "start": 37.7681,
      "duration": 0.1334,
      "velocity": 117,
      "chip": "ym2612"
    },
    {
      "channel": 0,
      "note": 76,
      "start": 37.7691,
      "duration": 0.1001,
      "velocity": 119,
      "chip": "ym2612"
    },
    {
      "channel": 2,
      "note": 61,
      "start": 37.8677,
      "duration": 0.0017,
      "velocity": 102,
      "chip": "ym2612"
    },
    {
      "channel": 3,
      "note": 64,
      "start": 37.8685,
      "duration": 0.001,
      "velocity": 102,
      "chip": "ym2612"
    },
    {
      "channel": 0,
      "note": 73,
      "start": 37.8693,
      "duration": 0.0314,
      "velocity": 119,
      "chip": "ym2612"
    },
    {
      "channel": 2,
      "note": 61,
      "start": 37.8694,
      "duration": 0.132,
      "velocity": 102,
      "chip": "ym2612"
    },
    {
      "channel": 3,
      "note": 64,
      "start": 37.8695,
      "duration": 0.1327,
      "velocity": 102,
      "chip": "ym2612"
    },
    {
      "channel": 4,
      "note": 73,
      "start": 37.8698,
      "duration": 0.0328,
      "velocity": 119,
      "chip": "ym2612"
    },
    {
      "channel": 0,
      "note": 76,
      "start": 37.901,
      "duration": 0.1033,
      "velocity": 119,
      "chip": "ym2612"
    },
    {
      "channel": 1,
      "note": 57,
      "start": 37.9018,
      "duration": 0.1028,
      "velocity": 117,
      "chip": "ym2612"
    },
    {
      "channel": 4,
      "note": 76,
      "start": 37.9028,
      "duration": 0.1002,
      "velocity": 119,
      "chip": "ym2612"
    },
    {
      "channel": 2,
      "note": 61,
      "start": 38.0017,
      "duration": 0.1013,
      "velocity": 102,
      "chip": "ym2612"
    },
    {
      "channel": 3,
      "note": 64,
      "start": 38.0025,
      "duration": 0.1013,
      "velocity": 102,
      "chip": "ym2612"
    },
    {
      "channel": 4,
      "note": 73,
      "start": 38.0034,
      "duration": 0.0006,
      "velocity": 119,
      "chip": "ym2612"
    },
    {
      "channel": 4,
      "note": 76,
      "start": 38.0041,
      "duration": 0.1012,
      "velocity": 119,
      "chip": "ym2612"
    },
    {
      "channel": 0,
      "note": 73,
      "start": 38.0043,
      "duration": 0.0021,
      "velocity": 119,
      "chip": "ym2612"
    },
    {
      "channel": 1,
      "note": 61,
      "start": 38.0051,
      "duration": 0.132,
      "velocity": 117,
      "chip": "ym2612"
    },
    {
      "channel": 0,
      "note": 76,
      "start": 38.0065,
      "duration": 0.0983,
      "velocity": 119,
      "chip": "ym2612"
    },
    {
      "channel": 2,
      "note": 61,
      "start": 38.1033,
      "duration": 0.0017,
      "velocity": 102,
      "chip": "ym2612"
    },
    {
      "channel": 3,
      "note": 64,
      "start": 38.1041,
      "duration": 0.001,
      "velocity": 102,
      "chip": "ym2612"
    },
    {
      "channel": 0,
      "note": 73,
      "start": 38.1049,
      "duration": 0.0314,
      "velocity": 119,
      "chip": "ym2612"
    },
    {
      "channel": 2,
      "note": 61,
      "start": 38.105,
      "duration": 0.132,
      "velocity": 102,
      "chip": "ym2612"
    },
    {
      "channel": 3,
      "note": 64,
      "start": 38.1052,
      "duration": 0.1327,
      "velocity": 102,
      "chip": "ym2612"
    },
    {
      "channel": 4,
      "note": 73,
      "start": 38.1054,
      "duration": 0.0328,
      "velocity": 119,
      "chip": "ym2612"
    },
    {
      "channel": 0,
      "note": 76,
      "start": 38.1366,
      "duration": 0.1344,
      "velocity": 119,
      "chip": "ym2612"
    },
    {
      "channel": 1,
      "note": 61,
      "start": 38.1375,
      "duration": 0.1344,
      "velocity": 117,
      "chip": "ym2612"
    },
    {
      "channel": 4,
      "note": 76,
      "start": 38.1385,
      "duration": 0.1002,
      "velocity": 119,
      "chip": "ym2612"
    },
    {
      "channel": 2,
      "note": 61,
      "start": 38.2373,
      "duration": 0.1352,
      "velocity": 102,
      "chip": "ym2612"
    },
    {
      "channel": 3,
      "note": 64,
      "start": 38.2382,
      "duration": 0.1352,
      "velocity": 102,
      "chip": "ym2612"
    },
    {
      "channel": 4,
      "note": 73,
      "start": 38.239,
      "duration": 0.0006,
      "velocity": 119,
      "chip": "ym2612"
    },
    {
      "channel": 4,
      "note": 76,
      "start": 38.2397,
      "duration": 0.1348,
      "velocity": 119,
      "chip": "ym2612"
    },
    {
      "channel": 0,
      "note": 76,
      "start": 38.2713,
      "duration": 0.1002,
      "velocity": 119,
      "chip": "ym2612"
    },
    {
      "channel": 1,
      "note": 59,
      "start": 38.2722,
      "duration": 0.1339,
      "velocity": 117,
      "chip": "ym2612"
    },
    {
      "channel": 0,
      "note": 73,
      "start": 38.3719,
      "duration": 0.0333,
      "velocity": 119,
      "chip": "ym2612"
    },
    {
      "channel": 2,
      "note": 59,
      "start": 38.3728,
      "duration": 0.0015,
      "velocity": 102,
      "chip": "ym2612"
    },
    {
      "channel": 3,
      "note": 64,
      "start": 38.3736,
      "duration": 0.0007,
      "velocity": 102,
      "chip": "ym2612"
    },
    {
      "channel": 2,
      "note": 59,
      "start": 38.3743,
      "duration": 0.132,
      "velocity": 102,
      "chip": "ym2612"
    },
    {
      "channel": 3,
      "note": 64,
      "start": 38.3744,
      "duration": 0.1327,
      "velocity": 102,
      "chip": "ym2612"
    },
    {
      "channel": 4,
      "note": 76,
      "start": 38.3746,
      "duration": 0.0326,
      "velocity": 119,
      "chip": "ym2612"
    },
    {
      "channel": 0,
      "note": 71,
      "start": 38.4054,
      "duration": 0.0999,
      "velocity": 119,
      "chip": "ym2612"
    },
    {
      "channel": 1,
      "note": 59,
      "start": 38.4063,
      "duration": 0.1023,
      "velocity": 117,
      "chip": "ym2612"
    },
    {
      "channel": 4,
      "note": 73,
      "start": 38.4072,
      "duration": 0.1008,
      "velocity": 119,
      "chip": "ym2612"
    },
    {
      "channel": 0,
      "note": 73,
      "start": 38.5056,
      "duration": 0.0027,
      "velocity": 119,
      "chip": "ym2612"
    },
    {
      "channel": 2,
      "note": 59,
      "start": 38.5066,
      "duration": 0.1003,
      "velocity": 102,
      "chip": "ym2612"
    },
    {
      "channel": 3,
      "note": 64,
      "start": 38.5074,
      "duration": 0.1003,
      "velocity": 102,
      "chip": "ym2612"
    },
    {
      "channel": 4,
      "note": 71,
      "start": 38.5081,
      "duration": 0.0022,
      "velocity": 119,
      "chip": "ym2612"
    },
    {
      "channel": 0,
      "note": 76,
      "start": 38.5084,
      "duration": 0.2671,
      "velocity": 119,
      "chip": "ym2612"
    },
    {
      "channel": 1,
      "note": 59,
      "start": 38.509,
      "duration": 0.1314,
      "velocity": 117,
      "chip": "ym2612"
    },
    {
      "channel": 4,
      "note": 73,
      "start": 38.5104,
      "duration": 0.0986,
      "velocity": 119,
      "chip": "ym2612"
    },
    {
      "channel": 2,
      "note": 64,
      "start": 38.6071,
      "duration": 0.0015,
      "velocity": 102,
      "chip": "ym2612"
    },
    {
      "channel": 3,
      "note": 56,
      "start": 38.608,
      "duration": 0.0007,
      "velocity": 102,
      "chip": "ym2612"
    },
    {
      "channel": 2,
      "note": 64,
      "start": 38.6087,
      "duration": 0.1323,
      "velocity": 102,
      "chip": "ym2612"
    },
    {
      "channel": 3,
      "note": 56,
      "start": 38.6088,
      "duration": 0.133,
      "velocity": 102,
      "chip": "ym2612"
    },
    {
      "channel": 4,
      "note": 76,
      "start": 38.609,
      "duration": 0.1712,
      "velocity": 119,
      "chip": "ym2612"
    },
    {
      "channel": 1,
      "note": 59,
      "start": 38.6407,
      "duration": 0.1358,
      "velocity": 117,
      "chip": "ym2612"
    },
    {
      "channel": 2,
      "note": 64,
      "start": 38.7413,
      "duration": 0.1344,
      "velocity": 102,
      "chip": "ym2612"
    },
    {
      "channel": 3,
      "note": 56,
      "start": 38.7421,
      "duration": 0.1345,
      "velocity": 102,
      "chip": "ym2612"
    },
    {
      "channel": 0,
      "note": 76,
      "start": 38.7758,
      "duration": 0.0053,
      "velocity": 119,
      "chip": "ym2612"
    },
    {
      "channel": 1,
      "note": 60,
      "start": 38.7767,
      "duration": 0.133,
      "velocity": 117,
      "chip": "ym2612"
    },
    {
      "channel": 4,
      "note": 76,
      "start": 38.7805,
      "duration": 0.0008,
      "velocity": 119,
      "chip": "ym2612"
    },
    {
      "channel": 0,
      "note": 79,
      "start": 38.7812,
      "duration": 0.0972,
      "velocity": 119,
      "chip": "ym2612"
    },
    {
      "channel": 4,
      "note": 79,
      "start": 38.7814,
      "duration": 0.096,
      "velocity": 119,
      "chip": "ym2612"
    },
    {
      "channel": 2,
      "note": 64,
      "start": 38.8759,
      "duration": 0.0025,
      "velocity": 102,
      "chip": "ym2612"
    },
    {
      "channel": 3,
      "note": 67,
      "start": 38.8768,
      "duration": 0.0017,
      "velocity": 102,
      "chip": "ym2612"
    },
    {
      "channel": 4,
      "note": 79,
      "start": 38.8777,
      "duration": 0.0011,
      "velocity": 119,
      "chip": "ym2612"
    },
    {
      "channel": 0,
      "note": 76,
      "start": 38.8784,
      "duration": 0.0305,
      "velocity": 119,
      "chip": "ym2612"
    },
    {
      "channel": 2,
      "note": 64,
      "start": 38.8785,
      "duration": 0.1311,
      "velocity": 102,
      "chip": "ym2612"
    },
    {
      "channel": 3,
      "note": 67,
      "start": 38.8787,
      "duration": 0.1318,
      "velocity": 102,
      "chip": "ym2612"
    },
    {
      "channel": 4,
      "note": 76,
      "start": 38.8789,
      "duration": 0.0319,
      "velocity": 119,
      "chip": "ym2612"
    },
    {
      "channel": 0,
      "note": 79,
      "start": 38.9092,
      "duration": 0.1023,
      "velocity": 119,
      "chip": "ym2612"
    },
    {
      "channel": 1,
      "note": 60,
      "start": 38.91,
      "duration": 0.1017,
      "velocity": 117,
      "chip": "ym2612"
    },
    {
      "channel": 4,
      "note": 79,
      "start": 38.911,
      "duration": 0.1009,
      "velocity": 119,
      "chip": "ym2612"
    },
    {
      "channel": 2,
      "note": 64,
      "start": 39.0099,
      "duration": 0.0975,
      "velocity": 102,
      "chip": "ym2612"
    },
    {
      "channel": 3,
      "note": 67,
      "start": 39.0107,
      "duration": 0.0975,
      "velocity": 102,
      "chip": "ym2612"
    },
    {
      "channel": 0,
      "note": 76,
      "start": 39.0115,
      "duration": 0.0007,
      "velocity": 119,
      "chip": "ym2612"
    },
    {
      "channel": 1,
      "note": 64,
      "start": 39.0118,
      "duration": 0.1298,
      "velocity": 117,
      "chip": "ym2612"
    },
    {
      "channel": 4,
      "note": 76,
      "start": 39.012,
      "duration": 0.0004,
      "velocity": 119,
      "chip": "ym2612"
    },
    {
      "channel": 0,
      "note": 79,
      "start": 39.0123,
      "duration": 0.0977,
      "velocity": 119,
      "chip": "ym2612"
    },
    {
      "channel": 4,
      "note": 79,
      "start": 39.0125,
      "duration": 0.0966,
      "velocity": 119,
      "chip": "ym2612"
    },
    {
      "channel": 2,
      "note": 64,
      "start": 39.1076,
      "duration": 0.0024,
      "velocity": 102,
      "chip": "ym2612"
    },
    {
      "channel": 3,
      "note": 67,
      "start": 39.1085,
      "duration": 0.0017,
      "velocity": 102,
      "chip": "ym2612"
    },
    {
      "channel": 4,
      "note": 79,
      "start": 39.1093,
      "duration": 0.0011,
      "velocity": 119,
      "chip": "ym2612"
    },
    {
      "channel": 0,
      "note": 76,
      "start": 39.11,
      "duration": 0.0307,
      "velocity": 119,
      "chip": "ym2612"
    },
    {
      "channel": 2,
      "note": 64,
      "start": 39.1102,
      "duration": 0.1313,
      "velocity": 102,
      "chip": "ym2612"
    },
    {
      "channel": 3,
      "note": 67,
      "start": 39.1103,
      "duration": 0.132,
      "velocity": 102,
      "chip": "ym2612"
    },
    {
      "channel": 4,
      "note": 76,
      "start": 39.1105,
      "duration": 0.032,
      "velocity": 119,
      "chip": "ym2612"
    },
    {
      "channel": 0,
      "note": 79,
      "start": 39.141,
      "duration": 0.1343,
      "velocity": 119,
      "chip": "ym2612"
    },
    {
      "channel": 1,
      "note": 64,
      "start": 39.1418,
      "duration": 0.1343,
      "velocity": 117,
      "chip": "ym2612"
    },
    {
      "channel": 4,
      "note": 79,
      "start": 39.1429,
      "duration": 0.1002,
      "velocity": 119,
      "chip": "ym2612"
    },
    {
      "channel": 2,
      "note": 64,
      "start": 39.2417,
      "duration": 0.1351,
      "velocity": 102,
      "chip": "ym2612"
    },
    {
      "channel": 3,
      "note": 67,
      "start": 39.2426,
      "duration": 0.1351,
      "velocity": 102,
      "chip": "ym2612"
    },
    {
      "channel": 4,
      "note": 79,
      "start": 39.2434,
      "duration": 0.0005,
      "velocity": 119,
      "chip": "ym2612"
    },
    {
      "channel": 4,
      "note": 79,
      "start": 39.244,
      "duration": 0.0332,
      "velocity": 119,
      "chip": "ym2612"
    },
    {
      "channel": 0,
      "note": 81,
      "start": 39.2756,
      "duration": 0.1003,
      "velocity": 119,
      "chip": "ym2612"
    },
    {
      "channel": 1,
      "note": 65,
      "start": 39.2764,
      "duration": 0.1339,
      "velocity": 117,
      "chip": "ym2612"
    },
    {
      "channel": 4,
      "note": 81,
      "start": 39.2774,
      "duration": 0.1011,
      "velocity": 119,
      "chip": "ym2612"
    },
    {
      "channel": 0,
      "note": 81,
      "start": 39.3762,
      "duration": 0.0333,
      "velocity": 119,
      "chip": "ym2612"
    },
    {
      "channel": 2,
      "note": 65,
      "start": 39.3771,
      "duration": 0.0022,
      "velocity": 102,
      "chip": "ym2612"
    },
    {
      "channel": 3,
      "note": 69,
      "start": 39.378,
      "duration": 0.0015,
      "velocity": 102,
      "chip": "ym2612"
    },
    {
      "channel": 4,
      "note": 81,
      "start": 39.3788,
      "duration": 0.0008,
      "velocity": 119,
      "chip": "ym2612"
    },
    {
      "channel": 2,
      "note": 65,
      "start": 39.3794,
      "duration": 0.1316,
      "velocity": 102,
      "chip": "ym2612"
    },
    {
      "channel": 3,
      "note": 69,
      "start": 39.3795,
      "duration": 0.1323,
      "velocity": 102,
      "chip": "ym2612"
    },
    {
      "channel": 4,
      "note": 81,
      "start": 39.3797,
      "duration": 0.0317,
      "velocity": 119,
      "chip": "ym2612"
    },
    {
      "channel": 0,
      "note": 79,
      "start": 39.4098,
      "duration": 0.1003,
      "velocity": 119,
      "chip": "ym2612"
    },
    {
      "channel": 1,
      "note": 65,
      "start": 39.4106,
      "duration": 0.1032,
      "velocity": 117,
      "chip": "ym2612"
    },
    {
      "channel": 4,
      "note": 79,
      "start": 39.4116,
      "duration": 0.101,
      "velocity": 119,
      "chip": "ym2612"
    },
    {
      "channel": 0,
      "note": 76,
      "start": 39.5103,
      "duration": 0.0033,
      "velocity": 119,
      "chip": "ym2612"
    },
    {
      "channel": 2,
      "note": 65,
      "start": 39.5112,
      "duration": 0.1003,
      "velocity": 102,
      "chip": "ym2612"
    },
    {
      "channel": 3,
      "note": 69,
      "start": 39.5121,
      "duration": 0.1003,
      "velocity": 102,
      "chip": "ym2612"
    },
    {
      "channel": 4,
      "note": 76,
      "start": 39.5129,
      "duration": 0.0019,
      "velocity": 119,
      "chip": "ym2612"
    },
    {
      "channel": 0,
      "note": 79,
      "start": 39.5137,
      "duration": 0.2662,
      "velocity": 119,
      "chip": "ym2612"
    },
    {
      "channel": 1,
      "note": 64,
      "start": 39.5139,
      "duration": 0.1314,
      "velocity": 117,
      "chip": "ym2612"
    },
    {
      "channel": 4,
      "note": 79,
      "start": 39.5153,
      "duration": 0.2324,
      "velocity": 119,
      "chip": "ym2612"
    },
    {
      "channel": 2,
      "note": 64,
      "start": 39.6118,
      "duration": 0.0015,
      "velocity": 102,
      "chip": "ym2612"
    },
    {
      "channel": 3,
      "note": 67,
      "start": 39.6127,
      "duration": 0.0007,
      "velocity": 102,
      "chip": "ym2612"
    },
    {
      "channel": 2,
      "note": 64,
      "start": 39.6134,
      "duration": 0.1326,
      "velocity": 102,
      "chip": "ym2612"
    },
    {
      "channel": 3,
      "note": 67,
      "start": 39.6135,
      "duration": 0.1333,
      "velocity": 102,
      "chip": "ym2612"
    },
    {
      "channel": 1,
      "note": 64,
      "start": 39.6456,
      "duration": 0.1351,
      "velocity": 117,
      "chip": "ym2612"
    },
    {
      "channel": 2,
      "note": 64,
      "start": 39.7462,
      "duration": 0.1339,
      "velocity": 102,
      "chip": "ym2612"
    },
    {
      "channel": 3,
      "note": 67,
      "start": 39.7471,
      "duration": 0.1339,
      "velocity": 102,
      "chip": "ym2612"
    },
    {
      "channel": 4,
      "note": 79,
      "start": 39.7479,
      "duration": 0.0005,
      "velocity": 119,
      "chip": "ym2612"
    },
    {
      "channel": 4,
      "note": 79,
      "start": 39.7485,
      "duration": 0.0332,
      "velocity": 119,
      "chip": "ym2612"
    },
    {
      "channel": 0,
      "note": 76,
      "start": 39.7801,
      "duration": 0.0025,
      "velocity": 119,
      "chip": "ym2612"
    },
    {
      "channel": 1,
      "note": 60,
      "start": 39.781,
      "duration": 0.1333,
      "velocity": 117,
      "chip": "ym2612"
    },
    {
      "channel": 4,
      "note": 76,
      "start": 39.782,
      "duration": 0.0008,
      "velocity": 119,
      "chip": "ym2612"
    },
    {
      "channel": 0,
      "note": 79,
      "start": 39.7827,
      "duration": 0.1,
      "velocity": 119,
      "chip": "ym2612"
    },
    {
      "channel": 4,
      "note": 79,
      "start": 39.7829,
      "duration": 0.0989,
      "velocity": 119,
      "chip": "ym2612"
    },
    {
      "channel": 2,
      "note": 64,
      "start": 39.8804,
      "duration": 0.0024,
      "velocity": 102,
      "chip": "ym2612"
    },
    {
      "channel": 3,
      "note": 67,
      "start": 39.8812,
      "duration": 0.0017,
      "velocity": 102,
      "chip": "ym2612"
    },
    {
      "channel": 4,
      "note": 79,
      "start": 39.882,
      "duration": 0.0011,
      "velocity": 119,
      "chip": "ym2612"
    },
    {
      "channel": 0,
      "note": 76,
      "start": 39.8827,
      "duration": 0.0307,
      "velocity": 119,
      "chip": "ym2612"
    },
    {
      "channel": 2,
      "note": 64,
      "start": 39.8829,
      "duration": 0.1312,
      "velocity": 102,
      "chip": "ym2612"
    },
    {
      "channel": 3,
      "note": 67,
      "start": 39.883,
      "duration": 0.1319,
      "velocity": 102,
      "chip": "ym2612"
    },
    {
      "channel": 4,
      "note": 76,
      "start": 39.8832,
      "duration": 0.032,
      "velocity": 119,
      "chip": "ym2612"
    },
    {
      "channel": 0,
      "note": 79,
      "start": 39.9137,
      "duration": 0.1023,
      "velocity": 119,
      "chip": "ym2612"
    },
    {
      "channel": 1,
      "note": 60,
      "start": 39.9145,
      "duration": 0.1017,
      "velocity": 117,
      "chip": "ym2612"
    },
    {
      "channel": 4,
      "note": 79,
      "start": 39.9155,
      "duration": 0.1009,
      "velocity": 119,
      "chip": "ym2612"
    },
    {
      "channel": 2,
      "note": 64,
      "start": 40.0144,
      "duration": 0.0974,
      "velocity": 102,
      "chip": "ym2612"
    },
    {
      "channel": 3,
      "note": 67,
      "start": 40.0152,
      "duration": 0.0974,
      "velocity": 102,
      "chip": "ym2612"
    },
    {
      "channel": 0,
      "note": 76,
      "start": 40.016,
      "duration": 0.0006,
      "velocity": 119,
      "chip": "ym2612"
    },
    {
      "channel": 1,
      "note": 64,
      "start": 40.0163,
      "duration": 0.1297,
      "velocity": 117,
      "chip": "ym2612"
    },
    {
      "channel": 4,
      "note": 76,
      "start": 40.0165,
      "duration": 0.0004,
      "velocity": 119,
      "chip": "ym2612"
    },
    {
      "channel": 0,
      "note": 79,
      "start": 40.0167,
      "duration": 0.0977,
      "velocity": 119,
      "chip": "ym2612"
    },
    {
      "channel": 4,
      "note": 79,
      "start": 40.0169,
      "duration": 0.0966,
      "velocity": 119,
      "chip": "ym2612"
    },
    {
      "channel": 2,
      "note": 64,
      "start": 40.112,
      "duration": 0.0024,
      "velocity": 102,
      "chip": "ym2612"
    },
    {
      "channel": 3,
      "note": 67,
      "start": 40.1129,
      "duration": 0.0017,
      "velocity": 102,
      "chip": "ym2612"
    },
    {
      "channel": 4,
      "note": 79,
      "start": 40.1137,
      "duration": 0.0011,
      "velocity": 119,
      "chip": "ym2612"
    },
    {
      "channel": 0,
      "note": 76,
      "start": 40.1144,
      "duration": 0.0307,
      "velocity": 119,
      "chip": "ym2612"
    },
    {
      "channel": 2,
      "note": 64,
      "start": 40.1146,
      "duration": 0.1312,
      "velocity": 102,
      "chip": "ym2612"
    },
    {
      "channel": 3,
      "note": 67,
      "start": 40.1147,
      "duration": 0.1319,
      "velocity": 102,
      "chip": "ym2612"
    },
    {
      "channel": 4,
      "note": 76,
      "start": 40.1149,
      "duration": 0.032,
      "velocity": 119,
      "chip": "ym2612"
    },
    {
      "channel": 0,
      "note": 79,
      "start": 40.1454,
      "duration": 0.1343,
      "velocity": 119,
      "chip": "ym2612"
    },
    {
      "channel": 1,
      "note": 64,
      "start": 40.1462,
      "duration": 0.1343,
      "velocity": 117,
      "chip": "ym2612"
    },
    {
      "channel": 4,
      "note": 79,
      "start": 40.1472,
      "duration": 0.1002,
      "velocity": 119,
      "chip": "ym2612"
    },
    {
      "channel": 2,
      "note": 64,
      "start": 40.2461,
      "duration": 0.1351,
      "velocity": 102,
      "chip": "ym2612"
    },
    {
      "channel": 3,
      "note": 67,
      "start": 40.2469,
      "duration": 0.1351,
      "velocity": 102,
      "chip": "ym2612"
    },
    {
      "channel": 4,
      "note": 79,
      "start": 40.2478,
      "duration": 0.0005,
      "velocity": 119,
      "chip": "ym2612"
    },
    {
      "channel": 4,
      "note": 79,
      "start": 40.2483,
      "duration": 0.0332,
      "velocity": 119,
      "chip": "ym2612"
    },
    {
      "channel": 0,
      "note": 79,
      "start": 40.28,
      "duration": 0.1003,
      "velocity": 119,
      "chip": "ym2612"
    },
    {
      "channel": 1,
      "note": 62,
      "start": 40.2808,
      "duration": 0.1339,
      "velocity": 117,
      "chip": "ym2612"
    },
    {
      "channel": 4,
      "note": 79,
      "start": 40.2818,
      "duration": 0.1011,
      "velocity": 119,
      "chip": "ym2612"
    },
    {
      "channel": 0,
      "note": 76,
      "start": 40.3805,
      "duration": 0.0333,
      "velocity": 119,
      "chip": "ym2612"
    },
    {
      "channel": 2,
      "note": 62,
      "start": 40.3815,
      "duration": 0.0022,
      "velocity": 102,
      "chip": "ym2612"
    },
    {
      "channel": 3,
      "note": 67,
      "start": 40.3823,
      "duration": 0.0015,
      "velocity": 102,
      "chip": "ym2612"
    },
    {
      "channel": 4,
      "note": 76,
      "start": 40.3832,
      "duration": 0.0008,
      "velocity": 119,
      "chip": "ym2612"
    },
    {
      "channel": 2,
      "note": 62,
      "start": 40.3838,
      "duration": 0.1316,
      "velocity": 102,
      "chip": "ym2612"
    },
    {
      "channel": 3,
      "note": 67,
      "start": 40.3839,
      "duration": 0.1323,
      "velocity": 102,
      "chip": "ym2612"
    },
    {
      "channel": 4,
      "note": 76,
      "start": 40.384,
      "duration": 0.0317,
      "velocity": 119,
      "chip": "ym2612"
    },
    {
      "channel": 0,
      "note": 74,
      "start": 40.4141,
      "duration": 0.1003,
      "velocity": 119,
      "chip": "ym2612"
    },
    {
      "channel": 1,
      "note": 62,
      "start": 40.415,
      "duration": 0.1031,
      "velocity": 117,
      "chip": "ym2612"
    },
    {
      "channel": 4,
      "note": 74,
      "start": 40.416,
      "duration": 0.101,
      "velocity": 119,
      "chip": "ym2612"
    },
    {
      "channel": 0,
      "note": 76,
      "start": 40.5147,
      "duration": 0.0032,
      "velocity": 119,
      "chip": "ym2612"
    },
    {
      "channel": 2,
      "note": 62,
      "start": 40.5156,
      "duration": 0.1004,
      "velocity": 102,
      "chip": "ym2612"
    },
    {
      "channel": 3,
      "note": 67,
      "start": 40.5165,
      "duration": 0.1003,
      "velocity": 102,
      "chip": "ym2612"
    },
    {
      "channel": 4,
      "note": 76,
      "start": 40.5173,
      "duration": 0.0018,
      "velocity": 119,
      "chip": "ym2612"
    },
    {
      "channel": 0,
      "note": 79,
      "start": 40.518,
      "duration": 0.2668,
      "velocity": 119,
      "chip": "ym2612"
    },
    {
      "channel": 1,
      "note": 62,
      "start": 40.5181,
      "duration": 0.1315,
      "velocity": 117,
      "chip": "ym2612"
    },
    {
      "channel": 4,
      "note": 79,
      "start": 40.5195,
      "duration": 0.0981,
      "velocity": 119,
      "chip": "ym2612"
    },
    {
      "channel": 2,
      "note": 67,
      "start": 40.6162,
      "duration": 0.0022,
      "velocity": 102,
      "chip": "ym2612"
    },
    {
      "channel": 3,
      "note": 59,
      "start": 40.6171,
      "duration": 0.0015,
      "velocity": 102,
      "chip": "ym2612"
    },
    {
      "channel": 4,
      "note": 55,
      "start": 40.6179,
      "duration": 0.0328,
      "velocity": 119,
      "chip": "ym2612"
    },
    {
      "channel": 2,
      "note": 67,
      "start": 40.6185,
      "duration": 0.1318,
      "velocity": 102,
      "chip": "ym2612"
    },
    {
      "channel": 3,
      "note": 59,
      "start": 40.6187,
      "duration": 0.1325,
      "velocity": 102,
      "chip": "ym2612"
    },
    {
      "channel": 1,
      "note": 62,
      "start": 40.65,
      "duration": 0.1358,
      "velocity": 117,
      "chip": "ym2612"
    },
    {
      "channel": 4,
      "note": 57,
      "start": 40.651,
      "duration": 0.1011,
      "velocity": 119,
      "chip": "ym2612"
    },
    {
      "channel": 2,
      "note": 67,
      "start": 40.7507,
      "duration": 0.1343,
      "velocity": 102,
      "chip": "ym2612"
    },
    {
      "channel": 3,
      "note": 59,
      "start": 40.7515,
      "duration": 0.1344,
      "velocity": 102,
      "chip": "ym2612"
    },
    {
      "channel": 4,
      "note": 59,
      "start": 40.7523,
      "duration": 0.0345,
      "velocity": 119,
      "chip": "ym2612"
    },
    {
      "channel": 0,
      "note": 76,
      "start": 40.7851,
      "duration": 0.0027,
      "velocity": 119,
      "chip": "ym2612"
    },
    {
      "channel": 1,
      "note": 60,
      "start": 40.786,
      "duration": 0.1331,
      "velocity": 117,
      "chip": "ym2612"
    },
    {
      "channel": 4,
      "note": 76,
      "start": 40.7872,
      "duration": 0.0008,
      "velocity": 119,
      "chip": "ym2612"
    },
    {
      "channel": 0,
      "note": 79,
      "start": 40.7878,
      "duration": 0.0998,
      "velocity": 119,
      "chip": "ym2612"
    },
    {
      "channel": 4,
      "note": 79,
      "start": 40.7881,
      "duration": 0.0986,
      "velocity": 119,
      "chip": "ym2612"
    },
    {
      "channel": 2,
      "note": 64,
      "start": 40.8852,
      "duration": 0.0025,
      "velocity": 102,
      "chip": "ym2612"
    },
    {
      "channel": 3,
      "note": 67,
      "start": 40.8861,
      "duration": 0.0017,
      "velocity": 102,
      "chip": "ym2612"
    },
    {
      "channel": 4,
      "note": 79,
      "start": 40.887,
      "duration": 0.0011,
      "velocity": 119,
      "chip": "ym2612"
    },
    {
      "channel": 0,
      "note": 76,
      "start": 40.8877,
      "duration": 0.0306,
      "velocity": 119,
      "chip": "ym2612"
    },
    {
      "channel": 2,
      "note": 64,
      "start": 40.8878,
      "duration": 0.1311,
      "velocity": 102,
      "chip": "ym2612"
    },
    {
      "channel": 3,
      "note": 67,
      "start": 40.888,
      "duration": 0.1318,
      "velocity": 102,
      "chip": "ym2612"
    },
    {
      "channel": 4,
      "note": 76,
      "start": 40.8882,
      "duration": 0.0319,
      "velocity": 119,
      "chip": "ym2612"
    },
    {
      "channel": 0,
      "note": 79,
      "start": 40.9185,
      "duration": 0.1026,
      "velocity": 119,
      "chip": "ym2612"
    },
    {
      "channel": 1,
      "note": 60,
      "start": 40.9194,
      "duration": 0.102,
      "velocity": 117,
      "chip": "ym2612"
    },
    {
      "channel": 4,
      "note": 79,
      "start": 40.9204,
      "duration": 0.1012,
      "velocity": 119,
      "chip": "ym2612"
    },
    {
      "channel": 2,
      "note": 64,
      "start": 41.0192,
      "duration": 0.0978,
      "velocity": 102,
      "chip": "ym2612"
    },
    {
      "channel": 3,
      "note": 67,
      "start": 41.02,
      "duration": 0.0978,
      "velocity": 102,
      "chip": "ym2612"
    },
    {
      "channel": 0,
      "note": 76,
      "start": 41.0212,
      "duration": 0.0006,
      "velocity": 119,
      "chip": "ym2612"
    },
    {
      "channel": 1,
      "note": 64,
      "start": 41.0214,
      "duration": 0.1298,
      "velocity": 117,
      "chip": "ym2612"
    },
    {
      "channel": 4,
      "note": 76,
      "start": 41.0216,
      "duration": 0.0004,
      "velocity": 119,
      "chip": "ym2612"
    },
    {
      "channel": 0,
      "note": 79,
      "start": 41.0219,
      "duration": 0.0977,
      "velocity": 119,
      "chip": "ym2612"
    },
    {
      "channel": 4,
      "note": 79,
      "start": 41.0221,
      "duration": 0.0966,
      "velocity": 119,
      "chip": "ym2612"
    },
    {
      "channel": 2,
      "note": 64,
      "start": 41.1173,
      "duration": 0.0024,
      "velocity": 102,
      "chip": "ym2612"
    },
    {
      "channel": 3,
      "note": 67,
      "start": 41.1181,
      "duration": 0.0017,
      "velocity": 102,
      "chip": "ym2612"
    },
    {
      "channel": 4,
      "note": 79,
      "start": 41.119,
      "duration": 0.0011,
      "velocity": 119,
      "chip": "ym2612"
    },
    {
      "channel": 0,
      "note": 76,
      "start": 41.1196,
      "duration": 0.0307,
      "velocity": 119,
      "chip": "ym2612"
    },
    {
      "channel": 2,
      "note": 64,
      "start": 41.1198,
      "duration": 0.1313,
      "velocity": 102,
      "chip": "ym2612"
    },
    {
      "channel": 3,
      "note": 67,
      "start": 41.1199,
      "duration": 0.132,
      "velocity": 102,
      "chip": "ym2612"
    },
    {
      "channel": 4,
      "note": 76,
      "start": 41.1201,
      "duration": 0.032,
      "velocity": 119,
      "chip": "ym2612"
    },
    {
      "channel": 0,
      "note": 79,
      "start": 41.1506,
      "duration": 0.1343,
      "velocity": 119,
      "chip": "ym2612"
    },
    {
      "channel": 1,
      "note": 64,
      "start": 41.1514,
      "duration": 0.1343,
      "velocity": 117,
      "chip": "ym2612"
    },
    {
      "channel": 4,
      "note": 79,
      "start": 41.1525,
      "duration": 0.1003,
      "velocity": 119,
      "chip": "ym2612"
    },
    {
      "channel": 2,
      "note": 64,
      "start": 41.2513,
      "duration": 0.1351,
      "velocity": 102,
      "chip": "ym2612"
    },
    {
      "channel": 3,
      "note": 67,
      "start": 41.2522,
      "duration": 0.1351,
      "velocity": 102,
      "chip": "ym2612"
    },
    {
      "channel": 4,
      "note": 79,
      "start": 41.253,
      "duration": 0.0005,
      "velocity": 119,
      "chip": "ym2612"
    },
    {
      "channel": 4,
      "note": 79,
      "start": 41.2536,
      "duration": 0.0332,
      "velocity": 119,
      "chip": "ym2612"
    },
    {
      "channel": 0,
      "note": 81,
      "start": 41.2852,
      "duration": 0.1003,
      "velocity": 119,
      "chip": "ym2612"
    },
    {
      "channel": 1,
      "note": 65,
      "start": 41.2861,
      "duration": 0.1339,
      "velocity": 117,
      "chip": "ym2612"
    },
    {
      "channel": 4,
      "note": 81,
      "start": 41.2871,
      "duration": 0.1011,
      "velocity": 119,
      "chip": "ym2612"
    },
    {
      "channel": 0,
      "note": 81,
      "start": 41.3859,
      "duration": 0.0333,
      "velocity": 119,
      "chip": "ym2612"
    },
    {
      "channel": 2,
      "note": 65,
      "start": 41.3868,
      "duration": 0.0022,
      "velocity": 102,
      "chip": "ym2612"
    },
    {
      "channel": 3,
      "note": 69,
      "start": 41.3876,
      "duration": 0.0015,
      "velocity": 102,
      "chip": "ym2612"
    },
    {
      "channel": 4,
      "note": 81,
      "start": 41.3885,
      "duration": 0.0008,
      "velocity": 119,
      "chip": "ym2612"
    },
    {
      "channel": 2,
      "note": 65,
      "start": 41.389,
      "duration": 0.1316,
      "velocity": 102,
      "chip": "ym2612"
    },
    {
      "channel": 3,
      "note": 69,
      "start": 41.3892,
      "duration": 0.1323,
      "velocity": 102,
      "chip": "ym2612"
    },
    {
      "channel": 4,
      "note": 81,
      "start": 41.3893,
      "duration": 0.0317,
      "velocity": 119,
      "chip": "ym2612"
    },
    {
      "channel": 0,
      "note": 79,
      "start": 41.4194,
      "duration": 0.1003,
      "velocity": 119,
      "chip": "ym2612"
    },
    {
      "channel": 1,
      "note": 65,
      "start": 41.4202,
      "duration": 0.1032,
      "velocity": 117,
      "chip": "ym2612"
    },
    {
      "channel": 4,
      "note": 79,
      "start": 41.4213,
      "duration": 0.101,
      "velocity": 119,
      "chip": "ym2612"
    },
    {
      "channel": 0,
      "note": 76,
      "start": 41.52,
      "duration": 0.0033,
      "velocity": 119,
      "chip": "ym2612"
    },
    {
      "channel": 2,
      "note": 65,
      "start": 41.5209,
      "duration": 0.1004,
      "velocity": 102,
      "chip": "ym2612"
    },
    {
      "channel": 3,
      "note": 69,
      "start": 41.5217,
      "duration": 0.1004,
      "velocity": 102,
      "chip": "ym2612"
    },
    {
      "channel": 4,
      "note": 76,
      "start": 41.5226,
      "duration": 0.0019,
      "velocity": 119,
      "chip": "ym2612"
    },
    {
      "channel": 0,
      "note": 79,
      "start": 41.5233,
      "duration": 0.2663,
      "velocity": 119,
      "chip": "ym2612"
    },
    {
      "channel": 1,
      "note": 64,
      "start": 41.5235,
      "duration": 0.1315,
      "velocity": 117,
      "chip": "ym2612"
    },
    {
      "channel": 4,
      "note": 79,
      "start": 41.5249,
      "duration": 0.2325,
      "velocity": 119,
      "chip": "ym2612"
    },
    {
      "channel": 2,
      "note": 64,
      "start": 41.6216,
      "duration": 0.0015,
      "velocity": 102,
      "chip": "ym2612"
    },
    {
      "channel": 3,
      "note": 67,
      "start": 41.6225,
      "duration": 0.0008,
      "velocity": 102,
      "chip": "ym2612"
    },
    {
      "channel": 2,
      "note": 64,
      "start": 41.6232,
      "duration": 0.1326,
      "velocity": 102,
      "chip": "ym2612"
    },
    {
      "channel": 3,
      "note": 67,
      "start": 41.6233,
      "duration": 0.1333,
      "velocity": 102,
      "chip": "ym2612"
    },
    {
      "channel": 1,
      "note": 64,
      "start": 41.6554,
      "duration": 0.1351,
      "velocity": 117,
      "chip": "ym2612"
    },
    {
      "channel": 2,
      "note": 64,
      "start": 41.756,
      "duration": 0.1339,
      "velocity": 102,
      "chip": "ym2612"
    },
    {
      "channel": 3,
      "note": 67,
      "start": 41.7569,
      "duration": 0.1339,
      "velocity": 102,
      "chip": "ym2612"
    },
    {
      "channel": 4,
      "note": 79,
      "start": 41.7577,
      "duration": 0.0005,
      "velocity": 119,
      "chip": "ym2612"
    },
    {
      "channel": 4,
      "note": 79,
      "start": 41.7583,
      "duration": 0.0332,
      "velocity": 119,
      "chip": "ym2612"
    },
    {
      "channel": 0,
      "note": 76,
      "start": 41.7899,
      "duration": 0.0024,
      "velocity": 119,
      "chip": "ym2612"
    },
    {
      "channel": 1,
      "note": 60,
      "start": 41.7908,
      "duration": 0.1333,
      "velocity": 117,
      "chip": "ym2612"
    },
    {
      "channel": 4,
      "note": 76,
      "start": 41.7918,
      "duration": 0.0008,
      "velocity": 119,
      "chip": "ym2612"
    },
    {
      "channel": 0,
      "note": 79,
      "start": 41.7924,
      "duration": 0.1,
      "velocity": 119,
      "chip": "ym2612"
    },
    {
      "channel": 4,
      "note": 79,
      "start": 41.7927,
      "duration": 0.0989,
      "velocity": 119,
      "chip": "ym2612"
    },
    {
      "channel": 2,
      "note": 64,
      "start": 41.8902,
      "duration": 0.0024,
      "velocity": 102,
      "chip": "ym2612"
    },
    {
      "channel": 3,
      "note": 67,
      "start": 41.891,
      "duration": 0.0017,
      "velocity": 102,
      "chip": "ym2612"
    },
    {
      "channel": 4,
      "note": 79,
      "start": 41.8919,
      "duration": 0.0011,
      "velocity": 119,
      "chip": "ym2612"
    },
    {
      "channel": 0,
      "note": 76,
      "start": 41.8925,
      "duration": 0.0307,
      "velocity": 119,
      "chip": "ym2612"
    },
    {
      "channel": 2,
      "note": 64,
      "start": 41.8927,
      "duration": 0.1312,
      "velocity": 102,
      "chip": "ym2612"
    },
    {
      "channel": 3,
      "note": 67,
      "start": 41.8928,
      "duration": 0.1319,
      "velocity": 102,
      "chip": "ym2612"
    },
    {
      "channel": 4,
      "note": 76,
      "start": 41.893,
      "duration": 0.032,
      "velocity": 119,
      "chip": "ym2612"
    },
    {
      "channel": 0,
      "note": 79,
      "start": 41.9235,
      "duration": 0.1023,
      "velocity": 119,
      "chip": "ym2612"
    },
    {
      "channel": 1,
      "note": 60,
      "start": 41.9243,
      "duration": 0.1017,
      "velocity": 117,
      "chip": "ym2612"
    },
    {
      "channel": 4,
      "note": 79,
      "start": 41.9254,
      "duration": 0.1009,
      "velocity": 119,
      "chip": "ym2612"
    },
    {
      "channel": 2,
      "note": 64,
      "start": 42.0242,
      "duration": 0.0975,
      "velocity": 102,
      "chip": "ym2612"
    },
    {
      "channel": 3,
      "note": 67,
      "start": 42.025,
      "duration": 0.0975,
      "velocity": 102,
      "chip": "ym2612"
    },
    {
      "channel": 0,
      "note": 76,
      "start": 42.0259,
      "duration": 0.0007,
      "velocity": 119,
      "chip": "ym2612"
    },
    {
      "channel": 1,
      "note": 64,
      "start": 42.0261,
      "duration": 0.1298,
      "velocity": 117,
      "chip": "ym2612"
    },
    {
      "channel": 4,
      "note": 76,
      "start": 42.0263,
      "duration": 0.0005,
      "velocity": 119,
      "chip": "ym2612"
    },
    {
      "channel": 0,
      "note": 79,
      "start": 42.0266,
      "duration": 0.0977,
      "velocity": 119,
      "chip": "ym2612"
    },
    {
      "channel": 4,
      "note": 79,
      "start": 42.0268,
      "duration": 0.0966,
      "velocity": 119,
      "chip": "ym2612"
    },
    {
      "channel": 2,
      "note": 64,
      "start": 42.122,
      "duration": 0.0024,
      "velocity": 102,
      "chip": "ym2612"
    },
    {
      "channel": 3,
      "note": 67,
      "start": 42.1228,
      "duration": 0.0017,
      "velocity": 102,
      "chip": "ym2612"
    },
    {
      "channel": 4,
      "note": 79,
      "start": 42.1237,
      "duration": 0.0011,
      "velocity": 119,
      "chip": "ym2612"
    },
    {
      "channel": 0,
      "note": 76,
      "start": 42.1243,
      "duration": 0.0307,
      "velocity": 119,
      "chip": "ym2612"
    },
    {
      "channel": 2,
      "note": 64,
      "start": 42.1245,
      "duration": 0.1312,
      "velocity": 102,
      "chip": "ym2612"
    },
    {
      "channel": 3,
      "note": 67,
      "start": 42.1246,
      "duration": 0.132,
      "velocity": 102,
      "chip": "ym2612"
    },
    {
      "channel": 4,
      "note": 76,
      "start": 42.1248,
      "duration": 0.032,
      "velocity": 119,
      "chip": "ym2612"
    },
    {
      "channel": 0,
      "note": 79,
      "start": 42.1553,
      "duration": 0.1343,
      "velocity": 119,
      "chip": "ym2612"
    },
    {
      "channel": 1,
      "note": 64,
      "start": 42.1561,
      "duration": 0.1343,
      "velocity": 117,
      "chip": "ym2612"
    },
    {
      "channel": 4,
      "note": 79,
      "start": 42.1571,
      "duration": 0.1002,
      "velocity": 119,
      "chip": "ym2612"
    },
    {
      "channel": 2,
      "note": 64,
      "start": 42.256,
      "duration": 0.1351,
      "velocity": 102,
      "chip": "ym2612"
    },
    {
      "channel": 3,
      "note": 67,
      "start": 42.2568,
      "duration": 0.1351,
      "velocity": 102,
      "chip": "ym2612"
    },
    {
      "channel": 4,
      "note": 79,
      "start": 42.2577,
      "duration": 0.0005,
      "velocity": 119,
      "chip": "ym2612"
    },
    {
      "channel": 4,
      "note": 79,
      "start": 42.2583,
      "duration": 0.0332,
      "velocity": 119,
      "chip": "ym2612"
    },
    {
      "channel": 0,
      "note": 79,
      "start": 42.2899,
      "duration": 0.1003,
      "velocity": 119,
      "chip": "ym2612"
    },
    {
      "channel": 1,
      "note": 62,
      "start": 42.2907,
      "duration": 0.1339,
      "velocity": 117,
      "chip": "ym2612"
    },
    {
      "channel": 4,
      "note": 79,
      "start": 42.2917,
      "duration": 0.1011,
      "velocity": 119,
      "chip": "ym2612"
    },
    {
      "channel": 0,
      "note": 76,
      "start": 42.3905,
      "duration": 0.0333,
      "velocity": 119,
      "chip": "ym2612"
    },
    {
      "channel": 2,
      "note": 62,
      "start": 42.3914,
      "duration": 0.0022,
      "velocity": 102,
      "chip": "ym2612"
    },
    {
      "channel": 3,
      "note": 67,
      "start": 42.3922,
      "duration": 0.0015,
      "velocity": 102,
      "chip": "ym2612"
    },
    {
      "channel": 4,
      "note": 76,
      "start": 42.3931,
      "duration": 0.0008,
      "velocity": 119,
      "chip": "ym2612"
    },
    {
      "channel": 2,
      "note": 62,
      "start": 42.3937,
      "duration": 0.1316,
      "velocity": 102,
      "chip": "ym2612"
    },
    {
      "channel": 3,
      "note": 67,
      "start": 42.3938,
      "duration": 0.1323,
      "velocity": 102,
      "chip": "ym2612"
    },
    {
      "channel": 4,
      "note": 76,
      "start": 42.3939,
      "duration": 0.0317,
      "velocity": 119,
      "chip": "ym2612"
    },
    {
      "channel": 0,
      "note": 74,
      "start": 42.424,
      "duration": 0.1003,
      "velocity": 119,
      "chip": "ym2612"
    },
    {
      "channel": 1,
      "note": 62,
      "start": 42.4249,
      "duration": 0.1032,
      "velocity": 117,
      "chip": "ym2612"
    },
    {
      "channel": 4,
      "note": 74,
      "start": 42.4259,
      "duration": 0.101,
      "velocity": 119,
      "chip": "ym2612"
    },
    {
      "channel": 0,
      "note": 76,
      "start": 42.5246,
      "duration": 0.0033,
      "velocity": 119,
      "chip": "ym2612"
    },
    {
      "channel": 2,
      "note": 62,
      "start": 42.5255,
      "duration": 0.1004,
      "velocity": 102,
      "chip": "ym2612"
    },
    {
      "channel": 3,
      "note": 67,
      "start": 42.5264,
      "duration": 0.1004,
      "velocity": 102,
      "chip": "ym2612"
    },
    {
      "channel": 4,
      "note": 76,
      "start": 42.5272,
      "duration": 0.0018,
      "velocity": 119,
      "chip": "ym2612"
    },
    {
      "channel": 0,
      "note": 79,
      "start": 42.528,
      "duration": 0.1678,
      "velocity": 119,
      "chip": "ym2612"
    },
    {
      "channel": 1,
      "note": 62,
      "start": 42.5281,
      "duration": 0.1021,
      "velocity": 117,
      "chip": "ym2612"
    },
    {
      "channel": 4,
      "note": 79,
      "start": 42.5295,
      "duration": 0.0981,
      "velocity": 119,
      "chip": "ym2612"
    },
    {
      "channel": 2,
      "note": 67,
      "start": 42.6262,
      "duration": 0.0022,
      "velocity": 102,
      "chip": "ym2612"
    },
    {
      "channel": 3,
      "note": 59,
      "start": 42.627,
      "duration": 0.0019,
      "velocity": 102,
      "chip": "ym2612"
    },
    {
      "channel": 4,
      "note": 55,
      "start": 42.6279,
      "duration": 0.0026,
      "velocity": 119,
      "chip": "ym2612"
    },
    {
      "channel": 2,
      "note": 67,
      "start": 42.6285,
      "duration": 0.033,
      "velocity": 102,
      "chip": "ym2612"
    },
    {
      "channel": 3,
      "note": 59,
      "start": 42.6294,
      "duration": 0.0329,
      "velocity": 102,
      "chip": "ym2612"
    },
    {
      "channel": 1,
      "note": 62,
      "start": 42.6303,
      "duration": 0.0663,
      "velocity": 117,
      "chip": "ym2612"
    },
    {
      "channel": 4,
      "note": 57,
      "start": 42.6305,
      "duration": 0.0326,
      "velocity": 119,
      "chip": "ym2612"
    },
    {
      "channel": 2,
      "note": 67,
      "start": 42.6617,
      "duration": 34.2349,
      "velocity": 102,
      "chip": "ym2612"
    },
    {
      "channel": 3,
      "note": 59,
      "start": 42.6626,
      "duration": 0.035,
      "velocity": 102,
      "chip": "ym2612"
    },
    {
      "channel": 4,
      "note": 59,
      "start": 42.6634,
      "duration": 34.2332,
      "velocity": 119,
      "chip": "ym2612"
    },
    {
      "channel": 0,
      "note": 97,
      "start": 42.696,
      "duration": 0.2388,
      "velocity": 119,
      "chip": "ym2612"
    },
    {
      "channel": 1,
      "note": 57,
      "start": 42.6969,
      "duration": 34.1998,
      "velocity": 117,
      "chip": "ym2612"
    },
    {
      "channel": 3,
      "note": 57,
      "start": 42.6979,
      "duration": 34.1988,
      "velocity": 102,
      "chip": "ym2612"
    },
    {
      "channel": 5,
      "note": 57,
      "start": 42.7016,
      "duration": 34.1951,
      "velocity": 119,
      "chip": "ym2612"
    },
    {
      "channel": 0,
      "note": 97,
      "start": 42.9351,
      "duration": 33.9616,
      "velocity": 119,
      "chip": "ym2612"
    }
  ]
}