{
  "track_name": "02 - Flower Field",
  "duration_sec": 84.159,
  "sample_rate": 44100,
  "note_count": 1000,
  "unique_pitches": 32,
  "pitch_range": 50,
  "avg_note_duration": 0.3676,
  "reconstruction_stats": {
    "notes_reconstructed": 1000,
    "keyon_events": 1000,
    "keyoff_events": 998,
    "orphan_keyons": 2,
    "unique_pitches": 32,
    "pitch_range": 50,
    "avg_duration_sec": 0.3676
  },
  "metadata": {
    "source": "M\\Mamono Hunter Youko\\02 - Flower Field.vgz"
  },
  "notes": [
    {
      "channel": 0,
      "note": 52,
      "start": 0.0534,
      "duration": 2.8226,
      "velocity": 85,
      "chip": "ym2612"
    },
    {
      "channel": 2,
      "note": 52,
      "start": 0.0534,
      "duration": 0.1582,
      "velocity": 89,
      "chip": "ym2612"
    },
    {
      "channel": 3,
      "note": 71,
      "start": 0.0535,
      "duration": 0.0915,
      "velocity": 119,
      "chip": "ym2612"
    },
    {
      "channel": 5,
      "note": 55,
      "start": 0.0536,
      "duration": 0.3968,
      "velocity": 117,
      "chip": "ym2612"
    },
    {
      "channel": 2,
      "note": 47,
      "start": 0.2477,
      "duration": 1.0595,
      "velocity": 89,
      "chip": "ym2612"
    },
    {
      "channel": 3,
      "note": 71,
      "start": 0.2477,
      "duration": 0.0987,
      "velocity": 119,
      "chip": "ym2612"
    },
    {
      "channel": 3,
      "note": 71,
      "start": 0.6525,
      "duration": 0.1003,
      "velocity": 119,
      "chip": "ym2612"
    },
    {
      "channel": 3,
      "note": 71,
      "start": 0.858,
      "duration": 0.0971,
      "velocity": 119,
      "chip": "ym2612"
    },
    {
      "channel": 5,
      "note": 44,
      "start": 0.8581,
      "duration": 0.2017,
      "velocity": 127,
      "chip": "ym2612"
    },
    {
      "channel": 5,
      "note": 44,
      "start": 1.0598,
      "duration": 0.4041,
      "velocity": 117,
      "chip": "ym2612"
    },
    {
      "channel": 3,
      "note": 69,
      "start": 1.2581,
      "duration": 0.0996,
      "velocity": 119,
      "chip": "ym2612"
    },
    {
      "channel": 2,
      "note": 45,
      "start": 1.4638,
      "duration": 0.1634,
      "velocity": 89,
      "chip": "ym2612"
    },
    {
      "channel": 3,
      "note": 71,
      "start": 1.4639,
      "duration": 0.0961,
      "velocity": 119,
      "chip": "ym2612"
    },
    {
      "channel": 5,
      "note": 55,
      "start": 1.464,
      "duration": 0.2054,
      "velocity": 117,
      "chip": "ym2612"
    },
    {
      "channel": 2,
      "note": 47,
      "start": 1.6694,
      "duration": 0.3457,
      "velocity": 89,
      "chip": "ym2612"
    },
    {
      "channel": 5,
      "note": 55,
      "start": 1.6695,
      "duration": 0.4035,
      "velocity": 117,
      "chip": "ym2612"
    },
    {
      "channel": 3,
      "note": 71,
      "start": 1.8641,
      "duration": 0.1003,
      "velocity": 119,
      "chip": "ym2612"
    },
    {
      "channel": 2,
      "note": 47,
      "start": 2.0729,
      "duration": 1.0544,
      "velocity": 89,
      "chip": "ym2612"
    },
    {
      "channel": 3,
      "note": 71,
      "start": 2.0729,
      "duration": 0.0956,
      "velocity": 119,
      "chip": "ym2612"
    },
    {
      "channel": 5,
      "note": 55,
      "start": 2.073,
      "duration": 0.4045,
      "velocity": 127,
      "chip": "ym2612"
    },
    {
      "channel": 3,
      "note": 71,
      "start": 2.4775,
      "duration": 0.095,
      "velocity": 119,
      "chip": "ym2612"
    },
    {
      "channel": 5,
      "note": 44,
      "start": 2.4776,
      "duration": 0.1994,
      "velocity": 127,
      "chip": "ym2612"
    },
    {
      "channel": 3,
      "note": 71,
      "start": 2.6769,
      "duration": 0.0971,
      "velocity": 119,
      "chip": "ym2612"
    },
    {
      "channel": 5,
      "note": 44,
      "start": 2.677,
      "duration": 0.4011,
      "velocity": 127,
      "chip": "ym2612"
    },
    {
      "channel": 3,
      "note": 71,
      "start": 3.078,
      "duration": 0.0998,
      "velocity": 119,
      "chip": "ym2612"
    },
    {
      "channel": 0,
      "note": 52,
      "start": 3.2897,
      "duration": 2.8217,
      "velocity": 85,
      "chip": "ym2612"
    },
    {
      "channel": 2,
      "note": 52,
      "start": 3.2897,
      "duration": 0.1578,
      "velocity": 89,
      "chip": "ym2612"
    },
    {
      "channel": 3,
      "note": 71,
      "start": 3.2898,
      "duration": 0.0914,
      "velocity": 119,
      "chip": "ym2612"
    },
    {
      "channel": 5,
      "note": 55,
      "start": 3.2899,
      "duration": 0.3964,
      "velocity": 117,
      "chip": "ym2612"
    },
    {
      "channel": 2,
      "note": 47,
      "start": 3.4853,
      "duration": 1.0579,
      "velocity": 89,
      "chip": "ym2612"
    },
    {
      "channel": 3,
      "note": 71,
      "start": 3.4854,
      "duration": 0.0988,
      "velocity": 119,
      "chip": "ym2612"
    },
    {
      "channel": 3,
      "note": 71,
      "start": 3.8884,
      "duration": 0.1004,
      "velocity": 119,
      "chip": "ym2612"
    },
    {
      "channel": 3,
      "note": 71,
      "start": 4.0935,
      "duration": 0.0959,
      "velocity": 119,
      "chip": "ym2612"
    },
    {
      "channel": 5,
      "note": 44,
      "start": 4.0936,
      "duration": 0.2008,
      "velocity": 127,
      "chip": "ym2612"
    },
    {
      "channel": 5,
      "note": 44,
      "start": 4.2945,
      "duration": 0.4071,
      "velocity": 117,
      "chip": "ym2612"
    },
    {
      "channel": 3,
      "note": 69,
      "start": 4.4933,
      "duration": 0.1002,
      "velocity": 119,
      "chip": "ym2612"
    },
    {
      "channel": 2,
      "note": 45,
      "start": 4.7015,
      "duration": 0.1618,
      "velocity": 89,
      "chip": "ym2612"
    },
    {
      "channel": 3,
      "note": 71,
      "start": 4.7015,
      "duration": 0.0941,
      "velocity": 119,
      "chip": "ym2612"
    },
    {
      "channel": 5,
      "note": 55,
      "start": 4.7017,
      "duration": 0.2037,
      "velocity": 117,
      "chip": "ym2612"
    },
    {
      "channel": 2,
      "note": 47,
      "start": 4.9053,
      "duration": 0.3475,
      "velocity": 89,
      "chip": "ym2612"
    },
    {
      "channel": 5,
      "note": 55,
      "start": 4.9054,
      "duration": 0.4046,
      "velocity": 117,
      "chip": "ym2612"
    },
    {
      "channel": 3,
      "note": 71,
      "start": 5.1018,
      "duration": 0.1003,
      "velocity": 119,
      "chip": "ym2612"
    },
    {
      "channel": 1,
      "note": 83,
      "start": 5.3099,
      "duration": 0.1618,
      "velocity": 99,
      "chip": "ym2612"
    },
    {
      "channel": 2,
      "note": 47,
      "start": 5.31,
      "duration": 1.0531,
      "velocity": 89,
      "chip": "ym2612"
    },
    {
      "channel": 3,
      "note": 71,
      "start": 5.31,
      "duration": 0.0942,
      "velocity": 119,
      "chip": "ym2612"
    },
    {
      "channel": 5,
      "note": 55,
      "start": 5.3101,
      "duration": 0.4013,
      "velocity": 127,
      "chip": "ym2612"
    },
    {
      "channel": 1,
      "note": 84,
      "start": 5.5063,
      "duration": 0.166,
      "velocity": 99,
      "chip": "ym2612"
    },
    {
      "channel": 4,
      "note": 83,
      "start": 5.5403,
      "duration": 0.171,
      "velocity": 99,
      "chip": "ym2612"
    },
    {
      "channel": 1,
      "note": 87,
      "start": 5.7112,
      "duration": 0.1136,
      "velocity": 99,
      "chip": "ym2612"
    },
    {
      "channel": 3,
      "note": 71,
      "start": 5.7113,
      "duration": 0.0958,
      "velocity": 119,
      "chip": "ym2612"
    },
    {
      "channel": 5,
      "note": 44,
      "start": 5.7115,
      "duration": 0.2015,
      "velocity": 127,
      "chip": "ym2612"
    },
    {
      "channel": 4,
      "note": 84,
      "start": 5.7397,
      "duration": 0.1732,
      "velocity": 99,
      "chip": "ym2612"
    },
    {
      "channel": 1,
      "note": 88,
      "start": 5.8249,
      "duration": 0.0662,
      "velocity": 99,
      "chip": "ym2612"
    },
    {
      "channel": 1,
      "note": 83,
      "start": 5.9127,
      "duration": 0.1638,
      "velocity": 99,
      "chip": "ym2612"
    },
    {
      "channel": 3,
      "note": 71,
      "start": 5.9128,
      "duration": 0.0964,
      "velocity": 119,
      "chip": "ym2612"
    },
    {
      "channel": 5,
      "note": 44,
      "start": 5.913,
      "duration": 0.4013,
      "velocity": 127,
      "chip": "ym2612"
    },
    {
      "channel": 4,
      "note": 87,
      "start": 5.9424,
      "duration": 0.1187,
      "velocity": 99,
      "chip": "ym2612"
    },
    {
      "channel": 4,
      "note": 88,
      "start": 6.0612,
      "duration": 0.0658,
      "velocity": 99,
      "chip": "ym2612"
    },
    {
      "channel": 1,
      "note": 84,
      "start": 6.1114,
      "duration": 0.1674,
      "velocity": 99,
      "chip": "ym2612"
    },
    {
      "channel": 4,
      "note": 83,
      "start": 6.1444,
      "duration": 0.1699,
      "velocity": 99,
      "chip": "ym2612"
    },
    {
      "channel": 1,
      "note": 83,
      "start": 6.3141,
      "duration": 0.1666,
      "velocity": 99,
      "chip": "ym2612"
    },
    {
      "channel": 3,
      "note": 71,
      "start": 6.3142,
      "duration": 0.0992,
      "velocity": 119,
      "chip": "ym2612"
    },
    {
      "channel": 4,
      "note": 84,
      "start": 6.3465,
      "duration": 0.1791,
      "velocity": 99,
      "chip": "ym2612"
    },
    {
      "channel": 0,
      "note": 52,
      "start": 6.5254,
      "duration": 2.8218,
      "velocity": 85,
      "chip": "ym2612"
    },
    {
      "channel": 1,
      "note": 88,
      "start": 6.5255,
      "duration": 0.0935,
      "velocity": 99,
      "chip": "ym2612"
    },
    {
      "channel": 2,
      "note": 52,
      "start": 6.5255,
      "duration": 0.1597,
      "velocity": 89,
      "chip": "ym2612"
    },
    {
      "channel": 3,
      "note": 71,
      "start": 6.5256,
      "duration": 0.0934,
      "velocity": 119,
      "chip": "ym2612"
    },
    {
      "channel": 5,
      "note": 55,
      "start": 6.5257,
      "duration": 0.3965,
      "velocity": 117,
      "chip": "ym2612"
    },
    {
      "channel": 4,
      "note": 83,
      "start": 6.5513,
      "duration": 0.1692,
      "velocity": 99,
      "chip": "ym2612"
    },
    {
      "channel": 1,
      "note": 87,
      "start": 6.619,
      "duration": 2.7283,
      "velocity": 99,
      "chip": "ym2612"
    },
    {
      "channel": 2,
      "note": 47,
      "start": 6.7204,
      "duration": 1.0585,
      "velocity": 89,
      "chip": "ym2612"
    },
    {
      "channel": 3,
      "note": 71,
      "start": 6.7204,
      "duration": 0.0995,
      "velocity": 119,
      "chip": "ym2612"
    },
    {
      "channel": 4,
      "note": 88,
      "start": 6.7535,
      "duration": 0.1017,
      "velocity": 99,
      "chip": "ym2612"
    },
    {
      "channel": 4,
      "note": 87,
      "start": 6.8552,
      "duration": 2.7289,
      "velocity": 99,
      "chip": "ym2612"
    },
    {
      "channel": 3,
      "note": 71,
      "start": 7.1244,
      "duration": 0.0993,
      "velocity": 119,
      "chip": "ym2612"
    },
    {
      "channel": 3,
      "note": 71,
      "start": 7.3288,
      "duration": 0.096,
      "velocity": 119,
      "chip": "ym2612"
    },
    {
      "channel": 5,
      "note": 44,
      "start": 7.329,
      "duration": 0.2018,
      "velocity": 127,
      "chip": "ym2612"
    },
    {
      "channel": 5,
      "note": 44,
      "start": 7.5308,
      "duration": 0.4066,
      "velocity": 117,
      "chip": "ym2612"
    },
    {
      "channel": 3,
      "note": 69,
      "start": 7.7291,
      "duration": 0.1002,
      "velocity": 119,
      "chip": "ym2612"
    },
    {
      "channel": 2,
      "note": 45,
      "start": 7.9372,
      "duration": 0.1638,
      "velocity": 89,
      "chip": "ym2612"
    },
    {
      "channel": 3,
      "note": 71,
      "start": 7.9373,
      "duration": 0.0963,
      "velocity": 119,
      "chip": "ym2612"
    },
    {
      "channel": 5,
      "note": 55,
      "start": 7.9374,
      "duration": 0.2044,
      "velocity": 117,
      "chip": "ym2612"
    },
    {
      "channel": 2,
      "note": 47,
      "start": 8.1417,
      "duration": 0.3468,
      "velocity": 89,
      "chip": "ym2612"
    },
    {
      "channel": 5,
      "note": 55,
      "start": 8.1419,
      "duration": 0.4029,
      "velocity": 117,
      "chip": "ym2612"
    },
    {
      "channel": 3,
      "note": 71,
      "start": 8.3377,
      "duration": 0.1002,
      "velocity": 119,
      "chip": "ym2612"
    },
    {
      "channel": 2,
      "note": 47,
      "start": 8.5446,
      "duration": 1.0563,
      "velocity": 89,
      "chip": "ym2612"
    },
    {
      "channel": 3,
      "note": 71,
      "start": 8.5447,
      "duration": 0.0947,
      "velocity": 119,
      "chip": "ym2612"
    },
    {
      "channel": 5,
      "note": 55,
      "start": 8.5448,
      "duration": 0.4025,
      "velocity": 127,
      "chip": "ym2612"
    },
    {
      "channel": 3,
      "note": 71,
      "start": 8.9473,
      "duration": 0.0954,
      "velocity": 119,
      "chip": "ym2612"
    },
    {
      "channel": 5,
      "note": 44,
      "start": 8.9473,
      "duration": 0.2029,
      "velocity": 127,
      "chip": "ym2612"
    },
    {
      "channel": 3,
      "note": 71,
      "start": 9.1502,
      "duration": 0.095,
      "velocity": 119,
      "chip": "ym2612"
    },
    {
      "channel": 5,
      "note": 44,
      "start": 9.1502,
      "duration": 0.4014,
      "velocity": 127,
      "chip": "ym2612"
    },
    {
      "channel": 3,
      "note": 71,
      "start": 9.5515,
      "duration": 0.0999,
      "velocity": 119,
      "chip": "ym2612"
    },
    {
      "channel": 0,
      "note": 52,
      "start": 9.7612,
      "duration": 2.8288,
      "velocity": 85,
      "chip": "ym2612"
    },
    {
      "channel": 2,
      "note": 52,
      "start": 9.7612,
      "duration": 0.1597,
      "velocity": 89,
      "chip": "ym2612"
    },
    {
      "channel": 3,
      "note": 71,
      "start": 9.7613,
      "duration": 0.0933,
      "velocity": 119,
      "chip": "ym2612"
    },
    {
      "channel": 5,
      "note": 55,
      "start": 9.7613,
      "duration": 0.1994,
      "velocity": 125,
      "chip": "ym2612"
    },
    {
      "channel": 2,
      "note": 47,
      "start": 9.9606,
      "duration": 1.0539,
      "velocity": 89,
      "chip": "ym2612"
    },
    {
      "channel": 3,
      "note": 71,
      "start": 9.9607,
      "duration": 0.095,
      "velocity": 119,
      "chip": "ym2612"
    },
    {
      "channel": 5,
      "note": 38,
      "start": 9.9608,
      "duration": 0.4008,
      "velocity": 125,
      "chip": "ym2612"
    },
    {
      "channel": 3,
      "note": 71,
      "start": 10.3616,
      "duration": 0.0968,
      "velocity": 119,
      "chip": "ym2612"
    },
    {
      "channel": 5,
      "note": 38,
      "start": 10.3617,
      "duration": 0.2021,
      "velocity": 127,
      "chip": "ym2612"
    },
    {
      "channel": 3,
      "note": 71,
      "start": 10.5638,
      "duration": 0.0968,
      "velocity": 119,
      "chip": "ym2612"
    },
    {
      "channel": 5,
      "note": 44,
      "start": 10.5639,
      "duration": 0.2038,
      "velocity": 127,
      "chip": "ym2612"
    },
    {
      "channel": 5,
      "note": 44,
      "start": 10.7677,
      "duration": 0.2027,
      "velocity": 125,
      "chip": "ym2612"
    },
    {
      "channel": 3,
      "note": 69,
      "start": 10.9704,
      "duration": 0.0967,
      "velocity": 119,
      "chip": "ym2612"
    },
    {
      "channel": 5,
      "note": 49,
      "start": 10.9704,
      "duration": 0.2027,
      "velocity": 117,
      "chip": "ym2612"
    },
    {
      "channel": 2,
      "note": 45,
      "start": 11.173,
      "duration": 0.1635,
      "velocity": 89,
      "chip": "ym2612"
    },
    {
      "channel": 3,
      "note": 71,
      "start": 11.1731,
      "duration": 0.0963,
      "velocity": 119,
      "chip": "ym2612"
    },
    {
      "channel": 5,
      "note": 55,
      "start": 11.1732,
      "duration": 0.2034,
      "velocity": 117,
      "chip": "ym2612"
    },
    {
      "channel": 2,
      "note": 47,
      "start": 11.3766,
      "duration": 0.346,
      "velocity": 89,
      "chip": "ym2612"
    },
    {
      "channel": 5,
      "note": 55,
      "start": 11.3767,
      "duration": 0.2001,
      "velocity": 125,
      "chip": "ym2612"
    },
    {
      "channel": 3,
      "note": 71,
      "start": 11.5767,
      "duration": 0.0958,
      "velocity": 119,
      "chip": "ym2612"
    },
    {
      "channel": 5,
      "note": 57,
      "start": 11.5769,
      "duration": 0.2018,
      "velocity": 117,
      "chip": "ym2612"
    },
    {
      "channel": 2,
      "note": 47,
      "start": 11.7785,
      "duration": 0.1628,
      "velocity": 89,
      "chip": "ym2612"
    },
    {
      "channel": 3,
      "note": 71,
      "start": 11.7786,
      "duration": 0.0955,
      "velocity": 119,
      "chip": "ym2612"
    },
    {
      "channel": 5,
      "note": 55,
      "start": 11.7787,
      "duration": 0.2015,
      "velocity": 125,
      "chip": "ym2612"
    },
    {
      "channel": 2,
      "note": 52,
      "start": 11.98,
      "duration": 0.1636,
      "velocity": 89,
      "chip": "ym2612"
    },
    {
      "channel": 3,
      "note": 71,
      "start": 11.9801,
      "duration": 0.0963,
      "velocity": 119,
      "chip": "ym2612"
    },
    {
      "channel": 5,
      "note": 57,
      "start": 11.9802,
      "duration": 0.2043,
      "velocity": 127,
      "chip": "ym2612"
    },
    {
      "channel": 1,
      "note": 88,
      "start": 12.1844,
      "duration": 0.3472,
      "velocity": 99,
      "chip": "ym2612"
    },
    {
      "channel": 2,
      "note": 48,
      "start": 12.1845,
      "duration": 0.1614,
      "velocity": 89,
      "chip": "ym2612"
    },
    {
      "channel": 5,
      "note": 44,
      "start": 12.1846,
      "duration": 0.2018,
      "velocity": 125,
      "chip": "ym2612"
    },
    {
      "channel": 2,
      "note": 47,
      "start": 12.3863,
      "duration": 0.1622,
      "velocity": 89,
      "chip": "ym2612"
    },
    {
      "channel": 3,
      "note": 71,
      "start": 12.3864,
      "duration": 0.0944,
      "velocity": 119,
      "chip": "ym2612"
    },
    {
      "channel": 5,
      "note": 49,
      "start": 12.3865,
      "duration": 0.2036,
      "velocity": 125,
      "chip": "ym2612"
    },
    {
      "channel": 4,
      "note": 88,
      "start": 12.414,
      "duration": 0.3551,
      "velocity": 99,
      "chip": "ym2612"
    },
    {
      "channel": 1,
      "note": 87,
      "start": 12.59,
      "duration": 0.1132,
      "velocity": 99,
      "chip": "ym2612"
    },
    {
      "channel": 2,
      "note": 44,
      "start": 12.59,
      "duration": 0.1625,
      "velocity": 89,
      "chip": "ym2612"
    },
    {
      "channel": 5,
      "note": 38,
      "start": 12.5902,
      "duration": 0.4064,
      "velocity": 117,
      "chip": "ym2612"
    },
    {
      "channel": 1,
      "note": 88,
      "start": 12.7032,
      "duration": 0.2361,
      "velocity": 99,
      "chip": "ym2612"
    },
    {
      "channel": 2,
      "note": 45,
      "start": 12.7874,
      "duration": 0.1671,
      "velocity": 89,
      "chip": "ym2612"
    },
    {
      "channel": 3,
      "note": 71,
      "start": 12.7875,
      "duration": 0.0997,
      "velocity": 119,
      "chip": "ym2612"
    },
    {
      "channel": 4,
      "note": 87,
      "start": 12.8205,
      "duration": 0.1188,
      "velocity": 99,
      "chip": "ym2612"
    },
    {
      "channel": 4,
      "note": 88,
      "start": 12.9394,
      "duration": 0.2331,
      "velocity": 99,
      "chip": "ym2612"
    },
    {
      "channel": 0,
      "note": 52,
      "start": 12.9963,
      "duration": 1.4122,
      "velocity": 85,
      "chip": "ym2612"
    },
    {
      "channel": 1,
      "note": 83,
      "start": 12.9964,
      "duration": 1.4122,
      "velocity": 99,
      "chip": "ym2612"
    },
    {
      "channel": 2,
      "note": 47,
      "start": 12.9965,
      "duration": 2.8242,
      "velocity": 89,
      "chip": "ym2612"
    },
    {
      "channel": 5,
      "note": 55,
      "start": 12.9966,
      "duration": 0.3956,
      "velocity": 117,
      "chip": "ym2612"
    },
    {
      "channel": 4,
      "note": 83,
      "start": 13.2231,
      "duration": 1.416,
      "velocity": 99,
      "chip": "ym2612"
    },
    {
      "channel": 3,
      "note": 69,
      "start": 13.3921,
      "duration": 0.0999,
      "velocity": 119,
      "chip": "ym2612"
    },
    {
      "channel": 3,
      "note": 71,
      "start": 13.5939,
      "duration": 0.1002,
      "velocity": 119,
      "chip": "ym2612"
    },
    {
      "channel": 3,
      "note": 75,
      "start": 13.8014,
      "duration": 0.0951,
      "velocity": 119,
      "chip": "ym2612"
    },
    {
      "channel": 5,
      "note": 44,
      "start": 13.8015,
      "duration": 0.2024,
      "velocity": 127,
      "chip": "ym2612"
    },
    {
      "channel": 3,
      "note": 71,
      "start": 14.0038,
      "duration": 0.0969,
      "velocity": 119,
      "chip": "ym2612"
    },
    {
      "channel": 5,
      "note": 44,
      "start": 14.0038,
      "duration": 0.4049,
      "velocity": 117,
      "chip": "ym2612"
    },
    {
      "channel": 3,
      "note": 71,
      "start": 14.2027,
      "duration": 0.1001,
      "velocity": 119,
      "chip": "ym2612"
    },
    {
      "channel": 3,
      "note": 69,
      "start": 14.4087,
      "duration": 0.0964,
      "velocity": 119,
      "chip": "ym2612"
    },
    {
      "channel": 5,
      "note": 55,
      "start": 14.4088,
      "duration": 0.2044,
      "velocity": 117,
      "chip": "ym2612"
    },
    {
      "channel": 0,
      "note": 52,
      "start": 14.613,
      "duration": 1.4098,
      "velocity": 85,
      "chip": "ym2612"
    },
    {
      "channel": 1,
      "note": 84,
      "start": 14.6131,
      "duration": 0.3452,
      "velocity": 99,
      "chip": "ym2612"
    },
    {
      "channel": 3,
      "note": 71,
      "start": 14.6131,
      "duration": 0.0926,
      "velocity": 119,
      "chip": "ym2612"
    },
    {
      "channel": 5,
      "note": 55,
      "start": 14.6132,
      "duration": 0.4,
      "velocity": 117,
      "chip": "ym2612"
    },
    {
      "channel": 3,
      "note": 71,
      "start": 14.8077,
      "duration": 0.7081,
      "velocity": 119,
      "chip": "ym2612"
    },
    {
      "channel": 4,
      "note": 84,
      "start": 14.8408,
      "duration": 0.3533,
      "velocity": 99,
      "chip": "ym2612"
    },
    {
      "channel": 1,
      "note": 81,
      "start": 15.0131,
      "duration": 0.3495,
      "velocity": 99,
      "chip": "ym2612"
    },
    {
      "channel": 5,
      "note": 55,
      "start": 15.0132,
      "duration": 0.4064,
      "velocity": 127,
      "chip": "ym2612"
    },
    {
      "channel": 4,
      "note": 81,
      "start": 15.2454,
      "duration": 0.3552,
      "velocity": 99,
      "chip": "ym2612"
    },
    {
      "channel": 1,
      "note": 88,
      "start": 15.4195,
      "duration": 0.0961,
      "velocity": 99,
      "chip": "ym2612"
    },
    {
      "channel": 5,
      "note": 44,
      "start": 15.4197,
      "duration": 0.2016,
      "velocity": 127,
      "chip": "ym2612"
    },
    {
      "channel": 1,
      "note": 87,
      "start": 15.5157,
      "duration": 0.2534,
      "velocity": 99,
      "chip": "ym2612"
    },
    {
      "channel": 5,
      "note": 44,
      "start": 15.6213,
      "duration": 0.4015,
      "velocity": 127,
      "chip": "ym2612"
    },
    {
      "channel": 4,
      "note": 88,
      "start": 15.6519,
      "duration": 0.1019,
      "velocity": 99,
      "chip": "ym2612"
    },
    {
      "channel": 4,
      "note": 87,
      "start": 15.7538,
      "duration": 0.2512,
      "velocity": 99,
      "chip": "ym2612"
    },
    {
      "channel": 1,
      "note": 84,
      "start": 15.8206,
      "duration": 0.3517,
      "velocity": 99,
      "chip": "ym2612"
    },
    {
      "channel": 4,
      "note": 84,
      "start": 16.0561,
      "duration": 0.3515,
      "velocity": 99,
      "chip": "ym2612"
    },
    {
      "channel": 0,
      "note": 52,
      "start": 16.2307,
      "duration": 0.6994,
      "velocity": 85,
      "chip": "ym2612"
    },
    {
      "channel": 1,
      "note": 83,
      "start": 16.2308,
      "duration": 0.2118,
      "velocity": 99,
      "chip": "ym2612"
    },
    {
      "channel": 2,
      "note": 47,
      "start": 16.2309,
      "duration": 1.0552,
      "velocity": 89,
      "chip": "ym2612"
    },
    {
      "channel": 5,
      "note": 55,
      "start": 16.2309,
      "duration": 0.3972,
      "velocity": 117,
      "chip": "ym2612"
    },
    {
      "channel": 1,
      "note": 84,
      "start": 16.4426,
      "duration": 1.5662,
      "velocity": 99,
      "chip": "ym2612"
    },
    {
      "channel": 4,
      "note": 83,
      "start": 16.4592,
      "duration": 0.2196,
      "velocity": 99,
      "chip": "ym2612"
    },
    {
      "channel": 3,
      "note": 76,
      "start": 16.6281,
      "duration": 0.2015,
      "velocity": 119,
      "chip": "ym2612"
    },
    {
      "channel": 4,
      "note": 84,
      "start": 16.6788,
      "duration": 1.5722,
      "velocity": 99,
      "chip": "ym2612"
    },
    {
      "channel": 0,
      "note": 64,
      "start": 17.0379,
      "duration": 0.3494,
      "velocity": 85,
      "chip": "ym2612"
    },
    {
      "channel": 3,
      "note": 75,
      "start": 17.0379,
      "duration": 0.0965,
      "velocity": 119,
      "chip": "ym2612"
    },
    {
      "channel": 5,
      "note": 44,
      "start": 17.0381,
      "duration": 0.2017,
      "velocity": 127,
      "chip": "ym2612"
    },
    {
      "channel": 3,
      "note": 76,
      "start": 17.2397,
      "duration": 0.0968,
      "velocity": 119,
      "chip": "ym2612"
    },
    {
      "channel": 5,
      "note": 44,
      "start": 17.2398,
      "duration": 0.4062,
      "velocity": 117,
      "chip": "ym2612"
    },
    {
      "channel": 0,
      "note": 62,
      "start": 17.4398,
      "duration": 0.1661,
      "velocity": 85,
      "chip": "ym2612"
    },
    {
      "channel": 2,
      "note": 45,
      "start": 17.4398,
      "duration": 0.1661,
      "velocity": 89,
      "chip": "ym2612"
    },
    {
      "channel": 3,
      "note": 69,
      "start": 17.4399,
      "duration": 0.099,
      "velocity": 119,
      "chip": "ym2612"
    },
    {
      "channel": 0,
      "note": 64,
      "start": 17.6458,
      "duration": 0.1614,
      "velocity": 85,
      "chip": "ym2612"
    },
    {
      "channel": 2,
      "note": 47,
      "start": 17.6459,
      "duration": 0.1613,
      "velocity": 89,
      "chip": "ym2612"
    },
    {
      "channel": 3,
      "note": 71,
      "start": 17.646,
      "duration": 0.2001,
      "velocity": 119,
      "chip": "ym2612"
    },
    {
      "channel": 5,
      "note": 55,
      "start": 17.6461,
      "duration": 0.2001,
      "velocity": 117,
      "chip": "ym2612"
    },
    {
      "channel": 5,
      "note": 55,
      "start": 17.8462,
      "duration": 0.4049,
      "velocity": 117,
      "chip": "ym2612"
    },
    {
      "channel": 0,
      "note": 52,
      "start": 18.0446,
      "duration": 0.3519,
      "velocity": 85,
      "chip": "ym2612"
    },
    {
      "channel": 2,
      "note": 47,
      "start": 18.0447,
      "duration": 0.3519,
      "velocity": 89,
      "chip": "ym2612"
    },
    {
      "channel": 3,
      "note": 71,
      "start": 18.0447,
      "duration": 0.4057,
      "velocity": 119,
      "chip": "ym2612"
    },
    {
      "channel": 5,
      "note": 55,
      "start": 18.2512,
      "duration": 0.4057,
      "velocity": 127,
      "chip": "ym2612"
    },
    {
      "channel": 0,
      "note": 50,
      "start": 18.4503,
      "duration": 0.167,
      "velocity": 85,
      "chip": "ym2612"
    },
    {
      "channel": 2,
      "note": 45,
      "start": 18.4504,
      "duration": 0.167,
      "velocity": 89,
      "chip": "ym2612"
    },
    {
      "channel": 0,
      "note": 52,
      "start": 18.6566,
      "duration": 0.7007,
      "velocity": 85,
      "chip": "ym2612"
    },
    {
      "channel": 1,
      "note": 88,
      "start": 18.6567,
      "duration": 0.3482,
      "velocity": 99,
      "chip": "ym2612"
    },
    {
      "channel": 2,
      "note": 47,
      "start": 18.6568,
      "duration": 0.7007,
      "velocity": 89,
      "chip": "ym2612"
    },
    {
      "channel": 5,
      "note": 44,
      "start": 18.6569,
      "duration": 0.2008,
      "velocity": 127,
      "chip": "ym2612"
    },
    {
      "channel": 3,
      "note": 76,
      "start": 18.8576,
      "duration": 0.0967,
      "velocity": 119,
      "chip": "ym2612"
    },
    {
      "channel": 5,
      "note": 44,
      "start": 18.8577,
      "duration": 0.3996,
      "velocity": 127,
      "chip": "ym2612"
    },
    {
      "channel": 4,
      "note": 88,
      "start": 18.8877,
      "duration": 0.3515,
      "velocity": 99,
      "chip": "ym2612"
    },
    {
      "channel": 1,
      "note": 87,
      "start": 19.057,
      "duration": 0.1168,
      "velocity": 99,
      "chip": "ym2612"
    },
    {
      "channel": 3,
      "note": 75,
      "start": 19.057,
      "duration": 0.0988,
      "velocity": 119,
      "chip": "ym2612"
    },
    {
      "channel": 1,
      "note": 88,
      "start": 19.1738,
      "duration": 0.2353,
      "velocity": 99,
      "chip": "ym2612"
    },
    {
      "channel": 3,
      "note": 76,
      "start": 19.2573,
      "duration": 0.1002,
      "velocity": 119,
      "chip": "ym2612"
    },
    {
      "channel": 4,
      "note": 87,
      "start": 19.291,
      "duration": 0.1182,
      "velocity": 99,
      "chip": "ym2612"
    },
    {
      "channel": 4,
      "note": 88,
      "start": 19.4093,
      "duration": 0.2344,
      "velocity": 99,
      "chip": "ym2612"
    },
    {
      "channel": 0,
      "note": 52,
      "start": 19.4682,
      "duration": 1.4101,
      "velocity": 85,
      "chip": "ym2612"
    },
    {
      "channel": 1,
      "note": 83,
      "start": 19.4683,
      "duration": 1.4101,
      "velocity": 99,
      "chip": "ym2612"
    },
    {
      "channel": 2,
      "note": 47,
      "start": 19.4683,
      "duration": 2.8221,
      "velocity": 89,
      "chip": "ym2612"
    },
    {
      "channel": 5,
      "note": 55,
      "start": 19.4684,
      "duration": 0.3956,
      "velocity": 117,
      "chip": "ym2612"
    },
    {
      "channel": 4,
      "note": 83,
      "start": 19.6946,
      "duration": 1.4152,
      "velocity": 99,
      "chip": "ym2612"
    },
    {
      "channel": 3,
      "note": 69,
      "start": 19.8639,
      "duration": 0.0999,
      "velocity": 119,
      "chip": "ym2612"
    },
    {
      "channel": 3,
      "note": 71,
      "start": 20.0675,
      "duration": 0.1003,
      "velocity": 119,
      "chip": "ym2612"
    },
    {
      "channel": 3,
      "note": 75,
      "start": 20.2731,
      "duration": 0.097,
      "velocity": 119,
      "chip": "ym2612"
    },
    {
      "channel": 5,
      "note": 44,
      "start": 20.2732,
      "duration": 0.2025,
      "velocity": 127,
      "chip": "ym2612"
    },
    {
      "channel": 3,
      "note": 71,
      "start": 20.4756,
      "duration": 0.0965,
      "velocity": 119,
      "chip": "ym2612"
    },
    {
      "channel": 5,
      "note": 44,
      "start": 20.4758,
      "duration": 0.4027,
      "velocity": 117,
      "chip": "ym2612"
    },
    {
      "channel": 3,
      "note": 71,
      "start": 20.6733,
      "duration": 0.0993,
      "velocity": 119,
      "chip": "ym2612"
    },
    {
      "channel": 3,
      "note": 69,
      "start": 20.8785,
      "duration": 0.0966,
      "velocity": 119,
      "chip": "ym2612"
    },
    {
      "channel": 5,
      "note": 55,
      "start": 20.8786,
      "duration": 0.2067,
      "velocity": 117,
      "chip": "ym2612"
    },
    {
      "channel": 0,
      "note": 52,
      "start": 21.0851,
      "duration": 1.4076,
      "velocity": 85,
      "chip": "ym2612"
    },
    {
      "channel": 1,
      "note": 84,
      "start": 21.0851,
      "duration": 0.3447,
      "velocity": 99,
      "chip": "ym2612"
    },
    {
      "channel": 3,
      "note": 71,
      "start": 21.0852,
      "duration": 0.0919,
      "velocity": 119,
      "chip": "ym2612"
    },
    {
      "channel": 5,
      "note": 55,
      "start": 21.0853,
      "duration": 0.402,
      "velocity": 117,
      "chip": "ym2612"
    },
    {
      "channel": 4,
      "note": 84,
      "start": 21.3124,
      "duration": 0.3554,
      "velocity": 99,
      "chip": "ym2612"
    },
    {
      "channel": 1,
      "note": 81,
      "start": 21.4872,
      "duration": 0.3491,
      "velocity": 99,
      "chip": "ym2612"
    },
    {
      "channel": 3,
      "note": 71,
      "start": 21.4872,
      "duration": 0.6057,
      "velocity": 119,
      "chip": "ym2612"
    },
    {
      "channel": 5,
      "note": 55,
      "start": 21.4874,
      "duration": 0.4042,
      "velocity": 127,
      "chip": "ym2612"
    },
    {
      "channel": 4,
      "note": 81,
      "start": 21.7189,
      "duration": 0.3534,
      "velocity": 99,
      "chip": "ym2612"
    },
    {
      "channel": 1,
      "note": 88,
      "start": 21.8915,
      "duration": 0.0978,
      "velocity": 99,
      "chip": "ym2612"
    },
    {
      "channel": 5,
      "note": 44,
      "start": 21.8916,
      "duration": 0.2013,
      "velocity": 127,
      "chip": "ym2612"
    },
    {
      "channel": 1,
      "note": 87,
      "start": 21.9893,
      "duration": 0.2499,
      "velocity": 99,
      "chip": "ym2612"
    },
    {
      "channel": 5,
      "note": 44,
      "start": 22.093,
      "duration": 0.3998,
      "velocity": 127,
      "chip": "ym2612"
    },
    {
      "channel": 4,
      "note": 88,
      "start": 22.1231,
      "duration": 0.101,
      "velocity": 99,
      "chip": "ym2612"
    },
    {
      "channel": 4,
      "note": 87,
      "start": 22.2241,
      "duration": 0.2507,
      "velocity": 99,
      "chip": "ym2612"
    },
    {
      "channel": 1,
      "note": 84,
      "start": 22.2904,
      "duration": 0.3531,
      "velocity": 99,
      "chip": "ym2612"
    },
    {
      "channel": 4,
      "note": 84,
      "start": 22.5274,
      "duration": 0.3522,
      "velocity": 99,
      "chip": "ym2612"
    },
    {
      "channel": 0,
      "note": 52,
      "start": 22.7041,
      "duration": 0.6998,
      "velocity": 85,
      "chip": "ym2612"
    },
    {
      "channel": 1,
      "note": 83,
      "start": 22.7041,
      "duration": 0.2102,
      "velocity": 99,
      "chip": "ym2612"
    },
    {
      "channel": 2,
      "note": 47,
      "start": 22.7042,
      "duration": 1.0518,
      "velocity": 89,
      "chip": "ym2612"
    },
    {
      "channel": 5,
      "note": 55,
      "start": 22.7043,
      "duration": 0.3975,
      "velocity": 117,
      "chip": "ym2612"
    },
    {
      "channel": 1,
      "note": 84,
      "start": 22.9143,
      "duration": 1.5664,
      "velocity": 99,
      "chip": "ym2612"
    },
    {
      "channel": 4,
      "note": 83,
      "start": 22.9316,
      "duration": 0.2209,
      "velocity": 99,
      "chip": "ym2612"
    },
    {
      "channel": 3,
      "note": 76,
      "start": 23.1017,
      "duration": 0.2014,
      "velocity": 119,
      "chip": "ym2612"
    },
    {
      "channel": 4,
      "note": 84,
      "start": 23.1525,
      "duration": 1.5703,
      "velocity": 99,
      "chip": "ym2612"
    },
    {
      "channel": 0,
      "note": 64,
      "start": 23.5096,
      "duration": 0.3477,
      "velocity": 85,
      "chip": "ym2612"
    },
    {
      "channel": 3,
      "note": 75,
      "start": 23.5098,
      "duration": 0.0958,
      "velocity": 119,
      "chip": "ym2612"
    },
    {
      "channel": 5,
      "note": 44,
      "start": 23.5098,
      "duration": 0.2005,
      "velocity": 127,
      "chip": "ym2612"
    },
    {
      "channel": 3,
      "note": 76,
      "start": 23.7102,
      "duration": 0.097,
      "velocity": 119,
      "chip": "ym2612"
    },
    {
      "channel": 5,
      "note": 44,
      "start": 23.7103,
      "duration": 0.4071,
      "velocity": 117,
      "chip": "ym2612"
    },
    {
      "channel": 0,
      "note": 62,
      "start": 23.9094,
      "duration": 0.1667,
      "velocity": 85,
      "chip": "ym2612"
    },
    {
      "channel": 2,
      "note": 45,
      "start": 23.9095,
      "duration": 0.1667,
      "velocity": 89,
      "chip": "ym2612"
    },
    {
      "channel": 3,
      "note": 69,
      "start": 23.9096,
      "duration": 0.0992,
      "velocity": 119,
      "chip": "ym2612"
    },
    {
      "channel": 0,
      "note": 64,
      "start": 24.1172,
      "duration": 0.1611,
      "velocity": 85,
      "chip": "ym2612"
    },
    {
      "channel": 2,
      "note": 47,
      "start": 24.1173,
      "duration": 0.1611,
      "velocity": 89,
      "chip": "ym2612"
    },
    {
      "channel": 3,
      "note": 71,
      "start": 24.1174,
      "duration": 0.2021,
      "velocity": 119,
      "chip": "ym2612"
    },
    {
      "channel": 5,
      "note": 55,
      "start": 24.1175,
      "duration": 0.2021,
      "velocity": 117,
      "chip": "ym2612"
    },
    {
      "channel": 5,
      "note": 55,
      "start": 24.3196,
      "duration": 0.4032,
      "velocity": 117,
      "chip": "ym2612"
    },
    {
      "channel": 0,
      "note": 52,
      "start": 24.5162,
      "duration": 0.3538,
      "velocity": 85,
      "chip": "ym2612"
    },
    {
      "channel": 2,
      "note": 47,
      "start": 24.5163,
      "duration": 0.3538,
      "velocity": 89,
      "chip": "ym2612"
    },
    {
      "channel": 3,
      "note": 71,
      "start": 24.5164,
      "duration": 0.4058,
      "velocity": 119,
      "chip": "ym2612"
    },
    {
      "channel": 5,
      "note": 55,
      "start": 24.7229,
      "duration": 0.405,
      "velocity": 127,
      "chip": "ym2612"
    },
    {
      "channel": 0,
      "note": 50,
      "start": 24.9221,
      "duration": 0.1671,
      "velocity": 85,
      "chip": "ym2612"
    },
    {
      "channel": 2,
      "note": 45,
      "start": 24.9222,
      "duration": 0.1671,
      "velocity": 89,
      "chip": "ym2612"
    },
    {
      "channel": 0,
      "note": 52,
      "start": 25.1276,
      "duration": 0.7014,
      "velocity": 85,
      "chip": "ym2612"
    },
    {
      "channel": 1,
      "note": 81,
      "start": 25.1277,
      "duration": 0.3471,
      "velocity": 99,
      "chip": "ym2612"
    },
    {
      "channel": 2,
      "note": 47,
      "start": 25.1278,
      "duration": 0.7013,
      "velocity": 89,
      "chip": "ym2612"
    },
    {
      "channel": 5,
      "note": 44,
      "start": 25.1279,
      "duration": 0.2,
      "velocity": 127,
      "chip": "ym2612"
    },
    {
      "channel": 3,
      "note": 76,
      "start": 25.3279,
      "duration": 0.0964,
      "velocity": 119,
      "chip": "ym2612"
    },
    {
      "channel": 5,
      "note": 44,
      "start": 25.328,
      "duration": 0.406,
      "velocity": 127,
      "chip": "ym2612"
    },
    {
      "channel": 4,
      "note": 81,
      "start": 25.3577,
      "duration": 0.3531,
      "velocity": 99,
      "chip": "ym2612"
    },
    {
      "channel": 1,
      "note": 83,
      "start": 25.5283,
      "duration": 0.0995,
      "velocity": 99,
      "chip": "ym2612"
    },
    {
      "channel": 3,
      "note": 75,
      "start": 25.5283,
      "duration": 0.0996,
      "velocity": 119,
      "chip": "ym2612"
    },
    {
      "channel": 1,
      "note": 82,
      "start": 25.6278,
      "duration": 0.2517,
      "velocity": 99,
      "chip": "ym2612"
    },
    {
      "channel": 3,
      "note": 76,
      "start": 25.7339,
      "duration": 0.0952,
      "velocity": 119,
      "chip": "ym2612"
    },
    {
      "channel": 5,
      "note": 44,
      "start": 25.734,
      "duration": 0.2064,
      "velocity": 117,
      "chip": "ym2612"
    },
    {
      "channel": 4,
      "note": 83,
      "start": 25.7622,
      "duration": 0.1017,
      "velocity": 99,
      "chip": "ym2612"
    },
    {
      "channel": 4,
      "note": 82,
      "start": 25.8639,
      "duration": 0.2533,
      "velocity": 99,
      "chip": "ym2612"
    },
    {
      "channel": 0,
      "note": 53,
      "start": 25.9402,
      "duration": 1.4124,
      "velocity": 85,
      "chip": "ym2612"
    },
    {
      "channel": 1,
      "note": 81,
      "start": 25.9403,
      "duration": 1.4124,
      "velocity": 99,
      "chip": "ym2612"
    },
    {
      "channel": 2,
      "note": 48,
      "start": 25.9404,
      "duration": 1.2198,
      "velocity": 89,
      "chip": "ym2612"
    },
    {
      "channel": 5,
      "note": 55,
      "start": 25.9405,
      "duration": 0.397,
      "velocity": 117,
      "chip": "ym2612"
    },
    {
      "channel": 4,
      "note": 81,
      "start": 26.1683,
      "duration": 1.4152,
      "velocity": 99,
      "chip": "ym2612"
    },
    {
      "channel": 3,
      "note": 72,
      "start": 26.3374,
      "duration": 0.1,
      "velocity": 119,
      "chip": "ym2612"
    },
    {
      "channel": 3,
      "note": 71,
      "start": 26.5395,
      "duration": 0.0995,
      "velocity": 119,
      "chip": "ym2612"
    },
    {
      "channel": 3,
      "note": 72,
      "start": 26.7432,
      "duration": 0.0973,
      "velocity": 119,
      "chip": "ym2612"
    },
    {
      "channel": 5,
      "note": 44,
      "start": 26.7433,
      "duration": 0.2022,
      "velocity": 127,
      "chip": "ym2612"
    },
    {
      "channel": 3,
      "note": 77,
      "start": 26.9454,
      "duration": 0.0968,
      "velocity": 119,
      "chip": "ym2612"
    },
    {
      "channel": 5,
      "note": 44,
      "start": 26.9455,
      "duration": 0.4074,
      "velocity": 117,
      "chip": "ym2612"
    },
    {
      "channel": 2,
      "note": 47,
      "start": 27.3528,
      "duration": 0.1612,
      "velocity": 89,
      "chip": "ym2612"
    },
    {
      "channel": 3,
      "note": 71,
      "start": 27.3528,
      "duration": 0.0939,
      "velocity": 119,
      "chip": "ym2612"
    },
    {
      "channel": 5,
      "note": 55,
      "start": 27.3529,
      "duration": 0.2054,
      "velocity": 117,
      "chip": "ym2612"
    },
    {
      "channel": 0,
      "note": 53,
      "start": 27.558,
      "duration": 1.4069,
      "velocity": 85,
      "chip": "ym2612"
    },
    {
      "channel": 1,
      "note": 80,
      "start": 27.558,
      "duration": 0.3456,
      "velocity": 99,
      "chip": "ym2612"
    },
    {
      "channel": 2,
      "note": 48,
      "start": 27.5581,
      "duration": 0.1602,
      "velocity": 89,
      "chip": "ym2612"
    },
    {
      "channel": 3,
      "note": 72,
      "start": 27.5582,
      "duration": 0.0926,
      "velocity": 119,
      "chip": "ym2612"
    },
    {
      "channel": 5,
      "note": 55,
      "start": 27.5583,
      "duration": 0.4015,
      "velocity": 117,
      "chip": "ym2612"
    },
    {
      "channel": 3,
      "note": 71,
      "start": 27.7529,
      "duration": 0.1001,
      "velocity": 119,
      "chip": "ym2612"
    },
    {
      "channel": 4,
      "note": 80,
      "start": 27.7865,
      "duration": 0.3526,
      "velocity": 99,
      "chip": "ym2612"
    },
    {
      "channel": 1,
      "note": 81,
      "start": 27.9596,
      "duration": 0.3475,
      "velocity": 99,
      "chip": "ym2612"
    },
    {
      "channel": 2,
      "note": 48,
      "start": 27.9596,
      "duration": 1.0544,
      "velocity": 89,
      "chip": "ym2612"
    },
    {
      "channel": 3,
      "note": 72,
      "start": 27.9597,
      "duration": 0.0955,
      "velocity": 119,
      "chip": "ym2612"
    },
    {
      "channel": 5,
      "note": 55,
      "start": 27.9598,
      "duration": 0.402,
      "velocity": 127,
      "chip": "ym2612"
    },
    {
      "channel": 3,
      "note": 77,
      "start": 28.1567,
      "duration": 0.5034,
      "velocity": 119,
      "chip": "ym2612"
    },
    {
      "channel": 4,
      "note": 81,
      "start": 28.1897,
      "duration": 0.3526,
      "velocity": 99,
      "chip": "ym2612"
    },
    {
      "channel": 1,
      "note": 83,
      "start": 28.3617,
      "duration": 0.0975,
      "velocity": 99,
      "chip": "ym2612"
    },
    {
      "channel": 5,
      "note": 44,
      "start": 28.3619,
      "duration": 0.2009,
      "velocity": 127,
      "chip": "ym2612"
    },
    {
      "channel": 1,
      "note": 82,
      "start": 28.4593,
      "duration": 0.2516,
      "velocity": 99,
      "chip": "ym2612"
    },
    {
      "channel": 5,
      "note": 44,
      "start": 28.5628,
      "duration": 0.4022,
      "velocity": 127,
      "chip": "ym2612"
    },
    {
      "channel": 4,
      "note": 83,
      "start": 28.5934,
      "duration": 0.1019,
      "velocity": 99,
      "chip": "ym2612"
    },
    {
      "channel": 4,
      "note": 82,
      "start": 28.6953,
      "duration": 0.2513,
      "velocity": 99,
      "chip": "ym2612"
    },
    {
      "channel": 1,
      "note": 84,
      "start": 28.7623,
      "duration": 0.3549,
      "velocity": 99,
      "chip": "ym2612"
    },
    {
      "channel": 4,
      "note": 84,
      "start": 28.9977,
      "duration": 0.3554,
      "velocity": 99,
      "chip": "ym2612"
    },
    {
      "channel": 0,
      "note": 52,
      "start": 29.1759,
      "duration": 1.2203,
      "velocity": 85,
      "chip": "ym2612"
    },
    {
      "channel": 1,
      "note": 83,
      "start": 29.1759,
      "duration": 0.212,
      "velocity": 99,
      "chip": "ym2612"
    },
    {
      "channel": 2,
      "note": 47,
      "start": 29.176,
      "duration": 1.2202,
      "velocity": 89,
      "chip": "ym2612"
    },
    {
      "channel": 5,
      "note": 55,
      "start": 29.176,
      "duration": 0.3974,
      "velocity": 117,
      "chip": "ym2612"
    },
    {
      "channel": 1,
      "note": 83,
      "start": 29.388,
      "duration": 1.5664,
      "velocity": 99,
      "chip": "ym2612"
    },
    {
      "channel": 4,
      "note": 83,
      "start": 29.4048,
      "duration": 0.219,
      "velocity": 99,
      "chip": "ym2612"
    },
    {
      "channel": 3,
      "note": 71,
      "start": 29.5734,
      "duration": 0.0992,
      "velocity": 119,
      "chip": "ym2612"
    },
    {
      "channel": 4,
      "note": 83,
      "start": 29.6239,
      "duration": 1.5716,
      "velocity": 99,
      "chip": "ym2612"
    },
    {
      "channel": 3,
      "note": 71,
      "start": 29.7736,
      "duration": 0.1002,
      "velocity": 119,
      "chip": "ym2612"
    },
    {
      "channel": 3,
      "note": 72,
      "start": 29.9788,
      "duration": 0.0971,
      "velocity": 119,
      "chip": "ym2612"
    },
    {
      "channel": 5,
      "note": 44,
      "start": 29.979,
      "duration": 0.2045,
      "velocity": 127,
      "chip": "ym2612"
    },
    {
      "channel": 3,
      "note": 77,
      "start": 30.1819,
      "duration": 0.0964,
      "velocity": 119,
      "chip": "ym2612"
    },
    {
      "channel": 5,
      "note": 44,
      "start": 30.1835,
      "duration": 0.4056,
      "velocity": 117,
      "chip": "ym2612"
    },
    {
      "channel": 0,
      "note": 50,
      "start": 30.5889,
      "duration": 0.1631,
      "velocity": 85,
      "chip": "ym2612"
    },
    {
      "channel": 2,
      "note": 45,
      "start": 30.589,
      "duration": 0.1631,
      "velocity": 89,
      "chip": "ym2612"
    },
    {
      "channel": 3,
      "note": 71,
      "start": 30.589,
      "duration": 0.0955,
      "velocity": 119,
      "chip": "ym2612"
    },
    {
      "channel": 5,
      "note": 55,
      "start": 30.5891,
      "duration": 0.2042,
      "velocity": 117,
      "chip": "ym2612"
    },
    {
      "channel": 0,
      "note": 52,
      "start": 30.7932,
      "duration": 0.1612,
      "velocity": 85,
      "chip": "ym2612"
    },
    {
      "channel": 2,
      "note": 47,
      "start": 30.7932,
      "duration": 0.1612,
      "velocity": 89,
      "chip": "ym2612"
    },
    {
      "channel": 3,
      "note": 76,
      "start": 30.7933,
      "duration": 0.0934,
      "velocity": 119,
      "chip": "ym2612"
    },
    {
      "channel": 5,
      "note": 55,
      "start": 30.7934,
      "duration": 0.4021,
      "velocity": 117,
      "chip": "ym2612"
    },
    {
      "channel": 0,
      "note": 52,
      "start": 31.1953,
      "duration": 1.0565,
      "velocity": 85,
      "chip": "ym2612"
    },
    {
      "channel": 2,
      "note": 47,
      "start": 31.1954,
      "duration": 0.1617,
      "velocity": 89,
      "chip": "ym2612"
    },
    {
      "channel": 3,
      "note": 76,
      "start": 31.1954,
      "duration": 0.6057,
      "velocity": 119,
      "chip": "ym2612"
    },
    {
      "channel": 5,
      "note": 55,
      "start": 31.1956,
      "duration": 0.4018,
      "velocity": 127,
      "chip": "ym2612"
    },
    {
      "channel": 2,
      "note": 52,
      "start": 31.3914,
      "duration": 0.1674,
      "velocity": 89,
      "chip": "ym2612"
    },
    {
      "channel": 1,
      "note": 81,
      "start": 31.5973,
      "duration": 0.3493,
      "velocity": 99,
      "chip": "ym2612"
    },
    {
      "channel": 2,
      "note": 51,
      "start": 31.5973,
      "duration": 0.1637,
      "velocity": 89,
      "chip": "ym2612"
    },
    {
      "channel": 5,
      "note": 44,
      "start": 31.5975,
      "duration": 0.2037,
      "velocity": 127,
      "chip": "ym2612"
    },
    {
      "channel": 2,
      "note": 47,
      "start": 31.8011,
      "duration": 0.1623,
      "velocity": 89,
      "chip": "ym2612"
    },
    {
      "channel": 5,
      "note": 44,
      "start": 31.8013,
      "duration": 0.4044,
      "velocity": 127,
      "chip": "ym2612"
    },
    {
      "channel": 4,
      "note": 81,
      "start": 31.829,
      "duration": 0.3554,
      "velocity": 99,
      "chip": "ym2612"
    },
    {
      "channel": 1,
      "note": 83,
      "start": 32.0007,
      "duration": 0.1008,
      "velocity": 99,
      "chip": "ym2612"
    },
    {
      "channel": 2,
      "note": 45,
      "start": 32.0007,
      "duration": 0.1669,
      "velocity": 89,
      "chip": "ym2612"
    },
    {
      "channel": 1,
      "note": 82,
      "start": 32.1015,
      "duration": 0.2515,
      "velocity": 99,
      "chip": "ym2612"
    },
    {
      "channel": 2,
      "note": 47,
      "start": 32.2057,
      "duration": 0.1642,
      "velocity": 89,
      "chip": "ym2612"
    },
    {
      "channel": 5,
      "note": 44,
      "start": 32.2058,
      "duration": 0.2059,
      "velocity": 117,
      "chip": "ym2612"
    },
    {
      "channel": 4,
      "note": 83,
      "start": 32.2358,
      "duration": 0.1016,
      "velocity": 99,
      "chip": "ym2612"
    },
    {
      "channel": 4,
      "note": 82,
      "start": 32.3374,
      "duration": 0.2515,
      "velocity": 99,
      "chip": "ym2612"
    },
    {
      "channel": 0,
      "note": 53,
      "start": 32.4115,
      "duration": 1.4127,
      "velocity": 85,
      "chip": "ym2612"
    },
    {
      "channel": 1,
      "note": 81,
      "start": 32.4116,
      "duration": 1.4127,
      "velocity": 99,
      "chip": "ym2612"
    },
    {
      "channel": 2,
      "note": 48,
      "start": 32.4117,
      "duration": 1.222,
      "velocity": 89,
      "chip": "ym2612"
    },
    {
      "channel": 5,
      "note": 55,
      "start": 32.4118,
      "duration": 0.3966,
      "velocity": 117,
      "chip": "ym2612"
    },
    {
      "channel": 4,
      "note": 81,
      "start": 32.6395,
      "duration": 1.4158,
      "velocity": 99,
      "chip": "ym2612"
    },
    {
      "channel": 3,
      "note": 72,
      "start": 32.8083,
      "duration": 0.0988,
      "velocity": 119,
      "chip": "ym2612"
    },
    {
      "channel": 3,
      "note": 71,
      "start": 33.0093,
      "duration": 0.1,
      "velocity": 119,
      "chip": "ym2612"
    },
    {
      "channel": 3,
      "note": 72,
      "start": 33.215,
      "duration": 0.0966,
      "velocity": 119,
      "chip": "ym2612"
    },
    {
      "channel": 5,
      "note": 44,
      "start": 33.2151,
      "duration": 0.2039,
      "velocity": 127,
      "chip": "ym2612"
    },
    {
      "channel": 3,
      "note": 77,
      "start": 33.419,
      "duration": 0.0948,
      "velocity": 119,
      "chip": "ym2612"
    },
    {
      "channel": 5,
      "note": 44,
      "start": 33.419,
      "duration": 0.4055,
      "velocity": 117,
      "chip": "ym2612"
    },
    {
      "channel": 2,
      "note": 47,
      "start": 33.8244,
      "duration": 0.1632,
      "velocity": 89,
      "chip": "ym2612"
    },
    {
      "channel": 3,
      "note": 71,
      "start": 33.8244,
      "duration": 0.0959,
      "velocity": 119,
      "chip": "ym2612"
    },
    {
      "channel": 5,
      "note": 55,
      "start": 33.8246,
      "duration": 0.2055,
      "velocity": 117,
      "chip": "ym2612"
    },
    {
      "channel": 0,
      "note": 53,
      "start": 34.0298,
      "duration": 1.4113,
      "velocity": 85,
      "chip": "ym2612"
    },
    {
      "channel": 1,
      "note": 80,
      "start": 34.0299,
      "duration": 0.3439,
      "velocity": 99,
      "chip": "ym2612"
    },
    {
      "channel": 2,
      "note": 48,
      "start": 34.0299,
      "duration": 0.1592,
      "velocity": 89,
      "chip": "ym2612"
    },
    {
      "channel": 3,
      "note": 72,
      "start": 34.03,
      "duration": 0.0922,
      "velocity": 119,
      "chip": "ym2612"
    },
    {
      "channel": 5,
      "note": 55,
      "start": 34.0301,
      "duration": 0.3994,
      "velocity": 117,
      "chip": "ym2612"
    },
    {
      "channel": 3,
      "note": 71,
      "start": 34.2235,
      "duration": 0.1001,
      "velocity": 119,
      "chip": "ym2612"
    },
    {
      "channel": 4,
      "note": 80,
      "start": 34.2569,
      "duration": 0.3524,
      "velocity": 99,
      "chip": "ym2612"
    },
    {
      "channel": 1,
      "note": 81,
      "start": 34.4293,
      "duration": 0.3487,
      "velocity": 99,
      "chip": "ym2612"
    },
    {
      "channel": 2,
      "note": 48,
      "start": 34.4294,
      "duration": 1.0583,
      "velocity": 89,
      "chip": "ym2612"
    },
    {
      "channel": 3,
      "note": 72,
      "start": 34.4295,
      "duration": 0.0972,
      "velocity": 119,
      "chip": "ym2612"
    },
    {
      "channel": 5,
      "note": 55,
      "start": 34.4296,
      "duration": 0.4054,
      "velocity": 127,
      "chip": "ym2612"
    },
    {
      "channel": 3,
      "note": 77,
      "start": 34.627,
      "duration": 0.5069,
      "velocity": 119,
      "chip": "ym2612"
    },
    {
      "channel": 4,
      "note": 81,
      "start": 34.6604,
      "duration": 0.3535,
      "velocity": 99,
      "chip": "ym2612"
    },
    {
      "channel": 1,
      "note": 83,
      "start": 34.8349,
      "duration": 0.096,
      "velocity": 99,
      "chip": "ym2612"
    },
    {
      "channel": 5,
      "note": 44,
      "start": 34.835,
      "duration": 0.2016,
      "velocity": 127,
      "chip": "ym2612"
    },
    {
      "channel": 1,
      "note": 82,
      "start": 34.9309,
      "duration": 0.2536,
      "velocity": 99,
      "chip": "ym2612"
    },
    {
      "channel": 5,
      "note": 44,
      "start": 35.0367,
      "duration": 0.4046,
      "velocity": 127,
      "chip": "ym2612"
    },
    {
      "channel": 4,
      "note": 83,
      "start": 35.0671,
      "duration": 0.1018,
      "velocity": 99,
      "chip": "ym2612"
    },
    {
      "channel": 4,
      "note": 82,
      "start": 35.1689,
      "duration": 0.2513,
      "velocity": 99,
      "chip": "ym2612"
    },
    {
      "channel": 1,
      "note": 84,
      "start": 35.2358,
      "duration": 0.353,
      "velocity": 99,
      "chip": "ym2612"
    },
    {
      "channel": 5,
      "note": 44,
      "start": 35.4413,
      "duration": 0.2083,
      "velocity": 117,
      "chip": "ym2612"
    },
    {
      "channel": 4,
      "note": 84,
      "start": 35.4713,
      "duration": 0.3515,
      "velocity": 99,
      "chip": "ym2612"
    },
    {
      "channel": 0,
      "note": 56,
      "start": 35.6479,
      "duration": 1.0534,
      "velocity": 85,
      "chip": "ym2612"
    },
    {
      "channel": 1,
      "note": 87,
      "start": 35.648,
      "duration": 0.2103,
      "velocity": 99,
      "chip": "ym2612"
    },
    {
      "channel": 2,
      "note": 51,
      "start": 35.648,
      "duration": 1.0534,
      "velocity": 89,
      "chip": "ym2612"
    },
    {
      "channel": 3,
      "note": 68,
      "start": 35.6481,
      "duration": 0.0912,
      "velocity": 119,
      "chip": "ym2612"
    },
    {
      "channel": 5,
      "note": 55,
      "start": 35.6497,
      "duration": 0.3968,
      "velocity": 125,
      "chip": "ym2612"
    },
    {
      "channel": 3,
      "note": 69,
      "start": 35.8411,
      "duration": 0.0999,
      "velocity": 119,
      "chip": "ym2612"
    },
    {
      "channel": 1,
      "note": 87,
      "start": 35.8583,
      "duration": 1.5657,
      "velocity": 99,
      "chip": "ym2612"
    },
    {
      "channel": 4,
      "note": 87,
      "start": 35.8746,
      "duration": 0.2195,
      "velocity": 99,
      "chip": "ym2612"
    },
    {
      "channel": 3,
      "note": 68,
      "start": 36.0464,
      "duration": 0.0967,
      "velocity": 119,
      "chip": "ym2612"
    },
    {
      "channel": 5,
      "note": 57,
      "start": 36.0465,
      "duration": 0.2044,
      "velocity": 125,
      "chip": "ym2612"
    },
    {
      "channel": 4,
      "note": 87,
      "start": 36.0941,
      "duration": 1.5672,
      "velocity": 99,
      "chip": "ym2612"
    },
    {
      "channel": 3,
      "note": 69,
      "start": 36.2508,
      "duration": 0.0946,
      "velocity": 119,
      "chip": "ym2612"
    },
    {
      "channel": 5,
      "note": 57,
      "start": 36.2509,
      "duration": 0.2018,
      "velocity": 127,
      "chip": "ym2612"
    },
    {
      "channel": 3,
      "note": 71,
      "start": 36.4526,
      "duration": 0.0952,
      "velocity": 119,
      "chip": "ym2612"
    },
    {
      "channel": 5,
      "note": 44,
      "start": 36.4528,
      "duration": 0.2025,
      "velocity": 125,
      "chip": "ym2612"
    },
    {
      "channel": 3,
      "note": 72,
      "start": 36.6552,
      "duration": 0.0964,
      "velocity": 119,
      "chip": "ym2612"
    },
    {
      "channel": 5,
      "note": 49,
      "start": 36.6553,
      "duration": 0.2033,
      "velocity": 125,
      "chip": "ym2612"
    },
    {
      "channel": 0,
      "note": 57,
      "start": 36.8584,
      "duration": 0.3475,
      "velocity": 85,
      "chip": "ym2612"
    },
    {
      "channel": 2,
      "note": 52,
      "start": 36.8585,
      "duration": 0.3475,
      "velocity": 89,
      "chip": "ym2612"
    },
    {
      "channel": 3,
      "note": 71,
      "start": 36.8585,
      "duration": 0.0954,
      "velocity": 119,
      "chip": "ym2612"
    },
    {
      "channel": 5,
      "note": 38,
      "start": 36.8587,
      "duration": 0.2011,
      "velocity": 117,
      "chip": "ym2612"
    },
    {
      "channel": 3,
      "note": 72,
      "start": 37.0597,
      "duration": 0.0961,
      "velocity": 119,
      "chip": "ym2612"
    },
    {
      "channel": 5,
      "note": 55,
      "start": 37.0598,
      "duration": 0.2046,
      "velocity": 127,
      "chip": "ym2612"
    },
    {
      "channel": 0,
      "note": 59,
      "start": 37.2642,
      "duration": 0.699,
      "velocity": 85,
      "chip": "ym2612"
    },
    {
      "channel": 2,
      "note": 54,
      "start": 37.2643,
      "duration": 0.699,
      "velocity": 89,
      "chip": "ym2612"
    },
    {
      "channel": 3,
      "note": 75,
      "start": 37.2643,
      "duration": 0.1974,
      "velocity": 119,
      "chip": "ym2612"
    },
    {
      "channel": 5,
      "note": 44,
      "start": 37.2645,
      "duration": 0.1973,
      "velocity": 117,
      "chip": "ym2612"
    },
    {
      "channel": 5,
      "note": 55,
      "start": 37.4619,
      "duration": 0.4062,
      "velocity": 117,
      "chip": "ym2612"
    },
    {
      "channel": 3,
      "note": 75,
      "start": 37.6613,
      "duration": 0.6118,
      "velocity": 119,
      "chip": "ym2612"
    },
    {
      "channel": 5,
      "note": 55,
      "start": 37.8681,
      "duration": 0.204,
      "velocity": 127,
      "chip": "ym2612"
    },
    {
      "channel": 0,
      "note": 51,
      "start": 38.072,
      "duration": 0.1627,
      "velocity": 85,
      "chip": "ym2612"
    },
    {
      "channel": 1,
      "note": 88,
      "start": 38.072,
      "duration": 0.3482,
      "velocity": 99,
      "chip": "ym2612"
    },
    {
      "channel": 2,
      "note": 59,
      "start": 38.0721,
      "duration": 0.7005,
      "velocity": 89,
      "chip": "ym2612"
    },
    {
      "channel": 5,
      "note": 44,
      "start": 38.0722,
      "duration": 0.201,
      "velocity": 125,
      "chip": "ym2612"
    },
    {
      "channel": 0,
      "note": 63,
      "start": 38.273,
      "duration": 0.1639,
      "velocity": 85,
      "chip": "ym2612"
    },
    {
      "channel": 5,
      "note": 57,
      "start": 38.2732,
      "duration": 0.2028,
      "velocity": 125,
      "chip": "ym2612"
    },
    {
      "channel": 4,
      "note": 88,
      "start": 38.303,
      "duration": 0.3527,
      "velocity": 99,
      "chip": "ym2612"
    },
    {
      "channel": 0,
      "note": 51,
      "start": 38.4759,
      "duration": 0.3494,
      "velocity": 85,
      "chip": "ym2612"
    },
    {
      "channel": 1,
      "note": 87,
      "start": 38.476,
      "duration": 0.1141,
      "velocity": 99,
      "chip": "ym2612"
    },
    {
      "channel": 5,
      "note": 38,
      "start": 38.4761,
      "duration": 0.4084,
      "velocity": 117,
      "chip": "ym2612"
    },
    {
      "channel": 1,
      "note": 88,
      "start": 38.5902,
      "duration": 0.2352,
      "velocity": 99,
      "chip": "ym2612"
    },
    {
      "channel": 4,
      "note": 87,
      "start": 38.7064,
      "duration": 0.119,
      "velocity": 99,
      "chip": "ym2612"
    },
    {
      "channel": 4,
      "note": 88,
      "start": 38.8255,
      "duration": 0.2334,
      "velocity": 99,
      "chip": "ym2612"
    },
    {
      "channel": 0,
      "note": 52,
      "start": 38.8843,
      "duration": 1.4096,
      "velocity": 85,
      "chip": "ym2612"
    },
    {
      "channel": 1,
      "note": 83,
      "start": 38.8844,
      "duration": 1.4095,
      "velocity": 99,
      "chip": "ym2612"
    },
    {
      "channel": 2,
      "note": 47,
      "start": 38.8844,
      "duration": 2.8228,
      "velocity": 89,
      "chip": "ym2612"
    },
    {
      "channel": 5,
      "note": 55,
      "start": 38.8846,
      "duration": 0.395,
      "velocity": 117,
      "chip": "ym2612"
    },
    {
      "channel": 4,
      "note": 83,
      "start": 39.1098,
      "duration": 1.4166,
      "velocity": 99,
      "chip": "ym2612"
    },
    {
      "channel": 3,
      "note": 69,
      "start": 39.2795,
      "duration": 0.0995,
      "velocity": 119,
      "chip": "ym2612"
    },
    {
      "channel": 3,
      "note": 71,
      "start": 39.4808,
      "duration": 0.1002,
      "velocity": 119,
      "chip": "ym2612"
    },
    {
      "channel": 3,
      "note": 75,
      "start": 39.6891,
      "duration": 0.0962,
      "velocity": 119,
      "chip": "ym2612"
    },
    {
      "channel": 5,
      "note": 44,
      "start": 39.6892,
      "duration": 0.2014,
      "velocity": 127,
      "chip": "ym2612"
    },
    {
      "channel": 3,
      "note": 71,
      "start": 39.8905,
      "duration": 0.0969,
      "velocity": 119,
      "chip": "ym2612"
    },
    {
      "channel": 5,
      "note": 44,
      "start": 39.8907,
      "duration": 0.4034,
      "velocity": 117,
      "chip": "ym2612"
    },
    {
      "channel": 3,
      "note": 71,
      "start": 40.0899,
      "duration": 0.0992,
      "velocity": 119,
      "chip": "ym2612"
    },
    {
      "channel": 3,
      "note": 69,
      "start": 40.294,
      "duration": 0.0963,
      "velocity": 119,
      "chip": "ym2612"
    },
    {
      "channel": 5,
      "note": 55,
      "start": 40.2942,
      "duration": 0.2075,
      "velocity": 117,
      "chip": "ym2612"
    },
    {
      "channel": 0,
      "note": 52,
      "start": 40.5015,
      "duration": 1.4066,
      "velocity": 85,
      "chip": "ym2612"
    },
    {
      "channel": 1,
      "note": 84,
      "start": 40.5015,
      "duration": 0.3437,
      "velocity": 99,
      "chip": "ym2612"
    },
    {
      "channel": 3,
      "note": 71,
      "start": 40.5016,
      "duration": 0.0908,
      "velocity": 119,
      "chip": "ym2612"
    },
    {
      "channel": 5,
      "note": 55,
      "start": 40.5017,
      "duration": 0.4013,
      "velocity": 117,
      "chip": "ym2612"
    },
    {
      "channel": 4,
      "note": 84,
      "start": 40.7277,
      "duration": 0.3534,
      "velocity": 99,
      "chip": "ym2612"
    },
    {
      "channel": 1,
      "note": 81,
      "start": 40.9029,
      "duration": 0.3487,
      "velocity": 99,
      "chip": "ym2612"
    },
    {
      "channel": 3,
      "note": 71,
      "start": 40.903,
      "duration": 0.6053,
      "velocity": 119,
      "chip": "ym2612"
    },
    {
      "channel": 5,
      "note": 55,
      "start": 40.9031,
      "duration": 0.4045,
      "velocity": 127,
      "chip": "ym2612"
    },
    {
      "channel": 4,
      "note": 81,
      "start": 41.1341,
      "duration": 0.3535,
      "velocity": 99,
      "chip": "ym2612"
    },
    {
      "channel": 1,
      "note": 88,
      "start": 41.3075,
      "duration": 0.0971,
      "velocity": 99,
      "chip": "ym2612"
    },
    {
      "channel": 5,
      "note": 44,
      "start": 41.3076,
      "duration": 0.2007,
      "velocity": 127,
      "chip": "ym2612"
    },
    {
      "channel": 1,
      "note": 87,
      "start": 41.4046,
      "duration": 0.2512,
      "velocity": 99,
      "chip": "ym2612"
    },
    {
      "channel": 5,
      "note": 44,
      "start": 41.5084,
      "duration": 0.3998,
      "velocity": 127,
      "chip": "ym2612"
    },
    {
      "channel": 4,
      "note": 88,
      "start": 41.539,
      "duration": 0.1015,
      "velocity": 99,
      "chip": "ym2612"
    },
    {
      "channel": 4,
      "note": 87,
      "start": 41.6405,
      "duration": 0.2501,
      "velocity": 99,
      "chip": "ym2612"
    },
    {
      "channel": 1,
      "note": 84,
      "start": 41.7072,
      "duration": 0.3513,
      "velocity": 99,
      "chip": "ym2612"
    },
    {
      "channel": 4,
      "note": 84,
      "start": 41.9413,
      "duration": 0.3533,
      "velocity": 99,
      "chip": "ym2612"
    },
    {
      "channel": 0,
      "note": 52,
      "start": 42.1207,
      "duration": 0.6984,
      "velocity": 85,
      "chip": "ym2612"
    },
    {
      "channel": 1,
      "note": 83,
      "start": 42.1207,
      "duration": 0.2089,
      "velocity": 99,
      "chip": "ym2612"
    },
    {
      "channel": 2,
      "note": 47,
      "start": 42.1208,
      "duration": 1.0519,
      "velocity": 89,
      "chip": "ym2612"
    },
    {
      "channel": 5,
      "note": 55,
      "start": 42.1209,
      "duration": 0.3946,
      "velocity": 117,
      "chip": "ym2612"
    },
    {
      "channel": 1,
      "note": 84,
      "start": 42.3297,
      "duration": 1.566,
      "velocity": 99,
      "chip": "ym2612"
    },
    {
      "channel": 4,
      "note": 83,
      "start": 42.3464,
      "duration": 0.2212,
      "velocity": 99,
      "chip": "ym2612"
    },
    {
      "channel": 3,
      "note": 76,
      "start": 42.5155,
      "duration": 0.2028,
      "velocity": 119,
      "chip": "ym2612"
    },
    {
      "channel": 4,
      "note": 84,
      "start": 42.5676,
      "duration": 1.5707,
      "velocity": 99,
      "chip": "ym2612"
    },
    {
      "channel": 0,
      "note": 64,
      "start": 42.9256,
      "duration": 0.347,
      "velocity": 85,
      "chip": "ym2612"
    },
    {
      "channel": 3,
      "note": 75,
      "start": 42.9258,
      "duration": 0.0954,
      "velocity": 119,
      "chip": "ym2612"
    },
    {
      "channel": 5,
      "note": 44,
      "start": 42.9259,
      "duration": 0.2008,
      "velocity": 127,
      "chip": "ym2612"
    },
    {
      "channel": 3,
      "note": 76,
      "start": 43.1266,
      "duration": 0.0961,
      "velocity": 119,
      "chip": "ym2612"
    },
    {
      "channel": 5,
      "note": 44,
      "start": 43.1267,
      "duration": 0.4073,
      "velocity": 117,
      "chip": "ym2612"
    },
    {
      "channel": 0,
      "note": 62,
      "start": 43.3251,
      "duration": 0.1662,
      "velocity": 85,
      "chip": "ym2612"
    },
    {
      "channel": 2,
      "note": 45,
      "start": 43.3251,
      "duration": 0.1662,
      "velocity": 89,
      "chip": "ym2612"
    },
    {
      "channel": 3,
      "note": 69,
      "start": 43.3253,
      "duration": 0.0987,
      "velocity": 119,
      "chip": "ym2612"
    },
    {
      "channel": 0,
      "note": 64,
      "start": 43.5338,
      "duration": 0.1598,
      "velocity": 85,
      "chip": "ym2612"
    },
    {
      "channel": 2,
      "note": 47,
      "start": 43.5339,
      "duration": 0.1598,
      "velocity": 89,
      "chip": "ym2612"
    },
    {
      "channel": 3,
      "note": 71,
      "start": 43.5339,
      "duration": 0.2022,
      "velocity": 119,
      "chip": "ym2612"
    },
    {
      "channel": 5,
      "note": 55,
      "start": 43.5341,
      "duration": 0.2021,
      "velocity": 117,
      "chip": "ym2612"
    },
    {
      "channel": 5,
      "note": 55,
      "start": 43.7362,
      "duration": 0.4021,
      "velocity": 117,
      "chip": "ym2612"
    },
    {
      "channel": 0,
      "note": 52,
      "start": 43.9318,
      "duration": 0.3536,
      "velocity": 85,
      "chip": "ym2612"
    },
    {
      "channel": 2,
      "note": 47,
      "start": 43.9334,
      "duration": 0.352,
      "velocity": 89,
      "chip": "ym2612"
    },
    {
      "channel": 3,
      "note": 71,
      "start": 43.9334,
      "duration": 0.4039,
      "velocity": 119,
      "chip": "ym2612"
    },
    {
      "channel": 5,
      "note": 55,
      "start": 44.1384,
      "duration": 0.4062,
      "velocity": 127,
      "chip": "ym2612"
    },
    {
      "channel": 0,
      "note": 50,
      "start": 44.3372,
      "duration": 0.167,
      "velocity": 85,
      "chip": "ym2612"
    },
    {
      "channel": 2,
      "note": 45,
      "start": 44.3373,
      "duration": 0.167,
      "velocity": 89,
      "chip": "ym2612"
    },
    {
      "channel": 0,
      "note": 52,
      "start": 44.5444,
      "duration": 0.6997,
      "velocity": 85,
      "chip": "ym2612"
    },
    {
      "channel": 1,
      "note": 88,
      "start": 44.5444,
      "duration": 0.3463,
      "velocity": 99,
      "chip": "ym2612"
    },
    {
      "channel": 2,
      "note": 47,
      "start": 44.5445,
      "duration": 0.6996,
      "velocity": 89,
      "chip": "ym2612"
    },
    {
      "channel": 5,
      "note": 44,
      "start": 44.5446,
      "duration": 0.1988,
      "velocity": 127,
      "chip": "ym2612"
    },
    {
      "channel": 3,
      "note": 76,
      "start": 44.7433,
      "duration": 0.096,
      "velocity": 119,
      "chip": "ym2612"
    },
    {
      "channel": 5,
      "note": 44,
      "start": 44.7435,
      "duration": 0.4008,
      "velocity": 127,
      "chip": "ym2612"
    },
    {
      "channel": 4,
      "note": 88,
      "start": 44.7732,
      "duration": 0.3527,
      "velocity": 99,
      "chip": "ym2612"
    },
    {
      "channel": 1,
      "note": 87,
      "start": 44.9426,
      "duration": 0.1172,
      "velocity": 99,
      "chip": "ym2612"
    },
    {
      "channel": 3,
      "note": 75,
      "start": 44.9426,
      "duration": 0.0992,
      "velocity": 119,
      "chip": "ym2612"
    },
    {
      "channel": 1,
      "note": 88,
      "start": 45.0599,
      "duration": 0.2361,
      "velocity": 99,
      "chip": "ym2612"
    },
    {
      "channel": 3,
      "note": 76,
      "start": 45.1442,
      "duration": 0.1,
      "velocity": 119,
      "chip": "ym2612"
    },
    {
      "channel": 4,
      "note": 87,
      "start": 45.1773,
      "duration": 0.1187,
      "velocity": 99,
      "chip": "ym2612"
    },
    {
      "channel": 4,
      "note": 88,
      "start": 45.2961,
      "duration": 0.2343,
      "velocity": 99,
      "chip": "ym2612"
    },
    {
      "channel": 0,
      "note": 52,
      "start": 45.3557,
      "duration": 1.4116,
      "velocity": 85,
      "chip": "ym2612"
    },
    {
      "channel": 1,
      "note": 83,
      "start": 45.3557,
      "duration": 1.4116,
      "velocity": 99,
      "chip": "ym2612"
    },
    {
      "channel": 2,
      "note": 47,
      "start": 45.3558,
      "duration": 2.8221,
      "velocity": 89,
      "chip": "ym2612"
    },
    {
      "channel": 5,
      "note": 55,
      "start": 45.3559,
      "duration": 0.3973,
      "velocity": 117,
      "chip": "ym2612"
    },
    {
      "channel": 4,
      "note": 83,
      "start": 45.5835,
      "duration": 1.4132,
      "velocity": 99,
      "chip": "ym2612"
    },
    {
      "channel": 3,
      "note": 69,
      "start": 45.7531,
      "duration": 0.0995,
      "velocity": 119,
      "chip": "ym2612"
    },
    {
      "channel": 3,
      "note": 71,
      "start": 45.9544,
      "duration": 0.1003,
      "velocity": 119,
      "chip": "ym2612"
    },
    {
      "channel": 3,
      "note": 75,
      "start": 46.1606,
      "duration": 0.0952,
      "velocity": 119,
      "chip": "ym2612"
    },
    {
      "channel": 5,
      "note": 44,
      "start": 46.1607,
      "duration": 0.2006,
      "velocity": 127,
      "chip": "ym2612"
    },
    {
      "channel": 3,
      "note": 71,
      "start": 46.3613,
      "duration": 0.0961,
      "velocity": 119,
      "chip": "ym2612"
    },
    {
      "channel": 5,
      "note": 44,
      "start": 46.3613,
      "duration": 0.4061,
      "velocity": 117,
      "chip": "ym2612"
    },
    {
      "channel": 3,
      "note": 71,
      "start": 46.5597,
      "duration": 0.0998,
      "velocity": 119,
      "chip": "ym2612"
    },
    {
      "channel": 3,
      "note": 69,
      "start": 46.7674,
      "duration": 0.0944,
      "velocity": 119,
      "chip": "ym2612"
    },
    {
      "channel": 5,
      "note": 55,
      "start": 46.7675,
      "duration": 0.2059,
      "velocity": 117,
      "chip": "ym2612"
    },
    {
      "channel": 0,
      "note": 52,
      "start": 46.9732,
      "duration": 1.4064,
      "velocity": 85,
      "chip": "ym2612"
    },
    {
      "channel": 1,
      "note": 84,
      "start": 46.9733,
      "duration": 0.3455,
      "velocity": 99,
      "chip": "ym2612"
    },
    {
      "channel": 3,
      "note": 71,
      "start": 46.9734,
      "duration": 0.0905,
      "velocity": 119,
      "chip": "ym2612"
    },
    {
      "channel": 5,
      "note": 55,
      "start": 46.9735,
      "duration": 0.4011,
      "velocity": 117,
      "chip": "ym2612"
    },
    {
      "channel": 4,
      "note": 84,
      "start": 47.2013,
      "duration": 0.3535,
      "velocity": 99,
      "chip": "ym2612"
    },
    {
      "channel": 1,
      "note": 81,
      "start": 47.3744,
      "duration": 0.348,
      "velocity": 99,
      "chip": "ym2612"
    },
    {
      "channel": 3,
      "note": 71,
      "start": 47.3745,
      "duration": 0.6035,
      "velocity": 119,
      "chip": "ym2612"
    },
    {
      "channel": 5,
      "note": 55,
      "start": 47.3746,
      "duration": 0.4034,
      "velocity": 127,
      "chip": "ym2612"
    },
    {
      "channel": 4,
      "note": 81,
      "start": 47.6059,
      "duration": 0.3515,
      "velocity": 99,
      "chip": "ym2612"
    },
    {
      "channel": 1,
      "note": 88,
      "start": 47.7779,
      "duration": 0.0968,
      "velocity": 99,
      "chip": "ym2612"
    },
    {
      "channel": 5,
      "note": 44,
      "start": 47.7781,
      "duration": 0.2,
      "velocity": 127,
      "chip": "ym2612"
    },
    {
      "channel": 1,
      "note": 87,
      "start": 47.8748,
      "duration": 0.2513,
      "velocity": 99,
      "chip": "ym2612"
    },
    {
      "channel": 5,
      "note": 44,
      "start": 47.9781,
      "duration": 0.4016,
      "velocity": 127,
      "chip": "ym2612"
    },
    {
      "channel": 4,
      "note": 88,
      "start": 48.0087,
      "duration": 0.1017,
      "velocity": 99,
      "chip": "ym2612"
    },
    {
      "channel": 4,
      "note": 87,
      "start": 48.1105,
      "duration": 0.2514,
      "velocity": 99,
      "chip": "ym2612"
    },
    {
      "channel": 1,
      "note": 84,
      "start": 48.1779,
      "duration": 0.3525,
      "velocity": 99,
      "chip": "ym2612"
    },
    {
      "channel": 4,
      "note": 84,
      "start": 48.413,
      "duration": 0.3552,
      "velocity": 99,
      "chip": "ym2612"
    },
    {
      "channel": 0,
      "note": 52,
      "start": 48.5924,
      "duration": 0.697,
      "velocity": 85,
      "chip": "ym2612"
    },
    {
      "channel": 1,
      "note": 83,
      "start": 48.5924,
      "duration": 0.2108,
      "velocity": 99,
      "chip": "ym2612"
    },
    {
      "channel": 2,
      "note": 47,
      "start": 48.5925,
      "duration": 1.0505,
      "velocity": 89,
      "chip": "ym2612"
    },
    {
      "channel": 5,
      "note": 55,
      "start": 48.5926,
      "duration": 0.3965,
      "velocity": 117,
      "chip": "ym2612"
    },
    {
      "channel": 1,
      "note": 84,
      "start": 48.8033,
      "duration": 1.566,
      "velocity": 99,
      "chip": "ym2612"
    },
    {
      "channel": 4,
      "note": 83,
      "start": 48.8201,
      "duration": 0.2191,
      "velocity": 99,
      "chip": "ym2612"
    },
    {
      "channel": 3,
      "note": 76,
      "start": 48.989,
      "duration": 0.2006,
      "velocity": 119,
      "chip": "ym2612"
    },
    {
      "channel": 4,
      "note": 84,
      "start": 49.0393,
      "duration": 1.5708,
      "velocity": 99,
      "chip": "ym2612"
    },
    {
      "channel": 0,
      "note": 64,
      "start": 49.396,
      "duration": 0.348,
      "velocity": 85,
      "chip": "ym2612"
    },
    {
      "channel": 3,
      "note": 75,
      "start": 49.3961,
      "duration": 0.095,
      "velocity": 119,
      "chip": "ym2612"
    },
    {
      "channel": 5,
      "note": 44,
      "start": 49.3961,
      "duration": 0.2005,
      "velocity": 127,
      "chip": "ym2612"
    },
    {
      "channel": 3,
      "note": 76,
      "start": 49.5966,
      "duration": 0.0967,
      "velocity": 119,
      "chip": "ym2612"
    },
    {
      "channel": 5,
      "note": 44,
      "start": 49.5966,
      "duration": 0.4078,
      "velocity": 117,
      "chip": "ym2612"
    },
    {
      "channel": 0,
      "note": 62,
      "start": 49.7968,
      "duration": 0.1663,
      "velocity": 85,
      "chip": "ym2612"
    },
    {
      "channel": 2,
      "note": 45,
      "start": 49.7968,
      "duration": 0.1663,
      "velocity": 89,
      "chip": "ym2612"
    },
    {
      "channel": 3,
      "note": 69,
      "start": 49.7969,
      "duration": 0.0987,
      "velocity": 119,
      "chip": "ym2612"
    },
    {
      "channel": 0,
      "note": 64,
      "start": 50.0042,
      "duration": 0.163,
      "velocity": 85,
      "chip": "ym2612"
    },
    {
      "channel": 2,
      "note": 47,
      "start": 50.0043,
      "duration": 0.163,
      "velocity": 89,
      "chip": "ym2612"
    },
    {
      "channel": 3,
      "note": 71,
      "start": 50.0044,
      "duration": 0.2034,
      "velocity": 119,
      "chip": "ym2612"
    },
    {
      "channel": 5,
      "note": 55,
      "start": 50.0045,
      "duration": 0.2034,
      "velocity": 117,
      "chip": "ym2612"
    },
    {
      "channel": 5,
      "note": 55,
      "start": 50.2079,
      "duration": 0.4022,
      "velocity": 117,
      "chip": "ym2612"
    },
    {
      "channel": 0,
      "note": 52,
      "start": 50.4049,
      "duration": 0.351,
      "velocity": 85,
      "chip": "ym2612"
    },
    {
      "channel": 2,
      "note": 47,
      "start": 50.405,
      "duration": 0.351,
      "velocity": 89,
      "chip": "ym2612"
    },
    {
      "channel": 3,
      "note": 71,
      "start": 50.4051,
      "duration": 0.4024,
      "velocity": 119,
      "chip": "ym2612"
    },
    {
      "channel": 5,
      "note": 55,
      "start": 50.6101,
      "duration": 0.4041,
      "velocity": 127,
      "chip": "ym2612"
    },
    {
      "channel": 0,
      "note": 50,
      "start": 50.8073,
      "duration": 0.1667,
      "velocity": 85,
      "chip": "ym2612"
    },
    {
      "channel": 2,
      "note": 45,
      "start": 50.8074,
      "duration": 0.1667,
      "velocity": 89,
      "chip": "ym2612"
    },
    {
      "channel": 0,
      "note": 52,
      "start": 51.0141,
      "duration": 0.7036,
      "velocity": 85,
      "chip": "ym2612"
    },
    {
      "channel": 1,
      "note": 81,
      "start": 51.0141,
      "duration": 0.3476,
      "velocity": 99,
      "chip": "ym2612"
    },
    {
      "channel": 2,
      "note": 47,
      "start": 51.0142,
      "duration": 0.7036,
      "velocity": 89,
      "chip": "ym2612"
    },
    {
      "channel": 5,
      "note": 44,
      "start": 51.0143,
      "duration": 0.1999,
      "velocity": 127,
      "chip": "ym2612"
    },
    {
      "channel": 3,
      "note": 76,
      "start": 51.2141,
      "duration": 0.0971,
      "velocity": 119,
      "chip": "ym2612"
    },
    {
      "channel": 5,
      "note": 44,
      "start": 51.2143,
      "duration": 0.4066,
      "velocity": 127,
      "chip": "ym2612"
    },
    {
      "channel": 4,
      "note": 81,
      "start": 51.2442,
      "duration": 0.3534,
      "velocity": 99,
      "chip": "ym2612"
    },
    {
      "channel": 1,
      "note": 83,
      "start": 51.4141,
      "duration": 0.1006,
      "velocity": 99,
      "chip": "ym2612"
    },
    {
      "channel": 3,
      "note": 75,
      "start": 51.4141,
      "duration": 0.1006,
      "velocity": 119,
      "chip": "ym2612"
    },
    {
      "channel": 1,
      "note": 82,
      "start": 51.5146,
      "duration": 0.2536,
      "velocity": 99,
      "chip": "ym2612"
    },
    {
      "channel": 3,
      "note": 76,
      "start": 51.6207,
      "duration": 0.0971,
      "velocity": 119,
      "chip": "ym2612"
    },
    {
      "channel": 5,
      "note": 44,
      "start": 51.6209,
      "duration": 0.2071,
      "velocity": 117,
      "chip": "ym2612"
    },
    {
      "channel": 4,
      "note": 83,
      "start": 51.6508,
      "duration": 0.1018,
      "velocity": 99,
      "chip": "ym2612"
    },
    {
      "channel": 4,
      "note": 82,
      "start": 51.7526,
      "duration": 0.2516,
      "velocity": 99,
      "chip": "ym2612"
    },
    {
      "channel": 0,
      "note": 53,
      "start": 51.8278,
      "duration": 1.4118,
      "velocity": 85,
      "chip": "ym2612"
    },
    {
      "channel": 1,
      "note": 81,
      "start": 51.8278,
      "duration": 1.4118,
      "velocity": 99,
      "chip": "ym2612"
    },
    {
      "channel": 2,
      "note": 48,
      "start": 51.8279,
      "duration": 1.2193,
      "velocity": 89,
      "chip": "ym2612"
    },
    {
      "channel": 5,
      "note": 55,
      "start": 51.828,
      "duration": 0.3963,
      "velocity": 117,
      "chip": "ym2612"
    },
    {
      "channel": 4,
      "note": 81,
      "start": 52.0552,
      "duration": 1.4151,
      "velocity": 99,
      "chip": "ym2612"
    },
    {
      "channel": 3,
      "note": 72,
      "start": 52.2242,
      "duration": 0.0984,
      "velocity": 119,
      "chip": "ym2612"
    },
    {
      "channel": 3,
      "note": 71,
      "start": 52.4247,
      "duration": 0.1018,
      "velocity": 119,
      "chip": "ym2612"
    },
    {
      "channel": 3,
      "note": 72,
      "start": 52.6307,
      "duration": 0.096,
      "velocity": 119,
      "chip": "ym2612"
    },
    {
      "channel": 5,
      "note": 44,
      "start": 52.6309,
      "duration": 0.2032,
      "velocity": 127,
      "chip": "ym2612"
    },
    {
      "channel": 3,
      "note": 77,
      "start": 52.8341,
      "duration": 0.095,
      "velocity": 119,
      "chip": "ym2612"
    },
    {
      "channel": 5,
      "note": 44,
      "start": 52.8342,
      "duration": 0.4056,
      "velocity": 117,
      "chip": "ym2612"
    },
    {
      "channel": 2,
      "note": 47,
      "start": 53.2397,
      "duration": 0.1634,
      "velocity": 89,
      "chip": "ym2612"
    },
    {
      "channel": 3,
      "note": 71,
      "start": 53.2397,
      "duration": 0.0957,
      "velocity": 119,
      "chip": "ym2612"
    },
    {
      "channel": 5,
      "note": 55,
      "start": 53.2398,
      "duration": 0.2069,
      "velocity": 117,
      "chip": "ym2612"
    },
    {
      "channel": 0,
      "note": 53,
      "start": 53.4464,
      "duration": 1.4067,
      "velocity": 85,
      "chip": "ym2612"
    },
    {
      "channel": 1,
      "note": 80,
      "start": 53.4465,
      "duration": 0.3428,
      "velocity": 99,
      "chip": "ym2612"
    },
    {
      "channel": 2,
      "note": 48,
      "start": 53.4465,
      "duration": 0.1585,
      "velocity": 89,
      "chip": "ym2612"
    },
    {
      "channel": 3,
      "note": 72,
      "start": 53.4466,
      "duration": 0.091,
      "velocity": 119,
      "chip": "ym2612"
    },
    {
      "channel": 5,
      "note": 55,
      "start": 53.4466,
      "duration": 0.3994,
      "velocity": 117,
      "chip": "ym2612"
    },
    {
      "channel": 3,
      "note": 71,
      "start": 53.6398,
      "duration": 0.0995,
      "velocity": 119,
      "chip": "ym2612"
    },
    {
      "channel": 4,
      "note": 80,
      "start": 53.6732,
      "duration": 0.3531,
      "velocity": 99,
      "chip": "ym2612"
    },
    {
      "channel": 1,
      "note": 81,
      "start": 53.8459,
      "duration": 0.3471,
      "velocity": 99,
      "chip": "ym2612"
    },
    {
      "channel": 2,
      "note": 48,
      "start": 53.8459,
      "duration": 1.0569,
      "velocity": 89,
      "chip": "ym2612"
    },
    {
      "channel": 3,
      "note": 72,
      "start": 53.846,
      "duration": 0.0944,
      "velocity": 119,
      "chip": "ym2612"
    },
    {
      "channel": 5,
      "note": 55,
      "start": 53.8461,
      "duration": 0.405,
      "velocity": 127,
      "chip": "ym2612"
    },
    {
      "channel": 3,
      "note": 77,
      "start": 54.0422,
      "duration": 0.5048,
      "velocity": 119,
      "chip": "ym2612"
    },
    {
      "channel": 4,
      "note": 81,
      "start": 54.0756,
      "duration": 0.3535,
      "velocity": 99,
      "chip": "ym2612"
    },
    {
      "channel": 1,
      "note": 83,
      "start": 54.251,
      "duration": 0.0952,
      "velocity": 99,
      "chip": "ym2612"
    },
    {
      "channel": 5,
      "note": 44,
      "start": 54.2512,
      "duration": 0.2005,
      "velocity": 127,
      "chip": "ym2612"
    },
    {
      "channel": 1,
      "note": 82,
      "start": 54.3461,
      "duration": 0.2522,
      "velocity": 99,
      "chip": "ym2612"
    },
    {
      "channel": 5,
      "note": 44,
      "start": 54.4517,
      "duration": 0.4015,
      "velocity": 127,
      "chip": "ym2612"
    },
    {
      "channel": 4,
      "note": 83,
      "start": 54.4804,
      "duration": 0.1038,
      "velocity": 99,
      "chip": "ym2612"
    },
    {
      "channel": 4,
      "note": 82,
      "start": 54.5842,
      "duration": 0.2513,
      "velocity": 99,
      "chip": "ym2612"
    },
    {
      "channel": 1,
      "note": 84,
      "start": 54.6515,
      "duration": 0.3525,
      "velocity": 99,
      "chip": "ym2612"
    },
    {
      "channel": 4,
      "note": 84,
      "start": 54.8865,
      "duration": 0.3527,
      "velocity": 99,
      "chip": "ym2612"
    },
    {
      "channel": 0,
      "note": 52,
      "start": 55.0643,
      "duration": 1.2207,
      "velocity": 85,
      "chip": "ym2612"
    },
    {
      "channel": 1,
      "note": 83,
      "start": 55.0643,
      "duration": 0.2095,
      "velocity": 99,
      "chip": "ym2612"
    },
    {
      "channel": 2,
      "note": 47,
      "start": 55.0644,
      "duration": 1.2206,
      "velocity": 89,
      "chip": "ym2612"
    },
    {
      "channel": 5,
      "note": 55,
      "start": 55.0645,
      "duration": 0.3945,
      "velocity": 117,
      "chip": "ym2612"
    },
    {
      "channel": 1,
      "note": 83,
      "start": 55.2739,
      "duration": 1.5655,
      "velocity": 99,
      "chip": "ym2612"
    },
    {
      "channel": 4,
      "note": 83,
      "start": 55.2907,
      "duration": 0.2183,
      "velocity": 99,
      "chip": "ym2612"
    },
    {
      "channel": 3,
      "note": 71,
      "start": 55.4589,
      "duration": 0.0994,
      "velocity": 119,
      "chip": "ym2612"
    },
    {
      "channel": 4,
      "note": 83,
      "start": 55.5091,
      "duration": 1.5746,
      "velocity": 99,
      "chip": "ym2612"
    },
    {
      "channel": 3,
      "note": 69,
      "start": 55.6604,
      "duration": 0.1002,
      "velocity": 119,
      "chip": "ym2612"
    },
    {
      "channel": 3,
      "note": 71,
      "start": 55.8687,
      "duration": 0.0942,
      "velocity": 119,
      "chip": "ym2612"
    },
    {
      "channel": 5,
      "note": 44,
      "start": 55.8688,
      "duration": 0.2013,
      "velocity": 127,
      "chip": "ym2612"
    },
    {
      "channel": 3,
      "note": 76,
      "start": 56.07,
      "duration": 0.097,
      "velocity": 119,
      "chip": "ym2612"
    },
    {
      "channel": 5,
      "note": 44,
      "start": 56.0701,
      "duration": 0.4059,
      "velocity": 117,
      "chip": "ym2612"
    },
    {
      "channel": 0,
      "note": 50,
      "start": 56.4759,
      "duration": 0.163,
      "velocity": 85,
      "chip": "ym2612"
    },
    {
      "channel": 2,
      "note": 45,
      "start": 56.4759,
      "duration": 0.163,
      "velocity": 89,
      "chip": "ym2612"
    },
    {
      "channel": 3,
      "note": 71,
      "start": 56.476,
      "duration": 0.0954,
      "velocity": 119,
      "chip": "ym2612"
    },
    {
      "channel": 5,
      "note": 55,
      "start": 56.4761,
      "duration": 0.2052,
      "velocity": 117,
      "chip": "ym2612"
    },
    {
      "channel": 0,
      "note": 52,
      "start": 56.6811,
      "duration": 0.1582,
      "velocity": 85,
      "chip": "ym2612"
    },
    {
      "channel": 2,
      "note": 47,
      "start": 56.6812,
      "duration": 0.1583,
      "velocity": 89,
      "chip": "ym2612"
    },
    {
      "channel": 3,
      "note": 76,
      "start": 56.6812,
      "duration": 0.0913,
      "velocity": 119,
      "chip": "ym2612"
    },
    {
      "channel": 5,
      "note": 55,
      "start": 56.6814,
      "duration": 0.4024,
      "velocity": 117,
      "chip": "ym2612"
    },
    {
      "channel": 0,
      "note": 52,
      "start": 57.0835,
      "duration": 1.0553,
      "velocity": 85,
      "chip": "ym2612"
    },
    {
      "channel": 2,
      "note": 47,
      "start": 57.0835,
      "duration": 0.1601,
      "velocity": 89,
      "chip": "ym2612"
    },
    {
      "channel": 3,
      "note": 76,
      "start": 57.0836,
      "duration": 0.6045,
      "velocity": 119,
      "chip": "ym2612"
    },
    {
      "channel": 5,
      "note": 55,
      "start": 57.0837,
      "duration": 0.4034,
      "velocity": 127,
      "chip": "ym2612"
    },
    {
      "channel": 2,
      "note": 52,
      "start": 57.2783,
      "duration": 0.1674,
      "velocity": 89,
      "chip": "ym2612"
    },
    {
      "channel": 1,
      "note": 81,
      "start": 57.4871,
      "duration": 0.3485,
      "velocity": 99,
      "chip": "ym2612"
    },
    {
      "channel": 2,
      "note": 51,
      "start": 57.4871,
      "duration": 0.1614,
      "velocity": 89,
      "chip": "ym2612"
    },
    {
      "channel": 5,
      "note": 44,
      "start": 57.4872,
      "duration": 0.2009,
      "velocity": 127,
      "chip": "ym2612"
    },
    {
      "channel": 2,
      "note": 47,
      "start": 57.688,
      "duration": 0.1641,
      "velocity": 89,
      "chip": "ym2612"
    },
    {
      "channel": 5,
      "note": 44,
      "start": 57.6882,
      "duration": 0.4044,
      "velocity": 127,
      "chip": "ym2612"
    },
    {
      "channel": 4,
      "note": 81,
      "start": 57.718,
      "duration": 0.3533,
      "velocity": 99,
      "chip": "ym2612"
    },
    {
      "channel": 1,
      "note": 83,
      "start": 57.8877,
      "duration": 0.1005,
      "velocity": 99,
      "chip": "ym2612"
    },
    {
      "channel": 2,
      "note": 45,
      "start": 57.8878,
      "duration": 0.1666,
      "velocity": 89,
      "chip": "ym2612"
    },
    {
      "channel": 1,
      "note": 82,
      "start": 57.9883,
      "duration": 0.2512,
      "velocity": 99,
      "chip": "ym2612"
    },
    {
      "channel": 2,
      "note": 47,
      "start": 58.0925,
      "duration": 0.1636,
      "velocity": 89,
      "chip": "ym2612"
    },
    {
      "channel": 5,
      "note": 44,
      "start": 58.0926,
      "duration": 0.2072,
      "velocity": 117,
      "chip": "ym2612"
    },
    {
      "channel": 4,
      "note": 83,
      "start": 58.1226,
      "duration": 0.1013,
      "velocity": 99,
      "chip": "ym2612"
    },
    {
      "channel": 4,
      "note": 82,
      "start": 58.224,
      "duration": 0.2499,
      "velocity": 99,
      "chip": "ym2612"
    },
    {
      "channel": 0,
      "note": 53,
      "start": 58.2996,
      "duration": 1.411,
      "velocity": 85,
      "chip": "ym2612"
    },
    {
      "channel": 1,
      "note": 81,
      "start": 58.2997,
      "duration": 1.411,
      "velocity": 99,
      "chip": "ym2612"
    },
    {
      "channel": 2,
      "note": 48,
      "start": 58.2998,
      "duration": 1.2195,
      "velocity": 89,
      "chip": "ym2612"
    },
    {
      "channel": 5,
      "note": 55,
      "start": 58.2999,
      "duration": 0.3947,
      "velocity": 117,
      "chip": "ym2612"
    },
    {
      "channel": 4,
      "note": 81,
      "start": 58.527,
      "duration": 1.4134,
      "velocity": 99,
      "chip": "ym2612"
    },
    {
      "channel": 3,
      "note": 72,
      "start": 58.6946,
      "duration": 0.0995,
      "velocity": 119,
      "chip": "ym2612"
    },
    {
      "channel": 3,
      "note": 71,
      "start": 58.8963,
      "duration": 0.1,
      "velocity": 119,
      "chip": "ym2612"
    },
    {
      "channel": 3,
      "note": 72,
      "start": 59.1043,
      "duration": 0.0962,
      "velocity": 119,
      "chip": "ym2612"
    },
    {
      "channel": 5,
      "note": 44,
      "start": 59.1044,
      "duration": 0.2016,
      "velocity": 127,
      "chip": "ym2612"
    },
    {
      "channel": 3,
      "note": 77,
      "start": 59.3059,
      "duration": 0.0968,
      "velocity": 119,
      "chip": "ym2612"
    },
    {
      "channel": 5,
      "note": 44,
      "start": 59.306,
      "duration": 0.4049,
      "velocity": 117,
      "chip": "ym2612"
    },
    {
      "channel": 2,
      "note": 47,
      "start": 59.7108,
      "duration": 0.1618,
      "velocity": 89,
      "chip": "ym2612"
    },
    {
      "channel": 3,
      "note": 71,
      "start": 59.7108,
      "duration": 0.0949,
      "velocity": 119,
      "chip": "ym2612"
    },
    {
      "channel": 5,
      "note": 55,
      "start": 59.711,
      "duration": 0.208,
      "velocity": 117,
      "chip": "ym2612"
    },
    {
      "channel": 0,
      "note": 53,
      "start": 59.9187,
      "duration": 1.4078,
      "velocity": 85,
      "chip": "ym2612"
    },
    {
      "channel": 1,
      "note": 80,
      "start": 59.9187,
      "duration": 0.3417,
      "velocity": 99,
      "chip": "ym2612"
    },
    {
      "channel": 2,
      "note": 48,
      "start": 59.9188,
      "duration": 0.1561,
      "velocity": 89,
      "chip": "ym2612"
    },
    {
      "channel": 3,
      "note": 72,
      "start": 59.9188,
      "duration": 0.0886,
      "velocity": 119,
      "chip": "ym2612"
    },
    {
      "channel": 5,
      "note": 55,
      "start": 59.9189,
      "duration": 0.3999,
      "velocity": 117,
      "chip": "ym2612"
    },
    {
      "channel": 3,
      "note": 71,
      "start": 60.1096,
      "duration": 0.1002,
      "velocity": 119,
      "chip": "ym2612"
    },
    {
      "channel": 4,
      "note": 80,
      "start": 60.1435,
      "duration": 0.3527,
      "velocity": 99,
      "chip": "ym2612"
    },
    {
      "channel": 1,
      "note": 81,
      "start": 60.3186,
      "duration": 0.348,
      "velocity": 99,
      "chip": "ym2612"
    },
    {
      "channel": 2,
      "note": 48,
      "start": 60.3187,
      "duration": 1.0548,
      "velocity": 89,
      "chip": "ym2612"
    },
    {
      "channel": 3,
      "note": 72,
      "start": 60.3187,
      "duration": 0.0932,
      "velocity": 119,
      "chip": "ym2612"
    },
    {
      "channel": 5,
      "note": 55,
      "start": 60.3188,
      "duration": 0.4039,
      "velocity": 127,
      "chip": "ym2612"
    },
    {
      "channel": 3,
      "note": 77,
      "start": 60.5139,
      "duration": 0.5054,
      "velocity": 119,
      "chip": "ym2612"
    },
    {
      "channel": 4,
      "note": 81,
      "start": 60.5474,
      "duration": 0.3554,
      "velocity": 99,
      "chip": "ym2612"
    },
    {
      "channel": 1,
      "note": 83,
      "start": 60.7227,
      "duration": 0.0969,
      "velocity": 99,
      "chip": "ym2612"
    },
    {
      "channel": 5,
      "note": 44,
      "start": 60.7229,
      "duration": 0.2003,
      "velocity": 127,
      "chip": "ym2612"
    },
    {
      "channel": 1,
      "note": 82,
      "start": 60.8195,
      "duration": 0.2518,
      "velocity": 99,
      "chip": "ym2612"
    },
    {
      "channel": 5,
      "note": 44,
      "start": 60.9232,
      "duration": 0.4033,
      "velocity": 127,
      "chip": "ym2612"
    },
    {
      "channel": 4,
      "note": 83,
      "start": 60.954,
      "duration": 0.1017,
      "velocity": 99,
      "chip": "ym2612"
    },
    {
      "channel": 4,
      "note": 82,
      "start": 61.0557,
      "duration": 0.2501,
      "velocity": 99,
      "chip": "ym2612"
    },
    {
      "channel": 1,
      "note": 84,
      "start": 61.1231,
      "duration": 0.3506,
      "velocity": 99,
      "chip": "ym2612"
    },
    {
      "channel": 5,
      "note": 44,
      "start": 61.3266,
      "duration": 0.2116,
      "velocity": 117,
      "chip": "ym2612"
    },
    {
      "channel": 4,
      "note": 84,
      "start": 61.3564,
      "duration": 0.3534,
      "velocity": 99,
      "chip": "ym2612"
    },
    {
      "channel": 0,
      "note": 56,
      "start": 61.538,
      "duration": 1.0504,
      "velocity": 85,
      "chip": "ym2612"
    },
    {
      "channel": 1,
      "note": 87,
      "start": 61.5381,
      "duration": 0.2068,
      "velocity": 99,
      "chip": "ym2612"
    },
    {
      "channel": 2,
      "note": 51,
      "start": 61.5381,
      "duration": 1.0504,
      "velocity": 89,
      "chip": "ym2612"
    },
    {
      "channel": 3,
      "note": 68,
      "start": 61.5382,
      "duration": 0.0873,
      "velocity": 119,
      "chip": "ym2612"
    },
    {
      "channel": 5,
      "note": 55,
      "start": 61.5383,
      "duration": 0.3976,
      "velocity": 125,
      "chip": "ym2612"
    },
    {
      "channel": 3,
      "note": 69,
      "start": 61.7274,
      "duration": 0.1004,
      "velocity": 119,
      "chip": "ym2612"
    },
    {
      "channel": 1,
      "note": 87,
      "start": 61.7449,
      "duration": 1.566,
      "velocity": 99,
      "chip": "ym2612"
    },
    {
      "channel": 4,
      "note": 87,
      "start": 61.7616,
      "duration": 0.2193,
      "velocity": 99,
      "chip": "ym2612"
    },
    {
      "channel": 3,
      "note": 68,
      "start": 61.9358,
      "duration": 0.0943,
      "velocity": 119,
      "chip": "ym2612"
    },
    {
      "channel": 5,
      "note": 57,
      "start": 61.9359,
      "duration": 0.2017,
      "velocity": 125,
      "chip": "ym2612"
    },
    {
      "channel": 4,
      "note": 87,
      "start": 61.9809,
      "duration": 1.5706,
      "velocity": 99,
      "chip": "ym2612"
    },
    {
      "channel": 3,
      "note": 69,
      "start": 62.1375,
      "duration": 0.0968,
      "velocity": 119,
      "chip": "ym2612"
    },
    {
      "channel": 5,
      "note": 57,
      "start": 62.1376,
      "duration": 0.2031,
      "velocity": 127,
      "chip": "ym2612"
    },
    {
      "channel": 3,
      "note": 71,
      "start": 62.3406,
      "duration": 0.0959,
      "velocity": 119,
      "chip": "ym2612"
    },
    {
      "channel": 5,
      "note": 44,
      "start": 62.3407,
      "duration": 0.2013,
      "velocity": 125,
      "chip": "ym2612"
    },
    {
      "channel": 3,
      "note": 72,
      "start": 62.5419,
      "duration": 0.0969,
      "velocity": 119,
      "chip": "ym2612"
    },
    {
      "channel": 5,
      "note": 49,
      "start": 62.542,
      "duration": 0.2033,
      "velocity": 125,
      "chip": "ym2612"
    },
    {
      "channel": 0,
      "note": 57,
      "start": 62.7451,
      "duration": 0.3468,
      "velocity": 85,
      "chip": "ym2612"
    },
    {
      "channel": 2,
      "note": 52,
      "start": 62.7452,
      "duration": 0.3468,
      "velocity": 89,
      "chip": "ym2612"
    },
    {
      "channel": 3,
      "note": 71,
      "start": 62.7453,
      "duration": 0.094,
      "velocity": 119,
      "chip": "ym2612"
    },
    {
      "channel": 5,
      "note": 38,
      "start": 62.7454,
      "duration": 0.1997,
      "velocity": 117,
      "chip": "ym2612"
    },
    {
      "channel": 3,
      "note": 72,
      "start": 62.945,
      "duration": 0.0963,
      "velocity": 119,
      "chip": "ym2612"
    },
    {
      "channel": 5,
      "note": 55,
      "start": 62.9451,
      "duration": 0.2083,
      "velocity": 127,
      "chip": "ym2612"
    },
    {
      "channel": 0,
      "note": 59,
      "start": 63.1533,
      "duration": 0.6987,
      "velocity": 85,
      "chip": "ym2612"
    },
    {
      "channel": 2,
      "note": 54,
      "start": 63.1533,
      "duration": 0.6987,
      "velocity": 89,
      "chip": "ym2612"
    },
    {
      "channel": 3,
      "note": 75,
      "start": 63.1534,
      "duration": 0.197,
      "velocity": 119,
      "chip": "ym2612"
    },
    {
      "channel": 5,
      "note": 44,
      "start": 63.1535,
      "duration": 0.197,
      "velocity": 117,
      "chip": "ym2612"
    },
    {
      "channel": 5,
      "note": 55,
      "start": 63.3505,
      "duration": 0.4055,
      "velocity": 117,
      "chip": "ym2612"
    },
    {
      "channel": 1,
      "note": 83,
      "start": 63.5514,
      "duration": 0.1659,
      "velocity": 99,
      "chip": "ym2612"
    },
    {
      "channel": 3,
      "note": 75,
      "start": 63.5515,
      "duration": 0.6096,
      "velocity": 119,
      "chip": "ym2612"
    },
    {
      "channel": 1,
      "note": 84,
      "start": 63.7559,
      "duration": 0.1636,
      "velocity": 99,
      "chip": "ym2612"
    },
    {
      "channel": 5,
      "note": 55,
      "start": 63.7561,
      "duration": 0.2035,
      "velocity": 127,
      "chip": "ym2612"
    },
    {
      "channel": 4,
      "note": 83,
      "start": 63.7855,
      "duration": 0.174,
      "velocity": 99,
      "chip": "ym2612"
    },
    {
      "channel": 0,
      "note": 51,
      "start": 63.9593,
      "duration": 0.1624,
      "velocity": 85,
      "chip": "ym2612"
    },
    {
      "channel": 1,
      "note": 87,
      "start": 63.9594,
      "duration": 0.1131,
      "velocity": 99,
      "chip": "ym2612"
    },
    {
      "channel": 2,
      "note": 59,
      "start": 63.9594,
      "duration": 0.6995,
      "velocity": 89,
      "chip": "ym2612"
    },
    {
      "channel": 5,
      "note": 44,
      "start": 63.9596,
      "duration": 0.2016,
      "velocity": 125,
      "chip": "ym2612"
    },
    {
      "channel": 4,
      "note": 84,
      "start": 63.9872,
      "duration": 0.174,
      "velocity": 99,
      "chip": "ym2612"
    },
    {
      "channel": 1,
      "note": 88,
      "start": 64.0725,
      "duration": 0.0661,
      "velocity": 99,
      "chip": "ym2612"
    },
    {
      "channel": 0,
      "note": 63,
      "start": 64.161,
      "duration": 0.1617,
      "velocity": 85,
      "chip": "ym2612"
    },
    {
      "channel": 1,
      "note": 83,
      "start": 64.161,
      "duration": 0.1617,
      "velocity": 99,
      "chip": "ym2612"
    },
    {
      "channel": 5,
      "note": 57,
      "start": 64.1613,
      "duration": 0.2004,
      "velocity": 125,
      "chip": "ym2612"
    },
    {
      "channel": 4,
      "note": 87,
      "start": 64.1896,
      "duration": 0.1175,
      "velocity": 99,
      "chip": "ym2612"
    },
    {
      "channel": 4,
      "note": 88,
      "start": 64.3071,
      "duration": 0.0663,
      "velocity": 99,
      "chip": "ym2612"
    },
    {
      "channel": 0,
      "note": 51,
      "start": 64.3615,
      "duration": 0.3482,
      "velocity": 85,
      "chip": "ym2612"
    },
    {
      "channel": 1,
      "note": 84,
      "start": 64.3615,
      "duration": 0.1645,
      "velocity": 99,
      "chip": "ym2612"
    },
    {
      "channel": 5,
      "note": 38,
      "start": 64.3617,
      "duration": 0.4105,
      "velocity": 117,
      "chip": "ym2612"
    },
    {
      "channel": 4,
      "note": 83,
      "start": 64.3898,
      "duration": 0.1695,
      "velocity": 99,
      "chip": "ym2612"
    },
    {
      "channel": 1,
      "note": 83,
      "start": 64.5593,
      "duration": 0.1672,
      "velocity": 99,
      "chip": "ym2612"
    },
    {
      "channel": 4,
      "note": 84,
      "start": 64.592,
      "duration": 0.1801,
      "velocity": 99,
      "chip": "ym2612"
    },
    {
      "channel": 0,
      "note": 52,
      "start": 64.7719,
      "duration": 0.6983,
      "velocity": 85,
      "chip": "ym2612"
    },
    {
      "channel": 1,
      "note": 88,
      "start": 64.772,
      "duration": 0.0906,
      "velocity": 99,
      "chip": "ym2612"
    },
    {
      "channel": 2,
      "note": 52,
      "start": 64.772,
      "duration": 0.1567,
      "velocity": 89,
      "chip": "ym2612"
    },
    {
      "channel": 3,
      "note": 71,
      "start": 64.7721,
      "duration": 0.0906,
      "velocity": 119,
      "chip": "ym2612"
    },
    {
      "channel": 5,
      "note": 55,
      "start": 64.7722,
      "duration": 0.3954,
      "velocity": 117,
      "chip": "ym2612"
    },
    {
      "channel": 4,
      "note": 83,
      "start": 64.7949,
      "duration": 0.1691,
      "velocity": 99,
      "chip": "ym2612"
    },
    {
      "channel": 1,
      "note": 87,
      "start": 64.8626,
      "duration": 1.6673,
      "velocity": 99,
      "chip": "ym2612"
    },
    {
      "channel": 2,
      "note": 47,
      "start": 64.9639,
      "duration": 1.0626,
      "velocity": 89,
      "chip": "ym2612"
    },
    {
      "channel": 3,
      "note": 71,
      "start": 64.9639,
      "duration": 0.0999,
      "velocity": 119,
      "chip": "ym2612"
    },
    {
      "channel": 4,
      "note": 88,
      "start": 64.9972,
      "duration": 0.1035,
      "velocity": 99,
      "chip": "ym2612"
    },
    {
      "channel": 4,
      "note": 87,
      "start": 65.1008,
      "duration": 1.6669,
      "velocity": 99,
      "chip": "ym2612"
    },
    {
      "channel": 3,
      "note": 71,
      "start": 65.37,
      "duration": 0.1003,
      "velocity": 119,
      "chip": "ym2612"
    },
    {
      "channel": 0,
      "note": 52,
      "start": 65.5757,
      "duration": 0.7014,
      "velocity": 85,
      "chip": "ym2612"
    },
    {
      "channel": 3,
      "note": 71,
      "start": 65.5758,
      "duration": 0.0965,
      "velocity": 119,
      "chip": "ym2612"
    },
    {
      "channel": 5,
      "note": 44,
      "start": 65.5759,
      "duration": 0.2008,
      "velocity": 127,
      "chip": "ym2612"
    },
    {
      "channel": 5,
      "note": 44,
      "start": 65.7767,
      "duration": 0.4043,
      "velocity": 117,
      "chip": "ym2612"
    },
    {
      "channel": 3,
      "note": 69,
      "start": 65.9746,
      "duration": 0.1002,
      "velocity": 119,
      "chip": "ym2612"
    },
    {
      "channel": 2,
      "note": 45,
      "start": 66.1809,
      "duration": 0.1637,
      "velocity": 89,
      "chip": "ym2612"
    },
    {
      "channel": 3,
      "note": 71,
      "start": 66.1809,
      "duration": 0.0963,
      "velocity": 119,
      "chip": "ym2612"
    },
    {
      "channel": 5,
      "note": 55,
      "start": 66.1811,
      "duration": 0.2062,
      "velocity": 117,
      "chip": "ym2612"
    },
    {
      "channel": 0,
      "note": 52,
      "start": 66.3871,
      "duration": 0.7006,
      "velocity": 85,
      "chip": "ym2612"
    },
    {
      "channel": 2,
      "note": 47,
      "start": 66.3872,
      "duration": 0.1595,
      "velocity": 89,
      "chip": "ym2612"
    },
    {
      "channel": 5,
      "note": 55,
      "start": 66.3873,
      "duration": 0.404,
      "velocity": 117,
      "chip": "ym2612"
    },
    {
      "channel": 3,
      "note": 71,
      "start": 66.5836,
      "duration": 0.1001,
      "velocity": 119,
      "chip": "ym2612"
    },
    {
      "channel": 1,
      "note": 83,
      "start": 66.7911,
      "duration": 0.1619,
      "velocity": 99,
      "chip": "ym2612"
    },
    {
      "channel": 2,
      "note": 47,
      "start": 66.7912,
      "duration": 1.0532,
      "velocity": 89,
      "chip": "ym2612"
    },
    {
      "channel": 3,
      "note": 71,
      "start": 66.7912,
      "duration": 0.0944,
      "velocity": 119,
      "chip": "ym2612"
    },
    {
      "channel": 5,
      "note": 55,
      "start": 66.7914,
      "duration": 0.4041,
      "velocity": 127,
      "chip": "ym2612"
    },
    {
      "channel": 1,
      "note": 84,
      "start": 66.9882,
      "duration": 0.1669,
      "velocity": 99,
      "chip": "ym2612"
    },
    {
      "channel": 4,
      "note": 83,
      "start": 67.0212,
      "duration": 0.1742,
      "velocity": 99,
      "chip": "ym2612"
    },
    {
      "channel": 0,
      "note": 52,
      "start": 67.1953,
      "duration": 0.6996,
      "velocity": 85,
      "chip": "ym2612"
    },
    {
      "channel": 1,
      "note": 87,
      "start": 67.1953,
      "duration": 0.1118,
      "velocity": 99,
      "chip": "ym2612"
    },
    {
      "channel": 3,
      "note": 71,
      "start": 67.1954,
      "duration": 0.0938,
      "velocity": 119,
      "chip": "ym2612"
    },
    {
      "channel": 5,
      "note": 44,
      "start": 67.1956,
      "duration": 0.1993,
      "velocity": 127,
      "chip": "ym2612"
    },
    {
      "channel": 4,
      "note": 84,
      "start": 67.2227,
      "duration": 0.1721,
      "velocity": 99,
      "chip": "ym2612"
    },
    {
      "channel": 1,
      "note": 88,
      "start": 67.3071,
      "duration": 0.0652,
      "velocity": 99,
      "chip": "ym2612"
    },
    {
      "channel": 1,
      "note": 83,
      "start": 67.3947,
      "duration": 0.1632,
      "velocity": 99,
      "chip": "ym2612"
    },
    {
      "channel": 3,
      "note": 71,
      "start": 67.3947,
      "duration": 0.0957,
      "velocity": 119,
      "chip": "ym2612"
    },
    {
      "channel": 5,
      "note": 44,
      "start": 67.3949,
      "duration": 0.4013,
      "velocity": 127,
      "chip": "ym2612"
    },
    {
      "channel": 4,
      "note": 87,
      "start": 67.4244,
      "duration": 0.1179,
      "velocity": 99,
      "chip": "ym2612"
    },
    {
      "channel": 4,
      "note": 88,
      "start": 67.5423,
      "duration": 0.0661,
      "velocity": 99,
      "chip": "ym2612"
    },
    {
      "channel": 1,
      "note": 84,
      "start": 67.593,
      "duration": 0.167,
      "velocity": 99,
      "chip": "ym2612"
    },
    {
      "channel": 4,
      "note": 83,
      "start": 67.6259,
      "duration": 0.1703,
      "velocity": 99,
      "chip": "ym2612"
    },
    {
      "channel": 1,
      "note": 83,
      "start": 67.796,
      "duration": 0.1663,
      "velocity": 99,
      "chip": "ym2612"
    },
    {
      "channel": 3,
      "note": 71,
      "start": 67.7961,
      "duration": 0.0988,
      "velocity": 119,
      "chip": "ym2612"
    },
    {
      "channel": 4,
      "note": 84,
      "start": 67.8279,
      "duration": 0.1795,
      "velocity": 99,
      "chip": "ym2612"
    },
    {
      "channel": 0,
      "note": 57,
      "start": 68.0071,
      "duration": 0.6984,
      "velocity": 85,
      "chip": "ym2612"
    },
    {
      "channel": 1,
      "note": 81,
      "start": 68.0071,
      "duration": 0.0931,
      "velocity": 99,
      "chip": "ym2612"
    },
    {
      "channel": 2,
      "note": 57,
      "start": 68.0072,
      "duration": 0.1577,
      "velocity": 89,
      "chip": "ym2612"
    },
    {
      "channel": 3,
      "note": 71,
      "start": 68.0073,
      "duration": 0.0931,
      "velocity": 119,
      "chip": "ym2612"
    },
    {
      "channel": 5,
      "note": 55,
      "start": 68.0074,
      "duration": 0.3963,
      "velocity": 117,
      "chip": "ym2612"
    },
    {
      "channel": 4,
      "note": 83,
      "start": 68.0307,
      "duration": 0.171,
      "velocity": 99,
      "chip": "ym2612"
    },
    {
      "channel": 1,
      "note": 80,
      "start": 68.1003,
      "duration": 0.4371,
      "velocity": 99,
      "chip": "ym2612"
    },
    {
      "channel": 2,
      "note": 52,
      "start": 68.2016,
      "duration": 1.0585,
      "velocity": 89,
      "chip": "ym2612"
    },
    {
      "channel": 3,
      "note": 71,
      "start": 68.2017,
      "duration": 0.0998,
      "velocity": 119,
      "chip": "ym2612"
    },
    {
      "channel": 4,
      "note": 81,
      "start": 68.2349,
      "duration": 0.1013,
      "velocity": 99,
      "chip": "ym2612"
    },
    {
      "channel": 4,
      "note": 80,
      "start": 68.3363,
      "duration": 0.4361,
      "velocity": 99,
      "chip": "ym2612"
    },
    {
      "channel": 1,
      "note": 83,
      "start": 68.6065,
      "duration": 0.8728,
      "velocity": 99,
      "chip": "ym2612"
    },
    {
      "channel": 3,
      "note": 71,
      "start": 68.6066,
      "duration": 0.099,
      "velocity": 119,
      "chip": "ym2612"
    },
    {
      "channel": 0,
      "note": 57,
      "start": 68.8105,
      "duration": 0.7023,
      "velocity": 85,
      "chip": "ym2612"
    },
    {
      "channel": 3,
      "note": 71,
      "start": 68.8106,
      "duration": 0.0955,
      "velocity": 119,
      "chip": "ym2612"
    },
    {
      "channel": 5,
      "note": 44,
      "start": 68.8106,
      "duration": 0.2005,
      "velocity": 127,
      "chip": "ym2612"
    },
    {
      "channel": 4,
      "note": 83,
      "start": 68.8399,
      "duration": 0.8773,
      "velocity": 99,
      "chip": "ym2612"
    },
    {
      "channel": 5,
      "note": 44,
      "start": 69.0112,
      "duration": 0.4076,
      "velocity": 117,
      "chip": "ym2612"
    },
    {
      "channel": 3,
      "note": 69,
      "start": 69.2103,
      "duration": 0.1004,
      "velocity": 119,
      "chip": "ym2612"
    },
    {
      "channel": 2,
      "note": 45,
      "start": 69.4187,
      "duration": 0.1616,
      "velocity": 89,
      "chip": "ym2612"
    },
    {
      "channel": 3,
      "note": 71,
      "start": 69.4188,
      "duration": 0.0941,
      "velocity": 119,
      "chip": "ym2612"
    },
    {
      "channel": 5,
      "note": 55,
      "start": 69.4189,
      "duration": 0.2046,
      "velocity": 117,
      "chip": "ym2612"
    },
    {
      "channel": 0,
      "note": 53,
      "start": 69.6234,
      "duration": 0.699,
      "velocity": 85,
      "chip": "ym2612"
    },
    {
      "channel": 2,
      "note": 48,
      "start": 69.6235,
      "duration": 0.1609,
      "velocity": 89,
      "chip": "ym2612"
    },
    {
      "channel": 5,
      "note": 55,
      "start": 69.6236,
      "duration": 0.4032,
      "velocity": 117,
      "chip": "ym2612"
    },
    {
      "channel": 3,
      "note": 72,
      "start": 69.8191,
      "duration": 0.1001,
      "velocity": 119,
      "chip": "ym2612"
    },
    {
      "channel": 1,
      "note": 83,
      "start": 70.0267,
      "duration": 0.1622,
      "velocity": 99,
      "chip": "ym2612"
    },
    {
      "channel": 2,
      "note": 48,
      "start": 70.0267,
      "duration": 0.3457,
      "velocity": 89,
      "chip": "ym2612"
    },
    {
      "channel": 3,
      "note": 72,
      "start": 70.0268,
      "duration": 0.0946,
      "velocity": 119,
      "chip": "ym2612"
    },
    {
      "channel": 5,
      "note": 55,
      "start": 70.0269,
      "duration": 0.4039,
      "velocity": 127,
      "chip": "ym2612"
    },
    {
      "channel": 1,
      "note": 84,
      "start": 70.2239,
      "duration": 0.1654,
      "velocity": 99,
      "chip": "ym2612"
    },
    {
      "channel": 4,
      "note": 83,
      "start": 70.2564,
      "duration": 0.1743,
      "velocity": 99,
      "chip": "ym2612"
    },
    {
      "channel": 0,
      "note": 51,
      "start": 70.4305,
      "duration": 0.161,
      "velocity": 85,
      "chip": "ym2612"
    },
    {
      "channel": 1,
      "note": 87,
      "start": 70.4306,
      "duration": 0.1116,
      "velocity": 99,
      "chip": "ym2612"
    },
    {
      "channel": 2,
      "note": 47,
      "start": 70.4307,
      "duration": 0.7002,
      "velocity": 89,
      "chip": "ym2612"
    },
    {
      "channel": 3,
      "note": 71,
      "start": 70.4307,
      "duration": 0.0952,
      "velocity": 119,
      "chip": "ym2612"
    },
    {
      "channel": 5,
      "note": 44,
      "start": 70.4309,
      "duration": 0.2025,
      "velocity": 127,
      "chip": "ym2612"
    },
    {
      "channel": 4,
      "note": 84,
      "start": 70.4576,
      "duration": 0.1758,
      "velocity": 99,
      "chip": "ym2612"
    },
    {
      "channel": 1,
      "note": 88,
      "start": 70.5423,
      "duration": 0.066,
      "velocity": 99,
      "chip": "ym2612"
    },
    {
      "channel": 0,
      "note": 63,
      "start": 70.6317,
      "duration": 0.1621,
      "velocity": 85,
      "chip": "ym2612"
    },
    {
      "channel": 1,
      "note": 83,
      "start": 70.6318,
      "duration": 0.1621,
      "velocity": 99,
      "chip": "ym2612"
    },
    {
      "channel": 3,
      "note": 71,
      "start": 70.6333,
      "duration": 0.093,
      "velocity": 119,
      "chip": "ym2612"
    },
    {
      "channel": 5,
      "note": 44,
      "start": 70.6335,
      "duration": 0.4004,
      "velocity": 127,
      "chip": "ym2612"
    },
    {
      "channel": 4,
      "note": 87,
      "start": 70.6596,
      "duration": 0.1186,
      "velocity": 99,
      "chip": "ym2612"
    },
    {
      "channel": 4,
      "note": 88,
      "start": 70.7783,
      "duration": 0.0661,
      "velocity": 99,
      "chip": "ym2612"
    },
    {
      "channel": 0,
      "note": 51,
      "start": 70.8295,
      "duration": 0.3517,
      "velocity": 85,
      "chip": "ym2612"
    },
    {
      "channel": 1,
      "note": 84,
      "start": 70.8296,
      "duration": 0.1663,
      "velocity": 99,
      "chip": "ym2612"
    },
    {
      "channel": 4,
      "note": 83,
      "start": 70.8619,
      "duration": 0.172,
      "velocity": 99,
      "chip": "ym2612"
    },
    {
      "channel": 1,
      "note": 83,
      "start": 71.0337,
      "duration": 0.1663,
      "velocity": 99,
      "chip": "ym2612"
    },
    {
      "channel": 3,
      "note": 71,
      "start": 71.0339,
      "duration": 0.0971,
      "velocity": 119,
      "chip": "ym2612"
    },
    {
      "channel": 4,
      "note": 84,
      "start": 71.0637,
      "duration": 0.1802,
      "velocity": 99,
      "chip": "ym2612"
    },
    {
      "channel": 0,
      "note": 52,
      "start": 71.2437,
      "duration": 0.697,
      "velocity": 85,
      "chip": "ym2612"
    },
    {
      "channel": 1,
      "note": 88,
      "start": 71.2437,
      "duration": 0.0925,
      "velocity": 99,
      "chip": "ym2612"
    },
    {
      "channel": 2,
      "note": 52,
      "start": 71.2438,
      "duration": 0.1585,
      "velocity": 89,
      "chip": "ym2612"
    },
    {
      "channel": 3,
      "note": 71,
      "start": 71.2439,
      "duration": 0.0924,
      "velocity": 119,
      "chip": "ym2612"
    },
    {
      "channel": 5,
      "note": 55,
      "start": 71.244,
      "duration": 0.3954,
      "velocity": 117,
      "chip": "ym2612"
    },
    {
      "channel": 4,
      "note": 83,
      "start": 71.2687,
      "duration": 0.1691,
      "velocity": 99,
      "chip": "ym2612"
    },
    {
      "channel": 1,
      "note": 87,
      "start": 71.3362,
      "duration": 1.6674,
      "velocity": 99,
      "chip": "ym2612"
    },
    {
      "channel": 2,
      "note": 47,
      "start": 71.4376,
      "duration": 1.0586,
      "velocity": 89,
      "chip": "ym2612"
    },
    {
      "channel": 3,
      "note": 71,
      "start": 71.4377,
      "duration": 0.0996,
      "velocity": 119,
      "chip": "ym2612"
    },
    {
      "channel": 4,
      "note": 88,
      "start": 71.4707,
      "duration": 0.1016,
      "velocity": 99,
      "chip": "ym2612"
    },
    {
      "channel": 4,
      "note": 87,
      "start": 71.5724,
      "duration": 1.6668,
      "velocity": 99,
      "chip": "ym2612"
    },
    {
      "channel": 3,
      "note": 71,
      "start": 71.8403,
      "duration": 0.1004,
      "velocity": 119,
      "chip": "ym2612"
    },
    {
      "channel": 0,
      "note": 52,
      "start": 72.0455,
      "duration": 0.7053,
      "velocity": 85,
      "chip": "ym2612"
    },
    {
      "channel": 3,
      "note": 71,
      "start": 72.0456,
      "duration": 0.0966,
      "velocity": 119,
      "chip": "ym2612"
    },
    {
      "channel": 5,
      "note": 44,
      "start": 72.0457,
      "duration": 0.2017,
      "velocity": 127,
      "chip": "ym2612"
    },
    {
      "channel": 5,
      "note": 44,
      "start": 72.2474,
      "duration": 0.4073,
      "velocity": 117,
      "chip": "ym2612"
    },
    {
      "channel": 3,
      "note": 69,
      "start": 72.4463,
      "duration": 0.1003,
      "velocity": 119,
      "chip": "ym2612"
    },
    {
      "channel": 2,
      "note": 45,
      "start": 72.6545,
      "duration": 0.1636,
      "velocity": 89,
      "chip": "ym2612"
    },
    {
      "channel": 3,
      "note": 71,
      "start": 72.6546,
      "duration": 0.0962,
      "velocity": 119,
      "chip": "ym2612"
    },
    {
      "channel": 5,
      "note": 55,
      "start": 72.6547,
      "duration": 0.2043,
      "velocity": 117,
      "chip": "ym2612"
    },
    {
      "channel": 0,
      "note": 52,
      "start": 72.8589,
      "duration": 0.6987,
      "velocity": 85,
      "chip": "ym2612"
    },
    {
      "channel": 2,
      "note": 47,
      "start": 72.8589,
      "duration": 0.1595,
      "velocity": 89,
      "chip": "ym2612"
    },
    {
      "channel": 5,
      "note": 55,
      "start": 72.8591,
      "duration": 0.4034,
      "velocity": 117,
      "chip": "ym2612"
    },
    {
      "channel": 3,
      "note": 71,
      "start": 73.0551,
      "duration": 0.1001,
      "velocity": 119,
      "chip": "ym2612"
    },
    {
      "channel": 1,
      "note": 83,
      "start": 73.2623,
      "duration": 0.1615,
      "velocity": 99,
      "chip": "ym2612"
    },
    {
      "channel": 2,
      "note": 47,
      "start": 73.2624,
      "duration": 1.0555,
      "velocity": 89,
      "chip": "ym2612"
    },
    {
      "channel": 3,
      "note": 71,
      "start": 73.2624,
      "duration": 0.0935,
      "velocity": 119,
      "chip": "ym2612"
    },
    {
      "channel": 5,
      "note": 55,
      "start": 73.2626,
      "duration": 0.4047,
      "velocity": 127,
      "chip": "ym2612"
    },
    {
      "channel": 1,
      "note": 84,
      "start": 73.4586,
      "duration": 0.1663,
      "velocity": 99,
      "chip": "ym2612"
    },
    {
      "channel": 4,
      "note": 83,
      "start": 73.4913,
      "duration": 0.1759,
      "velocity": 99,
      "chip": "ym2612"
    },
    {
      "channel": 0,
      "note": 52,
      "start": 73.6671,
      "duration": 0.7016,
      "velocity": 85,
      "chip": "ym2612"
    },
    {
      "channel": 1,
      "note": 87,
      "start": 73.6671,
      "duration": 0.1109,
      "velocity": 99,
      "chip": "ym2612"
    },
    {
      "channel": 3,
      "note": 71,
      "start": 73.6672,
      "duration": 0.0926,
      "velocity": 119,
      "chip": "ym2612"
    },
    {
      "channel": 5,
      "note": 44,
      "start": 73.6673,
      "duration": 0.2011,
      "velocity": 127,
      "chip": "ym2612"
    },
    {
      "channel": 4,
      "note": 84,
      "start": 73.6929,
      "duration": 0.1755,
      "velocity": 99,
      "chip": "ym2612"
    },
    {
      "channel": 1,
      "note": 88,
      "start": 73.7781,
      "duration": 0.0662,
      "velocity": 99,
      "chip": "ym2612"
    },
    {
      "channel": 1,
      "note": 83,
      "start": 73.8683,
      "duration": 0.1615,
      "velocity": 99,
      "chip": "ym2612"
    },
    {
      "channel": 3,
      "note": 71,
      "start": 73.8683,
      "duration": 0.0938,
      "velocity": 119,
      "chip": "ym2612"
    },
    {
      "channel": 5,
      "note": 44,
      "start": 73.8685,
      "duration": 0.4014,
      "velocity": 127,
      "chip": "ym2612"
    },
    {
      "channel": 4,
      "note": 87,
      "start": 73.8954,
      "duration": 0.1188,
      "velocity": 99,
      "chip": "ym2612"
    },
    {
      "channel": 4,
      "note": 88,
      "start": 74.0143,
      "duration": 0.0659,
      "velocity": 99,
      "chip": "ym2612"
    },
    {
      "channel": 1,
      "note": 84,
      "start": 74.0651,
      "duration": 0.1685,
      "velocity": 99,
      "chip": "ym2612"
    },
    {
      "channel": 4,
      "note": 83,
      "start": 74.0976,
      "duration": 0.1723,
      "velocity": 99,
      "chip": "ym2612"
    },
    {
      "channel": 1,
      "note": 83,
      "start": 74.2698,
      "duration": 0.1661,
      "velocity": 99,
      "chip": "ym2612"
    },
    {
      "channel": 3,
      "note": 71,
      "start": 74.2699,
      "duration": 0.0989,
      "velocity": 119,
      "chip": "ym2612"
    },
    {
      "channel": 4,
      "note": 84,
      "start": 74.3015,
      "duration": 0.1775,
      "velocity": 99,
      "chip": "ym2612"
    },
    {
      "channel": 0,
      "note": 57,
      "start": 74.4787,
      "duration": 0.6971,
      "velocity": 85,
      "chip": "ym2612"
    },
    {
      "channel": 1,
      "note": 81,
      "start": 74.4788,
      "duration": 0.0933,
      "velocity": 99,
      "chip": "ym2612"
    },
    {
      "channel": 2,
      "note": 57,
      "start": 74.4788,
      "duration": 0.1593,
      "velocity": 89,
      "chip": "ym2612"
    },
    {
      "channel": 3,
      "note": 71,
      "start": 74.4789,
      "duration": 0.0932,
      "velocity": 119,
      "chip": "ym2612"
    },
    {
      "channel": 5,
      "note": 55,
      "start": 74.479,
      "duration": 0.3947,
      "velocity": 117,
      "chip": "ym2612"
    },
    {
      "channel": 4,
      "note": 83,
      "start": 74.5045,
      "duration": 0.1689,
      "velocity": 99,
      "chip": "ym2612"
    },
    {
      "channel": 1,
      "note": 80,
      "start": 74.5721,
      "duration": 0.4352,
      "velocity": 99,
      "chip": "ym2612"
    },
    {
      "channel": 2,
      "note": 52,
      "start": 74.6733,
      "duration": 1.0605,
      "velocity": 89,
      "chip": "ym2612"
    },
    {
      "channel": 3,
      "note": 71,
      "start": 74.6734,
      "duration": 0.0993,
      "velocity": 119,
      "chip": "ym2612"
    },
    {
      "channel": 4,
      "note": 81,
      "start": 74.7064,
      "duration": 0.1008,
      "velocity": 99,
      "chip": "ym2612"
    },
    {
      "channel": 4,
      "note": 80,
      "start": 74.8073,
      "duration": 0.4357,
      "velocity": 99,
      "chip": "ym2612"
    },
    {
      "channel": 1,
      "note": 83,
      "start": 75.0763,
      "duration": 0.8765,
      "velocity": 99,
      "chip": "ym2612"
    },
    {
      "channel": 3,
      "note": 71,
      "start": 75.0764,
      "duration": 0.0994,
      "velocity": 119,
      "chip": "ym2612"
    },
    {
      "channel": 0,
      "note": 57,
      "start": 75.2818,
      "duration": 0.7048,
      "velocity": 85,
      "chip": "ym2612"
    },
    {
      "channel": 3,
      "note": 71,
      "start": 75.2819,
      "duration": 0.0959,
      "velocity": 119,
      "chip": "ym2612"
    },
    {
      "channel": 5,
      "note": 44,
      "start": 75.2835,
      "duration": 0.2013,
      "velocity": 127,
      "chip": "ym2612"
    },
    {
      "channel": 4,
      "note": 83,
      "start": 75.3111,
      "duration": 0.8778,
      "velocity": 99,
      "chip": "ym2612"
    },
    {
      "channel": 5,
      "note": 44,
      "start": 75.4849,
      "duration": 0.4055,
      "velocity": 117,
      "chip": "ym2612"
    },
    {
      "channel": 3,
      "note": 69,
      "start": 75.6841,
      "duration": 0.1003,
      "velocity": 119,
      "chip": "ym2612"
    },
    {
      "channel": 2,
      "note": 45,
      "start": 75.8903,
      "duration": 0.1635,
      "velocity": 89,
      "chip": "ym2612"
    },
    {
      "channel": 3,
      "note": 71,
      "start": 75.8904,
      "duration": 0.0962,
      "velocity": 119,
      "chip": "ym2612"
    },
    {
      "channel": 5,
      "note": 55,
      "start": 75.8905,
      "duration": 0.2047,
      "velocity": 117,
      "chip": "ym2612"
    },
    {
      "channel": 0,
      "note": 53,
      "start": 76.095,
      "duration": 0.6987,
      "velocity": 85,
      "chip": "ym2612"
    },
    {
      "channel": 2,
      "note": 48,
      "start": 76.0951,
      "duration": 0.1606,
      "velocity": 89,
      "chip": "ym2612"
    },
    {
      "channel": 5,
      "note": 55,
      "start": 76.0953,
      "duration": 0.4015,
      "velocity": 117,
      "chip": "ym2612"
    },
    {
      "channel": 3,
      "note": 72,
      "start": 76.2902,
      "duration": 0.099,
      "velocity": 119,
      "chip": "ym2612"
    },
    {
      "channel": 1,
      "note": 83,
      "start": 76.4965,
      "duration": 0.1623,
      "velocity": 99,
      "chip": "ym2612"
    },
    {
      "channel": 2,
      "note": 48,
      "start": 76.4966,
      "duration": 0.3473,
      "velocity": 89,
      "chip": "ym2612"
    },
    {
      "channel": 3,
      "note": 72,
      "start": 76.4967,
      "duration": 0.0945,
      "velocity": 119,
      "chip": "ym2612"
    },
    {
      "channel": 5,
      "note": 55,
      "start": 76.4968,
      "duration": 0.4069,
      "velocity": 127,
      "chip": "ym2612"
    },
    {
      "channel": 1,
      "note": 84,
      "start": 76.694,
      "duration": 0.1669,
      "velocity": 99,
      "chip": "ym2612"
    },
    {
      "channel": 4,
      "note": 83,
      "start": 76.7269,
      "duration": 0.1768,
      "velocity": 99,
      "chip": "ym2612"
    },
    {
      "channel": 0,
      "note": 51,
      "start": 76.9034,
      "duration": 0.1598,
      "velocity": 85,
      "chip": "ym2612"
    },
    {
      "channel": 1,
      "note": 87,
      "start": 76.9034,
      "duration": 0.1105,
      "velocity": 99,
      "chip": "ym2612"
    },
    {
      "channel": 2,
      "note": 47,
      "start": 76.9035,
      "duration": 0.701,
      "velocity": 89,
      "chip": "ym2612"
    },
    {
      "channel": 3,
      "note": 71,
      "start": 76.9036,
      "duration": 0.0922,
      "velocity": 119,
      "chip": "ym2612"
    },
    {
      "channel": 5,
      "note": 44,
      "start": 76.9038,
      "duration": 0.2013,
      "velocity": 127,
      "chip": "ym2612"
    },
    {
      "channel": 4,
      "note": 84,
      "start": 76.9289,
      "duration": 0.1761,
      "velocity": 99,
      "chip": "ym2612"
    },
    {
      "channel": 1,
      "note": 88,
      "start": 77.014,
      "duration": 0.066,
      "velocity": 99,
      "chip": "ym2612"
    },
    {
      "channel": 0,
      "note": 63,
      "start": 77.1049,
      "duration": 0.1626,
      "velocity": 85,
      "chip": "ym2612"
    },
    {
      "channel": 1,
      "note": 83,
      "start": 77.1049,
      "duration": 0.1625,
      "velocity": 99,
      "chip": "ym2612"
    },
    {
      "channel": 3,
      "note": 71,
      "start": 77.105,
      "duration": 0.0934,
      "velocity": 119,
      "chip": "ym2612"
    },
    {
      "channel": 5,
      "note": 44,
      "start": 77.1052,
      "duration": 0.4006,
      "velocity": 127,
      "chip": "ym2612"
    },
    {
      "channel": 4,
      "note": 87,
      "start": 77.1317,
      "duration": 0.1201,
      "velocity": 99,
      "chip": "ym2612"
    },
    {
      "channel": 4,
      "note": 88,
      "start": 77.2519,
      "duration": 0.0662,
      "velocity": 99,
      "chip": "ym2612"
    },
    {
      "channel": 0,
      "note": 51,
      "start": 77.3032,
      "duration": 0.3517,
      "velocity": 85,
      "chip": "ym2612"
    },
    {
      "channel": 1,
      "note": 84,
      "start": 77.3033,
      "duration": 0.1664,
      "velocity": 99,
      "chip": "ym2612"
    },
    {
      "channel": 4,
      "note": 83,
      "start": 77.3353,
      "duration": 0.1704,
      "velocity": 99,
      "chip": "ym2612"
    },
    {
      "channel": 1,
      "note": 83,
      "start": 77.5056,
      "duration": 0.1662,
      "velocity": 99,
      "chip": "ym2612"
    },
    {
      "channel": 3,
      "note": 71,
      "start": 77.5057,
      "duration": 0.0988,
      "velocity": 119,
      "chip": "ym2612"
    },
    {
      "channel": 4,
      "note": 84,
      "start": 77.5374,
      "duration": 0.1799,
      "velocity": 99,
      "chip": "ym2612"
    },
    {
      "channel": 0,
      "note": 52,
      "start": 77.717,
      "duration": 2.8212,
      "velocity": 85,
      "chip": "ym2612"
    },
    {
      "channel": 1,
      "note": 88,
      "start": 77.7171,
      "duration": 0.0901,
      "velocity": 99,
      "chip": "ym2612"
    },
    {
      "channel": 2,
      "note": 52,
      "start": 77.7171,
      "duration": 0.1553,
      "velocity": 89,
      "chip": "ym2612"
    },
    {
      "channel": 3,
      "note": 71,
      "start": 77.7172,
      "duration": 0.0902,
      "velocity": 119,
      "chip": "ym2612"
    },
    {
      "channel": 5,
      "note": 55,
      "start": 77.7173,
      "duration": 0.3918,
      "velocity": 117,
      "chip": "ym2612"
    },
    {
      "channel": 4,
      "note": 83,
      "start": 77.7399,
      "duration": 0.1676,
      "velocity": 99,
      "chip": "ym2612"
    },
    {
      "channel": 1,
      "note": 87,
      "start": 77.8072,
      "duration": 2.731,
      "velocity": 99,
      "chip": "ym2612"
    },
    {
      "channel": 2,
      "note": 47,
      "start": 77.9073,
      "duration": 1.0624,
      "velocity": 89,
      "chip": "ym2612"
    },
    {
      "channel": 3,
      "note": 71,
      "start": 77.9074,
      "duration": 0.0998,
      "velocity": 119,
      "chip": "ym2612"
    },
    {
      "channel": 4,
      "note": 88,
      "start": 77.9415,
      "duration": 0.1006,
      "velocity": 99,
      "chip": "ym2612"
    },
    {
      "channel": 4,
      "note": 87,
      "start": 78.0421,
      "duration": 2.7305,
      "velocity": 99,
      "chip": "ym2612"
    },
    {
      "channel": 3,
      "note": 71,
      "start": 78.3124,
      "duration": 0.1003,
      "velocity": 119,
      "chip": "ym2612"
    },
    {
      "channel": 3,
      "note": 71,
      "start": 78.5177,
      "duration": 0.0962,
      "velocity": 119,
      "chip": "ym2612"
    },
    {
      "channel": 5,
      "note": 44,
      "start": 78.5178,
      "duration": 0.2031,
      "velocity": 127,
      "chip": "ym2612"
    },
    {
      "channel": 5,
      "note": 44,
      "start": 78.721,
      "duration": 0.4055,
      "velocity": 117,
      "chip": "ym2612"
    },
    {
      "channel": 3,
      "note": 69,
      "start": 78.9199,
      "duration": 0.0984,
      "velocity": 119,
      "chip": "ym2612"
    },
    {
      "channel": 2,
      "note": 45,
      "start": 79.1263,
      "duration": 0.163,
      "velocity": 89,
      "chip": "ym2612"
    },
    {
      "channel": 3,
      "note": 71,
      "start": 79.1263,
      "duration": 0.0961,
      "velocity": 119,
      "chip": "ym2612"
    },
    {
      "channel": 5,
      "note": 55,
      "start": 79.1265,
      "duration": 0.2033,
      "velocity": 117,
      "chip": "ym2612"
    },
    {
      "channel": 2,
      "note": 47,
      "start": 79.3297,
      "duration": 0.346,
      "velocity": 89,
      "chip": "ym2612"
    },
    {
      "channel": 5,
      "note": 55,
      "start": 79.3299,
      "duration": 0.4039,
      "velocity": 117,
      "chip": "ym2612"
    },
    {
      "channel": 3,
      "note": 71,
      "start": 79.5266,
      "duration": 0.0985,
      "velocity": 119,
      "chip": "ym2612"
    },
    {
      "channel": 2,
      "note": 47,
      "start": 79.7337,
      "duration": 1.0557,
      "velocity": 89,
      "chip": "ym2612"
    },
    {
      "channel": 3,
      "note": 71,
      "start": 79.7337,
      "duration": 0.0937,
      "velocity": 119,
      "chip": "ym2612"
    },
    {
      "channel": 5,
      "note": 55,
      "start": 79.7339,
      "duration": 0.4042,
      "velocity": 127,
      "chip": "ym2612"
    },
    {
      "channel": 3,
      "note": 71,
      "start": 80.138,
      "duration": 0.0956,
      "velocity": 119,
      "chip": "ym2612"
    },
    {
      "channel": 5,
      "note": 44,
      "start": 80.1381,
      "duration": 0.201,
      "velocity": 127,
      "chip": "ym2612"
    },
    {
      "channel": 3,
      "note": 71,
      "start": 80.3391,
      "duration": 0.0969,
      "velocity": 119,
      "chip": "ym2612"
    },
    {
      "channel": 5,
      "note": 44,
      "start": 80.3392,
      "duration": 0.401,
      "velocity": 127,
      "chip": "ym2612"
    },
    {
      "channel": 3,
      "note": 71,
      "start": 80.7402,
      "duration": 0.099,
      "velocity": 119,
      "chip": "ym2612"
    },
    {
      "channel": 0,
      "note": 52,
      "start": 80.9512,
      "duration": 2.8273,
      "velocity": 85,
      "chip": "ym2612"
    },
    {
      "channel": 2,
      "note": 52,
      "start": 80.9512,
      "duration": 0.1568,
      "velocity": 89,
      "chip": "ym2612"
    },
    {
      "channel": 3,
      "note": 71,
      "start": 80.9513,
      "duration": 0.0903,
      "velocity": 119,
      "chip": "ym2612"
    },
    {
      "channel": 5,
      "note": 55,
      "start": 80.9514,
      "duration": 0.1962,
      "velocity": 125,
      "chip": "ym2612"
    },
    {
      "channel": 2,
      "note": 47,
      "start": 81.1476,
      "duration": 1.0579,
      "velocity": 89,
      "chip": "ym2612"
    },
    {
      "channel": 3,
      "note": 71,
      "start": 81.1476,
      "duration": 0.0953,
      "velocity": 119,
      "chip": "ym2612"
    },
    {
      "channel": 5,
      "note": 38,
      "start": 81.1477,
      "duration": 0.4049,
      "velocity": 125,
      "chip": "ym2612"
    },
    {
      "channel": 3,
      "note": 71,
      "start": 81.5526,
      "duration": 0.0949,
      "velocity": 119,
      "chip": "ym2612"
    },
    {
      "channel": 5,
      "note": 38,
      "start": 81.5526,
      "duration": 0.2021,
      "velocity": 127,
      "chip": "ym2612"
    },
    {
      "channel": 3,
      "note": 71,
      "start": 81.7547,
      "duration": 0.097,
      "velocity": 119,
      "chip": "ym2612"
    },
    {
      "channel": 5,
      "note": 44,
      "start": 81.7548,
      "duration": 0.2017,
      "velocity": 127,
      "chip": "ym2612"
    },
    {
      "channel": 5,
      "note": 44,
      "start": 81.9566,
      "duration": 0.2028,
      "velocity": 125,
      "chip": "ym2612"
    },
    {
      "channel": 3,
      "note": 69,
      "start": 82.1593,
      "duration": 0.0963,
      "velocity": 119,
      "chip": "ym2612"
    },
    {
      "channel": 5,
      "note": 49,
      "start": 82.1594,
      "duration": 0.2017,
      "velocity": 117,
      "chip": "ym2612"
    },
    {
      "channel": 2,
      "note": 45,
      "start": 82.3609,
      "duration": 0.1648,
      "velocity": 89,
      "chip": "ym2612"
    },
    {
      "channel": 3,
      "note": 71,
      "start": 82.361,
      "duration": 0.0963,
      "velocity": 119,
      "chip": "ym2612"
    },
    {
      "channel": 5,
      "note": 55,
      "start": 82.3611,
      "duration": 0.2026,
      "velocity": 117,
      "chip": "ym2612"
    },
    {
      "channel": 2,
      "note": 47,
      "start": 82.5636,
      "duration": 0.3478,
      "velocity": 89,
      "chip": "ym2612"
    },
    {
      "channel": 5,
      "note": 55,
      "start": 82.5638,
      "duration": 0.2004,
      "velocity": 125,
      "chip": "ym2612"
    },
    {
      "channel": 3,
      "note": 71,
      "start": 82.7641,
      "duration": 0.0969,
      "velocity": 119,
      "chip": "ym2612"
    },
    {
      "channel": 5,
      "note": 57,
      "start": 82.7642,
      "duration": 0.2047,
      "velocity": 117,
      "chip": "ym2612"
    },
    {
      "channel": 2,
      "note": 47,
      "start": 82.9688,
      "duration": 0.1616,
      "velocity": 89,
      "chip": "ym2612"
    },
    {
      "channel": 3,
      "note": 71,
      "start": 82.9688,
      "duration": 0.0944,
      "velocity": 119,
      "chip": "ym2612"
    },
    {
      "channel": 5,
      "note": 55,
      "start": 82.969,
      "duration": 0.2021,
      "velocity": 125,
      "chip": "ym2612"
    },
    {
      "channel": 2,
      "note": 52,
      "start": 83.171,
      "duration": 0.1636,
      "velocity": 89,
      "chip": "ym2612"
    },
    {
      "channel": 3,
      "note": 71,
      "start": 83.171,
      "duration": 0.0962,
      "velocity": 119,
      "chip": "ym2612"
    },
    {
      "channel": 5,
      "note": 57,
      "start": 83.1711,
      "duration": 0.2024,
      "velocity": 127,
      "chip": "ym2612"
    },
    {
      "channel": 1,
      "note": 88,
      "start": 83.3734,
      "duration": 0.3489,
      "velocity": 99,
      "chip": "ym2612"
    },
    {
      "channel": 2,
      "note": 48,
      "start": 83.3735,
      "duration": 0.1632,
      "velocity": 89,
      "chip": "ym2612"
    },
    {
      "channel": 5,
      "note": 44,
      "start": 83.3736,
      "duration": 0.2021,
      "velocity": 125,
      "chip": "ym2612"
    },
    {
      "channel": 2,
      "note": 47,
      "start": 83.5755,
      "duration": 0.1633,
      "velocity": 89,
      "chip": "ym2612"
    },
    {
      "channel": 3,
      "note": 71,
      "start": 83.5756,
      "duration": 0.096,
      "velocity": 119,
      "chip": "ym2612"
    },
    {
      "channel": 5,
      "note": 49,
      "start": 83.5757,
      "duration": 0.2029,
      "velocity": 125,
      "chip": "ym2612"
    },
    {
      "channel": 4,
      "note": 88,
      "start": 83.6049,
      "duration": 0.3521,
      "velocity": 99,
      "chip": "ym2612"
    },
    {
      "channel": 1,
      "note": 87,
      "start": 83.7785,
      "duration": 0.1122,
      "velocity": 99,
      "chip": "ym2612"
    },
    {
      "channel": 2,
      "note": 44,
      "start": 83.7786,
      "duration": 0.1607,
      "velocity": 89,
      "chip": "ym2612"
    },
    {
      "channel": 5,
      "note": 38,
      "start": 83.7787,
      "duration": 0.3801,
      "velocity": 125,
      "chip": "ym2612"
    },
    {
      "channel": 1,
      "note": 88,
      "start": 83.8908,
      "duration": 0.2356,
      "velocity": 99,
      "chip": "ym2612"
    },
    {
      "channel": 2,
      "note": 45,
      "start": 83.975,
      "duration": 0.1666,
      "velocity": 89,
      "chip": "ym2612"
    },
    {
      "channel": 3,
      "note": 71,
      "start": 83.9751,
      "duration": 0.0993,
      "velocity": 119,
      "chip": "ym2612"
    },
    {
      "channel": 4,
      "note": 87,
      "start": 84.0077,
      "duration": 0.1188,
      "velocity": 99,
      "chip": "ym2612"
    },
    {
      "channel": 4,
      "note": 88,
      "start": 84.1266,
      "duration": 0.0323,
      "velocity": 99,
      "chip": "ym2612"
    }
  ]
}