{
  "track_name": "02 - Configuration",
  "duration_sec": 80.893,
  "sample_rate": 44100,
  "note_count": 659,
  "unique_pitches": 21,
  "pitch_range": 73,
  "avg_note_duration": 0.145,
  "reconstruction_stats": {
    "notes_reconstructed": 659,
    "keyon_events": 659,
    "keyoff_events": 644,
    "orphan_keyons": 1,
    "unique_pitches": 21,
    "pitch_range": 73,
    "avg_duration_sec": 0.145
  },
  "metadata": {
    "source": "D\\Dr. Robotnik's Mean Bean Machine\\02 - Configuration.vgz"
  },
  "notes": [
    {
      "channel": 0,
      "note": 62,
      "start": 0.0,
      "duration": 0.4342,
      "velocity": 104,
      "chip": "ym2612"
    },
    {
      "channel": 2,
      "note": 93,
      "start": 0.0069,
      "duration": 0.0136,
      "velocity": 77,
      "chip": "ym2612"
    },
    {
      "channel": 2,
      "note": 93,
      "start": 0.0363,
      "duration": 0.0241,
      "velocity": 77,
      "chip": "ym2612"
    },
    {
      "channel": 2,
      "note": 93,
      "start": 0.151,
      "duration": 0.0359,
      "velocity": 77,
      "chip": "ym2612"
    },
    {
      "channel": 0,
      "note": 60,
      "start": 0.451,
      "duration": 0.2734,
      "velocity": 104,
      "chip": "ym2612"
    },
    {
      "channel": 2,
      "note": 93,
      "start": 0.4517,
      "duration": 0.0068,
      "velocity": 77,
      "chip": "ym2612"
    },
    {
      "channel": 2,
      "note": 93,
      "start": 0.5326,
      "duration": 0.0359,
      "velocity": 77,
      "chip": "ym2612"
    },
    {
      "channel": 2,
      "note": 93,
      "start": 0.6589,
      "duration": 0.0072,
      "velocity": 77,
      "chip": "ym2612"
    },
    {
      "channel": 0,
      "note": 57,
      "start": 0.815,
      "duration": 0.0659,
      "velocity": 104,
      "chip": "ym2612"
    },
    {
      "channel": 0,
      "note": 55,
      "start": 0.9715,
      "duration": 0.0305,
      "velocity": 104,
      "chip": "ym2612"
    },
    {
      "channel": 2,
      "note": 93,
      "start": 0.9722,
      "duration": 0.007,
      "velocity": 77,
      "chip": "ym2612"
    },
    {
      "channel": 2,
      "note": 93,
      "start": 0.9959,
      "duration": 0.0066,
      "velocity": 77,
      "chip": "ym2612"
    },
    {
      "channel": 0,
      "note": 57,
      "start": 1.0197,
      "duration": 0.1176,
      "velocity": 104,
      "chip": "ym2612"
    },
    {
      "channel": 2,
      "note": 93,
      "start": 1.0205,
      "duration": 0.0069,
      "velocity": 77,
      "chip": "ym2612"
    },
    {
      "channel": 0,
      "note": 62,
      "start": 2.3644,
      "duration": 0.437,
      "velocity": 104,
      "chip": "ym2612"
    },
    {
      "channel": 2,
      "note": 93,
      "start": 2.3654,
      "duration": 0.0077,
      "velocity": 77,
      "chip": "ym2612"
    },
    {
      "channel": 2,
      "note": 93,
      "start": 2.3931,
      "duration": 0.0359,
      "velocity": 77,
      "chip": "ym2612"
    },
    {
      "channel": 2,
      "note": 93,
      "start": 2.5195,
      "duration": 0.0359,
      "velocity": 77,
      "chip": "ym2612"
    },
    {
      "channel": 0,
      "note": 60,
      "start": 2.8195,
      "duration": 0.2736,
      "velocity": 104,
      "chip": "ym2612"
    },
    {
      "channel": 2,
      "note": 93,
      "start": 2.8203,
      "duration": 0.0068,
      "velocity": 77,
      "chip": "ym2612"
    },
    {
      "channel": 2,
      "note": 93,
      "start": 2.9014,
      "duration": 0.0369,
      "velocity": 77,
      "chip": "ym2612"
    },
    {
      "channel": 2,
      "note": 93,
      "start": 3.0277,
      "duration": 0.0072,
      "velocity": 77,
      "chip": "ym2612"
    },
    {
      "channel": 0,
      "note": 57,
      "start": 3.1836,
      "duration": 0.0661,
      "velocity": 104,
      "chip": "ym2612"
    },
    {
      "channel": 0,
      "note": 55,
      "start": 3.3402,
      "duration": 0.0316,
      "velocity": 104,
      "chip": "ym2612"
    },
    {
      "channel": 2,
      "note": 93,
      "start": 3.3409,
      "duration": 0.0071,
      "velocity": 77,
      "chip": "ym2612"
    },
    {
      "channel": 2,
      "note": 93,
      "start": 3.3657,
      "duration": 0.0066,
      "velocity": 77,
      "chip": "ym2612"
    },
    {
      "channel": 0,
      "note": 57,
      "start": 3.3883,
      "duration": 0.1167,
      "velocity": 104,
      "chip": "ym2612"
    },
    {
      "channel": 2,
      "note": 93,
      "start": 3.39,
      "duration": 0.0071,
      "velocity": 77,
      "chip": "ym2612"
    },
    {
      "channel": 0,
      "note": 62,
      "start": 4.7328,
      "duration": 0.4387,
      "velocity": 104,
      "chip": "ym2612"
    },
    {
      "channel": 2,
      "note": 93,
      "start": 4.7373,
      "duration": 0.0077,
      "velocity": 77,
      "chip": "ym2612"
    },
    {
      "channel": 2,
      "note": 93,
      "start": 4.7623,
      "duration": 0.035,
      "velocity": 77,
      "chip": "ym2612"
    },
    {
      "channel": 1,
      "note": 74,
      "start": 4.8876,
      "duration": 0.2164,
      "velocity": 102,
      "chip": "ym2612"
    },
    {
      "channel": 2,
      "note": 93,
      "start": 4.8881,
      "duration": 0.0356,
      "velocity": 77,
      "chip": "ym2612"
    },
    {
      "channel": 1,
      "note": 77,
      "start": 5.1404,
      "duration": 0.0411,
      "velocity": 102,
      "chip": "ym2612"
    },
    {
      "channel": 4,
      "note": 125,
      "start": 5.1596,
      "duration": 0.0411,
      "velocity": 102,
      "chip": "ym2612"
    },
    {
      "channel": 0,
      "note": 60,
      "start": 5.188,
      "duration": 0.2733,
      "velocity": 104,
      "chip": "ym2612"
    },
    {
      "channel": 1,
      "note": 81,
      "start": 5.1898,
      "duration": 0.1698,
      "velocity": 102,
      "chip": "ym2612"
    },
    {
      "channel": 2,
      "note": 93,
      "start": 5.1903,
      "duration": 0.0067,
      "velocity": 77,
      "chip": "ym2612"
    },
    {
      "channel": 4,
      "note": 74,
      "start": 5.2342,
      "duration": 0.173,
      "velocity": 102,
      "chip": "ym2612"
    },
    {
      "channel": 2,
      "note": 93,
      "start": 5.2697,
      "duration": 0.0359,
      "velocity": 77,
      "chip": "ym2612"
    },
    {
      "channel": 1,
      "note": 79,
      "start": 5.3959,
      "duration": 0.1199,
      "velocity": 102,
      "chip": "ym2612"
    },
    {
      "channel": 2,
      "note": 93,
      "start": 5.3963,
      "duration": 0.0071,
      "velocity": 77,
      "chip": "ym2612"
    },
    {
      "channel": 4,
      "note": 77,
      "start": 5.414,
      "duration": 0.1493,
      "velocity": 102,
      "chip": "ym2612"
    },
    {
      "channel": 0,
      "note": 57,
      "start": 5.5518,
      "duration": 0.0664,
      "velocity": 104,
      "chip": "ym2612"
    },
    {
      "channel": 1,
      "note": 77,
      "start": 5.5523,
      "duration": 0.1196,
      "velocity": 102,
      "chip": "ym2612"
    },
    {
      "channel": 4,
      "note": 81,
      "start": 5.5698,
      "duration": 0.15,
      "velocity": 102,
      "chip": "ym2612"
    },
    {
      "channel": 0,
      "note": 55,
      "start": 5.708,
      "duration": 0.0319,
      "velocity": 104,
      "chip": "ym2612"
    },
    {
      "channel": 1,
      "note": 74,
      "start": 5.7085,
      "duration": 0.0412,
      "velocity": 102,
      "chip": "ym2612"
    },
    {
      "channel": 2,
      "note": 93,
      "start": 5.709,
      "duration": 0.007,
      "velocity": 77,
      "chip": "ym2612"
    },
    {
      "channel": 4,
      "note": 79,
      "start": 5.7264,
      "duration": 0.0412,
      "velocity": 102,
      "chip": "ym2612"
    },
    {
      "channel": 2,
      "note": 93,
      "start": 5.7338,
      "duration": 0.0066,
      "velocity": 77,
      "chip": "ym2612"
    },
    {
      "channel": 0,
      "note": 57,
      "start": 5.7561,
      "duration": 0.1168,
      "velocity": 104,
      "chip": "ym2612"
    },
    {
      "channel": 1,
      "note": 77,
      "start": 5.7566,
      "duration": 0.1707,
      "velocity": 102,
      "chip": "ym2612"
    },
    {
      "channel": 2,
      "note": 93,
      "start": 5.7571,
      "duration": 0.0067,
      "velocity": 77,
      "chip": "ym2612"
    },
    {
      "channel": 4,
      "note": 77,
      "start": 5.8025,
      "duration": 0.1759,
      "velocity": 102,
      "chip": "ym2612"
    },
    {
      "channel": 0,
      "note": 62,
      "start": 5.9651,
      "duration": 0.4373,
      "velocity": 104,
      "chip": "ym2612"
    },
    {
      "channel": 2,
      "note": 93,
      "start": 5.9659,
      "duration": 0.0075,
      "velocity": 77,
      "chip": "ym2612"
    },
    {
      "channel": 4,
      "note": 74,
      "start": 5.9849,
      "duration": 0.1899,
      "velocity": 102,
      "chip": "ym2612"
    },
    {
      "channel": 2,
      "note": 93,
      "start": 5.9939,
      "duration": 0.0359,
      "velocity": 77,
      "chip": "ym2612"
    },
    {
      "channel": 1,
      "note": 77,
      "start": 6.1201,
      "duration": 0.2165,
      "velocity": 102,
      "chip": "ym2612"
    },
    {
      "channel": 2,
      "note": 93,
      "start": 6.1218,
      "duration": 0.0344,
      "velocity": 77,
      "chip": "ym2612"
    },
    {
      "channel": 1,
      "note": 79,
      "start": 6.3729,
      "duration": 0.041,
      "velocity": 102,
      "chip": "ym2612"
    },
    {
      "channel": 4,
      "note": 77,
      "start": 6.3907,
      "duration": 0.0408,
      "velocity": 102,
      "chip": "ym2612"
    },
    {
      "channel": 0,
      "note": 60,
      "start": 6.4203,
      "duration": 0.1773,
      "velocity": 104,
      "chip": "ym2612"
    },
    {
      "channel": 1,
      "note": 74,
      "start": 6.4208,
      "duration": 0.0985,
      "velocity": 102,
      "chip": "ym2612"
    },
    {
      "channel": 4,
      "note": 77,
      "start": 6.4665,
      "duration": 0.0764,
      "velocity": 102,
      "chip": "ym2612"
    },
    {
      "channel": 1,
      "note": 77,
      "start": 6.5318,
      "duration": 0.1202,
      "velocity": 102,
      "chip": "ym2612"
    },
    {
      "channel": 4,
      "note": 79,
      "start": 6.5497,
      "duration": 0.1499,
      "velocity": 102,
      "chip": "ym2612"
    },
    {
      "channel": 0,
      "note": 57,
      "start": 6.688,
      "duration": 0.066,
      "velocity": 104,
      "chip": "ym2612"
    },
    {
      "channel": 1,
      "note": 77,
      "start": 6.6885,
      "duration": 0.1199,
      "velocity": 102,
      "chip": "ym2612"
    },
    {
      "channel": 4,
      "note": 74,
      "start": 6.7077,
      "duration": 0.1498,
      "velocity": 102,
      "chip": "ym2612"
    },
    {
      "channel": 0,
      "note": 55,
      "start": 6.8446,
      "duration": 0.0315,
      "velocity": 104,
      "chip": "ym2612"
    },
    {
      "channel": 1,
      "note": 79,
      "start": 6.845,
      "duration": 0.041,
      "velocity": 102,
      "chip": "ym2612"
    },
    {
      "channel": 4,
      "note": 77,
      "start": 6.8642,
      "duration": 0.0407,
      "velocity": 102,
      "chip": "ym2612"
    },
    {
      "channel": 0,
      "note": 57,
      "start": 6.8925,
      "duration": 0.1171,
      "velocity": 104,
      "chip": "ym2612"
    },
    {
      "channel": 4,
      "note": 77,
      "start": 6.9386,
      "duration": 0.1754,
      "velocity": 102,
      "chip": "ym2612"
    },
    {
      "channel": 0,
      "note": 62,
      "start": 7.1018,
      "duration": 0.4385,
      "velocity": 104,
      "chip": "ym2612"
    },
    {
      "channel": 2,
      "note": 93,
      "start": 7.1029,
      "duration": 0.0075,
      "velocity": 77,
      "chip": "ym2612"
    },
    {
      "channel": 2,
      "note": 93,
      "start": 7.1304,
      "duration": 0.0359,
      "velocity": 77,
      "chip": "ym2612"
    },
    {
      "channel": 1,
      "note": 74,
      "start": 7.2565,
      "duration": 0.2166,
      "velocity": 102,
      "chip": "ym2612"
    },
    {
      "channel": 2,
      "note": 93,
      "start": 7.257,
      "duration": 0.0356,
      "velocity": 77,
      "chip": "ym2612"
    },
    {
      "channel": 1,
      "note": 77,
      "start": 7.5093,
      "duration": 0.0409,
      "velocity": 102,
      "chip": "ym2612"
    },
    {
      "channel": 4,
      "note": 79,
      "start": 7.5271,
      "duration": 0.041,
      "velocity": 102,
      "chip": "ym2612"
    },
    {
      "channel": 0,
      "note": 60,
      "start": 7.5567,
      "duration": 0.2736,
      "velocity": 104,
      "chip": "ym2612"
    },
    {
      "channel": 1,
      "note": 81,
      "start": 7.5572,
      "duration": 0.171,
      "velocity": 102,
      "chip": "ym2612"
    },
    {
      "channel": 2,
      "note": 93,
      "start": 7.5577,
      "duration": 0.0066,
      "velocity": 77,
      "chip": "ym2612"
    },
    {
      "channel": 4,
      "note": 74,
      "start": 7.6032,
      "duration": 0.1741,
      "velocity": 102,
      "chip": "ym2612"
    },
    {
      "channel": 2,
      "note": 93,
      "start": 7.6383,
      "duration": 0.0359,
      "velocity": 77,
      "chip": "ym2612"
    },
    {
      "channel": 1,
      "note": 79,
      "start": 7.7645,
      "duration": 0.1202,
      "velocity": 102,
      "chip": "ym2612"
    },
    {
      "channel": 2,
      "note": 93,
      "start": 7.765,
      "duration": 0.0085,
      "velocity": 77,
      "chip": "ym2612"
    },
    {
      "channel": 4,
      "note": 77,
      "start": 7.7841,
      "duration": 0.1493,
      "velocity": 102,
      "chip": "ym2612"
    },
    {
      "channel": 0,
      "note": 57,
      "start": 7.9208,
      "duration": 0.0658,
      "velocity": 104,
      "chip": "ym2612"
    },
    {
      "channel": 1,
      "note": 77,
      "start": 7.9225,
      "duration": 0.1195,
      "velocity": 102,
      "chip": "ym2612"
    },
    {
      "channel": 4,
      "note": 81,
      "start": 7.9401,
      "duration": 0.1487,
      "velocity": 102,
      "chip": "ym2612"
    },
    {
      "channel": 0,
      "note": 55,
      "start": 8.077,
      "duration": 0.0303,
      "velocity": 104,
      "chip": "ym2612"
    },
    {
      "channel": 1,
      "note": 74,
      "start": 8.0775,
      "duration": 0.041,
      "velocity": 102,
      "chip": "ym2612"
    },
    {
      "channel": 2,
      "note": 93,
      "start": 8.078,
      "duration": 0.007,
      "velocity": 77,
      "chip": "ym2612"
    },
    {
      "channel": 4,
      "note": 79,
      "start": 8.0954,
      "duration": 0.041,
      "velocity": 102,
      "chip": "ym2612"
    },
    {
      "channel": 2,
      "note": 93,
      "start": 8.1015,
      "duration": 0.0064,
      "velocity": 77,
      "chip": "ym2612"
    },
    {
      "channel": 0,
      "note": 57,
      "start": 8.1249,
      "duration": 0.1171,
      "velocity": 104,
      "chip": "ym2612"
    },
    {
      "channel": 1,
      "note": 77,
      "start": 8.1254,
      "duration": 0.1707,
      "velocity": 102,
      "chip": "ym2612"
    },
    {
      "channel": 2,
      "note": 93,
      "start": 8.1259,
      "duration": 0.0067,
      "velocity": 77,
      "chip": "ym2612"
    },
    {
      "channel": 4,
      "note": 77,
      "start": 8.1708,
      "duration": 0.175,
      "velocity": 102,
      "chip": "ym2612"
    },
    {
      "channel": 0,
      "note": 62,
      "start": 8.334,
      "duration": 0.4386,
      "velocity": 104,
      "chip": "ym2612"
    },
    {
      "channel": 2,
      "note": 93,
      "start": 8.3349,
      "duration": 0.0072,
      "velocity": 77,
      "chip": "ym2612"
    },
    {
      "channel": 4,
      "note": 74,
      "start": 8.3524,
      "duration": 0.1913,
      "velocity": 102,
      "chip": "ym2612"
    },
    {
      "channel": 2,
      "note": 93,
      "start": 8.3629,
      "duration": 0.0357,
      "velocity": 77,
      "chip": "ym2612"
    },
    {
      "channel": 1,
      "note": 77,
      "start": 8.4889,
      "duration": 0.2165,
      "velocity": 102,
      "chip": "ym2612"
    },
    {
      "channel": 2,
      "note": 93,
      "start": 8.4894,
      "duration": 0.0357,
      "velocity": 77,
      "chip": "ym2612"
    },
    {
      "channel": 1,
      "note": 74,
      "start": 8.7418,
      "duration": 0.0408,
      "velocity": 102,
      "chip": "ym2612"
    },
    {
      "channel": 4,
      "note": 77,
      "start": 8.7609,
      "duration": 0.0407,
      "velocity": 102,
      "chip": "ym2612"
    },
    {
      "channel": 0,
      "note": 60,
      "start": 8.7904,
      "duration": 0.1759,
      "velocity": 104,
      "chip": "ym2612"
    },
    {
      "channel": 1,
      "note": 79,
      "start": 8.7909,
      "duration": 0.0972,
      "velocity": 102,
      "chip": "ym2612"
    },
    {
      "channel": 4,
      "note": 77,
      "start": 8.8354,
      "duration": 0.0763,
      "velocity": 102,
      "chip": "ym2612"
    },
    {
      "channel": 4,
      "note": 74,
      "start": 8.9185,
      "duration": 0.1497,
      "velocity": 102,
      "chip": "ym2612"
    },
    {
      "channel": 0,
      "note": 57,
      "start": 9.0567,
      "duration": 0.0659,
      "velocity": 104,
      "chip": "ym2612"
    },
    {
      "channel": 1,
      "note": 77,
      "start": 9.0572,
      "duration": 0.1196,
      "velocity": 102,
      "chip": "ym2612"
    },
    {
      "channel": 0,
      "note": 55,
      "start": 9.2128,
      "duration": 0.0314,
      "velocity": 104,
      "chip": "ym2612"
    },
    {
      "channel": 4,
      "note": 79,
      "start": 9.231,
      "duration": 0.0405,
      "velocity": 102,
      "chip": "ym2612"
    },
    {
      "channel": 0,
      "note": 57,
      "start": 9.2605,
      "duration": 0.1173,
      "velocity": 104,
      "chip": "ym2612"
    },
    {
      "channel": 0,
      "note": 62,
      "start": 9.47,
      "duration": 0.4374,
      "velocity": 104,
      "chip": "ym2612"
    },
    {
      "channel": 2,
      "note": 93,
      "start": 9.4722,
      "duration": 0.0076,
      "velocity": 77,
      "chip": "ym2612"
    },
    {
      "channel": 2,
      "note": 93,
      "start": 9.4987,
      "duration": 0.0359,
      "velocity": 77,
      "chip": "ym2612"
    },
    {
      "channel": 1,
      "note": 74,
      "start": 9.6261,
      "duration": 0.2166,
      "velocity": 102,
      "chip": "ym2612"
    },
    {
      "channel": 2,
      "note": 93,
      "start": 9.6266,
      "duration": 0.0345,
      "velocity": 77,
      "chip": "ym2612"
    },
    {
      "channel": 1,
      "note": 77,
      "start": 9.8777,
      "duration": 0.0412,
      "velocity": 102,
      "chip": "ym2612"
    },
    {
      "channel": 4,
      "note": 77,
      "start": 9.8956,
      "duration": 0.0412,
      "velocity": 102,
      "chip": "ym2612"
    },
    {
      "channel": 0,
      "note": 60,
      "start": 9.9253,
      "duration": 0.2738,
      "velocity": 104,
      "chip": "ym2612"
    },
    {
      "channel": 1,
      "note": 81,
      "start": 9.9258,
      "duration": 0.171,
      "velocity": 102,
      "chip": "ym2612"
    },
    {
      "channel": 2,
      "note": 93,
      "start": 9.9263,
      "duration": 0.0066,
      "velocity": 77,
      "chip": "ym2612"
    },
    {
      "channel": 4,
      "note": 74,
      "start": 9.9715,
      "duration": 0.173,
      "velocity": 102,
      "chip": "ym2612"
    },
    {
      "channel": 2,
      "note": 93,
      "start": 10.0069,
      "duration": 0.0359,
      "velocity": 77,
      "chip": "ym2612"
    },
    {
      "channel": 1,
      "note": 79,
      "start": 10.1331,
      "duration": 0.1204,
      "velocity": 102,
      "chip": "ym2612"
    },
    {
      "channel": 2,
      "note": 93,
      "start": 10.1337,
      "duration": 0.0071,
      "velocity": 77,
      "chip": "ym2612"
    },
    {
      "channel": 4,
      "note": 77,
      "start": 10.1523,
      "duration": 0.1488,
      "velocity": 102,
      "chip": "ym2612"
    },
    {
      "channel": 0,
      "note": 57,
      "start": 10.2895,
      "duration": 0.0662,
      "velocity": 104,
      "chip": "ym2612"
    },
    {
      "channel": 1,
      "note": 77,
      "start": 10.29,
      "duration": 0.1201,
      "velocity": 102,
      "chip": "ym2612"
    },
    {
      "channel": 4,
      "note": 81,
      "start": 10.3091,
      "duration": 0.1504,
      "velocity": 102,
      "chip": "ym2612"
    },
    {
      "channel": 0,
      "note": 55,
      "start": 10.4463,
      "duration": 0.032,
      "velocity": 104,
      "chip": "ym2612"
    },
    {
      "channel": 1,
      "note": 74,
      "start": 10.4467,
      "duration": 0.0414,
      "velocity": 102,
      "chip": "ym2612"
    },
    {
      "channel": 2,
      "note": 93,
      "start": 10.4472,
      "duration": 0.0085,
      "velocity": 77,
      "chip": "ym2612"
    },
    {
      "channel": 4,
      "note": 79,
      "start": 10.4661,
      "duration": 0.0411,
      "velocity": 102,
      "chip": "ym2612"
    },
    {
      "channel": 2,
      "note": 93,
      "start": 10.4722,
      "duration": 0.0064,
      "velocity": 77,
      "chip": "ym2612"
    },
    {
      "channel": 0,
      "note": 57,
      "start": 10.4958,
      "duration": 0.1156,
      "velocity": 104,
      "chip": "ym2612"
    },
    {
      "channel": 1,
      "note": 77,
      "start": 10.4962,
      "duration": 0.1707,
      "velocity": 102,
      "chip": "ym2612"
    },
    {
      "channel": 2,
      "note": 93,
      "start": 10.4968,
      "duration": 0.0067,
      "velocity": 77,
      "chip": "ym2612"
    },
    {
      "channel": 4,
      "note": 77,
      "start": 10.5405,
      "duration": 0.1749,
      "velocity": 102,
      "chip": "ym2612"
    },
    {
      "channel": 0,
      "note": 62,
      "start": 10.7036,
      "duration": 0.4385,
      "velocity": 104,
      "chip": "ym2612"
    },
    {
      "channel": 2,
      "note": 93,
      "start": 10.7045,
      "duration": 0.0073,
      "velocity": 77,
      "chip": "ym2612"
    },
    {
      "channel": 4,
      "note": 74,
      "start": 10.722,
      "duration": 0.1912,
      "velocity": 102,
      "chip": "ym2612"
    },
    {
      "channel": 2,
      "note": 93,
      "start": 10.7322,
      "duration": 0.0359,
      "velocity": 77,
      "chip": "ym2612"
    },
    {
      "channel": 1,
      "note": 77,
      "start": 10.8583,
      "duration": 0.2166,
      "velocity": 102,
      "chip": "ym2612"
    },
    {
      "channel": 2,
      "note": 93,
      "start": 10.8589,
      "duration": 0.0356,
      "velocity": 77,
      "chip": "ym2612"
    },
    {
      "channel": 1,
      "note": 79,
      "start": 11.1112,
      "duration": 0.0408,
      "velocity": 102,
      "chip": "ym2612"
    },
    {
      "channel": 4,
      "note": 77,
      "start": 11.1302,
      "duration": 0.0404,
      "velocity": 102,
      "chip": "ym2612"
    },
    {
      "channel": 0,
      "note": 60,
      "start": 11.1585,
      "duration": 0.1771,
      "velocity": 104,
      "chip": "ym2612"
    },
    {
      "channel": 4,
      "note": 77,
      "start": 11.2048,
      "duration": 0.0775,
      "velocity": 102,
      "chip": "ym2612"
    },
    {
      "channel": 1,
      "note": 74,
      "start": 11.24,
      "duration": 0.0165,
      "velocity": 102,
      "chip": "ym2612"
    },
    {
      "channel": 1,
      "note": 77,
      "start": 11.2698,
      "duration": 0.0182,
      "velocity": 102,
      "chip": "ym2612"
    },
    {
      "channel": 4,
      "note": 79,
      "start": 11.391,
      "duration": 0.0477,
      "velocity": 102,
      "chip": "ym2612"
    },
    {
      "channel": 0,
      "note": 57,
      "start": 11.4271,
      "duration": 0.0648,
      "velocity": 104,
      "chip": "ym2612"
    },
    {
      "channel": 1,
      "note": 77,
      "start": 11.4276,
      "duration": 0.1197,
      "velocity": 102,
      "chip": "ym2612"
    },
    {
      "channel": 4,
      "note": 74,
      "start": 11.4454,
      "duration": 0.0656,
      "velocity": 102,
      "chip": "ym2612"
    },
    {
      "channel": 0,
      "note": 55,
      "start": 11.5823,
      "duration": 0.0302,
      "velocity": 104,
      "chip": "ym2612"
    },
    {
      "channel": 1,
      "note": 79,
      "start": 11.5828,
      "duration": 0.0407,
      "velocity": 102,
      "chip": "ym2612"
    },
    {
      "channel": 4,
      "note": 77,
      "start": 11.6006,
      "duration": 0.0404,
      "velocity": 102,
      "chip": "ym2612"
    },
    {
      "channel": 0,
      "note": 57,
      "start": 11.6299,
      "duration": 0.1171,
      "velocity": 104,
      "chip": "ym2612"
    },
    {
      "channel": 4,
      "note": 77,
      "start": 11.6761,
      "duration": 0.1754,
      "velocity": 102,
      "chip": "ym2612"
    },
    {
      "channel": 0,
      "note": 62,
      "start": 11.8393,
      "duration": 0.4387,
      "velocity": 104,
      "chip": "ym2612"
    },
    {
      "channel": 2,
      "note": 93,
      "start": 11.8403,
      "duration": 0.0075,
      "velocity": 77,
      "chip": "ym2612"
    },
    {
      "channel": 2,
      "note": 93,
      "start": 11.868,
      "duration": 0.0359,
      "velocity": 77,
      "chip": "ym2612"
    },
    {
      "channel": 1,
      "note": 74,
      "start": 11.9942,
      "duration": 0.2165,
      "velocity": 102,
      "chip": "ym2612"
    },
    {
      "channel": 2,
      "note": 93,
      "start": 11.9946,
      "duration": 0.0356,
      "velocity": 77,
      "chip": "ym2612"
    },
    {
      "channel": 1,
      "note": 77,
      "start": 12.247,
      "duration": 0.041,
      "velocity": 102,
      "chip": "ym2612"
    },
    {
      "channel": 4,
      "note": 79,
      "start": 12.2661,
      "duration": 0.041,
      "velocity": 102,
      "chip": "ym2612"
    },
    {
      "channel": 0,
      "note": 60,
      "start": 12.2957,
      "duration": 0.2722,
      "velocity": 104,
      "chip": "ym2612"
    },
    {
      "channel": 1,
      "note": 81,
      "start": 12.2962,
      "duration": 0.1708,
      "velocity": 102,
      "chip": "ym2612"
    },
    {
      "channel": 2,
      "note": 93,
      "start": 12.2967,
      "duration": 0.0066,
      "velocity": 77,
      "chip": "ym2612"
    },
    {
      "channel": 4,
      "note": 74,
      "start": 12.3407,
      "duration": 0.1731,
      "velocity": 102,
      "chip": "ym2612"
    },
    {
      "channel": 2,
      "note": 93,
      "start": 12.3762,
      "duration": 0.0359,
      "velocity": 77,
      "chip": "ym2612"
    },
    {
      "channel": 1,
      "note": 79,
      "start": 12.5024,
      "duration": 0.12,
      "velocity": 102,
      "chip": "ym2612"
    },
    {
      "channel": 2,
      "note": 93,
      "start": 12.5029,
      "duration": 0.0071,
      "velocity": 77,
      "chip": "ym2612"
    },
    {
      "channel": 4,
      "note": 77,
      "start": 12.5204,
      "duration": 0.1493,
      "velocity": 102,
      "chip": "ym2612"
    },
    {
      "channel": 0,
      "note": 57,
      "start": 12.6584,
      "duration": 0.0658,
      "velocity": 104,
      "chip": "ym2612"
    },
    {
      "channel": 1,
      "note": 77,
      "start": 12.6589,
      "duration": 0.1197,
      "velocity": 102,
      "chip": "ym2612"
    },
    {
      "channel": 4,
      "note": 81,
      "start": 12.6765,
      "duration": 0.1499,
      "velocity": 102,
      "chip": "ym2612"
    },
    {
      "channel": 0,
      "note": 55,
      "start": 12.8146,
      "duration": 0.0317,
      "velocity": 104,
      "chip": "ym2612"
    },
    {
      "channel": 1,
      "note": 74,
      "start": 12.8151,
      "duration": 0.041,
      "velocity": 102,
      "chip": "ym2612"
    },
    {
      "channel": 2,
      "note": 93,
      "start": 12.8156,
      "duration": 0.007,
      "velocity": 77,
      "chip": "ym2612"
    },
    {
      "channel": 4,
      "note": 79,
      "start": 12.8342,
      "duration": 0.041,
      "velocity": 102,
      "chip": "ym2612"
    },
    {
      "channel": 2,
      "note": 93,
      "start": 12.8403,
      "duration": 0.0065,
      "velocity": 77,
      "chip": "ym2612"
    },
    {
      "channel": 0,
      "note": 57,
      "start": 12.8625,
      "duration": 0.117,
      "velocity": 104,
      "chip": "ym2612"
    },
    {
      "channel": 1,
      "note": 77,
      "start": 12.863,
      "duration": 0.1709,
      "velocity": 102,
      "chip": "ym2612"
    },
    {
      "channel": 2,
      "note": 93,
      "start": 12.8635,
      "duration": 0.0067,
      "velocity": 77,
      "chip": "ym2612"
    },
    {
      "channel": 4,
      "note": 77,
      "start": 12.9085,
      "duration": 0.1764,
      "velocity": 102,
      "chip": "ym2612"
    },
    {
      "channel": 0,
      "note": 62,
      "start": 13.0718,
      "duration": 0.4371,
      "velocity": 104,
      "chip": "ym2612"
    },
    {
      "channel": 2,
      "note": 93,
      "start": 13.0739,
      "duration": 0.0073,
      "velocity": 77,
      "chip": "ym2612"
    },
    {
      "channel": 4,
      "note": 74,
      "start": 13.0915,
      "duration": 0.1899,
      "velocity": 102,
      "chip": "ym2612"
    },
    {
      "channel": 2,
      "note": 93,
      "start": 13.1004,
      "duration": 0.0359,
      "velocity": 77,
      "chip": "ym2612"
    },
    {
      "channel": 1,
      "note": 77,
      "start": 13.2275,
      "duration": 0.2165,
      "velocity": 102,
      "chip": "ym2612"
    },
    {
      "channel": 2,
      "note": 93,
      "start": 13.228,
      "duration": 0.0348,
      "velocity": 77,
      "chip": "ym2612"
    },
    {
      "channel": 1,
      "note": 79,
      "start": 13.4794,
      "duration": 0.0407,
      "velocity": 102,
      "chip": "ym2612"
    },
    {
      "channel": 4,
      "note": 77,
      "start": 13.4972,
      "duration": 0.0406,
      "velocity": 102,
      "chip": "ym2612"
    },
    {
      "channel": 0,
      "note": 60,
      "start": 13.5266,
      "duration": 0.1772,
      "velocity": 104,
      "chip": "ym2612"
    },
    {
      "channel": 1,
      "note": 77,
      "start": 13.5271,
      "duration": 0.0984,
      "velocity": 102,
      "chip": "ym2612"
    },
    {
      "channel": 4,
      "note": 77,
      "start": 13.5728,
      "duration": 0.0762,
      "velocity": 102,
      "chip": "ym2612"
    },
    {
      "channel": 4,
      "note": 79,
      "start": 13.6571,
      "duration": 0.15,
      "velocity": 102,
      "chip": "ym2612"
    },
    {
      "channel": 0,
      "note": 57,
      "start": 13.7943,
      "duration": 0.0659,
      "velocity": 104,
      "chip": "ym2612"
    },
    {
      "channel": 1,
      "note": 74,
      "start": 13.7948,
      "duration": 0.1198,
      "velocity": 102,
      "chip": "ym2612"
    },
    {
      "channel": 0,
      "note": 55,
      "start": 13.9507,
      "duration": 0.033,
      "velocity": 104,
      "chip": "ym2612"
    },
    {
      "channel": 4,
      "note": 77,
      "start": 13.9718,
      "duration": 0.0403,
      "velocity": 102,
      "chip": "ym2612"
    },
    {
      "channel": 0,
      "note": 57,
      "start": 14.0011,
      "duration": 0.1145,
      "velocity": 104,
      "chip": "ym2612"
    },
    {
      "channel": 0,
      "note": 52,
      "start": 14.2078,
      "duration": 0.0082,
      "velocity": 104,
      "chip": "ym2612"
    },
    {
      "channel": 2,
      "note": 93,
      "start": 14.2089,
      "duration": 0.0076,
      "velocity": 77,
      "chip": "ym2612"
    },
    {
      "channel": 0,
      "note": 52,
      "start": 14.2359,
      "duration": 0.0359,
      "velocity": 104,
      "chip": "ym2612"
    },
    {
      "channel": 2,
      "note": 93,
      "start": 14.2366,
      "duration": 0.0357,
      "velocity": 77,
      "chip": "ym2612"
    },
    {
      "channel": 0,
      "note": 52,
      "start": 14.3623,
      "duration": 0.0359,
      "velocity": 104,
      "chip": "ym2612"
    },
    {
      "channel": 2,
      "note": 93,
      "start": 14.363,
      "duration": 0.0357,
      "velocity": 77,
      "chip": "ym2612"
    },
    {
      "channel": 0,
      "note": 52,
      "start": 14.4887,
      "duration": 0.0359,
      "velocity": 104,
      "chip": "ym2612"
    },
    {
      "channel": 0,
      "note": 52,
      "start": 14.6151,
      "duration": 0.0073,
      "velocity": 104,
      "chip": "ym2612"
    },
    {
      "channel": 0,
      "note": 52,
      "start": 14.6629,
      "duration": 0.007,
      "velocity": 104,
      "chip": "ym2612"
    },
    {
      "channel": 2,
      "note": 93,
      "start": 14.6637,
      "duration": 0.0067,
      "velocity": 77,
      "chip": "ym2612"
    },
    {
      "channel": 0,
      "note": 52,
      "start": 14.7441,
      "duration": 0.0359,
      "velocity": 104,
      "chip": "ym2612"
    },
    {
      "channel": 2,
      "note": 93,
      "start": 14.7449,
      "duration": 0.0356,
      "velocity": 77,
      "chip": "ym2612"
    },
    {
      "channel": 0,
      "note": 52,
      "start": 14.8705,
      "duration": 0.0088,
      "velocity": 104,
      "chip": "ym2612"
    },
    {
      "channel": 2,
      "note": 93,
      "start": 14.8712,
      "duration": 0.0086,
      "velocity": 77,
      "chip": "ym2612"
    },
    {
      "channel": 0,
      "note": 52,
      "start": 14.9005,
      "duration": 0.0359,
      "velocity": 104,
      "chip": "ym2612"
    },
    {
      "channel": 0,
      "note": 52,
      "start": 15.0274,
      "duration": 0.0071,
      "velocity": 104,
      "chip": "ym2612"
    },
    {
      "channel": 0,
      "note": 55,
      "start": 15.1832,
      "duration": 0.031,
      "velocity": 104,
      "chip": "ym2612"
    },
    {
      "channel": 2,
      "note": 93,
      "start": 15.184,
      "duration": 0.0073,
      "velocity": 77,
      "chip": "ym2612"
    },
    {
      "channel": 2,
      "note": 93,
      "start": 15.2078,
      "duration": 0.0081,
      "velocity": 77,
      "chip": "ym2612"
    },
    {
      "channel": 0,
      "note": 56,
      "start": 15.232,
      "duration": 0.1162,
      "velocity": 104,
      "chip": "ym2612"
    },
    {
      "channel": 2,
      "note": 93,
      "start": 15.2327,
      "duration": 0.0068,
      "velocity": 77,
      "chip": "ym2612"
    },
    {
      "channel": 1,
      "note": 74,
      "start": 15.4442,
      "duration": 0.5776,
      "velocity": 107,
      "chip": "ym2612"
    },
    {
      "channel": 2,
      "note": 93,
      "start": 15.4447,
      "duration": 0.0074,
      "velocity": 77,
      "chip": "ym2612"
    },
    {
      "channel": 2,
      "note": 93,
      "start": 15.4695,
      "duration": 0.0356,
      "velocity": 77,
      "chip": "ym2612"
    },
    {
      "channel": 2,
      "note": 93,
      "start": 15.5955,
      "duration": 0.0359,
      "velocity": 77,
      "chip": "ym2612"
    },
    {
      "channel": 4,
      "note": 74,
      "start": 15.6917,
      "duration": 0.5395,
      "velocity": 107,
      "chip": "ym2612"
    },
    {
      "channel": 1,
      "note": 74,
      "start": 16.0218,
      "duration": 0.4636,
      "velocity": 107,
      "chip": "ym2612"
    },
    {
      "channel": 4,
      "note": 74,
      "start": 16.2311,
      "duration": 0.5024,
      "velocity": 107,
      "chip": "ym2612"
    },
    {
      "channel": 0,
      "note": 52,
      "start": 16.5785,
      "duration": 0.0087,
      "velocity": 104,
      "chip": "ym2612"
    },
    {
      "channel": 1,
      "note": 76,
      "start": 16.5792,
      "duration": 0.6758,
      "velocity": 107,
      "chip": "ym2612"
    },
    {
      "channel": 2,
      "note": 93,
      "start": 16.5799,
      "duration": 0.0077,
      "velocity": 77,
      "chip": "ym2612"
    },
    {
      "channel": 0,
      "note": 52,
      "start": 16.6056,
      "duration": 0.0359,
      "velocity": 104,
      "chip": "ym2612"
    },
    {
      "channel": 2,
      "note": 93,
      "start": 16.6063,
      "duration": 0.0356,
      "velocity": 77,
      "chip": "ym2612"
    },
    {
      "channel": 0,
      "note": 52,
      "start": 16.7321,
      "duration": 0.0357,
      "velocity": 104,
      "chip": "ym2612"
    },
    {
      "channel": 2,
      "note": 93,
      "start": 16.7328,
      "duration": 0.0355,
      "velocity": 77,
      "chip": "ym2612"
    },
    {
      "channel": 4,
      "note": 74,
      "start": 16.8235,
      "duration": 0.6409,
      "velocity": 107,
      "chip": "ym2612"
    },
    {
      "channel": 0,
      "note": 52,
      "start": 16.8583,
      "duration": 0.0359,
      "velocity": 104,
      "chip": "ym2612"
    },
    {
      "channel": 0,
      "note": 52,
      "start": 16.9847,
      "duration": 0.0073,
      "velocity": 104,
      "chip": "ym2612"
    },
    {
      "channel": 0,
      "note": 52,
      "start": 17.0329,
      "duration": 0.007,
      "velocity": 104,
      "chip": "ym2612"
    },
    {
      "channel": 2,
      "note": 93,
      "start": 17.0337,
      "duration": 0.0067,
      "velocity": 77,
      "chip": "ym2612"
    },
    {
      "channel": 0,
      "note": 52,
      "start": 17.1151,
      "duration": 0.0347,
      "velocity": 104,
      "chip": "ym2612"
    },
    {
      "channel": 2,
      "note": 93,
      "start": 17.1159,
      "duration": 0.0345,
      "velocity": 77,
      "chip": "ym2612"
    },
    {
      "channel": 0,
      "note": 52,
      "start": 17.2403,
      "duration": 0.0075,
      "velocity": 104,
      "chip": "ym2612"
    },
    {
      "channel": 2,
      "note": 93,
      "start": 17.241,
      "duration": 0.0072,
      "velocity": 77,
      "chip": "ym2612"
    },
    {
      "channel": 1,
      "note": 76,
      "start": 17.255,
      "duration": 0.4634,
      "velocity": 107,
      "chip": "ym2612"
    },
    {
      "channel": 0,
      "note": 52,
      "start": 17.2704,
      "duration": 0.0359,
      "velocity": 104,
      "chip": "ym2612"
    },
    {
      "channel": 0,
      "note": 52,
      "start": 17.3968,
      "duration": 0.0068,
      "velocity": 104,
      "chip": "ym2612"
    },
    {
      "channel": 4,
      "note": 76,
      "start": 17.4644,
      "duration": 0.5016,
      "velocity": 107,
      "chip": "ym2612"
    },
    {
      "channel": 0,
      "note": 55,
      "start": 17.5532,
      "duration": 0.0317,
      "velocity": 104,
      "chip": "ym2612"
    },
    {
      "channel": 2,
      "note": 93,
      "start": 17.5539,
      "duration": 0.0085,
      "velocity": 77,
      "chip": "ym2612"
    },
    {
      "channel": 2,
      "note": 93,
      "start": 17.5787,
      "duration": 0.0067,
      "velocity": 77,
      "chip": "ym2612"
    },
    {
      "channel": 0,
      "note": 56,
      "start": 17.6026,
      "duration": 0.1155,
      "velocity": 104,
      "chip": "ym2612"
    },
    {
      "channel": 2,
      "note": 93,
      "start": 17.6033,
      "duration": 0.0067,
      "velocity": 77,
      "chip": "ym2612"
    },
    {
      "channel": 1,
      "note": 80,
      "start": 17.8107,
      "duration": 0.5814,
      "velocity": 107,
      "chip": "ym2612"
    },
    {
      "channel": 2,
      "note": 93,
      "start": 17.8113,
      "duration": 0.0073,
      "velocity": 77,
      "chip": "ym2612"
    },
    {
      "channel": 2,
      "note": 93,
      "start": 17.8388,
      "duration": 0.0371,
      "velocity": 77,
      "chip": "ym2612"
    },
    {
      "channel": 2,
      "note": 93,
      "start": 17.9653,
      "duration": 0.0359,
      "velocity": 77,
      "chip": "ym2612"
    },
    {
      "channel": 4,
      "note": 75,
      "start": 18.0565,
      "duration": 0.5438,
      "velocity": 107,
      "chip": "ym2612"
    },
    {
      "channel": 1,
      "note": 80,
      "start": 18.3921,
      "duration": 0.4621,
      "velocity": 107,
      "chip": "ym2612"
    },
    {
      "channel": 4,
      "note": 80,
      "start": 18.6003,
      "duration": 0.5022,
      "velocity": 107,
      "chip": "ym2612"
    },
    {
      "channel": 0,
      "note": 52,
      "start": 18.9462,
      "duration": 0.0085,
      "velocity": 104,
      "chip": "ym2612"
    },
    {
      "channel": 1,
      "note": 81,
      "start": 18.9469,
      "duration": 0.6771,
      "velocity": 107,
      "chip": "ym2612"
    },
    {
      "channel": 2,
      "note": 93,
      "start": 18.9476,
      "duration": 0.0076,
      "velocity": 77,
      "chip": "ym2612"
    },
    {
      "channel": 0,
      "note": 52,
      "start": 18.9747,
      "duration": 0.0359,
      "velocity": 104,
      "chip": "ym2612"
    },
    {
      "channel": 2,
      "note": 93,
      "start": 18.9754,
      "duration": 0.0357,
      "velocity": 77,
      "chip": "ym2612"
    },
    {
      "channel": 0,
      "note": 52,
      "start": 19.1011,
      "duration": 0.0359,
      "velocity": 104,
      "chip": "ym2612"
    },
    {
      "channel": 2,
      "note": 93,
      "start": 19.1018,
      "duration": 0.0357,
      "velocity": 77,
      "chip": "ym2612"
    },
    {
      "channel": 4,
      "note": 79,
      "start": 19.1927,
      "duration": 0.6405,
      "velocity": 107,
      "chip": "ym2612"
    },
    {
      "channel": 0,
      "note": 52,
      "start": 19.2276,
      "duration": 0.0359,
      "velocity": 104,
      "chip": "ym2612"
    },
    {
      "channel": 0,
      "note": 52,
      "start": 19.3539,
      "duration": 0.0087,
      "velocity": 104,
      "chip": "ym2612"
    },
    {
      "channel": 0,
      "note": 52,
      "start": 19.403,
      "duration": 0.0069,
      "velocity": 104,
      "chip": "ym2612"
    },
    {
      "channel": 2,
      "note": 93,
      "start": 19.4038,
      "duration": 0.0067,
      "velocity": 77,
      "chip": "ym2612"
    },
    {
      "channel": 0,
      "note": 52,
      "start": 19.4829,
      "duration": 0.0359,
      "velocity": 104,
      "chip": "ym2612"
    },
    {
      "channel": 2,
      "note": 93,
      "start": 19.4837,
      "duration": 0.0356,
      "velocity": 77,
      "chip": "ym2612"
    },
    {
      "channel": 0,
      "note": 52,
      "start": 19.6093,
      "duration": 0.0075,
      "velocity": 104,
      "chip": "ym2612"
    },
    {
      "channel": 2,
      "note": 93,
      "start": 19.61,
      "duration": 0.0072,
      "velocity": 77,
      "chip": "ym2612"
    },
    {
      "channel": 1,
      "note": 81,
      "start": 19.624,
      "duration": 0.463,
      "velocity": 107,
      "chip": "ym2612"
    },
    {
      "channel": 0,
      "note": 52,
      "start": 19.6391,
      "duration": 0.0371,
      "velocity": 104,
      "chip": "ym2612"
    },
    {
      "channel": 0,
      "note": 52,
      "start": 19.7656,
      "duration": 0.007,
      "velocity": 104,
      "chip": "ym2612"
    },
    {
      "channel": 4,
      "note": 81,
      "start": 19.8332,
      "duration": 0.5013,
      "velocity": 107,
      "chip": "ym2612"
    },
    {
      "channel": 0,
      "note": 55,
      "start": 19.922,
      "duration": 0.0316,
      "velocity": 104,
      "chip": "ym2612"
    },
    {
      "channel": 2,
      "note": 93,
      "start": 19.9227,
      "duration": 0.0071,
      "velocity": 77,
      "chip": "ym2612"
    },
    {
      "channel": 2,
      "note": 93,
      "start": 19.9473,
      "duration": 0.0068,
      "velocity": 77,
      "chip": "ym2612"
    },
    {
      "channel": 0,
      "note": 56,
      "start": 19.9699,
      "duration": 0.1168,
      "velocity": 104,
      "chip": "ym2612"
    },
    {
      "channel": 2,
      "note": 93,
      "start": 19.9707,
      "duration": 0.0066,
      "velocity": 77,
      "chip": "ym2612"
    },
    {
      "channel": 1,
      "note": 83,
      "start": 20.1806,
      "duration": 0.579,
      "velocity": 107,
      "chip": "ym2612"
    },
    {
      "channel": 2,
      "note": 93,
      "start": 20.1811,
      "duration": 0.0073,
      "velocity": 77,
      "chip": "ym2612"
    },
    {
      "channel": 2,
      "note": 93,
      "start": 20.2074,
      "duration": 0.0359,
      "velocity": 77,
      "chip": "ym2612"
    },
    {
      "channel": 2,
      "note": 93,
      "start": 20.3339,
      "duration": 0.0359,
      "velocity": 77,
      "chip": "ym2612"
    },
    {
      "channel": 4,
      "note": 80,
      "start": 20.425,
      "duration": 0.544,
      "velocity": 107,
      "chip": "ym2612"
    },
    {
      "channel": 1,
      "note": 83,
      "start": 20.7596,
      "duration": 0.4632,
      "velocity": 107,
      "chip": "ym2612"
    },
    {
      "channel": 4,
      "note": 83,
      "start": 20.969,
      "duration": 0.5015,
      "velocity": 107,
      "chip": "ym2612"
    },
    {
      "channel": 0,
      "note": 52,
      "start": 21.3148,
      "duration": 0.0085,
      "velocity": 104,
      "chip": "ym2612"
    },
    {
      "channel": 1,
      "note": 86,
      "start": 21.3155,
      "duration": 0.6777,
      "velocity": 107,
      "chip": "ym2612"
    },
    {
      "channel": 2,
      "note": 93,
      "start": 21.3162,
      "duration": 0.0075,
      "velocity": 77,
      "chip": "ym2612"
    },
    {
      "channel": 0,
      "note": 52,
      "start": 21.3428,
      "duration": 0.0368,
      "velocity": 104,
      "chip": "ym2612"
    },
    {
      "channel": 2,
      "note": 93,
      "start": 21.3435,
      "duration": 0.0365,
      "velocity": 77,
      "chip": "ym2612"
    },
    {
      "channel": 0,
      "note": 52,
      "start": 21.4692,
      "duration": 0.0359,
      "velocity": 104,
      "chip": "ym2612"
    },
    {
      "channel": 2,
      "note": 93,
      "start": 21.4699,
      "duration": 0.0357,
      "velocity": 77,
      "chip": "ym2612"
    },
    {
      "channel": 4,
      "note": 82,
      "start": 21.5608,
      "duration": 0.6401,
      "velocity": 107,
      "chip": "ym2612"
    },
    {
      "channel": 0,
      "note": 52,
      "start": 21.5965,
      "duration": 0.0351,
      "velocity": 104,
      "chip": "ym2612"
    },
    {
      "channel": 0,
      "note": 52,
      "start": 21.722,
      "duration": 0.0072,
      "velocity": 104,
      "chip": "ym2612"
    },
    {
      "channel": 0,
      "note": 52,
      "start": 21.7698,
      "duration": 0.007,
      "velocity": 104,
      "chip": "ym2612"
    },
    {
      "channel": 2,
      "note": 93,
      "start": 21.7705,
      "duration": 0.0067,
      "velocity": 77,
      "chip": "ym2612"
    },
    {
      "channel": 0,
      "note": 52,
      "start": 21.8508,
      "duration": 0.0359,
      "velocity": 104,
      "chip": "ym2612"
    },
    {
      "channel": 2,
      "note": 93,
      "start": 21.8516,
      "duration": 0.0356,
      "velocity": 77,
      "chip": "ym2612"
    },
    {
      "channel": 0,
      "note": 52,
      "start": 21.9772,
      "duration": 0.0086,
      "velocity": 104,
      "chip": "ym2612"
    },
    {
      "channel": 2,
      "note": 93,
      "start": 21.9792,
      "duration": 0.0072,
      "velocity": 77,
      "chip": "ym2612"
    },
    {
      "channel": 1,
      "note": 86,
      "start": 21.9932,
      "duration": 0.4617,
      "velocity": 107,
      "chip": "ym2612"
    },
    {
      "channel": 0,
      "note": 52,
      "start": 22.0071,
      "duration": 0.0359,
      "velocity": 104,
      "chip": "ym2612"
    },
    {
      "channel": 0,
      "note": 52,
      "start": 22.1335,
      "duration": 0.007,
      "velocity": 104,
      "chip": "ym2612"
    },
    {
      "channel": 4,
      "note": 86,
      "start": 22.201,
      "duration": 0.502,
      "velocity": 107,
      "chip": "ym2612"
    },
    {
      "channel": 0,
      "note": 55,
      "start": 22.2898,
      "duration": 0.0319,
      "velocity": 104,
      "chip": "ym2612"
    },
    {
      "channel": 2,
      "note": 93,
      "start": 22.2906,
      "duration": 0.0071,
      "velocity": 77,
      "chip": "ym2612"
    },
    {
      "channel": 2,
      "note": 93,
      "start": 22.3141,
      "duration": 0.0081,
      "velocity": 77,
      "chip": "ym2612"
    },
    {
      "channel": 0,
      "note": 56,
      "start": 22.338,
      "duration": 0.1167,
      "velocity": 104,
      "chip": "ym2612"
    },
    {
      "channel": 2,
      "note": 93,
      "start": 22.3388,
      "duration": 0.0066,
      "velocity": 77,
      "chip": "ym2612"
    },
    {
      "channel": 1,
      "note": 87,
      "start": 22.5473,
      "duration": 0.5809,
      "velocity": 107,
      "chip": "ym2612"
    },
    {
      "channel": 2,
      "note": 93,
      "start": 22.5478,
      "duration": 0.0126,
      "velocity": 77,
      "chip": "ym2612"
    },
    {
      "channel": 3,
      "note": 124,
      "start": 22.5547,
      "duration": 0.0061,
      "velocity": 104,
      "chip": "ym2612"
    },
    {
      "channel": 2,
      "note": 93,
      "start": 22.5779,
      "duration": 0.0336,
      "velocity": 77,
      "chip": "ym2612"
    },
    {
      "channel": 3,
      "note": 77,
      "start": 22.5785,
      "duration": 0.0334,
      "velocity": 104,
      "chip": "ym2612"
    },
    {
      "channel": 2,
      "note": 93,
      "start": 22.702,
      "duration": 0.0359,
      "velocity": 77,
      "chip": "ym2612"
    },
    {
      "channel": 3,
      "note": 77,
      "start": 22.7026,
      "duration": 0.0368,
      "velocity": 104,
      "chip": "ym2612"
    },
    {
      "channel": 4,
      "note": 85,
      "start": 22.7931,
      "duration": 0.5443,
      "velocity": 107,
      "chip": "ym2612"
    },
    {
      "channel": 3,
      "note": 77,
      "start": 22.8289,
      "duration": 0.0357,
      "velocity": 104,
      "chip": "ym2612"
    },
    {
      "channel": 3,
      "note": 77,
      "start": 22.9563,
      "duration": 0.0073,
      "velocity": 104,
      "chip": "ym2612"
    },
    {
      "channel": 3,
      "note": 77,
      "start": 22.98,
      "duration": 0.0068,
      "velocity": 104,
      "chip": "ym2612"
    },
    {
      "channel": 3,
      "note": 77,
      "start": 23.0046,
      "duration": 0.0068,
      "velocity": 104,
      "chip": "ym2612"
    },
    {
      "channel": 3,
      "note": 77,
      "start": 23.0842,
      "duration": 0.0071,
      "velocity": 104,
      "chip": "ym2612"
    },
    {
      "channel": 3,
      "note": 77,
      "start": 23.1143,
      "duration": 0.0074,
      "velocity": 104,
      "chip": "ym2612"
    },
    {
      "channel": 1,
      "note": 87,
      "start": 23.1282,
      "duration": 0.4636,
      "velocity": 107,
      "chip": "ym2612"
    },
    {
      "channel": 3,
      "note": 77,
      "start": 23.1441,
      "duration": 0.0365,
      "velocity": 104,
      "chip": "ym2612"
    },
    {
      "channel": 3,
      "note": 77,
      "start": 23.2705,
      "duration": 0.0071,
      "velocity": 104,
      "chip": "ym2612"
    },
    {
      "channel": 3,
      "note": 77,
      "start": 23.3013,
      "duration": 0.0354,
      "velocity": 104,
      "chip": "ym2612"
    },
    {
      "channel": 4,
      "note": 87,
      "start": 23.3375,
      "duration": 0.5022,
      "velocity": 107,
      "chip": "ym2612"
    },
    {
      "channel": 3,
      "note": 77,
      "start": 23.4271,
      "duration": 0.0073,
      "velocity": 104,
      "chip": "ym2612"
    },
    {
      "channel": 3,
      "note": 77,
      "start": 23.4523,
      "duration": 0.0068,
      "velocity": 104,
      "chip": "ym2612"
    },
    {
      "channel": 3,
      "note": 77,
      "start": 23.4756,
      "duration": 0.0081,
      "velocity": 104,
      "chip": "ym2612"
    },
    {
      "channel": 3,
      "note": 77,
      "start": 23.5565,
      "duration": 0.0359,
      "velocity": 104,
      "chip": "ym2612"
    },
    {
      "channel": 0,
      "note": 62,
      "start": 23.6851,
      "duration": 0.4372,
      "velocity": 104,
      "chip": "ym2612"
    },
    {
      "channel": 2,
      "note": 93,
      "start": 23.6896,
      "duration": 0.0077,
      "velocity": 77,
      "chip": "ym2612"
    },
    {
      "channel": 2,
      "note": 93,
      "start": 23.7135,
      "duration": 0.0347,
      "velocity": 77,
      "chip": "ym2612"
    },
    {
      "channel": 1,
      "note": 74,
      "start": 23.8385,
      "duration": 0.2165,
      "velocity": 102,
      "chip": "ym2612"
    },
    {
      "channel": 2,
      "note": 93,
      "start": 23.839,
      "duration": 0.0356,
      "velocity": 77,
      "chip": "ym2612"
    },
    {
      "channel": 1,
      "note": 77,
      "start": 24.0914,
      "duration": 0.041,
      "velocity": 102,
      "chip": "ym2612"
    },
    {
      "channel": 4,
      "note": 86,
      "start": 24.1092,
      "duration": 0.041,
      "velocity": 102,
      "chip": "ym2612"
    },
    {
      "channel": 0,
      "note": 60,
      "start": 24.1388,
      "duration": 0.2739,
      "velocity": 104,
      "chip": "ym2612"
    },
    {
      "channel": 1,
      "note": 81,
      "start": 24.1393,
      "duration": 0.1709,
      "velocity": 102,
      "chip": "ym2612"
    },
    {
      "channel": 2,
      "note": 93,
      "start": 24.1398,
      "duration": 0.0066,
      "velocity": 77,
      "chip": "ym2612"
    },
    {
      "channel": 4,
      "note": 74,
      "start": 24.1849,
      "duration": 0.1731,
      "velocity": 102,
      "chip": "ym2612"
    },
    {
      "channel": 2,
      "note": 93,
      "start": 24.2207,
      "duration": 0.0355,
      "velocity": 77,
      "chip": "ym2612"
    },
    {
      "channel": 1,
      "note": 79,
      "start": 24.3465,
      "duration": 0.1206,
      "velocity": 102,
      "chip": "ym2612"
    },
    {
      "channel": 2,
      "note": 93,
      "start": 24.347,
      "duration": 0.0071,
      "velocity": 77,
      "chip": "ym2612"
    },
    {
      "channel": 4,
      "note": 77,
      "start": 24.3661,
      "duration": 0.1498,
      "velocity": 102,
      "chip": "ym2612"
    },
    {
      "channel": 0,
      "note": 57,
      "start": 24.5032,
      "duration": 0.066,
      "velocity": 104,
      "chip": "ym2612"
    },
    {
      "channel": 1,
      "note": 77,
      "start": 24.5037,
      "duration": 0.1198,
      "velocity": 102,
      "chip": "ym2612"
    },
    {
      "channel": 4,
      "note": 81,
      "start": 24.5226,
      "duration": 0.1499,
      "velocity": 102,
      "chip": "ym2612"
    },
    {
      "channel": 0,
      "note": 55,
      "start": 24.6596,
      "duration": 0.0316,
      "velocity": 104,
      "chip": "ym2612"
    },
    {
      "channel": 1,
      "note": 74,
      "start": 24.6613,
      "duration": 0.0408,
      "velocity": 102,
      "chip": "ym2612"
    },
    {
      "channel": 2,
      "note": 93,
      "start": 24.6617,
      "duration": 0.007,
      "velocity": 77,
      "chip": "ym2612"
    },
    {
      "channel": 4,
      "note": 79,
      "start": 24.6791,
      "duration": 0.0411,
      "velocity": 102,
      "chip": "ym2612"
    },
    {
      "channel": 2,
      "note": 93,
      "start": 24.6852,
      "duration": 0.0064,
      "velocity": 77,
      "chip": "ym2612"
    },
    {
      "channel": 0,
      "note": 57,
      "start": 24.7087,
      "duration": 0.1157,
      "velocity": 104,
      "chip": "ym2612"
    },
    {
      "channel": 1,
      "note": 77,
      "start": 24.7092,
      "duration": 0.1696,
      "velocity": 102,
      "chip": "ym2612"
    },
    {
      "channel": 2,
      "note": 93,
      "start": 24.7097,
      "duration": 0.0067,
      "velocity": 77,
      "chip": "ym2612"
    },
    {
      "channel": 4,
      "note": 77,
      "start": 24.7534,
      "duration": 0.175,
      "velocity": 102,
      "chip": "ym2612"
    },
    {
      "channel": 0,
      "note": 62,
      "start": 24.9166,
      "duration": 0.4385,
      "velocity": 104,
      "chip": "ym2612"
    },
    {
      "channel": 2,
      "note": 93,
      "start": 24.9175,
      "duration": 0.0072,
      "velocity": 77,
      "chip": "ym2612"
    },
    {
      "channel": 4,
      "note": 74,
      "start": 24.935,
      "duration": 0.1912,
      "velocity": 102,
      "chip": "ym2612"
    },
    {
      "channel": 2,
      "note": 93,
      "start": 24.9452,
      "duration": 0.0362,
      "velocity": 77,
      "chip": "ym2612"
    },
    {
      "channel": 1,
      "note": 77,
      "start": 25.0714,
      "duration": 0.2166,
      "velocity": 102,
      "chip": "ym2612"
    },
    {
      "channel": 2,
      "note": 93,
      "start": 25.0719,
      "duration": 0.0357,
      "velocity": 77,
      "chip": "ym2612"
    },
    {
      "channel": 1,
      "note": 79,
      "start": 25.3242,
      "duration": 0.0408,
      "velocity": 102,
      "chip": "ym2612"
    },
    {
      "channel": 4,
      "note": 77,
      "start": 25.3434,
      "duration": 0.0407,
      "velocity": 102,
      "chip": "ym2612"
    },
    {
      "channel": 0,
      "note": 60,
      "start": 25.3715,
      "duration": 0.1773,
      "velocity": 104,
      "chip": "ym2612"
    },
    {
      "channel": 1,
      "note": 74,
      "start": 25.372,
      "duration": 0.0972,
      "velocity": 102,
      "chip": "ym2612"
    },
    {
      "channel": 4,
      "note": 77,
      "start": 25.4179,
      "duration": 0.0778,
      "velocity": 102,
      "chip": "ym2612"
    },
    {
      "channel": 1,
      "note": 77,
      "start": 25.4843,
      "duration": 0.1202,
      "velocity": 102,
      "chip": "ym2612"
    },
    {
      "channel": 4,
      "note": 79,
      "start": 25.5025,
      "duration": 0.1484,
      "velocity": 102,
      "chip": "ym2612"
    },
    {
      "channel": 0,
      "note": 57,
      "start": 25.6394,
      "duration": 0.0657,
      "velocity": 104,
      "chip": "ym2612"
    },
    {
      "channel": 1,
      "note": 77,
      "start": 25.6398,
      "duration": 0.1196,
      "velocity": 102,
      "chip": "ym2612"
    },
    {
      "channel": 4,
      "note": 74,
      "start": 25.6576,
      "duration": 0.1494,
      "velocity": 102,
      "chip": "ym2612"
    },
    {
      "channel": 0,
      "note": 55,
      "start": 25.7955,
      "duration": 0.0315,
      "velocity": 104,
      "chip": "ym2612"
    },
    {
      "channel": 1,
      "note": 79,
      "start": 25.796,
      "duration": 0.0407,
      "velocity": 102,
      "chip": "ym2612"
    },
    {
      "channel": 4,
      "note": 77,
      "start": 25.8137,
      "duration": 0.0406,
      "velocity": 102,
      "chip": "ym2612"
    },
    {
      "channel": 0,
      "note": 57,
      "start": 25.8431,
      "duration": 0.117,
      "velocity": 104,
      "chip": "ym2612"
    },
    {
      "channel": 4,
      "note": 77,
      "start": 25.8892,
      "duration": 0.1756,
      "velocity": 102,
      "chip": "ym2612"
    },
    {
      "channel": 0,
      "note": 62,
      "start": 26.0524,
      "duration": 0.4387,
      "velocity": 104,
      "chip": "ym2612"
    },
    {
      "channel": 2,
      "note": 93,
      "start": 26.0534,
      "duration": 0.0076,
      "velocity": 77,
      "chip": "ym2612"
    },
    {
      "channel": 2,
      "note": 93,
      "start": 26.0812,
      "duration": 0.0359,
      "velocity": 77,
      "chip": "ym2612"
    },
    {
      "channel": 1,
      "note": 74,
      "start": 26.2075,
      "duration": 0.2165,
      "velocity": 102,
      "chip": "ym2612"
    },
    {
      "channel": 2,
      "note": 93,
      "start": 26.208,
      "duration": 0.0368,
      "velocity": 77,
      "chip": "ym2612"
    },
    {
      "channel": 1,
      "note": 77,
      "start": 26.4615,
      "duration": 0.0409,
      "velocity": 102,
      "chip": "ym2612"
    },
    {
      "channel": 4,
      "note": 79,
      "start": 26.4793,
      "duration": 0.0409,
      "velocity": 102,
      "chip": "ym2612"
    },
    {
      "channel": 0,
      "note": 60,
      "start": 26.5088,
      "duration": 0.2722,
      "velocity": 104,
      "chip": "ym2612"
    },
    {
      "channel": 1,
      "note": 81,
      "start": 26.5093,
      "duration": 0.1698,
      "velocity": 102,
      "chip": "ym2612"
    },
    {
      "channel": 2,
      "note": 93,
      "start": 26.5098,
      "duration": 0.0067,
      "velocity": 77,
      "chip": "ym2612"
    },
    {
      "channel": 4,
      "note": 74,
      "start": 26.5538,
      "duration": 0.1731,
      "velocity": 102,
      "chip": "ym2612"
    },
    {
      "channel": 2,
      "note": 93,
      "start": 26.5892,
      "duration": 0.0359,
      "velocity": 77,
      "chip": "ym2612"
    },
    {
      "channel": 1,
      "note": 79,
      "start": 26.7154,
      "duration": 0.12,
      "velocity": 102,
      "chip": "ym2612"
    },
    {
      "channel": 2,
      "note": 93,
      "start": 26.7159,
      "duration": 0.0071,
      "velocity": 77,
      "chip": "ym2612"
    },
    {
      "channel": 4,
      "note": 77,
      "start": 26.7334,
      "duration": 0.1495,
      "velocity": 102,
      "chip": "ym2612"
    },
    {
      "channel": 0,
      "note": 57,
      "start": 26.8715,
      "duration": 0.0661,
      "velocity": 104,
      "chip": "ym2612"
    },
    {
      "channel": 1,
      "note": 77,
      "start": 26.872,
      "duration": 0.12,
      "velocity": 102,
      "chip": "ym2612"
    },
    {
      "channel": 4,
      "note": 81,
      "start": 26.8896,
      "duration": 0.1502,
      "velocity": 102,
      "chip": "ym2612"
    },
    {
      "channel": 0,
      "note": 55,
      "start": 27.028,
      "duration": 0.0318,
      "velocity": 104,
      "chip": "ym2612"
    },
    {
      "channel": 1,
      "note": 74,
      "start": 27.0286,
      "duration": 0.0412,
      "velocity": 102,
      "chip": "ym2612"
    },
    {
      "channel": 2,
      "note": 93,
      "start": 27.029,
      "duration": 0.007,
      "velocity": 77,
      "chip": "ym2612"
    },
    {
      "channel": 4,
      "note": 79,
      "start": 27.0478,
      "duration": 0.0412,
      "velocity": 102,
      "chip": "ym2612"
    },
    {
      "channel": 2,
      "note": 93,
      "start": 27.0539,
      "duration": 0.0065,
      "velocity": 77,
      "chip": "ym2612"
    },
    {
      "channel": 0,
      "note": 57,
      "start": 27.0761,
      "duration": 0.1173,
      "velocity": 104,
      "chip": "ym2612"
    },
    {
      "channel": 1,
      "note": 77,
      "start": 27.0766,
      "duration": 0.1712,
      "velocity": 102,
      "chip": "ym2612"
    },
    {
      "channel": 2,
      "note": 93,
      "start": 27.0771,
      "duration": 0.0082,
      "velocity": 77,
      "chip": "ym2612"
    },
    {
      "channel": 4,
      "note": 77,
      "start": 27.1224,
      "duration": 0.1763,
      "velocity": 102,
      "chip": "ym2612"
    },
    {
      "channel": 0,
      "note": 62,
      "start": 27.2868,
      "duration": 0.4375,
      "velocity": 104,
      "chip": "ym2612"
    },
    {
      "channel": 2,
      "note": 93,
      "start": 27.2876,
      "duration": 0.0073,
      "velocity": 77,
      "chip": "ym2612"
    },
    {
      "channel": 4,
      "note": 74,
      "start": 27.3052,
      "duration": 0.19,
      "velocity": 102,
      "chip": "ym2612"
    },
    {
      "channel": 2,
      "note": 93,
      "start": 27.3143,
      "duration": 0.0359,
      "velocity": 77,
      "chip": "ym2612"
    },
    {
      "channel": 1,
      "note": 77,
      "start": 27.4404,
      "duration": 0.2166,
      "velocity": 102,
      "chip": "ym2612"
    },
    {
      "channel": 2,
      "note": 93,
      "start": 27.441,
      "duration": 0.0356,
      "velocity": 77,
      "chip": "ym2612"
    },
    {
      "channel": 1,
      "note": 74,
      "start": 27.6933,
      "duration": 0.041,
      "velocity": 102,
      "chip": "ym2612"
    },
    {
      "channel": 4,
      "note": 77,
      "start": 27.7111,
      "duration": 0.0407,
      "velocity": 102,
      "chip": "ym2612"
    },
    {
      "channel": 0,
      "note": 60,
      "start": 27.7407,
      "duration": 0.1769,
      "velocity": 104,
      "chip": "ym2612"
    },
    {
      "channel": 1,
      "note": 79,
      "start": 27.7412,
      "duration": 0.097,
      "velocity": 102,
      "chip": "ym2612"
    },
    {
      "channel": 4,
      "note": 77,
      "start": 27.788,
      "duration": 0.076,
      "velocity": 102,
      "chip": "ym2612"
    },
    {
      "channel": 4,
      "note": 74,
      "start": 27.8709,
      "duration": 0.1501,
      "velocity": 102,
      "chip": "ym2612"
    },
    {
      "channel": 0,
      "note": 57,
      "start": 28.0081,
      "duration": 0.0659,
      "velocity": 104,
      "chip": "ym2612"
    },
    {
      "channel": 1,
      "note": 77,
      "start": 28.0086,
      "duration": 0.1198,
      "velocity": 102,
      "chip": "ym2612"
    },
    {
      "channel": 0,
      "note": 55,
      "start": 28.1656,
      "duration": 0.0301,
      "velocity": 104,
      "chip": "ym2612"
    },
    {
      "channel": 4,
      "note": 79,
      "start": 28.1837,
      "duration": 0.0406,
      "velocity": 102,
      "chip": "ym2612"
    },
    {
      "channel": 0,
      "note": 57,
      "start": 28.2133,
      "duration": 0.1161,
      "velocity": 104,
      "chip": "ym2612"
    },
    {
      "channel": 0,
      "note": 62,
      "start": 28.4216,
      "duration": 0.4386,
      "velocity": 104,
      "chip": "ym2612"
    },
    {
      "channel": 2,
      "note": 93,
      "start": 28.4227,
      "duration": 0.0074,
      "velocity": 77,
      "chip": "ym2612"
    },
    {
      "channel": 2,
      "note": 93,
      "start": 28.4501,
      "duration": 0.0359,
      "velocity": 77,
      "chip": "ym2612"
    },
    {
      "channel": 1,
      "note": 74,
      "start": 28.5763,
      "duration": 0.2165,
      "velocity": 102,
      "chip": "ym2612"
    },
    {
      "channel": 2,
      "note": 93,
      "start": 28.5768,
      "duration": 0.0356,
      "velocity": 77,
      "chip": "ym2612"
    },
    {
      "channel": 1,
      "note": 77,
      "start": 28.8291,
      "duration": 0.0411,
      "velocity": 102,
      "chip": "ym2612"
    },
    {
      "channel": 4,
      "note": 77,
      "start": 28.8483,
      "duration": 0.0411,
      "velocity": 102,
      "chip": "ym2612"
    },
    {
      "channel": 0,
      "note": 60,
      "start": 28.8767,
      "duration": 0.2734,
      "velocity": 104,
      "chip": "ym2612"
    },
    {
      "channel": 1,
      "note": 81,
      "start": 28.8772,
      "duration": 0.1711,
      "velocity": 102,
      "chip": "ym2612"
    },
    {
      "channel": 2,
      "note": 93,
      "start": 28.8777,
      "duration": 0.0079,
      "velocity": 77,
      "chip": "ym2612"
    },
    {
      "channel": 4,
      "note": 74,
      "start": 28.9229,
      "duration": 0.1741,
      "velocity": 102,
      "chip": "ym2612"
    },
    {
      "channel": 2,
      "note": 93,
      "start": 28.9584,
      "duration": 0.0359,
      "velocity": 77,
      "chip": "ym2612"
    },
    {
      "channel": 1,
      "note": 79,
      "start": 29.0857,
      "duration": 0.1199,
      "velocity": 102,
      "chip": "ym2612"
    },
    {
      "channel": 2,
      "note": 93,
      "start": 29.0862,
      "duration": 0.007,
      "velocity": 77,
      "chip": "ym2612"
    },
    {
      "channel": 4,
      "note": 77,
      "start": 29.1037,
      "duration": 0.1484,
      "velocity": 102,
      "chip": "ym2612"
    },
    {
      "channel": 0,
      "note": 57,
      "start": 29.2407,
      "duration": 0.0658,
      "velocity": 104,
      "chip": "ym2612"
    },
    {
      "channel": 1,
      "note": 77,
      "start": 29.2411,
      "duration": 0.1198,
      "velocity": 102,
      "chip": "ym2612"
    },
    {
      "channel": 4,
      "note": 81,
      "start": 29.2588,
      "duration": 0.1499,
      "velocity": 102,
      "chip": "ym2612"
    },
    {
      "channel": 0,
      "note": 55,
      "start": 29.3969,
      "duration": 0.0317,
      "velocity": 104,
      "chip": "ym2612"
    },
    {
      "channel": 1,
      "note": 74,
      "start": 29.3974,
      "duration": 0.0409,
      "velocity": 102,
      "chip": "ym2612"
    },
    {
      "channel": 2,
      "note": 93,
      "start": 29.3979,
      "duration": 0.007,
      "velocity": 77,
      "chip": "ym2612"
    },
    {
      "channel": 4,
      "note": 79,
      "start": 29.4153,
      "duration": 0.041,
      "velocity": 102,
      "chip": "ym2612"
    },
    {
      "channel": 2,
      "note": 93,
      "start": 29.4214,
      "duration": 0.0076,
      "velocity": 77,
      "chip": "ym2612"
    },
    {
      "channel": 0,
      "note": 57,
      "start": 29.4447,
      "duration": 0.1168,
      "velocity": 104,
      "chip": "ym2612"
    },
    {
      "channel": 1,
      "note": 77,
      "start": 29.4452,
      "duration": 0.1707,
      "velocity": 102,
      "chip": "ym2612"
    },
    {
      "channel": 2,
      "note": 93,
      "start": 29.4458,
      "duration": 0.0067,
      "velocity": 77,
      "chip": "ym2612"
    },
    {
      "channel": 4,
      "note": 77,
      "start": 29.4918,
      "duration": 0.1751,
      "velocity": 102,
      "chip": "ym2612"
    },
    {
      "channel": 0,
      "note": 62,
      "start": 29.6537,
      "duration": 0.4382,
      "velocity": 104,
      "chip": "ym2612"
    },
    {
      "channel": 2,
      "note": 93,
      "start": 29.6546,
      "duration": 0.0074,
      "velocity": 77,
      "chip": "ym2612"
    },
    {
      "channel": 4,
      "note": 74,
      "start": 29.6735,
      "duration": 0.1899,
      "velocity": 102,
      "chip": "ym2612"
    },
    {
      "channel": 2,
      "note": 93,
      "start": 29.6824,
      "duration": 0.0359,
      "velocity": 77,
      "chip": "ym2612"
    },
    {
      "channel": 1,
      "note": 77,
      "start": 29.8086,
      "duration": 0.2165,
      "velocity": 102,
      "chip": "ym2612"
    },
    {
      "channel": 2,
      "note": 93,
      "start": 29.8091,
      "duration": 0.0365,
      "velocity": 77,
      "chip": "ym2612"
    },
    {
      "channel": 1,
      "note": 79,
      "start": 30.0623,
      "duration": 0.0408,
      "velocity": 102,
      "chip": "ym2612"
    },
    {
      "channel": 4,
      "note": 77,
      "start": 30.0801,
      "duration": 0.0405,
      "velocity": 102,
      "chip": "ym2612"
    },
    {
      "channel": 0,
      "note": 60,
      "start": 30.1096,
      "duration": 0.1761,
      "velocity": 104,
      "chip": "ym2612"
    },
    {
      "channel": 4,
      "note": 77,
      "start": 30.1549,
      "duration": 0.0765,
      "velocity": 102,
      "chip": "ym2612"
    },
    {
      "channel": 1,
      "note": 74,
      "start": 30.1901,
      "duration": 0.0177,
      "velocity": 102,
      "chip": "ym2612"
    },
    {
      "channel": 1,
      "note": 77,
      "start": 30.2201,
      "duration": 0.0169,
      "velocity": 102,
      "chip": "ym2612"
    },
    {
      "channel": 4,
      "note": 79,
      "start": 30.3412,
      "duration": 0.0465,
      "velocity": 102,
      "chip": "ym2612"
    },
    {
      "channel": 0,
      "note": 57,
      "start": 30.3761,
      "duration": 0.0659,
      "velocity": 104,
      "chip": "ym2612"
    },
    {
      "channel": 1,
      "note": 77,
      "start": 30.3767,
      "duration": 0.1197,
      "velocity": 102,
      "chip": "ym2612"
    },
    {
      "channel": 4,
      "note": 74,
      "start": 30.3956,
      "duration": 0.0656,
      "velocity": 102,
      "chip": "ym2612"
    },
    {
      "channel": 0,
      "note": 55,
      "start": 30.5325,
      "duration": 0.0315,
      "velocity": 104,
      "chip": "ym2612"
    },
    {
      "channel": 1,
      "note": 79,
      "start": 30.533,
      "duration": 0.0408,
      "velocity": 102,
      "chip": "ym2612"
    },
    {
      "channel": 4,
      "note": 77,
      "start": 30.552,
      "duration": 0.0407,
      "velocity": 102,
      "chip": "ym2612"
    },
    {
      "channel": 0,
      "note": 57,
      "start": 30.5802,
      "duration": 0.1172,
      "velocity": 104,
      "chip": "ym2612"
    },
    {
      "channel": 4,
      "note": 77,
      "start": 30.6264,
      "duration": 0.1762,
      "velocity": 102,
      "chip": "ym2612"
    },
    {
      "channel": 0,
      "note": 62,
      "start": 30.7903,
      "duration": 0.4378,
      "velocity": 104,
      "chip": "ym2612"
    },
    {
      "channel": 2,
      "note": 93,
      "start": 30.7914,
      "duration": 0.0075,
      "velocity": 77,
      "chip": "ym2612"
    },
    {
      "channel": 2,
      "note": 93,
      "start": 30.8183,
      "duration": 0.0359,
      "velocity": 77,
      "chip": "ym2612"
    },
    {
      "channel": 1,
      "note": 74,
      "start": 30.9444,
      "duration": 0.2166,
      "velocity": 102,
      "chip": "ym2612"
    },
    {
      "channel": 2,
      "note": 93,
      "start": 30.9449,
      "duration": 0.0356,
      "velocity": 77,
      "chip": "ym2612"
    },
    {
      "channel": 1,
      "note": 77,
      "start": 31.1973,
      "duration": 0.0408,
      "velocity": 102,
      "chip": "ym2612"
    },
    {
      "channel": 4,
      "note": 79,
      "start": 31.2151,
      "duration": 0.0408,
      "velocity": 102,
      "chip": "ym2612"
    },
    {
      "channel": 0,
      "note": 60,
      "start": 31.2445,
      "duration": 0.2734,
      "velocity": 104,
      "chip": "ym2612"
    },
    {
      "channel": 1,
      "note": 81,
      "start": 31.245,
      "duration": 0.1709,
      "velocity": 102,
      "chip": "ym2612"
    },
    {
      "channel": 2,
      "note": 93,
      "start": 31.2456,
      "duration": 0.0066,
      "velocity": 77,
      "chip": "ym2612"
    },
    {
      "channel": 4,
      "note": 74,
      "start": 31.2917,
      "duration": 0.173,
      "velocity": 102,
      "chip": "ym2612"
    },
    {
      "channel": 2,
      "note": 93,
      "start": 31.326,
      "duration": 0.0359,
      "velocity": 77,
      "chip": "ym2612"
    },
    {
      "channel": 1,
      "note": 79,
      "start": 31.4522,
      "duration": 0.1201,
      "velocity": 102,
      "chip": "ym2612"
    },
    {
      "channel": 2,
      "note": 93,
      "start": 31.4527,
      "duration": 0.0071,
      "velocity": 77,
      "chip": "ym2612"
    },
    {
      "channel": 4,
      "note": 77,
      "start": 31.4715,
      "duration": 0.1496,
      "velocity": 102,
      "chip": "ym2612"
    },
    {
      "channel": 0,
      "note": 57,
      "start": 31.6083,
      "duration": 0.0658,
      "velocity": 104,
      "chip": "ym2612"
    },
    {
      "channel": 1,
      "note": 77,
      "start": 31.6088,
      "duration": 0.1197,
      "velocity": 102,
      "chip": "ym2612"
    },
    {
      "channel": 4,
      "note": 81,
      "start": 31.6276,
      "duration": 0.1494,
      "velocity": 102,
      "chip": "ym2612"
    },
    {
      "channel": 0,
      "note": 55,
      "start": 31.7651,
      "duration": 0.0305,
      "velocity": 104,
      "chip": "ym2612"
    },
    {
      "channel": 1,
      "note": 74,
      "start": 31.7657,
      "duration": 0.0408,
      "velocity": 102,
      "chip": "ym2612"
    },
    {
      "channel": 2,
      "note": 93,
      "start": 31.7662,
      "duration": 0.007,
      "velocity": 77,
      "chip": "ym2612"
    },
    {
      "channel": 4,
      "note": 79,
      "start": 31.7836,
      "duration": 0.0408,
      "velocity": 102,
      "chip": "ym2612"
    },
    {
      "channel": 2,
      "note": 93,
      "start": 31.7896,
      "duration": 0.0064,
      "velocity": 77,
      "chip": "ym2612"
    },
    {
      "channel": 0,
      "note": 57,
      "start": 31.8129,
      "duration": 0.1163,
      "velocity": 104,
      "chip": "ym2612"
    },
    {
      "channel": 1,
      "note": 77,
      "start": 31.8134,
      "duration": 0.1702,
      "velocity": 102,
      "chip": "ym2612"
    },
    {
      "channel": 2,
      "note": 93,
      "start": 31.8139,
      "duration": 0.0066,
      "velocity": 77,
      "chip": "ym2612"
    },
    {
      "channel": 4,
      "note": 77,
      "start": 31.8582,
      "duration": 0.1751,
      "velocity": 102,
      "chip": "ym2612"
    },
    {
      "channel": 0,
      "note": 62,
      "start": 32.0214,
      "duration": 0.4385,
      "velocity": 104,
      "chip": "ym2612"
    },
    {
      "channel": 2,
      "note": 93,
      "start": 32.0222,
      "duration": 0.0073,
      "velocity": 77,
      "chip": "ym2612"
    },
    {
      "channel": 4,
      "note": 74,
      "start": 32.0399,
      "duration": 0.1912,
      "velocity": 102,
      "chip": "ym2612"
    },
    {
      "channel": 2,
      "note": 93,
      "start": 32.0513,
      "duration": 0.0347,
      "velocity": 77,
      "chip": "ym2612"
    },
    {
      "channel": 1,
      "note": 77,
      "start": 32.1763,
      "duration": 0.2166,
      "velocity": 102,
      "chip": "ym2612"
    },
    {
      "channel": 2,
      "note": 93,
      "start": 32.1768,
      "duration": 0.0357,
      "velocity": 77,
      "chip": "ym2612"
    },
    {
      "channel": 1,
      "note": 79,
      "start": 32.4291,
      "duration": 0.0408,
      "velocity": 102,
      "chip": "ym2612"
    },
    {
      "channel": 4,
      "note": 77,
      "start": 32.4482,
      "duration": 0.0408,
      "velocity": 102,
      "chip": "ym2612"
    },
    {
      "channel": 0,
      "note": 60,
      "start": 32.4764,
      "duration": 0.1774,
      "velocity": 104,
      "chip": "ym2612"
    },
    {
      "channel": 1,
      "note": 77,
      "start": 32.4769,
      "duration": 0.0974,
      "velocity": 102,
      "chip": "ym2612"
    },
    {
      "channel": 4,
      "note": 77,
      "start": 32.5229,
      "duration": 0.0769,
      "velocity": 102,
      "chip": "ym2612"
    },
    {
      "channel": 4,
      "note": 79,
      "start": 32.6066,
      "duration": 0.1494,
      "velocity": 102,
      "chip": "ym2612"
    },
    {
      "channel": 0,
      "note": 57,
      "start": 32.7444,
      "duration": 0.0657,
      "velocity": 104,
      "chip": "ym2612"
    },
    {
      "channel": 1,
      "note": 74,
      "start": 32.7448,
      "duration": 0.1197,
      "velocity": 102,
      "chip": "ym2612"
    },
    {
      "channel": 0,
      "note": 55,
      "start": 32.9006,
      "duration": 0.033,
      "velocity": 104,
      "chip": "ym2612"
    },
    {
      "channel": 4,
      "note": 77,
      "start": 32.9203,
      "duration": 0.0407,
      "velocity": 102,
      "chip": "ym2612"
    },
    {
      "channel": 0,
      "note": 57,
      "start": 32.9499,
      "duration": 0.1155,
      "velocity": 104,
      "chip": "ym2612"
    },
    {
      "channel": 3,
      "note": 76,
      "start": 33.1596,
      "duration": 0.0074,
      "velocity": 104,
      "chip": "ym2612"
    },
    {
      "channel": 3,
      "note": 77,
      "start": 33.1867,
      "duration": 0.0359,
      "velocity": 104,
      "chip": "ym2612"
    },
    {
      "channel": 3,
      "note": 77,
      "start": 33.3131,
      "duration": 0.0363,
      "velocity": 104,
      "chip": "ym2612"
    },
    {
      "channel": 3,
      "note": 77,
      "start": 33.4396,
      "duration": 0.0359,
      "velocity": 104,
      "chip": "ym2612"
    },
    {
      "channel": 3,
      "note": 77,
      "start": 33.5664,
      "duration": 0.0073,
      "velocity": 104,
      "chip": "ym2612"
    },
    {
      "channel": 3,
      "note": 77,
      "start": 33.5902,
      "duration": 0.0065,
      "velocity": 104,
      "chip": "ym2612"
    },
    {
      "channel": 3,
      "note": 77,
      "start": 33.6147,
      "duration": 0.0068,
      "velocity": 104,
      "chip": "ym2612"
    },
    {
      "channel": 3,
      "note": 77,
      "start": 33.6951,
      "duration": 0.0369,
      "velocity": 104,
      "chip": "ym2612"
    },
    {
      "channel": 3,
      "note": 77,
      "start": 33.8213,
      "duration": 0.0072,
      "velocity": 104,
      "chip": "ym2612"
    },
    {
      "channel": 3,
      "note": 77,
      "start": 33.8524,
      "duration": 0.0347,
      "velocity": 104,
      "chip": "ym2612"
    },
    {
      "channel": 3,
      "note": 77,
      "start": 33.9776,
      "duration": 0.0072,
      "velocity": 104,
      "chip": "ym2612"
    },
    {
      "channel": 3,
      "note": 77,
      "start": 34.0076,
      "duration": 0.0361,
      "velocity": 104,
      "chip": "ym2612"
    },
    {
      "channel": 3,
      "note": 77,
      "start": 34.134,
      "duration": 0.0073,
      "velocity": 104,
      "chip": "ym2612"
    },
    {
      "channel": 3,
      "note": 77,
      "start": 34.1594,
      "duration": 0.0066,
      "velocity": 104,
      "chip": "ym2612"
    },
    {
      "channel": 3,
      "note": 77,
      "start": 34.1826,
      "duration": 0.0084,
      "velocity": 104,
      "chip": "ym2612"
    },
    {
      "channel": 3,
      "note": 77,
      "start": 34.2629,
      "duration": 0.0359,
      "velocity": 104,
      "chip": "ym2612"
    },
    {
      "channel": 0,
      "note": 52,
      "start": 35.526,
      "duration": 0.0081,
      "velocity": 104,
      "chip": "ym2612"
    },
    {
      "channel": 3,
      "note": 77,
      "start": 35.5276,
      "duration": 0.0073,
      "velocity": 104,
      "chip": "ym2612"
    },
    {
      "channel": 0,
      "note": 52,
      "start": 35.5557,
      "duration": 0.0347,
      "velocity": 104,
      "chip": "ym2612"
    },
    {
      "channel": 3,
      "note": 77,
      "start": 35.5568,
      "duration": 0.0344,
      "velocity": 104,
      "chip": "ym2612"
    },
    {
      "channel": 0,
      "note": 52,
      "start": 35.6809,
      "duration": 0.0359,
      "velocity": 104,
      "chip": "ym2612"
    },
    {
      "channel": 3,
      "note": 77,
      "start": 35.6819,
      "duration": 0.0356,
      "velocity": 104,
      "chip": "ym2612"
    },
    {
      "channel": 0,
      "note": 52,
      "start": 35.8073,
      "duration": 0.0359,
      "velocity": 104,
      "chip": "ym2612"
    },
    {
      "channel": 3,
      "note": 77,
      "start": 35.8084,
      "duration": 0.0356,
      "velocity": 104,
      "chip": "ym2612"
    },
    {
      "channel": 0,
      "note": 52,
      "start": 35.9337,
      "duration": 0.0075,
      "velocity": 104,
      "chip": "ym2612"
    },
    {
      "channel": 3,
      "note": 77,
      "start": 35.9348,
      "duration": 0.0073,
      "velocity": 104,
      "chip": "ym2612"
    },
    {
      "channel": 3,
      "note": 77,
      "start": 35.96,
      "duration": 0.0066,
      "velocity": 104,
      "chip": "ym2612"
    },
    {
      "channel": 0,
      "note": 52,
      "start": 35.9823,
      "duration": 0.0085,
      "velocity": 104,
      "chip": "ym2612"
    },
    {
      "channel": 3,
      "note": 77,
      "start": 35.9846,
      "duration": 0.007,
      "velocity": 104,
      "chip": "ym2612"
    },
    {
      "channel": 0,
      "note": 52,
      "start": 36.063,
      "duration": 0.0359,
      "velocity": 104,
      "chip": "ym2612"
    },
    {
      "channel": 3,
      "note": 77,
      "start": 36.0642,
      "duration": 0.0356,
      "velocity": 104,
      "chip": "ym2612"
    },
    {
      "channel": 0,
      "note": 52,
      "start": 36.1894,
      "duration": 0.0076,
      "velocity": 104,
      "chip": "ym2612"
    },
    {
      "channel": 3,
      "note": 77,
      "start": 36.1905,
      "duration": 0.0073,
      "velocity": 104,
      "chip": "ym2612"
    },
    {
      "channel": 0,
      "note": 52,
      "start": 36.2193,
      "duration": 0.0359,
      "velocity": 104,
      "chip": "ym2612"
    },
    {
      "channel": 3,
      "note": 77,
      "start": 36.2204,
      "duration": 0.0356,
      "velocity": 104,
      "chip": "ym2612"
    },
    {
      "channel": 0,
      "note": 52,
      "start": 36.3457,
      "duration": 0.0075,
      "velocity": 104,
      "chip": "ym2612"
    },
    {
      "channel": 3,
      "note": 77,
      "start": 36.3468,
      "duration": 0.0072,
      "velocity": 104,
      "chip": "ym2612"
    },
    {
      "channel": 3,
      "note": 77,
      "start": 36.3765,
      "duration": 0.0371,
      "velocity": 104,
      "chip": "ym2612"
    },
    {
      "channel": 0,
      "note": 55,
      "start": 36.502,
      "duration": 0.0318,
      "velocity": 104,
      "chip": "ym2612"
    },
    {
      "channel": 3,
      "note": 77,
      "start": 36.503,
      "duration": 0.0072,
      "velocity": 104,
      "chip": "ym2612"
    },
    {
      "channel": 3,
      "note": 77,
      "start": 36.5279,
      "duration": 0.0066,
      "velocity": 104,
      "chip": "ym2612"
    },
    {
      "channel": 0,
      "note": 56,
      "start": 36.5502,
      "duration": 0.1164,
      "velocity": 104,
      "chip": "ym2612"
    },
    {
      "channel": 3,
      "note": 77,
      "start": 36.5513,
      "duration": 0.007,
      "velocity": 104,
      "chip": "ym2612"
    },
    {
      "channel": 3,
      "note": 77,
      "start": 36.6314,
      "duration": 0.036,
      "velocity": 104,
      "chip": "ym2612"
    },
    {
      "channel": 2,
      "note": 93,
      "start": 36.7595,
      "duration": 0.0073,
      "velocity": 77,
      "chip": "ym2612"
    },
    {
      "channel": 2,
      "note": 93,
      "start": 36.7876,
      "duration": 0.0359,
      "velocity": 77,
      "chip": "ym2612"
    },
    {
      "channel": 2,
      "note": 93,
      "start": 36.914,
      "duration": 0.0359,
      "velocity": 77,
      "chip": "ym2612"
    },
    {
      "channel": 3,
      "note": 77,
      "start": 37.8963,
      "duration": 0.0074,
      "velocity": 104,
      "chip": "ym2612"
    },
    {
      "channel": 3,
      "note": 77,
      "start": 37.9236,
      "duration": 0.0359,
      "velocity": 104,
      "chip": "ym2612"
    },
    {
      "channel": 3,
      "note": 77,
      "start": 38.05,
      "duration": 0.0359,
      "velocity": 104,
      "chip": "ym2612"
    },
    {
      "channel": 3,
      "note": 77,
      "start": 38.1765,
      "duration": 0.0368,
      "velocity": 104,
      "chip": "ym2612"
    },
    {
      "channel": 3,
      "note": 77,
      "start": 38.3029,
      "duration": 0.0074,
      "velocity": 104,
      "chip": "ym2612"
    },
    {
      "channel": 3,
      "note": 77,
      "start": 38.328,
      "duration": 0.0067,
      "velocity": 104,
      "chip": "ym2612"
    },
    {
      "channel": 3,
      "note": 77,
      "start": 38.3515,
      "duration": 0.0068,
      "velocity": 104,
      "chip": "ym2612"
    },
    {
      "channel": 3,
      "note": 77,
      "start": 38.4317,
      "duration": 0.0357,
      "velocity": 104,
      "chip": "ym2612"
    },
    {
      "channel": 3,
      "note": 77,
      "start": 38.558,
      "duration": 0.0084,
      "velocity": 104,
      "chip": "ym2612"
    },
    {
      "channel": 3,
      "note": 77,
      "start": 38.5879,
      "duration": 0.0358,
      "velocity": 104,
      "chip": "ym2612"
    },
    {
      "channel": 3,
      "note": 77,
      "start": 38.7155,
      "duration": 0.0071,
      "velocity": 104,
      "chip": "ym2612"
    },
    {
      "channel": 3,
      "note": 77,
      "start": 38.7442,
      "duration": 0.036,
      "velocity": 104,
      "chip": "ym2612"
    },
    {
      "channel": 3,
      "note": 77,
      "start": 38.8705,
      "duration": 0.0073,
      "velocity": 104,
      "chip": "ym2612"
    },
    {
      "channel": 3,
      "note": 77,
      "start": 38.8945,
      "duration": 0.0069,
      "velocity": 104,
      "chip": "ym2612"
    },
    {
      "channel": 3,
      "note": 77,
      "start": 38.9194,
      "duration": 0.007,
      "velocity": 104,
      "chip": "ym2612"
    },
    {
      "channel": 3,
      "note": 77,
      "start": 38.9993,
      "duration": 0.0367,
      "velocity": 104,
      "chip": "ym2612"
    },
    {
      "channel": 0,
      "note": 52,
      "start": 40.2625,
      "duration": 0.0082,
      "velocity": 104,
      "chip": "ym2612"
    },
    {
      "channel": 3,
      "note": 77,
      "start": 40.2651,
      "duration": 0.0076,
      "velocity": 104,
      "chip": "ym2612"
    },
    {
      "channel": 0,
      "note": 52,
      "start": 40.2911,
      "duration": 0.0359,
      "velocity": 104,
      "chip": "ym2612"
    },
    {
      "channel": 3,
      "note": 77,
      "start": 40.2921,
      "duration": 0.0356,
      "velocity": 104,
      "chip": "ym2612"
    },
    {
      "channel": 0,
      "note": 52,
      "start": 40.4175,
      "duration": 0.0359,
      "velocity": 104,
      "chip": "ym2612"
    },
    {
      "channel": 3,
      "note": 77,
      "start": 40.4197,
      "duration": 0.0344,
      "velocity": 104,
      "chip": "ym2612"
    },
    {
      "channel": 0,
      "note": 52,
      "start": 40.5439,
      "duration": 0.0359,
      "velocity": 104,
      "chip": "ym2612"
    },
    {
      "channel": 3,
      "note": 77,
      "start": 40.545,
      "duration": 0.0356,
      "velocity": 104,
      "chip": "ym2612"
    },
    {
      "channel": 0,
      "note": 52,
      "start": 40.6703,
      "duration": 0.0077,
      "velocity": 104,
      "chip": "ym2612"
    },
    {
      "channel": 3,
      "note": 77,
      "start": 40.6714,
      "duration": 0.0074,
      "velocity": 104,
      "chip": "ym2612"
    },
    {
      "channel": 3,
      "note": 77,
      "start": 40.6952,
      "duration": 0.0068,
      "velocity": 104,
      "chip": "ym2612"
    },
    {
      "channel": 0,
      "note": 52,
      "start": 40.719,
      "duration": 0.007,
      "velocity": 104,
      "chip": "ym2612"
    },
    {
      "channel": 3,
      "note": 77,
      "start": 40.7201,
      "duration": 0.0068,
      "velocity": 104,
      "chip": "ym2612"
    },
    {
      "channel": 0,
      "note": 52,
      "start": 40.7993,
      "duration": 0.0364,
      "velocity": 104,
      "chip": "ym2612"
    },
    {
      "channel": 3,
      "note": 77,
      "start": 40.8006,
      "duration": 0.036,
      "velocity": 104,
      "chip": "ym2612"
    },
    {
      "channel": 0,
      "note": 52,
      "start": 40.9258,
      "duration": 0.0076,
      "velocity": 104,
      "chip": "ym2612"
    },
    {
      "channel": 3,
      "note": 77,
      "start": 40.9268,
      "duration": 0.0073,
      "velocity": 104,
      "chip": "ym2612"
    },
    {
      "channel": 0,
      "note": 52,
      "start": 40.9563,
      "duration": 0.0355,
      "velocity": 104,
      "chip": "ym2612"
    },
    {
      "channel": 3,
      "note": 77,
      "start": 40.9574,
      "duration": 0.0352,
      "velocity": 104,
      "chip": "ym2612"
    },
    {
      "channel": 0,
      "note": 52,
      "start": 41.0822,
      "duration": 0.0074,
      "velocity": 104,
      "chip": "ym2612"
    },
    {
      "channel": 3,
      "note": 77,
      "start": 41.0833,
      "duration": 0.0071,
      "velocity": 104,
      "chip": "ym2612"
    },
    {
      "channel": 3,
      "note": 77,
      "start": 41.1134,
      "duration": 0.0359,
      "velocity": 104,
      "chip": "ym2612"
    },
    {
      "channel": 0,
      "note": 55,
      "start": 41.2389,
      "duration": 0.0324,
      "velocity": 104,
      "chip": "ym2612"
    },
    {
      "channel": 3,
      "note": 77,
      "start": 41.24,
      "duration": 0.0086,
      "velocity": 104,
      "chip": "ym2612"
    },
    {
      "channel": 3,
      "note": 77,
      "start": 41.2652,
      "duration": 0.0069,
      "velocity": 104,
      "chip": "ym2612"
    },
    {
      "channel": 0,
      "note": 56,
      "start": 41.2879,
      "duration": 0.1161,
      "velocity": 104,
      "chip": "ym2612"
    },
    {
      "channel": 3,
      "note": 77,
      "start": 41.2902,
      "duration": 0.0069,
      "velocity": 104,
      "chip": "ym2612"
    },
    {
      "channel": 3,
      "note": 77,
      "start": 41.3689,
      "duration": 0.0359,
      "velocity": 104,
      "chip": "ym2612"
    },
    {
      "channel": 2,
      "note": 93,
      "start": 41.4969,
      "duration": 0.0072,
      "velocity": 77,
      "chip": "ym2612"
    },
    {
      "channel": 2,
      "note": 93,
      "start": 41.5247,
      "duration": 0.0359,
      "velocity": 77,
      "chip": "ym2612"
    },
    {
      "channel": 2,
      "note": 93,
      "start": 41.6511,
      "duration": 0.0359,
      "velocity": 77,
      "chip": "ym2612"
    },
    {
      "channel": 0,
      "note": 62,
      "start": 42.6357,
      "duration": 0.4349,
      "velocity": 104,
      "chip": "ym2612"
    },
    {
      "channel": 2,
      "note": 93,
      "start": 42.6442,
      "duration": 0.0119,
      "velocity": 77,
      "chip": "ym2612"
    },
    {
      "channel": 2,
      "note": 93,
      "start": 42.6735,
      "duration": 0.023,
      "velocity": 77,
      "chip": "ym2612"
    },
    {
      "channel": 2,
      "note": 93,
      "start": 42.787,
      "duration": 0.0359,
      "velocity": 77,
      "chip": "ym2612"
    },
    {
      "channel": 0,
      "note": 60,
      "start": 43.0887,
      "duration": 0.272,
      "velocity": 104,
      "chip": "ym2612"
    },
    {
      "channel": 2,
      "note": 93,
      "start": 43.0895,
      "duration": 0.0067,
      "velocity": 77,
      "chip": "ym2612"
    },
    {
      "channel": 2,
      "note": 93,
      "start": 43.169,
      "duration": 0.0359,
      "velocity": 77,
      "chip": "ym2612"
    },
    {
      "channel": 2,
      "note": 93,
      "start": 43.2953,
      "duration": 0.0073,
      "velocity": 77,
      "chip": "ym2612"
    },
    {
      "channel": 0,
      "note": 57,
      "start": 43.4512,
      "duration": 0.0659,
      "velocity": 104,
      "chip": "ym2612"
    },
    {
      "channel": 0,
      "note": 55,
      "start": 43.6075,
      "duration": 0.032,
      "velocity": 104,
      "chip": "ym2612"
    },
    {
      "channel": 2,
      "note": 93,
      "start": 43.6083,
      "duration": 0.0071,
      "velocity": 77,
      "chip": "ym2612"
    },
    {
      "channel": 2,
      "note": 93,
      "start": 43.6333,
      "duration": 0.0068,
      "velocity": 77,
      "chip": "ym2612"
    },
    {
      "channel": 0,
      "note": 57,
      "start": 43.656,
      "duration": 0.1162,
      "velocity": 104,
      "chip": "ym2612"
    },
    {
      "channel": 2,
      "note": 93,
      "start": 43.6568,
      "duration": 0.0068,
      "velocity": 77,
      "chip": "ym2612"
    },
    {
      "channel": 0,
      "note": 62,
      "start": 45.0014,
      "duration": 0.4384,
      "velocity": 104,
      "chip": "ym2612"
    },
    {
      "channel": 2,
      "note": 93,
      "start": 45.0024,
      "duration": 0.0076,
      "velocity": 77,
      "chip": "ym2612"
    },
    {
      "channel": 2,
      "note": 93,
      "start": 45.0299,
      "duration": 0.0359,
      "velocity": 77,
      "chip": "ym2612"
    },
    {
      "channel": 2,
      "note": 93,
      "start": 45.1563,
      "duration": 0.0359,
      "velocity": 77,
      "chip": "ym2612"
    },
    {
      "channel": 0,
      "note": 60,
      "start": 45.4567,
      "duration": 0.2732,
      "velocity": 104,
      "chip": "ym2612"
    },
    {
      "channel": 2,
      "note": 93,
      "start": 45.4574,
      "duration": 0.0066,
      "velocity": 77,
      "chip": "ym2612"
    },
    {
      "channel": 2,
      "note": 93,
      "start": 45.538,
      "duration": 0.0359,
      "velocity": 77,
      "chip": "ym2612"
    },
    {
      "channel": 2,
      "note": 93,
      "start": 45.6644,
      "duration": 0.0085,
      "velocity": 77,
      "chip": "ym2612"
    },
    {
      "channel": 0,
      "note": 57,
      "start": 45.8214,
      "duration": 0.0646,
      "velocity": 104,
      "chip": "ym2612"
    },
    {
      "channel": 0,
      "note": 55,
      "start": 45.9766,
      "duration": 0.0308,
      "velocity": 104,
      "chip": "ym2612"
    },
    {
      "channel": 2,
      "note": 93,
      "start": 45.9773,
      "duration": 0.0073,
      "velocity": 77,
      "chip": "ym2612"
    },
    {
      "channel": 2,
      "note": 93,
      "start": 46.0012,
      "duration": 0.0067,
      "velocity": 77,
      "chip": "ym2612"
    },
    {
      "channel": 0,
      "note": 57,
      "start": 46.0251,
      "duration": 0.1161,
      "velocity": 104,
      "chip": "ym2612"
    },
    {
      "channel": 2,
      "note": 93,
      "start": 46.0259,
      "duration": 0.0068,
      "velocity": 77,
      "chip": "ym2612"
    },
    {
      "channel": 0,
      "note": 62,
      "start": 47.3697,
      "duration": 33.5232,
      "velocity": 104,
      "chip": "ym2612"
    }
  ]
}