{
  "track_name": "02 - Main BGM1",
  "duration_sec": 43.974,
  "sample_rate": 44100,
  "note_count": 593,
  "unique_pitches": 26,
  "pitch_range": 69,
  "avg_note_duration": 0.2377,
  "reconstruction_stats": {
    "notes_reconstructed": 593,
    "keyon_events": 593,
    "keyoff_events": 591,
    "orphan_keyons": 2,
    "unique_pitches": 26,
    "pitch_range": 69,
    "avg_duration_sec": 0.2377
  },
  "metadata": {
    "source": "Z\\Zoom!\\02 - Main BGM1.vgz"
  },
  "notes": [
    {
      "channel": 1,
      "note": 65,
      "start": 0.0,
      "duration": 0.8028,
      "velocity": 100,
      "chip": "ym2612"
    },
    {
      "channel": 4,
      "note": 77,
      "start": 0.0086,
      "duration": 0.1234,
      "velocity": 99,
      "chip": "ym2612"
    },
    {
      "channel": 2,
      "note": 34,
      "start": 0.0122,
      "duration": 0.1894,
      "velocity": 117,
      "chip": "ym2612"
    },
    {
      "channel": 4,
      "note": 89,
      "start": 0.1496,
      "duration": 0.1188,
      "velocity": 99,
      "chip": "ym2612"
    },
    {
      "channel": 4,
      "note": 96,
      "start": 0.2853,
      "duration": 0.1156,
      "velocity": 99,
      "chip": "ym2612"
    },
    {
      "channel": 4,
      "note": 101,
      "start": 0.4179,
      "duration": 0.1159,
      "velocity": 99,
      "chip": "ym2612"
    },
    {
      "channel": 4,
      "note": 96,
      "start": 0.5527,
      "duration": 0.1172,
      "velocity": 99,
      "chip": "ym2612"
    },
    {
      "channel": 2,
      "note": 44,
      "start": 0.5539,
      "duration": 0.2329,
      "velocity": 116,
      "chip": "ym2612"
    },
    {
      "channel": 4,
      "note": 89,
      "start": 0.6869,
      "duration": 0.1164,
      "velocity": 99,
      "chip": "ym2612"
    },
    {
      "channel": 1,
      "note": 74,
      "start": 0.82,
      "duration": 0.2597,
      "velocity": 100,
      "chip": "ym2612"
    },
    {
      "channel": 4,
      "note": 77,
      "start": 0.8228,
      "duration": 0.1209,
      "velocity": 99,
      "chip": "ym2612"
    },
    {
      "channel": 2,
      "note": 34,
      "start": 0.824,
      "duration": 0.1892,
      "velocity": 117,
      "chip": "ym2612"
    },
    {
      "channel": 4,
      "note": 89,
      "start": 0.9612,
      "duration": 0.119,
      "velocity": 99,
      "chip": "ym2612"
    },
    {
      "channel": 1,
      "note": 75,
      "start": 1.0967,
      "duration": 0.7949,
      "velocity": 100,
      "chip": "ym2612"
    },
    {
      "channel": 4,
      "note": 96,
      "start": 1.0995,
      "duration": 0.1209,
      "velocity": 99,
      "chip": "ym2612"
    },
    {
      "channel": 2,
      "note": 34,
      "start": 1.1008,
      "duration": 0.1892,
      "velocity": 117,
      "chip": "ym2612"
    },
    {
      "channel": 4,
      "note": 101,
      "start": 1.2381,
      "duration": 0.1188,
      "velocity": 99,
      "chip": "ym2612"
    },
    {
      "channel": 4,
      "note": 96,
      "start": 1.3737,
      "duration": 0.1156,
      "velocity": 99,
      "chip": "ym2612"
    },
    {
      "channel": 4,
      "note": 89,
      "start": 1.5062,
      "duration": 0.1156,
      "velocity": 99,
      "chip": "ym2612"
    },
    {
      "channel": 4,
      "note": 75,
      "start": 1.6408,
      "duration": 0.1179,
      "velocity": 99,
      "chip": "ym2612"
    },
    {
      "channel": 2,
      "note": 44,
      "start": 1.642,
      "duration": 0.2336,
      "velocity": 116,
      "chip": "ym2612"
    },
    {
      "channel": 4,
      "note": 87,
      "start": 1.7757,
      "duration": 0.1163,
      "velocity": 99,
      "chip": "ym2612"
    },
    {
      "channel": 1,
      "note": 75,
      "start": 1.9087,
      "duration": 0.1159,
      "velocity": 100,
      "chip": "ym2612"
    },
    {
      "channel": 4,
      "note": 76,
      "start": 1.9094,
      "duration": 0.1156,
      "velocity": 99,
      "chip": "ym2612"
    },
    {
      "channel": 1,
      "note": 77,
      "start": 2.0415,
      "duration": 0.1159,
      "velocity": 100,
      "chip": "ym2612"
    },
    {
      "channel": 4,
      "note": 88,
      "start": 2.0422,
      "duration": 0.1158,
      "velocity": 99,
      "chip": "ym2612"
    },
    {
      "channel": 4,
      "note": 77,
      "start": 2.1778,
      "duration": 0.1211,
      "velocity": 99,
      "chip": "ym2612"
    },
    {
      "channel": 2,
      "note": 34,
      "start": 2.1791,
      "duration": 0.1897,
      "velocity": 117,
      "chip": "ym2612"
    },
    {
      "channel": 1,
      "note": 65,
      "start": 2.3161,
      "duration": 0.2515,
      "velocity": 100,
      "chip": "ym2612"
    },
    {
      "channel": 4,
      "note": 89,
      "start": 2.3168,
      "duration": 0.1188,
      "velocity": 99,
      "chip": "ym2612"
    },
    {
      "channel": 4,
      "note": 96,
      "start": 2.4525,
      "duration": 0.1156,
      "velocity": 99,
      "chip": "ym2612"
    },
    {
      "channel": 1,
      "note": 65,
      "start": 2.5845,
      "duration": 0.1159,
      "velocity": 100,
      "chip": "ym2612"
    },
    {
      "channel": 4,
      "note": 101,
      "start": 2.5852,
      "duration": 0.1157,
      "velocity": 99,
      "chip": "ym2612"
    },
    {
      "channel": 1,
      "note": 70,
      "start": 2.7174,
      "duration": 0.2529,
      "velocity": 100,
      "chip": "ym2612"
    },
    {
      "channel": 4,
      "note": 96,
      "start": 2.7203,
      "duration": 0.1172,
      "velocity": 99,
      "chip": "ym2612"
    },
    {
      "channel": 2,
      "note": 44,
      "start": 2.7214,
      "duration": 0.2329,
      "velocity": 116,
      "chip": "ym2612"
    },
    {
      "channel": 4,
      "note": 89,
      "start": 2.8544,
      "duration": 0.1163,
      "velocity": 99,
      "chip": "ym2612"
    },
    {
      "channel": 1,
      "note": 72,
      "start": 2.9875,
      "duration": 0.2598,
      "velocity": 100,
      "chip": "ym2612"
    },
    {
      "channel": 4,
      "note": 77,
      "start": 2.9903,
      "duration": 0.1209,
      "velocity": 99,
      "chip": "ym2612"
    },
    {
      "channel": 2,
      "note": 34,
      "start": 2.9915,
      "duration": 0.1893,
      "velocity": 117,
      "chip": "ym2612"
    },
    {
      "channel": 4,
      "note": 89,
      "start": 3.1288,
      "duration": 0.1191,
      "velocity": 99,
      "chip": "ym2612"
    },
    {
      "channel": 1,
      "note": 75,
      "start": 3.2643,
      "duration": 0.5246,
      "velocity": 100,
      "chip": "ym2612"
    },
    {
      "channel": 4,
      "note": 96,
      "start": 3.2671,
      "duration": 0.1209,
      "velocity": 99,
      "chip": "ym2612"
    },
    {
      "channel": 2,
      "note": 34,
      "start": 3.2684,
      "duration": 0.1892,
      "velocity": 117,
      "chip": "ym2612"
    },
    {
      "channel": 4,
      "note": 101,
      "start": 3.4056,
      "duration": 0.1188,
      "velocity": 99,
      "chip": "ym2612"
    },
    {
      "channel": 4,
      "note": 96,
      "start": 3.5413,
      "duration": 0.1156,
      "velocity": 99,
      "chip": "ym2612"
    },
    {
      "channel": 4,
      "note": 89,
      "start": 3.6737,
      "duration": 0.1156,
      "velocity": 99,
      "chip": "ym2612"
    },
    {
      "channel": 1,
      "note": 77,
      "start": 3.8058,
      "duration": 0.1202,
      "velocity": 100,
      "chip": "ym2612"
    },
    {
      "channel": 4,
      "note": 103,
      "start": 3.8086,
      "duration": 0.118,
      "velocity": 99,
      "chip": "ym2612"
    },
    {
      "channel": 2,
      "note": 44,
      "start": 3.8098,
      "duration": 0.2339,
      "velocity": 116,
      "chip": "ym2612"
    },
    {
      "channel": 1,
      "note": 79,
      "start": 3.9431,
      "duration": 0.1166,
      "velocity": 100,
      "chip": "ym2612"
    },
    {
      "channel": 4,
      "note": 99,
      "start": 3.9438,
      "duration": 0.1164,
      "velocity": 99,
      "chip": "ym2612"
    },
    {
      "channel": 1,
      "note": 75,
      "start": 4.0768,
      "duration": 0.1159,
      "velocity": 100,
      "chip": "ym2612"
    },
    {
      "channel": 4,
      "note": 101,
      "start": 4.0775,
      "duration": 0.1156,
      "velocity": 99,
      "chip": "ym2612"
    },
    {
      "channel": 1,
      "note": 77,
      "start": 4.2095,
      "duration": 0.1159,
      "velocity": 100,
      "chip": "ym2612"
    },
    {
      "channel": 4,
      "note": 96,
      "start": 4.2102,
      "duration": 0.1158,
      "velocity": 99,
      "chip": "ym2612"
    },
    {
      "channel": 1,
      "note": 65,
      "start": 4.3456,
      "duration": 0.7947,
      "velocity": 100,
      "chip": "ym2612"
    },
    {
      "channel": 4,
      "note": 77,
      "start": 4.349,
      "duration": 0.1209,
      "velocity": 99,
      "chip": "ym2612"
    },
    {
      "channel": 2,
      "note": 34,
      "start": 4.3502,
      "duration": 0.1893,
      "velocity": 117,
      "chip": "ym2612"
    },
    {
      "channel": 4,
      "note": 89,
      "start": 4.4875,
      "duration": 0.1188,
      "velocity": 99,
      "chip": "ym2612"
    },
    {
      "channel": 4,
      "note": 96,
      "start": 4.6232,
      "duration": 0.1156,
      "velocity": 99,
      "chip": "ym2612"
    },
    {
      "channel": 4,
      "note": 101,
      "start": 4.7557,
      "duration": 0.1156,
      "velocity": 99,
      "chip": "ym2612"
    },
    {
      "channel": 4,
      "note": 96,
      "start": 4.8903,
      "duration": 0.1172,
      "velocity": 99,
      "chip": "ym2612"
    },
    {
      "channel": 2,
      "note": 44,
      "start": 4.8914,
      "duration": 0.2329,
      "velocity": 116,
      "chip": "ym2612"
    },
    {
      "channel": 4,
      "note": 89,
      "start": 5.0244,
      "duration": 0.1163,
      "velocity": 99,
      "chip": "ym2612"
    },
    {
      "channel": 1,
      "note": 74,
      "start": 5.1574,
      "duration": 0.2599,
      "velocity": 100,
      "chip": "ym2612"
    },
    {
      "channel": 4,
      "note": 77,
      "start": 5.1602,
      "duration": 0.121,
      "velocity": 99,
      "chip": "ym2612"
    },
    {
      "channel": 2,
      "note": 34,
      "start": 5.1615,
      "duration": 0.1894,
      "velocity": 117,
      "chip": "ym2612"
    },
    {
      "channel": 4,
      "note": 89,
      "start": 5.2989,
      "duration": 0.119,
      "velocity": 99,
      "chip": "ym2612"
    },
    {
      "channel": 1,
      "note": 75,
      "start": 5.4343,
      "duration": 0.7947,
      "velocity": 100,
      "chip": "ym2612"
    },
    {
      "channel": 4,
      "note": 96,
      "start": 5.4371,
      "duration": 0.1209,
      "velocity": 99,
      "chip": "ym2612"
    },
    {
      "channel": 2,
      "note": 34,
      "start": 5.4384,
      "duration": 0.1892,
      "velocity": 117,
      "chip": "ym2612"
    },
    {
      "channel": 4,
      "note": 101,
      "start": 5.5756,
      "duration": 0.1188,
      "velocity": 99,
      "chip": "ym2612"
    },
    {
      "channel": 4,
      "note": 96,
      "start": 5.7112,
      "duration": 0.1156,
      "velocity": 99,
      "chip": "ym2612"
    },
    {
      "channel": 4,
      "note": 89,
      "start": 5.8437,
      "duration": 0.1156,
      "velocity": 99,
      "chip": "ym2612"
    },
    {
      "channel": 4,
      "note": 75,
      "start": 5.9783,
      "duration": 0.1179,
      "velocity": 99,
      "chip": "ym2612"
    },
    {
      "channel": 2,
      "note": 44,
      "start": 5.9795,
      "duration": 0.2335,
      "velocity": 116,
      "chip": "ym2612"
    },
    {
      "channel": 4,
      "note": 87,
      "start": 6.1132,
      "duration": 0.1163,
      "velocity": 99,
      "chip": "ym2612"
    },
    {
      "channel": 1,
      "note": 75,
      "start": 6.2462,
      "duration": 0.1158,
      "velocity": 100,
      "chip": "ym2612"
    },
    {
      "channel": 4,
      "note": 76,
      "start": 6.2469,
      "duration": 0.1157,
      "velocity": 99,
      "chip": "ym2612"
    },
    {
      "channel": 1,
      "note": 77,
      "start": 6.3789,
      "duration": 0.1159,
      "velocity": 100,
      "chip": "ym2612"
    },
    {
      "channel": 4,
      "note": 88,
      "start": 6.3796,
      "duration": 0.1159,
      "velocity": 99,
      "chip": "ym2612"
    },
    {
      "channel": 4,
      "note": 77,
      "start": 6.5153,
      "duration": 0.1211,
      "velocity": 99,
      "chip": "ym2612"
    },
    {
      "channel": 2,
      "note": 34,
      "start": 6.5166,
      "duration": 0.1896,
      "velocity": 117,
      "chip": "ym2612"
    },
    {
      "channel": 1,
      "note": 65,
      "start": 6.6536,
      "duration": 0.2515,
      "velocity": 100,
      "chip": "ym2612"
    },
    {
      "channel": 4,
      "note": 89,
      "start": 6.6543,
      "duration": 0.1188,
      "velocity": 99,
      "chip": "ym2612"
    },
    {
      "channel": 4,
      "note": 96,
      "start": 6.7899,
      "duration": 0.1156,
      "velocity": 99,
      "chip": "ym2612"
    },
    {
      "channel": 1,
      "note": 65,
      "start": 6.922,
      "duration": 0.1158,
      "velocity": 100,
      "chip": "ym2612"
    },
    {
      "channel": 4,
      "note": 101,
      "start": 6.9227,
      "duration": 0.1156,
      "velocity": 99,
      "chip": "ym2612"
    },
    {
      "channel": 1,
      "note": 70,
      "start": 7.0547,
      "duration": 0.2529,
      "velocity": 100,
      "chip": "ym2612"
    },
    {
      "channel": 4,
      "note": 96,
      "start": 7.0576,
      "duration": 0.1172,
      "velocity": 99,
      "chip": "ym2612"
    },
    {
      "channel": 2,
      "note": 44,
      "start": 7.0587,
      "duration": 0.2329,
      "velocity": 116,
      "chip": "ym2612"
    },
    {
      "channel": 4,
      "note": 89,
      "start": 7.1917,
      "duration": 0.1163,
      "velocity": 99,
      "chip": "ym2612"
    },
    {
      "channel": 1,
      "note": 72,
      "start": 7.3247,
      "duration": 0.2599,
      "velocity": 100,
      "chip": "ym2612"
    },
    {
      "channel": 4,
      "note": 77,
      "start": 7.3276,
      "duration": 0.1211,
      "velocity": 99,
      "chip": "ym2612"
    },
    {
      "channel": 2,
      "note": 34,
      "start": 7.3288,
      "duration": 0.1894,
      "velocity": 117,
      "chip": "ym2612"
    },
    {
      "channel": 4,
      "note": 89,
      "start": 7.4663,
      "duration": 0.1189,
      "velocity": 99,
      "chip": "ym2612"
    },
    {
      "channel": 1,
      "note": 75,
      "start": 7.6016,
      "duration": 0.5246,
      "velocity": 100,
      "chip": "ym2612"
    },
    {
      "channel": 4,
      "note": 96,
      "start": 7.6044,
      "duration": 0.1209,
      "velocity": 99,
      "chip": "ym2612"
    },
    {
      "channel": 2,
      "note": 34,
      "start": 7.6057,
      "duration": 0.1892,
      "velocity": 117,
      "chip": "ym2612"
    },
    {
      "channel": 4,
      "note": 101,
      "start": 7.7429,
      "duration": 0.1188,
      "velocity": 99,
      "chip": "ym2612"
    },
    {
      "channel": 4,
      "note": 96,
      "start": 7.8786,
      "duration": 0.1156,
      "velocity": 99,
      "chip": "ym2612"
    },
    {
      "channel": 4,
      "note": 89,
      "start": 8.0111,
      "duration": 0.1156,
      "velocity": 99,
      "chip": "ym2612"
    },
    {
      "channel": 1,
      "note": 77,
      "start": 8.1431,
      "duration": 0.1205,
      "velocity": 100,
      "chip": "ym2612"
    },
    {
      "channel": 4,
      "note": 103,
      "start": 8.1459,
      "duration": 0.1183,
      "velocity": 99,
      "chip": "ym2612"
    },
    {
      "channel": 2,
      "note": 44,
      "start": 8.1471,
      "duration": 0.1341,
      "velocity": 1,
      "chip": "ym2612"
    },
    {
      "channel": 1,
      "note": 79,
      "start": 8.2807,
      "duration": 0.1197,
      "velocity": 100,
      "chip": "ym2612"
    },
    {
      "channel": 4,
      "note": 99,
      "start": 8.2835,
      "duration": 0.1175,
      "velocity": 99,
      "chip": "ym2612"
    },
    {
      "channel": 2,
      "note": 44,
      "start": 8.2847,
      "duration": 0.1334,
      "velocity": 1,
      "chip": "ym2612"
    },
    {
      "channel": 1,
      "note": 75,
      "start": 8.4176,
      "duration": 0.1195,
      "velocity": 100,
      "chip": "ym2612"
    },
    {
      "channel": 4,
      "note": 101,
      "start": 8.4204,
      "duration": 0.1172,
      "velocity": 99,
      "chip": "ym2612"
    },
    {
      "channel": 2,
      "note": 44,
      "start": 8.4216,
      "duration": 0.1332,
      "velocity": 1,
      "chip": "ym2612"
    },
    {
      "channel": 1,
      "note": 77,
      "start": 8.5541,
      "duration": 0.1196,
      "velocity": 100,
      "chip": "ym2612"
    },
    {
      "channel": 4,
      "note": 96,
      "start": 8.5569,
      "duration": 0.1174,
      "velocity": 99,
      "chip": "ym2612"
    },
    {
      "channel": 2,
      "note": 44,
      "start": 8.5581,
      "duration": 0.1365,
      "velocity": 1,
      "chip": "ym2612"
    },
    {
      "channel": 0,
      "note": 77,
      "start": 8.6908,
      "duration": 0.7978,
      "velocity": 91,
      "chip": "ym2612"
    },
    {
      "channel": 1,
      "note": 65,
      "start": 8.6941,
      "duration": 0.7946,
      "velocity": 100,
      "chip": "ym2612"
    },
    {
      "channel": 4,
      "note": 77,
      "start": 8.6973,
      "duration": 0.1211,
      "velocity": 99,
      "chip": "ym2612"
    },
    {
      "channel": 2,
      "note": 34,
      "start": 8.6986,
      "duration": 0.1893,
      "velocity": 117,
      "chip": "ym2612"
    },
    {
      "channel": 4,
      "note": 84,
      "start": 8.836,
      "duration": 0.1188,
      "velocity": 99,
      "chip": "ym2612"
    },
    {
      "channel": 4,
      "note": 87,
      "start": 8.9716,
      "duration": 0.1156,
      "velocity": 99,
      "chip": "ym2612"
    },
    {
      "channel": 4,
      "note": 91,
      "start": 9.1041,
      "duration": 0.1156,
      "velocity": 99,
      "chip": "ym2612"
    },
    {
      "channel": 2,
      "note": 44,
      "start": 9.2398,
      "duration": 0.2329,
      "velocity": 116,
      "chip": "ym2612"
    },
    {
      "channel": 4,
      "note": 89,
      "start": 9.3728,
      "duration": 0.1166,
      "velocity": 99,
      "chip": "ym2612"
    },
    {
      "channel": 0,
      "note": 84,
      "start": 9.5059,
      "duration": 0.802,
      "velocity": 91,
      "chip": "ym2612"
    },
    {
      "channel": 1,
      "note": 74,
      "start": 9.5063,
      "duration": 0.2602,
      "velocity": 100,
      "chip": "ym2612"
    },
    {
      "channel": 3,
      "note": 80,
      "start": 9.5091,
      "duration": 0.7993,
      "velocity": 91,
      "chip": "ym2612"
    },
    {
      "channel": 2,
      "note": 34,
      "start": 9.5107,
      "duration": 0.1894,
      "velocity": 117,
      "chip": "ym2612"
    },
    {
      "channel": 4,
      "note": 87,
      "start": 9.6481,
      "duration": 0.1191,
      "velocity": 99,
      "chip": "ym2612"
    },
    {
      "channel": 1,
      "note": 75,
      "start": 9.7836,
      "duration": 0.7947,
      "velocity": 100,
      "chip": "ym2612"
    },
    {
      "channel": 2,
      "note": 34,
      "start": 9.7876,
      "duration": 0.1892,
      "velocity": 117,
      "chip": "ym2612"
    },
    {
      "channel": 4,
      "note": 86,
      "start": 9.9248,
      "duration": 0.1188,
      "velocity": 99,
      "chip": "ym2612"
    },
    {
      "channel": 4,
      "note": 82,
      "start": 10.1929,
      "duration": 0.1158,
      "velocity": 99,
      "chip": "ym2612"
    },
    {
      "channel": 0,
      "note": 77,
      "start": 10.3249,
      "duration": 0.7964,
      "velocity": 91,
      "chip": "ym2612"
    },
    {
      "channel": 2,
      "note": 44,
      "start": 10.3294,
      "duration": 0.2329,
      "velocity": 116,
      "chip": "ym2612"
    },
    {
      "channel": 4,
      "note": 84,
      "start": 10.4624,
      "duration": 0.1163,
      "velocity": 99,
      "chip": "ym2612"
    },
    {
      "channel": 1,
      "note": 75,
      "start": 10.5954,
      "duration": 0.1158,
      "velocity": 100,
      "chip": "ym2612"
    },
    {
      "channel": 4,
      "note": 75,
      "start": 10.5961,
      "duration": 0.1156,
      "velocity": 99,
      "chip": "ym2612"
    },
    {
      "channel": 1,
      "note": 77,
      "start": 10.7282,
      "duration": 0.1158,
      "velocity": 100,
      "chip": "ym2612"
    },
    {
      "channel": 4,
      "note": 84,
      "start": 10.7289,
      "duration": 0.1158,
      "velocity": 99,
      "chip": "ym2612"
    },
    {
      "channel": 4,
      "note": 77,
      "start": 10.8642,
      "duration": 0.1211,
      "velocity": 99,
      "chip": "ym2612"
    },
    {
      "channel": 2,
      "note": 34,
      "start": 10.8655,
      "duration": 0.1896,
      "velocity": 117,
      "chip": "ym2612"
    },
    {
      "channel": 1,
      "note": 65,
      "start": 11.0025,
      "duration": 0.2524,
      "velocity": 100,
      "chip": "ym2612"
    },
    {
      "channel": 4,
      "note": 84,
      "start": 11.0032,
      "duration": 0.1189,
      "velocity": 99,
      "chip": "ym2612"
    },
    {
      "channel": 0,
      "note": 86,
      "start": 11.1384,
      "duration": 0.7958,
      "velocity": 91,
      "chip": "ym2612"
    },
    {
      "channel": 3,
      "note": 82,
      "start": 11.1393,
      "duration": 0.7955,
      "velocity": 91,
      "chip": "ym2612"
    },
    {
      "channel": 4,
      "note": 87,
      "start": 11.1398,
      "duration": 0.1156,
      "velocity": 99,
      "chip": "ym2612"
    },
    {
      "channel": 1,
      "note": 65,
      "start": 11.2719,
      "duration": 0.1159,
      "velocity": 100,
      "chip": "ym2612"
    },
    {
      "channel": 4,
      "note": 91,
      "start": 11.2726,
      "duration": 0.1156,
      "velocity": 99,
      "chip": "ym2612"
    },
    {
      "channel": 1,
      "note": 70,
      "start": 11.4046,
      "duration": 0.2528,
      "velocity": 100,
      "chip": "ym2612"
    },
    {
      "channel": 2,
      "note": 44,
      "start": 11.4086,
      "duration": 0.2329,
      "velocity": 116,
      "chip": "ym2612"
    },
    {
      "channel": 4,
      "note": 89,
      "start": 11.5415,
      "duration": 0.1164,
      "velocity": 99,
      "chip": "ym2612"
    },
    {
      "channel": 1,
      "note": 72,
      "start": 11.6746,
      "duration": 0.2598,
      "velocity": 100,
      "chip": "ym2612"
    },
    {
      "channel": 2,
      "note": 34,
      "start": 11.6786,
      "duration": 0.1894,
      "velocity": 117,
      "chip": "ym2612"
    },
    {
      "channel": 4,
      "note": 87,
      "start": 11.816,
      "duration": 0.1191,
      "velocity": 99,
      "chip": "ym2612"
    },
    {
      "channel": 0,
      "note": 77,
      "start": 11.9513,
      "duration": 0.5247,
      "velocity": 91,
      "chip": "ym2612"
    },
    {
      "channel": 1,
      "note": 75,
      "start": 11.9518,
      "duration": 0.5244,
      "velocity": 100,
      "chip": "ym2612"
    },
    {
      "channel": 4,
      "note": 89,
      "start": 11.955,
      "duration": 0.1209,
      "velocity": 99,
      "chip": "ym2612"
    },
    {
      "channel": 2,
      "note": 34,
      "start": 11.9562,
      "duration": 0.189,
      "velocity": 117,
      "chip": "ym2612"
    },
    {
      "channel": 4,
      "note": 96,
      "start": 12.3611,
      "duration": 0.1159,
      "velocity": 99,
      "chip": "ym2612"
    },
    {
      "channel": 0,
      "note": 87,
      "start": 12.4932,
      "duration": 0.5206,
      "velocity": 91,
      "chip": "ym2612"
    },
    {
      "channel": 1,
      "note": 77,
      "start": 12.4937,
      "duration": 0.12,
      "velocity": 100,
      "chip": "ym2612"
    },
    {
      "channel": 3,
      "note": 84,
      "start": 12.4964,
      "duration": 0.518,
      "velocity": 91,
      "chip": "ym2612"
    },
    {
      "channel": 2,
      "note": 44,
      "start": 12.498,
      "duration": 0.2337,
      "velocity": 116,
      "chip": "ym2612"
    },
    {
      "channel": 1,
      "note": 79,
      "start": 12.6309,
      "duration": 0.1168,
      "velocity": 100,
      "chip": "ym2612"
    },
    {
      "channel": 4,
      "note": 96,
      "start": 12.6315,
      "duration": 0.1167,
      "velocity": 99,
      "chip": "ym2612"
    },
    {
      "channel": 1,
      "note": 75,
      "start": 12.7649,
      "duration": 0.116,
      "velocity": 100,
      "chip": "ym2612"
    },
    {
      "channel": 4,
      "note": 94,
      "start": 12.7656,
      "duration": 0.1159,
      "velocity": 99,
      "chip": "ym2612"
    },
    {
      "channel": 1,
      "note": 77,
      "start": 12.8979,
      "duration": 0.1162,
      "velocity": 100,
      "chip": "ym2612"
    },
    {
      "channel": 4,
      "note": 92,
      "start": 12.8986,
      "duration": 0.1161,
      "velocity": 99,
      "chip": "ym2612"
    },
    {
      "channel": 0,
      "note": 87,
      "start": 13.031,
      "duration": 0.5283,
      "velocity": 91,
      "chip": "ym2612"
    },
    {
      "channel": 1,
      "note": 65,
      "start": 13.0344,
      "duration": 0.7959,
      "velocity": 100,
      "chip": "ym2612"
    },
    {
      "channel": 3,
      "note": 84,
      "start": 13.0371,
      "duration": 0.5227,
      "velocity": 91,
      "chip": "ym2612"
    },
    {
      "channel": 4,
      "note": 77,
      "start": 13.0377,
      "duration": 0.1209,
      "velocity": 99,
      "chip": "ym2612"
    },
    {
      "channel": 2,
      "note": 34,
      "start": 13.0389,
      "duration": 0.1891,
      "velocity": 117,
      "chip": "ym2612"
    },
    {
      "channel": 4,
      "note": 84,
      "start": 13.1761,
      "duration": 0.1188,
      "velocity": 99,
      "chip": "ym2612"
    },
    {
      "channel": 4,
      "note": 87,
      "start": 13.3118,
      "duration": 0.1156,
      "velocity": 99,
      "chip": "ym2612"
    },
    {
      "channel": 4,
      "note": 91,
      "start": 13.4443,
      "duration": 0.1158,
      "velocity": 99,
      "chip": "ym2612"
    },
    {
      "channel": 0,
      "note": 86,
      "start": 13.5763,
      "duration": 0.5305,
      "velocity": 91,
      "chip": "ym2612"
    },
    {
      "channel": 3,
      "note": 82,
      "start": 13.5793,
      "duration": 0.5282,
      "velocity": 91,
      "chip": "ym2612"
    },
    {
      "channel": 2,
      "note": 44,
      "start": 13.5809,
      "duration": 0.2334,
      "velocity": 116,
      "chip": "ym2612"
    },
    {
      "channel": 4,
      "note": 89,
      "start": 13.7142,
      "duration": 0.1166,
      "velocity": 99,
      "chip": "ym2612"
    },
    {
      "channel": 1,
      "note": 74,
      "start": 13.8475,
      "duration": 0.2595,
      "velocity": 100,
      "chip": "ym2612"
    },
    {
      "channel": 2,
      "note": 34,
      "start": 13.8515,
      "duration": 0.1892,
      "velocity": 117,
      "chip": "ym2612"
    },
    {
      "channel": 4,
      "note": 87,
      "start": 13.9887,
      "duration": 0.119,
      "velocity": 99,
      "chip": "ym2612"
    },
    {
      "channel": 0,
      "note": 87,
      "start": 14.124,
      "duration": 0.2605,
      "velocity": 91,
      "chip": "ym2612"
    },
    {
      "channel": 1,
      "note": 75,
      "start": 14.1245,
      "duration": 0.7963,
      "velocity": 100,
      "chip": "ym2612"
    },
    {
      "channel": 3,
      "note": 84,
      "start": 14.1272,
      "duration": 0.2579,
      "velocity": 91,
      "chip": "ym2612"
    },
    {
      "channel": 2,
      "note": 34,
      "start": 14.1289,
      "duration": 0.1894,
      "velocity": 117,
      "chip": "ym2612"
    },
    {
      "channel": 4,
      "note": 86,
      "start": 14.2663,
      "duration": 0.119,
      "velocity": 99,
      "chip": "ym2612"
    },
    {
      "channel": 0,
      "note": 86,
      "start": 14.4016,
      "duration": 0.2488,
      "velocity": 91,
      "chip": "ym2612"
    },
    {
      "channel": 3,
      "note": 82,
      "start": 14.4025,
      "duration": 0.2485,
      "velocity": 91,
      "chip": "ym2612"
    },
    {
      "channel": 4,
      "note": 82,
      "start": 14.5354,
      "duration": 0.1158,
      "velocity": 99,
      "chip": "ym2612"
    },
    {
      "channel": 2,
      "note": 44,
      "start": 14.6718,
      "duration": 0.2329,
      "velocity": 116,
      "chip": "ym2612"
    },
    {
      "channel": 4,
      "note": 84,
      "start": 14.8048,
      "duration": 0.1166,
      "velocity": 99,
      "chip": "ym2612"
    },
    {
      "channel": 0,
      "note": 84,
      "start": 14.9379,
      "duration": 0.2494,
      "velocity": 91,
      "chip": "ym2612"
    },
    {
      "channel": 1,
      "note": 75,
      "start": 14.9384,
      "duration": 0.1162,
      "velocity": 100,
      "chip": "ym2612"
    },
    {
      "channel": 3,
      "note": 80,
      "start": 14.939,
      "duration": 0.2489,
      "velocity": 91,
      "chip": "ym2612"
    },
    {
      "channel": 4,
      "note": 75,
      "start": 14.9395,
      "duration": 0.1156,
      "velocity": 99,
      "chip": "ym2612"
    },
    {
      "channel": 1,
      "note": 77,
      "start": 15.0716,
      "duration": 0.1159,
      "velocity": 100,
      "chip": "ym2612"
    },
    {
      "channel": 4,
      "note": 84,
      "start": 15.0723,
      "duration": 0.1158,
      "velocity": 99,
      "chip": "ym2612"
    },
    {
      "channel": 4,
      "note": 77,
      "start": 15.208,
      "duration": 0.1209,
      "velocity": 99,
      "chip": "ym2612"
    },
    {
      "channel": 2,
      "note": 34,
      "start": 15.2092,
      "duration": 0.1896,
      "velocity": 117,
      "chip": "ym2612"
    },
    {
      "channel": 1,
      "note": 65,
      "start": 15.3461,
      "duration": 0.2529,
      "velocity": 100,
      "chip": "ym2612"
    },
    {
      "channel": 4,
      "note": 84,
      "start": 15.3468,
      "duration": 0.1191,
      "velocity": 99,
      "chip": "ym2612"
    },
    {
      "channel": 0,
      "note": 91,
      "start": 15.4822,
      "duration": 0.7961,
      "velocity": 91,
      "chip": "ym2612"
    },
    {
      "channel": 3,
      "note": 80,
      "start": 15.4831,
      "duration": 0.7959,
      "velocity": 91,
      "chip": "ym2612"
    },
    {
      "channel": 4,
      "note": 87,
      "start": 15.4836,
      "duration": 0.1159,
      "velocity": 99,
      "chip": "ym2612"
    },
    {
      "channel": 1,
      "note": 65,
      "start": 15.616,
      "duration": 0.1161,
      "velocity": 100,
      "chip": "ym2612"
    },
    {
      "channel": 4,
      "note": 91,
      "start": 15.6167,
      "duration": 0.1159,
      "velocity": 99,
      "chip": "ym2612"
    },
    {
      "channel": 1,
      "note": 70,
      "start": 15.749,
      "duration": 0.2528,
      "velocity": 100,
      "chip": "ym2612"
    },
    {
      "channel": 2,
      "note": 44,
      "start": 15.7529,
      "duration": 0.2329,
      "velocity": 116,
      "chip": "ym2612"
    },
    {
      "channel": 4,
      "note": 89,
      "start": 15.8859,
      "duration": 0.1164,
      "velocity": 99,
      "chip": "ym2612"
    },
    {
      "channel": 1,
      "note": 72,
      "start": 16.019,
      "duration": 0.2595,
      "velocity": 100,
      "chip": "ym2612"
    },
    {
      "channel": 2,
      "note": 34,
      "start": 16.023,
      "duration": 0.1891,
      "velocity": 117,
      "chip": "ym2612"
    },
    {
      "channel": 4,
      "note": 87,
      "start": 16.1602,
      "duration": 0.119,
      "velocity": 99,
      "chip": "ym2612"
    },
    {
      "channel": 0,
      "note": 89,
      "start": 16.2955,
      "duration": 0.5245,
      "velocity": 91,
      "chip": "ym2612"
    },
    {
      "channel": 1,
      "note": 75,
      "start": 16.296,
      "duration": 0.5242,
      "velocity": 100,
      "chip": "ym2612"
    },
    {
      "channel": 3,
      "note": 80,
      "start": 16.2987,
      "duration": 0.5219,
      "velocity": 91,
      "chip": "ym2612"
    },
    {
      "channel": 4,
      "note": 89,
      "start": 16.2992,
      "duration": 0.121,
      "velocity": 99,
      "chip": "ym2612"
    },
    {
      "channel": 2,
      "note": 34,
      "start": 16.3005,
      "duration": 0.1891,
      "velocity": 117,
      "chip": "ym2612"
    },
    {
      "channel": 0,
      "note": 87,
      "start": 16.837,
      "duration": 0.5179,
      "velocity": 91,
      "chip": "ym2612"
    },
    {
      "channel": 1,
      "note": 77,
      "start": 16.8375,
      "duration": 0.1195,
      "velocity": 100,
      "chip": "ym2612"
    },
    {
      "channel": 3,
      "note": 80,
      "start": 16.8403,
      "duration": 0.5153,
      "velocity": 91,
      "chip": "ym2612"
    },
    {
      "channel": 2,
      "note": 44,
      "start": 16.8415,
      "duration": 0.2328,
      "velocity": 116,
      "chip": "ym2612"
    },
    {
      "channel": 1,
      "note": 79,
      "start": 16.974,
      "duration": 0.1162,
      "velocity": 100,
      "chip": "ym2612"
    },
    {
      "channel": 1,
      "note": 75,
      "start": 17.1073,
      "duration": 0.1154,
      "velocity": 100,
      "chip": "ym2612"
    },
    {
      "channel": 1,
      "note": 77,
      "start": 17.2396,
      "duration": 0.1155,
      "velocity": 100,
      "chip": "ym2612"
    },
    {
      "channel": 0,
      "note": 77,
      "start": 17.3721,
      "duration": 0.798,
      "velocity": 91,
      "chip": "ym2612"
    },
    {
      "channel": 1,
      "note": 65,
      "start": 17.3754,
      "duration": 0.7948,
      "velocity": 100,
      "chip": "ym2612"
    },
    {
      "channel": 4,
      "note": 77,
      "start": 17.3788,
      "duration": 0.1211,
      "velocity": 99,
      "chip": "ym2612"
    },
    {
      "channel": 2,
      "note": 34,
      "start": 17.38,
      "duration": 0.1894,
      "velocity": 117,
      "chip": "ym2612"
    },
    {
      "channel": 4,
      "note": 84,
      "start": 17.5175,
      "duration": 0.1188,
      "velocity": 99,
      "chip": "ym2612"
    },
    {
      "channel": 4,
      "note": 87,
      "start": 17.6532,
      "duration": 0.1156,
      "velocity": 99,
      "chip": "ym2612"
    },
    {
      "channel": 4,
      "note": 91,
      "start": 17.7856,
      "duration": 0.1156,
      "velocity": 99,
      "chip": "ym2612"
    },
    {
      "channel": 2,
      "note": 44,
      "start": 17.9213,
      "duration": 0.2329,
      "velocity": 116,
      "chip": "ym2612"
    },
    {
      "channel": 4,
      "note": 89,
      "start": 18.0543,
      "duration": 0.1165,
      "velocity": 99,
      "chip": "ym2612"
    },
    {
      "channel": 0,
      "note": 84,
      "start": 18.1873,
      "duration": 0.8019,
      "velocity": 91,
      "chip": "ym2612"
    },
    {
      "channel": 1,
      "note": 74,
      "start": 18.1878,
      "duration": 0.2601,
      "velocity": 100,
      "chip": "ym2612"
    },
    {
      "channel": 3,
      "note": 80,
      "start": 18.1906,
      "duration": 0.7992,
      "velocity": 91,
      "chip": "ym2612"
    },
    {
      "channel": 2,
      "note": 34,
      "start": 18.1922,
      "duration": 0.1893,
      "velocity": 117,
      "chip": "ym2612"
    },
    {
      "channel": 4,
      "note": 87,
      "start": 18.3295,
      "duration": 0.1191,
      "velocity": 99,
      "chip": "ym2612"
    },
    {
      "channel": 1,
      "note": 75,
      "start": 18.4649,
      "duration": 0.7947,
      "velocity": 100,
      "chip": "ym2612"
    },
    {
      "channel": 2,
      "note": 34,
      "start": 18.469,
      "duration": 0.1892,
      "velocity": 117,
      "chip": "ym2612"
    },
    {
      "channel": 4,
      "note": 86,
      "start": 18.6062,
      "duration": 0.1188,
      "velocity": 99,
      "chip": "ym2612"
    },
    {
      "channel": 4,
      "note": 82,
      "start": 18.8742,
      "duration": 0.1158,
      "velocity": 99,
      "chip": "ym2612"
    },
    {
      "channel": 0,
      "note": 77,
      "start": 19.0063,
      "duration": 0.7964,
      "velocity": 91,
      "chip": "ym2612"
    },
    {
      "channel": 2,
      "note": 44,
      "start": 19.0107,
      "duration": 0.2329,
      "velocity": 116,
      "chip": "ym2612"
    },
    {
      "channel": 4,
      "note": 84,
      "start": 19.1438,
      "duration": 0.1163,
      "velocity": 99,
      "chip": "ym2612"
    },
    {
      "channel": 1,
      "note": 75,
      "start": 19.2768,
      "duration": 0.1159,
      "velocity": 100,
      "chip": "ym2612"
    },
    {
      "channel": 4,
      "note": 75,
      "start": 19.2775,
      "duration": 0.1156,
      "velocity": 99,
      "chip": "ym2612"
    },
    {
      "channel": 1,
      "note": 77,
      "start": 19.4095,
      "duration": 0.1158,
      "velocity": 100,
      "chip": "ym2612"
    },
    {
      "channel": 4,
      "note": 84,
      "start": 19.4102,
      "duration": 0.1158,
      "velocity": 99,
      "chip": "ym2612"
    },
    {
      "channel": 4,
      "note": 77,
      "start": 19.5456,
      "duration": 0.1212,
      "velocity": 99,
      "chip": "ym2612"
    },
    {
      "channel": 2,
      "note": 34,
      "start": 19.5468,
      "duration": 0.1897,
      "velocity": 117,
      "chip": "ym2612"
    },
    {
      "channel": 1,
      "note": 65,
      "start": 19.6839,
      "duration": 0.2524,
      "velocity": 100,
      "chip": "ym2612"
    },
    {
      "channel": 4,
      "note": 84,
      "start": 19.6846,
      "duration": 0.1189,
      "velocity": 99,
      "chip": "ym2612"
    },
    {
      "channel": 0,
      "note": 86,
      "start": 19.8198,
      "duration": 0.7959,
      "velocity": 91,
      "chip": "ym2612"
    },
    {
      "channel": 3,
      "note": 82,
      "start": 19.8207,
      "duration": 0.7956,
      "velocity": 91,
      "chip": "ym2612"
    },
    {
      "channel": 4,
      "note": 87,
      "start": 19.8212,
      "duration": 0.1156,
      "velocity": 99,
      "chip": "ym2612"
    },
    {
      "channel": 1,
      "note": 65,
      "start": 19.9532,
      "duration": 0.1159,
      "velocity": 100,
      "chip": "ym2612"
    },
    {
      "channel": 4,
      "note": 91,
      "start": 19.9539,
      "duration": 0.1156,
      "velocity": 99,
      "chip": "ym2612"
    },
    {
      "channel": 1,
      "note": 70,
      "start": 20.086,
      "duration": 0.2528,
      "velocity": 100,
      "chip": "ym2612"
    },
    {
      "channel": 2,
      "note": 44,
      "start": 20.09,
      "duration": 0.2329,
      "velocity": 116,
      "chip": "ym2612"
    },
    {
      "channel": 4,
      "note": 89,
      "start": 20.2229,
      "duration": 0.1164,
      "velocity": 99,
      "chip": "ym2612"
    },
    {
      "channel": 1,
      "note": 72,
      "start": 20.356,
      "duration": 0.2598,
      "velocity": 100,
      "chip": "ym2612"
    },
    {
      "channel": 2,
      "note": 34,
      "start": 20.36,
      "duration": 0.1893,
      "velocity": 117,
      "chip": "ym2612"
    },
    {
      "channel": 4,
      "note": 87,
      "start": 20.4972,
      "duration": 0.1193,
      "velocity": 99,
      "chip": "ym2612"
    },
    {
      "channel": 0,
      "note": 77,
      "start": 20.6328,
      "duration": 0.5248,
      "velocity": 91,
      "chip": "ym2612"
    },
    {
      "channel": 1,
      "note": 75,
      "start": 20.6333,
      "duration": 0.5244,
      "velocity": 100,
      "chip": "ym2612"
    },
    {
      "channel": 4,
      "note": 89,
      "start": 20.6364,
      "duration": 0.1209,
      "velocity": 99,
      "chip": "ym2612"
    },
    {
      "channel": 2,
      "note": 34,
      "start": 20.6377,
      "duration": 0.189,
      "velocity": 117,
      "chip": "ym2612"
    },
    {
      "channel": 4,
      "note": 96,
      "start": 21.0426,
      "duration": 0.1158,
      "velocity": 99,
      "chip": "ym2612"
    },
    {
      "channel": 0,
      "note": 87,
      "start": 21.1747,
      "duration": 0.5195,
      "velocity": 91,
      "chip": "ym2612"
    },
    {
      "channel": 1,
      "note": 77,
      "start": 21.1752,
      "duration": 0.1198,
      "velocity": 100,
      "chip": "ym2612"
    },
    {
      "channel": 3,
      "note": 84,
      "start": 21.1779,
      "duration": 0.517,
      "velocity": 91,
      "chip": "ym2612"
    },
    {
      "channel": 2,
      "note": 44,
      "start": 21.1795,
      "duration": 0.2332,
      "velocity": 116,
      "chip": "ym2612"
    },
    {
      "channel": 1,
      "note": 79,
      "start": 21.312,
      "duration": 0.1166,
      "velocity": 100,
      "chip": "ym2612"
    },
    {
      "channel": 4,
      "note": 96,
      "start": 21.3127,
      "duration": 0.1164,
      "velocity": 99,
      "chip": "ym2612"
    },
    {
      "channel": 1,
      "note": 75,
      "start": 21.4457,
      "duration": 0.1159,
      "velocity": 100,
      "chip": "ym2612"
    },
    {
      "channel": 4,
      "note": 94,
      "start": 21.4464,
      "duration": 0.1156,
      "velocity": 99,
      "chip": "ym2612"
    },
    {
      "channel": 1,
      "note": 77,
      "start": 21.5785,
      "duration": 0.1159,
      "velocity": 100,
      "chip": "ym2612"
    },
    {
      "channel": 4,
      "note": 92,
      "start": 21.5792,
      "duration": 0.1158,
      "velocity": 99,
      "chip": "ym2612"
    },
    {
      "channel": 0,
      "note": 87,
      "start": 21.7113,
      "duration": 0.5283,
      "velocity": 91,
      "chip": "ym2612"
    },
    {
      "channel": 1,
      "note": 65,
      "start": 21.7147,
      "duration": 0.7954,
      "velocity": 100,
      "chip": "ym2612"
    },
    {
      "channel": 3,
      "note": 84,
      "start": 21.7175,
      "duration": 0.5227,
      "velocity": 91,
      "chip": "ym2612"
    },
    {
      "channel": 4,
      "note": 77,
      "start": 21.718,
      "duration": 0.1209,
      "velocity": 99,
      "chip": "ym2612"
    },
    {
      "channel": 2,
      "note": 34,
      "start": 21.7193,
      "duration": 0.1891,
      "velocity": 117,
      "chip": "ym2612"
    },
    {
      "channel": 4,
      "note": 84,
      "start": 21.8565,
      "duration": 0.1188,
      "velocity": 99,
      "chip": "ym2612"
    },
    {
      "channel": 4,
      "note": 87,
      "start": 21.9921,
      "duration": 0.1156,
      "velocity": 99,
      "chip": "ym2612"
    },
    {
      "channel": 4,
      "note": 91,
      "start": 22.1246,
      "duration": 0.1157,
      "velocity": 99,
      "chip": "ym2612"
    },
    {
      "channel": 0,
      "note": 86,
      "start": 22.2566,
      "duration": 0.5302,
      "velocity": 91,
      "chip": "ym2612"
    },
    {
      "channel": 3,
      "note": 82,
      "start": 22.2596,
      "duration": 0.5278,
      "velocity": 91,
      "chip": "ym2612"
    },
    {
      "channel": 2,
      "note": 44,
      "start": 22.2612,
      "duration": 0.2329,
      "velocity": 116,
      "chip": "ym2612"
    },
    {
      "channel": 4,
      "note": 89,
      "start": 22.3941,
      "duration": 0.1164,
      "velocity": 99,
      "chip": "ym2612"
    },
    {
      "channel": 1,
      "note": 74,
      "start": 22.5272,
      "duration": 0.2598,
      "velocity": 100,
      "chip": "ym2612"
    },
    {
      "channel": 2,
      "note": 34,
      "start": 22.5312,
      "duration": 0.1894,
      "velocity": 117,
      "chip": "ym2612"
    },
    {
      "channel": 4,
      "note": 87,
      "start": 22.6687,
      "duration": 0.119,
      "velocity": 99,
      "chip": "ym2612"
    },
    {
      "channel": 0,
      "note": 87,
      "start": 22.8039,
      "duration": 0.2605,
      "velocity": 91,
      "chip": "ym2612"
    },
    {
      "channel": 1,
      "note": 75,
      "start": 22.8044,
      "duration": 0.7967,
      "velocity": 100,
      "chip": "ym2612"
    },
    {
      "channel": 3,
      "note": 84,
      "start": 22.8072,
      "duration": 0.2578,
      "velocity": 91,
      "chip": "ym2612"
    },
    {
      "channel": 2,
      "note": 34,
      "start": 22.8088,
      "duration": 0.1893,
      "velocity": 117,
      "chip": "ym2612"
    },
    {
      "channel": 4,
      "note": 86,
      "start": 22.9461,
      "duration": 0.1191,
      "velocity": 99,
      "chip": "ym2612"
    },
    {
      "channel": 0,
      "note": 86,
      "start": 23.0815,
      "duration": 0.2493,
      "velocity": 91,
      "chip": "ym2612"
    },
    {
      "channel": 3,
      "note": 82,
      "start": 23.0824,
      "duration": 0.249,
      "velocity": 91,
      "chip": "ym2612"
    },
    {
      "channel": 4,
      "note": 82,
      "start": 23.2156,
      "duration": 0.116,
      "velocity": 99,
      "chip": "ym2612"
    },
    {
      "channel": 2,
      "note": 44,
      "start": 23.3522,
      "duration": 0.2329,
      "velocity": 116,
      "chip": "ym2612"
    },
    {
      "channel": 4,
      "note": 84,
      "start": 23.4852,
      "duration": 0.1165,
      "velocity": 99,
      "chip": "ym2612"
    },
    {
      "channel": 0,
      "note": 91,
      "start": 23.6183,
      "duration": 0.2494,
      "velocity": 91,
      "chip": "ym2612"
    },
    {
      "channel": 1,
      "note": 75,
      "start": 23.6188,
      "duration": 0.1162,
      "velocity": 100,
      "chip": "ym2612"
    },
    {
      "channel": 3,
      "note": 80,
      "start": 23.6193,
      "duration": 0.2489,
      "velocity": 91,
      "chip": "ym2612"
    },
    {
      "channel": 4,
      "note": 75,
      "start": 23.6198,
      "duration": 0.1156,
      "velocity": 99,
      "chip": "ym2612"
    },
    {
      "channel": 1,
      "note": 77,
      "start": 23.7519,
      "duration": 0.1159,
      "velocity": 100,
      "chip": "ym2612"
    },
    {
      "channel": 4,
      "note": 84,
      "start": 23.7526,
      "duration": 0.1158,
      "velocity": 99,
      "chip": "ym2612"
    },
    {
      "channel": 4,
      "note": 77,
      "start": 23.8883,
      "duration": 0.1209,
      "velocity": 99,
      "chip": "ym2612"
    },
    {
      "channel": 2,
      "note": 34,
      "start": 23.8895,
      "duration": 0.1895,
      "velocity": 117,
      "chip": "ym2612"
    },
    {
      "channel": 1,
      "note": 65,
      "start": 24.0264,
      "duration": 0.2524,
      "velocity": 100,
      "chip": "ym2612"
    },
    {
      "channel": 4,
      "note": 84,
      "start": 24.0271,
      "duration": 0.1189,
      "velocity": 99,
      "chip": "ym2612"
    },
    {
      "channel": 0,
      "note": 91,
      "start": 24.1623,
      "duration": 0.2492,
      "velocity": 91,
      "chip": "ym2612"
    },
    {
      "channel": 3,
      "note": 80,
      "start": 24.1632,
      "duration": 0.2489,
      "velocity": 91,
      "chip": "ym2612"
    },
    {
      "channel": 4,
      "note": 87,
      "start": 24.1637,
      "duration": 0.1156,
      "velocity": 99,
      "chip": "ym2612"
    },
    {
      "channel": 1,
      "note": 65,
      "start": 24.2957,
      "duration": 0.1159,
      "velocity": 100,
      "chip": "ym2612"
    },
    {
      "channel": 4,
      "note": 91,
      "start": 24.2964,
      "duration": 0.1158,
      "velocity": 99,
      "chip": "ym2612"
    },
    {
      "channel": 1,
      "note": 70,
      "start": 24.4289,
      "duration": 0.2536,
      "velocity": 100,
      "chip": "ym2612"
    },
    {
      "channel": 2,
      "note": 44,
      "start": 24.4332,
      "duration": 0.2334,
      "velocity": 116,
      "chip": "ym2612"
    },
    {
      "channel": 4,
      "note": 89,
      "start": 24.5665,
      "duration": 0.1167,
      "velocity": 99,
      "chip": "ym2612"
    },
    {
      "channel": 1,
      "note": 72,
      "start": 24.6998,
      "duration": 0.2595,
      "velocity": 100,
      "chip": "ym2612"
    },
    {
      "channel": 2,
      "note": 34,
      "start": 24.7037,
      "duration": 0.1891,
      "velocity": 117,
      "chip": "ym2612"
    },
    {
      "channel": 4,
      "note": 87,
      "start": 24.841,
      "duration": 0.119,
      "velocity": 99,
      "chip": "ym2612"
    },
    {
      "channel": 0,
      "note": 91,
      "start": 24.9762,
      "duration": 0.2605,
      "velocity": 91,
      "chip": "ym2612"
    },
    {
      "channel": 1,
      "note": 75,
      "start": 24.9767,
      "duration": 0.5253,
      "velocity": 100,
      "chip": "ym2612"
    },
    {
      "channel": 3,
      "note": 80,
      "start": 24.9795,
      "duration": 0.2578,
      "velocity": 91,
      "chip": "ym2612"
    },
    {
      "channel": 4,
      "note": 89,
      "start": 24.98,
      "duration": 0.1211,
      "velocity": 99,
      "chip": "ym2612"
    },
    {
      "channel": 2,
      "note": 34,
      "start": 24.9812,
      "duration": 0.1893,
      "velocity": 117,
      "chip": "ym2612"
    },
    {
      "channel": 0,
      "note": 91,
      "start": 25.2537,
      "duration": 0.248,
      "velocity": 91,
      "chip": "ym2612"
    },
    {
      "channel": 3,
      "note": 80,
      "start": 25.2546,
      "duration": 0.2478,
      "velocity": 91,
      "chip": "ym2612"
    },
    {
      "channel": 0,
      "note": 91,
      "start": 25.5188,
      "duration": 0.2531,
      "velocity": 91,
      "chip": "ym2612"
    },
    {
      "channel": 1,
      "note": 77,
      "start": 25.5193,
      "duration": 0.1195,
      "velocity": 100,
      "chip": "ym2612"
    },
    {
      "channel": 3,
      "note": 80,
      "start": 25.522,
      "duration": 0.2505,
      "velocity": 91,
      "chip": "ym2612"
    },
    {
      "channel": 2,
      "note": 44,
      "start": 25.5233,
      "duration": 0.2327,
      "velocity": 116,
      "chip": "ym2612"
    },
    {
      "channel": 1,
      "note": 79,
      "start": 25.6558,
      "duration": 0.1163,
      "velocity": 100,
      "chip": "ym2612"
    },
    {
      "channel": 0,
      "note": 91,
      "start": 25.7891,
      "duration": 0.2485,
      "velocity": 91,
      "chip": "ym2612"
    },
    {
      "channel": 1,
      "note": 75,
      "start": 25.7896,
      "duration": 0.1158,
      "velocity": 100,
      "chip": "ym2612"
    },
    {
      "channel": 3,
      "note": 80,
      "start": 25.7902,
      "duration": 0.2481,
      "velocity": 91,
      "chip": "ym2612"
    },
    {
      "channel": 1,
      "note": 77,
      "start": 25.9223,
      "duration": 0.1155,
      "velocity": 100,
      "chip": "ym2612"
    },
    {
      "channel": 0,
      "note": 82,
      "start": 26.0548,
      "duration": 0.7957,
      "velocity": 91,
      "chip": "ym2612"
    },
    {
      "channel": 1,
      "note": 70,
      "start": 26.0555,
      "duration": 0.7952,
      "velocity": 100,
      "chip": "ym2612"
    },
    {
      "channel": 4,
      "note": 94,
      "start": 26.059,
      "duration": 0.1209,
      "velocity": 99,
      "chip": "ym2612"
    },
    {
      "channel": 2,
      "note": 34,
      "start": 26.0602,
      "duration": 0.1894,
      "velocity": 117,
      "chip": "ym2612"
    },
    {
      "channel": 4,
      "note": 92,
      "start": 26.1975,
      "duration": 0.119,
      "velocity": 99,
      "chip": "ym2612"
    },
    {
      "channel": 4,
      "note": 91,
      "start": 26.3334,
      "duration": 0.1158,
      "velocity": 99,
      "chip": "ym2612"
    },
    {
      "channel": 4,
      "note": 89,
      "start": 26.4661,
      "duration": 0.1159,
      "velocity": 99,
      "chip": "ym2612"
    },
    {
      "channel": 2,
      "note": 44,
      "start": 26.6022,
      "duration": 0.2325,
      "velocity": 116,
      "chip": "ym2612"
    },
    {
      "channel": 0,
      "note": 89,
      "start": 26.8678,
      "duration": 0.8016,
      "velocity": 91,
      "chip": "ym2612"
    },
    {
      "channel": 1,
      "note": 79,
      "start": 26.8683,
      "duration": 0.26,
      "velocity": 100,
      "chip": "ym2612"
    },
    {
      "channel": 3,
      "note": 85,
      "start": 26.8711,
      "duration": 0.7989,
      "velocity": 91,
      "chip": "ym2612"
    },
    {
      "channel": 4,
      "note": 94,
      "start": 26.8716,
      "duration": 0.1209,
      "velocity": 99,
      "chip": "ym2612"
    },
    {
      "channel": 2,
      "note": 34,
      "start": 26.8728,
      "duration": 0.1892,
      "velocity": 117,
      "chip": "ym2612"
    },
    {
      "channel": 4,
      "note": 92,
      "start": 27.01,
      "duration": 0.1188,
      "velocity": 99,
      "chip": "ym2612"
    },
    {
      "channel": 1,
      "note": 80,
      "start": 27.1453,
      "duration": 0.7946,
      "velocity": 100,
      "chip": "ym2612"
    },
    {
      "channel": 4,
      "note": 91,
      "start": 27.1482,
      "duration": 0.121,
      "velocity": 99,
      "chip": "ym2612"
    },
    {
      "channel": 2,
      "note": 34,
      "start": 27.1494,
      "duration": 0.1893,
      "velocity": 117,
      "chip": "ym2612"
    },
    {
      "channel": 4,
      "note": 89,
      "start": 27.2868,
      "duration": 0.1188,
      "velocity": 99,
      "chip": "ym2612"
    },
    {
      "channel": 0,
      "note": 82,
      "start": 27.6864,
      "duration": 0.7966,
      "velocity": 91,
      "chip": "ym2612"
    },
    {
      "channel": 4,
      "note": 94,
      "start": 27.6899,
      "duration": 0.1172,
      "velocity": 99,
      "chip": "ym2612"
    },
    {
      "channel": 2,
      "note": 44,
      "start": 27.691,
      "duration": 0.2329,
      "velocity": 116,
      "chip": "ym2612"
    },
    {
      "channel": 4,
      "note": 92,
      "start": 27.824,
      "duration": 0.1163,
      "velocity": 99,
      "chip": "ym2612"
    },
    {
      "channel": 1,
      "note": 80,
      "start": 27.9571,
      "duration": 0.1159,
      "velocity": 100,
      "chip": "ym2612"
    },
    {
      "channel": 4,
      "note": 91,
      "start": 27.9578,
      "duration": 0.1156,
      "velocity": 99,
      "chip": "ym2612"
    },
    {
      "channel": 1,
      "note": 82,
      "start": 28.0898,
      "duration": 0.1159,
      "velocity": 100,
      "chip": "ym2612"
    },
    {
      "channel": 4,
      "note": 89,
      "start": 28.0905,
      "duration": 0.1158,
      "velocity": 99,
      "chip": "ym2612"
    },
    {
      "channel": 4,
      "note": 94,
      "start": 28.2258,
      "duration": 0.1209,
      "velocity": 99,
      "chip": "ym2612"
    },
    {
      "channel": 2,
      "note": 34,
      "start": 28.2271,
      "duration": 0.1896,
      "velocity": 117,
      "chip": "ym2612"
    },
    {
      "channel": 1,
      "note": 70,
      "start": 28.3639,
      "duration": 0.2529,
      "velocity": 100,
      "chip": "ym2612"
    },
    {
      "channel": 4,
      "note": 92,
      "start": 28.3647,
      "duration": 0.1191,
      "velocity": 99,
      "chip": "ym2612"
    },
    {
      "channel": 0,
      "note": 91,
      "start": 28.5001,
      "duration": 0.7957,
      "velocity": 91,
      "chip": "ym2612"
    },
    {
      "channel": 3,
      "note": 87,
      "start": 28.501,
      "duration": 0.7955,
      "velocity": 91,
      "chip": "ym2612"
    },
    {
      "channel": 4,
      "note": 91,
      "start": 28.5015,
      "duration": 0.1158,
      "velocity": 99,
      "chip": "ym2612"
    },
    {
      "channel": 1,
      "note": 70,
      "start": 28.6338,
      "duration": 0.1161,
      "velocity": 100,
      "chip": "ym2612"
    },
    {
      "channel": 4,
      "note": 89,
      "start": 28.6345,
      "duration": 0.1159,
      "velocity": 99,
      "chip": "ym2612"
    },
    {
      "channel": 1,
      "note": 75,
      "start": 28.7668,
      "duration": 0.2524,
      "velocity": 100,
      "chip": "ym2612"
    },
    {
      "channel": 2,
      "note": 44,
      "start": 28.7707,
      "duration": 0.2325,
      "velocity": 116,
      "chip": "ym2612"
    },
    {
      "channel": 1,
      "note": 77,
      "start": 29.0364,
      "duration": 0.2597,
      "velocity": 100,
      "chip": "ym2612"
    },
    {
      "channel": 4,
      "note": 94,
      "start": 29.0392,
      "duration": 0.1209,
      "velocity": 99,
      "chip": "ym2612"
    },
    {
      "channel": 2,
      "note": 34,
      "start": 29.0405,
      "duration": 0.1892,
      "velocity": 117,
      "chip": "ym2612"
    },
    {
      "channel": 4,
      "note": 92,
      "start": 29.1777,
      "duration": 0.119,
      "velocity": 99,
      "chip": "ym2612"
    },
    {
      "channel": 0,
      "note": 82,
      "start": 29.313,
      "duration": 0.5248,
      "velocity": 91,
      "chip": "ym2612"
    },
    {
      "channel": 1,
      "note": 80,
      "start": 29.3135,
      "duration": 0.5245,
      "velocity": 100,
      "chip": "ym2612"
    },
    {
      "channel": 4,
      "note": 91,
      "start": 29.3167,
      "duration": 0.1209,
      "velocity": 99,
      "chip": "ym2612"
    },
    {
      "channel": 2,
      "note": 34,
      "start": 29.3179,
      "duration": 0.1893,
      "velocity": 117,
      "chip": "ym2612"
    },
    {
      "channel": 4,
      "note": 89,
      "start": 29.4551,
      "duration": 0.1188,
      "velocity": 99,
      "chip": "ym2612"
    },
    {
      "channel": 0,
      "note": 92,
      "start": 29.8549,
      "duration": 0.5197,
      "velocity": 91,
      "chip": "ym2612"
    },
    {
      "channel": 1,
      "note": 82,
      "start": 29.8554,
      "duration": 0.1199,
      "velocity": 100,
      "chip": "ym2612"
    },
    {
      "channel": 3,
      "note": 89,
      "start": 29.8581,
      "duration": 0.5171,
      "velocity": 91,
      "chip": "ym2612"
    },
    {
      "channel": 4,
      "note": 97,
      "start": 29.8586,
      "duration": 0.1173,
      "velocity": 99,
      "chip": "ym2612"
    },
    {
      "channel": 2,
      "note": 44,
      "start": 29.8598,
      "duration": 0.2332,
      "velocity": 116,
      "chip": "ym2612"
    },
    {
      "channel": 1,
      "note": 84,
      "start": 29.9924,
      "duration": 0.1166,
      "velocity": 100,
      "chip": "ym2612"
    },
    {
      "channel": 4,
      "note": 96,
      "start": 29.9931,
      "duration": 0.1164,
      "velocity": 99,
      "chip": "ym2612"
    },
    {
      "channel": 1,
      "note": 80,
      "start": 30.1261,
      "duration": 0.1159,
      "velocity": 100,
      "chip": "ym2612"
    },
    {
      "channel": 4,
      "note": 94,
      "start": 30.1268,
      "duration": 0.1156,
      "velocity": 99,
      "chip": "ym2612"
    },
    {
      "channel": 1,
      "note": 82,
      "start": 30.2588,
      "duration": 0.1159,
      "velocity": 100,
      "chip": "ym2612"
    },
    {
      "channel": 4,
      "note": 92,
      "start": 30.2595,
      "duration": 0.1158,
      "velocity": 99,
      "chip": "ym2612"
    },
    {
      "channel": 0,
      "note": 92,
      "start": 30.3917,
      "duration": 0.5257,
      "velocity": 91,
      "chip": "ym2612"
    },
    {
      "channel": 1,
      "note": 70,
      "start": 30.3922,
      "duration": 0.7952,
      "velocity": 100,
      "chip": "ym2612"
    },
    {
      "channel": 3,
      "note": 89,
      "start": 30.395,
      "duration": 0.5229,
      "velocity": 91,
      "chip": "ym2612"
    },
    {
      "channel": 4,
      "note": 94,
      "start": 30.3955,
      "duration": 0.1211,
      "velocity": 99,
      "chip": "ym2612"
    },
    {
      "channel": 2,
      "note": 34,
      "start": 30.3968,
      "duration": 0.1894,
      "velocity": 117,
      "chip": "ym2612"
    },
    {
      "channel": 4,
      "note": 92,
      "start": 30.5342,
      "duration": 0.1188,
      "velocity": 99,
      "chip": "ym2612"
    },
    {
      "channel": 4,
      "note": 91,
      "start": 30.6699,
      "duration": 0.1156,
      "velocity": 99,
      "chip": "ym2612"
    },
    {
      "channel": 4,
      "note": 89,
      "start": 30.8024,
      "duration": 0.1158,
      "velocity": 99,
      "chip": "ym2612"
    },
    {
      "channel": 0,
      "note": 91,
      "start": 30.9344,
      "duration": 0.5298,
      "velocity": 91,
      "chip": "ym2612"
    },
    {
      "channel": 3,
      "note": 87,
      "start": 30.9374,
      "duration": 0.5275,
      "velocity": 91,
      "chip": "ym2612"
    },
    {
      "channel": 2,
      "note": 44,
      "start": 30.9389,
      "duration": 0.2325,
      "velocity": 116,
      "chip": "ym2612"
    },
    {
      "channel": 1,
      "note": 79,
      "start": 31.2046,
      "duration": 0.2599,
      "velocity": 100,
      "chip": "ym2612"
    },
    {
      "channel": 4,
      "note": 94,
      "start": 31.2074,
      "duration": 0.1209,
      "velocity": 99,
      "chip": "ym2612"
    },
    {
      "channel": 2,
      "note": 34,
      "start": 31.2086,
      "duration": 0.1893,
      "velocity": 117,
      "chip": "ym2612"
    },
    {
      "channel": 4,
      "note": 92,
      "start": 31.3459,
      "duration": 0.1192,
      "velocity": 99,
      "chip": "ym2612"
    },
    {
      "channel": 0,
      "note": 92,
      "start": 31.4814,
      "duration": 0.2604,
      "velocity": 91,
      "chip": "ym2612"
    },
    {
      "channel": 1,
      "note": 80,
      "start": 31.4819,
      "duration": 0.7957,
      "velocity": 100,
      "chip": "ym2612"
    },
    {
      "channel": 3,
      "note": 89,
      "start": 31.4847,
      "duration": 0.2577,
      "velocity": 91,
      "chip": "ym2612"
    },
    {
      "channel": 4,
      "note": 91,
      "start": 31.4852,
      "duration": 0.1209,
      "velocity": 99,
      "chip": "ym2612"
    },
    {
      "channel": 2,
      "note": 34,
      "start": 31.4864,
      "duration": 0.1892,
      "velocity": 117,
      "chip": "ym2612"
    },
    {
      "channel": 4,
      "note": 89,
      "start": 31.6237,
      "duration": 0.1189,
      "velocity": 99,
      "chip": "ym2612"
    },
    {
      "channel": 0,
      "note": 91,
      "start": 31.7588,
      "duration": 0.2483,
      "velocity": 91,
      "chip": "ym2612"
    },
    {
      "channel": 3,
      "note": 87,
      "start": 31.7597,
      "duration": 0.248,
      "velocity": 91,
      "chip": "ym2612"
    },
    {
      "channel": 4,
      "note": 94,
      "start": 32.0276,
      "duration": 0.1172,
      "velocity": 99,
      "chip": "ym2612"
    },
    {
      "channel": 2,
      "note": 44,
      "start": 32.0287,
      "duration": 0.2329,
      "velocity": 116,
      "chip": "ym2612"
    },
    {
      "channel": 4,
      "note": 92,
      "start": 32.1617,
      "duration": 0.1166,
      "velocity": 99,
      "chip": "ym2612"
    },
    {
      "channel": 0,
      "note": 96,
      "start": 32.2947,
      "duration": 0.2494,
      "velocity": 91,
      "chip": "ym2612"
    },
    {
      "channel": 1,
      "note": 80,
      "start": 32.2952,
      "duration": 0.1162,
      "velocity": 100,
      "chip": "ym2612"
    },
    {
      "channel": 3,
      "note": 85,
      "start": 32.2958,
      "duration": 0.2489,
      "velocity": 91,
      "chip": "ym2612"
    },
    {
      "channel": 4,
      "note": 91,
      "start": 32.2963,
      "duration": 0.1156,
      "velocity": 99,
      "chip": "ym2612"
    },
    {
      "channel": 1,
      "note": 82,
      "start": 32.4284,
      "duration": 0.1159,
      "velocity": 100,
      "chip": "ym2612"
    },
    {
      "channel": 4,
      "note": 89,
      "start": 32.4291,
      "duration": 0.1159,
      "velocity": 99,
      "chip": "ym2612"
    },
    {
      "channel": 2,
      "note": 34,
      "start": 32.5659,
      "duration": 0.1896,
      "velocity": 117,
      "chip": "ym2612"
    },
    {
      "channel": 1,
      "note": 70,
      "start": 32.7029,
      "duration": 0.252,
      "velocity": 100,
      "chip": "ym2612"
    },
    {
      "channel": 4,
      "note": 86,
      "start": 32.7036,
      "duration": 0.3843,
      "velocity": 99,
      "chip": "ym2612"
    },
    {
      "channel": 0,
      "note": 96,
      "start": 32.8387,
      "duration": 0.2483,
      "velocity": 91,
      "chip": "ym2612"
    },
    {
      "channel": 3,
      "note": 85,
      "start": 32.8396,
      "duration": 0.2481,
      "velocity": 91,
      "chip": "ym2612"
    },
    {
      "channel": 1,
      "note": 70,
      "start": 32.9717,
      "duration": 0.1155,
      "velocity": 100,
      "chip": "ym2612"
    },
    {
      "channel": 1,
      "note": 75,
      "start": 33.1046,
      "duration": 0.2527,
      "velocity": 100,
      "chip": "ym2612"
    },
    {
      "channel": 4,
      "note": 87,
      "start": 33.1077,
      "duration": 0.2501,
      "velocity": 99,
      "chip": "ym2612"
    },
    {
      "channel": 2,
      "note": 44,
      "start": 33.1089,
      "duration": 0.2324,
      "velocity": 116,
      "chip": "ym2612"
    },
    {
      "channel": 1,
      "note": 77,
      "start": 33.3745,
      "duration": 0.2595,
      "velocity": 100,
      "chip": "ym2612"
    },
    {
      "channel": 4,
      "note": 88,
      "start": 33.3773,
      "duration": 0.2574,
      "velocity": 99,
      "chip": "ym2612"
    },
    {
      "channel": 2,
      "note": 34,
      "start": 33.3786,
      "duration": 0.189,
      "velocity": 117,
      "chip": "ym2612"
    },
    {
      "channel": 0,
      "note": 96,
      "start": 33.651,
      "duration": 0.2599,
      "velocity": 91,
      "chip": "ym2612"
    },
    {
      "channel": 1,
      "note": 80,
      "start": 33.6515,
      "duration": 0.5251,
      "velocity": 100,
      "chip": "ym2612"
    },
    {
      "channel": 3,
      "note": 85,
      "start": 33.6542,
      "duration": 0.2573,
      "velocity": 91,
      "chip": "ym2612"
    },
    {
      "channel": 4,
      "note": 89,
      "start": 33.6547,
      "duration": 0.3897,
      "velocity": 99,
      "chip": "ym2612"
    },
    {
      "channel": 2,
      "note": 34,
      "start": 33.6559,
      "duration": 0.1887,
      "velocity": 117,
      "chip": "ym2612"
    },
    {
      "channel": 0,
      "note": 96,
      "start": 33.9279,
      "duration": 0.2485,
      "velocity": 91,
      "chip": "ym2612"
    },
    {
      "channel": 3,
      "note": 85,
      "start": 33.9287,
      "duration": 0.2483,
      "velocity": 91,
      "chip": "ym2612"
    },
    {
      "channel": 4,
      "note": 92,
      "start": 34.0613,
      "duration": 0.2529,
      "velocity": 99,
      "chip": "ym2612"
    },
    {
      "channel": 0,
      "note": 96,
      "start": 34.1934,
      "duration": 0.2569,
      "velocity": 91,
      "chip": "ym2612"
    },
    {
      "channel": 1,
      "note": 82,
      "start": 34.1939,
      "duration": 0.1197,
      "velocity": 100,
      "chip": "ym2612"
    },
    {
      "channel": 3,
      "note": 85,
      "start": 34.1966,
      "duration": 0.2544,
      "velocity": 91,
      "chip": "ym2612"
    },
    {
      "channel": 2,
      "note": 44,
      "start": 34.1979,
      "duration": 0.1334,
      "velocity": 1,
      "chip": "ym2612"
    },
    {
      "channel": 1,
      "note": 84,
      "start": 34.3307,
      "duration": 0.1198,
      "velocity": 100,
      "chip": "ym2612"
    },
    {
      "channel": 4,
      "note": 89,
      "start": 34.3336,
      "duration": 0.1176,
      "velocity": 99,
      "chip": "ym2612"
    },
    {
      "channel": 2,
      "note": 44,
      "start": 34.3347,
      "duration": 0.1339,
      "velocity": 1,
      "chip": "ym2612"
    },
    {
      "channel": 0,
      "note": 96,
      "start": 34.4676,
      "duration": 0.2569,
      "velocity": 91,
      "chip": "ym2612"
    },
    {
      "channel": 1,
      "note": 80,
      "start": 34.4681,
      "duration": 0.1199,
      "velocity": 100,
      "chip": "ym2612"
    },
    {
      "channel": 3,
      "note": 85,
      "start": 34.4707,
      "duration": 0.2543,
      "velocity": 91,
      "chip": "ym2612"
    },
    {
      "channel": 4,
      "note": 92,
      "start": 34.4712,
      "duration": 0.1172,
      "velocity": 99,
      "chip": "ym2612"
    },
    {
      "channel": 2,
      "note": 44,
      "start": 34.4724,
      "duration": 0.1332,
      "velocity": 1,
      "chip": "ym2612"
    },
    {
      "channel": 1,
      "note": 82,
      "start": 34.605,
      "duration": 0.1196,
      "velocity": 100,
      "chip": "ym2612"
    },
    {
      "channel": 4,
      "note": 94,
      "start": 34.6078,
      "duration": 0.1174,
      "velocity": 99,
      "chip": "ym2612"
    },
    {
      "channel": 2,
      "note": 44,
      "start": 34.609,
      "duration": 0.1338,
      "velocity": 1,
      "chip": "ym2612"
    },
    {
      "channel": 0,
      "note": 77,
      "start": 34.7417,
      "duration": 0.7951,
      "velocity": 91,
      "chip": "ym2612"
    },
    {
      "channel": 1,
      "note": 65,
      "start": 34.7422,
      "duration": 0.7947,
      "velocity": 100,
      "chip": "ym2612"
    },
    {
      "channel": 4,
      "note": 77,
      "start": 34.7455,
      "duration": 0.1211,
      "velocity": 99,
      "chip": "ym2612"
    },
    {
      "channel": 2,
      "note": 34,
      "start": 34.7468,
      "duration": 0.1894,
      "velocity": 117,
      "chip": "ym2612"
    },
    {
      "channel": 4,
      "note": 84,
      "start": 34.8842,
      "duration": 0.1188,
      "velocity": 99,
      "chip": "ym2612"
    },
    {
      "channel": 4,
      "note": 87,
      "start": 35.0199,
      "duration": 0.1156,
      "velocity": 99,
      "chip": "ym2612"
    },
    {
      "channel": 4,
      "note": 91,
      "start": 35.1524,
      "duration": 0.1156,
      "velocity": 99,
      "chip": "ym2612"
    },
    {
      "channel": 2,
      "note": 44,
      "start": 35.288,
      "duration": 0.2329,
      "velocity": 116,
      "chip": "ym2612"
    },
    {
      "channel": 4,
      "note": 89,
      "start": 35.4211,
      "duration": 0.1165,
      "velocity": 99,
      "chip": "ym2612"
    },
    {
      "channel": 0,
      "note": 84,
      "start": 35.5541,
      "duration": 0.802,
      "velocity": 91,
      "chip": "ym2612"
    },
    {
      "channel": 1,
      "note": 74,
      "start": 35.5546,
      "duration": 0.2602,
      "velocity": 100,
      "chip": "ym2612"
    },
    {
      "channel": 3,
      "note": 80,
      "start": 35.5573,
      "duration": 0.7992,
      "velocity": 91,
      "chip": "ym2612"
    },
    {
      "channel": 2,
      "note": 34,
      "start": 35.559,
      "duration": 0.1893,
      "velocity": 117,
      "chip": "ym2612"
    },
    {
      "channel": 4,
      "note": 87,
      "start": 35.6962,
      "duration": 0.1191,
      "velocity": 99,
      "chip": "ym2612"
    },
    {
      "channel": 1,
      "note": 75,
      "start": 35.8317,
      "duration": 0.7946,
      "velocity": 100,
      "chip": "ym2612"
    },
    {
      "channel": 2,
      "note": 34,
      "start": 35.8358,
      "duration": 0.1892,
      "velocity": 117,
      "chip": "ym2612"
    },
    {
      "channel": 4,
      "note": 86,
      "start": 35.973,
      "duration": 0.1188,
      "velocity": 99,
      "chip": "ym2612"
    },
    {
      "channel": 4,
      "note": 82,
      "start": 36.241,
      "duration": 0.1158,
      "velocity": 99,
      "chip": "ym2612"
    },
    {
      "channel": 0,
      "note": 77,
      "start": 36.3731,
      "duration": 0.7964,
      "velocity": 91,
      "chip": "ym2612"
    },
    {
      "channel": 2,
      "note": 44,
      "start": 36.3776,
      "duration": 0.2329,
      "velocity": 116,
      "chip": "ym2612"
    },
    {
      "channel": 4,
      "note": 84,
      "start": 36.5106,
      "duration": 0.1163,
      "velocity": 99,
      "chip": "ym2612"
    },
    {
      "channel": 1,
      "note": 75,
      "start": 36.6436,
      "duration": 0.1158,
      "velocity": 100,
      "chip": "ym2612"
    },
    {
      "channel": 4,
      "note": 75,
      "start": 36.6443,
      "duration": 0.1157,
      "velocity": 99,
      "chip": "ym2612"
    },
    {
      "channel": 1,
      "note": 77,
      "start": 36.7763,
      "duration": 0.1159,
      "velocity": 100,
      "chip": "ym2612"
    },
    {
      "channel": 4,
      "note": 84,
      "start": 36.777,
      "duration": 0.1158,
      "velocity": 99,
      "chip": "ym2612"
    },
    {
      "channel": 4,
      "note": 77,
      "start": 36.9123,
      "duration": 0.1212,
      "velocity": 99,
      "chip": "ym2612"
    },
    {
      "channel": 2,
      "note": 34,
      "start": 36.9136,
      "duration": 0.1897,
      "velocity": 117,
      "chip": "ym2612"
    },
    {
      "channel": 1,
      "note": 65,
      "start": 37.0507,
      "duration": 0.2524,
      "velocity": 100,
      "chip": "ym2612"
    },
    {
      "channel": 4,
      "note": 84,
      "start": 37.0514,
      "duration": 0.1189,
      "velocity": 99,
      "chip": "ym2612"
    },
    {
      "channel": 0,
      "note": 86,
      "start": 37.1866,
      "duration": 0.7959,
      "velocity": 91,
      "chip": "ym2612"
    },
    {
      "channel": 3,
      "note": 82,
      "start": 37.1875,
      "duration": 0.7956,
      "velocity": 91,
      "chip": "ym2612"
    },
    {
      "channel": 4,
      "note": 87,
      "start": 37.188,
      "duration": 0.1156,
      "velocity": 99,
      "chip": "ym2612"
    },
    {
      "channel": 1,
      "note": 65,
      "start": 37.32,
      "duration": 0.1158,
      "velocity": 100,
      "chip": "ym2612"
    },
    {
      "channel": 4,
      "note": 91,
      "start": 37.3207,
      "duration": 0.1157,
      "velocity": 99,
      "chip": "ym2612"
    },
    {
      "channel": 1,
      "note": 70,
      "start": 37.4528,
      "duration": 0.2528,
      "velocity": 100,
      "chip": "ym2612"
    },
    {
      "channel": 2,
      "note": 44,
      "start": 37.4567,
      "duration": 0.2329,
      "velocity": 116,
      "chip": "ym2612"
    },
    {
      "channel": 4,
      "note": 89,
      "start": 37.5897,
      "duration": 0.1164,
      "velocity": 99,
      "chip": "ym2612"
    },
    {
      "channel": 1,
      "note": 72,
      "start": 37.7228,
      "duration": 0.2599,
      "velocity": 100,
      "chip": "ym2612"
    },
    {
      "channel": 2,
      "note": 34,
      "start": 37.7268,
      "duration": 0.1893,
      "velocity": 117,
      "chip": "ym2612"
    },
    {
      "channel": 4,
      "note": 87,
      "start": 37.8641,
      "duration": 0.1192,
      "velocity": 99,
      "chip": "ym2612"
    },
    {
      "channel": 0,
      "note": 77,
      "start": 37.9996,
      "duration": 0.5247,
      "velocity": 91,
      "chip": "ym2612"
    },
    {
      "channel": 1,
      "note": 75,
      "start": 38.0001,
      "duration": 0.5244,
      "velocity": 100,
      "chip": "ym2612"
    },
    {
      "channel": 4,
      "note": 89,
      "start": 38.0032,
      "duration": 0.1209,
      "velocity": 99,
      "chip": "ym2612"
    },
    {
      "channel": 2,
      "note": 34,
      "start": 38.0045,
      "duration": 0.1891,
      "velocity": 117,
      "chip": "ym2612"
    },
    {
      "channel": 4,
      "note": 96,
      "start": 38.4093,
      "duration": 0.1159,
      "velocity": 99,
      "chip": "ym2612"
    },
    {
      "channel": 0,
      "note": 87,
      "start": 38.5415,
      "duration": 0.5195,
      "velocity": 91,
      "chip": "ym2612"
    },
    {
      "channel": 1,
      "note": 77,
      "start": 38.542,
      "duration": 0.1198,
      "velocity": 100,
      "chip": "ym2612"
    },
    {
      "channel": 3,
      "note": 84,
      "start": 38.5446,
      "duration": 0.517,
      "velocity": 91,
      "chip": "ym2612"
    },
    {
      "channel": 2,
      "note": 44,
      "start": 38.5462,
      "duration": 0.2332,
      "velocity": 116,
      "chip": "ym2612"
    },
    {
      "channel": 1,
      "note": 79,
      "start": 38.6788,
      "duration": 0.1165,
      "velocity": 100,
      "chip": "ym2612"
    },
    {
      "channel": 4,
      "note": 96,
      "start": 38.6795,
      "duration": 0.1164,
      "velocity": 99,
      "chip": "ym2612"
    },
    {
      "channel": 1,
      "note": 75,
      "start": 38.8125,
      "duration": 0.1158,
      "velocity": 100,
      "chip": "ym2612"
    },
    {
      "channel": 4,
      "note": 94,
      "start": 38.8132,
      "duration": 0.1157,
      "velocity": 99,
      "chip": "ym2612"
    },
    {
      "channel": 1,
      "note": 77,
      "start": 38.9453,
      "duration": 0.1159,
      "velocity": 100,
      "chip": "ym2612"
    },
    {
      "channel": 4,
      "note": 92,
      "start": 38.946,
      "duration": 0.1159,
      "velocity": 99,
      "chip": "ym2612"
    },
    {
      "channel": 0,
      "note": 87,
      "start": 39.0781,
      "duration": 0.5255,
      "velocity": 91,
      "chip": "ym2612"
    },
    {
      "channel": 1,
      "note": 65,
      "start": 39.0786,
      "duration": 0.7955,
      "velocity": 100,
      "chip": "ym2612"
    },
    {
      "channel": 3,
      "note": 84,
      "start": 39.0814,
      "duration": 0.5228,
      "velocity": 91,
      "chip": "ym2612"
    },
    {
      "channel": 4,
      "note": 77,
      "start": 39.0819,
      "duration": 0.121,
      "velocity": 99,
      "chip": "ym2612"
    },
    {
      "channel": 2,
      "note": 34,
      "start": 39.0832,
      "duration": 0.1893,
      "velocity": 117,
      "chip": "ym2612"
    },
    {
      "channel": 4,
      "note": 84,
      "start": 39.2205,
      "duration": 0.1188,
      "velocity": 99,
      "chip": "ym2612"
    },
    {
      "channel": 4,
      "note": 87,
      "start": 39.3562,
      "duration": 0.1156,
      "velocity": 99,
      "chip": "ym2612"
    },
    {
      "channel": 4,
      "note": 91,
      "start": 39.4887,
      "duration": 0.1157,
      "velocity": 99,
      "chip": "ym2612"
    },
    {
      "channel": 0,
      "note": 86,
      "start": 39.6207,
      "duration": 0.5302,
      "velocity": 91,
      "chip": "ym2612"
    },
    {
      "channel": 3,
      "note": 82,
      "start": 39.6237,
      "duration": 0.5278,
      "velocity": 91,
      "chip": "ym2612"
    },
    {
      "channel": 2,
      "note": 44,
      "start": 39.6253,
      "duration": 0.2329,
      "velocity": 116,
      "chip": "ym2612"
    },
    {
      "channel": 4,
      "note": 89,
      "start": 39.7582,
      "duration": 0.1164,
      "velocity": 99,
      "chip": "ym2612"
    },
    {
      "channel": 1,
      "note": 74,
      "start": 39.8913,
      "duration": 0.2598,
      "velocity": 100,
      "chip": "ym2612"
    },
    {
      "channel": 2,
      "note": 34,
      "start": 39.8953,
      "duration": 0.1894,
      "velocity": 117,
      "chip": "ym2612"
    },
    {
      "channel": 4,
      "note": 87,
      "start": 40.0326,
      "duration": 0.1191,
      "velocity": 99,
      "chip": "ym2612"
    },
    {
      "channel": 0,
      "note": 87,
      "start": 40.168,
      "duration": 0.2603,
      "velocity": 91,
      "chip": "ym2612"
    },
    {
      "channel": 1,
      "note": 75,
      "start": 40.1685,
      "duration": 0.7964,
      "velocity": 100,
      "chip": "ym2612"
    },
    {
      "channel": 3,
      "note": 84,
      "start": 40.1712,
      "duration": 0.2576,
      "velocity": 91,
      "chip": "ym2612"
    },
    {
      "channel": 2,
      "note": 34,
      "start": 40.1729,
      "duration": 0.1892,
      "velocity": 117,
      "chip": "ym2612"
    },
    {
      "channel": 4,
      "note": 86,
      "start": 40.3101,
      "duration": 0.119,
      "velocity": 99,
      "chip": "ym2612"
    },
    {
      "channel": 0,
      "note": 86,
      "start": 40.4454,
      "duration": 0.2487,
      "velocity": 91,
      "chip": "ym2612"
    },
    {
      "channel": 3,
      "note": 82,
      "start": 40.4462,
      "duration": 0.2484,
      "velocity": 91,
      "chip": "ym2612"
    },
    {
      "channel": 4,
      "note": 82,
      "start": 40.5791,
      "duration": 0.1158,
      "velocity": 99,
      "chip": "ym2612"
    },
    {
      "channel": 2,
      "note": 44,
      "start": 40.7155,
      "duration": 0.2334,
      "velocity": 116,
      "chip": "ym2612"
    },
    {
      "channel": 4,
      "note": 84,
      "start": 40.8488,
      "duration": 0.1168,
      "velocity": 99,
      "chip": "ym2612"
    },
    {
      "channel": 0,
      "note": 91,
      "start": 40.9821,
      "duration": 0.2499,
      "velocity": 91,
      "chip": "ym2612"
    },
    {
      "channel": 1,
      "note": 75,
      "start": 40.9826,
      "duration": 0.1164,
      "velocity": 100,
      "chip": "ym2612"
    },
    {
      "channel": 3,
      "note": 80,
      "start": 40.9832,
      "duration": 0.2494,
      "velocity": 91,
      "chip": "ym2612"
    },
    {
      "channel": 4,
      "note": 75,
      "start": 40.9837,
      "duration": 0.1159,
      "velocity": 99,
      "chip": "ym2612"
    },
    {
      "channel": 1,
      "note": 77,
      "start": 41.116,
      "duration": 0.1161,
      "velocity": 100,
      "chip": "ym2612"
    },
    {
      "channel": 4,
      "note": 84,
      "start": 41.1167,
      "duration": 0.1161,
      "velocity": 99,
      "chip": "ym2612"
    },
    {
      "channel": 4,
      "note": 77,
      "start": 41.2527,
      "duration": 0.121,
      "velocity": 99,
      "chip": "ym2612"
    },
    {
      "channel": 2,
      "note": 34,
      "start": 41.2539,
      "duration": 0.1894,
      "velocity": 117,
      "chip": "ym2612"
    },
    {
      "channel": 1,
      "note": 65,
      "start": 41.3908,
      "duration": 0.2524,
      "velocity": 100,
      "chip": "ym2612"
    },
    {
      "channel": 4,
      "note": 84,
      "start": 41.3915,
      "duration": 0.1189,
      "velocity": 99,
      "chip": "ym2612"
    },
    {
      "channel": 0,
      "note": 91,
      "start": 41.5266,
      "duration": 0.2492,
      "velocity": 91,
      "chip": "ym2612"
    },
    {
      "channel": 3,
      "note": 80,
      "start": 41.5276,
      "duration": 0.2489,
      "velocity": 91,
      "chip": "ym2612"
    },
    {
      "channel": 4,
      "note": 87,
      "start": 41.528,
      "duration": 0.1156,
      "velocity": 99,
      "chip": "ym2612"
    },
    {
      "channel": 1,
      "note": 65,
      "start": 41.6601,
      "duration": 0.1159,
      "velocity": 100,
      "chip": "ym2612"
    },
    {
      "channel": 4,
      "note": 91,
      "start": 41.6608,
      "duration": 0.1158,
      "velocity": 99,
      "chip": "ym2612"
    },
    {
      "channel": 1,
      "note": 70,
      "start": 41.7933,
      "duration": 0.2536,
      "velocity": 100,
      "chip": "ym2612"
    },
    {
      "channel": 2,
      "note": 44,
      "start": 41.7976,
      "duration": 0.2334,
      "velocity": 116,
      "chip": "ym2612"
    },
    {
      "channel": 4,
      "note": 89,
      "start": 41.9309,
      "duration": 0.1166,
      "velocity": 99,
      "chip": "ym2612"
    },
    {
      "channel": 1,
      "note": 72,
      "start": 42.0641,
      "duration": 0.2596,
      "velocity": 100,
      "chip": "ym2612"
    },
    {
      "channel": 2,
      "note": 34,
      "start": 42.0681,
      "duration": 0.1892,
      "velocity": 117,
      "chip": "ym2612"
    },
    {
      "channel": 4,
      "note": 87,
      "start": 42.2054,
      "duration": 0.119,
      "velocity": 99,
      "chip": "ym2612"
    },
    {
      "channel": 0,
      "note": 91,
      "start": 42.3407,
      "duration": 0.2605,
      "velocity": 91,
      "chip": "ym2612"
    },
    {
      "channel": 1,
      "note": 75,
      "start": 42.3412,
      "duration": 0.5254,
      "velocity": 100,
      "chip": "ym2612"
    },
    {
      "channel": 3,
      "note": 80,
      "start": 42.3439,
      "duration": 0.2578,
      "velocity": 91,
      "chip": "ym2612"
    },
    {
      "channel": 4,
      "note": 89,
      "start": 42.3444,
      "duration": 0.121,
      "velocity": 99,
      "chip": "ym2612"
    },
    {
      "channel": 2,
      "note": 34,
      "start": 42.3456,
      "duration": 0.1893,
      "velocity": 117,
      "chip": "ym2612"
    },
    {
      "channel": 0,
      "note": 91,
      "start": 42.6181,
      "duration": 0.2482,
      "velocity": 91,
      "chip": "ym2612"
    },
    {
      "channel": 3,
      "note": 80,
      "start": 42.619,
      "duration": 0.248,
      "velocity": 91,
      "chip": "ym2612"
    },
    {
      "channel": 0,
      "note": 91,
      "start": 42.8835,
      "duration": 0.253,
      "velocity": 91,
      "chip": "ym2612"
    },
    {
      "channel": 1,
      "note": 77,
      "start": 42.884,
      "duration": 0.1195,
      "velocity": 100,
      "chip": "ym2612"
    },
    {
      "channel": 3,
      "note": 80,
      "start": 42.8866,
      "duration": 0.2505,
      "velocity": 91,
      "chip": "ym2612"
    },
    {
      "channel": 2,
      "note": 44,
      "start": 42.8879,
      "duration": 0.2328,
      "velocity": 116,
      "chip": "ym2612"
    },
    {
      "channel": 1,
      "note": 79,
      "start": 43.0205,
      "duration": 0.1163,
      "velocity": 100,
      "chip": "ym2612"
    },
    {
      "channel": 0,
      "note": 91,
      "start": 43.1538,
      "duration": 0.2485,
      "velocity": 91,
      "chip": "ym2612"
    },
    {
      "channel": 1,
      "note": 75,
      "start": 43.1543,
      "duration": 0.1158,
      "velocity": 100,
      "chip": "ym2612"
    },
    {
      "channel": 3,
      "note": 80,
      "start": 43.1549,
      "duration": 0.2481,
      "velocity": 91,
      "chip": "ym2612"
    },
    {
      "channel": 1,
      "note": 77,
      "start": 43.287,
      "duration": 0.1155,
      "velocity": 100,
      "chip": "ym2612"
    },
    {
      "channel": 1,
      "note": 65,
      "start": 43.4256,
      "duration": 0.5486,
      "velocity": 100,
      "chip": "ym2612"
    },
    {
      "channel": 4,
      "note": 77,
      "start": 43.4318,
      "duration": 0.121,
      "velocity": 99,
      "chip": "ym2612"
    },
    {
      "channel": 2,
      "note": 34,
      "start": 43.4331,
      "duration": 0.1893,
      "velocity": 117,
      "chip": "ym2612"
    },
    {
      "channel": 4,
      "note": 89,
      "start": 43.5704,
      "duration": 0.1188,
      "velocity": 99,
      "chip": "ym2612"
    },
    {
      "channel": 4,
      "note": 96,
      "start": 43.706,
      "duration": 0.1156,
      "velocity": 99,
      "chip": "ym2612"
    },
    {
      "channel": 4,
      "note": 101,
      "start": 43.8385,
      "duration": 0.1156,
      "velocity": 99,
      "chip": "ym2612"
    },
    {
      "channel": 4,
      "note": 96,
      "start": 43.9732,
      "duration": 0.0011,
      "velocity": 99,
      "chip": "ym2612"
    }
  ]
}