{
  "track_name": "02 - 1st Half (Japanese)",
  "duration_sec": 52.262,
  "sample_rate": 44100,
  "note_count": 1176,
  "unique_pitches": 41,
  "pitch_range": 71,
  "avg_note_duration": 0.2308,
  "reconstruction_stats": {
    "notes_reconstructed": 1176,
    "keyon_events": 1176,
    "keyoff_events": 1170,
    "orphan_keyons": 6,
    "unique_pitches": 41,
    "pitch_range": 71,
    "avg_duration_sec": 0.2308
  },
  "metadata": {
    "source": "S\\Super Real Basketball\\02 - 1st Half (Japanese).vgz"
  },
  "notes": [
    {
      "channel": 0,
      "note": 89,
      "start": 0.0,
      "duration": 0.9206,
      "velocity": 109,
      "chip": "ym2612"
    },
    {
      "channel": 1,
      "note": 58,
      "start": 0.0032,
      "duration": 0.1013,
      "velocity": 97,
      "chip": "ym2612"
    },
    {
      "channel": 3,
      "note": 89,
      "start": 0.0071,
      "duration": 0.0978,
      "velocity": 102,
      "chip": "ym2612"
    },
    {
      "channel": 4,
      "note": 85,
      "start": 0.0106,
      "duration": 0.0946,
      "velocity": 97,
      "chip": "ym2612"
    },
    {
      "channel": 2,
      "note": 30,
      "start": 0.0117,
      "duration": 0.0572,
      "velocity": 117,
      "chip": "ym2612"
    },
    {
      "channel": 2,
      "note": 72,
      "start": 0.1065,
      "duration": 0.0637,
      "velocity": 116,
      "chip": "ym2612"
    },
    {
      "channel": 1,
      "note": 70,
      "start": 0.2075,
      "duration": 0.2005,
      "velocity": 97,
      "chip": "ym2612"
    },
    {
      "channel": 5,
      "note": 89,
      "start": 0.214,
      "duration": 0.9099,
      "velocity": 109,
      "chip": "ym2612"
    },
    {
      "channel": 2,
      "note": 31,
      "start": 0.2148,
      "duration": 0.0907,
      "velocity": 116,
      "chip": "ym2612"
    },
    {
      "channel": 3,
      "note": 87,
      "start": 0.3098,
      "duration": 1.3268,
      "velocity": 102,
      "chip": "ym2612"
    },
    {
      "channel": 4,
      "note": 84,
      "start": 0.3106,
      "duration": 1.3268,
      "velocity": 97,
      "chip": "ym2612"
    },
    {
      "channel": 2,
      "note": 72,
      "start": 0.3118,
      "duration": 0.0635,
      "velocity": 116,
      "chip": "ym2612"
    },
    {
      "channel": 1,
      "note": 58,
      "start": 0.5133,
      "duration": 0.1014,
      "velocity": 97,
      "chip": "ym2612"
    },
    {
      "channel": 2,
      "note": 30,
      "start": 0.5152,
      "duration": 0.0642,
      "velocity": 117,
      "chip": "ym2612"
    },
    {
      "channel": 1,
      "note": 70,
      "start": 0.6153,
      "duration": 0.2034,
      "velocity": 97,
      "chip": "ym2612"
    },
    {
      "channel": 2,
      "note": 31,
      "start": 0.6172,
      "duration": 0.124,
      "velocity": 116,
      "chip": "ym2612"
    },
    {
      "channel": 2,
      "note": 72,
      "start": 0.8208,
      "duration": 0.0644,
      "velocity": 116,
      "chip": "ym2612"
    },
    {
      "channel": 0,
      "note": 94,
      "start": 0.9212,
      "duration": 0.1017,
      "velocity": 109,
      "chip": "ym2612"
    },
    {
      "channel": 1,
      "note": 58,
      "start": 0.9219,
      "duration": 0.1018,
      "velocity": 97,
      "chip": "ym2612"
    },
    {
      "channel": 2,
      "note": 30,
      "start": 0.924,
      "duration": 0.0634,
      "velocity": 117,
      "chip": "ym2612"
    },
    {
      "channel": 0,
      "note": 92,
      "start": 1.0236,
      "duration": 0.0983,
      "velocity": 109,
      "chip": "ym2612"
    },
    {
      "channel": 1,
      "note": 70,
      "start": 1.0244,
      "duration": 0.2029,
      "velocity": 97,
      "chip": "ym2612"
    },
    {
      "channel": 2,
      "note": 31,
      "start": 1.0262,
      "duration": 0.1228,
      "velocity": 116,
      "chip": "ym2612"
    },
    {
      "channel": 0,
      "note": 89,
      "start": 1.1227,
      "duration": 0.1038,
      "velocity": 109,
      "chip": "ym2612"
    },
    {
      "channel": 5,
      "note": 94,
      "start": 1.1246,
      "duration": 0.1041,
      "velocity": 109,
      "chip": "ym2612"
    },
    {
      "channel": 0,
      "note": 92,
      "start": 1.2271,
      "duration": 0.0988,
      "velocity": 109,
      "chip": "ym2612"
    },
    {
      "channel": 1,
      "note": 58,
      "start": 1.2278,
      "duration": 0.0988,
      "velocity": 97,
      "chip": "ym2612"
    },
    {
      "channel": 5,
      "note": 92,
      "start": 1.2293,
      "duration": 0.0983,
      "velocity": 109,
      "chip": "ym2612"
    },
    {
      "channel": 2,
      "note": 30,
      "start": 1.2301,
      "duration": 0.0634,
      "velocity": 117,
      "chip": "ym2612"
    },
    {
      "channel": 0,
      "note": 89,
      "start": 1.3264,
      "duration": 0.1041,
      "velocity": 109,
      "chip": "ym2612"
    },
    {
      "channel": 5,
      "note": 89,
      "start": 1.3282,
      "duration": 0.1045,
      "velocity": 109,
      "chip": "ym2612"
    },
    {
      "channel": 0,
      "note": 87,
      "start": 1.4312,
      "duration": 0.0988,
      "velocity": 109,
      "chip": "ym2612"
    },
    {
      "channel": 1,
      "note": 70,
      "start": 1.4319,
      "duration": 0.2039,
      "velocity": 97,
      "chip": "ym2612"
    },
    {
      "channel": 5,
      "note": 92,
      "start": 1.4333,
      "duration": 0.0984,
      "velocity": 109,
      "chip": "ym2612"
    },
    {
      "channel": 2,
      "note": 31,
      "start": 1.4341,
      "duration": 0.1232,
      "velocity": 116,
      "chip": "ym2612"
    },
    {
      "channel": 0,
      "note": 85,
      "start": 1.5306,
      "duration": 0.1045,
      "velocity": 109,
      "chip": "ym2612"
    },
    {
      "channel": 5,
      "note": 89,
      "start": 1.5324,
      "duration": 0.1058,
      "velocity": 109,
      "chip": "ym2612"
    },
    {
      "channel": 0,
      "note": 82,
      "start": 1.6357,
      "duration": 0.9171,
      "velocity": 109,
      "chip": "ym2612"
    },
    {
      "channel": 1,
      "note": 54,
      "start": 1.6365,
      "duration": 0.1004,
      "velocity": 97,
      "chip": "ym2612"
    },
    {
      "channel": 3,
      "note": 89,
      "start": 1.6373,
      "duration": 0.1,
      "velocity": 102,
      "chip": "ym2612"
    },
    {
      "channel": 4,
      "note": 85,
      "start": 1.638,
      "duration": 0.0995,
      "velocity": 97,
      "chip": "ym2612"
    },
    {
      "channel": 5,
      "note": 87,
      "start": 1.6388,
      "duration": 0.0991,
      "velocity": 109,
      "chip": "ym2612"
    },
    {
      "channel": 2,
      "note": 30,
      "start": 1.6398,
      "duration": 0.0618,
      "velocity": 117,
      "chip": "ym2612"
    },
    {
      "channel": 5,
      "note": 85,
      "start": 1.7385,
      "duration": 0.1018,
      "velocity": 109,
      "chip": "ym2612"
    },
    {
      "channel": 2,
      "note": 72,
      "start": 1.7396,
      "duration": 0.0632,
      "velocity": 116,
      "chip": "ym2612"
    },
    {
      "channel": 1,
      "note": 66,
      "start": 1.8398,
      "duration": 0.2006,
      "velocity": 97,
      "chip": "ym2612"
    },
    {
      "channel": 5,
      "note": 82,
      "start": 1.841,
      "duration": 0.9153,
      "velocity": 109,
      "chip": "ym2612"
    },
    {
      "channel": 2,
      "note": 31,
      "start": 1.8418,
      "duration": 0.0961,
      "velocity": 116,
      "chip": "ym2612"
    },
    {
      "channel": 3,
      "note": 85,
      "start": 1.9422,
      "duration": 1.327,
      "velocity": 102,
      "chip": "ym2612"
    },
    {
      "channel": 4,
      "note": 82,
      "start": 1.9429,
      "duration": 1.3271,
      "velocity": 97,
      "chip": "ym2612"
    },
    {
      "channel": 2,
      "note": 72,
      "start": 1.9441,
      "duration": 0.0638,
      "velocity": 116,
      "chip": "ym2612"
    },
    {
      "channel": 1,
      "note": 54,
      "start": 2.1456,
      "duration": 0.1015,
      "velocity": 97,
      "chip": "ym2612"
    },
    {
      "channel": 2,
      "note": 30,
      "start": 2.1474,
      "duration": 0.0644,
      "velocity": 117,
      "chip": "ym2612"
    },
    {
      "channel": 1,
      "note": 66,
      "start": 2.2477,
      "duration": 0.2034,
      "velocity": 97,
      "chip": "ym2612"
    },
    {
      "channel": 2,
      "note": 31,
      "start": 2.2495,
      "duration": 0.1239,
      "velocity": 116,
      "chip": "ym2612"
    },
    {
      "channel": 2,
      "note": 72,
      "start": 2.4532,
      "duration": 0.0643,
      "velocity": 116,
      "chip": "ym2612"
    },
    {
      "channel": 0,
      "note": 82,
      "start": 2.5534,
      "duration": 0.1014,
      "velocity": 109,
      "chip": "ym2612"
    },
    {
      "channel": 1,
      "note": 54,
      "start": 2.5541,
      "duration": 0.1017,
      "velocity": 97,
      "chip": "ym2612"
    },
    {
      "channel": 2,
      "note": 30,
      "start": 2.5562,
      "duration": 0.0636,
      "velocity": 117,
      "chip": "ym2612"
    },
    {
      "channel": 0,
      "note": 84,
      "start": 2.6555,
      "duration": 0.0988,
      "velocity": 109,
      "chip": "ym2612"
    },
    {
      "channel": 1,
      "note": 66,
      "start": 2.6564,
      "duration": 0.2032,
      "velocity": 97,
      "chip": "ym2612"
    },
    {
      "channel": 2,
      "note": 31,
      "start": 2.6583,
      "duration": 0.1232,
      "velocity": 116,
      "chip": "ym2612"
    },
    {
      "channel": 0,
      "note": 85,
      "start": 2.7549,
      "duration": 0.1041,
      "velocity": 109,
      "chip": "ym2612"
    },
    {
      "channel": 5,
      "note": 82,
      "start": 2.7568,
      "duration": 0.1043,
      "velocity": 109,
      "chip": "ym2612"
    },
    {
      "channel": 0,
      "note": 87,
      "start": 2.8595,
      "duration": 0.0988,
      "velocity": 109,
      "chip": "ym2612"
    },
    {
      "channel": 1,
      "note": 54,
      "start": 2.8603,
      "duration": 0.0988,
      "velocity": 97,
      "chip": "ym2612"
    },
    {
      "channel": 5,
      "note": 84,
      "start": 2.8617,
      "duration": 0.0988,
      "velocity": 109,
      "chip": "ym2612"
    },
    {
      "channel": 2,
      "note": 30,
      "start": 2.8625,
      "duration": 0.0635,
      "velocity": 117,
      "chip": "ym2612"
    },
    {
      "channel": 0,
      "note": 84,
      "start": 2.959,
      "duration": 0.104,
      "velocity": 109,
      "chip": "ym2612"
    },
    {
      "channel": 1,
      "note": 66,
      "start": 2.9597,
      "duration": 0.1041,
      "velocity": 97,
      "chip": "ym2612"
    },
    {
      "channel": 5,
      "note": 85,
      "start": 2.9611,
      "duration": 0.104,
      "velocity": 109,
      "chip": "ym2612"
    },
    {
      "channel": 0,
      "note": 85,
      "start": 3.0636,
      "duration": 0.0987,
      "velocity": 109,
      "chip": "ym2612"
    },
    {
      "channel": 1,
      "note": 56,
      "start": 3.0643,
      "duration": 0.0987,
      "velocity": 97,
      "chip": "ym2612"
    },
    {
      "channel": 5,
      "note": 87,
      "start": 3.0658,
      "duration": 0.0987,
      "velocity": 109,
      "chip": "ym2612"
    },
    {
      "channel": 2,
      "note": 31,
      "start": 3.0665,
      "duration": 0.1232,
      "velocity": 116,
      "chip": "ym2612"
    },
    {
      "channel": 0,
      "note": 87,
      "start": 3.1629,
      "duration": 0.1044,
      "velocity": 109,
      "chip": "ym2612"
    },
    {
      "channel": 1,
      "note": 68,
      "start": 3.1636,
      "duration": 0.1047,
      "velocity": 97,
      "chip": "ym2612"
    },
    {
      "channel": 5,
      "note": 84,
      "start": 3.1651,
      "duration": 0.1057,
      "velocity": 109,
      "chip": "ym2612"
    },
    {
      "channel": 0,
      "note": 89,
      "start": 3.268,
      "duration": 0.9174,
      "velocity": 109,
      "chip": "ym2612"
    },
    {
      "channel": 1,
      "note": 58,
      "start": 3.2689,
      "duration": 0.1005,
      "velocity": 97,
      "chip": "ym2612"
    },
    {
      "channel": 3,
      "note": 89,
      "start": 3.2698,
      "duration": 0.0999,
      "velocity": 102,
      "chip": "ym2612"
    },
    {
      "channel": 4,
      "note": 85,
      "start": 3.2706,
      "duration": 0.0994,
      "velocity": 97,
      "chip": "ym2612"
    },
    {
      "channel": 5,
      "note": 85,
      "start": 3.2714,
      "duration": 0.099,
      "velocity": 109,
      "chip": "ym2612"
    },
    {
      "channel": 2,
      "note": 30,
      "start": 3.2724,
      "duration": 0.0616,
      "velocity": 117,
      "chip": "ym2612"
    },
    {
      "channel": 5,
      "note": 87,
      "start": 3.3709,
      "duration": 0.1017,
      "velocity": 109,
      "chip": "ym2612"
    },
    {
      "channel": 2,
      "note": 72,
      "start": 3.3718,
      "duration": 0.0635,
      "velocity": 116,
      "chip": "ym2612"
    },
    {
      "channel": 1,
      "note": 70,
      "start": 3.4719,
      "duration": 0.2012,
      "velocity": 97,
      "chip": "ym2612"
    },
    {
      "channel": 5,
      "note": 89,
      "start": 3.4732,
      "duration": 0.9153,
      "velocity": 109,
      "chip": "ym2612"
    },
    {
      "channel": 2,
      "note": 31,
      "start": 3.474,
      "duration": 0.0963,
      "velocity": 116,
      "chip": "ym2612"
    },
    {
      "channel": 3,
      "note": 87,
      "start": 3.5746,
      "duration": 1.3267,
      "velocity": 102,
      "chip": "ym2612"
    },
    {
      "channel": 4,
      "note": 84,
      "start": 3.5754,
      "duration": 1.3267,
      "velocity": 97,
      "chip": "ym2612"
    },
    {
      "channel": 2,
      "note": 72,
      "start": 3.5766,
      "duration": 0.0637,
      "velocity": 116,
      "chip": "ym2612"
    },
    {
      "channel": 1,
      "note": 58,
      "start": 3.778,
      "duration": 0.1015,
      "velocity": 97,
      "chip": "ym2612"
    },
    {
      "channel": 2,
      "note": 30,
      "start": 3.78,
      "duration": 0.0642,
      "velocity": 117,
      "chip": "ym2612"
    },
    {
      "channel": 1,
      "note": 70,
      "start": 3.8801,
      "duration": 0.2034,
      "velocity": 97,
      "chip": "ym2612"
    },
    {
      "channel": 2,
      "note": 31,
      "start": 3.8819,
      "duration": 0.124,
      "velocity": 116,
      "chip": "ym2612"
    },
    {
      "channel": 2,
      "note": 72,
      "start": 4.0857,
      "duration": 0.0643,
      "velocity": 116,
      "chip": "ym2612"
    },
    {
      "channel": 0,
      "note": 94,
      "start": 4.186,
      "duration": 0.1015,
      "velocity": 109,
      "chip": "ym2612"
    },
    {
      "channel": 1,
      "note": 58,
      "start": 4.1867,
      "duration": 0.1016,
      "velocity": 97,
      "chip": "ym2612"
    },
    {
      "channel": 2,
      "note": 30,
      "start": 4.1886,
      "duration": 0.0636,
      "velocity": 117,
      "chip": "ym2612"
    },
    {
      "channel": 0,
      "note": 92,
      "start": 4.2881,
      "duration": 0.0985,
      "velocity": 109,
      "chip": "ym2612"
    },
    {
      "channel": 1,
      "note": 70,
      "start": 4.2891,
      "duration": 0.2032,
      "velocity": 97,
      "chip": "ym2612"
    },
    {
      "channel": 2,
      "note": 31,
      "start": 4.291,
      "duration": 0.1229,
      "velocity": 116,
      "chip": "ym2612"
    },
    {
      "channel": 0,
      "note": 89,
      "start": 4.3873,
      "duration": 0.1043,
      "velocity": 109,
      "chip": "ym2612"
    },
    {
      "channel": 5,
      "note": 94,
      "start": 4.3894,
      "duration": 0.1043,
      "velocity": 109,
      "chip": "ym2612"
    },
    {
      "channel": 0,
      "note": 92,
      "start": 4.4922,
      "duration": 0.0985,
      "velocity": 109,
      "chip": "ym2612"
    },
    {
      "channel": 1,
      "note": 58,
      "start": 4.4929,
      "duration": 0.0986,
      "velocity": 97,
      "chip": "ym2612"
    },
    {
      "channel": 5,
      "note": 92,
      "start": 4.4943,
      "duration": 0.0981,
      "velocity": 109,
      "chip": "ym2612"
    },
    {
      "channel": 2,
      "note": 30,
      "start": 4.4951,
      "duration": 0.0631,
      "velocity": 117,
      "chip": "ym2612"
    },
    {
      "channel": 0,
      "note": 89,
      "start": 4.5913,
      "duration": 0.104,
      "velocity": 109,
      "chip": "ym2612"
    },
    {
      "channel": 5,
      "note": 89,
      "start": 4.593,
      "duration": 0.1045,
      "velocity": 109,
      "chip": "ym2612"
    },
    {
      "channel": 0,
      "note": 87,
      "start": 4.6959,
      "duration": 0.0988,
      "velocity": 109,
      "chip": "ym2612"
    },
    {
      "channel": 1,
      "note": 70,
      "start": 4.6967,
      "duration": 0.2039,
      "velocity": 97,
      "chip": "ym2612"
    },
    {
      "channel": 5,
      "note": 92,
      "start": 4.6981,
      "duration": 0.0983,
      "velocity": 109,
      "chip": "ym2612"
    },
    {
      "channel": 2,
      "note": 31,
      "start": 4.6989,
      "duration": 0.1229,
      "velocity": 116,
      "chip": "ym2612"
    },
    {
      "channel": 0,
      "note": 85,
      "start": 4.7953,
      "duration": 0.1045,
      "velocity": 109,
      "chip": "ym2612"
    },
    {
      "channel": 5,
      "note": 89,
      "start": 4.7971,
      "duration": 0.1057,
      "velocity": 109,
      "chip": "ym2612"
    },
    {
      "channel": 0,
      "note": 82,
      "start": 4.9004,
      "duration": 1.0191,
      "velocity": 109,
      "chip": "ym2612"
    },
    {
      "channel": 1,
      "note": 54,
      "start": 4.9012,
      "duration": 0.1006,
      "velocity": 97,
      "chip": "ym2612"
    },
    {
      "channel": 3,
      "note": 89,
      "start": 4.902,
      "duration": 0.1001,
      "velocity": 102,
      "chip": "ym2612"
    },
    {
      "channel": 4,
      "note": 85,
      "start": 4.9027,
      "duration": 0.0998,
      "velocity": 97,
      "chip": "ym2612"
    },
    {
      "channel": 5,
      "note": 87,
      "start": 4.9035,
      "duration": 0.0993,
      "velocity": 109,
      "chip": "ym2612"
    },
    {
      "channel": 2,
      "note": 30,
      "start": 4.9043,
      "duration": 0.062,
      "velocity": 117,
      "chip": "ym2612"
    },
    {
      "channel": 5,
      "note": 85,
      "start": 5.0034,
      "duration": 0.1014,
      "velocity": 109,
      "chip": "ym2612"
    },
    {
      "channel": 2,
      "note": 72,
      "start": 5.0042,
      "duration": 0.0634,
      "velocity": 116,
      "chip": "ym2612"
    },
    {
      "channel": 1,
      "note": 66,
      "start": 5.1044,
      "duration": 0.2008,
      "velocity": 97,
      "chip": "ym2612"
    },
    {
      "channel": 5,
      "note": 82,
      "start": 5.1054,
      "duration": 1.0206,
      "velocity": 109,
      "chip": "ym2612"
    },
    {
      "channel": 2,
      "note": 31,
      "start": 5.1064,
      "duration": 0.0962,
      "velocity": 116,
      "chip": "ym2612"
    },
    {
      "channel": 3,
      "note": 85,
      "start": 5.207,
      "duration": 1.3299,
      "velocity": 97,
      "chip": "ym2612"
    },
    {
      "channel": 4,
      "note": 82,
      "start": 5.2077,
      "duration": 1.3302,
      "velocity": 97,
      "chip": "ym2612"
    },
    {
      "channel": 2,
      "note": 72,
      "start": 5.209,
      "duration": 0.0637,
      "velocity": 116,
      "chip": "ym2612"
    },
    {
      "channel": 1,
      "note": 54,
      "start": 5.4104,
      "duration": 0.1015,
      "velocity": 97,
      "chip": "ym2612"
    },
    {
      "channel": 2,
      "note": 30,
      "start": 5.4123,
      "duration": 0.0643,
      "velocity": 117,
      "chip": "ym2612"
    },
    {
      "channel": 1,
      "note": 66,
      "start": 5.5124,
      "duration": 0.2034,
      "velocity": 97,
      "chip": "ym2612"
    },
    {
      "channel": 2,
      "note": 31,
      "start": 5.5143,
      "duration": 0.1237,
      "velocity": 116,
      "chip": "ym2612"
    },
    {
      "channel": 2,
      "note": 72,
      "start": 5.718,
      "duration": 0.0644,
      "velocity": 116,
      "chip": "ym2612"
    },
    {
      "channel": 1,
      "note": 54,
      "start": 5.8185,
      "duration": 0.1018,
      "velocity": 97,
      "chip": "ym2612"
    },
    {
      "channel": 2,
      "note": 30,
      "start": 5.8204,
      "duration": 0.0642,
      "velocity": 117,
      "chip": "ym2612"
    },
    {
      "channel": 0,
      "note": 84,
      "start": 5.9202,
      "duration": 0.0988,
      "velocity": 109,
      "chip": "ym2612"
    },
    {
      "channel": 1,
      "note": 66,
      "start": 5.9209,
      "duration": 0.2037,
      "velocity": 97,
      "chip": "ym2612"
    },
    {
      "channel": 2,
      "note": 31,
      "start": 5.9229,
      "duration": 0.1232,
      "velocity": 116,
      "chip": "ym2612"
    },
    {
      "channel": 0,
      "note": 85,
      "start": 6.0196,
      "duration": 0.1042,
      "velocity": 109,
      "chip": "ym2612"
    },
    {
      "channel": 0,
      "note": 87,
      "start": 6.1245,
      "duration": 0.2032,
      "velocity": 109,
      "chip": "ym2612"
    },
    {
      "channel": 1,
      "note": 54,
      "start": 6.1252,
      "duration": 0.0982,
      "velocity": 97,
      "chip": "ym2612"
    },
    {
      "channel": 5,
      "note": 84,
      "start": 6.1266,
      "duration": 0.0981,
      "velocity": 109,
      "chip": "ym2612"
    },
    {
      "channel": 2,
      "note": 30,
      "start": 6.1275,
      "duration": 0.0635,
      "velocity": 117,
      "chip": "ym2612"
    },
    {
      "channel": 1,
      "note": 66,
      "start": 6.224,
      "duration": 0.1045,
      "velocity": 97,
      "chip": "ym2612"
    },
    {
      "channel": 5,
      "note": 85,
      "start": 6.2254,
      "duration": 0.1045,
      "velocity": 109,
      "chip": "ym2612"
    },
    {
      "channel": 0,
      "note": 84,
      "start": 6.3283,
      "duration": 0.2038,
      "velocity": 109,
      "chip": "ym2612"
    },
    {
      "channel": 1,
      "note": 56,
      "start": 6.329,
      "duration": 0.0983,
      "velocity": 97,
      "chip": "ym2612"
    },
    {
      "channel": 5,
      "note": 87,
      "start": 6.3305,
      "duration": 0.2081,
      "velocity": 109,
      "chip": "ym2612"
    },
    {
      "channel": 2,
      "note": 31,
      "start": 6.3313,
      "duration": 0.1228,
      "velocity": 116,
      "chip": "ym2612"
    },
    {
      "channel": 1,
      "note": 68,
      "start": 6.428,
      "duration": 0.1051,
      "velocity": 97,
      "chip": "ym2612"
    },
    {
      "channel": 0,
      "note": 85,
      "start": 6.5328,
      "duration": 0.6111,
      "velocity": 109,
      "chip": "ym2612"
    },
    {
      "channel": 1,
      "note": 51,
      "start": 6.5337,
      "duration": 0.1005,
      "velocity": 97,
      "chip": "ym2612"
    },
    {
      "channel": 3,
      "note": 78,
      "start": 6.5375,
      "duration": 0.097,
      "velocity": 97,
      "chip": "ym2612"
    },
    {
      "channel": 4,
      "note": 73,
      "start": 6.5385,
      "duration": 0.301,
      "velocity": 97,
      "chip": "ym2612"
    },
    {
      "channel": 5,
      "note": 84,
      "start": 6.5395,
      "duration": 0.1982,
      "velocity": 109,
      "chip": "ym2612"
    },
    {
      "channel": 2,
      "note": 30,
      "start": 6.5403,
      "duration": 0.0585,
      "velocity": 117,
      "chip": "ym2612"
    },
    {
      "channel": 3,
      "note": 82,
      "start": 6.635,
      "duration": 0.1018,
      "velocity": 97,
      "chip": "ym2612"
    },
    {
      "channel": 2,
      "note": 72,
      "start": 6.6366,
      "duration": 0.0639,
      "velocity": 116,
      "chip": "ym2612"
    },
    {
      "channel": 1,
      "note": 63,
      "start": 6.7367,
      "duration": 0.2009,
      "velocity": 97,
      "chip": "ym2612"
    },
    {
      "channel": 5,
      "note": 85,
      "start": 6.7383,
      "duration": 0.6129,
      "velocity": 109,
      "chip": "ym2612"
    },
    {
      "channel": 2,
      "note": 31,
      "start": 6.7392,
      "duration": 0.0958,
      "velocity": 116,
      "chip": "ym2612"
    },
    {
      "channel": 3,
      "note": 78,
      "start": 6.8394,
      "duration": 0.0985,
      "velocity": 97,
      "chip": "ym2612"
    },
    {
      "channel": 4,
      "note": 73,
      "start": 6.8401,
      "duration": 0.3061,
      "velocity": 97,
      "chip": "ym2612"
    },
    {
      "channel": 2,
      "note": 72,
      "start": 6.8413,
      "duration": 0.0635,
      "velocity": 116,
      "chip": "ym2612"
    },
    {
      "channel": 3,
      "note": 82,
      "start": 6.9385,
      "duration": 0.1046,
      "velocity": 97,
      "chip": "ym2612"
    },
    {
      "channel": 1,
      "note": 51,
      "start": 7.0429,
      "duration": 0.1018,
      "velocity": 97,
      "chip": "ym2612"
    },
    {
      "channel": 2,
      "note": 30,
      "start": 7.0448,
      "duration": 0.0639,
      "velocity": 117,
      "chip": "ym2612"
    },
    {
      "channel": 0,
      "note": 84,
      "start": 7.1445,
      "duration": 0.0987,
      "velocity": 109,
      "chip": "ym2612"
    },
    {
      "channel": 1,
      "note": 63,
      "start": 7.1453,
      "duration": 0.2034,
      "velocity": 97,
      "chip": "ym2612"
    },
    {
      "channel": 3,
      "note": 78,
      "start": 7.146,
      "duration": 0.0983,
      "velocity": 97,
      "chip": "ym2612"
    },
    {
      "channel": 4,
      "note": 73,
      "start": 7.1468,
      "duration": 0.2036,
      "velocity": 97,
      "chip": "ym2612"
    },
    {
      "channel": 2,
      "note": 31,
      "start": 7.1479,
      "duration": 0.1225,
      "velocity": 116,
      "chip": "ym2612"
    },
    {
      "channel": 0,
      "note": 85,
      "start": 7.2438,
      "duration": 0.1041,
      "velocity": 109,
      "chip": "ym2612"
    },
    {
      "channel": 3,
      "note": 82,
      "start": 7.245,
      "duration": 0.1047,
      "velocity": 97,
      "chip": "ym2612"
    },
    {
      "channel": 0,
      "note": 87,
      "start": 7.3486,
      "duration": 0.6116,
      "velocity": 109,
      "chip": "ym2612"
    },
    {
      "channel": 1,
      "note": 53,
      "start": 7.3493,
      "duration": 0.0983,
      "velocity": 97,
      "chip": "ym2612"
    },
    {
      "channel": 3,
      "note": 80,
      "start": 7.3502,
      "duration": 0.0977,
      "velocity": 97,
      "chip": "ym2612"
    },
    {
      "channel": 4,
      "note": 75,
      "start": 7.351,
      "duration": 0.3017,
      "velocity": 97,
      "chip": "ym2612"
    },
    {
      "channel": 5,
      "note": 84,
      "start": 7.3518,
      "duration": 0.0973,
      "velocity": 109,
      "chip": "ym2612"
    },
    {
      "channel": 2,
      "note": 30,
      "start": 7.3526,
      "duration": 0.0623,
      "velocity": 117,
      "chip": "ym2612"
    },
    {
      "channel": 3,
      "note": 84,
      "start": 7.4485,
      "duration": 0.1048,
      "velocity": 97,
      "chip": "ym2612"
    },
    {
      "channel": 5,
      "note": 85,
      "start": 7.4497,
      "duration": 0.1043,
      "velocity": 109,
      "chip": "ym2612"
    },
    {
      "channel": 1,
      "note": 65,
      "start": 7.5532,
      "duration": 0.2034,
      "velocity": 97,
      "chip": "ym2612"
    },
    {
      "channel": 5,
      "note": 87,
      "start": 7.5546,
      "duration": 0.613,
      "velocity": 109,
      "chip": "ym2612"
    },
    {
      "channel": 2,
      "note": 31,
      "start": 7.5554,
      "duration": 0.1232,
      "velocity": 116,
      "chip": "ym2612"
    },
    {
      "channel": 3,
      "note": 80,
      "start": 7.6526,
      "duration": 0.1043,
      "velocity": 97,
      "chip": "ym2612"
    },
    {
      "channel": 4,
      "note": 75,
      "start": 7.6534,
      "duration": 0.309,
      "velocity": 97,
      "chip": "ym2612"
    },
    {
      "channel": 3,
      "note": 84,
      "start": 7.7576,
      "duration": 0.0992,
      "velocity": 97,
      "chip": "ym2612"
    },
    {
      "channel": 2,
      "note": 30,
      "start": 7.7591,
      "duration": 0.0639,
      "velocity": 117,
      "chip": "ym2612"
    },
    {
      "channel": 1,
      "note": 53,
      "start": 7.8566,
      "duration": 0.1043,
      "velocity": 97,
      "chip": "ym2612"
    },
    {
      "channel": 0,
      "note": 85,
      "start": 7.9607,
      "duration": 0.0988,
      "velocity": 109,
      "chip": "ym2612"
    },
    {
      "channel": 1,
      "note": 65,
      "start": 7.9615,
      "duration": 0.2037,
      "velocity": 97,
      "chip": "ym2612"
    },
    {
      "channel": 3,
      "note": 80,
      "start": 7.9623,
      "duration": 0.0983,
      "velocity": 97,
      "chip": "ym2612"
    },
    {
      "channel": 4,
      "note": 75,
      "start": 7.963,
      "duration": 0.2038,
      "velocity": 97,
      "chip": "ym2612"
    },
    {
      "channel": 2,
      "note": 31,
      "start": 7.9641,
      "duration": 0.1224,
      "velocity": 116,
      "chip": "ym2612"
    },
    {
      "channel": 0,
      "note": 87,
      "start": 8.0601,
      "duration": 0.1043,
      "velocity": 109,
      "chip": "ym2612"
    },
    {
      "channel": 3,
      "note": 84,
      "start": 8.0612,
      "duration": 0.1048,
      "velocity": 97,
      "chip": "ym2612"
    },
    {
      "channel": 0,
      "note": 89,
      "start": 8.165,
      "duration": 0.6113,
      "velocity": 109,
      "chip": "ym2612"
    },
    {
      "channel": 1,
      "note": 54,
      "start": 8.1658,
      "duration": 0.1007,
      "velocity": 97,
      "chip": "ym2612"
    },
    {
      "channel": 3,
      "note": 82,
      "start": 8.1667,
      "duration": 0.1001,
      "velocity": 97,
      "chip": "ym2612"
    },
    {
      "channel": 4,
      "note": 77,
      "start": 8.1675,
      "duration": 0.3042,
      "velocity": 97,
      "chip": "ym2612"
    },
    {
      "channel": 5,
      "note": 85,
      "start": 8.1682,
      "duration": 0.0996,
      "velocity": 109,
      "chip": "ym2612"
    },
    {
      "channel": 2,
      "note": 30,
      "start": 8.1691,
      "duration": 0.062,
      "velocity": 117,
      "chip": "ym2612"
    },
    {
      "channel": 3,
      "note": 85,
      "start": 8.2673,
      "duration": 0.102,
      "velocity": 97,
      "chip": "ym2612"
    },
    {
      "channel": 5,
      "note": 87,
      "start": 8.2685,
      "duration": 0.1015,
      "velocity": 109,
      "chip": "ym2612"
    },
    {
      "channel": 2,
      "note": 72,
      "start": 8.2693,
      "duration": 0.0636,
      "velocity": 116,
      "chip": "ym2612"
    },
    {
      "channel": 1,
      "note": 66,
      "start": 8.3691,
      "duration": 0.2008,
      "velocity": 97,
      "chip": "ym2612"
    },
    {
      "channel": 5,
      "note": 89,
      "start": 8.3706,
      "duration": 0.6131,
      "velocity": 109,
      "chip": "ym2612"
    },
    {
      "channel": 2,
      "note": 31,
      "start": 8.3714,
      "duration": 0.0961,
      "velocity": 116,
      "chip": "ym2612"
    },
    {
      "channel": 3,
      "note": 82,
      "start": 8.4715,
      "duration": 0.0987,
      "velocity": 97,
      "chip": "ym2612"
    },
    {
      "channel": 4,
      "note": 77,
      "start": 8.4725,
      "duration": 0.3061,
      "velocity": 97,
      "chip": "ym2612"
    },
    {
      "channel": 2,
      "note": 72,
      "start": 8.4737,
      "duration": 0.0635,
      "velocity": 116,
      "chip": "ym2612"
    },
    {
      "channel": 3,
      "note": 85,
      "start": 8.5708,
      "duration": 0.1047,
      "velocity": 97,
      "chip": "ym2612"
    },
    {
      "channel": 1,
      "note": 54,
      "start": 8.6754,
      "duration": 0.1017,
      "velocity": 97,
      "chip": "ym2612"
    },
    {
      "channel": 2,
      "note": 30,
      "start": 8.6772,
      "duration": 0.0639,
      "velocity": 117,
      "chip": "ym2612"
    },
    {
      "channel": 0,
      "note": 90,
      "start": 8.777,
      "duration": 0.0987,
      "velocity": 109,
      "chip": "ym2612"
    },
    {
      "channel": 1,
      "note": 66,
      "start": 8.7777,
      "duration": 0.2036,
      "velocity": 97,
      "chip": "ym2612"
    },
    {
      "channel": 3,
      "note": 82,
      "start": 8.7784,
      "duration": 0.0983,
      "velocity": 97,
      "chip": "ym2612"
    },
    {
      "channel": 4,
      "note": 77,
      "start": 8.7792,
      "duration": 0.2037,
      "velocity": 97,
      "chip": "ym2612"
    },
    {
      "channel": 2,
      "note": 31,
      "start": 8.7803,
      "duration": 0.1225,
      "velocity": 116,
      "chip": "ym2612"
    },
    {
      "channel": 0,
      "note": 89,
      "start": 8.8763,
      "duration": 0.1041,
      "velocity": 109,
      "chip": "ym2612"
    },
    {
      "channel": 3,
      "note": 85,
      "start": 8.8774,
      "duration": 0.1048,
      "velocity": 97,
      "chip": "ym2612"
    },
    {
      "channel": 0,
      "note": 89,
      "start": 8.9809,
      "duration": 0.4076,
      "velocity": 109,
      "chip": "ym2612"
    },
    {
      "channel": 1,
      "note": 53,
      "start": 8.9819,
      "duration": 0.0981,
      "velocity": 97,
      "chip": "ym2612"
    },
    {
      "channel": 3,
      "note": 80,
      "start": 8.9827,
      "duration": 0.0976,
      "velocity": 97,
      "chip": "ym2612"
    },
    {
      "channel": 4,
      "note": 75,
      "start": 8.9835,
      "duration": 0.3016,
      "velocity": 97,
      "chip": "ym2612"
    },
    {
      "channel": 5,
      "note": 90,
      "start": 8.9843,
      "duration": 0.0971,
      "velocity": 109,
      "chip": "ym2612"
    },
    {
      "channel": 2,
      "note": 30,
      "start": 8.9851,
      "duration": 0.0623,
      "velocity": 117,
      "chip": "ym2612"
    },
    {
      "channel": 3,
      "note": 84,
      "start": 9.081,
      "duration": 0.1045,
      "velocity": 97,
      "chip": "ym2612"
    },
    {
      "channel": 5,
      "note": 89,
      "start": 9.082,
      "duration": 0.1041,
      "velocity": 109,
      "chip": "ym2612"
    },
    {
      "channel": 1,
      "note": 65,
      "start": 9.1854,
      "duration": 0.2041,
      "velocity": 97,
      "chip": "ym2612"
    },
    {
      "channel": 5,
      "note": 89,
      "start": 9.1868,
      "duration": 0.4083,
      "velocity": 109,
      "chip": "ym2612"
    },
    {
      "channel": 2,
      "note": 31,
      "start": 9.1876,
      "duration": 0.1233,
      "velocity": 116,
      "chip": "ym2612"
    },
    {
      "channel": 3,
      "note": 80,
      "start": 9.285,
      "duration": 0.1048,
      "velocity": 97,
      "chip": "ym2612"
    },
    {
      "channel": 4,
      "note": 75,
      "start": 9.2857,
      "duration": 0.3086,
      "velocity": 97,
      "chip": "ym2612"
    },
    {
      "channel": 0,
      "note": 87,
      "start": 9.3892,
      "duration": 0.4079,
      "velocity": 109,
      "chip": "ym2612"
    },
    {
      "channel": 3,
      "note": 84,
      "start": 9.3903,
      "duration": 0.0988,
      "velocity": 97,
      "chip": "ym2612"
    },
    {
      "channel": 2,
      "note": 30,
      "start": 9.3919,
      "duration": 0.0633,
      "velocity": 117,
      "chip": "ym2612"
    },
    {
      "channel": 1,
      "note": 53,
      "start": 9.4888,
      "duration": 0.1041,
      "velocity": 97,
      "chip": "ym2612"
    },
    {
      "channel": 1,
      "note": 65,
      "start": 9.5935,
      "duration": 0.2046,
      "velocity": 97,
      "chip": "ym2612"
    },
    {
      "channel": 3,
      "note": 80,
      "start": 9.5942,
      "duration": 0.0983,
      "velocity": 97,
      "chip": "ym2612"
    },
    {
      "channel": 4,
      "note": 75,
      "start": 9.595,
      "duration": 0.2051,
      "velocity": 97,
      "chip": "ym2612"
    },
    {
      "channel": 5,
      "note": 87,
      "start": 9.5957,
      "duration": 0.4069,
      "velocity": 109,
      "chip": "ym2612"
    },
    {
      "channel": 2,
      "note": 31,
      "start": 9.5966,
      "duration": 0.1224,
      "velocity": 116,
      "chip": "ym2612"
    },
    {
      "channel": 3,
      "note": 84,
      "start": 9.6931,
      "duration": 0.1059,
      "velocity": 97,
      "chip": "ym2612"
    },
    {
      "channel": 0,
      "note": 85,
      "start": 9.7978,
      "duration": 0.6112,
      "velocity": 109,
      "chip": "ym2612"
    },
    {
      "channel": 1,
      "note": 51,
      "start": 9.7986,
      "duration": 0.1002,
      "velocity": 97,
      "chip": "ym2612"
    },
    {
      "channel": 3,
      "note": 78,
      "start": 9.7996,
      "duration": 0.0996,
      "velocity": 97,
      "chip": "ym2612"
    },
    {
      "channel": 4,
      "note": 73,
      "start": 9.8007,
      "duration": 0.3033,
      "velocity": 97,
      "chip": "ym2612"
    },
    {
      "channel": 2,
      "note": 30,
      "start": 9.8018,
      "duration": 0.0616,
      "velocity": 117,
      "chip": "ym2612"
    },
    {
      "channel": 3,
      "note": 82,
      "start": 9.8998,
      "duration": 0.1018,
      "velocity": 97,
      "chip": "ym2612"
    },
    {
      "channel": 2,
      "note": 72,
      "start": 9.9013,
      "duration": 0.064,
      "velocity": 116,
      "chip": "ym2612"
    },
    {
      "channel": 1,
      "note": 63,
      "start": 10.0015,
      "duration": 0.2007,
      "velocity": 97,
      "chip": "ym2612"
    },
    {
      "channel": 5,
      "note": 85,
      "start": 10.0032,
      "duration": 0.6127,
      "velocity": 109,
      "chip": "ym2612"
    },
    {
      "channel": 2,
      "note": 31,
      "start": 10.0041,
      "duration": 0.0957,
      "velocity": 116,
      "chip": "ym2612"
    },
    {
      "channel": 3,
      "note": 78,
      "start": 10.1038,
      "duration": 0.0988,
      "velocity": 97,
      "chip": "ym2612"
    },
    {
      "channel": 4,
      "note": 73,
      "start": 10.1046,
      "duration": 0.3066,
      "velocity": 97,
      "chip": "ym2612"
    },
    {
      "channel": 2,
      "note": 72,
      "start": 10.106,
      "duration": 0.0636,
      "velocity": 116,
      "chip": "ym2612"
    },
    {
      "channel": 3,
      "note": 82,
      "start": 10.2032,
      "duration": 0.1047,
      "velocity": 97,
      "chip": "ym2612"
    },
    {
      "channel": 1,
      "note": 51,
      "start": 10.3077,
      "duration": 0.102,
      "velocity": 97,
      "chip": "ym2612"
    },
    {
      "channel": 2,
      "note": 30,
      "start": 10.3096,
      "duration": 0.064,
      "velocity": 117,
      "chip": "ym2612"
    },
    {
      "channel": 0,
      "note": 84,
      "start": 10.4095,
      "duration": 0.0985,
      "velocity": 109,
      "chip": "ym2612"
    },
    {
      "channel": 1,
      "note": 63,
      "start": 10.4103,
      "duration": 0.2032,
      "velocity": 97,
      "chip": "ym2612"
    },
    {
      "channel": 3,
      "note": 78,
      "start": 10.411,
      "duration": 0.098,
      "velocity": 97,
      "chip": "ym2612"
    },
    {
      "channel": 4,
      "note": 73,
      "start": 10.4118,
      "duration": 0.2034,
      "velocity": 97,
      "chip": "ym2612"
    },
    {
      "channel": 2,
      "note": 31,
      "start": 10.4129,
      "duration": 0.1223,
      "velocity": 116,
      "chip": "ym2612"
    },
    {
      "channel": 0,
      "note": 85,
      "start": 10.5086,
      "duration": 0.1041,
      "velocity": 109,
      "chip": "ym2612"
    },
    {
      "channel": 3,
      "note": 82,
      "start": 10.5097,
      "duration": 0.1047,
      "velocity": 97,
      "chip": "ym2612"
    },
    {
      "channel": 0,
      "note": 87,
      "start": 10.6133,
      "duration": 0.6118,
      "velocity": 109,
      "chip": "ym2612"
    },
    {
      "channel": 1,
      "note": 53,
      "start": 10.6141,
      "duration": 0.0983,
      "velocity": 97,
      "chip": "ym2612"
    },
    {
      "channel": 3,
      "note": 80,
      "start": 10.615,
      "duration": 0.0978,
      "velocity": 97,
      "chip": "ym2612"
    },
    {
      "channel": 4,
      "note": 75,
      "start": 10.6158,
      "duration": 0.3017,
      "velocity": 97,
      "chip": "ym2612"
    },
    {
      "channel": 5,
      "note": 84,
      "start": 10.6165,
      "duration": 0.0973,
      "velocity": 109,
      "chip": "ym2612"
    },
    {
      "channel": 2,
      "note": 30,
      "start": 10.6173,
      "duration": 0.0624,
      "velocity": 117,
      "chip": "ym2612"
    },
    {
      "channel": 3,
      "note": 84,
      "start": 10.7134,
      "duration": 0.1047,
      "velocity": 97,
      "chip": "ym2612"
    },
    {
      "channel": 5,
      "note": 85,
      "start": 10.7145,
      "duration": 0.1043,
      "velocity": 109,
      "chip": "ym2612"
    },
    {
      "channel": 1,
      "note": 65,
      "start": 10.818,
      "duration": 0.2031,
      "velocity": 97,
      "chip": "ym2612"
    },
    {
      "channel": 5,
      "note": 87,
      "start": 10.8194,
      "duration": 0.613,
      "velocity": 109,
      "chip": "ym2612"
    },
    {
      "channel": 2,
      "note": 31,
      "start": 10.8202,
      "duration": 0.1232,
      "velocity": 116,
      "chip": "ym2612"
    },
    {
      "channel": 3,
      "note": 80,
      "start": 10.9173,
      "duration": 0.1041,
      "velocity": 97,
      "chip": "ym2612"
    },
    {
      "channel": 4,
      "note": 75,
      "start": 10.9181,
      "duration": 0.3092,
      "velocity": 97,
      "chip": "ym2612"
    },
    {
      "channel": 3,
      "note": 84,
      "start": 11.0221,
      "duration": 0.0991,
      "velocity": 97,
      "chip": "ym2612"
    },
    {
      "channel": 2,
      "note": 30,
      "start": 11.0238,
      "duration": 0.0637,
      "velocity": 117,
      "chip": "ym2612"
    },
    {
      "channel": 1,
      "note": 53,
      "start": 11.121,
      "duration": 0.1048,
      "velocity": 97,
      "chip": "ym2612"
    },
    {
      "channel": 0,
      "note": 85,
      "start": 11.2257,
      "duration": 0.0985,
      "velocity": 109,
      "chip": "ym2612"
    },
    {
      "channel": 1,
      "note": 65,
      "start": 11.2264,
      "duration": 0.2035,
      "velocity": 97,
      "chip": "ym2612"
    },
    {
      "channel": 3,
      "note": 80,
      "start": 11.2272,
      "duration": 0.0981,
      "velocity": 97,
      "chip": "ym2612"
    },
    {
      "channel": 4,
      "note": 75,
      "start": 11.228,
      "duration": 0.2036,
      "velocity": 97,
      "chip": "ym2612"
    },
    {
      "channel": 2,
      "note": 31,
      "start": 11.2291,
      "duration": 0.1223,
      "velocity": 116,
      "chip": "ym2612"
    },
    {
      "channel": 0,
      "note": 87,
      "start": 11.3249,
      "duration": 0.1043,
      "velocity": 109,
      "chip": "ym2612"
    },
    {
      "channel": 3,
      "note": 84,
      "start": 11.3259,
      "duration": 0.1049,
      "velocity": 97,
      "chip": "ym2612"
    },
    {
      "channel": 0,
      "note": 89,
      "start": 11.4298,
      "duration": 0.6115,
      "velocity": 109,
      "chip": "ym2612"
    },
    {
      "channel": 1,
      "note": 54,
      "start": 11.4305,
      "duration": 0.1007,
      "velocity": 97,
      "chip": "ym2612"
    },
    {
      "channel": 3,
      "note": 82,
      "start": 11.4315,
      "duration": 0.1001,
      "velocity": 97,
      "chip": "ym2612"
    },
    {
      "channel": 4,
      "note": 77,
      "start": 11.4322,
      "duration": 0.3042,
      "velocity": 97,
      "chip": "ym2612"
    },
    {
      "channel": 5,
      "note": 85,
      "start": 11.433,
      "duration": 0.0997,
      "velocity": 109,
      "chip": "ym2612"
    },
    {
      "channel": 2,
      "note": 30,
      "start": 11.4338,
      "duration": 0.0621,
      "velocity": 117,
      "chip": "ym2612"
    },
    {
      "channel": 3,
      "note": 85,
      "start": 11.5322,
      "duration": 0.1018,
      "velocity": 97,
      "chip": "ym2612"
    },
    {
      "channel": 5,
      "note": 87,
      "start": 11.5333,
      "duration": 0.1013,
      "velocity": 109,
      "chip": "ym2612"
    },
    {
      "channel": 2,
      "note": 72,
      "start": 11.5341,
      "duration": 0.0636,
      "velocity": 116,
      "chip": "ym2612"
    },
    {
      "channel": 1,
      "note": 66,
      "start": 11.6338,
      "duration": 0.2009,
      "velocity": 97,
      "chip": "ym2612"
    },
    {
      "channel": 5,
      "note": 89,
      "start": 11.6353,
      "duration": 0.613,
      "velocity": 109,
      "chip": "ym2612"
    },
    {
      "channel": 2,
      "note": 31,
      "start": 11.6361,
      "duration": 0.0961,
      "velocity": 116,
      "chip": "ym2612"
    },
    {
      "channel": 3,
      "note": 82,
      "start": 11.7363,
      "duration": 0.0987,
      "velocity": 97,
      "chip": "ym2612"
    },
    {
      "channel": 4,
      "note": 77,
      "start": 11.737,
      "duration": 0.3065,
      "velocity": 97,
      "chip": "ym2612"
    },
    {
      "channel": 2,
      "note": 72,
      "start": 11.7382,
      "duration": 0.0638,
      "velocity": 116,
      "chip": "ym2612"
    },
    {
      "channel": 3,
      "note": 85,
      "start": 11.8356,
      "duration": 0.1046,
      "velocity": 97,
      "chip": "ym2612"
    },
    {
      "channel": 1,
      "note": 54,
      "start": 11.9401,
      "duration": 0.1019,
      "velocity": 97,
      "chip": "ym2612"
    },
    {
      "channel": 2,
      "note": 30,
      "start": 11.9419,
      "duration": 0.0641,
      "velocity": 117,
      "chip": "ym2612"
    },
    {
      "channel": 0,
      "note": 90,
      "start": 12.0418,
      "duration": 0.0986,
      "velocity": 109,
      "chip": "ym2612"
    },
    {
      "channel": 1,
      "note": 66,
      "start": 12.0426,
      "duration": 0.2033,
      "velocity": 97,
      "chip": "ym2612"
    },
    {
      "channel": 3,
      "note": 82,
      "start": 12.0434,
      "duration": 0.0982,
      "velocity": 97,
      "chip": "ym2612"
    },
    {
      "channel": 4,
      "note": 77,
      "start": 12.0441,
      "duration": 0.2034,
      "velocity": 97,
      "chip": "ym2612"
    },
    {
      "channel": 2,
      "note": 31,
      "start": 12.0453,
      "duration": 0.1223,
      "velocity": 116,
      "chip": "ym2612"
    },
    {
      "channel": 0,
      "note": 89,
      "start": 12.1411,
      "duration": 0.104,
      "velocity": 109,
      "chip": "ym2612"
    },
    {
      "channel": 3,
      "note": 85,
      "start": 12.1422,
      "duration": 0.1046,
      "velocity": 97,
      "chip": "ym2612"
    },
    {
      "channel": 0,
      "note": 89,
      "start": 12.2456,
      "duration": 0.4075,
      "velocity": 109,
      "chip": "ym2612"
    },
    {
      "channel": 1,
      "note": 56,
      "start": 12.2465,
      "duration": 0.0983,
      "velocity": 97,
      "chip": "ym2612"
    },
    {
      "channel": 3,
      "note": 80,
      "start": 12.2474,
      "duration": 0.0976,
      "velocity": 97,
      "chip": "ym2612"
    },
    {
      "channel": 4,
      "note": 75,
      "start": 12.2482,
      "duration": 0.3017,
      "velocity": 97,
      "chip": "ym2612"
    },
    {
      "channel": 5,
      "note": 90,
      "start": 12.249,
      "duration": 0.0972,
      "velocity": 109,
      "chip": "ym2612"
    },
    {
      "channel": 2,
      "note": 30,
      "start": 12.2498,
      "duration": 0.0623,
      "velocity": 117,
      "chip": "ym2612"
    },
    {
      "channel": 3,
      "note": 84,
      "start": 12.3457,
      "duration": 0.1045,
      "velocity": 97,
      "chip": "ym2612"
    },
    {
      "channel": 5,
      "note": 89,
      "start": 12.3468,
      "duration": 0.1041,
      "velocity": 109,
      "chip": "ym2612"
    },
    {
      "channel": 1,
      "note": 68,
      "start": 12.4501,
      "duration": 0.2038,
      "velocity": 97,
      "chip": "ym2612"
    },
    {
      "channel": 5,
      "note": 89,
      "start": 12.4515,
      "duration": 0.4085,
      "velocity": 109,
      "chip": "ym2612"
    },
    {
      "channel": 2,
      "note": 31,
      "start": 12.4523,
      "duration": 0.1234,
      "velocity": 116,
      "chip": "ym2612"
    },
    {
      "channel": 3,
      "note": 80,
      "start": 12.5497,
      "duration": 0.1049,
      "velocity": 97,
      "chip": "ym2612"
    },
    {
      "channel": 4,
      "note": 75,
      "start": 12.5505,
      "duration": 0.3087,
      "velocity": 97,
      "chip": "ym2612"
    },
    {
      "channel": 0,
      "note": 87,
      "start": 12.6537,
      "duration": 0.4079,
      "velocity": 109,
      "chip": "ym2612"
    },
    {
      "channel": 1,
      "note": 56,
      "start": 12.6545,
      "duration": 0.1013,
      "velocity": 97,
      "chip": "ym2612"
    },
    {
      "channel": 3,
      "note": 84,
      "start": 12.6553,
      "duration": 0.1013,
      "velocity": 97,
      "chip": "ym2612"
    },
    {
      "channel": 2,
      "note": 31,
      "start": 12.6569,
      "duration": 0.0955,
      "velocity": 116,
      "chip": "ym2612"
    },
    {
      "channel": 1,
      "note": 68,
      "start": 12.7563,
      "duration": 0.1014,
      "velocity": 97,
      "chip": "ym2612"
    },
    {
      "channel": 2,
      "note": 31,
      "start": 12.7582,
      "duration": 0.0962,
      "velocity": 116,
      "chip": "ym2612"
    },
    {
      "channel": 1,
      "note": 57,
      "start": 12.8583,
      "duration": 0.0987,
      "velocity": 97,
      "chip": "ym2612"
    },
    {
      "channel": 3,
      "note": 80,
      "start": 12.8591,
      "duration": 0.0987,
      "velocity": 97,
      "chip": "ym2612"
    },
    {
      "channel": 4,
      "note": 75,
      "start": 12.8598,
      "duration": 0.2074,
      "velocity": 97,
      "chip": "ym2612"
    },
    {
      "channel": 5,
      "note": 87,
      "start": 12.8606,
      "duration": 0.4061,
      "velocity": 109,
      "chip": "ym2612"
    },
    {
      "channel": 2,
      "note": 30,
      "start": 12.8614,
      "duration": 0.063,
      "velocity": 117,
      "chip": "ym2612"
    },
    {
      "channel": 1,
      "note": 69,
      "start": 12.9576,
      "duration": 0.1049,
      "velocity": 97,
      "chip": "ym2612"
    },
    {
      "channel": 3,
      "note": 84,
      "start": 12.9584,
      "duration": 0.1078,
      "velocity": 102,
      "chip": "ym2612"
    },
    {
      "channel": 0,
      "note": 89,
      "start": 13.0623,
      "duration": 0.9173,
      "velocity": 109,
      "chip": "ym2612"
    },
    {
      "channel": 1,
      "note": 58,
      "start": 13.0631,
      "duration": 0.1006,
      "velocity": 97,
      "chip": "ym2612"
    },
    {
      "channel": 3,
      "note": 89,
      "start": 13.0668,
      "duration": 0.0972,
      "velocity": 102,
      "chip": "ym2612"
    },
    {
      "channel": 4,
      "note": 85,
      "start": 13.0679,
      "duration": 0.0964,
      "velocity": 97,
      "chip": "ym2612"
    },
    {
      "channel": 2,
      "note": 30,
      "start": 13.069,
      "duration": 0.0592,
      "velocity": 117,
      "chip": "ym2612"
    },
    {
      "channel": 2,
      "note": 72,
      "start": 13.1656,
      "duration": 0.0639,
      "velocity": 116,
      "chip": "ym2612"
    },
    {
      "channel": 1,
      "note": 70,
      "start": 13.2662,
      "duration": 0.2008,
      "velocity": 97,
      "chip": "ym2612"
    },
    {
      "channel": 5,
      "note": 89,
      "start": 13.2673,
      "duration": 0.9155,
      "velocity": 109,
      "chip": "ym2612"
    },
    {
      "channel": 2,
      "note": 31,
      "start": 13.2681,
      "duration": 0.0964,
      "velocity": 116,
      "chip": "ym2612"
    },
    {
      "channel": 3,
      "note": 87,
      "start": 13.3687,
      "duration": 1.3269,
      "velocity": 102,
      "chip": "ym2612"
    },
    {
      "channel": 4,
      "note": 84,
      "start": 13.3695,
      "duration": 1.3269,
      "velocity": 97,
      "chip": "ym2612"
    },
    {
      "channel": 2,
      "note": 72,
      "start": 13.3707,
      "duration": 0.0637,
      "velocity": 116,
      "chip": "ym2612"
    },
    {
      "channel": 1,
      "note": 58,
      "start": 13.5725,
      "duration": 0.1015,
      "velocity": 97,
      "chip": "ym2612"
    },
    {
      "channel": 2,
      "note": 30,
      "start": 13.5744,
      "duration": 0.064,
      "velocity": 117,
      "chip": "ym2612"
    },
    {
      "channel": 1,
      "note": 70,
      "start": 13.6747,
      "duration": 0.2031,
      "velocity": 97,
      "chip": "ym2612"
    },
    {
      "channel": 2,
      "note": 31,
      "start": 13.6764,
      "duration": 0.1235,
      "velocity": 116,
      "chip": "ym2612"
    },
    {
      "channel": 2,
      "note": 72,
      "start": 13.8799,
      "duration": 0.0643,
      "velocity": 116,
      "chip": "ym2612"
    },
    {
      "channel": 0,
      "note": 94,
      "start": 13.9802,
      "duration": 0.1016,
      "velocity": 109,
      "chip": "ym2612"
    },
    {
      "channel": 1,
      "note": 58,
      "start": 13.981,
      "duration": 0.1016,
      "velocity": 97,
      "chip": "ym2612"
    },
    {
      "channel": 2,
      "note": 30,
      "start": 13.9828,
      "duration": 0.0637,
      "velocity": 117,
      "chip": "ym2612"
    },
    {
      "channel": 0,
      "note": 92,
      "start": 14.0824,
      "duration": 0.0985,
      "velocity": 109,
      "chip": "ym2612"
    },
    {
      "channel": 1,
      "note": 70,
      "start": 14.0832,
      "duration": 0.2031,
      "velocity": 97,
      "chip": "ym2612"
    },
    {
      "channel": 2,
      "note": 31,
      "start": 14.085,
      "duration": 0.123,
      "velocity": 116,
      "chip": "ym2612"
    },
    {
      "channel": 0,
      "note": 89,
      "start": 14.1815,
      "duration": 0.104,
      "velocity": 109,
      "chip": "ym2612"
    },
    {
      "channel": 5,
      "note": 94,
      "start": 14.1834,
      "duration": 0.1043,
      "velocity": 109,
      "chip": "ym2612"
    },
    {
      "channel": 0,
      "note": 92,
      "start": 14.2862,
      "duration": 0.0987,
      "velocity": 109,
      "chip": "ym2612"
    },
    {
      "channel": 1,
      "note": 58,
      "start": 14.2869,
      "duration": 0.0987,
      "velocity": 97,
      "chip": "ym2612"
    },
    {
      "channel": 5,
      "note": 92,
      "start": 14.2883,
      "duration": 0.0983,
      "velocity": 109,
      "chip": "ym2612"
    },
    {
      "channel": 2,
      "note": 30,
      "start": 14.2894,
      "duration": 0.0632,
      "velocity": 117,
      "chip": "ym2612"
    },
    {
      "channel": 0,
      "note": 89,
      "start": 14.3855,
      "duration": 0.1043,
      "velocity": 109,
      "chip": "ym2612"
    },
    {
      "channel": 5,
      "note": 89,
      "start": 14.3873,
      "duration": 0.1047,
      "velocity": 109,
      "chip": "ym2612"
    },
    {
      "channel": 0,
      "note": 87,
      "start": 14.4904,
      "duration": 0.0988,
      "velocity": 109,
      "chip": "ym2612"
    },
    {
      "channel": 1,
      "note": 70,
      "start": 14.4911,
      "duration": 0.2037,
      "velocity": 97,
      "chip": "ym2612"
    },
    {
      "channel": 5,
      "note": 92,
      "start": 14.4926,
      "duration": 0.0984,
      "velocity": 109,
      "chip": "ym2612"
    },
    {
      "channel": 2,
      "note": 31,
      "start": 14.4934,
      "duration": 0.1228,
      "velocity": 116,
      "chip": "ym2612"
    },
    {
      "channel": 0,
      "note": 85,
      "start": 14.5898,
      "duration": 0.1043,
      "velocity": 109,
      "chip": "ym2612"
    },
    {
      "channel": 5,
      "note": 89,
      "start": 14.5917,
      "duration": 0.1055,
      "velocity": 109,
      "chip": "ym2612"
    },
    {
      "channel": 0,
      "note": 82,
      "start": 14.6947,
      "duration": 0.9172,
      "velocity": 109,
      "chip": "ym2612"
    },
    {
      "channel": 1,
      "note": 54,
      "start": 14.6954,
      "duration": 0.1006,
      "velocity": 97,
      "chip": "ym2612"
    },
    {
      "channel": 3,
      "note": 89,
      "start": 14.6962,
      "duration": 0.1002,
      "velocity": 102,
      "chip": "ym2612"
    },
    {
      "channel": 4,
      "note": 85,
      "start": 14.6969,
      "duration": 0.0997,
      "velocity": 97,
      "chip": "ym2612"
    },
    {
      "channel": 5,
      "note": 87,
      "start": 14.6977,
      "duration": 0.0993,
      "velocity": 109,
      "chip": "ym2612"
    },
    {
      "channel": 2,
      "note": 30,
      "start": 14.6985,
      "duration": 0.0622,
      "velocity": 117,
      "chip": "ym2612"
    },
    {
      "channel": 5,
      "note": 85,
      "start": 14.7976,
      "duration": 0.1015,
      "velocity": 109,
      "chip": "ym2612"
    },
    {
      "channel": 2,
      "note": 72,
      "start": 14.7985,
      "duration": 0.0634,
      "velocity": 116,
      "chip": "ym2612"
    },
    {
      "channel": 1,
      "note": 66,
      "start": 14.8986,
      "duration": 0.2009,
      "velocity": 97,
      "chip": "ym2612"
    },
    {
      "channel": 5,
      "note": 82,
      "start": 14.8997,
      "duration": 0.9153,
      "velocity": 109,
      "chip": "ym2612"
    },
    {
      "channel": 2,
      "note": 31,
      "start": 14.9005,
      "duration": 0.0964,
      "velocity": 116,
      "chip": "ym2612"
    },
    {
      "channel": 3,
      "note": 85,
      "start": 15.001,
      "duration": 1.3272,
      "velocity": 102,
      "chip": "ym2612"
    },
    {
      "channel": 4,
      "note": 82,
      "start": 15.0018,
      "duration": 1.3273,
      "velocity": 97,
      "chip": "ym2612"
    },
    {
      "channel": 2,
      "note": 72,
      "start": 15.003,
      "duration": 0.0638,
      "velocity": 116,
      "chip": "ym2612"
    },
    {
      "channel": 1,
      "note": 54,
      "start": 15.2047,
      "duration": 0.1016,
      "velocity": 97,
      "chip": "ym2612"
    },
    {
      "channel": 2,
      "note": 30,
      "start": 15.2068,
      "duration": 0.064,
      "velocity": 117,
      "chip": "ym2612"
    },
    {
      "channel": 1,
      "note": 66,
      "start": 15.3069,
      "duration": 0.2032,
      "velocity": 97,
      "chip": "ym2612"
    },
    {
      "channel": 2,
      "note": 31,
      "start": 15.3088,
      "duration": 0.1235,
      "velocity": 116,
      "chip": "ym2612"
    },
    {
      "channel": 2,
      "note": 72,
      "start": 15.5123,
      "duration": 0.0644,
      "velocity": 116,
      "chip": "ym2612"
    },
    {
      "channel": 0,
      "note": 82,
      "start": 15.6125,
      "duration": 0.1013,
      "velocity": 109,
      "chip": "ym2612"
    },
    {
      "channel": 1,
      "note": 54,
      "start": 15.6132,
      "duration": 0.1014,
      "velocity": 97,
      "chip": "ym2612"
    },
    {
      "channel": 2,
      "note": 30,
      "start": 15.6151,
      "duration": 0.0637,
      "velocity": 117,
      "chip": "ym2612"
    },
    {
      "channel": 0,
      "note": 84,
      "start": 15.7144,
      "duration": 0.0988,
      "velocity": 109,
      "chip": "ym2612"
    },
    {
      "channel": 1,
      "note": 66,
      "start": 15.7152,
      "duration": 0.2035,
      "velocity": 97,
      "chip": "ym2612"
    },
    {
      "channel": 2,
      "note": 31,
      "start": 15.717,
      "duration": 0.1237,
      "velocity": 116,
      "chip": "ym2612"
    },
    {
      "channel": 0,
      "note": 85,
      "start": 15.8139,
      "duration": 0.1041,
      "velocity": 109,
      "chip": "ym2612"
    },
    {
      "channel": 5,
      "note": 82,
      "start": 15.8156,
      "duration": 0.1045,
      "velocity": 109,
      "chip": "ym2612"
    },
    {
      "channel": 0,
      "note": 87,
      "start": 15.9185,
      "duration": 0.0987,
      "velocity": 109,
      "chip": "ym2612"
    },
    {
      "channel": 1,
      "note": 54,
      "start": 15.9193,
      "duration": 0.0987,
      "velocity": 97,
      "chip": "ym2612"
    },
    {
      "channel": 5,
      "note": 84,
      "start": 15.9207,
      "duration": 0.0987,
      "velocity": 109,
      "chip": "ym2612"
    },
    {
      "channel": 2,
      "note": 30,
      "start": 15.9215,
      "duration": 0.0634,
      "velocity": 117,
      "chip": "ym2612"
    },
    {
      "channel": 0,
      "note": 84,
      "start": 16.0179,
      "duration": 0.1041,
      "velocity": 109,
      "chip": "ym2612"
    },
    {
      "channel": 1,
      "note": 66,
      "start": 16.0185,
      "duration": 0.1043,
      "velocity": 97,
      "chip": "ym2612"
    },
    {
      "channel": 5,
      "note": 85,
      "start": 16.02,
      "duration": 0.1043,
      "velocity": 109,
      "chip": "ym2612"
    },
    {
      "channel": 0,
      "note": 85,
      "start": 16.1228,
      "duration": 0.0986,
      "velocity": 109,
      "chip": "ym2612"
    },
    {
      "channel": 1,
      "note": 56,
      "start": 16.1234,
      "duration": 0.0987,
      "velocity": 97,
      "chip": "ym2612"
    },
    {
      "channel": 5,
      "note": 87,
      "start": 16.1249,
      "duration": 0.0988,
      "velocity": 109,
      "chip": "ym2612"
    },
    {
      "channel": 2,
      "note": 31,
      "start": 16.1257,
      "duration": 0.1229,
      "velocity": 116,
      "chip": "ym2612"
    },
    {
      "channel": 0,
      "note": 87,
      "start": 16.222,
      "duration": 0.1044,
      "velocity": 109,
      "chip": "ym2612"
    },
    {
      "channel": 1,
      "note": 68,
      "start": 16.2229,
      "duration": 0.1044,
      "velocity": 97,
      "chip": "ym2612"
    },
    {
      "channel": 5,
      "note": 84,
      "start": 16.2244,
      "duration": 0.1054,
      "velocity": 109,
      "chip": "ym2612"
    },
    {
      "channel": 0,
      "note": 89,
      "start": 16.327,
      "duration": 0.9174,
      "velocity": 109,
      "chip": "ym2612"
    },
    {
      "channel": 1,
      "note": 58,
      "start": 16.3279,
      "duration": 0.1005,
      "velocity": 97,
      "chip": "ym2612"
    },
    {
      "channel": 3,
      "note": 89,
      "start": 16.3288,
      "duration": 0.0999,
      "velocity": 102,
      "chip": "ym2612"
    },
    {
      "channel": 4,
      "note": 85,
      "start": 16.3296,
      "duration": 0.0994,
      "velocity": 97,
      "chip": "ym2612"
    },
    {
      "channel": 5,
      "note": 85,
      "start": 16.3304,
      "duration": 0.099,
      "velocity": 109,
      "chip": "ym2612"
    },
    {
      "channel": 2,
      "note": 30,
      "start": 16.3312,
      "duration": 0.0618,
      "velocity": 117,
      "chip": "ym2612"
    },
    {
      "channel": 5,
      "note": 87,
      "start": 16.43,
      "duration": 0.1014,
      "velocity": 109,
      "chip": "ym2612"
    },
    {
      "channel": 2,
      "note": 72,
      "start": 16.4308,
      "duration": 0.0634,
      "velocity": 116,
      "chip": "ym2612"
    },
    {
      "channel": 1,
      "note": 70,
      "start": 16.531,
      "duration": 0.2009,
      "velocity": 97,
      "chip": "ym2612"
    },
    {
      "channel": 5,
      "note": 89,
      "start": 16.532,
      "duration": 0.9155,
      "velocity": 109,
      "chip": "ym2612"
    },
    {
      "channel": 2,
      "note": 31,
      "start": 16.5327,
      "duration": 0.0965,
      "velocity": 116,
      "chip": "ym2612"
    },
    {
      "channel": 3,
      "note": 87,
      "start": 16.6334,
      "duration": 1.3271,
      "velocity": 102,
      "chip": "ym2612"
    },
    {
      "channel": 4,
      "note": 84,
      "start": 16.6341,
      "duration": 1.3271,
      "velocity": 97,
      "chip": "ym2612"
    },
    {
      "channel": 2,
      "note": 72,
      "start": 16.6354,
      "duration": 0.0637,
      "velocity": 116,
      "chip": "ym2612"
    },
    {
      "channel": 1,
      "note": 58,
      "start": 16.8371,
      "duration": 0.1013,
      "velocity": 97,
      "chip": "ym2612"
    },
    {
      "channel": 2,
      "note": 30,
      "start": 16.8392,
      "duration": 0.064,
      "velocity": 117,
      "chip": "ym2612"
    },
    {
      "channel": 1,
      "note": 70,
      "start": 16.9393,
      "duration": 0.2034,
      "velocity": 97,
      "chip": "ym2612"
    },
    {
      "channel": 2,
      "note": 31,
      "start": 16.9411,
      "duration": 0.1236,
      "velocity": 116,
      "chip": "ym2612"
    },
    {
      "channel": 2,
      "note": 72,
      "start": 17.1448,
      "duration": 0.0642,
      "velocity": 116,
      "chip": "ym2612"
    },
    {
      "channel": 0,
      "note": 94,
      "start": 17.245,
      "duration": 0.1016,
      "velocity": 109,
      "chip": "ym2612"
    },
    {
      "channel": 1,
      "note": 58,
      "start": 17.2457,
      "duration": 0.1016,
      "velocity": 97,
      "chip": "ym2612"
    },
    {
      "channel": 2,
      "note": 30,
      "start": 17.2476,
      "duration": 0.0637,
      "velocity": 117,
      "chip": "ym2612"
    },
    {
      "channel": 0,
      "note": 92,
      "start": 17.3472,
      "duration": 0.0984,
      "velocity": 109,
      "chip": "ym2612"
    },
    {
      "channel": 1,
      "note": 70,
      "start": 17.3479,
      "duration": 0.2031,
      "velocity": 97,
      "chip": "ym2612"
    },
    {
      "channel": 2,
      "note": 31,
      "start": 17.3497,
      "duration": 0.1232,
      "velocity": 116,
      "chip": "ym2612"
    },
    {
      "channel": 0,
      "note": 89,
      "start": 17.4462,
      "duration": 0.1041,
      "velocity": 109,
      "chip": "ym2612"
    },
    {
      "channel": 5,
      "note": 94,
      "start": 17.4481,
      "duration": 0.1043,
      "velocity": 109,
      "chip": "ym2612"
    },
    {
      "channel": 0,
      "note": 92,
      "start": 17.5509,
      "duration": 0.0988,
      "velocity": 109,
      "chip": "ym2612"
    },
    {
      "channel": 1,
      "note": 58,
      "start": 17.5516,
      "duration": 0.0988,
      "velocity": 97,
      "chip": "ym2612"
    },
    {
      "channel": 5,
      "note": 92,
      "start": 17.5531,
      "duration": 0.0983,
      "velocity": 109,
      "chip": "ym2612"
    },
    {
      "channel": 2,
      "note": 30,
      "start": 17.5539,
      "duration": 0.0634,
      "velocity": 117,
      "chip": "ym2612"
    },
    {
      "channel": 0,
      "note": 89,
      "start": 17.6502,
      "duration": 0.1041,
      "velocity": 109,
      "chip": "ym2612"
    },
    {
      "channel": 5,
      "note": 89,
      "start": 17.652,
      "duration": 0.1047,
      "velocity": 109,
      "chip": "ym2612"
    },
    {
      "channel": 0,
      "note": 87,
      "start": 17.7549,
      "duration": 0.0988,
      "velocity": 109,
      "chip": "ym2612"
    },
    {
      "channel": 1,
      "note": 70,
      "start": 17.7559,
      "duration": 0.2039,
      "velocity": 97,
      "chip": "ym2612"
    },
    {
      "channel": 5,
      "note": 92,
      "start": 17.7574,
      "duration": 0.0984,
      "velocity": 109,
      "chip": "ym2612"
    },
    {
      "channel": 2,
      "note": 31,
      "start": 17.7581,
      "duration": 0.1228,
      "velocity": 116,
      "chip": "ym2612"
    },
    {
      "channel": 0,
      "note": 85,
      "start": 17.8544,
      "duration": 0.1046,
      "velocity": 109,
      "chip": "ym2612"
    },
    {
      "channel": 5,
      "note": 89,
      "start": 17.8563,
      "duration": 0.1056,
      "velocity": 109,
      "chip": "ym2612"
    },
    {
      "channel": 0,
      "note": 82,
      "start": 17.9596,
      "duration": 1.019,
      "velocity": 109,
      "chip": "ym2612"
    },
    {
      "channel": 1,
      "note": 54,
      "start": 17.9604,
      "duration": 0.1004,
      "velocity": 97,
      "chip": "ym2612"
    },
    {
      "channel": 3,
      "note": 89,
      "start": 17.9611,
      "duration": 0.0999,
      "velocity": 102,
      "chip": "ym2612"
    },
    {
      "channel": 4,
      "note": 85,
      "start": 17.9619,
      "duration": 0.0995,
      "velocity": 97,
      "chip": "ym2612"
    },
    {
      "channel": 5,
      "note": 87,
      "start": 17.9627,
      "duration": 0.099,
      "velocity": 109,
      "chip": "ym2612"
    },
    {
      "channel": 2,
      "note": 30,
      "start": 17.9635,
      "duration": 0.062,
      "velocity": 117,
      "chip": "ym2612"
    },
    {
      "channel": 5,
      "note": 85,
      "start": 18.0623,
      "duration": 0.1015,
      "velocity": 109,
      "chip": "ym2612"
    },
    {
      "channel": 2,
      "note": 72,
      "start": 18.0632,
      "duration": 0.0635,
      "velocity": 116,
      "chip": "ym2612"
    },
    {
      "channel": 1,
      "note": 66,
      "start": 18.1634,
      "duration": 0.2008,
      "velocity": 97,
      "chip": "ym2612"
    },
    {
      "channel": 5,
      "note": 82,
      "start": 18.1644,
      "duration": 1.0204,
      "velocity": 109,
      "chip": "ym2612"
    },
    {
      "channel": 2,
      "note": 31,
      "start": 18.1653,
      "duration": 0.0964,
      "velocity": 116,
      "chip": "ym2612"
    },
    {
      "channel": 3,
      "note": 85,
      "start": 18.2658,
      "duration": 1.3303,
      "velocity": 97,
      "chip": "ym2612"
    },
    {
      "channel": 4,
      "note": 82,
      "start": 18.2665,
      "duration": 1.3305,
      "velocity": 97,
      "chip": "ym2612"
    },
    {
      "channel": 2,
      "note": 72,
      "start": 18.2677,
      "duration": 0.0637,
      "velocity": 116,
      "chip": "ym2612"
    },
    {
      "channel": 1,
      "note": 54,
      "start": 18.4694,
      "duration": 0.1015,
      "velocity": 97,
      "chip": "ym2612"
    },
    {
      "channel": 2,
      "note": 30,
      "start": 18.4712,
      "duration": 0.0643,
      "velocity": 117,
      "chip": "ym2612"
    },
    {
      "channel": 1,
      "note": 66,
      "start": 18.5715,
      "duration": 0.2036,
      "velocity": 97,
      "chip": "ym2612"
    },
    {
      "channel": 2,
      "note": 31,
      "start": 18.5735,
      "duration": 0.1235,
      "velocity": 116,
      "chip": "ym2612"
    },
    {
      "channel": 2,
      "note": 72,
      "start": 18.7772,
      "duration": 0.0641,
      "velocity": 116,
      "chip": "ym2612"
    },
    {
      "channel": 1,
      "note": 54,
      "start": 18.8775,
      "duration": 0.1018,
      "velocity": 97,
      "chip": "ym2612"
    },
    {
      "channel": 2,
      "note": 30,
      "start": 18.8794,
      "duration": 0.0643,
      "velocity": 117,
      "chip": "ym2612"
    },
    {
      "channel": 0,
      "note": 84,
      "start": 18.9792,
      "duration": 0.0988,
      "velocity": 109,
      "chip": "ym2612"
    },
    {
      "channel": 1,
      "note": 66,
      "start": 18.98,
      "duration": 0.2035,
      "velocity": 97,
      "chip": "ym2612"
    },
    {
      "channel": 2,
      "note": 31,
      "start": 18.9818,
      "duration": 0.1233,
      "velocity": 116,
      "chip": "ym2612"
    },
    {
      "channel": 0,
      "note": 85,
      "start": 19.0787,
      "duration": 0.104,
      "velocity": 109,
      "chip": "ym2612"
    },
    {
      "channel": 0,
      "note": 87,
      "start": 19.1833,
      "duration": 0.2034,
      "velocity": 109,
      "chip": "ym2612"
    },
    {
      "channel": 1,
      "note": 54,
      "start": 19.184,
      "duration": 0.0983,
      "velocity": 97,
      "chip": "ym2612"
    },
    {
      "channel": 5,
      "note": 84,
      "start": 19.1855,
      "duration": 0.0983,
      "velocity": 109,
      "chip": "ym2612"
    },
    {
      "channel": 2,
      "note": 30,
      "start": 19.1863,
      "duration": 0.0634,
      "velocity": 117,
      "chip": "ym2612"
    },
    {
      "channel": 1,
      "note": 66,
      "start": 19.2829,
      "duration": 0.1046,
      "velocity": 97,
      "chip": "ym2612"
    },
    {
      "channel": 5,
      "note": 85,
      "start": 19.2844,
      "duration": 0.1048,
      "velocity": 109,
      "chip": "ym2612"
    },
    {
      "channel": 0,
      "note": 84,
      "start": 19.3874,
      "duration": 0.204,
      "velocity": 109,
      "chip": "ym2612"
    },
    {
      "channel": 1,
      "note": 56,
      "start": 19.3881,
      "duration": 0.0983,
      "velocity": 97,
      "chip": "ym2612"
    },
    {
      "channel": 5,
      "note": 87,
      "start": 19.3898,
      "duration": 0.2081,
      "velocity": 109,
      "chip": "ym2612"
    },
    {
      "channel": 2,
      "note": 31,
      "start": 19.3906,
      "duration": 0.1228,
      "velocity": 116,
      "chip": "ym2612"
    },
    {
      "channel": 1,
      "note": 68,
      "start": 19.487,
      "duration": 0.1053,
      "velocity": 97,
      "chip": "ym2612"
    },
    {
      "channel": 0,
      "note": 85,
      "start": 19.592,
      "duration": 0.611,
      "velocity": 109,
      "chip": "ym2612"
    },
    {
      "channel": 1,
      "note": 51,
      "start": 19.5929,
      "duration": 0.1002,
      "velocity": 97,
      "chip": "ym2612"
    },
    {
      "channel": 3,
      "note": 78,
      "start": 19.5966,
      "duration": 0.0969,
      "velocity": 97,
      "chip": "ym2612"
    },
    {
      "channel": 4,
      "note": 73,
      "start": 19.5977,
      "duration": 0.3006,
      "velocity": 97,
      "chip": "ym2612"
    },
    {
      "channel": 5,
      "note": 84,
      "start": 19.5985,
      "duration": 0.1983,
      "velocity": 109,
      "chip": "ym2612"
    },
    {
      "channel": 2,
      "note": 30,
      "start": 19.5993,
      "duration": 0.0587,
      "velocity": 117,
      "chip": "ym2612"
    },
    {
      "channel": 3,
      "note": 82,
      "start": 19.6941,
      "duration": 0.1019,
      "velocity": 97,
      "chip": "ym2612"
    },
    {
      "channel": 2,
      "note": 72,
      "start": 19.6956,
      "duration": 0.0639,
      "velocity": 116,
      "chip": "ym2612"
    },
    {
      "channel": 1,
      "note": 63,
      "start": 19.7958,
      "duration": 0.2008,
      "velocity": 97,
      "chip": "ym2612"
    },
    {
      "channel": 5,
      "note": 85,
      "start": 19.7973,
      "duration": 0.6131,
      "velocity": 109,
      "chip": "ym2612"
    },
    {
      "channel": 2,
      "note": 31,
      "start": 19.7981,
      "duration": 0.0959,
      "velocity": 116,
      "chip": "ym2612"
    },
    {
      "channel": 3,
      "note": 78,
      "start": 19.8981,
      "duration": 0.0987,
      "velocity": 97,
      "chip": "ym2612"
    },
    {
      "channel": 4,
      "note": 73,
      "start": 19.8989,
      "duration": 0.3063,
      "velocity": 97,
      "chip": "ym2612"
    },
    {
      "channel": 2,
      "note": 72,
      "start": 19.9001,
      "duration": 0.0637,
      "velocity": 116,
      "chip": "ym2612"
    },
    {
      "channel": 3,
      "note": 82,
      "start": 19.9975,
      "duration": 0.1044,
      "velocity": 97,
      "chip": "ym2612"
    },
    {
      "channel": 1,
      "note": 51,
      "start": 20.1018,
      "duration": 0.102,
      "velocity": 97,
      "chip": "ym2612"
    },
    {
      "channel": 2,
      "note": 30,
      "start": 20.1036,
      "duration": 0.0641,
      "velocity": 117,
      "chip": "ym2612"
    },
    {
      "channel": 0,
      "note": 84,
      "start": 20.2035,
      "duration": 0.0987,
      "velocity": 109,
      "chip": "ym2612"
    },
    {
      "channel": 1,
      "note": 63,
      "start": 20.2043,
      "duration": 0.2036,
      "velocity": 97,
      "chip": "ym2612"
    },
    {
      "channel": 3,
      "note": 78,
      "start": 20.2051,
      "duration": 0.0983,
      "velocity": 97,
      "chip": "ym2612"
    },
    {
      "channel": 4,
      "note": 73,
      "start": 20.206,
      "duration": 0.2036,
      "velocity": 97,
      "chip": "ym2612"
    },
    {
      "channel": 2,
      "note": 31,
      "start": 20.2072,
      "duration": 0.1223,
      "velocity": 116,
      "chip": "ym2612"
    },
    {
      "channel": 0,
      "note": 85,
      "start": 20.3028,
      "duration": 0.1043,
      "velocity": 109,
      "chip": "ym2612"
    },
    {
      "channel": 3,
      "note": 82,
      "start": 20.304,
      "duration": 0.1048,
      "velocity": 97,
      "chip": "ym2612"
    },
    {
      "channel": 0,
      "note": 87,
      "start": 20.4078,
      "duration": 0.6113,
      "velocity": 109,
      "chip": "ym2612"
    },
    {
      "channel": 1,
      "note": 53,
      "start": 20.4085,
      "duration": 0.0982,
      "velocity": 97,
      "chip": "ym2612"
    },
    {
      "channel": 3,
      "note": 80,
      "start": 20.4095,
      "duration": 0.0976,
      "velocity": 97,
      "chip": "ym2612"
    },
    {
      "channel": 4,
      "note": 75,
      "start": 20.4102,
      "duration": 0.3015,
      "velocity": 97,
      "chip": "ym2612"
    },
    {
      "channel": 5,
      "note": 84,
      "start": 20.411,
      "duration": 0.0971,
      "velocity": 109,
      "chip": "ym2612"
    },
    {
      "channel": 2,
      "note": 30,
      "start": 20.4118,
      "duration": 0.0623,
      "velocity": 117,
      "chip": "ym2612"
    },
    {
      "channel": 3,
      "note": 84,
      "start": 20.5077,
      "duration": 0.1048,
      "velocity": 97,
      "chip": "ym2612"
    },
    {
      "channel": 5,
      "note": 85,
      "start": 20.5088,
      "duration": 0.1043,
      "velocity": 109,
      "chip": "ym2612"
    },
    {
      "channel": 1,
      "note": 65,
      "start": 20.6123,
      "duration": 0.203,
      "velocity": 97,
      "chip": "ym2612"
    },
    {
      "channel": 5,
      "note": 87,
      "start": 20.6137,
      "duration": 0.6131,
      "velocity": 109,
      "chip": "ym2612"
    },
    {
      "channel": 2,
      "note": 31,
      "start": 20.6145,
      "duration": 0.123,
      "velocity": 116,
      "chip": "ym2612"
    },
    {
      "channel": 3,
      "note": 80,
      "start": 20.7116,
      "duration": 0.1041,
      "velocity": 97,
      "chip": "ym2612"
    },
    {
      "channel": 4,
      "note": 75,
      "start": 20.7124,
      "duration": 0.3089,
      "velocity": 97,
      "chip": "ym2612"
    },
    {
      "channel": 3,
      "note": 84,
      "start": 20.8163,
      "duration": 0.0993,
      "velocity": 97,
      "chip": "ym2612"
    },
    {
      "channel": 2,
      "note": 30,
      "start": 20.8178,
      "duration": 0.064,
      "velocity": 117,
      "chip": "ym2612"
    },
    {
      "channel": 1,
      "note": 53,
      "start": 20.9154,
      "duration": 0.1045,
      "velocity": 97,
      "chip": "ym2612"
    },
    {
      "channel": 0,
      "note": 85,
      "start": 21.0196,
      "duration": 0.0988,
      "velocity": 109,
      "chip": "ym2612"
    },
    {
      "channel": 1,
      "note": 65,
      "start": 21.0204,
      "duration": 0.2039,
      "velocity": 97,
      "chip": "ym2612"
    },
    {
      "channel": 3,
      "note": 80,
      "start": 21.0212,
      "duration": 0.0983,
      "velocity": 97,
      "chip": "ym2612"
    },
    {
      "channel": 4,
      "note": 75,
      "start": 21.0219,
      "duration": 0.2041,
      "velocity": 97,
      "chip": "ym2612"
    },
    {
      "channel": 2,
      "note": 31,
      "start": 21.0233,
      "duration": 0.1224,
      "velocity": 116,
      "chip": "ym2612"
    },
    {
      "channel": 0,
      "note": 87,
      "start": 21.1191,
      "duration": 0.1045,
      "velocity": 109,
      "chip": "ym2612"
    },
    {
      "channel": 3,
      "note": 84,
      "start": 21.1202,
      "duration": 0.1051,
      "velocity": 97,
      "chip": "ym2612"
    },
    {
      "channel": 0,
      "note": 89,
      "start": 21.2242,
      "duration": 0.6111,
      "velocity": 109,
      "chip": "ym2612"
    },
    {
      "channel": 1,
      "note": 54,
      "start": 21.225,
      "duration": 0.1007,
      "velocity": 97,
      "chip": "ym2612"
    },
    {
      "channel": 3,
      "note": 82,
      "start": 21.2259,
      "duration": 0.1001,
      "velocity": 97,
      "chip": "ym2612"
    },
    {
      "channel": 4,
      "note": 77,
      "start": 21.2267,
      "duration": 0.3039,
      "velocity": 97,
      "chip": "ym2612"
    },
    {
      "channel": 5,
      "note": 85,
      "start": 21.2275,
      "duration": 0.0997,
      "velocity": 109,
      "chip": "ym2612"
    },
    {
      "channel": 2,
      "note": 30,
      "start": 21.2283,
      "duration": 0.0621,
      "velocity": 117,
      "chip": "ym2612"
    },
    {
      "channel": 3,
      "note": 85,
      "start": 21.3266,
      "duration": 0.1017,
      "velocity": 97,
      "chip": "ym2612"
    },
    {
      "channel": 5,
      "note": 87,
      "start": 21.3278,
      "duration": 0.1012,
      "velocity": 109,
      "chip": "ym2612"
    },
    {
      "channel": 2,
      "note": 72,
      "start": 21.3286,
      "duration": 0.0633,
      "velocity": 116,
      "chip": "ym2612"
    },
    {
      "channel": 1,
      "note": 66,
      "start": 21.4281,
      "duration": 0.2008,
      "velocity": 97,
      "chip": "ym2612"
    },
    {
      "channel": 5,
      "note": 89,
      "start": 21.4296,
      "duration": 0.6134,
      "velocity": 109,
      "chip": "ym2612"
    },
    {
      "channel": 2,
      "note": 31,
      "start": 21.4303,
      "duration": 0.0961,
      "velocity": 116,
      "chip": "ym2612"
    },
    {
      "channel": 3,
      "note": 82,
      "start": 21.5305,
      "duration": 0.0987,
      "velocity": 97,
      "chip": "ym2612"
    },
    {
      "channel": 4,
      "note": 77,
      "start": 21.5312,
      "duration": 0.3063,
      "velocity": 97,
      "chip": "ym2612"
    },
    {
      "channel": 2,
      "note": 72,
      "start": 21.5324,
      "duration": 0.0639,
      "velocity": 116,
      "chip": "ym2612"
    },
    {
      "channel": 3,
      "note": 85,
      "start": 21.6299,
      "duration": 0.1045,
      "velocity": 97,
      "chip": "ym2612"
    },
    {
      "channel": 1,
      "note": 54,
      "start": 21.7342,
      "duration": 0.1018,
      "velocity": 97,
      "chip": "ym2612"
    },
    {
      "channel": 2,
      "note": 30,
      "start": 21.7361,
      "duration": 0.0639,
      "velocity": 117,
      "chip": "ym2612"
    },
    {
      "channel": 0,
      "note": 90,
      "start": 21.8359,
      "duration": 0.0989,
      "velocity": 109,
      "chip": "ym2612"
    },
    {
      "channel": 1,
      "note": 66,
      "start": 21.8366,
      "duration": 0.2038,
      "velocity": 97,
      "chip": "ym2612"
    },
    {
      "channel": 3,
      "note": 82,
      "start": 21.8374,
      "duration": 0.0984,
      "velocity": 97,
      "chip": "ym2612"
    },
    {
      "channel": 4,
      "note": 77,
      "start": 21.8381,
      "duration": 0.204,
      "velocity": 97,
      "chip": "ym2612"
    },
    {
      "channel": 2,
      "note": 31,
      "start": 21.8395,
      "duration": 0.1223,
      "velocity": 116,
      "chip": "ym2612"
    },
    {
      "channel": 0,
      "note": 89,
      "start": 21.9353,
      "duration": 0.1042,
      "velocity": 109,
      "chip": "ym2612"
    },
    {
      "channel": 3,
      "note": 85,
      "start": 21.9364,
      "duration": 0.105,
      "velocity": 97,
      "chip": "ym2612"
    },
    {
      "channel": 0,
      "note": 89,
      "start": 22.0401,
      "duration": 0.4073,
      "velocity": 109,
      "chip": "ym2612"
    },
    {
      "channel": 1,
      "note": 53,
      "start": 22.0411,
      "duration": 0.0982,
      "velocity": 97,
      "chip": "ym2612"
    },
    {
      "channel": 3,
      "note": 80,
      "start": 22.042,
      "duration": 0.0976,
      "velocity": 97,
      "chip": "ym2612"
    },
    {
      "channel": 4,
      "note": 75,
      "start": 22.0427,
      "duration": 0.3015,
      "velocity": 97,
      "chip": "ym2612"
    },
    {
      "channel": 5,
      "note": 90,
      "start": 22.0435,
      "duration": 0.0971,
      "velocity": 109,
      "chip": "ym2612"
    },
    {
      "channel": 2,
      "note": 30,
      "start": 22.0443,
      "duration": 0.0622,
      "velocity": 117,
      "chip": "ym2612"
    },
    {
      "channel": 3,
      "note": 84,
      "start": 22.1401,
      "duration": 0.1043,
      "velocity": 97,
      "chip": "ym2612"
    },
    {
      "channel": 5,
      "note": 89,
      "start": 22.1413,
      "duration": 0.1038,
      "velocity": 109,
      "chip": "ym2612"
    },
    {
      "channel": 1,
      "note": 65,
      "start": 22.2443,
      "duration": 0.2038,
      "velocity": 97,
      "chip": "ym2612"
    },
    {
      "channel": 5,
      "note": 89,
      "start": 22.2457,
      "duration": 0.4083,
      "velocity": 109,
      "chip": "ym2612"
    },
    {
      "channel": 2,
      "note": 31,
      "start": 22.2466,
      "duration": 0.1233,
      "velocity": 116,
      "chip": "ym2612"
    },
    {
      "channel": 3,
      "note": 80,
      "start": 22.344,
      "duration": 0.1045,
      "velocity": 97,
      "chip": "ym2612"
    },
    {
      "channel": 4,
      "note": 75,
      "start": 22.3448,
      "duration": 0.3085,
      "velocity": 97,
      "chip": "ym2612"
    },
    {
      "channel": 0,
      "note": 87,
      "start": 22.448,
      "duration": 0.408,
      "velocity": 109,
      "chip": "ym2612"
    },
    {
      "channel": 3,
      "note": 84,
      "start": 22.4491,
      "duration": 0.0987,
      "velocity": 97,
      "chip": "ym2612"
    },
    {
      "channel": 2,
      "note": 30,
      "start": 22.4506,
      "duration": 0.0636,
      "velocity": 117,
      "chip": "ym2612"
    },
    {
      "channel": 1,
      "note": 53,
      "start": 22.5477,
      "duration": 0.1041,
      "velocity": 97,
      "chip": "ym2612"
    },
    {
      "channel": 1,
      "note": 65,
      "start": 22.6524,
      "duration": 0.2045,
      "velocity": 97,
      "chip": "ym2612"
    },
    {
      "channel": 3,
      "note": 80,
      "start": 22.6532,
      "duration": 0.0983,
      "velocity": 97,
      "chip": "ym2612"
    },
    {
      "channel": 4,
      "note": 75,
      "start": 22.6539,
      "duration": 0.2048,
      "velocity": 97,
      "chip": "ym2612"
    },
    {
      "channel": 5,
      "note": 87,
      "start": 22.6547,
      "duration": 0.4067,
      "velocity": 109,
      "chip": "ym2612"
    },
    {
      "channel": 2,
      "note": 31,
      "start": 22.6555,
      "duration": 0.1225,
      "velocity": 116,
      "chip": "ym2612"
    },
    {
      "channel": 3,
      "note": 84,
      "start": 22.7522,
      "duration": 0.1056,
      "velocity": 97,
      "chip": "ym2612"
    },
    {
      "channel": 0,
      "note": 85,
      "start": 22.8567,
      "duration": 0.6109,
      "velocity": 109,
      "chip": "ym2612"
    },
    {
      "channel": 1,
      "note": 51,
      "start": 22.8575,
      "duration": 0.1006,
      "velocity": 97,
      "chip": "ym2612"
    },
    {
      "channel": 3,
      "note": 78,
      "start": 22.8584,
      "duration": 0.1,
      "velocity": 97,
      "chip": "ym2612"
    },
    {
      "channel": 4,
      "note": 73,
      "start": 22.8593,
      "duration": 0.3037,
      "velocity": 97,
      "chip": "ym2612"
    },
    {
      "channel": 2,
      "note": 30,
      "start": 22.8605,
      "duration": 0.0623,
      "velocity": 117,
      "chip": "ym2612"
    },
    {
      "channel": 3,
      "note": 82,
      "start": 22.9591,
      "duration": 0.1016,
      "velocity": 97,
      "chip": "ym2612"
    },
    {
      "channel": 2,
      "note": 72,
      "start": 22.9606,
      "duration": 0.0638,
      "velocity": 116,
      "chip": "ym2612"
    },
    {
      "channel": 1,
      "note": 63,
      "start": 23.0605,
      "duration": 0.2008,
      "velocity": 97,
      "chip": "ym2612"
    },
    {
      "channel": 5,
      "note": 85,
      "start": 23.0621,
      "duration": 0.6131,
      "velocity": 109,
      "chip": "ym2612"
    },
    {
      "channel": 2,
      "note": 31,
      "start": 23.0629,
      "duration": 0.0959,
      "velocity": 116,
      "chip": "ym2612"
    },
    {
      "channel": 3,
      "note": 78,
      "start": 23.1628,
      "duration": 0.0988,
      "velocity": 97,
      "chip": "ym2612"
    },
    {
      "channel": 4,
      "note": 73,
      "start": 23.1636,
      "duration": 0.3063,
      "velocity": 97,
      "chip": "ym2612"
    },
    {
      "channel": 2,
      "note": 72,
      "start": 23.1648,
      "duration": 0.0639,
      "velocity": 116,
      "chip": "ym2612"
    },
    {
      "channel": 3,
      "note": 82,
      "start": 23.2623,
      "duration": 0.1044,
      "velocity": 97,
      "chip": "ym2612"
    },
    {
      "channel": 1,
      "note": 51,
      "start": 23.3665,
      "duration": 0.1018,
      "velocity": 97,
      "chip": "ym2612"
    },
    {
      "channel": 2,
      "note": 30,
      "start": 23.3684,
      "duration": 0.064,
      "velocity": 117,
      "chip": "ym2612"
    },
    {
      "channel": 0,
      "note": 84,
      "start": 23.4682,
      "duration": 0.0988,
      "velocity": 109,
      "chip": "ym2612"
    },
    {
      "channel": 1,
      "note": 63,
      "start": 23.469,
      "duration": 0.2037,
      "velocity": 97,
      "chip": "ym2612"
    },
    {
      "channel": 3,
      "note": 78,
      "start": 23.4698,
      "duration": 0.0983,
      "velocity": 97,
      "chip": "ym2612"
    },
    {
      "channel": 4,
      "note": 73,
      "start": 23.4705,
      "duration": 0.2039,
      "velocity": 97,
      "chip": "ym2612"
    },
    {
      "channel": 2,
      "note": 31,
      "start": 23.4716,
      "duration": 0.1226,
      "velocity": 116,
      "chip": "ym2612"
    },
    {
      "channel": 0,
      "note": 85,
      "start": 23.5677,
      "duration": 0.1041,
      "velocity": 109,
      "chip": "ym2612"
    },
    {
      "channel": 3,
      "note": 82,
      "start": 23.5688,
      "duration": 0.1048,
      "velocity": 97,
      "chip": "ym2612"
    },
    {
      "channel": 0,
      "note": 87,
      "start": 23.6726,
      "duration": 0.4073,
      "velocity": 109,
      "chip": "ym2612"
    },
    {
      "channel": 1,
      "note": 49,
      "start": 23.6733,
      "duration": 0.101,
      "velocity": 97,
      "chip": "ym2612"
    },
    {
      "channel": 3,
      "note": 80,
      "start": 23.6742,
      "duration": 0.1004,
      "velocity": 97,
      "chip": "ym2612"
    },
    {
      "channel": 4,
      "note": 75,
      "start": 23.675,
      "duration": 0.3042,
      "velocity": 97,
      "chip": "ym2612"
    },
    {
      "channel": 5,
      "note": 84,
      "start": 23.6757,
      "duration": 0.1,
      "velocity": 109,
      "chip": "ym2612"
    },
    {
      "channel": 2,
      "note": 30,
      "start": 23.6766,
      "duration": 0.0622,
      "velocity": 117,
      "chip": "ym2612"
    },
    {
      "channel": 3,
      "note": 84,
      "start": 23.7752,
      "duration": 0.102,
      "velocity": 97,
      "chip": "ym2612"
    },
    {
      "channel": 5,
      "note": 85,
      "start": 23.7763,
      "duration": 0.1015,
      "velocity": 109,
      "chip": "ym2612"
    },
    {
      "channel": 2,
      "note": 31,
      "start": 23.7771,
      "duration": 0.0449,
      "velocity": 116,
      "chip": "ym2612"
    },
    {
      "channel": 2,
      "note": 31,
      "start": 23.8271,
      "duration": 0.0461,
      "velocity": 116,
      "chip": "ym2612"
    },
    {
      "channel": 1,
      "note": 61,
      "start": 23.877,
      "duration": 0.2036,
      "velocity": 97,
      "chip": "ym2612"
    },
    {
      "channel": 5,
      "note": 87,
      "start": 23.8785,
      "duration": 0.408,
      "velocity": 109,
      "chip": "ym2612"
    },
    {
      "channel": 2,
      "note": 31,
      "start": 23.8793,
      "duration": 0.0957,
      "velocity": 116,
      "chip": "ym2612"
    },
    {
      "channel": 3,
      "note": 80,
      "start": 23.979,
      "duration": 0.1019,
      "velocity": 97,
      "chip": "ym2612"
    },
    {
      "channel": 4,
      "note": 75,
      "start": 23.9798,
      "duration": 0.3059,
      "velocity": 97,
      "chip": "ym2612"
    },
    {
      "channel": 2,
      "note": 31,
      "start": 23.9809,
      "duration": 0.0961,
      "velocity": 116,
      "chip": "ym2612"
    },
    {
      "channel": 0,
      "note": 92,
      "start": 24.0805,
      "duration": 0.4077,
      "velocity": 109,
      "chip": "ym2612"
    },
    {
      "channel": 3,
      "note": 84,
      "start": 24.0815,
      "duration": 0.1014,
      "velocity": 97,
      "chip": "ym2612"
    },
    {
      "channel": 2,
      "note": 31,
      "start": 24.083,
      "duration": 0.0961,
      "velocity": 116,
      "chip": "ym2612"
    },
    {
      "channel": 1,
      "note": 49,
      "start": 24.1828,
      "duration": 0.1014,
      "velocity": 97,
      "chip": "ym2612"
    },
    {
      "channel": 2,
      "note": 31,
      "start": 24.1846,
      "duration": 0.0964,
      "velocity": 116,
      "chip": "ym2612"
    },
    {
      "channel": 1,
      "note": 61,
      "start": 24.2848,
      "duration": 0.2043,
      "velocity": 97,
      "chip": "ym2612"
    },
    {
      "channel": 3,
      "note": 80,
      "start": 24.2855,
      "duration": 0.101,
      "velocity": 97,
      "chip": "ym2612"
    },
    {
      "channel": 4,
      "note": 75,
      "start": 24.2863,
      "duration": 0.2044,
      "velocity": 97,
      "chip": "ym2612"
    },
    {
      "channel": 5,
      "note": 92,
      "start": 24.2871,
      "duration": 0.4055,
      "velocity": 109,
      "chip": "ym2612"
    },
    {
      "channel": 2,
      "note": 31,
      "start": 24.2878,
      "duration": 0.0953,
      "velocity": 116,
      "chip": "ym2612"
    },
    {
      "channel": 3,
      "note": 84,
      "start": 24.3872,
      "duration": 0.1027,
      "velocity": 97,
      "chip": "ym2612"
    },
    {
      "channel": 2,
      "note": 31,
      "start": 24.3887,
      "duration": 0.0967,
      "velocity": 116,
      "chip": "ym2612"
    },
    {
      "channel": 0,
      "note": 90,
      "start": 24.4888,
      "duration": 0.1014,
      "velocity": 109,
      "chip": "ym2612"
    },
    {
      "channel": 1,
      "note": 59,
      "start": 24.4898,
      "duration": 0.1007,
      "velocity": 97,
      "chip": "ym2612"
    },
    {
      "channel": 3,
      "note": 85,
      "start": 24.4906,
      "duration": 0.1002,
      "velocity": 97,
      "chip": "ym2612"
    },
    {
      "channel": 4,
      "note": 82,
      "start": 24.4914,
      "duration": 0.0997,
      "velocity": 97,
      "chip": "ym2612"
    },
    {
      "channel": 2,
      "note": 31,
      "start": 24.4925,
      "duration": 0.0946,
      "velocity": 116,
      "chip": "ym2612"
    },
    {
      "channel": 2,
      "note": 30,
      "start": 24.5925,
      "duration": 0.0637,
      "velocity": 117,
      "chip": "ym2612"
    },
    {
      "channel": 5,
      "note": 90,
      "start": 24.6932,
      "duration": 0.1038,
      "velocity": 109,
      "chip": "ym2612"
    },
    {
      "channel": 2,
      "note": 30,
      "start": 24.6941,
      "duration": 0.0639,
      "velocity": 117,
      "chip": "ym2612"
    },
    {
      "channel": 0,
      "note": 90,
      "start": 24.7946,
      "duration": 1.1216,
      "velocity": 109,
      "chip": "ym2612"
    },
    {
      "channel": 1,
      "note": 59,
      "start": 24.7953,
      "duration": 1.3259,
      "velocity": 97,
      "chip": "ym2612"
    },
    {
      "channel": 3,
      "note": 85,
      "start": 24.7961,
      "duration": 1.3259,
      "velocity": 97,
      "chip": "ym2612"
    },
    {
      "channel": 4,
      "note": 82,
      "start": 24.7969,
      "duration": 1.3261,
      "velocity": 97,
      "chip": "ym2612"
    },
    {
      "channel": 2,
      "note": 31,
      "start": 24.798,
      "duration": 0.1222,
      "velocity": 116,
      "chip": "ym2612"
    },
    {
      "channel": 5,
      "note": 90,
      "start": 24.9974,
      "duration": 1.1263,
      "velocity": 109,
      "chip": "ym2612"
    },
    {
      "channel": 2,
      "note": 72,
      "start": 25.2045,
      "duration": 0.0646,
      "velocity": 116,
      "chip": "ym2612"
    },
    {
      "channel": 2,
      "note": 30,
      "start": 25.4087,
      "duration": 0.0646,
      "velocity": 117,
      "chip": "ym2612"
    },
    {
      "channel": 2,
      "note": 72,
      "start": 25.6126,
      "duration": 0.0646,
      "velocity": 116,
      "chip": "ym2612"
    },
    {
      "channel": 2,
      "note": 30,
      "start": 25.8166,
      "duration": 0.0647,
      "velocity": 117,
      "chip": "ym2612"
    },
    {
      "channel": 0,
      "note": 92,
      "start": 25.9168,
      "duration": 0.0992,
      "velocity": 109,
      "chip": "ym2612"
    },
    {
      "channel": 2,
      "note": 31,
      "start": 25.919,
      "duration": 0.1238,
      "velocity": 116,
      "chip": "ym2612"
    },
    {
      "channel": 0,
      "note": 90,
      "start": 26.0167,
      "duration": 0.1038,
      "velocity": 109,
      "chip": "ym2612"
    },
    {
      "channel": 0,
      "note": 89,
      "start": 26.1211,
      "duration": 1.6319,
      "velocity": 109,
      "chip": "ym2612"
    },
    {
      "channel": 1,
      "note": 58,
      "start": 26.1218,
      "duration": 0.3049,
      "velocity": 97,
      "chip": "ym2612"
    },
    {
      "channel": 3,
      "note": 68,
      "start": 26.1228,
      "duration": 0.3047,
      "velocity": 97,
      "chip": "ym2612"
    },
    {
      "channel": 4,
      "note": 72,
      "start": 26.1235,
      "duration": 0.3046,
      "velocity": 97,
      "chip": "ym2612"
    },
    {
      "channel": 5,
      "note": 92,
      "start": 26.1244,
      "duration": 0.0996,
      "velocity": 109,
      "chip": "ym2612"
    },
    {
      "channel": 2,
      "note": 30,
      "start": 26.1252,
      "duration": 0.0621,
      "velocity": 117,
      "chip": "ym2612"
    },
    {
      "channel": 5,
      "note": 90,
      "start": 26.2245,
      "duration": 0.1014,
      "velocity": 109,
      "chip": "ym2612"
    },
    {
      "channel": 2,
      "note": 72,
      "start": 26.2254,
      "duration": 0.0641,
      "velocity": 116,
      "chip": "ym2612"
    },
    {
      "channel": 5,
      "note": 89,
      "start": 26.3266,
      "duration": 1.6317,
      "velocity": 109,
      "chip": "ym2612"
    },
    {
      "channel": 2,
      "note": 72,
      "start": 26.3274,
      "duration": 0.0639,
      "velocity": 116,
      "chip": "ym2612"
    },
    {
      "channel": 1,
      "note": 70,
      "start": 26.4273,
      "duration": 0.3055,
      "velocity": 97,
      "chip": "ym2612"
    },
    {
      "channel": 3,
      "note": 72,
      "start": 26.428,
      "duration": 0.3055,
      "velocity": 97,
      "chip": "ym2612"
    },
    {
      "channel": 4,
      "note": 75,
      "start": 26.4288,
      "duration": 0.3055,
      "velocity": 97,
      "chip": "ym2612"
    },
    {
      "channel": 2,
      "note": 31,
      "start": 26.4299,
      "duration": 0.123,
      "velocity": 116,
      "chip": "ym2612"
    },
    {
      "channel": 1,
      "note": 65,
      "start": 26.7334,
      "duration": 0.3057,
      "velocity": 97,
      "chip": "ym2612"
    },
    {
      "channel": 3,
      "note": 75,
      "start": 26.7341,
      "duration": 1.0205,
      "velocity": 97,
      "chip": "ym2612"
    },
    {
      "channel": 4,
      "note": 80,
      "start": 26.7349,
      "duration": 1.0205,
      "velocity": 97,
      "chip": "ym2612"
    },
    {
      "channel": 2,
      "note": 30,
      "start": 26.7361,
      "duration": 0.0634,
      "velocity": 117,
      "chip": "ym2612"
    },
    {
      "channel": 1,
      "note": 68,
      "start": 27.0396,
      "duration": 0.3053,
      "velocity": 97,
      "chip": "ym2612"
    },
    {
      "channel": 2,
      "note": 30,
      "start": 27.0415,
      "duration": 0.0642,
      "velocity": 117,
      "chip": "ym2612"
    },
    {
      "channel": 1,
      "note": 63,
      "start": 27.3455,
      "duration": 0.1014,
      "velocity": 97,
      "chip": "ym2612"
    },
    {
      "channel": 2,
      "note": 31,
      "start": 27.3473,
      "duration": 0.0964,
      "velocity": 116,
      "chip": "ym2612"
    },
    {
      "channel": 1,
      "note": 65,
      "start": 27.4474,
      "duration": 0.0993,
      "velocity": 97,
      "chip": "ym2612"
    },
    {
      "channel": 2,
      "note": 72,
      "start": 27.4493,
      "duration": 0.0642,
      "velocity": 116,
      "chip": "ym2612"
    },
    {
      "channel": 1,
      "note": 68,
      "start": 27.5473,
      "duration": 0.2066,
      "velocity": 97,
      "chip": "ym2612"
    },
    {
      "channel": 0,
      "note": 89,
      "start": 27.7536,
      "duration": 1.0167,
      "velocity": 109,
      "chip": "ym2612"
    },
    {
      "channel": 1,
      "note": 58,
      "start": 27.7544,
      "duration": 0.3049,
      "velocity": 97,
      "chip": "ym2612"
    },
    {
      "channel": 3,
      "note": 68,
      "start": 27.7552,
      "duration": 0.3049,
      "velocity": 97,
      "chip": "ym2612"
    },
    {
      "channel": 4,
      "note": 72,
      "start": 27.7562,
      "duration": 0.3046,
      "velocity": 97,
      "chip": "ym2612"
    },
    {
      "channel": 2,
      "note": 30,
      "start": 27.7574,
      "duration": 0.0623,
      "velocity": 117,
      "chip": "ym2612"
    },
    {
      "channel": 2,
      "note": 72,
      "start": 27.8574,
      "duration": 0.0644,
      "velocity": 116,
      "chip": "ym2612"
    },
    {
      "channel": 5,
      "note": 89,
      "start": 27.959,
      "duration": 1.0202,
      "velocity": 109,
      "chip": "ym2612"
    },
    {
      "channel": 2,
      "note": 72,
      "start": 27.9598,
      "duration": 0.0641,
      "velocity": 116,
      "chip": "ym2612"
    },
    {
      "channel": 1,
      "note": 70,
      "start": 28.06,
      "duration": 0.3052,
      "velocity": 97,
      "chip": "ym2612"
    },
    {
      "channel": 3,
      "note": 72,
      "start": 28.0607,
      "duration": 0.3052,
      "velocity": 97,
      "chip": "ym2612"
    },
    {
      "channel": 4,
      "note": 75,
      "start": 28.0614,
      "duration": 0.3052,
      "velocity": 97,
      "chip": "ym2612"
    },
    {
      "channel": 2,
      "note": 31,
      "start": 28.0626,
      "duration": 0.1226,
      "velocity": 116,
      "chip": "ym2612"
    },
    {
      "channel": 1,
      "note": 65,
      "start": 28.3658,
      "duration": 0.3054,
      "velocity": 97,
      "chip": "ym2612"
    },
    {
      "channel": 3,
      "note": 75,
      "start": 28.3665,
      "duration": 1.0203,
      "velocity": 97,
      "chip": "ym2612"
    },
    {
      "channel": 4,
      "note": 80,
      "start": 28.3673,
      "duration": 1.0204,
      "velocity": 97,
      "chip": "ym2612"
    },
    {
      "channel": 2,
      "note": 30,
      "start": 28.3684,
      "duration": 0.0634,
      "velocity": 117,
      "chip": "ym2612"
    },
    {
      "channel": 1,
      "note": 68,
      "start": 28.6717,
      "duration": 0.3059,
      "velocity": 97,
      "chip": "ym2612"
    },
    {
      "channel": 2,
      "note": 30,
      "start": 28.6738,
      "duration": 0.0641,
      "velocity": 117,
      "chip": "ym2612"
    },
    {
      "channel": 0,
      "note": 87,
      "start": 28.7709,
      "duration": 0.206,
      "velocity": 109,
      "chip": "ym2612"
    },
    {
      "channel": 0,
      "note": 86,
      "start": 28.9775,
      "duration": 0.2013,
      "velocity": 109,
      "chip": "ym2612"
    },
    {
      "channel": 1,
      "note": 63,
      "start": 28.9783,
      "duration": 0.101,
      "velocity": 97,
      "chip": "ym2612"
    },
    {
      "channel": 5,
      "note": 87,
      "start": 28.9798,
      "duration": 0.2012,
      "velocity": 109,
      "chip": "ym2612"
    },
    {
      "channel": 2,
      "note": 31,
      "start": 28.9805,
      "duration": 0.0957,
      "velocity": 116,
      "chip": "ym2612"
    },
    {
      "channel": 1,
      "note": 65,
      "start": 29.0799,
      "duration": 0.0997,
      "velocity": 97,
      "chip": "ym2612"
    },
    {
      "channel": 2,
      "note": 72,
      "start": 29.0818,
      "duration": 0.0642,
      "velocity": 116,
      "chip": "ym2612"
    },
    {
      "channel": 0,
      "note": 87,
      "start": 29.1794,
      "duration": 0.2059,
      "velocity": 109,
      "chip": "ym2612"
    },
    {
      "channel": 1,
      "note": 68,
      "start": 29.1801,
      "duration": 0.206,
      "velocity": 97,
      "chip": "ym2612"
    },
    {
      "channel": 5,
      "note": 86,
      "start": 29.1816,
      "duration": 0.2068,
      "velocity": 109,
      "chip": "ym2612"
    },
    {
      "channel": 0,
      "note": 86,
      "start": 29.3859,
      "duration": 0.3054,
      "velocity": 109,
      "chip": "ym2612"
    },
    {
      "channel": 1,
      "note": 58,
      "start": 29.3867,
      "duration": 0.3054,
      "velocity": 97,
      "chip": "ym2612"
    },
    {
      "channel": 3,
      "note": 70,
      "start": 29.3875,
      "duration": 0.3053,
      "velocity": 97,
      "chip": "ym2612"
    },
    {
      "channel": 4,
      "note": 74,
      "start": 29.3882,
      "duration": 0.3054,
      "velocity": 97,
      "chip": "ym2612"
    },
    {
      "channel": 5,
      "note": 87,
      "start": 29.3892,
      "duration": 0.2015,
      "velocity": 109,
      "chip": "ym2612"
    },
    {
      "channel": 2,
      "note": 30,
      "start": 29.3901,
      "duration": 0.062,
      "velocity": 117,
      "chip": "ym2612"
    },
    {
      "channel": 2,
      "note": 72,
      "start": 29.4898,
      "duration": 0.0644,
      "velocity": 116,
      "chip": "ym2612"
    },
    {
      "channel": 5,
      "note": 86,
      "start": 29.5913,
      "duration": 0.3025,
      "velocity": 109,
      "chip": "ym2612"
    },
    {
      "channel": 2,
      "note": 72,
      "start": 29.5922,
      "duration": 0.0641,
      "velocity": 116,
      "chip": "ym2612"
    },
    {
      "channel": 0,
      "note": 82,
      "start": 29.6919,
      "duration": 1.7311,
      "velocity": 109,
      "chip": "ym2612"
    },
    {
      "channel": 1,
      "note": 70,
      "start": 29.6927,
      "duration": 0.3048,
      "velocity": 97,
      "chip": "ym2612"
    },
    {
      "channel": 3,
      "note": 74,
      "start": 29.6934,
      "duration": 0.3048,
      "velocity": 97,
      "chip": "ym2612"
    },
    {
      "channel": 4,
      "note": 77,
      "start": 29.6941,
      "duration": 0.3048,
      "velocity": 97,
      "chip": "ym2612"
    },
    {
      "channel": 2,
      "note": 31,
      "start": 29.6953,
      "duration": 0.1224,
      "velocity": 116,
      "chip": "ym2612"
    },
    {
      "channel": 5,
      "note": 82,
      "start": 29.8944,
      "duration": 1.7381,
      "velocity": 109,
      "chip": "ym2612"
    },
    {
      "channel": 1,
      "note": 65,
      "start": 29.9981,
      "duration": 0.3055,
      "velocity": 97,
      "chip": "ym2612"
    },
    {
      "channel": 3,
      "note": 77,
      "start": 29.9988,
      "duration": 1.0201,
      "velocity": 97,
      "chip": "ym2612"
    },
    {
      "channel": 4,
      "note": 82,
      "start": 29.9996,
      "duration": 1.0201,
      "velocity": 97,
      "chip": "ym2612"
    },
    {
      "channel": 2,
      "note": 30,
      "start": 30.0007,
      "duration": 0.0634,
      "velocity": 117,
      "chip": "ym2612"
    },
    {
      "channel": 1,
      "note": 68,
      "start": 30.3042,
      "duration": 0.3054,
      "velocity": 97,
      "chip": "ym2612"
    },
    {
      "channel": 2,
      "note": 30,
      "start": 30.3063,
      "duration": 0.0639,
      "velocity": 117,
      "chip": "ym2612"
    },
    {
      "channel": 1,
      "note": 63,
      "start": 30.6102,
      "duration": 0.1015,
      "velocity": 97,
      "chip": "ym2612"
    },
    {
      "channel": 2,
      "note": 31,
      "start": 30.6121,
      "duration": 0.0964,
      "velocity": 116,
      "chip": "ym2612"
    },
    {
      "channel": 1,
      "note": 65,
      "start": 30.7123,
      "duration": 0.0992,
      "velocity": 97,
      "chip": "ym2612"
    },
    {
      "channel": 2,
      "note": 72,
      "start": 30.7142,
      "duration": 0.0642,
      "velocity": 116,
      "chip": "ym2612"
    },
    {
      "channel": 1,
      "note": 68,
      "start": 30.8121,
      "duration": 0.2061,
      "velocity": 97,
      "chip": "ym2612"
    },
    {
      "channel": 1,
      "note": 58,
      "start": 31.0188,
      "duration": 0.3053,
      "velocity": 97,
      "chip": "ym2612"
    },
    {
      "channel": 3,
      "note": 70,
      "start": 31.0195,
      "duration": 0.3053,
      "velocity": 97,
      "chip": "ym2612"
    },
    {
      "channel": 4,
      "note": 74,
      "start": 31.0203,
      "duration": 0.3053,
      "velocity": 97,
      "chip": "ym2612"
    },
    {
      "channel": 2,
      "note": 30,
      "start": 31.0215,
      "duration": 0.063,
      "velocity": 117,
      "chip": "ym2612"
    },
    {
      "channel": 2,
      "note": 72,
      "start": 31.1219,
      "duration": 0.0646,
      "velocity": 116,
      "chip": "ym2612"
    },
    {
      "channel": 2,
      "note": 72,
      "start": 31.2241,
      "duration": 0.0644,
      "velocity": 116,
      "chip": "ym2612"
    },
    {
      "channel": 1,
      "note": 70,
      "start": 31.3247,
      "duration": 0.3056,
      "velocity": 97,
      "chip": "ym2612"
    },
    {
      "channel": 3,
      "note": 74,
      "start": 31.3254,
      "duration": 0.3056,
      "velocity": 97,
      "chip": "ym2612"
    },
    {
      "channel": 4,
      "note": 77,
      "start": 31.3261,
      "duration": 0.3057,
      "velocity": 97,
      "chip": "ym2612"
    },
    {
      "channel": 2,
      "note": 31,
      "start": 31.3273,
      "duration": 0.1225,
      "velocity": 116,
      "chip": "ym2612"
    },
    {
      "channel": 0,
      "note": 82,
      "start": 31.5255,
      "duration": 0.104,
      "velocity": 109,
      "chip": "ym2612"
    },
    {
      "channel": 0,
      "note": 84,
      "start": 31.6301,
      "duration": 0.0988,
      "velocity": 109,
      "chip": "ym2612"
    },
    {
      "channel": 1,
      "note": 65,
      "start": 31.6308,
      "duration": 0.3055,
      "velocity": 97,
      "chip": "ym2612"
    },
    {
      "channel": 3,
      "note": 77,
      "start": 31.6316,
      "duration": 1.0201,
      "velocity": 97,
      "chip": "ym2612"
    },
    {
      "channel": 4,
      "note": 82,
      "start": 31.6324,
      "duration": 1.0202,
      "velocity": 97,
      "chip": "ym2612"
    },
    {
      "channel": 2,
      "note": 30,
      "start": 31.6335,
      "duration": 0.0628,
      "velocity": 117,
      "chip": "ym2612"
    },
    {
      "channel": 0,
      "note": 86,
      "start": 31.7296,
      "duration": 0.1013,
      "velocity": 109,
      "chip": "ym2612"
    },
    {
      "channel": 5,
      "note": 82,
      "start": 31.7313,
      "duration": 0.1013,
      "velocity": 109,
      "chip": "ym2612"
    },
    {
      "channel": 0,
      "note": 87,
      "start": 31.8315,
      "duration": 0.1041,
      "velocity": 109,
      "chip": "ym2612"
    },
    {
      "channel": 5,
      "note": 84,
      "start": 31.8333,
      "duration": 0.1045,
      "velocity": 109,
      "chip": "ym2612"
    },
    {
      "channel": 0,
      "note": 84,
      "start": 31.9362,
      "duration": 0.0987,
      "velocity": 109,
      "chip": "ym2612"
    },
    {
      "channel": 1,
      "note": 68,
      "start": 31.9369,
      "duration": 0.3057,
      "velocity": 97,
      "chip": "ym2612"
    },
    {
      "channel": 5,
      "note": 86,
      "start": 31.9384,
      "duration": 0.0983,
      "velocity": 109,
      "chip": "ym2612"
    },
    {
      "channel": 2,
      "note": 30,
      "start": 31.9394,
      "duration": 0.0632,
      "velocity": 117,
      "chip": "ym2612"
    },
    {
      "channel": 0,
      "note": 86,
      "start": 32.0356,
      "duration": 0.1014,
      "velocity": 109,
      "chip": "ym2612"
    },
    {
      "channel": 5,
      "note": 87,
      "start": 32.0374,
      "duration": 0.1015,
      "velocity": 109,
      "chip": "ym2612"
    },
    {
      "channel": 0,
      "note": 87,
      "start": 32.1376,
      "duration": 0.1043,
      "velocity": 109,
      "chip": "ym2612"
    },
    {
      "channel": 5,
      "note": 84,
      "start": 32.1396,
      "duration": 0.1045,
      "velocity": 109,
      "chip": "ym2612"
    },
    {
      "channel": 0,
      "note": 89,
      "start": 32.2425,
      "duration": 0.1012,
      "velocity": 109,
      "chip": "ym2612"
    },
    {
      "channel": 1,
      "note": 63,
      "start": 32.2433,
      "duration": 0.1011,
      "velocity": 97,
      "chip": "ym2612"
    },
    {
      "channel": 5,
      "note": 86,
      "start": 32.2448,
      "duration": 0.1011,
      "velocity": 109,
      "chip": "ym2612"
    },
    {
      "channel": 2,
      "note": 31,
      "start": 32.2455,
      "duration": 0.0954,
      "velocity": 116,
      "chip": "ym2612"
    },
    {
      "channel": 0,
      "note": 87,
      "start": 32.3443,
      "duration": 0.1014,
      "velocity": 109,
      "chip": "ym2612"
    },
    {
      "channel": 1,
      "note": 65,
      "start": 32.345,
      "duration": 0.1015,
      "velocity": 97,
      "chip": "ym2612"
    },
    {
      "channel": 5,
      "note": 87,
      "start": 32.3465,
      "duration": 0.1015,
      "velocity": 109,
      "chip": "ym2612"
    },
    {
      "channel": 2,
      "note": 31,
      "start": 32.3473,
      "duration": 0.0957,
      "velocity": 116,
      "chip": "ym2612"
    },
    {
      "channel": 0,
      "note": 89,
      "start": 32.4463,
      "duration": 0.0993,
      "velocity": 109,
      "chip": "ym2612"
    },
    {
      "channel": 1,
      "note": 68,
      "start": 32.4471,
      "duration": 0.2038,
      "velocity": 97,
      "chip": "ym2612"
    },
    {
      "channel": 5,
      "note": 89,
      "start": 32.4485,
      "duration": 0.0988,
      "velocity": 109,
      "chip": "ym2612"
    },
    {
      "channel": 2,
      "note": 30,
      "start": 32.4493,
      "duration": 0.0635,
      "velocity": 117,
      "chip": "ym2612"
    },
    {
      "channel": 0,
      "note": 91,
      "start": 32.5462,
      "duration": 0.1039,
      "velocity": 109,
      "chip": "ym2612"
    },
    {
      "channel": 5,
      "note": 87,
      "start": 32.5479,
      "duration": 0.1054,
      "velocity": 109,
      "chip": "ym2612"
    },
    {
      "channel": 0,
      "note": 92,
      "start": 32.6506,
      "duration": 1.6318,
      "velocity": 109,
      "chip": "ym2612"
    },
    {
      "channel": 1,
      "note": 58,
      "start": 32.6515,
      "duration": 0.305,
      "velocity": 97,
      "chip": "ym2612"
    },
    {
      "channel": 3,
      "note": 68,
      "start": 32.6523,
      "duration": 0.3048,
      "velocity": 97,
      "chip": "ym2612"
    },
    {
      "channel": 4,
      "note": 72,
      "start": 32.6532,
      "duration": 0.3048,
      "velocity": 97,
      "chip": "ym2612"
    },
    {
      "channel": 5,
      "note": 89,
      "start": 32.6539,
      "duration": 0.0993,
      "velocity": 109,
      "chip": "ym2612"
    },
    {
      "channel": 2,
      "note": 30,
      "start": 32.6548,
      "duration": 0.062,
      "velocity": 117,
      "chip": "ym2612"
    },
    {
      "channel": 5,
      "note": 91,
      "start": 32.7539,
      "duration": 0.1013,
      "velocity": 109,
      "chip": "ym2612"
    },
    {
      "channel": 2,
      "note": 72,
      "start": 32.7547,
      "duration": 0.0642,
      "velocity": 116,
      "chip": "ym2612"
    },
    {
      "channel": 5,
      "note": 92,
      "start": 32.856,
      "duration": 1.6315,
      "velocity": 109,
      "chip": "ym2612"
    },
    {
      "channel": 2,
      "note": 72,
      "start": 32.8568,
      "duration": 0.0641,
      "velocity": 116,
      "chip": "ym2612"
    },
    {
      "channel": 1,
      "note": 70,
      "start": 32.9571,
      "duration": 0.3052,
      "velocity": 97,
      "chip": "ym2612"
    },
    {
      "channel": 3,
      "note": 72,
      "start": 32.9578,
      "duration": 0.3052,
      "velocity": 97,
      "chip": "ym2612"
    },
    {
      "channel": 4,
      "note": 75,
      "start": 32.9585,
      "duration": 0.3052,
      "velocity": 97,
      "chip": "ym2612"
    },
    {
      "channel": 2,
      "note": 31,
      "start": 32.9597,
      "duration": 0.1227,
      "velocity": 116,
      "chip": "ym2612"
    },
    {
      "channel": 1,
      "note": 65,
      "start": 33.2628,
      "duration": 0.3055,
      "velocity": 97,
      "chip": "ym2612"
    },
    {
      "channel": 3,
      "note": 75,
      "start": 33.2636,
      "duration": 1.0204,
      "velocity": 97,
      "chip": "ym2612"
    },
    {
      "channel": 4,
      "note": 80,
      "start": 33.2644,
      "duration": 1.0204,
      "velocity": 97,
      "chip": "ym2612"
    },
    {
      "channel": 2,
      "note": 30,
      "start": 33.2655,
      "duration": 0.0635,
      "velocity": 117,
      "chip": "ym2612"
    },
    {
      "channel": 1,
      "note": 68,
      "start": 33.5689,
      "duration": 0.3057,
      "velocity": 97,
      "chip": "ym2612"
    },
    {
      "channel": 2,
      "note": 30,
      "start": 33.5708,
      "duration": 0.0641,
      "velocity": 117,
      "chip": "ym2612"
    },
    {
      "channel": 1,
      "note": 63,
      "start": 33.8752,
      "duration": 0.1011,
      "velocity": 97,
      "chip": "ym2612"
    },
    {
      "channel": 2,
      "note": 31,
      "start": 33.8771,
      "duration": 0.0962,
      "velocity": 116,
      "chip": "ym2612"
    },
    {
      "channel": 1,
      "note": 65,
      "start": 33.977,
      "duration": 0.0992,
      "velocity": 97,
      "chip": "ym2612"
    },
    {
      "channel": 2,
      "note": 72,
      "start": 33.9789,
      "duration": 0.0642,
      "velocity": 116,
      "chip": "ym2612"
    },
    {
      "channel": 1,
      "note": 68,
      "start": 34.0768,
      "duration": 0.2065,
      "velocity": 97,
      "chip": "ym2612"
    },
    {
      "channel": 0,
      "note": 92,
      "start": 34.2831,
      "duration": 0.6113,
      "velocity": 109,
      "chip": "ym2612"
    },
    {
      "channel": 1,
      "note": 58,
      "start": 34.2839,
      "duration": 0.3046,
      "velocity": 97,
      "chip": "ym2612"
    },
    {
      "channel": 3,
      "note": 68,
      "start": 34.2846,
      "duration": 0.3048,
      "velocity": 97,
      "chip": "ym2612"
    },
    {
      "channel": 4,
      "note": 72,
      "start": 34.2854,
      "duration": 0.3048,
      "velocity": 97,
      "chip": "ym2612"
    },
    {
      "channel": 2,
      "note": 30,
      "start": 34.2866,
      "duration": 0.0627,
      "velocity": 117,
      "chip": "ym2612"
    },
    {
      "channel": 2,
      "note": 72,
      "start": 34.3866,
      "duration": 0.0646,
      "velocity": 116,
      "chip": "ym2612"
    },
    {
      "channel": 5,
      "note": 92,
      "start": 34.4882,
      "duration": 0.6093,
      "velocity": 109,
      "chip": "ym2612"
    },
    {
      "channel": 2,
      "note": 72,
      "start": 34.4893,
      "duration": 0.064,
      "velocity": 116,
      "chip": "ym2612"
    },
    {
      "channel": 1,
      "note": 70,
      "start": 34.5894,
      "duration": 0.3057,
      "velocity": 97,
      "chip": "ym2612"
    },
    {
      "channel": 3,
      "note": 72,
      "start": 34.5901,
      "duration": 0.3057,
      "velocity": 97,
      "chip": "ym2612"
    },
    {
      "channel": 4,
      "note": 75,
      "start": 34.5909,
      "duration": 0.3057,
      "velocity": 97,
      "chip": "ym2612"
    },
    {
      "channel": 2,
      "note": 31,
      "start": 34.592,
      "duration": 0.1227,
      "velocity": 116,
      "chip": "ym2612"
    },
    {
      "channel": 0,
      "note": 92,
      "start": 34.8949,
      "duration": 0.0988,
      "velocity": 109,
      "chip": "ym2612"
    },
    {
      "channel": 1,
      "note": 65,
      "start": 34.8956,
      "duration": 0.3051,
      "velocity": 97,
      "chip": "ym2612"
    },
    {
      "channel": 3,
      "note": 75,
      "start": 34.8964,
      "duration": 1.0201,
      "velocity": 97,
      "chip": "ym2612"
    },
    {
      "channel": 4,
      "note": 80,
      "start": 34.8972,
      "duration": 1.0201,
      "velocity": 97,
      "chip": "ym2612"
    },
    {
      "channel": 2,
      "note": 30,
      "start": 34.8983,
      "duration": 0.063,
      "velocity": 117,
      "chip": "ym2612"
    },
    {
      "channel": 0,
      "note": 94,
      "start": 34.9943,
      "duration": 0.1014,
      "velocity": 109,
      "chip": "ym2612"
    },
    {
      "channel": 0,
      "note": 96,
      "start": 35.0963,
      "duration": 0.4104,
      "velocity": 109,
      "chip": "ym2612"
    },
    {
      "channel": 5,
      "note": 92,
      "start": 35.0981,
      "duration": 0.104,
      "velocity": 109,
      "chip": "ym2612"
    },
    {
      "channel": 1,
      "note": 68,
      "start": 35.2013,
      "duration": 0.3062,
      "velocity": 97,
      "chip": "ym2612"
    },
    {
      "channel": 5,
      "note": 94,
      "start": 35.2028,
      "duration": 0.0984,
      "velocity": 109,
      "chip": "ym2612"
    },
    {
      "channel": 2,
      "note": 30,
      "start": 35.2036,
      "duration": 0.0637,
      "velocity": 117,
      "chip": "ym2612"
    },
    {
      "channel": 5,
      "note": 96,
      "start": 35.3018,
      "duration": 0.4082,
      "velocity": 109,
      "chip": "ym2612"
    },
    {
      "channel": 0,
      "note": 92,
      "start": 35.5074,
      "duration": 0.4075,
      "velocity": 109,
      "chip": "ym2612"
    },
    {
      "channel": 1,
      "note": 63,
      "start": 35.5081,
      "duration": 0.101,
      "velocity": 97,
      "chip": "ym2612"
    },
    {
      "channel": 2,
      "note": 31,
      "start": 35.5099,
      "duration": 0.096,
      "velocity": 116,
      "chip": "ym2612"
    },
    {
      "channel": 1,
      "note": 65,
      "start": 35.6097,
      "duration": 0.0989,
      "velocity": 97,
      "chip": "ym2612"
    },
    {
      "channel": 2,
      "note": 72,
      "start": 35.6116,
      "duration": 0.0639,
      "velocity": 116,
      "chip": "ym2612"
    },
    {
      "channel": 1,
      "note": 68,
      "start": 35.7091,
      "duration": 0.2066,
      "velocity": 97,
      "chip": "ym2612"
    },
    {
      "channel": 5,
      "note": 92,
      "start": 35.7106,
      "duration": 0.4093,
      "velocity": 109,
      "chip": "ym2612"
    },
    {
      "channel": 0,
      "note": 94,
      "start": 35.9155,
      "duration": 1.2233,
      "velocity": 109,
      "chip": "ym2612"
    },
    {
      "channel": 1,
      "note": 58,
      "start": 35.9163,
      "duration": 0.3046,
      "velocity": 97,
      "chip": "ym2612"
    },
    {
      "channel": 3,
      "note": 70,
      "start": 35.9171,
      "duration": 0.3046,
      "velocity": 97,
      "chip": "ym2612"
    },
    {
      "channel": 4,
      "note": 74,
      "start": 35.9179,
      "duration": 0.3048,
      "velocity": 97,
      "chip": "ym2612"
    },
    {
      "channel": 2,
      "note": 30,
      "start": 35.9191,
      "duration": 0.0625,
      "velocity": 117,
      "chip": "ym2612"
    },
    {
      "channel": 2,
      "note": 72,
      "start": 36.0191,
      "duration": 0.0646,
      "velocity": 116,
      "chip": "ym2612"
    },
    {
      "channel": 5,
      "note": 94,
      "start": 36.1206,
      "duration": 1.2219,
      "velocity": 109,
      "chip": "ym2612"
    },
    {
      "channel": 2,
      "note": 72,
      "start": 36.1215,
      "duration": 0.0641,
      "velocity": 116,
      "chip": "ym2612"
    },
    {
      "channel": 1,
      "note": 70,
      "start": 36.2215,
      "duration": 0.3056,
      "velocity": 97,
      "chip": "ym2612"
    },
    {
      "channel": 3,
      "note": 74,
      "start": 36.2224,
      "duration": 0.3053,
      "velocity": 97,
      "chip": "ym2612"
    },
    {
      "channel": 4,
      "note": 77,
      "start": 36.2232,
      "duration": 0.3054,
      "velocity": 97,
      "chip": "ym2612"
    },
    {
      "channel": 2,
      "note": 31,
      "start": 36.2244,
      "duration": 0.1228,
      "velocity": 116,
      "chip": "ym2612"
    },
    {
      "channel": 1,
      "note": 65,
      "start": 36.5277,
      "duration": 0.3055,
      "velocity": 97,
      "chip": "ym2612"
    },
    {
      "channel": 3,
      "note": 77,
      "start": 36.5284,
      "duration": 1.0204,
      "velocity": 97,
      "chip": "ym2612"
    },
    {
      "channel": 4,
      "note": 82,
      "start": 36.5292,
      "duration": 1.0204,
      "velocity": 97,
      "chip": "ym2612"
    },
    {
      "channel": 2,
      "note": 30,
      "start": 36.5303,
      "duration": 0.0634,
      "velocity": 117,
      "chip": "ym2612"
    },
    {
      "channel": 1,
      "note": 68,
      "start": 36.8337,
      "duration": 0.3061,
      "velocity": 97,
      "chip": "ym2612"
    },
    {
      "channel": 2,
      "note": 30,
      "start": 36.8355,
      "duration": 0.0643,
      "velocity": 117,
      "chip": "ym2612"
    },
    {
      "channel": 0,
      "note": 87,
      "start": 37.1396,
      "duration": 0.4076,
      "velocity": 109,
      "chip": "ym2612"
    },
    {
      "channel": 1,
      "note": 63,
      "start": 37.1404,
      "duration": 0.1011,
      "velocity": 97,
      "chip": "ym2612"
    },
    {
      "channel": 2,
      "note": 31,
      "start": 37.1422,
      "duration": 0.0959,
      "velocity": 116,
      "chip": "ym2612"
    },
    {
      "channel": 1,
      "note": 65,
      "start": 37.242,
      "duration": 0.099,
      "velocity": 97,
      "chip": "ym2612"
    },
    {
      "channel": 2,
      "note": 72,
      "start": 37.2439,
      "duration": 0.064,
      "velocity": 116,
      "chip": "ym2612"
    },
    {
      "channel": 1,
      "note": 68,
      "start": 37.3417,
      "duration": 0.2064,
      "velocity": 97,
      "chip": "ym2612"
    },
    {
      "channel": 5,
      "note": 87,
      "start": 37.3431,
      "duration": 0.4092,
      "velocity": 109,
      "chip": "ym2612"
    },
    {
      "channel": 0,
      "note": 86,
      "start": 37.5478,
      "duration": 0.6112,
      "velocity": 109,
      "chip": "ym2612"
    },
    {
      "channel": 1,
      "note": 58,
      "start": 37.5486,
      "duration": 0.3047,
      "velocity": 97,
      "chip": "ym2612"
    },
    {
      "channel": 3,
      "note": 70,
      "start": 37.5494,
      "duration": 0.3047,
      "velocity": 97,
      "chip": "ym2612"
    },
    {
      "channel": 4,
      "note": 74,
      "start": 37.5502,
      "duration": 0.3046,
      "velocity": 97,
      "chip": "ym2612"
    },
    {
      "channel": 2,
      "note": 30,
      "start": 37.5513,
      "duration": 0.0627,
      "velocity": 117,
      "chip": "ym2612"
    },
    {
      "channel": 2,
      "note": 72,
      "start": 37.6514,
      "duration": 0.0646,
      "velocity": 116,
      "chip": "ym2612"
    },
    {
      "channel": 5,
      "note": 86,
      "start": 37.753,
      "duration": 0.6088,
      "velocity": 109,
      "chip": "ym2612"
    },
    {
      "channel": 2,
      "note": 72,
      "start": 37.7539,
      "duration": 0.0641,
      "velocity": 116,
      "chip": "ym2612"
    },
    {
      "channel": 1,
      "note": 70,
      "start": 37.8539,
      "duration": 0.3059,
      "velocity": 97,
      "chip": "ym2612"
    },
    {
      "channel": 3,
      "note": 74,
      "start": 37.8547,
      "duration": 0.3059,
      "velocity": 97,
      "chip": "ym2612"
    },
    {
      "channel": 4,
      "note": 77,
      "start": 37.8555,
      "duration": 0.3059,
      "velocity": 97,
      "chip": "ym2612"
    },
    {
      "channel": 2,
      "note": 31,
      "start": 37.8568,
      "duration": 0.1228,
      "velocity": 116,
      "chip": "ym2612"
    },
    {
      "channel": 0,
      "note": 82,
      "start": 38.1597,
      "duration": 0.8158,
      "velocity": 109,
      "chip": "ym2612"
    },
    {
      "channel": 1,
      "note": 65,
      "start": 38.1604,
      "duration": 0.305,
      "velocity": 97,
      "chip": "ym2612"
    },
    {
      "channel": 3,
      "note": 77,
      "start": 38.1612,
      "duration": 1.0201,
      "velocity": 97,
      "chip": "ym2612"
    },
    {
      "channel": 4,
      "note": 82,
      "start": 38.162,
      "duration": 1.0202,
      "velocity": 97,
      "chip": "ym2612"
    },
    {
      "channel": 2,
      "note": 30,
      "start": 38.1631,
      "duration": 0.063,
      "velocity": 117,
      "chip": "ym2612"
    },
    {
      "channel": 5,
      "note": 82,
      "start": 38.3624,
      "duration": 0.8205,
      "velocity": 109,
      "chip": "ym2612"
    },
    {
      "channel": 1,
      "note": 68,
      "start": 38.466,
      "duration": 0.3055,
      "velocity": 97,
      "chip": "ym2612"
    },
    {
      "channel": 2,
      "note": 30,
      "start": 38.4679,
      "duration": 0.0644,
      "velocity": 117,
      "chip": "ym2612"
    },
    {
      "channel": 1,
      "note": 63,
      "start": 38.7721,
      "duration": 0.1017,
      "velocity": 97,
      "chip": "ym2612"
    },
    {
      "channel": 2,
      "note": 31,
      "start": 38.7741,
      "duration": 0.0963,
      "velocity": 116,
      "chip": "ym2612"
    },
    {
      "channel": 1,
      "note": 65,
      "start": 38.8744,
      "duration": 0.1019,
      "velocity": 97,
      "chip": "ym2612"
    },
    {
      "channel": 2,
      "note": 72,
      "start": 38.8763,
      "duration": 0.0642,
      "velocity": 116,
      "chip": "ym2612"
    },
    {
      "channel": 0,
      "note": 82,
      "start": 38.9761,
      "duration": 0.1011,
      "velocity": 109,
      "chip": "ym2612"
    },
    {
      "channel": 1,
      "note": 68,
      "start": 38.9768,
      "duration": 0.2036,
      "velocity": 97,
      "chip": "ym2612"
    },
    {
      "channel": 2,
      "note": 31,
      "start": 38.9787,
      "duration": 0.0957,
      "velocity": 116,
      "chip": "ym2612"
    },
    {
      "channel": 0,
      "note": 84,
      "start": 39.0778,
      "duration": 0.1017,
      "velocity": 109,
      "chip": "ym2612"
    },
    {
      "channel": 2,
      "note": 31,
      "start": 39.08,
      "duration": 0.0967,
      "velocity": 116,
      "chip": "ym2612"
    },
    {
      "channel": 0,
      "note": 85,
      "start": 39.1801,
      "duration": 1.2235,
      "velocity": 109,
      "chip": "ym2612"
    },
    {
      "channel": 1,
      "note": 54,
      "start": 39.181,
      "duration": 0.1006,
      "velocity": 97,
      "chip": "ym2612"
    },
    {
      "channel": 3,
      "note": 77,
      "start": 39.1819,
      "duration": 1.6317,
      "velocity": 97,
      "chip": "ym2612"
    },
    {
      "channel": 4,
      "note": 73,
      "start": 39.1827,
      "duration": 1.6315,
      "velocity": 97,
      "chip": "ym2612"
    },
    {
      "channel": 5,
      "note": 82,
      "start": 39.1835,
      "duration": 0.0992,
      "velocity": 109,
      "chip": "ym2612"
    },
    {
      "channel": 2,
      "note": 30,
      "start": 39.1843,
      "duration": 0.062,
      "velocity": 117,
      "chip": "ym2612"
    },
    {
      "channel": 5,
      "note": 84,
      "start": 39.2833,
      "duration": 0.1019,
      "velocity": 109,
      "chip": "ym2612"
    },
    {
      "channel": 2,
      "note": 72,
      "start": 39.2841,
      "duration": 0.064,
      "velocity": 116,
      "chip": "ym2612"
    },
    {
      "channel": 1,
      "note": 66,
      "start": 39.3843,
      "duration": 0.2008,
      "velocity": 97,
      "chip": "ym2612"
    },
    {
      "channel": 5,
      "note": 85,
      "start": 39.3858,
      "duration": 1.2238,
      "velocity": 109,
      "chip": "ym2612"
    },
    {
      "channel": 2,
      "note": 31,
      "start": 39.3866,
      "duration": 0.0959,
      "velocity": 116,
      "chip": "ym2612"
    },
    {
      "channel": 2,
      "note": 72,
      "start": 39.4878,
      "duration": 0.0646,
      "velocity": 116,
      "chip": "ym2612"
    },
    {
      "channel": 1,
      "note": 54,
      "start": 39.6906,
      "duration": 0.1014,
      "velocity": 97,
      "chip": "ym2612"
    },
    {
      "channel": 2,
      "note": 30,
      "start": 39.6925,
      "duration": 0.0641,
      "velocity": 117,
      "chip": "ym2612"
    },
    {
      "channel": 1,
      "note": 66,
      "start": 39.7925,
      "duration": 0.2032,
      "velocity": 97,
      "chip": "ym2612"
    },
    {
      "channel": 2,
      "note": 31,
      "start": 39.7944,
      "duration": 0.1235,
      "velocity": 116,
      "chip": "ym2612"
    },
    {
      "channel": 2,
      "note": 72,
      "start": 39.9979,
      "duration": 0.0644,
      "velocity": 116,
      "chip": "ym2612"
    },
    {
      "channel": 1,
      "note": 54,
      "start": 40.0985,
      "duration": 0.1017,
      "velocity": 97,
      "chip": "ym2612"
    },
    {
      "channel": 2,
      "note": 30,
      "start": 40.1003,
      "duration": 0.0643,
      "velocity": 117,
      "chip": "ym2612"
    },
    {
      "channel": 1,
      "note": 66,
      "start": 40.2007,
      "duration": 0.2037,
      "velocity": 97,
      "chip": "ym2612"
    },
    {
      "channel": 2,
      "note": 31,
      "start": 40.2025,
      "duration": 0.1235,
      "velocity": 116,
      "chip": "ym2612"
    },
    {
      "channel": 0,
      "note": 87,
      "start": 40.4042,
      "duration": 0.4078,
      "velocity": 109,
      "chip": "ym2612"
    },
    {
      "channel": 1,
      "note": 54,
      "start": 40.4049,
      "duration": 0.0984,
      "velocity": 97,
      "chip": "ym2612"
    },
    {
      "channel": 2,
      "note": 30,
      "start": 40.4071,
      "duration": 0.0635,
      "velocity": 117,
      "chip": "ym2612"
    },
    {
      "channel": 1,
      "note": 66,
      "start": 40.6088,
      "duration": 0.204,
      "velocity": 97,
      "chip": "ym2612"
    },
    {
      "channel": 5,
      "note": 87,
      "start": 40.6102,
      "duration": 0.4073,
      "velocity": 109,
      "chip": "ym2612"
    },
    {
      "channel": 2,
      "note": 31,
      "start": 40.611,
      "duration": 0.1232,
      "velocity": 116,
      "chip": "ym2612"
    },
    {
      "channel": 0,
      "note": 85,
      "start": 40.8127,
      "duration": 0.4044,
      "velocity": 109,
      "chip": "ym2612"
    },
    {
      "channel": 1,
      "note": 56,
      "start": 40.8133,
      "duration": 0.1007,
      "velocity": 97,
      "chip": "ym2612"
    },
    {
      "channel": 3,
      "note": 77,
      "start": 40.8141,
      "duration": 1.6318,
      "velocity": 97,
      "chip": "ym2612"
    },
    {
      "channel": 4,
      "note": 75,
      "start": 40.8149,
      "duration": 1.6317,
      "velocity": 97,
      "chip": "ym2612"
    },
    {
      "channel": 2,
      "note": 30,
      "start": 40.816,
      "duration": 0.0627,
      "velocity": 117,
      "chip": "ym2612"
    },
    {
      "channel": 2,
      "note": 72,
      "start": 40.9161,
      "duration": 0.0642,
      "velocity": 116,
      "chip": "ym2612"
    },
    {
      "channel": 1,
      "note": 68,
      "start": 41.0166,
      "duration": 0.2012,
      "velocity": 97,
      "chip": "ym2612"
    },
    {
      "channel": 5,
      "note": 85,
      "start": 41.0181,
      "duration": 0.4077,
      "velocity": 109,
      "chip": "ym2612"
    },
    {
      "channel": 2,
      "note": 31,
      "start": 41.0189,
      "duration": 0.0961,
      "velocity": 116,
      "chip": "ym2612"
    },
    {
      "channel": 2,
      "note": 72,
      "start": 41.1202,
      "duration": 0.0646,
      "velocity": 116,
      "chip": "ym2612"
    },
    {
      "channel": 0,
      "note": 84,
      "start": 41.2177,
      "duration": 0.4102,
      "velocity": 109,
      "chip": "ym2612"
    },
    {
      "channel": 1,
      "note": 56,
      "start": 41.3229,
      "duration": 0.1014,
      "velocity": 97,
      "chip": "ym2612"
    },
    {
      "channel": 2,
      "note": 30,
      "start": 41.3249,
      "duration": 0.0639,
      "velocity": 117,
      "chip": "ym2612"
    },
    {
      "channel": 1,
      "note": 68,
      "start": 41.425,
      "duration": 0.2036,
      "velocity": 97,
      "chip": "ym2612"
    },
    {
      "channel": 5,
      "note": 84,
      "start": 41.4264,
      "duration": 0.4073,
      "velocity": 109,
      "chip": "ym2612"
    },
    {
      "channel": 2,
      "note": 31,
      "start": 41.4272,
      "duration": 0.1232,
      "velocity": 116,
      "chip": "ym2612"
    },
    {
      "channel": 0,
      "note": 80,
      "start": 41.6284,
      "duration": 0.4076,
      "velocity": 109,
      "chip": "ym2612"
    },
    {
      "channel": 2,
      "note": 72,
      "start": 41.6306,
      "duration": 0.064,
      "velocity": 116,
      "chip": "ym2612"
    },
    {
      "channel": 1,
      "note": 56,
      "start": 41.7308,
      "duration": 0.1014,
      "velocity": 97,
      "chip": "ym2612"
    },
    {
      "channel": 2,
      "note": 30,
      "start": 41.7327,
      "duration": 0.0643,
      "velocity": 117,
      "chip": "ym2612"
    },
    {
      "channel": 1,
      "note": 68,
      "start": 41.8329,
      "duration": 0.2038,
      "velocity": 97,
      "chip": "ym2612"
    },
    {
      "channel": 5,
      "note": 80,
      "start": 41.8343,
      "duration": 0.4078,
      "velocity": 109,
      "chip": "ym2612"
    },
    {
      "channel": 2,
      "note": 31,
      "start": 41.8351,
      "duration": 0.1234,
      "velocity": 116,
      "chip": "ym2612"
    },
    {
      "channel": 0,
      "note": 84,
      "start": 42.0366,
      "duration": 0.4078,
      "velocity": 109,
      "chip": "ym2612"
    },
    {
      "channel": 1,
      "note": 56,
      "start": 42.0373,
      "duration": 0.0983,
      "velocity": 97,
      "chip": "ym2612"
    },
    {
      "channel": 2,
      "note": 30,
      "start": 42.0394,
      "duration": 0.0637,
      "velocity": 117,
      "chip": "ym2612"
    },
    {
      "channel": 1,
      "note": 68,
      "start": 42.2412,
      "duration": 0.2039,
      "velocity": 97,
      "chip": "ym2612"
    },
    {
      "channel": 5,
      "note": 84,
      "start": 42.2427,
      "duration": 0.4072,
      "velocity": 109,
      "chip": "ym2612"
    },
    {
      "channel": 2,
      "note": 31,
      "start": 42.2434,
      "duration": 0.1232,
      "velocity": 116,
      "chip": "ym2612"
    },
    {
      "channel": 0,
      "note": 85,
      "start": 42.445,
      "duration": 1.2233,
      "velocity": 109,
      "chip": "ym2612"
    },
    {
      "channel": 1,
      "note": 51,
      "start": 42.4457,
      "duration": 0.1007,
      "velocity": 97,
      "chip": "ym2612"
    },
    {
      "channel": 3,
      "note": 78,
      "start": 42.4465,
      "duration": 1.6317,
      "velocity": 97,
      "chip": "ym2612"
    },
    {
      "channel": 4,
      "note": 73,
      "start": 42.4473,
      "duration": 1.6317,
      "velocity": 97,
      "chip": "ym2612"
    },
    {
      "channel": 2,
      "note": 30,
      "start": 42.4484,
      "duration": 0.0627,
      "velocity": 117,
      "chip": "ym2612"
    },
    {
      "channel": 2,
      "note": 72,
      "start": 42.5485,
      "duration": 0.0644,
      "velocity": 116,
      "chip": "ym2612"
    },
    {
      "channel": 1,
      "note": 63,
      "start": 42.6491,
      "duration": 0.2008,
      "velocity": 97,
      "chip": "ym2612"
    },
    {
      "channel": 5,
      "note": 85,
      "start": 42.6505,
      "duration": 1.2239,
      "velocity": 109,
      "chip": "ym2612"
    },
    {
      "channel": 2,
      "note": 31,
      "start": 42.6513,
      "duration": 0.0959,
      "velocity": 116,
      "chip": "ym2612"
    },
    {
      "channel": 2,
      "note": 72,
      "start": 42.7525,
      "duration": 0.0646,
      "velocity": 116,
      "chip": "ym2612"
    },
    {
      "channel": 1,
      "note": 51,
      "start": 42.9551,
      "duration": 0.1016,
      "velocity": 97,
      "chip": "ym2612"
    },
    {
      "channel": 2,
      "note": 30,
      "start": 42.9572,
      "duration": 0.064,
      "velocity": 117,
      "chip": "ym2612"
    },
    {
      "channel": 1,
      "note": 63,
      "start": 43.0574,
      "duration": 0.2032,
      "velocity": 97,
      "chip": "ym2612"
    },
    {
      "channel": 2,
      "note": 31,
      "start": 43.0591,
      "duration": 0.1236,
      "velocity": 116,
      "chip": "ym2612"
    },
    {
      "channel": 2,
      "note": 72,
      "start": 43.2627,
      "duration": 0.0644,
      "velocity": 116,
      "chip": "ym2612"
    },
    {
      "channel": 1,
      "note": 51,
      "start": 43.3632,
      "duration": 0.1018,
      "velocity": 97,
      "chip": "ym2612"
    },
    {
      "channel": 2,
      "note": 30,
      "start": 43.365,
      "duration": 0.0643,
      "velocity": 117,
      "chip": "ym2612"
    },
    {
      "channel": 1,
      "note": 63,
      "start": 43.4656,
      "duration": 0.2035,
      "velocity": 97,
      "chip": "ym2612"
    },
    {
      "channel": 2,
      "note": 31,
      "start": 43.4674,
      "duration": 0.1236,
      "velocity": 116,
      "chip": "ym2612"
    },
    {
      "channel": 0,
      "note": 89,
      "start": 43.6689,
      "duration": 0.4078,
      "velocity": 109,
      "chip": "ym2612"
    },
    {
      "channel": 1,
      "note": 51,
      "start": 43.6696,
      "duration": 0.0984,
      "velocity": 97,
      "chip": "ym2612"
    },
    {
      "channel": 2,
      "note": 30,
      "start": 43.6715,
      "duration": 0.0639,
      "velocity": 117,
      "chip": "ym2612"
    },
    {
      "channel": 1,
      "note": 63,
      "start": 43.8736,
      "duration": 0.2039,
      "velocity": 97,
      "chip": "ym2612"
    },
    {
      "channel": 5,
      "note": 89,
      "start": 43.8751,
      "duration": 0.4072,
      "velocity": 109,
      "chip": "ym2612"
    },
    {
      "channel": 2,
      "note": 31,
      "start": 43.8758,
      "duration": 0.1232,
      "velocity": 116,
      "chip": "ym2612"
    },
    {
      "channel": 0,
      "note": 87,
      "start": 44.0773,
      "duration": 0.8153,
      "velocity": 109,
      "chip": "ym2612"
    },
    {
      "channel": 1,
      "note": 53,
      "start": 44.0781,
      "duration": 0.1007,
      "velocity": 97,
      "chip": "ym2612"
    },
    {
      "channel": 3,
      "note": 80,
      "start": 44.0789,
      "duration": 1.6319,
      "velocity": 97,
      "chip": "ym2612"
    },
    {
      "channel": 4,
      "note": 75,
      "start": 44.0796,
      "duration": 1.632,
      "velocity": 97,
      "chip": "ym2612"
    },
    {
      "channel": 2,
      "note": 30,
      "start": 44.0808,
      "duration": 0.0627,
      "velocity": 117,
      "chip": "ym2612"
    },
    {
      "channel": 2,
      "note": 72,
      "start": 44.1809,
      "duration": 0.0643,
      "velocity": 116,
      "chip": "ym2612"
    },
    {
      "channel": 1,
      "note": 65,
      "start": 44.2814,
      "duration": 0.2008,
      "velocity": 97,
      "chip": "ym2612"
    },
    {
      "channel": 5,
      "note": 87,
      "start": 44.2829,
      "duration": 0.8156,
      "velocity": 109,
      "chip": "ym2612"
    },
    {
      "channel": 2,
      "note": 31,
      "start": 44.2837,
      "duration": 0.096,
      "velocity": 116,
      "chip": "ym2612"
    },
    {
      "channel": 2,
      "note": 72,
      "start": 44.385,
      "duration": 0.0646,
      "velocity": 116,
      "chip": "ym2612"
    },
    {
      "channel": 1,
      "note": 53,
      "start": 44.5875,
      "duration": 0.1017,
      "velocity": 97,
      "chip": "ym2612"
    },
    {
      "channel": 2,
      "note": 30,
      "start": 44.5895,
      "duration": 0.0641,
      "velocity": 117,
      "chip": "ym2612"
    },
    {
      "channel": 1,
      "note": 65,
      "start": 44.6898,
      "duration": 0.2036,
      "velocity": 97,
      "chip": "ym2612"
    },
    {
      "channel": 2,
      "note": 31,
      "start": 44.6916,
      "duration": 0.1235,
      "velocity": 116,
      "chip": "ym2612"
    },
    {
      "channel": 0,
      "note": 92,
      "start": 44.8932,
      "duration": 0.816,
      "velocity": 109,
      "chip": "ym2612"
    },
    {
      "channel": 2,
      "note": 30,
      "start": 44.8955,
      "duration": 0.064,
      "velocity": 117,
      "chip": "ym2612"
    },
    {
      "channel": 1,
      "note": 53,
      "start": 44.993,
      "duration": 0.1041,
      "velocity": 97,
      "chip": "ym2612"
    },
    {
      "channel": 1,
      "note": 65,
      "start": 45.0976,
      "duration": 0.2035,
      "velocity": 97,
      "chip": "ym2612"
    },
    {
      "channel": 5,
      "note": 92,
      "start": 45.0991,
      "duration": 0.8155,
      "velocity": 109,
      "chip": "ym2612"
    },
    {
      "channel": 2,
      "note": 31,
      "start": 45.0999,
      "duration": 0.1236,
      "velocity": 116,
      "chip": "ym2612"
    },
    {
      "channel": 1,
      "note": 53,
      "start": 45.3017,
      "duration": 0.1013,
      "velocity": 97,
      "chip": "ym2612"
    },
    {
      "channel": 2,
      "note": 31,
      "start": 45.3035,
      "duration": 0.0964,
      "velocity": 116,
      "chip": "ym2612"
    },
    {
      "channel": 2,
      "note": 31,
      "start": 45.405,
      "duration": 0.0969,
      "velocity": 116,
      "chip": "ym2612"
    },
    {
      "channel": 1,
      "note": 51,
      "start": 45.5058,
      "duration": 0.0987,
      "velocity": 97,
      "chip": "ym2612"
    },
    {
      "channel": 2,
      "note": 30,
      "start": 45.5077,
      "duration": 0.064,
      "velocity": 117,
      "chip": "ym2612"
    },
    {
      "channel": 1,
      "note": 53,
      "start": 45.6051,
      "duration": 0.105,
      "velocity": 97,
      "chip": "ym2612"
    },
    {
      "channel": 0,
      "note": 94,
      "start": 45.7098,
      "duration": 1.2232,
      "velocity": 109,
      "chip": "ym2612"
    },
    {
      "channel": 1,
      "note": 54,
      "start": 45.7107,
      "duration": 0.1006,
      "velocity": 97,
      "chip": "ym2612"
    },
    {
      "channel": 3,
      "note": 77,
      "start": 45.7114,
      "duration": 1.6318,
      "velocity": 97,
      "chip": "ym2612"
    },
    {
      "channel": 4,
      "note": 73,
      "start": 45.7122,
      "duration": 1.6318,
      "velocity": 97,
      "chip": "ym2612"
    },
    {
      "channel": 2,
      "note": 30,
      "start": 45.7133,
      "duration": 0.0625,
      "velocity": 117,
      "chip": "ym2612"
    },
    {
      "channel": 2,
      "note": 72,
      "start": 45.8133,
      "duration": 0.0644,
      "velocity": 116,
      "chip": "ym2612"
    },
    {
      "channel": 1,
      "note": 66,
      "start": 45.9138,
      "duration": 0.2008,
      "velocity": 97,
      "chip": "ym2612"
    },
    {
      "channel": 5,
      "note": 94,
      "start": 45.9153,
      "duration": 1.2239,
      "velocity": 109,
      "chip": "ym2612"
    },
    {
      "channel": 2,
      "note": 31,
      "start": 45.9161,
      "duration": 0.096,
      "velocity": 116,
      "chip": "ym2612"
    },
    {
      "channel": 2,
      "note": 72,
      "start": 46.0173,
      "duration": 0.0646,
      "velocity": 116,
      "chip": "ym2612"
    },
    {
      "channel": 1,
      "note": 54,
      "start": 46.2198,
      "duration": 0.1015,
      "velocity": 97,
      "chip": "ym2612"
    },
    {
      "channel": 2,
      "note": 30,
      "start": 46.2217,
      "duration": 0.0642,
      "velocity": 117,
      "chip": "ym2612"
    },
    {
      "channel": 1,
      "note": 66,
      "start": 46.3219,
      "duration": 0.2038,
      "velocity": 97,
      "chip": "ym2612"
    },
    {
      "channel": 2,
      "note": 31,
      "start": 46.324,
      "duration": 0.1235,
      "velocity": 116,
      "chip": "ym2612"
    },
    {
      "channel": 2,
      "note": 72,
      "start": 46.5277,
      "duration": 0.0641,
      "velocity": 116,
      "chip": "ym2612"
    },
    {
      "channel": 1,
      "note": 54,
      "start": 46.628,
      "duration": 0.1017,
      "velocity": 97,
      "chip": "ym2612"
    },
    {
      "channel": 2,
      "note": 30,
      "start": 46.6298,
      "duration": 0.0642,
      "velocity": 117,
      "chip": "ym2612"
    },
    {
      "channel": 1,
      "note": 66,
      "start": 46.7303,
      "duration": 0.2036,
      "velocity": 97,
      "chip": "ym2612"
    },
    {
      "channel": 2,
      "note": 31,
      "start": 46.7322,
      "duration": 0.1237,
      "velocity": 116,
      "chip": "ym2612"
    },
    {
      "channel": 0,
      "note": 97,
      "start": 46.9337,
      "duration": 0.408,
      "velocity": 109,
      "chip": "ym2612"
    },
    {
      "channel": 1,
      "note": 54,
      "start": 46.9345,
      "duration": 0.0983,
      "velocity": 97,
      "chip": "ym2612"
    },
    {
      "channel": 2,
      "note": 30,
      "start": 46.9363,
      "duration": 0.0638,
      "velocity": 117,
      "chip": "ym2612"
    },
    {
      "channel": 1,
      "note": 66,
      "start": 47.1381,
      "duration": 0.2044,
      "velocity": 97,
      "chip": "ym2612"
    },
    {
      "channel": 5,
      "note": 97,
      "start": 47.1398,
      "duration": 0.4072,
      "velocity": 109,
      "chip": "ym2612"
    },
    {
      "channel": 2,
      "note": 31,
      "start": 47.1406,
      "duration": 0.1232,
      "velocity": 116,
      "chip": "ym2612"
    },
    {
      "channel": 0,
      "note": 96,
      "start": 47.3424,
      "duration": 0.8153,
      "velocity": 109,
      "chip": "ym2612"
    },
    {
      "channel": 1,
      "note": 56,
      "start": 47.3431,
      "duration": 0.1004,
      "velocity": 97,
      "chip": "ym2612"
    },
    {
      "channel": 3,
      "note": 77,
      "start": 47.3438,
      "duration": 1.6318,
      "velocity": 97,
      "chip": "ym2612"
    },
    {
      "channel": 4,
      "note": 75,
      "start": 47.3446,
      "duration": 1.6317,
      "velocity": 97,
      "chip": "ym2612"
    },
    {
      "channel": 2,
      "note": 30,
      "start": 47.3457,
      "duration": 0.0625,
      "velocity": 117,
      "chip": "ym2612"
    },
    {
      "channel": 2,
      "note": 72,
      "start": 47.4456,
      "duration": 0.0644,
      "velocity": 116,
      "chip": "ym2612"
    },
    {
      "channel": 1,
      "note": 68,
      "start": 47.5462,
      "duration": 0.2009,
      "velocity": 97,
      "chip": "ym2612"
    },
    {
      "channel": 5,
      "note": 96,
      "start": 47.5476,
      "duration": 0.8155,
      "velocity": 109,
      "chip": "ym2612"
    },
    {
      "channel": 2,
      "note": 31,
      "start": 47.5485,
      "duration": 0.096,
      "velocity": 116,
      "chip": "ym2612"
    },
    {
      "channel": 2,
      "note": 72,
      "start": 47.6497,
      "duration": 0.0646,
      "velocity": 116,
      "chip": "ym2612"
    },
    {
      "channel": 1,
      "note": 56,
      "start": 47.8523,
      "duration": 0.1014,
      "velocity": 97,
      "chip": "ym2612"
    },
    {
      "channel": 2,
      "note": 30,
      "start": 47.8541,
      "duration": 0.0642,
      "velocity": 117,
      "chip": "ym2612"
    },
    {
      "channel": 1,
      "note": 68,
      "start": 47.9543,
      "duration": 0.2041,
      "velocity": 97,
      "chip": "ym2612"
    },
    {
      "channel": 2,
      "note": 31,
      "start": 47.9563,
      "duration": 0.1235,
      "velocity": 116,
      "chip": "ym2612"
    },
    {
      "channel": 0,
      "note": 92,
      "start": 48.1583,
      "duration": 0.8158,
      "velocity": 109,
      "chip": "ym2612"
    },
    {
      "channel": 2,
      "note": 72,
      "start": 48.1605,
      "duration": 0.0639,
      "velocity": 116,
      "chip": "ym2612"
    },
    {
      "channel": 1,
      "note": 56,
      "start": 48.2603,
      "duration": 0.1015,
      "velocity": 97,
      "chip": "ym2612"
    },
    {
      "channel": 2,
      "note": 30,
      "start": 48.2622,
      "duration": 0.0642,
      "velocity": 117,
      "chip": "ym2612"
    },
    {
      "channel": 1,
      "note": 68,
      "start": 48.3623,
      "duration": 0.2034,
      "velocity": 97,
      "chip": "ym2612"
    },
    {
      "channel": 5,
      "note": 92,
      "start": 48.3638,
      "duration": 0.816,
      "velocity": 109,
      "chip": "ym2612"
    },
    {
      "channel": 2,
      "note": 31,
      "start": 48.3646,
      "duration": 0.1234,
      "velocity": 116,
      "chip": "ym2612"
    },
    {
      "channel": 1,
      "note": 56,
      "start": 48.5663,
      "duration": 0.0988,
      "velocity": 97,
      "chip": "ym2612"
    },
    {
      "channel": 2,
      "note": 30,
      "start": 48.5682,
      "duration": 0.0643,
      "velocity": 117,
      "chip": "ym2612"
    },
    {
      "channel": 1,
      "note": 68,
      "start": 48.7705,
      "duration": 0.2044,
      "velocity": 97,
      "chip": "ym2612"
    },
    {
      "channel": 2,
      "note": 31,
      "start": 48.7725,
      "duration": 0.1235,
      "velocity": 116,
      "chip": "ym2612"
    },
    {
      "channel": 0,
      "note": 94,
      "start": 48.9747,
      "duration": 0.101,
      "velocity": 109,
      "chip": "ym2612"
    },
    {
      "channel": 1,
      "note": 51,
      "start": 48.9754,
      "duration": 0.101,
      "velocity": 97,
      "chip": "ym2612"
    },
    {
      "channel": 3,
      "note": 78,
      "start": 48.9762,
      "duration": 1.6317,
      "velocity": 97,
      "chip": "ym2612"
    },
    {
      "channel": 4,
      "note": 73,
      "start": 48.977,
      "duration": 1.6317,
      "velocity": 97,
      "chip": "ym2612"
    },
    {
      "channel": 2,
      "note": 30,
      "start": 48.9781,
      "duration": 0.0627,
      "velocity": 117,
      "chip": "ym2612"
    },
    {
      "channel": 0,
      "note": 92,
      "start": 49.0763,
      "duration": 0.1013,
      "velocity": 109,
      "chip": "ym2612"
    },
    {
      "channel": 2,
      "note": 72,
      "start": 49.0785,
      "duration": 0.0639,
      "velocity": 116,
      "chip": "ym2612"
    },
    {
      "channel": 0,
      "note": 90,
      "start": 49.1783,
      "duration": 0.1013,
      "velocity": 109,
      "chip": "ym2612"
    },
    {
      "channel": 1,
      "note": 63,
      "start": 49.179,
      "duration": 0.2008,
      "velocity": 97,
      "chip": "ym2612"
    },
    {
      "channel": 5,
      "note": 94,
      "start": 49.1805,
      "duration": 0.101,
      "velocity": 109,
      "chip": "ym2612"
    },
    {
      "channel": 2,
      "note": 31,
      "start": 49.1813,
      "duration": 0.0956,
      "velocity": 116,
      "chip": "ym2612"
    },
    {
      "channel": 0,
      "note": 89,
      "start": 49.2803,
      "duration": 0.0988,
      "velocity": 109,
      "chip": "ym2612"
    },
    {
      "channel": 5,
      "note": 92,
      "start": 49.282,
      "duration": 0.0988,
      "velocity": 109,
      "chip": "ym2612"
    },
    {
      "channel": 2,
      "note": 72,
      "start": 49.2829,
      "duration": 0.0637,
      "velocity": 116,
      "chip": "ym2612"
    },
    {
      "channel": 0,
      "note": 92,
      "start": 49.3796,
      "duration": 0.1041,
      "velocity": 109,
      "chip": "ym2612"
    },
    {
      "channel": 5,
      "note": 90,
      "start": 49.3814,
      "duration": 0.1044,
      "velocity": 109,
      "chip": "ym2612"
    },
    {
      "channel": 0,
      "note": 90,
      "start": 49.4843,
      "duration": 0.1014,
      "velocity": 109,
      "chip": "ym2612"
    },
    {
      "channel": 1,
      "note": 51,
      "start": 49.485,
      "duration": 0.1014,
      "velocity": 97,
      "chip": "ym2612"
    },
    {
      "channel": 5,
      "note": 89,
      "start": 49.4865,
      "duration": 0.1014,
      "velocity": 109,
      "chip": "ym2612"
    },
    {
      "channel": 2,
      "note": 30,
      "start": 49.4873,
      "duration": 0.0634,
      "velocity": 117,
      "chip": "ym2612"
    },
    {
      "channel": 0,
      "note": 89,
      "start": 49.5863,
      "duration": 0.0988,
      "velocity": 109,
      "chip": "ym2612"
    },
    {
      "channel": 1,
      "note": 63,
      "start": 49.5871,
      "duration": 0.2036,
      "velocity": 97,
      "chip": "ym2612"
    },
    {
      "channel": 5,
      "note": 92,
      "start": 49.5885,
      "duration": 0.0983,
      "velocity": 109,
      "chip": "ym2612"
    },
    {
      "channel": 2,
      "note": 31,
      "start": 49.5895,
      "duration": 0.1227,
      "velocity": 116,
      "chip": "ym2612"
    },
    {
      "channel": 0,
      "note": 87,
      "start": 49.6857,
      "duration": 0.1042,
      "velocity": 109,
      "chip": "ym2612"
    },
    {
      "channel": 5,
      "note": 90,
      "start": 49.6875,
      "duration": 0.1042,
      "velocity": 109,
      "chip": "ym2612"
    },
    {
      "channel": 0,
      "note": 90,
      "start": 49.7906,
      "duration": 0.1014,
      "velocity": 109,
      "chip": "ym2612"
    },
    {
      "channel": 5,
      "note": 89,
      "start": 49.7924,
      "duration": 0.1018,
      "velocity": 109,
      "chip": "ym2612"
    },
    {
      "channel": 2,
      "note": 72,
      "start": 49.7932,
      "duration": 0.0635,
      "velocity": 116,
      "chip": "ym2612"
    },
    {
      "channel": 0,
      "note": 89,
      "start": 49.8926,
      "duration": 0.1015,
      "velocity": 109,
      "chip": "ym2612"
    },
    {
      "channel": 1,
      "note": 51,
      "start": 49.8933,
      "duration": 0.1015,
      "velocity": 97,
      "chip": "ym2612"
    },
    {
      "channel": 5,
      "note": 87,
      "start": 49.8948,
      "duration": 0.1015,
      "velocity": 109,
      "chip": "ym2612"
    },
    {
      "channel": 2,
      "note": 30,
      "start": 49.8956,
      "duration": 0.0632,
      "velocity": 117,
      "chip": "ym2612"
    },
    {
      "channel": 0,
      "note": 87,
      "start": 49.9947,
      "duration": 0.0985,
      "velocity": 109,
      "chip": "ym2612"
    },
    {
      "channel": 1,
      "note": 63,
      "start": 49.9954,
      "duration": 0.2031,
      "velocity": 97,
      "chip": "ym2612"
    },
    {
      "channel": 5,
      "note": 90,
      "start": 49.9969,
      "duration": 0.0981,
      "velocity": 109,
      "chip": "ym2612"
    },
    {
      "channel": 2,
      "note": 31,
      "start": 49.9976,
      "duration": 0.1227,
      "velocity": 116,
      "chip": "ym2612"
    },
    {
      "channel": 0,
      "note": 85,
      "start": 50.0937,
      "duration": 0.1041,
      "velocity": 109,
      "chip": "ym2612"
    },
    {
      "channel": 5,
      "note": 89,
      "start": 50.0955,
      "duration": 0.1044,
      "velocity": 109,
      "chip": "ym2612"
    },
    {
      "channel": 0,
      "note": 89,
      "start": 50.1984,
      "duration": 0.0989,
      "velocity": 109,
      "chip": "ym2612"
    },
    {
      "channel": 1,
      "note": 51,
      "start": 50.1992,
      "duration": 0.0989,
      "velocity": 97,
      "chip": "ym2612"
    },
    {
      "channel": 5,
      "note": 87,
      "start": 50.2005,
      "duration": 0.0985,
      "velocity": 109,
      "chip": "ym2612"
    },
    {
      "channel": 2,
      "note": 30,
      "start": 50.2014,
      "duration": 0.0634,
      "velocity": 117,
      "chip": "ym2612"
    },
    {
      "channel": 0,
      "note": 87,
      "start": 50.2979,
      "duration": 0.104,
      "velocity": 109,
      "chip": "ym2612"
    },
    {
      "channel": 5,
      "note": 85,
      "start": 50.2997,
      "duration": 0.1044,
      "velocity": 109,
      "chip": "ym2612"
    },
    {
      "channel": 0,
      "note": 85,
      "start": 50.4025,
      "duration": 0.0987,
      "velocity": 109,
      "chip": "ym2612"
    },
    {
      "channel": 1,
      "note": 63,
      "start": 50.4032,
      "duration": 0.204,
      "velocity": 97,
      "chip": "ym2612"
    },
    {
      "channel": 5,
      "note": 89,
      "start": 50.4047,
      "duration": 0.0983,
      "velocity": 109,
      "chip": "ym2612"
    },
    {
      "channel": 2,
      "note": 31,
      "start": 50.4055,
      "duration": 0.123,
      "velocity": 116,
      "chip": "ym2612"
    },
    {
      "channel": 0,
      "note": 84,
      "start": 50.5019,
      "duration": 0.1046,
      "velocity": 109,
      "chip": "ym2612"
    },
    {
      "channel": 5,
      "note": 87,
      "start": 50.5037,
      "duration": 0.1058,
      "velocity": 109,
      "chip": "ym2612"
    },
    {
      "channel": 0,
      "note": 77,
      "start": 50.6071,
      "duration": 0.1011,
      "velocity": 109,
      "chip": "ym2612"
    },
    {
      "channel": 1,
      "note": 53,
      "start": 50.6078,
      "duration": 0.1012,
      "velocity": 97,
      "chip": "ym2612"
    },
    {
      "channel": 3,
      "note": 75,
      "start": 50.6086,
      "duration": 0.8149,
      "velocity": 97,
      "chip": "ym2612"
    },
    {
      "channel": 4,
      "note": 79,
      "start": 50.6093,
      "duration": 0.8149,
      "velocity": 97,
      "chip": "ym2612"
    },
    {
      "channel": 5,
      "note": 85,
      "start": 50.6101,
      "duration": 0.0998,
      "velocity": 109,
      "chip": "ym2612"
    },
    {
      "channel": 2,
      "note": 30,
      "start": 50.6109,
      "duration": 0.0622,
      "velocity": 117,
      "chip": "ym2612"
    },
    {
      "channel": 0,
      "note": 78,
      "start": 50.7088,
      "duration": 0.1013,
      "velocity": 109,
      "chip": "ym2612"
    },
    {
      "channel": 5,
      "note": 84,
      "start": 50.7105,
      "duration": 0.1017,
      "velocity": 109,
      "chip": "ym2612"
    },
    {
      "channel": 2,
      "note": 72,
      "start": 50.7114,
      "duration": 0.0633,
      "velocity": 116,
      "chip": "ym2612"
    },
    {
      "channel": 0,
      "note": 80,
      "start": 50.8106,
      "duration": 0.1013,
      "velocity": 109,
      "chip": "ym2612"
    },
    {
      "channel": 1,
      "note": 65,
      "start": 50.8114,
      "duration": 0.2008,
      "velocity": 97,
      "chip": "ym2612"
    },
    {
      "channel": 5,
      "note": 77,
      "start": 50.8128,
      "duration": 0.101,
      "velocity": 109,
      "chip": "ym2612"
    },
    {
      "channel": 2,
      "note": 31,
      "start": 50.8136,
      "duration": 0.0955,
      "velocity": 116,
      "chip": "ym2612"
    },
    {
      "channel": 0,
      "note": 82,
      "start": 50.9126,
      "duration": 0.0988,
      "velocity": 109,
      "chip": "ym2612"
    },
    {
      "channel": 5,
      "note": 78,
      "start": 50.9144,
      "duration": 0.0987,
      "velocity": 109,
      "chip": "ym2612"
    },
    {
      "channel": 2,
      "note": 72,
      "start": 50.9152,
      "duration": 0.0639,
      "velocity": 116,
      "chip": "ym2612"
    },
    {
      "channel": 0,
      "note": 80,
      "start": 51.012,
      "duration": 0.1041,
      "velocity": 109,
      "chip": "ym2612"
    },
    {
      "channel": 5,
      "note": 80,
      "start": 51.0137,
      "duration": 0.1045,
      "velocity": 109,
      "chip": "ym2612"
    },
    {
      "channel": 0,
      "note": 82,
      "start": 51.1167,
      "duration": 0.1013,
      "velocity": 109,
      "chip": "ym2612"
    },
    {
      "channel": 1,
      "note": 53,
      "start": 51.1174,
      "duration": 0.1014,
      "velocity": 97,
      "chip": "ym2612"
    },
    {
      "channel": 5,
      "note": 82,
      "start": 51.1189,
      "duration": 0.1013,
      "velocity": 109,
      "chip": "ym2612"
    },
    {
      "channel": 2,
      "note": 30,
      "start": 51.1197,
      "duration": 0.0634,
      "velocity": 117,
      "chip": "ym2612"
    },
    {
      "channel": 0,
      "note": 84,
      "start": 51.2186,
      "duration": 0.0989,
      "velocity": 109,
      "chip": "ym2612"
    },
    {
      "channel": 1,
      "note": 65,
      "start": 51.2194,
      "duration": 0.2037,
      "velocity": 97,
      "chip": "ym2612"
    },
    {
      "channel": 5,
      "note": 80,
      "start": 51.2208,
      "duration": 0.0985,
      "velocity": 109,
      "chip": "ym2612"
    },
    {
      "channel": 2,
      "note": 31,
      "start": 51.2216,
      "duration": 0.123,
      "velocity": 116,
      "chip": "ym2612"
    },
    {
      "channel": 0,
      "note": 85,
      "start": 51.3181,
      "duration": 0.1043,
      "velocity": 109,
      "chip": "ym2612"
    },
    {
      "channel": 5,
      "note": 82,
      "start": 51.3199,
      "duration": 0.1052,
      "velocity": 109,
      "chip": "ym2612"
    },
    {
      "channel": 0,
      "note": 82,
      "start": 51.423,
      "duration": 0.1014,
      "velocity": 109,
      "chip": "ym2612"
    },
    {
      "channel": 3,
      "note": 77,
      "start": 51.4241,
      "duration": 0.8246,
      "velocity": 102,
      "chip": "ym2612"
    },
    {
      "channel": 4,
      "note": 81,
      "start": 51.4249,
      "duration": 0.8275,
      "velocity": 97,
      "chip": "ym2612"
    },
    {
      "channel": 5,
      "note": 84,
      "start": 51.4256,
      "duration": 0.101,
      "velocity": 109,
      "chip": "ym2612"
    },
    {
      "channel": 2,
      "note": 30,
      "start": 51.4264,
      "duration": 0.0626,
      "velocity": 117,
      "chip": "ym2612"
    },
    {
      "channel": 0,
      "note": 84,
      "start": 51.525,
      "duration": 0.1013,
      "velocity": 109,
      "chip": "ym2612"
    },
    {
      "channel": 1,
      "note": 53,
      "start": 51.5257,
      "duration": 0.1012,
      "velocity": 97,
      "chip": "ym2612"
    },
    {
      "channel": 5,
      "note": 85,
      "start": 51.5272,
      "duration": 0.1012,
      "velocity": 109,
      "chip": "ym2612"
    },
    {
      "channel": 2,
      "note": 31,
      "start": 51.528,
      "duration": 0.0446,
      "velocity": 116,
      "chip": "ym2612"
    },
    {
      "channel": 2,
      "note": 31,
      "start": 51.5777,
      "duration": 0.0457,
      "velocity": 116,
      "chip": "ym2612"
    },
    {
      "channel": 0,
      "note": 85,
      "start": 51.6268,
      "duration": 0.1014,
      "velocity": 109,
      "chip": "ym2612"
    },
    {
      "channel": 1,
      "note": 65,
      "start": 51.6276,
      "duration": 0.2037,
      "velocity": 97,
      "chip": "ym2612"
    },
    {
      "channel": 5,
      "note": 82,
      "start": 51.629,
      "duration": 0.101,
      "velocity": 109,
      "chip": "ym2612"
    },
    {
      "channel": 2,
      "note": 31,
      "start": 51.6298,
      "duration": 0.0956,
      "velocity": 116,
      "chip": "ym2612"
    },
    {
      "channel": 0,
      "note": 87,
      "start": 51.7288,
      "duration": 0.1016,
      "velocity": 109,
      "chip": "ym2612"
    },
    {
      "channel": 5,
      "note": 84,
      "start": 51.7306,
      "duration": 0.1021,
      "velocity": 109,
      "chip": "ym2612"
    },
    {
      "channel": 2,
      "note": 31,
      "start": 51.7314,
      "duration": 0.0961,
      "velocity": 116,
      "chip": "ym2612"
    },
    {
      "channel": 0,
      "note": 89,
      "start": 51.831,
      "duration": 0.0478,
      "velocity": 109,
      "chip": "ym2612"
    },
    {
      "channel": 1,
      "note": 60,
      "start": 51.8319,
      "duration": 0.1012,
      "velocity": 97,
      "chip": "ym2612"
    },
    {
      "channel": 5,
      "note": 85,
      "start": 51.8333,
      "duration": 0.1012,
      "velocity": 109,
      "chip": "ym2612"
    },
    {
      "channel": 2,
      "note": 31,
      "start": 51.8341,
      "duration": 0.0953,
      "velocity": 116,
      "chip": "ym2612"
    },
    {
      "channel": 0,
      "note": 90,
      "start": 51.8795,
      "duration": 0.0528,
      "velocity": 109,
      "chip": "ym2612"
    },
    {
      "channel": 0,
      "note": 92,
      "start": 51.9329,
      "duration": 0.0476,
      "velocity": 109,
      "chip": "ym2612"
    },
    {
      "channel": 1,
      "note": 63,
      "start": 51.9336,
      "duration": 0.1014,
      "velocity": 97,
      "chip": "ym2612"
    },
    {
      "channel": 5,
      "note": 87,
      "start": 51.9351,
      "duration": 0.1015,
      "velocity": 109,
      "chip": "ym2612"
    },
    {
      "channel": 2,
      "note": 31,
      "start": 51.9359,
      "duration": 0.0956,
      "velocity": 116,
      "chip": "ym2612"
    },
    {
      "channel": 0,
      "note": 94,
      "start": 51.9812,
      "duration": 0.0531,
      "velocity": 109,
      "chip": "ym2612"
    },
    {
      "channel": 0,
      "note": 96,
      "start": 52.0349,
      "duration": 0.0477,
      "velocity": 109,
      "chip": "ym2612"
    },
    {
      "channel": 1,
      "note": 65,
      "start": 52.0357,
      "duration": 0.2093,
      "velocity": 97,
      "chip": "ym2612"
    },
    {
      "channel": 5,
      "note": 89,
      "start": 52.0373,
      "duration": 0.0471,
      "velocity": 109,
      "chip": "ym2612"
    },
    {
      "channel": 2,
      "note": 31,
      "start": 52.038,
      "duration": 0.0954,
      "velocity": 116,
      "chip": "ym2612"
    },
    {
      "channel": 0,
      "note": 97,
      "start": 52.0832,
      "duration": 0.053,
      "velocity": 109,
      "chip": "ym2612"
    },
    {
      "channel": 5,
      "note": 90,
      "start": 52.085,
      "duration": 0.0532,
      "velocity": 109,
      "chip": "ym2612"
    },
    {
      "channel": 0,
      "note": 99,
      "start": 52.1369,
      "duration": 0.0477,
      "velocity": 109,
      "chip": "ym2612"
    },
    {
      "channel": 5,
      "note": 92,
      "start": 52.1388,
      "duration": 0.0476,
      "velocity": 109,
      "chip": "ym2612"
    },
    {
      "channel": 2,
      "note": 31,
      "start": 52.1398,
      "duration": 0.0961,
      "velocity": 116,
      "chip": "ym2612"
    },
    {
      "channel": 0,
      "note": 101,
      "start": 52.1852,
      "duration": 0.0565,
      "velocity": 109,
      "chip": "ym2612"
    },
    {
      "channel": 5,
      "note": 94,
      "start": 52.187,
      "duration": 0.0661,
      "velocity": 109,
      "chip": "ym2612"
    },
    {
      "channel": 0,
      "note": 89,
      "start": 52.2423,
      "duration": 0.0195,
      "velocity": 109,
      "chip": "ym2612"
    },
    {
      "channel": 1,
      "note": 58,
      "start": 52.2456,
      "duration": 0.0161,
      "velocity": 97,
      "chip": "ym2612"
    },
    {
      "channel": 3,
      "note": 89,
      "start": 52.2493,
      "duration": 0.0125,
      "velocity": 102,
      "chip": "ym2612"
    },
    {
      "channel": 4,
      "note": 85,
      "start": 52.253,
      "duration": 0.0088,
      "velocity": 97,
      "chip": "ym2612"
    },
    {
      "channel": 5,
      "note": 96,
      "start": 52.2537,
      "duration": 0.008,
      "velocity": 109,
      "chip": "ym2612"
    },
    {
      "channel": 2,
      "note": 30,
      "start": 52.2546,
      "duration": 0.0072,
      "velocity": 117,
      "chip": "ym2612"
    }
  ]
}