{
  "track_name": "02 - Sky City",
  "duration_sec": 75.652,
  "sample_rate": 44100,
  "note_count": 2119,
  "unique_pitches": 35,
  "pitch_range": 65,
  "avg_note_duration": 0.2065,
  "reconstruction_stats": {
    "notes_reconstructed": 2119,
    "keyon_events": 2119,
    "keyoff_events": 2113,
    "orphan_keyons": 6,
    "unique_pitches": 35,
    "pitch_range": 65,
    "avg_duration_sec": 0.2065
  },
  "metadata": {
    "source": "W\\Whip Rush\\02 - Sky City.vgz"
  },
  "notes": [
    {
      "channel": 0,
      "note": 61,
      "start": 0.0,
      "duration": 0.3213,
      "velocity": 75,
      "chip": "ym2612"
    },
    {
      "channel": 1,
      "note": 61,
      "start": 0.0,
      "duration": 0.322,
      "velocity": 97,
      "chip": "ym2612"
    },
    {
      "channel": 3,
      "note": 73,
      "start": 0.0017,
      "duration": 0.3211,
      "velocity": 91,
      "chip": "ym2612"
    },
    {
      "channel": 5,
      "note": 73,
      "start": 0.0081,
      "duration": 0.3155,
      "velocity": 96,
      "chip": "ym2612"
    },
    {
      "channel": 2,
      "note": 41,
      "start": 0.0089,
      "duration": 0.0803,
      "velocity": 127,
      "chip": "ym2612"
    },
    {
      "channel": 2,
      "note": 37,
      "start": 0.094,
      "duration": 0.1098,
      "velocity": 120,
      "chip": "ym2612"
    },
    {
      "channel": 2,
      "note": 37,
      "start": 0.2087,
      "duration": 0.1099,
      "velocity": 120,
      "chip": "ym2612"
    },
    {
      "channel": 0,
      "note": 62,
      "start": 0.3219,
      "duration": 0.3434,
      "velocity": 75,
      "chip": "ym2612"
    },
    {
      "channel": 1,
      "note": 59,
      "start": 0.3226,
      "duration": 0.3435,
      "velocity": 97,
      "chip": "ym2612"
    },
    {
      "channel": 3,
      "note": 74,
      "start": 0.3234,
      "duration": 0.3434,
      "velocity": 91,
      "chip": "ym2612"
    },
    {
      "channel": 5,
      "note": 74,
      "start": 0.3242,
      "duration": 0.3434,
      "velocity": 96,
      "chip": "ym2612"
    },
    {
      "channel": 2,
      "note": 41,
      "start": 0.325,
      "duration": 0.1081,
      "velocity": 127,
      "chip": "ym2612"
    },
    {
      "channel": 2,
      "note": 37,
      "start": 0.438,
      "duration": 0.1098,
      "velocity": 120,
      "chip": "ym2612"
    },
    {
      "channel": 2,
      "note": 37,
      "start": 0.5526,
      "duration": 0.1099,
      "velocity": 120,
      "chip": "ym2612"
    },
    {
      "channel": 0,
      "note": 64,
      "start": 0.6659,
      "duration": 0.3434,
      "velocity": 75,
      "chip": "ym2612"
    },
    {
      "channel": 1,
      "note": 57,
      "start": 0.6666,
      "duration": 0.3434,
      "velocity": 97,
      "chip": "ym2612"
    },
    {
      "channel": 3,
      "note": 76,
      "start": 0.6674,
      "duration": 0.3434,
      "velocity": 91,
      "chip": "ym2612"
    },
    {
      "channel": 5,
      "note": 76,
      "start": 0.6682,
      "duration": 0.3434,
      "velocity": 96,
      "chip": "ym2612"
    },
    {
      "channel": 2,
      "note": 41,
      "start": 0.669,
      "duration": 0.1081,
      "velocity": 127,
      "chip": "ym2612"
    },
    {
      "channel": 2,
      "note": 37,
      "start": 0.782,
      "duration": 0.1098,
      "velocity": 120,
      "chip": "ym2612"
    },
    {
      "channel": 2,
      "note": 37,
      "start": 0.8966,
      "duration": 0.1099,
      "velocity": 120,
      "chip": "ym2612"
    },
    {
      "channel": 0,
      "note": 65,
      "start": 1.0099,
      "duration": 0.3433,
      "velocity": 75,
      "chip": "ym2612"
    },
    {
      "channel": 1,
      "note": 56,
      "start": 1.0106,
      "duration": 0.3434,
      "velocity": 97,
      "chip": "ym2612"
    },
    {
      "channel": 3,
      "note": 77,
      "start": 1.0114,
      "duration": 0.3434,
      "velocity": 91,
      "chip": "ym2612"
    },
    {
      "channel": 5,
      "note": 77,
      "start": 1.0122,
      "duration": 0.3434,
      "velocity": 96,
      "chip": "ym2612"
    },
    {
      "channel": 2,
      "note": 41,
      "start": 1.013,
      "duration": 0.1081,
      "velocity": 127,
      "chip": "ym2612"
    },
    {
      "channel": 2,
      "note": 37,
      "start": 1.126,
      "duration": 0.1097,
      "velocity": 120,
      "chip": "ym2612"
    },
    {
      "channel": 2,
      "note": 37,
      "start": 1.2407,
      "duration": 0.1098,
      "velocity": 120,
      "chip": "ym2612"
    },
    {
      "channel": 0,
      "note": 66,
      "start": 1.3539,
      "duration": 0.2288,
      "velocity": 75,
      "chip": "ym2612"
    },
    {
      "channel": 1,
      "note": 54,
      "start": 1.3546,
      "duration": 0.2288,
      "velocity": 97,
      "chip": "ym2612"
    },
    {
      "channel": 3,
      "note": 78,
      "start": 1.3554,
      "duration": 0.2287,
      "velocity": 91,
      "chip": "ym2612"
    },
    {
      "channel": 5,
      "note": 78,
      "start": 1.3562,
      "duration": 0.2288,
      "velocity": 96,
      "chip": "ym2612"
    },
    {
      "channel": 2,
      "note": 41,
      "start": 1.3571,
      "duration": 0.108,
      "velocity": 127,
      "chip": "ym2612"
    },
    {
      "channel": 2,
      "note": 41,
      "start": 1.47,
      "duration": 0.1099,
      "velocity": 127,
      "chip": "ym2612"
    },
    {
      "channel": 0,
      "note": 68,
      "start": 1.5832,
      "duration": 0.229,
      "velocity": 75,
      "chip": "ym2612"
    },
    {
      "channel": 1,
      "note": 52,
      "start": 1.5839,
      "duration": 0.2321,
      "velocity": 96,
      "chip": "ym2612"
    },
    {
      "channel": 3,
      "note": 80,
      "start": 1.5847,
      "duration": 0.2317,
      "velocity": 91,
      "chip": "ym2612"
    },
    {
      "channel": 5,
      "note": 80,
      "start": 1.5855,
      "duration": 0.2326,
      "velocity": 96,
      "chip": "ym2612"
    },
    {
      "channel": 2,
      "note": 41,
      "start": 1.5863,
      "duration": 0.1082,
      "velocity": 127,
      "chip": "ym2612"
    },
    {
      "channel": 2,
      "note": 41,
      "start": 1.6993,
      "duration": 0.11,
      "velocity": 127,
      "chip": "ym2612"
    },
    {
      "channel": 0,
      "note": 69,
      "start": 1.8129,
      "duration": 0.9137,
      "velocity": 75,
      "chip": "ym2612"
    },
    {
      "channel": 3,
      "note": 74,
      "start": 1.8171,
      "duration": 0.1072,
      "velocity": 91,
      "chip": "ym2612"
    },
    {
      "channel": 4,
      "note": 50,
      "start": 1.8179,
      "duration": 0.4541,
      "velocity": 91,
      "chip": "ym2612"
    },
    {
      "channel": 5,
      "note": 81,
      "start": 1.8188,
      "duration": 0.91,
      "velocity": 96,
      "chip": "ym2612"
    },
    {
      "channel": 2,
      "note": 37,
      "start": 1.8195,
      "duration": 0.1249,
      "velocity": 120,
      "chip": "ym2612"
    },
    {
      "channel": 3,
      "note": 69,
      "start": 1.9248,
      "duration": 0.1172,
      "velocity": 91,
      "chip": "ym2612"
    },
    {
      "channel": 1,
      "note": 81,
      "start": 1.9631,
      "duration": 0.9166,
      "velocity": 96,
      "chip": "ym2612"
    },
    {
      "channel": 3,
      "note": 62,
      "start": 2.0426,
      "duration": 0.1113,
      "velocity": 91,
      "chip": "ym2612"
    },
    {
      "channel": 2,
      "note": 41,
      "start": 2.0441,
      "duration": 0.2236,
      "velocity": 127,
      "chip": "ym2612"
    },
    {
      "channel": 3,
      "note": 74,
      "start": 2.1544,
      "duration": 0.1168,
      "velocity": 91,
      "chip": "ym2612"
    },
    {
      "channel": 3,
      "note": 69,
      "start": 2.2718,
      "duration": 0.1144,
      "velocity": 91,
      "chip": "ym2612"
    },
    {
      "channel": 4,
      "note": 50,
      "start": 2.2725,
      "duration": 0.1145,
      "velocity": 91,
      "chip": "ym2612"
    },
    {
      "channel": 2,
      "note": 37,
      "start": 2.2737,
      "duration": 0.1092,
      "velocity": 120,
      "chip": "ym2612"
    },
    {
      "channel": 3,
      "note": 62,
      "start": 2.3869,
      "duration": 0.1137,
      "velocity": 91,
      "chip": "ym2612"
    },
    {
      "channel": 4,
      "note": 50,
      "start": 2.3876,
      "duration": 0.2284,
      "velocity": 91,
      "chip": "ym2612"
    },
    {
      "channel": 2,
      "note": 37,
      "start": 2.3887,
      "duration": 0.1084,
      "velocity": 120,
      "chip": "ym2612"
    },
    {
      "channel": 3,
      "note": 74,
      "start": 2.5012,
      "duration": 0.1141,
      "velocity": 91,
      "chip": "ym2612"
    },
    {
      "channel": 2,
      "note": 41,
      "start": 2.5027,
      "duration": 0.109,
      "velocity": 127,
      "chip": "ym2612"
    },
    {
      "channel": 3,
      "note": 69,
      "start": 2.6158,
      "duration": 0.1119,
      "velocity": 91,
      "chip": "ym2612"
    },
    {
      "channel": 4,
      "note": 52,
      "start": 2.6166,
      "duration": 0.5701,
      "velocity": 91,
      "chip": "ym2612"
    },
    {
      "channel": 2,
      "note": 37,
      "start": 2.6176,
      "duration": 0.1297,
      "velocity": 120,
      "chip": "ym2612"
    },
    {
      "channel": 0,
      "note": 71,
      "start": 2.7272,
      "duration": 0.346,
      "velocity": 75,
      "chip": "ym2612"
    },
    {
      "channel": 3,
      "note": 76,
      "start": 2.7283,
      "duration": 0.1163,
      "velocity": 91,
      "chip": "ym2612"
    },
    {
      "channel": 5,
      "note": 83,
      "start": 2.7293,
      "duration": 0.3461,
      "velocity": 96,
      "chip": "ym2612"
    },
    {
      "channel": 3,
      "note": 71,
      "start": 2.8452,
      "duration": 0.1141,
      "velocity": 91,
      "chip": "ym2612"
    },
    {
      "channel": 2,
      "note": 37,
      "start": 2.8466,
      "duration": 0.1092,
      "velocity": 120,
      "chip": "ym2612"
    },
    {
      "channel": 1,
      "note": 83,
      "start": 2.8803,
      "duration": 0.3435,
      "velocity": 96,
      "chip": "ym2612"
    },
    {
      "channel": 3,
      "note": 64,
      "start": 2.9598,
      "duration": 0.1145,
      "velocity": 91,
      "chip": "ym2612"
    },
    {
      "channel": 2,
      "note": 41,
      "start": 2.9613,
      "duration": 0.109,
      "velocity": 127,
      "chip": "ym2612"
    },
    {
      "channel": 0,
      "note": 69,
      "start": 3.0739,
      "duration": 0.3433,
      "velocity": 75,
      "chip": "ym2612"
    },
    {
      "channel": 3,
      "note": 76,
      "start": 3.0749,
      "duration": 0.111,
      "velocity": 91,
      "chip": "ym2612"
    },
    {
      "channel": 5,
      "note": 81,
      "start": 3.076,
      "duration": 0.3433,
      "velocity": 96,
      "chip": "ym2612"
    },
    {
      "channel": 2,
      "note": 37,
      "start": 3.0767,
      "duration": 0.1295,
      "velocity": 120,
      "chip": "ym2612"
    },
    {
      "channel": 3,
      "note": 71,
      "start": 3.1865,
      "duration": 0.1167,
      "velocity": 91,
      "chip": "ym2612"
    },
    {
      "channel": 4,
      "note": 52,
      "start": 3.1872,
      "duration": 0.1167,
      "velocity": 91,
      "chip": "ym2612"
    },
    {
      "channel": 1,
      "note": 81,
      "start": 3.2244,
      "duration": 0.3433,
      "velocity": 96,
      "chip": "ym2612"
    },
    {
      "channel": 3,
      "note": 64,
      "start": 3.3038,
      "duration": 0.1144,
      "velocity": 91,
      "chip": "ym2612"
    },
    {
      "channel": 4,
      "note": 52,
      "start": 3.3045,
      "duration": 0.3444,
      "velocity": 91,
      "chip": "ym2612"
    },
    {
      "channel": 2,
      "note": 37,
      "start": 3.3056,
      "duration": 0.1088,
      "velocity": 120,
      "chip": "ym2612"
    },
    {
      "channel": 0,
      "note": 68,
      "start": 3.4178,
      "duration": 0.229,
      "velocity": 75,
      "chip": "ym2612"
    },
    {
      "channel": 3,
      "note": 76,
      "start": 3.4189,
      "duration": 0.1136,
      "velocity": 91,
      "chip": "ym2612"
    },
    {
      "channel": 5,
      "note": 80,
      "start": 3.42,
      "duration": 0.2297,
      "velocity": 96,
      "chip": "ym2612"
    },
    {
      "channel": 2,
      "note": 41,
      "start": 3.4207,
      "duration": 0.1083,
      "velocity": 127,
      "chip": "ym2612"
    },
    {
      "channel": 3,
      "note": 71,
      "start": 3.5331,
      "duration": 0.115,
      "velocity": 91,
      "chip": "ym2612"
    },
    {
      "channel": 2,
      "note": 37,
      "start": 3.5345,
      "duration": 0.1095,
      "velocity": 120,
      "chip": "ym2612"
    },
    {
      "channel": 1,
      "note": 80,
      "start": 3.5683,
      "duration": 0.2287,
      "velocity": 96,
      "chip": "ym2612"
    },
    {
      "channel": 0,
      "note": 69,
      "start": 3.6475,
      "duration": 0.3403,
      "velocity": 75,
      "chip": "ym2612"
    },
    {
      "channel": 3,
      "note": 78,
      "start": 3.6487,
      "duration": 0.1105,
      "velocity": 91,
      "chip": "ym2612"
    },
    {
      "channel": 4,
      "note": 54,
      "start": 3.6496,
      "duration": 0.457,
      "velocity": 91,
      "chip": "ym2612"
    },
    {
      "channel": 5,
      "note": 81,
      "start": 3.6503,
      "duration": 0.3396,
      "velocity": 96,
      "chip": "ym2612"
    },
    {
      "channel": 2,
      "note": 37,
      "start": 3.651,
      "duration": 0.1283,
      "velocity": 120,
      "chip": "ym2612"
    },
    {
      "channel": 3,
      "note": 73,
      "start": 3.7598,
      "duration": 0.1168,
      "velocity": 91,
      "chip": "ym2612"
    },
    {
      "channel": 1,
      "note": 81,
      "start": 3.7976,
      "duration": 0.3434,
      "velocity": 96,
      "chip": "ym2612"
    },
    {
      "channel": 3,
      "note": 66,
      "start": 3.8772,
      "duration": 0.1117,
      "velocity": 91,
      "chip": "ym2612"
    },
    {
      "channel": 2,
      "note": 41,
      "start": 3.8787,
      "duration": 0.2237,
      "velocity": 127,
      "chip": "ym2612"
    },
    {
      "channel": 0,
      "note": 68,
      "start": 3.9884,
      "duration": 0.3461,
      "velocity": 75,
      "chip": "ym2612"
    },
    {
      "channel": 3,
      "note": 78,
      "start": 3.9895,
      "duration": 0.1163,
      "velocity": 91,
      "chip": "ym2612"
    },
    {
      "channel": 5,
      "note": 80,
      "start": 3.9906,
      "duration": 0.3461,
      "velocity": 96,
      "chip": "ym2612"
    },
    {
      "channel": 3,
      "note": 73,
      "start": 4.1064,
      "duration": 0.1141,
      "velocity": 91,
      "chip": "ym2612"
    },
    {
      "channel": 4,
      "note": 54,
      "start": 4.1072,
      "duration": 0.1141,
      "velocity": 91,
      "chip": "ym2612"
    },
    {
      "channel": 2,
      "note": 37,
      "start": 4.1083,
      "duration": 0.1088,
      "velocity": 120,
      "chip": "ym2612"
    },
    {
      "channel": 1,
      "note": 80,
      "start": 4.1415,
      "duration": 0.3435,
      "velocity": 96,
      "chip": "ym2612"
    },
    {
      "channel": 3,
      "note": 66,
      "start": 4.2211,
      "duration": 0.1144,
      "velocity": 91,
      "chip": "ym2612"
    },
    {
      "channel": 4,
      "note": 54,
      "start": 4.2219,
      "duration": 0.2288,
      "velocity": 91,
      "chip": "ym2612"
    },
    {
      "channel": 2,
      "note": 37,
      "start": 4.2229,
      "duration": 0.1088,
      "velocity": 120,
      "chip": "ym2612"
    },
    {
      "channel": 0,
      "note": 66,
      "start": 4.3351,
      "duration": 1.1463,
      "velocity": 75,
      "chip": "ym2612"
    },
    {
      "channel": 3,
      "note": 78,
      "start": 4.3362,
      "duration": 0.1137,
      "velocity": 91,
      "chip": "ym2612"
    },
    {
      "channel": 5,
      "note": 78,
      "start": 4.3373,
      "duration": 1.1471,
      "velocity": 96,
      "chip": "ym2612"
    },
    {
      "channel": 2,
      "note": 41,
      "start": 4.338,
      "duration": 0.1083,
      "velocity": 127,
      "chip": "ym2612"
    },
    {
      "channel": 3,
      "note": 73,
      "start": 4.4505,
      "duration": 0.1113,
      "velocity": 91,
      "chip": "ym2612"
    },
    {
      "channel": 4,
      "note": 54,
      "start": 4.4512,
      "duration": 0.5702,
      "velocity": 91,
      "chip": "ym2612"
    },
    {
      "channel": 2,
      "note": 37,
      "start": 4.4523,
      "duration": 0.1297,
      "velocity": 120,
      "chip": "ym2612"
    },
    {
      "channel": 1,
      "note": 78,
      "start": 4.4856,
      "duration": 1.146,
      "velocity": 96,
      "chip": "ym2612"
    },
    {
      "channel": 3,
      "note": 78,
      "start": 4.5624,
      "duration": 0.1168,
      "velocity": 91,
      "chip": "ym2612"
    },
    {
      "channel": 3,
      "note": 73,
      "start": 4.6798,
      "duration": 0.1141,
      "velocity": 91,
      "chip": "ym2612"
    },
    {
      "channel": 2,
      "note": 37,
      "start": 4.6812,
      "duration": 0.1093,
      "velocity": 120,
      "chip": "ym2612"
    },
    {
      "channel": 3,
      "note": 66,
      "start": 4.7945,
      "duration": 0.114,
      "velocity": 91,
      "chip": "ym2612"
    },
    {
      "channel": 2,
      "note": 41,
      "start": 4.796,
      "duration": 0.109,
      "velocity": 127,
      "chip": "ym2612"
    },
    {
      "channel": 3,
      "note": 78,
      "start": 4.9091,
      "duration": 0.1115,
      "velocity": 91,
      "chip": "ym2612"
    },
    {
      "channel": 2,
      "note": 37,
      "start": 4.9105,
      "duration": 0.1301,
      "velocity": 120,
      "chip": "ym2612"
    },
    {
      "channel": 3,
      "note": 73,
      "start": 5.0212,
      "duration": 0.1166,
      "velocity": 91,
      "chip": "ym2612"
    },
    {
      "channel": 4,
      "note": 54,
      "start": 5.022,
      "duration": 0.1166,
      "velocity": 91,
      "chip": "ym2612"
    },
    {
      "channel": 3,
      "note": 66,
      "start": 5.1384,
      "duration": 0.1142,
      "velocity": 91,
      "chip": "ym2612"
    },
    {
      "channel": 4,
      "note": 54,
      "start": 5.1391,
      "duration": 0.1142,
      "velocity": 91,
      "chip": "ym2612"
    },
    {
      "channel": 2,
      "note": 37,
      "start": 5.1402,
      "duration": 0.1088,
      "velocity": 120,
      "chip": "ym2612"
    },
    {
      "channel": 3,
      "note": 76,
      "start": 5.2531,
      "duration": 0.1144,
      "velocity": 91,
      "chip": "ym2612"
    },
    {
      "channel": 4,
      "note": 52,
      "start": 5.2539,
      "duration": 0.1144,
      "velocity": 91,
      "chip": "ym2612"
    },
    {
      "channel": 2,
      "note": 41,
      "start": 5.255,
      "duration": 0.109,
      "velocity": 127,
      "chip": "ym2612"
    },
    {
      "channel": 3,
      "note": 64,
      "start": 5.3681,
      "duration": 0.1146,
      "velocity": 91,
      "chip": "ym2612"
    },
    {
      "channel": 4,
      "note": 52,
      "start": 5.3689,
      "duration": 0.1148,
      "velocity": 91,
      "chip": "ym2612"
    },
    {
      "channel": 2,
      "note": 37,
      "start": 5.3699,
      "duration": 0.1086,
      "velocity": 120,
      "chip": "ym2612"
    },
    {
      "channel": 0,
      "note": 69,
      "start": 5.482,
      "duration": 0.9137,
      "velocity": 75,
      "chip": "ym2612"
    },
    {
      "channel": 3,
      "note": 74,
      "start": 5.4833,
      "duration": 0.1105,
      "velocity": 91,
      "chip": "ym2612"
    },
    {
      "channel": 4,
      "note": 50,
      "start": 5.4842,
      "duration": 0.457,
      "velocity": 91,
      "chip": "ym2612"
    },
    {
      "channel": 5,
      "note": 81,
      "start": 5.485,
      "duration": 0.913,
      "velocity": 96,
      "chip": "ym2612"
    },
    {
      "channel": 2,
      "note": 37,
      "start": 5.4857,
      "duration": 0.1282,
      "velocity": 120,
      "chip": "ym2612"
    },
    {
      "channel": 3,
      "note": 69,
      "start": 5.5944,
      "duration": 0.1168,
      "velocity": 91,
      "chip": "ym2612"
    },
    {
      "channel": 1,
      "note": 81,
      "start": 5.6323,
      "duration": 0.9166,
      "velocity": 96,
      "chip": "ym2612"
    },
    {
      "channel": 3,
      "note": 62,
      "start": 5.7118,
      "duration": 0.1113,
      "velocity": 91,
      "chip": "ym2612"
    },
    {
      "channel": 2,
      "note": 41,
      "start": 5.7133,
      "duration": 0.2237,
      "velocity": 127,
      "chip": "ym2612"
    },
    {
      "channel": 3,
      "note": 74,
      "start": 5.8237,
      "duration": 0.1168,
      "velocity": 91,
      "chip": "ym2612"
    },
    {
      "channel": 3,
      "note": 69,
      "start": 5.9411,
      "duration": 0.1141,
      "velocity": 91,
      "chip": "ym2612"
    },
    {
      "channel": 4,
      "note": 50,
      "start": 5.9418,
      "duration": 0.1141,
      "velocity": 91,
      "chip": "ym2612"
    },
    {
      "channel": 2,
      "note": 37,
      "start": 5.9429,
      "duration": 0.1088,
      "velocity": 120,
      "chip": "ym2612"
    },
    {
      "channel": 3,
      "note": 62,
      "start": 6.0557,
      "duration": 0.1141,
      "velocity": 91,
      "chip": "ym2612"
    },
    {
      "channel": 4,
      "note": 50,
      "start": 6.0565,
      "duration": 0.2287,
      "velocity": 91,
      "chip": "ym2612"
    },
    {
      "channel": 2,
      "note": 37,
      "start": 6.0576,
      "duration": 0.1087,
      "velocity": 120,
      "chip": "ym2612"
    },
    {
      "channel": 3,
      "note": 74,
      "start": 6.1704,
      "duration": 0.1141,
      "velocity": 91,
      "chip": "ym2612"
    },
    {
      "channel": 2,
      "note": 41,
      "start": 6.1719,
      "duration": 0.1091,
      "velocity": 127,
      "chip": "ym2612"
    },
    {
      "channel": 3,
      "note": 69,
      "start": 6.2851,
      "duration": 0.1118,
      "velocity": 91,
      "chip": "ym2612"
    },
    {
      "channel": 4,
      "note": 52,
      "start": 6.2858,
      "duration": 0.5701,
      "velocity": 91,
      "chip": "ym2612"
    },
    {
      "channel": 2,
      "note": 37,
      "start": 6.2868,
      "duration": 0.1297,
      "velocity": 120,
      "chip": "ym2612"
    },
    {
      "channel": 0,
      "note": 71,
      "start": 6.3964,
      "duration": 0.3461,
      "velocity": 75,
      "chip": "ym2612"
    },
    {
      "channel": 3,
      "note": 76,
      "start": 6.3975,
      "duration": 0.1163,
      "velocity": 91,
      "chip": "ym2612"
    },
    {
      "channel": 5,
      "note": 83,
      "start": 6.3985,
      "duration": 0.3461,
      "velocity": 96,
      "chip": "ym2612"
    },
    {
      "channel": 3,
      "note": 71,
      "start": 6.5144,
      "duration": 0.1141,
      "velocity": 91,
      "chip": "ym2612"
    },
    {
      "channel": 2,
      "note": 37,
      "start": 6.5158,
      "duration": 0.1092,
      "velocity": 120,
      "chip": "ym2612"
    },
    {
      "channel": 1,
      "note": 83,
      "start": 6.5495,
      "duration": 0.3434,
      "velocity": 96,
      "chip": "ym2612"
    },
    {
      "channel": 3,
      "note": 64,
      "start": 6.629,
      "duration": 0.1146,
      "velocity": 91,
      "chip": "ym2612"
    },
    {
      "channel": 2,
      "note": 41,
      "start": 6.6305,
      "duration": 0.1091,
      "velocity": 127,
      "chip": "ym2612"
    },
    {
      "channel": 0,
      "note": 69,
      "start": 6.7431,
      "duration": 0.3434,
      "velocity": 75,
      "chip": "ym2612"
    },
    {
      "channel": 3,
      "note": 76,
      "start": 6.7441,
      "duration": 0.111,
      "velocity": 91,
      "chip": "ym2612"
    },
    {
      "channel": 5,
      "note": 81,
      "start": 6.7453,
      "duration": 0.3433,
      "velocity": 96,
      "chip": "ym2612"
    },
    {
      "channel": 2,
      "note": 37,
      "start": 6.746,
      "duration": 0.1293,
      "velocity": 120,
      "chip": "ym2612"
    },
    {
      "channel": 3,
      "note": 71,
      "start": 6.8557,
      "duration": 0.1167,
      "velocity": 91,
      "chip": "ym2612"
    },
    {
      "channel": 4,
      "note": 52,
      "start": 6.8564,
      "duration": 0.1168,
      "velocity": 91,
      "chip": "ym2612"
    },
    {
      "channel": 1,
      "note": 81,
      "start": 6.8935,
      "duration": 0.3433,
      "velocity": 96,
      "chip": "ym2612"
    },
    {
      "channel": 3,
      "note": 64,
      "start": 6.973,
      "duration": 0.1145,
      "velocity": 91,
      "chip": "ym2612"
    },
    {
      "channel": 4,
      "note": 52,
      "start": 6.9739,
      "duration": 0.3443,
      "velocity": 91,
      "chip": "ym2612"
    },
    {
      "channel": 2,
      "note": 37,
      "start": 6.9749,
      "duration": 0.1088,
      "velocity": 120,
      "chip": "ym2612"
    },
    {
      "channel": 0,
      "note": 76,
      "start": 7.087,
      "duration": 0.229,
      "velocity": 75,
      "chip": "ym2612"
    },
    {
      "channel": 3,
      "note": 76,
      "start": 7.0881,
      "duration": 0.1137,
      "velocity": 91,
      "chip": "ym2612"
    },
    {
      "channel": 5,
      "note": 88,
      "start": 7.0893,
      "duration": 0.2297,
      "velocity": 96,
      "chip": "ym2612"
    },
    {
      "channel": 2,
      "note": 41,
      "start": 7.09,
      "duration": 0.1083,
      "velocity": 127,
      "chip": "ym2612"
    },
    {
      "channel": 3,
      "note": 71,
      "start": 7.2024,
      "duration": 0.115,
      "velocity": 91,
      "chip": "ym2612"
    },
    {
      "channel": 2,
      "note": 37,
      "start": 7.2038,
      "duration": 0.1094,
      "velocity": 120,
      "chip": "ym2612"
    },
    {
      "channel": 1,
      "note": 88,
      "start": 7.2375,
      "duration": 0.2287,
      "velocity": 96,
      "chip": "ym2612"
    },
    {
      "channel": 0,
      "note": 73,
      "start": 7.3166,
      "duration": 1.8341,
      "velocity": 75,
      "chip": "ym2612"
    },
    {
      "channel": 3,
      "note": 78,
      "start": 7.3179,
      "duration": 0.1104,
      "velocity": 91,
      "chip": "ym2612"
    },
    {
      "channel": 4,
      "note": 54,
      "start": 7.3187,
      "duration": 0.4573,
      "velocity": 91,
      "chip": "ym2612"
    },
    {
      "channel": 5,
      "note": 85,
      "start": 7.3195,
      "duration": 1.8341,
      "velocity": 96,
      "chip": "ym2612"
    },
    {
      "channel": 2,
      "note": 37,
      "start": 7.3202,
      "duration": 0.1283,
      "velocity": 120,
      "chip": "ym2612"
    },
    {
      "channel": 3,
      "note": 73,
      "start": 7.4289,
      "duration": 0.1169,
      "velocity": 91,
      "chip": "ym2612"
    },
    {
      "channel": 1,
      "note": 85,
      "start": 7.4668,
      "duration": 1.834,
      "velocity": 96,
      "chip": "ym2612"
    },
    {
      "channel": 3,
      "note": 66,
      "start": 7.5463,
      "duration": 0.1115,
      "velocity": 91,
      "chip": "ym2612"
    },
    {
      "channel": 2,
      "note": 41,
      "start": 7.5478,
      "duration": 0.2238,
      "velocity": 127,
      "chip": "ym2612"
    },
    {
      "channel": 3,
      "note": 78,
      "start": 7.6583,
      "duration": 0.1168,
      "velocity": 91,
      "chip": "ym2612"
    },
    {
      "channel": 3,
      "note": 73,
      "start": 7.7758,
      "duration": 0.114,
      "velocity": 91,
      "chip": "ym2612"
    },
    {
      "channel": 4,
      "note": 54,
      "start": 7.7765,
      "duration": 0.1141,
      "velocity": 91,
      "chip": "ym2612"
    },
    {
      "channel": 2,
      "note": 37,
      "start": 7.7776,
      "duration": 0.1087,
      "velocity": 120,
      "chip": "ym2612"
    },
    {
      "channel": 3,
      "note": 66,
      "start": 7.8904,
      "duration": 0.1141,
      "velocity": 91,
      "chip": "ym2612"
    },
    {
      "channel": 4,
      "note": 54,
      "start": 7.8912,
      "duration": 0.2287,
      "velocity": 91,
      "chip": "ym2612"
    },
    {
      "channel": 2,
      "note": 37,
      "start": 7.8922,
      "duration": 0.1089,
      "velocity": 120,
      "chip": "ym2612"
    },
    {
      "channel": 3,
      "note": 78,
      "start": 8.0051,
      "duration": 0.114,
      "velocity": 91,
      "chip": "ym2612"
    },
    {
      "channel": 2,
      "note": 41,
      "start": 8.0066,
      "duration": 0.109,
      "velocity": 127,
      "chip": "ym2612"
    },
    {
      "channel": 3,
      "note": 73,
      "start": 8.1197,
      "duration": 0.1114,
      "velocity": 91,
      "chip": "ym2612"
    },
    {
      "channel": 4,
      "note": 54,
      "start": 8.1204,
      "duration": 0.5701,
      "velocity": 91,
      "chip": "ym2612"
    },
    {
      "channel": 2,
      "note": 37,
      "start": 8.1215,
      "duration": 0.1296,
      "velocity": 120,
      "chip": "ym2612"
    },
    {
      "channel": 3,
      "note": 78,
      "start": 8.2317,
      "duration": 0.117,
      "velocity": 91,
      "chip": "ym2612"
    },
    {
      "channel": 3,
      "note": 73,
      "start": 8.3493,
      "duration": 0.1137,
      "velocity": 91,
      "chip": "ym2612"
    },
    {
      "channel": 2,
      "note": 37,
      "start": 8.3507,
      "duration": 0.1088,
      "velocity": 120,
      "chip": "ym2612"
    },
    {
      "channel": 3,
      "note": 71,
      "start": 8.4636,
      "duration": 0.1141,
      "velocity": 91,
      "chip": "ym2612"
    },
    {
      "channel": 2,
      "note": 41,
      "start": 8.4651,
      "duration": 0.1091,
      "velocity": 127,
      "chip": "ym2612"
    },
    {
      "channel": 3,
      "note": 73,
      "start": 8.5783,
      "duration": 0.1114,
      "velocity": 91,
      "chip": "ym2612"
    },
    {
      "channel": 2,
      "note": 37,
      "start": 8.5797,
      "duration": 0.1301,
      "velocity": 120,
      "chip": "ym2612"
    },
    {
      "channel": 3,
      "note": 71,
      "start": 8.6903,
      "duration": 0.1168,
      "velocity": 91,
      "chip": "ym2612"
    },
    {
      "channel": 4,
      "note": 54,
      "start": 8.6911,
      "duration": 0.1168,
      "velocity": 91,
      "chip": "ym2612"
    },
    {
      "channel": 3,
      "note": 69,
      "start": 8.8077,
      "duration": 0.114,
      "velocity": 91,
      "chip": "ym2612"
    },
    {
      "channel": 4,
      "note": 54,
      "start": 8.8085,
      "duration": 0.114,
      "velocity": 91,
      "chip": "ym2612"
    },
    {
      "channel": 2,
      "note": 37,
      "start": 8.8095,
      "duration": 0.1087,
      "velocity": 120,
      "chip": "ym2612"
    },
    {
      "channel": 3,
      "note": 68,
      "start": 8.9223,
      "duration": 0.1141,
      "velocity": 91,
      "chip": "ym2612"
    },
    {
      "channel": 4,
      "note": 52,
      "start": 8.923,
      "duration": 0.1141,
      "velocity": 91,
      "chip": "ym2612"
    },
    {
      "channel": 2,
      "note": 41,
      "start": 8.9242,
      "duration": 0.1087,
      "velocity": 127,
      "chip": "ym2612"
    },
    {
      "channel": 3,
      "note": 66,
      "start": 9.037,
      "duration": 0.115,
      "velocity": 91,
      "chip": "ym2612"
    },
    {
      "channel": 4,
      "note": 52,
      "start": 9.0377,
      "duration": 0.1153,
      "velocity": 91,
      "chip": "ym2612"
    },
    {
      "channel": 2,
      "note": 37,
      "start": 9.0388,
      "duration": 0.1091,
      "velocity": 120,
      "chip": "ym2612"
    },
    {
      "channel": 0,
      "note": 69,
      "start": 9.1513,
      "duration": 0.9137,
      "velocity": 75,
      "chip": "ym2612"
    },
    {
      "channel": 3,
      "note": 74,
      "start": 9.1526,
      "duration": 0.1104,
      "velocity": 91,
      "chip": "ym2612"
    },
    {
      "channel": 4,
      "note": 50,
      "start": 9.1535,
      "duration": 0.4571,
      "velocity": 91,
      "chip": "ym2612"
    },
    {
      "channel": 5,
      "note": 81,
      "start": 9.1543,
      "duration": 0.9129,
      "velocity": 96,
      "chip": "ym2612"
    },
    {
      "channel": 2,
      "note": 37,
      "start": 9.155,
      "duration": 0.1283,
      "velocity": 120,
      "chip": "ym2612"
    },
    {
      "channel": 3,
      "note": 69,
      "start": 9.2636,
      "duration": 0.1167,
      "velocity": 91,
      "chip": "ym2612"
    },
    {
      "channel": 1,
      "note": 81,
      "start": 9.3015,
      "duration": 0.9166,
      "velocity": 96,
      "chip": "ym2612"
    },
    {
      "channel": 3,
      "note": 62,
      "start": 9.3809,
      "duration": 0.1114,
      "velocity": 91,
      "chip": "ym2612"
    },
    {
      "channel": 2,
      "note": 41,
      "start": 9.3824,
      "duration": 0.2238,
      "velocity": 127,
      "chip": "ym2612"
    },
    {
      "channel": 3,
      "note": 74,
      "start": 9.4929,
      "duration": 0.1169,
      "velocity": 91,
      "chip": "ym2612"
    },
    {
      "channel": 3,
      "note": 69,
      "start": 9.6104,
      "duration": 0.114,
      "velocity": 91,
      "chip": "ym2612"
    },
    {
      "channel": 4,
      "note": 50,
      "start": 9.6112,
      "duration": 0.114,
      "velocity": 91,
      "chip": "ym2612"
    },
    {
      "channel": 2,
      "note": 37,
      "start": 9.6122,
      "duration": 0.1087,
      "velocity": 120,
      "chip": "ym2612"
    },
    {
      "channel": 3,
      "note": 62,
      "start": 9.7249,
      "duration": 0.1141,
      "velocity": 91,
      "chip": "ym2612"
    },
    {
      "channel": 4,
      "note": 50,
      "start": 9.7257,
      "duration": 0.2287,
      "velocity": 91,
      "chip": "ym2612"
    },
    {
      "channel": 2,
      "note": 37,
      "start": 9.7268,
      "duration": 0.1087,
      "velocity": 120,
      "chip": "ym2612"
    },
    {
      "channel": 3,
      "note": 74,
      "start": 9.8396,
      "duration": 0.114,
      "velocity": 91,
      "chip": "ym2612"
    },
    {
      "channel": 2,
      "note": 41,
      "start": 9.8411,
      "duration": 0.109,
      "velocity": 127,
      "chip": "ym2612"
    },
    {
      "channel": 3,
      "note": 69,
      "start": 9.9542,
      "duration": 0.1119,
      "velocity": 91,
      "chip": "ym2612"
    },
    {
      "channel": 4,
      "note": 52,
      "start": 9.955,
      "duration": 0.5702,
      "velocity": 91,
      "chip": "ym2612"
    },
    {
      "channel": 2,
      "note": 37,
      "start": 9.9561,
      "duration": 0.1297,
      "velocity": 120,
      "chip": "ym2612"
    },
    {
      "channel": 0,
      "note": 71,
      "start": 10.0656,
      "duration": 0.3461,
      "velocity": 75,
      "chip": "ym2612"
    },
    {
      "channel": 3,
      "note": 76,
      "start": 10.0667,
      "duration": 0.1163,
      "velocity": 91,
      "chip": "ym2612"
    },
    {
      "channel": 5,
      "note": 83,
      "start": 10.0678,
      "duration": 0.346,
      "velocity": 96,
      "chip": "ym2612"
    },
    {
      "channel": 3,
      "note": 71,
      "start": 10.1836,
      "duration": 0.1141,
      "velocity": 91,
      "chip": "ym2612"
    },
    {
      "channel": 2,
      "note": 37,
      "start": 10.185,
      "duration": 0.1091,
      "velocity": 120,
      "chip": "ym2612"
    },
    {
      "channel": 1,
      "note": 83,
      "start": 10.2187,
      "duration": 0.3434,
      "velocity": 96,
      "chip": "ym2612"
    },
    {
      "channel": 3,
      "note": 64,
      "start": 10.2982,
      "duration": 0.1145,
      "velocity": 91,
      "chip": "ym2612"
    },
    {
      "channel": 2,
      "note": 41,
      "start": 10.2998,
      "duration": 0.1091,
      "velocity": 127,
      "chip": "ym2612"
    },
    {
      "channel": 0,
      "note": 69,
      "start": 10.4123,
      "duration": 0.3433,
      "velocity": 75,
      "chip": "ym2612"
    },
    {
      "channel": 3,
      "note": 76,
      "start": 10.4134,
      "duration": 0.111,
      "velocity": 91,
      "chip": "ym2612"
    },
    {
      "channel": 5,
      "note": 81,
      "start": 10.4144,
      "duration": 0.3434,
      "velocity": 96,
      "chip": "ym2612"
    },
    {
      "channel": 2,
      "note": 37,
      "start": 10.4151,
      "duration": 0.1293,
      "velocity": 120,
      "chip": "ym2612"
    },
    {
      "channel": 3,
      "note": 71,
      "start": 10.525,
      "duration": 0.1167,
      "velocity": 91,
      "chip": "ym2612"
    },
    {
      "channel": 4,
      "note": 52,
      "start": 10.5257,
      "duration": 0.1167,
      "velocity": 91,
      "chip": "ym2612"
    },
    {
      "channel": 1,
      "note": 81,
      "start": 10.5627,
      "duration": 0.3434,
      "velocity": 96,
      "chip": "ym2612"
    },
    {
      "channel": 3,
      "note": 64,
      "start": 10.6422,
      "duration": 0.1144,
      "velocity": 91,
      "chip": "ym2612"
    },
    {
      "channel": 4,
      "note": 52,
      "start": 10.643,
      "duration": 0.3444,
      "velocity": 91,
      "chip": "ym2612"
    },
    {
      "channel": 2,
      "note": 37,
      "start": 10.6441,
      "duration": 0.1087,
      "velocity": 120,
      "chip": "ym2612"
    },
    {
      "channel": 0,
      "note": 68,
      "start": 10.7563,
      "duration": 0.2292,
      "velocity": 75,
      "chip": "ym2612"
    },
    {
      "channel": 3,
      "note": 76,
      "start": 10.7573,
      "duration": 0.1137,
      "velocity": 91,
      "chip": "ym2612"
    },
    {
      "channel": 5,
      "note": 80,
      "start": 10.7585,
      "duration": 0.2297,
      "velocity": 96,
      "chip": "ym2612"
    },
    {
      "channel": 2,
      "note": 41,
      "start": 10.7592,
      "duration": 0.1083,
      "velocity": 127,
      "chip": "ym2612"
    },
    {
      "channel": 3,
      "note": 71,
      "start": 10.8716,
      "duration": 0.115,
      "velocity": 91,
      "chip": "ym2612"
    },
    {
      "channel": 2,
      "note": 37,
      "start": 10.873,
      "duration": 0.1095,
      "velocity": 120,
      "chip": "ym2612"
    },
    {
      "channel": 1,
      "note": 80,
      "start": 10.9068,
      "duration": 0.2287,
      "velocity": 96,
      "chip": "ym2612"
    },
    {
      "channel": 0,
      "note": 66,
      "start": 10.986,
      "duration": 0.3434,
      "velocity": 75,
      "chip": "ym2612"
    },
    {
      "channel": 3,
      "note": 66,
      "start": 10.9872,
      "duration": 0.1132,
      "velocity": 91,
      "chip": "ym2612"
    },
    {
      "channel": 4,
      "note": 54,
      "start": 10.988,
      "duration": 0.3433,
      "velocity": 91,
      "chip": "ym2612"
    },
    {
      "channel": 5,
      "note": 78,
      "start": 10.9888,
      "duration": 0.3432,
      "velocity": 96,
      "chip": "ym2612"
    },
    {
      "channel": 2,
      "note": 41,
      "start": 10.9896,
      "duration": 0.1073,
      "velocity": 127,
      "chip": "ym2612"
    },
    {
      "channel": 3,
      "note": 78,
      "start": 11.101,
      "duration": 0.1141,
      "velocity": 91,
      "chip": "ym2612"
    },
    {
      "channel": 2,
      "note": 37,
      "start": 11.1024,
      "duration": 0.1092,
      "velocity": 120,
      "chip": "ym2612"
    },
    {
      "channel": 1,
      "note": 78,
      "start": 11.1361,
      "duration": 0.3434,
      "velocity": 96,
      "chip": "ym2612"
    },
    {
      "channel": 3,
      "note": 66,
      "start": 11.2156,
      "duration": 0.1149,
      "velocity": 91,
      "chip": "ym2612"
    },
    {
      "channel": 2,
      "note": 37,
      "start": 11.217,
      "duration": 0.1096,
      "velocity": 120,
      "chip": "ym2612"
    },
    {
      "channel": 0,
      "note": 73,
      "start": 11.33,
      "duration": 0.343,
      "velocity": 75,
      "chip": "ym2612"
    },
    {
      "channel": 3,
      "note": 64,
      "start": 11.3311,
      "duration": 0.1132,
      "velocity": 91,
      "chip": "ym2612"
    },
    {
      "channel": 4,
      "note": 52,
      "start": 11.3318,
      "duration": 0.3431,
      "velocity": 91,
      "chip": "ym2612"
    },
    {
      "channel": 5,
      "note": 85,
      "start": 11.3326,
      "duration": 0.343,
      "velocity": 96,
      "chip": "ym2612"
    },
    {
      "channel": 2,
      "note": 41,
      "start": 11.3334,
      "duration": 0.1074,
      "velocity": 127,
      "chip": "ym2612"
    },
    {
      "channel": 3,
      "note": 76,
      "start": 11.4449,
      "duration": 0.1142,
      "velocity": 91,
      "chip": "ym2612"
    },
    {
      "channel": 2,
      "note": 37,
      "start": 11.4463,
      "duration": 0.1093,
      "velocity": 120,
      "chip": "ym2612"
    },
    {
      "channel": 1,
      "note": 85,
      "start": 11.4801,
      "duration": 0.3434,
      "velocity": 96,
      "chip": "ym2612"
    },
    {
      "channel": 3,
      "note": 64,
      "start": 11.5597,
      "duration": 0.1144,
      "velocity": 91,
      "chip": "ym2612"
    },
    {
      "channel": 2,
      "note": 37,
      "start": 11.5611,
      "duration": 0.1091,
      "velocity": 120,
      "chip": "ym2612"
    },
    {
      "channel": 0,
      "note": 78,
      "start": 11.6737,
      "duration": 0.6872,
      "velocity": 75,
      "chip": "ym2612"
    },
    {
      "channel": 3,
      "note": 62,
      "start": 11.6748,
      "duration": 0.6873,
      "velocity": 91,
      "chip": "ym2612"
    },
    {
      "channel": 4,
      "note": 50,
      "start": 11.6755,
      "duration": 0.3425,
      "velocity": 91,
      "chip": "ym2612"
    },
    {
      "channel": 5,
      "note": 90,
      "start": 11.6762,
      "duration": 0.6873,
      "velocity": 96,
      "chip": "ym2612"
    },
    {
      "channel": 2,
      "note": 41,
      "start": 11.677,
      "duration": 0.1078,
      "velocity": 127,
      "chip": "ym2612"
    },
    {
      "channel": 2,
      "note": 37,
      "start": 11.7899,
      "duration": 0.1096,
      "velocity": 120,
      "chip": "ym2612"
    },
    {
      "channel": 1,
      "note": 90,
      "start": 11.8241,
      "duration": 0.6873,
      "velocity": 96,
      "chip": "ym2612"
    },
    {
      "channel": 2,
      "note": 37,
      "start": 11.9046,
      "duration": 0.1095,
      "velocity": 120,
      "chip": "ym2612"
    },
    {
      "channel": 4,
      "note": 50,
      "start": 12.0186,
      "duration": 0.3442,
      "velocity": 91,
      "chip": "ym2612"
    },
    {
      "channel": 2,
      "note": 41,
      "start": 12.0197,
      "duration": 0.1091,
      "velocity": 127,
      "chip": "ym2612"
    },
    {
      "channel": 2,
      "note": 37,
      "start": 12.1339,
      "duration": 0.1095,
      "velocity": 120,
      "chip": "ym2612"
    },
    {
      "channel": 2,
      "note": 37,
      "start": 12.2485,
      "duration": 0.1095,
      "velocity": 120,
      "chip": "ym2612"
    },
    {
      "channel": 0,
      "note": 78,
      "start": 12.3615,
      "duration": 0.2288,
      "velocity": 75,
      "chip": "ym2612"
    },
    {
      "channel": 3,
      "note": 74,
      "start": 12.3626,
      "duration": 0.1137,
      "velocity": 91,
      "chip": "ym2612"
    },
    {
      "channel": 4,
      "note": 50,
      "start": 12.3634,
      "duration": 0.2288,
      "velocity": 91,
      "chip": "ym2612"
    },
    {
      "channel": 5,
      "note": 90,
      "start": 12.3641,
      "duration": 0.2288,
      "velocity": 96,
      "chip": "ym2612"
    },
    {
      "channel": 2,
      "note": 41,
      "start": 12.3649,
      "duration": 0.1079,
      "velocity": 127,
      "chip": "ym2612"
    },
    {
      "channel": 3,
      "note": 64,
      "start": 12.4769,
      "duration": 0.1145,
      "velocity": 91,
      "chip": "ym2612"
    },
    {
      "channel": 2,
      "note": 41,
      "start": 12.4784,
      "duration": 0.1091,
      "velocity": 127,
      "chip": "ym2612"
    },
    {
      "channel": 1,
      "note": 90,
      "start": 12.5121,
      "duration": 0.2288,
      "velocity": 96,
      "chip": "ym2612"
    },
    {
      "channel": 0,
      "note": 80,
      "start": 12.5909,
      "duration": 0.229,
      "velocity": 75,
      "chip": "ym2612"
    },
    {
      "channel": 3,
      "note": 76,
      "start": 12.5921,
      "duration": 0.2289,
      "velocity": 91,
      "chip": "ym2612"
    },
    {
      "channel": 4,
      "note": 52,
      "start": 12.5928,
      "duration": 0.2291,
      "velocity": 91,
      "chip": "ym2612"
    },
    {
      "channel": 5,
      "note": 92,
      "start": 12.5935,
      "duration": 0.229,
      "velocity": 96,
      "chip": "ym2612"
    },
    {
      "channel": 2,
      "note": 41,
      "start": 12.5943,
      "duration": 0.1079,
      "velocity": 127,
      "chip": "ym2612"
    },
    {
      "channel": 2,
      "note": 41,
      "start": 12.7074,
      "duration": 0.1096,
      "velocity": 127,
      "chip": "ym2612"
    },
    {
      "channel": 1,
      "note": 92,
      "start": 12.7414,
      "duration": 0.2288,
      "velocity": 96,
      "chip": "ym2612"
    },
    {
      "channel": 0,
      "note": 81,
      "start": 12.8204,
      "duration": 0.3404,
      "velocity": 75,
      "chip": "ym2612"
    },
    {
      "channel": 3,
      "note": 74,
      "start": 12.8216,
      "duration": 0.1106,
      "velocity": 91,
      "chip": "ym2612"
    },
    {
      "channel": 4,
      "note": 50,
      "start": 12.8224,
      "duration": 0.2279,
      "velocity": 91,
      "chip": "ym2612"
    },
    {
      "channel": 5,
      "note": 93,
      "start": 12.8232,
      "duration": 0.3402,
      "velocity": 96,
      "chip": "ym2612"
    },
    {
      "channel": 2,
      "note": 37,
      "start": 12.8239,
      "duration": 0.1285,
      "velocity": 120,
      "chip": "ym2612"
    },
    {
      "channel": 3,
      "note": 69,
      "start": 12.9328,
      "duration": 0.1167,
      "velocity": 91,
      "chip": "ym2612"
    },
    {
      "channel": 1,
      "note": 93,
      "start": 12.9708,
      "duration": 0.3436,
      "velocity": 96,
      "chip": "ym2612"
    },
    {
      "channel": 3,
      "note": 62,
      "start": 13.0501,
      "duration": 0.1118,
      "velocity": 91,
      "chip": "ym2612"
    },
    {
      "channel": 4,
      "note": 50,
      "start": 13.0509,
      "duration": 0.1117,
      "velocity": 91,
      "chip": "ym2612"
    },
    {
      "channel": 2,
      "note": 41,
      "start": 13.052,
      "duration": 0.2234,
      "velocity": 127,
      "chip": "ym2612"
    },
    {
      "channel": 0,
      "note": 80,
      "start": 13.1614,
      "duration": 0.3462,
      "velocity": 75,
      "chip": "ym2612"
    },
    {
      "channel": 3,
      "note": 74,
      "start": 13.1625,
      "duration": 0.1164,
      "velocity": 91,
      "chip": "ym2612"
    },
    {
      "channel": 4,
      "note": 50,
      "start": 13.1632,
      "duration": 0.2312,
      "velocity": 91,
      "chip": "ym2612"
    },
    {
      "channel": 5,
      "note": 92,
      "start": 13.1639,
      "duration": 0.3459,
      "velocity": 96,
      "chip": "ym2612"
    },
    {
      "channel": 3,
      "note": 69,
      "start": 13.2795,
      "duration": 0.1141,
      "velocity": 91,
      "chip": "ym2612"
    },
    {
      "channel": 2,
      "note": 37,
      "start": 13.2809,
      "duration": 0.1092,
      "velocity": 120,
      "chip": "ym2612"
    },
    {
      "channel": 1,
      "note": 92,
      "start": 13.3151,
      "duration": 0.343,
      "velocity": 96,
      "chip": "ym2612"
    },
    {
      "channel": 3,
      "note": 62,
      "start": 13.3942,
      "duration": 0.1145,
      "velocity": 91,
      "chip": "ym2612"
    },
    {
      "channel": 4,
      "note": 50,
      "start": 13.395,
      "duration": 0.2287,
      "velocity": 91,
      "chip": "ym2612"
    },
    {
      "channel": 2,
      "note": 37,
      "start": 13.396,
      "duration": 0.1088,
      "velocity": 120,
      "chip": "ym2612"
    },
    {
      "channel": 0,
      "note": 78,
      "start": 13.5083,
      "duration": 0.226,
      "velocity": 75,
      "chip": "ym2612"
    },
    {
      "channel": 3,
      "note": 74,
      "start": 13.5094,
      "duration": 0.1136,
      "velocity": 91,
      "chip": "ym2612"
    },
    {
      "channel": 5,
      "note": 90,
      "start": 13.5105,
      "duration": 0.2264,
      "velocity": 96,
      "chip": "ym2612"
    },
    {
      "channel": 2,
      "note": 41,
      "start": 13.5113,
      "duration": 0.1081,
      "velocity": 127,
      "chip": "ym2612"
    },
    {
      "channel": 3,
      "note": 69,
      "start": 13.6236,
      "duration": 0.1118,
      "velocity": 91,
      "chip": "ym2612"
    },
    {
      "channel": 4,
      "note": 50,
      "start": 13.6242,
      "duration": 0.1119,
      "velocity": 91,
      "chip": "ym2612"
    },
    {
      "channel": 2,
      "note": 37,
      "start": 13.6253,
      "duration": 0.1298,
      "velocity": 120,
      "chip": "ym2612"
    },
    {
      "channel": 1,
      "note": 90,
      "start": 13.6587,
      "duration": 0.2286,
      "velocity": 96,
      "chip": "ym2612"
    },
    {
      "channel": 0,
      "note": 80,
      "start": 13.7349,
      "duration": 0.3461,
      "velocity": 75,
      "chip": "ym2612"
    },
    {
      "channel": 3,
      "note": 76,
      "start": 13.736,
      "duration": 0.1163,
      "velocity": 91,
      "chip": "ym2612"
    },
    {
      "channel": 4,
      "note": 52,
      "start": 13.7367,
      "duration": 0.231,
      "velocity": 91,
      "chip": "ym2612"
    },
    {
      "channel": 5,
      "note": 92,
      "start": 13.7375,
      "duration": 0.346,
      "velocity": 96,
      "chip": "ym2612"
    },
    {
      "channel": 3,
      "note": 71,
      "start": 13.8529,
      "duration": 0.1141,
      "velocity": 91,
      "chip": "ym2612"
    },
    {
      "channel": 2,
      "note": 37,
      "start": 13.8543,
      "duration": 0.1092,
      "velocity": 120,
      "chip": "ym2612"
    },
    {
      "channel": 1,
      "note": 92,
      "start": 13.888,
      "duration": 0.3433,
      "velocity": 96,
      "chip": "ym2612"
    },
    {
      "channel": 3,
      "note": 64,
      "start": 13.9675,
      "duration": 0.1145,
      "velocity": 91,
      "chip": "ym2612"
    },
    {
      "channel": 4,
      "note": 52,
      "start": 13.9683,
      "duration": 0.1144,
      "velocity": 91,
      "chip": "ym2612"
    },
    {
      "channel": 2,
      "note": 41,
      "start": 13.9694,
      "duration": 0.1087,
      "velocity": 127,
      "chip": "ym2612"
    },
    {
      "channel": 0,
      "note": 78,
      "start": 14.0815,
      "duration": 0.3434,
      "velocity": 75,
      "chip": "ym2612"
    },
    {
      "channel": 3,
      "note": 76,
      "start": 14.0826,
      "duration": 0.111,
      "velocity": 91,
      "chip": "ym2612"
    },
    {
      "channel": 4,
      "note": 52,
      "start": 14.0833,
      "duration": 0.2288,
      "velocity": 91,
      "chip": "ym2612"
    },
    {
      "channel": 5,
      "note": 90,
      "start": 14.084,
      "duration": 0.3431,
      "velocity": 96,
      "chip": "ym2612"
    },
    {
      "channel": 2,
      "note": 37,
      "start": 14.0848,
      "duration": 0.1289,
      "velocity": 120,
      "chip": "ym2612"
    },
    {
      "channel": 3,
      "note": 71,
      "start": 14.1942,
      "duration": 0.1171,
      "velocity": 91,
      "chip": "ym2612"
    },
    {
      "channel": 1,
      "note": 90,
      "start": 14.232,
      "duration": 0.3434,
      "velocity": 96,
      "chip": "ym2612"
    },
    {
      "channel": 3,
      "note": 64,
      "start": 14.3118,
      "duration": 0.1142,
      "velocity": 91,
      "chip": "ym2612"
    },
    {
      "channel": 4,
      "note": 52,
      "start": 14.3126,
      "duration": 0.2284,
      "velocity": 91,
      "chip": "ym2612"
    },
    {
      "channel": 2,
      "note": 37,
      "start": 14.3136,
      "duration": 0.1085,
      "velocity": 120,
      "chip": "ym2612"
    },
    {
      "channel": 0,
      "note": 76,
      "start": 14.4255,
      "duration": 0.2289,
      "velocity": 75,
      "chip": "ym2612"
    },
    {
      "channel": 3,
      "note": 76,
      "start": 14.4266,
      "duration": 0.1137,
      "velocity": 91,
      "chip": "ym2612"
    },
    {
      "channel": 5,
      "note": 88,
      "start": 14.4277,
      "duration": 0.2296,
      "velocity": 96,
      "chip": "ym2612"
    },
    {
      "channel": 2,
      "note": 41,
      "start": 14.4285,
      "duration": 0.1082,
      "velocity": 127,
      "chip": "ym2612"
    },
    {
      "channel": 3,
      "note": 71,
      "start": 14.5409,
      "duration": 0.1148,
      "velocity": 91,
      "chip": "ym2612"
    },
    {
      "channel": 4,
      "note": 52,
      "start": 14.5416,
      "duration": 0.1148,
      "velocity": 91,
      "chip": "ym2612"
    },
    {
      "channel": 2,
      "note": 37,
      "start": 14.5427,
      "duration": 0.1089,
      "velocity": 120,
      "chip": "ym2612"
    },
    {
      "channel": 1,
      "note": 88,
      "start": 14.576,
      "duration": 0.2289,
      "velocity": 96,
      "chip": "ym2612"
    },
    {
      "channel": 0,
      "note": 78,
      "start": 14.6551,
      "duration": 1.8342,
      "velocity": 75,
      "chip": "ym2612"
    },
    {
      "channel": 3,
      "note": 78,
      "start": 14.6563,
      "duration": 0.1106,
      "velocity": 91,
      "chip": "ym2612"
    },
    {
      "channel": 4,
      "note": 54,
      "start": 14.657,
      "duration": 0.1106,
      "velocity": 91,
      "chip": "ym2612"
    },
    {
      "channel": 5,
      "note": 90,
      "start": 14.6579,
      "duration": 1.8384,
      "velocity": 96,
      "chip": "ym2612"
    },
    {
      "channel": 2,
      "note": 37,
      "start": 14.6586,
      "duration": 0.1284,
      "velocity": 120,
      "chip": "ym2612"
    },
    {
      "channel": 3,
      "note": 73,
      "start": 14.7674,
      "duration": 0.1167,
      "velocity": 91,
      "chip": "ym2612"
    },
    {
      "channel": 4,
      "note": 54,
      "start": 14.7682,
      "duration": 0.3461,
      "velocity": 91,
      "chip": "ym2612"
    },
    {
      "channel": 1,
      "note": 90,
      "start": 14.8054,
      "duration": 1.6881,
      "velocity": 97,
      "chip": "ym2612"
    },
    {
      "channel": 3,
      "note": 66,
      "start": 14.8847,
      "duration": 0.1115,
      "velocity": 91,
      "chip": "ym2612"
    },
    {
      "channel": 2,
      "note": 41,
      "start": 14.8863,
      "duration": 0.2238,
      "velocity": 127,
      "chip": "ym2612"
    },
    {
      "channel": 3,
      "note": 78,
      "start": 14.9968,
      "duration": 0.1168,
      "velocity": 91,
      "chip": "ym2612"
    },
    {
      "channel": 3,
      "note": 73,
      "start": 15.1141,
      "duration": 0.1141,
      "velocity": 91,
      "chip": "ym2612"
    },
    {
      "channel": 4,
      "note": 54,
      "start": 15.1149,
      "duration": 0.1141,
      "velocity": 91,
      "chip": "ym2612"
    },
    {
      "channel": 2,
      "note": 37,
      "start": 15.116,
      "duration": 0.1087,
      "velocity": 120,
      "chip": "ym2612"
    },
    {
      "channel": 3,
      "note": 66,
      "start": 15.2288,
      "duration": 0.1141,
      "velocity": 91,
      "chip": "ym2612"
    },
    {
      "channel": 4,
      "note": 54,
      "start": 15.2295,
      "duration": 0.2288,
      "velocity": 91,
      "chip": "ym2612"
    },
    {
      "channel": 2,
      "note": 37,
      "start": 15.2306,
      "duration": 0.1087,
      "velocity": 120,
      "chip": "ym2612"
    },
    {
      "channel": 3,
      "note": 78,
      "start": 15.3435,
      "duration": 0.1141,
      "velocity": 91,
      "chip": "ym2612"
    },
    {
      "channel": 2,
      "note": 41,
      "start": 15.345,
      "duration": 0.109,
      "velocity": 127,
      "chip": "ym2612"
    },
    {
      "channel": 3,
      "note": 73,
      "start": 15.4582,
      "duration": 0.1115,
      "velocity": 91,
      "chip": "ym2612"
    },
    {
      "channel": 4,
      "note": 54,
      "start": 15.4589,
      "duration": 0.2287,
      "velocity": 91,
      "chip": "ym2612"
    },
    {
      "channel": 2,
      "note": 37,
      "start": 15.4599,
      "duration": 0.1297,
      "velocity": 120,
      "chip": "ym2612"
    },
    {
      "channel": 3,
      "note": 66,
      "start": 15.5702,
      "duration": 0.1167,
      "velocity": 91,
      "chip": "ym2612"
    },
    {
      "channel": 3,
      "note": 76,
      "start": 15.6874,
      "duration": 0.1141,
      "velocity": 91,
      "chip": "ym2612"
    },
    {
      "channel": 4,
      "note": 66,
      "start": 15.6882,
      "duration": 0.1141,
      "velocity": 91,
      "chip": "ym2612"
    },
    {
      "channel": 2,
      "note": 41,
      "start": 15.6893,
      "duration": 0.1087,
      "velocity": 127,
      "chip": "ym2612"
    },
    {
      "channel": 3,
      "note": 78,
      "start": 15.802,
      "duration": 0.1141,
      "velocity": 91,
      "chip": "ym2612"
    },
    {
      "channel": 4,
      "note": 66,
      "start": 15.8028,
      "duration": 0.1141,
      "velocity": 91,
      "chip": "ym2612"
    },
    {
      "channel": 2,
      "note": 41,
      "start": 15.804,
      "duration": 0.1087,
      "velocity": 127,
      "chip": "ym2612"
    },
    {
      "channel": 3,
      "note": 73,
      "start": 15.9167,
      "duration": 0.1142,
      "velocity": 91,
      "chip": "ym2612"
    },
    {
      "channel": 4,
      "note": 66,
      "start": 15.9175,
      "duration": 0.1142,
      "velocity": 91,
      "chip": "ym2612"
    },
    {
      "channel": 2,
      "note": 41,
      "start": 15.9187,
      "duration": 0.1088,
      "velocity": 127,
      "chip": "ym2612"
    },
    {
      "channel": 3,
      "note": 76,
      "start": 16.0315,
      "duration": 0.1141,
      "velocity": 91,
      "chip": "ym2612"
    },
    {
      "channel": 4,
      "note": 66,
      "start": 16.0323,
      "duration": 0.1141,
      "velocity": 91,
      "chip": "ym2612"
    },
    {
      "channel": 2,
      "note": 41,
      "start": 16.0334,
      "duration": 0.1087,
      "velocity": 127,
      "chip": "ym2612"
    },
    {
      "channel": 3,
      "note": 71,
      "start": 16.1462,
      "duration": 0.1141,
      "velocity": 91,
      "chip": "ym2612"
    },
    {
      "channel": 4,
      "note": 66,
      "start": 16.1469,
      "duration": 0.1142,
      "velocity": 91,
      "chip": "ym2612"
    },
    {
      "channel": 2,
      "note": 41,
      "start": 16.148,
      "duration": 0.1088,
      "velocity": 127,
      "chip": "ym2612"
    },
    {
      "channel": 3,
      "note": 73,
      "start": 16.2609,
      "duration": 0.1141,
      "velocity": 91,
      "chip": "ym2612"
    },
    {
      "channel": 4,
      "note": 66,
      "start": 16.2617,
      "duration": 0.1141,
      "velocity": 91,
      "chip": "ym2612"
    },
    {
      "channel": 2,
      "note": 41,
      "start": 16.2628,
      "duration": 0.1086,
      "velocity": 127,
      "chip": "ym2612"
    },
    {
      "channel": 3,
      "note": 69,
      "start": 16.3755,
      "duration": 0.119,
      "velocity": 91,
      "chip": "ym2612"
    },
    {
      "channel": 4,
      "note": 66,
      "start": 16.3763,
      "duration": 0.1192,
      "velocity": 91,
      "chip": "ym2612"
    },
    {
      "channel": 2,
      "note": 41,
      "start": 16.3774,
      "duration": 0.1088,
      "velocity": 127,
      "chip": "ym2612"
    },
    {
      "channel": 0,
      "note": 69,
      "start": 16.4899,
      "duration": 0.9136,
      "velocity": 75,
      "chip": "ym2612"
    },
    {
      "channel": 1,
      "note": 78,
      "start": 16.4941,
      "duration": 0.9102,
      "velocity": 97,
      "chip": "ym2612"
    },
    {
      "channel": 3,
      "note": 74,
      "start": 16.4951,
      "duration": 0.1064,
      "velocity": 91,
      "chip": "ym2612"
    },
    {
      "channel": 4,
      "note": 50,
      "start": 16.496,
      "duration": 0.453,
      "velocity": 91,
      "chip": "ym2612"
    },
    {
      "channel": 5,
      "note": 81,
      "start": 16.497,
      "duration": 0.9092,
      "velocity": 96,
      "chip": "ym2612"
    },
    {
      "channel": 2,
      "note": 37,
      "start": 16.4977,
      "duration": 0.1239,
      "velocity": 120,
      "chip": "ym2612"
    },
    {
      "channel": 3,
      "note": 69,
      "start": 16.602,
      "duration": 0.1169,
      "velocity": 91,
      "chip": "ym2612"
    },
    {
      "channel": 3,
      "note": 62,
      "start": 16.7195,
      "duration": 0.1113,
      "velocity": 91,
      "chip": "ym2612"
    },
    {
      "channel": 2,
      "note": 41,
      "start": 16.721,
      "duration": 0.2239,
      "velocity": 127,
      "chip": "ym2612"
    },
    {
      "channel": 3,
      "note": 74,
      "start": 16.8313,
      "duration": 0.117,
      "velocity": 91,
      "chip": "ym2612"
    },
    {
      "channel": 3,
      "note": 69,
      "start": 16.9489,
      "duration": 0.1139,
      "velocity": 91,
      "chip": "ym2612"
    },
    {
      "channel": 4,
      "note": 50,
      "start": 16.9496,
      "duration": 0.1139,
      "velocity": 91,
      "chip": "ym2612"
    },
    {
      "channel": 2,
      "note": 37,
      "start": 16.9507,
      "duration": 0.1086,
      "velocity": 120,
      "chip": "ym2612"
    },
    {
      "channel": 3,
      "note": 62,
      "start": 17.0634,
      "duration": 0.1142,
      "velocity": 91,
      "chip": "ym2612"
    },
    {
      "channel": 4,
      "note": 50,
      "start": 17.0641,
      "duration": 0.2293,
      "velocity": 91,
      "chip": "ym2612"
    },
    {
      "channel": 2,
      "note": 37,
      "start": 17.0652,
      "duration": 0.1088,
      "velocity": 120,
      "chip": "ym2612"
    },
    {
      "channel": 3,
      "note": 74,
      "start": 17.1781,
      "duration": 0.1145,
      "velocity": 91,
      "chip": "ym2612"
    },
    {
      "channel": 2,
      "note": 41,
      "start": 17.1797,
      "duration": 0.1095,
      "velocity": 127,
      "chip": "ym2612"
    },
    {
      "channel": 3,
      "note": 69,
      "start": 17.2932,
      "duration": 0.1118,
      "velocity": 91,
      "chip": "ym2612"
    },
    {
      "channel": 4,
      "note": 52,
      "start": 17.294,
      "duration": 0.5696,
      "velocity": 91,
      "chip": "ym2612"
    },
    {
      "channel": 2,
      "note": 37,
      "start": 17.2951,
      "duration": 0.1293,
      "velocity": 120,
      "chip": "ym2612"
    },
    {
      "channel": 0,
      "note": 71,
      "start": 17.4041,
      "duration": 0.3461,
      "velocity": 75,
      "chip": "ym2612"
    },
    {
      "channel": 1,
      "note": 80,
      "start": 17.4049,
      "duration": 0.346,
      "velocity": 97,
      "chip": "ym2612"
    },
    {
      "channel": 3,
      "note": 76,
      "start": 17.4056,
      "duration": 0.1159,
      "velocity": 91,
      "chip": "ym2612"
    },
    {
      "channel": 5,
      "note": 83,
      "start": 17.4068,
      "duration": 0.346,
      "velocity": 96,
      "chip": "ym2612"
    },
    {
      "channel": 3,
      "note": 71,
      "start": 17.5221,
      "duration": 0.1141,
      "velocity": 91,
      "chip": "ym2612"
    },
    {
      "channel": 2,
      "note": 37,
      "start": 17.5236,
      "duration": 0.1092,
      "velocity": 120,
      "chip": "ym2612"
    },
    {
      "channel": 3,
      "note": 64,
      "start": 17.6368,
      "duration": 0.1149,
      "velocity": 91,
      "chip": "ym2612"
    },
    {
      "channel": 2,
      "note": 41,
      "start": 17.6383,
      "duration": 0.1091,
      "velocity": 127,
      "chip": "ym2612"
    },
    {
      "channel": 0,
      "note": 69,
      "start": 17.7508,
      "duration": 0.3434,
      "velocity": 75,
      "chip": "ym2612"
    },
    {
      "channel": 1,
      "note": 78,
      "start": 17.7515,
      "duration": 0.3433,
      "velocity": 97,
      "chip": "ym2612"
    },
    {
      "channel": 3,
      "note": 76,
      "start": 17.7522,
      "duration": 0.1105,
      "velocity": 91,
      "chip": "ym2612"
    },
    {
      "channel": 5,
      "note": 81,
      "start": 17.7534,
      "duration": 0.3433,
      "velocity": 96,
      "chip": "ym2612"
    },
    {
      "channel": 2,
      "note": 37,
      "start": 17.7541,
      "duration": 0.1288,
      "velocity": 120,
      "chip": "ym2612"
    },
    {
      "channel": 3,
      "note": 71,
      "start": 17.8634,
      "duration": 0.1168,
      "velocity": 91,
      "chip": "ym2612"
    },
    {
      "channel": 4,
      "note": 52,
      "start": 17.8641,
      "duration": 0.1168,
      "velocity": 91,
      "chip": "ym2612"
    },
    {
      "channel": 3,
      "note": 64,
      "start": 17.9807,
      "duration": 0.1149,
      "velocity": 91,
      "chip": "ym2612"
    },
    {
      "channel": 4,
      "note": 52,
      "start": 17.9815,
      "duration": 0.3448,
      "velocity": 91,
      "chip": "ym2612"
    },
    {
      "channel": 2,
      "note": 37,
      "start": 17.9826,
      "duration": 0.1088,
      "velocity": 120,
      "chip": "ym2612"
    },
    {
      "channel": 0,
      "note": 68,
      "start": 18.0947,
      "duration": 0.2291,
      "velocity": 75,
      "chip": "ym2612"
    },
    {
      "channel": 1,
      "note": 76,
      "start": 18.0955,
      "duration": 0.229,
      "velocity": 97,
      "chip": "ym2612"
    },
    {
      "channel": 3,
      "note": 76,
      "start": 18.0962,
      "duration": 0.1134,
      "velocity": 91,
      "chip": "ym2612"
    },
    {
      "channel": 5,
      "note": 80,
      "start": 18.0973,
      "duration": 0.2297,
      "velocity": 96,
      "chip": "ym2612"
    },
    {
      "channel": 2,
      "note": 41,
      "start": 18.0981,
      "duration": 0.1079,
      "velocity": 127,
      "chip": "ym2612"
    },
    {
      "channel": 3,
      "note": 71,
      "start": 18.2101,
      "duration": 0.1153,
      "velocity": 91,
      "chip": "ym2612"
    },
    {
      "channel": 2,
      "note": 37,
      "start": 18.2115,
      "duration": 0.1094,
      "velocity": 120,
      "chip": "ym2612"
    },
    {
      "channel": 0,
      "note": 69,
      "start": 18.3244,
      "duration": 0.3403,
      "velocity": 75,
      "chip": "ym2612"
    },
    {
      "channel": 1,
      "note": 78,
      "start": 18.3251,
      "duration": 0.3402,
      "velocity": 97,
      "chip": "ym2612"
    },
    {
      "channel": 3,
      "note": 78,
      "start": 18.3261,
      "duration": 0.1099,
      "velocity": 91,
      "chip": "ym2612"
    },
    {
      "channel": 4,
      "note": 54,
      "start": 18.3269,
      "duration": 0.4566,
      "velocity": 91,
      "chip": "ym2612"
    },
    {
      "channel": 5,
      "note": 81,
      "start": 18.3277,
      "duration": 0.3396,
      "velocity": 96,
      "chip": "ym2612"
    },
    {
      "channel": 2,
      "note": 37,
      "start": 18.3284,
      "duration": 0.1279,
      "velocity": 120,
      "chip": "ym2612"
    },
    {
      "channel": 3,
      "note": 73,
      "start": 18.4366,
      "duration": 0.1169,
      "velocity": 91,
      "chip": "ym2612"
    },
    {
      "channel": 3,
      "note": 66,
      "start": 18.5541,
      "duration": 0.1121,
      "velocity": 91,
      "chip": "ym2612"
    },
    {
      "channel": 2,
      "note": 41,
      "start": 18.5556,
      "duration": 0.2237,
      "velocity": 127,
      "chip": "ym2612"
    },
    {
      "channel": 0,
      "note": 68,
      "start": 18.6653,
      "duration": 0.3462,
      "velocity": 75,
      "chip": "ym2612"
    },
    {
      "channel": 1,
      "note": 73,
      "start": 18.666,
      "duration": 0.3462,
      "velocity": 97,
      "chip": "ym2612"
    },
    {
      "channel": 3,
      "note": 78,
      "start": 18.6667,
      "duration": 0.116,
      "velocity": 91,
      "chip": "ym2612"
    },
    {
      "channel": 5,
      "note": 80,
      "start": 18.6678,
      "duration": 0.3462,
      "velocity": 96,
      "chip": "ym2612"
    },
    {
      "channel": 3,
      "note": 73,
      "start": 18.7834,
      "duration": 0.1141,
      "velocity": 91,
      "chip": "ym2612"
    },
    {
      "channel": 4,
      "note": 54,
      "start": 18.7841,
      "duration": 0.1141,
      "velocity": 91,
      "chip": "ym2612"
    },
    {
      "channel": 2,
      "note": 37,
      "start": 18.7852,
      "duration": 0.1087,
      "velocity": 120,
      "chip": "ym2612"
    },
    {
      "channel": 3,
      "note": 66,
      "start": 18.898,
      "duration": 0.1149,
      "velocity": 91,
      "chip": "ym2612"
    },
    {
      "channel": 4,
      "note": 54,
      "start": 18.8987,
      "duration": 0.2288,
      "velocity": 91,
      "chip": "ym2612"
    },
    {
      "channel": 2,
      "note": 37,
      "start": 18.8998,
      "duration": 0.1088,
      "velocity": 120,
      "chip": "ym2612"
    },
    {
      "channel": 0,
      "note": 66,
      "start": 19.012,
      "duration": 1.1464,
      "velocity": 75,
      "chip": "ym2612"
    },
    {
      "channel": 1,
      "note": 69,
      "start": 19.0128,
      "duration": 1.1464,
      "velocity": 97,
      "chip": "ym2612"
    },
    {
      "channel": 3,
      "note": 78,
      "start": 19.0136,
      "duration": 0.1132,
      "velocity": 91,
      "chip": "ym2612"
    },
    {
      "channel": 5,
      "note": 78,
      "start": 19.0146,
      "duration": 1.1472,
      "velocity": 96,
      "chip": "ym2612"
    },
    {
      "channel": 2,
      "note": 41,
      "start": 19.0154,
      "duration": 0.1078,
      "velocity": 127,
      "chip": "ym2612"
    },
    {
      "channel": 3,
      "note": 73,
      "start": 19.1274,
      "duration": 0.1115,
      "velocity": 91,
      "chip": "ym2612"
    },
    {
      "channel": 4,
      "note": 54,
      "start": 19.1281,
      "duration": 0.5701,
      "velocity": 91,
      "chip": "ym2612"
    },
    {
      "channel": 2,
      "note": 37,
      "start": 19.1292,
      "duration": 0.1297,
      "velocity": 120,
      "chip": "ym2612"
    },
    {
      "channel": 3,
      "note": 78,
      "start": 19.2395,
      "duration": 0.1167,
      "velocity": 91,
      "chip": "ym2612"
    },
    {
      "channel": 3,
      "note": 73,
      "start": 19.3567,
      "duration": 0.1141,
      "velocity": 91,
      "chip": "ym2612"
    },
    {
      "channel": 2,
      "note": 37,
      "start": 19.3582,
      "duration": 0.1092,
      "velocity": 120,
      "chip": "ym2612"
    },
    {
      "channel": 3,
      "note": 66,
      "start": 19.4714,
      "duration": 0.1141,
      "velocity": 91,
      "chip": "ym2612"
    },
    {
      "channel": 2,
      "note": 41,
      "start": 19.4729,
      "duration": 0.109,
      "velocity": 127,
      "chip": "ym2612"
    },
    {
      "channel": 3,
      "note": 78,
      "start": 19.586,
      "duration": 0.1115,
      "velocity": 91,
      "chip": "ym2612"
    },
    {
      "channel": 2,
      "note": 37,
      "start": 19.5874,
      "duration": 0.1302,
      "velocity": 120,
      "chip": "ym2612"
    },
    {
      "channel": 3,
      "note": 73,
      "start": 19.6981,
      "duration": 0.1167,
      "velocity": 91,
      "chip": "ym2612"
    },
    {
      "channel": 4,
      "note": 54,
      "start": 19.6988,
      "duration": 0.1167,
      "velocity": 91,
      "chip": "ym2612"
    },
    {
      "channel": 3,
      "note": 66,
      "start": 19.8154,
      "duration": 0.1141,
      "velocity": 91,
      "chip": "ym2612"
    },
    {
      "channel": 4,
      "note": 54,
      "start": 19.8161,
      "duration": 0.1141,
      "velocity": 91,
      "chip": "ym2612"
    },
    {
      "channel": 2,
      "note": 37,
      "start": 19.8172,
      "duration": 0.1088,
      "velocity": 120,
      "chip": "ym2612"
    },
    {
      "channel": 3,
      "note": 76,
      "start": 19.93,
      "duration": 0.1141,
      "velocity": 91,
      "chip": "ym2612"
    },
    {
      "channel": 4,
      "note": 52,
      "start": 19.9308,
      "duration": 0.1141,
      "velocity": 91,
      "chip": "ym2612"
    },
    {
      "channel": 2,
      "note": 41,
      "start": 19.932,
      "duration": 0.1087,
      "velocity": 127,
      "chip": "ym2612"
    },
    {
      "channel": 3,
      "note": 64,
      "start": 20.0447,
      "duration": 0.1154,
      "velocity": 91,
      "chip": "ym2612"
    },
    {
      "channel": 4,
      "note": 52,
      "start": 20.0454,
      "duration": 0.1156,
      "velocity": 91,
      "chip": "ym2612"
    },
    {
      "channel": 2,
      "note": 37,
      "start": 20.0465,
      "duration": 0.1091,
      "velocity": 120,
      "chip": "ym2612"
    },
    {
      "channel": 0,
      "note": 69,
      "start": 20.159,
      "duration": 0.9137,
      "velocity": 75,
      "chip": "ym2612"
    },
    {
      "channel": 1,
      "note": 78,
      "start": 20.1598,
      "duration": 0.9137,
      "velocity": 97,
      "chip": "ym2612"
    },
    {
      "channel": 3,
      "note": 74,
      "start": 20.1608,
      "duration": 0.1104,
      "velocity": 91,
      "chip": "ym2612"
    },
    {
      "channel": 4,
      "note": 50,
      "start": 20.1617,
      "duration": 0.4565,
      "velocity": 91,
      "chip": "ym2612"
    },
    {
      "channel": 5,
      "note": 81,
      "start": 20.1625,
      "duration": 0.9129,
      "velocity": 96,
      "chip": "ym2612"
    },
    {
      "channel": 2,
      "note": 37,
      "start": 20.1632,
      "duration": 0.1278,
      "velocity": 120,
      "chip": "ym2612"
    },
    {
      "channel": 3,
      "note": 69,
      "start": 20.2717,
      "duration": 0.1164,
      "velocity": 91,
      "chip": "ym2612"
    },
    {
      "channel": 3,
      "note": 62,
      "start": 20.3887,
      "duration": 0.1113,
      "velocity": 91,
      "chip": "ym2612"
    },
    {
      "channel": 2,
      "note": 41,
      "start": 20.3902,
      "duration": 0.2237,
      "velocity": 127,
      "chip": "ym2612"
    },
    {
      "channel": 3,
      "note": 74,
      "start": 20.5006,
      "duration": 0.1168,
      "velocity": 91,
      "chip": "ym2612"
    },
    {
      "channel": 3,
      "note": 69,
      "start": 20.6181,
      "duration": 0.114,
      "velocity": 91,
      "chip": "ym2612"
    },
    {
      "channel": 4,
      "note": 50,
      "start": 20.6188,
      "duration": 0.1141,
      "velocity": 91,
      "chip": "ym2612"
    },
    {
      "channel": 2,
      "note": 37,
      "start": 20.6199,
      "duration": 0.1087,
      "velocity": 120,
      "chip": "ym2612"
    },
    {
      "channel": 3,
      "note": 62,
      "start": 20.7327,
      "duration": 0.1141,
      "velocity": 91,
      "chip": "ym2612"
    },
    {
      "channel": 4,
      "note": 50,
      "start": 20.7334,
      "duration": 0.2288,
      "velocity": 91,
      "chip": "ym2612"
    },
    {
      "channel": 2,
      "note": 37,
      "start": 20.7345,
      "duration": 0.1087,
      "velocity": 120,
      "chip": "ym2612"
    },
    {
      "channel": 3,
      "note": 74,
      "start": 20.8473,
      "duration": 0.1141,
      "velocity": 91,
      "chip": "ym2612"
    },
    {
      "channel": 2,
      "note": 41,
      "start": 20.8488,
      "duration": 0.1092,
      "velocity": 127,
      "chip": "ym2612"
    },
    {
      "channel": 3,
      "note": 69,
      "start": 20.962,
      "duration": 0.1123,
      "velocity": 91,
      "chip": "ym2612"
    },
    {
      "channel": 4,
      "note": 52,
      "start": 20.9627,
      "duration": 0.5701,
      "velocity": 91,
      "chip": "ym2612"
    },
    {
      "channel": 2,
      "note": 37,
      "start": 20.9638,
      "duration": 0.1299,
      "velocity": 120,
      "chip": "ym2612"
    },
    {
      "channel": 0,
      "note": 71,
      "start": 21.0734,
      "duration": 0.346,
      "velocity": 75,
      "chip": "ym2612"
    },
    {
      "channel": 1,
      "note": 80,
      "start": 21.0741,
      "duration": 0.346,
      "velocity": 97,
      "chip": "ym2612"
    },
    {
      "channel": 3,
      "note": 76,
      "start": 21.0749,
      "duration": 0.1159,
      "velocity": 91,
      "chip": "ym2612"
    },
    {
      "channel": 5,
      "note": 83,
      "start": 21.076,
      "duration": 0.346,
      "velocity": 96,
      "chip": "ym2612"
    },
    {
      "channel": 3,
      "note": 71,
      "start": 21.1914,
      "duration": 0.1141,
      "velocity": 91,
      "chip": "ym2612"
    },
    {
      "channel": 2,
      "note": 37,
      "start": 21.1928,
      "duration": 0.1092,
      "velocity": 120,
      "chip": "ym2612"
    },
    {
      "channel": 3,
      "note": 64,
      "start": 21.306,
      "duration": 0.1149,
      "velocity": 91,
      "chip": "ym2612"
    },
    {
      "channel": 2,
      "note": 41,
      "start": 21.3075,
      "duration": 0.109,
      "velocity": 127,
      "chip": "ym2612"
    },
    {
      "channel": 0,
      "note": 69,
      "start": 21.42,
      "duration": 0.3435,
      "velocity": 75,
      "chip": "ym2612"
    },
    {
      "channel": 1,
      "note": 78,
      "start": 21.4207,
      "duration": 0.3435,
      "velocity": 97,
      "chip": "ym2612"
    },
    {
      "channel": 3,
      "note": 76,
      "start": 21.4215,
      "duration": 0.1106,
      "velocity": 91,
      "chip": "ym2612"
    },
    {
      "channel": 5,
      "note": 81,
      "start": 21.4225,
      "duration": 0.3435,
      "velocity": 96,
      "chip": "ym2612"
    },
    {
      "channel": 2,
      "note": 37,
      "start": 21.4233,
      "duration": 0.1289,
      "velocity": 120,
      "chip": "ym2612"
    },
    {
      "channel": 3,
      "note": 71,
      "start": 21.5327,
      "duration": 0.1168,
      "velocity": 91,
      "chip": "ym2612"
    },
    {
      "channel": 4,
      "note": 52,
      "start": 21.5334,
      "duration": 0.1168,
      "velocity": 91,
      "chip": "ym2612"
    },
    {
      "channel": 3,
      "note": 64,
      "start": 21.65,
      "duration": 0.1149,
      "velocity": 91,
      "chip": "ym2612"
    },
    {
      "channel": 4,
      "note": 52,
      "start": 21.6508,
      "duration": 0.3449,
      "velocity": 91,
      "chip": "ym2612"
    },
    {
      "channel": 2,
      "note": 37,
      "start": 21.6519,
      "duration": 0.1088,
      "velocity": 120,
      "chip": "ym2612"
    },
    {
      "channel": 0,
      "note": 76,
      "start": 21.7641,
      "duration": 0.229,
      "velocity": 75,
      "chip": "ym2612"
    },
    {
      "channel": 1,
      "note": 88,
      "start": 21.7648,
      "duration": 0.229,
      "velocity": 97,
      "chip": "ym2612"
    },
    {
      "channel": 3,
      "note": 76,
      "start": 21.7655,
      "duration": 0.1132,
      "velocity": 91,
      "chip": "ym2612"
    },
    {
      "channel": 5,
      "note": 88,
      "start": 21.7667,
      "duration": 0.2297,
      "velocity": 96,
      "chip": "ym2612"
    },
    {
      "channel": 2,
      "note": 41,
      "start": 21.7674,
      "duration": 0.1078,
      "velocity": 127,
      "chip": "ym2612"
    },
    {
      "channel": 3,
      "note": 71,
      "start": 21.8793,
      "duration": 0.1155,
      "velocity": 91,
      "chip": "ym2612"
    },
    {
      "channel": 2,
      "note": 37,
      "start": 21.8807,
      "duration": 0.1095,
      "velocity": 120,
      "chip": "ym2612"
    },
    {
      "channel": 0,
      "note": 73,
      "start": 21.9937,
      "duration": 1.834,
      "velocity": 75,
      "chip": "ym2612"
    },
    {
      "channel": 1,
      "note": 85,
      "start": 21.9945,
      "duration": 1.0306,
      "velocity": 97,
      "chip": "ym2612"
    },
    {
      "channel": 3,
      "note": 78,
      "start": 21.9954,
      "duration": 0.1099,
      "velocity": 91,
      "chip": "ym2612"
    },
    {
      "channel": 4,
      "note": 54,
      "start": 21.9962,
      "duration": 0.4566,
      "velocity": 91,
      "chip": "ym2612"
    },
    {
      "channel": 5,
      "note": 85,
      "start": 21.997,
      "duration": 1.8341,
      "velocity": 96,
      "chip": "ym2612"
    },
    {
      "channel": 2,
      "note": 37,
      "start": 21.9977,
      "duration": 0.1278,
      "velocity": 120,
      "chip": "ym2612"
    },
    {
      "channel": 3,
      "note": 73,
      "start": 22.1059,
      "duration": 0.1168,
      "velocity": 91,
      "chip": "ym2612"
    },
    {
      "channel": 3,
      "note": 66,
      "start": 22.2234,
      "duration": 0.1113,
      "velocity": 91,
      "chip": "ym2612"
    },
    {
      "channel": 2,
      "note": 41,
      "start": 22.2249,
      "duration": 0.2237,
      "velocity": 127,
      "chip": "ym2612"
    },
    {
      "channel": 3,
      "note": 78,
      "start": 22.3352,
      "duration": 0.1168,
      "velocity": 91,
      "chip": "ym2612"
    },
    {
      "channel": 3,
      "note": 73,
      "start": 22.4526,
      "duration": 0.1141,
      "velocity": 91,
      "chip": "ym2612"
    },
    {
      "channel": 4,
      "note": 54,
      "start": 22.4534,
      "duration": 0.1141,
      "velocity": 91,
      "chip": "ym2612"
    },
    {
      "channel": 2,
      "note": 37,
      "start": 22.4545,
      "duration": 0.1087,
      "velocity": 120,
      "chip": "ym2612"
    },
    {
      "channel": 3,
      "note": 66,
      "start": 22.5673,
      "duration": 0.1141,
      "velocity": 91,
      "chip": "ym2612"
    },
    {
      "channel": 4,
      "note": 54,
      "start": 22.568,
      "duration": 0.2288,
      "velocity": 91,
      "chip": "ym2612"
    },
    {
      "channel": 2,
      "note": 37,
      "start": 22.569,
      "duration": 0.1088,
      "velocity": 120,
      "chip": "ym2612"
    },
    {
      "channel": 3,
      "note": 78,
      "start": 22.6819,
      "duration": 0.1141,
      "velocity": 91,
      "chip": "ym2612"
    },
    {
      "channel": 2,
      "note": 41,
      "start": 22.6834,
      "duration": 0.1091,
      "velocity": 127,
      "chip": "ym2612"
    },
    {
      "channel": 3,
      "note": 73,
      "start": 22.7966,
      "duration": 0.1116,
      "velocity": 91,
      "chip": "ym2612"
    },
    {
      "channel": 4,
      "note": 54,
      "start": 22.7973,
      "duration": 0.5706,
      "velocity": 91,
      "chip": "ym2612"
    },
    {
      "channel": 2,
      "note": 37,
      "start": 22.7984,
      "duration": 0.1297,
      "velocity": 120,
      "chip": "ym2612"
    },
    {
      "channel": 3,
      "note": 78,
      "start": 22.9088,
      "duration": 0.1171,
      "velocity": 91,
      "chip": "ym2612"
    },
    {
      "channel": 1,
      "note": 85,
      "start": 23.0256,
      "duration": 0.114,
      "velocity": 97,
      "chip": "ym2612"
    },
    {
      "channel": 3,
      "note": 73,
      "start": 23.0264,
      "duration": 0.114,
      "velocity": 91,
      "chip": "ym2612"
    },
    {
      "channel": 2,
      "note": 37,
      "start": 23.0278,
      "duration": 0.1086,
      "velocity": 120,
      "chip": "ym2612"
    },
    {
      "channel": 1,
      "note": 83,
      "start": 23.1403,
      "duration": 0.1144,
      "velocity": 97,
      "chip": "ym2612"
    },
    {
      "channel": 3,
      "note": 71,
      "start": 23.141,
      "duration": 0.1144,
      "velocity": 91,
      "chip": "ym2612"
    },
    {
      "channel": 2,
      "note": 41,
      "start": 23.1425,
      "duration": 0.1091,
      "velocity": 127,
      "chip": "ym2612"
    },
    {
      "channel": 1,
      "note": 81,
      "start": 23.2554,
      "duration": 0.1111,
      "velocity": 97,
      "chip": "ym2612"
    },
    {
      "channel": 3,
      "note": 73,
      "start": 23.2561,
      "duration": 0.1111,
      "velocity": 91,
      "chip": "ym2612"
    },
    {
      "channel": 2,
      "note": 37,
      "start": 23.2575,
      "duration": 0.1293,
      "velocity": 120,
      "chip": "ym2612"
    },
    {
      "channel": 1,
      "note": 83,
      "start": 23.3671,
      "duration": 0.1167,
      "velocity": 97,
      "chip": "ym2612"
    },
    {
      "channel": 3,
      "note": 71,
      "start": 23.3678,
      "duration": 0.1167,
      "velocity": 91,
      "chip": "ym2612"
    },
    {
      "channel": 4,
      "note": 54,
      "start": 23.3685,
      "duration": 0.1167,
      "velocity": 91,
      "chip": "ym2612"
    },
    {
      "channel": 1,
      "note": 81,
      "start": 23.4844,
      "duration": 0.114,
      "velocity": 97,
      "chip": "ym2612"
    },
    {
      "channel": 3,
      "note": 69,
      "start": 23.4851,
      "duration": 0.114,
      "velocity": 91,
      "chip": "ym2612"
    },
    {
      "channel": 4,
      "note": 54,
      "start": 23.4858,
      "duration": 0.114,
      "velocity": 91,
      "chip": "ym2612"
    },
    {
      "channel": 2,
      "note": 37,
      "start": 23.4868,
      "duration": 0.1083,
      "velocity": 120,
      "chip": "ym2612"
    },
    {
      "channel": 1,
      "note": 80,
      "start": 23.5989,
      "duration": 0.1141,
      "velocity": 97,
      "chip": "ym2612"
    },
    {
      "channel": 3,
      "note": 68,
      "start": 23.5997,
      "duration": 0.1141,
      "velocity": 91,
      "chip": "ym2612"
    },
    {
      "channel": 4,
      "note": 52,
      "start": 23.6004,
      "duration": 0.1141,
      "velocity": 91,
      "chip": "ym2612"
    },
    {
      "channel": 2,
      "note": 41,
      "start": 23.6015,
      "duration": 0.1083,
      "velocity": 127,
      "chip": "ym2612"
    },
    {
      "channel": 1,
      "note": 78,
      "start": 23.7136,
      "duration": 0.1148,
      "velocity": 97,
      "chip": "ym2612"
    },
    {
      "channel": 3,
      "note": 66,
      "start": 23.7143,
      "duration": 0.115,
      "velocity": 91,
      "chip": "ym2612"
    },
    {
      "channel": 4,
      "note": 52,
      "start": 23.715,
      "duration": 0.1153,
      "velocity": 91,
      "chip": "ym2612"
    },
    {
      "channel": 2,
      "note": 37,
      "start": 23.7161,
      "duration": 0.1087,
      "velocity": 120,
      "chip": "ym2612"
    },
    {
      "channel": 0,
      "note": 69,
      "start": 23.8283,
      "duration": 0.9137,
      "velocity": 75,
      "chip": "ym2612"
    },
    {
      "channel": 1,
      "note": 73,
      "start": 23.829,
      "duration": 0.9137,
      "velocity": 97,
      "chip": "ym2612"
    },
    {
      "channel": 3,
      "note": 74,
      "start": 23.83,
      "duration": 0.11,
      "velocity": 91,
      "chip": "ym2612"
    },
    {
      "channel": 4,
      "note": 50,
      "start": 23.8309,
      "duration": 0.4566,
      "velocity": 91,
      "chip": "ym2612"
    },
    {
      "channel": 5,
      "note": 81,
      "start": 23.8316,
      "duration": 0.913,
      "velocity": 96,
      "chip": "ym2612"
    },
    {
      "channel": 2,
      "note": 37,
      "start": 23.8324,
      "duration": 0.1278,
      "velocity": 120,
      "chip": "ym2612"
    },
    {
      "channel": 3,
      "note": 69,
      "start": 23.9406,
      "duration": 0.1168,
      "velocity": 91,
      "chip": "ym2612"
    },
    {
      "channel": 3,
      "note": 62,
      "start": 24.058,
      "duration": 0.1113,
      "velocity": 91,
      "chip": "ym2612"
    },
    {
      "channel": 2,
      "note": 41,
      "start": 24.0595,
      "duration": 0.2237,
      "velocity": 127,
      "chip": "ym2612"
    },
    {
      "channel": 3,
      "note": 74,
      "start": 24.1698,
      "duration": 0.1168,
      "velocity": 91,
      "chip": "ym2612"
    },
    {
      "channel": 3,
      "note": 69,
      "start": 24.2872,
      "duration": 0.1141,
      "velocity": 91,
      "chip": "ym2612"
    },
    {
      "channel": 4,
      "note": 50,
      "start": 24.288,
      "duration": 0.1141,
      "velocity": 91,
      "chip": "ym2612"
    },
    {
      "channel": 2,
      "note": 37,
      "start": 24.2891,
      "duration": 0.1087,
      "velocity": 120,
      "chip": "ym2612"
    },
    {
      "channel": 3,
      "note": 62,
      "start": 24.4019,
      "duration": 0.1141,
      "velocity": 91,
      "chip": "ym2612"
    },
    {
      "channel": 4,
      "note": 50,
      "start": 24.4026,
      "duration": 0.2288,
      "velocity": 91,
      "chip": "ym2612"
    },
    {
      "channel": 2,
      "note": 37,
      "start": 24.4037,
      "duration": 0.1088,
      "velocity": 120,
      "chip": "ym2612"
    },
    {
      "channel": 3,
      "note": 74,
      "start": 24.5166,
      "duration": 0.114,
      "velocity": 91,
      "chip": "ym2612"
    },
    {
      "channel": 2,
      "note": 41,
      "start": 24.5181,
      "duration": 0.1091,
      "velocity": 127,
      "chip": "ym2612"
    },
    {
      "channel": 3,
      "note": 69,
      "start": 24.6312,
      "duration": 0.1123,
      "velocity": 91,
      "chip": "ym2612"
    },
    {
      "channel": 4,
      "note": 52,
      "start": 24.632,
      "duration": 0.5701,
      "velocity": 91,
      "chip": "ym2612"
    },
    {
      "channel": 2,
      "note": 37,
      "start": 24.633,
      "duration": 0.1298,
      "velocity": 120,
      "chip": "ym2612"
    },
    {
      "channel": 0,
      "note": 71,
      "start": 24.7426,
      "duration": 0.346,
      "velocity": 75,
      "chip": "ym2612"
    },
    {
      "channel": 1,
      "note": 74,
      "start": 24.7434,
      "duration": 0.3459,
      "velocity": 97,
      "chip": "ym2612"
    },
    {
      "channel": 3,
      "note": 76,
      "start": 24.7441,
      "duration": 0.116,
      "velocity": 91,
      "chip": "ym2612"
    },
    {
      "channel": 5,
      "note": 83,
      "start": 24.7452,
      "duration": 0.346,
      "velocity": 96,
      "chip": "ym2612"
    },
    {
      "channel": 3,
      "note": 71,
      "start": 24.8606,
      "duration": 0.1141,
      "velocity": 91,
      "chip": "ym2612"
    },
    {
      "channel": 2,
      "note": 37,
      "start": 24.862,
      "duration": 0.1092,
      "velocity": 120,
      "chip": "ym2612"
    },
    {
      "channel": 3,
      "note": 64,
      "start": 24.9753,
      "duration": 0.1148,
      "velocity": 91,
      "chip": "ym2612"
    },
    {
      "channel": 2,
      "note": 41,
      "start": 24.9768,
      "duration": 0.109,
      "velocity": 127,
      "chip": "ym2612"
    },
    {
      "channel": 0,
      "note": 69,
      "start": 25.0892,
      "duration": 0.3434,
      "velocity": 75,
      "chip": "ym2612"
    },
    {
      "channel": 1,
      "note": 73,
      "start": 25.09,
      "duration": 0.3434,
      "velocity": 97,
      "chip": "ym2612"
    },
    {
      "channel": 3,
      "note": 76,
      "start": 25.0907,
      "duration": 0.1106,
      "velocity": 91,
      "chip": "ym2612"
    },
    {
      "channel": 5,
      "note": 81,
      "start": 25.0918,
      "duration": 0.3434,
      "velocity": 96,
      "chip": "ym2612"
    },
    {
      "channel": 2,
      "note": 37,
      "start": 25.0926,
      "duration": 0.1288,
      "velocity": 120,
      "chip": "ym2612"
    },
    {
      "channel": 3,
      "note": 71,
      "start": 25.2019,
      "duration": 0.1167,
      "velocity": 91,
      "chip": "ym2612"
    },
    {
      "channel": 4,
      "note": 52,
      "start": 25.2026,
      "duration": 0.1167,
      "velocity": 91,
      "chip": "ym2612"
    },
    {
      "channel": 3,
      "note": 64,
      "start": 25.3192,
      "duration": 0.1149,
      "velocity": 91,
      "chip": "ym2612"
    },
    {
      "channel": 4,
      "note": 52,
      "start": 25.3199,
      "duration": 0.3447,
      "velocity": 91,
      "chip": "ym2612"
    },
    {
      "channel": 2,
      "note": 37,
      "start": 25.321,
      "duration": 0.1088,
      "velocity": 120,
      "chip": "ym2612"
    },
    {
      "channel": 0,
      "note": 68,
      "start": 25.4333,
      "duration": 0.2289,
      "velocity": 75,
      "chip": "ym2612"
    },
    {
      "channel": 1,
      "note": 71,
      "start": 25.434,
      "duration": 0.229,
      "velocity": 97,
      "chip": "ym2612"
    },
    {
      "channel": 3,
      "note": 76,
      "start": 25.4347,
      "duration": 0.1132,
      "velocity": 91,
      "chip": "ym2612"
    },
    {
      "channel": 5,
      "note": 80,
      "start": 25.4359,
      "duration": 0.2295,
      "velocity": 96,
      "chip": "ym2612"
    },
    {
      "channel": 2,
      "note": 41,
      "start": 25.4366,
      "duration": 0.1078,
      "velocity": 127,
      "chip": "ym2612"
    },
    {
      "channel": 3,
      "note": 71,
      "start": 25.5485,
      "duration": 0.1153,
      "velocity": 91,
      "chip": "ym2612"
    },
    {
      "channel": 2,
      "note": 37,
      "start": 25.55,
      "duration": 0.1095,
      "velocity": 120,
      "chip": "ym2612"
    },
    {
      "channel": 0,
      "note": 66,
      "start": 25.6628,
      "duration": 0.3431,
      "velocity": 75,
      "chip": "ym2612"
    },
    {
      "channel": 1,
      "note": 69,
      "start": 25.6636,
      "duration": 0.3431,
      "velocity": 97,
      "chip": "ym2612"
    },
    {
      "channel": 3,
      "note": 66,
      "start": 25.6644,
      "duration": 0.1129,
      "velocity": 91,
      "chip": "ym2612"
    },
    {
      "channel": 4,
      "note": 54,
      "start": 25.6652,
      "duration": 0.3429,
      "velocity": 91,
      "chip": "ym2612"
    },
    {
      "channel": 5,
      "note": 78,
      "start": 25.666,
      "duration": 0.3429,
      "velocity": 96,
      "chip": "ym2612"
    },
    {
      "channel": 2,
      "note": 41,
      "start": 25.6667,
      "duration": 0.1071,
      "velocity": 127,
      "chip": "ym2612"
    },
    {
      "channel": 3,
      "note": 78,
      "start": 25.7779,
      "duration": 0.1142,
      "velocity": 91,
      "chip": "ym2612"
    },
    {
      "channel": 2,
      "note": 37,
      "start": 25.7793,
      "duration": 0.1093,
      "velocity": 120,
      "chip": "ym2612"
    },
    {
      "channel": 3,
      "note": 66,
      "start": 25.8927,
      "duration": 0.1147,
      "velocity": 91,
      "chip": "ym2612"
    },
    {
      "channel": 2,
      "note": 37,
      "start": 25.8941,
      "duration": 0.109,
      "velocity": 120,
      "chip": "ym2612"
    },
    {
      "channel": 0,
      "note": 73,
      "start": 26.0065,
      "duration": 0.3434,
      "velocity": 75,
      "chip": "ym2612"
    },
    {
      "channel": 1,
      "note": 76,
      "start": 26.0073,
      "duration": 0.3434,
      "velocity": 97,
      "chip": "ym2612"
    },
    {
      "channel": 3,
      "note": 64,
      "start": 26.008,
      "duration": 0.1132,
      "velocity": 91,
      "chip": "ym2612"
    },
    {
      "channel": 4,
      "note": 52,
      "start": 26.0087,
      "duration": 0.3435,
      "velocity": 91,
      "chip": "ym2612"
    },
    {
      "channel": 5,
      "note": 85,
      "start": 26.0095,
      "duration": 0.3434,
      "velocity": 96,
      "chip": "ym2612"
    },
    {
      "channel": 2,
      "note": 41,
      "start": 26.0103,
      "duration": 0.1074,
      "velocity": 127,
      "chip": "ym2612"
    },
    {
      "channel": 3,
      "note": 76,
      "start": 26.1218,
      "duration": 0.1146,
      "velocity": 91,
      "chip": "ym2612"
    },
    {
      "channel": 2,
      "note": 37,
      "start": 26.1232,
      "duration": 0.1097,
      "velocity": 120,
      "chip": "ym2612"
    },
    {
      "channel": 3,
      "note": 64,
      "start": 26.237,
      "duration": 0.1145,
      "velocity": 91,
      "chip": "ym2612"
    },
    {
      "channel": 2,
      "note": 37,
      "start": 26.2384,
      "duration": 0.1088,
      "velocity": 120,
      "chip": "ym2612"
    },
    {
      "channel": 0,
      "note": 78,
      "start": 26.3506,
      "duration": 0.6873,
      "velocity": 75,
      "chip": "ym2612"
    },
    {
      "channel": 1,
      "note": 81,
      "start": 26.3513,
      "duration": 0.6873,
      "velocity": 97,
      "chip": "ym2612"
    },
    {
      "channel": 3,
      "note": 62,
      "start": 26.3521,
      "duration": 0.6873,
      "velocity": 91,
      "chip": "ym2612"
    },
    {
      "channel": 4,
      "note": 50,
      "start": 26.3528,
      "duration": 0.3421,
      "velocity": 91,
      "chip": "ym2612"
    },
    {
      "channel": 5,
      "note": 90,
      "start": 26.3536,
      "duration": 0.6874,
      "velocity": 96,
      "chip": "ym2612"
    },
    {
      "channel": 2,
      "note": 41,
      "start": 26.3543,
      "duration": 0.1075,
      "velocity": 127,
      "chip": "ym2612"
    },
    {
      "channel": 2,
      "note": 37,
      "start": 26.4669,
      "duration": 0.1095,
      "velocity": 120,
      "chip": "ym2612"
    },
    {
      "channel": 2,
      "note": 37,
      "start": 26.5815,
      "duration": 0.1096,
      "velocity": 120,
      "chip": "ym2612"
    },
    {
      "channel": 4,
      "note": 50,
      "start": 26.6956,
      "duration": 0.3447,
      "velocity": 91,
      "chip": "ym2612"
    },
    {
      "channel": 2,
      "note": 41,
      "start": 26.6967,
      "duration": 0.109,
      "velocity": 127,
      "chip": "ym2612"
    },
    {
      "channel": 2,
      "note": 37,
      "start": 26.8109,
      "duration": 0.1095,
      "velocity": 120,
      "chip": "ym2612"
    },
    {
      "channel": 2,
      "note": 37,
      "start": 26.9256,
      "duration": 0.1095,
      "velocity": 120,
      "chip": "ym2612"
    },
    {
      "channel": 0,
      "note": 78,
      "start": 27.0385,
      "duration": 0.2288,
      "velocity": 75,
      "chip": "ym2612"
    },
    {
      "channel": 1,
      "note": 81,
      "start": 27.0393,
      "duration": 0.2288,
      "velocity": 97,
      "chip": "ym2612"
    },
    {
      "channel": 3,
      "note": 74,
      "start": 27.04,
      "duration": 0.1133,
      "velocity": 91,
      "chip": "ym2612"
    },
    {
      "channel": 4,
      "note": 50,
      "start": 27.0408,
      "duration": 0.2288,
      "velocity": 91,
      "chip": "ym2612"
    },
    {
      "channel": 5,
      "note": 90,
      "start": 27.0415,
      "duration": 0.2287,
      "velocity": 96,
      "chip": "ym2612"
    },
    {
      "channel": 2,
      "note": 41,
      "start": 27.0424,
      "duration": 0.1074,
      "velocity": 127,
      "chip": "ym2612"
    },
    {
      "channel": 3,
      "note": 64,
      "start": 27.1539,
      "duration": 0.1149,
      "velocity": 91,
      "chip": "ym2612"
    },
    {
      "channel": 2,
      "note": 41,
      "start": 27.1554,
      "duration": 0.109,
      "velocity": 127,
      "chip": "ym2612"
    },
    {
      "channel": 0,
      "note": 80,
      "start": 27.2679,
      "duration": 0.2289,
      "velocity": 75,
      "chip": "ym2612"
    },
    {
      "channel": 1,
      "note": 83,
      "start": 27.2687,
      "duration": 0.2289,
      "velocity": 97,
      "chip": "ym2612"
    },
    {
      "channel": 3,
      "note": 76,
      "start": 27.2694,
      "duration": 0.2291,
      "velocity": 91,
      "chip": "ym2612"
    },
    {
      "channel": 4,
      "note": 52,
      "start": 27.2701,
      "duration": 0.2291,
      "velocity": 91,
      "chip": "ym2612"
    },
    {
      "channel": 5,
      "note": 92,
      "start": 27.2709,
      "duration": 0.2291,
      "velocity": 96,
      "chip": "ym2612"
    },
    {
      "channel": 2,
      "note": 41,
      "start": 27.2716,
      "duration": 0.1074,
      "velocity": 127,
      "chip": "ym2612"
    },
    {
      "channel": 2,
      "note": 41,
      "start": 27.3842,
      "duration": 0.1098,
      "velocity": 127,
      "chip": "ym2612"
    },
    {
      "channel": 0,
      "note": 81,
      "start": 27.4975,
      "duration": 0.3403,
      "velocity": 75,
      "chip": "ym2612"
    },
    {
      "channel": 1,
      "note": 85,
      "start": 27.4982,
      "duration": 0.3403,
      "velocity": 97,
      "chip": "ym2612"
    },
    {
      "channel": 3,
      "note": 74,
      "start": 27.499,
      "duration": 0.1101,
      "velocity": 91,
      "chip": "ym2612"
    },
    {
      "channel": 4,
      "note": 50,
      "start": 27.4998,
      "duration": 0.2276,
      "velocity": 91,
      "chip": "ym2612"
    },
    {
      "channel": 5,
      "note": 93,
      "start": 27.5006,
      "duration": 0.3403,
      "velocity": 96,
      "chip": "ym2612"
    },
    {
      "channel": 2,
      "note": 37,
      "start": 27.5013,
      "duration": 0.128,
      "velocity": 120,
      "chip": "ym2612"
    },
    {
      "channel": 3,
      "note": 69,
      "start": 27.6098,
      "duration": 0.1169,
      "velocity": 91,
      "chip": "ym2612"
    },
    {
      "channel": 3,
      "note": 62,
      "start": 27.7272,
      "duration": 0.1121,
      "velocity": 91,
      "chip": "ym2612"
    },
    {
      "channel": 4,
      "note": 50,
      "start": 27.728,
      "duration": 0.112,
      "velocity": 91,
      "chip": "ym2612"
    },
    {
      "channel": 2,
      "note": 41,
      "start": 27.7291,
      "duration": 0.2232,
      "velocity": 127,
      "chip": "ym2612"
    },
    {
      "channel": 0,
      "note": 80,
      "start": 27.8384,
      "duration": 0.3461,
      "velocity": 75,
      "chip": "ym2612"
    },
    {
      "channel": 1,
      "note": 83,
      "start": 27.8391,
      "duration": 0.3461,
      "velocity": 97,
      "chip": "ym2612"
    },
    {
      "channel": 3,
      "note": 74,
      "start": 27.8399,
      "duration": 0.116,
      "velocity": 91,
      "chip": "ym2612"
    },
    {
      "channel": 4,
      "note": 50,
      "start": 27.8407,
      "duration": 0.2306,
      "velocity": 91,
      "chip": "ym2612"
    },
    {
      "channel": 5,
      "note": 92,
      "start": 27.8414,
      "duration": 0.3457,
      "velocity": 96,
      "chip": "ym2612"
    },
    {
      "channel": 3,
      "note": 69,
      "start": 27.9564,
      "duration": 0.1141,
      "velocity": 91,
      "chip": "ym2612"
    },
    {
      "channel": 2,
      "note": 37,
      "start": 27.9579,
      "duration": 0.1092,
      "velocity": 120,
      "chip": "ym2612"
    },
    {
      "channel": 3,
      "note": 62,
      "start": 28.0711,
      "duration": 0.1149,
      "velocity": 91,
      "chip": "ym2612"
    },
    {
      "channel": 4,
      "note": 50,
      "start": 28.0718,
      "duration": 0.2289,
      "velocity": 91,
      "chip": "ym2612"
    },
    {
      "channel": 2,
      "note": 37,
      "start": 28.0729,
      "duration": 0.1088,
      "velocity": 120,
      "chip": "ym2612"
    },
    {
      "channel": 0,
      "note": 78,
      "start": 28.1851,
      "duration": 0.2261,
      "velocity": 75,
      "chip": "ym2612"
    },
    {
      "channel": 1,
      "note": 81,
      "start": 28.1859,
      "duration": 0.2261,
      "velocity": 97,
      "chip": "ym2612"
    },
    {
      "channel": 3,
      "note": 74,
      "start": 28.1866,
      "duration": 0.1133,
      "velocity": 91,
      "chip": "ym2612"
    },
    {
      "channel": 5,
      "note": 90,
      "start": 28.1877,
      "duration": 0.2265,
      "velocity": 96,
      "chip": "ym2612"
    },
    {
      "channel": 2,
      "note": 41,
      "start": 28.1886,
      "duration": 0.1079,
      "velocity": 127,
      "chip": "ym2612"
    },
    {
      "channel": 3,
      "note": 69,
      "start": 28.3005,
      "duration": 0.1122,
      "velocity": 91,
      "chip": "ym2612"
    },
    {
      "channel": 4,
      "note": 50,
      "start": 28.3013,
      "duration": 0.1122,
      "velocity": 91,
      "chip": "ym2612"
    },
    {
      "channel": 2,
      "note": 37,
      "start": 28.3024,
      "duration": 0.1296,
      "velocity": 120,
      "chip": "ym2612"
    },
    {
      "channel": 0,
      "note": 80,
      "start": 28.4118,
      "duration": 0.3461,
      "velocity": 75,
      "chip": "ym2612"
    },
    {
      "channel": 1,
      "note": 83,
      "start": 28.4126,
      "duration": 0.3461,
      "velocity": 97,
      "chip": "ym2612"
    },
    {
      "channel": 3,
      "note": 76,
      "start": 28.4134,
      "duration": 0.1159,
      "velocity": 91,
      "chip": "ym2612"
    },
    {
      "channel": 4,
      "note": 52,
      "start": 28.4141,
      "duration": 0.2307,
      "velocity": 91,
      "chip": "ym2612"
    },
    {
      "channel": 5,
      "note": 92,
      "start": 28.4148,
      "duration": 0.3461,
      "velocity": 96,
      "chip": "ym2612"
    },
    {
      "channel": 3,
      "note": 71,
      "start": 28.5298,
      "duration": 0.1141,
      "velocity": 91,
      "chip": "ym2612"
    },
    {
      "channel": 2,
      "note": 37,
      "start": 28.5312,
      "duration": 0.1093,
      "velocity": 120,
      "chip": "ym2612"
    },
    {
      "channel": 3,
      "note": 64,
      "start": 28.6445,
      "duration": 0.1149,
      "velocity": 91,
      "chip": "ym2612"
    },
    {
      "channel": 4,
      "note": 52,
      "start": 28.6453,
      "duration": 0.1148,
      "velocity": 91,
      "chip": "ym2612"
    },
    {
      "channel": 2,
      "note": 41,
      "start": 28.6464,
      "duration": 0.1086,
      "velocity": 127,
      "chip": "ym2612"
    },
    {
      "channel": 0,
      "note": 78,
      "start": 28.7585,
      "duration": 0.3433,
      "velocity": 75,
      "chip": "ym2612"
    },
    {
      "channel": 1,
      "note": 81,
      "start": 28.7592,
      "duration": 0.3433,
      "velocity": 97,
      "chip": "ym2612"
    },
    {
      "channel": 3,
      "note": 76,
      "start": 28.76,
      "duration": 0.1107,
      "velocity": 91,
      "chip": "ym2612"
    },
    {
      "channel": 4,
      "note": 52,
      "start": 28.7607,
      "duration": 0.2279,
      "velocity": 91,
      "chip": "ym2612"
    },
    {
      "channel": 5,
      "note": 90,
      "start": 28.7615,
      "duration": 0.3429,
      "velocity": 96,
      "chip": "ym2612"
    },
    {
      "channel": 2,
      "note": 37,
      "start": 28.7622,
      "duration": 0.1284,
      "velocity": 120,
      "chip": "ym2612"
    },
    {
      "channel": 3,
      "note": 71,
      "start": 28.8713,
      "duration": 0.1166,
      "velocity": 91,
      "chip": "ym2612"
    },
    {
      "channel": 3,
      "note": 64,
      "start": 28.9884,
      "duration": 0.1149,
      "velocity": 91,
      "chip": "ym2612"
    },
    {
      "channel": 4,
      "note": 52,
      "start": 28.9892,
      "duration": 0.2291,
      "velocity": 91,
      "chip": "ym2612"
    },
    {
      "channel": 2,
      "note": 37,
      "start": 28.9903,
      "duration": 0.1087,
      "velocity": 120,
      "chip": "ym2612"
    },
    {
      "channel": 0,
      "note": 76,
      "start": 29.1024,
      "duration": 0.229,
      "velocity": 75,
      "chip": "ym2612"
    },
    {
      "channel": 1,
      "note": 80,
      "start": 29.1032,
      "duration": 0.229,
      "velocity": 97,
      "chip": "ym2612"
    },
    {
      "channel": 3,
      "note": 76,
      "start": 29.1039,
      "duration": 0.1136,
      "velocity": 91,
      "chip": "ym2612"
    },
    {
      "channel": 5,
      "note": 88,
      "start": 29.105,
      "duration": 0.2296,
      "velocity": 96,
      "chip": "ym2612"
    },
    {
      "channel": 2,
      "note": 41,
      "start": 29.1058,
      "duration": 0.1083,
      "velocity": 127,
      "chip": "ym2612"
    },
    {
      "channel": 3,
      "note": 71,
      "start": 29.2181,
      "duration": 0.1149,
      "velocity": 91,
      "chip": "ym2612"
    },
    {
      "channel": 4,
      "note": 52,
      "start": 29.2188,
      "duration": 0.1149,
      "velocity": 91,
      "chip": "ym2612"
    },
    {
      "channel": 2,
      "note": 37,
      "start": 29.2199,
      "duration": 0.1086,
      "velocity": 120,
      "chip": "ym2612"
    },
    {
      "channel": 0,
      "note": 78,
      "start": 29.3321,
      "duration": 1.8343,
      "velocity": 75,
      "chip": "ym2612"
    },
    {
      "channel": 1,
      "note": 81,
      "start": 29.3328,
      "duration": 1.0307,
      "velocity": 97,
      "chip": "ym2612"
    },
    {
      "channel": 3,
      "note": 78,
      "start": 29.3337,
      "duration": 0.1101,
      "velocity": 91,
      "chip": "ym2612"
    },
    {
      "channel": 4,
      "note": 54,
      "start": 29.3344,
      "duration": 0.1101,
      "velocity": 91,
      "chip": "ym2612"
    },
    {
      "channel": 5,
      "note": 90,
      "start": 29.3353,
      "duration": 1.8378,
      "velocity": 96,
      "chip": "ym2612"
    },
    {
      "channel": 2,
      "note": 37,
      "start": 29.336,
      "duration": 0.128,
      "velocity": 120,
      "chip": "ym2612"
    },
    {
      "channel": 3,
      "note": 73,
      "start": 29.4444,
      "duration": 0.1168,
      "velocity": 91,
      "chip": "ym2612"
    },
    {
      "channel": 4,
      "note": 54,
      "start": 29.4451,
      "duration": 0.3463,
      "velocity": 91,
      "chip": "ym2612"
    },
    {
      "channel": 3,
      "note": 66,
      "start": 29.5617,
      "duration": 0.1115,
      "velocity": 91,
      "chip": "ym2612"
    },
    {
      "channel": 2,
      "note": 41,
      "start": 29.5632,
      "duration": 0.2238,
      "velocity": 127,
      "chip": "ym2612"
    },
    {
      "channel": 3,
      "note": 78,
      "start": 29.6738,
      "duration": 0.1168,
      "velocity": 91,
      "chip": "ym2612"
    },
    {
      "channel": 3,
      "note": 73,
      "start": 29.7912,
      "duration": 0.1141,
      "velocity": 91,
      "chip": "ym2612"
    },
    {
      "channel": 4,
      "note": 54,
      "start": 29.7919,
      "duration": 0.1141,
      "velocity": 91,
      "chip": "ym2612"
    },
    {
      "channel": 2,
      "note": 37,
      "start": 29.793,
      "duration": 0.1087,
      "velocity": 120,
      "chip": "ym2612"
    },
    {
      "channel": 3,
      "note": 66,
      "start": 29.9058,
      "duration": 0.114,
      "velocity": 91,
      "chip": "ym2612"
    },
    {
      "channel": 4,
      "note": 54,
      "start": 29.9066,
      "duration": 0.2288,
      "velocity": 91,
      "chip": "ym2612"
    },
    {
      "channel": 2,
      "note": 37,
      "start": 29.9076,
      "duration": 0.1087,
      "velocity": 120,
      "chip": "ym2612"
    },
    {
      "channel": 3,
      "note": 78,
      "start": 30.0204,
      "duration": 0.1142,
      "velocity": 91,
      "chip": "ym2612"
    },
    {
      "channel": 2,
      "note": 41,
      "start": 30.0219,
      "duration": 0.1092,
      "velocity": 127,
      "chip": "ym2612"
    },
    {
      "channel": 3,
      "note": 73,
      "start": 30.1351,
      "duration": 0.1114,
      "velocity": 91,
      "chip": "ym2612"
    },
    {
      "channel": 4,
      "note": 54,
      "start": 30.1359,
      "duration": 0.2292,
      "velocity": 91,
      "chip": "ym2612"
    },
    {
      "channel": 2,
      "note": 37,
      "start": 30.1369,
      "duration": 0.1297,
      "velocity": 120,
      "chip": "ym2612"
    },
    {
      "channel": 3,
      "note": 66,
      "start": 30.2471,
      "duration": 0.1172,
      "velocity": 91,
      "chip": "ym2612"
    },
    {
      "channel": 1,
      "note": 85,
      "start": 30.3641,
      "duration": 0.114,
      "velocity": 97,
      "chip": "ym2612"
    },
    {
      "channel": 3,
      "note": 76,
      "start": 30.3649,
      "duration": 0.114,
      "velocity": 91,
      "chip": "ym2612"
    },
    {
      "channel": 4,
      "note": 66,
      "start": 30.3657,
      "duration": 0.1139,
      "velocity": 91,
      "chip": "ym2612"
    },
    {
      "channel": 2,
      "note": 41,
      "start": 30.3668,
      "duration": 0.1081,
      "velocity": 127,
      "chip": "ym2612"
    },
    {
      "channel": 1,
      "note": 83,
      "start": 30.4787,
      "duration": 0.1142,
      "velocity": 97,
      "chip": "ym2612"
    },
    {
      "channel": 3,
      "note": 78,
      "start": 30.4795,
      "duration": 0.1142,
      "velocity": 91,
      "chip": "ym2612"
    },
    {
      "channel": 4,
      "note": 66,
      "start": 30.4802,
      "duration": 0.1143,
      "velocity": 91,
      "chip": "ym2612"
    },
    {
      "channel": 2,
      "note": 41,
      "start": 30.4813,
      "duration": 0.1084,
      "velocity": 127,
      "chip": "ym2612"
    },
    {
      "channel": 1,
      "note": 81,
      "start": 30.5935,
      "duration": 0.1139,
      "velocity": 97,
      "chip": "ym2612"
    },
    {
      "channel": 3,
      "note": 73,
      "start": 30.5943,
      "duration": 0.1139,
      "velocity": 91,
      "chip": "ym2612"
    },
    {
      "channel": 4,
      "note": 66,
      "start": 30.595,
      "duration": 0.114,
      "velocity": 91,
      "chip": "ym2612"
    },
    {
      "channel": 2,
      "note": 41,
      "start": 30.5961,
      "duration": 0.1082,
      "velocity": 127,
      "chip": "ym2612"
    },
    {
      "channel": 1,
      "note": 83,
      "start": 30.7081,
      "duration": 0.1141,
      "velocity": 97,
      "chip": "ym2612"
    },
    {
      "channel": 3,
      "note": 76,
      "start": 30.7089,
      "duration": 0.1141,
      "velocity": 91,
      "chip": "ym2612"
    },
    {
      "channel": 4,
      "note": 66,
      "start": 30.7095,
      "duration": 0.1142,
      "velocity": 91,
      "chip": "ym2612"
    },
    {
      "channel": 2,
      "note": 41,
      "start": 30.7107,
      "duration": 0.1083,
      "velocity": 127,
      "chip": "ym2612"
    },
    {
      "channel": 1,
      "note": 81,
      "start": 30.8228,
      "duration": 0.114,
      "velocity": 97,
      "chip": "ym2612"
    },
    {
      "channel": 3,
      "note": 71,
      "start": 30.8236,
      "duration": 0.1139,
      "velocity": 91,
      "chip": "ym2612"
    },
    {
      "channel": 4,
      "note": 66,
      "start": 30.8243,
      "duration": 0.1139,
      "velocity": 91,
      "chip": "ym2612"
    },
    {
      "channel": 2,
      "note": 41,
      "start": 30.8255,
      "duration": 0.1081,
      "velocity": 127,
      "chip": "ym2612"
    },
    {
      "channel": 1,
      "note": 80,
      "start": 30.9373,
      "duration": 0.1141,
      "velocity": 97,
      "chip": "ym2612"
    },
    {
      "channel": 3,
      "note": 73,
      "start": 30.9381,
      "duration": 0.1141,
      "velocity": 91,
      "chip": "ym2612"
    },
    {
      "channel": 4,
      "note": 66,
      "start": 30.9388,
      "duration": 0.1142,
      "velocity": 91,
      "chip": "ym2612"
    },
    {
      "channel": 2,
      "note": 41,
      "start": 30.94,
      "duration": 0.1084,
      "velocity": 127,
      "chip": "ym2612"
    },
    {
      "channel": 1,
      "note": 78,
      "start": 31.0521,
      "duration": 0.1185,
      "velocity": 96,
      "chip": "ym2612"
    },
    {
      "channel": 3,
      "note": 69,
      "start": 31.0529,
      "duration": 0.1183,
      "velocity": 91,
      "chip": "ym2612"
    },
    {
      "channel": 4,
      "note": 66,
      "start": 31.0536,
      "duration": 0.1185,
      "velocity": 91,
      "chip": "ym2612"
    },
    {
      "channel": 2,
      "note": 41,
      "start": 31.0547,
      "duration": 0.1087,
      "velocity": 127,
      "chip": "ym2612"
    },
    {
      "channel": 0,
      "note": 69,
      "start": 31.167,
      "duration": 0.9135,
      "velocity": 75,
      "chip": "ym2612"
    },
    {
      "channel": 3,
      "note": 74,
      "start": 31.1718,
      "duration": 0.1064,
      "velocity": 91,
      "chip": "ym2612"
    },
    {
      "channel": 4,
      "note": 50,
      "start": 31.1727,
      "duration": 0.4534,
      "velocity": 91,
      "chip": "ym2612"
    },
    {
      "channel": 5,
      "note": 81,
      "start": 31.1737,
      "duration": 0.909,
      "velocity": 96,
      "chip": "ym2612"
    },
    {
      "channel": 2,
      "note": 37,
      "start": 31.1744,
      "duration": 0.1239,
      "velocity": 120,
      "chip": "ym2612"
    },
    {
      "channel": 3,
      "note": 69,
      "start": 31.2788,
      "duration": 0.117,
      "velocity": 91,
      "chip": "ym2612"
    },
    {
      "channel": 1,
      "note": 81,
      "start": 31.3169,
      "duration": 0.9167,
      "velocity": 96,
      "chip": "ym2612"
    },
    {
      "channel": 3,
      "note": 62,
      "start": 31.3964,
      "duration": 0.1113,
      "velocity": 91,
      "chip": "ym2612"
    },
    {
      "channel": 2,
      "note": 41,
      "start": 31.3979,
      "duration": 0.2238,
      "velocity": 127,
      "chip": "ym2612"
    },
    {
      "channel": 3,
      "note": 74,
      "start": 31.5083,
      "duration": 0.117,
      "velocity": 91,
      "chip": "ym2612"
    },
    {
      "channel": 3,
      "note": 69,
      "start": 31.6259,
      "duration": 0.114,
      "velocity": 91,
      "chip": "ym2612"
    },
    {
      "channel": 4,
      "note": 50,
      "start": 31.6266,
      "duration": 0.114,
      "velocity": 91,
      "chip": "ym2612"
    },
    {
      "channel": 2,
      "note": 37,
      "start": 31.6277,
      "duration": 0.1086,
      "velocity": 120,
      "chip": "ym2612"
    },
    {
      "channel": 3,
      "note": 62,
      "start": 31.7405,
      "duration": 0.114,
      "velocity": 91,
      "chip": "ym2612"
    },
    {
      "channel": 4,
      "note": 50,
      "start": 31.7412,
      "duration": 0.2287,
      "velocity": 91,
      "chip": "ym2612"
    },
    {
      "channel": 2,
      "note": 37,
      "start": 31.7422,
      "duration": 0.1088,
      "velocity": 120,
      "chip": "ym2612"
    },
    {
      "channel": 3,
      "note": 74,
      "start": 31.8551,
      "duration": 0.114,
      "velocity": 91,
      "chip": "ym2612"
    },
    {
      "channel": 2,
      "note": 41,
      "start": 31.8566,
      "duration": 0.109,
      "velocity": 127,
      "chip": "ym2612"
    },
    {
      "channel": 3,
      "note": 69,
      "start": 31.9697,
      "duration": 0.112,
      "velocity": 91,
      "chip": "ym2612"
    },
    {
      "channel": 4,
      "note": 52,
      "start": 31.9704,
      "duration": 0.5702,
      "velocity": 91,
      "chip": "ym2612"
    },
    {
      "channel": 2,
      "note": 37,
      "start": 31.9715,
      "duration": 0.1297,
      "velocity": 120,
      "chip": "ym2612"
    },
    {
      "channel": 0,
      "note": 71,
      "start": 32.0811,
      "duration": 0.346,
      "velocity": 75,
      "chip": "ym2612"
    },
    {
      "channel": 3,
      "note": 76,
      "start": 32.0822,
      "duration": 0.1166,
      "velocity": 91,
      "chip": "ym2612"
    },
    {
      "channel": 5,
      "note": 83,
      "start": 32.0833,
      "duration": 0.346,
      "velocity": 96,
      "chip": "ym2612"
    },
    {
      "channel": 3,
      "note": 71,
      "start": 32.1994,
      "duration": 0.1137,
      "velocity": 91,
      "chip": "ym2612"
    },
    {
      "channel": 2,
      "note": 37,
      "start": 32.2008,
      "duration": 0.1089,
      "velocity": 120,
      "chip": "ym2612"
    },
    {
      "channel": 1,
      "note": 83,
      "start": 32.2342,
      "duration": 0.3433,
      "velocity": 96,
      "chip": "ym2612"
    },
    {
      "channel": 3,
      "note": 64,
      "start": 32.3137,
      "duration": 0.1145,
      "velocity": 91,
      "chip": "ym2612"
    },
    {
      "channel": 2,
      "note": 41,
      "start": 32.3152,
      "duration": 0.1091,
      "velocity": 127,
      "chip": "ym2612"
    },
    {
      "channel": 0,
      "note": 69,
      "start": 32.4277,
      "duration": 0.3434,
      "velocity": 75,
      "chip": "ym2612"
    },
    {
      "channel": 3,
      "note": 76,
      "start": 32.4288,
      "duration": 0.111,
      "velocity": 91,
      "chip": "ym2612"
    },
    {
      "channel": 5,
      "note": 81,
      "start": 32.4299,
      "duration": 0.3434,
      "velocity": 96,
      "chip": "ym2612"
    },
    {
      "channel": 2,
      "note": 37,
      "start": 32.4306,
      "duration": 0.1293,
      "velocity": 120,
      "chip": "ym2612"
    },
    {
      "channel": 3,
      "note": 71,
      "start": 32.5404,
      "duration": 0.1167,
      "velocity": 91,
      "chip": "ym2612"
    },
    {
      "channel": 4,
      "note": 52,
      "start": 32.5412,
      "duration": 0.1167,
      "velocity": 91,
      "chip": "ym2612"
    },
    {
      "channel": 1,
      "note": 81,
      "start": 32.5781,
      "duration": 0.3434,
      "velocity": 96,
      "chip": "ym2612"
    },
    {
      "channel": 3,
      "note": 64,
      "start": 32.6577,
      "duration": 0.1145,
      "velocity": 91,
      "chip": "ym2612"
    },
    {
      "channel": 4,
      "note": 52,
      "start": 32.6585,
      "duration": 0.3444,
      "velocity": 91,
      "chip": "ym2612"
    },
    {
      "channel": 2,
      "note": 37,
      "start": 32.6595,
      "duration": 0.1088,
      "velocity": 120,
      "chip": "ym2612"
    },
    {
      "channel": 0,
      "note": 68,
      "start": 32.7718,
      "duration": 0.229,
      "velocity": 75,
      "chip": "ym2612"
    },
    {
      "channel": 3,
      "note": 76,
      "start": 32.7729,
      "duration": 0.1136,
      "velocity": 91,
      "chip": "ym2612"
    },
    {
      "channel": 5,
      "note": 80,
      "start": 32.774,
      "duration": 0.2296,
      "velocity": 96,
      "chip": "ym2612"
    },
    {
      "channel": 2,
      "note": 41,
      "start": 32.7748,
      "duration": 0.1082,
      "velocity": 127,
      "chip": "ym2612"
    },
    {
      "channel": 3,
      "note": 71,
      "start": 32.887,
      "duration": 0.115,
      "velocity": 91,
      "chip": "ym2612"
    },
    {
      "channel": 2,
      "note": 37,
      "start": 32.8884,
      "duration": 0.1095,
      "velocity": 120,
      "chip": "ym2612"
    },
    {
      "channel": 1,
      "note": 80,
      "start": 32.9222,
      "duration": 0.2287,
      "velocity": 96,
      "chip": "ym2612"
    },
    {
      "channel": 0,
      "note": 69,
      "start": 33.0013,
      "duration": 0.3403,
      "velocity": 75,
      "chip": "ym2612"
    },
    {
      "channel": 3,
      "note": 78,
      "start": 33.0026,
      "duration": 0.1104,
      "velocity": 91,
      "chip": "ym2612"
    },
    {
      "channel": 4,
      "note": 54,
      "start": 33.0034,
      "duration": 0.4571,
      "velocity": 91,
      "chip": "ym2612"
    },
    {
      "channel": 5,
      "note": 81,
      "start": 33.0042,
      "duration": 0.3396,
      "velocity": 96,
      "chip": "ym2612"
    },
    {
      "channel": 2,
      "note": 37,
      "start": 33.005,
      "duration": 0.1283,
      "velocity": 120,
      "chip": "ym2612"
    },
    {
      "channel": 3,
      "note": 73,
      "start": 33.1136,
      "duration": 0.1169,
      "velocity": 91,
      "chip": "ym2612"
    },
    {
      "channel": 1,
      "note": 81,
      "start": 33.1515,
      "duration": 0.3434,
      "velocity": 96,
      "chip": "ym2612"
    },
    {
      "channel": 3,
      "note": 66,
      "start": 33.231,
      "duration": 0.1118,
      "velocity": 91,
      "chip": "ym2612"
    },
    {
      "channel": 2,
      "note": 41,
      "start": 33.2325,
      "duration": 0.2237,
      "velocity": 127,
      "chip": "ym2612"
    },
    {
      "channel": 0,
      "note": 68,
      "start": 33.3422,
      "duration": 0.3461,
      "velocity": 75,
      "chip": "ym2612"
    },
    {
      "channel": 3,
      "note": 78,
      "start": 33.3433,
      "duration": 0.1165,
      "velocity": 91,
      "chip": "ym2612"
    },
    {
      "channel": 5,
      "note": 80,
      "start": 33.3444,
      "duration": 0.3462,
      "velocity": 96,
      "chip": "ym2612"
    },
    {
      "channel": 3,
      "note": 73,
      "start": 33.4604,
      "duration": 0.1141,
      "velocity": 91,
      "chip": "ym2612"
    },
    {
      "channel": 4,
      "note": 54,
      "start": 33.4612,
      "duration": 0.1141,
      "velocity": 91,
      "chip": "ym2612"
    },
    {
      "channel": 2,
      "note": 37,
      "start": 33.4622,
      "duration": 0.1088,
      "velocity": 120,
      "chip": "ym2612"
    },
    {
      "channel": 1,
      "note": 80,
      "start": 33.4955,
      "duration": 0.3435,
      "velocity": 96,
      "chip": "ym2612"
    },
    {
      "channel": 3,
      "note": 66,
      "start": 33.5751,
      "duration": 0.1143,
      "velocity": 91,
      "chip": "ym2612"
    },
    {
      "channel": 4,
      "note": 54,
      "start": 33.5759,
      "duration": 0.2287,
      "velocity": 91,
      "chip": "ym2612"
    },
    {
      "channel": 2,
      "note": 37,
      "start": 33.5769,
      "duration": 0.1087,
      "velocity": 120,
      "chip": "ym2612"
    },
    {
      "channel": 0,
      "note": 66,
      "start": 33.689,
      "duration": 1.1465,
      "velocity": 75,
      "chip": "ym2612"
    },
    {
      "channel": 3,
      "note": 78,
      "start": 33.6901,
      "duration": 0.1137,
      "velocity": 91,
      "chip": "ym2612"
    },
    {
      "channel": 5,
      "note": 78,
      "start": 33.6912,
      "duration": 1.1472,
      "velocity": 96,
      "chip": "ym2612"
    },
    {
      "channel": 2,
      "note": 41,
      "start": 33.692,
      "duration": 0.1083,
      "velocity": 127,
      "chip": "ym2612"
    },
    {
      "channel": 3,
      "note": 73,
      "start": 33.8044,
      "duration": 0.1113,
      "velocity": 91,
      "chip": "ym2612"
    },
    {
      "channel": 4,
      "note": 54,
      "start": 33.8051,
      "duration": 0.57,
      "velocity": 91,
      "chip": "ym2612"
    },
    {
      "channel": 2,
      "note": 37,
      "start": 33.8062,
      "duration": 0.1296,
      "velocity": 120,
      "chip": "ym2612"
    },
    {
      "channel": 1,
      "note": 78,
      "start": 33.8396,
      "duration": 1.1458,
      "velocity": 96,
      "chip": "ym2612"
    },
    {
      "channel": 3,
      "note": 78,
      "start": 33.9163,
      "duration": 0.1167,
      "velocity": 91,
      "chip": "ym2612"
    },
    {
      "channel": 3,
      "note": 73,
      "start": 34.0336,
      "duration": 0.1141,
      "velocity": 91,
      "chip": "ym2612"
    },
    {
      "channel": 2,
      "note": 37,
      "start": 34.035,
      "duration": 0.1092,
      "velocity": 120,
      "chip": "ym2612"
    },
    {
      "channel": 3,
      "note": 66,
      "start": 34.1483,
      "duration": 0.1141,
      "velocity": 91,
      "chip": "ym2612"
    },
    {
      "channel": 2,
      "note": 41,
      "start": 34.1498,
      "duration": 0.1091,
      "velocity": 127,
      "chip": "ym2612"
    },
    {
      "channel": 3,
      "note": 78,
      "start": 34.263,
      "duration": 0.1115,
      "velocity": 91,
      "chip": "ym2612"
    },
    {
      "channel": 2,
      "note": 37,
      "start": 34.2644,
      "duration": 0.1301,
      "velocity": 120,
      "chip": "ym2612"
    },
    {
      "channel": 3,
      "note": 73,
      "start": 34.375,
      "duration": 0.1167,
      "velocity": 91,
      "chip": "ym2612"
    },
    {
      "channel": 4,
      "note": 54,
      "start": 34.3757,
      "duration": 0.1168,
      "velocity": 91,
      "chip": "ym2612"
    },
    {
      "channel": 3,
      "note": 66,
      "start": 34.4923,
      "duration": 0.1141,
      "velocity": 91,
      "chip": "ym2612"
    },
    {
      "channel": 4,
      "note": 54,
      "start": 34.4931,
      "duration": 0.1141,
      "velocity": 91,
      "chip": "ym2612"
    },
    {
      "channel": 2,
      "note": 37,
      "start": 34.4941,
      "duration": 0.1088,
      "velocity": 120,
      "chip": "ym2612"
    },
    {
      "channel": 3,
      "note": 76,
      "start": 34.607,
      "duration": 0.1141,
      "velocity": 91,
      "chip": "ym2612"
    },
    {
      "channel": 4,
      "note": 52,
      "start": 34.6078,
      "duration": 0.1141,
      "velocity": 91,
      "chip": "ym2612"
    },
    {
      "channel": 2,
      "note": 41,
      "start": 34.6089,
      "duration": 0.1087,
      "velocity": 127,
      "chip": "ym2612"
    },
    {
      "channel": 3,
      "note": 64,
      "start": 34.7216,
      "duration": 0.1151,
      "velocity": 91,
      "chip": "ym2612"
    },
    {
      "channel": 4,
      "note": 52,
      "start": 34.7224,
      "duration": 0.1153,
      "velocity": 91,
      "chip": "ym2612"
    },
    {
      "channel": 2,
      "note": 37,
      "start": 34.7235,
      "duration": 0.1092,
      "velocity": 120,
      "chip": "ym2612"
    },
    {
      "channel": 0,
      "note": 69,
      "start": 34.8361,
      "duration": 0.9137,
      "velocity": 75,
      "chip": "ym2612"
    },
    {
      "channel": 3,
      "note": 74,
      "start": 34.8373,
      "duration": 0.1103,
      "velocity": 91,
      "chip": "ym2612"
    },
    {
      "channel": 4,
      "note": 50,
      "start": 34.8383,
      "duration": 0.4569,
      "velocity": 91,
      "chip": "ym2612"
    },
    {
      "channel": 5,
      "note": 81,
      "start": 34.8391,
      "duration": 0.9129,
      "velocity": 96,
      "chip": "ym2612"
    },
    {
      "channel": 2,
      "note": 37,
      "start": 34.8398,
      "duration": 0.128,
      "velocity": 120,
      "chip": "ym2612"
    },
    {
      "channel": 3,
      "note": 69,
      "start": 34.9482,
      "duration": 0.1167,
      "velocity": 91,
      "chip": "ym2612"
    },
    {
      "channel": 1,
      "note": 81,
      "start": 34.9861,
      "duration": 0.9167,
      "velocity": 96,
      "chip": "ym2612"
    },
    {
      "channel": 3,
      "note": 62,
      "start": 35.0656,
      "duration": 0.1118,
      "velocity": 91,
      "chip": "ym2612"
    },
    {
      "channel": 2,
      "note": 41,
      "start": 35.0671,
      "duration": 0.2239,
      "velocity": 127,
      "chip": "ym2612"
    },
    {
      "channel": 3,
      "note": 74,
      "start": 35.1779,
      "duration": 0.1165,
      "velocity": 91,
      "chip": "ym2612"
    },
    {
      "channel": 3,
      "note": 69,
      "start": 35.295,
      "duration": 0.1141,
      "velocity": 91,
      "chip": "ym2612"
    },
    {
      "channel": 4,
      "note": 50,
      "start": 35.2958,
      "duration": 0.1141,
      "velocity": 91,
      "chip": "ym2612"
    },
    {
      "channel": 2,
      "note": 37,
      "start": 35.2968,
      "duration": 0.1087,
      "velocity": 120,
      "chip": "ym2612"
    },
    {
      "channel": 3,
      "note": 62,
      "start": 35.4097,
      "duration": 0.1141,
      "velocity": 91,
      "chip": "ym2612"
    },
    {
      "channel": 4,
      "note": 50,
      "start": 35.4104,
      "duration": 0.2287,
      "velocity": 91,
      "chip": "ym2612"
    },
    {
      "channel": 2,
      "note": 37,
      "start": 35.4115,
      "duration": 0.1088,
      "velocity": 120,
      "chip": "ym2612"
    },
    {
      "channel": 3,
      "note": 74,
      "start": 35.5244,
      "duration": 0.1139,
      "velocity": 91,
      "chip": "ym2612"
    },
    {
      "channel": 2,
      "note": 41,
      "start": 35.5259,
      "duration": 0.109,
      "velocity": 127,
      "chip": "ym2612"
    },
    {
      "channel": 3,
      "note": 69,
      "start": 35.6389,
      "duration": 0.1119,
      "velocity": 91,
      "chip": "ym2612"
    },
    {
      "channel": 4,
      "note": 52,
      "start": 35.6396,
      "duration": 0.5702,
      "velocity": 91,
      "chip": "ym2612"
    },
    {
      "channel": 2,
      "note": 37,
      "start": 35.6408,
      "duration": 0.1297,
      "velocity": 120,
      "chip": "ym2612"
    },
    {
      "channel": 0,
      "note": 71,
      "start": 35.7504,
      "duration": 0.3459,
      "velocity": 75,
      "chip": "ym2612"
    },
    {
      "channel": 3,
      "note": 76,
      "start": 35.7515,
      "duration": 0.1162,
      "velocity": 91,
      "chip": "ym2612"
    },
    {
      "channel": 5,
      "note": 83,
      "start": 35.7526,
      "duration": 0.3459,
      "velocity": 96,
      "chip": "ym2612"
    },
    {
      "channel": 3,
      "note": 71,
      "start": 35.8683,
      "duration": 0.1141,
      "velocity": 91,
      "chip": "ym2612"
    },
    {
      "channel": 2,
      "note": 37,
      "start": 35.8697,
      "duration": 0.1092,
      "velocity": 120,
      "chip": "ym2612"
    },
    {
      "channel": 1,
      "note": 83,
      "start": 35.9034,
      "duration": 0.3434,
      "velocity": 96,
      "chip": "ym2612"
    },
    {
      "channel": 3,
      "note": 64,
      "start": 35.983,
      "duration": 0.1144,
      "velocity": 91,
      "chip": "ym2612"
    },
    {
      "channel": 2,
      "note": 41,
      "start": 35.9844,
      "duration": 0.1091,
      "velocity": 127,
      "chip": "ym2612"
    },
    {
      "channel": 0,
      "note": 69,
      "start": 36.0969,
      "duration": 0.3434,
      "velocity": 75,
      "chip": "ym2612"
    },
    {
      "channel": 3,
      "note": 76,
      "start": 36.098,
      "duration": 0.1111,
      "velocity": 91,
      "chip": "ym2612"
    },
    {
      "channel": 5,
      "note": 81,
      "start": 36.0991,
      "duration": 0.3434,
      "velocity": 96,
      "chip": "ym2612"
    },
    {
      "channel": 2,
      "note": 37,
      "start": 36.0998,
      "duration": 0.1294,
      "velocity": 120,
      "chip": "ym2612"
    },
    {
      "channel": 3,
      "note": 71,
      "start": 36.2097,
      "duration": 0.1167,
      "velocity": 91,
      "chip": "ym2612"
    },
    {
      "channel": 4,
      "note": 52,
      "start": 36.2104,
      "duration": 0.1168,
      "velocity": 91,
      "chip": "ym2612"
    },
    {
      "channel": 1,
      "note": 81,
      "start": 36.2474,
      "duration": 0.3434,
      "velocity": 96,
      "chip": "ym2612"
    },
    {
      "channel": 3,
      "note": 64,
      "start": 36.327,
      "duration": 0.1144,
      "velocity": 91,
      "chip": "ym2612"
    },
    {
      "channel": 4,
      "note": 52,
      "start": 36.3278,
      "duration": 0.3444,
      "velocity": 91,
      "chip": "ym2612"
    },
    {
      "channel": 2,
      "note": 37,
      "start": 36.3288,
      "duration": 0.1087,
      "velocity": 120,
      "chip": "ym2612"
    },
    {
      "channel": 0,
      "note": 76,
      "start": 36.441,
      "duration": 0.2291,
      "velocity": 75,
      "chip": "ym2612"
    },
    {
      "channel": 3,
      "note": 76,
      "start": 36.4421,
      "duration": 0.1136,
      "velocity": 91,
      "chip": "ym2612"
    },
    {
      "channel": 5,
      "note": 88,
      "start": 36.4432,
      "duration": 0.2298,
      "velocity": 96,
      "chip": "ym2612"
    },
    {
      "channel": 2,
      "note": 41,
      "start": 36.444,
      "duration": 0.1082,
      "velocity": 127,
      "chip": "ym2612"
    },
    {
      "channel": 3,
      "note": 71,
      "start": 36.5563,
      "duration": 0.1151,
      "velocity": 91,
      "chip": "ym2612"
    },
    {
      "channel": 2,
      "note": 37,
      "start": 36.5577,
      "duration": 0.1095,
      "velocity": 120,
      "chip": "ym2612"
    },
    {
      "channel": 1,
      "note": 88,
      "start": 36.5915,
      "duration": 0.2287,
      "velocity": 96,
      "chip": "ym2612"
    },
    {
      "channel": 0,
      "note": 73,
      "start": 36.6706,
      "duration": 1.834,
      "velocity": 75,
      "chip": "ym2612"
    },
    {
      "channel": 3,
      "note": 78,
      "start": 36.6719,
      "duration": 0.1104,
      "velocity": 91,
      "chip": "ym2612"
    },
    {
      "channel": 4,
      "note": 54,
      "start": 36.6727,
      "duration": 0.4571,
      "velocity": 91,
      "chip": "ym2612"
    },
    {
      "channel": 5,
      "note": 85,
      "start": 36.6736,
      "duration": 1.834,
      "velocity": 96,
      "chip": "ym2612"
    },
    {
      "channel": 2,
      "note": 37,
      "start": 36.6742,
      "duration": 0.1282,
      "velocity": 120,
      "chip": "ym2612"
    },
    {
      "channel": 3,
      "note": 73,
      "start": 36.7828,
      "duration": 0.1169,
      "velocity": 91,
      "chip": "ym2612"
    },
    {
      "channel": 1,
      "note": 85,
      "start": 36.8208,
      "duration": 1.834,
      "velocity": 96,
      "chip": "ym2612"
    },
    {
      "channel": 3,
      "note": 66,
      "start": 36.9003,
      "duration": 0.1113,
      "velocity": 91,
      "chip": "ym2612"
    },
    {
      "channel": 2,
      "note": 41,
      "start": 36.9018,
      "duration": 0.2237,
      "velocity": 127,
      "chip": "ym2612"
    },
    {
      "channel": 3,
      "note": 78,
      "start": 37.0122,
      "duration": 0.1169,
      "velocity": 91,
      "chip": "ym2612"
    },
    {
      "channel": 3,
      "note": 73,
      "start": 37.1296,
      "duration": 0.1141,
      "velocity": 91,
      "chip": "ym2612"
    },
    {
      "channel": 4,
      "note": 54,
      "start": 37.1304,
      "duration": 0.1141,
      "velocity": 91,
      "chip": "ym2612"
    },
    {
      "channel": 2,
      "note": 37,
      "start": 37.1314,
      "duration": 0.1088,
      "velocity": 120,
      "chip": "ym2612"
    },
    {
      "channel": 3,
      "note": 66,
      "start": 37.2443,
      "duration": 0.1141,
      "velocity": 91,
      "chip": "ym2612"
    },
    {
      "channel": 4,
      "note": 54,
      "start": 37.2451,
      "duration": 0.2287,
      "velocity": 91,
      "chip": "ym2612"
    },
    {
      "channel": 2,
      "note": 37,
      "start": 37.2461,
      "duration": 0.1088,
      "velocity": 120,
      "chip": "ym2612"
    },
    {
      "channel": 3,
      "note": 78,
      "start": 37.3589,
      "duration": 0.1141,
      "velocity": 91,
      "chip": "ym2612"
    },
    {
      "channel": 2,
      "note": 41,
      "start": 37.3605,
      "duration": 0.109,
      "velocity": 127,
      "chip": "ym2612"
    },
    {
      "channel": 3,
      "note": 73,
      "start": 37.4736,
      "duration": 0.1113,
      "velocity": 91,
      "chip": "ym2612"
    },
    {
      "channel": 4,
      "note": 54,
      "start": 37.4743,
      "duration": 0.5701,
      "velocity": 91,
      "chip": "ym2612"
    },
    {
      "channel": 2,
      "note": 37,
      "start": 37.4754,
      "duration": 0.1296,
      "velocity": 120,
      "chip": "ym2612"
    },
    {
      "channel": 3,
      "note": 78,
      "start": 37.5856,
      "duration": 0.1167,
      "velocity": 91,
      "chip": "ym2612"
    },
    {
      "channel": 3,
      "note": 73,
      "start": 37.7029,
      "duration": 0.1141,
      "velocity": 91,
      "chip": "ym2612"
    },
    {
      "channel": 2,
      "note": 37,
      "start": 37.7043,
      "duration": 0.1093,
      "velocity": 120,
      "chip": "ym2612"
    },
    {
      "channel": 3,
      "note": 71,
      "start": 37.8177,
      "duration": 0.114,
      "velocity": 91,
      "chip": "ym2612"
    },
    {
      "channel": 2,
      "note": 41,
      "start": 37.8192,
      "duration": 0.109,
      "velocity": 127,
      "chip": "ym2612"
    },
    {
      "channel": 3,
      "note": 73,
      "start": 37.9323,
      "duration": 0.1114,
      "velocity": 91,
      "chip": "ym2612"
    },
    {
      "channel": 2,
      "note": 37,
      "start": 37.9337,
      "duration": 0.1301,
      "velocity": 120,
      "chip": "ym2612"
    },
    {
      "channel": 3,
      "note": 71,
      "start": 38.0443,
      "duration": 0.1171,
      "velocity": 91,
      "chip": "ym2612"
    },
    {
      "channel": 4,
      "note": 54,
      "start": 38.045,
      "duration": 0.1171,
      "velocity": 91,
      "chip": "ym2612"
    },
    {
      "channel": 3,
      "note": 69,
      "start": 38.1619,
      "duration": 0.1137,
      "velocity": 91,
      "chip": "ym2612"
    },
    {
      "channel": 4,
      "note": 54,
      "start": 38.1627,
      "duration": 0.1137,
      "velocity": 91,
      "chip": "ym2612"
    },
    {
      "channel": 2,
      "note": 37,
      "start": 38.1637,
      "duration": 0.1084,
      "velocity": 120,
      "chip": "ym2612"
    },
    {
      "channel": 3,
      "note": 68,
      "start": 38.2762,
      "duration": 0.1141,
      "velocity": 91,
      "chip": "ym2612"
    },
    {
      "channel": 4,
      "note": 52,
      "start": 38.277,
      "duration": 0.1141,
      "velocity": 91,
      "chip": "ym2612"
    },
    {
      "channel": 2,
      "note": 41,
      "start": 38.2781,
      "duration": 0.1087,
      "velocity": 127,
      "chip": "ym2612"
    },
    {
      "channel": 3,
      "note": 66,
      "start": 38.3909,
      "duration": 0.115,
      "velocity": 91,
      "chip": "ym2612"
    },
    {
      "channel": 4,
      "note": 52,
      "start": 38.3917,
      "duration": 0.1151,
      "velocity": 91,
      "chip": "ym2612"
    },
    {
      "channel": 2,
      "note": 37,
      "start": 38.3927,
      "duration": 0.109,
      "velocity": 120,
      "chip": "ym2612"
    },
    {
      "channel": 0,
      "note": 69,
      "start": 38.5052,
      "duration": 0.9137,
      "velocity": 75,
      "chip": "ym2612"
    },
    {
      "channel": 3,
      "note": 74,
      "start": 38.5064,
      "duration": 0.1105,
      "velocity": 91,
      "chip": "ym2612"
    },
    {
      "channel": 4,
      "note": 50,
      "start": 38.5075,
      "duration": 0.4569,
      "velocity": 91,
      "chip": "ym2612"
    },
    {
      "channel": 5,
      "note": 81,
      "start": 38.5082,
      "duration": 0.9129,
      "velocity": 96,
      "chip": "ym2612"
    },
    {
      "channel": 2,
      "note": 37,
      "start": 38.5089,
      "duration": 0.1281,
      "velocity": 120,
      "chip": "ym2612"
    },
    {
      "channel": 3,
      "note": 69,
      "start": 38.6175,
      "duration": 0.1168,
      "velocity": 91,
      "chip": "ym2612"
    },
    {
      "channel": 1,
      "note": 81,
      "start": 38.6554,
      "duration": 0.9166,
      "velocity": 96,
      "chip": "ym2612"
    },
    {
      "channel": 3,
      "note": 62,
      "start": 38.7349,
      "duration": 0.1112,
      "velocity": 91,
      "chip": "ym2612"
    },
    {
      "channel": 2,
      "note": 41,
      "start": 38.7364,
      "duration": 0.2237,
      "velocity": 127,
      "chip": "ym2612"
    },
    {
      "channel": 3,
      "note": 74,
      "start": 38.8468,
      "duration": 0.1168,
      "velocity": 91,
      "chip": "ym2612"
    },
    {
      "channel": 3,
      "note": 69,
      "start": 38.9642,
      "duration": 0.1141,
      "velocity": 91,
      "chip": "ym2612"
    },
    {
      "channel": 4,
      "note": 50,
      "start": 38.965,
      "duration": 0.1141,
      "velocity": 91,
      "chip": "ym2612"
    },
    {
      "channel": 2,
      "note": 37,
      "start": 38.9661,
      "duration": 0.1088,
      "velocity": 120,
      "chip": "ym2612"
    },
    {
      "channel": 3,
      "note": 62,
      "start": 39.0789,
      "duration": 0.1141,
      "velocity": 91,
      "chip": "ym2612"
    },
    {
      "channel": 4,
      "note": 50,
      "start": 39.0797,
      "duration": 0.2288,
      "velocity": 91,
      "chip": "ym2612"
    },
    {
      "channel": 2,
      "note": 37,
      "start": 39.0807,
      "duration": 0.1087,
      "velocity": 120,
      "chip": "ym2612"
    },
    {
      "channel": 3,
      "note": 74,
      "start": 39.1936,
      "duration": 0.1141,
      "velocity": 91,
      "chip": "ym2612"
    },
    {
      "channel": 2,
      "note": 41,
      "start": 39.1951,
      "duration": 0.109,
      "velocity": 127,
      "chip": "ym2612"
    },
    {
      "channel": 3,
      "note": 69,
      "start": 39.3083,
      "duration": 0.1117,
      "velocity": 91,
      "chip": "ym2612"
    },
    {
      "channel": 4,
      "note": 52,
      "start": 39.309,
      "duration": 0.57,
      "velocity": 91,
      "chip": "ym2612"
    },
    {
      "channel": 2,
      "note": 37,
      "start": 39.3101,
      "duration": 0.1296,
      "velocity": 120,
      "chip": "ym2612"
    },
    {
      "channel": 0,
      "note": 71,
      "start": 39.4195,
      "duration": 0.3461,
      "velocity": 75,
      "chip": "ym2612"
    },
    {
      "channel": 3,
      "note": 76,
      "start": 39.4206,
      "duration": 0.1163,
      "velocity": 91,
      "chip": "ym2612"
    },
    {
      "channel": 5,
      "note": 83,
      "start": 39.4217,
      "duration": 0.3461,
      "velocity": 96,
      "chip": "ym2612"
    },
    {
      "channel": 3,
      "note": 71,
      "start": 39.5376,
      "duration": 0.1141,
      "velocity": 91,
      "chip": "ym2612"
    },
    {
      "channel": 2,
      "note": 37,
      "start": 39.5389,
      "duration": 0.1092,
      "velocity": 120,
      "chip": "ym2612"
    },
    {
      "channel": 1,
      "note": 83,
      "start": 39.5727,
      "duration": 0.3434,
      "velocity": 96,
      "chip": "ym2612"
    },
    {
      "channel": 3,
      "note": 64,
      "start": 39.6522,
      "duration": 0.1145,
      "velocity": 91,
      "chip": "ym2612"
    },
    {
      "channel": 2,
      "note": 41,
      "start": 39.6537,
      "duration": 0.1091,
      "velocity": 127,
      "chip": "ym2612"
    },
    {
      "channel": 0,
      "note": 69,
      "start": 39.7662,
      "duration": 0.3434,
      "velocity": 75,
      "chip": "ym2612"
    },
    {
      "channel": 3,
      "note": 76,
      "start": 39.7673,
      "duration": 0.1109,
      "velocity": 91,
      "chip": "ym2612"
    },
    {
      "channel": 5,
      "note": 81,
      "start": 39.7684,
      "duration": 0.3434,
      "velocity": 96,
      "chip": "ym2612"
    },
    {
      "channel": 2,
      "note": 37,
      "start": 39.7691,
      "duration": 0.1293,
      "velocity": 120,
      "chip": "ym2612"
    },
    {
      "channel": 3,
      "note": 71,
      "start": 39.8789,
      "duration": 0.1167,
      "velocity": 91,
      "chip": "ym2612"
    },
    {
      "channel": 4,
      "note": 52,
      "start": 39.8796,
      "duration": 0.1168,
      "velocity": 91,
      "chip": "ym2612"
    },
    {
      "channel": 1,
      "note": 81,
      "start": 39.9167,
      "duration": 0.3434,
      "velocity": 96,
      "chip": "ym2612"
    },
    {
      "channel": 3,
      "note": 64,
      "start": 39.9962,
      "duration": 0.1146,
      "velocity": 91,
      "chip": "ym2612"
    },
    {
      "channel": 4,
      "note": 52,
      "start": 39.997,
      "duration": 0.3443,
      "velocity": 91,
      "chip": "ym2612"
    },
    {
      "channel": 2,
      "note": 37,
      "start": 39.998,
      "duration": 0.1088,
      "velocity": 120,
      "chip": "ym2612"
    },
    {
      "channel": 0,
      "note": 68,
      "start": 40.1102,
      "duration": 0.229,
      "velocity": 75,
      "chip": "ym2612"
    },
    {
      "channel": 3,
      "note": 76,
      "start": 40.1113,
      "duration": 0.1137,
      "velocity": 91,
      "chip": "ym2612"
    },
    {
      "channel": 5,
      "note": 80,
      "start": 40.1124,
      "duration": 0.2296,
      "velocity": 96,
      "chip": "ym2612"
    },
    {
      "channel": 2,
      "note": 41,
      "start": 40.1132,
      "duration": 0.1082,
      "velocity": 127,
      "chip": "ym2612"
    },
    {
      "channel": 3,
      "note": 71,
      "start": 40.2256,
      "duration": 0.1149,
      "velocity": 91,
      "chip": "ym2612"
    },
    {
      "channel": 2,
      "note": 37,
      "start": 40.227,
      "duration": 0.1094,
      "velocity": 120,
      "chip": "ym2612"
    },
    {
      "channel": 1,
      "note": 80,
      "start": 40.2607,
      "duration": 0.2287,
      "velocity": 96,
      "chip": "ym2612"
    },
    {
      "channel": 0,
      "note": 66,
      "start": 40.3398,
      "duration": 0.3431,
      "velocity": 75,
      "chip": "ym2612"
    },
    {
      "channel": 3,
      "note": 66,
      "start": 40.341,
      "duration": 0.1132,
      "velocity": 91,
      "chip": "ym2612"
    },
    {
      "channel": 4,
      "note": 54,
      "start": 40.3419,
      "duration": 0.3429,
      "velocity": 91,
      "chip": "ym2612"
    },
    {
      "channel": 5,
      "note": 78,
      "start": 40.3426,
      "duration": 0.3428,
      "velocity": 96,
      "chip": "ym2612"
    },
    {
      "channel": 2,
      "note": 41,
      "start": 40.3434,
      "duration": 0.1074,
      "velocity": 127,
      "chip": "ym2612"
    },
    {
      "channel": 3,
      "note": 78,
      "start": 40.4549,
      "duration": 0.1141,
      "velocity": 91,
      "chip": "ym2612"
    },
    {
      "channel": 2,
      "note": 37,
      "start": 40.4563,
      "duration": 0.1092,
      "velocity": 120,
      "chip": "ym2612"
    },
    {
      "channel": 1,
      "note": 78,
      "start": 40.49,
      "duration": 0.3434,
      "velocity": 96,
      "chip": "ym2612"
    },
    {
      "channel": 3,
      "note": 66,
      "start": 40.5695,
      "duration": 0.1144,
      "velocity": 91,
      "chip": "ym2612"
    },
    {
      "channel": 2,
      "note": 37,
      "start": 40.571,
      "duration": 0.1092,
      "velocity": 120,
      "chip": "ym2612"
    },
    {
      "channel": 0,
      "note": 73,
      "start": 40.6835,
      "duration": 0.3434,
      "velocity": 75,
      "chip": "ym2612"
    },
    {
      "channel": 3,
      "note": 64,
      "start": 40.6846,
      "duration": 0.1138,
      "velocity": 91,
      "chip": "ym2612"
    },
    {
      "channel": 4,
      "note": 52,
      "start": 40.6853,
      "duration": 0.3434,
      "velocity": 91,
      "chip": "ym2612"
    },
    {
      "channel": 5,
      "note": 85,
      "start": 40.6861,
      "duration": 0.3434,
      "velocity": 96,
      "chip": "ym2612"
    },
    {
      "channel": 2,
      "note": 41,
      "start": 40.6868,
      "duration": 0.108,
      "velocity": 127,
      "chip": "ym2612"
    },
    {
      "channel": 3,
      "note": 76,
      "start": 40.7989,
      "duration": 0.114,
      "velocity": 91,
      "chip": "ym2612"
    },
    {
      "channel": 2,
      "note": 37,
      "start": 40.8003,
      "duration": 0.1092,
      "velocity": 120,
      "chip": "ym2612"
    },
    {
      "channel": 1,
      "note": 85,
      "start": 40.834,
      "duration": 0.3434,
      "velocity": 96,
      "chip": "ym2612"
    },
    {
      "channel": 3,
      "note": 64,
      "start": 40.9136,
      "duration": 0.1144,
      "velocity": 91,
      "chip": "ym2612"
    },
    {
      "channel": 2,
      "note": 37,
      "start": 40.915,
      "duration": 0.1092,
      "velocity": 120,
      "chip": "ym2612"
    },
    {
      "channel": 0,
      "note": 78,
      "start": 41.0276,
      "duration": 0.6873,
      "velocity": 75,
      "chip": "ym2612"
    },
    {
      "channel": 3,
      "note": 62,
      "start": 41.0286,
      "duration": 0.6874,
      "velocity": 91,
      "chip": "ym2612"
    },
    {
      "channel": 4,
      "note": 50,
      "start": 41.0293,
      "duration": 0.3425,
      "velocity": 91,
      "chip": "ym2612"
    },
    {
      "channel": 5,
      "note": 90,
      "start": 41.0301,
      "duration": 0.6874,
      "velocity": 96,
      "chip": "ym2612"
    },
    {
      "channel": 2,
      "note": 41,
      "start": 41.0309,
      "duration": 0.1083,
      "velocity": 127,
      "chip": "ym2612"
    },
    {
      "channel": 2,
      "note": 37,
      "start": 41.1443,
      "duration": 0.1091,
      "velocity": 120,
      "chip": "ym2612"
    },
    {
      "channel": 1,
      "note": 90,
      "start": 41.178,
      "duration": 0.6873,
      "velocity": 96,
      "chip": "ym2612"
    },
    {
      "channel": 2,
      "note": 37,
      "start": 41.2585,
      "duration": 0.1095,
      "velocity": 120,
      "chip": "ym2612"
    },
    {
      "channel": 4,
      "note": 50,
      "start": 41.3725,
      "duration": 0.3443,
      "velocity": 91,
      "chip": "ym2612"
    },
    {
      "channel": 2,
      "note": 41,
      "start": 41.3736,
      "duration": 0.1091,
      "velocity": 127,
      "chip": "ym2612"
    },
    {
      "channel": 2,
      "note": 37,
      "start": 41.4878,
      "duration": 0.1097,
      "velocity": 120,
      "chip": "ym2612"
    },
    {
      "channel": 2,
      "note": 37,
      "start": 41.6026,
      "duration": 0.1095,
      "velocity": 120,
      "chip": "ym2612"
    },
    {
      "channel": 0,
      "note": 78,
      "start": 41.7155,
      "duration": 0.2287,
      "velocity": 75,
      "chip": "ym2612"
    },
    {
      "channel": 3,
      "note": 74,
      "start": 41.7166,
      "duration": 0.1136,
      "velocity": 91,
      "chip": "ym2612"
    },
    {
      "channel": 4,
      "note": 50,
      "start": 41.7174,
      "duration": 0.2287,
      "velocity": 91,
      "chip": "ym2612"
    },
    {
      "channel": 5,
      "note": 90,
      "start": 41.7181,
      "duration": 0.2286,
      "velocity": 96,
      "chip": "ym2612"
    },
    {
      "channel": 2,
      "note": 41,
      "start": 41.7189,
      "duration": 0.1079,
      "velocity": 127,
      "chip": "ym2612"
    },
    {
      "channel": 3,
      "note": 64,
      "start": 41.8308,
      "duration": 0.1145,
      "velocity": 91,
      "chip": "ym2612"
    },
    {
      "channel": 2,
      "note": 41,
      "start": 41.8323,
      "duration": 0.1091,
      "velocity": 127,
      "chip": "ym2612"
    },
    {
      "channel": 1,
      "note": 90,
      "start": 41.8659,
      "duration": 0.2288,
      "velocity": 96,
      "chip": "ym2612"
    },
    {
      "channel": 0,
      "note": 80,
      "start": 41.9448,
      "duration": 0.229,
      "velocity": 75,
      "chip": "ym2612"
    },
    {
      "channel": 3,
      "note": 76,
      "start": 41.9459,
      "duration": 0.2291,
      "velocity": 91,
      "chip": "ym2612"
    },
    {
      "channel": 4,
      "note": 52,
      "start": 41.9466,
      "duration": 0.2291,
      "velocity": 91,
      "chip": "ym2612"
    },
    {
      "channel": 5,
      "note": 92,
      "start": 41.9474,
      "duration": 0.2291,
      "velocity": 96,
      "chip": "ym2612"
    },
    {
      "channel": 2,
      "note": 41,
      "start": 41.9482,
      "duration": 0.1079,
      "velocity": 127,
      "chip": "ym2612"
    },
    {
      "channel": 2,
      "note": 41,
      "start": 42.0613,
      "duration": 0.1096,
      "velocity": 127,
      "chip": "ym2612"
    },
    {
      "channel": 1,
      "note": 92,
      "start": 42.0952,
      "duration": 0.2288,
      "velocity": 96,
      "chip": "ym2612"
    },
    {
      "channel": 0,
      "note": 81,
      "start": 42.1744,
      "duration": 0.3403,
      "velocity": 75,
      "chip": "ym2612"
    },
    {
      "channel": 3,
      "note": 74,
      "start": 42.1756,
      "duration": 0.1106,
      "velocity": 91,
      "chip": "ym2612"
    },
    {
      "channel": 4,
      "note": 50,
      "start": 42.1763,
      "duration": 0.2279,
      "velocity": 91,
      "chip": "ym2612"
    },
    {
      "channel": 5,
      "note": 93,
      "start": 42.1771,
      "duration": 0.3402,
      "velocity": 96,
      "chip": "ym2612"
    },
    {
      "channel": 2,
      "note": 37,
      "start": 42.1779,
      "duration": 0.1284,
      "velocity": 120,
      "chip": "ym2612"
    },
    {
      "channel": 3,
      "note": 69,
      "start": 42.2867,
      "duration": 0.1167,
      "velocity": 91,
      "chip": "ym2612"
    },
    {
      "channel": 1,
      "note": 93,
      "start": 42.3246,
      "duration": 0.3433,
      "velocity": 96,
      "chip": "ym2612"
    },
    {
      "channel": 3,
      "note": 62,
      "start": 42.404,
      "duration": 0.1118,
      "velocity": 91,
      "chip": "ym2612"
    },
    {
      "channel": 4,
      "note": 50,
      "start": 42.4048,
      "duration": 0.1118,
      "velocity": 91,
      "chip": "ym2612"
    },
    {
      "channel": 2,
      "note": 41,
      "start": 42.4059,
      "duration": 0.2234,
      "velocity": 127,
      "chip": "ym2612"
    },
    {
      "channel": 0,
      "note": 80,
      "start": 42.5154,
      "duration": 0.3461,
      "velocity": 75,
      "chip": "ym2612"
    },
    {
      "channel": 3,
      "note": 74,
      "start": 42.5164,
      "duration": 0.1164,
      "velocity": 91,
      "chip": "ym2612"
    },
    {
      "channel": 4,
      "note": 50,
      "start": 42.5171,
      "duration": 0.2311,
      "velocity": 91,
      "chip": "ym2612"
    },
    {
      "channel": 5,
      "note": 92,
      "start": 42.5179,
      "duration": 0.3458,
      "velocity": 96,
      "chip": "ym2612"
    },
    {
      "channel": 3,
      "note": 69,
      "start": 42.6335,
      "duration": 0.114,
      "velocity": 91,
      "chip": "ym2612"
    },
    {
      "channel": 2,
      "note": 37,
      "start": 42.6349,
      "duration": 0.1091,
      "velocity": 120,
      "chip": "ym2612"
    },
    {
      "channel": 1,
      "note": 92,
      "start": 42.6686,
      "duration": 0.3434,
      "velocity": 96,
      "chip": "ym2612"
    },
    {
      "channel": 3,
      "note": 62,
      "start": 42.748,
      "duration": 0.1146,
      "velocity": 91,
      "chip": "ym2612"
    },
    {
      "channel": 4,
      "note": 50,
      "start": 42.7488,
      "duration": 0.229,
      "velocity": 91,
      "chip": "ym2612"
    },
    {
      "channel": 2,
      "note": 37,
      "start": 42.7498,
      "duration": 0.1088,
      "velocity": 120,
      "chip": "ym2612"
    },
    {
      "channel": 0,
      "note": 78,
      "start": 42.8621,
      "duration": 0.2261,
      "velocity": 75,
      "chip": "ym2612"
    },
    {
      "channel": 3,
      "note": 74,
      "start": 42.8632,
      "duration": 0.1138,
      "velocity": 91,
      "chip": "ym2612"
    },
    {
      "channel": 5,
      "note": 90,
      "start": 42.8643,
      "duration": 0.2265,
      "velocity": 96,
      "chip": "ym2612"
    },
    {
      "channel": 2,
      "note": 41,
      "start": 42.8651,
      "duration": 0.1083,
      "velocity": 127,
      "chip": "ym2612"
    },
    {
      "channel": 3,
      "note": 69,
      "start": 42.9776,
      "duration": 0.1117,
      "velocity": 91,
      "chip": "ym2612"
    },
    {
      "channel": 4,
      "note": 50,
      "start": 42.9783,
      "duration": 0.1117,
      "velocity": 91,
      "chip": "ym2612"
    },
    {
      "channel": 2,
      "note": 37,
      "start": 42.9794,
      "duration": 0.1296,
      "velocity": 120,
      "chip": "ym2612"
    },
    {
      "channel": 1,
      "note": 90,
      "start": 43.0126,
      "duration": 0.2287,
      "velocity": 96,
      "chip": "ym2612"
    },
    {
      "channel": 0,
      "note": 80,
      "start": 43.0888,
      "duration": 0.346,
      "velocity": 75,
      "chip": "ym2612"
    },
    {
      "channel": 3,
      "note": 76,
      "start": 43.0899,
      "duration": 0.1163,
      "velocity": 91,
      "chip": "ym2612"
    },
    {
      "channel": 4,
      "note": 52,
      "start": 43.0907,
      "duration": 0.2309,
      "velocity": 91,
      "chip": "ym2612"
    },
    {
      "channel": 5,
      "note": 92,
      "start": 43.0914,
      "duration": 0.3459,
      "velocity": 96,
      "chip": "ym2612"
    },
    {
      "channel": 3,
      "note": 71,
      "start": 43.2068,
      "duration": 0.114,
      "velocity": 91,
      "chip": "ym2612"
    },
    {
      "channel": 2,
      "note": 37,
      "start": 43.2082,
      "duration": 0.1091,
      "velocity": 120,
      "chip": "ym2612"
    },
    {
      "channel": 1,
      "note": 92,
      "start": 43.2419,
      "duration": 0.3434,
      "velocity": 96,
      "chip": "ym2612"
    },
    {
      "channel": 3,
      "note": 64,
      "start": 43.3214,
      "duration": 0.1145,
      "velocity": 91,
      "chip": "ym2612"
    },
    {
      "channel": 4,
      "note": 52,
      "start": 43.3222,
      "duration": 0.1145,
      "velocity": 91,
      "chip": "ym2612"
    },
    {
      "channel": 2,
      "note": 41,
      "start": 43.3233,
      "duration": 0.1087,
      "velocity": 127,
      "chip": "ym2612"
    },
    {
      "channel": 0,
      "note": 78,
      "start": 43.4354,
      "duration": 0.3435,
      "velocity": 75,
      "chip": "ym2612"
    },
    {
      "channel": 3,
      "note": 76,
      "start": 43.4365,
      "duration": 0.1111,
      "velocity": 91,
      "chip": "ym2612"
    },
    {
      "channel": 4,
      "note": 52,
      "start": 43.4372,
      "duration": 0.2284,
      "velocity": 91,
      "chip": "ym2612"
    },
    {
      "channel": 5,
      "note": 90,
      "start": 43.438,
      "duration": 0.3431,
      "velocity": 96,
      "chip": "ym2612"
    },
    {
      "channel": 2,
      "note": 37,
      "start": 43.4387,
      "duration": 0.1289,
      "velocity": 120,
      "chip": "ym2612"
    },
    {
      "channel": 3,
      "note": 71,
      "start": 43.5481,
      "duration": 0.1167,
      "velocity": 91,
      "chip": "ym2612"
    },
    {
      "channel": 1,
      "note": 90,
      "start": 43.586,
      "duration": 0.3434,
      "velocity": 96,
      "chip": "ym2612"
    },
    {
      "channel": 3,
      "note": 64,
      "start": 43.6655,
      "duration": 0.1145,
      "velocity": 91,
      "chip": "ym2612"
    },
    {
      "channel": 4,
      "note": 52,
      "start": 43.6662,
      "duration": 0.2288,
      "velocity": 91,
      "chip": "ym2612"
    },
    {
      "channel": 2,
      "note": 37,
      "start": 43.6673,
      "duration": 0.1088,
      "velocity": 120,
      "chip": "ym2612"
    },
    {
      "channel": 0,
      "note": 76,
      "start": 43.7795,
      "duration": 0.2291,
      "velocity": 75,
      "chip": "ym2612"
    },
    {
      "channel": 3,
      "note": 76,
      "start": 43.7805,
      "duration": 0.1136,
      "velocity": 91,
      "chip": "ym2612"
    },
    {
      "channel": 5,
      "note": 88,
      "start": 43.7817,
      "duration": 0.2296,
      "velocity": 96,
      "chip": "ym2612"
    },
    {
      "channel": 2,
      "note": 41,
      "start": 43.7824,
      "duration": 0.1083,
      "velocity": 127,
      "chip": "ym2612"
    },
    {
      "channel": 3,
      "note": 71,
      "start": 43.8948,
      "duration": 0.1149,
      "velocity": 91,
      "chip": "ym2612"
    },
    {
      "channel": 4,
      "note": 52,
      "start": 43.8955,
      "duration": 0.115,
      "velocity": 91,
      "chip": "ym2612"
    },
    {
      "channel": 2,
      "note": 37,
      "start": 43.8966,
      "duration": 0.109,
      "velocity": 120,
      "chip": "ym2612"
    },
    {
      "channel": 1,
      "note": 88,
      "start": 43.9299,
      "duration": 0.2288,
      "velocity": 96,
      "chip": "ym2612"
    },
    {
      "channel": 0,
      "note": 78,
      "start": 44.0091,
      "duration": 1.8342,
      "velocity": 75,
      "chip": "ym2612"
    },
    {
      "channel": 3,
      "note": 78,
      "start": 44.0103,
      "duration": 0.1108,
      "velocity": 91,
      "chip": "ym2612"
    },
    {
      "channel": 4,
      "note": 54,
      "start": 44.011,
      "duration": 0.1108,
      "velocity": 91,
      "chip": "ym2612"
    },
    {
      "channel": 5,
      "note": 90,
      "start": 44.0119,
      "duration": 1.8384,
      "velocity": 96,
      "chip": "ym2612"
    },
    {
      "channel": 2,
      "note": 37,
      "start": 44.0126,
      "duration": 0.1283,
      "velocity": 120,
      "chip": "ym2612"
    },
    {
      "channel": 3,
      "note": 73,
      "start": 44.1217,
      "duration": 0.1165,
      "velocity": 91,
      "chip": "ym2612"
    },
    {
      "channel": 4,
      "note": 54,
      "start": 44.1224,
      "duration": 0.3458,
      "velocity": 91,
      "chip": "ym2612"
    },
    {
      "channel": 1,
      "note": 90,
      "start": 44.1592,
      "duration": 1.6883,
      "velocity": 97,
      "chip": "ym2612"
    },
    {
      "channel": 3,
      "note": 66,
      "start": 44.2388,
      "duration": 0.1113,
      "velocity": 91,
      "chip": "ym2612"
    },
    {
      "channel": 2,
      "note": 41,
      "start": 44.2403,
      "duration": 0.2237,
      "velocity": 127,
      "chip": "ym2612"
    },
    {
      "channel": 3,
      "note": 78,
      "start": 44.3507,
      "duration": 0.1168,
      "velocity": 91,
      "chip": "ym2612"
    },
    {
      "channel": 3,
      "note": 73,
      "start": 44.4681,
      "duration": 0.114,
      "velocity": 91,
      "chip": "ym2612"
    },
    {
      "channel": 4,
      "note": 54,
      "start": 44.4688,
      "duration": 0.1141,
      "velocity": 91,
      "chip": "ym2612"
    },
    {
      "channel": 2,
      "note": 37,
      "start": 44.4699,
      "duration": 0.1088,
      "velocity": 120,
      "chip": "ym2612"
    },
    {
      "channel": 3,
      "note": 66,
      "start": 44.5827,
      "duration": 0.1141,
      "velocity": 91,
      "chip": "ym2612"
    },
    {
      "channel": 4,
      "note": 54,
      "start": 44.5834,
      "duration": 0.2289,
      "velocity": 91,
      "chip": "ym2612"
    },
    {
      "channel": 2,
      "note": 37,
      "start": 44.5845,
      "duration": 0.1088,
      "velocity": 120,
      "chip": "ym2612"
    },
    {
      "channel": 3,
      "note": 78,
      "start": 44.6973,
      "duration": 0.1142,
      "velocity": 91,
      "chip": "ym2612"
    },
    {
      "channel": 2,
      "note": 41,
      "start": 44.6989,
      "duration": 0.1092,
      "velocity": 127,
      "chip": "ym2612"
    },
    {
      "channel": 3,
      "note": 73,
      "start": 44.8121,
      "duration": 0.1115,
      "velocity": 91,
      "chip": "ym2612"
    },
    {
      "channel": 4,
      "note": 54,
      "start": 44.8129,
      "duration": 0.2287,
      "velocity": 91,
      "chip": "ym2612"
    },
    {
      "channel": 2,
      "note": 37,
      "start": 44.8139,
      "duration": 0.13,
      "velocity": 120,
      "chip": "ym2612"
    },
    {
      "channel": 3,
      "note": 66,
      "start": 44.9241,
      "duration": 0.1167,
      "velocity": 91,
      "chip": "ym2612"
    },
    {
      "channel": 3,
      "note": 76,
      "start": 45.0414,
      "duration": 0.1141,
      "velocity": 91,
      "chip": "ym2612"
    },
    {
      "channel": 4,
      "note": 66,
      "start": 45.0421,
      "duration": 0.1141,
      "velocity": 91,
      "chip": "ym2612"
    },
    {
      "channel": 2,
      "note": 41,
      "start": 45.0433,
      "duration": 0.1087,
      "velocity": 127,
      "chip": "ym2612"
    },
    {
      "channel": 3,
      "note": 78,
      "start": 45.1561,
      "duration": 0.1141,
      "velocity": 91,
      "chip": "ym2612"
    },
    {
      "channel": 4,
      "note": 66,
      "start": 45.1569,
      "duration": 0.1141,
      "velocity": 91,
      "chip": "ym2612"
    },
    {
      "channel": 2,
      "note": 41,
      "start": 45.158,
      "duration": 0.1087,
      "velocity": 127,
      "chip": "ym2612"
    },
    {
      "channel": 3,
      "note": 73,
      "start": 45.2707,
      "duration": 0.114,
      "velocity": 91,
      "chip": "ym2612"
    },
    {
      "channel": 4,
      "note": 66,
      "start": 45.2715,
      "duration": 0.114,
      "velocity": 91,
      "chip": "ym2612"
    },
    {
      "channel": 2,
      "note": 41,
      "start": 45.2727,
      "duration": 0.1087,
      "velocity": 127,
      "chip": "ym2612"
    },
    {
      "channel": 3,
      "note": 76,
      "start": 45.3853,
      "duration": 0.1141,
      "velocity": 91,
      "chip": "ym2612"
    },
    {
      "channel": 4,
      "note": 66,
      "start": 45.3861,
      "duration": 0.1141,
      "velocity": 91,
      "chip": "ym2612"
    },
    {
      "channel": 2,
      "note": 41,
      "start": 45.3872,
      "duration": 0.1087,
      "velocity": 127,
      "chip": "ym2612"
    },
    {
      "channel": 3,
      "note": 71,
      "start": 45.5,
      "duration": 0.1141,
      "velocity": 91,
      "chip": "ym2612"
    },
    {
      "channel": 4,
      "note": 66,
      "start": 45.5008,
      "duration": 0.1141,
      "velocity": 91,
      "chip": "ym2612"
    },
    {
      "channel": 2,
      "note": 41,
      "start": 45.5019,
      "duration": 0.1087,
      "velocity": 127,
      "chip": "ym2612"
    },
    {
      "channel": 3,
      "note": 73,
      "start": 45.6146,
      "duration": 0.1141,
      "velocity": 91,
      "chip": "ym2612"
    },
    {
      "channel": 4,
      "note": 66,
      "start": 45.6154,
      "duration": 0.1141,
      "velocity": 91,
      "chip": "ym2612"
    },
    {
      "channel": 2,
      "note": 41,
      "start": 45.6166,
      "duration": 0.1088,
      "velocity": 127,
      "chip": "ym2612"
    },
    {
      "channel": 3,
      "note": 69,
      "start": 45.7294,
      "duration": 0.119,
      "velocity": 91,
      "chip": "ym2612"
    },
    {
      "channel": 4,
      "note": 66,
      "start": 45.7301,
      "duration": 0.1193,
      "velocity": 91,
      "chip": "ym2612"
    },
    {
      "channel": 2,
      "note": 41,
      "start": 45.7312,
      "duration": 0.1091,
      "velocity": 127,
      "chip": "ym2612"
    },
    {
      "channel": 0,
      "note": 69,
      "start": 45.844,
      "duration": 0.9136,
      "velocity": 75,
      "chip": "ym2612"
    },
    {
      "channel": 1,
      "note": 78,
      "start": 45.8481,
      "duration": 0.9102,
      "velocity": 97,
      "chip": "ym2612"
    },
    {
      "channel": 3,
      "note": 74,
      "start": 45.849,
      "duration": 0.1062,
      "velocity": 91,
      "chip": "ym2612"
    },
    {
      "channel": 4,
      "note": 50,
      "start": 45.85,
      "duration": 0.4529,
      "velocity": 91,
      "chip": "ym2612"
    },
    {
      "channel": 5,
      "note": 81,
      "start": 45.851,
      "duration": 0.9092,
      "velocity": 96,
      "chip": "ym2612"
    },
    {
      "channel": 2,
      "note": 37,
      "start": 45.8517,
      "duration": 0.124,
      "velocity": 120,
      "chip": "ym2612"
    },
    {
      "channel": 3,
      "note": 69,
      "start": 45.9559,
      "duration": 0.1169,
      "velocity": 91,
      "chip": "ym2612"
    },
    {
      "channel": 3,
      "note": 62,
      "start": 46.0734,
      "duration": 0.1113,
      "velocity": 91,
      "chip": "ym2612"
    },
    {
      "channel": 2,
      "note": 41,
      "start": 46.0749,
      "duration": 0.2237,
      "velocity": 127,
      "chip": "ym2612"
    },
    {
      "channel": 3,
      "note": 74,
      "start": 46.1853,
      "duration": 0.1168,
      "velocity": 91,
      "chip": "ym2612"
    },
    {
      "channel": 3,
      "note": 69,
      "start": 46.3027,
      "duration": 0.1141,
      "velocity": 91,
      "chip": "ym2612"
    },
    {
      "channel": 4,
      "note": 50,
      "start": 46.3034,
      "duration": 0.1141,
      "velocity": 91,
      "chip": "ym2612"
    },
    {
      "channel": 2,
      "note": 37,
      "start": 46.3045,
      "duration": 0.1087,
      "velocity": 120,
      "chip": "ym2612"
    },
    {
      "channel": 3,
      "note": 62,
      "start": 46.4173,
      "duration": 0.1141,
      "velocity": 91,
      "chip": "ym2612"
    },
    {
      "channel": 4,
      "note": 50,
      "start": 46.4181,
      "duration": 0.2288,
      "velocity": 91,
      "chip": "ym2612"
    },
    {
      "channel": 2,
      "note": 37,
      "start": 46.4192,
      "duration": 0.1088,
      "velocity": 120,
      "chip": "ym2612"
    },
    {
      "channel": 3,
      "note": 74,
      "start": 46.532,
      "duration": 0.1142,
      "velocity": 91,
      "chip": "ym2612"
    },
    {
      "channel": 2,
      "note": 41,
      "start": 46.5335,
      "duration": 0.1092,
      "velocity": 127,
      "chip": "ym2612"
    },
    {
      "channel": 3,
      "note": 69,
      "start": 46.6467,
      "duration": 0.1123,
      "velocity": 91,
      "chip": "ym2612"
    },
    {
      "channel": 4,
      "note": 52,
      "start": 46.6475,
      "duration": 0.57,
      "velocity": 91,
      "chip": "ym2612"
    },
    {
      "channel": 2,
      "note": 37,
      "start": 46.6485,
      "duration": 0.1296,
      "velocity": 120,
      "chip": "ym2612"
    },
    {
      "channel": 0,
      "note": 71,
      "start": 46.7582,
      "duration": 0.3463,
      "velocity": 75,
      "chip": "ym2612"
    },
    {
      "channel": 1,
      "note": 80,
      "start": 46.7589,
      "duration": 0.3463,
      "velocity": 97,
      "chip": "ym2612"
    },
    {
      "channel": 3,
      "note": 76,
      "start": 46.7596,
      "duration": 0.1159,
      "velocity": 91,
      "chip": "ym2612"
    },
    {
      "channel": 5,
      "note": 83,
      "start": 46.7608,
      "duration": 0.3463,
      "velocity": 96,
      "chip": "ym2612"
    },
    {
      "channel": 3,
      "note": 71,
      "start": 46.876,
      "duration": 0.1141,
      "velocity": 91,
      "chip": "ym2612"
    },
    {
      "channel": 2,
      "note": 37,
      "start": 46.8774,
      "duration": 0.1092,
      "velocity": 120,
      "chip": "ym2612"
    },
    {
      "channel": 3,
      "note": 64,
      "start": 46.9907,
      "duration": 0.1152,
      "velocity": 91,
      "chip": "ym2612"
    },
    {
      "channel": 2,
      "note": 41,
      "start": 46.9922,
      "duration": 0.1094,
      "velocity": 127,
      "chip": "ym2612"
    },
    {
      "channel": 0,
      "note": 69,
      "start": 47.105,
      "duration": 0.3429,
      "velocity": 75,
      "chip": "ym2612"
    },
    {
      "channel": 1,
      "note": 78,
      "start": 47.1058,
      "duration": 0.3429,
      "velocity": 97,
      "chip": "ym2612"
    },
    {
      "channel": 3,
      "note": 76,
      "start": 47.1065,
      "duration": 0.1102,
      "velocity": 91,
      "chip": "ym2612"
    },
    {
      "channel": 5,
      "note": 81,
      "start": 47.1076,
      "duration": 0.3429,
      "velocity": 96,
      "chip": "ym2612"
    },
    {
      "channel": 2,
      "note": 37,
      "start": 47.1084,
      "duration": 0.1285,
      "velocity": 120,
      "chip": "ym2612"
    },
    {
      "channel": 3,
      "note": 71,
      "start": 47.2174,
      "duration": 0.1167,
      "velocity": 91,
      "chip": "ym2612"
    },
    {
      "channel": 4,
      "note": 52,
      "start": 47.2181,
      "duration": 0.1167,
      "velocity": 91,
      "chip": "ym2612"
    },
    {
      "channel": 3,
      "note": 64,
      "start": 47.3346,
      "duration": 0.1149,
      "velocity": 91,
      "chip": "ym2612"
    },
    {
      "channel": 4,
      "note": 52,
      "start": 47.3354,
      "duration": 0.3449,
      "velocity": 91,
      "chip": "ym2612"
    },
    {
      "channel": 2,
      "note": 37,
      "start": 47.3364,
      "duration": 0.1088,
      "velocity": 120,
      "chip": "ym2612"
    },
    {
      "channel": 0,
      "note": 68,
      "start": 47.4486,
      "duration": 0.2291,
      "velocity": 75,
      "chip": "ym2612"
    },
    {
      "channel": 1,
      "note": 76,
      "start": 47.4494,
      "duration": 0.2291,
      "velocity": 97,
      "chip": "ym2612"
    },
    {
      "channel": 3,
      "note": 76,
      "start": 47.4501,
      "duration": 0.1133,
      "velocity": 91,
      "chip": "ym2612"
    },
    {
      "channel": 5,
      "note": 80,
      "start": 47.4512,
      "duration": 0.2298,
      "velocity": 96,
      "chip": "ym2612"
    },
    {
      "channel": 2,
      "note": 41,
      "start": 47.452,
      "duration": 0.1079,
      "velocity": 127,
      "chip": "ym2612"
    },
    {
      "channel": 3,
      "note": 71,
      "start": 47.564,
      "duration": 0.1154,
      "velocity": 91,
      "chip": "ym2612"
    },
    {
      "channel": 2,
      "note": 37,
      "start": 47.5654,
      "duration": 0.1095,
      "velocity": 120,
      "chip": "ym2612"
    },
    {
      "channel": 0,
      "note": 69,
      "start": 47.6783,
      "duration": 0.3403,
      "velocity": 75,
      "chip": "ym2612"
    },
    {
      "channel": 1,
      "note": 78,
      "start": 47.6791,
      "duration": 0.3402,
      "velocity": 97,
      "chip": "ym2612"
    },
    {
      "channel": 3,
      "note": 78,
      "start": 47.68,
      "duration": 0.11,
      "velocity": 91,
      "chip": "ym2612"
    },
    {
      "channel": 4,
      "note": 54,
      "start": 47.6809,
      "duration": 0.4567,
      "velocity": 91,
      "chip": "ym2612"
    },
    {
      "channel": 5,
      "note": 81,
      "start": 47.6816,
      "duration": 0.3395,
      "velocity": 96,
      "chip": "ym2612"
    },
    {
      "channel": 2,
      "note": 37,
      "start": 47.6823,
      "duration": 0.1278,
      "velocity": 120,
      "chip": "ym2612"
    },
    {
      "channel": 3,
      "note": 73,
      "start": 47.7907,
      "duration": 0.1169,
      "velocity": 91,
      "chip": "ym2612"
    },
    {
      "channel": 3,
      "note": 66,
      "start": 47.9081,
      "duration": 0.112,
      "velocity": 91,
      "chip": "ym2612"
    },
    {
      "channel": 2,
      "note": 41,
      "start": 47.9095,
      "duration": 0.2237,
      "velocity": 127,
      "chip": "ym2612"
    },
    {
      "channel": 0,
      "note": 68,
      "start": 48.0192,
      "duration": 0.3462,
      "velocity": 75,
      "chip": "ym2612"
    },
    {
      "channel": 1,
      "note": 73,
      "start": 48.0199,
      "duration": 0.3462,
      "velocity": 97,
      "chip": "ym2612"
    },
    {
      "channel": 3,
      "note": 78,
      "start": 48.0207,
      "duration": 0.1161,
      "velocity": 91,
      "chip": "ym2612"
    },
    {
      "channel": 5,
      "note": 80,
      "start": 48.0218,
      "duration": 0.3462,
      "velocity": 96,
      "chip": "ym2612"
    },
    {
      "channel": 3,
      "note": 73,
      "start": 48.1373,
      "duration": 0.1141,
      "velocity": 91,
      "chip": "ym2612"
    },
    {
      "channel": 4,
      "note": 54,
      "start": 48.1381,
      "duration": 0.1141,
      "velocity": 91,
      "chip": "ym2612"
    },
    {
      "channel": 2,
      "note": 37,
      "start": 48.1392,
      "duration": 0.1087,
      "velocity": 120,
      "chip": "ym2612"
    },
    {
      "channel": 3,
      "note": 66,
      "start": 48.252,
      "duration": 0.1149,
      "velocity": 91,
      "chip": "ym2612"
    },
    {
      "channel": 4,
      "note": 54,
      "start": 48.2527,
      "duration": 0.2288,
      "velocity": 91,
      "chip": "ym2612"
    },
    {
      "channel": 2,
      "note": 37,
      "start": 48.2538,
      "duration": 0.1087,
      "velocity": 120,
      "chip": "ym2612"
    },
    {
      "channel": 0,
      "note": 66,
      "start": 48.366,
      "duration": 1.1463,
      "velocity": 75,
      "chip": "ym2612"
    },
    {
      "channel": 1,
      "note": 69,
      "start": 48.3667,
      "duration": 1.1463,
      "velocity": 97,
      "chip": "ym2612"
    },
    {
      "channel": 3,
      "note": 78,
      "start": 48.3674,
      "duration": 0.1133,
      "velocity": 91,
      "chip": "ym2612"
    },
    {
      "channel": 5,
      "note": 78,
      "start": 48.3686,
      "duration": 1.1471,
      "velocity": 96,
      "chip": "ym2612"
    },
    {
      "channel": 2,
      "note": 41,
      "start": 48.3693,
      "duration": 0.1079,
      "velocity": 127,
      "chip": "ym2612"
    },
    {
      "channel": 3,
      "note": 73,
      "start": 48.4813,
      "duration": 0.1114,
      "velocity": 91,
      "chip": "ym2612"
    },
    {
      "channel": 4,
      "note": 54,
      "start": 48.4821,
      "duration": 0.57,
      "velocity": 91,
      "chip": "ym2612"
    },
    {
      "channel": 2,
      "note": 37,
      "start": 48.4832,
      "duration": 0.1297,
      "velocity": 120,
      "chip": "ym2612"
    },
    {
      "channel": 3,
      "note": 78,
      "start": 48.5933,
      "duration": 0.1169,
      "velocity": 91,
      "chip": "ym2612"
    },
    {
      "channel": 3,
      "note": 73,
      "start": 48.7107,
      "duration": 0.1141,
      "velocity": 91,
      "chip": "ym2612"
    },
    {
      "channel": 2,
      "note": 37,
      "start": 48.7121,
      "duration": 0.1091,
      "velocity": 120,
      "chip": "ym2612"
    },
    {
      "channel": 3,
      "note": 66,
      "start": 48.8253,
      "duration": 0.114,
      "velocity": 91,
      "chip": "ym2612"
    },
    {
      "channel": 2,
      "note": 41,
      "start": 48.8268,
      "duration": 0.109,
      "velocity": 127,
      "chip": "ym2612"
    },
    {
      "channel": 3,
      "note": 78,
      "start": 48.9399,
      "duration": 0.1114,
      "velocity": 91,
      "chip": "ym2612"
    },
    {
      "channel": 2,
      "note": 37,
      "start": 48.9414,
      "duration": 0.1301,
      "velocity": 120,
      "chip": "ym2612"
    },
    {
      "channel": 3,
      "note": 73,
      "start": 49.052,
      "duration": 0.1167,
      "velocity": 91,
      "chip": "ym2612"
    },
    {
      "channel": 4,
      "note": 54,
      "start": 49.0527,
      "duration": 0.1168,
      "velocity": 91,
      "chip": "ym2612"
    },
    {
      "channel": 3,
      "note": 66,
      "start": 49.1693,
      "duration": 0.1141,
      "velocity": 91,
      "chip": "ym2612"
    },
    {
      "channel": 4,
      "note": 54,
      "start": 49.17,
      "duration": 0.1141,
      "velocity": 91,
      "chip": "ym2612"
    },
    {
      "channel": 2,
      "note": 37,
      "start": 49.1711,
      "duration": 0.1088,
      "velocity": 120,
      "chip": "ym2612"
    },
    {
      "channel": 3,
      "note": 76,
      "start": 49.2839,
      "duration": 0.1141,
      "velocity": 91,
      "chip": "ym2612"
    },
    {
      "channel": 4,
      "note": 52,
      "start": 49.2847,
      "duration": 0.1141,
      "velocity": 91,
      "chip": "ym2612"
    },
    {
      "channel": 2,
      "note": 41,
      "start": 49.2858,
      "duration": 0.1087,
      "velocity": 127,
      "chip": "ym2612"
    },
    {
      "channel": 3,
      "note": 64,
      "start": 49.3986,
      "duration": 0.1154,
      "velocity": 91,
      "chip": "ym2612"
    },
    {
      "channel": 4,
      "note": 52,
      "start": 49.3993,
      "duration": 0.1156,
      "velocity": 91,
      "chip": "ym2612"
    },
    {
      "channel": 2,
      "note": 37,
      "start": 49.4004,
      "duration": 0.1091,
      "velocity": 120,
      "chip": "ym2612"
    },
    {
      "channel": 0,
      "note": 69,
      "start": 49.5129,
      "duration": 0.9137,
      "velocity": 75,
      "chip": "ym2612"
    },
    {
      "channel": 1,
      "note": 78,
      "start": 49.5137,
      "duration": 0.9137,
      "velocity": 97,
      "chip": "ym2612"
    },
    {
      "channel": 3,
      "note": 74,
      "start": 49.5146,
      "duration": 0.1099,
      "velocity": 91,
      "chip": "ym2612"
    },
    {
      "channel": 4,
      "note": 50,
      "start": 49.5155,
      "duration": 0.4566,
      "velocity": 91,
      "chip": "ym2612"
    },
    {
      "channel": 5,
      "note": 81,
      "start": 49.5163,
      "duration": 0.9129,
      "velocity": 96,
      "chip": "ym2612"
    },
    {
      "channel": 2,
      "note": 37,
      "start": 49.5171,
      "duration": 0.1278,
      "velocity": 120,
      "chip": "ym2612"
    },
    {
      "channel": 3,
      "note": 69,
      "start": 49.6252,
      "duration": 0.1169,
      "velocity": 91,
      "chip": "ym2612"
    },
    {
      "channel": 3,
      "note": 62,
      "start": 49.7427,
      "duration": 0.1112,
      "velocity": 91,
      "chip": "ym2612"
    },
    {
      "channel": 2,
      "note": 41,
      "start": 49.7441,
      "duration": 0.2237,
      "velocity": 127,
      "chip": "ym2612"
    },
    {
      "channel": 3,
      "note": 74,
      "start": 49.8545,
      "duration": 0.1169,
      "velocity": 91,
      "chip": "ym2612"
    },
    {
      "channel": 3,
      "note": 69,
      "start": 49.972,
      "duration": 0.1144,
      "velocity": 91,
      "chip": "ym2612"
    },
    {
      "channel": 4,
      "note": 50,
      "start": 49.9727,
      "duration": 0.1144,
      "velocity": 91,
      "chip": "ym2612"
    },
    {
      "channel": 2,
      "note": 37,
      "start": 49.9738,
      "duration": 0.1092,
      "velocity": 120,
      "chip": "ym2612"
    },
    {
      "channel": 3,
      "note": 62,
      "start": 50.087,
      "duration": 0.1137,
      "velocity": 91,
      "chip": "ym2612"
    },
    {
      "channel": 4,
      "note": 50,
      "start": 50.0877,
      "duration": 0.2283,
      "velocity": 91,
      "chip": "ym2612"
    },
    {
      "channel": 2,
      "note": 37,
      "start": 50.0888,
      "duration": 0.1084,
      "velocity": 120,
      "chip": "ym2612"
    },
    {
      "channel": 3,
      "note": 74,
      "start": 50.2013,
      "duration": 0.114,
      "velocity": 91,
      "chip": "ym2612"
    },
    {
      "channel": 2,
      "note": 41,
      "start": 50.2028,
      "duration": 0.109,
      "velocity": 127,
      "chip": "ym2612"
    },
    {
      "channel": 3,
      "note": 69,
      "start": 50.3159,
      "duration": 0.1123,
      "velocity": 91,
      "chip": "ym2612"
    },
    {
      "channel": 4,
      "note": 52,
      "start": 50.3166,
      "duration": 0.5702,
      "velocity": 91,
      "chip": "ym2612"
    },
    {
      "channel": 2,
      "note": 37,
      "start": 50.3177,
      "duration": 0.1298,
      "velocity": 120,
      "chip": "ym2612"
    },
    {
      "channel": 0,
      "note": 71,
      "start": 50.4272,
      "duration": 0.3461,
      "velocity": 75,
      "chip": "ym2612"
    },
    {
      "channel": 1,
      "note": 80,
      "start": 50.428,
      "duration": 0.3461,
      "velocity": 97,
      "chip": "ym2612"
    },
    {
      "channel": 3,
      "note": 76,
      "start": 50.4287,
      "duration": 0.1159,
      "velocity": 91,
      "chip": "ym2612"
    },
    {
      "channel": 5,
      "note": 83,
      "start": 50.4298,
      "duration": 0.3461,
      "velocity": 96,
      "chip": "ym2612"
    },
    {
      "channel": 3,
      "note": 71,
      "start": 50.5452,
      "duration": 0.1141,
      "velocity": 91,
      "chip": "ym2612"
    },
    {
      "channel": 2,
      "note": 37,
      "start": 50.5466,
      "duration": 0.1092,
      "velocity": 120,
      "chip": "ym2612"
    },
    {
      "channel": 3,
      "note": 64,
      "start": 50.6599,
      "duration": 0.1149,
      "velocity": 91,
      "chip": "ym2612"
    },
    {
      "channel": 2,
      "note": 41,
      "start": 50.6615,
      "duration": 0.109,
      "velocity": 127,
      "chip": "ym2612"
    },
    {
      "channel": 0,
      "note": 69,
      "start": 50.774,
      "duration": 0.3433,
      "velocity": 75,
      "chip": "ym2612"
    },
    {
      "channel": 1,
      "note": 78,
      "start": 50.7747,
      "duration": 0.3433,
      "velocity": 97,
      "chip": "ym2612"
    },
    {
      "channel": 3,
      "note": 76,
      "start": 50.7755,
      "duration": 0.1105,
      "velocity": 91,
      "chip": "ym2612"
    },
    {
      "channel": 5,
      "note": 81,
      "start": 50.7765,
      "duration": 0.3433,
      "velocity": 96,
      "chip": "ym2612"
    },
    {
      "channel": 2,
      "note": 37,
      "start": 50.7773,
      "duration": 0.129,
      "velocity": 120,
      "chip": "ym2612"
    },
    {
      "channel": 3,
      "note": 71,
      "start": 50.8866,
      "duration": 0.1167,
      "velocity": 91,
      "chip": "ym2612"
    },
    {
      "channel": 4,
      "note": 52,
      "start": 50.8873,
      "duration": 0.1167,
      "velocity": 91,
      "chip": "ym2612"
    },
    {
      "channel": 3,
      "note": 64,
      "start": 51.0039,
      "duration": 0.1149,
      "velocity": 91,
      "chip": "ym2612"
    },
    {
      "channel": 4,
      "note": 52,
      "start": 51.0046,
      "duration": 0.3449,
      "velocity": 91,
      "chip": "ym2612"
    },
    {
      "channel": 2,
      "note": 37,
      "start": 51.0057,
      "duration": 0.1088,
      "velocity": 120,
      "chip": "ym2612"
    },
    {
      "channel": 0,
      "note": 76,
      "start": 51.1179,
      "duration": 0.2291,
      "velocity": 75,
      "chip": "ym2612"
    },
    {
      "channel": 1,
      "note": 88,
      "start": 51.1187,
      "duration": 0.2291,
      "velocity": 97,
      "chip": "ym2612"
    },
    {
      "channel": 3,
      "note": 76,
      "start": 51.1194,
      "duration": 0.1132,
      "velocity": 91,
      "chip": "ym2612"
    },
    {
      "channel": 5,
      "note": 88,
      "start": 51.1205,
      "duration": 0.2298,
      "velocity": 96,
      "chip": "ym2612"
    },
    {
      "channel": 2,
      "note": 41,
      "start": 51.1213,
      "duration": 0.1078,
      "velocity": 127,
      "chip": "ym2612"
    },
    {
      "channel": 3,
      "note": 71,
      "start": 51.2332,
      "duration": 0.1155,
      "velocity": 91,
      "chip": "ym2612"
    },
    {
      "channel": 2,
      "note": 37,
      "start": 51.2346,
      "duration": 0.1095,
      "velocity": 120,
      "chip": "ym2612"
    },
    {
      "channel": 0,
      "note": 73,
      "start": 51.3476,
      "duration": 1.834,
      "velocity": 75,
      "chip": "ym2612"
    },
    {
      "channel": 1,
      "note": 85,
      "start": 51.3484,
      "duration": 1.0306,
      "velocity": 97,
      "chip": "ym2612"
    },
    {
      "channel": 3,
      "note": 78,
      "start": 51.3493,
      "duration": 0.11,
      "velocity": 91,
      "chip": "ym2612"
    },
    {
      "channel": 4,
      "note": 54,
      "start": 51.3501,
      "duration": 0.4567,
      "velocity": 91,
      "chip": "ym2612"
    },
    {
      "channel": 5,
      "note": 85,
      "start": 51.3508,
      "duration": 1.8342,
      "velocity": 96,
      "chip": "ym2612"
    },
    {
      "channel": 2,
      "note": 37,
      "start": 51.3516,
      "duration": 0.1278,
      "velocity": 120,
      "chip": "ym2612"
    },
    {
      "channel": 3,
      "note": 73,
      "start": 51.4598,
      "duration": 0.1169,
      "velocity": 91,
      "chip": "ym2612"
    },
    {
      "channel": 3,
      "note": 66,
      "start": 51.5773,
      "duration": 0.1113,
      "velocity": 91,
      "chip": "ym2612"
    },
    {
      "channel": 2,
      "note": 41,
      "start": 51.5788,
      "duration": 0.2237,
      "velocity": 127,
      "chip": "ym2612"
    },
    {
      "channel": 3,
      "note": 78,
      "start": 51.6891,
      "duration": 0.1168,
      "velocity": 91,
      "chip": "ym2612"
    },
    {
      "channel": 3,
      "note": 73,
      "start": 51.8066,
      "duration": 0.114,
      "velocity": 91,
      "chip": "ym2612"
    },
    {
      "channel": 4,
      "note": 54,
      "start": 51.8074,
      "duration": 0.1139,
      "velocity": 91,
      "chip": "ym2612"
    },
    {
      "channel": 2,
      "note": 37,
      "start": 51.8084,
      "duration": 0.1087,
      "velocity": 120,
      "chip": "ym2612"
    },
    {
      "channel": 3,
      "note": 66,
      "start": 51.9212,
      "duration": 0.1141,
      "velocity": 91,
      "chip": "ym2612"
    },
    {
      "channel": 4,
      "note": 54,
      "start": 51.9219,
      "duration": 0.2288,
      "velocity": 91,
      "chip": "ym2612"
    },
    {
      "channel": 2,
      "note": 37,
      "start": 51.923,
      "duration": 0.1088,
      "velocity": 120,
      "chip": "ym2612"
    },
    {
      "channel": 3,
      "note": 78,
      "start": 52.0358,
      "duration": 0.1142,
      "velocity": 91,
      "chip": "ym2612"
    },
    {
      "channel": 2,
      "note": 41,
      "start": 52.0373,
      "duration": 0.1092,
      "velocity": 127,
      "chip": "ym2612"
    },
    {
      "channel": 3,
      "note": 73,
      "start": 52.1506,
      "duration": 0.1113,
      "velocity": 91,
      "chip": "ym2612"
    },
    {
      "channel": 4,
      "note": 54,
      "start": 52.1513,
      "duration": 0.5706,
      "velocity": 91,
      "chip": "ym2612"
    },
    {
      "channel": 2,
      "note": 37,
      "start": 52.1524,
      "duration": 0.1297,
      "velocity": 120,
      "chip": "ym2612"
    },
    {
      "channel": 3,
      "note": 78,
      "start": 52.2625,
      "duration": 0.1173,
      "velocity": 91,
      "chip": "ym2612"
    },
    {
      "channel": 1,
      "note": 85,
      "start": 52.3795,
      "duration": 0.1141,
      "velocity": 97,
      "chip": "ym2612"
    },
    {
      "channel": 3,
      "note": 73,
      "start": 52.3803,
      "duration": 0.1141,
      "velocity": 91,
      "chip": "ym2612"
    },
    {
      "channel": 2,
      "note": 37,
      "start": 52.3817,
      "duration": 0.1088,
      "velocity": 120,
      "chip": "ym2612"
    },
    {
      "channel": 1,
      "note": 83,
      "start": 52.4942,
      "duration": 0.1141,
      "velocity": 97,
      "chip": "ym2612"
    },
    {
      "channel": 3,
      "note": 71,
      "start": 52.495,
      "duration": 0.1141,
      "velocity": 91,
      "chip": "ym2612"
    },
    {
      "channel": 2,
      "note": 41,
      "start": 52.4964,
      "duration": 0.1087,
      "velocity": 127,
      "chip": "ym2612"
    },
    {
      "channel": 1,
      "note": 81,
      "start": 52.609,
      "duration": 0.1115,
      "velocity": 97,
      "chip": "ym2612"
    },
    {
      "channel": 3,
      "note": 73,
      "start": 52.6097,
      "duration": 0.1115,
      "velocity": 91,
      "chip": "ym2612"
    },
    {
      "channel": 2,
      "note": 37,
      "start": 52.6111,
      "duration": 0.1297,
      "velocity": 120,
      "chip": "ym2612"
    },
    {
      "channel": 1,
      "note": 83,
      "start": 52.721,
      "duration": 0.1166,
      "velocity": 97,
      "chip": "ym2612"
    },
    {
      "channel": 3,
      "note": 71,
      "start": 52.7218,
      "duration": 0.1166,
      "velocity": 91,
      "chip": "ym2612"
    },
    {
      "channel": 4,
      "note": 54,
      "start": 52.7225,
      "duration": 0.1167,
      "velocity": 91,
      "chip": "ym2612"
    },
    {
      "channel": 1,
      "note": 81,
      "start": 52.8383,
      "duration": 0.1141,
      "velocity": 97,
      "chip": "ym2612"
    },
    {
      "channel": 3,
      "note": 69,
      "start": 52.8389,
      "duration": 0.1141,
      "velocity": 91,
      "chip": "ym2612"
    },
    {
      "channel": 4,
      "note": 54,
      "start": 52.8397,
      "duration": 0.1141,
      "velocity": 91,
      "chip": "ym2612"
    },
    {
      "channel": 2,
      "note": 37,
      "start": 52.8408,
      "duration": 0.1084,
      "velocity": 120,
      "chip": "ym2612"
    },
    {
      "channel": 1,
      "note": 80,
      "start": 52.9529,
      "duration": 0.1144,
      "velocity": 97,
      "chip": "ym2612"
    },
    {
      "channel": 3,
      "note": 68,
      "start": 52.9536,
      "duration": 0.1144,
      "velocity": 91,
      "chip": "ym2612"
    },
    {
      "channel": 4,
      "note": 52,
      "start": 52.9543,
      "duration": 0.1144,
      "velocity": 91,
      "chip": "ym2612"
    },
    {
      "channel": 2,
      "note": 41,
      "start": 52.9555,
      "duration": 0.1086,
      "velocity": 127,
      "chip": "ym2612"
    },
    {
      "channel": 1,
      "note": 78,
      "start": 53.0679,
      "duration": 0.1144,
      "velocity": 97,
      "chip": "ym2612"
    },
    {
      "channel": 3,
      "note": 66,
      "start": 53.0686,
      "duration": 0.1147,
      "velocity": 91,
      "chip": "ym2612"
    },
    {
      "channel": 4,
      "note": 52,
      "start": 53.0693,
      "duration": 0.1149,
      "velocity": 91,
      "chip": "ym2612"
    },
    {
      "channel": 2,
      "note": 37,
      "start": 53.0704,
      "duration": 0.1084,
      "velocity": 120,
      "chip": "ym2612"
    },
    {
      "channel": 0,
      "note": 69,
      "start": 53.1822,
      "duration": 0.9137,
      "velocity": 75,
      "chip": "ym2612"
    },
    {
      "channel": 1,
      "note": 73,
      "start": 53.183,
      "duration": 0.9137,
      "velocity": 97,
      "chip": "ym2612"
    },
    {
      "channel": 3,
      "note": 74,
      "start": 53.1839,
      "duration": 0.1099,
      "velocity": 91,
      "chip": "ym2612"
    },
    {
      "channel": 4,
      "note": 50,
      "start": 53.1848,
      "duration": 0.4566,
      "velocity": 91,
      "chip": "ym2612"
    },
    {
      "channel": 5,
      "note": 81,
      "start": 53.1856,
      "duration": 0.9129,
      "velocity": 96,
      "chip": "ym2612"
    },
    {
      "channel": 2,
      "note": 37,
      "start": 53.1863,
      "duration": 0.1277,
      "velocity": 120,
      "chip": "ym2612"
    },
    {
      "channel": 3,
      "note": 69,
      "start": 53.2944,
      "duration": 0.1168,
      "velocity": 91,
      "chip": "ym2612"
    },
    {
      "channel": 3,
      "note": 62,
      "start": 53.4118,
      "duration": 0.1114,
      "velocity": 91,
      "chip": "ym2612"
    },
    {
      "channel": 2,
      "note": 41,
      "start": 53.4133,
      "duration": 0.2239,
      "velocity": 127,
      "chip": "ym2612"
    },
    {
      "channel": 3,
      "note": 74,
      "start": 53.5238,
      "duration": 0.1168,
      "velocity": 91,
      "chip": "ym2612"
    },
    {
      "channel": 3,
      "note": 69,
      "start": 53.6413,
      "duration": 0.1139,
      "velocity": 91,
      "chip": "ym2612"
    },
    {
      "channel": 4,
      "note": 50,
      "start": 53.642,
      "duration": 0.114,
      "velocity": 91,
      "chip": "ym2612"
    },
    {
      "channel": 2,
      "note": 37,
      "start": 53.6431,
      "duration": 0.1086,
      "velocity": 120,
      "chip": "ym2612"
    },
    {
      "channel": 3,
      "note": 62,
      "start": 53.7558,
      "duration": 0.1141,
      "velocity": 91,
      "chip": "ym2612"
    },
    {
      "channel": 4,
      "note": 50,
      "start": 53.7566,
      "duration": 0.2288,
      "velocity": 91,
      "chip": "ym2612"
    },
    {
      "channel": 2,
      "note": 37,
      "start": 53.7576,
      "duration": 0.1088,
      "velocity": 120,
      "chip": "ym2612"
    },
    {
      "channel": 3,
      "note": 74,
      "start": 53.8705,
      "duration": 0.1141,
      "velocity": 91,
      "chip": "ym2612"
    },
    {
      "channel": 2,
      "note": 41,
      "start": 53.872,
      "duration": 0.109,
      "velocity": 127,
      "chip": "ym2612"
    },
    {
      "channel": 3,
      "note": 69,
      "start": 53.9851,
      "duration": 0.1123,
      "velocity": 91,
      "chip": "ym2612"
    },
    {
      "channel": 4,
      "note": 52,
      "start": 53.9859,
      "duration": 0.5701,
      "velocity": 91,
      "chip": "ym2612"
    },
    {
      "channel": 2,
      "note": 37,
      "start": 53.987,
      "duration": 0.1298,
      "velocity": 120,
      "chip": "ym2612"
    },
    {
      "channel": 0,
      "note": 71,
      "start": 54.0965,
      "duration": 0.3461,
      "velocity": 75,
      "chip": "ym2612"
    },
    {
      "channel": 1,
      "note": 74,
      "start": 54.0973,
      "duration": 0.346,
      "velocity": 97,
      "chip": "ym2612"
    },
    {
      "channel": 3,
      "note": 76,
      "start": 54.098,
      "duration": 0.1159,
      "velocity": 91,
      "chip": "ym2612"
    },
    {
      "channel": 5,
      "note": 83,
      "start": 54.0991,
      "duration": 0.346,
      "velocity": 96,
      "chip": "ym2612"
    },
    {
      "channel": 3,
      "note": 71,
      "start": 54.2144,
      "duration": 0.1141,
      "velocity": 91,
      "chip": "ym2612"
    },
    {
      "channel": 2,
      "note": 37,
      "start": 54.2159,
      "duration": 0.1092,
      "velocity": 120,
      "chip": "ym2612"
    },
    {
      "channel": 3,
      "note": 64,
      "start": 54.3291,
      "duration": 0.1149,
      "velocity": 91,
      "chip": "ym2612"
    },
    {
      "channel": 2,
      "note": 41,
      "start": 54.3307,
      "duration": 0.109,
      "velocity": 127,
      "chip": "ym2612"
    },
    {
      "channel": 0,
      "note": 69,
      "start": 54.4432,
      "duration": 0.3434,
      "velocity": 75,
      "chip": "ym2612"
    },
    {
      "channel": 1,
      "note": 73,
      "start": 54.4439,
      "duration": 0.3433,
      "velocity": 97,
      "chip": "ym2612"
    },
    {
      "channel": 3,
      "note": 76,
      "start": 54.4446,
      "duration": 0.1106,
      "velocity": 91,
      "chip": "ym2612"
    },
    {
      "channel": 5,
      "note": 81,
      "start": 54.4458,
      "duration": 0.3433,
      "velocity": 96,
      "chip": "ym2612"
    },
    {
      "channel": 2,
      "note": 37,
      "start": 54.4464,
      "duration": 0.129,
      "velocity": 120,
      "chip": "ym2612"
    },
    {
      "channel": 3,
      "note": 71,
      "start": 54.5559,
      "duration": 0.1167,
      "velocity": 91,
      "chip": "ym2612"
    },
    {
      "channel": 4,
      "note": 52,
      "start": 54.5566,
      "duration": 0.1167,
      "velocity": 91,
      "chip": "ym2612"
    },
    {
      "channel": 3,
      "note": 64,
      "start": 54.6731,
      "duration": 0.1149,
      "velocity": 91,
      "chip": "ym2612"
    },
    {
      "channel": 4,
      "note": 52,
      "start": 54.6739,
      "duration": 0.3447,
      "velocity": 91,
      "chip": "ym2612"
    },
    {
      "channel": 2,
      "note": 37,
      "start": 54.6749,
      "duration": 0.1088,
      "velocity": 120,
      "chip": "ym2612"
    },
    {
      "channel": 0,
      "note": 68,
      "start": 54.7871,
      "duration": 0.2291,
      "velocity": 75,
      "chip": "ym2612"
    },
    {
      "channel": 1,
      "note": 71,
      "start": 54.7879,
      "duration": 0.229,
      "velocity": 97,
      "chip": "ym2612"
    },
    {
      "channel": 3,
      "note": 76,
      "start": 54.7886,
      "duration": 0.1133,
      "velocity": 91,
      "chip": "ym2612"
    },
    {
      "channel": 5,
      "note": 80,
      "start": 54.7897,
      "duration": 0.2296,
      "velocity": 96,
      "chip": "ym2612"
    },
    {
      "channel": 2,
      "note": 41,
      "start": 54.7905,
      "duration": 0.1078,
      "velocity": 127,
      "chip": "ym2612"
    },
    {
      "channel": 3,
      "note": 71,
      "start": 54.9024,
      "duration": 0.1153,
      "velocity": 91,
      "chip": "ym2612"
    },
    {
      "channel": 2,
      "note": 37,
      "start": 54.9038,
      "duration": 0.1095,
      "velocity": 120,
      "chip": "ym2612"
    },
    {
      "channel": 0,
      "note": 66,
      "start": 55.0167,
      "duration": 0.3432,
      "velocity": 75,
      "chip": "ym2612"
    },
    {
      "channel": 1,
      "note": 69,
      "start": 55.0175,
      "duration": 0.3432,
      "velocity": 97,
      "chip": "ym2612"
    },
    {
      "channel": 3,
      "note": 66,
      "start": 55.0183,
      "duration": 0.1129,
      "velocity": 91,
      "chip": "ym2612"
    },
    {
      "channel": 4,
      "note": 54,
      "start": 55.0192,
      "duration": 0.343,
      "velocity": 91,
      "chip": "ym2612"
    },
    {
      "channel": 5,
      "note": 78,
      "start": 55.0199,
      "duration": 0.3429,
      "velocity": 96,
      "chip": "ym2612"
    },
    {
      "channel": 2,
      "note": 41,
      "start": 55.0207,
      "duration": 0.1071,
      "velocity": 127,
      "chip": "ym2612"
    },
    {
      "channel": 3,
      "note": 78,
      "start": 55.1318,
      "duration": 0.114,
      "velocity": 91,
      "chip": "ym2612"
    },
    {
      "channel": 2,
      "note": 37,
      "start": 55.1332,
      "duration": 0.1091,
      "velocity": 120,
      "chip": "ym2612"
    },
    {
      "channel": 3,
      "note": 66,
      "start": 55.2464,
      "duration": 0.115,
      "velocity": 91,
      "chip": "ym2612"
    },
    {
      "channel": 2,
      "note": 37,
      "start": 55.2478,
      "duration": 0.1094,
      "velocity": 120,
      "chip": "ym2612"
    },
    {
      "channel": 0,
      "note": 73,
      "start": 55.3605,
      "duration": 0.3435,
      "velocity": 75,
      "chip": "ym2612"
    },
    {
      "channel": 1,
      "note": 76,
      "start": 55.3613,
      "duration": 0.3434,
      "velocity": 97,
      "chip": "ym2612"
    },
    {
      "channel": 3,
      "note": 64,
      "start": 55.362,
      "duration": 0.1133,
      "velocity": 91,
      "chip": "ym2612"
    },
    {
      "channel": 4,
      "note": 52,
      "start": 55.3627,
      "duration": 0.3435,
      "velocity": 91,
      "chip": "ym2612"
    },
    {
      "channel": 5,
      "note": 85,
      "start": 55.3635,
      "duration": 0.3435,
      "velocity": 96,
      "chip": "ym2612"
    },
    {
      "channel": 2,
      "note": 41,
      "start": 55.3643,
      "duration": 0.1075,
      "velocity": 127,
      "chip": "ym2612"
    },
    {
      "channel": 3,
      "note": 76,
      "start": 55.4759,
      "duration": 0.1139,
      "velocity": 91,
      "chip": "ym2612"
    },
    {
      "channel": 2,
      "note": 37,
      "start": 55.4773,
      "duration": 0.109,
      "velocity": 120,
      "chip": "ym2612"
    },
    {
      "channel": 3,
      "note": 64,
      "start": 55.5905,
      "duration": 0.115,
      "velocity": 91,
      "chip": "ym2612"
    },
    {
      "channel": 2,
      "note": 37,
      "start": 55.5919,
      "duration": 0.1093,
      "velocity": 120,
      "chip": "ym2612"
    },
    {
      "channel": 0,
      "note": 78,
      "start": 55.7046,
      "duration": 0.6872,
      "velocity": 75,
      "chip": "ym2612"
    },
    {
      "channel": 1,
      "note": 81,
      "start": 55.7054,
      "duration": 0.6872,
      "velocity": 97,
      "chip": "ym2612"
    },
    {
      "channel": 3,
      "note": 62,
      "start": 55.7061,
      "duration": 0.6873,
      "velocity": 91,
      "chip": "ym2612"
    },
    {
      "channel": 4,
      "note": 50,
      "start": 55.7069,
      "duration": 0.3423,
      "velocity": 91,
      "chip": "ym2612"
    },
    {
      "channel": 5,
      "note": 90,
      "start": 55.7076,
      "duration": 0.6872,
      "velocity": 96,
      "chip": "ym2612"
    },
    {
      "channel": 2,
      "note": 41,
      "start": 55.7084,
      "duration": 0.1073,
      "velocity": 127,
      "chip": "ym2612"
    },
    {
      "channel": 2,
      "note": 37,
      "start": 55.8208,
      "duration": 0.1095,
      "velocity": 120,
      "chip": "ym2612"
    },
    {
      "channel": 2,
      "note": 37,
      "start": 55.9354,
      "duration": 0.11,
      "velocity": 120,
      "chip": "ym2612"
    },
    {
      "channel": 4,
      "note": 50,
      "start": 56.0498,
      "duration": 0.3443,
      "velocity": 91,
      "chip": "ym2612"
    },
    {
      "channel": 2,
      "note": 41,
      "start": 56.051,
      "duration": 0.1087,
      "velocity": 127,
      "chip": "ym2612"
    },
    {
      "channel": 2,
      "note": 37,
      "start": 56.1648,
      "duration": 0.1096,
      "velocity": 120,
      "chip": "ym2612"
    },
    {
      "channel": 2,
      "note": 37,
      "start": 56.2795,
      "duration": 0.1095,
      "velocity": 120,
      "chip": "ym2612"
    },
    {
      "channel": 0,
      "note": 78,
      "start": 56.3924,
      "duration": 0.2287,
      "velocity": 75,
      "chip": "ym2612"
    },
    {
      "channel": 1,
      "note": 81,
      "start": 56.3932,
      "duration": 0.2287,
      "velocity": 97,
      "chip": "ym2612"
    },
    {
      "channel": 3,
      "note": 74,
      "start": 56.394,
      "duration": 0.1133,
      "velocity": 91,
      "chip": "ym2612"
    },
    {
      "channel": 4,
      "note": 50,
      "start": 56.3947,
      "duration": 0.2288,
      "velocity": 91,
      "chip": "ym2612"
    },
    {
      "channel": 5,
      "note": 90,
      "start": 56.3954,
      "duration": 0.2288,
      "velocity": 96,
      "chip": "ym2612"
    },
    {
      "channel": 2,
      "note": 41,
      "start": 56.3963,
      "duration": 0.1075,
      "velocity": 127,
      "chip": "ym2612"
    },
    {
      "channel": 3,
      "note": 64,
      "start": 56.5078,
      "duration": 0.1148,
      "velocity": 91,
      "chip": "ym2612"
    },
    {
      "channel": 2,
      "note": 41,
      "start": 56.5094,
      "duration": 0.109,
      "velocity": 127,
      "chip": "ym2612"
    },
    {
      "channel": 0,
      "note": 80,
      "start": 56.6217,
      "duration": 0.229,
      "velocity": 75,
      "chip": "ym2612"
    },
    {
      "channel": 1,
      "note": 83,
      "start": 56.6225,
      "duration": 0.2289,
      "velocity": 97,
      "chip": "ym2612"
    },
    {
      "channel": 3,
      "note": 76,
      "start": 56.6232,
      "duration": 0.2291,
      "velocity": 91,
      "chip": "ym2612"
    },
    {
      "channel": 4,
      "note": 52,
      "start": 56.624,
      "duration": 0.2291,
      "velocity": 91,
      "chip": "ym2612"
    },
    {
      "channel": 5,
      "note": 92,
      "start": 56.6248,
      "duration": 0.229,
      "velocity": 96,
      "chip": "ym2612"
    },
    {
      "channel": 2,
      "note": 41,
      "start": 56.6256,
      "duration": 0.1074,
      "velocity": 127,
      "chip": "ym2612"
    },
    {
      "channel": 2,
      "note": 41,
      "start": 56.7382,
      "duration": 0.1097,
      "velocity": 127,
      "chip": "ym2612"
    },
    {
      "channel": 0,
      "note": 81,
      "start": 56.8513,
      "duration": 0.3404,
      "velocity": 75,
      "chip": "ym2612"
    },
    {
      "channel": 1,
      "note": 85,
      "start": 56.852,
      "duration": 0.3404,
      "velocity": 97,
      "chip": "ym2612"
    },
    {
      "channel": 3,
      "note": 74,
      "start": 56.8529,
      "duration": 0.1102,
      "velocity": 91,
      "chip": "ym2612"
    },
    {
      "channel": 4,
      "note": 50,
      "start": 56.8536,
      "duration": 0.2276,
      "velocity": 91,
      "chip": "ym2612"
    },
    {
      "channel": 5,
      "note": 93,
      "start": 56.8544,
      "duration": 0.3403,
      "velocity": 96,
      "chip": "ym2612"
    },
    {
      "channel": 2,
      "note": 37,
      "start": 56.8551,
      "duration": 0.1281,
      "velocity": 120,
      "chip": "ym2612"
    },
    {
      "channel": 3,
      "note": 69,
      "start": 56.9636,
      "duration": 0.1168,
      "velocity": 91,
      "chip": "ym2612"
    },
    {
      "channel": 3,
      "note": 62,
      "start": 57.081,
      "duration": 0.1122,
      "velocity": 91,
      "chip": "ym2612"
    },
    {
      "channel": 4,
      "note": 50,
      "start": 57.0817,
      "duration": 0.1122,
      "velocity": 91,
      "chip": "ym2612"
    },
    {
      "channel": 2,
      "note": 41,
      "start": 57.0829,
      "duration": 0.2234,
      "velocity": 127,
      "chip": "ym2612"
    },
    {
      "channel": 0,
      "note": 80,
      "start": 57.1922,
      "duration": 0.3462,
      "velocity": 75,
      "chip": "ym2612"
    },
    {
      "channel": 1,
      "note": 83,
      "start": 57.193,
      "duration": 0.3462,
      "velocity": 97,
      "chip": "ym2612"
    },
    {
      "channel": 3,
      "note": 74,
      "start": 57.1938,
      "duration": 0.116,
      "velocity": 91,
      "chip": "ym2612"
    },
    {
      "channel": 4,
      "note": 50,
      "start": 57.1945,
      "duration": 0.2308,
      "velocity": 91,
      "chip": "ym2612"
    },
    {
      "channel": 5,
      "note": 92,
      "start": 57.1952,
      "duration": 0.3459,
      "velocity": 96,
      "chip": "ym2612"
    },
    {
      "channel": 3,
      "note": 69,
      "start": 57.3104,
      "duration": 0.1142,
      "velocity": 91,
      "chip": "ym2612"
    },
    {
      "channel": 2,
      "note": 37,
      "start": 57.3118,
      "duration": 0.1093,
      "velocity": 120,
      "chip": "ym2612"
    },
    {
      "channel": 3,
      "note": 62,
      "start": 57.4251,
      "duration": 0.1148,
      "velocity": 91,
      "chip": "ym2612"
    },
    {
      "channel": 4,
      "note": 50,
      "start": 57.4259,
      "duration": 0.2287,
      "velocity": 91,
      "chip": "ym2612"
    },
    {
      "channel": 2,
      "note": 37,
      "start": 57.4269,
      "duration": 0.1087,
      "velocity": 120,
      "chip": "ym2612"
    },
    {
      "channel": 0,
      "note": 78,
      "start": 57.539,
      "duration": 0.2261,
      "velocity": 75,
      "chip": "ym2612"
    },
    {
      "channel": 1,
      "note": 81,
      "start": 57.5398,
      "duration": 0.2261,
      "velocity": 97,
      "chip": "ym2612"
    },
    {
      "channel": 3,
      "note": 74,
      "start": 57.5406,
      "duration": 0.1132,
      "velocity": 91,
      "chip": "ym2612"
    },
    {
      "channel": 5,
      "note": 90,
      "start": 57.5417,
      "duration": 0.2265,
      "velocity": 96,
      "chip": "ym2612"
    },
    {
      "channel": 2,
      "note": 41,
      "start": 57.5425,
      "duration": 0.1078,
      "velocity": 127,
      "chip": "ym2612"
    },
    {
      "channel": 3,
      "note": 69,
      "start": 57.6544,
      "duration": 0.1123,
      "velocity": 91,
      "chip": "ym2612"
    },
    {
      "channel": 4,
      "note": 50,
      "start": 57.6552,
      "duration": 0.1123,
      "velocity": 91,
      "chip": "ym2612"
    },
    {
      "channel": 2,
      "note": 37,
      "start": 57.6563,
      "duration": 0.1296,
      "velocity": 120,
      "chip": "ym2612"
    },
    {
      "channel": 0,
      "note": 80,
      "start": 57.7658,
      "duration": 0.3461,
      "velocity": 75,
      "chip": "ym2612"
    },
    {
      "channel": 1,
      "note": 83,
      "start": 57.7666,
      "duration": 0.346,
      "velocity": 97,
      "chip": "ym2612"
    },
    {
      "channel": 3,
      "note": 76,
      "start": 57.7673,
      "duration": 0.1159,
      "velocity": 91,
      "chip": "ym2612"
    },
    {
      "channel": 4,
      "note": 52,
      "start": 57.768,
      "duration": 0.2305,
      "velocity": 91,
      "chip": "ym2612"
    },
    {
      "channel": 5,
      "note": 92,
      "start": 57.7688,
      "duration": 0.346,
      "velocity": 96,
      "chip": "ym2612"
    },
    {
      "channel": 3,
      "note": 71,
      "start": 57.8837,
      "duration": 0.1141,
      "velocity": 91,
      "chip": "ym2612"
    },
    {
      "channel": 2,
      "note": 37,
      "start": 57.8851,
      "duration": 0.1092,
      "velocity": 120,
      "chip": "ym2612"
    },
    {
      "channel": 3,
      "note": 64,
      "start": 57.9984,
      "duration": 0.1149,
      "velocity": 91,
      "chip": "ym2612"
    },
    {
      "channel": 4,
      "note": 52,
      "start": 57.9991,
      "duration": 0.115,
      "velocity": 91,
      "chip": "ym2612"
    },
    {
      "channel": 2,
      "note": 41,
      "start": 58.0003,
      "duration": 0.1087,
      "velocity": 127,
      "chip": "ym2612"
    },
    {
      "channel": 0,
      "note": 78,
      "start": 58.1124,
      "duration": 0.3434,
      "velocity": 75,
      "chip": "ym2612"
    },
    {
      "channel": 1,
      "note": 81,
      "start": 58.1132,
      "duration": 0.3434,
      "velocity": 97,
      "chip": "ym2612"
    },
    {
      "channel": 3,
      "note": 76,
      "start": 58.1139,
      "duration": 0.1106,
      "velocity": 91,
      "chip": "ym2612"
    },
    {
      "channel": 4,
      "note": 52,
      "start": 58.1146,
      "duration": 0.228,
      "velocity": 91,
      "chip": "ym2612"
    },
    {
      "channel": 5,
      "note": 90,
      "start": 58.1154,
      "duration": 0.3431,
      "velocity": 96,
      "chip": "ym2612"
    },
    {
      "channel": 2,
      "note": 37,
      "start": 58.1161,
      "duration": 0.1284,
      "velocity": 120,
      "chip": "ym2612"
    },
    {
      "channel": 3,
      "note": 71,
      "start": 58.2251,
      "duration": 0.1168,
      "velocity": 91,
      "chip": "ym2612"
    },
    {
      "channel": 3,
      "note": 64,
      "start": 58.3424,
      "duration": 0.1149,
      "velocity": 91,
      "chip": "ym2612"
    },
    {
      "channel": 4,
      "note": 52,
      "start": 58.3432,
      "duration": 0.2287,
      "velocity": 91,
      "chip": "ym2612"
    },
    {
      "channel": 2,
      "note": 37,
      "start": 58.3442,
      "duration": 0.1088,
      "velocity": 120,
      "chip": "ym2612"
    },
    {
      "channel": 0,
      "note": 76,
      "start": 58.4564,
      "duration": 0.2291,
      "velocity": 75,
      "chip": "ym2612"
    },
    {
      "channel": 1,
      "note": 80,
      "start": 58.4573,
      "duration": 0.229,
      "velocity": 97,
      "chip": "ym2612"
    },
    {
      "channel": 3,
      "note": 76,
      "start": 58.458,
      "duration": 0.1132,
      "velocity": 91,
      "chip": "ym2612"
    },
    {
      "channel": 5,
      "note": 88,
      "start": 58.4591,
      "duration": 0.2296,
      "velocity": 96,
      "chip": "ym2612"
    },
    {
      "channel": 2,
      "note": 41,
      "start": 58.4599,
      "duration": 0.1078,
      "velocity": 127,
      "chip": "ym2612"
    },
    {
      "channel": 3,
      "note": 71,
      "start": 58.5718,
      "duration": 0.1153,
      "velocity": 91,
      "chip": "ym2612"
    },
    {
      "channel": 4,
      "note": 52,
      "start": 58.5725,
      "duration": 0.1154,
      "velocity": 91,
      "chip": "ym2612"
    },
    {
      "channel": 2,
      "note": 37,
      "start": 58.5736,
      "duration": 0.109,
      "velocity": 120,
      "chip": "ym2612"
    },
    {
      "channel": 0,
      "note": 78,
      "start": 58.6861,
      "duration": 0.9137,
      "velocity": 75,
      "chip": "ym2612"
    },
    {
      "channel": 1,
      "note": 81,
      "start": 58.6868,
      "duration": 1.0306,
      "velocity": 97,
      "chip": "ym2612"
    },
    {
      "channel": 3,
      "note": 78,
      "start": 58.6877,
      "duration": 0.1101,
      "velocity": 91,
      "chip": "ym2612"
    },
    {
      "channel": 4,
      "note": 54,
      "start": 58.6884,
      "duration": 0.11,
      "velocity": 91,
      "chip": "ym2612"
    },
    {
      "channel": 5,
      "note": 90,
      "start": 58.6893,
      "duration": 0.9127,
      "velocity": 96,
      "chip": "ym2612"
    },
    {
      "channel": 2,
      "note": 37,
      "start": 58.69,
      "duration": 0.1279,
      "velocity": 120,
      "chip": "ym2612"
    },
    {
      "channel": 3,
      "note": 73,
      "start": 58.7983,
      "duration": 0.1168,
      "velocity": 91,
      "chip": "ym2612"
    },
    {
      "channel": 4,
      "note": 54,
      "start": 58.799,
      "duration": 0.3462,
      "velocity": 91,
      "chip": "ym2612"
    },
    {
      "channel": 3,
      "note": 66,
      "start": 58.9157,
      "duration": 0.1117,
      "velocity": 91,
      "chip": "ym2612"
    },
    {
      "channel": 2,
      "note": 41,
      "start": 58.9173,
      "duration": 0.2237,
      "velocity": 127,
      "chip": "ym2612"
    },
    {
      "channel": 3,
      "note": 78,
      "start": 59.028,
      "duration": 0.1164,
      "velocity": 91,
      "chip": "ym2612"
    },
    {
      "channel": 3,
      "note": 73,
      "start": 59.145,
      "duration": 0.1142,
      "velocity": 91,
      "chip": "ym2612"
    },
    {
      "channel": 4,
      "note": 54,
      "start": 59.1458,
      "duration": 0.1142,
      "velocity": 91,
      "chip": "ym2612"
    },
    {
      "channel": 2,
      "note": 37,
      "start": 59.1468,
      "duration": 0.1088,
      "velocity": 120,
      "chip": "ym2612"
    },
    {
      "channel": 3,
      "note": 66,
      "start": 59.2598,
      "duration": 0.1141,
      "velocity": 91,
      "chip": "ym2612"
    },
    {
      "channel": 4,
      "note": 54,
      "start": 59.2605,
      "duration": 0.2287,
      "velocity": 91,
      "chip": "ym2612"
    },
    {
      "channel": 2,
      "note": 37,
      "start": 59.2615,
      "duration": 0.1087,
      "velocity": 120,
      "chip": "ym2612"
    },
    {
      "channel": 3,
      "note": 78,
      "start": 59.3744,
      "duration": 0.1141,
      "velocity": 91,
      "chip": "ym2612"
    },
    {
      "channel": 2,
      "note": 41,
      "start": 59.3759,
      "duration": 0.1091,
      "velocity": 127,
      "chip": "ym2612"
    },
    {
      "channel": 3,
      "note": 73,
      "start": 59.489,
      "duration": 0.1118,
      "velocity": 91,
      "chip": "ym2612"
    },
    {
      "channel": 4,
      "note": 54,
      "start": 59.4898,
      "duration": 0.2292,
      "velocity": 91,
      "chip": "ym2612"
    },
    {
      "channel": 2,
      "note": 37,
      "start": 59.4909,
      "duration": 0.1297,
      "velocity": 120,
      "chip": "ym2612"
    },
    {
      "channel": 0,
      "note": 69,
      "start": 59.6004,
      "duration": 0.4606,
      "velocity": 75,
      "chip": "ym2612"
    },
    {
      "channel": 3,
      "note": 66,
      "start": 59.6014,
      "duration": 0.1168,
      "velocity": 91,
      "chip": "ym2612"
    },
    {
      "channel": 5,
      "note": 81,
      "start": 59.6026,
      "duration": 0.4615,
      "velocity": 96,
      "chip": "ym2612"
    },
    {
      "channel": 1,
      "note": 85,
      "start": 59.718,
      "duration": 0.1141,
      "velocity": 97,
      "chip": "ym2612"
    },
    {
      "channel": 3,
      "note": 76,
      "start": 59.7188,
      "duration": 0.1141,
      "velocity": 91,
      "chip": "ym2612"
    },
    {
      "channel": 4,
      "note": 66,
      "start": 59.7195,
      "duration": 0.1141,
      "velocity": 91,
      "chip": "ym2612"
    },
    {
      "channel": 2,
      "note": 41,
      "start": 59.7207,
      "duration": 0.1083,
      "velocity": 127,
      "chip": "ym2612"
    },
    {
      "channel": 1,
      "note": 83,
      "start": 59.8327,
      "duration": 0.114,
      "velocity": 97,
      "chip": "ym2612"
    },
    {
      "channel": 3,
      "note": 78,
      "start": 59.8334,
      "duration": 0.1141,
      "velocity": 91,
      "chip": "ym2612"
    },
    {
      "channel": 4,
      "note": 66,
      "start": 59.8342,
      "duration": 0.1141,
      "velocity": 91,
      "chip": "ym2612"
    },
    {
      "channel": 2,
      "note": 41,
      "start": 59.8353,
      "duration": 0.1083,
      "velocity": 127,
      "chip": "ym2612"
    },
    {
      "channel": 1,
      "note": 81,
      "start": 59.9473,
      "duration": 0.1144,
      "velocity": 97,
      "chip": "ym2612"
    },
    {
      "channel": 3,
      "note": 73,
      "start": 59.9481,
      "duration": 0.1144,
      "velocity": 91,
      "chip": "ym2612"
    },
    {
      "channel": 4,
      "note": 66,
      "start": 59.9488,
      "duration": 0.1145,
      "velocity": 91,
      "chip": "ym2612"
    },
    {
      "channel": 2,
      "note": 41,
      "start": 59.95,
      "duration": 0.1083,
      "velocity": 127,
      "chip": "ym2612"
    },
    {
      "channel": 0,
      "note": 71,
      "start": 60.0617,
      "duration": 0.4583,
      "velocity": 75,
      "chip": "ym2612"
    },
    {
      "channel": 1,
      "note": 83,
      "start": 60.0624,
      "duration": 0.1137,
      "velocity": 97,
      "chip": "ym2612"
    },
    {
      "channel": 3,
      "note": 76,
      "start": 60.0631,
      "duration": 0.1137,
      "velocity": 91,
      "chip": "ym2612"
    },
    {
      "channel": 4,
      "note": 66,
      "start": 60.0639,
      "duration": 0.1137,
      "velocity": 91,
      "chip": "ym2612"
    },
    {
      "channel": 5,
      "note": 83,
      "start": 60.0646,
      "duration": 0.4617,
      "velocity": 96,
      "chip": "ym2612"
    },
    {
      "channel": 2,
      "note": 41,
      "start": 60.0654,
      "duration": 0.1075,
      "velocity": 127,
      "chip": "ym2612"
    },
    {
      "channel": 1,
      "note": 81,
      "start": 60.1767,
      "duration": 0.1141,
      "velocity": 97,
      "chip": "ym2612"
    },
    {
      "channel": 3,
      "note": 71,
      "start": 60.1775,
      "duration": 0.1141,
      "velocity": 91,
      "chip": "ym2612"
    },
    {
      "channel": 4,
      "note": 66,
      "start": 60.1782,
      "duration": 0.1141,
      "velocity": 91,
      "chip": "ym2612"
    },
    {
      "channel": 2,
      "note": 41,
      "start": 60.1793,
      "duration": 0.1083,
      "velocity": 127,
      "chip": "ym2612"
    },
    {
      "channel": 1,
      "note": 80,
      "start": 60.2914,
      "duration": 0.114,
      "velocity": 97,
      "chip": "ym2612"
    },
    {
      "channel": 3,
      "note": 73,
      "start": 60.2922,
      "duration": 0.114,
      "velocity": 91,
      "chip": "ym2612"
    },
    {
      "channel": 4,
      "note": 66,
      "start": 60.2929,
      "duration": 0.1141,
      "velocity": 91,
      "chip": "ym2612"
    },
    {
      "channel": 2,
      "note": 41,
      "start": 60.294,
      "duration": 0.1083,
      "velocity": 127,
      "chip": "ym2612"
    },
    {
      "channel": 1,
      "note": 78,
      "start": 60.406,
      "duration": 0.1182,
      "velocity": 96,
      "chip": "ym2612"
    },
    {
      "channel": 3,
      "note": 69,
      "start": 60.4068,
      "duration": 0.1179,
      "velocity": 91,
      "chip": "ym2612"
    },
    {
      "channel": 4,
      "note": 66,
      "start": 60.4075,
      "duration": 0.1181,
      "velocity": 91,
      "chip": "ym2612"
    },
    {
      "channel": 2,
      "note": 41,
      "start": 60.4087,
      "duration": 0.1085,
      "velocity": 127,
      "chip": "ym2612"
    },
    {
      "channel": 0,
      "note": 73,
      "start": 60.5206,
      "duration": 0.9137,
      "velocity": 75,
      "chip": "ym2612"
    },
    {
      "channel": 3,
      "note": 74,
      "start": 60.5253,
      "duration": 0.1075,
      "velocity": 91,
      "chip": "ym2612"
    },
    {
      "channel": 4,
      "note": 50,
      "start": 60.5262,
      "duration": 0.4536,
      "velocity": 91,
      "chip": "ym2612"
    },
    {
      "channel": 5,
      "note": 85,
      "start": 60.527,
      "duration": 0.9095,
      "velocity": 96,
      "chip": "ym2612"
    },
    {
      "channel": 2,
      "note": 37,
      "start": 60.5277,
      "duration": 0.1249,
      "velocity": 120,
      "chip": "ym2612"
    },
    {
      "channel": 1,
      "note": 73,
      "start": 60.6326,
      "duration": 0.9194,
      "velocity": 96,
      "chip": "ym2612"
    },
    {
      "channel": 3,
      "note": 69,
      "start": 60.6334,
      "duration": 0.1164,
      "velocity": 91,
      "chip": "ym2612"
    },
    {
      "channel": 3,
      "note": 62,
      "start": 60.7503,
      "duration": 0.1112,
      "velocity": 91,
      "chip": "ym2612"
    },
    {
      "channel": 2,
      "note": 41,
      "start": 60.7519,
      "duration": 0.2237,
      "velocity": 127,
      "chip": "ym2612"
    },
    {
      "channel": 3,
      "note": 74,
      "start": 60.8622,
      "duration": 0.1169,
      "velocity": 91,
      "chip": "ym2612"
    },
    {
      "channel": 3,
      "note": 69,
      "start": 60.9797,
      "duration": 0.1141,
      "velocity": 91,
      "chip": "ym2612"
    },
    {
      "channel": 4,
      "note": 50,
      "start": 60.9804,
      "duration": 0.1141,
      "velocity": 91,
      "chip": "ym2612"
    },
    {
      "channel": 2,
      "note": 37,
      "start": 60.9815,
      "duration": 0.1088,
      "velocity": 120,
      "chip": "ym2612"
    },
    {
      "channel": 3,
      "note": 62,
      "start": 61.0944,
      "duration": 0.1141,
      "velocity": 91,
      "chip": "ym2612"
    },
    {
      "channel": 4,
      "note": 50,
      "start": 61.0951,
      "duration": 0.2287,
      "velocity": 91,
      "chip": "ym2612"
    },
    {
      "channel": 2,
      "note": 37,
      "start": 61.0961,
      "duration": 0.1087,
      "velocity": 120,
      "chip": "ym2612"
    },
    {
      "channel": 3,
      "note": 74,
      "start": 61.209,
      "duration": 0.1141,
      "velocity": 91,
      "chip": "ym2612"
    },
    {
      "channel": 2,
      "note": 41,
      "start": 61.2105,
      "duration": 0.109,
      "velocity": 127,
      "chip": "ym2612"
    },
    {
      "channel": 3,
      "note": 69,
      "start": 61.3237,
      "duration": 0.1118,
      "velocity": 91,
      "chip": "ym2612"
    },
    {
      "channel": 4,
      "note": 52,
      "start": 61.3244,
      "duration": 0.5704,
      "velocity": 91,
      "chip": "ym2612"
    },
    {
      "channel": 2,
      "note": 37,
      "start": 61.3255,
      "duration": 0.1296,
      "velocity": 120,
      "chip": "ym2612"
    },
    {
      "channel": 0,
      "note": 71,
      "start": 61.4349,
      "duration": 0.3461,
      "velocity": 75,
      "chip": "ym2612"
    },
    {
      "channel": 3,
      "note": 76,
      "start": 61.436,
      "duration": 0.1167,
      "velocity": 91,
      "chip": "ym2612"
    },
    {
      "channel": 5,
      "note": 83,
      "start": 61.4371,
      "duration": 0.3461,
      "velocity": 96,
      "chip": "ym2612"
    },
    {
      "channel": 1,
      "note": 71,
      "start": 61.5526,
      "duration": 0.3407,
      "velocity": 96,
      "chip": "ym2612"
    },
    {
      "channel": 3,
      "note": 71,
      "start": 61.5533,
      "duration": 0.1138,
      "velocity": 91,
      "chip": "ym2612"
    },
    {
      "channel": 2,
      "note": 37,
      "start": 61.5547,
      "duration": 0.109,
      "velocity": 120,
      "chip": "ym2612"
    },
    {
      "channel": 3,
      "note": 64,
      "start": 61.6678,
      "duration": 0.1144,
      "velocity": 91,
      "chip": "ym2612"
    },
    {
      "channel": 2,
      "note": 41,
      "start": 61.6692,
      "duration": 0.109,
      "velocity": 127,
      "chip": "ym2612"
    },
    {
      "channel": 0,
      "note": 69,
      "start": 61.7816,
      "duration": 0.3434,
      "velocity": 75,
      "chip": "ym2612"
    },
    {
      "channel": 3,
      "note": 76,
      "start": 61.7827,
      "duration": 0.1114,
      "velocity": 91,
      "chip": "ym2612"
    },
    {
      "channel": 5,
      "note": 81,
      "start": 61.7839,
      "duration": 0.3434,
      "velocity": 96,
      "chip": "ym2612"
    },
    {
      "channel": 2,
      "note": 37,
      "start": 61.7846,
      "duration": 0.1293,
      "velocity": 120,
      "chip": "ym2612"
    },
    {
      "channel": 1,
      "note": 69,
      "start": 61.8939,
      "duration": 0.3461,
      "velocity": 96,
      "chip": "ym2612"
    },
    {
      "channel": 3,
      "note": 71,
      "start": 61.8947,
      "duration": 0.1168,
      "velocity": 91,
      "chip": "ym2612"
    },
    {
      "channel": 4,
      "note": 52,
      "start": 61.8954,
      "duration": 0.1168,
      "velocity": 91,
      "chip": "ym2612"
    },
    {
      "channel": 3,
      "note": 64,
      "start": 62.012,
      "duration": 0.1141,
      "velocity": 91,
      "chip": "ym2612"
    },
    {
      "channel": 4,
      "note": 52,
      "start": 62.0128,
      "duration": 0.344,
      "velocity": 91,
      "chip": "ym2612"
    },
    {
      "channel": 2,
      "note": 37,
      "start": 62.0138,
      "duration": 0.1084,
      "velocity": 120,
      "chip": "ym2612"
    },
    {
      "channel": 0,
      "note": 68,
      "start": 62.1256,
      "duration": 0.229,
      "velocity": 75,
      "chip": "ym2612"
    },
    {
      "channel": 3,
      "note": 76,
      "start": 62.1267,
      "duration": 0.1141,
      "velocity": 91,
      "chip": "ym2612"
    },
    {
      "channel": 5,
      "note": 80,
      "start": 62.1279,
      "duration": 0.2297,
      "velocity": 96,
      "chip": "ym2612"
    },
    {
      "channel": 2,
      "note": 41,
      "start": 62.1286,
      "duration": 0.1083,
      "velocity": 127,
      "chip": "ym2612"
    },
    {
      "channel": 1,
      "note": 68,
      "start": 62.2407,
      "duration": 0.2259,
      "velocity": 96,
      "chip": "ym2612"
    },
    {
      "channel": 3,
      "note": 71,
      "start": 62.2414,
      "duration": 0.1145,
      "velocity": 91,
      "chip": "ym2612"
    },
    {
      "channel": 2,
      "note": 37,
      "start": 62.2428,
      "duration": 0.109,
      "velocity": 120,
      "chip": "ym2612"
    },
    {
      "channel": 0,
      "note": 69,
      "start": 62.3553,
      "duration": 0.3403,
      "velocity": 75,
      "chip": "ym2612"
    },
    {
      "channel": 3,
      "note": 78,
      "start": 62.3566,
      "duration": 0.1107,
      "velocity": 91,
      "chip": "ym2612"
    },
    {
      "channel": 4,
      "note": 54,
      "start": 62.3574,
      "duration": 0.4574,
      "velocity": 91,
      "chip": "ym2612"
    },
    {
      "channel": 5,
      "note": 81,
      "start": 62.3582,
      "duration": 0.3396,
      "velocity": 96,
      "chip": "ym2612"
    },
    {
      "channel": 2,
      "note": 37,
      "start": 62.3589,
      "duration": 0.1281,
      "velocity": 120,
      "chip": "ym2612"
    },
    {
      "channel": 1,
      "note": 69,
      "start": 62.4672,
      "duration": 0.3462,
      "velocity": 96,
      "chip": "ym2612"
    },
    {
      "channel": 3,
      "note": 73,
      "start": 62.468,
      "duration": 0.1163,
      "velocity": 91,
      "chip": "ym2612"
    },
    {
      "channel": 3,
      "note": 66,
      "start": 62.5849,
      "duration": 0.1118,
      "velocity": 91,
      "chip": "ym2612"
    },
    {
      "channel": 2,
      "note": 41,
      "start": 62.5864,
      "duration": 0.2238,
      "velocity": 127,
      "chip": "ym2612"
    },
    {
      "channel": 0,
      "note": 68,
      "start": 62.6962,
      "duration": 0.3461,
      "velocity": 75,
      "chip": "ym2612"
    },
    {
      "channel": 3,
      "note": 78,
      "start": 62.6973,
      "duration": 0.1168,
      "velocity": 91,
      "chip": "ym2612"
    },
    {
      "channel": 5,
      "note": 80,
      "start": 62.6984,
      "duration": 0.3461,
      "velocity": 96,
      "chip": "ym2612"
    },
    {
      "channel": 1,
      "note": 68,
      "start": 62.8139,
      "duration": 0.3434,
      "velocity": 96,
      "chip": "ym2612"
    },
    {
      "channel": 3,
      "note": 73,
      "start": 62.8146,
      "duration": 0.1137,
      "velocity": 91,
      "chip": "ym2612"
    },
    {
      "channel": 4,
      "note": 54,
      "start": 62.8154,
      "duration": 0.1137,
      "velocity": 91,
      "chip": "ym2612"
    },
    {
      "channel": 2,
      "note": 37,
      "start": 62.8165,
      "duration": 0.1084,
      "velocity": 120,
      "chip": "ym2612"
    },
    {
      "channel": 3,
      "note": 66,
      "start": 62.929,
      "duration": 0.1144,
      "velocity": 91,
      "chip": "ym2612"
    },
    {
      "channel": 4,
      "note": 54,
      "start": 62.9297,
      "duration": 0.2292,
      "velocity": 91,
      "chip": "ym2612"
    },
    {
      "channel": 2,
      "note": 37,
      "start": 62.9308,
      "duration": 0.1087,
      "velocity": 120,
      "chip": "ym2612"
    },
    {
      "channel": 0,
      "note": 66,
      "start": 63.0429,
      "duration": 0.4581,
      "velocity": 75,
      "chip": "ym2612"
    },
    {
      "channel": 3,
      "note": 78,
      "start": 63.044,
      "duration": 0.1142,
      "velocity": 91,
      "chip": "ym2612"
    },
    {
      "channel": 5,
      "note": 78,
      "start": 63.0451,
      "duration": 0.458,
      "velocity": 96,
      "chip": "ym2612"
    },
    {
      "channel": 2,
      "note": 41,
      "start": 63.0459,
      "duration": 0.1083,
      "velocity": 127,
      "chip": "ym2612"
    },
    {
      "channel": 1,
      "note": 66,
      "start": 63.158,
      "duration": 0.4583,
      "velocity": 96,
      "chip": "ym2612"
    },
    {
      "channel": 3,
      "note": 73,
      "start": 63.1588,
      "duration": 0.1109,
      "velocity": 91,
      "chip": "ym2612"
    },
    {
      "channel": 4,
      "note": 54,
      "start": 63.1595,
      "duration": 0.5703,
      "velocity": 91,
      "chip": "ym2612"
    },
    {
      "channel": 2,
      "note": 37,
      "start": 63.1606,
      "duration": 0.1292,
      "velocity": 120,
      "chip": "ym2612"
    },
    {
      "channel": 3,
      "note": 78,
      "start": 63.2703,
      "duration": 0.1167,
      "velocity": 91,
      "chip": "ym2612"
    },
    {
      "channel": 3,
      "note": 73,
      "start": 63.3876,
      "duration": 0.1145,
      "velocity": 91,
      "chip": "ym2612"
    },
    {
      "channel": 2,
      "note": 37,
      "start": 63.3889,
      "duration": 0.1092,
      "velocity": 120,
      "chip": "ym2612"
    },
    {
      "channel": 0,
      "note": 64,
      "start": 63.5016,
      "duration": 0.114,
      "velocity": 75,
      "chip": "ym2612"
    },
    {
      "channel": 3,
      "note": 66,
      "start": 63.5026,
      "duration": 0.1145,
      "velocity": 91,
      "chip": "ym2612"
    },
    {
      "channel": 5,
      "note": 76,
      "start": 63.5038,
      "duration": 0.1144,
      "velocity": 96,
      "chip": "ym2612"
    },
    {
      "channel": 2,
      "note": 41,
      "start": 63.5045,
      "duration": 0.1083,
      "velocity": 127,
      "chip": "ym2612"
    },
    {
      "channel": 0,
      "note": 61,
      "start": 63.6162,
      "duration": 0.1114,
      "velocity": 75,
      "chip": "ym2612"
    },
    {
      "channel": 1,
      "note": 64,
      "start": 63.6169,
      "duration": 0.1114,
      "velocity": 96,
      "chip": "ym2612"
    },
    {
      "channel": 3,
      "note": 78,
      "start": 63.6177,
      "duration": 0.1114,
      "velocity": 91,
      "chip": "ym2612"
    },
    {
      "channel": 5,
      "note": 73,
      "start": 63.6188,
      "duration": 0.1118,
      "velocity": 96,
      "chip": "ym2612"
    },
    {
      "channel": 2,
      "note": 37,
      "start": 63.6195,
      "duration": 0.1289,
      "velocity": 120,
      "chip": "ym2612"
    },
    {
      "channel": 0,
      "note": 59,
      "start": 63.7282,
      "duration": 0.1167,
      "velocity": 75,
      "chip": "ym2612"
    },
    {
      "channel": 1,
      "note": 61,
      "start": 63.729,
      "duration": 0.1167,
      "velocity": 96,
      "chip": "ym2612"
    },
    {
      "channel": 3,
      "note": 73,
      "start": 63.7297,
      "duration": 0.1167,
      "velocity": 91,
      "chip": "ym2612"
    },
    {
      "channel": 4,
      "note": 54,
      "start": 63.7304,
      "duration": 0.1167,
      "velocity": 91,
      "chip": "ym2612"
    },
    {
      "channel": 5,
      "note": 71,
      "start": 63.7312,
      "duration": 0.1167,
      "velocity": 96,
      "chip": "ym2612"
    },
    {
      "channel": 0,
      "note": 57,
      "start": 63.8455,
      "duration": 0.1142,
      "velocity": 75,
      "chip": "ym2612"
    },
    {
      "channel": 1,
      "note": 59,
      "start": 63.8462,
      "duration": 0.1143,
      "velocity": 96,
      "chip": "ym2612"
    },
    {
      "channel": 3,
      "note": 66,
      "start": 63.847,
      "duration": 0.1142,
      "velocity": 91,
      "chip": "ym2612"
    },
    {
      "channel": 4,
      "note": 54,
      "start": 63.8477,
      "duration": 0.1142,
      "velocity": 91,
      "chip": "ym2612"
    },
    {
      "channel": 5,
      "note": 69,
      "start": 63.8484,
      "duration": 0.1143,
      "velocity": 96,
      "chip": "ym2612"
    },
    {
      "channel": 2,
      "note": 37,
      "start": 63.8491,
      "duration": 0.1078,
      "velocity": 120,
      "chip": "ym2612"
    },
    {
      "channel": 0,
      "note": 59,
      "start": 63.9603,
      "duration": 0.114,
      "velocity": 75,
      "chip": "ym2612"
    },
    {
      "channel": 1,
      "note": 57,
      "start": 63.961,
      "duration": 0.1141,
      "velocity": 96,
      "chip": "ym2612"
    },
    {
      "channel": 3,
      "note": 76,
      "start": 63.9618,
      "duration": 0.114,
      "velocity": 91,
      "chip": "ym2612"
    },
    {
      "channel": 4,
      "note": 52,
      "start": 63.9625,
      "duration": 0.1141,
      "velocity": 91,
      "chip": "ym2612"
    },
    {
      "channel": 5,
      "note": 71,
      "start": 63.9632,
      "duration": 0.114,
      "velocity": 96,
      "chip": "ym2612"
    },
    {
      "channel": 2,
      "note": 41,
      "start": 63.964,
      "duration": 0.1074,
      "velocity": 127,
      "chip": "ym2612"
    },
    {
      "channel": 0,
      "note": 61,
      "start": 64.0749,
      "duration": 0.1144,
      "velocity": 75,
      "chip": "ym2612"
    },
    {
      "channel": 1,
      "note": 59,
      "start": 64.0756,
      "duration": 0.1144,
      "velocity": 96,
      "chip": "ym2612"
    },
    {
      "channel": 3,
      "note": 64,
      "start": 64.0763,
      "duration": 0.1146,
      "velocity": 91,
      "chip": "ym2612"
    },
    {
      "channel": 4,
      "note": 52,
      "start": 64.0771,
      "duration": 0.1148,
      "velocity": 91,
      "chip": "ym2612"
    },
    {
      "channel": 5,
      "note": 73,
      "start": 64.0778,
      "duration": 0.1149,
      "velocity": 96,
      "chip": "ym2612"
    },
    {
      "channel": 2,
      "note": 37,
      "start": 64.0786,
      "duration": 0.1079,
      "velocity": 120,
      "chip": "ym2612"
    },
    {
      "channel": 0,
      "note": 78,
      "start": 64.1899,
      "duration": 0.0728,
      "velocity": 75,
      "chip": "ym2612"
    },
    {
      "channel": 1,
      "note": 61,
      "start": 64.1907,
      "duration": 0.1106,
      "velocity": 96,
      "chip": "ym2612"
    },
    {
      "channel": 3,
      "note": 74,
      "start": 64.1916,
      "duration": 0.1104,
      "velocity": 91,
      "chip": "ym2612"
    },
    {
      "channel": 4,
      "note": 50,
      "start": 64.1925,
      "duration": 0.4571,
      "velocity": 91,
      "chip": "ym2612"
    },
    {
      "channel": 5,
      "note": 90,
      "start": 64.1933,
      "duration": 0.0712,
      "velocity": 96,
      "chip": "ym2612"
    },
    {
      "channel": 2,
      "note": 37,
      "start": 64.194,
      "duration": 0.1277,
      "velocity": 120,
      "chip": "ym2612"
    },
    {
      "channel": 0,
      "note": 73,
      "start": 64.2632,
      "duration": 0.0758,
      "velocity": 75,
      "chip": "ym2612"
    },
    {
      "channel": 5,
      "note": 85,
      "start": 64.265,
      "duration": 0.0759,
      "velocity": 96,
      "chip": "ym2612"
    },
    {
      "channel": 1,
      "note": 78,
      "start": 64.3019,
      "duration": 0.0758,
      "velocity": 96,
      "chip": "ym2612"
    },
    {
      "channel": 3,
      "note": 69,
      "start": 64.3026,
      "duration": 0.1167,
      "velocity": 91,
      "chip": "ym2612"
    },
    {
      "channel": 0,
      "note": 69,
      "start": 64.3397,
      "duration": 0.0785,
      "velocity": 75,
      "chip": "ym2612"
    },
    {
      "channel": 5,
      "note": 81,
      "start": 64.3415,
      "duration": 0.0788,
      "velocity": 96,
      "chip": "ym2612"
    },
    {
      "channel": 1,
      "note": 73,
      "start": 64.3783,
      "duration": 0.0759,
      "velocity": 96,
      "chip": "ym2612"
    },
    {
      "channel": 0,
      "note": 80,
      "start": 64.4188,
      "duration": 0.0732,
      "velocity": 75,
      "chip": "ym2612"
    },
    {
      "channel": 3,
      "note": 62,
      "start": 64.4199,
      "duration": 0.1115,
      "velocity": 91,
      "chip": "ym2612"
    },
    {
      "channel": 5,
      "note": 92,
      "start": 64.421,
      "duration": 0.0728,
      "velocity": 96,
      "chip": "ym2612"
    },
    {
      "channel": 2,
      "note": 41,
      "start": 64.4218,
      "duration": 0.2231,
      "velocity": 127,
      "chip": "ym2612"
    },
    {
      "channel": 1,
      "note": 69,
      "start": 64.4547,
      "duration": 0.0758,
      "velocity": 96,
      "chip": "ym2612"
    },
    {
      "channel": 0,
      "note": 73,
      "start": 64.4926,
      "duration": 0.0758,
      "velocity": 75,
      "chip": "ym2612"
    },
    {
      "channel": 5,
      "note": 85,
      "start": 64.4944,
      "duration": 0.0758,
      "velocity": 96,
      "chip": "ym2612"
    },
    {
      "channel": 1,
      "note": 80,
      "start": 64.5311,
      "duration": 0.0759,
      "velocity": 96,
      "chip": "ym2612"
    },
    {
      "channel": 3,
      "note": 74,
      "start": 64.5319,
      "duration": 0.1169,
      "velocity": 91,
      "chip": "ym2612"
    },
    {
      "channel": 0,
      "note": 69,
      "start": 64.569,
      "duration": 0.0788,
      "velocity": 75,
      "chip": "ym2612"
    },
    {
      "channel": 5,
      "note": 81,
      "start": 64.5707,
      "duration": 0.0795,
      "velocity": 96,
      "chip": "ym2612"
    },
    {
      "channel": 1,
      "note": 73,
      "start": 64.6076,
      "duration": 0.0758,
      "velocity": 96,
      "chip": "ym2612"
    },
    {
      "channel": 0,
      "note": 81,
      "start": 64.6483,
      "duration": 0.073,
      "velocity": 75,
      "chip": "ym2612"
    },
    {
      "channel": 3,
      "note": 69,
      "start": 64.6494,
      "duration": 0.114,
      "velocity": 91,
      "chip": "ym2612"
    },
    {
      "channel": 4,
      "note": 50,
      "start": 64.6501,
      "duration": 0.114,
      "velocity": 91,
      "chip": "ym2612"
    },
    {
      "channel": 5,
      "note": 93,
      "start": 64.6509,
      "duration": 0.0721,
      "velocity": 96,
      "chip": "ym2612"
    },
    {
      "channel": 2,
      "note": 37,
      "start": 64.6516,
      "duration": 0.1079,
      "velocity": 120,
      "chip": "ym2612"
    },
    {
      "channel": 1,
      "note": 69,
      "start": 64.684,
      "duration": 0.0786,
      "velocity": 96,
      "chip": "ym2612"
    },
    {
      "channel": 0,
      "note": 73,
      "start": 64.7219,
      "duration": 0.0758,
      "velocity": 75,
      "chip": "ym2612"
    },
    {
      "channel": 5,
      "note": 85,
      "start": 64.7237,
      "duration": 0.0757,
      "velocity": 96,
      "chip": "ym2612"
    },
    {
      "channel": 1,
      "note": 81,
      "start": 64.7632,
      "duration": 0.073,
      "velocity": 96,
      "chip": "ym2612"
    },
    {
      "channel": 3,
      "note": 62,
      "start": 64.7639,
      "duration": 0.1141,
      "velocity": 91,
      "chip": "ym2612"
    },
    {
      "channel": 4,
      "note": 50,
      "start": 64.7647,
      "duration": 0.2291,
      "velocity": 91,
      "chip": "ym2612"
    },
    {
      "channel": 2,
      "note": 37,
      "start": 64.7658,
      "duration": 0.1083,
      "velocity": 120,
      "chip": "ym2612"
    },
    {
      "channel": 0,
      "note": 69,
      "start": 64.7983,
      "duration": 0.0786,
      "velocity": 75,
      "chip": "ym2612"
    },
    {
      "channel": 5,
      "note": 81,
      "start": 64.8001,
      "duration": 0.079,
      "velocity": 96,
      "chip": "ym2612"
    },
    {
      "channel": 1,
      "note": 73,
      "start": 64.8369,
      "duration": 0.0758,
      "velocity": 96,
      "chip": "ym2612"
    },
    {
      "channel": 0,
      "note": 80,
      "start": 64.8775,
      "duration": 0.0731,
      "velocity": 75,
      "chip": "ym2612"
    },
    {
      "channel": 3,
      "note": 74,
      "start": 64.8786,
      "duration": 0.1145,
      "velocity": 91,
      "chip": "ym2612"
    },
    {
      "channel": 5,
      "note": 92,
      "start": 64.8797,
      "duration": 0.0726,
      "velocity": 96,
      "chip": "ym2612"
    },
    {
      "channel": 2,
      "note": 41,
      "start": 64.8805,
      "duration": 0.1087,
      "velocity": 127,
      "chip": "ym2612"
    },
    {
      "channel": 1,
      "note": 69,
      "start": 64.9133,
      "duration": 0.079,
      "velocity": 96,
      "chip": "ym2612"
    },
    {
      "channel": 0,
      "note": 73,
      "start": 64.9512,
      "duration": 0.0758,
      "velocity": 75,
      "chip": "ym2612"
    },
    {
      "channel": 5,
      "note": 85,
      "start": 64.9529,
      "duration": 0.0758,
      "velocity": 96,
      "chip": "ym2612"
    },
    {
      "channel": 1,
      "note": 80,
      "start": 64.9929,
      "duration": 0.0726,
      "velocity": 96,
      "chip": "ym2612"
    },
    {
      "channel": 3,
      "note": 69,
      "start": 64.9937,
      "duration": 0.111,
      "velocity": 91,
      "chip": "ym2612"
    },
    {
      "channel": 4,
      "note": 52,
      "start": 64.9944,
      "duration": 0.5697,
      "velocity": 91,
      "chip": "ym2612"
    },
    {
      "channel": 2,
      "note": 37,
      "start": 64.9955,
      "duration": 0.1289,
      "velocity": 120,
      "chip": "ym2612"
    },
    {
      "channel": 0,
      "note": 69,
      "start": 65.0276,
      "duration": 0.076,
      "velocity": 75,
      "chip": "ym2612"
    },
    {
      "channel": 5,
      "note": 81,
      "start": 65.0294,
      "duration": 0.0764,
      "velocity": 96,
      "chip": "ym2612"
    },
    {
      "channel": 1,
      "note": 73,
      "start": 65.0662,
      "duration": 0.076,
      "velocity": 96,
      "chip": "ym2612"
    },
    {
      "channel": 0,
      "note": 78,
      "start": 65.1042,
      "duration": 0.0757,
      "velocity": 75,
      "chip": "ym2612"
    },
    {
      "channel": 3,
      "note": 76,
      "start": 65.1053,
      "duration": 0.1167,
      "velocity": 91,
      "chip": "ym2612"
    },
    {
      "channel": 5,
      "note": 90,
      "start": 65.1064,
      "duration": 0.0753,
      "velocity": 96,
      "chip": "ym2612"
    },
    {
      "channel": 1,
      "note": 69,
      "start": 65.1427,
      "duration": 0.0786,
      "velocity": 96,
      "chip": "ym2612"
    },
    {
      "channel": 0,
      "note": 73,
      "start": 65.1805,
      "duration": 0.0759,
      "velocity": 75,
      "chip": "ym2612"
    },
    {
      "channel": 5,
      "note": 85,
      "start": 65.1823,
      "duration": 0.0759,
      "velocity": 96,
      "chip": "ym2612"
    },
    {
      "channel": 1,
      "note": 78,
      "start": 65.2219,
      "duration": 0.0731,
      "velocity": 96,
      "chip": "ym2612"
    },
    {
      "channel": 3,
      "note": 71,
      "start": 65.2227,
      "duration": 0.1139,
      "velocity": 91,
      "chip": "ym2612"
    },
    {
      "channel": 2,
      "note": 37,
      "start": 65.2241,
      "duration": 0.1086,
      "velocity": 120,
      "chip": "ym2612"
    },
    {
      "channel": 0,
      "note": 69,
      "start": 65.257,
      "duration": 0.0785,
      "velocity": 75,
      "chip": "ym2612"
    },
    {
      "channel": 5,
      "note": 81,
      "start": 65.2588,
      "duration": 0.0789,
      "velocity": 96,
      "chip": "ym2612"
    },
    {
      "channel": 1,
      "note": 73,
      "start": 65.2956,
      "duration": 0.0758,
      "velocity": 96,
      "chip": "ym2612"
    },
    {
      "channel": 0,
      "note": 80,
      "start": 65.3361,
      "duration": 0.0731,
      "velocity": 75,
      "chip": "ym2612"
    },
    {
      "channel": 3,
      "note": 64,
      "start": 65.3372,
      "duration": 0.1142,
      "velocity": 91,
      "chip": "ym2612"
    },
    {
      "channel": 5,
      "note": 92,
      "start": 65.3383,
      "duration": 0.0727,
      "velocity": 96,
      "chip": "ym2612"
    },
    {
      "channel": 2,
      "note": 41,
      "start": 65.3391,
      "duration": 0.1085,
      "velocity": 127,
      "chip": "ym2612"
    },
    {
      "channel": 1,
      "note": 69,
      "start": 65.372,
      "duration": 0.0787,
      "velocity": 96,
      "chip": "ym2612"
    },
    {
      "channel": 0,
      "note": 73,
      "start": 65.4098,
      "duration": 0.0759,
      "velocity": 75,
      "chip": "ym2612"
    },
    {
      "channel": 5,
      "note": 85,
      "start": 65.4116,
      "duration": 0.076,
      "velocity": 96,
      "chip": "ym2612"
    },
    {
      "channel": 1,
      "note": 80,
      "start": 65.4512,
      "duration": 0.0732,
      "velocity": 96,
      "chip": "ym2612"
    },
    {
      "channel": 3,
      "note": 76,
      "start": 65.452,
      "duration": 0.1115,
      "velocity": 91,
      "chip": "ym2612"
    },
    {
      "channel": 2,
      "note": 37,
      "start": 65.4534,
      "duration": 0.1297,
      "velocity": 120,
      "chip": "ym2612"
    },
    {
      "channel": 0,
      "note": 69,
      "start": 65.4863,
      "duration": 0.076,
      "velocity": 75,
      "chip": "ym2612"
    },
    {
      "channel": 5,
      "note": 81,
      "start": 65.4881,
      "duration": 0.0768,
      "velocity": 96,
      "chip": "ym2612"
    },
    {
      "channel": 1,
      "note": 73,
      "start": 65.5249,
      "duration": 0.0758,
      "velocity": 96,
      "chip": "ym2612"
    },
    {
      "channel": 0,
      "note": 81,
      "start": 65.5629,
      "duration": 0.0757,
      "velocity": 75,
      "chip": "ym2612"
    },
    {
      "channel": 3,
      "note": 71,
      "start": 65.564,
      "duration": 0.1167,
      "velocity": 91,
      "chip": "ym2612"
    },
    {
      "channel": 4,
      "note": 52,
      "start": 65.5647,
      "duration": 0.1167,
      "velocity": 91,
      "chip": "ym2612"
    },
    {
      "channel": 5,
      "note": 93,
      "start": 65.5655,
      "duration": 0.075,
      "velocity": 96,
      "chip": "ym2612"
    },
    {
      "channel": 1,
      "note": 69,
      "start": 65.6013,
      "duration": 0.0786,
      "velocity": 96,
      "chip": "ym2612"
    },
    {
      "channel": 0,
      "note": 73,
      "start": 65.6393,
      "duration": 0.0758,
      "velocity": 75,
      "chip": "ym2612"
    },
    {
      "channel": 5,
      "note": 85,
      "start": 65.6411,
      "duration": 0.0756,
      "velocity": 96,
      "chip": "ym2612"
    },
    {
      "channel": 1,
      "note": 81,
      "start": 65.6805,
      "duration": 0.0731,
      "velocity": 96,
      "chip": "ym2612"
    },
    {
      "channel": 3,
      "note": 64,
      "start": 65.6813,
      "duration": 0.1141,
      "velocity": 91,
      "chip": "ym2612"
    },
    {
      "channel": 4,
      "note": 52,
      "start": 65.682,
      "duration": 0.3439,
      "velocity": 91,
      "chip": "ym2612"
    },
    {
      "channel": 2,
      "note": 37,
      "start": 65.6831,
      "duration": 0.1084,
      "velocity": 120,
      "chip": "ym2612"
    },
    {
      "channel": 0,
      "note": 69,
      "start": 65.7156,
      "duration": 0.0787,
      "velocity": 75,
      "chip": "ym2612"
    },
    {
      "channel": 5,
      "note": 81,
      "start": 65.7174,
      "duration": 0.0791,
      "velocity": 96,
      "chip": "ym2612"
    },
    {
      "channel": 1,
      "note": 73,
      "start": 65.7543,
      "duration": 0.0758,
      "velocity": 96,
      "chip": "ym2612"
    },
    {
      "channel": 0,
      "note": 85,
      "start": 65.7949,
      "duration": 0.073,
      "velocity": 75,
      "chip": "ym2612"
    },
    {
      "channel": 3,
      "note": 76,
      "start": 65.796,
      "duration": 0.114,
      "velocity": 91,
      "chip": "ym2612"
    },
    {
      "channel": 5,
      "note": 97,
      "start": 65.7971,
      "duration": 0.0726,
      "velocity": 96,
      "chip": "ym2612"
    },
    {
      "channel": 2,
      "note": 41,
      "start": 65.7979,
      "duration": 0.1081,
      "velocity": 127,
      "chip": "ym2612"
    },
    {
      "channel": 1,
      "note": 69,
      "start": 65.8306,
      "duration": 0.0786,
      "velocity": 96,
      "chip": "ym2612"
    },
    {
      "channel": 0,
      "note": 73,
      "start": 65.8685,
      "duration": 0.0758,
      "velocity": 75,
      "chip": "ym2612"
    },
    {
      "channel": 5,
      "note": 85,
      "start": 65.8703,
      "duration": 0.0758,
      "velocity": 96,
      "chip": "ym2612"
    },
    {
      "channel": 1,
      "note": 85,
      "start": 65.9099,
      "duration": 0.0735,
      "velocity": 96,
      "chip": "ym2612"
    },
    {
      "channel": 3,
      "note": 71,
      "start": 65.9106,
      "duration": 0.1145,
      "velocity": 91,
      "chip": "ym2612"
    },
    {
      "channel": 2,
      "note": 37,
      "start": 65.912,
      "duration": 0.109,
      "velocity": 120,
      "chip": "ym2612"
    },
    {
      "channel": 0,
      "note": 69,
      "start": 65.9449,
      "duration": 0.079,
      "velocity": 75,
      "chip": "ym2612"
    },
    {
      "channel": 5,
      "note": 81,
      "start": 65.9467,
      "duration": 0.08,
      "velocity": 96,
      "chip": "ym2612"
    },
    {
      "channel": 1,
      "note": 73,
      "start": 65.9839,
      "duration": 0.0754,
      "velocity": 96,
      "chip": "ym2612"
    },
    {
      "channel": 0,
      "note": 90,
      "start": 66.0245,
      "duration": 1.1457,
      "velocity": 75,
      "chip": "ym2612"
    },
    {
      "channel": 3,
      "note": 78,
      "start": 66.0258,
      "duration": 0.1108,
      "velocity": 91,
      "chip": "ym2612"
    },
    {
      "channel": 4,
      "note": 54,
      "start": 66.0266,
      "duration": 0.4571,
      "velocity": 91,
      "chip": "ym2612"
    },
    {
      "channel": 5,
      "note": 102,
      "start": 66.0274,
      "duration": 1.1451,
      "velocity": 96,
      "chip": "ym2612"
    },
    {
      "channel": 2,
      "note": 37,
      "start": 66.0281,
      "duration": 0.1282,
      "velocity": 120,
      "chip": "ym2612"
    },
    {
      "channel": 1,
      "note": 69,
      "start": 66.0599,
      "duration": 0.0759,
      "velocity": 96,
      "chip": "ym2612"
    },
    {
      "channel": 1,
      "note": 90,
      "start": 66.1365,
      "duration": 1.1492,
      "velocity": 96,
      "chip": "ym2612"
    },
    {
      "channel": 3,
      "note": 73,
      "start": 66.1372,
      "duration": 0.1163,
      "velocity": 91,
      "chip": "ym2612"
    },
    {
      "channel": 3,
      "note": 66,
      "start": 66.2541,
      "duration": 0.1114,
      "velocity": 91,
      "chip": "ym2612"
    },
    {
      "channel": 2,
      "note": 41,
      "start": 66.2557,
      "duration": 0.2238,
      "velocity": 127,
      "chip": "ym2612"
    },
    {
      "channel": 3,
      "note": 78,
      "start": 66.3661,
      "duration": 0.1169,
      "velocity": 91,
      "chip": "ym2612"
    },
    {
      "channel": 3,
      "note": 73,
      "start": 66.4835,
      "duration": 0.1141,
      "velocity": 91,
      "chip": "ym2612"
    },
    {
      "channel": 4,
      "note": 54,
      "start": 66.4843,
      "duration": 0.1141,
      "velocity": 91,
      "chip": "ym2612"
    },
    {
      "channel": 2,
      "note": 37,
      "start": 66.4854,
      "duration": 0.1087,
      "velocity": 120,
      "chip": "ym2612"
    },
    {
      "channel": 3,
      "note": 66,
      "start": 66.5982,
      "duration": 0.1141,
      "velocity": 91,
      "chip": "ym2612"
    },
    {
      "channel": 4,
      "note": 54,
      "start": 66.5989,
      "duration": 0.2288,
      "velocity": 91,
      "chip": "ym2612"
    },
    {
      "channel": 2,
      "note": 37,
      "start": 66.6,
      "duration": 0.1087,
      "velocity": 120,
      "chip": "ym2612"
    },
    {
      "channel": 3,
      "note": 78,
      "start": 66.7128,
      "duration": 0.1141,
      "velocity": 91,
      "chip": "ym2612"
    },
    {
      "channel": 2,
      "note": 41,
      "start": 66.7143,
      "duration": 0.109,
      "velocity": 127,
      "chip": "ym2612"
    },
    {
      "channel": 3,
      "note": 73,
      "start": 66.8275,
      "duration": 0.1115,
      "velocity": 91,
      "chip": "ym2612"
    },
    {
      "channel": 4,
      "note": 54,
      "start": 66.8283,
      "duration": 0.5709,
      "velocity": 91,
      "chip": "ym2612"
    },
    {
      "channel": 2,
      "note": 37,
      "start": 66.8293,
      "duration": 0.1298,
      "velocity": 120,
      "chip": "ym2612"
    },
    {
      "channel": 3,
      "note": 78,
      "start": 66.9396,
      "duration": 0.1167,
      "velocity": 91,
      "chip": "ym2612"
    },
    {
      "channel": 3,
      "note": 73,
      "start": 67.0569,
      "duration": 0.1145,
      "velocity": 91,
      "chip": "ym2612"
    },
    {
      "channel": 2,
      "note": 37,
      "start": 67.0583,
      "duration": 0.1092,
      "velocity": 120,
      "chip": "ym2612"
    },
    {
      "channel": 0,
      "note": 88,
      "start": 67.1709,
      "duration": 0.1141,
      "velocity": 75,
      "chip": "ym2612"
    },
    {
      "channel": 3,
      "note": 71,
      "start": 67.172,
      "duration": 0.1145,
      "velocity": 91,
      "chip": "ym2612"
    },
    {
      "channel": 5,
      "note": 100,
      "start": 67.1731,
      "duration": 0.1144,
      "velocity": 96,
      "chip": "ym2612"
    },
    {
      "channel": 2,
      "note": 41,
      "start": 67.1739,
      "duration": 0.1082,
      "velocity": 127,
      "chip": "ym2612"
    },
    {
      "channel": 0,
      "note": 85,
      "start": 67.2855,
      "duration": 0.1114,
      "velocity": 75,
      "chip": "ym2612"
    },
    {
      "channel": 1,
      "note": 88,
      "start": 67.2863,
      "duration": 0.1114,
      "velocity": 96,
      "chip": "ym2612"
    },
    {
      "channel": 3,
      "note": 73,
      "start": 67.287,
      "duration": 0.1114,
      "velocity": 91,
      "chip": "ym2612"
    },
    {
      "channel": 5,
      "note": 97,
      "start": 67.2881,
      "duration": 0.1118,
      "velocity": 96,
      "chip": "ym2612"
    },
    {
      "channel": 2,
      "note": 37,
      "start": 67.2889,
      "duration": 0.1288,
      "velocity": 120,
      "chip": "ym2612"
    },
    {
      "channel": 0,
      "note": 83,
      "start": 67.3975,
      "duration": 0.1167,
      "velocity": 75,
      "chip": "ym2612"
    },
    {
      "channel": 1,
      "note": 85,
      "start": 67.3982,
      "duration": 0.1167,
      "velocity": 96,
      "chip": "ym2612"
    },
    {
      "channel": 3,
      "note": 71,
      "start": 67.399,
      "duration": 0.1167,
      "velocity": 91,
      "chip": "ym2612"
    },
    {
      "channel": 4,
      "note": 54,
      "start": 67.3997,
      "duration": 0.1168,
      "velocity": 91,
      "chip": "ym2612"
    },
    {
      "channel": 5,
      "note": 95,
      "start": 67.4005,
      "duration": 0.1167,
      "velocity": 96,
      "chip": "ym2612"
    },
    {
      "channel": 0,
      "note": 81,
      "start": 67.5148,
      "duration": 0.1141,
      "velocity": 75,
      "chip": "ym2612"
    },
    {
      "channel": 1,
      "note": 83,
      "start": 67.5156,
      "duration": 0.1141,
      "velocity": 96,
      "chip": "ym2612"
    },
    {
      "channel": 3,
      "note": 69,
      "start": 67.5163,
      "duration": 0.1141,
      "velocity": 91,
      "chip": "ym2612"
    },
    {
      "channel": 4,
      "note": 54,
      "start": 67.5171,
      "duration": 0.1141,
      "velocity": 91,
      "chip": "ym2612"
    },
    {
      "channel": 5,
      "note": 93,
      "start": 67.5178,
      "duration": 0.1141,
      "velocity": 96,
      "chip": "ym2612"
    },
    {
      "channel": 2,
      "note": 37,
      "start": 67.5185,
      "duration": 0.1076,
      "velocity": 120,
      "chip": "ym2612"
    },
    {
      "channel": 0,
      "note": 78,
      "start": 67.6295,
      "duration": 0.1139,
      "velocity": 75,
      "chip": "ym2612"
    },
    {
      "channel": 1,
      "note": 81,
      "start": 67.6303,
      "duration": 0.1139,
      "velocity": 96,
      "chip": "ym2612"
    },
    {
      "channel": 3,
      "note": 68,
      "start": 67.631,
      "duration": 0.114,
      "velocity": 91,
      "chip": "ym2612"
    },
    {
      "channel": 4,
      "note": 52,
      "start": 67.6317,
      "duration": 0.1139,
      "velocity": 91,
      "chip": "ym2612"
    },
    {
      "channel": 5,
      "note": 90,
      "start": 67.6325,
      "duration": 0.1139,
      "velocity": 96,
      "chip": "ym2612"
    },
    {
      "channel": 2,
      "note": 41,
      "start": 67.6333,
      "duration": 0.1074,
      "velocity": 127,
      "chip": "ym2612"
    },
    {
      "channel": 0,
      "note": 76,
      "start": 67.7441,
      "duration": 0.1144,
      "velocity": 75,
      "chip": "ym2612"
    },
    {
      "channel": 1,
      "note": 78,
      "start": 67.7448,
      "duration": 0.1145,
      "velocity": 96,
      "chip": "ym2612"
    },
    {
      "channel": 3,
      "note": 66,
      "start": 67.7456,
      "duration": 0.1148,
      "velocity": 91,
      "chip": "ym2612"
    },
    {
      "channel": 4,
      "note": 52,
      "start": 67.7463,
      "duration": 0.115,
      "velocity": 91,
      "chip": "ym2612"
    },
    {
      "channel": 5,
      "note": 88,
      "start": 67.747,
      "duration": 0.115,
      "velocity": 96,
      "chip": "ym2612"
    },
    {
      "channel": 2,
      "note": 37,
      "start": 67.7478,
      "duration": 0.1079,
      "velocity": 120,
      "chip": "ym2612"
    },
    {
      "channel": 0,
      "note": 85,
      "start": 67.8592,
      "duration": 0.2283,
      "velocity": 75,
      "chip": "ym2612"
    },
    {
      "channel": 1,
      "note": 76,
      "start": 67.8599,
      "duration": 0.111,
      "velocity": 96,
      "chip": "ym2612"
    },
    {
      "channel": 3,
      "note": 74,
      "start": 67.861,
      "duration": 0.1107,
      "velocity": 91,
      "chip": "ym2612"
    },
    {
      "channel": 4,
      "note": 50,
      "start": 67.8618,
      "duration": 0.4569,
      "velocity": 91,
      "chip": "ym2612"
    },
    {
      "channel": 5,
      "note": 97,
      "start": 67.8627,
      "duration": 0.227,
      "velocity": 96,
      "chip": "ym2612"
    },
    {
      "channel": 2,
      "note": 37,
      "start": 67.8634,
      "duration": 0.1277,
      "velocity": 120,
      "chip": "ym2612"
    },
    {
      "channel": 1,
      "note": 85,
      "start": 67.9715,
      "duration": 0.2288,
      "velocity": 96,
      "chip": "ym2612"
    },
    {
      "channel": 3,
      "note": 69,
      "start": 67.9722,
      "duration": 0.1164,
      "velocity": 91,
      "chip": "ym2612"
    },
    {
      "channel": 0,
      "note": 74,
      "start": 68.0881,
      "duration": 0.1114,
      "velocity": 75,
      "chip": "ym2612"
    },
    {
      "channel": 3,
      "note": 62,
      "start": 68.0892,
      "duration": 0.1118,
      "velocity": 91,
      "chip": "ym2612"
    },
    {
      "channel": 5,
      "note": 86,
      "start": 68.0903,
      "duration": 0.1118,
      "velocity": 96,
      "chip": "ym2612"
    },
    {
      "channel": 2,
      "note": 41,
      "start": 68.0911,
      "duration": 0.2229,
      "velocity": 127,
      "chip": "ym2612"
    },
    {
      "channel": 0,
      "note": 85,
      "start": 68.2001,
      "duration": 0.2315,
      "velocity": 75,
      "chip": "ym2612"
    },
    {
      "channel": 1,
      "note": 74,
      "start": 68.2008,
      "duration": 0.1163,
      "velocity": 96,
      "chip": "ym2612"
    },
    {
      "channel": 3,
      "note": 74,
      "start": 68.2016,
      "duration": 0.1163,
      "velocity": 91,
      "chip": "ym2612"
    },
    {
      "channel": 5,
      "note": 97,
      "start": 68.2027,
      "duration": 0.2314,
      "velocity": 96,
      "chip": "ym2612"
    },
    {
      "channel": 1,
      "note": 85,
      "start": 68.3178,
      "duration": 0.2291,
      "velocity": 96,
      "chip": "ym2612"
    },
    {
      "channel": 3,
      "note": 69,
      "start": 68.3185,
      "duration": 0.1141,
      "velocity": 91,
      "chip": "ym2612"
    },
    {
      "channel": 4,
      "note": 50,
      "start": 68.3193,
      "duration": 0.1141,
      "velocity": 91,
      "chip": "ym2612"
    },
    {
      "channel": 2,
      "note": 37,
      "start": 68.3204,
      "duration": 0.1084,
      "velocity": 120,
      "chip": "ym2612"
    },
    {
      "channel": 0,
      "note": 74,
      "start": 68.4321,
      "duration": 0.114,
      "velocity": 75,
      "chip": "ym2612"
    },
    {
      "channel": 3,
      "note": 62,
      "start": 68.4332,
      "duration": 0.1144,
      "velocity": 91,
      "chip": "ym2612"
    },
    {
      "channel": 4,
      "note": 50,
      "start": 68.434,
      "duration": 0.2288,
      "velocity": 91,
      "chip": "ym2612"
    },
    {
      "channel": 5,
      "note": 86,
      "start": 68.4347,
      "duration": 0.114,
      "velocity": 96,
      "chip": "ym2612"
    },
    {
      "channel": 2,
      "note": 37,
      "start": 68.4354,
      "duration": 0.1079,
      "velocity": 120,
      "chip": "ym2612"
    },
    {
      "channel": 0,
      "note": 85,
      "start": 68.5468,
      "duration": 0.2261,
      "velocity": 75,
      "chip": "ym2612"
    },
    {
      "channel": 1,
      "note": 74,
      "start": 68.5475,
      "duration": 0.1137,
      "velocity": 96,
      "chip": "ym2612"
    },
    {
      "channel": 3,
      "note": 74,
      "start": 68.5483,
      "duration": 0.1137,
      "velocity": 91,
      "chip": "ym2612"
    },
    {
      "channel": 5,
      "note": 97,
      "start": 68.5494,
      "duration": 0.2257,
      "velocity": 96,
      "chip": "ym2612"
    },
    {
      "channel": 2,
      "note": 41,
      "start": 68.5502,
      "duration": 0.1078,
      "velocity": 127,
      "chip": "ym2612"
    },
    {
      "channel": 1,
      "note": 85,
      "start": 68.6618,
      "duration": 0.2293,
      "velocity": 96,
      "chip": "ym2612"
    },
    {
      "channel": 3,
      "note": 69,
      "start": 68.6625,
      "duration": 0.1115,
      "velocity": 91,
      "chip": "ym2612"
    },
    {
      "channel": 4,
      "note": 52,
      "start": 68.6633,
      "duration": 0.5705,
      "velocity": 91,
      "chip": "ym2612"
    },
    {
      "channel": 2,
      "note": 37,
      "start": 68.6644,
      "duration": 0.1295,
      "velocity": 120,
      "chip": "ym2612"
    },
    {
      "channel": 0,
      "note": 76,
      "start": 68.7735,
      "duration": 0.1168,
      "velocity": 75,
      "chip": "ym2612"
    },
    {
      "channel": 3,
      "note": 76,
      "start": 68.7746,
      "duration": 0.1173,
      "velocity": 91,
      "chip": "ym2612"
    },
    {
      "channel": 5,
      "note": 88,
      "start": 68.7757,
      "duration": 0.1173,
      "velocity": 96,
      "chip": "ym2612"
    },
    {
      "channel": 0,
      "note": 85,
      "start": 68.8909,
      "duration": 0.2286,
      "velocity": 75,
      "chip": "ym2612"
    },
    {
      "channel": 1,
      "note": 76,
      "start": 68.8917,
      "duration": 0.1136,
      "velocity": 96,
      "chip": "ym2612"
    },
    {
      "channel": 3,
      "note": 71,
      "start": 68.8924,
      "duration": 0.1136,
      "velocity": 91,
      "chip": "ym2612"
    },
    {
      "channel": 5,
      "note": 97,
      "start": 68.8936,
      "duration": 0.2281,
      "velocity": 96,
      "chip": "ym2612"
    },
    {
      "channel": 2,
      "note": 37,
      "start": 68.8944,
      "duration": 0.1076,
      "velocity": 120,
      "chip": "ym2612"
    },
    {
      "channel": 1,
      "note": 85,
      "start": 69.0059,
      "duration": 0.2265,
      "velocity": 96,
      "chip": "ym2612"
    },
    {
      "channel": 3,
      "note": 64,
      "start": 69.0066,
      "duration": 0.1141,
      "velocity": 91,
      "chip": "ym2612"
    },
    {
      "channel": 2,
      "note": 41,
      "start": 69.0082,
      "duration": 0.1085,
      "velocity": 127,
      "chip": "ym2612"
    },
    {
      "channel": 0,
      "note": 76,
      "start": 69.1201,
      "duration": 0.1115,
      "velocity": 75,
      "chip": "ym2612"
    },
    {
      "channel": 3,
      "note": 76,
      "start": 69.1212,
      "duration": 0.1119,
      "velocity": 91,
      "chip": "ym2612"
    },
    {
      "channel": 5,
      "note": 88,
      "start": 69.1223,
      "duration": 0.1124,
      "velocity": 96,
      "chip": "ym2612"
    },
    {
      "channel": 2,
      "note": 37,
      "start": 69.123,
      "duration": 0.1292,
      "velocity": 120,
      "chip": "ym2612"
    },
    {
      "channel": 0,
      "note": 85,
      "start": 69.2322,
      "duration": 0.2312,
      "velocity": 75,
      "chip": "ym2612"
    },
    {
      "channel": 1,
      "note": 76,
      "start": 69.233,
      "duration": 0.1163,
      "velocity": 96,
      "chip": "ym2612"
    },
    {
      "channel": 3,
      "note": 71,
      "start": 69.2337,
      "duration": 0.1164,
      "velocity": 91,
      "chip": "ym2612"
    },
    {
      "channel": 4,
      "note": 52,
      "start": 69.2344,
      "duration": 0.1163,
      "velocity": 91,
      "chip": "ym2612"
    },
    {
      "channel": 5,
      "note": 97,
      "start": 69.2353,
      "duration": 0.2303,
      "velocity": 96,
      "chip": "ym2612"
    },
    {
      "channel": 1,
      "note": 85,
      "start": 69.3499,
      "duration": 0.2291,
      "velocity": 96,
      "chip": "ym2612"
    },
    {
      "channel": 3,
      "note": 64,
      "start": 69.3507,
      "duration": 0.1139,
      "velocity": 91,
      "chip": "ym2612"
    },
    {
      "channel": 4,
      "note": 52,
      "start": 69.3513,
      "duration": 0.3441,
      "velocity": 91,
      "chip": "ym2612"
    },
    {
      "channel": 2,
      "note": 37,
      "start": 69.3524,
      "duration": 0.1082,
      "velocity": 120,
      "chip": "ym2612"
    },
    {
      "channel": 0,
      "note": 76,
      "start": 69.4641,
      "duration": 0.1142,
      "velocity": 75,
      "chip": "ym2612"
    },
    {
      "channel": 3,
      "note": 76,
      "start": 69.4651,
      "duration": 0.1146,
      "velocity": 91,
      "chip": "ym2612"
    },
    {
      "channel": 5,
      "note": 88,
      "start": 69.4662,
      "duration": 0.1147,
      "velocity": 96,
      "chip": "ym2612"
    },
    {
      "channel": 2,
      "note": 41,
      "start": 69.4671,
      "duration": 0.1083,
      "velocity": 127,
      "chip": "ym2612"
    },
    {
      "channel": 0,
      "note": 78,
      "start": 69.5788,
      "duration": 1.1461,
      "velocity": 75,
      "chip": "ym2612"
    },
    {
      "channel": 1,
      "note": 76,
      "start": 69.5796,
      "duration": 0.1141,
      "velocity": 96,
      "chip": "ym2612"
    },
    {
      "channel": 3,
      "note": 71,
      "start": 69.5804,
      "duration": 0.1142,
      "velocity": 91,
      "chip": "ym2612"
    },
    {
      "channel": 5,
      "note": 90,
      "start": 69.5815,
      "duration": 1.1456,
      "velocity": 96,
      "chip": "ym2612"
    },
    {
      "channel": 2,
      "note": 37,
      "start": 69.5823,
      "duration": 0.1081,
      "velocity": 120,
      "chip": "ym2612"
    },
    {
      "channel": 1,
      "note": 78,
      "start": 69.6943,
      "duration": 1.1459,
      "velocity": 96,
      "chip": "ym2612"
    },
    {
      "channel": 3,
      "note": 78,
      "start": 69.6952,
      "duration": 0.1103,
      "velocity": 91,
      "chip": "ym2612"
    },
    {
      "channel": 4,
      "note": 54,
      "start": 69.696,
      "duration": 0.4569,
      "velocity": 91,
      "chip": "ym2612"
    },
    {
      "channel": 2,
      "note": 37,
      "start": 69.6971,
      "duration": 0.1285,
      "velocity": 120,
      "chip": "ym2612"
    },
    {
      "channel": 3,
      "note": 73,
      "start": 69.8061,
      "duration": 0.1168,
      "velocity": 91,
      "chip": "ym2612"
    },
    {
      "channel": 3,
      "note": 66,
      "start": 69.9234,
      "duration": 0.1113,
      "velocity": 91,
      "chip": "ym2612"
    },
    {
      "channel": 2,
      "note": 41,
      "start": 69.9249,
      "duration": 0.2237,
      "velocity": 127,
      "chip": "ym2612"
    },
    {
      "channel": 3,
      "note": 78,
      "start": 70.0353,
      "duration": 0.1168,
      "velocity": 91,
      "chip": "ym2612"
    },
    {
      "channel": 3,
      "note": 73,
      "start": 70.1527,
      "duration": 0.114,
      "velocity": 91,
      "chip": "ym2612"
    },
    {
      "channel": 4,
      "note": 54,
      "start": 70.1534,
      "duration": 0.1141,
      "velocity": 91,
      "chip": "ym2612"
    },
    {
      "channel": 2,
      "note": 37,
      "start": 70.1545,
      "duration": 0.1088,
      "velocity": 120,
      "chip": "ym2612"
    },
    {
      "channel": 3,
      "note": 66,
      "start": 70.2674,
      "duration": 0.1141,
      "velocity": 91,
      "chip": "ym2612"
    },
    {
      "channel": 4,
      "note": 54,
      "start": 70.2681,
      "duration": 0.2288,
      "velocity": 91,
      "chip": "ym2612"
    },
    {
      "channel": 2,
      "note": 37,
      "start": 70.2692,
      "duration": 0.1088,
      "velocity": 120,
      "chip": "ym2612"
    },
    {
      "channel": 3,
      "note": 78,
      "start": 70.382,
      "duration": 0.1141,
      "velocity": 91,
      "chip": "ym2612"
    },
    {
      "channel": 2,
      "note": 41,
      "start": 70.3835,
      "duration": 0.1091,
      "velocity": 127,
      "chip": "ym2612"
    },
    {
      "channel": 3,
      "note": 73,
      "start": 70.4967,
      "duration": 0.1116,
      "velocity": 91,
      "chip": "ym2612"
    },
    {
      "channel": 4,
      "note": 54,
      "start": 70.4975,
      "duration": 0.5709,
      "velocity": 91,
      "chip": "ym2612"
    },
    {
      "channel": 2,
      "note": 37,
      "start": 70.4985,
      "duration": 0.1297,
      "velocity": 120,
      "chip": "ym2612"
    },
    {
      "channel": 3,
      "note": 78,
      "start": 70.6089,
      "duration": 0.1171,
      "velocity": 91,
      "chip": "ym2612"
    },
    {
      "channel": 0,
      "note": 78,
      "start": 70.7255,
      "duration": 0.1139,
      "velocity": 75,
      "chip": "ym2612"
    },
    {
      "channel": 3,
      "note": 73,
      "start": 70.7266,
      "duration": 0.1144,
      "velocity": 91,
      "chip": "ym2612"
    },
    {
      "channel": 5,
      "note": 90,
      "start": 70.7277,
      "duration": 0.1144,
      "velocity": 96,
      "chip": "ym2612"
    },
    {
      "channel": 2,
      "note": 37,
      "start": 70.7285,
      "duration": 0.1082,
      "velocity": 120,
      "chip": "ym2612"
    },
    {
      "channel": 0,
      "note": 80,
      "start": 70.84,
      "duration": 0.1144,
      "velocity": 75,
      "chip": "ym2612"
    },
    {
      "channel": 1,
      "note": 78,
      "start": 70.8409,
      "duration": 0.1144,
      "velocity": 96,
      "chip": "ym2612"
    },
    {
      "channel": 3,
      "note": 66,
      "start": 70.8415,
      "duration": 0.1144,
      "velocity": 91,
      "chip": "ym2612"
    },
    {
      "channel": 5,
      "note": 92,
      "start": 70.8427,
      "duration": 0.1144,
      "velocity": 96,
      "chip": "ym2612"
    },
    {
      "channel": 2,
      "note": 41,
      "start": 70.8435,
      "duration": 0.1082,
      "velocity": 127,
      "chip": "ym2612"
    },
    {
      "channel": 0,
      "note": 81,
      "start": 70.955,
      "duration": 0.1111,
      "velocity": 75,
      "chip": "ym2612"
    },
    {
      "channel": 1,
      "note": 80,
      "start": 70.9558,
      "duration": 0.1111,
      "velocity": 96,
      "chip": "ym2612"
    },
    {
      "channel": 3,
      "note": 78,
      "start": 70.9566,
      "duration": 0.1111,
      "velocity": 91,
      "chip": "ym2612"
    },
    {
      "channel": 5,
      "note": 93,
      "start": 70.9577,
      "duration": 0.1114,
      "velocity": 96,
      "chip": "ym2612"
    },
    {
      "channel": 2,
      "note": 37,
      "start": 70.9584,
      "duration": 0.1285,
      "velocity": 120,
      "chip": "ym2612"
    },
    {
      "channel": 0,
      "note": 83,
      "start": 71.0667,
      "duration": 0.1167,
      "velocity": 75,
      "chip": "ym2612"
    },
    {
      "channel": 1,
      "note": 81,
      "start": 71.0674,
      "duration": 0.1167,
      "velocity": 96,
      "chip": "ym2612"
    },
    {
      "channel": 3,
      "note": 73,
      "start": 71.0682,
      "duration": 0.1167,
      "velocity": 91,
      "chip": "ym2612"
    },
    {
      "channel": 4,
      "note": 54,
      "start": 71.0689,
      "duration": 0.1167,
      "velocity": 91,
      "chip": "ym2612"
    },
    {
      "channel": 5,
      "note": 95,
      "start": 71.0697,
      "duration": 0.1167,
      "velocity": 96,
      "chip": "ym2612"
    },
    {
      "channel": 0,
      "note": 85,
      "start": 71.184,
      "duration": 0.1141,
      "velocity": 75,
      "chip": "ym2612"
    },
    {
      "channel": 1,
      "note": 83,
      "start": 71.1847,
      "duration": 0.1141,
      "velocity": 96,
      "chip": "ym2612"
    },
    {
      "channel": 3,
      "note": 66,
      "start": 71.1855,
      "duration": 0.1141,
      "velocity": 91,
      "chip": "ym2612"
    },
    {
      "channel": 4,
      "note": 54,
      "start": 71.1862,
      "duration": 0.1142,
      "velocity": 91,
      "chip": "ym2612"
    },
    {
      "channel": 5,
      "note": 97,
      "start": 71.187,
      "duration": 0.1141,
      "velocity": 96,
      "chip": "ym2612"
    },
    {
      "channel": 2,
      "note": 37,
      "start": 71.1877,
      "duration": 0.1076,
      "velocity": 120,
      "chip": "ym2612"
    },
    {
      "channel": 0,
      "note": 86,
      "start": 71.2987,
      "duration": 0.1141,
      "velocity": 75,
      "chip": "ym2612"
    },
    {
      "channel": 1,
      "note": 85,
      "start": 71.2994,
      "duration": 0.1141,
      "velocity": 96,
      "chip": "ym2612"
    },
    {
      "channel": 3,
      "note": 76,
      "start": 71.3002,
      "duration": 0.1141,
      "velocity": 91,
      "chip": "ym2612"
    },
    {
      "channel": 4,
      "note": 52,
      "start": 71.301,
      "duration": 0.1141,
      "velocity": 91,
      "chip": "ym2612"
    },
    {
      "channel": 5,
      "note": 98,
      "start": 71.3017,
      "duration": 0.1141,
      "velocity": 96,
      "chip": "ym2612"
    },
    {
      "channel": 2,
      "note": 41,
      "start": 71.3025,
      "duration": 0.1075,
      "velocity": 127,
      "chip": "ym2612"
    },
    {
      "channel": 0,
      "note": 88,
      "start": 71.4134,
      "duration": 0.1144,
      "velocity": 75,
      "chip": "ym2612"
    },
    {
      "channel": 1,
      "note": 86,
      "start": 71.4142,
      "duration": 0.1144,
      "velocity": 96,
      "chip": "ym2612"
    },
    {
      "channel": 3,
      "note": 64,
      "start": 71.4149,
      "duration": 0.1146,
      "velocity": 91,
      "chip": "ym2612"
    },
    {
      "channel": 4,
      "note": 52,
      "start": 71.4157,
      "duration": 0.1148,
      "velocity": 91,
      "chip": "ym2612"
    },
    {
      "channel": 5,
      "note": 100,
      "start": 71.4164,
      "duration": 0.1148,
      "velocity": 96,
      "chip": "ym2612"
    },
    {
      "channel": 2,
      "note": 37,
      "start": 71.4171,
      "duration": 0.1078,
      "velocity": 120,
      "chip": "ym2612"
    },
    {
      "channel": 0,
      "note": 90,
      "start": 71.5284,
      "duration": 0.0728,
      "velocity": 75,
      "chip": "ym2612"
    },
    {
      "channel": 1,
      "note": 88,
      "start": 71.5291,
      "duration": 0.1106,
      "velocity": 96,
      "chip": "ym2612"
    },
    {
      "channel": 3,
      "note": 74,
      "start": 71.5301,
      "duration": 0.1104,
      "velocity": 91,
      "chip": "ym2612"
    },
    {
      "channel": 4,
      "note": 50,
      "start": 71.5311,
      "duration": 0.4569,
      "velocity": 91,
      "chip": "ym2612"
    },
    {
      "channel": 5,
      "note": 102,
      "start": 71.5318,
      "duration": 0.0712,
      "velocity": 96,
      "chip": "ym2612"
    },
    {
      "channel": 2,
      "note": 37,
      "start": 71.5325,
      "duration": 0.1277,
      "velocity": 120,
      "chip": "ym2612"
    },
    {
      "channel": 0,
      "note": 88,
      "start": 71.6019,
      "duration": 0.0757,
      "velocity": 75,
      "chip": "ym2612"
    },
    {
      "channel": 5,
      "note": 100,
      "start": 71.6036,
      "duration": 0.0757,
      "velocity": 96,
      "chip": "ym2612"
    },
    {
      "channel": 1,
      "note": 90,
      "start": 71.6404,
      "duration": 0.0757,
      "velocity": 96,
      "chip": "ym2612"
    },
    {
      "channel": 3,
      "note": 69,
      "start": 71.6411,
      "duration": 0.1168,
      "velocity": 91,
      "chip": "ym2612"
    },
    {
      "channel": 0,
      "note": 90,
      "start": 71.6782,
      "duration": 0.0786,
      "velocity": 75,
      "chip": "ym2612"
    },
    {
      "channel": 5,
      "note": 102,
      "start": 71.68,
      "duration": 0.079,
      "velocity": 96,
      "chip": "ym2612"
    },
    {
      "channel": 1,
      "note": 88,
      "start": 71.7167,
      "duration": 0.0758,
      "velocity": 96,
      "chip": "ym2612"
    },
    {
      "channel": 0,
      "note": 85,
      "start": 71.7575,
      "duration": 0.073,
      "velocity": 75,
      "chip": "ym2612"
    },
    {
      "channel": 3,
      "note": 62,
      "start": 71.7585,
      "duration": 0.1112,
      "velocity": 91,
      "chip": "ym2612"
    },
    {
      "channel": 5,
      "note": 97,
      "start": 71.7596,
      "duration": 0.0726,
      "velocity": 96,
      "chip": "ym2612"
    },
    {
      "channel": 2,
      "note": 41,
      "start": 71.7604,
      "duration": 0.2228,
      "velocity": 127,
      "chip": "ym2612"
    },
    {
      "channel": 1,
      "note": 90,
      "start": 71.7932,
      "duration": 0.0758,
      "velocity": 96,
      "chip": "ym2612"
    },
    {
      "channel": 0,
      "note": 88,
      "start": 71.831,
      "duration": 0.0759,
      "velocity": 75,
      "chip": "ym2612"
    },
    {
      "channel": 5,
      "note": 100,
      "start": 71.8328,
      "duration": 0.0758,
      "velocity": 96,
      "chip": "ym2612"
    },
    {
      "channel": 1,
      "note": 85,
      "start": 71.8696,
      "duration": 0.0762,
      "velocity": 96,
      "chip": "ym2612"
    },
    {
      "channel": 3,
      "note": 74,
      "start": 71.8704,
      "duration": 0.1168,
      "velocity": 91,
      "chip": "ym2612"
    },
    {
      "channel": 0,
      "note": 85,
      "start": 71.9075,
      "duration": 0.0785,
      "velocity": 75,
      "chip": "ym2612"
    },
    {
      "channel": 5,
      "note": 97,
      "start": 71.9093,
      "duration": 0.0793,
      "velocity": 96,
      "chip": "ym2612"
    },
    {
      "channel": 1,
      "note": 88,
      "start": 71.9464,
      "duration": 0.0755,
      "velocity": 96,
      "chip": "ym2612"
    },
    {
      "channel": 0,
      "note": 83,
      "start": 71.9866,
      "duration": 0.0732,
      "velocity": 75,
      "chip": "ym2612"
    },
    {
      "channel": 3,
      "note": 69,
      "start": 71.9877,
      "duration": 0.1142,
      "velocity": 91,
      "chip": "ym2612"
    },
    {
      "channel": 4,
      "note": 50,
      "start": 71.9885,
      "duration": 0.1141,
      "velocity": 91,
      "chip": "ym2612"
    },
    {
      "channel": 5,
      "note": 95,
      "start": 71.9893,
      "duration": 0.0723,
      "velocity": 96,
      "chip": "ym2612"
    },
    {
      "channel": 2,
      "note": 37,
      "start": 71.99,
      "duration": 0.108,
      "velocity": 120,
      "chip": "ym2612"
    },
    {
      "channel": 1,
      "note": 85,
      "start": 72.0225,
      "duration": 0.0786,
      "velocity": 96,
      "chip": "ym2612"
    },
    {
      "channel": 0,
      "note": 85,
      "start": 72.0605,
      "duration": 0.0758,
      "velocity": 75,
      "chip": "ym2612"
    },
    {
      "channel": 5,
      "note": 97,
      "start": 72.0622,
      "duration": 0.0758,
      "velocity": 96,
      "chip": "ym2612"
    },
    {
      "channel": 1,
      "note": 83,
      "start": 72.1017,
      "duration": 0.0731,
      "velocity": 96,
      "chip": "ym2612"
    },
    {
      "channel": 3,
      "note": 62,
      "start": 72.1025,
      "duration": 0.1141,
      "velocity": 91,
      "chip": "ym2612"
    },
    {
      "channel": 4,
      "note": 50,
      "start": 72.1032,
      "duration": 0.2288,
      "velocity": 91,
      "chip": "ym2612"
    },
    {
      "channel": 2,
      "note": 37,
      "start": 72.1043,
      "duration": 0.1083,
      "velocity": 120,
      "chip": "ym2612"
    },
    {
      "channel": 0,
      "note": 83,
      "start": 72.1368,
      "duration": 0.0786,
      "velocity": 75,
      "chip": "ym2612"
    },
    {
      "channel": 5,
      "note": 95,
      "start": 72.1386,
      "duration": 0.0791,
      "velocity": 96,
      "chip": "ym2612"
    },
    {
      "channel": 1,
      "note": 85,
      "start": 72.1754,
      "duration": 0.0758,
      "velocity": 96,
      "chip": "ym2612"
    },
    {
      "channel": 0,
      "note": 81,
      "start": 72.2161,
      "duration": 0.073,
      "velocity": 75,
      "chip": "ym2612"
    },
    {
      "channel": 3,
      "note": 74,
      "start": 72.2171,
      "duration": 0.1141,
      "velocity": 91,
      "chip": "ym2612"
    },
    {
      "channel": 5,
      "note": 93,
      "start": 72.2182,
      "duration": 0.0727,
      "velocity": 96,
      "chip": "ym2612"
    },
    {
      "channel": 2,
      "note": 41,
      "start": 72.219,
      "duration": 0.1083,
      "velocity": 127,
      "chip": "ym2612"
    },
    {
      "channel": 1,
      "note": 83,
      "start": 72.2518,
      "duration": 0.0787,
      "velocity": 96,
      "chip": "ym2612"
    },
    {
      "channel": 0,
      "note": 83,
      "start": 72.2897,
      "duration": 0.0758,
      "velocity": 75,
      "chip": "ym2612"
    },
    {
      "channel": 5,
      "note": 95,
      "start": 72.2915,
      "duration": 0.0758,
      "velocity": 96,
      "chip": "ym2612"
    },
    {
      "channel": 1,
      "note": 81,
      "start": 72.3311,
      "duration": 0.073,
      "velocity": 96,
      "chip": "ym2612"
    },
    {
      "channel": 3,
      "note": 69,
      "start": 72.3318,
      "duration": 0.1113,
      "velocity": 91,
      "chip": "ym2612"
    },
    {
      "channel": 4,
      "note": 52,
      "start": 72.3325,
      "duration": 0.57,
      "velocity": 91,
      "chip": "ym2612"
    },
    {
      "channel": 2,
      "note": 37,
      "start": 72.3336,
      "duration": 0.1293,
      "velocity": 120,
      "chip": "ym2612"
    },
    {
      "channel": 0,
      "note": 81,
      "start": 72.3661,
      "duration": 0.076,
      "velocity": 75,
      "chip": "ym2612"
    },
    {
      "channel": 5,
      "note": 93,
      "start": 72.3679,
      "duration": 0.0763,
      "velocity": 96,
      "chip": "ym2612"
    },
    {
      "channel": 1,
      "note": 83,
      "start": 72.4046,
      "duration": 0.0759,
      "velocity": 96,
      "chip": "ym2612"
    },
    {
      "channel": 0,
      "note": 78,
      "start": 72.4426,
      "duration": 0.0758,
      "velocity": 75,
      "chip": "ym2612"
    },
    {
      "channel": 3,
      "note": 76,
      "start": 72.4437,
      "duration": 0.1168,
      "velocity": 91,
      "chip": "ym2612"
    },
    {
      "channel": 5,
      "note": 90,
      "start": 72.4449,
      "duration": 0.0754,
      "velocity": 96,
      "chip": "ym2612"
    },
    {
      "channel": 1,
      "note": 81,
      "start": 72.4811,
      "duration": 0.0786,
      "velocity": 96,
      "chip": "ym2612"
    },
    {
      "channel": 0,
      "note": 81,
      "start": 72.519,
      "duration": 0.076,
      "velocity": 75,
      "chip": "ym2612"
    },
    {
      "channel": 5,
      "note": 93,
      "start": 72.5209,
      "duration": 0.0759,
      "velocity": 96,
      "chip": "ym2612"
    },
    {
      "channel": 1,
      "note": 78,
      "start": 72.5603,
      "duration": 0.073,
      "velocity": 96,
      "chip": "ym2612"
    },
    {
      "channel": 3,
      "note": 71,
      "start": 72.5611,
      "duration": 0.1141,
      "velocity": 91,
      "chip": "ym2612"
    },
    {
      "channel": 2,
      "note": 37,
      "start": 72.5625,
      "duration": 0.1088,
      "velocity": 120,
      "chip": "ym2612"
    },
    {
      "channel": 0,
      "note": 78,
      "start": 72.5956,
      "duration": 0.0786,
      "velocity": 75,
      "chip": "ym2612"
    },
    {
      "channel": 5,
      "note": 90,
      "start": 72.5973,
      "duration": 0.0789,
      "velocity": 96,
      "chip": "ym2612"
    },
    {
      "channel": 1,
      "note": 81,
      "start": 72.634,
      "duration": 0.0758,
      "velocity": 96,
      "chip": "ym2612"
    },
    {
      "channel": 0,
      "note": 76,
      "start": 72.6748,
      "duration": 0.073,
      "velocity": 75,
      "chip": "ym2612"
    },
    {
      "channel": 3,
      "note": 64,
      "start": 72.6758,
      "duration": 0.1141,
      "velocity": 91,
      "chip": "ym2612"
    },
    {
      "channel": 5,
      "note": 88,
      "start": 72.6769,
      "duration": 0.0726,
      "velocity": 96,
      "chip": "ym2612"
    },
    {
      "channel": 2,
      "note": 41,
      "start": 72.6777,
      "duration": 0.1083,
      "velocity": 127,
      "chip": "ym2612"
    },
    {
      "channel": 1,
      "note": 78,
      "start": 72.7104,
      "duration": 0.0788,
      "velocity": 96,
      "chip": "ym2612"
    },
    {
      "channel": 0,
      "note": 78,
      "start": 72.7483,
      "duration": 0.0759,
      "velocity": 75,
      "chip": "ym2612"
    },
    {
      "channel": 5,
      "note": 90,
      "start": 72.7501,
      "duration": 0.0758,
      "velocity": 96,
      "chip": "ym2612"
    },
    {
      "channel": 1,
      "note": 76,
      "start": 72.7897,
      "duration": 0.073,
      "velocity": 96,
      "chip": "ym2612"
    },
    {
      "channel": 3,
      "note": 76,
      "start": 72.7905,
      "duration": 0.1113,
      "velocity": 91,
      "chip": "ym2612"
    },
    {
      "channel": 2,
      "note": 37,
      "start": 72.7919,
      "duration": 0.1295,
      "velocity": 120,
      "chip": "ym2612"
    },
    {
      "channel": 0,
      "note": 76,
      "start": 72.8248,
      "duration": 0.0759,
      "velocity": 75,
      "chip": "ym2612"
    },
    {
      "channel": 5,
      "note": 88,
      "start": 72.8265,
      "duration": 0.0768,
      "velocity": 96,
      "chip": "ym2612"
    },
    {
      "channel": 1,
      "note": 78,
      "start": 72.8633,
      "duration": 0.0763,
      "velocity": 96,
      "chip": "ym2612"
    },
    {
      "channel": 0,
      "note": 73,
      "start": 72.9013,
      "duration": 0.0758,
      "velocity": 75,
      "chip": "ym2612"
    },
    {
      "channel": 3,
      "note": 71,
      "start": 72.9024,
      "duration": 0.1167,
      "velocity": 91,
      "chip": "ym2612"
    },
    {
      "channel": 4,
      "note": 52,
      "start": 72.9031,
      "duration": 0.1167,
      "velocity": 91,
      "chip": "ym2612"
    },
    {
      "channel": 5,
      "note": 85,
      "start": 72.9039,
      "duration": 0.075,
      "velocity": 96,
      "chip": "ym2612"
    },
    {
      "channel": 1,
      "note": 76,
      "start": 72.9402,
      "duration": 0.0782,
      "velocity": 96,
      "chip": "ym2612"
    },
    {
      "channel": 0,
      "note": 76,
      "start": 72.9777,
      "duration": 0.0759,
      "velocity": 75,
      "chip": "ym2612"
    },
    {
      "channel": 5,
      "note": 88,
      "start": 72.9795,
      "duration": 0.0758,
      "velocity": 96,
      "chip": "ym2612"
    },
    {
      "channel": 1,
      "note": 73,
      "start": 73.019,
      "duration": 0.0731,
      "velocity": 96,
      "chip": "ym2612"
    },
    {
      "channel": 3,
      "note": 64,
      "start": 73.0197,
      "duration": 0.114,
      "velocity": 91,
      "chip": "ym2612"
    },
    {
      "channel": 4,
      "note": 52,
      "start": 73.0204,
      "duration": 0.3441,
      "velocity": 91,
      "chip": "ym2612"
    },
    {
      "channel": 2,
      "note": 37,
      "start": 73.0215,
      "duration": 0.1083,
      "velocity": 120,
      "chip": "ym2612"
    },
    {
      "channel": 0,
      "note": 73,
      "start": 73.0541,
      "duration": 0.0785,
      "velocity": 75,
      "chip": "ym2612"
    },
    {
      "channel": 5,
      "note": 85,
      "start": 73.0559,
      "duration": 0.0789,
      "velocity": 96,
      "chip": "ym2612"
    },
    {
      "channel": 1,
      "note": 76,
      "start": 73.0927,
      "duration": 0.0758,
      "velocity": 96,
      "chip": "ym2612"
    },
    {
      "channel": 0,
      "note": 71,
      "start": 73.1333,
      "duration": 0.0731,
      "velocity": 75,
      "chip": "ym2612"
    },
    {
      "channel": 3,
      "note": 76,
      "start": 73.1344,
      "duration": 0.1141,
      "velocity": 91,
      "chip": "ym2612"
    },
    {
      "channel": 5,
      "note": 83,
      "start": 73.1354,
      "duration": 0.0728,
      "velocity": 96,
      "chip": "ym2612"
    },
    {
      "channel": 2,
      "note": 41,
      "start": 73.1362,
      "duration": 0.1084,
      "velocity": 127,
      "chip": "ym2612"
    },
    {
      "channel": 1,
      "note": 73,
      "start": 73.1691,
      "duration": 0.0786,
      "velocity": 96,
      "chip": "ym2612"
    },
    {
      "channel": 0,
      "note": 69,
      "start": 73.2071,
      "duration": 0.0758,
      "velocity": 75,
      "chip": "ym2612"
    },
    {
      "channel": 5,
      "note": 81,
      "start": 73.2089,
      "duration": 0.0758,
      "velocity": 96,
      "chip": "ym2612"
    },
    {
      "channel": 1,
      "note": 71,
      "start": 73.2484,
      "duration": 0.0731,
      "velocity": 96,
      "chip": "ym2612"
    },
    {
      "channel": 3,
      "note": 71,
      "start": 73.2491,
      "duration": 0.1145,
      "velocity": 91,
      "chip": "ym2612"
    },
    {
      "channel": 2,
      "note": 37,
      "start": 73.2505,
      "duration": 0.109,
      "velocity": 120,
      "chip": "ym2612"
    },
    {
      "channel": 0,
      "note": 66,
      "start": 73.2835,
      "duration": 0.079,
      "velocity": 75,
      "chip": "ym2612"
    },
    {
      "channel": 5,
      "note": 78,
      "start": 73.2852,
      "duration": 0.08,
      "velocity": 96,
      "chip": "ym2612"
    },
    {
      "channel": 1,
      "note": 69,
      "start": 73.322,
      "duration": 0.0758,
      "velocity": 96,
      "chip": "ym2612"
    },
    {
      "channel": 0,
      "note": 66,
      "start": 73.363,
      "duration": 1.031,
      "velocity": 75,
      "chip": "ym2612"
    },
    {
      "channel": 3,
      "note": 78,
      "start": 73.3643,
      "duration": 0.1107,
      "velocity": 91,
      "chip": "ym2612"
    },
    {
      "channel": 4,
      "note": 54,
      "start": 73.3651,
      "duration": 0.4571,
      "velocity": 91,
      "chip": "ym2612"
    },
    {
      "channel": 5,
      "note": 78,
      "start": 73.3659,
      "duration": 1.0303,
      "velocity": 96,
      "chip": "ym2612"
    },
    {
      "channel": 2,
      "note": 37,
      "start": 73.3666,
      "duration": 0.1283,
      "velocity": 120,
      "chip": "ym2612"
    },
    {
      "channel": 1,
      "note": 66,
      "start": 73.3985,
      "duration": 0.0758,
      "velocity": 96,
      "chip": "ym2612"
    },
    {
      "channel": 1,
      "note": 66,
      "start": 73.4748,
      "duration": 1.0346,
      "velocity": 96,
      "chip": "ym2612"
    },
    {
      "channel": 3,
      "note": 73,
      "start": 73.4756,
      "duration": 0.1166,
      "velocity": 91,
      "chip": "ym2612"
    },
    {
      "channel": 3,
      "note": 66,
      "start": 73.5927,
      "duration": 0.1113,
      "velocity": 91,
      "chip": "ym2612"
    },
    {
      "channel": 2,
      "note": 41,
      "start": 73.5942,
      "duration": 0.2237,
      "velocity": 127,
      "chip": "ym2612"
    },
    {
      "channel": 3,
      "note": 78,
      "start": 73.7045,
      "duration": 0.1168,
      "velocity": 91,
      "chip": "ym2612"
    },
    {
      "channel": 3,
      "note": 73,
      "start": 73.822,
      "duration": 0.1145,
      "velocity": 91,
      "chip": "ym2612"
    },
    {
      "channel": 4,
      "note": 54,
      "start": 73.8227,
      "duration": 0.1144,
      "velocity": 91,
      "chip": "ym2612"
    },
    {
      "channel": 2,
      "note": 37,
      "start": 73.8238,
      "duration": 0.1092,
      "velocity": 120,
      "chip": "ym2612"
    },
    {
      "channel": 3,
      "note": 66,
      "start": 73.937,
      "duration": 0.1136,
      "velocity": 91,
      "chip": "ym2612"
    },
    {
      "channel": 4,
      "note": 54,
      "start": 73.9377,
      "duration": 0.2284,
      "velocity": 91,
      "chip": "ym2612"
    },
    {
      "channel": 2,
      "note": 37,
      "start": 73.9388,
      "duration": 0.1083,
      "velocity": 120,
      "chip": "ym2612"
    },
    {
      "channel": 3,
      "note": 78,
      "start": 74.0512,
      "duration": 0.1142,
      "velocity": 91,
      "chip": "ym2612"
    },
    {
      "channel": 2,
      "note": 41,
      "start": 74.0527,
      "duration": 0.1092,
      "velocity": 127,
      "chip": "ym2612"
    },
    {
      "channel": 3,
      "note": 73,
      "start": 74.166,
      "duration": 0.1115,
      "velocity": 91,
      "chip": "ym2612"
    },
    {
      "channel": 4,
      "note": 54,
      "start": 74.1667,
      "duration": 0.5708,
      "velocity": 91,
      "chip": "ym2612"
    },
    {
      "channel": 2,
      "note": 37,
      "start": 74.1678,
      "duration": 0.1297,
      "velocity": 120,
      "chip": "ym2612"
    },
    {
      "channel": 3,
      "note": 78,
      "start": 74.278,
      "duration": 0.1171,
      "velocity": 91,
      "chip": "ym2612"
    },
    {
      "channel": 0,
      "note": 68,
      "start": 74.3946,
      "duration": 0.1141,
      "velocity": 75,
      "chip": "ym2612"
    },
    {
      "channel": 3,
      "note": 73,
      "start": 74.3957,
      "duration": 0.1145,
      "velocity": 91,
      "chip": "ym2612"
    },
    {
      "channel": 5,
      "note": 80,
      "start": 74.3968,
      "duration": 0.1145,
      "velocity": 96,
      "chip": "ym2612"
    },
    {
      "channel": 2,
      "note": 37,
      "start": 74.3975,
      "duration": 0.1083,
      "velocity": 120,
      "chip": "ym2612"
    },
    {
      "channel": 0,
      "note": 64,
      "start": 74.5093,
      "duration": 0.114,
      "velocity": 75,
      "chip": "ym2612"
    },
    {
      "channel": 1,
      "note": 68,
      "start": 74.51,
      "duration": 0.1141,
      "velocity": 96,
      "chip": "ym2612"
    },
    {
      "channel": 3,
      "note": 71,
      "start": 74.5108,
      "duration": 0.1141,
      "velocity": 91,
      "chip": "ym2612"
    },
    {
      "channel": 5,
      "note": 76,
      "start": 74.5118,
      "duration": 0.1141,
      "velocity": 96,
      "chip": "ym2612"
    },
    {
      "channel": 2,
      "note": 41,
      "start": 74.5126,
      "duration": 0.1079,
      "velocity": 127,
      "chip": "ym2612"
    },
    {
      "channel": 0,
      "note": 66,
      "start": 74.6239,
      "duration": 0.1115,
      "velocity": 75,
      "chip": "ym2612"
    },
    {
      "channel": 1,
      "note": 64,
      "start": 74.6247,
      "duration": 0.1114,
      "velocity": 96,
      "chip": "ym2612"
    },
    {
      "channel": 3,
      "note": 73,
      "start": 74.6255,
      "duration": 0.1114,
      "velocity": 91,
      "chip": "ym2612"
    },
    {
      "channel": 5,
      "note": 78,
      "start": 74.6265,
      "duration": 0.1118,
      "velocity": 96,
      "chip": "ym2612"
    },
    {
      "channel": 2,
      "note": 37,
      "start": 74.6272,
      "duration": 0.1291,
      "velocity": 120,
      "chip": "ym2612"
    },
    {
      "channel": 0,
      "note": 61,
      "start": 74.736,
      "duration": 0.1167,
      "velocity": 75,
      "chip": "ym2612"
    },
    {
      "channel": 1,
      "note": 66,
      "start": 74.7366,
      "duration": 0.1167,
      "velocity": 96,
      "chip": "ym2612"
    },
    {
      "channel": 3,
      "note": 71,
      "start": 74.7374,
      "duration": 0.1167,
      "velocity": 91,
      "chip": "ym2612"
    },
    {
      "channel": 4,
      "note": 54,
      "start": 74.7381,
      "duration": 0.1167,
      "velocity": 91,
      "chip": "ym2612"
    },
    {
      "channel": 5,
      "note": 73,
      "start": 74.7389,
      "duration": 0.1167,
      "velocity": 96,
      "chip": "ym2612"
    },
    {
      "channel": 0,
      "note": 66,
      "start": 74.8533,
      "duration": 0.1141,
      "velocity": 75,
      "chip": "ym2612"
    },
    {
      "channel": 1,
      "note": 61,
      "start": 74.854,
      "duration": 0.1142,
      "velocity": 96,
      "chip": "ym2612"
    },
    {
      "channel": 3,
      "note": 69,
      "start": 74.8547,
      "duration": 0.1142,
      "velocity": 91,
      "chip": "ym2612"
    },
    {
      "channel": 4,
      "note": 54,
      "start": 74.8554,
      "duration": 0.1142,
      "velocity": 91,
      "chip": "ym2612"
    },
    {
      "channel": 5,
      "note": 78,
      "start": 74.8562,
      "duration": 0.1142,
      "velocity": 96,
      "chip": "ym2612"
    },
    {
      "channel": 2,
      "note": 37,
      "start": 74.8569,
      "duration": 0.1076,
      "velocity": 120,
      "chip": "ym2612"
    },
    {
      "channel": 0,
      "note": 69,
      "start": 74.968,
      "duration": 0.114,
      "velocity": 75,
      "chip": "ym2612"
    },
    {
      "channel": 1,
      "note": 66,
      "start": 74.9687,
      "duration": 0.114,
      "velocity": 96,
      "chip": "ym2612"
    },
    {
      "channel": 3,
      "note": 68,
      "start": 74.9695,
      "duration": 0.114,
      "velocity": 91,
      "chip": "ym2612"
    },
    {
      "channel": 4,
      "note": 52,
      "start": 74.9702,
      "duration": 0.114,
      "velocity": 91,
      "chip": "ym2612"
    },
    {
      "channel": 5,
      "note": 81,
      "start": 74.971,
      "duration": 0.114,
      "velocity": 96,
      "chip": "ym2612"
    },
    {
      "channel": 2,
      "note": 41,
      "start": 74.9718,
      "duration": 0.1074,
      "velocity": 127,
      "chip": "ym2612"
    },
    {
      "channel": 0,
      "note": 64,
      "start": 75.0826,
      "duration": 0.1146,
      "velocity": 75,
      "chip": "ym2612"
    },
    {
      "channel": 1,
      "note": 69,
      "start": 75.0833,
      "duration": 0.118,
      "velocity": 96,
      "chip": "ym2612"
    },
    {
      "channel": 3,
      "note": 66,
      "start": 75.084,
      "duration": 0.118,
      "velocity": 91,
      "chip": "ym2612"
    },
    {
      "channel": 4,
      "note": 52,
      "start": 75.0847,
      "duration": 0.1183,
      "velocity": 91,
      "chip": "ym2612"
    },
    {
      "channel": 5,
      "note": 76,
      "start": 75.0855,
      "duration": 0.1184,
      "velocity": 96,
      "chip": "ym2612"
    },
    {
      "channel": 2,
      "note": 37,
      "start": 75.0862,
      "duration": 0.1079,
      "velocity": 120,
      "chip": "ym2612"
    },
    {
      "channel": 0,
      "note": 69,
      "start": 75.1977,
      "duration": 0.4547,
      "velocity": 75,
      "chip": "ym2612"
    },
    {
      "channel": 3,
      "note": 74,
      "start": 75.2026,
      "duration": 0.1063,
      "velocity": 91,
      "chip": "ym2612"
    },
    {
      "channel": 4,
      "note": 50,
      "start": 75.2036,
      "duration": 0.4489,
      "velocity": 91,
      "chip": "ym2612"
    },
    {
      "channel": 5,
      "note": 81,
      "start": 75.2045,
      "duration": 0.4479,
      "velocity": 96,
      "chip": "ym2612"
    },
    {
      "channel": 2,
      "note": 37,
      "start": 75.2052,
      "duration": 0.1239,
      "velocity": 120,
      "chip": "ym2612"
    },
    {
      "channel": 3,
      "note": 69,
      "start": 75.3095,
      "duration": 0.1172,
      "velocity": 91,
      "chip": "ym2612"
    },
    {
      "channel": 1,
      "note": 81,
      "start": 75.3478,
      "duration": 0.3046,
      "velocity": 96,
      "chip": "ym2612"
    },
    {
      "channel": 3,
      "note": 62,
      "start": 75.4273,
      "duration": 0.1113,
      "velocity": 91,
      "chip": "ym2612"
    },
    {
      "channel": 2,
      "note": 41,
      "start": 75.4288,
      "duration": 0.2237,
      "velocity": 127,
      "chip": "ym2612"
    },
    {
      "channel": 3,
      "note": 74,
      "start": 75.5391,
      "duration": 0.1133,
      "velocity": 91,
      "chip": "ym2612"
    }
  ]
}