{
  "track_name": "02 - Cyril's Council",
  "duration_sec": 48.875,
  "sample_rate": 44100,
  "note_count": 413,
  "unique_pitches": 40,
  "pitch_range": 70,
  "avg_note_duration": 0.3002,
  "reconstruction_stats": {
    "notes_reconstructed": 413,
    "keyon_events": 413,
    "keyoff_events": 412,
    "orphan_keyons": 1,
    "unique_pitches": 40,
    "pitch_range": 70,
    "avg_duration_sec": 0.3002
  },
  "metadata": {
    "source": "D\\Dune - The Battle for Arrakis\\02 - Cyril's Council.vgz"
  },
  "notes": [
    {
      "channel": 0,
      "note": 47,
      "start": 0.0071,
      "duration": 0.5687,
      "velocity": 99,
      "chip": "ym2612"
    },
    {
      "channel": 0,
      "note": 47,
      "start": 0.6008,
      "duration": 0.2304,
      "velocity": 99,
      "chip": "ym2612"
    },
    {
      "channel": 0,
      "note": 47,
      "start": 0.8344,
      "duration": 0.6135,
      "velocity": 99,
      "chip": "ym2612"
    },
    {
      "channel": 0,
      "note": 47,
      "start": 1.451,
      "duration": 0.2133,
      "velocity": 99,
      "chip": "ym2612"
    },
    {
      "channel": 0,
      "note": 47,
      "start": 1.6675,
      "duration": 0.6138,
      "velocity": 99,
      "chip": "ym2612"
    },
    {
      "channel": 0,
      "note": 47,
      "start": 2.2844,
      "duration": 0.2299,
      "velocity": 99,
      "chip": "ym2612"
    },
    {
      "channel": 0,
      "note": 47,
      "start": 2.5179,
      "duration": 0.5969,
      "velocity": 99,
      "chip": "ym2612"
    },
    {
      "channel": 0,
      "note": 47,
      "start": 3.118,
      "duration": 0.2301,
      "velocity": 99,
      "chip": "ym2612"
    },
    {
      "channel": 0,
      "note": 47,
      "start": 3.3528,
      "duration": 0.5955,
      "velocity": 99,
      "chip": "ym2612"
    },
    {
      "channel": 1,
      "note": 35,
      "start": 3.3624,
      "duration": 6.6878,
      "velocity": 77,
      "chip": "ym2612"
    },
    {
      "channel": 3,
      "note": 103,
      "start": 3.7695,
      "duration": 0.0623,
      "velocity": 97,
      "chip": "ym2612"
    },
    {
      "channel": 4,
      "note": 103,
      "start": 3.8354,
      "duration": 0.063,
      "velocity": 97,
      "chip": "ym2612"
    },
    {
      "channel": 0,
      "note": 47,
      "start": 3.9515,
      "duration": 0.2308,
      "velocity": 99,
      "chip": "ym2612"
    },
    {
      "channel": 0,
      "note": 47,
      "start": 4.1855,
      "duration": 0.6137,
      "velocity": 99,
      "chip": "ym2612"
    },
    {
      "channel": 3,
      "note": 102,
      "start": 4.188,
      "duration": 0.0253,
      "velocity": 97,
      "chip": "ym2612"
    },
    {
      "channel": 4,
      "note": 102,
      "start": 4.2166,
      "duration": 0.0223,
      "velocity": 97,
      "chip": "ym2612"
    },
    {
      "channel": 3,
      "note": 98,
      "start": 4.6025,
      "duration": 0.0636,
      "velocity": 97,
      "chip": "ym2612"
    },
    {
      "channel": 4,
      "note": 98,
      "start": 4.6691,
      "duration": 0.0637,
      "velocity": 97,
      "chip": "ym2612"
    },
    {
      "channel": 0,
      "note": 47,
      "start": 4.8025,
      "duration": 0.2134,
      "velocity": 99,
      "chip": "ym2612"
    },
    {
      "channel": 0,
      "note": 47,
      "start": 5.0194,
      "duration": 0.614,
      "velocity": 99,
      "chip": "ym2612"
    },
    {
      "channel": 3,
      "note": 98,
      "start": 5.4366,
      "duration": 0.0636,
      "velocity": 97,
      "chip": "ym2612"
    },
    {
      "channel": 4,
      "note": 98,
      "start": 5.5032,
      "duration": 0.0637,
      "velocity": 97,
      "chip": "ym2612"
    },
    {
      "channel": 0,
      "note": 47,
      "start": 5.6366,
      "duration": 0.2301,
      "velocity": 99,
      "chip": "ym2612"
    },
    {
      "channel": 0,
      "note": 47,
      "start": 5.8699,
      "duration": 0.596,
      "velocity": 99,
      "chip": "ym2612"
    },
    {
      "channel": 3,
      "note": 97,
      "start": 5.8724,
      "duration": 0.0188,
      "velocity": 97,
      "chip": "ym2612"
    },
    {
      "channel": 4,
      "note": 97,
      "start": 5.8935,
      "duration": 0.0228,
      "velocity": 97,
      "chip": "ym2612"
    },
    {
      "channel": 3,
      "note": 100,
      "start": 6.2859,
      "duration": 0.0469,
      "velocity": 97,
      "chip": "ym2612"
    },
    {
      "channel": 4,
      "note": 100,
      "start": 6.3358,
      "duration": 0.0637,
      "velocity": 97,
      "chip": "ym2612"
    },
    {
      "channel": 0,
      "note": 47,
      "start": 6.4691,
      "duration": 0.23,
      "velocity": 99,
      "chip": "ym2612"
    },
    {
      "channel": 0,
      "note": 47,
      "start": 6.7024,
      "duration": 0.5966,
      "velocity": 99,
      "chip": "ym2612"
    },
    {
      "channel": 3,
      "note": 103,
      "start": 7.1188,
      "duration": 0.0636,
      "velocity": 97,
      "chip": "ym2612"
    },
    {
      "channel": 4,
      "note": 103,
      "start": 7.1857,
      "duration": 0.0467,
      "velocity": 97,
      "chip": "ym2612"
    },
    {
      "channel": 0,
      "note": 47,
      "start": 7.3025,
      "duration": 0.2302,
      "velocity": 99,
      "chip": "ym2612"
    },
    {
      "channel": 0,
      "note": 47,
      "start": 7.5359,
      "duration": 0.5974,
      "velocity": 99,
      "chip": "ym2612"
    },
    {
      "channel": 3,
      "note": 102,
      "start": 7.5384,
      "duration": 0.0254,
      "velocity": 97,
      "chip": "ym2612"
    },
    {
      "channel": 4,
      "note": 102,
      "start": 7.5669,
      "duration": 0.0226,
      "velocity": 97,
      "chip": "ym2612"
    },
    {
      "channel": 3,
      "note": 98,
      "start": 7.9532,
      "duration": 0.0636,
      "velocity": 97,
      "chip": "ym2612"
    },
    {
      "channel": 4,
      "note": 98,
      "start": 8.0198,
      "duration": 0.0637,
      "velocity": 97,
      "chip": "ym2612"
    },
    {
      "channel": 0,
      "note": 47,
      "start": 8.1366,
      "duration": 0.2302,
      "velocity": 99,
      "chip": "ym2612"
    },
    {
      "channel": 0,
      "note": 47,
      "start": 8.37,
      "duration": 0.6139,
      "velocity": 99,
      "chip": "ym2612"
    },
    {
      "channel": 3,
      "note": 98,
      "start": 8.7874,
      "duration": 0.0632,
      "velocity": 97,
      "chip": "ym2612"
    },
    {
      "channel": 4,
      "note": 98,
      "start": 8.8536,
      "duration": 0.0637,
      "velocity": 97,
      "chip": "ym2612"
    },
    {
      "channel": 0,
      "note": 47,
      "start": 8.9871,
      "duration": 0.23,
      "velocity": 99,
      "chip": "ym2612"
    },
    {
      "channel": 0,
      "note": 47,
      "start": 9.2207,
      "duration": 0.5957,
      "velocity": 99,
      "chip": "ym2612"
    },
    {
      "channel": 3,
      "note": 97,
      "start": 9.2232,
      "duration": 0.0183,
      "velocity": 97,
      "chip": "ym2612"
    },
    {
      "channel": 4,
      "note": 97,
      "start": 9.2439,
      "duration": 0.0229,
      "velocity": 97,
      "chip": "ym2612"
    },
    {
      "channel": 3,
      "note": 100,
      "start": 9.6364,
      "duration": 0.0469,
      "velocity": 97,
      "chip": "ym2612"
    },
    {
      "channel": 4,
      "note": 100,
      "start": 9.6862,
      "duration": 0.0636,
      "velocity": 97,
      "chip": "ym2612"
    },
    {
      "channel": 0,
      "note": 47,
      "start": 9.8196,
      "duration": 0.2304,
      "velocity": 99,
      "chip": "ym2612"
    },
    {
      "channel": 0,
      "note": 45,
      "start": 10.0533,
      "duration": 0.5968,
      "velocity": 99,
      "chip": "ym2612"
    },
    {
      "channel": 1,
      "note": 33,
      "start": 10.0598,
      "duration": 3.3427,
      "velocity": 77,
      "chip": "ym2612"
    },
    {
      "channel": 3,
      "note": 103,
      "start": 10.47,
      "duration": 0.0635,
      "velocity": 97,
      "chip": "ym2612"
    },
    {
      "channel": 4,
      "note": 103,
      "start": 10.5365,
      "duration": 0.047,
      "velocity": 97,
      "chip": "ym2612"
    },
    {
      "channel": 0,
      "note": 45,
      "start": 10.6533,
      "duration": 0.2301,
      "velocity": 99,
      "chip": "ym2612"
    },
    {
      "channel": 0,
      "note": 45,
      "start": 10.8865,
      "duration": 0.5973,
      "velocity": 99,
      "chip": "ym2612"
    },
    {
      "channel": 3,
      "note": 102,
      "start": 10.8891,
      "duration": 0.0253,
      "velocity": 97,
      "chip": "ym2612"
    },
    {
      "channel": 4,
      "note": 102,
      "start": 10.9174,
      "duration": 0.0226,
      "velocity": 97,
      "chip": "ym2612"
    },
    {
      "channel": 3,
      "note": 98,
      "start": 11.3037,
      "duration": 0.0636,
      "velocity": 97,
      "chip": "ym2612"
    },
    {
      "channel": 4,
      "note": 98,
      "start": 11.3703,
      "duration": 0.0637,
      "velocity": 97,
      "chip": "ym2612"
    },
    {
      "channel": 0,
      "note": 45,
      "start": 11.4871,
      "duration": 0.2302,
      "velocity": 99,
      "chip": "ym2612"
    },
    {
      "channel": 0,
      "note": 45,
      "start": 11.7208,
      "duration": 0.6141,
      "velocity": 99,
      "chip": "ym2612"
    },
    {
      "channel": 3,
      "note": 98,
      "start": 12.138,
      "duration": 0.0636,
      "velocity": 97,
      "chip": "ym2612"
    },
    {
      "channel": 4,
      "note": 98,
      "start": 12.205,
      "duration": 0.0633,
      "velocity": 97,
      "chip": "ym2612"
    },
    {
      "channel": 0,
      "note": 45,
      "start": 12.3381,
      "duration": 0.2132,
      "velocity": 99,
      "chip": "ym2612"
    },
    {
      "channel": 0,
      "note": 45,
      "start": 12.5545,
      "duration": 0.6143,
      "velocity": 99,
      "chip": "ym2612"
    },
    {
      "channel": 3,
      "note": 97,
      "start": 12.557,
      "duration": 0.0256,
      "velocity": 97,
      "chip": "ym2612"
    },
    {
      "channel": 4,
      "note": 97,
      "start": 12.5856,
      "duration": 0.0227,
      "velocity": 97,
      "chip": "ym2612"
    },
    {
      "channel": 3,
      "note": 100,
      "start": 12.9888,
      "duration": 0.0469,
      "velocity": 97,
      "chip": "ym2612"
    },
    {
      "channel": 4,
      "note": 100,
      "start": 13.0386,
      "duration": 0.0636,
      "velocity": 97,
      "chip": "ym2612"
    },
    {
      "channel": 0,
      "note": 45,
      "start": 13.172,
      "duration": 0.2304,
      "velocity": 99,
      "chip": "ym2612"
    },
    {
      "channel": 0,
      "note": 54,
      "start": 13.4056,
      "duration": 0.5968,
      "velocity": 99,
      "chip": "ym2612"
    },
    {
      "channel": 1,
      "note": 42,
      "start": 13.4117,
      "duration": 3.3424,
      "velocity": 77,
      "chip": "ym2612"
    },
    {
      "channel": 3,
      "note": 103,
      "start": 13.8227,
      "duration": 0.0632,
      "velocity": 97,
      "chip": "ym2612"
    },
    {
      "channel": 4,
      "note": 103,
      "start": 13.8889,
      "duration": 0.0471,
      "velocity": 97,
      "chip": "ym2612"
    },
    {
      "channel": 0,
      "note": 54,
      "start": 14.006,
      "duration": 0.2305,
      "velocity": 99,
      "chip": "ym2612"
    },
    {
      "channel": 0,
      "note": 54,
      "start": 14.2397,
      "duration": 0.5975,
      "velocity": 99,
      "chip": "ym2612"
    },
    {
      "channel": 3,
      "note": 102,
      "start": 14.2422,
      "duration": 0.0255,
      "velocity": 97,
      "chip": "ym2612"
    },
    {
      "channel": 4,
      "note": 102,
      "start": 14.2708,
      "duration": 0.0163,
      "velocity": 97,
      "chip": "ym2612"
    },
    {
      "channel": 3,
      "note": 98,
      "start": 14.6571,
      "duration": 0.0636,
      "velocity": 97,
      "chip": "ym2612"
    },
    {
      "channel": 4,
      "note": 98,
      "start": 14.7237,
      "duration": 0.0637,
      "velocity": 97,
      "chip": "ym2612"
    },
    {
      "channel": 0,
      "note": 54,
      "start": 14.8404,
      "duration": 0.2303,
      "velocity": 99,
      "chip": "ym2612"
    },
    {
      "channel": 0,
      "note": 54,
      "start": 15.074,
      "duration": 0.6139,
      "velocity": 99,
      "chip": "ym2612"
    },
    {
      "channel": 3,
      "note": 98,
      "start": 15.491,
      "duration": 0.0635,
      "velocity": 97,
      "chip": "ym2612"
    },
    {
      "channel": 4,
      "note": 98,
      "start": 15.5575,
      "duration": 0.0637,
      "velocity": 97,
      "chip": "ym2612"
    },
    {
      "channel": 0,
      "note": 54,
      "start": 15.691,
      "duration": 0.2131,
      "velocity": 99,
      "chip": "ym2612"
    },
    {
      "channel": 0,
      "note": 54,
      "start": 15.9077,
      "duration": 0.6134,
      "velocity": 99,
      "chip": "ym2612"
    },
    {
      "channel": 3,
      "note": 97,
      "start": 15.9102,
      "duration": 0.0249,
      "velocity": 97,
      "chip": "ym2612"
    },
    {
      "channel": 4,
      "note": 97,
      "start": 15.9384,
      "duration": 0.0226,
      "velocity": 97,
      "chip": "ym2612"
    },
    {
      "channel": 3,
      "note": 100,
      "start": 16.341,
      "duration": 0.0469,
      "velocity": 97,
      "chip": "ym2612"
    },
    {
      "channel": 4,
      "note": 100,
      "start": 16.391,
      "duration": 0.0637,
      "velocity": 97,
      "chip": "ym2612"
    },
    {
      "channel": 0,
      "note": 54,
      "start": 16.5243,
      "duration": 0.2297,
      "velocity": 99,
      "chip": "ym2612"
    },
    {
      "channel": 0,
      "note": 47,
      "start": 16.7603,
      "duration": 0.8278,
      "velocity": 127,
      "chip": "ym2612"
    },
    {
      "channel": 1,
      "note": 66,
      "start": 16.7703,
      "duration": 0.0366,
      "velocity": 80,
      "chip": "ym2612"
    },
    {
      "channel": 1,
      "note": 71,
      "start": 16.8094,
      "duration": 0.1122,
      "velocity": 80,
      "chip": "ym2612"
    },
    {
      "channel": 4,
      "note": 86,
      "start": 16.9256,
      "duration": 0.6629,
      "velocity": 110,
      "chip": "ym2612"
    },
    {
      "channel": 3,
      "note": 90,
      "start": 16.9295,
      "duration": 0.6589,
      "velocity": 111,
      "chip": "ym2612"
    },
    {
      "channel": 1,
      "note": 74,
      "start": 16.9354,
      "duration": 0.038,
      "velocity": 80,
      "chip": "ym2612"
    },
    {
      "channel": 1,
      "note": 78,
      "start": 16.9759,
      "duration": 0.1123,
      "velocity": 80,
      "chip": "ym2612"
    },
    {
      "channel": 1,
      "note": 83,
      "start": 17.0915,
      "duration": 0.1134,
      "velocity": 80,
      "chip": "ym2612"
    },
    {
      "channel": 1,
      "note": 78,
      "start": 17.2081,
      "duration": 0.13,
      "velocity": 80,
      "chip": "ym2612"
    },
    {
      "channel": 1,
      "note": 74,
      "start": 17.3415,
      "duration": 0.1134,
      "velocity": 80,
      "chip": "ym2612"
    },
    {
      "channel": 1,
      "note": 71,
      "start": 17.4581,
      "duration": 0.1302,
      "velocity": 80,
      "chip": "ym2612"
    },
    {
      "channel": 4,
      "note": 85,
      "start": 17.5918,
      "duration": 0.3354,
      "velocity": 110,
      "chip": "ym2612"
    },
    {
      "channel": 0,
      "note": 47,
      "start": 17.5941,
      "duration": 0.8327,
      "velocity": 127,
      "chip": "ym2612"
    },
    {
      "channel": 3,
      "note": 89,
      "start": 17.597,
      "duration": 0.33,
      "velocity": 111,
      "chip": "ym2612"
    },
    {
      "channel": 1,
      "note": 66,
      "start": 17.6045,
      "duration": 0.0365,
      "velocity": 80,
      "chip": "ym2612"
    },
    {
      "channel": 1,
      "note": 71,
      "start": 17.6434,
      "duration": 0.047,
      "velocity": 80,
      "chip": "ym2612"
    },
    {
      "channel": 1,
      "note": 74,
      "start": 17.6929,
      "duration": 0.1006,
      "velocity": 80,
      "chip": "ym2612"
    },
    {
      "channel": 1,
      "note": 78,
      "start": 17.7969,
      "duration": 0.13,
      "velocity": 80,
      "chip": "ym2612"
    },
    {
      "channel": 4,
      "note": 82,
      "start": 17.9304,
      "duration": 0.7467,
      "velocity": 110,
      "chip": "ym2612"
    },
    {
      "channel": 3,
      "note": 85,
      "start": 17.9334,
      "duration": 0.7436,
      "velocity": 111,
      "chip": "ym2612"
    },
    {
      "channel": 1,
      "note": 83,
      "start": 17.936,
      "duration": 0.1242,
      "velocity": 80,
      "chip": "ym2612"
    },
    {
      "channel": 1,
      "note": 78,
      "start": 18.0635,
      "duration": 0.1134,
      "velocity": 80,
      "chip": "ym2612"
    },
    {
      "channel": 1,
      "note": 74,
      "start": 18.1805,
      "duration": 0.1297,
      "velocity": 80,
      "chip": "ym2612"
    },
    {
      "channel": 1,
      "note": 71,
      "start": 18.3134,
      "duration": 0.1135,
      "velocity": 80,
      "chip": "ym2612"
    },
    {
      "channel": 0,
      "note": 47,
      "start": 18.4298,
      "duration": 0.9147,
      "velocity": 127,
      "chip": "ym2612"
    },
    {
      "channel": 1,
      "note": 66,
      "start": 18.4325,
      "duration": 0.1277,
      "velocity": 80,
      "chip": "ym2612"
    },
    {
      "channel": 1,
      "note": 71,
      "start": 18.5634,
      "duration": 0.1134,
      "velocity": 80,
      "chip": "ym2612"
    },
    {
      "channel": 1,
      "note": 74,
      "start": 18.6803,
      "duration": 0.1299,
      "velocity": 80,
      "chip": "ym2612"
    },
    {
      "channel": 1,
      "note": 78,
      "start": 18.8135,
      "duration": 0.1134,
      "velocity": 80,
      "chip": "ym2612"
    },
    {
      "channel": 4,
      "note": 83,
      "start": 18.9305,
      "duration": 0.4144,
      "velocity": 110,
      "chip": "ym2612"
    },
    {
      "channel": 3,
      "note": 86,
      "start": 18.9336,
      "duration": 0.4112,
      "velocity": 111,
      "chip": "ym2612"
    },
    {
      "channel": 1,
      "note": 83,
      "start": 18.9361,
      "duration": 0.1241,
      "velocity": 80,
      "chip": "ym2612"
    },
    {
      "channel": 1,
      "note": 78,
      "start": 19.0635,
      "duration": 0.1134,
      "velocity": 80,
      "chip": "ym2612"
    },
    {
      "channel": 1,
      "note": 74,
      "start": 19.1853,
      "duration": 0.0461,
      "velocity": 80,
      "chip": "ym2612"
    },
    {
      "channel": 1,
      "note": 71,
      "start": 19.2344,
      "duration": 0.1103,
      "velocity": 80,
      "chip": "ym2612"
    },
    {
      "channel": 4,
      "note": 74,
      "start": 19.3483,
      "duration": 0.7706,
      "velocity": 110,
      "chip": "ym2612"
    },
    {
      "channel": 0,
      "note": 47,
      "start": 19.3507,
      "duration": 0.7678,
      "velocity": 127,
      "chip": "ym2612"
    },
    {
      "channel": 3,
      "note": 79,
      "start": 19.3533,
      "duration": 0.3314,
      "velocity": 111,
      "chip": "ym2612"
    },
    {
      "channel": 1,
      "note": 66,
      "start": 19.3612,
      "duration": 0.0425,
      "velocity": 80,
      "chip": "ym2612"
    },
    {
      "channel": 1,
      "note": 71,
      "start": 19.4074,
      "duration": 0.0405,
      "velocity": 80,
      "chip": "ym2612"
    },
    {
      "channel": 1,
      "note": 74,
      "start": 19.4503,
      "duration": 0.1175,
      "velocity": 80,
      "chip": "ym2612"
    },
    {
      "channel": 1,
      "note": 78,
      "start": 19.571,
      "duration": 0.1135,
      "velocity": 80,
      "chip": "ym2612"
    },
    {
      "channel": 3,
      "note": 78,
      "start": 19.6883,
      "duration": 0.4304,
      "velocity": 111,
      "chip": "ym2612"
    },
    {
      "channel": 1,
      "note": 83,
      "start": 19.6952,
      "duration": 0.0457,
      "velocity": 80,
      "chip": "ym2612"
    },
    {
      "channel": 1,
      "note": 78,
      "start": 19.7437,
      "duration": 0.125,
      "velocity": 80,
      "chip": "ym2612"
    },
    {
      "channel": 1,
      "note": 74,
      "start": 19.8723,
      "duration": 0.113,
      "velocity": 80,
      "chip": "ym2612"
    },
    {
      "channel": 1,
      "note": 71,
      "start": 19.9885,
      "duration": 0.1301,
      "velocity": 80,
      "chip": "ym2612"
    },
    {
      "channel": 0,
      "note": 47,
      "start": 20.1221,
      "duration": 0.8308,
      "velocity": 127,
      "chip": "ym2612"
    },
    {
      "channel": 1,
      "note": 66,
      "start": 20.1283,
      "duration": 0.0405,
      "velocity": 80,
      "chip": "ym2612"
    },
    {
      "channel": 1,
      "note": 71,
      "start": 20.1715,
      "duration": 0.1145,
      "velocity": 80,
      "chip": "ym2612"
    },
    {
      "channel": 1,
      "note": 74,
      "start": 20.2928,
      "duration": 0.0398,
      "velocity": 80,
      "chip": "ym2612"
    },
    {
      "channel": 1,
      "note": 78,
      "start": 20.3354,
      "duration": 0.1176,
      "velocity": 80,
      "chip": "ym2612"
    },
    {
      "channel": 4,
      "note": 86,
      "start": 20.4562,
      "duration": 0.497,
      "velocity": 110,
      "chip": "ym2612"
    },
    {
      "channel": 3,
      "note": 90,
      "start": 20.4591,
      "duration": 0.494,
      "velocity": 111,
      "chip": "ym2612"
    },
    {
      "channel": 1,
      "note": 83,
      "start": 20.4617,
      "duration": 0.1079,
      "velocity": 80,
      "chip": "ym2612"
    },
    {
      "channel": 1,
      "note": 78,
      "start": 20.5728,
      "duration": 0.13,
      "velocity": 80,
      "chip": "ym2612"
    },
    {
      "channel": 1,
      "note": 74,
      "start": 20.7061,
      "duration": 0.1134,
      "velocity": 80,
      "chip": "ym2612"
    },
    {
      "channel": 1,
      "note": 71,
      "start": 20.8228,
      "duration": 0.1302,
      "velocity": 80,
      "chip": "ym2612"
    },
    {
      "channel": 4,
      "note": 85,
      "start": 20.9561,
      "duration": 0.3366,
      "velocity": 110,
      "chip": "ym2612"
    },
    {
      "channel": 0,
      "note": 47,
      "start": 20.9586,
      "duration": 0.834,
      "velocity": 127,
      "chip": "ym2612"
    },
    {
      "channel": 3,
      "note": 89,
      "start": 20.9612,
      "duration": 0.3315,
      "velocity": 111,
      "chip": "ym2612"
    },
    {
      "channel": 1,
      "note": 66,
      "start": 20.9692,
      "duration": 0.0367,
      "velocity": 80,
      "chip": "ym2612"
    },
    {
      "channel": 1,
      "note": 71,
      "start": 21.0084,
      "duration": 0.0473,
      "velocity": 80,
      "chip": "ym2612"
    },
    {
      "channel": 1,
      "note": 74,
      "start": 21.0582,
      "duration": 0.101,
      "velocity": 80,
      "chip": "ym2612"
    },
    {
      "channel": 1,
      "note": 78,
      "start": 21.1625,
      "duration": 0.13,
      "velocity": 80,
      "chip": "ym2612"
    },
    {
      "channel": 4,
      "note": 82,
      "start": 21.296,
      "duration": 0.7469,
      "velocity": 110,
      "chip": "ym2612"
    },
    {
      "channel": 3,
      "note": 85,
      "start": 21.299,
      "duration": 0.7438,
      "velocity": 111,
      "chip": "ym2612"
    },
    {
      "channel": 1,
      "note": 83,
      "start": 21.3016,
      "duration": 0.1076,
      "velocity": 80,
      "chip": "ym2612"
    },
    {
      "channel": 1,
      "note": 78,
      "start": 21.4124,
      "duration": 0.1302,
      "velocity": 80,
      "chip": "ym2612"
    },
    {
      "channel": 1,
      "note": 74,
      "start": 21.5463,
      "duration": 0.1297,
      "velocity": 80,
      "chip": "ym2612"
    },
    {
      "channel": 1,
      "note": 71,
      "start": 21.6792,
      "duration": 0.1135,
      "velocity": 80,
      "chip": "ym2612"
    },
    {
      "channel": 0,
      "note": 47,
      "start": 21.7956,
      "duration": 0.9135,
      "velocity": 127,
      "chip": "ym2612"
    },
    {
      "channel": 1,
      "note": 66,
      "start": 21.7983,
      "duration": 0.1277,
      "velocity": 80,
      "chip": "ym2612"
    },
    {
      "channel": 1,
      "note": 71,
      "start": 21.9292,
      "duration": 0.1135,
      "velocity": 80,
      "chip": "ym2612"
    },
    {
      "channel": 1,
      "note": 74,
      "start": 22.0461,
      "duration": 0.1298,
      "velocity": 80,
      "chip": "ym2612"
    },
    {
      "channel": 1,
      "note": 78,
      "start": 22.1792,
      "duration": 0.1134,
      "velocity": 80,
      "chip": "ym2612"
    },
    {
      "channel": 4,
      "note": 83,
      "start": 22.2959,
      "duration": 0.4137,
      "velocity": 110,
      "chip": "ym2612"
    },
    {
      "channel": 3,
      "note": 86,
      "start": 22.2989,
      "duration": 0.4105,
      "velocity": 111,
      "chip": "ym2612"
    },
    {
      "channel": 1,
      "note": 83,
      "start": 22.3015,
      "duration": 0.1244,
      "velocity": 80,
      "chip": "ym2612"
    },
    {
      "channel": 1,
      "note": 78,
      "start": 22.4291,
      "duration": 0.1134,
      "velocity": 80,
      "chip": "ym2612"
    },
    {
      "channel": 1,
      "note": 74,
      "start": 22.5505,
      "duration": 0.046,
      "velocity": 80,
      "chip": "ym2612"
    },
    {
      "channel": 1,
      "note": 71,
      "start": 22.5995,
      "duration": 0.1098,
      "velocity": 80,
      "chip": "ym2612"
    },
    {
      "channel": 4,
      "note": 74,
      "start": 22.7133,
      "duration": 0.7687,
      "velocity": 110,
      "chip": "ym2612"
    },
    {
      "channel": 0,
      "note": 47,
      "start": 22.7157,
      "duration": 0.7659,
      "velocity": 127,
      "chip": "ym2612"
    },
    {
      "channel": 3,
      "note": 79,
      "start": 22.7183,
      "duration": 0.3301,
      "velocity": 111,
      "chip": "ym2612"
    },
    {
      "channel": 1,
      "note": 66,
      "start": 22.7259,
      "duration": 0.0421,
      "velocity": 80,
      "chip": "ym2612"
    },
    {
      "channel": 1,
      "note": 71,
      "start": 22.7716,
      "duration": 0.0402,
      "velocity": 80,
      "chip": "ym2612"
    },
    {
      "channel": 1,
      "note": 74,
      "start": 22.8143,
      "duration": 0.1172,
      "velocity": 80,
      "chip": "ym2612"
    },
    {
      "channel": 1,
      "note": 78,
      "start": 22.9348,
      "duration": 0.1134,
      "velocity": 80,
      "chip": "ym2612"
    },
    {
      "channel": 3,
      "note": 78,
      "start": 23.0517,
      "duration": 0.4302,
      "velocity": 111,
      "chip": "ym2612"
    },
    {
      "channel": 1,
      "note": 83,
      "start": 23.0586,
      "duration": 0.0448,
      "velocity": 80,
      "chip": "ym2612"
    },
    {
      "channel": 1,
      "note": 78,
      "start": 23.1063,
      "duration": 0.1087,
      "velocity": 80,
      "chip": "ym2612"
    },
    {
      "channel": 1,
      "note": 74,
      "start": 23.2186,
      "duration": 0.1297,
      "velocity": 80,
      "chip": "ym2612"
    },
    {
      "channel": 1,
      "note": 71,
      "start": 23.3516,
      "duration": 0.1301,
      "velocity": 80,
      "chip": "ym2612"
    },
    {
      "channel": 0,
      "note": 48,
      "start": 23.4847,
      "duration": 0.831,
      "velocity": 127,
      "chip": "ym2612"
    },
    {
      "channel": 1,
      "note": 67,
      "start": 23.4908,
      "duration": 0.0403,
      "velocity": 80,
      "chip": "ym2612"
    },
    {
      "channel": 1,
      "note": 72,
      "start": 23.5337,
      "duration": 0.1152,
      "velocity": 80,
      "chip": "ym2612"
    },
    {
      "channel": 1,
      "note": 75,
      "start": 23.6555,
      "duration": 0.04,
      "velocity": 80,
      "chip": "ym2612"
    },
    {
      "channel": 1,
      "note": 79,
      "start": 23.6979,
      "duration": 0.1179,
      "velocity": 80,
      "chip": "ym2612"
    },
    {
      "channel": 4,
      "note": 87,
      "start": 23.8191,
      "duration": 0.497,
      "velocity": 110,
      "chip": "ym2612"
    },
    {
      "channel": 3,
      "note": 91,
      "start": 23.822,
      "duration": 0.4939,
      "velocity": 111,
      "chip": "ym2612"
    },
    {
      "channel": 1,
      "note": 84,
      "start": 23.8246,
      "duration": 0.1078,
      "velocity": 80,
      "chip": "ym2612"
    },
    {
      "channel": 1,
      "note": 79,
      "start": 23.9357,
      "duration": 0.13,
      "velocity": 80,
      "chip": "ym2612"
    },
    {
      "channel": 1,
      "note": 75,
      "start": 24.069,
      "duration": 0.1135,
      "velocity": 80,
      "chip": "ym2612"
    },
    {
      "channel": 1,
      "note": 72,
      "start": 24.1857,
      "duration": 0.1301,
      "velocity": 80,
      "chip": "ym2612"
    },
    {
      "channel": 4,
      "note": 86,
      "start": 24.3191,
      "duration": 0.3366,
      "velocity": 110,
      "chip": "ym2612"
    },
    {
      "channel": 0,
      "note": 48,
      "start": 24.3214,
      "duration": 0.8339,
      "velocity": 127,
      "chip": "ym2612"
    },
    {
      "channel": 3,
      "note": 90,
      "start": 24.3244,
      "duration": 0.3311,
      "velocity": 111,
      "chip": "ym2612"
    },
    {
      "channel": 1,
      "note": 67,
      "start": 24.3322,
      "duration": 0.0364,
      "velocity": 80,
      "chip": "ym2612"
    },
    {
      "channel": 1,
      "note": 72,
      "start": 24.3712,
      "duration": 0.0477,
      "velocity": 80,
      "chip": "ym2612"
    },
    {
      "channel": 1,
      "note": 75,
      "start": 24.4215,
      "duration": 0.1006,
      "velocity": 80,
      "chip": "ym2612"
    },
    {
      "channel": 1,
      "note": 79,
      "start": 24.5253,
      "duration": 0.1301,
      "velocity": 80,
      "chip": "ym2612"
    },
    {
      "channel": 4,
      "note": 83,
      "start": 24.6589,
      "duration": 0.7466,
      "velocity": 110,
      "chip": "ym2612"
    },
    {
      "channel": 3,
      "note": 86,
      "start": 24.6619,
      "duration": 0.7435,
      "velocity": 111,
      "chip": "ym2612"
    },
    {
      "channel": 1,
      "note": 84,
      "start": 24.6645,
      "duration": 0.1074,
      "velocity": 80,
      "chip": "ym2612"
    },
    {
      "channel": 1,
      "note": 79,
      "start": 24.7752,
      "duration": 0.1302,
      "velocity": 80,
      "chip": "ym2612"
    },
    {
      "channel": 1,
      "note": 75,
      "start": 24.909,
      "duration": 0.113,
      "velocity": 80,
      "chip": "ym2612"
    },
    {
      "channel": 1,
      "note": 72,
      "start": 25.0253,
      "duration": 0.1301,
      "velocity": 80,
      "chip": "ym2612"
    },
    {
      "channel": 0,
      "note": 48,
      "start": 25.1583,
      "duration": 0.9133,
      "velocity": 127,
      "chip": "ym2612"
    },
    {
      "channel": 1,
      "note": 67,
      "start": 25.161,
      "duration": 0.1277,
      "velocity": 80,
      "chip": "ym2612"
    },
    {
      "channel": 1,
      "note": 72,
      "start": 25.292,
      "duration": 0.1133,
      "velocity": 80,
      "chip": "ym2612"
    },
    {
      "channel": 1,
      "note": 75,
      "start": 25.4087,
      "duration": 0.1299,
      "velocity": 80,
      "chip": "ym2612"
    },
    {
      "channel": 1,
      "note": 79,
      "start": 25.5419,
      "duration": 0.1134,
      "velocity": 80,
      "chip": "ym2612"
    },
    {
      "channel": 4,
      "note": 84,
      "start": 25.6586,
      "duration": 0.4133,
      "velocity": 110,
      "chip": "ym2612"
    },
    {
      "channel": 3,
      "note": 87,
      "start": 25.6616,
      "duration": 0.4102,
      "velocity": 111,
      "chip": "ym2612"
    },
    {
      "channel": 1,
      "note": 84,
      "start": 25.6642,
      "duration": 0.1244,
      "velocity": 80,
      "chip": "ym2612"
    },
    {
      "channel": 1,
      "note": 79,
      "start": 25.7919,
      "duration": 0.1135,
      "velocity": 80,
      "chip": "ym2612"
    },
    {
      "channel": 1,
      "note": 75,
      "start": 25.9133,
      "duration": 0.0455,
      "velocity": 80,
      "chip": "ym2612"
    },
    {
      "channel": 1,
      "note": 72,
      "start": 25.9617,
      "duration": 0.1099,
      "velocity": 80,
      "chip": "ym2612"
    },
    {
      "channel": 4,
      "note": 75,
      "start": 26.0757,
      "duration": 0.7522,
      "velocity": 110,
      "chip": "ym2612"
    },
    {
      "channel": 0,
      "note": 48,
      "start": 26.078,
      "duration": 0.7495,
      "velocity": 127,
      "chip": "ym2612"
    },
    {
      "channel": 3,
      "note": 80,
      "start": 26.0806,
      "duration": 0.3301,
      "velocity": 111,
      "chip": "ym2612"
    },
    {
      "channel": 1,
      "note": 67,
      "start": 26.0882,
      "duration": 0.0421,
      "velocity": 80,
      "chip": "ym2612"
    },
    {
      "channel": 1,
      "note": 72,
      "start": 26.134,
      "duration": 0.0402,
      "velocity": 80,
      "chip": "ym2612"
    },
    {
      "channel": 1,
      "note": 75,
      "start": 26.1766,
      "duration": 0.1173,
      "velocity": 80,
      "chip": "ym2612"
    },
    {
      "channel": 1,
      "note": 79,
      "start": 26.2971,
      "duration": 0.1135,
      "velocity": 80,
      "chip": "ym2612"
    },
    {
      "channel": 3,
      "note": 79,
      "start": 26.4141,
      "duration": 0.4137,
      "velocity": 111,
      "chip": "ym2612"
    },
    {
      "channel": 1,
      "note": 84,
      "start": 26.4211,
      "duration": 0.0447,
      "velocity": 80,
      "chip": "ym2612"
    },
    {
      "channel": 1,
      "note": 79,
      "start": 26.4688,
      "duration": 0.1087,
      "velocity": 80,
      "chip": "ym2612"
    },
    {
      "channel": 1,
      "note": 75,
      "start": 26.5811,
      "duration": 0.1297,
      "velocity": 80,
      "chip": "ym2612"
    },
    {
      "channel": 1,
      "note": 72,
      "start": 26.7141,
      "duration": 0.1135,
      "velocity": 80,
      "chip": "ym2612"
    },
    {
      "channel": 0,
      "note": 48,
      "start": 26.8306,
      "duration": 0.8486,
      "velocity": 127,
      "chip": "ym2612"
    },
    {
      "channel": 1,
      "note": 67,
      "start": 26.8366,
      "duration": 0.0458,
      "velocity": 80,
      "chip": "ym2612"
    },
    {
      "channel": 1,
      "note": 72,
      "start": 26.8853,
      "duration": 0.1262,
      "velocity": 80,
      "chip": "ym2612"
    },
    {
      "channel": 1,
      "note": 75,
      "start": 27.0181,
      "duration": 0.0411,
      "velocity": 80,
      "chip": "ym2612"
    },
    {
      "channel": 1,
      "note": 79,
      "start": 27.0618,
      "duration": 0.1175,
      "velocity": 80,
      "chip": "ym2612"
    },
    {
      "channel": 4,
      "note": 87,
      "start": 27.1826,
      "duration": 0.4971,
      "velocity": 110,
      "chip": "ym2612"
    },
    {
      "channel": 3,
      "note": 91,
      "start": 27.1855,
      "duration": 0.4941,
      "velocity": 111,
      "chip": "ym2612"
    },
    {
      "channel": 1,
      "note": 84,
      "start": 27.1881,
      "duration": 0.1079,
      "velocity": 80,
      "chip": "ym2612"
    },
    {
      "channel": 1,
      "note": 79,
      "start": 27.2993,
      "duration": 0.13,
      "velocity": 80,
      "chip": "ym2612"
    },
    {
      "channel": 1,
      "note": 75,
      "start": 27.4325,
      "duration": 0.1135,
      "velocity": 80,
      "chip": "ym2612"
    },
    {
      "channel": 1,
      "note": 72,
      "start": 27.5493,
      "duration": 0.1301,
      "velocity": 80,
      "chip": "ym2612"
    },
    {
      "channel": 4,
      "note": 86,
      "start": 27.6826,
      "duration": 0.3365,
      "velocity": 110,
      "chip": "ym2612"
    },
    {
      "channel": 0,
      "note": 48,
      "start": 27.6849,
      "duration": 0.8338,
      "velocity": 127,
      "chip": "ym2612"
    },
    {
      "channel": 3,
      "note": 90,
      "start": 27.6876,
      "duration": 0.3314,
      "velocity": 111,
      "chip": "ym2612"
    },
    {
      "channel": 1,
      "note": 67,
      "start": 27.696,
      "duration": 0.0363,
      "velocity": 80,
      "chip": "ym2612"
    },
    {
      "channel": 1,
      "note": 72,
      "start": 27.7349,
      "duration": 0.0473,
      "velocity": 80,
      "chip": "ym2612"
    },
    {
      "channel": 1,
      "note": 75,
      "start": 27.7846,
      "duration": 0.101,
      "velocity": 80,
      "chip": "ym2612"
    },
    {
      "channel": 1,
      "note": 79,
      "start": 27.8888,
      "duration": 0.13,
      "velocity": 80,
      "chip": "ym2612"
    },
    {
      "channel": 4,
      "note": 83,
      "start": 28.0223,
      "duration": 0.7468,
      "velocity": 110,
      "chip": "ym2612"
    },
    {
      "channel": 3,
      "note": 86,
      "start": 28.0254,
      "duration": 0.7436,
      "velocity": 111,
      "chip": "ym2612"
    },
    {
      "channel": 1,
      "note": 84,
      "start": 28.0279,
      "duration": 0.1076,
      "velocity": 80,
      "chip": "ym2612"
    },
    {
      "channel": 1,
      "note": 79,
      "start": 28.1388,
      "duration": 0.1301,
      "velocity": 80,
      "chip": "ym2612"
    },
    {
      "channel": 1,
      "note": 75,
      "start": 28.2725,
      "duration": 0.1131,
      "velocity": 80,
      "chip": "ym2612"
    },
    {
      "channel": 1,
      "note": 72,
      "start": 28.3888,
      "duration": 0.1301,
      "velocity": 80,
      "chip": "ym2612"
    },
    {
      "channel": 0,
      "note": 48,
      "start": 28.5218,
      "duration": 0.9133,
      "velocity": 127,
      "chip": "ym2612"
    },
    {
      "channel": 1,
      "note": 67,
      "start": 28.5244,
      "duration": 0.1111,
      "velocity": 80,
      "chip": "ym2612"
    },
    {
      "channel": 1,
      "note": 72,
      "start": 28.6388,
      "duration": 0.13,
      "velocity": 80,
      "chip": "ym2612"
    },
    {
      "channel": 1,
      "note": 75,
      "start": 28.7723,
      "duration": 0.1299,
      "velocity": 80,
      "chip": "ym2612"
    },
    {
      "channel": 1,
      "note": 79,
      "start": 28.9055,
      "duration": 0.1134,
      "velocity": 80,
      "chip": "ym2612"
    },
    {
      "channel": 4,
      "note": 84,
      "start": 29.0222,
      "duration": 0.4133,
      "velocity": 110,
      "chip": "ym2612"
    },
    {
      "channel": 3,
      "note": 87,
      "start": 29.0256,
      "duration": 0.4098,
      "velocity": 111,
      "chip": "ym2612"
    },
    {
      "channel": 1,
      "note": 84,
      "start": 29.0281,
      "duration": 0.1241,
      "velocity": 80,
      "chip": "ym2612"
    },
    {
      "channel": 1,
      "note": 79,
      "start": 29.1554,
      "duration": 0.1135,
      "velocity": 80,
      "chip": "ym2612"
    },
    {
      "channel": 1,
      "note": 75,
      "start": 29.2768,
      "duration": 0.0455,
      "velocity": 80,
      "chip": "ym2612"
    },
    {
      "channel": 1,
      "note": 72,
      "start": 29.3253,
      "duration": 0.1099,
      "velocity": 80,
      "chip": "ym2612"
    },
    {
      "channel": 4,
      "note": 75,
      "start": 29.4388,
      "duration": 0.7533,
      "velocity": 110,
      "chip": "ym2612"
    },
    {
      "channel": 0,
      "note": 48,
      "start": 29.4412,
      "duration": 0.7506,
      "velocity": 127,
      "chip": "ym2612"
    },
    {
      "channel": 3,
      "note": 80,
      "start": 29.4438,
      "duration": 0.3305,
      "velocity": 111,
      "chip": "ym2612"
    },
    {
      "channel": 1,
      "note": 67,
      "start": 29.4509,
      "duration": 0.0428,
      "velocity": 80,
      "chip": "ym2612"
    },
    {
      "channel": 1,
      "note": 72,
      "start": 29.4974,
      "duration": 0.0401,
      "velocity": 80,
      "chip": "ym2612"
    },
    {
      "channel": 1,
      "note": 75,
      "start": 29.5401,
      "duration": 0.1173,
      "velocity": 80,
      "chip": "ym2612"
    },
    {
      "channel": 1,
      "note": 79,
      "start": 29.6607,
      "duration": 0.1134,
      "velocity": 80,
      "chip": "ym2612"
    },
    {
      "channel": 3,
      "note": 79,
      "start": 29.7776,
      "duration": 0.4144,
      "velocity": 111,
      "chip": "ym2612"
    },
    {
      "channel": 1,
      "note": 84,
      "start": 29.7848,
      "duration": 0.0457,
      "velocity": 80,
      "chip": "ym2612"
    },
    {
      "channel": 1,
      "note": 79,
      "start": 29.8335,
      "duration": 0.1083,
      "velocity": 80,
      "chip": "ym2612"
    },
    {
      "channel": 1,
      "note": 75,
      "start": 29.9454,
      "duration": 0.1297,
      "velocity": 80,
      "chip": "ym2612"
    },
    {
      "channel": 1,
      "note": 72,
      "start": 30.0783,
      "duration": 0.1135,
      "velocity": 80,
      "chip": "ym2612"
    },
    {
      "channel": 0,
      "note": 50,
      "start": 30.1949,
      "duration": 0.8461,
      "velocity": 127,
      "chip": "ym2612"
    },
    {
      "channel": 1,
      "note": 69,
      "start": 30.2009,
      "duration": 0.0447,
      "velocity": 80,
      "chip": "ym2612"
    },
    {
      "channel": 1,
      "note": 74,
      "start": 30.2484,
      "duration": 0.1095,
      "velocity": 80,
      "chip": "ym2612"
    },
    {
      "channel": 1,
      "note": 77,
      "start": 30.3644,
      "duration": 0.046,
      "velocity": 80,
      "chip": "ym2612"
    },
    {
      "channel": 1,
      "note": 81,
      "start": 30.4136,
      "duration": 0.1273,
      "velocity": 80,
      "chip": "ym2612"
    },
    {
      "channel": 4,
      "note": 89,
      "start": 30.5447,
      "duration": 0.4967,
      "velocity": 110,
      "chip": "ym2612"
    },
    {
      "channel": 3,
      "note": 93,
      "start": 30.5476,
      "duration": 0.4936,
      "velocity": 111,
      "chip": "ym2612"
    },
    {
      "channel": 1,
      "note": 86,
      "start": 30.5502,
      "duration": 0.1074,
      "velocity": 80,
      "chip": "ym2612"
    },
    {
      "channel": 1,
      "note": 81,
      "start": 30.6609,
      "duration": 0.1301,
      "velocity": 80,
      "chip": "ym2612"
    },
    {
      "channel": 1,
      "note": 77,
      "start": 30.7942,
      "duration": 0.1134,
      "velocity": 80,
      "chip": "ym2612"
    },
    {
      "channel": 1,
      "note": 74,
      "start": 30.911,
      "duration": 0.1301,
      "velocity": 80,
      "chip": "ym2612"
    },
    {
      "channel": 4,
      "note": 88,
      "start": 31.0443,
      "duration": 0.337,
      "velocity": 110,
      "chip": "ym2612"
    },
    {
      "channel": 0,
      "note": 50,
      "start": 31.0466,
      "duration": 0.8343,
      "velocity": 127,
      "chip": "ym2612"
    },
    {
      "channel": 3,
      "note": 92,
      "start": 31.0493,
      "duration": 0.3319,
      "velocity": 111,
      "chip": "ym2612"
    },
    {
      "channel": 1,
      "note": 69,
      "start": 31.0573,
      "duration": 0.0367,
      "velocity": 80,
      "chip": "ym2612"
    },
    {
      "channel": 1,
      "note": 74,
      "start": 31.0965,
      "duration": 0.0477,
      "velocity": 80,
      "chip": "ym2612"
    },
    {
      "channel": 1,
      "note": 77,
      "start": 31.1467,
      "duration": 0.101,
      "velocity": 80,
      "chip": "ym2612"
    },
    {
      "channel": 1,
      "note": 81,
      "start": 31.251,
      "duration": 0.1301,
      "velocity": 80,
      "chip": "ym2612"
    },
    {
      "channel": 4,
      "note": 85,
      "start": 31.3846,
      "duration": 0.7468,
      "velocity": 110,
      "chip": "ym2612"
    },
    {
      "channel": 3,
      "note": 88,
      "start": 31.3876,
      "duration": 0.7436,
      "velocity": 111,
      "chip": "ym2612"
    },
    {
      "channel": 1,
      "note": 86,
      "start": 31.3902,
      "duration": 0.1074,
      "velocity": 80,
      "chip": "ym2612"
    },
    {
      "channel": 1,
      "note": 81,
      "start": 31.5008,
      "duration": 0.1301,
      "velocity": 80,
      "chip": "ym2612"
    },
    {
      "channel": 1,
      "note": 77,
      "start": 31.6346,
      "duration": 0.1132,
      "velocity": 80,
      "chip": "ym2612"
    },
    {
      "channel": 1,
      "note": 74,
      "start": 31.751,
      "duration": 0.1302,
      "velocity": 80,
      "chip": "ym2612"
    },
    {
      "channel": 0,
      "note": 50,
      "start": 31.884,
      "duration": 0.9136,
      "velocity": 127,
      "chip": "ym2612"
    },
    {
      "channel": 1,
      "note": 69,
      "start": 31.8866,
      "duration": 0.1111,
      "velocity": 80,
      "chip": "ym2612"
    },
    {
      "channel": 1,
      "note": 74,
      "start": 32.001,
      "duration": 0.1301,
      "velocity": 80,
      "chip": "ym2612"
    },
    {
      "channel": 1,
      "note": 77,
      "start": 32.1344,
      "duration": 0.1132,
      "velocity": 80,
      "chip": "ym2612"
    },
    {
      "channel": 1,
      "note": 81,
      "start": 32.2509,
      "duration": 0.13,
      "velocity": 80,
      "chip": "ym2612"
    },
    {
      "channel": 4,
      "note": 86,
      "start": 32.3842,
      "duration": 0.4137,
      "velocity": 110,
      "chip": "ym2612"
    },
    {
      "channel": 3,
      "note": 89,
      "start": 32.3873,
      "duration": 0.4106,
      "velocity": 111,
      "chip": "ym2612"
    },
    {
      "channel": 1,
      "note": 86,
      "start": 32.3898,
      "duration": 0.1245,
      "velocity": 80,
      "chip": "ym2612"
    },
    {
      "channel": 1,
      "note": 81,
      "start": 32.5176,
      "duration": 0.1133,
      "velocity": 80,
      "chip": "ym2612"
    },
    {
      "channel": 1,
      "note": 77,
      "start": 32.6391,
      "duration": 0.0459,
      "velocity": 80,
      "chip": "ym2612"
    },
    {
      "channel": 1,
      "note": 74,
      "start": 32.6879,
      "duration": 0.1097,
      "velocity": 80,
      "chip": "ym2612"
    },
    {
      "channel": 4,
      "note": 77,
      "start": 32.8013,
      "duration": 0.7528,
      "velocity": 110,
      "chip": "ym2612"
    },
    {
      "channel": 0,
      "note": 50,
      "start": 32.8037,
      "duration": 0.7501,
      "velocity": 127,
      "chip": "ym2612"
    },
    {
      "channel": 3,
      "note": 82,
      "start": 32.8063,
      "duration": 0.3307,
      "velocity": 111,
      "chip": "ym2612"
    },
    {
      "channel": 1,
      "note": 69,
      "start": 32.8136,
      "duration": 0.0428,
      "velocity": 80,
      "chip": "ym2612"
    },
    {
      "channel": 1,
      "note": 74,
      "start": 32.8601,
      "duration": 0.0402,
      "velocity": 80,
      "chip": "ym2612"
    },
    {
      "channel": 1,
      "note": 77,
      "start": 32.9028,
      "duration": 0.1174,
      "velocity": 80,
      "chip": "ym2612"
    },
    {
      "channel": 1,
      "note": 81,
      "start": 33.0235,
      "duration": 0.1134,
      "velocity": 80,
      "chip": "ym2612"
    },
    {
      "channel": 3,
      "note": 81,
      "start": 33.1407,
      "duration": 0.4133,
      "velocity": 111,
      "chip": "ym2612"
    },
    {
      "channel": 1,
      "note": 86,
      "start": 33.1481,
      "duration": 0.0447,
      "velocity": 80,
      "chip": "ym2612"
    },
    {
      "channel": 1,
      "note": 81,
      "start": 33.1958,
      "duration": 0.108,
      "velocity": 80,
      "chip": "ym2612"
    },
    {
      "channel": 1,
      "note": 77,
      "start": 33.3075,
      "duration": 0.1298,
      "velocity": 80,
      "chip": "ym2612"
    },
    {
      "channel": 1,
      "note": 74,
      "start": 33.4405,
      "duration": 0.1134,
      "velocity": 80,
      "chip": "ym2612"
    },
    {
      "channel": 0,
      "note": 50,
      "start": 33.5573,
      "duration": 0.8467,
      "velocity": 127,
      "chip": "ym2612"
    },
    {
      "channel": 1,
      "note": 69,
      "start": 33.5633,
      "duration": 0.0451,
      "velocity": 80,
      "chip": "ym2612"
    },
    {
      "channel": 1,
      "note": 74,
      "start": 33.6112,
      "duration": 0.1094,
      "velocity": 80,
      "chip": "ym2612"
    },
    {
      "channel": 1,
      "note": 77,
      "start": 33.7271,
      "duration": 0.0463,
      "velocity": 80,
      "chip": "ym2612"
    },
    {
      "channel": 1,
      "note": 81,
      "start": 33.7768,
      "duration": 0.1106,
      "velocity": 80,
      "chip": "ym2612"
    },
    {
      "channel": 4,
      "note": 89,
      "start": 33.8907,
      "duration": 0.5137,
      "velocity": 110,
      "chip": "ym2612"
    },
    {
      "channel": 3,
      "note": 93,
      "start": 33.8936,
      "duration": 0.5106,
      "velocity": 111,
      "chip": "ym2612"
    },
    {
      "channel": 1,
      "note": 86,
      "start": 33.8961,
      "duration": 0.1246,
      "velocity": 80,
      "chip": "ym2612"
    },
    {
      "channel": 1,
      "note": 81,
      "start": 34.0239,
      "duration": 0.13,
      "velocity": 80,
      "chip": "ym2612"
    },
    {
      "channel": 1,
      "note": 77,
      "start": 34.1572,
      "duration": 0.1135,
      "velocity": 80,
      "chip": "ym2612"
    },
    {
      "channel": 1,
      "note": 74,
      "start": 34.2739,
      "duration": 0.1301,
      "velocity": 80,
      "chip": "ym2612"
    },
    {
      "channel": 4,
      "note": 88,
      "start": 34.4077,
      "duration": 0.3363,
      "velocity": 110,
      "chip": "ym2612"
    },
    {
      "channel": 0,
      "note": 50,
      "start": 34.41,
      "duration": 0.8336,
      "velocity": 127,
      "chip": "ym2612"
    },
    {
      "channel": 3,
      "note": 92,
      "start": 34.4126,
      "duration": 0.3312,
      "velocity": 111,
      "chip": "ym2612"
    },
    {
      "channel": 1,
      "note": 69,
      "start": 34.4206,
      "duration": 0.0363,
      "velocity": 80,
      "chip": "ym2612"
    },
    {
      "channel": 1,
      "note": 74,
      "start": 34.4594,
      "duration": 0.0476,
      "velocity": 80,
      "chip": "ym2612"
    },
    {
      "channel": 1,
      "note": 77,
      "start": 34.5094,
      "duration": 0.101,
      "velocity": 80,
      "chip": "ym2612"
    },
    {
      "channel": 1,
      "note": 81,
      "start": 34.6136,
      "duration": 0.1301,
      "velocity": 80,
      "chip": "ym2612"
    },
    {
      "channel": 4,
      "note": 85,
      "start": 34.7472,
      "duration": 0.7468,
      "velocity": 110,
      "chip": "ym2612"
    },
    {
      "channel": 3,
      "note": 88,
      "start": 34.7502,
      "duration": 0.7436,
      "velocity": 111,
      "chip": "ym2612"
    },
    {
      "channel": 1,
      "note": 86,
      "start": 34.7528,
      "duration": 0.1076,
      "velocity": 80,
      "chip": "ym2612"
    },
    {
      "channel": 1,
      "note": 81,
      "start": 34.8637,
      "duration": 0.13,
      "velocity": 80,
      "chip": "ym2612"
    },
    {
      "channel": 1,
      "note": 77,
      "start": 34.9973,
      "duration": 0.1131,
      "velocity": 80,
      "chip": "ym2612"
    },
    {
      "channel": 1,
      "note": 74,
      "start": 35.1136,
      "duration": 0.1301,
      "velocity": 80,
      "chip": "ym2612"
    },
    {
      "channel": 0,
      "note": 50,
      "start": 35.2466,
      "duration": 0.9141,
      "velocity": 127,
      "chip": "ym2612"
    },
    {
      "channel": 1,
      "note": 69,
      "start": 35.2493,
      "duration": 0.1111,
      "velocity": 80,
      "chip": "ym2612"
    },
    {
      "channel": 1,
      "note": 74,
      "start": 35.3637,
      "duration": 0.13,
      "velocity": 80,
      "chip": "ym2612"
    },
    {
      "channel": 1,
      "note": 77,
      "start": 35.4971,
      "duration": 0.1132,
      "velocity": 80,
      "chip": "ym2612"
    },
    {
      "channel": 1,
      "note": 81,
      "start": 35.6135,
      "duration": 0.1302,
      "velocity": 80,
      "chip": "ym2612"
    },
    {
      "channel": 4,
      "note": 86,
      "start": 35.7471,
      "duration": 0.4141,
      "velocity": 110,
      "chip": "ym2612"
    },
    {
      "channel": 3,
      "note": 89,
      "start": 35.75,
      "duration": 0.411,
      "velocity": 111,
      "chip": "ym2612"
    },
    {
      "channel": 1,
      "note": 86,
      "start": 35.7527,
      "duration": 0.1078,
      "velocity": 80,
      "chip": "ym2612"
    },
    {
      "channel": 1,
      "note": 81,
      "start": 35.8637,
      "duration": 0.1301,
      "velocity": 80,
      "chip": "ym2612"
    },
    {
      "channel": 1,
      "note": 77,
      "start": 36.002,
      "duration": 0.0461,
      "velocity": 80,
      "chip": "ym2612"
    },
    {
      "channel": 1,
      "note": 74,
      "start": 36.0511,
      "duration": 0.1097,
      "velocity": 80,
      "chip": "ym2612"
    },
    {
      "channel": 4,
      "note": 77,
      "start": 36.1644,
      "duration": 0.7533,
      "velocity": 110,
      "chip": "ym2612"
    },
    {
      "channel": 0,
      "note": 50,
      "start": 36.1667,
      "duration": 0.7506,
      "velocity": 127,
      "chip": "ym2612"
    },
    {
      "channel": 3,
      "note": 82,
      "start": 36.1693,
      "duration": 0.3313,
      "velocity": 111,
      "chip": "ym2612"
    },
    {
      "channel": 1,
      "note": 69,
      "start": 36.1765,
      "duration": 0.043,
      "velocity": 80,
      "chip": "ym2612"
    },
    {
      "channel": 1,
      "note": 74,
      "start": 36.2232,
      "duration": 0.0403,
      "velocity": 80,
      "chip": "ym2612"
    },
    {
      "channel": 1,
      "note": 77,
      "start": 36.266,
      "duration": 0.1178,
      "velocity": 80,
      "chip": "ym2612"
    },
    {
      "channel": 1,
      "note": 81,
      "start": 36.387,
      "duration": 0.1135,
      "velocity": 80,
      "chip": "ym2612"
    },
    {
      "channel": 3,
      "note": 81,
      "start": 36.5038,
      "duration": 0.4138,
      "velocity": 111,
      "chip": "ym2612"
    },
    {
      "channel": 1,
      "note": 86,
      "start": 36.5107,
      "duration": 0.0448,
      "velocity": 80,
      "chip": "ym2612"
    },
    {
      "channel": 1,
      "note": 81,
      "start": 36.5585,
      "duration": 0.1089,
      "velocity": 80,
      "chip": "ym2612"
    },
    {
      "channel": 1,
      "note": 77,
      "start": 36.671,
      "duration": 0.1297,
      "velocity": 80,
      "chip": "ym2612"
    },
    {
      "channel": 1,
      "note": 74,
      "start": 36.8039,
      "duration": 0.1135,
      "velocity": 80,
      "chip": "ym2612"
    },
    {
      "channel": 4,
      "note": 76,
      "start": 36.9212,
      "duration": 2.1864,
      "velocity": 110,
      "chip": "ym2612"
    },
    {
      "channel": 0,
      "note": 52,
      "start": 36.9236,
      "duration": 0.8424,
      "velocity": 127,
      "chip": "ym2612"
    },
    {
      "channel": 3,
      "note": 80,
      "start": 36.9272,
      "duration": 2.1803,
      "velocity": 111,
      "chip": "ym2612"
    },
    {
      "channel": 1,
      "note": 68,
      "start": 36.9335,
      "duration": 0.0424,
      "velocity": 80,
      "chip": "ym2612"
    },
    {
      "channel": 1,
      "note": 71,
      "start": 36.9796,
      "duration": 0.1037,
      "velocity": 80,
      "chip": "ym2612"
    },
    {
      "channel": 1,
      "note": 76,
      "start": 37.0898,
      "duration": 0.0457,
      "velocity": 80,
      "chip": "ym2612"
    },
    {
      "channel": 1,
      "note": 84,
      "start": 37.1389,
      "duration": 0.1105,
      "velocity": 80,
      "chip": "ym2612"
    },
    {
      "channel": 1,
      "note": 83,
      "start": 37.2527,
      "duration": 0.13,
      "velocity": 80,
      "chip": "ym2612"
    },
    {
      "channel": 1,
      "note": 79,
      "start": 37.386,
      "duration": 0.1134,
      "velocity": 80,
      "chip": "ym2612"
    },
    {
      "channel": 1,
      "note": 78,
      "start": 37.5026,
      "duration": 0.1302,
      "velocity": 80,
      "chip": "ym2612"
    },
    {
      "channel": 1,
      "note": 74,
      "start": 37.6361,
      "duration": 0.1301,
      "velocity": 80,
      "chip": "ym2612"
    },
    {
      "channel": 0,
      "note": 52,
      "start": 37.769,
      "duration": 0.8381,
      "velocity": 127,
      "chip": "ym2612"
    },
    {
      "channel": 1,
      "note": 68,
      "start": 37.7765,
      "duration": 0.0394,
      "velocity": 80,
      "chip": "ym2612"
    },
    {
      "channel": 1,
      "note": 71,
      "start": 37.8195,
      "duration": 0.0469,
      "velocity": 80,
      "chip": "ym2612"
    },
    {
      "channel": 1,
      "note": 76,
      "start": 37.87,
      "duration": 0.104,
      "velocity": 80,
      "chip": "ym2612"
    },
    {
      "channel": 1,
      "note": 84,
      "start": 37.9772,
      "duration": 0.13,
      "velocity": 80,
      "chip": "ym2612"
    },
    {
      "channel": 1,
      "note": 83,
      "start": 38.1105,
      "duration": 0.1135,
      "velocity": 80,
      "chip": "ym2612"
    },
    {
      "channel": 1,
      "note": 79,
      "start": 38.2272,
      "duration": 0.13,
      "velocity": 80,
      "chip": "ym2612"
    },
    {
      "channel": 1,
      "note": 78,
      "start": 38.3609,
      "duration": 0.1131,
      "velocity": 80,
      "chip": "ym2612"
    },
    {
      "channel": 1,
      "note": 74,
      "start": 38.4772,
      "duration": 0.1301,
      "velocity": 80,
      "chip": "ym2612"
    },
    {
      "channel": 0,
      "note": 52,
      "start": 38.6102,
      "duration": 0.9137,
      "velocity": 127,
      "chip": "ym2612"
    },
    {
      "channel": 1,
      "note": 68,
      "start": 38.6128,
      "duration": 0.1111,
      "velocity": 80,
      "chip": "ym2612"
    },
    {
      "channel": 1,
      "note": 71,
      "start": 38.7272,
      "duration": 0.13,
      "velocity": 80,
      "chip": "ym2612"
    },
    {
      "channel": 1,
      "note": 76,
      "start": 38.8605,
      "duration": 0.1134,
      "velocity": 80,
      "chip": "ym2612"
    },
    {
      "channel": 1,
      "note": 84,
      "start": 38.9772,
      "duration": 0.1301,
      "velocity": 80,
      "chip": "ym2612"
    },
    {
      "channel": 1,
      "note": 83,
      "start": 39.1107,
      "duration": 0.1132,
      "velocity": 80,
      "chip": "ym2612"
    },
    {
      "channel": 1,
      "note": 79,
      "start": 39.2272,
      "duration": 0.13,
      "velocity": 80,
      "chip": "ym2612"
    },
    {
      "channel": 1,
      "note": 78,
      "start": 39.3651,
      "duration": 0.0398,
      "velocity": 80,
      "chip": "ym2612"
    },
    {
      "channel": 1,
      "note": 74,
      "start": 39.4077,
      "duration": 0.1163,
      "velocity": 80,
      "chip": "ym2612"
    },
    {
      "channel": 0,
      "note": 52,
      "start": 39.5271,
      "duration": 0.338,
      "velocity": 127,
      "chip": "ym2612"
    },
    {
      "channel": 1,
      "note": 68,
      "start": 39.5356,
      "duration": 0.0446,
      "velocity": 80,
      "chip": "ym2612"
    },
    {
      "channel": 1,
      "note": 71,
      "start": 39.5833,
      "duration": 0.0413,
      "velocity": 80,
      "chip": "ym2612"
    },
    {
      "channel": 1,
      "note": 76,
      "start": 39.6282,
      "duration": 0.1203,
      "velocity": 80,
      "chip": "ym2612"
    },
    {
      "channel": 1,
      "note": 84,
      "start": 39.7517,
      "duration": 0.1135,
      "velocity": 80,
      "chip": "ym2612"
    },
    {
      "channel": 0,
      "note": 52,
      "start": 39.8681,
      "duration": 0.1924,
      "velocity": 127,
      "chip": "ym2612"
    },
    {
      "channel": 1,
      "note": 83,
      "start": 39.8746,
      "duration": 0.0447,
      "velocity": 80,
      "chip": "ym2612"
    },
    {
      "channel": 1,
      "note": 79,
      "start": 39.9223,
      "duration": 0.0436,
      "velocity": 80,
      "chip": "ym2612"
    },
    {
      "channel": 1,
      "note": 78,
      "start": 39.9718,
      "duration": 0.0448,
      "velocity": 80,
      "chip": "ym2612"
    },
    {
      "channel": 1,
      "note": 74,
      "start": 40.0194,
      "duration": 0.0412,
      "velocity": 80,
      "chip": "ym2612"
    },
    {
      "channel": 0,
      "note": 47,
      "start": 40.0704,
      "duration": 8.8045,
      "velocity": 99,
      "chip": "ym2612"
    }
  ]
}