{
  "track_name": "02 - Crystal Springs",
  "duration_sec": 168.383,
  "sample_rate": 44100,
  "note_count": 2978,
  "unique_pitches": 33,
  "pitch_range": 42,
  "avg_note_duration": 0.1066,
  "reconstruction_stats": {
    "notes_reconstructed": 2978,
    "keyon_events": 2978,
    "keyoff_events": 2978,
    "orphan_keyons": 0,
    "unique_pitches": 33,
    "pitch_range": 42,
    "avg_duration_sec": 0.1066
  },
  "metadata": {
    "source": "E\\Ecco - The Tides of Time\\02 - Crystal Springs.vgz"
  },
  "notes": [
    {
      "channel": 1,
      "note": 42,
      "start": 0.0,
      "duration": 0.1283,
      "velocity": 92,
      "chip": "ym2612"
    },
    {
      "channel": 1,
      "note": 49,
      "start": 0.1431,
      "duration": 0.1284,
      "velocity": 92,
      "chip": "ym2612"
    },
    {
      "channel": 1,
      "note": 54,
      "start": 0.2864,
      "duration": 0.1284,
      "velocity": 92,
      "chip": "ym2612"
    },
    {
      "channel": 1,
      "note": 42,
      "start": 0.4296,
      "duration": 0.1386,
      "velocity": 92,
      "chip": "ym2612"
    },
    {
      "channel": 1,
      "note": 49,
      "start": 0.5833,
      "duration": 0.1282,
      "velocity": 92,
      "chip": "ym2612"
    },
    {
      "channel": 1,
      "note": 52,
      "start": 0.7263,
      "duration": 0.1284,
      "velocity": 92,
      "chip": "ym2612"
    },
    {
      "channel": 1,
      "note": 47,
      "start": 0.8697,
      "duration": 0.1283,
      "velocity": 92,
      "chip": "ym2612"
    },
    {
      "channel": 1,
      "note": 49,
      "start": 1.0128,
      "duration": 0.1387,
      "velocity": 92,
      "chip": "ym2612"
    },
    {
      "channel": 1,
      "note": 42,
      "start": 1.1665,
      "duration": 0.1283,
      "velocity": 92,
      "chip": "ym2612"
    },
    {
      "channel": 1,
      "note": 49,
      "start": 1.3096,
      "duration": 0.1284,
      "velocity": 92,
      "chip": "ym2612"
    },
    {
      "channel": 1,
      "note": 54,
      "start": 1.4529,
      "duration": 0.1386,
      "velocity": 92,
      "chip": "ym2612"
    },
    {
      "channel": 1,
      "note": 42,
      "start": 1.6063,
      "duration": 0.1284,
      "velocity": 92,
      "chip": "ym2612"
    },
    {
      "channel": 1,
      "note": 52,
      "start": 1.7497,
      "duration": 0.1283,
      "velocity": 92,
      "chip": "ym2612"
    },
    {
      "channel": 1,
      "note": 49,
      "start": 1.8929,
      "duration": 0.1284,
      "velocity": 92,
      "chip": "ym2612"
    },
    {
      "channel": 1,
      "note": 47,
      "start": 2.0362,
      "duration": 0.1385,
      "velocity": 92,
      "chip": "ym2612"
    },
    {
      "channel": 1,
      "note": 49,
      "start": 2.1895,
      "duration": 0.1284,
      "velocity": 92,
      "chip": "ym2612"
    },
    {
      "channel": 1,
      "note": 42,
      "start": 2.333,
      "duration": 0.1283,
      "velocity": 92,
      "chip": "ym2612"
    },
    {
      "channel": 1,
      "note": 49,
      "start": 2.4761,
      "duration": 0.1387,
      "velocity": 92,
      "chip": "ym2612"
    },
    {
      "channel": 1,
      "note": 54,
      "start": 2.6296,
      "duration": 0.1284,
      "velocity": 92,
      "chip": "ym2612"
    },
    {
      "channel": 1,
      "note": 42,
      "start": 2.7728,
      "duration": 0.1284,
      "velocity": 92,
      "chip": "ym2612"
    },
    {
      "channel": 1,
      "note": 49,
      "start": 2.9162,
      "duration": 0.1283,
      "velocity": 92,
      "chip": "ym2612"
    },
    {
      "channel": 1,
      "note": 52,
      "start": 3.0593,
      "duration": 0.1387,
      "velocity": 92,
      "chip": "ym2612"
    },
    {
      "channel": 1,
      "note": 47,
      "start": 3.2128,
      "duration": 0.1284,
      "velocity": 92,
      "chip": "ym2612"
    },
    {
      "channel": 1,
      "note": 49,
      "start": 3.3561,
      "duration": 0.1284,
      "velocity": 92,
      "chip": "ym2612"
    },
    {
      "channel": 1,
      "note": 42,
      "start": 3.4995,
      "duration": 0.1385,
      "velocity": 92,
      "chip": "ym2612"
    },
    {
      "channel": 1,
      "note": 49,
      "start": 3.6529,
      "duration": 0.1284,
      "velocity": 92,
      "chip": "ym2612"
    },
    {
      "channel": 1,
      "note": 54,
      "start": 3.7961,
      "duration": 0.1284,
      "velocity": 92,
      "chip": "ym2612"
    },
    {
      "channel": 1,
      "note": 42,
      "start": 3.9394,
      "duration": 0.1284,
      "velocity": 92,
      "chip": "ym2612"
    },
    {
      "channel": 1,
      "note": 52,
      "start": 4.0826,
      "duration": 0.1386,
      "velocity": 92,
      "chip": "ym2612"
    },
    {
      "channel": 1,
      "note": 49,
      "start": 4.2362,
      "duration": 0.1283,
      "velocity": 92,
      "chip": "ym2612"
    },
    {
      "channel": 1,
      "note": 47,
      "start": 4.3793,
      "duration": 0.1284,
      "velocity": 92,
      "chip": "ym2612"
    },
    {
      "channel": 1,
      "note": 49,
      "start": 4.5226,
      "duration": 0.1387,
      "velocity": 92,
      "chip": "ym2612"
    },
    {
      "channel": 1,
      "note": 42,
      "start": 4.6761,
      "duration": 0.1284,
      "velocity": 92,
      "chip": "ym2612"
    },
    {
      "channel": 1,
      "note": 49,
      "start": 4.8195,
      "duration": 0.1283,
      "velocity": 92,
      "chip": "ym2612"
    },
    {
      "channel": 4,
      "note": 66,
      "start": 4.8249,
      "duration": 0.1244,
      "velocity": 127,
      "chip": "ym2612"
    },
    {
      "channel": 1,
      "note": 54,
      "start": 4.9626,
      "duration": 0.1284,
      "velocity": 92,
      "chip": "ym2612"
    },
    {
      "channel": 1,
      "note": 42,
      "start": 5.1058,
      "duration": 0.1387,
      "velocity": 92,
      "chip": "ym2612"
    },
    {
      "channel": 4,
      "note": 66,
      "start": 5.1112,
      "duration": 0.1348,
      "velocity": 127,
      "chip": "ym2612"
    },
    {
      "channel": 1,
      "note": 49,
      "start": 5.2593,
      "duration": 0.1284,
      "velocity": 92,
      "chip": "ym2612"
    },
    {
      "channel": 4,
      "note": 66,
      "start": 5.2647,
      "duration": 0.1246,
      "velocity": 127,
      "chip": "ym2612"
    },
    {
      "channel": 1,
      "note": 52,
      "start": 5.4027,
      "duration": 0.1283,
      "velocity": 92,
      "chip": "ym2612"
    },
    {
      "channel": 1,
      "note": 47,
      "start": 5.5459,
      "duration": 0.1387,
      "velocity": 92,
      "chip": "ym2612"
    },
    {
      "channel": 4,
      "note": 66,
      "start": 5.5514,
      "duration": 0.1231,
      "velocity": 127,
      "chip": "ym2612"
    },
    {
      "channel": 1,
      "note": 49,
      "start": 5.6995,
      "duration": 0.1283,
      "velocity": 92,
      "chip": "ym2612"
    },
    {
      "channel": 4,
      "note": 66,
      "start": 5.7049,
      "duration": 0.1244,
      "velocity": 127,
      "chip": "ym2612"
    },
    {
      "channel": 1,
      "note": 42,
      "start": 5.8426,
      "duration": 0.1284,
      "velocity": 92,
      "chip": "ym2612"
    },
    {
      "channel": 1,
      "note": 49,
      "start": 5.9859,
      "duration": 0.1283,
      "velocity": 92,
      "chip": "ym2612"
    },
    {
      "channel": 4,
      "note": 66,
      "start": 5.9913,
      "duration": 0.1244,
      "velocity": 127,
      "chip": "ym2612"
    },
    {
      "channel": 1,
      "note": 54,
      "start": 6.129,
      "duration": 0.1387,
      "velocity": 92,
      "chip": "ym2612"
    },
    {
      "channel": 4,
      "note": 66,
      "start": 6.1346,
      "duration": 0.1347,
      "velocity": 127,
      "chip": "ym2612"
    },
    {
      "channel": 1,
      "note": 42,
      "start": 6.2826,
      "duration": 0.1284,
      "velocity": 92,
      "chip": "ym2612"
    },
    {
      "channel": 1,
      "note": 52,
      "start": 6.4258,
      "duration": 0.1284,
      "velocity": 92,
      "chip": "ym2612"
    },
    {
      "channel": 4,
      "note": 66,
      "start": 6.4313,
      "duration": 0.1245,
      "velocity": 127,
      "chip": "ym2612"
    },
    {
      "channel": 1,
      "note": 49,
      "start": 6.5692,
      "duration": 0.1385,
      "velocity": 92,
      "chip": "ym2612"
    },
    {
      "channel": 1,
      "note": 47,
      "start": 6.7226,
      "duration": 0.1284,
      "velocity": 92,
      "chip": "ym2612"
    },
    {
      "channel": 4,
      "note": 66,
      "start": 6.728,
      "duration": 0.1245,
      "velocity": 127,
      "chip": "ym2612"
    },
    {
      "channel": 1,
      "note": 49,
      "start": 6.8658,
      "duration": 0.1284,
      "velocity": 92,
      "chip": "ym2612"
    },
    {
      "channel": 1,
      "note": 42,
      "start": 7.0091,
      "duration": 0.1284,
      "velocity": 92,
      "chip": "ym2612"
    },
    {
      "channel": 4,
      "note": 66,
      "start": 7.0145,
      "duration": 0.1246,
      "velocity": 127,
      "chip": "ym2612"
    },
    {
      "channel": 1,
      "note": 49,
      "start": 7.1524,
      "duration": 0.1386,
      "velocity": 92,
      "chip": "ym2612"
    },
    {
      "channel": 4,
      "note": 66,
      "start": 7.1579,
      "duration": 0.1347,
      "velocity": 127,
      "chip": "ym2612"
    },
    {
      "channel": 1,
      "note": 54,
      "start": 7.3058,
      "duration": 0.1284,
      "velocity": 92,
      "chip": "ym2612"
    },
    {
      "channel": 1,
      "note": 42,
      "start": 7.4491,
      "duration": 0.1284,
      "velocity": 92,
      "chip": "ym2612"
    },
    {
      "channel": 4,
      "note": 66,
      "start": 7.4546,
      "duration": 0.1244,
      "velocity": 127,
      "chip": "ym2612"
    },
    {
      "channel": 1,
      "note": 49,
      "start": 7.5923,
      "duration": 0.1387,
      "velocity": 92,
      "chip": "ym2612"
    },
    {
      "channel": 4,
      "note": 66,
      "start": 7.5978,
      "duration": 0.1232,
      "velocity": 127,
      "chip": "ym2612"
    },
    {
      "channel": 1,
      "note": 52,
      "start": 7.7458,
      "duration": 0.1284,
      "velocity": 92,
      "chip": "ym2612"
    },
    {
      "channel": 1,
      "note": 47,
      "start": 7.8891,
      "duration": 0.1284,
      "velocity": 92,
      "chip": "ym2612"
    },
    {
      "channel": 4,
      "note": 66,
      "start": 7.8945,
      "duration": 0.1245,
      "velocity": 127,
      "chip": "ym2612"
    },
    {
      "channel": 1,
      "note": 49,
      "start": 8.0323,
      "duration": 0.1284,
      "velocity": 92,
      "chip": "ym2612"
    },
    {
      "channel": 4,
      "note": 66,
      "start": 8.0378,
      "duration": 0.1244,
      "velocity": 127,
      "chip": "ym2612"
    },
    {
      "channel": 1,
      "note": 42,
      "start": 8.1756,
      "duration": 0.1387,
      "velocity": 92,
      "chip": "ym2612"
    },
    {
      "channel": 1,
      "note": 49,
      "start": 8.329,
      "duration": 0.1284,
      "velocity": 92,
      "chip": "ym2612"
    },
    {
      "channel": 4,
      "note": 69,
      "start": 8.3346,
      "duration": 0.1244,
      "velocity": 127,
      "chip": "ym2612"
    },
    {
      "channel": 1,
      "note": 54,
      "start": 8.4723,
      "duration": 0.1284,
      "velocity": 92,
      "chip": "ym2612"
    },
    {
      "channel": 4,
      "note": 69,
      "start": 8.4777,
      "duration": 0.1246,
      "velocity": 127,
      "chip": "ym2612"
    },
    {
      "channel": 1,
      "note": 42,
      "start": 8.6156,
      "duration": 0.1387,
      "velocity": 92,
      "chip": "ym2612"
    },
    {
      "channel": 4,
      "note": 69,
      "start": 8.6211,
      "duration": 0.1231,
      "velocity": 127,
      "chip": "ym2612"
    },
    {
      "channel": 1,
      "note": 52,
      "start": 8.7692,
      "duration": 0.1283,
      "velocity": 92,
      "chip": "ym2612"
    },
    {
      "channel": 4,
      "note": 69,
      "start": 8.7746,
      "duration": 0.1244,
      "velocity": 127,
      "chip": "ym2612"
    },
    {
      "channel": 1,
      "note": 49,
      "start": 8.9123,
      "duration": 0.1284,
      "velocity": 92,
      "chip": "ym2612"
    },
    {
      "channel": 4,
      "note": 69,
      "start": 8.9179,
      "duration": 0.1244,
      "velocity": 127,
      "chip": "ym2612"
    },
    {
      "channel": 1,
      "note": 47,
      "start": 9.0556,
      "duration": 0.1284,
      "velocity": 92,
      "chip": "ym2612"
    },
    {
      "channel": 4,
      "note": 69,
      "start": 9.061,
      "duration": 0.1246,
      "velocity": 127,
      "chip": "ym2612"
    },
    {
      "channel": 1,
      "note": 49,
      "start": 9.1988,
      "duration": 0.1539,
      "velocity": 92,
      "chip": "ym2612"
    },
    {
      "channel": 4,
      "note": 69,
      "start": 9.2044,
      "duration": 0.139,
      "velocity": 127,
      "chip": "ym2612"
    },
    {
      "channel": 0,
      "note": 46,
      "start": 9.3523,
      "duration": 0.0568,
      "velocity": 122,
      "chip": "ym2612"
    },
    {
      "channel": 1,
      "note": 42,
      "start": 9.3576,
      "duration": 0.1238,
      "velocity": 92,
      "chip": "ym2612"
    },
    {
      "channel": 3,
      "note": 66,
      "start": 9.363,
      "duration": 2.2983,
      "velocity": 108,
      "chip": "ym2612"
    },
    {
      "channel": 2,
      "note": 61,
      "start": 9.3832,
      "duration": 17.0397,
      "velocity": 108,
      "chip": "ym2612"
    },
    {
      "channel": 0,
      "note": 56,
      "start": 9.4955,
      "duration": 0.1286,
      "velocity": 122,
      "chip": "ym2612"
    },
    {
      "channel": 1,
      "note": 49,
      "start": 9.5008,
      "duration": 0.1241,
      "velocity": 92,
      "chip": "ym2612"
    },
    {
      "channel": 4,
      "note": 66,
      "start": 9.5063,
      "duration": 0.1202,
      "velocity": 127,
      "chip": "ym2612"
    },
    {
      "channel": 1,
      "note": 54,
      "start": 9.639,
      "duration": 0.1392,
      "velocity": 92,
      "chip": "ym2612"
    },
    {
      "channel": 0,
      "note": 56,
      "start": 9.7922,
      "duration": 0.1081,
      "velocity": 122,
      "chip": "ym2612"
    },
    {
      "channel": 1,
      "note": 42,
      "start": 9.7975,
      "duration": 0.1239,
      "velocity": 92,
      "chip": "ym2612"
    },
    {
      "channel": 4,
      "note": 66,
      "start": 9.803,
      "duration": 0.1198,
      "velocity": 127,
      "chip": "ym2612"
    },
    {
      "channel": 0,
      "note": 53,
      "start": 9.9356,
      "duration": 0.0875,
      "velocity": 122,
      "chip": "ym2612"
    },
    {
      "channel": 1,
      "note": 49,
      "start": 9.9409,
      "duration": 0.1231,
      "velocity": 92,
      "chip": "ym2612"
    },
    {
      "channel": 4,
      "note": 66,
      "start": 9.9463,
      "duration": 0.1192,
      "velocity": 127,
      "chip": "ym2612"
    },
    {
      "channel": 1,
      "note": 52,
      "start": 10.0788,
      "duration": 0.1291,
      "velocity": 92,
      "chip": "ym2612"
    },
    {
      "channel": 0,
      "note": 49,
      "start": 10.222,
      "duration": 0.0775,
      "velocity": 122,
      "chip": "ym2612"
    },
    {
      "channel": 1,
      "note": 47,
      "start": 10.2273,
      "duration": 0.1334,
      "velocity": 92,
      "chip": "ym2612"
    },
    {
      "channel": 4,
      "note": 66,
      "start": 10.2329,
      "duration": 0.1294,
      "velocity": 127,
      "chip": "ym2612"
    },
    {
      "channel": 1,
      "note": 49,
      "start": 10.3756,
      "duration": 0.1284,
      "velocity": 92,
      "chip": "ym2612"
    },
    {
      "channel": 4,
      "note": 66,
      "start": 10.381,
      "duration": 0.1245,
      "velocity": 127,
      "chip": "ym2612"
    },
    {
      "channel": 1,
      "note": 42,
      "start": 10.5189,
      "duration": 0.1283,
      "velocity": 92,
      "chip": "ym2612"
    },
    {
      "channel": 1,
      "note": 49,
      "start": 10.6621,
      "duration": 0.1393,
      "velocity": 92,
      "chip": "ym2612"
    },
    {
      "channel": 4,
      "note": 66,
      "start": 10.6676,
      "duration": 0.1231,
      "velocity": 127,
      "chip": "ym2612"
    },
    {
      "channel": 0,
      "note": 52,
      "start": 10.8154,
      "duration": 0.0467,
      "velocity": 122,
      "chip": "ym2612"
    },
    {
      "channel": 1,
      "note": 54,
      "start": 10.8209,
      "duration": 0.1238,
      "velocity": 92,
      "chip": "ym2612"
    },
    {
      "channel": 4,
      "note": 66,
      "start": 10.8263,
      "duration": 0.1198,
      "velocity": 127,
      "chip": "ym2612"
    },
    {
      "channel": 0,
      "note": 50,
      "start": 10.9587,
      "duration": 0.1183,
      "velocity": 122,
      "chip": "ym2612"
    },
    {
      "channel": 1,
      "note": 42,
      "start": 10.964,
      "duration": 0.1242,
      "velocity": 92,
      "chip": "ym2612"
    },
    {
      "channel": 0,
      "note": 52,
      "start": 11.1021,
      "duration": 0.0466,
      "velocity": 122,
      "chip": "ym2612"
    },
    {
      "channel": 1,
      "note": 52,
      "start": 11.1074,
      "duration": 0.1238,
      "velocity": 92,
      "chip": "ym2612"
    },
    {
      "channel": 4,
      "note": 66,
      "start": 11.1128,
      "duration": 0.12,
      "velocity": 127,
      "chip": "ym2612"
    },
    {
      "channel": 0,
      "note": 50,
      "start": 11.2452,
      "duration": 0.1387,
      "velocity": 122,
      "chip": "ym2612"
    },
    {
      "channel": 1,
      "note": 49,
      "start": 11.2506,
      "duration": 0.1348,
      "velocity": 92,
      "chip": "ym2612"
    },
    {
      "channel": 0,
      "note": 52,
      "start": 11.3987,
      "duration": 0.0672,
      "velocity": 122,
      "chip": "ym2612"
    },
    {
      "channel": 1,
      "note": 47,
      "start": 11.4041,
      "duration": 0.1237,
      "velocity": 92,
      "chip": "ym2612"
    },
    {
      "channel": 4,
      "note": 66,
      "start": 11.4096,
      "duration": 0.1198,
      "velocity": 127,
      "chip": "ym2612"
    },
    {
      "channel": 0,
      "note": 52,
      "start": 11.542,
      "duration": 0.1183,
      "velocity": 122,
      "chip": "ym2612"
    },
    {
      "channel": 1,
      "note": 49,
      "start": 11.5473,
      "duration": 0.124,
      "velocity": 92,
      "chip": "ym2612"
    },
    {
      "channel": 0,
      "note": 46,
      "start": 11.6854,
      "duration": 0.067,
      "velocity": 122,
      "chip": "ym2612"
    },
    {
      "channel": 1,
      "note": 42,
      "start": 11.6906,
      "duration": 0.134,
      "velocity": 92,
      "chip": "ym2612"
    },
    {
      "channel": 3,
      "note": 68,
      "start": 11.696,
      "duration": 2.3202,
      "velocity": 108,
      "chip": "ym2612"
    },
    {
      "channel": 4,
      "note": 66,
      "start": 11.7014,
      "duration": 0.1126,
      "velocity": 127,
      "chip": "ym2612"
    },
    {
      "channel": 0,
      "note": 56,
      "start": 11.8387,
      "duration": 0.1183,
      "velocity": 122,
      "chip": "ym2612"
    },
    {
      "channel": 1,
      "note": 49,
      "start": 11.844,
      "duration": 0.1235,
      "velocity": 92,
      "chip": "ym2612"
    },
    {
      "channel": 4,
      "note": 66,
      "start": 11.8496,
      "duration": 0.1194,
      "velocity": 127,
      "chip": "ym2612"
    },
    {
      "channel": 1,
      "note": 54,
      "start": 11.982,
      "duration": 0.1291,
      "velocity": 92,
      "chip": "ym2612"
    },
    {
      "channel": 0,
      "note": 56,
      "start": 12.1252,
      "duration": 0.1183,
      "velocity": 122,
      "chip": "ym2612"
    },
    {
      "channel": 1,
      "note": 42,
      "start": 12.1305,
      "duration": 0.1241,
      "velocity": 92,
      "chip": "ym2612"
    },
    {
      "channel": 4,
      "note": 66,
      "start": 12.1361,
      "duration": 0.1201,
      "velocity": 127,
      "chip": "ym2612"
    },
    {
      "channel": 0,
      "note": 53,
      "start": 12.2686,
      "duration": 0.0978,
      "velocity": 122,
      "chip": "ym2612"
    },
    {
      "channel": 1,
      "note": 49,
      "start": 12.2738,
      "duration": 0.1334,
      "velocity": 92,
      "chip": "ym2612"
    },
    {
      "channel": 4,
      "note": 66,
      "start": 12.2793,
      "duration": 0.1294,
      "velocity": 127,
      "chip": "ym2612"
    },
    {
      "channel": 1,
      "note": 52,
      "start": 12.4221,
      "duration": 0.1291,
      "velocity": 92,
      "chip": "ym2612"
    },
    {
      "channel": 0,
      "note": 49,
      "start": 12.5652,
      "duration": 0.0672,
      "velocity": 122,
      "chip": "ym2612"
    },
    {
      "channel": 1,
      "note": 47,
      "start": 12.5706,
      "duration": 0.1231,
      "velocity": 92,
      "chip": "ym2612"
    },
    {
      "channel": 4,
      "note": 66,
      "start": 12.5761,
      "duration": 0.1191,
      "velocity": 127,
      "chip": "ym2612"
    },
    {
      "channel": 1,
      "note": 49,
      "start": 12.7086,
      "duration": 0.1386,
      "velocity": 92,
      "chip": "ym2612"
    },
    {
      "channel": 4,
      "note": 66,
      "start": 12.714,
      "duration": 0.1232,
      "velocity": 127,
      "chip": "ym2612"
    },
    {
      "channel": 1,
      "note": 42,
      "start": 12.862,
      "duration": 0.1284,
      "velocity": 92,
      "chip": "ym2612"
    },
    {
      "channel": 1,
      "note": 49,
      "start": 13.0053,
      "duration": 0.1291,
      "velocity": 92,
      "chip": "ym2612"
    },
    {
      "channel": 4,
      "note": 69,
      "start": 13.0107,
      "duration": 0.1252,
      "velocity": 127,
      "chip": "ym2612"
    },
    {
      "channel": 0,
      "note": 52,
      "start": 13.1485,
      "duration": 0.0569,
      "velocity": 122,
      "chip": "ym2612"
    },
    {
      "channel": 1,
      "note": 54,
      "start": 13.1539,
      "duration": 0.1238,
      "velocity": 92,
      "chip": "ym2612"
    },
    {
      "channel": 4,
      "note": 69,
      "start": 13.1593,
      "duration": 0.1198,
      "velocity": 127,
      "chip": "ym2612"
    },
    {
      "channel": 0,
      "note": 50,
      "start": 13.2917,
      "duration": 0.1285,
      "velocity": 122,
      "chip": "ym2612"
    },
    {
      "channel": 1,
      "note": 42,
      "start": 13.297,
      "duration": 0.1344,
      "velocity": 92,
      "chip": "ym2612"
    },
    {
      "channel": 4,
      "note": 69,
      "start": 13.3026,
      "duration": 0.1304,
      "velocity": 127,
      "chip": "ym2612"
    },
    {
      "channel": 0,
      "note": 52,
      "start": 13.4452,
      "duration": 0.0467,
      "velocity": 122,
      "chip": "ym2612"
    },
    {
      "channel": 1,
      "note": 52,
      "start": 13.4506,
      "duration": 0.1237,
      "velocity": 92,
      "chip": "ym2612"
    },
    {
      "channel": 4,
      "note": 69,
      "start": 13.4561,
      "duration": 0.1198,
      "velocity": 127,
      "chip": "ym2612"
    },
    {
      "channel": 0,
      "note": 50,
      "start": 13.5885,
      "duration": 0.1285,
      "velocity": 122,
      "chip": "ym2612"
    },
    {
      "channel": 1,
      "note": 49,
      "start": 13.5937,
      "duration": 0.1247,
      "velocity": 92,
      "chip": "ym2612"
    },
    {
      "channel": 4,
      "note": 69,
      "start": 13.5992,
      "duration": 0.1207,
      "velocity": 127,
      "chip": "ym2612"
    },
    {
      "channel": 0,
      "note": 52,
      "start": 13.7317,
      "duration": 0.0774,
      "velocity": 122,
      "chip": "ym2612"
    },
    {
      "channel": 1,
      "note": 47,
      "start": 13.7371,
      "duration": 0.134,
      "velocity": 92,
      "chip": "ym2612"
    },
    {
      "channel": 4,
      "note": 69,
      "start": 13.7425,
      "duration": 0.1179,
      "velocity": 127,
      "chip": "ym2612"
    },
    {
      "channel": 0,
      "note": 52,
      "start": 13.8854,
      "duration": 0.1181,
      "velocity": 122,
      "chip": "ym2612"
    },
    {
      "channel": 1,
      "note": 49,
      "start": 13.8906,
      "duration": 0.124,
      "velocity": 92,
      "chip": "ym2612"
    },
    {
      "channel": 4,
      "note": 69,
      "start": 13.8961,
      "duration": 0.1216,
      "velocity": 127,
      "chip": "ym2612"
    },
    {
      "channel": 0,
      "note": 46,
      "start": 14.0285,
      "duration": 0.0671,
      "velocity": 122,
      "chip": "ym2612"
    },
    {
      "channel": 1,
      "note": 42,
      "start": 14.0338,
      "duration": 0.1238,
      "velocity": 92,
      "chip": "ym2612"
    },
    {
      "channel": 3,
      "note": 71,
      "start": 14.0392,
      "duration": 2.3105,
      "velocity": 108,
      "chip": "ym2612"
    },
    {
      "channel": 0,
      "note": 56,
      "start": 14.1717,
      "duration": 0.1285,
      "velocity": 122,
      "chip": "ym2612"
    },
    {
      "channel": 1,
      "note": 49,
      "start": 14.177,
      "duration": 0.1241,
      "velocity": 92,
      "chip": "ym2612"
    },
    {
      "channel": 4,
      "note": 66,
      "start": 14.1825,
      "duration": 0.1202,
      "velocity": 127,
      "chip": "ym2612"
    },
    {
      "channel": 1,
      "note": 54,
      "start": 14.3153,
      "duration": 0.1391,
      "velocity": 92,
      "chip": "ym2612"
    },
    {
      "channel": 0,
      "note": 56,
      "start": 14.4686,
      "duration": 0.1079,
      "velocity": 122,
      "chip": "ym2612"
    },
    {
      "channel": 1,
      "note": 42,
      "start": 14.4738,
      "duration": 0.1238,
      "velocity": 92,
      "chip": "ym2612"
    },
    {
      "channel": 4,
      "note": 66,
      "start": 14.4793,
      "duration": 0.1198,
      "velocity": 127,
      "chip": "ym2612"
    },
    {
      "channel": 0,
      "note": 53,
      "start": 14.6117,
      "duration": 0.0978,
      "velocity": 122,
      "chip": "ym2612"
    },
    {
      "channel": 1,
      "note": 49,
      "start": 14.6171,
      "duration": 0.1231,
      "velocity": 92,
      "chip": "ym2612"
    },
    {
      "channel": 4,
      "note": 66,
      "start": 14.6226,
      "duration": 0.1192,
      "velocity": 127,
      "chip": "ym2612"
    },
    {
      "channel": 1,
      "note": 52,
      "start": 14.7551,
      "duration": 0.1393,
      "velocity": 92,
      "chip": "ym2612"
    },
    {
      "channel": 0,
      "note": 49,
      "start": 14.9084,
      "duration": 0.0671,
      "velocity": 122,
      "chip": "ym2612"
    },
    {
      "channel": 1,
      "note": 47,
      "start": 14.9137,
      "duration": 0.1232,
      "velocity": 92,
      "chip": "ym2612"
    },
    {
      "channel": 4,
      "note": 66,
      "start": 14.9193,
      "duration": 0.1192,
      "velocity": 127,
      "chip": "ym2612"
    },
    {
      "channel": 1,
      "note": 49,
      "start": 15.0519,
      "duration": 0.1283,
      "velocity": 92,
      "chip": "ym2612"
    },
    {
      "channel": 4,
      "note": 66,
      "start": 15.0573,
      "duration": 0.1244,
      "velocity": 127,
      "chip": "ym2612"
    },
    {
      "channel": 1,
      "note": 42,
      "start": 15.195,
      "duration": 0.1284,
      "velocity": 92,
      "chip": "ym2612"
    },
    {
      "channel": 1,
      "note": 49,
      "start": 15.3383,
      "duration": 0.1393,
      "velocity": 92,
      "chip": "ym2612"
    },
    {
      "channel": 4,
      "note": 66,
      "start": 15.3437,
      "duration": 0.1354,
      "velocity": 127,
      "chip": "ym2612"
    },
    {
      "channel": 0,
      "note": 52,
      "start": 15.4917,
      "duration": 0.0466,
      "velocity": 122,
      "chip": "ym2612"
    },
    {
      "channel": 1,
      "note": 54,
      "start": 15.497,
      "duration": 0.1239,
      "velocity": 92,
      "chip": "ym2612"
    },
    {
      "channel": 4,
      "note": 66,
      "start": 15.5026,
      "duration": 0.1198,
      "velocity": 127,
      "chip": "ym2612"
    },
    {
      "channel": 0,
      "note": 50,
      "start": 15.6351,
      "duration": 0.1181,
      "velocity": 122,
      "chip": "ym2612"
    },
    {
      "channel": 1,
      "note": 42,
      "start": 15.6404,
      "duration": 0.124,
      "velocity": 92,
      "chip": "ym2612"
    },
    {
      "channel": 0,
      "note": 52,
      "start": 15.7782,
      "duration": 0.0466,
      "velocity": 122,
      "chip": "ym2612"
    },
    {
      "channel": 1,
      "note": 52,
      "start": 15.7836,
      "duration": 0.134,
      "velocity": 92,
      "chip": "ym2612"
    },
    {
      "channel": 4,
      "note": 66,
      "start": 15.789,
      "duration": 0.1179,
      "velocity": 127,
      "chip": "ym2612"
    },
    {
      "channel": 0,
      "note": 50,
      "start": 15.9317,
      "duration": 0.1285,
      "velocity": 122,
      "chip": "ym2612"
    },
    {
      "channel": 1,
      "note": 49,
      "start": 15.9371,
      "duration": 0.1246,
      "velocity": 92,
      "chip": "ym2612"
    },
    {
      "channel": 0,
      "note": 52,
      "start": 16.075,
      "duration": 0.0671,
      "velocity": 122,
      "chip": "ym2612"
    },
    {
      "channel": 1,
      "note": 47,
      "start": 16.0803,
      "duration": 0.1239,
      "velocity": 92,
      "chip": "ym2612"
    },
    {
      "channel": 4,
      "note": 66,
      "start": 16.0858,
      "duration": 0.1198,
      "velocity": 127,
      "chip": "ym2612"
    },
    {
      "channel": 0,
      "note": 52,
      "start": 16.2183,
      "duration": 0.1284,
      "velocity": 122,
      "chip": "ym2612"
    },
    {
      "channel": 1,
      "note": 49,
      "start": 16.2236,
      "duration": 0.1246,
      "velocity": 92,
      "chip": "ym2612"
    },
    {
      "channel": 0,
      "note": 46,
      "start": 16.3614,
      "duration": 0.0672,
      "velocity": 122,
      "chip": "ym2612"
    },
    {
      "channel": 1,
      "note": 42,
      "start": 16.3668,
      "duration": 0.134,
      "velocity": 92,
      "chip": "ym2612"
    },
    {
      "channel": 3,
      "note": 70,
      "start": 16.3722,
      "duration": 2.3201,
      "velocity": 108,
      "chip": "ym2612"
    },
    {
      "channel": 4,
      "note": 66,
      "start": 16.3775,
      "duration": 0.1249,
      "velocity": 127,
      "chip": "ym2612"
    },
    {
      "channel": 0,
      "note": 56,
      "start": 16.5149,
      "duration": 0.1184,
      "velocity": 122,
      "chip": "ym2612"
    },
    {
      "channel": 1,
      "note": 49,
      "start": 16.5203,
      "duration": 0.1234,
      "velocity": 92,
      "chip": "ym2612"
    },
    {
      "channel": 4,
      "note": 66,
      "start": 16.5258,
      "duration": 0.1194,
      "velocity": 127,
      "chip": "ym2612"
    },
    {
      "channel": 1,
      "note": 54,
      "start": 16.6583,
      "duration": 0.1291,
      "velocity": 92,
      "chip": "ym2612"
    },
    {
      "channel": 0,
      "note": 56,
      "start": 16.8016,
      "duration": 0.1182,
      "velocity": 122,
      "chip": "ym2612"
    },
    {
      "channel": 1,
      "note": 42,
      "start": 16.8068,
      "duration": 0.134,
      "velocity": 92,
      "chip": "ym2612"
    },
    {
      "channel": 4,
      "note": 66,
      "start": 16.8123,
      "duration": 0.118,
      "velocity": 127,
      "chip": "ym2612"
    },
    {
      "channel": 0,
      "note": 53,
      "start": 16.9549,
      "duration": 0.0876,
      "velocity": 122,
      "chip": "ym2612"
    },
    {
      "channel": 1,
      "note": 49,
      "start": 16.9602,
      "duration": 0.1232,
      "velocity": 92,
      "chip": "ym2612"
    },
    {
      "channel": 4,
      "note": 66,
      "start": 16.9657,
      "duration": 0.1193,
      "velocity": 127,
      "chip": "ym2612"
    },
    {
      "channel": 1,
      "note": 52,
      "start": 17.0983,
      "duration": 0.1291,
      "velocity": 92,
      "chip": "ym2612"
    },
    {
      "channel": 0,
      "note": 49,
      "start": 17.2415,
      "duration": 0.0774,
      "velocity": 122,
      "chip": "ym2612"
    },
    {
      "channel": 1,
      "note": 47,
      "start": 17.2467,
      "duration": 0.1232,
      "velocity": 92,
      "chip": "ym2612"
    },
    {
      "channel": 4,
      "note": 66,
      "start": 17.2523,
      "duration": 0.1192,
      "velocity": 127,
      "chip": "ym2612"
    },
    {
      "channel": 1,
      "note": 49,
      "start": 17.3849,
      "duration": 0.1386,
      "velocity": 92,
      "chip": "ym2612"
    },
    {
      "channel": 4,
      "note": 66,
      "start": 17.3903,
      "duration": 0.1347,
      "velocity": 127,
      "chip": "ym2612"
    },
    {
      "channel": 1,
      "note": 42,
      "start": 17.5383,
      "duration": 0.1285,
      "velocity": 92,
      "chip": "ym2612"
    },
    {
      "channel": 1,
      "note": 49,
      "start": 17.6815,
      "duration": 0.1291,
      "velocity": 92,
      "chip": "ym2612"
    },
    {
      "channel": 4,
      "note": 69,
      "start": 17.6871,
      "duration": 0.1251,
      "velocity": 127,
      "chip": "ym2612"
    },
    {
      "channel": 0,
      "note": 52,
      "start": 17.8247,
      "duration": 0.0569,
      "velocity": 122,
      "chip": "ym2612"
    },
    {
      "channel": 1,
      "note": 54,
      "start": 17.83,
      "duration": 0.1341,
      "velocity": 92,
      "chip": "ym2612"
    },
    {
      "channel": 4,
      "note": 69,
      "start": 17.8356,
      "duration": 0.1179,
      "velocity": 127,
      "chip": "ym2612"
    },
    {
      "channel": 0,
      "note": 50,
      "start": 17.9782,
      "duration": 0.1183,
      "velocity": 122,
      "chip": "ym2612"
    },
    {
      "channel": 1,
      "note": 42,
      "start": 17.9836,
      "duration": 0.124,
      "velocity": 92,
      "chip": "ym2612"
    },
    {
      "channel": 4,
      "note": 69,
      "start": 17.989,
      "duration": 0.1201,
      "velocity": 127,
      "chip": "ym2612"
    },
    {
      "channel": 0,
      "note": 52,
      "start": 18.1214,
      "duration": 0.0467,
      "velocity": 122,
      "chip": "ym2612"
    },
    {
      "channel": 1,
      "note": 52,
      "start": 18.1267,
      "duration": 0.124,
      "velocity": 92,
      "chip": "ym2612"
    },
    {
      "channel": 4,
      "note": 69,
      "start": 18.1322,
      "duration": 0.12,
      "velocity": 127,
      "chip": "ym2612"
    },
    {
      "channel": 0,
      "note": 50,
      "start": 18.2647,
      "duration": 0.1286,
      "velocity": 122,
      "chip": "ym2612"
    },
    {
      "channel": 1,
      "note": 49,
      "start": 18.2701,
      "duration": 0.1246,
      "velocity": 92,
      "chip": "ym2612"
    },
    {
      "channel": 4,
      "note": 69,
      "start": 18.2756,
      "duration": 0.1207,
      "velocity": 127,
      "chip": "ym2612"
    },
    {
      "channel": 0,
      "note": 52,
      "start": 18.4079,
      "duration": 0.0773,
      "velocity": 122,
      "chip": "ym2612"
    },
    {
      "channel": 1,
      "note": 47,
      "start": 18.4132,
      "duration": 0.1341,
      "velocity": 92,
      "chip": "ym2612"
    },
    {
      "channel": 4,
      "note": 69,
      "start": 18.4188,
      "duration": 0.13,
      "velocity": 127,
      "chip": "ym2612"
    },
    {
      "channel": 0,
      "note": 52,
      "start": 18.5614,
      "duration": 0.1183,
      "velocity": 122,
      "chip": "ym2612"
    },
    {
      "channel": 1,
      "note": 49,
      "start": 18.5668,
      "duration": 0.124,
      "velocity": 92,
      "chip": "ym2612"
    },
    {
      "channel": 4,
      "note": 69,
      "start": 18.5722,
      "duration": 0.1216,
      "velocity": 127,
      "chip": "ym2612"
    },
    {
      "channel": 0,
      "note": 46,
      "start": 18.7047,
      "duration": 0.0295,
      "velocity": 122,
      "chip": "ym2612"
    },
    {
      "channel": 1,
      "note": 42,
      "start": 18.71,
      "duration": 0.0441,
      "velocity": 92,
      "chip": "ym2612"
    },
    {
      "channel": 3,
      "note": 66,
      "start": 18.7154,
      "duration": 2.0428,
      "velocity": 108,
      "chip": "ym2612"
    },
    {
      "channel": 0,
      "note": 56,
      "start": 18.7623,
      "duration": 0.0463,
      "velocity": 122,
      "chip": "ym2612"
    },
    {
      "channel": 1,
      "note": 49,
      "start": 18.7669,
      "duration": 0.0451,
      "velocity": 92,
      "chip": "ym2612"
    },
    {
      "channel": 4,
      "note": 66,
      "start": 18.7717,
      "duration": 0.0374,
      "velocity": 127,
      "chip": "ym2612"
    },
    {
      "channel": 1,
      "note": 54,
      "start": 18.8196,
      "duration": 0.087,
      "velocity": 92,
      "chip": "ym2612"
    },
    {
      "channel": 0,
      "note": 56,
      "start": 18.9207,
      "duration": 0.1183,
      "velocity": 122,
      "chip": "ym2612"
    },
    {
      "channel": 1,
      "note": 42,
      "start": 18.9261,
      "duration": 0.124,
      "velocity": 92,
      "chip": "ym2612"
    },
    {
      "channel": 4,
      "note": 66,
      "start": 18.9316,
      "duration": 0.12,
      "velocity": 127,
      "chip": "ym2612"
    },
    {
      "channel": 0,
      "note": 53,
      "start": 19.0639,
      "duration": 0.0978,
      "velocity": 122,
      "chip": "ym2612"
    },
    {
      "channel": 1,
      "note": 49,
      "start": 19.0692,
      "duration": 0.1233,
      "velocity": 92,
      "chip": "ym2612"
    },
    {
      "channel": 4,
      "note": 66,
      "start": 19.0747,
      "duration": 0.1193,
      "velocity": 127,
      "chip": "ym2612"
    },
    {
      "channel": 1,
      "note": 52,
      "start": 19.2073,
      "duration": 0.1393,
      "velocity": 92,
      "chip": "ym2612"
    },
    {
      "channel": 0,
      "note": 49,
      "start": 19.3608,
      "duration": 0.0671,
      "velocity": 122,
      "chip": "ym2612"
    },
    {
      "channel": 1,
      "note": 47,
      "start": 19.3661,
      "duration": 0.1231,
      "velocity": 92,
      "chip": "ym2612"
    },
    {
      "channel": 4,
      "note": 66,
      "start": 19.3715,
      "duration": 0.1191,
      "velocity": 127,
      "chip": "ym2612"
    },
    {
      "channel": 1,
      "note": 49,
      "start": 19.504,
      "duration": 0.1284,
      "velocity": 92,
      "chip": "ym2612"
    },
    {
      "channel": 4,
      "note": 66,
      "start": 19.5096,
      "duration": 0.1244,
      "velocity": 127,
      "chip": "ym2612"
    },
    {
      "channel": 1,
      "note": 42,
      "start": 19.6473,
      "duration": 0.1385,
      "velocity": 92,
      "chip": "ym2612"
    },
    {
      "channel": 1,
      "note": 49,
      "start": 19.8008,
      "duration": 0.1291,
      "velocity": 92,
      "chip": "ym2612"
    },
    {
      "channel": 4,
      "note": 66,
      "start": 19.8062,
      "duration": 0.1252,
      "velocity": 127,
      "chip": "ym2612"
    },
    {
      "channel": 0,
      "note": 52,
      "start": 19.944,
      "duration": 0.0568,
      "velocity": 122,
      "chip": "ym2612"
    },
    {
      "channel": 1,
      "note": 54,
      "start": 19.9493,
      "duration": 0.1238,
      "velocity": 92,
      "chip": "ym2612"
    },
    {
      "channel": 4,
      "note": 66,
      "start": 19.9548,
      "duration": 0.1198,
      "velocity": 127,
      "chip": "ym2612"
    },
    {
      "channel": 0,
      "note": 50,
      "start": 20.0872,
      "duration": 0.1183,
      "velocity": 122,
      "chip": "ym2612"
    },
    {
      "channel": 1,
      "note": 42,
      "start": 20.0926,
      "duration": 0.124,
      "velocity": 92,
      "chip": "ym2612"
    },
    {
      "channel": 0,
      "note": 52,
      "start": 20.2305,
      "duration": 0.0466,
      "velocity": 122,
      "chip": "ym2612"
    },
    {
      "channel": 1,
      "note": 52,
      "start": 20.2358,
      "duration": 0.134,
      "velocity": 92,
      "chip": "ym2612"
    },
    {
      "channel": 4,
      "note": 66,
      "start": 20.2412,
      "duration": 0.1301,
      "velocity": 127,
      "chip": "ym2612"
    },
    {
      "channel": 0,
      "note": 50,
      "start": 20.3839,
      "duration": 0.1285,
      "velocity": 122,
      "chip": "ym2612"
    },
    {
      "channel": 1,
      "note": 49,
      "start": 20.3892,
      "duration": 0.1247,
      "velocity": 92,
      "chip": "ym2612"
    },
    {
      "channel": 0,
      "note": 52,
      "start": 20.5273,
      "duration": 0.067,
      "velocity": 122,
      "chip": "ym2612"
    },
    {
      "channel": 1,
      "note": 47,
      "start": 20.5326,
      "duration": 0.1237,
      "velocity": 92,
      "chip": "ym2612"
    },
    {
      "channel": 4,
      "note": 66,
      "start": 20.538,
      "duration": 0.1198,
      "velocity": 127,
      "chip": "ym2612"
    },
    {
      "channel": 0,
      "note": 52,
      "start": 20.6704,
      "duration": 0.1285,
      "velocity": 122,
      "chip": "ym2612"
    },
    {
      "channel": 1,
      "note": 49,
      "start": 20.6759,
      "duration": 0.1344,
      "velocity": 92,
      "chip": "ym2612"
    },
    {
      "channel": 0,
      "note": 46,
      "start": 20.8239,
      "duration": 0.0439,
      "velocity": 122,
      "chip": "ym2612"
    },
    {
      "channel": 1,
      "note": 42,
      "start": 20.8293,
      "duration": 0.0617,
      "velocity": 92,
      "chip": "ym2612"
    },
    {
      "channel": 3,
      "note": 68,
      "start": 20.8347,
      "duration": 2.0894,
      "velocity": 108,
      "chip": "ym2612"
    },
    {
      "channel": 4,
      "note": 66,
      "start": 20.84,
      "duration": 0.0521,
      "velocity": 127,
      "chip": "ym2612"
    },
    {
      "channel": 0,
      "note": 56,
      "start": 20.8996,
      "duration": 0.0441,
      "velocity": 122,
      "chip": "ym2612"
    },
    {
      "channel": 1,
      "note": 49,
      "start": 20.9038,
      "duration": 0.0431,
      "velocity": 92,
      "chip": "ym2612"
    },
    {
      "channel": 4,
      "note": 66,
      "start": 20.9087,
      "duration": 0.0394,
      "velocity": 127,
      "chip": "ym2612"
    },
    {
      "channel": 1,
      "note": 54,
      "start": 20.9552,
      "duration": 0.0639,
      "velocity": 92,
      "chip": "ym2612"
    },
    {
      "channel": 0,
      "note": 56,
      "start": 21.0331,
      "duration": 0.1183,
      "velocity": 122,
      "chip": "ym2612"
    },
    {
      "channel": 1,
      "note": 42,
      "start": 21.0385,
      "duration": 0.1341,
      "velocity": 92,
      "chip": "ym2612"
    },
    {
      "channel": 4,
      "note": 66,
      "start": 21.0439,
      "duration": 0.1302,
      "velocity": 127,
      "chip": "ym2612"
    },
    {
      "channel": 0,
      "note": 53,
      "start": 21.1866,
      "duration": 0.0876,
      "velocity": 122,
      "chip": "ym2612"
    },
    {
      "channel": 1,
      "note": 49,
      "start": 21.192,
      "duration": 0.1232,
      "velocity": 92,
      "chip": "ym2612"
    },
    {
      "channel": 4,
      "note": 66,
      "start": 21.1975,
      "duration": 0.1192,
      "velocity": 127,
      "chip": "ym2612"
    },
    {
      "channel": 1,
      "note": 52,
      "start": 21.33,
      "duration": 0.1291,
      "velocity": 92,
      "chip": "ym2612"
    },
    {
      "channel": 0,
      "note": 49,
      "start": 21.4732,
      "duration": 0.0772,
      "velocity": 122,
      "chip": "ym2612"
    },
    {
      "channel": 1,
      "note": 47,
      "start": 21.4785,
      "duration": 0.1333,
      "velocity": 92,
      "chip": "ym2612"
    },
    {
      "channel": 4,
      "note": 66,
      "start": 21.484,
      "duration": 0.1179,
      "velocity": 127,
      "chip": "ym2612"
    },
    {
      "channel": 1,
      "note": 49,
      "start": 21.6268,
      "duration": 0.1284,
      "velocity": 92,
      "chip": "ym2612"
    },
    {
      "channel": 4,
      "note": 66,
      "start": 21.6322,
      "duration": 0.1246,
      "velocity": 127,
      "chip": "ym2612"
    },
    {
      "channel": 1,
      "note": 42,
      "start": 21.7699,
      "duration": 0.1284,
      "velocity": 92,
      "chip": "ym2612"
    },
    {
      "channel": 1,
      "note": 49,
      "start": 21.9132,
      "duration": 0.1291,
      "velocity": 92,
      "chip": "ym2612"
    },
    {
      "channel": 4,
      "note": 69,
      "start": 21.9186,
      "duration": 0.1252,
      "velocity": 127,
      "chip": "ym2612"
    },
    {
      "channel": 0,
      "note": 52,
      "start": 22.0565,
      "duration": 0.0567,
      "velocity": 122,
      "chip": "ym2612"
    },
    {
      "channel": 1,
      "note": 54,
      "start": 22.0618,
      "duration": 0.134,
      "velocity": 92,
      "chip": "ym2612"
    },
    {
      "channel": 4,
      "note": 69,
      "start": 22.0672,
      "duration": 0.13,
      "velocity": 127,
      "chip": "ym2612"
    },
    {
      "channel": 0,
      "note": 50,
      "start": 22.2099,
      "duration": 0.1182,
      "velocity": 122,
      "chip": "ym2612"
    },
    {
      "channel": 1,
      "note": 42,
      "start": 22.2152,
      "duration": 0.1242,
      "velocity": 92,
      "chip": "ym2612"
    },
    {
      "channel": 4,
      "note": 69,
      "start": 22.2207,
      "duration": 0.1202,
      "velocity": 127,
      "chip": "ym2612"
    },
    {
      "channel": 0,
      "note": 52,
      "start": 22.3531,
      "duration": 0.0466,
      "velocity": 122,
      "chip": "ym2612"
    },
    {
      "channel": 1,
      "note": 52,
      "start": 22.3585,
      "duration": 0.1238,
      "velocity": 92,
      "chip": "ym2612"
    },
    {
      "channel": 4,
      "note": 69,
      "start": 22.3639,
      "duration": 0.1199,
      "velocity": 127,
      "chip": "ym2612"
    },
    {
      "channel": 0,
      "note": 50,
      "start": 22.4964,
      "duration": 0.1285,
      "velocity": 122,
      "chip": "ym2612"
    },
    {
      "channel": 1,
      "note": 49,
      "start": 22.5017,
      "duration": 0.1343,
      "velocity": 92,
      "chip": "ym2612"
    },
    {
      "channel": 4,
      "note": 69,
      "start": 22.5072,
      "duration": 0.1188,
      "velocity": 127,
      "chip": "ym2612"
    },
    {
      "channel": 0,
      "note": 52,
      "start": 22.6498,
      "duration": 0.0672,
      "velocity": 122,
      "chip": "ym2612"
    },
    {
      "channel": 1,
      "note": 47,
      "start": 22.6552,
      "duration": 0.1238,
      "velocity": 92,
      "chip": "ym2612"
    },
    {
      "channel": 4,
      "note": 69,
      "start": 22.6607,
      "duration": 0.1198,
      "velocity": 127,
      "chip": "ym2612"
    },
    {
      "channel": 0,
      "note": 52,
      "start": 22.7932,
      "duration": 0.1182,
      "velocity": 122,
      "chip": "ym2612"
    },
    {
      "channel": 1,
      "note": 49,
      "start": 22.7985,
      "duration": 0.1242,
      "velocity": 92,
      "chip": "ym2612"
    },
    {
      "channel": 4,
      "note": 69,
      "start": 22.8039,
      "duration": 0.1216,
      "velocity": 127,
      "chip": "ym2612"
    },
    {
      "channel": 0,
      "note": 46,
      "start": 22.9364,
      "duration": 0.0296,
      "velocity": 122,
      "chip": "ym2612"
    },
    {
      "channel": 1,
      "note": 42,
      "start": 22.9417,
      "duration": 0.0442,
      "velocity": 92,
      "chip": "ym2612"
    },
    {
      "channel": 3,
      "note": 71,
      "start": 22.9471,
      "duration": 3.0404,
      "velocity": 108,
      "chip": "ym2612"
    },
    {
      "channel": 0,
      "note": 56,
      "start": 22.9943,
      "duration": 0.0456,
      "velocity": 122,
      "chip": "ym2612"
    },
    {
      "channel": 1,
      "note": 49,
      "start": 22.9989,
      "duration": 0.0445,
      "velocity": 92,
      "chip": "ym2612"
    },
    {
      "channel": 4,
      "note": 66,
      "start": 23.0032,
      "duration": 0.0413,
      "velocity": 127,
      "chip": "ym2612"
    },
    {
      "channel": 1,
      "note": 54,
      "start": 23.051,
      "duration": 0.0871,
      "velocity": 92,
      "chip": "ym2612"
    },
    {
      "channel": 0,
      "note": 56,
      "start": 23.1522,
      "duration": 0.1181,
      "velocity": 122,
      "chip": "ym2612"
    },
    {
      "channel": 1,
      "note": 42,
      "start": 23.1575,
      "duration": 0.1241,
      "velocity": 92,
      "chip": "ym2612"
    },
    {
      "channel": 4,
      "note": 66,
      "start": 23.163,
      "duration": 0.1202,
      "velocity": 127,
      "chip": "ym2612"
    },
    {
      "channel": 0,
      "note": 53,
      "start": 23.2954,
      "duration": 0.0978,
      "velocity": 122,
      "chip": "ym2612"
    },
    {
      "channel": 1,
      "note": 49,
      "start": 23.3007,
      "duration": 0.1334,
      "velocity": 92,
      "chip": "ym2612"
    },
    {
      "channel": 4,
      "note": 66,
      "start": 23.3062,
      "duration": 0.1179,
      "velocity": 127,
      "chip": "ym2612"
    },
    {
      "channel": 1,
      "note": 52,
      "start": 23.4491,
      "duration": 0.129,
      "velocity": 92,
      "chip": "ym2612"
    },
    {
      "channel": 0,
      "note": 49,
      "start": 23.5921,
      "duration": 0.0671,
      "velocity": 122,
      "chip": "ym2612"
    },
    {
      "channel": 1,
      "note": 47,
      "start": 23.5975,
      "duration": 0.1231,
      "velocity": 92,
      "chip": "ym2612"
    },
    {
      "channel": 4,
      "note": 66,
      "start": 23.603,
      "duration": 0.1191,
      "velocity": 127,
      "chip": "ym2612"
    },
    {
      "channel": 1,
      "note": 49,
      "start": 23.7356,
      "duration": 0.1284,
      "velocity": 92,
      "chip": "ym2612"
    },
    {
      "channel": 4,
      "note": 66,
      "start": 23.741,
      "duration": 0.1245,
      "velocity": 127,
      "chip": "ym2612"
    },
    {
      "channel": 1,
      "note": 42,
      "start": 23.8787,
      "duration": 0.1387,
      "velocity": 92,
      "chip": "ym2612"
    },
    {
      "channel": 1,
      "note": 49,
      "start": 24.0323,
      "duration": 0.129,
      "velocity": 92,
      "chip": "ym2612"
    },
    {
      "channel": 4,
      "note": 66,
      "start": 24.0377,
      "duration": 0.1251,
      "velocity": 127,
      "chip": "ym2612"
    },
    {
      "channel": 0,
      "note": 52,
      "start": 24.1753,
      "duration": 0.0569,
      "velocity": 122,
      "chip": "ym2612"
    },
    {
      "channel": 1,
      "note": 54,
      "start": 24.1807,
      "duration": 0.1238,
      "velocity": 92,
      "chip": "ym2612"
    },
    {
      "channel": 4,
      "note": 66,
      "start": 24.1862,
      "duration": 0.1198,
      "velocity": 127,
      "chip": "ym2612"
    },
    {
      "channel": 0,
      "note": 50,
      "start": 24.3187,
      "duration": 0.1182,
      "velocity": 122,
      "chip": "ym2612"
    },
    {
      "channel": 1,
      "note": 42,
      "start": 24.324,
      "duration": 0.134,
      "velocity": 92,
      "chip": "ym2612"
    },
    {
      "channel": 0,
      "note": 52,
      "start": 24.4721,
      "duration": 0.0467,
      "velocity": 122,
      "chip": "ym2612"
    },
    {
      "channel": 1,
      "note": 52,
      "start": 24.4774,
      "duration": 0.1239,
      "velocity": 92,
      "chip": "ym2612"
    },
    {
      "channel": 4,
      "note": 66,
      "start": 24.483,
      "duration": 0.1198,
      "velocity": 127,
      "chip": "ym2612"
    },
    {
      "channel": 0,
      "note": 50,
      "start": 24.6155,
      "duration": 0.1284,
      "velocity": 122,
      "chip": "ym2612"
    },
    {
      "channel": 1,
      "note": 49,
      "start": 24.6207,
      "duration": 0.1246,
      "velocity": 92,
      "chip": "ym2612"
    },
    {
      "channel": 0,
      "note": 52,
      "start": 24.7586,
      "duration": 0.0774,
      "velocity": 122,
      "chip": "ym2612"
    },
    {
      "channel": 1,
      "note": 47,
      "start": 24.764,
      "duration": 0.1238,
      "velocity": 92,
      "chip": "ym2612"
    },
    {
      "channel": 4,
      "note": 66,
      "start": 24.7695,
      "duration": 0.1198,
      "velocity": 127,
      "chip": "ym2612"
    },
    {
      "channel": 0,
      "note": 52,
      "start": 24.902,
      "duration": 0.1284,
      "velocity": 122,
      "chip": "ym2612"
    },
    {
      "channel": 1,
      "note": 49,
      "start": 24.9073,
      "duration": 0.1342,
      "velocity": 92,
      "chip": "ym2612"
    },
    {
      "channel": 0,
      "note": 46,
      "start": 25.0554,
      "duration": 0.0436,
      "velocity": 122,
      "chip": "ym2612"
    },
    {
      "channel": 1,
      "note": 42,
      "start": 25.0606,
      "duration": 0.0616,
      "velocity": 92,
      "chip": "ym2612"
    },
    {
      "channel": 4,
      "note": 66,
      "start": 25.0662,
      "duration": 0.0573,
      "velocity": 127,
      "chip": "ym2612"
    },
    {
      "channel": 0,
      "note": 56,
      "start": 25.1307,
      "duration": 0.0464,
      "velocity": 122,
      "chip": "ym2612"
    },
    {
      "channel": 1,
      "note": 49,
      "start": 25.1349,
      "duration": 0.0429,
      "velocity": 92,
      "chip": "ym2612"
    },
    {
      "channel": 4,
      "note": 66,
      "start": 25.1395,
      "duration": 0.0393,
      "velocity": 127,
      "chip": "ym2612"
    },
    {
      "channel": 1,
      "note": 54,
      "start": 25.1855,
      "duration": 0.0747,
      "velocity": 92,
      "chip": "ym2612"
    },
    {
      "channel": 0,
      "note": 56,
      "start": 25.2743,
      "duration": 0.108,
      "velocity": 122,
      "chip": "ym2612"
    },
    {
      "channel": 1,
      "note": 42,
      "start": 25.2797,
      "duration": 0.1237,
      "velocity": 92,
      "chip": "ym2612"
    },
    {
      "channel": 4,
      "note": 66,
      "start": 25.2851,
      "duration": 0.1198,
      "velocity": 127,
      "chip": "ym2612"
    },
    {
      "channel": 0,
      "note": 53,
      "start": 25.4176,
      "duration": 0.0875,
      "velocity": 122,
      "chip": "ym2612"
    },
    {
      "channel": 1,
      "note": 49,
      "start": 25.4229,
      "duration": 0.1232,
      "velocity": 92,
      "chip": "ym2612"
    },
    {
      "channel": 4,
      "note": 66,
      "start": 25.4285,
      "duration": 0.1192,
      "velocity": 127,
      "chip": "ym2612"
    },
    {
      "channel": 1,
      "note": 52,
      "start": 25.561,
      "duration": 0.1289,
      "velocity": 92,
      "chip": "ym2612"
    },
    {
      "channel": 0,
      "note": 49,
      "start": 25.7041,
      "duration": 0.0772,
      "velocity": 122,
      "chip": "ym2612"
    },
    {
      "channel": 1,
      "note": 47,
      "start": 25.7094,
      "duration": 0.1336,
      "velocity": 92,
      "chip": "ym2612"
    },
    {
      "channel": 4,
      "note": 66,
      "start": 25.7149,
      "duration": 0.1296,
      "velocity": 127,
      "chip": "ym2612"
    },
    {
      "channel": 1,
      "note": 49,
      "start": 25.8577,
      "duration": 0.1284,
      "velocity": 92,
      "chip": "ym2612"
    },
    {
      "channel": 4,
      "note": 66,
      "start": 25.8632,
      "duration": 0.1258,
      "velocity": 127,
      "chip": "ym2612"
    },
    {
      "channel": 1,
      "note": 42,
      "start": 26.0009,
      "duration": 0.045,
      "velocity": 92,
      "chip": "ym2612"
    },
    {
      "channel": 3,
      "note": 72,
      "start": 26.0062,
      "duration": 0.4073,
      "velocity": 108,
      "chip": "ym2612"
    },
    {
      "channel": 1,
      "note": 49,
      "start": 26.0544,
      "duration": 0.0468,
      "velocity": 92,
      "chip": "ym2612"
    },
    {
      "channel": 4,
      "note": 69,
      "start": 26.0587,
      "duration": 0.0388,
      "velocity": 127,
      "chip": "ym2612"
    },
    {
      "channel": 0,
      "note": 52,
      "start": 26.1101,
      "duration": 0.0195,
      "velocity": 122,
      "chip": "ym2612"
    },
    {
      "channel": 1,
      "note": 54,
      "start": 26.1143,
      "duration": 0.0416,
      "velocity": 92,
      "chip": "ym2612"
    },
    {
      "channel": 4,
      "note": 69,
      "start": 26.1189,
      "duration": 0.038,
      "velocity": 127,
      "chip": "ym2612"
    },
    {
      "channel": 0,
      "note": 50,
      "start": 26.1647,
      "duration": 0.0425,
      "velocity": 122,
      "chip": "ym2612"
    },
    {
      "channel": 1,
      "note": 42,
      "start": 26.169,
      "duration": 0.0423,
      "velocity": 92,
      "chip": "ym2612"
    },
    {
      "channel": 4,
      "note": 69,
      "start": 26.1733,
      "duration": 0.0392,
      "velocity": 127,
      "chip": "ym2612"
    },
    {
      "channel": 0,
      "note": 52,
      "start": 26.2201,
      "duration": 0.0201,
      "velocity": 122,
      "chip": "ym2612"
    },
    {
      "channel": 1,
      "note": 52,
      "start": 26.2242,
      "duration": 0.043,
      "velocity": 92,
      "chip": "ym2612"
    },
    {
      "channel": 4,
      "note": 69,
      "start": 26.2287,
      "duration": 0.0396,
      "velocity": 127,
      "chip": "ym2612"
    },
    {
      "channel": 0,
      "note": 50,
      "start": 26.2762,
      "duration": 0.0494,
      "velocity": 122,
      "chip": "ym2612"
    },
    {
      "channel": 1,
      "note": 49,
      "start": 26.2803,
      "duration": 0.0463,
      "velocity": 92,
      "chip": "ym2612"
    },
    {
      "channel": 4,
      "note": 69,
      "start": 26.2848,
      "duration": 0.043,
      "velocity": 127,
      "chip": "ym2612"
    },
    {
      "channel": 0,
      "note": 52,
      "start": 26.3352,
      "duration": 0.0268,
      "velocity": 122,
      "chip": "ym2612"
    },
    {
      "channel": 1,
      "note": 47,
      "start": 26.3398,
      "duration": 0.0422,
      "velocity": 92,
      "chip": "ym2612"
    },
    {
      "channel": 4,
      "note": 69,
      "start": 26.3443,
      "duration": 0.0386,
      "velocity": 127,
      "chip": "ym2612"
    },
    {
      "channel": 0,
      "note": 52,
      "start": 26.39,
      "duration": 0.0431,
      "velocity": 122,
      "chip": "ym2612"
    },
    {
      "channel": 1,
      "note": 49,
      "start": 26.3946,
      "duration": 0.0417,
      "velocity": 92,
      "chip": "ym2612"
    },
    {
      "channel": 4,
      "note": 69,
      "start": 26.3989,
      "duration": 0.0393,
      "velocity": 127,
      "chip": "ym2612"
    },
    {
      "channel": 1,
      "note": 44,
      "start": 26.4458,
      "duration": 0.0538,
      "velocity": 92,
      "chip": "ym2612"
    },
    {
      "channel": 2,
      "note": 63,
      "start": 26.4512,
      "duration": 0.8979,
      "velocity": 108,
      "chip": "ym2612"
    },
    {
      "channel": 3,
      "note": 68,
      "start": 26.4598,
      "duration": 0.8961,
      "velocity": 108,
      "chip": "ym2612"
    },
    {
      "channel": 1,
      "note": 51,
      "start": 26.5089,
      "duration": 0.0443,
      "velocity": 92,
      "chip": "ym2612"
    },
    {
      "channel": 5,
      "note": 82,
      "start": 26.5138,
      "duration": 0.0407,
      "velocity": 88,
      "chip": "ym2612"
    },
    {
      "channel": 1,
      "note": 56,
      "start": 26.5625,
      "duration": 0.0447,
      "velocity": 92,
      "chip": "ym2612"
    },
    {
      "channel": 5,
      "note": 80,
      "start": 26.5677,
      "duration": 0.0407,
      "velocity": 88,
      "chip": "ym2612"
    },
    {
      "channel": 1,
      "note": 44,
      "start": 26.6161,
      "duration": 0.0819,
      "velocity": 92,
      "chip": "ym2612"
    },
    {
      "channel": 5,
      "note": 75,
      "start": 26.6204,
      "duration": 0.0791,
      "velocity": 88,
      "chip": "ym2612"
    },
    {
      "channel": 1,
      "note": 51,
      "start": 26.7128,
      "duration": 0.0491,
      "velocity": 92,
      "chip": "ym2612"
    },
    {
      "channel": 5,
      "note": 78,
      "start": 26.7183,
      "duration": 0.0448,
      "velocity": 88,
      "chip": "ym2612"
    },
    {
      "channel": 1,
      "note": 54,
      "start": 26.771,
      "duration": 0.0436,
      "velocity": 92,
      "chip": "ym2612"
    },
    {
      "channel": 5,
      "note": 80,
      "start": 26.7754,
      "duration": 0.0403,
      "velocity": 88,
      "chip": "ym2612"
    },
    {
      "channel": 1,
      "note": 49,
      "start": 26.8253,
      "duration": 0.0476,
      "velocity": 92,
      "chip": "ym2612"
    },
    {
      "channel": 5,
      "note": 73,
      "start": 26.8314,
      "duration": 0.0442,
      "velocity": 88,
      "chip": "ym2612"
    },
    {
      "channel": 1,
      "note": 51,
      "start": 26.8824,
      "duration": 0.05,
      "velocity": 92,
      "chip": "ym2612"
    },
    {
      "channel": 5,
      "note": 75,
      "start": 26.8883,
      "duration": 0.0465,
      "velocity": 88,
      "chip": "ym2612"
    },
    {
      "channel": 1,
      "note": 44,
      "start": 26.9427,
      "duration": 0.0453,
      "velocity": 92,
      "chip": "ym2612"
    },
    {
      "channel": 5,
      "note": 78,
      "start": 26.9474,
      "duration": 0.0418,
      "velocity": 88,
      "chip": "ym2612"
    },
    {
      "channel": 1,
      "note": 51,
      "start": 26.9968,
      "duration": 0.045,
      "velocity": 92,
      "chip": "ym2612"
    },
    {
      "channel": 5,
      "note": 80,
      "start": 27.0013,
      "duration": 0.0419,
      "velocity": 88,
      "chip": "ym2612"
    },
    {
      "channel": 1,
      "note": 56,
      "start": 27.0514,
      "duration": 0.0439,
      "velocity": 92,
      "chip": "ym2612"
    },
    {
      "channel": 5,
      "note": 73,
      "start": 27.056,
      "duration": 0.0405,
      "velocity": 88,
      "chip": "ym2612"
    },
    {
      "channel": 1,
      "note": 44,
      "start": 27.1046,
      "duration": 0.0512,
      "velocity": 92,
      "chip": "ym2612"
    },
    {
      "channel": 5,
      "note": 75,
      "start": 27.1094,
      "duration": 0.0476,
      "velocity": 88,
      "chip": "ym2612"
    },
    {
      "channel": 1,
      "note": 54,
      "start": 27.1647,
      "duration": 0.0456,
      "velocity": 92,
      "chip": "ym2612"
    },
    {
      "channel": 5,
      "note": 78,
      "start": 27.1703,
      "duration": 0.0412,
      "velocity": 88,
      "chip": "ym2612"
    },
    {
      "channel": 1,
      "note": 51,
      "start": 27.2189,
      "duration": 0.049,
      "velocity": 92,
      "chip": "ym2612"
    },
    {
      "channel": 5,
      "note": 75,
      "start": 27.2234,
      "duration": 0.0458,
      "velocity": 88,
      "chip": "ym2612"
    },
    {
      "channel": 1,
      "note": 49,
      "start": 27.2773,
      "duration": 0.0495,
      "velocity": 92,
      "chip": "ym2612"
    },
    {
      "channel": 5,
      "note": 73,
      "start": 27.2827,
      "duration": 0.0453,
      "velocity": 88,
      "chip": "ym2612"
    },
    {
      "channel": 1,
      "note": 51,
      "start": 27.3355,
      "duration": 0.0443,
      "velocity": 92,
      "chip": "ym2612"
    },
    {
      "channel": 5,
      "note": 72,
      "start": 27.3398,
      "duration": 0.0422,
      "velocity": 88,
      "chip": "ym2612"
    },
    {
      "channel": 0,
      "note": 54,
      "start": 27.3898,
      "duration": 0.0543,
      "velocity": 109,
      "chip": "ym2612"
    },
    {
      "channel": 1,
      "note": 44,
      "start": 27.394,
      "duration": 0.0512,
      "velocity": 92,
      "chip": "ym2612"
    },
    {
      "channel": 4,
      "note": 66,
      "start": 27.3988,
      "duration": 0.0489,
      "velocity": 127,
      "chip": "ym2612"
    },
    {
      "channel": 5,
      "note": 73,
      "start": 27.4036,
      "duration": 0.0456,
      "velocity": 88,
      "chip": "ym2612"
    },
    {
      "channel": 0,
      "note": 56,
      "start": 27.4557,
      "duration": 0.0503,
      "velocity": 109,
      "chip": "ym2612"
    },
    {
      "channel": 1,
      "note": 51,
      "start": 27.4599,
      "duration": 0.0474,
      "velocity": 92,
      "chip": "ym2612"
    },
    {
      "channel": 4,
      "note": 66,
      "start": 27.4655,
      "duration": 0.0428,
      "velocity": 127,
      "chip": "ym2612"
    },
    {
      "channel": 5,
      "note": 75,
      "start": 27.4702,
      "duration": 0.0385,
      "velocity": 88,
      "chip": "ym2612"
    },
    {
      "channel": 0,
      "note": 59,
      "start": 27.5157,
      "duration": 0.0493,
      "velocity": 109,
      "chip": "ym2612"
    },
    {
      "channel": 1,
      "note": 56,
      "start": 27.5203,
      "duration": 0.0458,
      "velocity": 92,
      "chip": "ym2612"
    },
    {
      "channel": 5,
      "note": 80,
      "start": 27.5249,
      "duration": 0.0434,
      "velocity": 88,
      "chip": "ym2612"
    },
    {
      "channel": 0,
      "note": 60,
      "start": 27.5752,
      "duration": 0.0824,
      "velocity": 109,
      "chip": "ym2612"
    },
    {
      "channel": 1,
      "note": 44,
      "start": 27.5794,
      "duration": 0.0796,
      "velocity": 92,
      "chip": "ym2612"
    },
    {
      "channel": 4,
      "note": 66,
      "start": 27.5841,
      "duration": 0.0764,
      "velocity": 127,
      "chip": "ym2612"
    },
    {
      "channel": 5,
      "note": 75,
      "start": 27.5882,
      "duration": 0.0741,
      "velocity": 88,
      "chip": "ym2612"
    },
    {
      "channel": 0,
      "note": 63,
      "start": 27.6726,
      "duration": 0.0528,
      "velocity": 109,
      "chip": "ym2612"
    },
    {
      "channel": 1,
      "note": 51,
      "start": 27.6778,
      "duration": 0.0486,
      "velocity": 92,
      "chip": "ym2612"
    },
    {
      "channel": 4,
      "note": 66,
      "start": 27.6833,
      "duration": 0.0444,
      "velocity": 127,
      "chip": "ym2612"
    },
    {
      "channel": 5,
      "note": 78,
      "start": 27.6887,
      "duration": 0.0394,
      "velocity": 88,
      "chip": "ym2612"
    },
    {
      "channel": 0,
      "note": 66,
      "start": 27.7351,
      "duration": 0.0456,
      "velocity": 109,
      "chip": "ym2612"
    },
    {
      "channel": 1,
      "note": 54,
      "start": 27.7396,
      "duration": 0.0459,
      "velocity": 92,
      "chip": "ym2612"
    },
    {
      "channel": 5,
      "note": 80,
      "start": 27.7442,
      "duration": 0.0441,
      "velocity": 88,
      "chip": "ym2612"
    },
    {
      "channel": 0,
      "note": 67,
      "start": 27.7951,
      "duration": 0.1145,
      "velocity": 109,
      "chip": "ym2612"
    },
    {
      "channel": 1,
      "note": 49,
      "start": 27.7993,
      "duration": 0.1117,
      "velocity": 92,
      "chip": "ym2612"
    },
    {
      "channel": 4,
      "note": 66,
      "start": 27.8039,
      "duration": 0.1087,
      "velocity": 127,
      "chip": "ym2612"
    },
    {
      "channel": 5,
      "note": 82,
      "start": 27.8084,
      "duration": 0.1059,
      "velocity": 88,
      "chip": "ym2612"
    },
    {
      "channel": 0,
      "note": 68,
      "start": 27.9245,
      "duration": 0.1284,
      "velocity": 109,
      "chip": "ym2612"
    },
    {
      "channel": 1,
      "note": 51,
      "start": 27.9298,
      "duration": 0.125,
      "velocity": 92,
      "chip": "ym2612"
    },
    {
      "channel": 4,
      "note": 66,
      "start": 27.9353,
      "duration": 0.121,
      "velocity": 127,
      "chip": "ym2612"
    },
    {
      "channel": 5,
      "note": 80,
      "start": 27.9406,
      "duration": 0.1164,
      "velocity": 88,
      "chip": "ym2612"
    },
    {
      "channel": 0,
      "note": 71,
      "start": 28.0678,
      "duration": 0.0496,
      "velocity": 109,
      "chip": "ym2612"
    },
    {
      "channel": 1,
      "note": 44,
      "start": 28.0731,
      "duration": 0.0454,
      "velocity": 92,
      "chip": "ym2612"
    },
    {
      "channel": 5,
      "note": 84,
      "start": 28.0789,
      "duration": 0.042,
      "velocity": 88,
      "chip": "ym2612"
    },
    {
      "channel": 0,
      "note": 72,
      "start": 28.128,
      "duration": 0.0552,
      "velocity": 109,
      "chip": "ym2612"
    },
    {
      "channel": 1,
      "note": 51,
      "start": 28.1329,
      "duration": 0.0517,
      "velocity": 92,
      "chip": "ym2612"
    },
    {
      "channel": 4,
      "note": 69,
      "start": 28.1372,
      "duration": 0.0485,
      "velocity": 127,
      "chip": "ym2612"
    },
    {
      "channel": 5,
      "note": 82,
      "start": 28.1429,
      "duration": 0.0443,
      "velocity": 88,
      "chip": "ym2612"
    },
    {
      "channel": 0,
      "note": 75,
      "start": 28.1939,
      "duration": 0.0775,
      "velocity": 109,
      "chip": "ym2612"
    },
    {
      "channel": 1,
      "note": 56,
      "start": 28.1984,
      "duration": 0.0743,
      "velocity": 92,
      "chip": "ym2612"
    },
    {
      "channel": 4,
      "note": 69,
      "start": 28.2032,
      "duration": 0.0711,
      "velocity": 127,
      "chip": "ym2612"
    },
    {
      "channel": 5,
      "note": 80,
      "start": 28.2075,
      "duration": 0.0687,
      "velocity": 88,
      "chip": "ym2612"
    },
    {
      "channel": 0,
      "note": 78,
      "start": 28.2862,
      "duration": 0.0534,
      "velocity": 109,
      "chip": "ym2612"
    },
    {
      "channel": 1,
      "note": 44,
      "start": 28.2915,
      "duration": 0.0496,
      "velocity": 92,
      "chip": "ym2612"
    },
    {
      "channel": 4,
      "note": 69,
      "start": 28.2971,
      "duration": 0.045,
      "velocity": 127,
      "chip": "ym2612"
    },
    {
      "channel": 5,
      "note": 75,
      "start": 28.3023,
      "duration": 0.0411,
      "velocity": 88,
      "chip": "ym2612"
    },
    {
      "channel": 0,
      "note": 79,
      "start": 28.3499,
      "duration": 0.0488,
      "velocity": 109,
      "chip": "ym2612"
    },
    {
      "channel": 1,
      "note": 54,
      "start": 28.3541,
      "duration": 0.0491,
      "velocity": 92,
      "chip": "ym2612"
    },
    {
      "channel": 4,
      "note": 69,
      "start": 28.3585,
      "duration": 0.0406,
      "velocity": 127,
      "chip": "ym2612"
    },
    {
      "channel": 5,
      "note": 78,
      "start": 28.3629,
      "duration": 0.0428,
      "velocity": 88,
      "chip": "ym2612"
    },
    {
      "channel": 0,
      "note": 80,
      "start": 28.4129,
      "duration": 0.0471,
      "velocity": 109,
      "chip": "ym2612"
    },
    {
      "channel": 1,
      "note": 51,
      "start": 28.4172,
      "duration": 0.044,
      "velocity": 92,
      "chip": "ym2612"
    },
    {
      "channel": 4,
      "note": 69,
      "start": 28.4216,
      "duration": 0.0406,
      "velocity": 127,
      "chip": "ym2612"
    },
    {
      "channel": 5,
      "note": 80,
      "start": 28.4262,
      "duration": 0.0379,
      "velocity": 88,
      "chip": "ym2612"
    },
    {
      "channel": 0,
      "note": 83,
      "start": 28.4712,
      "duration": 0.0515,
      "velocity": 109,
      "chip": "ym2612"
    },
    {
      "channel": 1,
      "note": 49,
      "start": 28.4762,
      "duration": 0.048,
      "velocity": 92,
      "chip": "ym2612"
    },
    {
      "channel": 4,
      "note": 69,
      "start": 28.4805,
      "duration": 0.0447,
      "velocity": 127,
      "chip": "ym2612"
    },
    {
      "channel": 5,
      "note": 73,
      "start": 28.4859,
      "duration": 0.0407,
      "velocity": 88,
      "chip": "ym2612"
    },
    {
      "channel": 0,
      "note": 84,
      "start": 28.533,
      "duration": 0.0481,
      "velocity": 109,
      "chip": "ym2612"
    },
    {
      "channel": 1,
      "note": 51,
      "start": 28.5372,
      "duration": 0.0441,
      "velocity": 92,
      "chip": "ym2612"
    },
    {
      "channel": 4,
      "note": 69,
      "start": 28.5417,
      "duration": 0.0415,
      "velocity": 127,
      "chip": "ym2612"
    },
    {
      "channel": 5,
      "note": 75,
      "start": 28.5459,
      "duration": 0.0376,
      "velocity": 88,
      "chip": "ym2612"
    },
    {
      "channel": 1,
      "note": 44,
      "start": 28.5903,
      "duration": 0.0525,
      "velocity": 92,
      "chip": "ym2612"
    },
    {
      "channel": 2,
      "note": 63,
      "start": 28.5946,
      "duration": 0.9056,
      "velocity": 108,
      "chip": "ym2612"
    },
    {
      "channel": 5,
      "note": 84,
      "start": 28.6001,
      "duration": 0.0439,
      "velocity": 88,
      "chip": "ym2612"
    },
    {
      "channel": 3,
      "note": 68,
      "start": 28.6062,
      "duration": 0.9005,
      "velocity": 108,
      "chip": "ym2612"
    },
    {
      "channel": 1,
      "note": 51,
      "start": 28.6514,
      "duration": 0.0446,
      "velocity": 92,
      "chip": "ym2612"
    },
    {
      "channel": 5,
      "note": 82,
      "start": 28.6561,
      "duration": 0.041,
      "velocity": 88,
      "chip": "ym2612"
    },
    {
      "channel": 1,
      "note": 56,
      "start": 28.7046,
      "duration": 0.0461,
      "velocity": 92,
      "chip": "ym2612"
    },
    {
      "channel": 5,
      "note": 80,
      "start": 28.7106,
      "duration": 0.0414,
      "velocity": 88,
      "chip": "ym2612"
    },
    {
      "channel": 1,
      "note": 44,
      "start": 28.7594,
      "duration": 0.0927,
      "velocity": 92,
      "chip": "ym2612"
    },
    {
      "channel": 5,
      "note": 75,
      "start": 28.7638,
      "duration": 0.0899,
      "velocity": 88,
      "chip": "ym2612"
    },
    {
      "channel": 1,
      "note": 51,
      "start": 28.867,
      "duration": 0.0454,
      "velocity": 92,
      "chip": "ym2612"
    },
    {
      "channel": 5,
      "note": 78,
      "start": 28.8725,
      "duration": 0.0411,
      "velocity": 88,
      "chip": "ym2612"
    },
    {
      "channel": 1,
      "note": 54,
      "start": 28.9213,
      "duration": 0.0436,
      "velocity": 92,
      "chip": "ym2612"
    },
    {
      "channel": 5,
      "note": 80,
      "start": 28.9256,
      "duration": 0.0405,
      "velocity": 88,
      "chip": "ym2612"
    },
    {
      "channel": 1,
      "note": 49,
      "start": 28.974,
      "duration": 0.0485,
      "velocity": 92,
      "chip": "ym2612"
    },
    {
      "channel": 5,
      "note": 73,
      "start": 28.9801,
      "duration": 0.0444,
      "velocity": 88,
      "chip": "ym2612"
    },
    {
      "channel": 1,
      "note": 51,
      "start": 29.0317,
      "duration": 0.0482,
      "velocity": 92,
      "chip": "ym2612"
    },
    {
      "channel": 5,
      "note": 75,
      "start": 29.036,
      "duration": 0.0461,
      "velocity": 88,
      "chip": "ym2612"
    },
    {
      "channel": 1,
      "note": 44,
      "start": 29.0899,
      "duration": 0.0457,
      "velocity": 92,
      "chip": "ym2612"
    },
    {
      "channel": 5,
      "note": 78,
      "start": 29.0946,
      "duration": 0.0423,
      "velocity": 88,
      "chip": "ym2612"
    },
    {
      "channel": 1,
      "note": 51,
      "start": 29.145,
      "duration": 0.046,
      "velocity": 92,
      "chip": "ym2612"
    },
    {
      "channel": 5,
      "note": 80,
      "start": 29.1494,
      "duration": 0.0429,
      "velocity": 88,
      "chip": "ym2612"
    },
    {
      "channel": 1,
      "note": 56,
      "start": 29.1998,
      "duration": 0.0498,
      "velocity": 92,
      "chip": "ym2612"
    },
    {
      "channel": 5,
      "note": 73,
      "start": 29.2059,
      "duration": 0.0447,
      "velocity": 88,
      "chip": "ym2612"
    },
    {
      "channel": 1,
      "note": 44,
      "start": 29.2587,
      "duration": 0.0484,
      "velocity": 92,
      "chip": "ym2612"
    },
    {
      "channel": 5,
      "note": 75,
      "start": 29.2637,
      "duration": 0.0446,
      "velocity": 88,
      "chip": "ym2612"
    },
    {
      "channel": 1,
      "note": 54,
      "start": 29.3157,
      "duration": 0.0458,
      "velocity": 92,
      "chip": "ym2612"
    },
    {
      "channel": 5,
      "note": 78,
      "start": 29.321,
      "duration": 0.0417,
      "velocity": 88,
      "chip": "ym2612"
    },
    {
      "channel": 1,
      "note": 51,
      "start": 29.3704,
      "duration": 0.0481,
      "velocity": 92,
      "chip": "ym2612"
    },
    {
      "channel": 5,
      "note": 75,
      "start": 29.3747,
      "duration": 0.0452,
      "velocity": 88,
      "chip": "ym2612"
    },
    {
      "channel": 1,
      "note": 49,
      "start": 29.4278,
      "duration": 0.0501,
      "velocity": 92,
      "chip": "ym2612"
    },
    {
      "channel": 5,
      "note": 73,
      "start": 29.4335,
      "duration": 0.0457,
      "velocity": 88,
      "chip": "ym2612"
    },
    {
      "channel": 1,
      "note": 51,
      "start": 29.4868,
      "duration": 0.0437,
      "velocity": 92,
      "chip": "ym2612"
    },
    {
      "channel": 5,
      "note": 72,
      "start": 29.4911,
      "duration": 0.041,
      "velocity": 88,
      "chip": "ym2612"
    },
    {
      "channel": 0,
      "note": 54,
      "start": 29.5387,
      "duration": 0.0562,
      "velocity": 109,
      "chip": "ym2612"
    },
    {
      "channel": 1,
      "note": 44,
      "start": 29.5433,
      "duration": 0.0526,
      "velocity": 92,
      "chip": "ym2612"
    },
    {
      "channel": 4,
      "note": 66,
      "start": 29.5483,
      "duration": 0.0496,
      "velocity": 127,
      "chip": "ym2612"
    },
    {
      "channel": 5,
      "note": 73,
      "start": 29.5539,
      "duration": 0.0455,
      "velocity": 88,
      "chip": "ym2612"
    },
    {
      "channel": 0,
      "note": 56,
      "start": 29.606,
      "duration": 0.0508,
      "velocity": 109,
      "chip": "ym2612"
    },
    {
      "channel": 1,
      "note": 51,
      "start": 29.6106,
      "duration": 0.0507,
      "velocity": 92,
      "chip": "ym2612"
    },
    {
      "channel": 4,
      "note": 66,
      "start": 29.616,
      "duration": 0.0419,
      "velocity": 127,
      "chip": "ym2612"
    },
    {
      "channel": 5,
      "note": 75,
      "start": 29.6202,
      "duration": 0.0423,
      "velocity": 88,
      "chip": "ym2612"
    },
    {
      "channel": 0,
      "note": 59,
      "start": 29.6697,
      "duration": 0.0486,
      "velocity": 109,
      "chip": "ym2612"
    },
    {
      "channel": 1,
      "note": 56,
      "start": 29.674,
      "duration": 0.0454,
      "velocity": 92,
      "chip": "ym2612"
    },
    {
      "channel": 5,
      "note": 80,
      "start": 29.6804,
      "duration": 0.0412,
      "velocity": 88,
      "chip": "ym2612"
    },
    {
      "channel": 0,
      "note": 60,
      "start": 29.7291,
      "duration": 0.0753,
      "velocity": 109,
      "chip": "ym2612"
    },
    {
      "channel": 1,
      "note": 44,
      "start": 29.7332,
      "duration": 0.0726,
      "velocity": 92,
      "chip": "ym2612"
    },
    {
      "channel": 4,
      "note": 66,
      "start": 29.7376,
      "duration": 0.0697,
      "velocity": 127,
      "chip": "ym2612"
    },
    {
      "channel": 5,
      "note": 75,
      "start": 29.7424,
      "duration": 0.0669,
      "velocity": 88,
      "chip": "ym2612"
    },
    {
      "channel": 0,
      "note": 63,
      "start": 29.8192,
      "duration": 0.0533,
      "velocity": 109,
      "chip": "ym2612"
    },
    {
      "channel": 1,
      "note": 51,
      "start": 29.8245,
      "duration": 0.0491,
      "velocity": 92,
      "chip": "ym2612"
    },
    {
      "channel": 4,
      "note": 66,
      "start": 29.8301,
      "duration": 0.0447,
      "velocity": 127,
      "chip": "ym2612"
    },
    {
      "channel": 5,
      "note": 78,
      "start": 29.8354,
      "duration": 0.0397,
      "velocity": 88,
      "chip": "ym2612"
    },
    {
      "channel": 0,
      "note": 66,
      "start": 29.8819,
      "duration": 0.0493,
      "velocity": 109,
      "chip": "ym2612"
    },
    {
      "channel": 1,
      "note": 54,
      "start": 29.8864,
      "duration": 0.0459,
      "velocity": 92,
      "chip": "ym2612"
    },
    {
      "channel": 5,
      "note": 80,
      "start": 29.8914,
      "duration": 0.0431,
      "velocity": 88,
      "chip": "ym2612"
    },
    {
      "channel": 0,
      "note": 67,
      "start": 29.9413,
      "duration": 0.1146,
      "velocity": 109,
      "chip": "ym2612"
    },
    {
      "channel": 1,
      "note": 49,
      "start": 29.9455,
      "duration": 0.1118,
      "velocity": 92,
      "chip": "ym2612"
    },
    {
      "channel": 4,
      "note": 66,
      "start": 29.9503,
      "duration": 0.1085,
      "velocity": 127,
      "chip": "ym2612"
    },
    {
      "channel": 5,
      "note": 82,
      "start": 29.9544,
      "duration": 0.1062,
      "velocity": 88,
      "chip": "ym2612"
    },
    {
      "channel": 0,
      "note": 68,
      "start": 30.0708,
      "duration": 0.1283,
      "velocity": 109,
      "chip": "ym2612"
    },
    {
      "channel": 1,
      "note": 51,
      "start": 30.0761,
      "duration": 0.1249,
      "velocity": 92,
      "chip": "ym2612"
    },
    {
      "channel": 4,
      "note": 66,
      "start": 30.0816,
      "duration": 0.1209,
      "velocity": 127,
      "chip": "ym2612"
    },
    {
      "channel": 5,
      "note": 80,
      "start": 30.087,
      "duration": 0.1163,
      "velocity": 88,
      "chip": "ym2612"
    },
    {
      "channel": 0,
      "note": 71,
      "start": 30.214,
      "duration": 0.0501,
      "velocity": 109,
      "chip": "ym2612"
    },
    {
      "channel": 1,
      "note": 44,
      "start": 30.2193,
      "duration": 0.0488,
      "velocity": 92,
      "chip": "ym2612"
    },
    {
      "channel": 5,
      "note": 84,
      "start": 30.2251,
      "duration": 0.0453,
      "velocity": 88,
      "chip": "ym2612"
    },
    {
      "channel": 0,
      "note": 72,
      "start": 30.2774,
      "duration": 0.0519,
      "velocity": 109,
      "chip": "ym2612"
    },
    {
      "channel": 1,
      "note": 51,
      "start": 30.2818,
      "duration": 0.0486,
      "velocity": 92,
      "chip": "ym2612"
    },
    {
      "channel": 4,
      "note": 69,
      "start": 30.2864,
      "duration": 0.0452,
      "velocity": 127,
      "chip": "ym2612"
    },
    {
      "channel": 5,
      "note": 82,
      "start": 30.2924,
      "duration": 0.0407,
      "velocity": 88,
      "chip": "ym2612"
    },
    {
      "channel": 0,
      "note": 75,
      "start": 30.3397,
      "duration": 0.0707,
      "velocity": 109,
      "chip": "ym2612"
    },
    {
      "channel": 1,
      "note": 56,
      "start": 30.344,
      "duration": 0.0678,
      "velocity": 92,
      "chip": "ym2612"
    },
    {
      "channel": 4,
      "note": 69,
      "start": 30.3485,
      "duration": 0.0648,
      "velocity": 127,
      "chip": "ym2612"
    },
    {
      "channel": 5,
      "note": 80,
      "start": 30.3527,
      "duration": 0.0625,
      "velocity": 88,
      "chip": "ym2612"
    },
    {
      "channel": 0,
      "note": 78,
      "start": 30.4254,
      "duration": 0.0527,
      "velocity": 109,
      "chip": "ym2612"
    },
    {
      "channel": 1,
      "note": 44,
      "start": 30.4306,
      "duration": 0.0485,
      "velocity": 92,
      "chip": "ym2612"
    },
    {
      "channel": 4,
      "note": 69,
      "start": 30.436,
      "duration": 0.0442,
      "velocity": 127,
      "chip": "ym2612"
    },
    {
      "channel": 5,
      "note": 75,
      "start": 30.4414,
      "duration": 0.0404,
      "velocity": 88,
      "chip": "ym2612"
    },
    {
      "channel": 0,
      "note": 79,
      "start": 30.4883,
      "duration": 0.0529,
      "velocity": 109,
      "chip": "ym2612"
    },
    {
      "channel": 1,
      "note": 54,
      "start": 30.4933,
      "duration": 0.0493,
      "velocity": 92,
      "chip": "ym2612"
    },
    {
      "channel": 4,
      "note": 69,
      "start": 30.4977,
      "duration": 0.0459,
      "velocity": 127,
      "chip": "ym2612"
    },
    {
      "channel": 5,
      "note": 78,
      "start": 30.5022,
      "duration": 0.0428,
      "velocity": 88,
      "chip": "ym2612"
    },
    {
      "channel": 0,
      "note": 80,
      "start": 30.5516,
      "duration": 0.0487,
      "velocity": 109,
      "chip": "ym2612"
    },
    {
      "channel": 1,
      "note": 51,
      "start": 30.5562,
      "duration": 0.0452,
      "velocity": 92,
      "chip": "ym2612"
    },
    {
      "channel": 4,
      "note": 69,
      "start": 30.5606,
      "duration": 0.042,
      "velocity": 127,
      "chip": "ym2612"
    },
    {
      "channel": 5,
      "note": 80,
      "start": 30.5653,
      "duration": 0.0388,
      "velocity": 88,
      "chip": "ym2612"
    },
    {
      "channel": 0,
      "note": 83,
      "start": 30.6112,
      "duration": 0.051,
      "velocity": 109,
      "chip": "ym2612"
    },
    {
      "channel": 1,
      "note": 49,
      "start": 30.6158,
      "duration": 0.0474,
      "velocity": 92,
      "chip": "ym2612"
    },
    {
      "channel": 4,
      "note": 69,
      "start": 30.6203,
      "duration": 0.0439,
      "velocity": 127,
      "chip": "ym2612"
    },
    {
      "channel": 5,
      "note": 73,
      "start": 30.6257,
      "duration": 0.04,
      "velocity": 88,
      "chip": "ym2612"
    },
    {
      "channel": 0,
      "note": 84,
      "start": 30.6726,
      "duration": 0.0486,
      "velocity": 109,
      "chip": "ym2612"
    },
    {
      "channel": 1,
      "note": 51,
      "start": 30.6773,
      "duration": 0.0469,
      "velocity": 92,
      "chip": "ym2612"
    },
    {
      "channel": 4,
      "note": 69,
      "start": 30.6816,
      "duration": 0.04,
      "velocity": 127,
      "chip": "ym2612"
    },
    {
      "channel": 5,
      "note": 75,
      "start": 30.6859,
      "duration": 0.0395,
      "velocity": 88,
      "chip": "ym2612"
    },
    {
      "channel": 1,
      "note": 44,
      "start": 30.733,
      "duration": 0.0438,
      "velocity": 92,
      "chip": "ym2612"
    },
    {
      "channel": 5,
      "note": 84,
      "start": 30.7378,
      "duration": 0.0403,
      "velocity": 88,
      "chip": "ym2612"
    },
    {
      "channel": 1,
      "note": 51,
      "start": 30.7852,
      "duration": 0.0456,
      "velocity": 92,
      "chip": "ym2612"
    },
    {
      "channel": 5,
      "note": 82,
      "start": 30.7902,
      "duration": 0.0431,
      "velocity": 88,
      "chip": "ym2612"
    },
    {
      "channel": 1,
      "note": 56,
      "start": 30.8412,
      "duration": 0.0484,
      "velocity": 92,
      "chip": "ym2612"
    },
    {
      "channel": 4,
      "note": 72,
      "start": 30.8454,
      "duration": 0.0456,
      "velocity": 93,
      "chip": "ym2612"
    },
    {
      "channel": 5,
      "note": 80,
      "start": 30.8515,
      "duration": 0.0406,
      "velocity": 88,
      "chip": "ym2612"
    },
    {
      "channel": 1,
      "note": 44,
      "start": 30.8997,
      "duration": 0.0864,
      "velocity": 92,
      "chip": "ym2612"
    },
    {
      "channel": 4,
      "note": 73,
      "start": 30.9039,
      "duration": 0.0837,
      "velocity": 93,
      "chip": "ym2612"
    },
    {
      "channel": 5,
      "note": 75,
      "start": 30.9086,
      "duration": 0.0805,
      "velocity": 88,
      "chip": "ym2612"
    },
    {
      "channel": 1,
      "note": 51,
      "start": 31.0011,
      "duration": 0.0488,
      "velocity": 92,
      "chip": "ym2612"
    },
    {
      "channel": 4,
      "note": 72,
      "start": 31.0065,
      "duration": 0.0447,
      "velocity": 93,
      "chip": "ym2612"
    },
    {
      "channel": 5,
      "note": 78,
      "start": 31.0118,
      "duration": 0.0404,
      "velocity": 88,
      "chip": "ym2612"
    },
    {
      "channel": 1,
      "note": 54,
      "start": 31.0594,
      "duration": 0.0451,
      "velocity": 92,
      "chip": "ym2612"
    },
    {
      "channel": 4,
      "note": 66,
      "start": 31.0637,
      "duration": 0.0424,
      "velocity": 93,
      "chip": "ym2612"
    },
    {
      "channel": 5,
      "note": 80,
      "start": 31.0681,
      "duration": 0.039,
      "velocity": 88,
      "chip": "ym2612"
    },
    {
      "channel": 1,
      "note": 49,
      "start": 31.1149,
      "duration": 0.1234,
      "velocity": 92,
      "chip": "ym2612"
    },
    {
      "channel": 4,
      "note": 63,
      "start": 31.1196,
      "duration": 0.1086,
      "velocity": 93,
      "chip": "ym2612"
    },
    {
      "channel": 5,
      "note": 73,
      "start": 31.1238,
      "duration": 0.1168,
      "velocity": 88,
      "chip": "ym2612"
    },
    {
      "channel": 1,
      "note": 51,
      "start": 31.2531,
      "duration": 0.1284,
      "velocity": 92,
      "chip": "ym2612"
    },
    {
      "channel": 4,
      "note": 72,
      "start": 31.2585,
      "duration": 0.1856,
      "velocity": 93,
      "chip": "ym2612"
    },
    {
      "channel": 5,
      "note": 75,
      "start": 31.2639,
      "duration": 0.1191,
      "velocity": 88,
      "chip": "ym2612"
    },
    {
      "channel": 1,
      "note": 44,
      "start": 31.3964,
      "duration": 0.0464,
      "velocity": 92,
      "chip": "ym2612"
    },
    {
      "channel": 5,
      "note": 78,
      "start": 31.402,
      "duration": 0.0432,
      "velocity": 88,
      "chip": "ym2612"
    },
    {
      "channel": 1,
      "note": 51,
      "start": 31.4523,
      "duration": 0.0479,
      "velocity": 92,
      "chip": "ym2612"
    },
    {
      "channel": 4,
      "note": 73,
      "start": 31.457,
      "duration": 0.1421,
      "velocity": 93,
      "chip": "ym2612"
    },
    {
      "channel": 5,
      "note": 80,
      "start": 31.4619,
      "duration": 0.0395,
      "velocity": 88,
      "chip": "ym2612"
    },
    {
      "channel": 1,
      "note": 56,
      "start": 31.5093,
      "duration": 0.0883,
      "velocity": 92,
      "chip": "ym2612"
    },
    {
      "channel": 5,
      "note": 73,
      "start": 31.5141,
      "duration": 0.0864,
      "velocity": 88,
      "chip": "ym2612"
    },
    {
      "channel": 1,
      "note": 44,
      "start": 31.6124,
      "duration": 0.0494,
      "velocity": 92,
      "chip": "ym2612"
    },
    {
      "channel": 4,
      "note": 66,
      "start": 31.6178,
      "duration": 0.0451,
      "velocity": 93,
      "chip": "ym2612"
    },
    {
      "channel": 5,
      "note": 75,
      "start": 31.6233,
      "duration": 0.0406,
      "velocity": 88,
      "chip": "ym2612"
    },
    {
      "channel": 1,
      "note": 54,
      "start": 31.671,
      "duration": 0.0484,
      "velocity": 92,
      "chip": "ym2612"
    },
    {
      "channel": 4,
      "note": 68,
      "start": 31.6752,
      "duration": 0.1013,
      "velocity": 93,
      "chip": "ym2612"
    },
    {
      "channel": 5,
      "note": 78,
      "start": 31.6808,
      "duration": 0.0398,
      "velocity": 88,
      "chip": "ym2612"
    },
    {
      "channel": 1,
      "note": 51,
      "start": 31.7286,
      "duration": 0.0464,
      "velocity": 92,
      "chip": "ym2612"
    },
    {
      "channel": 5,
      "note": 75,
      "start": 31.7334,
      "duration": 0.0442,
      "velocity": 88,
      "chip": "ym2612"
    },
    {
      "channel": 1,
      "note": 49,
      "start": 31.7851,
      "duration": 0.0495,
      "velocity": 92,
      "chip": "ym2612"
    },
    {
      "channel": 4,
      "note": 68,
      "start": 31.7895,
      "duration": 0.1017,
      "velocity": 93,
      "chip": "ym2612"
    },
    {
      "channel": 5,
      "note": 73,
      "start": 31.7944,
      "duration": 0.0415,
      "velocity": 88,
      "chip": "ym2612"
    },
    {
      "channel": 1,
      "note": 51,
      "start": 31.8434,
      "duration": 0.0466,
      "velocity": 92,
      "chip": "ym2612"
    },
    {
      "channel": 5,
      "note": 72,
      "start": 31.8481,
      "duration": 0.0433,
      "velocity": 88,
      "chip": "ym2612"
    },
    {
      "channel": 1,
      "note": 44,
      "start": 31.8988,
      "duration": 0.0463,
      "velocity": 92,
      "chip": "ym2612"
    },
    {
      "channel": 5,
      "note": 73,
      "start": 31.905,
      "duration": 0.0412,
      "velocity": 88,
      "chip": "ym2612"
    },
    {
      "channel": 1,
      "note": 51,
      "start": 31.9536,
      "duration": 0.0499,
      "velocity": 92,
      "chip": "ym2612"
    },
    {
      "channel": 5,
      "note": 75,
      "start": 31.959,
      "duration": 0.0469,
      "velocity": 88,
      "chip": "ym2612"
    },
    {
      "channel": 0,
      "note": 61,
      "start": 32.0136,
      "duration": 0.0484,
      "velocity": 109,
      "chip": "ym2612"
    },
    {
      "channel": 1,
      "note": 56,
      "start": 32.0177,
      "duration": 0.0456,
      "velocity": 92,
      "chip": "ym2612"
    },
    {
      "channel": 3,
      "note": 61,
      "start": 32.022,
      "duration": 0.0423,
      "velocity": 109,
      "chip": "ym2612"
    },
    {
      "channel": 5,
      "note": 80,
      "start": 32.0265,
      "duration": 0.039,
      "velocity": 88,
      "chip": "ym2612"
    },
    {
      "channel": 0,
      "note": 63,
      "start": 32.0727,
      "duration": 0.0709,
      "velocity": 109,
      "chip": "ym2612"
    },
    {
      "channel": 1,
      "note": 44,
      "start": 32.0772,
      "duration": 0.0677,
      "velocity": 92,
      "chip": "ym2612"
    },
    {
      "channel": 3,
      "note": 63,
      "start": 32.0814,
      "duration": 0.065,
      "velocity": 109,
      "chip": "ym2612"
    },
    {
      "channel": 5,
      "note": 75,
      "start": 32.0857,
      "duration": 0.0622,
      "velocity": 88,
      "chip": "ym2612"
    },
    {
      "channel": 0,
      "note": 61,
      "start": 32.1585,
      "duration": 0.053,
      "velocity": 109,
      "chip": "ym2612"
    },
    {
      "channel": 1,
      "note": 51,
      "start": 32.1637,
      "duration": 0.0522,
      "velocity": 92,
      "chip": "ym2612"
    },
    {
      "channel": 3,
      "note": 61,
      "start": 32.1692,
      "duration": 0.043,
      "velocity": 109,
      "chip": "ym2612"
    },
    {
      "channel": 5,
      "note": 78,
      "start": 32.1746,
      "duration": 0.0434,
      "velocity": 88,
      "chip": "ym2612"
    },
    {
      "channel": 0,
      "note": 59,
      "start": 32.2252,
      "duration": 0.0491,
      "velocity": 109,
      "chip": "ym2612"
    },
    {
      "channel": 1,
      "note": 54,
      "start": 32.2298,
      "duration": 0.0455,
      "velocity": 92,
      "chip": "ym2612"
    },
    {
      "channel": 3,
      "note": 59,
      "start": 32.2346,
      "duration": 0.0417,
      "velocity": 109,
      "chip": "ym2612"
    },
    {
      "channel": 5,
      "note": 80,
      "start": 32.2392,
      "duration": 0.0387,
      "velocity": 88,
      "chip": "ym2612"
    },
    {
      "channel": 0,
      "note": 56,
      "start": 32.2853,
      "duration": 0.1108,
      "velocity": 109,
      "chip": "ym2612"
    },
    {
      "channel": 1,
      "note": 49,
      "start": 32.29,
      "duration": 0.1075,
      "velocity": 92,
      "chip": "ym2612"
    },
    {
      "channel": 3,
      "note": 56,
      "start": 32.2942,
      "duration": 0.1047,
      "velocity": 109,
      "chip": "ym2612"
    },
    {
      "channel": 5,
      "note": 82,
      "start": 32.2986,
      "duration": 0.1018,
      "velocity": 88,
      "chip": "ym2612"
    },
    {
      "channel": 0,
      "note": 54,
      "start": 32.411,
      "duration": 0.1923,
      "velocity": 109,
      "chip": "ym2612"
    },
    {
      "channel": 1,
      "note": 51,
      "start": 32.4162,
      "duration": 0.1232,
      "velocity": 92,
      "chip": "ym2612"
    },
    {
      "channel": 3,
      "note": 54,
      "start": 32.4217,
      "duration": 0.1838,
      "velocity": 109,
      "chip": "ym2612"
    },
    {
      "channel": 5,
      "note": 80,
      "start": 32.4271,
      "duration": 0.1139,
      "velocity": 88,
      "chip": "ym2612"
    },
    {
      "channel": 1,
      "note": 44,
      "start": 32.5544,
      "duration": 0.0499,
      "velocity": 92,
      "chip": "ym2612"
    },
    {
      "channel": 5,
      "note": 84,
      "start": 32.5599,
      "duration": 0.0467,
      "velocity": 88,
      "chip": "ym2612"
    },
    {
      "channel": 0,
      "note": 51,
      "start": 32.6128,
      "duration": 0.1344,
      "velocity": 109,
      "chip": "ym2612"
    },
    {
      "channel": 1,
      "note": 51,
      "start": 32.6173,
      "duration": 0.0463,
      "velocity": 92,
      "chip": "ym2612"
    },
    {
      "channel": 3,
      "note": 51,
      "start": 32.6219,
      "duration": 0.1281,
      "velocity": 109,
      "chip": "ym2612"
    },
    {
      "channel": 5,
      "note": 82,
      "start": 32.6276,
      "duration": 0.0372,
      "velocity": 88,
      "chip": "ym2612"
    },
    {
      "channel": 1,
      "note": 56,
      "start": 32.673,
      "duration": 0.0756,
      "velocity": 92,
      "chip": "ym2612"
    },
    {
      "channel": 5,
      "note": 80,
      "start": 32.6777,
      "duration": 0.0738,
      "velocity": 88,
      "chip": "ym2612"
    },
    {
      "channel": 0,
      "note": 56,
      "start": 32.762,
      "duration": 0.0529,
      "velocity": 109,
      "chip": "ym2612"
    },
    {
      "channel": 1,
      "note": 44,
      "start": 32.7673,
      "duration": 0.0524,
      "velocity": 92,
      "chip": "ym2612"
    },
    {
      "channel": 3,
      "note": 56,
      "start": 32.7728,
      "duration": 0.0429,
      "velocity": 109,
      "chip": "ym2612"
    },
    {
      "channel": 5,
      "note": 75,
      "start": 32.7781,
      "duration": 0.0437,
      "velocity": 88,
      "chip": "ym2612"
    },
    {
      "channel": 0,
      "note": 56,
      "start": 32.8294,
      "duration": 0.2127,
      "velocity": 109,
      "chip": "ym2612"
    },
    {
      "channel": 1,
      "note": 54,
      "start": 32.8337,
      "duration": 0.0458,
      "velocity": 92,
      "chip": "ym2612"
    },
    {
      "channel": 3,
      "note": 56,
      "start": 32.838,
      "duration": 0.2054,
      "velocity": 109,
      "chip": "ym2612"
    },
    {
      "channel": 5,
      "note": 78,
      "start": 32.843,
      "duration": 0.0376,
      "velocity": 88,
      "chip": "ym2612"
    },
    {
      "channel": 1,
      "note": 51,
      "start": 32.8886,
      "duration": 0.0435,
      "velocity": 92,
      "chip": "ym2612"
    },
    {
      "channel": 5,
      "note": 80,
      "start": 32.8932,
      "duration": 0.04,
      "velocity": 88,
      "chip": "ym2612"
    },
    {
      "channel": 1,
      "note": 49,
      "start": 32.9418,
      "duration": 0.0432,
      "velocity": 92,
      "chip": "ym2612"
    },
    {
      "channel": 5,
      "note": 73,
      "start": 32.9463,
      "duration": 0.0399,
      "velocity": 88,
      "chip": "ym2612"
    },
    {
      "channel": 1,
      "note": 51,
      "start": 32.9934,
      "duration": 0.0489,
      "velocity": 92,
      "chip": "ym2612"
    },
    {
      "channel": 5,
      "note": 75,
      "start": 32.9981,
      "duration": 0.0455,
      "velocity": 88,
      "chip": "ym2612"
    },
    {
      "channel": 1,
      "note": 44,
      "start": 33.0507,
      "duration": 0.046,
      "velocity": 92,
      "chip": "ym2612"
    },
    {
      "channel": 5,
      "note": 84,
      "start": 33.0566,
      "duration": 0.0417,
      "velocity": 88,
      "chip": "ym2612"
    },
    {
      "channel": 1,
      "note": 51,
      "start": 33.1056,
      "duration": 0.0445,
      "velocity": 92,
      "chip": "ym2612"
    },
    {
      "channel": 5,
      "note": 82,
      "start": 33.1103,
      "duration": 0.0418,
      "velocity": 88,
      "chip": "ym2612"
    },
    {
      "channel": 1,
      "note": 56,
      "start": 33.1597,
      "duration": 0.0518,
      "velocity": 92,
      "chip": "ym2612"
    },
    {
      "channel": 4,
      "note": 72,
      "start": 33.1642,
      "duration": 0.0442,
      "velocity": 93,
      "chip": "ym2612"
    },
    {
      "channel": 5,
      "note": 80,
      "start": 33.1703,
      "duration": 0.0432,
      "velocity": 88,
      "chip": "ym2612"
    },
    {
      "channel": 1,
      "note": 44,
      "start": 33.2217,
      "duration": 0.0837,
      "velocity": 92,
      "chip": "ym2612"
    },
    {
      "channel": 4,
      "note": 73,
      "start": 33.2264,
      "duration": 0.0805,
      "velocity": 93,
      "chip": "ym2612"
    },
    {
      "channel": 5,
      "note": 75,
      "start": 33.2305,
      "duration": 0.0778,
      "velocity": 88,
      "chip": "ym2612"
    },
    {
      "channel": 1,
      "note": 51,
      "start": 33.3201,
      "duration": 0.0492,
      "velocity": 92,
      "chip": "ym2612"
    },
    {
      "channel": 4,
      "note": 72,
      "start": 33.3256,
      "duration": 0.0447,
      "velocity": 93,
      "chip": "ym2612"
    },
    {
      "channel": 5,
      "note": 78,
      "start": 33.331,
      "duration": 0.0404,
      "velocity": 88,
      "chip": "ym2612"
    },
    {
      "channel": 1,
      "note": 54,
      "start": 33.3786,
      "duration": 0.0455,
      "velocity": 92,
      "chip": "ym2612"
    },
    {
      "channel": 4,
      "note": 66,
      "start": 33.3829,
      "duration": 0.0424,
      "velocity": 93,
      "chip": "ym2612"
    },
    {
      "channel": 5,
      "note": 80,
      "start": 33.3873,
      "duration": 0.039,
      "velocity": 88,
      "chip": "ym2612"
    },
    {
      "channel": 1,
      "note": 49,
      "start": 33.434,
      "duration": 0.1235,
      "velocity": 92,
      "chip": "ym2612"
    },
    {
      "channel": 4,
      "note": 63,
      "start": 33.4387,
      "duration": 0.1203,
      "velocity": 93,
      "chip": "ym2612"
    },
    {
      "channel": 5,
      "note": 73,
      "start": 33.4434,
      "duration": 0.117,
      "velocity": 88,
      "chip": "ym2612"
    },
    {
      "channel": 1,
      "note": 51,
      "start": 33.5724,
      "duration": 0.1283,
      "velocity": 92,
      "chip": "ym2612"
    },
    {
      "channel": 4,
      "note": 72,
      "start": 33.5779,
      "duration": 0.1849,
      "velocity": 93,
      "chip": "ym2612"
    },
    {
      "channel": 5,
      "note": 75,
      "start": 33.5832,
      "duration": 0.1192,
      "velocity": 88,
      "chip": "ym2612"
    },
    {
      "channel": 1,
      "note": 44,
      "start": 33.7155,
      "duration": 0.046,
      "velocity": 92,
      "chip": "ym2612"
    },
    {
      "channel": 5,
      "note": 78,
      "start": 33.7212,
      "duration": 0.0426,
      "velocity": 88,
      "chip": "ym2612"
    },
    {
      "channel": 1,
      "note": 51,
      "start": 33.7708,
      "duration": 0.0511,
      "velocity": 92,
      "chip": "ym2612"
    },
    {
      "channel": 4,
      "note": 73,
      "start": 33.7755,
      "duration": 0.1417,
      "velocity": 93,
      "chip": "ym2612"
    },
    {
      "channel": 5,
      "note": 80,
      "start": 33.7806,
      "duration": 0.0426,
      "velocity": 88,
      "chip": "ym2612"
    },
    {
      "channel": 1,
      "note": 56,
      "start": 33.8307,
      "duration": 0.085,
      "velocity": 92,
      "chip": "ym2612"
    },
    {
      "channel": 5,
      "note": 73,
      "start": 33.8354,
      "duration": 0.0832,
      "velocity": 88,
      "chip": "ym2612"
    },
    {
      "channel": 1,
      "note": 44,
      "start": 33.9306,
      "duration": 0.0494,
      "velocity": 92,
      "chip": "ym2612"
    },
    {
      "channel": 4,
      "note": 66,
      "start": 33.936,
      "duration": 0.0451,
      "velocity": 93,
      "chip": "ym2612"
    },
    {
      "channel": 5,
      "note": 75,
      "start": 33.9414,
      "duration": 0.0408,
      "velocity": 88,
      "chip": "ym2612"
    },
    {
      "channel": 1,
      "note": 54,
      "start": 33.9894,
      "duration": 0.0482,
      "velocity": 92,
      "chip": "ym2612"
    },
    {
      "channel": 4,
      "note": 68,
      "start": 33.9937,
      "duration": 0.0999,
      "velocity": 93,
      "chip": "ym2612"
    },
    {
      "channel": 5,
      "note": 78,
      "start": 33.9993,
      "duration": 0.0394,
      "velocity": 88,
      "chip": "ym2612"
    },
    {
      "channel": 1,
      "note": 51,
      "start": 34.0464,
      "duration": 0.0461,
      "velocity": 92,
      "chip": "ym2612"
    },
    {
      "channel": 5,
      "note": 75,
      "start": 34.0507,
      "duration": 0.044,
      "velocity": 88,
      "chip": "ym2612"
    },
    {
      "channel": 1,
      "note": 49,
      "start": 34.1025,
      "duration": 0.048,
      "velocity": 92,
      "chip": "ym2612"
    },
    {
      "channel": 4,
      "note": 68,
      "start": 34.1073,
      "duration": 0.0995,
      "velocity": 93,
      "chip": "ym2612"
    },
    {
      "channel": 5,
      "note": 73,
      "start": 34.1115,
      "duration": 0.0401,
      "velocity": 88,
      "chip": "ym2612"
    },
    {
      "channel": 1,
      "note": 51,
      "start": 34.1595,
      "duration": 0.0461,
      "velocity": 92,
      "chip": "ym2612"
    },
    {
      "channel": 5,
      "note": 72,
      "start": 34.1642,
      "duration": 0.0427,
      "velocity": 88,
      "chip": "ym2612"
    },
    {
      "channel": 1,
      "note": 44,
      "start": 34.2142,
      "duration": 0.0493,
      "velocity": 92,
      "chip": "ym2612"
    },
    {
      "channel": 5,
      "note": 73,
      "start": 34.2204,
      "duration": 0.0447,
      "velocity": 88,
      "chip": "ym2612"
    },
    {
      "channel": 1,
      "note": 51,
      "start": 34.273,
      "duration": 0.0465,
      "velocity": 92,
      "chip": "ym2612"
    },
    {
      "channel": 5,
      "note": 75,
      "start": 34.2786,
      "duration": 0.0428,
      "velocity": 88,
      "chip": "ym2612"
    },
    {
      "channel": 0,
      "note": 61,
      "start": 34.3288,
      "duration": 0.0488,
      "velocity": 109,
      "chip": "ym2612"
    },
    {
      "channel": 1,
      "note": 56,
      "start": 34.3335,
      "duration": 0.0453,
      "velocity": 92,
      "chip": "ym2612"
    },
    {
      "channel": 3,
      "note": 61,
      "start": 34.3378,
      "duration": 0.0421,
      "velocity": 109,
      "chip": "ym2612"
    },
    {
      "channel": 5,
      "note": 80,
      "start": 34.342,
      "duration": 0.0389,
      "velocity": 88,
      "chip": "ym2612"
    },
    {
      "channel": 0,
      "note": 63,
      "start": 34.3882,
      "duration": 0.0704,
      "velocity": 109,
      "chip": "ym2612"
    },
    {
      "channel": 1,
      "note": 44,
      "start": 34.3923,
      "duration": 0.0677,
      "velocity": 92,
      "chip": "ym2612"
    },
    {
      "channel": 3,
      "note": 63,
      "start": 34.3967,
      "duration": 0.0648,
      "velocity": 109,
      "chip": "ym2612"
    },
    {
      "channel": 5,
      "note": 75,
      "start": 34.4012,
      "duration": 0.0617,
      "velocity": 88,
      "chip": "ym2612"
    },
    {
      "channel": 0,
      "note": 61,
      "start": 34.4734,
      "duration": 0.0565,
      "velocity": 109,
      "chip": "ym2612"
    },
    {
      "channel": 1,
      "note": 51,
      "start": 34.4788,
      "duration": 0.0522,
      "velocity": 92,
      "chip": "ym2612"
    },
    {
      "channel": 3,
      "note": 61,
      "start": 34.4842,
      "duration": 0.048,
      "velocity": 109,
      "chip": "ym2612"
    },
    {
      "channel": 5,
      "note": 78,
      "start": 34.4895,
      "duration": 0.0437,
      "velocity": 88,
      "chip": "ym2612"
    },
    {
      "channel": 0,
      "note": 59,
      "start": 34.54,
      "duration": 0.0476,
      "velocity": 109,
      "chip": "ym2612"
    },
    {
      "channel": 1,
      "note": 54,
      "start": 34.5442,
      "duration": 0.0449,
      "velocity": 92,
      "chip": "ym2612"
    },
    {
      "channel": 3,
      "note": 59,
      "start": 34.5485,
      "duration": 0.0416,
      "velocity": 109,
      "chip": "ym2612"
    },
    {
      "channel": 5,
      "note": 80,
      "start": 34.5529,
      "duration": 0.0383,
      "velocity": 88,
      "chip": "ym2612"
    },
    {
      "channel": 0,
      "note": 56,
      "start": 34.5979,
      "duration": 0.1118,
      "velocity": 109,
      "chip": "ym2612"
    },
    {
      "channel": 1,
      "note": 49,
      "start": 34.6022,
      "duration": 0.1089,
      "velocity": 92,
      "chip": "ym2612"
    },
    {
      "channel": 3,
      "note": 56,
      "start": 34.607,
      "duration": 0.1056,
      "velocity": 109,
      "chip": "ym2612"
    },
    {
      "channel": 5,
      "note": 82,
      "start": 34.6116,
      "duration": 0.1025,
      "velocity": 88,
      "chip": "ym2612"
    },
    {
      "channel": 0,
      "note": 54,
      "start": 34.7247,
      "duration": 0.1987,
      "velocity": 109,
      "chip": "ym2612"
    },
    {
      "channel": 1,
      "note": 51,
      "start": 34.73,
      "duration": 0.1333,
      "velocity": 92,
      "chip": "ym2612"
    },
    {
      "channel": 3,
      "note": 54,
      "start": 34.7354,
      "duration": 0.1903,
      "velocity": 109,
      "chip": "ym2612"
    },
    {
      "channel": 5,
      "note": 80,
      "start": 34.7408,
      "duration": 0.1241,
      "velocity": 88,
      "chip": "ym2612"
    },
    {
      "channel": 1,
      "note": 44,
      "start": 34.8781,
      "duration": 0.0465,
      "velocity": 92,
      "chip": "ym2612"
    },
    {
      "channel": 5,
      "note": 84,
      "start": 34.8836,
      "duration": 0.0432,
      "velocity": 88,
      "chip": "ym2612"
    },
    {
      "channel": 0,
      "note": 51,
      "start": 34.9345,
      "duration": 0.1335,
      "velocity": 109,
      "chip": "ym2612"
    },
    {
      "channel": 1,
      "note": 51,
      "start": 34.9386,
      "duration": 0.0464,
      "velocity": 92,
      "chip": "ym2612"
    },
    {
      "channel": 3,
      "note": 51,
      "start": 34.9428,
      "duration": 0.128,
      "velocity": 109,
      "chip": "ym2612"
    },
    {
      "channel": 5,
      "note": 82,
      "start": 34.9485,
      "duration": 0.0378,
      "velocity": 88,
      "chip": "ym2612"
    },
    {
      "channel": 1,
      "note": 56,
      "start": 34.9941,
      "duration": 0.0752,
      "velocity": 92,
      "chip": "ym2612"
    },
    {
      "channel": 5,
      "note": 80,
      "start": 34.9988,
      "duration": 0.0734,
      "velocity": 88,
      "chip": "ym2612"
    },
    {
      "channel": 0,
      "note": 56,
      "start": 35.0829,
      "duration": 0.0535,
      "velocity": 109,
      "chip": "ym2612"
    },
    {
      "channel": 1,
      "note": 44,
      "start": 35.0882,
      "duration": 0.0528,
      "velocity": 92,
      "chip": "ym2612"
    },
    {
      "channel": 3,
      "note": 56,
      "start": 35.0936,
      "duration": 0.0431,
      "velocity": 109,
      "chip": "ym2612"
    },
    {
      "channel": 5,
      "note": 75,
      "start": 35.099,
      "duration": 0.0439,
      "velocity": 88,
      "chip": "ym2612"
    },
    {
      "channel": 0,
      "note": 56,
      "start": 35.1502,
      "duration": 0.1561,
      "velocity": 109,
      "chip": "ym2612"
    },
    {
      "channel": 1,
      "note": 54,
      "start": 35.1548,
      "duration": 0.0456,
      "velocity": 92,
      "chip": "ym2612"
    },
    {
      "channel": 3,
      "note": 56,
      "start": 35.1595,
      "duration": 0.1475,
      "velocity": 109,
      "chip": "ym2612"
    },
    {
      "channel": 5,
      "note": 78,
      "start": 35.1637,
      "duration": 0.038,
      "velocity": 88,
      "chip": "ym2612"
    },
    {
      "channel": 1,
      "note": 51,
      "start": 35.21,
      "duration": 0.0435,
      "velocity": 92,
      "chip": "ym2612"
    },
    {
      "channel": 5,
      "note": 80,
      "start": 35.2148,
      "duration": 0.0398,
      "velocity": 88,
      "chip": "ym2612"
    },
    {
      "channel": 1,
      "note": 49,
      "start": 35.2623,
      "duration": 0.0474,
      "velocity": 92,
      "chip": "ym2612"
    },
    {
      "channel": 5,
      "note": 73,
      "start": 35.2666,
      "duration": 0.0443,
      "velocity": 88,
      "chip": "ym2612"
    },
    {
      "channel": 1,
      "note": 51,
      "start": 35.3185,
      "duration": 0.0469,
      "velocity": 92,
      "chip": "ym2612"
    },
    {
      "channel": 5,
      "note": 75,
      "start": 35.3232,
      "duration": 0.0469,
      "velocity": 88,
      "chip": "ym2612"
    },
    {
      "channel": 0,
      "note": 70,
      "start": 35.3757,
      "duration": 1.4753,
      "velocity": 109,
      "chip": "ym2612"
    },
    {
      "channel": 1,
      "note": 42,
      "start": 35.3798,
      "duration": 0.0516,
      "velocity": 92,
      "chip": "ym2612"
    },
    {
      "channel": 2,
      "note": 61,
      "start": 35.3846,
      "duration": 1.4715,
      "velocity": 108,
      "chip": "ym2612"
    },
    {
      "channel": 3,
      "note": 70,
      "start": 35.3886,
      "duration": 1.4627,
      "velocity": 111,
      "chip": "ym2612"
    },
    {
      "channel": 4,
      "note": 46,
      "start": 35.3929,
      "duration": 0.0159,
      "velocity": 122,
      "chip": "ym2612"
    },
    {
      "channel": 1,
      "note": 49,
      "start": 35.4404,
      "duration": 0.0425,
      "velocity": 92,
      "chip": "ym2612"
    },
    {
      "channel": 4,
      "note": 56,
      "start": 35.4447,
      "duration": 0.0393,
      "velocity": 122,
      "chip": "ym2612"
    },
    {
      "channel": 1,
      "note": 54,
      "start": 35.4906,
      "duration": 0.0946,
      "velocity": 92,
      "chip": "ym2612"
    },
    {
      "channel": 1,
      "note": 42,
      "start": 35.5999,
      "duration": 0.045,
      "velocity": 92,
      "chip": "ym2612"
    },
    {
      "channel": 4,
      "note": 56,
      "start": 35.6055,
      "duration": 0.0407,
      "velocity": 122,
      "chip": "ym2612"
    },
    {
      "channel": 1,
      "note": 49,
      "start": 35.6532,
      "duration": 0.0459,
      "velocity": 92,
      "chip": "ym2612"
    },
    {
      "channel": 4,
      "note": 53,
      "start": 35.6587,
      "duration": 0.0271,
      "velocity": 122,
      "chip": "ym2612"
    },
    {
      "channel": 1,
      "note": 52,
      "start": 35.7072,
      "duration": 0.0434,
      "velocity": 92,
      "chip": "ym2612"
    },
    {
      "channel": 1,
      "note": 47,
      "start": 35.7646,
      "duration": 0.0452,
      "velocity": 92,
      "chip": "ym2612"
    },
    {
      "channel": 4,
      "note": 49,
      "start": 35.77,
      "duration": 0.0202,
      "velocity": 122,
      "chip": "ym2612"
    },
    {
      "channel": 1,
      "note": 49,
      "start": 35.8179,
      "duration": 0.0415,
      "velocity": 92,
      "chip": "ym2612"
    },
    {
      "channel": 1,
      "note": 42,
      "start": 35.8678,
      "duration": 0.0888,
      "velocity": 92,
      "chip": "ym2612"
    },
    {
      "channel": 1,
      "note": 49,
      "start": 35.9714,
      "duration": 0.0446,
      "velocity": 92,
      "chip": "ym2612"
    },
    {
      "channel": 1,
      "note": 54,
      "start": 36.0242,
      "duration": 0.0438,
      "velocity": 92,
      "chip": "ym2612"
    },
    {
      "channel": 4,
      "note": 52,
      "start": 36.0289,
      "duration": 0.0131,
      "velocity": 122,
      "chip": "ym2612"
    },
    {
      "channel": 1,
      "note": 42,
      "start": 36.0761,
      "duration": 0.0834,
      "velocity": 92,
      "chip": "ym2612"
    },
    {
      "channel": 4,
      "note": 50,
      "start": 36.0805,
      "duration": 0.069,
      "velocity": 122,
      "chip": "ym2612"
    },
    {
      "channel": 1,
      "note": 52,
      "start": 36.1743,
      "duration": 0.0484,
      "velocity": 92,
      "chip": "ym2612"
    },
    {
      "channel": 4,
      "note": 52,
      "start": 36.1798,
      "duration": 0.0145,
      "velocity": 122,
      "chip": "ym2612"
    },
    {
      "channel": 1,
      "note": 49,
      "start": 36.2308,
      "duration": 0.0424,
      "velocity": 92,
      "chip": "ym2612"
    },
    {
      "channel": 4,
      "note": 50,
      "start": 36.2355,
      "duration": 0.0388,
      "velocity": 122,
      "chip": "ym2612"
    },
    {
      "channel": 1,
      "note": 47,
      "start": 36.2835,
      "duration": 0.0454,
      "velocity": 92,
      "chip": "ym2612"
    },
    {
      "channel": 4,
      "note": 52,
      "start": 36.2889,
      "duration": 0.0204,
      "velocity": 122,
      "chip": "ym2612"
    },
    {
      "channel": 1,
      "note": 49,
      "start": 36.3371,
      "duration": 0.0436,
      "velocity": 92,
      "chip": "ym2612"
    },
    {
      "channel": 4,
      "note": 52,
      "start": 36.3415,
      "duration": 0.0359,
      "velocity": 122,
      "chip": "ym2612"
    },
    {
      "channel": 1,
      "note": 42,
      "start": 36.3893,
      "duration": 0.0481,
      "velocity": 92,
      "chip": "ym2612"
    },
    {
      "channel": 4,
      "note": 46,
      "start": 36.3951,
      "duration": 0.0198,
      "velocity": 122,
      "chip": "ym2612"
    },
    {
      "channel": 1,
      "note": 49,
      "start": 36.4458,
      "duration": 0.0439,
      "velocity": 92,
      "chip": "ym2612"
    },
    {
      "channel": 4,
      "note": 56,
      "start": 36.4506,
      "duration": 0.036,
      "velocity": 122,
      "chip": "ym2612"
    },
    {
      "channel": 1,
      "note": 54,
      "start": 36.4984,
      "duration": 0.0836,
      "velocity": 92,
      "chip": "ym2612"
    },
    {
      "channel": 1,
      "note": 42,
      "start": 36.5967,
      "duration": 0.0482,
      "velocity": 92,
      "chip": "ym2612"
    },
    {
      "channel": 4,
      "note": 56,
      "start": 36.6022,
      "duration": 0.0365,
      "velocity": 122,
      "chip": "ym2612"
    },
    {
      "channel": 1,
      "note": 49,
      "start": 36.6532,
      "duration": 0.0453,
      "velocity": 92,
      "chip": "ym2612"
    },
    {
      "channel": 4,
      "note": 53,
      "start": 36.6589,
      "duration": 0.0267,
      "velocity": 122,
      "chip": "ym2612"
    },
    {
      "channel": 1,
      "note": 52,
      "start": 36.7067,
      "duration": 0.0406,
      "velocity": 92,
      "chip": "ym2612"
    },
    {
      "channel": 1,
      "note": 47,
      "start": 36.7559,
      "duration": 0.0447,
      "velocity": 92,
      "chip": "ym2612"
    },
    {
      "channel": 4,
      "note": 49,
      "start": 36.761,
      "duration": 0.0203,
      "velocity": 122,
      "chip": "ym2612"
    },
    {
      "channel": 1,
      "note": 49,
      "start": 36.8098,
      "duration": 0.0452,
      "velocity": 92,
      "chip": "ym2612"
    },
    {
      "channel": 0,
      "note": 71,
      "start": 36.8641,
      "duration": 0.5214,
      "velocity": 109,
      "chip": "ym2612"
    },
    {
      "channel": 1,
      "note": 42,
      "start": 36.8687,
      "duration": 0.0869,
      "velocity": 92,
      "chip": "ym2612"
    },
    {
      "channel": 2,
      "note": 66,
      "start": 36.8728,
      "duration": 0.5152,
      "velocity": 108,
      "chip": "ym2612"
    },
    {
      "channel": 3,
      "note": 71,
      "start": 36.8771,
      "duration": 0.5121,
      "velocity": 111,
      "chip": "ym2612"
    },
    {
      "channel": 1,
      "note": 49,
      "start": 36.9703,
      "duration": 0.0413,
      "velocity": 92,
      "chip": "ym2612"
    },
    {
      "channel": 1,
      "note": 54,
      "start": 37.02,
      "duration": 0.0477,
      "velocity": 92,
      "chip": "ym2612"
    },
    {
      "channel": 4,
      "note": 52,
      "start": 37.0253,
      "duration": 0.0168,
      "velocity": 122,
      "chip": "ym2612"
    },
    {
      "channel": 1,
      "note": 42,
      "start": 37.0757,
      "duration": 0.0901,
      "velocity": 92,
      "chip": "ym2612"
    },
    {
      "channel": 4,
      "note": 50,
      "start": 37.0804,
      "duration": 0.0755,
      "velocity": 122,
      "chip": "ym2612"
    },
    {
      "channel": 1,
      "note": 52,
      "start": 37.1806,
      "duration": 0.0453,
      "velocity": 92,
      "chip": "ym2612"
    },
    {
      "channel": 4,
      "note": 52,
      "start": 37.1861,
      "duration": 0.014,
      "velocity": 122,
      "chip": "ym2612"
    },
    {
      "channel": 1,
      "note": 49,
      "start": 37.2337,
      "duration": 0.0419,
      "velocity": 92,
      "chip": "ym2612"
    },
    {
      "channel": 4,
      "note": 50,
      "start": 37.2385,
      "duration": 0.0384,
      "velocity": 122,
      "chip": "ym2612"
    },
    {
      "channel": 1,
      "note": 47,
      "start": 37.2846,
      "duration": 0.049,
      "velocity": 92,
      "chip": "ym2612"
    },
    {
      "channel": 4,
      "note": 52,
      "start": 37.2893,
      "duration": 0.0246,
      "velocity": 122,
      "chip": "ym2612"
    },
    {
      "channel": 1,
      "note": 49,
      "start": 37.3422,
      "duration": 0.0448,
      "velocity": 92,
      "chip": "ym2612"
    },
    {
      "channel": 4,
      "note": 52,
      "start": 37.3463,
      "duration": 0.0363,
      "velocity": 122,
      "chip": "ym2612"
    },
    {
      "channel": 0,
      "note": 68,
      "start": 37.3966,
      "duration": 2.0183,
      "velocity": 109,
      "chip": "ym2612"
    },
    {
      "channel": 1,
      "note": 44,
      "start": 37.4009,
      "duration": 0.0502,
      "velocity": 92,
      "chip": "ym2612"
    },
    {
      "channel": 2,
      "note": 63,
      "start": 37.4056,
      "duration": 2.0115,
      "velocity": 108,
      "chip": "ym2612"
    },
    {
      "channel": 3,
      "note": 68,
      "start": 37.4104,
      "duration": 2.008,
      "velocity": 111,
      "chip": "ym2612"
    },
    {
      "channel": 4,
      "note": 48,
      "start": 37.4146,
      "duration": 0.0171,
      "velocity": 122,
      "chip": "ym2612"
    },
    {
      "channel": 1,
      "note": 51,
      "start": 37.4599,
      "duration": 0.0491,
      "velocity": 92,
      "chip": "ym2612"
    },
    {
      "channel": 4,
      "note": 60,
      "start": 37.4654,
      "duration": 0.0403,
      "velocity": 122,
      "chip": "ym2612"
    },
    {
      "channel": 1,
      "note": 56,
      "start": 37.5171,
      "duration": 0.0892,
      "velocity": 92,
      "chip": "ym2612"
    },
    {
      "channel": 1,
      "note": 44,
      "start": 37.6212,
      "duration": 0.0449,
      "velocity": 92,
      "chip": "ym2612"
    },
    {
      "channel": 4,
      "note": 60,
      "start": 37.6266,
      "duration": 0.0332,
      "velocity": 122,
      "chip": "ym2612"
    },
    {
      "channel": 1,
      "note": 51,
      "start": 37.6753,
      "duration": 0.0449,
      "velocity": 92,
      "chip": "ym2612"
    },
    {
      "channel": 4,
      "note": 57,
      "start": 37.6801,
      "duration": 0.0303,
      "velocity": 122,
      "chip": "ym2612"
    },
    {
      "channel": 1,
      "note": 54,
      "start": 37.7289,
      "duration": 0.0437,
      "velocity": 92,
      "chip": "ym2612"
    },
    {
      "channel": 1,
      "note": 49,
      "start": 37.7852,
      "duration": 0.046,
      "velocity": 92,
      "chip": "ym2612"
    },
    {
      "channel": 4,
      "note": 53,
      "start": 37.7907,
      "duration": 0.0209,
      "velocity": 122,
      "chip": "ym2612"
    },
    {
      "channel": 1,
      "note": 51,
      "start": 37.8407,
      "duration": 0.0421,
      "velocity": 92,
      "chip": "ym2612"
    },
    {
      "channel": 1,
      "note": 44,
      "start": 37.8916,
      "duration": 0.0984,
      "velocity": 92,
      "chip": "ym2612"
    },
    {
      "channel": 1,
      "note": 51,
      "start": 38.005,
      "duration": 0.0419,
      "velocity": 92,
      "chip": "ym2612"
    },
    {
      "channel": 1,
      "note": 56,
      "start": 38.0556,
      "duration": 0.0436,
      "velocity": 92,
      "chip": "ym2612"
    },
    {
      "channel": 4,
      "note": 54,
      "start": 38.06,
      "duration": 0.0164,
      "velocity": 122,
      "chip": "ym2612"
    },
    {
      "channel": 1,
      "note": 44,
      "start": 38.1081,
      "duration": 0.0822,
      "velocity": 92,
      "chip": "ym2612"
    },
    {
      "channel": 4,
      "note": 51,
      "start": 38.1124,
      "duration": 0.0678,
      "velocity": 122,
      "chip": "ym2612"
    },
    {
      "channel": 1,
      "note": 54,
      "start": 38.2051,
      "duration": 0.0488,
      "velocity": 92,
      "chip": "ym2612"
    },
    {
      "channel": 4,
      "note": 54,
      "start": 38.2107,
      "duration": 0.0141,
      "velocity": 122,
      "chip": "ym2612"
    },
    {
      "channel": 1,
      "note": 51,
      "start": 38.2628,
      "duration": 0.0429,
      "velocity": 92,
      "chip": "ym2612"
    },
    {
      "channel": 4,
      "note": 51,
      "start": 38.2671,
      "duration": 0.0401,
      "velocity": 122,
      "chip": "ym2612"
    },
    {
      "channel": 1,
      "note": 49,
      "start": 38.3151,
      "duration": 0.0463,
      "velocity": 92,
      "chip": "ym2612"
    },
    {
      "channel": 4,
      "note": 54,
      "start": 38.3207,
      "duration": 0.0209,
      "velocity": 122,
      "chip": "ym2612"
    },
    {
      "channel": 1,
      "note": 51,
      "start": 38.3698,
      "duration": 0.0468,
      "velocity": 92,
      "chip": "ym2612"
    },
    {
      "channel": 4,
      "note": 56,
      "start": 38.3739,
      "duration": 0.0392,
      "velocity": 122,
      "chip": "ym2612"
    },
    {
      "channel": 1,
      "note": 44,
      "start": 38.4256,
      "duration": 0.0441,
      "velocity": 92,
      "chip": "ym2612"
    },
    {
      "channel": 4,
      "note": 44,
      "start": 38.4302,
      "duration": 0.0168,
      "velocity": 122,
      "chip": "ym2612"
    },
    {
      "channel": 1,
      "note": 51,
      "start": 38.4783,
      "duration": 0.0449,
      "velocity": 92,
      "chip": "ym2612"
    },
    {
      "channel": 4,
      "note": 60,
      "start": 38.4832,
      "duration": 0.0373,
      "velocity": 122,
      "chip": "ym2612"
    },
    {
      "channel": 1,
      "note": 56,
      "start": 38.5315,
      "duration": 0.083,
      "velocity": 92,
      "chip": "ym2612"
    },
    {
      "channel": 1,
      "note": 44,
      "start": 38.6293,
      "duration": 0.0492,
      "velocity": 92,
      "chip": "ym2612"
    },
    {
      "channel": 4,
      "note": 60,
      "start": 38.6348,
      "duration": 0.0374,
      "velocity": 122,
      "chip": "ym2612"
    },
    {
      "channel": 1,
      "note": 51,
      "start": 38.6869,
      "duration": 0.0445,
      "velocity": 92,
      "chip": "ym2612"
    },
    {
      "channel": 4,
      "note": 57,
      "start": 38.6912,
      "duration": 0.0273,
      "velocity": 122,
      "chip": "ym2612"
    },
    {
      "channel": 1,
      "note": 54,
      "start": 38.7401,
      "duration": 0.0408,
      "velocity": 92,
      "chip": "ym2612"
    },
    {
      "channel": 1,
      "note": 49,
      "start": 38.7895,
      "duration": 0.048,
      "velocity": 92,
      "chip": "ym2612"
    },
    {
      "channel": 4,
      "note": 53,
      "start": 38.7947,
      "duration": 0.0237,
      "velocity": 122,
      "chip": "ym2612"
    },
    {
      "channel": 1,
      "note": 51,
      "start": 38.8457,
      "duration": 0.0416,
      "velocity": 92,
      "chip": "ym2612"
    },
    {
      "channel": 1,
      "note": 44,
      "start": 38.8956,
      "duration": 0.0876,
      "velocity": 92,
      "chip": "ym2612"
    },
    {
      "channel": 1,
      "note": 51,
      "start": 38.9981,
      "duration": 0.0423,
      "velocity": 92,
      "chip": "ym2612"
    },
    {
      "channel": 1,
      "note": 56,
      "start": 39.0491,
      "duration": 0.0469,
      "velocity": 92,
      "chip": "ym2612"
    },
    {
      "channel": 4,
      "note": 55,
      "start": 39.0535,
      "duration": 0.0163,
      "velocity": 122,
      "chip": "ym2612"
    },
    {
      "channel": 1,
      "note": 44,
      "start": 39.1045,
      "duration": 0.0886,
      "velocity": 92,
      "chip": "ym2612"
    },
    {
      "channel": 4,
      "note": 53,
      "start": 39.1088,
      "duration": 0.0744,
      "velocity": 122,
      "chip": "ym2612"
    },
    {
      "channel": 1,
      "note": 54,
      "start": 39.2079,
      "duration": 0.0459,
      "velocity": 92,
      "chip": "ym2612"
    },
    {
      "channel": 4,
      "note": 55,
      "start": 39.2133,
      "duration": 0.014,
      "velocity": 122,
      "chip": "ym2612"
    },
    {
      "channel": 1,
      "note": 51,
      "start": 39.2626,
      "duration": 0.0454,
      "velocity": 92,
      "chip": "ym2612"
    },
    {
      "channel": 4,
      "note": 53,
      "start": 39.267,
      "duration": 0.0374,
      "velocity": 122,
      "chip": "ym2612"
    },
    {
      "channel": 1,
      "note": 49,
      "start": 39.3164,
      "duration": 0.0451,
      "velocity": 92,
      "chip": "ym2612"
    },
    {
      "channel": 4,
      "note": 55,
      "start": 39.3217,
      "duration": 0.0205,
      "velocity": 122,
      "chip": "ym2612"
    },
    {
      "channel": 1,
      "note": 51,
      "start": 39.3699,
      "duration": 0.0461,
      "velocity": 92,
      "chip": "ym2612"
    },
    {
      "channel": 4,
      "note": 60,
      "start": 39.3746,
      "duration": 0.0372,
      "velocity": 122,
      "chip": "ym2612"
    },
    {
      "channel": 0,
      "note": 70,
      "start": 39.4261,
      "duration": 1.6756,
      "velocity": 109,
      "chip": "ym2612"
    },
    {
      "channel": 1,
      "note": 42,
      "start": 39.4307,
      "duration": 0.0495,
      "velocity": 92,
      "chip": "ym2612"
    },
    {
      "channel": 2,
      "note": 61,
      "start": 39.435,
      "duration": 1.668,
      "velocity": 108,
      "chip": "ym2612"
    },
    {
      "channel": 3,
      "note": 70,
      "start": 39.4396,
      "duration": 1.665,
      "velocity": 111,
      "chip": "ym2612"
    },
    {
      "channel": 4,
      "note": 46,
      "start": 39.4443,
      "duration": 0.0165,
      "velocity": 122,
      "chip": "ym2612"
    },
    {
      "channel": 1,
      "note": 49,
      "start": 39.4886,
      "duration": 0.0463,
      "velocity": 92,
      "chip": "ym2612"
    },
    {
      "channel": 4,
      "note": 56,
      "start": 39.4929,
      "duration": 0.0388,
      "velocity": 122,
      "chip": "ym2612"
    },
    {
      "channel": 1,
      "note": 54,
      "start": 39.5425,
      "duration": 0.0914,
      "velocity": 92,
      "chip": "ym2612"
    },
    {
      "channel": 1,
      "note": 42,
      "start": 39.6485,
      "duration": 0.0449,
      "velocity": 92,
      "chip": "ym2612"
    },
    {
      "channel": 4,
      "note": 56,
      "start": 39.6541,
      "duration": 0.0359,
      "velocity": 122,
      "chip": "ym2612"
    },
    {
      "channel": 1,
      "note": 49,
      "start": 39.7015,
      "duration": 0.0483,
      "velocity": 92,
      "chip": "ym2612"
    },
    {
      "channel": 4,
      "note": 53,
      "start": 39.707,
      "duration": 0.03,
      "velocity": 122,
      "chip": "ym2612"
    },
    {
      "channel": 1,
      "note": 52,
      "start": 39.7578,
      "duration": 0.0404,
      "velocity": 92,
      "chip": "ym2612"
    },
    {
      "channel": 1,
      "note": 47,
      "start": 39.812,
      "duration": 0.045,
      "velocity": 92,
      "chip": "ym2612"
    },
    {
      "channel": 4,
      "note": 49,
      "start": 39.8175,
      "duration": 0.0203,
      "velocity": 122,
      "chip": "ym2612"
    },
    {
      "channel": 1,
      "note": 49,
      "start": 39.8645,
      "duration": 0.0412,
      "velocity": 92,
      "chip": "ym2612"
    },
    {
      "channel": 1,
      "note": 42,
      "start": 39.9136,
      "duration": 0.0985,
      "velocity": 92,
      "chip": "ym2612"
    },
    {
      "channel": 1,
      "note": 49,
      "start": 40.0269,
      "duration": 0.042,
      "velocity": 92,
      "chip": "ym2612"
    },
    {
      "channel": 1,
      "note": 54,
      "start": 40.0769,
      "duration": 0.0438,
      "velocity": 92,
      "chip": "ym2612"
    },
    {
      "channel": 4,
      "note": 52,
      "start": 40.0821,
      "duration": 0.0164,
      "velocity": 122,
      "chip": "ym2612"
    },
    {
      "channel": 1,
      "note": 42,
      "start": 40.1289,
      "duration": 0.0929,
      "velocity": 92,
      "chip": "ym2612"
    },
    {
      "channel": 4,
      "note": 50,
      "start": 40.1331,
      "duration": 0.0686,
      "velocity": 122,
      "chip": "ym2612"
    },
    {
      "channel": 1,
      "note": 52,
      "start": 40.2367,
      "duration": 0.0453,
      "velocity": 92,
      "chip": "ym2612"
    },
    {
      "channel": 4,
      "note": 52,
      "start": 40.2421,
      "duration": 0.014,
      "velocity": 122,
      "chip": "ym2612"
    },
    {
      "channel": 1,
      "note": 49,
      "start": 40.29,
      "duration": 0.0428,
      "velocity": 92,
      "chip": "ym2612"
    },
    {
      "channel": 4,
      "note": 50,
      "start": 40.2943,
      "duration": 0.0397,
      "velocity": 122,
      "chip": "ym2612"
    },
    {
      "channel": 1,
      "note": 47,
      "start": 40.3415,
      "duration": 0.1241,
      "velocity": 92,
      "chip": "ym2612"
    },
    {
      "channel": 4,
      "note": 52,
      "start": 40.3463,
      "duration": 0.0581,
      "velocity": 122,
      "chip": "ym2612"
    },
    {
      "channel": 1,
      "note": 49,
      "start": 40.4804,
      "duration": 0.1387,
      "velocity": 92,
      "chip": "ym2612"
    },
    {
      "channel": 4,
      "note": 52,
      "start": 40.4859,
      "duration": 0.1231,
      "velocity": 122,
      "chip": "ym2612"
    },
    {
      "channel": 1,
      "note": 42,
      "start": 40.634,
      "duration": 0.045,
      "velocity": 92,
      "chip": "ym2612"
    },
    {
      "channel": 4,
      "note": 46,
      "start": 40.6394,
      "duration": 0.0168,
      "velocity": 122,
      "chip": "ym2612"
    },
    {
      "channel": 1,
      "note": 49,
      "start": 40.6868,
      "duration": 0.0451,
      "velocity": 92,
      "chip": "ym2612"
    },
    {
      "channel": 4,
      "note": 56,
      "start": 40.6927,
      "duration": 0.0404,
      "velocity": 122,
      "chip": "ym2612"
    },
    {
      "channel": 1,
      "note": 54,
      "start": 40.7396,
      "duration": 0.0948,
      "velocity": 92,
      "chip": "ym2612"
    },
    {
      "channel": 1,
      "note": 42,
      "start": 40.8492,
      "duration": 0.0455,
      "velocity": 92,
      "chip": "ym2612"
    },
    {
      "channel": 4,
      "note": 56,
      "start": 40.8546,
      "duration": 0.0337,
      "velocity": 122,
      "chip": "ym2612"
    },
    {
      "channel": 1,
      "note": 49,
      "start": 40.9028,
      "duration": 0.0453,
      "velocity": 92,
      "chip": "ym2612"
    },
    {
      "channel": 4,
      "note": 53,
      "start": 40.9083,
      "duration": 0.0266,
      "velocity": 122,
      "chip": "ym2612"
    },
    {
      "channel": 1,
      "note": 52,
      "start": 40.9559,
      "duration": 0.0408,
      "velocity": 92,
      "chip": "ym2612"
    },
    {
      "channel": 1,
      "note": 47,
      "start": 41.0046,
      "duration": 0.0468,
      "velocity": 92,
      "chip": "ym2612"
    },
    {
      "channel": 4,
      "note": 49,
      "start": 41.0092,
      "duration": 0.0232,
      "velocity": 122,
      "chip": "ym2612"
    },
    {
      "channel": 1,
      "note": 49,
      "start": 41.0603,
      "duration": 0.0424,
      "velocity": 92,
      "chip": "ym2612"
    },
    {
      "channel": 0,
      "note": 71,
      "start": 41.111,
      "duration": 0.3693,
      "velocity": 109,
      "chip": "ym2612"
    },
    {
      "channel": 2,
      "note": 66,
      "start": 41.1155,
      "duration": 0.3651,
      "velocity": 108,
      "chip": "ym2612"
    },
    {
      "channel": 3,
      "note": 71,
      "start": 41.1197,
      "duration": 0.3612,
      "velocity": 111,
      "chip": "ym2612"
    },
    {
      "channel": 1,
      "note": 44,
      "start": 41.493,
      "duration": 0.0527,
      "velocity": 92,
      "chip": "ym2612"
    },
    {
      "channel": 2,
      "note": 63,
      "start": 41.4987,
      "duration": 0.8994,
      "velocity": 108,
      "chip": "ym2612"
    },
    {
      "channel": 3,
      "note": 68,
      "start": 41.5068,
      "duration": 0.8984,
      "velocity": 108,
      "chip": "ym2612"
    },
    {
      "channel": 1,
      "note": 51,
      "start": 41.5546,
      "duration": 0.0443,
      "velocity": 92,
      "chip": "ym2612"
    },
    {
      "channel": 5,
      "note": 82,
      "start": 41.5593,
      "duration": 0.0409,
      "velocity": 88,
      "chip": "ym2612"
    },
    {
      "channel": 1,
      "note": 56,
      "start": 41.6077,
      "duration": 0.0453,
      "velocity": 92,
      "chip": "ym2612"
    },
    {
      "channel": 5,
      "note": 80,
      "start": 41.6132,
      "duration": 0.041,
      "velocity": 88,
      "chip": "ym2612"
    },
    {
      "channel": 1,
      "note": 44,
      "start": 41.6617,
      "duration": 0.0818,
      "velocity": 92,
      "chip": "ym2612"
    },
    {
      "channel": 5,
      "note": 75,
      "start": 41.666,
      "duration": 0.079,
      "velocity": 88,
      "chip": "ym2612"
    },
    {
      "channel": 1,
      "note": 51,
      "start": 41.7584,
      "duration": 0.049,
      "velocity": 92,
      "chip": "ym2612"
    },
    {
      "channel": 5,
      "note": 78,
      "start": 41.7639,
      "duration": 0.0446,
      "velocity": 88,
      "chip": "ym2612"
    },
    {
      "channel": 1,
      "note": 54,
      "start": 41.816,
      "duration": 0.0444,
      "velocity": 92,
      "chip": "ym2612"
    },
    {
      "channel": 5,
      "note": 80,
      "start": 41.8203,
      "duration": 0.0413,
      "velocity": 88,
      "chip": "ym2612"
    },
    {
      "channel": 1,
      "note": 49,
      "start": 41.8711,
      "duration": 0.0482,
      "velocity": 92,
      "chip": "ym2612"
    },
    {
      "channel": 5,
      "note": 73,
      "start": 41.8773,
      "duration": 0.0445,
      "velocity": 88,
      "chip": "ym2612"
    },
    {
      "channel": 1,
      "note": 51,
      "start": 41.9291,
      "duration": 0.0494,
      "velocity": 92,
      "chip": "ym2612"
    },
    {
      "channel": 5,
      "note": 75,
      "start": 41.9348,
      "duration": 0.0465,
      "velocity": 88,
      "chip": "ym2612"
    },
    {
      "channel": 1,
      "note": 44,
      "start": 41.988,
      "duration": 0.0445,
      "velocity": 92,
      "chip": "ym2612"
    },
    {
      "channel": 5,
      "note": 78,
      "start": 41.9924,
      "duration": 0.0413,
      "velocity": 88,
      "chip": "ym2612"
    },
    {
      "channel": 1,
      "note": 51,
      "start": 42.0412,
      "duration": 0.0468,
      "velocity": 92,
      "chip": "ym2612"
    },
    {
      "channel": 5,
      "note": 80,
      "start": 42.0455,
      "duration": 0.0438,
      "velocity": 88,
      "chip": "ym2612"
    },
    {
      "channel": 1,
      "note": 56,
      "start": 42.097,
      "duration": 0.0465,
      "velocity": 92,
      "chip": "ym2612"
    },
    {
      "channel": 5,
      "note": 73,
      "start": 42.103,
      "duration": 0.0415,
      "velocity": 88,
      "chip": "ym2612"
    },
    {
      "channel": 1,
      "note": 44,
      "start": 42.1525,
      "duration": 0.0532,
      "velocity": 92,
      "chip": "ym2612"
    },
    {
      "channel": 5,
      "note": 75,
      "start": 42.157,
      "duration": 0.0503,
      "velocity": 88,
      "chip": "ym2612"
    },
    {
      "channel": 1,
      "note": 54,
      "start": 42.2147,
      "duration": 0.0458,
      "velocity": 92,
      "chip": "ym2612"
    },
    {
      "channel": 5,
      "note": 78,
      "start": 42.2203,
      "duration": 0.0413,
      "velocity": 88,
      "chip": "ym2612"
    },
    {
      "channel": 1,
      "note": 51,
      "start": 42.2692,
      "duration": 0.0477,
      "velocity": 92,
      "chip": "ym2612"
    },
    {
      "channel": 5,
      "note": 75,
      "start": 42.2734,
      "duration": 0.0447,
      "velocity": 88,
      "chip": "ym2612"
    },
    {
      "channel": 1,
      "note": 49,
      "start": 42.3258,
      "duration": 0.05,
      "velocity": 92,
      "chip": "ym2612"
    },
    {
      "channel": 5,
      "note": 73,
      "start": 42.3312,
      "duration": 0.0457,
      "velocity": 88,
      "chip": "ym2612"
    },
    {
      "channel": 1,
      "note": 51,
      "start": 42.3846,
      "duration": 0.0433,
      "velocity": 92,
      "chip": "ym2612"
    },
    {
      "channel": 5,
      "note": 72,
      "start": 42.389,
      "duration": 0.0416,
      "velocity": 88,
      "chip": "ym2612"
    },
    {
      "channel": 0,
      "note": 54,
      "start": 42.4373,
      "duration": 0.0525,
      "velocity": 109,
      "chip": "ym2612"
    },
    {
      "channel": 1,
      "note": 44,
      "start": 42.4418,
      "duration": 0.0491,
      "velocity": 92,
      "chip": "ym2612"
    },
    {
      "channel": 4,
      "note": 66,
      "start": 42.4461,
      "duration": 0.0471,
      "velocity": 127,
      "chip": "ym2612"
    },
    {
      "channel": 5,
      "note": 73,
      "start": 42.4507,
      "duration": 0.0444,
      "velocity": 88,
      "chip": "ym2612"
    },
    {
      "channel": 0,
      "note": 56,
      "start": 42.5018,
      "duration": 0.054,
      "velocity": 109,
      "chip": "ym2612"
    },
    {
      "channel": 1,
      "note": 51,
      "start": 42.506,
      "duration": 0.0509,
      "velocity": 92,
      "chip": "ym2612"
    },
    {
      "channel": 4,
      "note": 66,
      "start": 42.512,
      "duration": 0.0459,
      "velocity": 127,
      "chip": "ym2612"
    },
    {
      "channel": 5,
      "note": 75,
      "start": 42.5167,
      "duration": 0.042,
      "velocity": 88,
      "chip": "ym2612"
    },
    {
      "channel": 0,
      "note": 59,
      "start": 42.5654,
      "duration": 0.0489,
      "velocity": 109,
      "chip": "ym2612"
    },
    {
      "channel": 1,
      "note": 56,
      "start": 42.5701,
      "duration": 0.0485,
      "velocity": 92,
      "chip": "ym2612"
    },
    {
      "channel": 5,
      "note": 80,
      "start": 42.5767,
      "duration": 0.0446,
      "velocity": 88,
      "chip": "ym2612"
    },
    {
      "channel": 0,
      "note": 60,
      "start": 42.628,
      "duration": 0.0819,
      "velocity": 109,
      "chip": "ym2612"
    },
    {
      "channel": 1,
      "note": 44,
      "start": 42.6324,
      "duration": 0.0789,
      "velocity": 92,
      "chip": "ym2612"
    },
    {
      "channel": 4,
      "note": 66,
      "start": 42.6368,
      "duration": 0.076,
      "velocity": 127,
      "chip": "ym2612"
    },
    {
      "channel": 5,
      "note": 75,
      "start": 42.6411,
      "duration": 0.0737,
      "velocity": 88,
      "chip": "ym2612"
    },
    {
      "channel": 0,
      "note": 63,
      "start": 42.7248,
      "duration": 0.0529,
      "velocity": 109,
      "chip": "ym2612"
    },
    {
      "channel": 1,
      "note": 51,
      "start": 42.7302,
      "duration": 0.049,
      "velocity": 92,
      "chip": "ym2612"
    },
    {
      "channel": 4,
      "note": 66,
      "start": 42.7356,
      "duration": 0.0446,
      "velocity": 127,
      "chip": "ym2612"
    },
    {
      "channel": 5,
      "note": 78,
      "start": 42.7409,
      "duration": 0.0396,
      "velocity": 88,
      "chip": "ym2612"
    },
    {
      "channel": 0,
      "note": 66,
      "start": 42.7881,
      "duration": 0.0449,
      "velocity": 109,
      "chip": "ym2612"
    },
    {
      "channel": 1,
      "note": 54,
      "start": 42.7928,
      "duration": 0.0447,
      "velocity": 92,
      "chip": "ym2612"
    },
    {
      "channel": 5,
      "note": 80,
      "start": 42.7972,
      "duration": 0.0425,
      "velocity": 88,
      "chip": "ym2612"
    },
    {
      "channel": 0,
      "note": 67,
      "start": 42.847,
      "duration": 0.1148,
      "velocity": 109,
      "chip": "ym2612"
    },
    {
      "channel": 1,
      "note": 49,
      "start": 42.8512,
      "duration": 0.1119,
      "velocity": 92,
      "chip": "ym2612"
    },
    {
      "channel": 4,
      "note": 66,
      "start": 42.8556,
      "duration": 0.109,
      "velocity": 127,
      "chip": "ym2612"
    },
    {
      "channel": 5,
      "note": 82,
      "start": 42.8599,
      "duration": 0.1066,
      "velocity": 88,
      "chip": "ym2612"
    },
    {
      "channel": 0,
      "note": 68,
      "start": 42.9767,
      "duration": 0.1283,
      "velocity": 109,
      "chip": "ym2612"
    },
    {
      "channel": 1,
      "note": 51,
      "start": 42.982,
      "duration": 0.1239,
      "velocity": 92,
      "chip": "ym2612"
    },
    {
      "channel": 4,
      "note": 66,
      "start": 42.9874,
      "duration": 0.1211,
      "velocity": 127,
      "chip": "ym2612"
    },
    {
      "channel": 5,
      "note": 80,
      "start": 42.9928,
      "duration": 0.1165,
      "velocity": 88,
      "chip": "ym2612"
    },
    {
      "channel": 1,
      "note": 44,
      "start": 43.1201,
      "duration": 0.0503,
      "velocity": 92,
      "chip": "ym2612"
    },
    {
      "channel": 2,
      "note": 71,
      "start": 43.1255,
      "duration": 0.046,
      "velocity": 109,
      "chip": "ym2612"
    },
    {
      "channel": 5,
      "note": 84,
      "start": 43.1312,
      "duration": 0.0424,
      "velocity": 88,
      "chip": "ym2612"
    },
    {
      "channel": 1,
      "note": 51,
      "start": 43.1811,
      "duration": 0.0549,
      "velocity": 92,
      "chip": "ym2612"
    },
    {
      "channel": 2,
      "note": 72,
      "start": 43.1858,
      "duration": 0.0473,
      "velocity": 109,
      "chip": "ym2612"
    },
    {
      "channel": 4,
      "note": 69,
      "start": 43.1905,
      "duration": 0.0429,
      "velocity": 127,
      "chip": "ym2612"
    },
    {
      "channel": 5,
      "note": 82,
      "start": 43.1961,
      "duration": 0.0436,
      "velocity": 88,
      "chip": "ym2612"
    },
    {
      "channel": 1,
      "note": 56,
      "start": 43.2465,
      "duration": 0.0786,
      "velocity": 92,
      "chip": "ym2612"
    },
    {
      "channel": 2,
      "note": 75,
      "start": 43.2507,
      "duration": 0.0758,
      "velocity": 109,
      "chip": "ym2612"
    },
    {
      "channel": 4,
      "note": 69,
      "start": 43.2551,
      "duration": 0.0729,
      "velocity": 127,
      "chip": "ym2612"
    },
    {
      "channel": 5,
      "note": 80,
      "start": 43.2597,
      "duration": 0.0701,
      "velocity": 88,
      "chip": "ym2612"
    },
    {
      "channel": 1,
      "note": 44,
      "start": 43.34,
      "duration": 0.0532,
      "velocity": 92,
      "chip": "ym2612"
    },
    {
      "channel": 2,
      "note": 78,
      "start": 43.3453,
      "duration": 0.0489,
      "velocity": 109,
      "chip": "ym2612"
    },
    {
      "channel": 4,
      "note": 69,
      "start": 43.3507,
      "duration": 0.0446,
      "velocity": 127,
      "chip": "ym2612"
    },
    {
      "channel": 5,
      "note": 75,
      "start": 43.3561,
      "duration": 0.0408,
      "velocity": 88,
      "chip": "ym2612"
    },
    {
      "channel": 1,
      "note": 54,
      "start": 43.4033,
      "duration": 0.0524,
      "velocity": 92,
      "chip": "ym2612"
    },
    {
      "channel": 2,
      "note": 79,
      "start": 43.4076,
      "duration": 0.0447,
      "velocity": 109,
      "chip": "ym2612"
    },
    {
      "channel": 4,
      "note": 69,
      "start": 43.4118,
      "duration": 0.0407,
      "velocity": 127,
      "chip": "ym2612"
    },
    {
      "channel": 5,
      "note": 78,
      "start": 43.4164,
      "duration": 0.0434,
      "velocity": 88,
      "chip": "ym2612"
    },
    {
      "channel": 1,
      "note": 51,
      "start": 43.4668,
      "duration": 0.0493,
      "velocity": 92,
      "chip": "ym2612"
    },
    {
      "channel": 2,
      "note": 80,
      "start": 43.471,
      "duration": 0.0461,
      "velocity": 109,
      "chip": "ym2612"
    },
    {
      "channel": 4,
      "note": 69,
      "start": 43.4754,
      "duration": 0.0428,
      "velocity": 127,
      "chip": "ym2612"
    },
    {
      "channel": 5,
      "note": 80,
      "start": 43.4804,
      "duration": 0.0393,
      "velocity": 88,
      "chip": "ym2612"
    },
    {
      "channel": 1,
      "note": 49,
      "start": 43.5264,
      "duration": 0.0515,
      "velocity": 92,
      "chip": "ym2612"
    },
    {
      "channel": 2,
      "note": 83,
      "start": 43.531,
      "duration": 0.0479,
      "velocity": 109,
      "chip": "ym2612"
    },
    {
      "channel": 4,
      "note": 69,
      "start": 43.5356,
      "duration": 0.0443,
      "velocity": 127,
      "chip": "ym2612"
    },
    {
      "channel": 5,
      "note": 73,
      "start": 43.541,
      "duration": 0.0403,
      "velocity": 88,
      "chip": "ym2612"
    },
    {
      "channel": 1,
      "note": 51,
      "start": 43.5883,
      "duration": 0.0483,
      "velocity": 92,
      "chip": "ym2612"
    },
    {
      "channel": 2,
      "note": 84,
      "start": 43.5926,
      "duration": 0.045,
      "velocity": 109,
      "chip": "ym2612"
    },
    {
      "channel": 4,
      "note": 69,
      "start": 43.5968,
      "duration": 0.0424,
      "velocity": 127,
      "chip": "ym2612"
    },
    {
      "channel": 5,
      "note": 75,
      "start": 43.6012,
      "duration": 0.0384,
      "velocity": 88,
      "chip": "ym2612"
    },
    {
      "channel": 1,
      "note": 44,
      "start": 43.6458,
      "duration": 0.0526,
      "velocity": 92,
      "chip": "ym2612"
    },
    {
      "channel": 2,
      "note": 63,
      "start": 43.6505,
      "duration": 0.9085,
      "velocity": 108,
      "chip": "ym2612"
    },
    {
      "channel": 5,
      "note": 84,
      "start": 43.6559,
      "duration": 0.0437,
      "velocity": 88,
      "chip": "ym2612"
    },
    {
      "channel": 3,
      "note": 68,
      "start": 43.6618,
      "duration": 0.9037,
      "velocity": 108,
      "chip": "ym2612"
    },
    {
      "channel": 1,
      "note": 51,
      "start": 43.7076,
      "duration": 0.0444,
      "velocity": 92,
      "chip": "ym2612"
    },
    {
      "channel": 5,
      "note": 82,
      "start": 43.7123,
      "duration": 0.0409,
      "velocity": 88,
      "chip": "ym2612"
    },
    {
      "channel": 1,
      "note": 56,
      "start": 43.7607,
      "duration": 0.0451,
      "velocity": 92,
      "chip": "ym2612"
    },
    {
      "channel": 5,
      "note": 80,
      "start": 43.7659,
      "duration": 0.0411,
      "velocity": 88,
      "chip": "ym2612"
    },
    {
      "channel": 1,
      "note": 44,
      "start": 43.8152,
      "duration": 0.0932,
      "velocity": 92,
      "chip": "ym2612"
    },
    {
      "channel": 5,
      "note": 75,
      "start": 43.82,
      "duration": 0.09,
      "velocity": 88,
      "chip": "ym2612"
    },
    {
      "channel": 1,
      "note": 51,
      "start": 43.9233,
      "duration": 0.0456,
      "velocity": 92,
      "chip": "ym2612"
    },
    {
      "channel": 5,
      "note": 78,
      "start": 43.9288,
      "duration": 0.0413,
      "velocity": 88,
      "chip": "ym2612"
    },
    {
      "channel": 1,
      "note": 54,
      "start": 43.9776,
      "duration": 0.0444,
      "velocity": 92,
      "chip": "ym2612"
    },
    {
      "channel": 5,
      "note": 80,
      "start": 43.982,
      "duration": 0.0412,
      "velocity": 88,
      "chip": "ym2612"
    },
    {
      "channel": 1,
      "note": 49,
      "start": 44.0309,
      "duration": 0.0474,
      "velocity": 92,
      "chip": "ym2612"
    },
    {
      "channel": 5,
      "note": 73,
      "start": 44.0371,
      "duration": 0.0434,
      "velocity": 88,
      "chip": "ym2612"
    },
    {
      "channel": 1,
      "note": 51,
      "start": 44.0877,
      "duration": 0.0493,
      "velocity": 92,
      "chip": "ym2612"
    },
    {
      "channel": 5,
      "note": 75,
      "start": 44.092,
      "duration": 0.0474,
      "velocity": 88,
      "chip": "ym2612"
    },
    {
      "channel": 1,
      "note": 44,
      "start": 44.1474,
      "duration": 0.0445,
      "velocity": 92,
      "chip": "ym2612"
    },
    {
      "channel": 5,
      "note": 78,
      "start": 44.1521,
      "duration": 0.0409,
      "velocity": 88,
      "chip": "ym2612"
    },
    {
      "channel": 1,
      "note": 51,
      "start": 44.2002,
      "duration": 0.0462,
      "velocity": 92,
      "chip": "ym2612"
    },
    {
      "channel": 5,
      "note": 80,
      "start": 44.2047,
      "duration": 0.0429,
      "velocity": 88,
      "chip": "ym2612"
    },
    {
      "channel": 1,
      "note": 56,
      "start": 44.2555,
      "duration": 0.0502,
      "velocity": 92,
      "chip": "ym2612"
    },
    {
      "channel": 5,
      "note": 73,
      "start": 44.2618,
      "duration": 0.0451,
      "velocity": 88,
      "chip": "ym2612"
    },
    {
      "channel": 1,
      "note": 44,
      "start": 44.3149,
      "duration": 0.0484,
      "velocity": 92,
      "chip": "ym2612"
    },
    {
      "channel": 5,
      "note": 75,
      "start": 44.3201,
      "duration": 0.0444,
      "velocity": 88,
      "chip": "ym2612"
    },
    {
      "channel": 1,
      "note": 54,
      "start": 44.3727,
      "duration": 0.0454,
      "velocity": 92,
      "chip": "ym2612"
    },
    {
      "channel": 5,
      "note": 78,
      "start": 44.3785,
      "duration": 0.041,
      "velocity": 88,
      "chip": "ym2612"
    },
    {
      "channel": 1,
      "note": 51,
      "start": 44.4275,
      "duration": 0.0483,
      "velocity": 92,
      "chip": "ym2612"
    },
    {
      "channel": 5,
      "note": 75,
      "start": 44.4324,
      "duration": 0.0446,
      "velocity": 88,
      "chip": "ym2612"
    },
    {
      "channel": 1,
      "note": 49,
      "start": 44.4846,
      "duration": 0.0504,
      "velocity": 92,
      "chip": "ym2612"
    },
    {
      "channel": 5,
      "note": 73,
      "start": 44.4904,
      "duration": 0.0458,
      "velocity": 88,
      "chip": "ym2612"
    },
    {
      "channel": 1,
      "note": 51,
      "start": 44.5443,
      "duration": 0.0449,
      "velocity": 92,
      "chip": "ym2612"
    },
    {
      "channel": 5,
      "note": 72,
      "start": 44.5491,
      "duration": 0.0427,
      "velocity": 88,
      "chip": "ym2612"
    },
    {
      "channel": 0,
      "note": 54,
      "start": 44.5989,
      "duration": 0.0535,
      "velocity": 109,
      "chip": "ym2612"
    },
    {
      "channel": 1,
      "note": 44,
      "start": 44.6032,
      "duration": 0.0504,
      "velocity": 92,
      "chip": "ym2612"
    },
    {
      "channel": 4,
      "note": 66,
      "start": 44.6079,
      "duration": 0.0476,
      "velocity": 127,
      "chip": "ym2612"
    },
    {
      "channel": 5,
      "note": 73,
      "start": 44.6122,
      "duration": 0.0448,
      "velocity": 88,
      "chip": "ym2612"
    },
    {
      "channel": 0,
      "note": 56,
      "start": 44.6634,
      "duration": 0.0504,
      "velocity": 109,
      "chip": "ym2612"
    },
    {
      "channel": 1,
      "note": 51,
      "start": 44.6681,
      "duration": 0.0504,
      "velocity": 92,
      "chip": "ym2612"
    },
    {
      "channel": 4,
      "note": 66,
      "start": 44.6734,
      "duration": 0.0411,
      "velocity": 127,
      "chip": "ym2612"
    },
    {
      "channel": 5,
      "note": 75,
      "start": 44.6776,
      "duration": 0.0421,
      "velocity": 88,
      "chip": "ym2612"
    },
    {
      "channel": 0,
      "note": 59,
      "start": 44.7271,
      "duration": 0.046,
      "velocity": 109,
      "chip": "ym2612"
    },
    {
      "channel": 1,
      "note": 56,
      "start": 44.7314,
      "duration": 0.0431,
      "velocity": 92,
      "chip": "ym2612"
    },
    {
      "channel": 5,
      "note": 80,
      "start": 44.7357,
      "duration": 0.041,
      "velocity": 88,
      "chip": "ym2612"
    },
    {
      "channel": 0,
      "note": 60,
      "start": 44.7839,
      "duration": 0.0756,
      "velocity": 109,
      "chip": "ym2612"
    },
    {
      "channel": 1,
      "note": 44,
      "start": 44.7882,
      "duration": 0.0727,
      "velocity": 92,
      "chip": "ym2612"
    },
    {
      "channel": 4,
      "note": 66,
      "start": 44.7926,
      "duration": 0.0698,
      "velocity": 127,
      "chip": "ym2612"
    },
    {
      "channel": 5,
      "note": 75,
      "start": 44.7971,
      "duration": 0.0671,
      "velocity": 88,
      "chip": "ym2612"
    },
    {
      "channel": 0,
      "note": 63,
      "start": 44.8744,
      "duration": 0.0529,
      "velocity": 109,
      "chip": "ym2612"
    },
    {
      "channel": 1,
      "note": 51,
      "start": 44.8797,
      "duration": 0.0491,
      "velocity": 92,
      "chip": "ym2612"
    },
    {
      "channel": 4,
      "note": 66,
      "start": 44.8852,
      "duration": 0.0448,
      "velocity": 127,
      "chip": "ym2612"
    },
    {
      "channel": 5,
      "note": 78,
      "start": 44.8906,
      "duration": 0.0397,
      "velocity": 88,
      "chip": "ym2612"
    },
    {
      "channel": 0,
      "note": 66,
      "start": 44.9375,
      "duration": 0.0459,
      "velocity": 109,
      "chip": "ym2612"
    },
    {
      "channel": 1,
      "note": 54,
      "start": 44.9417,
      "duration": 0.0464,
      "velocity": 92,
      "chip": "ym2612"
    },
    {
      "channel": 5,
      "note": 80,
      "start": 44.9467,
      "duration": 0.0436,
      "velocity": 88,
      "chip": "ym2612"
    },
    {
      "channel": 0,
      "note": 67,
      "start": 44.9976,
      "duration": 0.1141,
      "velocity": 109,
      "chip": "ym2612"
    },
    {
      "channel": 1,
      "note": 49,
      "start": 45.0019,
      "duration": 0.1112,
      "velocity": 92,
      "chip": "ym2612"
    },
    {
      "channel": 4,
      "note": 66,
      "start": 45.0063,
      "duration": 0.1083,
      "velocity": 127,
      "chip": "ym2612"
    },
    {
      "channel": 5,
      "note": 82,
      "start": 45.0106,
      "duration": 0.106,
      "velocity": 88,
      "chip": "ym2612"
    },
    {
      "channel": 0,
      "note": 68,
      "start": 45.1266,
      "duration": 0.1284,
      "velocity": 109,
      "chip": "ym2612"
    },
    {
      "channel": 1,
      "note": 51,
      "start": 45.1319,
      "duration": 0.1239,
      "velocity": 92,
      "chip": "ym2612"
    },
    {
      "channel": 4,
      "note": 66,
      "start": 45.1375,
      "duration": 0.1209,
      "velocity": 127,
      "chip": "ym2612"
    },
    {
      "channel": 5,
      "note": 80,
      "start": 45.1427,
      "duration": 0.1164,
      "velocity": 88,
      "chip": "ym2612"
    },
    {
      "channel": 1,
      "note": 44,
      "start": 45.2702,
      "duration": 0.0528,
      "velocity": 92,
      "chip": "ym2612"
    },
    {
      "channel": 3,
      "note": 71,
      "start": 45.2756,
      "duration": 0.0443,
      "velocity": 109,
      "chip": "ym2612"
    },
    {
      "channel": 5,
      "note": 84,
      "start": 45.2812,
      "duration": 0.0451,
      "velocity": 88,
      "chip": "ym2612"
    },
    {
      "channel": 1,
      "note": 51,
      "start": 45.3331,
      "duration": 0.0505,
      "velocity": 92,
      "chip": "ym2612"
    },
    {
      "channel": 3,
      "note": 72,
      "start": 45.3373,
      "duration": 0.0475,
      "velocity": 109,
      "chip": "ym2612"
    },
    {
      "channel": 4,
      "note": 69,
      "start": 45.3416,
      "duration": 0.0442,
      "velocity": 127,
      "chip": "ym2612"
    },
    {
      "channel": 5,
      "note": 82,
      "start": 45.3476,
      "duration": 0.0397,
      "velocity": 88,
      "chip": "ym2612"
    },
    {
      "channel": 1,
      "note": 56,
      "start": 45.3941,
      "duration": 0.0705,
      "velocity": 92,
      "chip": "ym2612"
    },
    {
      "channel": 3,
      "note": 75,
      "start": 45.3983,
      "duration": 0.0677,
      "velocity": 109,
      "chip": "ym2612"
    },
    {
      "channel": 4,
      "note": 69,
      "start": 45.403,
      "duration": 0.0644,
      "velocity": 127,
      "chip": "ym2612"
    },
    {
      "channel": 5,
      "note": 80,
      "start": 45.4072,
      "duration": 0.0621,
      "velocity": 88,
      "chip": "ym2612"
    },
    {
      "channel": 1,
      "note": 44,
      "start": 45.4793,
      "duration": 0.0523,
      "velocity": 92,
      "chip": "ym2612"
    },
    {
      "channel": 3,
      "note": 78,
      "start": 45.4846,
      "duration": 0.0485,
      "velocity": 109,
      "chip": "ym2612"
    },
    {
      "channel": 4,
      "note": 69,
      "start": 45.4901,
      "duration": 0.044,
      "velocity": 127,
      "chip": "ym2612"
    },
    {
      "channel": 5,
      "note": 75,
      "start": 45.4954,
      "duration": 0.0402,
      "velocity": 88,
      "chip": "ym2612"
    },
    {
      "channel": 1,
      "note": 54,
      "start": 45.5421,
      "duration": 0.0514,
      "velocity": 92,
      "chip": "ym2612"
    },
    {
      "channel": 3,
      "note": 79,
      "start": 45.5463,
      "duration": 0.0442,
      "velocity": 109,
      "chip": "ym2612"
    },
    {
      "channel": 4,
      "note": 69,
      "start": 45.5508,
      "duration": 0.04,
      "velocity": 127,
      "chip": "ym2612"
    },
    {
      "channel": 5,
      "note": 78,
      "start": 45.5551,
      "duration": 0.0427,
      "velocity": 88,
      "chip": "ym2612"
    },
    {
      "channel": 1,
      "note": 51,
      "start": 45.6045,
      "duration": 0.049,
      "velocity": 92,
      "chip": "ym2612"
    },
    {
      "channel": 3,
      "note": 80,
      "start": 45.6088,
      "duration": 0.0457,
      "velocity": 109,
      "chip": "ym2612"
    },
    {
      "channel": 4,
      "note": 69,
      "start": 45.6135,
      "duration": 0.0421,
      "velocity": 127,
      "chip": "ym2612"
    },
    {
      "channel": 5,
      "note": 80,
      "start": 45.6181,
      "duration": 0.039,
      "velocity": 88,
      "chip": "ym2612"
    },
    {
      "channel": 1,
      "note": 49,
      "start": 45.6645,
      "duration": 0.0502,
      "velocity": 92,
      "chip": "ym2612"
    },
    {
      "channel": 3,
      "note": 83,
      "start": 45.6686,
      "duration": 0.0472,
      "velocity": 109,
      "chip": "ym2612"
    },
    {
      "channel": 4,
      "note": 69,
      "start": 45.6728,
      "duration": 0.0441,
      "velocity": 127,
      "chip": "ym2612"
    },
    {
      "channel": 5,
      "note": 73,
      "start": 45.678,
      "duration": 0.0404,
      "velocity": 88,
      "chip": "ym2612"
    },
    {
      "channel": 1,
      "note": 51,
      "start": 45.7252,
      "duration": 0.0526,
      "velocity": 92,
      "chip": "ym2612"
    },
    {
      "channel": 3,
      "note": 84,
      "start": 45.7295,
      "duration": 0.0438,
      "velocity": 109,
      "chip": "ym2612"
    },
    {
      "channel": 4,
      "note": 69,
      "start": 45.7341,
      "duration": 0.0395,
      "velocity": 127,
      "chip": "ym2612"
    },
    {
      "channel": 5,
      "note": 75,
      "start": 45.7384,
      "duration": 0.0433,
      "velocity": 88,
      "chip": "ym2612"
    },
    {
      "channel": 0,
      "note": 82,
      "start": 45.7869,
      "duration": 0.0512,
      "velocity": 67,
      "chip": "ym2612"
    },
    {
      "channel": 1,
      "note": 42,
      "start": 45.7911,
      "duration": 0.0472,
      "velocity": 92,
      "chip": "ym2612"
    },
    {
      "channel": 3,
      "note": 82,
      "start": 45.7954,
      "duration": 0.0169,
      "velocity": 88,
      "chip": "ym2612"
    },
    {
      "channel": 4,
      "note": 66,
      "start": 45.7999,
      "duration": 0.0399,
      "velocity": 127,
      "chip": "ym2612"
    },
    {
      "channel": 1,
      "note": 49,
      "start": 45.8476,
      "duration": 0.0479,
      "velocity": 92,
      "chip": "ym2612"
    },
    {
      "channel": 3,
      "note": 70,
      "start": 45.8521,
      "duration": 0.0204,
      "velocity": 88,
      "chip": "ym2612"
    },
    {
      "channel": 4,
      "note": 66,
      "start": 45.8577,
      "duration": 0.0395,
      "velocity": 127,
      "chip": "ym2612"
    },
    {
      "channel": 0,
      "note": 82,
      "start": 45.9038,
      "duration": 0.0762,
      "velocity": 67,
      "chip": "ym2612"
    },
    {
      "channel": 1,
      "note": 54,
      "start": 45.908,
      "duration": 0.0729,
      "velocity": 92,
      "chip": "ym2612"
    },
    {
      "channel": 3,
      "note": 70,
      "start": 45.9123,
      "duration": 0.0139,
      "velocity": 88,
      "chip": "ym2612"
    },
    {
      "channel": 1,
      "note": 42,
      "start": 45.9951,
      "duration": 0.1392,
      "velocity": 92,
      "chip": "ym2612"
    },
    {
      "channel": 3,
      "note": 78,
      "start": 46.0004,
      "duration": 0.0514,
      "velocity": 88,
      "chip": "ym2612"
    },
    {
      "channel": 4,
      "note": 66,
      "start": 46.0059,
      "duration": 0.1176,
      "velocity": 127,
      "chip": "ym2612"
    },
    {
      "channel": 0,
      "note": 82,
      "start": 46.1483,
      "duration": 0.1035,
      "velocity": 67,
      "chip": "ym2612"
    },
    {
      "channel": 1,
      "note": 49,
      "start": 46.1537,
      "duration": 0.0466,
      "velocity": 92,
      "chip": "ym2612"
    },
    {
      "channel": 3,
      "note": 70,
      "start": 46.1591,
      "duration": 0.019,
      "velocity": 88,
      "chip": "ym2612"
    },
    {
      "channel": 4,
      "note": 66,
      "start": 46.1644,
      "duration": 0.0379,
      "velocity": 127,
      "chip": "ym2612"
    },
    {
      "channel": 1,
      "note": 52,
      "start": 46.2087,
      "duration": 0.0442,
      "velocity": 92,
      "chip": "ym2612"
    },
    {
      "channel": 3,
      "note": 70,
      "start": 46.213,
      "duration": 0.0162,
      "velocity": 88,
      "chip": "ym2612"
    },
    {
      "channel": 0,
      "note": 80,
      "start": 46.2614,
      "duration": 0.0487,
      "velocity": 67,
      "chip": "ym2612"
    },
    {
      "channel": 1,
      "note": 47,
      "start": 46.2657,
      "duration": 0.0488,
      "velocity": 92,
      "chip": "ym2612"
    },
    {
      "channel": 3,
      "note": 78,
      "start": 46.27,
      "duration": 0.0181,
      "velocity": 88,
      "chip": "ym2612"
    },
    {
      "channel": 4,
      "note": 66,
      "start": 46.2749,
      "duration": 0.0356,
      "velocity": 127,
      "chip": "ym2612"
    },
    {
      "channel": 0,
      "note": 82,
      "start": 46.3233,
      "duration": 0.6401,
      "velocity": 67,
      "chip": "ym2612"
    },
    {
      "channel": 1,
      "note": 49,
      "start": 46.3279,
      "duration": 0.0457,
      "velocity": 92,
      "chip": "ym2612"
    },
    {
      "channel": 3,
      "note": 70,
      "start": 46.3327,
      "duration": 0.0154,
      "velocity": 88,
      "chip": "ym2612"
    },
    {
      "channel": 4,
      "note": 66,
      "start": 46.3383,
      "duration": 0.0369,
      "velocity": 127,
      "chip": "ym2612"
    },
    {
      "channel": 1,
      "note": 42,
      "start": 46.3819,
      "duration": 0.0742,
      "velocity": 92,
      "chip": "ym2612"
    },
    {
      "channel": 3,
      "note": 82,
      "start": 46.3866,
      "duration": 0.0158,
      "velocity": 88,
      "chip": "ym2612"
    },
    {
      "channel": 1,
      "note": 49,
      "start": 46.4709,
      "duration": 0.0495,
      "velocity": 92,
      "chip": "ym2612"
    },
    {
      "channel": 3,
      "note": 70,
      "start": 46.4763,
      "duration": 0.0207,
      "velocity": 88,
      "chip": "ym2612"
    },
    {
      "channel": 4,
      "note": 69,
      "start": 46.4817,
      "duration": 0.0405,
      "velocity": 127,
      "chip": "ym2612"
    },
    {
      "channel": 1,
      "note": 54,
      "start": 46.5297,
      "duration": 0.0885,
      "velocity": 92,
      "chip": "ym2612"
    },
    {
      "channel": 3,
      "note": 70,
      "start": 46.5344,
      "duration": 0.0178,
      "velocity": 88,
      "chip": "ym2612"
    },
    {
      "channel": 4,
      "note": 69,
      "start": 46.5386,
      "duration": 0.0696,
      "velocity": 127,
      "chip": "ym2612"
    },
    {
      "channel": 1,
      "note": 42,
      "start": 46.6332,
      "duration": 0.0485,
      "velocity": 92,
      "chip": "ym2612"
    },
    {
      "channel": 3,
      "note": 78,
      "start": 46.6385,
      "duration": 0.021,
      "velocity": 88,
      "chip": "ym2612"
    },
    {
      "channel": 4,
      "note": 69,
      "start": 46.6438,
      "duration": 0.0397,
      "velocity": 127,
      "chip": "ym2612"
    },
    {
      "channel": 1,
      "note": 52,
      "start": 46.6912,
      "duration": 0.048,
      "velocity": 92,
      "chip": "ym2612"
    },
    {
      "channel": 3,
      "note": 70,
      "start": 46.6962,
      "duration": 0.0207,
      "velocity": 88,
      "chip": "ym2612"
    },
    {
      "channel": 4,
      "note": 69,
      "start": 46.7019,
      "duration": 0.0388,
      "velocity": 127,
      "chip": "ym2612"
    },
    {
      "channel": 1,
      "note": 49,
      "start": 46.7481,
      "duration": 0.0482,
      "velocity": 92,
      "chip": "ym2612"
    },
    {
      "channel": 3,
      "note": 70,
      "start": 46.7524,
      "duration": 0.0181,
      "velocity": 88,
      "chip": "ym2612"
    },
    {
      "channel": 4,
      "note": 69,
      "start": 46.7567,
      "duration": 0.0368,
      "velocity": 127,
      "chip": "ym2612"
    },
    {
      "channel": 1,
      "note": 47,
      "start": 46.8052,
      "duration": 0.0457,
      "velocity": 92,
      "chip": "ym2612"
    },
    {
      "channel": 3,
      "note": 78,
      "start": 46.8096,
      "duration": 0.0154,
      "velocity": 88,
      "chip": "ym2612"
    },
    {
      "channel": 4,
      "note": 69,
      "start": 46.8142,
      "duration": 0.0381,
      "velocity": 127,
      "chip": "ym2612"
    },
    {
      "channel": 1,
      "note": 49,
      "start": 46.8602,
      "duration": 0.0478,
      "velocity": 92,
      "chip": "ym2612"
    },
    {
      "channel": 3,
      "note": 78,
      "start": 46.8649,
      "duration": 0.0206,
      "velocity": 88,
      "chip": "ym2612"
    },
    {
      "channel": 4,
      "note": 69,
      "start": 46.8691,
      "duration": 0.0407,
      "velocity": 127,
      "chip": "ym2612"
    },
    {
      "channel": 1,
      "note": 42,
      "start": 46.9171,
      "duration": 0.0465,
      "velocity": 92,
      "chip": "ym2612"
    },
    {
      "channel": 3,
      "note": 82,
      "start": 46.9214,
      "duration": 0.0195,
      "velocity": 88,
      "chip": "ym2612"
    },
    {
      "channel": 4,
      "note": 66,
      "start": 46.9257,
      "duration": 0.0393,
      "velocity": 127,
      "chip": "ym2612"
    },
    {
      "channel": 1,
      "note": 49,
      "start": 46.972,
      "duration": 0.0518,
      "velocity": 92,
      "chip": "ym2612"
    },
    {
      "channel": 3,
      "note": 70,
      "start": 46.9765,
      "duration": 0.0213,
      "velocity": 88,
      "chip": "ym2612"
    },
    {
      "channel": 4,
      "note": 66,
      "start": 46.9827,
      "duration": 0.0374,
      "velocity": 127,
      "chip": "ym2612"
    },
    {
      "channel": 0,
      "note": 82,
      "start": 47.0323,
      "duration": 0.0841,
      "velocity": 67,
      "chip": "ym2612"
    },
    {
      "channel": 1,
      "note": 54,
      "start": 47.0368,
      "duration": 0.0805,
      "velocity": 92,
      "chip": "ym2612"
    },
    {
      "channel": 3,
      "note": 70,
      "start": 47.041,
      "duration": 0.0142,
      "velocity": 88,
      "chip": "ym2612"
    },
    {
      "channel": 1,
      "note": 42,
      "start": 47.1316,
      "duration": 0.1288,
      "velocity": 92,
      "chip": "ym2612"
    },
    {
      "channel": 3,
      "note": 78,
      "start": 47.137,
      "duration": 0.0513,
      "velocity": 88,
      "chip": "ym2612"
    },
    {
      "channel": 4,
      "note": 66,
      "start": 47.1423,
      "duration": 0.1203,
      "velocity": 127,
      "chip": "ym2612"
    },
    {
      "channel": 0,
      "note": 82,
      "start": 47.2745,
      "duration": 0.0515,
      "velocity": 67,
      "chip": "ym2612"
    },
    {
      "channel": 1,
      "note": 49,
      "start": 47.2799,
      "duration": 0.0492,
      "velocity": 92,
      "chip": "ym2612"
    },
    {
      "channel": 3,
      "note": 70,
      "start": 47.2853,
      "duration": 0.0186,
      "velocity": 88,
      "chip": "ym2612"
    },
    {
      "channel": 4,
      "note": 66,
      "start": 47.2906,
      "duration": 0.0358,
      "velocity": 127,
      "chip": "ym2612"
    },
    {
      "channel": 1,
      "note": 52,
      "start": 47.337,
      "duration": 0.0432,
      "velocity": 92,
      "chip": "ym2612"
    },
    {
      "channel": 3,
      "note": 70,
      "start": 47.3412,
      "duration": 0.0129,
      "velocity": 88,
      "chip": "ym2612"
    },
    {
      "channel": 0,
      "note": 82,
      "start": 47.3888,
      "duration": 0.0506,
      "velocity": 67,
      "chip": "ym2612"
    },
    {
      "channel": 1,
      "note": 47,
      "start": 47.3931,
      "duration": 0.0475,
      "velocity": 92,
      "chip": "ym2612"
    },
    {
      "channel": 3,
      "note": 78,
      "start": 47.3978,
      "duration": 0.0193,
      "velocity": 88,
      "chip": "ym2612"
    },
    {
      "channel": 4,
      "note": 66,
      "start": 47.4019,
      "duration": 0.0405,
      "velocity": 127,
      "chip": "ym2612"
    },
    {
      "channel": 0,
      "note": 83,
      "start": 47.4495,
      "duration": 0.1317,
      "velocity": 67,
      "chip": "ym2612"
    },
    {
      "channel": 1,
      "note": 49,
      "start": 47.4537,
      "duration": 0.0454,
      "velocity": 92,
      "chip": "ym2612"
    },
    {
      "channel": 3,
      "note": 70,
      "start": 47.458,
      "duration": 0.0184,
      "velocity": 88,
      "chip": "ym2612"
    },
    {
      "channel": 4,
      "note": 66,
      "start": 47.4636,
      "duration": 0.0373,
      "velocity": 127,
      "chip": "ym2612"
    },
    {
      "channel": 1,
      "note": 42,
      "start": 47.5079,
      "duration": 0.0844,
      "velocity": 92,
      "chip": "ym2612"
    },
    {
      "channel": 3,
      "note": 82,
      "start": 47.5125,
      "duration": 0.0157,
      "velocity": 88,
      "chip": "ym2612"
    },
    {
      "channel": 0,
      "note": 82,
      "start": 47.6063,
      "duration": 0.052,
      "velocity": 67,
      "chip": "ym2612"
    },
    {
      "channel": 1,
      "note": 49,
      "start": 47.6116,
      "duration": 0.0469,
      "velocity": 92,
      "chip": "ym2612"
    },
    {
      "channel": 3,
      "note": 70,
      "start": 47.6171,
      "duration": 0.0185,
      "velocity": 88,
      "chip": "ym2612"
    },
    {
      "channel": 4,
      "note": 69,
      "start": 47.6224,
      "duration": 0.038,
      "velocity": 127,
      "chip": "ym2612"
    },
    {
      "channel": 1,
      "note": 54,
      "start": 47.6676,
      "duration": 0.0754,
      "velocity": 92,
      "chip": "ym2612"
    },
    {
      "channel": 3,
      "note": 78,
      "start": 47.6719,
      "duration": 0.0185,
      "velocity": 88,
      "chip": "ym2612"
    },
    {
      "channel": 4,
      "note": 69,
      "start": 47.6765,
      "duration": 0.0685,
      "velocity": 127,
      "chip": "ym2612"
    },
    {
      "channel": 0,
      "note": 82,
      "start": 47.7571,
      "duration": 0.0518,
      "velocity": 67,
      "chip": "ym2612"
    },
    {
      "channel": 1,
      "note": 42,
      "start": 47.7624,
      "duration": 0.0504,
      "velocity": 92,
      "chip": "ym2612"
    },
    {
      "channel": 3,
      "note": 70,
      "start": 47.7679,
      "duration": 0.0188,
      "velocity": 88,
      "chip": "ym2612"
    },
    {
      "channel": 4,
      "note": 69,
      "start": 47.7732,
      "duration": 0.0362,
      "velocity": 127,
      "chip": "ym2612"
    },
    {
      "channel": 0,
      "note": 78,
      "start": 47.8213,
      "duration": 0.1034,
      "velocity": 67,
      "chip": "ym2612"
    },
    {
      "channel": 1,
      "note": 52,
      "start": 47.8257,
      "duration": 0.0448,
      "velocity": 92,
      "chip": "ym2612"
    },
    {
      "channel": 3,
      "note": 73,
      "start": 47.8302,
      "duration": 0.0149,
      "velocity": 88,
      "chip": "ym2612"
    },
    {
      "channel": 4,
      "note": 69,
      "start": 47.835,
      "duration": 0.0369,
      "velocity": 127,
      "chip": "ym2612"
    },
    {
      "channel": 1,
      "note": 49,
      "start": 47.8797,
      "duration": 0.0462,
      "velocity": 92,
      "chip": "ym2612"
    },
    {
      "channel": 3,
      "note": 73,
      "start": 47.8839,
      "duration": 0.0184,
      "velocity": 88,
      "chip": "ym2612"
    },
    {
      "channel": 4,
      "note": 69,
      "start": 47.8885,
      "duration": 0.039,
      "velocity": 127,
      "chip": "ym2612"
    },
    {
      "channel": 0,
      "note": 82,
      "start": 47.9346,
      "duration": 0.1082,
      "velocity": 67,
      "chip": "ym2612"
    },
    {
      "channel": 1,
      "note": 47,
      "start": 47.9393,
      "duration": 0.0462,
      "velocity": 92,
      "chip": "ym2612"
    },
    {
      "channel": 3,
      "note": 70,
      "start": 47.944,
      "duration": 0.019,
      "velocity": 88,
      "chip": "ym2612"
    },
    {
      "channel": 4,
      "note": 69,
      "start": 47.9486,
      "duration": 0.0384,
      "velocity": 127,
      "chip": "ym2612"
    },
    {
      "channel": 1,
      "note": 49,
      "start": 47.9949,
      "duration": 0.0522,
      "velocity": 92,
      "chip": "ym2612"
    },
    {
      "channel": 3,
      "note": 70,
      "start": 47.9995,
      "duration": 0.0204,
      "velocity": 88,
      "chip": "ym2612"
    },
    {
      "channel": 4,
      "note": 69,
      "start": 48.0041,
      "duration": 0.0391,
      "velocity": 127,
      "chip": "ym2612"
    },
    {
      "channel": 0,
      "note": 80,
      "start": 48.0566,
      "duration": 1.1383,
      "velocity": 67,
      "chip": "ym2612"
    },
    {
      "channel": 1,
      "note": 44,
      "start": 48.0606,
      "duration": 0.0465,
      "velocity": 92,
      "chip": "ym2612"
    },
    {
      "channel": 3,
      "note": 80,
      "start": 48.0653,
      "duration": 0.0195,
      "velocity": 88,
      "chip": "ym2612"
    },
    {
      "channel": 4,
      "note": 66,
      "start": 48.0696,
      "duration": 0.0386,
      "velocity": 127,
      "chip": "ym2612"
    },
    {
      "channel": 5,
      "note": 80,
      "start": 48.0739,
      "duration": 0.036,
      "velocity": 88,
      "chip": "ym2612"
    },
    {
      "channel": 1,
      "note": 51,
      "start": 48.1165,
      "duration": 0.0455,
      "velocity": 92,
      "chip": "ym2612"
    },
    {
      "channel": 4,
      "note": 66,
      "start": 48.1208,
      "duration": 0.0427,
      "velocity": 127,
      "chip": "ym2612"
    },
    {
      "channel": 5,
      "note": 75,
      "start": 48.1254,
      "duration": 0.0388,
      "velocity": 88,
      "chip": "ym2612"
    },
    {
      "channel": 1,
      "note": 56,
      "start": 48.1709,
      "duration": 0.0875,
      "velocity": 92,
      "chip": "ym2612"
    },
    {
      "channel": 3,
      "note": 68,
      "start": 48.1753,
      "duration": 0.0185,
      "velocity": 88,
      "chip": "ym2612"
    },
    {
      "channel": 5,
      "note": 78,
      "start": 48.1801,
      "duration": 0.0684,
      "velocity": 88,
      "chip": "ym2612"
    },
    {
      "channel": 1,
      "note": 44,
      "start": 48.2732,
      "duration": 0.1284,
      "velocity": 92,
      "chip": "ym2612"
    },
    {
      "channel": 3,
      "note": 68,
      "start": 48.2787,
      "duration": 0.0412,
      "velocity": 88,
      "chip": "ym2612"
    },
    {
      "channel": 4,
      "note": 66,
      "start": 48.284,
      "duration": 0.1198,
      "velocity": 127,
      "chip": "ym2612"
    },
    {
      "channel": 5,
      "note": 80,
      "start": 48.2893,
      "duration": 0.1163,
      "velocity": 88,
      "chip": "ym2612"
    },
    {
      "channel": 1,
      "note": 51,
      "start": 48.4165,
      "duration": 0.0528,
      "velocity": 92,
      "chip": "ym2612"
    },
    {
      "channel": 3,
      "note": 80,
      "start": 48.4219,
      "duration": 0.0245,
      "velocity": 88,
      "chip": "ym2612"
    },
    {
      "channel": 4,
      "note": 66,
      "start": 48.4273,
      "duration": 0.0437,
      "velocity": 127,
      "chip": "ym2612"
    },
    {
      "channel": 5,
      "note": 78,
      "start": 48.4326,
      "duration": 0.0386,
      "velocity": 88,
      "chip": "ym2612"
    },
    {
      "channel": 1,
      "note": 54,
      "start": 48.4779,
      "duration": 0.0445,
      "velocity": 92,
      "chip": "ym2612"
    },
    {
      "channel": 3,
      "note": 68,
      "start": 48.482,
      "duration": 0.0185,
      "velocity": 88,
      "chip": "ym2612"
    },
    {
      "channel": 5,
      "note": 75,
      "start": 48.4868,
      "duration": 0.0382,
      "velocity": 88,
      "chip": "ym2612"
    },
    {
      "channel": 1,
      "note": 49,
      "start": 48.532,
      "duration": 0.0514,
      "velocity": 92,
      "chip": "ym2612"
    },
    {
      "channel": 3,
      "note": 78,
      "start": 48.537,
      "duration": 0.0208,
      "velocity": 88,
      "chip": "ym2612"
    },
    {
      "channel": 4,
      "note": 66,
      "start": 48.5411,
      "duration": 0.0393,
      "velocity": 127,
      "chip": "ym2612"
    },
    {
      "channel": 5,
      "note": 73,
      "start": 48.5453,
      "duration": 0.0354,
      "velocity": 88,
      "chip": "ym2612"
    },
    {
      "channel": 1,
      "note": 51,
      "start": 48.5933,
      "duration": 0.0502,
      "velocity": 92,
      "chip": "ym2612"
    },
    {
      "channel": 3,
      "note": 83,
      "start": 48.5978,
      "duration": 0.0233,
      "velocity": 88,
      "chip": "ym2612"
    },
    {
      "channel": 4,
      "note": 66,
      "start": 48.6025,
      "duration": 0.0429,
      "velocity": 127,
      "chip": "ym2612"
    },
    {
      "channel": 5,
      "note": 71,
      "start": 48.6082,
      "duration": 0.0375,
      "velocity": 88,
      "chip": "ym2612"
    },
    {
      "channel": 1,
      "note": 44,
      "start": 48.6528,
      "duration": 0.0716,
      "velocity": 92,
      "chip": "ym2612"
    },
    {
      "channel": 3,
      "note": 80,
      "start": 48.6568,
      "duration": 0.0179,
      "velocity": 88,
      "chip": "ym2612"
    },
    {
      "channel": 5,
      "note": 73,
      "start": 48.6613,
      "duration": 0.0657,
      "velocity": 88,
      "chip": "ym2612"
    },
    {
      "channel": 1,
      "note": 51,
      "start": 48.7393,
      "duration": 0.0517,
      "velocity": 92,
      "chip": "ym2612"
    },
    {
      "channel": 4,
      "note": 69,
      "start": 48.7447,
      "duration": 0.0433,
      "velocity": 127,
      "chip": "ym2612"
    },
    {
      "channel": 5,
      "note": 71,
      "start": 48.75,
      "duration": 0.0382,
      "velocity": 88,
      "chip": "ym2612"
    },
    {
      "channel": 1,
      "note": 56,
      "start": 48.801,
      "duration": 0.0853,
      "velocity": 92,
      "chip": "ym2612"
    },
    {
      "channel": 3,
      "note": 68,
      "start": 48.8058,
      "duration": 0.0175,
      "velocity": 88,
      "chip": "ym2612"
    },
    {
      "channel": 4,
      "note": 69,
      "start": 48.8103,
      "duration": 0.0782,
      "velocity": 127,
      "chip": "ym2612"
    },
    {
      "channel": 5,
      "note": 68,
      "start": 48.8144,
      "duration": 0.076,
      "velocity": 88,
      "chip": "ym2612"
    },
    {
      "channel": 1,
      "note": 44,
      "start": 48.9011,
      "duration": 0.0528,
      "velocity": 92,
      "chip": "ym2612"
    },
    {
      "channel": 3,
      "note": 68,
      "start": 48.9066,
      "duration": 0.0244,
      "velocity": 88,
      "chip": "ym2612"
    },
    {
      "channel": 4,
      "note": 69,
      "start": 48.9119,
      "duration": 0.0438,
      "velocity": 127,
      "chip": "ym2612"
    },
    {
      "channel": 5,
      "note": 73,
      "start": 48.9172,
      "duration": 0.04,
      "velocity": 88,
      "chip": "ym2612"
    },
    {
      "channel": 1,
      "note": 54,
      "start": 48.9637,
      "duration": 0.0498,
      "velocity": 92,
      "chip": "ym2612"
    },
    {
      "channel": 3,
      "note": 80,
      "start": 48.9679,
      "duration": 0.0232,
      "velocity": 88,
      "chip": "ym2612"
    },
    {
      "channel": 4,
      "note": 69,
      "start": 48.9726,
      "duration": 0.0428,
      "velocity": 127,
      "chip": "ym2612"
    },
    {
      "channel": 5,
      "note": 71,
      "start": 48.9783,
      "duration": 0.039,
      "velocity": 88,
      "chip": "ym2612"
    },
    {
      "channel": 1,
      "note": 51,
      "start": 49.0238,
      "duration": 0.0506,
      "velocity": 92,
      "chip": "ym2612"
    },
    {
      "channel": 3,
      "note": 68,
      "start": 49.028,
      "duration": 0.0207,
      "velocity": 88,
      "chip": "ym2612"
    },
    {
      "channel": 4,
      "note": 69,
      "start": 49.0325,
      "duration": 0.0389,
      "velocity": 127,
      "chip": "ym2612"
    },
    {
      "channel": 5,
      "note": 68,
      "start": 49.0368,
      "duration": 0.0349,
      "velocity": 88,
      "chip": "ym2612"
    },
    {
      "channel": 1,
      "note": 49,
      "start": 49.0839,
      "duration": 0.0507,
      "velocity": 92,
      "chip": "ym2612"
    },
    {
      "channel": 3,
      "note": 78,
      "start": 49.0882,
      "duration": 0.0241,
      "velocity": 88,
      "chip": "ym2612"
    },
    {
      "channel": 4,
      "note": 69,
      "start": 49.0931,
      "duration": 0.0434,
      "velocity": 127,
      "chip": "ym2612"
    },
    {
      "channel": 5,
      "note": 63,
      "start": 49.0979,
      "duration": 0.0401,
      "velocity": 88,
      "chip": "ym2612"
    },
    {
      "channel": 1,
      "note": 51,
      "start": 49.1447,
      "duration": 0.0503,
      "velocity": 92,
      "chip": "ym2612"
    },
    {
      "channel": 3,
      "note": 83,
      "start": 49.149,
      "duration": 0.0231,
      "velocity": 88,
      "chip": "ym2612"
    },
    {
      "channel": 4,
      "note": 69,
      "start": 49.1534,
      "duration": 0.0434,
      "velocity": 127,
      "chip": "ym2612"
    },
    {
      "channel": 5,
      "note": 66,
      "start": 49.1576,
      "duration": 0.0411,
      "velocity": 88,
      "chip": "ym2612"
    },
    {
      "channel": 1,
      "note": 44,
      "start": 49.2048,
      "duration": 0.0515,
      "velocity": 92,
      "chip": "ym2612"
    },
    {
      "channel": 3,
      "note": 80,
      "start": 49.2091,
      "duration": 0.0219,
      "velocity": 88,
      "chip": "ym2612"
    },
    {
      "channel": 4,
      "note": 66,
      "start": 49.2138,
      "duration": 0.0396,
      "velocity": 127,
      "chip": "ym2612"
    },
    {
      "channel": 5,
      "note": 80,
      "start": 49.2186,
      "duration": 0.035,
      "velocity": 88,
      "chip": "ym2612"
    },
    {
      "channel": 1,
      "note": 51,
      "start": 49.2656,
      "duration": 0.049,
      "velocity": 92,
      "chip": "ym2612"
    },
    {
      "channel": 4,
      "note": 66,
      "start": 49.2712,
      "duration": 0.0448,
      "velocity": 127,
      "chip": "ym2612"
    },
    {
      "channel": 5,
      "note": 75,
      "start": 49.2773,
      "duration": 0.0394,
      "velocity": 88,
      "chip": "ym2612"
    },
    {
      "channel": 1,
      "note": 56,
      "start": 49.3237,
      "duration": 0.0779,
      "velocity": 92,
      "chip": "ym2612"
    },
    {
      "channel": 3,
      "note": 68,
      "start": 49.3284,
      "duration": 0.0185,
      "velocity": 88,
      "chip": "ym2612"
    },
    {
      "channel": 5,
      "note": 78,
      "start": 49.3331,
      "duration": 0.0718,
      "velocity": 88,
      "chip": "ym2612"
    },
    {
      "channel": 1,
      "note": 44,
      "start": 49.4164,
      "duration": 0.1284,
      "velocity": 92,
      "chip": "ym2612"
    },
    {
      "channel": 3,
      "note": 68,
      "start": 49.4219,
      "duration": 0.0515,
      "velocity": 88,
      "chip": "ym2612"
    },
    {
      "channel": 4,
      "note": 66,
      "start": 49.4272,
      "duration": 0.1197,
      "velocity": 127,
      "chip": "ym2612"
    },
    {
      "channel": 5,
      "note": 80,
      "start": 49.4325,
      "duration": 0.1163,
      "velocity": 88,
      "chip": "ym2612"
    },
    {
      "channel": 1,
      "note": 51,
      "start": 49.5596,
      "duration": 0.0555,
      "velocity": 92,
      "chip": "ym2612"
    },
    {
      "channel": 3,
      "note": 80,
      "start": 49.5651,
      "duration": 0.0243,
      "velocity": 88,
      "chip": "ym2612"
    },
    {
      "channel": 4,
      "note": 66,
      "start": 49.5705,
      "duration": 0.0417,
      "velocity": 127,
      "chip": "ym2612"
    },
    {
      "channel": 5,
      "note": 78,
      "start": 49.5757,
      "duration": 0.0367,
      "velocity": 88,
      "chip": "ym2612"
    },
    {
      "channel": 1,
      "note": 54,
      "start": 49.6235,
      "duration": 0.0424,
      "velocity": 92,
      "chip": "ym2612"
    },
    {
      "channel": 5,
      "note": 75,
      "start": 49.628,
      "duration": 0.0405,
      "velocity": 88,
      "chip": "ym2612"
    },
    {
      "channel": 1,
      "note": 49,
      "start": 49.6754,
      "duration": 0.0489,
      "velocity": 92,
      "chip": "ym2612"
    },
    {
      "channel": 3,
      "note": 68,
      "start": 49.6798,
      "duration": 0.0222,
      "velocity": 88,
      "chip": "ym2612"
    },
    {
      "channel": 4,
      "note": 66,
      "start": 49.6848,
      "duration": 0.0415,
      "velocity": 127,
      "chip": "ym2612"
    },
    {
      "channel": 5,
      "note": 73,
      "start": 49.6895,
      "duration": 0.0383,
      "velocity": 88,
      "chip": "ym2612"
    },
    {
      "channel": 1,
      "note": 51,
      "start": 49.7342,
      "duration": 0.0534,
      "velocity": 92,
      "chip": "ym2612"
    },
    {
      "channel": 3,
      "note": 80,
      "start": 49.7387,
      "duration": 0.023,
      "velocity": 88,
      "chip": "ym2612"
    },
    {
      "channel": 4,
      "note": 66,
      "start": 49.7433,
      "duration": 0.0412,
      "velocity": 127,
      "chip": "ym2612"
    },
    {
      "channel": 5,
      "note": 71,
      "start": 49.7487,
      "duration": 0.0361,
      "velocity": 88,
      "chip": "ym2612"
    },
    {
      "channel": 1,
      "note": 44,
      "start": 49.7968,
      "duration": 0.0812,
      "velocity": 92,
      "chip": "ym2612"
    },
    {
      "channel": 5,
      "note": 73,
      "start": 49.8015,
      "duration": 0.0797,
      "velocity": 88,
      "chip": "ym2612"
    },
    {
      "channel": 1,
      "note": 51,
      "start": 49.8928,
      "duration": 0.0524,
      "velocity": 92,
      "chip": "ym2612"
    },
    {
      "channel": 3,
      "note": 80,
      "start": 49.8981,
      "duration": 0.0245,
      "velocity": 88,
      "chip": "ym2612"
    },
    {
      "channel": 4,
      "note": 69,
      "start": 49.9036,
      "duration": 0.0429,
      "velocity": 127,
      "chip": "ym2612"
    },
    {
      "channel": 5,
      "note": 71,
      "start": 49.9089,
      "duration": 0.039,
      "velocity": 88,
      "chip": "ym2612"
    },
    {
      "channel": 1,
      "note": 56,
      "start": 49.9547,
      "duration": 0.0749,
      "velocity": 92,
      "chip": "ym2612"
    },
    {
      "channel": 4,
      "note": 69,
      "start": 49.959,
      "duration": 0.0729,
      "velocity": 127,
      "chip": "ym2612"
    },
    {
      "channel": 5,
      "note": 68,
      "start": 49.9637,
      "duration": 0.07,
      "velocity": 88,
      "chip": "ym2612"
    },
    {
      "channel": 1,
      "note": 44,
      "start": 50.0444,
      "duration": 0.0556,
      "velocity": 92,
      "chip": "ym2612"
    },
    {
      "channel": 3,
      "note": 80,
      "start": 50.0499,
      "duration": 0.0242,
      "velocity": 88,
      "chip": "ym2612"
    },
    {
      "channel": 4,
      "note": 69,
      "start": 50.0552,
      "duration": 0.0417,
      "velocity": 127,
      "chip": "ym2612"
    },
    {
      "channel": 5,
      "note": 73,
      "start": 50.0605,
      "duration": 0.0368,
      "velocity": 88,
      "chip": "ym2612"
    },
    {
      "channel": 1,
      "note": 54,
      "start": 50.1095,
      "duration": 0.0459,
      "velocity": 92,
      "chip": "ym2612"
    },
    {
      "channel": 4,
      "note": 69,
      "start": 50.1139,
      "duration": 0.0429,
      "velocity": 127,
      "chip": "ym2612"
    },
    {
      "channel": 5,
      "note": 71,
      "start": 50.1188,
      "duration": 0.0395,
      "velocity": 88,
      "chip": "ym2612"
    },
    {
      "channel": 1,
      "note": 51,
      "start": 50.165,
      "duration": 0.0475,
      "velocity": 92,
      "chip": "ym2612"
    },
    {
      "channel": 3,
      "note": 68,
      "start": 50.1696,
      "duration": 0.021,
      "velocity": 88,
      "chip": "ym2612"
    },
    {
      "channel": 4,
      "note": 69,
      "start": 50.174,
      "duration": 0.0398,
      "velocity": 127,
      "chip": "ym2612"
    },
    {
      "channel": 5,
      "note": 68,
      "start": 50.1782,
      "duration": 0.0372,
      "velocity": 88,
      "chip": "ym2612"
    },
    {
      "channel": 1,
      "note": 49,
      "start": 50.2221,
      "duration": 0.0528,
      "velocity": 92,
      "chip": "ym2612"
    },
    {
      "channel": 3,
      "note": 80,
      "start": 50.2263,
      "duration": 0.023,
      "velocity": 88,
      "chip": "ym2612"
    },
    {
      "channel": 4,
      "note": 69,
      "start": 50.2307,
      "duration": 0.0412,
      "velocity": 127,
      "chip": "ym2612"
    },
    {
      "channel": 5,
      "note": 63,
      "start": 50.2349,
      "duration": 0.0373,
      "velocity": 88,
      "chip": "ym2612"
    },
    {
      "channel": 1,
      "note": 51,
      "start": 50.2851,
      "duration": 0.0512,
      "velocity": 92,
      "chip": "ym2612"
    },
    {
      "channel": 3,
      "note": 68,
      "start": 50.2895,
      "duration": 0.0207,
      "velocity": 88,
      "chip": "ym2612"
    },
    {
      "channel": 4,
      "note": 69,
      "start": 50.294,
      "duration": 0.0442,
      "velocity": 127,
      "chip": "ym2612"
    },
    {
      "channel": 5,
      "note": 66,
      "start": 50.2988,
      "duration": 0.0404,
      "velocity": 88,
      "chip": "ym2612"
    },
    {
      "channel": 0,
      "note": 82,
      "start": 50.3458,
      "duration": 0.0481,
      "velocity": 67,
      "chip": "ym2612"
    },
    {
      "channel": 1,
      "note": 42,
      "start": 50.3501,
      "duration": 0.0442,
      "velocity": 92,
      "chip": "ym2612"
    },
    {
      "channel": 3,
      "note": 82,
      "start": 50.3544,
      "duration": 0.0173,
      "velocity": 88,
      "chip": "ym2612"
    },
    {
      "channel": 4,
      "note": 66,
      "start": 50.359,
      "duration": 0.037,
      "velocity": 127,
      "chip": "ym2612"
    },
    {
      "channel": 1,
      "note": 49,
      "start": 50.4037,
      "duration": 0.0467,
      "velocity": 92,
      "chip": "ym2612"
    },
    {
      "channel": 3,
      "note": 70,
      "start": 50.4078,
      "duration": 0.0193,
      "velocity": 88,
      "chip": "ym2612"
    },
    {
      "channel": 4,
      "note": 66,
      "start": 50.412,
      "duration": 0.0398,
      "velocity": 127,
      "chip": "ym2612"
    },
    {
      "channel": 0,
      "note": 82,
      "start": 50.4583,
      "duration": 0.077,
      "velocity": 67,
      "chip": "ym2612"
    },
    {
      "channel": 1,
      "note": 54,
      "start": 50.4625,
      "duration": 0.0833,
      "velocity": 92,
      "chip": "ym2612"
    },
    {
      "channel": 3,
      "note": 70,
      "start": 50.4668,
      "duration": 0.0142,
      "velocity": 88,
      "chip": "ym2612"
    },
    {
      "channel": 1,
      "note": 42,
      "start": 50.5605,
      "duration": 0.129,
      "velocity": 92,
      "chip": "ym2612"
    },
    {
      "channel": 3,
      "note": 78,
      "start": 50.5658,
      "duration": 0.0516,
      "velocity": 88,
      "chip": "ym2612"
    },
    {
      "channel": 4,
      "note": 66,
      "start": 50.5712,
      "duration": 0.1204,
      "velocity": 127,
      "chip": "ym2612"
    },
    {
      "channel": 0,
      "note": 82,
      "start": 50.7037,
      "duration": 0.1035,
      "velocity": 67,
      "chip": "ym2612"
    },
    {
      "channel": 1,
      "note": 49,
      "start": 50.709,
      "duration": 0.0466,
      "velocity": 92,
      "chip": "ym2612"
    },
    {
      "channel": 3,
      "note": 70,
      "start": 50.7144,
      "duration": 0.0187,
      "velocity": 88,
      "chip": "ym2612"
    },
    {
      "channel": 4,
      "note": 66,
      "start": 50.7197,
      "duration": 0.0378,
      "velocity": 127,
      "chip": "ym2612"
    },
    {
      "channel": 1,
      "note": 52,
      "start": 50.7643,
      "duration": 0.0469,
      "velocity": 92,
      "chip": "ym2612"
    },
    {
      "channel": 3,
      "note": 70,
      "start": 50.7689,
      "duration": 0.0159,
      "velocity": 88,
      "chip": "ym2612"
    },
    {
      "channel": 0,
      "note": 80,
      "start": 50.8202,
      "duration": 0.0512,
      "velocity": 67,
      "chip": "ym2612"
    },
    {
      "channel": 1,
      "note": 47,
      "start": 50.8249,
      "duration": 0.0476,
      "velocity": 92,
      "chip": "ym2612"
    },
    {
      "channel": 3,
      "note": 78,
      "start": 50.8295,
      "duration": 0.0163,
      "velocity": 88,
      "chip": "ym2612"
    },
    {
      "channel": 4,
      "note": 66,
      "start": 50.8337,
      "duration": 0.0405,
      "velocity": 127,
      "chip": "ym2612"
    },
    {
      "channel": 0,
      "note": 82,
      "start": 50.881,
      "duration": 0.6375,
      "velocity": 67,
      "chip": "ym2612"
    },
    {
      "channel": 1,
      "note": 49,
      "start": 50.8856,
      "duration": 0.0446,
      "velocity": 92,
      "chip": "ym2612"
    },
    {
      "channel": 3,
      "note": 70,
      "start": 50.8905,
      "duration": 0.0178,
      "velocity": 88,
      "chip": "ym2612"
    },
    {
      "channel": 4,
      "note": 66,
      "start": 50.8956,
      "duration": 0.0366,
      "velocity": 127,
      "chip": "ym2612"
    },
    {
      "channel": 1,
      "note": 42,
      "start": 50.9386,
      "duration": 0.0734,
      "velocity": 92,
      "chip": "ym2612"
    },
    {
      "channel": 3,
      "note": 82,
      "start": 50.9429,
      "duration": 0.0154,
      "velocity": 88,
      "chip": "ym2612"
    },
    {
      "channel": 1,
      "note": 49,
      "start": 51.0268,
      "duration": 0.052,
      "velocity": 92,
      "chip": "ym2612"
    },
    {
      "channel": 3,
      "note": 70,
      "start": 51.0321,
      "duration": 0.0206,
      "velocity": 88,
      "chip": "ym2612"
    },
    {
      "channel": 4,
      "note": 69,
      "start": 51.0376,
      "duration": 0.0378,
      "velocity": 127,
      "chip": "ym2612"
    },
    {
      "channel": 1,
      "note": 54,
      "start": 51.0882,
      "duration": 0.0855,
      "velocity": 92,
      "chip": "ym2612"
    },
    {
      "channel": 3,
      "note": 70,
      "start": 51.0924,
      "duration": 0.0183,
      "velocity": 88,
      "chip": "ym2612"
    },
    {
      "channel": 4,
      "note": 69,
      "start": 51.0967,
      "duration": 0.0791,
      "velocity": 127,
      "chip": "ym2612"
    },
    {
      "channel": 1,
      "note": 42,
      "start": 51.1885,
      "duration": 0.0481,
      "velocity": 92,
      "chip": "ym2612"
    },
    {
      "channel": 3,
      "note": 78,
      "start": 51.1938,
      "duration": 0.0208,
      "velocity": 88,
      "chip": "ym2612"
    },
    {
      "channel": 4,
      "note": 69,
      "start": 51.1993,
      "duration": 0.0387,
      "velocity": 127,
      "chip": "ym2612"
    },
    {
      "channel": 1,
      "note": 52,
      "start": 51.2459,
      "duration": 0.0516,
      "velocity": 92,
      "chip": "ym2612"
    },
    {
      "channel": 3,
      "note": 70,
      "start": 51.2509,
      "duration": 0.0211,
      "velocity": 88,
      "chip": "ym2612"
    },
    {
      "channel": 4,
      "note": 69,
      "start": 51.257,
      "duration": 0.0374,
      "velocity": 127,
      "chip": "ym2612"
    },
    {
      "channel": 1,
      "note": 49,
      "start": 51.3068,
      "duration": 0.0445,
      "velocity": 92,
      "chip": "ym2612"
    },
    {
      "channel": 3,
      "note": 70,
      "start": 51.311,
      "duration": 0.0154,
      "velocity": 88,
      "chip": "ym2612"
    },
    {
      "channel": 4,
      "note": 69,
      "start": 51.3156,
      "duration": 0.038,
      "velocity": 127,
      "chip": "ym2612"
    },
    {
      "channel": 1,
      "note": 47,
      "start": 51.3608,
      "duration": 0.0456,
      "velocity": 92,
      "chip": "ym2612"
    },
    {
      "channel": 3,
      "note": 78,
      "start": 51.3651,
      "duration": 0.0187,
      "velocity": 88,
      "chip": "ym2612"
    },
    {
      "channel": 4,
      "note": 69,
      "start": 51.3694,
      "duration": 0.0387,
      "velocity": 127,
      "chip": "ym2612"
    },
    {
      "channel": 1,
      "note": 49,
      "start": 51.4158,
      "duration": 0.0475,
      "velocity": 92,
      "chip": "ym2612"
    },
    {
      "channel": 3,
      "note": 78,
      "start": 51.4205,
      "duration": 0.0205,
      "velocity": 88,
      "chip": "ym2612"
    },
    {
      "channel": 4,
      "note": 69,
      "start": 51.4248,
      "duration": 0.0404,
      "velocity": 127,
      "chip": "ym2612"
    },
    {
      "channel": 1,
      "note": 42,
      "start": 51.4727,
      "duration": 0.0491,
      "velocity": 92,
      "chip": "ym2612"
    },
    {
      "channel": 3,
      "note": 82,
      "start": 51.4768,
      "duration": 0.0192,
      "velocity": 88,
      "chip": "ym2612"
    },
    {
      "channel": 4,
      "note": 66,
      "start": 51.481,
      "duration": 0.0378,
      "velocity": 127,
      "chip": "ym2612"
    },
    {
      "channel": 1,
      "note": 49,
      "start": 51.5314,
      "duration": 0.0463,
      "velocity": 92,
      "chip": "ym2612"
    },
    {
      "channel": 3,
      "note": 70,
      "start": 51.5358,
      "duration": 0.0188,
      "velocity": 88,
      "chip": "ym2612"
    },
    {
      "channel": 4,
      "note": 66,
      "start": 51.54,
      "duration": 0.0396,
      "velocity": 127,
      "chip": "ym2612"
    },
    {
      "channel": 0,
      "note": 82,
      "start": 51.586,
      "duration": 0.0773,
      "velocity": 67,
      "chip": "ym2612"
    },
    {
      "channel": 1,
      "note": 54,
      "start": 51.5907,
      "duration": 0.0733,
      "velocity": 92,
      "chip": "ym2612"
    },
    {
      "channel": 3,
      "note": 70,
      "start": 51.5955,
      "duration": 0.0135,
      "velocity": 88,
      "chip": "ym2612"
    },
    {
      "channel": 1,
      "note": 42,
      "start": 51.6783,
      "duration": 0.139,
      "velocity": 92,
      "chip": "ym2612"
    },
    {
      "channel": 3,
      "note": 78,
      "start": 51.6837,
      "duration": 0.0514,
      "velocity": 88,
      "chip": "ym2612"
    },
    {
      "channel": 4,
      "note": 66,
      "start": 51.6891,
      "duration": 0.1177,
      "velocity": 127,
      "chip": "ym2612"
    },
    {
      "channel": 0,
      "note": 82,
      "start": 51.8315,
      "duration": 0.0527,
      "velocity": 67,
      "chip": "ym2612"
    },
    {
      "channel": 1,
      "note": 49,
      "start": 51.8368,
      "duration": 0.0476,
      "velocity": 92,
      "chip": "ym2612"
    },
    {
      "channel": 3,
      "note": 70,
      "start": 51.8423,
      "duration": 0.0155,
      "velocity": 88,
      "chip": "ym2612"
    },
    {
      "channel": 4,
      "note": 66,
      "start": 51.8476,
      "duration": 0.0383,
      "velocity": 127,
      "chip": "ym2612"
    },
    {
      "channel": 1,
      "note": 52,
      "start": 51.892,
      "duration": 0.0442,
      "velocity": 92,
      "chip": "ym2612"
    },
    {
      "channel": 3,
      "note": 70,
      "start": 51.8967,
      "duration": 0.0159,
      "velocity": 88,
      "chip": "ym2612"
    },
    {
      "channel": 0,
      "note": 82,
      "start": 51.945,
      "duration": 0.0491,
      "velocity": 67,
      "chip": "ym2612"
    },
    {
      "channel": 1,
      "note": 47,
      "start": 51.9493,
      "duration": 0.0458,
      "velocity": 92,
      "chip": "ym2612"
    },
    {
      "channel": 3,
      "note": 78,
      "start": 51.9537,
      "duration": 0.0177,
      "velocity": 88,
      "chip": "ym2612"
    },
    {
      "channel": 4,
      "note": 66,
      "start": 51.9582,
      "duration": 0.0385,
      "velocity": 127,
      "chip": "ym2612"
    },
    {
      "channel": 0,
      "note": 83,
      "start": 52.0034,
      "duration": 0.1429,
      "velocity": 67,
      "chip": "ym2612"
    },
    {
      "channel": 1,
      "note": 49,
      "start": 52.0076,
      "duration": 0.0487,
      "velocity": 92,
      "chip": "ym2612"
    },
    {
      "channel": 3,
      "note": 70,
      "start": 52.012,
      "duration": 0.0183,
      "velocity": 88,
      "chip": "ym2612"
    },
    {
      "channel": 4,
      "note": 66,
      "start": 52.0176,
      "duration": 0.0353,
      "velocity": 127,
      "chip": "ym2612"
    },
    {
      "channel": 1,
      "note": 42,
      "start": 52.0646,
      "duration": 0.0831,
      "velocity": 92,
      "chip": "ym2612"
    },
    {
      "channel": 3,
      "note": 82,
      "start": 52.0695,
      "duration": 0.0161,
      "velocity": 88,
      "chip": "ym2612"
    },
    {
      "channel": 0,
      "note": 82,
      "start": 52.1612,
      "duration": 0.0524,
      "velocity": 67,
      "chip": "ym2612"
    },
    {
      "channel": 1,
      "note": 49,
      "start": 52.1665,
      "duration": 0.0474,
      "velocity": 92,
      "chip": "ym2612"
    },
    {
      "channel": 3,
      "note": 70,
      "start": 52.172,
      "duration": 0.0189,
      "velocity": 88,
      "chip": "ym2612"
    },
    {
      "channel": 4,
      "note": 69,
      "start": 52.1773,
      "duration": 0.0382,
      "velocity": 127,
      "chip": "ym2612"
    },
    {
      "channel": 1,
      "note": 54,
      "start": 52.2229,
      "duration": 0.0851,
      "velocity": 92,
      "chip": "ym2612"
    },
    {
      "channel": 3,
      "note": 78,
      "start": 52.2274,
      "duration": 0.0179,
      "velocity": 88,
      "chip": "ym2612"
    },
    {
      "channel": 4,
      "note": 69,
      "start": 52.2316,
      "duration": 0.0657,
      "velocity": 127,
      "chip": "ym2612"
    },
    {
      "channel": 0,
      "note": 82,
      "start": 52.322,
      "duration": 0.052,
      "velocity": 67,
      "chip": "ym2612"
    },
    {
      "channel": 1,
      "note": 42,
      "start": 52.3274,
      "duration": 0.048,
      "velocity": 92,
      "chip": "ym2612"
    },
    {
      "channel": 3,
      "note": 70,
      "start": 52.3329,
      "duration": 0.0157,
      "velocity": 88,
      "chip": "ym2612"
    },
    {
      "channel": 4,
      "note": 69,
      "start": 52.3381,
      "duration": 0.0391,
      "velocity": 127,
      "chip": "ym2612"
    },
    {
      "channel": 0,
      "note": 78,
      "start": 52.3844,
      "duration": 0.105,
      "velocity": 67,
      "chip": "ym2612"
    },
    {
      "channel": 1,
      "note": 52,
      "start": 52.3892,
      "duration": 0.0454,
      "velocity": 92,
      "chip": "ym2612"
    },
    {
      "channel": 3,
      "note": 73,
      "start": 52.3936,
      "duration": 0.0183,
      "velocity": 88,
      "chip": "ym2612"
    },
    {
      "channel": 4,
      "note": 69,
      "start": 52.398,
      "duration": 0.0385,
      "velocity": 127,
      "chip": "ym2612"
    },
    {
      "channel": 1,
      "note": 49,
      "start": 52.4441,
      "duration": 0.0466,
      "velocity": 92,
      "chip": "ym2612"
    },
    {
      "channel": 3,
      "note": 73,
      "start": 52.4487,
      "duration": 0.0184,
      "velocity": 88,
      "chip": "ym2612"
    },
    {
      "channel": 4,
      "note": 69,
      "start": 52.4529,
      "duration": 0.0394,
      "velocity": 127,
      "chip": "ym2612"
    },
    {
      "channel": 0,
      "note": 82,
      "start": 52.4996,
      "duration": 0.1095,
      "velocity": 67,
      "chip": "ym2612"
    },
    {
      "channel": 1,
      "note": 47,
      "start": 52.5044,
      "duration": 0.0484,
      "velocity": 92,
      "chip": "ym2612"
    },
    {
      "channel": 3,
      "note": 70,
      "start": 52.5093,
      "duration": 0.0183,
      "velocity": 88,
      "chip": "ym2612"
    },
    {
      "channel": 4,
      "note": 69,
      "start": 52.5133,
      "duration": 0.0367,
      "velocity": 127,
      "chip": "ym2612"
    },
    {
      "channel": 1,
      "note": 49,
      "start": 52.5622,
      "duration": 0.0481,
      "velocity": 92,
      "chip": "ym2612"
    },
    {
      "channel": 3,
      "note": 70,
      "start": 52.5665,
      "duration": 0.0205,
      "velocity": 88,
      "chip": "ym2612"
    },
    {
      "channel": 4,
      "note": 69,
      "start": 52.5709,
      "duration": 0.0402,
      "velocity": 127,
      "chip": "ym2612"
    },
    {
      "channel": 0,
      "note": 80,
      "start": 52.6182,
      "duration": 1.5638,
      "velocity": 67,
      "chip": "ym2612"
    },
    {
      "channel": 3,
      "note": 80,
      "start": 52.6226,
      "duration": 0.0223,
      "velocity": 88,
      "chip": "ym2612"
    },
    {
      "channel": 4,
      "note": 66,
      "start": 52.6271,
      "duration": 0.0406,
      "velocity": 127,
      "chip": "ym2612"
    },
    {
      "channel": 5,
      "note": 80,
      "start": 52.6316,
      "duration": 0.0375,
      "velocity": 88,
      "chip": "ym2612"
    },
    {
      "channel": 4,
      "note": 66,
      "start": 52.6762,
      "duration": 0.0429,
      "velocity": 127,
      "chip": "ym2612"
    },
    {
      "channel": 5,
      "note": 75,
      "start": 52.6804,
      "duration": 0.0389,
      "velocity": 88,
      "chip": "ym2612"
    },
    {
      "channel": 3,
      "note": 68,
      "start": 52.7306,
      "duration": 0.0171,
      "velocity": 88,
      "chip": "ym2612"
    },
    {
      "channel": 5,
      "note": 78,
      "start": 52.7347,
      "duration": 0.0871,
      "velocity": 88,
      "chip": "ym2612"
    },
    {
      "channel": 3,
      "note": 68,
      "start": 52.8349,
      "duration": 0.0567,
      "velocity": 88,
      "chip": "ym2612"
    },
    {
      "channel": 4,
      "note": 66,
      "start": 52.8402,
      "duration": 0.1237,
      "velocity": 127,
      "chip": "ym2612"
    },
    {
      "channel": 5,
      "note": 80,
      "start": 52.8456,
      "duration": 0.1202,
      "velocity": 88,
      "chip": "ym2612"
    },
    {
      "channel": 3,
      "note": 80,
      "start": 52.9781,
      "duration": 0.0261,
      "velocity": 88,
      "chip": "ym2612"
    },
    {
      "channel": 4,
      "note": 66,
      "start": 52.9834,
      "duration": 0.0444,
      "velocity": 127,
      "chip": "ym2612"
    },
    {
      "channel": 5,
      "note": 78,
      "start": 52.9888,
      "duration": 0.0392,
      "velocity": 88,
      "chip": "ym2612"
    },
    {
      "channel": 3,
      "note": 68,
      "start": 53.0353,
      "duration": 0.0199,
      "velocity": 88,
      "chip": "ym2612"
    },
    {
      "channel": 5,
      "note": 75,
      "start": 53.0398,
      "duration": 0.0381,
      "velocity": 88,
      "chip": "ym2612"
    },
    {
      "channel": 3,
      "note": 78,
      "start": 53.0901,
      "duration": 0.025,
      "velocity": 88,
      "chip": "ym2612"
    },
    {
      "channel": 4,
      "note": 66,
      "start": 53.0944,
      "duration": 0.044,
      "velocity": 127,
      "chip": "ym2612"
    },
    {
      "channel": 5,
      "note": 73,
      "start": 53.1003,
      "duration": 0.0395,
      "velocity": 88,
      "chip": "ym2612"
    },
    {
      "channel": 3,
      "note": 83,
      "start": 53.1473,
      "duration": 0.0234,
      "velocity": 88,
      "chip": "ym2612"
    },
    {
      "channel": 4,
      "note": 66,
      "start": 53.1519,
      "duration": 0.0418,
      "velocity": 127,
      "chip": "ym2612"
    },
    {
      "channel": 5,
      "note": 71,
      "start": 53.156,
      "duration": 0.0379,
      "velocity": 88,
      "chip": "ym2612"
    },
    {
      "channel": 3,
      "note": 80,
      "start": 53.2012,
      "duration": 0.0203,
      "velocity": 88,
      "chip": "ym2612"
    },
    {
      "channel": 5,
      "note": 73,
      "start": 53.2056,
      "duration": 0.0742,
      "velocity": 88,
      "chip": "ym2612"
    },
    {
      "channel": 4,
      "note": 69,
      "start": 53.3048,
      "duration": 0.0459,
      "velocity": 127,
      "chip": "ym2612"
    },
    {
      "channel": 5,
      "note": 71,
      "start": 53.3102,
      "duration": 0.0419,
      "velocity": 88,
      "chip": "ym2612"
    },
    {
      "channel": 3,
      "note": 68,
      "start": 53.359,
      "duration": 0.023,
      "velocity": 88,
      "chip": "ym2612"
    },
    {
      "channel": 4,
      "note": 69,
      "start": 53.3636,
      "duration": 0.0795,
      "velocity": 127,
      "chip": "ym2612"
    },
    {
      "channel": 5,
      "note": 68,
      "start": 53.3684,
      "duration": 0.0766,
      "velocity": 88,
      "chip": "ym2612"
    },
    {
      "channel": 3,
      "note": 68,
      "start": 53.4573,
      "duration": 0.0261,
      "velocity": 88,
      "chip": "ym2612"
    },
    {
      "channel": 4,
      "note": 69,
      "start": 53.4626,
      "duration": 0.044,
      "velocity": 127,
      "chip": "ym2612"
    },
    {
      "channel": 5,
      "note": 73,
      "start": 53.468,
      "duration": 0.0402,
      "velocity": 88,
      "chip": "ym2612"
    },
    {
      "channel": 3,
      "note": 80,
      "start": 53.515,
      "duration": 0.0231,
      "velocity": 88,
      "chip": "ym2612"
    },
    {
      "channel": 4,
      "note": 69,
      "start": 53.5193,
      "duration": 0.0412,
      "velocity": 127,
      "chip": "ym2612"
    },
    {
      "channel": 5,
      "note": 71,
      "start": 53.5241,
      "duration": 0.0368,
      "velocity": 88,
      "chip": "ym2612"
    },
    {
      "channel": 3,
      "note": 68,
      "start": 53.5729,
      "duration": 0.0227,
      "velocity": 88,
      "chip": "ym2612"
    },
    {
      "channel": 4,
      "note": 69,
      "start": 53.5771,
      "duration": 0.0419,
      "velocity": 127,
      "chip": "ym2612"
    },
    {
      "channel": 5,
      "note": 68,
      "start": 53.5815,
      "duration": 0.0389,
      "velocity": 88,
      "chip": "ym2612"
    },
    {
      "channel": 3,
      "note": 78,
      "start": 53.6275,
      "duration": 0.0235,
      "velocity": 88,
      "chip": "ym2612"
    },
    {
      "channel": 4,
      "note": 69,
      "start": 53.6317,
      "duration": 0.0426,
      "velocity": 127,
      "chip": "ym2612"
    },
    {
      "channel": 5,
      "note": 63,
      "start": 53.6364,
      "duration": 0.0393,
      "velocity": 88,
      "chip": "ym2612"
    },
    {
      "channel": 3,
      "note": 83,
      "start": 53.6834,
      "duration": 0.0248,
      "velocity": 88,
      "chip": "ym2612"
    },
    {
      "channel": 4,
      "note": 69,
      "start": 53.6879,
      "duration": 0.0426,
      "velocity": 127,
      "chip": "ym2612"
    },
    {
      "channel": 5,
      "note": 66,
      "start": 53.692,
      "duration": 0.0388,
      "velocity": 88,
      "chip": "ym2612"
    },
    {
      "channel": 3,
      "note": 80,
      "start": 53.743,
      "duration": 0.0201,
      "velocity": 88,
      "chip": "ym2612"
    },
    {
      "channel": 4,
      "note": 66,
      "start": 53.7473,
      "duration": 0.0421,
      "velocity": 127,
      "chip": "ym2612"
    },
    {
      "channel": 5,
      "note": 80,
      "start": 53.7516,
      "duration": 0.0394,
      "velocity": 88,
      "chip": "ym2612"
    },
    {
      "channel": 4,
      "note": 66,
      "start": 53.7981,
      "duration": 0.0462,
      "velocity": 127,
      "chip": "ym2612"
    },
    {
      "channel": 5,
      "note": 75,
      "start": 53.8042,
      "duration": 0.0405,
      "velocity": 88,
      "chip": "ym2612"
    },
    {
      "channel": 3,
      "note": 68,
      "start": 53.8519,
      "duration": 0.0196,
      "velocity": 88,
      "chip": "ym2612"
    },
    {
      "channel": 5,
      "note": 78,
      "start": 53.8561,
      "duration": 0.0794,
      "velocity": 88,
      "chip": "ym2612"
    },
    {
      "channel": 3,
      "note": 68,
      "start": 53.9486,
      "duration": 0.0568,
      "velocity": 88,
      "chip": "ym2612"
    },
    {
      "channel": 4,
      "note": 66,
      "start": 53.954,
      "duration": 0.1231,
      "velocity": 127,
      "chip": "ym2612"
    },
    {
      "channel": 5,
      "note": 80,
      "start": 53.9594,
      "duration": 0.1186,
      "velocity": 88,
      "chip": "ym2612"
    },
    {
      "channel": 3,
      "note": 80,
      "start": 54.1022,
      "duration": 0.0259,
      "velocity": 88,
      "chip": "ym2612"
    },
    {
      "channel": 4,
      "note": 66,
      "start": 54.1075,
      "duration": 0.0437,
      "velocity": 127,
      "chip": "ym2612"
    },
    {
      "channel": 5,
      "note": 78,
      "start": 54.1129,
      "duration": 0.0386,
      "velocity": 88,
      "chip": "ym2612"
    },
    {
      "channel": 3,
      "note": 68,
      "start": 54.1587,
      "duration": 0.0205,
      "velocity": 88,
      "chip": "ym2612"
    },
    {
      "channel": 5,
      "note": 75,
      "start": 54.1634,
      "duration": 0.0401,
      "velocity": 88,
      "chip": "ym2612"
    },
    {
      "channel": 3,
      "note": 78,
      "start": 54.2108,
      "duration": 0.0238,
      "velocity": 88,
      "chip": "ym2612"
    },
    {
      "channel": 4,
      "note": 66,
      "start": 54.2154,
      "duration": 0.042,
      "velocity": 127,
      "chip": "ym2612"
    },
    {
      "channel": 5,
      "note": 73,
      "start": 54.2202,
      "duration": 0.0375,
      "velocity": 88,
      "chip": "ym2612"
    },
    {
      "channel": 3,
      "note": 83,
      "start": 54.2696,
      "duration": 0.0205,
      "velocity": 88,
      "chip": "ym2612"
    },
    {
      "channel": 4,
      "note": 66,
      "start": 54.2739,
      "duration": 0.0427,
      "velocity": 127,
      "chip": "ym2612"
    },
    {
      "channel": 5,
      "note": 71,
      "start": 54.2783,
      "duration": 0.0386,
      "velocity": 88,
      "chip": "ym2612"
    },
    {
      "channel": 3,
      "note": 80,
      "start": 54.3241,
      "duration": 0.0208,
      "velocity": 88,
      "chip": "ym2612"
    },
    {
      "channel": 5,
      "note": 73,
      "start": 54.3288,
      "duration": 0.0756,
      "velocity": 88,
      "chip": "ym2612"
    },
    {
      "channel": 3,
      "note": 68,
      "start": 54.4174,
      "duration": 0.0263,
      "velocity": 88,
      "chip": "ym2612"
    },
    {
      "channel": 4,
      "note": 69,
      "start": 54.4228,
      "duration": 0.0433,
      "velocity": 127,
      "chip": "ym2612"
    },
    {
      "channel": 5,
      "note": 71,
      "start": 54.4281,
      "duration": 0.0395,
      "velocity": 88,
      "chip": "ym2612"
    },
    {
      "channel": 4,
      "note": 69,
      "start": 54.4748,
      "duration": 0.0802,
      "velocity": 127,
      "chip": "ym2612"
    },
    {
      "channel": 5,
      "note": 68,
      "start": 54.4793,
      "duration": 0.0765,
      "velocity": 88,
      "chip": "ym2612"
    },
    {
      "channel": 3,
      "note": 80,
      "start": 54.58,
      "duration": 0.0258,
      "velocity": 88,
      "chip": "ym2612"
    },
    {
      "channel": 4,
      "note": 69,
      "start": 54.5852,
      "duration": 0.0431,
      "velocity": 127,
      "chip": "ym2612"
    },
    {
      "channel": 5,
      "note": 73,
      "start": 54.5907,
      "duration": 0.0391,
      "velocity": 88,
      "chip": "ym2612"
    },
    {
      "channel": 4,
      "note": 69,
      "start": 54.637,
      "duration": 0.0459,
      "velocity": 127,
      "chip": "ym2612"
    },
    {
      "channel": 5,
      "note": 71,
      "start": 54.6427,
      "duration": 0.0417,
      "velocity": 88,
      "chip": "ym2612"
    },
    {
      "channel": 3,
      "note": 68,
      "start": 54.6915,
      "duration": 0.0228,
      "velocity": 88,
      "chip": "ym2612"
    },
    {
      "channel": 4,
      "note": 69,
      "start": 54.6963,
      "duration": 0.0412,
      "velocity": 127,
      "chip": "ym2612"
    },
    {
      "channel": 5,
      "note": 68,
      "start": 54.7003,
      "duration": 0.0373,
      "velocity": 88,
      "chip": "ym2612"
    },
    {
      "channel": 3,
      "note": 80,
      "start": 54.7497,
      "duration": 0.0216,
      "velocity": 88,
      "chip": "ym2612"
    },
    {
      "channel": 4,
      "note": 69,
      "start": 54.754,
      "duration": 0.0438,
      "velocity": 127,
      "chip": "ym2612"
    },
    {
      "channel": 5,
      "note": 63,
      "start": 54.7583,
      "duration": 0.041,
      "velocity": 88,
      "chip": "ym2612"
    },
    {
      "channel": 3,
      "note": 83,
      "start": 54.8063,
      "duration": 0.0252,
      "velocity": 88,
      "chip": "ym2612"
    },
    {
      "channel": 4,
      "note": 69,
      "start": 54.811,
      "duration": 0.0508,
      "velocity": 127,
      "chip": "ym2612"
    },
    {
      "channel": 5,
      "note": 66,
      "start": 54.8154,
      "duration": 0.0478,
      "velocity": 88,
      "chip": "ym2612"
    },
    {
      "channel": 0,
      "note": 46,
      "start": 54.8731,
      "duration": 0.0247,
      "velocity": 122,
      "chip": "ym2612"
    },
    {
      "channel": 1,
      "note": 42,
      "start": 54.8774,
      "duration": 0.0435,
      "velocity": 92,
      "chip": "ym2612"
    },
    {
      "channel": 3,
      "note": 66,
      "start": 54.882,
      "duration": 2.2067,
      "velocity": 108,
      "chip": "ym2612"
    },
    {
      "channel": 2,
      "note": 61,
      "start": 54.8902,
      "duration": 16.96,
      "velocity": 108,
      "chip": "ym2612"
    },
    {
      "channel": 0,
      "note": 56,
      "start": 54.9293,
      "duration": 0.1222,
      "velocity": 122,
      "chip": "ym2612"
    },
    {
      "channel": 1,
      "note": 49,
      "start": 54.9337,
      "duration": 0.1186,
      "velocity": 92,
      "chip": "ym2612"
    },
    {
      "channel": 4,
      "note": 66,
      "start": 54.9382,
      "duration": 0.1156,
      "velocity": 127,
      "chip": "ym2612"
    },
    {
      "channel": 1,
      "note": 54,
      "start": 55.0664,
      "duration": 0.1391,
      "velocity": 92,
      "chip": "ym2612"
    },
    {
      "channel": 0,
      "note": 56,
      "start": 55.2196,
      "duration": 0.1081,
      "velocity": 122,
      "chip": "ym2612"
    },
    {
      "channel": 1,
      "note": 42,
      "start": 55.2249,
      "duration": 0.1239,
      "velocity": 92,
      "chip": "ym2612"
    },
    {
      "channel": 4,
      "note": 66,
      "start": 55.2304,
      "duration": 0.1199,
      "velocity": 127,
      "chip": "ym2612"
    },
    {
      "channel": 0,
      "note": 53,
      "start": 55.363,
      "duration": 0.0875,
      "velocity": 122,
      "chip": "ym2612"
    },
    {
      "channel": 1,
      "note": 49,
      "start": 55.3683,
      "duration": 0.1231,
      "velocity": 92,
      "chip": "ym2612"
    },
    {
      "channel": 4,
      "note": 66,
      "start": 55.3737,
      "duration": 0.1192,
      "velocity": 127,
      "chip": "ym2612"
    },
    {
      "channel": 1,
      "note": 52,
      "start": 55.5062,
      "duration": 0.1291,
      "velocity": 92,
      "chip": "ym2612"
    },
    {
      "channel": 0,
      "note": 49,
      "start": 55.6494,
      "duration": 0.0773,
      "velocity": 122,
      "chip": "ym2612"
    },
    {
      "channel": 1,
      "note": 47,
      "start": 55.6547,
      "duration": 0.1334,
      "velocity": 92,
      "chip": "ym2612"
    },
    {
      "channel": 4,
      "note": 66,
      "start": 55.6601,
      "duration": 0.1295,
      "velocity": 127,
      "chip": "ym2612"
    },
    {
      "channel": 1,
      "note": 49,
      "start": 55.8029,
      "duration": 0.1284,
      "velocity": 92,
      "chip": "ym2612"
    },
    {
      "channel": 4,
      "note": 66,
      "start": 55.8083,
      "duration": 0.1246,
      "velocity": 127,
      "chip": "ym2612"
    },
    {
      "channel": 1,
      "note": 42,
      "start": 55.9463,
      "duration": 0.1283,
      "velocity": 92,
      "chip": "ym2612"
    },
    {
      "channel": 1,
      "note": 49,
      "start": 56.0895,
      "duration": 0.1393,
      "velocity": 92,
      "chip": "ym2612"
    },
    {
      "channel": 4,
      "note": 66,
      "start": 56.095,
      "duration": 0.1231,
      "velocity": 127,
      "chip": "ym2612"
    },
    {
      "channel": 0,
      "note": 52,
      "start": 56.2428,
      "duration": 0.0467,
      "velocity": 122,
      "chip": "ym2612"
    },
    {
      "channel": 1,
      "note": 54,
      "start": 56.2482,
      "duration": 0.1238,
      "velocity": 92,
      "chip": "ym2612"
    },
    {
      "channel": 4,
      "note": 66,
      "start": 56.2537,
      "duration": 0.1198,
      "velocity": 127,
      "chip": "ym2612"
    },
    {
      "channel": 0,
      "note": 50,
      "start": 56.3861,
      "duration": 0.1183,
      "velocity": 122,
      "chip": "ym2612"
    },
    {
      "channel": 1,
      "note": 42,
      "start": 56.3914,
      "duration": 0.1241,
      "velocity": 92,
      "chip": "ym2612"
    },
    {
      "channel": 0,
      "note": 52,
      "start": 56.5295,
      "duration": 0.0466,
      "velocity": 122,
      "chip": "ym2612"
    },
    {
      "channel": 1,
      "note": 52,
      "start": 56.5348,
      "duration": 0.1238,
      "velocity": 92,
      "chip": "ym2612"
    },
    {
      "channel": 4,
      "note": 66,
      "start": 56.5402,
      "duration": 0.1198,
      "velocity": 127,
      "chip": "ym2612"
    },
    {
      "channel": 0,
      "note": 50,
      "start": 56.6726,
      "duration": 0.1387,
      "velocity": 122,
      "chip": "ym2612"
    },
    {
      "channel": 1,
      "note": 49,
      "start": 56.678,
      "duration": 0.1348,
      "velocity": 92,
      "chip": "ym2612"
    },
    {
      "channel": 0,
      "note": 52,
      "start": 56.8261,
      "duration": 0.0672,
      "velocity": 122,
      "chip": "ym2612"
    },
    {
      "channel": 1,
      "note": 47,
      "start": 56.8315,
      "duration": 0.1238,
      "velocity": 92,
      "chip": "ym2612"
    },
    {
      "channel": 4,
      "note": 66,
      "start": 56.837,
      "duration": 0.1198,
      "velocity": 127,
      "chip": "ym2612"
    },
    {
      "channel": 0,
      "note": 52,
      "start": 56.9694,
      "duration": 0.1183,
      "velocity": 122,
      "chip": "ym2612"
    },
    {
      "channel": 1,
      "note": 49,
      "start": 56.9746,
      "duration": 0.1241,
      "velocity": 92,
      "chip": "ym2612"
    },
    {
      "channel": 0,
      "note": 46,
      "start": 57.1127,
      "duration": 0.0671,
      "velocity": 122,
      "chip": "ym2612"
    },
    {
      "channel": 1,
      "note": 42,
      "start": 57.118,
      "duration": 0.1341,
      "velocity": 92,
      "chip": "ym2612"
    },
    {
      "channel": 3,
      "note": 68,
      "start": 57.1234,
      "duration": 2.3201,
      "velocity": 108,
      "chip": "ym2612"
    },
    {
      "channel": 4,
      "note": 66,
      "start": 57.1288,
      "duration": 0.1126,
      "velocity": 127,
      "chip": "ym2612"
    },
    {
      "channel": 0,
      "note": 56,
      "start": 57.2661,
      "duration": 0.1183,
      "velocity": 122,
      "chip": "ym2612"
    },
    {
      "channel": 1,
      "note": 49,
      "start": 57.2714,
      "duration": 0.1235,
      "velocity": 92,
      "chip": "ym2612"
    },
    {
      "channel": 4,
      "note": 66,
      "start": 57.2769,
      "duration": 0.1195,
      "velocity": 127,
      "chip": "ym2612"
    },
    {
      "channel": 1,
      "note": 54,
      "start": 57.4094,
      "duration": 0.1291,
      "velocity": 92,
      "chip": "ym2612"
    },
    {
      "channel": 0,
      "note": 56,
      "start": 57.5526,
      "duration": 0.1183,
      "velocity": 122,
      "chip": "ym2612"
    },
    {
      "channel": 1,
      "note": 42,
      "start": 57.5579,
      "duration": 0.1241,
      "velocity": 92,
      "chip": "ym2612"
    },
    {
      "channel": 4,
      "note": 66,
      "start": 57.5634,
      "duration": 0.1201,
      "velocity": 127,
      "chip": "ym2612"
    },
    {
      "channel": 0,
      "note": 53,
      "start": 57.696,
      "duration": 0.0978,
      "velocity": 122,
      "chip": "ym2612"
    },
    {
      "channel": 1,
      "note": 49,
      "start": 57.7013,
      "duration": 0.1333,
      "velocity": 92,
      "chip": "ym2612"
    },
    {
      "channel": 4,
      "note": 66,
      "start": 57.7068,
      "duration": 0.1294,
      "velocity": 127,
      "chip": "ym2612"
    },
    {
      "channel": 1,
      "note": 52,
      "start": 57.8495,
      "duration": 0.1291,
      "velocity": 92,
      "chip": "ym2612"
    },
    {
      "channel": 0,
      "note": 49,
      "start": 57.9926,
      "duration": 0.0671,
      "velocity": 122,
      "chip": "ym2612"
    },
    {
      "channel": 1,
      "note": 47,
      "start": 57.998,
      "duration": 0.1232,
      "velocity": 92,
      "chip": "ym2612"
    },
    {
      "channel": 4,
      "note": 66,
      "start": 58.0034,
      "duration": 0.1192,
      "velocity": 127,
      "chip": "ym2612"
    },
    {
      "channel": 1,
      "note": 49,
      "start": 58.136,
      "duration": 0.1386,
      "velocity": 92,
      "chip": "ym2612"
    },
    {
      "channel": 4,
      "note": 66,
      "start": 58.1414,
      "duration": 0.1232,
      "velocity": 127,
      "chip": "ym2612"
    },
    {
      "channel": 1,
      "note": 42,
      "start": 58.2894,
      "duration": 0.1285,
      "velocity": 92,
      "chip": "ym2612"
    },
    {
      "channel": 1,
      "note": 49,
      "start": 58.4327,
      "duration": 0.1291,
      "velocity": 92,
      "chip": "ym2612"
    },
    {
      "channel": 4,
      "note": 69,
      "start": 58.4381,
      "duration": 0.1252,
      "velocity": 127,
      "chip": "ym2612"
    },
    {
      "channel": 0,
      "note": 52,
      "start": 58.5759,
      "duration": 0.0569,
      "velocity": 122,
      "chip": "ym2612"
    },
    {
      "channel": 1,
      "note": 54,
      "start": 58.5812,
      "duration": 0.1238,
      "velocity": 92,
      "chip": "ym2612"
    },
    {
      "channel": 4,
      "note": 69,
      "start": 58.5867,
      "duration": 0.1198,
      "velocity": 127,
      "chip": "ym2612"
    },
    {
      "channel": 0,
      "note": 50,
      "start": 58.7191,
      "duration": 0.1286,
      "velocity": 122,
      "chip": "ym2612"
    },
    {
      "channel": 1,
      "note": 42,
      "start": 58.7244,
      "duration": 0.1344,
      "velocity": 92,
      "chip": "ym2612"
    },
    {
      "channel": 4,
      "note": 69,
      "start": 58.73,
      "duration": 0.1303,
      "velocity": 127,
      "chip": "ym2612"
    },
    {
      "channel": 0,
      "note": 52,
      "start": 58.8726,
      "duration": 0.0467,
      "velocity": 122,
      "chip": "ym2612"
    },
    {
      "channel": 1,
      "note": 52,
      "start": 58.878,
      "duration": 0.1238,
      "velocity": 92,
      "chip": "ym2612"
    },
    {
      "channel": 4,
      "note": 69,
      "start": 58.8834,
      "duration": 0.1199,
      "velocity": 127,
      "chip": "ym2612"
    },
    {
      "channel": 0,
      "note": 50,
      "start": 59.0159,
      "duration": 0.1286,
      "velocity": 122,
      "chip": "ym2612"
    },
    {
      "channel": 1,
      "note": 49,
      "start": 59.0211,
      "duration": 0.1247,
      "velocity": 92,
      "chip": "ym2612"
    },
    {
      "channel": 4,
      "note": 69,
      "start": 59.0266,
      "duration": 0.1208,
      "velocity": 127,
      "chip": "ym2612"
    },
    {
      "channel": 0,
      "note": 52,
      "start": 59.1591,
      "duration": 0.0773,
      "velocity": 122,
      "chip": "ym2612"
    },
    {
      "channel": 1,
      "note": 47,
      "start": 59.1645,
      "duration": 0.134,
      "velocity": 92,
      "chip": "ym2612"
    },
    {
      "channel": 4,
      "note": 69,
      "start": 59.1699,
      "duration": 0.1179,
      "velocity": 127,
      "chip": "ym2612"
    },
    {
      "channel": 0,
      "note": 52,
      "start": 59.3127,
      "duration": 0.1181,
      "velocity": 122,
      "chip": "ym2612"
    },
    {
      "channel": 1,
      "note": 49,
      "start": 59.318,
      "duration": 0.124,
      "velocity": 92,
      "chip": "ym2612"
    },
    {
      "channel": 4,
      "note": 69,
      "start": 59.3235,
      "duration": 0.1216,
      "velocity": 127,
      "chip": "ym2612"
    },
    {
      "channel": 0,
      "note": 46,
      "start": 59.4559,
      "duration": 0.0671,
      "velocity": 122,
      "chip": "ym2612"
    },
    {
      "channel": 1,
      "note": 42,
      "start": 59.4612,
      "duration": 0.1238,
      "velocity": 92,
      "chip": "ym2612"
    },
    {
      "channel": 3,
      "note": 71,
      "start": 59.4666,
      "duration": 2.3105,
      "velocity": 108,
      "chip": "ym2612"
    },
    {
      "channel": 0,
      "note": 56,
      "start": 59.5991,
      "duration": 0.1286,
      "velocity": 122,
      "chip": "ym2612"
    },
    {
      "channel": 1,
      "note": 49,
      "start": 59.6044,
      "duration": 0.1242,
      "velocity": 92,
      "chip": "ym2612"
    },
    {
      "channel": 4,
      "note": 66,
      "start": 59.6099,
      "duration": 0.1203,
      "velocity": 127,
      "chip": "ym2612"
    },
    {
      "channel": 1,
      "note": 54,
      "start": 59.7426,
      "duration": 0.1391,
      "velocity": 92,
      "chip": "ym2612"
    },
    {
      "channel": 0,
      "note": 56,
      "start": 59.8959,
      "duration": 0.108,
      "velocity": 122,
      "chip": "ym2612"
    },
    {
      "channel": 1,
      "note": 42,
      "start": 59.9012,
      "duration": 0.1238,
      "velocity": 92,
      "chip": "ym2612"
    },
    {
      "channel": 4,
      "note": 66,
      "start": 59.9067,
      "duration": 0.1199,
      "velocity": 127,
      "chip": "ym2612"
    },
    {
      "channel": 0,
      "note": 53,
      "start": 60.0391,
      "duration": 0.0978,
      "velocity": 122,
      "chip": "ym2612"
    },
    {
      "channel": 1,
      "note": 49,
      "start": 60.0445,
      "duration": 0.1231,
      "velocity": 92,
      "chip": "ym2612"
    },
    {
      "channel": 4,
      "note": 66,
      "start": 60.05,
      "duration": 0.1191,
      "velocity": 127,
      "chip": "ym2612"
    },
    {
      "channel": 1,
      "note": 52,
      "start": 60.1825,
      "duration": 0.1393,
      "velocity": 92,
      "chip": "ym2612"
    },
    {
      "channel": 0,
      "note": 49,
      "start": 60.3358,
      "duration": 0.0671,
      "velocity": 122,
      "chip": "ym2612"
    },
    {
      "channel": 1,
      "note": 47,
      "start": 60.3411,
      "duration": 0.1232,
      "velocity": 92,
      "chip": "ym2612"
    },
    {
      "channel": 4,
      "note": 66,
      "start": 60.3467,
      "duration": 0.1191,
      "velocity": 127,
      "chip": "ym2612"
    },
    {
      "channel": 1,
      "note": 49,
      "start": 60.4793,
      "duration": 0.1283,
      "velocity": 92,
      "chip": "ym2612"
    },
    {
      "channel": 4,
      "note": 66,
      "start": 60.4848,
      "duration": 0.1244,
      "velocity": 127,
      "chip": "ym2612"
    },
    {
      "channel": 1,
      "note": 42,
      "start": 60.6224,
      "duration": 0.1284,
      "velocity": 92,
      "chip": "ym2612"
    },
    {
      "channel": 1,
      "note": 49,
      "start": 60.7657,
      "duration": 0.1393,
      "velocity": 92,
      "chip": "ym2612"
    },
    {
      "channel": 4,
      "note": 66,
      "start": 60.7711,
      "duration": 0.1354,
      "velocity": 127,
      "chip": "ym2612"
    },
    {
      "channel": 0,
      "note": 52,
      "start": 60.9191,
      "duration": 0.0466,
      "velocity": 122,
      "chip": "ym2612"
    },
    {
      "channel": 1,
      "note": 54,
      "start": 60.9244,
      "duration": 0.1239,
      "velocity": 92,
      "chip": "ym2612"
    },
    {
      "channel": 4,
      "note": 66,
      "start": 60.93,
      "duration": 0.1198,
      "velocity": 127,
      "chip": "ym2612"
    },
    {
      "channel": 0,
      "note": 50,
      "start": 61.0625,
      "duration": 0.1181,
      "velocity": 122,
      "chip": "ym2612"
    },
    {
      "channel": 1,
      "note": 42,
      "start": 61.0678,
      "duration": 0.124,
      "velocity": 92,
      "chip": "ym2612"
    },
    {
      "channel": 0,
      "note": 52,
      "start": 61.2056,
      "duration": 0.0466,
      "velocity": 122,
      "chip": "ym2612"
    },
    {
      "channel": 1,
      "note": 52,
      "start": 61.211,
      "duration": 0.134,
      "velocity": 92,
      "chip": "ym2612"
    },
    {
      "channel": 4,
      "note": 66,
      "start": 61.2164,
      "duration": 0.1179,
      "velocity": 127,
      "chip": "ym2612"
    },
    {
      "channel": 0,
      "note": 50,
      "start": 61.3591,
      "duration": 0.1285,
      "velocity": 122,
      "chip": "ym2612"
    },
    {
      "channel": 1,
      "note": 49,
      "start": 61.3645,
      "duration": 0.1246,
      "velocity": 92,
      "chip": "ym2612"
    },
    {
      "channel": 0,
      "note": 52,
      "start": 61.5024,
      "duration": 0.0671,
      "velocity": 122,
      "chip": "ym2612"
    },
    {
      "channel": 1,
      "note": 47,
      "start": 61.5076,
      "duration": 0.1239,
      "velocity": 92,
      "chip": "ym2612"
    },
    {
      "channel": 4,
      "note": 66,
      "start": 61.5132,
      "duration": 0.1198,
      "velocity": 127,
      "chip": "ym2612"
    },
    {
      "channel": 0,
      "note": 52,
      "start": 61.6457,
      "duration": 0.1284,
      "velocity": 122,
      "chip": "ym2612"
    },
    {
      "channel": 1,
      "note": 49,
      "start": 61.651,
      "duration": 0.1246,
      "velocity": 92,
      "chip": "ym2612"
    },
    {
      "channel": 0,
      "note": 46,
      "start": 61.7888,
      "duration": 0.0672,
      "velocity": 122,
      "chip": "ym2612"
    },
    {
      "channel": 1,
      "note": 42,
      "start": 61.7942,
      "duration": 0.1341,
      "velocity": 92,
      "chip": "ym2612"
    },
    {
      "channel": 3,
      "note": 70,
      "start": 61.7996,
      "duration": 2.32,
      "velocity": 108,
      "chip": "ym2612"
    },
    {
      "channel": 4,
      "note": 66,
      "start": 61.8049,
      "duration": 0.125,
      "velocity": 127,
      "chip": "ym2612"
    },
    {
      "channel": 0,
      "note": 56,
      "start": 61.9423,
      "duration": 0.1185,
      "velocity": 122,
      "chip": "ym2612"
    },
    {
      "channel": 1,
      "note": 49,
      "start": 61.9477,
      "duration": 0.1233,
      "velocity": 92,
      "chip": "ym2612"
    },
    {
      "channel": 4,
      "note": 66,
      "start": 61.9532,
      "duration": 0.1194,
      "velocity": 127,
      "chip": "ym2612"
    },
    {
      "channel": 1,
      "note": 54,
      "start": 62.0856,
      "duration": 0.1291,
      "velocity": 92,
      "chip": "ym2612"
    },
    {
      "channel": 0,
      "note": 56,
      "start": 62.229,
      "duration": 0.1182,
      "velocity": 122,
      "chip": "ym2612"
    },
    {
      "channel": 1,
      "note": 42,
      "start": 62.2342,
      "duration": 0.134,
      "velocity": 92,
      "chip": "ym2612"
    },
    {
      "channel": 4,
      "note": 66,
      "start": 62.2397,
      "duration": 0.1181,
      "velocity": 127,
      "chip": "ym2612"
    },
    {
      "channel": 0,
      "note": 53,
      "start": 62.3823,
      "duration": 0.0876,
      "velocity": 122,
      "chip": "ym2612"
    },
    {
      "channel": 1,
      "note": 49,
      "start": 62.3876,
      "duration": 0.1233,
      "velocity": 92,
      "chip": "ym2612"
    },
    {
      "channel": 4,
      "note": 66,
      "start": 62.3931,
      "duration": 0.1194,
      "velocity": 127,
      "chip": "ym2612"
    },
    {
      "channel": 1,
      "note": 52,
      "start": 62.5256,
      "duration": 0.1291,
      "velocity": 92,
      "chip": "ym2612"
    },
    {
      "channel": 0,
      "note": 49,
      "start": 62.6688,
      "duration": 0.0774,
      "velocity": 122,
      "chip": "ym2612"
    },
    {
      "channel": 1,
      "note": 47,
      "start": 62.6741,
      "duration": 0.1232,
      "velocity": 92,
      "chip": "ym2612"
    },
    {
      "channel": 4,
      "note": 66,
      "start": 62.6797,
      "duration": 0.1192,
      "velocity": 127,
      "chip": "ym2612"
    },
    {
      "channel": 1,
      "note": 49,
      "start": 62.8123,
      "duration": 0.1385,
      "velocity": 92,
      "chip": "ym2612"
    },
    {
      "channel": 4,
      "note": 66,
      "start": 62.8177,
      "duration": 0.1347,
      "velocity": 127,
      "chip": "ym2612"
    },
    {
      "channel": 1,
      "note": 42,
      "start": 62.9657,
      "duration": 0.1285,
      "velocity": 92,
      "chip": "ym2612"
    },
    {
      "channel": 1,
      "note": 49,
      "start": 63.1089,
      "duration": 0.1291,
      "velocity": 92,
      "chip": "ym2612"
    },
    {
      "channel": 4,
      "note": 69,
      "start": 63.1145,
      "duration": 0.1251,
      "velocity": 127,
      "chip": "ym2612"
    },
    {
      "channel": 0,
      "note": 52,
      "start": 63.2521,
      "duration": 0.0569,
      "velocity": 122,
      "chip": "ym2612"
    },
    {
      "channel": 1,
      "note": 54,
      "start": 63.2573,
      "duration": 0.1342,
      "velocity": 92,
      "chip": "ym2612"
    },
    {
      "channel": 4,
      "note": 69,
      "start": 63.2629,
      "duration": 0.1179,
      "velocity": 127,
      "chip": "ym2612"
    },
    {
      "channel": 0,
      "note": 50,
      "start": 63.4056,
      "duration": 0.1183,
      "velocity": 122,
      "chip": "ym2612"
    },
    {
      "channel": 1,
      "note": 42,
      "start": 63.411,
      "duration": 0.1241,
      "velocity": 92,
      "chip": "ym2612"
    },
    {
      "channel": 4,
      "note": 69,
      "start": 63.4164,
      "duration": 0.1201,
      "velocity": 127,
      "chip": "ym2612"
    },
    {
      "channel": 0,
      "note": 52,
      "start": 63.5489,
      "duration": 0.0466,
      "velocity": 122,
      "chip": "ym2612"
    },
    {
      "channel": 1,
      "note": 52,
      "start": 63.5542,
      "duration": 0.1239,
      "velocity": 92,
      "chip": "ym2612"
    },
    {
      "channel": 4,
      "note": 69,
      "start": 63.5597,
      "duration": 0.12,
      "velocity": 127,
      "chip": "ym2612"
    },
    {
      "channel": 0,
      "note": 50,
      "start": 63.6921,
      "duration": 0.1286,
      "velocity": 122,
      "chip": "ym2612"
    },
    {
      "channel": 1,
      "note": 49,
      "start": 63.6975,
      "duration": 0.1246,
      "velocity": 92,
      "chip": "ym2612"
    },
    {
      "channel": 4,
      "note": 69,
      "start": 63.7029,
      "duration": 0.1207,
      "velocity": 127,
      "chip": "ym2612"
    },
    {
      "channel": 0,
      "note": 52,
      "start": 63.8353,
      "duration": 0.0773,
      "velocity": 122,
      "chip": "ym2612"
    },
    {
      "channel": 1,
      "note": 47,
      "start": 63.8406,
      "duration": 0.1341,
      "velocity": 92,
      "chip": "ym2612"
    },
    {
      "channel": 4,
      "note": 69,
      "start": 63.8462,
      "duration": 0.1301,
      "velocity": 127,
      "chip": "ym2612"
    },
    {
      "channel": 0,
      "note": 52,
      "start": 63.9888,
      "duration": 0.1183,
      "velocity": 122,
      "chip": "ym2612"
    },
    {
      "channel": 1,
      "note": 49,
      "start": 63.9942,
      "duration": 0.124,
      "velocity": 92,
      "chip": "ym2612"
    },
    {
      "channel": 4,
      "note": 69,
      "start": 63.9997,
      "duration": 0.1214,
      "velocity": 127,
      "chip": "ym2612"
    },
    {
      "channel": 0,
      "note": 46,
      "start": 64.1322,
      "duration": 0.0295,
      "velocity": 122,
      "chip": "ym2612"
    },
    {
      "channel": 1,
      "note": 42,
      "start": 64.1375,
      "duration": 0.0442,
      "velocity": 92,
      "chip": "ym2612"
    },
    {
      "channel": 3,
      "note": 66,
      "start": 64.1429,
      "duration": 2.0446,
      "velocity": 108,
      "chip": "ym2612"
    },
    {
      "channel": 0,
      "note": 56,
      "start": 64.1902,
      "duration": 0.0481,
      "velocity": 122,
      "chip": "ym2612"
    },
    {
      "channel": 1,
      "note": 49,
      "start": 64.1949,
      "duration": 0.0465,
      "velocity": 92,
      "chip": "ym2612"
    },
    {
      "channel": 4,
      "note": 66,
      "start": 64.2008,
      "duration": 0.038,
      "velocity": 127,
      "chip": "ym2612"
    },
    {
      "channel": 1,
      "note": 54,
      "start": 64.2492,
      "duration": 0.0867,
      "velocity": 92,
      "chip": "ym2612"
    },
    {
      "channel": 0,
      "note": 56,
      "start": 64.35,
      "duration": 0.1183,
      "velocity": 122,
      "chip": "ym2612"
    },
    {
      "channel": 1,
      "note": 42,
      "start": 64.3554,
      "duration": 0.124,
      "velocity": 92,
      "chip": "ym2612"
    },
    {
      "channel": 4,
      "note": 66,
      "start": 64.3608,
      "duration": 0.1201,
      "velocity": 127,
      "chip": "ym2612"
    },
    {
      "channel": 0,
      "note": 53,
      "start": 64.4934,
      "duration": 0.0978,
      "velocity": 122,
      "chip": "ym2612"
    },
    {
      "channel": 1,
      "note": 49,
      "start": 64.4986,
      "duration": 0.1233,
      "velocity": 92,
      "chip": "ym2612"
    },
    {
      "channel": 4,
      "note": 66,
      "start": 64.5041,
      "duration": 0.1193,
      "velocity": 127,
      "chip": "ym2612"
    },
    {
      "channel": 1,
      "note": 52,
      "start": 64.6366,
      "duration": 0.1393,
      "velocity": 92,
      "chip": "ym2612"
    },
    {
      "channel": 0,
      "note": 49,
      "start": 64.7902,
      "duration": 0.067,
      "velocity": 122,
      "chip": "ym2612"
    },
    {
      "channel": 1,
      "note": 47,
      "start": 64.7954,
      "duration": 0.1231,
      "velocity": 92,
      "chip": "ym2612"
    },
    {
      "channel": 4,
      "note": 66,
      "start": 64.8009,
      "duration": 0.1191,
      "velocity": 127,
      "chip": "ym2612"
    },
    {
      "channel": 1,
      "note": 49,
      "start": 64.9334,
      "duration": 0.1284,
      "velocity": 92,
      "chip": "ym2612"
    },
    {
      "channel": 4,
      "note": 66,
      "start": 64.9389,
      "duration": 0.1244,
      "velocity": 127,
      "chip": "ym2612"
    },
    {
      "channel": 1,
      "note": 42,
      "start": 65.0767,
      "duration": 0.1386,
      "velocity": 92,
      "chip": "ym2612"
    },
    {
      "channel": 1,
      "note": 49,
      "start": 65.2301,
      "duration": 0.1291,
      "velocity": 92,
      "chip": "ym2612"
    },
    {
      "channel": 4,
      "note": 66,
      "start": 65.2355,
      "duration": 0.1252,
      "velocity": 127,
      "chip": "ym2612"
    },
    {
      "channel": 0,
      "note": 52,
      "start": 65.3734,
      "duration": 0.0567,
      "velocity": 122,
      "chip": "ym2612"
    },
    {
      "channel": 1,
      "note": 54,
      "start": 65.3787,
      "duration": 0.1238,
      "velocity": 92,
      "chip": "ym2612"
    },
    {
      "channel": 4,
      "note": 66,
      "start": 65.3841,
      "duration": 0.1198,
      "velocity": 127,
      "chip": "ym2612"
    },
    {
      "channel": 0,
      "note": 50,
      "start": 65.5165,
      "duration": 0.1183,
      "velocity": 122,
      "chip": "ym2612"
    },
    {
      "channel": 1,
      "note": 42,
      "start": 65.5219,
      "duration": 0.1241,
      "velocity": 92,
      "chip": "ym2612"
    },
    {
      "channel": 0,
      "note": 52,
      "start": 65.6599,
      "duration": 0.0466,
      "velocity": 122,
      "chip": "ym2612"
    },
    {
      "channel": 1,
      "note": 52,
      "start": 65.6652,
      "duration": 0.134,
      "velocity": 92,
      "chip": "ym2612"
    },
    {
      "channel": 4,
      "note": 66,
      "start": 65.6706,
      "duration": 0.1301,
      "velocity": 127,
      "chip": "ym2612"
    },
    {
      "channel": 0,
      "note": 50,
      "start": 65.8133,
      "duration": 0.1285,
      "velocity": 122,
      "chip": "ym2612"
    },
    {
      "channel": 1,
      "note": 49,
      "start": 65.8185,
      "duration": 0.1247,
      "velocity": 92,
      "chip": "ym2612"
    },
    {
      "channel": 0,
      "note": 52,
      "start": 65.9566,
      "duration": 0.067,
      "velocity": 122,
      "chip": "ym2612"
    },
    {
      "channel": 1,
      "note": 47,
      "start": 65.9619,
      "duration": 0.1237,
      "velocity": 92,
      "chip": "ym2612"
    },
    {
      "channel": 4,
      "note": 66,
      "start": 65.9674,
      "duration": 0.1198,
      "velocity": 127,
      "chip": "ym2612"
    },
    {
      "channel": 0,
      "note": 52,
      "start": 66.0998,
      "duration": 0.1285,
      "velocity": 122,
      "chip": "ym2612"
    },
    {
      "channel": 1,
      "note": 49,
      "start": 66.1052,
      "duration": 0.1343,
      "velocity": 92,
      "chip": "ym2612"
    },
    {
      "channel": 0,
      "note": 46,
      "start": 66.2533,
      "duration": 0.044,
      "velocity": 122,
      "chip": "ym2612"
    },
    {
      "channel": 1,
      "note": 42,
      "start": 66.2586,
      "duration": 0.0618,
      "velocity": 92,
      "chip": "ym2612"
    },
    {
      "channel": 3,
      "note": 68,
      "start": 66.264,
      "duration": 2.0893,
      "velocity": 108,
      "chip": "ym2612"
    },
    {
      "channel": 4,
      "note": 66,
      "start": 66.2693,
      "duration": 0.0527,
      "velocity": 127,
      "chip": "ym2612"
    },
    {
      "channel": 0,
      "note": 56,
      "start": 66.3293,
      "duration": 0.043,
      "velocity": 122,
      "chip": "ym2612"
    },
    {
      "channel": 1,
      "note": 49,
      "start": 66.3335,
      "duration": 0.0421,
      "velocity": 92,
      "chip": "ym2612"
    },
    {
      "channel": 4,
      "note": 66,
      "start": 66.3383,
      "duration": 0.0384,
      "velocity": 127,
      "chip": "ym2612"
    },
    {
      "channel": 1,
      "note": 54,
      "start": 66.3839,
      "duration": 0.0643,
      "velocity": 92,
      "chip": "ym2612"
    },
    {
      "channel": 0,
      "note": 56,
      "start": 66.4623,
      "duration": 0.1183,
      "velocity": 122,
      "chip": "ym2612"
    },
    {
      "channel": 1,
      "note": 42,
      "start": 66.4677,
      "duration": 0.1341,
      "velocity": 92,
      "chip": "ym2612"
    },
    {
      "channel": 4,
      "note": 66,
      "start": 66.4731,
      "duration": 0.1302,
      "velocity": 127,
      "chip": "ym2612"
    },
    {
      "channel": 0,
      "note": 53,
      "start": 66.6157,
      "duration": 0.0876,
      "velocity": 122,
      "chip": "ym2612"
    },
    {
      "channel": 1,
      "note": 49,
      "start": 66.6211,
      "duration": 0.1231,
      "velocity": 92,
      "chip": "ym2612"
    },
    {
      "channel": 4,
      "note": 66,
      "start": 66.6266,
      "duration": 0.1192,
      "velocity": 127,
      "chip": "ym2612"
    },
    {
      "channel": 1,
      "note": 52,
      "start": 66.7591,
      "duration": 0.1291,
      "velocity": 92,
      "chip": "ym2612"
    },
    {
      "channel": 0,
      "note": 49,
      "start": 66.9024,
      "duration": 0.0772,
      "velocity": 122,
      "chip": "ym2612"
    },
    {
      "channel": 1,
      "note": 47,
      "start": 66.9076,
      "duration": 0.1333,
      "velocity": 92,
      "chip": "ym2612"
    },
    {
      "channel": 4,
      "note": 66,
      "start": 66.9131,
      "duration": 0.1179,
      "velocity": 127,
      "chip": "ym2612"
    },
    {
      "channel": 1,
      "note": 49,
      "start": 67.0559,
      "duration": 0.1284,
      "velocity": 92,
      "chip": "ym2612"
    },
    {
      "channel": 4,
      "note": 66,
      "start": 67.0613,
      "duration": 0.1246,
      "velocity": 127,
      "chip": "ym2612"
    },
    {
      "channel": 1,
      "note": 42,
      "start": 67.1991,
      "duration": 0.1284,
      "velocity": 92,
      "chip": "ym2612"
    },
    {
      "channel": 1,
      "note": 49,
      "start": 67.3423,
      "duration": 0.1291,
      "velocity": 92,
      "chip": "ym2612"
    },
    {
      "channel": 4,
      "note": 69,
      "start": 67.3478,
      "duration": 0.1252,
      "velocity": 127,
      "chip": "ym2612"
    },
    {
      "channel": 0,
      "note": 52,
      "start": 67.4856,
      "duration": 0.0567,
      "velocity": 122,
      "chip": "ym2612"
    },
    {
      "channel": 1,
      "note": 54,
      "start": 67.4909,
      "duration": 0.134,
      "velocity": 92,
      "chip": "ym2612"
    },
    {
      "channel": 4,
      "note": 69,
      "start": 67.4964,
      "duration": 0.13,
      "velocity": 127,
      "chip": "ym2612"
    },
    {
      "channel": 0,
      "note": 50,
      "start": 67.6391,
      "duration": 0.1182,
      "velocity": 122,
      "chip": "ym2612"
    },
    {
      "channel": 1,
      "note": 42,
      "start": 67.6444,
      "duration": 0.1242,
      "velocity": 92,
      "chip": "ym2612"
    },
    {
      "channel": 4,
      "note": 69,
      "start": 67.6498,
      "duration": 0.1202,
      "velocity": 127,
      "chip": "ym2612"
    },
    {
      "channel": 0,
      "note": 52,
      "start": 67.7823,
      "duration": 0.0466,
      "velocity": 122,
      "chip": "ym2612"
    },
    {
      "channel": 1,
      "note": 52,
      "start": 67.7876,
      "duration": 0.1238,
      "velocity": 92,
      "chip": "ym2612"
    },
    {
      "channel": 4,
      "note": 69,
      "start": 67.7931,
      "duration": 0.1198,
      "velocity": 127,
      "chip": "ym2612"
    },
    {
      "channel": 0,
      "note": 50,
      "start": 67.9255,
      "duration": 0.1285,
      "velocity": 122,
      "chip": "ym2612"
    },
    {
      "channel": 1,
      "note": 49,
      "start": 67.9308,
      "duration": 0.1343,
      "velocity": 92,
      "chip": "ym2612"
    },
    {
      "channel": 4,
      "note": 69,
      "start": 67.9364,
      "duration": 0.1188,
      "velocity": 127,
      "chip": "ym2612"
    },
    {
      "channel": 0,
      "note": 52,
      "start": 68.079,
      "duration": 0.0671,
      "velocity": 122,
      "chip": "ym2612"
    },
    {
      "channel": 1,
      "note": 47,
      "start": 68.0844,
      "duration": 0.1237,
      "velocity": 92,
      "chip": "ym2612"
    },
    {
      "channel": 4,
      "note": 69,
      "start": 68.0899,
      "duration": 0.1198,
      "velocity": 127,
      "chip": "ym2612"
    },
    {
      "channel": 0,
      "note": 52,
      "start": 68.2224,
      "duration": 0.1182,
      "velocity": 122,
      "chip": "ym2612"
    },
    {
      "channel": 1,
      "note": 49,
      "start": 68.2276,
      "duration": 0.1242,
      "velocity": 92,
      "chip": "ym2612"
    },
    {
      "channel": 4,
      "note": 69,
      "start": 68.2331,
      "duration": 0.1216,
      "velocity": 127,
      "chip": "ym2612"
    },
    {
      "channel": 0,
      "note": 46,
      "start": 68.3655,
      "duration": 0.0297,
      "velocity": 122,
      "chip": "ym2612"
    },
    {
      "channel": 1,
      "note": 42,
      "start": 68.3709,
      "duration": 0.0444,
      "velocity": 92,
      "chip": "ym2612"
    },
    {
      "channel": 3,
      "note": 71,
      "start": 68.3763,
      "duration": 3.0393,
      "velocity": 108,
      "chip": "ym2612"
    },
    {
      "channel": 0,
      "note": 56,
      "start": 68.4237,
      "duration": 0.0454,
      "velocity": 122,
      "chip": "ym2612"
    },
    {
      "channel": 1,
      "note": 49,
      "start": 68.4282,
      "duration": 0.0441,
      "velocity": 92,
      "chip": "ym2612"
    },
    {
      "channel": 4,
      "note": 66,
      "start": 68.4326,
      "duration": 0.0407,
      "velocity": 127,
      "chip": "ym2612"
    },
    {
      "channel": 1,
      "note": 54,
      "start": 68.4802,
      "duration": 0.0867,
      "velocity": 92,
      "chip": "ym2612"
    },
    {
      "channel": 0,
      "note": 56,
      "start": 68.5811,
      "duration": 0.1182,
      "velocity": 122,
      "chip": "ym2612"
    },
    {
      "channel": 1,
      "note": 42,
      "start": 68.5864,
      "duration": 0.1241,
      "velocity": 92,
      "chip": "ym2612"
    },
    {
      "channel": 4,
      "note": 66,
      "start": 68.5919,
      "duration": 0.1202,
      "velocity": 127,
      "chip": "ym2612"
    },
    {
      "channel": 0,
      "note": 53,
      "start": 68.7242,
      "duration": 0.0978,
      "velocity": 122,
      "chip": "ym2612"
    },
    {
      "channel": 1,
      "note": 49,
      "start": 68.7296,
      "duration": 0.1333,
      "velocity": 92,
      "chip": "ym2612"
    },
    {
      "channel": 4,
      "note": 66,
      "start": 68.7351,
      "duration": 0.1179,
      "velocity": 127,
      "chip": "ym2612"
    },
    {
      "channel": 1,
      "note": 52,
      "start": 68.8779,
      "duration": 0.129,
      "velocity": 92,
      "chip": "ym2612"
    },
    {
      "channel": 0,
      "note": 49,
      "start": 69.021,
      "duration": 0.0671,
      "velocity": 122,
      "chip": "ym2612"
    },
    {
      "channel": 1,
      "note": 47,
      "start": 69.0263,
      "duration": 0.1232,
      "velocity": 92,
      "chip": "ym2612"
    },
    {
      "channel": 4,
      "note": 66,
      "start": 69.0319,
      "duration": 0.1192,
      "velocity": 127,
      "chip": "ym2612"
    },
    {
      "channel": 1,
      "note": 49,
      "start": 69.1644,
      "duration": 0.1283,
      "velocity": 92,
      "chip": "ym2612"
    },
    {
      "channel": 4,
      "note": 66,
      "start": 69.1698,
      "duration": 0.1246,
      "velocity": 127,
      "chip": "ym2612"
    },
    {
      "channel": 1,
      "note": 42,
      "start": 69.3076,
      "duration": 0.1387,
      "velocity": 92,
      "chip": "ym2612"
    },
    {
      "channel": 1,
      "note": 49,
      "start": 69.4611,
      "duration": 0.129,
      "velocity": 92,
      "chip": "ym2612"
    },
    {
      "channel": 4,
      "note": 66,
      "start": 69.4666,
      "duration": 0.1251,
      "velocity": 127,
      "chip": "ym2612"
    },
    {
      "channel": 0,
      "note": 52,
      "start": 69.6042,
      "duration": 0.0569,
      "velocity": 122,
      "chip": "ym2612"
    },
    {
      "channel": 1,
      "note": 54,
      "start": 69.6095,
      "duration": 0.1239,
      "velocity": 92,
      "chip": "ym2612"
    },
    {
      "channel": 4,
      "note": 66,
      "start": 69.6151,
      "duration": 0.1198,
      "velocity": 127,
      "chip": "ym2612"
    },
    {
      "channel": 0,
      "note": 50,
      "start": 69.7476,
      "duration": 0.1182,
      "velocity": 122,
      "chip": "ym2612"
    },
    {
      "channel": 1,
      "note": 42,
      "start": 69.7529,
      "duration": 0.134,
      "velocity": 92,
      "chip": "ym2612"
    },
    {
      "channel": 0,
      "note": 52,
      "start": 69.901,
      "duration": 0.0467,
      "velocity": 122,
      "chip": "ym2612"
    },
    {
      "channel": 1,
      "note": 52,
      "start": 69.9062,
      "duration": 0.1239,
      "velocity": 92,
      "chip": "ym2612"
    },
    {
      "channel": 4,
      "note": 66,
      "start": 69.9118,
      "duration": 0.1198,
      "velocity": 127,
      "chip": "ym2612"
    },
    {
      "channel": 0,
      "note": 50,
      "start": 70.0443,
      "duration": 0.1284,
      "velocity": 122,
      "chip": "ym2612"
    },
    {
      "channel": 1,
      "note": 49,
      "start": 70.0496,
      "duration": 0.1246,
      "velocity": 92,
      "chip": "ym2612"
    },
    {
      "channel": 0,
      "note": 52,
      "start": 70.1875,
      "duration": 0.0774,
      "velocity": 122,
      "chip": "ym2612"
    },
    {
      "channel": 1,
      "note": 47,
      "start": 70.1927,
      "duration": 0.1239,
      "velocity": 92,
      "chip": "ym2612"
    },
    {
      "channel": 4,
      "note": 66,
      "start": 70.1983,
      "duration": 0.1198,
      "velocity": 127,
      "chip": "ym2612"
    },
    {
      "channel": 0,
      "note": 52,
      "start": 70.3308,
      "duration": 0.1285,
      "velocity": 122,
      "chip": "ym2612"
    },
    {
      "channel": 1,
      "note": 49,
      "start": 70.3361,
      "duration": 0.1343,
      "velocity": 92,
      "chip": "ym2612"
    },
    {
      "channel": 0,
      "note": 46,
      "start": 70.4842,
      "duration": 0.044,
      "velocity": 122,
      "chip": "ym2612"
    },
    {
      "channel": 1,
      "note": 42,
      "start": 70.4895,
      "duration": 0.0618,
      "velocity": 92,
      "chip": "ym2612"
    },
    {
      "channel": 4,
      "note": 66,
      "start": 70.4951,
      "duration": 0.0575,
      "velocity": 127,
      "chip": "ym2612"
    },
    {
      "channel": 0,
      "note": 56,
      "start": 70.56,
      "duration": 0.0463,
      "velocity": 122,
      "chip": "ym2612"
    },
    {
      "channel": 1,
      "note": 49,
      "start": 70.5643,
      "duration": 0.0422,
      "velocity": 92,
      "chip": "ym2612"
    },
    {
      "channel": 4,
      "note": 66,
      "start": 70.5687,
      "duration": 0.0389,
      "velocity": 127,
      "chip": "ym2612"
    },
    {
      "channel": 1,
      "note": 54,
      "start": 70.6143,
      "duration": 0.0741,
      "velocity": 92,
      "chip": "ym2612"
    },
    {
      "channel": 0,
      "note": 56,
      "start": 70.7024,
      "duration": 0.1079,
      "velocity": 122,
      "chip": "ym2612"
    },
    {
      "channel": 1,
      "note": 42,
      "start": 70.7078,
      "duration": 0.1237,
      "velocity": 92,
      "chip": "ym2612"
    },
    {
      "channel": 4,
      "note": 66,
      "start": 70.7133,
      "duration": 0.1197,
      "velocity": 127,
      "chip": "ym2612"
    },
    {
      "channel": 0,
      "note": 53,
      "start": 70.8457,
      "duration": 0.0875,
      "velocity": 122,
      "chip": "ym2612"
    },
    {
      "channel": 1,
      "note": 49,
      "start": 70.851,
      "duration": 0.1232,
      "velocity": 92,
      "chip": "ym2612"
    },
    {
      "channel": 4,
      "note": 66,
      "start": 70.8566,
      "duration": 0.1191,
      "velocity": 127,
      "chip": "ym2612"
    },
    {
      "channel": 1,
      "note": 52,
      "start": 70.9891,
      "duration": 0.1289,
      "velocity": 92,
      "chip": "ym2612"
    },
    {
      "channel": 0,
      "note": 49,
      "start": 71.1322,
      "duration": 0.0772,
      "velocity": 122,
      "chip": "ym2612"
    },
    {
      "channel": 1,
      "note": 47,
      "start": 71.1375,
      "duration": 0.1334,
      "velocity": 92,
      "chip": "ym2612"
    },
    {
      "channel": 4,
      "note": 66,
      "start": 71.1431,
      "duration": 0.1295,
      "velocity": 127,
      "chip": "ym2612"
    },
    {
      "channel": 1,
      "note": 49,
      "start": 71.2858,
      "duration": 0.1284,
      "velocity": 92,
      "chip": "ym2612"
    },
    {
      "channel": 4,
      "note": 66,
      "start": 71.2913,
      "duration": 0.1257,
      "velocity": 127,
      "chip": "ym2612"
    },
    {
      "channel": 1,
      "note": 42,
      "start": 71.429,
      "duration": 0.045,
      "velocity": 92,
      "chip": "ym2612"
    },
    {
      "channel": 3,
      "note": 72,
      "start": 71.4344,
      "duration": 0.4061,
      "velocity": 108,
      "chip": "ym2612"
    },
    {
      "channel": 1,
      "note": 49,
      "start": 71.4825,
      "duration": 0.047,
      "velocity": 92,
      "chip": "ym2612"
    },
    {
      "channel": 4,
      "note": 69,
      "start": 71.4868,
      "duration": 0.0389,
      "velocity": 127,
      "chip": "ym2612"
    },
    {
      "channel": 0,
      "note": 52,
      "start": 71.5379,
      "duration": 0.0205,
      "velocity": 122,
      "chip": "ym2612"
    },
    {
      "channel": 1,
      "note": 54,
      "start": 71.5421,
      "duration": 0.043,
      "velocity": 92,
      "chip": "ym2612"
    },
    {
      "channel": 4,
      "note": 69,
      "start": 71.5473,
      "duration": 0.0389,
      "velocity": 127,
      "chip": "ym2612"
    },
    {
      "channel": 0,
      "note": 50,
      "start": 71.5935,
      "duration": 0.0422,
      "velocity": 122,
      "chip": "ym2612"
    },
    {
      "channel": 1,
      "note": 42,
      "start": 71.5977,
      "duration": 0.042,
      "velocity": 92,
      "chip": "ym2612"
    },
    {
      "channel": 4,
      "note": 69,
      "start": 71.602,
      "duration": 0.0388,
      "velocity": 127,
      "chip": "ym2612"
    },
    {
      "channel": 0,
      "note": 52,
      "start": 71.6478,
      "duration": 0.0202,
      "velocity": 122,
      "chip": "ym2612"
    },
    {
      "channel": 1,
      "note": 52,
      "start": 71.652,
      "duration": 0.0424,
      "velocity": 92,
      "chip": "ym2612"
    },
    {
      "channel": 4,
      "note": 69,
      "start": 71.6564,
      "duration": 0.039,
      "velocity": 127,
      "chip": "ym2612"
    },
    {
      "channel": 0,
      "note": 50,
      "start": 71.7032,
      "duration": 0.049,
      "velocity": 122,
      "chip": "ym2612"
    },
    {
      "channel": 1,
      "note": 49,
      "start": 71.7073,
      "duration": 0.0459,
      "velocity": 92,
      "chip": "ym2612"
    },
    {
      "channel": 4,
      "note": 69,
      "start": 71.7117,
      "duration": 0.0427,
      "velocity": 127,
      "chip": "ym2612"
    },
    {
      "channel": 0,
      "note": 52,
      "start": 71.7613,
      "duration": 0.0271,
      "velocity": 122,
      "chip": "ym2612"
    },
    {
      "channel": 1,
      "note": 47,
      "start": 71.7658,
      "duration": 0.0427,
      "velocity": 92,
      "chip": "ym2612"
    },
    {
      "channel": 4,
      "note": 69,
      "start": 71.7706,
      "duration": 0.0389,
      "velocity": 127,
      "chip": "ym2612"
    },
    {
      "channel": 0,
      "note": 52,
      "start": 71.8167,
      "duration": 0.0438,
      "velocity": 122,
      "chip": "ym2612"
    },
    {
      "channel": 1,
      "note": 49,
      "start": 71.8213,
      "duration": 0.0427,
      "velocity": 92,
      "chip": "ym2612"
    },
    {
      "channel": 4,
      "note": 69,
      "start": 71.8257,
      "duration": 0.0408,
      "velocity": 127,
      "chip": "ym2612"
    },
    {
      "channel": 1,
      "note": 44,
      "start": 71.8764,
      "duration": 0.0506,
      "velocity": 92,
      "chip": "ym2612"
    },
    {
      "channel": 2,
      "note": 63,
      "start": 71.8806,
      "duration": 0.9027,
      "velocity": 108,
      "chip": "ym2612"
    },
    {
      "channel": 3,
      "note": 68,
      "start": 71.8879,
      "duration": 0.902,
      "velocity": 108,
      "chip": "ym2612"
    },
    {
      "channel": 1,
      "note": 51,
      "start": 71.9362,
      "duration": 0.0442,
      "velocity": 92,
      "chip": "ym2612"
    },
    {
      "channel": 5,
      "note": 82,
      "start": 71.941,
      "duration": 0.0406,
      "velocity": 88,
      "chip": "ym2612"
    },
    {
      "channel": 1,
      "note": 56,
      "start": 71.9893,
      "duration": 0.0447,
      "velocity": 92,
      "chip": "ym2612"
    },
    {
      "channel": 5,
      "note": 80,
      "start": 71.9943,
      "duration": 0.041,
      "velocity": 88,
      "chip": "ym2612"
    },
    {
      "channel": 1,
      "note": 44,
      "start": 72.0429,
      "duration": 0.0823,
      "velocity": 92,
      "chip": "ym2612"
    },
    {
      "channel": 5,
      "note": 75,
      "start": 72.0472,
      "duration": 0.0795,
      "velocity": 88,
      "chip": "ym2612"
    },
    {
      "channel": 1,
      "note": 51,
      "start": 72.14,
      "duration": 0.0489,
      "velocity": 92,
      "chip": "ym2612"
    },
    {
      "channel": 5,
      "note": 78,
      "start": 72.1455,
      "duration": 0.0446,
      "velocity": 88,
      "chip": "ym2612"
    },
    {
      "channel": 1,
      "note": 54,
      "start": 72.1976,
      "duration": 0.0441,
      "velocity": 92,
      "chip": "ym2612"
    },
    {
      "channel": 5,
      "note": 80,
      "start": 72.2021,
      "duration": 0.0408,
      "velocity": 88,
      "chip": "ym2612"
    },
    {
      "channel": 1,
      "note": 49,
      "start": 72.2522,
      "duration": 0.0489,
      "velocity": 92,
      "chip": "ym2612"
    },
    {
      "channel": 5,
      "note": 73,
      "start": 72.2581,
      "duration": 0.0454,
      "velocity": 88,
      "chip": "ym2612"
    },
    {
      "channel": 1,
      "note": 51,
      "start": 72.3112,
      "duration": 0.05,
      "velocity": 92,
      "chip": "ym2612"
    },
    {
      "channel": 5,
      "note": 75,
      "start": 72.3164,
      "duration": 0.0472,
      "velocity": 88,
      "chip": "ym2612"
    },
    {
      "channel": 1,
      "note": 44,
      "start": 72.3713,
      "duration": 0.0464,
      "velocity": 92,
      "chip": "ym2612"
    },
    {
      "channel": 5,
      "note": 78,
      "start": 72.3761,
      "duration": 0.0428,
      "velocity": 88,
      "chip": "ym2612"
    },
    {
      "channel": 1,
      "note": 51,
      "start": 72.4264,
      "duration": 0.0456,
      "velocity": 92,
      "chip": "ym2612"
    },
    {
      "channel": 5,
      "note": 80,
      "start": 72.431,
      "duration": 0.0423,
      "velocity": 88,
      "chip": "ym2612"
    },
    {
      "channel": 1,
      "note": 56,
      "start": 72.481,
      "duration": 0.0463,
      "velocity": 92,
      "chip": "ym2612"
    },
    {
      "channel": 5,
      "note": 73,
      "start": 72.4869,
      "duration": 0.0421,
      "velocity": 88,
      "chip": "ym2612"
    },
    {
      "channel": 1,
      "note": 44,
      "start": 72.5369,
      "duration": 0.0528,
      "velocity": 92,
      "chip": "ym2612"
    },
    {
      "channel": 5,
      "note": 75,
      "start": 72.5415,
      "duration": 0.0494,
      "velocity": 88,
      "chip": "ym2612"
    },
    {
      "channel": 1,
      "note": 54,
      "start": 72.5988,
      "duration": 0.0451,
      "velocity": 92,
      "chip": "ym2612"
    },
    {
      "channel": 5,
      "note": 78,
      "start": 72.6045,
      "duration": 0.0406,
      "velocity": 88,
      "chip": "ym2612"
    },
    {
      "channel": 1,
      "note": 51,
      "start": 72.6529,
      "duration": 0.0477,
      "velocity": 92,
      "chip": "ym2612"
    },
    {
      "channel": 5,
      "note": 75,
      "start": 72.6573,
      "duration": 0.045,
      "velocity": 88,
      "chip": "ym2612"
    },
    {
      "channel": 1,
      "note": 49,
      "start": 72.7101,
      "duration": 0.0499,
      "velocity": 92,
      "chip": "ym2612"
    },
    {
      "channel": 5,
      "note": 73,
      "start": 72.7154,
      "duration": 0.0458,
      "velocity": 88,
      "chip": "ym2612"
    },
    {
      "channel": 1,
      "note": 51,
      "start": 72.7692,
      "duration": 0.0445,
      "velocity": 92,
      "chip": "ym2612"
    },
    {
      "channel": 5,
      "note": 72,
      "start": 72.7739,
      "duration": 0.0421,
      "velocity": 88,
      "chip": "ym2612"
    },
    {
      "channel": 0,
      "note": 54,
      "start": 72.8226,
      "duration": 0.0529,
      "velocity": 109,
      "chip": "ym2612"
    },
    {
      "channel": 1,
      "note": 44,
      "start": 72.8269,
      "duration": 0.05,
      "velocity": 92,
      "chip": "ym2612"
    },
    {
      "channel": 4,
      "note": 66,
      "start": 72.8312,
      "duration": 0.0478,
      "velocity": 127,
      "chip": "ym2612"
    },
    {
      "channel": 5,
      "note": 73,
      "start": 72.8359,
      "duration": 0.0446,
      "velocity": 88,
      "chip": "ym2612"
    },
    {
      "channel": 0,
      "note": 56,
      "start": 72.8871,
      "duration": 0.0534,
      "velocity": 109,
      "chip": "ym2612"
    },
    {
      "channel": 1,
      "note": 51,
      "start": 72.8919,
      "duration": 0.05,
      "velocity": 92,
      "chip": "ym2612"
    },
    {
      "channel": 4,
      "note": 66,
      "start": 72.8976,
      "duration": 0.0456,
      "velocity": 127,
      "chip": "ym2612"
    },
    {
      "channel": 5,
      "note": 75,
      "start": 72.9016,
      "duration": 0.0418,
      "velocity": 88,
      "chip": "ym2612"
    },
    {
      "channel": 0,
      "note": 59,
      "start": 72.9507,
      "duration": 0.0516,
      "velocity": 109,
      "chip": "ym2612"
    },
    {
      "channel": 1,
      "note": 56,
      "start": 72.9553,
      "duration": 0.048,
      "velocity": 92,
      "chip": "ym2612"
    },
    {
      "channel": 5,
      "note": 80,
      "start": 72.9618,
      "duration": 0.0439,
      "velocity": 88,
      "chip": "ym2612"
    },
    {
      "channel": 0,
      "note": 60,
      "start": 73.0125,
      "duration": 0.0822,
      "velocity": 109,
      "chip": "ym2612"
    },
    {
      "channel": 1,
      "note": 44,
      "start": 73.0167,
      "duration": 0.0794,
      "velocity": 92,
      "chip": "ym2612"
    },
    {
      "channel": 4,
      "note": 66,
      "start": 73.0213,
      "duration": 0.0764,
      "velocity": 127,
      "chip": "ym2612"
    },
    {
      "channel": 5,
      "note": 75,
      "start": 73.0255,
      "duration": 0.074,
      "velocity": 88,
      "chip": "ym2612"
    },
    {
      "channel": 0,
      "note": 63,
      "start": 73.1097,
      "duration": 0.0534,
      "velocity": 109,
      "chip": "ym2612"
    },
    {
      "channel": 1,
      "note": 51,
      "start": 73.115,
      "duration": 0.0491,
      "velocity": 92,
      "chip": "ym2612"
    },
    {
      "channel": 4,
      "note": 66,
      "start": 73.1204,
      "duration": 0.0448,
      "velocity": 127,
      "chip": "ym2612"
    },
    {
      "channel": 5,
      "note": 78,
      "start": 73.1258,
      "duration": 0.0397,
      "velocity": 88,
      "chip": "ym2612"
    },
    {
      "channel": 0,
      "note": 66,
      "start": 73.173,
      "duration": 0.0452,
      "velocity": 109,
      "chip": "ym2612"
    },
    {
      "channel": 1,
      "note": 54,
      "start": 73.1774,
      "duration": 0.0452,
      "velocity": 92,
      "chip": "ym2612"
    },
    {
      "channel": 5,
      "note": 80,
      "start": 73.182,
      "duration": 0.0429,
      "velocity": 88,
      "chip": "ym2612"
    },
    {
      "channel": 0,
      "note": 67,
      "start": 73.2318,
      "duration": 0.114,
      "velocity": 109,
      "chip": "ym2612"
    },
    {
      "channel": 1,
      "note": 49,
      "start": 73.2361,
      "duration": 0.1111,
      "velocity": 92,
      "chip": "ym2612"
    },
    {
      "channel": 4,
      "note": 66,
      "start": 73.2405,
      "duration": 0.1083,
      "velocity": 127,
      "chip": "ym2612"
    },
    {
      "channel": 5,
      "note": 82,
      "start": 73.2451,
      "duration": 0.1054,
      "velocity": 88,
      "chip": "ym2612"
    },
    {
      "channel": 0,
      "note": 68,
      "start": 73.3606,
      "duration": 0.1284,
      "velocity": 109,
      "chip": "ym2612"
    },
    {
      "channel": 1,
      "note": 51,
      "start": 73.3659,
      "duration": 0.125,
      "velocity": 92,
      "chip": "ym2612"
    },
    {
      "channel": 4,
      "note": 66,
      "start": 73.3715,
      "duration": 0.1209,
      "velocity": 127,
      "chip": "ym2612"
    },
    {
      "channel": 5,
      "note": 80,
      "start": 73.3768,
      "duration": 0.1165,
      "velocity": 88,
      "chip": "ym2612"
    },
    {
      "channel": 0,
      "note": 71,
      "start": 73.5039,
      "duration": 0.0496,
      "velocity": 109,
      "chip": "ym2612"
    },
    {
      "channel": 1,
      "note": 44,
      "start": 73.5092,
      "duration": 0.0453,
      "velocity": 92,
      "chip": "ym2612"
    },
    {
      "channel": 5,
      "note": 84,
      "start": 73.515,
      "duration": 0.0422,
      "velocity": 88,
      "chip": "ym2612"
    },
    {
      "channel": 0,
      "note": 72,
      "start": 73.5639,
      "duration": 0.0545,
      "velocity": 109,
      "chip": "ym2612"
    },
    {
      "channel": 1,
      "note": 51,
      "start": 73.5682,
      "duration": 0.0519,
      "velocity": 92,
      "chip": "ym2612"
    },
    {
      "channel": 4,
      "note": 69,
      "start": 73.5731,
      "duration": 0.0482,
      "velocity": 127,
      "chip": "ym2612"
    },
    {
      "channel": 5,
      "note": 82,
      "start": 73.5786,
      "duration": 0.0441,
      "velocity": 88,
      "chip": "ym2612"
    },
    {
      "channel": 0,
      "note": 75,
      "start": 73.629,
      "duration": 0.0781,
      "velocity": 109,
      "chip": "ym2612"
    },
    {
      "channel": 1,
      "note": 56,
      "start": 73.6334,
      "duration": 0.0751,
      "velocity": 92,
      "chip": "ym2612"
    },
    {
      "channel": 4,
      "note": 69,
      "start": 73.6378,
      "duration": 0.0722,
      "velocity": 127,
      "chip": "ym2612"
    },
    {
      "channel": 5,
      "note": 80,
      "start": 73.642,
      "duration": 0.0699,
      "velocity": 88,
      "chip": "ym2612"
    },
    {
      "channel": 0,
      "note": 78,
      "start": 73.722,
      "duration": 0.0529,
      "velocity": 109,
      "chip": "ym2612"
    },
    {
      "channel": 1,
      "note": 44,
      "start": 73.7272,
      "duration": 0.0491,
      "velocity": 92,
      "chip": "ym2612"
    },
    {
      "channel": 4,
      "note": 69,
      "start": 73.7328,
      "duration": 0.0446,
      "velocity": 127,
      "chip": "ym2612"
    },
    {
      "channel": 5,
      "note": 75,
      "start": 73.7381,
      "duration": 0.0406,
      "velocity": 88,
      "chip": "ym2612"
    },
    {
      "channel": 0,
      "note": 79,
      "start": 73.7849,
      "duration": 0.0496,
      "velocity": 109,
      "chip": "ym2612"
    },
    {
      "channel": 1,
      "note": 54,
      "start": 73.7891,
      "duration": 0.05,
      "velocity": 92,
      "chip": "ym2612"
    },
    {
      "channel": 4,
      "note": 69,
      "start": 73.7935,
      "duration": 0.0413,
      "velocity": 127,
      "chip": "ym2612"
    },
    {
      "channel": 5,
      "note": 78,
      "start": 73.7979,
      "duration": 0.0437,
      "velocity": 88,
      "chip": "ym2612"
    },
    {
      "channel": 0,
      "note": 80,
      "start": 73.8487,
      "duration": 0.0476,
      "velocity": 109,
      "chip": "ym2612"
    },
    {
      "channel": 1,
      "note": 51,
      "start": 73.853,
      "duration": 0.0446,
      "velocity": 92,
      "chip": "ym2612"
    },
    {
      "channel": 4,
      "note": 69,
      "start": 73.8578,
      "duration": 0.0412,
      "velocity": 127,
      "chip": "ym2612"
    },
    {
      "channel": 5,
      "note": 80,
      "start": 73.8623,
      "duration": 0.0382,
      "velocity": 88,
      "chip": "ym2612"
    },
    {
      "channel": 0,
      "note": 83,
      "start": 73.9073,
      "duration": 0.0518,
      "velocity": 109,
      "chip": "ym2612"
    },
    {
      "channel": 1,
      "note": 49,
      "start": 73.912,
      "duration": 0.0481,
      "velocity": 92,
      "chip": "ym2612"
    },
    {
      "channel": 4,
      "note": 69,
      "start": 73.9168,
      "duration": 0.0446,
      "velocity": 127,
      "chip": "ym2612"
    },
    {
      "channel": 5,
      "note": 73,
      "start": 73.9221,
      "duration": 0.0408,
      "velocity": 88,
      "chip": "ym2612"
    },
    {
      "channel": 0,
      "note": 84,
      "start": 73.9696,
      "duration": 0.0484,
      "velocity": 109,
      "chip": "ym2612"
    },
    {
      "channel": 1,
      "note": 51,
      "start": 73.9739,
      "duration": 0.0443,
      "velocity": 92,
      "chip": "ym2612"
    },
    {
      "channel": 4,
      "note": 69,
      "start": 73.9784,
      "duration": 0.0417,
      "velocity": 127,
      "chip": "ym2612"
    },
    {
      "channel": 5,
      "note": 75,
      "start": 73.9826,
      "duration": 0.0378,
      "velocity": 88,
      "chip": "ym2612"
    },
    {
      "channel": 1,
      "note": 44,
      "start": 74.0276,
      "duration": 0.0518,
      "velocity": 92,
      "chip": "ym2612"
    },
    {
      "channel": 2,
      "note": 63,
      "start": 74.0317,
      "duration": 0.9061,
      "velocity": 108,
      "chip": "ym2612"
    },
    {
      "channel": 5,
      "note": 84,
      "start": 74.037,
      "duration": 0.0435,
      "velocity": 88,
      "chip": "ym2612"
    },
    {
      "channel": 3,
      "note": 68,
      "start": 74.0431,
      "duration": 0.9016,
      "velocity": 108,
      "chip": "ym2612"
    },
    {
      "channel": 1,
      "note": 51,
      "start": 74.0885,
      "duration": 0.0441,
      "velocity": 92,
      "chip": "ym2612"
    },
    {
      "channel": 5,
      "note": 82,
      "start": 74.093,
      "duration": 0.0409,
      "velocity": 88,
      "chip": "ym2612"
    },
    {
      "channel": 1,
      "note": 56,
      "start": 74.142,
      "duration": 0.0464,
      "velocity": 92,
      "chip": "ym2612"
    },
    {
      "channel": 5,
      "note": 80,
      "start": 74.1478,
      "duration": 0.042,
      "velocity": 88,
      "chip": "ym2612"
    },
    {
      "channel": 1,
      "note": 44,
      "start": 74.197,
      "duration": 0.0925,
      "velocity": 92,
      "chip": "ym2612"
    },
    {
      "channel": 5,
      "note": 75,
      "start": 74.2016,
      "duration": 0.0895,
      "velocity": 88,
      "chip": "ym2612"
    },
    {
      "channel": 1,
      "note": 51,
      "start": 74.3043,
      "duration": 0.0451,
      "velocity": 92,
      "chip": "ym2612"
    },
    {
      "channel": 5,
      "note": 78,
      "start": 74.3098,
      "duration": 0.0408,
      "velocity": 88,
      "chip": "ym2612"
    },
    {
      "channel": 1,
      "note": 54,
      "start": 74.3582,
      "duration": 0.044,
      "velocity": 92,
      "chip": "ym2612"
    },
    {
      "channel": 5,
      "note": 80,
      "start": 74.3625,
      "duration": 0.041,
      "velocity": 88,
      "chip": "ym2612"
    },
    {
      "channel": 1,
      "note": 49,
      "start": 74.4115,
      "duration": 0.0482,
      "velocity": 92,
      "chip": "ym2612"
    },
    {
      "channel": 5,
      "note": 73,
      "start": 74.4178,
      "duration": 0.044,
      "velocity": 88,
      "chip": "ym2612"
    },
    {
      "channel": 1,
      "note": 51,
      "start": 74.469,
      "duration": 0.0489,
      "velocity": 92,
      "chip": "ym2612"
    },
    {
      "channel": 5,
      "note": 75,
      "start": 74.4734,
      "duration": 0.0473,
      "velocity": 88,
      "chip": "ym2612"
    },
    {
      "channel": 1,
      "note": 44,
      "start": 74.5279,
      "duration": 0.0452,
      "velocity": 92,
      "chip": "ym2612"
    },
    {
      "channel": 5,
      "note": 78,
      "start": 74.5324,
      "duration": 0.0419,
      "velocity": 88,
      "chip": "ym2612"
    },
    {
      "channel": 1,
      "note": 51,
      "start": 74.5817,
      "duration": 0.0453,
      "velocity": 92,
      "chip": "ym2612"
    },
    {
      "channel": 5,
      "note": 80,
      "start": 74.5863,
      "duration": 0.0421,
      "velocity": 88,
      "chip": "ym2612"
    },
    {
      "channel": 1,
      "note": 56,
      "start": 74.6365,
      "duration": 0.0499,
      "velocity": 92,
      "chip": "ym2612"
    },
    {
      "channel": 5,
      "note": 73,
      "start": 74.6429,
      "duration": 0.0448,
      "velocity": 88,
      "chip": "ym2612"
    },
    {
      "channel": 1,
      "note": 44,
      "start": 74.6956,
      "duration": 0.0515,
      "velocity": 92,
      "chip": "ym2612"
    },
    {
      "channel": 5,
      "note": 75,
      "start": 74.701,
      "duration": 0.0473,
      "velocity": 88,
      "chip": "ym2612"
    },
    {
      "channel": 1,
      "note": 54,
      "start": 74.7559,
      "duration": 0.0444,
      "velocity": 92,
      "chip": "ym2612"
    },
    {
      "channel": 5,
      "note": 78,
      "start": 74.7607,
      "duration": 0.0408,
      "velocity": 88,
      "chip": "ym2612"
    },
    {
      "channel": 1,
      "note": 51,
      "start": 74.8091,
      "duration": 0.0476,
      "velocity": 92,
      "chip": "ym2612"
    },
    {
      "channel": 5,
      "note": 75,
      "start": 74.8134,
      "duration": 0.0445,
      "velocity": 88,
      "chip": "ym2612"
    },
    {
      "channel": 1,
      "note": 49,
      "start": 74.8658,
      "duration": 0.05,
      "velocity": 92,
      "chip": "ym2612"
    },
    {
      "channel": 5,
      "note": 73,
      "start": 74.8712,
      "duration": 0.0458,
      "velocity": 88,
      "chip": "ym2612"
    },
    {
      "channel": 1,
      "note": 51,
      "start": 74.9246,
      "duration": 0.0439,
      "velocity": 92,
      "chip": "ym2612"
    },
    {
      "channel": 5,
      "note": 72,
      "start": 74.9289,
      "duration": 0.0412,
      "velocity": 88,
      "chip": "ym2612"
    },
    {
      "channel": 0,
      "note": 54,
      "start": 74.9773,
      "duration": 0.0556,
      "velocity": 109,
      "chip": "ym2612"
    },
    {
      "channel": 1,
      "note": 44,
      "start": 74.9823,
      "duration": 0.0516,
      "velocity": 92,
      "chip": "ym2612"
    },
    {
      "channel": 4,
      "note": 66,
      "start": 74.9869,
      "duration": 0.049,
      "velocity": 127,
      "chip": "ym2612"
    },
    {
      "channel": 5,
      "note": 73,
      "start": 74.993,
      "duration": 0.0449,
      "velocity": 88,
      "chip": "ym2612"
    },
    {
      "channel": 0,
      "note": 56,
      "start": 75.0442,
      "duration": 0.0514,
      "velocity": 109,
      "chip": "ym2612"
    },
    {
      "channel": 1,
      "note": 51,
      "start": 75.0485,
      "duration": 0.0517,
      "velocity": 92,
      "chip": "ym2612"
    },
    {
      "channel": 4,
      "note": 66,
      "start": 75.0538,
      "duration": 0.0427,
      "velocity": 127,
      "chip": "ym2612"
    },
    {
      "channel": 5,
      "note": 75,
      "start": 75.0585,
      "duration": 0.0429,
      "velocity": 88,
      "chip": "ym2612"
    },
    {
      "channel": 0,
      "note": 59,
      "start": 75.1085,
      "duration": 0.0465,
      "velocity": 109,
      "chip": "ym2612"
    },
    {
      "channel": 1,
      "note": 56,
      "start": 75.1127,
      "duration": 0.0436,
      "velocity": 92,
      "chip": "ym2612"
    },
    {
      "channel": 5,
      "note": 80,
      "start": 75.1176,
      "duration": 0.041,
      "velocity": 88,
      "chip": "ym2612"
    },
    {
      "channel": 0,
      "note": 60,
      "start": 75.166,
      "duration": 0.0763,
      "velocity": 109,
      "chip": "ym2612"
    },
    {
      "channel": 1,
      "note": 44,
      "start": 75.1707,
      "duration": 0.0731,
      "velocity": 92,
      "chip": "ym2612"
    },
    {
      "channel": 4,
      "note": 66,
      "start": 75.175,
      "duration": 0.0703,
      "velocity": 127,
      "chip": "ym2612"
    },
    {
      "channel": 5,
      "note": 75,
      "start": 75.1793,
      "duration": 0.0679,
      "velocity": 88,
      "chip": "ym2612"
    },
    {
      "channel": 0,
      "note": 63,
      "start": 75.2571,
      "duration": 0.0535,
      "velocity": 109,
      "chip": "ym2612"
    },
    {
      "channel": 1,
      "note": 51,
      "start": 75.2624,
      "duration": 0.0497,
      "velocity": 92,
      "chip": "ym2612"
    },
    {
      "channel": 4,
      "note": 66,
      "start": 75.268,
      "duration": 0.0453,
      "velocity": 127,
      "chip": "ym2612"
    },
    {
      "channel": 5,
      "note": 78,
      "start": 75.2733,
      "duration": 0.0402,
      "velocity": 88,
      "chip": "ym2612"
    },
    {
      "channel": 0,
      "note": 66,
      "start": 75.3209,
      "duration": 0.0487,
      "velocity": 109,
      "chip": "ym2612"
    },
    {
      "channel": 1,
      "note": 54,
      "start": 75.3256,
      "duration": 0.0452,
      "velocity": 92,
      "chip": "ym2612"
    },
    {
      "channel": 5,
      "note": 80,
      "start": 75.3303,
      "duration": 0.0427,
      "velocity": 88,
      "chip": "ym2612"
    },
    {
      "channel": 0,
      "note": 67,
      "start": 75.3807,
      "duration": 0.1141,
      "velocity": 109,
      "chip": "ym2612"
    },
    {
      "channel": 1,
      "note": 49,
      "start": 75.3849,
      "duration": 0.1112,
      "velocity": 92,
      "chip": "ym2612"
    },
    {
      "channel": 4,
      "note": 66,
      "start": 75.3892,
      "duration": 0.1085,
      "velocity": 127,
      "chip": "ym2612"
    },
    {
      "channel": 5,
      "note": 82,
      "start": 75.3934,
      "duration": 0.106,
      "velocity": 88,
      "chip": "ym2612"
    },
    {
      "channel": 0,
      "note": 68,
      "start": 75.5097,
      "duration": 0.1283,
      "velocity": 109,
      "chip": "ym2612"
    },
    {
      "channel": 1,
      "note": 51,
      "start": 75.515,
      "duration": 0.1249,
      "velocity": 92,
      "chip": "ym2612"
    },
    {
      "channel": 4,
      "note": 66,
      "start": 75.5204,
      "duration": 0.1209,
      "velocity": 127,
      "chip": "ym2612"
    },
    {
      "channel": 5,
      "note": 80,
      "start": 75.5257,
      "duration": 0.1165,
      "velocity": 88,
      "chip": "ym2612"
    },
    {
      "channel": 0,
      "note": 71,
      "start": 75.6528,
      "duration": 0.0499,
      "velocity": 109,
      "chip": "ym2612"
    },
    {
      "channel": 1,
      "note": 44,
      "start": 75.6581,
      "duration": 0.0489,
      "velocity": 92,
      "chip": "ym2612"
    },
    {
      "channel": 5,
      "note": 84,
      "start": 75.6639,
      "duration": 0.0454,
      "velocity": 88,
      "chip": "ym2612"
    },
    {
      "channel": 0,
      "note": 72,
      "start": 75.7167,
      "duration": 0.049,
      "velocity": 109,
      "chip": "ym2612"
    },
    {
      "channel": 1,
      "note": 51,
      "start": 75.721,
      "duration": 0.0458,
      "velocity": 92,
      "chip": "ym2612"
    },
    {
      "channel": 4,
      "note": 69,
      "start": 75.7253,
      "duration": 0.0427,
      "velocity": 127,
      "chip": "ym2612"
    },
    {
      "channel": 5,
      "note": 82,
      "start": 75.7294,
      "duration": 0.04,
      "velocity": 88,
      "chip": "ym2612"
    },
    {
      "channel": 0,
      "note": 75,
      "start": 75.7761,
      "duration": 0.0711,
      "velocity": 109,
      "chip": "ym2612"
    },
    {
      "channel": 1,
      "note": 56,
      "start": 75.7803,
      "duration": 0.0683,
      "velocity": 92,
      "chip": "ym2612"
    },
    {
      "channel": 4,
      "note": 69,
      "start": 75.7848,
      "duration": 0.0653,
      "velocity": 127,
      "chip": "ym2612"
    },
    {
      "channel": 5,
      "note": 80,
      "start": 75.789,
      "duration": 0.063,
      "velocity": 88,
      "chip": "ym2612"
    },
    {
      "channel": 0,
      "note": 78,
      "start": 75.8622,
      "duration": 0.0522,
      "velocity": 109,
      "chip": "ym2612"
    },
    {
      "channel": 1,
      "note": 44,
      "start": 75.8674,
      "duration": 0.0479,
      "velocity": 92,
      "chip": "ym2612"
    },
    {
      "channel": 4,
      "note": 69,
      "start": 75.8729,
      "duration": 0.0437,
      "velocity": 127,
      "chip": "ym2612"
    },
    {
      "channel": 5,
      "note": 75,
      "start": 75.8782,
      "duration": 0.04,
      "velocity": 88,
      "chip": "ym2612"
    },
    {
      "channel": 0,
      "note": 79,
      "start": 75.9247,
      "duration": 0.0521,
      "velocity": 109,
      "chip": "ym2612"
    },
    {
      "channel": 1,
      "note": 54,
      "start": 75.9293,
      "duration": 0.049,
      "velocity": 92,
      "chip": "ym2612"
    },
    {
      "channel": 4,
      "note": 69,
      "start": 75.9337,
      "duration": 0.0459,
      "velocity": 127,
      "chip": "ym2612"
    },
    {
      "channel": 5,
      "note": 78,
      "start": 75.9382,
      "duration": 0.0428,
      "velocity": 88,
      "chip": "ym2612"
    },
    {
      "channel": 0,
      "note": 80,
      "start": 75.9875,
      "duration": 0.0486,
      "velocity": 109,
      "chip": "ym2612"
    },
    {
      "channel": 1,
      "note": 51,
      "start": 75.9921,
      "duration": 0.0452,
      "velocity": 92,
      "chip": "ym2612"
    },
    {
      "channel": 4,
      "note": 69,
      "start": 75.9964,
      "duration": 0.042,
      "velocity": 127,
      "chip": "ym2612"
    },
    {
      "channel": 5,
      "note": 80,
      "start": 76.001,
      "duration": 0.039,
      "velocity": 88,
      "chip": "ym2612"
    },
    {
      "channel": 0,
      "note": 83,
      "start": 76.0466,
      "duration": 0.0522,
      "velocity": 109,
      "chip": "ym2612"
    },
    {
      "channel": 1,
      "note": 49,
      "start": 76.0512,
      "duration": 0.0486,
      "velocity": 92,
      "chip": "ym2612"
    },
    {
      "channel": 4,
      "note": 69,
      "start": 76.0562,
      "duration": 0.0449,
      "velocity": 127,
      "chip": "ym2612"
    },
    {
      "channel": 5,
      "note": 73,
      "start": 76.0618,
      "duration": 0.0412,
      "velocity": 88,
      "chip": "ym2612"
    },
    {
      "channel": 0,
      "note": 84,
      "start": 76.11,
      "duration": 0.0478,
      "velocity": 109,
      "chip": "ym2612"
    },
    {
      "channel": 1,
      "note": 51,
      "start": 76.1142,
      "duration": 0.0469,
      "velocity": 92,
      "chip": "ym2612"
    },
    {
      "channel": 4,
      "note": 69,
      "start": 76.1185,
      "duration": 0.0398,
      "velocity": 127,
      "chip": "ym2612"
    },
    {
      "channel": 5,
      "note": 75,
      "start": 76.1228,
      "duration": 0.0395,
      "velocity": 88,
      "chip": "ym2612"
    },
    {
      "channel": 1,
      "note": 44,
      "start": 76.1697,
      "duration": 0.0447,
      "velocity": 92,
      "chip": "ym2612"
    },
    {
      "channel": 5,
      "note": 84,
      "start": 76.1744,
      "duration": 0.0412,
      "velocity": 88,
      "chip": "ym2612"
    },
    {
      "channel": 1,
      "note": 51,
      "start": 76.223,
      "duration": 0.0464,
      "velocity": 92,
      "chip": "ym2612"
    },
    {
      "channel": 5,
      "note": 82,
      "start": 76.2281,
      "duration": 0.0437,
      "velocity": 88,
      "chip": "ym2612"
    },
    {
      "channel": 1,
      "note": 56,
      "start": 76.2794,
      "duration": 0.0492,
      "velocity": 92,
      "chip": "ym2612"
    },
    {
      "channel": 4,
      "note": 72,
      "start": 76.2837,
      "duration": 0.0461,
      "velocity": 93,
      "chip": "ym2612"
    },
    {
      "channel": 5,
      "note": 80,
      "start": 76.2898,
      "duration": 0.041,
      "velocity": 88,
      "chip": "ym2612"
    },
    {
      "channel": 1,
      "note": 44,
      "start": 76.3382,
      "duration": 0.0869,
      "velocity": 92,
      "chip": "ym2612"
    },
    {
      "channel": 4,
      "note": 73,
      "start": 76.3429,
      "duration": 0.0837,
      "velocity": 93,
      "chip": "ym2612"
    },
    {
      "channel": 5,
      "note": 75,
      "start": 76.3471,
      "duration": 0.0809,
      "velocity": 88,
      "chip": "ym2612"
    },
    {
      "channel": 1,
      "note": 51,
      "start": 76.44,
      "duration": 0.0496,
      "velocity": 92,
      "chip": "ym2612"
    },
    {
      "channel": 4,
      "note": 72,
      "start": 76.4455,
      "duration": 0.0454,
      "velocity": 93,
      "chip": "ym2612"
    },
    {
      "channel": 5,
      "note": 78,
      "start": 76.4509,
      "duration": 0.041,
      "velocity": 88,
      "chip": "ym2612"
    },
    {
      "channel": 1,
      "note": 54,
      "start": 76.499,
      "duration": 0.0447,
      "velocity": 92,
      "chip": "ym2612"
    },
    {
      "channel": 4,
      "note": 66,
      "start": 76.5034,
      "duration": 0.0419,
      "velocity": 93,
      "chip": "ym2612"
    },
    {
      "channel": 5,
      "note": 80,
      "start": 76.5078,
      "duration": 0.0385,
      "velocity": 88,
      "chip": "ym2612"
    },
    {
      "channel": 1,
      "note": 49,
      "start": 76.5541,
      "duration": 0.1227,
      "velocity": 92,
      "chip": "ym2612"
    },
    {
      "channel": 4,
      "note": 63,
      "start": 76.5587,
      "duration": 0.1081,
      "velocity": 93,
      "chip": "ym2612"
    },
    {
      "channel": 5,
      "note": 73,
      "start": 76.5629,
      "duration": 0.1162,
      "velocity": 88,
      "chip": "ym2612"
    },
    {
      "channel": 1,
      "note": 51,
      "start": 76.6916,
      "duration": 0.1284,
      "velocity": 92,
      "chip": "ym2612"
    },
    {
      "channel": 4,
      "note": 72,
      "start": 76.697,
      "duration": 0.185,
      "velocity": 93,
      "chip": "ym2612"
    },
    {
      "channel": 5,
      "note": 75,
      "start": 76.7024,
      "duration": 0.1191,
      "velocity": 88,
      "chip": "ym2612"
    },
    {
      "channel": 1,
      "note": 44,
      "start": 76.8349,
      "duration": 0.0458,
      "velocity": 92,
      "chip": "ym2612"
    },
    {
      "channel": 5,
      "note": 78,
      "start": 76.8405,
      "duration": 0.0426,
      "velocity": 88,
      "chip": "ym2612"
    },
    {
      "channel": 1,
      "note": 51,
      "start": 76.8898,
      "duration": 0.0477,
      "velocity": 92,
      "chip": "ym2612"
    },
    {
      "channel": 4,
      "note": 73,
      "start": 76.8946,
      "duration": 0.1411,
      "velocity": 93,
      "chip": "ym2612"
    },
    {
      "channel": 5,
      "note": 80,
      "start": 76.8995,
      "duration": 0.0392,
      "velocity": 88,
      "chip": "ym2612"
    },
    {
      "channel": 1,
      "note": 56,
      "start": 76.946,
      "duration": 0.0881,
      "velocity": 92,
      "chip": "ym2612"
    },
    {
      "channel": 5,
      "note": 73,
      "start": 76.9504,
      "duration": 0.0866,
      "velocity": 88,
      "chip": "ym2612"
    },
    {
      "channel": 1,
      "note": 44,
      "start": 77.0489,
      "duration": 0.0498,
      "velocity": 92,
      "chip": "ym2612"
    },
    {
      "channel": 4,
      "note": 66,
      "start": 77.0543,
      "duration": 0.0456,
      "velocity": 93,
      "chip": "ym2612"
    },
    {
      "channel": 5,
      "note": 75,
      "start": 77.0598,
      "duration": 0.0415,
      "velocity": 88,
      "chip": "ym2612"
    },
    {
      "channel": 1,
      "note": 54,
      "start": 77.1086,
      "duration": 0.0487,
      "velocity": 92,
      "chip": "ym2612"
    },
    {
      "channel": 4,
      "note": 68,
      "start": 77.1132,
      "duration": 0.1003,
      "velocity": 93,
      "chip": "ym2612"
    },
    {
      "channel": 5,
      "note": 78,
      "start": 77.1189,
      "duration": 0.0396,
      "velocity": 88,
      "chip": "ym2612"
    },
    {
      "channel": 1,
      "note": 51,
      "start": 77.1658,
      "duration": 0.0466,
      "velocity": 92,
      "chip": "ym2612"
    },
    {
      "channel": 5,
      "note": 75,
      "start": 77.17,
      "duration": 0.0445,
      "velocity": 88,
      "chip": "ym2612"
    },
    {
      "channel": 1,
      "note": 49,
      "start": 77.2221,
      "duration": 0.0488,
      "velocity": 92,
      "chip": "ym2612"
    },
    {
      "channel": 4,
      "note": 68,
      "start": 77.2268,
      "duration": 0.1009,
      "velocity": 93,
      "chip": "ym2612"
    },
    {
      "channel": 5,
      "note": 73,
      "start": 77.2309,
      "duration": 0.0412,
      "velocity": 88,
      "chip": "ym2612"
    },
    {
      "channel": 1,
      "note": 51,
      "start": 77.2801,
      "duration": 0.0464,
      "velocity": 92,
      "chip": "ym2612"
    },
    {
      "channel": 5,
      "note": 72,
      "start": 77.285,
      "duration": 0.043,
      "velocity": 88,
      "chip": "ym2612"
    },
    {
      "channel": 1,
      "note": 44,
      "start": 77.3352,
      "duration": 0.0459,
      "velocity": 92,
      "chip": "ym2612"
    },
    {
      "channel": 5,
      "note": 73,
      "start": 77.3414,
      "duration": 0.0409,
      "velocity": 88,
      "chip": "ym2612"
    },
    {
      "channel": 1,
      "note": 51,
      "start": 77.3895,
      "duration": 0.0498,
      "velocity": 92,
      "chip": "ym2612"
    },
    {
      "channel": 5,
      "note": 75,
      "start": 77.3944,
      "duration": 0.0475,
      "velocity": 88,
      "chip": "ym2612"
    },
    {
      "channel": 0,
      "note": 61,
      "start": 77.4493,
      "duration": 0.0492,
      "velocity": 109,
      "chip": "ym2612"
    },
    {
      "channel": 1,
      "note": 56,
      "start": 77.4536,
      "duration": 0.0459,
      "velocity": 92,
      "chip": "ym2612"
    },
    {
      "channel": 3,
      "note": 61,
      "start": 77.4581,
      "duration": 0.0425,
      "velocity": 109,
      "chip": "ym2612"
    },
    {
      "channel": 5,
      "note": 80,
      "start": 77.4627,
      "duration": 0.0391,
      "velocity": 88,
      "chip": "ym2612"
    },
    {
      "channel": 0,
      "note": 63,
      "start": 77.5086,
      "duration": 0.0711,
      "velocity": 109,
      "chip": "ym2612"
    },
    {
      "channel": 1,
      "note": 44,
      "start": 77.5129,
      "duration": 0.0681,
      "velocity": 92,
      "chip": "ym2612"
    },
    {
      "channel": 3,
      "note": 63,
      "start": 77.5172,
      "duration": 0.0652,
      "velocity": 109,
      "chip": "ym2612"
    },
    {
      "channel": 5,
      "note": 75,
      "start": 77.5219,
      "duration": 0.0621,
      "velocity": 88,
      "chip": "ym2612"
    },
    {
      "channel": 0,
      "note": 61,
      "start": 77.5946,
      "duration": 0.0529,
      "velocity": 109,
      "chip": "ym2612"
    },
    {
      "channel": 1,
      "note": 51,
      "start": 77.5999,
      "duration": 0.0527,
      "velocity": 92,
      "chip": "ym2612"
    },
    {
      "channel": 3,
      "note": 61,
      "start": 77.6053,
      "duration": 0.043,
      "velocity": 109,
      "chip": "ym2612"
    },
    {
      "channel": 5,
      "note": 78,
      "start": 77.6108,
      "duration": 0.0438,
      "velocity": 88,
      "chip": "ym2612"
    },
    {
      "channel": 0,
      "note": 59,
      "start": 77.6614,
      "duration": 0.0485,
      "velocity": 109,
      "chip": "ym2612"
    },
    {
      "channel": 1,
      "note": 54,
      "start": 77.6661,
      "duration": 0.0449,
      "velocity": 92,
      "chip": "ym2612"
    },
    {
      "channel": 3,
      "note": 59,
      "start": 77.6706,
      "duration": 0.0416,
      "velocity": 109,
      "chip": "ym2612"
    },
    {
      "channel": 5,
      "note": 80,
      "start": 77.6747,
      "duration": 0.0389,
      "velocity": 88,
      "chip": "ym2612"
    },
    {
      "channel": 0,
      "note": 56,
      "start": 77.7205,
      "duration": 0.1099,
      "velocity": 109,
      "chip": "ym2612"
    },
    {
      "channel": 1,
      "note": 49,
      "start": 77.7246,
      "duration": 0.1072,
      "velocity": 92,
      "chip": "ym2612"
    },
    {
      "channel": 3,
      "note": 56,
      "start": 77.7289,
      "duration": 0.1043,
      "velocity": 109,
      "chip": "ym2612"
    },
    {
      "channel": 5,
      "note": 82,
      "start": 77.7335,
      "duration": 0.1011,
      "velocity": 88,
      "chip": "ym2612"
    },
    {
      "channel": 0,
      "note": 54,
      "start": 77.8452,
      "duration": 0.1925,
      "velocity": 109,
      "chip": "ym2612"
    },
    {
      "channel": 1,
      "note": 51,
      "start": 77.8505,
      "duration": 0.1232,
      "velocity": 92,
      "chip": "ym2612"
    },
    {
      "channel": 3,
      "note": 54,
      "start": 77.856,
      "duration": 0.184,
      "velocity": 109,
      "chip": "ym2612"
    },
    {
      "channel": 5,
      "note": 80,
      "start": 77.8614,
      "duration": 0.1139,
      "velocity": 88,
      "chip": "ym2612"
    },
    {
      "channel": 1,
      "note": 44,
      "start": 77.9887,
      "duration": 0.0501,
      "velocity": 92,
      "chip": "ym2612"
    },
    {
      "channel": 5,
      "note": 84,
      "start": 77.9942,
      "duration": 0.0469,
      "velocity": 88,
      "chip": "ym2612"
    },
    {
      "channel": 0,
      "note": 51,
      "start": 78.0474,
      "duration": 0.134,
      "velocity": 109,
      "chip": "ym2612"
    },
    {
      "channel": 1,
      "note": 51,
      "start": 78.0519,
      "duration": 0.0468,
      "velocity": 92,
      "chip": "ym2612"
    },
    {
      "channel": 3,
      "note": 51,
      "start": 78.0565,
      "duration": 0.1278,
      "velocity": 109,
      "chip": "ym2612"
    },
    {
      "channel": 5,
      "note": 82,
      "start": 78.0622,
      "duration": 0.0378,
      "velocity": 88,
      "chip": "ym2612"
    },
    {
      "channel": 1,
      "note": 56,
      "start": 78.1081,
      "duration": 0.0747,
      "velocity": 92,
      "chip": "ym2612"
    },
    {
      "channel": 5,
      "note": 80,
      "start": 78.1128,
      "duration": 0.0729,
      "velocity": 88,
      "chip": "ym2612"
    },
    {
      "channel": 0,
      "note": 56,
      "start": 78.1962,
      "duration": 0.0532,
      "velocity": 109,
      "chip": "ym2612"
    },
    {
      "channel": 1,
      "note": 44,
      "start": 78.2015,
      "duration": 0.052,
      "velocity": 92,
      "chip": "ym2612"
    },
    {
      "channel": 3,
      "note": 56,
      "start": 78.207,
      "duration": 0.0428,
      "velocity": 109,
      "chip": "ym2612"
    },
    {
      "channel": 5,
      "note": 75,
      "start": 78.2123,
      "duration": 0.0432,
      "velocity": 88,
      "chip": "ym2612"
    },
    {
      "channel": 0,
      "note": 56,
      "start": 78.2627,
      "duration": 0.2114,
      "velocity": 109,
      "chip": "ym2612"
    },
    {
      "channel": 1,
      "note": 54,
      "start": 78.2671,
      "duration": 0.0458,
      "velocity": 92,
      "chip": "ym2612"
    },
    {
      "channel": 3,
      "note": 56,
      "start": 78.2713,
      "duration": 0.2044,
      "velocity": 109,
      "chip": "ym2612"
    },
    {
      "channel": 5,
      "note": 78,
      "start": 78.2762,
      "duration": 0.0378,
      "velocity": 88,
      "chip": "ym2612"
    },
    {
      "channel": 1,
      "note": 51,
      "start": 78.3219,
      "duration": 0.0437,
      "velocity": 92,
      "chip": "ym2612"
    },
    {
      "channel": 5,
      "note": 80,
      "start": 78.3266,
      "duration": 0.0402,
      "velocity": 88,
      "chip": "ym2612"
    },
    {
      "channel": 1,
      "note": 49,
      "start": 78.3748,
      "duration": 0.0437,
      "velocity": 92,
      "chip": "ym2612"
    },
    {
      "channel": 5,
      "note": 73,
      "start": 78.3794,
      "duration": 0.0403,
      "velocity": 88,
      "chip": "ym2612"
    },
    {
      "channel": 1,
      "note": 51,
      "start": 78.4268,
      "duration": 0.0476,
      "velocity": 92,
      "chip": "ym2612"
    },
    {
      "channel": 5,
      "note": 75,
      "start": 78.4315,
      "duration": 0.0445,
      "velocity": 88,
      "chip": "ym2612"
    },
    {
      "channel": 1,
      "note": 44,
      "start": 78.4831,
      "duration": 0.0459,
      "velocity": 92,
      "chip": "ym2612"
    },
    {
      "channel": 5,
      "note": 84,
      "start": 78.4892,
      "duration": 0.0415,
      "velocity": 88,
      "chip": "ym2612"
    },
    {
      "channel": 1,
      "note": 51,
      "start": 78.5377,
      "duration": 0.0458,
      "velocity": 92,
      "chip": "ym2612"
    },
    {
      "channel": 5,
      "note": 82,
      "start": 78.5426,
      "duration": 0.0428,
      "velocity": 88,
      "chip": "ym2612"
    },
    {
      "channel": 1,
      "note": 56,
      "start": 78.5933,
      "duration": 0.0483,
      "velocity": 92,
      "chip": "ym2612"
    },
    {
      "channel": 4,
      "note": 72,
      "start": 78.5975,
      "duration": 0.0413,
      "velocity": 93,
      "chip": "ym2612"
    },
    {
      "channel": 5,
      "note": 80,
      "start": 78.6019,
      "duration": 0.0418,
      "velocity": 88,
      "chip": "ym2612"
    },
    {
      "channel": 1,
      "note": 44,
      "start": 78.6518,
      "duration": 0.0836,
      "velocity": 92,
      "chip": "ym2612"
    },
    {
      "channel": 4,
      "note": 73,
      "start": 78.6566,
      "duration": 0.0803,
      "velocity": 93,
      "chip": "ym2612"
    },
    {
      "channel": 5,
      "note": 75,
      "start": 78.6607,
      "duration": 0.0776,
      "velocity": 88,
      "chip": "ym2612"
    },
    {
      "channel": 1,
      "note": 51,
      "start": 78.7502,
      "duration": 0.05,
      "velocity": 92,
      "chip": "ym2612"
    },
    {
      "channel": 4,
      "note": 72,
      "start": 78.7558,
      "duration": 0.0457,
      "velocity": 93,
      "chip": "ym2612"
    },
    {
      "channel": 5,
      "note": 78,
      "start": 78.7611,
      "duration": 0.0418,
      "velocity": 88,
      "chip": "ym2612"
    },
    {
      "channel": 1,
      "note": 54,
      "start": 78.8106,
      "duration": 0.0464,
      "velocity": 92,
      "chip": "ym2612"
    },
    {
      "channel": 4,
      "note": 66,
      "start": 78.8152,
      "duration": 0.043,
      "velocity": 93,
      "chip": "ym2612"
    },
    {
      "channel": 5,
      "note": 80,
      "start": 78.8195,
      "duration": 0.0397,
      "velocity": 88,
      "chip": "ym2612"
    },
    {
      "channel": 1,
      "note": 49,
      "start": 78.867,
      "duration": 0.1232,
      "velocity": 92,
      "chip": "ym2612"
    },
    {
      "channel": 4,
      "note": 63,
      "start": 78.8717,
      "duration": 0.12,
      "velocity": 93,
      "chip": "ym2612"
    },
    {
      "channel": 5,
      "note": 73,
      "start": 78.8764,
      "duration": 0.1167,
      "velocity": 88,
      "chip": "ym2612"
    },
    {
      "channel": 1,
      "note": 51,
      "start": 79.0051,
      "duration": 0.1283,
      "velocity": 92,
      "chip": "ym2612"
    },
    {
      "channel": 4,
      "note": 72,
      "start": 79.0106,
      "duration": 0.1842,
      "velocity": 93,
      "chip": "ym2612"
    },
    {
      "channel": 5,
      "note": 75,
      "start": 79.0159,
      "duration": 0.1191,
      "velocity": 88,
      "chip": "ym2612"
    },
    {
      "channel": 1,
      "note": 44,
      "start": 79.1482,
      "duration": 0.0453,
      "velocity": 92,
      "chip": "ym2612"
    },
    {
      "channel": 5,
      "note": 78,
      "start": 79.1539,
      "duration": 0.042,
      "velocity": 88,
      "chip": "ym2612"
    },
    {
      "channel": 1,
      "note": 51,
      "start": 79.203,
      "duration": 0.051,
      "velocity": 92,
      "chip": "ym2612"
    },
    {
      "channel": 4,
      "note": 73,
      "start": 79.2072,
      "duration": 0.1422,
      "velocity": 93,
      "chip": "ym2612"
    },
    {
      "channel": 5,
      "note": 80,
      "start": 79.2123,
      "duration": 0.043,
      "velocity": 88,
      "chip": "ym2612"
    },
    {
      "channel": 1,
      "note": 56,
      "start": 79.2629,
      "duration": 0.085,
      "velocity": 92,
      "chip": "ym2612"
    },
    {
      "channel": 5,
      "note": 73,
      "start": 79.2676,
      "duration": 0.0832,
      "velocity": 88,
      "chip": "ym2612"
    },
    {
      "channel": 1,
      "note": 44,
      "start": 79.3628,
      "duration": 0.0493,
      "velocity": 92,
      "chip": "ym2612"
    },
    {
      "channel": 4,
      "note": 66,
      "start": 79.3682,
      "duration": 0.0451,
      "velocity": 93,
      "chip": "ym2612"
    },
    {
      "channel": 5,
      "note": 75,
      "start": 79.3735,
      "duration": 0.0407,
      "velocity": 88,
      "chip": "ym2612"
    },
    {
      "channel": 1,
      "note": 54,
      "start": 79.4217,
      "duration": 0.049,
      "velocity": 92,
      "chip": "ym2612"
    },
    {
      "channel": 4,
      "note": 68,
      "start": 79.4261,
      "duration": 0.1012,
      "velocity": 93,
      "chip": "ym2612"
    },
    {
      "channel": 5,
      "note": 78,
      "start": 79.4316,
      "duration": 0.0403,
      "velocity": 88,
      "chip": "ym2612"
    },
    {
      "channel": 1,
      "note": 51,
      "start": 79.4798,
      "duration": 0.0463,
      "velocity": 92,
      "chip": "ym2612"
    },
    {
      "channel": 5,
      "note": 75,
      "start": 79.4847,
      "duration": 0.0436,
      "velocity": 88,
      "chip": "ym2612"
    },
    {
      "channel": 1,
      "note": 49,
      "start": 79.5362,
      "duration": 0.0479,
      "velocity": 92,
      "chip": "ym2612"
    },
    {
      "channel": 4,
      "note": 68,
      "start": 79.5406,
      "duration": 0.0997,
      "velocity": 93,
      "chip": "ym2612"
    },
    {
      "channel": 5,
      "note": 73,
      "start": 79.5451,
      "duration": 0.0402,
      "velocity": 88,
      "chip": "ym2612"
    },
    {
      "channel": 1,
      "note": 51,
      "start": 79.5927,
      "duration": 0.0458,
      "velocity": 92,
      "chip": "ym2612"
    },
    {
      "channel": 5,
      "note": 72,
      "start": 79.597,
      "duration": 0.0435,
      "velocity": 88,
      "chip": "ym2612"
    },
    {
      "channel": 1,
      "note": 44,
      "start": 79.6482,
      "duration": 0.0492,
      "velocity": 92,
      "chip": "ym2612"
    },
    {
      "channel": 5,
      "note": 73,
      "start": 79.6541,
      "duration": 0.0443,
      "velocity": 88,
      "chip": "ym2612"
    },
    {
      "channel": 1,
      "note": 51,
      "start": 79.7065,
      "duration": 0.0464,
      "velocity": 92,
      "chip": "ym2612"
    },
    {
      "channel": 5,
      "note": 75,
      "start": 79.7118,
      "duration": 0.043,
      "velocity": 88,
      "chip": "ym2612"
    },
    {
      "channel": 0,
      "note": 61,
      "start": 79.762,
      "duration": 0.0492,
      "velocity": 109,
      "chip": "ym2612"
    },
    {
      "channel": 1,
      "note": 56,
      "start": 79.7662,
      "duration": 0.046,
      "velocity": 92,
      "chip": "ym2612"
    },
    {
      "channel": 3,
      "note": 61,
      "start": 79.7706,
      "duration": 0.0427,
      "velocity": 109,
      "chip": "ym2612"
    },
    {
      "channel": 5,
      "note": 80,
      "start": 79.7753,
      "duration": 0.0391,
      "velocity": 88,
      "chip": "ym2612"
    },
    {
      "channel": 0,
      "note": 63,
      "start": 79.8216,
      "duration": 0.071,
      "velocity": 109,
      "chip": "ym2612"
    },
    {
      "channel": 1,
      "note": 44,
      "start": 79.8262,
      "duration": 0.0678,
      "velocity": 92,
      "chip": "ym2612"
    },
    {
      "channel": 3,
      "note": 63,
      "start": 79.8305,
      "duration": 0.0651,
      "velocity": 109,
      "chip": "ym2612"
    },
    {
      "channel": 5,
      "note": 75,
      "start": 79.8348,
      "duration": 0.0623,
      "velocity": 88,
      "chip": "ym2612"
    },
    {
      "channel": 0,
      "note": 61,
      "start": 79.9075,
      "duration": 0.0563,
      "velocity": 109,
      "chip": "ym2612"
    },
    {
      "channel": 1,
      "note": 51,
      "start": 79.9129,
      "duration": 0.0519,
      "velocity": 92,
      "chip": "ym2612"
    },
    {
      "channel": 3,
      "note": 61,
      "start": 79.9183,
      "duration": 0.0481,
      "velocity": 109,
      "chip": "ym2612"
    },
    {
      "channel": 5,
      "note": 78,
      "start": 79.9236,
      "duration": 0.0438,
      "velocity": 88,
      "chip": "ym2612"
    },
    {
      "channel": 0,
      "note": 59,
      "start": 79.9744,
      "duration": 0.0482,
      "velocity": 109,
      "chip": "ym2612"
    },
    {
      "channel": 1,
      "note": 54,
      "start": 79.9787,
      "duration": 0.045,
      "velocity": 92,
      "chip": "ym2612"
    },
    {
      "channel": 3,
      "note": 59,
      "start": 79.9831,
      "duration": 0.0415,
      "velocity": 109,
      "chip": "ym2612"
    },
    {
      "channel": 5,
      "note": 80,
      "start": 79.9876,
      "duration": 0.0382,
      "velocity": 88,
      "chip": "ym2612"
    },
    {
      "channel": 0,
      "note": 56,
      "start": 80.033,
      "duration": 0.1117,
      "velocity": 109,
      "chip": "ym2612"
    },
    {
      "channel": 1,
      "note": 49,
      "start": 80.0373,
      "duration": 0.1088,
      "velocity": 92,
      "chip": "ym2612"
    },
    {
      "channel": 3,
      "note": 56,
      "start": 80.0415,
      "duration": 0.106,
      "velocity": 109,
      "chip": "ym2612"
    },
    {
      "channel": 5,
      "note": 82,
      "start": 80.0463,
      "duration": 0.1027,
      "velocity": 88,
      "chip": "ym2612"
    },
    {
      "channel": 0,
      "note": 54,
      "start": 80.1597,
      "duration": 0.1995,
      "velocity": 109,
      "chip": "ym2612"
    },
    {
      "channel": 1,
      "note": 51,
      "start": 80.1649,
      "duration": 0.1333,
      "velocity": 92,
      "chip": "ym2612"
    },
    {
      "channel": 3,
      "note": 54,
      "start": 80.1703,
      "duration": 0.1909,
      "velocity": 109,
      "chip": "ym2612"
    },
    {
      "channel": 5,
      "note": 80,
      "start": 80.1758,
      "duration": 0.1241,
      "velocity": 88,
      "chip": "ym2612"
    },
    {
      "channel": 1,
      "note": 44,
      "start": 80.3131,
      "duration": 0.0471,
      "velocity": 92,
      "chip": "ym2612"
    },
    {
      "channel": 5,
      "note": 84,
      "start": 80.3186,
      "duration": 0.0437,
      "velocity": 88,
      "chip": "ym2612"
    },
    {
      "channel": 0,
      "note": 51,
      "start": 80.3697,
      "duration": 0.1343,
      "velocity": 109,
      "chip": "ym2612"
    },
    {
      "channel": 1,
      "note": 51,
      "start": 80.3739,
      "duration": 0.0468,
      "velocity": 92,
      "chip": "ym2612"
    },
    {
      "channel": 3,
      "note": 51,
      "start": 80.3781,
      "duration": 0.1287,
      "velocity": 109,
      "chip": "ym2612"
    },
    {
      "channel": 5,
      "note": 82,
      "start": 80.3838,
      "duration": 0.0381,
      "velocity": 88,
      "chip": "ym2612"
    },
    {
      "channel": 1,
      "note": 56,
      "start": 80.43,
      "duration": 0.0754,
      "velocity": 92,
      "chip": "ym2612"
    },
    {
      "channel": 5,
      "note": 80,
      "start": 80.4353,
      "duration": 0.073,
      "velocity": 88,
      "chip": "ym2612"
    },
    {
      "channel": 0,
      "note": 56,
      "start": 80.519,
      "duration": 0.0529,
      "velocity": 109,
      "chip": "ym2612"
    },
    {
      "channel": 1,
      "note": 44,
      "start": 80.5243,
      "duration": 0.0523,
      "velocity": 92,
      "chip": "ym2612"
    },
    {
      "channel": 3,
      "note": 56,
      "start": 80.5297,
      "duration": 0.0431,
      "velocity": 109,
      "chip": "ym2612"
    },
    {
      "channel": 5,
      "note": 75,
      "start": 80.5351,
      "duration": 0.0435,
      "velocity": 88,
      "chip": "ym2612"
    },
    {
      "channel": 0,
      "note": 56,
      "start": 80.5859,
      "duration": 0.1541,
      "velocity": 109,
      "chip": "ym2612"
    },
    {
      "channel": 1,
      "note": 54,
      "start": 80.5902,
      "duration": 0.0454,
      "velocity": 92,
      "chip": "ym2612"
    },
    {
      "channel": 3,
      "note": 56,
      "start": 80.5945,
      "duration": 0.1459,
      "velocity": 109,
      "chip": "ym2612"
    },
    {
      "channel": 5,
      "note": 78,
      "start": 80.5995,
      "duration": 0.0372,
      "velocity": 88,
      "chip": "ym2612"
    },
    {
      "channel": 1,
      "note": 51,
      "start": 80.6449,
      "duration": 0.0429,
      "velocity": 92,
      "chip": "ym2612"
    },
    {
      "channel": 5,
      "note": 80,
      "start": 80.6497,
      "duration": 0.0392,
      "velocity": 88,
      "chip": "ym2612"
    },
    {
      "channel": 1,
      "note": 49,
      "start": 80.6967,
      "duration": 0.0465,
      "velocity": 92,
      "chip": "ym2612"
    },
    {
      "channel": 5,
      "note": 73,
      "start": 80.7011,
      "duration": 0.0432,
      "velocity": 88,
      "chip": "ym2612"
    },
    {
      "channel": 1,
      "note": 51,
      "start": 80.7518,
      "duration": 0.047,
      "velocity": 92,
      "chip": "ym2612"
    },
    {
      "channel": 5,
      "note": 75,
      "start": 80.7563,
      "duration": 0.0476,
      "velocity": 88,
      "chip": "ym2612"
    },
    {
      "channel": 0,
      "note": 70,
      "start": 80.809,
      "duration": 1.4692,
      "velocity": 109,
      "chip": "ym2612"
    },
    {
      "channel": 1,
      "note": 42,
      "start": 80.8135,
      "duration": 0.0489,
      "velocity": 92,
      "chip": "ym2612"
    },
    {
      "channel": 2,
      "note": 61,
      "start": 80.8184,
      "duration": 1.4654,
      "velocity": 108,
      "chip": "ym2612"
    },
    {
      "channel": 3,
      "note": 70,
      "start": 80.8225,
      "duration": 1.4559,
      "velocity": 111,
      "chip": "ym2612"
    },
    {
      "channel": 4,
      "note": 46,
      "start": 80.8268,
      "duration": 0.0133,
      "velocity": 122,
      "chip": "ym2612"
    },
    {
      "channel": 1,
      "note": 49,
      "start": 80.8715,
      "duration": 0.0427,
      "velocity": 92,
      "chip": "ym2612"
    },
    {
      "channel": 4,
      "note": 56,
      "start": 80.8759,
      "duration": 0.0394,
      "velocity": 122,
      "chip": "ym2612"
    },
    {
      "channel": 1,
      "note": 54,
      "start": 80.9218,
      "duration": 0.094,
      "velocity": 92,
      "chip": "ym2612"
    },
    {
      "channel": 1,
      "note": 42,
      "start": 81.0306,
      "duration": 0.0456,
      "velocity": 92,
      "chip": "ym2612"
    },
    {
      "channel": 4,
      "note": 56,
      "start": 81.0361,
      "duration": 0.0412,
      "velocity": 122,
      "chip": "ym2612"
    },
    {
      "channel": 1,
      "note": 49,
      "start": 81.0848,
      "duration": 0.0457,
      "velocity": 92,
      "chip": "ym2612"
    },
    {
      "channel": 4,
      "note": 53,
      "start": 81.0905,
      "duration": 0.0266,
      "velocity": 122,
      "chip": "ym2612"
    },
    {
      "channel": 1,
      "note": 52,
      "start": 81.1383,
      "duration": 0.0441,
      "velocity": 92,
      "chip": "ym2612"
    },
    {
      "channel": 1,
      "note": 47,
      "start": 81.1962,
      "duration": 0.0449,
      "velocity": 92,
      "chip": "ym2612"
    },
    {
      "channel": 4,
      "note": 49,
      "start": 81.2017,
      "duration": 0.02,
      "velocity": 122,
      "chip": "ym2612"
    },
    {
      "channel": 1,
      "note": 49,
      "start": 81.2488,
      "duration": 0.0407,
      "velocity": 92,
      "chip": "ym2612"
    },
    {
      "channel": 1,
      "note": 42,
      "start": 81.2978,
      "duration": 0.089,
      "velocity": 92,
      "chip": "ym2612"
    },
    {
      "channel": 1,
      "note": 49,
      "start": 81.4016,
      "duration": 0.0444,
      "velocity": 92,
      "chip": "ym2612"
    },
    {
      "channel": 1,
      "note": 54,
      "start": 81.4543,
      "duration": 0.044,
      "velocity": 92,
      "chip": "ym2612"
    },
    {
      "channel": 4,
      "note": 52,
      "start": 81.459,
      "duration": 0.0134,
      "velocity": 122,
      "chip": "ym2612"
    },
    {
      "channel": 1,
      "note": 42,
      "start": 81.5064,
      "duration": 0.0831,
      "velocity": 92,
      "chip": "ym2612"
    },
    {
      "channel": 4,
      "note": 50,
      "start": 81.5108,
      "duration": 0.0687,
      "velocity": 122,
      "chip": "ym2612"
    },
    {
      "channel": 1,
      "note": 52,
      "start": 81.6043,
      "duration": 0.0488,
      "velocity": 92,
      "chip": "ym2612"
    },
    {
      "channel": 4,
      "note": 52,
      "start": 81.6098,
      "duration": 0.0146,
      "velocity": 122,
      "chip": "ym2612"
    },
    {
      "channel": 1,
      "note": 49,
      "start": 81.6609,
      "duration": 0.0421,
      "velocity": 92,
      "chip": "ym2612"
    },
    {
      "channel": 4,
      "note": 50,
      "start": 81.6656,
      "duration": 0.0386,
      "velocity": 122,
      "chip": "ym2612"
    },
    {
      "channel": 1,
      "note": 47,
      "start": 81.7132,
      "duration": 0.0456,
      "velocity": 92,
      "chip": "ym2612"
    },
    {
      "channel": 4,
      "note": 52,
      "start": 81.7185,
      "duration": 0.0205,
      "velocity": 122,
      "chip": "ym2612"
    },
    {
      "channel": 1,
      "note": 49,
      "start": 81.7668,
      "duration": 0.044,
      "velocity": 92,
      "chip": "ym2612"
    },
    {
      "channel": 4,
      "note": 52,
      "start": 81.7713,
      "duration": 0.036,
      "velocity": 122,
      "chip": "ym2612"
    },
    {
      "channel": 1,
      "note": 42,
      "start": 81.8192,
      "duration": 0.0478,
      "velocity": 92,
      "chip": "ym2612"
    },
    {
      "channel": 4,
      "note": 46,
      "start": 81.825,
      "duration": 0.0197,
      "velocity": 122,
      "chip": "ym2612"
    },
    {
      "channel": 1,
      "note": 49,
      "start": 81.8757,
      "duration": 0.0432,
      "velocity": 92,
      "chip": "ym2612"
    },
    {
      "channel": 4,
      "note": 56,
      "start": 81.8801,
      "duration": 0.0356,
      "velocity": 122,
      "chip": "ym2612"
    },
    {
      "channel": 1,
      "note": 54,
      "start": 81.9268,
      "duration": 0.0838,
      "velocity": 92,
      "chip": "ym2612"
    },
    {
      "channel": 1,
      "note": 42,
      "start": 82.0254,
      "duration": 0.0482,
      "velocity": 92,
      "chip": "ym2612"
    },
    {
      "channel": 4,
      "note": 56,
      "start": 82.0309,
      "duration": 0.0366,
      "velocity": 122,
      "chip": "ym2612"
    },
    {
      "channel": 1,
      "note": 49,
      "start": 82.0824,
      "duration": 0.0454,
      "velocity": 92,
      "chip": "ym2612"
    },
    {
      "channel": 4,
      "note": 53,
      "start": 82.088,
      "duration": 0.027,
      "velocity": 122,
      "chip": "ym2612"
    },
    {
      "channel": 1,
      "note": 52,
      "start": 82.1354,
      "duration": 0.0398,
      "velocity": 92,
      "chip": "ym2612"
    },
    {
      "channel": 1,
      "note": 47,
      "start": 82.1832,
      "duration": 0.0444,
      "velocity": 92,
      "chip": "ym2612"
    },
    {
      "channel": 4,
      "note": 49,
      "start": 82.1878,
      "duration": 0.0202,
      "velocity": 122,
      "chip": "ym2612"
    },
    {
      "channel": 1,
      "note": 49,
      "start": 82.236,
      "duration": 0.0463,
      "velocity": 92,
      "chip": "ym2612"
    },
    {
      "channel": 0,
      "note": 71,
      "start": 82.2913,
      "duration": 0.5229,
      "velocity": 109,
      "chip": "ym2612"
    },
    {
      "channel": 1,
      "note": 42,
      "start": 82.296,
      "duration": 0.0878,
      "velocity": 92,
      "chip": "ym2612"
    },
    {
      "channel": 2,
      "note": 66,
      "start": 82.3007,
      "duration": 0.5157,
      "velocity": 108,
      "chip": "ym2612"
    },
    {
      "channel": 3,
      "note": 71,
      "start": 82.3049,
      "duration": 0.5131,
      "velocity": 111,
      "chip": "ym2612"
    },
    {
      "channel": 1,
      "note": 49,
      "start": 82.3985,
      "duration": 0.0416,
      "velocity": 92,
      "chip": "ym2612"
    },
    {
      "channel": 1,
      "note": 54,
      "start": 82.4488,
      "duration": 0.0482,
      "velocity": 92,
      "chip": "ym2612"
    },
    {
      "channel": 4,
      "note": 52,
      "start": 82.4541,
      "duration": 0.0168,
      "velocity": 122,
      "chip": "ym2612"
    },
    {
      "channel": 1,
      "note": 42,
      "start": 82.5052,
      "duration": 0.0898,
      "velocity": 92,
      "chip": "ym2612"
    },
    {
      "channel": 4,
      "note": 50,
      "start": 82.5098,
      "duration": 0.0752,
      "velocity": 122,
      "chip": "ym2612"
    },
    {
      "channel": 1,
      "note": 52,
      "start": 82.6098,
      "duration": 0.045,
      "velocity": 92,
      "chip": "ym2612"
    },
    {
      "channel": 4,
      "note": 52,
      "start": 82.6154,
      "duration": 0.0138,
      "velocity": 122,
      "chip": "ym2612"
    },
    {
      "channel": 1,
      "note": 49,
      "start": 82.6632,
      "duration": 0.0423,
      "velocity": 92,
      "chip": "ym2612"
    },
    {
      "channel": 4,
      "note": 50,
      "start": 82.6675,
      "duration": 0.0392,
      "velocity": 122,
      "chip": "ym2612"
    },
    {
      "channel": 1,
      "note": 47,
      "start": 82.714,
      "duration": 0.0488,
      "velocity": 92,
      "chip": "ym2612"
    },
    {
      "channel": 4,
      "note": 52,
      "start": 82.7187,
      "duration": 0.0244,
      "velocity": 122,
      "chip": "ym2612"
    },
    {
      "channel": 1,
      "note": 49,
      "start": 82.7707,
      "duration": 0.0446,
      "velocity": 92,
      "chip": "ym2612"
    },
    {
      "channel": 4,
      "note": 52,
      "start": 82.7753,
      "duration": 0.0356,
      "velocity": 122,
      "chip": "ym2612"
    },
    {
      "channel": 0,
      "note": 68,
      "start": 82.8259,
      "duration": 2.0148,
      "velocity": 109,
      "chip": "ym2612"
    },
    {
      "channel": 1,
      "note": 44,
      "start": 82.83,
      "duration": 0.0475,
      "velocity": 92,
      "chip": "ym2612"
    },
    {
      "channel": 2,
      "note": 63,
      "start": 82.8346,
      "duration": 2.0082,
      "velocity": 108,
      "chip": "ym2612"
    },
    {
      "channel": 3,
      "note": 68,
      "start": 82.8389,
      "duration": 2.0051,
      "velocity": 111,
      "chip": "ym2612"
    },
    {
      "channel": 4,
      "note": 48,
      "start": 82.8436,
      "duration": 0.0143,
      "velocity": 122,
      "chip": "ym2612"
    },
    {
      "channel": 1,
      "note": 51,
      "start": 82.8867,
      "duration": 0.0487,
      "velocity": 92,
      "chip": "ym2612"
    },
    {
      "channel": 4,
      "note": 60,
      "start": 82.8921,
      "duration": 0.0402,
      "velocity": 122,
      "chip": "ym2612"
    },
    {
      "channel": 1,
      "note": 56,
      "start": 82.9435,
      "duration": 0.09,
      "velocity": 92,
      "chip": "ym2612"
    },
    {
      "channel": 1,
      "note": 44,
      "start": 83.0483,
      "duration": 0.0461,
      "velocity": 92,
      "chip": "ym2612"
    },
    {
      "channel": 4,
      "note": 60,
      "start": 83.0537,
      "duration": 0.0343,
      "velocity": 122,
      "chip": "ym2612"
    },
    {
      "channel": 1,
      "note": 51,
      "start": 83.1032,
      "duration": 0.0444,
      "velocity": 92,
      "chip": "ym2612"
    },
    {
      "channel": 4,
      "note": 57,
      "start": 83.1079,
      "duration": 0.0297,
      "velocity": 122,
      "chip": "ym2612"
    },
    {
      "channel": 1,
      "note": 54,
      "start": 83.156,
      "duration": 0.0442,
      "velocity": 92,
      "chip": "ym2612"
    },
    {
      "channel": 1,
      "note": 49,
      "start": 83.2121,
      "duration": 0.0461,
      "velocity": 92,
      "chip": "ym2612"
    },
    {
      "channel": 4,
      "note": 53,
      "start": 83.2177,
      "duration": 0.0212,
      "velocity": 122,
      "chip": "ym2612"
    },
    {
      "channel": 1,
      "note": 51,
      "start": 83.2675,
      "duration": 0.0425,
      "velocity": 92,
      "chip": "ym2612"
    },
    {
      "channel": 1,
      "note": 44,
      "start": 83.3185,
      "duration": 0.0977,
      "velocity": 92,
      "chip": "ym2612"
    },
    {
      "channel": 1,
      "note": 51,
      "start": 83.4311,
      "duration": 0.0422,
      "velocity": 92,
      "chip": "ym2612"
    },
    {
      "channel": 1,
      "note": 56,
      "start": 83.4818,
      "duration": 0.0434,
      "velocity": 92,
      "chip": "ym2612"
    },
    {
      "channel": 4,
      "note": 54,
      "start": 83.4863,
      "duration": 0.0161,
      "velocity": 122,
      "chip": "ym2612"
    },
    {
      "channel": 1,
      "note": 44,
      "start": 83.5338,
      "duration": 0.0822,
      "velocity": 92,
      "chip": "ym2612"
    },
    {
      "channel": 4,
      "note": 51,
      "start": 83.5381,
      "duration": 0.0677,
      "velocity": 122,
      "chip": "ym2612"
    },
    {
      "channel": 1,
      "note": 54,
      "start": 83.6307,
      "duration": 0.0493,
      "velocity": 92,
      "chip": "ym2612"
    },
    {
      "channel": 4,
      "note": 54,
      "start": 83.6363,
      "duration": 0.0143,
      "velocity": 122,
      "chip": "ym2612"
    },
    {
      "channel": 1,
      "note": 51,
      "start": 83.6883,
      "duration": 0.0427,
      "velocity": 92,
      "chip": "ym2612"
    },
    {
      "channel": 4,
      "note": 51,
      "start": 83.6926,
      "duration": 0.0396,
      "velocity": 122,
      "chip": "ym2612"
    },
    {
      "channel": 1,
      "note": 49,
      "start": 83.7401,
      "duration": 0.0454,
      "velocity": 92,
      "chip": "ym2612"
    },
    {
      "channel": 4,
      "note": 54,
      "start": 83.7456,
      "duration": 0.0205,
      "velocity": 122,
      "chip": "ym2612"
    },
    {
      "channel": 1,
      "note": 51,
      "start": 83.7939,
      "duration": 0.0471,
      "velocity": 92,
      "chip": "ym2612"
    },
    {
      "channel": 4,
      "note": 56,
      "start": 83.7983,
      "duration": 0.0396,
      "velocity": 122,
      "chip": "ym2612"
    },
    {
      "channel": 1,
      "note": 44,
      "start": 83.8502,
      "duration": 0.0437,
      "velocity": 92,
      "chip": "ym2612"
    },
    {
      "channel": 4,
      "note": 44,
      "start": 83.8546,
      "duration": 0.0169,
      "velocity": 122,
      "chip": "ym2612"
    },
    {
      "channel": 1,
      "note": 51,
      "start": 83.9024,
      "duration": 0.045,
      "velocity": 92,
      "chip": "ym2612"
    },
    {
      "channel": 4,
      "note": 60,
      "start": 83.907,
      "duration": 0.0376,
      "velocity": 122,
      "chip": "ym2612"
    },
    {
      "channel": 1,
      "note": 56,
      "start": 83.9563,
      "duration": 0.0828,
      "velocity": 92,
      "chip": "ym2612"
    },
    {
      "channel": 1,
      "note": 44,
      "start": 84.0539,
      "duration": 0.0491,
      "velocity": 92,
      "chip": "ym2612"
    },
    {
      "channel": 4,
      "note": 60,
      "start": 84.0593,
      "duration": 0.0371,
      "velocity": 122,
      "chip": "ym2612"
    },
    {
      "channel": 1,
      "note": 51,
      "start": 84.1114,
      "duration": 0.0445,
      "velocity": 92,
      "chip": "ym2612"
    },
    {
      "channel": 4,
      "note": 57,
      "start": 84.1157,
      "duration": 0.0275,
      "velocity": 122,
      "chip": "ym2612"
    },
    {
      "channel": 1,
      "note": 54,
      "start": 84.1647,
      "duration": 0.0405,
      "velocity": 92,
      "chip": "ym2612"
    },
    {
      "channel": 1,
      "note": 49,
      "start": 84.2141,
      "duration": 0.049,
      "velocity": 92,
      "chip": "ym2612"
    },
    {
      "channel": 4,
      "note": 53,
      "start": 84.2195,
      "duration": 0.0239,
      "velocity": 122,
      "chip": "ym2612"
    },
    {
      "channel": 1,
      "note": 51,
      "start": 84.271,
      "duration": 0.0424,
      "velocity": 92,
      "chip": "ym2612"
    },
    {
      "channel": 1,
      "note": 44,
      "start": 84.322,
      "duration": 0.0873,
      "velocity": 92,
      "chip": "ym2612"
    },
    {
      "channel": 1,
      "note": 51,
      "start": 84.4242,
      "duration": 0.0418,
      "velocity": 92,
      "chip": "ym2612"
    },
    {
      "channel": 1,
      "note": 56,
      "start": 84.4744,
      "duration": 0.0468,
      "velocity": 92,
      "chip": "ym2612"
    },
    {
      "channel": 4,
      "note": 55,
      "start": 84.4787,
      "duration": 0.0163,
      "velocity": 122,
      "chip": "ym2612"
    },
    {
      "channel": 1,
      "note": 44,
      "start": 84.5294,
      "duration": 0.0886,
      "velocity": 92,
      "chip": "ym2612"
    },
    {
      "channel": 4,
      "note": 53,
      "start": 84.5336,
      "duration": 0.0745,
      "velocity": 122,
      "chip": "ym2612"
    },
    {
      "channel": 1,
      "note": 54,
      "start": 84.6329,
      "duration": 0.0462,
      "velocity": 92,
      "chip": "ym2612"
    },
    {
      "channel": 4,
      "note": 55,
      "start": 84.6383,
      "duration": 0.0143,
      "velocity": 122,
      "chip": "ym2612"
    },
    {
      "channel": 1,
      "note": 51,
      "start": 84.6878,
      "duration": 0.0462,
      "velocity": 92,
      "chip": "ym2612"
    },
    {
      "channel": 4,
      "note": 53,
      "start": 84.6921,
      "duration": 0.0381,
      "velocity": 122,
      "chip": "ym2612"
    },
    {
      "channel": 1,
      "note": 49,
      "start": 84.7434,
      "duration": 0.0447,
      "velocity": 92,
      "chip": "ym2612"
    },
    {
      "channel": 4,
      "note": 55,
      "start": 84.7484,
      "duration": 0.0201,
      "velocity": 122,
      "chip": "ym2612"
    },
    {
      "channel": 1,
      "note": 51,
      "start": 84.7971,
      "duration": 0.0447,
      "velocity": 92,
      "chip": "ym2612"
    },
    {
      "channel": 4,
      "note": 60,
      "start": 84.8018,
      "duration": 0.036,
      "velocity": 122,
      "chip": "ym2612"
    },
    {
      "channel": 0,
      "note": 70,
      "start": 84.8518,
      "duration": 1.6772,
      "velocity": 109,
      "chip": "ym2612"
    },
    {
      "channel": 1,
      "note": 42,
      "start": 84.856,
      "duration": 0.0495,
      "velocity": 92,
      "chip": "ym2612"
    },
    {
      "channel": 2,
      "note": 61,
      "start": 84.8604,
      "duration": 1.6699,
      "velocity": 108,
      "chip": "ym2612"
    },
    {
      "channel": 3,
      "note": 70,
      "start": 84.8647,
      "duration": 1.6671,
      "velocity": 111,
      "chip": "ym2612"
    },
    {
      "channel": 4,
      "note": 46,
      "start": 84.8694,
      "duration": 0.0165,
      "velocity": 122,
      "chip": "ym2612"
    },
    {
      "channel": 1,
      "note": 49,
      "start": 84.914,
      "duration": 0.0461,
      "velocity": 92,
      "chip": "ym2612"
    },
    {
      "channel": 4,
      "note": 56,
      "start": 84.9184,
      "duration": 0.0386,
      "velocity": 122,
      "chip": "ym2612"
    },
    {
      "channel": 1,
      "note": 54,
      "start": 84.9673,
      "duration": 0.0912,
      "velocity": 92,
      "chip": "ym2612"
    },
    {
      "channel": 1,
      "note": 42,
      "start": 85.0732,
      "duration": 0.0445,
      "velocity": 92,
      "chip": "ym2612"
    },
    {
      "channel": 4,
      "note": 56,
      "start": 85.0788,
      "duration": 0.0361,
      "velocity": 122,
      "chip": "ym2612"
    },
    {
      "channel": 1,
      "note": 49,
      "start": 85.1263,
      "duration": 0.0479,
      "velocity": 92,
      "chip": "ym2612"
    },
    {
      "channel": 4,
      "note": 53,
      "start": 85.1319,
      "duration": 0.0298,
      "velocity": 122,
      "chip": "ym2612"
    },
    {
      "channel": 1,
      "note": 52,
      "start": 85.182,
      "duration": 0.041,
      "velocity": 92,
      "chip": "ym2612"
    },
    {
      "channel": 1,
      "note": 47,
      "start": 85.2367,
      "duration": 0.0451,
      "velocity": 92,
      "chip": "ym2612"
    },
    {
      "channel": 4,
      "note": 49,
      "start": 85.2421,
      "duration": 0.0204,
      "velocity": 122,
      "chip": "ym2612"
    },
    {
      "channel": 1,
      "note": 49,
      "start": 85.2891,
      "duration": 0.0417,
      "velocity": 92,
      "chip": "ym2612"
    },
    {
      "channel": 1,
      "note": 42,
      "start": 85.3388,
      "duration": 0.0987,
      "velocity": 92,
      "chip": "ym2612"
    },
    {
      "channel": 1,
      "note": 49,
      "start": 85.4522,
      "duration": 0.0415,
      "velocity": 92,
      "chip": "ym2612"
    },
    {
      "channel": 1,
      "note": 54,
      "start": 85.5022,
      "duration": 0.0451,
      "velocity": 92,
      "chip": "ym2612"
    },
    {
      "channel": 4,
      "note": 52,
      "start": 85.5076,
      "duration": 0.017,
      "velocity": 122,
      "chip": "ym2612"
    },
    {
      "channel": 1,
      "note": 42,
      "start": 85.5556,
      "duration": 0.0931,
      "velocity": 92,
      "chip": "ym2612"
    },
    {
      "channel": 4,
      "note": 50,
      "start": 85.56,
      "duration": 0.0685,
      "velocity": 122,
      "chip": "ym2612"
    },
    {
      "channel": 1,
      "note": 52,
      "start": 85.6636,
      "duration": 0.0455,
      "velocity": 92,
      "chip": "ym2612"
    },
    {
      "channel": 4,
      "note": 52,
      "start": 85.669,
      "duration": 0.014,
      "velocity": 122,
      "chip": "ym2612"
    },
    {
      "channel": 1,
      "note": 49,
      "start": 85.7168,
      "duration": 0.0432,
      "velocity": 92,
      "chip": "ym2612"
    },
    {
      "channel": 4,
      "note": 50,
      "start": 85.7214,
      "duration": 0.0398,
      "velocity": 122,
      "chip": "ym2612"
    },
    {
      "channel": 1,
      "note": 47,
      "start": 85.7687,
      "duration": 0.1238,
      "velocity": 92,
      "chip": "ym2612"
    },
    {
      "channel": 4,
      "note": 52,
      "start": 85.7733,
      "duration": 0.0579,
      "velocity": 122,
      "chip": "ym2612"
    },
    {
      "channel": 1,
      "note": 49,
      "start": 85.9071,
      "duration": 0.1387,
      "velocity": 92,
      "chip": "ym2612"
    },
    {
      "channel": 4,
      "note": 52,
      "start": 85.9127,
      "duration": 0.1231,
      "velocity": 122,
      "chip": "ym2612"
    },
    {
      "channel": 1,
      "note": 42,
      "start": 86.0608,
      "duration": 0.045,
      "velocity": 92,
      "chip": "ym2612"
    },
    {
      "channel": 4,
      "note": 46,
      "start": 86.0662,
      "duration": 0.0169,
      "velocity": 122,
      "chip": "ym2612"
    },
    {
      "channel": 1,
      "note": 49,
      "start": 86.1137,
      "duration": 0.0446,
      "velocity": 92,
      "chip": "ym2612"
    },
    {
      "channel": 4,
      "note": 56,
      "start": 86.1196,
      "duration": 0.0399,
      "velocity": 122,
      "chip": "ym2612"
    },
    {
      "channel": 1,
      "note": 54,
      "start": 86.1661,
      "duration": 0.0941,
      "velocity": 92,
      "chip": "ym2612"
    },
    {
      "channel": 1,
      "note": 42,
      "start": 86.275,
      "duration": 0.0461,
      "velocity": 92,
      "chip": "ym2612"
    },
    {
      "channel": 4,
      "note": 56,
      "start": 86.2804,
      "duration": 0.0341,
      "velocity": 122,
      "chip": "ym2612"
    },
    {
      "channel": 1,
      "note": 49,
      "start": 86.3291,
      "duration": 0.0458,
      "velocity": 92,
      "chip": "ym2612"
    },
    {
      "channel": 4,
      "note": 53,
      "start": 86.3346,
      "duration": 0.027,
      "velocity": 122,
      "chip": "ym2612"
    },
    {
      "channel": 1,
      "note": 52,
      "start": 86.3824,
      "duration": 0.0403,
      "velocity": 92,
      "chip": "ym2612"
    },
    {
      "channel": 1,
      "note": 47,
      "start": 86.4306,
      "duration": 0.0479,
      "velocity": 92,
      "chip": "ym2612"
    },
    {
      "channel": 4,
      "note": 49,
      "start": 86.435,
      "duration": 0.0239,
      "velocity": 122,
      "chip": "ym2612"
    },
    {
      "channel": 1,
      "note": 49,
      "start": 86.4872,
      "duration": 0.0429,
      "velocity": 92,
      "chip": "ym2612"
    },
    {
      "channel": 0,
      "note": 71,
      "start": 86.5381,
      "duration": 0.3739,
      "velocity": 109,
      "chip": "ym2612"
    },
    {
      "channel": 2,
      "note": 66,
      "start": 86.5429,
      "duration": 0.3694,
      "velocity": 108,
      "chip": "ym2612"
    },
    {
      "channel": 3,
      "note": 71,
      "start": 86.549,
      "duration": 0.3636,
      "velocity": 111,
      "chip": "ym2612"
    },
    {
      "channel": 1,
      "note": 44,
      "start": 86.9244,
      "duration": 0.0529,
      "velocity": 92,
      "chip": "ym2612"
    },
    {
      "channel": 2,
      "note": 63,
      "start": 86.9301,
      "duration": 0.9029,
      "velocity": 108,
      "chip": "ym2612"
    },
    {
      "channel": 3,
      "note": 68,
      "start": 86.9381,
      "duration": 0.9019,
      "velocity": 108,
      "chip": "ym2612"
    },
    {
      "channel": 1,
      "note": 51,
      "start": 86.9865,
      "duration": 0.0452,
      "velocity": 92,
      "chip": "ym2612"
    },
    {
      "channel": 5,
      "note": 82,
      "start": 86.9916,
      "duration": 0.0414,
      "velocity": 88,
      "chip": "ym2612"
    },
    {
      "channel": 1,
      "note": 56,
      "start": 87.0403,
      "duration": 0.0449,
      "velocity": 92,
      "chip": "ym2612"
    },
    {
      "channel": 5,
      "note": 80,
      "start": 87.0454,
      "duration": 0.041,
      "velocity": 88,
      "chip": "ym2612"
    },
    {
      "channel": 1,
      "note": 44,
      "start": 87.0937,
      "duration": 0.082,
      "velocity": 92,
      "chip": "ym2612"
    },
    {
      "channel": 5,
      "note": 75,
      "start": 87.0981,
      "duration": 0.0792,
      "velocity": 88,
      "chip": "ym2612"
    },
    {
      "channel": 1,
      "note": 51,
      "start": 87.1907,
      "duration": 0.0488,
      "velocity": 92,
      "chip": "ym2612"
    },
    {
      "channel": 5,
      "note": 78,
      "start": 87.1962,
      "duration": 0.0448,
      "velocity": 88,
      "chip": "ym2612"
    },
    {
      "channel": 1,
      "note": 54,
      "start": 87.2486,
      "duration": 0.0443,
      "velocity": 92,
      "chip": "ym2612"
    },
    {
      "channel": 5,
      "note": 80,
      "start": 87.2529,
      "duration": 0.0412,
      "velocity": 88,
      "chip": "ym2612"
    },
    {
      "channel": 1,
      "note": 49,
      "start": 87.3034,
      "duration": 0.0478,
      "velocity": 92,
      "chip": "ym2612"
    },
    {
      "channel": 5,
      "note": 73,
      "start": 87.3095,
      "duration": 0.0441,
      "velocity": 88,
      "chip": "ym2612"
    },
    {
      "channel": 1,
      "note": 51,
      "start": 87.361,
      "duration": 0.0495,
      "velocity": 92,
      "chip": "ym2612"
    },
    {
      "channel": 5,
      "note": 75,
      "start": 87.3659,
      "duration": 0.0472,
      "velocity": 88,
      "chip": "ym2612"
    },
    {
      "channel": 1,
      "note": 44,
      "start": 87.4202,
      "duration": 0.045,
      "velocity": 92,
      "chip": "ym2612"
    },
    {
      "channel": 5,
      "note": 78,
      "start": 87.4248,
      "duration": 0.0418,
      "velocity": 88,
      "chip": "ym2612"
    },
    {
      "channel": 1,
      "note": 51,
      "start": 87.4741,
      "duration": 0.047,
      "velocity": 92,
      "chip": "ym2612"
    },
    {
      "channel": 5,
      "note": 80,
      "start": 87.4785,
      "duration": 0.0439,
      "velocity": 88,
      "chip": "ym2612"
    },
    {
      "channel": 1,
      "note": 56,
      "start": 87.5299,
      "duration": 0.0466,
      "velocity": 92,
      "chip": "ym2612"
    },
    {
      "channel": 5,
      "note": 73,
      "start": 87.5361,
      "duration": 0.0415,
      "velocity": 88,
      "chip": "ym2612"
    },
    {
      "channel": 1,
      "note": 44,
      "start": 87.5858,
      "duration": 0.0537,
      "velocity": 92,
      "chip": "ym2612"
    },
    {
      "channel": 5,
      "note": 75,
      "start": 87.5903,
      "duration": 0.0504,
      "velocity": 88,
      "chip": "ym2612"
    },
    {
      "channel": 1,
      "note": 54,
      "start": 87.6484,
      "duration": 0.0449,
      "velocity": 92,
      "chip": "ym2612"
    },
    {
      "channel": 5,
      "note": 78,
      "start": 87.6538,
      "duration": 0.0407,
      "velocity": 88,
      "chip": "ym2612"
    },
    {
      "channel": 1,
      "note": 51,
      "start": 87.7029,
      "duration": 0.0478,
      "velocity": 92,
      "chip": "ym2612"
    },
    {
      "channel": 5,
      "note": 75,
      "start": 87.7076,
      "duration": 0.0444,
      "velocity": 88,
      "chip": "ym2612"
    },
    {
      "channel": 1,
      "note": 49,
      "start": 87.7599,
      "duration": 0.0502,
      "velocity": 92,
      "chip": "ym2612"
    },
    {
      "channel": 5,
      "note": 73,
      "start": 87.7658,
      "duration": 0.0455,
      "velocity": 88,
      "chip": "ym2612"
    },
    {
      "channel": 1,
      "note": 51,
      "start": 87.8193,
      "duration": 0.0441,
      "velocity": 92,
      "chip": "ym2612"
    },
    {
      "channel": 5,
      "note": 72,
      "start": 87.8241,
      "duration": 0.0416,
      "velocity": 88,
      "chip": "ym2612"
    },
    {
      "channel": 0,
      "note": 54,
      "start": 87.8731,
      "duration": 0.052,
      "velocity": 109,
      "chip": "ym2612"
    },
    {
      "channel": 1,
      "note": 44,
      "start": 87.8774,
      "duration": 0.049,
      "velocity": 92,
      "chip": "ym2612"
    },
    {
      "channel": 4,
      "note": 66,
      "start": 87.8821,
      "duration": 0.0462,
      "velocity": 127,
      "chip": "ym2612"
    },
    {
      "channel": 5,
      "note": 73,
      "start": 87.8868,
      "duration": 0.0431,
      "velocity": 88,
      "chip": "ym2612"
    },
    {
      "channel": 0,
      "note": 56,
      "start": 87.9365,
      "duration": 0.051,
      "velocity": 109,
      "chip": "ym2612"
    },
    {
      "channel": 1,
      "note": 51,
      "start": 87.9406,
      "duration": 0.0482,
      "velocity": 92,
      "chip": "ym2612"
    },
    {
      "channel": 4,
      "note": 66,
      "start": 87.9464,
      "duration": 0.0434,
      "velocity": 127,
      "chip": "ym2612"
    },
    {
      "channel": 5,
      "note": 75,
      "start": 87.951,
      "duration": 0.0392,
      "velocity": 88,
      "chip": "ym2612"
    },
    {
      "channel": 0,
      "note": 59,
      "start": 87.9975,
      "duration": 0.0462,
      "velocity": 109,
      "chip": "ym2612"
    },
    {
      "channel": 1,
      "note": 56,
      "start": 88.0022,
      "duration": 0.0455,
      "velocity": 92,
      "chip": "ym2612"
    },
    {
      "channel": 5,
      "note": 80,
      "start": 88.007,
      "duration": 0.0429,
      "velocity": 88,
      "chip": "ym2612"
    },
    {
      "channel": 0,
      "note": 60,
      "start": 88.0573,
      "duration": 0.0818,
      "velocity": 109,
      "chip": "ym2612"
    },
    {
      "channel": 1,
      "note": 44,
      "start": 88.0616,
      "duration": 0.0789,
      "velocity": 92,
      "chip": "ym2612"
    },
    {
      "channel": 4,
      "note": 66,
      "start": 88.0661,
      "duration": 0.076,
      "velocity": 127,
      "chip": "ym2612"
    },
    {
      "channel": 5,
      "note": 75,
      "start": 88.0704,
      "duration": 0.0736,
      "velocity": 88,
      "chip": "ym2612"
    },
    {
      "channel": 0,
      "note": 63,
      "start": 88.1539,
      "duration": 0.0525,
      "velocity": 109,
      "chip": "ym2612"
    },
    {
      "channel": 1,
      "note": 51,
      "start": 88.1592,
      "duration": 0.0488,
      "velocity": 92,
      "chip": "ym2612"
    },
    {
      "channel": 4,
      "note": 66,
      "start": 88.1648,
      "duration": 0.0444,
      "velocity": 127,
      "chip": "ym2612"
    },
    {
      "channel": 5,
      "note": 78,
      "start": 88.1701,
      "duration": 0.0394,
      "velocity": 88,
      "chip": "ym2612"
    },
    {
      "channel": 0,
      "note": 66,
      "start": 88.217,
      "duration": 0.0454,
      "velocity": 109,
      "chip": "ym2612"
    },
    {
      "channel": 1,
      "note": 54,
      "start": 88.2217,
      "duration": 0.0456,
      "velocity": 92,
      "chip": "ym2612"
    },
    {
      "channel": 5,
      "note": 80,
      "start": 88.2261,
      "duration": 0.0433,
      "velocity": 88,
      "chip": "ym2612"
    },
    {
      "channel": 0,
      "note": 67,
      "start": 88.2766,
      "duration": 0.1149,
      "velocity": 109,
      "chip": "ym2612"
    },
    {
      "channel": 1,
      "note": 49,
      "start": 88.2808,
      "duration": 0.1121,
      "velocity": 92,
      "chip": "ym2612"
    },
    {
      "channel": 4,
      "note": 66,
      "start": 88.2855,
      "duration": 0.1089,
      "velocity": 127,
      "chip": "ym2612"
    },
    {
      "channel": 5,
      "note": 82,
      "start": 88.2896,
      "duration": 0.1066,
      "velocity": 88,
      "chip": "ym2612"
    },
    {
      "channel": 0,
      "note": 68,
      "start": 88.4064,
      "duration": 0.1283,
      "velocity": 109,
      "chip": "ym2612"
    },
    {
      "channel": 1,
      "note": 51,
      "start": 88.4117,
      "duration": 0.1239,
      "velocity": 92,
      "chip": "ym2612"
    },
    {
      "channel": 4,
      "note": 66,
      "start": 88.4172,
      "duration": 0.1211,
      "velocity": 127,
      "chip": "ym2612"
    },
    {
      "channel": 5,
      "note": 80,
      "start": 88.4225,
      "duration": 0.1166,
      "velocity": 88,
      "chip": "ym2612"
    },
    {
      "channel": 1,
      "note": 44,
      "start": 88.5499,
      "duration": 0.0498,
      "velocity": 92,
      "chip": "ym2612"
    },
    {
      "channel": 2,
      "note": 71,
      "start": 88.5553,
      "duration": 0.0454,
      "velocity": 109,
      "chip": "ym2612"
    },
    {
      "channel": 5,
      "note": 84,
      "start": 88.5609,
      "duration": 0.0421,
      "velocity": 88,
      "chip": "ym2612"
    },
    {
      "channel": 1,
      "note": 51,
      "start": 88.6101,
      "duration": 0.0542,
      "velocity": 92,
      "chip": "ym2612"
    },
    {
      "channel": 2,
      "note": 72,
      "start": 88.6147,
      "duration": 0.0465,
      "velocity": 109,
      "chip": "ym2612"
    },
    {
      "channel": 4,
      "note": 69,
      "start": 88.6193,
      "duration": 0.0423,
      "velocity": 127,
      "chip": "ym2612"
    },
    {
      "channel": 5,
      "note": 82,
      "start": 88.625,
      "duration": 0.0427,
      "velocity": 88,
      "chip": "ym2612"
    },
    {
      "channel": 1,
      "note": 56,
      "start": 88.6747,
      "duration": 0.0777,
      "velocity": 92,
      "chip": "ym2612"
    },
    {
      "channel": 2,
      "note": 75,
      "start": 88.6793,
      "duration": 0.0745,
      "velocity": 109,
      "chip": "ym2612"
    },
    {
      "channel": 4,
      "note": 69,
      "start": 88.6837,
      "duration": 0.0715,
      "velocity": 127,
      "chip": "ym2612"
    },
    {
      "channel": 5,
      "note": 80,
      "start": 88.6879,
      "duration": 0.0692,
      "velocity": 88,
      "chip": "ym2612"
    },
    {
      "channel": 1,
      "note": 44,
      "start": 88.7673,
      "duration": 0.0534,
      "velocity": 92,
      "chip": "ym2612"
    },
    {
      "channel": 2,
      "note": 78,
      "start": 88.7726,
      "duration": 0.0496,
      "velocity": 109,
      "chip": "ym2612"
    },
    {
      "channel": 4,
      "note": 69,
      "start": 88.778,
      "duration": 0.0452,
      "velocity": 127,
      "chip": "ym2612"
    },
    {
      "channel": 5,
      "note": 75,
      "start": 88.7834,
      "duration": 0.0414,
      "velocity": 88,
      "chip": "ym2612"
    },
    {
      "channel": 1,
      "note": 54,
      "start": 88.8314,
      "duration": 0.0529,
      "velocity": 92,
      "chip": "ym2612"
    },
    {
      "channel": 2,
      "note": 79,
      "start": 88.8359,
      "duration": 0.0453,
      "velocity": 109,
      "chip": "ym2612"
    },
    {
      "channel": 4,
      "note": 69,
      "start": 88.8405,
      "duration": 0.0409,
      "velocity": 127,
      "chip": "ym2612"
    },
    {
      "channel": 5,
      "note": 78,
      "start": 88.8451,
      "duration": 0.0431,
      "velocity": 88,
      "chip": "ym2612"
    },
    {
      "channel": 1,
      "note": 51,
      "start": 88.8953,
      "duration": 0.0475,
      "velocity": 92,
      "chip": "ym2612"
    },
    {
      "channel": 2,
      "note": 80,
      "start": 88.8996,
      "duration": 0.0443,
      "velocity": 109,
      "chip": "ym2612"
    },
    {
      "channel": 4,
      "note": 69,
      "start": 88.904,
      "duration": 0.041,
      "velocity": 127,
      "chip": "ym2612"
    },
    {
      "channel": 5,
      "note": 80,
      "start": 88.9084,
      "duration": 0.0381,
      "velocity": 88,
      "chip": "ym2612"
    },
    {
      "channel": 1,
      "note": 49,
      "start": 88.9534,
      "duration": 0.0501,
      "velocity": 92,
      "chip": "ym2612"
    },
    {
      "channel": 2,
      "note": 83,
      "start": 88.9576,
      "duration": 0.047,
      "velocity": 109,
      "chip": "ym2612"
    },
    {
      "channel": 4,
      "note": 69,
      "start": 88.962,
      "duration": 0.0438,
      "velocity": 127,
      "chip": "ym2612"
    },
    {
      "channel": 5,
      "note": 73,
      "start": 88.9674,
      "duration": 0.0399,
      "velocity": 88,
      "chip": "ym2612"
    },
    {
      "channel": 1,
      "note": 51,
      "start": 89.0146,
      "duration": 0.0475,
      "velocity": 92,
      "chip": "ym2612"
    },
    {
      "channel": 2,
      "note": 84,
      "start": 89.0187,
      "duration": 0.0444,
      "velocity": 109,
      "chip": "ym2612"
    },
    {
      "channel": 4,
      "note": 69,
      "start": 89.0231,
      "duration": 0.0421,
      "velocity": 127,
      "chip": "ym2612"
    },
    {
      "channel": 5,
      "note": 75,
      "start": 89.0275,
      "duration": 0.0379,
      "velocity": 88,
      "chip": "ym2612"
    },
    {
      "channel": 1,
      "note": 44,
      "start": 89.0718,
      "duration": 0.0531,
      "velocity": 92,
      "chip": "ym2612"
    },
    {
      "channel": 2,
      "note": 63,
      "start": 89.0765,
      "duration": 0.9029,
      "velocity": 108,
      "chip": "ym2612"
    },
    {
      "channel": 5,
      "note": 84,
      "start": 89.0819,
      "duration": 0.0442,
      "velocity": 88,
      "chip": "ym2612"
    },
    {
      "channel": 3,
      "note": 68,
      "start": 89.0882,
      "duration": 0.8982,
      "velocity": 108,
      "chip": "ym2612"
    },
    {
      "channel": 1,
      "note": 51,
      "start": 89.134,
      "duration": 0.0439,
      "velocity": 92,
      "chip": "ym2612"
    },
    {
      "channel": 5,
      "note": 82,
      "start": 89.1389,
      "duration": 0.0402,
      "velocity": 88,
      "chip": "ym2612"
    },
    {
      "channel": 1,
      "note": 56,
      "start": 89.1867,
      "duration": 0.0451,
      "velocity": 92,
      "chip": "ym2612"
    },
    {
      "channel": 5,
      "note": 80,
      "start": 89.1919,
      "duration": 0.0411,
      "velocity": 88,
      "chip": "ym2612"
    },
    {
      "channel": 1,
      "note": 44,
      "start": 89.2407,
      "duration": 0.0925,
      "velocity": 92,
      "chip": "ym2612"
    },
    {
      "channel": 5,
      "note": 75,
      "start": 89.245,
      "duration": 0.0898,
      "velocity": 88,
      "chip": "ym2612"
    },
    {
      "channel": 1,
      "note": 51,
      "start": 89.3481,
      "duration": 0.0457,
      "velocity": 92,
      "chip": "ym2612"
    },
    {
      "channel": 5,
      "note": 78,
      "start": 89.3537,
      "duration": 0.0415,
      "velocity": 88,
      "chip": "ym2612"
    },
    {
      "channel": 1,
      "note": 54,
      "start": 89.4026,
      "duration": 0.0441,
      "velocity": 92,
      "chip": "ym2612"
    },
    {
      "channel": 5,
      "note": 80,
      "start": 89.4069,
      "duration": 0.0409,
      "velocity": 88,
      "chip": "ym2612"
    },
    {
      "channel": 1,
      "note": 49,
      "start": 89.4557,
      "duration": 0.0484,
      "velocity": 92,
      "chip": "ym2612"
    },
    {
      "channel": 5,
      "note": 73,
      "start": 89.4618,
      "duration": 0.0443,
      "velocity": 88,
      "chip": "ym2612"
    },
    {
      "channel": 1,
      "note": 51,
      "start": 89.5134,
      "duration": 0.0497,
      "velocity": 92,
      "chip": "ym2612"
    },
    {
      "channel": 5,
      "note": 75,
      "start": 89.5177,
      "duration": 0.0481,
      "velocity": 88,
      "chip": "ym2612"
    },
    {
      "channel": 1,
      "note": 44,
      "start": 89.5732,
      "duration": 0.0446,
      "velocity": 92,
      "chip": "ym2612"
    },
    {
      "channel": 5,
      "note": 78,
      "start": 89.5775,
      "duration": 0.0414,
      "velocity": 88,
      "chip": "ym2612"
    },
    {
      "channel": 1,
      "note": 51,
      "start": 89.626,
      "duration": 0.0458,
      "velocity": 92,
      "chip": "ym2612"
    },
    {
      "channel": 5,
      "note": 80,
      "start": 89.6307,
      "duration": 0.0424,
      "velocity": 88,
      "chip": "ym2612"
    },
    {
      "channel": 1,
      "note": 56,
      "start": 89.681,
      "duration": 0.0477,
      "velocity": 92,
      "chip": "ym2612"
    },
    {
      "channel": 5,
      "note": 73,
      "start": 89.6854,
      "duration": 0.0443,
      "velocity": 88,
      "chip": "ym2612"
    },
    {
      "channel": 1,
      "note": 44,
      "start": 89.7377,
      "duration": 0.0488,
      "velocity": 92,
      "chip": "ym2612"
    },
    {
      "channel": 5,
      "note": 75,
      "start": 89.7429,
      "duration": 0.0451,
      "velocity": 88,
      "chip": "ym2612"
    },
    {
      "channel": 1,
      "note": 54,
      "start": 89.7954,
      "duration": 0.0453,
      "velocity": 92,
      "chip": "ym2612"
    },
    {
      "channel": 5,
      "note": 78,
      "start": 89.8007,
      "duration": 0.0413,
      "velocity": 88,
      "chip": "ym2612"
    },
    {
      "channel": 1,
      "note": 51,
      "start": 89.8495,
      "duration": 0.0479,
      "velocity": 92,
      "chip": "ym2612"
    },
    {
      "channel": 5,
      "note": 75,
      "start": 89.8539,
      "duration": 0.0447,
      "velocity": 88,
      "chip": "ym2612"
    },
    {
      "channel": 1,
      "note": 49,
      "start": 89.9064,
      "duration": 0.0492,
      "velocity": 92,
      "chip": "ym2612"
    },
    {
      "channel": 5,
      "note": 73,
      "start": 89.9116,
      "duration": 0.0451,
      "velocity": 88,
      "chip": "ym2612"
    },
    {
      "channel": 1,
      "note": 51,
      "start": 89.9647,
      "duration": 0.0449,
      "velocity": 92,
      "chip": "ym2612"
    },
    {
      "channel": 5,
      "note": 72,
      "start": 89.9695,
      "duration": 0.0423,
      "velocity": 88,
      "chip": "ym2612"
    },
    {
      "channel": 0,
      "note": 54,
      "start": 90.0191,
      "duration": 0.0523,
      "velocity": 109,
      "chip": "ym2612"
    },
    {
      "channel": 1,
      "note": 44,
      "start": 90.0233,
      "duration": 0.0494,
      "velocity": 92,
      "chip": "ym2612"
    },
    {
      "channel": 4,
      "note": 66,
      "start": 90.0283,
      "duration": 0.0465,
      "velocity": 127,
      "chip": "ym2612"
    },
    {
      "channel": 5,
      "note": 73,
      "start": 90.0324,
      "duration": 0.0438,
      "velocity": 88,
      "chip": "ym2612"
    },
    {
      "channel": 0,
      "note": 56,
      "start": 90.0827,
      "duration": 0.051,
      "velocity": 109,
      "chip": "ym2612"
    },
    {
      "channel": 1,
      "note": 51,
      "start": 90.0874,
      "duration": 0.0505,
      "velocity": 92,
      "chip": "ym2612"
    },
    {
      "channel": 4,
      "note": 66,
      "start": 90.0931,
      "duration": 0.041,
      "velocity": 127,
      "chip": "ym2612"
    },
    {
      "channel": 5,
      "note": 75,
      "start": 90.0976,
      "duration": 0.0415,
      "velocity": 88,
      "chip": "ym2612"
    },
    {
      "channel": 0,
      "note": 59,
      "start": 90.1463,
      "duration": 0.0461,
      "velocity": 109,
      "chip": "ym2612"
    },
    {
      "channel": 1,
      "note": 56,
      "start": 90.1506,
      "duration": 0.0433,
      "velocity": 92,
      "chip": "ym2612"
    },
    {
      "channel": 5,
      "note": 80,
      "start": 90.1549,
      "duration": 0.0413,
      "velocity": 88,
      "chip": "ym2612"
    },
    {
      "channel": 0,
      "note": 60,
      "start": 90.2028,
      "duration": 0.0753,
      "velocity": 109,
      "chip": "ym2612"
    },
    {
      "channel": 1,
      "note": 44,
      "start": 90.2074,
      "duration": 0.0721,
      "velocity": 92,
      "chip": "ym2612"
    },
    {
      "channel": 4,
      "note": 66,
      "start": 90.2117,
      "duration": 0.0693,
      "velocity": 127,
      "chip": "ym2612"
    },
    {
      "channel": 5,
      "note": 75,
      "start": 90.216,
      "duration": 0.0668,
      "velocity": 88,
      "chip": "ym2612"
    },
    {
      "channel": 0,
      "note": 63,
      "start": 90.2931,
      "duration": 0.0524,
      "velocity": 109,
      "chip": "ym2612"
    },
    {
      "channel": 1,
      "note": 51,
      "start": 90.2983,
      "duration": 0.0484,
      "velocity": 92,
      "chip": "ym2612"
    },
    {
      "channel": 4,
      "note": 66,
      "start": 90.3038,
      "duration": 0.0444,
      "velocity": 127,
      "chip": "ym2612"
    },
    {
      "channel": 5,
      "note": 78,
      "start": 90.3092,
      "duration": 0.0392,
      "velocity": 88,
      "chip": "ym2612"
    },
    {
      "channel": 0,
      "note": 66,
      "start": 90.3553,
      "duration": 0.0459,
      "velocity": 109,
      "chip": "ym2612"
    },
    {
      "channel": 1,
      "note": 54,
      "start": 90.3595,
      "duration": 0.0458,
      "velocity": 92,
      "chip": "ym2612"
    },
    {
      "channel": 5,
      "note": 80,
      "start": 90.3639,
      "duration": 0.0437,
      "velocity": 88,
      "chip": "ym2612"
    },
    {
      "channel": 0,
      "note": 67,
      "start": 90.4143,
      "duration": 0.1137,
      "velocity": 109,
      "chip": "ym2612"
    },
    {
      "channel": 1,
      "note": 49,
      "start": 90.419,
      "duration": 0.1105,
      "velocity": 92,
      "chip": "ym2612"
    },
    {
      "channel": 4,
      "note": 66,
      "start": 90.4233,
      "duration": 0.1077,
      "velocity": 127,
      "chip": "ym2612"
    },
    {
      "channel": 5,
      "note": 82,
      "start": 90.4276,
      "duration": 0.1053,
      "velocity": 88,
      "chip": "ym2612"
    },
    {
      "channel": 0,
      "note": 68,
      "start": 90.5429,
      "duration": 0.1284,
      "velocity": 109,
      "chip": "ym2612"
    },
    {
      "channel": 1,
      "note": 51,
      "start": 90.5481,
      "duration": 0.1239,
      "velocity": 92,
      "chip": "ym2612"
    },
    {
      "channel": 4,
      "note": 66,
      "start": 90.5537,
      "duration": 0.1209,
      "velocity": 127,
      "chip": "ym2612"
    },
    {
      "channel": 5,
      "note": 80,
      "start": 90.559,
      "duration": 0.1164,
      "velocity": 88,
      "chip": "ym2612"
    },
    {
      "channel": 1,
      "note": 44,
      "start": 90.6865,
      "duration": 0.0527,
      "velocity": 92,
      "chip": "ym2612"
    },
    {
      "channel": 3,
      "note": 71,
      "start": 90.6918,
      "duration": 0.044,
      "velocity": 109,
      "chip": "ym2612"
    },
    {
      "channel": 5,
      "note": 84,
      "start": 90.6974,
      "duration": 0.0451,
      "velocity": 88,
      "chip": "ym2612"
    },
    {
      "channel": 1,
      "note": 51,
      "start": 90.7496,
      "duration": 0.0513,
      "velocity": 92,
      "chip": "ym2612"
    },
    {
      "channel": 3,
      "note": 72,
      "start": 90.7537,
      "duration": 0.0483,
      "velocity": 109,
      "chip": "ym2612"
    },
    {
      "channel": 4,
      "note": 69,
      "start": 90.7581,
      "duration": 0.045,
      "velocity": 127,
      "chip": "ym2612"
    },
    {
      "channel": 5,
      "note": 82,
      "start": 90.764,
      "duration": 0.0405,
      "velocity": 88,
      "chip": "ym2612"
    },
    {
      "channel": 1,
      "note": 56,
      "start": 90.812,
      "duration": 0.071,
      "velocity": 92,
      "chip": "ym2612"
    },
    {
      "channel": 3,
      "note": 75,
      "start": 90.8166,
      "duration": 0.0678,
      "velocity": 109,
      "chip": "ym2612"
    },
    {
      "channel": 4,
      "note": 69,
      "start": 90.8207,
      "duration": 0.0651,
      "velocity": 127,
      "chip": "ym2612"
    },
    {
      "channel": 5,
      "note": 80,
      "start": 90.8253,
      "duration": 0.0624,
      "velocity": 88,
      "chip": "ym2612"
    },
    {
      "channel": 1,
      "note": 44,
      "start": 90.8978,
      "duration": 0.0527,
      "velocity": 92,
      "chip": "ym2612"
    },
    {
      "channel": 3,
      "note": 78,
      "start": 90.9031,
      "duration": 0.0484,
      "velocity": 109,
      "chip": "ym2612"
    },
    {
      "channel": 4,
      "note": 69,
      "start": 90.9085,
      "duration": 0.044,
      "velocity": 127,
      "chip": "ym2612"
    },
    {
      "channel": 5,
      "note": 75,
      "start": 90.9138,
      "duration": 0.0402,
      "velocity": 88,
      "chip": "ym2612"
    },
    {
      "channel": 1,
      "note": 54,
      "start": 90.9608,
      "duration": 0.0516,
      "velocity": 92,
      "chip": "ym2612"
    },
    {
      "channel": 3,
      "note": 79,
      "start": 90.965,
      "duration": 0.0446,
      "velocity": 109,
      "chip": "ym2612"
    },
    {
      "channel": 4,
      "note": 69,
      "start": 90.97,
      "duration": 0.0399,
      "velocity": 127,
      "chip": "ym2612"
    },
    {
      "channel": 5,
      "note": 78,
      "start": 90.9741,
      "duration": 0.0421,
      "velocity": 88,
      "chip": "ym2612"
    },
    {
      "channel": 1,
      "note": 51,
      "start": 91.0235,
      "duration": 0.048,
      "velocity": 92,
      "chip": "ym2612"
    },
    {
      "channel": 3,
      "note": 80,
      "start": 91.0279,
      "duration": 0.0446,
      "velocity": 109,
      "chip": "ym2612"
    },
    {
      "channel": 4,
      "note": 69,
      "start": 91.0322,
      "duration": 0.0413,
      "velocity": 127,
      "chip": "ym2612"
    },
    {
      "channel": 5,
      "note": 80,
      "start": 91.0368,
      "duration": 0.0384,
      "velocity": 88,
      "chip": "ym2612"
    },
    {
      "channel": 1,
      "note": 49,
      "start": 91.0823,
      "duration": 0.0503,
      "velocity": 92,
      "chip": "ym2612"
    },
    {
      "channel": 3,
      "note": 83,
      "start": 91.087,
      "duration": 0.047,
      "velocity": 109,
      "chip": "ym2612"
    },
    {
      "channel": 4,
      "note": 69,
      "start": 91.0911,
      "duration": 0.044,
      "velocity": 127,
      "chip": "ym2612"
    },
    {
      "channel": 5,
      "note": 73,
      "start": 91.0966,
      "duration": 0.04,
      "velocity": 88,
      "chip": "ym2612"
    },
    {
      "channel": 1,
      "note": 51,
      "start": 91.1429,
      "duration": 0.0531,
      "velocity": 92,
      "chip": "ym2612"
    },
    {
      "channel": 3,
      "note": 84,
      "start": 91.1475,
      "duration": 0.0439,
      "velocity": 109,
      "chip": "ym2612"
    },
    {
      "channel": 4,
      "note": 69,
      "start": 91.152,
      "duration": 0.0398,
      "velocity": 127,
      "chip": "ym2612"
    },
    {
      "channel": 5,
      "note": 75,
      "start": 91.1561,
      "duration": 0.0439,
      "velocity": 88,
      "chip": "ym2612"
    },
    {
      "channel": 0,
      "note": 82,
      "start": 91.2051,
      "duration": 0.0514,
      "velocity": 67,
      "chip": "ym2612"
    },
    {
      "channel": 1,
      "note": 42,
      "start": 91.2094,
      "duration": 0.0473,
      "velocity": 92,
      "chip": "ym2612"
    },
    {
      "channel": 3,
      "note": 82,
      "start": 91.214,
      "duration": 0.0166,
      "velocity": 88,
      "chip": "ym2612"
    },
    {
      "channel": 4,
      "note": 66,
      "start": 91.2182,
      "duration": 0.0404,
      "velocity": 127,
      "chip": "ym2612"
    },
    {
      "channel": 1,
      "note": 49,
      "start": 91.2661,
      "duration": 0.0491,
      "velocity": 92,
      "chip": "ym2612"
    },
    {
      "channel": 3,
      "note": 70,
      "start": 91.2707,
      "duration": 0.0206,
      "velocity": 88,
      "chip": "ym2612"
    },
    {
      "channel": 4,
      "note": 66,
      "start": 91.2766,
      "duration": 0.0403,
      "velocity": 127,
      "chip": "ym2612"
    },
    {
      "channel": 0,
      "note": 82,
      "start": 91.3235,
      "duration": 0.0765,
      "velocity": 67,
      "chip": "ym2612"
    },
    {
      "channel": 1,
      "note": 54,
      "start": 91.3276,
      "duration": 0.0732,
      "velocity": 92,
      "chip": "ym2612"
    },
    {
      "channel": 3,
      "note": 70,
      "start": 91.332,
      "duration": 0.0137,
      "velocity": 88,
      "chip": "ym2612"
    },
    {
      "channel": 1,
      "note": 42,
      "start": 91.415,
      "duration": 0.1391,
      "velocity": 92,
      "chip": "ym2612"
    },
    {
      "channel": 3,
      "note": 78,
      "start": 91.4205,
      "duration": 0.0513,
      "velocity": 88,
      "chip": "ym2612"
    },
    {
      "channel": 4,
      "note": 66,
      "start": 91.4259,
      "duration": 0.1176,
      "velocity": 127,
      "chip": "ym2612"
    },
    {
      "channel": 0,
      "note": 82,
      "start": 91.5682,
      "duration": 0.1042,
      "velocity": 67,
      "chip": "ym2612"
    },
    {
      "channel": 1,
      "note": 49,
      "start": 91.5736,
      "duration": 0.0472,
      "velocity": 92,
      "chip": "ym2612"
    },
    {
      "channel": 3,
      "note": 70,
      "start": 91.579,
      "duration": 0.0191,
      "velocity": 88,
      "chip": "ym2612"
    },
    {
      "channel": 4,
      "note": 66,
      "start": 91.5843,
      "duration": 0.0385,
      "velocity": 127,
      "chip": "ym2612"
    },
    {
      "channel": 1,
      "note": 52,
      "start": 91.6291,
      "duration": 0.0445,
      "velocity": 92,
      "chip": "ym2612"
    },
    {
      "channel": 3,
      "note": 70,
      "start": 91.6338,
      "duration": 0.0163,
      "velocity": 88,
      "chip": "ym2612"
    },
    {
      "channel": 0,
      "note": 80,
      "start": 91.6824,
      "duration": 0.0477,
      "velocity": 67,
      "chip": "ym2612"
    },
    {
      "channel": 1,
      "note": 47,
      "start": 91.6866,
      "duration": 0.0476,
      "velocity": 92,
      "chip": "ym2612"
    },
    {
      "channel": 3,
      "note": 78,
      "start": 91.6909,
      "duration": 0.0168,
      "velocity": 88,
      "chip": "ym2612"
    },
    {
      "channel": 4,
      "note": 66,
      "start": 91.6951,
      "duration": 0.0353,
      "velocity": 127,
      "chip": "ym2612"
    },
    {
      "channel": 0,
      "note": 82,
      "start": 91.7434,
      "duration": 0.6397,
      "velocity": 67,
      "chip": "ym2612"
    },
    {
      "channel": 1,
      "note": 49,
      "start": 91.7476,
      "duration": 0.0454,
      "velocity": 92,
      "chip": "ym2612"
    },
    {
      "channel": 3,
      "note": 70,
      "start": 91.7526,
      "duration": 0.0149,
      "velocity": 88,
      "chip": "ym2612"
    },
    {
      "channel": 4,
      "note": 66,
      "start": 91.7578,
      "duration": 0.0369,
      "velocity": 127,
      "chip": "ym2612"
    },
    {
      "channel": 1,
      "note": 42,
      "start": 91.8015,
      "duration": 0.0737,
      "velocity": 92,
      "chip": "ym2612"
    },
    {
      "channel": 3,
      "note": 82,
      "start": 91.8061,
      "duration": 0.0161,
      "velocity": 88,
      "chip": "ym2612"
    },
    {
      "channel": 1,
      "note": 49,
      "start": 91.8899,
      "duration": 0.049,
      "velocity": 92,
      "chip": "ym2612"
    },
    {
      "channel": 3,
      "note": 70,
      "start": 91.8953,
      "duration": 0.0214,
      "velocity": 88,
      "chip": "ym2612"
    },
    {
      "channel": 4,
      "note": 69,
      "start": 91.9007,
      "duration": 0.0397,
      "velocity": 127,
      "chip": "ym2612"
    },
    {
      "channel": 1,
      "note": 54,
      "start": 91.9479,
      "duration": 0.0898,
      "velocity": 92,
      "chip": "ym2612"
    },
    {
      "channel": 3,
      "note": 70,
      "start": 91.9526,
      "duration": 0.0187,
      "velocity": 88,
      "chip": "ym2612"
    },
    {
      "channel": 4,
      "note": 69,
      "start": 91.9574,
      "duration": 0.0705,
      "velocity": 127,
      "chip": "ym2612"
    },
    {
      "channel": 1,
      "note": 42,
      "start": 92.0527,
      "duration": 0.0485,
      "velocity": 92,
      "chip": "ym2612"
    },
    {
      "channel": 3,
      "note": 78,
      "start": 92.058,
      "duration": 0.0206,
      "velocity": 88,
      "chip": "ym2612"
    },
    {
      "channel": 4,
      "note": 69,
      "start": 92.0634,
      "duration": 0.0394,
      "velocity": 127,
      "chip": "ym2612"
    },
    {
      "channel": 1,
      "note": 52,
      "start": 92.1102,
      "duration": 0.0486,
      "velocity": 92,
      "chip": "ym2612"
    },
    {
      "channel": 3,
      "note": 70,
      "start": 92.1153,
      "duration": 0.0212,
      "velocity": 88,
      "chip": "ym2612"
    },
    {
      "channel": 4,
      "note": 69,
      "start": 92.121,
      "duration": 0.0393,
      "velocity": 127,
      "chip": "ym2612"
    },
    {
      "channel": 1,
      "note": 49,
      "start": 92.1676,
      "duration": 0.0476,
      "velocity": 92,
      "chip": "ym2612"
    },
    {
      "channel": 3,
      "note": 70,
      "start": 92.1718,
      "duration": 0.0179,
      "velocity": 88,
      "chip": "ym2612"
    },
    {
      "channel": 4,
      "note": 69,
      "start": 92.1761,
      "duration": 0.0362,
      "velocity": 127,
      "chip": "ym2612"
    },
    {
      "channel": 1,
      "note": 47,
      "start": 92.2243,
      "duration": 0.0459,
      "velocity": 92,
      "chip": "ym2612"
    },
    {
      "channel": 3,
      "note": 78,
      "start": 92.2287,
      "duration": 0.0158,
      "velocity": 88,
      "chip": "ym2612"
    },
    {
      "channel": 4,
      "note": 69,
      "start": 92.2332,
      "duration": 0.0384,
      "velocity": 127,
      "chip": "ym2612"
    },
    {
      "channel": 1,
      "note": 49,
      "start": 92.2795,
      "duration": 0.0483,
      "velocity": 92,
      "chip": "ym2612"
    },
    {
      "channel": 3,
      "note": 78,
      "start": 92.2842,
      "duration": 0.0213,
      "velocity": 88,
      "chip": "ym2612"
    },
    {
      "channel": 4,
      "note": 69,
      "start": 92.2888,
      "duration": 0.0409,
      "velocity": 127,
      "chip": "ym2612"
    },
    {
      "channel": 1,
      "note": 42,
      "start": 92.3375,
      "duration": 0.0459,
      "velocity": 92,
      "chip": "ym2612"
    },
    {
      "channel": 3,
      "note": 82,
      "start": 92.3417,
      "duration": 0.0193,
      "velocity": 88,
      "chip": "ym2612"
    },
    {
      "channel": 4,
      "note": 66,
      "start": 92.346,
      "duration": 0.0388,
      "velocity": 127,
      "chip": "ym2612"
    },
    {
      "channel": 1,
      "note": 49,
      "start": 92.3916,
      "duration": 0.0498,
      "velocity": 92,
      "chip": "ym2612"
    },
    {
      "channel": 3,
      "note": 70,
      "start": 92.3959,
      "duration": 0.0188,
      "velocity": 88,
      "chip": "ym2612"
    },
    {
      "channel": 4,
      "note": 66,
      "start": 92.4006,
      "duration": 0.0372,
      "velocity": 127,
      "chip": "ym2612"
    },
    {
      "channel": 0,
      "note": 82,
      "start": 92.45,
      "duration": 0.0832,
      "velocity": 67,
      "chip": "ym2612"
    },
    {
      "channel": 1,
      "note": 54,
      "start": 92.4542,
      "duration": 0.0798,
      "velocity": 92,
      "chip": "ym2612"
    },
    {
      "channel": 3,
      "note": 70,
      "start": 92.4585,
      "duration": 0.0133,
      "velocity": 88,
      "chip": "ym2612"
    },
    {
      "channel": 1,
      "note": 42,
      "start": 92.5483,
      "duration": 0.1288,
      "velocity": 92,
      "chip": "ym2612"
    },
    {
      "channel": 3,
      "note": 78,
      "start": 92.5537,
      "duration": 0.0513,
      "velocity": 88,
      "chip": "ym2612"
    },
    {
      "channel": 4,
      "note": 66,
      "start": 92.559,
      "duration": 0.1203,
      "velocity": 127,
      "chip": "ym2612"
    },
    {
      "channel": 0,
      "note": 82,
      "start": 92.6911,
      "duration": 0.0522,
      "velocity": 67,
      "chip": "ym2612"
    },
    {
      "channel": 1,
      "note": 49,
      "start": 92.6966,
      "duration": 0.0502,
      "velocity": 92,
      "chip": "ym2612"
    },
    {
      "channel": 3,
      "note": 70,
      "start": 92.702,
      "duration": 0.019,
      "velocity": 88,
      "chip": "ym2612"
    },
    {
      "channel": 4,
      "note": 66,
      "start": 92.7072,
      "duration": 0.0369,
      "velocity": 127,
      "chip": "ym2612"
    },
    {
      "channel": 1,
      "note": 52,
      "start": 92.7546,
      "duration": 0.0436,
      "velocity": 92,
      "chip": "ym2612"
    },
    {
      "channel": 3,
      "note": 70,
      "start": 92.7587,
      "duration": 0.0129,
      "velocity": 88,
      "chip": "ym2612"
    },
    {
      "channel": 0,
      "note": 82,
      "start": 92.8067,
      "duration": 0.0501,
      "velocity": 67,
      "chip": "ym2612"
    },
    {
      "channel": 1,
      "note": 47,
      "start": 92.8113,
      "duration": 0.0466,
      "velocity": 92,
      "chip": "ym2612"
    },
    {
      "channel": 3,
      "note": 78,
      "start": 92.816,
      "duration": 0.0193,
      "velocity": 88,
      "chip": "ym2612"
    },
    {
      "channel": 4,
      "note": 66,
      "start": 92.8201,
      "duration": 0.0391,
      "velocity": 127,
      "chip": "ym2612"
    },
    {
      "channel": 0,
      "note": 83,
      "start": 92.8662,
      "duration": 0.1322,
      "velocity": 67,
      "chip": "ym2612"
    },
    {
      "channel": 1,
      "note": 49,
      "start": 92.8705,
      "duration": 0.0459,
      "velocity": 92,
      "chip": "ym2612"
    },
    {
      "channel": 3,
      "note": 70,
      "start": 92.8752,
      "duration": 0.0184,
      "velocity": 88,
      "chip": "ym2612"
    },
    {
      "channel": 4,
      "note": 66,
      "start": 92.8807,
      "duration": 0.0373,
      "velocity": 127,
      "chip": "ym2612"
    },
    {
      "channel": 1,
      "note": 42,
      "start": 92.9242,
      "duration": 0.0852,
      "velocity": 92,
      "chip": "ym2612"
    },
    {
      "channel": 3,
      "note": 82,
      "start": 92.9285,
      "duration": 0.0161,
      "velocity": 88,
      "chip": "ym2612"
    },
    {
      "channel": 0,
      "note": 82,
      "start": 93.0235,
      "duration": 0.0521,
      "velocity": 67,
      "chip": "ym2612"
    },
    {
      "channel": 1,
      "note": 49,
      "start": 93.0288,
      "duration": 0.0471,
      "velocity": 92,
      "chip": "ym2612"
    },
    {
      "channel": 3,
      "note": 70,
      "start": 93.0342,
      "duration": 0.0192,
      "velocity": 88,
      "chip": "ym2612"
    },
    {
      "channel": 4,
      "note": 69,
      "start": 93.0394,
      "duration": 0.0383,
      "velocity": 127,
      "chip": "ym2612"
    },
    {
      "channel": 1,
      "note": 54,
      "start": 93.0851,
      "duration": 0.0756,
      "velocity": 92,
      "chip": "ym2612"
    },
    {
      "channel": 3,
      "note": 78,
      "start": 93.0898,
      "duration": 0.0186,
      "velocity": 88,
      "chip": "ym2612"
    },
    {
      "channel": 4,
      "note": 69,
      "start": 93.0946,
      "duration": 0.0682,
      "velocity": 127,
      "chip": "ym2612"
    },
    {
      "channel": 0,
      "note": 82,
      "start": 93.1749,
      "duration": 0.0516,
      "velocity": 67,
      "chip": "ym2612"
    },
    {
      "channel": 1,
      "note": 42,
      "start": 93.1802,
      "duration": 0.0508,
      "velocity": 92,
      "chip": "ym2612"
    },
    {
      "channel": 3,
      "note": 70,
      "start": 93.1856,
      "duration": 0.0187,
      "velocity": 88,
      "chip": "ym2612"
    },
    {
      "channel": 4,
      "note": 69,
      "start": 93.191,
      "duration": 0.0363,
      "velocity": 127,
      "chip": "ym2612"
    },
    {
      "channel": 0,
      "note": 78,
      "start": 93.2393,
      "duration": 0.1041,
      "velocity": 67,
      "chip": "ym2612"
    },
    {
      "channel": 1,
      "note": 52,
      "start": 93.2434,
      "duration": 0.0458,
      "velocity": 92,
      "chip": "ym2612"
    },
    {
      "channel": 3,
      "note": 73,
      "start": 93.248,
      "duration": 0.0155,
      "velocity": 88,
      "chip": "ym2612"
    },
    {
      "channel": 4,
      "note": 69,
      "start": 93.2534,
      "duration": 0.0373,
      "velocity": 127,
      "chip": "ym2612"
    },
    {
      "channel": 1,
      "note": 49,
      "start": 93.2982,
      "duration": 0.0463,
      "velocity": 92,
      "chip": "ym2612"
    },
    {
      "channel": 3,
      "note": 73,
      "start": 93.3028,
      "duration": 0.0183,
      "velocity": 88,
      "chip": "ym2612"
    },
    {
      "channel": 4,
      "note": 69,
      "start": 93.3074,
      "duration": 0.0388,
      "velocity": 127,
      "chip": "ym2612"
    },
    {
      "channel": 0,
      "note": 82,
      "start": 93.3532,
      "duration": 0.1071,
      "velocity": 67,
      "chip": "ym2612"
    },
    {
      "channel": 1,
      "note": 47,
      "start": 93.3579,
      "duration": 0.0462,
      "velocity": 92,
      "chip": "ym2612"
    },
    {
      "channel": 3,
      "note": 70,
      "start": 93.3626,
      "duration": 0.0194,
      "velocity": 88,
      "chip": "ym2612"
    },
    {
      "channel": 4,
      "note": 69,
      "start": 93.3673,
      "duration": 0.0383,
      "velocity": 127,
      "chip": "ym2612"
    },
    {
      "channel": 1,
      "note": 49,
      "start": 93.4135,
      "duration": 0.0509,
      "velocity": 92,
      "chip": "ym2612"
    },
    {
      "channel": 3,
      "note": 70,
      "start": 93.4181,
      "duration": 0.0201,
      "velocity": 88,
      "chip": "ym2612"
    },
    {
      "channel": 4,
      "note": 69,
      "start": 93.4223,
      "duration": 0.0384,
      "velocity": 127,
      "chip": "ym2612"
    },
    {
      "channel": 0,
      "note": 80,
      "start": 93.474,
      "duration": 1.1402,
      "velocity": 67,
      "chip": "ym2612"
    },
    {
      "channel": 1,
      "note": 44,
      "start": 93.4781,
      "duration": 0.0463,
      "velocity": 92,
      "chip": "ym2612"
    },
    {
      "channel": 3,
      "note": 80,
      "start": 93.4825,
      "duration": 0.0196,
      "velocity": 88,
      "chip": "ym2612"
    },
    {
      "channel": 4,
      "note": 66,
      "start": 93.4871,
      "duration": 0.0383,
      "velocity": 127,
      "chip": "ym2612"
    },
    {
      "channel": 5,
      "note": 80,
      "start": 93.4914,
      "duration": 0.0356,
      "velocity": 88,
      "chip": "ym2612"
    },
    {
      "channel": 1,
      "note": 51,
      "start": 93.5336,
      "duration": 0.0455,
      "velocity": 92,
      "chip": "ym2612"
    },
    {
      "channel": 4,
      "note": 66,
      "start": 93.5383,
      "duration": 0.0426,
      "velocity": 127,
      "chip": "ym2612"
    },
    {
      "channel": 5,
      "note": 75,
      "start": 93.5431,
      "duration": 0.0386,
      "velocity": 88,
      "chip": "ym2612"
    },
    {
      "channel": 1,
      "note": 56,
      "start": 93.5883,
      "duration": 0.0878,
      "velocity": 92,
      "chip": "ym2612"
    },
    {
      "channel": 3,
      "note": 68,
      "start": 93.5933,
      "duration": 0.0182,
      "velocity": 88,
      "chip": "ym2612"
    },
    {
      "channel": 5,
      "note": 78,
      "start": 93.5979,
      "duration": 0.0684,
      "velocity": 88,
      "chip": "ym2612"
    },
    {
      "channel": 1,
      "note": 44,
      "start": 93.691,
      "duration": 0.1284,
      "velocity": 92,
      "chip": "ym2612"
    },
    {
      "channel": 3,
      "note": 68,
      "start": 93.6964,
      "duration": 0.0413,
      "velocity": 88,
      "chip": "ym2612"
    },
    {
      "channel": 4,
      "note": 66,
      "start": 93.7018,
      "duration": 0.1198,
      "velocity": 127,
      "chip": "ym2612"
    },
    {
      "channel": 5,
      "note": 80,
      "start": 93.7071,
      "duration": 0.1163,
      "velocity": 88,
      "chip": "ym2612"
    },
    {
      "channel": 1,
      "note": 51,
      "start": 93.8342,
      "duration": 0.0526,
      "velocity": 92,
      "chip": "ym2612"
    },
    {
      "channel": 3,
      "note": 80,
      "start": 93.8396,
      "duration": 0.0244,
      "velocity": 88,
      "chip": "ym2612"
    },
    {
      "channel": 4,
      "note": 66,
      "start": 93.845,
      "duration": 0.0437,
      "velocity": 127,
      "chip": "ym2612"
    },
    {
      "channel": 5,
      "note": 78,
      "start": 93.8503,
      "duration": 0.0387,
      "velocity": 88,
      "chip": "ym2612"
    },
    {
      "channel": 1,
      "note": 54,
      "start": 93.8957,
      "duration": 0.0454,
      "velocity": 92,
      "chip": "ym2612"
    },
    {
      "channel": 3,
      "note": 68,
      "start": 93.9,
      "duration": 0.0187,
      "velocity": 88,
      "chip": "ym2612"
    },
    {
      "channel": 5,
      "note": 75,
      "start": 93.9047,
      "duration": 0.0396,
      "velocity": 88,
      "chip": "ym2612"
    },
    {
      "channel": 1,
      "note": 49,
      "start": 93.9511,
      "duration": 0.0514,
      "velocity": 92,
      "chip": "ym2612"
    },
    {
      "channel": 3,
      "note": 78,
      "start": 93.956,
      "duration": 0.021,
      "velocity": 88,
      "chip": "ym2612"
    },
    {
      "channel": 4,
      "note": 66,
      "start": 93.96,
      "duration": 0.0391,
      "velocity": 127,
      "chip": "ym2612"
    },
    {
      "channel": 5,
      "note": 73,
      "start": 93.9642,
      "duration": 0.0353,
      "velocity": 88,
      "chip": "ym2612"
    },
    {
      "channel": 1,
      "note": 51,
      "start": 94.0123,
      "duration": 0.0495,
      "velocity": 92,
      "chip": "ym2612"
    },
    {
      "channel": 3,
      "note": 83,
      "start": 94.0166,
      "duration": 0.0225,
      "velocity": 88,
      "chip": "ym2612"
    },
    {
      "channel": 4,
      "note": 66,
      "start": 94.0209,
      "duration": 0.0424,
      "velocity": 127,
      "chip": "ym2612"
    },
    {
      "channel": 5,
      "note": 71,
      "start": 94.0265,
      "duration": 0.0371,
      "velocity": 88,
      "chip": "ym2612"
    },
    {
      "channel": 1,
      "note": 44,
      "start": 94.071,
      "duration": 0.0726,
      "velocity": 92,
      "chip": "ym2612"
    },
    {
      "channel": 3,
      "note": 80,
      "start": 94.0756,
      "duration": 0.0182,
      "velocity": 88,
      "chip": "ym2612"
    },
    {
      "channel": 5,
      "note": 73,
      "start": 94.0799,
      "duration": 0.0663,
      "velocity": 88,
      "chip": "ym2612"
    },
    {
      "channel": 1,
      "note": 51,
      "start": 94.1584,
      "duration": 0.0516,
      "velocity": 92,
      "chip": "ym2612"
    },
    {
      "channel": 4,
      "note": 69,
      "start": 94.1639,
      "duration": 0.0433,
      "velocity": 127,
      "chip": "ym2612"
    },
    {
      "channel": 5,
      "note": 71,
      "start": 94.1692,
      "duration": 0.0382,
      "velocity": 88,
      "chip": "ym2612"
    },
    {
      "channel": 1,
      "note": 56,
      "start": 94.2203,
      "duration": 0.0853,
      "velocity": 92,
      "chip": "ym2612"
    },
    {
      "channel": 3,
      "note": 68,
      "start": 94.2249,
      "duration": 0.0177,
      "velocity": 88,
      "chip": "ym2612"
    },
    {
      "channel": 4,
      "note": 69,
      "start": 94.2297,
      "duration": 0.0781,
      "velocity": 127,
      "chip": "ym2612"
    },
    {
      "channel": 5,
      "note": 68,
      "start": 94.2338,
      "duration": 0.0759,
      "velocity": 88,
      "chip": "ym2612"
    },
    {
      "channel": 1,
      "note": 44,
      "start": 94.3204,
      "duration": 0.0523,
      "velocity": 92,
      "chip": "ym2612"
    },
    {
      "channel": 3,
      "note": 68,
      "start": 94.3259,
      "duration": 0.0241,
      "velocity": 88,
      "chip": "ym2612"
    },
    {
      "channel": 4,
      "note": 69,
      "start": 94.3312,
      "duration": 0.0433,
      "velocity": 127,
      "chip": "ym2612"
    },
    {
      "channel": 5,
      "note": 73,
      "start": 94.3365,
      "duration": 0.0395,
      "velocity": 88,
      "chip": "ym2612"
    },
    {
      "channel": 1,
      "note": 54,
      "start": 94.3824,
      "duration": 0.0495,
      "velocity": 92,
      "chip": "ym2612"
    },
    {
      "channel": 3,
      "note": 80,
      "start": 94.387,
      "duration": 0.0229,
      "velocity": 88,
      "chip": "ym2612"
    },
    {
      "channel": 4,
      "note": 69,
      "start": 94.3919,
      "duration": 0.042,
      "velocity": 127,
      "chip": "ym2612"
    },
    {
      "channel": 5,
      "note": 71,
      "start": 94.397,
      "duration": 0.0383,
      "velocity": 88,
      "chip": "ym2612"
    },
    {
      "channel": 1,
      "note": 51,
      "start": 94.4421,
      "duration": 0.0518,
      "velocity": 92,
      "chip": "ym2612"
    },
    {
      "channel": 3,
      "note": 68,
      "start": 94.4467,
      "duration": 0.0213,
      "velocity": 88,
      "chip": "ym2612"
    },
    {
      "channel": 4,
      "note": 69,
      "start": 94.451,
      "duration": 0.0398,
      "velocity": 127,
      "chip": "ym2612"
    },
    {
      "channel": 5,
      "note": 68,
      "start": 94.4558,
      "duration": 0.0353,
      "velocity": 88,
      "chip": "ym2612"
    },
    {
      "channel": 1,
      "note": 49,
      "start": 94.5039,
      "duration": 0.0511,
      "velocity": 92,
      "chip": "ym2612"
    },
    {
      "channel": 3,
      "note": 78,
      "start": 94.5082,
      "duration": 0.0244,
      "velocity": 88,
      "chip": "ym2612"
    },
    {
      "channel": 4,
      "note": 69,
      "start": 94.5133,
      "duration": 0.0432,
      "velocity": 127,
      "chip": "ym2612"
    },
    {
      "channel": 5,
      "note": 63,
      "start": 94.5183,
      "duration": 0.0397,
      "velocity": 88,
      "chip": "ym2612"
    },
    {
      "channel": 1,
      "note": 51,
      "start": 94.5645,
      "duration": 0.0499,
      "velocity": 92,
      "chip": "ym2612"
    },
    {
      "channel": 3,
      "note": 83,
      "start": 94.5688,
      "duration": 0.0232,
      "velocity": 88,
      "chip": "ym2612"
    },
    {
      "channel": 4,
      "note": 69,
      "start": 94.5732,
      "duration": 0.0431,
      "velocity": 127,
      "chip": "ym2612"
    },
    {
      "channel": 5,
      "note": 66,
      "start": 94.5774,
      "duration": 0.0408,
      "velocity": 88,
      "chip": "ym2612"
    },
    {
      "channel": 1,
      "note": 44,
      "start": 94.6246,
      "duration": 0.0512,
      "velocity": 92,
      "chip": "ym2612"
    },
    {
      "channel": 3,
      "note": 80,
      "start": 94.629,
      "duration": 0.0215,
      "velocity": 88,
      "chip": "ym2612"
    },
    {
      "channel": 4,
      "note": 66,
      "start": 94.6335,
      "duration": 0.0394,
      "velocity": 127,
      "chip": "ym2612"
    },
    {
      "channel": 5,
      "note": 80,
      "start": 94.6378,
      "duration": 0.0354,
      "velocity": 88,
      "chip": "ym2612"
    },
    {
      "channel": 1,
      "note": 51,
      "start": 94.685,
      "duration": 0.0463,
      "velocity": 92,
      "chip": "ym2612"
    },
    {
      "channel": 4,
      "note": 66,
      "start": 94.6901,
      "duration": 0.0427,
      "velocity": 127,
      "chip": "ym2612"
    },
    {
      "channel": 5,
      "note": 75,
      "start": 94.6944,
      "duration": 0.0386,
      "velocity": 88,
      "chip": "ym2612"
    },
    {
      "channel": 1,
      "note": 56,
      "start": 94.7402,
      "duration": 0.0771,
      "velocity": 92,
      "chip": "ym2612"
    },
    {
      "channel": 3,
      "note": 68,
      "start": 94.7446,
      "duration": 0.0181,
      "velocity": 88,
      "chip": "ym2612"
    },
    {
      "channel": 5,
      "note": 78,
      "start": 94.7493,
      "duration": 0.0713,
      "velocity": 88,
      "chip": "ym2612"
    },
    {
      "channel": 1,
      "note": 44,
      "start": 94.8321,
      "duration": 0.1284,
      "velocity": 92,
      "chip": "ym2612"
    },
    {
      "channel": 3,
      "note": 68,
      "start": 94.8375,
      "duration": 0.0515,
      "velocity": 88,
      "chip": "ym2612"
    },
    {
      "channel": 4,
      "note": 66,
      "start": 94.8429,
      "duration": 0.1197,
      "velocity": 127,
      "chip": "ym2612"
    },
    {
      "channel": 5,
      "note": 80,
      "start": 94.8482,
      "duration": 0.1163,
      "velocity": 88,
      "chip": "ym2612"
    },
    {
      "channel": 1,
      "note": 51,
      "start": 94.9753,
      "duration": 0.0549,
      "velocity": 92,
      "chip": "ym2612"
    },
    {
      "channel": 3,
      "note": 80,
      "start": 94.9807,
      "duration": 0.0241,
      "velocity": 88,
      "chip": "ym2612"
    },
    {
      "channel": 4,
      "note": 66,
      "start": 94.9861,
      "duration": 0.0413,
      "velocity": 127,
      "chip": "ym2612"
    },
    {
      "channel": 5,
      "note": 78,
      "start": 94.9914,
      "duration": 0.0362,
      "velocity": 88,
      "chip": "ym2612"
    },
    {
      "channel": 1,
      "note": 54,
      "start": 95.0383,
      "duration": 0.0422,
      "velocity": 92,
      "chip": "ym2612"
    },
    {
      "channel": 5,
      "note": 75,
      "start": 95.0428,
      "duration": 0.0406,
      "velocity": 88,
      "chip": "ym2612"
    },
    {
      "channel": 1,
      "note": 49,
      "start": 95.0905,
      "duration": 0.0483,
      "velocity": 92,
      "chip": "ym2612"
    },
    {
      "channel": 3,
      "note": 68,
      "start": 95.0951,
      "duration": 0.0212,
      "velocity": 88,
      "chip": "ym2612"
    },
    {
      "channel": 4,
      "note": 66,
      "start": 95.0994,
      "duration": 0.0413,
      "velocity": 127,
      "chip": "ym2612"
    },
    {
      "channel": 5,
      "note": 73,
      "start": 95.1039,
      "duration": 0.0382,
      "velocity": 88,
      "chip": "ym2612"
    },
    {
      "channel": 1,
      "note": 51,
      "start": 95.1485,
      "duration": 0.0534,
      "velocity": 92,
      "chip": "ym2612"
    },
    {
      "channel": 3,
      "note": 80,
      "start": 95.1527,
      "duration": 0.0234,
      "velocity": 88,
      "chip": "ym2612"
    },
    {
      "channel": 4,
      "note": 66,
      "start": 95.1572,
      "duration": 0.0419,
      "velocity": 127,
      "chip": "ym2612"
    },
    {
      "channel": 5,
      "note": 71,
      "start": 95.1629,
      "duration": 0.0364,
      "velocity": 88,
      "chip": "ym2612"
    },
    {
      "channel": 1,
      "note": 44,
      "start": 95.2108,
      "duration": 0.0819,
      "velocity": 92,
      "chip": "ym2612"
    },
    {
      "channel": 5,
      "note": 73,
      "start": 95.2155,
      "duration": 0.0804,
      "velocity": 88,
      "chip": "ym2612"
    },
    {
      "channel": 1,
      "note": 51,
      "start": 95.3075,
      "duration": 0.053,
      "velocity": 92,
      "chip": "ym2612"
    },
    {
      "channel": 3,
      "note": 80,
      "start": 95.3128,
      "duration": 0.0244,
      "velocity": 88,
      "chip": "ym2612"
    },
    {
      "channel": 4,
      "note": 69,
      "start": 95.3182,
      "duration": 0.0435,
      "velocity": 127,
      "chip": "ym2612"
    },
    {
      "channel": 5,
      "note": 71,
      "start": 95.3236,
      "duration": 0.0396,
      "velocity": 88,
      "chip": "ym2612"
    },
    {
      "channel": 1,
      "note": 56,
      "start": 95.3698,
      "duration": 0.0746,
      "velocity": 92,
      "chip": "ym2612"
    },
    {
      "channel": 4,
      "note": 69,
      "start": 95.3741,
      "duration": 0.0725,
      "velocity": 127,
      "chip": "ym2612"
    },
    {
      "channel": 5,
      "note": 68,
      "start": 95.3785,
      "duration": 0.07,
      "velocity": 88,
      "chip": "ym2612"
    },
    {
      "channel": 1,
      "note": 44,
      "start": 95.4592,
      "duration": 0.0552,
      "velocity": 92,
      "chip": "ym2612"
    },
    {
      "channel": 3,
      "note": 80,
      "start": 95.4647,
      "duration": 0.0243,
      "velocity": 88,
      "chip": "ym2612"
    },
    {
      "channel": 4,
      "note": 69,
      "start": 95.47,
      "duration": 0.0415,
      "velocity": 127,
      "chip": "ym2612"
    },
    {
      "channel": 5,
      "note": 73,
      "start": 95.4753,
      "duration": 0.0366,
      "velocity": 88,
      "chip": "ym2612"
    },
    {
      "channel": 1,
      "note": 54,
      "start": 95.5239,
      "duration": 0.0472,
      "velocity": 92,
      "chip": "ym2612"
    },
    {
      "channel": 4,
      "note": 69,
      "start": 95.5286,
      "duration": 0.0443,
      "velocity": 127,
      "chip": "ym2612"
    },
    {
      "channel": 5,
      "note": 71,
      "start": 95.5336,
      "duration": 0.0412,
      "velocity": 88,
      "chip": "ym2612"
    },
    {
      "channel": 1,
      "note": 51,
      "start": 95.5809,
      "duration": 0.0483,
      "velocity": 92,
      "chip": "ym2612"
    },
    {
      "channel": 3,
      "note": 68,
      "start": 95.5856,
      "duration": 0.0209,
      "velocity": 88,
      "chip": "ym2612"
    },
    {
      "channel": 4,
      "note": 69,
      "start": 95.59,
      "duration": 0.0411,
      "velocity": 127,
      "chip": "ym2612"
    },
    {
      "channel": 5,
      "note": 68,
      "start": 95.5941,
      "duration": 0.0383,
      "velocity": 88,
      "chip": "ym2612"
    },
    {
      "channel": 1,
      "note": 49,
      "start": 95.639,
      "duration": 0.0531,
      "velocity": 92,
      "chip": "ym2612"
    },
    {
      "channel": 3,
      "note": 80,
      "start": 95.6433,
      "duration": 0.023,
      "velocity": 88,
      "chip": "ym2612"
    },
    {
      "channel": 4,
      "note": 69,
      "start": 95.6476,
      "duration": 0.0412,
      "velocity": 127,
      "chip": "ym2612"
    },
    {
      "channel": 5,
      "note": 63,
      "start": 95.6518,
      "duration": 0.0373,
      "velocity": 88,
      "chip": "ym2612"
    },
    {
      "channel": 1,
      "note": 51,
      "start": 95.702,
      "duration": 0.0512,
      "velocity": 92,
      "chip": "ym2612"
    },
    {
      "channel": 3,
      "note": 68,
      "start": 95.7067,
      "duration": 0.0203,
      "velocity": 88,
      "chip": "ym2612"
    },
    {
      "channel": 4,
      "note": 69,
      "start": 95.7114,
      "duration": 0.0436,
      "velocity": 127,
      "chip": "ym2612"
    },
    {
      "channel": 5,
      "note": 66,
      "start": 95.7155,
      "duration": 0.0406,
      "velocity": 88,
      "chip": "ym2612"
    },
    {
      "channel": 0,
      "note": 82,
      "start": 95.7627,
      "duration": 0.0476,
      "velocity": 67,
      "chip": "ym2612"
    },
    {
      "channel": 1,
      "note": 42,
      "start": 95.7669,
      "duration": 0.0438,
      "velocity": 92,
      "chip": "ym2612"
    },
    {
      "channel": 3,
      "note": 82,
      "start": 95.7712,
      "duration": 0.017,
      "velocity": 88,
      "chip": "ym2612"
    },
    {
      "channel": 4,
      "note": 66,
      "start": 95.7759,
      "duration": 0.0365,
      "velocity": 127,
      "chip": "ym2612"
    },
    {
      "channel": 1,
      "note": 49,
      "start": 95.8194,
      "duration": 0.0475,
      "velocity": 92,
      "chip": "ym2612"
    },
    {
      "channel": 3,
      "note": 70,
      "start": 95.824,
      "duration": 0.0195,
      "velocity": 88,
      "chip": "ym2612"
    },
    {
      "channel": 4,
      "note": 66,
      "start": 95.8283,
      "duration": 0.0401,
      "velocity": 127,
      "chip": "ym2612"
    },
    {
      "channel": 0,
      "note": 82,
      "start": 95.8751,
      "duration": 0.0768,
      "velocity": 67,
      "chip": "ym2612"
    },
    {
      "channel": 1,
      "note": 54,
      "start": 95.8793,
      "duration": 0.0831,
      "velocity": 92,
      "chip": "ym2612"
    },
    {
      "channel": 3,
      "note": 70,
      "start": 95.8836,
      "duration": 0.014,
      "velocity": 88,
      "chip": "ym2612"
    },
    {
      "channel": 1,
      "note": 42,
      "start": 95.977,
      "duration": 0.129,
      "velocity": 92,
      "chip": "ym2612"
    },
    {
      "channel": 3,
      "note": 78,
      "start": 95.9824,
      "duration": 0.0516,
      "velocity": 88,
      "chip": "ym2612"
    },
    {
      "channel": 4,
      "note": 66,
      "start": 95.9878,
      "duration": 0.1204,
      "velocity": 127,
      "chip": "ym2612"
    },
    {
      "channel": 0,
      "note": 82,
      "start": 96.1202,
      "duration": 0.1049,
      "velocity": 67,
      "chip": "ym2612"
    },
    {
      "channel": 1,
      "note": 49,
      "start": 96.1256,
      "duration": 0.0468,
      "velocity": 92,
      "chip": "ym2612"
    },
    {
      "channel": 3,
      "note": 70,
      "start": 96.131,
      "duration": 0.0189,
      "velocity": 88,
      "chip": "ym2612"
    },
    {
      "channel": 4,
      "note": 66,
      "start": 96.1363,
      "duration": 0.038,
      "velocity": 127,
      "chip": "ym2612"
    },
    {
      "channel": 1,
      "note": 52,
      "start": 96.1808,
      "duration": 0.0483,
      "velocity": 92,
      "chip": "ym2612"
    },
    {
      "channel": 3,
      "note": 70,
      "start": 96.1859,
      "duration": 0.0165,
      "velocity": 88,
      "chip": "ym2612"
    },
    {
      "channel": 0,
      "note": 80,
      "start": 96.2381,
      "duration": 0.0502,
      "velocity": 67,
      "chip": "ym2612"
    },
    {
      "channel": 1,
      "note": 47,
      "start": 96.2427,
      "duration": 0.0467,
      "velocity": 92,
      "chip": "ym2612"
    },
    {
      "channel": 3,
      "note": 78,
      "start": 96.247,
      "duration": 0.0161,
      "velocity": 88,
      "chip": "ym2612"
    },
    {
      "channel": 4,
      "note": 66,
      "start": 96.2512,
      "duration": 0.04,
      "velocity": 127,
      "chip": "ym2612"
    },
    {
      "channel": 0,
      "note": 82,
      "start": 96.2979,
      "duration": 0.6394,
      "velocity": 67,
      "chip": "ym2612"
    },
    {
      "channel": 1,
      "note": 49,
      "start": 96.3022,
      "duration": 0.0452,
      "velocity": 92,
      "chip": "ym2612"
    },
    {
      "channel": 3,
      "note": 70,
      "start": 96.307,
      "duration": 0.0181,
      "velocity": 88,
      "chip": "ym2612"
    },
    {
      "channel": 4,
      "note": 66,
      "start": 96.3124,
      "duration": 0.0364,
      "velocity": 127,
      "chip": "ym2612"
    },
    {
      "channel": 1,
      "note": 42,
      "start": 96.3553,
      "duration": 0.0739,
      "velocity": 92,
      "chip": "ym2612"
    },
    {
      "channel": 3,
      "note": 82,
      "start": 96.3596,
      "duration": 0.0162,
      "velocity": 88,
      "chip": "ym2612"
    },
    {
      "channel": 1,
      "note": 49,
      "start": 96.4439,
      "duration": 0.0527,
      "velocity": 92,
      "chip": "ym2612"
    },
    {
      "channel": 3,
      "note": 70,
      "start": 96.4493,
      "duration": 0.0216,
      "velocity": 88,
      "chip": "ym2612"
    },
    {
      "channel": 4,
      "note": 69,
      "start": 96.4547,
      "duration": 0.0385,
      "velocity": 127,
      "chip": "ym2612"
    },
    {
      "channel": 1,
      "note": 54,
      "start": 96.5056,
      "duration": 0.0854,
      "velocity": 92,
      "chip": "ym2612"
    },
    {
      "channel": 3,
      "note": 70,
      "start": 96.5098,
      "duration": 0.0184,
      "velocity": 88,
      "chip": "ym2612"
    },
    {
      "channel": 4,
      "note": 69,
      "start": 96.5141,
      "duration": 0.079,
      "velocity": 127,
      "chip": "ym2612"
    },
    {
      "channel": 1,
      "note": 42,
      "start": 96.6057,
      "duration": 0.0485,
      "velocity": 92,
      "chip": "ym2612"
    },
    {
      "channel": 3,
      "note": 78,
      "start": 96.6112,
      "duration": 0.021,
      "velocity": 88,
      "chip": "ym2612"
    },
    {
      "channel": 4,
      "note": 69,
      "start": 96.6166,
      "duration": 0.0391,
      "velocity": 127,
      "chip": "ym2612"
    },
    {
      "channel": 1,
      "note": 52,
      "start": 96.6637,
      "duration": 0.0509,
      "velocity": 92,
      "chip": "ym2612"
    },
    {
      "channel": 3,
      "note": 70,
      "start": 96.6686,
      "duration": 0.0207,
      "velocity": 88,
      "chip": "ym2612"
    },
    {
      "channel": 4,
      "note": 69,
      "start": 96.6747,
      "duration": 0.0368,
      "velocity": 127,
      "chip": "ym2612"
    },
    {
      "channel": 1,
      "note": 49,
      "start": 96.7239,
      "duration": 0.0456,
      "velocity": 92,
      "chip": "ym2612"
    },
    {
      "channel": 3,
      "note": 70,
      "start": 96.7281,
      "duration": 0.0159,
      "velocity": 88,
      "chip": "ym2612"
    },
    {
      "channel": 4,
      "note": 69,
      "start": 96.7328,
      "duration": 0.0389,
      "velocity": 127,
      "chip": "ym2612"
    },
    {
      "channel": 1,
      "note": 47,
      "start": 96.7789,
      "duration": 0.046,
      "velocity": 92,
      "chip": "ym2612"
    },
    {
      "channel": 3,
      "note": 78,
      "start": 96.7835,
      "duration": 0.0187,
      "velocity": 88,
      "chip": "ym2612"
    },
    {
      "channel": 4,
      "note": 69,
      "start": 96.7881,
      "duration": 0.0387,
      "velocity": 127,
      "chip": "ym2612"
    },
    {
      "channel": 1,
      "note": 49,
      "start": 96.8345,
      "duration": 0.048,
      "velocity": 92,
      "chip": "ym2612"
    },
    {
      "channel": 3,
      "note": 78,
      "start": 96.8392,
      "duration": 0.0206,
      "velocity": 88,
      "chip": "ym2612"
    },
    {
      "channel": 4,
      "note": 69,
      "start": 96.8434,
      "duration": 0.0406,
      "velocity": 127,
      "chip": "ym2612"
    },
    {
      "channel": 1,
      "note": 42,
      "start": 96.8917,
      "duration": 0.0487,
      "velocity": 92,
      "chip": "ym2612"
    },
    {
      "channel": 3,
      "note": 82,
      "start": 96.8959,
      "duration": 0.0187,
      "velocity": 88,
      "chip": "ym2612"
    },
    {
      "channel": 4,
      "note": 66,
      "start": 96.9002,
      "duration": 0.0375,
      "velocity": 127,
      "chip": "ym2612"
    },
    {
      "channel": 1,
      "note": 49,
      "start": 96.9501,
      "duration": 0.0461,
      "velocity": 92,
      "chip": "ym2612"
    },
    {
      "channel": 3,
      "note": 70,
      "start": 96.9544,
      "duration": 0.0185,
      "velocity": 88,
      "chip": "ym2612"
    },
    {
      "channel": 4,
      "note": 66,
      "start": 96.9587,
      "duration": 0.0395,
      "velocity": 127,
      "chip": "ym2612"
    },
    {
      "channel": 0,
      "note": 82,
      "start": 97.0047,
      "duration": 0.0772,
      "velocity": 67,
      "chip": "ym2612"
    },
    {
      "channel": 1,
      "note": 54,
      "start": 97.0089,
      "duration": 0.0738,
      "velocity": 92,
      "chip": "ym2612"
    },
    {
      "channel": 3,
      "note": 70,
      "start": 97.0133,
      "duration": 0.0143,
      "velocity": 88,
      "chip": "ym2612"
    },
    {
      "channel": 1,
      "note": 42,
      "start": 97.097,
      "duration": 0.1391,
      "velocity": 92,
      "chip": "ym2612"
    },
    {
      "channel": 3,
      "note": 78,
      "start": 97.1023,
      "duration": 0.0513,
      "velocity": 88,
      "chip": "ym2612"
    },
    {
      "channel": 4,
      "note": 66,
      "start": 97.1077,
      "duration": 0.1177,
      "velocity": 127,
      "chip": "ym2612"
    },
    {
      "channel": 0,
      "note": 82,
      "start": 97.2502,
      "duration": 0.053,
      "velocity": 67,
      "chip": "ym2612"
    },
    {
      "channel": 1,
      "note": 49,
      "start": 97.2554,
      "duration": 0.048,
      "velocity": 92,
      "chip": "ym2612"
    },
    {
      "channel": 3,
      "note": 70,
      "start": 97.261,
      "duration": 0.0157,
      "velocity": 88,
      "chip": "ym2612"
    },
    {
      "channel": 4,
      "note": 66,
      "start": 97.2662,
      "duration": 0.0387,
      "velocity": 127,
      "chip": "ym2612"
    },
    {
      "channel": 1,
      "note": 52,
      "start": 97.3111,
      "duration": 0.0436,
      "velocity": 92,
      "chip": "ym2612"
    },
    {
      "channel": 3,
      "note": 70,
      "start": 97.3159,
      "duration": 0.0156,
      "velocity": 88,
      "chip": "ym2612"
    },
    {
      "channel": 0,
      "note": 82,
      "start": 97.3632,
      "duration": 0.0486,
      "velocity": 67,
      "chip": "ym2612"
    },
    {
      "channel": 1,
      "note": 47,
      "start": 97.3676,
      "duration": 0.0453,
      "velocity": 92,
      "chip": "ym2612"
    },
    {
      "channel": 3,
      "note": 78,
      "start": 97.3718,
      "duration": 0.0174,
      "velocity": 88,
      "chip": "ym2612"
    },
    {
      "channel": 4,
      "note": 66,
      "start": 97.376,
      "duration": 0.0386,
      "velocity": 127,
      "chip": "ym2612"
    },
    {
      "channel": 0,
      "note": 83,
      "start": 97.4213,
      "duration": 0.1439,
      "velocity": 67,
      "chip": "ym2612"
    },
    {
      "channel": 1,
      "note": 49,
      "start": 97.4256,
      "duration": 0.0498,
      "velocity": 92,
      "chip": "ym2612"
    },
    {
      "channel": 3,
      "note": 70,
      "start": 97.4301,
      "duration": 0.0192,
      "velocity": 88,
      "chip": "ym2612"
    },
    {
      "channel": 4,
      "note": 66,
      "start": 97.4358,
      "duration": 0.036,
      "velocity": 127,
      "chip": "ym2612"
    },
    {
      "channel": 1,
      "note": 42,
      "start": 97.4835,
      "duration": 0.0831,
      "velocity": 92,
      "chip": "ym2612"
    },
    {
      "channel": 3,
      "note": 82,
      "start": 97.4881,
      "duration": 0.0165,
      "velocity": 88,
      "chip": "ym2612"
    },
    {
      "channel": 0,
      "note": 82,
      "start": 97.5801,
      "duration": 0.0526,
      "velocity": 67,
      "chip": "ym2612"
    },
    {
      "channel": 1,
      "note": 49,
      "start": 97.5854,
      "duration": 0.0476,
      "velocity": 92,
      "chip": "ym2612"
    },
    {
      "channel": 3,
      "note": 70,
      "start": 97.5909,
      "duration": 0.0188,
      "velocity": 88,
      "chip": "ym2612"
    },
    {
      "channel": 4,
      "note": 69,
      "start": 97.5962,
      "duration": 0.0382,
      "velocity": 127,
      "chip": "ym2612"
    },
    {
      "channel": 1,
      "note": 54,
      "start": 97.642,
      "duration": 0.0853,
      "velocity": 92,
      "chip": "ym2612"
    },
    {
      "channel": 3,
      "note": 78,
      "start": 97.6465,
      "duration": 0.018,
      "velocity": 88,
      "chip": "ym2612"
    },
    {
      "channel": 4,
      "note": 69,
      "start": 97.6507,
      "duration": 0.066,
      "velocity": 127,
      "chip": "ym2612"
    },
    {
      "channel": 0,
      "note": 82,
      "start": 97.7414,
      "duration": 0.0527,
      "velocity": 67,
      "chip": "ym2612"
    },
    {
      "channel": 1,
      "note": 42,
      "start": 97.7468,
      "duration": 0.0484,
      "velocity": 92,
      "chip": "ym2612"
    },
    {
      "channel": 3,
      "note": 70,
      "start": 97.7522,
      "duration": 0.0159,
      "velocity": 88,
      "chip": "ym2612"
    },
    {
      "channel": 4,
      "note": 69,
      "start": 97.7575,
      "duration": 0.0395,
      "velocity": 127,
      "chip": "ym2612"
    },
    {
      "channel": 0,
      "note": 78,
      "start": 97.8042,
      "duration": 0.1046,
      "velocity": 67,
      "chip": "ym2612"
    },
    {
      "channel": 1,
      "note": 52,
      "start": 97.8088,
      "duration": 0.0447,
      "velocity": 92,
      "chip": "ym2612"
    },
    {
      "channel": 3,
      "note": 73,
      "start": 97.8132,
      "duration": 0.0176,
      "velocity": 88,
      "chip": "ym2612"
    },
    {
      "channel": 4,
      "note": 69,
      "start": 97.8176,
      "duration": 0.0378,
      "velocity": 127,
      "chip": "ym2612"
    },
    {
      "channel": 1,
      "note": 49,
      "start": 97.8627,
      "duration": 0.0471,
      "velocity": 92,
      "chip": "ym2612"
    },
    {
      "channel": 3,
      "note": 73,
      "start": 97.8674,
      "duration": 0.0183,
      "velocity": 88,
      "chip": "ym2612"
    },
    {
      "channel": 4,
      "note": 69,
      "start": 97.872,
      "duration": 0.0394,
      "velocity": 127,
      "chip": "ym2612"
    },
    {
      "channel": 0,
      "note": 82,
      "start": 97.9185,
      "duration": 0.1117,
      "velocity": 67,
      "chip": "ym2612"
    },
    {
      "channel": 1,
      "note": 47,
      "start": 97.9233,
      "duration": 0.049,
      "velocity": 92,
      "chip": "ym2612"
    },
    {
      "channel": 3,
      "note": 70,
      "start": 97.9281,
      "duration": 0.0184,
      "velocity": 88,
      "chip": "ym2612"
    },
    {
      "channel": 4,
      "note": 69,
      "start": 97.9322,
      "duration": 0.0373,
      "velocity": 127,
      "chip": "ym2612"
    },
    {
      "channel": 1,
      "note": 49,
      "start": 97.9818,
      "duration": 0.0497,
      "velocity": 92,
      "chip": "ym2612"
    },
    {
      "channel": 3,
      "note": 70,
      "start": 97.9861,
      "duration": 0.0211,
      "velocity": 88,
      "chip": "ym2612"
    },
    {
      "channel": 4,
      "note": 69,
      "start": 97.9908,
      "duration": 0.0418,
      "velocity": 127,
      "chip": "ym2612"
    },
    {
      "channel": 0,
      "note": 80,
      "start": 98.0398,
      "duration": 1.5691,
      "velocity": 67,
      "chip": "ym2612"
    },
    {
      "channel": 3,
      "note": 80,
      "start": 98.0446,
      "duration": 0.022,
      "velocity": 88,
      "chip": "ym2612"
    },
    {
      "channel": 4,
      "note": 66,
      "start": 98.0492,
      "duration": 0.0403,
      "velocity": 127,
      "chip": "ym2612"
    },
    {
      "channel": 5,
      "note": 80,
      "start": 98.0539,
      "duration": 0.0371,
      "velocity": 88,
      "chip": "ym2612"
    },
    {
      "channel": 4,
      "note": 66,
      "start": 98.0984,
      "duration": 0.0434,
      "velocity": 127,
      "chip": "ym2612"
    },
    {
      "channel": 5,
      "note": 75,
      "start": 98.1026,
      "duration": 0.0395,
      "velocity": 88,
      "chip": "ym2612"
    },
    {
      "channel": 3,
      "note": 68,
      "start": 98.1541,
      "duration": 0.0168,
      "velocity": 88,
      "chip": "ym2612"
    },
    {
      "channel": 5,
      "note": 78,
      "start": 98.1587,
      "duration": 0.0865,
      "velocity": 88,
      "chip": "ym2612"
    },
    {
      "channel": 3,
      "note": 68,
      "start": 98.2583,
      "duration": 0.0567,
      "velocity": 88,
      "chip": "ym2612"
    },
    {
      "channel": 4,
      "note": 66,
      "start": 98.2637,
      "duration": 0.1237,
      "velocity": 127,
      "chip": "ym2612"
    },
    {
      "channel": 5,
      "note": 80,
      "start": 98.269,
      "duration": 0.1202,
      "velocity": 88,
      "chip": "ym2612"
    },
    {
      "channel": 3,
      "note": 80,
      "start": 98.4016,
      "duration": 0.0264,
      "velocity": 88,
      "chip": "ym2612"
    },
    {
      "channel": 4,
      "note": 66,
      "start": 98.4068,
      "duration": 0.0445,
      "velocity": 127,
      "chip": "ym2612"
    },
    {
      "channel": 5,
      "note": 78,
      "start": 98.4122,
      "duration": 0.0393,
      "velocity": 88,
      "chip": "ym2612"
    },
    {
      "channel": 3,
      "note": 68,
      "start": 98.4592,
      "duration": 0.0199,
      "velocity": 88,
      "chip": "ym2612"
    },
    {
      "channel": 5,
      "note": 75,
      "start": 98.4636,
      "duration": 0.0387,
      "velocity": 88,
      "chip": "ym2612"
    },
    {
      "channel": 3,
      "note": 78,
      "start": 98.5147,
      "duration": 0.0251,
      "velocity": 88,
      "chip": "ym2612"
    },
    {
      "channel": 4,
      "note": 66,
      "start": 98.5188,
      "duration": 0.0445,
      "velocity": 127,
      "chip": "ym2612"
    },
    {
      "channel": 5,
      "note": 73,
      "start": 98.525,
      "duration": 0.0399,
      "velocity": 88,
      "chip": "ym2612"
    },
    {
      "channel": 3,
      "note": 83,
      "start": 98.5721,
      "duration": 0.0233,
      "velocity": 88,
      "chip": "ym2612"
    },
    {
      "channel": 4,
      "note": 66,
      "start": 98.5763,
      "duration": 0.0427,
      "velocity": 127,
      "chip": "ym2612"
    },
    {
      "channel": 5,
      "note": 71,
      "start": 98.5806,
      "duration": 0.0387,
      "velocity": 88,
      "chip": "ym2612"
    },
    {
      "channel": 3,
      "note": 80,
      "start": 98.6263,
      "duration": 0.0214,
      "velocity": 88,
      "chip": "ym2612"
    },
    {
      "channel": 5,
      "note": 73,
      "start": 98.6314,
      "duration": 0.0744,
      "velocity": 88,
      "chip": "ym2612"
    },
    {
      "channel": 4,
      "note": 69,
      "start": 98.7307,
      "duration": 0.046,
      "velocity": 127,
      "chip": "ym2612"
    },
    {
      "channel": 5,
      "note": 71,
      "start": 98.7361,
      "duration": 0.042,
      "velocity": 88,
      "chip": "ym2612"
    },
    {
      "channel": 3,
      "note": 68,
      "start": 98.7849,
      "duration": 0.0226,
      "velocity": 88,
      "chip": "ym2612"
    },
    {
      "channel": 4,
      "note": 69,
      "start": 98.7891,
      "duration": 0.0794,
      "velocity": 127,
      "chip": "ym2612"
    },
    {
      "channel": 5,
      "note": 68,
      "start": 98.7935,
      "duration": 0.0769,
      "velocity": 88,
      "chip": "ym2612"
    },
    {
      "channel": 3,
      "note": 68,
      "start": 98.8827,
      "duration": 0.0262,
      "velocity": 88,
      "chip": "ym2612"
    },
    {
      "channel": 4,
      "note": 69,
      "start": 98.888,
      "duration": 0.0446,
      "velocity": 127,
      "chip": "ym2612"
    },
    {
      "channel": 5,
      "note": 73,
      "start": 98.8933,
      "duration": 0.0408,
      "velocity": 88,
      "chip": "ym2612"
    },
    {
      "channel": 3,
      "note": 80,
      "start": 98.9417,
      "duration": 0.0234,
      "velocity": 88,
      "chip": "ym2612"
    },
    {
      "channel": 4,
      "note": 69,
      "start": 98.946,
      "duration": 0.042,
      "velocity": 127,
      "chip": "ym2612"
    },
    {
      "channel": 5,
      "note": 71,
      "start": 98.9507,
      "duration": 0.0374,
      "velocity": 88,
      "chip": "ym2612"
    },
    {
      "channel": 3,
      "note": 68,
      "start": 99.0001,
      "duration": 0.0229,
      "velocity": 88,
      "chip": "ym2612"
    },
    {
      "channel": 4,
      "note": 69,
      "start": 99.0044,
      "duration": 0.0416,
      "velocity": 127,
      "chip": "ym2612"
    },
    {
      "channel": 5,
      "note": 68,
      "start": 99.0088,
      "duration": 0.0386,
      "velocity": 88,
      "chip": "ym2612"
    },
    {
      "channel": 3,
      "note": 78,
      "start": 99.0545,
      "duration": 0.0237,
      "velocity": 88,
      "chip": "ym2612"
    },
    {
      "channel": 4,
      "note": 69,
      "start": 99.0591,
      "duration": 0.0424,
      "velocity": 127,
      "chip": "ym2612"
    },
    {
      "channel": 5,
      "note": 63,
      "start": 99.064,
      "duration": 0.039,
      "velocity": 88,
      "chip": "ym2612"
    },
    {
      "channel": 3,
      "note": 83,
      "start": 99.1103,
      "duration": 0.0247,
      "velocity": 88,
      "chip": "ym2612"
    },
    {
      "channel": 4,
      "note": 69,
      "start": 99.1145,
      "duration": 0.0432,
      "velocity": 127,
      "chip": "ym2612"
    },
    {
      "channel": 5,
      "note": 66,
      "start": 99.1187,
      "duration": 0.0393,
      "velocity": 88,
      "chip": "ym2612"
    },
    {
      "channel": 3,
      "note": 80,
      "start": 99.1702,
      "duration": 0.02,
      "velocity": 88,
      "chip": "ym2612"
    },
    {
      "channel": 4,
      "note": 66,
      "start": 99.1744,
      "duration": 0.0417,
      "velocity": 127,
      "chip": "ym2612"
    },
    {
      "channel": 5,
      "note": 80,
      "start": 99.1787,
      "duration": 0.0389,
      "velocity": 88,
      "chip": "ym2612"
    },
    {
      "channel": 4,
      "note": 66,
      "start": 99.225,
      "duration": 0.0463,
      "velocity": 127,
      "chip": "ym2612"
    },
    {
      "channel": 5,
      "note": 75,
      "start": 99.2311,
      "duration": 0.0405,
      "velocity": 88,
      "chip": "ym2612"
    },
    {
      "channel": 3,
      "note": 68,
      "start": 99.2788,
      "duration": 0.0199,
      "velocity": 88,
      "chip": "ym2612"
    },
    {
      "channel": 5,
      "note": 78,
      "start": 99.2832,
      "duration": 0.0795,
      "velocity": 88,
      "chip": "ym2612"
    },
    {
      "channel": 3,
      "note": 68,
      "start": 99.3757,
      "duration": 0.0568,
      "velocity": 88,
      "chip": "ym2612"
    },
    {
      "channel": 4,
      "note": 66,
      "start": 99.3811,
      "duration": 0.1231,
      "velocity": 127,
      "chip": "ym2612"
    },
    {
      "channel": 5,
      "note": 80,
      "start": 99.3864,
      "duration": 0.1186,
      "velocity": 88,
      "chip": "ym2612"
    },
    {
      "channel": 3,
      "note": 80,
      "start": 99.5293,
      "duration": 0.0261,
      "velocity": 88,
      "chip": "ym2612"
    },
    {
      "channel": 4,
      "note": 66,
      "start": 99.5346,
      "duration": 0.0441,
      "velocity": 127,
      "chip": "ym2612"
    },
    {
      "channel": 5,
      "note": 78,
      "start": 99.5399,
      "duration": 0.0389,
      "velocity": 88,
      "chip": "ym2612"
    },
    {
      "channel": 3,
      "note": 68,
      "start": 99.586,
      "duration": 0.0202,
      "velocity": 88,
      "chip": "ym2612"
    },
    {
      "channel": 5,
      "note": 75,
      "start": 99.5905,
      "duration": 0.0396,
      "velocity": 88,
      "chip": "ym2612"
    },
    {
      "channel": 3,
      "note": 78,
      "start": 99.6376,
      "duration": 0.023,
      "velocity": 88,
      "chip": "ym2612"
    },
    {
      "channel": 4,
      "note": 66,
      "start": 99.6418,
      "duration": 0.0417,
      "velocity": 127,
      "chip": "ym2612"
    },
    {
      "channel": 5,
      "note": 73,
      "start": 99.6462,
      "duration": 0.0376,
      "velocity": 88,
      "chip": "ym2612"
    },
    {
      "channel": 3,
      "note": 83,
      "start": 99.6959,
      "duration": 0.02,
      "velocity": 88,
      "chip": "ym2612"
    },
    {
      "channel": 4,
      "note": 66,
      "start": 99.7001,
      "duration": 0.0429,
      "velocity": 127,
      "chip": "ym2612"
    },
    {
      "channel": 5,
      "note": 71,
      "start": 99.7045,
      "duration": 0.0388,
      "velocity": 88,
      "chip": "ym2612"
    },
    {
      "channel": 3,
      "note": 80,
      "start": 99.7507,
      "duration": 0.0203,
      "velocity": 88,
      "chip": "ym2612"
    },
    {
      "channel": 5,
      "note": 73,
      "start": 99.7555,
      "duration": 0.0752,
      "velocity": 88,
      "chip": "ym2612"
    },
    {
      "channel": 3,
      "note": 68,
      "start": 99.8437,
      "duration": 0.0261,
      "velocity": 88,
      "chip": "ym2612"
    },
    {
      "channel": 4,
      "note": 69,
      "start": 99.8492,
      "duration": 0.0431,
      "velocity": 127,
      "chip": "ym2612"
    },
    {
      "channel": 5,
      "note": 71,
      "start": 99.8544,
      "duration": 0.0393,
      "velocity": 88,
      "chip": "ym2612"
    },
    {
      "channel": 4,
      "note": 69,
      "start": 99.901,
      "duration": 0.0803,
      "velocity": 127,
      "chip": "ym2612"
    },
    {
      "channel": 5,
      "note": 68,
      "start": 99.9056,
      "duration": 0.0766,
      "velocity": 88,
      "chip": "ym2612"
    },
    {
      "channel": 3,
      "note": 80,
      "start": 100.0064,
      "duration": 0.0263,
      "velocity": 88,
      "chip": "ym2612"
    },
    {
      "channel": 4,
      "note": 69,
      "start": 100.0116,
      "duration": 0.0436,
      "velocity": 127,
      "chip": "ym2612"
    },
    {
      "channel": 5,
      "note": 73,
      "start": 100.0171,
      "duration": 0.0396,
      "velocity": 88,
      "chip": "ym2612"
    },
    {
      "channel": 4,
      "note": 69,
      "start": 100.064,
      "duration": 0.0454,
      "velocity": 127,
      "chip": "ym2612"
    },
    {
      "channel": 5,
      "note": 71,
      "start": 100.0697,
      "duration": 0.0414,
      "velocity": 88,
      "chip": "ym2612"
    },
    {
      "channel": 3,
      "note": 68,
      "start": 100.1182,
      "duration": 0.0226,
      "velocity": 88,
      "chip": "ym2612"
    },
    {
      "channel": 4,
      "note": 69,
      "start": 100.1229,
      "duration": 0.0407,
      "velocity": 127,
      "chip": "ym2612"
    },
    {
      "channel": 5,
      "note": 68,
      "start": 100.127,
      "duration": 0.0368,
      "velocity": 88,
      "chip": "ym2612"
    },
    {
      "channel": 3,
      "note": 80,
      "start": 100.1758,
      "duration": 0.0212,
      "velocity": 88,
      "chip": "ym2612"
    },
    {
      "channel": 4,
      "note": 69,
      "start": 100.1802,
      "duration": 0.0437,
      "velocity": 127,
      "chip": "ym2612"
    },
    {
      "channel": 5,
      "note": 63,
      "start": 100.1844,
      "duration": 0.0409,
      "velocity": 88,
      "chip": "ym2612"
    },
    {
      "channel": 3,
      "note": 83,
      "start": 100.2328,
      "duration": 0.0248,
      "velocity": 88,
      "chip": "ym2612"
    },
    {
      "channel": 4,
      "note": 69,
      "start": 100.2374,
      "duration": 0.0508,
      "velocity": 127,
      "chip": "ym2612"
    },
    {
      "channel": 5,
      "note": 66,
      "start": 100.2417,
      "duration": 0.0478,
      "velocity": 88,
      "chip": "ym2612"
    }
  ]
}