{
  "track_name": "02 - Nineball Game",
  "duration_sec": 86.396,
  "sample_rate": 44100,
  "note_count": 821,
  "unique_pitches": 38,
  "pitch_range": 62,
  "avg_note_duration": 0.6572,
  "reconstruction_stats": {
    "notes_reconstructed": 821,
    "keyon_events": 821,
    "keyoff_events": 818,
    "orphan_keyons": 3,
    "unique_pitches": 38,
    "pitch_range": 62,
    "avg_duration_sec": 0.6572
  },
  "metadata": {
    "source": "K\\Kiss Shot\\02 - Nineball Game.vgz"
  },
  "notes": [
    {
      "channel": 0,
      "note": 64,
      "start": 0.0,
      "duration": 0.0,
      "velocity": 95,
      "chip": "ym2612"
    },
    {
      "channel": 0,
      "note": 69,
      "start": 0.0,
      "duration": 0.0,
      "velocity": 95,
      "chip": "ym2612"
    },
    {
      "channel": 0,
      "note": 72,
      "start": 0.0,
      "duration": 0.0,
      "velocity": 95,
      "chip": "ym2612"
    },
    {
      "channel": 0,
      "note": 76,
      "start": 0.0,
      "duration": 0.0,
      "velocity": 95,
      "chip": "ym2612"
    },
    {
      "channel": 0,
      "note": 75,
      "start": 0.0,
      "duration": 0.0,
      "velocity": 95,
      "chip": "ym2612"
    },
    {
      "channel": 0,
      "note": 75,
      "start": 0.0,
      "duration": 0.0,
      "velocity": 95,
      "chip": "ym2612"
    },
    {
      "channel": 0,
      "note": 74,
      "start": 0.0,
      "duration": 0.0,
      "velocity": 95,
      "chip": "ym2612"
    },
    {
      "channel": 0,
      "note": 75,
      "start": 0.0,
      "duration": 0.0,
      "velocity": 95,
      "chip": "ym2612"
    },
    {
      "channel": 0,
      "note": 74,
      "start": 0.0,
      "duration": 0.0,
      "velocity": 95,
      "chip": "ym2612"
    },
    {
      "channel": 0,
      "note": 75,
      "start": 0.0,
      "duration": 0.0,
      "velocity": 95,
      "chip": "ym2612"
    },
    {
      "channel": 0,
      "note": 74,
      "start": 0.0,
      "duration": 0.0,
      "velocity": 95,
      "chip": "ym2612"
    },
    {
      "channel": 0,
      "note": 75,
      "start": 0.0,
      "duration": 0.0,
      "velocity": 95,
      "chip": "ym2612"
    },
    {
      "channel": 0,
      "note": 74,
      "start": 0.0,
      "duration": 0.0,
      "velocity": 95,
      "chip": "ym2612"
    },
    {
      "channel": 0,
      "note": 69,
      "start": 0.0,
      "duration": 0.0,
      "velocity": 95,
      "chip": "ym2612"
    },
    {
      "channel": 0,
      "note": 72,
      "start": 0.0,
      "duration": 0.0,
      "velocity": 95,
      "chip": "ym2612"
    },
    {
      "channel": 0,
      "note": 71,
      "start": 0.0,
      "duration": 0.0,
      "velocity": 95,
      "chip": "ym2612"
    },
    {
      "channel": 0,
      "note": 71,
      "start": 0.0,
      "duration": 0.0,
      "velocity": 95,
      "chip": "ym2612"
    },
    {
      "channel": 0,
      "note": 71,
      "start": 0.0,
      "duration": 0.0,
      "velocity": 1,
      "chip": "ym2612"
    },
    {
      "channel": 1,
      "note": 52,
      "start": 0.0,
      "duration": 0.0,
      "velocity": 107,
      "chip": "ym2612"
    },
    {
      "channel": 1,
      "note": 55,
      "start": 0.0,
      "duration": 0.0,
      "velocity": 107,
      "chip": "ym2612"
    },
    {
      "channel": 1,
      "note": 56,
      "start": 0.0,
      "duration": 0.0,
      "velocity": 107,
      "chip": "ym2612"
    },
    {
      "channel": 1,
      "note": 57,
      "start": 0.0,
      "duration": 0.0,
      "velocity": 107,
      "chip": "ym2612"
    },
    {
      "channel": 1,
      "note": 60,
      "start": 0.0,
      "duration": 0.0,
      "velocity": 107,
      "chip": "ym2612"
    },
    {
      "channel": 1,
      "note": 62,
      "start": 0.0,
      "duration": 0.0,
      "velocity": 107,
      "chip": "ym2612"
    },
    {
      "channel": 1,
      "note": 63,
      "start": 0.0,
      "duration": 0.0,
      "velocity": 107,
      "chip": "ym2612"
    },
    {
      "channel": 1,
      "note": 64,
      "start": 0.0,
      "duration": 0.0,
      "velocity": 107,
      "chip": "ym2612"
    },
    {
      "channel": 1,
      "note": 52,
      "start": 0.0,
      "duration": 0.0,
      "velocity": 107,
      "chip": "ym2612"
    },
    {
      "channel": 1,
      "note": 55,
      "start": 0.0,
      "duration": 0.0,
      "velocity": 107,
      "chip": "ym2612"
    },
    {
      "channel": 1,
      "note": 56,
      "start": 0.0,
      "duration": 0.0,
      "velocity": 107,
      "chip": "ym2612"
    },
    {
      "channel": 1,
      "note": 57,
      "start": 0.0,
      "duration": 0.0,
      "velocity": 107,
      "chip": "ym2612"
    },
    {
      "channel": 1,
      "note": 60,
      "start": 0.0,
      "duration": 0.0,
      "velocity": 107,
      "chip": "ym2612"
    },
    {
      "channel": 1,
      "note": 62,
      "start": 0.0,
      "duration": 0.0,
      "velocity": 107,
      "chip": "ym2612"
    },
    {
      "channel": 1,
      "note": 63,
      "start": 0.0,
      "duration": 0.0,
      "velocity": 107,
      "chip": "ym2612"
    },
    {
      "channel": 1,
      "note": 64,
      "start": 0.0,
      "duration": 0.0,
      "velocity": 107,
      "chip": "ym2612"
    },
    {
      "channel": 1,
      "note": 52,
      "start": 0.0,
      "duration": 0.0,
      "velocity": 107,
      "chip": "ym2612"
    },
    {
      "channel": 1,
      "note": 55,
      "start": 0.0,
      "duration": 0.0,
      "velocity": 107,
      "chip": "ym2612"
    },
    {
      "channel": 1,
      "note": 56,
      "start": 0.0,
      "duration": 0.0,
      "velocity": 107,
      "chip": "ym2612"
    },
    {
      "channel": 1,
      "note": 57,
      "start": 0.0,
      "duration": 0.0,
      "velocity": 107,
      "chip": "ym2612"
    },
    {
      "channel": 1,
      "note": 60,
      "start": 0.0,
      "duration": 0.0,
      "velocity": 107,
      "chip": "ym2612"
    },
    {
      "channel": 1,
      "note": 62,
      "start": 0.0,
      "duration": 0.0,
      "velocity": 107,
      "chip": "ym2612"
    },
    {
      "channel": 1,
      "note": 63,
      "start": 0.0,
      "duration": 0.0,
      "velocity": 107,
      "chip": "ym2612"
    },
    {
      "channel": 1,
      "note": 64,
      "start": 0.0,
      "duration": 0.0,
      "velocity": 107,
      "chip": "ym2612"
    },
    {
      "channel": 1,
      "note": 52,
      "start": 0.0,
      "duration": 0.0,
      "velocity": 107,
      "chip": "ym2612"
    },
    {
      "channel": 1,
      "note": 55,
      "start": 0.0,
      "duration": 0.0,
      "velocity": 107,
      "chip": "ym2612"
    },
    {
      "channel": 1,
      "note": 56,
      "start": 0.0,
      "duration": 0.0,
      "velocity": 107,
      "chip": "ym2612"
    },
    {
      "channel": 1,
      "note": 57,
      "start": 0.0,
      "duration": 0.0,
      "velocity": 107,
      "chip": "ym2612"
    },
    {
      "channel": 1,
      "note": 60,
      "start": 0.0,
      "duration": 0.0,
      "velocity": 107,
      "chip": "ym2612"
    },
    {
      "channel": 1,
      "note": 62,
      "start": 0.0,
      "duration": 0.0,
      "velocity": 107,
      "chip": "ym2612"
    },
    {
      "channel": 1,
      "note": 63,
      "start": 0.0,
      "duration": 0.0,
      "velocity": 107,
      "chip": "ym2612"
    },
    {
      "channel": 1,
      "note": 64,
      "start": 0.0,
      "duration": 0.0,
      "velocity": 107,
      "chip": "ym2612"
    },
    {
      "channel": 1,
      "note": 52,
      "start": 0.0,
      "duration": 0.0,
      "velocity": 107,
      "chip": "ym2612"
    },
    {
      "channel": 1,
      "note": 55,
      "start": 0.0,
      "duration": 0.0,
      "velocity": 107,
      "chip": "ym2612"
    },
    {
      "channel": 1,
      "note": 56,
      "start": 0.0,
      "duration": 0.0,
      "velocity": 107,
      "chip": "ym2612"
    },
    {
      "channel": 1,
      "note": 57,
      "start": 0.0,
      "duration": 0.0,
      "velocity": 107,
      "chip": "ym2612"
    },
    {
      "channel": 1,
      "note": 60,
      "start": 0.0,
      "duration": 0.0,
      "velocity": 107,
      "chip": "ym2612"
    },
    {
      "channel": 1,
      "note": 62,
      "start": 0.0,
      "duration": 0.0,
      "velocity": 107,
      "chip": "ym2612"
    },
    {
      "channel": 1,
      "note": 63,
      "start": 0.0,
      "duration": 0.0,
      "velocity": 107,
      "chip": "ym2612"
    },
    {
      "channel": 1,
      "note": 64,
      "start": 0.0,
      "duration": 0.0,
      "velocity": 107,
      "chip": "ym2612"
    },
    {
      "channel": 1,
      "note": 52,
      "start": 0.0,
      "duration": 0.0,
      "velocity": 107,
      "chip": "ym2612"
    },
    {
      "channel": 1,
      "note": 55,
      "start": 0.0,
      "duration": 0.0,
      "velocity": 107,
      "chip": "ym2612"
    },
    {
      "channel": 1,
      "note": 56,
      "start": 0.0,
      "duration": 0.0,
      "velocity": 107,
      "chip": "ym2612"
    },
    {
      "channel": 1,
      "note": 57,
      "start": 0.0,
      "duration": 0.0,
      "velocity": 107,
      "chip": "ym2612"
    },
    {
      "channel": 1,
      "note": 60,
      "start": 0.0,
      "duration": 0.0,
      "velocity": 107,
      "chip": "ym2612"
    },
    {
      "channel": 1,
      "note": 62,
      "start": 0.0,
      "duration": 0.0,
      "velocity": 107,
      "chip": "ym2612"
    },
    {
      "channel": 1,
      "note": 63,
      "start": 0.0,
      "duration": 0.0,
      "velocity": 107,
      "chip": "ym2612"
    },
    {
      "channel": 1,
      "note": 64,
      "start": 0.0,
      "duration": 0.0,
      "velocity": 107,
      "chip": "ym2612"
    },
    {
      "channel": 1,
      "note": 52,
      "start": 0.0,
      "duration": 0.0,
      "velocity": 107,
      "chip": "ym2612"
    },
    {
      "channel": 1,
      "note": 55,
      "start": 0.0,
      "duration": 0.0,
      "velocity": 107,
      "chip": "ym2612"
    },
    {
      "channel": 1,
      "note": 56,
      "start": 0.0,
      "duration": 0.0,
      "velocity": 107,
      "chip": "ym2612"
    },
    {
      "channel": 1,
      "note": 57,
      "start": 0.0,
      "duration": 0.0,
      "velocity": 107,
      "chip": "ym2612"
    },
    {
      "channel": 1,
      "note": 60,
      "start": 0.0,
      "duration": 0.0,
      "velocity": 107,
      "chip": "ym2612"
    },
    {
      "channel": 1,
      "note": 62,
      "start": 0.0,
      "duration": 0.0,
      "velocity": 107,
      "chip": "ym2612"
    },
    {
      "channel": 1,
      "note": 63,
      "start": 0.0,
      "duration": 0.0,
      "velocity": 1,
      "chip": "ym2612"
    },
    {
      "channel": 2,
      "note": 71,
      "start": 0.0,
      "duration": 0.0,
      "velocity": 120,
      "chip": "ym2612"
    },
    {
      "channel": 2,
      "note": 41,
      "start": 0.0,
      "duration": 0.0,
      "velocity": 102,
      "chip": "ym2612"
    },
    {
      "channel": 2,
      "note": 71,
      "start": 0.0,
      "duration": 0.0,
      "velocity": 120,
      "chip": "ym2612"
    },
    {
      "channel": 2,
      "note": 41,
      "start": 0.0,
      "duration": 0.0,
      "velocity": 102,
      "chip": "ym2612"
    },
    {
      "channel": 2,
      "note": 71,
      "start": 0.0,
      "duration": 0.0,
      "velocity": 120,
      "chip": "ym2612"
    },
    {
      "channel": 2,
      "note": 41,
      "start": 0.0,
      "duration": 0.0,
      "velocity": 102,
      "chip": "ym2612"
    },
    {
      "channel": 2,
      "note": 41,
      "start": 0.0,
      "duration": 0.0,
      "velocity": 102,
      "chip": "ym2612"
    },
    {
      "channel": 2,
      "note": 71,
      "start": 0.0,
      "duration": 0.0,
      "velocity": 120,
      "chip": "ym2612"
    },
    {
      "channel": 2,
      "note": 71,
      "start": 0.0,
      "duration": 0.0,
      "velocity": 120,
      "chip": "ym2612"
    },
    {
      "channel": 2,
      "note": 71,
      "start": 0.0,
      "duration": 0.0,
      "velocity": 120,
      "chip": "ym2612"
    },
    {
      "channel": 2,
      "note": 41,
      "start": 0.0,
      "duration": 0.0,
      "velocity": 102,
      "chip": "ym2612"
    },
    {
      "channel": 2,
      "note": 41,
      "start": 0.0,
      "duration": 0.0,
      "velocity": 102,
      "chip": "ym2612"
    },
    {
      "channel": 2,
      "note": 71,
      "start": 0.0,
      "duration": 0.0,
      "velocity": 120,
      "chip": "ym2612"
    },
    {
      "channel": 2,
      "note": 41,
      "start": 0.0,
      "duration": 0.0,
      "velocity": 102,
      "chip": "ym2612"
    },
    {
      "channel": 2,
      "note": 71,
      "start": 0.0,
      "duration": 0.0,
      "velocity": 120,
      "chip": "ym2612"
    },
    {
      "channel": 2,
      "note": 41,
      "start": 0.0,
      "duration": 0.0,
      "velocity": 102,
      "chip": "ym2612"
    },
    {
      "channel": 2,
      "note": 71,
      "start": 0.0,
      "duration": 0.0,
      "velocity": 120,
      "chip": "ym2612"
    },
    {
      "channel": 2,
      "note": 41,
      "start": 0.0,
      "duration": 0.0,
      "velocity": 102,
      "chip": "ym2612"
    },
    {
      "channel": 2,
      "note": 41,
      "start": 0.0,
      "duration": 0.0,
      "velocity": 102,
      "chip": "ym2612"
    },
    {
      "channel": 2,
      "note": 71,
      "start": 0.0,
      "duration": 0.0,
      "velocity": 120,
      "chip": "ym2612"
    },
    {
      "channel": 2,
      "note": 71,
      "start": 0.0,
      "duration": 0.0,
      "velocity": 120,
      "chip": "ym2612"
    },
    {
      "channel": 2,
      "note": 71,
      "start": 0.0,
      "duration": 0.0,
      "velocity": 120,
      "chip": "ym2612"
    },
    {
      "channel": 2,
      "note": 41,
      "start": 0.0,
      "duration": 0.0,
      "velocity": 102,
      "chip": "ym2612"
    },
    {
      "channel": 2,
      "note": 41,
      "start": 0.0,
      "duration": 0.0,
      "velocity": 102,
      "chip": "ym2612"
    },
    {
      "channel": 2,
      "note": 71,
      "start": 0.0,
      "duration": 0.0,
      "velocity": 120,
      "chip": "ym2612"
    },
    {
      "channel": 2,
      "note": 41,
      "start": 0.0,
      "duration": 0.0,
      "velocity": 102,
      "chip": "ym2612"
    },
    {
      "channel": 2,
      "note": 71,
      "start": 0.0,
      "duration": 0.0,
      "velocity": 120,
      "chip": "ym2612"
    },
    {
      "channel": 2,
      "note": 41,
      "start": 0.0,
      "duration": 0.0,
      "velocity": 102,
      "chip": "ym2612"
    },
    {
      "channel": 2,
      "note": 71,
      "start": 0.0,
      "duration": 0.0,
      "velocity": 120,
      "chip": "ym2612"
    },
    {
      "channel": 2,
      "note": 41,
      "start": 0.0,
      "duration": 0.0,
      "velocity": 102,
      "chip": "ym2612"
    },
    {
      "channel": 2,
      "note": 41,
      "start": 0.0,
      "duration": 0.0,
      "velocity": 102,
      "chip": "ym2612"
    },
    {
      "channel": 2,
      "note": 71,
      "start": 0.0,
      "duration": 0.0,
      "velocity": 120,
      "chip": "ym2612"
    },
    {
      "channel": 2,
      "note": 71,
      "start": 0.0,
      "duration": 0.0,
      "velocity": 120,
      "chip": "ym2612"
    },
    {
      "channel": 2,
      "note": 71,
      "start": 0.0,
      "duration": 0.0,
      "velocity": 120,
      "chip": "ym2612"
    },
    {
      "channel": 2,
      "note": 41,
      "start": 0.0,
      "duration": 0.0,
      "velocity": 102,
      "chip": "ym2612"
    },
    {
      "channel": 2,
      "note": 41,
      "start": 0.0,
      "duration": 0.0,
      "velocity": 102,
      "chip": "ym2612"
    },
    {
      "channel": 2,
      "note": 71,
      "start": 0.0,
      "duration": 0.0,
      "velocity": 120,
      "chip": "ym2612"
    },
    {
      "channel": 2,
      "note": 41,
      "start": 0.0,
      "duration": 0.0,
      "velocity": 102,
      "chip": "ym2612"
    },
    {
      "channel": 2,
      "note": 71,
      "start": 0.0,
      "duration": 0.0,
      "velocity": 120,
      "chip": "ym2612"
    },
    {
      "channel": 2,
      "note": 41,
      "start": 0.0,
      "duration": 0.0,
      "velocity": 102,
      "chip": "ym2612"
    },
    {
      "channel": 2,
      "note": 71,
      "start": 0.0,
      "duration": 0.0,
      "velocity": 120,
      "chip": "ym2612"
    },
    {
      "channel": 2,
      "note": 41,
      "start": 0.0,
      "duration": 0.0,
      "velocity": 102,
      "chip": "ym2612"
    },
    {
      "channel": 2,
      "note": 41,
      "start": 0.0,
      "duration": 0.0,
      "velocity": 102,
      "chip": "ym2612"
    },
    {
      "channel": 2,
      "note": 71,
      "start": 0.0,
      "duration": 0.0,
      "velocity": 120,
      "chip": "ym2612"
    },
    {
      "channel": 2,
      "note": 71,
      "start": 0.0,
      "duration": 0.0,
      "velocity": 120,
      "chip": "ym2612"
    },
    {
      "channel": 2,
      "note": 71,
      "start": 0.0,
      "duration": 0.0,
      "velocity": 120,
      "chip": "ym2612"
    },
    {
      "channel": 2,
      "note": 41,
      "start": 0.0,
      "duration": 0.0,
      "velocity": 102,
      "chip": "ym2612"
    },
    {
      "channel": 2,
      "note": 41,
      "start": 0.0,
      "duration": 0.0,
      "velocity": 102,
      "chip": "ym2612"
    },
    {
      "channel": 2,
      "note": 71,
      "start": 0.0,
      "duration": 0.0,
      "velocity": 120,
      "chip": "ym2612"
    },
    {
      "channel": 2,
      "note": 41,
      "start": 0.0,
      "duration": 0.0,
      "velocity": 102,
      "chip": "ym2612"
    },
    {
      "channel": 2,
      "note": 71,
      "start": 0.0,
      "duration": 0.0,
      "velocity": 120,
      "chip": "ym2612"
    },
    {
      "channel": 2,
      "note": 41,
      "start": 0.0,
      "duration": 0.0,
      "velocity": 102,
      "chip": "ym2612"
    },
    {
      "channel": 2,
      "note": 71,
      "start": 0.0,
      "duration": 0.0,
      "velocity": 120,
      "chip": "ym2612"
    },
    {
      "channel": 2,
      "note": 41,
      "start": 0.0,
      "duration": 0.0,
      "velocity": 102,
      "chip": "ym2612"
    },
    {
      "channel": 2,
      "note": 41,
      "start": 0.0,
      "duration": 0.0,
      "velocity": 102,
      "chip": "ym2612"
    },
    {
      "channel": 2,
      "note": 71,
      "start": 0.0,
      "duration": 0.0,
      "velocity": 120,
      "chip": "ym2612"
    },
    {
      "channel": 2,
      "note": 71,
      "start": 0.0,
      "duration": 0.0,
      "velocity": 120,
      "chip": "ym2612"
    },
    {
      "channel": 2,
      "note": 71,
      "start": 0.0,
      "duration": 0.0,
      "velocity": 120,
      "chip": "ym2612"
    },
    {
      "channel": 2,
      "note": 41,
      "start": 0.0,
      "duration": 0.0,
      "velocity": 102,
      "chip": "ym2612"
    },
    {
      "channel": 2,
      "note": 41,
      "start": 0.0,
      "duration": 0.0,
      "velocity": 102,
      "chip": "ym2612"
    },
    {
      "channel": 2,
      "note": 71,
      "start": 0.0,
      "duration": 0.0,
      "velocity": 120,
      "chip": "ym2612"
    },
    {
      "channel": 2,
      "note": 41,
      "start": 0.0,
      "duration": 0.0,
      "velocity": 102,
      "chip": "ym2612"
    },
    {
      "channel": 2,
      "note": 71,
      "start": 0.0,
      "duration": 0.0,
      "velocity": 120,
      "chip": "ym2612"
    },
    {
      "channel": 2,
      "note": 41,
      "start": 0.0,
      "duration": 0.0,
      "velocity": 102,
      "chip": "ym2612"
    },
    {
      "channel": 2,
      "note": 71,
      "start": 0.0,
      "duration": 0.0,
      "velocity": 120,
      "chip": "ym2612"
    },
    {
      "channel": 2,
      "note": 41,
      "start": 0.0,
      "duration": 0.0,
      "velocity": 102,
      "chip": "ym2612"
    },
    {
      "channel": 3,
      "note": 69,
      "start": 0.0,
      "duration": 0.0,
      "velocity": 109,
      "chip": "ym2612"
    },
    {
      "channel": 3,
      "note": 68,
      "start": 0.0,
      "duration": 0.0,
      "velocity": 109,
      "chip": "ym2612"
    },
    {
      "channel": 3,
      "note": 67,
      "start": 0.0,
      "duration": 0.0,
      "velocity": 109,
      "chip": "ym2612"
    },
    {
      "channel": 3,
      "note": 69,
      "start": 0.0,
      "duration": 0.0,
      "velocity": 109,
      "chip": "ym2612"
    },
    {
      "channel": 3,
      "note": 68,
      "start": 0.0,
      "duration": 0.0,
      "velocity": 109,
      "chip": "ym2612"
    },
    {
      "channel": 3,
      "note": 67,
      "start": 0.0,
      "duration": 0.0,
      "velocity": 109,
      "chip": "ym2612"
    },
    {
      "channel": 3,
      "note": 69,
      "start": 0.0,
      "duration": 0.0,
      "velocity": 109,
      "chip": "ym2612"
    },
    {
      "channel": 3,
      "note": 68,
      "start": 0.0,
      "duration": 0.0,
      "velocity": 109,
      "chip": "ym2612"
    },
    {
      "channel": 3,
      "note": 67,
      "start": 0.0,
      "duration": 0.0,
      "velocity": 109,
      "chip": "ym2612"
    },
    {
      "channel": 3,
      "note": 69,
      "start": 0.0,
      "duration": 0.0,
      "velocity": 1,
      "chip": "ym2612"
    },
    {
      "channel": 4,
      "note": 72,
      "start": 0.0,
      "duration": 0.0,
      "velocity": 109,
      "chip": "ym2612"
    },
    {
      "channel": 4,
      "note": 72,
      "start": 0.0,
      "duration": 0.0,
      "velocity": 109,
      "chip": "ym2612"
    },
    {
      "channel": 4,
      "note": 72,
      "start": 0.0,
      "duration": 0.0,
      "velocity": 109,
      "chip": "ym2612"
    },
    {
      "channel": 4,
      "note": 72,
      "start": 0.0,
      "duration": 0.0,
      "velocity": 109,
      "chip": "ym2612"
    },
    {
      "channel": 4,
      "note": 72,
      "start": 0.0,
      "duration": 0.0,
      "velocity": 109,
      "chip": "ym2612"
    },
    {
      "channel": 4,
      "note": 72,
      "start": 0.0,
      "duration": 0.0,
      "velocity": 109,
      "chip": "ym2612"
    },
    {
      "channel": 4,
      "note": 72,
      "start": 0.0,
      "duration": 0.0,
      "velocity": 109,
      "chip": "ym2612"
    },
    {
      "channel": 4,
      "note": 72,
      "start": 0.0,
      "duration": 0.0,
      "velocity": 109,
      "chip": "ym2612"
    },
    {
      "channel": 4,
      "note": 72,
      "start": 0.0,
      "duration": 0.0,
      "velocity": 109,
      "chip": "ym2612"
    },
    {
      "channel": 4,
      "note": 72,
      "start": 0.0,
      "duration": 0.0,
      "velocity": 1,
      "chip": "ym2612"
    },
    {
      "channel": 5,
      "note": 76,
      "start": 0.0,
      "duration": 0.0,
      "velocity": 109,
      "chip": "ym2612"
    },
    {
      "channel": 5,
      "note": 76,
      "start": 0.0,
      "duration": 0.0,
      "velocity": 109,
      "chip": "ym2612"
    },
    {
      "channel": 5,
      "note": 76,
      "start": 0.0,
      "duration": 0.0,
      "velocity": 109,
      "chip": "ym2612"
    },
    {
      "channel": 5,
      "note": 76,
      "start": 0.0,
      "duration": 0.0,
      "velocity": 109,
      "chip": "ym2612"
    },
    {
      "channel": 5,
      "note": 76,
      "start": 0.0,
      "duration": 0.0,
      "velocity": 109,
      "chip": "ym2612"
    },
    {
      "channel": 5,
      "note": 76,
      "start": 0.0,
      "duration": 0.0,
      "velocity": 109,
      "chip": "ym2612"
    },
    {
      "channel": 5,
      "note": 76,
      "start": 0.0,
      "duration": 0.0,
      "velocity": 109,
      "chip": "ym2612"
    },
    {
      "channel": 5,
      "note": 76,
      "start": 0.0,
      "duration": 0.0,
      "velocity": 109,
      "chip": "ym2612"
    },
    {
      "channel": 5,
      "note": 76,
      "start": 0.0,
      "duration": 0.0,
      "velocity": 109,
      "chip": "ym2612"
    },
    {
      "channel": 5,
      "note": 76,
      "start": 0.0,
      "duration": 0.0,
      "velocity": 1,
      "chip": "ym2612"
    },
    {
      "channel": 1,
      "note": 57,
      "start": 0.0016,
      "duration": 1.0606,
      "velocity": 107,
      "chip": "ym2612"
    },
    {
      "channel": 3,
      "note": 71,
      "start": 0.0051,
      "duration": 1.5912,
      "velocity": 115,
      "chip": "ym2612"
    },
    {
      "channel": 4,
      "note": 67,
      "start": 0.0086,
      "duration": 1.5884,
      "velocity": 115,
      "chip": "ym2612"
    },
    {
      "channel": 5,
      "note": 60,
      "start": 0.0122,
      "duration": 1.5856,
      "velocity": 115,
      "chip": "ym2612"
    },
    {
      "channel": 2,
      "note": 29,
      "start": 0.0163,
      "duration": 0.0641,
      "velocity": 119,
      "chip": "ym2612"
    },
    {
      "channel": 2,
      "note": 72,
      "start": 0.8009,
      "duration": 0.1961,
      "velocity": 120,
      "chip": "ym2612"
    },
    {
      "channel": 1,
      "note": 64,
      "start": 1.0628,
      "duration": 0.266,
      "velocity": 107,
      "chip": "ym2612"
    },
    {
      "channel": 1,
      "note": 63,
      "start": 1.3295,
      "duration": 0.266,
      "velocity": 107,
      "chip": "ym2612"
    },
    {
      "channel": 2,
      "note": 29,
      "start": 1.3346,
      "duration": 0.0623,
      "velocity": 119,
      "chip": "ym2612"
    },
    {
      "channel": 1,
      "note": 62,
      "start": 1.5961,
      "duration": 1.066,
      "velocity": 107,
      "chip": "ym2612"
    },
    {
      "channel": 3,
      "note": 71,
      "start": 1.5969,
      "duration": 1.5996,
      "velocity": 115,
      "chip": "ym2612"
    },
    {
      "channel": 4,
      "note": 65,
      "start": 1.5976,
      "duration": 1.5996,
      "velocity": 115,
      "chip": "ym2612"
    },
    {
      "channel": 5,
      "note": 60,
      "start": 1.5984,
      "duration": 1.5996,
      "velocity": 115,
      "chip": "ym2612"
    },
    {
      "channel": 2,
      "note": 29,
      "start": 1.5992,
      "duration": 0.0644,
      "velocity": 119,
      "chip": "ym2612"
    },
    {
      "channel": 2,
      "note": 72,
      "start": 2.401,
      "duration": 0.196,
      "velocity": 120,
      "chip": "ym2612"
    },
    {
      "channel": 1,
      "note": 57,
      "start": 2.6628,
      "duration": 0.266,
      "velocity": 107,
      "chip": "ym2612"
    },
    {
      "channel": 1,
      "note": 58,
      "start": 2.9295,
      "duration": 0.2663,
      "velocity": 107,
      "chip": "ym2612"
    },
    {
      "channel": 2,
      "note": 29,
      "start": 2.9346,
      "duration": 0.0623,
      "velocity": 119,
      "chip": "ym2612"
    },
    {
      "channel": 1,
      "note": 59,
      "start": 3.1964,
      "duration": 1.0658,
      "velocity": 107,
      "chip": "ym2612"
    },
    {
      "channel": 3,
      "note": 69,
      "start": 3.1971,
      "duration": 1.5991,
      "velocity": 115,
      "chip": "ym2612"
    },
    {
      "channel": 4,
      "note": 65,
      "start": 3.1979,
      "duration": 1.5991,
      "velocity": 115,
      "chip": "ym2612"
    },
    {
      "channel": 5,
      "note": 59,
      "start": 3.1987,
      "duration": 1.5991,
      "velocity": 115,
      "chip": "ym2612"
    },
    {
      "channel": 2,
      "note": 29,
      "start": 3.1995,
      "duration": 0.0641,
      "velocity": 119,
      "chip": "ym2612"
    },
    {
      "channel": 2,
      "note": 72,
      "start": 4.001,
      "duration": 0.196,
      "velocity": 120,
      "chip": "ym2612"
    },
    {
      "channel": 1,
      "note": 62,
      "start": 4.2628,
      "duration": 0.266,
      "velocity": 107,
      "chip": "ym2612"
    },
    {
      "channel": 1,
      "note": 63,
      "start": 4.5295,
      "duration": 0.266,
      "velocity": 107,
      "chip": "ym2612"
    },
    {
      "channel": 2,
      "note": 29,
      "start": 4.5346,
      "duration": 0.0623,
      "velocity": 119,
      "chip": "ym2612"
    },
    {
      "channel": 1,
      "note": 64,
      "start": 4.7961,
      "duration": 0.266,
      "velocity": 107,
      "chip": "ym2612"
    },
    {
      "channel": 3,
      "note": 72,
      "start": 4.7969,
      "duration": 1.6004,
      "velocity": 115,
      "chip": "ym2612"
    },
    {
      "channel": 4,
      "note": 68,
      "start": 4.7976,
      "duration": 1.6005,
      "velocity": 115,
      "chip": "ym2612"
    },
    {
      "channel": 5,
      "note": 62,
      "start": 4.7984,
      "duration": 1.6006,
      "velocity": 115,
      "chip": "ym2612"
    },
    {
      "channel": 2,
      "note": 29,
      "start": 4.7992,
      "duration": 0.0644,
      "velocity": 119,
      "chip": "ym2612"
    },
    {
      "channel": 1,
      "note": 59,
      "start": 5.0628,
      "duration": 0.266,
      "velocity": 107,
      "chip": "ym2612"
    },
    {
      "channel": 1,
      "note": 52,
      "start": 5.3295,
      "duration": 0.266,
      "velocity": 107,
      "chip": "ym2612"
    },
    {
      "channel": 1,
      "note": 59,
      "start": 5.5961,
      "duration": 0.2668,
      "velocity": 107,
      "chip": "ym2612"
    },
    {
      "channel": 2,
      "note": 72,
      "start": 5.6013,
      "duration": 0.1956,
      "velocity": 120,
      "chip": "ym2612"
    },
    {
      "channel": 0,
      "note": 69,
      "start": 5.8628,
      "duration": 0.266,
      "velocity": 101,
      "chip": "ym2612"
    },
    {
      "channel": 1,
      "note": 52,
      "start": 5.8635,
      "duration": 0.266,
      "velocity": 107,
      "chip": "ym2612"
    },
    {
      "channel": 0,
      "note": 72,
      "start": 6.1295,
      "duration": 0.266,
      "velocity": 101,
      "chip": "ym2612"
    },
    {
      "channel": 1,
      "note": 55,
      "start": 6.1302,
      "duration": 0.2662,
      "velocity": 107,
      "chip": "ym2612"
    },
    {
      "channel": 2,
      "note": 29,
      "start": 6.1354,
      "duration": 0.0619,
      "velocity": 119,
      "chip": "ym2612"
    },
    {
      "channel": 0,
      "note": 76,
      "start": 6.3961,
      "duration": 1.066,
      "velocity": 101,
      "chip": "ym2612"
    },
    {
      "channel": 1,
      "note": 57,
      "start": 6.397,
      "duration": 1.0659,
      "velocity": 107,
      "chip": "ym2612"
    },
    {
      "channel": 3,
      "note": 71,
      "start": 6.3979,
      "duration": 1.5992,
      "velocity": 115,
      "chip": "ym2612"
    },
    {
      "channel": 4,
      "note": 67,
      "start": 6.3987,
      "duration": 1.5991,
      "velocity": 115,
      "chip": "ym2612"
    },
    {
      "channel": 5,
      "note": 60,
      "start": 6.3996,
      "duration": 1.599,
      "velocity": 115,
      "chip": "ym2612"
    },
    {
      "channel": 2,
      "note": 29,
      "start": 6.4004,
      "duration": 0.0635,
      "velocity": 119,
      "chip": "ym2612"
    },
    {
      "channel": 2,
      "note": 72,
      "start": 7.2013,
      "duration": 0.196,
      "velocity": 120,
      "chip": "ym2612"
    },
    {
      "channel": 0,
      "note": 69,
      "start": 7.4628,
      "duration": 0.266,
      "velocity": 101,
      "chip": "ym2612"
    },
    {
      "channel": 1,
      "note": 64,
      "start": 7.4635,
      "duration": 0.266,
      "velocity": 107,
      "chip": "ym2612"
    },
    {
      "channel": 0,
      "note": 72,
      "start": 7.7295,
      "duration": 0.266,
      "velocity": 101,
      "chip": "ym2612"
    },
    {
      "channel": 1,
      "note": 63,
      "start": 7.7302,
      "duration": 0.266,
      "velocity": 107,
      "chip": "ym2612"
    },
    {
      "channel": 2,
      "note": 29,
      "start": 7.7354,
      "duration": 0.0619,
      "velocity": 119,
      "chip": "ym2612"
    },
    {
      "channel": 0,
      "note": 76,
      "start": 7.9961,
      "duration": 1.066,
      "velocity": 101,
      "chip": "ym2612"
    },
    {
      "channel": 1,
      "note": 62,
      "start": 7.9969,
      "duration": 1.066,
      "velocity": 107,
      "chip": "ym2612"
    },
    {
      "channel": 3,
      "note": 71,
      "start": 7.9976,
      "duration": 1.5994,
      "velocity": 115,
      "chip": "ym2612"
    },
    {
      "channel": 4,
      "note": 65,
      "start": 7.9984,
      "duration": 1.5994,
      "velocity": 115,
      "chip": "ym2612"
    },
    {
      "channel": 5,
      "note": 60,
      "start": 7.9992,
      "duration": 1.5994,
      "velocity": 115,
      "chip": "ym2612"
    },
    {
      "channel": 2,
      "note": 29,
      "start": 8.0,
      "duration": 0.0639,
      "velocity": 119,
      "chip": "ym2612"
    },
    {
      "channel": 2,
      "note": 72,
      "start": 8.8013,
      "duration": 0.196,
      "velocity": 120,
      "chip": "ym2612"
    },
    {
      "channel": 0,
      "note": 69,
      "start": 9.0628,
      "duration": 0.266,
      "velocity": 101,
      "chip": "ym2612"
    },
    {
      "channel": 1,
      "note": 57,
      "start": 9.0635,
      "duration": 0.266,
      "velocity": 107,
      "chip": "ym2612"
    },
    {
      "channel": 0,
      "note": 72,
      "start": 9.3295,
      "duration": 0.266,
      "velocity": 101,
      "chip": "ym2612"
    },
    {
      "channel": 1,
      "note": 58,
      "start": 9.3302,
      "duration": 0.266,
      "velocity": 107,
      "chip": "ym2612"
    },
    {
      "channel": 2,
      "note": 29,
      "start": 9.3354,
      "duration": 0.0619,
      "velocity": 119,
      "chip": "ym2612"
    },
    {
      "channel": 0,
      "note": 76,
      "start": 9.5961,
      "duration": 0.5326,
      "velocity": 101,
      "chip": "ym2612"
    },
    {
      "channel": 1,
      "note": 59,
      "start": 9.5969,
      "duration": 1.066,
      "velocity": 107,
      "chip": "ym2612"
    },
    {
      "channel": 3,
      "note": 69,
      "start": 9.5976,
      "duration": 1.5994,
      "velocity": 115,
      "chip": "ym2612"
    },
    {
      "channel": 4,
      "note": 65,
      "start": 9.5984,
      "duration": 1.5994,
      "velocity": 115,
      "chip": "ym2612"
    },
    {
      "channel": 5,
      "note": 59,
      "start": 9.5992,
      "duration": 1.5994,
      "velocity": 115,
      "chip": "ym2612"
    },
    {
      "channel": 2,
      "note": 29,
      "start": 9.6,
      "duration": 0.0639,
      "velocity": 119,
      "chip": "ym2612"
    },
    {
      "channel": 0,
      "note": 79,
      "start": 10.1295,
      "duration": 0.5326,
      "velocity": 101,
      "chip": "ym2612"
    },
    {
      "channel": 2,
      "note": 72,
      "start": 10.4012,
      "duration": 0.1961,
      "velocity": 120,
      "chip": "ym2612"
    },
    {
      "channel": 0,
      "note": 75,
      "start": 10.6628,
      "duration": 0.5326,
      "velocity": 101,
      "chip": "ym2612"
    },
    {
      "channel": 1,
      "note": 62,
      "start": 10.6635,
      "duration": 0.2656,
      "velocity": 107,
      "chip": "ym2612"
    },
    {
      "channel": 1,
      "note": 63,
      "start": 10.9297,
      "duration": 0.2665,
      "velocity": 107,
      "chip": "ym2612"
    },
    {
      "channel": 2,
      "note": 29,
      "start": 10.9349,
      "duration": 0.0623,
      "velocity": 119,
      "chip": "ym2612"
    },
    {
      "channel": 0,
      "note": 74,
      "start": 11.1961,
      "duration": 0.5326,
      "velocity": 101,
      "chip": "ym2612"
    },
    {
      "channel": 1,
      "note": 64,
      "start": 11.1969,
      "duration": 0.2656,
      "velocity": 107,
      "chip": "ym2612"
    },
    {
      "channel": 3,
      "note": 72,
      "start": 11.1976,
      "duration": 1.5996,
      "velocity": 115,
      "chip": "ym2612"
    },
    {
      "channel": 4,
      "note": 68,
      "start": 11.1984,
      "duration": 1.5997,
      "velocity": 115,
      "chip": "ym2612"
    },
    {
      "channel": 5,
      "note": 62,
      "start": 11.1992,
      "duration": 1.5998,
      "velocity": 115,
      "chip": "ym2612"
    },
    {
      "channel": 2,
      "note": 29,
      "start": 11.2,
      "duration": 0.0639,
      "velocity": 119,
      "chip": "ym2612"
    },
    {
      "channel": 1,
      "note": 59,
      "start": 11.463,
      "duration": 0.2665,
      "velocity": 107,
      "chip": "ym2612"
    },
    {
      "channel": 0,
      "note": 72,
      "start": 11.7295,
      "duration": 0.266,
      "velocity": 101,
      "chip": "ym2612"
    },
    {
      "channel": 1,
      "note": 52,
      "start": 11.7302,
      "duration": 0.266,
      "velocity": 107,
      "chip": "ym2612"
    },
    {
      "channel": 0,
      "note": 74,
      "start": 11.9961,
      "duration": 0.266,
      "velocity": 101,
      "chip": "ym2612"
    },
    {
      "channel": 1,
      "note": 59,
      "start": 11.9969,
      "duration": 0.266,
      "velocity": 107,
      "chip": "ym2612"
    },
    {
      "channel": 2,
      "note": 72,
      "start": 12.0021,
      "duration": 0.1952,
      "velocity": 120,
      "chip": "ym2612"
    },
    {
      "channel": 0,
      "note": 72,
      "start": 12.2628,
      "duration": 0.266,
      "velocity": 101,
      "chip": "ym2612"
    },
    {
      "channel": 1,
      "note": 52,
      "start": 12.2635,
      "duration": 0.266,
      "velocity": 107,
      "chip": "ym2612"
    },
    {
      "channel": 0,
      "note": 68,
      "start": 12.5295,
      "duration": 0.266,
      "velocity": 101,
      "chip": "ym2612"
    },
    {
      "channel": 1,
      "note": 55,
      "start": 12.5302,
      "duration": 0.2662,
      "velocity": 107,
      "chip": "ym2612"
    },
    {
      "channel": 2,
      "note": 29,
      "start": 12.5354,
      "duration": 0.0619,
      "velocity": 119,
      "chip": "ym2612"
    },
    {
      "channel": 0,
      "note": 71,
      "start": 12.7961,
      "duration": 3.1993,
      "velocity": 101,
      "chip": "ym2612"
    },
    {
      "channel": 1,
      "note": 57,
      "start": 12.797,
      "duration": 1.0655,
      "velocity": 107,
      "chip": "ym2612"
    },
    {
      "channel": 3,
      "note": 71,
      "start": 12.7978,
      "duration": 1.5989,
      "velocity": 115,
      "chip": "ym2612"
    },
    {
      "channel": 4,
      "note": 67,
      "start": 12.7987,
      "duration": 1.5987,
      "velocity": 115,
      "chip": "ym2612"
    },
    {
      "channel": 5,
      "note": 60,
      "start": 12.7996,
      "duration": 1.5986,
      "velocity": 115,
      "chip": "ym2612"
    },
    {
      "channel": 2,
      "note": 29,
      "start": 12.8004,
      "duration": 0.0635,
      "velocity": 119,
      "chip": "ym2612"
    },
    {
      "channel": 2,
      "note": 72,
      "start": 13.6013,
      "duration": 0.196,
      "velocity": 120,
      "chip": "ym2612"
    },
    {
      "channel": 1,
      "note": 64,
      "start": 13.8632,
      "duration": 0.266,
      "velocity": 107,
      "chip": "ym2612"
    },
    {
      "channel": 1,
      "note": 63,
      "start": 14.1298,
      "duration": 0.266,
      "velocity": 107,
      "chip": "ym2612"
    },
    {
      "channel": 2,
      "note": 29,
      "start": 14.135,
      "duration": 0.0623,
      "velocity": 119,
      "chip": "ym2612"
    },
    {
      "channel": 1,
      "note": 62,
      "start": 14.3965,
      "duration": 1.066,
      "velocity": 107,
      "chip": "ym2612"
    },
    {
      "channel": 3,
      "note": 71,
      "start": 14.3973,
      "duration": 1.5992,
      "velocity": 115,
      "chip": "ym2612"
    },
    {
      "channel": 4,
      "note": 65,
      "start": 14.398,
      "duration": 1.5992,
      "velocity": 115,
      "chip": "ym2612"
    },
    {
      "channel": 5,
      "note": 60,
      "start": 14.3988,
      "duration": 1.5993,
      "velocity": 115,
      "chip": "ym2612"
    },
    {
      "channel": 2,
      "note": 29,
      "start": 14.3996,
      "duration": 0.0644,
      "velocity": 119,
      "chip": "ym2612"
    },
    {
      "channel": 2,
      "note": 72,
      "start": 15.2013,
      "duration": 0.196,
      "velocity": 120,
      "chip": "ym2612"
    },
    {
      "channel": 1,
      "note": 57,
      "start": 15.4632,
      "duration": 0.266,
      "velocity": 107,
      "chip": "ym2612"
    },
    {
      "channel": 1,
      "note": 58,
      "start": 15.7298,
      "duration": 0.2659,
      "velocity": 107,
      "chip": "ym2612"
    },
    {
      "channel": 2,
      "note": 29,
      "start": 15.735,
      "duration": 0.0623,
      "velocity": 119,
      "chip": "ym2612"
    },
    {
      "channel": 1,
      "note": 59,
      "start": 15.9964,
      "duration": 1.0658,
      "velocity": 107,
      "chip": "ym2612"
    },
    {
      "channel": 3,
      "note": 69,
      "start": 15.9971,
      "duration": 1.5991,
      "velocity": 115,
      "chip": "ym2612"
    },
    {
      "channel": 4,
      "note": 65,
      "start": 15.9979,
      "duration": 1.5991,
      "velocity": 115,
      "chip": "ym2612"
    },
    {
      "channel": 5,
      "note": 59,
      "start": 15.9987,
      "duration": 1.5991,
      "velocity": 115,
      "chip": "ym2612"
    },
    {
      "channel": 2,
      "note": 29,
      "start": 15.9995,
      "duration": 0.0641,
      "velocity": 119,
      "chip": "ym2612"
    },
    {
      "channel": 2,
      "note": 72,
      "start": 16.8009,
      "duration": 0.1961,
      "velocity": 120,
      "chip": "ym2612"
    },
    {
      "channel": 1,
      "note": 62,
      "start": 17.0628,
      "duration": 0.266,
      "velocity": 107,
      "chip": "ym2612"
    },
    {
      "channel": 1,
      "note": 63,
      "start": 17.3295,
      "duration": 0.266,
      "velocity": 107,
      "chip": "ym2612"
    },
    {
      "channel": 2,
      "note": 29,
      "start": 17.3346,
      "duration": 0.0623,
      "velocity": 119,
      "chip": "ym2612"
    },
    {
      "channel": 1,
      "note": 64,
      "start": 17.5961,
      "duration": 0.266,
      "velocity": 107,
      "chip": "ym2612"
    },
    {
      "channel": 3,
      "note": 72,
      "start": 17.5969,
      "duration": 1.6004,
      "velocity": 115,
      "chip": "ym2612"
    },
    {
      "channel": 4,
      "note": 68,
      "start": 17.5976,
      "duration": 1.6005,
      "velocity": 115,
      "chip": "ym2612"
    },
    {
      "channel": 5,
      "note": 62,
      "start": 17.5984,
      "duration": 1.6006,
      "velocity": 115,
      "chip": "ym2612"
    },
    {
      "channel": 2,
      "note": 29,
      "start": 17.5992,
      "duration": 0.0644,
      "velocity": 119,
      "chip": "ym2612"
    },
    {
      "channel": 1,
      "note": 59,
      "start": 17.8628,
      "duration": 0.266,
      "velocity": 107,
      "chip": "ym2612"
    },
    {
      "channel": 1,
      "note": 52,
      "start": 18.1295,
      "duration": 0.266,
      "velocity": 107,
      "chip": "ym2612"
    },
    {
      "channel": 1,
      "note": 59,
      "start": 18.3961,
      "duration": 0.2668,
      "velocity": 107,
      "chip": "ym2612"
    },
    {
      "channel": 2,
      "note": 72,
      "start": 18.4013,
      "duration": 0.1956,
      "velocity": 120,
      "chip": "ym2612"
    },
    {
      "channel": 0,
      "note": 69,
      "start": 18.6628,
      "duration": 0.266,
      "velocity": 101,
      "chip": "ym2612"
    },
    {
      "channel": 1,
      "note": 52,
      "start": 18.6635,
      "duration": 0.266,
      "velocity": 107,
      "chip": "ym2612"
    },
    {
      "channel": 0,
      "note": 72,
      "start": 18.9295,
      "duration": 0.266,
      "velocity": 101,
      "chip": "ym2612"
    },
    {
      "channel": 1,
      "note": 55,
      "start": 18.9302,
      "duration": 0.2662,
      "velocity": 107,
      "chip": "ym2612"
    },
    {
      "channel": 2,
      "note": 29,
      "start": 18.9354,
      "duration": 0.0619,
      "velocity": 119,
      "chip": "ym2612"
    },
    {
      "channel": 0,
      "note": 76,
      "start": 19.1961,
      "duration": 1.066,
      "velocity": 101,
      "chip": "ym2612"
    },
    {
      "channel": 1,
      "note": 57,
      "start": 19.197,
      "duration": 1.0659,
      "velocity": 107,
      "chip": "ym2612"
    },
    {
      "channel": 3,
      "note": 71,
      "start": 19.1978,
      "duration": 1.5993,
      "velocity": 115,
      "chip": "ym2612"
    },
    {
      "channel": 4,
      "note": 67,
      "start": 19.1987,
      "duration": 1.5991,
      "velocity": 115,
      "chip": "ym2612"
    },
    {
      "channel": 5,
      "note": 60,
      "start": 19.1996,
      "duration": 1.599,
      "velocity": 115,
      "chip": "ym2612"
    },
    {
      "channel": 2,
      "note": 29,
      "start": 19.2004,
      "duration": 0.0635,
      "velocity": 119,
      "chip": "ym2612"
    },
    {
      "channel": 2,
      "note": 72,
      "start": 20.0013,
      "duration": 0.196,
      "velocity": 120,
      "chip": "ym2612"
    },
    {
      "channel": 0,
      "note": 69,
      "start": 20.2628,
      "duration": 0.266,
      "velocity": 101,
      "chip": "ym2612"
    },
    {
      "channel": 1,
      "note": 64,
      "start": 20.2635,
      "duration": 0.266,
      "velocity": 107,
      "chip": "ym2612"
    },
    {
      "channel": 0,
      "note": 72,
      "start": 20.5295,
      "duration": 0.266,
      "velocity": 101,
      "chip": "ym2612"
    },
    {
      "channel": 1,
      "note": 63,
      "start": 20.5302,
      "duration": 0.266,
      "velocity": 107,
      "chip": "ym2612"
    },
    {
      "channel": 2,
      "note": 29,
      "start": 20.5354,
      "duration": 0.0619,
      "velocity": 119,
      "chip": "ym2612"
    },
    {
      "channel": 0,
      "note": 76,
      "start": 20.7961,
      "duration": 1.066,
      "velocity": 101,
      "chip": "ym2612"
    },
    {
      "channel": 1,
      "note": 62,
      "start": 20.7969,
      "duration": 1.066,
      "velocity": 107,
      "chip": "ym2612"
    },
    {
      "channel": 3,
      "note": 71,
      "start": 20.7976,
      "duration": 1.5994,
      "velocity": 115,
      "chip": "ym2612"
    },
    {
      "channel": 4,
      "note": 65,
      "start": 20.7984,
      "duration": 1.5994,
      "velocity": 115,
      "chip": "ym2612"
    },
    {
      "channel": 5,
      "note": 60,
      "start": 20.7992,
      "duration": 1.5994,
      "velocity": 115,
      "chip": "ym2612"
    },
    {
      "channel": 2,
      "note": 29,
      "start": 20.8,
      "duration": 0.0639,
      "velocity": 119,
      "chip": "ym2612"
    },
    {
      "channel": 2,
      "note": 72,
      "start": 21.6013,
      "duration": 0.196,
      "velocity": 120,
      "chip": "ym2612"
    },
    {
      "channel": 0,
      "note": 69,
      "start": 21.8628,
      "duration": 0.266,
      "velocity": 101,
      "chip": "ym2612"
    },
    {
      "channel": 1,
      "note": 57,
      "start": 21.8635,
      "duration": 0.266,
      "velocity": 107,
      "chip": "ym2612"
    },
    {
      "channel": 0,
      "note": 72,
      "start": 22.1295,
      "duration": 0.266,
      "velocity": 101,
      "chip": "ym2612"
    },
    {
      "channel": 1,
      "note": 58,
      "start": 22.1302,
      "duration": 0.266,
      "velocity": 107,
      "chip": "ym2612"
    },
    {
      "channel": 2,
      "note": 29,
      "start": 22.1354,
      "duration": 0.0619,
      "velocity": 119,
      "chip": "ym2612"
    },
    {
      "channel": 0,
      "note": 76,
      "start": 22.3961,
      "duration": 0.5326,
      "velocity": 101,
      "chip": "ym2612"
    },
    {
      "channel": 1,
      "note": 59,
      "start": 22.3969,
      "duration": 1.066,
      "velocity": 107,
      "chip": "ym2612"
    },
    {
      "channel": 3,
      "note": 69,
      "start": 22.3976,
      "duration": 1.5994,
      "velocity": 115,
      "chip": "ym2612"
    },
    {
      "channel": 4,
      "note": 65,
      "start": 22.3984,
      "duration": 1.5994,
      "velocity": 115,
      "chip": "ym2612"
    },
    {
      "channel": 5,
      "note": 59,
      "start": 22.3992,
      "duration": 1.5994,
      "velocity": 115,
      "chip": "ym2612"
    },
    {
      "channel": 2,
      "note": 29,
      "start": 22.4,
      "duration": 0.0639,
      "velocity": 119,
      "chip": "ym2612"
    },
    {
      "channel": 0,
      "note": 79,
      "start": 22.9295,
      "duration": 0.5326,
      "velocity": 101,
      "chip": "ym2612"
    },
    {
      "channel": 2,
      "note": 72,
      "start": 23.2012,
      "duration": 0.1961,
      "velocity": 120,
      "chip": "ym2612"
    },
    {
      "channel": 0,
      "note": 75,
      "start": 23.4628,
      "duration": 0.5326,
      "velocity": 101,
      "chip": "ym2612"
    },
    {
      "channel": 1,
      "note": 62,
      "start": 23.4635,
      "duration": 0.2656,
      "velocity": 107,
      "chip": "ym2612"
    },
    {
      "channel": 1,
      "note": 63,
      "start": 23.7297,
      "duration": 0.2665,
      "velocity": 107,
      "chip": "ym2612"
    },
    {
      "channel": 2,
      "note": 29,
      "start": 23.7349,
      "duration": 0.0623,
      "velocity": 119,
      "chip": "ym2612"
    },
    {
      "channel": 0,
      "note": 74,
      "start": 23.9961,
      "duration": 0.5326,
      "velocity": 101,
      "chip": "ym2612"
    },
    {
      "channel": 1,
      "note": 64,
      "start": 23.9969,
      "duration": 0.2656,
      "velocity": 107,
      "chip": "ym2612"
    },
    {
      "channel": 3,
      "note": 72,
      "start": 23.9976,
      "duration": 1.5996,
      "velocity": 115,
      "chip": "ym2612"
    },
    {
      "channel": 4,
      "note": 68,
      "start": 23.9984,
      "duration": 1.5997,
      "velocity": 115,
      "chip": "ym2612"
    },
    {
      "channel": 5,
      "note": 62,
      "start": 23.9992,
      "duration": 1.5998,
      "velocity": 115,
      "chip": "ym2612"
    },
    {
      "channel": 2,
      "note": 29,
      "start": 24.0,
      "duration": 0.0639,
      "velocity": 119,
      "chip": "ym2612"
    },
    {
      "channel": 1,
      "note": 59,
      "start": 24.263,
      "duration": 0.2665,
      "velocity": 107,
      "chip": "ym2612"
    },
    {
      "channel": 0,
      "note": 72,
      "start": 24.5295,
      "duration": 0.266,
      "velocity": 101,
      "chip": "ym2612"
    },
    {
      "channel": 1,
      "note": 52,
      "start": 24.5302,
      "duration": 0.266,
      "velocity": 107,
      "chip": "ym2612"
    },
    {
      "channel": 0,
      "note": 74,
      "start": 24.7961,
      "duration": 0.266,
      "velocity": 101,
      "chip": "ym2612"
    },
    {
      "channel": 1,
      "note": 59,
      "start": 24.7969,
      "duration": 0.266,
      "velocity": 107,
      "chip": "ym2612"
    },
    {
      "channel": 2,
      "note": 72,
      "start": 24.8021,
      "duration": 0.1952,
      "velocity": 120,
      "chip": "ym2612"
    },
    {
      "channel": 0,
      "note": 72,
      "start": 25.0628,
      "duration": 0.266,
      "velocity": 101,
      "chip": "ym2612"
    },
    {
      "channel": 1,
      "note": 52,
      "start": 25.0635,
      "duration": 0.266,
      "velocity": 107,
      "chip": "ym2612"
    },
    {
      "channel": 0,
      "note": 68,
      "start": 25.3295,
      "duration": 0.266,
      "velocity": 101,
      "chip": "ym2612"
    },
    {
      "channel": 1,
      "note": 55,
      "start": 25.3302,
      "duration": 0.2662,
      "velocity": 107,
      "chip": "ym2612"
    },
    {
      "channel": 2,
      "note": 29,
      "start": 25.3354,
      "duration": 0.0619,
      "velocity": 119,
      "chip": "ym2612"
    },
    {
      "channel": 0,
      "note": 71,
      "start": 25.5961,
      "duration": 0.5326,
      "velocity": 101,
      "chip": "ym2612"
    },
    {
      "channel": 1,
      "note": 57,
      "start": 25.597,
      "duration": 1.0655,
      "velocity": 107,
      "chip": "ym2612"
    },
    {
      "channel": 3,
      "note": 71,
      "start": 25.5978,
      "duration": 1.5989,
      "velocity": 115,
      "chip": "ym2612"
    },
    {
      "channel": 4,
      "note": 67,
      "start": 25.5987,
      "duration": 1.5987,
      "velocity": 115,
      "chip": "ym2612"
    },
    {
      "channel": 5,
      "note": 60,
      "start": 25.5996,
      "duration": 1.5986,
      "velocity": 115,
      "chip": "ym2612"
    },
    {
      "channel": 2,
      "note": 29,
      "start": 25.6004,
      "duration": 0.0635,
      "velocity": 119,
      "chip": "ym2612"
    },
    {
      "channel": 0,
      "note": 69,
      "start": 26.1295,
      "duration": 2.666,
      "velocity": 101,
      "chip": "ym2612"
    },
    {
      "channel": 2,
      "note": 72,
      "start": 26.4015,
      "duration": 0.1958,
      "velocity": 120,
      "chip": "ym2612"
    },
    {
      "channel": 1,
      "note": 64,
      "start": 26.6632,
      "duration": 0.266,
      "velocity": 107,
      "chip": "ym2612"
    },
    {
      "channel": 1,
      "note": 63,
      "start": 26.9298,
      "duration": 0.266,
      "velocity": 107,
      "chip": "ym2612"
    },
    {
      "channel": 2,
      "note": 29,
      "start": 26.935,
      "duration": 0.0623,
      "velocity": 119,
      "chip": "ym2612"
    },
    {
      "channel": 1,
      "note": 62,
      "start": 27.1965,
      "duration": 1.066,
      "velocity": 107,
      "chip": "ym2612"
    },
    {
      "channel": 3,
      "note": 71,
      "start": 27.1973,
      "duration": 1.5994,
      "velocity": 115,
      "chip": "ym2612"
    },
    {
      "channel": 4,
      "note": 65,
      "start": 27.198,
      "duration": 1.5994,
      "velocity": 115,
      "chip": "ym2612"
    },
    {
      "channel": 5,
      "note": 60,
      "start": 27.1988,
      "duration": 1.5994,
      "velocity": 115,
      "chip": "ym2612"
    },
    {
      "channel": 2,
      "note": 29,
      "start": 27.1996,
      "duration": 0.0644,
      "velocity": 119,
      "chip": "ym2612"
    },
    {
      "channel": 2,
      "note": 72,
      "start": 28.0013,
      "duration": 0.196,
      "velocity": 120,
      "chip": "ym2612"
    },
    {
      "channel": 1,
      "note": 57,
      "start": 28.2632,
      "duration": 0.266,
      "velocity": 107,
      "chip": "ym2612"
    },
    {
      "channel": 1,
      "note": 58,
      "start": 28.5298,
      "duration": 0.266,
      "velocity": 107,
      "chip": "ym2612"
    },
    {
      "channel": 2,
      "note": 29,
      "start": 28.535,
      "duration": 0.0623,
      "velocity": 119,
      "chip": "ym2612"
    },
    {
      "channel": 1,
      "note": 59,
      "start": 28.7964,
      "duration": 1.0657,
      "velocity": 107,
      "chip": "ym2612"
    },
    {
      "channel": 3,
      "note": 69,
      "start": 28.7972,
      "duration": 1.599,
      "velocity": 115,
      "chip": "ym2612"
    },
    {
      "channel": 4,
      "note": 65,
      "start": 28.798,
      "duration": 1.599,
      "velocity": 115,
      "chip": "ym2612"
    },
    {
      "channel": 5,
      "note": 59,
      "start": 28.7987,
      "duration": 1.599,
      "velocity": 115,
      "chip": "ym2612"
    },
    {
      "channel": 2,
      "note": 29,
      "start": 28.7995,
      "duration": 0.0641,
      "velocity": 119,
      "chip": "ym2612"
    },
    {
      "channel": 2,
      "note": 72,
      "start": 29.6009,
      "duration": 0.1961,
      "velocity": 120,
      "chip": "ym2612"
    },
    {
      "channel": 1,
      "note": 62,
      "start": 29.8628,
      "duration": 0.266,
      "velocity": 107,
      "chip": "ym2612"
    },
    {
      "channel": 1,
      "note": 63,
      "start": 30.1295,
      "duration": 0.266,
      "velocity": 107,
      "chip": "ym2612"
    },
    {
      "channel": 2,
      "note": 29,
      "start": 30.1346,
      "duration": 0.0623,
      "velocity": 119,
      "chip": "ym2612"
    },
    {
      "channel": 1,
      "note": 64,
      "start": 30.3961,
      "duration": 0.266,
      "velocity": 107,
      "chip": "ym2612"
    },
    {
      "channel": 3,
      "note": 72,
      "start": 30.3969,
      "duration": 1.6004,
      "velocity": 115,
      "chip": "ym2612"
    },
    {
      "channel": 4,
      "note": 68,
      "start": 30.3976,
      "duration": 1.6005,
      "velocity": 115,
      "chip": "ym2612"
    },
    {
      "channel": 5,
      "note": 62,
      "start": 30.3984,
      "duration": 1.6006,
      "velocity": 115,
      "chip": "ym2612"
    },
    {
      "channel": 2,
      "note": 29,
      "start": 30.3992,
      "duration": 0.0644,
      "velocity": 119,
      "chip": "ym2612"
    },
    {
      "channel": 1,
      "note": 59,
      "start": 30.6628,
      "duration": 0.266,
      "velocity": 107,
      "chip": "ym2612"
    },
    {
      "channel": 1,
      "note": 52,
      "start": 30.9295,
      "duration": 0.266,
      "velocity": 107,
      "chip": "ym2612"
    },
    {
      "channel": 1,
      "note": 59,
      "start": 31.1961,
      "duration": 0.2668,
      "velocity": 107,
      "chip": "ym2612"
    },
    {
      "channel": 2,
      "note": 72,
      "start": 31.2013,
      "duration": 0.1956,
      "velocity": 120,
      "chip": "ym2612"
    },
    {
      "channel": 0,
      "note": 69,
      "start": 31.4628,
      "duration": 0.266,
      "velocity": 101,
      "chip": "ym2612"
    },
    {
      "channel": 1,
      "note": 52,
      "start": 31.4635,
      "duration": 0.266,
      "velocity": 107,
      "chip": "ym2612"
    },
    {
      "channel": 0,
      "note": 72,
      "start": 31.7295,
      "duration": 0.266,
      "velocity": 101,
      "chip": "ym2612"
    },
    {
      "channel": 1,
      "note": 55,
      "start": 31.7302,
      "duration": 0.2662,
      "velocity": 107,
      "chip": "ym2612"
    },
    {
      "channel": 2,
      "note": 29,
      "start": 31.7354,
      "duration": 0.0619,
      "velocity": 119,
      "chip": "ym2612"
    },
    {
      "channel": 0,
      "note": 76,
      "start": 31.9961,
      "duration": 1.066,
      "velocity": 101,
      "chip": "ym2612"
    },
    {
      "channel": 1,
      "note": 57,
      "start": 31.997,
      "duration": 1.0659,
      "velocity": 107,
      "chip": "ym2612"
    },
    {
      "channel": 3,
      "note": 71,
      "start": 31.9979,
      "duration": 1.5992,
      "velocity": 115,
      "chip": "ym2612"
    },
    {
      "channel": 4,
      "note": 67,
      "start": 31.9987,
      "duration": 1.5991,
      "velocity": 115,
      "chip": "ym2612"
    },
    {
      "channel": 5,
      "note": 60,
      "start": 31.9996,
      "duration": 1.599,
      "velocity": 115,
      "chip": "ym2612"
    },
    {
      "channel": 2,
      "note": 29,
      "start": 32.0004,
      "duration": 0.0635,
      "velocity": 119,
      "chip": "ym2612"
    },
    {
      "channel": 2,
      "note": 72,
      "start": 32.8013,
      "duration": 0.196,
      "velocity": 120,
      "chip": "ym2612"
    },
    {
      "channel": 0,
      "note": 69,
      "start": 33.0628,
      "duration": 0.266,
      "velocity": 101,
      "chip": "ym2612"
    },
    {
      "channel": 1,
      "note": 64,
      "start": 33.0635,
      "duration": 0.266,
      "velocity": 107,
      "chip": "ym2612"
    },
    {
      "channel": 0,
      "note": 72,
      "start": 33.3295,
      "duration": 0.266,
      "velocity": 101,
      "chip": "ym2612"
    },
    {
      "channel": 1,
      "note": 63,
      "start": 33.3302,
      "duration": 0.266,
      "velocity": 107,
      "chip": "ym2612"
    },
    {
      "channel": 2,
      "note": 29,
      "start": 33.3354,
      "duration": 0.0619,
      "velocity": 119,
      "chip": "ym2612"
    },
    {
      "channel": 0,
      "note": 76,
      "start": 33.5961,
      "duration": 1.066,
      "velocity": 101,
      "chip": "ym2612"
    },
    {
      "channel": 1,
      "note": 62,
      "start": 33.5969,
      "duration": 1.066,
      "velocity": 107,
      "chip": "ym2612"
    },
    {
      "channel": 3,
      "note": 71,
      "start": 33.5976,
      "duration": 1.5994,
      "velocity": 115,
      "chip": "ym2612"
    },
    {
      "channel": 4,
      "note": 65,
      "start": 33.5984,
      "duration": 1.5994,
      "velocity": 115,
      "chip": "ym2612"
    },
    {
      "channel": 5,
      "note": 60,
      "start": 33.5992,
      "duration": 1.5994,
      "velocity": 115,
      "chip": "ym2612"
    },
    {
      "channel": 2,
      "note": 29,
      "start": 33.6,
      "duration": 0.0639,
      "velocity": 119,
      "chip": "ym2612"
    },
    {
      "channel": 2,
      "note": 72,
      "start": 34.4013,
      "duration": 0.196,
      "velocity": 120,
      "chip": "ym2612"
    },
    {
      "channel": 0,
      "note": 69,
      "start": 34.6628,
      "duration": 0.266,
      "velocity": 101,
      "chip": "ym2612"
    },
    {
      "channel": 1,
      "note": 57,
      "start": 34.6635,
      "duration": 0.266,
      "velocity": 107,
      "chip": "ym2612"
    },
    {
      "channel": 0,
      "note": 72,
      "start": 34.9295,
      "duration": 0.266,
      "velocity": 101,
      "chip": "ym2612"
    },
    {
      "channel": 1,
      "note": 58,
      "start": 34.9302,
      "duration": 0.266,
      "velocity": 107,
      "chip": "ym2612"
    },
    {
      "channel": 2,
      "note": 29,
      "start": 34.9354,
      "duration": 0.0619,
      "velocity": 119,
      "chip": "ym2612"
    },
    {
      "channel": 0,
      "note": 76,
      "start": 35.1961,
      "duration": 0.5326,
      "velocity": 101,
      "chip": "ym2612"
    },
    {
      "channel": 1,
      "note": 59,
      "start": 35.1969,
      "duration": 1.066,
      "velocity": 107,
      "chip": "ym2612"
    },
    {
      "channel": 3,
      "note": 69,
      "start": 35.1976,
      "duration": 1.5994,
      "velocity": 115,
      "chip": "ym2612"
    },
    {
      "channel": 4,
      "note": 65,
      "start": 35.1984,
      "duration": 1.5994,
      "velocity": 115,
      "chip": "ym2612"
    },
    {
      "channel": 5,
      "note": 59,
      "start": 35.1992,
      "duration": 1.5994,
      "velocity": 115,
      "chip": "ym2612"
    },
    {
      "channel": 2,
      "note": 29,
      "start": 35.2,
      "duration": 0.0639,
      "velocity": 119,
      "chip": "ym2612"
    },
    {
      "channel": 0,
      "note": 79,
      "start": 35.7295,
      "duration": 0.5326,
      "velocity": 101,
      "chip": "ym2612"
    },
    {
      "channel": 2,
      "note": 72,
      "start": 36.0012,
      "duration": 0.1961,
      "velocity": 120,
      "chip": "ym2612"
    },
    {
      "channel": 0,
      "note": 75,
      "start": 36.2628,
      "duration": 0.5326,
      "velocity": 101,
      "chip": "ym2612"
    },
    {
      "channel": 1,
      "note": 62,
      "start": 36.2635,
      "duration": 0.2656,
      "velocity": 107,
      "chip": "ym2612"
    },
    {
      "channel": 1,
      "note": 63,
      "start": 36.5297,
      "duration": 0.2665,
      "velocity": 107,
      "chip": "ym2612"
    },
    {
      "channel": 2,
      "note": 29,
      "start": 36.5349,
      "duration": 0.0623,
      "velocity": 119,
      "chip": "ym2612"
    },
    {
      "channel": 0,
      "note": 74,
      "start": 36.7961,
      "duration": 0.5326,
      "velocity": 101,
      "chip": "ym2612"
    },
    {
      "channel": 1,
      "note": 64,
      "start": 36.7969,
      "duration": 0.2656,
      "velocity": 107,
      "chip": "ym2612"
    },
    {
      "channel": 3,
      "note": 72,
      "start": 36.7976,
      "duration": 1.5996,
      "velocity": 115,
      "chip": "ym2612"
    },
    {
      "channel": 4,
      "note": 68,
      "start": 36.7984,
      "duration": 1.5997,
      "velocity": 115,
      "chip": "ym2612"
    },
    {
      "channel": 5,
      "note": 62,
      "start": 36.7992,
      "duration": 1.5998,
      "velocity": 115,
      "chip": "ym2612"
    },
    {
      "channel": 2,
      "note": 29,
      "start": 36.8,
      "duration": 0.0639,
      "velocity": 119,
      "chip": "ym2612"
    },
    {
      "channel": 1,
      "note": 59,
      "start": 37.063,
      "duration": 0.2665,
      "velocity": 107,
      "chip": "ym2612"
    },
    {
      "channel": 0,
      "note": 72,
      "start": 37.3295,
      "duration": 0.266,
      "velocity": 101,
      "chip": "ym2612"
    },
    {
      "channel": 1,
      "note": 52,
      "start": 37.3302,
      "duration": 0.266,
      "velocity": 107,
      "chip": "ym2612"
    },
    {
      "channel": 0,
      "note": 74,
      "start": 37.5961,
      "duration": 0.266,
      "velocity": 101,
      "chip": "ym2612"
    },
    {
      "channel": 1,
      "note": 59,
      "start": 37.5969,
      "duration": 0.266,
      "velocity": 107,
      "chip": "ym2612"
    },
    {
      "channel": 2,
      "note": 72,
      "start": 37.6021,
      "duration": 0.1952,
      "velocity": 120,
      "chip": "ym2612"
    },
    {
      "channel": 0,
      "note": 72,
      "start": 37.8628,
      "duration": 0.266,
      "velocity": 101,
      "chip": "ym2612"
    },
    {
      "channel": 1,
      "note": 52,
      "start": 37.8635,
      "duration": 0.266,
      "velocity": 107,
      "chip": "ym2612"
    },
    {
      "channel": 0,
      "note": 68,
      "start": 38.1295,
      "duration": 0.266,
      "velocity": 101,
      "chip": "ym2612"
    },
    {
      "channel": 1,
      "note": 55,
      "start": 38.1302,
      "duration": 0.2662,
      "velocity": 107,
      "chip": "ym2612"
    },
    {
      "channel": 2,
      "note": 29,
      "start": 38.1354,
      "duration": 0.0619,
      "velocity": 119,
      "chip": "ym2612"
    },
    {
      "channel": 0,
      "note": 71,
      "start": 38.3961,
      "duration": 3.1993,
      "velocity": 101,
      "chip": "ym2612"
    },
    {
      "channel": 1,
      "note": 57,
      "start": 38.397,
      "duration": 1.0655,
      "velocity": 107,
      "chip": "ym2612"
    },
    {
      "channel": 3,
      "note": 71,
      "start": 38.3978,
      "duration": 1.5989,
      "velocity": 115,
      "chip": "ym2612"
    },
    {
      "channel": 4,
      "note": 67,
      "start": 38.3987,
      "duration": 1.5987,
      "velocity": 115,
      "chip": "ym2612"
    },
    {
      "channel": 5,
      "note": 60,
      "start": 38.3996,
      "duration": 1.5986,
      "velocity": 115,
      "chip": "ym2612"
    },
    {
      "channel": 2,
      "note": 29,
      "start": 38.4004,
      "duration": 0.0635,
      "velocity": 119,
      "chip": "ym2612"
    },
    {
      "channel": 2,
      "note": 72,
      "start": 39.2013,
      "duration": 0.196,
      "velocity": 120,
      "chip": "ym2612"
    },
    {
      "channel": 1,
      "note": 64,
      "start": 39.4632,
      "duration": 0.266,
      "velocity": 107,
      "chip": "ym2612"
    },
    {
      "channel": 1,
      "note": 63,
      "start": 39.7298,
      "duration": 0.266,
      "velocity": 107,
      "chip": "ym2612"
    },
    {
      "channel": 2,
      "note": 29,
      "start": 39.735,
      "duration": 0.0623,
      "velocity": 119,
      "chip": "ym2612"
    },
    {
      "channel": 1,
      "note": 62,
      "start": 39.9965,
      "duration": 1.066,
      "velocity": 107,
      "chip": "ym2612"
    },
    {
      "channel": 3,
      "note": 71,
      "start": 39.9973,
      "duration": 1.5992,
      "velocity": 115,
      "chip": "ym2612"
    },
    {
      "channel": 4,
      "note": 65,
      "start": 39.998,
      "duration": 1.5992,
      "velocity": 115,
      "chip": "ym2612"
    },
    {
      "channel": 5,
      "note": 60,
      "start": 39.9988,
      "duration": 1.5993,
      "velocity": 115,
      "chip": "ym2612"
    },
    {
      "channel": 2,
      "note": 29,
      "start": 39.9996,
      "duration": 0.0644,
      "velocity": 119,
      "chip": "ym2612"
    },
    {
      "channel": 2,
      "note": 72,
      "start": 40.8013,
      "duration": 0.196,
      "velocity": 120,
      "chip": "ym2612"
    },
    {
      "channel": 1,
      "note": 57,
      "start": 41.0632,
      "duration": 0.266,
      "velocity": 107,
      "chip": "ym2612"
    },
    {
      "channel": 1,
      "note": 58,
      "start": 41.3298,
      "duration": 0.2659,
      "velocity": 107,
      "chip": "ym2612"
    },
    {
      "channel": 2,
      "note": 29,
      "start": 41.335,
      "duration": 0.0623,
      "velocity": 119,
      "chip": "ym2612"
    },
    {
      "channel": 1,
      "note": 59,
      "start": 41.5964,
      "duration": 1.0658,
      "velocity": 107,
      "chip": "ym2612"
    },
    {
      "channel": 3,
      "note": 69,
      "start": 41.5971,
      "duration": 1.5991,
      "velocity": 115,
      "chip": "ym2612"
    },
    {
      "channel": 4,
      "note": 65,
      "start": 41.5979,
      "duration": 1.5991,
      "velocity": 115,
      "chip": "ym2612"
    },
    {
      "channel": 5,
      "note": 59,
      "start": 41.5987,
      "duration": 1.5991,
      "velocity": 115,
      "chip": "ym2612"
    },
    {
      "channel": 2,
      "note": 29,
      "start": 41.5995,
      "duration": 0.0641,
      "velocity": 119,
      "chip": "ym2612"
    },
    {
      "channel": 2,
      "note": 72,
      "start": 42.4009,
      "duration": 0.1961,
      "velocity": 120,
      "chip": "ym2612"
    },
    {
      "channel": 1,
      "note": 62,
      "start": 42.6628,
      "duration": 0.266,
      "velocity": 107,
      "chip": "ym2612"
    },
    {
      "channel": 1,
      "note": 63,
      "start": 42.9295,
      "duration": 0.266,
      "velocity": 107,
      "chip": "ym2612"
    },
    {
      "channel": 2,
      "note": 29,
      "start": 42.9346,
      "duration": 0.0623,
      "velocity": 119,
      "chip": "ym2612"
    },
    {
      "channel": 1,
      "note": 64,
      "start": 43.1961,
      "duration": 0.266,
      "velocity": 107,
      "chip": "ym2612"
    },
    {
      "channel": 3,
      "note": 72,
      "start": 43.1969,
      "duration": 1.6004,
      "velocity": 115,
      "chip": "ym2612"
    },
    {
      "channel": 4,
      "note": 68,
      "start": 43.1976,
      "duration": 1.6005,
      "velocity": 115,
      "chip": "ym2612"
    },
    {
      "channel": 5,
      "note": 62,
      "start": 43.1984,
      "duration": 1.6006,
      "velocity": 115,
      "chip": "ym2612"
    },
    {
      "channel": 2,
      "note": 29,
      "start": 43.1992,
      "duration": 0.0644,
      "velocity": 119,
      "chip": "ym2612"
    },
    {
      "channel": 1,
      "note": 59,
      "start": 43.4628,
      "duration": 0.266,
      "velocity": 107,
      "chip": "ym2612"
    },
    {
      "channel": 1,
      "note": 52,
      "start": 43.7295,
      "duration": 0.266,
      "velocity": 107,
      "chip": "ym2612"
    },
    {
      "channel": 1,
      "note": 59,
      "start": 43.9961,
      "duration": 0.2668,
      "velocity": 107,
      "chip": "ym2612"
    },
    {
      "channel": 2,
      "note": 72,
      "start": 44.0013,
      "duration": 0.1956,
      "velocity": 120,
      "chip": "ym2612"
    },
    {
      "channel": 0,
      "note": 69,
      "start": 44.2628,
      "duration": 0.266,
      "velocity": 101,
      "chip": "ym2612"
    },
    {
      "channel": 1,
      "note": 52,
      "start": 44.2635,
      "duration": 0.266,
      "velocity": 107,
      "chip": "ym2612"
    },
    {
      "channel": 0,
      "note": 72,
      "start": 44.5295,
      "duration": 0.266,
      "velocity": 101,
      "chip": "ym2612"
    },
    {
      "channel": 1,
      "note": 55,
      "start": 44.5302,
      "duration": 0.2662,
      "velocity": 107,
      "chip": "ym2612"
    },
    {
      "channel": 2,
      "note": 29,
      "start": 44.5354,
      "duration": 0.0619,
      "velocity": 119,
      "chip": "ym2612"
    },
    {
      "channel": 0,
      "note": 76,
      "start": 44.7961,
      "duration": 1.066,
      "velocity": 101,
      "chip": "ym2612"
    },
    {
      "channel": 1,
      "note": 57,
      "start": 44.797,
      "duration": 1.0659,
      "velocity": 107,
      "chip": "ym2612"
    },
    {
      "channel": 3,
      "note": 71,
      "start": 44.7978,
      "duration": 1.5993,
      "velocity": 115,
      "chip": "ym2612"
    },
    {
      "channel": 4,
      "note": 67,
      "start": 44.7987,
      "duration": 1.5991,
      "velocity": 115,
      "chip": "ym2612"
    },
    {
      "channel": 5,
      "note": 60,
      "start": 44.7996,
      "duration": 1.599,
      "velocity": 115,
      "chip": "ym2612"
    },
    {
      "channel": 2,
      "note": 29,
      "start": 44.8004,
      "duration": 0.0635,
      "velocity": 119,
      "chip": "ym2612"
    },
    {
      "channel": 2,
      "note": 72,
      "start": 45.6013,
      "duration": 0.196,
      "velocity": 120,
      "chip": "ym2612"
    },
    {
      "channel": 0,
      "note": 69,
      "start": 45.8628,
      "duration": 0.266,
      "velocity": 101,
      "chip": "ym2612"
    },
    {
      "channel": 1,
      "note": 64,
      "start": 45.8635,
      "duration": 0.266,
      "velocity": 107,
      "chip": "ym2612"
    },
    {
      "channel": 0,
      "note": 72,
      "start": 46.1295,
      "duration": 0.266,
      "velocity": 101,
      "chip": "ym2612"
    },
    {
      "channel": 1,
      "note": 63,
      "start": 46.1302,
      "duration": 0.266,
      "velocity": 107,
      "chip": "ym2612"
    },
    {
      "channel": 2,
      "note": 29,
      "start": 46.1354,
      "duration": 0.0619,
      "velocity": 119,
      "chip": "ym2612"
    },
    {
      "channel": 0,
      "note": 76,
      "start": 46.3961,
      "duration": 1.066,
      "velocity": 101,
      "chip": "ym2612"
    },
    {
      "channel": 1,
      "note": 62,
      "start": 46.3969,
      "duration": 1.066,
      "velocity": 107,
      "chip": "ym2612"
    },
    {
      "channel": 3,
      "note": 71,
      "start": 46.3976,
      "duration": 1.5994,
      "velocity": 115,
      "chip": "ym2612"
    },
    {
      "channel": 4,
      "note": 65,
      "start": 46.3984,
      "duration": 1.5994,
      "velocity": 115,
      "chip": "ym2612"
    },
    {
      "channel": 5,
      "note": 60,
      "start": 46.3992,
      "duration": 1.5994,
      "velocity": 115,
      "chip": "ym2612"
    },
    {
      "channel": 2,
      "note": 29,
      "start": 46.4,
      "duration": 0.0639,
      "velocity": 119,
      "chip": "ym2612"
    },
    {
      "channel": 2,
      "note": 72,
      "start": 47.2013,
      "duration": 0.196,
      "velocity": 120,
      "chip": "ym2612"
    },
    {
      "channel": 0,
      "note": 69,
      "start": 47.4628,
      "duration": 0.266,
      "velocity": 101,
      "chip": "ym2612"
    },
    {
      "channel": 1,
      "note": 57,
      "start": 47.4635,
      "duration": 0.266,
      "velocity": 107,
      "chip": "ym2612"
    },
    {
      "channel": 0,
      "note": 72,
      "start": 47.7295,
      "duration": 0.266,
      "velocity": 101,
      "chip": "ym2612"
    },
    {
      "channel": 1,
      "note": 58,
      "start": 47.7302,
      "duration": 0.266,
      "velocity": 107,
      "chip": "ym2612"
    },
    {
      "channel": 2,
      "note": 29,
      "start": 47.7354,
      "duration": 0.0619,
      "velocity": 119,
      "chip": "ym2612"
    },
    {
      "channel": 0,
      "note": 76,
      "start": 47.9961,
      "duration": 0.5326,
      "velocity": 101,
      "chip": "ym2612"
    },
    {
      "channel": 1,
      "note": 59,
      "start": 47.9969,
      "duration": 1.066,
      "velocity": 107,
      "chip": "ym2612"
    },
    {
      "channel": 3,
      "note": 69,
      "start": 47.9976,
      "duration": 1.5994,
      "velocity": 115,
      "chip": "ym2612"
    },
    {
      "channel": 4,
      "note": 65,
      "start": 47.9984,
      "duration": 1.5994,
      "velocity": 115,
      "chip": "ym2612"
    },
    {
      "channel": 5,
      "note": 59,
      "start": 47.9992,
      "duration": 1.5994,
      "velocity": 115,
      "chip": "ym2612"
    },
    {
      "channel": 2,
      "note": 29,
      "start": 48.0,
      "duration": 0.0639,
      "velocity": 119,
      "chip": "ym2612"
    },
    {
      "channel": 0,
      "note": 79,
      "start": 48.5295,
      "duration": 0.5326,
      "velocity": 101,
      "chip": "ym2612"
    },
    {
      "channel": 2,
      "note": 72,
      "start": 48.8012,
      "duration": 0.1961,
      "velocity": 120,
      "chip": "ym2612"
    },
    {
      "channel": 0,
      "note": 75,
      "start": 49.0628,
      "duration": 0.5326,
      "velocity": 101,
      "chip": "ym2612"
    },
    {
      "channel": 1,
      "note": 62,
      "start": 49.0635,
      "duration": 0.2656,
      "velocity": 107,
      "chip": "ym2612"
    },
    {
      "channel": 1,
      "note": 63,
      "start": 49.3298,
      "duration": 0.2665,
      "velocity": 107,
      "chip": "ym2612"
    },
    {
      "channel": 2,
      "note": 29,
      "start": 49.3349,
      "duration": 0.0623,
      "velocity": 119,
      "chip": "ym2612"
    },
    {
      "channel": 0,
      "note": 74,
      "start": 49.5961,
      "duration": 0.5326,
      "velocity": 101,
      "chip": "ym2612"
    },
    {
      "channel": 1,
      "note": 64,
      "start": 49.5969,
      "duration": 0.2656,
      "velocity": 107,
      "chip": "ym2612"
    },
    {
      "channel": 3,
      "note": 72,
      "start": 49.5976,
      "duration": 1.5996,
      "velocity": 115,
      "chip": "ym2612"
    },
    {
      "channel": 4,
      "note": 68,
      "start": 49.5984,
      "duration": 1.5997,
      "velocity": 115,
      "chip": "ym2612"
    },
    {
      "channel": 5,
      "note": 62,
      "start": 49.5992,
      "duration": 1.5998,
      "velocity": 115,
      "chip": "ym2612"
    },
    {
      "channel": 2,
      "note": 29,
      "start": 49.6,
      "duration": 0.0639,
      "velocity": 119,
      "chip": "ym2612"
    },
    {
      "channel": 1,
      "note": 59,
      "start": 49.863,
      "duration": 0.2665,
      "velocity": 107,
      "chip": "ym2612"
    },
    {
      "channel": 0,
      "note": 72,
      "start": 50.1295,
      "duration": 0.266,
      "velocity": 101,
      "chip": "ym2612"
    },
    {
      "channel": 1,
      "note": 52,
      "start": 50.1302,
      "duration": 0.266,
      "velocity": 107,
      "chip": "ym2612"
    },
    {
      "channel": 0,
      "note": 74,
      "start": 50.3961,
      "duration": 0.266,
      "velocity": 101,
      "chip": "ym2612"
    },
    {
      "channel": 1,
      "note": 59,
      "start": 50.3969,
      "duration": 0.266,
      "velocity": 107,
      "chip": "ym2612"
    },
    {
      "channel": 2,
      "note": 72,
      "start": 50.4021,
      "duration": 0.1952,
      "velocity": 120,
      "chip": "ym2612"
    },
    {
      "channel": 0,
      "note": 72,
      "start": 50.6628,
      "duration": 0.266,
      "velocity": 101,
      "chip": "ym2612"
    },
    {
      "channel": 1,
      "note": 52,
      "start": 50.6635,
      "duration": 0.266,
      "velocity": 107,
      "chip": "ym2612"
    },
    {
      "channel": 0,
      "note": 68,
      "start": 50.9295,
      "duration": 0.266,
      "velocity": 101,
      "chip": "ym2612"
    },
    {
      "channel": 1,
      "note": 55,
      "start": 50.9302,
      "duration": 0.2662,
      "velocity": 107,
      "chip": "ym2612"
    },
    {
      "channel": 2,
      "note": 29,
      "start": 50.9354,
      "duration": 0.0619,
      "velocity": 119,
      "chip": "ym2612"
    },
    {
      "channel": 0,
      "note": 71,
      "start": 51.1961,
      "duration": 0.5326,
      "velocity": 101,
      "chip": "ym2612"
    },
    {
      "channel": 1,
      "note": 57,
      "start": 51.197,
      "duration": 1.0655,
      "velocity": 107,
      "chip": "ym2612"
    },
    {
      "channel": 3,
      "note": 71,
      "start": 51.1978,
      "duration": 1.5989,
      "velocity": 115,
      "chip": "ym2612"
    },
    {
      "channel": 4,
      "note": 67,
      "start": 51.1987,
      "duration": 1.5987,
      "velocity": 115,
      "chip": "ym2612"
    },
    {
      "channel": 5,
      "note": 60,
      "start": 51.1996,
      "duration": 1.5986,
      "velocity": 115,
      "chip": "ym2612"
    },
    {
      "channel": 2,
      "note": 29,
      "start": 51.2004,
      "duration": 0.0635,
      "velocity": 119,
      "chip": "ym2612"
    },
    {
      "channel": 0,
      "note": 69,
      "start": 51.7295,
      "duration": 2.666,
      "velocity": 101,
      "chip": "ym2612"
    },
    {
      "channel": 2,
      "note": 72,
      "start": 52.0014,
      "duration": 0.1959,
      "velocity": 120,
      "chip": "ym2612"
    },
    {
      "channel": 1,
      "note": 64,
      "start": 52.2632,
      "duration": 0.266,
      "velocity": 107,
      "chip": "ym2612"
    },
    {
      "channel": 1,
      "note": 63,
      "start": 52.5298,
      "duration": 0.266,
      "velocity": 107,
      "chip": "ym2612"
    },
    {
      "channel": 2,
      "note": 29,
      "start": 52.535,
      "duration": 0.0623,
      "velocity": 119,
      "chip": "ym2612"
    },
    {
      "channel": 1,
      "note": 62,
      "start": 52.7965,
      "duration": 1.066,
      "velocity": 107,
      "chip": "ym2612"
    },
    {
      "channel": 3,
      "note": 71,
      "start": 52.7973,
      "duration": 1.5994,
      "velocity": 115,
      "chip": "ym2612"
    },
    {
      "channel": 4,
      "note": 65,
      "start": 52.798,
      "duration": 1.5994,
      "velocity": 115,
      "chip": "ym2612"
    },
    {
      "channel": 5,
      "note": 60,
      "start": 52.7988,
      "duration": 1.5994,
      "velocity": 115,
      "chip": "ym2612"
    },
    {
      "channel": 2,
      "note": 29,
      "start": 52.7996,
      "duration": 0.0644,
      "velocity": 119,
      "chip": "ym2612"
    },
    {
      "channel": 2,
      "note": 72,
      "start": 53.6013,
      "duration": 0.196,
      "velocity": 120,
      "chip": "ym2612"
    },
    {
      "channel": 1,
      "note": 57,
      "start": 53.8632,
      "duration": 0.266,
      "velocity": 107,
      "chip": "ym2612"
    },
    {
      "channel": 1,
      "note": 58,
      "start": 54.1298,
      "duration": 0.266,
      "velocity": 107,
      "chip": "ym2612"
    },
    {
      "channel": 2,
      "note": 29,
      "start": 54.135,
      "duration": 0.0623,
      "velocity": 119,
      "chip": "ym2612"
    },
    {
      "channel": 1,
      "note": 59,
      "start": 54.3964,
      "duration": 1.0657,
      "velocity": 107,
      "chip": "ym2612"
    },
    {
      "channel": 3,
      "note": 69,
      "start": 54.3972,
      "duration": 1.599,
      "velocity": 115,
      "chip": "ym2612"
    },
    {
      "channel": 4,
      "note": 65,
      "start": 54.398,
      "duration": 1.599,
      "velocity": 115,
      "chip": "ym2612"
    },
    {
      "channel": 5,
      "note": 59,
      "start": 54.3987,
      "duration": 1.599,
      "velocity": 115,
      "chip": "ym2612"
    },
    {
      "channel": 2,
      "note": 29,
      "start": 54.3995,
      "duration": 0.0641,
      "velocity": 119,
      "chip": "ym2612"
    },
    {
      "channel": 2,
      "note": 72,
      "start": 55.2009,
      "duration": 0.1961,
      "velocity": 120,
      "chip": "ym2612"
    },
    {
      "channel": 1,
      "note": 62,
      "start": 55.4628,
      "duration": 0.266,
      "velocity": 107,
      "chip": "ym2612"
    },
    {
      "channel": 1,
      "note": 63,
      "start": 55.7295,
      "duration": 0.266,
      "velocity": 107,
      "chip": "ym2612"
    },
    {
      "channel": 2,
      "note": 29,
      "start": 55.7346,
      "duration": 0.0623,
      "velocity": 119,
      "chip": "ym2612"
    },
    {
      "channel": 1,
      "note": 64,
      "start": 55.9961,
      "duration": 0.266,
      "velocity": 107,
      "chip": "ym2612"
    },
    {
      "channel": 3,
      "note": 72,
      "start": 55.9969,
      "duration": 1.6005,
      "velocity": 115,
      "chip": "ym2612"
    },
    {
      "channel": 4,
      "note": 68,
      "start": 55.9976,
      "duration": 1.6006,
      "velocity": 115,
      "chip": "ym2612"
    },
    {
      "channel": 5,
      "note": 62,
      "start": 55.9984,
      "duration": 1.6006,
      "velocity": 115,
      "chip": "ym2612"
    },
    {
      "channel": 2,
      "note": 29,
      "start": 55.9992,
      "duration": 0.0644,
      "velocity": 119,
      "chip": "ym2612"
    },
    {
      "channel": 1,
      "note": 59,
      "start": 56.2628,
      "duration": 0.266,
      "velocity": 107,
      "chip": "ym2612"
    },
    {
      "channel": 1,
      "note": 52,
      "start": 56.5295,
      "duration": 0.266,
      "velocity": 107,
      "chip": "ym2612"
    },
    {
      "channel": 1,
      "note": 59,
      "start": 56.7961,
      "duration": 0.266,
      "velocity": 107,
      "chip": "ym2612"
    },
    {
      "channel": 2,
      "note": 72,
      "start": 56.8013,
      "duration": 0.1956,
      "velocity": 120,
      "chip": "ym2612"
    },
    {
      "channel": 1,
      "note": 52,
      "start": 57.0628,
      "duration": 0.266,
      "velocity": 107,
      "chip": "ym2612"
    },
    {
      "channel": 1,
      "note": 55,
      "start": 57.3295,
      "duration": 0.267,
      "velocity": 107,
      "chip": "ym2612"
    },
    {
      "channel": 2,
      "note": 29,
      "start": 57.3346,
      "duration": 0.0623,
      "velocity": 119,
      "chip": "ym2612"
    },
    {
      "channel": 0,
      "note": 86,
      "start": 57.5961,
      "duration": 0.5326,
      "velocity": 101,
      "chip": "ym2612"
    },
    {
      "channel": 1,
      "note": 62,
      "start": 57.5971,
      "duration": 1.0659,
      "velocity": 107,
      "chip": "ym2612"
    },
    {
      "channel": 3,
      "note": 76,
      "start": 57.598,
      "duration": 1.5991,
      "velocity": 115,
      "chip": "ym2612"
    },
    {
      "channel": 4,
      "note": 72,
      "start": 57.5988,
      "duration": 1.599,
      "velocity": 115,
      "chip": "ym2612"
    },
    {
      "channel": 5,
      "note": 65,
      "start": 57.5997,
      "duration": 1.5989,
      "velocity": 115,
      "chip": "ym2612"
    },
    {
      "channel": 2,
      "note": 29,
      "start": 57.6005,
      "duration": 0.0634,
      "velocity": 119,
      "chip": "ym2612"
    },
    {
      "channel": 0,
      "note": 84,
      "start": 58.1295,
      "duration": 0.5326,
      "velocity": 101,
      "chip": "ym2612"
    },
    {
      "channel": 2,
      "note": 72,
      "start": 58.4012,
      "duration": 0.1961,
      "velocity": 120,
      "chip": "ym2612"
    },
    {
      "channel": 0,
      "note": 86,
      "start": 58.6628,
      "duration": 0.266,
      "velocity": 101,
      "chip": "ym2612"
    },
    {
      "channel": 1,
      "note": 69,
      "start": 58.6636,
      "duration": 0.266,
      "velocity": 107,
      "chip": "ym2612"
    },
    {
      "channel": 0,
      "note": 84,
      "start": 58.9295,
      "duration": 0.266,
      "velocity": 101,
      "chip": "ym2612"
    },
    {
      "channel": 1,
      "note": 68,
      "start": 58.9302,
      "duration": 0.2661,
      "velocity": 107,
      "chip": "ym2612"
    },
    {
      "channel": 2,
      "note": 29,
      "start": 58.9354,
      "duration": 0.0619,
      "velocity": 119,
      "chip": "ym2612"
    },
    {
      "channel": 0,
      "note": 86,
      "start": 59.1961,
      "duration": 0.5326,
      "velocity": 101,
      "chip": "ym2612"
    },
    {
      "channel": 1,
      "note": 67,
      "start": 59.1969,
      "duration": 0.2656,
      "velocity": 107,
      "chip": "ym2612"
    },
    {
      "channel": 3,
      "note": 76,
      "start": 59.1976,
      "duration": 1.5994,
      "velocity": 115,
      "chip": "ym2612"
    },
    {
      "channel": 4,
      "note": 71,
      "start": 59.1984,
      "duration": 1.5994,
      "velocity": 115,
      "chip": "ym2612"
    },
    {
      "channel": 5,
      "note": 65,
      "start": 59.1992,
      "duration": 1.5994,
      "velocity": 115,
      "chip": "ym2612"
    },
    {
      "channel": 2,
      "note": 29,
      "start": 59.2,
      "duration": 0.0639,
      "velocity": 119,
      "chip": "ym2612"
    },
    {
      "channel": 1,
      "note": 62,
      "start": 59.463,
      "duration": 0.2665,
      "velocity": 107,
      "chip": "ym2612"
    },
    {
      "channel": 0,
      "note": 88,
      "start": 59.7295,
      "duration": 0.5326,
      "velocity": 101,
      "chip": "ym2612"
    },
    {
      "channel": 1,
      "note": 55,
      "start": 59.7302,
      "duration": 0.2656,
      "velocity": 107,
      "chip": "ym2612"
    },
    {
      "channel": 1,
      "note": 62,
      "start": 59.9964,
      "duration": 0.2665,
      "velocity": 107,
      "chip": "ym2612"
    },
    {
      "channel": 2,
      "note": 72,
      "start": 60.0016,
      "duration": 0.1957,
      "velocity": 120,
      "chip": "ym2612"
    },
    {
      "channel": 0,
      "note": 84,
      "start": 60.2628,
      "duration": 0.5326,
      "velocity": 101,
      "chip": "ym2612"
    },
    {
      "channel": 1,
      "note": 55,
      "start": 60.2635,
      "duration": 0.2656,
      "velocity": 107,
      "chip": "ym2612"
    },
    {
      "channel": 1,
      "note": 62,
      "start": 60.5297,
      "duration": 0.2666,
      "velocity": 107,
      "chip": "ym2612"
    },
    {
      "channel": 2,
      "note": 29,
      "start": 60.5349,
      "duration": 0.0623,
      "velocity": 119,
      "chip": "ym2612"
    },
    {
      "channel": 0,
      "note": 83,
      "start": 60.7961,
      "duration": 1.066,
      "velocity": 101,
      "chip": "ym2612"
    },
    {
      "channel": 1,
      "note": 60,
      "start": 60.7969,
      "duration": 1.066,
      "velocity": 107,
      "chip": "ym2612"
    },
    {
      "channel": 3,
      "note": 74,
      "start": 60.7976,
      "duration": 1.5994,
      "velocity": 115,
      "chip": "ym2612"
    },
    {
      "channel": 4,
      "note": 71,
      "start": 60.7985,
      "duration": 1.5994,
      "velocity": 115,
      "chip": "ym2612"
    },
    {
      "channel": 5,
      "note": 64,
      "start": 60.7992,
      "duration": 1.5994,
      "velocity": 115,
      "chip": "ym2612"
    },
    {
      "channel": 2,
      "note": 29,
      "start": 60.8,
      "duration": 0.0639,
      "velocity": 119,
      "chip": "ym2612"
    },
    {
      "channel": 2,
      "note": 72,
      "start": 61.6013,
      "duration": 0.196,
      "velocity": 120,
      "chip": "ym2612"
    },
    {
      "channel": 0,
      "note": 79,
      "start": 61.8628,
      "duration": 0.266,
      "velocity": 101,
      "chip": "ym2612"
    },
    {
      "channel": 1,
      "note": 67,
      "start": 61.8635,
      "duration": 0.266,
      "velocity": 107,
      "chip": "ym2612"
    },
    {
      "channel": 0,
      "note": 76,
      "start": 62.1295,
      "duration": 0.266,
      "velocity": 101,
      "chip": "ym2612"
    },
    {
      "channel": 1,
      "note": 66,
      "start": 62.1302,
      "duration": 0.266,
      "velocity": 107,
      "chip": "ym2612"
    },
    {
      "channel": 2,
      "note": 29,
      "start": 62.1354,
      "duration": 0.0619,
      "velocity": 119,
      "chip": "ym2612"
    },
    {
      "channel": 0,
      "note": 79,
      "start": 62.3961,
      "duration": 0.5326,
      "velocity": 101,
      "chip": "ym2612"
    },
    {
      "channel": 1,
      "note": 65,
      "start": 62.3969,
      "duration": 0.2656,
      "velocity": 107,
      "chip": "ym2612"
    },
    {
      "channel": 3,
      "note": 74,
      "start": 62.3976,
      "duration": 1.5994,
      "velocity": 115,
      "chip": "ym2612"
    },
    {
      "channel": 4,
      "note": 69,
      "start": 62.3984,
      "duration": 1.5994,
      "velocity": 115,
      "chip": "ym2612"
    },
    {
      "channel": 5,
      "note": 64,
      "start": 62.3992,
      "duration": 1.5994,
      "velocity": 115,
      "chip": "ym2612"
    },
    {
      "channel": 2,
      "note": 29,
      "start": 62.4,
      "duration": 0.0639,
      "velocity": 119,
      "chip": "ym2612"
    },
    {
      "channel": 1,
      "note": 60,
      "start": 62.663,
      "duration": 0.2665,
      "velocity": 107,
      "chip": "ym2612"
    },
    {
      "channel": 0,
      "note": 81,
      "start": 62.9295,
      "duration": 0.5326,
      "velocity": 101,
      "chip": "ym2612"
    },
    {
      "channel": 1,
      "note": 53,
      "start": 62.9302,
      "duration": 0.2656,
      "velocity": 107,
      "chip": "ym2612"
    },
    {
      "channel": 1,
      "note": 60,
      "start": 63.1964,
      "duration": 0.2665,
      "velocity": 107,
      "chip": "ym2612"
    },
    {
      "channel": 2,
      "note": 72,
      "start": 63.2016,
      "duration": 0.1957,
      "velocity": 120,
      "chip": "ym2612"
    },
    {
      "channel": 0,
      "note": 76,
      "start": 63.4628,
      "duration": 0.266,
      "velocity": 101,
      "chip": "ym2612"
    },
    {
      "channel": 1,
      "note": 53,
      "start": 63.4635,
      "duration": 0.266,
      "velocity": 107,
      "chip": "ym2612"
    },
    {
      "channel": 0,
      "note": 75,
      "start": 63.7295,
      "duration": 0.266,
      "velocity": 101,
      "chip": "ym2612"
    },
    {
      "channel": 1,
      "note": 57,
      "start": 63.7302,
      "duration": 0.266,
      "velocity": 107,
      "chip": "ym2612"
    },
    {
      "channel": 2,
      "note": 29,
      "start": 63.7354,
      "duration": 0.0619,
      "velocity": 119,
      "chip": "ym2612"
    },
    {
      "channel": 0,
      "note": 74,
      "start": 63.9961,
      "duration": 1.3326,
      "velocity": 101,
      "chip": "ym2612"
    },
    {
      "channel": 1,
      "note": 59,
      "start": 63.9969,
      "duration": 1.0656,
      "velocity": 107,
      "chip": "ym2612"
    },
    {
      "channel": 3,
      "note": 74,
      "start": 63.9976,
      "duration": 1.5994,
      "velocity": 115,
      "chip": "ym2612"
    },
    {
      "channel": 4,
      "note": 69,
      "start": 63.9984,
      "duration": 1.5994,
      "velocity": 115,
      "chip": "ym2612"
    },
    {
      "channel": 5,
      "note": 65,
      "start": 63.9992,
      "duration": 1.5994,
      "velocity": 115,
      "chip": "ym2612"
    },
    {
      "channel": 2,
      "note": 29,
      "start": 64.0,
      "duration": 0.0639,
      "velocity": 119,
      "chip": "ym2612"
    },
    {
      "channel": 2,
      "note": 72,
      "start": 64.8013,
      "duration": 0.196,
      "velocity": 120,
      "chip": "ym2612"
    },
    {
      "channel": 1,
      "note": 62,
      "start": 65.0632,
      "duration": 0.2664,
      "velocity": 107,
      "chip": "ym2612"
    },
    {
      "channel": 0,
      "note": 75,
      "start": 65.3295,
      "duration": 0.266,
      "velocity": 101,
      "chip": "ym2612"
    },
    {
      "channel": 1,
      "note": 63,
      "start": 65.3302,
      "duration": 0.266,
      "velocity": 107,
      "chip": "ym2612"
    },
    {
      "channel": 2,
      "note": 29,
      "start": 65.3354,
      "duration": 0.0619,
      "velocity": 119,
      "chip": "ym2612"
    },
    {
      "channel": 0,
      "note": 74,
      "start": 65.5961,
      "duration": 0.5326,
      "velocity": 101,
      "chip": "ym2612"
    },
    {
      "channel": 1,
      "note": 64,
      "start": 65.5969,
      "duration": 0.2656,
      "velocity": 107,
      "chip": "ym2612"
    },
    {
      "channel": 3,
      "note": 74,
      "start": 65.5976,
      "duration": 1.5995,
      "velocity": 115,
      "chip": "ym2612"
    },
    {
      "channel": 4,
      "note": 68,
      "start": 65.5984,
      "duration": 1.5995,
      "velocity": 115,
      "chip": "ym2612"
    },
    {
      "channel": 5,
      "note": 65,
      "start": 65.5992,
      "duration": 1.5995,
      "velocity": 115,
      "chip": "ym2612"
    },
    {
      "channel": 2,
      "note": 29,
      "start": 65.6,
      "duration": 0.0639,
      "velocity": 119,
      "chip": "ym2612"
    },
    {
      "channel": 1,
      "note": 59,
      "start": 65.863,
      "duration": 0.2665,
      "velocity": 107,
      "chip": "ym2612"
    },
    {
      "channel": 0,
      "note": 72,
      "start": 66.1295,
      "duration": 0.266,
      "velocity": 101,
      "chip": "ym2612"
    },
    {
      "channel": 1,
      "note": 52,
      "start": 66.1302,
      "duration": 0.266,
      "velocity": 107,
      "chip": "ym2612"
    },
    {
      "channel": 0,
      "note": 74,
      "start": 66.3961,
      "duration": 0.266,
      "velocity": 101,
      "chip": "ym2612"
    },
    {
      "channel": 1,
      "note": 59,
      "start": 66.3969,
      "duration": 0.266,
      "velocity": 107,
      "chip": "ym2612"
    },
    {
      "channel": 2,
      "note": 72,
      "start": 66.4021,
      "duration": 0.1952,
      "velocity": 120,
      "chip": "ym2612"
    },
    {
      "channel": 0,
      "note": 75,
      "start": 66.6628,
      "duration": 0.266,
      "velocity": 101,
      "chip": "ym2612"
    },
    {
      "channel": 1,
      "note": 52,
      "start": 66.6635,
      "duration": 0.266,
      "velocity": 107,
      "chip": "ym2612"
    },
    {
      "channel": 0,
      "note": 76,
      "start": 66.9295,
      "duration": 0.266,
      "velocity": 101,
      "chip": "ym2612"
    },
    {
      "channel": 1,
      "note": 55,
      "start": 66.9302,
      "duration": 0.2662,
      "velocity": 107,
      "chip": "ym2612"
    },
    {
      "channel": 2,
      "note": 29,
      "start": 66.9354,
      "duration": 0.0619,
      "velocity": 119,
      "chip": "ym2612"
    },
    {
      "channel": 0,
      "note": 79,
      "start": 67.1961,
      "duration": 0.5326,
      "velocity": 101,
      "chip": "ym2612"
    },
    {
      "channel": 1,
      "note": 57,
      "start": 67.197,
      "duration": 1.066,
      "velocity": 107,
      "chip": "ym2612"
    },
    {
      "channel": 3,
      "note": 72,
      "start": 67.1978,
      "duration": 1.5992,
      "velocity": 115,
      "chip": "ym2612"
    },
    {
      "channel": 4,
      "note": 67,
      "start": 67.1985,
      "duration": 1.5993,
      "velocity": 115,
      "chip": "ym2612"
    },
    {
      "channel": 5,
      "note": 64,
      "start": 67.1993,
      "duration": 1.5992,
      "velocity": 115,
      "chip": "ym2612"
    },
    {
      "channel": 2,
      "note": 29,
      "start": 67.2001,
      "duration": 0.0639,
      "velocity": 119,
      "chip": "ym2612"
    },
    {
      "channel": 0,
      "note": 80,
      "start": 67.7295,
      "duration": 0.5326,
      "velocity": 101,
      "chip": "ym2612"
    },
    {
      "channel": 2,
      "note": 72,
      "start": 68.0012,
      "duration": 0.1961,
      "velocity": 120,
      "chip": "ym2612"
    },
    {
      "channel": 0,
      "note": 83,
      "start": 68.2628,
      "duration": 0.266,
      "velocity": 101,
      "chip": "ym2612"
    },
    {
      "channel": 1,
      "note": 52,
      "start": 68.2635,
      "duration": 0.266,
      "velocity": 107,
      "chip": "ym2612"
    },
    {
      "channel": 0,
      "note": 81,
      "start": 68.5295,
      "duration": 0.266,
      "velocity": 101,
      "chip": "ym2612"
    },
    {
      "channel": 1,
      "note": 55,
      "start": 68.5302,
      "duration": 0.266,
      "velocity": 107,
      "chip": "ym2612"
    },
    {
      "channel": 2,
      "note": 29,
      "start": 68.5354,
      "duration": 0.0619,
      "velocity": 119,
      "chip": "ym2612"
    },
    {
      "channel": 0,
      "note": 85,
      "start": 68.7961,
      "duration": 0.7993,
      "velocity": 101,
      "chip": "ym2612"
    },
    {
      "channel": 1,
      "note": 57,
      "start": 68.7969,
      "duration": 0.2658,
      "velocity": 107,
      "chip": "ym2612"
    },
    {
      "channel": 3,
      "note": 73,
      "start": 68.7976,
      "duration": 1.5995,
      "velocity": 115,
      "chip": "ym2612"
    },
    {
      "channel": 4,
      "note": 67,
      "start": 68.7984,
      "duration": 1.5995,
      "velocity": 115,
      "chip": "ym2612"
    },
    {
      "channel": 5,
      "note": 64,
      "start": 68.7992,
      "duration": 1.5996,
      "velocity": 115,
      "chip": "ym2612"
    },
    {
      "channel": 2,
      "note": 29,
      "start": 68.8,
      "duration": 0.0639,
      "velocity": 119,
      "chip": "ym2612"
    },
    {
      "channel": 1,
      "note": 61,
      "start": 69.0633,
      "duration": 0.2659,
      "velocity": 107,
      "chip": "ym2612"
    },
    {
      "channel": 1,
      "note": 64,
      "start": 69.3298,
      "duration": 0.2665,
      "velocity": 107,
      "chip": "ym2612"
    },
    {
      "channel": 0,
      "note": 88,
      "start": 69.5961,
      "duration": 0.266,
      "velocity": 101,
      "chip": "ym2612"
    },
    {
      "channel": 1,
      "note": 69,
      "start": 69.5969,
      "duration": 0.266,
      "velocity": 107,
      "chip": "ym2612"
    },
    {
      "channel": 2,
      "note": 72,
      "start": 69.6021,
      "duration": 0.1952,
      "velocity": 120,
      "chip": "ym2612"
    },
    {
      "channel": 0,
      "note": 91,
      "start": 69.8628,
      "duration": 0.266,
      "velocity": 101,
      "chip": "ym2612"
    },
    {
      "channel": 1,
      "note": 64,
      "start": 69.8635,
      "duration": 0.266,
      "velocity": 107,
      "chip": "ym2612"
    },
    {
      "channel": 0,
      "note": 90,
      "start": 70.1295,
      "duration": 0.266,
      "velocity": 101,
      "chip": "ym2612"
    },
    {
      "channel": 1,
      "note": 61,
      "start": 70.1302,
      "duration": 0.2662,
      "velocity": 107,
      "chip": "ym2612"
    },
    {
      "channel": 2,
      "note": 29,
      "start": 70.1354,
      "duration": 0.0619,
      "velocity": 119,
      "chip": "ym2612"
    },
    {
      "channel": 0,
      "note": 89,
      "start": 70.3961,
      "duration": 1.866,
      "velocity": 101,
      "chip": "ym2612"
    },
    {
      "channel": 1,
      "note": 62,
      "start": 70.397,
      "duration": 1.0655,
      "velocity": 107,
      "chip": "ym2612"
    },
    {
      "channel": 3,
      "note": 76,
      "start": 70.3978,
      "duration": 1.5988,
      "velocity": 115,
      "chip": "ym2612"
    },
    {
      "channel": 4,
      "note": 72,
      "start": 70.3985,
      "duration": 1.5989,
      "velocity": 115,
      "chip": "ym2612"
    },
    {
      "channel": 5,
      "note": 65,
      "start": 70.3993,
      "duration": 1.5989,
      "velocity": 115,
      "chip": "ym2612"
    },
    {
      "channel": 2,
      "note": 29,
      "start": 70.4001,
      "duration": 0.0638,
      "velocity": 119,
      "chip": "ym2612"
    },
    {
      "channel": 2,
      "note": 72,
      "start": 71.2013,
      "duration": 0.196,
      "velocity": 120,
      "chip": "ym2612"
    },
    {
      "channel": 1,
      "note": 69,
      "start": 71.4632,
      "duration": 0.266,
      "velocity": 107,
      "chip": "ym2612"
    },
    {
      "channel": 1,
      "note": 68,
      "start": 71.7298,
      "duration": 0.266,
      "velocity": 107,
      "chip": "ym2612"
    },
    {
      "channel": 2,
      "note": 29,
      "start": 71.735,
      "duration": 0.0623,
      "velocity": 119,
      "chip": "ym2612"
    },
    {
      "channel": 1,
      "note": 67,
      "start": 71.9965,
      "duration": 0.2665,
      "velocity": 107,
      "chip": "ym2612"
    },
    {
      "channel": 3,
      "note": 76,
      "start": 71.9973,
      "duration": 1.5998,
      "velocity": 115,
      "chip": "ym2612"
    },
    {
      "channel": 4,
      "note": 71,
      "start": 71.998,
      "duration": 1.5998,
      "velocity": 115,
      "chip": "ym2612"
    },
    {
      "channel": 5,
      "note": 65,
      "start": 71.9988,
      "duration": 1.5998,
      "velocity": 115,
      "chip": "ym2612"
    },
    {
      "channel": 2,
      "note": 29,
      "start": 71.9996,
      "duration": 0.0644,
      "velocity": 119,
      "chip": "ym2612"
    },
    {
      "channel": 0,
      "note": 86,
      "start": 72.2628,
      "duration": 0.266,
      "velocity": 101,
      "chip": "ym2612"
    },
    {
      "channel": 1,
      "note": 62,
      "start": 72.2635,
      "duration": 0.266,
      "velocity": 107,
      "chip": "ym2612"
    },
    {
      "channel": 0,
      "note": 84,
      "start": 72.5295,
      "duration": 0.266,
      "velocity": 101,
      "chip": "ym2612"
    },
    {
      "channel": 1,
      "note": 55,
      "start": 72.5302,
      "duration": 0.266,
      "velocity": 107,
      "chip": "ym2612"
    },
    {
      "channel": 0,
      "note": 83,
      "start": 72.7961,
      "duration": 0.266,
      "velocity": 101,
      "chip": "ym2612"
    },
    {
      "channel": 1,
      "note": 62,
      "start": 72.7969,
      "duration": 0.266,
      "velocity": 107,
      "chip": "ym2612"
    },
    {
      "channel": 2,
      "note": 72,
      "start": 72.8021,
      "duration": 0.1952,
      "velocity": 120,
      "chip": "ym2612"
    },
    {
      "channel": 0,
      "note": 84,
      "start": 73.0628,
      "duration": 0.266,
      "velocity": 101,
      "chip": "ym2612"
    },
    {
      "channel": 1,
      "note": 55,
      "start": 73.0635,
      "duration": 0.266,
      "velocity": 107,
      "chip": "ym2612"
    },
    {
      "channel": 0,
      "note": 86,
      "start": 73.3295,
      "duration": 0.266,
      "velocity": 101,
      "chip": "ym2612"
    },
    {
      "channel": 1,
      "note": 62,
      "start": 73.3302,
      "duration": 0.266,
      "velocity": 107,
      "chip": "ym2612"
    },
    {
      "channel": 2,
      "note": 29,
      "start": 73.3354,
      "duration": 0.0619,
      "velocity": 119,
      "chip": "ym2612"
    },
    {
      "channel": 0,
      "note": 79,
      "start": 73.5961,
      "duration": 1.066,
      "velocity": 101,
      "chip": "ym2612"
    },
    {
      "channel": 1,
      "note": 60,
      "start": 73.5969,
      "duration": 1.0661,
      "velocity": 107,
      "chip": "ym2612"
    },
    {
      "channel": 3,
      "note": 74,
      "start": 73.5976,
      "duration": 1.5994,
      "velocity": 115,
      "chip": "ym2612"
    },
    {
      "channel": 4,
      "note": 71,
      "start": 73.5984,
      "duration": 1.5994,
      "velocity": 115,
      "chip": "ym2612"
    },
    {
      "channel": 5,
      "note": 64,
      "start": 73.5992,
      "duration": 1.5994,
      "velocity": 115,
      "chip": "ym2612"
    },
    {
      "channel": 2,
      "note": 29,
      "start": 73.6,
      "duration": 0.0639,
      "velocity": 119,
      "chip": "ym2612"
    },
    {
      "channel": 2,
      "note": 72,
      "start": 74.4013,
      "duration": 0.196,
      "velocity": 120,
      "chip": "ym2612"
    },
    {
      "channel": 0,
      "note": 83,
      "start": 74.6628,
      "duration": 0.266,
      "velocity": 101,
      "chip": "ym2612"
    },
    {
      "channel": 1,
      "note": 67,
      "start": 74.6635,
      "duration": 0.266,
      "velocity": 107,
      "chip": "ym2612"
    },
    {
      "channel": 0,
      "note": 79,
      "start": 74.9295,
      "duration": 0.266,
      "velocity": 101,
      "chip": "ym2612"
    },
    {
      "channel": 1,
      "note": 66,
      "start": 74.9302,
      "duration": 0.2661,
      "velocity": 107,
      "chip": "ym2612"
    },
    {
      "channel": 2,
      "note": 29,
      "start": 74.9354,
      "duration": 0.0619,
      "velocity": 119,
      "chip": "ym2612"
    },
    {
      "channel": 0,
      "note": 81,
      "start": 75.1961,
      "duration": 1.066,
      "velocity": 101,
      "chip": "ym2612"
    },
    {
      "channel": 1,
      "note": 65,
      "start": 75.1969,
      "duration": 0.2656,
      "velocity": 107,
      "chip": "ym2612"
    },
    {
      "channel": 3,
      "note": 74,
      "start": 75.1976,
      "duration": 1.5994,
      "velocity": 115,
      "chip": "ym2612"
    },
    {
      "channel": 4,
      "note": 69,
      "start": 75.1984,
      "duration": 1.5994,
      "velocity": 115,
      "chip": "ym2612"
    },
    {
      "channel": 5,
      "note": 64,
      "start": 75.1992,
      "duration": 1.5994,
      "velocity": 115,
      "chip": "ym2612"
    },
    {
      "channel": 2,
      "note": 29,
      "start": 75.2,
      "duration": 0.0639,
      "velocity": 119,
      "chip": "ym2612"
    },
    {
      "channel": 1,
      "note": 60,
      "start": 75.4631,
      "duration": 0.2661,
      "velocity": 107,
      "chip": "ym2612"
    },
    {
      "channel": 1,
      "note": 53,
      "start": 75.7298,
      "duration": 0.266,
      "velocity": 107,
      "chip": "ym2612"
    },
    {
      "channel": 1,
      "note": 60,
      "start": 75.9965,
      "duration": 0.2664,
      "velocity": 107,
      "chip": "ym2612"
    },
    {
      "channel": 2,
      "note": 72,
      "start": 76.0017,
      "duration": 0.1956,
      "velocity": 120,
      "chip": "ym2612"
    },
    {
      "channel": 0,
      "note": 76,
      "start": 76.2628,
      "duration": 0.266,
      "velocity": 101,
      "chip": "ym2612"
    },
    {
      "channel": 1,
      "note": 53,
      "start": 76.2635,
      "duration": 0.266,
      "velocity": 107,
      "chip": "ym2612"
    },
    {
      "channel": 0,
      "note": 75,
      "start": 76.5295,
      "duration": 0.266,
      "velocity": 101,
      "chip": "ym2612"
    },
    {
      "channel": 1,
      "note": 57,
      "start": 76.5302,
      "duration": 0.266,
      "velocity": 107,
      "chip": "ym2612"
    },
    {
      "channel": 2,
      "note": 29,
      "start": 76.5354,
      "duration": 0.0619,
      "velocity": 119,
      "chip": "ym2612"
    },
    {
      "channel": 0,
      "note": 74,
      "start": 76.7961,
      "duration": 1.3326,
      "velocity": 101,
      "chip": "ym2612"
    },
    {
      "channel": 1,
      "note": 59,
      "start": 76.7969,
      "duration": 1.0656,
      "velocity": 107,
      "chip": "ym2612"
    },
    {
      "channel": 3,
      "note": 74,
      "start": 76.7976,
      "duration": 1.5994,
      "velocity": 115,
      "chip": "ym2612"
    },
    {
      "channel": 4,
      "note": 69,
      "start": 76.7984,
      "duration": 1.5994,
      "velocity": 115,
      "chip": "ym2612"
    },
    {
      "channel": 5,
      "note": 65,
      "start": 76.7992,
      "duration": 1.5994,
      "velocity": 115,
      "chip": "ym2612"
    },
    {
      "channel": 2,
      "note": 29,
      "start": 76.8,
      "duration": 0.0639,
      "velocity": 119,
      "chip": "ym2612"
    },
    {
      "channel": 2,
      "note": 72,
      "start": 77.6013,
      "duration": 0.196,
      "velocity": 120,
      "chip": "ym2612"
    },
    {
      "channel": 1,
      "note": 62,
      "start": 77.8632,
      "duration": 0.2664,
      "velocity": 107,
      "chip": "ym2612"
    },
    {
      "channel": 0,
      "note": 75,
      "start": 78.1295,
      "duration": 0.266,
      "velocity": 101,
      "chip": "ym2612"
    },
    {
      "channel": 1,
      "note": 63,
      "start": 78.1302,
      "duration": 0.266,
      "velocity": 107,
      "chip": "ym2612"
    },
    {
      "channel": 2,
      "note": 29,
      "start": 78.1354,
      "duration": 0.0619,
      "velocity": 119,
      "chip": "ym2612"
    },
    {
      "channel": 0,
      "note": 74,
      "start": 78.3961,
      "duration": 0.5326,
      "velocity": 101,
      "chip": "ym2612"
    },
    {
      "channel": 1,
      "note": 64,
      "start": 78.3969,
      "duration": 0.2656,
      "velocity": 107,
      "chip": "ym2612"
    },
    {
      "channel": 3,
      "note": 74,
      "start": 78.3976,
      "duration": 1.5995,
      "velocity": 115,
      "chip": "ym2612"
    },
    {
      "channel": 4,
      "note": 68,
      "start": 78.3984,
      "duration": 1.5995,
      "velocity": 115,
      "chip": "ym2612"
    },
    {
      "channel": 5,
      "note": 65,
      "start": 78.3992,
      "duration": 1.5995,
      "velocity": 115,
      "chip": "ym2612"
    },
    {
      "channel": 2,
      "note": 29,
      "start": 78.4,
      "duration": 0.0639,
      "velocity": 119,
      "chip": "ym2612"
    },
    {
      "channel": 1,
      "note": 59,
      "start": 78.663,
      "duration": 0.2665,
      "velocity": 107,
      "chip": "ym2612"
    },
    {
      "channel": 0,
      "note": 72,
      "start": 78.9295,
      "duration": 0.266,
      "velocity": 101,
      "chip": "ym2612"
    },
    {
      "channel": 1,
      "note": 52,
      "start": 78.9302,
      "duration": 0.266,
      "velocity": 107,
      "chip": "ym2612"
    },
    {
      "channel": 0,
      "note": 74,
      "start": 79.1961,
      "duration": 0.266,
      "velocity": 101,
      "chip": "ym2612"
    },
    {
      "channel": 1,
      "note": 59,
      "start": 79.1969,
      "duration": 0.266,
      "velocity": 107,
      "chip": "ym2612"
    },
    {
      "channel": 2,
      "note": 72,
      "start": 79.2021,
      "duration": 0.1952,
      "velocity": 120,
      "chip": "ym2612"
    },
    {
      "channel": 0,
      "note": 72,
      "start": 79.4628,
      "duration": 0.266,
      "velocity": 101,
      "chip": "ym2612"
    },
    {
      "channel": 1,
      "note": 52,
      "start": 79.4635,
      "duration": 0.266,
      "velocity": 107,
      "chip": "ym2612"
    },
    {
      "channel": 0,
      "note": 68,
      "start": 79.7295,
      "duration": 0.266,
      "velocity": 101,
      "chip": "ym2612"
    },
    {
      "channel": 1,
      "note": 55,
      "start": 79.7302,
      "duration": 0.2662,
      "velocity": 107,
      "chip": "ym2612"
    },
    {
      "channel": 2,
      "note": 29,
      "start": 79.7354,
      "duration": 0.0619,
      "velocity": 119,
      "chip": "ym2612"
    },
    {
      "channel": 0,
      "note": 71,
      "start": 79.9961,
      "duration": 0.5326,
      "velocity": 101,
      "chip": "ym2612"
    },
    {
      "channel": 1,
      "note": 57,
      "start": 79.9969,
      "duration": 1.0656,
      "velocity": 107,
      "chip": "ym2612"
    },
    {
      "channel": 3,
      "note": 71,
      "start": 79.9978,
      "duration": 1.5989,
      "velocity": 115,
      "chip": "ym2612"
    },
    {
      "channel": 4,
      "note": 67,
      "start": 79.9985,
      "duration": 1.599,
      "velocity": 115,
      "chip": "ym2612"
    },
    {
      "channel": 5,
      "note": 60,
      "start": 79.9992,
      "duration": 1.599,
      "velocity": 115,
      "chip": "ym2612"
    },
    {
      "channel": 2,
      "note": 29,
      "start": 80.0001,
      "duration": 0.0639,
      "velocity": 119,
      "chip": "ym2612"
    },
    {
      "channel": 0,
      "note": 69,
      "start": 80.5295,
      "duration": 2.3993,
      "velocity": 101,
      "chip": "ym2612"
    },
    {
      "channel": 2,
      "note": 72,
      "start": 80.8012,
      "duration": 0.1961,
      "velocity": 120,
      "chip": "ym2612"
    },
    {
      "channel": 1,
      "note": 52,
      "start": 81.0632,
      "duration": 0.266,
      "velocity": 107,
      "chip": "ym2612"
    },
    {
      "channel": 1,
      "note": 51,
      "start": 81.3298,
      "duration": 0.266,
      "velocity": 107,
      "chip": "ym2612"
    },
    {
      "channel": 2,
      "note": 29,
      "start": 81.335,
      "duration": 0.0623,
      "velocity": 119,
      "chip": "ym2612"
    },
    {
      "channel": 1,
      "note": 50,
      "start": 81.5965,
      "duration": 1.066,
      "velocity": 107,
      "chip": "ym2612"
    },
    {
      "channel": 3,
      "note": 71,
      "start": 81.5973,
      "duration": 1.5995,
      "velocity": 115,
      "chip": "ym2612"
    },
    {
      "channel": 4,
      "note": 65,
      "start": 81.598,
      "duration": 1.5995,
      "velocity": 115,
      "chip": "ym2612"
    },
    {
      "channel": 5,
      "note": 60,
      "start": 81.5988,
      "duration": 1.5996,
      "velocity": 115,
      "chip": "ym2612"
    },
    {
      "channel": 2,
      "note": 29,
      "start": 81.5996,
      "duration": 0.0644,
      "velocity": 119,
      "chip": "ym2612"
    },
    {
      "channel": 2,
      "note": 72,
      "start": 82.4013,
      "duration": 0.196,
      "velocity": 120,
      "chip": "ym2612"
    },
    {
      "channel": 1,
      "note": 55,
      "start": 82.6632,
      "duration": 0.2659,
      "velocity": 107,
      "chip": "ym2612"
    },
    {
      "channel": 1,
      "note": 56,
      "start": 82.9297,
      "duration": 0.2663,
      "velocity": 107,
      "chip": "ym2612"
    },
    {
      "channel": 2,
      "note": 29,
      "start": 82.9349,
      "duration": 0.0621,
      "velocity": 119,
      "chip": "ym2612"
    },
    {
      "channel": 1,
      "note": 57,
      "start": 83.1967,
      "duration": 1.5991,
      "velocity": 107,
      "chip": "ym2612"
    },
    {
      "channel": 3,
      "note": 71,
      "start": 83.1975,
      "duration": 1.5992,
      "velocity": 115,
      "chip": "ym2612"
    },
    {
      "channel": 4,
      "note": 67,
      "start": 83.1982,
      "duration": 1.5992,
      "velocity": 115,
      "chip": "ym2612"
    },
    {
      "channel": 5,
      "note": 60,
      "start": 83.199,
      "duration": 1.5992,
      "velocity": 115,
      "chip": "ym2612"
    },
    {
      "channel": 2,
      "note": 29,
      "start": 83.1998,
      "duration": 0.0642,
      "velocity": 119,
      "chip": "ym2612"
    },
    {
      "channel": 2,
      "note": 72,
      "start": 84.0013,
      "duration": 0.1961,
      "velocity": 120,
      "chip": "ym2612"
    },
    {
      "channel": 2,
      "note": 29,
      "start": 84.5345,
      "duration": 0.0628,
      "velocity": 119,
      "chip": "ym2612"
    },
    {
      "channel": 1,
      "note": 50,
      "start": 84.7964,
      "duration": 1.0661,
      "velocity": 107,
      "chip": "ym2612"
    },
    {
      "channel": 3,
      "note": 71,
      "start": 84.7972,
      "duration": 1.599,
      "velocity": 115,
      "chip": "ym2612"
    },
    {
      "channel": 4,
      "note": 65,
      "start": 84.798,
      "duration": 1.5982,
      "velocity": 115,
      "chip": "ym2612"
    },
    {
      "channel": 5,
      "note": 60,
      "start": 84.7987,
      "duration": 1.5974,
      "velocity": 115,
      "chip": "ym2612"
    },
    {
      "channel": 2,
      "note": 29,
      "start": 84.7995,
      "duration": 0.0644,
      "velocity": 119,
      "chip": "ym2612"
    },
    {
      "channel": 2,
      "note": 72,
      "start": 85.6013,
      "duration": 0.1961,
      "velocity": 120,
      "chip": "ym2612"
    },
    {
      "channel": 1,
      "note": 55,
      "start": 85.8631,
      "duration": 0.266,
      "velocity": 107,
      "chip": "ym2612"
    },
    {
      "channel": 1,
      "note": 56,
      "start": 86.1298,
      "duration": 0.2661,
      "velocity": 107,
      "chip": "ym2612"
    },
    {
      "channel": 2,
      "note": 29,
      "start": 86.1349,
      "duration": 0.0624,
      "velocity": 119,
      "chip": "ym2612"
    }
  ]
}