{
  "track_name": "02 - Gate of Great Colossus (Title)",
  "duration_sec": 147.666,
  "sample_rate": 44100,
  "note_count": 2225,
  "unique_pitches": 25,
  "pitch_range": 51,
  "avg_note_duration": 0.2473,
  "reconstruction_stats": {
    "notes_reconstructed": 2225,
    "keyon_events": 2225,
    "keyoff_events": 2224,
    "orphan_keyons": 1,
    "unique_pitches": 25,
    "pitch_range": 51,
    "avg_duration_sec": 0.2473
  },
  "metadata": {
    "source": "K\\King Colossus\\02 - Gate of Great Colossus (Title).vgm"
  },
  "notes": [
    {
      "channel": 0,
      "note": 74,
      "start": 0.0,
      "duration": 0.0,
      "velocity": 118,
      "chip": "ym2612"
    },
    {
      "channel": 0,
      "note": 74,
      "start": 0.0,
      "duration": 0.0,
      "velocity": 118,
      "chip": "ym2612"
    },
    {
      "channel": 0,
      "note": 73,
      "start": 0.0,
      "duration": 0.0,
      "velocity": 118,
      "chip": "ym2612"
    },
    {
      "channel": 1,
      "note": 74,
      "start": 0.0,
      "duration": 0.0,
      "velocity": 118,
      "chip": "ym2612"
    },
    {
      "channel": 1,
      "note": 74,
      "start": 0.0,
      "duration": 0.0,
      "velocity": 118,
      "chip": "ym2612"
    },
    {
      "channel": 1,
      "note": 73,
      "start": 0.0,
      "duration": 0.0,
      "velocity": 118,
      "chip": "ym2612"
    },
    {
      "channel": 1,
      "note": 71,
      "start": 0.0,
      "duration": 0.0,
      "velocity": 1,
      "chip": "ym2612"
    },
    {
      "channel": 1,
      "note": 59,
      "start": 0.0,
      "duration": 0.0,
      "velocity": 1,
      "chip": "ym2612"
    },
    {
      "channel": 2,
      "note": 59,
      "start": 0.0,
      "duration": 0.0,
      "velocity": 104,
      "chip": "ym2612"
    },
    {
      "channel": 2,
      "note": 59,
      "start": 0.0,
      "duration": 0.0,
      "velocity": 104,
      "chip": "ym2612"
    },
    {
      "channel": 2,
      "note": 57,
      "start": 0.0,
      "duration": 0.0,
      "velocity": 104,
      "chip": "ym2612"
    },
    {
      "channel": 2,
      "note": 59,
      "start": 0.0,
      "duration": 0.0,
      "velocity": 1,
      "chip": "ym2612"
    },
    {
      "channel": 2,
      "note": 59,
      "start": 0.0,
      "duration": 0.0,
      "velocity": 1,
      "chip": "ym2612"
    },
    {
      "channel": 3,
      "note": 47,
      "start": 0.0,
      "duration": 0.0,
      "velocity": 105,
      "chip": "ym2612"
    },
    {
      "channel": 3,
      "note": 47,
      "start": 0.0,
      "duration": 0.0,
      "velocity": 105,
      "chip": "ym2612"
    },
    {
      "channel": 3,
      "note": 49,
      "start": 0.0,
      "duration": 0.0,
      "velocity": 105,
      "chip": "ym2612"
    },
    {
      "channel": 3,
      "note": 50,
      "start": 0.0,
      "duration": 0.0,
      "velocity": 1,
      "chip": "ym2612"
    },
    {
      "channel": 3,
      "note": 66,
      "start": 0.0,
      "duration": 0.0005,
      "velocity": 1,
      "chip": "ym2612"
    },
    {
      "channel": 4,
      "note": 66,
      "start": 0.0,
      "duration": 0.0,
      "velocity": 118,
      "chip": "ym2612"
    },
    {
      "channel": 4,
      "note": 66,
      "start": 0.0,
      "duration": 0.0,
      "velocity": 118,
      "chip": "ym2612"
    },
    {
      "channel": 4,
      "note": 64,
      "start": 0.0,
      "duration": 0.0,
      "velocity": 118,
      "chip": "ym2612"
    },
    {
      "channel": 4,
      "note": 62,
      "start": 0.0,
      "duration": 0.0,
      "velocity": 1,
      "chip": "ym2612"
    },
    {
      "channel": 1,
      "note": 66,
      "start": 0.0049,
      "duration": 0.1962,
      "velocity": 118,
      "chip": "ym2612"
    },
    {
      "channel": 2,
      "note": 59,
      "start": 0.0062,
      "duration": 0.6485,
      "velocity": 104,
      "chip": "ym2612"
    },
    {
      "channel": 3,
      "note": 59,
      "start": 0.0075,
      "duration": 0.1939,
      "velocity": 118,
      "chip": "ym2612"
    },
    {
      "channel": 4,
      "note": 62,
      "start": 0.0089,
      "duration": 0.1926,
      "velocity": 118,
      "chip": "ym2612"
    },
    {
      "channel": 0,
      "note": 66,
      "start": 0.1317,
      "duration": 0.1855,
      "velocity": 118,
      "chip": "ym2612"
    },
    {
      "channel": 1,
      "note": 66,
      "start": 0.2476,
      "duration": 0.0349,
      "velocity": 118,
      "chip": "ym2612"
    },
    {
      "channel": 3,
      "note": 59,
      "start": 0.2478,
      "duration": 0.0349,
      "velocity": 118,
      "chip": "ym2612"
    },
    {
      "channel": 4,
      "note": 62,
      "start": 0.2481,
      "duration": 0.0348,
      "velocity": 118,
      "chip": "ym2612"
    },
    {
      "channel": 1,
      "note": 66,
      "start": 0.3176,
      "duration": 0.0464,
      "velocity": 118,
      "chip": "ym2612"
    },
    {
      "channel": 3,
      "note": 59,
      "start": 0.3178,
      "duration": 0.0464,
      "velocity": 118,
      "chip": "ym2612"
    },
    {
      "channel": 4,
      "note": 62,
      "start": 0.3181,
      "duration": 0.0463,
      "velocity": 118,
      "chip": "ym2612"
    },
    {
      "channel": 0,
      "note": 66,
      "start": 0.3638,
      "duration": 0.0348,
      "velocity": 118,
      "chip": "ym2612"
    },
    {
      "channel": 1,
      "note": 66,
      "start": 0.3989,
      "duration": 0.0389,
      "velocity": 118,
      "chip": "ym2612"
    },
    {
      "channel": 3,
      "note": 59,
      "start": 0.3992,
      "duration": 0.0387,
      "velocity": 118,
      "chip": "ym2612"
    },
    {
      "channel": 4,
      "note": 62,
      "start": 0.3994,
      "duration": 0.0386,
      "velocity": 118,
      "chip": "ym2612"
    },
    {
      "channel": 0,
      "note": 66,
      "start": 0.4376,
      "duration": 0.0618,
      "velocity": 118,
      "chip": "ym2612"
    },
    {
      "channel": 1,
      "note": 66,
      "start": 0.4997,
      "duration": 0.7156,
      "velocity": 118,
      "chip": "ym2612"
    },
    {
      "channel": 3,
      "note": 59,
      "start": 0.4999,
      "duration": 0.7158,
      "velocity": 118,
      "chip": "ym2612"
    },
    {
      "channel": 4,
      "note": 62,
      "start": 0.5001,
      "duration": 0.7159,
      "velocity": 118,
      "chip": "ym2612"
    },
    {
      "channel": 0,
      "note": 66,
      "start": 0.5458,
      "duration": 0.0466,
      "velocity": 118,
      "chip": "ym2612"
    },
    {
      "channel": 0,
      "note": 66,
      "start": 0.6543,
      "duration": 0.677,
      "velocity": 118,
      "chip": "ym2612"
    },
    {
      "channel": 2,
      "note": 54,
      "start": 0.8093,
      "duration": 0.1221,
      "velocity": 104,
      "chip": "ym2612"
    },
    {
      "channel": 2,
      "note": 59,
      "start": 1.0506,
      "duration": 0.923,
      "velocity": 104,
      "chip": "ym2612"
    },
    {
      "channel": 1,
      "note": 66,
      "start": 1.262,
      "duration": 0.1855,
      "velocity": 118,
      "chip": "ym2612"
    },
    {
      "channel": 3,
      "note": 59,
      "start": 1.2625,
      "duration": 0.1852,
      "velocity": 118,
      "chip": "ym2612"
    },
    {
      "channel": 4,
      "note": 62,
      "start": 1.2628,
      "duration": 0.1851,
      "velocity": 118,
      "chip": "ym2612"
    },
    {
      "channel": 0,
      "note": 66,
      "start": 1.3778,
      "duration": 0.2244,
      "velocity": 118,
      "chip": "ym2612"
    },
    {
      "channel": 1,
      "note": 69,
      "start": 1.5097,
      "duration": 0.2474,
      "velocity": 118,
      "chip": "ym2612"
    },
    {
      "channel": 3,
      "note": 62,
      "start": 1.5101,
      "duration": 0.2473,
      "velocity": 118,
      "chip": "ym2612"
    },
    {
      "channel": 4,
      "note": 66,
      "start": 1.5103,
      "duration": 0.2471,
      "velocity": 118,
      "chip": "ym2612"
    },
    {
      "channel": 0,
      "note": 69,
      "start": 1.6644,
      "duration": 0.2471,
      "velocity": 118,
      "chip": "ym2612"
    },
    {
      "channel": 1,
      "note": 68,
      "start": 1.819,
      "duration": 0.2468,
      "velocity": 118,
      "chip": "ym2612"
    },
    {
      "channel": 3,
      "note": 61,
      "start": 1.8196,
      "duration": 0.2465,
      "velocity": 118,
      "chip": "ym2612"
    },
    {
      "channel": 4,
      "note": 64,
      "start": 1.8197,
      "duration": 0.2464,
      "velocity": 118,
      "chip": "ym2612"
    },
    {
      "channel": 0,
      "note": 68,
      "start": 1.9734,
      "duration": 0.2289,
      "velocity": 118,
      "chip": "ym2612"
    },
    {
      "channel": 1,
      "note": 66,
      "start": 2.1279,
      "duration": 0.0746,
      "velocity": 118,
      "chip": "ym2612"
    },
    {
      "channel": 2,
      "note": 59,
      "start": 2.1282,
      "duration": 0.6466,
      "velocity": 104,
      "chip": "ym2612"
    },
    {
      "channel": 3,
      "note": 59,
      "start": 2.1286,
      "duration": 0.0741,
      "velocity": 118,
      "chip": "ym2612"
    },
    {
      "channel": 4,
      "note": 62,
      "start": 2.1288,
      "duration": 0.0741,
      "velocity": 118,
      "chip": "ym2612"
    },
    {
      "channel": 0,
      "note": 66,
      "start": 2.2501,
      "duration": 0.0706,
      "velocity": 118,
      "chip": "ym2612"
    },
    {
      "channel": 1,
      "note": 64,
      "start": 2.2505,
      "duration": 0.0704,
      "velocity": 118,
      "chip": "ym2612"
    },
    {
      "channel": 3,
      "note": 57,
      "start": 2.251,
      "duration": 0.0701,
      "velocity": 118,
      "chip": "ym2612"
    },
    {
      "channel": 4,
      "note": 61,
      "start": 2.2512,
      "duration": 0.07,
      "velocity": 118,
      "chip": "ym2612"
    },
    {
      "channel": 0,
      "note": 64,
      "start": 2.3685,
      "duration": 0.0706,
      "velocity": 118,
      "chip": "ym2612"
    },
    {
      "channel": 1,
      "note": 66,
      "start": 2.3689,
      "duration": 0.8606,
      "velocity": 118,
      "chip": "ym2612"
    },
    {
      "channel": 3,
      "note": 59,
      "start": 2.3693,
      "duration": 0.8607,
      "velocity": 118,
      "chip": "ym2612"
    },
    {
      "channel": 4,
      "note": 62,
      "start": 2.3696,
      "duration": 0.8607,
      "velocity": 118,
      "chip": "ym2612"
    },
    {
      "channel": 0,
      "note": 66,
      "start": 2.4869,
      "duration": 0.8243,
      "velocity": 118,
      "chip": "ym2612"
    },
    {
      "channel": 2,
      "note": 54,
      "start": 2.9296,
      "duration": 0.1077,
      "velocity": 104,
      "chip": "ym2612"
    },
    {
      "channel": 2,
      "note": 59,
      "start": 3.1113,
      "duration": 0.0738,
      "velocity": 104,
      "chip": "ym2612"
    },
    {
      "channel": 2,
      "note": 54,
      "start": 3.2637,
      "duration": 0.078,
      "velocity": 104,
      "chip": "ym2612"
    },
    {
      "channel": 1,
      "note": 59,
      "start": 3.4183,
      "duration": 0.276,
      "velocity": 118,
      "chip": "ym2612"
    },
    {
      "channel": 2,
      "note": 59,
      "start": 3.4186,
      "duration": 0.0741,
      "velocity": 104,
      "chip": "ym2612"
    },
    {
      "channel": 0,
      "note": 59,
      "start": 3.4925,
      "duration": 0.2969,
      "velocity": 118,
      "chip": "ym2612"
    },
    {
      "channel": 2,
      "note": 54,
      "start": 3.5712,
      "duration": 0.0787,
      "velocity": 104,
      "chip": "ym2612"
    },
    {
      "channel": 1,
      "note": 66,
      "start": 3.741,
      "duration": 0.1671,
      "velocity": 118,
      "chip": "ym2612"
    },
    {
      "channel": 2,
      "note": 59,
      "start": 3.7414,
      "duration": 0.6203,
      "velocity": 104,
      "chip": "ym2612"
    },
    {
      "channel": 3,
      "note": 59,
      "start": 3.7416,
      "duration": 0.1667,
      "velocity": 118,
      "chip": "ym2612"
    },
    {
      "channel": 4,
      "note": 62,
      "start": 3.7419,
      "duration": 0.1666,
      "velocity": 118,
      "chip": "ym2612"
    },
    {
      "channel": 0,
      "note": 66,
      "start": 3.8372,
      "duration": 0.1892,
      "velocity": 118,
      "chip": "ym2612"
    },
    {
      "channel": 1,
      "note": 66,
      "start": 3.9556,
      "duration": 0.0352,
      "velocity": 118,
      "chip": "ym2612"
    },
    {
      "channel": 3,
      "note": 59,
      "start": 3.9559,
      "duration": 0.0351,
      "velocity": 118,
      "chip": "ym2612"
    },
    {
      "channel": 4,
      "note": 62,
      "start": 3.9561,
      "duration": 0.0351,
      "velocity": 118,
      "chip": "ym2612"
    },
    {
      "channel": 1,
      "note": 66,
      "start": 4.0266,
      "duration": 0.047,
      "velocity": 118,
      "chip": "ym2612"
    },
    {
      "channel": 3,
      "note": 59,
      "start": 4.0269,
      "duration": 0.0469,
      "velocity": 118,
      "chip": "ym2612"
    },
    {
      "channel": 4,
      "note": 62,
      "start": 4.0271,
      "duration": 0.0468,
      "velocity": 118,
      "chip": "ym2612"
    },
    {
      "channel": 0,
      "note": 66,
      "start": 4.0735,
      "duration": 0.0358,
      "velocity": 118,
      "chip": "ym2612"
    },
    {
      "channel": 1,
      "note": 66,
      "start": 4.1095,
      "duration": 0.0354,
      "velocity": 118,
      "chip": "ym2612"
    },
    {
      "channel": 3,
      "note": 59,
      "start": 4.1098,
      "duration": 0.0353,
      "velocity": 118,
      "chip": "ym2612"
    },
    {
      "channel": 4,
      "note": 62,
      "start": 4.11,
      "duration": 0.0352,
      "velocity": 118,
      "chip": "ym2612"
    },
    {
      "channel": 0,
      "note": 66,
      "start": 4.1447,
      "duration": 0.062,
      "velocity": 118,
      "chip": "ym2612"
    },
    {
      "channel": 1,
      "note": 66,
      "start": 4.2069,
      "duration": 0.7126,
      "velocity": 118,
      "chip": "ym2612"
    },
    {
      "channel": 3,
      "note": 59,
      "start": 4.2071,
      "duration": 0.7128,
      "velocity": 118,
      "chip": "ym2612"
    },
    {
      "channel": 4,
      "note": 62,
      "start": 4.2073,
      "duration": 0.713,
      "velocity": 118,
      "chip": "ym2612"
    },
    {
      "channel": 0,
      "note": 66,
      "start": 4.2531,
      "duration": 0.0463,
      "velocity": 118,
      "chip": "ym2612"
    },
    {
      "channel": 0,
      "note": 66,
      "start": 4.3613,
      "duration": 0.6767,
      "velocity": 118,
      "chip": "ym2612"
    },
    {
      "channel": 2,
      "note": 54,
      "start": 4.5162,
      "duration": 0.1202,
      "velocity": 104,
      "chip": "ym2612"
    },
    {
      "channel": 2,
      "note": 59,
      "start": 4.7527,
      "duration": 0.9297,
      "velocity": 104,
      "chip": "ym2612"
    },
    {
      "channel": 1,
      "note": 66,
      "start": 4.967,
      "duration": 0.1895,
      "velocity": 118,
      "chip": "ym2612"
    },
    {
      "channel": 3,
      "note": 59,
      "start": 4.9675,
      "duration": 0.1891,
      "velocity": 118,
      "chip": "ym2612"
    },
    {
      "channel": 4,
      "note": 62,
      "start": 4.9678,
      "duration": 0.189,
      "velocity": 118,
      "chip": "ym2612"
    },
    {
      "channel": 0,
      "note": 66,
      "start": 5.0854,
      "duration": 0.2253,
      "velocity": 118,
      "chip": "ym2612"
    },
    {
      "channel": 1,
      "note": 69,
      "start": 5.2183,
      "duration": 0.2473,
      "velocity": 118,
      "chip": "ym2612"
    },
    {
      "channel": 3,
      "note": 62,
      "start": 5.2187,
      "duration": 0.2471,
      "velocity": 118,
      "chip": "ym2612"
    },
    {
      "channel": 4,
      "note": 66,
      "start": 5.2189,
      "duration": 0.247,
      "velocity": 118,
      "chip": "ym2612"
    },
    {
      "channel": 0,
      "note": 69,
      "start": 5.3728,
      "duration": 0.2472,
      "velocity": 118,
      "chip": "ym2612"
    },
    {
      "channel": 1,
      "note": 68,
      "start": 5.5276,
      "duration": 0.0925,
      "velocity": 118,
      "chip": "ym2612"
    },
    {
      "channel": 3,
      "note": 61,
      "start": 5.5281,
      "duration": 0.0924,
      "velocity": 118,
      "chip": "ym2612"
    },
    {
      "channel": 4,
      "note": 64,
      "start": 5.5283,
      "duration": 0.0922,
      "velocity": 118,
      "chip": "ym2612"
    },
    {
      "channel": 0,
      "note": 68,
      "start": 5.682,
      "duration": 0.0925,
      "velocity": 118,
      "chip": "ym2612"
    },
    {
      "channel": 1,
      "note": 69,
      "start": 5.6822,
      "duration": 0.0924,
      "velocity": 118,
      "chip": "ym2612"
    },
    {
      "channel": 3,
      "note": 62,
      "start": 5.6827,
      "duration": 0.0922,
      "velocity": 118,
      "chip": "ym2612"
    },
    {
      "channel": 4,
      "note": 66,
      "start": 5.6829,
      "duration": 0.092,
      "velocity": 118,
      "chip": "ym2612"
    },
    {
      "channel": 0,
      "note": 69,
      "start": 5.8364,
      "duration": 0.0739,
      "velocity": 118,
      "chip": "ym2612"
    },
    {
      "channel": 1,
      "note": 71,
      "start": 5.8367,
      "duration": 0.1902,
      "velocity": 118,
      "chip": "ym2612"
    },
    {
      "channel": 2,
      "note": 59,
      "start": 5.8369,
      "duration": 0.6402,
      "velocity": 104,
      "chip": "ym2612"
    },
    {
      "channel": 3,
      "note": 64,
      "start": 5.8371,
      "duration": 0.19,
      "velocity": 118,
      "chip": "ym2612"
    },
    {
      "channel": 4,
      "note": 68,
      "start": 5.8374,
      "duration": 0.1899,
      "velocity": 118,
      "chip": "ym2612"
    },
    {
      "channel": 0,
      "note": 71,
      "start": 5.9571,
      "duration": 0.1866,
      "velocity": 118,
      "chip": "ym2612"
    },
    {
      "channel": 1,
      "note": 69,
      "start": 6.074,
      "duration": 0.07,
      "velocity": 118,
      "chip": "ym2612"
    },
    {
      "channel": 3,
      "note": 62,
      "start": 6.0744,
      "duration": 0.0698,
      "velocity": 118,
      "chip": "ym2612"
    },
    {
      "channel": 4,
      "note": 66,
      "start": 6.0747,
      "duration": 0.0696,
      "velocity": 118,
      "chip": "ym2612"
    },
    {
      "channel": 0,
      "note": 69,
      "start": 6.1907,
      "duration": 0.0696,
      "velocity": 118,
      "chip": "ym2612"
    },
    {
      "channel": 1,
      "note": 68,
      "start": 6.191,
      "duration": 0.0694,
      "velocity": 118,
      "chip": "ym2612"
    },
    {
      "channel": 3,
      "note": 61,
      "start": 6.1915,
      "duration": 0.0691,
      "velocity": 118,
      "chip": "ym2612"
    },
    {
      "channel": 4,
      "note": 64,
      "start": 6.1917,
      "duration": 0.069,
      "velocity": 118,
      "chip": "ym2612"
    },
    {
      "channel": 0,
      "note": 68,
      "start": 6.3222,
      "duration": 0.0927,
      "velocity": 118,
      "chip": "ym2612"
    },
    {
      "channel": 1,
      "note": 66,
      "start": 6.3225,
      "duration": 0.6135,
      "velocity": 118,
      "chip": "ym2612"
    },
    {
      "channel": 3,
      "note": 59,
      "start": 6.3228,
      "duration": 0.6136,
      "velocity": 118,
      "chip": "ym2612"
    },
    {
      "channel": 4,
      "note": 62,
      "start": 6.323,
      "duration": 0.6137,
      "velocity": 118,
      "chip": "ym2612"
    },
    {
      "channel": 0,
      "note": 66,
      "start": 6.4768,
      "duration": 0.5415,
      "velocity": 118,
      "chip": "ym2612"
    },
    {
      "channel": 2,
      "note": 54,
      "start": 6.6313,
      "duration": 0.109,
      "velocity": 104,
      "chip": "ym2612"
    },
    {
      "channel": 2,
      "note": 59,
      "start": 6.8173,
      "duration": 0.0746,
      "velocity": 104,
      "chip": "ym2612"
    },
    {
      "channel": 2,
      "note": 54,
      "start": 6.9705,
      "duration": 0.0775,
      "velocity": 104,
      "chip": "ym2612"
    },
    {
      "channel": 1,
      "note": 74,
      "start": 7.1244,
      "duration": 0.2223,
      "velocity": 118,
      "chip": "ym2612"
    },
    {
      "channel": 2,
      "note": 59,
      "start": 7.1248,
      "duration": 0.1521,
      "velocity": 104,
      "chip": "ym2612"
    },
    {
      "channel": 4,
      "note": 66,
      "start": 7.1254,
      "duration": 0.2217,
      "velocity": 118,
      "chip": "ym2612"
    },
    {
      "channel": 0,
      "note": 74,
      "start": 7.1979,
      "duration": 0.265,
      "velocity": 118,
      "chip": "ym2612"
    },
    {
      "channel": 1,
      "note": 74,
      "start": 7.3936,
      "duration": 0.0695,
      "velocity": 118,
      "chip": "ym2612"
    },
    {
      "channel": 2,
      "note": 59,
      "start": 7.3937,
      "duration": 0.0113,
      "velocity": 104,
      "chip": "ym2612"
    },
    {
      "channel": 4,
      "note": 66,
      "start": 7.3942,
      "duration": 0.0692,
      "velocity": 118,
      "chip": "ym2612"
    },
    {
      "channel": 0,
      "note": 74,
      "start": 7.5248,
      "duration": 0.0749,
      "velocity": 118,
      "chip": "ym2612"
    },
    {
      "channel": 1,
      "note": 73,
      "start": 7.525,
      "duration": 0.4664,
      "velocity": 118,
      "chip": "ym2612"
    },
    {
      "channel": 2,
      "note": 57,
      "start": 7.5254,
      "duration": 0.3734,
      "velocity": 104,
      "chip": "ym2612"
    },
    {
      "channel": 3,
      "note": 49,
      "start": 7.5274,
      "duration": 0.4642,
      "velocity": 105,
      "chip": "ym2612"
    },
    {
      "channel": 4,
      "note": 64,
      "start": 7.5276,
      "duration": 0.4641,
      "velocity": 118,
      "chip": "ym2612"
    },
    {
      "channel": 0,
      "note": 73,
      "start": 7.6472,
      "duration": 0.4805,
      "velocity": 118,
      "chip": "ym2612"
    },
    {
      "channel": 1,
      "note": 71,
      "start": 8.0535,
      "duration": 0.4627,
      "velocity": 118,
      "chip": "ym2612"
    },
    {
      "channel": 2,
      "note": 59,
      "start": 8.0538,
      "duration": 0.3698,
      "velocity": 104,
      "chip": "ym2612"
    },
    {
      "channel": 3,
      "note": 50,
      "start": 8.0541,
      "duration": 0.4624,
      "velocity": 105,
      "chip": "ym2612"
    },
    {
      "channel": 4,
      "note": 62,
      "start": 8.0544,
      "duration": 0.4622,
      "velocity": 118,
      "chip": "ym2612"
    },
    {
      "channel": 0,
      "note": 71,
      "start": 8.1742,
      "duration": 0.4785,
      "velocity": 118,
      "chip": "ym2612"
    },
    {
      "channel": 1,
      "note": 69,
      "start": 8.5783,
      "duration": 0.466,
      "velocity": 118,
      "chip": "ym2612"
    },
    {
      "channel": 2,
      "note": 61,
      "start": 8.5785,
      "duration": 0.3729,
      "velocity": 104,
      "chip": "ym2612"
    },
    {
      "channel": 3,
      "note": 52,
      "start": 8.5788,
      "duration": 0.4654,
      "velocity": 105,
      "chip": "ym2612"
    },
    {
      "channel": 4,
      "note": 61,
      "start": 8.5791,
      "duration": 0.4653,
      "velocity": 118,
      "chip": "ym2612"
    },
    {
      "channel": 0,
      "note": 69,
      "start": 8.6999,
      "duration": 0.4802,
      "velocity": 118,
      "chip": "ym2612"
    },
    {
      "channel": 1,
      "note": 69,
      "start": 9.106,
      "duration": 0.1906,
      "velocity": 118,
      "chip": "ym2612"
    },
    {
      "channel": 2,
      "note": 54,
      "start": 9.1063,
      "duration": 0.3694,
      "velocity": 104,
      "chip": "ym2612"
    },
    {
      "channel": 3,
      "note": 49,
      "start": 9.1065,
      "duration": 0.4616,
      "velocity": 105,
      "chip": "ym2612"
    },
    {
      "channel": 4,
      "note": 61,
      "start": 9.1066,
      "duration": 0.1902,
      "velocity": 118,
      "chip": "ym2612"
    },
    {
      "channel": 0,
      "note": 69,
      "start": 9.2266,
      "duration": 0.1864,
      "velocity": 118,
      "chip": "ym2612"
    },
    {
      "channel": 1,
      "note": 67,
      "start": 9.3433,
      "duration": 0.0699,
      "velocity": 118,
      "chip": "ym2612"
    },
    {
      "channel": 4,
      "note": 59,
      "start": 9.3438,
      "duration": 0.0696,
      "velocity": 118,
      "chip": "ym2612"
    },
    {
      "channel": 0,
      "note": 67,
      "start": 9.4753,
      "duration": 0.0925,
      "velocity": 118,
      "chip": "ym2612"
    },
    {
      "channel": 1,
      "note": 69,
      "start": 9.4756,
      "duration": 0.0924,
      "velocity": 118,
      "chip": "ym2612"
    },
    {
      "channel": 4,
      "note": 61,
      "start": 9.476,
      "duration": 0.0923,
      "velocity": 118,
      "chip": "ym2612"
    },
    {
      "channel": 0,
      "note": 69,
      "start": 9.6303,
      "duration": 0.0752,
      "velocity": 118,
      "chip": "ym2612"
    },
    {
      "channel": 1,
      "note": 71,
      "start": 9.6306,
      "duration": 0.8854,
      "velocity": 118,
      "chip": "ym2612"
    },
    {
      "channel": 2,
      "note": 59,
      "start": 9.6308,
      "duration": 1.0509,
      "velocity": 104,
      "chip": "ym2612"
    },
    {
      "channel": 3,
      "note": 50,
      "start": 9.631,
      "duration": 0.8854,
      "velocity": 105,
      "chip": "ym2612"
    },
    {
      "channel": 4,
      "note": 62,
      "start": 9.6313,
      "duration": 0.8854,
      "velocity": 118,
      "chip": "ym2612"
    },
    {
      "channel": 0,
      "note": 71,
      "start": 9.7532,
      "duration": 0.8807,
      "velocity": 118,
      "chip": "ym2612"
    },
    {
      "channel": 1,
      "note": 74,
      "start": 10.8143,
      "duration": 0.4024,
      "velocity": 118,
      "chip": "ym2612"
    },
    {
      "channel": 2,
      "note": 59,
      "start": 10.8145,
      "duration": 0.3092,
      "velocity": 104,
      "chip": "ym2612"
    },
    {
      "channel": 3,
      "note": 47,
      "start": 10.8147,
      "duration": 0.4021,
      "velocity": 105,
      "chip": "ym2612"
    },
    {
      "channel": 4,
      "note": 66,
      "start": 10.8151,
      "duration": 0.4019,
      "velocity": 118,
      "chip": "ym2612"
    },
    {
      "channel": 0,
      "note": 74,
      "start": 10.9688,
      "duration": 0.4028,
      "velocity": 118,
      "chip": "ym2612"
    },
    {
      "channel": 1,
      "note": 74,
      "start": 11.2788,
      "duration": 0.0929,
      "velocity": 118,
      "chip": "ym2612"
    },
    {
      "channel": 2,
      "note": 59,
      "start": 11.279,
      "duration": 0.0153,
      "velocity": 104,
      "chip": "ym2612"
    },
    {
      "channel": 3,
      "note": 47,
      "start": 11.2791,
      "duration": 0.0927,
      "velocity": 105,
      "chip": "ym2612"
    },
    {
      "channel": 4,
      "note": 66,
      "start": 11.2793,
      "duration": 0.0927,
      "velocity": 118,
      "chip": "ym2612"
    },
    {
      "channel": 0,
      "note": 74,
      "start": 11.4334,
      "duration": 0.0927,
      "velocity": 118,
      "chip": "ym2612"
    },
    {
      "channel": 1,
      "note": 73,
      "start": 11.4337,
      "duration": 0.5878,
      "velocity": 118,
      "chip": "ym2612"
    },
    {
      "channel": 2,
      "note": 57,
      "start": 11.4339,
      "duration": 0.4794,
      "velocity": 104,
      "chip": "ym2612"
    },
    {
      "channel": 3,
      "note": 49,
      "start": 11.4342,
      "duration": 0.5875,
      "velocity": 105,
      "chip": "ym2612"
    },
    {
      "channel": 4,
      "note": 64,
      "start": 11.4345,
      "duration": 0.5872,
      "velocity": 118,
      "chip": "ym2612"
    },
    {
      "channel": 0,
      "note": 73,
      "start": 11.5881,
      "duration": 0.6036,
      "velocity": 118,
      "chip": "ym2612"
    },
    {
      "channel": 1,
      "note": 71,
      "start": 12.0683,
      "duration": 0.6344,
      "velocity": 118,
      "chip": "ym2612"
    },
    {
      "channel": 2,
      "note": 59,
      "start": 12.0685,
      "duration": 0.5105,
      "velocity": 104,
      "chip": "ym2612"
    },
    {
      "channel": 3,
      "note": 50,
      "start": 12.0688,
      "duration": 0.634,
      "velocity": 105,
      "chip": "ym2612"
    },
    {
      "channel": 4,
      "note": 62,
      "start": 12.0691,
      "duration": 0.6339,
      "velocity": 118,
      "chip": "ym2612"
    },
    {
      "channel": 0,
      "note": 71,
      "start": 12.2383,
      "duration": 0.6345,
      "velocity": 118,
      "chip": "ym2612"
    },
    {
      "channel": 1,
      "note": 69,
      "start": 12.7495,
      "duration": 0.6649,
      "velocity": 118,
      "chip": "ym2612"
    },
    {
      "channel": 2,
      "note": 61,
      "start": 12.7497,
      "duration": 0.5413,
      "velocity": 104,
      "chip": "ym2612"
    },
    {
      "channel": 3,
      "note": 52,
      "start": 12.75,
      "duration": 0.6645,
      "velocity": 105,
      "chip": "ym2612"
    },
    {
      "channel": 4,
      "note": 61,
      "start": 12.7503,
      "duration": 0.6643,
      "velocity": 118,
      "chip": "ym2612"
    },
    {
      "channel": 0,
      "note": 69,
      "start": 12.9349,
      "duration": 0.4794,
      "velocity": 118,
      "chip": "ym2612"
    },
    {
      "channel": 0,
      "note": 69,
      "start": 13.4612,
      "duration": 0.097,
      "velocity": 118,
      "chip": "ym2612"
    },
    {
      "channel": 1,
      "note": 69,
      "start": 13.4613,
      "duration": 0.2486,
      "velocity": 118,
      "chip": "ym2612"
    },
    {
      "channel": 2,
      "note": 54,
      "start": 13.4615,
      "duration": 0.4775,
      "velocity": 104,
      "chip": "ym2612"
    },
    {
      "channel": 3,
      "note": 49,
      "start": 13.4619,
      "duration": 0.5758,
      "velocity": 105,
      "chip": "ym2612"
    },
    {
      "channel": 4,
      "note": 61,
      "start": 13.462,
      "duration": 0.2481,
      "velocity": 118,
      "chip": "ym2612"
    },
    {
      "channel": 0,
      "note": 69,
      "start": 13.6167,
      "duration": 0.26,
      "velocity": 118,
      "chip": "ym2612"
    },
    {
      "channel": 1,
      "note": 68,
      "start": 13.7565,
      "duration": 0.1204,
      "velocity": 118,
      "chip": "ym2612"
    },
    {
      "channel": 4,
      "note": 59,
      "start": 13.7571,
      "duration": 0.1201,
      "velocity": 118,
      "chip": "ym2612"
    },
    {
      "channel": 0,
      "note": 68,
      "start": 13.9386,
      "duration": 0.0986,
      "velocity": 118,
      "chip": "ym2612"
    },
    {
      "channel": 1,
      "note": 69,
      "start": 13.9389,
      "duration": 0.0985,
      "velocity": 118,
      "chip": "ym2612"
    },
    {
      "channel": 4,
      "note": 61,
      "start": 13.9393,
      "duration": 0.0986,
      "velocity": 118,
      "chip": "ym2612"
    },
    {
      "channel": 0,
      "note": 98,
      "start": 14.0874,
      "duration": 0.0241,
      "velocity": 127,
      "chip": "ym2612"
    },
    {
      "channel": 1,
      "note": 71,
      "start": 14.0877,
      "duration": 3.8697,
      "velocity": 118,
      "chip": "ym2612"
    },
    {
      "channel": 2,
      "note": 52,
      "start": 14.088,
      "duration": 3.7,
      "velocity": 104,
      "chip": "ym2612"
    },
    {
      "channel": 3,
      "note": 56,
      "start": 14.0882,
      "duration": 3.8696,
      "velocity": 105,
      "chip": "ym2612"
    },
    {
      "channel": 4,
      "note": 64,
      "start": 14.0884,
      "duration": 3.8695,
      "velocity": 118,
      "chip": "ym2612"
    },
    {
      "channel": 0,
      "note": 98,
      "start": 14.1491,
      "duration": 0.022,
      "velocity": 127,
      "chip": "ym2612"
    },
    {
      "channel": 0,
      "note": 98,
      "start": 14.2178,
      "duration": 0.0346,
      "velocity": 127,
      "chip": "ym2612"
    },
    {
      "channel": 0,
      "note": 98,
      "start": 14.3224,
      "duration": 0.0349,
      "velocity": 127,
      "chip": "ym2612"
    },
    {
      "channel": 0,
      "note": 98,
      "start": 14.4331,
      "duration": 0.046,
      "velocity": 127,
      "chip": "ym2612"
    },
    {
      "channel": 0,
      "note": 98,
      "start": 14.5569,
      "duration": 0.0462,
      "velocity": 127,
      "chip": "ym2612"
    },
    {
      "channel": 0,
      "note": 98,
      "start": 14.6959,
      "duration": 0.0459,
      "velocity": 127,
      "chip": "ym2612"
    },
    {
      "channel": 0,
      "note": 98,
      "start": 14.8195,
      "duration": 0.0462,
      "velocity": 127,
      "chip": "ym2612"
    },
    {
      "channel": 0,
      "note": 98,
      "start": 14.9432,
      "duration": 0.0461,
      "velocity": 127,
      "chip": "ym2612"
    },
    {
      "channel": 0,
      "note": 98,
      "start": 15.0821,
      "duration": 0.0463,
      "velocity": 127,
      "chip": "ym2612"
    },
    {
      "channel": 0,
      "note": 98,
      "start": 15.2059,
      "duration": 0.0463,
      "velocity": 127,
      "chip": "ym2612"
    },
    {
      "channel": 0,
      "note": 98,
      "start": 15.3296,
      "duration": 0.0462,
      "velocity": 127,
      "chip": "ym2612"
    },
    {
      "channel": 0,
      "note": 98,
      "start": 15.4688,
      "duration": 0.0463,
      "velocity": 127,
      "chip": "ym2612"
    },
    {
      "channel": 0,
      "note": 98,
      "start": 15.5926,
      "duration": 0.0462,
      "velocity": 127,
      "chip": "ym2612"
    },
    {
      "channel": 0,
      "note": 98,
      "start": 15.7161,
      "duration": 0.0464,
      "velocity": 127,
      "chip": "ym2612"
    },
    {
      "channel": 0,
      "note": 98,
      "start": 15.8555,
      "duration": 0.0463,
      "velocity": 127,
      "chip": "ym2612"
    },
    {
      "channel": 0,
      "note": 98,
      "start": 15.9791,
      "duration": 0.0309,
      "velocity": 127,
      "chip": "ym2612"
    },
    {
      "channel": 0,
      "note": 98,
      "start": 16.0411,
      "duration": 0.0308,
      "velocity": 127,
      "chip": "ym2612"
    },
    {
      "channel": 0,
      "note": 98,
      "start": 16.1031,
      "duration": 0.0304,
      "velocity": 127,
      "chip": "ym2612"
    },
    {
      "channel": 0,
      "note": 98,
      "start": 16.1804,
      "duration": 0.0152,
      "velocity": 127,
      "chip": "ym2612"
    },
    {
      "channel": 0,
      "note": 98,
      "start": 16.2422,
      "duration": 0.0153,
      "velocity": 127,
      "chip": "ym2612"
    },
    {
      "channel": 0,
      "note": 98,
      "start": 16.3039,
      "duration": 0.0152,
      "velocity": 127,
      "chip": "ym2612"
    },
    {
      "channel": 0,
      "note": 98,
      "start": 16.3659,
      "duration": 0.0306,
      "velocity": 127,
      "chip": "ym2612"
    },
    {
      "channel": 0,
      "note": 98,
      "start": 16.4278,
      "duration": 0.0306,
      "velocity": 127,
      "chip": "ym2612"
    },
    {
      "channel": 0,
      "note": 98,
      "start": 16.4894,
      "duration": 0.0308,
      "velocity": 127,
      "chip": "ym2612"
    },
    {
      "channel": 0,
      "note": 98,
      "start": 16.5667,
      "duration": 0.0152,
      "velocity": 127,
      "chip": "ym2612"
    },
    {
      "channel": 0,
      "note": 98,
      "start": 16.6285,
      "duration": 0.0152,
      "velocity": 127,
      "chip": "ym2612"
    },
    {
      "channel": 0,
      "note": 98,
      "start": 16.6903,
      "duration": 0.0152,
      "velocity": 127,
      "chip": "ym2612"
    },
    {
      "channel": 0,
      "note": 98,
      "start": 16.7521,
      "duration": 0.0307,
      "velocity": 127,
      "chip": "ym2612"
    },
    {
      "channel": 0,
      "note": 98,
      "start": 16.8139,
      "duration": 0.0307,
      "velocity": 127,
      "chip": "ym2612"
    },
    {
      "channel": 0,
      "note": 98,
      "start": 16.8757,
      "duration": 0.0306,
      "velocity": 127,
      "chip": "ym2612"
    },
    {
      "channel": 0,
      "note": 98,
      "start": 16.9531,
      "duration": 0.0152,
      "velocity": 127,
      "chip": "ym2612"
    },
    {
      "channel": 0,
      "note": 98,
      "start": 17.0148,
      "duration": 0.046,
      "velocity": 127,
      "chip": "ym2612"
    },
    {
      "channel": 0,
      "note": 98,
      "start": 17.1383,
      "duration": 0.0462,
      "velocity": 127,
      "chip": "ym2612"
    },
    {
      "channel": 0,
      "note": 98,
      "start": 17.2621,
      "duration": 0.0463,
      "velocity": 127,
      "chip": "ym2612"
    },
    {
      "channel": 0,
      "note": 98,
      "start": 17.4012,
      "duration": 0.0461,
      "velocity": 127,
      "chip": "ym2612"
    },
    {
      "channel": 0,
      "note": 98,
      "start": 17.5248,
      "duration": 0.0461,
      "velocity": 127,
      "chip": "ym2612"
    },
    {
      "channel": 0,
      "note": 98,
      "start": 17.6485,
      "duration": 0.0459,
      "velocity": 127,
      "chip": "ym2612"
    },
    {
      "channel": 0,
      "note": 98,
      "start": 17.7875,
      "duration": 0.0462,
      "velocity": 127,
      "chip": "ym2612"
    },
    {
      "channel": 0,
      "note": 98,
      "start": 17.9111,
      "duration": 0.0459,
      "velocity": 127,
      "chip": "ym2612"
    },
    {
      "channel": 0,
      "note": 98,
      "start": 18.0345,
      "duration": 0.3935,
      "velocity": 127,
      "chip": "ym2612"
    },
    {
      "channel": 1,
      "note": 68,
      "start": 18.037,
      "duration": 0.1078,
      "velocity": 127,
      "chip": "ym2612"
    },
    {
      "channel": 2,
      "note": 59,
      "start": 18.0373,
      "duration": 0.2147,
      "velocity": 104,
      "chip": "ym2612"
    },
    {
      "channel": 1,
      "note": 68,
      "start": 18.2518,
      "duration": 0.1056,
      "velocity": 127,
      "chip": "ym2612"
    },
    {
      "channel": 1,
      "note": 68,
      "start": 18.3575,
      "duration": 0.1067,
      "velocity": 127,
      "chip": "ym2612"
    },
    {
      "channel": 1,
      "note": 68,
      "start": 18.4641,
      "duration": 0.106,
      "velocity": 127,
      "chip": "ym2612"
    },
    {
      "channel": 2,
      "note": 54,
      "start": 18.4645,
      "duration": 0.2122,
      "velocity": 104,
      "chip": "ym2612"
    },
    {
      "channel": 1,
      "note": 68,
      "start": 18.6766,
      "duration": 0.1063,
      "velocity": 127,
      "chip": "ym2612"
    },
    {
      "channel": 1,
      "note": 68,
      "start": 18.783,
      "duration": 0.1063,
      "velocity": 127,
      "chip": "ym2612"
    },
    {
      "channel": 1,
      "note": 68,
      "start": 18.8894,
      "duration": 0.1238,
      "velocity": 127,
      "chip": "ym2612"
    },
    {
      "channel": 2,
      "note": 59,
      "start": 18.8898,
      "duration": 0.263,
      "velocity": 104,
      "chip": "ym2612"
    },
    {
      "channel": 1,
      "note": 68,
      "start": 19.1527,
      "duration": 0.1388,
      "velocity": 127,
      "chip": "ym2612"
    },
    {
      "channel": 1,
      "note": 68,
      "start": 19.2915,
      "duration": 0.1394,
      "velocity": 127,
      "chip": "ym2612"
    },
    {
      "channel": 1,
      "note": 68,
      "start": 19.431,
      "duration": 0.1389,
      "velocity": 127,
      "chip": "ym2612"
    },
    {
      "channel": 2,
      "note": 54,
      "start": 19.4312,
      "duration": 0.1389,
      "velocity": 104,
      "chip": "ym2612"
    },
    {
      "channel": 1,
      "note": 68,
      "start": 19.57,
      "duration": 0.1391,
      "velocity": 127,
      "chip": "ym2612"
    },
    {
      "channel": 1,
      "note": 68,
      "start": 19.7091,
      "duration": 0.139,
      "velocity": 127,
      "chip": "ym2612"
    },
    {
      "channel": 2,
      "note": 54,
      "start": 19.7093,
      "duration": 0.1389,
      "velocity": 104,
      "chip": "ym2612"
    },
    {
      "channel": 1,
      "note": 68,
      "start": 19.8481,
      "duration": 0.1391,
      "velocity": 127,
      "chip": "ym2612"
    },
    {
      "channel": 1,
      "note": 68,
      "start": 19.9872,
      "duration": 0.1389,
      "velocity": 127,
      "chip": "ym2612"
    },
    {
      "channel": 2,
      "note": 59,
      "start": 19.9876,
      "duration": 0.2779,
      "velocity": 104,
      "chip": "ym2612"
    },
    {
      "channel": 1,
      "note": 68,
      "start": 20.2654,
      "duration": 0.1388,
      "velocity": 127,
      "chip": "ym2612"
    },
    {
      "channel": 1,
      "note": 68,
      "start": 20.4043,
      "duration": 0.1392,
      "velocity": 127,
      "chip": "ym2612"
    },
    {
      "channel": 1,
      "note": 68,
      "start": 20.5435,
      "duration": 0.1388,
      "velocity": 127,
      "chip": "ym2612"
    },
    {
      "channel": 2,
      "note": 54,
      "start": 20.5438,
      "duration": 0.2783,
      "velocity": 104,
      "chip": "ym2612"
    },
    {
      "channel": 1,
      "note": 68,
      "start": 20.822,
      "duration": 0.1387,
      "velocity": 127,
      "chip": "ym2612"
    },
    {
      "channel": 1,
      "note": 68,
      "start": 20.9607,
      "duration": 0.1392,
      "velocity": 127,
      "chip": "ym2612"
    },
    {
      "channel": 1,
      "note": 68,
      "start": 21.1,
      "duration": 0.1389,
      "velocity": 127,
      "chip": "ym2612"
    },
    {
      "channel": 2,
      "note": 59,
      "start": 21.1003,
      "duration": 0.2782,
      "velocity": 104,
      "chip": "ym2612"
    },
    {
      "channel": 1,
      "note": 68,
      "start": 21.3784,
      "duration": 0.1393,
      "velocity": 127,
      "chip": "ym2612"
    },
    {
      "channel": 1,
      "note": 68,
      "start": 21.5176,
      "duration": 0.1389,
      "velocity": 127,
      "chip": "ym2612"
    },
    {
      "channel": 1,
      "note": 68,
      "start": 21.6566,
      "duration": 0.0928,
      "velocity": 127,
      "chip": "ym2612"
    },
    {
      "channel": 2,
      "note": 54,
      "start": 21.6569,
      "duration": 0.1388,
      "velocity": 104,
      "chip": "ym2612"
    },
    {
      "channel": 1,
      "note": 68,
      "start": 21.7495,
      "duration": 0.0927,
      "velocity": 127,
      "chip": "ym2612"
    },
    {
      "channel": 1,
      "note": 68,
      "start": 21.8422,
      "duration": 0.0927,
      "velocity": 127,
      "chip": "ym2612"
    },
    {
      "channel": 1,
      "note": 68,
      "start": 21.9349,
      "duration": 0.0926,
      "velocity": 127,
      "chip": "ym2612"
    },
    {
      "channel": 2,
      "note": 54,
      "start": 21.9351,
      "duration": 0.1387,
      "velocity": 104,
      "chip": "ym2612"
    },
    {
      "channel": 1,
      "note": 68,
      "start": 22.0276,
      "duration": 0.0929,
      "velocity": 127,
      "chip": "ym2612"
    },
    {
      "channel": 1,
      "note": 68,
      "start": 22.1206,
      "duration": 0.0928,
      "velocity": 127,
      "chip": "ym2612"
    },
    {
      "channel": 1,
      "note": 68,
      "start": 22.2134,
      "duration": 0.1386,
      "velocity": 127,
      "chip": "ym2612"
    },
    {
      "channel": 2,
      "note": 59,
      "start": 22.2137,
      "duration": 0.2775,
      "velocity": 104,
      "chip": "ym2612"
    },
    {
      "channel": 1,
      "note": 68,
      "start": 22.4912,
      "duration": 0.139,
      "velocity": 127,
      "chip": "ym2612"
    },
    {
      "channel": 1,
      "note": 68,
      "start": 22.6302,
      "duration": 0.1391,
      "velocity": 127,
      "chip": "ym2612"
    },
    {
      "channel": 1,
      "note": 68,
      "start": 22.7693,
      "duration": 0.1388,
      "velocity": 127,
      "chip": "ym2612"
    },
    {
      "channel": 2,
      "note": 54,
      "start": 22.7695,
      "duration": 0.2785,
      "velocity": 104,
      "chip": "ym2612"
    },
    {
      "channel": 1,
      "note": 68,
      "start": 23.0479,
      "duration": 0.1388,
      "velocity": 127,
      "chip": "ym2612"
    },
    {
      "channel": 1,
      "note": 68,
      "start": 23.1867,
      "duration": 0.1394,
      "velocity": 127,
      "chip": "ym2612"
    },
    {
      "channel": 1,
      "note": 68,
      "start": 23.3263,
      "duration": 0.1386,
      "velocity": 127,
      "chip": "ym2612"
    },
    {
      "channel": 2,
      "note": 59,
      "start": 23.3264,
      "duration": 0.278,
      "velocity": 104,
      "chip": "ym2612"
    },
    {
      "channel": 1,
      "note": 68,
      "start": 23.6043,
      "duration": 0.1392,
      "velocity": 127,
      "chip": "ym2612"
    },
    {
      "channel": 1,
      "note": 68,
      "start": 23.7435,
      "duration": 0.1389,
      "velocity": 127,
      "chip": "ym2612"
    },
    {
      "channel": 1,
      "note": 68,
      "start": 23.8826,
      "duration": 0.139,
      "velocity": 127,
      "chip": "ym2612"
    },
    {
      "channel": 2,
      "note": 54,
      "start": 23.8828,
      "duration": 0.1389,
      "velocity": 104,
      "chip": "ym2612"
    },
    {
      "channel": 1,
      "note": 68,
      "start": 24.0217,
      "duration": 0.1388,
      "velocity": 127,
      "chip": "ym2612"
    },
    {
      "channel": 1,
      "note": 68,
      "start": 24.1605,
      "duration": 0.1391,
      "velocity": 127,
      "chip": "ym2612"
    },
    {
      "channel": 2,
      "note": 54,
      "start": 24.1607,
      "duration": 0.139,
      "velocity": 104,
      "chip": "ym2612"
    },
    {
      "channel": 1,
      "note": 68,
      "start": 24.2996,
      "duration": 0.1393,
      "velocity": 127,
      "chip": "ym2612"
    },
    {
      "channel": 1,
      "note": 68,
      "start": 24.4389,
      "duration": 0.1388,
      "velocity": 127,
      "chip": "ym2612"
    },
    {
      "channel": 2,
      "note": 59,
      "start": 24.4392,
      "duration": 0.2781,
      "velocity": 104,
      "chip": "ym2612"
    },
    {
      "channel": 1,
      "note": 68,
      "start": 24.7172,
      "duration": 0.1389,
      "velocity": 127,
      "chip": "ym2612"
    },
    {
      "channel": 1,
      "note": 68,
      "start": 24.8562,
      "duration": 0.139,
      "velocity": 127,
      "chip": "ym2612"
    },
    {
      "channel": 1,
      "note": 68,
      "start": 24.9953,
      "duration": 0.1389,
      "velocity": 127,
      "chip": "ym2612"
    },
    {
      "channel": 2,
      "note": 54,
      "start": 24.9956,
      "duration": 0.278,
      "velocity": 104,
      "chip": "ym2612"
    },
    {
      "channel": 1,
      "note": 68,
      "start": 25.2735,
      "duration": 0.139,
      "velocity": 127,
      "chip": "ym2612"
    },
    {
      "channel": 1,
      "note": 68,
      "start": 25.4125,
      "duration": 0.1392,
      "velocity": 127,
      "chip": "ym2612"
    },
    {
      "channel": 1,
      "note": 68,
      "start": 25.5518,
      "duration": 0.1387,
      "velocity": 127,
      "chip": "ym2612"
    },
    {
      "channel": 2,
      "note": 59,
      "start": 25.552,
      "duration": 0.278,
      "velocity": 104,
      "chip": "ym2612"
    },
    {
      "channel": 1,
      "note": 68,
      "start": 25.8299,
      "duration": 0.1388,
      "velocity": 127,
      "chip": "ym2612"
    },
    {
      "channel": 1,
      "note": 68,
      "start": 25.9687,
      "duration": 0.1392,
      "velocity": 127,
      "chip": "ym2612"
    },
    {
      "channel": 1,
      "note": 68,
      "start": 26.1079,
      "duration": 0.0926,
      "velocity": 127,
      "chip": "ym2612"
    },
    {
      "channel": 2,
      "note": 54,
      "start": 26.1083,
      "duration": 0.1387,
      "velocity": 104,
      "chip": "ym2612"
    },
    {
      "channel": 3,
      "note": 54,
      "start": 26.1106,
      "duration": 0.508,
      "velocity": 112,
      "chip": "ym2612"
    },
    {
      "channel": 1,
      "note": 68,
      "start": 26.2006,
      "duration": 0.0928,
      "velocity": 127,
      "chip": "ym2612"
    },
    {
      "channel": 4,
      "note": 54,
      "start": 26.2475,
      "duration": 0.51,
      "velocity": 112,
      "chip": "ym2612"
    },
    {
      "channel": 1,
      "note": 68,
      "start": 26.2934,
      "duration": 0.0929,
      "velocity": 127,
      "chip": "ym2612"
    },
    {
      "channel": 1,
      "note": 68,
      "start": 26.3863,
      "duration": 0.0464,
      "velocity": 127,
      "chip": "ym2612"
    },
    {
      "channel": 2,
      "note": 54,
      "start": 26.3865,
      "duration": 0.1393,
      "velocity": 104,
      "chip": "ym2612"
    },
    {
      "channel": 1,
      "note": 68,
      "start": 26.4327,
      "duration": 0.0463,
      "velocity": 127,
      "chip": "ym2612"
    },
    {
      "channel": 1,
      "note": 68,
      "start": 26.4791,
      "duration": 0.0464,
      "velocity": 127,
      "chip": "ym2612"
    },
    {
      "channel": 1,
      "note": 68,
      "start": 26.5255,
      "duration": 0.0464,
      "velocity": 127,
      "chip": "ym2612"
    },
    {
      "channel": 1,
      "note": 68,
      "start": 26.572,
      "duration": 0.0462,
      "velocity": 127,
      "chip": "ym2612"
    },
    {
      "channel": 1,
      "note": 68,
      "start": 26.6183,
      "duration": 0.0489,
      "velocity": 1,
      "chip": "ym2612"
    },
    {
      "channel": 0,
      "note": 50,
      "start": 26.6667,
      "duration": 2.1798,
      "velocity": 105,
      "chip": "ym2612"
    },
    {
      "channel": 1,
      "note": 54,
      "start": 26.6686,
      "duration": 2.1781,
      "velocity": 105,
      "chip": "ym2612"
    },
    {
      "channel": 2,
      "note": 59,
      "start": 26.6688,
      "duration": 0.2741,
      "velocity": 104,
      "chip": "ym2612"
    },
    {
      "channel": 3,
      "note": 59,
      "start": 26.6691,
      "duration": 0.2273,
      "velocity": 112,
      "chip": "ym2612"
    },
    {
      "channel": 5,
      "note": 68,
      "start": 26.6696,
      "duration": 0.1345,
      "velocity": 127,
      "chip": "ym2612"
    },
    {
      "channel": 4,
      "note": 59,
      "start": 26.8039,
      "duration": 0.2322,
      "velocity": 112,
      "chip": "ym2612"
    },
    {
      "channel": 3,
      "note": 61,
      "start": 26.9432,
      "duration": 0.0928,
      "velocity": 112,
      "chip": "ym2612"
    },
    {
      "channel": 5,
      "note": 68,
      "start": 26.9437,
      "duration": 0.1393,
      "velocity": 127,
      "chip": "ym2612"
    },
    {
      "channel": 3,
      "note": 59,
      "start": 27.0825,
      "duration": 0.0928,
      "velocity": 112,
      "chip": "ym2612"
    },
    {
      "channel": 4,
      "note": 61,
      "start": 27.0828,
      "duration": 0.0926,
      "velocity": 112,
      "chip": "ym2612"
    },
    {
      "channel": 5,
      "note": 68,
      "start": 27.083,
      "duration": 0.1399,
      "velocity": 127,
      "chip": "ym2612"
    },
    {
      "channel": 2,
      "note": 54,
      "start": 27.2221,
      "duration": 0.2784,
      "velocity": 104,
      "chip": "ym2612"
    },
    {
      "channel": 3,
      "note": 54,
      "start": 27.2223,
      "duration": 0.7882,
      "velocity": 112,
      "chip": "ym2612"
    },
    {
      "channel": 4,
      "note": 59,
      "start": 27.2226,
      "duration": 0.0922,
      "velocity": 112,
      "chip": "ym2612"
    },
    {
      "channel": 5,
      "note": 68,
      "start": 27.223,
      "duration": 0.1387,
      "velocity": 127,
      "chip": "ym2612"
    },
    {
      "channel": 4,
      "note": 54,
      "start": 27.3614,
      "duration": 0.7891,
      "velocity": 112,
      "chip": "ym2612"
    },
    {
      "channel": 5,
      "note": 68,
      "start": 27.5009,
      "duration": 0.1391,
      "velocity": 127,
      "chip": "ym2612"
    },
    {
      "channel": 5,
      "note": 68,
      "start": 27.64,
      "duration": 0.1397,
      "velocity": 127,
      "chip": "ym2612"
    },
    {
      "channel": 2,
      "note": 59,
      "start": 27.7792,
      "duration": 0.2783,
      "velocity": 104,
      "chip": "ym2612"
    },
    {
      "channel": 5,
      "note": 68,
      "start": 27.7797,
      "duration": 0.1387,
      "velocity": 127,
      "chip": "ym2612"
    },
    {
      "channel": 3,
      "note": 54,
      "start": 28.0577,
      "duration": 0.2318,
      "velocity": 112,
      "chip": "ym2612"
    },
    {
      "channel": 5,
      "note": 68,
      "start": 28.0582,
      "duration": 0.1388,
      "velocity": 127,
      "chip": "ym2612"
    },
    {
      "channel": 4,
      "note": 54,
      "start": 28.1967,
      "duration": 0.2323,
      "velocity": 112,
      "chip": "ym2612"
    },
    {
      "channel": 5,
      "note": 68,
      "start": 28.197,
      "duration": 0.1398,
      "velocity": 127,
      "chip": "ym2612"
    },
    {
      "channel": 2,
      "note": 54,
      "start": 28.3363,
      "duration": 0.139,
      "velocity": 104,
      "chip": "ym2612"
    },
    {
      "channel": 3,
      "note": 59,
      "start": 28.3365,
      "duration": 0.2315,
      "velocity": 112,
      "chip": "ym2612"
    },
    {
      "channel": 5,
      "note": 68,
      "start": 28.3368,
      "duration": 0.139,
      "velocity": 127,
      "chip": "ym2612"
    },
    {
      "channel": 4,
      "note": 59,
      "start": 28.4756,
      "duration": 0.2317,
      "velocity": 112,
      "chip": "ym2612"
    },
    {
      "channel": 5,
      "note": 68,
      "start": 28.4759,
      "duration": 0.1392,
      "velocity": 127,
      "chip": "ym2612"
    },
    {
      "channel": 2,
      "note": 54,
      "start": 28.6146,
      "duration": 0.1389,
      "velocity": 104,
      "chip": "ym2612"
    },
    {
      "channel": 3,
      "note": 61,
      "start": 28.6149,
      "duration": 0.0924,
      "velocity": 112,
      "chip": "ym2612"
    },
    {
      "channel": 5,
      "note": 68,
      "start": 28.6152,
      "duration": 0.1392,
      "velocity": 127,
      "chip": "ym2612"
    },
    {
      "channel": 3,
      "note": 62,
      "start": 28.7539,
      "duration": 0.093,
      "velocity": 112,
      "chip": "ym2612"
    },
    {
      "channel": 4,
      "note": 61,
      "start": 28.7542,
      "duration": 0.0928,
      "velocity": 112,
      "chip": "ym2612"
    },
    {
      "channel": 5,
      "note": 68,
      "start": 28.7545,
      "duration": 0.1395,
      "velocity": 127,
      "chip": "ym2612"
    },
    {
      "channel": 0,
      "note": 52,
      "start": 28.8927,
      "duration": 0.2319,
      "velocity": 105,
      "chip": "ym2612"
    },
    {
      "channel": 1,
      "note": 56,
      "start": 28.893,
      "duration": 0.2318,
      "velocity": 105,
      "chip": "ym2612"
    },
    {
      "channel": 2,
      "note": 52,
      "start": 28.8932,
      "duration": 0.2783,
      "velocity": 104,
      "chip": "ym2612"
    },
    {
      "channel": 3,
      "note": 64,
      "start": 28.8935,
      "duration": 1.6241,
      "velocity": 112,
      "chip": "ym2612"
    },
    {
      "channel": 4,
      "note": 62,
      "start": 28.8938,
      "duration": 0.0917,
      "velocity": 112,
      "chip": "ym2612"
    },
    {
      "channel": 5,
      "note": 68,
      "start": 28.894,
      "duration": 0.1384,
      "velocity": 127,
      "chip": "ym2612"
    },
    {
      "channel": 4,
      "note": 64,
      "start": 29.0322,
      "duration": 1.6251,
      "velocity": 112,
      "chip": "ym2612"
    },
    {
      "channel": 0,
      "note": 52,
      "start": 29.1711,
      "duration": 0.0463,
      "velocity": 105,
      "chip": "ym2612"
    },
    {
      "channel": 1,
      "note": 56,
      "start": 29.1712,
      "duration": 0.0464,
      "velocity": 105,
      "chip": "ym2612"
    },
    {
      "channel": 5,
      "note": 68,
      "start": 29.1719,
      "duration": 0.139,
      "velocity": 127,
      "chip": "ym2612"
    },
    {
      "channel": 0,
      "note": 52,
      "start": 29.2641,
      "duration": 0.0461,
      "velocity": 105,
      "chip": "ym2612"
    },
    {
      "channel": 1,
      "note": 56,
      "start": 29.2643,
      "duration": 0.0461,
      "velocity": 105,
      "chip": "ym2612"
    },
    {
      "channel": 5,
      "note": 68,
      "start": 29.3109,
      "duration": 0.1405,
      "velocity": 127,
      "chip": "ym2612"
    },
    {
      "channel": 0,
      "note": 50,
      "start": 29.3571,
      "duration": 0.0462,
      "velocity": 105,
      "chip": "ym2612"
    },
    {
      "channel": 1,
      "note": 54,
      "start": 29.3574,
      "duration": 0.0461,
      "velocity": 105,
      "chip": "ym2612"
    },
    {
      "channel": 0,
      "note": 52,
      "start": 29.4502,
      "duration": 0.7886,
      "velocity": 105,
      "chip": "ym2612"
    },
    {
      "channel": 1,
      "note": 56,
      "start": 29.4506,
      "duration": 0.7884,
      "velocity": 105,
      "chip": "ym2612"
    },
    {
      "channel": 2,
      "note": 59,
      "start": 29.4508,
      "duration": 0.2779,
      "velocity": 104,
      "chip": "ym2612"
    },
    {
      "channel": 5,
      "note": 68,
      "start": 29.4515,
      "duration": 0.1385,
      "velocity": 127,
      "chip": "ym2612"
    },
    {
      "channel": 5,
      "note": 68,
      "start": 29.7295,
      "duration": 0.1389,
      "velocity": 127,
      "chip": "ym2612"
    },
    {
      "channel": 5,
      "note": 68,
      "start": 29.8684,
      "duration": 0.1395,
      "velocity": 127,
      "chip": "ym2612"
    },
    {
      "channel": 2,
      "note": 52,
      "start": 30.0073,
      "duration": 0.2785,
      "velocity": 104,
      "chip": "ym2612"
    },
    {
      "channel": 5,
      "note": 68,
      "start": 30.008,
      "duration": 0.1388,
      "velocity": 127,
      "chip": "ym2612"
    },
    {
      "channel": 0,
      "note": 52,
      "start": 30.2854,
      "duration": 0.0462,
      "velocity": 105,
      "chip": "ym2612"
    },
    {
      "channel": 1,
      "note": 56,
      "start": 30.2857,
      "duration": 0.0461,
      "velocity": 105,
      "chip": "ym2612"
    },
    {
      "channel": 5,
      "note": 68,
      "start": 30.2864,
      "duration": 0.1388,
      "velocity": 127,
      "chip": "ym2612"
    },
    {
      "channel": 0,
      "note": 52,
      "start": 30.3782,
      "duration": 0.0463,
      "velocity": 105,
      "chip": "ym2612"
    },
    {
      "channel": 1,
      "note": 56,
      "start": 30.3783,
      "duration": 0.0463,
      "velocity": 105,
      "chip": "ym2612"
    },
    {
      "channel": 5,
      "note": 68,
      "start": 30.4253,
      "duration": 0.14,
      "velocity": 127,
      "chip": "ym2612"
    },
    {
      "channel": 0,
      "note": 50,
      "start": 30.4711,
      "duration": 0.046,
      "velocity": 105,
      "chip": "ym2612"
    },
    {
      "channel": 1,
      "note": 54,
      "start": 30.4713,
      "duration": 0.046,
      "velocity": 105,
      "chip": "ym2612"
    },
    {
      "channel": 0,
      "note": 52,
      "start": 30.564,
      "duration": 0.5106,
      "velocity": 105,
      "chip": "ym2612"
    },
    {
      "channel": 1,
      "note": 56,
      "start": 30.5643,
      "duration": 0.5107,
      "velocity": 105,
      "chip": "ym2612"
    },
    {
      "channel": 2,
      "note": 56,
      "start": 30.5646,
      "duration": 0.1387,
      "velocity": 104,
      "chip": "ym2612"
    },
    {
      "channel": 5,
      "note": 68,
      "start": 30.5653,
      "duration": 0.0924,
      "velocity": 127,
      "chip": "ym2612"
    },
    {
      "channel": 5,
      "note": 68,
      "start": 30.6577,
      "duration": 0.0927,
      "velocity": 127,
      "chip": "ym2612"
    },
    {
      "channel": 5,
      "note": 68,
      "start": 30.7504,
      "duration": 0.0929,
      "velocity": 127,
      "chip": "ym2612"
    },
    {
      "channel": 2,
      "note": 56,
      "start": 30.8427,
      "duration": 0.139,
      "velocity": 104,
      "chip": "ym2612"
    },
    {
      "channel": 3,
      "note": 59,
      "start": 30.843,
      "duration": 0.2321,
      "velocity": 112,
      "chip": "ym2612"
    },
    {
      "channel": 5,
      "note": 68,
      "start": 30.8434,
      "duration": 0.0924,
      "velocity": 127,
      "chip": "ym2612"
    },
    {
      "channel": 5,
      "note": 68,
      "start": 30.9359,
      "duration": 0.0928,
      "velocity": 127,
      "chip": "ym2612"
    },
    {
      "channel": 4,
      "note": 59,
      "start": 30.982,
      "duration": 0.232,
      "velocity": 112,
      "chip": "ym2612"
    },
    {
      "channel": 5,
      "note": 68,
      "start": 31.0288,
      "duration": 0.0935,
      "velocity": 127,
      "chip": "ym2612"
    },
    {
      "channel": 0,
      "note": 50,
      "start": 31.1212,
      "duration": 1.0682,
      "velocity": 105,
      "chip": "ym2612"
    },
    {
      "channel": 1,
      "note": 54,
      "start": 31.1214,
      "duration": 1.0683,
      "velocity": 105,
      "chip": "ym2612"
    },
    {
      "channel": 2,
      "note": 59,
      "start": 31.1217,
      "duration": 0.278,
      "velocity": 104,
      "chip": "ym2612"
    },
    {
      "channel": 3,
      "note": 66,
      "start": 31.122,
      "duration": 0.2315,
      "velocity": 112,
      "chip": "ym2612"
    },
    {
      "channel": 5,
      "note": 68,
      "start": 31.1224,
      "duration": 0.1387,
      "velocity": 127,
      "chip": "ym2612"
    },
    {
      "channel": 4,
      "note": 66,
      "start": 31.2608,
      "duration": 0.2321,
      "velocity": 112,
      "chip": "ym2612"
    },
    {
      "channel": 3,
      "note": 69,
      "start": 31.4,
      "duration": 0.0927,
      "velocity": 112,
      "chip": "ym2612"
    },
    {
      "channel": 5,
      "note": 68,
      "start": 31.4004,
      "duration": 0.1395,
      "velocity": 127,
      "chip": "ym2612"
    },
    {
      "channel": 3,
      "note": 68,
      "start": 31.5394,
      "duration": 0.0929,
      "velocity": 112,
      "chip": "ym2612"
    },
    {
      "channel": 4,
      "note": 69,
      "start": 31.5398,
      "duration": 0.0927,
      "velocity": 112,
      "chip": "ym2612"
    },
    {
      "channel": 5,
      "note": 68,
      "start": 31.5399,
      "duration": 0.1398,
      "velocity": 127,
      "chip": "ym2612"
    },
    {
      "channel": 2,
      "note": 54,
      "start": 31.679,
      "duration": 0.2785,
      "velocity": 104,
      "chip": "ym2612"
    },
    {
      "channel": 3,
      "note": 66,
      "start": 31.6793,
      "duration": 0.2313,
      "velocity": 112,
      "chip": "ym2612"
    },
    {
      "channel": 4,
      "note": 68,
      "start": 31.6795,
      "duration": 0.0923,
      "velocity": 112,
      "chip": "ym2612"
    },
    {
      "channel": 5,
      "note": 68,
      "start": 31.6798,
      "duration": 0.1386,
      "velocity": 127,
      "chip": "ym2612"
    },
    {
      "channel": 4,
      "note": 66,
      "start": 31.8182,
      "duration": 0.2322,
      "velocity": 112,
      "chip": "ym2612"
    },
    {
      "channel": 3,
      "note": 62,
      "start": 31.9577,
      "duration": 0.2321,
      "velocity": 112,
      "chip": "ym2612"
    },
    {
      "channel": 5,
      "note": 68,
      "start": 31.9581,
      "duration": 0.1388,
      "velocity": 127,
      "chip": "ym2612"
    },
    {
      "channel": 4,
      "note": 62,
      "start": 32.0967,
      "duration": 0.2323,
      "velocity": 112,
      "chip": "ym2612"
    },
    {
      "channel": 5,
      "note": 68,
      "start": 32.097,
      "duration": 0.1401,
      "velocity": 127,
      "chip": "ym2612"
    },
    {
      "channel": 0,
      "note": 49,
      "start": 32.236,
      "duration": 1.0681,
      "velocity": 105,
      "chip": "ym2612"
    },
    {
      "channel": 1,
      "note": 55,
      "start": 32.2363,
      "duration": 1.068,
      "velocity": 105,
      "chip": "ym2612"
    },
    {
      "channel": 2,
      "note": 57,
      "start": 32.2366,
      "duration": 0.278,
      "velocity": 104,
      "chip": "ym2612"
    },
    {
      "channel": 3,
      "note": 64,
      "start": 32.2369,
      "duration": 0.3707,
      "velocity": 112,
      "chip": "ym2612"
    },
    {
      "channel": 5,
      "note": 68,
      "start": 32.2372,
      "duration": 0.1388,
      "velocity": 127,
      "chip": "ym2612"
    },
    {
      "channel": 4,
      "note": 64,
      "start": 32.3758,
      "duration": 0.3716,
      "velocity": 112,
      "chip": "ym2612"
    },
    {
      "channel": 5,
      "note": 68,
      "start": 32.5152,
      "duration": 0.1394,
      "velocity": 127,
      "chip": "ym2612"
    },
    {
      "channel": 3,
      "note": 62,
      "start": 32.6543,
      "duration": 0.0929,
      "velocity": 112,
      "chip": "ym2612"
    },
    {
      "channel": 5,
      "note": 68,
      "start": 32.6546,
      "duration": 0.1397,
      "velocity": 127,
      "chip": "ym2612"
    },
    {
      "channel": 2,
      "note": 52,
      "start": 32.7935,
      "duration": 0.2788,
      "velocity": 104,
      "chip": "ym2612"
    },
    {
      "channel": 3,
      "note": 64,
      "start": 32.7938,
      "duration": 0.2315,
      "velocity": 112,
      "chip": "ym2612"
    },
    {
      "channel": 4,
      "note": 62,
      "start": 32.794,
      "duration": 0.0923,
      "velocity": 112,
      "chip": "ym2612"
    },
    {
      "channel": 5,
      "note": 68,
      "start": 32.7944,
      "duration": 0.1389,
      "velocity": 127,
      "chip": "ym2612"
    },
    {
      "channel": 4,
      "note": 64,
      "start": 32.933,
      "duration": 0.2322,
      "velocity": 112,
      "chip": "ym2612"
    },
    {
      "channel": 5,
      "note": 68,
      "start": 32.9333,
      "duration": 0.1394,
      "velocity": 127,
      "chip": "ym2612"
    },
    {
      "channel": 3,
      "note": 66,
      "start": 33.0725,
      "duration": 0.2319,
      "velocity": 112,
      "chip": "ym2612"
    },
    {
      "channel": 5,
      "note": 68,
      "start": 33.0727,
      "duration": 0.139,
      "velocity": 127,
      "chip": "ym2612"
    },
    {
      "channel": 4,
      "note": 66,
      "start": 33.2114,
      "duration": 0.2323,
      "velocity": 112,
      "chip": "ym2612"
    },
    {
      "channel": 5,
      "note": 68,
      "start": 33.2118,
      "duration": 0.1402,
      "velocity": 127,
      "chip": "ym2612"
    },
    {
      "channel": 0,
      "note": 50,
      "start": 33.3508,
      "duration": 1.0679,
      "velocity": 105,
      "chip": "ym2612"
    },
    {
      "channel": 1,
      "note": 54,
      "start": 33.3511,
      "duration": 1.0678,
      "velocity": 105,
      "chip": "ym2612"
    },
    {
      "channel": 2,
      "note": 55,
      "start": 33.3513,
      "duration": 0.2779,
      "velocity": 104,
      "chip": "ym2612"
    },
    {
      "channel": 3,
      "note": 62,
      "start": 33.3516,
      "duration": 0.0919,
      "velocity": 112,
      "chip": "ym2612"
    },
    {
      "channel": 5,
      "note": 68,
      "start": 33.352,
      "duration": 0.1388,
      "velocity": 127,
      "chip": "ym2612"
    },
    {
      "channel": 3,
      "note": 61,
      "start": 33.4902,
      "duration": 0.0928,
      "velocity": 112,
      "chip": "ym2612"
    },
    {
      "channel": 4,
      "note": 62,
      "start": 33.4906,
      "duration": 0.0925,
      "velocity": 112,
      "chip": "ym2612"
    },
    {
      "channel": 3,
      "note": 62,
      "start": 33.6295,
      "duration": 0.5107,
      "velocity": 112,
      "chip": "ym2612"
    },
    {
      "channel": 4,
      "note": 61,
      "start": 33.6298,
      "duration": 0.0924,
      "velocity": 112,
      "chip": "ym2612"
    },
    {
      "channel": 5,
      "note": 68,
      "start": 33.6301,
      "duration": 0.1392,
      "velocity": 127,
      "chip": "ym2612"
    },
    {
      "channel": 4,
      "note": 62,
      "start": 33.769,
      "duration": 0.5107,
      "velocity": 112,
      "chip": "ym2612"
    },
    {
      "channel": 5,
      "note": 68,
      "start": 33.7693,
      "duration": 0.1394,
      "velocity": 127,
      "chip": "ym2612"
    },
    {
      "channel": 2,
      "note": 50,
      "start": 33.9083,
      "duration": 0.2784,
      "velocity": 104,
      "chip": "ym2612"
    },
    {
      "channel": 5,
      "note": 68,
      "start": 33.9088,
      "duration": 0.1389,
      "velocity": 127,
      "chip": "ym2612"
    },
    {
      "channel": 3,
      "note": 64,
      "start": 34.1869,
      "duration": 0.2321,
      "velocity": 112,
      "chip": "ym2612"
    },
    {
      "channel": 5,
      "note": 68,
      "start": 34.1875,
      "duration": 0.1387,
      "velocity": 127,
      "chip": "ym2612"
    },
    {
      "channel": 4,
      "note": 64,
      "start": 34.326,
      "duration": 0.2323,
      "velocity": 112,
      "chip": "ym2612"
    },
    {
      "channel": 5,
      "note": 68,
      "start": 34.3262,
      "duration": 0.1402,
      "velocity": 127,
      "chip": "ym2612"
    },
    {
      "channel": 0,
      "note": 49,
      "start": 34.4653,
      "duration": 1.068,
      "velocity": 105,
      "chip": "ym2612"
    },
    {
      "channel": 1,
      "note": 52,
      "start": 34.4655,
      "duration": 1.068,
      "velocity": 105,
      "chip": "ym2612"
    },
    {
      "channel": 2,
      "note": 54,
      "start": 34.4658,
      "duration": 0.2781,
      "velocity": 104,
      "chip": "ym2612"
    },
    {
      "channel": 3,
      "note": 61,
      "start": 34.4662,
      "duration": 0.2314,
      "velocity": 112,
      "chip": "ym2612"
    },
    {
      "channel": 5,
      "note": 68,
      "start": 34.4665,
      "duration": 0.1385,
      "velocity": 127,
      "chip": "ym2612"
    },
    {
      "channel": 4,
      "note": 61,
      "start": 34.6048,
      "duration": 0.2323,
      "velocity": 112,
      "chip": "ym2612"
    },
    {
      "channel": 5,
      "note": 68,
      "start": 34.7445,
      "duration": 0.1393,
      "velocity": 127,
      "chip": "ym2612"
    },
    {
      "channel": 5,
      "note": 68,
      "start": 34.8839,
      "duration": 0.1396,
      "velocity": 127,
      "chip": "ym2612"
    },
    {
      "channel": 2,
      "note": 57,
      "start": 35.0227,
      "duration": 0.1393,
      "velocity": 104,
      "chip": "ym2612"
    },
    {
      "channel": 3,
      "note": 54,
      "start": 35.023,
      "duration": 0.5109,
      "velocity": 112,
      "chip": "ym2612"
    },
    {
      "channel": 5,
      "note": 68,
      "start": 35.0235,
      "duration": 0.0924,
      "velocity": 127,
      "chip": "ym2612"
    },
    {
      "channel": 5,
      "note": 68,
      "start": 35.1159,
      "duration": 0.0928,
      "velocity": 127,
      "chip": "ym2612"
    },
    {
      "channel": 4,
      "note": 54,
      "start": 35.1624,
      "duration": 0.5106,
      "velocity": 112,
      "chip": "ym2612"
    },
    {
      "channel": 5,
      "note": 68,
      "start": 35.2087,
      "duration": 0.0932,
      "velocity": 127,
      "chip": "ym2612"
    },
    {
      "channel": 2,
      "note": 57,
      "start": 35.3014,
      "duration": 0.139,
      "velocity": 104,
      "chip": "ym2612"
    },
    {
      "channel": 5,
      "note": 68,
      "start": 35.302,
      "duration": 0.0463,
      "velocity": 127,
      "chip": "ym2612"
    },
    {
      "channel": 5,
      "note": 68,
      "start": 35.3482,
      "duration": 0.0465,
      "velocity": 127,
      "chip": "ym2612"
    },
    {
      "channel": 5,
      "note": 68,
      "start": 35.3948,
      "duration": 0.0461,
      "velocity": 127,
      "chip": "ym2612"
    },
    {
      "channel": 5,
      "note": 68,
      "start": 35.4409,
      "duration": 0.0469,
      "velocity": 127,
      "chip": "ym2612"
    },
    {
      "channel": 5,
      "note": 68,
      "start": 35.4879,
      "duration": 0.0462,
      "velocity": 127,
      "chip": "ym2612"
    },
    {
      "channel": 5,
      "note": 68,
      "start": 35.5341,
      "duration": 0.0471,
      "velocity": 127,
      "chip": "ym2612"
    },
    {
      "channel": 0,
      "note": 50,
      "start": 35.5799,
      "duration": 2.1825,
      "velocity": 105,
      "chip": "ym2612"
    },
    {
      "channel": 1,
      "note": 54,
      "start": 35.5802,
      "duration": 2.1824,
      "velocity": 105,
      "chip": "ym2612"
    },
    {
      "channel": 2,
      "note": 59,
      "start": 35.5805,
      "duration": 0.2779,
      "velocity": 104,
      "chip": "ym2612"
    },
    {
      "channel": 3,
      "note": 59,
      "start": 35.5808,
      "duration": 0.2311,
      "velocity": 112,
      "chip": "ym2612"
    },
    {
      "channel": 5,
      "note": 68,
      "start": 35.5813,
      "duration": 0.1382,
      "velocity": 127,
      "chip": "ym2612"
    },
    {
      "channel": 4,
      "note": 59,
      "start": 35.7193,
      "duration": 0.2321,
      "velocity": 112,
      "chip": "ym2612"
    },
    {
      "channel": 3,
      "note": 61,
      "start": 35.8586,
      "duration": 0.0927,
      "velocity": 112,
      "chip": "ym2612"
    },
    {
      "channel": 5,
      "note": 68,
      "start": 35.8591,
      "duration": 0.1393,
      "velocity": 127,
      "chip": "ym2612"
    },
    {
      "channel": 3,
      "note": 59,
      "start": 35.998,
      "duration": 0.093,
      "velocity": 112,
      "chip": "ym2612"
    },
    {
      "channel": 4,
      "note": 61,
      "start": 35.9983,
      "duration": 0.0928,
      "velocity": 112,
      "chip": "ym2612"
    },
    {
      "channel": 5,
      "note": 68,
      "start": 35.9985,
      "duration": 0.1398,
      "velocity": 127,
      "chip": "ym2612"
    },
    {
      "channel": 2,
      "note": 54,
      "start": 36.1375,
      "duration": 0.2784,
      "velocity": 104,
      "chip": "ym2612"
    },
    {
      "channel": 3,
      "note": 54,
      "start": 36.1378,
      "duration": 0.7886,
      "velocity": 112,
      "chip": "ym2612"
    },
    {
      "channel": 4,
      "note": 59,
      "start": 36.138,
      "duration": 0.0922,
      "velocity": 112,
      "chip": "ym2612"
    },
    {
      "channel": 5,
      "note": 68,
      "start": 36.1384,
      "duration": 0.1387,
      "velocity": 127,
      "chip": "ym2612"
    },
    {
      "channel": 4,
      "note": 54,
      "start": 36.2769,
      "duration": 0.7894,
      "velocity": 112,
      "chip": "ym2612"
    },
    {
      "channel": 5,
      "note": 68,
      "start": 36.4164,
      "duration": 0.1391,
      "velocity": 127,
      "chip": "ym2612"
    },
    {
      "channel": 5,
      "note": 68,
      "start": 36.5555,
      "duration": 0.14,
      "velocity": 127,
      "chip": "ym2612"
    },
    {
      "channel": 2,
      "note": 59,
      "start": 36.6948,
      "duration": 0.2783,
      "velocity": 104,
      "chip": "ym2612"
    },
    {
      "channel": 5,
      "note": 68,
      "start": 36.6955,
      "duration": 0.1386,
      "velocity": 127,
      "chip": "ym2612"
    },
    {
      "channel": 3,
      "note": 54,
      "start": 36.9734,
      "duration": 0.2319,
      "velocity": 112,
      "chip": "ym2612"
    },
    {
      "channel": 5,
      "note": 68,
      "start": 36.974,
      "duration": 0.1387,
      "velocity": 127,
      "chip": "ym2612"
    },
    {
      "channel": 4,
      "note": 54,
      "start": 37.1125,
      "duration": 0.2322,
      "velocity": 112,
      "chip": "ym2612"
    },
    {
      "channel": 5,
      "note": 68,
      "start": 37.1127,
      "duration": 0.1398,
      "velocity": 127,
      "chip": "ym2612"
    },
    {
      "channel": 2,
      "note": 54,
      "start": 37.2519,
      "duration": 0.1392,
      "velocity": 104,
      "chip": "ym2612"
    },
    {
      "channel": 3,
      "note": 59,
      "start": 37.2522,
      "duration": 0.2317,
      "velocity": 112,
      "chip": "ym2612"
    },
    {
      "channel": 5,
      "note": 68,
      "start": 37.2527,
      "duration": 0.1392,
      "velocity": 127,
      "chip": "ym2612"
    },
    {
      "channel": 4,
      "note": 59,
      "start": 37.3915,
      "duration": 0.232,
      "velocity": 112,
      "chip": "ym2612"
    },
    {
      "channel": 5,
      "note": 68,
      "start": 37.3918,
      "duration": 0.1393,
      "velocity": 127,
      "chip": "ym2612"
    },
    {
      "channel": 2,
      "note": 54,
      "start": 37.5305,
      "duration": 0.1391,
      "velocity": 104,
      "chip": "ym2612"
    },
    {
      "channel": 3,
      "note": 61,
      "start": 37.5308,
      "duration": 0.0925,
      "velocity": 112,
      "chip": "ym2612"
    },
    {
      "channel": 5,
      "note": 68,
      "start": 37.5311,
      "duration": 0.1394,
      "velocity": 127,
      "chip": "ym2612"
    },
    {
      "channel": 3,
      "note": 62,
      "start": 37.6699,
      "duration": 0.0929,
      "velocity": 112,
      "chip": "ym2612"
    },
    {
      "channel": 4,
      "note": 61,
      "start": 37.6702,
      "duration": 0.0927,
      "velocity": 112,
      "chip": "ym2612"
    },
    {
      "channel": 5,
      "note": 68,
      "start": 37.6705,
      "duration": 0.1398,
      "velocity": 127,
      "chip": "ym2612"
    },
    {
      "channel": 0,
      "note": 52,
      "start": 37.8089,
      "duration": 0.2318,
      "velocity": 105,
      "chip": "ym2612"
    },
    {
      "channel": 1,
      "note": 56,
      "start": 37.8091,
      "duration": 0.2317,
      "velocity": 105,
      "chip": "ym2612"
    },
    {
      "channel": 2,
      "note": 52,
      "start": 37.8094,
      "duration": 0.2782,
      "velocity": 104,
      "chip": "ym2612"
    },
    {
      "channel": 3,
      "note": 64,
      "start": 37.8097,
      "duration": 1.6244,
      "velocity": 112,
      "chip": "ym2612"
    },
    {
      "channel": 4,
      "note": 62,
      "start": 37.81,
      "duration": 0.0919,
      "velocity": 112,
      "chip": "ym2612"
    },
    {
      "channel": 5,
      "note": 68,
      "start": 37.8103,
      "duration": 0.1383,
      "velocity": 127,
      "chip": "ym2612"
    },
    {
      "channel": 4,
      "note": 64,
      "start": 37.9485,
      "duration": 1.625,
      "velocity": 112,
      "chip": "ym2612"
    },
    {
      "channel": 0,
      "note": 52,
      "start": 38.0874,
      "duration": 0.0462,
      "velocity": 105,
      "chip": "ym2612"
    },
    {
      "channel": 1,
      "note": 56,
      "start": 38.0875,
      "duration": 0.0462,
      "velocity": 105,
      "chip": "ym2612"
    },
    {
      "channel": 5,
      "note": 68,
      "start": 38.0882,
      "duration": 0.1389,
      "velocity": 127,
      "chip": "ym2612"
    },
    {
      "channel": 0,
      "note": 52,
      "start": 38.1803,
      "duration": 0.0461,
      "velocity": 105,
      "chip": "ym2612"
    },
    {
      "channel": 1,
      "note": 56,
      "start": 38.1804,
      "duration": 0.0462,
      "velocity": 105,
      "chip": "ym2612"
    },
    {
      "channel": 5,
      "note": 68,
      "start": 38.2272,
      "duration": 0.1402,
      "velocity": 127,
      "chip": "ym2612"
    },
    {
      "channel": 0,
      "note": 50,
      "start": 38.2733,
      "duration": 0.0461,
      "velocity": 105,
      "chip": "ym2612"
    },
    {
      "channel": 1,
      "note": 54,
      "start": 38.2735,
      "duration": 0.046,
      "velocity": 105,
      "chip": "ym2612"
    },
    {
      "channel": 0,
      "note": 52,
      "start": 38.3662,
      "duration": 0.7888,
      "velocity": 105,
      "chip": "ym2612"
    },
    {
      "channel": 1,
      "note": 56,
      "start": 38.3664,
      "duration": 0.7887,
      "velocity": 105,
      "chip": "ym2612"
    },
    {
      "channel": 2,
      "note": 59,
      "start": 38.3667,
      "duration": 0.2779,
      "velocity": 104,
      "chip": "ym2612"
    },
    {
      "channel": 5,
      "note": 68,
      "start": 38.3674,
      "duration": 0.1385,
      "velocity": 127,
      "chip": "ym2612"
    },
    {
      "channel": 5,
      "note": 68,
      "start": 38.6454,
      "duration": 0.1392,
      "velocity": 127,
      "chip": "ym2612"
    },
    {
      "channel": 5,
      "note": 68,
      "start": 38.7846,
      "duration": 0.1396,
      "velocity": 127,
      "chip": "ym2612"
    },
    {
      "channel": 2,
      "note": 52,
      "start": 38.9235,
      "duration": 0.2787,
      "velocity": 104,
      "chip": "ym2612"
    },
    {
      "channel": 5,
      "note": 68,
      "start": 38.9241,
      "duration": 0.1388,
      "velocity": 127,
      "chip": "ym2612"
    },
    {
      "channel": 0,
      "note": 52,
      "start": 39.2019,
      "duration": 0.0461,
      "velocity": 105,
      "chip": "ym2612"
    },
    {
      "channel": 1,
      "note": 56,
      "start": 39.2021,
      "duration": 0.046,
      "velocity": 105,
      "chip": "ym2612"
    },
    {
      "channel": 5,
      "note": 68,
      "start": 39.2029,
      "duration": 0.1386,
      "velocity": 127,
      "chip": "ym2612"
    },
    {
      "channel": 0,
      "note": 52,
      "start": 39.2947,
      "duration": 0.0462,
      "velocity": 105,
      "chip": "ym2612"
    },
    {
      "channel": 1,
      "note": 56,
      "start": 39.2948,
      "duration": 0.0463,
      "velocity": 105,
      "chip": "ym2612"
    },
    {
      "channel": 5,
      "note": 68,
      "start": 39.3416,
      "duration": 0.1401,
      "velocity": 127,
      "chip": "ym2612"
    },
    {
      "channel": 0,
      "note": 50,
      "start": 39.3877,
      "duration": 0.046,
      "velocity": 105,
      "chip": "ym2612"
    },
    {
      "channel": 1,
      "note": 54,
      "start": 39.3879,
      "duration": 0.0459,
      "velocity": 105,
      "chip": "ym2612"
    },
    {
      "channel": 0,
      "note": 52,
      "start": 39.4805,
      "duration": 0.5105,
      "velocity": 105,
      "chip": "ym2612"
    },
    {
      "channel": 1,
      "note": 56,
      "start": 39.4808,
      "duration": 0.5104,
      "velocity": 105,
      "chip": "ym2612"
    },
    {
      "channel": 2,
      "note": 56,
      "start": 39.481,
      "duration": 0.1384,
      "velocity": 104,
      "chip": "ym2612"
    },
    {
      "channel": 5,
      "note": 68,
      "start": 39.4817,
      "duration": 0.0922,
      "velocity": 127,
      "chip": "ym2612"
    },
    {
      "channel": 5,
      "note": 68,
      "start": 39.5739,
      "duration": 0.0925,
      "velocity": 127,
      "chip": "ym2612"
    },
    {
      "channel": 5,
      "note": 68,
      "start": 39.6665,
      "duration": 0.093,
      "velocity": 127,
      "chip": "ym2612"
    },
    {
      "channel": 2,
      "note": 56,
      "start": 39.7588,
      "duration": 0.1392,
      "velocity": 104,
      "chip": "ym2612"
    },
    {
      "channel": 3,
      "note": 59,
      "start": 39.7592,
      "duration": 0.2322,
      "velocity": 112,
      "chip": "ym2612"
    },
    {
      "channel": 5,
      "note": 68,
      "start": 39.7596,
      "duration": 0.0923,
      "velocity": 127,
      "chip": "ym2612"
    },
    {
      "channel": 5,
      "note": 68,
      "start": 39.8519,
      "duration": 0.0931,
      "velocity": 127,
      "chip": "ym2612"
    },
    {
      "channel": 4,
      "note": 59,
      "start": 39.8984,
      "duration": 0.2317,
      "velocity": 112,
      "chip": "ym2612"
    },
    {
      "channel": 5,
      "note": 68,
      "start": 39.945,
      "duration": 0.0934,
      "velocity": 127,
      "chip": "ym2612"
    },
    {
      "channel": 0,
      "note": 50,
      "start": 40.0373,
      "duration": 1.0682,
      "velocity": 105,
      "chip": "ym2612"
    },
    {
      "channel": 1,
      "note": 54,
      "start": 40.0376,
      "duration": 1.0683,
      "velocity": 105,
      "chip": "ym2612"
    },
    {
      "channel": 2,
      "note": 59,
      "start": 40.0378,
      "duration": 0.2782,
      "velocity": 104,
      "chip": "ym2612"
    },
    {
      "channel": 3,
      "note": 66,
      "start": 40.0381,
      "duration": 0.2313,
      "velocity": 112,
      "chip": "ym2612"
    },
    {
      "channel": 5,
      "note": 68,
      "start": 40.0385,
      "duration": 0.1386,
      "velocity": 127,
      "chip": "ym2612"
    },
    {
      "channel": 4,
      "note": 66,
      "start": 40.177,
      "duration": 0.232,
      "velocity": 112,
      "chip": "ym2612"
    },
    {
      "channel": 3,
      "note": 69,
      "start": 40.3162,
      "duration": 0.0927,
      "velocity": 112,
      "chip": "ym2612"
    },
    {
      "channel": 5,
      "note": 68,
      "start": 40.3167,
      "duration": 0.1392,
      "velocity": 127,
      "chip": "ym2612"
    },
    {
      "channel": 3,
      "note": 68,
      "start": 40.4553,
      "duration": 0.0931,
      "velocity": 112,
      "chip": "ym2612"
    },
    {
      "channel": 4,
      "note": 69,
      "start": 40.4556,
      "duration": 0.0929,
      "velocity": 112,
      "chip": "ym2612"
    },
    {
      "channel": 5,
      "note": 68,
      "start": 40.4559,
      "duration": 0.1401,
      "velocity": 127,
      "chip": "ym2612"
    },
    {
      "channel": 2,
      "note": 54,
      "start": 40.5951,
      "duration": 0.2783,
      "velocity": 104,
      "chip": "ym2612"
    },
    {
      "channel": 3,
      "note": 66,
      "start": 40.5953,
      "duration": 0.2316,
      "velocity": 112,
      "chip": "ym2612"
    },
    {
      "channel": 4,
      "note": 68,
      "start": 40.5956,
      "duration": 0.0925,
      "velocity": 112,
      "chip": "ym2612"
    },
    {
      "channel": 5,
      "note": 68,
      "start": 40.596,
      "duration": 0.1387,
      "velocity": 127,
      "chip": "ym2612"
    },
    {
      "channel": 4,
      "note": 66,
      "start": 40.7346,
      "duration": 0.2319,
      "velocity": 112,
      "chip": "ym2612"
    },
    {
      "channel": 3,
      "note": 62,
      "start": 40.8736,
      "duration": 0.2324,
      "velocity": 112,
      "chip": "ym2612"
    },
    {
      "channel": 5,
      "note": 68,
      "start": 40.8741,
      "duration": 0.139,
      "velocity": 127,
      "chip": "ym2612"
    },
    {
      "channel": 4,
      "note": 62,
      "start": 41.013,
      "duration": 0.2319,
      "velocity": 112,
      "chip": "ym2612"
    },
    {
      "channel": 5,
      "note": 68,
      "start": 41.0132,
      "duration": 0.1399,
      "velocity": 127,
      "chip": "ym2612"
    },
    {
      "channel": 0,
      "note": 49,
      "start": 41.1519,
      "duration": 1.0683,
      "velocity": 105,
      "chip": "ym2612"
    },
    {
      "channel": 1,
      "note": 55,
      "start": 41.1521,
      "duration": 1.0683,
      "velocity": 105,
      "chip": "ym2612"
    },
    {
      "channel": 2,
      "note": 57,
      "start": 41.1524,
      "duration": 0.2785,
      "velocity": 104,
      "chip": "ym2612"
    },
    {
      "channel": 3,
      "note": 64,
      "start": 41.1527,
      "duration": 0.092,
      "velocity": 112,
      "chip": "ym2612"
    },
    {
      "channel": 5,
      "note": 68,
      "start": 41.1531,
      "duration": 0.139,
      "velocity": 127,
      "chip": "ym2612"
    },
    {
      "channel": 3,
      "note": 62,
      "start": 41.2916,
      "duration": 0.0929,
      "velocity": 112,
      "chip": "ym2612"
    },
    {
      "channel": 4,
      "note": 64,
      "start": 41.292,
      "duration": 0.0926,
      "velocity": 112,
      "chip": "ym2612"
    },
    {
      "channel": 3,
      "note": 64,
      "start": 41.4311,
      "duration": 0.0926,
      "velocity": 112,
      "chip": "ym2612"
    },
    {
      "channel": 4,
      "note": 62,
      "start": 41.4313,
      "duration": 0.0925,
      "velocity": 112,
      "chip": "ym2612"
    },
    {
      "channel": 5,
      "note": 68,
      "start": 41.4316,
      "duration": 0.1391,
      "velocity": 127,
      "chip": "ym2612"
    },
    {
      "channel": 3,
      "note": 66,
      "start": 41.5702,
      "duration": 0.0928,
      "velocity": 112,
      "chip": "ym2612"
    },
    {
      "channel": 4,
      "note": 64,
      "start": 41.5705,
      "duration": 0.0926,
      "velocity": 112,
      "chip": "ym2612"
    },
    {
      "channel": 5,
      "note": 68,
      "start": 41.5708,
      "duration": 0.1399,
      "velocity": 127,
      "chip": "ym2612"
    },
    {
      "channel": 2,
      "note": 52,
      "start": 41.7098,
      "duration": 0.139,
      "velocity": 104,
      "chip": "ym2612"
    },
    {
      "channel": 3,
      "note": 61,
      "start": 41.7101,
      "duration": 0.2315,
      "velocity": 112,
      "chip": "ym2612"
    },
    {
      "channel": 4,
      "note": 66,
      "start": 41.7104,
      "duration": 0.0924,
      "velocity": 112,
      "chip": "ym2612"
    },
    {
      "channel": 5,
      "note": 68,
      "start": 41.7107,
      "duration": 0.1388,
      "velocity": 127,
      "chip": "ym2612"
    },
    {
      "channel": 4,
      "note": 61,
      "start": 41.8492,
      "duration": 0.2322,
      "velocity": 112,
      "chip": "ym2612"
    },
    {
      "channel": 5,
      "note": 68,
      "start": 41.8496,
      "duration": 0.1395,
      "velocity": 127,
      "chip": "ym2612"
    },
    {
      "channel": 2,
      "note": 52,
      "start": 41.9885,
      "duration": 0.1388,
      "velocity": 104,
      "chip": "ym2612"
    },
    {
      "channel": 3,
      "note": 57,
      "start": 41.9888,
      "duration": 0.2317,
      "velocity": 112,
      "chip": "ym2612"
    },
    {
      "channel": 5,
      "note": 68,
      "start": 41.9891,
      "duration": 0.1389,
      "velocity": 127,
      "chip": "ym2612"
    },
    {
      "channel": 4,
      "note": 57,
      "start": 42.1278,
      "duration": 0.2319,
      "velocity": 112,
      "chip": "ym2612"
    },
    {
      "channel": 5,
      "note": 68,
      "start": 42.1281,
      "duration": 0.1397,
      "velocity": 127,
      "chip": "ym2612"
    },
    {
      "channel": 0,
      "note": 50,
      "start": 42.2667,
      "duration": 1.6253,
      "velocity": 105,
      "chip": "ym2612"
    },
    {
      "channel": 1,
      "note": 54,
      "start": 42.2669,
      "duration": 1.6253,
      "velocity": 105,
      "chip": "ym2612"
    },
    {
      "channel": 2,
      "note": 59,
      "start": 42.2672,
      "duration": 0.278,
      "velocity": 104,
      "chip": "ym2612"
    },
    {
      "channel": 3,
      "note": 59,
      "start": 42.2676,
      "duration": 0.0919,
      "velocity": 112,
      "chip": "ym2612"
    },
    {
      "channel": 5,
      "note": 68,
      "start": 42.2679,
      "duration": 0.1388,
      "velocity": 127,
      "chip": "ym2612"
    },
    {
      "channel": 3,
      "note": 57,
      "start": 42.4063,
      "duration": 0.0927,
      "velocity": 112,
      "chip": "ym2612"
    },
    {
      "channel": 4,
      "note": 59,
      "start": 42.4066,
      "duration": 0.0926,
      "velocity": 112,
      "chip": "ym2612"
    },
    {
      "channel": 3,
      "note": 59,
      "start": 42.5455,
      "duration": 1.2078,
      "velocity": 112,
      "chip": "ym2612"
    },
    {
      "channel": 4,
      "note": 57,
      "start": 42.5457,
      "duration": 0.0926,
      "velocity": 112,
      "chip": "ym2612"
    },
    {
      "channel": 5,
      "note": 68,
      "start": 42.5461,
      "duration": 0.1391,
      "velocity": 127,
      "chip": "ym2612"
    },
    {
      "channel": 4,
      "note": 59,
      "start": 42.6849,
      "duration": 1.2077,
      "velocity": 112,
      "chip": "ym2612"
    },
    {
      "channel": 5,
      "note": 68,
      "start": 42.6852,
      "duration": 0.1396,
      "velocity": 127,
      "chip": "ym2612"
    },
    {
      "channel": 2,
      "note": 54,
      "start": 42.8244,
      "duration": 0.2782,
      "velocity": 104,
      "chip": "ym2612"
    },
    {
      "channel": 5,
      "note": 68,
      "start": 42.8249,
      "duration": 0.1387,
      "velocity": 127,
      "chip": "ym2612"
    },
    {
      "channel": 5,
      "note": 68,
      "start": 43.1032,
      "duration": 0.139,
      "velocity": 127,
      "chip": "ym2612"
    },
    {
      "channel": 5,
      "note": 68,
      "start": 43.2423,
      "duration": 0.14,
      "velocity": 127,
      "chip": "ym2612"
    },
    {
      "channel": 2,
      "note": 59,
      "start": 43.3817,
      "duration": 0.1392,
      "velocity": 104,
      "chip": "ym2612"
    },
    {
      "channel": 5,
      "note": 68,
      "start": 43.3823,
      "duration": 0.0926,
      "velocity": 127,
      "chip": "ym2612"
    },
    {
      "channel": 5,
      "note": 68,
      "start": 43.4749,
      "duration": 0.0927,
      "velocity": 127,
      "chip": "ym2612"
    },
    {
      "channel": 5,
      "note": 68,
      "start": 43.5676,
      "duration": 0.093,
      "velocity": 127,
      "chip": "ym2612"
    },
    {
      "channel": 5,
      "note": 68,
      "start": 43.6607,
      "duration": 0.1393,
      "velocity": 127,
      "chip": "ym2612"
    },
    {
      "channel": 5,
      "note": 68,
      "start": 43.8001,
      "duration": 0.1427,
      "velocity": 127,
      "chip": "ym2612"
    },
    {
      "channel": 2,
      "note": 59,
      "start": 43.9385,
      "duration": 0.1391,
      "velocity": 104,
      "chip": "ym2612"
    },
    {
      "channel": 3,
      "note": 62,
      "start": 43.941,
      "duration": 0.0902,
      "velocity": 100,
      "chip": "ym2612"
    },
    {
      "channel": 5,
      "note": 68,
      "start": 43.9428,
      "duration": 0.1357,
      "velocity": 127,
      "chip": "ym2612"
    },
    {
      "channel": 3,
      "note": 64,
      "start": 44.0779,
      "duration": 0.0923,
      "velocity": 100,
      "chip": "ym2612"
    },
    {
      "channel": 4,
      "note": 62,
      "start": 44.0782,
      "duration": 0.0921,
      "velocity": 100,
      "chip": "ym2612"
    },
    {
      "channel": 5,
      "note": 68,
      "start": 44.0785,
      "duration": 0.1395,
      "velocity": 127,
      "chip": "ym2612"
    },
    {
      "channel": 2,
      "note": 61,
      "start": 44.2172,
      "duration": 0.1388,
      "velocity": 104,
      "chip": "ym2612"
    },
    {
      "channel": 3,
      "note": 66,
      "start": 44.2174,
      "duration": 0.0925,
      "velocity": 100,
      "chip": "ym2612"
    },
    {
      "channel": 4,
      "note": 64,
      "start": 44.2177,
      "duration": 0.0923,
      "velocity": 100,
      "chip": "ym2612"
    },
    {
      "channel": 5,
      "note": 68,
      "start": 44.2181,
      "duration": 0.1387,
      "velocity": 127,
      "chip": "ym2612"
    },
    {
      "channel": 3,
      "note": 68,
      "start": 44.3563,
      "duration": 0.0928,
      "velocity": 100,
      "chip": "ym2612"
    },
    {
      "channel": 4,
      "note": 66,
      "start": 44.3565,
      "duration": 0.0927,
      "velocity": 100,
      "chip": "ym2612"
    },
    {
      "channel": 5,
      "note": 68,
      "start": 44.3567,
      "duration": 0.1438,
      "velocity": 127,
      "chip": "ym2612"
    },
    {
      "channel": 0,
      "note": 54,
      "start": 44.4976,
      "duration": 0.5085,
      "velocity": 115,
      "chip": "ym2612"
    },
    {
      "channel": 1,
      "note": 57,
      "start": 44.4995,
      "duration": 0.5068,
      "velocity": 115,
      "chip": "ym2612"
    },
    {
      "channel": 2,
      "note": 62,
      "start": 44.4998,
      "duration": 0.2741,
      "velocity": 104,
      "chip": "ym2612"
    },
    {
      "channel": 3,
      "note": 69,
      "start": 44.5,
      "duration": 0.5065,
      "velocity": 100,
      "chip": "ym2612"
    },
    {
      "channel": 4,
      "note": 68,
      "start": 44.5003,
      "duration": 0.088,
      "velocity": 100,
      "chip": "ym2612"
    },
    {
      "channel": 5,
      "note": 68,
      "start": 44.5005,
      "duration": 0.1344,
      "velocity": 127,
      "chip": "ym2612"
    },
    {
      "channel": 4,
      "note": 69,
      "start": 44.6348,
      "duration": 0.5105,
      "velocity": 100,
      "chip": "ym2612"
    },
    {
      "channel": 5,
      "note": 68,
      "start": 44.7744,
      "duration": 0.1395,
      "velocity": 127,
      "chip": "ym2612"
    },
    {
      "channel": 5,
      "note": 68,
      "start": 44.914,
      "duration": 0.046,
      "velocity": 127,
      "chip": "ym2612"
    },
    {
      "channel": 5,
      "note": 68,
      "start": 44.96,
      "duration": 0.047,
      "velocity": 127,
      "chip": "ym2612"
    },
    {
      "channel": 5,
      "note": 68,
      "start": 45.0071,
      "duration": 0.0465,
      "velocity": 127,
      "chip": "ym2612"
    },
    {
      "channel": 0,
      "note": 54,
      "start": 45.0524,
      "duration": 0.3715,
      "velocity": 115,
      "chip": "ym2612"
    },
    {
      "channel": 1,
      "note": 57,
      "start": 45.0526,
      "duration": 0.3715,
      "velocity": 115,
      "chip": "ym2612"
    },
    {
      "channel": 2,
      "note": 62,
      "start": 45.0528,
      "duration": 0.2784,
      "velocity": 104,
      "chip": "ym2612"
    },
    {
      "channel": 3,
      "note": 69,
      "start": 45.053,
      "duration": 0.3712,
      "velocity": 100,
      "chip": "ym2612"
    },
    {
      "channel": 5,
      "note": 68,
      "start": 45.0535,
      "duration": 0.1387,
      "velocity": 127,
      "chip": "ym2612"
    },
    {
      "channel": 4,
      "note": 69,
      "start": 45.1919,
      "duration": 0.3715,
      "velocity": 100,
      "chip": "ym2612"
    },
    {
      "channel": 5,
      "note": 68,
      "start": 45.1923,
      "duration": 0.1392,
      "velocity": 127,
      "chip": "ym2612"
    },
    {
      "channel": 0,
      "note": 54,
      "start": 45.4702,
      "duration": 0.0926,
      "velocity": 115,
      "chip": "ym2612"
    },
    {
      "channel": 1,
      "note": 57,
      "start": 45.4704,
      "duration": 0.0925,
      "velocity": 115,
      "chip": "ym2612"
    },
    {
      "channel": 3,
      "note": 66,
      "start": 45.4707,
      "duration": 0.0923,
      "velocity": 100,
      "chip": "ym2612"
    },
    {
      "channel": 5,
      "note": 68,
      "start": 45.4712,
      "duration": 0.1398,
      "velocity": 127,
      "chip": "ym2612"
    },
    {
      "channel": 0,
      "note": 52,
      "start": 45.6098,
      "duration": 1.0675,
      "velocity": 115,
      "chip": "ym2612"
    },
    {
      "channel": 1,
      "note": 57,
      "start": 45.61,
      "duration": 1.0676,
      "velocity": 115,
      "chip": "ym2612"
    },
    {
      "channel": 2,
      "note": 61,
      "start": 45.6102,
      "duration": 0.2783,
      "velocity": 104,
      "chip": "ym2612"
    },
    {
      "channel": 3,
      "note": 64,
      "start": 45.6105,
      "duration": 0.5105,
      "velocity": 100,
      "chip": "ym2612"
    },
    {
      "channel": 4,
      "note": 66,
      "start": 45.6108,
      "duration": 0.092,
      "velocity": 100,
      "chip": "ym2612"
    },
    {
      "channel": 5,
      "note": 68,
      "start": 45.6111,
      "duration": 0.1384,
      "velocity": 127,
      "chip": "ym2612"
    },
    {
      "channel": 4,
      "note": 64,
      "start": 45.7493,
      "duration": 0.5107,
      "velocity": 100,
      "chip": "ym2612"
    },
    {
      "channel": 5,
      "note": 68,
      "start": 45.8889,
      "duration": 0.1394,
      "velocity": 127,
      "chip": "ym2612"
    },
    {
      "channel": 5,
      "note": 68,
      "start": 46.0284,
      "duration": 0.1393,
      "velocity": 127,
      "chip": "ym2612"
    },
    {
      "channel": 2,
      "note": 61,
      "start": 46.167,
      "duration": 0.2168,
      "velocity": 104,
      "chip": "ym2612"
    },
    {
      "channel": 3,
      "note": 59,
      "start": 46.1672,
      "duration": 0.0924,
      "velocity": 100,
      "chip": "ym2612"
    },
    {
      "channel": 5,
      "note": 68,
      "start": 46.1677,
      "duration": 0.1395,
      "velocity": 127,
      "chip": "ym2612"
    },
    {
      "channel": 3,
      "note": 61,
      "start": 46.3066,
      "duration": 0.0926,
      "velocity": 100,
      "chip": "ym2612"
    },
    {
      "channel": 4,
      "note": 59,
      "start": 46.307,
      "duration": 0.0924,
      "velocity": 100,
      "chip": "ym2612"
    },
    {
      "channel": 5,
      "note": 68,
      "start": 46.3073,
      "duration": 0.1391,
      "velocity": 127,
      "chip": "ym2612"
    },
    {
      "channel": 3,
      "note": 62,
      "start": 46.4459,
      "duration": 0.0927,
      "velocity": 100,
      "chip": "ym2612"
    },
    {
      "channel": 4,
      "note": 61,
      "start": 46.4461,
      "duration": 0.0926,
      "velocity": 100,
      "chip": "ym2612"
    },
    {
      "channel": 5,
      "note": 68,
      "start": 46.4464,
      "duration": 0.1394,
      "velocity": 127,
      "chip": "ym2612"
    },
    {
      "channel": 2,
      "note": 61,
      "start": 46.5849,
      "duration": 0.0773,
      "velocity": 104,
      "chip": "ym2612"
    },
    {
      "channel": 3,
      "note": 64,
      "start": 46.5851,
      "duration": 0.0925,
      "velocity": 100,
      "chip": "ym2612"
    },
    {
      "channel": 4,
      "note": 62,
      "start": 46.5854,
      "duration": 0.0924,
      "velocity": 100,
      "chip": "ym2612"
    },
    {
      "channel": 5,
      "note": 68,
      "start": 46.5858,
      "duration": 0.1395,
      "velocity": 127,
      "chip": "ym2612"
    },
    {
      "channel": 0,
      "note": 54,
      "start": 46.724,
      "duration": 0.5104,
      "velocity": 115,
      "chip": "ym2612"
    },
    {
      "channel": 1,
      "note": 59,
      "start": 46.7243,
      "duration": 0.5104,
      "velocity": 115,
      "chip": "ym2612"
    },
    {
      "channel": 2,
      "note": 59,
      "start": 46.7245,
      "duration": 0.2781,
      "velocity": 104,
      "chip": "ym2612"
    },
    {
      "channel": 3,
      "note": 66,
      "start": 46.7248,
      "duration": 0.5101,
      "velocity": 100,
      "chip": "ym2612"
    },
    {
      "channel": 4,
      "note": 64,
      "start": 46.725,
      "duration": 0.0919,
      "velocity": 100,
      "chip": "ym2612"
    },
    {
      "channel": 5,
      "note": 68,
      "start": 46.7253,
      "duration": 0.1382,
      "velocity": 127,
      "chip": "ym2612"
    },
    {
      "channel": 4,
      "note": 66,
      "start": 46.8633,
      "duration": 0.5103,
      "velocity": 100,
      "chip": "ym2612"
    },
    {
      "channel": 5,
      "note": 68,
      "start": 47.0031,
      "duration": 0.1393,
      "velocity": 127,
      "chip": "ym2612"
    },
    {
      "channel": 5,
      "note": 68,
      "start": 47.1424,
      "duration": 0.0463,
      "velocity": 127,
      "chip": "ym2612"
    },
    {
      "channel": 5,
      "note": 68,
      "start": 47.1887,
      "duration": 0.0466,
      "velocity": 127,
      "chip": "ym2612"
    },
    {
      "channel": 5,
      "note": 68,
      "start": 47.2354,
      "duration": 0.0466,
      "velocity": 127,
      "chip": "ym2612"
    },
    {
      "channel": 0,
      "note": 54,
      "start": 47.2809,
      "duration": 0.3713,
      "velocity": 115,
      "chip": "ym2612"
    },
    {
      "channel": 1,
      "note": 59,
      "start": 47.2811,
      "duration": 0.3713,
      "velocity": 115,
      "chip": "ym2612"
    },
    {
      "channel": 2,
      "note": 59,
      "start": 47.2813,
      "duration": 0.2783,
      "velocity": 104,
      "chip": "ym2612"
    },
    {
      "channel": 3,
      "note": 66,
      "start": 47.2815,
      "duration": 0.371,
      "velocity": 100,
      "chip": "ym2612"
    },
    {
      "channel": 5,
      "note": 68,
      "start": 47.2821,
      "duration": 0.1387,
      "velocity": 127,
      "chip": "ym2612"
    },
    {
      "channel": 4,
      "note": 66,
      "start": 47.4204,
      "duration": 0.3714,
      "velocity": 100,
      "chip": "ym2612"
    },
    {
      "channel": 5,
      "note": 68,
      "start": 47.4208,
      "duration": 0.1391,
      "velocity": 127,
      "chip": "ym2612"
    },
    {
      "channel": 0,
      "note": 54,
      "start": 47.6988,
      "duration": 0.0924,
      "velocity": 115,
      "chip": "ym2612"
    },
    {
      "channel": 1,
      "note": 59,
      "start": 47.699,
      "duration": 0.0924,
      "velocity": 115,
      "chip": "ym2612"
    },
    {
      "channel": 3,
      "note": 62,
      "start": 47.6994,
      "duration": 0.0921,
      "velocity": 100,
      "chip": "ym2612"
    },
    {
      "channel": 5,
      "note": 68,
      "start": 47.6998,
      "duration": 0.1396,
      "velocity": 127,
      "chip": "ym2612"
    },
    {
      "channel": 0,
      "note": 55,
      "start": 47.838,
      "duration": 1.0684,
      "velocity": 115,
      "chip": "ym2612"
    },
    {
      "channel": 1,
      "note": 59,
      "start": 47.8382,
      "duration": 1.0684,
      "velocity": 115,
      "chip": "ym2612"
    },
    {
      "channel": 2,
      "note": 55,
      "start": 47.8385,
      "duration": 0.2787,
      "velocity": 104,
      "chip": "ym2612"
    },
    {
      "channel": 3,
      "note": 59,
      "start": 47.8388,
      "duration": 0.5107,
      "velocity": 100,
      "chip": "ym2612"
    },
    {
      "channel": 4,
      "note": 62,
      "start": 47.8391,
      "duration": 0.092,
      "velocity": 100,
      "chip": "ym2612"
    },
    {
      "channel": 5,
      "note": 68,
      "start": 47.8395,
      "duration": 0.1384,
      "velocity": 127,
      "chip": "ym2612"
    },
    {
      "channel": 4,
      "note": 59,
      "start": 47.9776,
      "duration": 0.5112,
      "velocity": 100,
      "chip": "ym2612"
    },
    {
      "channel": 5,
      "note": 68,
      "start": 48.1176,
      "duration": 0.1392,
      "velocity": 127,
      "chip": "ym2612"
    },
    {
      "channel": 5,
      "note": 68,
      "start": 48.2568,
      "duration": 0.1396,
      "velocity": 127,
      "chip": "ym2612"
    },
    {
      "channel": 2,
      "note": 55,
      "start": 48.3957,
      "duration": 0.2788,
      "velocity": 104,
      "chip": "ym2612"
    },
    {
      "channel": 3,
      "note": 62,
      "start": 48.396,
      "duration": 0.0926,
      "velocity": 100,
      "chip": "ym2612"
    },
    {
      "channel": 5,
      "note": 68,
      "start": 48.3966,
      "duration": 0.1394,
      "velocity": 127,
      "chip": "ym2612"
    },
    {
      "channel": 3,
      "note": 64,
      "start": 48.5354,
      "duration": 0.0928,
      "velocity": 100,
      "chip": "ym2612"
    },
    {
      "channel": 4,
      "note": 62,
      "start": 48.5357,
      "duration": 0.0925,
      "velocity": 100,
      "chip": "ym2612"
    },
    {
      "channel": 5,
      "note": 68,
      "start": 48.5359,
      "duration": 0.1393,
      "velocity": 127,
      "chip": "ym2612"
    },
    {
      "channel": 3,
      "note": 66,
      "start": 48.6748,
      "duration": 0.0926,
      "velocity": 100,
      "chip": "ym2612"
    },
    {
      "channel": 4,
      "note": 64,
      "start": 48.6751,
      "duration": 0.0925,
      "velocity": 100,
      "chip": "ym2612"
    },
    {
      "channel": 5,
      "note": 68,
      "start": 48.6752,
      "duration": 0.1395,
      "velocity": 127,
      "chip": "ym2612"
    },
    {
      "channel": 3,
      "note": 68,
      "start": 48.8141,
      "duration": 0.0927,
      "velocity": 100,
      "chip": "ym2612"
    },
    {
      "channel": 4,
      "note": 66,
      "start": 48.8145,
      "duration": 0.0924,
      "velocity": 100,
      "chip": "ym2612"
    },
    {
      "channel": 5,
      "note": 68,
      "start": 48.8147,
      "duration": 0.1394,
      "velocity": 127,
      "chip": "ym2612"
    },
    {
      "channel": 0,
      "note": 54,
      "start": 48.9528,
      "duration": 0.5104,
      "velocity": 115,
      "chip": "ym2612"
    },
    {
      "channel": 1,
      "note": 59,
      "start": 48.9531,
      "duration": 0.5104,
      "velocity": 115,
      "chip": "ym2612"
    },
    {
      "channel": 2,
      "note": 59,
      "start": 48.9534,
      "duration": 0.2781,
      "velocity": 104,
      "chip": "ym2612"
    },
    {
      "channel": 3,
      "note": 69,
      "start": 48.9537,
      "duration": 0.51,
      "velocity": 100,
      "chip": "ym2612"
    },
    {
      "channel": 4,
      "note": 68,
      "start": 48.9539,
      "duration": 0.0917,
      "velocity": 100,
      "chip": "ym2612"
    },
    {
      "channel": 5,
      "note": 68,
      "start": 48.9542,
      "duration": 0.1383,
      "velocity": 127,
      "chip": "ym2612"
    },
    {
      "channel": 4,
      "note": 69,
      "start": 49.0923,
      "duration": 0.5108,
      "velocity": 100,
      "chip": "ym2612"
    },
    {
      "channel": 5,
      "note": 68,
      "start": 49.232,
      "duration": 0.1391,
      "velocity": 127,
      "chip": "ym2612"
    },
    {
      "channel": 5,
      "note": 68,
      "start": 49.3712,
      "duration": 0.0463,
      "velocity": 127,
      "chip": "ym2612"
    },
    {
      "channel": 5,
      "note": 68,
      "start": 49.4176,
      "duration": 0.0466,
      "velocity": 127,
      "chip": "ym2612"
    },
    {
      "channel": 5,
      "note": 68,
      "start": 49.4642,
      "duration": 0.0469,
      "velocity": 127,
      "chip": "ym2612"
    },
    {
      "channel": 0,
      "note": 54,
      "start": 49.5099,
      "duration": 0.3714,
      "velocity": 115,
      "chip": "ym2612"
    },
    {
      "channel": 1,
      "note": 59,
      "start": 49.5102,
      "duration": 0.3715,
      "velocity": 115,
      "chip": "ym2612"
    },
    {
      "channel": 2,
      "note": 59,
      "start": 49.5104,
      "duration": 0.2783,
      "velocity": 104,
      "chip": "ym2612"
    },
    {
      "channel": 3,
      "note": 69,
      "start": 49.5107,
      "duration": 0.3711,
      "velocity": 100,
      "chip": "ym2612"
    },
    {
      "channel": 5,
      "note": 68,
      "start": 49.5112,
      "duration": 0.1388,
      "velocity": 127,
      "chip": "ym2612"
    },
    {
      "channel": 4,
      "note": 69,
      "start": 49.6496,
      "duration": 0.3719,
      "velocity": 100,
      "chip": "ym2612"
    },
    {
      "channel": 5,
      "note": 68,
      "start": 49.65,
      "duration": 0.139,
      "velocity": 127,
      "chip": "ym2612"
    },
    {
      "channel": 0,
      "note": 54,
      "start": 49.9281,
      "duration": 0.0928,
      "velocity": 115,
      "chip": "ym2612"
    },
    {
      "channel": 1,
      "note": 59,
      "start": 49.9285,
      "duration": 0.0926,
      "velocity": 115,
      "chip": "ym2612"
    },
    {
      "channel": 3,
      "note": 66,
      "start": 49.9288,
      "duration": 0.0924,
      "velocity": 100,
      "chip": "ym2612"
    },
    {
      "channel": 5,
      "note": 68,
      "start": 49.9293,
      "duration": 0.1393,
      "velocity": 127,
      "chip": "ym2612"
    },
    {
      "channel": 0,
      "note": 56,
      "start": 50.0673,
      "duration": 1.0678,
      "velocity": 115,
      "chip": "ym2612"
    },
    {
      "channel": 1,
      "note": 59,
      "start": 50.0675,
      "duration": 1.0679,
      "velocity": 115,
      "chip": "ym2612"
    },
    {
      "channel": 2,
      "note": 64,
      "start": 50.0678,
      "duration": 0.2785,
      "velocity": 104,
      "chip": "ym2612"
    },
    {
      "channel": 3,
      "note": 68,
      "start": 50.068,
      "duration": 0.2317,
      "velocity": 100,
      "chip": "ym2612"
    },
    {
      "channel": 4,
      "note": 66,
      "start": 50.0683,
      "duration": 0.092,
      "velocity": 100,
      "chip": "ym2612"
    },
    {
      "channel": 5,
      "note": 68,
      "start": 50.0686,
      "duration": 0.1384,
      "velocity": 127,
      "chip": "ym2612"
    },
    {
      "channel": 4,
      "note": 68,
      "start": 50.2068,
      "duration": 0.2326,
      "velocity": 100,
      "chip": "ym2612"
    },
    {
      "channel": 3,
      "note": 66,
      "start": 50.3466,
      "duration": 0.2317,
      "velocity": 100,
      "chip": "ym2612"
    },
    {
      "channel": 5,
      "note": 68,
      "start": 50.347,
      "duration": 0.139,
      "velocity": 127,
      "chip": "ym2612"
    },
    {
      "channel": 4,
      "note": 66,
      "start": 50.4858,
      "duration": 0.2323,
      "velocity": 100,
      "chip": "ym2612"
    },
    {
      "channel": 5,
      "note": 68,
      "start": 50.486,
      "duration": 0.1395,
      "velocity": 127,
      "chip": "ym2612"
    },
    {
      "channel": 2,
      "note": 64,
      "start": 50.625,
      "duration": 0.2783,
      "velocity": 104,
      "chip": "ym2612"
    },
    {
      "channel": 3,
      "note": 64,
      "start": 50.6252,
      "duration": 0.046,
      "velocity": 100,
      "chip": "ym2612"
    },
    {
      "channel": 5,
      "note": 68,
      "start": 50.6256,
      "duration": 0.139,
      "velocity": 127,
      "chip": "ym2612"
    },
    {
      "channel": 3,
      "note": 66,
      "start": 50.7179,
      "duration": 0.0461,
      "velocity": 100,
      "chip": "ym2612"
    },
    {
      "channel": 4,
      "note": 64,
      "start": 50.7643,
      "duration": 0.0465,
      "velocity": 100,
      "chip": "ym2612"
    },
    {
      "channel": 5,
      "note": 68,
      "start": 50.7646,
      "duration": 0.1392,
      "velocity": 127,
      "chip": "ym2612"
    },
    {
      "channel": 3,
      "note": 64,
      "start": 50.8107,
      "duration": 0.0462,
      "velocity": 100,
      "chip": "ym2612"
    },
    {
      "channel": 4,
      "note": 66,
      "start": 50.8571,
      "duration": 0.0465,
      "velocity": 100,
      "chip": "ym2612"
    },
    {
      "channel": 3,
      "note": 62,
      "start": 50.9036,
      "duration": 0.0925,
      "velocity": 100,
      "chip": "ym2612"
    },
    {
      "channel": 5,
      "note": 68,
      "start": 50.9039,
      "duration": 0.1394,
      "velocity": 127,
      "chip": "ym2612"
    },
    {
      "channel": 4,
      "note": 64,
      "start": 50.95,
      "duration": 0.0462,
      "velocity": 100,
      "chip": "ym2612"
    },
    {
      "channel": 3,
      "note": 64,
      "start": 51.0427,
      "duration": 0.0928,
      "velocity": 100,
      "chip": "ym2612"
    },
    {
      "channel": 4,
      "note": 62,
      "start": 51.0431,
      "duration": 0.0926,
      "velocity": 100,
      "chip": "ym2612"
    },
    {
      "channel": 5,
      "note": 68,
      "start": 51.0434,
      "duration": 0.1394,
      "velocity": 127,
      "chip": "ym2612"
    },
    {
      "channel": 0,
      "note": 54,
      "start": 51.1815,
      "duration": 0.5105,
      "velocity": 115,
      "chip": "ym2612"
    },
    {
      "channel": 1,
      "note": 57,
      "start": 51.1817,
      "duration": 0.5106,
      "velocity": 115,
      "chip": "ym2612"
    },
    {
      "channel": 2,
      "note": 66,
      "start": 51.1819,
      "duration": 0.2784,
      "velocity": 104,
      "chip": "ym2612"
    },
    {
      "channel": 3,
      "note": 66,
      "start": 51.1822,
      "duration": 1.6243,
      "velocity": 100,
      "chip": "ym2612"
    },
    {
      "channel": 4,
      "note": 64,
      "start": 51.1825,
      "duration": 0.0917,
      "velocity": 100,
      "chip": "ym2612"
    },
    {
      "channel": 5,
      "note": 68,
      "start": 51.1828,
      "duration": 0.1385,
      "velocity": 127,
      "chip": "ym2612"
    },
    {
      "channel": 4,
      "note": 66,
      "start": 51.321,
      "duration": 1.6249,
      "velocity": 100,
      "chip": "ym2612"
    },
    {
      "channel": 5,
      "note": 68,
      "start": 51.4608,
      "duration": 0.1392,
      "velocity": 127,
      "chip": "ym2612"
    },
    {
      "channel": 5,
      "note": 68,
      "start": 51.6,
      "duration": 0.0463,
      "velocity": 127,
      "chip": "ym2612"
    },
    {
      "channel": 5,
      "note": 68,
      "start": 51.6463,
      "duration": 0.0466,
      "velocity": 127,
      "chip": "ym2612"
    },
    {
      "channel": 5,
      "note": 68,
      "start": 51.693,
      "duration": 0.0469,
      "velocity": 127,
      "chip": "ym2612"
    },
    {
      "channel": 0,
      "note": 54,
      "start": 51.7387,
      "duration": 0.2319,
      "velocity": 115,
      "chip": "ym2612"
    },
    {
      "channel": 1,
      "note": 57,
      "start": 51.739,
      "duration": 0.2317,
      "velocity": 115,
      "chip": "ym2612"
    },
    {
      "channel": 2,
      "note": 61,
      "start": 51.7392,
      "duration": 0.2779,
      "velocity": 104,
      "chip": "ym2612"
    },
    {
      "channel": 5,
      "note": 68,
      "start": 51.7399,
      "duration": 0.1385,
      "velocity": 127,
      "chip": "ym2612"
    },
    {
      "channel": 5,
      "note": 68,
      "start": 51.8785,
      "duration": 0.1391,
      "velocity": 127,
      "chip": "ym2612"
    },
    {
      "channel": 0,
      "note": 54,
      "start": 52.0168,
      "duration": 0.0928,
      "velocity": 115,
      "chip": "ym2612"
    },
    {
      "channel": 1,
      "note": 57,
      "start": 52.017,
      "duration": 0.0927,
      "velocity": 115,
      "chip": "ym2612"
    },
    {
      "channel": 0,
      "note": 54,
      "start": 52.1561,
      "duration": 0.0929,
      "velocity": 115,
      "chip": "ym2612"
    },
    {
      "channel": 1,
      "note": 57,
      "start": 52.1563,
      "duration": 0.0929,
      "velocity": 115,
      "chip": "ym2612"
    },
    {
      "channel": 5,
      "note": 68,
      "start": 52.1569,
      "duration": 0.1395,
      "velocity": 127,
      "chip": "ym2612"
    },
    {
      "channel": 0,
      "note": 54,
      "start": 52.2954,
      "duration": 0.2325,
      "velocity": 115,
      "chip": "ym2612"
    },
    {
      "channel": 1,
      "note": 57,
      "start": 52.2956,
      "duration": 0.2324,
      "velocity": 115,
      "chip": "ym2612"
    },
    {
      "channel": 2,
      "note": 66,
      "start": 52.2958,
      "duration": 0.2788,
      "velocity": 104,
      "chip": "ym2612"
    },
    {
      "channel": 5,
      "note": 68,
      "start": 52.2965,
      "duration": 0.0923,
      "velocity": 127,
      "chip": "ym2612"
    },
    {
      "channel": 5,
      "note": 68,
      "start": 52.3889,
      "duration": 0.0931,
      "velocity": 127,
      "chip": "ym2612"
    },
    {
      "channel": 5,
      "note": 68,
      "start": 52.482,
      "duration": 0.093,
      "velocity": 127,
      "chip": "ym2612"
    },
    {
      "channel": 0,
      "note": 52,
      "start": 52.5742,
      "duration": 0.2319,
      "velocity": 115,
      "chip": "ym2612"
    },
    {
      "channel": 1,
      "note": 56,
      "start": 52.5744,
      "duration": 0.2319,
      "velocity": 115,
      "chip": "ym2612"
    },
    {
      "channel": 5,
      "note": 68,
      "start": 52.5751,
      "duration": 0.0924,
      "velocity": 127,
      "chip": "ym2612"
    },
    {
      "channel": 5,
      "note": 68,
      "start": 52.6675,
      "duration": 0.0929,
      "velocity": 127,
      "chip": "ym2612"
    },
    {
      "channel": 5,
      "note": 68,
      "start": 52.7605,
      "duration": 0.0934,
      "velocity": 127,
      "chip": "ym2612"
    },
    {
      "channel": 0,
      "note": 52,
      "start": 52.8525,
      "duration": 0.5104,
      "velocity": 115,
      "chip": "ym2612"
    },
    {
      "channel": 1,
      "note": 57,
      "start": 52.8529,
      "duration": 0.5103,
      "velocity": 115,
      "chip": "ym2612"
    },
    {
      "channel": 2,
      "note": 57,
      "start": 52.8532,
      "duration": 0.2163,
      "velocity": 104,
      "chip": "ym2612"
    },
    {
      "channel": 3,
      "note": 62,
      "start": 52.8534,
      "duration": 0.0922,
      "velocity": 100,
      "chip": "ym2612"
    },
    {
      "channel": 5,
      "note": 68,
      "start": 52.8539,
      "duration": 0.1387,
      "velocity": 127,
      "chip": "ym2612"
    },
    {
      "channel": 3,
      "note": 64,
      "start": 52.9921,
      "duration": 0.0928,
      "velocity": 100,
      "chip": "ym2612"
    },
    {
      "channel": 4,
      "note": 62,
      "start": 52.9924,
      "duration": 0.0926,
      "velocity": 100,
      "chip": "ym2612"
    },
    {
      "channel": 5,
      "note": 68,
      "start": 52.9927,
      "duration": 0.1396,
      "velocity": 127,
      "chip": "ym2612"
    },
    {
      "channel": 3,
      "note": 66,
      "start": 53.1317,
      "duration": 0.0926,
      "velocity": 100,
      "chip": "ym2612"
    },
    {
      "channel": 4,
      "note": 64,
      "start": 53.132,
      "duration": 0.0923,
      "velocity": 100,
      "chip": "ym2612"
    },
    {
      "channel": 5,
      "note": 68,
      "start": 53.1323,
      "duration": 0.139,
      "velocity": 127,
      "chip": "ym2612"
    },
    {
      "channel": 2,
      "note": 57,
      "start": 53.2705,
      "duration": 0.0772,
      "velocity": 104,
      "chip": "ym2612"
    },
    {
      "channel": 3,
      "note": 68,
      "start": 53.2708,
      "duration": 0.0926,
      "velocity": 100,
      "chip": "ym2612"
    },
    {
      "channel": 4,
      "note": 66,
      "start": 53.2711,
      "duration": 0.0924,
      "velocity": 100,
      "chip": "ym2612"
    },
    {
      "channel": 5,
      "note": 68,
      "start": 53.2714,
      "duration": 0.1395,
      "velocity": 127,
      "chip": "ym2612"
    },
    {
      "channel": 0,
      "note": 54,
      "start": 53.4095,
      "duration": 0.5109,
      "velocity": 115,
      "chip": "ym2612"
    },
    {
      "channel": 1,
      "note": 57,
      "start": 53.4097,
      "duration": 0.5109,
      "velocity": 115,
      "chip": "ym2612"
    },
    {
      "channel": 2,
      "note": 62,
      "start": 53.41,
      "duration": 0.2781,
      "velocity": 104,
      "chip": "ym2612"
    },
    {
      "channel": 3,
      "note": 69,
      "start": 53.4102,
      "duration": 0.5106,
      "velocity": 100,
      "chip": "ym2612"
    },
    {
      "channel": 4,
      "note": 68,
      "start": 53.4105,
      "duration": 0.0918,
      "velocity": 100,
      "chip": "ym2612"
    },
    {
      "channel": 5,
      "note": 68,
      "start": 53.4109,
      "duration": 0.1384,
      "velocity": 127,
      "chip": "ym2612"
    },
    {
      "channel": 4,
      "note": 69,
      "start": 53.5491,
      "duration": 0.5109,
      "velocity": 100,
      "chip": "ym2612"
    },
    {
      "channel": 5,
      "note": 68,
      "start": 53.6886,
      "duration": 0.1395,
      "velocity": 127,
      "chip": "ym2612"
    },
    {
      "channel": 5,
      "note": 68,
      "start": 53.8282,
      "duration": 0.0462,
      "velocity": 127,
      "chip": "ym2612"
    },
    {
      "channel": 5,
      "note": 68,
      "start": 53.8744,
      "duration": 0.0469,
      "velocity": 127,
      "chip": "ym2612"
    },
    {
      "channel": 5,
      "note": 68,
      "start": 53.9214,
      "duration": 0.0464,
      "velocity": 127,
      "chip": "ym2612"
    },
    {
      "channel": 0,
      "note": 54,
      "start": 53.9668,
      "duration": 0.3716,
      "velocity": 115,
      "chip": "ym2612"
    },
    {
      "channel": 1,
      "note": 57,
      "start": 53.9671,
      "duration": 0.3715,
      "velocity": 115,
      "chip": "ym2612"
    },
    {
      "channel": 2,
      "note": 62,
      "start": 53.9672,
      "duration": 0.2783,
      "velocity": 104,
      "chip": "ym2612"
    },
    {
      "channel": 3,
      "note": 69,
      "start": 53.9675,
      "duration": 0.3712,
      "velocity": 100,
      "chip": "ym2612"
    },
    {
      "channel": 5,
      "note": 68,
      "start": 53.9679,
      "duration": 0.1386,
      "velocity": 127,
      "chip": "ym2612"
    },
    {
      "channel": 4,
      "note": 69,
      "start": 54.1062,
      "duration": 0.3717,
      "velocity": 100,
      "chip": "ym2612"
    },
    {
      "channel": 5,
      "note": 68,
      "start": 54.1066,
      "duration": 0.1393,
      "velocity": 127,
      "chip": "ym2612"
    },
    {
      "channel": 0,
      "note": 54,
      "start": 54.3846,
      "duration": 0.0927,
      "velocity": 115,
      "chip": "ym2612"
    },
    {
      "channel": 1,
      "note": 57,
      "start": 54.3849,
      "duration": 0.0926,
      "velocity": 115,
      "chip": "ym2612"
    },
    {
      "channel": 3,
      "note": 66,
      "start": 54.3853,
      "duration": 0.0924,
      "velocity": 100,
      "chip": "ym2612"
    },
    {
      "channel": 5,
      "note": 68,
      "start": 54.3857,
      "duration": 0.1395,
      "velocity": 127,
      "chip": "ym2612"
    },
    {
      "channel": 0,
      "note": 52,
      "start": 54.5241,
      "duration": 1.0677,
      "velocity": 115,
      "chip": "ym2612"
    },
    {
      "channel": 1,
      "note": 57,
      "start": 54.5242,
      "duration": 1.0678,
      "velocity": 115,
      "chip": "ym2612"
    },
    {
      "channel": 2,
      "note": 61,
      "start": 54.5245,
      "duration": 0.2784,
      "velocity": 104,
      "chip": "ym2612"
    },
    {
      "channel": 3,
      "note": 64,
      "start": 54.5247,
      "duration": 0.5105,
      "velocity": 100,
      "chip": "ym2612"
    },
    {
      "channel": 4,
      "note": 66,
      "start": 54.525,
      "duration": 0.092,
      "velocity": 100,
      "chip": "ym2612"
    },
    {
      "channel": 5,
      "note": 68,
      "start": 54.5254,
      "duration": 0.1386,
      "velocity": 127,
      "chip": "ym2612"
    },
    {
      "channel": 4,
      "note": 64,
      "start": 54.6638,
      "duration": 0.5106,
      "velocity": 100,
      "chip": "ym2612"
    },
    {
      "channel": 5,
      "note": 68,
      "start": 54.8033,
      "duration": 0.1396,
      "velocity": 127,
      "chip": "ym2612"
    },
    {
      "channel": 5,
      "note": 68,
      "start": 54.943,
      "duration": 0.1391,
      "velocity": 127,
      "chip": "ym2612"
    },
    {
      "channel": 2,
      "note": 61,
      "start": 55.0813,
      "duration": 0.2168,
      "velocity": 104,
      "chip": "ym2612"
    },
    {
      "channel": 3,
      "note": 59,
      "start": 55.0815,
      "duration": 0.0926,
      "velocity": 100,
      "chip": "ym2612"
    },
    {
      "channel": 5,
      "note": 68,
      "start": 55.082,
      "duration": 0.1394,
      "velocity": 127,
      "chip": "ym2612"
    },
    {
      "channel": 3,
      "note": 61,
      "start": 55.2209,
      "duration": 0.0927,
      "velocity": 100,
      "chip": "ym2612"
    },
    {
      "channel": 4,
      "note": 59,
      "start": 55.2212,
      "duration": 0.0925,
      "velocity": 100,
      "chip": "ym2612"
    },
    {
      "channel": 5,
      "note": 68,
      "start": 55.2215,
      "duration": 0.1393,
      "velocity": 127,
      "chip": "ym2612"
    },
    {
      "channel": 3,
      "note": 62,
      "start": 55.3602,
      "duration": 0.0927,
      "velocity": 100,
      "chip": "ym2612"
    },
    {
      "channel": 4,
      "note": 61,
      "start": 55.3605,
      "duration": 0.0926,
      "velocity": 100,
      "chip": "ym2612"
    },
    {
      "channel": 5,
      "note": 68,
      "start": 55.3608,
      "duration": 0.1394,
      "velocity": 127,
      "chip": "ym2612"
    },
    {
      "channel": 2,
      "note": 61,
      "start": 55.4993,
      "duration": 0.0773,
      "velocity": 104,
      "chip": "ym2612"
    },
    {
      "channel": 3,
      "note": 64,
      "start": 55.4995,
      "duration": 0.0926,
      "velocity": 100,
      "chip": "ym2612"
    },
    {
      "channel": 4,
      "note": 62,
      "start": 55.4998,
      "duration": 0.0925,
      "velocity": 100,
      "chip": "ym2612"
    },
    {
      "channel": 5,
      "note": 68,
      "start": 55.5001,
      "duration": 0.1396,
      "velocity": 127,
      "chip": "ym2612"
    },
    {
      "channel": 0,
      "note": 54,
      "start": 55.6383,
      "duration": 0.5108,
      "velocity": 115,
      "chip": "ym2612"
    },
    {
      "channel": 1,
      "note": 59,
      "start": 55.6386,
      "duration": 0.5106,
      "velocity": 115,
      "chip": "ym2612"
    },
    {
      "channel": 2,
      "note": 59,
      "start": 55.6389,
      "duration": 0.2782,
      "velocity": 104,
      "chip": "ym2612"
    },
    {
      "channel": 3,
      "note": 66,
      "start": 55.6392,
      "duration": 0.5103,
      "velocity": 100,
      "chip": "ym2612"
    },
    {
      "channel": 4,
      "note": 64,
      "start": 55.6395,
      "duration": 0.0918,
      "velocity": 100,
      "chip": "ym2612"
    },
    {
      "channel": 5,
      "note": 68,
      "start": 55.6398,
      "duration": 0.1383,
      "velocity": 127,
      "chip": "ym2612"
    },
    {
      "channel": 4,
      "note": 66,
      "start": 55.778,
      "duration": 0.5105,
      "velocity": 100,
      "chip": "ym2612"
    },
    {
      "channel": 5,
      "note": 68,
      "start": 55.9176,
      "duration": 0.1395,
      "velocity": 127,
      "chip": "ym2612"
    },
    {
      "channel": 5,
      "note": 68,
      "start": 56.0571,
      "duration": 0.0459,
      "velocity": 127,
      "chip": "ym2612"
    },
    {
      "channel": 5,
      "note": 68,
      "start": 56.103,
      "duration": 0.0471,
      "velocity": 127,
      "chip": "ym2612"
    },
    {
      "channel": 5,
      "note": 68,
      "start": 56.1501,
      "duration": 0.0466,
      "velocity": 127,
      "chip": "ym2612"
    },
    {
      "channel": 0,
      "note": 54,
      "start": 56.1955,
      "duration": 0.3715,
      "velocity": 115,
      "chip": "ym2612"
    },
    {
      "channel": 1,
      "note": 59,
      "start": 56.1957,
      "duration": 0.3715,
      "velocity": 115,
      "chip": "ym2612"
    },
    {
      "channel": 2,
      "note": 59,
      "start": 56.1959,
      "duration": 0.2784,
      "velocity": 104,
      "chip": "ym2612"
    },
    {
      "channel": 3,
      "note": 66,
      "start": 56.1962,
      "duration": 0.3711,
      "velocity": 100,
      "chip": "ym2612"
    },
    {
      "channel": 5,
      "note": 68,
      "start": 56.1967,
      "duration": 0.1387,
      "velocity": 127,
      "chip": "ym2612"
    },
    {
      "channel": 4,
      "note": 66,
      "start": 56.3351,
      "duration": 0.3715,
      "velocity": 100,
      "chip": "ym2612"
    },
    {
      "channel": 5,
      "note": 68,
      "start": 56.3354,
      "duration": 0.1392,
      "velocity": 127,
      "chip": "ym2612"
    },
    {
      "channel": 0,
      "note": 54,
      "start": 56.6134,
      "duration": 0.0926,
      "velocity": 115,
      "chip": "ym2612"
    },
    {
      "channel": 1,
      "note": 59,
      "start": 56.6136,
      "duration": 0.0925,
      "velocity": 115,
      "chip": "ym2612"
    },
    {
      "channel": 3,
      "note": 62,
      "start": 56.6139,
      "duration": 0.0923,
      "velocity": 100,
      "chip": "ym2612"
    },
    {
      "channel": 5,
      "note": 68,
      "start": 56.6144,
      "duration": 0.1398,
      "velocity": 127,
      "chip": "ym2612"
    },
    {
      "channel": 0,
      "note": 55,
      "start": 56.7529,
      "duration": 1.0677,
      "velocity": 115,
      "chip": "ym2612"
    },
    {
      "channel": 1,
      "note": 59,
      "start": 56.7531,
      "duration": 1.0678,
      "velocity": 115,
      "chip": "ym2612"
    },
    {
      "channel": 2,
      "note": 55,
      "start": 56.7534,
      "duration": 0.2784,
      "velocity": 104,
      "chip": "ym2612"
    },
    {
      "channel": 3,
      "note": 59,
      "start": 56.7537,
      "duration": 0.5105,
      "velocity": 100,
      "chip": "ym2612"
    },
    {
      "channel": 4,
      "note": 62,
      "start": 56.754,
      "duration": 0.092,
      "velocity": 100,
      "chip": "ym2612"
    },
    {
      "channel": 5,
      "note": 68,
      "start": 56.7543,
      "duration": 0.1385,
      "velocity": 127,
      "chip": "ym2612"
    },
    {
      "channel": 4,
      "note": 59,
      "start": 56.8925,
      "duration": 0.5107,
      "velocity": 100,
      "chip": "ym2612"
    },
    {
      "channel": 5,
      "note": 68,
      "start": 57.0323,
      "duration": 0.1394,
      "velocity": 127,
      "chip": "ym2612"
    },
    {
      "channel": 5,
      "note": 68,
      "start": 57.1718,
      "duration": 0.1393,
      "velocity": 127,
      "chip": "ym2612"
    },
    {
      "channel": 2,
      "note": 55,
      "start": 57.3103,
      "duration": 0.2787,
      "velocity": 104,
      "chip": "ym2612"
    },
    {
      "channel": 3,
      "note": 62,
      "start": 57.3106,
      "duration": 0.0924,
      "velocity": 100,
      "chip": "ym2612"
    },
    {
      "channel": 5,
      "note": 68,
      "start": 57.311,
      "duration": 0.1394,
      "velocity": 127,
      "chip": "ym2612"
    },
    {
      "channel": 3,
      "note": 64,
      "start": 57.4499,
      "duration": 0.0927,
      "velocity": 100,
      "chip": "ym2612"
    },
    {
      "channel": 4,
      "note": 62,
      "start": 57.4502,
      "duration": 0.0925,
      "velocity": 100,
      "chip": "ym2612"
    },
    {
      "channel": 5,
      "note": 68,
      "start": 57.4505,
      "duration": 0.1392,
      "velocity": 127,
      "chip": "ym2612"
    },
    {
      "channel": 3,
      "note": 66,
      "start": 57.5892,
      "duration": 0.0926,
      "velocity": 100,
      "chip": "ym2612"
    },
    {
      "channel": 4,
      "note": 64,
      "start": 57.5895,
      "duration": 0.0924,
      "velocity": 100,
      "chip": "ym2612"
    },
    {
      "channel": 5,
      "note": 68,
      "start": 57.5898,
      "duration": 0.1391,
      "velocity": 127,
      "chip": "ym2612"
    },
    {
      "channel": 3,
      "note": 68,
      "start": 57.7283,
      "duration": 0.0927,
      "velocity": 100,
      "chip": "ym2612"
    },
    {
      "channel": 4,
      "note": 66,
      "start": 57.7286,
      "duration": 0.0926,
      "velocity": 100,
      "chip": "ym2612"
    },
    {
      "channel": 5,
      "note": 68,
      "start": 57.729,
      "duration": 0.1397,
      "velocity": 127,
      "chip": "ym2612"
    },
    {
      "channel": 0,
      "note": 54,
      "start": 57.8674,
      "duration": 0.5104,
      "velocity": 115,
      "chip": "ym2612"
    },
    {
      "channel": 1,
      "note": 59,
      "start": 57.8677,
      "duration": 0.5103,
      "velocity": 115,
      "chip": "ym2612"
    },
    {
      "channel": 2,
      "note": 59,
      "start": 57.8679,
      "duration": 0.2781,
      "velocity": 104,
      "chip": "ym2612"
    },
    {
      "channel": 3,
      "note": 69,
      "start": 57.8681,
      "duration": 0.5101,
      "velocity": 100,
      "chip": "ym2612"
    },
    {
      "channel": 4,
      "note": 68,
      "start": 57.8685,
      "duration": 0.0919,
      "velocity": 100,
      "chip": "ym2612"
    },
    {
      "channel": 5,
      "note": 68,
      "start": 57.8688,
      "duration": 0.1382,
      "velocity": 127,
      "chip": "ym2612"
    },
    {
      "channel": 4,
      "note": 69,
      "start": 58.0067,
      "duration": 0.5104,
      "velocity": 100,
      "chip": "ym2612"
    },
    {
      "channel": 5,
      "note": 68,
      "start": 58.1465,
      "duration": 0.1391,
      "velocity": 127,
      "chip": "ym2612"
    },
    {
      "channel": 5,
      "note": 68,
      "start": 58.2857,
      "duration": 0.0463,
      "velocity": 127,
      "chip": "ym2612"
    },
    {
      "channel": 5,
      "note": 68,
      "start": 58.332,
      "duration": 0.0467,
      "velocity": 127,
      "chip": "ym2612"
    },
    {
      "channel": 5,
      "note": 68,
      "start": 58.3788,
      "duration": 0.0466,
      "velocity": 127,
      "chip": "ym2612"
    },
    {
      "channel": 0,
      "note": 54,
      "start": 58.4242,
      "duration": 0.3715,
      "velocity": 115,
      "chip": "ym2612"
    },
    {
      "channel": 1,
      "note": 59,
      "start": 58.4245,
      "duration": 0.3715,
      "velocity": 115,
      "chip": "ym2612"
    },
    {
      "channel": 2,
      "note": 59,
      "start": 58.4247,
      "duration": 0.2783,
      "velocity": 104,
      "chip": "ym2612"
    },
    {
      "channel": 3,
      "note": 69,
      "start": 58.4249,
      "duration": 0.3712,
      "velocity": 100,
      "chip": "ym2612"
    },
    {
      "channel": 5,
      "note": 68,
      "start": 58.4255,
      "duration": 0.1387,
      "velocity": 127,
      "chip": "ym2612"
    },
    {
      "channel": 4,
      "note": 69,
      "start": 58.5638,
      "duration": 0.3715,
      "velocity": 100,
      "chip": "ym2612"
    },
    {
      "channel": 5,
      "note": 68,
      "start": 58.5642,
      "duration": 0.1391,
      "velocity": 127,
      "chip": "ym2612"
    },
    {
      "channel": 0,
      "note": 54,
      "start": 58.8423,
      "duration": 0.0924,
      "velocity": 115,
      "chip": "ym2612"
    },
    {
      "channel": 1,
      "note": 59,
      "start": 58.8425,
      "duration": 0.0924,
      "velocity": 115,
      "chip": "ym2612"
    },
    {
      "channel": 3,
      "note": 71,
      "start": 58.8429,
      "duration": 0.0922,
      "velocity": 100,
      "chip": "ym2612"
    },
    {
      "channel": 5,
      "note": 68,
      "start": 58.8434,
      "duration": 0.1394,
      "velocity": 127,
      "chip": "ym2612"
    },
    {
      "channel": 0,
      "note": 56,
      "start": 58.9815,
      "duration": 1.0677,
      "velocity": 115,
      "chip": "ym2612"
    },
    {
      "channel": 1,
      "note": 59,
      "start": 58.9816,
      "duration": 1.0678,
      "velocity": 115,
      "chip": "ym2612"
    },
    {
      "channel": 2,
      "note": 64,
      "start": 58.9819,
      "duration": 0.2784,
      "velocity": 104,
      "chip": "ym2612"
    },
    {
      "channel": 3,
      "note": 68,
      "start": 58.9821,
      "duration": 0.2315,
      "velocity": 100,
      "chip": "ym2612"
    },
    {
      "channel": 4,
      "note": 71,
      "start": 58.9824,
      "duration": 0.0919,
      "velocity": 100,
      "chip": "ym2612"
    },
    {
      "channel": 5,
      "note": 68,
      "start": 58.9828,
      "duration": 0.1383,
      "velocity": 127,
      "chip": "ym2612"
    },
    {
      "channel": 4,
      "note": 68,
      "start": 59.1208,
      "duration": 0.2325,
      "velocity": 100,
      "chip": "ym2612"
    },
    {
      "channel": 3,
      "note": 66,
      "start": 59.2605,
      "duration": 0.2317,
      "velocity": 100,
      "chip": "ym2612"
    },
    {
      "channel": 5,
      "note": 68,
      "start": 59.261,
      "duration": 0.1388,
      "velocity": 127,
      "chip": "ym2612"
    },
    {
      "channel": 4,
      "note": 66,
      "start": 59.3997,
      "duration": 0.2321,
      "velocity": 100,
      "chip": "ym2612"
    },
    {
      "channel": 5,
      "note": 68,
      "start": 59.3998,
      "duration": 0.1395,
      "velocity": 127,
      "chip": "ym2612"
    },
    {
      "channel": 2,
      "note": 64,
      "start": 59.5387,
      "duration": 0.2785,
      "velocity": 104,
      "chip": "ym2612"
    },
    {
      "channel": 3,
      "note": 64,
      "start": 59.539,
      "duration": 0.0461,
      "velocity": 100,
      "chip": "ym2612"
    },
    {
      "channel": 5,
      "note": 68,
      "start": 59.5394,
      "duration": 0.1392,
      "velocity": 127,
      "chip": "ym2612"
    },
    {
      "channel": 3,
      "note": 66,
      "start": 59.6316,
      "duration": 0.0463,
      "velocity": 100,
      "chip": "ym2612"
    },
    {
      "channel": 4,
      "note": 64,
      "start": 59.6782,
      "duration": 0.0464,
      "velocity": 100,
      "chip": "ym2612"
    },
    {
      "channel": 5,
      "note": 68,
      "start": 59.6785,
      "duration": 0.1393,
      "velocity": 127,
      "chip": "ym2612"
    },
    {
      "channel": 3,
      "note": 64,
      "start": 59.7244,
      "duration": 0.0465,
      "velocity": 100,
      "chip": "ym2612"
    },
    {
      "channel": 4,
      "note": 66,
      "start": 59.7712,
      "duration": 0.0464,
      "velocity": 100,
      "chip": "ym2612"
    },
    {
      "channel": 3,
      "note": 62,
      "start": 59.8175,
      "duration": 0.0926,
      "velocity": 100,
      "chip": "ym2612"
    },
    {
      "channel": 5,
      "note": 68,
      "start": 59.8179,
      "duration": 0.1396,
      "velocity": 127,
      "chip": "ym2612"
    },
    {
      "channel": 4,
      "note": 64,
      "start": 59.8641,
      "duration": 0.0461,
      "velocity": 100,
      "chip": "ym2612"
    },
    {
      "channel": 3,
      "note": 64,
      "start": 59.9569,
      "duration": 0.0927,
      "velocity": 100,
      "chip": "ym2612"
    },
    {
      "channel": 4,
      "note": 62,
      "start": 59.9572,
      "duration": 0.0924,
      "velocity": 100,
      "chip": "ym2612"
    },
    {
      "channel": 5,
      "note": 68,
      "start": 59.9575,
      "duration": 0.1395,
      "velocity": 127,
      "chip": "ym2612"
    },
    {
      "channel": 0,
      "note": 54,
      "start": 60.0956,
      "duration": 0.51,
      "velocity": 115,
      "chip": "ym2612"
    },
    {
      "channel": 1,
      "note": 59,
      "start": 60.0959,
      "duration": 0.51,
      "velocity": 115,
      "chip": "ym2612"
    },
    {
      "channel": 2,
      "note": 66,
      "start": 60.0961,
      "duration": 0.2781,
      "velocity": 104,
      "chip": "ym2612"
    },
    {
      "channel": 3,
      "note": 66,
      "start": 60.0965,
      "duration": 2.1806,
      "velocity": 100,
      "chip": "ym2612"
    },
    {
      "channel": 4,
      "note": 64,
      "start": 60.0967,
      "duration": 0.0918,
      "velocity": 100,
      "chip": "ym2612"
    },
    {
      "channel": 5,
      "note": 68,
      "start": 60.0969,
      "duration": 0.1383,
      "velocity": 127,
      "chip": "ym2612"
    },
    {
      "channel": 4,
      "note": 66,
      "start": 60.235,
      "duration": 2.0423,
      "velocity": 100,
      "chip": "ym2612"
    },
    {
      "channel": 5,
      "note": 68,
      "start": 60.3746,
      "duration": 0.1391,
      "velocity": 127,
      "chip": "ym2612"
    },
    {
      "channel": 5,
      "note": 68,
      "start": 60.5138,
      "duration": 0.0463,
      "velocity": 127,
      "chip": "ym2612"
    },
    {
      "channel": 5,
      "note": 68,
      "start": 60.5601,
      "duration": 0.0465,
      "velocity": 127,
      "chip": "ym2612"
    },
    {
      "channel": 5,
      "note": 68,
      "start": 60.6066,
      "duration": 0.0469,
      "velocity": 127,
      "chip": "ym2612"
    },
    {
      "channel": 0,
      "note": 54,
      "start": 60.6523,
      "duration": 0.2319,
      "velocity": 115,
      "chip": "ym2612"
    },
    {
      "channel": 1,
      "note": 59,
      "start": 60.6525,
      "duration": 0.232,
      "velocity": 115,
      "chip": "ym2612"
    },
    {
      "channel": 2,
      "note": 61,
      "start": 60.6528,
      "duration": 0.2781,
      "velocity": 104,
      "chip": "ym2612"
    },
    {
      "channel": 5,
      "note": 68,
      "start": 60.6536,
      "duration": 0.1387,
      "velocity": 127,
      "chip": "ym2612"
    },
    {
      "channel": 5,
      "note": 68,
      "start": 60.7923,
      "duration": 0.139,
      "velocity": 127,
      "chip": "ym2612"
    },
    {
      "channel": 0,
      "note": 54,
      "start": 60.9306,
      "duration": 0.0929,
      "velocity": 115,
      "chip": "ym2612"
    },
    {
      "channel": 1,
      "note": 59,
      "start": 60.9308,
      "duration": 0.0929,
      "velocity": 115,
      "chip": "ym2612"
    },
    {
      "channel": 0,
      "note": 54,
      "start": 61.0701,
      "duration": 0.0928,
      "velocity": 115,
      "chip": "ym2612"
    },
    {
      "channel": 1,
      "note": 59,
      "start": 61.0703,
      "duration": 0.0928,
      "velocity": 115,
      "chip": "ym2612"
    },
    {
      "channel": 5,
      "note": 68,
      "start": 61.0709,
      "duration": 0.1396,
      "velocity": 127,
      "chip": "ym2612"
    },
    {
      "channel": 0,
      "note": 54,
      "start": 61.2093,
      "duration": 1.0672,
      "velocity": 115,
      "chip": "ym2612"
    },
    {
      "channel": 1,
      "note": 61,
      "start": 61.2096,
      "duration": 1.0672,
      "velocity": 115,
      "chip": "ym2612"
    },
    {
      "channel": 2,
      "note": 66,
      "start": 61.2098,
      "duration": 0.2782,
      "velocity": 104,
      "chip": "ym2612"
    },
    {
      "channel": 5,
      "note": 68,
      "start": 61.2105,
      "duration": 0.0921,
      "velocity": 127,
      "chip": "ym2612"
    },
    {
      "channel": 5,
      "note": 68,
      "start": 61.3026,
      "duration": 0.0929,
      "velocity": 127,
      "chip": "ym2612"
    },
    {
      "channel": 5,
      "note": 68,
      "start": 61.3956,
      "duration": 0.093,
      "velocity": 127,
      "chip": "ym2612"
    },
    {
      "channel": 5,
      "note": 68,
      "start": 61.4886,
      "duration": 0.0929,
      "velocity": 127,
      "chip": "ym2612"
    },
    {
      "channel": 5,
      "note": 68,
      "start": 61.5816,
      "duration": 0.0926,
      "velocity": 127,
      "chip": "ym2612"
    },
    {
      "channel": 5,
      "note": 68,
      "start": 61.6741,
      "duration": 0.0931,
      "velocity": 127,
      "chip": "ym2612"
    },
    {
      "channel": 2,
      "note": 54,
      "start": 61.7666,
      "duration": 0.2164,
      "velocity": 104,
      "chip": "ym2612"
    },
    {
      "channel": 5,
      "note": 68,
      "start": 61.7672,
      "duration": 0.0926,
      "velocity": 127,
      "chip": "ym2612"
    },
    {
      "channel": 5,
      "note": 68,
      "start": 61.8598,
      "duration": 0.0927,
      "velocity": 127,
      "chip": "ym2612"
    },
    {
      "channel": 5,
      "note": 68,
      "start": 61.9525,
      "duration": 0.0929,
      "velocity": 127,
      "chip": "ym2612"
    },
    {
      "channel": 5,
      "note": 68,
      "start": 62.0456,
      "duration": 0.0927,
      "velocity": 127,
      "chip": "ym2612"
    },
    {
      "channel": 5,
      "note": 68,
      "start": 62.1382,
      "duration": 0.0927,
      "velocity": 127,
      "chip": "ym2612"
    },
    {
      "channel": 2,
      "note": 54,
      "start": 62.1841,
      "duration": 0.0772,
      "velocity": 104,
      "chip": "ym2612"
    },
    {
      "channel": 5,
      "note": 68,
      "start": 62.231,
      "duration": 0.0952,
      "velocity": 127,
      "chip": "ym2612"
    },
    {
      "channel": 1,
      "note": 68,
      "start": 62.3253,
      "duration": 0.1372,
      "velocity": 127,
      "chip": "ym2612"
    },
    {
      "channel": 2,
      "note": 59,
      "start": 62.3255,
      "duration": 0.2763,
      "velocity": 104,
      "chip": "ym2612"
    },
    {
      "channel": 1,
      "note": 68,
      "start": 62.6017,
      "duration": 0.1388,
      "velocity": 127,
      "chip": "ym2612"
    },
    {
      "channel": 1,
      "note": 68,
      "start": 62.7406,
      "duration": 0.1394,
      "velocity": 127,
      "chip": "ym2612"
    },
    {
      "channel": 1,
      "note": 68,
      "start": 62.88,
      "duration": 0.1389,
      "velocity": 127,
      "chip": "ym2612"
    },
    {
      "channel": 2,
      "note": 54,
      "start": 62.8803,
      "duration": 0.278,
      "velocity": 104,
      "chip": "ym2612"
    },
    {
      "channel": 1,
      "note": 68,
      "start": 63.1582,
      "duration": 0.1393,
      "velocity": 127,
      "chip": "ym2612"
    },
    {
      "channel": 1,
      "note": 68,
      "start": 63.2975,
      "duration": 0.1392,
      "velocity": 127,
      "chip": "ym2612"
    },
    {
      "channel": 1,
      "note": 68,
      "start": 63.4367,
      "duration": 0.1391,
      "velocity": 127,
      "chip": "ym2612"
    },
    {
      "channel": 2,
      "note": 59,
      "start": 63.437,
      "duration": 0.2784,
      "velocity": 104,
      "chip": "ym2612"
    },
    {
      "channel": 1,
      "note": 68,
      "start": 63.7153,
      "duration": 0.1391,
      "velocity": 127,
      "chip": "ym2612"
    },
    {
      "channel": 1,
      "note": 68,
      "start": 63.8544,
      "duration": 0.1392,
      "velocity": 127,
      "chip": "ym2612"
    },
    {
      "channel": 1,
      "note": 68,
      "start": 63.9937,
      "duration": 0.139,
      "velocity": 127,
      "chip": "ym2612"
    },
    {
      "channel": 2,
      "note": 54,
      "start": 63.994,
      "duration": 0.1389,
      "velocity": 104,
      "chip": "ym2612"
    },
    {
      "channel": 1,
      "note": 68,
      "start": 64.1327,
      "duration": 0.1393,
      "velocity": 127,
      "chip": "ym2612"
    },
    {
      "channel": 1,
      "note": 68,
      "start": 64.2722,
      "duration": 0.139,
      "velocity": 127,
      "chip": "ym2612"
    },
    {
      "channel": 2,
      "note": 54,
      "start": 64.2724,
      "duration": 0.139,
      "velocity": 104,
      "chip": "ym2612"
    },
    {
      "channel": 1,
      "note": 68,
      "start": 64.4112,
      "duration": 0.1391,
      "velocity": 127,
      "chip": "ym2612"
    },
    {
      "channel": 1,
      "note": 68,
      "start": 64.5505,
      "duration": 0.1392,
      "velocity": 127,
      "chip": "ym2612"
    },
    {
      "channel": 2,
      "note": 59,
      "start": 64.5507,
      "duration": 0.2784,
      "velocity": 104,
      "chip": "ym2612"
    },
    {
      "channel": 1,
      "note": 68,
      "start": 64.829,
      "duration": 0.1391,
      "velocity": 127,
      "chip": "ym2612"
    },
    {
      "channel": 1,
      "note": 68,
      "start": 64.9682,
      "duration": 0.1394,
      "velocity": 127,
      "chip": "ym2612"
    },
    {
      "channel": 1,
      "note": 68,
      "start": 65.1075,
      "duration": 0.1389,
      "velocity": 127,
      "chip": "ym2612"
    },
    {
      "channel": 2,
      "note": 54,
      "start": 65.1078,
      "duration": 0.2782,
      "velocity": 104,
      "chip": "ym2612"
    },
    {
      "channel": 1,
      "note": 68,
      "start": 65.3859,
      "duration": 0.139,
      "velocity": 127,
      "chip": "ym2612"
    },
    {
      "channel": 1,
      "note": 68,
      "start": 65.5251,
      "duration": 0.1395,
      "velocity": 127,
      "chip": "ym2612"
    },
    {
      "channel": 1,
      "note": 68,
      "start": 65.6646,
      "duration": 0.1391,
      "velocity": 127,
      "chip": "ym2612"
    },
    {
      "channel": 2,
      "note": 59,
      "start": 65.6649,
      "duration": 0.2782,
      "velocity": 104,
      "chip": "ym2612"
    },
    {
      "channel": 1,
      "note": 68,
      "start": 65.943,
      "duration": 0.1393,
      "velocity": 127,
      "chip": "ym2612"
    },
    {
      "channel": 1,
      "note": 68,
      "start": 66.0824,
      "duration": 0.1389,
      "velocity": 127,
      "chip": "ym2612"
    },
    {
      "channel": 1,
      "note": 68,
      "start": 66.2214,
      "duration": 0.0926,
      "velocity": 127,
      "chip": "ym2612"
    },
    {
      "channel": 2,
      "note": 54,
      "start": 66.2217,
      "duration": 0.1389,
      "velocity": 104,
      "chip": "ym2612"
    },
    {
      "channel": 1,
      "note": 68,
      "start": 66.3141,
      "duration": 0.0927,
      "velocity": 127,
      "chip": "ym2612"
    },
    {
      "channel": 1,
      "note": 68,
      "start": 66.4069,
      "duration": 0.0928,
      "velocity": 127,
      "chip": "ym2612"
    },
    {
      "channel": 1,
      "note": 68,
      "start": 66.4998,
      "duration": 0.0927,
      "velocity": 127,
      "chip": "ym2612"
    },
    {
      "channel": 2,
      "note": 54,
      "start": 66.5,
      "duration": 0.1388,
      "velocity": 104,
      "chip": "ym2612"
    },
    {
      "channel": 1,
      "note": 68,
      "start": 66.5926,
      "duration": 0.0928,
      "velocity": 127,
      "chip": "ym2612"
    },
    {
      "channel": 1,
      "note": 68,
      "start": 66.6855,
      "duration": 0.0929,
      "velocity": 127,
      "chip": "ym2612"
    },
    {
      "channel": 1,
      "note": 68,
      "start": 66.7785,
      "duration": 0.1391,
      "velocity": 127,
      "chip": "ym2612"
    },
    {
      "channel": 2,
      "note": 59,
      "start": 66.7788,
      "duration": 0.2782,
      "velocity": 104,
      "chip": "ym2612"
    },
    {
      "channel": 1,
      "note": 68,
      "start": 67.0569,
      "duration": 0.1391,
      "velocity": 127,
      "chip": "ym2612"
    },
    {
      "channel": 1,
      "note": 68,
      "start": 67.1961,
      "duration": 0.1392,
      "velocity": 127,
      "chip": "ym2612"
    },
    {
      "channel": 1,
      "note": 68,
      "start": 67.3354,
      "duration": 0.139,
      "velocity": 127,
      "chip": "ym2612"
    },
    {
      "channel": 2,
      "note": 54,
      "start": 67.3356,
      "duration": 0.2784,
      "velocity": 104,
      "chip": "ym2612"
    },
    {
      "channel": 1,
      "note": 68,
      "start": 67.6139,
      "duration": 0.1389,
      "velocity": 127,
      "chip": "ym2612"
    },
    {
      "channel": 1,
      "note": 68,
      "start": 67.7529,
      "duration": 0.1397,
      "velocity": 127,
      "chip": "ym2612"
    },
    {
      "channel": 1,
      "note": 68,
      "start": 67.8925,
      "duration": 0.1388,
      "velocity": 127,
      "chip": "ym2612"
    },
    {
      "channel": 2,
      "note": 59,
      "start": 67.8929,
      "duration": 0.2784,
      "velocity": 104,
      "chip": "ym2612"
    },
    {
      "channel": 1,
      "note": 68,
      "start": 68.1711,
      "duration": 0.1391,
      "velocity": 127,
      "chip": "ym2612"
    },
    {
      "channel": 1,
      "note": 68,
      "start": 68.3103,
      "duration": 0.139,
      "velocity": 127,
      "chip": "ym2612"
    },
    {
      "channel": 1,
      "note": 68,
      "start": 68.4494,
      "duration": 0.1393,
      "velocity": 127,
      "chip": "ym2612"
    },
    {
      "channel": 2,
      "note": 54,
      "start": 68.4498,
      "duration": 0.1391,
      "velocity": 104,
      "chip": "ym2612"
    },
    {
      "channel": 1,
      "note": 68,
      "start": 68.5887,
      "duration": 0.139,
      "velocity": 127,
      "chip": "ym2612"
    },
    {
      "channel": 1,
      "note": 68,
      "start": 68.7277,
      "duration": 0.1392,
      "velocity": 127,
      "chip": "ym2612"
    },
    {
      "channel": 2,
      "note": 54,
      "start": 68.7279,
      "duration": 0.1392,
      "velocity": 104,
      "chip": "ym2612"
    },
    {
      "channel": 1,
      "note": 68,
      "start": 68.867,
      "duration": 0.1394,
      "velocity": 127,
      "chip": "ym2612"
    },
    {
      "channel": 1,
      "note": 68,
      "start": 69.0064,
      "duration": 0.1389,
      "velocity": 127,
      "chip": "ym2612"
    },
    {
      "channel": 2,
      "note": 59,
      "start": 69.0067,
      "duration": 0.2783,
      "velocity": 104,
      "chip": "ym2612"
    },
    {
      "channel": 1,
      "note": 68,
      "start": 69.2849,
      "duration": 0.1389,
      "velocity": 127,
      "chip": "ym2612"
    },
    {
      "channel": 1,
      "note": 68,
      "start": 69.4238,
      "duration": 0.1394,
      "velocity": 127,
      "chip": "ym2612"
    },
    {
      "channel": 1,
      "note": 68,
      "start": 69.5632,
      "duration": 0.1392,
      "velocity": 127,
      "chip": "ym2612"
    },
    {
      "channel": 2,
      "note": 54,
      "start": 69.5635,
      "duration": 0.2781,
      "velocity": 104,
      "chip": "ym2612"
    },
    {
      "channel": 1,
      "note": 68,
      "start": 69.8416,
      "duration": 0.1393,
      "velocity": 127,
      "chip": "ym2612"
    },
    {
      "channel": 1,
      "note": 68,
      "start": 69.981,
      "duration": 0.139,
      "velocity": 127,
      "chip": "ym2612"
    },
    {
      "channel": 1,
      "note": 68,
      "start": 70.1201,
      "duration": 0.1386,
      "velocity": 127,
      "chip": "ym2612"
    },
    {
      "channel": 2,
      "note": 59,
      "start": 70.1204,
      "duration": 0.2783,
      "velocity": 104,
      "chip": "ym2612"
    },
    {
      "channel": 1,
      "note": 68,
      "start": 70.3985,
      "duration": 0.1391,
      "velocity": 127,
      "chip": "ym2612"
    },
    {
      "channel": 1,
      "note": 68,
      "start": 70.5376,
      "duration": 0.1393,
      "velocity": 127,
      "chip": "ym2612"
    },
    {
      "channel": 1,
      "note": 68,
      "start": 70.677,
      "duration": 0.0927,
      "velocity": 127,
      "chip": "ym2612"
    },
    {
      "channel": 2,
      "note": 54,
      "start": 70.6774,
      "duration": 0.1388,
      "velocity": 104,
      "chip": "ym2612"
    },
    {
      "channel": 3,
      "note": 54,
      "start": 70.6796,
      "duration": 0.5082,
      "velocity": 112,
      "chip": "ym2612"
    },
    {
      "channel": 1,
      "note": 68,
      "start": 70.7698,
      "duration": 0.0927,
      "velocity": 127,
      "chip": "ym2612"
    },
    {
      "channel": 4,
      "note": 54,
      "start": 70.8166,
      "duration": 0.5101,
      "velocity": 112,
      "chip": "ym2612"
    },
    {
      "channel": 1,
      "note": 68,
      "start": 70.8625,
      "duration": 0.0929,
      "velocity": 127,
      "chip": "ym2612"
    },
    {
      "channel": 1,
      "note": 68,
      "start": 70.9555,
      "duration": 0.0464,
      "velocity": 127,
      "chip": "ym2612"
    },
    {
      "channel": 2,
      "note": 54,
      "start": 70.9556,
      "duration": 0.1394,
      "velocity": 104,
      "chip": "ym2612"
    },
    {
      "channel": 1,
      "note": 68,
      "start": 71.002,
      "duration": 0.0463,
      "velocity": 127,
      "chip": "ym2612"
    },
    {
      "channel": 1,
      "note": 68,
      "start": 71.0484,
      "duration": 0.0464,
      "velocity": 127,
      "chip": "ym2612"
    },
    {
      "channel": 1,
      "note": 68,
      "start": 71.0949,
      "duration": 0.0463,
      "velocity": 127,
      "chip": "ym2612"
    },
    {
      "channel": 1,
      "note": 68,
      "start": 71.1413,
      "duration": 0.0462,
      "velocity": 127,
      "chip": "ym2612"
    },
    {
      "channel": 1,
      "note": 68,
      "start": 71.1876,
      "duration": 0.0489,
      "velocity": 1,
      "chip": "ym2612"
    },
    {
      "channel": 0,
      "note": 50,
      "start": 71.2359,
      "duration": 2.1798,
      "velocity": 105,
      "chip": "ym2612"
    },
    {
      "channel": 1,
      "note": 54,
      "start": 71.2378,
      "duration": 2.1781,
      "velocity": 105,
      "chip": "ym2612"
    },
    {
      "channel": 2,
      "note": 59,
      "start": 71.238,
      "duration": 0.274,
      "velocity": 104,
      "chip": "ym2612"
    },
    {
      "channel": 3,
      "note": 59,
      "start": 71.2383,
      "duration": 0.2273,
      "velocity": 112,
      "chip": "ym2612"
    },
    {
      "channel": 5,
      "note": 68,
      "start": 71.2386,
      "duration": 0.1348,
      "velocity": 127,
      "chip": "ym2612"
    },
    {
      "channel": 4,
      "note": 59,
      "start": 71.3732,
      "duration": 0.232,
      "velocity": 112,
      "chip": "ym2612"
    },
    {
      "channel": 3,
      "note": 61,
      "start": 71.5124,
      "duration": 0.0926,
      "velocity": 112,
      "chip": "ym2612"
    },
    {
      "channel": 5,
      "note": 68,
      "start": 71.5127,
      "duration": 0.1391,
      "velocity": 127,
      "chip": "ym2612"
    },
    {
      "channel": 3,
      "note": 59,
      "start": 71.6515,
      "duration": 0.0929,
      "velocity": 112,
      "chip": "ym2612"
    },
    {
      "channel": 4,
      "note": 61,
      "start": 71.6517,
      "duration": 0.0927,
      "velocity": 112,
      "chip": "ym2612"
    },
    {
      "channel": 5,
      "note": 68,
      "start": 71.652,
      "duration": 0.1399,
      "velocity": 127,
      "chip": "ym2612"
    },
    {
      "channel": 2,
      "note": 54,
      "start": 71.791,
      "duration": 0.2784,
      "velocity": 104,
      "chip": "ym2612"
    },
    {
      "channel": 3,
      "note": 54,
      "start": 71.7913,
      "duration": 0.7884,
      "velocity": 112,
      "chip": "ym2612"
    },
    {
      "channel": 4,
      "note": 59,
      "start": 71.7916,
      "duration": 0.0923,
      "velocity": 112,
      "chip": "ym2612"
    },
    {
      "channel": 5,
      "note": 68,
      "start": 71.7919,
      "duration": 0.1387,
      "velocity": 127,
      "chip": "ym2612"
    },
    {
      "channel": 4,
      "note": 54,
      "start": 71.9304,
      "duration": 0.7893,
      "velocity": 112,
      "chip": "ym2612"
    },
    {
      "channel": 5,
      "note": 68,
      "start": 72.0698,
      "duration": 0.1392,
      "velocity": 127,
      "chip": "ym2612"
    },
    {
      "channel": 5,
      "note": 68,
      "start": 72.2091,
      "duration": 0.1396,
      "velocity": 127,
      "chip": "ym2612"
    },
    {
      "channel": 2,
      "note": 59,
      "start": 72.3481,
      "duration": 0.2785,
      "velocity": 104,
      "chip": "ym2612"
    },
    {
      "channel": 5,
      "note": 68,
      "start": 72.3487,
      "duration": 0.1388,
      "velocity": 127,
      "chip": "ym2612"
    },
    {
      "channel": 3,
      "note": 54,
      "start": 72.6269,
      "duration": 0.2317,
      "velocity": 112,
      "chip": "ym2612"
    },
    {
      "channel": 5,
      "note": 68,
      "start": 72.6273,
      "duration": 0.1386,
      "velocity": 127,
      "chip": "ym2612"
    },
    {
      "channel": 4,
      "note": 54,
      "start": 72.7658,
      "duration": 0.2325,
      "velocity": 112,
      "chip": "ym2612"
    },
    {
      "channel": 5,
      "note": 68,
      "start": 72.7661,
      "duration": 0.1399,
      "velocity": 127,
      "chip": "ym2612"
    },
    {
      "channel": 2,
      "note": 54,
      "start": 72.9054,
      "duration": 0.1392,
      "velocity": 104,
      "chip": "ym2612"
    },
    {
      "channel": 3,
      "note": 59,
      "start": 72.9057,
      "duration": 0.2315,
      "velocity": 112,
      "chip": "ym2612"
    },
    {
      "channel": 5,
      "note": 68,
      "start": 72.906,
      "duration": 0.1392,
      "velocity": 127,
      "chip": "ym2612"
    },
    {
      "channel": 4,
      "note": 59,
      "start": 73.045,
      "duration": 0.2318,
      "velocity": 112,
      "chip": "ym2612"
    },
    {
      "channel": 5,
      "note": 68,
      "start": 73.0452,
      "duration": 0.1392,
      "velocity": 127,
      "chip": "ym2612"
    },
    {
      "channel": 2,
      "note": 54,
      "start": 73.1839,
      "duration": 0.1389,
      "velocity": 104,
      "chip": "ym2612"
    },
    {
      "channel": 3,
      "note": 61,
      "start": 73.1842,
      "duration": 0.0925,
      "velocity": 112,
      "chip": "ym2612"
    },
    {
      "channel": 5,
      "note": 68,
      "start": 73.1845,
      "duration": 0.1392,
      "velocity": 127,
      "chip": "ym2612"
    },
    {
      "channel": 3,
      "note": 62,
      "start": 73.3231,
      "duration": 0.093,
      "velocity": 112,
      "chip": "ym2612"
    },
    {
      "channel": 4,
      "note": 61,
      "start": 73.3235,
      "duration": 0.0928,
      "velocity": 112,
      "chip": "ym2612"
    },
    {
      "channel": 5,
      "note": 68,
      "start": 73.3238,
      "duration": 0.1395,
      "velocity": 127,
      "chip": "ym2612"
    },
    {
      "channel": 0,
      "note": 52,
      "start": 73.462,
      "duration": 0.2318,
      "velocity": 105,
      "chip": "ym2612"
    },
    {
      "channel": 1,
      "note": 56,
      "start": 73.4622,
      "duration": 0.2318,
      "velocity": 105,
      "chip": "ym2612"
    },
    {
      "channel": 2,
      "note": 52,
      "start": 73.4624,
      "duration": 0.2783,
      "velocity": 104,
      "chip": "ym2612"
    },
    {
      "channel": 3,
      "note": 64,
      "start": 73.4628,
      "duration": 1.6399,
      "velocity": 112,
      "chip": "ym2612"
    },
    {
      "channel": 4,
      "note": 62,
      "start": 73.463,
      "duration": 0.0916,
      "velocity": 112,
      "chip": "ym2612"
    },
    {
      "channel": 5,
      "note": 68,
      "start": 73.4633,
      "duration": 0.1384,
      "velocity": 127,
      "chip": "ym2612"
    },
    {
      "channel": 4,
      "note": 64,
      "start": 73.6015,
      "duration": 1.6408,
      "velocity": 112,
      "chip": "ym2612"
    },
    {
      "channel": 0,
      "note": 52,
      "start": 73.7405,
      "duration": 0.0463,
      "velocity": 105,
      "chip": "ym2612"
    },
    {
      "channel": 1,
      "note": 56,
      "start": 73.7406,
      "duration": 0.0463,
      "velocity": 105,
      "chip": "ym2612"
    },
    {
      "channel": 5,
      "note": 68,
      "start": 73.7412,
      "duration": 0.1391,
      "velocity": 127,
      "chip": "ym2612"
    },
    {
      "channel": 0,
      "note": 52,
      "start": 73.8334,
      "duration": 0.0462,
      "velocity": 105,
      "chip": "ym2612"
    },
    {
      "channel": 1,
      "note": 56,
      "start": 73.8336,
      "duration": 0.0462,
      "velocity": 105,
      "chip": "ym2612"
    },
    {
      "channel": 5,
      "note": 68,
      "start": 73.8803,
      "duration": 0.1405,
      "velocity": 127,
      "chip": "ym2612"
    },
    {
      "channel": 0,
      "note": 50,
      "start": 73.9265,
      "duration": 0.0462,
      "velocity": 105,
      "chip": "ym2612"
    },
    {
      "channel": 1,
      "note": 54,
      "start": 73.9268,
      "duration": 0.0461,
      "velocity": 105,
      "chip": "ym2612"
    },
    {
      "channel": 0,
      "note": 52,
      "start": 74.0196,
      "duration": 0.8039,
      "velocity": 105,
      "chip": "ym2612"
    },
    {
      "channel": 1,
      "note": 56,
      "start": 74.02,
      "duration": 0.8038,
      "velocity": 105,
      "chip": "ym2612"
    },
    {
      "channel": 2,
      "note": 59,
      "start": 74.0202,
      "duration": 0.2931,
      "velocity": 104,
      "chip": "ym2612"
    },
    {
      "channel": 5,
      "note": 68,
      "start": 74.0208,
      "duration": 0.1539,
      "velocity": 127,
      "chip": "ym2612"
    },
    {
      "channel": 5,
      "note": 68,
      "start": 74.314,
      "duration": 0.1391,
      "velocity": 127,
      "chip": "ym2612"
    },
    {
      "channel": 5,
      "note": 68,
      "start": 74.4532,
      "duration": 0.1395,
      "velocity": 127,
      "chip": "ym2612"
    },
    {
      "channel": 2,
      "note": 52,
      "start": 74.592,
      "duration": 0.2785,
      "velocity": 104,
      "chip": "ym2612"
    },
    {
      "channel": 5,
      "note": 68,
      "start": 74.5926,
      "duration": 0.1388,
      "velocity": 127,
      "chip": "ym2612"
    },
    {
      "channel": 0,
      "note": 52,
      "start": 74.8702,
      "duration": 0.0463,
      "velocity": 105,
      "chip": "ym2612"
    },
    {
      "channel": 1,
      "note": 56,
      "start": 74.8704,
      "duration": 0.0463,
      "velocity": 105,
      "chip": "ym2612"
    },
    {
      "channel": 5,
      "note": 68,
      "start": 74.8712,
      "duration": 0.139,
      "velocity": 127,
      "chip": "ym2612"
    },
    {
      "channel": 0,
      "note": 52,
      "start": 74.9633,
      "duration": 0.0462,
      "velocity": 105,
      "chip": "ym2612"
    },
    {
      "channel": 1,
      "note": 56,
      "start": 74.9635,
      "duration": 0.0461,
      "velocity": 105,
      "chip": "ym2612"
    },
    {
      "channel": 5,
      "note": 68,
      "start": 75.0102,
      "duration": 0.1401,
      "velocity": 127,
      "chip": "ym2612"
    },
    {
      "channel": 0,
      "note": 50,
      "start": 75.0563,
      "duration": 0.046,
      "velocity": 105,
      "chip": "ym2612"
    },
    {
      "channel": 1,
      "note": 54,
      "start": 75.0565,
      "duration": 0.0459,
      "velocity": 105,
      "chip": "ym2612"
    },
    {
      "channel": 0,
      "note": 52,
      "start": 75.149,
      "duration": 0.5107,
      "velocity": 105,
      "chip": "ym2612"
    },
    {
      "channel": 1,
      "note": 56,
      "start": 75.1494,
      "duration": 0.5106,
      "velocity": 105,
      "chip": "ym2612"
    },
    {
      "channel": 2,
      "note": 56,
      "start": 75.1496,
      "duration": 0.1387,
      "velocity": 104,
      "chip": "ym2612"
    },
    {
      "channel": 5,
      "note": 68,
      "start": 75.1503,
      "duration": 0.0923,
      "velocity": 127,
      "chip": "ym2612"
    },
    {
      "channel": 5,
      "note": 68,
      "start": 75.2427,
      "duration": 0.0925,
      "velocity": 127,
      "chip": "ym2612"
    },
    {
      "channel": 5,
      "note": 68,
      "start": 75.3353,
      "duration": 0.0929,
      "velocity": 127,
      "chip": "ym2612"
    },
    {
      "channel": 2,
      "note": 56,
      "start": 75.4275,
      "duration": 0.1393,
      "velocity": 104,
      "chip": "ym2612"
    },
    {
      "channel": 3,
      "note": 59,
      "start": 75.4278,
      "duration": 0.2322,
      "velocity": 112,
      "chip": "ym2612"
    },
    {
      "channel": 5,
      "note": 68,
      "start": 75.4283,
      "duration": 0.0924,
      "velocity": 127,
      "chip": "ym2612"
    },
    {
      "channel": 5,
      "note": 68,
      "start": 75.5207,
      "duration": 0.0931,
      "velocity": 127,
      "chip": "ym2612"
    },
    {
      "channel": 4,
      "note": 59,
      "start": 75.5672,
      "duration": 0.2316,
      "velocity": 112,
      "chip": "ym2612"
    },
    {
      "channel": 5,
      "note": 68,
      "start": 75.6138,
      "duration": 0.0934,
      "velocity": 127,
      "chip": "ym2612"
    },
    {
      "channel": 0,
      "note": 50,
      "start": 75.706,
      "duration": 1.0682,
      "velocity": 105,
      "chip": "ym2612"
    },
    {
      "channel": 1,
      "note": 54,
      "start": 75.7062,
      "duration": 1.0682,
      "velocity": 105,
      "chip": "ym2612"
    },
    {
      "channel": 2,
      "note": 59,
      "start": 75.7065,
      "duration": 0.2778,
      "velocity": 104,
      "chip": "ym2612"
    },
    {
      "channel": 3,
      "note": 66,
      "start": 75.7068,
      "duration": 0.2311,
      "velocity": 112,
      "chip": "ym2612"
    },
    {
      "channel": 5,
      "note": 68,
      "start": 75.7072,
      "duration": 0.1385,
      "velocity": 127,
      "chip": "ym2612"
    },
    {
      "channel": 4,
      "note": 66,
      "start": 75.8455,
      "duration": 0.232,
      "velocity": 112,
      "chip": "ym2612"
    },
    {
      "channel": 3,
      "note": 69,
      "start": 75.9846,
      "duration": 0.0928,
      "velocity": 112,
      "chip": "ym2612"
    },
    {
      "channel": 5,
      "note": 68,
      "start": 75.985,
      "duration": 0.1394,
      "velocity": 127,
      "chip": "ym2612"
    },
    {
      "channel": 3,
      "note": 68,
      "start": 76.1239,
      "duration": 0.093,
      "velocity": 112,
      "chip": "ym2612"
    },
    {
      "channel": 4,
      "note": 69,
      "start": 76.1242,
      "duration": 0.0928,
      "velocity": 112,
      "chip": "ym2612"
    },
    {
      "channel": 5,
      "note": 68,
      "start": 76.1244,
      "duration": 0.1401,
      "velocity": 127,
      "chip": "ym2612"
    },
    {
      "channel": 2,
      "note": 54,
      "start": 76.2637,
      "duration": 0.2783,
      "velocity": 104,
      "chip": "ym2612"
    },
    {
      "channel": 3,
      "note": 66,
      "start": 76.2639,
      "duration": 0.2315,
      "velocity": 112,
      "chip": "ym2612"
    },
    {
      "channel": 4,
      "note": 68,
      "start": 76.2642,
      "duration": 0.0924,
      "velocity": 112,
      "chip": "ym2612"
    },
    {
      "channel": 5,
      "note": 68,
      "start": 76.2646,
      "duration": 0.1385,
      "velocity": 127,
      "chip": "ym2612"
    },
    {
      "channel": 4,
      "note": 66,
      "start": 76.4029,
      "duration": 0.2321,
      "velocity": 112,
      "chip": "ym2612"
    },
    {
      "channel": 3,
      "note": 62,
      "start": 76.5422,
      "duration": 0.2322,
      "velocity": 112,
      "chip": "ym2612"
    },
    {
      "channel": 5,
      "note": 68,
      "start": 76.5427,
      "duration": 0.1389,
      "velocity": 127,
      "chip": "ym2612"
    },
    {
      "channel": 4,
      "note": 62,
      "start": 76.6815,
      "duration": 0.2319,
      "velocity": 112,
      "chip": "ym2612"
    },
    {
      "channel": 5,
      "note": 68,
      "start": 76.6817,
      "duration": 0.14,
      "velocity": 127,
      "chip": "ym2612"
    },
    {
      "channel": 0,
      "note": 49,
      "start": 76.8205,
      "duration": 1.0687,
      "velocity": 105,
      "chip": "ym2612"
    },
    {
      "channel": 1,
      "note": 55,
      "start": 76.8207,
      "duration": 1.0687,
      "velocity": 105,
      "chip": "ym2612"
    },
    {
      "channel": 2,
      "note": 57,
      "start": 76.821,
      "duration": 0.2782,
      "velocity": 104,
      "chip": "ym2612"
    },
    {
      "channel": 3,
      "note": 64,
      "start": 76.8213,
      "duration": 0.3708,
      "velocity": 112,
      "chip": "ym2612"
    },
    {
      "channel": 5,
      "note": 68,
      "start": 76.8217,
      "duration": 0.1387,
      "velocity": 127,
      "chip": "ym2612"
    },
    {
      "channel": 4,
      "note": 64,
      "start": 76.9602,
      "duration": 0.3717,
      "velocity": 112,
      "chip": "ym2612"
    },
    {
      "channel": 5,
      "note": 68,
      "start": 77.0997,
      "duration": 0.1396,
      "velocity": 127,
      "chip": "ym2612"
    },
    {
      "channel": 3,
      "note": 62,
      "start": 77.239,
      "duration": 0.0929,
      "velocity": 112,
      "chip": "ym2612"
    },
    {
      "channel": 5,
      "note": 68,
      "start": 77.2393,
      "duration": 0.14,
      "velocity": 127,
      "chip": "ym2612"
    },
    {
      "channel": 2,
      "note": 52,
      "start": 77.3785,
      "duration": 0.2789,
      "velocity": 104,
      "chip": "ym2612"
    },
    {
      "channel": 3,
      "note": 64,
      "start": 77.3788,
      "duration": 0.2316,
      "velocity": 112,
      "chip": "ym2612"
    },
    {
      "channel": 4,
      "note": 62,
      "start": 77.3791,
      "duration": 0.0924,
      "velocity": 112,
      "chip": "ym2612"
    },
    {
      "channel": 5,
      "note": 68,
      "start": 77.3795,
      "duration": 0.1388,
      "velocity": 127,
      "chip": "ym2612"
    },
    {
      "channel": 4,
      "note": 64,
      "start": 77.518,
      "duration": 0.2323,
      "velocity": 112,
      "chip": "ym2612"
    },
    {
      "channel": 5,
      "note": 68,
      "start": 77.5184,
      "duration": 0.1395,
      "velocity": 127,
      "chip": "ym2612"
    },
    {
      "channel": 3,
      "note": 66,
      "start": 77.6576,
      "duration": 0.232,
      "velocity": 112,
      "chip": "ym2612"
    },
    {
      "channel": 5,
      "note": 68,
      "start": 77.6579,
      "duration": 0.139,
      "velocity": 127,
      "chip": "ym2612"
    },
    {
      "channel": 4,
      "note": 66,
      "start": 77.7966,
      "duration": 0.2322,
      "velocity": 112,
      "chip": "ym2612"
    },
    {
      "channel": 5,
      "note": 68,
      "start": 77.797,
      "duration": 0.1399,
      "velocity": 127,
      "chip": "ym2612"
    },
    {
      "channel": 0,
      "note": 50,
      "start": 77.9357,
      "duration": 1.068,
      "velocity": 105,
      "chip": "ym2612"
    },
    {
      "channel": 1,
      "note": 54,
      "start": 77.936,
      "duration": 1.068,
      "velocity": 105,
      "chip": "ym2612"
    },
    {
      "channel": 2,
      "note": 55,
      "start": 77.9363,
      "duration": 0.2779,
      "velocity": 104,
      "chip": "ym2612"
    },
    {
      "channel": 3,
      "note": 62,
      "start": 77.9366,
      "duration": 0.092,
      "velocity": 112,
      "chip": "ym2612"
    },
    {
      "channel": 5,
      "note": 68,
      "start": 77.937,
      "duration": 0.1389,
      "velocity": 127,
      "chip": "ym2612"
    },
    {
      "channel": 3,
      "note": 61,
      "start": 78.0754,
      "duration": 0.0927,
      "velocity": 112,
      "chip": "ym2612"
    },
    {
      "channel": 4,
      "note": 62,
      "start": 78.0757,
      "duration": 0.0926,
      "velocity": 112,
      "chip": "ym2612"
    },
    {
      "channel": 3,
      "note": 62,
      "start": 78.2146,
      "duration": 0.5107,
      "velocity": 112,
      "chip": "ym2612"
    },
    {
      "channel": 4,
      "note": 61,
      "start": 78.2148,
      "duration": 0.0925,
      "velocity": 112,
      "chip": "ym2612"
    },
    {
      "channel": 5,
      "note": 68,
      "start": 78.2151,
      "duration": 0.1392,
      "velocity": 127,
      "chip": "ym2612"
    },
    {
      "channel": 4,
      "note": 62,
      "start": 78.3541,
      "duration": 0.511,
      "velocity": 112,
      "chip": "ym2612"
    },
    {
      "channel": 5,
      "note": 68,
      "start": 78.3544,
      "duration": 0.1395,
      "velocity": 127,
      "chip": "ym2612"
    },
    {
      "channel": 2,
      "note": 50,
      "start": 78.4934,
      "duration": 0.2787,
      "velocity": 104,
      "chip": "ym2612"
    },
    {
      "channel": 5,
      "note": 68,
      "start": 78.4939,
      "duration": 0.1389,
      "velocity": 127,
      "chip": "ym2612"
    },
    {
      "channel": 3,
      "note": 64,
      "start": 78.7723,
      "duration": 0.2318,
      "velocity": 112,
      "chip": "ym2612"
    },
    {
      "channel": 5,
      "note": 68,
      "start": 78.7728,
      "duration": 0.1385,
      "velocity": 127,
      "chip": "ym2612"
    },
    {
      "channel": 4,
      "note": 64,
      "start": 78.9111,
      "duration": 0.2321,
      "velocity": 112,
      "chip": "ym2612"
    },
    {
      "channel": 5,
      "note": 68,
      "start": 78.9114,
      "duration": 0.1401,
      "velocity": 127,
      "chip": "ym2612"
    },
    {
      "channel": 0,
      "note": 49,
      "start": 79.0503,
      "duration": 1.068,
      "velocity": 105,
      "chip": "ym2612"
    },
    {
      "channel": 1,
      "note": 52,
      "start": 79.0506,
      "duration": 1.0679,
      "velocity": 105,
      "chip": "ym2612"
    },
    {
      "channel": 2,
      "note": 54,
      "start": 79.0508,
      "duration": 0.2781,
      "velocity": 104,
      "chip": "ym2612"
    },
    {
      "channel": 3,
      "note": 61,
      "start": 79.0512,
      "duration": 0.2315,
      "velocity": 112,
      "chip": "ym2612"
    },
    {
      "channel": 5,
      "note": 68,
      "start": 79.0516,
      "duration": 0.1386,
      "velocity": 127,
      "chip": "ym2612"
    },
    {
      "channel": 4,
      "note": 61,
      "start": 79.19,
      "duration": 0.232,
      "velocity": 112,
      "chip": "ym2612"
    },
    {
      "channel": 5,
      "note": 68,
      "start": 79.3295,
      "duration": 0.1395,
      "velocity": 127,
      "chip": "ym2612"
    },
    {
      "channel": 5,
      "note": 68,
      "start": 79.469,
      "duration": 0.1396,
      "velocity": 127,
      "chip": "ym2612"
    },
    {
      "channel": 2,
      "note": 57,
      "start": 79.6079,
      "duration": 0.139,
      "velocity": 104,
      "chip": "ym2612"
    },
    {
      "channel": 3,
      "note": 54,
      "start": 79.6082,
      "duration": 0.5106,
      "velocity": 112,
      "chip": "ym2612"
    },
    {
      "channel": 5,
      "note": 68,
      "start": 79.6087,
      "duration": 0.0923,
      "velocity": 127,
      "chip": "ym2612"
    },
    {
      "channel": 5,
      "note": 68,
      "start": 79.701,
      "duration": 0.0928,
      "velocity": 127,
      "chip": "ym2612"
    },
    {
      "channel": 4,
      "note": 54,
      "start": 79.7473,
      "duration": 0.5108,
      "velocity": 112,
      "chip": "ym2612"
    },
    {
      "channel": 5,
      "note": 68,
      "start": 79.7939,
      "duration": 0.0932,
      "velocity": 127,
      "chip": "ym2612"
    },
    {
      "channel": 2,
      "note": 57,
      "start": 79.8867,
      "duration": 0.1386,
      "velocity": 104,
      "chip": "ym2612"
    },
    {
      "channel": 5,
      "note": 68,
      "start": 79.8871,
      "duration": 0.0459,
      "velocity": 127,
      "chip": "ym2612"
    },
    {
      "channel": 5,
      "note": 68,
      "start": 79.9332,
      "duration": 0.0466,
      "velocity": 127,
      "chip": "ym2612"
    },
    {
      "channel": 5,
      "note": 68,
      "start": 79.9798,
      "duration": 0.046,
      "velocity": 127,
      "chip": "ym2612"
    },
    {
      "channel": 5,
      "note": 68,
      "start": 80.0258,
      "duration": 0.047,
      "velocity": 127,
      "chip": "ym2612"
    },
    {
      "channel": 5,
      "note": 68,
      "start": 80.0729,
      "duration": 0.0462,
      "velocity": 127,
      "chip": "ym2612"
    },
    {
      "channel": 5,
      "note": 68,
      "start": 80.1191,
      "duration": 0.0472,
      "velocity": 127,
      "chip": "ym2612"
    },
    {
      "channel": 0,
      "note": 50,
      "start": 80.165,
      "duration": 2.1825,
      "velocity": 105,
      "chip": "ym2612"
    },
    {
      "channel": 1,
      "note": 54,
      "start": 80.1652,
      "duration": 2.1825,
      "velocity": 105,
      "chip": "ym2612"
    },
    {
      "channel": 2,
      "note": 59,
      "start": 80.1655,
      "duration": 0.2777,
      "velocity": 104,
      "chip": "ym2612"
    },
    {
      "channel": 3,
      "note": 59,
      "start": 80.1658,
      "duration": 0.2314,
      "velocity": 112,
      "chip": "ym2612"
    },
    {
      "channel": 5,
      "note": 68,
      "start": 80.1663,
      "duration": 0.1384,
      "velocity": 127,
      "chip": "ym2612"
    },
    {
      "channel": 4,
      "note": 59,
      "start": 80.3045,
      "duration": 0.2319,
      "velocity": 112,
      "chip": "ym2612"
    },
    {
      "channel": 3,
      "note": 61,
      "start": 80.4436,
      "duration": 0.0927,
      "velocity": 112,
      "chip": "ym2612"
    },
    {
      "channel": 5,
      "note": 68,
      "start": 80.444,
      "duration": 0.1397,
      "velocity": 127,
      "chip": "ym2612"
    },
    {
      "channel": 3,
      "note": 59,
      "start": 80.5832,
      "duration": 0.093,
      "velocity": 112,
      "chip": "ym2612"
    },
    {
      "channel": 4,
      "note": 61,
      "start": 80.5836,
      "duration": 0.0928,
      "velocity": 112,
      "chip": "ym2612"
    },
    {
      "channel": 5,
      "note": 68,
      "start": 80.5837,
      "duration": 0.1398,
      "velocity": 127,
      "chip": "ym2612"
    },
    {
      "channel": 2,
      "note": 54,
      "start": 80.7228,
      "duration": 0.2784,
      "velocity": 104,
      "chip": "ym2612"
    },
    {
      "channel": 3,
      "note": 54,
      "start": 80.7231,
      "duration": 0.7885,
      "velocity": 112,
      "chip": "ym2612"
    },
    {
      "channel": 4,
      "note": 59,
      "start": 80.7233,
      "duration": 0.0922,
      "velocity": 112,
      "chip": "ym2612"
    },
    {
      "channel": 5,
      "note": 68,
      "start": 80.7236,
      "duration": 0.1388,
      "velocity": 127,
      "chip": "ym2612"
    },
    {
      "channel": 4,
      "note": 54,
      "start": 80.8622,
      "duration": 0.7891,
      "velocity": 112,
      "chip": "ym2612"
    },
    {
      "channel": 5,
      "note": 68,
      "start": 81.0016,
      "duration": 0.1391,
      "velocity": 127,
      "chip": "ym2612"
    },
    {
      "channel": 5,
      "note": 68,
      "start": 81.1407,
      "duration": 0.1401,
      "velocity": 127,
      "chip": "ym2612"
    },
    {
      "channel": 2,
      "note": 59,
      "start": 81.2801,
      "duration": 0.2781,
      "velocity": 104,
      "chip": "ym2612"
    },
    {
      "channel": 5,
      "note": 68,
      "start": 81.2808,
      "duration": 0.1387,
      "velocity": 127,
      "chip": "ym2612"
    },
    {
      "channel": 3,
      "note": 54,
      "start": 81.5585,
      "duration": 0.2321,
      "velocity": 112,
      "chip": "ym2612"
    },
    {
      "channel": 5,
      "note": 68,
      "start": 81.559,
      "duration": 0.1389,
      "velocity": 127,
      "chip": "ym2612"
    },
    {
      "channel": 4,
      "note": 54,
      "start": 81.6977,
      "duration": 0.232,
      "velocity": 112,
      "chip": "ym2612"
    },
    {
      "channel": 5,
      "note": 68,
      "start": 81.698,
      "duration": 0.1397,
      "velocity": 127,
      "chip": "ym2612"
    },
    {
      "channel": 2,
      "note": 54,
      "start": 81.8371,
      "duration": 0.1392,
      "velocity": 104,
      "chip": "ym2612"
    },
    {
      "channel": 3,
      "note": 59,
      "start": 81.8373,
      "duration": 0.2317,
      "velocity": 112,
      "chip": "ym2612"
    },
    {
      "channel": 5,
      "note": 68,
      "start": 81.8377,
      "duration": 0.1392,
      "velocity": 127,
      "chip": "ym2612"
    },
    {
      "channel": 4,
      "note": 59,
      "start": 81.9766,
      "duration": 0.2321,
      "velocity": 112,
      "chip": "ym2612"
    },
    {
      "channel": 5,
      "note": 68,
      "start": 81.977,
      "duration": 0.1393,
      "velocity": 127,
      "chip": "ym2612"
    },
    {
      "channel": 2,
      "note": 54,
      "start": 82.1157,
      "duration": 0.1389,
      "velocity": 104,
      "chip": "ym2612"
    },
    {
      "channel": 3,
      "note": 61,
      "start": 82.116,
      "duration": 0.0925,
      "velocity": 112,
      "chip": "ym2612"
    },
    {
      "channel": 5,
      "note": 68,
      "start": 82.1163,
      "duration": 0.1393,
      "velocity": 127,
      "chip": "ym2612"
    },
    {
      "channel": 3,
      "note": 62,
      "start": 82.255,
      "duration": 0.0929,
      "velocity": 112,
      "chip": "ym2612"
    },
    {
      "channel": 4,
      "note": 61,
      "start": 82.2553,
      "duration": 0.0928,
      "velocity": 112,
      "chip": "ym2612"
    },
    {
      "channel": 5,
      "note": 68,
      "start": 82.2557,
      "duration": 0.1397,
      "velocity": 127,
      "chip": "ym2612"
    },
    {
      "channel": 0,
      "note": 52,
      "start": 82.3941,
      "duration": 0.2319,
      "velocity": 105,
      "chip": "ym2612"
    },
    {
      "channel": 1,
      "note": 56,
      "start": 82.3944,
      "duration": 0.2318,
      "velocity": 105,
      "chip": "ym2612"
    },
    {
      "channel": 2,
      "note": 52,
      "start": 82.3947,
      "duration": 0.2783,
      "velocity": 104,
      "chip": "ym2612"
    },
    {
      "channel": 3,
      "note": 64,
      "start": 82.3949,
      "duration": 1.6246,
      "velocity": 112,
      "chip": "ym2612"
    },
    {
      "channel": 4,
      "note": 62,
      "start": 82.3951,
      "duration": 0.0919,
      "velocity": 112,
      "chip": "ym2612"
    },
    {
      "channel": 5,
      "note": 68,
      "start": 82.3954,
      "duration": 0.1382,
      "velocity": 127,
      "chip": "ym2612"
    },
    {
      "channel": 4,
      "note": 64,
      "start": 82.5334,
      "duration": 1.6256,
      "velocity": 112,
      "chip": "ym2612"
    },
    {
      "channel": 0,
      "note": 52,
      "start": 82.6727,
      "duration": 0.0462,
      "velocity": 105,
      "chip": "ym2612"
    },
    {
      "channel": 1,
      "note": 56,
      "start": 82.6728,
      "duration": 0.0462,
      "velocity": 105,
      "chip": "ym2612"
    },
    {
      "channel": 5,
      "note": 68,
      "start": 82.6734,
      "duration": 0.1389,
      "velocity": 127,
      "chip": "ym2612"
    },
    {
      "channel": 0,
      "note": 52,
      "start": 82.7654,
      "duration": 0.0464,
      "velocity": 105,
      "chip": "ym2612"
    },
    {
      "channel": 1,
      "note": 56,
      "start": 82.7656,
      "duration": 0.0464,
      "velocity": 105,
      "chip": "ym2612"
    },
    {
      "channel": 5,
      "note": 68,
      "start": 82.8124,
      "duration": 0.1402,
      "velocity": 127,
      "chip": "ym2612"
    },
    {
      "channel": 0,
      "note": 50,
      "start": 82.8585,
      "duration": 0.0463,
      "velocity": 105,
      "chip": "ym2612"
    },
    {
      "channel": 1,
      "note": 54,
      "start": 82.8587,
      "duration": 0.0462,
      "velocity": 105,
      "chip": "ym2612"
    },
    {
      "channel": 0,
      "note": 52,
      "start": 82.9513,
      "duration": 0.7891,
      "velocity": 105,
      "chip": "ym2612"
    },
    {
      "channel": 1,
      "note": 56,
      "start": 82.9517,
      "duration": 0.7889,
      "velocity": 105,
      "chip": "ym2612"
    },
    {
      "channel": 2,
      "note": 59,
      "start": 82.952,
      "duration": 0.2778,
      "velocity": 104,
      "chip": "ym2612"
    },
    {
      "channel": 5,
      "note": 68,
      "start": 82.9526,
      "duration": 0.1385,
      "velocity": 127,
      "chip": "ym2612"
    },
    {
      "channel": 5,
      "note": 68,
      "start": 83.2305,
      "duration": 0.1394,
      "velocity": 127,
      "chip": "ym2612"
    },
    {
      "channel": 5,
      "note": 68,
      "start": 83.3699,
      "duration": 0.1398,
      "velocity": 127,
      "chip": "ym2612"
    },
    {
      "channel": 2,
      "note": 52,
      "start": 83.509,
      "duration": 0.2787,
      "velocity": 104,
      "chip": "ym2612"
    },
    {
      "channel": 5,
      "note": 68,
      "start": 83.5097,
      "duration": 0.1387,
      "velocity": 127,
      "chip": "ym2612"
    },
    {
      "channel": 0,
      "note": 52,
      "start": 83.7873,
      "duration": 0.0462,
      "velocity": 105,
      "chip": "ym2612"
    },
    {
      "channel": 1,
      "note": 56,
      "start": 83.7875,
      "duration": 0.0461,
      "velocity": 105,
      "chip": "ym2612"
    },
    {
      "channel": 5,
      "note": 68,
      "start": 83.7884,
      "duration": 0.1385,
      "velocity": 127,
      "chip": "ym2612"
    },
    {
      "channel": 0,
      "note": 52,
      "start": 83.8801,
      "duration": 0.046,
      "velocity": 105,
      "chip": "ym2612"
    },
    {
      "channel": 1,
      "note": 56,
      "start": 83.8803,
      "duration": 0.0461,
      "velocity": 105,
      "chip": "ym2612"
    },
    {
      "channel": 5,
      "note": 68,
      "start": 83.9269,
      "duration": 0.1402,
      "velocity": 127,
      "chip": "ym2612"
    },
    {
      "channel": 0,
      "note": 50,
      "start": 83.9729,
      "duration": 0.0461,
      "velocity": 105,
      "chip": "ym2612"
    },
    {
      "channel": 1,
      "note": 54,
      "start": 83.9732,
      "duration": 0.046,
      "velocity": 105,
      "chip": "ym2612"
    },
    {
      "channel": 0,
      "note": 52,
      "start": 84.0658,
      "duration": 0.5107,
      "velocity": 105,
      "chip": "ym2612"
    },
    {
      "channel": 1,
      "note": 56,
      "start": 84.0661,
      "duration": 0.5106,
      "velocity": 105,
      "chip": "ym2612"
    },
    {
      "channel": 2,
      "note": 56,
      "start": 84.0664,
      "duration": 0.1388,
      "velocity": 104,
      "chip": "ym2612"
    },
    {
      "channel": 5,
      "note": 68,
      "start": 84.0671,
      "duration": 0.0922,
      "velocity": 127,
      "chip": "ym2612"
    },
    {
      "channel": 5,
      "note": 68,
      "start": 84.1594,
      "duration": 0.0926,
      "velocity": 127,
      "chip": "ym2612"
    },
    {
      "channel": 5,
      "note": 68,
      "start": 84.252,
      "duration": 0.0931,
      "velocity": 127,
      "chip": "ym2612"
    },
    {
      "channel": 2,
      "note": 56,
      "start": 84.3444,
      "duration": 0.1393,
      "velocity": 104,
      "chip": "ym2612"
    },
    {
      "channel": 3,
      "note": 59,
      "start": 84.3447,
      "duration": 0.2322,
      "velocity": 112,
      "chip": "ym2612"
    },
    {
      "channel": 5,
      "note": 68,
      "start": 84.3451,
      "duration": 0.0925,
      "velocity": 127,
      "chip": "ym2612"
    },
    {
      "channel": 5,
      "note": 68,
      "start": 84.4377,
      "duration": 0.093,
      "velocity": 127,
      "chip": "ym2612"
    },
    {
      "channel": 4,
      "note": 59,
      "start": 84.4841,
      "duration": 0.2317,
      "velocity": 112,
      "chip": "ym2612"
    },
    {
      "channel": 5,
      "note": 68,
      "start": 84.5307,
      "duration": 0.0934,
      "velocity": 127,
      "chip": "ym2612"
    },
    {
      "channel": 0,
      "note": 50,
      "start": 84.6229,
      "duration": 1.0681,
      "velocity": 105,
      "chip": "ym2612"
    },
    {
      "channel": 1,
      "note": 54,
      "start": 84.6232,
      "duration": 1.0681,
      "velocity": 105,
      "chip": "ym2612"
    },
    {
      "channel": 2,
      "note": 59,
      "start": 84.6235,
      "duration": 0.278,
      "velocity": 104,
      "chip": "ym2612"
    },
    {
      "channel": 3,
      "note": 66,
      "start": 84.6237,
      "duration": 0.2312,
      "velocity": 112,
      "chip": "ym2612"
    },
    {
      "channel": 5,
      "note": 68,
      "start": 84.6241,
      "duration": 0.1386,
      "velocity": 127,
      "chip": "ym2612"
    },
    {
      "channel": 4,
      "note": 66,
      "start": 84.7625,
      "duration": 0.2323,
      "velocity": 112,
      "chip": "ym2612"
    },
    {
      "channel": 3,
      "note": 69,
      "start": 84.9019,
      "duration": 0.0928,
      "velocity": 112,
      "chip": "ym2612"
    },
    {
      "channel": 5,
      "note": 68,
      "start": 84.9023,
      "duration": 0.1392,
      "velocity": 127,
      "chip": "ym2612"
    },
    {
      "channel": 3,
      "note": 68,
      "start": 85.041,
      "duration": 0.0929,
      "velocity": 112,
      "chip": "ym2612"
    },
    {
      "channel": 4,
      "note": 69,
      "start": 85.0413,
      "duration": 0.0927,
      "velocity": 112,
      "chip": "ym2612"
    },
    {
      "channel": 5,
      "note": 68,
      "start": 85.0416,
      "duration": 0.1399,
      "velocity": 127,
      "chip": "ym2612"
    },
    {
      "channel": 2,
      "note": 54,
      "start": 85.1807,
      "duration": 0.2782,
      "velocity": 104,
      "chip": "ym2612"
    },
    {
      "channel": 3,
      "note": 66,
      "start": 85.1809,
      "duration": 0.2315,
      "velocity": 112,
      "chip": "ym2612"
    },
    {
      "channel": 4,
      "note": 68,
      "start": 85.1812,
      "duration": 0.0922,
      "velocity": 112,
      "chip": "ym2612"
    },
    {
      "channel": 5,
      "note": 68,
      "start": 85.1816,
      "duration": 0.1386,
      "velocity": 127,
      "chip": "ym2612"
    },
    {
      "channel": 4,
      "note": 66,
      "start": 85.32,
      "duration": 0.2318,
      "velocity": 112,
      "chip": "ym2612"
    },
    {
      "channel": 3,
      "note": 62,
      "start": 85.4592,
      "duration": 0.2323,
      "velocity": 112,
      "chip": "ym2612"
    },
    {
      "channel": 5,
      "note": 68,
      "start": 85.4595,
      "duration": 0.139,
      "velocity": 127,
      "chip": "ym2612"
    },
    {
      "channel": 4,
      "note": 62,
      "start": 85.5983,
      "duration": 0.2319,
      "velocity": 112,
      "chip": "ym2612"
    },
    {
      "channel": 5,
      "note": 68,
      "start": 85.5986,
      "duration": 0.1398,
      "velocity": 127,
      "chip": "ym2612"
    },
    {
      "channel": 0,
      "note": 49,
      "start": 85.7374,
      "duration": 1.068,
      "velocity": 105,
      "chip": "ym2612"
    },
    {
      "channel": 1,
      "note": 55,
      "start": 85.7377,
      "duration": 1.068,
      "velocity": 105,
      "chip": "ym2612"
    },
    {
      "channel": 2,
      "note": 57,
      "start": 85.738,
      "duration": 0.2783,
      "velocity": 104,
      "chip": "ym2612"
    },
    {
      "channel": 3,
      "note": 64,
      "start": 85.7383,
      "duration": 0.0919,
      "velocity": 112,
      "chip": "ym2612"
    },
    {
      "channel": 5,
      "note": 68,
      "start": 85.7386,
      "duration": 0.1388,
      "velocity": 127,
      "chip": "ym2612"
    },
    {
      "channel": 3,
      "note": 62,
      "start": 85.8769,
      "duration": 0.0927,
      "velocity": 112,
      "chip": "ym2612"
    },
    {
      "channel": 4,
      "note": 64,
      "start": 85.8772,
      "duration": 0.0926,
      "velocity": 112,
      "chip": "ym2612"
    },
    {
      "channel": 3,
      "note": 64,
      "start": 86.0166,
      "duration": 0.0927,
      "velocity": 112,
      "chip": "ym2612"
    },
    {
      "channel": 4,
      "note": 62,
      "start": 86.0168,
      "duration": 0.0925,
      "velocity": 112,
      "chip": "ym2612"
    },
    {
      "channel": 5,
      "note": 68,
      "start": 86.0171,
      "duration": 0.139,
      "velocity": 127,
      "chip": "ym2612"
    },
    {
      "channel": 3,
      "note": 66,
      "start": 86.1556,
      "duration": 0.0929,
      "velocity": 112,
      "chip": "ym2612"
    },
    {
      "channel": 4,
      "note": 64,
      "start": 86.1559,
      "duration": 0.0927,
      "velocity": 112,
      "chip": "ym2612"
    },
    {
      "channel": 5,
      "note": 68,
      "start": 86.1561,
      "duration": 0.1398,
      "velocity": 127,
      "chip": "ym2612"
    },
    {
      "channel": 2,
      "note": 52,
      "start": 86.2951,
      "duration": 0.1393,
      "velocity": 104,
      "chip": "ym2612"
    },
    {
      "channel": 3,
      "note": 61,
      "start": 86.2954,
      "duration": 0.2316,
      "velocity": 112,
      "chip": "ym2612"
    },
    {
      "channel": 4,
      "note": 66,
      "start": 86.2957,
      "duration": 0.0924,
      "velocity": 112,
      "chip": "ym2612"
    },
    {
      "channel": 5,
      "note": 68,
      "start": 86.296,
      "duration": 0.139,
      "velocity": 127,
      "chip": "ym2612"
    },
    {
      "channel": 4,
      "note": 61,
      "start": 86.4347,
      "duration": 0.2317,
      "velocity": 112,
      "chip": "ym2612"
    },
    {
      "channel": 5,
      "note": 68,
      "start": 86.435,
      "duration": 0.139,
      "velocity": 127,
      "chip": "ym2612"
    },
    {
      "channel": 2,
      "note": 52,
      "start": 86.5736,
      "duration": 0.139,
      "velocity": 104,
      "chip": "ym2612"
    },
    {
      "channel": 3,
      "note": 57,
      "start": 86.5738,
      "duration": 0.232,
      "velocity": 112,
      "chip": "ym2612"
    },
    {
      "channel": 5,
      "note": 68,
      "start": 86.5741,
      "duration": 0.139,
      "velocity": 127,
      "chip": "ym2612"
    },
    {
      "channel": 4,
      "note": 57,
      "start": 86.7129,
      "duration": 0.2319,
      "velocity": 112,
      "chip": "ym2612"
    },
    {
      "channel": 5,
      "note": 68,
      "start": 86.7132,
      "duration": 0.1397,
      "velocity": 127,
      "chip": "ym2612"
    },
    {
      "channel": 0,
      "note": 50,
      "start": 86.8517,
      "duration": 1.6254,
      "velocity": 105,
      "chip": "ym2612"
    },
    {
      "channel": 1,
      "note": 54,
      "start": 86.852,
      "duration": 1.6254,
      "velocity": 105,
      "chip": "ym2612"
    },
    {
      "channel": 2,
      "note": 59,
      "start": 86.8523,
      "duration": 0.2779,
      "velocity": 104,
      "chip": "ym2612"
    },
    {
      "channel": 3,
      "note": 59,
      "start": 86.8526,
      "duration": 0.092,
      "velocity": 112,
      "chip": "ym2612"
    },
    {
      "channel": 5,
      "note": 68,
      "start": 86.853,
      "duration": 0.1388,
      "velocity": 127,
      "chip": "ym2612"
    },
    {
      "channel": 3,
      "note": 57,
      "start": 86.9912,
      "duration": 0.0926,
      "velocity": 112,
      "chip": "ym2612"
    },
    {
      "channel": 4,
      "note": 59,
      "start": 86.9916,
      "duration": 0.0924,
      "velocity": 112,
      "chip": "ym2612"
    },
    {
      "channel": 3,
      "note": 59,
      "start": 87.1305,
      "duration": 1.2078,
      "velocity": 112,
      "chip": "ym2612"
    },
    {
      "channel": 4,
      "note": 57,
      "start": 87.1308,
      "duration": 0.0926,
      "velocity": 112,
      "chip": "ym2612"
    },
    {
      "channel": 5,
      "note": 68,
      "start": 87.1312,
      "duration": 0.1391,
      "velocity": 127,
      "chip": "ym2612"
    },
    {
      "channel": 4,
      "note": 59,
      "start": 87.2701,
      "duration": 1.2076,
      "velocity": 112,
      "chip": "ym2612"
    },
    {
      "channel": 5,
      "note": 68,
      "start": 87.2703,
      "duration": 0.1398,
      "velocity": 127,
      "chip": "ym2612"
    },
    {
      "channel": 2,
      "note": 54,
      "start": 87.4097,
      "duration": 0.2783,
      "velocity": 104,
      "chip": "ym2612"
    },
    {
      "channel": 5,
      "note": 68,
      "start": 87.4101,
      "duration": 0.1388,
      "velocity": 127,
      "chip": "ym2612"
    },
    {
      "channel": 5,
      "note": 68,
      "start": 87.6888,
      "duration": 0.139,
      "velocity": 127,
      "chip": "ym2612"
    },
    {
      "channel": 5,
      "note": 68,
      "start": 87.8278,
      "duration": 0.1397,
      "velocity": 127,
      "chip": "ym2612"
    },
    {
      "channel": 2,
      "note": 59,
      "start": 87.9669,
      "duration": 0.1391,
      "velocity": 104,
      "chip": "ym2612"
    },
    {
      "channel": 5,
      "note": 68,
      "start": 87.9677,
      "duration": 0.0923,
      "velocity": 127,
      "chip": "ym2612"
    },
    {
      "channel": 5,
      "note": 68,
      "start": 88.06,
      "duration": 0.0926,
      "velocity": 127,
      "chip": "ym2612"
    },
    {
      "channel": 5,
      "note": 68,
      "start": 88.1527,
      "duration": 0.0929,
      "velocity": 127,
      "chip": "ym2612"
    },
    {
      "channel": 5,
      "note": 68,
      "start": 88.2457,
      "duration": 0.1395,
      "velocity": 127,
      "chip": "ym2612"
    },
    {
      "channel": 5,
      "note": 68,
      "start": 88.3852,
      "duration": 0.1429,
      "velocity": 127,
      "chip": "ym2612"
    },
    {
      "channel": 2,
      "note": 59,
      "start": 88.524,
      "duration": 0.1389,
      "velocity": 104,
      "chip": "ym2612"
    },
    {
      "channel": 3,
      "note": 62,
      "start": 88.5264,
      "duration": 0.0903,
      "velocity": 100,
      "chip": "ym2612"
    },
    {
      "channel": 5,
      "note": 68,
      "start": 88.5282,
      "duration": 0.1356,
      "velocity": 127,
      "chip": "ym2612"
    },
    {
      "channel": 3,
      "note": 64,
      "start": 88.6631,
      "duration": 0.0925,
      "velocity": 100,
      "chip": "ym2612"
    },
    {
      "channel": 4,
      "note": 62,
      "start": 88.6636,
      "duration": 0.0922,
      "velocity": 100,
      "chip": "ym2612"
    },
    {
      "channel": 5,
      "note": 68,
      "start": 88.6639,
      "duration": 0.1397,
      "velocity": 127,
      "chip": "ym2612"
    },
    {
      "channel": 2,
      "note": 61,
      "start": 88.8028,
      "duration": 0.1386,
      "velocity": 104,
      "chip": "ym2612"
    },
    {
      "channel": 3,
      "note": 66,
      "start": 88.803,
      "duration": 0.0923,
      "velocity": 100,
      "chip": "ym2612"
    },
    {
      "channel": 4,
      "note": 64,
      "start": 88.8033,
      "duration": 0.0922,
      "velocity": 100,
      "chip": "ym2612"
    },
    {
      "channel": 5,
      "note": 68,
      "start": 88.8037,
      "duration": 0.1385,
      "velocity": 127,
      "chip": "ym2612"
    },
    {
      "channel": 3,
      "note": 68,
      "start": 88.9416,
      "duration": 0.0929,
      "velocity": 100,
      "chip": "ym2612"
    },
    {
      "channel": 4,
      "note": 66,
      "start": 88.942,
      "duration": 0.0926,
      "velocity": 100,
      "chip": "ym2612"
    },
    {
      "channel": 5,
      "note": 68,
      "start": 88.9422,
      "duration": 0.1438,
      "velocity": 127,
      "chip": "ym2612"
    },
    {
      "channel": 0,
      "note": 54,
      "start": 89.083,
      "duration": 0.5088,
      "velocity": 115,
      "chip": "ym2612"
    },
    {
      "channel": 1,
      "note": 57,
      "start": 89.0849,
      "duration": 0.5071,
      "velocity": 115,
      "chip": "ym2612"
    },
    {
      "channel": 2,
      "note": 62,
      "start": 89.0851,
      "duration": 0.2743,
      "velocity": 104,
      "chip": "ym2612"
    },
    {
      "channel": 3,
      "note": 69,
      "start": 89.0854,
      "duration": 0.507,
      "velocity": 100,
      "chip": "ym2612"
    },
    {
      "channel": 4,
      "note": 68,
      "start": 89.0857,
      "duration": 0.0881,
      "velocity": 100,
      "chip": "ym2612"
    },
    {
      "channel": 5,
      "note": 68,
      "start": 89.086,
      "duration": 0.1348,
      "velocity": 127,
      "chip": "ym2612"
    },
    {
      "channel": 4,
      "note": 69,
      "start": 89.2205,
      "duration": 0.5107,
      "velocity": 100,
      "chip": "ym2612"
    },
    {
      "channel": 5,
      "note": 68,
      "start": 89.3599,
      "duration": 0.1399,
      "velocity": 127,
      "chip": "ym2612"
    },
    {
      "channel": 5,
      "note": 68,
      "start": 89.4998,
      "duration": 0.0461,
      "velocity": 127,
      "chip": "ym2612"
    },
    {
      "channel": 5,
      "note": 68,
      "start": 89.5459,
      "duration": 0.0469,
      "velocity": 127,
      "chip": "ym2612"
    },
    {
      "channel": 5,
      "note": 68,
      "start": 89.5929,
      "duration": 0.0465,
      "velocity": 127,
      "chip": "ym2612"
    },
    {
      "channel": 0,
      "note": 54,
      "start": 89.6382,
      "duration": 0.3716,
      "velocity": 115,
      "chip": "ym2612"
    },
    {
      "channel": 1,
      "note": 57,
      "start": 89.6385,
      "duration": 0.3715,
      "velocity": 115,
      "chip": "ym2612"
    },
    {
      "channel": 2,
      "note": 62,
      "start": 89.6387,
      "duration": 0.2783,
      "velocity": 104,
      "chip": "ym2612"
    },
    {
      "channel": 3,
      "note": 69,
      "start": 89.639,
      "duration": 0.3713,
      "velocity": 100,
      "chip": "ym2612"
    },
    {
      "channel": 5,
      "note": 68,
      "start": 89.6394,
      "duration": 0.1385,
      "velocity": 127,
      "chip": "ym2612"
    },
    {
      "channel": 4,
      "note": 69,
      "start": 89.7776,
      "duration": 0.3719,
      "velocity": 100,
      "chip": "ym2612"
    },
    {
      "channel": 5,
      "note": 68,
      "start": 89.7779,
      "duration": 0.1394,
      "velocity": 127,
      "chip": "ym2612"
    },
    {
      "channel": 0,
      "note": 54,
      "start": 90.0561,
      "duration": 0.0927,
      "velocity": 115,
      "chip": "ym2612"
    },
    {
      "channel": 1,
      "note": 57,
      "start": 90.0564,
      "duration": 0.0926,
      "velocity": 115,
      "chip": "ym2612"
    },
    {
      "channel": 3,
      "note": 66,
      "start": 90.0568,
      "duration": 0.0924,
      "velocity": 100,
      "chip": "ym2612"
    },
    {
      "channel": 5,
      "note": 68,
      "start": 90.0572,
      "duration": 0.1397,
      "velocity": 127,
      "chip": "ym2612"
    },
    {
      "channel": 0,
      "note": 52,
      "start": 90.1957,
      "duration": 1.068,
      "velocity": 115,
      "chip": "ym2612"
    },
    {
      "channel": 1,
      "note": 57,
      "start": 90.1959,
      "duration": 1.0681,
      "velocity": 115,
      "chip": "ym2612"
    },
    {
      "channel": 2,
      "note": 61,
      "start": 90.1961,
      "duration": 0.2784,
      "velocity": 104,
      "chip": "ym2612"
    },
    {
      "channel": 3,
      "note": 64,
      "start": 90.1963,
      "duration": 0.5106,
      "velocity": 100,
      "chip": "ym2612"
    },
    {
      "channel": 4,
      "note": 66,
      "start": 90.1966,
      "duration": 0.0919,
      "velocity": 100,
      "chip": "ym2612"
    },
    {
      "channel": 5,
      "note": 68,
      "start": 90.197,
      "duration": 0.1385,
      "velocity": 127,
      "chip": "ym2612"
    },
    {
      "channel": 4,
      "note": 64,
      "start": 90.3353,
      "duration": 0.5108,
      "velocity": 100,
      "chip": "ym2612"
    },
    {
      "channel": 5,
      "note": 68,
      "start": 90.475,
      "duration": 0.1395,
      "velocity": 127,
      "chip": "ym2612"
    },
    {
      "channel": 5,
      "note": 68,
      "start": 90.6146,
      "duration": 0.1393,
      "velocity": 127,
      "chip": "ym2612"
    },
    {
      "channel": 2,
      "note": 61,
      "start": 90.7531,
      "duration": 0.2013,
      "velocity": 104,
      "chip": "ym2612"
    },
    {
      "channel": 3,
      "note": 59,
      "start": 90.7534,
      "duration": 0.0925,
      "velocity": 100,
      "chip": "ym2612"
    },
    {
      "channel": 5,
      "note": 68,
      "start": 90.7539,
      "duration": 0.1393,
      "velocity": 127,
      "chip": "ym2612"
    },
    {
      "channel": 3,
      "note": 61,
      "start": 90.8925,
      "duration": 0.0927,
      "velocity": 100,
      "chip": "ym2612"
    },
    {
      "channel": 4,
      "note": 59,
      "start": 90.8929,
      "duration": 0.0926,
      "velocity": 100,
      "chip": "ym2612"
    },
    {
      "channel": 5,
      "note": 68,
      "start": 90.8931,
      "duration": 0.1395,
      "velocity": 127,
      "chip": "ym2612"
    },
    {
      "channel": 3,
      "note": 62,
      "start": 91.0321,
      "duration": 0.0927,
      "velocity": 100,
      "chip": "ym2612"
    },
    {
      "channel": 4,
      "note": 61,
      "start": 91.0324,
      "duration": 0.0926,
      "velocity": 100,
      "chip": "ym2612"
    },
    {
      "channel": 5,
      "note": 68,
      "start": 91.0326,
      "duration": 0.1394,
      "velocity": 127,
      "chip": "ym2612"
    },
    {
      "channel": 2,
      "note": 61,
      "start": 91.1712,
      "duration": 0.0619,
      "velocity": 104,
      "chip": "ym2612"
    },
    {
      "channel": 3,
      "note": 64,
      "start": 91.1715,
      "duration": 0.0926,
      "velocity": 100,
      "chip": "ym2612"
    },
    {
      "channel": 4,
      "note": 62,
      "start": 91.1717,
      "duration": 0.0925,
      "velocity": 100,
      "chip": "ym2612"
    },
    {
      "channel": 5,
      "note": 68,
      "start": 91.172,
      "duration": 0.1397,
      "velocity": 127,
      "chip": "ym2612"
    },
    {
      "channel": 0,
      "note": 54,
      "start": 91.3103,
      "duration": 0.5108,
      "velocity": 115,
      "chip": "ym2612"
    },
    {
      "channel": 1,
      "note": 59,
      "start": 91.3106,
      "duration": 0.5107,
      "velocity": 115,
      "chip": "ym2612"
    },
    {
      "channel": 2,
      "note": 59,
      "start": 91.3109,
      "duration": 0.278,
      "velocity": 104,
      "chip": "ym2612"
    },
    {
      "channel": 3,
      "note": 66,
      "start": 91.3112,
      "duration": 0.5103,
      "velocity": 100,
      "chip": "ym2612"
    },
    {
      "channel": 4,
      "note": 64,
      "start": 91.3114,
      "duration": 0.0918,
      "velocity": 100,
      "chip": "ym2612"
    },
    {
      "channel": 5,
      "note": 68,
      "start": 91.3118,
      "duration": 0.1383,
      "velocity": 127,
      "chip": "ym2612"
    },
    {
      "channel": 4,
      "note": 66,
      "start": 91.45,
      "duration": 0.5103,
      "velocity": 100,
      "chip": "ym2612"
    },
    {
      "channel": 5,
      "note": 68,
      "start": 91.5894,
      "duration": 0.1397,
      "velocity": 127,
      "chip": "ym2612"
    },
    {
      "channel": 5,
      "note": 68,
      "start": 91.7291,
      "duration": 0.046,
      "velocity": 127,
      "chip": "ym2612"
    },
    {
      "channel": 5,
      "note": 68,
      "start": 91.7751,
      "duration": 0.0469,
      "velocity": 127,
      "chip": "ym2612"
    },
    {
      "channel": 5,
      "note": 68,
      "start": 91.822,
      "duration": 0.0465,
      "velocity": 127,
      "chip": "ym2612"
    },
    {
      "channel": 0,
      "note": 54,
      "start": 91.8673,
      "duration": 0.3714,
      "velocity": 115,
      "chip": "ym2612"
    },
    {
      "channel": 1,
      "note": 59,
      "start": 91.8676,
      "duration": 0.3714,
      "velocity": 115,
      "chip": "ym2612"
    },
    {
      "channel": 2,
      "note": 59,
      "start": 91.8678,
      "duration": 0.2783,
      "velocity": 104,
      "chip": "ym2612"
    },
    {
      "channel": 3,
      "note": 66,
      "start": 91.868,
      "duration": 0.371,
      "velocity": 100,
      "chip": "ym2612"
    },
    {
      "channel": 5,
      "note": 68,
      "start": 91.8685,
      "duration": 0.1387,
      "velocity": 127,
      "chip": "ym2612"
    },
    {
      "channel": 4,
      "note": 66,
      "start": 92.0069,
      "duration": 0.3712,
      "velocity": 100,
      "chip": "ym2612"
    },
    {
      "channel": 5,
      "note": 68,
      "start": 92.0073,
      "duration": 0.1391,
      "velocity": 127,
      "chip": "ym2612"
    },
    {
      "channel": 0,
      "note": 54,
      "start": 92.2851,
      "duration": 0.0924,
      "velocity": 115,
      "chip": "ym2612"
    },
    {
      "channel": 1,
      "note": 59,
      "start": 92.2853,
      "duration": 0.0924,
      "velocity": 115,
      "chip": "ym2612"
    },
    {
      "channel": 3,
      "note": 62,
      "start": 92.2856,
      "duration": 0.0921,
      "velocity": 100,
      "chip": "ym2612"
    },
    {
      "channel": 5,
      "note": 68,
      "start": 92.2862,
      "duration": 0.1395,
      "velocity": 127,
      "chip": "ym2612"
    },
    {
      "channel": 0,
      "note": 55,
      "start": 92.4244,
      "duration": 1.0677,
      "velocity": 115,
      "chip": "ym2612"
    },
    {
      "channel": 1,
      "note": 59,
      "start": 92.4246,
      "duration": 1.0678,
      "velocity": 115,
      "chip": "ym2612"
    },
    {
      "channel": 2,
      "note": 55,
      "start": 92.4248,
      "duration": 0.2783,
      "velocity": 104,
      "chip": "ym2612"
    },
    {
      "channel": 3,
      "note": 59,
      "start": 92.4251,
      "duration": 0.5103,
      "velocity": 100,
      "chip": "ym2612"
    },
    {
      "channel": 4,
      "note": 62,
      "start": 92.4254,
      "duration": 0.092,
      "velocity": 100,
      "chip": "ym2612"
    },
    {
      "channel": 5,
      "note": 68,
      "start": 92.4257,
      "duration": 0.1384,
      "velocity": 127,
      "chip": "ym2612"
    },
    {
      "channel": 4,
      "note": 59,
      "start": 92.5639,
      "duration": 0.5107,
      "velocity": 100,
      "chip": "ym2612"
    },
    {
      "channel": 5,
      "note": 68,
      "start": 92.7036,
      "duration": 0.1393,
      "velocity": 127,
      "chip": "ym2612"
    },
    {
      "channel": 5,
      "note": 68,
      "start": 92.843,
      "duration": 0.1394,
      "velocity": 127,
      "chip": "ym2612"
    },
    {
      "channel": 2,
      "note": 55,
      "start": 92.9816,
      "duration": 0.2788,
      "velocity": 104,
      "chip": "ym2612"
    },
    {
      "channel": 3,
      "note": 62,
      "start": 92.9819,
      "duration": 0.0925,
      "velocity": 100,
      "chip": "ym2612"
    },
    {
      "channel": 5,
      "note": 68,
      "start": 92.9824,
      "duration": 0.1395,
      "velocity": 127,
      "chip": "ym2612"
    },
    {
      "channel": 3,
      "note": 64,
      "start": 93.1213,
      "duration": 0.0927,
      "velocity": 100,
      "chip": "ym2612"
    },
    {
      "channel": 4,
      "note": 62,
      "start": 93.1217,
      "duration": 0.0925,
      "velocity": 100,
      "chip": "ym2612"
    },
    {
      "channel": 5,
      "note": 68,
      "start": 93.122,
      "duration": 0.1392,
      "velocity": 127,
      "chip": "ym2612"
    },
    {
      "channel": 3,
      "note": 66,
      "start": 93.2608,
      "duration": 0.0925,
      "velocity": 100,
      "chip": "ym2612"
    },
    {
      "channel": 4,
      "note": 64,
      "start": 93.261,
      "duration": 0.0924,
      "velocity": 100,
      "chip": "ym2612"
    },
    {
      "channel": 5,
      "note": 68,
      "start": 93.2612,
      "duration": 0.1391,
      "velocity": 127,
      "chip": "ym2612"
    },
    {
      "channel": 3,
      "note": 68,
      "start": 93.3998,
      "duration": 0.0926,
      "velocity": 100,
      "chip": "ym2612"
    },
    {
      "channel": 4,
      "note": 66,
      "start": 93.4001,
      "duration": 0.0926,
      "velocity": 100,
      "chip": "ym2612"
    },
    {
      "channel": 5,
      "note": 68,
      "start": 93.4005,
      "duration": 0.1396,
      "velocity": 127,
      "chip": "ym2612"
    },
    {
      "channel": 0,
      "note": 54,
      "start": 93.5387,
      "duration": 0.5106,
      "velocity": 115,
      "chip": "ym2612"
    },
    {
      "channel": 1,
      "note": 59,
      "start": 93.539,
      "duration": 0.5106,
      "velocity": 115,
      "chip": "ym2612"
    },
    {
      "channel": 2,
      "note": 59,
      "start": 93.5392,
      "duration": 0.2784,
      "velocity": 104,
      "chip": "ym2612"
    },
    {
      "channel": 3,
      "note": 69,
      "start": 93.5394,
      "duration": 0.5104,
      "velocity": 100,
      "chip": "ym2612"
    },
    {
      "channel": 4,
      "note": 68,
      "start": 93.5398,
      "duration": 0.0919,
      "velocity": 100,
      "chip": "ym2612"
    },
    {
      "channel": 5,
      "note": 68,
      "start": 93.5401,
      "duration": 0.1382,
      "velocity": 127,
      "chip": "ym2612"
    },
    {
      "channel": 4,
      "note": 69,
      "start": 93.6781,
      "duration": 0.5105,
      "velocity": 100,
      "chip": "ym2612"
    },
    {
      "channel": 5,
      "note": 68,
      "start": 93.8181,
      "duration": 0.1391,
      "velocity": 127,
      "chip": "ym2612"
    },
    {
      "channel": 5,
      "note": 68,
      "start": 93.9573,
      "duration": 0.0462,
      "velocity": 127,
      "chip": "ym2612"
    },
    {
      "channel": 5,
      "note": 68,
      "start": 94.0035,
      "duration": 0.0467,
      "velocity": 127,
      "chip": "ym2612"
    },
    {
      "channel": 5,
      "note": 68,
      "start": 94.0503,
      "duration": 0.0465,
      "velocity": 127,
      "chip": "ym2612"
    },
    {
      "channel": 0,
      "note": 54,
      "start": 94.0956,
      "duration": 0.3716,
      "velocity": 115,
      "chip": "ym2612"
    },
    {
      "channel": 1,
      "note": 59,
      "start": 94.0959,
      "duration": 0.3716,
      "velocity": 115,
      "chip": "ym2612"
    },
    {
      "channel": 2,
      "note": 59,
      "start": 94.0961,
      "duration": 0.2785,
      "velocity": 104,
      "chip": "ym2612"
    },
    {
      "channel": 3,
      "note": 69,
      "start": 94.0963,
      "duration": 0.3713,
      "velocity": 100,
      "chip": "ym2612"
    },
    {
      "channel": 5,
      "note": 68,
      "start": 94.0968,
      "duration": 0.1388,
      "velocity": 127,
      "chip": "ym2612"
    },
    {
      "channel": 4,
      "note": 69,
      "start": 94.2353,
      "duration": 0.3716,
      "velocity": 100,
      "chip": "ym2612"
    },
    {
      "channel": 5,
      "note": 68,
      "start": 94.2356,
      "duration": 0.1391,
      "velocity": 127,
      "chip": "ym2612"
    },
    {
      "channel": 0,
      "note": 54,
      "start": 94.5138,
      "duration": 0.0924,
      "velocity": 115,
      "chip": "ym2612"
    },
    {
      "channel": 1,
      "note": 59,
      "start": 94.5141,
      "duration": 0.0924,
      "velocity": 115,
      "chip": "ym2612"
    },
    {
      "channel": 3,
      "note": 66,
      "start": 94.5144,
      "duration": 0.0922,
      "velocity": 100,
      "chip": "ym2612"
    },
    {
      "channel": 5,
      "note": 68,
      "start": 94.5149,
      "duration": 0.1395,
      "velocity": 127,
      "chip": "ym2612"
    },
    {
      "channel": 0,
      "note": 56,
      "start": 94.653,
      "duration": 1.0685,
      "velocity": 115,
      "chip": "ym2612"
    },
    {
      "channel": 1,
      "note": 59,
      "start": 94.6532,
      "duration": 1.0684,
      "velocity": 115,
      "chip": "ym2612"
    },
    {
      "channel": 2,
      "note": 64,
      "start": 94.6534,
      "duration": 0.2789,
      "velocity": 104,
      "chip": "ym2612"
    },
    {
      "channel": 3,
      "note": 68,
      "start": 94.6538,
      "duration": 0.2318,
      "velocity": 100,
      "chip": "ym2612"
    },
    {
      "channel": 4,
      "note": 66,
      "start": 94.6541,
      "duration": 0.0921,
      "velocity": 100,
      "chip": "ym2612"
    },
    {
      "channel": 5,
      "note": 68,
      "start": 94.6545,
      "duration": 0.1386,
      "velocity": 127,
      "chip": "ym2612"
    },
    {
      "channel": 4,
      "note": 68,
      "start": 94.7928,
      "duration": 0.2327,
      "velocity": 100,
      "chip": "ym2612"
    },
    {
      "channel": 3,
      "note": 66,
      "start": 94.9326,
      "duration": 0.2318,
      "velocity": 100,
      "chip": "ym2612"
    },
    {
      "channel": 5,
      "note": 68,
      "start": 94.9331,
      "duration": 0.139,
      "velocity": 127,
      "chip": "ym2612"
    },
    {
      "channel": 4,
      "note": 66,
      "start": 95.0719,
      "duration": 0.2322,
      "velocity": 100,
      "chip": "ym2612"
    },
    {
      "channel": 5,
      "note": 68,
      "start": 95.0721,
      "duration": 0.1395,
      "velocity": 127,
      "chip": "ym2612"
    },
    {
      "channel": 2,
      "note": 64,
      "start": 95.2109,
      "duration": 0.2786,
      "velocity": 104,
      "chip": "ym2612"
    },
    {
      "channel": 3,
      "note": 64,
      "start": 95.2112,
      "duration": 0.0462,
      "velocity": 100,
      "chip": "ym2612"
    },
    {
      "channel": 5,
      "note": 68,
      "start": 95.2116,
      "duration": 0.1393,
      "velocity": 127,
      "chip": "ym2612"
    },
    {
      "channel": 3,
      "note": 66,
      "start": 95.3039,
      "duration": 0.0462,
      "velocity": 100,
      "chip": "ym2612"
    },
    {
      "channel": 4,
      "note": 64,
      "start": 95.3505,
      "duration": 0.0463,
      "velocity": 100,
      "chip": "ym2612"
    },
    {
      "channel": 5,
      "note": 68,
      "start": 95.3508,
      "duration": 0.1393,
      "velocity": 127,
      "chip": "ym2612"
    },
    {
      "channel": 3,
      "note": 64,
      "start": 95.3966,
      "duration": 0.0465,
      "velocity": 100,
      "chip": "ym2612"
    },
    {
      "channel": 4,
      "note": 66,
      "start": 95.4434,
      "duration": 0.0465,
      "velocity": 100,
      "chip": "ym2612"
    },
    {
      "channel": 3,
      "note": 62,
      "start": 95.4897,
      "duration": 0.0925,
      "velocity": 100,
      "chip": "ym2612"
    },
    {
      "channel": 5,
      "note": 68,
      "start": 95.4901,
      "duration": 0.1395,
      "velocity": 127,
      "chip": "ym2612"
    },
    {
      "channel": 4,
      "note": 64,
      "start": 95.5363,
      "duration": 0.0461,
      "velocity": 100,
      "chip": "ym2612"
    },
    {
      "channel": 3,
      "note": 64,
      "start": 95.629,
      "duration": 0.0928,
      "velocity": 100,
      "chip": "ym2612"
    },
    {
      "channel": 4,
      "note": 62,
      "start": 95.6294,
      "duration": 0.0925,
      "velocity": 100,
      "chip": "ym2612"
    },
    {
      "channel": 5,
      "note": 68,
      "start": 95.6296,
      "duration": 0.1396,
      "velocity": 127,
      "chip": "ym2612"
    },
    {
      "channel": 0,
      "note": 54,
      "start": 95.7679,
      "duration": 0.5105,
      "velocity": 115,
      "chip": "ym2612"
    },
    {
      "channel": 1,
      "note": 57,
      "start": 95.7681,
      "duration": 0.5105,
      "velocity": 115,
      "chip": "ym2612"
    },
    {
      "channel": 2,
      "note": 66,
      "start": 95.7684,
      "duration": 0.2784,
      "velocity": 104,
      "chip": "ym2612"
    },
    {
      "channel": 3,
      "note": 66,
      "start": 95.7687,
      "duration": 1.6243,
      "velocity": 100,
      "chip": "ym2612"
    },
    {
      "channel": 4,
      "note": 64,
      "start": 95.769,
      "duration": 0.0918,
      "velocity": 100,
      "chip": "ym2612"
    },
    {
      "channel": 5,
      "note": 68,
      "start": 95.7693,
      "duration": 0.1383,
      "velocity": 127,
      "chip": "ym2612"
    },
    {
      "channel": 4,
      "note": 66,
      "start": 95.9074,
      "duration": 1.6248,
      "velocity": 100,
      "chip": "ym2612"
    },
    {
      "channel": 5,
      "note": 68,
      "start": 96.0473,
      "duration": 0.1391,
      "velocity": 127,
      "chip": "ym2612"
    },
    {
      "channel": 5,
      "note": 68,
      "start": 96.1865,
      "duration": 0.0463,
      "velocity": 127,
      "chip": "ym2612"
    },
    {
      "channel": 5,
      "note": 68,
      "start": 96.2327,
      "duration": 0.0466,
      "velocity": 127,
      "chip": "ym2612"
    },
    {
      "channel": 5,
      "note": 68,
      "start": 96.2794,
      "duration": 0.0469,
      "velocity": 127,
      "chip": "ym2612"
    },
    {
      "channel": 0,
      "note": 54,
      "start": 96.3252,
      "duration": 0.2319,
      "velocity": 115,
      "chip": "ym2612"
    },
    {
      "channel": 1,
      "note": 57,
      "start": 96.3254,
      "duration": 0.232,
      "velocity": 115,
      "chip": "ym2612"
    },
    {
      "channel": 2,
      "note": 61,
      "start": 96.3257,
      "duration": 0.2778,
      "velocity": 104,
      "chip": "ym2612"
    },
    {
      "channel": 5,
      "note": 68,
      "start": 96.3264,
      "duration": 0.1386,
      "velocity": 127,
      "chip": "ym2612"
    },
    {
      "channel": 5,
      "note": 68,
      "start": 96.4651,
      "duration": 0.1388,
      "velocity": 127,
      "chip": "ym2612"
    },
    {
      "channel": 0,
      "note": 54,
      "start": 96.6032,
      "duration": 0.0927,
      "velocity": 115,
      "chip": "ym2612"
    },
    {
      "channel": 1,
      "note": 57,
      "start": 96.6033,
      "duration": 0.0928,
      "velocity": 115,
      "chip": "ym2612"
    },
    {
      "channel": 0,
      "note": 54,
      "start": 96.7428,
      "duration": 0.0928,
      "velocity": 115,
      "chip": "ym2612"
    },
    {
      "channel": 1,
      "note": 57,
      "start": 96.7429,
      "duration": 0.0928,
      "velocity": 115,
      "chip": "ym2612"
    },
    {
      "channel": 5,
      "note": 68,
      "start": 96.7436,
      "duration": 0.1394,
      "velocity": 127,
      "chip": "ym2612"
    },
    {
      "channel": 0,
      "note": 54,
      "start": 96.882,
      "duration": 0.2322,
      "velocity": 115,
      "chip": "ym2612"
    },
    {
      "channel": 1,
      "note": 57,
      "start": 96.8822,
      "duration": 0.2323,
      "velocity": 115,
      "chip": "ym2612"
    },
    {
      "channel": 2,
      "note": 66,
      "start": 96.8824,
      "duration": 0.2786,
      "velocity": 104,
      "chip": "ym2612"
    },
    {
      "channel": 5,
      "note": 68,
      "start": 96.883,
      "duration": 0.0922,
      "velocity": 127,
      "chip": "ym2612"
    },
    {
      "channel": 5,
      "note": 68,
      "start": 96.9752,
      "duration": 0.0931,
      "velocity": 127,
      "chip": "ym2612"
    },
    {
      "channel": 5,
      "note": 68,
      "start": 97.0684,
      "duration": 0.0932,
      "velocity": 127,
      "chip": "ym2612"
    },
    {
      "channel": 0,
      "note": 52,
      "start": 97.1607,
      "duration": 0.2318,
      "velocity": 115,
      "chip": "ym2612"
    },
    {
      "channel": 1,
      "note": 56,
      "start": 97.1609,
      "duration": 0.2318,
      "velocity": 115,
      "chip": "ym2612"
    },
    {
      "channel": 5,
      "note": 68,
      "start": 97.1616,
      "duration": 0.0925,
      "velocity": 127,
      "chip": "ym2612"
    },
    {
      "channel": 5,
      "note": 68,
      "start": 97.2541,
      "duration": 0.0929,
      "velocity": 127,
      "chip": "ym2612"
    },
    {
      "channel": 5,
      "note": 68,
      "start": 97.3471,
      "duration": 0.0929,
      "velocity": 127,
      "chip": "ym2612"
    },
    {
      "channel": 0,
      "note": 52,
      "start": 97.4389,
      "duration": 0.5107,
      "velocity": 115,
      "chip": "ym2612"
    },
    {
      "channel": 1,
      "note": 57,
      "start": 97.4391,
      "duration": 0.5107,
      "velocity": 115,
      "chip": "ym2612"
    },
    {
      "channel": 2,
      "note": 57,
      "start": 97.4394,
      "duration": 0.201,
      "velocity": 104,
      "chip": "ym2612"
    },
    {
      "channel": 3,
      "note": 62,
      "start": 97.4396,
      "duration": 0.0923,
      "velocity": 100,
      "chip": "ym2612"
    },
    {
      "channel": 5,
      "note": 68,
      "start": 97.4401,
      "duration": 0.1389,
      "velocity": 127,
      "chip": "ym2612"
    },
    {
      "channel": 3,
      "note": 64,
      "start": 97.5785,
      "duration": 0.0928,
      "velocity": 100,
      "chip": "ym2612"
    },
    {
      "channel": 4,
      "note": 62,
      "start": 97.5788,
      "duration": 0.0926,
      "velocity": 100,
      "chip": "ym2612"
    },
    {
      "channel": 5,
      "note": 68,
      "start": 97.5791,
      "duration": 0.1395,
      "velocity": 127,
      "chip": "ym2612"
    },
    {
      "channel": 3,
      "note": 66,
      "start": 97.7179,
      "duration": 0.0926,
      "velocity": 100,
      "chip": "ym2612"
    },
    {
      "channel": 4,
      "note": 64,
      "start": 97.7183,
      "duration": 0.0923,
      "velocity": 100,
      "chip": "ym2612"
    },
    {
      "channel": 5,
      "note": 68,
      "start": 97.7186,
      "duration": 0.1393,
      "velocity": 127,
      "chip": "ym2612"
    },
    {
      "channel": 2,
      "note": 57,
      "start": 97.857,
      "duration": 0.0618,
      "velocity": 104,
      "chip": "ym2612"
    },
    {
      "channel": 3,
      "note": 68,
      "start": 97.8573,
      "duration": 0.0926,
      "velocity": 100,
      "chip": "ym2612"
    },
    {
      "channel": 4,
      "note": 66,
      "start": 97.8576,
      "duration": 0.0925,
      "velocity": 100,
      "chip": "ym2612"
    },
    {
      "channel": 5,
      "note": 68,
      "start": 97.8579,
      "duration": 0.1392,
      "velocity": 127,
      "chip": "ym2612"
    },
    {
      "channel": 0,
      "note": 54,
      "start": 97.9958,
      "duration": 0.5104,
      "velocity": 115,
      "chip": "ym2612"
    },
    {
      "channel": 1,
      "note": 57,
      "start": 97.996,
      "duration": 0.5105,
      "velocity": 115,
      "chip": "ym2612"
    },
    {
      "channel": 2,
      "note": 62,
      "start": 97.9962,
      "duration": 0.2781,
      "velocity": 104,
      "chip": "ym2612"
    },
    {
      "channel": 3,
      "note": 69,
      "start": 97.9965,
      "duration": 0.5103,
      "velocity": 100,
      "chip": "ym2612"
    },
    {
      "channel": 4,
      "note": 68,
      "start": 97.9968,
      "duration": 0.0917,
      "velocity": 100,
      "chip": "ym2612"
    },
    {
      "channel": 5,
      "note": 68,
      "start": 97.9971,
      "duration": 0.1385,
      "velocity": 127,
      "chip": "ym2612"
    },
    {
      "channel": 4,
      "note": 69,
      "start": 98.1353,
      "duration": 0.5109,
      "velocity": 100,
      "chip": "ym2612"
    },
    {
      "channel": 5,
      "note": 68,
      "start": 98.2748,
      "duration": 0.1395,
      "velocity": 127,
      "chip": "ym2612"
    },
    {
      "channel": 5,
      "note": 68,
      "start": 98.4143,
      "duration": 0.0462,
      "velocity": 127,
      "chip": "ym2612"
    },
    {
      "channel": 5,
      "note": 68,
      "start": 98.4606,
      "duration": 0.0466,
      "velocity": 127,
      "chip": "ym2612"
    },
    {
      "channel": 5,
      "note": 68,
      "start": 98.5073,
      "duration": 0.0468,
      "velocity": 127,
      "chip": "ym2612"
    },
    {
      "channel": 0,
      "note": 54,
      "start": 98.553,
      "duration": 0.3712,
      "velocity": 115,
      "chip": "ym2612"
    },
    {
      "channel": 1,
      "note": 57,
      "start": 98.5533,
      "duration": 0.3712,
      "velocity": 115,
      "chip": "ym2612"
    },
    {
      "channel": 2,
      "note": 62,
      "start": 98.5535,
      "duration": 0.2782,
      "velocity": 104,
      "chip": "ym2612"
    },
    {
      "channel": 3,
      "note": 69,
      "start": 98.5537,
      "duration": 0.3709,
      "velocity": 100,
      "chip": "ym2612"
    },
    {
      "channel": 5,
      "note": 68,
      "start": 98.5542,
      "duration": 0.1386,
      "velocity": 127,
      "chip": "ym2612"
    },
    {
      "channel": 4,
      "note": 69,
      "start": 98.6924,
      "duration": 0.3714,
      "velocity": 100,
      "chip": "ym2612"
    },
    {
      "channel": 5,
      "note": 68,
      "start": 98.6928,
      "duration": 0.1391,
      "velocity": 127,
      "chip": "ym2612"
    },
    {
      "channel": 0,
      "note": 54,
      "start": 98.9706,
      "duration": 0.0926,
      "velocity": 115,
      "chip": "ym2612"
    },
    {
      "channel": 1,
      "note": 57,
      "start": 98.9709,
      "duration": 0.0925,
      "velocity": 115,
      "chip": "ym2612"
    },
    {
      "channel": 3,
      "note": 66,
      "start": 98.9712,
      "duration": 0.0923,
      "velocity": 100,
      "chip": "ym2612"
    },
    {
      "channel": 5,
      "note": 68,
      "start": 98.9716,
      "duration": 0.1395,
      "velocity": 127,
      "chip": "ym2612"
    },
    {
      "channel": 0,
      "note": 52,
      "start": 99.1098,
      "duration": 1.0684,
      "velocity": 115,
      "chip": "ym2612"
    },
    {
      "channel": 1,
      "note": 57,
      "start": 99.11,
      "duration": 1.0685,
      "velocity": 115,
      "chip": "ym2612"
    },
    {
      "channel": 2,
      "note": 61,
      "start": 99.1103,
      "duration": 0.2785,
      "velocity": 104,
      "chip": "ym2612"
    },
    {
      "channel": 3,
      "note": 64,
      "start": 99.1106,
      "duration": 0.5106,
      "velocity": 100,
      "chip": "ym2612"
    },
    {
      "channel": 4,
      "note": 66,
      "start": 99.1109,
      "duration": 0.0919,
      "velocity": 100,
      "chip": "ym2612"
    },
    {
      "channel": 5,
      "note": 68,
      "start": 99.1113,
      "duration": 0.1386,
      "velocity": 127,
      "chip": "ym2612"
    },
    {
      "channel": 4,
      "note": 64,
      "start": 99.2497,
      "duration": 0.5112,
      "velocity": 100,
      "chip": "ym2612"
    },
    {
      "channel": 5,
      "note": 68,
      "start": 99.3892,
      "duration": 0.1397,
      "velocity": 127,
      "chip": "ym2612"
    },
    {
      "channel": 5,
      "note": 68,
      "start": 99.5289,
      "duration": 0.1394,
      "velocity": 127,
      "chip": "ym2612"
    },
    {
      "channel": 2,
      "note": 61,
      "start": 99.6676,
      "duration": 0.2013,
      "velocity": 104,
      "chip": "ym2612"
    },
    {
      "channel": 3,
      "note": 59,
      "start": 99.6679,
      "duration": 0.0927,
      "velocity": 100,
      "chip": "ym2612"
    },
    {
      "channel": 5,
      "note": 68,
      "start": 99.6684,
      "duration": 0.1395,
      "velocity": 127,
      "chip": "ym2612"
    },
    {
      "channel": 3,
      "note": 61,
      "start": 99.8072,
      "duration": 0.0927,
      "velocity": 100,
      "chip": "ym2612"
    },
    {
      "channel": 4,
      "note": 59,
      "start": 99.8075,
      "duration": 0.0925,
      "velocity": 100,
      "chip": "ym2612"
    },
    {
      "channel": 5,
      "note": 68,
      "start": 99.8078,
      "duration": 0.1393,
      "velocity": 127,
      "chip": "ym2612"
    },
    {
      "channel": 3,
      "note": 62,
      "start": 99.9467,
      "duration": 0.0926,
      "velocity": 100,
      "chip": "ym2612"
    },
    {
      "channel": 4,
      "note": 61,
      "start": 99.947,
      "duration": 0.0925,
      "velocity": 100,
      "chip": "ym2612"
    },
    {
      "channel": 5,
      "note": 68,
      "start": 99.9473,
      "duration": 0.1393,
      "velocity": 127,
      "chip": "ym2612"
    },
    {
      "channel": 2,
      "note": 61,
      "start": 100.0857,
      "duration": 0.0618,
      "velocity": 104,
      "chip": "ym2612"
    },
    {
      "channel": 3,
      "note": 64,
      "start": 100.086,
      "duration": 0.0926,
      "velocity": 100,
      "chip": "ym2612"
    },
    {
      "channel": 4,
      "note": 62,
      "start": 100.0863,
      "duration": 0.0924,
      "velocity": 100,
      "chip": "ym2612"
    },
    {
      "channel": 5,
      "note": 68,
      "start": 100.0866,
      "duration": 0.1395,
      "velocity": 127,
      "chip": "ym2612"
    },
    {
      "channel": 0,
      "note": 54,
      "start": 100.2247,
      "duration": 0.5111,
      "velocity": 115,
      "chip": "ym2612"
    },
    {
      "channel": 1,
      "note": 59,
      "start": 100.2249,
      "duration": 0.5111,
      "velocity": 115,
      "chip": "ym2612"
    },
    {
      "channel": 2,
      "note": 59,
      "start": 100.2252,
      "duration": 0.2781,
      "velocity": 104,
      "chip": "ym2612"
    },
    {
      "channel": 3,
      "note": 66,
      "start": 100.2256,
      "duration": 0.5108,
      "velocity": 100,
      "chip": "ym2612"
    },
    {
      "channel": 4,
      "note": 64,
      "start": 100.2259,
      "duration": 0.0918,
      "velocity": 100,
      "chip": "ym2612"
    },
    {
      "channel": 5,
      "note": 68,
      "start": 100.2262,
      "duration": 0.1385,
      "velocity": 127,
      "chip": "ym2612"
    },
    {
      "channel": 4,
      "note": 66,
      "start": 100.3644,
      "duration": 0.5108,
      "velocity": 100,
      "chip": "ym2612"
    },
    {
      "channel": 5,
      "note": 68,
      "start": 100.5039,
      "duration": 0.1397,
      "velocity": 127,
      "chip": "ym2612"
    },
    {
      "channel": 5,
      "note": 68,
      "start": 100.6437,
      "duration": 0.0461,
      "velocity": 127,
      "chip": "ym2612"
    },
    {
      "channel": 5,
      "note": 68,
      "start": 100.6898,
      "duration": 0.0471,
      "velocity": 127,
      "chip": "ym2612"
    },
    {
      "channel": 5,
      "note": 68,
      "start": 100.7369,
      "duration": 0.0464,
      "velocity": 127,
      "chip": "ym2612"
    },
    {
      "channel": 0,
      "note": 54,
      "start": 100.7822,
      "duration": 0.3716,
      "velocity": 115,
      "chip": "ym2612"
    },
    {
      "channel": 1,
      "note": 59,
      "start": 100.7825,
      "duration": 0.3714,
      "velocity": 115,
      "chip": "ym2612"
    },
    {
      "channel": 2,
      "note": 59,
      "start": 100.7827,
      "duration": 0.2784,
      "velocity": 104,
      "chip": "ym2612"
    },
    {
      "channel": 3,
      "note": 66,
      "start": 100.783,
      "duration": 0.3712,
      "velocity": 100,
      "chip": "ym2612"
    },
    {
      "channel": 5,
      "note": 68,
      "start": 100.7834,
      "duration": 0.1385,
      "velocity": 127,
      "chip": "ym2612"
    },
    {
      "channel": 4,
      "note": 66,
      "start": 100.9216,
      "duration": 0.3718,
      "velocity": 100,
      "chip": "ym2612"
    },
    {
      "channel": 5,
      "note": 68,
      "start": 100.922,
      "duration": 0.1395,
      "velocity": 127,
      "chip": "ym2612"
    },
    {
      "channel": 0,
      "note": 54,
      "start": 101.2001,
      "duration": 0.0927,
      "velocity": 115,
      "chip": "ym2612"
    },
    {
      "channel": 1,
      "note": 59,
      "start": 101.2003,
      "duration": 0.0927,
      "velocity": 115,
      "chip": "ym2612"
    },
    {
      "channel": 3,
      "note": 62,
      "start": 101.2007,
      "duration": 0.0925,
      "velocity": 100,
      "chip": "ym2612"
    },
    {
      "channel": 5,
      "note": 68,
      "start": 101.2012,
      "duration": 0.1397,
      "velocity": 127,
      "chip": "ym2612"
    },
    {
      "channel": 0,
      "note": 55,
      "start": 101.3397,
      "duration": 1.0679,
      "velocity": 115,
      "chip": "ym2612"
    },
    {
      "channel": 1,
      "note": 59,
      "start": 101.3398,
      "duration": 1.068,
      "velocity": 115,
      "chip": "ym2612"
    },
    {
      "channel": 2,
      "note": 55,
      "start": 101.3401,
      "duration": 0.2783,
      "velocity": 104,
      "chip": "ym2612"
    },
    {
      "channel": 3,
      "note": 59,
      "start": 101.3403,
      "duration": 0.5106,
      "velocity": 100,
      "chip": "ym2612"
    },
    {
      "channel": 4,
      "note": 62,
      "start": 101.3406,
      "duration": 0.0919,
      "velocity": 100,
      "chip": "ym2612"
    },
    {
      "channel": 5,
      "note": 68,
      "start": 101.341,
      "duration": 0.1385,
      "velocity": 127,
      "chip": "ym2612"
    },
    {
      "channel": 4,
      "note": 59,
      "start": 101.4793,
      "duration": 0.5108,
      "velocity": 100,
      "chip": "ym2612"
    },
    {
      "channel": 5,
      "note": 68,
      "start": 101.6189,
      "duration": 0.1396,
      "velocity": 127,
      "chip": "ym2612"
    },
    {
      "channel": 5,
      "note": 68,
      "start": 101.7585,
      "duration": 0.1393,
      "velocity": 127,
      "chip": "ym2612"
    },
    {
      "channel": 2,
      "note": 55,
      "start": 101.897,
      "duration": 0.2788,
      "velocity": 104,
      "chip": "ym2612"
    },
    {
      "channel": 3,
      "note": 62,
      "start": 101.8973,
      "duration": 0.0925,
      "velocity": 100,
      "chip": "ym2612"
    },
    {
      "channel": 5,
      "note": 68,
      "start": 101.8978,
      "duration": 0.1393,
      "velocity": 127,
      "chip": "ym2612"
    },
    {
      "channel": 3,
      "note": 64,
      "start": 102.0365,
      "duration": 0.0927,
      "velocity": 100,
      "chip": "ym2612"
    },
    {
      "channel": 4,
      "note": 62,
      "start": 102.0368,
      "duration": 0.0925,
      "velocity": 100,
      "chip": "ym2612"
    },
    {
      "channel": 5,
      "note": 68,
      "start": 102.0371,
      "duration": 0.1394,
      "velocity": 127,
      "chip": "ym2612"
    },
    {
      "channel": 3,
      "note": 66,
      "start": 102.176,
      "duration": 0.0928,
      "velocity": 100,
      "chip": "ym2612"
    },
    {
      "channel": 4,
      "note": 64,
      "start": 102.1763,
      "duration": 0.0926,
      "velocity": 100,
      "chip": "ym2612"
    },
    {
      "channel": 5,
      "note": 68,
      "start": 102.1766,
      "duration": 0.1393,
      "velocity": 127,
      "chip": "ym2612"
    },
    {
      "channel": 3,
      "note": 68,
      "start": 102.3153,
      "duration": 0.0927,
      "velocity": 100,
      "chip": "ym2612"
    },
    {
      "channel": 4,
      "note": 66,
      "start": 102.3155,
      "duration": 0.0926,
      "velocity": 100,
      "chip": "ym2612"
    },
    {
      "channel": 5,
      "note": 68,
      "start": 102.3158,
      "duration": 0.1398,
      "velocity": 127,
      "chip": "ym2612"
    },
    {
      "channel": 0,
      "note": 54,
      "start": 102.4542,
      "duration": 0.5106,
      "velocity": 115,
      "chip": "ym2612"
    },
    {
      "channel": 1,
      "note": 59,
      "start": 102.4544,
      "duration": 0.5105,
      "velocity": 115,
      "chip": "ym2612"
    },
    {
      "channel": 2,
      "note": 59,
      "start": 102.4548,
      "duration": 0.2779,
      "velocity": 104,
      "chip": "ym2612"
    },
    {
      "channel": 3,
      "note": 69,
      "start": 102.4551,
      "duration": 0.5102,
      "velocity": 100,
      "chip": "ym2612"
    },
    {
      "channel": 4,
      "note": 68,
      "start": 102.4553,
      "duration": 0.0917,
      "velocity": 100,
      "chip": "ym2612"
    },
    {
      "channel": 5,
      "note": 68,
      "start": 102.4556,
      "duration": 0.1382,
      "velocity": 127,
      "chip": "ym2612"
    },
    {
      "channel": 4,
      "note": 69,
      "start": 102.5937,
      "duration": 0.5104,
      "velocity": 100,
      "chip": "ym2612"
    },
    {
      "channel": 5,
      "note": 68,
      "start": 102.733,
      "duration": 0.1397,
      "velocity": 127,
      "chip": "ym2612"
    },
    {
      "channel": 5,
      "note": 68,
      "start": 102.8728,
      "duration": 0.046,
      "velocity": 127,
      "chip": "ym2612"
    },
    {
      "channel": 5,
      "note": 68,
      "start": 102.9188,
      "duration": 0.047,
      "velocity": 127,
      "chip": "ym2612"
    },
    {
      "channel": 5,
      "note": 68,
      "start": 102.9658,
      "duration": 0.0466,
      "velocity": 127,
      "chip": "ym2612"
    },
    {
      "channel": 0,
      "note": 54,
      "start": 103.0112,
      "duration": 0.3715,
      "velocity": 115,
      "chip": "ym2612"
    },
    {
      "channel": 1,
      "note": 59,
      "start": 103.0114,
      "duration": 0.3715,
      "velocity": 115,
      "chip": "ym2612"
    },
    {
      "channel": 2,
      "note": 59,
      "start": 103.0116,
      "duration": 0.2783,
      "velocity": 104,
      "chip": "ym2612"
    },
    {
      "channel": 3,
      "note": 69,
      "start": 103.0119,
      "duration": 0.3712,
      "velocity": 100,
      "chip": "ym2612"
    },
    {
      "channel": 5,
      "note": 68,
      "start": 103.0124,
      "duration": 0.1387,
      "velocity": 127,
      "chip": "ym2612"
    },
    {
      "channel": 4,
      "note": 69,
      "start": 103.1507,
      "duration": 0.3713,
      "velocity": 100,
      "chip": "ym2612"
    },
    {
      "channel": 5,
      "note": 68,
      "start": 103.1511,
      "duration": 0.139,
      "velocity": 127,
      "chip": "ym2612"
    },
    {
      "channel": 0,
      "note": 54,
      "start": 103.429,
      "duration": 0.0924,
      "velocity": 115,
      "chip": "ym2612"
    },
    {
      "channel": 1,
      "note": 59,
      "start": 103.4292,
      "duration": 0.0924,
      "velocity": 115,
      "chip": "ym2612"
    },
    {
      "channel": 3,
      "note": 71,
      "start": 103.4295,
      "duration": 0.0921,
      "velocity": 100,
      "chip": "ym2612"
    },
    {
      "channel": 5,
      "note": 68,
      "start": 103.4301,
      "duration": 0.1394,
      "velocity": 127,
      "chip": "ym2612"
    },
    {
      "channel": 0,
      "note": 56,
      "start": 103.5683,
      "duration": 1.0679,
      "velocity": 115,
      "chip": "ym2612"
    },
    {
      "channel": 1,
      "note": 59,
      "start": 103.5685,
      "duration": 1.068,
      "velocity": 115,
      "chip": "ym2612"
    },
    {
      "channel": 2,
      "note": 64,
      "start": 103.5687,
      "duration": 0.2783,
      "velocity": 104,
      "chip": "ym2612"
    },
    {
      "channel": 3,
      "note": 68,
      "start": 103.569,
      "duration": 0.2315,
      "velocity": 100,
      "chip": "ym2612"
    },
    {
      "channel": 4,
      "note": 71,
      "start": 103.5693,
      "duration": 0.092,
      "velocity": 100,
      "chip": "ym2612"
    },
    {
      "channel": 5,
      "note": 68,
      "start": 103.5696,
      "duration": 0.1384,
      "velocity": 127,
      "chip": "ym2612"
    },
    {
      "channel": 4,
      "note": 68,
      "start": 103.7078,
      "duration": 0.2325,
      "velocity": 100,
      "chip": "ym2612"
    },
    {
      "channel": 3,
      "note": 66,
      "start": 103.8473,
      "duration": 0.2321,
      "velocity": 100,
      "chip": "ym2612"
    },
    {
      "channel": 5,
      "note": 68,
      "start": 103.8477,
      "duration": 0.1393,
      "velocity": 127,
      "chip": "ym2612"
    },
    {
      "channel": 4,
      "note": 66,
      "start": 103.9868,
      "duration": 0.2322,
      "velocity": 100,
      "chip": "ym2612"
    },
    {
      "channel": 5,
      "note": 68,
      "start": 103.9871,
      "duration": 0.1393,
      "velocity": 127,
      "chip": "ym2612"
    },
    {
      "channel": 2,
      "note": 64,
      "start": 104.1258,
      "duration": 0.2788,
      "velocity": 104,
      "chip": "ym2612"
    },
    {
      "channel": 3,
      "note": 64,
      "start": 104.1261,
      "duration": 0.0462,
      "velocity": 100,
      "chip": "ym2612"
    },
    {
      "channel": 5,
      "note": 68,
      "start": 104.1265,
      "duration": 0.1394,
      "velocity": 127,
      "chip": "ym2612"
    },
    {
      "channel": 3,
      "note": 66,
      "start": 104.2188,
      "duration": 0.0465,
      "velocity": 100,
      "chip": "ym2612"
    },
    {
      "channel": 4,
      "note": 64,
      "start": 104.2656,
      "duration": 0.0463,
      "velocity": 100,
      "chip": "ym2612"
    },
    {
      "channel": 5,
      "note": 68,
      "start": 104.266,
      "duration": 0.1391,
      "velocity": 127,
      "chip": "ym2612"
    },
    {
      "channel": 3,
      "note": 64,
      "start": 104.3118,
      "duration": 0.0464,
      "velocity": 100,
      "chip": "ym2612"
    },
    {
      "channel": 4,
      "note": 66,
      "start": 104.3584,
      "duration": 0.0465,
      "velocity": 100,
      "chip": "ym2612"
    },
    {
      "channel": 3,
      "note": 62,
      "start": 104.4048,
      "duration": 0.0925,
      "velocity": 100,
      "chip": "ym2612"
    },
    {
      "channel": 5,
      "note": 68,
      "start": 104.4051,
      "duration": 0.1393,
      "velocity": 127,
      "chip": "ym2612"
    },
    {
      "channel": 4,
      "note": 64,
      "start": 104.4513,
      "duration": 0.0462,
      "velocity": 100,
      "chip": "ym2612"
    },
    {
      "channel": 3,
      "note": 64,
      "start": 104.5439,
      "duration": 0.0926,
      "velocity": 100,
      "chip": "ym2612"
    },
    {
      "channel": 4,
      "note": 62,
      "start": 104.5442,
      "duration": 0.0926,
      "velocity": 100,
      "chip": "ym2612"
    },
    {
      "channel": 5,
      "note": 68,
      "start": 104.5446,
      "duration": 0.1395,
      "velocity": 127,
      "chip": "ym2612"
    },
    {
      "channel": 0,
      "note": 54,
      "start": 104.6828,
      "duration": 0.5104,
      "velocity": 115,
      "chip": "ym2612"
    },
    {
      "channel": 1,
      "note": 59,
      "start": 104.6831,
      "duration": 0.5103,
      "velocity": 115,
      "chip": "ym2612"
    },
    {
      "channel": 2,
      "note": 66,
      "start": 104.6833,
      "duration": 0.2782,
      "velocity": 104,
      "chip": "ym2612"
    },
    {
      "channel": 3,
      "note": 66,
      "start": 104.6835,
      "duration": 1.3455,
      "velocity": 100,
      "chip": "ym2612"
    },
    {
      "channel": 4,
      "note": 64,
      "start": 104.6838,
      "duration": 0.0918,
      "velocity": 100,
      "chip": "ym2612"
    },
    {
      "channel": 5,
      "note": 68,
      "start": 104.6841,
      "duration": 0.1382,
      "velocity": 127,
      "chip": "ym2612"
    },
    {
      "channel": 4,
      "note": 66,
      "start": 104.822,
      "duration": 1.2072,
      "velocity": 100,
      "chip": "ym2612"
    },
    {
      "channel": 5,
      "note": 68,
      "start": 104.9619,
      "duration": 0.1391,
      "velocity": 127,
      "chip": "ym2612"
    },
    {
      "channel": 5,
      "note": 68,
      "start": 105.1011,
      "duration": 0.0463,
      "velocity": 127,
      "chip": "ym2612"
    },
    {
      "channel": 5,
      "note": 68,
      "start": 105.1474,
      "duration": 0.0466,
      "velocity": 127,
      "chip": "ym2612"
    },
    {
      "channel": 5,
      "note": 68,
      "start": 105.194,
      "duration": 0.0466,
      "velocity": 127,
      "chip": "ym2612"
    },
    {
      "channel": 0,
      "note": 54,
      "start": 105.2394,
      "duration": 0.2322,
      "velocity": 115,
      "chip": "ym2612"
    },
    {
      "channel": 1,
      "note": 59,
      "start": 105.2397,
      "duration": 0.2321,
      "velocity": 115,
      "chip": "ym2612"
    },
    {
      "channel": 2,
      "note": 61,
      "start": 105.24,
      "duration": 0.2782,
      "velocity": 104,
      "chip": "ym2612"
    },
    {
      "channel": 5,
      "note": 68,
      "start": 105.2407,
      "duration": 0.1388,
      "velocity": 127,
      "chip": "ym2612"
    },
    {
      "channel": 5,
      "note": 68,
      "start": 105.3794,
      "duration": 0.139,
      "velocity": 127,
      "chip": "ym2612"
    },
    {
      "channel": 0,
      "note": 54,
      "start": 105.5179,
      "duration": 0.0928,
      "velocity": 115,
      "chip": "ym2612"
    },
    {
      "channel": 1,
      "note": 59,
      "start": 105.518,
      "duration": 0.0929,
      "velocity": 115,
      "chip": "ym2612"
    },
    {
      "channel": 0,
      "note": 54,
      "start": 105.6573,
      "duration": 0.0927,
      "velocity": 115,
      "chip": "ym2612"
    },
    {
      "channel": 1,
      "note": 59,
      "start": 105.6575,
      "duration": 0.0927,
      "velocity": 115,
      "chip": "ym2612"
    },
    {
      "channel": 5,
      "note": 68,
      "start": 105.6582,
      "duration": 0.0462,
      "velocity": 127,
      "chip": "ym2612"
    },
    {
      "channel": 5,
      "note": 68,
      "start": 105.7044,
      "duration": 0.0465,
      "velocity": 127,
      "chip": "ym2612"
    },
    {
      "channel": 5,
      "note": 68,
      "start": 105.751,
      "duration": 0.0466,
      "velocity": 127,
      "chip": "ym2612"
    },
    {
      "channel": 0,
      "note": 54,
      "start": 105.7966,
      "duration": 1.0677,
      "velocity": 115,
      "chip": "ym2612"
    },
    {
      "channel": 1,
      "note": 61,
      "start": 105.7969,
      "duration": 1.0676,
      "velocity": 115,
      "chip": "ym2612"
    },
    {
      "channel": 2,
      "note": 66,
      "start": 105.7971,
      "duration": 0.2784,
      "velocity": 104,
      "chip": "ym2612"
    },
    {
      "channel": 5,
      "note": 68,
      "start": 105.7977,
      "duration": 0.1388,
      "velocity": 127,
      "chip": "ym2612"
    },
    {
      "channel": 5,
      "note": 68,
      "start": 105.9365,
      "duration": 0.1398,
      "velocity": 127,
      "chip": "ym2612"
    },
    {
      "channel": 5,
      "note": 68,
      "start": 106.0764,
      "duration": 0.1388,
      "velocity": 127,
      "chip": "ym2612"
    },
    {
      "channel": 5,
      "note": 68,
      "start": 106.2152,
      "duration": 0.143,
      "velocity": 127,
      "chip": "ym2612"
    },
    {
      "channel": 2,
      "note": 54,
      "start": 106.3539,
      "duration": 0.201,
      "velocity": 104,
      "chip": "ym2612"
    },
    {
      "channel": 3,
      "note": 66,
      "start": 106.3563,
      "duration": 0.0903,
      "velocity": 112,
      "chip": "ym2612"
    },
    {
      "channel": 5,
      "note": 68,
      "start": 106.3582,
      "duration": 0.1358,
      "velocity": 127,
      "chip": "ym2612"
    },
    {
      "channel": 3,
      "note": 69,
      "start": 106.4934,
      "duration": 0.0927,
      "velocity": 112,
      "chip": "ym2612"
    },
    {
      "channel": 4,
      "note": 66,
      "start": 106.4937,
      "duration": 0.0924,
      "velocity": 112,
      "chip": "ym2612"
    },
    {
      "channel": 5,
      "note": 68,
      "start": 106.494,
      "duration": 0.1391,
      "velocity": 127,
      "chip": "ym2612"
    },
    {
      "channel": 3,
      "note": 71,
      "start": 106.6326,
      "duration": 0.0926,
      "velocity": 112,
      "chip": "ym2612"
    },
    {
      "channel": 4,
      "note": 69,
      "start": 106.6329,
      "duration": 0.0924,
      "velocity": 112,
      "chip": "ym2612"
    },
    {
      "channel": 5,
      "note": 68,
      "start": 106.6333,
      "duration": 0.1393,
      "velocity": 127,
      "chip": "ym2612"
    },
    {
      "channel": 2,
      "note": 54,
      "start": 106.7718,
      "duration": 0.0618,
      "velocity": 104,
      "chip": "ym2612"
    },
    {
      "channel": 3,
      "note": 73,
      "start": 106.772,
      "duration": 0.0926,
      "velocity": 112,
      "chip": "ym2612"
    },
    {
      "channel": 4,
      "note": 71,
      "start": 106.7723,
      "duration": 0.0924,
      "velocity": 112,
      "chip": "ym2612"
    },
    {
      "channel": 5,
      "note": 68,
      "start": 106.7727,
      "duration": 0.1428,
      "velocity": 127,
      "chip": "ym2612"
    },
    {
      "channel": 0,
      "note": 74,
      "start": 106.9127,
      "duration": 0.2293,
      "velocity": 106,
      "chip": "ym2612"
    },
    {
      "channel": 1,
      "note": 78,
      "start": 106.9146,
      "duration": 0.2276,
      "velocity": 106,
      "chip": "ym2612"
    },
    {
      "channel": 2,
      "note": 59,
      "start": 106.9148,
      "duration": 0.2743,
      "velocity": 104,
      "chip": "ym2612"
    },
    {
      "channel": 3,
      "note": 74,
      "start": 106.9151,
      "duration": 0.5059,
      "velocity": 112,
      "chip": "ym2612"
    },
    {
      "channel": 4,
      "note": 73,
      "start": 106.9153,
      "duration": 0.0879,
      "velocity": 112,
      "chip": "ym2612"
    },
    {
      "channel": 5,
      "note": 68,
      "start": 106.9155,
      "duration": 0.1346,
      "velocity": 127,
      "chip": "ym2612"
    },
    {
      "channel": 4,
      "note": 74,
      "start": 107.0498,
      "duration": 0.5107,
      "velocity": 112,
      "chip": "ym2612"
    },
    {
      "channel": 0,
      "note": 74,
      "start": 107.1888,
      "duration": 0.0929,
      "velocity": 106,
      "chip": "ym2612"
    },
    {
      "channel": 1,
      "note": 78,
      "start": 107.189,
      "duration": 0.0929,
      "velocity": 106,
      "chip": "ym2612"
    },
    {
      "channel": 5,
      "note": 68,
      "start": 107.1896,
      "duration": 0.1388,
      "velocity": 127,
      "chip": "ym2612"
    },
    {
      "channel": 0,
      "note": 74,
      "start": 107.3279,
      "duration": 0.0927,
      "velocity": 106,
      "chip": "ym2612"
    },
    {
      "channel": 1,
      "note": 78,
      "start": 107.328,
      "duration": 0.0928,
      "velocity": 106,
      "chip": "ym2612"
    },
    {
      "channel": 5,
      "note": 68,
      "start": 107.3284,
      "duration": 0.1402,
      "velocity": 127,
      "chip": "ym2612"
    },
    {
      "channel": 0,
      "note": 74,
      "start": 107.4673,
      "duration": 0.5108,
      "velocity": 106,
      "chip": "ym2612"
    },
    {
      "channel": 1,
      "note": 78,
      "start": 107.4675,
      "duration": 0.5108,
      "velocity": 106,
      "chip": "ym2612"
    },
    {
      "channel": 2,
      "note": 54,
      "start": 107.4678,
      "duration": 0.2781,
      "velocity": 104,
      "chip": "ym2612"
    },
    {
      "channel": 3,
      "note": 74,
      "start": 107.4681,
      "duration": 0.3707,
      "velocity": 112,
      "chip": "ym2612"
    },
    {
      "channel": 5,
      "note": 68,
      "start": 107.4686,
      "duration": 0.1388,
      "velocity": 127,
      "chip": "ym2612"
    },
    {
      "channel": 4,
      "note": 74,
      "start": 107.6071,
      "duration": 0.3715,
      "velocity": 112,
      "chip": "ym2612"
    },
    {
      "channel": 5,
      "note": 68,
      "start": 107.6075,
      "duration": 0.1388,
      "velocity": 127,
      "chip": "ym2612"
    },
    {
      "channel": 3,
      "note": 76,
      "start": 107.8857,
      "duration": 0.0928,
      "velocity": 112,
      "chip": "ym2612"
    },
    {
      "channel": 5,
      "note": 68,
      "start": 107.8859,
      "duration": 0.1401,
      "velocity": 127,
      "chip": "ym2612"
    },
    {
      "channel": 0,
      "note": 73,
      "start": 108.0247,
      "duration": 0.2321,
      "velocity": 106,
      "chip": "ym2612"
    },
    {
      "channel": 1,
      "note": 76,
      "start": 108.025,
      "duration": 0.232,
      "velocity": 106,
      "chip": "ym2612"
    },
    {
      "channel": 2,
      "note": 57,
      "start": 108.0252,
      "duration": 0.2784,
      "velocity": 104,
      "chip": "ym2612"
    },
    {
      "channel": 3,
      "note": 73,
      "start": 108.0255,
      "duration": 0.2316,
      "velocity": 112,
      "chip": "ym2612"
    },
    {
      "channel": 4,
      "note": 76,
      "start": 108.0257,
      "duration": 0.0917,
      "velocity": 112,
      "chip": "ym2612"
    },
    {
      "channel": 5,
      "note": 68,
      "start": 108.0261,
      "duration": 0.1385,
      "velocity": 127,
      "chip": "ym2612"
    },
    {
      "channel": 4,
      "note": 73,
      "start": 108.1641,
      "duration": 0.2324,
      "velocity": 112,
      "chip": "ym2612"
    },
    {
      "channel": 5,
      "note": 68,
      "start": 108.1645,
      "duration": 0.1398,
      "velocity": 127,
      "chip": "ym2612"
    },
    {
      "channel": 0,
      "note": 73,
      "start": 108.3033,
      "duration": 0.2322,
      "velocity": 106,
      "chip": "ym2612"
    },
    {
      "channel": 1,
      "note": 76,
      "start": 108.3035,
      "duration": 0.2322,
      "velocity": 106,
      "chip": "ym2612"
    },
    {
      "channel": 3,
      "note": 71,
      "start": 108.3039,
      "duration": 0.2319,
      "velocity": 112,
      "chip": "ym2612"
    },
    {
      "channel": 5,
      "note": 68,
      "start": 108.3043,
      "duration": 0.1389,
      "velocity": 127,
      "chip": "ym2612"
    },
    {
      "channel": 4,
      "note": 71,
      "start": 108.4429,
      "duration": 0.2327,
      "velocity": 112,
      "chip": "ym2612"
    },
    {
      "channel": 5,
      "note": 68,
      "start": 108.4433,
      "duration": 0.14,
      "velocity": 127,
      "chip": "ym2612"
    },
    {
      "channel": 0,
      "note": 73,
      "start": 108.5822,
      "duration": 0.5109,
      "velocity": 106,
      "chip": "ym2612"
    },
    {
      "channel": 1,
      "note": 76,
      "start": 108.5824,
      "duration": 0.5109,
      "velocity": 106,
      "chip": "ym2612"
    },
    {
      "channel": 2,
      "note": 52,
      "start": 108.5826,
      "duration": 0.139,
      "velocity": 104,
      "chip": "ym2612"
    },
    {
      "channel": 3,
      "note": 69,
      "start": 108.5829,
      "duration": 0.0457,
      "velocity": 112,
      "chip": "ym2612"
    },
    {
      "channel": 5,
      "note": 68,
      "start": 108.5832,
      "duration": 0.0926,
      "velocity": 127,
      "chip": "ym2612"
    },
    {
      "channel": 3,
      "note": 71,
      "start": 108.6755,
      "duration": 0.0462,
      "velocity": 112,
      "chip": "ym2612"
    },
    {
      "channel": 5,
      "note": 68,
      "start": 108.676,
      "duration": 0.0926,
      "velocity": 127,
      "chip": "ym2612"
    },
    {
      "channel": 4,
      "note": 69,
      "start": 108.722,
      "duration": 0.0463,
      "velocity": 112,
      "chip": "ym2612"
    },
    {
      "channel": 3,
      "note": 69,
      "start": 108.7683,
      "duration": 0.0463,
      "velocity": 112,
      "chip": "ym2612"
    },
    {
      "channel": 5,
      "note": 68,
      "start": 108.7687,
      "duration": 0.0929,
      "velocity": 127,
      "chip": "ym2612"
    },
    {
      "channel": 4,
      "note": 71,
      "start": 108.8149,
      "duration": 0.0465,
      "velocity": 112,
      "chip": "ym2612"
    },
    {
      "channel": 2,
      "note": 54,
      "start": 108.861,
      "duration": 0.1393,
      "velocity": 104,
      "chip": "ym2612"
    },
    {
      "channel": 3,
      "note": 68,
      "start": 108.8612,
      "duration": 0.0925,
      "velocity": 112,
      "chip": "ym2612"
    },
    {
      "channel": 5,
      "note": 68,
      "start": 108.8616,
      "duration": 0.0925,
      "velocity": 127,
      "chip": "ym2612"
    },
    {
      "channel": 4,
      "note": 69,
      "start": 108.9077,
      "duration": 0.0461,
      "velocity": 112,
      "chip": "ym2612"
    },
    {
      "channel": 5,
      "note": 68,
      "start": 108.9541,
      "duration": 0.0929,
      "velocity": 127,
      "chip": "ym2612"
    },
    {
      "channel": 3,
      "note": 69,
      "start": 109.0005,
      "duration": 0.093,
      "velocity": 112,
      "chip": "ym2612"
    },
    {
      "channel": 4,
      "note": 68,
      "start": 109.0009,
      "duration": 0.0927,
      "velocity": 112,
      "chip": "ym2612"
    },
    {
      "channel": 5,
      "note": 68,
      "start": 109.0471,
      "duration": 0.0939,
      "velocity": 127,
      "chip": "ym2612"
    },
    {
      "channel": 0,
      "note": 71,
      "start": 109.1397,
      "duration": 0.2319,
      "velocity": 106,
      "chip": "ym2612"
    },
    {
      "channel": 1,
      "note": 74,
      "start": 109.14,
      "duration": 0.2318,
      "velocity": 106,
      "chip": "ym2612"
    },
    {
      "channel": 2,
      "note": 55,
      "start": 109.1403,
      "duration": 0.2782,
      "velocity": 104,
      "chip": "ym2612"
    },
    {
      "channel": 3,
      "note": 71,
      "start": 109.1405,
      "duration": 0.5101,
      "velocity": 112,
      "chip": "ym2612"
    },
    {
      "channel": 4,
      "note": 69,
      "start": 109.1408,
      "duration": 0.0917,
      "velocity": 112,
      "chip": "ym2612"
    },
    {
      "channel": 5,
      "note": 68,
      "start": 109.1411,
      "duration": 0.1384,
      "velocity": 127,
      "chip": "ym2612"
    },
    {
      "channel": 4,
      "note": 71,
      "start": 109.2793,
      "duration": 0.5111,
      "velocity": 112,
      "chip": "ym2612"
    },
    {
      "channel": 0,
      "note": 71,
      "start": 109.4182,
      "duration": 0.0929,
      "velocity": 106,
      "chip": "ym2612"
    },
    {
      "channel": 1,
      "note": 74,
      "start": 109.4183,
      "duration": 0.093,
      "velocity": 106,
      "chip": "ym2612"
    },
    {
      "channel": 5,
      "note": 68,
      "start": 109.4189,
      "duration": 0.1391,
      "velocity": 127,
      "chip": "ym2612"
    },
    {
      "channel": 0,
      "note": 71,
      "start": 109.5575,
      "duration": 0.0927,
      "velocity": 106,
      "chip": "ym2612"
    },
    {
      "channel": 1,
      "note": 74,
      "start": 109.5576,
      "duration": 0.0927,
      "velocity": 106,
      "chip": "ym2612"
    },
    {
      "channel": 5,
      "note": 68,
      "start": 109.5581,
      "duration": 0.1401,
      "velocity": 127,
      "chip": "ym2612"
    },
    {
      "channel": 0,
      "note": 71,
      "start": 109.6969,
      "duration": 0.093,
      "velocity": 106,
      "chip": "ym2612"
    },
    {
      "channel": 1,
      "note": 74,
      "start": 109.6971,
      "duration": 0.0929,
      "velocity": 106,
      "chip": "ym2612"
    },
    {
      "channel": 2,
      "note": 50,
      "start": 109.6974,
      "duration": 0.2783,
      "velocity": 104,
      "chip": "ym2612"
    },
    {
      "channel": 3,
      "note": 71,
      "start": 109.6977,
      "duration": 0.3713,
      "velocity": 112,
      "chip": "ym2612"
    },
    {
      "channel": 5,
      "note": 68,
      "start": 109.6982,
      "duration": 0.1388,
      "velocity": 127,
      "chip": "ym2612"
    },
    {
      "channel": 0,
      "note": 71,
      "start": 109.8363,
      "duration": 0.2323,
      "velocity": 106,
      "chip": "ym2612"
    },
    {
      "channel": 1,
      "note": 74,
      "start": 109.8364,
      "duration": 0.2324,
      "velocity": 106,
      "chip": "ym2612"
    },
    {
      "channel": 4,
      "note": 71,
      "start": 109.8368,
      "duration": 0.3719,
      "velocity": 112,
      "chip": "ym2612"
    },
    {
      "channel": 5,
      "note": 68,
      "start": 109.8371,
      "duration": 0.1392,
      "velocity": 127,
      "chip": "ym2612"
    },
    {
      "channel": 0,
      "note": 71,
      "start": 110.1153,
      "duration": 0.093,
      "velocity": 106,
      "chip": "ym2612"
    },
    {
      "channel": 1,
      "note": 74,
      "start": 110.1154,
      "duration": 0.093,
      "velocity": 106,
      "chip": "ym2612"
    },
    {
      "channel": 3,
      "note": 73,
      "start": 110.1157,
      "duration": 0.0928,
      "velocity": 112,
      "chip": "ym2612"
    },
    {
      "channel": 5,
      "note": 68,
      "start": 110.116,
      "duration": 0.1402,
      "velocity": 127,
      "chip": "ym2612"
    },
    {
      "channel": 0,
      "note": 73,
      "start": 110.2548,
      "duration": 0.2323,
      "velocity": 106,
      "chip": "ym2612"
    },
    {
      "channel": 1,
      "note": 76,
      "start": 110.255,
      "duration": 0.2322,
      "velocity": 106,
      "chip": "ym2612"
    },
    {
      "channel": 2,
      "note": 54,
      "start": 110.2553,
      "duration": 0.2785,
      "velocity": 104,
      "chip": "ym2612"
    },
    {
      "channel": 3,
      "note": 69,
      "start": 110.2556,
      "duration": 0.5103,
      "velocity": 112,
      "chip": "ym2612"
    },
    {
      "channel": 4,
      "note": 73,
      "start": 110.2559,
      "duration": 0.0918,
      "velocity": 112,
      "chip": "ym2612"
    },
    {
      "channel": 5,
      "note": 68,
      "start": 110.2562,
      "duration": 0.1387,
      "velocity": 127,
      "chip": "ym2612"
    },
    {
      "channel": 4,
      "note": 69,
      "start": 110.3946,
      "duration": 0.5109,
      "velocity": 112,
      "chip": "ym2612"
    },
    {
      "channel": 5,
      "note": 68,
      "start": 110.3949,
      "duration": 0.1392,
      "velocity": 127,
      "chip": "ym2612"
    },
    {
      "channel": 0,
      "note": 73,
      "start": 110.5335,
      "duration": 0.232,
      "velocity": 106,
      "chip": "ym2612"
    },
    {
      "channel": 1,
      "note": 76,
      "start": 110.5337,
      "duration": 0.2319,
      "velocity": 106,
      "chip": "ym2612"
    },
    {
      "channel": 5,
      "note": 68,
      "start": 110.5343,
      "duration": 0.139,
      "velocity": 127,
      "chip": "ym2612"
    },
    {
      "channel": 5,
      "note": 68,
      "start": 110.6734,
      "duration": 0.14,
      "velocity": 127,
      "chip": "ym2612"
    },
    {
      "channel": 0,
      "note": 73,
      "start": 110.8122,
      "duration": 0.5104,
      "velocity": 106,
      "chip": "ym2612"
    },
    {
      "channel": 1,
      "note": 76,
      "start": 110.8124,
      "duration": 0.5104,
      "velocity": 106,
      "chip": "ym2612"
    },
    {
      "channel": 2,
      "note": 57,
      "start": 110.8127,
      "duration": 0.1387,
      "velocity": 104,
      "chip": "ym2612"
    },
    {
      "channel": 3,
      "note": 66,
      "start": 110.8129,
      "duration": 0.0922,
      "velocity": 112,
      "chip": "ym2612"
    },
    {
      "channel": 5,
      "note": 68,
      "start": 110.8134,
      "duration": 0.0923,
      "velocity": 127,
      "chip": "ym2612"
    },
    {
      "channel": 5,
      "note": 68,
      "start": 110.9058,
      "duration": 0.0924,
      "velocity": 127,
      "chip": "ym2612"
    },
    {
      "channel": 3,
      "note": 69,
      "start": 110.9516,
      "duration": 0.0925,
      "velocity": 112,
      "chip": "ym2612"
    },
    {
      "channel": 4,
      "note": 66,
      "start": 110.9519,
      "duration": 0.0923,
      "velocity": 112,
      "chip": "ym2612"
    },
    {
      "channel": 5,
      "note": 68,
      "start": 110.9982,
      "duration": 0.0932,
      "velocity": 127,
      "chip": "ym2612"
    },
    {
      "channel": 2,
      "note": 57,
      "start": 111.0906,
      "duration": 0.1392,
      "velocity": 104,
      "chip": "ym2612"
    },
    {
      "channel": 3,
      "note": 71,
      "start": 111.0909,
      "duration": 0.0925,
      "velocity": 112,
      "chip": "ym2612"
    },
    {
      "channel": 4,
      "note": 69,
      "start": 111.0912,
      "duration": 0.0924,
      "velocity": 112,
      "chip": "ym2612"
    },
    {
      "channel": 5,
      "note": 68,
      "start": 111.0914,
      "duration": 0.0924,
      "velocity": 127,
      "chip": "ym2612"
    },
    {
      "channel": 5,
      "note": 68,
      "start": 111.184,
      "duration": 0.0927,
      "velocity": 127,
      "chip": "ym2612"
    },
    {
      "channel": 3,
      "note": 73,
      "start": 111.23,
      "duration": 0.0929,
      "velocity": 112,
      "chip": "ym2612"
    },
    {
      "channel": 4,
      "note": 71,
      "start": 111.2303,
      "duration": 0.0927,
      "velocity": 112,
      "chip": "ym2612"
    },
    {
      "channel": 5,
      "note": 68,
      "start": 111.2768,
      "duration": 0.0939,
      "velocity": 127,
      "chip": "ym2612"
    },
    {
      "channel": 0,
      "note": 74,
      "start": 111.3693,
      "duration": 0.2321,
      "velocity": 106,
      "chip": "ym2612"
    },
    {
      "channel": 1,
      "note": 78,
      "start": 111.3695,
      "duration": 0.232,
      "velocity": 106,
      "chip": "ym2612"
    },
    {
      "channel": 2,
      "note": 59,
      "start": 111.3698,
      "duration": 0.278,
      "velocity": 104,
      "chip": "ym2612"
    },
    {
      "channel": 3,
      "note": 74,
      "start": 111.3701,
      "duration": 0.5102,
      "velocity": 112,
      "chip": "ym2612"
    },
    {
      "channel": 4,
      "note": 73,
      "start": 111.3704,
      "duration": 0.0918,
      "velocity": 112,
      "chip": "ym2612"
    },
    {
      "channel": 5,
      "note": 68,
      "start": 111.3707,
      "duration": 0.1385,
      "velocity": 127,
      "chip": "ym2612"
    },
    {
      "channel": 4,
      "note": 74,
      "start": 111.509,
      "duration": 0.5107,
      "velocity": 112,
      "chip": "ym2612"
    },
    {
      "channel": 0,
      "note": 74,
      "start": 111.6476,
      "duration": 0.0929,
      "velocity": 106,
      "chip": "ym2612"
    },
    {
      "channel": 1,
      "note": 78,
      "start": 111.6478,
      "duration": 0.0929,
      "velocity": 106,
      "chip": "ym2612"
    },
    {
      "channel": 5,
      "note": 68,
      "start": 111.6484,
      "duration": 0.1393,
      "velocity": 127,
      "chip": "ym2612"
    },
    {
      "channel": 0,
      "note": 74,
      "start": 111.7872,
      "duration": 0.0926,
      "velocity": 106,
      "chip": "ym2612"
    },
    {
      "channel": 1,
      "note": 78,
      "start": 111.7873,
      "duration": 0.0926,
      "velocity": 106,
      "chip": "ym2612"
    },
    {
      "channel": 5,
      "note": 68,
      "start": 111.7878,
      "duration": 0.1399,
      "velocity": 127,
      "chip": "ym2612"
    },
    {
      "channel": 0,
      "note": 74,
      "start": 111.9263,
      "duration": 0.5109,
      "velocity": 106,
      "chip": "ym2612"
    },
    {
      "channel": 1,
      "note": 78,
      "start": 111.9265,
      "duration": 0.5109,
      "velocity": 106,
      "chip": "ym2612"
    },
    {
      "channel": 2,
      "note": 54,
      "start": 111.9269,
      "duration": 0.2784,
      "velocity": 104,
      "chip": "ym2612"
    },
    {
      "channel": 3,
      "note": 74,
      "start": 111.9272,
      "duration": 0.3711,
      "velocity": 112,
      "chip": "ym2612"
    },
    {
      "channel": 5,
      "note": 68,
      "start": 111.9277,
      "duration": 0.1386,
      "velocity": 127,
      "chip": "ym2612"
    },
    {
      "channel": 4,
      "note": 74,
      "start": 112.066,
      "duration": 0.3718,
      "velocity": 112,
      "chip": "ym2612"
    },
    {
      "channel": 5,
      "note": 68,
      "start": 112.0663,
      "duration": 0.1394,
      "velocity": 127,
      "chip": "ym2612"
    },
    {
      "channel": 3,
      "note": 76,
      "start": 112.3448,
      "duration": 0.0928,
      "velocity": 112,
      "chip": "ym2612"
    },
    {
      "channel": 5,
      "note": 68,
      "start": 112.3451,
      "duration": 0.1403,
      "velocity": 127,
      "chip": "ym2612"
    },
    {
      "channel": 0,
      "note": 73,
      "start": 112.4841,
      "duration": 0.2321,
      "velocity": 106,
      "chip": "ym2612"
    },
    {
      "channel": 1,
      "note": 76,
      "start": 112.4844,
      "duration": 0.232,
      "velocity": 106,
      "chip": "ym2612"
    },
    {
      "channel": 2,
      "note": 57,
      "start": 112.4846,
      "duration": 0.2783,
      "velocity": 104,
      "chip": "ym2612"
    },
    {
      "channel": 3,
      "note": 73,
      "start": 112.4849,
      "duration": 0.2317,
      "velocity": 112,
      "chip": "ym2612"
    },
    {
      "channel": 4,
      "note": 76,
      "start": 112.4852,
      "duration": 0.0917,
      "velocity": 112,
      "chip": "ym2612"
    },
    {
      "channel": 5,
      "note": 68,
      "start": 112.4855,
      "duration": 0.1385,
      "velocity": 127,
      "chip": "ym2612"
    },
    {
      "channel": 4,
      "note": 73,
      "start": 112.6237,
      "duration": 0.2321,
      "velocity": 112,
      "chip": "ym2612"
    },
    {
      "channel": 5,
      "note": 68,
      "start": 112.624,
      "duration": 0.1396,
      "velocity": 127,
      "chip": "ym2612"
    },
    {
      "channel": 0,
      "note": 73,
      "start": 112.7627,
      "duration": 0.0928,
      "velocity": 106,
      "chip": "ym2612"
    },
    {
      "channel": 1,
      "note": 76,
      "start": 112.7627,
      "duration": 0.0929,
      "velocity": 106,
      "chip": "ym2612"
    },
    {
      "channel": 3,
      "note": 71,
      "start": 112.7633,
      "duration": 0.2321,
      "velocity": 112,
      "chip": "ym2612"
    },
    {
      "channel": 5,
      "note": 68,
      "start": 112.7637,
      "duration": 0.1393,
      "velocity": 127,
      "chip": "ym2612"
    },
    {
      "channel": 0,
      "note": 73,
      "start": 112.9021,
      "duration": 0.0928,
      "velocity": 106,
      "chip": "ym2612"
    },
    {
      "channel": 1,
      "note": 76,
      "start": 112.9023,
      "duration": 0.0928,
      "velocity": 106,
      "chip": "ym2612"
    },
    {
      "channel": 4,
      "note": 71,
      "start": 112.9027,
      "duration": 0.2319,
      "velocity": 112,
      "chip": "ym2612"
    },
    {
      "channel": 5,
      "note": 68,
      "start": 112.903,
      "duration": 0.1396,
      "velocity": 127,
      "chip": "ym2612"
    },
    {
      "channel": 0,
      "note": 73,
      "start": 113.0414,
      "duration": 0.232,
      "velocity": 106,
      "chip": "ym2612"
    },
    {
      "channel": 1,
      "note": 81,
      "start": 113.0417,
      "duration": 0.2318,
      "velocity": 106,
      "chip": "ym2612"
    },
    {
      "channel": 2,
      "note": 54,
      "start": 113.042,
      "duration": 0.1386,
      "velocity": 104,
      "chip": "ym2612"
    },
    {
      "channel": 3,
      "note": 69,
      "start": 113.0423,
      "duration": 0.0456,
      "velocity": 112,
      "chip": "ym2612"
    },
    {
      "channel": 5,
      "note": 68,
      "start": 113.0427,
      "duration": 0.0922,
      "velocity": 127,
      "chip": "ym2612"
    },
    {
      "channel": 3,
      "note": 71,
      "start": 113.1345,
      "duration": 0.0463,
      "velocity": 112,
      "chip": "ym2612"
    },
    {
      "channel": 5,
      "note": 68,
      "start": 113.135,
      "duration": 0.0927,
      "velocity": 127,
      "chip": "ym2612"
    },
    {
      "channel": 4,
      "note": 69,
      "start": 113.1812,
      "duration": 0.0462,
      "velocity": 112,
      "chip": "ym2612"
    },
    {
      "channel": 3,
      "note": 71,
      "start": 113.2272,
      "duration": 0.0465,
      "velocity": 112,
      "chip": "ym2612"
    },
    {
      "channel": 5,
      "note": 68,
      "start": 113.2277,
      "duration": 0.0934,
      "velocity": 127,
      "chip": "ym2612"
    },
    {
      "channel": 4,
      "note": 71,
      "start": 113.2741,
      "duration": 0.0468,
      "velocity": 112,
      "chip": "ym2612"
    },
    {
      "channel": 0,
      "note": 73,
      "start": 113.3201,
      "duration": 0.2321,
      "velocity": 106,
      "chip": "ym2612"
    },
    {
      "channel": 1,
      "note": 81,
      "start": 113.3203,
      "duration": 0.2321,
      "velocity": 106,
      "chip": "ym2612"
    },
    {
      "channel": 2,
      "note": 54,
      "start": 113.3204,
      "duration": 0.139,
      "velocity": 104,
      "chip": "ym2612"
    },
    {
      "channel": 3,
      "note": 68,
      "start": 113.3207,
      "duration": 0.0924,
      "velocity": 112,
      "chip": "ym2612"
    },
    {
      "channel": 5,
      "note": 68,
      "start": 113.3211,
      "duration": 0.0925,
      "velocity": 127,
      "chip": "ym2612"
    },
    {
      "channel": 4,
      "note": 71,
      "start": 113.3666,
      "duration": 0.0468,
      "velocity": 112,
      "chip": "ym2612"
    },
    {
      "channel": 5,
      "note": 68,
      "start": 113.4137,
      "duration": 0.0928,
      "velocity": 127,
      "chip": "ym2612"
    },
    {
      "channel": 3,
      "note": 69,
      "start": 113.4598,
      "duration": 0.0928,
      "velocity": 112,
      "chip": "ym2612"
    },
    {
      "channel": 4,
      "note": 68,
      "start": 113.46,
      "duration": 0.0927,
      "velocity": 112,
      "chip": "ym2612"
    },
    {
      "channel": 5,
      "note": 68,
      "start": 113.5066,
      "duration": 0.0939,
      "velocity": 127,
      "chip": "ym2612"
    },
    {
      "channel": 0,
      "note": 71,
      "start": 113.5991,
      "duration": 1.6246,
      "velocity": 106,
      "chip": "ym2612"
    },
    {
      "channel": 1,
      "note": 80,
      "start": 113.5994,
      "duration": 1.6247,
      "velocity": 106,
      "chip": "ym2612"
    },
    {
      "channel": 2,
      "note": 52,
      "start": 113.5997,
      "duration": 0.2777,
      "velocity": 104,
      "chip": "ym2612"
    },
    {
      "channel": 3,
      "note": 71,
      "start": 113.6,
      "duration": 1.4849,
      "velocity": 112,
      "chip": "ym2612"
    },
    {
      "channel": 4,
      "note": 69,
      "start": 113.6002,
      "duration": 0.0918,
      "velocity": 112,
      "chip": "ym2612"
    },
    {
      "channel": 5,
      "note": 68,
      "start": 113.6005,
      "duration": 0.1383,
      "velocity": 127,
      "chip": "ym2612"
    },
    {
      "channel": 4,
      "note": 71,
      "start": 113.7386,
      "duration": 1.4859,
      "velocity": 112,
      "chip": "ym2612"
    },
    {
      "channel": 5,
      "note": 68,
      "start": 113.878,
      "duration": 0.1395,
      "velocity": 127,
      "chip": "ym2612"
    },
    {
      "channel": 5,
      "note": 68,
      "start": 114.0174,
      "duration": 0.1395,
      "velocity": 127,
      "chip": "ym2612"
    },
    {
      "channel": 2,
      "note": 56,
      "start": 114.1564,
      "duration": 0.2786,
      "velocity": 104,
      "chip": "ym2612"
    },
    {
      "channel": 5,
      "note": 68,
      "start": 114.157,
      "duration": 0.1392,
      "velocity": 127,
      "chip": "ym2612"
    },
    {
      "channel": 5,
      "note": 68,
      "start": 114.2963,
      "duration": 0.1392,
      "velocity": 127,
      "chip": "ym2612"
    },
    {
      "channel": 5,
      "note": 68,
      "start": 114.5747,
      "duration": 0.1397,
      "velocity": 127,
      "chip": "ym2612"
    },
    {
      "channel": 2,
      "note": 59,
      "start": 114.7138,
      "duration": 0.2781,
      "velocity": 104,
      "chip": "ym2612"
    },
    {
      "channel": 5,
      "note": 68,
      "start": 114.7144,
      "duration": 0.1386,
      "velocity": 127,
      "chip": "ym2612"
    },
    {
      "channel": 5,
      "note": 68,
      "start": 114.8531,
      "duration": 0.1394,
      "velocity": 127,
      "chip": "ym2612"
    },
    {
      "channel": 5,
      "note": 68,
      "start": 114.9925,
      "duration": 0.1391,
      "velocity": 127,
      "chip": "ym2612"
    },
    {
      "channel": 5,
      "note": 68,
      "start": 115.1317,
      "duration": 0.1399,
      "velocity": 127,
      "chip": "ym2612"
    },
    {
      "channel": 2,
      "note": 52,
      "start": 115.2707,
      "duration": 0.2786,
      "velocity": 104,
      "chip": "ym2612"
    },
    {
      "channel": 3,
      "note": 66,
      "start": 115.271,
      "duration": 0.0924,
      "velocity": 112,
      "chip": "ym2612"
    },
    {
      "channel": 5,
      "note": 68,
      "start": 115.2715,
      "duration": 0.0924,
      "velocity": 127,
      "chip": "ym2612"
    },
    {
      "channel": 5,
      "note": 68,
      "start": 115.3639,
      "duration": 0.0926,
      "velocity": 127,
      "chip": "ym2612"
    },
    {
      "channel": 3,
      "note": 69,
      "start": 115.4102,
      "duration": 0.0927,
      "velocity": 112,
      "chip": "ym2612"
    },
    {
      "channel": 4,
      "note": 66,
      "start": 115.4104,
      "duration": 0.0927,
      "velocity": 112,
      "chip": "ym2612"
    },
    {
      "channel": 5,
      "note": 68,
      "start": 115.4566,
      "duration": 0.0934,
      "velocity": 127,
      "chip": "ym2612"
    },
    {
      "channel": 3,
      "note": 71,
      "start": 115.5496,
      "duration": 0.0925,
      "velocity": 112,
      "chip": "ym2612"
    },
    {
      "channel": 4,
      "note": 69,
      "start": 115.5499,
      "duration": 0.0923,
      "velocity": 112,
      "chip": "ym2612"
    },
    {
      "channel": 5,
      "note": 68,
      "start": 115.5501,
      "duration": 0.0924,
      "velocity": 127,
      "chip": "ym2612"
    },
    {
      "channel": 5,
      "note": 68,
      "start": 115.6424,
      "duration": 0.0929,
      "velocity": 127,
      "chip": "ym2612"
    },
    {
      "channel": 3,
      "note": 73,
      "start": 115.6887,
      "duration": 0.0925,
      "velocity": 112,
      "chip": "ym2612"
    },
    {
      "channel": 4,
      "note": 71,
      "start": 115.689,
      "duration": 0.0924,
      "velocity": 112,
      "chip": "ym2612"
    },
    {
      "channel": 5,
      "note": 68,
      "start": 115.7354,
      "duration": 0.0936,
      "velocity": 127,
      "chip": "ym2612"
    },
    {
      "channel": 0,
      "note": 74,
      "start": 115.8276,
      "duration": 0.2319,
      "velocity": 106,
      "chip": "ym2612"
    },
    {
      "channel": 1,
      "note": 78,
      "start": 115.8279,
      "duration": 0.2318,
      "velocity": 106,
      "chip": "ym2612"
    },
    {
      "channel": 2,
      "note": 59,
      "start": 115.8281,
      "duration": 0.2783,
      "velocity": 104,
      "chip": "ym2612"
    },
    {
      "channel": 3,
      "note": 74,
      "start": 115.8283,
      "duration": 0.5102,
      "velocity": 112,
      "chip": "ym2612"
    },
    {
      "channel": 4,
      "note": 73,
      "start": 115.8287,
      "duration": 0.0919,
      "velocity": 112,
      "chip": "ym2612"
    },
    {
      "channel": 5,
      "note": 68,
      "start": 115.829,
      "duration": 0.1381,
      "velocity": 127,
      "chip": "ym2612"
    },
    {
      "channel": 4,
      "note": 74,
      "start": 115.967,
      "duration": 0.5106,
      "velocity": 112,
      "chip": "ym2612"
    },
    {
      "channel": 0,
      "note": 74,
      "start": 116.1062,
      "duration": 0.0926,
      "velocity": 106,
      "chip": "ym2612"
    },
    {
      "channel": 1,
      "note": 78,
      "start": 116.1063,
      "duration": 0.0926,
      "velocity": 106,
      "chip": "ym2612"
    },
    {
      "channel": 5,
      "note": 68,
      "start": 116.1069,
      "duration": 0.139,
      "velocity": 127,
      "chip": "ym2612"
    },
    {
      "channel": 0,
      "note": 74,
      "start": 116.2454,
      "duration": 0.0928,
      "velocity": 106,
      "chip": "ym2612"
    },
    {
      "channel": 1,
      "note": 78,
      "start": 116.2455,
      "duration": 0.0928,
      "velocity": 106,
      "chip": "ym2612"
    },
    {
      "channel": 5,
      "note": 68,
      "start": 116.2459,
      "duration": 0.1399,
      "velocity": 127,
      "chip": "ym2612"
    },
    {
      "channel": 0,
      "note": 74,
      "start": 116.3846,
      "duration": 0.5108,
      "velocity": 106,
      "chip": "ym2612"
    },
    {
      "channel": 1,
      "note": 78,
      "start": 116.3848,
      "duration": 0.5108,
      "velocity": 106,
      "chip": "ym2612"
    },
    {
      "channel": 2,
      "note": 54,
      "start": 116.3851,
      "duration": 0.2782,
      "velocity": 104,
      "chip": "ym2612"
    },
    {
      "channel": 3,
      "note": 74,
      "start": 116.3853,
      "duration": 0.371,
      "velocity": 112,
      "chip": "ym2612"
    },
    {
      "channel": 5,
      "note": 68,
      "start": 116.3859,
      "duration": 0.1388,
      "velocity": 127,
      "chip": "ym2612"
    },
    {
      "channel": 4,
      "note": 74,
      "start": 116.5243,
      "duration": 0.3716,
      "velocity": 112,
      "chip": "ym2612"
    },
    {
      "channel": 5,
      "note": 68,
      "start": 116.5246,
      "duration": 0.139,
      "velocity": 127,
      "chip": "ym2612"
    },
    {
      "channel": 3,
      "note": 76,
      "start": 116.803,
      "duration": 0.0928,
      "velocity": 112,
      "chip": "ym2612"
    },
    {
      "channel": 5,
      "note": 68,
      "start": 116.8034,
      "duration": 0.1401,
      "velocity": 127,
      "chip": "ym2612"
    },
    {
      "channel": 0,
      "note": 73,
      "start": 116.9421,
      "duration": 0.2321,
      "velocity": 106,
      "chip": "ym2612"
    },
    {
      "channel": 1,
      "note": 76,
      "start": 116.9424,
      "duration": 0.232,
      "velocity": 106,
      "chip": "ym2612"
    },
    {
      "channel": 2,
      "note": 57,
      "start": 116.9426,
      "duration": 0.2787,
      "velocity": 104,
      "chip": "ym2612"
    },
    {
      "channel": 3,
      "note": 73,
      "start": 116.943,
      "duration": 0.2316,
      "velocity": 112,
      "chip": "ym2612"
    },
    {
      "channel": 4,
      "note": 76,
      "start": 116.9432,
      "duration": 0.092,
      "velocity": 112,
      "chip": "ym2612"
    },
    {
      "channel": 5,
      "note": 68,
      "start": 116.9435,
      "duration": 0.1385,
      "velocity": 127,
      "chip": "ym2612"
    },
    {
      "channel": 4,
      "note": 73,
      "start": 117.0818,
      "duration": 0.2323,
      "velocity": 112,
      "chip": "ym2612"
    },
    {
      "channel": 5,
      "note": 68,
      "start": 117.0821,
      "duration": 0.1398,
      "velocity": 127,
      "chip": "ym2612"
    },
    {
      "channel": 0,
      "note": 73,
      "start": 117.221,
      "duration": 0.2319,
      "velocity": 106,
      "chip": "ym2612"
    },
    {
      "channel": 1,
      "note": 76,
      "start": 117.2212,
      "duration": 0.232,
      "velocity": 106,
      "chip": "ym2612"
    },
    {
      "channel": 3,
      "note": 71,
      "start": 117.2215,
      "duration": 0.2317,
      "velocity": 112,
      "chip": "ym2612"
    },
    {
      "channel": 5,
      "note": 68,
      "start": 117.222,
      "duration": 0.1388,
      "velocity": 127,
      "chip": "ym2612"
    },
    {
      "channel": 4,
      "note": 71,
      "start": 117.3605,
      "duration": 0.2322,
      "velocity": 112,
      "chip": "ym2612"
    },
    {
      "channel": 5,
      "note": 68,
      "start": 117.3609,
      "duration": 0.1397,
      "velocity": 127,
      "chip": "ym2612"
    },
    {
      "channel": 0,
      "note": 73,
      "start": 117.4995,
      "duration": 0.5108,
      "velocity": 106,
      "chip": "ym2612"
    },
    {
      "channel": 1,
      "note": 76,
      "start": 117.4997,
      "duration": 0.5109,
      "velocity": 106,
      "chip": "ym2612"
    },
    {
      "channel": 2,
      "note": 52,
      "start": 117.5,
      "duration": 0.1391,
      "velocity": 104,
      "chip": "ym2612"
    },
    {
      "channel": 3,
      "note": 69,
      "start": 117.5002,
      "duration": 0.046,
      "velocity": 112,
      "chip": "ym2612"
    },
    {
      "channel": 5,
      "note": 68,
      "start": 117.5007,
      "duration": 0.0925,
      "velocity": 127,
      "chip": "ym2612"
    },
    {
      "channel": 3,
      "note": 71,
      "start": 117.5927,
      "duration": 0.0464,
      "velocity": 112,
      "chip": "ym2612"
    },
    {
      "channel": 5,
      "note": 68,
      "start": 117.5932,
      "duration": 0.0928,
      "velocity": 127,
      "chip": "ym2612"
    },
    {
      "channel": 4,
      "note": 69,
      "start": 117.6395,
      "duration": 0.0463,
      "velocity": 112,
      "chip": "ym2612"
    },
    {
      "channel": 3,
      "note": 69,
      "start": 117.6857,
      "duration": 0.0464,
      "velocity": 112,
      "chip": "ym2612"
    },
    {
      "channel": 5,
      "note": 68,
      "start": 117.6861,
      "duration": 0.0931,
      "velocity": 127,
      "chip": "ym2612"
    },
    {
      "channel": 4,
      "note": 71,
      "start": 117.7324,
      "duration": 0.0465,
      "velocity": 112,
      "chip": "ym2612"
    },
    {
      "channel": 2,
      "note": 54,
      "start": 117.7785,
      "duration": 0.1393,
      "velocity": 104,
      "chip": "ym2612"
    },
    {
      "channel": 3,
      "note": 68,
      "start": 117.7788,
      "duration": 0.0924,
      "velocity": 112,
      "chip": "ym2612"
    },
    {
      "channel": 5,
      "note": 68,
      "start": 117.7792,
      "duration": 0.0924,
      "velocity": 127,
      "chip": "ym2612"
    },
    {
      "channel": 4,
      "note": 69,
      "start": 117.8253,
      "duration": 0.0461,
      "velocity": 112,
      "chip": "ym2612"
    },
    {
      "channel": 5,
      "note": 68,
      "start": 117.8717,
      "duration": 0.0928,
      "velocity": 127,
      "chip": "ym2612"
    },
    {
      "channel": 3,
      "note": 69,
      "start": 117.918,
      "duration": 0.0927,
      "velocity": 112,
      "chip": "ym2612"
    },
    {
      "channel": 4,
      "note": 68,
      "start": 117.9183,
      "duration": 0.0925,
      "velocity": 112,
      "chip": "ym2612"
    },
    {
      "channel": 5,
      "note": 68,
      "start": 117.9646,
      "duration": 0.0937,
      "velocity": 127,
      "chip": "ym2612"
    },
    {
      "channel": 0,
      "note": 71,
      "start": 118.0571,
      "duration": 0.2317,
      "velocity": 106,
      "chip": "ym2612"
    },
    {
      "channel": 1,
      "note": 74,
      "start": 118.0574,
      "duration": 0.2315,
      "velocity": 106,
      "chip": "ym2612"
    },
    {
      "channel": 2,
      "note": 55,
      "start": 118.0577,
      "duration": 0.2781,
      "velocity": 104,
      "chip": "ym2612"
    },
    {
      "channel": 3,
      "note": 71,
      "start": 118.0579,
      "duration": 0.51,
      "velocity": 112,
      "chip": "ym2612"
    },
    {
      "channel": 4,
      "note": 69,
      "start": 118.0581,
      "duration": 0.0917,
      "velocity": 112,
      "chip": "ym2612"
    },
    {
      "channel": 5,
      "note": 68,
      "start": 118.0584,
      "duration": 0.1383,
      "velocity": 127,
      "chip": "ym2612"
    },
    {
      "channel": 4,
      "note": 71,
      "start": 118.1965,
      "duration": 0.511,
      "velocity": 112,
      "chip": "ym2612"
    },
    {
      "channel": 0,
      "note": 71,
      "start": 118.3355,
      "duration": 0.0929,
      "velocity": 106,
      "chip": "ym2612"
    },
    {
      "channel": 1,
      "note": 74,
      "start": 118.3357,
      "duration": 0.0929,
      "velocity": 106,
      "chip": "ym2612"
    },
    {
      "channel": 5,
      "note": 68,
      "start": 118.3363,
      "duration": 0.139,
      "velocity": 127,
      "chip": "ym2612"
    },
    {
      "channel": 0,
      "note": 71,
      "start": 118.4747,
      "duration": 0.0928,
      "velocity": 106,
      "chip": "ym2612"
    },
    {
      "channel": 1,
      "note": 74,
      "start": 118.4748,
      "duration": 0.0929,
      "velocity": 106,
      "chip": "ym2612"
    },
    {
      "channel": 5,
      "note": 68,
      "start": 118.4753,
      "duration": 0.1401,
      "velocity": 127,
      "chip": "ym2612"
    },
    {
      "channel": 0,
      "note": 71,
      "start": 118.6141,
      "duration": 0.0928,
      "velocity": 106,
      "chip": "ym2612"
    },
    {
      "channel": 1,
      "note": 74,
      "start": 118.6143,
      "duration": 0.0929,
      "velocity": 106,
      "chip": "ym2612"
    },
    {
      "channel": 2,
      "note": 50,
      "start": 118.6146,
      "duration": 0.2783,
      "velocity": 104,
      "chip": "ym2612"
    },
    {
      "channel": 3,
      "note": 71,
      "start": 118.6148,
      "duration": 0.3711,
      "velocity": 112,
      "chip": "ym2612"
    },
    {
      "channel": 5,
      "note": 68,
      "start": 118.6154,
      "duration": 0.139,
      "velocity": 127,
      "chip": "ym2612"
    },
    {
      "channel": 0,
      "note": 71,
      "start": 118.7535,
      "duration": 0.232,
      "velocity": 106,
      "chip": "ym2612"
    },
    {
      "channel": 1,
      "note": 74,
      "start": 118.7536,
      "duration": 0.2321,
      "velocity": 106,
      "chip": "ym2612"
    },
    {
      "channel": 4,
      "note": 71,
      "start": 118.7541,
      "duration": 0.3716,
      "velocity": 112,
      "chip": "ym2612"
    },
    {
      "channel": 5,
      "note": 68,
      "start": 118.7545,
      "duration": 0.1387,
      "velocity": 127,
      "chip": "ym2612"
    },
    {
      "channel": 0,
      "note": 71,
      "start": 119.0324,
      "duration": 0.0929,
      "velocity": 106,
      "chip": "ym2612"
    },
    {
      "channel": 1,
      "note": 74,
      "start": 119.0325,
      "duration": 0.0929,
      "velocity": 106,
      "chip": "ym2612"
    },
    {
      "channel": 3,
      "note": 73,
      "start": 119.0329,
      "duration": 0.0927,
      "velocity": 112,
      "chip": "ym2612"
    },
    {
      "channel": 5,
      "note": 68,
      "start": 119.0332,
      "duration": 0.1398,
      "velocity": 127,
      "chip": "ym2612"
    },
    {
      "channel": 0,
      "note": 73,
      "start": 119.1717,
      "duration": 0.232,
      "velocity": 106,
      "chip": "ym2612"
    },
    {
      "channel": 1,
      "note": 76,
      "start": 119.172,
      "duration": 0.2319,
      "velocity": 106,
      "chip": "ym2612"
    },
    {
      "channel": 2,
      "note": 54,
      "start": 119.1723,
      "duration": 0.2784,
      "velocity": 104,
      "chip": "ym2612"
    },
    {
      "channel": 3,
      "note": 69,
      "start": 119.1725,
      "duration": 0.5103,
      "velocity": 112,
      "chip": "ym2612"
    },
    {
      "channel": 4,
      "note": 73,
      "start": 119.1728,
      "duration": 0.0917,
      "velocity": 112,
      "chip": "ym2612"
    },
    {
      "channel": 5,
      "note": 68,
      "start": 119.1731,
      "duration": 0.1384,
      "velocity": 127,
      "chip": "ym2612"
    },
    {
      "channel": 4,
      "note": 69,
      "start": 119.3112,
      "duration": 0.5113,
      "velocity": 112,
      "chip": "ym2612"
    },
    {
      "channel": 5,
      "note": 68,
      "start": 119.3115,
      "duration": 0.1396,
      "velocity": 127,
      "chip": "ym2612"
    },
    {
      "channel": 0,
      "note": 73,
      "start": 119.4504,
      "duration": 0.232,
      "velocity": 106,
      "chip": "ym2612"
    },
    {
      "channel": 1,
      "note": 76,
      "start": 119.4505,
      "duration": 0.232,
      "velocity": 106,
      "chip": "ym2612"
    },
    {
      "channel": 5,
      "note": 68,
      "start": 119.4511,
      "duration": 0.139,
      "velocity": 127,
      "chip": "ym2612"
    },
    {
      "channel": 5,
      "note": 68,
      "start": 119.5901,
      "duration": 0.1401,
      "velocity": 127,
      "chip": "ym2612"
    },
    {
      "channel": 0,
      "note": 73,
      "start": 119.7291,
      "duration": 0.5109,
      "velocity": 106,
      "chip": "ym2612"
    },
    {
      "channel": 1,
      "note": 76,
      "start": 119.7293,
      "duration": 0.5109,
      "velocity": 106,
      "chip": "ym2612"
    },
    {
      "channel": 2,
      "note": 57,
      "start": 119.7295,
      "duration": 0.139,
      "velocity": 104,
      "chip": "ym2612"
    },
    {
      "channel": 3,
      "note": 66,
      "start": 119.7298,
      "duration": 0.0924,
      "velocity": 112,
      "chip": "ym2612"
    },
    {
      "channel": 5,
      "note": 68,
      "start": 119.7303,
      "duration": 0.0925,
      "velocity": 127,
      "chip": "ym2612"
    },
    {
      "channel": 5,
      "note": 68,
      "start": 119.8229,
      "duration": 0.0924,
      "velocity": 127,
      "chip": "ym2612"
    },
    {
      "channel": 3,
      "note": 69,
      "start": 119.8687,
      "duration": 0.0926,
      "velocity": 112,
      "chip": "ym2612"
    },
    {
      "channel": 4,
      "note": 66,
      "start": 119.869,
      "duration": 0.0925,
      "velocity": 112,
      "chip": "ym2612"
    },
    {
      "channel": 5,
      "note": 68,
      "start": 119.9152,
      "duration": 0.0932,
      "velocity": 127,
      "chip": "ym2612"
    },
    {
      "channel": 2,
      "note": 57,
      "start": 120.0076,
      "duration": 0.1394,
      "velocity": 104,
      "chip": "ym2612"
    },
    {
      "channel": 3,
      "note": 71,
      "start": 120.008,
      "duration": 0.0925,
      "velocity": 112,
      "chip": "ym2612"
    },
    {
      "channel": 4,
      "note": 69,
      "start": 120.0082,
      "duration": 0.0924,
      "velocity": 112,
      "chip": "ym2612"
    },
    {
      "channel": 5,
      "note": 68,
      "start": 120.0085,
      "duration": 0.0924,
      "velocity": 127,
      "chip": "ym2612"
    },
    {
      "channel": 5,
      "note": 68,
      "start": 120.1009,
      "duration": 0.0931,
      "velocity": 127,
      "chip": "ym2612"
    },
    {
      "channel": 3,
      "note": 73,
      "start": 120.1475,
      "duration": 0.0929,
      "velocity": 112,
      "chip": "ym2612"
    },
    {
      "channel": 4,
      "note": 71,
      "start": 120.1477,
      "duration": 0.0927,
      "velocity": 112,
      "chip": "ym2612"
    },
    {
      "channel": 5,
      "note": 68,
      "start": 120.194,
      "duration": 0.0938,
      "velocity": 127,
      "chip": "ym2612"
    },
    {
      "channel": 0,
      "note": 74,
      "start": 120.2865,
      "duration": 0.2319,
      "velocity": 106,
      "chip": "ym2612"
    },
    {
      "channel": 1,
      "note": 78,
      "start": 120.2867,
      "duration": 0.2318,
      "velocity": 106,
      "chip": "ym2612"
    },
    {
      "channel": 2,
      "note": 59,
      "start": 120.2869,
      "duration": 0.2783,
      "velocity": 104,
      "chip": "ym2612"
    },
    {
      "channel": 3,
      "note": 74,
      "start": 120.2872,
      "duration": 0.5102,
      "velocity": 112,
      "chip": "ym2612"
    },
    {
      "channel": 4,
      "note": 73,
      "start": 120.2876,
      "duration": 0.0917,
      "velocity": 112,
      "chip": "ym2612"
    },
    {
      "channel": 5,
      "note": 68,
      "start": 120.2878,
      "duration": 0.1384,
      "velocity": 127,
      "chip": "ym2612"
    },
    {
      "channel": 4,
      "note": 74,
      "start": 120.4261,
      "duration": 0.511,
      "velocity": 112,
      "chip": "ym2612"
    },
    {
      "channel": 0,
      "note": 74,
      "start": 120.5649,
      "duration": 0.093,
      "velocity": 106,
      "chip": "ym2612"
    },
    {
      "channel": 1,
      "note": 78,
      "start": 120.565,
      "duration": 0.0931,
      "velocity": 106,
      "chip": "ym2612"
    },
    {
      "channel": 5,
      "note": 68,
      "start": 120.5656,
      "duration": 0.1392,
      "velocity": 127,
      "chip": "ym2612"
    },
    {
      "channel": 0,
      "note": 74,
      "start": 120.7043,
      "duration": 0.0927,
      "velocity": 106,
      "chip": "ym2612"
    },
    {
      "channel": 1,
      "note": 78,
      "start": 120.7044,
      "duration": 0.0927,
      "velocity": 106,
      "chip": "ym2612"
    },
    {
      "channel": 5,
      "note": 68,
      "start": 120.7049,
      "duration": 0.1401,
      "velocity": 127,
      "chip": "ym2612"
    },
    {
      "channel": 0,
      "note": 74,
      "start": 120.8437,
      "duration": 0.5114,
      "velocity": 106,
      "chip": "ym2612"
    },
    {
      "channel": 1,
      "note": 78,
      "start": 120.8439,
      "duration": 0.5113,
      "velocity": 106,
      "chip": "ym2612"
    },
    {
      "channel": 2,
      "note": 54,
      "start": 120.8442,
      "duration": 0.2785,
      "velocity": 104,
      "chip": "ym2612"
    },
    {
      "channel": 3,
      "note": 74,
      "start": 120.8445,
      "duration": 0.3711,
      "velocity": 112,
      "chip": "ym2612"
    },
    {
      "channel": 5,
      "note": 68,
      "start": 120.845,
      "duration": 0.1387,
      "velocity": 127,
      "chip": "ym2612"
    },
    {
      "channel": 4,
      "note": 74,
      "start": 120.9835,
      "duration": 0.372,
      "velocity": 112,
      "chip": "ym2612"
    },
    {
      "channel": 5,
      "note": 68,
      "start": 120.9838,
      "duration": 0.1393,
      "velocity": 127,
      "chip": "ym2612"
    },
    {
      "channel": 3,
      "note": 76,
      "start": 121.2623,
      "duration": 0.0931,
      "velocity": 112,
      "chip": "ym2612"
    },
    {
      "channel": 5,
      "note": 68,
      "start": 121.2627,
      "duration": 0.1404,
      "velocity": 127,
      "chip": "ym2612"
    },
    {
      "channel": 0,
      "note": 73,
      "start": 121.4017,
      "duration": 0.2324,
      "velocity": 106,
      "chip": "ym2612"
    },
    {
      "channel": 1,
      "note": 76,
      "start": 121.4019,
      "duration": 0.2323,
      "velocity": 106,
      "chip": "ym2612"
    },
    {
      "channel": 2,
      "note": 57,
      "start": 121.4022,
      "duration": 0.2787,
      "velocity": 104,
      "chip": "ym2612"
    },
    {
      "channel": 3,
      "note": 73,
      "start": 121.4026,
      "duration": 0.2319,
      "velocity": 112,
      "chip": "ym2612"
    },
    {
      "channel": 4,
      "note": 76,
      "start": 121.4028,
      "duration": 0.0919,
      "velocity": 112,
      "chip": "ym2612"
    },
    {
      "channel": 5,
      "note": 68,
      "start": 121.4031,
      "duration": 0.1388,
      "velocity": 127,
      "chip": "ym2612"
    },
    {
      "channel": 4,
      "note": 73,
      "start": 121.5416,
      "duration": 0.2322,
      "velocity": 112,
      "chip": "ym2612"
    },
    {
      "channel": 5,
      "note": 68,
      "start": 121.542,
      "duration": 0.1395,
      "velocity": 127,
      "chip": "ym2612"
    },
    {
      "channel": 0,
      "note": 73,
      "start": 121.6806,
      "duration": 0.0928,
      "velocity": 106,
      "chip": "ym2612"
    },
    {
      "channel": 1,
      "note": 76,
      "start": 121.6807,
      "duration": 0.0928,
      "velocity": 106,
      "chip": "ym2612"
    },
    {
      "channel": 3,
      "note": 71,
      "start": 121.6811,
      "duration": 0.232,
      "velocity": 112,
      "chip": "ym2612"
    },
    {
      "channel": 5,
      "note": 68,
      "start": 121.6815,
      "duration": 0.1394,
      "velocity": 127,
      "chip": "ym2612"
    },
    {
      "channel": 0,
      "note": 73,
      "start": 121.82,
      "duration": 0.0928,
      "velocity": 106,
      "chip": "ym2612"
    },
    {
      "channel": 1,
      "note": 76,
      "start": 121.8201,
      "duration": 0.0928,
      "velocity": 106,
      "chip": "ym2612"
    },
    {
      "channel": 4,
      "note": 71,
      "start": 121.8206,
      "duration": 0.2323,
      "velocity": 112,
      "chip": "ym2612"
    },
    {
      "channel": 5,
      "note": 68,
      "start": 121.8209,
      "duration": 0.1398,
      "velocity": 127,
      "chip": "ym2612"
    },
    {
      "channel": 0,
      "note": 73,
      "start": 121.9595,
      "duration": 0.2322,
      "velocity": 106,
      "chip": "ym2612"
    },
    {
      "channel": 1,
      "note": 81,
      "start": 121.9598,
      "duration": 0.232,
      "velocity": 106,
      "chip": "ym2612"
    },
    {
      "channel": 2,
      "note": 54,
      "start": 121.9601,
      "duration": 0.1389,
      "velocity": 104,
      "chip": "ym2612"
    },
    {
      "channel": 3,
      "note": 69,
      "start": 121.9604,
      "duration": 0.0455,
      "velocity": 112,
      "chip": "ym2612"
    },
    {
      "channel": 5,
      "note": 68,
      "start": 121.9607,
      "duration": 0.0925,
      "velocity": 127,
      "chip": "ym2612"
    },
    {
      "channel": 3,
      "note": 71,
      "start": 122.0529,
      "duration": 0.0462,
      "velocity": 112,
      "chip": "ym2612"
    },
    {
      "channel": 5,
      "note": 68,
      "start": 122.0533,
      "duration": 0.0927,
      "velocity": 127,
      "chip": "ym2612"
    },
    {
      "channel": 4,
      "note": 69,
      "start": 122.0994,
      "duration": 0.0464,
      "velocity": 112,
      "chip": "ym2612"
    },
    {
      "channel": 3,
      "note": 71,
      "start": 122.1457,
      "duration": 0.0463,
      "velocity": 112,
      "chip": "ym2612"
    },
    {
      "channel": 5,
      "note": 68,
      "start": 122.1461,
      "duration": 0.0932,
      "velocity": 127,
      "chip": "ym2612"
    },
    {
      "channel": 4,
      "note": 71,
      "start": 122.1924,
      "duration": 0.0468,
      "velocity": 112,
      "chip": "ym2612"
    },
    {
      "channel": 0,
      "note": 73,
      "start": 122.2384,
      "duration": 0.232,
      "velocity": 106,
      "chip": "ym2612"
    },
    {
      "channel": 1,
      "note": 81,
      "start": 122.2385,
      "duration": 0.232,
      "velocity": 106,
      "chip": "ym2612"
    },
    {
      "channel": 2,
      "note": 54,
      "start": 122.2387,
      "duration": 0.1389,
      "velocity": 104,
      "chip": "ym2612"
    },
    {
      "channel": 3,
      "note": 68,
      "start": 122.2389,
      "duration": 0.0924,
      "velocity": 112,
      "chip": "ym2612"
    },
    {
      "channel": 5,
      "note": 68,
      "start": 122.2393,
      "duration": 0.0924,
      "velocity": 127,
      "chip": "ym2612"
    },
    {
      "channel": 4,
      "note": 71,
      "start": 122.2849,
      "duration": 0.0466,
      "velocity": 112,
      "chip": "ym2612"
    },
    {
      "channel": 5,
      "note": 68,
      "start": 122.3319,
      "duration": 0.0927,
      "velocity": 127,
      "chip": "ym2612"
    },
    {
      "channel": 3,
      "note": 69,
      "start": 122.3779,
      "duration": 0.0928,
      "velocity": 112,
      "chip": "ym2612"
    },
    {
      "channel": 4,
      "note": 68,
      "start": 122.3782,
      "duration": 0.0926,
      "velocity": 112,
      "chip": "ym2612"
    },
    {
      "channel": 5,
      "note": 68,
      "start": 122.4245,
      "duration": 0.094,
      "velocity": 127,
      "chip": "ym2612"
    },
    {
      "channel": 0,
      "note": 71,
      "start": 122.5171,
      "duration": 0.5107,
      "velocity": 106,
      "chip": "ym2612"
    },
    {
      "channel": 1,
      "note": 80,
      "start": 122.5173,
      "duration": 0.5106,
      "velocity": 106,
      "chip": "ym2612"
    },
    {
      "channel": 2,
      "note": 52,
      "start": 122.5176,
      "duration": 0.278,
      "velocity": 104,
      "chip": "ym2612"
    },
    {
      "channel": 3,
      "note": 71,
      "start": 122.518,
      "duration": 2.0432,
      "velocity": 112,
      "chip": "ym2612"
    },
    {
      "channel": 4,
      "note": 69,
      "start": 122.5182,
      "duration": 0.0918,
      "velocity": 112,
      "chip": "ym2612"
    },
    {
      "channel": 5,
      "note": 68,
      "start": 122.5185,
      "duration": 0.1385,
      "velocity": 127,
      "chip": "ym2612"
    },
    {
      "channel": 4,
      "note": 71,
      "start": 122.6568,
      "duration": 2.0435,
      "velocity": 112,
      "chip": "ym2612"
    },
    {
      "channel": 5,
      "note": 68,
      "start": 122.7962,
      "duration": 0.1395,
      "velocity": 127,
      "chip": "ym2612"
    },
    {
      "channel": 5,
      "note": 68,
      "start": 122.9357,
      "duration": 0.1401,
      "velocity": 127,
      "chip": "ym2612"
    },
    {
      "channel": 0,
      "note": 68,
      "start": 123.0746,
      "duration": 0.2318,
      "velocity": 106,
      "chip": "ym2612"
    },
    {
      "channel": 1,
      "note": 71,
      "start": 123.075,
      "duration": 0.2315,
      "velocity": 106,
      "chip": "ym2612"
    },
    {
      "channel": 2,
      "note": 56,
      "start": 123.0753,
      "duration": 0.2787,
      "velocity": 104,
      "chip": "ym2612"
    },
    {
      "channel": 5,
      "note": 68,
      "start": 123.0759,
      "duration": 0.1383,
      "velocity": 127,
      "chip": "ym2612"
    },
    {
      "channel": 5,
      "note": 68,
      "start": 123.2142,
      "duration": 0.1402,
      "velocity": 127,
      "chip": "ym2612"
    },
    {
      "channel": 0,
      "note": 71,
      "start": 123.3534,
      "duration": 0.0927,
      "velocity": 106,
      "chip": "ym2612"
    },
    {
      "channel": 1,
      "note": 76,
      "start": 123.3538,
      "duration": 0.0924,
      "velocity": 106,
      "chip": "ym2612"
    },
    {
      "channel": 0,
      "note": 76,
      "start": 123.4927,
      "duration": 0.0926,
      "velocity": 106,
      "chip": "ym2612"
    },
    {
      "channel": 1,
      "note": 80,
      "start": 123.4929,
      "duration": 0.0926,
      "velocity": 106,
      "chip": "ym2612"
    },
    {
      "channel": 5,
      "note": 68,
      "start": 123.4934,
      "duration": 0.1402,
      "velocity": 127,
      "chip": "ym2612"
    },
    {
      "channel": 0,
      "note": 80,
      "start": 123.6324,
      "duration": 1.0673,
      "velocity": 106,
      "chip": "ym2612"
    },
    {
      "channel": 1,
      "note": 83,
      "start": 123.6328,
      "duration": 1.0671,
      "velocity": 106,
      "chip": "ym2612"
    },
    {
      "channel": 2,
      "note": 59,
      "start": 123.6331,
      "duration": 0.2775,
      "velocity": 104,
      "chip": "ym2612"
    },
    {
      "channel": 5,
      "note": 68,
      "start": 123.6337,
      "duration": 0.0919,
      "velocity": 127,
      "chip": "ym2612"
    },
    {
      "channel": 5,
      "note": 68,
      "start": 123.7256,
      "duration": 0.0926,
      "velocity": 127,
      "chip": "ym2612"
    },
    {
      "channel": 5,
      "note": 68,
      "start": 123.8183,
      "duration": 0.0928,
      "velocity": 127,
      "chip": "ym2612"
    },
    {
      "channel": 5,
      "note": 68,
      "start": 123.9112,
      "duration": 0.1395,
      "velocity": 127,
      "chip": "ym2612"
    },
    {
      "channel": 5,
      "note": 68,
      "start": 124.0507,
      "duration": 0.1394,
      "velocity": 127,
      "chip": "ym2612"
    },
    {
      "channel": 2,
      "note": 52,
      "start": 124.1894,
      "duration": 0.2788,
      "velocity": 104,
      "chip": "ym2612"
    },
    {
      "channel": 5,
      "note": 68,
      "start": 124.1902,
      "duration": 0.139,
      "velocity": 127,
      "chip": "ym2612"
    },
    {
      "channel": 5,
      "note": 68,
      "start": 124.3293,
      "duration": 0.1395,
      "velocity": 127,
      "chip": "ym2612"
    },
    {
      "channel": 5,
      "note": 68,
      "start": 124.4689,
      "duration": 0.1388,
      "velocity": 127,
      "chip": "ym2612"
    },
    {
      "channel": 5,
      "note": 68,
      "start": 124.6077,
      "duration": 0.1418,
      "velocity": 127,
      "chip": "ym2612"
    },
    {
      "channel": 1,
      "note": 68,
      "start": 124.7486,
      "duration": 0.1369,
      "velocity": 127,
      "chip": "ym2612"
    },
    {
      "channel": 2,
      "note": 59,
      "start": 124.7488,
      "duration": 0.2761,
      "velocity": 104,
      "chip": "ym2612"
    },
    {
      "channel": 1,
      "note": 68,
      "start": 125.0248,
      "duration": 0.1393,
      "velocity": 127,
      "chip": "ym2612"
    },
    {
      "channel": 1,
      "note": 68,
      "start": 125.1641,
      "duration": 0.1391,
      "velocity": 127,
      "chip": "ym2612"
    },
    {
      "channel": 1,
      "note": 68,
      "start": 125.3034,
      "duration": 0.1391,
      "velocity": 127,
      "chip": "ym2612"
    },
    {
      "channel": 2,
      "note": 54,
      "start": 125.3036,
      "duration": 0.2783,
      "velocity": 104,
      "chip": "ym2612"
    },
    {
      "channel": 1,
      "note": 68,
      "start": 125.5818,
      "duration": 0.1392,
      "velocity": 127,
      "chip": "ym2612"
    },
    {
      "channel": 1,
      "note": 68,
      "start": 125.721,
      "duration": 0.1395,
      "velocity": 127,
      "chip": "ym2612"
    },
    {
      "channel": 1,
      "note": 68,
      "start": 125.8605,
      "duration": 0.1388,
      "velocity": 127,
      "chip": "ym2612"
    },
    {
      "channel": 2,
      "note": 59,
      "start": 125.8608,
      "duration": 0.2783,
      "velocity": 104,
      "chip": "ym2612"
    },
    {
      "channel": 1,
      "note": 68,
      "start": 126.139,
      "duration": 0.1391,
      "velocity": 127,
      "chip": "ym2612"
    },
    {
      "channel": 1,
      "note": 68,
      "start": 126.2782,
      "duration": 0.1391,
      "velocity": 127,
      "chip": "ym2612"
    },
    {
      "channel": 1,
      "note": 68,
      "start": 126.4174,
      "duration": 0.1394,
      "velocity": 127,
      "chip": "ym2612"
    },
    {
      "channel": 2,
      "note": 54,
      "start": 126.4177,
      "duration": 0.1393,
      "velocity": 104,
      "chip": "ym2612"
    },
    {
      "channel": 1,
      "note": 68,
      "start": 126.5568,
      "duration": 0.1391,
      "velocity": 127,
      "chip": "ym2612"
    },
    {
      "channel": 1,
      "note": 68,
      "start": 126.6959,
      "duration": 0.1393,
      "velocity": 127,
      "chip": "ym2612"
    },
    {
      "channel": 2,
      "note": 54,
      "start": 126.6961,
      "duration": 0.1393,
      "velocity": 104,
      "chip": "ym2612"
    },
    {
      "channel": 1,
      "note": 68,
      "start": 126.8352,
      "duration": 0.1394,
      "velocity": 127,
      "chip": "ym2612"
    },
    {
      "channel": 1,
      "note": 68,
      "start": 126.9747,
      "duration": 0.1389,
      "velocity": 127,
      "chip": "ym2612"
    },
    {
      "channel": 2,
      "note": 59,
      "start": 126.9749,
      "duration": 0.2784,
      "velocity": 104,
      "chip": "ym2612"
    },
    {
      "channel": 1,
      "note": 68,
      "start": 127.2532,
      "duration": 0.1388,
      "velocity": 127,
      "chip": "ym2612"
    },
    {
      "channel": 1,
      "note": 68,
      "start": 127.3921,
      "duration": 0.1393,
      "velocity": 127,
      "chip": "ym2612"
    },
    {
      "channel": 1,
      "note": 68,
      "start": 127.5313,
      "duration": 0.1392,
      "velocity": 127,
      "chip": "ym2612"
    },
    {
      "channel": 2,
      "note": 54,
      "start": 127.5317,
      "duration": 0.2783,
      "velocity": 104,
      "chip": "ym2612"
    },
    {
      "channel": 1,
      "note": 68,
      "start": 127.8099,
      "duration": 0.1393,
      "velocity": 127,
      "chip": "ym2612"
    },
    {
      "channel": 1,
      "note": 68,
      "start": 127.9491,
      "duration": 0.1392,
      "velocity": 127,
      "chip": "ym2612"
    },
    {
      "channel": 1,
      "note": 68,
      "start": 128.0884,
      "duration": 0.1389,
      "velocity": 127,
      "chip": "ym2612"
    },
    {
      "channel": 2,
      "note": 59,
      "start": 128.0886,
      "duration": 0.2785,
      "velocity": 104,
      "chip": "ym2612"
    },
    {
      "channel": 1,
      "note": 68,
      "start": 128.3669,
      "duration": 0.139,
      "velocity": 127,
      "chip": "ym2612"
    },
    {
      "channel": 1,
      "note": 68,
      "start": 128.5059,
      "duration": 0.1393,
      "velocity": 127,
      "chip": "ym2612"
    },
    {
      "channel": 1,
      "note": 68,
      "start": 128.6454,
      "duration": 0.0928,
      "velocity": 127,
      "chip": "ym2612"
    },
    {
      "channel": 2,
      "note": 54,
      "start": 128.6457,
      "duration": 0.1389,
      "velocity": 104,
      "chip": "ym2612"
    },
    {
      "channel": 1,
      "note": 68,
      "start": 128.7383,
      "duration": 0.0925,
      "velocity": 127,
      "chip": "ym2612"
    },
    {
      "channel": 1,
      "note": 68,
      "start": 128.8309,
      "duration": 0.0929,
      "velocity": 127,
      "chip": "ym2612"
    },
    {
      "channel": 1,
      "note": 68,
      "start": 128.9239,
      "duration": 0.0925,
      "velocity": 127,
      "chip": "ym2612"
    },
    {
      "channel": 2,
      "note": 54,
      "start": 128.924,
      "duration": 0.139,
      "velocity": 104,
      "chip": "ym2612"
    },
    {
      "channel": 1,
      "note": 68,
      "start": 129.0165,
      "duration": 0.0927,
      "velocity": 127,
      "chip": "ym2612"
    },
    {
      "channel": 1,
      "note": 68,
      "start": 129.1092,
      "duration": 0.0928,
      "velocity": 127,
      "chip": "ym2612"
    },
    {
      "channel": 1,
      "note": 68,
      "start": 129.2021,
      "duration": 0.139,
      "velocity": 127,
      "chip": "ym2612"
    },
    {
      "channel": 2,
      "note": 59,
      "start": 129.2023,
      "duration": 0.2785,
      "velocity": 104,
      "chip": "ym2612"
    },
    {
      "channel": 1,
      "note": 68,
      "start": 129.4807,
      "duration": 0.1389,
      "velocity": 127,
      "chip": "ym2612"
    },
    {
      "channel": 1,
      "note": 68,
      "start": 129.6195,
      "duration": 0.1396,
      "velocity": 127,
      "chip": "ym2612"
    },
    {
      "channel": 1,
      "note": 68,
      "start": 129.7593,
      "duration": 0.1389,
      "velocity": 127,
      "chip": "ym2612"
    },
    {
      "channel": 2,
      "note": 54,
      "start": 129.7596,
      "duration": 0.2779,
      "velocity": 104,
      "chip": "ym2612"
    },
    {
      "channel": 1,
      "note": 68,
      "start": 130.0374,
      "duration": 0.1393,
      "velocity": 127,
      "chip": "ym2612"
    },
    {
      "channel": 1,
      "note": 68,
      "start": 130.1768,
      "duration": 0.1392,
      "velocity": 127,
      "chip": "ym2612"
    },
    {
      "channel": 1,
      "note": 68,
      "start": 130.316,
      "duration": 0.1392,
      "velocity": 127,
      "chip": "ym2612"
    },
    {
      "channel": 2,
      "note": 59,
      "start": 130.3163,
      "duration": 0.2786,
      "velocity": 104,
      "chip": "ym2612"
    },
    {
      "channel": 1,
      "note": 68,
      "start": 130.5949,
      "duration": 0.1389,
      "velocity": 127,
      "chip": "ym2612"
    },
    {
      "channel": 1,
      "note": 68,
      "start": 130.7338,
      "duration": 0.1394,
      "velocity": 127,
      "chip": "ym2612"
    },
    {
      "channel": 1,
      "note": 68,
      "start": 130.8732,
      "duration": 0.1393,
      "velocity": 127,
      "chip": "ym2612"
    },
    {
      "channel": 2,
      "note": 54,
      "start": 130.8735,
      "duration": 0.1392,
      "velocity": 104,
      "chip": "ym2612"
    },
    {
      "channel": 1,
      "note": 68,
      "start": 131.0125,
      "duration": 0.1391,
      "velocity": 127,
      "chip": "ym2612"
    },
    {
      "channel": 1,
      "note": 68,
      "start": 131.1517,
      "duration": 0.1392,
      "velocity": 127,
      "chip": "ym2612"
    },
    {
      "channel": 2,
      "note": 54,
      "start": 131.1518,
      "duration": 0.1393,
      "velocity": 104,
      "chip": "ym2612"
    },
    {
      "channel": 1,
      "note": 68,
      "start": 131.291,
      "duration": 0.1391,
      "velocity": 127,
      "chip": "ym2612"
    },
    {
      "channel": 1,
      "note": 68,
      "start": 131.4301,
      "duration": 0.1391,
      "velocity": 127,
      "chip": "ym2612"
    },
    {
      "channel": 2,
      "note": 59,
      "start": 131.4304,
      "duration": 0.2781,
      "velocity": 104,
      "chip": "ym2612"
    },
    {
      "channel": 1,
      "note": 68,
      "start": 131.7083,
      "duration": 0.139,
      "velocity": 127,
      "chip": "ym2612"
    },
    {
      "channel": 1,
      "note": 68,
      "start": 131.8475,
      "duration": 0.1396,
      "velocity": 127,
      "chip": "ym2612"
    },
    {
      "channel": 1,
      "note": 68,
      "start": 131.9871,
      "duration": 0.1388,
      "velocity": 127,
      "chip": "ym2612"
    },
    {
      "channel": 2,
      "note": 54,
      "start": 131.9874,
      "duration": 0.2781,
      "velocity": 104,
      "chip": "ym2612"
    },
    {
      "channel": 1,
      "note": 68,
      "start": 132.2653,
      "duration": 0.1392,
      "velocity": 127,
      "chip": "ym2612"
    },
    {
      "channel": 1,
      "note": 68,
      "start": 132.4045,
      "duration": 0.1393,
      "velocity": 127,
      "chip": "ym2612"
    },
    {
      "channel": 1,
      "note": 68,
      "start": 132.5439,
      "duration": 0.1392,
      "velocity": 127,
      "chip": "ym2612"
    },
    {
      "channel": 2,
      "note": 59,
      "start": 132.5442,
      "duration": 0.2784,
      "velocity": 104,
      "chip": "ym2612"
    },
    {
      "channel": 1,
      "note": 68,
      "start": 132.8224,
      "duration": 0.1394,
      "velocity": 127,
      "chip": "ym2612"
    },
    {
      "channel": 1,
      "note": 68,
      "start": 132.9619,
      "duration": 14.7037,
      "velocity": 127,
      "chip": "ym2612"
    }
  ]
}