{
  "track_name": "02 - European Stars",
  "duration_sec": 166.999,
  "sample_rate": 44100,
  "note_count": 2539,
  "unique_pitches": 43,
  "pitch_range": 50,
  "avg_note_duration": 0.3169,
  "reconstruction_stats": {
    "notes_reconstructed": 2539,
    "keyon_events": 2539,
    "keyoff_events": 2535,
    "orphan_keyons": 4,
    "unique_pitches": 43,
    "pitch_range": 50,
    "avg_duration_sec": 0.3169
  },
  "metadata": {
    "source": "E\\European Club Soccer\\02 - European Stars.vgz"
  },
  "notes": [
    {
      "channel": 0,
      "note": 59,
      "start": 0.0,
      "duration": 0.1735,
      "velocity": 114,
      "chip": "ym2612"
    },
    {
      "channel": 1,
      "note": 83,
      "start": 0.0019,
      "duration": 0.1721,
      "velocity": 109,
      "chip": "ym2612"
    },
    {
      "channel": 2,
      "note": 88,
      "start": 0.0039,
      "duration": 0.1706,
      "velocity": 109,
      "chip": "ym2612"
    },
    {
      "channel": 3,
      "note": 90,
      "start": 0.0059,
      "duration": 0.1692,
      "velocity": 109,
      "chip": "ym2612"
    },
    {
      "channel": 0,
      "note": 59,
      "start": 0.1736,
      "duration": 0.0883,
      "velocity": 127,
      "chip": "ym2612"
    },
    {
      "channel": 1,
      "note": 83,
      "start": 0.1741,
      "duration": 0.354,
      "velocity": 109,
      "chip": "ym2612"
    },
    {
      "channel": 2,
      "note": 86,
      "start": 0.1746,
      "duration": 0.354,
      "velocity": 109,
      "chip": "ym2612"
    },
    {
      "channel": 3,
      "note": 90,
      "start": 0.1751,
      "duration": 0.354,
      "velocity": 109,
      "chip": "ym2612"
    },
    {
      "channel": 0,
      "note": 59,
      "start": 0.2621,
      "duration": 0.09,
      "velocity": 127,
      "chip": "ym2612"
    },
    {
      "channel": 0,
      "note": 57,
      "start": 0.3522,
      "duration": 0.1754,
      "velocity": 127,
      "chip": "ym2612"
    },
    {
      "channel": 0,
      "note": 54,
      "start": 0.5277,
      "duration": 0.1807,
      "velocity": 127,
      "chip": "ym2612"
    },
    {
      "channel": 1,
      "note": 83,
      "start": 0.5283,
      "duration": 0.7221,
      "velocity": 109,
      "chip": "ym2612"
    },
    {
      "channel": 2,
      "note": 86,
      "start": 0.5288,
      "duration": 0.722,
      "velocity": 109,
      "chip": "ym2612"
    },
    {
      "channel": 3,
      "note": 90,
      "start": 0.5293,
      "duration": 0.7221,
      "velocity": 109,
      "chip": "ym2612"
    },
    {
      "channel": 0,
      "note": 52,
      "start": 0.7087,
      "duration": 0.186,
      "velocity": 114,
      "chip": "ym2612"
    },
    {
      "channel": 0,
      "note": 52,
      "start": 0.8949,
      "duration": 0.0841,
      "velocity": 127,
      "chip": "ym2612"
    },
    {
      "channel": 0,
      "note": 52,
      "start": 0.9791,
      "duration": 0.0875,
      "velocity": 127,
      "chip": "ym2612"
    },
    {
      "channel": 0,
      "note": 54,
      "start": 1.0668,
      "duration": 0.183,
      "velocity": 127,
      "chip": "ym2612"
    },
    {
      "channel": 0,
      "note": 57,
      "start": 1.2499,
      "duration": 0.1763,
      "velocity": 127,
      "chip": "ym2612"
    },
    {
      "channel": 1,
      "note": 83,
      "start": 1.2504,
      "duration": 0.3476,
      "velocity": 109,
      "chip": "ym2612"
    },
    {
      "channel": 2,
      "note": 88,
      "start": 1.251,
      "duration": 0.3476,
      "velocity": 109,
      "chip": "ym2612"
    },
    {
      "channel": 3,
      "note": 90,
      "start": 1.2515,
      "duration": 0.3476,
      "velocity": 109,
      "chip": "ym2612"
    },
    {
      "channel": 0,
      "note": 59,
      "start": 1.4264,
      "duration": 0.1711,
      "velocity": 114,
      "chip": "ym2612"
    },
    {
      "channel": 0,
      "note": 59,
      "start": 1.5976,
      "duration": 0.0862,
      "velocity": 127,
      "chip": "ym2612"
    },
    {
      "channel": 1,
      "note": 83,
      "start": 1.5982,
      "duration": 0.1775,
      "velocity": 109,
      "chip": "ym2612"
    },
    {
      "channel": 2,
      "note": 88,
      "start": 1.5987,
      "duration": 0.1775,
      "velocity": 109,
      "chip": "ym2612"
    },
    {
      "channel": 3,
      "note": 90,
      "start": 1.5992,
      "duration": 0.1775,
      "velocity": 109,
      "chip": "ym2612"
    },
    {
      "channel": 0,
      "note": 59,
      "start": 1.684,
      "duration": 0.0911,
      "velocity": 127,
      "chip": "ym2612"
    },
    {
      "channel": 0,
      "note": 57,
      "start": 1.7754,
      "duration": 0.1812,
      "velocity": 127,
      "chip": "ym2612"
    },
    {
      "channel": 1,
      "note": 83,
      "start": 1.7759,
      "duration": 0.3555,
      "velocity": 109,
      "chip": "ym2612"
    },
    {
      "channel": 2,
      "note": 86,
      "start": 1.7764,
      "duration": 0.3554,
      "velocity": 109,
      "chip": "ym2612"
    },
    {
      "channel": 3,
      "note": 90,
      "start": 1.7769,
      "duration": 0.3555,
      "velocity": 109,
      "chip": "ym2612"
    },
    {
      "channel": 0,
      "note": 54,
      "start": 1.9567,
      "duration": 0.1741,
      "velocity": 127,
      "chip": "ym2612"
    },
    {
      "channel": 0,
      "note": 52,
      "start": 2.131,
      "duration": 0.1903,
      "velocity": 114,
      "chip": "ym2612"
    },
    {
      "channel": 1,
      "note": 83,
      "start": 2.1315,
      "duration": 0.1903,
      "velocity": 109,
      "chip": "ym2612"
    },
    {
      "channel": 2,
      "note": 85,
      "start": 2.132,
      "duration": 0.1904,
      "velocity": 109,
      "chip": "ym2612"
    },
    {
      "channel": 3,
      "note": 90,
      "start": 2.1324,
      "duration": 0.1904,
      "velocity": 109,
      "chip": "ym2612"
    },
    {
      "channel": 0,
      "note": 52,
      "start": 2.3214,
      "duration": 0.0873,
      "velocity": 127,
      "chip": "ym2612"
    },
    {
      "channel": 1,
      "note": 83,
      "start": 2.3219,
      "duration": 0.3589,
      "velocity": 109,
      "chip": "ym2612"
    },
    {
      "channel": 2,
      "note": 86,
      "start": 2.3224,
      "duration": 0.3589,
      "velocity": 109,
      "chip": "ym2612"
    },
    {
      "channel": 3,
      "note": 90,
      "start": 2.3229,
      "duration": 0.3589,
      "velocity": 109,
      "chip": "ym2612"
    },
    {
      "channel": 0,
      "note": 52,
      "start": 2.4089,
      "duration": 0.0875,
      "velocity": 127,
      "chip": "ym2612"
    },
    {
      "channel": 0,
      "note": 54,
      "start": 2.4966,
      "duration": 0.1837,
      "velocity": 127,
      "chip": "ym2612"
    },
    {
      "channel": 0,
      "note": 57,
      "start": 2.6805,
      "duration": 0.1778,
      "velocity": 127,
      "chip": "ym2612"
    },
    {
      "channel": 1,
      "note": 83,
      "start": 2.681,
      "duration": 0.1779,
      "velocity": 109,
      "chip": "ym2612"
    },
    {
      "channel": 2,
      "note": 85,
      "start": 2.6815,
      "duration": 0.1779,
      "velocity": 109,
      "chip": "ym2612"
    },
    {
      "channel": 3,
      "note": 90,
      "start": 2.682,
      "duration": 0.1779,
      "velocity": 109,
      "chip": "ym2612"
    },
    {
      "channel": 0,
      "note": 59,
      "start": 2.8585,
      "duration": 0.1727,
      "velocity": 114,
      "chip": "ym2612"
    },
    {
      "channel": 1,
      "note": 81,
      "start": 2.859,
      "duration": 0.1727,
      "velocity": 109,
      "chip": "ym2612"
    },
    {
      "channel": 2,
      "note": 86,
      "start": 2.8596,
      "duration": 0.1727,
      "velocity": 109,
      "chip": "ym2612"
    },
    {
      "channel": 3,
      "note": 88,
      "start": 2.8601,
      "duration": 0.1727,
      "velocity": 109,
      "chip": "ym2612"
    },
    {
      "channel": 0,
      "note": 59,
      "start": 3.0314,
      "duration": 0.0873,
      "velocity": 127,
      "chip": "ym2612"
    },
    {
      "channel": 1,
      "note": 81,
      "start": 3.0319,
      "duration": 0.3531,
      "velocity": 109,
      "chip": "ym2612"
    },
    {
      "channel": 2,
      "note": 85,
      "start": 3.0324,
      "duration": 0.3531,
      "velocity": 109,
      "chip": "ym2612"
    },
    {
      "channel": 3,
      "note": 88,
      "start": 3.0329,
      "duration": 0.3531,
      "velocity": 109,
      "chip": "ym2612"
    },
    {
      "channel": 0,
      "note": 59,
      "start": 3.1189,
      "duration": 0.09,
      "velocity": 127,
      "chip": "ym2612"
    },
    {
      "channel": 0,
      "note": 57,
      "start": 3.209,
      "duration": 0.1755,
      "velocity": 127,
      "chip": "ym2612"
    },
    {
      "channel": 0,
      "note": 54,
      "start": 3.3846,
      "duration": 0.1788,
      "velocity": 127,
      "chip": "ym2612"
    },
    {
      "channel": 1,
      "note": 81,
      "start": 3.3851,
      "duration": 0.7135,
      "velocity": 109,
      "chip": "ym2612"
    },
    {
      "channel": 2,
      "note": 85,
      "start": 3.3857,
      "duration": 0.7135,
      "velocity": 109,
      "chip": "ym2612"
    },
    {
      "channel": 3,
      "note": 88,
      "start": 3.3862,
      "duration": 0.7135,
      "velocity": 109,
      "chip": "ym2612"
    },
    {
      "channel": 0,
      "note": 52,
      "start": 3.5636,
      "duration": 0.1899,
      "velocity": 114,
      "chip": "ym2612"
    },
    {
      "channel": 0,
      "note": 52,
      "start": 3.7537,
      "duration": 0.0872,
      "velocity": 127,
      "chip": "ym2612"
    },
    {
      "channel": 0,
      "note": 52,
      "start": 3.841,
      "duration": 0.0816,
      "velocity": 127,
      "chip": "ym2612"
    },
    {
      "channel": 0,
      "note": 54,
      "start": 3.9228,
      "duration": 0.1754,
      "velocity": 127,
      "chip": "ym2612"
    },
    {
      "channel": 0,
      "note": 57,
      "start": 4.0983,
      "duration": 0.1774,
      "velocity": 127,
      "chip": "ym2612"
    },
    {
      "channel": 1,
      "note": 81,
      "start": 4.0988,
      "duration": 0.3468,
      "velocity": 109,
      "chip": "ym2612"
    },
    {
      "channel": 2,
      "note": 86,
      "start": 4.0993,
      "duration": 0.3468,
      "velocity": 109,
      "chip": "ym2612"
    },
    {
      "channel": 3,
      "note": 88,
      "start": 4.0998,
      "duration": 0.3468,
      "velocity": 109,
      "chip": "ym2612"
    },
    {
      "channel": 0,
      "note": 59,
      "start": 4.2758,
      "duration": 0.1693,
      "velocity": 114,
      "chip": "ym2612"
    },
    {
      "channel": 0,
      "note": 59,
      "start": 4.4452,
      "duration": 0.084,
      "velocity": 127,
      "chip": "ym2612"
    },
    {
      "channel": 1,
      "note": 81,
      "start": 4.4457,
      "duration": 0.1701,
      "velocity": 109,
      "chip": "ym2612"
    },
    {
      "channel": 2,
      "note": 86,
      "start": 4.4462,
      "duration": 0.1701,
      "velocity": 109,
      "chip": "ym2612"
    },
    {
      "channel": 3,
      "note": 88,
      "start": 4.4467,
      "duration": 0.1701,
      "velocity": 109,
      "chip": "ym2612"
    },
    {
      "channel": 0,
      "note": 59,
      "start": 4.5294,
      "duration": 0.086,
      "velocity": 127,
      "chip": "ym2612"
    },
    {
      "channel": 0,
      "note": 57,
      "start": 4.6155,
      "duration": 0.1791,
      "velocity": 127,
      "chip": "ym2612"
    },
    {
      "channel": 1,
      "note": 81,
      "start": 4.616,
      "duration": 0.3564,
      "velocity": 109,
      "chip": "ym2612"
    },
    {
      "channel": 2,
      "note": 85,
      "start": 4.6166,
      "duration": 0.3563,
      "velocity": 109,
      "chip": "ym2612"
    },
    {
      "channel": 3,
      "note": 88,
      "start": 4.6171,
      "duration": 0.3564,
      "velocity": 109,
      "chip": "ym2612"
    },
    {
      "channel": 0,
      "note": 54,
      "start": 4.7948,
      "duration": 0.1771,
      "velocity": 127,
      "chip": "ym2612"
    },
    {
      "channel": 0,
      "note": 52,
      "start": 4.9721,
      "duration": 0.1902,
      "velocity": 114,
      "chip": "ym2612"
    },
    {
      "channel": 1,
      "note": 81,
      "start": 4.9726,
      "duration": 0.1902,
      "velocity": 109,
      "chip": "ym2612"
    },
    {
      "channel": 2,
      "note": 83,
      "start": 4.973,
      "duration": 0.1903,
      "velocity": 109,
      "chip": "ym2612"
    },
    {
      "channel": 3,
      "note": 88,
      "start": 4.9735,
      "duration": 0.1903,
      "velocity": 109,
      "chip": "ym2612"
    },
    {
      "channel": 0,
      "note": 52,
      "start": 5.1625,
      "duration": 0.088,
      "velocity": 127,
      "chip": "ym2612"
    },
    {
      "channel": 1,
      "note": 81,
      "start": 5.163,
      "duration": 0.3615,
      "velocity": 109,
      "chip": "ym2612"
    },
    {
      "channel": 2,
      "note": 85,
      "start": 5.1635,
      "duration": 0.3615,
      "velocity": 109,
      "chip": "ym2612"
    },
    {
      "channel": 3,
      "note": 88,
      "start": 5.1641,
      "duration": 0.3615,
      "velocity": 109,
      "chip": "ym2612"
    },
    {
      "channel": 0,
      "note": 52,
      "start": 5.2507,
      "duration": 0.0875,
      "velocity": 127,
      "chip": "ym2612"
    },
    {
      "channel": 0,
      "note": 54,
      "start": 5.3383,
      "duration": 0.0917,
      "velocity": 127,
      "chip": "ym2612"
    },
    {
      "channel": 0,
      "note": 57,
      "start": 5.4302,
      "duration": 0.0938,
      "velocity": 127,
      "chip": "ym2612"
    },
    {
      "channel": 0,
      "note": 59,
      "start": 5.5242,
      "duration": 0.089,
      "velocity": 127,
      "chip": "ym2612"
    },
    {
      "channel": 1,
      "note": 81,
      "start": 5.5247,
      "duration": 0.1776,
      "velocity": 109,
      "chip": "ym2612"
    },
    {
      "channel": 2,
      "note": 86,
      "start": 5.5252,
      "duration": 0.1776,
      "velocity": 109,
      "chip": "ym2612"
    },
    {
      "channel": 3,
      "note": 88,
      "start": 5.5257,
      "duration": 0.1777,
      "velocity": 109,
      "chip": "ym2612"
    },
    {
      "channel": 0,
      "note": 62,
      "start": 5.6134,
      "duration": 0.0884,
      "velocity": 127,
      "chip": "ym2612"
    },
    {
      "channel": 0,
      "note": 59,
      "start": 5.702,
      "duration": 0.1714,
      "velocity": 114,
      "chip": "ym2612"
    },
    {
      "channel": 1,
      "note": 85,
      "start": 5.7025,
      "duration": 0.1714,
      "velocity": 109,
      "chip": "ym2612"
    },
    {
      "channel": 2,
      "note": 91,
      "start": 5.7031,
      "duration": 0.1713,
      "velocity": 109,
      "chip": "ym2612"
    },
    {
      "channel": 3,
      "note": 86,
      "start": 5.7036,
      "duration": 0.1713,
      "velocity": 109,
      "chip": "ym2612"
    },
    {
      "channel": 0,
      "note": 59,
      "start": 5.8736,
      "duration": 0.0941,
      "velocity": 127,
      "chip": "ym2612"
    },
    {
      "channel": 1,
      "note": 83,
      "start": 5.8741,
      "duration": 0.3679,
      "velocity": 109,
      "chip": "ym2612"
    },
    {
      "channel": 2,
      "note": 91,
      "start": 5.8746,
      "duration": 0.3679,
      "velocity": 109,
      "chip": "ym2612"
    },
    {
      "channel": 3,
      "note": 86,
      "start": 5.8751,
      "duration": 0.3679,
      "velocity": 109,
      "chip": "ym2612"
    },
    {
      "channel": 0,
      "note": 59,
      "start": 5.9679,
      "duration": 0.0895,
      "velocity": 127,
      "chip": "ym2612"
    },
    {
      "channel": 0,
      "note": 57,
      "start": 6.0575,
      "duration": 0.1839,
      "velocity": 127,
      "chip": "ym2612"
    },
    {
      "channel": 0,
      "note": 54,
      "start": 6.2416,
      "duration": 0.1808,
      "velocity": 127,
      "chip": "ym2612"
    },
    {
      "channel": 1,
      "note": 83,
      "start": 6.2421,
      "duration": 0.733,
      "velocity": 109,
      "chip": "ym2612"
    },
    {
      "channel": 2,
      "note": 91,
      "start": 6.2426,
      "duration": 0.733,
      "velocity": 109,
      "chip": "ym2612"
    },
    {
      "channel": 3,
      "note": 86,
      "start": 6.2431,
      "duration": 0.733,
      "velocity": 109,
      "chip": "ym2612"
    },
    {
      "channel": 0,
      "note": 52,
      "start": 6.4225,
      "duration": 0.1898,
      "velocity": 114,
      "chip": "ym2612"
    },
    {
      "channel": 0,
      "note": 52,
      "start": 6.6124,
      "duration": 0.0902,
      "velocity": 127,
      "chip": "ym2612"
    },
    {
      "channel": 0,
      "note": 52,
      "start": 6.7028,
      "duration": 0.0876,
      "velocity": 127,
      "chip": "ym2612"
    },
    {
      "channel": 0,
      "note": 54,
      "start": 6.7907,
      "duration": 0.1839,
      "velocity": 127,
      "chip": "ym2612"
    },
    {
      "channel": 0,
      "note": 57,
      "start": 6.9747,
      "duration": 0.1856,
      "velocity": 127,
      "chip": "ym2612"
    },
    {
      "channel": 1,
      "note": 86,
      "start": 6.9752,
      "duration": 0.3568,
      "velocity": 109,
      "chip": "ym2612"
    },
    {
      "channel": 2,
      "note": 91,
      "start": 6.9757,
      "duration": 0.3568,
      "velocity": 109,
      "chip": "ym2612"
    },
    {
      "channel": 3,
      "note": 86,
      "start": 6.9762,
      "duration": 0.3568,
      "velocity": 109,
      "chip": "ym2612"
    },
    {
      "channel": 0,
      "note": 59,
      "start": 7.1605,
      "duration": 0.171,
      "velocity": 114,
      "chip": "ym2612"
    },
    {
      "channel": 0,
      "note": 59,
      "start": 7.3316,
      "duration": 0.084,
      "velocity": 127,
      "chip": "ym2612"
    },
    {
      "channel": 1,
      "note": 86,
      "start": 7.3322,
      "duration": 0.1669,
      "velocity": 109,
      "chip": "ym2612"
    },
    {
      "channel": 2,
      "note": 91,
      "start": 7.3327,
      "duration": 0.1669,
      "velocity": 109,
      "chip": "ym2612"
    },
    {
      "channel": 3,
      "note": 86,
      "start": 7.3332,
      "duration": 0.1669,
      "velocity": 109,
      "chip": "ym2612"
    },
    {
      "channel": 0,
      "note": 59,
      "start": 7.4158,
      "duration": 0.0827,
      "velocity": 127,
      "chip": "ym2612"
    },
    {
      "channel": 0,
      "note": 57,
      "start": 7.4988,
      "duration": 0.1832,
      "velocity": 127,
      "chip": "ym2612"
    },
    {
      "channel": 1,
      "note": 88,
      "start": 7.4993,
      "duration": 0.3605,
      "velocity": 109,
      "chip": "ym2612"
    },
    {
      "channel": 2,
      "note": 91,
      "start": 7.4998,
      "duration": 0.3605,
      "velocity": 109,
      "chip": "ym2612"
    },
    {
      "channel": 3,
      "note": 86,
      "start": 7.5003,
      "duration": 0.3605,
      "velocity": 109,
      "chip": "ym2612"
    },
    {
      "channel": 0,
      "note": 54,
      "start": 7.6821,
      "duration": 0.1771,
      "velocity": 127,
      "chip": "ym2612"
    },
    {
      "channel": 0,
      "note": 52,
      "start": 7.8594,
      "duration": 0.1902,
      "velocity": 114,
      "chip": "ym2612"
    },
    {
      "channel": 1,
      "note": 86,
      "start": 7.8599,
      "duration": 0.1902,
      "velocity": 109,
      "chip": "ym2612"
    },
    {
      "channel": 2,
      "note": 91,
      "start": 7.8604,
      "duration": 0.1903,
      "velocity": 109,
      "chip": "ym2612"
    },
    {
      "channel": 3,
      "note": 81,
      "start": 7.8609,
      "duration": 0.1903,
      "velocity": 109,
      "chip": "ym2612"
    },
    {
      "channel": 0,
      "note": 52,
      "start": 8.0499,
      "duration": 0.088,
      "velocity": 127,
      "chip": "ym2612"
    },
    {
      "channel": 1,
      "note": 85,
      "start": 8.0504,
      "duration": 0.3573,
      "velocity": 109,
      "chip": "ym2612"
    },
    {
      "channel": 2,
      "note": 91,
      "start": 8.0509,
      "duration": 0.3573,
      "velocity": 109,
      "chip": "ym2612"
    },
    {
      "channel": 3,
      "note": 83,
      "start": 8.0514,
      "duration": 0.1748,
      "velocity": 109,
      "chip": "ym2612"
    },
    {
      "channel": 0,
      "note": 52,
      "start": 8.138,
      "duration": 0.0875,
      "velocity": 127,
      "chip": "ym2612"
    },
    {
      "channel": 0,
      "note": 54,
      "start": 8.2257,
      "duration": 0.1814,
      "velocity": 127,
      "chip": "ym2612"
    },
    {
      "channel": 3,
      "note": 86,
      "start": 8.2263,
      "duration": 0.1823,
      "velocity": 109,
      "chip": "ym2612"
    },
    {
      "channel": 0,
      "note": 57,
      "start": 8.4073,
      "duration": 0.1792,
      "velocity": 127,
      "chip": "ym2612"
    },
    {
      "channel": 1,
      "note": 86,
      "start": 8.4078,
      "duration": 0.1792,
      "velocity": 109,
      "chip": "ym2612"
    },
    {
      "channel": 2,
      "note": 91,
      "start": 8.4083,
      "duration": 0.1792,
      "velocity": 109,
      "chip": "ym2612"
    },
    {
      "channel": 3,
      "note": 88,
      "start": 8.4088,
      "duration": 0.1792,
      "velocity": 109,
      "chip": "ym2612"
    },
    {
      "channel": 0,
      "note": 59,
      "start": 8.5866,
      "duration": 0.172,
      "velocity": 114,
      "chip": "ym2612"
    },
    {
      "channel": 1,
      "note": 88,
      "start": 8.5871,
      "duration": 0.172,
      "velocity": 109,
      "chip": "ym2612"
    },
    {
      "channel": 2,
      "note": 81,
      "start": 8.5877,
      "duration": 0.172,
      "velocity": 109,
      "chip": "ym2612"
    },
    {
      "channel": 3,
      "note": 85,
      "start": 8.5882,
      "duration": 0.172,
      "velocity": 109,
      "chip": "ym2612"
    },
    {
      "channel": 0,
      "note": 59,
      "start": 8.7589,
      "duration": 0.088,
      "velocity": 127,
      "chip": "ym2612"
    },
    {
      "channel": 1,
      "note": 85,
      "start": 8.7594,
      "duration": 0.3527,
      "velocity": 109,
      "chip": "ym2612"
    },
    {
      "channel": 2,
      "note": 81,
      "start": 8.7599,
      "duration": 0.3527,
      "velocity": 109,
      "chip": "ym2612"
    },
    {
      "channel": 3,
      "note": 85,
      "start": 8.7604,
      "duration": 0.3527,
      "velocity": 109,
      "chip": "ym2612"
    },
    {
      "channel": 0,
      "note": 59,
      "start": 8.847,
      "duration": 0.0875,
      "velocity": 127,
      "chip": "ym2612"
    },
    {
      "channel": 0,
      "note": 57,
      "start": 8.9347,
      "duration": 0.1769,
      "velocity": 127,
      "chip": "ym2612"
    },
    {
      "channel": 0,
      "note": 54,
      "start": 9.1118,
      "duration": 0.1765,
      "velocity": 127,
      "chip": "ym2612"
    },
    {
      "channel": 1,
      "note": 85,
      "start": 9.1123,
      "duration": 0.722,
      "velocity": 109,
      "chip": "ym2612"
    },
    {
      "channel": 2,
      "note": 81,
      "start": 9.1128,
      "duration": 0.722,
      "velocity": 109,
      "chip": "ym2612"
    },
    {
      "channel": 3,
      "note": 85,
      "start": 9.1133,
      "duration": 0.7221,
      "velocity": 109,
      "chip": "ym2612"
    },
    {
      "channel": 0,
      "note": 52,
      "start": 9.2884,
      "duration": 0.1902,
      "velocity": 114,
      "chip": "ym2612"
    },
    {
      "channel": 0,
      "note": 52,
      "start": 9.4788,
      "duration": 0.0881,
      "velocity": 127,
      "chip": "ym2612"
    },
    {
      "channel": 0,
      "note": 52,
      "start": 9.5671,
      "duration": 0.0876,
      "velocity": 127,
      "chip": "ym2612"
    },
    {
      "channel": 0,
      "note": 54,
      "start": 9.6549,
      "duration": 0.1789,
      "velocity": 127,
      "chip": "ym2612"
    },
    {
      "channel": 0,
      "note": 57,
      "start": 9.834,
      "duration": 0.1761,
      "velocity": 127,
      "chip": "ym2612"
    },
    {
      "channel": 1,
      "note": 88,
      "start": 9.8345,
      "duration": 0.3437,
      "velocity": 109,
      "chip": "ym2612"
    },
    {
      "channel": 2,
      "note": 81,
      "start": 9.8349,
      "duration": 0.3438,
      "velocity": 109,
      "chip": "ym2612"
    },
    {
      "channel": 3,
      "note": 85,
      "start": 9.8354,
      "duration": 0.3438,
      "velocity": 109,
      "chip": "ym2612"
    },
    {
      "channel": 0,
      "note": 59,
      "start": 10.0103,
      "duration": 0.1674,
      "velocity": 114,
      "chip": "ym2612"
    },
    {
      "channel": 0,
      "note": 59,
      "start": 10.1778,
      "duration": 0.084,
      "velocity": 127,
      "chip": "ym2612"
    },
    {
      "channel": 1,
      "note": 88,
      "start": 10.1783,
      "duration": 0.1679,
      "velocity": 109,
      "chip": "ym2612"
    },
    {
      "channel": 2,
      "note": 81,
      "start": 10.1788,
      "duration": 0.1679,
      "velocity": 109,
      "chip": "ym2612"
    },
    {
      "channel": 3,
      "note": 85,
      "start": 10.1794,
      "duration": 0.1679,
      "velocity": 109,
      "chip": "ym2612"
    },
    {
      "channel": 0,
      "note": 59,
      "start": 10.262,
      "duration": 0.0837,
      "velocity": 127,
      "chip": "ym2612"
    },
    {
      "channel": 0,
      "note": 57,
      "start": 10.3459,
      "duration": 0.1811,
      "velocity": 127,
      "chip": "ym2612"
    },
    {
      "channel": 1,
      "note": 90,
      "start": 10.3464,
      "duration": 0.3585,
      "velocity": 109,
      "chip": "ym2612"
    },
    {
      "channel": 2,
      "note": 81,
      "start": 10.347,
      "duration": 0.3585,
      "velocity": 109,
      "chip": "ym2612"
    },
    {
      "channel": 3,
      "note": 85,
      "start": 10.3475,
      "duration": 0.3585,
      "velocity": 109,
      "chip": "ym2612"
    },
    {
      "channel": 0,
      "note": 54,
      "start": 10.5273,
      "duration": 0.1772,
      "velocity": 127,
      "chip": "ym2612"
    },
    {
      "channel": 0,
      "note": 52,
      "start": 10.7046,
      "duration": 0.1883,
      "velocity": 114,
      "chip": "ym2612"
    },
    {
      "channel": 1,
      "note": 95,
      "start": 10.7051,
      "duration": 0.1883,
      "velocity": 109,
      "chip": "ym2612"
    },
    {
      "channel": 2,
      "note": 81,
      "start": 10.7056,
      "duration": 0.1883,
      "velocity": 109,
      "chip": "ym2612"
    },
    {
      "channel": 3,
      "note": 85,
      "start": 10.7061,
      "duration": 0.1883,
      "velocity": 109,
      "chip": "ym2612"
    },
    {
      "channel": 0,
      "note": 52,
      "start": 10.8931,
      "duration": 0.0881,
      "velocity": 127,
      "chip": "ym2612"
    },
    {
      "channel": 1,
      "note": 93,
      "start": 10.8936,
      "duration": 0.3494,
      "velocity": 109,
      "chip": "ym2612"
    },
    {
      "channel": 2,
      "note": 81,
      "start": 10.8941,
      "duration": 0.3494,
      "velocity": 109,
      "chip": "ym2612"
    },
    {
      "channel": 3,
      "note": 85,
      "start": 10.8946,
      "duration": 0.3494,
      "velocity": 109,
      "chip": "ym2612"
    },
    {
      "channel": 0,
      "note": 52,
      "start": 10.9813,
      "duration": 0.0879,
      "velocity": 127,
      "chip": "ym2612"
    },
    {
      "channel": 0,
      "note": 54,
      "start": 11.0693,
      "duration": 0.0835,
      "velocity": 127,
      "chip": "ym2612"
    },
    {
      "channel": 0,
      "note": 57,
      "start": 11.153,
      "duration": 0.0895,
      "velocity": 127,
      "chip": "ym2612"
    },
    {
      "channel": 0,
      "note": 59,
      "start": 11.2427,
      "duration": 0.0918,
      "velocity": 127,
      "chip": "ym2612"
    },
    {
      "channel": 1,
      "note": 90,
      "start": 11.2432,
      "duration": 0.1804,
      "velocity": 109,
      "chip": "ym2612"
    },
    {
      "channel": 2,
      "note": 81,
      "start": 11.2437,
      "duration": 0.1805,
      "velocity": 109,
      "chip": "ym2612"
    },
    {
      "channel": 3,
      "note": 85,
      "start": 11.2442,
      "duration": 0.1819,
      "velocity": 89,
      "chip": "ym2612"
    },
    {
      "channel": 0,
      "note": 62,
      "start": 11.3346,
      "duration": 0.0885,
      "velocity": 127,
      "chip": "ym2612"
    },
    {
      "channel": 0,
      "note": 59,
      "start": 11.4232,
      "duration": 0.1663,
      "velocity": 114,
      "chip": "ym2612"
    },
    {
      "channel": 1,
      "note": 83,
      "start": 11.4237,
      "duration": 0.1662,
      "velocity": 109,
      "chip": "ym2612"
    },
    {
      "channel": 2,
      "note": 88,
      "start": 11.4242,
      "duration": 0.1663,
      "velocity": 109,
      "chip": "ym2612"
    },
    {
      "channel": 3,
      "note": 83,
      "start": 11.4262,
      "duration": 0.3444,
      "velocity": 89,
      "chip": "ym2612"
    },
    {
      "channel": 4,
      "note": 78,
      "start": 11.4282,
      "duration": 0.3429,
      "velocity": 89,
      "chip": "ym2612"
    },
    {
      "channel": 0,
      "note": 59,
      "start": 11.5897,
      "duration": 0.0882,
      "velocity": 127,
      "chip": "ym2612"
    },
    {
      "channel": 1,
      "note": 83,
      "start": 11.5902,
      "duration": 0.3646,
      "velocity": 109,
      "chip": "ym2612"
    },
    {
      "channel": 2,
      "note": 86,
      "start": 11.5907,
      "duration": 0.3646,
      "velocity": 109,
      "chip": "ym2612"
    },
    {
      "channel": 0,
      "note": 59,
      "start": 11.678,
      "duration": 0.092,
      "velocity": 127,
      "chip": "ym2612"
    },
    {
      "channel": 0,
      "note": 57,
      "start": 11.7701,
      "duration": 0.1842,
      "velocity": 127,
      "chip": "ym2612"
    },
    {
      "channel": 3,
      "note": 85,
      "start": 11.7708,
      "duration": 0.1851,
      "velocity": 89,
      "chip": "ym2612"
    },
    {
      "channel": 4,
      "note": 81,
      "start": 11.7713,
      "duration": 0.1851,
      "velocity": 89,
      "chip": "ym2612"
    },
    {
      "channel": 0,
      "note": 54,
      "start": 11.9545,
      "duration": 0.1706,
      "velocity": 127,
      "chip": "ym2612"
    },
    {
      "channel": 1,
      "note": 83,
      "start": 11.955,
      "duration": 0.7148,
      "velocity": 109,
      "chip": "ym2612"
    },
    {
      "channel": 2,
      "note": 86,
      "start": 11.9555,
      "duration": 0.7148,
      "velocity": 109,
      "chip": "ym2612"
    },
    {
      "channel": 3,
      "note": 83,
      "start": 11.956,
      "duration": 0.1697,
      "velocity": 89,
      "chip": "ym2612"
    },
    {
      "channel": 4,
      "note": 78,
      "start": 11.9565,
      "duration": 0.1697,
      "velocity": 89,
      "chip": "ym2612"
    },
    {
      "channel": 0,
      "note": 52,
      "start": 12.1253,
      "duration": 0.1956,
      "velocity": 114,
      "chip": "ym2612"
    },
    {
      "channel": 3,
      "note": 86,
      "start": 12.1259,
      "duration": 0.3657,
      "velocity": 89,
      "chip": "ym2612"
    },
    {
      "channel": 4,
      "note": 83,
      "start": 12.1264,
      "duration": 0.3657,
      "velocity": 89,
      "chip": "ym2612"
    },
    {
      "channel": 0,
      "note": 52,
      "start": 12.3211,
      "duration": 0.0859,
      "velocity": 127,
      "chip": "ym2612"
    },
    {
      "channel": 0,
      "note": 52,
      "start": 12.4072,
      "duration": 0.0839,
      "velocity": 127,
      "chip": "ym2612"
    },
    {
      "channel": 0,
      "note": 54,
      "start": 12.4912,
      "duration": 0.1781,
      "velocity": 127,
      "chip": "ym2612"
    },
    {
      "channel": 3,
      "note": 88,
      "start": 12.4918,
      "duration": 0.179,
      "velocity": 89,
      "chip": "ym2612"
    },
    {
      "channel": 4,
      "note": 83,
      "start": 12.4923,
      "duration": 0.179,
      "velocity": 89,
      "chip": "ym2612"
    },
    {
      "channel": 0,
      "note": 57,
      "start": 12.6695,
      "duration": 0.169,
      "velocity": 127,
      "chip": "ym2612"
    },
    {
      "channel": 1,
      "note": 83,
      "start": 12.67,
      "duration": 0.3371,
      "velocity": 109,
      "chip": "ym2612"
    },
    {
      "channel": 2,
      "note": 88,
      "start": 12.6705,
      "duration": 0.3371,
      "velocity": 109,
      "chip": "ym2612"
    },
    {
      "channel": 3,
      "note": 86,
      "start": 12.671,
      "duration": 0.168,
      "velocity": 89,
      "chip": "ym2612"
    },
    {
      "channel": 4,
      "note": 81,
      "start": 12.6715,
      "duration": 0.168,
      "velocity": 89,
      "chip": "ym2612"
    },
    {
      "channel": 0,
      "note": 59,
      "start": 12.8386,
      "duration": 0.168,
      "velocity": 114,
      "chip": "ym2612"
    },
    {
      "channel": 3,
      "note": 89,
      "start": 12.8392,
      "duration": 0.0838,
      "velocity": 89,
      "chip": "ym2612"
    },
    {
      "channel": 4,
      "note": 85,
      "start": 12.8397,
      "duration": 0.0838,
      "velocity": 89,
      "chip": "ym2612"
    },
    {
      "channel": 3,
      "note": 90,
      "start": 12.9232,
      "duration": 0.2602,
      "velocity": 89,
      "chip": "ym2612"
    },
    {
      "channel": 4,
      "note": 86,
      "start": 12.9238,
      "duration": 0.2602,
      "velocity": 89,
      "chip": "ym2612"
    },
    {
      "channel": 0,
      "note": 59,
      "start": 13.0067,
      "duration": 0.0887,
      "velocity": 127,
      "chip": "ym2612"
    },
    {
      "channel": 1,
      "note": 83,
      "start": 13.0073,
      "duration": 0.1752,
      "velocity": 109,
      "chip": "ym2612"
    },
    {
      "channel": 2,
      "note": 88,
      "start": 13.0078,
      "duration": 0.1752,
      "velocity": 109,
      "chip": "ym2612"
    },
    {
      "channel": 0,
      "note": 59,
      "start": 13.0956,
      "duration": 0.0863,
      "velocity": 127,
      "chip": "ym2612"
    },
    {
      "channel": 0,
      "note": 57,
      "start": 13.1821,
      "duration": 0.1819,
      "velocity": 127,
      "chip": "ym2612"
    },
    {
      "channel": 1,
      "note": 83,
      "start": 13.1826,
      "duration": 0.3572,
      "velocity": 109,
      "chip": "ym2612"
    },
    {
      "channel": 2,
      "note": 86,
      "start": 13.1831,
      "duration": 0.3572,
      "velocity": 109,
      "chip": "ym2612"
    },
    {
      "channel": 3,
      "note": 95,
      "start": 13.1836,
      "duration": 0.3572,
      "velocity": 89,
      "chip": "ym2612"
    },
    {
      "channel": 4,
      "note": 90,
      "start": 13.1841,
      "duration": 0.3572,
      "velocity": 89,
      "chip": "ym2612"
    },
    {
      "channel": 0,
      "note": 54,
      "start": 13.3642,
      "duration": 0.1751,
      "velocity": 127,
      "chip": "ym2612"
    },
    {
      "channel": 0,
      "note": 52,
      "start": 13.5395,
      "duration": 0.1857,
      "velocity": 114,
      "chip": "ym2612"
    },
    {
      "channel": 1,
      "note": 83,
      "start": 13.54,
      "duration": 0.1857,
      "velocity": 109,
      "chip": "ym2612"
    },
    {
      "channel": 2,
      "note": 85,
      "start": 13.5405,
      "duration": 0.1857,
      "velocity": 109,
      "chip": "ym2612"
    },
    {
      "channel": 3,
      "note": 89,
      "start": 13.541,
      "duration": 0.0829,
      "velocity": 89,
      "chip": "ym2612"
    },
    {
      "channel": 4,
      "note": 86,
      "start": 13.5415,
      "duration": 0.0829,
      "velocity": 89,
      "chip": "ym2612"
    },
    {
      "channel": 3,
      "note": 88,
      "start": 13.6241,
      "duration": 0.1026,
      "velocity": 89,
      "chip": "ym2612"
    },
    {
      "channel": 4,
      "note": 85,
      "start": 13.6246,
      "duration": 0.1026,
      "velocity": 89,
      "chip": "ym2612"
    },
    {
      "channel": 0,
      "note": 52,
      "start": 13.7254,
      "duration": 0.0888,
      "velocity": 127,
      "chip": "ym2612"
    },
    {
      "channel": 1,
      "note": 83,
      "start": 13.7259,
      "duration": 0.3554,
      "velocity": 109,
      "chip": "ym2612"
    },
    {
      "channel": 2,
      "note": 86,
      "start": 13.7264,
      "duration": 0.3554,
      "velocity": 109,
      "chip": "ym2612"
    },
    {
      "channel": 3,
      "note": 86,
      "start": 13.7269,
      "duration": 0.1762,
      "velocity": 89,
      "chip": "ym2612"
    },
    {
      "channel": 4,
      "note": 83,
      "start": 13.7274,
      "duration": 0.1762,
      "velocity": 89,
      "chip": "ym2612"
    },
    {
      "channel": 0,
      "note": 52,
      "start": 13.8143,
      "duration": 0.0882,
      "velocity": 127,
      "chip": "ym2612"
    },
    {
      "channel": 0,
      "note": 54,
      "start": 13.9026,
      "duration": 0.1781,
      "velocity": 127,
      "chip": "ym2612"
    },
    {
      "channel": 3,
      "note": 83,
      "start": 13.9032,
      "duration": 0.179,
      "velocity": 89,
      "chip": "ym2612"
    },
    {
      "channel": 4,
      "note": 76,
      "start": 13.9038,
      "duration": 0.179,
      "velocity": 89,
      "chip": "ym2612"
    },
    {
      "channel": 0,
      "note": 57,
      "start": 14.0809,
      "duration": 0.1818,
      "velocity": 127,
      "chip": "ym2612"
    },
    {
      "channel": 1,
      "note": 83,
      "start": 14.0814,
      "duration": 0.1817,
      "velocity": 109,
      "chip": "ym2612"
    },
    {
      "channel": 2,
      "note": 85,
      "start": 14.082,
      "duration": 0.1817,
      "velocity": 109,
      "chip": "ym2612"
    },
    {
      "channel": 3,
      "note": 81,
      "start": 14.0824,
      "duration": 0.1818,
      "velocity": 89,
      "chip": "ym2612"
    },
    {
      "channel": 4,
      "note": 78,
      "start": 14.0829,
      "duration": 0.1818,
      "velocity": 89,
      "chip": "ym2612"
    },
    {
      "channel": 0,
      "note": 59,
      "start": 14.2628,
      "duration": 0.1685,
      "velocity": 114,
      "chip": "ym2612"
    },
    {
      "channel": 1,
      "note": 81,
      "start": 14.2633,
      "duration": 0.1685,
      "velocity": 109,
      "chip": "ym2612"
    },
    {
      "channel": 2,
      "note": 86,
      "start": 14.2639,
      "duration": 0.1685,
      "velocity": 109,
      "chip": "ym2612"
    },
    {
      "channel": 3,
      "note": 83,
      "start": 14.2644,
      "duration": 0.3336,
      "velocity": 89,
      "chip": "ym2612"
    },
    {
      "channel": 4,
      "note": 78,
      "start": 14.2649,
      "duration": 0.3337,
      "velocity": 89,
      "chip": "ym2612"
    },
    {
      "channel": 0,
      "note": 59,
      "start": 14.4315,
      "duration": 0.0819,
      "velocity": 127,
      "chip": "ym2612"
    },
    {
      "channel": 1,
      "note": 81,
      "start": 14.4321,
      "duration": 0.3518,
      "velocity": 109,
      "chip": "ym2612"
    },
    {
      "channel": 2,
      "note": 85,
      "start": 14.4326,
      "duration": 0.3518,
      "velocity": 109,
      "chip": "ym2612"
    },
    {
      "channel": 0,
      "note": 59,
      "start": 14.5136,
      "duration": 0.0838,
      "velocity": 127,
      "chip": "ym2612"
    },
    {
      "channel": 0,
      "note": 57,
      "start": 14.5976,
      "duration": 0.1858,
      "velocity": 127,
      "chip": "ym2612"
    },
    {
      "channel": 3,
      "note": 85,
      "start": 14.5981,
      "duration": 0.1868,
      "velocity": 89,
      "chip": "ym2612"
    },
    {
      "channel": 4,
      "note": 81,
      "start": 14.5986,
      "duration": 0.1868,
      "velocity": 89,
      "chip": "ym2612"
    },
    {
      "channel": 0,
      "note": 54,
      "start": 14.7836,
      "duration": 0.1714,
      "velocity": 127,
      "chip": "ym2612"
    },
    {
      "channel": 1,
      "note": 81,
      "start": 14.7841,
      "duration": 0.7273,
      "velocity": 109,
      "chip": "ym2612"
    },
    {
      "channel": 2,
      "note": 85,
      "start": 14.7846,
      "duration": 0.7273,
      "velocity": 109,
      "chip": "ym2612"
    },
    {
      "channel": 3,
      "note": 83,
      "start": 14.7851,
      "duration": 0.1705,
      "velocity": 89,
      "chip": "ym2612"
    },
    {
      "channel": 4,
      "note": 78,
      "start": 14.7856,
      "duration": 0.1705,
      "velocity": 89,
      "chip": "ym2612"
    },
    {
      "channel": 0,
      "note": 52,
      "start": 14.9551,
      "duration": 0.1959,
      "velocity": 114,
      "chip": "ym2612"
    },
    {
      "channel": 3,
      "note": 86,
      "start": 14.9558,
      "duration": 0.1959,
      "velocity": 89,
      "chip": "ym2612"
    },
    {
      "channel": 4,
      "note": 83,
      "start": 14.9563,
      "duration": 0.1959,
      "velocity": 89,
      "chip": "ym2612"
    },
    {
      "channel": 0,
      "note": 52,
      "start": 15.1512,
      "duration": 0.094,
      "velocity": 127,
      "chip": "ym2612"
    },
    {
      "channel": 3,
      "note": 88,
      "start": 15.1519,
      "duration": 0.1813,
      "velocity": 89,
      "chip": "ym2612"
    },
    {
      "channel": 4,
      "note": 85,
      "start": 15.1524,
      "duration": 0.1813,
      "velocity": 89,
      "chip": "ym2612"
    },
    {
      "channel": 0,
      "note": 52,
      "start": 15.2454,
      "duration": 0.0871,
      "velocity": 127,
      "chip": "ym2612"
    },
    {
      "channel": 0,
      "note": 54,
      "start": 15.3328,
      "duration": 0.178,
      "velocity": 127,
      "chip": "ym2612"
    },
    {
      "channel": 3,
      "note": 86,
      "start": 15.3334,
      "duration": 0.179,
      "velocity": 89,
      "chip": "ym2612"
    },
    {
      "channel": 4,
      "note": 83,
      "start": 15.3339,
      "duration": 0.179,
      "velocity": 89,
      "chip": "ym2612"
    },
    {
      "channel": 0,
      "note": 57,
      "start": 15.511,
      "duration": 0.1696,
      "velocity": 127,
      "chip": "ym2612"
    },
    {
      "channel": 1,
      "note": 81,
      "start": 15.5115,
      "duration": 0.3402,
      "velocity": 109,
      "chip": "ym2612"
    },
    {
      "channel": 2,
      "note": 86,
      "start": 15.5121,
      "duration": 0.3402,
      "velocity": 109,
      "chip": "ym2612"
    },
    {
      "channel": 3,
      "note": 89,
      "start": 15.5126,
      "duration": 0.0838,
      "velocity": 89,
      "chip": "ym2612"
    },
    {
      "channel": 4,
      "note": 85,
      "start": 15.5131,
      "duration": 0.0838,
      "velocity": 89,
      "chip": "ym2612"
    },
    {
      "channel": 3,
      "note": 90,
      "start": 15.5966,
      "duration": 0.2562,
      "velocity": 89,
      "chip": "ym2612"
    },
    {
      "channel": 4,
      "note": 86,
      "start": 15.5971,
      "duration": 0.2562,
      "velocity": 89,
      "chip": "ym2612"
    },
    {
      "channel": 0,
      "note": 59,
      "start": 15.6808,
      "duration": 0.1704,
      "velocity": 114,
      "chip": "ym2612"
    },
    {
      "channel": 0,
      "note": 59,
      "start": 15.8513,
      "duration": 0.0885,
      "velocity": 127,
      "chip": "ym2612"
    },
    {
      "channel": 1,
      "note": 81,
      "start": 15.8519,
      "duration": 0.1759,
      "velocity": 109,
      "chip": "ym2612"
    },
    {
      "channel": 2,
      "note": 86,
      "start": 15.8524,
      "duration": 0.1759,
      "velocity": 109,
      "chip": "ym2612"
    },
    {
      "channel": 3,
      "note": 89,
      "start": 15.8529,
      "duration": 0.0875,
      "velocity": 89,
      "chip": "ym2612"
    },
    {
      "channel": 4,
      "note": 85,
      "start": 15.8534,
      "duration": 0.0875,
      "velocity": 89,
      "chip": "ym2612"
    },
    {
      "channel": 0,
      "note": 59,
      "start": 15.9399,
      "duration": 0.0874,
      "velocity": 127,
      "chip": "ym2612"
    },
    {
      "channel": 3,
      "note": 90,
      "start": 15.9405,
      "duration": 0.2639,
      "velocity": 89,
      "chip": "ym2612"
    },
    {
      "channel": 4,
      "note": 86,
      "start": 15.9411,
      "duration": 0.2639,
      "velocity": 89,
      "chip": "ym2612"
    },
    {
      "channel": 0,
      "note": 57,
      "start": 16.0275,
      "duration": 0.1764,
      "velocity": 127,
      "chip": "ym2612"
    },
    {
      "channel": 1,
      "note": 81,
      "start": 16.0279,
      "duration": 0.3623,
      "velocity": 109,
      "chip": "ym2612"
    },
    {
      "channel": 2,
      "note": 85,
      "start": 16.0284,
      "duration": 0.3623,
      "velocity": 109,
      "chip": "ym2612"
    },
    {
      "channel": 0,
      "note": 54,
      "start": 16.2041,
      "duration": 0.1856,
      "velocity": 127,
      "chip": "ym2612"
    },
    {
      "channel": 3,
      "note": 89,
      "start": 16.2047,
      "duration": 0.0941,
      "velocity": 89,
      "chip": "ym2612"
    },
    {
      "channel": 4,
      "note": 85,
      "start": 16.2052,
      "duration": 0.0941,
      "velocity": 89,
      "chip": "ym2612"
    },
    {
      "channel": 3,
      "note": 90,
      "start": 16.299,
      "duration": 0.0923,
      "velocity": 89,
      "chip": "ym2612"
    },
    {
      "channel": 4,
      "note": 86,
      "start": 16.2995,
      "duration": 0.0923,
      "velocity": 89,
      "chip": "ym2612"
    },
    {
      "channel": 0,
      "note": 52,
      "start": 16.3899,
      "duration": 0.1856,
      "velocity": 114,
      "chip": "ym2612"
    },
    {
      "channel": 1,
      "note": 81,
      "start": 16.3904,
      "duration": 0.1856,
      "velocity": 109,
      "chip": "ym2612"
    },
    {
      "channel": 2,
      "note": 83,
      "start": 16.3909,
      "duration": 0.1856,
      "velocity": 109,
      "chip": "ym2612"
    },
    {
      "channel": 3,
      "note": 88,
      "start": 16.3914,
      "duration": 0.0828,
      "velocity": 89,
      "chip": "ym2612"
    },
    {
      "channel": 4,
      "note": 85,
      "start": 16.3919,
      "duration": 0.0828,
      "velocity": 89,
      "chip": "ym2612"
    },
    {
      "channel": 3,
      "note": 86,
      "start": 16.4744,
      "duration": 0.1026,
      "velocity": 89,
      "chip": "ym2612"
    },
    {
      "channel": 4,
      "note": 83,
      "start": 16.4749,
      "duration": 0.1026,
      "velocity": 89,
      "chip": "ym2612"
    },
    {
      "channel": 0,
      "note": 52,
      "start": 16.5757,
      "duration": 0.0887,
      "velocity": 127,
      "chip": "ym2612"
    },
    {
      "channel": 1,
      "note": 81,
      "start": 16.5762,
      "duration": 0.3522,
      "velocity": 109,
      "chip": "ym2612"
    },
    {
      "channel": 2,
      "note": 85,
      "start": 16.5767,
      "duration": 0.3522,
      "velocity": 109,
      "chip": "ym2612"
    },
    {
      "channel": 3,
      "note": 83,
      "start": 16.5772,
      "duration": 0.1747,
      "velocity": 89,
      "chip": "ym2612"
    },
    {
      "channel": 4,
      "note": 78,
      "start": 16.5777,
      "duration": 0.1747,
      "velocity": 89,
      "chip": "ym2612"
    },
    {
      "channel": 0,
      "note": 52,
      "start": 16.6645,
      "duration": 0.0869,
      "velocity": 127,
      "chip": "ym2612"
    },
    {
      "channel": 0,
      "note": 54,
      "start": 16.7515,
      "duration": 0.0869,
      "velocity": 127,
      "chip": "ym2612"
    },
    {
      "channel": 3,
      "note": 81,
      "start": 16.7521,
      "duration": 0.0869,
      "velocity": 89,
      "chip": "ym2612"
    },
    {
      "channel": 4,
      "note": 76,
      "start": 16.7526,
      "duration": 0.0869,
      "velocity": 89,
      "chip": "ym2612"
    },
    {
      "channel": 0,
      "note": 57,
      "start": 16.8385,
      "duration": 0.0894,
      "velocity": 127,
      "chip": "ym2612"
    },
    {
      "channel": 3,
      "note": 82,
      "start": 16.8392,
      "duration": 0.0903,
      "velocity": 89,
      "chip": "ym2612"
    },
    {
      "channel": 4,
      "note": 77,
      "start": 16.8397,
      "duration": 0.0903,
      "velocity": 89,
      "chip": "ym2612"
    },
    {
      "channel": 0,
      "note": 59,
      "start": 16.9281,
      "duration": 0.0905,
      "velocity": 127,
      "chip": "ym2612"
    },
    {
      "channel": 1,
      "note": 81,
      "start": 16.9286,
      "duration": 0.1829,
      "velocity": 109,
      "chip": "ym2612"
    },
    {
      "channel": 2,
      "note": 86,
      "start": 16.9291,
      "duration": 0.183,
      "velocity": 109,
      "chip": "ym2612"
    },
    {
      "channel": 3,
      "note": 83,
      "start": 16.9296,
      "duration": 0.183,
      "velocity": 89,
      "chip": "ym2612"
    },
    {
      "channel": 4,
      "note": 78,
      "start": 16.9301,
      "duration": 0.2755,
      "velocity": 89,
      "chip": "ym2612"
    },
    {
      "channel": 0,
      "note": 62,
      "start": 17.0188,
      "duration": 0.0922,
      "velocity": 127,
      "chip": "ym2612"
    },
    {
      "channel": 0,
      "note": 59,
      "start": 17.1111,
      "duration": 0.1783,
      "velocity": 114,
      "chip": "ym2612"
    },
    {
      "channel": 1,
      "note": 85,
      "start": 17.1117,
      "duration": 0.1783,
      "velocity": 109,
      "chip": "ym2612"
    },
    {
      "channel": 2,
      "note": 91,
      "start": 17.1123,
      "duration": 0.1782,
      "velocity": 109,
      "chip": "ym2612"
    },
    {
      "channel": 3,
      "note": 71,
      "start": 17.1128,
      "duration": 0.1782,
      "velocity": 89,
      "chip": "ym2612"
    },
    {
      "channel": 4,
      "note": 74,
      "start": 17.2058,
      "duration": 0.1764,
      "velocity": 89,
      "chip": "ym2612"
    },
    {
      "channel": 0,
      "note": 59,
      "start": 17.2896,
      "duration": 0.092,
      "velocity": 127,
      "chip": "ym2612"
    },
    {
      "channel": 1,
      "note": 83,
      "start": 17.2902,
      "duration": 0.3626,
      "velocity": 109,
      "chip": "ym2612"
    },
    {
      "channel": 2,
      "note": 91,
      "start": 17.2907,
      "duration": 0.3626,
      "velocity": 109,
      "chip": "ym2612"
    },
    {
      "channel": 3,
      "note": 76,
      "start": 17.2912,
      "duration": 0.1823,
      "velocity": 89,
      "chip": "ym2612"
    },
    {
      "channel": 0,
      "note": 59,
      "start": 17.3817,
      "duration": 0.0912,
      "velocity": 127,
      "chip": "ym2612"
    },
    {
      "channel": 4,
      "note": 78,
      "start": 17.3824,
      "duration": 0.0916,
      "velocity": 89,
      "chip": "ym2612"
    },
    {
      "channel": 0,
      "note": 57,
      "start": 17.473,
      "duration": 0.1793,
      "velocity": 127,
      "chip": "ym2612"
    },
    {
      "channel": 3,
      "note": 83,
      "start": 17.4737,
      "duration": 0.1802,
      "velocity": 89,
      "chip": "ym2612"
    },
    {
      "channel": 4,
      "note": 78,
      "start": 17.4742,
      "duration": 0.1801,
      "velocity": 89,
      "chip": "ym2612"
    },
    {
      "channel": 0,
      "note": 54,
      "start": 17.6525,
      "duration": 0.1745,
      "velocity": 127,
      "chip": "ym2612"
    },
    {
      "channel": 1,
      "note": 83,
      "start": 17.653,
      "duration": 0.7268,
      "velocity": 109,
      "chip": "ym2612"
    },
    {
      "channel": 2,
      "note": 91,
      "start": 17.6535,
      "duration": 0.7268,
      "velocity": 109,
      "chip": "ym2612"
    },
    {
      "channel": 3,
      "note": 86,
      "start": 17.654,
      "duration": 0.1737,
      "velocity": 89,
      "chip": "ym2612"
    },
    {
      "channel": 4,
      "note": 81,
      "start": 17.6545,
      "duration": 0.1737,
      "velocity": 89,
      "chip": "ym2612"
    },
    {
      "channel": 0,
      "note": 52,
      "start": 17.8272,
      "duration": 0.1921,
      "velocity": 114,
      "chip": "ym2612"
    },
    {
      "channel": 3,
      "note": 88,
      "start": 17.8278,
      "duration": 0.1921,
      "velocity": 89,
      "chip": "ym2612"
    },
    {
      "channel": 4,
      "note": 83,
      "start": 17.8283,
      "duration": 0.1922,
      "velocity": 89,
      "chip": "ym2612"
    },
    {
      "channel": 0,
      "note": 52,
      "start": 18.0195,
      "duration": 0.0941,
      "velocity": 127,
      "chip": "ym2612"
    },
    {
      "channel": 3,
      "note": 89,
      "start": 18.0202,
      "duration": 0.1814,
      "velocity": 89,
      "chip": "ym2612"
    },
    {
      "channel": 4,
      "note": 84,
      "start": 18.0207,
      "duration": 0.1814,
      "velocity": 89,
      "chip": "ym2612"
    },
    {
      "channel": 0,
      "note": 52,
      "start": 18.1139,
      "duration": 0.0871,
      "velocity": 127,
      "chip": "ym2612"
    },
    {
      "channel": 0,
      "note": 54,
      "start": 18.2012,
      "duration": 0.178,
      "velocity": 127,
      "chip": "ym2612"
    },
    {
      "channel": 3,
      "note": 90,
      "start": 18.2018,
      "duration": 0.179,
      "velocity": 89,
      "chip": "ym2612"
    },
    {
      "channel": 4,
      "note": 86,
      "start": 18.2023,
      "duration": 0.179,
      "velocity": 89,
      "chip": "ym2612"
    },
    {
      "channel": 0,
      "note": 57,
      "start": 18.3795,
      "duration": 0.1735,
      "velocity": 127,
      "chip": "ym2612"
    },
    {
      "channel": 1,
      "note": 86,
      "start": 18.38,
      "duration": 0.3412,
      "velocity": 109,
      "chip": "ym2612"
    },
    {
      "channel": 2,
      "note": 91,
      "start": 18.3805,
      "duration": 0.3412,
      "velocity": 109,
      "chip": "ym2612"
    },
    {
      "channel": 3,
      "note": 93,
      "start": 18.381,
      "duration": 0.0838,
      "velocity": 89,
      "chip": "ym2612"
    },
    {
      "channel": 4,
      "note": 88,
      "start": 18.3815,
      "duration": 0.0838,
      "velocity": 89,
      "chip": "ym2612"
    },
    {
      "channel": 3,
      "note": 95,
      "start": 18.465,
      "duration": 0.2572,
      "velocity": 89,
      "chip": "ym2612"
    },
    {
      "channel": 4,
      "note": 90,
      "start": 18.4655,
      "duration": 0.2572,
      "velocity": 89,
      "chip": "ym2612"
    },
    {
      "channel": 0,
      "note": 59,
      "start": 18.5532,
      "duration": 0.1675,
      "velocity": 114,
      "chip": "ym2612"
    },
    {
      "channel": 0,
      "note": 59,
      "start": 18.7208,
      "duration": 0.0865,
      "velocity": 127,
      "chip": "ym2612"
    },
    {
      "channel": 1,
      "note": 86,
      "start": 18.7213,
      "duration": 0.1772,
      "velocity": 109,
      "chip": "ym2612"
    },
    {
      "channel": 2,
      "note": 91,
      "start": 18.7218,
      "duration": 0.1772,
      "velocity": 109,
      "chip": "ym2612"
    },
    {
      "channel": 3,
      "note": 93,
      "start": 18.7223,
      "duration": 0.3565,
      "velocity": 89,
      "chip": "ym2612"
    },
    {
      "channel": 4,
      "note": 88,
      "start": 18.7228,
      "duration": 0.3565,
      "velocity": 89,
      "chip": "ym2612"
    },
    {
      "channel": 0,
      "note": 59,
      "start": 18.8074,
      "duration": 0.0906,
      "velocity": 127,
      "chip": "ym2612"
    },
    {
      "channel": 0,
      "note": 57,
      "start": 18.8982,
      "duration": 0.18,
      "velocity": 127,
      "chip": "ym2612"
    },
    {
      "channel": 1,
      "note": 88,
      "start": 18.8986,
      "duration": 0.3634,
      "velocity": 109,
      "chip": "ym2612"
    },
    {
      "channel": 2,
      "note": 91,
      "start": 18.8992,
      "duration": 0.3634,
      "velocity": 109,
      "chip": "ym2612"
    },
    {
      "channel": 0,
      "note": 54,
      "start": 19.0784,
      "duration": 0.1831,
      "velocity": 127,
      "chip": "ym2612"
    },
    {
      "channel": 3,
      "note": 90,
      "start": 19.079,
      "duration": 0.184,
      "velocity": 89,
      "chip": "ym2612"
    },
    {
      "channel": 4,
      "note": 86,
      "start": 19.0795,
      "duration": 0.184,
      "velocity": 89,
      "chip": "ym2612"
    },
    {
      "channel": 0,
      "note": 52,
      "start": 19.2617,
      "duration": 0.1959,
      "velocity": 114,
      "chip": "ym2612"
    },
    {
      "channel": 1,
      "note": 86,
      "start": 19.2622,
      "duration": 0.1959,
      "velocity": 109,
      "chip": "ym2612"
    },
    {
      "channel": 2,
      "note": 91,
      "start": 19.2627,
      "duration": 0.1959,
      "velocity": 109,
      "chip": "ym2612"
    },
    {
      "channel": 3,
      "note": 88,
      "start": 19.2632,
      "duration": 0.0931,
      "velocity": 89,
      "chip": "ym2612"
    },
    {
      "channel": 4,
      "note": 83,
      "start": 19.2637,
      "duration": 0.0931,
      "velocity": 89,
      "chip": "ym2612"
    },
    {
      "channel": 3,
      "note": 90,
      "start": 19.3565,
      "duration": 0.1026,
      "velocity": 89,
      "chip": "ym2612"
    },
    {
      "channel": 4,
      "note": 86,
      "start": 19.3571,
      "duration": 0.1026,
      "velocity": 89,
      "chip": "ym2612"
    },
    {
      "channel": 0,
      "note": 52,
      "start": 19.4578,
      "duration": 0.0888,
      "velocity": 127,
      "chip": "ym2612"
    },
    {
      "channel": 1,
      "note": 85,
      "start": 19.4583,
      "duration": 0.3502,
      "velocity": 109,
      "chip": "ym2612"
    },
    {
      "channel": 2,
      "note": 91,
      "start": 19.4588,
      "duration": 0.3502,
      "velocity": 109,
      "chip": "ym2612"
    },
    {
      "channel": 3,
      "note": 93,
      "start": 19.4593,
      "duration": 0.177,
      "velocity": 89,
      "chip": "ym2612"
    },
    {
      "channel": 4,
      "note": 88,
      "start": 19.4598,
      "duration": 0.177,
      "velocity": 89,
      "chip": "ym2612"
    },
    {
      "channel": 0,
      "note": 52,
      "start": 19.5468,
      "duration": 0.089,
      "velocity": 127,
      "chip": "ym2612"
    },
    {
      "channel": 0,
      "note": 54,
      "start": 19.6359,
      "duration": 0.1722,
      "velocity": 127,
      "chip": "ym2612"
    },
    {
      "channel": 3,
      "note": 95,
      "start": 19.6365,
      "duration": 0.0845,
      "velocity": 89,
      "chip": "ym2612"
    },
    {
      "channel": 4,
      "note": 91,
      "start": 19.637,
      "duration": 0.0844,
      "velocity": 89,
      "chip": "ym2612"
    },
    {
      "channel": 3,
      "note": 98,
      "start": 19.7211,
      "duration": 0.0885,
      "velocity": 89,
      "chip": "ym2612"
    },
    {
      "channel": 4,
      "note": 93,
      "start": 19.7217,
      "duration": 0.0884,
      "velocity": 89,
      "chip": "ym2612"
    },
    {
      "channel": 0,
      "note": 57,
      "start": 19.8083,
      "duration": 0.1737,
      "velocity": 127,
      "chip": "ym2612"
    },
    {
      "channel": 1,
      "note": 86,
      "start": 19.8088,
      "duration": 0.1737,
      "velocity": 109,
      "chip": "ym2612"
    },
    {
      "channel": 2,
      "note": 91,
      "start": 19.8093,
      "duration": 0.1737,
      "velocity": 109,
      "chip": "ym2612"
    },
    {
      "channel": 3,
      "note": 100,
      "start": 19.8098,
      "duration": 0.1737,
      "velocity": 89,
      "chip": "ym2612"
    },
    {
      "channel": 4,
      "note": 97,
      "start": 19.8103,
      "duration": 0.1737,
      "velocity": 89,
      "chip": "ym2612"
    },
    {
      "channel": 0,
      "note": 59,
      "start": 19.982,
      "duration": 0.1683,
      "velocity": 114,
      "chip": "ym2612"
    },
    {
      "channel": 1,
      "note": 88,
      "start": 19.9825,
      "duration": 0.1683,
      "velocity": 109,
      "chip": "ym2612"
    },
    {
      "channel": 2,
      "note": 81,
      "start": 19.9831,
      "duration": 0.1683,
      "velocity": 109,
      "chip": "ym2612"
    },
    {
      "channel": 3,
      "note": 100,
      "start": 19.9836,
      "duration": 0.1683,
      "velocity": 89,
      "chip": "ym2612"
    },
    {
      "channel": 4,
      "note": 97,
      "start": 19.9841,
      "duration": 0.1684,
      "velocity": 89,
      "chip": "ym2612"
    },
    {
      "channel": 0,
      "note": 59,
      "start": 20.1506,
      "duration": 0.0866,
      "velocity": 127,
      "chip": "ym2612"
    },
    {
      "channel": 1,
      "note": 85,
      "start": 20.1511,
      "duration": 0.3477,
      "velocity": 109,
      "chip": "ym2612"
    },
    {
      "channel": 2,
      "note": 81,
      "start": 20.1516,
      "duration": 0.3477,
      "velocity": 109,
      "chip": "ym2612"
    },
    {
      "channel": 3,
      "note": 97,
      "start": 20.1521,
      "duration": 0.1695,
      "velocity": 89,
      "chip": "ym2612"
    },
    {
      "channel": 4,
      "note": 93,
      "start": 20.1526,
      "duration": 0.1695,
      "velocity": 89,
      "chip": "ym2612"
    },
    {
      "channel": 0,
      "note": 59,
      "start": 20.2373,
      "duration": 0.0837,
      "velocity": 127,
      "chip": "ym2612"
    },
    {
      "channel": 0,
      "note": 57,
      "start": 20.3212,
      "duration": 0.1771,
      "velocity": 127,
      "chip": "ym2612"
    },
    {
      "channel": 3,
      "note": 95,
      "start": 20.3218,
      "duration": 0.178,
      "velocity": 89,
      "chip": "ym2612"
    },
    {
      "channel": 4,
      "note": 90,
      "start": 20.3223,
      "duration": 0.178,
      "velocity": 89,
      "chip": "ym2612"
    },
    {
      "channel": 0,
      "note": 54,
      "start": 20.4985,
      "duration": 0.1705,
      "velocity": 127,
      "chip": "ym2612"
    },
    {
      "channel": 1,
      "note": 85,
      "start": 20.499,
      "duration": 0.718,
      "velocity": 109,
      "chip": "ym2612"
    },
    {
      "channel": 2,
      "note": 81,
      "start": 20.4995,
      "duration": 0.7179,
      "velocity": 109,
      "chip": "ym2612"
    },
    {
      "channel": 3,
      "note": 97,
      "start": 20.5,
      "duration": 0.3601,
      "velocity": 89,
      "chip": "ym2612"
    },
    {
      "channel": 4,
      "note": 93,
      "start": 20.5005,
      "duration": 0.3601,
      "velocity": 89,
      "chip": "ym2612"
    },
    {
      "channel": 0,
      "note": 52,
      "start": 20.6692,
      "duration": 0.1903,
      "velocity": 114,
      "chip": "ym2612"
    },
    {
      "channel": 0,
      "note": 52,
      "start": 20.8597,
      "duration": 0.094,
      "velocity": 127,
      "chip": "ym2612"
    },
    {
      "channel": 3,
      "note": 93,
      "start": 20.8603,
      "duration": 0.3577,
      "velocity": 89,
      "chip": "ym2612"
    },
    {
      "channel": 4,
      "note": 90,
      "start": 20.8608,
      "duration": 0.3577,
      "velocity": 89,
      "chip": "ym2612"
    },
    {
      "channel": 0,
      "note": 52,
      "start": 20.9539,
      "duration": 0.0871,
      "velocity": 127,
      "chip": "ym2612"
    },
    {
      "channel": 0,
      "note": 54,
      "start": 21.041,
      "duration": 0.1754,
      "velocity": 127,
      "chip": "ym2612"
    },
    {
      "channel": 0,
      "note": 57,
      "start": 21.2166,
      "duration": 0.171,
      "velocity": 127,
      "chip": "ym2612"
    },
    {
      "channel": 1,
      "note": 88,
      "start": 21.2171,
      "duration": 0.3432,
      "velocity": 109,
      "chip": "ym2612"
    },
    {
      "channel": 2,
      "note": 81,
      "start": 21.2177,
      "duration": 0.3432,
      "velocity": 109,
      "chip": "ym2612"
    },
    {
      "channel": 3,
      "note": 90,
      "start": 21.2182,
      "duration": 0.3432,
      "velocity": 89,
      "chip": "ym2612"
    },
    {
      "channel": 4,
      "note": 86,
      "start": 21.2187,
      "duration": 0.3432,
      "velocity": 89,
      "chip": "ym2612"
    },
    {
      "channel": 0,
      "note": 59,
      "start": 21.3878,
      "duration": 0.1721,
      "velocity": 114,
      "chip": "ym2612"
    },
    {
      "channel": 0,
      "note": 59,
      "start": 21.56,
      "duration": 0.0865,
      "velocity": 127,
      "chip": "ym2612"
    },
    {
      "channel": 1,
      "note": 88,
      "start": 21.5605,
      "duration": 0.1703,
      "velocity": 109,
      "chip": "ym2612"
    },
    {
      "channel": 2,
      "note": 81,
      "start": 21.561,
      "duration": 0.1703,
      "velocity": 109,
      "chip": "ym2612"
    },
    {
      "channel": 3,
      "note": 88,
      "start": 21.5615,
      "duration": 0.3529,
      "velocity": 89,
      "chip": "ym2612"
    },
    {
      "channel": 4,
      "note": 85,
      "start": 21.562,
      "duration": 0.3529,
      "velocity": 89,
      "chip": "ym2612"
    },
    {
      "channel": 0,
      "note": 59,
      "start": 21.6466,
      "duration": 0.0837,
      "velocity": 127,
      "chip": "ym2612"
    },
    {
      "channel": 0,
      "note": 57,
      "start": 21.7304,
      "duration": 0.1834,
      "velocity": 127,
      "chip": "ym2612"
    },
    {
      "channel": 1,
      "note": 90,
      "start": 21.7309,
      "duration": 0.3605,
      "velocity": 109,
      "chip": "ym2612"
    },
    {
      "channel": 2,
      "note": 81,
      "start": 21.7314,
      "duration": 0.3605,
      "velocity": 109,
      "chip": "ym2612"
    },
    {
      "channel": 0,
      "note": 54,
      "start": 21.914,
      "duration": 0.1769,
      "velocity": 127,
      "chip": "ym2612"
    },
    {
      "channel": 3,
      "note": 90,
      "start": 21.9146,
      "duration": 0.1779,
      "velocity": 89,
      "chip": "ym2612"
    },
    {
      "channel": 4,
      "note": 86,
      "start": 21.9151,
      "duration": 0.1779,
      "velocity": 89,
      "chip": "ym2612"
    },
    {
      "channel": 0,
      "note": 52,
      "start": 22.0911,
      "duration": 0.1856,
      "velocity": 114,
      "chip": "ym2612"
    },
    {
      "channel": 1,
      "note": 95,
      "start": 22.0916,
      "duration": 0.1856,
      "velocity": 109,
      "chip": "ym2612"
    },
    {
      "channel": 2,
      "note": 81,
      "start": 22.0921,
      "duration": 0.1856,
      "velocity": 109,
      "chip": "ym2612"
    },
    {
      "channel": 3,
      "note": 95,
      "start": 22.0926,
      "duration": 0.1856,
      "velocity": 89,
      "chip": "ym2612"
    },
    {
      "channel": 4,
      "note": 90,
      "start": 22.0931,
      "duration": 0.1856,
      "velocity": 89,
      "chip": "ym2612"
    },
    {
      "channel": 0,
      "note": 52,
      "start": 22.2769,
      "duration": 0.0888,
      "velocity": 127,
      "chip": "ym2612"
    },
    {
      "channel": 1,
      "note": 93,
      "start": 22.2774,
      "duration": 0.3534,
      "velocity": 109,
      "chip": "ym2612"
    },
    {
      "channel": 2,
      "note": 81,
      "start": 22.2779,
      "duration": 0.3534,
      "velocity": 109,
      "chip": "ym2612"
    },
    {
      "channel": 3,
      "note": 95,
      "start": 22.2784,
      "duration": 0.0879,
      "velocity": 89,
      "chip": "ym2612"
    },
    {
      "channel": 4,
      "note": 88,
      "start": 22.2789,
      "duration": 0.0879,
      "velocity": 89,
      "chip": "ym2612"
    },
    {
      "channel": 0,
      "note": 52,
      "start": 22.3659,
      "duration": 0.0874,
      "velocity": 127,
      "chip": "ym2612"
    },
    {
      "channel": 3,
      "note": 95,
      "start": 22.3665,
      "duration": 0.0873,
      "velocity": 89,
      "chip": "ym2612"
    },
    {
      "channel": 4,
      "note": 90,
      "start": 22.367,
      "duration": 0.0873,
      "velocity": 89,
      "chip": "ym2612"
    },
    {
      "channel": 0,
      "note": 54,
      "start": 22.4534,
      "duration": 0.0869,
      "velocity": 127,
      "chip": "ym2612"
    },
    {
      "channel": 3,
      "note": 93,
      "start": 22.454,
      "duration": 0.1779,
      "velocity": 89,
      "chip": "ym2612"
    },
    {
      "channel": 4,
      "note": 88,
      "start": 22.4545,
      "duration": 0.1779,
      "velocity": 89,
      "chip": "ym2612"
    },
    {
      "channel": 0,
      "note": 57,
      "start": 22.5404,
      "duration": 0.0899,
      "velocity": 127,
      "chip": "ym2612"
    },
    {
      "channel": 0,
      "note": 59,
      "start": 22.6305,
      "duration": 0.0893,
      "velocity": 127,
      "chip": "ym2612"
    },
    {
      "channel": 1,
      "note": 90,
      "start": 22.631,
      "duration": 0.1845,
      "velocity": 89,
      "chip": "ym2612"
    },
    {
      "channel": 2,
      "note": 81,
      "start": 22.6315,
      "duration": 0.186,
      "velocity": 127,
      "chip": "ym2612"
    },
    {
      "channel": 3,
      "note": 93,
      "start": 22.632,
      "duration": 0.0884,
      "velocity": 89,
      "chip": "ym2612"
    },
    {
      "channel": 4,
      "note": 86,
      "start": 22.6325,
      "duration": 0.0884,
      "velocity": 89,
      "chip": "ym2612"
    },
    {
      "channel": 0,
      "note": 62,
      "start": 22.72,
      "duration": 0.0936,
      "velocity": 117,
      "chip": "ym2612"
    },
    {
      "channel": 3,
      "note": 93,
      "start": 22.7206,
      "duration": 0.0974,
      "velocity": 89,
      "chip": "ym2612"
    },
    {
      "channel": 4,
      "note": 88,
      "start": 22.7211,
      "duration": 0.0988,
      "velocity": 109,
      "chip": "ym2612"
    },
    {
      "channel": 0,
      "note": 55,
      "start": 22.8137,
      "duration": 0.3427,
      "velocity": 117,
      "chip": "ym2612"
    },
    {
      "channel": 1,
      "note": 83,
      "start": 22.8157,
      "duration": 0.8798,
      "velocity": 89,
      "chip": "ym2612"
    },
    {
      "channel": 2,
      "note": 86,
      "start": 22.8176,
      "duration": 1.0573,
      "velocity": 127,
      "chip": "ym2612"
    },
    {
      "channel": 3,
      "note": 86,
      "start": 22.8182,
      "duration": 0.8779,
      "velocity": 89,
      "chip": "ym2612"
    },
    {
      "channel": 4,
      "note": 91,
      "start": 22.8201,
      "duration": 0.3369,
      "velocity": 109,
      "chip": "ym2612"
    },
    {
      "channel": 0,
      "note": 67,
      "start": 23.1566,
      "duration": 0.2668,
      "velocity": 117,
      "chip": "ym2612"
    },
    {
      "channel": 4,
      "note": 90,
      "start": 23.1572,
      "duration": 0.1809,
      "velocity": 109,
      "chip": "ym2612"
    },
    {
      "channel": 4,
      "note": 88,
      "start": 23.3383,
      "duration": 0.175,
      "velocity": 109,
      "chip": "ym2612"
    },
    {
      "channel": 0,
      "note": 55,
      "start": 23.4236,
      "duration": 0.0891,
      "velocity": 117,
      "chip": "ym2612"
    },
    {
      "channel": 0,
      "note": 67,
      "start": 23.5128,
      "duration": 0.1822,
      "velocity": 117,
      "chip": "ym2612"
    },
    {
      "channel": 4,
      "note": 86,
      "start": 23.5135,
      "duration": 0.1831,
      "velocity": 109,
      "chip": "ym2612"
    },
    {
      "channel": 0,
      "note": 55,
      "start": 23.6952,
      "duration": 0.1787,
      "velocity": 117,
      "chip": "ym2612"
    },
    {
      "channel": 1,
      "note": 85,
      "start": 23.6957,
      "duration": 0.1787,
      "velocity": 89,
      "chip": "ym2612"
    },
    {
      "channel": 3,
      "note": 90,
      "start": 23.6963,
      "duration": 0.1791,
      "velocity": 89,
      "chip": "ym2612"
    },
    {
      "channel": 4,
      "note": 85,
      "start": 23.6968,
      "duration": 0.1791,
      "velocity": 109,
      "chip": "ym2612"
    },
    {
      "channel": 0,
      "note": 56,
      "start": 23.8741,
      "duration": 0.1837,
      "velocity": 117,
      "chip": "ym2612"
    },
    {
      "channel": 1,
      "note": 86,
      "start": 23.8745,
      "duration": 0.1838,
      "velocity": 89,
      "chip": "ym2612"
    },
    {
      "channel": 2,
      "note": 88,
      "start": 23.875,
      "duration": 0.3602,
      "velocity": 127,
      "chip": "ym2612"
    },
    {
      "channel": 3,
      "note": 88,
      "start": 23.8755,
      "duration": 0.1833,
      "velocity": 89,
      "chip": "ym2612"
    },
    {
      "channel": 4,
      "note": 83,
      "start": 23.8761,
      "duration": 0.1833,
      "velocity": 109,
      "chip": "ym2612"
    },
    {
      "channel": 0,
      "note": 57,
      "start": 24.058,
      "duration": 0.3442,
      "velocity": 117,
      "chip": "ym2612"
    },
    {
      "channel": 1,
      "note": 83,
      "start": 24.0585,
      "duration": 0.0869,
      "velocity": 89,
      "chip": "ym2612"
    },
    {
      "channel": 3,
      "note": 86,
      "start": 24.0591,
      "duration": 0.3442,
      "velocity": 89,
      "chip": "ym2612"
    },
    {
      "channel": 4,
      "note": 81,
      "start": 24.0596,
      "duration": 0.3442,
      "velocity": 109,
      "chip": "ym2612"
    },
    {
      "channel": 1,
      "note": 85,
      "start": 24.1456,
      "duration": 0.2571,
      "velocity": 89,
      "chip": "ym2612"
    },
    {
      "channel": 2,
      "note": 86,
      "start": 24.2354,
      "duration": 0.3457,
      "velocity": 127,
      "chip": "ym2612"
    },
    {
      "channel": 0,
      "note": 57,
      "start": 24.4024,
      "duration": 0.1782,
      "velocity": 117,
      "chip": "ym2612"
    },
    {
      "channel": 1,
      "note": 81,
      "start": 24.4029,
      "duration": 0.3549,
      "velocity": 89,
      "chip": "ym2612"
    },
    {
      "channel": 3,
      "note": 85,
      "start": 24.4034,
      "duration": 0.3549,
      "velocity": 89,
      "chip": "ym2612"
    },
    {
      "channel": 4,
      "note": 86,
      "start": 24.4039,
      "duration": 0.0866,
      "velocity": 109,
      "chip": "ym2612"
    },
    {
      "channel": 4,
      "note": 85,
      "start": 24.4907,
      "duration": 0.091,
      "velocity": 109,
      "chip": "ym2612"
    },
    {
      "channel": 0,
      "note": 69,
      "start": 24.5808,
      "duration": 0.2601,
      "velocity": 117,
      "chip": "ym2612"
    },
    {
      "channel": 2,
      "note": 85,
      "start": 24.5813,
      "duration": 0.3457,
      "velocity": 127,
      "chip": "ym2612"
    },
    {
      "channel": 4,
      "note": 81,
      "start": 24.5819,
      "duration": 0.3456,
      "velocity": 109,
      "chip": "ym2612"
    },
    {
      "channel": 1,
      "note": 78,
      "start": 24.758,
      "duration": 0.3562,
      "velocity": 89,
      "chip": "ym2612"
    },
    {
      "channel": 3,
      "note": 83,
      "start": 24.7585,
      "duration": 0.3562,
      "velocity": 89,
      "chip": "ym2612"
    },
    {
      "channel": 0,
      "note": 57,
      "start": 24.8411,
      "duration": 0.0853,
      "velocity": 117,
      "chip": "ym2612"
    },
    {
      "channel": 0,
      "note": 69,
      "start": 24.9266,
      "duration": 0.187,
      "velocity": 117,
      "chip": "ym2612"
    },
    {
      "channel": 2,
      "note": 83,
      "start": 24.9271,
      "duration": 0.3622,
      "velocity": 127,
      "chip": "ym2612"
    },
    {
      "channel": 4,
      "note": 88,
      "start": 24.9277,
      "duration": 0.0861,
      "velocity": 109,
      "chip": "ym2612"
    },
    {
      "channel": 4,
      "note": 86,
      "start": 25.014,
      "duration": 0.1012,
      "velocity": 109,
      "chip": "ym2612"
    },
    {
      "channel": 0,
      "note": 57,
      "start": 25.1138,
      "duration": 0.1744,
      "velocity": 117,
      "chip": "ym2612"
    },
    {
      "channel": 1,
      "note": 76,
      "start": 25.1143,
      "duration": 0.1745,
      "velocity": 89,
      "chip": "ym2612"
    },
    {
      "channel": 3,
      "note": 81,
      "start": 25.1149,
      "duration": 0.1749,
      "velocity": 89,
      "chip": "ym2612"
    },
    {
      "channel": 4,
      "note": 81,
      "start": 25.1154,
      "duration": 0.3527,
      "velocity": 109,
      "chip": "ym2612"
    },
    {
      "channel": 0,
      "note": 58,
      "start": 25.2885,
      "duration": 0.179,
      "velocity": 117,
      "chip": "ym2612"
    },
    {
      "channel": 1,
      "note": 78,
      "start": 25.289,
      "duration": 0.3581,
      "velocity": 89,
      "chip": "ym2612"
    },
    {
      "channel": 2,
      "note": 81,
      "start": 25.2895,
      "duration": 0.2673,
      "velocity": 127,
      "chip": "ym2612"
    },
    {
      "channel": 3,
      "note": 83,
      "start": 25.29,
      "duration": 0.3581,
      "velocity": 89,
      "chip": "ym2612"
    },
    {
      "channel": 0,
      "note": 59,
      "start": 25.4676,
      "duration": 0.5325,
      "velocity": 117,
      "chip": "ym2612"
    },
    {
      "channel": 4,
      "note": 90,
      "start": 25.4683,
      "duration": 0.0891,
      "velocity": 109,
      "chip": "ym2612"
    },
    {
      "channel": 2,
      "note": 82,
      "start": 25.557,
      "duration": 0.0906,
      "velocity": 127,
      "chip": "ym2612"
    },
    {
      "channel": 4,
      "note": 88,
      "start": 25.5576,
      "duration": 0.091,
      "velocity": 109,
      "chip": "ym2612"
    },
    {
      "channel": 1,
      "note": 83,
      "start": 25.6472,
      "duration": 2.8598,
      "velocity": 89,
      "chip": "ym2612"
    },
    {
      "channel": 2,
      "note": 83,
      "start": 25.6477,
      "duration": 2.8599,
      "velocity": 127,
      "chip": "ym2612"
    },
    {
      "channel": 3,
      "note": 86,
      "start": 25.6482,
      "duration": 2.8599,
      "velocity": 89,
      "chip": "ym2612"
    },
    {
      "channel": 4,
      "note": 90,
      "start": 25.6487,
      "duration": 2.86,
      "velocity": 109,
      "chip": "ym2612"
    },
    {
      "channel": 0,
      "note": 71,
      "start": 26.0003,
      "duration": 0.2689,
      "velocity": 117,
      "chip": "ym2612"
    },
    {
      "channel": 0,
      "note": 59,
      "start": 26.2693,
      "duration": 0.0884,
      "velocity": 117,
      "chip": "ym2612"
    },
    {
      "channel": 0,
      "note": 71,
      "start": 26.3578,
      "duration": 0.1882,
      "velocity": 117,
      "chip": "ym2612"
    },
    {
      "channel": 0,
      "note": 59,
      "start": 26.5462,
      "duration": 0.1785,
      "velocity": 117,
      "chip": "ym2612"
    },
    {
      "channel": 0,
      "note": 69,
      "start": 26.7249,
      "duration": 0.0876,
      "velocity": 117,
      "chip": "ym2612"
    },
    {
      "channel": 0,
      "note": 70,
      "start": 26.8126,
      "duration": 0.0918,
      "velocity": 117,
      "chip": "ym2612"
    },
    {
      "channel": 0,
      "note": 71,
      "start": 26.9045,
      "duration": 0.3542,
      "velocity": 117,
      "chip": "ym2612"
    },
    {
      "channel": 0,
      "note": 59,
      "start": 27.2589,
      "duration": 0.1735,
      "velocity": 117,
      "chip": "ym2612"
    },
    {
      "channel": 0,
      "note": 71,
      "start": 27.4325,
      "duration": 0.2693,
      "velocity": 117,
      "chip": "ym2612"
    },
    {
      "channel": 0,
      "note": 59,
      "start": 27.702,
      "duration": 0.0853,
      "velocity": 117,
      "chip": "ym2612"
    },
    {
      "channel": 0,
      "note": 71,
      "start": 27.7875,
      "duration": 0.1883,
      "velocity": 117,
      "chip": "ym2612"
    },
    {
      "channel": 0,
      "note": 59,
      "start": 27.976,
      "duration": 0.1722,
      "velocity": 117,
      "chip": "ym2612"
    },
    {
      "channel": 0,
      "note": 69,
      "start": 28.1484,
      "duration": 0.1774,
      "velocity": 117,
      "chip": "ym2612"
    },
    {
      "channel": 0,
      "note": 71,
      "start": 28.3259,
      "duration": 0.1806,
      "velocity": 117,
      "chip": "ym2612"
    },
    {
      "channel": 0,
      "note": 55,
      "start": 28.5066,
      "duration": 0.3445,
      "velocity": 117,
      "chip": "ym2612"
    },
    {
      "channel": 1,
      "note": 83,
      "start": 28.5072,
      "duration": 0.8859,
      "velocity": 89,
      "chip": "ym2612"
    },
    {
      "channel": 2,
      "note": 86,
      "start": 28.5078,
      "duration": 1.0627,
      "velocity": 127,
      "chip": "ym2612"
    },
    {
      "channel": 3,
      "note": 86,
      "start": 28.5083,
      "duration": 0.8854,
      "velocity": 89,
      "chip": "ym2612"
    },
    {
      "channel": 4,
      "note": 91,
      "start": 28.5089,
      "duration": 0.343,
      "velocity": 109,
      "chip": "ym2612"
    },
    {
      "channel": 0,
      "note": 67,
      "start": 28.8513,
      "duration": 0.2667,
      "velocity": 117,
      "chip": "ym2612"
    },
    {
      "channel": 4,
      "note": 90,
      "start": 28.852,
      "duration": 0.1809,
      "velocity": 109,
      "chip": "ym2612"
    },
    {
      "channel": 4,
      "note": 88,
      "start": 29.033,
      "duration": 0.1714,
      "velocity": 109,
      "chip": "ym2612"
    },
    {
      "channel": 0,
      "note": 55,
      "start": 29.1183,
      "duration": 0.0855,
      "velocity": 117,
      "chip": "ym2612"
    },
    {
      "channel": 0,
      "note": 67,
      "start": 29.2039,
      "duration": 0.1886,
      "velocity": 117,
      "chip": "ym2612"
    },
    {
      "channel": 4,
      "note": 86,
      "start": 29.2046,
      "duration": 0.1895,
      "velocity": 109,
      "chip": "ym2612"
    },
    {
      "channel": 0,
      "note": 55,
      "start": 29.3928,
      "duration": 0.1767,
      "velocity": 117,
      "chip": "ym2612"
    },
    {
      "channel": 1,
      "note": 85,
      "start": 29.3933,
      "duration": 0.1767,
      "velocity": 89,
      "chip": "ym2612"
    },
    {
      "channel": 3,
      "note": 90,
      "start": 29.3939,
      "duration": 0.1772,
      "velocity": 89,
      "chip": "ym2612"
    },
    {
      "channel": 4,
      "note": 85,
      "start": 29.3944,
      "duration": 0.1772,
      "velocity": 109,
      "chip": "ym2612"
    },
    {
      "channel": 0,
      "note": 56,
      "start": 29.5697,
      "duration": 0.1815,
      "velocity": 117,
      "chip": "ym2612"
    },
    {
      "channel": 1,
      "note": 86,
      "start": 29.5701,
      "duration": 0.1816,
      "velocity": 89,
      "chip": "ym2612"
    },
    {
      "channel": 2,
      "note": 88,
      "start": 29.5706,
      "duration": 0.3574,
      "velocity": 127,
      "chip": "ym2612"
    },
    {
      "channel": 3,
      "note": 88,
      "start": 29.5711,
      "duration": 0.1812,
      "velocity": 89,
      "chip": "ym2612"
    },
    {
      "channel": 4,
      "note": 83,
      "start": 29.5717,
      "duration": 0.1812,
      "velocity": 109,
      "chip": "ym2612"
    },
    {
      "channel": 0,
      "note": 57,
      "start": 29.7514,
      "duration": 0.3468,
      "velocity": 117,
      "chip": "ym2612"
    },
    {
      "channel": 1,
      "note": 83,
      "start": 29.7519,
      "duration": 0.0882,
      "velocity": 89,
      "chip": "ym2612"
    },
    {
      "channel": 3,
      "note": 86,
      "start": 29.7525,
      "duration": 0.3468,
      "velocity": 89,
      "chip": "ym2612"
    },
    {
      "channel": 4,
      "note": 81,
      "start": 29.753,
      "duration": 0.3468,
      "velocity": 109,
      "chip": "ym2612"
    },
    {
      "channel": 1,
      "note": 85,
      "start": 29.8403,
      "duration": 0.2584,
      "velocity": 89,
      "chip": "ym2612"
    },
    {
      "channel": 2,
      "note": 86,
      "start": 29.9283,
      "duration": 0.3405,
      "velocity": 127,
      "chip": "ym2612"
    },
    {
      "channel": 0,
      "note": 57,
      "start": 30.0984,
      "duration": 0.1698,
      "velocity": 117,
      "chip": "ym2612"
    },
    {
      "channel": 1,
      "note": 81,
      "start": 30.0989,
      "duration": 0.3475,
      "velocity": 89,
      "chip": "ym2612"
    },
    {
      "channel": 3,
      "note": 85,
      "start": 30.0995,
      "duration": 0.3476,
      "velocity": 89,
      "chip": "ym2612"
    },
    {
      "channel": 4,
      "note": 86,
      "start": 30.1,
      "duration": 0.0802,
      "velocity": 109,
      "chip": "ym2612"
    },
    {
      "channel": 4,
      "note": 85,
      "start": 30.1804,
      "duration": 0.0889,
      "velocity": 109,
      "chip": "ym2612"
    },
    {
      "channel": 0,
      "note": 69,
      "start": 30.2684,
      "duration": 0.2612,
      "velocity": 117,
      "chip": "ym2612"
    },
    {
      "channel": 2,
      "note": 85,
      "start": 30.2689,
      "duration": 0.3549,
      "velocity": 127,
      "chip": "ym2612"
    },
    {
      "channel": 4,
      "note": 81,
      "start": 30.2695,
      "duration": 0.3549,
      "velocity": 109,
      "chip": "ym2612"
    },
    {
      "channel": 1,
      "note": 78,
      "start": 30.4466,
      "duration": 0.3621,
      "velocity": 89,
      "chip": "ym2612"
    },
    {
      "channel": 3,
      "note": 83,
      "start": 30.4472,
      "duration": 0.3621,
      "velocity": 89,
      "chip": "ym2612"
    },
    {
      "channel": 0,
      "note": 57,
      "start": 30.5297,
      "duration": 0.0935,
      "velocity": 117,
      "chip": "ym2612"
    },
    {
      "channel": 0,
      "note": 69,
      "start": 30.6235,
      "duration": 0.1847,
      "velocity": 117,
      "chip": "ym2612"
    },
    {
      "channel": 2,
      "note": 86,
      "start": 30.624,
      "duration": 0.3632,
      "velocity": 127,
      "chip": "ym2612"
    },
    {
      "channel": 4,
      "note": 88,
      "start": 30.6246,
      "duration": 0.0838,
      "velocity": 109,
      "chip": "ym2612"
    },
    {
      "channel": 4,
      "note": 86,
      "start": 30.7086,
      "duration": 0.1012,
      "velocity": 109,
      "chip": "ym2612"
    },
    {
      "channel": 0,
      "note": 57,
      "start": 30.8084,
      "duration": 0.1777,
      "velocity": 117,
      "chip": "ym2612"
    },
    {
      "channel": 1,
      "note": 76,
      "start": 30.8089,
      "duration": 0.1777,
      "velocity": 89,
      "chip": "ym2612"
    },
    {
      "channel": 3,
      "note": 81,
      "start": 30.8095,
      "duration": 0.1782,
      "velocity": 89,
      "chip": "ym2612"
    },
    {
      "channel": 4,
      "note": 81,
      "start": 30.81,
      "duration": 0.3561,
      "velocity": 109,
      "chip": "ym2612"
    },
    {
      "channel": 0,
      "note": 58,
      "start": 30.9863,
      "duration": 0.1791,
      "velocity": 117,
      "chip": "ym2612"
    },
    {
      "channel": 1,
      "note": 78,
      "start": 30.9868,
      "duration": 0.361,
      "velocity": 89,
      "chip": "ym2612"
    },
    {
      "channel": 2,
      "note": 88,
      "start": 30.9873,
      "duration": 0.2702,
      "velocity": 127,
      "chip": "ym2612"
    },
    {
      "channel": 3,
      "note": 83,
      "start": 30.9878,
      "duration": 0.361,
      "velocity": 89,
      "chip": "ym2612"
    },
    {
      "channel": 0,
      "note": 59,
      "start": 31.1656,
      "duration": 0.5312,
      "velocity": 117,
      "chip": "ym2612"
    },
    {
      "channel": 4,
      "note": 90,
      "start": 31.1663,
      "duration": 0.0918,
      "velocity": 109,
      "chip": "ym2612"
    },
    {
      "channel": 2,
      "note": 89,
      "start": 31.2577,
      "duration": 0.0906,
      "velocity": 127,
      "chip": "ym2612"
    },
    {
      "channel": 4,
      "note": 88,
      "start": 31.2583,
      "duration": 0.091,
      "velocity": 109,
      "chip": "ym2612"
    },
    {
      "channel": 1,
      "note": 83,
      "start": 31.3479,
      "duration": 2.8496,
      "velocity": 89,
      "chip": "ym2612"
    },
    {
      "channel": 2,
      "note": 90,
      "start": 31.3484,
      "duration": 2.1346,
      "velocity": 120,
      "chip": "ym2612"
    },
    {
      "channel": 3,
      "note": 86,
      "start": 31.3489,
      "duration": 2.8511,
      "velocity": 89,
      "chip": "ym2612"
    },
    {
      "channel": 4,
      "note": 90,
      "start": 31.3494,
      "duration": 2.8511,
      "velocity": 109,
      "chip": "ym2612"
    },
    {
      "channel": 0,
      "note": 71,
      "start": 31.6971,
      "duration": 0.2623,
      "velocity": 117,
      "chip": "ym2612"
    },
    {
      "channel": 0,
      "note": 59,
      "start": 31.9596,
      "duration": 0.0882,
      "velocity": 117,
      "chip": "ym2612"
    },
    {
      "channel": 0,
      "note": 71,
      "start": 32.0479,
      "duration": 0.1855,
      "velocity": 117,
      "chip": "ym2612"
    },
    {
      "channel": 0,
      "note": 59,
      "start": 32.2336,
      "duration": 0.1747,
      "velocity": 117,
      "chip": "ym2612"
    },
    {
      "channel": 0,
      "note": 69,
      "start": 32.4084,
      "duration": 0.0874,
      "velocity": 117,
      "chip": "ym2612"
    },
    {
      "channel": 0,
      "note": 70,
      "start": 32.496,
      "duration": 0.0938,
      "velocity": 117,
      "chip": "ym2612"
    },
    {
      "channel": 0,
      "note": 71,
      "start": 32.59,
      "duration": 0.3502,
      "velocity": 117,
      "chip": "ym2612"
    },
    {
      "channel": 0,
      "note": 59,
      "start": 32.9403,
      "duration": 0.186,
      "velocity": 117,
      "chip": "ym2612"
    },
    {
      "channel": 0,
      "note": 71,
      "start": 33.1265,
      "duration": 0.269,
      "velocity": 117,
      "chip": "ym2612"
    },
    {
      "channel": 0,
      "note": 59,
      "start": 33.3956,
      "duration": 0.0853,
      "velocity": 117,
      "chip": "ym2612"
    },
    {
      "channel": 0,
      "note": 71,
      "start": 33.4812,
      "duration": 0.1918,
      "velocity": 117,
      "chip": "ym2612"
    },
    {
      "channel": 2,
      "note": 83,
      "start": 33.4831,
      "duration": 0.09,
      "velocity": 120,
      "chip": "ym2612"
    },
    {
      "channel": 2,
      "note": 81,
      "start": 33.5733,
      "duration": 0.1002,
      "velocity": 120,
      "chip": "ym2612"
    },
    {
      "channel": 0,
      "note": 59,
      "start": 33.6732,
      "duration": 0.176,
      "velocity": 117,
      "chip": "ym2612"
    },
    {
      "channel": 2,
      "note": 78,
      "start": 33.6737,
      "duration": 0.0904,
      "velocity": 120,
      "chip": "ym2612"
    },
    {
      "channel": 2,
      "note": 76,
      "start": 33.7643,
      "duration": 0.0854,
      "velocity": 120,
      "chip": "ym2612"
    },
    {
      "channel": 0,
      "note": 69,
      "start": 33.8493,
      "duration": 0.1744,
      "velocity": 117,
      "chip": "ym2612"
    },
    {
      "channel": 2,
      "note": 74,
      "start": 33.8499,
      "duration": 0.0809,
      "velocity": 120,
      "chip": "ym2612"
    },
    {
      "channel": 2,
      "note": 76,
      "start": 33.931,
      "duration": 0.0932,
      "velocity": 120,
      "chip": "ym2612"
    },
    {
      "channel": 0,
      "note": 71,
      "start": 34.0239,
      "duration": 0.1731,
      "velocity": 117,
      "chip": "ym2612"
    },
    {
      "channel": 2,
      "note": 78,
      "start": 34.0244,
      "duration": 0.0887,
      "velocity": 120,
      "chip": "ym2612"
    },
    {
      "channel": 2,
      "note": 83,
      "start": 34.1132,
      "duration": 0.0862,
      "velocity": 127,
      "chip": "ym2612"
    },
    {
      "channel": 0,
      "note": 55,
      "start": 34.1971,
      "duration": 0.3468,
      "velocity": 117,
      "chip": "ym2612"
    },
    {
      "channel": 1,
      "note": 83,
      "start": 34.1977,
      "duration": 0.9005,
      "velocity": 89,
      "chip": "ym2612"
    },
    {
      "channel": 2,
      "note": 86,
      "start": 34.1996,
      "duration": 1.0782,
      "velocity": 127,
      "chip": "ym2612"
    },
    {
      "channel": 3,
      "note": 86,
      "start": 34.2001,
      "duration": 0.8986,
      "velocity": 89,
      "chip": "ym2612"
    },
    {
      "channel": 4,
      "note": 91,
      "start": 34.2007,
      "duration": 0.3439,
      "velocity": 109,
      "chip": "ym2612"
    },
    {
      "channel": 0,
      "note": 67,
      "start": 34.5441,
      "duration": 0.2737,
      "velocity": 117,
      "chip": "ym2612"
    },
    {
      "channel": 4,
      "note": 90,
      "start": 34.5448,
      "duration": 0.1809,
      "velocity": 109,
      "chip": "ym2612"
    },
    {
      "channel": 4,
      "note": 88,
      "start": 34.7259,
      "duration": 0.1822,
      "velocity": 109,
      "chip": "ym2612"
    },
    {
      "channel": 0,
      "note": 55,
      "start": 34.818,
      "duration": 0.0894,
      "velocity": 117,
      "chip": "ym2612"
    },
    {
      "channel": 0,
      "note": 67,
      "start": 34.9076,
      "duration": 0.1901,
      "velocity": 117,
      "chip": "ym2612"
    },
    {
      "channel": 4,
      "note": 86,
      "start": 34.9083,
      "duration": 0.191,
      "velocity": 109,
      "chip": "ym2612"
    },
    {
      "channel": 0,
      "note": 55,
      "start": 35.0979,
      "duration": 0.1789,
      "velocity": 117,
      "chip": "ym2612"
    },
    {
      "channel": 1,
      "note": 85,
      "start": 35.0984,
      "duration": 0.1789,
      "velocity": 89,
      "chip": "ym2612"
    },
    {
      "channel": 3,
      "note": 90,
      "start": 35.099,
      "duration": 0.1794,
      "velocity": 89,
      "chip": "ym2612"
    },
    {
      "channel": 4,
      "note": 85,
      "start": 35.0995,
      "duration": 0.1794,
      "velocity": 109,
      "chip": "ym2612"
    },
    {
      "channel": 0,
      "note": 56,
      "start": 35.2769,
      "duration": 0.1819,
      "velocity": 117,
      "chip": "ym2612"
    },
    {
      "channel": 1,
      "note": 86,
      "start": 35.2774,
      "duration": 0.1819,
      "velocity": 89,
      "chip": "ym2612"
    },
    {
      "channel": 2,
      "note": 88,
      "start": 35.278,
      "duration": 0.3535,
      "velocity": 127,
      "chip": "ym2612"
    },
    {
      "channel": 3,
      "note": 88,
      "start": 35.2785,
      "duration": 0.1815,
      "velocity": 89,
      "chip": "ym2612"
    },
    {
      "channel": 4,
      "note": 83,
      "start": 35.279,
      "duration": 0.1815,
      "velocity": 109,
      "chip": "ym2612"
    },
    {
      "channel": 0,
      "note": 57,
      "start": 35.459,
      "duration": 0.3384,
      "velocity": 117,
      "chip": "ym2612"
    },
    {
      "channel": 1,
      "note": 83,
      "start": 35.4595,
      "duration": 0.0882,
      "velocity": 89,
      "chip": "ym2612"
    },
    {
      "channel": 3,
      "note": 86,
      "start": 35.4601,
      "duration": 0.3384,
      "velocity": 89,
      "chip": "ym2612"
    },
    {
      "channel": 4,
      "note": 81,
      "start": 35.4606,
      "duration": 0.3384,
      "velocity": 109,
      "chip": "ym2612"
    },
    {
      "channel": 1,
      "note": 85,
      "start": 35.5479,
      "duration": 0.2501,
      "velocity": 89,
      "chip": "ym2612"
    },
    {
      "channel": 2,
      "note": 86,
      "start": 35.6317,
      "duration": 0.3448,
      "velocity": 127,
      "chip": "ym2612"
    },
    {
      "channel": 0,
      "note": 57,
      "start": 35.7977,
      "duration": 0.1782,
      "velocity": 117,
      "chip": "ym2612"
    },
    {
      "channel": 1,
      "note": 81,
      "start": 35.7982,
      "duration": 0.355,
      "velocity": 89,
      "chip": "ym2612"
    },
    {
      "channel": 3,
      "note": 85,
      "start": 35.7987,
      "duration": 0.355,
      "velocity": 89,
      "chip": "ym2612"
    },
    {
      "channel": 4,
      "note": 86,
      "start": 35.7993,
      "duration": 0.0866,
      "velocity": 109,
      "chip": "ym2612"
    },
    {
      "channel": 4,
      "note": 85,
      "start": 35.886,
      "duration": 0.091,
      "velocity": 109,
      "chip": "ym2612"
    },
    {
      "channel": 0,
      "note": 69,
      "start": 35.9761,
      "duration": 0.2664,
      "velocity": 117,
      "chip": "ym2612"
    },
    {
      "channel": 2,
      "note": 85,
      "start": 35.9766,
      "duration": 0.352,
      "velocity": 127,
      "chip": "ym2612"
    },
    {
      "channel": 4,
      "note": 81,
      "start": 35.9772,
      "duration": 0.3519,
      "velocity": 109,
      "chip": "ym2612"
    },
    {
      "channel": 1,
      "note": 78,
      "start": 36.1534,
      "duration": 0.3623,
      "velocity": 89,
      "chip": "ym2612"
    },
    {
      "channel": 3,
      "note": 83,
      "start": 36.1539,
      "duration": 0.3623,
      "velocity": 89,
      "chip": "ym2612"
    },
    {
      "channel": 0,
      "note": 57,
      "start": 36.2427,
      "duration": 0.0853,
      "velocity": 117,
      "chip": "ym2612"
    },
    {
      "channel": 0,
      "note": 69,
      "start": 36.3281,
      "duration": 0.187,
      "velocity": 117,
      "chip": "ym2612"
    },
    {
      "channel": 2,
      "note": 83,
      "start": 36.3286,
      "duration": 0.3643,
      "velocity": 127,
      "chip": "ym2612"
    },
    {
      "channel": 4,
      "note": 88,
      "start": 36.3292,
      "duration": 0.0861,
      "velocity": 109,
      "chip": "ym2612"
    },
    {
      "channel": 4,
      "note": 86,
      "start": 36.4155,
      "duration": 0.1012,
      "velocity": 109,
      "chip": "ym2612"
    },
    {
      "channel": 0,
      "note": 57,
      "start": 36.5154,
      "duration": 0.1766,
      "velocity": 117,
      "chip": "ym2612"
    },
    {
      "channel": 1,
      "note": 76,
      "start": 36.5159,
      "duration": 0.1766,
      "velocity": 89,
      "chip": "ym2612"
    },
    {
      "channel": 3,
      "note": 81,
      "start": 36.5164,
      "duration": 0.1771,
      "velocity": 89,
      "chip": "ym2612"
    },
    {
      "channel": 4,
      "note": 81,
      "start": 36.5169,
      "duration": 0.3637,
      "velocity": 109,
      "chip": "ym2612"
    },
    {
      "channel": 0,
      "note": 58,
      "start": 36.6922,
      "duration": 0.1878,
      "velocity": 117,
      "chip": "ym2612"
    },
    {
      "channel": 1,
      "note": 78,
      "start": 36.6927,
      "duration": 0.3726,
      "velocity": 89,
      "chip": "ym2612"
    },
    {
      "channel": 2,
      "note": 81,
      "start": 36.6932,
      "duration": 0.2814,
      "velocity": 127,
      "chip": "ym2612"
    },
    {
      "channel": 3,
      "note": 83,
      "start": 36.6937,
      "duration": 0.3726,
      "velocity": 89,
      "chip": "ym2612"
    },
    {
      "channel": 0,
      "note": 59,
      "start": 36.8802,
      "duration": 0.53,
      "velocity": 117,
      "chip": "ym2612"
    },
    {
      "channel": 4,
      "note": 90,
      "start": 36.8809,
      "duration": 0.0943,
      "velocity": 109,
      "chip": "ym2612"
    },
    {
      "channel": 2,
      "note": 82,
      "start": 36.9747,
      "duration": 0.091,
      "velocity": 127,
      "chip": "ym2612"
    },
    {
      "channel": 4,
      "note": 88,
      "start": 36.9753,
      "duration": 0.0915,
      "velocity": 109,
      "chip": "ym2612"
    },
    {
      "channel": 1,
      "note": 83,
      "start": 37.0654,
      "duration": 2.8295,
      "velocity": 89,
      "chip": "ym2612"
    },
    {
      "channel": 2,
      "note": 83,
      "start": 37.0659,
      "duration": 2.8295,
      "velocity": 127,
      "chip": "ym2612"
    },
    {
      "channel": 3,
      "note": 86,
      "start": 37.0664,
      "duration": 2.8296,
      "velocity": 89,
      "chip": "ym2612"
    },
    {
      "channel": 4,
      "note": 90,
      "start": 37.0669,
      "duration": 2.8296,
      "velocity": 109,
      "chip": "ym2612"
    },
    {
      "channel": 0,
      "note": 71,
      "start": 37.4104,
      "duration": 0.2641,
      "velocity": 117,
      "chip": "ym2612"
    },
    {
      "channel": 0,
      "note": 59,
      "start": 37.6746,
      "duration": 0.0903,
      "velocity": 117,
      "chip": "ym2612"
    },
    {
      "channel": 0,
      "note": 71,
      "start": 37.765,
      "duration": 0.1881,
      "velocity": 117,
      "chip": "ym2612"
    },
    {
      "channel": 0,
      "note": 59,
      "start": 37.9533,
      "duration": 0.1712,
      "velocity": 117,
      "chip": "ym2612"
    },
    {
      "channel": 0,
      "note": 69,
      "start": 38.1247,
      "duration": 0.0866,
      "velocity": 117,
      "chip": "ym2612"
    },
    {
      "channel": 0,
      "note": 70,
      "start": 38.2114,
      "duration": 0.0938,
      "velocity": 117,
      "chip": "ym2612"
    },
    {
      "channel": 0,
      "note": 71,
      "start": 38.3053,
      "duration": 0.3429,
      "velocity": 117,
      "chip": "ym2612"
    },
    {
      "channel": 0,
      "note": 59,
      "start": 38.6483,
      "duration": 0.1715,
      "velocity": 117,
      "chip": "ym2612"
    },
    {
      "channel": 0,
      "note": 71,
      "start": 38.82,
      "duration": 0.2711,
      "velocity": 117,
      "chip": "ym2612"
    },
    {
      "channel": 0,
      "note": 59,
      "start": 39.0913,
      "duration": 0.0882,
      "velocity": 117,
      "chip": "ym2612"
    },
    {
      "channel": 0,
      "note": 71,
      "start": 39.1797,
      "duration": 0.1869,
      "velocity": 117,
      "chip": "ym2612"
    },
    {
      "channel": 0,
      "note": 59,
      "start": 39.3668,
      "duration": 0.1712,
      "velocity": 117,
      "chip": "ym2612"
    },
    {
      "channel": 0,
      "note": 69,
      "start": 39.5381,
      "duration": 0.1828,
      "velocity": 117,
      "chip": "ym2612"
    },
    {
      "channel": 0,
      "note": 71,
      "start": 39.7211,
      "duration": 0.1733,
      "velocity": 117,
      "chip": "ym2612"
    },
    {
      "channel": 0,
      "note": 55,
      "start": 39.8945,
      "duration": 0.3388,
      "velocity": 117,
      "chip": "ym2612"
    },
    {
      "channel": 1,
      "note": 83,
      "start": 39.8951,
      "duration": 0.8887,
      "velocity": 89,
      "chip": "ym2612"
    },
    {
      "channel": 2,
      "note": 86,
      "start": 39.8956,
      "duration": 1.0636,
      "velocity": 127,
      "chip": "ym2612"
    },
    {
      "channel": 3,
      "note": 86,
      "start": 39.8961,
      "duration": 0.8881,
      "velocity": 89,
      "chip": "ym2612"
    },
    {
      "channel": 4,
      "note": 91,
      "start": 39.8967,
      "duration": 0.3373,
      "velocity": 109,
      "chip": "ym2612"
    },
    {
      "channel": 0,
      "note": 67,
      "start": 40.2335,
      "duration": 0.2716,
      "velocity": 117,
      "chip": "ym2612"
    },
    {
      "channel": 4,
      "note": 90,
      "start": 40.2341,
      "duration": 0.1788,
      "velocity": 109,
      "chip": "ym2612"
    },
    {
      "channel": 4,
      "note": 88,
      "start": 40.4131,
      "duration": 0.1824,
      "velocity": 109,
      "chip": "ym2612"
    },
    {
      "channel": 0,
      "note": 55,
      "start": 40.5052,
      "duration": 0.0896,
      "velocity": 117,
      "chip": "ym2612"
    },
    {
      "channel": 0,
      "note": 67,
      "start": 40.595,
      "duration": 0.1882,
      "velocity": 117,
      "chip": "ym2612"
    },
    {
      "channel": 4,
      "note": 86,
      "start": 40.5956,
      "duration": 0.1892,
      "velocity": 109,
      "chip": "ym2612"
    },
    {
      "channel": 0,
      "note": 55,
      "start": 40.7834,
      "duration": 0.1748,
      "velocity": 117,
      "chip": "ym2612"
    },
    {
      "channel": 1,
      "note": 85,
      "start": 40.7839,
      "duration": 0.1748,
      "velocity": 89,
      "chip": "ym2612"
    },
    {
      "channel": 3,
      "note": 90,
      "start": 40.7845,
      "duration": 0.1752,
      "velocity": 89,
      "chip": "ym2612"
    },
    {
      "channel": 4,
      "note": 85,
      "start": 40.785,
      "duration": 0.1752,
      "velocity": 109,
      "chip": "ym2612"
    },
    {
      "channel": 0,
      "note": 56,
      "start": 40.9583,
      "duration": 0.1826,
      "velocity": 117,
      "chip": "ym2612"
    },
    {
      "channel": 1,
      "note": 86,
      "start": 40.9588,
      "duration": 0.1826,
      "velocity": 89,
      "chip": "ym2612"
    },
    {
      "channel": 2,
      "note": 88,
      "start": 40.9593,
      "duration": 0.36,
      "velocity": 127,
      "chip": "ym2612"
    },
    {
      "channel": 3,
      "note": 88,
      "start": 40.9598,
      "duration": 0.1822,
      "velocity": 89,
      "chip": "ym2612"
    },
    {
      "channel": 4,
      "note": 86,
      "start": 40.9604,
      "duration": 0.0846,
      "velocity": 109,
      "chip": "ym2612"
    },
    {
      "channel": 4,
      "note": 88,
      "start": 41.0451,
      "duration": 0.0974,
      "velocity": 109,
      "chip": "ym2612"
    },
    {
      "channel": 0,
      "note": 57,
      "start": 41.1411,
      "duration": 0.3483,
      "velocity": 117,
      "chip": "ym2612"
    },
    {
      "channel": 1,
      "note": 83,
      "start": 41.1416,
      "duration": 0.0879,
      "velocity": 89,
      "chip": "ym2612"
    },
    {
      "channel": 3,
      "note": 86,
      "start": 41.1422,
      "duration": 0.3483,
      "velocity": 89,
      "chip": "ym2612"
    },
    {
      "channel": 4,
      "note": 90,
      "start": 41.1427,
      "duration": 0.3483,
      "velocity": 109,
      "chip": "ym2612"
    },
    {
      "channel": 1,
      "note": 85,
      "start": 41.2297,
      "duration": 0.2603,
      "velocity": 89,
      "chip": "ym2612"
    },
    {
      "channel": 2,
      "note": 86,
      "start": 41.3195,
      "duration": 0.3383,
      "velocity": 127,
      "chip": "ym2612"
    },
    {
      "channel": 0,
      "note": 57,
      "start": 41.4897,
      "duration": 0.1677,
      "velocity": 117,
      "chip": "ym2612"
    },
    {
      "channel": 1,
      "note": 81,
      "start": 41.4902,
      "duration": 0.3444,
      "velocity": 89,
      "chip": "ym2612"
    },
    {
      "channel": 3,
      "note": 85,
      "start": 41.4907,
      "duration": 0.3444,
      "velocity": 89,
      "chip": "ym2612"
    },
    {
      "channel": 4,
      "note": 83,
      "start": 41.4912,
      "duration": 0.0802,
      "velocity": 109,
      "chip": "ym2612"
    },
    {
      "channel": 4,
      "note": 81,
      "start": 41.5717,
      "duration": 0.0867,
      "velocity": 109,
      "chip": "ym2612"
    },
    {
      "channel": 0,
      "note": 69,
      "start": 41.6575,
      "duration": 0.2602,
      "velocity": 117,
      "chip": "ym2612"
    },
    {
      "channel": 2,
      "note": 85,
      "start": 41.658,
      "duration": 0.3477,
      "velocity": 127,
      "chip": "ym2612"
    },
    {
      "channel": 4,
      "note": 83,
      "start": 41.6586,
      "duration": 0.3476,
      "velocity": 109,
      "chip": "ym2612"
    },
    {
      "channel": 1,
      "note": 78,
      "start": 41.8348,
      "duration": 0.3591,
      "velocity": 89,
      "chip": "ym2612"
    },
    {
      "channel": 3,
      "note": 83,
      "start": 41.8353,
      "duration": 0.3591,
      "velocity": 89,
      "chip": "ym2612"
    },
    {
      "channel": 0,
      "note": 57,
      "start": 41.9179,
      "duration": 0.0872,
      "velocity": 117,
      "chip": "ym2612"
    },
    {
      "channel": 0,
      "note": 69,
      "start": 42.0054,
      "duration": 0.188,
      "velocity": 117,
      "chip": "ym2612"
    },
    {
      "channel": 2,
      "note": 83,
      "start": 42.0059,
      "duration": 0.3653,
      "velocity": 127,
      "chip": "ym2612"
    },
    {
      "channel": 4,
      "note": 83,
      "start": 42.0064,
      "duration": 0.0871,
      "velocity": 109,
      "chip": "ym2612"
    },
    {
      "channel": 4,
      "note": 85,
      "start": 42.0937,
      "duration": 0.1012,
      "velocity": 109,
      "chip": "ym2612"
    },
    {
      "channel": 0,
      "note": 57,
      "start": 42.1936,
      "duration": 0.1766,
      "velocity": 117,
      "chip": "ym2612"
    },
    {
      "channel": 1,
      "note": 76,
      "start": 42.1941,
      "duration": 0.1766,
      "velocity": 89,
      "chip": "ym2612"
    },
    {
      "channel": 3,
      "note": 81,
      "start": 42.1946,
      "duration": 0.177,
      "velocity": 89,
      "chip": "ym2612"
    },
    {
      "channel": 4,
      "note": 86,
      "start": 42.1951,
      "duration": 0.0866,
      "velocity": 109,
      "chip": "ym2612"
    },
    {
      "channel": 4,
      "note": 88,
      "start": 42.2819,
      "duration": 0.0903,
      "velocity": 109,
      "chip": "ym2612"
    },
    {
      "channel": 0,
      "note": 58,
      "start": 42.3703,
      "duration": 0.1799,
      "velocity": 117,
      "chip": "ym2612"
    },
    {
      "channel": 1,
      "note": 78,
      "start": 42.3707,
      "duration": 0.3562,
      "velocity": 89,
      "chip": "ym2612"
    },
    {
      "channel": 2,
      "note": 81,
      "start": 42.3713,
      "duration": 0.3562,
      "velocity": 127,
      "chip": "ym2612"
    },
    {
      "channel": 3,
      "note": 83,
      "start": 42.3718,
      "duration": 0.3562,
      "velocity": 89,
      "chip": "ym2612"
    },
    {
      "channel": 4,
      "note": 90,
      "start": 42.3723,
      "duration": 0.0882,
      "velocity": 109,
      "chip": "ym2612"
    },
    {
      "channel": 4,
      "note": 88,
      "start": 42.4606,
      "duration": 0.0903,
      "velocity": 109,
      "chip": "ym2612"
    },
    {
      "channel": 0,
      "note": 59,
      "start": 42.5504,
      "duration": 0.176,
      "velocity": 117,
      "chip": "ym2612"
    },
    {
      "channel": 4,
      "note": 86,
      "start": 42.5511,
      "duration": 0.0874,
      "velocity": 109,
      "chip": "ym2612"
    },
    {
      "channel": 4,
      "note": 85,
      "start": 42.6388,
      "duration": 0.0897,
      "velocity": 109,
      "chip": "ym2612"
    },
    {
      "channel": 0,
      "note": 55,
      "start": 42.7266,
      "duration": 0.3502,
      "velocity": 117,
      "chip": "ym2612"
    },
    {
      "channel": 1,
      "note": 86,
      "start": 42.7271,
      "duration": 0.5192,
      "velocity": 89,
      "chip": "ym2612"
    },
    {
      "channel": 2,
      "note": 79,
      "start": 42.7277,
      "duration": 0.5192,
      "velocity": 127,
      "chip": "ym2612"
    },
    {
      "channel": 3,
      "note": 83,
      "start": 42.7282,
      "duration": 0.5192,
      "velocity": 89,
      "chip": "ym2612"
    },
    {
      "channel": 4,
      "note": 79,
      "start": 42.7287,
      "duration": 0.0862,
      "velocity": 109,
      "chip": "ym2612"
    },
    {
      "channel": 4,
      "note": 83,
      "start": 42.815,
      "duration": 0.0937,
      "velocity": 109,
      "chip": "ym2612"
    },
    {
      "channel": 4,
      "note": 86,
      "start": 42.9089,
      "duration": 0.339,
      "velocity": 109,
      "chip": "ym2612"
    },
    {
      "channel": 0,
      "note": 67,
      "start": 43.077,
      "duration": 0.2597,
      "velocity": 117,
      "chip": "ym2612"
    },
    {
      "channel": 1,
      "note": 88,
      "start": 43.2466,
      "duration": 0.8828,
      "velocity": 89,
      "chip": "ym2612"
    },
    {
      "channel": 2,
      "note": 81,
      "start": 43.2471,
      "duration": 0.8828,
      "velocity": 127,
      "chip": "ym2612"
    },
    {
      "channel": 3,
      "note": 85,
      "start": 43.2476,
      "duration": 0.8828,
      "velocity": 89,
      "chip": "ym2612"
    },
    {
      "channel": 4,
      "note": 81,
      "start": 43.2481,
      "duration": 0.0893,
      "velocity": 109,
      "chip": "ym2612"
    },
    {
      "channel": 0,
      "note": 55,
      "start": 43.337,
      "duration": 0.0938,
      "velocity": 117,
      "chip": "ym2612"
    },
    {
      "channel": 4,
      "note": 85,
      "start": 43.3376,
      "duration": 0.0938,
      "velocity": 109,
      "chip": "ym2612"
    },
    {
      "channel": 0,
      "note": 69,
      "start": 43.4309,
      "duration": 0.1819,
      "velocity": 117,
      "chip": "ym2612"
    },
    {
      "channel": 4,
      "note": 88,
      "start": 43.4316,
      "duration": 0.6993,
      "velocity": 109,
      "chip": "ym2612"
    },
    {
      "channel": 0,
      "note": 57,
      "start": 43.6129,
      "duration": 0.1704,
      "velocity": 117,
      "chip": "ym2612"
    },
    {
      "channel": 0,
      "note": 69,
      "start": 43.7834,
      "duration": 0.1779,
      "velocity": 117,
      "chip": "ym2612"
    },
    {
      "channel": 0,
      "note": 58,
      "start": 43.9616,
      "duration": 0.3478,
      "velocity": 117,
      "chip": "ym2612"
    },
    {
      "channel": 1,
      "note": 89,
      "start": 44.1296,
      "duration": 0.516,
      "velocity": 89,
      "chip": "ym2612"
    },
    {
      "channel": 2,
      "note": 82,
      "start": 44.1301,
      "duration": 0.516,
      "velocity": 127,
      "chip": "ym2612"
    },
    {
      "channel": 3,
      "note": 86,
      "start": 44.1306,
      "duration": 0.516,
      "velocity": 89,
      "chip": "ym2612"
    },
    {
      "channel": 4,
      "note": 82,
      "start": 44.1311,
      "duration": 0.0882,
      "velocity": 109,
      "chip": "ym2612"
    },
    {
      "channel": 4,
      "note": 86,
      "start": 44.2195,
      "duration": 0.0906,
      "velocity": 109,
      "chip": "ym2612"
    },
    {
      "channel": 0,
      "note": 58,
      "start": 44.3096,
      "duration": 0.083,
      "velocity": 117,
      "chip": "ym2612"
    },
    {
      "channel": 4,
      "note": 89,
      "start": 44.3103,
      "duration": 0.3368,
      "velocity": 109,
      "chip": "ym2612"
    },
    {
      "channel": 0,
      "note": 58,
      "start": 44.3927,
      "duration": 0.0841,
      "velocity": 117,
      "chip": "ym2612"
    },
    {
      "channel": 0,
      "note": 70,
      "start": 44.477,
      "duration": 0.2566,
      "velocity": 117,
      "chip": "ym2612"
    },
    {
      "channel": 1,
      "note": 91,
      "start": 44.6458,
      "duration": 0.5349,
      "velocity": 127,
      "chip": "ym2612"
    },
    {
      "channel": 2,
      "note": 84,
      "start": 44.6463,
      "duration": 0.8834,
      "velocity": 109,
      "chip": "ym2612"
    },
    {
      "channel": 3,
      "note": 88,
      "start": 44.6468,
      "duration": 0.8834,
      "velocity": 89,
      "chip": "ym2612"
    },
    {
      "channel": 4,
      "note": 84,
      "start": 44.6473,
      "duration": 0.0869,
      "velocity": 109,
      "chip": "ym2612"
    },
    {
      "channel": 0,
      "note": 58,
      "start": 44.7337,
      "duration": 0.0907,
      "velocity": 117,
      "chip": "ym2612"
    },
    {
      "channel": 4,
      "note": 88,
      "start": 44.7344,
      "duration": 0.0907,
      "velocity": 109,
      "chip": "ym2612"
    },
    {
      "channel": 0,
      "note": 60,
      "start": 44.8246,
      "duration": 0.1759,
      "velocity": 117,
      "chip": "ym2612"
    },
    {
      "channel": 4,
      "note": 91,
      "start": 44.8252,
      "duration": 0.7069,
      "velocity": 89,
      "chip": "ym2612"
    },
    {
      "channel": 0,
      "note": 72,
      "start": 45.0007,
      "duration": 0.178,
      "velocity": 117,
      "chip": "ym2612"
    },
    {
      "channel": 0,
      "note": 60,
      "start": 45.1789,
      "duration": 0.1712,
      "velocity": 117,
      "chip": "ym2612"
    },
    {
      "channel": 1,
      "note": 63,
      "start": 45.1808,
      "duration": 0.0856,
      "velocity": 127,
      "chip": "ym2612"
    },
    {
      "channel": 1,
      "note": 62,
      "start": 45.2666,
      "duration": 0.084,
      "velocity": 127,
      "chip": "ym2612"
    },
    {
      "channel": 0,
      "note": 61,
      "start": 45.3503,
      "duration": 0.1755,
      "velocity": 127,
      "chip": "ym2612"
    },
    {
      "channel": 1,
      "note": 61,
      "start": 45.3508,
      "duration": 0.0899,
      "velocity": 127,
      "chip": "ym2612"
    },
    {
      "channel": 1,
      "note": 60,
      "start": 45.4409,
      "duration": 0.0869,
      "velocity": 109,
      "chip": "ym2612"
    },
    {
      "channel": 0,
      "note": 59,
      "start": 45.526,
      "duration": 0.1745,
      "velocity": 114,
      "chip": "ym2612"
    },
    {
      "channel": 1,
      "note": 83,
      "start": 45.5279,
      "duration": 0.1731,
      "velocity": 109,
      "chip": "ym2612"
    },
    {
      "channel": 2,
      "note": 88,
      "start": 45.5299,
      "duration": 0.1717,
      "velocity": 109,
      "chip": "ym2612"
    },
    {
      "channel": 3,
      "note": 83,
      "start": 45.5304,
      "duration": 0.3378,
      "velocity": 89,
      "chip": "ym2612"
    },
    {
      "channel": 4,
      "note": 78,
      "start": 45.5324,
      "duration": 0.3363,
      "velocity": 89,
      "chip": "ym2612"
    },
    {
      "channel": 0,
      "note": 59,
      "start": 45.7007,
      "duration": 0.084,
      "velocity": 127,
      "chip": "ym2612"
    },
    {
      "channel": 1,
      "note": 83,
      "start": 45.7012,
      "duration": 0.3512,
      "velocity": 109,
      "chip": "ym2612"
    },
    {
      "channel": 2,
      "note": 86,
      "start": 45.7017,
      "duration": 0.3512,
      "velocity": 109,
      "chip": "ym2612"
    },
    {
      "channel": 0,
      "note": 59,
      "start": 45.7848,
      "duration": 0.0827,
      "velocity": 127,
      "chip": "ym2612"
    },
    {
      "channel": 0,
      "note": 57,
      "start": 45.8678,
      "duration": 0.1841,
      "velocity": 127,
      "chip": "ym2612"
    },
    {
      "channel": 3,
      "note": 85,
      "start": 45.8683,
      "duration": 0.1851,
      "velocity": 89,
      "chip": "ym2612"
    },
    {
      "channel": 4,
      "note": 81,
      "start": 45.8689,
      "duration": 0.1851,
      "velocity": 89,
      "chip": "ym2612"
    },
    {
      "channel": 0,
      "note": 54,
      "start": 46.0521,
      "duration": 0.1707,
      "velocity": 127,
      "chip": "ym2612"
    },
    {
      "channel": 1,
      "note": 83,
      "start": 46.0526,
      "duration": 0.7239,
      "velocity": 109,
      "chip": "ym2612"
    },
    {
      "channel": 2,
      "note": 86,
      "start": 46.0531,
      "duration": 0.7239,
      "velocity": 109,
      "chip": "ym2612"
    },
    {
      "channel": 3,
      "note": 83,
      "start": 46.0536,
      "duration": 0.1697,
      "velocity": 89,
      "chip": "ym2612"
    },
    {
      "channel": 4,
      "note": 78,
      "start": 46.0541,
      "duration": 0.1697,
      "velocity": 89,
      "chip": "ym2612"
    },
    {
      "channel": 0,
      "note": 52,
      "start": 46.2229,
      "duration": 0.1957,
      "velocity": 114,
      "chip": "ym2612"
    },
    {
      "channel": 3,
      "note": 86,
      "start": 46.2235,
      "duration": 0.369,
      "velocity": 89,
      "chip": "ym2612"
    },
    {
      "channel": 4,
      "note": 83,
      "start": 46.224,
      "duration": 0.369,
      "velocity": 89,
      "chip": "ym2612"
    },
    {
      "channel": 0,
      "note": 52,
      "start": 46.4187,
      "duration": 0.0819,
      "velocity": 127,
      "chip": "ym2612"
    },
    {
      "channel": 0,
      "note": 52,
      "start": 46.5009,
      "duration": 0.091,
      "velocity": 127,
      "chip": "ym2612"
    },
    {
      "channel": 0,
      "note": 54,
      "start": 46.5921,
      "duration": 0.1839,
      "velocity": 127,
      "chip": "ym2612"
    },
    {
      "channel": 3,
      "note": 88,
      "start": 46.5927,
      "duration": 0.1849,
      "velocity": 89,
      "chip": "ym2612"
    },
    {
      "channel": 4,
      "note": 83,
      "start": 46.5932,
      "duration": 0.1848,
      "velocity": 89,
      "chip": "ym2612"
    },
    {
      "channel": 0,
      "note": 57,
      "start": 46.7762,
      "duration": 0.1728,
      "velocity": 127,
      "chip": "ym2612"
    },
    {
      "channel": 1,
      "note": 83,
      "start": 46.7767,
      "duration": 0.3445,
      "velocity": 109,
      "chip": "ym2612"
    },
    {
      "channel": 2,
      "note": 88,
      "start": 46.7772,
      "duration": 0.3445,
      "velocity": 109,
      "chip": "ym2612"
    },
    {
      "channel": 3,
      "note": 86,
      "start": 46.7777,
      "duration": 0.1719,
      "velocity": 89,
      "chip": "ym2612"
    },
    {
      "channel": 4,
      "note": 81,
      "start": 46.7782,
      "duration": 0.172,
      "velocity": 89,
      "chip": "ym2612"
    },
    {
      "channel": 0,
      "note": 59,
      "start": 46.9492,
      "duration": 0.1715,
      "velocity": 114,
      "chip": "ym2612"
    },
    {
      "channel": 3,
      "note": 89,
      "start": 46.9498,
      "duration": 0.0875,
      "velocity": 89,
      "chip": "ym2612"
    },
    {
      "channel": 4,
      "note": 85,
      "start": 46.9502,
      "duration": 0.0875,
      "velocity": 89,
      "chip": "ym2612"
    },
    {
      "channel": 3,
      "note": 90,
      "start": 47.0374,
      "duration": 0.2579,
      "velocity": 89,
      "chip": "ym2612"
    },
    {
      "channel": 4,
      "note": 86,
      "start": 47.0379,
      "duration": 0.2579,
      "velocity": 89,
      "chip": "ym2612"
    },
    {
      "channel": 0,
      "note": 59,
      "start": 47.1207,
      "duration": 0.0857,
      "velocity": 127,
      "chip": "ym2612"
    },
    {
      "channel": 1,
      "note": 83,
      "start": 47.1213,
      "duration": 0.173,
      "velocity": 109,
      "chip": "ym2612"
    },
    {
      "channel": 2,
      "note": 88,
      "start": 47.1218,
      "duration": 0.173,
      "velocity": 109,
      "chip": "ym2612"
    },
    {
      "channel": 0,
      "note": 59,
      "start": 47.2066,
      "duration": 0.0872,
      "velocity": 127,
      "chip": "ym2612"
    },
    {
      "channel": 0,
      "note": 57,
      "start": 47.2939,
      "duration": 0.1819,
      "velocity": 127,
      "chip": "ym2612"
    },
    {
      "channel": 1,
      "note": 83,
      "start": 47.2944,
      "duration": 0.3592,
      "velocity": 109,
      "chip": "ym2612"
    },
    {
      "channel": 2,
      "note": 86,
      "start": 47.295,
      "duration": 0.3592,
      "velocity": 109,
      "chip": "ym2612"
    },
    {
      "channel": 3,
      "note": 95,
      "start": 47.2955,
      "duration": 0.3592,
      "velocity": 89,
      "chip": "ym2612"
    },
    {
      "channel": 4,
      "note": 90,
      "start": 47.296,
      "duration": 0.3592,
      "velocity": 89,
      "chip": "ym2612"
    },
    {
      "channel": 0,
      "note": 54,
      "start": 47.4761,
      "duration": 0.1771,
      "velocity": 127,
      "chip": "ym2612"
    },
    {
      "channel": 0,
      "note": 52,
      "start": 47.6533,
      "duration": 0.192,
      "velocity": 114,
      "chip": "ym2612"
    },
    {
      "channel": 1,
      "note": 83,
      "start": 47.6538,
      "duration": 0.192,
      "velocity": 109,
      "chip": "ym2612"
    },
    {
      "channel": 2,
      "note": 85,
      "start": 47.6543,
      "duration": 0.192,
      "velocity": 109,
      "chip": "ym2612"
    },
    {
      "channel": 3,
      "note": 89,
      "start": 47.6548,
      "duration": 0.0893,
      "velocity": 89,
      "chip": "ym2612"
    },
    {
      "channel": 4,
      "note": 86,
      "start": 47.6553,
      "duration": 0.0893,
      "velocity": 89,
      "chip": "ym2612"
    },
    {
      "channel": 3,
      "note": 88,
      "start": 47.7443,
      "duration": 0.1026,
      "velocity": 89,
      "chip": "ym2612"
    },
    {
      "channel": 4,
      "note": 85,
      "start": 47.7448,
      "duration": 0.1026,
      "velocity": 89,
      "chip": "ym2612"
    },
    {
      "channel": 0,
      "note": 52,
      "start": 47.8455,
      "duration": 0.0908,
      "velocity": 127,
      "chip": "ym2612"
    },
    {
      "channel": 1,
      "note": 83,
      "start": 47.8461,
      "duration": 0.3503,
      "velocity": 109,
      "chip": "ym2612"
    },
    {
      "channel": 2,
      "note": 86,
      "start": 47.8466,
      "duration": 0.3503,
      "velocity": 109,
      "chip": "ym2612"
    },
    {
      "channel": 3,
      "note": 86,
      "start": 47.8471,
      "duration": 0.1721,
      "velocity": 89,
      "chip": "ym2612"
    },
    {
      "channel": 4,
      "note": 83,
      "start": 47.8476,
      "duration": 0.1721,
      "velocity": 89,
      "chip": "ym2612"
    },
    {
      "channel": 0,
      "note": 52,
      "start": 47.9365,
      "duration": 0.0821,
      "velocity": 127,
      "chip": "ym2612"
    },
    {
      "channel": 0,
      "note": 54,
      "start": 48.0188,
      "duration": 0.1771,
      "velocity": 127,
      "chip": "ym2612"
    },
    {
      "channel": 3,
      "note": 83,
      "start": 48.0194,
      "duration": 0.178,
      "velocity": 89,
      "chip": "ym2612"
    },
    {
      "channel": 4,
      "note": 76,
      "start": 48.0199,
      "duration": 0.178,
      "velocity": 89,
      "chip": "ym2612"
    },
    {
      "channel": 0,
      "note": 57,
      "start": 48.1961,
      "duration": 0.1736,
      "velocity": 127,
      "chip": "ym2612"
    },
    {
      "channel": 1,
      "note": 83,
      "start": 48.1966,
      "duration": 0.1736,
      "velocity": 109,
      "chip": "ym2612"
    },
    {
      "channel": 2,
      "note": 85,
      "start": 48.1971,
      "duration": 0.1736,
      "velocity": 109,
      "chip": "ym2612"
    },
    {
      "channel": 3,
      "note": 81,
      "start": 48.1976,
      "duration": 0.1736,
      "velocity": 89,
      "chip": "ym2612"
    },
    {
      "channel": 4,
      "note": 78,
      "start": 48.1981,
      "duration": 0.1737,
      "velocity": 89,
      "chip": "ym2612"
    },
    {
      "channel": 0,
      "note": 59,
      "start": 48.3698,
      "duration": 0.1686,
      "velocity": 114,
      "chip": "ym2612"
    },
    {
      "channel": 1,
      "note": 81,
      "start": 48.3703,
      "duration": 0.1686,
      "velocity": 109,
      "chip": "ym2612"
    },
    {
      "channel": 2,
      "note": 86,
      "start": 48.3708,
      "duration": 0.1686,
      "velocity": 109,
      "chip": "ym2612"
    },
    {
      "channel": 3,
      "note": 83,
      "start": 48.3713,
      "duration": 0.3416,
      "velocity": 89,
      "chip": "ym2612"
    },
    {
      "channel": 4,
      "note": 78,
      "start": 48.3718,
      "duration": 0.3416,
      "velocity": 89,
      "chip": "ym2612"
    },
    {
      "channel": 0,
      "note": 59,
      "start": 48.5386,
      "duration": 0.0882,
      "velocity": 127,
      "chip": "ym2612"
    },
    {
      "channel": 1,
      "note": 81,
      "start": 48.5391,
      "duration": 0.3529,
      "velocity": 109,
      "chip": "ym2612"
    },
    {
      "channel": 2,
      "note": 85,
      "start": 48.5396,
      "duration": 0.3529,
      "velocity": 109,
      "chip": "ym2612"
    },
    {
      "channel": 0,
      "note": 59,
      "start": 48.6269,
      "duration": 0.0854,
      "velocity": 127,
      "chip": "ym2612"
    },
    {
      "channel": 0,
      "note": 57,
      "start": 48.7125,
      "duration": 0.179,
      "velocity": 127,
      "chip": "ym2612"
    },
    {
      "channel": 3,
      "note": 85,
      "start": 48.7131,
      "duration": 0.18,
      "velocity": 89,
      "chip": "ym2612"
    },
    {
      "channel": 4,
      "note": 81,
      "start": 48.7136,
      "duration": 0.1799,
      "velocity": 89,
      "chip": "ym2612"
    },
    {
      "channel": 0,
      "note": 54,
      "start": 48.8917,
      "duration": 0.1726,
      "velocity": 127,
      "chip": "ym2612"
    },
    {
      "channel": 1,
      "note": 81,
      "start": 48.8922,
      "duration": 0.7276,
      "velocity": 109,
      "chip": "ym2612"
    },
    {
      "channel": 2,
      "note": 85,
      "start": 48.8927,
      "duration": 0.7276,
      "velocity": 109,
      "chip": "ym2612"
    },
    {
      "channel": 3,
      "note": 83,
      "start": 48.8932,
      "duration": 0.1717,
      "velocity": 89,
      "chip": "ym2612"
    },
    {
      "channel": 4,
      "note": 78,
      "start": 48.8937,
      "duration": 0.1718,
      "velocity": 89,
      "chip": "ym2612"
    },
    {
      "channel": 0,
      "note": 52,
      "start": 49.0645,
      "duration": 0.1959,
      "velocity": 114,
      "chip": "ym2612"
    },
    {
      "channel": 3,
      "note": 86,
      "start": 49.0652,
      "duration": 0.1959,
      "velocity": 89,
      "chip": "ym2612"
    },
    {
      "channel": 4,
      "note": 83,
      "start": 49.0657,
      "duration": 0.196,
      "velocity": 89,
      "chip": "ym2612"
    },
    {
      "channel": 0,
      "note": 52,
      "start": 49.2607,
      "duration": 0.0922,
      "velocity": 127,
      "chip": "ym2612"
    },
    {
      "channel": 3,
      "note": 88,
      "start": 49.2613,
      "duration": 0.1794,
      "velocity": 89,
      "chip": "ym2612"
    },
    {
      "channel": 4,
      "note": 85,
      "start": 49.2618,
      "duration": 0.1794,
      "velocity": 89,
      "chip": "ym2612"
    },
    {
      "channel": 0,
      "note": 52,
      "start": 49.353,
      "duration": 0.0871,
      "velocity": 127,
      "chip": "ym2612"
    },
    {
      "channel": 0,
      "note": 54,
      "start": 49.4403,
      "duration": 0.179,
      "velocity": 127,
      "chip": "ym2612"
    },
    {
      "channel": 3,
      "note": 86,
      "start": 49.4409,
      "duration": 0.18,
      "velocity": 89,
      "chip": "ym2612"
    },
    {
      "channel": 4,
      "note": 83,
      "start": 49.4414,
      "duration": 0.18,
      "velocity": 89,
      "chip": "ym2612"
    },
    {
      "channel": 0,
      "note": 57,
      "start": 49.6195,
      "duration": 0.1761,
      "velocity": 127,
      "chip": "ym2612"
    },
    {
      "channel": 1,
      "note": 81,
      "start": 49.62,
      "duration": 0.3438,
      "velocity": 109,
      "chip": "ym2612"
    },
    {
      "channel": 2,
      "note": 86,
      "start": 49.6205,
      "duration": 0.3438,
      "velocity": 109,
      "chip": "ym2612"
    },
    {
      "channel": 3,
      "note": 89,
      "start": 49.621,
      "duration": 0.0863,
      "velocity": 89,
      "chip": "ym2612"
    },
    {
      "channel": 4,
      "note": 85,
      "start": 49.6215,
      "duration": 0.0863,
      "velocity": 89,
      "chip": "ym2612"
    },
    {
      "channel": 3,
      "note": 90,
      "start": 49.7076,
      "duration": 0.2573,
      "velocity": 89,
      "chip": "ym2612"
    },
    {
      "channel": 4,
      "note": 86,
      "start": 49.7081,
      "duration": 0.2573,
      "velocity": 89,
      "chip": "ym2612"
    },
    {
      "channel": 0,
      "note": 59,
      "start": 49.7958,
      "duration": 0.1675,
      "velocity": 114,
      "chip": "ym2612"
    },
    {
      "channel": 0,
      "note": 59,
      "start": 49.9634,
      "duration": 0.0865,
      "velocity": 127,
      "chip": "ym2612"
    },
    {
      "channel": 1,
      "note": 81,
      "start": 49.9639,
      "duration": 0.174,
      "velocity": 109,
      "chip": "ym2612"
    },
    {
      "channel": 2,
      "note": 86,
      "start": 49.9644,
      "duration": 0.174,
      "velocity": 109,
      "chip": "ym2612"
    },
    {
      "channel": 3,
      "note": 89,
      "start": 49.965,
      "duration": 0.0855,
      "velocity": 89,
      "chip": "ym2612"
    },
    {
      "channel": 4,
      "note": 85,
      "start": 49.9655,
      "duration": 0.0855,
      "velocity": 89,
      "chip": "ym2612"
    },
    {
      "channel": 0,
      "note": 59,
      "start": 50.05,
      "duration": 0.0873,
      "velocity": 127,
      "chip": "ym2612"
    },
    {
      "channel": 3,
      "note": 90,
      "start": 50.0507,
      "duration": 0.2659,
      "velocity": 89,
      "chip": "ym2612"
    },
    {
      "channel": 4,
      "note": 86,
      "start": 50.0512,
      "duration": 0.2659,
      "velocity": 89,
      "chip": "ym2612"
    },
    {
      "channel": 0,
      "note": 57,
      "start": 50.1376,
      "duration": 0.1784,
      "velocity": 127,
      "chip": "ym2612"
    },
    {
      "channel": 1,
      "note": 81,
      "start": 50.138,
      "duration": 0.3624,
      "velocity": 109,
      "chip": "ym2612"
    },
    {
      "channel": 2,
      "note": 85,
      "start": 50.1385,
      "duration": 0.3623,
      "velocity": 109,
      "chip": "ym2612"
    },
    {
      "channel": 0,
      "note": 54,
      "start": 50.3162,
      "duration": 0.1837,
      "velocity": 127,
      "chip": "ym2612"
    },
    {
      "channel": 3,
      "note": 89,
      "start": 50.3168,
      "duration": 0.0941,
      "velocity": 89,
      "chip": "ym2612"
    },
    {
      "channel": 4,
      "note": 85,
      "start": 50.3173,
      "duration": 0.0941,
      "velocity": 89,
      "chip": "ym2612"
    },
    {
      "channel": 3,
      "note": 90,
      "start": 50.4111,
      "duration": 0.0903,
      "velocity": 89,
      "chip": "ym2612"
    },
    {
      "channel": 4,
      "note": 86,
      "start": 50.4116,
      "duration": 0.0903,
      "velocity": 89,
      "chip": "ym2612"
    },
    {
      "channel": 0,
      "note": 52,
      "start": 50.5001,
      "duration": 0.1959,
      "velocity": 114,
      "chip": "ym2612"
    },
    {
      "channel": 1,
      "note": 81,
      "start": 50.5006,
      "duration": 0.1959,
      "velocity": 109,
      "chip": "ym2612"
    },
    {
      "channel": 2,
      "note": 83,
      "start": 50.5011,
      "duration": 0.1959,
      "velocity": 109,
      "chip": "ym2612"
    },
    {
      "channel": 3,
      "note": 88,
      "start": 50.5016,
      "duration": 0.0932,
      "velocity": 89,
      "chip": "ym2612"
    },
    {
      "channel": 4,
      "note": 85,
      "start": 50.5021,
      "duration": 0.0932,
      "velocity": 89,
      "chip": "ym2612"
    },
    {
      "channel": 3,
      "note": 86,
      "start": 50.5949,
      "duration": 0.1026,
      "velocity": 89,
      "chip": "ym2612"
    },
    {
      "channel": 4,
      "note": 83,
      "start": 50.5954,
      "duration": 0.1026,
      "velocity": 89,
      "chip": "ym2612"
    },
    {
      "channel": 0,
      "note": 52,
      "start": 50.6962,
      "duration": 0.0908,
      "velocity": 127,
      "chip": "ym2612"
    },
    {
      "channel": 1,
      "note": 81,
      "start": 50.6967,
      "duration": 0.3492,
      "velocity": 109,
      "chip": "ym2612"
    },
    {
      "channel": 2,
      "note": 85,
      "start": 50.6972,
      "duration": 0.3492,
      "velocity": 109,
      "chip": "ym2612"
    },
    {
      "channel": 3,
      "note": 83,
      "start": 50.6977,
      "duration": 0.1737,
      "velocity": 89,
      "chip": "ym2612"
    },
    {
      "channel": 4,
      "note": 78,
      "start": 50.6982,
      "duration": 0.1737,
      "velocity": 89,
      "chip": "ym2612"
    },
    {
      "channel": 0,
      "note": 52,
      "start": 50.7871,
      "duration": 0.0837,
      "velocity": 127,
      "chip": "ym2612"
    },
    {
      "channel": 0,
      "note": 54,
      "start": 50.871,
      "duration": 0.0848,
      "velocity": 127,
      "chip": "ym2612"
    },
    {
      "channel": 3,
      "note": 81,
      "start": 50.8716,
      "duration": 0.0848,
      "velocity": 89,
      "chip": "ym2612"
    },
    {
      "channel": 4,
      "note": 76,
      "start": 50.8721,
      "duration": 0.0848,
      "velocity": 89,
      "chip": "ym2612"
    },
    {
      "channel": 0,
      "note": 57,
      "start": 50.956,
      "duration": 0.0894,
      "velocity": 127,
      "chip": "ym2612"
    },
    {
      "channel": 3,
      "note": 82,
      "start": 50.9566,
      "duration": 0.0903,
      "velocity": 89,
      "chip": "ym2612"
    },
    {
      "channel": 4,
      "note": 77,
      "start": 50.9571,
      "duration": 0.0903,
      "velocity": 89,
      "chip": "ym2612"
    },
    {
      "channel": 0,
      "note": 59,
      "start": 51.0455,
      "duration": 0.0888,
      "velocity": 127,
      "chip": "ym2612"
    },
    {
      "channel": 1,
      "note": 81,
      "start": 51.046,
      "duration": 0.1761,
      "velocity": 109,
      "chip": "ym2612"
    },
    {
      "channel": 2,
      "note": 86,
      "start": 51.0465,
      "duration": 0.1761,
      "velocity": 109,
      "chip": "ym2612"
    },
    {
      "channel": 3,
      "note": 83,
      "start": 51.047,
      "duration": 0.1761,
      "velocity": 89,
      "chip": "ym2612"
    },
    {
      "channel": 4,
      "note": 78,
      "start": 51.0476,
      "duration": 0.2623,
      "velocity": 89,
      "chip": "ym2612"
    },
    {
      "channel": 0,
      "note": 62,
      "start": 51.1345,
      "duration": 0.087,
      "velocity": 127,
      "chip": "ym2612"
    },
    {
      "channel": 0,
      "note": 59,
      "start": 51.2217,
      "duration": 0.1722,
      "velocity": 114,
      "chip": "ym2612"
    },
    {
      "channel": 1,
      "note": 85,
      "start": 51.2222,
      "duration": 0.1722,
      "velocity": 109,
      "chip": "ym2612"
    },
    {
      "channel": 2,
      "note": 91,
      "start": 51.2228,
      "duration": 0.1722,
      "velocity": 109,
      "chip": "ym2612"
    },
    {
      "channel": 3,
      "note": 71,
      "start": 51.2233,
      "duration": 0.1721,
      "velocity": 89,
      "chip": "ym2612"
    },
    {
      "channel": 4,
      "note": 74,
      "start": 51.31,
      "duration": 0.1789,
      "velocity": 89,
      "chip": "ym2612"
    },
    {
      "channel": 0,
      "note": 59,
      "start": 51.3941,
      "duration": 0.0941,
      "velocity": 127,
      "chip": "ym2612"
    },
    {
      "channel": 1,
      "note": 83,
      "start": 51.3946,
      "duration": 0.3673,
      "velocity": 109,
      "chip": "ym2612"
    },
    {
      "channel": 2,
      "note": 91,
      "start": 51.3951,
      "duration": 0.3673,
      "velocity": 109,
      "chip": "ym2612"
    },
    {
      "channel": 3,
      "note": 76,
      "start": 51.3956,
      "duration": 0.1845,
      "velocity": 89,
      "chip": "ym2612"
    },
    {
      "channel": 0,
      "note": 59,
      "start": 51.4883,
      "duration": 0.0912,
      "velocity": 127,
      "chip": "ym2612"
    },
    {
      "channel": 4,
      "note": 78,
      "start": 51.489,
      "duration": 0.0917,
      "velocity": 89,
      "chip": "ym2612"
    },
    {
      "channel": 0,
      "note": 57,
      "start": 51.5797,
      "duration": 0.1816,
      "velocity": 127,
      "chip": "ym2612"
    },
    {
      "channel": 3,
      "note": 83,
      "start": 51.5803,
      "duration": 0.1826,
      "velocity": 89,
      "chip": "ym2612"
    },
    {
      "channel": 4,
      "note": 78,
      "start": 51.5808,
      "duration": 0.1826,
      "velocity": 89,
      "chip": "ym2612"
    },
    {
      "channel": 0,
      "note": 54,
      "start": 51.7616,
      "duration": 0.1744,
      "velocity": 127,
      "chip": "ym2612"
    },
    {
      "channel": 1,
      "note": 83,
      "start": 51.7621,
      "duration": 0.7311,
      "velocity": 109,
      "chip": "ym2612"
    },
    {
      "channel": 2,
      "note": 91,
      "start": 51.7626,
      "duration": 0.7311,
      "velocity": 109,
      "chip": "ym2612"
    },
    {
      "channel": 3,
      "note": 86,
      "start": 51.7631,
      "duration": 0.1734,
      "velocity": 89,
      "chip": "ym2612"
    },
    {
      "channel": 4,
      "note": 81,
      "start": 51.7636,
      "duration": 0.1734,
      "velocity": 89,
      "chip": "ym2612"
    },
    {
      "channel": 0,
      "note": 52,
      "start": 51.9361,
      "duration": 0.1957,
      "velocity": 114,
      "chip": "ym2612"
    },
    {
      "channel": 3,
      "note": 88,
      "start": 51.9367,
      "duration": 0.1957,
      "velocity": 89,
      "chip": "ym2612"
    },
    {
      "channel": 4,
      "note": 83,
      "start": 51.9372,
      "duration": 0.1957,
      "velocity": 89,
      "chip": "ym2612"
    },
    {
      "channel": 0,
      "note": 52,
      "start": 52.132,
      "duration": 0.0941,
      "velocity": 127,
      "chip": "ym2612"
    },
    {
      "channel": 3,
      "note": 89,
      "start": 52.1326,
      "duration": 0.1814,
      "velocity": 89,
      "chip": "ym2612"
    },
    {
      "channel": 4,
      "note": 84,
      "start": 52.1331,
      "duration": 0.1814,
      "velocity": 89,
      "chip": "ym2612"
    },
    {
      "channel": 0,
      "note": 52,
      "start": 52.2262,
      "duration": 0.0872,
      "velocity": 127,
      "chip": "ym2612"
    },
    {
      "channel": 0,
      "note": 54,
      "start": 52.3136,
      "duration": 0.1791,
      "velocity": 127,
      "chip": "ym2612"
    },
    {
      "channel": 3,
      "note": 90,
      "start": 52.3142,
      "duration": 0.18,
      "velocity": 89,
      "chip": "ym2612"
    },
    {
      "channel": 4,
      "note": 86,
      "start": 52.3147,
      "duration": 0.18,
      "velocity": 89,
      "chip": "ym2612"
    },
    {
      "channel": 0,
      "note": 57,
      "start": 52.4929,
      "duration": 0.1763,
      "velocity": 127,
      "chip": "ym2612"
    },
    {
      "channel": 1,
      "note": 86,
      "start": 52.4934,
      "duration": 0.3447,
      "velocity": 109,
      "chip": "ym2612"
    },
    {
      "channel": 2,
      "note": 91,
      "start": 52.4939,
      "duration": 0.3447,
      "velocity": 109,
      "chip": "ym2612"
    },
    {
      "channel": 3,
      "note": 93,
      "start": 52.4944,
      "duration": 0.0867,
      "velocity": 89,
      "chip": "ym2612"
    },
    {
      "channel": 4,
      "note": 88,
      "start": 52.4949,
      "duration": 0.0867,
      "velocity": 89,
      "chip": "ym2612"
    },
    {
      "channel": 3,
      "note": 95,
      "start": 52.5812,
      "duration": 0.2579,
      "velocity": 89,
      "chip": "ym2612"
    },
    {
      "channel": 4,
      "note": 90,
      "start": 52.5818,
      "duration": 0.2579,
      "velocity": 89,
      "chip": "ym2612"
    },
    {
      "channel": 0,
      "note": 59,
      "start": 52.6694,
      "duration": 0.1682,
      "velocity": 114,
      "chip": "ym2612"
    },
    {
      "channel": 0,
      "note": 59,
      "start": 52.8377,
      "duration": 0.0908,
      "velocity": 127,
      "chip": "ym2612"
    },
    {
      "channel": 1,
      "note": 86,
      "start": 52.8382,
      "duration": 0.1731,
      "velocity": 109,
      "chip": "ym2612"
    },
    {
      "channel": 2,
      "note": 91,
      "start": 52.8387,
      "duration": 0.1731,
      "velocity": 109,
      "chip": "ym2612"
    },
    {
      "channel": 3,
      "note": 93,
      "start": 52.8393,
      "duration": 0.3503,
      "velocity": 89,
      "chip": "ym2612"
    },
    {
      "channel": 4,
      "note": 88,
      "start": 52.8398,
      "duration": 0.3504,
      "velocity": 89,
      "chip": "ym2612"
    },
    {
      "channel": 0,
      "note": 59,
      "start": 52.9287,
      "duration": 0.0821,
      "velocity": 127,
      "chip": "ym2612"
    },
    {
      "channel": 0,
      "note": 57,
      "start": 53.011,
      "duration": 0.178,
      "velocity": 127,
      "chip": "ym2612"
    },
    {
      "channel": 1,
      "note": 88,
      "start": 53.0114,
      "duration": 0.3532,
      "velocity": 109,
      "chip": "ym2612"
    },
    {
      "channel": 2,
      "note": 91,
      "start": 53.0119,
      "duration": 0.3532,
      "velocity": 109,
      "chip": "ym2612"
    },
    {
      "channel": 0,
      "note": 54,
      "start": 53.1892,
      "duration": 0.1749,
      "velocity": 127,
      "chip": "ym2612"
    },
    {
      "channel": 3,
      "note": 90,
      "start": 53.1898,
      "duration": 0.1758,
      "velocity": 89,
      "chip": "ym2612"
    },
    {
      "channel": 4,
      "note": 86,
      "start": 53.1903,
      "duration": 0.1758,
      "velocity": 89,
      "chip": "ym2612"
    },
    {
      "channel": 0,
      "note": 52,
      "start": 53.3643,
      "duration": 0.1959,
      "velocity": 114,
      "chip": "ym2612"
    },
    {
      "channel": 1,
      "note": 86,
      "start": 53.3648,
      "duration": 0.1959,
      "velocity": 109,
      "chip": "ym2612"
    },
    {
      "channel": 2,
      "note": 91,
      "start": 53.3653,
      "duration": 0.1959,
      "velocity": 109,
      "chip": "ym2612"
    },
    {
      "channel": 3,
      "note": 88,
      "start": 53.3658,
      "duration": 0.0932,
      "velocity": 89,
      "chip": "ym2612"
    },
    {
      "channel": 4,
      "note": 83,
      "start": 53.3663,
      "duration": 0.0932,
      "velocity": 89,
      "chip": "ym2612"
    },
    {
      "channel": 3,
      "note": 90,
      "start": 53.4591,
      "duration": 0.1026,
      "velocity": 89,
      "chip": "ym2612"
    },
    {
      "channel": 4,
      "note": 86,
      "start": 53.4597,
      "duration": 0.1026,
      "velocity": 89,
      "chip": "ym2612"
    },
    {
      "channel": 0,
      "note": 52,
      "start": 53.5604,
      "duration": 0.0887,
      "velocity": 127,
      "chip": "ym2612"
    },
    {
      "channel": 1,
      "note": 85,
      "start": 53.5609,
      "duration": 0.3623,
      "velocity": 109,
      "chip": "ym2612"
    },
    {
      "channel": 2,
      "note": 91,
      "start": 53.5614,
      "duration": 0.3623,
      "velocity": 109,
      "chip": "ym2612"
    },
    {
      "channel": 3,
      "note": 93,
      "start": 53.562,
      "duration": 0.1785,
      "velocity": 89,
      "chip": "ym2612"
    },
    {
      "channel": 4,
      "note": 88,
      "start": 53.5624,
      "duration": 0.1785,
      "velocity": 89,
      "chip": "ym2612"
    },
    {
      "channel": 0,
      "note": 52,
      "start": 53.6493,
      "duration": 0.0906,
      "velocity": 127,
      "chip": "ym2612"
    },
    {
      "channel": 0,
      "note": 54,
      "start": 53.74,
      "duration": 0.1827,
      "velocity": 127,
      "chip": "ym2612"
    },
    {
      "channel": 3,
      "note": 95,
      "start": 53.7406,
      "duration": 0.0864,
      "velocity": 89,
      "chip": "ym2612"
    },
    {
      "channel": 4,
      "note": 91,
      "start": 53.7412,
      "duration": 0.0864,
      "velocity": 89,
      "chip": "ym2612"
    },
    {
      "channel": 3,
      "note": 98,
      "start": 53.8273,
      "duration": 0.097,
      "velocity": 89,
      "chip": "ym2612"
    },
    {
      "channel": 4,
      "note": 93,
      "start": 53.8278,
      "duration": 0.0969,
      "velocity": 89,
      "chip": "ym2612"
    },
    {
      "channel": 0,
      "note": 57,
      "start": 53.9229,
      "duration": 0.1756,
      "velocity": 127,
      "chip": "ym2612"
    },
    {
      "channel": 1,
      "note": 86,
      "start": 53.9234,
      "duration": 0.1756,
      "velocity": 109,
      "chip": "ym2612"
    },
    {
      "channel": 2,
      "note": 91,
      "start": 53.9239,
      "duration": 0.1756,
      "velocity": 109,
      "chip": "ym2612"
    },
    {
      "channel": 3,
      "note": 100,
      "start": 53.9244,
      "duration": 0.1756,
      "velocity": 89,
      "chip": "ym2612"
    },
    {
      "channel": 4,
      "note": 97,
      "start": 53.9249,
      "duration": 0.1757,
      "velocity": 89,
      "chip": "ym2612"
    },
    {
      "channel": 0,
      "note": 59,
      "start": 54.0987,
      "duration": 0.1686,
      "velocity": 114,
      "chip": "ym2612"
    },
    {
      "channel": 1,
      "note": 88,
      "start": 54.0992,
      "duration": 0.1686,
      "velocity": 109,
      "chip": "ym2612"
    },
    {
      "channel": 2,
      "note": 81,
      "start": 54.0997,
      "duration": 0.1686,
      "velocity": 109,
      "chip": "ym2612"
    },
    {
      "channel": 3,
      "note": 100,
      "start": 54.1002,
      "duration": 0.1686,
      "velocity": 89,
      "chip": "ym2612"
    },
    {
      "channel": 4,
      "note": 97,
      "start": 54.1007,
      "duration": 0.1686,
      "velocity": 89,
      "chip": "ym2612"
    },
    {
      "channel": 0,
      "note": 59,
      "start": 54.2674,
      "duration": 0.0888,
      "velocity": 127,
      "chip": "ym2612"
    },
    {
      "channel": 1,
      "note": 85,
      "start": 54.2679,
      "duration": 0.3574,
      "velocity": 109,
      "chip": "ym2612"
    },
    {
      "channel": 2,
      "note": 81,
      "start": 54.2684,
      "duration": 0.3574,
      "velocity": 109,
      "chip": "ym2612"
    },
    {
      "channel": 3,
      "note": 97,
      "start": 54.269,
      "duration": 0.177,
      "velocity": 89,
      "chip": "ym2612"
    },
    {
      "channel": 4,
      "note": 93,
      "start": 54.2695,
      "duration": 0.177,
      "velocity": 89,
      "chip": "ym2612"
    },
    {
      "channel": 0,
      "note": 59,
      "start": 54.3564,
      "duration": 0.089,
      "velocity": 127,
      "chip": "ym2612"
    },
    {
      "channel": 0,
      "note": 57,
      "start": 54.4456,
      "duration": 0.1792,
      "velocity": 127,
      "chip": "ym2612"
    },
    {
      "channel": 3,
      "note": 95,
      "start": 54.4462,
      "duration": 0.1802,
      "velocity": 89,
      "chip": "ym2612"
    },
    {
      "channel": 4,
      "note": 90,
      "start": 54.4467,
      "duration": 0.1801,
      "velocity": 89,
      "chip": "ym2612"
    },
    {
      "channel": 0,
      "note": 54,
      "start": 54.625,
      "duration": 0.1751,
      "velocity": 127,
      "chip": "ym2612"
    },
    {
      "channel": 1,
      "note": 85,
      "start": 54.6255,
      "duration": 0.7247,
      "velocity": 109,
      "chip": "ym2612"
    },
    {
      "channel": 2,
      "note": 81,
      "start": 54.626,
      "duration": 0.7247,
      "velocity": 109,
      "chip": "ym2612"
    },
    {
      "channel": 3,
      "note": 97,
      "start": 54.6265,
      "duration": 0.3662,
      "velocity": 89,
      "chip": "ym2612"
    },
    {
      "channel": 4,
      "note": 93,
      "start": 54.627,
      "duration": 0.3663,
      "velocity": 89,
      "chip": "ym2612"
    },
    {
      "channel": 0,
      "note": 52,
      "start": 54.8003,
      "duration": 0.1918,
      "velocity": 114,
      "chip": "ym2612"
    },
    {
      "channel": 0,
      "note": 52,
      "start": 54.9923,
      "duration": 0.0941,
      "velocity": 127,
      "chip": "ym2612"
    },
    {
      "channel": 3,
      "note": 93,
      "start": 54.9929,
      "duration": 0.3583,
      "velocity": 89,
      "chip": "ym2612"
    },
    {
      "channel": 4,
      "note": 90,
      "start": 54.9934,
      "duration": 0.3583,
      "velocity": 89,
      "chip": "ym2612"
    },
    {
      "channel": 0,
      "note": 52,
      "start": 55.0866,
      "duration": 0.0839,
      "velocity": 127,
      "chip": "ym2612"
    },
    {
      "channel": 0,
      "note": 54,
      "start": 55.1707,
      "duration": 0.1789,
      "velocity": 127,
      "chip": "ym2612"
    },
    {
      "channel": 0,
      "note": 57,
      "start": 55.3499,
      "duration": 0.1749,
      "velocity": 127,
      "chip": "ym2612"
    },
    {
      "channel": 1,
      "note": 88,
      "start": 55.3504,
      "duration": 0.3448,
      "velocity": 109,
      "chip": "ym2612"
    },
    {
      "channel": 2,
      "note": 81,
      "start": 55.3509,
      "duration": 0.3448,
      "velocity": 109,
      "chip": "ym2612"
    },
    {
      "channel": 3,
      "note": 90,
      "start": 55.3514,
      "duration": 0.3448,
      "velocity": 89,
      "chip": "ym2612"
    },
    {
      "channel": 4,
      "note": 86,
      "start": 55.3519,
      "duration": 0.3448,
      "velocity": 89,
      "chip": "ym2612"
    },
    {
      "channel": 0,
      "note": 59,
      "start": 55.525,
      "duration": 0.1697,
      "velocity": 114,
      "chip": "ym2612"
    },
    {
      "channel": 0,
      "note": 59,
      "start": 55.6948,
      "duration": 0.0865,
      "velocity": 127,
      "chip": "ym2612"
    },
    {
      "channel": 1,
      "note": 88,
      "start": 55.6953,
      "duration": 0.1773,
      "velocity": 109,
      "chip": "ym2612"
    },
    {
      "channel": 2,
      "note": 81,
      "start": 55.6958,
      "duration": 0.1773,
      "velocity": 109,
      "chip": "ym2612"
    },
    {
      "channel": 3,
      "note": 88,
      "start": 55.6963,
      "duration": 0.3581,
      "velocity": 89,
      "chip": "ym2612"
    },
    {
      "channel": 4,
      "note": 85,
      "start": 55.6968,
      "duration": 0.3582,
      "velocity": 89,
      "chip": "ym2612"
    },
    {
      "channel": 0,
      "note": 59,
      "start": 55.7815,
      "duration": 0.0906,
      "velocity": 127,
      "chip": "ym2612"
    },
    {
      "channel": 0,
      "note": 57,
      "start": 55.8722,
      "duration": 0.1816,
      "velocity": 127,
      "chip": "ym2612"
    },
    {
      "channel": 1,
      "note": 90,
      "start": 55.8727,
      "duration": 0.3566,
      "velocity": 109,
      "chip": "ym2612"
    },
    {
      "channel": 2,
      "note": 81,
      "start": 55.8732,
      "duration": 0.3565,
      "velocity": 109,
      "chip": "ym2612"
    },
    {
      "channel": 0,
      "note": 54,
      "start": 56.054,
      "duration": 0.1747,
      "velocity": 127,
      "chip": "ym2612"
    },
    {
      "channel": 3,
      "note": 90,
      "start": 56.0547,
      "duration": 0.1756,
      "velocity": 89,
      "chip": "ym2612"
    },
    {
      "channel": 4,
      "note": 86,
      "start": 56.0552,
      "duration": 0.1757,
      "velocity": 89,
      "chip": "ym2612"
    },
    {
      "channel": 0,
      "note": 52,
      "start": 56.2289,
      "duration": 0.1856,
      "velocity": 114,
      "chip": "ym2612"
    },
    {
      "channel": 1,
      "note": 95,
      "start": 56.2294,
      "duration": 0.1856,
      "velocity": 109,
      "chip": "ym2612"
    },
    {
      "channel": 2,
      "note": 81,
      "start": 56.23,
      "duration": 0.1856,
      "velocity": 109,
      "chip": "ym2612"
    },
    {
      "channel": 3,
      "note": 95,
      "start": 56.2305,
      "duration": 0.1856,
      "velocity": 89,
      "chip": "ym2612"
    },
    {
      "channel": 4,
      "note": 90,
      "start": 56.231,
      "duration": 0.1856,
      "velocity": 89,
      "chip": "ym2612"
    },
    {
      "channel": 0,
      "note": 52,
      "start": 56.4147,
      "duration": 0.0888,
      "velocity": 127,
      "chip": "ym2612"
    },
    {
      "channel": 1,
      "note": 93,
      "start": 56.4152,
      "duration": 0.3537,
      "velocity": 109,
      "chip": "ym2612"
    },
    {
      "channel": 2,
      "note": 81,
      "start": 56.4157,
      "duration": 0.3537,
      "velocity": 109,
      "chip": "ym2612"
    },
    {
      "channel": 3,
      "note": 95,
      "start": 56.4162,
      "duration": 0.0879,
      "velocity": 89,
      "chip": "ym2612"
    },
    {
      "channel": 4,
      "note": 88,
      "start": 56.4167,
      "duration": 0.0879,
      "velocity": 89,
      "chip": "ym2612"
    },
    {
      "channel": 0,
      "note": 52,
      "start": 56.5037,
      "duration": 0.0873,
      "velocity": 127,
      "chip": "ym2612"
    },
    {
      "channel": 3,
      "note": 95,
      "start": 56.5043,
      "duration": 0.0873,
      "velocity": 89,
      "chip": "ym2612"
    },
    {
      "channel": 4,
      "note": 90,
      "start": 56.5048,
      "duration": 0.0872,
      "velocity": 89,
      "chip": "ym2612"
    },
    {
      "channel": 0,
      "note": 54,
      "start": 56.5912,
      "duration": 0.0869,
      "velocity": 127,
      "chip": "ym2612"
    },
    {
      "channel": 3,
      "note": 93,
      "start": 56.5917,
      "duration": 0.1782,
      "velocity": 89,
      "chip": "ym2612"
    },
    {
      "channel": 4,
      "note": 88,
      "start": 56.5922,
      "duration": 0.1781,
      "velocity": 89,
      "chip": "ym2612"
    },
    {
      "channel": 0,
      "note": 57,
      "start": 56.6782,
      "duration": 0.0902,
      "velocity": 127,
      "chip": "ym2612"
    },
    {
      "channel": 0,
      "note": 59,
      "start": 56.7685,
      "duration": 0.0893,
      "velocity": 127,
      "chip": "ym2612"
    },
    {
      "channel": 1,
      "note": 90,
      "start": 56.769,
      "duration": 0.1793,
      "velocity": 109,
      "chip": "ym2612"
    },
    {
      "channel": 2,
      "note": 81,
      "start": 56.7695,
      "duration": 0.1794,
      "velocity": 109,
      "chip": "ym2612"
    },
    {
      "channel": 3,
      "note": 93,
      "start": 56.77,
      "duration": 0.0884,
      "velocity": 89,
      "chip": "ym2612"
    },
    {
      "channel": 4,
      "note": 86,
      "start": 56.7705,
      "duration": 0.0884,
      "velocity": 89,
      "chip": "ym2612"
    },
    {
      "channel": 0,
      "note": 62,
      "start": 56.858,
      "duration": 0.0899,
      "velocity": 127,
      "chip": "ym2612"
    },
    {
      "channel": 3,
      "note": 93,
      "start": 56.8586,
      "duration": 0.0908,
      "velocity": 89,
      "chip": "ym2612"
    },
    {
      "channel": 4,
      "note": 88,
      "start": 56.8591,
      "duration": 0.0909,
      "velocity": 89,
      "chip": "ym2612"
    },
    {
      "channel": 0,
      "note": 59,
      "start": 56.948,
      "duration": 0.1763,
      "velocity": 114,
      "chip": "ym2612"
    },
    {
      "channel": 1,
      "note": 83,
      "start": 56.9485,
      "duration": 0.1763,
      "velocity": 109,
      "chip": "ym2612"
    },
    {
      "channel": 2,
      "note": 88,
      "start": 56.9491,
      "duration": 0.1762,
      "velocity": 109,
      "chip": "ym2612"
    },
    {
      "channel": 3,
      "note": 83,
      "start": 56.9496,
      "duration": 0.3512,
      "velocity": 89,
      "chip": "ym2612"
    },
    {
      "channel": 4,
      "note": 78,
      "start": 56.9502,
      "duration": 0.3512,
      "velocity": 89,
      "chip": "ym2612"
    },
    {
      "channel": 0,
      "note": 59,
      "start": 57.1245,
      "duration": 0.0902,
      "velocity": 127,
      "chip": "ym2612"
    },
    {
      "channel": 1,
      "note": 83,
      "start": 57.125,
      "duration": 0.3551,
      "velocity": 109,
      "chip": "ym2612"
    },
    {
      "channel": 2,
      "note": 86,
      "start": 57.1255,
      "duration": 0.3551,
      "velocity": 109,
      "chip": "ym2612"
    },
    {
      "channel": 0,
      "note": 59,
      "start": 57.2148,
      "duration": 0.0854,
      "velocity": 127,
      "chip": "ym2612"
    },
    {
      "channel": 0,
      "note": 57,
      "start": 57.3004,
      "duration": 0.1791,
      "velocity": 127,
      "chip": "ym2612"
    },
    {
      "channel": 3,
      "note": 85,
      "start": 57.301,
      "duration": 0.18,
      "velocity": 89,
      "chip": "ym2612"
    },
    {
      "channel": 4,
      "note": 81,
      "start": 57.3016,
      "duration": 0.18,
      "velocity": 89,
      "chip": "ym2612"
    },
    {
      "channel": 0,
      "note": 54,
      "start": 57.4798,
      "duration": 0.1714,
      "velocity": 127,
      "chip": "ym2612"
    },
    {
      "channel": 1,
      "note": 83,
      "start": 57.4802,
      "duration": 0.7192,
      "velocity": 109,
      "chip": "ym2612"
    },
    {
      "channel": 2,
      "note": 86,
      "start": 57.4808,
      "duration": 0.7192,
      "velocity": 109,
      "chip": "ym2612"
    },
    {
      "channel": 3,
      "note": 83,
      "start": 57.4813,
      "duration": 0.1705,
      "velocity": 89,
      "chip": "ym2612"
    },
    {
      "channel": 4,
      "note": 78,
      "start": 57.4818,
      "duration": 0.1705,
      "velocity": 89,
      "chip": "ym2612"
    },
    {
      "channel": 0,
      "note": 52,
      "start": 57.6513,
      "duration": 0.1939,
      "velocity": 114,
      "chip": "ym2612"
    },
    {
      "channel": 3,
      "note": 86,
      "start": 57.652,
      "duration": 0.3683,
      "velocity": 89,
      "chip": "ym2612"
    },
    {
      "channel": 4,
      "note": 83,
      "start": 57.6525,
      "duration": 0.3683,
      "velocity": 89,
      "chip": "ym2612"
    },
    {
      "channel": 0,
      "note": 52,
      "start": 57.8454,
      "duration": 0.0881,
      "velocity": 127,
      "chip": "ym2612"
    },
    {
      "channel": 0,
      "note": 52,
      "start": 57.9337,
      "duration": 0.086,
      "velocity": 127,
      "chip": "ym2612"
    },
    {
      "channel": 0,
      "note": 54,
      "start": 58.0198,
      "duration": 0.1791,
      "velocity": 127,
      "chip": "ym2612"
    },
    {
      "channel": 3,
      "note": 88,
      "start": 58.0205,
      "duration": 0.18,
      "velocity": 89,
      "chip": "ym2612"
    },
    {
      "channel": 4,
      "note": 83,
      "start": 58.021,
      "duration": 0.18,
      "velocity": 89,
      "chip": "ym2612"
    },
    {
      "channel": 0,
      "note": 57,
      "start": 58.1991,
      "duration": 0.169,
      "velocity": 127,
      "chip": "ym2612"
    },
    {
      "channel": 1,
      "note": 83,
      "start": 58.1996,
      "duration": 0.3407,
      "velocity": 109,
      "chip": "ym2612"
    },
    {
      "channel": 2,
      "note": 88,
      "start": 58.2002,
      "duration": 0.3407,
      "velocity": 109,
      "chip": "ym2612"
    },
    {
      "channel": 3,
      "note": 86,
      "start": 58.2007,
      "duration": 0.1681,
      "velocity": 89,
      "chip": "ym2612"
    },
    {
      "channel": 4,
      "note": 81,
      "start": 58.2012,
      "duration": 0.1681,
      "velocity": 89,
      "chip": "ym2612"
    },
    {
      "channel": 0,
      "note": 59,
      "start": 58.3683,
      "duration": 0.1715,
      "velocity": 114,
      "chip": "ym2612"
    },
    {
      "channel": 3,
      "note": 89,
      "start": 58.3689,
      "duration": 0.0875,
      "velocity": 89,
      "chip": "ym2612"
    },
    {
      "channel": 4,
      "note": 85,
      "start": 58.3694,
      "duration": 0.0875,
      "velocity": 89,
      "chip": "ym2612"
    },
    {
      "channel": 3,
      "note": 90,
      "start": 58.4566,
      "duration": 0.2607,
      "velocity": 89,
      "chip": "ym2612"
    },
    {
      "channel": 4,
      "note": 86,
      "start": 58.4571,
      "duration": 0.2607,
      "velocity": 89,
      "chip": "ym2612"
    },
    {
      "channel": 0,
      "note": 59,
      "start": 58.5399,
      "duration": 0.088,
      "velocity": 127,
      "chip": "ym2612"
    },
    {
      "channel": 1,
      "note": 83,
      "start": 58.5404,
      "duration": 0.1758,
      "velocity": 109,
      "chip": "ym2612"
    },
    {
      "channel": 2,
      "note": 88,
      "start": 58.5409,
      "duration": 0.1758,
      "velocity": 109,
      "chip": "ym2612"
    },
    {
      "channel": 0,
      "note": 59,
      "start": 58.6281,
      "duration": 0.0876,
      "velocity": 127,
      "chip": "ym2612"
    },
    {
      "channel": 0,
      "note": 57,
      "start": 58.7159,
      "duration": 0.1824,
      "velocity": 127,
      "chip": "ym2612"
    },
    {
      "channel": 1,
      "note": 83,
      "start": 58.7163,
      "duration": 0.3557,
      "velocity": 109,
      "chip": "ym2612"
    },
    {
      "channel": 2,
      "note": 86,
      "start": 58.7169,
      "duration": 0.3557,
      "velocity": 109,
      "chip": "ym2612"
    },
    {
      "channel": 3,
      "note": 95,
      "start": 58.7174,
      "duration": 0.3557,
      "velocity": 89,
      "chip": "ym2612"
    },
    {
      "channel": 4,
      "note": 90,
      "start": 58.7179,
      "duration": 0.3557,
      "velocity": 89,
      "chip": "ym2612"
    },
    {
      "channel": 0,
      "note": 54,
      "start": 58.8984,
      "duration": 0.1731,
      "velocity": 127,
      "chip": "ym2612"
    },
    {
      "channel": 0,
      "note": 52,
      "start": 59.0717,
      "duration": 0.1857,
      "velocity": 114,
      "chip": "ym2612"
    },
    {
      "channel": 1,
      "note": 83,
      "start": 59.0722,
      "duration": 0.1857,
      "velocity": 109,
      "chip": "ym2612"
    },
    {
      "channel": 2,
      "note": 85,
      "start": 59.0728,
      "duration": 0.1857,
      "velocity": 109,
      "chip": "ym2612"
    },
    {
      "channel": 3,
      "note": 89,
      "start": 59.0733,
      "duration": 0.0829,
      "velocity": 89,
      "chip": "ym2612"
    },
    {
      "channel": 4,
      "note": 86,
      "start": 59.0738,
      "duration": 0.0829,
      "velocity": 89,
      "chip": "ym2612"
    },
    {
      "channel": 3,
      "note": 88,
      "start": 59.1563,
      "duration": 0.1026,
      "velocity": 89,
      "chip": "ym2612"
    },
    {
      "channel": 4,
      "note": 85,
      "start": 59.1568,
      "duration": 0.1026,
      "velocity": 89,
      "chip": "ym2612"
    },
    {
      "channel": 0,
      "note": 52,
      "start": 59.2576,
      "duration": 0.0909,
      "velocity": 127,
      "chip": "ym2612"
    },
    {
      "channel": 1,
      "note": 83,
      "start": 59.2581,
      "duration": 0.3566,
      "velocity": 109,
      "chip": "ym2612"
    },
    {
      "channel": 2,
      "note": 86,
      "start": 59.2586,
      "duration": 0.3566,
      "velocity": 109,
      "chip": "ym2612"
    },
    {
      "channel": 3,
      "note": 86,
      "start": 59.2591,
      "duration": 0.1762,
      "velocity": 89,
      "chip": "ym2612"
    },
    {
      "channel": 4,
      "note": 83,
      "start": 59.2596,
      "duration": 0.1762,
      "velocity": 89,
      "chip": "ym2612"
    },
    {
      "channel": 0,
      "note": 52,
      "start": 59.3486,
      "duration": 0.0862,
      "velocity": 127,
      "chip": "ym2612"
    },
    {
      "channel": 0,
      "note": 54,
      "start": 59.435,
      "duration": 0.1792,
      "velocity": 127,
      "chip": "ym2612"
    },
    {
      "channel": 3,
      "note": 83,
      "start": 59.4355,
      "duration": 0.1802,
      "velocity": 89,
      "chip": "ym2612"
    },
    {
      "channel": 4,
      "note": 76,
      "start": 59.4361,
      "duration": 0.1801,
      "velocity": 89,
      "chip": "ym2612"
    },
    {
      "channel": 0,
      "note": 57,
      "start": 59.6144,
      "duration": 0.1739,
      "velocity": 127,
      "chip": "ym2612"
    },
    {
      "channel": 1,
      "note": 83,
      "start": 59.6149,
      "duration": 0.1739,
      "velocity": 109,
      "chip": "ym2612"
    },
    {
      "channel": 2,
      "note": 85,
      "start": 59.6154,
      "duration": 0.1739,
      "velocity": 109,
      "chip": "ym2612"
    },
    {
      "channel": 3,
      "note": 81,
      "start": 59.6159,
      "duration": 0.1739,
      "velocity": 89,
      "chip": "ym2612"
    },
    {
      "channel": 4,
      "note": 78,
      "start": 59.6164,
      "duration": 0.1739,
      "velocity": 89,
      "chip": "ym2612"
    },
    {
      "channel": 0,
      "note": 59,
      "start": 59.7885,
      "duration": 0.1768,
      "velocity": 114,
      "chip": "ym2612"
    },
    {
      "channel": 1,
      "note": 81,
      "start": 59.789,
      "duration": 0.1768,
      "velocity": 109,
      "chip": "ym2612"
    },
    {
      "channel": 2,
      "note": 86,
      "start": 59.7895,
      "duration": 0.1768,
      "velocity": 109,
      "chip": "ym2612"
    },
    {
      "channel": 3,
      "note": 83,
      "start": 59.79,
      "duration": 0.3441,
      "velocity": 89,
      "chip": "ym2612"
    },
    {
      "channel": 4,
      "note": 78,
      "start": 59.7905,
      "duration": 0.3441,
      "velocity": 89,
      "chip": "ym2612"
    },
    {
      "channel": 0,
      "note": 59,
      "start": 59.9655,
      "duration": 0.0819,
      "velocity": 127,
      "chip": "ym2612"
    },
    {
      "channel": 1,
      "note": 81,
      "start": 59.966,
      "duration": 0.3453,
      "velocity": 109,
      "chip": "ym2612"
    },
    {
      "channel": 2,
      "note": 85,
      "start": 59.9665,
      "duration": 0.3453,
      "velocity": 109,
      "chip": "ym2612"
    },
    {
      "channel": 0,
      "note": 59,
      "start": 60.0475,
      "duration": 0.086,
      "velocity": 127,
      "chip": "ym2612"
    },
    {
      "channel": 0,
      "note": 57,
      "start": 60.1337,
      "duration": 0.1771,
      "velocity": 127,
      "chip": "ym2612"
    },
    {
      "channel": 3,
      "note": 85,
      "start": 60.1343,
      "duration": 0.178,
      "velocity": 89,
      "chip": "ym2612"
    },
    {
      "channel": 4,
      "note": 81,
      "start": 60.1348,
      "duration": 0.178,
      "velocity": 89,
      "chip": "ym2612"
    },
    {
      "channel": 0,
      "note": 54,
      "start": 60.311,
      "duration": 0.1727,
      "velocity": 127,
      "chip": "ym2612"
    },
    {
      "channel": 1,
      "note": 81,
      "start": 60.3115,
      "duration": 0.7315,
      "velocity": 109,
      "chip": "ym2612"
    },
    {
      "channel": 2,
      "note": 85,
      "start": 60.312,
      "duration": 0.7315,
      "velocity": 109,
      "chip": "ym2612"
    },
    {
      "channel": 3,
      "note": 83,
      "start": 60.3125,
      "duration": 0.1717,
      "velocity": 89,
      "chip": "ym2612"
    },
    {
      "channel": 4,
      "note": 78,
      "start": 60.313,
      "duration": 0.1718,
      "velocity": 89,
      "chip": "ym2612"
    },
    {
      "channel": 0,
      "note": 52,
      "start": 60.4838,
      "duration": 0.1957,
      "velocity": 114,
      "chip": "ym2612"
    },
    {
      "channel": 3,
      "note": 86,
      "start": 60.4844,
      "duration": 0.1957,
      "velocity": 89,
      "chip": "ym2612"
    },
    {
      "channel": 4,
      "note": 83,
      "start": 60.4849,
      "duration": 0.1957,
      "velocity": 89,
      "chip": "ym2612"
    },
    {
      "channel": 0,
      "note": 52,
      "start": 60.6797,
      "duration": 0.0941,
      "velocity": 127,
      "chip": "ym2612"
    },
    {
      "channel": 3,
      "note": 88,
      "start": 60.6803,
      "duration": 0.1854,
      "velocity": 89,
      "chip": "ym2612"
    },
    {
      "channel": 4,
      "note": 85,
      "start": 60.6808,
      "duration": 0.1854,
      "velocity": 89,
      "chip": "ym2612"
    },
    {
      "channel": 0,
      "note": 52,
      "start": 60.774,
      "duration": 0.0911,
      "velocity": 127,
      "chip": "ym2612"
    },
    {
      "channel": 0,
      "note": 54,
      "start": 60.8654,
      "duration": 0.1771,
      "velocity": 127,
      "chip": "ym2612"
    },
    {
      "channel": 3,
      "note": 86,
      "start": 60.8659,
      "duration": 0.1781,
      "velocity": 89,
      "chip": "ym2612"
    },
    {
      "channel": 4,
      "note": 83,
      "start": 60.8664,
      "duration": 0.178,
      "velocity": 89,
      "chip": "ym2612"
    },
    {
      "channel": 0,
      "note": 57,
      "start": 61.0427,
      "duration": 0.1735,
      "velocity": 127,
      "chip": "ym2612"
    },
    {
      "channel": 1,
      "note": 81,
      "start": 61.0432,
      "duration": 0.3412,
      "velocity": 109,
      "chip": "ym2612"
    },
    {
      "channel": 2,
      "note": 86,
      "start": 61.0437,
      "duration": 0.3412,
      "velocity": 109,
      "chip": "ym2612"
    },
    {
      "channel": 3,
      "note": 89,
      "start": 61.0442,
      "duration": 0.0838,
      "velocity": 89,
      "chip": "ym2612"
    },
    {
      "channel": 4,
      "note": 85,
      "start": 61.0447,
      "duration": 0.0838,
      "velocity": 89,
      "chip": "ym2612"
    },
    {
      "channel": 3,
      "note": 90,
      "start": 61.1282,
      "duration": 0.2573,
      "velocity": 89,
      "chip": "ym2612"
    },
    {
      "channel": 4,
      "note": 86,
      "start": 61.1287,
      "duration": 0.2573,
      "velocity": 89,
      "chip": "ym2612"
    },
    {
      "channel": 0,
      "note": 59,
      "start": 61.2164,
      "duration": 0.1675,
      "velocity": 114,
      "chip": "ym2612"
    },
    {
      "channel": 0,
      "note": 59,
      "start": 61.384,
      "duration": 0.0865,
      "velocity": 127,
      "chip": "ym2612"
    },
    {
      "channel": 1,
      "note": 81,
      "start": 61.3845,
      "duration": 0.1739,
      "velocity": 109,
      "chip": "ym2612"
    },
    {
      "channel": 2,
      "note": 86,
      "start": 61.385,
      "duration": 0.1739,
      "velocity": 109,
      "chip": "ym2612"
    },
    {
      "channel": 3,
      "note": 89,
      "start": 61.3856,
      "duration": 0.0855,
      "velocity": 89,
      "chip": "ym2612"
    },
    {
      "channel": 4,
      "note": 85,
      "start": 61.3861,
      "duration": 0.0855,
      "velocity": 89,
      "chip": "ym2612"
    },
    {
      "channel": 0,
      "note": 59,
      "start": 61.4706,
      "duration": 0.0873,
      "velocity": 127,
      "chip": "ym2612"
    },
    {
      "channel": 3,
      "note": 90,
      "start": 61.4712,
      "duration": 0.2641,
      "velocity": 89,
      "chip": "ym2612"
    },
    {
      "channel": 4,
      "note": 86,
      "start": 61.4717,
      "duration": 0.2641,
      "velocity": 89,
      "chip": "ym2612"
    },
    {
      "channel": 0,
      "note": 57,
      "start": 61.5581,
      "duration": 0.1765,
      "velocity": 127,
      "chip": "ym2612"
    },
    {
      "channel": 1,
      "note": 81,
      "start": 61.5586,
      "duration": 0.3606,
      "velocity": 109,
      "chip": "ym2612"
    },
    {
      "channel": 2,
      "note": 85,
      "start": 61.5591,
      "duration": 0.3606,
      "velocity": 109,
      "chip": "ym2612"
    },
    {
      "channel": 0,
      "note": 54,
      "start": 61.7349,
      "duration": 0.1838,
      "velocity": 127,
      "chip": "ym2612"
    },
    {
      "channel": 3,
      "note": 89,
      "start": 61.7355,
      "duration": 0.0922,
      "velocity": 89,
      "chip": "ym2612"
    },
    {
      "channel": 4,
      "note": 85,
      "start": 61.736,
      "duration": 0.0922,
      "velocity": 89,
      "chip": "ym2612"
    },
    {
      "channel": 3,
      "note": 90,
      "start": 61.8279,
      "duration": 0.0923,
      "velocity": 89,
      "chip": "ym2612"
    },
    {
      "channel": 4,
      "note": 86,
      "start": 61.8284,
      "duration": 0.0923,
      "velocity": 89,
      "chip": "ym2612"
    },
    {
      "channel": 0,
      "note": 52,
      "start": 61.9189,
      "duration": 0.1959,
      "velocity": 114,
      "chip": "ym2612"
    },
    {
      "channel": 1,
      "note": 81,
      "start": 61.9194,
      "duration": 0.1959,
      "velocity": 109,
      "chip": "ym2612"
    },
    {
      "channel": 2,
      "note": 83,
      "start": 61.9199,
      "duration": 0.1959,
      "velocity": 109,
      "chip": "ym2612"
    },
    {
      "channel": 3,
      "note": 88,
      "start": 61.9204,
      "duration": 0.0932,
      "velocity": 89,
      "chip": "ym2612"
    },
    {
      "channel": 4,
      "note": 85,
      "start": 61.9209,
      "duration": 0.0932,
      "velocity": 89,
      "chip": "ym2612"
    },
    {
      "channel": 3,
      "note": 86,
      "start": 62.0137,
      "duration": 0.1026,
      "velocity": 89,
      "chip": "ym2612"
    },
    {
      "channel": 4,
      "note": 83,
      "start": 62.0142,
      "duration": 0.1026,
      "velocity": 89,
      "chip": "ym2612"
    },
    {
      "channel": 0,
      "note": 52,
      "start": 62.115,
      "duration": 0.0908,
      "velocity": 127,
      "chip": "ym2612"
    },
    {
      "channel": 1,
      "note": 81,
      "start": 62.1155,
      "duration": 0.3497,
      "velocity": 109,
      "chip": "ym2612"
    },
    {
      "channel": 2,
      "note": 85,
      "start": 62.116,
      "duration": 0.3497,
      "velocity": 109,
      "chip": "ym2612"
    },
    {
      "channel": 3,
      "note": 83,
      "start": 62.1165,
      "duration": 0.1721,
      "velocity": 89,
      "chip": "ym2612"
    },
    {
      "channel": 4,
      "note": 78,
      "start": 62.117,
      "duration": 0.1721,
      "velocity": 89,
      "chip": "ym2612"
    },
    {
      "channel": 0,
      "note": 52,
      "start": 62.2059,
      "duration": 0.0821,
      "velocity": 127,
      "chip": "ym2612"
    },
    {
      "channel": 0,
      "note": 54,
      "start": 62.2883,
      "duration": 0.0869,
      "velocity": 127,
      "chip": "ym2612"
    },
    {
      "channel": 3,
      "note": 81,
      "start": 62.2888,
      "duration": 0.0869,
      "velocity": 89,
      "chip": "ym2612"
    },
    {
      "channel": 4,
      "note": 76,
      "start": 62.2894,
      "duration": 0.0869,
      "velocity": 89,
      "chip": "ym2612"
    },
    {
      "channel": 0,
      "note": 57,
      "start": 62.3753,
      "duration": 0.0894,
      "velocity": 127,
      "chip": "ym2612"
    },
    {
      "channel": 3,
      "note": 82,
      "start": 62.376,
      "duration": 0.0903,
      "velocity": 89,
      "chip": "ym2612"
    },
    {
      "channel": 4,
      "note": 77,
      "start": 62.3765,
      "duration": 0.0903,
      "velocity": 89,
      "chip": "ym2612"
    },
    {
      "channel": 0,
      "note": 59,
      "start": 62.4649,
      "duration": 0.0893,
      "velocity": 127,
      "chip": "ym2612"
    },
    {
      "channel": 1,
      "note": 81,
      "start": 62.4654,
      "duration": 0.1771,
      "velocity": 109,
      "chip": "ym2612"
    },
    {
      "channel": 2,
      "note": 86,
      "start": 62.4659,
      "duration": 0.1771,
      "velocity": 109,
      "chip": "ym2612"
    },
    {
      "channel": 3,
      "note": 83,
      "start": 62.4664,
      "duration": 0.1771,
      "velocity": 89,
      "chip": "ym2612"
    },
    {
      "channel": 4,
      "note": 78,
      "start": 62.4669,
      "duration": 0.2596,
      "velocity": 89,
      "chip": "ym2612"
    },
    {
      "channel": 0,
      "note": 62,
      "start": 62.5543,
      "duration": 0.0875,
      "velocity": 127,
      "chip": "ym2612"
    },
    {
      "channel": 0,
      "note": 59,
      "start": 62.642,
      "duration": 0.1685,
      "velocity": 114,
      "chip": "ym2612"
    },
    {
      "channel": 1,
      "note": 85,
      "start": 62.6426,
      "duration": 0.1685,
      "velocity": 109,
      "chip": "ym2612"
    },
    {
      "channel": 2,
      "note": 91,
      "start": 62.6431,
      "duration": 0.1685,
      "velocity": 109,
      "chip": "ym2612"
    },
    {
      "channel": 3,
      "note": 71,
      "start": 62.6437,
      "duration": 0.1684,
      "velocity": 89,
      "chip": "ym2612"
    },
    {
      "channel": 4,
      "note": 74,
      "start": 62.7266,
      "duration": 0.1725,
      "velocity": 89,
      "chip": "ym2612"
    },
    {
      "channel": 0,
      "note": 59,
      "start": 62.8107,
      "duration": 0.0878,
      "velocity": 127,
      "chip": "ym2612"
    },
    {
      "channel": 1,
      "note": 83,
      "start": 62.8113,
      "duration": 0.3551,
      "velocity": 109,
      "chip": "ym2612"
    },
    {
      "channel": 2,
      "note": 91,
      "start": 62.8118,
      "duration": 0.3551,
      "velocity": 109,
      "chip": "ym2612"
    },
    {
      "channel": 3,
      "note": 76,
      "start": 62.8123,
      "duration": 0.1721,
      "velocity": 89,
      "chip": "ym2612"
    },
    {
      "channel": 0,
      "note": 59,
      "start": 62.8987,
      "duration": 0.0851,
      "velocity": 127,
      "chip": "ym2612"
    },
    {
      "channel": 4,
      "note": 78,
      "start": 62.8993,
      "duration": 0.0856,
      "velocity": 89,
      "chip": "ym2612"
    },
    {
      "channel": 0,
      "note": 57,
      "start": 62.984,
      "duration": 0.1819,
      "velocity": 127,
      "chip": "ym2612"
    },
    {
      "channel": 3,
      "note": 83,
      "start": 62.9846,
      "duration": 0.1828,
      "velocity": 89,
      "chip": "ym2612"
    },
    {
      "channel": 4,
      "note": 78,
      "start": 62.9851,
      "duration": 0.1828,
      "velocity": 89,
      "chip": "ym2612"
    },
    {
      "channel": 0,
      "note": 54,
      "start": 63.1661,
      "duration": 0.1718,
      "velocity": 127,
      "chip": "ym2612"
    },
    {
      "channel": 1,
      "note": 83,
      "start": 63.1666,
      "duration": 0.7288,
      "velocity": 109,
      "chip": "ym2612"
    },
    {
      "channel": 2,
      "note": 91,
      "start": 63.1671,
      "duration": 0.7288,
      "velocity": 109,
      "chip": "ym2612"
    },
    {
      "channel": 3,
      "note": 86,
      "start": 63.1676,
      "duration": 0.1709,
      "velocity": 89,
      "chip": "ym2612"
    },
    {
      "channel": 4,
      "note": 81,
      "start": 63.1681,
      "duration": 0.1709,
      "velocity": 89,
      "chip": "ym2612"
    },
    {
      "channel": 0,
      "note": 52,
      "start": 63.338,
      "duration": 0.1959,
      "velocity": 114,
      "chip": "ym2612"
    },
    {
      "channel": 3,
      "note": 88,
      "start": 63.3387,
      "duration": 0.1959,
      "velocity": 89,
      "chip": "ym2612"
    },
    {
      "channel": 4,
      "note": 83,
      "start": 63.3392,
      "duration": 0.196,
      "velocity": 89,
      "chip": "ym2612"
    },
    {
      "channel": 0,
      "note": 52,
      "start": 63.5342,
      "duration": 0.094,
      "velocity": 127,
      "chip": "ym2612"
    },
    {
      "channel": 3,
      "note": 89,
      "start": 63.5348,
      "duration": 0.1813,
      "velocity": 89,
      "chip": "ym2612"
    },
    {
      "channel": 4,
      "note": 84,
      "start": 63.5353,
      "duration": 0.1813,
      "velocity": 89,
      "chip": "ym2612"
    },
    {
      "channel": 0,
      "note": 52,
      "start": 63.6284,
      "duration": 0.0872,
      "velocity": 127,
      "chip": "ym2612"
    },
    {
      "channel": 0,
      "note": 54,
      "start": 63.7158,
      "duration": 0.1791,
      "velocity": 127,
      "chip": "ym2612"
    },
    {
      "channel": 3,
      "note": 90,
      "start": 63.7163,
      "duration": 0.18,
      "velocity": 89,
      "chip": "ym2612"
    },
    {
      "channel": 4,
      "note": 86,
      "start": 63.7169,
      "duration": 0.18,
      "velocity": 89,
      "chip": "ym2612"
    },
    {
      "channel": 0,
      "note": 57,
      "start": 63.8951,
      "duration": 0.1764,
      "velocity": 127,
      "chip": "ym2612"
    },
    {
      "channel": 1,
      "note": 86,
      "start": 63.8956,
      "duration": 0.3441,
      "velocity": 109,
      "chip": "ym2612"
    },
    {
      "channel": 2,
      "note": 91,
      "start": 63.8961,
      "duration": 0.3441,
      "velocity": 109,
      "chip": "ym2612"
    },
    {
      "channel": 3,
      "note": 93,
      "start": 63.8966,
      "duration": 0.0867,
      "velocity": 89,
      "chip": "ym2612"
    },
    {
      "channel": 4,
      "note": 88,
      "start": 63.8971,
      "duration": 0.0867,
      "velocity": 89,
      "chip": "ym2612"
    },
    {
      "channel": 3,
      "note": 95,
      "start": 63.9834,
      "duration": 0.2573,
      "velocity": 89,
      "chip": "ym2612"
    },
    {
      "channel": 4,
      "note": 90,
      "start": 63.984,
      "duration": 0.2573,
      "velocity": 89,
      "chip": "ym2612"
    },
    {
      "channel": 0,
      "note": 59,
      "start": 64.0717,
      "duration": 0.1675,
      "velocity": 114,
      "chip": "ym2612"
    },
    {
      "channel": 0,
      "note": 59,
      "start": 64.2393,
      "duration": 0.0908,
      "velocity": 127,
      "chip": "ym2612"
    },
    {
      "channel": 1,
      "note": 86,
      "start": 64.2398,
      "duration": 0.1746,
      "velocity": 109,
      "chip": "ym2612"
    },
    {
      "channel": 2,
      "note": 91,
      "start": 64.2403,
      "duration": 0.1746,
      "velocity": 109,
      "chip": "ym2612"
    },
    {
      "channel": 3,
      "note": 93,
      "start": 64.2408,
      "duration": 0.3534,
      "velocity": 89,
      "chip": "ym2612"
    },
    {
      "channel": 4,
      "note": 88,
      "start": 64.2413,
      "duration": 0.3534,
      "velocity": 89,
      "chip": "ym2612"
    },
    {
      "channel": 0,
      "note": 59,
      "start": 64.3302,
      "duration": 0.0837,
      "velocity": 127,
      "chip": "ym2612"
    },
    {
      "channel": 0,
      "note": 57,
      "start": 64.414,
      "duration": 0.1795,
      "velocity": 127,
      "chip": "ym2612"
    },
    {
      "channel": 1,
      "note": 88,
      "start": 64.4145,
      "duration": 0.3671,
      "velocity": 109,
      "chip": "ym2612"
    },
    {
      "channel": 2,
      "note": 91,
      "start": 64.4151,
      "duration": 0.3671,
      "velocity": 109,
      "chip": "ym2612"
    },
    {
      "channel": 0,
      "note": 54,
      "start": 64.5938,
      "duration": 0.1873,
      "velocity": 127,
      "chip": "ym2612"
    },
    {
      "channel": 3,
      "note": 90,
      "start": 64.5944,
      "duration": 0.1882,
      "velocity": 89,
      "chip": "ym2612"
    },
    {
      "channel": 4,
      "note": 86,
      "start": 64.5949,
      "duration": 0.1882,
      "velocity": 89,
      "chip": "ym2612"
    },
    {
      "channel": 0,
      "note": 52,
      "start": 64.7813,
      "duration": 0.192,
      "velocity": 114,
      "chip": "ym2612"
    },
    {
      "channel": 1,
      "note": 86,
      "start": 64.7818,
      "duration": 0.192,
      "velocity": 109,
      "chip": "ym2612"
    },
    {
      "channel": 2,
      "note": 91,
      "start": 64.7823,
      "duration": 0.192,
      "velocity": 109,
      "chip": "ym2612"
    },
    {
      "channel": 3,
      "note": 88,
      "start": 64.7828,
      "duration": 0.0892,
      "velocity": 89,
      "chip": "ym2612"
    },
    {
      "channel": 4,
      "note": 83,
      "start": 64.7833,
      "duration": 0.0892,
      "velocity": 89,
      "chip": "ym2612"
    },
    {
      "channel": 3,
      "note": 90,
      "start": 64.8722,
      "duration": 0.1026,
      "velocity": 89,
      "chip": "ym2612"
    },
    {
      "channel": 4,
      "note": 86,
      "start": 64.8727,
      "duration": 0.1026,
      "velocity": 89,
      "chip": "ym2612"
    },
    {
      "channel": 0,
      "note": 52,
      "start": 64.9735,
      "duration": 0.0908,
      "velocity": 127,
      "chip": "ym2612"
    },
    {
      "channel": 1,
      "note": 85,
      "start": 64.974,
      "duration": 0.3519,
      "velocity": 109,
      "chip": "ym2612"
    },
    {
      "channel": 2,
      "note": 91,
      "start": 64.9745,
      "duration": 0.3519,
      "velocity": 109,
      "chip": "ym2612"
    },
    {
      "channel": 3,
      "note": 93,
      "start": 64.975,
      "duration": 0.1721,
      "velocity": 89,
      "chip": "ym2612"
    },
    {
      "channel": 4,
      "note": 88,
      "start": 64.9755,
      "duration": 0.1721,
      "velocity": 89,
      "chip": "ym2612"
    },
    {
      "channel": 0,
      "note": 52,
      "start": 65.0644,
      "duration": 0.0821,
      "velocity": 127,
      "chip": "ym2612"
    },
    {
      "channel": 0,
      "note": 54,
      "start": 65.1468,
      "duration": 0.1786,
      "velocity": 127,
      "chip": "ym2612"
    },
    {
      "channel": 3,
      "note": 95,
      "start": 65.1473,
      "duration": 0.0845,
      "velocity": 89,
      "chip": "ym2612"
    },
    {
      "channel": 4,
      "note": 91,
      "start": 65.1478,
      "duration": 0.0844,
      "velocity": 89,
      "chip": "ym2612"
    },
    {
      "channel": 3,
      "note": 98,
      "start": 65.232,
      "duration": 0.0949,
      "velocity": 89,
      "chip": "ym2612"
    },
    {
      "channel": 4,
      "note": 93,
      "start": 65.2325,
      "duration": 0.0949,
      "velocity": 89,
      "chip": "ym2612"
    },
    {
      "channel": 0,
      "note": 57,
      "start": 65.3256,
      "duration": 0.1758,
      "velocity": 127,
      "chip": "ym2612"
    },
    {
      "channel": 1,
      "note": 86,
      "start": 65.3261,
      "duration": 0.1757,
      "velocity": 109,
      "chip": "ym2612"
    },
    {
      "channel": 2,
      "note": 91,
      "start": 65.3266,
      "duration": 0.1757,
      "velocity": 109,
      "chip": "ym2612"
    },
    {
      "channel": 3,
      "note": 100,
      "start": 65.3271,
      "duration": 0.1758,
      "velocity": 89,
      "chip": "ym2612"
    },
    {
      "channel": 4,
      "note": 97,
      "start": 65.3276,
      "duration": 0.1758,
      "velocity": 89,
      "chip": "ym2612"
    },
    {
      "channel": 0,
      "note": 59,
      "start": 65.5015,
      "duration": 0.168,
      "velocity": 114,
      "chip": "ym2612"
    },
    {
      "channel": 1,
      "note": 88,
      "start": 65.502,
      "duration": 0.168,
      "velocity": 109,
      "chip": "ym2612"
    },
    {
      "channel": 2,
      "note": 81,
      "start": 65.5025,
      "duration": 0.168,
      "velocity": 109,
      "chip": "ym2612"
    },
    {
      "channel": 3,
      "note": 100,
      "start": 65.503,
      "duration": 0.168,
      "velocity": 89,
      "chip": "ym2612"
    },
    {
      "channel": 4,
      "note": 97,
      "start": 65.5035,
      "duration": 0.1681,
      "velocity": 89,
      "chip": "ym2612"
    },
    {
      "channel": 0,
      "note": 59,
      "start": 65.6696,
      "duration": 0.0908,
      "velocity": 127,
      "chip": "ym2612"
    },
    {
      "channel": 1,
      "note": 85,
      "start": 65.6701,
      "duration": 0.3535,
      "velocity": 109,
      "chip": "ym2612"
    },
    {
      "channel": 2,
      "note": 81,
      "start": 65.6706,
      "duration": 0.3535,
      "velocity": 109,
      "chip": "ym2612"
    },
    {
      "channel": 3,
      "note": 97,
      "start": 65.6712,
      "duration": 0.1753,
      "velocity": 89,
      "chip": "ym2612"
    },
    {
      "channel": 4,
      "note": 93,
      "start": 65.6717,
      "duration": 0.1753,
      "velocity": 89,
      "chip": "ym2612"
    },
    {
      "channel": 0,
      "note": 59,
      "start": 65.7605,
      "duration": 0.0854,
      "velocity": 127,
      "chip": "ym2612"
    },
    {
      "channel": 0,
      "note": 57,
      "start": 65.8461,
      "duration": 0.1771,
      "velocity": 127,
      "chip": "ym2612"
    },
    {
      "channel": 3,
      "note": 95,
      "start": 65.8466,
      "duration": 0.178,
      "velocity": 89,
      "chip": "ym2612"
    },
    {
      "channel": 4,
      "note": 90,
      "start": 65.8472,
      "duration": 0.178,
      "velocity": 89,
      "chip": "ym2612"
    },
    {
      "channel": 0,
      "note": 54,
      "start": 66.0233,
      "duration": 0.1705,
      "velocity": 127,
      "chip": "ym2612"
    },
    {
      "channel": 1,
      "note": 85,
      "start": 66.0238,
      "duration": 0.7241,
      "velocity": 109,
      "chip": "ym2612"
    },
    {
      "channel": 2,
      "note": 81,
      "start": 66.0244,
      "duration": 0.7241,
      "velocity": 109,
      "chip": "ym2612"
    },
    {
      "channel": 3,
      "note": 97,
      "start": 66.0249,
      "duration": 0.3615,
      "velocity": 89,
      "chip": "ym2612"
    },
    {
      "channel": 4,
      "note": 93,
      "start": 66.0254,
      "duration": 0.3615,
      "velocity": 89,
      "chip": "ym2612"
    },
    {
      "channel": 0,
      "note": 52,
      "start": 66.194,
      "duration": 0.1917,
      "velocity": 114,
      "chip": "ym2612"
    },
    {
      "channel": 0,
      "note": 52,
      "start": 66.3859,
      "duration": 0.0942,
      "velocity": 127,
      "chip": "ym2612"
    },
    {
      "channel": 3,
      "note": 93,
      "start": 66.3866,
      "duration": 0.3624,
      "velocity": 89,
      "chip": "ym2612"
    },
    {
      "channel": 4,
      "note": 90,
      "start": 66.3871,
      "duration": 0.3624,
      "velocity": 89,
      "chip": "ym2612"
    },
    {
      "channel": 0,
      "note": 52,
      "start": 66.4803,
      "duration": 0.0872,
      "velocity": 127,
      "chip": "ym2612"
    },
    {
      "channel": 0,
      "note": 54,
      "start": 66.5676,
      "duration": 0.1798,
      "velocity": 127,
      "chip": "ym2612"
    },
    {
      "channel": 0,
      "note": 57,
      "start": 66.7476,
      "duration": 0.1729,
      "velocity": 127,
      "chip": "ym2612"
    },
    {
      "channel": 1,
      "note": 88,
      "start": 66.7481,
      "duration": 0.3439,
      "velocity": 109,
      "chip": "ym2612"
    },
    {
      "channel": 2,
      "note": 81,
      "start": 66.7486,
      "duration": 0.3439,
      "velocity": 109,
      "chip": "ym2612"
    },
    {
      "channel": 3,
      "note": 90,
      "start": 66.7491,
      "duration": 0.3439,
      "velocity": 89,
      "chip": "ym2612"
    },
    {
      "channel": 4,
      "note": 86,
      "start": 66.7496,
      "duration": 0.3439,
      "velocity": 89,
      "chip": "ym2612"
    },
    {
      "channel": 0,
      "note": 59,
      "start": 66.9206,
      "duration": 0.1709,
      "velocity": 114,
      "chip": "ym2612"
    },
    {
      "channel": 0,
      "note": 59,
      "start": 67.0916,
      "duration": 0.0886,
      "velocity": 127,
      "chip": "ym2612"
    },
    {
      "channel": 1,
      "note": 88,
      "start": 67.0922,
      "duration": 0.1709,
      "velocity": 109,
      "chip": "ym2612"
    },
    {
      "channel": 2,
      "note": 81,
      "start": 67.0927,
      "duration": 0.1709,
      "velocity": 109,
      "chip": "ym2612"
    },
    {
      "channel": 3,
      "note": 88,
      "start": 67.0932,
      "duration": 0.3471,
      "velocity": 89,
      "chip": "ym2612"
    },
    {
      "channel": 4,
      "note": 85,
      "start": 67.0937,
      "duration": 0.3472,
      "velocity": 89,
      "chip": "ym2612"
    },
    {
      "channel": 0,
      "note": 59,
      "start": 67.1804,
      "duration": 0.0821,
      "velocity": 127,
      "chip": "ym2612"
    },
    {
      "channel": 0,
      "note": 57,
      "start": 67.2627,
      "duration": 0.177,
      "velocity": 127,
      "chip": "ym2612"
    },
    {
      "channel": 1,
      "note": 90,
      "start": 67.2631,
      "duration": 0.3561,
      "velocity": 109,
      "chip": "ym2612"
    },
    {
      "channel": 2,
      "note": 81,
      "start": 67.2637,
      "duration": 0.3561,
      "velocity": 109,
      "chip": "ym2612"
    },
    {
      "channel": 0,
      "note": 54,
      "start": 67.4399,
      "duration": 0.1788,
      "velocity": 127,
      "chip": "ym2612"
    },
    {
      "channel": 3,
      "note": 90,
      "start": 67.4405,
      "duration": 0.1797,
      "velocity": 89,
      "chip": "ym2612"
    },
    {
      "channel": 4,
      "note": 86,
      "start": 67.441,
      "duration": 0.1797,
      "velocity": 89,
      "chip": "ym2612"
    },
    {
      "channel": 0,
      "note": 52,
      "start": 67.6189,
      "duration": 0.192,
      "velocity": 114,
      "chip": "ym2612"
    },
    {
      "channel": 1,
      "note": 95,
      "start": 67.6194,
      "duration": 0.192,
      "velocity": 109,
      "chip": "ym2612"
    },
    {
      "channel": 2,
      "note": 81,
      "start": 67.6199,
      "duration": 0.192,
      "velocity": 109,
      "chip": "ym2612"
    },
    {
      "channel": 3,
      "note": 95,
      "start": 67.6204,
      "duration": 0.192,
      "velocity": 89,
      "chip": "ym2612"
    },
    {
      "channel": 4,
      "note": 90,
      "start": 67.6209,
      "duration": 0.192,
      "velocity": 89,
      "chip": "ym2612"
    },
    {
      "channel": 0,
      "note": 52,
      "start": 67.8111,
      "duration": 0.0908,
      "velocity": 127,
      "chip": "ym2612"
    },
    {
      "channel": 1,
      "note": 93,
      "start": 67.8116,
      "duration": 0.3532,
      "velocity": 109,
      "chip": "ym2612"
    },
    {
      "channel": 2,
      "note": 81,
      "start": 67.8121,
      "duration": 0.3532,
      "velocity": 109,
      "chip": "ym2612"
    },
    {
      "channel": 3,
      "note": 95,
      "start": 67.8126,
      "duration": 0.0899,
      "velocity": 89,
      "chip": "ym2612"
    },
    {
      "channel": 4,
      "note": 88,
      "start": 67.8131,
      "duration": 0.0899,
      "velocity": 89,
      "chip": "ym2612"
    },
    {
      "channel": 0,
      "note": 52,
      "start": 67.902,
      "duration": 0.0873,
      "velocity": 127,
      "chip": "ym2612"
    },
    {
      "channel": 3,
      "note": 95,
      "start": 67.9027,
      "duration": 0.0873,
      "velocity": 89,
      "chip": "ym2612"
    },
    {
      "channel": 4,
      "note": 90,
      "start": 67.9032,
      "duration": 0.0872,
      "velocity": 89,
      "chip": "ym2612"
    },
    {
      "channel": 0,
      "note": 54,
      "start": 67.9895,
      "duration": 0.0848,
      "velocity": 127,
      "chip": "ym2612"
    },
    {
      "channel": 3,
      "note": 93,
      "start": 67.9901,
      "duration": 0.1757,
      "velocity": 89,
      "chip": "ym2612"
    },
    {
      "channel": 4,
      "note": 88,
      "start": 67.9906,
      "duration": 0.1757,
      "velocity": 89,
      "chip": "ym2612"
    },
    {
      "channel": 0,
      "note": 57,
      "start": 68.0746,
      "duration": 0.0897,
      "velocity": 127,
      "chip": "ym2612"
    },
    {
      "channel": 0,
      "note": 59,
      "start": 68.1644,
      "duration": 0.0888,
      "velocity": 127,
      "chip": "ym2612"
    },
    {
      "channel": 1,
      "note": 90,
      "start": 68.1649,
      "duration": 0.186,
      "velocity": 89,
      "chip": "ym2612"
    },
    {
      "channel": 2,
      "note": 81,
      "start": 68.1654,
      "duration": 0.1873,
      "velocity": 127,
      "chip": "ym2612"
    },
    {
      "channel": 3,
      "note": 93,
      "start": 68.1659,
      "duration": 0.0879,
      "velocity": 89,
      "chip": "ym2612"
    },
    {
      "channel": 4,
      "note": 86,
      "start": 68.1664,
      "duration": 0.0879,
      "velocity": 89,
      "chip": "ym2612"
    },
    {
      "channel": 0,
      "note": 62,
      "start": 68.2534,
      "duration": 0.0955,
      "velocity": 117,
      "chip": "ym2612"
    },
    {
      "channel": 3,
      "note": 93,
      "start": 68.254,
      "duration": 0.0993,
      "velocity": 89,
      "chip": "ym2612"
    },
    {
      "channel": 4,
      "note": 88,
      "start": 68.2545,
      "duration": 0.1008,
      "velocity": 109,
      "chip": "ym2612"
    },
    {
      "channel": 0,
      "note": 55,
      "start": 68.3491,
      "duration": 0.3447,
      "velocity": 117,
      "chip": "ym2612"
    },
    {
      "channel": 1,
      "note": 83,
      "start": 68.351,
      "duration": 0.8721,
      "velocity": 89,
      "chip": "ym2612"
    },
    {
      "channel": 2,
      "note": 86,
      "start": 68.3529,
      "duration": 1.0413,
      "velocity": 127,
      "chip": "ym2612"
    },
    {
      "channel": 3,
      "note": 86,
      "start": 68.3535,
      "duration": 0.8702,
      "velocity": 89,
      "chip": "ym2612"
    },
    {
      "channel": 4,
      "note": 91,
      "start": 68.3554,
      "duration": 0.339,
      "velocity": 109,
      "chip": "ym2612"
    },
    {
      "channel": 0,
      "note": 67,
      "start": 68.694,
      "duration": 0.2571,
      "velocity": 117,
      "chip": "ym2612"
    },
    {
      "channel": 4,
      "note": 90,
      "start": 68.6947,
      "duration": 0.171,
      "velocity": 109,
      "chip": "ym2612"
    },
    {
      "channel": 4,
      "note": 88,
      "start": 68.8659,
      "duration": 0.1751,
      "velocity": 109,
      "chip": "ym2612"
    },
    {
      "channel": 0,
      "note": 55,
      "start": 68.9512,
      "duration": 0.0891,
      "velocity": 117,
      "chip": "ym2612"
    },
    {
      "channel": 0,
      "note": 67,
      "start": 69.0405,
      "duration": 0.1821,
      "velocity": 117,
      "chip": "ym2612"
    },
    {
      "channel": 4,
      "note": 86,
      "start": 69.0412,
      "duration": 0.183,
      "velocity": 109,
      "chip": "ym2612"
    },
    {
      "channel": 0,
      "note": 55,
      "start": 69.2228,
      "duration": 0.1704,
      "velocity": 117,
      "chip": "ym2612"
    },
    {
      "channel": 1,
      "note": 85,
      "start": 69.2233,
      "duration": 0.1705,
      "velocity": 89,
      "chip": "ym2612"
    },
    {
      "channel": 3,
      "note": 90,
      "start": 69.2239,
      "duration": 0.1709,
      "velocity": 89,
      "chip": "ym2612"
    },
    {
      "channel": 4,
      "note": 85,
      "start": 69.2244,
      "duration": 0.1709,
      "velocity": 109,
      "chip": "ym2612"
    },
    {
      "channel": 0,
      "note": 56,
      "start": 69.3934,
      "duration": 0.1816,
      "velocity": 117,
      "chip": "ym2612"
    },
    {
      "channel": 1,
      "note": 86,
      "start": 69.3939,
      "duration": 0.1817,
      "velocity": 89,
      "chip": "ym2612"
    },
    {
      "channel": 2,
      "note": 88,
      "start": 69.3944,
      "duration": 0.3574,
      "velocity": 127,
      "chip": "ym2612"
    },
    {
      "channel": 3,
      "note": 88,
      "start": 69.3949,
      "duration": 0.1812,
      "velocity": 89,
      "chip": "ym2612"
    },
    {
      "channel": 4,
      "note": 83,
      "start": 69.3954,
      "duration": 0.1812,
      "velocity": 109,
      "chip": "ym2612"
    },
    {
      "channel": 0,
      "note": 57,
      "start": 69.5752,
      "duration": 0.3467,
      "velocity": 117,
      "chip": "ym2612"
    },
    {
      "channel": 1,
      "note": 83,
      "start": 69.5757,
      "duration": 0.0882,
      "velocity": 89,
      "chip": "ym2612"
    },
    {
      "channel": 3,
      "note": 86,
      "start": 69.5763,
      "duration": 0.3467,
      "velocity": 89,
      "chip": "ym2612"
    },
    {
      "channel": 4,
      "note": 81,
      "start": 69.5768,
      "duration": 0.3467,
      "velocity": 109,
      "chip": "ym2612"
    },
    {
      "channel": 1,
      "note": 85,
      "start": 69.6641,
      "duration": 0.2584,
      "velocity": 89,
      "chip": "ym2612"
    },
    {
      "channel": 2,
      "note": 86,
      "start": 69.752,
      "duration": 0.3489,
      "velocity": 127,
      "chip": "ym2612"
    },
    {
      "channel": 0,
      "note": 57,
      "start": 69.9221,
      "duration": 0.1782,
      "velocity": 117,
      "chip": "ym2612"
    },
    {
      "channel": 1,
      "note": 81,
      "start": 69.9226,
      "duration": 0.3569,
      "velocity": 89,
      "chip": "ym2612"
    },
    {
      "channel": 3,
      "note": 85,
      "start": 69.9232,
      "duration": 0.3569,
      "velocity": 89,
      "chip": "ym2612"
    },
    {
      "channel": 4,
      "note": 86,
      "start": 69.9237,
      "duration": 0.0866,
      "velocity": 109,
      "chip": "ym2612"
    },
    {
      "channel": 4,
      "note": 85,
      "start": 70.0105,
      "duration": 0.091,
      "velocity": 109,
      "chip": "ym2612"
    },
    {
      "channel": 0,
      "note": 69,
      "start": 70.1005,
      "duration": 0.271,
      "velocity": 117,
      "chip": "ym2612"
    },
    {
      "channel": 2,
      "note": 85,
      "start": 70.101,
      "duration": 0.3565,
      "velocity": 127,
      "chip": "ym2612"
    },
    {
      "channel": 4,
      "note": 81,
      "start": 70.1016,
      "duration": 0.3565,
      "velocity": 109,
      "chip": "ym2612"
    },
    {
      "channel": 1,
      "note": 78,
      "start": 70.2797,
      "duration": 0.3664,
      "velocity": 89,
      "chip": "ym2612"
    },
    {
      "channel": 3,
      "note": 83,
      "start": 70.2803,
      "duration": 0.3664,
      "velocity": 89,
      "chip": "ym2612"
    },
    {
      "channel": 0,
      "note": 57,
      "start": 70.3717,
      "duration": 0.0852,
      "velocity": 117,
      "chip": "ym2612"
    },
    {
      "channel": 0,
      "note": 69,
      "start": 70.4571,
      "duration": 0.1885,
      "velocity": 117,
      "chip": "ym2612"
    },
    {
      "channel": 2,
      "note": 83,
      "start": 70.4576,
      "duration": 0.3669,
      "velocity": 127,
      "chip": "ym2612"
    },
    {
      "channel": 4,
      "note": 88,
      "start": 70.4582,
      "duration": 0.0876,
      "velocity": 109,
      "chip": "ym2612"
    },
    {
      "channel": 4,
      "note": 86,
      "start": 70.546,
      "duration": 0.1012,
      "velocity": 109,
      "chip": "ym2612"
    },
    {
      "channel": 0,
      "note": 57,
      "start": 70.6458,
      "duration": 0.1777,
      "velocity": 117,
      "chip": "ym2612"
    },
    {
      "channel": 1,
      "note": 76,
      "start": 70.6463,
      "duration": 0.1777,
      "velocity": 89,
      "chip": "ym2612"
    },
    {
      "channel": 3,
      "note": 81,
      "start": 70.6469,
      "duration": 0.1782,
      "velocity": 89,
      "chip": "ym2612"
    },
    {
      "channel": 4,
      "note": 81,
      "start": 70.6474,
      "duration": 0.3581,
      "velocity": 109,
      "chip": "ym2612"
    },
    {
      "channel": 0,
      "note": 58,
      "start": 70.8237,
      "duration": 0.1812,
      "velocity": 117,
      "chip": "ym2612"
    },
    {
      "channel": 1,
      "note": 78,
      "start": 70.8242,
      "duration": 0.3617,
      "velocity": 89,
      "chip": "ym2612"
    },
    {
      "channel": 2,
      "note": 81,
      "start": 70.8247,
      "duration": 0.2747,
      "velocity": 127,
      "chip": "ym2612"
    },
    {
      "channel": 3,
      "note": 83,
      "start": 70.8252,
      "duration": 0.3617,
      "velocity": 89,
      "chip": "ym2612"
    },
    {
      "channel": 0,
      "note": 59,
      "start": 71.005,
      "duration": 0.5248,
      "velocity": 117,
      "chip": "ym2612"
    },
    {
      "channel": 4,
      "note": 90,
      "start": 71.0057,
      "duration": 0.0942,
      "velocity": 109,
      "chip": "ym2612"
    },
    {
      "channel": 2,
      "note": 82,
      "start": 71.0996,
      "duration": 0.0868,
      "velocity": 127,
      "chip": "ym2612"
    },
    {
      "channel": 4,
      "note": 88,
      "start": 71.1002,
      "duration": 0.0873,
      "velocity": 109,
      "chip": "ym2612"
    },
    {
      "channel": 1,
      "note": 83,
      "start": 71.1861,
      "duration": 2.8586,
      "velocity": 89,
      "chip": "ym2612"
    },
    {
      "channel": 2,
      "note": 83,
      "start": 71.1866,
      "duration": 2.8587,
      "velocity": 127,
      "chip": "ym2612"
    },
    {
      "channel": 3,
      "note": 86,
      "start": 71.1871,
      "duration": 2.8587,
      "velocity": 89,
      "chip": "ym2612"
    },
    {
      "channel": 4,
      "note": 90,
      "start": 71.1876,
      "duration": 2.8587,
      "velocity": 109,
      "chip": "ym2612"
    },
    {
      "channel": 0,
      "note": 71,
      "start": 71.53,
      "duration": 0.2695,
      "velocity": 117,
      "chip": "ym2612"
    },
    {
      "channel": 0,
      "note": 59,
      "start": 71.7996,
      "duration": 0.0853,
      "velocity": 117,
      "chip": "ym2612"
    },
    {
      "channel": 0,
      "note": 71,
      "start": 71.8851,
      "duration": 0.1941,
      "velocity": 117,
      "chip": "ym2612"
    },
    {
      "channel": 0,
      "note": 59,
      "start": 72.0794,
      "duration": 0.1746,
      "velocity": 117,
      "chip": "ym2612"
    },
    {
      "channel": 0,
      "note": 69,
      "start": 72.2542,
      "duration": 0.0894,
      "velocity": 117,
      "chip": "ym2612"
    },
    {
      "channel": 0,
      "note": 70,
      "start": 72.3438,
      "duration": 0.0894,
      "velocity": 117,
      "chip": "ym2612"
    },
    {
      "channel": 0,
      "note": 71,
      "start": 72.4334,
      "duration": 0.3454,
      "velocity": 117,
      "chip": "ym2612"
    },
    {
      "channel": 0,
      "note": 59,
      "start": 72.7789,
      "duration": 0.182,
      "velocity": 117,
      "chip": "ym2612"
    },
    {
      "channel": 0,
      "note": 71,
      "start": 72.9611,
      "duration": 0.2712,
      "velocity": 117,
      "chip": "ym2612"
    },
    {
      "channel": 0,
      "note": 59,
      "start": 73.2324,
      "duration": 0.0854,
      "velocity": 117,
      "chip": "ym2612"
    },
    {
      "channel": 0,
      "note": 71,
      "start": 73.318,
      "duration": 0.1869,
      "velocity": 117,
      "chip": "ym2612"
    },
    {
      "channel": 0,
      "note": 59,
      "start": 73.505,
      "duration": 0.1765,
      "velocity": 117,
      "chip": "ym2612"
    },
    {
      "channel": 0,
      "note": 69,
      "start": 73.6817,
      "duration": 0.1798,
      "velocity": 117,
      "chip": "ym2612"
    },
    {
      "channel": 0,
      "note": 71,
      "start": 73.8617,
      "duration": 0.1825,
      "velocity": 117,
      "chip": "ym2612"
    },
    {
      "channel": 0,
      "note": 55,
      "start": 74.0444,
      "duration": 0.3516,
      "velocity": 117,
      "chip": "ym2612"
    },
    {
      "channel": 1,
      "note": 83,
      "start": 74.0449,
      "duration": 0.8849,
      "velocity": 89,
      "chip": "ym2612"
    },
    {
      "channel": 2,
      "note": 86,
      "start": 74.0455,
      "duration": 1.0555,
      "velocity": 127,
      "chip": "ym2612"
    },
    {
      "channel": 3,
      "note": 86,
      "start": 74.046,
      "duration": 0.8844,
      "velocity": 89,
      "chip": "ym2612"
    },
    {
      "channel": 4,
      "note": 91,
      "start": 74.0466,
      "duration": 0.35,
      "velocity": 109,
      "chip": "ym2612"
    },
    {
      "channel": 0,
      "note": 67,
      "start": 74.3961,
      "duration": 0.2562,
      "velocity": 117,
      "chip": "ym2612"
    },
    {
      "channel": 4,
      "note": 90,
      "start": 74.3968,
      "duration": 0.1702,
      "velocity": 109,
      "chip": "ym2612"
    },
    {
      "channel": 4,
      "note": 88,
      "start": 74.5671,
      "duration": 0.1744,
      "velocity": 109,
      "chip": "ym2612"
    },
    {
      "channel": 0,
      "note": 55,
      "start": 74.6524,
      "duration": 0.0885,
      "velocity": 117,
      "chip": "ym2612"
    },
    {
      "channel": 0,
      "note": 67,
      "start": 74.7411,
      "duration": 0.1882,
      "velocity": 117,
      "chip": "ym2612"
    },
    {
      "channel": 4,
      "note": 86,
      "start": 74.7417,
      "duration": 0.1892,
      "velocity": 109,
      "chip": "ym2612"
    },
    {
      "channel": 0,
      "note": 55,
      "start": 74.9295,
      "duration": 0.1705,
      "velocity": 117,
      "chip": "ym2612"
    },
    {
      "channel": 1,
      "note": 85,
      "start": 74.93,
      "duration": 0.1705,
      "velocity": 89,
      "chip": "ym2612"
    },
    {
      "channel": 3,
      "note": 90,
      "start": 74.9306,
      "duration": 0.1709,
      "velocity": 89,
      "chip": "ym2612"
    },
    {
      "channel": 4,
      "note": 85,
      "start": 74.9311,
      "duration": 0.1709,
      "velocity": 109,
      "chip": "ym2612"
    },
    {
      "channel": 0,
      "note": 56,
      "start": 75.1001,
      "duration": 0.184,
      "velocity": 117,
      "chip": "ym2612"
    },
    {
      "channel": 1,
      "note": 86,
      "start": 75.1006,
      "duration": 0.184,
      "velocity": 89,
      "chip": "ym2612"
    },
    {
      "channel": 2,
      "note": 88,
      "start": 75.1012,
      "duration": 0.3598,
      "velocity": 127,
      "chip": "ym2612"
    },
    {
      "channel": 3,
      "note": 88,
      "start": 75.1017,
      "duration": 0.1836,
      "velocity": 89,
      "chip": "ym2612"
    },
    {
      "channel": 4,
      "note": 83,
      "start": 75.1022,
      "duration": 0.1836,
      "velocity": 109,
      "chip": "ym2612"
    },
    {
      "channel": 0,
      "note": 57,
      "start": 75.2844,
      "duration": 0.3452,
      "velocity": 117,
      "chip": "ym2612"
    },
    {
      "channel": 1,
      "note": 83,
      "start": 75.2849,
      "duration": 0.0882,
      "velocity": 89,
      "chip": "ym2612"
    },
    {
      "channel": 3,
      "note": 86,
      "start": 75.2854,
      "duration": 0.3452,
      "velocity": 89,
      "chip": "ym2612"
    },
    {
      "channel": 4,
      "note": 81,
      "start": 75.2859,
      "duration": 0.3452,
      "velocity": 109,
      "chip": "ym2612"
    },
    {
      "channel": 1,
      "note": 85,
      "start": 75.3732,
      "duration": 0.2569,
      "velocity": 89,
      "chip": "ym2612"
    },
    {
      "channel": 2,
      "note": 86,
      "start": 75.4611,
      "duration": 0.3463,
      "velocity": 127,
      "chip": "ym2612"
    },
    {
      "channel": 0,
      "note": 57,
      "start": 75.6298,
      "duration": 0.1771,
      "velocity": 117,
      "chip": "ym2612"
    },
    {
      "channel": 1,
      "note": 81,
      "start": 75.6303,
      "duration": 0.3548,
      "velocity": 89,
      "chip": "ym2612"
    },
    {
      "channel": 3,
      "note": 85,
      "start": 75.6308,
      "duration": 0.3548,
      "velocity": 89,
      "chip": "ym2612"
    },
    {
      "channel": 4,
      "note": 86,
      "start": 75.6314,
      "duration": 0.0886,
      "velocity": 109,
      "chip": "ym2612"
    },
    {
      "channel": 4,
      "note": 85,
      "start": 75.7201,
      "duration": 0.0878,
      "velocity": 109,
      "chip": "ym2612"
    },
    {
      "channel": 0,
      "note": 69,
      "start": 75.8071,
      "duration": 0.2684,
      "velocity": 117,
      "chip": "ym2612"
    },
    {
      "channel": 2,
      "note": 85,
      "start": 75.8076,
      "duration": 0.3539,
      "velocity": 127,
      "chip": "ym2612"
    },
    {
      "channel": 4,
      "note": 81,
      "start": 75.8082,
      "duration": 0.3539,
      "velocity": 109,
      "chip": "ym2612"
    },
    {
      "channel": 1,
      "note": 78,
      "start": 75.9853,
      "duration": 0.3634,
      "velocity": 89,
      "chip": "ym2612"
    },
    {
      "channel": 3,
      "note": 83,
      "start": 75.9858,
      "duration": 0.3634,
      "velocity": 89,
      "chip": "ym2612"
    },
    {
      "channel": 0,
      "note": 57,
      "start": 76.0756,
      "duration": 0.0853,
      "velocity": 117,
      "chip": "ym2612"
    },
    {
      "channel": 0,
      "note": 69,
      "start": 76.1611,
      "duration": 0.187,
      "velocity": 117,
      "chip": "ym2612"
    },
    {
      "channel": 2,
      "note": 86,
      "start": 76.1616,
      "duration": 0.359,
      "velocity": 127,
      "chip": "ym2612"
    },
    {
      "channel": 4,
      "note": 88,
      "start": 76.1622,
      "duration": 0.0861,
      "velocity": 109,
      "chip": "ym2612"
    },
    {
      "channel": 4,
      "note": 86,
      "start": 76.2485,
      "duration": 0.1012,
      "velocity": 109,
      "chip": "ym2612"
    },
    {
      "channel": 0,
      "note": 57,
      "start": 76.3483,
      "duration": 0.1713,
      "velocity": 117,
      "chip": "ym2612"
    },
    {
      "channel": 1,
      "note": 76,
      "start": 76.3488,
      "duration": 0.1713,
      "velocity": 89,
      "chip": "ym2612"
    },
    {
      "channel": 3,
      "note": 81,
      "start": 76.3494,
      "duration": 0.1717,
      "velocity": 89,
      "chip": "ym2612"
    },
    {
      "channel": 4,
      "note": 81,
      "start": 76.3499,
      "duration": 0.3498,
      "velocity": 109,
      "chip": "ym2612"
    },
    {
      "channel": 0,
      "note": 58,
      "start": 76.5198,
      "duration": 0.1792,
      "velocity": 117,
      "chip": "ym2612"
    },
    {
      "channel": 1,
      "note": 78,
      "start": 76.5203,
      "duration": 0.3589,
      "velocity": 89,
      "chip": "ym2612"
    },
    {
      "channel": 2,
      "note": 88,
      "start": 76.5209,
      "duration": 0.2681,
      "velocity": 127,
      "chip": "ym2612"
    },
    {
      "channel": 3,
      "note": 83,
      "start": 76.5214,
      "duration": 0.3589,
      "velocity": 89,
      "chip": "ym2612"
    },
    {
      "channel": 0,
      "note": 59,
      "start": 76.6992,
      "duration": 0.5189,
      "velocity": 117,
      "chip": "ym2612"
    },
    {
      "channel": 4,
      "note": 90,
      "start": 76.6998,
      "duration": 0.0897,
      "velocity": 109,
      "chip": "ym2612"
    },
    {
      "channel": 2,
      "note": 89,
      "start": 76.7892,
      "duration": 0.0906,
      "velocity": 127,
      "chip": "ym2612"
    },
    {
      "channel": 4,
      "note": 88,
      "start": 76.7898,
      "duration": 0.091,
      "velocity": 109,
      "chip": "ym2612"
    },
    {
      "channel": 1,
      "note": 83,
      "start": 76.8794,
      "duration": 2.8115,
      "velocity": 89,
      "chip": "ym2612"
    },
    {
      "channel": 2,
      "note": 90,
      "start": 76.8799,
      "duration": 2.0997,
      "velocity": 120,
      "chip": "ym2612"
    },
    {
      "channel": 3,
      "note": 86,
      "start": 76.8804,
      "duration": 2.813,
      "velocity": 89,
      "chip": "ym2612"
    },
    {
      "channel": 4,
      "note": 90,
      "start": 76.8809,
      "duration": 2.813,
      "velocity": 109,
      "chip": "ym2612"
    },
    {
      "channel": 0,
      "note": 71,
      "start": 77.2183,
      "duration": 0.2662,
      "velocity": 117,
      "chip": "ym2612"
    },
    {
      "channel": 0,
      "note": 59,
      "start": 77.4847,
      "duration": 0.0853,
      "velocity": 117,
      "chip": "ym2612"
    },
    {
      "channel": 0,
      "note": 71,
      "start": 77.5702,
      "duration": 0.1918,
      "velocity": 117,
      "chip": "ym2612"
    },
    {
      "channel": 0,
      "note": 59,
      "start": 77.7622,
      "duration": 0.1722,
      "velocity": 117,
      "chip": "ym2612"
    },
    {
      "channel": 0,
      "note": 69,
      "start": 77.9346,
      "duration": 0.0834,
      "velocity": 117,
      "chip": "ym2612"
    },
    {
      "channel": 0,
      "note": 70,
      "start": 78.0182,
      "duration": 0.0895,
      "velocity": 117,
      "chip": "ym2612"
    },
    {
      "channel": 0,
      "note": 71,
      "start": 78.1078,
      "duration": 0.3473,
      "velocity": 117,
      "chip": "ym2612"
    },
    {
      "channel": 0,
      "note": 59,
      "start": 78.4553,
      "duration": 0.1725,
      "velocity": 117,
      "chip": "ym2612"
    },
    {
      "channel": 0,
      "note": 71,
      "start": 78.628,
      "duration": 0.2641,
      "velocity": 117,
      "chip": "ym2612"
    },
    {
      "channel": 0,
      "note": 59,
      "start": 78.8923,
      "duration": 0.0853,
      "velocity": 117,
      "chip": "ym2612"
    },
    {
      "channel": 0,
      "note": 71,
      "start": 78.9777,
      "duration": 0.1918,
      "velocity": 117,
      "chip": "ym2612"
    },
    {
      "channel": 2,
      "note": 83,
      "start": 78.9797,
      "duration": 0.09,
      "velocity": 120,
      "chip": "ym2612"
    },
    {
      "channel": 2,
      "note": 81,
      "start": 79.0699,
      "duration": 0.1002,
      "velocity": 120,
      "chip": "ym2612"
    },
    {
      "channel": 0,
      "note": 59,
      "start": 79.1698,
      "duration": 0.1729,
      "velocity": 117,
      "chip": "ym2612"
    },
    {
      "channel": 2,
      "note": 78,
      "start": 79.1703,
      "duration": 0.0871,
      "velocity": 120,
      "chip": "ym2612"
    },
    {
      "channel": 2,
      "note": 76,
      "start": 79.2576,
      "duration": 0.0856,
      "velocity": 120,
      "chip": "ym2612"
    },
    {
      "channel": 0,
      "note": 69,
      "start": 79.3428,
      "duration": 0.1722,
      "velocity": 117,
      "chip": "ym2612"
    },
    {
      "channel": 2,
      "note": 74,
      "start": 79.3434,
      "duration": 0.0809,
      "velocity": 120,
      "chip": "ym2612"
    },
    {
      "channel": 2,
      "note": 76,
      "start": 79.4245,
      "duration": 0.0911,
      "velocity": 120,
      "chip": "ym2612"
    },
    {
      "channel": 0,
      "note": 71,
      "start": 79.5152,
      "duration": 0.1751,
      "velocity": 117,
      "chip": "ym2612"
    },
    {
      "channel": 2,
      "note": 78,
      "start": 79.5158,
      "duration": 0.0887,
      "velocity": 120,
      "chip": "ym2612"
    },
    {
      "channel": 2,
      "note": 83,
      "start": 79.6046,
      "duration": 0.0882,
      "velocity": 127,
      "chip": "ym2612"
    },
    {
      "channel": 0,
      "note": 55,
      "start": 79.6905,
      "duration": 0.3515,
      "velocity": 117,
      "chip": "ym2612"
    },
    {
      "channel": 1,
      "note": 83,
      "start": 79.6911,
      "duration": 0.8983,
      "velocity": 89,
      "chip": "ym2612"
    },
    {
      "channel": 2,
      "note": 86,
      "start": 79.693,
      "duration": 1.0675,
      "velocity": 127,
      "chip": "ym2612"
    },
    {
      "channel": 3,
      "note": 86,
      "start": 79.6935,
      "duration": 0.8963,
      "velocity": 89,
      "chip": "ym2612"
    },
    {
      "channel": 4,
      "note": 91,
      "start": 79.6941,
      "duration": 0.3485,
      "velocity": 109,
      "chip": "ym2612"
    },
    {
      "channel": 0,
      "note": 67,
      "start": 80.0422,
      "duration": 0.2668,
      "velocity": 117,
      "chip": "ym2612"
    },
    {
      "channel": 4,
      "note": 90,
      "start": 80.0428,
      "duration": 0.1809,
      "velocity": 109,
      "chip": "ym2612"
    },
    {
      "channel": 4,
      "note": 88,
      "start": 80.2239,
      "duration": 0.1714,
      "velocity": 109,
      "chip": "ym2612"
    },
    {
      "channel": 0,
      "note": 55,
      "start": 80.3091,
      "duration": 0.0855,
      "velocity": 117,
      "chip": "ym2612"
    },
    {
      "channel": 0,
      "note": 67,
      "start": 80.3948,
      "duration": 0.194,
      "velocity": 117,
      "chip": "ym2612"
    },
    {
      "channel": 4,
      "note": 86,
      "start": 80.3955,
      "duration": 0.1949,
      "velocity": 109,
      "chip": "ym2612"
    },
    {
      "channel": 0,
      "note": 55,
      "start": 80.589,
      "duration": 0.1705,
      "velocity": 117,
      "chip": "ym2612"
    },
    {
      "channel": 1,
      "note": 85,
      "start": 80.5895,
      "duration": 0.1705,
      "velocity": 89,
      "chip": "ym2612"
    },
    {
      "channel": 3,
      "note": 90,
      "start": 80.5901,
      "duration": 0.171,
      "velocity": 89,
      "chip": "ym2612"
    },
    {
      "channel": 4,
      "note": 85,
      "start": 80.5906,
      "duration": 0.171,
      "velocity": 109,
      "chip": "ym2612"
    },
    {
      "channel": 0,
      "note": 56,
      "start": 80.7596,
      "duration": 0.1805,
      "velocity": 117,
      "chip": "ym2612"
    },
    {
      "channel": 1,
      "note": 86,
      "start": 80.7601,
      "duration": 0.1805,
      "velocity": 89,
      "chip": "ym2612"
    },
    {
      "channel": 2,
      "note": 88,
      "start": 80.7607,
      "duration": 0.3599,
      "velocity": 127,
      "chip": "ym2612"
    },
    {
      "channel": 3,
      "note": 88,
      "start": 80.7612,
      "duration": 0.18,
      "velocity": 89,
      "chip": "ym2612"
    },
    {
      "channel": 4,
      "note": 83,
      "start": 80.7617,
      "duration": 0.18,
      "velocity": 109,
      "chip": "ym2612"
    },
    {
      "channel": 0,
      "note": 57,
      "start": 80.9403,
      "duration": 0.3504,
      "velocity": 117,
      "chip": "ym2612"
    },
    {
      "channel": 1,
      "note": 83,
      "start": 80.9408,
      "duration": 0.0899,
      "velocity": 89,
      "chip": "ym2612"
    },
    {
      "channel": 3,
      "note": 86,
      "start": 80.9414,
      "duration": 0.3504,
      "velocity": 89,
      "chip": "ym2612"
    },
    {
      "channel": 4,
      "note": 81,
      "start": 80.9419,
      "duration": 0.3504,
      "velocity": 109,
      "chip": "ym2612"
    },
    {
      "channel": 1,
      "note": 85,
      "start": 81.0309,
      "duration": 0.2603,
      "velocity": 89,
      "chip": "ym2612"
    },
    {
      "channel": 2,
      "note": 86,
      "start": 81.1207,
      "duration": 0.349,
      "velocity": 127,
      "chip": "ym2612"
    },
    {
      "channel": 0,
      "note": 57,
      "start": 81.2909,
      "duration": 0.1783,
      "velocity": 117,
      "chip": "ym2612"
    },
    {
      "channel": 1,
      "note": 81,
      "start": 81.2914,
      "duration": 0.355,
      "velocity": 89,
      "chip": "ym2612"
    },
    {
      "channel": 3,
      "note": 85,
      "start": 81.2919,
      "duration": 0.355,
      "velocity": 89,
      "chip": "ym2612"
    },
    {
      "channel": 4,
      "note": 86,
      "start": 81.2924,
      "duration": 0.0866,
      "velocity": 109,
      "chip": "ym2612"
    },
    {
      "channel": 4,
      "note": 85,
      "start": 81.3792,
      "duration": 0.091,
      "velocity": 109,
      "chip": "ym2612"
    },
    {
      "channel": 0,
      "note": 69,
      "start": 81.4693,
      "duration": 0.2602,
      "velocity": 117,
      "chip": "ym2612"
    },
    {
      "channel": 2,
      "note": 85,
      "start": 81.4698,
      "duration": 0.3477,
      "velocity": 127,
      "chip": "ym2612"
    },
    {
      "channel": 4,
      "note": 81,
      "start": 81.4704,
      "duration": 0.3476,
      "velocity": 109,
      "chip": "ym2612"
    },
    {
      "channel": 1,
      "note": 78,
      "start": 81.6466,
      "duration": 0.3591,
      "velocity": 89,
      "chip": "ym2612"
    },
    {
      "channel": 3,
      "note": 83,
      "start": 81.6471,
      "duration": 0.3591,
      "velocity": 89,
      "chip": "ym2612"
    },
    {
      "channel": 0,
      "note": 57,
      "start": 81.7297,
      "duration": 0.0872,
      "velocity": 117,
      "chip": "ym2612"
    },
    {
      "channel": 0,
      "note": 69,
      "start": 81.8171,
      "duration": 0.188,
      "velocity": 117,
      "chip": "ym2612"
    },
    {
      "channel": 2,
      "note": 83,
      "start": 81.8176,
      "duration": 0.3664,
      "velocity": 127,
      "chip": "ym2612"
    },
    {
      "channel": 4,
      "note": 88,
      "start": 81.8182,
      "duration": 0.0871,
      "velocity": 109,
      "chip": "ym2612"
    },
    {
      "channel": 4,
      "note": 86,
      "start": 81.9055,
      "duration": 0.1012,
      "velocity": 109,
      "chip": "ym2612"
    },
    {
      "channel": 0,
      "note": 57,
      "start": 82.0054,
      "duration": 0.1777,
      "velocity": 117,
      "chip": "ym2612"
    },
    {
      "channel": 1,
      "note": 76,
      "start": 82.0059,
      "duration": 0.1777,
      "velocity": 89,
      "chip": "ym2612"
    },
    {
      "channel": 3,
      "note": 81,
      "start": 82.0064,
      "duration": 0.1782,
      "velocity": 89,
      "chip": "ym2612"
    },
    {
      "channel": 4,
      "note": 81,
      "start": 82.0069,
      "duration": 0.3581,
      "velocity": 109,
      "chip": "ym2612"
    },
    {
      "channel": 0,
      "note": 58,
      "start": 82.1833,
      "duration": 0.1812,
      "velocity": 117,
      "chip": "ym2612"
    },
    {
      "channel": 1,
      "note": 78,
      "start": 82.1838,
      "duration": 0.3638,
      "velocity": 89,
      "chip": "ym2612"
    },
    {
      "channel": 2,
      "note": 81,
      "start": 82.1843,
      "duration": 0.2748,
      "velocity": 127,
      "chip": "ym2612"
    },
    {
      "channel": 3,
      "note": 83,
      "start": 82.1848,
      "duration": 0.3638,
      "velocity": 89,
      "chip": "ym2612"
    },
    {
      "channel": 0,
      "note": 59,
      "start": 82.3646,
      "duration": 0.5324,
      "velocity": 117,
      "chip": "ym2612"
    },
    {
      "channel": 4,
      "note": 90,
      "start": 82.3653,
      "duration": 0.0944,
      "velocity": 109,
      "chip": "ym2612"
    },
    {
      "channel": 2,
      "note": 82,
      "start": 82.4592,
      "duration": 0.0889,
      "velocity": 127,
      "chip": "ym2612"
    },
    {
      "channel": 4,
      "note": 88,
      "start": 82.4598,
      "duration": 0.0893,
      "velocity": 109,
      "chip": "ym2612"
    },
    {
      "channel": 1,
      "note": 83,
      "start": 82.5478,
      "duration": 2.8432,
      "velocity": 89,
      "chip": "ym2612"
    },
    {
      "channel": 2,
      "note": 83,
      "start": 82.5483,
      "duration": 2.8433,
      "velocity": 127,
      "chip": "ym2612"
    },
    {
      "channel": 3,
      "note": 86,
      "start": 82.5488,
      "duration": 2.8433,
      "velocity": 89,
      "chip": "ym2612"
    },
    {
      "channel": 4,
      "note": 90,
      "start": 82.5493,
      "duration": 2.8433,
      "velocity": 109,
      "chip": "ym2612"
    },
    {
      "channel": 0,
      "note": 71,
      "start": 82.8972,
      "duration": 0.2755,
      "velocity": 117,
      "chip": "ym2612"
    },
    {
      "channel": 0,
      "note": 59,
      "start": 83.1729,
      "duration": 0.0863,
      "velocity": 117,
      "chip": "ym2612"
    },
    {
      "channel": 0,
      "note": 71,
      "start": 83.2594,
      "duration": 0.1845,
      "velocity": 117,
      "chip": "ym2612"
    },
    {
      "channel": 0,
      "note": 59,
      "start": 83.4441,
      "duration": 0.1711,
      "velocity": 117,
      "chip": "ym2612"
    },
    {
      "channel": 0,
      "note": 69,
      "start": 83.6154,
      "duration": 0.0846,
      "velocity": 117,
      "chip": "ym2612"
    },
    {
      "channel": 0,
      "note": 70,
      "start": 83.7001,
      "duration": 0.0918,
      "velocity": 117,
      "chip": "ym2612"
    },
    {
      "channel": 0,
      "note": 71,
      "start": 83.7921,
      "duration": 0.3456,
      "velocity": 117,
      "chip": "ym2612"
    },
    {
      "channel": 0,
      "note": 59,
      "start": 84.1379,
      "duration": 0.1743,
      "velocity": 117,
      "chip": "ym2612"
    },
    {
      "channel": 0,
      "note": 71,
      "start": 84.3124,
      "duration": 0.27,
      "velocity": 117,
      "chip": "ym2612"
    },
    {
      "channel": 0,
      "note": 59,
      "start": 84.5826,
      "duration": 0.0853,
      "velocity": 117,
      "chip": "ym2612"
    },
    {
      "channel": 0,
      "note": 71,
      "start": 84.668,
      "duration": 0.1904,
      "velocity": 117,
      "chip": "ym2612"
    },
    {
      "channel": 0,
      "note": 59,
      "start": 84.8586,
      "duration": 0.1722,
      "velocity": 117,
      "chip": "ym2612"
    },
    {
      "channel": 0,
      "note": 69,
      "start": 85.031,
      "duration": 0.1818,
      "velocity": 117,
      "chip": "ym2612"
    },
    {
      "channel": 0,
      "note": 71,
      "start": 85.213,
      "duration": 0.1775,
      "velocity": 117,
      "chip": "ym2612"
    },
    {
      "channel": 0,
      "note": 55,
      "start": 85.3907,
      "duration": 0.3461,
      "velocity": 117,
      "chip": "ym2612"
    },
    {
      "channel": 1,
      "note": 83,
      "start": 85.3912,
      "duration": 0.8927,
      "velocity": 89,
      "chip": "ym2612"
    },
    {
      "channel": 2,
      "note": 86,
      "start": 85.3918,
      "duration": 1.0718,
      "velocity": 127,
      "chip": "ym2612"
    },
    {
      "channel": 3,
      "note": 86,
      "start": 85.3923,
      "duration": 0.8922,
      "velocity": 89,
      "chip": "ym2612"
    },
    {
      "channel": 4,
      "note": 91,
      "start": 85.3929,
      "duration": 0.3446,
      "velocity": 109,
      "chip": "ym2612"
    },
    {
      "channel": 0,
      "note": 67,
      "start": 85.737,
      "duration": 0.2695,
      "velocity": 117,
      "chip": "ym2612"
    },
    {
      "channel": 4,
      "note": 90,
      "start": 85.7377,
      "duration": 0.1835,
      "velocity": 109,
      "chip": "ym2612"
    },
    {
      "channel": 4,
      "note": 88,
      "start": 85.9213,
      "duration": 0.1744,
      "velocity": 109,
      "chip": "ym2612"
    },
    {
      "channel": 0,
      "note": 55,
      "start": 86.0066,
      "duration": 0.0884,
      "velocity": 117,
      "chip": "ym2612"
    },
    {
      "channel": 0,
      "note": 67,
      "start": 86.0952,
      "duration": 0.1882,
      "velocity": 117,
      "chip": "ym2612"
    },
    {
      "channel": 4,
      "note": 86,
      "start": 86.0959,
      "duration": 0.1892,
      "velocity": 109,
      "chip": "ym2612"
    },
    {
      "channel": 0,
      "note": 55,
      "start": 86.2836,
      "duration": 0.1789,
      "velocity": 117,
      "chip": "ym2612"
    },
    {
      "channel": 1,
      "note": 85,
      "start": 86.2841,
      "duration": 0.179,
      "velocity": 89,
      "chip": "ym2612"
    },
    {
      "channel": 3,
      "note": 90,
      "start": 86.2847,
      "duration": 0.1794,
      "velocity": 89,
      "chip": "ym2612"
    },
    {
      "channel": 4,
      "note": 85,
      "start": 86.2852,
      "duration": 0.1794,
      "velocity": 109,
      "chip": "ym2612"
    },
    {
      "channel": 0,
      "note": 56,
      "start": 86.4627,
      "duration": 0.1846,
      "velocity": 117,
      "chip": "ym2612"
    },
    {
      "channel": 1,
      "note": 86,
      "start": 86.4632,
      "duration": 0.1846,
      "velocity": 89,
      "chip": "ym2612"
    },
    {
      "channel": 2,
      "note": 88,
      "start": 86.4637,
      "duration": 0.3593,
      "velocity": 127,
      "chip": "ym2612"
    },
    {
      "channel": 3,
      "note": 88,
      "start": 86.4642,
      "duration": 0.1842,
      "velocity": 89,
      "chip": "ym2612"
    },
    {
      "channel": 4,
      "note": 86,
      "start": 86.4647,
      "duration": 0.0866,
      "velocity": 109,
      "chip": "ym2612"
    },
    {
      "channel": 4,
      "note": 88,
      "start": 86.5515,
      "duration": 0.0974,
      "velocity": 109,
      "chip": "ym2612"
    },
    {
      "channel": 0,
      "note": 57,
      "start": 86.6475,
      "duration": 0.3462,
      "velocity": 117,
      "chip": "ym2612"
    },
    {
      "channel": 1,
      "note": 83,
      "start": 86.648,
      "duration": 0.0879,
      "velocity": 89,
      "chip": "ym2612"
    },
    {
      "channel": 3,
      "note": 86,
      "start": 86.6486,
      "duration": 0.3462,
      "velocity": 89,
      "chip": "ym2612"
    },
    {
      "channel": 4,
      "note": 90,
      "start": 86.6491,
      "duration": 0.3462,
      "velocity": 109,
      "chip": "ym2612"
    },
    {
      "channel": 1,
      "note": 85,
      "start": 86.7361,
      "duration": 0.2581,
      "velocity": 89,
      "chip": "ym2612"
    },
    {
      "channel": 2,
      "note": 86,
      "start": 86.8232,
      "duration": 0.3495,
      "velocity": 127,
      "chip": "ym2612"
    },
    {
      "channel": 0,
      "note": 57,
      "start": 86.9939,
      "duration": 0.1783,
      "velocity": 117,
      "chip": "ym2612"
    },
    {
      "channel": 1,
      "note": 81,
      "start": 86.9944,
      "duration": 0.355,
      "velocity": 89,
      "chip": "ym2612"
    },
    {
      "channel": 3,
      "note": 85,
      "start": 86.995,
      "duration": 0.3551,
      "velocity": 89,
      "chip": "ym2612"
    },
    {
      "channel": 4,
      "note": 83,
      "start": 86.9955,
      "duration": 0.0866,
      "velocity": 109,
      "chip": "ym2612"
    },
    {
      "channel": 4,
      "note": 81,
      "start": 87.0823,
      "duration": 0.091,
      "velocity": 109,
      "chip": "ym2612"
    },
    {
      "channel": 0,
      "note": 69,
      "start": 87.1724,
      "duration": 0.2602,
      "velocity": 117,
      "chip": "ym2612"
    },
    {
      "channel": 2,
      "note": 85,
      "start": 87.1729,
      "duration": 0.3456,
      "velocity": 127,
      "chip": "ym2612"
    },
    {
      "channel": 4,
      "note": 83,
      "start": 87.1735,
      "duration": 0.3456,
      "velocity": 109,
      "chip": "ym2612"
    },
    {
      "channel": 1,
      "note": 78,
      "start": 87.3496,
      "duration": 0.3571,
      "velocity": 89,
      "chip": "ym2612"
    },
    {
      "channel": 3,
      "note": 83,
      "start": 87.3502,
      "duration": 0.3571,
      "velocity": 89,
      "chip": "ym2612"
    },
    {
      "channel": 0,
      "note": 57,
      "start": 87.4328,
      "duration": 0.0852,
      "velocity": 117,
      "chip": "ym2612"
    },
    {
      "channel": 0,
      "note": 69,
      "start": 87.5182,
      "duration": 0.188,
      "velocity": 117,
      "chip": "ym2612"
    },
    {
      "channel": 2,
      "note": 83,
      "start": 87.5187,
      "duration": 0.3632,
      "velocity": 127,
      "chip": "ym2612"
    },
    {
      "channel": 4,
      "note": 83,
      "start": 87.5193,
      "duration": 0.0871,
      "velocity": 109,
      "chip": "ym2612"
    },
    {
      "channel": 4,
      "note": 85,
      "start": 87.6066,
      "duration": 0.1012,
      "velocity": 109,
      "chip": "ym2612"
    },
    {
      "channel": 0,
      "note": 57,
      "start": 87.7064,
      "duration": 0.1745,
      "velocity": 117,
      "chip": "ym2612"
    },
    {
      "channel": 1,
      "note": 76,
      "start": 87.7069,
      "duration": 0.1745,
      "velocity": 89,
      "chip": "ym2612"
    },
    {
      "channel": 3,
      "note": 81,
      "start": 87.7075,
      "duration": 0.175,
      "velocity": 89,
      "chip": "ym2612"
    },
    {
      "channel": 4,
      "note": 86,
      "start": 87.708,
      "duration": 0.0845,
      "velocity": 109,
      "chip": "ym2612"
    },
    {
      "channel": 4,
      "note": 88,
      "start": 87.7927,
      "duration": 0.0902,
      "velocity": 109,
      "chip": "ym2612"
    },
    {
      "channel": 0,
      "note": 58,
      "start": 87.8811,
      "duration": 0.1843,
      "velocity": 117,
      "chip": "ym2612"
    },
    {
      "channel": 1,
      "note": 78,
      "start": 87.8816,
      "duration": 0.3586,
      "velocity": 89,
      "chip": "ym2612"
    },
    {
      "channel": 2,
      "note": 81,
      "start": 87.8821,
      "duration": 0.3586,
      "velocity": 127,
      "chip": "ym2612"
    },
    {
      "channel": 3,
      "note": 83,
      "start": 87.8826,
      "duration": 0.3586,
      "velocity": 89,
      "chip": "ym2612"
    },
    {
      "channel": 4,
      "note": 90,
      "start": 87.8831,
      "duration": 0.0862,
      "velocity": 109,
      "chip": "ym2612"
    },
    {
      "channel": 4,
      "note": 88,
      "start": 87.9695,
      "duration": 0.0966,
      "velocity": 109,
      "chip": "ym2612"
    },
    {
      "channel": 0,
      "note": 59,
      "start": 88.0656,
      "duration": 0.1741,
      "velocity": 117,
      "chip": "ym2612"
    },
    {
      "channel": 4,
      "note": 86,
      "start": 88.0663,
      "duration": 0.0874,
      "velocity": 109,
      "chip": "ym2612"
    },
    {
      "channel": 4,
      "note": 85,
      "start": 88.1539,
      "duration": 0.0878,
      "velocity": 109,
      "chip": "ym2612"
    },
    {
      "channel": 0,
      "note": 55,
      "start": 88.2399,
      "duration": 0.3473,
      "velocity": 117,
      "chip": "ym2612"
    },
    {
      "channel": 1,
      "note": 86,
      "start": 88.2404,
      "duration": 0.5177,
      "velocity": 89,
      "chip": "ym2612"
    },
    {
      "channel": 2,
      "note": 79,
      "start": 88.2409,
      "duration": 0.5177,
      "velocity": 127,
      "chip": "ym2612"
    },
    {
      "channel": 3,
      "note": 83,
      "start": 88.2414,
      "duration": 0.5177,
      "velocity": 89,
      "chip": "ym2612"
    },
    {
      "channel": 4,
      "note": 79,
      "start": 88.2419,
      "duration": 0.0861,
      "velocity": 109,
      "chip": "ym2612"
    },
    {
      "channel": 4,
      "note": 83,
      "start": 88.3282,
      "duration": 0.0898,
      "velocity": 109,
      "chip": "ym2612"
    },
    {
      "channel": 4,
      "note": 86,
      "start": 88.4182,
      "duration": 0.3414,
      "velocity": 109,
      "chip": "ym2612"
    },
    {
      "channel": 0,
      "note": 67,
      "start": 88.5873,
      "duration": 0.2614,
      "velocity": 117,
      "chip": "ym2612"
    },
    {
      "channel": 1,
      "note": 88,
      "start": 88.7583,
      "duration": 0.8801,
      "velocity": 89,
      "chip": "ym2612"
    },
    {
      "channel": 2,
      "note": 81,
      "start": 88.7588,
      "duration": 0.8801,
      "velocity": 127,
      "chip": "ym2612"
    },
    {
      "channel": 3,
      "note": 85,
      "start": 88.7593,
      "duration": 0.8801,
      "velocity": 89,
      "chip": "ym2612"
    },
    {
      "channel": 4,
      "note": 81,
      "start": 88.7598,
      "duration": 0.0895,
      "velocity": 109,
      "chip": "ym2612"
    },
    {
      "channel": 0,
      "note": 55,
      "start": 88.8489,
      "duration": 0.0897,
      "velocity": 117,
      "chip": "ym2612"
    },
    {
      "channel": 4,
      "note": 85,
      "start": 88.8495,
      "duration": 0.0898,
      "velocity": 109,
      "chip": "ym2612"
    },
    {
      "channel": 0,
      "note": 69,
      "start": 88.9388,
      "duration": 0.1797,
      "velocity": 117,
      "chip": "ym2612"
    },
    {
      "channel": 4,
      "note": 88,
      "start": 88.9395,
      "duration": 0.7004,
      "velocity": 109,
      "chip": "ym2612"
    },
    {
      "channel": 0,
      "note": 57,
      "start": 89.1187,
      "duration": 0.1681,
      "velocity": 117,
      "chip": "ym2612"
    },
    {
      "channel": 0,
      "note": 69,
      "start": 89.287,
      "duration": 0.1778,
      "velocity": 117,
      "chip": "ym2612"
    },
    {
      "channel": 0,
      "note": 58,
      "start": 89.465,
      "duration": 0.3561,
      "velocity": 117,
      "chip": "ym2612"
    },
    {
      "channel": 1,
      "note": 89,
      "start": 89.6385,
      "duration": 0.5195,
      "velocity": 89,
      "chip": "ym2612"
    },
    {
      "channel": 2,
      "note": 82,
      "start": 89.639,
      "duration": 0.5195,
      "velocity": 127,
      "chip": "ym2612"
    },
    {
      "channel": 3,
      "note": 86,
      "start": 89.6395,
      "duration": 0.5195,
      "velocity": 89,
      "chip": "ym2612"
    },
    {
      "channel": 4,
      "note": 82,
      "start": 89.64,
      "duration": 0.0869,
      "velocity": 109,
      "chip": "ym2612"
    },
    {
      "channel": 4,
      "note": 86,
      "start": 89.7271,
      "duration": 0.0947,
      "velocity": 109,
      "chip": "ym2612"
    },
    {
      "channel": 0,
      "note": 58,
      "start": 89.8213,
      "duration": 0.0843,
      "velocity": 117,
      "chip": "ym2612"
    },
    {
      "channel": 4,
      "note": 89,
      "start": 89.8219,
      "duration": 0.3376,
      "velocity": 109,
      "chip": "ym2612"
    },
    {
      "channel": 0,
      "note": 58,
      "start": 89.9057,
      "duration": 0.0833,
      "velocity": 117,
      "chip": "ym2612"
    },
    {
      "channel": 0,
      "note": 70,
      "start": 89.9892,
      "duration": 0.2565,
      "velocity": 117,
      "chip": "ym2612"
    },
    {
      "channel": 1,
      "note": 91,
      "start": 90.1582,
      "duration": 0.5347,
      "velocity": 127,
      "chip": "ym2612"
    },
    {
      "channel": 2,
      "note": 84,
      "start": 90.1587,
      "duration": 0.8976,
      "velocity": 109,
      "chip": "ym2612"
    },
    {
      "channel": 3,
      "note": 88,
      "start": 90.1592,
      "duration": 0.899,
      "velocity": 109,
      "chip": "ym2612"
    },
    {
      "channel": 4,
      "note": 84,
      "start": 90.1597,
      "duration": 0.0867,
      "velocity": 109,
      "chip": "ym2612"
    },
    {
      "channel": 0,
      "note": 58,
      "start": 90.2459,
      "duration": 0.0907,
      "velocity": 117,
      "chip": "ym2612"
    },
    {
      "channel": 4,
      "note": 88,
      "start": 90.2466,
      "duration": 0.0907,
      "velocity": 109,
      "chip": "ym2612"
    },
    {
      "channel": 0,
      "note": 60,
      "start": 90.3368,
      "duration": 0.1759,
      "velocity": 117,
      "chip": "ym2612"
    },
    {
      "channel": 4,
      "note": 91,
      "start": 90.3374,
      "duration": 12.1333,
      "velocity": 109,
      "chip": "ym2612"
    },
    {
      "channel": 0,
      "note": 72,
      "start": 90.5129,
      "duration": 0.178,
      "velocity": 117,
      "chip": "ym2612"
    },
    {
      "channel": 0,
      "note": 60,
      "start": 90.691,
      "duration": 0.1798,
      "velocity": 117,
      "chip": "ym2612"
    },
    {
      "channel": 1,
      "note": 63,
      "start": 90.6929,
      "duration": 0.0878,
      "velocity": 127,
      "chip": "ym2612"
    },
    {
      "channel": 1,
      "note": 62,
      "start": 90.7809,
      "duration": 0.0905,
      "velocity": 127,
      "chip": "ym2612"
    },
    {
      "channel": 0,
      "note": 61,
      "start": 90.871,
      "duration": 0.1815,
      "velocity": 127,
      "chip": "ym2612"
    },
    {
      "channel": 1,
      "note": 61,
      "start": 90.8715,
      "duration": 0.0915,
      "velocity": 127,
      "chip": "ym2612"
    },
    {
      "channel": 1,
      "note": 60,
      "start": 90.9631,
      "duration": 0.0912,
      "velocity": 109,
      "chip": "ym2612"
    },
    {
      "channel": 0,
      "note": 59,
      "start": 91.0526,
      "duration": 0.1728,
      "velocity": 114,
      "chip": "ym2612"
    },
    {
      "channel": 1,
      "note": 83,
      "start": 91.0545,
      "duration": 0.1714,
      "velocity": 109,
      "chip": "ym2612"
    },
    {
      "channel": 2,
      "note": 88,
      "start": 91.0565,
      "duration": 0.17,
      "velocity": 109,
      "chip": "ym2612"
    },
    {
      "channel": 3,
      "note": 90,
      "start": 91.0584,
      "duration": 0.1686,
      "velocity": 109,
      "chip": "ym2612"
    },
    {
      "channel": 0,
      "note": 59,
      "start": 91.2256,
      "duration": 0.084,
      "velocity": 127,
      "chip": "ym2612"
    },
    {
      "channel": 1,
      "note": 83,
      "start": 91.2261,
      "duration": 0.3508,
      "velocity": 109,
      "chip": "ym2612"
    },
    {
      "channel": 2,
      "note": 86,
      "start": 91.2266,
      "duration": 0.3508,
      "velocity": 109,
      "chip": "ym2612"
    },
    {
      "channel": 3,
      "note": 90,
      "start": 91.2271,
      "duration": 0.3508,
      "velocity": 109,
      "chip": "ym2612"
    },
    {
      "channel": 0,
      "note": 59,
      "start": 91.3098,
      "duration": 0.0848,
      "velocity": 127,
      "chip": "ym2612"
    },
    {
      "channel": 0,
      "note": 57,
      "start": 91.3947,
      "duration": 0.1816,
      "velocity": 127,
      "chip": "ym2612"
    },
    {
      "channel": 0,
      "note": 54,
      "start": 91.5765,
      "duration": 0.179,
      "velocity": 127,
      "chip": "ym2612"
    },
    {
      "channel": 1,
      "note": 83,
      "start": 91.577,
      "duration": 0.7259,
      "velocity": 109,
      "chip": "ym2612"
    },
    {
      "channel": 2,
      "note": 86,
      "start": 91.5776,
      "duration": 0.7259,
      "velocity": 109,
      "chip": "ym2612"
    },
    {
      "channel": 3,
      "note": 90,
      "start": 91.578,
      "duration": 0.7259,
      "velocity": 109,
      "chip": "ym2612"
    },
    {
      "channel": 0,
      "note": 52,
      "start": 91.7557,
      "duration": 0.1917,
      "velocity": 114,
      "chip": "ym2612"
    },
    {
      "channel": 0,
      "note": 52,
      "start": 91.9476,
      "duration": 0.084,
      "velocity": 127,
      "chip": "ym2612"
    },
    {
      "channel": 0,
      "note": 52,
      "start": 92.0318,
      "duration": 0.0875,
      "velocity": 127,
      "chip": "ym2612"
    },
    {
      "channel": 0,
      "note": 54,
      "start": 92.1195,
      "duration": 0.1829,
      "velocity": 127,
      "chip": "ym2612"
    },
    {
      "channel": 0,
      "note": 57,
      "start": 92.3025,
      "duration": 0.1774,
      "velocity": 127,
      "chip": "ym2612"
    },
    {
      "channel": 1,
      "note": 83,
      "start": 92.303,
      "duration": 0.3505,
      "velocity": 109,
      "chip": "ym2612"
    },
    {
      "channel": 2,
      "note": 88,
      "start": 92.3036,
      "duration": 0.3505,
      "velocity": 109,
      "chip": "ym2612"
    },
    {
      "channel": 3,
      "note": 90,
      "start": 92.3041,
      "duration": 0.3505,
      "velocity": 109,
      "chip": "ym2612"
    },
    {
      "channel": 0,
      "note": 59,
      "start": 92.4801,
      "duration": 0.173,
      "velocity": 114,
      "chip": "ym2612"
    },
    {
      "channel": 0,
      "note": 59,
      "start": 92.6532,
      "duration": 0.0841,
      "velocity": 127,
      "chip": "ym2612"
    },
    {
      "channel": 1,
      "note": 83,
      "start": 92.6537,
      "duration": 0.168,
      "velocity": 109,
      "chip": "ym2612"
    },
    {
      "channel": 2,
      "note": 88,
      "start": 92.6542,
      "duration": 0.168,
      "velocity": 109,
      "chip": "ym2612"
    },
    {
      "channel": 3,
      "note": 90,
      "start": 92.6547,
      "duration": 0.168,
      "velocity": 109,
      "chip": "ym2612"
    },
    {
      "channel": 0,
      "note": 59,
      "start": 92.7374,
      "duration": 0.0838,
      "velocity": 127,
      "chip": "ym2612"
    },
    {
      "channel": 0,
      "note": 57,
      "start": 92.8214,
      "duration": 0.1812,
      "velocity": 127,
      "chip": "ym2612"
    },
    {
      "channel": 1,
      "note": 83,
      "start": 92.8219,
      "duration": 0.3577,
      "velocity": 109,
      "chip": "ym2612"
    },
    {
      "channel": 2,
      "note": 86,
      "start": 92.8224,
      "duration": 0.3576,
      "velocity": 109,
      "chip": "ym2612"
    },
    {
      "channel": 3,
      "note": 90,
      "start": 92.8229,
      "duration": 0.3577,
      "velocity": 109,
      "chip": "ym2612"
    },
    {
      "channel": 0,
      "note": 54,
      "start": 93.0027,
      "duration": 0.1763,
      "velocity": 127,
      "chip": "ym2612"
    },
    {
      "channel": 0,
      "note": 52,
      "start": 93.1792,
      "duration": 0.1883,
      "velocity": 114,
      "chip": "ym2612"
    },
    {
      "channel": 1,
      "note": 83,
      "start": 93.1797,
      "duration": 0.1883,
      "velocity": 109,
      "chip": "ym2612"
    },
    {
      "channel": 2,
      "note": 85,
      "start": 93.1802,
      "duration": 0.1883,
      "velocity": 109,
      "chip": "ym2612"
    },
    {
      "channel": 3,
      "note": 90,
      "start": 93.1807,
      "duration": 0.1883,
      "velocity": 109,
      "chip": "ym2612"
    },
    {
      "channel": 0,
      "note": 52,
      "start": 93.3676,
      "duration": 0.0853,
      "velocity": 127,
      "chip": "ym2612"
    },
    {
      "channel": 1,
      "note": 83,
      "start": 93.3681,
      "duration": 0.3547,
      "velocity": 109,
      "chip": "ym2612"
    },
    {
      "channel": 2,
      "note": 86,
      "start": 93.3686,
      "duration": 0.3547,
      "velocity": 109,
      "chip": "ym2612"
    },
    {
      "channel": 3,
      "note": 90,
      "start": 93.3691,
      "duration": 0.3547,
      "velocity": 109,
      "chip": "ym2612"
    },
    {
      "channel": 0,
      "note": 52,
      "start": 93.4531,
      "duration": 0.0872,
      "velocity": 127,
      "chip": "ym2612"
    },
    {
      "channel": 0,
      "note": 54,
      "start": 93.5404,
      "duration": 0.182,
      "velocity": 127,
      "chip": "ym2612"
    },
    {
      "channel": 0,
      "note": 57,
      "start": 93.7225,
      "duration": 0.1781,
      "velocity": 127,
      "chip": "ym2612"
    },
    {
      "channel": 1,
      "note": 83,
      "start": 93.723,
      "duration": 0.1781,
      "velocity": 109,
      "chip": "ym2612"
    },
    {
      "channel": 2,
      "note": 85,
      "start": 93.7235,
      "duration": 0.1781,
      "velocity": 109,
      "chip": "ym2612"
    },
    {
      "channel": 3,
      "note": 90,
      "start": 93.724,
      "duration": 0.1782,
      "velocity": 109,
      "chip": "ym2612"
    },
    {
      "channel": 0,
      "note": 59,
      "start": 93.9008,
      "duration": 0.1715,
      "velocity": 114,
      "chip": "ym2612"
    },
    {
      "channel": 1,
      "note": 81,
      "start": 93.9013,
      "duration": 0.1715,
      "velocity": 109,
      "chip": "ym2612"
    },
    {
      "channel": 2,
      "note": 86,
      "start": 93.9018,
      "duration": 0.1715,
      "velocity": 109,
      "chip": "ym2612"
    },
    {
      "channel": 3,
      "note": 88,
      "start": 93.9023,
      "duration": 0.1715,
      "velocity": 109,
      "chip": "ym2612"
    },
    {
      "channel": 0,
      "note": 59,
      "start": 94.0724,
      "duration": 0.0882,
      "velocity": 127,
      "chip": "ym2612"
    },
    {
      "channel": 1,
      "note": 81,
      "start": 94.0729,
      "duration": 0.3507,
      "velocity": 109,
      "chip": "ym2612"
    },
    {
      "channel": 2,
      "note": 85,
      "start": 94.0734,
      "duration": 0.3507,
      "velocity": 109,
      "chip": "ym2612"
    },
    {
      "channel": 3,
      "note": 88,
      "start": 94.0739,
      "duration": 0.3507,
      "velocity": 109,
      "chip": "ym2612"
    },
    {
      "channel": 0,
      "note": 59,
      "start": 94.1608,
      "duration": 0.0868,
      "velocity": 127,
      "chip": "ym2612"
    },
    {
      "channel": 0,
      "note": 57,
      "start": 94.2478,
      "duration": 0.1754,
      "velocity": 127,
      "chip": "ym2612"
    },
    {
      "channel": 0,
      "note": 54,
      "start": 94.4233,
      "duration": 0.1822,
      "velocity": 127,
      "chip": "ym2612"
    },
    {
      "channel": 1,
      "note": 81,
      "start": 94.4238,
      "duration": 0.7209,
      "velocity": 109,
      "chip": "ym2612"
    },
    {
      "channel": 2,
      "note": 85,
      "start": 94.4243,
      "duration": 0.7209,
      "velocity": 109,
      "chip": "ym2612"
    },
    {
      "channel": 3,
      "note": 88,
      "start": 94.4248,
      "duration": 0.7209,
      "velocity": 109,
      "chip": "ym2612"
    },
    {
      "channel": 0,
      "note": 52,
      "start": 94.6056,
      "duration": 0.1902,
      "velocity": 114,
      "chip": "ym2612"
    },
    {
      "channel": 0,
      "note": 52,
      "start": 94.796,
      "duration": 0.091,
      "velocity": 127,
      "chip": "ym2612"
    },
    {
      "channel": 0,
      "note": 52,
      "start": 94.8871,
      "duration": 0.0815,
      "velocity": 127,
      "chip": "ym2612"
    },
    {
      "channel": 0,
      "note": 54,
      "start": 94.9688,
      "duration": 0.1754,
      "velocity": 127,
      "chip": "ym2612"
    },
    {
      "channel": 0,
      "note": 57,
      "start": 95.1443,
      "duration": 0.1783,
      "velocity": 127,
      "chip": "ym2612"
    },
    {
      "channel": 1,
      "note": 81,
      "start": 95.1448,
      "duration": 0.3495,
      "velocity": 109,
      "chip": "ym2612"
    },
    {
      "channel": 2,
      "note": 86,
      "start": 95.1454,
      "duration": 0.3495,
      "velocity": 109,
      "chip": "ym2612"
    },
    {
      "channel": 3,
      "note": 88,
      "start": 95.1459,
      "duration": 0.3495,
      "velocity": 109,
      "chip": "ym2612"
    },
    {
      "channel": 0,
      "note": 59,
      "start": 95.3228,
      "duration": 0.1711,
      "velocity": 114,
      "chip": "ym2612"
    },
    {
      "channel": 0,
      "note": 59,
      "start": 95.494,
      "duration": 0.084,
      "velocity": 127,
      "chip": "ym2612"
    },
    {
      "channel": 1,
      "note": 81,
      "start": 95.4945,
      "duration": 0.1669,
      "velocity": 109,
      "chip": "ym2612"
    },
    {
      "channel": 2,
      "note": 86,
      "start": 95.495,
      "duration": 0.1669,
      "velocity": 109,
      "chip": "ym2612"
    },
    {
      "channel": 3,
      "note": 88,
      "start": 95.4955,
      "duration": 0.1669,
      "velocity": 109,
      "chip": "ym2612"
    },
    {
      "channel": 0,
      "note": 59,
      "start": 95.5781,
      "duration": 0.0827,
      "velocity": 127,
      "chip": "ym2612"
    },
    {
      "channel": 0,
      "note": 57,
      "start": 95.6611,
      "duration": 0.1811,
      "velocity": 127,
      "chip": "ym2612"
    },
    {
      "channel": 1,
      "note": 81,
      "start": 95.6616,
      "duration": 0.3565,
      "velocity": 109,
      "chip": "ym2612"
    },
    {
      "channel": 2,
      "note": 85,
      "start": 95.6621,
      "duration": 0.3565,
      "velocity": 109,
      "chip": "ym2612"
    },
    {
      "channel": 3,
      "note": 88,
      "start": 95.6626,
      "duration": 0.3565,
      "velocity": 109,
      "chip": "ym2612"
    },
    {
      "channel": 0,
      "note": 54,
      "start": 95.8424,
      "duration": 0.1752,
      "velocity": 127,
      "chip": "ym2612"
    },
    {
      "channel": 0,
      "note": 52,
      "start": 96.0178,
      "duration": 0.1939,
      "velocity": 114,
      "chip": "ym2612"
    },
    {
      "channel": 1,
      "note": 81,
      "start": 96.0183,
      "duration": 0.1939,
      "velocity": 109,
      "chip": "ym2612"
    },
    {
      "channel": 2,
      "note": 83,
      "start": 96.0188,
      "duration": 0.1939,
      "velocity": 109,
      "chip": "ym2612"
    },
    {
      "channel": 3,
      "note": 88,
      "start": 96.0193,
      "duration": 0.1939,
      "velocity": 109,
      "chip": "ym2612"
    },
    {
      "channel": 0,
      "note": 52,
      "start": 96.2119,
      "duration": 0.0883,
      "velocity": 127,
      "chip": "ym2612"
    },
    {
      "channel": 1,
      "note": 81,
      "start": 96.2124,
      "duration": 0.3608,
      "velocity": 109,
      "chip": "ym2612"
    },
    {
      "channel": 2,
      "note": 85,
      "start": 96.2129,
      "duration": 0.3608,
      "velocity": 109,
      "chip": "ym2612"
    },
    {
      "channel": 3,
      "note": 88,
      "start": 96.2134,
      "duration": 0.3608,
      "velocity": 109,
      "chip": "ym2612"
    },
    {
      "channel": 0,
      "note": 52,
      "start": 96.3003,
      "duration": 0.0875,
      "velocity": 127,
      "chip": "ym2612"
    },
    {
      "channel": 0,
      "note": 54,
      "start": 96.388,
      "duration": 0.0907,
      "velocity": 127,
      "chip": "ym2612"
    },
    {
      "channel": 0,
      "note": 57,
      "start": 96.4788,
      "duration": 0.0938,
      "velocity": 127,
      "chip": "ym2612"
    },
    {
      "channel": 0,
      "note": 59,
      "start": 96.5728,
      "duration": 0.089,
      "velocity": 127,
      "chip": "ym2612"
    },
    {
      "channel": 1,
      "note": 81,
      "start": 96.5733,
      "duration": 0.1777,
      "velocity": 109,
      "chip": "ym2612"
    },
    {
      "channel": 2,
      "note": 86,
      "start": 96.5739,
      "duration": 0.1777,
      "velocity": 109,
      "chip": "ym2612"
    },
    {
      "channel": 3,
      "note": 88,
      "start": 96.5744,
      "duration": 0.1778,
      "velocity": 109,
      "chip": "ym2612"
    },
    {
      "channel": 0,
      "note": 62,
      "start": 96.6621,
      "duration": 0.0884,
      "velocity": 127,
      "chip": "ym2612"
    },
    {
      "channel": 0,
      "note": 59,
      "start": 96.7506,
      "duration": 0.1735,
      "velocity": 114,
      "chip": "ym2612"
    },
    {
      "channel": 1,
      "note": 85,
      "start": 96.7512,
      "duration": 0.1735,
      "velocity": 109,
      "chip": "ym2612"
    },
    {
      "channel": 2,
      "note": 91,
      "start": 96.7517,
      "duration": 0.1735,
      "velocity": 109,
      "chip": "ym2612"
    },
    {
      "channel": 3,
      "note": 86,
      "start": 96.7522,
      "duration": 0.1734,
      "velocity": 109,
      "chip": "ym2612"
    },
    {
      "channel": 0,
      "note": 59,
      "start": 96.9244,
      "duration": 0.088,
      "velocity": 127,
      "chip": "ym2612"
    },
    {
      "channel": 1,
      "note": 83,
      "start": 96.9249,
      "duration": 0.3629,
      "velocity": 109,
      "chip": "ym2612"
    },
    {
      "channel": 2,
      "note": 91,
      "start": 96.9254,
      "duration": 0.3629,
      "velocity": 109,
      "chip": "ym2612"
    },
    {
      "channel": 3,
      "note": 86,
      "start": 96.9259,
      "duration": 0.3629,
      "velocity": 109,
      "chip": "ym2612"
    },
    {
      "channel": 0,
      "note": 59,
      "start": 97.0125,
      "duration": 0.0875,
      "velocity": 127,
      "chip": "ym2612"
    },
    {
      "channel": 0,
      "note": 57,
      "start": 97.1002,
      "duration": 0.187,
      "velocity": 127,
      "chip": "ym2612"
    },
    {
      "channel": 0,
      "note": 54,
      "start": 97.2874,
      "duration": 0.1766,
      "velocity": 127,
      "chip": "ym2612"
    },
    {
      "channel": 1,
      "note": 83,
      "start": 97.2879,
      "duration": 0.7304,
      "velocity": 109,
      "chip": "ym2612"
    },
    {
      "channel": 2,
      "note": 91,
      "start": 97.2884,
      "duration": 0.7304,
      "velocity": 109,
      "chip": "ym2612"
    },
    {
      "channel": 3,
      "note": 86,
      "start": 97.2889,
      "duration": 0.7304,
      "velocity": 109,
      "chip": "ym2612"
    },
    {
      "channel": 0,
      "note": 52,
      "start": 97.4641,
      "duration": 0.1902,
      "velocity": 114,
      "chip": "ym2612"
    },
    {
      "channel": 0,
      "note": 52,
      "start": 97.6545,
      "duration": 0.0902,
      "velocity": 127,
      "chip": "ym2612"
    },
    {
      "channel": 0,
      "note": 52,
      "start": 97.7449,
      "duration": 0.0898,
      "velocity": 127,
      "chip": "ym2612"
    },
    {
      "channel": 0,
      "note": 54,
      "start": 97.8348,
      "duration": 0.183,
      "velocity": 127,
      "chip": "ym2612"
    },
    {
      "channel": 0,
      "note": 57,
      "start": 98.0179,
      "duration": 0.1794,
      "velocity": 127,
      "chip": "ym2612"
    },
    {
      "channel": 1,
      "note": 86,
      "start": 98.0184,
      "duration": 0.3471,
      "velocity": 109,
      "chip": "ym2612"
    },
    {
      "channel": 2,
      "note": 91,
      "start": 98.0189,
      "duration": 0.3471,
      "velocity": 109,
      "chip": "ym2612"
    },
    {
      "channel": 3,
      "note": 86,
      "start": 98.0194,
      "duration": 0.3471,
      "velocity": 109,
      "chip": "ym2612"
    },
    {
      "channel": 0,
      "note": 59,
      "start": 98.1976,
      "duration": 0.1674,
      "velocity": 114,
      "chip": "ym2612"
    },
    {
      "channel": 0,
      "note": 59,
      "start": 98.3651,
      "duration": 0.084,
      "velocity": 127,
      "chip": "ym2612"
    },
    {
      "channel": 1,
      "note": 86,
      "start": 98.3656,
      "duration": 0.1679,
      "velocity": 109,
      "chip": "ym2612"
    },
    {
      "channel": 2,
      "note": 91,
      "start": 98.3661,
      "duration": 0.1679,
      "velocity": 109,
      "chip": "ym2612"
    },
    {
      "channel": 3,
      "note": 86,
      "start": 98.3666,
      "duration": 0.1679,
      "velocity": 109,
      "chip": "ym2612"
    },
    {
      "channel": 0,
      "note": 59,
      "start": 98.4492,
      "duration": 0.0838,
      "velocity": 127,
      "chip": "ym2612"
    },
    {
      "channel": 0,
      "note": 57,
      "start": 98.5332,
      "duration": 0.1812,
      "velocity": 127,
      "chip": "ym2612"
    },
    {
      "channel": 1,
      "note": 88,
      "start": 98.5337,
      "duration": 0.3585,
      "velocity": 109,
      "chip": "ym2612"
    },
    {
      "channel": 2,
      "note": 91,
      "start": 98.5342,
      "duration": 0.3585,
      "velocity": 109,
      "chip": "ym2612"
    },
    {
      "channel": 3,
      "note": 86,
      "start": 98.5347,
      "duration": 0.3585,
      "velocity": 109,
      "chip": "ym2612"
    },
    {
      "channel": 0,
      "note": 54,
      "start": 98.7146,
      "duration": 0.1772,
      "velocity": 127,
      "chip": "ym2612"
    },
    {
      "channel": 0,
      "note": 52,
      "start": 98.8919,
      "duration": 0.1903,
      "velocity": 114,
      "chip": "ym2612"
    },
    {
      "channel": 1,
      "note": 86,
      "start": 98.8924,
      "duration": 0.1903,
      "velocity": 109,
      "chip": "ym2612"
    },
    {
      "channel": 2,
      "note": 91,
      "start": 98.8929,
      "duration": 0.1904,
      "velocity": 109,
      "chip": "ym2612"
    },
    {
      "channel": 3,
      "note": 81,
      "start": 98.8934,
      "duration": 0.1904,
      "velocity": 109,
      "chip": "ym2612"
    },
    {
      "channel": 0,
      "note": 52,
      "start": 99.0824,
      "duration": 0.0902,
      "velocity": 127,
      "chip": "ym2612"
    },
    {
      "channel": 1,
      "note": 85,
      "start": 99.0829,
      "duration": 0.3631,
      "velocity": 109,
      "chip": "ym2612"
    },
    {
      "channel": 2,
      "note": 91,
      "start": 99.0834,
      "duration": 0.3631,
      "velocity": 109,
      "chip": "ym2612"
    },
    {
      "channel": 3,
      "note": 83,
      "start": 99.0839,
      "duration": 0.1806,
      "velocity": 109,
      "chip": "ym2612"
    },
    {
      "channel": 0,
      "note": 52,
      "start": 99.1727,
      "duration": 0.0912,
      "velocity": 127,
      "chip": "ym2612"
    },
    {
      "channel": 0,
      "note": 54,
      "start": 99.2641,
      "duration": 0.1815,
      "velocity": 127,
      "chip": "ym2612"
    },
    {
      "channel": 3,
      "note": 86,
      "start": 99.2647,
      "duration": 0.1824,
      "velocity": 109,
      "chip": "ym2612"
    },
    {
      "channel": 0,
      "note": 57,
      "start": 99.4457,
      "duration": 0.1793,
      "velocity": 127,
      "chip": "ym2612"
    },
    {
      "channel": 1,
      "note": 86,
      "start": 99.4462,
      "duration": 0.1793,
      "velocity": 109,
      "chip": "ym2612"
    },
    {
      "channel": 2,
      "note": 91,
      "start": 99.4467,
      "duration": 0.1793,
      "velocity": 109,
      "chip": "ym2612"
    },
    {
      "channel": 3,
      "note": 88,
      "start": 99.4472,
      "duration": 0.1793,
      "velocity": 109,
      "chip": "ym2612"
    },
    {
      "channel": 0,
      "note": 59,
      "start": 99.6252,
      "duration": 0.1728,
      "velocity": 114,
      "chip": "ym2612"
    },
    {
      "channel": 1,
      "note": 88,
      "start": 99.6257,
      "duration": 0.1728,
      "velocity": 109,
      "chip": "ym2612"
    },
    {
      "channel": 2,
      "note": 81,
      "start": 99.6262,
      "duration": 0.1728,
      "velocity": 109,
      "chip": "ym2612"
    },
    {
      "channel": 3,
      "note": 85,
      "start": 99.6267,
      "duration": 0.1728,
      "velocity": 109,
      "chip": "ym2612"
    },
    {
      "channel": 0,
      "note": 59,
      "start": 99.7981,
      "duration": 0.0852,
      "velocity": 127,
      "chip": "ym2612"
    },
    {
      "channel": 1,
      "note": 85,
      "start": 99.7986,
      "duration": 0.348,
      "velocity": 109,
      "chip": "ym2612"
    },
    {
      "channel": 2,
      "note": 81,
      "start": 99.7991,
      "duration": 0.348,
      "velocity": 109,
      "chip": "ym2612"
    },
    {
      "channel": 3,
      "note": 85,
      "start": 99.7996,
      "duration": 0.348,
      "velocity": 109,
      "chip": "ym2612"
    },
    {
      "channel": 0,
      "note": 59,
      "start": 99.8835,
      "duration": 0.0871,
      "velocity": 127,
      "chip": "ym2612"
    },
    {
      "channel": 0,
      "note": 57,
      "start": 99.9706,
      "duration": 0.1754,
      "velocity": 127,
      "chip": "ym2612"
    },
    {
      "channel": 0,
      "note": 54,
      "start": 100.1463,
      "duration": 0.1781,
      "velocity": 127,
      "chip": "ym2612"
    },
    {
      "channel": 1,
      "note": 85,
      "start": 100.1468,
      "duration": 0.7259,
      "velocity": 109,
      "chip": "ym2612"
    },
    {
      "channel": 2,
      "note": 81,
      "start": 100.1473,
      "duration": 0.7259,
      "velocity": 109,
      "chip": "ym2612"
    },
    {
      "channel": 3,
      "note": 85,
      "start": 100.1478,
      "duration": 0.7259,
      "velocity": 109,
      "chip": "ym2612"
    },
    {
      "channel": 0,
      "note": 52,
      "start": 100.3246,
      "duration": 0.1902,
      "velocity": 114,
      "chip": "ym2612"
    },
    {
      "channel": 0,
      "note": 52,
      "start": 100.5149,
      "duration": 0.0881,
      "velocity": 127,
      "chip": "ym2612"
    },
    {
      "channel": 0,
      "note": 52,
      "start": 100.6031,
      "duration": 0.0872,
      "velocity": 127,
      "chip": "ym2612"
    },
    {
      "channel": 0,
      "note": 54,
      "start": 100.6905,
      "duration": 0.1816,
      "velocity": 127,
      "chip": "ym2612"
    },
    {
      "channel": 0,
      "note": 57,
      "start": 100.8723,
      "duration": 0.1794,
      "velocity": 127,
      "chip": "ym2612"
    },
    {
      "channel": 1,
      "note": 88,
      "start": 100.8728,
      "duration": 0.3505,
      "velocity": 109,
      "chip": "ym2612"
    },
    {
      "channel": 2,
      "note": 81,
      "start": 100.8733,
      "duration": 0.3505,
      "velocity": 109,
      "chip": "ym2612"
    },
    {
      "channel": 3,
      "note": 85,
      "start": 100.8738,
      "duration": 0.3505,
      "velocity": 109,
      "chip": "ym2612"
    },
    {
      "channel": 0,
      "note": 59,
      "start": 101.0518,
      "duration": 0.1709,
      "velocity": 114,
      "chip": "ym2612"
    },
    {
      "channel": 0,
      "note": 59,
      "start": 101.2228,
      "duration": 0.0862,
      "velocity": 127,
      "chip": "ym2612"
    },
    {
      "channel": 1,
      "note": 88,
      "start": 101.2234,
      "duration": 0.1735,
      "velocity": 109,
      "chip": "ym2612"
    },
    {
      "channel": 2,
      "note": 81,
      "start": 101.2239,
      "duration": 0.1735,
      "velocity": 109,
      "chip": "ym2612"
    },
    {
      "channel": 3,
      "note": 85,
      "start": 101.2244,
      "duration": 0.1735,
      "velocity": 109,
      "chip": "ym2612"
    },
    {
      "channel": 0,
      "note": 59,
      "start": 101.3092,
      "duration": 0.0872,
      "velocity": 127,
      "chip": "ym2612"
    },
    {
      "channel": 0,
      "note": 57,
      "start": 101.3966,
      "duration": 0.1812,
      "velocity": 127,
      "chip": "ym2612"
    },
    {
      "channel": 1,
      "note": 90,
      "start": 101.3971,
      "duration": 0.3585,
      "velocity": 109,
      "chip": "ym2612"
    },
    {
      "channel": 2,
      "note": 81,
      "start": 101.3976,
      "duration": 0.3585,
      "velocity": 109,
      "chip": "ym2612"
    },
    {
      "channel": 3,
      "note": 85,
      "start": 101.3981,
      "duration": 0.3585,
      "velocity": 109,
      "chip": "ym2612"
    },
    {
      "channel": 0,
      "note": 54,
      "start": 101.578,
      "duration": 0.1771,
      "velocity": 127,
      "chip": "ym2612"
    },
    {
      "channel": 0,
      "note": 52,
      "start": 101.7553,
      "duration": 0.1883,
      "velocity": 114,
      "chip": "ym2612"
    },
    {
      "channel": 1,
      "note": 95,
      "start": 101.7558,
      "duration": 0.1883,
      "velocity": 109,
      "chip": "ym2612"
    },
    {
      "channel": 2,
      "note": 81,
      "start": 101.7562,
      "duration": 0.1884,
      "velocity": 109,
      "chip": "ym2612"
    },
    {
      "channel": 3,
      "note": 85,
      "start": 101.7567,
      "duration": 0.1884,
      "velocity": 109,
      "chip": "ym2612"
    },
    {
      "channel": 0,
      "note": 52,
      "start": 101.9437,
      "duration": 0.0852,
      "velocity": 127,
      "chip": "ym2612"
    },
    {
      "channel": 1,
      "note": 93,
      "start": 101.9442,
      "duration": 0.3458,
      "velocity": 109,
      "chip": "ym2612"
    },
    {
      "channel": 2,
      "note": 81,
      "start": 101.9447,
      "duration": 0.3458,
      "velocity": 109,
      "chip": "ym2612"
    },
    {
      "channel": 3,
      "note": 85,
      "start": 101.9452,
      "duration": 0.3458,
      "velocity": 109,
      "chip": "ym2612"
    },
    {
      "channel": 0,
      "note": 52,
      "start": 102.0291,
      "duration": 0.0871,
      "velocity": 127,
      "chip": "ym2612"
    },
    {
      "channel": 0,
      "note": 54,
      "start": 102.1163,
      "duration": 0.0835,
      "velocity": 127,
      "chip": "ym2612"
    },
    {
      "channel": 0,
      "note": 57,
      "start": 102.2,
      "duration": 0.0895,
      "velocity": 127,
      "chip": "ym2612"
    },
    {
      "channel": 0,
      "note": 59,
      "start": 102.2897,
      "duration": 0.089,
      "velocity": 127,
      "chip": "ym2612"
    },
    {
      "channel": 1,
      "note": 90,
      "start": 102.2902,
      "duration": 0.1789,
      "velocity": 127,
      "chip": "ym2612"
    },
    {
      "channel": 2,
      "note": 81,
      "start": 102.2907,
      "duration": 0.179,
      "velocity": 109,
      "chip": "ym2612"
    },
    {
      "channel": 3,
      "note": 85,
      "start": 102.2912,
      "duration": 0.179,
      "velocity": 109,
      "chip": "ym2612"
    },
    {
      "channel": 0,
      "note": 62,
      "start": 102.3788,
      "duration": 0.0883,
      "velocity": 127,
      "chip": "ym2612"
    },
    {
      "channel": 0,
      "note": 59,
      "start": 102.4673,
      "duration": 0.1673,
      "velocity": 114,
      "chip": "ym2612"
    },
    {
      "channel": 1,
      "note": 95,
      "start": 102.4693,
      "duration": 16.9728,
      "velocity": 109,
      "chip": "ym2612"
    },
    {
      "channel": 2,
      "note": 95,
      "start": 102.4699,
      "duration": 16.9727,
      "velocity": 109,
      "chip": "ym2612"
    },
    {
      "channel": 3,
      "note": 90,
      "start": 102.4704,
      "duration": 16.9742,
      "velocity": 89,
      "chip": "ym2612"
    },
    {
      "channel": 4,
      "note": 86,
      "start": 102.471,
      "duration": 16.9756,
      "velocity": 89,
      "chip": "ym2612"
    },
    {
      "channel": 0,
      "note": 59,
      "start": 102.6348,
      "duration": 0.0901,
      "velocity": 127,
      "chip": "ym2612"
    },
    {
      "channel": 0,
      "note": 59,
      "start": 102.7252,
      "duration": 0.0862,
      "velocity": 127,
      "chip": "ym2612"
    },
    {
      "channel": 0,
      "note": 57,
      "start": 102.8116,
      "duration": 0.1788,
      "velocity": 127,
      "chip": "ym2612"
    },
    {
      "channel": 0,
      "note": 54,
      "start": 102.9906,
      "duration": 0.1769,
      "velocity": 127,
      "chip": "ym2612"
    },
    {
      "channel": 0,
      "note": 52,
      "start": 103.1677,
      "duration": 0.186,
      "velocity": 114,
      "chip": "ym2612"
    },
    {
      "channel": 0,
      "note": 52,
      "start": 103.3539,
      "duration": 0.0851,
      "velocity": 127,
      "chip": "ym2612"
    },
    {
      "channel": 0,
      "note": 52,
      "start": 103.4391,
      "duration": 0.0875,
      "velocity": 127,
      "chip": "ym2612"
    },
    {
      "channel": 0,
      "note": 54,
      "start": 103.5268,
      "duration": 0.1829,
      "velocity": 127,
      "chip": "ym2612"
    },
    {
      "channel": 0,
      "note": 57,
      "start": 103.7098,
      "duration": 0.1787,
      "velocity": 127,
      "chip": "ym2612"
    },
    {
      "channel": 0,
      "note": 59,
      "start": 103.8887,
      "duration": 0.1775,
      "velocity": 114,
      "chip": "ym2612"
    },
    {
      "channel": 0,
      "note": 59,
      "start": 104.0663,
      "duration": 0.0923,
      "velocity": 127,
      "chip": "ym2612"
    },
    {
      "channel": 0,
      "note": 59,
      "start": 104.1588,
      "duration": 0.092,
      "velocity": 127,
      "chip": "ym2612"
    },
    {
      "channel": 0,
      "note": 57,
      "start": 104.2509,
      "duration": 0.1858,
      "velocity": 127,
      "chip": "ym2612"
    },
    {
      "channel": 0,
      "note": 54,
      "start": 104.4368,
      "duration": 0.1771,
      "velocity": 127,
      "chip": "ym2612"
    },
    {
      "channel": 0,
      "note": 52,
      "start": 104.6141,
      "duration": 0.1897,
      "velocity": 114,
      "chip": "ym2612"
    },
    {
      "channel": 0,
      "note": 52,
      "start": 104.8039,
      "duration": 0.0882,
      "velocity": 127,
      "chip": "ym2612"
    },
    {
      "channel": 0,
      "note": 52,
      "start": 104.8922,
      "duration": 0.0889,
      "velocity": 127,
      "chip": "ym2612"
    },
    {
      "channel": 0,
      "note": 54,
      "start": 104.9813,
      "duration": 0.178,
      "velocity": 127,
      "chip": "ym2612"
    },
    {
      "channel": 0,
      "note": 57,
      "start": 105.1595,
      "duration": 0.1742,
      "velocity": 127,
      "chip": "ym2612"
    },
    {
      "channel": 0,
      "note": 59,
      "start": 105.3338,
      "duration": 0.1771,
      "velocity": 114,
      "chip": "ym2612"
    },
    {
      "channel": 0,
      "note": 59,
      "start": 105.5111,
      "duration": 0.0818,
      "velocity": 127,
      "chip": "ym2612"
    },
    {
      "channel": 0,
      "note": 59,
      "start": 105.593,
      "duration": 0.0844,
      "velocity": 127,
      "chip": "ym2612"
    },
    {
      "channel": 0,
      "note": 57,
      "start": 105.6776,
      "duration": 0.1692,
      "velocity": 127,
      "chip": "ym2612"
    },
    {
      "channel": 0,
      "note": 54,
      "start": 105.847,
      "duration": 0.1801,
      "velocity": 127,
      "chip": "ym2612"
    },
    {
      "channel": 0,
      "note": 52,
      "start": 106.0272,
      "duration": 0.1769,
      "velocity": 114,
      "chip": "ym2612"
    },
    {
      "channel": 0,
      "note": 52,
      "start": 106.2043,
      "duration": 0.0821,
      "velocity": 127,
      "chip": "ym2612"
    },
    {
      "channel": 0,
      "note": 52,
      "start": 106.2865,
      "duration": 0.0846,
      "velocity": 127,
      "chip": "ym2612"
    },
    {
      "channel": 0,
      "note": 54,
      "start": 106.3714,
      "duration": 0.1676,
      "velocity": 127,
      "chip": "ym2612"
    },
    {
      "channel": 0,
      "note": 57,
      "start": 106.5391,
      "duration": 0.1722,
      "velocity": 127,
      "chip": "ym2612"
    },
    {
      "channel": 0,
      "note": 59,
      "start": 106.7116,
      "duration": 0.177,
      "velocity": 114,
      "chip": "ym2612"
    },
    {
      "channel": 0,
      "note": 59,
      "start": 106.8888,
      "duration": 0.0848,
      "velocity": 127,
      "chip": "ym2612"
    },
    {
      "channel": 0,
      "note": 59,
      "start": 106.9738,
      "duration": 0.0817,
      "velocity": 127,
      "chip": "ym2612"
    },
    {
      "channel": 0,
      "note": 57,
      "start": 107.0556,
      "duration": 0.1683,
      "velocity": 127,
      "chip": "ym2612"
    },
    {
      "channel": 0,
      "note": 54,
      "start": 107.2241,
      "duration": 0.1747,
      "velocity": 127,
      "chip": "ym2612"
    },
    {
      "channel": 0,
      "note": 52,
      "start": 107.3989,
      "duration": 0.1752,
      "velocity": 114,
      "chip": "ym2612"
    },
    {
      "channel": 0,
      "note": 52,
      "start": 107.5743,
      "duration": 0.0885,
      "velocity": 127,
      "chip": "ym2612"
    },
    {
      "channel": 0,
      "note": 52,
      "start": 107.6631,
      "duration": 0.0947,
      "velocity": 127,
      "chip": "ym2612"
    },
    {
      "channel": 0,
      "note": 54,
      "start": 107.758,
      "duration": 0.0878,
      "velocity": 127,
      "chip": "ym2612"
    },
    {
      "channel": 0,
      "note": 57,
      "start": 107.8459,
      "duration": 0.0859,
      "velocity": 127,
      "chip": "ym2612"
    },
    {
      "channel": 0,
      "note": 59,
      "start": 107.9319,
      "duration": 0.0898,
      "velocity": 127,
      "chip": "ym2612"
    },
    {
      "channel": 0,
      "note": 62,
      "start": 108.0219,
      "duration": 0.0877,
      "velocity": 127,
      "chip": "ym2612"
    },
    {
      "channel": 0,
      "note": 59,
      "start": 108.1098,
      "duration": 11.3302,
      "velocity": 127,
      "chip": "ym2612"
    },
    {
      "channel": 0,
      "note": 61,
      "start": 119.4403,
      "duration": 0.1722,
      "velocity": 114,
      "chip": "ym2612"
    },
    {
      "channel": 1,
      "note": 85,
      "start": 119.4423,
      "duration": 0.1707,
      "velocity": 109,
      "chip": "ym2612"
    },
    {
      "channel": 2,
      "note": 90,
      "start": 119.4428,
      "duration": 0.1707,
      "velocity": 109,
      "chip": "ym2612"
    },
    {
      "channel": 3,
      "note": 85,
      "start": 119.4447,
      "duration": 0.3426,
      "velocity": 89,
      "chip": "ym2612"
    },
    {
      "channel": 4,
      "note": 80,
      "start": 119.4466,
      "duration": 0.3412,
      "velocity": 89,
      "chip": "ym2612"
    },
    {
      "channel": 0,
      "note": 61,
      "start": 119.6127,
      "duration": 0.0902,
      "velocity": 127,
      "chip": "ym2612"
    },
    {
      "channel": 1,
      "note": 85,
      "start": 119.6132,
      "duration": 0.3513,
      "velocity": 109,
      "chip": "ym2612"
    },
    {
      "channel": 2,
      "note": 88,
      "start": 119.6137,
      "duration": 0.3513,
      "velocity": 109,
      "chip": "ym2612"
    },
    {
      "channel": 0,
      "note": 61,
      "start": 119.703,
      "duration": 0.0837,
      "velocity": 127,
      "chip": "ym2612"
    },
    {
      "channel": 0,
      "note": 59,
      "start": 119.7869,
      "duration": 0.1771,
      "velocity": 127,
      "chip": "ym2612"
    },
    {
      "channel": 3,
      "note": 87,
      "start": 119.7875,
      "duration": 0.178,
      "velocity": 89,
      "chip": "ym2612"
    },
    {
      "channel": 4,
      "note": 83,
      "start": 119.788,
      "duration": 0.178,
      "velocity": 89,
      "chip": "ym2612"
    },
    {
      "channel": 0,
      "note": 56,
      "start": 119.9642,
      "duration": 0.1706,
      "velocity": 127,
      "chip": "ym2612"
    },
    {
      "channel": 1,
      "note": 85,
      "start": 119.9647,
      "duration": 0.7141,
      "velocity": 109,
      "chip": "ym2612"
    },
    {
      "channel": 2,
      "note": 88,
      "start": 119.9652,
      "duration": 0.7141,
      "velocity": 109,
      "chip": "ym2612"
    },
    {
      "channel": 3,
      "note": 85,
      "start": 119.9657,
      "duration": 0.1696,
      "velocity": 89,
      "chip": "ym2612"
    },
    {
      "channel": 4,
      "note": 80,
      "start": 119.9662,
      "duration": 0.1696,
      "velocity": 89,
      "chip": "ym2612"
    },
    {
      "channel": 0,
      "note": 54,
      "start": 120.1349,
      "duration": 0.1898,
      "velocity": 114,
      "chip": "ym2612"
    },
    {
      "channel": 3,
      "note": 88,
      "start": 120.1355,
      "duration": 0.3593,
      "velocity": 89,
      "chip": "ym2612"
    },
    {
      "channel": 4,
      "note": 85,
      "start": 120.136,
      "duration": 0.3593,
      "velocity": 89,
      "chip": "ym2612"
    },
    {
      "channel": 0,
      "note": 54,
      "start": 120.3248,
      "duration": 0.082,
      "velocity": 127,
      "chip": "ym2612"
    },
    {
      "channel": 0,
      "note": 54,
      "start": 120.4069,
      "duration": 0.0873,
      "velocity": 127,
      "chip": "ym2612"
    },
    {
      "channel": 0,
      "note": 56,
      "start": 120.4944,
      "duration": 0.1839,
      "velocity": 127,
      "chip": "ym2612"
    },
    {
      "channel": 3,
      "note": 90,
      "start": 120.495,
      "duration": 0.1848,
      "velocity": 89,
      "chip": "ym2612"
    },
    {
      "channel": 4,
      "note": 85,
      "start": 120.4955,
      "duration": 0.1848,
      "velocity": 89,
      "chip": "ym2612"
    },
    {
      "channel": 0,
      "note": 59,
      "start": 120.6785,
      "duration": 0.1719,
      "velocity": 127,
      "chip": "ym2612"
    },
    {
      "channel": 1,
      "note": 85,
      "start": 120.679,
      "duration": 0.3398,
      "velocity": 109,
      "chip": "ym2612"
    },
    {
      "channel": 2,
      "note": 90,
      "start": 120.6795,
      "duration": 0.3398,
      "velocity": 109,
      "chip": "ym2612"
    },
    {
      "channel": 3,
      "note": 88,
      "start": 120.68,
      "duration": 0.171,
      "velocity": 89,
      "chip": "ym2612"
    },
    {
      "channel": 4,
      "note": 83,
      "start": 120.6805,
      "duration": 0.171,
      "velocity": 89,
      "chip": "ym2612"
    },
    {
      "channel": 0,
      "note": 61,
      "start": 120.8506,
      "duration": 0.1677,
      "velocity": 114,
      "chip": "ym2612"
    },
    {
      "channel": 3,
      "note": 91,
      "start": 120.8511,
      "duration": 0.0836,
      "velocity": 89,
      "chip": "ym2612"
    },
    {
      "channel": 4,
      "note": 87,
      "start": 120.8516,
      "duration": 0.0836,
      "velocity": 89,
      "chip": "ym2612"
    },
    {
      "channel": 3,
      "note": 92,
      "start": 120.9349,
      "duration": 0.2622,
      "velocity": 89,
      "chip": "ym2612"
    },
    {
      "channel": 4,
      "note": 88,
      "start": 120.9354,
      "duration": 0.2622,
      "velocity": 89,
      "chip": "ym2612"
    },
    {
      "channel": 0,
      "note": 61,
      "start": 121.0184,
      "duration": 0.0887,
      "velocity": 127,
      "chip": "ym2612"
    },
    {
      "channel": 1,
      "note": 85,
      "start": 121.0189,
      "duration": 0.1772,
      "velocity": 109,
      "chip": "ym2612"
    },
    {
      "channel": 2,
      "note": 90,
      "start": 121.0194,
      "duration": 0.1772,
      "velocity": 109,
      "chip": "ym2612"
    },
    {
      "channel": 0,
      "note": 61,
      "start": 121.1073,
      "duration": 0.0883,
      "velocity": 127,
      "chip": "ym2612"
    },
    {
      "channel": 0,
      "note": 59,
      "start": 121.1958,
      "duration": 0.1817,
      "velocity": 127,
      "chip": "ym2612"
    },
    {
      "channel": 1,
      "note": 85,
      "start": 121.1963,
      "duration": 0.3587,
      "velocity": 109,
      "chip": "ym2612"
    },
    {
      "channel": 2,
      "note": 88,
      "start": 121.1968,
      "duration": 0.3587,
      "velocity": 109,
      "chip": "ym2612"
    },
    {
      "channel": 3,
      "note": 97,
      "start": 121.1973,
      "duration": 0.3587,
      "velocity": 89,
      "chip": "ym2612"
    },
    {
      "channel": 4,
      "note": 92,
      "start": 121.1978,
      "duration": 0.3587,
      "velocity": 89,
      "chip": "ym2612"
    },
    {
      "channel": 0,
      "note": 56,
      "start": 121.3776,
      "duration": 0.1768,
      "velocity": 127,
      "chip": "ym2612"
    },
    {
      "channel": 0,
      "note": 54,
      "start": 121.5547,
      "duration": 0.19,
      "velocity": 114,
      "chip": "ym2612"
    },
    {
      "channel": 1,
      "note": 85,
      "start": 121.5552,
      "duration": 0.19,
      "velocity": 109,
      "chip": "ym2612"
    },
    {
      "channel": 2,
      "note": 87,
      "start": 121.5557,
      "duration": 0.19,
      "velocity": 109,
      "chip": "ym2612"
    },
    {
      "channel": 3,
      "note": 91,
      "start": 121.5562,
      "duration": 0.0873,
      "velocity": 89,
      "chip": "ym2612"
    },
    {
      "channel": 4,
      "note": 88,
      "start": 121.5567,
      "duration": 0.0873,
      "velocity": 89,
      "chip": "ym2612"
    },
    {
      "channel": 3,
      "note": 90,
      "start": 121.6436,
      "duration": 0.1026,
      "velocity": 89,
      "chip": "ym2612"
    },
    {
      "channel": 4,
      "note": 87,
      "start": 121.6441,
      "duration": 0.1026,
      "velocity": 89,
      "chip": "ym2612"
    },
    {
      "channel": 0,
      "note": 54,
      "start": 121.7449,
      "duration": 0.0908,
      "velocity": 127,
      "chip": "ym2612"
    },
    {
      "channel": 1,
      "note": 85,
      "start": 121.7454,
      "duration": 0.3531,
      "velocity": 109,
      "chip": "ym2612"
    },
    {
      "channel": 2,
      "note": 88,
      "start": 121.7459,
      "duration": 0.3531,
      "velocity": 109,
      "chip": "ym2612"
    },
    {
      "channel": 3,
      "note": 88,
      "start": 121.7464,
      "duration": 0.1748,
      "velocity": 89,
      "chip": "ym2612"
    },
    {
      "channel": 4,
      "note": 85,
      "start": 121.7469,
      "duration": 0.1748,
      "velocity": 89,
      "chip": "ym2612"
    },
    {
      "channel": 0,
      "note": 54,
      "start": 121.8359,
      "duration": 0.0848,
      "velocity": 127,
      "chip": "ym2612"
    },
    {
      "channel": 0,
      "note": 56,
      "start": 121.9208,
      "duration": 0.1772,
      "velocity": 127,
      "chip": "ym2612"
    },
    {
      "channel": 3,
      "note": 85,
      "start": 121.9215,
      "duration": 0.1781,
      "velocity": 89,
      "chip": "ym2612"
    },
    {
      "channel": 4,
      "note": 78,
      "start": 121.922,
      "duration": 0.1781,
      "velocity": 89,
      "chip": "ym2612"
    },
    {
      "channel": 0,
      "note": 59,
      "start": 122.0982,
      "duration": 0.1735,
      "velocity": 127,
      "chip": "ym2612"
    },
    {
      "channel": 1,
      "note": 85,
      "start": 122.0987,
      "duration": 0.1735,
      "velocity": 109,
      "chip": "ym2612"
    },
    {
      "channel": 2,
      "note": 87,
      "start": 122.0992,
      "duration": 0.1735,
      "velocity": 109,
      "chip": "ym2612"
    },
    {
      "channel": 3,
      "note": 83,
      "start": 122.0997,
      "duration": 0.1735,
      "velocity": 89,
      "chip": "ym2612"
    },
    {
      "channel": 4,
      "note": 80,
      "start": 122.1002,
      "duration": 0.1735,
      "velocity": 89,
      "chip": "ym2612"
    },
    {
      "channel": 0,
      "note": 61,
      "start": 122.2719,
      "duration": 0.1728,
      "velocity": 114,
      "chip": "ym2612"
    },
    {
      "channel": 1,
      "note": 83,
      "start": 122.2724,
      "duration": 0.1728,
      "velocity": 109,
      "chip": "ym2612"
    },
    {
      "channel": 2,
      "note": 88,
      "start": 122.2728,
      "duration": 0.1728,
      "velocity": 109,
      "chip": "ym2612"
    },
    {
      "channel": 3,
      "note": 85,
      "start": 122.2733,
      "duration": 0.3469,
      "velocity": 89,
      "chip": "ym2612"
    },
    {
      "channel": 4,
      "note": 80,
      "start": 122.2739,
      "duration": 0.3468,
      "velocity": 89,
      "chip": "ym2612"
    },
    {
      "channel": 0,
      "note": 61,
      "start": 122.4448,
      "duration": 0.086,
      "velocity": 127,
      "chip": "ym2612"
    },
    {
      "channel": 1,
      "note": 83,
      "start": 122.4454,
      "duration": 0.3551,
      "velocity": 109,
      "chip": "ym2612"
    },
    {
      "channel": 2,
      "note": 87,
      "start": 122.4459,
      "duration": 0.3551,
      "velocity": 109,
      "chip": "ym2612"
    },
    {
      "channel": 0,
      "note": 61,
      "start": 122.531,
      "duration": 0.0886,
      "velocity": 127,
      "chip": "ym2612"
    },
    {
      "channel": 0,
      "note": 59,
      "start": 122.6199,
      "duration": 0.1801,
      "velocity": 127,
      "chip": "ym2612"
    },
    {
      "channel": 3,
      "note": 87,
      "start": 122.6204,
      "duration": 0.1811,
      "velocity": 89,
      "chip": "ym2612"
    },
    {
      "channel": 4,
      "note": 83,
      "start": 122.621,
      "duration": 0.181,
      "velocity": 89,
      "chip": "ym2612"
    },
    {
      "channel": 0,
      "note": 56,
      "start": 122.8002,
      "duration": 0.1725,
      "velocity": 127,
      "chip": "ym2612"
    },
    {
      "channel": 1,
      "note": 83,
      "start": 122.8007,
      "duration": 0.7254,
      "velocity": 109,
      "chip": "ym2612"
    },
    {
      "channel": 2,
      "note": 87,
      "start": 122.8012,
      "duration": 0.7254,
      "velocity": 109,
      "chip": "ym2612"
    },
    {
      "channel": 3,
      "note": 85,
      "start": 122.8017,
      "duration": 0.1716,
      "velocity": 89,
      "chip": "ym2612"
    },
    {
      "channel": 4,
      "note": 80,
      "start": 122.8022,
      "duration": 0.1717,
      "velocity": 89,
      "chip": "ym2612"
    },
    {
      "channel": 0,
      "note": 54,
      "start": 122.9729,
      "duration": 0.1959,
      "velocity": 114,
      "chip": "ym2612"
    },
    {
      "channel": 3,
      "note": 88,
      "start": 122.9735,
      "duration": 0.1959,
      "velocity": 89,
      "chip": "ym2612"
    },
    {
      "channel": 4,
      "note": 85,
      "start": 122.974,
      "duration": 0.196,
      "velocity": 89,
      "chip": "ym2612"
    },
    {
      "channel": 0,
      "note": 54,
      "start": 123.169,
      "duration": 0.0941,
      "velocity": 127,
      "chip": "ym2612"
    },
    {
      "channel": 3,
      "note": 90,
      "start": 123.1697,
      "duration": 0.1783,
      "velocity": 89,
      "chip": "ym2612"
    },
    {
      "channel": 4,
      "note": 87,
      "start": 123.1702,
      "duration": 0.1783,
      "velocity": 89,
      "chip": "ym2612"
    },
    {
      "channel": 0,
      "note": 54,
      "start": 123.2633,
      "duration": 0.084,
      "velocity": 127,
      "chip": "ym2612"
    },
    {
      "channel": 0,
      "note": 56,
      "start": 123.3475,
      "duration": 0.1781,
      "velocity": 127,
      "chip": "ym2612"
    },
    {
      "channel": 3,
      "note": 88,
      "start": 123.3481,
      "duration": 0.179,
      "velocity": 89,
      "chip": "ym2612"
    },
    {
      "channel": 4,
      "note": 85,
      "start": 123.3486,
      "duration": 0.179,
      "velocity": 89,
      "chip": "ym2612"
    },
    {
      "channel": 0,
      "note": 59,
      "start": 123.5258,
      "duration": 0.1734,
      "velocity": 127,
      "chip": "ym2612"
    },
    {
      "channel": 1,
      "note": 83,
      "start": 123.5263,
      "duration": 0.3448,
      "velocity": 109,
      "chip": "ym2612"
    },
    {
      "channel": 2,
      "note": 88,
      "start": 123.5268,
      "duration": 0.3448,
      "velocity": 109,
      "chip": "ym2612"
    },
    {
      "channel": 3,
      "note": 91,
      "start": 123.5273,
      "duration": 0.0838,
      "velocity": 89,
      "chip": "ym2612"
    },
    {
      "channel": 4,
      "note": 87,
      "start": 123.5278,
      "duration": 0.0838,
      "velocity": 89,
      "chip": "ym2612"
    },
    {
      "channel": 3,
      "note": 92,
      "start": 123.6112,
      "duration": 0.2608,
      "velocity": 89,
      "chip": "ym2612"
    },
    {
      "channel": 4,
      "note": 88,
      "start": 123.6118,
      "duration": 0.2608,
      "velocity": 89,
      "chip": "ym2612"
    },
    {
      "channel": 0,
      "note": 61,
      "start": 123.6994,
      "duration": 0.1711,
      "velocity": 114,
      "chip": "ym2612"
    },
    {
      "channel": 0,
      "note": 61,
      "start": 123.8707,
      "duration": 0.0866,
      "velocity": 127,
      "chip": "ym2612"
    },
    {
      "channel": 1,
      "note": 83,
      "start": 123.8712,
      "duration": 0.1741,
      "velocity": 109,
      "chip": "ym2612"
    },
    {
      "channel": 2,
      "note": 88,
      "start": 123.8717,
      "duration": 0.1741,
      "velocity": 109,
      "chip": "ym2612"
    },
    {
      "channel": 3,
      "note": 91,
      "start": 123.8722,
      "duration": 0.0856,
      "velocity": 89,
      "chip": "ym2612"
    },
    {
      "channel": 4,
      "note": 87,
      "start": 123.8727,
      "duration": 0.0856,
      "velocity": 89,
      "chip": "ym2612"
    },
    {
      "channel": 0,
      "note": 61,
      "start": 123.9574,
      "duration": 0.0874,
      "velocity": 127,
      "chip": "ym2612"
    },
    {
      "channel": 3,
      "note": 92,
      "start": 123.958,
      "duration": 0.264,
      "velocity": 89,
      "chip": "ym2612"
    },
    {
      "channel": 4,
      "note": 88,
      "start": 123.9585,
      "duration": 0.264,
      "velocity": 89,
      "chip": "ym2612"
    },
    {
      "channel": 0,
      "note": 59,
      "start": 124.045,
      "duration": 0.1764,
      "velocity": 127,
      "chip": "ym2612"
    },
    {
      "channel": 1,
      "note": 83,
      "start": 124.0454,
      "duration": 0.3603,
      "velocity": 109,
      "chip": "ym2612"
    },
    {
      "channel": 2,
      "note": 87,
      "start": 124.046,
      "duration": 0.3603,
      "velocity": 109,
      "chip": "ym2612"
    },
    {
      "channel": 0,
      "note": 56,
      "start": 124.2216,
      "duration": 0.1836,
      "velocity": 127,
      "chip": "ym2612"
    },
    {
      "channel": 3,
      "note": 91,
      "start": 124.2222,
      "duration": 0.0942,
      "velocity": 89,
      "chip": "ym2612"
    },
    {
      "channel": 4,
      "note": 87,
      "start": 124.2227,
      "duration": 0.0942,
      "velocity": 89,
      "chip": "ym2612"
    },
    {
      "channel": 3,
      "note": 92,
      "start": 124.3166,
      "duration": 0.0901,
      "velocity": 89,
      "chip": "ym2612"
    },
    {
      "channel": 4,
      "note": 88,
      "start": 124.3171,
      "duration": 0.0901,
      "velocity": 89,
      "chip": "ym2612"
    },
    {
      "channel": 0,
      "note": 54,
      "start": 124.4054,
      "duration": 0.19,
      "velocity": 114,
      "chip": "ym2612"
    },
    {
      "channel": 1,
      "note": 83,
      "start": 124.4059,
      "duration": 0.19,
      "velocity": 109,
      "chip": "ym2612"
    },
    {
      "channel": 2,
      "note": 85,
      "start": 124.4064,
      "duration": 0.19,
      "velocity": 109,
      "chip": "ym2612"
    },
    {
      "channel": 3,
      "note": 90,
      "start": 124.4069,
      "duration": 0.0872,
      "velocity": 89,
      "chip": "ym2612"
    },
    {
      "channel": 4,
      "note": 87,
      "start": 124.4074,
      "duration": 0.0872,
      "velocity": 89,
      "chip": "ym2612"
    },
    {
      "channel": 3,
      "note": 88,
      "start": 124.4943,
      "duration": 0.1026,
      "velocity": 89,
      "chip": "ym2612"
    },
    {
      "channel": 4,
      "note": 85,
      "start": 124.4948,
      "duration": 0.1026,
      "velocity": 89,
      "chip": "ym2612"
    },
    {
      "channel": 0,
      "note": 54,
      "start": 124.5956,
      "duration": 0.0887,
      "velocity": 127,
      "chip": "ym2612"
    },
    {
      "channel": 1,
      "note": 83,
      "start": 124.5961,
      "duration": 0.3524,
      "velocity": 109,
      "chip": "ym2612"
    },
    {
      "channel": 2,
      "note": 87,
      "start": 124.5966,
      "duration": 0.3524,
      "velocity": 109,
      "chip": "ym2612"
    },
    {
      "channel": 3,
      "note": 85,
      "start": 124.5971,
      "duration": 0.1748,
      "velocity": 89,
      "chip": "ym2612"
    },
    {
      "channel": 4,
      "note": 80,
      "start": 124.5976,
      "duration": 0.1748,
      "velocity": 89,
      "chip": "ym2612"
    },
    {
      "channel": 0,
      "note": 54,
      "start": 124.6843,
      "duration": 0.087,
      "velocity": 127,
      "chip": "ym2612"
    },
    {
      "channel": 0,
      "note": 56,
      "start": 124.7715,
      "duration": 0.0869,
      "velocity": 127,
      "chip": "ym2612"
    },
    {
      "channel": 3,
      "note": 83,
      "start": 124.7721,
      "duration": 0.0869,
      "velocity": 89,
      "chip": "ym2612"
    },
    {
      "channel": 4,
      "note": 78,
      "start": 124.7726,
      "duration": 0.0869,
      "velocity": 89,
      "chip": "ym2612"
    },
    {
      "channel": 0,
      "note": 59,
      "start": 124.8585,
      "duration": 0.0894,
      "velocity": 127,
      "chip": "ym2612"
    },
    {
      "channel": 3,
      "note": 84,
      "start": 124.8592,
      "duration": 0.0903,
      "velocity": 89,
      "chip": "ym2612"
    },
    {
      "channel": 4,
      "note": 79,
      "start": 124.8597,
      "duration": 0.0903,
      "velocity": 89,
      "chip": "ym2612"
    },
    {
      "channel": 0,
      "note": 61,
      "start": 124.9481,
      "duration": 0.0893,
      "velocity": 127,
      "chip": "ym2612"
    },
    {
      "channel": 1,
      "note": 83,
      "start": 124.9485,
      "duration": 0.1791,
      "velocity": 109,
      "chip": "ym2612"
    },
    {
      "channel": 2,
      "note": 88,
      "start": 124.9491,
      "duration": 0.1791,
      "velocity": 109,
      "chip": "ym2612"
    },
    {
      "channel": 3,
      "note": 85,
      "start": 124.9496,
      "duration": 0.1792,
      "velocity": 89,
      "chip": "ym2612"
    },
    {
      "channel": 4,
      "note": 80,
      "start": 124.9501,
      "duration": 0.2617,
      "velocity": 89,
      "chip": "ym2612"
    },
    {
      "channel": 0,
      "note": 64,
      "start": 125.0376,
      "duration": 0.0895,
      "velocity": 127,
      "chip": "ym2612"
    },
    {
      "channel": 0,
      "note": 61,
      "start": 125.1273,
      "duration": 0.1685,
      "velocity": 114,
      "chip": "ym2612"
    },
    {
      "channel": 1,
      "note": 87,
      "start": 125.1278,
      "duration": 0.1685,
      "velocity": 109,
      "chip": "ym2612"
    },
    {
      "channel": 2,
      "note": 93,
      "start": 125.1284,
      "duration": 0.1685,
      "velocity": 109,
      "chip": "ym2612"
    },
    {
      "channel": 3,
      "note": 73,
      "start": 125.1289,
      "duration": 0.1684,
      "velocity": 89,
      "chip": "ym2612"
    },
    {
      "channel": 4,
      "note": 76,
      "start": 125.2119,
      "duration": 0.1725,
      "velocity": 89,
      "chip": "ym2612"
    },
    {
      "channel": 0,
      "note": 61,
      "start": 125.296,
      "duration": 0.0878,
      "velocity": 127,
      "chip": "ym2612"
    },
    {
      "channel": 1,
      "note": 85,
      "start": 125.2965,
      "duration": 0.3532,
      "velocity": 109,
      "chip": "ym2612"
    },
    {
      "channel": 2,
      "note": 93,
      "start": 125.297,
      "duration": 0.3532,
      "velocity": 109,
      "chip": "ym2612"
    },
    {
      "channel": 3,
      "note": 78,
      "start": 125.2976,
      "duration": 0.1731,
      "velocity": 89,
      "chip": "ym2612"
    },
    {
      "channel": 0,
      "note": 61,
      "start": 125.384,
      "duration": 0.0861,
      "velocity": 127,
      "chip": "ym2612"
    },
    {
      "channel": 4,
      "note": 80,
      "start": 125.3846,
      "duration": 0.0866,
      "velocity": 89,
      "chip": "ym2612"
    },
    {
      "channel": 0,
      "note": 59,
      "start": 125.4703,
      "duration": 0.1789,
      "velocity": 127,
      "chip": "ym2612"
    },
    {
      "channel": 3,
      "note": 85,
      "start": 125.4708,
      "duration": 0.1799,
      "velocity": 89,
      "chip": "ym2612"
    },
    {
      "channel": 4,
      "note": 80,
      "start": 125.4714,
      "duration": 0.1799,
      "velocity": 89,
      "chip": "ym2612"
    },
    {
      "channel": 0,
      "note": 56,
      "start": 125.6494,
      "duration": 0.1813,
      "velocity": 127,
      "chip": "ym2612"
    },
    {
      "channel": 1,
      "note": 85,
      "start": 125.6499,
      "duration": 0.7285,
      "velocity": 109,
      "chip": "ym2612"
    },
    {
      "channel": 2,
      "note": 93,
      "start": 125.6504,
      "duration": 0.7284,
      "velocity": 109,
      "chip": "ym2612"
    },
    {
      "channel": 3,
      "note": 88,
      "start": 125.6509,
      "duration": 0.1804,
      "velocity": 89,
      "chip": "ym2612"
    },
    {
      "channel": 4,
      "note": 83,
      "start": 125.6514,
      "duration": 0.1804,
      "velocity": 89,
      "chip": "ym2612"
    },
    {
      "channel": 0,
      "note": 54,
      "start": 125.8309,
      "duration": 0.1901,
      "velocity": 114,
      "chip": "ym2612"
    },
    {
      "channel": 3,
      "note": 90,
      "start": 125.8315,
      "duration": 0.1901,
      "velocity": 89,
      "chip": "ym2612"
    },
    {
      "channel": 4,
      "note": 85,
      "start": 125.832,
      "duration": 0.1901,
      "velocity": 89,
      "chip": "ym2612"
    },
    {
      "channel": 0,
      "note": 54,
      "start": 126.0212,
      "duration": 0.0941,
      "velocity": 127,
      "chip": "ym2612"
    },
    {
      "channel": 3,
      "note": 91,
      "start": 126.0218,
      "duration": 0.1814,
      "velocity": 89,
      "chip": "ym2612"
    },
    {
      "channel": 4,
      "note": 86,
      "start": 126.0223,
      "duration": 0.1814,
      "velocity": 89,
      "chip": "ym2612"
    },
    {
      "channel": 0,
      "note": 54,
      "start": 126.1155,
      "duration": 0.0871,
      "velocity": 127,
      "chip": "ym2612"
    },
    {
      "channel": 0,
      "note": 56,
      "start": 126.2028,
      "duration": 0.175,
      "velocity": 127,
      "chip": "ym2612"
    },
    {
      "channel": 3,
      "note": 92,
      "start": 126.2034,
      "duration": 0.176,
      "velocity": 89,
      "chip": "ym2612"
    },
    {
      "channel": 4,
      "note": 88,
      "start": 126.2039,
      "duration": 0.176,
      "velocity": 89,
      "chip": "ym2612"
    },
    {
      "channel": 0,
      "note": 59,
      "start": 126.378,
      "duration": 0.1753,
      "velocity": 127,
      "chip": "ym2612"
    },
    {
      "channel": 1,
      "note": 88,
      "start": 126.3785,
      "duration": 0.3454,
      "velocity": 109,
      "chip": "ym2612"
    },
    {
      "channel": 2,
      "note": 93,
      "start": 126.3791,
      "duration": 0.3454,
      "velocity": 109,
      "chip": "ym2612"
    },
    {
      "channel": 3,
      "note": 95,
      "start": 126.3796,
      "duration": 0.0858,
      "velocity": 89,
      "chip": "ym2612"
    },
    {
      "channel": 4,
      "note": 90,
      "start": 126.3801,
      "duration": 0.0858,
      "velocity": 89,
      "chip": "ym2612"
    },
    {
      "channel": 3,
      "note": 97,
      "start": 126.4656,
      "duration": 0.2594,
      "velocity": 89,
      "chip": "ym2612"
    },
    {
      "channel": 4,
      "note": 92,
      "start": 126.4661,
      "duration": 0.2594,
      "velocity": 89,
      "chip": "ym2612"
    },
    {
      "channel": 0,
      "note": 61,
      "start": 126.5536,
      "duration": 0.1699,
      "velocity": 114,
      "chip": "ym2612"
    },
    {
      "channel": 0,
      "note": 61,
      "start": 126.7236,
      "duration": 0.0865,
      "velocity": 127,
      "chip": "ym2612"
    },
    {
      "channel": 1,
      "note": 88,
      "start": 126.7241,
      "duration": 0.1703,
      "velocity": 109,
      "chip": "ym2612"
    },
    {
      "channel": 2,
      "note": 93,
      "start": 126.7246,
      "duration": 0.1703,
      "velocity": 109,
      "chip": "ym2612"
    },
    {
      "channel": 3,
      "note": 95,
      "start": 126.7251,
      "duration": 0.3476,
      "velocity": 89,
      "chip": "ym2612"
    },
    {
      "channel": 4,
      "note": 90,
      "start": 126.7256,
      "duration": 0.3476,
      "velocity": 89,
      "chip": "ym2612"
    },
    {
      "channel": 0,
      "note": 61,
      "start": 126.8102,
      "duration": 0.0837,
      "velocity": 127,
      "chip": "ym2612"
    },
    {
      "channel": 0,
      "note": 59,
      "start": 126.8941,
      "duration": 0.178,
      "velocity": 127,
      "chip": "ym2612"
    },
    {
      "channel": 1,
      "note": 90,
      "start": 126.8946,
      "duration": 0.3583,
      "velocity": 109,
      "chip": "ym2612"
    },
    {
      "channel": 2,
      "note": 93,
      "start": 126.8951,
      "duration": 0.3583,
      "velocity": 109,
      "chip": "ym2612"
    },
    {
      "channel": 0,
      "note": 56,
      "start": 127.0723,
      "duration": 0.1801,
      "velocity": 127,
      "chip": "ym2612"
    },
    {
      "channel": 3,
      "note": 92,
      "start": 127.0729,
      "duration": 0.181,
      "velocity": 89,
      "chip": "ym2612"
    },
    {
      "channel": 4,
      "note": 88,
      "start": 127.0734,
      "duration": 0.1811,
      "velocity": 89,
      "chip": "ym2612"
    },
    {
      "channel": 0,
      "note": 54,
      "start": 127.2526,
      "duration": 0.1856,
      "velocity": 114,
      "chip": "ym2612"
    },
    {
      "channel": 1,
      "note": 88,
      "start": 127.2531,
      "duration": 0.1856,
      "velocity": 109,
      "chip": "ym2612"
    },
    {
      "channel": 2,
      "note": 93,
      "start": 127.2536,
      "duration": 0.1856,
      "velocity": 109,
      "chip": "ym2612"
    },
    {
      "channel": 3,
      "note": 90,
      "start": 127.2541,
      "duration": 0.0828,
      "velocity": 89,
      "chip": "ym2612"
    },
    {
      "channel": 4,
      "note": 85,
      "start": 127.2546,
      "duration": 0.0828,
      "velocity": 89,
      "chip": "ym2612"
    },
    {
      "channel": 3,
      "note": 92,
      "start": 127.3371,
      "duration": 0.1026,
      "velocity": 89,
      "chip": "ym2612"
    },
    {
      "channel": 4,
      "note": 88,
      "start": 127.3376,
      "duration": 0.1026,
      "velocity": 89,
      "chip": "ym2612"
    },
    {
      "channel": 0,
      "note": 54,
      "start": 127.4384,
      "duration": 0.0887,
      "velocity": 127,
      "chip": "ym2612"
    },
    {
      "channel": 1,
      "note": 87,
      "start": 127.4389,
      "duration": 0.3532,
      "velocity": 109,
      "chip": "ym2612"
    },
    {
      "channel": 2,
      "note": 93,
      "start": 127.4394,
      "duration": 0.3532,
      "velocity": 109,
      "chip": "ym2612"
    },
    {
      "channel": 3,
      "note": 95,
      "start": 127.4399,
      "duration": 0.1715,
      "velocity": 89,
      "chip": "ym2612"
    },
    {
      "channel": 4,
      "note": 90,
      "start": 127.4404,
      "duration": 0.1715,
      "velocity": 89,
      "chip": "ym2612"
    },
    {
      "channel": 0,
      "note": 54,
      "start": 127.5271,
      "duration": 0.0837,
      "velocity": 127,
      "chip": "ym2612"
    },
    {
      "channel": 0,
      "note": 56,
      "start": 127.611,
      "duration": 0.1805,
      "velocity": 127,
      "chip": "ym2612"
    },
    {
      "channel": 3,
      "note": 97,
      "start": 127.6116,
      "duration": 0.0864,
      "velocity": 89,
      "chip": "ym2612"
    },
    {
      "channel": 4,
      "note": 93,
      "start": 127.6122,
      "duration": 0.0864,
      "velocity": 89,
      "chip": "ym2612"
    },
    {
      "channel": 3,
      "note": 100,
      "start": 127.6983,
      "duration": 0.0948,
      "velocity": 89,
      "chip": "ym2612"
    },
    {
      "channel": 4,
      "note": 95,
      "start": 127.6988,
      "duration": 0.0948,
      "velocity": 89,
      "chip": "ym2612"
    },
    {
      "channel": 0,
      "note": 59,
      "start": 127.7917,
      "duration": 0.1752,
      "velocity": 127,
      "chip": "ym2612"
    },
    {
      "channel": 1,
      "note": 88,
      "start": 127.7922,
      "duration": 0.1752,
      "velocity": 109,
      "chip": "ym2612"
    },
    {
      "channel": 2,
      "note": 93,
      "start": 127.7927,
      "duration": 0.1752,
      "velocity": 109,
      "chip": "ym2612"
    },
    {
      "channel": 3,
      "note": 102,
      "start": 127.7932,
      "duration": 0.1752,
      "velocity": 89,
      "chip": "ym2612"
    },
    {
      "channel": 4,
      "note": 99,
      "start": 127.7937,
      "duration": 0.1752,
      "velocity": 89,
      "chip": "ym2612"
    },
    {
      "channel": 0,
      "note": 61,
      "start": 127.9671,
      "duration": 0.1785,
      "velocity": 114,
      "chip": "ym2612"
    },
    {
      "channel": 1,
      "note": 90,
      "start": 127.9676,
      "duration": 0.1785,
      "velocity": 109,
      "chip": "ym2612"
    },
    {
      "channel": 2,
      "note": 83,
      "start": 127.9681,
      "duration": 0.1785,
      "velocity": 109,
      "chip": "ym2612"
    },
    {
      "channel": 3,
      "note": 102,
      "start": 127.9686,
      "duration": 0.1785,
      "velocity": 89,
      "chip": "ym2612"
    },
    {
      "channel": 4,
      "note": 99,
      "start": 127.9691,
      "duration": 0.1785,
      "velocity": 89,
      "chip": "ym2612"
    },
    {
      "channel": 0,
      "note": 61,
      "start": 128.1457,
      "duration": 0.0908,
      "velocity": 127,
      "chip": "ym2612"
    },
    {
      "channel": 1,
      "note": 87,
      "start": 128.1463,
      "duration": 0.3522,
      "velocity": 109,
      "chip": "ym2612"
    },
    {
      "channel": 2,
      "note": 83,
      "start": 128.1468,
      "duration": 0.3522,
      "velocity": 109,
      "chip": "ym2612"
    },
    {
      "channel": 3,
      "note": 99,
      "start": 128.1473,
      "duration": 0.1721,
      "velocity": 89,
      "chip": "ym2612"
    },
    {
      "channel": 4,
      "note": 95,
      "start": 128.1478,
      "duration": 0.1721,
      "velocity": 89,
      "chip": "ym2612"
    },
    {
      "channel": 0,
      "note": 61,
      "start": 128.2367,
      "duration": 0.0821,
      "velocity": 127,
      "chip": "ym2612"
    },
    {
      "channel": 0,
      "note": 59,
      "start": 128.319,
      "duration": 0.179,
      "velocity": 127,
      "chip": "ym2612"
    },
    {
      "channel": 3,
      "note": 97,
      "start": 128.3196,
      "duration": 0.18,
      "velocity": 89,
      "chip": "ym2612"
    },
    {
      "channel": 4,
      "note": 92,
      "start": 128.3201,
      "duration": 0.1799,
      "velocity": 89,
      "chip": "ym2612"
    },
    {
      "channel": 0,
      "note": 56,
      "start": 128.4982,
      "duration": 0.1742,
      "velocity": 127,
      "chip": "ym2612"
    },
    {
      "channel": 1,
      "note": 87,
      "start": 128.4987,
      "duration": 0.7245,
      "velocity": 109,
      "chip": "ym2612"
    },
    {
      "channel": 2,
      "note": 83,
      "start": 128.4992,
      "duration": 0.7245,
      "velocity": 109,
      "chip": "ym2612"
    },
    {
      "channel": 3,
      "note": 99,
      "start": 128.4997,
      "duration": 0.3618,
      "velocity": 89,
      "chip": "ym2612"
    },
    {
      "channel": 4,
      "note": 95,
      "start": 128.5002,
      "duration": 0.3618,
      "velocity": 89,
      "chip": "ym2612"
    },
    {
      "channel": 0,
      "note": 54,
      "start": 128.6726,
      "duration": 0.1883,
      "velocity": 114,
      "chip": "ym2612"
    },
    {
      "channel": 0,
      "note": 54,
      "start": 128.8611,
      "duration": 0.0942,
      "velocity": 127,
      "chip": "ym2612"
    },
    {
      "channel": 3,
      "note": 95,
      "start": 128.8617,
      "duration": 0.3625,
      "velocity": 89,
      "chip": "ym2612"
    },
    {
      "channel": 4,
      "note": 92,
      "start": 128.8622,
      "duration": 0.3625,
      "velocity": 89,
      "chip": "ym2612"
    },
    {
      "channel": 0,
      "note": 54,
      "start": 128.9555,
      "duration": 0.0871,
      "velocity": 127,
      "chip": "ym2612"
    },
    {
      "channel": 0,
      "note": 56,
      "start": 129.0427,
      "duration": 0.1799,
      "velocity": 127,
      "chip": "ym2612"
    },
    {
      "channel": 0,
      "note": 59,
      "start": 129.2229,
      "duration": 0.1738,
      "velocity": 127,
      "chip": "ym2612"
    },
    {
      "channel": 1,
      "note": 90,
      "start": 129.2234,
      "duration": 0.3456,
      "velocity": 109,
      "chip": "ym2612"
    },
    {
      "channel": 2,
      "note": 83,
      "start": 129.2239,
      "duration": 0.3456,
      "velocity": 109,
      "chip": "ym2612"
    },
    {
      "channel": 3,
      "note": 92,
      "start": 129.2244,
      "duration": 0.3456,
      "velocity": 89,
      "chip": "ym2612"
    },
    {
      "channel": 4,
      "note": 88,
      "start": 129.2249,
      "duration": 0.3456,
      "velocity": 89,
      "chip": "ym2612"
    },
    {
      "channel": 0,
      "note": 61,
      "start": 129.3968,
      "duration": 0.1717,
      "velocity": 114,
      "chip": "ym2612"
    },
    {
      "channel": 0,
      "note": 61,
      "start": 129.5685,
      "duration": 0.0908,
      "velocity": 127,
      "chip": "ym2612"
    },
    {
      "channel": 1,
      "note": 90,
      "start": 129.569,
      "duration": 0.1783,
      "velocity": 109,
      "chip": "ym2612"
    },
    {
      "channel": 2,
      "note": 83,
      "start": 129.5695,
      "duration": 0.1783,
      "velocity": 109,
      "chip": "ym2612"
    },
    {
      "channel": 3,
      "note": 90,
      "start": 129.5701,
      "duration": 0.3556,
      "velocity": 89,
      "chip": "ym2612"
    },
    {
      "channel": 4,
      "note": 87,
      "start": 129.5706,
      "duration": 0.3556,
      "velocity": 89,
      "chip": "ym2612"
    },
    {
      "channel": 0,
      "note": 61,
      "start": 129.6595,
      "duration": 0.0874,
      "velocity": 127,
      "chip": "ym2612"
    },
    {
      "channel": 0,
      "note": 59,
      "start": 129.7471,
      "duration": 0.178,
      "velocity": 127,
      "chip": "ym2612"
    },
    {
      "channel": 1,
      "note": 92,
      "start": 129.7476,
      "duration": 0.3583,
      "velocity": 109,
      "chip": "ym2612"
    },
    {
      "channel": 2,
      "note": 83,
      "start": 129.748,
      "duration": 0.3583,
      "velocity": 109,
      "chip": "ym2612"
    },
    {
      "channel": 0,
      "note": 56,
      "start": 129.9253,
      "duration": 0.18,
      "velocity": 127,
      "chip": "ym2612"
    },
    {
      "channel": 3,
      "note": 92,
      "start": 129.9259,
      "duration": 0.181,
      "velocity": 89,
      "chip": "ym2612"
    },
    {
      "channel": 4,
      "note": 88,
      "start": 129.9264,
      "duration": 0.181,
      "velocity": 89,
      "chip": "ym2612"
    },
    {
      "channel": 0,
      "note": 54,
      "start": 130.1055,
      "duration": 0.1883,
      "velocity": 114,
      "chip": "ym2612"
    },
    {
      "channel": 1,
      "note": 97,
      "start": 130.106,
      "duration": 0.1883,
      "velocity": 109,
      "chip": "ym2612"
    },
    {
      "channel": 2,
      "note": 83,
      "start": 130.1065,
      "duration": 0.1883,
      "velocity": 109,
      "chip": "ym2612"
    },
    {
      "channel": 3,
      "note": 97,
      "start": 130.107,
      "duration": 0.1883,
      "velocity": 89,
      "chip": "ym2612"
    },
    {
      "channel": 4,
      "note": 92,
      "start": 130.1075,
      "duration": 0.1883,
      "velocity": 89,
      "chip": "ym2612"
    },
    {
      "channel": 0,
      "note": 54,
      "start": 130.2939,
      "duration": 0.0888,
      "velocity": 127,
      "chip": "ym2612"
    },
    {
      "channel": 1,
      "note": 95,
      "start": 130.2945,
      "duration": 0.3547,
      "velocity": 109,
      "chip": "ym2612"
    },
    {
      "channel": 2,
      "note": 83,
      "start": 130.295,
      "duration": 0.3547,
      "velocity": 109,
      "chip": "ym2612"
    },
    {
      "channel": 3,
      "note": 97,
      "start": 130.2955,
      "duration": 0.0878,
      "velocity": 89,
      "chip": "ym2612"
    },
    {
      "channel": 4,
      "note": 90,
      "start": 130.296,
      "duration": 0.0878,
      "velocity": 89,
      "chip": "ym2612"
    },
    {
      "channel": 0,
      "note": 54,
      "start": 130.3829,
      "duration": 0.0874,
      "velocity": 127,
      "chip": "ym2612"
    },
    {
      "channel": 3,
      "note": 97,
      "start": 130.3835,
      "duration": 0.0873,
      "velocity": 89,
      "chip": "ym2612"
    },
    {
      "channel": 4,
      "note": 92,
      "start": 130.384,
      "duration": 0.0873,
      "velocity": 89,
      "chip": "ym2612"
    },
    {
      "channel": 0,
      "note": 56,
      "start": 130.4705,
      "duration": 0.0879,
      "velocity": 127,
      "chip": "ym2612"
    },
    {
      "channel": 3,
      "note": 95,
      "start": 130.471,
      "duration": 0.1792,
      "velocity": 89,
      "chip": "ym2612"
    },
    {
      "channel": 4,
      "note": 90,
      "start": 130.4715,
      "duration": 0.1792,
      "velocity": 89,
      "chip": "ym2612"
    },
    {
      "channel": 0,
      "note": 59,
      "start": 130.5585,
      "duration": 0.0902,
      "velocity": 127,
      "chip": "ym2612"
    },
    {
      "channel": 0,
      "note": 61,
      "start": 130.6488,
      "duration": 0.0876,
      "velocity": 127,
      "chip": "ym2612"
    },
    {
      "channel": 1,
      "note": 92,
      "start": 130.6493,
      "duration": 0.1819,
      "velocity": 109,
      "chip": "ym2612"
    },
    {
      "channel": 2,
      "note": 83,
      "start": 130.6498,
      "duration": 0.1819,
      "velocity": 109,
      "chip": "ym2612"
    },
    {
      "channel": 3,
      "note": 95,
      "start": 130.6503,
      "duration": 0.0867,
      "velocity": 89,
      "chip": "ym2612"
    },
    {
      "channel": 4,
      "note": 88,
      "start": 130.6509,
      "duration": 0.0867,
      "velocity": 89,
      "chip": "ym2612"
    },
    {
      "channel": 0,
      "note": 64,
      "start": 130.7366,
      "duration": 0.0941,
      "velocity": 127,
      "chip": "ym2612"
    },
    {
      "channel": 3,
      "note": 95,
      "start": 130.7372,
      "duration": 0.0951,
      "velocity": 89,
      "chip": "ym2612"
    },
    {
      "channel": 4,
      "note": 90,
      "start": 130.7377,
      "duration": 0.0952,
      "velocity": 89,
      "chip": "ym2612"
    },
    {
      "channel": 0,
      "note": 61,
      "start": 130.8309,
      "duration": 0.1713,
      "velocity": 114,
      "chip": "ym2612"
    },
    {
      "channel": 1,
      "note": 85,
      "start": 130.8315,
      "duration": 0.1712,
      "velocity": 109,
      "chip": "ym2612"
    },
    {
      "channel": 2,
      "note": 90,
      "start": 130.832,
      "duration": 0.1712,
      "velocity": 109,
      "chip": "ym2612"
    },
    {
      "channel": 3,
      "note": 85,
      "start": 130.8325,
      "duration": 0.3362,
      "velocity": 89,
      "chip": "ym2612"
    },
    {
      "channel": 4,
      "note": 80,
      "start": 130.833,
      "duration": 0.3362,
      "velocity": 89,
      "chip": "ym2612"
    },
    {
      "channel": 0,
      "note": 61,
      "start": 131.0024,
      "duration": 0.0819,
      "velocity": 127,
      "chip": "ym2612"
    },
    {
      "channel": 1,
      "note": 85,
      "start": 131.0029,
      "duration": 0.3431,
      "velocity": 109,
      "chip": "ym2612"
    },
    {
      "channel": 2,
      "note": 88,
      "start": 131.0034,
      "duration": 0.3431,
      "velocity": 109,
      "chip": "ym2612"
    },
    {
      "channel": 0,
      "note": 61,
      "start": 131.0844,
      "duration": 0.0838,
      "velocity": 127,
      "chip": "ym2612"
    },
    {
      "channel": 0,
      "note": 59,
      "start": 131.1683,
      "duration": 0.1771,
      "velocity": 127,
      "chip": "ym2612"
    },
    {
      "channel": 3,
      "note": 87,
      "start": 131.169,
      "duration": 0.178,
      "velocity": 89,
      "chip": "ym2612"
    },
    {
      "channel": 4,
      "note": 83,
      "start": 131.1695,
      "duration": 0.178,
      "velocity": 89,
      "chip": "ym2612"
    },
    {
      "channel": 0,
      "note": 56,
      "start": 131.3456,
      "duration": 0.1726,
      "velocity": 127,
      "chip": "ym2612"
    },
    {
      "channel": 1,
      "note": 85,
      "start": 131.3461,
      "duration": 0.7258,
      "velocity": 109,
      "chip": "ym2612"
    },
    {
      "channel": 2,
      "note": 88,
      "start": 131.3467,
      "duration": 0.7257,
      "velocity": 109,
      "chip": "ym2612"
    },
    {
      "channel": 3,
      "note": 85,
      "start": 131.3472,
      "duration": 0.1717,
      "velocity": 89,
      "chip": "ym2612"
    },
    {
      "channel": 4,
      "note": 80,
      "start": 131.3477,
      "duration": 0.1717,
      "velocity": 89,
      "chip": "ym2612"
    },
    {
      "channel": 0,
      "note": 54,
      "start": 131.5184,
      "duration": 0.1957,
      "velocity": 114,
      "chip": "ym2612"
    },
    {
      "channel": 3,
      "note": 88,
      "start": 131.519,
      "duration": 0.3669,
      "velocity": 89,
      "chip": "ym2612"
    },
    {
      "channel": 4,
      "note": 85,
      "start": 131.5195,
      "duration": 0.3669,
      "velocity": 89,
      "chip": "ym2612"
    },
    {
      "channel": 0,
      "note": 54,
      "start": 131.7143,
      "duration": 0.0819,
      "velocity": 127,
      "chip": "ym2612"
    },
    {
      "channel": 0,
      "note": 54,
      "start": 131.7963,
      "duration": 0.089,
      "velocity": 127,
      "chip": "ym2612"
    },
    {
      "channel": 0,
      "note": 56,
      "start": 131.8855,
      "duration": 0.1859,
      "velocity": 127,
      "chip": "ym2612"
    },
    {
      "channel": 3,
      "note": 90,
      "start": 131.8861,
      "duration": 0.1868,
      "velocity": 89,
      "chip": "ym2612"
    },
    {
      "channel": 4,
      "note": 85,
      "start": 131.8866,
      "duration": 0.1868,
      "velocity": 89,
      "chip": "ym2612"
    },
    {
      "channel": 0,
      "note": 59,
      "start": 132.0716,
      "duration": 0.1728,
      "velocity": 127,
      "chip": "ym2612"
    },
    {
      "channel": 1,
      "note": 85,
      "start": 132.0721,
      "duration": 0.3407,
      "velocity": 109,
      "chip": "ym2612"
    },
    {
      "channel": 2,
      "note": 90,
      "start": 132.0726,
      "duration": 0.3407,
      "velocity": 109,
      "chip": "ym2612"
    },
    {
      "channel": 3,
      "note": 88,
      "start": 132.0731,
      "duration": 0.1719,
      "velocity": 89,
      "chip": "ym2612"
    },
    {
      "channel": 4,
      "note": 83,
      "start": 132.0736,
      "duration": 0.1719,
      "velocity": 89,
      "chip": "ym2612"
    },
    {
      "channel": 0,
      "note": 61,
      "start": 132.2446,
      "duration": 0.1677,
      "velocity": 114,
      "chip": "ym2612"
    },
    {
      "channel": 3,
      "note": 91,
      "start": 132.2451,
      "duration": 0.0836,
      "velocity": 89,
      "chip": "ym2612"
    },
    {
      "channel": 4,
      "note": 87,
      "start": 132.2456,
      "duration": 0.0836,
      "velocity": 89,
      "chip": "ym2612"
    },
    {
      "channel": 3,
      "note": 92,
      "start": 132.3289,
      "duration": 0.2656,
      "velocity": 89,
      "chip": "ym2612"
    },
    {
      "channel": 4,
      "note": 88,
      "start": 132.3294,
      "duration": 0.2656,
      "velocity": 89,
      "chip": "ym2612"
    },
    {
      "channel": 0,
      "note": 61,
      "start": 132.4125,
      "duration": 0.0884,
      "velocity": 127,
      "chip": "ym2612"
    },
    {
      "channel": 1,
      "note": 85,
      "start": 132.413,
      "duration": 0.1805,
      "velocity": 109,
      "chip": "ym2612"
    },
    {
      "channel": 2,
      "note": 90,
      "start": 132.4135,
      "duration": 0.1805,
      "velocity": 109,
      "chip": "ym2612"
    },
    {
      "channel": 0,
      "note": 61,
      "start": 132.501,
      "duration": 0.092,
      "velocity": 127,
      "chip": "ym2612"
    },
    {
      "channel": 0,
      "note": 59,
      "start": 132.5932,
      "duration": 0.1819,
      "velocity": 127,
      "chip": "ym2612"
    },
    {
      "channel": 1,
      "note": 85,
      "start": 132.5937,
      "duration": 0.3582,
      "velocity": 109,
      "chip": "ym2612"
    },
    {
      "channel": 2,
      "note": 88,
      "start": 132.5942,
      "duration": 0.3582,
      "velocity": 109,
      "chip": "ym2612"
    },
    {
      "channel": 3,
      "note": 97,
      "start": 132.5947,
      "duration": 0.3582,
      "velocity": 89,
      "chip": "ym2612"
    },
    {
      "channel": 4,
      "note": 92,
      "start": 132.5952,
      "duration": 0.3582,
      "velocity": 89,
      "chip": "ym2612"
    },
    {
      "channel": 0,
      "note": 56,
      "start": 132.7752,
      "duration": 0.1761,
      "velocity": 127,
      "chip": "ym2612"
    },
    {
      "channel": 0,
      "note": 54,
      "start": 132.9515,
      "duration": 0.1857,
      "velocity": 114,
      "chip": "ym2612"
    },
    {
      "channel": 1,
      "note": 85,
      "start": 132.952,
      "duration": 0.1857,
      "velocity": 109,
      "chip": "ym2612"
    },
    {
      "channel": 2,
      "note": 87,
      "start": 132.9526,
      "duration": 0.1857,
      "velocity": 109,
      "chip": "ym2612"
    },
    {
      "channel": 3,
      "note": 91,
      "start": 132.9531,
      "duration": 0.0829,
      "velocity": 89,
      "chip": "ym2612"
    },
    {
      "channel": 4,
      "note": 88,
      "start": 132.9536,
      "duration": 0.0829,
      "velocity": 89,
      "chip": "ym2612"
    },
    {
      "channel": 3,
      "note": 90,
      "start": 133.0362,
      "duration": 0.1026,
      "velocity": 89,
      "chip": "ym2612"
    },
    {
      "channel": 4,
      "note": 87,
      "start": 133.0367,
      "duration": 0.1026,
      "velocity": 89,
      "chip": "ym2612"
    },
    {
      "channel": 0,
      "note": 54,
      "start": 133.1374,
      "duration": 0.0866,
      "velocity": 127,
      "chip": "ym2612"
    },
    {
      "channel": 1,
      "note": 85,
      "start": 133.138,
      "duration": 0.3524,
      "velocity": 109,
      "chip": "ym2612"
    },
    {
      "channel": 2,
      "note": 88,
      "start": 133.1385,
      "duration": 0.3524,
      "velocity": 109,
      "chip": "ym2612"
    },
    {
      "channel": 3,
      "note": 88,
      "start": 133.139,
      "duration": 0.1696,
      "velocity": 89,
      "chip": "ym2612"
    },
    {
      "channel": 4,
      "note": 85,
      "start": 133.1395,
      "duration": 0.1696,
      "velocity": 89,
      "chip": "ym2612"
    },
    {
      "channel": 0,
      "note": 54,
      "start": 133.2242,
      "duration": 0.0837,
      "velocity": 127,
      "chip": "ym2612"
    },
    {
      "channel": 0,
      "note": 56,
      "start": 133.3081,
      "duration": 0.1817,
      "velocity": 127,
      "chip": "ym2612"
    },
    {
      "channel": 3,
      "note": 85,
      "start": 133.3087,
      "duration": 0.1827,
      "velocity": 89,
      "chip": "ym2612"
    },
    {
      "channel": 4,
      "note": 78,
      "start": 133.3092,
      "duration": 0.1827,
      "velocity": 89,
      "chip": "ym2612"
    },
    {
      "channel": 0,
      "note": 59,
      "start": 133.49,
      "duration": 0.1769,
      "velocity": 127,
      "chip": "ym2612"
    },
    {
      "channel": 1,
      "note": 85,
      "start": 133.4905,
      "duration": 0.1769,
      "velocity": 109,
      "chip": "ym2612"
    },
    {
      "channel": 2,
      "note": 87,
      "start": 133.491,
      "duration": 0.1769,
      "velocity": 109,
      "chip": "ym2612"
    },
    {
      "channel": 3,
      "note": 83,
      "start": 133.4915,
      "duration": 0.1769,
      "velocity": 89,
      "chip": "ym2612"
    },
    {
      "channel": 4,
      "note": 80,
      "start": 133.492,
      "duration": 0.177,
      "velocity": 89,
      "chip": "ym2612"
    },
    {
      "channel": 0,
      "note": 61,
      "start": 133.6671,
      "duration": 0.1788,
      "velocity": 114,
      "chip": "ym2612"
    },
    {
      "channel": 1,
      "note": 83,
      "start": 133.6677,
      "duration": 0.1787,
      "velocity": 109,
      "chip": "ym2612"
    },
    {
      "channel": 2,
      "note": 88,
      "start": 133.6682,
      "duration": 0.1788,
      "velocity": 109,
      "chip": "ym2612"
    },
    {
      "channel": 3,
      "note": 85,
      "start": 133.6687,
      "duration": 0.3455,
      "velocity": 89,
      "chip": "ym2612"
    },
    {
      "channel": 4,
      "note": 80,
      "start": 133.6692,
      "duration": 0.3455,
      "velocity": 89,
      "chip": "ym2612"
    },
    {
      "channel": 0,
      "note": 61,
      "start": 133.8461,
      "duration": 0.0819,
      "velocity": 127,
      "chip": "ym2612"
    },
    {
      "channel": 1,
      "note": 83,
      "start": 133.8466,
      "duration": 0.3458,
      "velocity": 109,
      "chip": "ym2612"
    },
    {
      "channel": 2,
      "note": 87,
      "start": 133.8471,
      "duration": 0.3458,
      "velocity": 109,
      "chip": "ym2612"
    },
    {
      "channel": 0,
      "note": 61,
      "start": 133.9282,
      "duration": 0.0854,
      "velocity": 127,
      "chip": "ym2612"
    },
    {
      "channel": 0,
      "note": 59,
      "start": 134.0137,
      "duration": 0.1781,
      "velocity": 127,
      "chip": "ym2612"
    },
    {
      "channel": 3,
      "note": 87,
      "start": 134.0144,
      "duration": 0.179,
      "velocity": 89,
      "chip": "ym2612"
    },
    {
      "channel": 4,
      "note": 83,
      "start": 134.0149,
      "duration": 0.179,
      "velocity": 89,
      "chip": "ym2612"
    },
    {
      "channel": 0,
      "note": 56,
      "start": 134.192,
      "duration": 0.1706,
      "velocity": 127,
      "chip": "ym2612"
    },
    {
      "channel": 1,
      "note": 83,
      "start": 134.1925,
      "duration": 0.7263,
      "velocity": 109,
      "chip": "ym2612"
    },
    {
      "channel": 2,
      "note": 87,
      "start": 134.1931,
      "duration": 0.7263,
      "velocity": 109,
      "chip": "ym2612"
    },
    {
      "channel": 3,
      "note": 85,
      "start": 134.1936,
      "duration": 0.1697,
      "velocity": 89,
      "chip": "ym2612"
    },
    {
      "channel": 4,
      "note": 80,
      "start": 134.1941,
      "duration": 0.1697,
      "velocity": 89,
      "chip": "ym2612"
    },
    {
      "channel": 0,
      "note": 54,
      "start": 134.3628,
      "duration": 0.1957,
      "velocity": 114,
      "chip": "ym2612"
    },
    {
      "channel": 3,
      "note": 88,
      "start": 134.3634,
      "duration": 0.1957,
      "velocity": 89,
      "chip": "ym2612"
    },
    {
      "channel": 4,
      "note": 85,
      "start": 134.3639,
      "duration": 0.1957,
      "velocity": 89,
      "chip": "ym2612"
    },
    {
      "channel": 0,
      "note": 54,
      "start": 134.5587,
      "duration": 0.094,
      "velocity": 127,
      "chip": "ym2612"
    },
    {
      "channel": 3,
      "note": 90,
      "start": 134.5593,
      "duration": 0.1813,
      "velocity": 89,
      "chip": "ym2612"
    },
    {
      "channel": 4,
      "note": 87,
      "start": 134.5598,
      "duration": 0.1813,
      "velocity": 89,
      "chip": "ym2612"
    },
    {
      "channel": 0,
      "note": 54,
      "start": 134.6529,
      "duration": 0.0872,
      "velocity": 127,
      "chip": "ym2612"
    },
    {
      "channel": 0,
      "note": 56,
      "start": 134.7403,
      "duration": 0.178,
      "velocity": 127,
      "chip": "ym2612"
    },
    {
      "channel": 3,
      "note": 88,
      "start": 134.7408,
      "duration": 0.1791,
      "velocity": 89,
      "chip": "ym2612"
    },
    {
      "channel": 4,
      "note": 85,
      "start": 134.7414,
      "duration": 0.1791,
      "velocity": 89,
      "chip": "ym2612"
    },
    {
      "channel": 0,
      "note": 59,
      "start": 134.9185,
      "duration": 0.1733,
      "velocity": 127,
      "chip": "ym2612"
    },
    {
      "channel": 1,
      "note": 83,
      "start": 134.919,
      "duration": 0.341,
      "velocity": 109,
      "chip": "ym2612"
    },
    {
      "channel": 2,
      "note": 88,
      "start": 134.9195,
      "duration": 0.341,
      "velocity": 109,
      "chip": "ym2612"
    },
    {
      "channel": 3,
      "note": 91,
      "start": 134.92,
      "duration": 0.0837,
      "velocity": 89,
      "chip": "ym2612"
    },
    {
      "channel": 4,
      "note": 87,
      "start": 134.9205,
      "duration": 0.0837,
      "velocity": 89,
      "chip": "ym2612"
    },
    {
      "channel": 3,
      "note": 92,
      "start": 135.0039,
      "duration": 0.2571,
      "velocity": 89,
      "chip": "ym2612"
    },
    {
      "channel": 4,
      "note": 88,
      "start": 135.0044,
      "duration": 0.2571,
      "velocity": 89,
      "chip": "ym2612"
    },
    {
      "channel": 0,
      "note": 61,
      "start": 135.0921,
      "duration": 0.1674,
      "velocity": 114,
      "chip": "ym2612"
    },
    {
      "channel": 0,
      "note": 61,
      "start": 135.2596,
      "duration": 0.0865,
      "velocity": 127,
      "chip": "ym2612"
    },
    {
      "channel": 1,
      "note": 83,
      "start": 135.2601,
      "duration": 0.1739,
      "velocity": 109,
      "chip": "ym2612"
    },
    {
      "channel": 2,
      "note": 88,
      "start": 135.2606,
      "duration": 0.1739,
      "velocity": 109,
      "chip": "ym2612"
    },
    {
      "channel": 3,
      "note": 91,
      "start": 135.2612,
      "duration": 0.0855,
      "velocity": 89,
      "chip": "ym2612"
    },
    {
      "channel": 4,
      "note": 87,
      "start": 135.2617,
      "duration": 0.0855,
      "velocity": 89,
      "chip": "ym2612"
    },
    {
      "channel": 0,
      "note": 61,
      "start": 135.3462,
      "duration": 0.0874,
      "velocity": 127,
      "chip": "ym2612"
    },
    {
      "channel": 3,
      "note": 92,
      "start": 135.3468,
      "duration": 0.2639,
      "velocity": 89,
      "chip": "ym2612"
    },
    {
      "channel": 4,
      "note": 88,
      "start": 135.3473,
      "duration": 0.2639,
      "velocity": 89,
      "chip": "ym2612"
    },
    {
      "channel": 0,
      "note": 59,
      "start": 135.4338,
      "duration": 0.1763,
      "velocity": 127,
      "chip": "ym2612"
    },
    {
      "channel": 1,
      "note": 83,
      "start": 135.4342,
      "duration": 0.3604,
      "velocity": 109,
      "chip": "ym2612"
    },
    {
      "channel": 2,
      "note": 87,
      "start": 135.4347,
      "duration": 0.3603,
      "velocity": 109,
      "chip": "ym2612"
    },
    {
      "channel": 0,
      "note": 56,
      "start": 135.6103,
      "duration": 0.1838,
      "velocity": 127,
      "chip": "ym2612"
    },
    {
      "channel": 3,
      "note": 91,
      "start": 135.6109,
      "duration": 0.0922,
      "velocity": 89,
      "chip": "ym2612"
    },
    {
      "channel": 4,
      "note": 87,
      "start": 135.6114,
      "duration": 0.0922,
      "velocity": 89,
      "chip": "ym2612"
    },
    {
      "channel": 3,
      "note": 92,
      "start": 135.7033,
      "duration": 0.0923,
      "velocity": 89,
      "chip": "ym2612"
    },
    {
      "channel": 4,
      "note": 88,
      "start": 135.7038,
      "duration": 0.0923,
      "velocity": 89,
      "chip": "ym2612"
    },
    {
      "channel": 0,
      "note": 54,
      "start": 135.7942,
      "duration": 0.192,
      "velocity": 114,
      "chip": "ym2612"
    },
    {
      "channel": 1,
      "note": 83,
      "start": 135.7947,
      "duration": 0.192,
      "velocity": 109,
      "chip": "ym2612"
    },
    {
      "channel": 2,
      "note": 85,
      "start": 135.7953,
      "duration": 0.192,
      "velocity": 109,
      "chip": "ym2612"
    },
    {
      "channel": 3,
      "note": 90,
      "start": 135.7958,
      "duration": 0.0892,
      "velocity": 89,
      "chip": "ym2612"
    },
    {
      "channel": 4,
      "note": 87,
      "start": 135.7963,
      "duration": 0.0892,
      "velocity": 89,
      "chip": "ym2612"
    },
    {
      "channel": 3,
      "note": 88,
      "start": 135.8851,
      "duration": 0.1026,
      "velocity": 89,
      "chip": "ym2612"
    },
    {
      "channel": 4,
      "note": 85,
      "start": 135.8856,
      "duration": 0.1026,
      "velocity": 89,
      "chip": "ym2612"
    },
    {
      "channel": 0,
      "note": 54,
      "start": 135.9864,
      "duration": 0.0908,
      "velocity": 127,
      "chip": "ym2612"
    },
    {
      "channel": 1,
      "note": 83,
      "start": 135.9869,
      "duration": 0.35,
      "velocity": 109,
      "chip": "ym2612"
    },
    {
      "channel": 2,
      "note": 87,
      "start": 135.9874,
      "duration": 0.35,
      "velocity": 109,
      "chip": "ym2612"
    },
    {
      "channel": 3,
      "note": 85,
      "start": 135.9879,
      "duration": 0.1721,
      "velocity": 89,
      "chip": "ym2612"
    },
    {
      "channel": 4,
      "note": 80,
      "start": 135.9884,
      "duration": 0.1721,
      "velocity": 89,
      "chip": "ym2612"
    },
    {
      "channel": 0,
      "note": 54,
      "start": 136.0773,
      "duration": 0.0821,
      "velocity": 127,
      "chip": "ym2612"
    },
    {
      "channel": 0,
      "note": 56,
      "start": 136.1596,
      "duration": 0.0869,
      "velocity": 127,
      "chip": "ym2612"
    },
    {
      "channel": 3,
      "note": 83,
      "start": 136.1602,
      "duration": 0.0869,
      "velocity": 89,
      "chip": "ym2612"
    },
    {
      "channel": 4,
      "note": 78,
      "start": 136.1607,
      "duration": 0.0869,
      "velocity": 89,
      "chip": "ym2612"
    },
    {
      "channel": 0,
      "note": 59,
      "start": 136.2467,
      "duration": 0.0897,
      "velocity": 127,
      "chip": "ym2612"
    },
    {
      "channel": 3,
      "note": 84,
      "start": 136.2473,
      "duration": 0.0906,
      "velocity": 89,
      "chip": "ym2612"
    },
    {
      "channel": 4,
      "note": 79,
      "start": 136.2478,
      "duration": 0.0906,
      "velocity": 89,
      "chip": "ym2612"
    },
    {
      "channel": 0,
      "note": 61,
      "start": 136.3365,
      "duration": 0.0888,
      "velocity": 127,
      "chip": "ym2612"
    },
    {
      "channel": 1,
      "note": 83,
      "start": 136.337,
      "duration": 0.1748,
      "velocity": 109,
      "chip": "ym2612"
    },
    {
      "channel": 2,
      "note": 88,
      "start": 136.3376,
      "duration": 0.1748,
      "velocity": 109,
      "chip": "ym2612"
    },
    {
      "channel": 3,
      "note": 85,
      "start": 136.338,
      "duration": 0.1748,
      "velocity": 89,
      "chip": "ym2612"
    },
    {
      "channel": 4,
      "note": 80,
      "start": 136.3386,
      "duration": 0.2573,
      "velocity": 89,
      "chip": "ym2612"
    },
    {
      "channel": 0,
      "note": 64,
      "start": 136.4255,
      "duration": 0.0857,
      "velocity": 127,
      "chip": "ym2612"
    },
    {
      "channel": 0,
      "note": 61,
      "start": 136.5114,
      "duration": 0.1673,
      "velocity": 114,
      "chip": "ym2612"
    },
    {
      "channel": 1,
      "note": 87,
      "start": 136.5119,
      "duration": 0.1673,
      "velocity": 109,
      "chip": "ym2612"
    },
    {
      "channel": 2,
      "note": 93,
      "start": 136.5125,
      "duration": 0.1673,
      "velocity": 109,
      "chip": "ym2612"
    },
    {
      "channel": 3,
      "note": 73,
      "start": 136.513,
      "duration": 0.1672,
      "velocity": 89,
      "chip": "ym2612"
    },
    {
      "channel": 4,
      "note": 76,
      "start": 136.5961,
      "duration": 0.1675,
      "velocity": 89,
      "chip": "ym2612"
    },
    {
      "channel": 0,
      "note": 61,
      "start": 136.6788,
      "duration": 0.0841,
      "velocity": 127,
      "chip": "ym2612"
    },
    {
      "channel": 1,
      "note": 85,
      "start": 136.6794,
      "duration": 0.3476,
      "velocity": 109,
      "chip": "ym2612"
    },
    {
      "channel": 2,
      "note": 93,
      "start": 136.6799,
      "duration": 0.3476,
      "velocity": 109,
      "chip": "ym2612"
    },
    {
      "channel": 3,
      "note": 78,
      "start": 136.6804,
      "duration": 0.1694,
      "velocity": 89,
      "chip": "ym2612"
    },
    {
      "channel": 0,
      "note": 61,
      "start": 136.7631,
      "duration": 0.0861,
      "velocity": 127,
      "chip": "ym2612"
    },
    {
      "channel": 4,
      "note": 80,
      "start": 136.7637,
      "duration": 0.0866,
      "velocity": 89,
      "chip": "ym2612"
    },
    {
      "channel": 0,
      "note": 59,
      "start": 136.8494,
      "duration": 0.1771,
      "velocity": 127,
      "chip": "ym2612"
    },
    {
      "channel": 3,
      "note": 85,
      "start": 136.85,
      "duration": 0.178,
      "velocity": 89,
      "chip": "ym2612"
    },
    {
      "channel": 4,
      "note": 80,
      "start": 136.8505,
      "duration": 0.178,
      "velocity": 89,
      "chip": "ym2612"
    },
    {
      "channel": 0,
      "note": 56,
      "start": 137.0267,
      "duration": 0.1705,
      "velocity": 127,
      "chip": "ym2612"
    },
    {
      "channel": 1,
      "note": 85,
      "start": 137.0272,
      "duration": 0.7244,
      "velocity": 109,
      "chip": "ym2612"
    },
    {
      "channel": 2,
      "note": 93,
      "start": 137.0277,
      "duration": 0.7244,
      "velocity": 109,
      "chip": "ym2612"
    },
    {
      "channel": 3,
      "note": 88,
      "start": 137.0282,
      "duration": 0.1696,
      "velocity": 89,
      "chip": "ym2612"
    },
    {
      "channel": 4,
      "note": 83,
      "start": 137.0287,
      "duration": 0.1696,
      "velocity": 89,
      "chip": "ym2612"
    },
    {
      "channel": 0,
      "note": 54,
      "start": 137.1973,
      "duration": 0.1959,
      "velocity": 114,
      "chip": "ym2612"
    },
    {
      "channel": 3,
      "note": 90,
      "start": 137.198,
      "duration": 0.1959,
      "velocity": 89,
      "chip": "ym2612"
    },
    {
      "channel": 4,
      "note": 85,
      "start": 137.1985,
      "duration": 0.196,
      "velocity": 89,
      "chip": "ym2612"
    },
    {
      "channel": 0,
      "note": 54,
      "start": 137.3935,
      "duration": 0.092,
      "velocity": 127,
      "chip": "ym2612"
    },
    {
      "channel": 3,
      "note": 91,
      "start": 137.3941,
      "duration": 0.1793,
      "velocity": 89,
      "chip": "ym2612"
    },
    {
      "channel": 4,
      "note": 86,
      "start": 137.3946,
      "duration": 0.1793,
      "velocity": 89,
      "chip": "ym2612"
    },
    {
      "channel": 0,
      "note": 54,
      "start": 137.4856,
      "duration": 0.0872,
      "velocity": 127,
      "chip": "ym2612"
    },
    {
      "channel": 0,
      "note": 56,
      "start": 137.573,
      "duration": 0.178,
      "velocity": 127,
      "chip": "ym2612"
    },
    {
      "channel": 3,
      "note": 92,
      "start": 137.5736,
      "duration": 0.1791,
      "velocity": 89,
      "chip": "ym2612"
    },
    {
      "channel": 4,
      "note": 88,
      "start": 137.5741,
      "duration": 0.1791,
      "velocity": 89,
      "chip": "ym2612"
    },
    {
      "channel": 0,
      "note": 59,
      "start": 137.7513,
      "duration": 0.1733,
      "velocity": 127,
      "chip": "ym2612"
    },
    {
      "channel": 1,
      "note": 88,
      "start": 137.7518,
      "duration": 0.341,
      "velocity": 109,
      "chip": "ym2612"
    },
    {
      "channel": 2,
      "note": 93,
      "start": 137.7523,
      "duration": 0.341,
      "velocity": 109,
      "chip": "ym2612"
    },
    {
      "channel": 3,
      "note": 95,
      "start": 137.7528,
      "duration": 0.0837,
      "velocity": 89,
      "chip": "ym2612"
    },
    {
      "channel": 4,
      "note": 90,
      "start": 137.7533,
      "duration": 0.0837,
      "velocity": 89,
      "chip": "ym2612"
    },
    {
      "channel": 3,
      "note": 97,
      "start": 137.8367,
      "duration": 0.2571,
      "velocity": 89,
      "chip": "ym2612"
    },
    {
      "channel": 4,
      "note": 92,
      "start": 137.8372,
      "duration": 0.2571,
      "velocity": 89,
      "chip": "ym2612"
    },
    {
      "channel": 0,
      "note": 61,
      "start": 137.9248,
      "duration": 0.1674,
      "velocity": 114,
      "chip": "ym2612"
    },
    {
      "channel": 0,
      "note": 61,
      "start": 138.0924,
      "duration": 0.0908,
      "velocity": 127,
      "chip": "ym2612"
    },
    {
      "channel": 1,
      "note": 88,
      "start": 138.0929,
      "duration": 0.1771,
      "velocity": 109,
      "chip": "ym2612"
    },
    {
      "channel": 2,
      "note": 93,
      "start": 138.0934,
      "duration": 0.1771,
      "velocity": 109,
      "chip": "ym2612"
    },
    {
      "channel": 3,
      "note": 95,
      "start": 138.0939,
      "duration": 0.3533,
      "velocity": 89,
      "chip": "ym2612"
    },
    {
      "channel": 4,
      "note": 90,
      "start": 138.0944,
      "duration": 0.3534,
      "velocity": 89,
      "chip": "ym2612"
    },
    {
      "channel": 0,
      "note": 61,
      "start": 138.1832,
      "duration": 0.0862,
      "velocity": 127,
      "chip": "ym2612"
    },
    {
      "channel": 0,
      "note": 59,
      "start": 138.2696,
      "duration": 0.177,
      "velocity": 127,
      "chip": "ym2612"
    },
    {
      "channel": 1,
      "note": 90,
      "start": 138.27,
      "duration": 0.3585,
      "velocity": 109,
      "chip": "ym2612"
    },
    {
      "channel": 2,
      "note": 93,
      "start": 138.2706,
      "duration": 0.3585,
      "velocity": 109,
      "chip": "ym2612"
    },
    {
      "channel": 0,
      "note": 56,
      "start": 138.4468,
      "duration": 0.1812,
      "velocity": 127,
      "chip": "ym2612"
    },
    {
      "channel": 3,
      "note": 92,
      "start": 138.4474,
      "duration": 0.1821,
      "velocity": 89,
      "chip": "ym2612"
    },
    {
      "channel": 4,
      "note": 88,
      "start": 138.4479,
      "duration": 0.1821,
      "velocity": 89,
      "chip": "ym2612"
    },
    {
      "channel": 0,
      "note": 54,
      "start": 138.6282,
      "duration": 0.1874,
      "velocity": 114,
      "chip": "ym2612"
    },
    {
      "channel": 1,
      "note": 88,
      "start": 138.6287,
      "duration": 0.1874,
      "velocity": 109,
      "chip": "ym2612"
    },
    {
      "channel": 2,
      "note": 93,
      "start": 138.6293,
      "duration": 0.1874,
      "velocity": 109,
      "chip": "ym2612"
    },
    {
      "channel": 3,
      "note": 90,
      "start": 138.6298,
      "duration": 0.0846,
      "velocity": 89,
      "chip": "ym2612"
    },
    {
      "channel": 4,
      "note": 85,
      "start": 138.6302,
      "duration": 0.0846,
      "velocity": 89,
      "chip": "ym2612"
    },
    {
      "channel": 3,
      "note": 92,
      "start": 138.7145,
      "duration": 0.1026,
      "velocity": 89,
      "chip": "ym2612"
    },
    {
      "channel": 4,
      "note": 88,
      "start": 138.715,
      "duration": 0.1026,
      "velocity": 89,
      "chip": "ym2612"
    },
    {
      "channel": 0,
      "note": 54,
      "start": 138.8158,
      "duration": 0.0888,
      "velocity": 127,
      "chip": "ym2612"
    },
    {
      "channel": 1,
      "note": 87,
      "start": 138.8163,
      "duration": 0.3544,
      "velocity": 109,
      "chip": "ym2612"
    },
    {
      "channel": 2,
      "note": 93,
      "start": 138.8168,
      "duration": 0.3544,
      "velocity": 109,
      "chip": "ym2612"
    },
    {
      "channel": 3,
      "note": 95,
      "start": 138.8173,
      "duration": 0.1717,
      "velocity": 89,
      "chip": "ym2612"
    },
    {
      "channel": 4,
      "note": 90,
      "start": 138.8178,
      "duration": 0.1717,
      "velocity": 89,
      "chip": "ym2612"
    },
    {
      "channel": 0,
      "note": 54,
      "start": 138.9047,
      "duration": 0.0837,
      "velocity": 127,
      "chip": "ym2612"
    },
    {
      "channel": 0,
      "note": 56,
      "start": 138.9886,
      "duration": 0.1816,
      "velocity": 127,
      "chip": "ym2612"
    },
    {
      "channel": 3,
      "note": 97,
      "start": 138.9892,
      "duration": 0.0874,
      "velocity": 89,
      "chip": "ym2612"
    },
    {
      "channel": 4,
      "note": 93,
      "start": 138.9898,
      "duration": 0.0874,
      "velocity": 89,
      "chip": "ym2612"
    },
    {
      "channel": 3,
      "note": 100,
      "start": 139.0768,
      "duration": 0.0949,
      "velocity": 89,
      "chip": "ym2612"
    },
    {
      "channel": 4,
      "note": 95,
      "start": 139.0774,
      "duration": 0.0949,
      "velocity": 89,
      "chip": "ym2612"
    },
    {
      "channel": 0,
      "note": 59,
      "start": 139.1704,
      "duration": 0.1736,
      "velocity": 127,
      "chip": "ym2612"
    },
    {
      "channel": 1,
      "note": 88,
      "start": 139.1709,
      "duration": 0.1736,
      "velocity": 109,
      "chip": "ym2612"
    },
    {
      "channel": 2,
      "note": 93,
      "start": 139.1715,
      "duration": 0.1736,
      "velocity": 109,
      "chip": "ym2612"
    },
    {
      "channel": 3,
      "note": 102,
      "start": 139.172,
      "duration": 0.1736,
      "velocity": 89,
      "chip": "ym2612"
    },
    {
      "channel": 4,
      "note": 99,
      "start": 139.1724,
      "duration": 0.1737,
      "velocity": 89,
      "chip": "ym2612"
    },
    {
      "channel": 0,
      "note": 61,
      "start": 139.3442,
      "duration": 0.1681,
      "velocity": 114,
      "chip": "ym2612"
    },
    {
      "channel": 1,
      "note": 90,
      "start": 139.3447,
      "duration": 0.1681,
      "velocity": 109,
      "chip": "ym2612"
    },
    {
      "channel": 2,
      "note": 83,
      "start": 139.3452,
      "duration": 0.1681,
      "velocity": 109,
      "chip": "ym2612"
    },
    {
      "channel": 3,
      "note": 102,
      "start": 139.3457,
      "duration": 0.1681,
      "velocity": 89,
      "chip": "ym2612"
    },
    {
      "channel": 4,
      "note": 99,
      "start": 139.3462,
      "duration": 0.1681,
      "velocity": 89,
      "chip": "ym2612"
    },
    {
      "channel": 0,
      "note": 61,
      "start": 139.5124,
      "duration": 0.0865,
      "velocity": 127,
      "chip": "ym2612"
    },
    {
      "channel": 1,
      "note": 87,
      "start": 139.5129,
      "duration": 0.3519,
      "velocity": 109,
      "chip": "ym2612"
    },
    {
      "channel": 2,
      "note": 83,
      "start": 139.5134,
      "duration": 0.3519,
      "velocity": 109,
      "chip": "ym2612"
    },
    {
      "channel": 3,
      "note": 99,
      "start": 139.5139,
      "duration": 0.1727,
      "velocity": 89,
      "chip": "ym2612"
    },
    {
      "channel": 4,
      "note": 95,
      "start": 139.5144,
      "duration": 0.1727,
      "velocity": 89,
      "chip": "ym2612"
    },
    {
      "channel": 0,
      "note": 61,
      "start": 139.599,
      "duration": 0.087,
      "velocity": 127,
      "chip": "ym2612"
    },
    {
      "channel": 0,
      "note": 59,
      "start": 139.6862,
      "duration": 0.178,
      "velocity": 127,
      "chip": "ym2612"
    },
    {
      "channel": 3,
      "note": 97,
      "start": 139.6868,
      "duration": 0.179,
      "velocity": 89,
      "chip": "ym2612"
    },
    {
      "channel": 4,
      "note": 92,
      "start": 139.6873,
      "duration": 0.179,
      "velocity": 89,
      "chip": "ym2612"
    },
    {
      "channel": 0,
      "note": 56,
      "start": 139.8644,
      "duration": 0.1755,
      "velocity": 127,
      "chip": "ym2612"
    },
    {
      "channel": 1,
      "note": 87,
      "start": 139.8649,
      "duration": 0.7224,
      "velocity": 109,
      "chip": "ym2612"
    },
    {
      "channel": 2,
      "note": 83,
      "start": 139.8655,
      "duration": 0.7224,
      "velocity": 109,
      "chip": "ym2612"
    },
    {
      "channel": 3,
      "note": 99,
      "start": 139.866,
      "duration": 0.3645,
      "velocity": 89,
      "chip": "ym2612"
    },
    {
      "channel": 4,
      "note": 95,
      "start": 139.8665,
      "duration": 0.3645,
      "velocity": 89,
      "chip": "ym2612"
    },
    {
      "channel": 0,
      "note": 54,
      "start": 140.0401,
      "duration": 0.1897,
      "velocity": 114,
      "chip": "ym2612"
    },
    {
      "channel": 0,
      "note": 54,
      "start": 140.23,
      "duration": 0.094,
      "velocity": 127,
      "chip": "ym2612"
    },
    {
      "channel": 3,
      "note": 95,
      "start": 140.2306,
      "duration": 0.3578,
      "velocity": 89,
      "chip": "ym2612"
    },
    {
      "channel": 4,
      "note": 92,
      "start": 140.2311,
      "duration": 0.3578,
      "velocity": 89,
      "chip": "ym2612"
    },
    {
      "channel": 0,
      "note": 54,
      "start": 140.3242,
      "duration": 0.0871,
      "velocity": 127,
      "chip": "ym2612"
    },
    {
      "channel": 0,
      "note": 56,
      "start": 140.4114,
      "duration": 0.1754,
      "velocity": 127,
      "chip": "ym2612"
    },
    {
      "channel": 0,
      "note": 59,
      "start": 140.5871,
      "duration": 0.1709,
      "velocity": 127,
      "chip": "ym2612"
    },
    {
      "channel": 1,
      "note": 90,
      "start": 140.5876,
      "duration": 0.3432,
      "velocity": 109,
      "chip": "ym2612"
    },
    {
      "channel": 2,
      "note": 83,
      "start": 140.5881,
      "duration": 0.3432,
      "velocity": 109,
      "chip": "ym2612"
    },
    {
      "channel": 3,
      "note": 92,
      "start": 140.5886,
      "duration": 0.3432,
      "velocity": 89,
      "chip": "ym2612"
    },
    {
      "channel": 4,
      "note": 88,
      "start": 140.5891,
      "duration": 0.3432,
      "velocity": 89,
      "chip": "ym2612"
    },
    {
      "channel": 0,
      "note": 61,
      "start": 140.7581,
      "duration": 0.1721,
      "velocity": 114,
      "chip": "ym2612"
    },
    {
      "channel": 0,
      "note": 61,
      "start": 140.9304,
      "duration": 0.0865,
      "velocity": 127,
      "chip": "ym2612"
    },
    {
      "channel": 1,
      "note": 90,
      "start": 140.9309,
      "duration": 0.1773,
      "velocity": 109,
      "chip": "ym2612"
    },
    {
      "channel": 2,
      "note": 83,
      "start": 140.9314,
      "duration": 0.1773,
      "velocity": 109,
      "chip": "ym2612"
    },
    {
      "channel": 3,
      "note": 90,
      "start": 140.9319,
      "duration": 0.3537,
      "velocity": 89,
      "chip": "ym2612"
    },
    {
      "channel": 4,
      "note": 87,
      "start": 140.9324,
      "duration": 0.3538,
      "velocity": 89,
      "chip": "ym2612"
    },
    {
      "channel": 0,
      "note": 61,
      "start": 141.017,
      "duration": 0.0907,
      "velocity": 127,
      "chip": "ym2612"
    },
    {
      "channel": 0,
      "note": 59,
      "start": 141.1079,
      "duration": 0.1772,
      "velocity": 127,
      "chip": "ym2612"
    },
    {
      "channel": 1,
      "note": 92,
      "start": 141.1083,
      "duration": 0.3555,
      "velocity": 109,
      "chip": "ym2612"
    },
    {
      "channel": 2,
      "note": 83,
      "start": 141.1088,
      "duration": 0.3555,
      "velocity": 109,
      "chip": "ym2612"
    },
    {
      "channel": 0,
      "note": 56,
      "start": 141.2852,
      "duration": 0.178,
      "velocity": 127,
      "chip": "ym2612"
    },
    {
      "channel": 3,
      "note": 92,
      "start": 141.2859,
      "duration": 0.179,
      "velocity": 89,
      "chip": "ym2612"
    },
    {
      "channel": 4,
      "note": 88,
      "start": 141.2863,
      "duration": 0.179,
      "velocity": 89,
      "chip": "ym2612"
    },
    {
      "channel": 0,
      "note": 54,
      "start": 141.4635,
      "duration": 0.1959,
      "velocity": 114,
      "chip": "ym2612"
    },
    {
      "channel": 1,
      "note": 97,
      "start": 141.464,
      "duration": 0.1959,
      "velocity": 109,
      "chip": "ym2612"
    },
    {
      "channel": 2,
      "note": 83,
      "start": 141.4645,
      "duration": 0.1959,
      "velocity": 109,
      "chip": "ym2612"
    },
    {
      "channel": 3,
      "note": 97,
      "start": 141.465,
      "duration": 0.1959,
      "velocity": 89,
      "chip": "ym2612"
    },
    {
      "channel": 4,
      "note": 92,
      "start": 141.4655,
      "duration": 0.1959,
      "velocity": 89,
      "chip": "ym2612"
    },
    {
      "channel": 0,
      "note": 54,
      "start": 141.6595,
      "duration": 0.0908,
      "velocity": 127,
      "chip": "ym2612"
    },
    {
      "channel": 1,
      "note": 95,
      "start": 141.6601,
      "duration": 0.3531,
      "velocity": 109,
      "chip": "ym2612"
    },
    {
      "channel": 2,
      "note": 83,
      "start": 141.6606,
      "duration": 0.3531,
      "velocity": 109,
      "chip": "ym2612"
    },
    {
      "channel": 3,
      "note": 97,
      "start": 141.6611,
      "duration": 0.0899,
      "velocity": 89,
      "chip": "ym2612"
    },
    {
      "channel": 4,
      "note": 90,
      "start": 141.6616,
      "duration": 0.0899,
      "velocity": 89,
      "chip": "ym2612"
    },
    {
      "channel": 0,
      "note": 54,
      "start": 141.7505,
      "duration": 0.0852,
      "velocity": 127,
      "chip": "ym2612"
    },
    {
      "channel": 3,
      "note": 97,
      "start": 141.7511,
      "duration": 0.0852,
      "velocity": 89,
      "chip": "ym2612"
    },
    {
      "channel": 4,
      "note": 92,
      "start": 141.7517,
      "duration": 0.0852,
      "velocity": 89,
      "chip": "ym2612"
    },
    {
      "channel": 0,
      "note": 56,
      "start": 141.8359,
      "duration": 0.0848,
      "velocity": 127,
      "chip": "ym2612"
    },
    {
      "channel": 3,
      "note": 95,
      "start": 141.8365,
      "duration": 0.1777,
      "velocity": 89,
      "chip": "ym2612"
    },
    {
      "channel": 4,
      "note": 90,
      "start": 141.837,
      "duration": 0.1777,
      "velocity": 89,
      "chip": "ym2612"
    },
    {
      "channel": 0,
      "note": 59,
      "start": 141.921,
      "duration": 0.0917,
      "velocity": 127,
      "chip": "ym2612"
    },
    {
      "channel": 0,
      "note": 61,
      "start": 142.0129,
      "duration": 0.0905,
      "velocity": 127,
      "chip": "ym2612"
    },
    {
      "channel": 1,
      "note": 92,
      "start": 142.0133,
      "duration": 0.1865,
      "velocity": 89,
      "chip": "ym2612"
    },
    {
      "channel": 2,
      "note": 83,
      "start": 142.0138,
      "duration": 0.1878,
      "velocity": 127,
      "chip": "ym2612"
    },
    {
      "channel": 3,
      "note": 95,
      "start": 142.0143,
      "duration": 0.0897,
      "velocity": 89,
      "chip": "ym2612"
    },
    {
      "channel": 4,
      "note": 88,
      "start": 142.0148,
      "duration": 0.0897,
      "velocity": 89,
      "chip": "ym2612"
    },
    {
      "channel": 0,
      "note": 64,
      "start": 142.1036,
      "duration": 0.0942,
      "velocity": 127,
      "chip": "ym2612"
    },
    {
      "channel": 3,
      "note": 95,
      "start": 142.1042,
      "duration": 0.0994,
      "velocity": 127,
      "chip": "ym2612"
    },
    {
      "channel": 4,
      "note": 90,
      "start": 142.1047,
      "duration": 0.0995,
      "velocity": 89,
      "chip": "ym2612"
    },
    {
      "channel": 0,
      "note": 61,
      "start": 142.198,
      "duration": 0.1665,
      "velocity": 114,
      "chip": "ym2612"
    },
    {
      "channel": 1,
      "note": 97,
      "start": 142.2,
      "duration": 5.6404,
      "velocity": 109,
      "chip": "ym2612"
    },
    {
      "channel": 2,
      "note": 92,
      "start": 142.2019,
      "duration": 5.6405,
      "velocity": 109,
      "chip": "ym2612"
    },
    {
      "channel": 3,
      "note": 97,
      "start": 142.2038,
      "duration": 5.6404,
      "velocity": 109,
      "chip": "ym2612"
    },
    {
      "channel": 4,
      "note": 92,
      "start": 142.2043,
      "duration": 24.7942,
      "velocity": 89,
      "chip": "ym2612"
    },
    {
      "channel": 0,
      "note": 61,
      "start": 142.3647,
      "duration": 0.0907,
      "velocity": 127,
      "chip": "ym2612"
    },
    {
      "channel": 0,
      "note": 61,
      "start": 142.4556,
      "duration": 0.0862,
      "velocity": 127,
      "chip": "ym2612"
    },
    {
      "channel": 0,
      "note": 59,
      "start": 142.542,
      "duration": 0.1834,
      "velocity": 127,
      "chip": "ym2612"
    },
    {
      "channel": 0,
      "note": 56,
      "start": 142.7255,
      "duration": 0.1763,
      "velocity": 127,
      "chip": "ym2612"
    },
    {
      "channel": 0,
      "note": 54,
      "start": 142.902,
      "duration": 0.1902,
      "velocity": 114,
      "chip": "ym2612"
    },
    {
      "channel": 0,
      "note": 54,
      "start": 143.0923,
      "duration": 0.0859,
      "velocity": 127,
      "chip": "ym2612"
    },
    {
      "channel": 0,
      "note": 54,
      "start": 143.1785,
      "duration": 0.0871,
      "velocity": 127,
      "chip": "ym2612"
    },
    {
      "channel": 0,
      "note": 56,
      "start": 143.2656,
      "duration": 0.1818,
      "velocity": 127,
      "chip": "ym2612"
    },
    {
      "channel": 0,
      "note": 59,
      "start": 143.4476,
      "duration": 0.1748,
      "velocity": 127,
      "chip": "ym2612"
    },
    {
      "channel": 0,
      "note": 61,
      "start": 143.6226,
      "duration": 0.1696,
      "velocity": 114,
      "chip": "ym2612"
    },
    {
      "channel": 0,
      "note": 61,
      "start": 143.7923,
      "duration": 0.0923,
      "velocity": 127,
      "chip": "ym2612"
    },
    {
      "channel": 0,
      "note": 61,
      "start": 143.8848,
      "duration": 0.092,
      "velocity": 127,
      "chip": "ym2612"
    },
    {
      "channel": 0,
      "note": 59,
      "start": 143.9769,
      "duration": 0.1753,
      "velocity": 127,
      "chip": "ym2612"
    },
    {
      "channel": 0,
      "note": 56,
      "start": 144.1524,
      "duration": 0.1741,
      "velocity": 127,
      "chip": "ym2612"
    },
    {
      "channel": 0,
      "note": 54,
      "start": 144.3267,
      "duration": 0.1897,
      "velocity": 114,
      "chip": "ym2612"
    },
    {
      "channel": 0,
      "note": 54,
      "start": 144.5165,
      "duration": 0.0882,
      "velocity": 127,
      "chip": "ym2612"
    },
    {
      "channel": 0,
      "note": 54,
      "start": 144.6049,
      "duration": 0.0876,
      "velocity": 127,
      "chip": "ym2612"
    },
    {
      "channel": 0,
      "note": 56,
      "start": 144.6927,
      "duration": 0.1743,
      "velocity": 127,
      "chip": "ym2612"
    },
    {
      "channel": 0,
      "note": 59,
      "start": 144.8672,
      "duration": 0.172,
      "velocity": 127,
      "chip": "ym2612"
    },
    {
      "channel": 0,
      "note": 61,
      "start": 145.0393,
      "duration": 0.1771,
      "velocity": 114,
      "chip": "ym2612"
    },
    {
      "channel": 0,
      "note": 61,
      "start": 145.2166,
      "duration": 0.0818,
      "velocity": 127,
      "chip": "ym2612"
    },
    {
      "channel": 0,
      "note": 61,
      "start": 145.2985,
      "duration": 0.0844,
      "velocity": 127,
      "chip": "ym2612"
    },
    {
      "channel": 0,
      "note": 59,
      "start": 145.383,
      "duration": 0.1706,
      "velocity": 127,
      "chip": "ym2612"
    },
    {
      "channel": 0,
      "note": 56,
      "start": 145.5538,
      "duration": 0.1859,
      "velocity": 127,
      "chip": "ym2612"
    },
    {
      "channel": 0,
      "note": 54,
      "start": 145.7399,
      "duration": 0.1812,
      "velocity": 114,
      "chip": "ym2612"
    },
    {
      "channel": 0,
      "note": 54,
      "start": 145.9213,
      "duration": 0.082,
      "velocity": 127,
      "chip": "ym2612"
    },
    {
      "channel": 0,
      "note": 54,
      "start": 146.0034,
      "duration": 0.0844,
      "velocity": 127,
      "chip": "ym2612"
    },
    {
      "channel": 0,
      "note": 56,
      "start": 146.088,
      "duration": 0.1717,
      "velocity": 127,
      "chip": "ym2612"
    },
    {
      "channel": 0,
      "note": 59,
      "start": 146.2599,
      "duration": 0.1703,
      "velocity": 127,
      "chip": "ym2612"
    },
    {
      "channel": 0,
      "note": 61,
      "start": 146.4304,
      "duration": 0.177,
      "velocity": 114,
      "chip": "ym2612"
    },
    {
      "channel": 0,
      "note": 61,
      "start": 146.6076,
      "duration": 0.0847,
      "velocity": 127,
      "chip": "ym2612"
    },
    {
      "channel": 0,
      "note": 61,
      "start": 146.6926,
      "duration": 0.084,
      "velocity": 127,
      "chip": "ym2612"
    },
    {
      "channel": 0,
      "note": 59,
      "start": 146.7767,
      "duration": 0.1681,
      "velocity": 127,
      "chip": "ym2612"
    },
    {
      "channel": 0,
      "note": 56,
      "start": 146.945,
      "duration": 0.185,
      "velocity": 127,
      "chip": "ym2612"
    },
    {
      "channel": 0,
      "note": 54,
      "start": 147.1301,
      "duration": 0.1771,
      "velocity": 114,
      "chip": "ym2612"
    },
    {
      "channel": 0,
      "note": 54,
      "start": 147.3075,
      "duration": 0.0885,
      "velocity": 127,
      "chip": "ym2612"
    },
    {
      "channel": 0,
      "note": 54,
      "start": 147.3962,
      "duration": 0.0947,
      "velocity": 127,
      "chip": "ym2612"
    },
    {
      "channel": 0,
      "note": 56,
      "start": 147.4911,
      "duration": 0.0835,
      "velocity": 127,
      "chip": "ym2612"
    },
    {
      "channel": 0,
      "note": 59,
      "start": 147.5748,
      "duration": 0.0898,
      "velocity": 127,
      "chip": "ym2612"
    },
    {
      "channel": 0,
      "note": 61,
      "start": 147.6647,
      "duration": 0.0855,
      "velocity": 127,
      "chip": "ym2612"
    },
    {
      "channel": 0,
      "note": 64,
      "start": 147.7504,
      "duration": 0.0881,
      "velocity": 127,
      "chip": "ym2612"
    },
    {
      "channel": 0,
      "note": 59,
      "start": 147.8386,
      "duration": 0.1762,
      "velocity": 114,
      "chip": "ym2612"
    },
    {
      "channel": 1,
      "note": 83,
      "start": 147.8405,
      "duration": 0.1748,
      "velocity": 109,
      "chip": "ym2612"
    },
    {
      "channel": 2,
      "note": 88,
      "start": 147.8425,
      "duration": 0.1733,
      "velocity": 109,
      "chip": "ym2612"
    },
    {
      "channel": 3,
      "note": 90,
      "start": 147.8444,
      "duration": 0.1719,
      "velocity": 109,
      "chip": "ym2612"
    },
    {
      "channel": 0,
      "note": 59,
      "start": 148.015,
      "duration": 0.0919,
      "velocity": 127,
      "chip": "ym2612"
    },
    {
      "channel": 1,
      "note": 83,
      "start": 148.0155,
      "duration": 18.983,
      "velocity": 109,
      "chip": "ym2612"
    },
    {
      "channel": 2,
      "note": 86,
      "start": 148.016,
      "duration": 18.9825,
      "velocity": 109,
      "chip": "ym2612"
    },
    {
      "channel": 3,
      "note": 90,
      "start": 148.0166,
      "duration": 18.982,
      "velocity": 109,
      "chip": "ym2612"
    },
    {
      "channel": 0,
      "note": 59,
      "start": 148.1071,
      "duration": 0.0905,
      "velocity": 127,
      "chip": "ym2612"
    },
    {
      "channel": 0,
      "note": 57,
      "start": 148.1978,
      "duration": 0.18,
      "velocity": 127,
      "chip": "ym2612"
    }
  ]
}