{
  "track_name": "02 - Team Manager",
  "duration_sec": 32.576,
  "sample_rate": 44100,
  "note_count": 734,
  "unique_pitches": 13,
  "pitch_range": 39,
  "avg_note_duration": 0.1959,
  "reconstruction_stats": {
    "notes_reconstructed": 734,
    "keyon_events": 734,
    "keyoff_events": 729,
    "orphan_keyons": 5,
    "unique_pitches": 13,
    "pitch_range": 39,
    "avg_duration_sec": 0.1959
  },
  "metadata": {
    "source": "S\\Speedball 2 - Brutal Deluxe\\02 - Team Manager.vgm"
  },
  "notes": [
    {
      "channel": 0,
      "note": 53,
      "start": 0.0,
      "duration": 0.2981,
      "velocity": 102,
      "chip": "ym2612"
    },
    {
      "channel": 1,
      "note": 65,
      "start": 0.0021,
      "duration": 0.0961,
      "velocity": 104,
      "chip": "ym2612"
    },
    {
      "channel": 1,
      "note": 63,
      "start": 0.0983,
      "duration": 0.0998,
      "velocity": 104,
      "chip": "ym2612"
    },
    {
      "channel": 1,
      "note": 53,
      "start": 0.1983,
      "duration": 0.1003,
      "velocity": 104,
      "chip": "ym2612"
    },
    {
      "channel": 3,
      "note": 53,
      "start": 0.2004,
      "duration": 0.1004,
      "velocity": 73,
      "chip": "ym2612"
    },
    {
      "channel": 0,
      "note": 65,
      "start": 0.2982,
      "duration": 0.2999,
      "velocity": 102,
      "chip": "ym2612"
    },
    {
      "channel": 1,
      "note": 65,
      "start": 0.2988,
      "duration": 0.0994,
      "velocity": 104,
      "chip": "ym2612"
    },
    {
      "channel": 3,
      "note": 63,
      "start": 0.301,
      "duration": 0.0993,
      "velocity": 73,
      "chip": "ym2612"
    },
    {
      "channel": 1,
      "note": 63,
      "start": 0.3983,
      "duration": 0.0998,
      "velocity": 104,
      "chip": "ym2612"
    },
    {
      "channel": 3,
      "note": 65,
      "start": 0.4005,
      "duration": 0.0998,
      "velocity": 73,
      "chip": "ym2612"
    },
    {
      "channel": 1,
      "note": 53,
      "start": 0.4983,
      "duration": 0.1019,
      "velocity": 104,
      "chip": "ym2612"
    },
    {
      "channel": 3,
      "note": 53,
      "start": 0.5005,
      "duration": 0.1019,
      "velocity": 73,
      "chip": "ym2612"
    },
    {
      "channel": 0,
      "note": 53,
      "start": 0.5983,
      "duration": 0.2998,
      "velocity": 102,
      "chip": "ym2612"
    },
    {
      "channel": 1,
      "note": 65,
      "start": 0.6004,
      "duration": 0.0978,
      "velocity": 104,
      "chip": "ym2612"
    },
    {
      "channel": 3,
      "note": 65,
      "start": 0.6026,
      "duration": 1.1977,
      "velocity": 73,
      "chip": "ym2612"
    },
    {
      "channel": 1,
      "note": 63,
      "start": 0.6983,
      "duration": 0.0998,
      "velocity": 104,
      "chip": "ym2612"
    },
    {
      "channel": 1,
      "note": 53,
      "start": 0.7983,
      "duration": 0.1003,
      "velocity": 104,
      "chip": "ym2612"
    },
    {
      "channel": 0,
      "note": 65,
      "start": 0.8982,
      "duration": 0.1998,
      "velocity": 102,
      "chip": "ym2612"
    },
    {
      "channel": 1,
      "note": 65,
      "start": 0.8988,
      "duration": 0.0993,
      "velocity": 104,
      "chip": "ym2612"
    },
    {
      "channel": 1,
      "note": 63,
      "start": 0.9983,
      "duration": 0.1003,
      "velocity": 104,
      "chip": "ym2612"
    },
    {
      "channel": 0,
      "note": 51,
      "start": 1.0982,
      "duration": 0.0999,
      "velocity": 102,
      "chip": "ym2612"
    },
    {
      "channel": 1,
      "note": 53,
      "start": 1.0988,
      "duration": 0.5014,
      "velocity": 104,
      "chip": "ym2612"
    },
    {
      "channel": 0,
      "note": 53,
      "start": 1.1982,
      "duration": 0.0998,
      "velocity": 102,
      "chip": "ym2612"
    },
    {
      "channel": 0,
      "note": 63,
      "start": 1.2981,
      "duration": 0.0999,
      "velocity": 102,
      "chip": "ym2612"
    },
    {
      "channel": 0,
      "note": 65,
      "start": 1.3982,
      "duration": 0.0998,
      "velocity": 102,
      "chip": "ym2612"
    },
    {
      "channel": 0,
      "note": 51,
      "start": 1.4982,
      "duration": 0.0998,
      "velocity": 102,
      "chip": "ym2612"
    },
    {
      "channel": 0,
      "note": 53,
      "start": 1.5982,
      "duration": 0.2999,
      "velocity": 102,
      "chip": "ym2612"
    },
    {
      "channel": 1,
      "note": 63,
      "start": 1.6004,
      "duration": 0.0977,
      "velocity": 104,
      "chip": "ym2612"
    },
    {
      "channel": 1,
      "note": 61,
      "start": 1.6983,
      "duration": 0.0998,
      "velocity": 104,
      "chip": "ym2612"
    },
    {
      "channel": 1,
      "note": 51,
      "start": 1.7983,
      "duration": 0.1004,
      "velocity": 104,
      "chip": "ym2612"
    },
    {
      "channel": 3,
      "note": 53,
      "start": 1.8005,
      "duration": 0.1003,
      "velocity": 73,
      "chip": "ym2612"
    },
    {
      "channel": 0,
      "note": 65,
      "start": 1.8983,
      "duration": 0.2998,
      "velocity": 102,
      "chip": "ym2612"
    },
    {
      "channel": 1,
      "note": 63,
      "start": 1.8988,
      "duration": 0.0994,
      "velocity": 104,
      "chip": "ym2612"
    },
    {
      "channel": 3,
      "note": 63,
      "start": 1.901,
      "duration": 0.0993,
      "velocity": 73,
      "chip": "ym2612"
    },
    {
      "channel": 1,
      "note": 61,
      "start": 1.9983,
      "duration": 0.0998,
      "velocity": 104,
      "chip": "ym2612"
    },
    {
      "channel": 3,
      "note": 65,
      "start": 2.0005,
      "duration": 0.0998,
      "velocity": 73,
      "chip": "ym2612"
    },
    {
      "channel": 1,
      "note": 51,
      "start": 2.0983,
      "duration": 0.1019,
      "velocity": 104,
      "chip": "ym2612"
    },
    {
      "channel": 3,
      "note": 53,
      "start": 2.1005,
      "duration": 0.1019,
      "velocity": 73,
      "chip": "ym2612"
    },
    {
      "channel": 0,
      "note": 53,
      "start": 2.1983,
      "duration": 0.2998,
      "velocity": 102,
      "chip": "ym2612"
    },
    {
      "channel": 1,
      "note": 63,
      "start": 2.2004,
      "duration": 0.0978,
      "velocity": 104,
      "chip": "ym2612"
    },
    {
      "channel": 3,
      "note": 65,
      "start": 2.2026,
      "duration": 1.1977,
      "velocity": 73,
      "chip": "ym2612"
    },
    {
      "channel": 1,
      "note": 61,
      "start": 2.2983,
      "duration": 0.0998,
      "velocity": 104,
      "chip": "ym2612"
    },
    {
      "channel": 1,
      "note": 51,
      "start": 2.3983,
      "duration": 0.1003,
      "velocity": 104,
      "chip": "ym2612"
    },
    {
      "channel": 0,
      "note": 65,
      "start": 2.4982,
      "duration": 0.1999,
      "velocity": 102,
      "chip": "ym2612"
    },
    {
      "channel": 1,
      "note": 63,
      "start": 2.4988,
      "duration": 0.0993,
      "velocity": 104,
      "chip": "ym2612"
    },
    {
      "channel": 1,
      "note": 61,
      "start": 2.5983,
      "duration": 0.1003,
      "velocity": 104,
      "chip": "ym2612"
    },
    {
      "channel": 0,
      "note": 51,
      "start": 2.6982,
      "duration": 0.0998,
      "velocity": 102,
      "chip": "ym2612"
    },
    {
      "channel": 1,
      "note": 51,
      "start": 2.6988,
      "duration": 0.5014,
      "velocity": 104,
      "chip": "ym2612"
    },
    {
      "channel": 0,
      "note": 53,
      "start": 2.7982,
      "duration": 0.0998,
      "velocity": 102,
      "chip": "ym2612"
    },
    {
      "channel": 0,
      "note": 63,
      "start": 2.8981,
      "duration": 0.0999,
      "velocity": 102,
      "chip": "ym2612"
    },
    {
      "channel": 0,
      "note": 65,
      "start": 2.9981,
      "duration": 0.0999,
      "velocity": 102,
      "chip": "ym2612"
    },
    {
      "channel": 0,
      "note": 53,
      "start": 3.0981,
      "duration": 0.0999,
      "velocity": 102,
      "chip": "ym2612"
    },
    {
      "channel": 0,
      "note": 51,
      "start": 3.1982,
      "duration": 0.2999,
      "velocity": 102,
      "chip": "ym2612"
    },
    {
      "channel": 1,
      "note": 63,
      "start": 3.2004,
      "duration": 0.0977,
      "velocity": 104,
      "chip": "ym2612"
    },
    {
      "channel": 1,
      "note": 61,
      "start": 3.2983,
      "duration": 0.0998,
      "velocity": 104,
      "chip": "ym2612"
    },
    {
      "channel": 1,
      "note": 51,
      "start": 3.3983,
      "duration": 0.1004,
      "velocity": 104,
      "chip": "ym2612"
    },
    {
      "channel": 3,
      "note": 51,
      "start": 3.4005,
      "duration": 0.1003,
      "velocity": 73,
      "chip": "ym2612"
    },
    {
      "channel": 0,
      "note": 63,
      "start": 3.4983,
      "duration": 0.2998,
      "velocity": 102,
      "chip": "ym2612"
    },
    {
      "channel": 1,
      "note": 63,
      "start": 3.4988,
      "duration": 0.0994,
      "velocity": 104,
      "chip": "ym2612"
    },
    {
      "channel": 3,
      "note": 61,
      "start": 3.501,
      "duration": 0.0993,
      "velocity": 73,
      "chip": "ym2612"
    },
    {
      "channel": 1,
      "note": 61,
      "start": 3.5983,
      "duration": 0.0998,
      "velocity": 104,
      "chip": "ym2612"
    },
    {
      "channel": 3,
      "note": 63,
      "start": 3.6005,
      "duration": 0.0998,
      "velocity": 73,
      "chip": "ym2612"
    },
    {
      "channel": 1,
      "note": 51,
      "start": 3.6983,
      "duration": 0.1019,
      "velocity": 104,
      "chip": "ym2612"
    },
    {
      "channel": 3,
      "note": 51,
      "start": 3.7005,
      "duration": 0.1019,
      "velocity": 73,
      "chip": "ym2612"
    },
    {
      "channel": 0,
      "note": 51,
      "start": 3.7983,
      "duration": 0.2998,
      "velocity": 102,
      "chip": "ym2612"
    },
    {
      "channel": 1,
      "note": 63,
      "start": 3.8004,
      "duration": 0.0978,
      "velocity": 104,
      "chip": "ym2612"
    },
    {
      "channel": 3,
      "note": 63,
      "start": 3.8026,
      "duration": 1.1977,
      "velocity": 73,
      "chip": "ym2612"
    },
    {
      "channel": 1,
      "note": 61,
      "start": 3.8983,
      "duration": 0.0998,
      "velocity": 104,
      "chip": "ym2612"
    },
    {
      "channel": 1,
      "note": 51,
      "start": 3.9982,
      "duration": 0.1004,
      "velocity": 104,
      "chip": "ym2612"
    },
    {
      "channel": 0,
      "note": 63,
      "start": 4.0982,
      "duration": 0.1998,
      "velocity": 102,
      "chip": "ym2612"
    },
    {
      "channel": 1,
      "note": 63,
      "start": 4.0988,
      "duration": 0.0993,
      "velocity": 104,
      "chip": "ym2612"
    },
    {
      "channel": 1,
      "note": 61,
      "start": 4.1983,
      "duration": 0.1003,
      "velocity": 104,
      "chip": "ym2612"
    },
    {
      "channel": 0,
      "note": 49,
      "start": 4.2982,
      "duration": 0.0999,
      "velocity": 102,
      "chip": "ym2612"
    },
    {
      "channel": 1,
      "note": 51,
      "start": 4.2988,
      "duration": 0.5014,
      "velocity": 104,
      "chip": "ym2612"
    },
    {
      "channel": 0,
      "note": 51,
      "start": 4.3982,
      "duration": 0.0998,
      "velocity": 102,
      "chip": "ym2612"
    },
    {
      "channel": 0,
      "note": 61,
      "start": 4.4981,
      "duration": 0.0999,
      "velocity": 102,
      "chip": "ym2612"
    },
    {
      "channel": 0,
      "note": 63,
      "start": 4.5981,
      "duration": 0.0999,
      "velocity": 102,
      "chip": "ym2612"
    },
    {
      "channel": 0,
      "note": 49,
      "start": 4.6981,
      "duration": 0.0999,
      "velocity": 102,
      "chip": "ym2612"
    },
    {
      "channel": 0,
      "note": 51,
      "start": 4.7982,
      "duration": 0.2999,
      "velocity": 102,
      "chip": "ym2612"
    },
    {
      "channel": 1,
      "note": 61,
      "start": 4.8003,
      "duration": 0.0978,
      "velocity": 104,
      "chip": "ym2612"
    },
    {
      "channel": 1,
      "note": 59,
      "start": 4.8983,
      "duration": 0.0998,
      "velocity": 104,
      "chip": "ym2612"
    },
    {
      "channel": 1,
      "note": 49,
      "start": 4.9983,
      "duration": 0.1004,
      "velocity": 104,
      "chip": "ym2612"
    },
    {
      "channel": 3,
      "note": 51,
      "start": 5.0005,
      "duration": 0.1003,
      "velocity": 73,
      "chip": "ym2612"
    },
    {
      "channel": 0,
      "note": 63,
      "start": 5.0983,
      "duration": 0.2998,
      "velocity": 102,
      "chip": "ym2612"
    },
    {
      "channel": 1,
      "note": 61,
      "start": 5.0988,
      "duration": 0.0994,
      "velocity": 104,
      "chip": "ym2612"
    },
    {
      "channel": 3,
      "note": 61,
      "start": 5.101,
      "duration": 0.0993,
      "velocity": 73,
      "chip": "ym2612"
    },
    {
      "channel": 1,
      "note": 59,
      "start": 5.1983,
      "duration": 0.0998,
      "velocity": 104,
      "chip": "ym2612"
    },
    {
      "channel": 3,
      "note": 63,
      "start": 5.2005,
      "duration": 0.0998,
      "velocity": 73,
      "chip": "ym2612"
    },
    {
      "channel": 1,
      "note": 49,
      "start": 5.2983,
      "duration": 0.1019,
      "velocity": 104,
      "chip": "ym2612"
    },
    {
      "channel": 3,
      "note": 51,
      "start": 5.3005,
      "duration": 0.1019,
      "velocity": 73,
      "chip": "ym2612"
    },
    {
      "channel": 0,
      "note": 51,
      "start": 5.3983,
      "duration": 0.2998,
      "velocity": 102,
      "chip": "ym2612"
    },
    {
      "channel": 1,
      "note": 61,
      "start": 5.4004,
      "duration": 0.0978,
      "velocity": 104,
      "chip": "ym2612"
    },
    {
      "channel": 3,
      "note": 63,
      "start": 5.4026,
      "duration": 1.1828,
      "velocity": 73,
      "chip": "ym2612"
    },
    {
      "channel": 1,
      "note": 59,
      "start": 5.4983,
      "duration": 0.0998,
      "velocity": 104,
      "chip": "ym2612"
    },
    {
      "channel": 1,
      "note": 49,
      "start": 5.5983,
      "duration": 0.1003,
      "velocity": 104,
      "chip": "ym2612"
    },
    {
      "channel": 0,
      "note": 63,
      "start": 5.6982,
      "duration": 0.1998,
      "velocity": 102,
      "chip": "ym2612"
    },
    {
      "channel": 1,
      "note": 61,
      "start": 5.6988,
      "duration": 0.0993,
      "velocity": 104,
      "chip": "ym2612"
    },
    {
      "channel": 1,
      "note": 59,
      "start": 5.7983,
      "duration": 0.1003,
      "velocity": 104,
      "chip": "ym2612"
    },
    {
      "channel": 0,
      "note": 49,
      "start": 5.8982,
      "duration": 0.0999,
      "velocity": 102,
      "chip": "ym2612"
    },
    {
      "channel": 1,
      "note": 49,
      "start": 5.8988,
      "duration": 0.5017,
      "velocity": 104,
      "chip": "ym2612"
    },
    {
      "channel": 0,
      "note": 51,
      "start": 5.9982,
      "duration": 0.0998,
      "velocity": 102,
      "chip": "ym2612"
    },
    {
      "channel": 0,
      "note": 61,
      "start": 6.0981,
      "duration": 0.0999,
      "velocity": 102,
      "chip": "ym2612"
    },
    {
      "channel": 0,
      "note": 63,
      "start": 6.1981,
      "duration": 0.0999,
      "velocity": 102,
      "chip": "ym2612"
    },
    {
      "channel": 0,
      "note": 51,
      "start": 6.2982,
      "duration": 0.1001,
      "velocity": 102,
      "chip": "ym2612"
    },
    {
      "channel": 0,
      "note": 53,
      "start": 6.3985,
      "duration": 0.2848,
      "velocity": 102,
      "chip": "ym2612"
    },
    {
      "channel": 1,
      "note": 65,
      "start": 6.4006,
      "duration": 0.0828,
      "velocity": 104,
      "chip": "ym2612"
    },
    {
      "channel": 4,
      "note": 31,
      "start": 6.4029,
      "duration": 0.0811,
      "velocity": 84,
      "chip": "ym2612"
    },
    {
      "channel": 1,
      "note": 63,
      "start": 6.4835,
      "duration": 0.0998,
      "velocity": 104,
      "chip": "ym2612"
    },
    {
      "channel": 4,
      "note": 31,
      "start": 6.4842,
      "duration": 0.1019,
      "velocity": 84,
      "chip": "ym2612"
    },
    {
      "channel": 1,
      "note": 53,
      "start": 6.5834,
      "duration": 0.1004,
      "velocity": 104,
      "chip": "ym2612"
    },
    {
      "channel": 3,
      "note": 53,
      "start": 6.5856,
      "duration": 0.1003,
      "velocity": 73,
      "chip": "ym2612"
    },
    {
      "channel": 4,
      "note": 31,
      "start": 6.5862,
      "duration": 0.1999,
      "velocity": 84,
      "chip": "ym2612"
    },
    {
      "channel": 0,
      "note": 65,
      "start": 6.6834,
      "duration": 0.2687,
      "velocity": 102,
      "chip": "ym2612"
    },
    {
      "channel": 1,
      "note": 65,
      "start": 6.684,
      "duration": 0.0993,
      "velocity": 104,
      "chip": "ym2612"
    },
    {
      "channel": 3,
      "note": 63,
      "start": 6.6861,
      "duration": 0.0994,
      "velocity": 73,
      "chip": "ym2612"
    },
    {
      "channel": 1,
      "note": 63,
      "start": 6.7835,
      "duration": 0.082,
      "velocity": 104,
      "chip": "ym2612"
    },
    {
      "channel": 3,
      "note": 65,
      "start": 6.7857,
      "duration": 0.082,
      "velocity": 73,
      "chip": "ym2612"
    },
    {
      "channel": 4,
      "note": 31,
      "start": 6.7863,
      "duration": 0.1707,
      "velocity": 84,
      "chip": "ym2612"
    },
    {
      "channel": 1,
      "note": 53,
      "start": 6.8656,
      "duration": 0.0885,
      "velocity": 104,
      "chip": "ym2612"
    },
    {
      "channel": 3,
      "note": 53,
      "start": 6.8679,
      "duration": 0.0885,
      "velocity": 73,
      "chip": "ym2612"
    },
    {
      "channel": 0,
      "note": 53,
      "start": 6.9522,
      "duration": 0.2912,
      "velocity": 102,
      "chip": "ym2612"
    },
    {
      "channel": 1,
      "note": 65,
      "start": 6.9544,
      "duration": 0.0891,
      "velocity": 104,
      "chip": "ym2612"
    },
    {
      "channel": 3,
      "note": 65,
      "start": 6.9566,
      "duration": 1.1417,
      "velocity": 73,
      "chip": "ym2612"
    },
    {
      "channel": 4,
      "note": 31,
      "start": 6.9571,
      "duration": 0.0871,
      "velocity": 84,
      "chip": "ym2612"
    },
    {
      "channel": 1,
      "note": 63,
      "start": 7.0437,
      "duration": 0.0997,
      "velocity": 104,
      "chip": "ym2612"
    },
    {
      "channel": 4,
      "note": 31,
      "start": 7.0443,
      "duration": 0.2002,
      "velocity": 84,
      "chip": "ym2612"
    },
    {
      "channel": 1,
      "note": 53,
      "start": 7.1435,
      "duration": 0.1004,
      "velocity": 104,
      "chip": "ym2612"
    },
    {
      "channel": 0,
      "note": 65,
      "start": 7.2435,
      "duration": 0.1918,
      "velocity": 102,
      "chip": "ym2612"
    },
    {
      "channel": 1,
      "note": 65,
      "start": 7.2441,
      "duration": 0.0994,
      "velocity": 104,
      "chip": "ym2612"
    },
    {
      "channel": 4,
      "note": 31,
      "start": 7.2448,
      "duration": 0.1919,
      "velocity": 84,
      "chip": "ym2612"
    },
    {
      "channel": 1,
      "note": 63,
      "start": 7.3436,
      "duration": 0.0923,
      "velocity": 104,
      "chip": "ym2612"
    },
    {
      "channel": 0,
      "note": 51,
      "start": 7.4355,
      "duration": 0.0998,
      "velocity": 102,
      "chip": "ym2612"
    },
    {
      "channel": 1,
      "note": 53,
      "start": 7.4361,
      "duration": 0.4732,
      "velocity": 104,
      "chip": "ym2612"
    },
    {
      "channel": 4,
      "note": 31,
      "start": 7.4368,
      "duration": 0.0994,
      "velocity": 84,
      "chip": "ym2612"
    },
    {
      "channel": 0,
      "note": 53,
      "start": 7.5355,
      "duration": 0.0839,
      "velocity": 102,
      "chip": "ym2612"
    },
    {
      "channel": 4,
      "note": 31,
      "start": 7.5363,
      "duration": 0.0838,
      "velocity": 84,
      "chip": "ym2612"
    },
    {
      "channel": 0,
      "note": 63,
      "start": 7.6196,
      "duration": 0.0875,
      "velocity": 102,
      "chip": "ym2612"
    },
    {
      "channel": 4,
      "note": 31,
      "start": 7.6203,
      "duration": 0.0891,
      "velocity": 84,
      "chip": "ym2612"
    },
    {
      "channel": 0,
      "note": 65,
      "start": 7.7073,
      "duration": 0.0998,
      "velocity": 102,
      "chip": "ym2612"
    },
    {
      "channel": 4,
      "note": 31,
      "start": 7.7096,
      "duration": 0.2019,
      "velocity": 84,
      "chip": "ym2612"
    },
    {
      "channel": 0,
      "note": 51,
      "start": 7.8072,
      "duration": 0.0999,
      "velocity": 102,
      "chip": "ym2612"
    },
    {
      "channel": 0,
      "note": 53,
      "start": 7.9073,
      "duration": 0.2888,
      "velocity": 102,
      "chip": "ym2612"
    },
    {
      "channel": 1,
      "note": 63,
      "start": 7.9094,
      "duration": 0.0867,
      "velocity": 104,
      "chip": "ym2612"
    },
    {
      "channel": 4,
      "note": 31,
      "start": 7.9117,
      "duration": 0.0851,
      "velocity": 84,
      "chip": "ym2612"
    },
    {
      "channel": 1,
      "note": 61,
      "start": 7.9963,
      "duration": 0.0998,
      "velocity": 104,
      "chip": "ym2612"
    },
    {
      "channel": 4,
      "note": 31,
      "start": 7.997,
      "duration": 0.1019,
      "velocity": 84,
      "chip": "ym2612"
    },
    {
      "channel": 1,
      "note": 51,
      "start": 8.0963,
      "duration": 0.1003,
      "velocity": 104,
      "chip": "ym2612"
    },
    {
      "channel": 3,
      "note": 53,
      "start": 8.0985,
      "duration": 0.1003,
      "velocity": 73,
      "chip": "ym2612"
    },
    {
      "channel": 4,
      "note": 31,
      "start": 8.099,
      "duration": 0.1999,
      "velocity": 84,
      "chip": "ym2612"
    },
    {
      "channel": 0,
      "note": 65,
      "start": 8.1962,
      "duration": 0.2687,
      "velocity": 102,
      "chip": "ym2612"
    },
    {
      "channel": 1,
      "note": 63,
      "start": 8.1968,
      "duration": 0.0993,
      "velocity": 104,
      "chip": "ym2612"
    },
    {
      "channel": 3,
      "note": 63,
      "start": 8.199,
      "duration": 0.0994,
      "velocity": 73,
      "chip": "ym2612"
    },
    {
      "channel": 1,
      "note": 61,
      "start": 8.2963,
      "duration": 0.082,
      "velocity": 104,
      "chip": "ym2612"
    },
    {
      "channel": 3,
      "note": 65,
      "start": 8.2985,
      "duration": 0.082,
      "velocity": 73,
      "chip": "ym2612"
    },
    {
      "channel": 4,
      "note": 31,
      "start": 8.2991,
      "duration": 0.1707,
      "velocity": 84,
      "chip": "ym2612"
    },
    {
      "channel": 1,
      "note": 51,
      "start": 8.3785,
      "duration": 0.0885,
      "velocity": 104,
      "chip": "ym2612"
    },
    {
      "channel": 3,
      "note": 53,
      "start": 8.3807,
      "duration": 0.0885,
      "velocity": 73,
      "chip": "ym2612"
    },
    {
      "channel": 0,
      "note": 53,
      "start": 8.465,
      "duration": 0.2912,
      "velocity": 102,
      "chip": "ym2612"
    },
    {
      "channel": 1,
      "note": 63,
      "start": 8.4672,
      "duration": 0.0891,
      "velocity": 104,
      "chip": "ym2612"
    },
    {
      "channel": 3,
      "note": 65,
      "start": 8.4694,
      "duration": 1.1199,
      "velocity": 73,
      "chip": "ym2612"
    },
    {
      "channel": 4,
      "note": 31,
      "start": 8.47,
      "duration": 0.0871,
      "velocity": 84,
      "chip": "ym2612"
    },
    {
      "channel": 1,
      "note": 61,
      "start": 8.5565,
      "duration": 0.0997,
      "velocity": 104,
      "chip": "ym2612"
    },
    {
      "channel": 4,
      "note": 31,
      "start": 8.5571,
      "duration": 0.2002,
      "velocity": 84,
      "chip": "ym2612"
    },
    {
      "channel": 1,
      "note": 51,
      "start": 8.6564,
      "duration": 0.1004,
      "velocity": 104,
      "chip": "ym2612"
    },
    {
      "channel": 0,
      "note": 65,
      "start": 8.7564,
      "duration": 0.1852,
      "velocity": 102,
      "chip": "ym2612"
    },
    {
      "channel": 1,
      "note": 63,
      "start": 8.7569,
      "duration": 0.0994,
      "velocity": 104,
      "chip": "ym2612"
    },
    {
      "channel": 4,
      "note": 31,
      "start": 8.7576,
      "duration": 0.0994,
      "velocity": 84,
      "chip": "ym2612"
    },
    {
      "channel": 1,
      "note": 61,
      "start": 8.8564,
      "duration": 0.0857,
      "velocity": 104,
      "chip": "ym2612"
    },
    {
      "channel": 4,
      "note": 31,
      "start": 8.8571,
      "duration": 0.0857,
      "velocity": 84,
      "chip": "ym2612"
    },
    {
      "channel": 0,
      "note": 51,
      "start": 8.9418,
      "duration": 0.0998,
      "velocity": 102,
      "chip": "ym2612"
    },
    {
      "channel": 1,
      "note": 51,
      "start": 8.9423,
      "duration": 0.458,
      "velocity": 104,
      "chip": "ym2612"
    },
    {
      "channel": 4,
      "note": 31,
      "start": 8.943,
      "duration": 0.0994,
      "velocity": 84,
      "chip": "ym2612"
    },
    {
      "channel": 0,
      "note": 53,
      "start": 9.0418,
      "duration": 0.0838,
      "velocity": 102,
      "chip": "ym2612"
    },
    {
      "channel": 4,
      "note": 31,
      "start": 9.0426,
      "duration": 0.0837,
      "velocity": 84,
      "chip": "ym2612"
    },
    {
      "channel": 0,
      "note": 63,
      "start": 9.1258,
      "duration": 0.0875,
      "velocity": 102,
      "chip": "ym2612"
    },
    {
      "channel": 4,
      "note": 31,
      "start": 9.1265,
      "duration": 0.0891,
      "velocity": 84,
      "chip": "ym2612"
    },
    {
      "channel": 0,
      "note": 65,
      "start": 9.2134,
      "duration": 0.0929,
      "velocity": 102,
      "chip": "ym2612"
    },
    {
      "channel": 4,
      "note": 31,
      "start": 9.2158,
      "duration": 0.1867,
      "velocity": 84,
      "chip": "ym2612"
    },
    {
      "channel": 0,
      "note": 53,
      "start": 9.3066,
      "duration": 0.0915,
      "velocity": 102,
      "chip": "ym2612"
    },
    {
      "channel": 0,
      "note": 51,
      "start": 9.3983,
      "duration": 0.2888,
      "velocity": 102,
      "chip": "ym2612"
    },
    {
      "channel": 1,
      "note": 63,
      "start": 9.4004,
      "duration": 0.0868,
      "velocity": 104,
      "chip": "ym2612"
    },
    {
      "channel": 4,
      "note": 31,
      "start": 9.4027,
      "duration": 0.0851,
      "velocity": 84,
      "chip": "ym2612"
    },
    {
      "channel": 1,
      "note": 61,
      "start": 9.4873,
      "duration": 0.0998,
      "velocity": 104,
      "chip": "ym2612"
    },
    {
      "channel": 4,
      "note": 31,
      "start": 9.488,
      "duration": 0.1019,
      "velocity": 84,
      "chip": "ym2612"
    },
    {
      "channel": 1,
      "note": 51,
      "start": 9.5873,
      "duration": 0.1004,
      "velocity": 104,
      "chip": "ym2612"
    },
    {
      "channel": 3,
      "note": 51,
      "start": 9.5895,
      "duration": 0.1003,
      "velocity": 73,
      "chip": "ym2612"
    },
    {
      "channel": 4,
      "note": 31,
      "start": 9.5901,
      "duration": 0.1999,
      "velocity": 84,
      "chip": "ym2612"
    },
    {
      "channel": 0,
      "note": 63,
      "start": 9.6873,
      "duration": 0.2687,
      "velocity": 102,
      "chip": "ym2612"
    },
    {
      "channel": 1,
      "note": 63,
      "start": 9.6878,
      "duration": 0.0993,
      "velocity": 104,
      "chip": "ym2612"
    },
    {
      "channel": 3,
      "note": 61,
      "start": 9.69,
      "duration": 0.0994,
      "velocity": 73,
      "chip": "ym2612"
    },
    {
      "channel": 1,
      "note": 61,
      "start": 9.7873,
      "duration": 0.082,
      "velocity": 104,
      "chip": "ym2612"
    },
    {
      "channel": 3,
      "note": 63,
      "start": 9.7896,
      "duration": 0.082,
      "velocity": 73,
      "chip": "ym2612"
    },
    {
      "channel": 4,
      "note": 31,
      "start": 9.7901,
      "duration": 0.1707,
      "velocity": 84,
      "chip": "ym2612"
    },
    {
      "channel": 1,
      "note": 51,
      "start": 9.8695,
      "duration": 0.0885,
      "velocity": 104,
      "chip": "ym2612"
    },
    {
      "channel": 3,
      "note": 51,
      "start": 9.8717,
      "duration": 0.0885,
      "velocity": 73,
      "chip": "ym2612"
    },
    {
      "channel": 0,
      "note": 51,
      "start": 9.9561,
      "duration": 0.2912,
      "velocity": 102,
      "chip": "ym2612"
    },
    {
      "channel": 1,
      "note": 63,
      "start": 9.9582,
      "duration": 0.0891,
      "velocity": 104,
      "chip": "ym2612"
    },
    {
      "channel": 3,
      "note": 63,
      "start": 9.9604,
      "duration": 1.1417,
      "velocity": 73,
      "chip": "ym2612"
    },
    {
      "channel": 4,
      "note": 31,
      "start": 9.961,
      "duration": 0.0871,
      "velocity": 84,
      "chip": "ym2612"
    },
    {
      "channel": 1,
      "note": 61,
      "start": 10.0475,
      "duration": 0.0997,
      "velocity": 104,
      "chip": "ym2612"
    },
    {
      "channel": 4,
      "note": 31,
      "start": 10.0482,
      "duration": 0.2002,
      "velocity": 84,
      "chip": "ym2612"
    },
    {
      "channel": 1,
      "note": 51,
      "start": 10.1474,
      "duration": 0.1004,
      "velocity": 104,
      "chip": "ym2612"
    },
    {
      "channel": 0,
      "note": 63,
      "start": 10.2474,
      "duration": 0.1918,
      "velocity": 102,
      "chip": "ym2612"
    },
    {
      "channel": 1,
      "note": 63,
      "start": 10.2479,
      "duration": 0.0994,
      "velocity": 104,
      "chip": "ym2612"
    },
    {
      "channel": 4,
      "note": 31,
      "start": 10.2486,
      "duration": 0.1919,
      "velocity": 84,
      "chip": "ym2612"
    },
    {
      "channel": 1,
      "note": 61,
      "start": 10.3475,
      "duration": 0.0923,
      "velocity": 104,
      "chip": "ym2612"
    },
    {
      "channel": 0,
      "note": 49,
      "start": 10.4394,
      "duration": 0.0998,
      "velocity": 102,
      "chip": "ym2612"
    },
    {
      "channel": 1,
      "note": 51,
      "start": 10.44,
      "duration": 0.4732,
      "velocity": 104,
      "chip": "ym2612"
    },
    {
      "channel": 4,
      "note": 31,
      "start": 10.4406,
      "duration": 0.0994,
      "velocity": 84,
      "chip": "ym2612"
    },
    {
      "channel": 0,
      "note": 51,
      "start": 10.5394,
      "duration": 0.0839,
      "velocity": 102,
      "chip": "ym2612"
    },
    {
      "channel": 4,
      "note": 31,
      "start": 10.5402,
      "duration": 0.0838,
      "velocity": 84,
      "chip": "ym2612"
    },
    {
      "channel": 0,
      "note": 61,
      "start": 10.6234,
      "duration": 0.0875,
      "velocity": 102,
      "chip": "ym2612"
    },
    {
      "channel": 4,
      "note": 31,
      "start": 10.6241,
      "duration": 0.0891,
      "velocity": 84,
      "chip": "ym2612"
    },
    {
      "channel": 0,
      "note": 63,
      "start": 10.7111,
      "duration": 0.0998,
      "velocity": 102,
      "chip": "ym2612"
    },
    {
      "channel": 4,
      "note": 31,
      "start": 10.7134,
      "duration": 0.2019,
      "velocity": 84,
      "chip": "ym2612"
    },
    {
      "channel": 0,
      "note": 49,
      "start": 10.8111,
      "duration": 0.0999,
      "velocity": 102,
      "chip": "ym2612"
    },
    {
      "channel": 0,
      "note": 51,
      "start": 10.9111,
      "duration": 0.2888,
      "velocity": 102,
      "chip": "ym2612"
    },
    {
      "channel": 1,
      "note": 61,
      "start": 10.9132,
      "duration": 0.0867,
      "velocity": 104,
      "chip": "ym2612"
    },
    {
      "channel": 4,
      "note": 31,
      "start": 10.9156,
      "duration": 0.0851,
      "velocity": 84,
      "chip": "ym2612"
    },
    {
      "channel": 1,
      "note": 59,
      "start": 11.0002,
      "duration": 0.0998,
      "velocity": 104,
      "chip": "ym2612"
    },
    {
      "channel": 4,
      "note": 31,
      "start": 11.0009,
      "duration": 0.1019,
      "velocity": 84,
      "chip": "ym2612"
    },
    {
      "channel": 1,
      "note": 49,
      "start": 11.1002,
      "duration": 0.1003,
      "velocity": 104,
      "chip": "ym2612"
    },
    {
      "channel": 3,
      "note": 51,
      "start": 11.1023,
      "duration": 0.1003,
      "velocity": 73,
      "chip": "ym2612"
    },
    {
      "channel": 4,
      "note": 31,
      "start": 11.1029,
      "duration": 0.1999,
      "velocity": 84,
      "chip": "ym2612"
    },
    {
      "channel": 0,
      "note": 63,
      "start": 11.2001,
      "duration": 0.2687,
      "velocity": 102,
      "chip": "ym2612"
    },
    {
      "channel": 1,
      "note": 61,
      "start": 11.2007,
      "duration": 0.0993,
      "velocity": 104,
      "chip": "ym2612"
    },
    {
      "channel": 3,
      "note": 61,
      "start": 11.2028,
      "duration": 0.0994,
      "velocity": 73,
      "chip": "ym2612"
    },
    {
      "channel": 1,
      "note": 59,
      "start": 11.3002,
      "duration": 0.082,
      "velocity": 104,
      "chip": "ym2612"
    },
    {
      "channel": 3,
      "note": 63,
      "start": 11.3024,
      "duration": 0.082,
      "velocity": 73,
      "chip": "ym2612"
    },
    {
      "channel": 4,
      "note": 31,
      "start": 11.303,
      "duration": 0.1707,
      "velocity": 84,
      "chip": "ym2612"
    },
    {
      "channel": 1,
      "note": 49,
      "start": 11.3823,
      "duration": 0.0885,
      "velocity": 104,
      "chip": "ym2612"
    },
    {
      "channel": 3,
      "note": 51,
      "start": 11.3846,
      "duration": 0.0885,
      "velocity": 73,
      "chip": "ym2612"
    },
    {
      "channel": 0,
      "note": 51,
      "start": 11.4689,
      "duration": 0.2912,
      "velocity": 102,
      "chip": "ym2612"
    },
    {
      "channel": 1,
      "note": 61,
      "start": 11.4711,
      "duration": 0.0891,
      "velocity": 104,
      "chip": "ym2612"
    },
    {
      "channel": 3,
      "note": 63,
      "start": 11.4732,
      "duration": 1.1051,
      "velocity": 73,
      "chip": "ym2612"
    },
    {
      "channel": 4,
      "note": 31,
      "start": 11.4738,
      "duration": 0.0871,
      "velocity": 84,
      "chip": "ym2612"
    },
    {
      "channel": 1,
      "note": 59,
      "start": 11.5604,
      "duration": 0.0997,
      "velocity": 104,
      "chip": "ym2612"
    },
    {
      "channel": 4,
      "note": 31,
      "start": 11.561,
      "duration": 0.2002,
      "velocity": 84,
      "chip": "ym2612"
    },
    {
      "channel": 1,
      "note": 49,
      "start": 11.6602,
      "duration": 0.1004,
      "velocity": 104,
      "chip": "ym2612"
    },
    {
      "channel": 0,
      "note": 63,
      "start": 11.7602,
      "duration": 0.1895,
      "velocity": 102,
      "chip": "ym2612"
    },
    {
      "channel": 1,
      "note": 61,
      "start": 11.7607,
      "duration": 0.0994,
      "velocity": 104,
      "chip": "ym2612"
    },
    {
      "channel": 4,
      "note": 31,
      "start": 11.7615,
      "duration": 0.1896,
      "velocity": 84,
      "chip": "ym2612"
    },
    {
      "channel": 1,
      "note": 59,
      "start": 11.8603,
      "duration": 0.09,
      "velocity": 104,
      "chip": "ym2612"
    },
    {
      "channel": 0,
      "note": 49,
      "start": 11.9499,
      "duration": 0.0878,
      "velocity": 102,
      "chip": "ym2612"
    },
    {
      "channel": 1,
      "note": 49,
      "start": 11.9505,
      "duration": 0.4385,
      "velocity": 104,
      "chip": "ym2612"
    },
    {
      "channel": 4,
      "note": 31,
      "start": 11.9512,
      "duration": 0.0873,
      "velocity": 84,
      "chip": "ym2612"
    },
    {
      "channel": 0,
      "note": 51,
      "start": 12.0379,
      "duration": 0.0839,
      "velocity": 102,
      "chip": "ym2612"
    },
    {
      "channel": 4,
      "note": 31,
      "start": 12.0387,
      "duration": 0.0838,
      "velocity": 84,
      "chip": "ym2612"
    },
    {
      "channel": 0,
      "note": 61,
      "start": 12.1219,
      "duration": 0.0903,
      "velocity": 102,
      "chip": "ym2612"
    },
    {
      "channel": 4,
      "note": 31,
      "start": 12.1226,
      "duration": 0.0919,
      "velocity": 84,
      "chip": "ym2612"
    },
    {
      "channel": 0,
      "note": 63,
      "start": 12.2124,
      "duration": 0.088,
      "velocity": 102,
      "chip": "ym2612"
    },
    {
      "channel": 4,
      "note": 31,
      "start": 12.2147,
      "duration": 0.1787,
      "velocity": 84,
      "chip": "ym2612"
    },
    {
      "channel": 0,
      "note": 51,
      "start": 12.3006,
      "duration": 0.0863,
      "velocity": 102,
      "chip": "ym2612"
    },
    {
      "channel": 0,
      "note": 53,
      "start": 12.3871,
      "duration": 0.2886,
      "velocity": 102,
      "chip": "ym2612"
    },
    {
      "channel": 1,
      "note": 65,
      "start": 12.3892,
      "duration": 0.0864,
      "velocity": 104,
      "chip": "ym2612"
    },
    {
      "channel": 2,
      "note": 48,
      "start": 12.3913,
      "duration": 0.0849,
      "velocity": 100,
      "chip": "ym2612"
    },
    {
      "channel": 4,
      "note": 31,
      "start": 12.3936,
      "duration": 0.0833,
      "velocity": 84,
      "chip": "ym2612"
    },
    {
      "channel": 1,
      "note": 63,
      "start": 12.4758,
      "duration": 0.0998,
      "velocity": 104,
      "chip": "ym2612"
    },
    {
      "channel": 2,
      "note": 60,
      "start": 12.4764,
      "duration": 0.0998,
      "velocity": 100,
      "chip": "ym2612"
    },
    {
      "channel": 4,
      "note": 31,
      "start": 12.477,
      "duration": 0.1018,
      "velocity": 84,
      "chip": "ym2612"
    },
    {
      "channel": 1,
      "note": 53,
      "start": 12.5758,
      "duration": 0.1003,
      "velocity": 104,
      "chip": "ym2612"
    },
    {
      "channel": 2,
      "note": 58,
      "start": 12.5763,
      "duration": 0.1004,
      "velocity": 100,
      "chip": "ym2612"
    },
    {
      "channel": 3,
      "note": 53,
      "start": 12.5785,
      "duration": 0.1003,
      "velocity": 73,
      "chip": "ym2612"
    },
    {
      "channel": 4,
      "note": 31,
      "start": 12.5791,
      "duration": 0.1999,
      "velocity": 84,
      "chip": "ym2612"
    },
    {
      "channel": 0,
      "note": 65,
      "start": 12.6757,
      "duration": 0.2821,
      "velocity": 102,
      "chip": "ym2612"
    },
    {
      "channel": 1,
      "note": 65,
      "start": 12.6763,
      "duration": 0.0993,
      "velocity": 104,
      "chip": "ym2612"
    },
    {
      "channel": 2,
      "note": 51,
      "start": 12.6769,
      "duration": 0.0994,
      "velocity": 100,
      "chip": "ym2612"
    },
    {
      "channel": 3,
      "note": 63,
      "start": 12.679,
      "duration": 0.0994,
      "velocity": 73,
      "chip": "ym2612"
    },
    {
      "channel": 1,
      "note": 63,
      "start": 12.7759,
      "duration": 0.0929,
      "velocity": 104,
      "chip": "ym2612"
    },
    {
      "channel": 2,
      "note": 53,
      "start": 12.7764,
      "duration": 0.3704,
      "velocity": 100,
      "chip": "ym2612"
    },
    {
      "channel": 3,
      "note": 65,
      "start": 12.7785,
      "duration": 0.0925,
      "velocity": 73,
      "chip": "ym2612"
    },
    {
      "channel": 4,
      "note": 31,
      "start": 12.7791,
      "duration": 0.1837,
      "velocity": 84,
      "chip": "ym2612"
    },
    {
      "channel": 1,
      "note": 53,
      "start": 12.869,
      "duration": 0.091,
      "velocity": 104,
      "chip": "ym2612"
    },
    {
      "channel": 3,
      "note": 53,
      "start": 12.8712,
      "duration": 0.091,
      "velocity": 73,
      "chip": "ym2612"
    },
    {
      "channel": 0,
      "note": 53,
      "start": 12.958,
      "duration": 0.2882,
      "velocity": 102,
      "chip": "ym2612"
    },
    {
      "channel": 1,
      "note": 65,
      "start": 12.9602,
      "duration": 0.0862,
      "velocity": 104,
      "chip": "ym2612"
    },
    {
      "channel": 3,
      "note": 65,
      "start": 12.9624,
      "duration": 1.1332,
      "velocity": 73,
      "chip": "ym2612"
    },
    {
      "channel": 4,
      "note": 31,
      "start": 12.9629,
      "duration": 0.0842,
      "velocity": 84,
      "chip": "ym2612"
    },
    {
      "channel": 1,
      "note": 63,
      "start": 13.0466,
      "duration": 0.0998,
      "velocity": 104,
      "chip": "ym2612"
    },
    {
      "channel": 4,
      "note": 31,
      "start": 13.0472,
      "duration": 0.2008,
      "velocity": 84,
      "chip": "ym2612"
    },
    {
      "channel": 1,
      "note": 53,
      "start": 13.1465,
      "duration": 0.1004,
      "velocity": 104,
      "chip": "ym2612"
    },
    {
      "channel": 2,
      "note": 60,
      "start": 13.1471,
      "duration": 0.1004,
      "velocity": 100,
      "chip": "ym2612"
    },
    {
      "channel": 0,
      "note": 65,
      "start": 13.2465,
      "duration": 0.1895,
      "velocity": 102,
      "chip": "ym2612"
    },
    {
      "channel": 1,
      "note": 65,
      "start": 13.2471,
      "duration": 0.0993,
      "velocity": 104,
      "chip": "ym2612"
    },
    {
      "channel": 2,
      "note": 58,
      "start": 13.2476,
      "duration": 0.0994,
      "velocity": 100,
      "chip": "ym2612"
    },
    {
      "channel": 4,
      "note": 31,
      "start": 13.2482,
      "duration": 0.1895,
      "velocity": 84,
      "chip": "ym2612"
    },
    {
      "channel": 1,
      "note": 63,
      "start": 13.3465,
      "duration": 0.09,
      "velocity": 104,
      "chip": "ym2612"
    },
    {
      "channel": 2,
      "note": 51,
      "start": 13.3471,
      "duration": 0.09,
      "velocity": 100,
      "chip": "ym2612"
    },
    {
      "channel": 0,
      "note": 51,
      "start": 13.4362,
      "duration": 0.0998,
      "velocity": 102,
      "chip": "ym2612"
    },
    {
      "channel": 1,
      "note": 53,
      "start": 13.4367,
      "duration": 0.4687,
      "velocity": 104,
      "chip": "ym2612"
    },
    {
      "channel": 2,
      "note": 53,
      "start": 13.4373,
      "duration": 0.4687,
      "velocity": 100,
      "chip": "ym2612"
    },
    {
      "channel": 4,
      "note": 31,
      "start": 13.4379,
      "duration": 0.0988,
      "velocity": 84,
      "chip": "ym2612"
    },
    {
      "channel": 0,
      "note": 53,
      "start": 13.5362,
      "duration": 0.0817,
      "velocity": 102,
      "chip": "ym2612"
    },
    {
      "channel": 4,
      "note": 31,
      "start": 13.5369,
      "duration": 0.0817,
      "velocity": 84,
      "chip": "ym2612"
    },
    {
      "channel": 0,
      "note": 63,
      "start": 13.618,
      "duration": 0.0852,
      "velocity": 102,
      "chip": "ym2612"
    },
    {
      "channel": 4,
      "note": 31,
      "start": 13.6188,
      "duration": 0.0867,
      "velocity": 84,
      "chip": "ym2612"
    },
    {
      "channel": 0,
      "note": 65,
      "start": 13.7034,
      "duration": 0.0998,
      "velocity": 102,
      "chip": "ym2612"
    },
    {
      "channel": 4,
      "note": 31,
      "start": 13.7057,
      "duration": 0.2024,
      "velocity": 84,
      "chip": "ym2612"
    },
    {
      "channel": 0,
      "note": 51,
      "start": 13.8033,
      "duration": 0.1,
      "velocity": 102,
      "chip": "ym2612"
    },
    {
      "channel": 0,
      "note": 53,
      "start": 13.9034,
      "duration": 0.2895,
      "velocity": 102,
      "chip": "ym2612"
    },
    {
      "channel": 1,
      "note": 63,
      "start": 13.9056,
      "duration": 0.0875,
      "velocity": 104,
      "chip": "ym2612"
    },
    {
      "channel": 2,
      "note": 48,
      "start": 13.9061,
      "duration": 0.0875,
      "velocity": 100,
      "chip": "ym2612"
    },
    {
      "channel": 4,
      "note": 31,
      "start": 13.9083,
      "duration": 0.0859,
      "velocity": 84,
      "chip": "ym2612"
    },
    {
      "channel": 1,
      "note": 61,
      "start": 13.9932,
      "duration": 0.0998,
      "velocity": 104,
      "chip": "ym2612"
    },
    {
      "channel": 2,
      "note": 60,
      "start": 13.9937,
      "duration": 0.0998,
      "velocity": 100,
      "chip": "ym2612"
    },
    {
      "channel": 4,
      "note": 31,
      "start": 13.9944,
      "duration": 0.1018,
      "velocity": 84,
      "chip": "ym2612"
    },
    {
      "channel": 1,
      "note": 51,
      "start": 14.0932,
      "duration": 0.1004,
      "velocity": 104,
      "chip": "ym2612"
    },
    {
      "channel": 2,
      "note": 58,
      "start": 14.0937,
      "duration": 0.1003,
      "velocity": 100,
      "chip": "ym2612"
    },
    {
      "channel": 3,
      "note": 53,
      "start": 14.0958,
      "duration": 0.1004,
      "velocity": 73,
      "chip": "ym2612"
    },
    {
      "channel": 4,
      "note": 31,
      "start": 14.0964,
      "duration": 0.1999,
      "velocity": 84,
      "chip": "ym2612"
    },
    {
      "channel": 0,
      "note": 65,
      "start": 14.1932,
      "duration": 0.2836,
      "velocity": 102,
      "chip": "ym2612"
    },
    {
      "channel": 1,
      "note": 63,
      "start": 14.1937,
      "duration": 0.0993,
      "velocity": 104,
      "chip": "ym2612"
    },
    {
      "channel": 2,
      "note": 51,
      "start": 14.1942,
      "duration": 0.0994,
      "velocity": 100,
      "chip": "ym2612"
    },
    {
      "channel": 3,
      "note": 63,
      "start": 14.1964,
      "duration": 0.0993,
      "velocity": 73,
      "chip": "ym2612"
    },
    {
      "channel": 1,
      "note": 61,
      "start": 14.2932,
      "duration": 0.0929,
      "velocity": 104,
      "chip": "ym2612"
    },
    {
      "channel": 2,
      "note": 53,
      "start": 14.2938,
      "duration": 0.372,
      "velocity": 100,
      "chip": "ym2612"
    },
    {
      "channel": 3,
      "note": 65,
      "start": 14.2959,
      "duration": 0.0925,
      "velocity": 73,
      "chip": "ym2612"
    },
    {
      "channel": 4,
      "note": 31,
      "start": 14.2965,
      "duration": 0.1852,
      "velocity": 84,
      "chip": "ym2612"
    },
    {
      "channel": 1,
      "note": 51,
      "start": 14.3863,
      "duration": 0.0926,
      "velocity": 104,
      "chip": "ym2612"
    },
    {
      "channel": 3,
      "note": 53,
      "start": 14.3886,
      "duration": 0.0925,
      "velocity": 73,
      "chip": "ym2612"
    },
    {
      "channel": 0,
      "note": 53,
      "start": 14.4769,
      "duration": 0.2883,
      "velocity": 102,
      "chip": "ym2612"
    },
    {
      "channel": 1,
      "note": 63,
      "start": 14.4791,
      "duration": 0.0862,
      "velocity": 104,
      "chip": "ym2612"
    },
    {
      "channel": 3,
      "note": 65,
      "start": 14.4813,
      "duration": 1.1097,
      "velocity": 73,
      "chip": "ym2612"
    },
    {
      "channel": 4,
      "note": 31,
      "start": 14.4818,
      "duration": 0.0842,
      "velocity": 84,
      "chip": "ym2612"
    },
    {
      "channel": 1,
      "note": 61,
      "start": 14.5655,
      "duration": 0.0998,
      "velocity": 104,
      "chip": "ym2612"
    },
    {
      "channel": 4,
      "note": 31,
      "start": 14.5661,
      "duration": 0.2008,
      "velocity": 84,
      "chip": "ym2612"
    },
    {
      "channel": 1,
      "note": 51,
      "start": 14.6654,
      "duration": 0.1004,
      "velocity": 104,
      "chip": "ym2612"
    },
    {
      "channel": 2,
      "note": 60,
      "start": 14.666,
      "duration": 0.1004,
      "velocity": 100,
      "chip": "ym2612"
    },
    {
      "channel": 0,
      "note": 65,
      "start": 14.7654,
      "duration": 0.187,
      "velocity": 102,
      "chip": "ym2612"
    },
    {
      "channel": 1,
      "note": 63,
      "start": 14.766,
      "duration": 0.0993,
      "velocity": 104,
      "chip": "ym2612"
    },
    {
      "channel": 2,
      "note": 58,
      "start": 14.7665,
      "duration": 0.0994,
      "velocity": 100,
      "chip": "ym2612"
    },
    {
      "channel": 4,
      "note": 31,
      "start": 14.7671,
      "duration": 0.0994,
      "velocity": 84,
      "chip": "ym2612"
    },
    {
      "channel": 1,
      "note": 61,
      "start": 14.8654,
      "duration": 0.0874,
      "velocity": 104,
      "chip": "ym2612"
    },
    {
      "channel": 2,
      "note": 51,
      "start": 14.866,
      "duration": 0.0874,
      "velocity": 100,
      "chip": "ym2612"
    },
    {
      "channel": 4,
      "note": 31,
      "start": 14.8667,
      "duration": 0.0874,
      "velocity": 84,
      "chip": "ym2612"
    },
    {
      "channel": 0,
      "note": 51,
      "start": 14.9524,
      "duration": 0.0999,
      "velocity": 102,
      "chip": "ym2612"
    },
    {
      "channel": 1,
      "note": 51,
      "start": 14.953,
      "duration": 0.4477,
      "velocity": 104,
      "chip": "ym2612"
    },
    {
      "channel": 2,
      "note": 53,
      "start": 14.9536,
      "duration": 0.4477,
      "velocity": 100,
      "chip": "ym2612"
    },
    {
      "channel": 4,
      "note": 31,
      "start": 14.9542,
      "duration": 0.0988,
      "velocity": 84,
      "chip": "ym2612"
    },
    {
      "channel": 0,
      "note": 53,
      "start": 15.0525,
      "duration": 0.0817,
      "velocity": 102,
      "chip": "ym2612"
    },
    {
      "channel": 4,
      "note": 31,
      "start": 15.0532,
      "duration": 0.0817,
      "velocity": 84,
      "chip": "ym2612"
    },
    {
      "channel": 0,
      "note": 63,
      "start": 15.1344,
      "duration": 0.0852,
      "velocity": 102,
      "chip": "ym2612"
    },
    {
      "channel": 4,
      "note": 31,
      "start": 15.1351,
      "duration": 0.0867,
      "velocity": 84,
      "chip": "ym2612"
    },
    {
      "channel": 0,
      "note": 65,
      "start": 15.2197,
      "duration": 0.0907,
      "velocity": 102,
      "chip": "ym2612"
    },
    {
      "channel": 4,
      "note": 31,
      "start": 15.222,
      "duration": 0.1815,
      "velocity": 84,
      "chip": "ym2612"
    },
    {
      "channel": 0,
      "note": 53,
      "start": 15.3105,
      "duration": 0.0881,
      "velocity": 102,
      "chip": "ym2612"
    },
    {
      "channel": 0,
      "note": 51,
      "start": 15.3988,
      "duration": 0.2896,
      "velocity": 102,
      "chip": "ym2612"
    },
    {
      "channel": 1,
      "note": 63,
      "start": 15.401,
      "duration": 0.0875,
      "velocity": 104,
      "chip": "ym2612"
    },
    {
      "channel": 2,
      "note": 58,
      "start": 15.4015,
      "duration": 0.0875,
      "velocity": 100,
      "chip": "ym2612"
    },
    {
      "channel": 4,
      "note": 31,
      "start": 15.4037,
      "duration": 0.0859,
      "velocity": 84,
      "chip": "ym2612"
    },
    {
      "channel": 1,
      "note": 61,
      "start": 15.4886,
      "duration": 0.0998,
      "velocity": 104,
      "chip": "ym2612"
    },
    {
      "channel": 2,
      "note": 70,
      "start": 15.4891,
      "duration": 0.0998,
      "velocity": 100,
      "chip": "ym2612"
    },
    {
      "channel": 4,
      "note": 31,
      "start": 15.4898,
      "duration": 0.1018,
      "velocity": 84,
      "chip": "ym2612"
    },
    {
      "channel": 1,
      "note": 51,
      "start": 15.5885,
      "duration": 0.1004,
      "velocity": 104,
      "chip": "ym2612"
    },
    {
      "channel": 2,
      "note": 68,
      "start": 15.5891,
      "duration": 0.1003,
      "velocity": 100,
      "chip": "ym2612"
    },
    {
      "channel": 3,
      "note": 51,
      "start": 15.5912,
      "duration": 0.1004,
      "velocity": 73,
      "chip": "ym2612"
    },
    {
      "channel": 4,
      "note": 31,
      "start": 15.5918,
      "duration": 0.1999,
      "velocity": 84,
      "chip": "ym2612"
    },
    {
      "channel": 0,
      "note": 63,
      "start": 15.6885,
      "duration": 0.2767,
      "velocity": 102,
      "chip": "ym2612"
    },
    {
      "channel": 1,
      "note": 63,
      "start": 15.6891,
      "duration": 0.0993,
      "velocity": 104,
      "chip": "ym2612"
    },
    {
      "channel": 2,
      "note": 63,
      "start": 15.6896,
      "duration": 0.0994,
      "velocity": 100,
      "chip": "ym2612"
    },
    {
      "channel": 3,
      "note": 61,
      "start": 15.6918,
      "duration": 0.0993,
      "velocity": 73,
      "chip": "ym2612"
    },
    {
      "channel": 1,
      "note": 61,
      "start": 15.7886,
      "duration": 0.0883,
      "velocity": 104,
      "chip": "ym2612"
    },
    {
      "channel": 2,
      "note": 65,
      "start": 15.7892,
      "duration": 0.365,
      "velocity": 100,
      "chip": "ym2612"
    },
    {
      "channel": 3,
      "note": 63,
      "start": 15.7913,
      "duration": 0.0878,
      "velocity": 73,
      "chip": "ym2612"
    },
    {
      "channel": 4,
      "note": 31,
      "start": 15.7919,
      "duration": 0.1783,
      "velocity": 84,
      "chip": "ym2612"
    },
    {
      "channel": 1,
      "note": 51,
      "start": 15.8771,
      "duration": 0.0902,
      "velocity": 104,
      "chip": "ym2612"
    },
    {
      "channel": 3,
      "note": 51,
      "start": 15.8793,
      "duration": 0.0903,
      "velocity": 73,
      "chip": "ym2612"
    },
    {
      "channel": 0,
      "note": 51,
      "start": 15.9654,
      "duration": 0.2883,
      "velocity": 102,
      "chip": "ym2612"
    },
    {
      "channel": 1,
      "note": 63,
      "start": 15.9675,
      "duration": 0.0862,
      "velocity": 104,
      "chip": "ym2612"
    },
    {
      "channel": 3,
      "note": 63,
      "start": 15.9698,
      "duration": 1.137,
      "velocity": 73,
      "chip": "ym2612"
    },
    {
      "channel": 4,
      "note": 31,
      "start": 15.9703,
      "duration": 0.0842,
      "velocity": 84,
      "chip": "ym2612"
    },
    {
      "channel": 1,
      "note": 61,
      "start": 16.054,
      "duration": 0.0998,
      "velocity": 104,
      "chip": "ym2612"
    },
    {
      "channel": 4,
      "note": 31,
      "start": 16.0546,
      "duration": 0.2008,
      "velocity": 84,
      "chip": "ym2612"
    },
    {
      "channel": 1,
      "note": 51,
      "start": 16.1538,
      "duration": 0.1004,
      "velocity": 104,
      "chip": "ym2612"
    },
    {
      "channel": 2,
      "note": 70,
      "start": 16.1544,
      "duration": 0.1004,
      "velocity": 100,
      "chip": "ym2612"
    },
    {
      "channel": 0,
      "note": 63,
      "start": 16.2538,
      "duration": 0.1917,
      "velocity": 102,
      "chip": "ym2612"
    },
    {
      "channel": 1,
      "note": 63,
      "start": 16.2544,
      "duration": 0.0993,
      "velocity": 104,
      "chip": "ym2612"
    },
    {
      "channel": 2,
      "note": 68,
      "start": 16.2549,
      "duration": 0.0994,
      "velocity": 100,
      "chip": "ym2612"
    },
    {
      "channel": 4,
      "note": 31,
      "start": 16.2556,
      "duration": 0.1917,
      "velocity": 84,
      "chip": "ym2612"
    },
    {
      "channel": 1,
      "note": 61,
      "start": 16.354,
      "duration": 0.092,
      "velocity": 104,
      "chip": "ym2612"
    },
    {
      "channel": 2,
      "note": 63,
      "start": 16.3545,
      "duration": 0.0921,
      "velocity": 100,
      "chip": "ym2612"
    },
    {
      "channel": 0,
      "note": 49,
      "start": 16.4456,
      "duration": 0.0999,
      "velocity": 102,
      "chip": "ym2612"
    },
    {
      "channel": 1,
      "note": 51,
      "start": 16.4462,
      "duration": 0.4686,
      "velocity": 104,
      "chip": "ym2612"
    },
    {
      "channel": 2,
      "note": 65,
      "start": 16.4468,
      "duration": 0.4686,
      "velocity": 100,
      "chip": "ym2612"
    },
    {
      "channel": 4,
      "note": 31,
      "start": 16.4473,
      "duration": 0.0989,
      "velocity": 84,
      "chip": "ym2612"
    },
    {
      "channel": 0,
      "note": 51,
      "start": 16.5457,
      "duration": 0.0817,
      "velocity": 102,
      "chip": "ym2612"
    },
    {
      "channel": 4,
      "note": 31,
      "start": 16.5464,
      "duration": 0.0817,
      "velocity": 84,
      "chip": "ym2612"
    },
    {
      "channel": 0,
      "note": 61,
      "start": 16.6275,
      "duration": 0.0851,
      "velocity": 102,
      "chip": "ym2612"
    },
    {
      "channel": 4,
      "note": 31,
      "start": 16.6283,
      "duration": 0.0867,
      "velocity": 84,
      "chip": "ym2612"
    },
    {
      "channel": 0,
      "note": 63,
      "start": 16.7129,
      "duration": 0.0998,
      "velocity": 102,
      "chip": "ym2612"
    },
    {
      "channel": 4,
      "note": 31,
      "start": 16.7152,
      "duration": 0.2024,
      "velocity": 84,
      "chip": "ym2612"
    },
    {
      "channel": 0,
      "note": 49,
      "start": 16.8128,
      "duration": 0.1,
      "velocity": 102,
      "chip": "ym2612"
    },
    {
      "channel": 0,
      "note": 51,
      "start": 16.9129,
      "duration": 0.2912,
      "velocity": 102,
      "chip": "ym2612"
    },
    {
      "channel": 1,
      "note": 61,
      "start": 16.915,
      "duration": 0.0891,
      "velocity": 104,
      "chip": "ym2612"
    },
    {
      "channel": 2,
      "note": 58,
      "start": 16.9156,
      "duration": 0.0892,
      "velocity": 100,
      "chip": "ym2612"
    },
    {
      "channel": 4,
      "note": 31,
      "start": 16.9178,
      "duration": 0.0875,
      "velocity": 84,
      "chip": "ym2612"
    },
    {
      "channel": 1,
      "note": 59,
      "start": 17.0043,
      "duration": 0.0998,
      "velocity": 104,
      "chip": "ym2612"
    },
    {
      "channel": 2,
      "note": 70,
      "start": 17.0048,
      "duration": 0.0998,
      "velocity": 100,
      "chip": "ym2612"
    },
    {
      "channel": 4,
      "note": 31,
      "start": 17.0055,
      "duration": 0.1018,
      "velocity": 84,
      "chip": "ym2612"
    },
    {
      "channel": 1,
      "note": 49,
      "start": 17.1043,
      "duration": 0.1003,
      "velocity": 104,
      "chip": "ym2612"
    },
    {
      "channel": 2,
      "note": 68,
      "start": 17.1048,
      "duration": 0.1003,
      "velocity": 100,
      "chip": "ym2612"
    },
    {
      "channel": 3,
      "note": 51,
      "start": 17.1069,
      "duration": 0.1003,
      "velocity": 73,
      "chip": "ym2612"
    },
    {
      "channel": 4,
      "note": 31,
      "start": 17.1075,
      "duration": 0.1999,
      "velocity": 84,
      "chip": "ym2612"
    },
    {
      "channel": 0,
      "note": 63,
      "start": 17.2042,
      "duration": 0.2859,
      "velocity": 102,
      "chip": "ym2612"
    },
    {
      "channel": 1,
      "note": 61,
      "start": 17.2048,
      "duration": 0.0993,
      "velocity": 104,
      "chip": "ym2612"
    },
    {
      "channel": 2,
      "note": 63,
      "start": 17.2054,
      "duration": 0.0994,
      "velocity": 100,
      "chip": "ym2612"
    },
    {
      "channel": 3,
      "note": 61,
      "start": 17.2075,
      "duration": 0.0994,
      "velocity": 73,
      "chip": "ym2612"
    },
    {
      "channel": 1,
      "note": 59,
      "start": 17.3043,
      "duration": 0.0929,
      "velocity": 104,
      "chip": "ym2612"
    },
    {
      "channel": 2,
      "note": 65,
      "start": 17.3049,
      "duration": 0.3771,
      "velocity": 100,
      "chip": "ym2612"
    },
    {
      "channel": 3,
      "note": 63,
      "start": 17.307,
      "duration": 0.0925,
      "velocity": 73,
      "chip": "ym2612"
    },
    {
      "channel": 4,
      "note": 31,
      "start": 17.3076,
      "duration": 0.1874,
      "velocity": 84,
      "chip": "ym2612"
    },
    {
      "channel": 1,
      "note": 49,
      "start": 17.3974,
      "duration": 0.0948,
      "velocity": 104,
      "chip": "ym2612"
    },
    {
      "channel": 3,
      "note": 51,
      "start": 17.3997,
      "duration": 0.0947,
      "velocity": 73,
      "chip": "ym2612"
    },
    {
      "channel": 0,
      "note": 51,
      "start": 17.4902,
      "duration": 0.2912,
      "velocity": 102,
      "chip": "ym2612"
    },
    {
      "channel": 1,
      "note": 61,
      "start": 17.4924,
      "duration": 0.0891,
      "velocity": 104,
      "chip": "ym2612"
    },
    {
      "channel": 3,
      "note": 63,
      "start": 17.4946,
      "duration": 1.1112,
      "velocity": 73,
      "chip": "ym2612"
    },
    {
      "channel": 4,
      "note": 31,
      "start": 17.4952,
      "duration": 0.0871,
      "velocity": 84,
      "chip": "ym2612"
    },
    {
      "channel": 1,
      "note": 59,
      "start": 17.5817,
      "duration": 0.0998,
      "velocity": 104,
      "chip": "ym2612"
    },
    {
      "channel": 4,
      "note": 31,
      "start": 17.5824,
      "duration": 0.2008,
      "velocity": 84,
      "chip": "ym2612"
    },
    {
      "channel": 1,
      "note": 49,
      "start": 17.6816,
      "duration": 0.1004,
      "velocity": 104,
      "chip": "ym2612"
    },
    {
      "channel": 2,
      "note": 70,
      "start": 17.6822,
      "duration": 0.1004,
      "velocity": 100,
      "chip": "ym2612"
    },
    {
      "channel": 0,
      "note": 63,
      "start": 17.7816,
      "duration": 0.1895,
      "velocity": 102,
      "chip": "ym2612"
    },
    {
      "channel": 1,
      "note": 61,
      "start": 17.7822,
      "duration": 0.0993,
      "velocity": 104,
      "chip": "ym2612"
    },
    {
      "channel": 2,
      "note": 68,
      "start": 17.7827,
      "duration": 0.0994,
      "velocity": 100,
      "chip": "ym2612"
    },
    {
      "channel": 4,
      "note": 31,
      "start": 17.7833,
      "duration": 0.1895,
      "velocity": 84,
      "chip": "ym2612"
    },
    {
      "channel": 1,
      "note": 59,
      "start": 17.8817,
      "duration": 0.09,
      "velocity": 104,
      "chip": "ym2612"
    },
    {
      "channel": 2,
      "note": 63,
      "start": 17.8822,
      "duration": 0.09,
      "velocity": 100,
      "chip": "ym2612"
    },
    {
      "channel": 0,
      "note": 49,
      "start": 17.9713,
      "duration": 0.0921,
      "velocity": 102,
      "chip": "ym2612"
    },
    {
      "channel": 1,
      "note": 49,
      "start": 17.9718,
      "duration": 0.4432,
      "velocity": 104,
      "chip": "ym2612"
    },
    {
      "channel": 2,
      "note": 65,
      "start": 17.9724,
      "duration": 0.4432,
      "velocity": 100,
      "chip": "ym2612"
    },
    {
      "channel": 4,
      "note": 31,
      "start": 17.973,
      "duration": 0.0911,
      "velocity": 84,
      "chip": "ym2612"
    },
    {
      "channel": 0,
      "note": 51,
      "start": 18.0636,
      "duration": 0.0882,
      "velocity": 102,
      "chip": "ym2612"
    },
    {
      "channel": 4,
      "note": 31,
      "start": 18.0643,
      "duration": 0.0883,
      "velocity": 84,
      "chip": "ym2612"
    },
    {
      "channel": 0,
      "note": 61,
      "start": 18.152,
      "duration": 0.0868,
      "velocity": 102,
      "chip": "ym2612"
    },
    {
      "channel": 4,
      "note": 31,
      "start": 18.1527,
      "duration": 0.0883,
      "velocity": 84,
      "chip": "ym2612"
    },
    {
      "channel": 0,
      "note": 63,
      "start": 18.2389,
      "duration": 0.0876,
      "velocity": 102,
      "chip": "ym2612"
    },
    {
      "channel": 4,
      "note": 31,
      "start": 18.2412,
      "duration": 0.1766,
      "velocity": 84,
      "chip": "ym2612"
    },
    {
      "channel": 0,
      "note": 51,
      "start": 18.3266,
      "duration": 0.0862,
      "velocity": 102,
      "chip": "ym2612"
    },
    {
      "channel": 0,
      "note": 53,
      "start": 18.413,
      "duration": 0.2902,
      "velocity": 102,
      "chip": "ym2612"
    },
    {
      "channel": 1,
      "note": 65,
      "start": 18.4151,
      "duration": 0.0881,
      "velocity": 104,
      "chip": "ym2612"
    },
    {
      "channel": 2,
      "note": 48,
      "start": 18.4158,
      "duration": 0.088,
      "velocity": 100,
      "chip": "ym2612"
    },
    {
      "channel": 4,
      "note": 31,
      "start": 18.418,
      "duration": 0.0864,
      "velocity": 84,
      "chip": "ym2612"
    },
    {
      "channel": 1,
      "note": 63,
      "start": 18.5034,
      "duration": 0.0998,
      "velocity": 104,
      "chip": "ym2612"
    },
    {
      "channel": 2,
      "note": 60,
      "start": 18.5039,
      "duration": 0.0998,
      "velocity": 100,
      "chip": "ym2612"
    },
    {
      "channel": 4,
      "note": 31,
      "start": 18.5046,
      "duration": 0.1018,
      "velocity": 84,
      "chip": "ym2612"
    },
    {
      "channel": 1,
      "note": 53,
      "start": 18.6034,
      "duration": 0.1004,
      "velocity": 104,
      "chip": "ym2612"
    },
    {
      "channel": 2,
      "note": 58,
      "start": 18.6039,
      "duration": 0.1003,
      "velocity": 100,
      "chip": "ym2612"
    },
    {
      "channel": 3,
      "note": 53,
      "start": 18.606,
      "duration": 0.1004,
      "velocity": 73,
      "chip": "ym2612"
    },
    {
      "channel": 4,
      "note": 31,
      "start": 18.6066,
      "duration": 0.1999,
      "velocity": 84,
      "chip": "ym2612"
    },
    {
      "channel": 0,
      "note": 65,
      "start": 18.7034,
      "duration": 0.2812,
      "velocity": 102,
      "chip": "ym2612"
    },
    {
      "channel": 1,
      "note": 65,
      "start": 18.7039,
      "duration": 0.0993,
      "velocity": 104,
      "chip": "ym2612"
    },
    {
      "channel": 2,
      "note": 51,
      "start": 18.7044,
      "duration": 0.0994,
      "velocity": 100,
      "chip": "ym2612"
    },
    {
      "channel": 3,
      "note": 63,
      "start": 18.7066,
      "duration": 0.0993,
      "velocity": 73,
      "chip": "ym2612"
    },
    {
      "channel": 1,
      "note": 63,
      "start": 18.8034,
      "duration": 0.0883,
      "velocity": 104,
      "chip": "ym2612"
    },
    {
      "channel": 2,
      "note": 53,
      "start": 18.804,
      "duration": 0.3695,
      "velocity": 100,
      "chip": "ym2612"
    },
    {
      "channel": 3,
      "note": 65,
      "start": 18.8061,
      "duration": 0.0878,
      "velocity": 73,
      "chip": "ym2612"
    },
    {
      "channel": 4,
      "note": 31,
      "start": 18.8067,
      "duration": 0.1828,
      "velocity": 84,
      "chip": "ym2612"
    },
    {
      "channel": 1,
      "note": 53,
      "start": 18.8919,
      "duration": 0.0947,
      "velocity": 104,
      "chip": "ym2612"
    },
    {
      "channel": 3,
      "note": 53,
      "start": 18.8941,
      "duration": 0.0948,
      "velocity": 73,
      "chip": "ym2612"
    },
    {
      "channel": 0,
      "note": 53,
      "start": 18.9846,
      "duration": 0.2883,
      "velocity": 102,
      "chip": "ym2612"
    },
    {
      "channel": 1,
      "note": 65,
      "start": 18.9868,
      "duration": 0.0862,
      "velocity": 104,
      "chip": "ym2612"
    },
    {
      "channel": 3,
      "note": 65,
      "start": 18.9891,
      "duration": 1.1285,
      "velocity": 73,
      "chip": "ym2612"
    },
    {
      "channel": 4,
      "note": 31,
      "start": 18.9896,
      "duration": 0.0842,
      "velocity": 84,
      "chip": "ym2612"
    },
    {
      "channel": 1,
      "note": 63,
      "start": 19.0732,
      "duration": 0.0998,
      "velocity": 104,
      "chip": "ym2612"
    },
    {
      "channel": 4,
      "note": 31,
      "start": 19.0739,
      "duration": 0.2008,
      "velocity": 84,
      "chip": "ym2612"
    },
    {
      "channel": 1,
      "note": 53,
      "start": 19.1731,
      "duration": 0.1004,
      "velocity": 104,
      "chip": "ym2612"
    },
    {
      "channel": 2,
      "note": 60,
      "start": 19.1737,
      "duration": 0.1004,
      "velocity": 100,
      "chip": "ym2612"
    },
    {
      "channel": 0,
      "note": 65,
      "start": 19.2731,
      "duration": 0.1894,
      "velocity": 102,
      "chip": "ym2612"
    },
    {
      "channel": 1,
      "note": 65,
      "start": 19.2737,
      "duration": 0.0993,
      "velocity": 104,
      "chip": "ym2612"
    },
    {
      "channel": 2,
      "note": 58,
      "start": 19.2742,
      "duration": 0.0994,
      "velocity": 100,
      "chip": "ym2612"
    },
    {
      "channel": 4,
      "note": 31,
      "start": 19.2748,
      "duration": 0.1894,
      "velocity": 84,
      "chip": "ym2612"
    },
    {
      "channel": 1,
      "note": 63,
      "start": 19.3732,
      "duration": 0.0899,
      "velocity": 104,
      "chip": "ym2612"
    },
    {
      "channel": 2,
      "note": 51,
      "start": 19.3737,
      "duration": 0.0899,
      "velocity": 100,
      "chip": "ym2612"
    },
    {
      "channel": 0,
      "note": 51,
      "start": 19.4627,
      "duration": 0.0999,
      "velocity": 102,
      "chip": "ym2612"
    },
    {
      "channel": 1,
      "note": 53,
      "start": 19.4632,
      "duration": 0.4687,
      "velocity": 104,
      "chip": "ym2612"
    },
    {
      "channel": 2,
      "note": 53,
      "start": 19.4638,
      "duration": 0.4687,
      "velocity": 100,
      "chip": "ym2612"
    },
    {
      "channel": 4,
      "note": 31,
      "start": 19.4644,
      "duration": 0.0989,
      "velocity": 84,
      "chip": "ym2612"
    },
    {
      "channel": 0,
      "note": 53,
      "start": 19.5627,
      "duration": 0.0817,
      "velocity": 102,
      "chip": "ym2612"
    },
    {
      "channel": 4,
      "note": 31,
      "start": 19.5634,
      "duration": 0.0817,
      "velocity": 84,
      "chip": "ym2612"
    },
    {
      "channel": 0,
      "note": 63,
      "start": 19.6446,
      "duration": 0.0852,
      "velocity": 102,
      "chip": "ym2612"
    },
    {
      "channel": 4,
      "note": 31,
      "start": 19.6453,
      "duration": 0.0867,
      "velocity": 84,
      "chip": "ym2612"
    },
    {
      "channel": 0,
      "note": 65,
      "start": 19.7299,
      "duration": 0.0998,
      "velocity": 102,
      "chip": "ym2612"
    },
    {
      "channel": 4,
      "note": 31,
      "start": 19.7322,
      "duration": 0.2024,
      "velocity": 84,
      "chip": "ym2612"
    },
    {
      "channel": 0,
      "note": 51,
      "start": 19.8299,
      "duration": 0.1,
      "velocity": 102,
      "chip": "ym2612"
    },
    {
      "channel": 0,
      "note": 53,
      "start": 19.93,
      "duration": 0.2849,
      "velocity": 102,
      "chip": "ym2612"
    },
    {
      "channel": 1,
      "note": 63,
      "start": 19.9321,
      "duration": 0.0829,
      "velocity": 104,
      "chip": "ym2612"
    },
    {
      "channel": 2,
      "note": 48,
      "start": 19.9327,
      "duration": 0.0828,
      "velocity": 100,
      "chip": "ym2612"
    },
    {
      "channel": 4,
      "note": 31,
      "start": 19.9349,
      "duration": 0.0813,
      "velocity": 84,
      "chip": "ym2612"
    },
    {
      "channel": 1,
      "note": 61,
      "start": 20.0151,
      "duration": 0.0998,
      "velocity": 104,
      "chip": "ym2612"
    },
    {
      "channel": 2,
      "note": 60,
      "start": 20.0157,
      "duration": 0.0998,
      "velocity": 100,
      "chip": "ym2612"
    },
    {
      "channel": 4,
      "note": 31,
      "start": 20.0163,
      "duration": 0.1018,
      "velocity": 84,
      "chip": "ym2612"
    },
    {
      "channel": 1,
      "note": 51,
      "start": 20.1151,
      "duration": 0.1004,
      "velocity": 104,
      "chip": "ym2612"
    },
    {
      "channel": 2,
      "note": 58,
      "start": 20.1156,
      "duration": 0.1004,
      "velocity": 100,
      "chip": "ym2612"
    },
    {
      "channel": 3,
      "note": 53,
      "start": 20.1178,
      "duration": 0.1004,
      "velocity": 73,
      "chip": "ym2612"
    },
    {
      "channel": 4,
      "note": 31,
      "start": 20.1184,
      "duration": 0.1999,
      "velocity": 84,
      "chip": "ym2612"
    },
    {
      "channel": 0,
      "note": 65,
      "start": 20.2151,
      "duration": 0.2866,
      "velocity": 102,
      "chip": "ym2612"
    },
    {
      "channel": 1,
      "note": 63,
      "start": 20.2156,
      "duration": 0.0993,
      "velocity": 104,
      "chip": "ym2612"
    },
    {
      "channel": 2,
      "note": 51,
      "start": 20.2162,
      "duration": 0.0994,
      "velocity": 100,
      "chip": "ym2612"
    },
    {
      "channel": 3,
      "note": 63,
      "start": 20.2184,
      "duration": 0.0993,
      "velocity": 73,
      "chip": "ym2612"
    },
    {
      "channel": 1,
      "note": 61,
      "start": 20.3152,
      "duration": 0.0929,
      "velocity": 104,
      "chip": "ym2612"
    },
    {
      "channel": 2,
      "note": 53,
      "start": 20.3157,
      "duration": 0.3778,
      "velocity": 100,
      "chip": "ym2612"
    },
    {
      "channel": 3,
      "note": 65,
      "start": 20.3178,
      "duration": 0.0925,
      "velocity": 73,
      "chip": "ym2612"
    },
    {
      "channel": 4,
      "note": 31,
      "start": 20.3184,
      "duration": 0.1881,
      "velocity": 84,
      "chip": "ym2612"
    },
    {
      "channel": 1,
      "note": 51,
      "start": 20.4083,
      "duration": 0.0956,
      "velocity": 104,
      "chip": "ym2612"
    },
    {
      "channel": 3,
      "note": 53,
      "start": 20.4105,
      "duration": 0.0955,
      "velocity": 73,
      "chip": "ym2612"
    },
    {
      "channel": 0,
      "note": 53,
      "start": 20.5018,
      "duration": 0.2912,
      "velocity": 102,
      "chip": "ym2612"
    },
    {
      "channel": 1,
      "note": 63,
      "start": 20.504,
      "duration": 0.0891,
      "velocity": 104,
      "chip": "ym2612"
    },
    {
      "channel": 3,
      "note": 65,
      "start": 20.5062,
      "duration": 1.1161,
      "velocity": 73,
      "chip": "ym2612"
    },
    {
      "channel": 4,
      "note": 31,
      "start": 20.5068,
      "duration": 0.0871,
      "velocity": 84,
      "chip": "ym2612"
    },
    {
      "channel": 1,
      "note": 61,
      "start": 20.5933,
      "duration": 0.0998,
      "velocity": 104,
      "chip": "ym2612"
    },
    {
      "channel": 4,
      "note": 31,
      "start": 20.5939,
      "duration": 0.2008,
      "velocity": 84,
      "chip": "ym2612"
    },
    {
      "channel": 1,
      "note": 51,
      "start": 20.6932,
      "duration": 0.1004,
      "velocity": 104,
      "chip": "ym2612"
    },
    {
      "channel": 2,
      "note": 60,
      "start": 20.6938,
      "duration": 0.1004,
      "velocity": 100,
      "chip": "ym2612"
    },
    {
      "channel": 0,
      "note": 65,
      "start": 20.7932,
      "duration": 0.1915,
      "velocity": 102,
      "chip": "ym2612"
    },
    {
      "channel": 1,
      "note": 63,
      "start": 20.7938,
      "duration": 0.0993,
      "velocity": 104,
      "chip": "ym2612"
    },
    {
      "channel": 2,
      "note": 58,
      "start": 20.7943,
      "duration": 0.0994,
      "velocity": 100,
      "chip": "ym2612"
    },
    {
      "channel": 4,
      "note": 31,
      "start": 20.7949,
      "duration": 0.0994,
      "velocity": 84,
      "chip": "ym2612"
    },
    {
      "channel": 1,
      "note": 61,
      "start": 20.8933,
      "duration": 0.0918,
      "velocity": 104,
      "chip": "ym2612"
    },
    {
      "channel": 2,
      "note": 51,
      "start": 20.8938,
      "duration": 0.0919,
      "velocity": 100,
      "chip": "ym2612"
    },
    {
      "channel": 4,
      "note": 31,
      "start": 20.8945,
      "duration": 0.0919,
      "velocity": 84,
      "chip": "ym2612"
    },
    {
      "channel": 0,
      "note": 51,
      "start": 20.9847,
      "duration": 0.0999,
      "velocity": 102,
      "chip": "ym2612"
    },
    {
      "channel": 1,
      "note": 51,
      "start": 20.9853,
      "duration": 0.4513,
      "velocity": 104,
      "chip": "ym2612"
    },
    {
      "channel": 2,
      "note": 53,
      "start": 20.9859,
      "duration": 0.4513,
      "velocity": 100,
      "chip": "ym2612"
    },
    {
      "channel": 4,
      "note": 31,
      "start": 20.9865,
      "duration": 0.0988,
      "velocity": 84,
      "chip": "ym2612"
    },
    {
      "channel": 0,
      "note": 53,
      "start": 21.0848,
      "duration": 0.0817,
      "velocity": 102,
      "chip": "ym2612"
    },
    {
      "channel": 4,
      "note": 31,
      "start": 21.0855,
      "duration": 0.0817,
      "velocity": 84,
      "chip": "ym2612"
    },
    {
      "channel": 0,
      "note": 63,
      "start": 21.1667,
      "duration": 0.0852,
      "velocity": 102,
      "chip": "ym2612"
    },
    {
      "channel": 4,
      "note": 31,
      "start": 21.1674,
      "duration": 0.0867,
      "velocity": 84,
      "chip": "ym2612"
    },
    {
      "channel": 0,
      "note": 65,
      "start": 21.252,
      "duration": 0.0907,
      "velocity": 102,
      "chip": "ym2612"
    },
    {
      "channel": 4,
      "note": 31,
      "start": 21.2544,
      "duration": 0.185,
      "velocity": 84,
      "chip": "ym2612"
    },
    {
      "channel": 0,
      "note": 53,
      "start": 21.3429,
      "duration": 0.0916,
      "velocity": 102,
      "chip": "ym2612"
    },
    {
      "channel": 0,
      "note": 51,
      "start": 21.4347,
      "duration": 0.2849,
      "velocity": 102,
      "chip": "ym2612"
    },
    {
      "channel": 1,
      "note": 63,
      "start": 21.4368,
      "duration": 0.0829,
      "velocity": 104,
      "chip": "ym2612"
    },
    {
      "channel": 2,
      "note": 58,
      "start": 21.4373,
      "duration": 0.0828,
      "velocity": 100,
      "chip": "ym2612"
    },
    {
      "channel": 4,
      "note": 31,
      "start": 21.4395,
      "duration": 0.0813,
      "velocity": 84,
      "chip": "ym2612"
    },
    {
      "channel": 1,
      "note": 61,
      "start": 21.5198,
      "duration": 0.0998,
      "velocity": 104,
      "chip": "ym2612"
    },
    {
      "channel": 2,
      "note": 70,
      "start": 21.5203,
      "duration": 0.0998,
      "velocity": 100,
      "chip": "ym2612"
    },
    {
      "channel": 4,
      "note": 31,
      "start": 21.521,
      "duration": 0.1018,
      "velocity": 84,
      "chip": "ym2612"
    },
    {
      "channel": 1,
      "note": 51,
      "start": 21.6198,
      "duration": 0.1004,
      "velocity": 104,
      "chip": "ym2612"
    },
    {
      "channel": 2,
      "note": 68,
      "start": 21.6203,
      "duration": 0.1004,
      "velocity": 100,
      "chip": "ym2612"
    },
    {
      "channel": 3,
      "note": 51,
      "start": 21.6224,
      "duration": 0.1004,
      "velocity": 73,
      "chip": "ym2612"
    },
    {
      "channel": 4,
      "note": 31,
      "start": 21.623,
      "duration": 0.1999,
      "velocity": 84,
      "chip": "ym2612"
    },
    {
      "channel": 0,
      "note": 63,
      "start": 21.7198,
      "duration": 0.2859,
      "velocity": 102,
      "chip": "ym2612"
    },
    {
      "channel": 1,
      "note": 63,
      "start": 21.7203,
      "duration": 0.0993,
      "velocity": 104,
      "chip": "ym2612"
    },
    {
      "channel": 2,
      "note": 63,
      "start": 21.7209,
      "duration": 0.0994,
      "velocity": 100,
      "chip": "ym2612"
    },
    {
      "channel": 3,
      "note": 61,
      "start": 21.723,
      "duration": 0.0993,
      "velocity": 73,
      "chip": "ym2612"
    },
    {
      "channel": 1,
      "note": 61,
      "start": 21.8198,
      "duration": 0.0929,
      "velocity": 104,
      "chip": "ym2612"
    },
    {
      "channel": 2,
      "note": 65,
      "start": 21.8204,
      "duration": 0.3779,
      "velocity": 100,
      "chip": "ym2612"
    },
    {
      "channel": 3,
      "note": 63,
      "start": 21.8225,
      "duration": 0.0925,
      "velocity": 73,
      "chip": "ym2612"
    },
    {
      "channel": 4,
      "note": 31,
      "start": 21.8231,
      "duration": 0.1874,
      "velocity": 84,
      "chip": "ym2612"
    },
    {
      "channel": 1,
      "note": 51,
      "start": 21.9129,
      "duration": 0.0948,
      "velocity": 104,
      "chip": "ym2612"
    },
    {
      "channel": 3,
      "note": 51,
      "start": 21.9152,
      "duration": 0.0947,
      "velocity": 73,
      "chip": "ym2612"
    },
    {
      "channel": 0,
      "note": 51,
      "start": 22.0058,
      "duration": 0.292,
      "velocity": 102,
      "chip": "ym2612"
    },
    {
      "channel": 1,
      "note": 63,
      "start": 22.0079,
      "duration": 0.0899,
      "velocity": 104,
      "chip": "ym2612"
    },
    {
      "channel": 3,
      "note": 63,
      "start": 22.0101,
      "duration": 1.1369,
      "velocity": 73,
      "chip": "ym2612"
    },
    {
      "channel": 4,
      "note": 31,
      "start": 22.0107,
      "duration": 0.0878,
      "velocity": 84,
      "chip": "ym2612"
    },
    {
      "channel": 1,
      "note": 61,
      "start": 22.098,
      "duration": 0.0998,
      "velocity": 104,
      "chip": "ym2612"
    },
    {
      "channel": 4,
      "note": 31,
      "start": 22.0987,
      "duration": 0.2008,
      "velocity": 84,
      "chip": "ym2612"
    },
    {
      "channel": 1,
      "note": 51,
      "start": 22.1979,
      "duration": 0.1004,
      "velocity": 104,
      "chip": "ym2612"
    },
    {
      "channel": 2,
      "note": 70,
      "start": 22.1985,
      "duration": 0.1004,
      "velocity": 100,
      "chip": "ym2612"
    },
    {
      "channel": 0,
      "note": 63,
      "start": 22.2979,
      "duration": 0.1941,
      "velocity": 102,
      "chip": "ym2612"
    },
    {
      "channel": 1,
      "note": 63,
      "start": 22.2985,
      "duration": 0.0993,
      "velocity": 104,
      "chip": "ym2612"
    },
    {
      "channel": 2,
      "note": 68,
      "start": 22.299,
      "duration": 0.0994,
      "velocity": 100,
      "chip": "ym2612"
    },
    {
      "channel": 4,
      "note": 31,
      "start": 22.2996,
      "duration": 0.1941,
      "velocity": 84,
      "chip": "ym2612"
    },
    {
      "channel": 1,
      "note": 61,
      "start": 22.398,
      "duration": 0.0945,
      "velocity": 104,
      "chip": "ym2612"
    },
    {
      "channel": 2,
      "note": 63,
      "start": 22.3985,
      "duration": 0.0945,
      "velocity": 100,
      "chip": "ym2612"
    },
    {
      "channel": 0,
      "note": 49,
      "start": 22.4921,
      "duration": 0.0999,
      "velocity": 102,
      "chip": "ym2612"
    },
    {
      "channel": 1,
      "note": 51,
      "start": 22.4927,
      "duration": 0.4687,
      "velocity": 104,
      "chip": "ym2612"
    },
    {
      "channel": 2,
      "note": 65,
      "start": 22.4932,
      "duration": 0.4687,
      "velocity": 100,
      "chip": "ym2612"
    },
    {
      "channel": 4,
      "note": 31,
      "start": 22.4939,
      "duration": 0.0988,
      "velocity": 84,
      "chip": "ym2612"
    },
    {
      "channel": 0,
      "note": 51,
      "start": 22.5922,
      "duration": 0.0817,
      "velocity": 102,
      "chip": "ym2612"
    },
    {
      "channel": 4,
      "note": 31,
      "start": 22.5929,
      "duration": 0.0817,
      "velocity": 84,
      "chip": "ym2612"
    },
    {
      "channel": 0,
      "note": 61,
      "start": 22.674,
      "duration": 0.0852,
      "velocity": 102,
      "chip": "ym2612"
    },
    {
      "channel": 4,
      "note": 31,
      "start": 22.6748,
      "duration": 0.0867,
      "velocity": 84,
      "chip": "ym2612"
    },
    {
      "channel": 0,
      "note": 63,
      "start": 22.7594,
      "duration": 0.0998,
      "velocity": 102,
      "chip": "ym2612"
    },
    {
      "channel": 4,
      "note": 31,
      "start": 22.7617,
      "duration": 0.2024,
      "velocity": 84,
      "chip": "ym2612"
    },
    {
      "channel": 0,
      "note": 49,
      "start": 22.8593,
      "duration": 0.1,
      "velocity": 102,
      "chip": "ym2612"
    },
    {
      "channel": 0,
      "note": 51,
      "start": 22.9594,
      "duration": 0.2849,
      "velocity": 102,
      "chip": "ym2612"
    },
    {
      "channel": 1,
      "note": 61,
      "start": 22.9615,
      "duration": 0.0829,
      "velocity": 104,
      "chip": "ym2612"
    },
    {
      "channel": 2,
      "note": 58,
      "start": 22.9621,
      "duration": 0.0828,
      "velocity": 100,
      "chip": "ym2612"
    },
    {
      "channel": 4,
      "note": 31,
      "start": 22.9643,
      "duration": 0.0813,
      "velocity": 84,
      "chip": "ym2612"
    },
    {
      "channel": 1,
      "note": 59,
      "start": 23.0446,
      "duration": 0.0998,
      "velocity": 104,
      "chip": "ym2612"
    },
    {
      "channel": 2,
      "note": 70,
      "start": 23.0451,
      "duration": 0.0998,
      "velocity": 100,
      "chip": "ym2612"
    },
    {
      "channel": 4,
      "note": 31,
      "start": 23.0458,
      "duration": 0.1018,
      "velocity": 84,
      "chip": "ym2612"
    },
    {
      "channel": 1,
      "note": 49,
      "start": 23.1446,
      "duration": 0.1003,
      "velocity": 104,
      "chip": "ym2612"
    },
    {
      "channel": 2,
      "note": 68,
      "start": 23.1451,
      "duration": 0.1004,
      "velocity": 100,
      "chip": "ym2612"
    },
    {
      "channel": 3,
      "note": 51,
      "start": 23.1472,
      "duration": 0.1003,
      "velocity": 73,
      "chip": "ym2612"
    },
    {
      "channel": 4,
      "note": 31,
      "start": 23.1478,
      "duration": 0.1999,
      "velocity": 84,
      "chip": "ym2612"
    },
    {
      "channel": 0,
      "note": 63,
      "start": 23.2445,
      "duration": 0.2813,
      "velocity": 102,
      "chip": "ym2612"
    },
    {
      "channel": 1,
      "note": 61,
      "start": 23.2451,
      "duration": 0.0993,
      "velocity": 104,
      "chip": "ym2612"
    },
    {
      "channel": 2,
      "note": 63,
      "start": 23.2456,
      "duration": 0.0994,
      "velocity": 100,
      "chip": "ym2612"
    },
    {
      "channel": 3,
      "note": 61,
      "start": 23.2478,
      "duration": 0.0994,
      "velocity": 73,
      "chip": "ym2612"
    },
    {
      "channel": 1,
      "note": 59,
      "start": 23.3446,
      "duration": 0.0883,
      "velocity": 104,
      "chip": "ym2612"
    },
    {
      "channel": 2,
      "note": 65,
      "start": 23.3452,
      "duration": 0.3687,
      "velocity": 100,
      "chip": "ym2612"
    },
    {
      "channel": 3,
      "note": 63,
      "start": 23.3473,
      "duration": 0.0878,
      "velocity": 73,
      "chip": "ym2612"
    },
    {
      "channel": 4,
      "note": 31,
      "start": 23.3479,
      "duration": 0.1828,
      "velocity": 84,
      "chip": "ym2612"
    },
    {
      "channel": 1,
      "note": 49,
      "start": 23.4331,
      "duration": 0.0947,
      "velocity": 104,
      "chip": "ym2612"
    },
    {
      "channel": 3,
      "note": 51,
      "start": 23.4353,
      "duration": 0.0948,
      "velocity": 73,
      "chip": "ym2612"
    },
    {
      "channel": 0,
      "note": 51,
      "start": 23.5259,
      "duration": 0.2875,
      "velocity": 102,
      "chip": "ym2612"
    },
    {
      "channel": 1,
      "note": 61,
      "start": 23.528,
      "duration": 0.0854,
      "velocity": 104,
      "chip": "ym2612"
    },
    {
      "channel": 3,
      "note": 63,
      "start": 23.5303,
      "duration": 7.1965,
      "velocity": 73,
      "chip": "ym2612"
    },
    {
      "channel": 4,
      "note": 31,
      "start": 23.5308,
      "duration": 0.0833,
      "velocity": 84,
      "chip": "ym2612"
    },
    {
      "channel": 1,
      "note": 59,
      "start": 23.6136,
      "duration": 0.0998,
      "velocity": 104,
      "chip": "ym2612"
    },
    {
      "channel": 4,
      "note": 31,
      "start": 23.6143,
      "duration": 0.2008,
      "velocity": 84,
      "chip": "ym2612"
    },
    {
      "channel": 1,
      "note": 49,
      "start": 23.7135,
      "duration": 0.1004,
      "velocity": 104,
      "chip": "ym2612"
    },
    {
      "channel": 2,
      "note": 70,
      "start": 23.7141,
      "duration": 0.1004,
      "velocity": 100,
      "chip": "ym2612"
    },
    {
      "channel": 0,
      "note": 63,
      "start": 23.8135,
      "duration": 0.1853,
      "velocity": 102,
      "chip": "ym2612"
    },
    {
      "channel": 1,
      "note": 61,
      "start": 23.8141,
      "duration": 0.0993,
      "velocity": 104,
      "chip": "ym2612"
    },
    {
      "channel": 2,
      "note": 68,
      "start": 23.8146,
      "duration": 0.0994,
      "velocity": 100,
      "chip": "ym2612"
    },
    {
      "channel": 4,
      "note": 31,
      "start": 23.8152,
      "duration": 0.1853,
      "velocity": 84,
      "chip": "ym2612"
    },
    {
      "channel": 1,
      "note": 59,
      "start": 23.9136,
      "duration": 0.0858,
      "velocity": 104,
      "chip": "ym2612"
    },
    {
      "channel": 2,
      "note": 63,
      "start": 23.9141,
      "duration": 0.0857,
      "velocity": 100,
      "chip": "ym2612"
    },
    {
      "channel": 0,
      "note": 49,
      "start": 23.999,
      "duration": 0.0917,
      "velocity": 102,
      "chip": "ym2612"
    },
    {
      "channel": 1,
      "note": 49,
      "start": 23.9995,
      "duration": 6.5275,
      "velocity": 104,
      "chip": "ym2612"
    },
    {
      "channel": 2,
      "note": 65,
      "start": 24.0,
      "duration": 0.4408,
      "velocity": 100,
      "chip": "ym2612"
    },
    {
      "channel": 4,
      "note": 31,
      "start": 24.0007,
      "duration": 0.0907,
      "velocity": 84,
      "chip": "ym2612"
    },
    {
      "channel": 0,
      "note": 51,
      "start": 24.0908,
      "duration": 0.086,
      "velocity": 102,
      "chip": "ym2612"
    },
    {
      "channel": 4,
      "note": 31,
      "start": 24.0915,
      "duration": 0.086,
      "velocity": 84,
      "chip": "ym2612"
    },
    {
      "channel": 0,
      "note": 61,
      "start": 24.177,
      "duration": 0.0868,
      "velocity": 102,
      "chip": "ym2612"
    },
    {
      "channel": 4,
      "note": 31,
      "start": 24.1777,
      "duration": 0.0883,
      "velocity": 84,
      "chip": "ym2612"
    },
    {
      "channel": 0,
      "note": 63,
      "start": 24.2639,
      "duration": 0.0877,
      "velocity": 102,
      "chip": "ym2612"
    },
    {
      "channel": 4,
      "note": 31,
      "start": 24.2663,
      "duration": 0.1768,
      "velocity": 84,
      "chip": "ym2612"
    },
    {
      "channel": 0,
      "note": 51,
      "start": 24.3518,
      "duration": 0.0884,
      "velocity": 102,
      "chip": "ym2612"
    },
    {
      "channel": 0,
      "note": 53,
      "start": 24.4404,
      "duration": 3.0147,
      "velocity": 102,
      "chip": "ym2612"
    },
    {
      "channel": 2,
      "note": 48,
      "start": 24.4411,
      "duration": 0.0911,
      "velocity": 100,
      "chip": "ym2612"
    },
    {
      "channel": 4,
      "note": 31,
      "start": 24.4433,
      "duration": 0.0895,
      "velocity": 84,
      "chip": "ym2612"
    },
    {
      "channel": 2,
      "note": 60,
      "start": 24.5323,
      "duration": 0.0998,
      "velocity": 100,
      "chip": "ym2612"
    },
    {
      "channel": 4,
      "note": 31,
      "start": 24.533,
      "duration": 0.0998,
      "velocity": 84,
      "chip": "ym2612"
    },
    {
      "channel": 2,
      "note": 58,
      "start": 24.6323,
      "duration": 0.0998,
      "velocity": 100,
      "chip": "ym2612"
    },
    {
      "channel": 4,
      "note": 31,
      "start": 24.6329,
      "duration": 0.1998,
      "velocity": 84,
      "chip": "ym2612"
    },
    {
      "channel": 2,
      "note": 51,
      "start": 24.7323,
      "duration": 0.0999,
      "velocity": 100,
      "chip": "ym2612"
    },
    {
      "channel": 2,
      "note": 53,
      "start": 24.8323,
      "duration": 0.3685,
      "velocity": 100,
      "chip": "ym2612"
    },
    {
      "channel": 4,
      "note": 31,
      "start": 24.8329,
      "duration": 0.1783,
      "velocity": 84,
      "chip": "ym2612"
    },
    {
      "channel": 4,
      "note": 31,
      "start": 25.0114,
      "duration": 0.0895,
      "velocity": 84,
      "chip": "ym2612"
    },
    {
      "channel": 4,
      "note": 31,
      "start": 25.1011,
      "duration": 0.2003,
      "velocity": 84,
      "chip": "ym2612"
    },
    {
      "channel": 2,
      "note": 60,
      "start": 25.201,
      "duration": 0.0998,
      "velocity": 100,
      "chip": "ym2612"
    },
    {
      "channel": 2,
      "note": 58,
      "start": 25.301,
      "duration": 0.0999,
      "velocity": 100,
      "chip": "ym2612"
    },
    {
      "channel": 4,
      "note": 31,
      "start": 25.3016,
      "duration": 0.1851,
      "velocity": 84,
      "chip": "ym2612"
    },
    {
      "channel": 2,
      "note": 51,
      "start": 25.401,
      "duration": 0.0852,
      "velocity": 100,
      "chip": "ym2612"
    },
    {
      "channel": 2,
      "note": 53,
      "start": 25.4863,
      "duration": 0.4759,
      "velocity": 100,
      "chip": "ym2612"
    },
    {
      "channel": 4,
      "note": 31,
      "start": 25.4869,
      "duration": 0.0994,
      "velocity": 84,
      "chip": "ym2612"
    },
    {
      "channel": 4,
      "note": 31,
      "start": 25.5864,
      "duration": 0.0841,
      "velocity": 84,
      "chip": "ym2612"
    },
    {
      "channel": 4,
      "note": 31,
      "start": 25.6707,
      "duration": 0.0931,
      "velocity": 84,
      "chip": "ym2612"
    },
    {
      "channel": 4,
      "note": 31,
      "start": 25.764,
      "duration": 0.2003,
      "velocity": 84,
      "chip": "ym2612"
    },
    {
      "channel": 2,
      "note": 48,
      "start": 25.9623,
      "duration": 0.0868,
      "velocity": 100,
      "chip": "ym2612"
    },
    {
      "channel": 4,
      "note": 31,
      "start": 25.9645,
      "duration": 0.0853,
      "velocity": 84,
      "chip": "ym2612"
    },
    {
      "channel": 2,
      "note": 60,
      "start": 26.0493,
      "duration": 0.0998,
      "velocity": 100,
      "chip": "ym2612"
    },
    {
      "channel": 4,
      "note": 31,
      "start": 26.0499,
      "duration": 0.0998,
      "velocity": 84,
      "chip": "ym2612"
    },
    {
      "channel": 2,
      "note": 58,
      "start": 26.1493,
      "duration": 0.0998,
      "velocity": 100,
      "chip": "ym2612"
    },
    {
      "channel": 4,
      "note": 31,
      "start": 26.1499,
      "duration": 0.1998,
      "velocity": 84,
      "chip": "ym2612"
    },
    {
      "channel": 2,
      "note": 51,
      "start": 26.2493,
      "duration": 0.0999,
      "velocity": 100,
      "chip": "ym2612"
    },
    {
      "channel": 2,
      "note": 53,
      "start": 26.3493,
      "duration": 0.3685,
      "velocity": 100,
      "chip": "ym2612"
    },
    {
      "channel": 4,
      "note": 31,
      "start": 26.3499,
      "duration": 0.1783,
      "velocity": 84,
      "chip": "ym2612"
    },
    {
      "channel": 4,
      "note": 31,
      "start": 26.5284,
      "duration": 0.0895,
      "velocity": 84,
      "chip": "ym2612"
    },
    {
      "channel": 4,
      "note": 31,
      "start": 26.6181,
      "duration": 0.2003,
      "velocity": 84,
      "chip": "ym2612"
    },
    {
      "channel": 2,
      "note": 60,
      "start": 26.718,
      "duration": 0.0998,
      "velocity": 100,
      "chip": "ym2612"
    },
    {
      "channel": 2,
      "note": 58,
      "start": 26.818,
      "duration": 0.0999,
      "velocity": 100,
      "chip": "ym2612"
    },
    {
      "channel": 4,
      "note": 31,
      "start": 26.8186,
      "duration": 0.0998,
      "velocity": 84,
      "chip": "ym2612"
    },
    {
      "channel": 2,
      "note": 51,
      "start": 26.918,
      "duration": 0.0871,
      "velocity": 100,
      "chip": "ym2612"
    },
    {
      "channel": 4,
      "note": 31,
      "start": 26.9186,
      "duration": 0.0871,
      "velocity": 84,
      "chip": "ym2612"
    },
    {
      "channel": 2,
      "note": 53,
      "start": 27.0052,
      "duration": 0.4506,
      "velocity": 100,
      "chip": "ym2612"
    },
    {
      "channel": 4,
      "note": 31,
      "start": 27.0058,
      "duration": 0.0994,
      "velocity": 84,
      "chip": "ym2612"
    },
    {
      "channel": 4,
      "note": 31,
      "start": 27.1053,
      "duration": 0.0868,
      "velocity": 84,
      "chip": "ym2612"
    },
    {
      "channel": 4,
      "note": 31,
      "start": 27.1924,
      "duration": 0.089,
      "velocity": 84,
      "chip": "ym2612"
    },
    {
      "channel": 4,
      "note": 31,
      "start": 27.2815,
      "duration": 0.1765,
      "velocity": 84,
      "chip": "ym2612"
    },
    {
      "channel": 0,
      "note": 51,
      "start": 27.4554,
      "duration": 0.2875,
      "velocity": 102,
      "chip": "ym2612"
    },
    {
      "channel": 2,
      "note": 58,
      "start": 27.456,
      "duration": 0.087,
      "velocity": 100,
      "chip": "ym2612"
    },
    {
      "channel": 4,
      "note": 31,
      "start": 27.4582,
      "duration": 0.0855,
      "velocity": 84,
      "chip": "ym2612"
    },
    {
      "channel": 2,
      "note": 70,
      "start": 27.5432,
      "duration": 0.0998,
      "velocity": 100,
      "chip": "ym2612"
    },
    {
      "channel": 4,
      "note": 31,
      "start": 27.5438,
      "duration": 0.0998,
      "velocity": 84,
      "chip": "ym2612"
    },
    {
      "channel": 2,
      "note": 68,
      "start": 27.6431,
      "duration": 0.1003,
      "velocity": 100,
      "chip": "ym2612"
    },
    {
      "channel": 4,
      "note": 31,
      "start": 27.6437,
      "duration": 0.1999,
      "velocity": 84,
      "chip": "ym2612"
    },
    {
      "channel": 0,
      "note": 63,
      "start": 27.743,
      "duration": 0.2788,
      "velocity": 102,
      "chip": "ym2612"
    },
    {
      "channel": 2,
      "note": 63,
      "start": 27.7436,
      "duration": 0.0993,
      "velocity": 100,
      "chip": "ym2612"
    },
    {
      "channel": 2,
      "note": 65,
      "start": 27.8432,
      "duration": 0.3705,
      "velocity": 100,
      "chip": "ym2612"
    },
    {
      "channel": 4,
      "note": 31,
      "start": 27.8438,
      "duration": 0.1788,
      "velocity": 84,
      "chip": "ym2612"
    },
    {
      "channel": 0,
      "note": 51,
      "start": 28.0221,
      "duration": 0.2915,
      "velocity": 102,
      "chip": "ym2612"
    },
    {
      "channel": 4,
      "note": 31,
      "start": 28.0228,
      "duration": 0.091,
      "velocity": 84,
      "chip": "ym2612"
    },
    {
      "channel": 4,
      "note": 31,
      "start": 28.114,
      "duration": 0.2007,
      "velocity": 84,
      "chip": "ym2612"
    },
    {
      "channel": 2,
      "note": 70,
      "start": 28.2138,
      "duration": 0.1003,
      "velocity": 100,
      "chip": "ym2612"
    },
    {
      "channel": 0,
      "note": 63,
      "start": 28.3137,
      "duration": 0.19,
      "velocity": 102,
      "chip": "ym2612"
    },
    {
      "channel": 2,
      "note": 68,
      "start": 28.3143,
      "duration": 0.0993,
      "velocity": 100,
      "chip": "ym2612"
    },
    {
      "channel": 4,
      "note": 31,
      "start": 28.315,
      "duration": 0.1901,
      "velocity": 84,
      "chip": "ym2612"
    },
    {
      "channel": 2,
      "note": 63,
      "start": 28.4139,
      "duration": 0.0905,
      "velocity": 100,
      "chip": "ym2612"
    },
    {
      "channel": 0,
      "note": 49,
      "start": 28.504,
      "duration": 0.0998,
      "velocity": 102,
      "chip": "ym2612"
    },
    {
      "channel": 2,
      "note": 65,
      "start": 28.5046,
      "duration": 0.4716,
      "velocity": 100,
      "chip": "ym2612"
    },
    {
      "channel": 4,
      "note": 31,
      "start": 28.5052,
      "duration": 0.0994,
      "velocity": 84,
      "chip": "ym2612"
    },
    {
      "channel": 0,
      "note": 51,
      "start": 28.604,
      "duration": 0.0839,
      "velocity": 102,
      "chip": "ym2612"
    },
    {
      "channel": 4,
      "note": 31,
      "start": 28.6047,
      "duration": 0.0838,
      "velocity": 84,
      "chip": "ym2612"
    },
    {
      "channel": 0,
      "note": 61,
      "start": 28.688,
      "duration": 0.0875,
      "velocity": 102,
      "chip": "ym2612"
    },
    {
      "channel": 4,
      "note": 31,
      "start": 28.6887,
      "duration": 0.0891,
      "velocity": 84,
      "chip": "ym2612"
    },
    {
      "channel": 0,
      "note": 63,
      "start": 28.7757,
      "duration": 0.0998,
      "velocity": 102,
      "chip": "ym2612"
    },
    {
      "channel": 4,
      "note": 31,
      "start": 28.778,
      "duration": 0.2003,
      "velocity": 84,
      "chip": "ym2612"
    },
    {
      "channel": 0,
      "note": 49,
      "start": 28.8756,
      "duration": 0.0999,
      "velocity": 102,
      "chip": "ym2612"
    },
    {
      "channel": 0,
      "note": 51,
      "start": 28.9757,
      "duration": 0.2855,
      "velocity": 102,
      "chip": "ym2612"
    },
    {
      "channel": 2,
      "note": 58,
      "start": 28.9763,
      "duration": 0.085,
      "velocity": 100,
      "chip": "ym2612"
    },
    {
      "channel": 4,
      "note": 31,
      "start": 28.9785,
      "duration": 0.0835,
      "velocity": 84,
      "chip": "ym2612"
    },
    {
      "channel": 2,
      "note": 70,
      "start": 29.0615,
      "duration": 0.0998,
      "velocity": 100,
      "chip": "ym2612"
    },
    {
      "channel": 4,
      "note": 31,
      "start": 29.0622,
      "duration": 0.0998,
      "velocity": 84,
      "chip": "ym2612"
    },
    {
      "channel": 2,
      "note": 68,
      "start": 29.1615,
      "duration": 0.1004,
      "velocity": 100,
      "chip": "ym2612"
    },
    {
      "channel": 4,
      "note": 31,
      "start": 29.1621,
      "duration": 0.1999,
      "velocity": 84,
      "chip": "ym2612"
    },
    {
      "channel": 0,
      "note": 63,
      "start": 29.2614,
      "duration": 0.2851,
      "velocity": 102,
      "chip": "ym2612"
    },
    {
      "channel": 2,
      "note": 63,
      "start": 29.262,
      "duration": 0.0993,
      "velocity": 100,
      "chip": "ym2612"
    },
    {
      "channel": 2,
      "note": 65,
      "start": 29.3615,
      "duration": 0.3851,
      "velocity": 100,
      "chip": "ym2612"
    },
    {
      "channel": 4,
      "note": 31,
      "start": 29.3622,
      "duration": 0.1851,
      "velocity": 84,
      "chip": "ym2612"
    },
    {
      "channel": 0,
      "note": 51,
      "start": 29.5467,
      "duration": 0.2925,
      "velocity": 102,
      "chip": "ym2612"
    },
    {
      "channel": 4,
      "note": 31,
      "start": 29.5474,
      "duration": 0.0993,
      "velocity": 84,
      "chip": "ym2612"
    },
    {
      "channel": 4,
      "note": 31,
      "start": 29.6469,
      "duration": 0.1935,
      "velocity": 84,
      "chip": "ym2612"
    },
    {
      "channel": 2,
      "note": 70,
      "start": 29.7468,
      "duration": 0.093,
      "velocity": 100,
      "chip": "ym2612"
    },
    {
      "channel": 0,
      "note": 63,
      "start": 29.8394,
      "duration": 0.1998,
      "velocity": 102,
      "chip": "ym2612"
    },
    {
      "channel": 2,
      "note": 68,
      "start": 29.84,
      "duration": 0.0993,
      "velocity": 100,
      "chip": "ym2612"
    },
    {
      "channel": 4,
      "note": 31,
      "start": 29.8406,
      "duration": 0.1998,
      "velocity": 84,
      "chip": "ym2612"
    },
    {
      "channel": 2,
      "note": 63,
      "start": 29.9394,
      "duration": 0.1003,
      "velocity": 100,
      "chip": "ym2612"
    },
    {
      "channel": 0,
      "note": 49,
      "start": 30.0394,
      "duration": 0.0998,
      "velocity": 102,
      "chip": "ym2612"
    },
    {
      "channel": 2,
      "note": 65,
      "start": 30.04,
      "duration": 2.5357,
      "velocity": 100,
      "chip": "ym2612"
    },
    {
      "channel": 4,
      "note": 31,
      "start": 30.0406,
      "duration": 0.0994,
      "velocity": 84,
      "chip": "ym2612"
    },
    {
      "channel": 0,
      "note": 51,
      "start": 30.1394,
      "duration": 0.0852,
      "velocity": 102,
      "chip": "ym2612"
    },
    {
      "channel": 4,
      "note": 31,
      "start": 30.1401,
      "duration": 0.0851,
      "velocity": 84,
      "chip": "ym2612"
    },
    {
      "channel": 0,
      "note": 61,
      "start": 30.2248,
      "duration": 0.0998,
      "velocity": 102,
      "chip": "ym2612"
    },
    {
      "channel": 4,
      "note": 31,
      "start": 30.2255,
      "duration": 0.1014,
      "velocity": 84,
      "chip": "ym2612"
    },
    {
      "channel": 0,
      "note": 63,
      "start": 30.3247,
      "duration": 0.2001,
      "velocity": 102,
      "chip": "ym2612"
    },
    {
      "channel": 4,
      "note": 31,
      "start": 30.3271,
      "duration": 2.2485,
      "velocity": 84,
      "chip": "ym2612"
    },
    {
      "channel": 0,
      "note": 53,
      "start": 30.525,
      "duration": 0.2996,
      "velocity": 102,
      "chip": "ym2612"
    },
    {
      "channel": 1,
      "note": 65,
      "start": 30.5271,
      "duration": 0.0976,
      "velocity": 104,
      "chip": "ym2612"
    },
    {
      "channel": 1,
      "note": 63,
      "start": 30.6248,
      "duration": 0.0998,
      "velocity": 104,
      "chip": "ym2612"
    },
    {
      "channel": 1,
      "note": 53,
      "start": 30.7248,
      "duration": 0.1004,
      "velocity": 104,
      "chip": "ym2612"
    },
    {
      "channel": 3,
      "note": 53,
      "start": 30.727,
      "duration": 0.1003,
      "velocity": 73,
      "chip": "ym2612"
    },
    {
      "channel": 0,
      "note": 65,
      "start": 30.8248,
      "duration": 1.7509,
      "velocity": 102,
      "chip": "ym2612"
    },
    {
      "channel": 1,
      "note": 65,
      "start": 30.8253,
      "duration": 0.0994,
      "velocity": 104,
      "chip": "ym2612"
    },
    {
      "channel": 3,
      "note": 63,
      "start": 30.8275,
      "duration": 0.0993,
      "velocity": 73,
      "chip": "ym2612"
    },
    {
      "channel": 1,
      "note": 63,
      "start": 30.9248,
      "duration": 0.0998,
      "velocity": 104,
      "chip": "ym2612"
    },
    {
      "channel": 3,
      "note": 65,
      "start": 30.927,
      "duration": 0.0998,
      "velocity": 73,
      "chip": "ym2612"
    },
    {
      "channel": 1,
      "note": 53,
      "start": 31.0248,
      "duration": 1.5509,
      "velocity": 104,
      "chip": "ym2612"
    },
    {
      "channel": 3,
      "note": 53,
      "start": 31.027,
      "duration": 1.5486,
      "velocity": 73,
      "chip": "ym2612"
    }
  ]
}