{
  "track_name": "02 - Introduction, Game Over",
  "duration_sec": 49.647,
  "sample_rate": 44100,
  "note_count": 307,
  "unique_pitches": 5,
  "pitch_range": 45,
  "avg_note_duration": 0.2332,
  "reconstruction_stats": {
    "notes_reconstructed": 307,
    "keyon_events": 307,
    "keyoff_events": 307,
    "orphan_keyons": 0,
    "unique_pitches": 5,
    "pitch_range": 45,
    "avg_duration_sec": 0.2332
  },
  "metadata": {
    "source": "X\\X-Men\\02 - Introduction, Game Over.vgz"
  },
  "notes": [
    {
      "channel": 0,
      "note": 54,
      "start": 0.0096,
      "duration": 2.6279,
      "velocity": 113,
      "chip": "ym2612"
    },
    {
      "channel": 2,
      "note": 51,
      "start": 0.0154,
      "duration": 0.0212,
      "velocity": 110,
      "chip": "ym2612"
    },
    {
      "channel": 1,
      "note": 54,
      "start": 0.0208,
      "duration": 0.0369,
      "velocity": 127,
      "chip": "ym2612"
    },
    {
      "channel": 1,
      "note": 54,
      "start": 0.1109,
      "duration": 0.0851,
      "velocity": 127,
      "chip": "ym2612"
    },
    {
      "channel": 1,
      "note": 54,
      "start": 0.3155,
      "duration": 0.1139,
      "velocity": 127,
      "chip": "ym2612"
    },
    {
      "channel": 1,
      "note": 54,
      "start": 0.5322,
      "duration": 0.0609,
      "velocity": 127,
      "chip": "ym2612"
    },
    {
      "channel": 2,
      "note": 51,
      "start": 0.553,
      "duration": 0.033,
      "velocity": 110,
      "chip": "ym2612"
    },
    {
      "channel": 1,
      "note": 54,
      "start": 0.6383,
      "duration": 0.081,
      "velocity": 127,
      "chip": "ym2612"
    },
    {
      "channel": 1,
      "note": 54,
      "start": 0.8389,
      "duration": 0.0529,
      "velocity": 127,
      "chip": "ym2612"
    },
    {
      "channel": 1,
      "note": 54,
      "start": 0.9448,
      "duration": 0.0558,
      "velocity": 127,
      "chip": "ym2612"
    },
    {
      "channel": 1,
      "note": 54,
      "start": 1.0451,
      "duration": 0.0551,
      "velocity": 127,
      "chip": "ym2612"
    },
    {
      "channel": 2,
      "note": 51,
      "start": 1.1518,
      "duration": 0.024,
      "velocity": 110,
      "chip": "ym2612"
    },
    {
      "channel": 1,
      "note": 54,
      "start": 1.1569,
      "duration": 0.0407,
      "velocity": 127,
      "chip": "ym2612"
    },
    {
      "channel": 1,
      "note": 54,
      "start": 1.2505,
      "duration": 0.0983,
      "velocity": 127,
      "chip": "ym2612"
    },
    {
      "channel": 1,
      "note": 54,
      "start": 1.4517,
      "duration": 0.1138,
      "velocity": 127,
      "chip": "ym2612"
    },
    {
      "channel": 1,
      "note": 54,
      "start": 1.6849,
      "duration": 0.0537,
      "velocity": 127,
      "chip": "ym2612"
    },
    {
      "channel": 2,
      "note": 51,
      "start": 1.7054,
      "duration": 0.0264,
      "velocity": 110,
      "chip": "ym2612"
    },
    {
      "channel": 1,
      "note": 54,
      "start": 1.7913,
      "duration": 0.081,
      "velocity": 127,
      "chip": "ym2612"
    },
    {
      "channel": 1,
      "note": 54,
      "start": 1.9751,
      "duration": 0.1139,
      "velocity": 127,
      "chip": "ym2612"
    },
    {
      "channel": 1,
      "note": 54,
      "start": 2.1919,
      "duration": 0.1138,
      "velocity": 127,
      "chip": "ym2612"
    },
    {
      "channel": 1,
      "note": 54,
      "start": 2.4257,
      "duration": 0.0967,
      "velocity": 127,
      "chip": "ym2612"
    },
    {
      "channel": 2,
      "note": 51,
      "start": 2.6361,
      "duration": 0.0246,
      "velocity": 110,
      "chip": "ym2612"
    },
    {
      "channel": 1,
      "note": 54,
      "start": 2.6415,
      "duration": 0.0495,
      "velocity": 127,
      "chip": "ym2612"
    },
    {
      "channel": 0,
      "note": 45,
      "start": 2.6492,
      "duration": 1.1457,
      "velocity": 113,
      "chip": "ym2612"
    },
    {
      "channel": 1,
      "note": 54,
      "start": 2.7354,
      "duration": 0.0937,
      "velocity": 127,
      "chip": "ym2612"
    },
    {
      "channel": 1,
      "note": 54,
      "start": 2.9487,
      "duration": 0.0971,
      "velocity": 127,
      "chip": "ym2612"
    },
    {
      "channel": 1,
      "note": 54,
      "start": 3.1653,
      "duration": 0.0607,
      "velocity": 127,
      "chip": "ym2612"
    },
    {
      "channel": 2,
      "note": 51,
      "start": 3.1857,
      "duration": 0.0264,
      "velocity": 110,
      "chip": "ym2612"
    },
    {
      "channel": 1,
      "note": 54,
      "start": 3.2717,
      "duration": 0.0805,
      "velocity": 127,
      "chip": "ym2612"
    },
    {
      "channel": 1,
      "note": 54,
      "start": 3.4717,
      "duration": 0.0529,
      "velocity": 127,
      "chip": "ym2612"
    },
    {
      "channel": 1,
      "note": 54,
      "start": 3.5771,
      "duration": 0.048,
      "velocity": 127,
      "chip": "ym2612"
    },
    {
      "channel": 1,
      "note": 54,
      "start": 3.6784,
      "duration": 0.056,
      "velocity": 127,
      "chip": "ym2612"
    },
    {
      "channel": 2,
      "note": 51,
      "start": 3.7793,
      "duration": 0.0312,
      "velocity": 110,
      "chip": "ym2612"
    },
    {
      "channel": 1,
      "note": 54,
      "start": 3.7842,
      "duration": 0.0485,
      "velocity": 127,
      "chip": "ym2612"
    },
    {
      "channel": 0,
      "note": 47,
      "start": 3.8064,
      "duration": 1.4395,
      "velocity": 113,
      "chip": "ym2612"
    },
    {
      "channel": 1,
      "note": 54,
      "start": 3.8859,
      "duration": 0.0873,
      "velocity": 127,
      "chip": "ym2612"
    },
    {
      "channel": 1,
      "note": 54,
      "start": 4.0927,
      "duration": 0.1138,
      "velocity": 127,
      "chip": "ym2612"
    },
    {
      "channel": 1,
      "note": 54,
      "start": 4.3093,
      "duration": 0.0612,
      "velocity": 127,
      "chip": "ym2612"
    },
    {
      "channel": 2,
      "note": 51,
      "start": 4.33,
      "duration": 0.0332,
      "velocity": 110,
      "chip": "ym2612"
    },
    {
      "channel": 1,
      "note": 54,
      "start": 4.4227,
      "duration": 0.0733,
      "velocity": 127,
      "chip": "ym2612"
    },
    {
      "channel": 1,
      "note": 54,
      "start": 4.6155,
      "duration": 0.1138,
      "velocity": 127,
      "chip": "ym2612"
    },
    {
      "channel": 1,
      "note": 54,
      "start": 4.8321,
      "duration": 0.1139,
      "velocity": 127,
      "chip": "ym2612"
    },
    {
      "channel": 1,
      "note": 54,
      "start": 5.0656,
      "duration": 0.097,
      "velocity": 127,
      "chip": "ym2612"
    },
    {
      "channel": 0,
      "note": 54,
      "start": 5.2767,
      "duration": 2.639,
      "velocity": 113,
      "chip": "ym2612"
    },
    {
      "channel": 2,
      "note": 51,
      "start": 5.282,
      "duration": 0.0178,
      "velocity": 110,
      "chip": "ym2612"
    },
    {
      "channel": 1,
      "note": 54,
      "start": 5.2861,
      "duration": 0.0348,
      "velocity": 127,
      "chip": "ym2612"
    },
    {
      "channel": 1,
      "note": 54,
      "start": 5.3743,
      "duration": 0.0938,
      "velocity": 127,
      "chip": "ym2612"
    },
    {
      "channel": 1,
      "note": 54,
      "start": 5.5709,
      "duration": 0.1139,
      "velocity": 127,
      "chip": "ym2612"
    },
    {
      "channel": 1,
      "note": 54,
      "start": 5.8043,
      "duration": 0.0535,
      "velocity": 127,
      "chip": "ym2612"
    },
    {
      "channel": 2,
      "note": 51,
      "start": 5.8247,
      "duration": 0.0263,
      "velocity": 110,
      "chip": "ym2612"
    },
    {
      "channel": 1,
      "note": 54,
      "start": 5.9102,
      "duration": 0.0807,
      "velocity": 127,
      "chip": "ym2612"
    },
    {
      "channel": 1,
      "note": 54,
      "start": 6.0937,
      "duration": 0.0604,
      "velocity": 127,
      "chip": "ym2612"
    },
    {
      "channel": 3,
      "note": 90,
      "start": 6.1996,
      "duration": 2.7032,
      "velocity": 118,
      "chip": "ym2612"
    },
    {
      "channel": 1,
      "note": 54,
      "start": 6.2107,
      "duration": 0.0526,
      "velocity": 127,
      "chip": "ym2612"
    },
    {
      "channel": 1,
      "note": 54,
      "start": 6.3165,
      "duration": 0.0559,
      "velocity": 127,
      "chip": "ym2612"
    },
    {
      "channel": 2,
      "note": 51,
      "start": 6.4174,
      "duration": 0.0312,
      "velocity": 110,
      "chip": "ym2612"
    },
    {
      "channel": 1,
      "note": 54,
      "start": 6.4223,
      "duration": 0.0471,
      "velocity": 127,
      "chip": "ym2612"
    },
    {
      "channel": 1,
      "note": 54,
      "start": 6.5224,
      "duration": 0.0882,
      "velocity": 127,
      "chip": "ym2612"
    },
    {
      "channel": 1,
      "note": 54,
      "start": 6.73,
      "duration": 0.0972,
      "velocity": 127,
      "chip": "ym2612"
    },
    {
      "channel": 1,
      "note": 54,
      "start": 6.9467,
      "duration": 0.0612,
      "velocity": 127,
      "chip": "ym2612"
    },
    {
      "channel": 2,
      "note": 51,
      "start": 6.9676,
      "duration": 0.0333,
      "velocity": 110,
      "chip": "ym2612"
    },
    {
      "channel": 1,
      "note": 54,
      "start": 7.0533,
      "duration": 0.0808,
      "velocity": 127,
      "chip": "ym2612"
    },
    {
      "channel": 1,
      "note": 54,
      "start": 7.2535,
      "duration": 0.0972,
      "velocity": 127,
      "chip": "ym2612"
    },
    {
      "channel": 1,
      "note": 54,
      "start": 7.4701,
      "duration": 0.1139,
      "velocity": 127,
      "chip": "ym2612"
    },
    {
      "channel": 1,
      "note": 54,
      "start": 7.687,
      "duration": 0.1137,
      "velocity": 127,
      "chip": "ym2612"
    },
    {
      "channel": 2,
      "note": 51,
      "start": 7.9144,
      "duration": 0.0239,
      "velocity": 110,
      "chip": "ym2612"
    },
    {
      "channel": 1,
      "note": 54,
      "start": 7.9195,
      "duration": 0.04,
      "velocity": 127,
      "chip": "ym2612"
    },
    {
      "channel": 0,
      "note": 45,
      "start": 7.9271,
      "duration": 1.1376,
      "velocity": 113,
      "chip": "ym2612"
    },
    {
      "channel": 1,
      "note": 54,
      "start": 8.0119,
      "duration": 0.0952,
      "velocity": 127,
      "chip": "ym2612"
    },
    {
      "channel": 1,
      "note": 54,
      "start": 8.2098,
      "duration": 0.1139,
      "velocity": 127,
      "chip": "ym2612"
    },
    {
      "channel": 1,
      "note": 54,
      "start": 8.4432,
      "duration": 0.0537,
      "velocity": 127,
      "chip": "ym2612"
    },
    {
      "channel": 2,
      "note": 51,
      "start": 8.4637,
      "duration": 0.0263,
      "velocity": 110,
      "chip": "ym2612"
    },
    {
      "channel": 1,
      "note": 54,
      "start": 8.5485,
      "duration": 0.0641,
      "velocity": 127,
      "chip": "ym2612"
    },
    {
      "channel": 1,
      "note": 54,
      "start": 8.7321,
      "duration": 0.0606,
      "velocity": 127,
      "chip": "ym2612"
    },
    {
      "channel": 4,
      "note": 90,
      "start": 8.8322,
      "duration": 2.7003,
      "velocity": 118,
      "chip": "ym2612"
    },
    {
      "channel": 1,
      "note": 54,
      "start": 8.8391,
      "duration": 0.0637,
      "velocity": 127,
      "chip": "ym2612"
    },
    {
      "channel": 1,
      "note": 54,
      "start": 8.9554,
      "duration": 0.0484,
      "velocity": 127,
      "chip": "ym2612"
    },
    {
      "channel": 2,
      "note": 51,
      "start": 9.0563,
      "duration": 0.0238,
      "velocity": 110,
      "chip": "ym2612"
    },
    {
      "channel": 1,
      "note": 54,
      "start": 9.0611,
      "duration": 0.0484,
      "velocity": 127,
      "chip": "ym2612"
    },
    {
      "channel": 0,
      "note": 47,
      "start": 9.0751,
      "duration": 1.4305,
      "velocity": 113,
      "chip": "ym2612"
    },
    {
      "channel": 1,
      "note": 54,
      "start": 9.1545,
      "duration": 0.0952,
      "velocity": 127,
      "chip": "ym2612"
    },
    {
      "channel": 1,
      "note": 54,
      "start": 9.3692,
      "duration": 0.0973,
      "velocity": 127,
      "chip": "ym2612"
    },
    {
      "channel": 1,
      "note": 54,
      "start": 9.5859,
      "duration": 0.0608,
      "velocity": 127,
      "chip": "ym2612"
    },
    {
      "channel": 2,
      "note": 51,
      "start": 9.6067,
      "duration": 0.0263,
      "velocity": 110,
      "chip": "ym2612"
    },
    {
      "channel": 1,
      "note": 54,
      "start": 9.6917,
      "duration": 0.0806,
      "velocity": 127,
      "chip": "ym2612"
    },
    {
      "channel": 1,
      "note": 54,
      "start": 9.8751,
      "duration": 0.1139,
      "velocity": 127,
      "chip": "ym2612"
    },
    {
      "channel": 1,
      "note": 54,
      "start": 10.1085,
      "duration": 0.0972,
      "velocity": 127,
      "chip": "ym2612"
    },
    {
      "channel": 1,
      "note": 54,
      "start": 10.3252,
      "duration": 0.1137,
      "velocity": 127,
      "chip": "ym2612"
    },
    {
      "channel": 0,
      "note": 54,
      "start": 10.5368,
      "duration": 2.6406,
      "velocity": 113,
      "chip": "ym2612"
    },
    {
      "channel": 2,
      "note": 51,
      "start": 10.5421,
      "duration": 0.0247,
      "velocity": 110,
      "chip": "ym2612"
    },
    {
      "channel": 1,
      "note": 54,
      "start": 10.5463,
      "duration": 0.0433,
      "velocity": 127,
      "chip": "ym2612"
    },
    {
      "channel": 1,
      "note": 54,
      "start": 10.6409,
      "duration": 0.0868,
      "velocity": 127,
      "chip": "ym2612"
    },
    {
      "channel": 1,
      "note": 54,
      "start": 10.8472,
      "duration": 0.1139,
      "velocity": 127,
      "chip": "ym2612"
    },
    {
      "channel": 1,
      "note": 54,
      "start": 11.0639,
      "duration": 0.061,
      "velocity": 127,
      "chip": "ym2612"
    },
    {
      "channel": 2,
      "note": 51,
      "start": 11.0842,
      "duration": 0.0335,
      "velocity": 110,
      "chip": "ym2612"
    },
    {
      "channel": 1,
      "note": 54,
      "start": 11.1779,
      "duration": 0.0733,
      "velocity": 127,
      "chip": "ym2612"
    },
    {
      "channel": 1,
      "note": 54,
      "start": 11.3707,
      "duration": 0.0605,
      "velocity": 127,
      "chip": "ym2612"
    },
    {
      "channel": 3,
      "note": 90,
      "start": 11.4711,
      "duration": 2.6363,
      "velocity": 118,
      "chip": "ym2612"
    },
    {
      "channel": 1,
      "note": 54,
      "start": 11.4779,
      "duration": 0.0544,
      "velocity": 127,
      "chip": "ym2612"
    },
    {
      "channel": 1,
      "note": 54,
      "start": 11.5777,
      "duration": 0.065,
      "velocity": 127,
      "chip": "ym2612"
    },
    {
      "channel": 2,
      "note": 51,
      "start": 11.6953,
      "duration": 0.0232,
      "velocity": 110,
      "chip": "ym2612"
    },
    {
      "channel": 1,
      "note": 54,
      "start": 11.7001,
      "duration": 0.0399,
      "velocity": 127,
      "chip": "ym2612"
    },
    {
      "channel": 1,
      "note": 54,
      "start": 11.7931,
      "duration": 0.0967,
      "velocity": 127,
      "chip": "ym2612"
    },
    {
      "channel": 1,
      "note": 54,
      "start": 11.9926,
      "duration": 0.1139,
      "velocity": 127,
      "chip": "ym2612"
    },
    {
      "channel": 1,
      "note": 54,
      "start": 12.2259,
      "duration": 0.0539,
      "velocity": 127,
      "chip": "ym2612"
    },
    {
      "channel": 2,
      "note": 51,
      "start": 12.2467,
      "duration": 0.0263,
      "velocity": 110,
      "chip": "ym2612"
    },
    {
      "channel": 1,
      "note": 54,
      "start": 12.3315,
      "duration": 0.0808,
      "velocity": 127,
      "chip": "ym2612"
    },
    {
      "channel": 1,
      "note": 54,
      "start": 12.5151,
      "duration": 0.1139,
      "velocity": 127,
      "chip": "ym2612"
    },
    {
      "channel": 1,
      "note": 54,
      "start": 12.7484,
      "duration": 0.0972,
      "velocity": 127,
      "chip": "ym2612"
    },
    {
      "channel": 1,
      "note": 54,
      "start": 12.9653,
      "duration": 0.1137,
      "velocity": 127,
      "chip": "ym2612"
    },
    {
      "channel": 2,
      "note": 51,
      "start": 13.1761,
      "duration": 0.0239,
      "velocity": 110,
      "chip": "ym2612"
    },
    {
      "channel": 1,
      "note": 54,
      "start": 13.1812,
      "duration": 0.048,
      "velocity": 127,
      "chip": "ym2612"
    },
    {
      "channel": 0,
      "note": 45,
      "start": 13.1888,
      "duration": 1.145,
      "velocity": 113,
      "chip": "ym2612"
    },
    {
      "channel": 1,
      "note": 54,
      "start": 13.2738,
      "duration": 0.095,
      "velocity": 127,
      "chip": "ym2612"
    },
    {
      "channel": 1,
      "note": 54,
      "start": 13.4881,
      "duration": 0.0972,
      "velocity": 127,
      "chip": "ym2612"
    },
    {
      "channel": 1,
      "note": 54,
      "start": 13.7049,
      "duration": 0.0608,
      "velocity": 127,
      "chip": "ym2612"
    },
    {
      "channel": 2,
      "note": 51,
      "start": 13.7252,
      "duration": 0.0333,
      "velocity": 110,
      "chip": "ym2612"
    },
    {
      "channel": 1,
      "note": 54,
      "start": 13.8111,
      "duration": 0.0799,
      "velocity": 127,
      "chip": "ym2612"
    },
    {
      "channel": 1,
      "note": 54,
      "start": 14.0105,
      "duration": 0.0528,
      "velocity": 127,
      "chip": "ym2612"
    },
    {
      "channel": 1,
      "note": 54,
      "start": 14.1161,
      "duration": 0.0553,
      "velocity": 127,
      "chip": "ym2612"
    },
    {
      "channel": 1,
      "note": 54,
      "start": 14.2172,
      "duration": 0.0559,
      "velocity": 127,
      "chip": "ym2612"
    },
    {
      "channel": 2,
      "note": 51,
      "start": 14.3181,
      "duration": 0.0313,
      "velocity": 110,
      "chip": "ym2612"
    },
    {
      "channel": 1,
      "note": 54,
      "start": 14.3291,
      "duration": 0.0424,
      "velocity": 127,
      "chip": "ym2612"
    },
    {
      "channel": 0,
      "note": 47,
      "start": 14.3454,
      "duration": 1.4382,
      "velocity": 113,
      "chip": "ym2612"
    },
    {
      "channel": 1,
      "note": 54,
      "start": 14.4239,
      "duration": 0.1039,
      "velocity": 127,
      "chip": "ym2612"
    },
    {
      "channel": 1,
      "note": 54,
      "start": 14.6306,
      "duration": 0.1139,
      "velocity": 127,
      "chip": "ym2612"
    },
    {
      "channel": 1,
      "note": 54,
      "start": 14.8472,
      "duration": 0.0705,
      "velocity": 127,
      "chip": "ym2612"
    },
    {
      "channel": 2,
      "note": 51,
      "start": 14.8849,
      "duration": 0.0262,
      "velocity": 110,
      "chip": "ym2612"
    },
    {
      "channel": 1,
      "note": 54,
      "start": 14.9701,
      "duration": 0.0635,
      "velocity": 127,
      "chip": "ym2612"
    },
    {
      "channel": 1,
      "note": 54,
      "start": 15.153,
      "duration": 0.114,
      "velocity": 127,
      "chip": "ym2612"
    },
    {
      "channel": 1,
      "note": 54,
      "start": 15.3697,
      "duration": 0.1139,
      "velocity": 127,
      "chip": "ym2612"
    },
    {
      "channel": 1,
      "note": 54,
      "start": 15.6032,
      "duration": 0.0971,
      "velocity": 127,
      "chip": "ym2612"
    },
    {
      "channel": 0,
      "note": 54,
      "start": 15.8145,
      "duration": 2.6425,
      "velocity": 113,
      "chip": "ym2612"
    },
    {
      "channel": 2,
      "note": 51,
      "start": 15.8199,
      "duration": 0.0177,
      "velocity": 110,
      "chip": "ym2612"
    },
    {
      "channel": 1,
      "note": 54,
      "start": 15.8241,
      "duration": 0.0431,
      "velocity": 127,
      "chip": "ym2612"
    },
    {
      "channel": 1,
      "note": 54,
      "start": 15.9117,
      "duration": 0.0939,
      "velocity": 127,
      "chip": "ym2612"
    },
    {
      "channel": 1,
      "note": 54,
      "start": 16.1251,
      "duration": 0.0973,
      "velocity": 127,
      "chip": "ym2612"
    },
    {
      "channel": 1,
      "note": 54,
      "start": 16.3418,
      "duration": 0.0535,
      "velocity": 127,
      "chip": "ym2612"
    },
    {
      "channel": 2,
      "note": 51,
      "start": 16.3622,
      "duration": 0.0264,
      "velocity": 110,
      "chip": "ym2612"
    },
    {
      "channel": 1,
      "note": 54,
      "start": 16.4479,
      "duration": 0.0807,
      "velocity": 127,
      "chip": "ym2612"
    },
    {
      "channel": 1,
      "note": 54,
      "start": 16.6314,
      "duration": 0.0695,
      "velocity": 127,
      "chip": "ym2612"
    },
    {
      "channel": 1,
      "note": 54,
      "start": 16.7539,
      "duration": 0.048,
      "velocity": 127,
      "chip": "ym2612"
    },
    {
      "channel": 1,
      "note": 54,
      "start": 16.8551,
      "duration": 0.056,
      "velocity": 127,
      "chip": "ym2612"
    },
    {
      "channel": 2,
      "note": 51,
      "start": 16.9561,
      "duration": 0.0314,
      "velocity": 110,
      "chip": "ym2612"
    },
    {
      "channel": 1,
      "note": 54,
      "start": 16.961,
      "duration": 0.0474,
      "velocity": 127,
      "chip": "ym2612"
    },
    {
      "channel": 1,
      "note": 54,
      "start": 17.0615,
      "duration": 0.0881,
      "velocity": 127,
      "chip": "ym2612"
    },
    {
      "channel": 1,
      "note": 54,
      "start": 17.269,
      "duration": 0.1139,
      "velocity": 127,
      "chip": "ym2612"
    },
    {
      "channel": 1,
      "note": 54,
      "start": 17.4857,
      "duration": 0.0614,
      "velocity": 127,
      "chip": "ym2612"
    },
    {
      "channel": 2,
      "note": 51,
      "start": 17.5067,
      "duration": 0.0334,
      "velocity": 110,
      "chip": "ym2612"
    },
    {
      "channel": 1,
      "note": 54,
      "start": 17.5995,
      "duration": 0.0731,
      "velocity": 127,
      "chip": "ym2612"
    },
    {
      "channel": 1,
      "note": 54,
      "start": 17.7921,
      "duration": 0.0971,
      "velocity": 127,
      "chip": "ym2612"
    },
    {
      "channel": 1,
      "note": 54,
      "start": 18.0088,
      "duration": 0.1138,
      "velocity": 127,
      "chip": "ym2612"
    },
    {
      "channel": 1,
      "note": 54,
      "start": 18.2255,
      "duration": 0.1138,
      "velocity": 127,
      "chip": "ym2612"
    },
    {
      "channel": 2,
      "note": 51,
      "start": 18.4559,
      "duration": 0.0217,
      "velocity": 110,
      "chip": "ym2612"
    },
    {
      "channel": 1,
      "note": 54,
      "start": 18.461,
      "duration": 0.0378,
      "velocity": 127,
      "chip": "ym2612"
    },
    {
      "channel": 0,
      "note": 45,
      "start": 18.4672,
      "duration": 1.136,
      "velocity": 113,
      "chip": "ym2612"
    },
    {
      "channel": 1,
      "note": 54,
      "start": 18.5524,
      "duration": 0.0926,
      "velocity": 127,
      "chip": "ym2612"
    },
    {
      "channel": 1,
      "note": 54,
      "start": 18.7478,
      "duration": 0.1138,
      "velocity": 127,
      "chip": "ym2612"
    },
    {
      "channel": 1,
      "note": 54,
      "start": 18.9811,
      "duration": 0.0537,
      "velocity": 127,
      "chip": "ym2612"
    },
    {
      "channel": 2,
      "note": 51,
      "start": 19.0015,
      "duration": 0.0264,
      "velocity": 110,
      "chip": "ym2612"
    },
    {
      "channel": 1,
      "note": 54,
      "start": 19.0877,
      "duration": 0.0803,
      "velocity": 127,
      "chip": "ym2612"
    },
    {
      "channel": 1,
      "note": 54,
      "start": 19.2708,
      "duration": 0.0602,
      "velocity": 127,
      "chip": "ym2612"
    },
    {
      "channel": 1,
      "note": 54,
      "start": 19.3881,
      "duration": 0.0526,
      "velocity": 127,
      "chip": "ym2612"
    },
    {
      "channel": 1,
      "note": 54,
      "start": 19.4938,
      "duration": 0.0482,
      "velocity": 127,
      "chip": "ym2612"
    },
    {
      "channel": 2,
      "note": 51,
      "start": 19.5947,
      "duration": 0.0239,
      "velocity": 110,
      "chip": "ym2612"
    },
    {
      "channel": 1,
      "note": 54,
      "start": 19.5996,
      "duration": 0.0485,
      "velocity": 127,
      "chip": "ym2612"
    },
    {
      "channel": 0,
      "note": 47,
      "start": 19.6136,
      "duration": 1.4312,
      "velocity": 113,
      "chip": "ym2612"
    },
    {
      "channel": 1,
      "note": 54,
      "start": 19.6931,
      "duration": 0.0951,
      "velocity": 127,
      "chip": "ym2612"
    },
    {
      "channel": 1,
      "note": 54,
      "start": 19.9078,
      "duration": 0.0971,
      "velocity": 127,
      "chip": "ym2612"
    },
    {
      "channel": 1,
      "note": 54,
      "start": 20.1244,
      "duration": 0.0614,
      "velocity": 127,
      "chip": "ym2612"
    },
    {
      "channel": 2,
      "note": 51,
      "start": 20.1451,
      "duration": 0.0334,
      "velocity": 110,
      "chip": "ym2612"
    },
    {
      "channel": 1,
      "note": 54,
      "start": 20.2309,
      "duration": 0.0806,
      "velocity": 127,
      "chip": "ym2612"
    },
    {
      "channel": 1,
      "note": 54,
      "start": 20.431,
      "duration": 0.0971,
      "velocity": 127,
      "chip": "ym2612"
    },
    {
      "channel": 1,
      "note": 54,
      "start": 20.6476,
      "duration": 0.1139,
      "velocity": 127,
      "chip": "ym2612"
    },
    {
      "channel": 1,
      "note": 54,
      "start": 20.8644,
      "duration": 0.1137,
      "velocity": 127,
      "chip": "ym2612"
    },
    {
      "channel": 0,
      "note": 54,
      "start": 21.0756,
      "duration": 2.6389,
      "velocity": 113,
      "chip": "ym2612"
    },
    {
      "channel": 2,
      "note": 51,
      "start": 21.0808,
      "duration": 0.0244,
      "velocity": 110,
      "chip": "ym2612"
    },
    {
      "channel": 1,
      "note": 54,
      "start": 21.0876,
      "duration": 0.0402,
      "velocity": 127,
      "chip": "ym2612"
    },
    {
      "channel": 1,
      "note": 54,
      "start": 21.1792,
      "duration": 0.0868,
      "velocity": 127,
      "chip": "ym2612"
    },
    {
      "channel": 1,
      "note": 54,
      "start": 21.3855,
      "duration": 0.1138,
      "velocity": 127,
      "chip": "ym2612"
    },
    {
      "channel": 1,
      "note": 54,
      "start": 21.6021,
      "duration": 0.0704,
      "velocity": 127,
      "chip": "ym2612"
    },
    {
      "channel": 2,
      "note": 51,
      "start": 21.6392,
      "duration": 0.0264,
      "velocity": 110,
      "chip": "ym2612"
    },
    {
      "channel": 1,
      "note": 54,
      "start": 21.7254,
      "duration": 0.0637,
      "velocity": 127,
      "chip": "ym2612"
    },
    {
      "channel": 1,
      "note": 54,
      "start": 21.9086,
      "duration": 0.0605,
      "velocity": 127,
      "chip": "ym2612"
    },
    {
      "channel": 1,
      "note": 54,
      "start": 22.0143,
      "duration": 0.0554,
      "velocity": 127,
      "chip": "ym2612"
    },
    {
      "channel": 1,
      "note": 54,
      "start": 22.1272,
      "duration": 0.0521,
      "velocity": 127,
      "chip": "ym2612"
    },
    {
      "channel": 2,
      "note": 51,
      "start": 22.2315,
      "duration": 0.0231,
      "velocity": 110,
      "chip": "ym2612"
    },
    {
      "channel": 1,
      "note": 54,
      "start": 22.2363,
      "duration": 0.0473,
      "velocity": 127,
      "chip": "ym2612"
    },
    {
      "channel": 1,
      "note": 54,
      "start": 22.3294,
      "duration": 0.0967,
      "velocity": 127,
      "chip": "ym2612"
    },
    {
      "channel": 1,
      "note": 54,
      "start": 22.5289,
      "duration": 0.1138,
      "velocity": 127,
      "chip": "ym2612"
    },
    {
      "channel": 1,
      "note": 54,
      "start": 22.7622,
      "duration": 0.0539,
      "velocity": 127,
      "chip": "ym2612"
    },
    {
      "channel": 2,
      "note": 51,
      "start": 22.7829,
      "duration": 0.0268,
      "velocity": 110,
      "chip": "ym2612"
    },
    {
      "channel": 1,
      "note": 54,
      "start": 22.8685,
      "duration": 0.0808,
      "velocity": 127,
      "chip": "ym2612"
    },
    {
      "channel": 1,
      "note": 54,
      "start": 23.0521,
      "duration": 0.1139,
      "velocity": 127,
      "chip": "ym2612"
    },
    {
      "channel": 1,
      "note": 54,
      "start": 23.2855,
      "duration": 0.0971,
      "velocity": 127,
      "chip": "ym2612"
    },
    {
      "channel": 1,
      "note": 54,
      "start": 23.5022,
      "duration": 0.1138,
      "velocity": 127,
      "chip": "ym2612"
    },
    {
      "channel": 2,
      "note": 51,
      "start": 23.7132,
      "duration": 0.031,
      "velocity": 110,
      "chip": "ym2612"
    },
    {
      "channel": 1,
      "note": 54,
      "start": 23.7184,
      "duration": 0.0472,
      "velocity": 127,
      "chip": "ym2612"
    },
    {
      "channel": 0,
      "note": 45,
      "start": 23.7259,
      "duration": 1.1466,
      "velocity": 113,
      "chip": "ym2612"
    },
    {
      "channel": 1,
      "note": 54,
      "start": 23.8188,
      "duration": 0.088,
      "velocity": 127,
      "chip": "ym2612"
    },
    {
      "channel": 1,
      "note": 54,
      "start": 24.0262,
      "duration": 0.1139,
      "velocity": 127,
      "chip": "ym2612"
    },
    {
      "channel": 1,
      "note": 54,
      "start": 24.2429,
      "duration": 0.0614,
      "velocity": 127,
      "chip": "ym2612"
    },
    {
      "channel": 2,
      "note": 51,
      "start": 24.2634,
      "duration": 0.0339,
      "velocity": 110,
      "chip": "ym2612"
    },
    {
      "channel": 1,
      "note": 54,
      "start": 24.3498,
      "duration": 0.0803,
      "velocity": 127,
      "chip": "ym2612"
    },
    {
      "channel": 1,
      "note": 54,
      "start": 24.5495,
      "duration": 0.0521,
      "velocity": 127,
      "chip": "ym2612"
    },
    {
      "channel": 3,
      "note": 90,
      "start": 24.6487,
      "duration": 2.6902,
      "velocity": 118,
      "chip": "ym2612"
    },
    {
      "channel": 1,
      "note": 54,
      "start": 24.6549,
      "duration": 0.0548,
      "velocity": 127,
      "chip": "ym2612"
    },
    {
      "channel": 1,
      "note": 54,
      "start": 24.7554,
      "duration": 0.0553,
      "velocity": 127,
      "chip": "ym2612"
    },
    {
      "channel": 2,
      "note": 51,
      "start": 24.8621,
      "duration": 0.0253,
      "velocity": 110,
      "chip": "ym2612"
    },
    {
      "channel": 1,
      "note": 54,
      "start": 24.8671,
      "duration": 0.0411,
      "velocity": 127,
      "chip": "ym2612"
    },
    {
      "channel": 0,
      "note": 47,
      "start": 24.8822,
      "duration": 1.4323,
      "velocity": 113,
      "chip": "ym2612"
    },
    {
      "channel": 1,
      "note": 54,
      "start": 24.9611,
      "duration": 0.0972,
      "velocity": 127,
      "chip": "ym2612"
    },
    {
      "channel": 1,
      "note": 54,
      "start": 25.161,
      "duration": 0.1139,
      "velocity": 127,
      "chip": "ym2612"
    },
    {
      "channel": 1,
      "note": 54,
      "start": 25.3943,
      "duration": 0.0539,
      "velocity": 127,
      "chip": "ym2612"
    },
    {
      "channel": 2,
      "note": 51,
      "start": 25.4151,
      "duration": 0.0267,
      "velocity": 110,
      "chip": "ym2612"
    },
    {
      "channel": 1,
      "note": 54,
      "start": 25.5003,
      "duration": 0.0808,
      "velocity": 127,
      "chip": "ym2612"
    },
    {
      "channel": 1,
      "note": 54,
      "start": 25.6839,
      "duration": 0.114,
      "velocity": 127,
      "chip": "ym2612"
    },
    {
      "channel": 1,
      "note": 54,
      "start": 25.9006,
      "duration": 0.1139,
      "velocity": 127,
      "chip": "ym2612"
    },
    {
      "channel": 1,
      "note": 54,
      "start": 26.1341,
      "duration": 0.0971,
      "velocity": 127,
      "chip": "ym2612"
    },
    {
      "channel": 0,
      "note": 54,
      "start": 26.3452,
      "duration": 2.6391,
      "velocity": 113,
      "chip": "ym2612"
    },
    {
      "channel": 2,
      "note": 51,
      "start": 26.3505,
      "duration": 0.0178,
      "velocity": 110,
      "chip": "ym2612"
    },
    {
      "channel": 1,
      "note": 54,
      "start": 26.3546,
      "duration": 0.043,
      "velocity": 127,
      "chip": "ym2612"
    },
    {
      "channel": 1,
      "note": 54,
      "start": 26.4428,
      "duration": 0.0938,
      "velocity": 127,
      "chip": "ym2612"
    },
    {
      "channel": 1,
      "note": 54,
      "start": 26.6561,
      "duration": 0.0972,
      "velocity": 127,
      "chip": "ym2612"
    },
    {
      "channel": 1,
      "note": 54,
      "start": 26.8727,
      "duration": 0.0609,
      "velocity": 127,
      "chip": "ym2612"
    },
    {
      "channel": 2,
      "note": 51,
      "start": 26.8931,
      "duration": 0.0336,
      "velocity": 110,
      "chip": "ym2612"
    },
    {
      "channel": 1,
      "note": 54,
      "start": 26.9789,
      "duration": 0.0807,
      "velocity": 127,
      "chip": "ym2612"
    },
    {
      "channel": 1,
      "note": 54,
      "start": 27.179,
      "duration": 0.0521,
      "velocity": 127,
      "chip": "ym2612"
    },
    {
      "channel": 4,
      "note": 90,
      "start": 27.2775,
      "duration": 2.6945,
      "velocity": 118,
      "chip": "ym2612"
    },
    {
      "channel": 1,
      "note": 54,
      "start": 27.2848,
      "duration": 0.054,
      "velocity": 127,
      "chip": "ym2612"
    },
    {
      "channel": 1,
      "note": 54,
      "start": 27.3842,
      "duration": 0.0561,
      "velocity": 127,
      "chip": "ym2612"
    },
    {
      "channel": 2,
      "note": 51,
      "start": 27.4854,
      "duration": 0.0311,
      "velocity": 110,
      "chip": "ym2612"
    },
    {
      "channel": 1,
      "note": 54,
      "start": 27.4902,
      "duration": 0.0471,
      "velocity": 127,
      "chip": "ym2612"
    },
    {
      "channel": 1,
      "note": 54,
      "start": 27.5908,
      "duration": 0.0882,
      "velocity": 127,
      "chip": "ym2612"
    },
    {
      "channel": 1,
      "note": 54,
      "start": 27.7984,
      "duration": 0.1139,
      "velocity": 127,
      "chip": "ym2612"
    },
    {
      "channel": 1,
      "note": 54,
      "start": 28.0151,
      "duration": 0.0609,
      "velocity": 127,
      "chip": "ym2612"
    },
    {
      "channel": 2,
      "note": 51,
      "start": 28.036,
      "duration": 0.033,
      "velocity": 110,
      "chip": "ym2612"
    },
    {
      "channel": 1,
      "note": 54,
      "start": 28.1285,
      "duration": 0.0741,
      "velocity": 127,
      "chip": "ym2612"
    },
    {
      "channel": 1,
      "note": 54,
      "start": 28.322,
      "duration": 0.1139,
      "velocity": 127,
      "chip": "ym2612"
    },
    {
      "channel": 1,
      "note": 54,
      "start": 28.5386,
      "duration": 0.1139,
      "velocity": 127,
      "chip": "ym2612"
    },
    {
      "channel": 1,
      "note": 54,
      "start": 28.7722,
      "duration": 0.097,
      "velocity": 127,
      "chip": "ym2612"
    },
    {
      "channel": 2,
      "note": 51,
      "start": 28.9829,
      "duration": 0.0244,
      "velocity": 110,
      "chip": "ym2612"
    },
    {
      "channel": 1,
      "note": 54,
      "start": 28.9883,
      "duration": 0.0403,
      "velocity": 127,
      "chip": "ym2612"
    },
    {
      "channel": 0,
      "note": 45,
      "start": 28.9961,
      "duration": 1.138,
      "velocity": 113,
      "chip": "ym2612"
    },
    {
      "channel": 1,
      "note": 54,
      "start": 29.0815,
      "duration": 0.0952,
      "velocity": 127,
      "chip": "ym2612"
    },
    {
      "channel": 1,
      "note": 54,
      "start": 29.2794,
      "duration": 0.1139,
      "velocity": 127,
      "chip": "ym2612"
    },
    {
      "channel": 1,
      "note": 54,
      "start": 29.5128,
      "duration": 0.0535,
      "velocity": 127,
      "chip": "ym2612"
    },
    {
      "channel": 2,
      "note": 51,
      "start": 29.5331,
      "duration": 0.0263,
      "velocity": 110,
      "chip": "ym2612"
    },
    {
      "channel": 1,
      "note": 54,
      "start": 29.6183,
      "duration": 0.0808,
      "velocity": 127,
      "chip": "ym2612"
    },
    {
      "channel": 1,
      "note": 54,
      "start": 29.8019,
      "duration": 0.0598,
      "velocity": 127,
      "chip": "ym2612"
    },
    {
      "channel": 3,
      "note": 90,
      "start": 29.9083,
      "duration": 2.6279,
      "velocity": 118,
      "chip": "ym2612"
    },
    {
      "channel": 1,
      "note": 54,
      "start": 29.9194,
      "duration": 0.0526,
      "velocity": 127,
      "chip": "ym2612"
    },
    {
      "channel": 1,
      "note": 54,
      "start": 30.0246,
      "duration": 0.0559,
      "velocity": 127,
      "chip": "ym2612"
    },
    {
      "channel": 2,
      "note": 51,
      "start": 30.1256,
      "duration": 0.0308,
      "velocity": 110,
      "chip": "ym2612"
    },
    {
      "channel": 1,
      "note": 54,
      "start": 30.1305,
      "duration": 0.0481,
      "velocity": 127,
      "chip": "ym2612"
    },
    {
      "channel": 0,
      "note": 47,
      "start": 30.1444,
      "duration": 1.4306,
      "velocity": 113,
      "chip": "ym2612"
    },
    {
      "channel": 1,
      "note": 54,
      "start": 30.2313,
      "duration": 0.0873,
      "velocity": 127,
      "chip": "ym2612"
    },
    {
      "channel": 1,
      "note": 54,
      "start": 30.4381,
      "duration": 0.0972,
      "velocity": 127,
      "chip": "ym2612"
    },
    {
      "channel": 1,
      "note": 54,
      "start": 30.6547,
      "duration": 0.0612,
      "velocity": 127,
      "chip": "ym2612"
    },
    {
      "channel": 2,
      "note": 51,
      "start": 30.6754,
      "duration": 0.0332,
      "velocity": 110,
      "chip": "ym2612"
    },
    {
      "channel": 1,
      "note": 54,
      "start": 30.761,
      "duration": 0.0808,
      "velocity": 127,
      "chip": "ym2612"
    },
    {
      "channel": 1,
      "note": 54,
      "start": 30.9611,
      "duration": 0.0972,
      "velocity": 127,
      "chip": "ym2612"
    },
    {
      "channel": 1,
      "note": 54,
      "start": 31.1779,
      "duration": 0.1139,
      "velocity": 127,
      "chip": "ym2612"
    },
    {
      "channel": 1,
      "note": 54,
      "start": 31.3946,
      "duration": 0.1137,
      "velocity": 127,
      "chip": "ym2612"
    },
    {
      "channel": 0,
      "note": 54,
      "start": 31.6226,
      "duration": 2.6235,
      "velocity": 113,
      "chip": "ym2612"
    },
    {
      "channel": 2,
      "note": 51,
      "start": 31.6279,
      "duration": 0.0178,
      "velocity": 110,
      "chip": "ym2612"
    },
    {
      "channel": 1,
      "note": 54,
      "start": 31.6322,
      "duration": 0.0354,
      "velocity": 127,
      "chip": "ym2612"
    },
    {
      "channel": 1,
      "note": 54,
      "start": 31.7199,
      "duration": 0.0939,
      "velocity": 127,
      "chip": "ym2612"
    },
    {
      "channel": 1,
      "note": 54,
      "start": 31.9165,
      "duration": 0.1139,
      "velocity": 127,
      "chip": "ym2612"
    },
    {
      "channel": 1,
      "note": 54,
      "start": 32.1499,
      "duration": 0.0537,
      "velocity": 127,
      "chip": "ym2612"
    },
    {
      "channel": 2,
      "note": 51,
      "start": 32.1704,
      "duration": 0.0264,
      "velocity": 110,
      "chip": "ym2612"
    },
    {
      "channel": 1,
      "note": 54,
      "start": 32.2553,
      "duration": 0.0641,
      "velocity": 127,
      "chip": "ym2612"
    },
    {
      "channel": 1,
      "note": 54,
      "start": 32.4388,
      "duration": 0.0605,
      "velocity": 127,
      "chip": "ym2612"
    },
    {
      "channel": 1,
      "note": 54,
      "start": 32.5449,
      "duration": 0.0648,
      "velocity": 127,
      "chip": "ym2612"
    },
    {
      "channel": 1,
      "note": 54,
      "start": 32.6628,
      "duration": 0.0485,
      "velocity": 127,
      "chip": "ym2612"
    },
    {
      "channel": 2,
      "note": 51,
      "start": 32.7637,
      "duration": 0.0232,
      "velocity": 110,
      "chip": "ym2612"
    },
    {
      "channel": 1,
      "note": 54,
      "start": 32.7686,
      "duration": 0.0474,
      "velocity": 127,
      "chip": "ym2612"
    },
    {
      "channel": 1,
      "note": 54,
      "start": 32.8619,
      "duration": 0.0967,
      "velocity": 127,
      "chip": "ym2612"
    },
    {
      "channel": 1,
      "note": 54,
      "start": 33.078,
      "duration": 0.0973,
      "velocity": 127,
      "chip": "ym2612"
    },
    {
      "channel": 1,
      "note": 54,
      "start": 33.2947,
      "duration": 0.0607,
      "velocity": 127,
      "chip": "ym2612"
    },
    {
      "channel": 2,
      "note": 51,
      "start": 33.3155,
      "duration": 0.0263,
      "velocity": 110,
      "chip": "ym2612"
    },
    {
      "channel": 1,
      "note": 54,
      "start": 33.4004,
      "duration": 0.0806,
      "velocity": 127,
      "chip": "ym2612"
    },
    {
      "channel": 1,
      "note": 54,
      "start": 33.6005,
      "duration": 0.0973,
      "velocity": 127,
      "chip": "ym2612"
    },
    {
      "channel": 1,
      "note": 54,
      "start": 33.8171,
      "duration": 0.0973,
      "velocity": 127,
      "chip": "ym2612"
    },
    {
      "channel": 1,
      "note": 54,
      "start": 34.034,
      "duration": 0.1138,
      "velocity": 127,
      "chip": "ym2612"
    },
    {
      "channel": 2,
      "note": 51,
      "start": 34.2447,
      "duration": 0.0312,
      "velocity": 110,
      "chip": "ym2612"
    },
    {
      "channel": 1,
      "note": 54,
      "start": 34.25,
      "duration": 0.0473,
      "velocity": 127,
      "chip": "ym2612"
    },
    {
      "channel": 0,
      "note": 45,
      "start": 34.2638,
      "duration": 1.1512,
      "velocity": 113,
      "chip": "ym2612"
    },
    {
      "channel": 1,
      "note": 54,
      "start": 34.3507,
      "duration": 0.088,
      "velocity": 127,
      "chip": "ym2612"
    },
    {
      "channel": 1,
      "note": 54,
      "start": 34.5581,
      "duration": 0.1139,
      "velocity": 127,
      "chip": "ym2612"
    },
    {
      "channel": 1,
      "note": 54,
      "start": 34.7748,
      "duration": 0.061,
      "velocity": 127,
      "chip": "ym2612"
    },
    {
      "channel": 2,
      "note": 51,
      "start": 34.7952,
      "duration": 0.0335,
      "velocity": 110,
      "chip": "ym2612"
    },
    {
      "channel": 1,
      "note": 54,
      "start": 34.8887,
      "duration": 0.0733,
      "velocity": 127,
      "chip": "ym2612"
    },
    {
      "channel": 1,
      "note": 54,
      "start": 35.0814,
      "duration": 0.0605,
      "velocity": 127,
      "chip": "ym2612"
    },
    {
      "channel": 1,
      "note": 54,
      "start": 35.1872,
      "duration": 0.0559,
      "velocity": 127,
      "chip": "ym2612"
    },
    {
      "channel": 1,
      "note": 54,
      "start": 35.2888,
      "duration": 0.0651,
      "velocity": 127,
      "chip": "ym2612"
    },
    {
      "channel": 2,
      "note": 51,
      "start": 35.4066,
      "duration": 0.0239,
      "velocity": 110,
      "chip": "ym2612"
    },
    {
      "channel": 1,
      "note": 54,
      "start": 35.4114,
      "duration": 0.0407,
      "velocity": 127,
      "chip": "ym2612"
    },
    {
      "channel": 0,
      "note": 47,
      "start": 35.4255,
      "duration": 1.4308,
      "velocity": 113,
      "chip": "ym2612"
    },
    {
      "channel": 1,
      "note": 54,
      "start": 35.505,
      "duration": 0.0952,
      "velocity": 127,
      "chip": "ym2612"
    },
    {
      "channel": 1,
      "note": 54,
      "start": 35.703,
      "duration": 0.1139,
      "velocity": 127,
      "chip": "ym2612"
    },
    {
      "channel": 1,
      "note": 54,
      "start": 35.9364,
      "duration": 0.0539,
      "velocity": 127,
      "chip": "ym2612"
    },
    {
      "channel": 2,
      "note": 51,
      "start": 35.9572,
      "duration": 0.0263,
      "velocity": 110,
      "chip": "ym2612"
    },
    {
      "channel": 1,
      "note": 54,
      "start": 36.0422,
      "duration": 0.0808,
      "velocity": 127,
      "chip": "ym2612"
    },
    {
      "channel": 1,
      "note": 54,
      "start": 36.2258,
      "duration": 0.1139,
      "velocity": 127,
      "chip": "ym2612"
    },
    {
      "channel": 1,
      "note": 54,
      "start": 36.4592,
      "duration": 0.0971,
      "velocity": 127,
      "chip": "ym2612"
    },
    {
      "channel": 1,
      "note": 54,
      "start": 36.6759,
      "duration": 0.1139,
      "velocity": 127,
      "chip": "ym2612"
    }
  ]
}