{
  "track_name": "02 - Level Task",
  "duration_sec": 28.361,
  "sample_rate": 44100,
  "note_count": 158,
  "unique_pitches": 27,
  "pitch_range": 30,
  "avg_note_duration": 0.8,
  "reconstruction_stats": {
    "notes_reconstructed": 158,
    "keyon_events": 158,
    "keyoff_events": 153,
    "orphan_keyons": 5,
    "unique_pitches": 27,
    "pitch_range": 30,
    "avg_duration_sec": 0.8
  },
  "metadata": {
    "source": "T\\The Legend of Galahad\\02 - Level Task.vgz"
  },
  "notes": [
    {
      "channel": 0,
      "note": 84,
      "start": 0.0023,
      "duration": 0.8649,
      "velocity": 99,
      "chip": "ym2612"
    },
    {
      "channel": 1,
      "note": 87,
      "start": 0.2189,
      "duration": 0.8817,
      "velocity": 99,
      "chip": "ym2612"
    },
    {
      "channel": 2,
      "note": 91,
      "start": 0.4355,
      "duration": 0.8817,
      "velocity": 99,
      "chip": "ym2612"
    },
    {
      "channel": 3,
      "note": 96,
      "start": 0.6523,
      "duration": 0.8817,
      "velocity": 99,
      "chip": "ym2612"
    },
    {
      "channel": 0,
      "note": 94,
      "start": 0.8673,
      "duration": 0.8832,
      "velocity": 99,
      "chip": "ym2612"
    },
    {
      "channel": 1,
      "note": 93,
      "start": 1.1007,
      "duration": 0.8665,
      "velocity": 99,
      "chip": "ym2612"
    },
    {
      "channel": 2,
      "note": 89,
      "start": 1.3175,
      "duration": 0.8831,
      "velocity": 99,
      "chip": "ym2612"
    },
    {
      "channel": 3,
      "note": 82,
      "start": 1.5341,
      "duration": 0.8832,
      "velocity": 99,
      "chip": "ym2612"
    },
    {
      "channel": 0,
      "note": 84,
      "start": 1.7507,
      "duration": 0.8832,
      "velocity": 99,
      "chip": "ym2612"
    },
    {
      "channel": 1,
      "note": 87,
      "start": 1.9674,
      "duration": 0.8831,
      "velocity": 99,
      "chip": "ym2612"
    },
    {
      "channel": 2,
      "note": 91,
      "start": 2.2008,
      "duration": 0.8665,
      "velocity": 99,
      "chip": "ym2612"
    },
    {
      "channel": 3,
      "note": 98,
      "start": 2.4175,
      "duration": 0.8832,
      "velocity": 99,
      "chip": "ym2612"
    },
    {
      "channel": 0,
      "note": 94,
      "start": 2.634,
      "duration": 0.8832,
      "velocity": 99,
      "chip": "ym2612"
    },
    {
      "channel": 1,
      "note": 91,
      "start": 2.8507,
      "duration": 0.8831,
      "velocity": 99,
      "chip": "ym2612"
    },
    {
      "channel": 2,
      "note": 87,
      "start": 3.0675,
      "duration": 0.8831,
      "velocity": 99,
      "chip": "ym2612"
    },
    {
      "channel": 3,
      "note": 82,
      "start": 3.3009,
      "duration": 0.8665,
      "velocity": 99,
      "chip": "ym2612"
    },
    {
      "channel": 0,
      "note": 81,
      "start": 3.5173,
      "duration": 0.8832,
      "velocity": 99,
      "chip": "ym2612"
    },
    {
      "channel": 1,
      "note": 84,
      "start": 3.7341,
      "duration": 0.8831,
      "velocity": 99,
      "chip": "ym2612"
    },
    {
      "channel": 2,
      "note": 89,
      "start": 3.9507,
      "duration": 0.8832,
      "velocity": 99,
      "chip": "ym2612"
    },
    {
      "channel": 3,
      "note": 94,
      "start": 4.1675,
      "duration": 0.8832,
      "velocity": 99,
      "chip": "ym2612"
    },
    {
      "channel": 0,
      "note": 93,
      "start": 4.4007,
      "duration": 0.8665,
      "velocity": 99,
      "chip": "ym2612"
    },
    {
      "channel": 1,
      "note": 89,
      "start": 4.6174,
      "duration": 0.8831,
      "velocity": 99,
      "chip": "ym2612"
    },
    {
      "channel": 2,
      "note": 84,
      "start": 4.8341,
      "duration": 0.8832,
      "velocity": 99,
      "chip": "ym2612"
    },
    {
      "channel": 3,
      "note": 81,
      "start": 5.0508,
      "duration": 0.8832,
      "velocity": 99,
      "chip": "ym2612"
    },
    {
      "channel": 0,
      "note": 80,
      "start": 5.2673,
      "duration": 0.8832,
      "velocity": 99,
      "chip": "ym2612"
    },
    {
      "channel": 1,
      "note": 84,
      "start": 5.5007,
      "duration": 0.8665,
      "velocity": 99,
      "chip": "ym2612"
    },
    {
      "channel": 2,
      "note": 87,
      "start": 5.7175,
      "duration": 0.8831,
      "velocity": 99,
      "chip": "ym2612"
    },
    {
      "channel": 3,
      "note": 94,
      "start": 5.9341,
      "duration": 0.8832,
      "velocity": 99,
      "chip": "ym2612"
    },
    {
      "channel": 0,
      "note": 92,
      "start": 6.1507,
      "duration": 0.8832,
      "velocity": 99,
      "chip": "ym2612"
    },
    {
      "channel": 1,
      "note": 87,
      "start": 6.3674,
      "duration": 0.8831,
      "velocity": 99,
      "chip": "ym2612"
    },
    {
      "channel": 2,
      "note": 84,
      "start": 6.6008,
      "duration": 0.8665,
      "velocity": 99,
      "chip": "ym2612"
    },
    {
      "channel": 3,
      "note": 80,
      "start": 6.8175,
      "duration": 0.8832,
      "velocity": 99,
      "chip": "ym2612"
    },
    {
      "channel": 0,
      "note": 79,
      "start": 7.034,
      "duration": 0.8832,
      "velocity": 99,
      "chip": "ym2612"
    },
    {
      "channel": 1,
      "note": 82,
      "start": 7.2507,
      "duration": 0.8831,
      "velocity": 99,
      "chip": "ym2612"
    },
    {
      "channel": 2,
      "note": 86,
      "start": 7.4675,
      "duration": 0.8831,
      "velocity": 99,
      "chip": "ym2612"
    },
    {
      "channel": 3,
      "note": 89,
      "start": 7.7009,
      "duration": 0.8665,
      "velocity": 99,
      "chip": "ym2612"
    },
    {
      "channel": 0,
      "note": 91,
      "start": 7.9173,
      "duration": 0.8832,
      "velocity": 99,
      "chip": "ym2612"
    },
    {
      "channel": 1,
      "note": 94,
      "start": 8.1341,
      "duration": 0.8831,
      "velocity": 99,
      "chip": "ym2612"
    },
    {
      "channel": 2,
      "note": 98,
      "start": 8.3507,
      "duration": 0.8832,
      "velocity": 99,
      "chip": "ym2612"
    },
    {
      "channel": 3,
      "note": 101,
      "start": 8.5675,
      "duration": 0.8832,
      "velocity": 99,
      "chip": "ym2612"
    },
    {
      "channel": 0,
      "note": 100,
      "start": 8.8007,
      "duration": 0.8665,
      "velocity": 99,
      "chip": "ym2612"
    },
    {
      "channel": 1,
      "note": 96,
      "start": 9.0174,
      "duration": 0.8831,
      "velocity": 99,
      "chip": "ym2612"
    },
    {
      "channel": 2,
      "note": 91,
      "start": 9.2341,
      "duration": 0.8832,
      "velocity": 99,
      "chip": "ym2612"
    },
    {
      "channel": 3,
      "note": 88,
      "start": 9.4508,
      "duration": 0.8832,
      "velocity": 99,
      "chip": "ym2612"
    },
    {
      "channel": 0,
      "note": 84,
      "start": 9.6673,
      "duration": 0.8832,
      "velocity": 99,
      "chip": "ym2612"
    },
    {
      "channel": 1,
      "note": 79,
      "start": 9.9007,
      "duration": 0.8665,
      "velocity": 99,
      "chip": "ym2612"
    },
    {
      "channel": 2,
      "note": 77,
      "start": 10.1175,
      "duration": 0.8831,
      "velocity": 99,
      "chip": "ym2612"
    },
    {
      "channel": 3,
      "note": 76,
      "start": 10.3341,
      "duration": 0.8832,
      "velocity": 99,
      "chip": "ym2612"
    },
    {
      "channel": 0,
      "note": 75,
      "start": 10.5507,
      "duration": 0.8832,
      "velocity": 99,
      "chip": "ym2612"
    },
    {
      "channel": 1,
      "note": 79,
      "start": 10.7674,
      "duration": 0.8831,
      "velocity": 99,
      "chip": "ym2612"
    },
    {
      "channel": 2,
      "note": 82,
      "start": 11.0008,
      "duration": 0.8665,
      "velocity": 99,
      "chip": "ym2612"
    },
    {
      "channel": 3,
      "note": 87,
      "start": 11.2175,
      "duration": 0.8832,
      "velocity": 99,
      "chip": "ym2612"
    },
    {
      "channel": 0,
      "note": 77,
      "start": 11.434,
      "duration": 0.8832,
      "velocity": 99,
      "chip": "ym2612"
    },
    {
      "channel": 1,
      "note": 81,
      "start": 11.6507,
      "duration": 0.8831,
      "velocity": 99,
      "chip": "ym2612"
    },
    {
      "channel": 2,
      "note": 84,
      "start": 11.8675,
      "duration": 0.8831,
      "velocity": 99,
      "chip": "ym2612"
    },
    {
      "channel": 3,
      "note": 89,
      "start": 12.1009,
      "duration": 0.8665,
      "velocity": 99,
      "chip": "ym2612"
    },
    {
      "channel": 0,
      "note": 78,
      "start": 12.3173,
      "duration": 0.8832,
      "velocity": 99,
      "chip": "ym2612"
    },
    {
      "channel": 1,
      "note": 81,
      "start": 12.5341,
      "duration": 0.8831,
      "velocity": 99,
      "chip": "ym2612"
    },
    {
      "channel": 2,
      "note": 84,
      "start": 12.7507,
      "duration": 0.8832,
      "velocity": 99,
      "chip": "ym2612"
    },
    {
      "channel": 3,
      "note": 90,
      "start": 12.9675,
      "duration": 0.8832,
      "velocity": 99,
      "chip": "ym2612"
    },
    {
      "channel": 0,
      "note": 93,
      "start": 13.2007,
      "duration": 0.8667,
      "velocity": 99,
      "chip": "ym2612"
    },
    {
      "channel": 1,
      "note": 98,
      "start": 13.4174,
      "duration": 0.8833,
      "velocity": 99,
      "chip": "ym2612"
    },
    {
      "channel": 2,
      "note": 102,
      "start": 13.6341,
      "duration": 0.8833,
      "velocity": 99,
      "chip": "ym2612"
    },
    {
      "channel": 3,
      "note": 105,
      "start": 13.8509,
      "duration": 0.8832,
      "velocity": 99,
      "chip": "ym2612"
    },
    {
      "channel": 0,
      "note": 84,
      "start": 14.0675,
      "duration": 0.883,
      "velocity": 99,
      "chip": "ym2612"
    },
    {
      "channel": 5,
      "note": 103,
      "start": 14.0698,
      "duration": 0.6649,
      "velocity": 99,
      "chip": "ym2612"
    },
    {
      "channel": 1,
      "note": 87,
      "start": 14.3008,
      "duration": 0.8664,
      "velocity": 99,
      "chip": "ym2612"
    },
    {
      "channel": 2,
      "note": 91,
      "start": 14.5175,
      "duration": 0.8831,
      "velocity": 99,
      "chip": "ym2612"
    },
    {
      "channel": 3,
      "note": 96,
      "start": 14.7343,
      "duration": 0.8831,
      "velocity": 99,
      "chip": "ym2612"
    },
    {
      "channel": 5,
      "note": 99,
      "start": 14.7348,
      "duration": 0.2164,
      "velocity": 99,
      "chip": "ym2612"
    },
    {
      "channel": 0,
      "note": 94,
      "start": 14.9507,
      "duration": 0.8831,
      "velocity": 99,
      "chip": "ym2612"
    },
    {
      "channel": 5,
      "note": 101,
      "start": 14.9515,
      "duration": 0.4498,
      "velocity": 99,
      "chip": "ym2612"
    },
    {
      "channel": 1,
      "note": 93,
      "start": 15.1674,
      "duration": 0.8831,
      "velocity": 99,
      "chip": "ym2612"
    },
    {
      "channel": 2,
      "note": 89,
      "start": 15.4008,
      "duration": 0.8665,
      "velocity": 99,
      "chip": "ym2612"
    },
    {
      "channel": 5,
      "note": 103,
      "start": 15.4015,
      "duration": 0.2165,
      "velocity": 99,
      "chip": "ym2612"
    },
    {
      "channel": 3,
      "note": 82,
      "start": 15.6175,
      "duration": 0.8832,
      "velocity": 99,
      "chip": "ym2612"
    },
    {
      "channel": 5,
      "note": 96,
      "start": 15.6181,
      "duration": 1.3165,
      "velocity": 99,
      "chip": "ym2612"
    },
    {
      "channel": 0,
      "note": 84,
      "start": 15.8341,
      "duration": 0.8831,
      "velocity": 99,
      "chip": "ym2612"
    },
    {
      "channel": 1,
      "note": 87,
      "start": 16.0507,
      "duration": 0.8832,
      "velocity": 99,
      "chip": "ym2612"
    },
    {
      "channel": 2,
      "note": 91,
      "start": 16.2675,
      "duration": 0.8831,
      "velocity": 99,
      "chip": "ym2612"
    },
    {
      "channel": 3,
      "note": 98,
      "start": 16.5009,
      "duration": 0.8665,
      "velocity": 99,
      "chip": "ym2612"
    },
    {
      "channel": 0,
      "note": 94,
      "start": 16.7173,
      "duration": 0.8832,
      "velocity": 99,
      "chip": "ym2612"
    },
    {
      "channel": 1,
      "note": 91,
      "start": 16.9341,
      "duration": 0.8832,
      "velocity": 99,
      "chip": "ym2612"
    },
    {
      "channel": 5,
      "note": 91,
      "start": 16.9348,
      "duration": 0.2165,
      "velocity": 99,
      "chip": "ym2612"
    },
    {
      "channel": 2,
      "note": 87,
      "start": 17.1508,
      "duration": 0.8831,
      "velocity": 99,
      "chip": "ym2612"
    },
    {
      "channel": 5,
      "note": 94,
      "start": 17.1515,
      "duration": 0.2165,
      "velocity": 99,
      "chip": "ym2612"
    },
    {
      "channel": 3,
      "note": 82,
      "start": 17.3675,
      "duration": 0.8832,
      "velocity": 99,
      "chip": "ym2612"
    },
    {
      "channel": 5,
      "note": 96,
      "start": 17.3681,
      "duration": 0.2331,
      "velocity": 99,
      "chip": "ym2612"
    },
    {
      "channel": 0,
      "note": 81,
      "start": 17.6007,
      "duration": 0.8665,
      "velocity": 99,
      "chip": "ym2612"
    },
    {
      "channel": 5,
      "note": 101,
      "start": 17.6015,
      "duration": 0.6498,
      "velocity": 99,
      "chip": "ym2612"
    },
    {
      "channel": 1,
      "note": 84,
      "start": 17.8174,
      "duration": 0.8832,
      "velocity": 99,
      "chip": "ym2612"
    },
    {
      "channel": 2,
      "note": 89,
      "start": 18.0341,
      "duration": 0.8832,
      "velocity": 99,
      "chip": "ym2612"
    },
    {
      "channel": 3,
      "note": 94,
      "start": 18.2509,
      "duration": 0.8832,
      "velocity": 99,
      "chip": "ym2612"
    },
    {
      "channel": 5,
      "note": 99,
      "start": 18.2515,
      "duration": 0.2165,
      "velocity": 99,
      "chip": "ym2612"
    },
    {
      "channel": 0,
      "note": 93,
      "start": 18.4674,
      "duration": 0.8831,
      "velocity": 99,
      "chip": "ym2612"
    },
    {
      "channel": 5,
      "note": 101,
      "start": 18.4681,
      "duration": 0.4498,
      "velocity": 99,
      "chip": "ym2612"
    },
    {
      "channel": 1,
      "note": 89,
      "start": 18.7007,
      "duration": 0.8665,
      "velocity": 99,
      "chip": "ym2612"
    },
    {
      "channel": 2,
      "note": 84,
      "start": 18.9175,
      "duration": 0.8831,
      "velocity": 99,
      "chip": "ym2612"
    },
    {
      "channel": 5,
      "note": 103,
      "start": 18.9181,
      "duration": 0.4331,
      "velocity": 99,
      "chip": "ym2612"
    },
    {
      "channel": 3,
      "note": 81,
      "start": 19.1342,
      "duration": 0.8832,
      "velocity": 99,
      "chip": "ym2612"
    },
    {
      "channel": 0,
      "note": 80,
      "start": 19.3507,
      "duration": 0.8831,
      "velocity": 99,
      "chip": "ym2612"
    },
    {
      "channel": 5,
      "note": 104,
      "start": 19.3515,
      "duration": 0.6665,
      "velocity": 99,
      "chip": "ym2612"
    },
    {
      "channel": 1,
      "note": 84,
      "start": 19.5674,
      "duration": 0.8831,
      "velocity": 99,
      "chip": "ym2612"
    },
    {
      "channel": 2,
      "note": 87,
      "start": 19.8008,
      "duration": 0.8665,
      "velocity": 99,
      "chip": "ym2612"
    },
    {
      "channel": 3,
      "note": 94,
      "start": 20.0175,
      "duration": 0.8832,
      "velocity": 99,
      "chip": "ym2612"
    },
    {
      "channel": 5,
      "note": 103,
      "start": 20.0181,
      "duration": 0.4331,
      "velocity": 99,
      "chip": "ym2612"
    },
    {
      "channel": 0,
      "note": 92,
      "start": 20.2341,
      "duration": 0.8831,
      "velocity": 99,
      "chip": "ym2612"
    },
    {
      "channel": 1,
      "note": 87,
      "start": 20.4507,
      "duration": 0.8831,
      "velocity": 99,
      "chip": "ym2612"
    },
    {
      "channel": 5,
      "note": 99,
      "start": 20.4515,
      "duration": 0.2165,
      "velocity": 99,
      "chip": "ym2612"
    },
    {
      "channel": 2,
      "note": 84,
      "start": 20.6675,
      "duration": 0.8831,
      "velocity": 99,
      "chip": "ym2612"
    },
    {
      "channel": 5,
      "note": 101,
      "start": 20.6681,
      "duration": 0.2331,
      "velocity": 99,
      "chip": "ym2612"
    },
    {
      "channel": 3,
      "note": 80,
      "start": 20.9009,
      "duration": 0.8665,
      "velocity": 99,
      "chip": "ym2612"
    },
    {
      "channel": 5,
      "note": 103,
      "start": 20.9015,
      "duration": 0.2165,
      "velocity": 99,
      "chip": "ym2612"
    },
    {
      "channel": 0,
      "note": 79,
      "start": 21.1174,
      "duration": 0.8831,
      "velocity": 99,
      "chip": "ym2612"
    },
    {
      "channel": 5,
      "note": 98,
      "start": 21.1181,
      "duration": 1.0998,
      "velocity": 99,
      "chip": "ym2612"
    },
    {
      "channel": 1,
      "note": 82,
      "start": 21.3341,
      "duration": 0.8832,
      "velocity": 99,
      "chip": "ym2612"
    },
    {
      "channel": 2,
      "note": 86,
      "start": 21.5507,
      "duration": 0.8833,
      "velocity": 99,
      "chip": "ym2612"
    },
    {
      "channel": 3,
      "note": 89,
      "start": 21.7675,
      "duration": 0.8832,
      "velocity": 99,
      "chip": "ym2612"
    },
    {
      "channel": 0,
      "note": 91,
      "start": 22.0007,
      "duration": 0.8665,
      "velocity": 99,
      "chip": "ym2612"
    },
    {
      "channel": 1,
      "note": 94,
      "start": 22.2174,
      "duration": 0.8832,
      "velocity": 99,
      "chip": "ym2612"
    },
    {
      "channel": 5,
      "note": 96,
      "start": 22.2181,
      "duration": 0.6498,
      "velocity": 99,
      "chip": "ym2612"
    },
    {
      "channel": 2,
      "note": 98,
      "start": 22.4341,
      "duration": 0.8831,
      "velocity": 99,
      "chip": "ym2612"
    },
    {
      "channel": 3,
      "note": 101,
      "start": 22.6509,
      "duration": 0.8832,
      "velocity": 99,
      "chip": "ym2612"
    },
    {
      "channel": 0,
      "note": 100,
      "start": 22.8673,
      "duration": 0.8832,
      "velocity": 99,
      "chip": "ym2612"
    },
    {
      "channel": 5,
      "note": 98,
      "start": 22.8681,
      "duration": 0.6665,
      "velocity": 99,
      "chip": "ym2612"
    },
    {
      "channel": 1,
      "note": 96,
      "start": 23.1007,
      "duration": 0.8665,
      "velocity": 99,
      "chip": "ym2612"
    },
    {
      "channel": 2,
      "note": 91,
      "start": 23.3174,
      "duration": 0.8832,
      "velocity": 99,
      "chip": "ym2612"
    },
    {
      "channel": 3,
      "note": 88,
      "start": 23.5342,
      "duration": 0.8832,
      "velocity": 99,
      "chip": "ym2612"
    },
    {
      "channel": 5,
      "note": 103,
      "start": 23.5348,
      "duration": 0.4331,
      "velocity": 99,
      "chip": "ym2612"
    },
    {
      "channel": 0,
      "note": 84,
      "start": 23.7507,
      "duration": 0.8832,
      "velocity": 99,
      "chip": "ym2612"
    },
    {
      "channel": 1,
      "note": 79,
      "start": 23.9674,
      "duration": 0.8832,
      "velocity": 99,
      "chip": "ym2612"
    },
    {
      "channel": 5,
      "note": 98,
      "start": 23.9681,
      "duration": 0.2331,
      "velocity": 99,
      "chip": "ym2612"
    },
    {
      "channel": 2,
      "note": 77,
      "start": 24.2008,
      "duration": 0.8665,
      "velocity": 99,
      "chip": "ym2612"
    },
    {
      "channel": 5,
      "note": 103,
      "start": 24.2015,
      "duration": 0.4331,
      "velocity": 99,
      "chip": "ym2612"
    },
    {
      "channel": 3,
      "note": 76,
      "start": 24.4175,
      "duration": 0.8832,
      "velocity": 99,
      "chip": "ym2612"
    },
    {
      "channel": 0,
      "note": 75,
      "start": 24.634,
      "duration": 0.8832,
      "velocity": 99,
      "chip": "ym2612"
    },
    {
      "channel": 5,
      "note": 99,
      "start": 24.6348,
      "duration": 0.6665,
      "velocity": 99,
      "chip": "ym2612"
    },
    {
      "channel": 1,
      "note": 79,
      "start": 24.8507,
      "duration": 0.8831,
      "velocity": 99,
      "chip": "ym2612"
    },
    {
      "channel": 2,
      "note": 82,
      "start": 25.0675,
      "duration": 0.8831,
      "velocity": 99,
      "chip": "ym2612"
    },
    {
      "channel": 3,
      "note": 87,
      "start": 25.3009,
      "duration": 0.8665,
      "velocity": 99,
      "chip": "ym2612"
    },
    {
      "channel": 5,
      "note": 101,
      "start": 25.3015,
      "duration": 1.0998,
      "velocity": 99,
      "chip": "ym2612"
    },
    {
      "channel": 0,
      "note": 77,
      "start": 25.5173,
      "duration": 0.8832,
      "velocity": 99,
      "chip": "ym2612"
    },
    {
      "channel": 1,
      "note": 81,
      "start": 25.7341,
      "duration": 0.8832,
      "velocity": 99,
      "chip": "ym2612"
    },
    {
      "channel": 2,
      "note": 84,
      "start": 25.9507,
      "duration": 0.8832,
      "velocity": 99,
      "chip": "ym2612"
    },
    {
      "channel": 3,
      "note": 89,
      "start": 26.1675,
      "duration": 0.8832,
      "velocity": 99,
      "chip": "ym2612"
    },
    {
      "channel": 0,
      "note": 78,
      "start": 26.4007,
      "duration": 0.8665,
      "velocity": 99,
      "chip": "ym2612"
    },
    {
      "channel": 5,
      "note": 102,
      "start": 26.4015,
      "duration": 0.6498,
      "velocity": 99,
      "chip": "ym2612"
    },
    {
      "channel": 1,
      "note": 81,
      "start": 26.6174,
      "duration": 0.8831,
      "velocity": 99,
      "chip": "ym2612"
    },
    {
      "channel": 2,
      "note": 84,
      "start": 26.8341,
      "duration": 0.8831,
      "velocity": 99,
      "chip": "ym2612"
    },
    {
      "channel": 3,
      "note": 90,
      "start": 27.0509,
      "duration": 0.8832,
      "velocity": 99,
      "chip": "ym2612"
    },
    {
      "channel": 5,
      "note": 103,
      "start": 27.0515,
      "duration": 0.6665,
      "velocity": 99,
      "chip": "ym2612"
    },
    {
      "channel": 0,
      "note": 93,
      "start": 27.2673,
      "duration": 0.8834,
      "velocity": 99,
      "chip": "ym2612"
    },
    {
      "channel": 1,
      "note": 98,
      "start": 27.5007,
      "duration": 0.86,
      "velocity": 99,
      "chip": "ym2612"
    },
    {
      "channel": 2,
      "note": 102,
      "start": 27.7175,
      "duration": 0.6433,
      "velocity": 99,
      "chip": "ym2612"
    },
    {
      "channel": 5,
      "note": 105,
      "start": 27.7181,
      "duration": 0.4334,
      "velocity": 99,
      "chip": "ym2612"
    },
    {
      "channel": 3,
      "note": 105,
      "start": 27.9343,
      "duration": 0.4265,
      "velocity": 99,
      "chip": "ym2612"
    },
    {
      "channel": 0,
      "note": 84,
      "start": 28.1509,
      "duration": 0.2099,
      "velocity": 99,
      "chip": "ym2612"
    },
    {
      "channel": 5,
      "note": 103,
      "start": 28.1517,
      "duration": 0.2091,
      "velocity": 99,
      "chip": "ym2612"
    }
  ]
}