{
  "track_name": "02 - Complete",
  "duration_sec": 200.222,
  "sample_rate": 44100,
  "note_count": 2648,
  "unique_pitches": 43,
  "pitch_range": 77,
  "avg_note_duration": 0.3577,
  "reconstruction_stats": {
    "notes_reconstructed": 2648,
    "keyon_events": 2648,
    "keyoff_events": 2643,
    "orphan_keyons": 5,
    "unique_pitches": 43,
    "pitch_range": 77,
    "avg_duration_sec": 0.3577
  },
  "metadata": {
    "source": "S\\Sub-Terrania\\02 - Complete.vgz"
  },
  "notes": [
    {
      "channel": 0,
      "note": -1,
      "start": 0.0,
      "duration": 0.0,
      "velocity": 1,
      "chip": "ym2612"
    },
    {
      "channel": 0,
      "note": 28,
      "start": 0.0,
      "duration": 3.1769,
      "velocity": 112,
      "chip": "ym2612"
    },
    {
      "channel": 1,
      "note": -1,
      "start": 0.0,
      "duration": 0.0,
      "velocity": 1,
      "chip": "ym2612"
    },
    {
      "channel": 2,
      "note": -1,
      "start": 0.0,
      "duration": 0.0,
      "velocity": 1,
      "chip": "ym2612"
    },
    {
      "channel": 3,
      "note": -1,
      "start": 0.0,
      "duration": 0.0,
      "velocity": 1,
      "chip": "ym2612"
    },
    {
      "channel": 4,
      "note": -1,
      "start": 0.0,
      "duration": 0.0,
      "velocity": 1,
      "chip": "ym2612"
    },
    {
      "channel": 5,
      "note": -1,
      "start": 0.0,
      "duration": 0.0,
      "velocity": 1,
      "chip": "ym2612"
    },
    {
      "channel": 1,
      "note": 31,
      "start": 0.0012,
      "duration": 3.1764,
      "velocity": 112,
      "chip": "ym2612"
    },
    {
      "channel": 2,
      "note": 33,
      "start": 0.0025,
      "duration": 0.0143,
      "velocity": 102,
      "chip": "ym2612"
    },
    {
      "channel": 3,
      "note": 21,
      "start": 0.0038,
      "duration": 3.1753,
      "velocity": 124,
      "chip": "ym2612"
    },
    {
      "channel": 4,
      "note": 35,
      "start": 0.0051,
      "duration": 3.1746,
      "velocity": 112,
      "chip": "ym2612"
    },
    {
      "channel": 5,
      "note": 35,
      "start": 0.1019,
      "duration": 0.0158,
      "velocity": 102,
      "chip": "ym2612"
    },
    {
      "channel": 2,
      "note": 36,
      "start": 0.199,
      "duration": 0.0165,
      "velocity": 102,
      "chip": "ym2612"
    },
    {
      "channel": 5,
      "note": 33,
      "start": 0.2999,
      "duration": 0.0164,
      "velocity": 102,
      "chip": "ym2612"
    },
    {
      "channel": 2,
      "note": 40,
      "start": 0.3977,
      "duration": 0.0164,
      "velocity": 102,
      "chip": "ym2612"
    },
    {
      "channel": 5,
      "note": 36,
      "start": 0.4986,
      "duration": 0.0164,
      "velocity": 102,
      "chip": "ym2612"
    },
    {
      "channel": 2,
      "note": 43,
      "start": 0.5963,
      "duration": 0.0164,
      "velocity": 102,
      "chip": "ym2612"
    },
    {
      "channel": 5,
      "note": 40,
      "start": 0.6972,
      "duration": 0.0164,
      "velocity": 102,
      "chip": "ym2612"
    },
    {
      "channel": 2,
      "note": 47,
      "start": 0.7949,
      "duration": 0.0164,
      "velocity": 102,
      "chip": "ym2612"
    },
    {
      "channel": 5,
      "note": 43,
      "start": 0.8958,
      "duration": 0.0164,
      "velocity": 102,
      "chip": "ym2612"
    },
    {
      "channel": 2,
      "note": 48,
      "start": 0.9935,
      "duration": 0.0164,
      "velocity": 102,
      "chip": "ym2612"
    },
    {
      "channel": 5,
      "note": 47,
      "start": 1.0944,
      "duration": 0.0164,
      "velocity": 102,
      "chip": "ym2612"
    },
    {
      "channel": 2,
      "note": 47,
      "start": 1.1922,
      "duration": 0.0164,
      "velocity": 102,
      "chip": "ym2612"
    },
    {
      "channel": 5,
      "note": 48,
      "start": 1.2931,
      "duration": 0.0164,
      "velocity": 102,
      "chip": "ym2612"
    },
    {
      "channel": 2,
      "note": 45,
      "start": 1.3909,
      "duration": 0.0164,
      "velocity": 102,
      "chip": "ym2612"
    },
    {
      "channel": 5,
      "note": 47,
      "start": 1.4918,
      "duration": 0.0164,
      "velocity": 102,
      "chip": "ym2612"
    },
    {
      "channel": 2,
      "note": 43,
      "start": 1.5895,
      "duration": 0.0164,
      "velocity": 102,
      "chip": "ym2612"
    },
    {
      "channel": 5,
      "note": 45,
      "start": 1.6904,
      "duration": 0.0164,
      "velocity": 102,
      "chip": "ym2612"
    },
    {
      "channel": 2,
      "note": 45,
      "start": 1.7881,
      "duration": 0.0164,
      "velocity": 102,
      "chip": "ym2612"
    },
    {
      "channel": 5,
      "note": 43,
      "start": 1.889,
      "duration": 0.0164,
      "velocity": 102,
      "chip": "ym2612"
    },
    {
      "channel": 2,
      "note": 43,
      "start": 1.9867,
      "duration": 0.0164,
      "velocity": 102,
      "chip": "ym2612"
    },
    {
      "channel": 5,
      "note": 45,
      "start": 2.0876,
      "duration": 0.0164,
      "velocity": 102,
      "chip": "ym2612"
    },
    {
      "channel": 2,
      "note": 40,
      "start": 2.1854,
      "duration": 0.0164,
      "velocity": 102,
      "chip": "ym2612"
    },
    {
      "channel": 5,
      "note": 43,
      "start": 2.2862,
      "duration": 0.0164,
      "velocity": 102,
      "chip": "ym2612"
    },
    {
      "channel": 2,
      "note": 36,
      "start": 2.384,
      "duration": 0.0164,
      "velocity": 102,
      "chip": "ym2612"
    },
    {
      "channel": 5,
      "note": 40,
      "start": 2.4848,
      "duration": 0.0164,
      "velocity": 102,
      "chip": "ym2612"
    },
    {
      "channel": 2,
      "note": 40,
      "start": 2.5826,
      "duration": 0.0164,
      "velocity": 102,
      "chip": "ym2612"
    },
    {
      "channel": 5,
      "note": 36,
      "start": 2.6835,
      "duration": 0.0164,
      "velocity": 102,
      "chip": "ym2612"
    },
    {
      "channel": 2,
      "note": 36,
      "start": 2.7812,
      "duration": 0.0165,
      "velocity": 102,
      "chip": "ym2612"
    },
    {
      "channel": 5,
      "note": 40,
      "start": 2.8821,
      "duration": 0.0164,
      "velocity": 102,
      "chip": "ym2612"
    },
    {
      "channel": 2,
      "note": 35,
      "start": 2.9799,
      "duration": 0.0164,
      "velocity": 102,
      "chip": "ym2612"
    },
    {
      "channel": 5,
      "note": 36,
      "start": 3.0808,
      "duration": 0.0164,
      "velocity": 102,
      "chip": "ym2612"
    },
    {
      "channel": 0,
      "note": 17,
      "start": 3.1775,
      "duration": 3.1775,
      "velocity": 112,
      "chip": "ym2612"
    },
    {
      "channel": 1,
      "note": 33,
      "start": 3.1782,
      "duration": 3.1775,
      "velocity": 112,
      "chip": "ym2612"
    },
    {
      "channel": 2,
      "note": 33,
      "start": 3.1789,
      "duration": 0.016,
      "velocity": 102,
      "chip": "ym2612"
    },
    {
      "channel": 3,
      "note": 26,
      "start": 3.1795,
      "duration": 3.1776,
      "velocity": 124,
      "chip": "ym2612"
    },
    {
      "channel": 4,
      "note": 36,
      "start": 3.1802,
      "duration": 3.1776,
      "velocity": 112,
      "chip": "ym2612"
    },
    {
      "channel": 5,
      "note": 35,
      "start": 3.2794,
      "duration": 0.0164,
      "velocity": 102,
      "chip": "ym2612"
    },
    {
      "channel": 2,
      "note": 36,
      "start": 3.3771,
      "duration": 0.0164,
      "velocity": 102,
      "chip": "ym2612"
    },
    {
      "channel": 5,
      "note": 33,
      "start": 3.478,
      "duration": 0.0164,
      "velocity": 102,
      "chip": "ym2612"
    },
    {
      "channel": 2,
      "note": 40,
      "start": 3.5757,
      "duration": 0.0164,
      "velocity": 102,
      "chip": "ym2612"
    },
    {
      "channel": 5,
      "note": 36,
      "start": 3.6766,
      "duration": 0.0164,
      "velocity": 102,
      "chip": "ym2612"
    },
    {
      "channel": 2,
      "note": 43,
      "start": 3.7745,
      "duration": 0.0164,
      "velocity": 102,
      "chip": "ym2612"
    },
    {
      "channel": 5,
      "note": 40,
      "start": 3.8753,
      "duration": 0.0164,
      "velocity": 102,
      "chip": "ym2612"
    },
    {
      "channel": 2,
      "note": 47,
      "start": 3.9731,
      "duration": 0.0164,
      "velocity": 102,
      "chip": "ym2612"
    },
    {
      "channel": 5,
      "note": 43,
      "start": 4.0739,
      "duration": 0.0164,
      "velocity": 102,
      "chip": "ym2612"
    },
    {
      "channel": 2,
      "note": 48,
      "start": 4.1717,
      "duration": 0.0164,
      "velocity": 102,
      "chip": "ym2612"
    },
    {
      "channel": 5,
      "note": 47,
      "start": 4.2725,
      "duration": 0.0164,
      "velocity": 102,
      "chip": "ym2612"
    },
    {
      "channel": 2,
      "note": 47,
      "start": 4.3703,
      "duration": 0.0164,
      "velocity": 102,
      "chip": "ym2612"
    },
    {
      "channel": 5,
      "note": 48,
      "start": 4.4712,
      "duration": 0.0164,
      "velocity": 102,
      "chip": "ym2612"
    },
    {
      "channel": 2,
      "note": 45,
      "start": 4.5689,
      "duration": 0.0164,
      "velocity": 102,
      "chip": "ym2612"
    },
    {
      "channel": 5,
      "note": 47,
      "start": 4.6698,
      "duration": 0.0164,
      "velocity": 102,
      "chip": "ym2612"
    },
    {
      "channel": 2,
      "note": 43,
      "start": 4.7675,
      "duration": 0.0164,
      "velocity": 102,
      "chip": "ym2612"
    },
    {
      "channel": 5,
      "note": 45,
      "start": 4.8684,
      "duration": 0.0164,
      "velocity": 102,
      "chip": "ym2612"
    },
    {
      "channel": 2,
      "note": 45,
      "start": 4.9662,
      "duration": 0.0164,
      "velocity": 102,
      "chip": "ym2612"
    },
    {
      "channel": 5,
      "note": 43,
      "start": 5.067,
      "duration": 0.0164,
      "velocity": 102,
      "chip": "ym2612"
    },
    {
      "channel": 2,
      "note": 43,
      "start": 5.1648,
      "duration": 0.0164,
      "velocity": 102,
      "chip": "ym2612"
    },
    {
      "channel": 5,
      "note": 45,
      "start": 5.2657,
      "duration": 0.0164,
      "velocity": 102,
      "chip": "ym2612"
    },
    {
      "channel": 2,
      "note": 40,
      "start": 5.3635,
      "duration": 0.0164,
      "velocity": 102,
      "chip": "ym2612"
    },
    {
      "channel": 5,
      "note": 43,
      "start": 5.4643,
      "duration": 0.0164,
      "velocity": 102,
      "chip": "ym2612"
    },
    {
      "channel": 2,
      "note": 36,
      "start": 5.5621,
      "duration": 0.0164,
      "velocity": 102,
      "chip": "ym2612"
    },
    {
      "channel": 5,
      "note": 40,
      "start": 5.6629,
      "duration": 0.0164,
      "velocity": 102,
      "chip": "ym2612"
    },
    {
      "channel": 2,
      "note": 40,
      "start": 5.7607,
      "duration": 0.0165,
      "velocity": 102,
      "chip": "ym2612"
    },
    {
      "channel": 5,
      "note": 36,
      "start": 5.8615,
      "duration": 0.0164,
      "velocity": 102,
      "chip": "ym2612"
    },
    {
      "channel": 2,
      "note": 36,
      "start": 5.9593,
      "duration": 0.0164,
      "velocity": 102,
      "chip": "ym2612"
    },
    {
      "channel": 5,
      "note": 40,
      "start": 6.0602,
      "duration": 0.0164,
      "velocity": 102,
      "chip": "ym2612"
    },
    {
      "channel": 2,
      "note": 35,
      "start": 6.158,
      "duration": 0.0164,
      "velocity": 102,
      "chip": "ym2612"
    },
    {
      "channel": 5,
      "note": 36,
      "start": 6.2589,
      "duration": 0.0164,
      "velocity": 102,
      "chip": "ym2612"
    },
    {
      "channel": 0,
      "note": 31,
      "start": 6.3556,
      "duration": 3.1775,
      "velocity": 112,
      "chip": "ym2612"
    },
    {
      "channel": 1,
      "note": 35,
      "start": 6.3563,
      "duration": 3.1775,
      "velocity": 112,
      "chip": "ym2612"
    },
    {
      "channel": 2,
      "note": 33,
      "start": 6.357,
      "duration": 0.016,
      "velocity": 102,
      "chip": "ym2612"
    },
    {
      "channel": 3,
      "note": 28,
      "start": 6.3577,
      "duration": 3.1776,
      "velocity": 124,
      "chip": "ym2612"
    },
    {
      "channel": 4,
      "note": 38,
      "start": 6.3584,
      "duration": 3.1775,
      "velocity": 112,
      "chip": "ym2612"
    },
    {
      "channel": 5,
      "note": 35,
      "start": 6.4575,
      "duration": 0.0164,
      "velocity": 102,
      "chip": "ym2612"
    },
    {
      "channel": 2,
      "note": 36,
      "start": 6.5552,
      "duration": 0.0164,
      "velocity": 102,
      "chip": "ym2612"
    },
    {
      "channel": 5,
      "note": 33,
      "start": 6.6561,
      "duration": 0.0163,
      "velocity": 102,
      "chip": "ym2612"
    },
    {
      "channel": 2,
      "note": 40,
      "start": 6.7539,
      "duration": 0.0164,
      "velocity": 102,
      "chip": "ym2612"
    },
    {
      "channel": 5,
      "note": 36,
      "start": 6.8547,
      "duration": 0.0164,
      "velocity": 102,
      "chip": "ym2612"
    },
    {
      "channel": 2,
      "note": 43,
      "start": 6.9524,
      "duration": 0.0164,
      "velocity": 102,
      "chip": "ym2612"
    },
    {
      "channel": 5,
      "note": 40,
      "start": 7.0533,
      "duration": 0.0164,
      "velocity": 102,
      "chip": "ym2612"
    },
    {
      "channel": 2,
      "note": 47,
      "start": 7.1511,
      "duration": 0.0164,
      "velocity": 102,
      "chip": "ym2612"
    },
    {
      "channel": 5,
      "note": 43,
      "start": 7.252,
      "duration": 0.0165,
      "velocity": 102,
      "chip": "ym2612"
    },
    {
      "channel": 2,
      "note": 48,
      "start": 7.3497,
      "duration": 0.0164,
      "velocity": 102,
      "chip": "ym2612"
    },
    {
      "channel": 5,
      "note": 47,
      "start": 7.4506,
      "duration": 0.0164,
      "velocity": 102,
      "chip": "ym2612"
    },
    {
      "channel": 2,
      "note": 47,
      "start": 7.5484,
      "duration": 0.0164,
      "velocity": 102,
      "chip": "ym2612"
    },
    {
      "channel": 5,
      "note": 48,
      "start": 7.6492,
      "duration": 0.0164,
      "velocity": 102,
      "chip": "ym2612"
    },
    {
      "channel": 2,
      "note": 45,
      "start": 7.747,
      "duration": 0.0164,
      "velocity": 102,
      "chip": "ym2612"
    },
    {
      "channel": 5,
      "note": 47,
      "start": 7.8479,
      "duration": 0.0164,
      "velocity": 102,
      "chip": "ym2612"
    },
    {
      "channel": 2,
      "note": 43,
      "start": 7.9456,
      "duration": 0.0164,
      "velocity": 102,
      "chip": "ym2612"
    },
    {
      "channel": 5,
      "note": 45,
      "start": 8.0465,
      "duration": 0.0164,
      "velocity": 102,
      "chip": "ym2612"
    },
    {
      "channel": 2,
      "note": 45,
      "start": 8.1442,
      "duration": 0.0164,
      "velocity": 102,
      "chip": "ym2612"
    },
    {
      "channel": 5,
      "note": 43,
      "start": 8.2451,
      "duration": 0.0164,
      "velocity": 102,
      "chip": "ym2612"
    },
    {
      "channel": 2,
      "note": 43,
      "start": 8.3429,
      "duration": 0.0165,
      "velocity": 102,
      "chip": "ym2612"
    },
    {
      "channel": 5,
      "note": 45,
      "start": 8.4437,
      "duration": 0.0164,
      "velocity": 102,
      "chip": "ym2612"
    },
    {
      "channel": 2,
      "note": 40,
      "start": 8.5415,
      "duration": 0.0165,
      "velocity": 102,
      "chip": "ym2612"
    },
    {
      "channel": 5,
      "note": 43,
      "start": 8.6424,
      "duration": 0.0164,
      "velocity": 102,
      "chip": "ym2612"
    },
    {
      "channel": 2,
      "note": 36,
      "start": 8.7402,
      "duration": 0.0164,
      "velocity": 102,
      "chip": "ym2612"
    },
    {
      "channel": 5,
      "note": 40,
      "start": 8.8411,
      "duration": 0.0164,
      "velocity": 102,
      "chip": "ym2612"
    },
    {
      "channel": 2,
      "note": 40,
      "start": 8.9388,
      "duration": 0.0164,
      "velocity": 102,
      "chip": "ym2612"
    },
    {
      "channel": 5,
      "note": 36,
      "start": 9.0397,
      "duration": 0.0164,
      "velocity": 102,
      "chip": "ym2612"
    },
    {
      "channel": 2,
      "note": 36,
      "start": 9.1374,
      "duration": 0.0164,
      "velocity": 102,
      "chip": "ym2612"
    },
    {
      "channel": 5,
      "note": 40,
      "start": 9.2383,
      "duration": 0.0164,
      "velocity": 102,
      "chip": "ym2612"
    },
    {
      "channel": 2,
      "note": 35,
      "start": 9.336,
      "duration": 0.0164,
      "velocity": 102,
      "chip": "ym2612"
    },
    {
      "channel": 5,
      "note": 36,
      "start": 9.4369,
      "duration": 0.0164,
      "velocity": 102,
      "chip": "ym2612"
    },
    {
      "channel": 0,
      "note": 29,
      "start": 9.5336,
      "duration": 3.0952,
      "velocity": 112,
      "chip": "ym2612"
    },
    {
      "channel": 1,
      "note": 33,
      "start": 9.5343,
      "duration": 3.095,
      "velocity": 112,
      "chip": "ym2612"
    },
    {
      "channel": 2,
      "note": 33,
      "start": 9.535,
      "duration": 0.016,
      "velocity": 102,
      "chip": "ym2612"
    },
    {
      "channel": 3,
      "note": 29,
      "start": 9.5357,
      "duration": 3.1782,
      "velocity": 124,
      "chip": "ym2612"
    },
    {
      "channel": 4,
      "note": 36,
      "start": 9.5364,
      "duration": 3.1787,
      "velocity": 112,
      "chip": "ym2612"
    },
    {
      "channel": 5,
      "note": 35,
      "start": 9.6355,
      "duration": 0.0164,
      "velocity": 102,
      "chip": "ym2612"
    },
    {
      "channel": 2,
      "note": 36,
      "start": 9.7333,
      "duration": 0.0164,
      "velocity": 102,
      "chip": "ym2612"
    },
    {
      "channel": 5,
      "note": 33,
      "start": 9.8341,
      "duration": 0.0165,
      "velocity": 102,
      "chip": "ym2612"
    },
    {
      "channel": 2,
      "note": 40,
      "start": 9.9319,
      "duration": 0.0164,
      "velocity": 102,
      "chip": "ym2612"
    },
    {
      "channel": 5,
      "note": 36,
      "start": 10.0328,
      "duration": 0.0164,
      "velocity": 102,
      "chip": "ym2612"
    },
    {
      "channel": 2,
      "note": 43,
      "start": 10.1306,
      "duration": 0.0164,
      "velocity": 102,
      "chip": "ym2612"
    },
    {
      "channel": 5,
      "note": 40,
      "start": 10.2314,
      "duration": 0.0164,
      "velocity": 102,
      "chip": "ym2612"
    },
    {
      "channel": 2,
      "note": 47,
      "start": 10.3292,
      "duration": 0.0164,
      "velocity": 102,
      "chip": "ym2612"
    },
    {
      "channel": 5,
      "note": 43,
      "start": 10.4301,
      "duration": 0.0164,
      "velocity": 102,
      "chip": "ym2612"
    },
    {
      "channel": 2,
      "note": 48,
      "start": 10.5278,
      "duration": 0.0164,
      "velocity": 102,
      "chip": "ym2612"
    },
    {
      "channel": 5,
      "note": 47,
      "start": 10.6287,
      "duration": 0.0164,
      "velocity": 102,
      "chip": "ym2612"
    },
    {
      "channel": 2,
      "note": 47,
      "start": 10.7264,
      "duration": 0.0164,
      "velocity": 102,
      "chip": "ym2612"
    },
    {
      "channel": 5,
      "note": 48,
      "start": 10.8273,
      "duration": 0.0164,
      "velocity": 102,
      "chip": "ym2612"
    },
    {
      "channel": 2,
      "note": 45,
      "start": 10.9251,
      "duration": 0.0164,
      "velocity": 102,
      "chip": "ym2612"
    },
    {
      "channel": 5,
      "note": 47,
      "start": 11.026,
      "duration": 0.0164,
      "velocity": 102,
      "chip": "ym2612"
    },
    {
      "channel": 2,
      "note": 43,
      "start": 11.1238,
      "duration": 0.0164,
      "velocity": 102,
      "chip": "ym2612"
    },
    {
      "channel": 5,
      "note": 45,
      "start": 11.2246,
      "duration": 0.0164,
      "velocity": 102,
      "chip": "ym2612"
    },
    {
      "channel": 2,
      "note": 45,
      "start": 11.3223,
      "duration": 0.0164,
      "velocity": 102,
      "chip": "ym2612"
    },
    {
      "channel": 5,
      "note": 43,
      "start": 11.4233,
      "duration": 0.0164,
      "velocity": 102,
      "chip": "ym2612"
    },
    {
      "channel": 2,
      "note": 43,
      "start": 11.521,
      "duration": 0.0164,
      "velocity": 102,
      "chip": "ym2612"
    },
    {
      "channel": 5,
      "note": 45,
      "start": 11.6219,
      "duration": 0.0164,
      "velocity": 102,
      "chip": "ym2612"
    },
    {
      "channel": 2,
      "note": 40,
      "start": 11.7196,
      "duration": 0.0164,
      "velocity": 102,
      "chip": "ym2612"
    },
    {
      "channel": 5,
      "note": 43,
      "start": 11.8205,
      "duration": 0.0164,
      "velocity": 102,
      "chip": "ym2612"
    },
    {
      "channel": 2,
      "note": 36,
      "start": 11.9182,
      "duration": 0.0164,
      "velocity": 102,
      "chip": "ym2612"
    },
    {
      "channel": 5,
      "note": 40,
      "start": 12.0191,
      "duration": 0.0164,
      "velocity": 102,
      "chip": "ym2612"
    },
    {
      "channel": 2,
      "note": 40,
      "start": 12.1168,
      "duration": 0.0164,
      "velocity": 102,
      "chip": "ym2612"
    },
    {
      "channel": 5,
      "note": 36,
      "start": 12.2177,
      "duration": 0.0164,
      "velocity": 102,
      "chip": "ym2612"
    },
    {
      "channel": 2,
      "note": 36,
      "start": 12.3155,
      "duration": 0.0164,
      "velocity": 102,
      "chip": "ym2612"
    },
    {
      "channel": 5,
      "note": 40,
      "start": 12.4164,
      "duration": 0.0164,
      "velocity": 102,
      "chip": "ym2612"
    },
    {
      "channel": 2,
      "note": 35,
      "start": 12.5141,
      "duration": 0.0164,
      "velocity": 102,
      "chip": "ym2612"
    },
    {
      "channel": 5,
      "note": 36,
      "start": 12.615,
      "duration": 0.0165,
      "velocity": 102,
      "chip": "ym2612"
    },
    {
      "channel": 0,
      "note": 53,
      "start": 12.7124,
      "duration": 2.3823,
      "velocity": 88,
      "chip": "ym2612"
    },
    {
      "channel": 1,
      "note": 31,
      "start": 12.7131,
      "duration": 3.177,
      "velocity": 112,
      "chip": "ym2612"
    },
    {
      "channel": 2,
      "note": 33,
      "start": 12.7138,
      "duration": 0.0154,
      "velocity": 102,
      "chip": "ym2612"
    },
    {
      "channel": 3,
      "note": 7,
      "start": 12.715,
      "duration": 0.1471,
      "velocity": 127,
      "chip": "ym2612"
    },
    {
      "channel": 4,
      "note": 28,
      "start": 12.7162,
      "duration": 3.1765,
      "velocity": 124,
      "chip": "ym2612"
    },
    {
      "channel": 2,
      "note": 35,
      "start": 12.8121,
      "duration": 0.0164,
      "velocity": 98,
      "chip": "ym2612"
    },
    {
      "channel": 2,
      "note": 36,
      "start": 12.9115,
      "duration": 0.0164,
      "velocity": 102,
      "chip": "ym2612"
    },
    {
      "channel": 3,
      "note": 55,
      "start": 12.9126,
      "duration": 0.1482,
      "velocity": 120,
      "chip": "ym2612"
    },
    {
      "channel": 2,
      "note": 33,
      "start": 13.0108,
      "duration": 0.0164,
      "velocity": 98,
      "chip": "ym2612"
    },
    {
      "channel": 5,
      "note": 53,
      "start": 13.0131,
      "duration": 2.3826,
      "velocity": 88,
      "chip": "ym2612"
    },
    {
      "channel": 2,
      "note": 40,
      "start": 13.1101,
      "duration": 0.0164,
      "velocity": 102,
      "chip": "ym2612"
    },
    {
      "channel": 3,
      "note": 55,
      "start": 13.1107,
      "duration": 0.1487,
      "velocity": 120,
      "chip": "ym2612"
    },
    {
      "channel": 2,
      "note": 36,
      "start": 13.2094,
      "duration": 0.0164,
      "velocity": 98,
      "chip": "ym2612"
    },
    {
      "channel": 2,
      "note": 43,
      "start": 13.3087,
      "duration": 0.0164,
      "velocity": 102,
      "chip": "ym2612"
    },
    {
      "channel": 3,
      "note": 55,
      "start": 13.3093,
      "duration": 0.1487,
      "velocity": 120,
      "chip": "ym2612"
    },
    {
      "channel": 2,
      "note": 40,
      "start": 13.408,
      "duration": 0.0164,
      "velocity": 98,
      "chip": "ym2612"
    },
    {
      "channel": 2,
      "note": 47,
      "start": 13.5074,
      "duration": 0.0164,
      "velocity": 102,
      "chip": "ym2612"
    },
    {
      "channel": 3,
      "note": 74,
      "start": 13.508,
      "duration": 0.1487,
      "velocity": 120,
      "chip": "ym2612"
    },
    {
      "channel": 2,
      "note": 43,
      "start": 13.6067,
      "duration": 0.0164,
      "velocity": 98,
      "chip": "ym2612"
    },
    {
      "channel": 2,
      "note": 48,
      "start": 13.706,
      "duration": 0.0164,
      "velocity": 102,
      "chip": "ym2612"
    },
    {
      "channel": 3,
      "note": 55,
      "start": 13.7066,
      "duration": 0.1486,
      "velocity": 120,
      "chip": "ym2612"
    },
    {
      "channel": 2,
      "note": 47,
      "start": 13.8053,
      "duration": 0.0164,
      "velocity": 98,
      "chip": "ym2612"
    },
    {
      "channel": 2,
      "note": 47,
      "start": 13.9046,
      "duration": 0.0164,
      "velocity": 102,
      "chip": "ym2612"
    },
    {
      "channel": 3,
      "note": 7,
      "start": 13.9058,
      "duration": 0.1482,
      "velocity": 127,
      "chip": "ym2612"
    },
    {
      "channel": 2,
      "note": 48,
      "start": 14.0039,
      "duration": 0.0164,
      "velocity": 98,
      "chip": "ym2612"
    },
    {
      "channel": 2,
      "note": 45,
      "start": 14.1032,
      "duration": 0.0164,
      "velocity": 102,
      "chip": "ym2612"
    },
    {
      "channel": 3,
      "note": 55,
      "start": 14.1044,
      "duration": 0.1481,
      "velocity": 120,
      "chip": "ym2612"
    },
    {
      "channel": 2,
      "note": 47,
      "start": 14.2025,
      "duration": 0.0164,
      "velocity": 98,
      "chip": "ym2612"
    },
    {
      "channel": 2,
      "note": 43,
      "start": 14.3018,
      "duration": 0.0165,
      "velocity": 102,
      "chip": "ym2612"
    },
    {
      "channel": 3,
      "note": 7,
      "start": 14.303,
      "duration": 0.1482,
      "velocity": 127,
      "chip": "ym2612"
    },
    {
      "channel": 2,
      "note": 45,
      "start": 14.4012,
      "duration": 0.0164,
      "velocity": 98,
      "chip": "ym2612"
    },
    {
      "channel": 2,
      "note": 45,
      "start": 14.5005,
      "duration": 0.0164,
      "velocity": 102,
      "chip": "ym2612"
    },
    {
      "channel": 3,
      "note": 55,
      "start": 14.5017,
      "duration": 0.1481,
      "velocity": 120,
      "chip": "ym2612"
    },
    {
      "channel": 2,
      "note": 43,
      "start": 14.5998,
      "duration": 0.0164,
      "velocity": 98,
      "chip": "ym2612"
    },
    {
      "channel": 2,
      "note": 43,
      "start": 14.6991,
      "duration": 0.0165,
      "velocity": 102,
      "chip": "ym2612"
    },
    {
      "channel": 3,
      "note": 55,
      "start": 14.6997,
      "duration": 0.1487,
      "velocity": 120,
      "chip": "ym2612"
    },
    {
      "channel": 2,
      "note": 45,
      "start": 14.7984,
      "duration": 0.0164,
      "velocity": 98,
      "chip": "ym2612"
    },
    {
      "channel": 2,
      "note": 40,
      "start": 14.8978,
      "duration": 0.0164,
      "velocity": 102,
      "chip": "ym2612"
    },
    {
      "channel": 3,
      "note": 55,
      "start": 14.8984,
      "duration": 0.1487,
      "velocity": 120,
      "chip": "ym2612"
    },
    {
      "channel": 2,
      "note": 43,
      "start": 14.9971,
      "duration": 0.0164,
      "velocity": 98,
      "chip": "ym2612"
    },
    {
      "channel": 0,
      "note": 55,
      "start": 15.0953,
      "duration": 0.0987,
      "velocity": 88,
      "chip": "ym2612"
    },
    {
      "channel": 2,
      "note": 36,
      "start": 15.0965,
      "duration": 0.0163,
      "velocity": 102,
      "chip": "ym2612"
    },
    {
      "channel": 3,
      "note": 74,
      "start": 15.0972,
      "duration": 0.1485,
      "velocity": 120,
      "chip": "ym2612"
    },
    {
      "channel": 0,
      "note": 53,
      "start": 15.1946,
      "duration": 0.0987,
      "velocity": 88,
      "chip": "ym2612"
    },
    {
      "channel": 2,
      "note": 40,
      "start": 15.1958,
      "duration": 0.0163,
      "velocity": 98,
      "chip": "ym2612"
    },
    {
      "channel": 0,
      "note": 55,
      "start": 15.294,
      "duration": 0.0987,
      "velocity": 88,
      "chip": "ym2612"
    },
    {
      "channel": 2,
      "note": 40,
      "start": 15.2952,
      "duration": 0.0162,
      "velocity": 102,
      "chip": "ym2612"
    },
    {
      "channel": 3,
      "note": 55,
      "start": 15.2958,
      "duration": 0.1485,
      "velocity": 120,
      "chip": "ym2612"
    },
    {
      "channel": 0,
      "note": 57,
      "start": 15.3933,
      "duration": 0.0987,
      "velocity": 88,
      "chip": "ym2612"
    },
    {
      "channel": 2,
      "note": 36,
      "start": 15.3945,
      "duration": 0.0162,
      "velocity": 98,
      "chip": "ym2612"
    },
    {
      "channel": 5,
      "note": 55,
      "start": 15.3963,
      "duration": 0.0994,
      "velocity": 88,
      "chip": "ym2612"
    },
    {
      "channel": 0,
      "note": 55,
      "start": 15.4926,
      "duration": 0.0987,
      "velocity": 88,
      "chip": "ym2612"
    },
    {
      "channel": 2,
      "note": 36,
      "start": 15.4938,
      "duration": 0.0163,
      "velocity": 98,
      "chip": "ym2612"
    },
    {
      "channel": 3,
      "note": 7,
      "start": 15.495,
      "duration": 0.148,
      "velocity": 127,
      "chip": "ym2612"
    },
    {
      "channel": 5,
      "note": 53,
      "start": 15.4963,
      "duration": 0.0979,
      "velocity": 88,
      "chip": "ym2612"
    },
    {
      "channel": 0,
      "note": 57,
      "start": 15.5919,
      "duration": 0.0987,
      "velocity": 88,
      "chip": "ym2612"
    },
    {
      "channel": 2,
      "note": 40,
      "start": 15.5931,
      "duration": 0.0163,
      "velocity": 98,
      "chip": "ym2612"
    },
    {
      "channel": 5,
      "note": 55,
      "start": 15.5949,
      "duration": 0.0994,
      "velocity": 88,
      "chip": "ym2612"
    },
    {
      "channel": 0,
      "note": 58,
      "start": 15.6912,
      "duration": 0.0987,
      "velocity": 88,
      "chip": "ym2612"
    },
    {
      "channel": 2,
      "note": 35,
      "start": 15.6925,
      "duration": 0.0162,
      "velocity": 102,
      "chip": "ym2612"
    },
    {
      "channel": 3,
      "note": 55,
      "start": 15.6937,
      "duration": 0.148,
      "velocity": 120,
      "chip": "ym2612"
    },
    {
      "channel": 5,
      "note": 57,
      "start": 15.6949,
      "duration": 0.098,
      "velocity": 88,
      "chip": "ym2612"
    },
    {
      "channel": 0,
      "note": 60,
      "start": 15.7906,
      "duration": 0.0987,
      "velocity": 88,
      "chip": "ym2612"
    },
    {
      "channel": 2,
      "note": 36,
      "start": 15.7918,
      "duration": 0.0163,
      "velocity": 98,
      "chip": "ym2612"
    },
    {
      "channel": 5,
      "note": 55,
      "start": 15.7935,
      "duration": 0.0998,
      "velocity": 88,
      "chip": "ym2612"
    },
    {
      "channel": 0,
      "note": 55,
      "start": 15.8899,
      "duration": 3.1773,
      "velocity": 88,
      "chip": "ym2612"
    },
    {
      "channel": 1,
      "note": 33,
      "start": 15.8906,
      "duration": 3.1779,
      "velocity": 112,
      "chip": "ym2612"
    },
    {
      "channel": 2,
      "note": 33,
      "start": 15.8913,
      "duration": 0.016,
      "velocity": 102,
      "chip": "ym2612"
    },
    {
      "channel": 3,
      "note": 7,
      "start": 15.8925,
      "duration": 0.1477,
      "velocity": 127,
      "chip": "ym2612"
    },
    {
      "channel": 4,
      "note": 29,
      "start": 15.8932,
      "duration": 3.1785,
      "velocity": 124,
      "chip": "ym2612"
    },
    {
      "channel": 5,
      "note": 57,
      "start": 15.8939,
      "duration": 0.0975,
      "velocity": 88,
      "chip": "ym2612"
    },
    {
      "channel": 2,
      "note": 35,
      "start": 15.9902,
      "duration": 0.0165,
      "velocity": 98,
      "chip": "ym2612"
    },
    {
      "channel": 5,
      "note": 58,
      "start": 15.992,
      "duration": 0.0994,
      "velocity": 88,
      "chip": "ym2612"
    },
    {
      "channel": 2,
      "note": 36,
      "start": 16.0896,
      "duration": 0.0163,
      "velocity": 102,
      "chip": "ym2612"
    },
    {
      "channel": 3,
      "note": 55,
      "start": 16.0908,
      "duration": 0.148,
      "velocity": 120,
      "chip": "ym2612"
    },
    {
      "channel": 5,
      "note": 60,
      "start": 16.0921,
      "duration": 0.0979,
      "velocity": 88,
      "chip": "ym2612"
    },
    {
      "channel": 2,
      "note": 33,
      "start": 16.1888,
      "duration": 0.0164,
      "velocity": 98,
      "chip": "ym2612"
    },
    {
      "channel": 5,
      "note": 55,
      "start": 16.1906,
      "duration": 3.1773,
      "velocity": 88,
      "chip": "ym2612"
    },
    {
      "channel": 2,
      "note": 40,
      "start": 16.2881,
      "duration": 0.0164,
      "velocity": 102,
      "chip": "ym2612"
    },
    {
      "channel": 3,
      "note": 55,
      "start": 16.2888,
      "duration": 0.1487,
      "velocity": 120,
      "chip": "ym2612"
    },
    {
      "channel": 2,
      "note": 36,
      "start": 16.3874,
      "duration": 0.0165,
      "velocity": 98,
      "chip": "ym2612"
    },
    {
      "channel": 2,
      "note": 43,
      "start": 16.4868,
      "duration": 0.0164,
      "velocity": 102,
      "chip": "ym2612"
    },
    {
      "channel": 3,
      "note": 55,
      "start": 16.4874,
      "duration": 0.1487,
      "velocity": 120,
      "chip": "ym2612"
    },
    {
      "channel": 2,
      "note": 40,
      "start": 16.5861,
      "duration": 0.0164,
      "velocity": 98,
      "chip": "ym2612"
    },
    {
      "channel": 2,
      "note": 47,
      "start": 16.6854,
      "duration": 0.0164,
      "velocity": 102,
      "chip": "ym2612"
    },
    {
      "channel": 3,
      "note": 74,
      "start": 16.686,
      "duration": 0.1487,
      "velocity": 120,
      "chip": "ym2612"
    },
    {
      "channel": 2,
      "note": 43,
      "start": 16.7847,
      "duration": 0.0164,
      "velocity": 98,
      "chip": "ym2612"
    },
    {
      "channel": 2,
      "note": 48,
      "start": 16.8841,
      "duration": 0.0164,
      "velocity": 102,
      "chip": "ym2612"
    },
    {
      "channel": 3,
      "note": 55,
      "start": 16.8846,
      "duration": 0.1487,
      "velocity": 120,
      "chip": "ym2612"
    },
    {
      "channel": 2,
      "note": 47,
      "start": 16.9834,
      "duration": 0.0164,
      "velocity": 98,
      "chip": "ym2612"
    },
    {
      "channel": 2,
      "note": 47,
      "start": 17.0827,
      "duration": 0.0164,
      "velocity": 102,
      "chip": "ym2612"
    },
    {
      "channel": 3,
      "note": 7,
      "start": 17.0839,
      "duration": 0.1481,
      "velocity": 127,
      "chip": "ym2612"
    },
    {
      "channel": 2,
      "note": 48,
      "start": 17.182,
      "duration": 0.0164,
      "velocity": 98,
      "chip": "ym2612"
    },
    {
      "channel": 2,
      "note": 45,
      "start": 17.2813,
      "duration": 0.0165,
      "velocity": 102,
      "chip": "ym2612"
    },
    {
      "channel": 3,
      "note": 55,
      "start": 17.2825,
      "duration": 0.1482,
      "velocity": 120,
      "chip": "ym2612"
    },
    {
      "channel": 2,
      "note": 47,
      "start": 17.3806,
      "duration": 0.0164,
      "velocity": 98,
      "chip": "ym2612"
    },
    {
      "channel": 2,
      "note": 43,
      "start": 17.4799,
      "duration": 0.0164,
      "velocity": 102,
      "chip": "ym2612"
    },
    {
      "channel": 3,
      "note": 7,
      "start": 17.4811,
      "duration": 0.1481,
      "velocity": 127,
      "chip": "ym2612"
    },
    {
      "channel": 2,
      "note": 45,
      "start": 17.5792,
      "duration": 0.0164,
      "velocity": 98,
      "chip": "ym2612"
    },
    {
      "channel": 2,
      "note": 45,
      "start": 17.6785,
      "duration": 0.0164,
      "velocity": 102,
      "chip": "ym2612"
    },
    {
      "channel": 3,
      "note": 55,
      "start": 17.6798,
      "duration": 0.1481,
      "velocity": 120,
      "chip": "ym2612"
    },
    {
      "channel": 2,
      "note": 43,
      "start": 17.7779,
      "duration": 0.0164,
      "velocity": 98,
      "chip": "ym2612"
    },
    {
      "channel": 2,
      "note": 43,
      "start": 17.8772,
      "duration": 0.0164,
      "velocity": 102,
      "chip": "ym2612"
    },
    {
      "channel": 3,
      "note": 55,
      "start": 17.8778,
      "duration": 0.1487,
      "velocity": 120,
      "chip": "ym2612"
    },
    {
      "channel": 2,
      "note": 45,
      "start": 17.9765,
      "duration": 0.0164,
      "velocity": 98,
      "chip": "ym2612"
    },
    {
      "channel": 2,
      "note": 40,
      "start": 18.0758,
      "duration": 0.0164,
      "velocity": 102,
      "chip": "ym2612"
    },
    {
      "channel": 3,
      "note": 55,
      "start": 18.0764,
      "duration": 0.1487,
      "velocity": 120,
      "chip": "ym2612"
    },
    {
      "channel": 2,
      "note": 43,
      "start": 18.1752,
      "duration": 0.0164,
      "velocity": 98,
      "chip": "ym2612"
    },
    {
      "channel": 2,
      "note": 36,
      "start": 18.2745,
      "duration": 0.0164,
      "velocity": 102,
      "chip": "ym2612"
    },
    {
      "channel": 3,
      "note": 74,
      "start": 18.2751,
      "duration": 0.1487,
      "velocity": 120,
      "chip": "ym2612"
    },
    {
      "channel": 2,
      "note": 40,
      "start": 18.3738,
      "duration": 0.0164,
      "velocity": 98,
      "chip": "ym2612"
    },
    {
      "channel": 2,
      "note": 40,
      "start": 18.4731,
      "duration": 0.0164,
      "velocity": 102,
      "chip": "ym2612"
    },
    {
      "channel": 3,
      "note": 55,
      "start": 18.4738,
      "duration": 0.1487,
      "velocity": 120,
      "chip": "ym2612"
    },
    {
      "channel": 2,
      "note": 36,
      "start": 18.5724,
      "duration": 0.0165,
      "velocity": 98,
      "chip": "ym2612"
    },
    {
      "channel": 2,
      "note": 36,
      "start": 18.6717,
      "duration": 0.0164,
      "velocity": 98,
      "chip": "ym2612"
    },
    {
      "channel": 3,
      "note": 7,
      "start": 18.6729,
      "duration": 0.1481,
      "velocity": 127,
      "chip": "ym2612"
    },
    {
      "channel": 2,
      "note": 40,
      "start": 18.771,
      "duration": 0.0164,
      "velocity": 98,
      "chip": "ym2612"
    },
    {
      "channel": 2,
      "note": 35,
      "start": 18.8703,
      "duration": 0.0164,
      "velocity": 102,
      "chip": "ym2612"
    },
    {
      "channel": 3,
      "note": 55,
      "start": 18.8715,
      "duration": 0.1481,
      "velocity": 120,
      "chip": "ym2612"
    },
    {
      "channel": 2,
      "note": 36,
      "start": 18.9696,
      "duration": 0.0165,
      "velocity": 98,
      "chip": "ym2612"
    },
    {
      "channel": 0,
      "note": 7,
      "start": 19.0684,
      "duration": 0.1483,
      "velocity": 127,
      "chip": "ym2612"
    },
    {
      "channel": 1,
      "note": 28,
      "start": 19.0696,
      "duration": 3.177,
      "velocity": 124,
      "chip": "ym2612"
    },
    {
      "channel": 2,
      "note": 33,
      "start": 19.0703,
      "duration": 0.0149,
      "velocity": 102,
      "chip": "ym2612"
    },
    {
      "channel": 3,
      "note": 59,
      "start": 19.0716,
      "duration": 0.5934,
      "velocity": 88,
      "chip": "ym2612"
    },
    {
      "channel": 4,
      "note": 35,
      "start": 19.073,
      "duration": 3.1758,
      "velocity": 112,
      "chip": "ym2612"
    },
    {
      "channel": 0,
      "note": 55,
      "start": 19.267,
      "duration": 0.1483,
      "velocity": 120,
      "chip": "ym2612"
    },
    {
      "channel": 2,
      "note": 36,
      "start": 19.2682,
      "duration": 0.0156,
      "velocity": 102,
      "chip": "ym2612"
    },
    {
      "channel": 5,
      "note": 59,
      "start": 19.3685,
      "duration": 2.3831,
      "velocity": 88,
      "chip": "ym2612"
    },
    {
      "channel": 0,
      "note": 55,
      "start": 19.4651,
      "duration": 0.1488,
      "velocity": 120,
      "chip": "ym2612"
    },
    {
      "channel": 2,
      "note": 40,
      "start": 19.4662,
      "duration": 0.0163,
      "velocity": 102,
      "chip": "ym2612"
    },
    {
      "channel": 0,
      "note": 55,
      "start": 19.6637,
      "duration": 0.1488,
      "velocity": 120,
      "chip": "ym2612"
    },
    {
      "channel": 2,
      "note": 43,
      "start": 19.6648,
      "duration": 0.0163,
      "velocity": 102,
      "chip": "ym2612"
    },
    {
      "channel": 3,
      "note": 59,
      "start": 19.6656,
      "duration": 1.787,
      "velocity": 88,
      "chip": "ym2612"
    },
    {
      "channel": 0,
      "note": 74,
      "start": 19.8623,
      "duration": 0.1488,
      "velocity": 120,
      "chip": "ym2612"
    },
    {
      "channel": 2,
      "note": 47,
      "start": 19.8635,
      "duration": 0.0163,
      "velocity": 102,
      "chip": "ym2612"
    },
    {
      "channel": 0,
      "note": 55,
      "start": 20.0609,
      "duration": 0.1489,
      "velocity": 120,
      "chip": "ym2612"
    },
    {
      "channel": 2,
      "note": 48,
      "start": 20.0621,
      "duration": 0.0163,
      "velocity": 102,
      "chip": "ym2612"
    },
    {
      "channel": 0,
      "note": 7,
      "start": 20.2602,
      "duration": 0.1482,
      "velocity": 127,
      "chip": "ym2612"
    },
    {
      "channel": 2,
      "note": 47,
      "start": 20.2613,
      "duration": 0.0157,
      "velocity": 102,
      "chip": "ym2612"
    },
    {
      "channel": 0,
      "note": 55,
      "start": 20.4588,
      "duration": 0.1483,
      "velocity": 120,
      "chip": "ym2612"
    },
    {
      "channel": 2,
      "note": 45,
      "start": 20.4599,
      "duration": 0.0157,
      "velocity": 102,
      "chip": "ym2612"
    },
    {
      "channel": 0,
      "note": 7,
      "start": 20.6574,
      "duration": 0.1482,
      "velocity": 127,
      "chip": "ym2612"
    },
    {
      "channel": 2,
      "note": 43,
      "start": 20.6586,
      "duration": 0.0157,
      "velocity": 102,
      "chip": "ym2612"
    },
    {
      "channel": 0,
      "note": 55,
      "start": 20.8561,
      "duration": 0.1482,
      "velocity": 120,
      "chip": "ym2612"
    },
    {
      "channel": 2,
      "note": 45,
      "start": 20.8572,
      "duration": 0.0157,
      "velocity": 102,
      "chip": "ym2612"
    },
    {
      "channel": 0,
      "note": 55,
      "start": 21.054,
      "duration": 0.1489,
      "velocity": 120,
      "chip": "ym2612"
    },
    {
      "channel": 2,
      "note": 43,
      "start": 21.0553,
      "duration": 0.0162,
      "velocity": 102,
      "chip": "ym2612"
    },
    {
      "channel": 0,
      "note": 55,
      "start": 21.2527,
      "duration": 0.1488,
      "velocity": 120,
      "chip": "ym2612"
    },
    {
      "channel": 2,
      "note": 40,
      "start": 21.2539,
      "duration": 0.0163,
      "velocity": 102,
      "chip": "ym2612"
    },
    {
      "channel": 0,
      "note": 74,
      "start": 21.4513,
      "duration": 0.1488,
      "velocity": 120,
      "chip": "ym2612"
    },
    {
      "channel": 2,
      "note": 36,
      "start": 21.4525,
      "duration": 0.0162,
      "velocity": 102,
      "chip": "ym2612"
    },
    {
      "channel": 3,
      "note": 59,
      "start": 21.4533,
      "duration": 0.0984,
      "velocity": 88,
      "chip": "ym2612"
    },
    {
      "channel": 3,
      "note": 57,
      "start": 21.5523,
      "duration": 0.0989,
      "velocity": 88,
      "chip": "ym2612"
    },
    {
      "channel": 0,
      "note": 55,
      "start": 21.65,
      "duration": 0.1488,
      "velocity": 120,
      "chip": "ym2612"
    },
    {
      "channel": 2,
      "note": 40,
      "start": 21.6511,
      "duration": 0.0163,
      "velocity": 102,
      "chip": "ym2612"
    },
    {
      "channel": 3,
      "note": 59,
      "start": 21.6519,
      "duration": 0.0984,
      "velocity": 88,
      "chip": "ym2612"
    },
    {
      "channel": 3,
      "note": 60,
      "start": 21.7509,
      "duration": 0.0995,
      "velocity": 88,
      "chip": "ym2612"
    },
    {
      "channel": 5,
      "note": 59,
      "start": 21.7523,
      "duration": 0.0995,
      "velocity": 88,
      "chip": "ym2612"
    },
    {
      "channel": 0,
      "note": 7,
      "start": 21.8491,
      "duration": 0.1483,
      "velocity": 127,
      "chip": "ym2612"
    },
    {
      "channel": 2,
      "note": 36,
      "start": 21.8504,
      "duration": 0.0157,
      "velocity": 102,
      "chip": "ym2612"
    },
    {
      "channel": 3,
      "note": 59,
      "start": 21.8511,
      "duration": 0.0978,
      "velocity": 88,
      "chip": "ym2612"
    },
    {
      "channel": 5,
      "note": 57,
      "start": 21.8524,
      "duration": 0.0978,
      "velocity": 88,
      "chip": "ym2612"
    },
    {
      "channel": 3,
      "note": 60,
      "start": 21.9496,
      "duration": 0.0995,
      "velocity": 88,
      "chip": "ym2612"
    },
    {
      "channel": 5,
      "note": 59,
      "start": 21.9509,
      "duration": 0.0995,
      "velocity": 88,
      "chip": "ym2612"
    },
    {
      "channel": 0,
      "note": 55,
      "start": 22.0478,
      "duration": 0.1482,
      "velocity": 120,
      "chip": "ym2612"
    },
    {
      "channel": 2,
      "note": 35,
      "start": 22.049,
      "duration": 0.0157,
      "velocity": 102,
      "chip": "ym2612"
    },
    {
      "channel": 3,
      "note": 62,
      "start": 22.0498,
      "duration": 0.0978,
      "velocity": 88,
      "chip": "ym2612"
    },
    {
      "channel": 5,
      "note": 60,
      "start": 22.0511,
      "duration": 0.0978,
      "velocity": 88,
      "chip": "ym2612"
    },
    {
      "channel": 3,
      "note": 59,
      "start": 22.1482,
      "duration": 0.0998,
      "velocity": 88,
      "chip": "ym2612"
    },
    {
      "channel": 5,
      "note": 59,
      "start": 22.1495,
      "duration": 0.0999,
      "velocity": 88,
      "chip": "ym2612"
    },
    {
      "channel": 0,
      "note": 7,
      "start": 22.2464,
      "duration": 0.1483,
      "velocity": 127,
      "chip": "ym2612"
    },
    {
      "channel": 1,
      "note": 29,
      "start": 22.2471,
      "duration": 3.1776,
      "velocity": 124,
      "chip": "ym2612"
    },
    {
      "channel": 2,
      "note": 33,
      "start": 22.2478,
      "duration": 0.0155,
      "velocity": 102,
      "chip": "ym2612"
    },
    {
      "channel": 3,
      "note": 59,
      "start": 22.2486,
      "duration": 0.5945,
      "velocity": 88,
      "chip": "ym2612"
    },
    {
      "channel": 4,
      "note": 33,
      "start": 22.2493,
      "duration": 3.0939,
      "velocity": 112,
      "chip": "ym2612"
    },
    {
      "channel": 5,
      "note": 60,
      "start": 22.2501,
      "duration": 0.0973,
      "velocity": 88,
      "chip": "ym2612"
    },
    {
      "channel": 5,
      "note": 62,
      "start": 22.348,
      "duration": 0.0995,
      "velocity": 88,
      "chip": "ym2612"
    },
    {
      "channel": 0,
      "note": 55,
      "start": 22.4451,
      "duration": 0.1482,
      "velocity": 120,
      "chip": "ym2612"
    },
    {
      "channel": 2,
      "note": 36,
      "start": 22.4462,
      "duration": 0.0157,
      "velocity": 102,
      "chip": "ym2612"
    },
    {
      "channel": 5,
      "note": 59,
      "start": 22.4482,
      "duration": 0.0978,
      "velocity": 88,
      "chip": "ym2612"
    },
    {
      "channel": 5,
      "note": 59,
      "start": 22.5466,
      "duration": 0.8941,
      "velocity": 88,
      "chip": "ym2612"
    },
    {
      "channel": 0,
      "note": 55,
      "start": 22.6431,
      "duration": 0.1488,
      "velocity": 120,
      "chip": "ym2612"
    },
    {
      "channel": 2,
      "note": 40,
      "start": 22.6442,
      "duration": 0.0163,
      "velocity": 102,
      "chip": "ym2612"
    },
    {
      "channel": 0,
      "note": 55,
      "start": 22.8418,
      "duration": 0.1488,
      "velocity": 120,
      "chip": "ym2612"
    },
    {
      "channel": 2,
      "note": 43,
      "start": 22.8429,
      "duration": 0.0163,
      "velocity": 102,
      "chip": "ym2612"
    },
    {
      "channel": 3,
      "note": 60,
      "start": 22.8437,
      "duration": 2.5831,
      "velocity": 88,
      "chip": "ym2612"
    },
    {
      "channel": 0,
      "note": 74,
      "start": 23.0404,
      "duration": 0.1489,
      "velocity": 120,
      "chip": "ym2612"
    },
    {
      "channel": 2,
      "note": 47,
      "start": 23.0415,
      "duration": 0.0163,
      "velocity": 102,
      "chip": "ym2612"
    },
    {
      "channel": 0,
      "note": 55,
      "start": 23.239,
      "duration": 0.1489,
      "velocity": 120,
      "chip": "ym2612"
    },
    {
      "channel": 2,
      "note": 48,
      "start": 23.2402,
      "duration": 0.0162,
      "velocity": 102,
      "chip": "ym2612"
    },
    {
      "channel": 0,
      "note": 7,
      "start": 23.4382,
      "duration": 0.1483,
      "velocity": 127,
      "chip": "ym2612"
    },
    {
      "channel": 2,
      "note": 47,
      "start": 23.4394,
      "duration": 0.0156,
      "velocity": 102,
      "chip": "ym2612"
    },
    {
      "channel": 5,
      "note": 60,
      "start": 23.4414,
      "duration": 2.084,
      "velocity": 88,
      "chip": "ym2612"
    },
    {
      "channel": 0,
      "note": 55,
      "start": 23.6368,
      "duration": 0.1483,
      "velocity": 120,
      "chip": "ym2612"
    },
    {
      "channel": 2,
      "note": 45,
      "start": 23.638,
      "duration": 0.0157,
      "velocity": 102,
      "chip": "ym2612"
    },
    {
      "channel": 0,
      "note": 7,
      "start": 23.8355,
      "duration": 0.1483,
      "velocity": 127,
      "chip": "ym2612"
    },
    {
      "channel": 2,
      "note": 43,
      "start": 23.8366,
      "duration": 0.0157,
      "velocity": 102,
      "chip": "ym2612"
    },
    {
      "channel": 0,
      "note": 55,
      "start": 24.0341,
      "duration": 0.1483,
      "velocity": 120,
      "chip": "ym2612"
    },
    {
      "channel": 2,
      "note": 45,
      "start": 24.0353,
      "duration": 0.0157,
      "velocity": 102,
      "chip": "ym2612"
    },
    {
      "channel": 0,
      "note": 55,
      "start": 24.2322,
      "duration": 0.1488,
      "velocity": 120,
      "chip": "ym2612"
    },
    {
      "channel": 2,
      "note": 43,
      "start": 24.2333,
      "duration": 0.0163,
      "velocity": 102,
      "chip": "ym2612"
    },
    {
      "channel": 0,
      "note": 55,
      "start": 24.4308,
      "duration": 0.1488,
      "velocity": 120,
      "chip": "ym2612"
    },
    {
      "channel": 2,
      "note": 40,
      "start": 24.432,
      "duration": 0.0162,
      "velocity": 102,
      "chip": "ym2612"
    },
    {
      "channel": 0,
      "note": 74,
      "start": 24.6294,
      "duration": 0.1488,
      "velocity": 120,
      "chip": "ym2612"
    },
    {
      "channel": 2,
      "note": 36,
      "start": 24.6306,
      "duration": 0.0163,
      "velocity": 102,
      "chip": "ym2612"
    },
    {
      "channel": 0,
      "note": 55,
      "start": 24.828,
      "duration": 0.1488,
      "velocity": 120,
      "chip": "ym2612"
    },
    {
      "channel": 2,
      "note": 40,
      "start": 24.8292,
      "duration": 0.0162,
      "velocity": 102,
      "chip": "ym2612"
    },
    {
      "channel": 0,
      "note": 7,
      "start": 25.0273,
      "duration": 0.1482,
      "velocity": 127,
      "chip": "ym2612"
    },
    {
      "channel": 2,
      "note": 36,
      "start": 25.0284,
      "duration": 0.0157,
      "velocity": 102,
      "chip": "ym2612"
    },
    {
      "channel": 0,
      "note": 55,
      "start": 25.2259,
      "duration": 0.1483,
      "velocity": 120,
      "chip": "ym2612"
    },
    {
      "channel": 2,
      "note": 35,
      "start": 25.2271,
      "duration": 0.0156,
      "velocity": 102,
      "chip": "ym2612"
    },
    {
      "channel": 0,
      "note": 28,
      "start": 25.4246,
      "duration": 3.177,
      "velocity": 112,
      "chip": "ym2612"
    },
    {
      "channel": 1,
      "note": 31,
      "start": 25.4259,
      "duration": 3.1763,
      "velocity": 112,
      "chip": "ym2612"
    },
    {
      "channel": 2,
      "note": 33,
      "start": 25.4266,
      "duration": 0.0148,
      "velocity": 102,
      "chip": "ym2612"
    },
    {
      "channel": 3,
      "note": 28,
      "start": 25.4278,
      "duration": 0.1135,
      "velocity": 124,
      "chip": "ym2612"
    },
    {
      "channel": 4,
      "note": 35,
      "start": 25.4285,
      "duration": 3.1758,
      "velocity": 112,
      "chip": "ym2612"
    },
    {
      "channel": 5,
      "note": 35,
      "start": 25.5266,
      "duration": 0.0159,
      "velocity": 102,
      "chip": "ym2612"
    },
    {
      "channel": 2,
      "note": 36,
      "start": 25.6237,
      "duration": 0.0165,
      "velocity": 102,
      "chip": "ym2612"
    },
    {
      "channel": 3,
      "note": 40,
      "start": 25.6244,
      "duration": 0.1155,
      "velocity": 124,
      "chip": "ym2612"
    },
    {
      "channel": 5,
      "note": 33,
      "start": 25.7246,
      "duration": 0.0165,
      "velocity": 102,
      "chip": "ym2612"
    },
    {
      "channel": 2,
      "note": 40,
      "start": 25.8223,
      "duration": 0.0164,
      "velocity": 102,
      "chip": "ym2612"
    },
    {
      "channel": 3,
      "note": 28,
      "start": 25.823,
      "duration": 0.1155,
      "velocity": 123,
      "chip": "ym2612"
    },
    {
      "channel": 5,
      "note": 36,
      "start": 25.9233,
      "duration": 0.0165,
      "velocity": 102,
      "chip": "ym2612"
    },
    {
      "channel": 2,
      "note": 43,
      "start": 26.021,
      "duration": 0.0164,
      "velocity": 102,
      "chip": "ym2612"
    },
    {
      "channel": 3,
      "note": 28,
      "start": 26.0216,
      "duration": 0.1156,
      "velocity": 123,
      "chip": "ym2612"
    },
    {
      "channel": 5,
      "note": 40,
      "start": 26.1219,
      "duration": 0.0164,
      "velocity": 102,
      "chip": "ym2612"
    },
    {
      "channel": 2,
      "note": 47,
      "start": 26.2196,
      "duration": 0.0164,
      "velocity": 102,
      "chip": "ym2612"
    },
    {
      "channel": 3,
      "note": 40,
      "start": 26.2202,
      "duration": 0.1156,
      "velocity": 122,
      "chip": "ym2612"
    },
    {
      "channel": 5,
      "note": 43,
      "start": 26.3205,
      "duration": 0.0165,
      "velocity": 102,
      "chip": "ym2612"
    },
    {
      "channel": 2,
      "note": 48,
      "start": 26.4182,
      "duration": 0.0164,
      "velocity": 102,
      "chip": "ym2612"
    },
    {
      "channel": 3,
      "note": 28,
      "start": 26.4189,
      "duration": 0.1155,
      "velocity": 122,
      "chip": "ym2612"
    },
    {
      "channel": 5,
      "note": 47,
      "start": 26.5191,
      "duration": 0.0164,
      "velocity": 102,
      "chip": "ym2612"
    },
    {
      "channel": 2,
      "note": 47,
      "start": 26.6168,
      "duration": 0.0164,
      "velocity": 102,
      "chip": "ym2612"
    },
    {
      "channel": 3,
      "note": 28,
      "start": 26.6175,
      "duration": 0.1156,
      "velocity": 121,
      "chip": "ym2612"
    },
    {
      "channel": 5,
      "note": 48,
      "start": 26.7177,
      "duration": 0.0165,
      "velocity": 102,
      "chip": "ym2612"
    },
    {
      "channel": 2,
      "note": 45,
      "start": 26.8155,
      "duration": 0.0164,
      "velocity": 102,
      "chip": "ym2612"
    },
    {
      "channel": 3,
      "note": 40,
      "start": 26.8161,
      "duration": 0.1155,
      "velocity": 121,
      "chip": "ym2612"
    },
    {
      "channel": 5,
      "note": 47,
      "start": 26.9164,
      "duration": 0.0164,
      "velocity": 102,
      "chip": "ym2612"
    },
    {
      "channel": 2,
      "note": 43,
      "start": 27.0141,
      "duration": 0.0164,
      "velocity": 102,
      "chip": "ym2612"
    },
    {
      "channel": 3,
      "note": 28,
      "start": 27.0147,
      "duration": 0.1156,
      "velocity": 120,
      "chip": "ym2612"
    },
    {
      "channel": 5,
      "note": 45,
      "start": 27.115,
      "duration": 0.0165,
      "velocity": 102,
      "chip": "ym2612"
    },
    {
      "channel": 2,
      "note": 45,
      "start": 27.2128,
      "duration": 0.0164,
      "velocity": 102,
      "chip": "ym2612"
    },
    {
      "channel": 3,
      "note": 40,
      "start": 27.2134,
      "duration": 0.1155,
      "velocity": 120,
      "chip": "ym2612"
    },
    {
      "channel": 5,
      "note": 43,
      "start": 27.3136,
      "duration": 0.0165,
      "velocity": 102,
      "chip": "ym2612"
    },
    {
      "channel": 2,
      "note": 43,
      "start": 27.4114,
      "duration": 0.0164,
      "velocity": 102,
      "chip": "ym2612"
    },
    {
      "channel": 3,
      "note": 28,
      "start": 27.412,
      "duration": 0.1156,
      "velocity": 119,
      "chip": "ym2612"
    },
    {
      "channel": 5,
      "note": 45,
      "start": 27.5122,
      "duration": 0.0165,
      "velocity": 102,
      "chip": "ym2612"
    },
    {
      "channel": 2,
      "note": 40,
      "start": 27.61,
      "duration": 0.0165,
      "velocity": 102,
      "chip": "ym2612"
    },
    {
      "channel": 3,
      "note": 28,
      "start": 27.6106,
      "duration": 0.1156,
      "velocity": 119,
      "chip": "ym2612"
    },
    {
      "channel": 5,
      "note": 43,
      "start": 27.7109,
      "duration": 0.0165,
      "velocity": 102,
      "chip": "ym2612"
    },
    {
      "channel": 2,
      "note": 36,
      "start": 27.8086,
      "duration": 0.0164,
      "velocity": 102,
      "chip": "ym2612"
    },
    {
      "channel": 3,
      "note": 40,
      "start": 27.8093,
      "duration": 0.1156,
      "velocity": 118,
      "chip": "ym2612"
    },
    {
      "channel": 5,
      "note": 40,
      "start": 27.9096,
      "duration": 0.0164,
      "velocity": 102,
      "chip": "ym2612"
    },
    {
      "channel": 2,
      "note": 40,
      "start": 28.0073,
      "duration": 0.0164,
      "velocity": 102,
      "chip": "ym2612"
    },
    {
      "channel": 3,
      "note": 28,
      "start": 28.0079,
      "duration": 0.1156,
      "velocity": 118,
      "chip": "ym2612"
    },
    {
      "channel": 5,
      "note": 36,
      "start": 28.1082,
      "duration": 0.0164,
      "velocity": 102,
      "chip": "ym2612"
    },
    {
      "channel": 2,
      "note": 36,
      "start": 28.2059,
      "duration": 0.0164,
      "velocity": 102,
      "chip": "ym2612"
    },
    {
      "channel": 3,
      "note": 28,
      "start": 28.2065,
      "duration": 0.1156,
      "velocity": 117,
      "chip": "ym2612"
    },
    {
      "channel": 5,
      "note": 40,
      "start": 28.3068,
      "duration": 0.0164,
      "velocity": 102,
      "chip": "ym2612"
    },
    {
      "channel": 2,
      "note": 35,
      "start": 28.4045,
      "duration": 0.0164,
      "velocity": 102,
      "chip": "ym2612"
    },
    {
      "channel": 3,
      "note": 40,
      "start": 28.4051,
      "duration": 0.1156,
      "velocity": 117,
      "chip": "ym2612"
    },
    {
      "channel": 5,
      "note": 36,
      "start": 28.5054,
      "duration": 0.0165,
      "velocity": 102,
      "chip": "ym2612"
    },
    {
      "channel": 0,
      "note": 17,
      "start": 28.6021,
      "duration": 3.1775,
      "velocity": 112,
      "chip": "ym2612"
    },
    {
      "channel": 1,
      "note": 33,
      "start": 28.6028,
      "duration": 3.1776,
      "velocity": 112,
      "chip": "ym2612"
    },
    {
      "channel": 2,
      "note": 33,
      "start": 28.6035,
      "duration": 0.016,
      "velocity": 102,
      "chip": "ym2612"
    },
    {
      "channel": 3,
      "note": 24,
      "start": 28.6042,
      "duration": 0.1152,
      "velocity": 116,
      "chip": "ym2612"
    },
    {
      "channel": 4,
      "note": 36,
      "start": 28.6049,
      "duration": 3.1776,
      "velocity": 112,
      "chip": "ym2612"
    },
    {
      "channel": 5,
      "note": 35,
      "start": 28.704,
      "duration": 0.0164,
      "velocity": 102,
      "chip": "ym2612"
    },
    {
      "channel": 2,
      "note": 36,
      "start": 28.8017,
      "duration": 0.0164,
      "velocity": 102,
      "chip": "ym2612"
    },
    {
      "channel": 3,
      "note": 36,
      "start": 28.8024,
      "duration": 0.1156,
      "velocity": 116,
      "chip": "ym2612"
    },
    {
      "channel": 5,
      "note": 33,
      "start": 28.9027,
      "duration": 0.0165,
      "velocity": 102,
      "chip": "ym2612"
    },
    {
      "channel": 2,
      "note": 40,
      "start": 29.0004,
      "duration": 0.0164,
      "velocity": 102,
      "chip": "ym2612"
    },
    {
      "channel": 3,
      "note": 24,
      "start": 29.001,
      "duration": 0.1155,
      "velocity": 117,
      "chip": "ym2612"
    },
    {
      "channel": 5,
      "note": 36,
      "start": 29.1013,
      "duration": 0.0164,
      "velocity": 102,
      "chip": "ym2612"
    },
    {
      "channel": 2,
      "note": 43,
      "start": 29.199,
      "duration": 0.0164,
      "velocity": 102,
      "chip": "ym2612"
    },
    {
      "channel": 3,
      "note": 24,
      "start": 29.1997,
      "duration": 0.1156,
      "velocity": 117,
      "chip": "ym2612"
    },
    {
      "channel": 5,
      "note": 40,
      "start": 29.2999,
      "duration": 0.0165,
      "velocity": 102,
      "chip": "ym2612"
    },
    {
      "channel": 2,
      "note": 47,
      "start": 29.3977,
      "duration": 0.0164,
      "velocity": 102,
      "chip": "ym2612"
    },
    {
      "channel": 3,
      "note": 36,
      "start": 29.3983,
      "duration": 0.1155,
      "velocity": 118,
      "chip": "ym2612"
    },
    {
      "channel": 5,
      "note": 43,
      "start": 29.4986,
      "duration": 0.0164,
      "velocity": 102,
      "chip": "ym2612"
    },
    {
      "channel": 2,
      "note": 48,
      "start": 29.5963,
      "duration": 0.0164,
      "velocity": 102,
      "chip": "ym2612"
    },
    {
      "channel": 3,
      "note": 24,
      "start": 29.5969,
      "duration": 0.1156,
      "velocity": 118,
      "chip": "ym2612"
    },
    {
      "channel": 5,
      "note": 47,
      "start": 29.6972,
      "duration": 0.0165,
      "velocity": 102,
      "chip": "ym2612"
    },
    {
      "channel": 2,
      "note": 47,
      "start": 29.7949,
      "duration": 0.0164,
      "velocity": 102,
      "chip": "ym2612"
    },
    {
      "channel": 3,
      "note": 24,
      "start": 29.7956,
      "duration": 0.1155,
      "velocity": 119,
      "chip": "ym2612"
    },
    {
      "channel": 5,
      "note": 48,
      "start": 29.8958,
      "duration": 0.0164,
      "velocity": 102,
      "chip": "ym2612"
    },
    {
      "channel": 2,
      "note": 45,
      "start": 29.9935,
      "duration": 0.0164,
      "velocity": 102,
      "chip": "ym2612"
    },
    {
      "channel": 3,
      "note": 36,
      "start": 29.9942,
      "duration": 0.1156,
      "velocity": 119,
      "chip": "ym2612"
    },
    {
      "channel": 5,
      "note": 47,
      "start": 30.0944,
      "duration": 0.0165,
      "velocity": 102,
      "chip": "ym2612"
    },
    {
      "channel": 2,
      "note": 43,
      "start": 30.1922,
      "duration": 0.0164,
      "velocity": 102,
      "chip": "ym2612"
    },
    {
      "channel": 3,
      "note": 24,
      "start": 30.1929,
      "duration": 0.1156,
      "velocity": 120,
      "chip": "ym2612"
    },
    {
      "channel": 5,
      "note": 45,
      "start": 30.293,
      "duration": 0.0165,
      "velocity": 102,
      "chip": "ym2612"
    },
    {
      "channel": 2,
      "note": 45,
      "start": 30.3909,
      "duration": 0.0164,
      "velocity": 102,
      "chip": "ym2612"
    },
    {
      "channel": 3,
      "note": 36,
      "start": 30.3915,
      "duration": 0.1155,
      "velocity": 120,
      "chip": "ym2612"
    },
    {
      "channel": 5,
      "note": 43,
      "start": 30.4918,
      "duration": 0.0164,
      "velocity": 102,
      "chip": "ym2612"
    },
    {
      "channel": 2,
      "note": 43,
      "start": 30.5895,
      "duration": 0.0164,
      "velocity": 102,
      "chip": "ym2612"
    },
    {
      "channel": 3,
      "note": 24,
      "start": 30.5901,
      "duration": 0.1155,
      "velocity": 121,
      "chip": "ym2612"
    },
    {
      "channel": 5,
      "note": 45,
      "start": 30.6904,
      "duration": 0.0164,
      "velocity": 102,
      "chip": "ym2612"
    },
    {
      "channel": 2,
      "note": 40,
      "start": 30.7881,
      "duration": 0.0164,
      "velocity": 102,
      "chip": "ym2612"
    },
    {
      "channel": 3,
      "note": 24,
      "start": 30.7887,
      "duration": 0.1156,
      "velocity": 121,
      "chip": "ym2612"
    },
    {
      "channel": 5,
      "note": 43,
      "start": 30.889,
      "duration": 0.0164,
      "velocity": 102,
      "chip": "ym2612"
    },
    {
      "channel": 2,
      "note": 36,
      "start": 30.9867,
      "duration": 0.0164,
      "velocity": 102,
      "chip": "ym2612"
    },
    {
      "channel": 3,
      "note": 36,
      "start": 30.9873,
      "duration": 0.1156,
      "velocity": 122,
      "chip": "ym2612"
    },
    {
      "channel": 5,
      "note": 40,
      "start": 31.0876,
      "duration": 0.0165,
      "velocity": 102,
      "chip": "ym2612"
    },
    {
      "channel": 2,
      "note": 40,
      "start": 31.1854,
      "duration": 0.0164,
      "velocity": 102,
      "chip": "ym2612"
    },
    {
      "channel": 3,
      "note": 24,
      "start": 31.186,
      "duration": 0.1156,
      "velocity": 122,
      "chip": "ym2612"
    },
    {
      "channel": 5,
      "note": 36,
      "start": 31.2862,
      "duration": 0.0164,
      "velocity": 102,
      "chip": "ym2612"
    },
    {
      "channel": 2,
      "note": 36,
      "start": 31.3839,
      "duration": 0.0164,
      "velocity": 102,
      "chip": "ym2612"
    },
    {
      "channel": 3,
      "note": 26,
      "start": 31.3846,
      "duration": 0.1156,
      "velocity": 123,
      "chip": "ym2612"
    },
    {
      "channel": 5,
      "note": 40,
      "start": 31.4848,
      "duration": 0.0165,
      "velocity": 102,
      "chip": "ym2612"
    },
    {
      "channel": 2,
      "note": 35,
      "start": 31.5826,
      "duration": 0.0164,
      "velocity": 102,
      "chip": "ym2612"
    },
    {
      "channel": 3,
      "note": 38,
      "start": 31.5832,
      "duration": 0.1156,
      "velocity": 123,
      "chip": "ym2612"
    },
    {
      "channel": 5,
      "note": 36,
      "start": 31.6835,
      "duration": 0.0164,
      "velocity": 102,
      "chip": "ym2612"
    },
    {
      "channel": 0,
      "note": 28,
      "start": 31.7802,
      "duration": 3.1776,
      "velocity": 112,
      "chip": "ym2612"
    },
    {
      "channel": 1,
      "note": 31,
      "start": 31.7809,
      "duration": 3.1776,
      "velocity": 112,
      "chip": "ym2612"
    },
    {
      "channel": 2,
      "note": 33,
      "start": 31.7816,
      "duration": 0.016,
      "velocity": 102,
      "chip": "ym2612"
    },
    {
      "channel": 3,
      "note": 28,
      "start": 31.7822,
      "duration": 0.1152,
      "velocity": 124,
      "chip": "ym2612"
    },
    {
      "channel": 4,
      "note": 35,
      "start": 31.783,
      "duration": 3.1775,
      "velocity": 112,
      "chip": "ym2612"
    },
    {
      "channel": 5,
      "note": 35,
      "start": 31.8821,
      "duration": 0.0165,
      "velocity": 102,
      "chip": "ym2612"
    },
    {
      "channel": 2,
      "note": 36,
      "start": 31.9799,
      "duration": 0.0164,
      "velocity": 102,
      "chip": "ym2612"
    },
    {
      "channel": 3,
      "note": 40,
      "start": 31.9805,
      "duration": 0.1155,
      "velocity": 124,
      "chip": "ym2612"
    },
    {
      "channel": 5,
      "note": 33,
      "start": 32.0808,
      "duration": 0.0164,
      "velocity": 102,
      "chip": "ym2612"
    },
    {
      "channel": 2,
      "note": 40,
      "start": 32.1785,
      "duration": 0.0164,
      "velocity": 102,
      "chip": "ym2612"
    },
    {
      "channel": 3,
      "note": 28,
      "start": 32.1791,
      "duration": 0.1156,
      "velocity": 123,
      "chip": "ym2612"
    },
    {
      "channel": 5,
      "note": 36,
      "start": 32.2794,
      "duration": 0.0165,
      "velocity": 102,
      "chip": "ym2612"
    },
    {
      "channel": 2,
      "note": 43,
      "start": 32.3771,
      "duration": 0.0164,
      "velocity": 102,
      "chip": "ym2612"
    },
    {
      "channel": 3,
      "note": 28,
      "start": 32.3778,
      "duration": 0.1155,
      "velocity": 123,
      "chip": "ym2612"
    },
    {
      "channel": 5,
      "note": 40,
      "start": 32.478,
      "duration": 0.0164,
      "velocity": 102,
      "chip": "ym2612"
    },
    {
      "channel": 2,
      "note": 47,
      "start": 32.5757,
      "duration": 0.0164,
      "velocity": 102,
      "chip": "ym2612"
    },
    {
      "channel": 3,
      "note": 40,
      "start": 32.5764,
      "duration": 0.1156,
      "velocity": 122,
      "chip": "ym2612"
    },
    {
      "channel": 5,
      "note": 43,
      "start": 32.6766,
      "duration": 0.0165,
      "velocity": 102,
      "chip": "ym2612"
    },
    {
      "channel": 2,
      "note": 48,
      "start": 32.7744,
      "duration": 0.0164,
      "velocity": 102,
      "chip": "ym2612"
    },
    {
      "channel": 3,
      "note": 28,
      "start": 32.775,
      "duration": 0.1156,
      "velocity": 122,
      "chip": "ym2612"
    },
    {
      "channel": 5,
      "note": 47,
      "start": 32.8753,
      "duration": 0.0165,
      "velocity": 102,
      "chip": "ym2612"
    },
    {
      "channel": 2,
      "note": 47,
      "start": 32.9731,
      "duration": 0.0164,
      "velocity": 102,
      "chip": "ym2612"
    },
    {
      "channel": 3,
      "note": 28,
      "start": 32.9737,
      "duration": 0.1155,
      "velocity": 121,
      "chip": "ym2612"
    },
    {
      "channel": 5,
      "note": 48,
      "start": 33.0739,
      "duration": 0.0164,
      "velocity": 102,
      "chip": "ym2612"
    },
    {
      "channel": 2,
      "note": 45,
      "start": 33.1717,
      "duration": 0.0164,
      "velocity": 102,
      "chip": "ym2612"
    },
    {
      "channel": 3,
      "note": 40,
      "start": 33.1723,
      "duration": 0.1155,
      "velocity": 121,
      "chip": "ym2612"
    },
    {
      "channel": 5,
      "note": 47,
      "start": 33.2725,
      "duration": 0.0165,
      "velocity": 102,
      "chip": "ym2612"
    },
    {
      "channel": 2,
      "note": 43,
      "start": 33.3703,
      "duration": 0.0164,
      "velocity": 102,
      "chip": "ym2612"
    },
    {
      "channel": 3,
      "note": 28,
      "start": 33.3709,
      "duration": 0.1156,
      "velocity": 120,
      "chip": "ym2612"
    },
    {
      "channel": 5,
      "note": 45,
      "start": 33.4712,
      "duration": 0.0164,
      "velocity": 102,
      "chip": "ym2612"
    },
    {
      "channel": 2,
      "note": 45,
      "start": 33.5689,
      "duration": 0.0164,
      "velocity": 102,
      "chip": "ym2612"
    },
    {
      "channel": 3,
      "note": 40,
      "start": 33.5695,
      "duration": 0.1156,
      "velocity": 120,
      "chip": "ym2612"
    },
    {
      "channel": 5,
      "note": 43,
      "start": 33.6698,
      "duration": 0.0165,
      "velocity": 102,
      "chip": "ym2612"
    },
    {
      "channel": 2,
      "note": 43,
      "start": 33.7675,
      "duration": 0.0164,
      "velocity": 102,
      "chip": "ym2612"
    },
    {
      "channel": 3,
      "note": 28,
      "start": 33.7682,
      "duration": 0.1156,
      "velocity": 119,
      "chip": "ym2612"
    },
    {
      "channel": 5,
      "note": 45,
      "start": 33.8684,
      "duration": 0.0164,
      "velocity": 102,
      "chip": "ym2612"
    },
    {
      "channel": 2,
      "note": 40,
      "start": 33.9661,
      "duration": 0.0164,
      "velocity": 102,
      "chip": "ym2612"
    },
    {
      "channel": 3,
      "note": 28,
      "start": 33.9668,
      "duration": 0.1156,
      "velocity": 119,
      "chip": "ym2612"
    },
    {
      "channel": 5,
      "note": 43,
      "start": 34.067,
      "duration": 0.0165,
      "velocity": 102,
      "chip": "ym2612"
    },
    {
      "channel": 2,
      "note": 36,
      "start": 34.1648,
      "duration": 0.0164,
      "velocity": 102,
      "chip": "ym2612"
    },
    {
      "channel": 3,
      "note": 40,
      "start": 34.1654,
      "duration": 0.1156,
      "velocity": 118,
      "chip": "ym2612"
    },
    {
      "channel": 5,
      "note": 40,
      "start": 34.2657,
      "duration": 0.0164,
      "velocity": 102,
      "chip": "ym2612"
    },
    {
      "channel": 2,
      "note": 40,
      "start": 34.3634,
      "duration": 0.0164,
      "velocity": 102,
      "chip": "ym2612"
    },
    {
      "channel": 3,
      "note": 28,
      "start": 34.364,
      "duration": 0.1156,
      "velocity": 118,
      "chip": "ym2612"
    },
    {
      "channel": 5,
      "note": 36,
      "start": 34.4643,
      "duration": 0.0165,
      "velocity": 102,
      "chip": "ym2612"
    },
    {
      "channel": 2,
      "note": 36,
      "start": 34.5621,
      "duration": 0.0164,
      "velocity": 102,
      "chip": "ym2612"
    },
    {
      "channel": 3,
      "note": 28,
      "start": 34.5627,
      "duration": 0.1155,
      "velocity": 117,
      "chip": "ym2612"
    },
    {
      "channel": 5,
      "note": 40,
      "start": 34.6629,
      "duration": 0.0164,
      "velocity": 102,
      "chip": "ym2612"
    },
    {
      "channel": 2,
      "note": 35,
      "start": 34.7607,
      "duration": 0.0164,
      "velocity": 102,
      "chip": "ym2612"
    },
    {
      "channel": 3,
      "note": 40,
      "start": 34.7613,
      "duration": 0.1156,
      "velocity": 117,
      "chip": "ym2612"
    },
    {
      "channel": 5,
      "note": 36,
      "start": 34.8615,
      "duration": 0.0165,
      "velocity": 102,
      "chip": "ym2612"
    },
    {
      "channel": 0,
      "note": 17,
      "start": 34.9583,
      "duration": 3.1775,
      "velocity": 112,
      "chip": "ym2612"
    },
    {
      "channel": 1,
      "note": 33,
      "start": 34.959,
      "duration": 3.1776,
      "velocity": 112,
      "chip": "ym2612"
    },
    {
      "channel": 2,
      "note": 33,
      "start": 34.9597,
      "duration": 0.016,
      "velocity": 102,
      "chip": "ym2612"
    },
    {
      "channel": 3,
      "note": 24,
      "start": 34.9603,
      "duration": 0.1151,
      "velocity": 116,
      "chip": "ym2612"
    },
    {
      "channel": 4,
      "note": 36,
      "start": 34.961,
      "duration": 3.178,
      "velocity": 112,
      "chip": "ym2612"
    },
    {
      "channel": 5,
      "note": 35,
      "start": 35.0602,
      "duration": 0.0165,
      "velocity": 102,
      "chip": "ym2612"
    },
    {
      "channel": 2,
      "note": 36,
      "start": 35.158,
      "duration": 0.0164,
      "velocity": 102,
      "chip": "ym2612"
    },
    {
      "channel": 3,
      "note": 36,
      "start": 35.1586,
      "duration": 0.1156,
      "velocity": 116,
      "chip": "ym2612"
    },
    {
      "channel": 5,
      "note": 33,
      "start": 35.2589,
      "duration": 0.0164,
      "velocity": 102,
      "chip": "ym2612"
    },
    {
      "channel": 2,
      "note": 40,
      "start": 35.3566,
      "duration": 0.0164,
      "velocity": 102,
      "chip": "ym2612"
    },
    {
      "channel": 3,
      "note": 24,
      "start": 35.3573,
      "duration": 0.1155,
      "velocity": 117,
      "chip": "ym2612"
    },
    {
      "channel": 5,
      "note": 36,
      "start": 35.4575,
      "duration": 0.0165,
      "velocity": 102,
      "chip": "ym2612"
    },
    {
      "channel": 2,
      "note": 43,
      "start": 35.5552,
      "duration": 0.0164,
      "velocity": 102,
      "chip": "ym2612"
    },
    {
      "channel": 3,
      "note": 24,
      "start": 35.5558,
      "duration": 0.1156,
      "velocity": 117,
      "chip": "ym2612"
    },
    {
      "channel": 5,
      "note": 40,
      "start": 35.6561,
      "duration": 0.0164,
      "velocity": 102,
      "chip": "ym2612"
    },
    {
      "channel": 2,
      "note": 47,
      "start": 35.7539,
      "duration": 0.0164,
      "velocity": 102,
      "chip": "ym2612"
    },
    {
      "channel": 3,
      "note": 36,
      "start": 35.7545,
      "duration": 0.1155,
      "velocity": 118,
      "chip": "ym2612"
    },
    {
      "channel": 5,
      "note": 43,
      "start": 35.8547,
      "duration": 0.0165,
      "velocity": 102,
      "chip": "ym2612"
    },
    {
      "channel": 2,
      "note": 48,
      "start": 35.9524,
      "duration": 0.0164,
      "velocity": 102,
      "chip": "ym2612"
    },
    {
      "channel": 3,
      "note": 24,
      "start": 35.9531,
      "duration": 0.1156,
      "velocity": 118,
      "chip": "ym2612"
    },
    {
      "channel": 5,
      "note": 47,
      "start": 36.0533,
      "duration": 0.0164,
      "velocity": 102,
      "chip": "ym2612"
    },
    {
      "channel": 2,
      "note": 47,
      "start": 36.1511,
      "duration": 0.0163,
      "velocity": 102,
      "chip": "ym2612"
    },
    {
      "channel": 3,
      "note": 24,
      "start": 36.1517,
      "duration": 0.1155,
      "velocity": 119,
      "chip": "ym2612"
    },
    {
      "channel": 5,
      "note": 48,
      "start": 36.252,
      "duration": 0.0165,
      "velocity": 102,
      "chip": "ym2612"
    },
    {
      "channel": 2,
      "note": 45,
      "start": 36.3497,
      "duration": 0.0164,
      "velocity": 102,
      "chip": "ym2612"
    },
    {
      "channel": 3,
      "note": 36,
      "start": 36.3504,
      "duration": 0.1156,
      "velocity": 119,
      "chip": "ym2612"
    },
    {
      "channel": 5,
      "note": 47,
      "start": 36.4506,
      "duration": 0.0164,
      "velocity": 102,
      "chip": "ym2612"
    },
    {
      "channel": 2,
      "note": 43,
      "start": 36.5483,
      "duration": 0.0164,
      "velocity": 102,
      "chip": "ym2612"
    },
    {
      "channel": 3,
      "note": 24,
      "start": 36.549,
      "duration": 0.1156,
      "velocity": 120,
      "chip": "ym2612"
    },
    {
      "channel": 5,
      "note": 45,
      "start": 36.6492,
      "duration": 0.0165,
      "velocity": 102,
      "chip": "ym2612"
    },
    {
      "channel": 2,
      "note": 45,
      "start": 36.747,
      "duration": 0.0164,
      "velocity": 102,
      "chip": "ym2612"
    },
    {
      "channel": 3,
      "note": 36,
      "start": 36.7476,
      "duration": 0.1156,
      "velocity": 120,
      "chip": "ym2612"
    },
    {
      "channel": 5,
      "note": 43,
      "start": 36.8479,
      "duration": 0.0164,
      "velocity": 102,
      "chip": "ym2612"
    },
    {
      "channel": 2,
      "note": 43,
      "start": 36.9456,
      "duration": 0.0164,
      "velocity": 102,
      "chip": "ym2612"
    },
    {
      "channel": 3,
      "note": 24,
      "start": 36.9462,
      "duration": 0.1156,
      "velocity": 121,
      "chip": "ym2612"
    },
    {
      "channel": 5,
      "note": 45,
      "start": 37.0465,
      "duration": 0.0165,
      "velocity": 102,
      "chip": "ym2612"
    },
    {
      "channel": 2,
      "note": 40,
      "start": 37.1442,
      "duration": 0.0164,
      "velocity": 102,
      "chip": "ym2612"
    },
    {
      "channel": 3,
      "note": 24,
      "start": 37.1449,
      "duration": 0.1156,
      "velocity": 121,
      "chip": "ym2612"
    },
    {
      "channel": 5,
      "note": 43,
      "start": 37.2451,
      "duration": 0.0164,
      "velocity": 102,
      "chip": "ym2612"
    },
    {
      "channel": 2,
      "note": 36,
      "start": 37.3429,
      "duration": 0.0164,
      "velocity": 102,
      "chip": "ym2612"
    },
    {
      "channel": 3,
      "note": 36,
      "start": 37.3435,
      "duration": 0.1156,
      "velocity": 122,
      "chip": "ym2612"
    },
    {
      "channel": 5,
      "note": 40,
      "start": 37.4437,
      "duration": 0.0165,
      "velocity": 102,
      "chip": "ym2612"
    },
    {
      "channel": 2,
      "note": 40,
      "start": 37.5415,
      "duration": 0.0165,
      "velocity": 102,
      "chip": "ym2612"
    },
    {
      "channel": 3,
      "note": 24,
      "start": 37.5422,
      "duration": 0.1156,
      "velocity": 122,
      "chip": "ym2612"
    },
    {
      "channel": 5,
      "note": 36,
      "start": 37.6424,
      "duration": 0.0165,
      "velocity": 102,
      "chip": "ym2612"
    },
    {
      "channel": 2,
      "note": 36,
      "start": 37.7402,
      "duration": 0.0164,
      "velocity": 102,
      "chip": "ym2612"
    },
    {
      "channel": 3,
      "note": 26,
      "start": 37.7408,
      "duration": 0.1156,
      "velocity": 123,
      "chip": "ym2612"
    },
    {
      "channel": 5,
      "note": 40,
      "start": 37.8411,
      "duration": 0.0164,
      "velocity": 102,
      "chip": "ym2612"
    },
    {
      "channel": 2,
      "note": 35,
      "start": 37.9388,
      "duration": 0.0164,
      "velocity": 102,
      "chip": "ym2612"
    },
    {
      "channel": 3,
      "note": 38,
      "start": 37.9395,
      "duration": 0.1155,
      "velocity": 123,
      "chip": "ym2612"
    },
    {
      "channel": 5,
      "note": 36,
      "start": 38.0397,
      "duration": 0.0165,
      "velocity": 102,
      "chip": "ym2612"
    },
    {
      "channel": 0,
      "note": 28,
      "start": 38.1363,
      "duration": 3.1776,
      "velocity": 112,
      "chip": "ym2612"
    },
    {
      "channel": 1,
      "note": 31,
      "start": 38.1371,
      "duration": 3.1776,
      "velocity": 112,
      "chip": "ym2612"
    },
    {
      "channel": 2,
      "note": 7,
      "start": 38.1383,
      "duration": 0.1147,
      "velocity": 1,
      "chip": "ym2612"
    },
    {
      "channel": 3,
      "note": 28,
      "start": 38.1389,
      "duration": 0.1146,
      "velocity": 124,
      "chip": "ym2612"
    },
    {
      "channel": 4,
      "note": 35,
      "start": 38.1397,
      "duration": 3.1769,
      "velocity": 112,
      "chip": "ym2612"
    },
    {
      "channel": 5,
      "note": 7,
      "start": 38.1409,
      "duration": 0.1137,
      "velocity": 1,
      "chip": "ym2612"
    },
    {
      "channel": 3,
      "note": 40,
      "start": 38.3364,
      "duration": 0.1157,
      "velocity": 124,
      "chip": "ym2612"
    },
    {
      "channel": 3,
      "note": 28,
      "start": 38.535,
      "duration": 0.1158,
      "velocity": 123,
      "chip": "ym2612"
    },
    {
      "channel": 3,
      "note": 28,
      "start": 38.7337,
      "duration": 0.1157,
      "velocity": 123,
      "chip": "ym2612"
    },
    {
      "channel": 3,
      "note": 40,
      "start": 38.9323,
      "duration": 0.1157,
      "velocity": 122,
      "chip": "ym2612"
    },
    {
      "channel": 3,
      "note": 28,
      "start": 39.131,
      "duration": 0.1157,
      "velocity": 122,
      "chip": "ym2612"
    },
    {
      "channel": 3,
      "note": 28,
      "start": 39.3295,
      "duration": 0.1157,
      "velocity": 121,
      "chip": "ym2612"
    },
    {
      "channel": 3,
      "note": 40,
      "start": 39.5282,
      "duration": 0.1157,
      "velocity": 121,
      "chip": "ym2612"
    },
    {
      "channel": 3,
      "note": 28,
      "start": 39.7268,
      "duration": 0.1157,
      "velocity": 120,
      "chip": "ym2612"
    },
    {
      "channel": 3,
      "note": 40,
      "start": 39.9255,
      "duration": 0.1158,
      "velocity": 120,
      "chip": "ym2612"
    },
    {
      "channel": 3,
      "note": 28,
      "start": 40.1241,
      "duration": 0.1157,
      "velocity": 119,
      "chip": "ym2612"
    },
    {
      "channel": 3,
      "note": 28,
      "start": 40.3228,
      "duration": 0.1156,
      "velocity": 119,
      "chip": "ym2612"
    },
    {
      "channel": 3,
      "note": 40,
      "start": 40.5213,
      "duration": 0.1157,
      "velocity": 118,
      "chip": "ym2612"
    },
    {
      "channel": 3,
      "note": 28,
      "start": 40.72,
      "duration": 0.1158,
      "velocity": 118,
      "chip": "ym2612"
    },
    {
      "channel": 3,
      "note": 28,
      "start": 40.9186,
      "duration": 0.1157,
      "velocity": 117,
      "chip": "ym2612"
    },
    {
      "channel": 3,
      "note": 40,
      "start": 41.1172,
      "duration": 0.1157,
      "velocity": 117,
      "chip": "ym2612"
    },
    {
      "channel": 0,
      "note": 17,
      "start": 41.3144,
      "duration": 3.1775,
      "velocity": 112,
      "chip": "ym2612"
    },
    {
      "channel": 1,
      "note": 33,
      "start": 41.3152,
      "duration": 3.1775,
      "velocity": 112,
      "chip": "ym2612"
    },
    {
      "channel": 2,
      "note": 7,
      "start": 41.3158,
      "duration": 0.1153,
      "velocity": 1,
      "chip": "ym2612"
    },
    {
      "channel": 3,
      "note": 24,
      "start": 41.3164,
      "duration": 0.1151,
      "velocity": 116,
      "chip": "ym2612"
    },
    {
      "channel": 4,
      "note": 36,
      "start": 41.3171,
      "duration": 3.1774,
      "velocity": 112,
      "chip": "ym2612"
    },
    {
      "channel": 5,
      "note": 7,
      "start": 41.3178,
      "duration": 0.1148,
      "velocity": 1,
      "chip": "ym2612"
    },
    {
      "channel": 3,
      "note": 36,
      "start": 41.5145,
      "duration": 0.1157,
      "velocity": 116,
      "chip": "ym2612"
    },
    {
      "channel": 3,
      "note": 24,
      "start": 41.7132,
      "duration": 0.1157,
      "velocity": 117,
      "chip": "ym2612"
    },
    {
      "channel": 3,
      "note": 24,
      "start": 41.9117,
      "duration": 0.1157,
      "velocity": 117,
      "chip": "ym2612"
    },
    {
      "channel": 3,
      "note": 36,
      "start": 42.1104,
      "duration": 0.1157,
      "velocity": 118,
      "chip": "ym2612"
    },
    {
      "channel": 3,
      "note": 24,
      "start": 42.309,
      "duration": 0.1158,
      "velocity": 118,
      "chip": "ym2612"
    },
    {
      "channel": 3,
      "note": 24,
      "start": 42.5077,
      "duration": 0.1157,
      "velocity": 119,
      "chip": "ym2612"
    },
    {
      "channel": 3,
      "note": 36,
      "start": 42.7063,
      "duration": 0.1156,
      "velocity": 119,
      "chip": "ym2612"
    },
    {
      "channel": 3,
      "note": 24,
      "start": 42.9049,
      "duration": 0.1157,
      "velocity": 120,
      "chip": "ym2612"
    },
    {
      "channel": 3,
      "note": 36,
      "start": 43.1035,
      "duration": 0.1157,
      "velocity": 120,
      "chip": "ym2612"
    },
    {
      "channel": 3,
      "note": 24,
      "start": 43.3021,
      "duration": 0.1158,
      "velocity": 121,
      "chip": "ym2612"
    },
    {
      "channel": 3,
      "note": 24,
      "start": 43.5008,
      "duration": 0.1157,
      "velocity": 121,
      "chip": "ym2612"
    },
    {
      "channel": 3,
      "note": 36,
      "start": 43.6994,
      "duration": 0.1158,
      "velocity": 122,
      "chip": "ym2612"
    },
    {
      "channel": 3,
      "note": 24,
      "start": 43.8981,
      "duration": 0.1157,
      "velocity": 122,
      "chip": "ym2612"
    },
    {
      "channel": 3,
      "note": 26,
      "start": 44.0967,
      "duration": 0.1157,
      "velocity": 123,
      "chip": "ym2612"
    },
    {
      "channel": 3,
      "note": 38,
      "start": 44.2953,
      "duration": 0.1157,
      "velocity": 123,
      "chip": "ym2612"
    },
    {
      "channel": 0,
      "note": 31,
      "start": 44.4925,
      "duration": 3.1775,
      "velocity": 112,
      "chip": "ym2612"
    },
    {
      "channel": 1,
      "note": 35,
      "start": 44.4932,
      "duration": 3.1776,
      "velocity": 112,
      "chip": "ym2612"
    },
    {
      "channel": 3,
      "note": 28,
      "start": 44.4943,
      "duration": 0.1153,
      "velocity": 124,
      "chip": "ym2612"
    },
    {
      "channel": 4,
      "note": 38,
      "start": 44.495,
      "duration": 3.1776,
      "velocity": 112,
      "chip": "ym2612"
    },
    {
      "channel": 5,
      "note": 7,
      "start": 44.4956,
      "duration": 0.115,
      "velocity": 1,
      "chip": "ym2612"
    },
    {
      "channel": 3,
      "note": 40,
      "start": 44.6926,
      "duration": 0.1158,
      "velocity": 124,
      "chip": "ym2612"
    },
    {
      "channel": 3,
      "note": 28,
      "start": 44.8912,
      "duration": 0.1157,
      "velocity": 123,
      "chip": "ym2612"
    },
    {
      "channel": 3,
      "note": 28,
      "start": 45.0899,
      "duration": 0.1157,
      "velocity": 123,
      "chip": "ym2612"
    },
    {
      "channel": 3,
      "note": 40,
      "start": 45.2885,
      "duration": 0.1157,
      "velocity": 122,
      "chip": "ym2612"
    },
    {
      "channel": 3,
      "note": 28,
      "start": 45.4871,
      "duration": 0.1157,
      "velocity": 122,
      "chip": "ym2612"
    },
    {
      "channel": 3,
      "note": 28,
      "start": 45.6857,
      "duration": 0.1157,
      "velocity": 121,
      "chip": "ym2612"
    },
    {
      "channel": 3,
      "note": 40,
      "start": 45.8844,
      "duration": 0.1157,
      "velocity": 121,
      "chip": "ym2612"
    },
    {
      "channel": 3,
      "note": 28,
      "start": 46.083,
      "duration": 0.1157,
      "velocity": 120,
      "chip": "ym2612"
    },
    {
      "channel": 3,
      "note": 40,
      "start": 46.2816,
      "duration": 0.1158,
      "velocity": 120,
      "chip": "ym2612"
    },
    {
      "channel": 3,
      "note": 28,
      "start": 46.4802,
      "duration": 0.1157,
      "velocity": 119,
      "chip": "ym2612"
    },
    {
      "channel": 3,
      "note": 28,
      "start": 46.6788,
      "duration": 0.1157,
      "velocity": 119,
      "chip": "ym2612"
    },
    {
      "channel": 3,
      "note": 40,
      "start": 46.8775,
      "duration": 0.1157,
      "velocity": 118,
      "chip": "ym2612"
    },
    {
      "channel": 3,
      "note": 28,
      "start": 47.0761,
      "duration": 0.1157,
      "velocity": 118,
      "chip": "ym2612"
    },
    {
      "channel": 3,
      "note": 28,
      "start": 47.2748,
      "duration": 0.1158,
      "velocity": 117,
      "chip": "ym2612"
    },
    {
      "channel": 3,
      "note": 40,
      "start": 47.4734,
      "duration": 0.1156,
      "velocity": 117,
      "chip": "ym2612"
    },
    {
      "channel": 0,
      "note": 33,
      "start": 47.6706,
      "duration": 3.1775,
      "velocity": 112,
      "chip": "ym2612"
    },
    {
      "channel": 1,
      "note": 36,
      "start": 47.6713,
      "duration": 3.1775,
      "velocity": 112,
      "chip": "ym2612"
    },
    {
      "channel": 3,
      "note": 33,
      "start": 47.6724,
      "duration": 0.1153,
      "velocity": 117,
      "chip": "ym2612"
    },
    {
      "channel": 4,
      "note": 40,
      "start": 47.6732,
      "duration": 3.179,
      "velocity": 112,
      "chip": "ym2612"
    },
    {
      "channel": 5,
      "note": 7,
      "start": 47.6738,
      "duration": 0.1149,
      "velocity": 1,
      "chip": "ym2612"
    },
    {
      "channel": 3,
      "note": 45,
      "start": 47.8707,
      "duration": 0.1157,
      "velocity": 117,
      "chip": "ym2612"
    },
    {
      "channel": 3,
      "note": 33,
      "start": 48.0693,
      "duration": 0.1157,
      "velocity": 117,
      "chip": "ym2612"
    },
    {
      "channel": 3,
      "note": 33,
      "start": 48.2679,
      "duration": 0.1157,
      "velocity": 117,
      "chip": "ym2612"
    },
    {
      "channel": 3,
      "note": 45,
      "start": 48.4666,
      "duration": 0.1157,
      "velocity": 117,
      "chip": "ym2612"
    },
    {
      "channel": 3,
      "note": 33,
      "start": 48.6652,
      "duration": 0.1157,
      "velocity": 117,
      "chip": "ym2612"
    },
    {
      "channel": 3,
      "note": 33,
      "start": 48.8638,
      "duration": 0.1157,
      "velocity": 117,
      "chip": "ym2612"
    },
    {
      "channel": 3,
      "note": 45,
      "start": 49.0624,
      "duration": 0.1157,
      "velocity": 117,
      "chip": "ym2612"
    },
    {
      "channel": 3,
      "note": 33,
      "start": 49.261,
      "duration": 0.1158,
      "velocity": 117,
      "chip": "ym2612"
    },
    {
      "channel": 3,
      "note": 45,
      "start": 49.4597,
      "duration": 0.1157,
      "velocity": 117,
      "chip": "ym2612"
    },
    {
      "channel": 3,
      "note": 33,
      "start": 49.6584,
      "duration": 0.1157,
      "velocity": 117,
      "chip": "ym2612"
    },
    {
      "channel": 3,
      "note": 33,
      "start": 49.857,
      "duration": 0.1157,
      "velocity": 117,
      "chip": "ym2612"
    },
    {
      "channel": 3,
      "note": 45,
      "start": 50.0556,
      "duration": 0.1157,
      "velocity": 117,
      "chip": "ym2612"
    },
    {
      "channel": 2,
      "note": 53,
      "start": 50.2544,
      "duration": 0.1648,
      "velocity": 1,
      "chip": "ym2612"
    },
    {
      "channel": 3,
      "note": 33,
      "start": 50.2551,
      "duration": 0.1149,
      "velocity": 117,
      "chip": "ym2612"
    },
    {
      "channel": 2,
      "note": 72,
      "start": 50.453,
      "duration": 0.3966,
      "velocity": 113,
      "chip": "ym2612"
    },
    {
      "channel": 3,
      "note": 45,
      "start": 50.4536,
      "duration": 0.1149,
      "velocity": 117,
      "chip": "ym2612"
    },
    {
      "channel": 3,
      "note": 33,
      "start": 50.6515,
      "duration": 0.1157,
      "velocity": 117,
      "chip": "ym2612"
    },
    {
      "channel": 0,
      "note": 28,
      "start": 50.8487,
      "duration": 3.1775,
      "velocity": 112,
      "chip": "ym2612"
    },
    {
      "channel": 1,
      "note": 31,
      "start": 50.8494,
      "duration": 3.1775,
      "velocity": 112,
      "chip": "ym2612"
    },
    {
      "channel": 2,
      "note": 53,
      "start": 50.8507,
      "duration": 0.1644,
      "velocity": 1,
      "chip": "ym2612"
    },
    {
      "channel": 3,
      "note": 55,
      "start": 50.8521,
      "duration": 2.3814,
      "velocity": 88,
      "chip": "ym2612"
    },
    {
      "channel": 4,
      "note": 35,
      "start": 50.8528,
      "duration": 3.1767,
      "velocity": 112,
      "chip": "ym2612"
    },
    {
      "channel": 5,
      "note": 16,
      "start": 50.854,
      "duration": 0.1628,
      "velocity": 113,
      "chip": "ym2612"
    },
    {
      "channel": 2,
      "note": 72,
      "start": 51.0489,
      "duration": 0.1975,
      "velocity": 113,
      "chip": "ym2612"
    },
    {
      "channel": 5,
      "note": 28,
      "start": 51.0507,
      "duration": 0.1646,
      "velocity": 113,
      "chip": "ym2612"
    },
    {
      "channel": 2,
      "note": 21,
      "start": 51.2475,
      "duration": 0.1975,
      "velocity": 126,
      "chip": "ym2612"
    },
    {
      "channel": 5,
      "note": 16,
      "start": 51.2493,
      "duration": 0.1646,
      "velocity": 113,
      "chip": "ym2612"
    },
    {
      "channel": 2,
      "note": 53,
      "start": 51.4461,
      "duration": 0.1648,
      "velocity": 1,
      "chip": "ym2612"
    },
    {
      "channel": 5,
      "note": 16,
      "start": 51.4479,
      "duration": 0.1647,
      "velocity": 113,
      "chip": "ym2612"
    },
    {
      "channel": 2,
      "note": 53,
      "start": 51.6442,
      "duration": 0.1654,
      "velocity": 1,
      "chip": "ym2612"
    },
    {
      "channel": 5,
      "note": 28,
      "start": 51.646,
      "duration": 0.1652,
      "velocity": 113,
      "chip": "ym2612"
    },
    {
      "channel": 5,
      "note": 16,
      "start": 51.8445,
      "duration": 0.1653,
      "velocity": 113,
      "chip": "ym2612"
    },
    {
      "channel": 2,
      "note": 21,
      "start": 52.042,
      "duration": 0.3962,
      "velocity": 126,
      "chip": "ym2612"
    },
    {
      "channel": 5,
      "note": 16,
      "start": 52.0438,
      "duration": 0.1646,
      "velocity": 113,
      "chip": "ym2612"
    },
    {
      "channel": 5,
      "note": 28,
      "start": 52.2417,
      "duration": 0.1654,
      "velocity": 113,
      "chip": "ym2612"
    },
    {
      "channel": 2,
      "note": 53,
      "start": 52.4393,
      "duration": 0.1648,
      "velocity": 1,
      "chip": "ym2612"
    },
    {
      "channel": 5,
      "note": 16,
      "start": 52.4412,
      "duration": 0.1646,
      "velocity": 113,
      "chip": "ym2612"
    },
    {
      "channel": 2,
      "note": 84,
      "start": 52.6379,
      "duration": 0.1975,
      "velocity": 113,
      "chip": "ym2612"
    },
    {
      "channel": 5,
      "note": 28,
      "start": 52.6397,
      "duration": 0.1646,
      "velocity": 113,
      "chip": "ym2612"
    },
    {
      "channel": 2,
      "note": 21,
      "start": 52.8366,
      "duration": 0.1975,
      "velocity": 126,
      "chip": "ym2612"
    },
    {
      "channel": 5,
      "note": 16,
      "start": 52.8383,
      "duration": 0.1646,
      "velocity": 113,
      "chip": "ym2612"
    },
    {
      "channel": 2,
      "note": 53,
      "start": 53.0352,
      "duration": 0.1648,
      "velocity": 1,
      "chip": "ym2612"
    },
    {
      "channel": 5,
      "note": 16,
      "start": 53.037,
      "duration": 0.1647,
      "velocity": 113,
      "chip": "ym2612"
    },
    {
      "channel": 2,
      "note": 53,
      "start": 53.2332,
      "duration": 0.1654,
      "velocity": 1,
      "chip": "ym2612"
    },
    {
      "channel": 3,
      "note": 52,
      "start": 53.2341,
      "duration": 0.3971,
      "velocity": 88,
      "chip": "ym2612"
    },
    {
      "channel": 5,
      "note": 28,
      "start": 53.2352,
      "duration": 0.1651,
      "velocity": 113,
      "chip": "ym2612"
    },
    {
      "channel": 5,
      "note": 16,
      "start": 53.4336,
      "duration": 0.1653,
      "velocity": 113,
      "chip": "ym2612"
    },
    {
      "channel": 2,
      "note": 21,
      "start": 53.6311,
      "duration": 0.3965,
      "velocity": 126,
      "chip": "ym2612"
    },
    {
      "channel": 3,
      "note": 55,
      "start": 53.6318,
      "duration": 2.7797,
      "velocity": 88,
      "chip": "ym2612"
    },
    {
      "channel": 5,
      "note": 28,
      "start": 53.633,
      "duration": 0.1645,
      "velocity": 113,
      "chip": "ym2612"
    },
    {
      "channel": 5,
      "note": 16,
      "start": 53.8307,
      "duration": 0.1654,
      "velocity": 113,
      "chip": "ym2612"
    },
    {
      "channel": 0,
      "note": 17,
      "start": 54.0268,
      "duration": 3.1776,
      "velocity": 112,
      "chip": "ym2612"
    },
    {
      "channel": 1,
      "note": 33,
      "start": 54.0275,
      "duration": 3.1775,
      "velocity": 112,
      "chip": "ym2612"
    },
    {
      "channel": 2,
      "note": 53,
      "start": 54.0287,
      "duration": 0.1644,
      "velocity": 1,
      "chip": "ym2612"
    },
    {
      "channel": 4,
      "note": 36,
      "start": 54.0301,
      "duration": 3.1778,
      "velocity": 112,
      "chip": "ym2612"
    },
    {
      "channel": 5,
      "note": 12,
      "start": 54.0307,
      "duration": 0.1641,
      "velocity": 113,
      "chip": "ym2612"
    },
    {
      "channel": 2,
      "note": 72,
      "start": 54.2269,
      "duration": 0.1975,
      "velocity": 113,
      "chip": "ym2612"
    },
    {
      "channel": 5,
      "note": 24,
      "start": 54.2287,
      "duration": 0.1646,
      "velocity": 113,
      "chip": "ym2612"
    },
    {
      "channel": 2,
      "note": 21,
      "start": 54.4256,
      "duration": 0.1976,
      "velocity": 126,
      "chip": "ym2612"
    },
    {
      "channel": 5,
      "note": 12,
      "start": 54.4273,
      "duration": 0.1647,
      "velocity": 113,
      "chip": "ym2612"
    },
    {
      "channel": 2,
      "note": 53,
      "start": 54.6243,
      "duration": 0.1648,
      "velocity": 1,
      "chip": "ym2612"
    },
    {
      "channel": 5,
      "note": 12,
      "start": 54.6261,
      "duration": 0.1646,
      "velocity": 113,
      "chip": "ym2612"
    },
    {
      "channel": 2,
      "note": 53,
      "start": 54.8223,
      "duration": 0.1654,
      "velocity": 1,
      "chip": "ym2612"
    },
    {
      "channel": 5,
      "note": 24,
      "start": 54.8241,
      "duration": 0.1652,
      "velocity": 113,
      "chip": "ym2612"
    },
    {
      "channel": 5,
      "note": 12,
      "start": 55.0226,
      "duration": 0.1654,
      "velocity": 113,
      "chip": "ym2612"
    },
    {
      "channel": 2,
      "note": 21,
      "start": 55.2201,
      "duration": 0.3962,
      "velocity": 126,
      "chip": "ym2612"
    },
    {
      "channel": 5,
      "note": 12,
      "start": 55.2219,
      "duration": 0.1646,
      "velocity": 113,
      "chip": "ym2612"
    },
    {
      "channel": 5,
      "note": 24,
      "start": 55.4198,
      "duration": 0.1654,
      "velocity": 113,
      "chip": "ym2612"
    },
    {
      "channel": 2,
      "note": 53,
      "start": 55.6174,
      "duration": 0.1648,
      "velocity": 1,
      "chip": "ym2612"
    },
    {
      "channel": 5,
      "note": 12,
      "start": 55.6192,
      "duration": 0.1647,
      "velocity": 113,
      "chip": "ym2612"
    },
    {
      "channel": 2,
      "note": 84,
      "start": 55.816,
      "duration": 0.1975,
      "velocity": 113,
      "chip": "ym2612"
    },
    {
      "channel": 5,
      "note": 24,
      "start": 55.8178,
      "duration": 0.1646,
      "velocity": 113,
      "chip": "ym2612"
    },
    {
      "channel": 2,
      "note": 21,
      "start": 56.0146,
      "duration": 0.1975,
      "velocity": 126,
      "chip": "ym2612"
    },
    {
      "channel": 5,
      "note": 12,
      "start": 56.0164,
      "duration": 0.1646,
      "velocity": 113,
      "chip": "ym2612"
    },
    {
      "channel": 2,
      "note": 53,
      "start": 56.2133,
      "duration": 0.1648,
      "velocity": 1,
      "chip": "ym2612"
    },
    {
      "channel": 5,
      "note": 12,
      "start": 56.2151,
      "duration": 0.1646,
      "velocity": 113,
      "chip": "ym2612"
    },
    {
      "channel": 2,
      "note": 53,
      "start": 56.4114,
      "duration": 0.1654,
      "velocity": 1,
      "chip": "ym2612"
    },
    {
      "channel": 3,
      "note": 59,
      "start": 56.4121,
      "duration": 0.1978,
      "velocity": 88,
      "chip": "ym2612"
    },
    {
      "channel": 5,
      "note": 26,
      "start": 56.4133,
      "duration": 0.1651,
      "velocity": 113,
      "chip": "ym2612"
    },
    {
      "channel": 3,
      "note": 60,
      "start": 56.6106,
      "duration": 0.1987,
      "velocity": 88,
      "chip": "ym2612"
    },
    {
      "channel": 5,
      "note": 14,
      "start": 56.6118,
      "duration": 0.1652,
      "velocity": 113,
      "chip": "ym2612"
    },
    {
      "channel": 2,
      "note": 21,
      "start": 56.8091,
      "duration": 0.3966,
      "velocity": 126,
      "chip": "ym2612"
    },
    {
      "channel": 3,
      "note": 59,
      "start": 56.81,
      "duration": 0.1973,
      "velocity": 88,
      "chip": "ym2612"
    },
    {
      "channel": 5,
      "note": 14,
      "start": 56.8111,
      "duration": 0.1645,
      "velocity": 113,
      "chip": "ym2612"
    },
    {
      "channel": 3,
      "note": 57,
      "start": 57.0079,
      "duration": 0.1992,
      "velocity": 88,
      "chip": "ym2612"
    },
    {
      "channel": 5,
      "note": 26,
      "start": 57.009,
      "duration": 0.1652,
      "velocity": 113,
      "chip": "ym2612"
    },
    {
      "channel": 0,
      "note": 31,
      "start": 57.2049,
      "duration": 3.1775,
      "velocity": 112,
      "chip": "ym2612"
    },
    {
      "channel": 1,
      "note": 35,
      "start": 57.2056,
      "duration": 3.1775,
      "velocity": 112,
      "chip": "ym2612"
    },
    {
      "channel": 2,
      "note": 53,
      "start": 57.2069,
      "duration": 0.1644,
      "velocity": 1,
      "chip": "ym2612"
    },
    {
      "channel": 3,
      "note": 59,
      "start": 57.2077,
      "duration": 2.382,
      "velocity": 88,
      "chip": "ym2612"
    },
    {
      "channel": 4,
      "note": 38,
      "start": 57.2084,
      "duration": 3.1773,
      "velocity": 112,
      "chip": "ym2612"
    },
    {
      "channel": 5,
      "note": 28,
      "start": 57.209,
      "duration": 0.1639,
      "velocity": 113,
      "chip": "ym2612"
    },
    {
      "channel": 2,
      "note": 72,
      "start": 57.405,
      "duration": 0.1976,
      "velocity": 113,
      "chip": "ym2612"
    },
    {
      "channel": 5,
      "note": 40,
      "start": 57.4068,
      "duration": 0.1646,
      "velocity": 113,
      "chip": "ym2612"
    },
    {
      "channel": 2,
      "note": 21,
      "start": 57.6037,
      "duration": 0.1975,
      "velocity": 126,
      "chip": "ym2612"
    },
    {
      "channel": 5,
      "note": 28,
      "start": 57.6054,
      "duration": 0.1646,
      "velocity": 113,
      "chip": "ym2612"
    },
    {
      "channel": 2,
      "note": 53,
      "start": 57.8023,
      "duration": 0.1648,
      "velocity": 1,
      "chip": "ym2612"
    },
    {
      "channel": 5,
      "note": 28,
      "start": 57.8041,
      "duration": 0.1647,
      "velocity": 113,
      "chip": "ym2612"
    },
    {
      "channel": 2,
      "note": 53,
      "start": 58.0004,
      "duration": 0.1654,
      "velocity": 1,
      "chip": "ym2612"
    },
    {
      "channel": 5,
      "note": 40,
      "start": 58.0022,
      "duration": 0.1652,
      "velocity": 113,
      "chip": "ym2612"
    },
    {
      "channel": 5,
      "note": 28,
      "start": 58.2006,
      "duration": 0.1654,
      "velocity": 113,
      "chip": "ym2612"
    },
    {
      "channel": 2,
      "note": 21,
      "start": 58.3982,
      "duration": 0.3961,
      "velocity": 126,
      "chip": "ym2612"
    },
    {
      "channel": 5,
      "note": 28,
      "start": 58.4,
      "duration": 0.1646,
      "velocity": 113,
      "chip": "ym2612"
    },
    {
      "channel": 5,
      "note": 40,
      "start": 58.5978,
      "duration": 0.1654,
      "velocity": 113,
      "chip": "ym2612"
    },
    {
      "channel": 2,
      "note": 53,
      "start": 58.7955,
      "duration": 0.1648,
      "velocity": 1,
      "chip": "ym2612"
    },
    {
      "channel": 5,
      "note": 28,
      "start": 58.7973,
      "duration": 0.1646,
      "velocity": 113,
      "chip": "ym2612"
    },
    {
      "channel": 2,
      "note": 84,
      "start": 58.9941,
      "duration": 0.1975,
      "velocity": 113,
      "chip": "ym2612"
    },
    {
      "channel": 5,
      "note": 40,
      "start": 58.9958,
      "duration": 0.1646,
      "velocity": 113,
      "chip": "ym2612"
    },
    {
      "channel": 2,
      "note": 21,
      "start": 59.1927,
      "duration": 0.1976,
      "velocity": 126,
      "chip": "ym2612"
    },
    {
      "channel": 5,
      "note": 28,
      "start": 59.1945,
      "duration": 0.1646,
      "velocity": 113,
      "chip": "ym2612"
    },
    {
      "channel": 2,
      "note": 53,
      "start": 59.3915,
      "duration": 0.1648,
      "velocity": 1,
      "chip": "ym2612"
    },
    {
      "channel": 5,
      "note": 28,
      "start": 59.3932,
      "duration": 0.1646,
      "velocity": 113,
      "chip": "ym2612"
    },
    {
      "channel": 2,
      "note": 53,
      "start": 59.5895,
      "duration": 0.1653,
      "velocity": 1,
      "chip": "ym2612"
    },
    {
      "channel": 3,
      "note": 59,
      "start": 59.5902,
      "duration": 0.1978,
      "velocity": 88,
      "chip": "ym2612"
    },
    {
      "channel": 5,
      "note": 40,
      "start": 59.5915,
      "duration": 0.1651,
      "velocity": 113,
      "chip": "ym2612"
    },
    {
      "channel": 3,
      "note": 60,
      "start": 59.7887,
      "duration": 0.1987,
      "velocity": 88,
      "chip": "ym2612"
    },
    {
      "channel": 5,
      "note": 28,
      "start": 59.7899,
      "duration": 0.1651,
      "velocity": 113,
      "chip": "ym2612"
    },
    {
      "channel": 2,
      "note": 21,
      "start": 59.9873,
      "duration": 0.3965,
      "velocity": 126,
      "chip": "ym2612"
    },
    {
      "channel": 3,
      "note": 62,
      "start": 59.988,
      "duration": 2.5816,
      "velocity": 88,
      "chip": "ym2612"
    },
    {
      "channel": 5,
      "note": 28,
      "start": 59.9892,
      "duration": 0.1645,
      "velocity": 113,
      "chip": "ym2612"
    },
    {
      "channel": 5,
      "note": 26,
      "start": 60.1869,
      "duration": 0.1654,
      "velocity": 113,
      "chip": "ym2612"
    },
    {
      "channel": 0,
      "note": 29,
      "start": 60.3829,
      "duration": 3.0952,
      "velocity": 112,
      "chip": "ym2612"
    },
    {
      "channel": 1,
      "note": 33,
      "start": 60.3836,
      "duration": 3.095,
      "velocity": 112,
      "chip": "ym2612"
    },
    {
      "channel": 2,
      "note": 53,
      "start": 60.3849,
      "duration": 0.1644,
      "velocity": 1,
      "chip": "ym2612"
    },
    {
      "channel": 4,
      "note": 36,
      "start": 60.3862,
      "duration": 3.1777,
      "velocity": 112,
      "chip": "ym2612"
    },
    {
      "channel": 5,
      "note": 24,
      "start": 60.3869,
      "duration": 0.1641,
      "velocity": 113,
      "chip": "ym2612"
    },
    {
      "channel": 2,
      "note": 72,
      "start": 60.5831,
      "duration": 0.1975,
      "velocity": 113,
      "chip": "ym2612"
    },
    {
      "channel": 5,
      "note": 36,
      "start": 60.5849,
      "duration": 0.1646,
      "velocity": 113,
      "chip": "ym2612"
    },
    {
      "channel": 2,
      "note": 21,
      "start": 60.7817,
      "duration": 0.1975,
      "velocity": 126,
      "chip": "ym2612"
    },
    {
      "channel": 5,
      "note": 24,
      "start": 60.7835,
      "duration": 0.1646,
      "velocity": 113,
      "chip": "ym2612"
    },
    {
      "channel": 2,
      "note": 53,
      "start": 60.9804,
      "duration": 0.1649,
      "velocity": 1,
      "chip": "ym2612"
    },
    {
      "channel": 5,
      "note": 24,
      "start": 60.9822,
      "duration": 0.1646,
      "velocity": 113,
      "chip": "ym2612"
    },
    {
      "channel": 2,
      "note": 53,
      "start": 61.1785,
      "duration": 0.1654,
      "velocity": 1,
      "chip": "ym2612"
    },
    {
      "channel": 5,
      "note": 36,
      "start": 61.1802,
      "duration": 0.1653,
      "velocity": 113,
      "chip": "ym2612"
    },
    {
      "channel": 5,
      "note": 24,
      "start": 61.3787,
      "duration": 0.1654,
      "velocity": 113,
      "chip": "ym2612"
    },
    {
      "channel": 2,
      "note": 21,
      "start": 61.5762,
      "duration": 0.3962,
      "velocity": 126,
      "chip": "ym2612"
    },
    {
      "channel": 5,
      "note": 24,
      "start": 61.578,
      "duration": 0.1647,
      "velocity": 113,
      "chip": "ym2612"
    },
    {
      "channel": 5,
      "note": 36,
      "start": 61.7759,
      "duration": 0.1654,
      "velocity": 113,
      "chip": "ym2612"
    },
    {
      "channel": 2,
      "note": 53,
      "start": 61.9736,
      "duration": 0.1648,
      "velocity": 1,
      "chip": "ym2612"
    },
    {
      "channel": 5,
      "note": 24,
      "start": 61.9754,
      "duration": 0.1646,
      "velocity": 113,
      "chip": "ym2612"
    },
    {
      "channel": 2,
      "note": 84,
      "start": 62.1722,
      "duration": 0.1975,
      "velocity": 113,
      "chip": "ym2612"
    },
    {
      "channel": 5,
      "note": 36,
      "start": 62.1739,
      "duration": 0.1646,
      "velocity": 113,
      "chip": "ym2612"
    },
    {
      "channel": 2,
      "note": 21,
      "start": 62.3708,
      "duration": 0.1975,
      "velocity": 126,
      "chip": "ym2612"
    },
    {
      "channel": 5,
      "note": 24,
      "start": 62.3726,
      "duration": 0.1646,
      "velocity": 113,
      "chip": "ym2612"
    },
    {
      "channel": 2,
      "note": 53,
      "start": 62.5694,
      "duration": 0.1648,
      "velocity": 1,
      "chip": "ym2612"
    },
    {
      "channel": 3,
      "note": 57,
      "start": 62.5703,
      "duration": 0.1974,
      "velocity": 88,
      "chip": "ym2612"
    },
    {
      "channel": 5,
      "note": 24,
      "start": 62.5714,
      "duration": 0.1645,
      "velocity": 113,
      "chip": "ym2612"
    },
    {
      "channel": 2,
      "note": 53,
      "start": 62.7675,
      "duration": 0.1654,
      "velocity": 1,
      "chip": "ym2612"
    },
    {
      "channel": 3,
      "note": 55,
      "start": 62.7683,
      "duration": 0.3971,
      "velocity": 88,
      "chip": "ym2612"
    },
    {
      "channel": 5,
      "note": 36,
      "start": 62.7694,
      "duration": 0.1651,
      "velocity": 113,
      "chip": "ym2612"
    },
    {
      "channel": 5,
      "note": 24,
      "start": 62.9678,
      "duration": 0.1653,
      "velocity": 113,
      "chip": "ym2612"
    },
    {
      "channel": 2,
      "note": 21,
      "start": 63.1653,
      "duration": 0.3966,
      "velocity": 126,
      "chip": "ym2612"
    },
    {
      "channel": 3,
      "note": 53,
      "start": 63.1661,
      "duration": 0.3971,
      "velocity": 88,
      "chip": "ym2612"
    },
    {
      "channel": 5,
      "note": 24,
      "start": 63.1673,
      "duration": 0.1644,
      "velocity": 113,
      "chip": "ym2612"
    },
    {
      "channel": 5,
      "note": 26,
      "start": 63.365,
      "duration": 0.1653,
      "velocity": 113,
      "chip": "ym2612"
    },
    {
      "channel": 0,
      "note": 28,
      "start": 63.561,
      "duration": 3.1776,
      "velocity": 112,
      "chip": "ym2612"
    },
    {
      "channel": 1,
      "note": 31,
      "start": 63.5617,
      "duration": 3.1775,
      "velocity": 112,
      "chip": "ym2612"
    },
    {
      "channel": 2,
      "note": 53,
      "start": 63.563,
      "duration": 0.1644,
      "velocity": 1,
      "chip": "ym2612"
    },
    {
      "channel": 3,
      "note": 52,
      "start": 63.5638,
      "duration": 2.3819,
      "velocity": 88,
      "chip": "ym2612"
    },
    {
      "channel": 4,
      "note": 35,
      "start": 63.5645,
      "duration": 3.1776,
      "velocity": 112,
      "chip": "ym2612"
    },
    {
      "channel": 5,
      "note": 16,
      "start": 63.5651,
      "duration": 0.164,
      "velocity": 113,
      "chip": "ym2612"
    },
    {
      "channel": 2,
      "note": 72,
      "start": 63.7612,
      "duration": 0.1975,
      "velocity": 113,
      "chip": "ym2612"
    },
    {
      "channel": 5,
      "note": 28,
      "start": 63.7629,
      "duration": 0.1646,
      "velocity": 113,
      "chip": "ym2612"
    },
    {
      "channel": 2,
      "note": 21,
      "start": 63.9598,
      "duration": 0.1976,
      "velocity": 126,
      "chip": "ym2612"
    },
    {
      "channel": 5,
      "note": 16,
      "start": 63.9616,
      "duration": 0.1646,
      "velocity": 113,
      "chip": "ym2612"
    },
    {
      "channel": 2,
      "note": 53,
      "start": 64.1586,
      "duration": 0.1648,
      "velocity": 1,
      "chip": "ym2612"
    },
    {
      "channel": 5,
      "note": 16,
      "start": 64.1603,
      "duration": 0.1646,
      "velocity": 113,
      "chip": "ym2612"
    },
    {
      "channel": 2,
      "note": 53,
      "start": 64.3566,
      "duration": 0.1653,
      "velocity": 1,
      "chip": "ym2612"
    },
    {
      "channel": 5,
      "note": 28,
      "start": 64.3584,
      "duration": 0.1653,
      "velocity": 113,
      "chip": "ym2612"
    },
    {
      "channel": 5,
      "note": 16,
      "start": 64.5568,
      "duration": 0.1653,
      "velocity": 113,
      "chip": "ym2612"
    },
    {
      "channel": 2,
      "note": 21,
      "start": 64.7544,
      "duration": 0.3961,
      "velocity": 126,
      "chip": "ym2612"
    },
    {
      "channel": 5,
      "note": 16,
      "start": 64.7561,
      "duration": 0.1646,
      "velocity": 113,
      "chip": "ym2612"
    },
    {
      "channel": 5,
      "note": 28,
      "start": 64.954,
      "duration": 0.1654,
      "velocity": 113,
      "chip": "ym2612"
    },
    {
      "channel": 2,
      "note": 53,
      "start": 65.1516,
      "duration": 0.1648,
      "velocity": 1,
      "chip": "ym2612"
    },
    {
      "channel": 5,
      "note": 16,
      "start": 65.1535,
      "duration": 0.1646,
      "velocity": 113,
      "chip": "ym2612"
    },
    {
      "channel": 2,
      "note": 84,
      "start": 65.3502,
      "duration": 0.1975,
      "velocity": 113,
      "chip": "ym2612"
    },
    {
      "channel": 5,
      "note": 28,
      "start": 65.352,
      "duration": 0.1646,
      "velocity": 113,
      "chip": "ym2612"
    },
    {
      "channel": 2,
      "note": 21,
      "start": 65.5488,
      "duration": 0.1976,
      "velocity": 126,
      "chip": "ym2612"
    },
    {
      "channel": 5,
      "note": 16,
      "start": 65.5506,
      "duration": 0.1646,
      "velocity": 113,
      "chip": "ym2612"
    },
    {
      "channel": 2,
      "note": 53,
      "start": 65.7476,
      "duration": 0.1648,
      "velocity": 1,
      "chip": "ym2612"
    },
    {
      "channel": 5,
      "note": 16,
      "start": 65.7493,
      "duration": 0.1646,
      "velocity": 113,
      "chip": "ym2612"
    },
    {
      "channel": 2,
      "note": 53,
      "start": 65.9456,
      "duration": 0.1654,
      "velocity": 1,
      "chip": "ym2612"
    },
    {
      "channel": 3,
      "note": 55,
      "start": 65.9463,
      "duration": 0.3972,
      "velocity": 88,
      "chip": "ym2612"
    },
    {
      "channel": 5,
      "note": 28,
      "start": 65.9476,
      "duration": 0.1651,
      "velocity": 113,
      "chip": "ym2612"
    },
    {
      "channel": 5,
      "note": 16,
      "start": 66.1459,
      "duration": 0.1653,
      "velocity": 113,
      "chip": "ym2612"
    },
    {
      "channel": 2,
      "note": 21,
      "start": 66.3434,
      "duration": 0.3966,
      "velocity": 126,
      "chip": "ym2612"
    },
    {
      "channel": 3,
      "note": 52,
      "start": 66.3442,
      "duration": 0.3971,
      "velocity": 88,
      "chip": "ym2612"
    },
    {
      "channel": 5,
      "note": 28,
      "start": 66.3453,
      "duration": 0.1644,
      "velocity": 113,
      "chip": "ym2612"
    },
    {
      "channel": 5,
      "note": 16,
      "start": 66.543,
      "duration": 0.1654,
      "velocity": 113,
      "chip": "ym2612"
    },
    {
      "channel": 0,
      "note": 17,
      "start": 66.7391,
      "duration": 3.1775,
      "velocity": 112,
      "chip": "ym2612"
    },
    {
      "channel": 1,
      "note": 33,
      "start": 66.7399,
      "duration": 3.1775,
      "velocity": 112,
      "chip": "ym2612"
    },
    {
      "channel": 2,
      "note": 53,
      "start": 66.7411,
      "duration": 0.1644,
      "velocity": 1,
      "chip": "ym2612"
    },
    {
      "channel": 3,
      "note": 53,
      "start": 66.742,
      "duration": 2.382,
      "velocity": 88,
      "chip": "ym2612"
    },
    {
      "channel": 4,
      "note": 36,
      "start": 66.7427,
      "duration": 3.1775,
      "velocity": 112,
      "chip": "ym2612"
    },
    {
      "channel": 5,
      "note": 12,
      "start": 66.7433,
      "duration": 0.1639,
      "velocity": 113,
      "chip": "ym2612"
    },
    {
      "channel": 2,
      "note": 72,
      "start": 66.9393,
      "duration": 0.1975,
      "velocity": 113,
      "chip": "ym2612"
    },
    {
      "channel": 5,
      "note": 24,
      "start": 66.9411,
      "duration": 0.1645,
      "velocity": 113,
      "chip": "ym2612"
    },
    {
      "channel": 2,
      "note": 21,
      "start": 67.1379,
      "duration": 0.1975,
      "velocity": 126,
      "chip": "ym2612"
    },
    {
      "channel": 5,
      "note": 12,
      "start": 67.1397,
      "duration": 0.1646,
      "velocity": 113,
      "chip": "ym2612"
    },
    {
      "channel": 2,
      "note": 53,
      "start": 67.3366,
      "duration": 0.1648,
      "velocity": 1,
      "chip": "ym2612"
    },
    {
      "channel": 5,
      "note": 12,
      "start": 67.3384,
      "duration": 0.1646,
      "velocity": 113,
      "chip": "ym2612"
    },
    {
      "channel": 2,
      "note": 53,
      "start": 67.5346,
      "duration": 0.1654,
      "velocity": 1,
      "chip": "ym2612"
    },
    {
      "channel": 5,
      "note": 24,
      "start": 67.5364,
      "duration": 0.1652,
      "velocity": 113,
      "chip": "ym2612"
    },
    {
      "channel": 5,
      "note": 12,
      "start": 67.7349,
      "duration": 0.1654,
      "velocity": 113,
      "chip": "ym2612"
    },
    {
      "channel": 2,
      "note": 21,
      "start": 67.9324,
      "duration": 0.3962,
      "velocity": 126,
      "chip": "ym2612"
    },
    {
      "channel": 5,
      "note": 12,
      "start": 67.9342,
      "duration": 0.1646,
      "velocity": 113,
      "chip": "ym2612"
    },
    {
      "channel": 5,
      "note": 24,
      "start": 68.1321,
      "duration": 0.1654,
      "velocity": 113,
      "chip": "ym2612"
    },
    {
      "channel": 2,
      "note": 53,
      "start": 68.3298,
      "duration": 0.1648,
      "velocity": 1,
      "chip": "ym2612"
    },
    {
      "channel": 5,
      "note": 12,
      "start": 68.3315,
      "duration": 0.1646,
      "velocity": 113,
      "chip": "ym2612"
    },
    {
      "channel": 2,
      "note": 84,
      "start": 68.5283,
      "duration": 0.1976,
      "velocity": 113,
      "chip": "ym2612"
    },
    {
      "channel": 5,
      "note": 24,
      "start": 68.5301,
      "duration": 0.1646,
      "velocity": 113,
      "chip": "ym2612"
    },
    {
      "channel": 2,
      "note": 21,
      "start": 68.7269,
      "duration": 0.1975,
      "velocity": 126,
      "chip": "ym2612"
    },
    {
      "channel": 5,
      "note": 12,
      "start": 68.7287,
      "duration": 0.1646,
      "velocity": 113,
      "chip": "ym2612"
    },
    {
      "channel": 2,
      "note": 53,
      "start": 68.9256,
      "duration": 0.1649,
      "velocity": 1,
      "chip": "ym2612"
    },
    {
      "channel": 5,
      "note": 12,
      "start": 68.9274,
      "duration": 0.1648,
      "velocity": 113,
      "chip": "ym2612"
    },
    {
      "channel": 2,
      "note": 53,
      "start": 69.1237,
      "duration": 0.1654,
      "velocity": 1,
      "chip": "ym2612"
    },
    {
      "channel": 3,
      "note": 59,
      "start": 69.1245,
      "duration": 0.1978,
      "velocity": 88,
      "chip": "ym2612"
    },
    {
      "channel": 5,
      "note": 26,
      "start": 69.1257,
      "duration": 0.1651,
      "velocity": 113,
      "chip": "ym2612"
    },
    {
      "channel": 3,
      "note": 60,
      "start": 69.323,
      "duration": 0.1986,
      "velocity": 88,
      "chip": "ym2612"
    },
    {
      "channel": 5,
      "note": 14,
      "start": 69.3241,
      "duration": 0.1651,
      "velocity": 113,
      "chip": "ym2612"
    },
    {
      "channel": 2,
      "note": 21,
      "start": 69.5215,
      "duration": 0.3966,
      "velocity": 126,
      "chip": "ym2612"
    },
    {
      "channel": 3,
      "note": 59,
      "start": 69.5222,
      "duration": 0.1973,
      "velocity": 88,
      "chip": "ym2612"
    },
    {
      "channel": 5,
      "note": 14,
      "start": 69.5234,
      "duration": 0.1644,
      "velocity": 113,
      "chip": "ym2612"
    },
    {
      "channel": 3,
      "note": 57,
      "start": 69.7201,
      "duration": 0.1992,
      "velocity": 88,
      "chip": "ym2612"
    },
    {
      "channel": 5,
      "note": 26,
      "start": 69.7213,
      "duration": 0.1652,
      "velocity": 113,
      "chip": "ym2612"
    },
    {
      "channel": 0,
      "note": 31,
      "start": 69.9171,
      "duration": 3.1776,
      "velocity": 112,
      "chip": "ym2612"
    },
    {
      "channel": 1,
      "note": 35,
      "start": 69.9179,
      "duration": 3.1775,
      "velocity": 112,
      "chip": "ym2612"
    },
    {
      "channel": 2,
      "note": 53,
      "start": 69.9192,
      "duration": 0.1644,
      "velocity": 1,
      "chip": "ym2612"
    },
    {
      "channel": 3,
      "note": 59,
      "start": 69.92,
      "duration": 2.3819,
      "velocity": 88,
      "chip": "ym2612"
    },
    {
      "channel": 4,
      "note": 38,
      "start": 69.9207,
      "duration": 3.1775,
      "velocity": 112,
      "chip": "ym2612"
    },
    {
      "channel": 5,
      "note": 28,
      "start": 69.9213,
      "duration": 0.1639,
      "velocity": 113,
      "chip": "ym2612"
    },
    {
      "channel": 2,
      "note": 72,
      "start": 70.1173,
      "duration": 0.1975,
      "velocity": 113,
      "chip": "ym2612"
    },
    {
      "channel": 5,
      "note": 40,
      "start": 70.1191,
      "duration": 0.1646,
      "velocity": 113,
      "chip": "ym2612"
    },
    {
      "channel": 2,
      "note": 21,
      "start": 70.316,
      "duration": 0.1975,
      "velocity": 126,
      "chip": "ym2612"
    },
    {
      "channel": 5,
      "note": 28,
      "start": 70.3178,
      "duration": 0.1646,
      "velocity": 113,
      "chip": "ym2612"
    },
    {
      "channel": 2,
      "note": 53,
      "start": 70.5147,
      "duration": 0.1648,
      "velocity": 1,
      "chip": "ym2612"
    },
    {
      "channel": 5,
      "note": 28,
      "start": 70.5164,
      "duration": 0.1646,
      "velocity": 113,
      "chip": "ym2612"
    },
    {
      "channel": 2,
      "note": 53,
      "start": 70.7127,
      "duration": 0.1654,
      "velocity": 1,
      "chip": "ym2612"
    },
    {
      "channel": 5,
      "note": 40,
      "start": 70.7145,
      "duration": 0.1653,
      "velocity": 113,
      "chip": "ym2612"
    },
    {
      "channel": 5,
      "note": 28,
      "start": 70.9129,
      "duration": 0.1654,
      "velocity": 113,
      "chip": "ym2612"
    },
    {
      "channel": 2,
      "note": 21,
      "start": 71.1105,
      "duration": 0.3962,
      "velocity": 126,
      "chip": "ym2612"
    },
    {
      "channel": 5,
      "note": 28,
      "start": 71.1122,
      "duration": 0.1646,
      "velocity": 113,
      "chip": "ym2612"
    },
    {
      "channel": 5,
      "note": 40,
      "start": 71.3102,
      "duration": 0.1654,
      "velocity": 113,
      "chip": "ym2612"
    },
    {
      "channel": 2,
      "note": 53,
      "start": 71.5079,
      "duration": 0.1648,
      "velocity": 1,
      "chip": "ym2612"
    },
    {
      "channel": 5,
      "note": 28,
      "start": 71.5096,
      "duration": 0.1647,
      "velocity": 113,
      "chip": "ym2612"
    },
    {
      "channel": 2,
      "note": 84,
      "start": 71.7065,
      "duration": 0.1975,
      "velocity": 113,
      "chip": "ym2612"
    },
    {
      "channel": 5,
      "note": 40,
      "start": 71.7082,
      "duration": 0.1646,
      "velocity": 113,
      "chip": "ym2612"
    },
    {
      "channel": 2,
      "note": 21,
      "start": 71.905,
      "duration": 0.1975,
      "velocity": 126,
      "chip": "ym2612"
    },
    {
      "channel": 5,
      "note": 28,
      "start": 71.9068,
      "duration": 0.1646,
      "velocity": 113,
      "chip": "ym2612"
    },
    {
      "channel": 2,
      "note": 53,
      "start": 72.1037,
      "duration": 0.1649,
      "velocity": 1,
      "chip": "ym2612"
    },
    {
      "channel": 5,
      "note": 28,
      "start": 72.1055,
      "duration": 0.1646,
      "velocity": 113,
      "chip": "ym2612"
    },
    {
      "channel": 2,
      "note": 53,
      "start": 72.3017,
      "duration": 0.1654,
      "velocity": 1,
      "chip": "ym2612"
    },
    {
      "channel": 3,
      "note": 59,
      "start": 72.3025,
      "duration": 0.1978,
      "velocity": 88,
      "chip": "ym2612"
    },
    {
      "channel": 5,
      "note": 40,
      "start": 72.3037,
      "duration": 0.1651,
      "velocity": 113,
      "chip": "ym2612"
    },
    {
      "channel": 3,
      "note": 60,
      "start": 72.501,
      "duration": 0.1987,
      "velocity": 88,
      "chip": "ym2612"
    },
    {
      "channel": 5,
      "note": 28,
      "start": 72.5022,
      "duration": 0.1652,
      "velocity": 113,
      "chip": "ym2612"
    },
    {
      "channel": 2,
      "note": 21,
      "start": 72.6995,
      "duration": 0.3966,
      "velocity": 126,
      "chip": "ym2612"
    },
    {
      "channel": 3,
      "note": 62,
      "start": 72.7004,
      "duration": 0.3971,
      "velocity": 88,
      "chip": "ym2612"
    },
    {
      "channel": 5,
      "note": 28,
      "start": 72.7015,
      "duration": 0.1644,
      "velocity": 113,
      "chip": "ym2612"
    },
    {
      "channel": 5,
      "note": 26,
      "start": 72.8992,
      "duration": 0.1653,
      "velocity": 113,
      "chip": "ym2612"
    },
    {
      "channel": 0,
      "note": 29,
      "start": 73.0953,
      "duration": 3.0951,
      "velocity": 112,
      "chip": "ym2612"
    },
    {
      "channel": 1,
      "note": 40,
      "start": 73.096,
      "duration": 3.178,
      "velocity": 112,
      "chip": "ym2612"
    },
    {
      "channel": 2,
      "note": 53,
      "start": 73.0972,
      "duration": 0.1644,
      "velocity": 1,
      "chip": "ym2612"
    },
    {
      "channel": 3,
      "note": 63,
      "start": 73.0981,
      "duration": 0.0975,
      "velocity": 88,
      "chip": "ym2612"
    },
    {
      "channel": 4,
      "note": 36,
      "start": 73.0988,
      "duration": 3.1784,
      "velocity": 112,
      "chip": "ym2612"
    },
    {
      "channel": 5,
      "note": 17,
      "start": 73.0994,
      "duration": 0.1639,
      "velocity": 113,
      "chip": "ym2612"
    },
    {
      "channel": 3,
      "note": 64,
      "start": 73.1962,
      "duration": 3.0798,
      "velocity": 88,
      "chip": "ym2612"
    },
    {
      "channel": 2,
      "note": 72,
      "start": 73.2955,
      "duration": 0.1975,
      "velocity": 113,
      "chip": "ym2612"
    },
    {
      "channel": 5,
      "note": 29,
      "start": 73.2972,
      "duration": 0.1646,
      "velocity": 113,
      "chip": "ym2612"
    },
    {
      "channel": 2,
      "note": 21,
      "start": 73.4941,
      "duration": 0.1975,
      "velocity": 126,
      "chip": "ym2612"
    },
    {
      "channel": 5,
      "note": 17,
      "start": 73.4958,
      "duration": 0.1646,
      "velocity": 113,
      "chip": "ym2612"
    },
    {
      "channel": 2,
      "note": 53,
      "start": 73.6927,
      "duration": 0.1649,
      "velocity": 1,
      "chip": "ym2612"
    },
    {
      "channel": 5,
      "note": 17,
      "start": 73.6945,
      "duration": 0.1647,
      "velocity": 113,
      "chip": "ym2612"
    },
    {
      "channel": 2,
      "note": 53,
      "start": 73.8908,
      "duration": 0.1654,
      "velocity": 1,
      "chip": "ym2612"
    },
    {
      "channel": 5,
      "note": 29,
      "start": 73.8926,
      "duration": 0.1653,
      "velocity": 113,
      "chip": "ym2612"
    },
    {
      "channel": 5,
      "note": 17,
      "start": 74.0911,
      "duration": 0.1654,
      "velocity": 113,
      "chip": "ym2612"
    },
    {
      "channel": 2,
      "note": 21,
      "start": 74.2886,
      "duration": 0.3961,
      "velocity": 126,
      "chip": "ym2612"
    },
    {
      "channel": 5,
      "note": 17,
      "start": 74.2904,
      "duration": 0.1646,
      "velocity": 113,
      "chip": "ym2612"
    },
    {
      "channel": 5,
      "note": 29,
      "start": 74.4882,
      "duration": 0.1654,
      "velocity": 113,
      "chip": "ym2612"
    },
    {
      "channel": 2,
      "note": 53,
      "start": 74.6859,
      "duration": 0.1649,
      "velocity": 1,
      "chip": "ym2612"
    },
    {
      "channel": 5,
      "note": 17,
      "start": 74.6877,
      "duration": 0.1646,
      "velocity": 113,
      "chip": "ym2612"
    },
    {
      "channel": 2,
      "note": 84,
      "start": 74.8844,
      "duration": 0.1975,
      "velocity": 113,
      "chip": "ym2612"
    },
    {
      "channel": 5,
      "note": 29,
      "start": 74.8862,
      "duration": 0.1646,
      "velocity": 113,
      "chip": "ym2612"
    },
    {
      "channel": 2,
      "note": 21,
      "start": 75.0831,
      "duration": 0.1975,
      "velocity": 126,
      "chip": "ym2612"
    },
    {
      "channel": 5,
      "note": 17,
      "start": 75.0849,
      "duration": 0.1646,
      "velocity": 113,
      "chip": "ym2612"
    },
    {
      "channel": 2,
      "note": 53,
      "start": 75.2818,
      "duration": 0.1648,
      "velocity": 1,
      "chip": "ym2612"
    },
    {
      "channel": 5,
      "note": 17,
      "start": 75.2836,
      "duration": 0.1647,
      "velocity": 113,
      "chip": "ym2612"
    },
    {
      "channel": 2,
      "note": 53,
      "start": 75.4798,
      "duration": 0.1654,
      "velocity": 1,
      "chip": "ym2612"
    },
    {
      "channel": 5,
      "note": 29,
      "start": 75.4816,
      "duration": 0.1653,
      "velocity": 113,
      "chip": "ym2612"
    },
    {
      "channel": 5,
      "note": 17,
      "start": 75.6801,
      "duration": 0.1654,
      "velocity": 113,
      "chip": "ym2612"
    },
    {
      "channel": 2,
      "note": 21,
      "start": 75.8776,
      "duration": 0.3971,
      "velocity": 126,
      "chip": "ym2612"
    },
    {
      "channel": 5,
      "note": 17,
      "start": 75.8794,
      "duration": 0.1646,
      "velocity": 113,
      "chip": "ym2612"
    },
    {
      "channel": 5,
      "note": 29,
      "start": 76.0773,
      "duration": 0.1655,
      "velocity": 113,
      "chip": "ym2612"
    },
    {
      "channel": 0,
      "note": 21,
      "start": 76.2738,
      "duration": 0.1648,
      "velocity": 113,
      "chip": "ym2612"
    },
    {
      "channel": 1,
      "note": 31,
      "start": 76.2746,
      "duration": 3.1769,
      "velocity": 112,
      "chip": "ym2612"
    },
    {
      "channel": 2,
      "note": 33,
      "start": 76.2759,
      "duration": 0.0149,
      "velocity": 102,
      "chip": "ym2612"
    },
    {
      "channel": 3,
      "note": 7,
      "start": 76.2771,
      "duration": 0.1135,
      "velocity": 1,
      "chip": "ym2612"
    },
    {
      "channel": 4,
      "note": 19,
      "start": 76.2783,
      "duration": 3.1753,
      "velocity": 124,
      "chip": "ym2612"
    },
    {
      "channel": 5,
      "note": 7,
      "start": 76.2795,
      "duration": 0.112,
      "velocity": 1,
      "chip": "ym2612"
    },
    {
      "channel": 0,
      "note": 33,
      "start": 76.4719,
      "duration": 0.1654,
      "velocity": 113,
      "chip": "ym2612"
    },
    {
      "channel": 2,
      "note": 36,
      "start": 76.4731,
      "duration": 0.0163,
      "velocity": 102,
      "chip": "ym2612"
    },
    {
      "channel": 0,
      "note": 21,
      "start": 76.6705,
      "duration": 0.1653,
      "velocity": 113,
      "chip": "ym2612"
    },
    {
      "channel": 2,
      "note": 40,
      "start": 76.6717,
      "duration": 0.0163,
      "velocity": 102,
      "chip": "ym2612"
    },
    {
      "channel": 0,
      "note": 21,
      "start": 76.8691,
      "duration": 0.1654,
      "velocity": 113,
      "chip": "ym2612"
    },
    {
      "channel": 2,
      "note": 43,
      "start": 76.8703,
      "duration": 0.0163,
      "velocity": 102,
      "chip": "ym2612"
    },
    {
      "channel": 0,
      "note": 33,
      "start": 77.0678,
      "duration": 0.1653,
      "velocity": 113,
      "chip": "ym2612"
    },
    {
      "channel": 2,
      "note": 47,
      "start": 77.069,
      "duration": 0.0163,
      "velocity": 102,
      "chip": "ym2612"
    },
    {
      "channel": 0,
      "note": 21,
      "start": 77.2664,
      "duration": 0.1654,
      "velocity": 113,
      "chip": "ym2612"
    },
    {
      "channel": 2,
      "note": 48,
      "start": 77.2676,
      "duration": 0.0163,
      "velocity": 102,
      "chip": "ym2612"
    },
    {
      "channel": 0,
      "note": 21,
      "start": 77.4651,
      "duration": 0.1653,
      "velocity": 113,
      "chip": "ym2612"
    },
    {
      "channel": 2,
      "note": 47,
      "start": 77.4663,
      "duration": 0.0162,
      "velocity": 102,
      "chip": "ym2612"
    },
    {
      "channel": 0,
      "note": 33,
      "start": 77.6637,
      "duration": 0.1653,
      "velocity": 113,
      "chip": "ym2612"
    },
    {
      "channel": 2,
      "note": 45,
      "start": 77.6649,
      "duration": 0.0163,
      "velocity": 102,
      "chip": "ym2612"
    },
    {
      "channel": 0,
      "note": 21,
      "start": 77.8622,
      "duration": 0.1654,
      "velocity": 113,
      "chip": "ym2612"
    },
    {
      "channel": 2,
      "note": 43,
      "start": 77.8635,
      "duration": 0.0162,
      "velocity": 102,
      "chip": "ym2612"
    },
    {
      "channel": 0,
      "note": 33,
      "start": 78.0609,
      "duration": 0.1653,
      "velocity": 113,
      "chip": "ym2612"
    },
    {
      "channel": 2,
      "note": 45,
      "start": 78.0621,
      "duration": 0.0163,
      "velocity": 102,
      "chip": "ym2612"
    },
    {
      "channel": 0,
      "note": 21,
      "start": 78.2595,
      "duration": 0.1654,
      "velocity": 113,
      "chip": "ym2612"
    },
    {
      "channel": 2,
      "note": 43,
      "start": 78.2608,
      "duration": 0.0162,
      "velocity": 102,
      "chip": "ym2612"
    },
    {
      "channel": 0,
      "note": 21,
      "start": 78.4582,
      "duration": 0.1653,
      "velocity": 113,
      "chip": "ym2612"
    },
    {
      "channel": 2,
      "note": 40,
      "start": 78.4594,
      "duration": 0.0163,
      "velocity": 102,
      "chip": "ym2612"
    },
    {
      "channel": 0,
      "note": 33,
      "start": 78.6568,
      "duration": 0.1653,
      "velocity": 113,
      "chip": "ym2612"
    },
    {
      "channel": 2,
      "note": 36,
      "start": 78.658,
      "duration": 0.0163,
      "velocity": 102,
      "chip": "ym2612"
    },
    {
      "channel": 0,
      "note": 21,
      "start": 78.8554,
      "duration": 0.1653,
      "velocity": 113,
      "chip": "ym2612"
    },
    {
      "channel": 2,
      "note": 40,
      "start": 78.8567,
      "duration": 0.0162,
      "velocity": 102,
      "chip": "ym2612"
    },
    {
      "channel": 0,
      "note": 22,
      "start": 79.054,
      "duration": 0.1654,
      "velocity": 113,
      "chip": "ym2612"
    },
    {
      "channel": 2,
      "note": 36,
      "start": 79.0553,
      "duration": 0.0163,
      "velocity": 102,
      "chip": "ym2612"
    },
    {
      "channel": 0,
      "note": 34,
      "start": 79.2527,
      "duration": 0.1654,
      "velocity": 113,
      "chip": "ym2612"
    },
    {
      "channel": 2,
      "note": 35,
      "start": 79.2539,
      "duration": 0.0163,
      "velocity": 102,
      "chip": "ym2612"
    },
    {
      "channel": 0,
      "note": 21,
      "start": 79.4513,
      "duration": 0.1654,
      "velocity": 113,
      "chip": "ym2612"
    },
    {
      "channel": 1,
      "note": 33,
      "start": 79.452,
      "duration": 3.1775,
      "velocity": 112,
      "chip": "ym2612"
    },
    {
      "channel": 2,
      "note": 33,
      "start": 79.4527,
      "duration": 0.0161,
      "velocity": 102,
      "chip": "ym2612"
    },
    {
      "channel": 3,
      "note": 7,
      "start": 79.4533,
      "duration": 0.1153,
      "velocity": 1,
      "chip": "ym2612"
    },
    {
      "channel": 4,
      "note": 21,
      "start": 79.454,
      "duration": 3.1782,
      "velocity": 124,
      "chip": "ym2612"
    },
    {
      "channel": 5,
      "note": 7,
      "start": 79.4546,
      "duration": 0.1149,
      "velocity": 1,
      "chip": "ym2612"
    },
    {
      "channel": 0,
      "note": 33,
      "start": 79.65,
      "duration": 0.1653,
      "velocity": 113,
      "chip": "ym2612"
    },
    {
      "channel": 2,
      "note": 36,
      "start": 79.6512,
      "duration": 0.0163,
      "velocity": 102,
      "chip": "ym2612"
    },
    {
      "channel": 0,
      "note": 33,
      "start": 79.8486,
      "duration": 0.1654,
      "velocity": 113,
      "chip": "ym2612"
    },
    {
      "channel": 2,
      "note": 40,
      "start": 79.8498,
      "duration": 0.0163,
      "velocity": 102,
      "chip": "ym2612"
    },
    {
      "channel": 0,
      "note": 21,
      "start": 80.0472,
      "duration": 0.1653,
      "velocity": 113,
      "chip": "ym2612"
    },
    {
      "channel": 2,
      "note": 43,
      "start": 80.0484,
      "duration": 0.0163,
      "velocity": 102,
      "chip": "ym2612"
    },
    {
      "channel": 0,
      "note": 33,
      "start": 80.2458,
      "duration": 0.1654,
      "velocity": 113,
      "chip": "ym2612"
    },
    {
      "channel": 2,
      "note": 47,
      "start": 80.2471,
      "duration": 0.0163,
      "velocity": 102,
      "chip": "ym2612"
    },
    {
      "channel": 0,
      "note": 21,
      "start": 80.4444,
      "duration": 0.1654,
      "velocity": 113,
      "chip": "ym2612"
    },
    {
      "channel": 2,
      "note": 48,
      "start": 80.4457,
      "duration": 0.0162,
      "velocity": 102,
      "chip": "ym2612"
    },
    {
      "channel": 0,
      "note": 21,
      "start": 80.6431,
      "duration": 0.1653,
      "velocity": 113,
      "chip": "ym2612"
    },
    {
      "channel": 2,
      "note": 47,
      "start": 80.6443,
      "duration": 0.0163,
      "velocity": 102,
      "chip": "ym2612"
    },
    {
      "channel": 0,
      "note": 33,
      "start": 80.8417,
      "duration": 0.1654,
      "velocity": 113,
      "chip": "ym2612"
    },
    {
      "channel": 2,
      "note": 45,
      "start": 80.843,
      "duration": 0.0162,
      "velocity": 102,
      "chip": "ym2612"
    },
    {
      "channel": 0,
      "note": 21,
      "start": 81.0404,
      "duration": 0.1653,
      "velocity": 113,
      "chip": "ym2612"
    },
    {
      "channel": 2,
      "note": 43,
      "start": 81.0416,
      "duration": 0.0163,
      "velocity": 102,
      "chip": "ym2612"
    },
    {
      "channel": 0,
      "note": 33,
      "start": 81.239,
      "duration": 0.1654,
      "velocity": 113,
      "chip": "ym2612"
    },
    {
      "channel": 2,
      "note": 45,
      "start": 81.2402,
      "duration": 0.0163,
      "velocity": 102,
      "chip": "ym2612"
    },
    {
      "channel": 0,
      "note": 21,
      "start": 81.4376,
      "duration": 0.1653,
      "velocity": 113,
      "chip": "ym2612"
    },
    {
      "channel": 2,
      "note": 43,
      "start": 81.4388,
      "duration": 0.0163,
      "velocity": 102,
      "chip": "ym2612"
    },
    {
      "channel": 0,
      "note": 33,
      "start": 81.6362,
      "duration": 0.1654,
      "velocity": 113,
      "chip": "ym2612"
    },
    {
      "channel": 2,
      "note": 40,
      "start": 81.6374,
      "duration": 0.0163,
      "velocity": 102,
      "chip": "ym2612"
    },
    {
      "channel": 0,
      "note": 21,
      "start": 81.8349,
      "duration": 0.1653,
      "velocity": 113,
      "chip": "ym2612"
    },
    {
      "channel": 2,
      "note": 36,
      "start": 81.8361,
      "duration": 0.0163,
      "velocity": 102,
      "chip": "ym2612"
    },
    {
      "channel": 0,
      "note": 22,
      "start": 82.0335,
      "duration": 0.1654,
      "velocity": 113,
      "chip": "ym2612"
    },
    {
      "channel": 2,
      "note": 40,
      "start": 82.0347,
      "duration": 0.0163,
      "velocity": 102,
      "chip": "ym2612"
    },
    {
      "channel": 0,
      "note": 24,
      "start": 82.2322,
      "duration": 0.1653,
      "velocity": 113,
      "chip": "ym2612"
    },
    {
      "channel": 2,
      "note": 36,
      "start": 82.2334,
      "duration": 0.0163,
      "velocity": 102,
      "chip": "ym2612"
    },
    {
      "channel": 0,
      "note": 36,
      "start": 82.4308,
      "duration": 0.1654,
      "velocity": 113,
      "chip": "ym2612"
    },
    {
      "channel": 2,
      "note": 35,
      "start": 82.432,
      "duration": 0.0163,
      "velocity": 102,
      "chip": "ym2612"
    },
    {
      "channel": 0,
      "note": 21,
      "start": 82.6294,
      "duration": 0.1653,
      "velocity": 113,
      "chip": "ym2612"
    },
    {
      "channel": 1,
      "note": 31,
      "start": 82.6301,
      "duration": 3.1775,
      "velocity": 112,
      "chip": "ym2612"
    },
    {
      "channel": 2,
      "note": 33,
      "start": 82.6308,
      "duration": 0.0161,
      "velocity": 102,
      "chip": "ym2612"
    },
    {
      "channel": 3,
      "note": 45,
      "start": 82.632,
      "duration": 0.1973,
      "velocity": 122,
      "chip": "ym2612"
    },
    {
      "channel": 4,
      "note": 19,
      "start": 82.6327,
      "duration": 3.1776,
      "velocity": 124,
      "chip": "ym2612"
    },
    {
      "channel": 5,
      "note": 35,
      "start": 82.7318,
      "duration": 0.0159,
      "velocity": 102,
      "chip": "ym2612"
    },
    {
      "channel": 0,
      "note": 33,
      "start": 82.828,
      "duration": 0.1654,
      "velocity": 113,
      "chip": "ym2612"
    },
    {
      "channel": 2,
      "note": 36,
      "start": 82.8292,
      "duration": 0.0163,
      "velocity": 102,
      "chip": "ym2612"
    },
    {
      "channel": 3,
      "note": 72,
      "start": 82.8305,
      "duration": 0.1976,
      "velocity": 113,
      "chip": "ym2612"
    },
    {
      "channel": 5,
      "note": 33,
      "start": 82.9299,
      "duration": 0.0165,
      "velocity": 102,
      "chip": "ym2612"
    },
    {
      "channel": 0,
      "note": 21,
      "start": 83.0266,
      "duration": 0.1654,
      "velocity": 113,
      "chip": "ym2612"
    },
    {
      "channel": 2,
      "note": 40,
      "start": 83.0279,
      "duration": 0.0163,
      "velocity": 102,
      "chip": "ym2612"
    },
    {
      "channel": 3,
      "note": 21,
      "start": 83.0291,
      "duration": 0.1975,
      "velocity": 126,
      "chip": "ym2612"
    },
    {
      "channel": 5,
      "note": 36,
      "start": 83.1285,
      "duration": 0.0164,
      "velocity": 102,
      "chip": "ym2612"
    },
    {
      "channel": 0,
      "note": 21,
      "start": 83.2253,
      "duration": 0.1654,
      "velocity": 113,
      "chip": "ym2612"
    },
    {
      "channel": 2,
      "note": 43,
      "start": 83.2265,
      "duration": 0.0163,
      "velocity": 102,
      "chip": "ym2612"
    },
    {
      "channel": 3,
      "note": 45,
      "start": 83.2277,
      "duration": 0.1976,
      "velocity": 122,
      "chip": "ym2612"
    },
    {
      "channel": 5,
      "note": 40,
      "start": 83.3271,
      "duration": 0.0165,
      "velocity": 102,
      "chip": "ym2612"
    },
    {
      "channel": 0,
      "note": 33,
      "start": 83.4239,
      "duration": 0.1654,
      "velocity": 113,
      "chip": "ym2612"
    },
    {
      "channel": 2,
      "note": 47,
      "start": 83.4251,
      "duration": 0.0163,
      "velocity": 102,
      "chip": "ym2612"
    },
    {
      "channel": 3,
      "note": 45,
      "start": 83.4257,
      "duration": 0.3968,
      "velocity": 122,
      "chip": "ym2612"
    },
    {
      "channel": 5,
      "note": 43,
      "start": 83.5259,
      "duration": 0.0164,
      "velocity": 102,
      "chip": "ym2612"
    },
    {
      "channel": 0,
      "note": 21,
      "start": 83.6226,
      "duration": 0.1653,
      "velocity": 113,
      "chip": "ym2612"
    },
    {
      "channel": 2,
      "note": 48,
      "start": 83.6238,
      "duration": 0.0162,
      "velocity": 102,
      "chip": "ym2612"
    },
    {
      "channel": 5,
      "note": 47,
      "start": 83.7245,
      "duration": 0.0164,
      "velocity": 102,
      "chip": "ym2612"
    },
    {
      "channel": 0,
      "note": 21,
      "start": 83.8212,
      "duration": 0.1654,
      "velocity": 113,
      "chip": "ym2612"
    },
    {
      "channel": 2,
      "note": 47,
      "start": 83.8224,
      "duration": 0.0162,
      "velocity": 102,
      "chip": "ym2612"
    },
    {
      "channel": 3,
      "note": 21,
      "start": 83.8237,
      "duration": 0.3961,
      "velocity": 126,
      "chip": "ym2612"
    },
    {
      "channel": 5,
      "note": 48,
      "start": 83.9231,
      "duration": 0.0164,
      "velocity": 102,
      "chip": "ym2612"
    },
    {
      "channel": 0,
      "note": 33,
      "start": 84.0198,
      "duration": 0.1653,
      "velocity": 113,
      "chip": "ym2612"
    },
    {
      "channel": 2,
      "note": 45,
      "start": 84.021,
      "duration": 0.0163,
      "velocity": 102,
      "chip": "ym2612"
    },
    {
      "channel": 5,
      "note": 47,
      "start": 84.1217,
      "duration": 0.0164,
      "velocity": 102,
      "chip": "ym2612"
    },
    {
      "channel": 0,
      "note": 21,
      "start": 84.2184,
      "duration": 0.1654,
      "velocity": 113,
      "chip": "ym2612"
    },
    {
      "channel": 2,
      "note": 43,
      "start": 84.2196,
      "duration": 0.0163,
      "velocity": 102,
      "chip": "ym2612"
    },
    {
      "channel": 3,
      "note": 45,
      "start": 84.2209,
      "duration": 0.1975,
      "velocity": 122,
      "chip": "ym2612"
    },
    {
      "channel": 5,
      "note": 45,
      "start": 84.3203,
      "duration": 0.0164,
      "velocity": 102,
      "chip": "ym2612"
    },
    {
      "channel": 0,
      "note": 33,
      "start": 84.4171,
      "duration": 0.1654,
      "velocity": 113,
      "chip": "ym2612"
    },
    {
      "channel": 2,
      "note": 45,
      "start": 84.4183,
      "duration": 0.0163,
      "velocity": 102,
      "chip": "ym2612"
    },
    {
      "channel": 3,
      "note": 84,
      "start": 84.4195,
      "duration": 0.1975,
      "velocity": 113,
      "chip": "ym2612"
    },
    {
      "channel": 5,
      "note": 43,
      "start": 84.5189,
      "duration": 0.0164,
      "velocity": 102,
      "chip": "ym2612"
    },
    {
      "channel": 0,
      "note": 21,
      "start": 84.6157,
      "duration": 0.1654,
      "velocity": 113,
      "chip": "ym2612"
    },
    {
      "channel": 2,
      "note": 43,
      "start": 84.6169,
      "duration": 0.0163,
      "velocity": 102,
      "chip": "ym2612"
    },
    {
      "channel": 3,
      "note": 21,
      "start": 84.6182,
      "duration": 0.1975,
      "velocity": 126,
      "chip": "ym2612"
    },
    {
      "channel": 5,
      "note": 45,
      "start": 84.7176,
      "duration": 0.0164,
      "velocity": 102,
      "chip": "ym2612"
    },
    {
      "channel": 0,
      "note": 21,
      "start": 84.8144,
      "duration": 0.1653,
      "velocity": 113,
      "chip": "ym2612"
    },
    {
      "channel": 2,
      "note": 40,
      "start": 84.8156,
      "duration": 0.0163,
      "velocity": 102,
      "chip": "ym2612"
    },
    {
      "channel": 3,
      "note": 45,
      "start": 84.8168,
      "duration": 0.1976,
      "velocity": 122,
      "chip": "ym2612"
    },
    {
      "channel": 5,
      "note": 43,
      "start": 84.9162,
      "duration": 0.0164,
      "velocity": 102,
      "chip": "ym2612"
    },
    {
      "channel": 0,
      "note": 33,
      "start": 85.0129,
      "duration": 0.1654,
      "velocity": 113,
      "chip": "ym2612"
    },
    {
      "channel": 2,
      "note": 36,
      "start": 85.0141,
      "duration": 0.0163,
      "velocity": 102,
      "chip": "ym2612"
    },
    {
      "channel": 3,
      "note": 45,
      "start": 85.0148,
      "duration": 0.3968,
      "velocity": 122,
      "chip": "ym2612"
    },
    {
      "channel": 5,
      "note": 40,
      "start": 85.1149,
      "duration": 0.0164,
      "velocity": 102,
      "chip": "ym2612"
    },
    {
      "channel": 0,
      "note": 21,
      "start": 85.2116,
      "duration": 0.1653,
      "velocity": 113,
      "chip": "ym2612"
    },
    {
      "channel": 2,
      "note": 40,
      "start": 85.2128,
      "duration": 0.0163,
      "velocity": 102,
      "chip": "ym2612"
    },
    {
      "channel": 5,
      "note": 36,
      "start": 85.3135,
      "duration": 0.0164,
      "velocity": 102,
      "chip": "ym2612"
    },
    {
      "channel": 0,
      "note": 22,
      "start": 85.4102,
      "duration": 0.1654,
      "velocity": 113,
      "chip": "ym2612"
    },
    {
      "channel": 2,
      "note": 36,
      "start": 85.4114,
      "duration": 0.0163,
      "velocity": 102,
      "chip": "ym2612"
    },
    {
      "channel": 3,
      "note": 21,
      "start": 85.4126,
      "duration": 0.3964,
      "velocity": 126,
      "chip": "ym2612"
    },
    {
      "channel": 5,
      "note": 40,
      "start": 85.5121,
      "duration": 0.0165,
      "velocity": 102,
      "chip": "ym2612"
    },
    {
      "channel": 0,
      "note": 34,
      "start": 85.6088,
      "duration": 0.1654,
      "velocity": 113,
      "chip": "ym2612"
    },
    {
      "channel": 2,
      "note": 35,
      "start": 85.6101,
      "duration": 0.0163,
      "velocity": 102,
      "chip": "ym2612"
    },
    {
      "channel": 5,
      "note": 36,
      "start": 85.7107,
      "duration": 0.0164,
      "velocity": 102,
      "chip": "ym2612"
    },
    {
      "channel": 0,
      "note": 21,
      "start": 85.8075,
      "duration": 0.1654,
      "velocity": 113,
      "chip": "ym2612"
    },
    {
      "channel": 1,
      "note": 33,
      "start": 85.8082,
      "duration": 3.1775,
      "velocity": 112,
      "chip": "ym2612"
    },
    {
      "channel": 2,
      "note": 33,
      "start": 85.8089,
      "duration": 0.0161,
      "velocity": 102,
      "chip": "ym2612"
    },
    {
      "channel": 3,
      "note": 45,
      "start": 85.8101,
      "duration": 0.1974,
      "velocity": 122,
      "chip": "ym2612"
    },
    {
      "channel": 4,
      "note": 21,
      "start": 85.8107,
      "duration": 3.1776,
      "velocity": 124,
      "chip": "ym2612"
    },
    {
      "channel": 5,
      "note": 35,
      "start": 85.9094,
      "duration": 0.0164,
      "velocity": 102,
      "chip": "ym2612"
    },
    {
      "channel": 0,
      "note": 33,
      "start": 86.0061,
      "duration": 0.1653,
      "velocity": 113,
      "chip": "ym2612"
    },
    {
      "channel": 2,
      "note": 36,
      "start": 86.0073,
      "duration": 0.0163,
      "velocity": 102,
      "chip": "ym2612"
    },
    {
      "channel": 3,
      "note": 72,
      "start": 86.0086,
      "duration": 0.1975,
      "velocity": 113,
      "chip": "ym2612"
    },
    {
      "channel": 5,
      "note": 33,
      "start": 86.108,
      "duration": 0.0164,
      "velocity": 102,
      "chip": "ym2612"
    },
    {
      "channel": 0,
      "note": 33,
      "start": 86.2047,
      "duration": 0.1653,
      "velocity": 113,
      "chip": "ym2612"
    },
    {
      "channel": 2,
      "note": 40,
      "start": 86.206,
      "duration": 0.0163,
      "velocity": 102,
      "chip": "ym2612"
    },
    {
      "channel": 3,
      "note": 21,
      "start": 86.2072,
      "duration": 0.1975,
      "velocity": 126,
      "chip": "ym2612"
    },
    {
      "channel": 5,
      "note": 36,
      "start": 86.3066,
      "duration": 0.0164,
      "velocity": 102,
      "chip": "ym2612"
    },
    {
      "channel": 0,
      "note": 21,
      "start": 86.4033,
      "duration": 0.1654,
      "velocity": 113,
      "chip": "ym2612"
    },
    {
      "channel": 2,
      "note": 43,
      "start": 86.4046,
      "duration": 0.0162,
      "velocity": 102,
      "chip": "ym2612"
    },
    {
      "channel": 3,
      "note": 45,
      "start": 86.4058,
      "duration": 0.1975,
      "velocity": 122,
      "chip": "ym2612"
    },
    {
      "channel": 5,
      "note": 40,
      "start": 86.5053,
      "duration": 0.0164,
      "velocity": 102,
      "chip": "ym2612"
    },
    {
      "channel": 0,
      "note": 33,
      "start": 86.602,
      "duration": 0.1653,
      "velocity": 113,
      "chip": "ym2612"
    },
    {
      "channel": 2,
      "note": 47,
      "start": 86.6032,
      "duration": 0.0163,
      "velocity": 102,
      "chip": "ym2612"
    },
    {
      "channel": 3,
      "note": 45,
      "start": 86.6039,
      "duration": 0.3968,
      "velocity": 122,
      "chip": "ym2612"
    },
    {
      "channel": 5,
      "note": 43,
      "start": 86.7039,
      "duration": 0.0164,
      "velocity": 102,
      "chip": "ym2612"
    },
    {
      "channel": 0,
      "note": 21,
      "start": 86.8006,
      "duration": 0.1654,
      "velocity": 113,
      "chip": "ym2612"
    },
    {
      "channel": 2,
      "note": 48,
      "start": 86.8018,
      "duration": 0.0163,
      "velocity": 102,
      "chip": "ym2612"
    },
    {
      "channel": 5,
      "note": 47,
      "start": 86.9025,
      "duration": 0.0164,
      "velocity": 102,
      "chip": "ym2612"
    },
    {
      "channel": 0,
      "note": 21,
      "start": 86.9993,
      "duration": 0.1653,
      "velocity": 113,
      "chip": "ym2612"
    },
    {
      "channel": 2,
      "note": 47,
      "start": 87.0005,
      "duration": 0.0163,
      "velocity": 102,
      "chip": "ym2612"
    },
    {
      "channel": 3,
      "note": 21,
      "start": 87.0017,
      "duration": 0.3962,
      "velocity": 126,
      "chip": "ym2612"
    },
    {
      "channel": 5,
      "note": 48,
      "start": 87.1011,
      "duration": 0.0164,
      "velocity": 102,
      "chip": "ym2612"
    },
    {
      "channel": 0,
      "note": 33,
      "start": 87.1979,
      "duration": 0.1654,
      "velocity": 113,
      "chip": "ym2612"
    },
    {
      "channel": 2,
      "note": 45,
      "start": 87.1991,
      "duration": 0.0163,
      "velocity": 102,
      "chip": "ym2612"
    },
    {
      "channel": 5,
      "note": 47,
      "start": 87.2998,
      "duration": 0.0164,
      "velocity": 102,
      "chip": "ym2612"
    },
    {
      "channel": 0,
      "note": 21,
      "start": 87.3965,
      "duration": 0.1653,
      "velocity": 113,
      "chip": "ym2612"
    },
    {
      "channel": 2,
      "note": 43,
      "start": 87.3978,
      "duration": 0.0163,
      "velocity": 102,
      "chip": "ym2612"
    },
    {
      "channel": 3,
      "note": 45,
      "start": 87.399,
      "duration": 0.1975,
      "velocity": 122,
      "chip": "ym2612"
    },
    {
      "channel": 5,
      "note": 45,
      "start": 87.4984,
      "duration": 0.0164,
      "velocity": 102,
      "chip": "ym2612"
    },
    {
      "channel": 0,
      "note": 33,
      "start": 87.5951,
      "duration": 0.1654,
      "velocity": 113,
      "chip": "ym2612"
    },
    {
      "channel": 2,
      "note": 45,
      "start": 87.5963,
      "duration": 0.0163,
      "velocity": 102,
      "chip": "ym2612"
    },
    {
      "channel": 3,
      "note": 84,
      "start": 87.5976,
      "duration": 0.1975,
      "velocity": 113,
      "chip": "ym2612"
    },
    {
      "channel": 5,
      "note": 43,
      "start": 87.6971,
      "duration": 0.0164,
      "velocity": 102,
      "chip": "ym2612"
    },
    {
      "channel": 0,
      "note": 21,
      "start": 87.7938,
      "duration": 0.1653,
      "velocity": 113,
      "chip": "ym2612"
    },
    {
      "channel": 2,
      "note": 43,
      "start": 87.795,
      "duration": 0.0163,
      "velocity": 102,
      "chip": "ym2612"
    },
    {
      "channel": 3,
      "note": 21,
      "start": 87.7962,
      "duration": 0.1975,
      "velocity": 126,
      "chip": "ym2612"
    },
    {
      "channel": 5,
      "note": 45,
      "start": 87.8956,
      "duration": 0.0164,
      "velocity": 102,
      "chip": "ym2612"
    },
    {
      "channel": 0,
      "note": 33,
      "start": 87.9924,
      "duration": 0.1654,
      "velocity": 113,
      "chip": "ym2612"
    },
    {
      "channel": 2,
      "note": 40,
      "start": 87.9936,
      "duration": 0.0163,
      "velocity": 102,
      "chip": "ym2612"
    },
    {
      "channel": 3,
      "note": 45,
      "start": 87.9948,
      "duration": 0.1976,
      "velocity": 122,
      "chip": "ym2612"
    },
    {
      "channel": 5,
      "note": 43,
      "start": 88.0942,
      "duration": 0.0165,
      "velocity": 102,
      "chip": "ym2612"
    },
    {
      "channel": 0,
      "note": 21,
      "start": 88.1911,
      "duration": 0.1654,
      "velocity": 113,
      "chip": "ym2612"
    },
    {
      "channel": 2,
      "note": 36,
      "start": 88.1923,
      "duration": 0.0163,
      "velocity": 102,
      "chip": "ym2612"
    },
    {
      "channel": 3,
      "note": 45,
      "start": 88.1929,
      "duration": 0.3968,
      "velocity": 122,
      "chip": "ym2612"
    },
    {
      "channel": 5,
      "note": 40,
      "start": 88.2929,
      "duration": 0.0165,
      "velocity": 102,
      "chip": "ym2612"
    },
    {
      "channel": 0,
      "note": 22,
      "start": 88.3897,
      "duration": 0.1654,
      "velocity": 113,
      "chip": "ym2612"
    },
    {
      "channel": 2,
      "note": 40,
      "start": 88.3909,
      "duration": 0.0163,
      "velocity": 102,
      "chip": "ym2612"
    },
    {
      "channel": 5,
      "note": 36,
      "start": 88.4916,
      "duration": 0.0164,
      "velocity": 102,
      "chip": "ym2612"
    },
    {
      "channel": 0,
      "note": 24,
      "start": 88.5883,
      "duration": 0.1654,
      "velocity": 113,
      "chip": "ym2612"
    },
    {
      "channel": 2,
      "note": 36,
      "start": 88.5895,
      "duration": 0.0162,
      "velocity": 102,
      "chip": "ym2612"
    },
    {
      "channel": 3,
      "note": 21,
      "start": 88.5908,
      "duration": 0.3962,
      "velocity": 126,
      "chip": "ym2612"
    },
    {
      "channel": 5,
      "note": 40,
      "start": 88.6902,
      "duration": 0.0164,
      "velocity": 102,
      "chip": "ym2612"
    },
    {
      "channel": 0,
      "note": 36,
      "start": 88.7869,
      "duration": 0.1654,
      "velocity": 113,
      "chip": "ym2612"
    },
    {
      "channel": 2,
      "note": 35,
      "start": 88.7881,
      "duration": 0.0163,
      "velocity": 102,
      "chip": "ym2612"
    },
    {
      "channel": 5,
      "note": 36,
      "start": 88.8888,
      "duration": 0.0164,
      "velocity": 102,
      "chip": "ym2612"
    },
    {
      "channel": 0,
      "note": 21,
      "start": 88.9855,
      "duration": 0.1654,
      "velocity": 113,
      "chip": "ym2612"
    },
    {
      "channel": 1,
      "note": 31,
      "start": 88.9862,
      "duration": 3.1776,
      "velocity": 112,
      "chip": "ym2612"
    },
    {
      "channel": 2,
      "note": 33,
      "start": 88.9869,
      "duration": 0.0161,
      "velocity": 102,
      "chip": "ym2612"
    },
    {
      "channel": 3,
      "note": 45,
      "start": 88.9881,
      "duration": 0.1974,
      "velocity": 122,
      "chip": "ym2612"
    },
    {
      "channel": 4,
      "note": 19,
      "start": 88.9888,
      "duration": 3.1776,
      "velocity": 124,
      "chip": "ym2612"
    },
    {
      "channel": 5,
      "note": 35,
      "start": 89.0874,
      "duration": 0.0164,
      "velocity": 102,
      "chip": "ym2612"
    },
    {
      "channel": 0,
      "note": 33,
      "start": 89.1842,
      "duration": 0.1653,
      "velocity": 113,
      "chip": "ym2612"
    },
    {
      "channel": 2,
      "note": 36,
      "start": 89.1854,
      "duration": 0.0163,
      "velocity": 102,
      "chip": "ym2612"
    },
    {
      "channel": 3,
      "note": 72,
      "start": 89.1866,
      "duration": 0.1976,
      "velocity": 113,
      "chip": "ym2612"
    },
    {
      "channel": 5,
      "note": 33,
      "start": 89.286,
      "duration": 0.0164,
      "velocity": 102,
      "chip": "ym2612"
    },
    {
      "channel": 0,
      "note": 21,
      "start": 89.3828,
      "duration": 0.1654,
      "velocity": 113,
      "chip": "ym2612"
    },
    {
      "channel": 2,
      "note": 40,
      "start": 89.3841,
      "duration": 0.0162,
      "velocity": 102,
      "chip": "ym2612"
    },
    {
      "channel": 3,
      "note": 21,
      "start": 89.3853,
      "duration": 0.1975,
      "velocity": 126,
      "chip": "ym2612"
    },
    {
      "channel": 5,
      "note": 36,
      "start": 89.4847,
      "duration": 0.0164,
      "velocity": 102,
      "chip": "ym2612"
    },
    {
      "channel": 0,
      "note": 21,
      "start": 89.5815,
      "duration": 0.1654,
      "velocity": 113,
      "chip": "ym2612"
    },
    {
      "channel": 2,
      "note": 43,
      "start": 89.5827,
      "duration": 0.0163,
      "velocity": 102,
      "chip": "ym2612"
    },
    {
      "channel": 3,
      "note": 45,
      "start": 89.5839,
      "duration": 0.1976,
      "velocity": 122,
      "chip": "ym2612"
    },
    {
      "channel": 5,
      "note": 40,
      "start": 89.6833,
      "duration": 0.0164,
      "velocity": 102,
      "chip": "ym2612"
    },
    {
      "channel": 0,
      "note": 33,
      "start": 89.7801,
      "duration": 0.1654,
      "velocity": 113,
      "chip": "ym2612"
    },
    {
      "channel": 2,
      "note": 47,
      "start": 89.7813,
      "duration": 0.0163,
      "velocity": 102,
      "chip": "ym2612"
    },
    {
      "channel": 3,
      "note": 45,
      "start": 89.7819,
      "duration": 0.3968,
      "velocity": 122,
      "chip": "ym2612"
    },
    {
      "channel": 5,
      "note": 43,
      "start": 89.882,
      "duration": 0.0164,
      "velocity": 102,
      "chip": "ym2612"
    },
    {
      "channel": 0,
      "note": 21,
      "start": 89.9787,
      "duration": 0.1653,
      "velocity": 113,
      "chip": "ym2612"
    },
    {
      "channel": 2,
      "note": 48,
      "start": 89.9799,
      "duration": 0.0163,
      "velocity": 102,
      "chip": "ym2612"
    },
    {
      "channel": 5,
      "note": 47,
      "start": 90.0806,
      "duration": 0.0164,
      "velocity": 102,
      "chip": "ym2612"
    },
    {
      "channel": 0,
      "note": 21,
      "start": 90.1773,
      "duration": 0.1654,
      "velocity": 113,
      "chip": "ym2612"
    },
    {
      "channel": 2,
      "note": 47,
      "start": 90.1785,
      "duration": 0.0163,
      "velocity": 102,
      "chip": "ym2612"
    },
    {
      "channel": 3,
      "note": 21,
      "start": 90.1798,
      "duration": 0.3961,
      "velocity": 126,
      "chip": "ym2612"
    },
    {
      "channel": 5,
      "note": 48,
      "start": 90.2792,
      "duration": 0.0164,
      "velocity": 102,
      "chip": "ym2612"
    },
    {
      "channel": 0,
      "note": 33,
      "start": 90.376,
      "duration": 0.1653,
      "velocity": 113,
      "chip": "ym2612"
    },
    {
      "channel": 2,
      "note": 45,
      "start": 90.3772,
      "duration": 0.0163,
      "velocity": 102,
      "chip": "ym2612"
    },
    {
      "channel": 5,
      "note": 47,
      "start": 90.4778,
      "duration": 0.0164,
      "velocity": 102,
      "chip": "ym2612"
    },
    {
      "channel": 0,
      "note": 21,
      "start": 90.5746,
      "duration": 0.1655,
      "velocity": 113,
      "chip": "ym2612"
    },
    {
      "channel": 2,
      "note": 43,
      "start": 90.5758,
      "duration": 0.0163,
      "velocity": 102,
      "chip": "ym2612"
    },
    {
      "channel": 3,
      "note": 45,
      "start": 90.577,
      "duration": 0.1976,
      "velocity": 122,
      "chip": "ym2612"
    },
    {
      "channel": 5,
      "note": 45,
      "start": 90.6765,
      "duration": 0.0164,
      "velocity": 102,
      "chip": "ym2612"
    },
    {
      "channel": 0,
      "note": 33,
      "start": 90.7733,
      "duration": 0.1653,
      "velocity": 113,
      "chip": "ym2612"
    },
    {
      "channel": 2,
      "note": 45,
      "start": 90.7745,
      "duration": 0.0162,
      "velocity": 102,
      "chip": "ym2612"
    },
    {
      "channel": 3,
      "note": 84,
      "start": 90.7757,
      "duration": 0.1975,
      "velocity": 113,
      "chip": "ym2612"
    },
    {
      "channel": 5,
      "note": 43,
      "start": 90.8752,
      "duration": 0.0164,
      "velocity": 102,
      "chip": "ym2612"
    },
    {
      "channel": 0,
      "note": 21,
      "start": 90.9719,
      "duration": 0.1654,
      "velocity": 113,
      "chip": "ym2612"
    },
    {
      "channel": 2,
      "note": 43,
      "start": 90.9731,
      "duration": 0.0163,
      "velocity": 102,
      "chip": "ym2612"
    },
    {
      "channel": 3,
      "note": 21,
      "start": 90.9743,
      "duration": 0.1975,
      "velocity": 126,
      "chip": "ym2612"
    },
    {
      "channel": 5,
      "note": 45,
      "start": 91.0738,
      "duration": 0.0164,
      "velocity": 102,
      "chip": "ym2612"
    },
    {
      "channel": 0,
      "note": 21,
      "start": 91.1705,
      "duration": 0.1653,
      "velocity": 113,
      "chip": "ym2612"
    },
    {
      "channel": 2,
      "note": 40,
      "start": 91.1717,
      "duration": 0.0163,
      "velocity": 102,
      "chip": "ym2612"
    },
    {
      "channel": 3,
      "note": 45,
      "start": 91.173,
      "duration": 0.1975,
      "velocity": 122,
      "chip": "ym2612"
    },
    {
      "channel": 5,
      "note": 43,
      "start": 91.2724,
      "duration": 0.0164,
      "velocity": 102,
      "chip": "ym2612"
    },
    {
      "channel": 0,
      "note": 33,
      "start": 91.3691,
      "duration": 0.1654,
      "velocity": 113,
      "chip": "ym2612"
    },
    {
      "channel": 2,
      "note": 36,
      "start": 91.3703,
      "duration": 0.0163,
      "velocity": 102,
      "chip": "ym2612"
    },
    {
      "channel": 3,
      "note": 45,
      "start": 91.371,
      "duration": 0.3967,
      "velocity": 122,
      "chip": "ym2612"
    },
    {
      "channel": 5,
      "note": 40,
      "start": 91.471,
      "duration": 0.0165,
      "velocity": 102,
      "chip": "ym2612"
    },
    {
      "channel": 0,
      "note": 21,
      "start": 91.5677,
      "duration": 0.1654,
      "velocity": 113,
      "chip": "ym2612"
    },
    {
      "channel": 2,
      "note": 40,
      "start": 91.569,
      "duration": 0.0162,
      "velocity": 102,
      "chip": "ym2612"
    },
    {
      "channel": 5,
      "note": 36,
      "start": 91.6696,
      "duration": 0.0164,
      "velocity": 102,
      "chip": "ym2612"
    },
    {
      "channel": 0,
      "note": 22,
      "start": 91.7664,
      "duration": 0.1653,
      "velocity": 113,
      "chip": "ym2612"
    },
    {
      "channel": 2,
      "note": 36,
      "start": 91.7676,
      "duration": 0.0163,
      "velocity": 102,
      "chip": "ym2612"
    },
    {
      "channel": 3,
      "note": 21,
      "start": 91.7688,
      "duration": 0.3964,
      "velocity": 126,
      "chip": "ym2612"
    },
    {
      "channel": 5,
      "note": 40,
      "start": 91.8682,
      "duration": 0.0165,
      "velocity": 102,
      "chip": "ym2612"
    },
    {
      "channel": 0,
      "note": 34,
      "start": 91.965,
      "duration": 0.1654,
      "velocity": 113,
      "chip": "ym2612"
    },
    {
      "channel": 2,
      "note": 35,
      "start": 91.9662,
      "duration": 0.0163,
      "velocity": 102,
      "chip": "ym2612"
    },
    {
      "channel": 5,
      "note": 36,
      "start": 92.0669,
      "duration": 0.0164,
      "velocity": 102,
      "chip": "ym2612"
    },
    {
      "channel": 0,
      "note": 21,
      "start": 92.1637,
      "duration": 0.1653,
      "velocity": 113,
      "chip": "ym2612"
    },
    {
      "channel": 1,
      "note": 33,
      "start": 92.1644,
      "duration": 3.1782,
      "velocity": 112,
      "chip": "ym2612"
    },
    {
      "channel": 2,
      "note": 33,
      "start": 92.1651,
      "duration": 0.0161,
      "velocity": 102,
      "chip": "ym2612"
    },
    {
      "channel": 3,
      "note": 45,
      "start": 92.1663,
      "duration": 0.1973,
      "velocity": 122,
      "chip": "ym2612"
    },
    {
      "channel": 4,
      "note": 21,
      "start": 92.1669,
      "duration": 3.1783,
      "velocity": 124,
      "chip": "ym2612"
    },
    {
      "channel": 5,
      "note": 35,
      "start": 92.2655,
      "duration": 0.0164,
      "velocity": 102,
      "chip": "ym2612"
    },
    {
      "channel": 0,
      "note": 33,
      "start": 92.3622,
      "duration": 0.1654,
      "velocity": 113,
      "chip": "ym2612"
    },
    {
      "channel": 2,
      "note": 36,
      "start": 92.3635,
      "duration": 0.0163,
      "velocity": 102,
      "chip": "ym2612"
    },
    {
      "channel": 3,
      "note": 72,
      "start": 92.3647,
      "duration": 0.1975,
      "velocity": 113,
      "chip": "ym2612"
    },
    {
      "channel": 5,
      "note": 33,
      "start": 92.4641,
      "duration": 0.0164,
      "velocity": 102,
      "chip": "ym2612"
    },
    {
      "channel": 0,
      "note": 33,
      "start": 92.5609,
      "duration": 0.1653,
      "velocity": 113,
      "chip": "ym2612"
    },
    {
      "channel": 2,
      "note": 40,
      "start": 92.5621,
      "duration": 0.0163,
      "velocity": 102,
      "chip": "ym2612"
    },
    {
      "channel": 3,
      "note": 21,
      "start": 92.5633,
      "duration": 0.1975,
      "velocity": 126,
      "chip": "ym2612"
    },
    {
      "channel": 5,
      "note": 36,
      "start": 92.6628,
      "duration": 0.0164,
      "velocity": 102,
      "chip": "ym2612"
    },
    {
      "channel": 0,
      "note": 21,
      "start": 92.7595,
      "duration": 0.1654,
      "velocity": 113,
      "chip": "ym2612"
    },
    {
      "channel": 2,
      "note": 43,
      "start": 92.7607,
      "duration": 0.0163,
      "velocity": 102,
      "chip": "ym2612"
    },
    {
      "channel": 3,
      "note": 45,
      "start": 92.762,
      "duration": 0.1975,
      "velocity": 122,
      "chip": "ym2612"
    },
    {
      "channel": 5,
      "note": 40,
      "start": 92.8614,
      "duration": 0.0164,
      "velocity": 102,
      "chip": "ym2612"
    },
    {
      "channel": 0,
      "note": 33,
      "start": 92.9582,
      "duration": 0.1653,
      "velocity": 113,
      "chip": "ym2612"
    },
    {
      "channel": 2,
      "note": 47,
      "start": 92.9594,
      "duration": 0.0163,
      "velocity": 102,
      "chip": "ym2612"
    },
    {
      "channel": 3,
      "note": 45,
      "start": 92.96,
      "duration": 0.3968,
      "velocity": 122,
      "chip": "ym2612"
    },
    {
      "channel": 5,
      "note": 43,
      "start": 93.06,
      "duration": 0.0164,
      "velocity": 102,
      "chip": "ym2612"
    },
    {
      "channel": 0,
      "note": 21,
      "start": 93.1568,
      "duration": 0.1653,
      "velocity": 113,
      "chip": "ym2612"
    },
    {
      "channel": 2,
      "note": 48,
      "start": 93.158,
      "duration": 0.0163,
      "velocity": 102,
      "chip": "ym2612"
    },
    {
      "channel": 5,
      "note": 47,
      "start": 93.2587,
      "duration": 0.0165,
      "velocity": 102,
      "chip": "ym2612"
    },
    {
      "channel": 0,
      "note": 21,
      "start": 93.3554,
      "duration": 0.1653,
      "velocity": 113,
      "chip": "ym2612"
    },
    {
      "channel": 2,
      "note": 47,
      "start": 93.3567,
      "duration": 0.0162,
      "velocity": 102,
      "chip": "ym2612"
    },
    {
      "channel": 3,
      "note": 21,
      "start": 93.3579,
      "duration": 0.3961,
      "velocity": 126,
      "chip": "ym2612"
    },
    {
      "channel": 5,
      "note": 48,
      "start": 93.4573,
      "duration": 0.0164,
      "velocity": 102,
      "chip": "ym2612"
    },
    {
      "channel": 0,
      "note": 33,
      "start": 93.554,
      "duration": 0.1654,
      "velocity": 113,
      "chip": "ym2612"
    },
    {
      "channel": 2,
      "note": 45,
      "start": 93.5553,
      "duration": 0.0163,
      "velocity": 102,
      "chip": "ym2612"
    },
    {
      "channel": 5,
      "note": 47,
      "start": 93.6559,
      "duration": 0.0165,
      "velocity": 102,
      "chip": "ym2612"
    },
    {
      "channel": 0,
      "note": 21,
      "start": 93.7527,
      "duration": 0.1654,
      "velocity": 113,
      "chip": "ym2612"
    },
    {
      "channel": 2,
      "note": 43,
      "start": 93.7539,
      "duration": 0.0163,
      "velocity": 102,
      "chip": "ym2612"
    },
    {
      "channel": 3,
      "note": 45,
      "start": 93.7551,
      "duration": 0.1975,
      "velocity": 122,
      "chip": "ym2612"
    },
    {
      "channel": 5,
      "note": 45,
      "start": 93.8546,
      "duration": 0.0164,
      "velocity": 102,
      "chip": "ym2612"
    },
    {
      "channel": 0,
      "note": 33,
      "start": 93.9513,
      "duration": 0.1654,
      "velocity": 113,
      "chip": "ym2612"
    },
    {
      "channel": 2,
      "note": 45,
      "start": 93.9525,
      "duration": 0.0163,
      "velocity": 102,
      "chip": "ym2612"
    },
    {
      "channel": 3,
      "note": 84,
      "start": 93.9537,
      "duration": 0.1976,
      "velocity": 113,
      "chip": "ym2612"
    },
    {
      "channel": 5,
      "note": 43,
      "start": 94.0532,
      "duration": 0.0165,
      "velocity": 102,
      "chip": "ym2612"
    },
    {
      "channel": 0,
      "note": 21,
      "start": 94.1499,
      "duration": 0.1654,
      "velocity": 113,
      "chip": "ym2612"
    },
    {
      "channel": 2,
      "note": 43,
      "start": 94.1512,
      "duration": 0.0163,
      "velocity": 102,
      "chip": "ym2612"
    },
    {
      "channel": 3,
      "note": 21,
      "start": 94.1524,
      "duration": 0.1975,
      "velocity": 126,
      "chip": "ym2612"
    },
    {
      "channel": 5,
      "note": 45,
      "start": 94.2518,
      "duration": 0.0164,
      "velocity": 102,
      "chip": "ym2612"
    },
    {
      "channel": 0,
      "note": 33,
      "start": 94.3486,
      "duration": 0.1654,
      "velocity": 113,
      "chip": "ym2612"
    },
    {
      "channel": 2,
      "note": 40,
      "start": 94.3498,
      "duration": 0.0163,
      "velocity": 102,
      "chip": "ym2612"
    },
    {
      "channel": 3,
      "note": 45,
      "start": 94.351,
      "duration": 0.1976,
      "velocity": 122,
      "chip": "ym2612"
    },
    {
      "channel": 5,
      "note": 43,
      "start": 94.4504,
      "duration": 0.0165,
      "velocity": 102,
      "chip": "ym2612"
    },
    {
      "channel": 0,
      "note": 21,
      "start": 94.5472,
      "duration": 0.1654,
      "velocity": 113,
      "chip": "ym2612"
    },
    {
      "channel": 2,
      "note": 36,
      "start": 94.5484,
      "duration": 0.0163,
      "velocity": 102,
      "chip": "ym2612"
    },
    {
      "channel": 3,
      "note": 45,
      "start": 94.549,
      "duration": 0.3968,
      "velocity": 122,
      "chip": "ym2612"
    },
    {
      "channel": 5,
      "note": 40,
      "start": 94.6491,
      "duration": 0.0164,
      "velocity": 102,
      "chip": "ym2612"
    },
    {
      "channel": 0,
      "note": 22,
      "start": 94.7458,
      "duration": 0.1654,
      "velocity": 113,
      "chip": "ym2612"
    },
    {
      "channel": 2,
      "note": 40,
      "start": 94.7471,
      "duration": 0.0163,
      "velocity": 102,
      "chip": "ym2612"
    },
    {
      "channel": 5,
      "note": 36,
      "start": 94.8477,
      "duration": 0.0164,
      "velocity": 102,
      "chip": "ym2612"
    },
    {
      "channel": 0,
      "note": 24,
      "start": 94.9444,
      "duration": 0.1654,
      "velocity": 113,
      "chip": "ym2612"
    },
    {
      "channel": 2,
      "note": 36,
      "start": 94.9456,
      "duration": 0.0163,
      "velocity": 102,
      "chip": "ym2612"
    },
    {
      "channel": 3,
      "note": 21,
      "start": 94.9469,
      "duration": 0.397,
      "velocity": 126,
      "chip": "ym2612"
    },
    {
      "channel": 5,
      "note": 40,
      "start": 95.0463,
      "duration": 0.0164,
      "velocity": 102,
      "chip": "ym2612"
    },
    {
      "channel": 0,
      "note": 36,
      "start": 95.1431,
      "duration": 0.1653,
      "velocity": 113,
      "chip": "ym2612"
    },
    {
      "channel": 2,
      "note": 35,
      "start": 95.1443,
      "duration": 0.0163,
      "velocity": 102,
      "chip": "ym2612"
    },
    {
      "channel": 5,
      "note": 36,
      "start": 95.2449,
      "duration": 0.0164,
      "velocity": 102,
      "chip": "ym2612"
    },
    {
      "channel": 0,
      "note": 28,
      "start": 95.3424,
      "duration": 3.1769,
      "velocity": 112,
      "chip": "ym2612"
    },
    {
      "channel": 1,
      "note": 31,
      "start": 95.3431,
      "duration": 3.177,
      "velocity": 112,
      "chip": "ym2612"
    },
    {
      "channel": 2,
      "note": 33,
      "start": 95.3438,
      "duration": 0.0154,
      "velocity": 102,
      "chip": "ym2612"
    },
    {
      "channel": 3,
      "note": 45,
      "start": 95.345,
      "duration": 0.1966,
      "velocity": 122,
      "chip": "ym2612"
    },
    {
      "channel": 4,
      "note": 28,
      "start": 95.3456,
      "duration": 3.1771,
      "velocity": 124,
      "chip": "ym2612"
    },
    {
      "channel": 5,
      "note": 35,
      "start": 95.4437,
      "duration": 0.0164,
      "velocity": 102,
      "chip": "ym2612"
    },
    {
      "channel": 2,
      "note": 36,
      "start": 95.5415,
      "duration": 0.0165,
      "velocity": 102,
      "chip": "ym2612"
    },
    {
      "channel": 3,
      "note": 72,
      "start": 95.5427,
      "duration": 0.1976,
      "velocity": 113,
      "chip": "ym2612"
    },
    {
      "channel": 5,
      "note": 33,
      "start": 95.6423,
      "duration": 0.0164,
      "velocity": 102,
      "chip": "ym2612"
    },
    {
      "channel": 2,
      "note": 40,
      "start": 95.7402,
      "duration": 0.0163,
      "velocity": 102,
      "chip": "ym2612"
    },
    {
      "channel": 3,
      "note": 24,
      "start": 95.7414,
      "duration": 0.1975,
      "velocity": 126,
      "chip": "ym2612"
    },
    {
      "channel": 5,
      "note": 36,
      "start": 95.8409,
      "duration": 0.0164,
      "velocity": 102,
      "chip": "ym2612"
    },
    {
      "channel": 2,
      "note": 43,
      "start": 95.9387,
      "duration": 0.0164,
      "velocity": 102,
      "chip": "ym2612"
    },
    {
      "channel": 3,
      "note": 45,
      "start": 95.94,
      "duration": 0.1975,
      "velocity": 122,
      "chip": "ym2612"
    },
    {
      "channel": 5,
      "note": 40,
      "start": 96.0396,
      "duration": 0.0163,
      "velocity": 102,
      "chip": "ym2612"
    },
    {
      "channel": 2,
      "note": 47,
      "start": 96.1374,
      "duration": 0.0164,
      "velocity": 102,
      "chip": "ym2612"
    },
    {
      "channel": 3,
      "note": 45,
      "start": 96.138,
      "duration": 0.3968,
      "velocity": 122,
      "chip": "ym2612"
    },
    {
      "channel": 5,
      "note": 43,
      "start": 96.2381,
      "duration": 0.0165,
      "velocity": 102,
      "chip": "ym2612"
    },
    {
      "channel": 2,
      "note": 48,
      "start": 96.336,
      "duration": 0.0164,
      "velocity": 102,
      "chip": "ym2612"
    },
    {
      "channel": 5,
      "note": 47,
      "start": 96.4368,
      "duration": 0.0164,
      "velocity": 102,
      "chip": "ym2612"
    },
    {
      "channel": 2,
      "note": 47,
      "start": 96.5346,
      "duration": 0.0164,
      "velocity": 102,
      "chip": "ym2612"
    },
    {
      "channel": 3,
      "note": 21,
      "start": 96.5359,
      "duration": 0.3962,
      "velocity": 126,
      "chip": "ym2612"
    },
    {
      "channel": 5,
      "note": 48,
      "start": 96.6354,
      "duration": 0.0164,
      "velocity": 102,
      "chip": "ym2612"
    },
    {
      "channel": 2,
      "note": 45,
      "start": 96.7332,
      "duration": 0.0164,
      "velocity": 102,
      "chip": "ym2612"
    },
    {
      "channel": 5,
      "note": 47,
      "start": 96.8341,
      "duration": 0.0164,
      "velocity": 102,
      "chip": "ym2612"
    },
    {
      "channel": 2,
      "note": 43,
      "start": 96.9319,
      "duration": 0.0164,
      "velocity": 102,
      "chip": "ym2612"
    },
    {
      "channel": 3,
      "note": 45,
      "start": 96.9331,
      "duration": 0.1975,
      "velocity": 122,
      "chip": "ym2612"
    },
    {
      "channel": 5,
      "note": 45,
      "start": 97.0327,
      "duration": 0.0164,
      "velocity": 102,
      "chip": "ym2612"
    },
    {
      "channel": 2,
      "note": 45,
      "start": 97.1305,
      "duration": 0.0164,
      "velocity": 102,
      "chip": "ym2612"
    },
    {
      "channel": 3,
      "note": 84,
      "start": 97.1317,
      "duration": 0.1975,
      "velocity": 113,
      "chip": "ym2612"
    },
    {
      "channel": 5,
      "note": 43,
      "start": 97.2313,
      "duration": 0.0164,
      "velocity": 102,
      "chip": "ym2612"
    },
    {
      "channel": 2,
      "note": 43,
      "start": 97.3291,
      "duration": 0.0164,
      "velocity": 102,
      "chip": "ym2612"
    },
    {
      "channel": 3,
      "note": 24,
      "start": 97.3304,
      "duration": 0.1975,
      "velocity": 126,
      "chip": "ym2612"
    },
    {
      "channel": 5,
      "note": 45,
      "start": 97.4299,
      "duration": 0.0164,
      "velocity": 102,
      "chip": "ym2612"
    },
    {
      "channel": 2,
      "note": 40,
      "start": 97.5278,
      "duration": 0.0164,
      "velocity": 102,
      "chip": "ym2612"
    },
    {
      "channel": 3,
      "note": 45,
      "start": 97.529,
      "duration": 0.1976,
      "velocity": 122,
      "chip": "ym2612"
    },
    {
      "channel": 5,
      "note": 43,
      "start": 97.6286,
      "duration": 0.0164,
      "velocity": 102,
      "chip": "ym2612"
    },
    {
      "channel": 2,
      "note": 36,
      "start": 97.7264,
      "duration": 0.0164,
      "velocity": 102,
      "chip": "ym2612"
    },
    {
      "channel": 3,
      "note": 45,
      "start": 97.727,
      "duration": 0.3968,
      "velocity": 122,
      "chip": "ym2612"
    },
    {
      "channel": 5,
      "note": 40,
      "start": 97.8272,
      "duration": 0.0164,
      "velocity": 102,
      "chip": "ym2612"
    },
    {
      "channel": 2,
      "note": 40,
      "start": 97.925,
      "duration": 0.0164,
      "velocity": 102,
      "chip": "ym2612"
    },
    {
      "channel": 5,
      "note": 36,
      "start": 98.0259,
      "duration": 0.0165,
      "velocity": 102,
      "chip": "ym2612"
    },
    {
      "channel": 2,
      "note": 36,
      "start": 98.1237,
      "duration": 0.0164,
      "velocity": 102,
      "chip": "ym2612"
    },
    {
      "channel": 3,
      "note": 21,
      "start": 98.1249,
      "duration": 0.3965,
      "velocity": 126,
      "chip": "ym2612"
    },
    {
      "channel": 5,
      "note": 40,
      "start": 98.2245,
      "duration": 0.0164,
      "velocity": 102,
      "chip": "ym2612"
    },
    {
      "channel": 2,
      "note": 35,
      "start": 98.3223,
      "duration": 0.0164,
      "velocity": 102,
      "chip": "ym2612"
    },
    {
      "channel": 5,
      "note": 36,
      "start": 98.4231,
      "duration": 0.0165,
      "velocity": 102,
      "chip": "ym2612"
    },
    {
      "channel": 0,
      "note": 17,
      "start": 98.5199,
      "duration": 3.1775,
      "velocity": 112,
      "chip": "ym2612"
    },
    {
      "channel": 1,
      "note": 33,
      "start": 98.5206,
      "duration": 3.178,
      "velocity": 112,
      "chip": "ym2612"
    },
    {
      "channel": 2,
      "note": 33,
      "start": 98.5213,
      "duration": 0.016,
      "velocity": 102,
      "chip": "ym2612"
    },
    {
      "channel": 3,
      "note": 47,
      "start": 98.5225,
      "duration": 0.1972,
      "velocity": 122,
      "chip": "ym2612"
    },
    {
      "channel": 4,
      "note": 29,
      "start": 98.5232,
      "duration": 3.178,
      "velocity": 124,
      "chip": "ym2612"
    },
    {
      "channel": 5,
      "note": 35,
      "start": 98.6217,
      "duration": 0.0164,
      "velocity": 102,
      "chip": "ym2612"
    },
    {
      "channel": 2,
      "note": 36,
      "start": 98.7196,
      "duration": 0.0164,
      "velocity": 102,
      "chip": "ym2612"
    },
    {
      "channel": 3,
      "note": 72,
      "start": 98.7208,
      "duration": 0.1975,
      "velocity": 113,
      "chip": "ym2612"
    },
    {
      "channel": 5,
      "note": 33,
      "start": 98.8203,
      "duration": 0.0165,
      "velocity": 102,
      "chip": "ym2612"
    },
    {
      "channel": 2,
      "note": 40,
      "start": 98.9182,
      "duration": 0.0164,
      "velocity": 102,
      "chip": "ym2612"
    },
    {
      "channel": 3,
      "note": 24,
      "start": 98.9194,
      "duration": 0.1976,
      "velocity": 126,
      "chip": "ym2612"
    },
    {
      "channel": 5,
      "note": 36,
      "start": 99.019,
      "duration": 0.0164,
      "velocity": 102,
      "chip": "ym2612"
    },
    {
      "channel": 2,
      "note": 43,
      "start": 99.1168,
      "duration": 0.0164,
      "velocity": 102,
      "chip": "ym2612"
    },
    {
      "channel": 3,
      "note": 47,
      "start": 99.118,
      "duration": 0.1975,
      "velocity": 122,
      "chip": "ym2612"
    },
    {
      "channel": 5,
      "note": 40,
      "start": 99.2176,
      "duration": 0.0164,
      "velocity": 102,
      "chip": "ym2612"
    },
    {
      "channel": 2,
      "note": 47,
      "start": 99.3154,
      "duration": 0.0164,
      "velocity": 102,
      "chip": "ym2612"
    },
    {
      "channel": 3,
      "note": 47,
      "start": 99.3161,
      "duration": 0.3967,
      "velocity": 122,
      "chip": "ym2612"
    },
    {
      "channel": 5,
      "note": 43,
      "start": 99.4163,
      "duration": 0.0164,
      "velocity": 102,
      "chip": "ym2612"
    },
    {
      "channel": 2,
      "note": 48,
      "start": 99.5141,
      "duration": 0.0164,
      "velocity": 102,
      "chip": "ym2612"
    },
    {
      "channel": 5,
      "note": 47,
      "start": 99.6149,
      "duration": 0.0164,
      "velocity": 102,
      "chip": "ym2612"
    },
    {
      "channel": 2,
      "note": 47,
      "start": 99.7127,
      "duration": 0.0164,
      "velocity": 102,
      "chip": "ym2612"
    },
    {
      "channel": 3,
      "note": 21,
      "start": 99.7139,
      "duration": 0.3962,
      "velocity": 126,
      "chip": "ym2612"
    },
    {
      "channel": 5,
      "note": 48,
      "start": 99.8135,
      "duration": 0.0164,
      "velocity": 102,
      "chip": "ym2612"
    },
    {
      "channel": 2,
      "note": 45,
      "start": 99.9113,
      "duration": 0.0164,
      "velocity": 102,
      "chip": "ym2612"
    },
    {
      "channel": 5,
      "note": 47,
      "start": 100.0121,
      "duration": 0.0164,
      "velocity": 102,
      "chip": "ym2612"
    },
    {
      "channel": 2,
      "note": 43,
      "start": 100.11,
      "duration": 0.0164,
      "velocity": 102,
      "chip": "ym2612"
    },
    {
      "channel": 3,
      "note": 47,
      "start": 100.1112,
      "duration": 0.1975,
      "velocity": 122,
      "chip": "ym2612"
    },
    {
      "channel": 5,
      "note": 45,
      "start": 100.2108,
      "duration": 0.0164,
      "velocity": 102,
      "chip": "ym2612"
    },
    {
      "channel": 2,
      "note": 45,
      "start": 100.3086,
      "duration": 0.0164,
      "velocity": 102,
      "chip": "ym2612"
    },
    {
      "channel": 3,
      "note": 84,
      "start": 100.3098,
      "duration": 0.1976,
      "velocity": 113,
      "chip": "ym2612"
    },
    {
      "channel": 5,
      "note": 43,
      "start": 100.4095,
      "duration": 0.0164,
      "velocity": 102,
      "chip": "ym2612"
    },
    {
      "channel": 2,
      "note": 43,
      "start": 100.5073,
      "duration": 0.0164,
      "velocity": 102,
      "chip": "ym2612"
    },
    {
      "channel": 3,
      "note": 24,
      "start": 100.5085,
      "duration": 0.1975,
      "velocity": 126,
      "chip": "ym2612"
    },
    {
      "channel": 5,
      "note": 45,
      "start": 100.608,
      "duration": 0.0164,
      "velocity": 102,
      "chip": "ym2612"
    },
    {
      "channel": 2,
      "note": 40,
      "start": 100.7058,
      "duration": 0.0164,
      "velocity": 102,
      "chip": "ym2612"
    },
    {
      "channel": 3,
      "note": 47,
      "start": 100.7071,
      "duration": 0.1975,
      "velocity": 122,
      "chip": "ym2612"
    },
    {
      "channel": 5,
      "note": 43,
      "start": 100.8067,
      "duration": 0.0164,
      "velocity": 102,
      "chip": "ym2612"
    },
    {
      "channel": 2,
      "note": 36,
      "start": 100.9045,
      "duration": 0.0164,
      "velocity": 102,
      "chip": "ym2612"
    },
    {
      "channel": 3,
      "note": 47,
      "start": 100.9051,
      "duration": 0.3968,
      "velocity": 122,
      "chip": "ym2612"
    },
    {
      "channel": 5,
      "note": 40,
      "start": 101.0053,
      "duration": 0.0165,
      "velocity": 102,
      "chip": "ym2612"
    },
    {
      "channel": 2,
      "note": 40,
      "start": 101.1031,
      "duration": 0.0164,
      "velocity": 102,
      "chip": "ym2612"
    },
    {
      "channel": 5,
      "note": 36,
      "start": 101.2039,
      "duration": 0.0164,
      "velocity": 102,
      "chip": "ym2612"
    },
    {
      "channel": 2,
      "note": 36,
      "start": 101.3017,
      "duration": 0.0164,
      "velocity": 102,
      "chip": "ym2612"
    },
    {
      "channel": 3,
      "note": 21,
      "start": 101.303,
      "duration": 0.3971,
      "velocity": 126,
      "chip": "ym2612"
    },
    {
      "channel": 5,
      "note": 40,
      "start": 101.4025,
      "duration": 0.0165,
      "velocity": 102,
      "chip": "ym2612"
    },
    {
      "channel": 2,
      "note": 35,
      "start": 101.5004,
      "duration": 0.0164,
      "velocity": 102,
      "chip": "ym2612"
    },
    {
      "channel": 5,
      "note": 36,
      "start": 101.6012,
      "duration": 0.0164,
      "velocity": 102,
      "chip": "ym2612"
    },
    {
      "channel": 0,
      "note": 28,
      "start": 101.6984,
      "duration": 0.1151,
      "velocity": 124,
      "chip": "ym2612"
    },
    {
      "channel": 1,
      "note": 35,
      "start": 101.6992,
      "duration": 3.1769,
      "velocity": 112,
      "chip": "ym2612"
    },
    {
      "channel": 2,
      "note": 33,
      "start": 101.6999,
      "duration": 0.0155,
      "velocity": 102,
      "chip": "ym2612"
    },
    {
      "channel": 3,
      "note": 52,
      "start": 101.7011,
      "duration": 0.1968,
      "velocity": 122,
      "chip": "ym2612"
    },
    {
      "channel": 4,
      "note": 28,
      "start": 101.7017,
      "duration": 3.177,
      "velocity": 124,
      "chip": "ym2612"
    },
    {
      "channel": 5,
      "note": 35,
      "start": 101.7998,
      "duration": 0.0164,
      "velocity": 102,
      "chip": "ym2612"
    },
    {
      "channel": 0,
      "note": 40,
      "start": 101.8965,
      "duration": 0.1156,
      "velocity": 124,
      "chip": "ym2612"
    },
    {
      "channel": 2,
      "note": 36,
      "start": 101.8978,
      "duration": 0.0162,
      "velocity": 102,
      "chip": "ym2612"
    },
    {
      "channel": 3,
      "note": 72,
      "start": 101.899,
      "duration": 0.1975,
      "velocity": 113,
      "chip": "ym2612"
    },
    {
      "channel": 5,
      "note": 33,
      "start": 101.9984,
      "duration": 0.0164,
      "velocity": 102,
      "chip": "ym2612"
    },
    {
      "channel": 0,
      "note": 28,
      "start": 102.0951,
      "duration": 0.1157,
      "velocity": 123,
      "chip": "ym2612"
    },
    {
      "channel": 2,
      "note": 40,
      "start": 102.0963,
      "duration": 0.0163,
      "velocity": 102,
      "chip": "ym2612"
    },
    {
      "channel": 3,
      "note": 24,
      "start": 102.0976,
      "duration": 0.1975,
      "velocity": 126,
      "chip": "ym2612"
    },
    {
      "channel": 5,
      "note": 36,
      "start": 102.197,
      "duration": 0.0165,
      "velocity": 102,
      "chip": "ym2612"
    },
    {
      "channel": 0,
      "note": 28,
      "start": 102.2937,
      "duration": 0.1157,
      "velocity": 123,
      "chip": "ym2612"
    },
    {
      "channel": 2,
      "note": 43,
      "start": 102.295,
      "duration": 0.0162,
      "velocity": 102,
      "chip": "ym2612"
    },
    {
      "channel": 3,
      "note": 52,
      "start": 102.2962,
      "duration": 0.1976,
      "velocity": 122,
      "chip": "ym2612"
    },
    {
      "channel": 5,
      "note": 40,
      "start": 102.3956,
      "duration": 0.0164,
      "velocity": 102,
      "chip": "ym2612"
    },
    {
      "channel": 0,
      "note": 40,
      "start": 102.4924,
      "duration": 0.1157,
      "velocity": 122,
      "chip": "ym2612"
    },
    {
      "channel": 2,
      "note": 47,
      "start": 102.4936,
      "duration": 0.0163,
      "velocity": 102,
      "chip": "ym2612"
    },
    {
      "channel": 3,
      "note": 52,
      "start": 102.4942,
      "duration": 0.3968,
      "velocity": 122,
      "chip": "ym2612"
    },
    {
      "channel": 5,
      "note": 43,
      "start": 102.5942,
      "duration": 0.0165,
      "velocity": 102,
      "chip": "ym2612"
    },
    {
      "channel": 0,
      "note": 28,
      "start": 102.691,
      "duration": 0.1158,
      "velocity": 122,
      "chip": "ym2612"
    },
    {
      "channel": 2,
      "note": 48,
      "start": 102.6922,
      "duration": 0.0163,
      "velocity": 102,
      "chip": "ym2612"
    },
    {
      "channel": 5,
      "note": 47,
      "start": 102.7929,
      "duration": 0.0165,
      "velocity": 102,
      "chip": "ym2612"
    },
    {
      "channel": 0,
      "note": 28,
      "start": 102.8897,
      "duration": 0.1156,
      "velocity": 121,
      "chip": "ym2612"
    },
    {
      "channel": 2,
      "note": 47,
      "start": 102.8909,
      "duration": 0.0162,
      "velocity": 102,
      "chip": "ym2612"
    },
    {
      "channel": 3,
      "note": 21,
      "start": 102.8922,
      "duration": 0.3961,
      "velocity": 126,
      "chip": "ym2612"
    },
    {
      "channel": 5,
      "note": 48,
      "start": 102.9916,
      "duration": 0.0164,
      "velocity": 102,
      "chip": "ym2612"
    },
    {
      "channel": 0,
      "note": 40,
      "start": 103.0883,
      "duration": 0.1157,
      "velocity": 121,
      "chip": "ym2612"
    },
    {
      "channel": 2,
      "note": 45,
      "start": 103.0895,
      "duration": 0.0162,
      "velocity": 102,
      "chip": "ym2612"
    },
    {
      "channel": 5,
      "note": 47,
      "start": 103.1902,
      "duration": 0.0164,
      "velocity": 102,
      "chip": "ym2612"
    },
    {
      "channel": 0,
      "note": 28,
      "start": 103.2869,
      "duration": 0.1157,
      "velocity": 120,
      "chip": "ym2612"
    },
    {
      "channel": 2,
      "note": 43,
      "start": 103.2881,
      "duration": 0.0163,
      "velocity": 102,
      "chip": "ym2612"
    },
    {
      "channel": 3,
      "note": 52,
      "start": 103.2894,
      "duration": 0.1975,
      "velocity": 122,
      "chip": "ym2612"
    },
    {
      "channel": 5,
      "note": 45,
      "start": 103.3888,
      "duration": 0.0165,
      "velocity": 102,
      "chip": "ym2612"
    },
    {
      "channel": 0,
      "note": 40,
      "start": 103.4855,
      "duration": 0.1157,
      "velocity": 120,
      "chip": "ym2612"
    },
    {
      "channel": 2,
      "note": 45,
      "start": 103.4867,
      "duration": 0.0163,
      "velocity": 102,
      "chip": "ym2612"
    },
    {
      "channel": 3,
      "note": 84,
      "start": 103.488,
      "duration": 0.1975,
      "velocity": 113,
      "chip": "ym2612"
    },
    {
      "channel": 5,
      "note": 43,
      "start": 103.5874,
      "duration": 0.0164,
      "velocity": 102,
      "chip": "ym2612"
    },
    {
      "channel": 0,
      "note": 28,
      "start": 103.6842,
      "duration": 0.1157,
      "velocity": 119,
      "chip": "ym2612"
    },
    {
      "channel": 2,
      "note": 43,
      "start": 103.6854,
      "duration": 0.0162,
      "velocity": 102,
      "chip": "ym2612"
    },
    {
      "channel": 3,
      "note": 24,
      "start": 103.6866,
      "duration": 0.1975,
      "velocity": 126,
      "chip": "ym2612"
    },
    {
      "channel": 5,
      "note": 45,
      "start": 103.786,
      "duration": 0.0165,
      "velocity": 102,
      "chip": "ym2612"
    },
    {
      "channel": 0,
      "note": 28,
      "start": 103.8828,
      "duration": 0.1157,
      "velocity": 119,
      "chip": "ym2612"
    },
    {
      "channel": 2,
      "note": 40,
      "start": 103.884,
      "duration": 0.0163,
      "velocity": 102,
      "chip": "ym2612"
    },
    {
      "channel": 3,
      "note": 52,
      "start": 103.8853,
      "duration": 0.1975,
      "velocity": 122,
      "chip": "ym2612"
    },
    {
      "channel": 5,
      "note": 43,
      "start": 103.9847,
      "duration": 0.0164,
      "velocity": 102,
      "chip": "ym2612"
    },
    {
      "channel": 0,
      "note": 40,
      "start": 104.0815,
      "duration": 0.1157,
      "velocity": 118,
      "chip": "ym2612"
    },
    {
      "channel": 2,
      "note": 36,
      "start": 104.0827,
      "duration": 0.0162,
      "velocity": 102,
      "chip": "ym2612"
    },
    {
      "channel": 3,
      "note": 52,
      "start": 104.0833,
      "duration": 0.3968,
      "velocity": 122,
      "chip": "ym2612"
    },
    {
      "channel": 5,
      "note": 40,
      "start": 104.1833,
      "duration": 0.0164,
      "velocity": 102,
      "chip": "ym2612"
    },
    {
      "channel": 0,
      "note": 28,
      "start": 104.2801,
      "duration": 0.1157,
      "velocity": 118,
      "chip": "ym2612"
    },
    {
      "channel": 2,
      "note": 40,
      "start": 104.2813,
      "duration": 0.0163,
      "velocity": 102,
      "chip": "ym2612"
    },
    {
      "channel": 5,
      "note": 36,
      "start": 104.382,
      "duration": 0.0164,
      "velocity": 102,
      "chip": "ym2612"
    },
    {
      "channel": 0,
      "note": 28,
      "start": 104.4787,
      "duration": 0.1157,
      "velocity": 117,
      "chip": "ym2612"
    },
    {
      "channel": 2,
      "note": 36,
      "start": 104.4799,
      "duration": 0.0162,
      "velocity": 102,
      "chip": "ym2612"
    },
    {
      "channel": 3,
      "note": 21,
      "start": 104.4811,
      "duration": 0.3964,
      "velocity": 126,
      "chip": "ym2612"
    },
    {
      "channel": 5,
      "note": 40,
      "start": 104.5806,
      "duration": 0.0164,
      "velocity": 102,
      "chip": "ym2612"
    },
    {
      "channel": 0,
      "note": 40,
      "start": 104.6773,
      "duration": 0.1157,
      "velocity": 117,
      "chip": "ym2612"
    },
    {
      "channel": 2,
      "note": 35,
      "start": 104.6785,
      "duration": 0.0163,
      "velocity": 102,
      "chip": "ym2612"
    },
    {
      "channel": 5,
      "note": 36,
      "start": 104.7792,
      "duration": 0.0165,
      "velocity": 102,
      "chip": "ym2612"
    },
    {
      "channel": 0,
      "note": 24,
      "start": 104.8759,
      "duration": 0.1157,
      "velocity": 116,
      "chip": "ym2612"
    },
    {
      "channel": 1,
      "note": 33,
      "start": 104.8767,
      "duration": 3.095,
      "velocity": 112,
      "chip": "ym2612"
    },
    {
      "channel": 2,
      "note": 33,
      "start": 104.8774,
      "duration": 0.016,
      "velocity": 102,
      "chip": "ym2612"
    },
    {
      "channel": 3,
      "note": 50,
      "start": 104.8786,
      "duration": 0.1973,
      "velocity": 122,
      "chip": "ym2612"
    },
    {
      "channel": 4,
      "note": 29,
      "start": 104.8792,
      "duration": 3.1783,
      "velocity": 124,
      "chip": "ym2612"
    },
    {
      "channel": 5,
      "note": 35,
      "start": 104.9778,
      "duration": 0.0164,
      "velocity": 102,
      "chip": "ym2612"
    },
    {
      "channel": 0,
      "note": 36,
      "start": 105.0746,
      "duration": 0.1157,
      "velocity": 116,
      "chip": "ym2612"
    },
    {
      "channel": 2,
      "note": 36,
      "start": 105.0758,
      "duration": 0.0163,
      "velocity": 102,
      "chip": "ym2612"
    },
    {
      "channel": 3,
      "note": 72,
      "start": 105.0771,
      "duration": 0.1975,
      "velocity": 113,
      "chip": "ym2612"
    },
    {
      "channel": 5,
      "note": 33,
      "start": 105.1764,
      "duration": 0.0165,
      "velocity": 102,
      "chip": "ym2612"
    },
    {
      "channel": 0,
      "note": 24,
      "start": 105.2733,
      "duration": 0.1156,
      "velocity": 117,
      "chip": "ym2612"
    },
    {
      "channel": 2,
      "note": 40,
      "start": 105.2745,
      "duration": 0.0163,
      "velocity": 102,
      "chip": "ym2612"
    },
    {
      "channel": 3,
      "note": 24,
      "start": 105.2757,
      "duration": 0.1975,
      "velocity": 126,
      "chip": "ym2612"
    },
    {
      "channel": 5,
      "note": 36,
      "start": 105.3752,
      "duration": 0.0164,
      "velocity": 102,
      "chip": "ym2612"
    },
    {
      "channel": 0,
      "note": 24,
      "start": 105.4719,
      "duration": 0.1157,
      "velocity": 117,
      "chip": "ym2612"
    },
    {
      "channel": 2,
      "note": 43,
      "start": 105.4731,
      "duration": 0.0162,
      "velocity": 102,
      "chip": "ym2612"
    },
    {
      "channel": 3,
      "note": 50,
      "start": 105.4743,
      "duration": 0.1975,
      "velocity": 122,
      "chip": "ym2612"
    },
    {
      "channel": 5,
      "note": 40,
      "start": 105.5738,
      "duration": 0.0164,
      "velocity": 102,
      "chip": "ym2612"
    },
    {
      "channel": 0,
      "note": 36,
      "start": 105.6705,
      "duration": 0.1157,
      "velocity": 118,
      "chip": "ym2612"
    },
    {
      "channel": 2,
      "note": 47,
      "start": 105.6717,
      "duration": 0.0162,
      "velocity": 102,
      "chip": "ym2612"
    },
    {
      "channel": 3,
      "note": 50,
      "start": 105.6724,
      "duration": 0.3967,
      "velocity": 122,
      "chip": "ym2612"
    },
    {
      "channel": 5,
      "note": 43,
      "start": 105.7724,
      "duration": 0.0164,
      "velocity": 102,
      "chip": "ym2612"
    },
    {
      "channel": 0,
      "note": 24,
      "start": 105.8691,
      "duration": 0.1157,
      "velocity": 118,
      "chip": "ym2612"
    },
    {
      "channel": 2,
      "note": 48,
      "start": 105.8703,
      "duration": 0.0163,
      "velocity": 102,
      "chip": "ym2612"
    },
    {
      "channel": 5,
      "note": 47,
      "start": 105.971,
      "duration": 0.0165,
      "velocity": 102,
      "chip": "ym2612"
    },
    {
      "channel": 0,
      "note": 24,
      "start": 106.0677,
      "duration": 0.1157,
      "velocity": 119,
      "chip": "ym2612"
    },
    {
      "channel": 2,
      "note": 47,
      "start": 106.0689,
      "duration": 0.0163,
      "velocity": 102,
      "chip": "ym2612"
    },
    {
      "channel": 3,
      "note": 21,
      "start": 106.0702,
      "duration": 0.3961,
      "velocity": 126,
      "chip": "ym2612"
    },
    {
      "channel": 5,
      "note": 48,
      "start": 106.1696,
      "duration": 0.0164,
      "velocity": 102,
      "chip": "ym2612"
    },
    {
      "channel": 0,
      "note": 36,
      "start": 106.2664,
      "duration": 0.1157,
      "velocity": 119,
      "chip": "ym2612"
    },
    {
      "channel": 2,
      "note": 45,
      "start": 106.2676,
      "duration": 0.0162,
      "velocity": 102,
      "chip": "ym2612"
    },
    {
      "channel": 5,
      "note": 47,
      "start": 106.3682,
      "duration": 0.0165,
      "velocity": 102,
      "chip": "ym2612"
    },
    {
      "channel": 0,
      "note": 24,
      "start": 106.465,
      "duration": 0.1157,
      "velocity": 120,
      "chip": "ym2612"
    },
    {
      "channel": 2,
      "note": 43,
      "start": 106.4662,
      "duration": 0.0163,
      "velocity": 102,
      "chip": "ym2612"
    },
    {
      "channel": 3,
      "note": 50,
      "start": 106.4675,
      "duration": 0.1975,
      "velocity": 122,
      "chip": "ym2612"
    },
    {
      "channel": 5,
      "note": 45,
      "start": 106.5669,
      "duration": 0.0164,
      "velocity": 102,
      "chip": "ym2612"
    },
    {
      "channel": 0,
      "note": 36,
      "start": 106.6637,
      "duration": 0.1157,
      "velocity": 120,
      "chip": "ym2612"
    },
    {
      "channel": 2,
      "note": 45,
      "start": 106.6649,
      "duration": 0.0162,
      "velocity": 102,
      "chip": "ym2612"
    },
    {
      "channel": 3,
      "note": 84,
      "start": 106.6661,
      "duration": 0.1975,
      "velocity": 113,
      "chip": "ym2612"
    },
    {
      "channel": 5,
      "note": 43,
      "start": 106.7655,
      "duration": 0.0164,
      "velocity": 102,
      "chip": "ym2612"
    },
    {
      "channel": 0,
      "note": 24,
      "start": 106.8622,
      "duration": 0.1157,
      "velocity": 121,
      "chip": "ym2612"
    },
    {
      "channel": 2,
      "note": 43,
      "start": 106.8635,
      "duration": 0.0163,
      "velocity": 102,
      "chip": "ym2612"
    },
    {
      "channel": 3,
      "note": 24,
      "start": 106.8647,
      "duration": 0.1975,
      "velocity": 126,
      "chip": "ym2612"
    },
    {
      "channel": 5,
      "note": 45,
      "start": 106.9641,
      "duration": 0.0164,
      "velocity": 102,
      "chip": "ym2612"
    },
    {
      "channel": 0,
      "note": 24,
      "start": 107.0609,
      "duration": 0.1157,
      "velocity": 121,
      "chip": "ym2612"
    },
    {
      "channel": 2,
      "note": 40,
      "start": 107.0621,
      "duration": 0.0162,
      "velocity": 102,
      "chip": "ym2612"
    },
    {
      "channel": 3,
      "note": 50,
      "start": 107.0633,
      "duration": 0.1976,
      "velocity": 122,
      "chip": "ym2612"
    },
    {
      "channel": 5,
      "note": 43,
      "start": 107.1628,
      "duration": 0.0164,
      "velocity": 102,
      "chip": "ym2612"
    },
    {
      "channel": 0,
      "note": 36,
      "start": 107.2595,
      "duration": 0.1157,
      "velocity": 122,
      "chip": "ym2612"
    },
    {
      "channel": 2,
      "note": 36,
      "start": 107.2607,
      "duration": 0.0163,
      "velocity": 102,
      "chip": "ym2612"
    },
    {
      "channel": 3,
      "note": 50,
      "start": 107.2614,
      "duration": 0.3968,
      "velocity": 122,
      "chip": "ym2612"
    },
    {
      "channel": 5,
      "note": 40,
      "start": 107.3614,
      "duration": 0.0164,
      "velocity": 102,
      "chip": "ym2612"
    },
    {
      "channel": 0,
      "note": 24,
      "start": 107.4582,
      "duration": 0.1156,
      "velocity": 122,
      "chip": "ym2612"
    },
    {
      "channel": 2,
      "note": 40,
      "start": 107.4594,
      "duration": 0.0162,
      "velocity": 102,
      "chip": "ym2612"
    },
    {
      "channel": 5,
      "note": 36,
      "start": 107.56,
      "duration": 0.0164,
      "velocity": 102,
      "chip": "ym2612"
    },
    {
      "channel": 0,
      "note": 26,
      "start": 107.6568,
      "duration": 0.1156,
      "velocity": 123,
      "chip": "ym2612"
    },
    {
      "channel": 2,
      "note": 36,
      "start": 107.658,
      "duration": 0.0162,
      "velocity": 102,
      "chip": "ym2612"
    },
    {
      "channel": 3,
      "note": 21,
      "start": 107.6593,
      "duration": 0.397,
      "velocity": 126,
      "chip": "ym2612"
    },
    {
      "channel": 5,
      "note": 40,
      "start": 107.7587,
      "duration": 0.0165,
      "velocity": 102,
      "chip": "ym2612"
    },
    {
      "channel": 0,
      "note": 38,
      "start": 107.8554,
      "duration": 0.1157,
      "velocity": 123,
      "chip": "ym2612"
    },
    {
      "channel": 2,
      "note": 35,
      "start": 107.8566,
      "duration": 0.0163,
      "velocity": 102,
      "chip": "ym2612"
    },
    {
      "channel": 5,
      "note": 36,
      "start": 107.9573,
      "duration": 0.0164,
      "velocity": 102,
      "chip": "ym2612"
    },
    {
      "channel": 0,
      "note": 28,
      "start": 108.0547,
      "duration": 3.177,
      "velocity": 112,
      "chip": "ym2612"
    },
    {
      "channel": 1,
      "note": 31,
      "start": 108.0554,
      "duration": 3.1769,
      "velocity": 112,
      "chip": "ym2612"
    },
    {
      "channel": 2,
      "note": 33,
      "start": 108.0561,
      "duration": 0.0155,
      "velocity": 102,
      "chip": "ym2612"
    },
    {
      "channel": 3,
      "note": 28,
      "start": 108.0574,
      "duration": 0.1139,
      "velocity": 124,
      "chip": "ym2612"
    },
    {
      "channel": 4,
      "note": 35,
      "start": 108.0587,
      "duration": 3.1757,
      "velocity": 112,
      "chip": "ym2612"
    },
    {
      "channel": 5,
      "note": 35,
      "start": 108.1561,
      "duration": 0.0164,
      "velocity": 102,
      "chip": "ym2612"
    },
    {
      "channel": 2,
      "note": 36,
      "start": 108.2538,
      "duration": 0.0164,
      "velocity": 102,
      "chip": "ym2612"
    },
    {
      "channel": 3,
      "note": 40,
      "start": 108.2544,
      "duration": 0.1156,
      "velocity": 124,
      "chip": "ym2612"
    },
    {
      "channel": 5,
      "note": 33,
      "start": 108.3547,
      "duration": 0.0164,
      "velocity": 102,
      "chip": "ym2612"
    },
    {
      "channel": 2,
      "note": 40,
      "start": 108.4524,
      "duration": 0.0164,
      "velocity": 102,
      "chip": "ym2612"
    },
    {
      "channel": 3,
      "note": 28,
      "start": 108.453,
      "duration": 0.1156,
      "velocity": 123,
      "chip": "ym2612"
    },
    {
      "channel": 5,
      "note": 36,
      "start": 108.5533,
      "duration": 0.0165,
      "velocity": 102,
      "chip": "ym2612"
    },
    {
      "channel": 2,
      "note": 43,
      "start": 108.651,
      "duration": 0.0164,
      "velocity": 102,
      "chip": "ym2612"
    },
    {
      "channel": 3,
      "note": 28,
      "start": 108.6517,
      "duration": 0.1156,
      "velocity": 123,
      "chip": "ym2612"
    },
    {
      "channel": 5,
      "note": 40,
      "start": 108.752,
      "duration": 0.0164,
      "velocity": 102,
      "chip": "ym2612"
    },
    {
      "channel": 2,
      "note": 47,
      "start": 108.8497,
      "duration": 0.0164,
      "velocity": 102,
      "chip": "ym2612"
    },
    {
      "channel": 3,
      "note": 40,
      "start": 108.8503,
      "duration": 0.1156,
      "velocity": 122,
      "chip": "ym2612"
    },
    {
      "channel": 5,
      "note": 43,
      "start": 108.9505,
      "duration": 0.0165,
      "velocity": 102,
      "chip": "ym2612"
    },
    {
      "channel": 2,
      "note": 48,
      "start": 109.0483,
      "duration": 0.0164,
      "velocity": 102,
      "chip": "ym2612"
    },
    {
      "channel": 3,
      "note": 28,
      "start": 109.049,
      "duration": 0.1156,
      "velocity": 122,
      "chip": "ym2612"
    },
    {
      "channel": 5,
      "note": 47,
      "start": 109.1492,
      "duration": 0.0164,
      "velocity": 102,
      "chip": "ym2612"
    },
    {
      "channel": 2,
      "note": 47,
      "start": 109.2469,
      "duration": 0.0164,
      "velocity": 102,
      "chip": "ym2612"
    },
    {
      "channel": 3,
      "note": 28,
      "start": 109.2476,
      "duration": 0.1156,
      "velocity": 121,
      "chip": "ym2612"
    },
    {
      "channel": 5,
      "note": 48,
      "start": 109.3478,
      "duration": 0.0165,
      "velocity": 102,
      "chip": "ym2612"
    },
    {
      "channel": 2,
      "note": 45,
      "start": 109.4456,
      "duration": 0.0164,
      "velocity": 102,
      "chip": "ym2612"
    },
    {
      "channel": 3,
      "note": 40,
      "start": 109.4462,
      "duration": 0.1155,
      "velocity": 121,
      "chip": "ym2612"
    },
    {
      "channel": 5,
      "note": 47,
      "start": 109.5465,
      "duration": 0.0164,
      "velocity": 102,
      "chip": "ym2612"
    },
    {
      "channel": 2,
      "note": 43,
      "start": 109.6442,
      "duration": 0.0164,
      "velocity": 102,
      "chip": "ym2612"
    },
    {
      "channel": 3,
      "note": 28,
      "start": 109.6448,
      "duration": 0.1156,
      "velocity": 120,
      "chip": "ym2612"
    },
    {
      "channel": 5,
      "note": 45,
      "start": 109.7451,
      "duration": 0.0165,
      "velocity": 102,
      "chip": "ym2612"
    },
    {
      "channel": 2,
      "note": 45,
      "start": 109.8429,
      "duration": 0.0164,
      "velocity": 102,
      "chip": "ym2612"
    },
    {
      "channel": 3,
      "note": 40,
      "start": 109.8435,
      "duration": 0.1155,
      "velocity": 120,
      "chip": "ym2612"
    },
    {
      "channel": 5,
      "note": 43,
      "start": 109.9437,
      "duration": 0.0164,
      "velocity": 102,
      "chip": "ym2612"
    },
    {
      "channel": 2,
      "note": 43,
      "start": 110.0415,
      "duration": 0.0165,
      "velocity": 102,
      "chip": "ym2612"
    },
    {
      "channel": 3,
      "note": 28,
      "start": 110.0421,
      "duration": 0.1156,
      "velocity": 119,
      "chip": "ym2612"
    },
    {
      "channel": 5,
      "note": 45,
      "start": 110.1424,
      "duration": 0.0164,
      "velocity": 102,
      "chip": "ym2612"
    },
    {
      "channel": 2,
      "note": 40,
      "start": 110.2401,
      "duration": 0.0164,
      "velocity": 102,
      "chip": "ym2612"
    },
    {
      "channel": 3,
      "note": 28,
      "start": 110.2408,
      "duration": 0.1155,
      "velocity": 119,
      "chip": "ym2612"
    },
    {
      "channel": 5,
      "note": 43,
      "start": 110.341,
      "duration": 0.0165,
      "velocity": 102,
      "chip": "ym2612"
    },
    {
      "channel": 2,
      "note": 36,
      "start": 110.4387,
      "duration": 0.0164,
      "velocity": 102,
      "chip": "ym2612"
    },
    {
      "channel": 3,
      "note": 40,
      "start": 110.4393,
      "duration": 0.1156,
      "velocity": 118,
      "chip": "ym2612"
    },
    {
      "channel": 5,
      "note": 40,
      "start": 110.5397,
      "duration": 0.0164,
      "velocity": 102,
      "chip": "ym2612"
    },
    {
      "channel": 2,
      "note": 40,
      "start": 110.6374,
      "duration": 0.0164,
      "velocity": 102,
      "chip": "ym2612"
    },
    {
      "channel": 3,
      "note": 28,
      "start": 110.638,
      "duration": 0.1155,
      "velocity": 118,
      "chip": "ym2612"
    },
    {
      "channel": 5,
      "note": 36,
      "start": 110.7382,
      "duration": 0.0165,
      "velocity": 102,
      "chip": "ym2612"
    },
    {
      "channel": 2,
      "note": 36,
      "start": 110.836,
      "duration": 0.0164,
      "velocity": 102,
      "chip": "ym2612"
    },
    {
      "channel": 3,
      "note": 28,
      "start": 110.8366,
      "duration": 0.1156,
      "velocity": 117,
      "chip": "ym2612"
    },
    {
      "channel": 5,
      "note": 40,
      "start": 110.9369,
      "duration": 0.0164,
      "velocity": 102,
      "chip": "ym2612"
    },
    {
      "channel": 2,
      "note": 35,
      "start": 111.0346,
      "duration": 0.0164,
      "velocity": 102,
      "chip": "ym2612"
    },
    {
      "channel": 3,
      "note": 40,
      "start": 111.0352,
      "duration": 0.1156,
      "velocity": 117,
      "chip": "ym2612"
    },
    {
      "channel": 5,
      "note": 36,
      "start": 111.1355,
      "duration": 0.0165,
      "velocity": 102,
      "chip": "ym2612"
    },
    {
      "channel": 0,
      "note": 17,
      "start": 111.2322,
      "duration": 3.1775,
      "velocity": 112,
      "chip": "ym2612"
    },
    {
      "channel": 1,
      "note": 33,
      "start": 111.2329,
      "duration": 3.1776,
      "velocity": 112,
      "chip": "ym2612"
    },
    {
      "channel": 2,
      "note": 33,
      "start": 111.2336,
      "duration": 0.016,
      "velocity": 102,
      "chip": "ym2612"
    },
    {
      "channel": 3,
      "note": 24,
      "start": 111.2343,
      "duration": 0.1152,
      "velocity": 116,
      "chip": "ym2612"
    },
    {
      "channel": 4,
      "note": 36,
      "start": 111.235,
      "duration": 3.1775,
      "velocity": 112,
      "chip": "ym2612"
    },
    {
      "channel": 5,
      "note": 35,
      "start": 111.3341,
      "duration": 0.0164,
      "velocity": 102,
      "chip": "ym2612"
    },
    {
      "channel": 2,
      "note": 36,
      "start": 111.4318,
      "duration": 0.0164,
      "velocity": 102,
      "chip": "ym2612"
    },
    {
      "channel": 3,
      "note": 36,
      "start": 111.4325,
      "duration": 0.1156,
      "velocity": 116,
      "chip": "ym2612"
    },
    {
      "channel": 5,
      "note": 33,
      "start": 111.5327,
      "duration": 0.0165,
      "velocity": 102,
      "chip": "ym2612"
    },
    {
      "channel": 2,
      "note": 40,
      "start": 111.6305,
      "duration": 0.0164,
      "velocity": 102,
      "chip": "ym2612"
    },
    {
      "channel": 3,
      "note": 24,
      "start": 111.6311,
      "duration": 0.1156,
      "velocity": 117,
      "chip": "ym2612"
    },
    {
      "channel": 5,
      "note": 36,
      "start": 111.7314,
      "duration": 0.0164,
      "velocity": 102,
      "chip": "ym2612"
    },
    {
      "channel": 2,
      "note": 43,
      "start": 111.8291,
      "duration": 0.0164,
      "velocity": 102,
      "chip": "ym2612"
    },
    {
      "channel": 3,
      "note": 24,
      "start": 111.8298,
      "duration": 0.1156,
      "velocity": 117,
      "chip": "ym2612"
    },
    {
      "channel": 5,
      "note": 40,
      "start": 111.93,
      "duration": 0.0165,
      "velocity": 102,
      "chip": "ym2612"
    },
    {
      "channel": 2,
      "note": 47,
      "start": 112.0278,
      "duration": 0.0164,
      "velocity": 102,
      "chip": "ym2612"
    },
    {
      "channel": 3,
      "note": 36,
      "start": 112.0284,
      "duration": 0.1155,
      "velocity": 118,
      "chip": "ym2612"
    },
    {
      "channel": 5,
      "note": 43,
      "start": 112.1287,
      "duration": 0.0164,
      "velocity": 102,
      "chip": "ym2612"
    },
    {
      "channel": 2,
      "note": 48,
      "start": 112.2264,
      "duration": 0.0164,
      "velocity": 102,
      "chip": "ym2612"
    },
    {
      "channel": 3,
      "note": 24,
      "start": 112.227,
      "duration": 0.1156,
      "velocity": 118,
      "chip": "ym2612"
    },
    {
      "channel": 5,
      "note": 47,
      "start": 112.3273,
      "duration": 0.0165,
      "velocity": 102,
      "chip": "ym2612"
    },
    {
      "channel": 2,
      "note": 47,
      "start": 112.425,
      "duration": 0.0164,
      "velocity": 102,
      "chip": "ym2612"
    },
    {
      "channel": 3,
      "note": 24,
      "start": 112.4257,
      "duration": 0.1156,
      "velocity": 119,
      "chip": "ym2612"
    },
    {
      "channel": 5,
      "note": 48,
      "start": 112.5259,
      "duration": 0.0165,
      "velocity": 102,
      "chip": "ym2612"
    },
    {
      "channel": 2,
      "note": 45,
      "start": 112.6237,
      "duration": 0.0164,
      "velocity": 102,
      "chip": "ym2612"
    },
    {
      "channel": 3,
      "note": 36,
      "start": 112.6243,
      "duration": 0.1156,
      "velocity": 119,
      "chip": "ym2612"
    },
    {
      "channel": 5,
      "note": 47,
      "start": 112.7246,
      "duration": 0.0164,
      "velocity": 102,
      "chip": "ym2612"
    },
    {
      "channel": 2,
      "note": 43,
      "start": 112.8223,
      "duration": 0.0164,
      "velocity": 102,
      "chip": "ym2612"
    },
    {
      "channel": 3,
      "note": 24,
      "start": 112.8229,
      "duration": 0.1155,
      "velocity": 120,
      "chip": "ym2612"
    },
    {
      "channel": 5,
      "note": 45,
      "start": 112.9232,
      "duration": 0.0165,
      "velocity": 102,
      "chip": "ym2612"
    },
    {
      "channel": 2,
      "note": 45,
      "start": 113.0209,
      "duration": 0.0164,
      "velocity": 102,
      "chip": "ym2612"
    },
    {
      "channel": 3,
      "note": 36,
      "start": 113.0215,
      "duration": 0.1156,
      "velocity": 120,
      "chip": "ym2612"
    },
    {
      "channel": 5,
      "note": 43,
      "start": 113.1218,
      "duration": 0.0165,
      "velocity": 102,
      "chip": "ym2612"
    },
    {
      "channel": 2,
      "note": 43,
      "start": 113.2196,
      "duration": 0.0164,
      "velocity": 102,
      "chip": "ym2612"
    },
    {
      "channel": 3,
      "note": 24,
      "start": 113.2202,
      "duration": 0.1155,
      "velocity": 121,
      "chip": "ym2612"
    },
    {
      "channel": 5,
      "note": 45,
      "start": 113.3204,
      "duration": 0.0165,
      "velocity": 102,
      "chip": "ym2612"
    },
    {
      "channel": 2,
      "note": 40,
      "start": 113.4182,
      "duration": 0.0164,
      "velocity": 102,
      "chip": "ym2612"
    },
    {
      "channel": 3,
      "note": 24,
      "start": 113.4188,
      "duration": 0.1156,
      "velocity": 121,
      "chip": "ym2612"
    },
    {
      "channel": 5,
      "note": 43,
      "start": 113.519,
      "duration": 0.0164,
      "velocity": 102,
      "chip": "ym2612"
    },
    {
      "channel": 2,
      "note": 36,
      "start": 113.6168,
      "duration": 0.0164,
      "velocity": 102,
      "chip": "ym2612"
    },
    {
      "channel": 3,
      "note": 36,
      "start": 113.6174,
      "duration": 0.1156,
      "velocity": 122,
      "chip": "ym2612"
    },
    {
      "channel": 5,
      "note": 40,
      "start": 113.7177,
      "duration": 0.0165,
      "velocity": 102,
      "chip": "ym2612"
    },
    {
      "channel": 2,
      "note": 40,
      "start": 113.8154,
      "duration": 0.0164,
      "velocity": 102,
      "chip": "ym2612"
    },
    {
      "channel": 3,
      "note": 24,
      "start": 113.8161,
      "duration": 0.1156,
      "velocity": 122,
      "chip": "ym2612"
    },
    {
      "channel": 5,
      "note": 36,
      "start": 113.9163,
      "duration": 0.0164,
      "velocity": 102,
      "chip": "ym2612"
    },
    {
      "channel": 2,
      "note": 36,
      "start": 114.014,
      "duration": 0.0164,
      "velocity": 102,
      "chip": "ym2612"
    },
    {
      "channel": 3,
      "note": 26,
      "start": 114.0147,
      "duration": 0.1156,
      "velocity": 123,
      "chip": "ym2612"
    },
    {
      "channel": 5,
      "note": 40,
      "start": 114.1149,
      "duration": 0.0165,
      "velocity": 102,
      "chip": "ym2612"
    },
    {
      "channel": 2,
      "note": 35,
      "start": 114.2127,
      "duration": 0.0164,
      "velocity": 102,
      "chip": "ym2612"
    },
    {
      "channel": 3,
      "note": 38,
      "start": 114.2133,
      "duration": 0.1156,
      "velocity": 123,
      "chip": "ym2612"
    },
    {
      "channel": 5,
      "note": 36,
      "start": 114.3136,
      "duration": 0.0164,
      "velocity": 102,
      "chip": "ym2612"
    },
    {
      "channel": 0,
      "note": 28,
      "start": 114.4103,
      "duration": 3.1776,
      "velocity": 112,
      "chip": "ym2612"
    },
    {
      "channel": 1,
      "note": 31,
      "start": 114.411,
      "duration": 3.1775,
      "velocity": 112,
      "chip": "ym2612"
    },
    {
      "channel": 2,
      "note": 33,
      "start": 114.4117,
      "duration": 0.016,
      "velocity": 102,
      "chip": "ym2612"
    },
    {
      "channel": 3,
      "note": 28,
      "start": 114.4124,
      "duration": 0.1151,
      "velocity": 124,
      "chip": "ym2612"
    },
    {
      "channel": 4,
      "note": 35,
      "start": 114.4131,
      "duration": 3.1775,
      "velocity": 112,
      "chip": "ym2612"
    },
    {
      "channel": 5,
      "note": 35,
      "start": 114.5122,
      "duration": 0.0165,
      "velocity": 102,
      "chip": "ym2612"
    },
    {
      "channel": 2,
      "note": 36,
      "start": 114.61,
      "duration": 0.0164,
      "velocity": 102,
      "chip": "ym2612"
    },
    {
      "channel": 3,
      "note": 40,
      "start": 114.6106,
      "duration": 0.1156,
      "velocity": 124,
      "chip": "ym2612"
    },
    {
      "channel": 5,
      "note": 33,
      "start": 114.7109,
      "duration": 0.0164,
      "velocity": 102,
      "chip": "ym2612"
    },
    {
      "channel": 2,
      "note": 40,
      "start": 114.8086,
      "duration": 0.0164,
      "velocity": 102,
      "chip": "ym2612"
    },
    {
      "channel": 3,
      "note": 28,
      "start": 114.8092,
      "duration": 0.1156,
      "velocity": 123,
      "chip": "ym2612"
    },
    {
      "channel": 5,
      "note": 36,
      "start": 114.9095,
      "duration": 0.0165,
      "velocity": 102,
      "chip": "ym2612"
    },
    {
      "channel": 2,
      "note": 43,
      "start": 115.0073,
      "duration": 0.0163,
      "velocity": 102,
      "chip": "ym2612"
    },
    {
      "channel": 3,
      "note": 28,
      "start": 115.0079,
      "duration": 0.1155,
      "velocity": 123,
      "chip": "ym2612"
    },
    {
      "channel": 5,
      "note": 40,
      "start": 115.1081,
      "duration": 0.0165,
      "velocity": 102,
      "chip": "ym2612"
    },
    {
      "channel": 2,
      "note": 47,
      "start": 115.2058,
      "duration": 0.0164,
      "velocity": 102,
      "chip": "ym2612"
    },
    {
      "channel": 3,
      "note": 40,
      "start": 115.2065,
      "duration": 0.1155,
      "velocity": 122,
      "chip": "ym2612"
    },
    {
      "channel": 5,
      "note": 43,
      "start": 115.3068,
      "duration": 0.0164,
      "velocity": 102,
      "chip": "ym2612"
    },
    {
      "channel": 2,
      "note": 48,
      "start": 115.4045,
      "duration": 0.0164,
      "velocity": 102,
      "chip": "ym2612"
    },
    {
      "channel": 3,
      "note": 28,
      "start": 115.4051,
      "duration": 0.1155,
      "velocity": 122,
      "chip": "ym2612"
    },
    {
      "channel": 5,
      "note": 47,
      "start": 115.5054,
      "duration": 0.0164,
      "velocity": 102,
      "chip": "ym2612"
    },
    {
      "channel": 2,
      "note": 47,
      "start": 115.6031,
      "duration": 0.0164,
      "velocity": 102,
      "chip": "ym2612"
    },
    {
      "channel": 3,
      "note": 28,
      "start": 115.6037,
      "duration": 0.1156,
      "velocity": 121,
      "chip": "ym2612"
    },
    {
      "channel": 5,
      "note": 48,
      "start": 115.704,
      "duration": 0.0165,
      "velocity": 102,
      "chip": "ym2612"
    },
    {
      "channel": 2,
      "note": 45,
      "start": 115.8017,
      "duration": 0.0164,
      "velocity": 102,
      "chip": "ym2612"
    },
    {
      "channel": 3,
      "note": 40,
      "start": 115.8024,
      "duration": 0.1155,
      "velocity": 121,
      "chip": "ym2612"
    },
    {
      "channel": 5,
      "note": 47,
      "start": 115.9026,
      "duration": 0.0165,
      "velocity": 102,
      "chip": "ym2612"
    },
    {
      "channel": 2,
      "note": 43,
      "start": 116.0004,
      "duration": 0.0164,
      "velocity": 102,
      "chip": "ym2612"
    },
    {
      "channel": 3,
      "note": 28,
      "start": 116.001,
      "duration": 0.1156,
      "velocity": 120,
      "chip": "ym2612"
    },
    {
      "channel": 5,
      "note": 45,
      "start": 116.1012,
      "duration": 0.0164,
      "velocity": 102,
      "chip": "ym2612"
    },
    {
      "channel": 2,
      "note": 45,
      "start": 116.199,
      "duration": 0.0165,
      "velocity": 102,
      "chip": "ym2612"
    },
    {
      "channel": 3,
      "note": 40,
      "start": 116.1996,
      "duration": 0.1156,
      "velocity": 120,
      "chip": "ym2612"
    },
    {
      "channel": 5,
      "note": 43,
      "start": 116.2998,
      "duration": 0.0165,
      "velocity": 102,
      "chip": "ym2612"
    },
    {
      "channel": 2,
      "note": 43,
      "start": 116.3976,
      "duration": 0.0164,
      "velocity": 102,
      "chip": "ym2612"
    },
    {
      "channel": 3,
      "note": 28,
      "start": 116.3983,
      "duration": 0.1156,
      "velocity": 119,
      "chip": "ym2612"
    },
    {
      "channel": 5,
      "note": 45,
      "start": 116.4985,
      "duration": 0.0164,
      "velocity": 102,
      "chip": "ym2612"
    },
    {
      "channel": 2,
      "note": 40,
      "start": 116.5962,
      "duration": 0.0164,
      "velocity": 102,
      "chip": "ym2612"
    },
    {
      "channel": 3,
      "note": 28,
      "start": 116.5968,
      "duration": 0.1156,
      "velocity": 119,
      "chip": "ym2612"
    },
    {
      "channel": 5,
      "note": 43,
      "start": 116.6971,
      "duration": 0.0165,
      "velocity": 102,
      "chip": "ym2612"
    },
    {
      "channel": 2,
      "note": 36,
      "start": 116.7949,
      "duration": 0.0164,
      "velocity": 102,
      "chip": "ym2612"
    },
    {
      "channel": 3,
      "note": 40,
      "start": 116.7955,
      "duration": 0.1156,
      "velocity": 118,
      "chip": "ym2612"
    },
    {
      "channel": 5,
      "note": 40,
      "start": 116.8958,
      "duration": 0.0164,
      "velocity": 102,
      "chip": "ym2612"
    },
    {
      "channel": 2,
      "note": 40,
      "start": 116.9935,
      "duration": 0.0164,
      "velocity": 102,
      "chip": "ym2612"
    },
    {
      "channel": 3,
      "note": 28,
      "start": 116.9941,
      "duration": 0.1156,
      "velocity": 118,
      "chip": "ym2612"
    },
    {
      "channel": 5,
      "note": 36,
      "start": 117.0944,
      "duration": 0.0165,
      "velocity": 102,
      "chip": "ym2612"
    },
    {
      "channel": 2,
      "note": 36,
      "start": 117.1922,
      "duration": 0.0164,
      "velocity": 102,
      "chip": "ym2612"
    },
    {
      "channel": 3,
      "note": 28,
      "start": 117.1928,
      "duration": 0.1156,
      "velocity": 117,
      "chip": "ym2612"
    },
    {
      "channel": 5,
      "note": 40,
      "start": 117.293,
      "duration": 0.0165,
      "velocity": 102,
      "chip": "ym2612"
    },
    {
      "channel": 2,
      "note": 35,
      "start": 117.3908,
      "duration": 0.0164,
      "velocity": 102,
      "chip": "ym2612"
    },
    {
      "channel": 3,
      "note": 40,
      "start": 117.3915,
      "duration": 0.1156,
      "velocity": 117,
      "chip": "ym2612"
    },
    {
      "channel": 5,
      "note": 36,
      "start": 117.4917,
      "duration": 0.0164,
      "velocity": 102,
      "chip": "ym2612"
    },
    {
      "channel": 0,
      "note": 17,
      "start": 117.5884,
      "duration": 3.1775,
      "velocity": 112,
      "chip": "ym2612"
    },
    {
      "channel": 1,
      "note": 33,
      "start": 117.5891,
      "duration": 3.1776,
      "velocity": 112,
      "chip": "ym2612"
    },
    {
      "channel": 2,
      "note": 33,
      "start": 117.5899,
      "duration": 0.016,
      "velocity": 102,
      "chip": "ym2612"
    },
    {
      "channel": 3,
      "note": 24,
      "start": 117.5905,
      "duration": 0.1151,
      "velocity": 116,
      "chip": "ym2612"
    },
    {
      "channel": 4,
      "note": 36,
      "start": 117.5912,
      "duration": 3.1788,
      "velocity": 112,
      "chip": "ym2612"
    },
    {
      "channel": 5,
      "note": 35,
      "start": 117.6903,
      "duration": 0.0165,
      "velocity": 102,
      "chip": "ym2612"
    },
    {
      "channel": 2,
      "note": 36,
      "start": 117.788,
      "duration": 0.0164,
      "velocity": 102,
      "chip": "ym2612"
    },
    {
      "channel": 3,
      "note": 36,
      "start": 117.7886,
      "duration": 0.1156,
      "velocity": 116,
      "chip": "ym2612"
    },
    {
      "channel": 5,
      "note": 33,
      "start": 117.8889,
      "duration": 0.0165,
      "velocity": 102,
      "chip": "ym2612"
    },
    {
      "channel": 2,
      "note": 40,
      "start": 117.9867,
      "duration": 0.0164,
      "velocity": 102,
      "chip": "ym2612"
    },
    {
      "channel": 3,
      "note": 24,
      "start": 117.9873,
      "duration": 0.1155,
      "velocity": 117,
      "chip": "ym2612"
    },
    {
      "channel": 5,
      "note": 36,
      "start": 118.0876,
      "duration": 0.0164,
      "velocity": 102,
      "chip": "ym2612"
    },
    {
      "channel": 2,
      "note": 43,
      "start": 118.1853,
      "duration": 0.0164,
      "velocity": 102,
      "chip": "ym2612"
    },
    {
      "channel": 3,
      "note": 24,
      "start": 118.1859,
      "duration": 0.1156,
      "velocity": 117,
      "chip": "ym2612"
    },
    {
      "channel": 5,
      "note": 40,
      "start": 118.2862,
      "duration": 0.0165,
      "velocity": 102,
      "chip": "ym2612"
    },
    {
      "channel": 2,
      "note": 47,
      "start": 118.3839,
      "duration": 0.0164,
      "velocity": 102,
      "chip": "ym2612"
    },
    {
      "channel": 3,
      "note": 36,
      "start": 118.3846,
      "duration": 0.1155,
      "velocity": 118,
      "chip": "ym2612"
    },
    {
      "channel": 5,
      "note": 43,
      "start": 118.4848,
      "duration": 0.0165,
      "velocity": 102,
      "chip": "ym2612"
    },
    {
      "channel": 2,
      "note": 48,
      "start": 118.5825,
      "duration": 0.0164,
      "velocity": 102,
      "chip": "ym2612"
    },
    {
      "channel": 3,
      "note": 24,
      "start": 118.5832,
      "duration": 0.1156,
      "velocity": 118,
      "chip": "ym2612"
    },
    {
      "channel": 5,
      "note": 47,
      "start": 118.6834,
      "duration": 0.0165,
      "velocity": 102,
      "chip": "ym2612"
    },
    {
      "channel": 2,
      "note": 47,
      "start": 118.7812,
      "duration": 0.0164,
      "velocity": 102,
      "chip": "ym2612"
    },
    {
      "channel": 3,
      "note": 24,
      "start": 118.7818,
      "duration": 0.1155,
      "velocity": 119,
      "chip": "ym2612"
    },
    {
      "channel": 5,
      "note": 48,
      "start": 118.882,
      "duration": 0.0165,
      "velocity": 102,
      "chip": "ym2612"
    },
    {
      "channel": 2,
      "note": 45,
      "start": 118.9798,
      "duration": 0.0164,
      "velocity": 102,
      "chip": "ym2612"
    },
    {
      "channel": 3,
      "note": 36,
      "start": 118.9805,
      "duration": 0.1156,
      "velocity": 119,
      "chip": "ym2612"
    },
    {
      "channel": 5,
      "note": 47,
      "start": 119.0807,
      "duration": 0.0164,
      "velocity": 102,
      "chip": "ym2612"
    },
    {
      "channel": 2,
      "note": 43,
      "start": 119.1784,
      "duration": 0.0164,
      "velocity": 102,
      "chip": "ym2612"
    },
    {
      "channel": 3,
      "note": 24,
      "start": 119.179,
      "duration": 0.1156,
      "velocity": 120,
      "chip": "ym2612"
    },
    {
      "channel": 5,
      "note": 45,
      "start": 119.2793,
      "duration": 0.0165,
      "velocity": 102,
      "chip": "ym2612"
    },
    {
      "channel": 2,
      "note": 45,
      "start": 119.3771,
      "duration": 0.0164,
      "velocity": 102,
      "chip": "ym2612"
    },
    {
      "channel": 3,
      "note": 36,
      "start": 119.3777,
      "duration": 0.1156,
      "velocity": 120,
      "chip": "ym2612"
    },
    {
      "channel": 5,
      "note": 43,
      "start": 119.478,
      "duration": 0.0164,
      "velocity": 102,
      "chip": "ym2612"
    },
    {
      "channel": 2,
      "note": 43,
      "start": 119.5757,
      "duration": 0.0164,
      "velocity": 102,
      "chip": "ym2612"
    },
    {
      "channel": 3,
      "note": 24,
      "start": 119.5763,
      "duration": 0.1156,
      "velocity": 121,
      "chip": "ym2612"
    },
    {
      "channel": 5,
      "note": 45,
      "start": 119.6766,
      "duration": 0.0165,
      "velocity": 102,
      "chip": "ym2612"
    },
    {
      "channel": 2,
      "note": 40,
      "start": 119.7744,
      "duration": 0.0164,
      "velocity": 102,
      "chip": "ym2612"
    },
    {
      "channel": 3,
      "note": 24,
      "start": 119.775,
      "duration": 0.1155,
      "velocity": 121,
      "chip": "ym2612"
    },
    {
      "channel": 5,
      "note": 43,
      "start": 119.8752,
      "duration": 0.0165,
      "velocity": 102,
      "chip": "ym2612"
    },
    {
      "channel": 2,
      "note": 36,
      "start": 119.973,
      "duration": 0.0164,
      "velocity": 102,
      "chip": "ym2612"
    },
    {
      "channel": 3,
      "note": 36,
      "start": 119.9736,
      "duration": 0.1155,
      "velocity": 122,
      "chip": "ym2612"
    },
    {
      "channel": 5,
      "note": 40,
      "start": 120.0739,
      "duration": 0.0164,
      "velocity": 102,
      "chip": "ym2612"
    },
    {
      "channel": 2,
      "note": 40,
      "start": 120.1716,
      "duration": 0.0164,
      "velocity": 102,
      "chip": "ym2612"
    },
    {
      "channel": 3,
      "note": 24,
      "start": 120.1722,
      "duration": 0.1156,
      "velocity": 122,
      "chip": "ym2612"
    },
    {
      "channel": 5,
      "note": 36,
      "start": 120.2725,
      "duration": 0.0164,
      "velocity": 102,
      "chip": "ym2612"
    },
    {
      "channel": 2,
      "note": 36,
      "start": 120.3702,
      "duration": 0.0164,
      "velocity": 102,
      "chip": "ym2612"
    },
    {
      "channel": 3,
      "note": 26,
      "start": 120.3708,
      "duration": 0.1156,
      "velocity": 123,
      "chip": "ym2612"
    },
    {
      "channel": 5,
      "note": 40,
      "start": 120.4711,
      "duration": 0.0165,
      "velocity": 102,
      "chip": "ym2612"
    },
    {
      "channel": 2,
      "note": 35,
      "start": 120.5689,
      "duration": 0.0164,
      "velocity": 102,
      "chip": "ym2612"
    },
    {
      "channel": 3,
      "note": 38,
      "start": 120.5695,
      "duration": 0.1155,
      "velocity": 123,
      "chip": "ym2612"
    },
    {
      "channel": 5,
      "note": 36,
      "start": 120.6698,
      "duration": 0.0164,
      "velocity": 102,
      "chip": "ym2612"
    },
    {
      "channel": 0,
      "note": 28,
      "start": 120.7664,
      "duration": 3.1776,
      "velocity": 112,
      "chip": "ym2612"
    },
    {
      "channel": 1,
      "note": 31,
      "start": 120.7671,
      "duration": 3.1776,
      "velocity": 112,
      "chip": "ym2612"
    },
    {
      "channel": 2,
      "note": 53,
      "start": 120.7684,
      "duration": 0.1644,
      "velocity": 1,
      "chip": "ym2612"
    },
    {
      "channel": 3,
      "note": 55,
      "start": 120.7698,
      "duration": 2.3814,
      "velocity": 88,
      "chip": "ym2612"
    },
    {
      "channel": 4,
      "note": 35,
      "start": 120.7705,
      "duration": 3.1768,
      "velocity": 112,
      "chip": "ym2612"
    },
    {
      "channel": 5,
      "note": 16,
      "start": 120.7718,
      "duration": 0.1627,
      "velocity": 113,
      "chip": "ym2612"
    },
    {
      "channel": 2,
      "note": 72,
      "start": 120.9666,
      "duration": 0.1975,
      "velocity": 113,
      "chip": "ym2612"
    },
    {
      "channel": 5,
      "note": 28,
      "start": 120.9684,
      "duration": 0.1646,
      "velocity": 113,
      "chip": "ym2612"
    },
    {
      "channel": 2,
      "note": 21,
      "start": 121.1652,
      "duration": 0.1976,
      "velocity": 126,
      "chip": "ym2612"
    },
    {
      "channel": 5,
      "note": 16,
      "start": 121.167,
      "duration": 0.1646,
      "velocity": 113,
      "chip": "ym2612"
    },
    {
      "channel": 2,
      "note": 53,
      "start": 121.364,
      "duration": 0.1648,
      "velocity": 1,
      "chip": "ym2612"
    },
    {
      "channel": 5,
      "note": 16,
      "start": 121.3658,
      "duration": 0.1646,
      "velocity": 113,
      "chip": "ym2612"
    },
    {
      "channel": 2,
      "note": 53,
      "start": 121.562,
      "duration": 0.1654,
      "velocity": 1,
      "chip": "ym2612"
    },
    {
      "channel": 5,
      "note": 28,
      "start": 121.5638,
      "duration": 0.1653,
      "velocity": 113,
      "chip": "ym2612"
    },
    {
      "channel": 5,
      "note": 16,
      "start": 121.7622,
      "duration": 0.1654,
      "velocity": 113,
      "chip": "ym2612"
    },
    {
      "channel": 2,
      "note": 21,
      "start": 121.9598,
      "duration": 0.3962,
      "velocity": 126,
      "chip": "ym2612"
    },
    {
      "channel": 5,
      "note": 16,
      "start": 121.9615,
      "duration": 0.1646,
      "velocity": 113,
      "chip": "ym2612"
    },
    {
      "channel": 5,
      "note": 28,
      "start": 122.1595,
      "duration": 0.1654,
      "velocity": 113,
      "chip": "ym2612"
    },
    {
      "channel": 2,
      "note": 53,
      "start": 122.3572,
      "duration": 0.1648,
      "velocity": 1,
      "chip": "ym2612"
    },
    {
      "channel": 5,
      "note": 16,
      "start": 122.3589,
      "duration": 0.1646,
      "velocity": 113,
      "chip": "ym2612"
    },
    {
      "channel": 2,
      "note": 84,
      "start": 122.5557,
      "duration": 0.1975,
      "velocity": 113,
      "chip": "ym2612"
    },
    {
      "channel": 5,
      "note": 28,
      "start": 122.5575,
      "duration": 0.1646,
      "velocity": 113,
      "chip": "ym2612"
    },
    {
      "channel": 2,
      "note": 21,
      "start": 122.7543,
      "duration": 0.1975,
      "velocity": 126,
      "chip": "ym2612"
    },
    {
      "channel": 5,
      "note": 16,
      "start": 122.7561,
      "duration": 0.1646,
      "velocity": 113,
      "chip": "ym2612"
    },
    {
      "channel": 2,
      "note": 53,
      "start": 122.953,
      "duration": 0.1648,
      "velocity": 1,
      "chip": "ym2612"
    },
    {
      "channel": 5,
      "note": 16,
      "start": 122.9548,
      "duration": 0.1646,
      "velocity": 113,
      "chip": "ym2612"
    },
    {
      "channel": 2,
      "note": 53,
      "start": 123.151,
      "duration": 0.1654,
      "velocity": 1,
      "chip": "ym2612"
    },
    {
      "channel": 3,
      "note": 52,
      "start": 123.1518,
      "duration": 0.3972,
      "velocity": 88,
      "chip": "ym2612"
    },
    {
      "channel": 5,
      "note": 28,
      "start": 123.153,
      "duration": 0.1651,
      "velocity": 113,
      "chip": "ym2612"
    },
    {
      "channel": 5,
      "note": 16,
      "start": 123.3513,
      "duration": 0.1654,
      "velocity": 113,
      "chip": "ym2612"
    },
    {
      "channel": 2,
      "note": 21,
      "start": 123.5488,
      "duration": 0.3966,
      "velocity": 126,
      "chip": "ym2612"
    },
    {
      "channel": 3,
      "note": 55,
      "start": 123.5497,
      "duration": 2.7796,
      "velocity": 88,
      "chip": "ym2612"
    },
    {
      "channel": 5,
      "note": 28,
      "start": 123.5508,
      "duration": 0.1644,
      "velocity": 113,
      "chip": "ym2612"
    },
    {
      "channel": 5,
      "note": 16,
      "start": 123.7485,
      "duration": 0.1653,
      "velocity": 113,
      "chip": "ym2612"
    },
    {
      "channel": 0,
      "note": 17,
      "start": 123.9445,
      "duration": 3.1775,
      "velocity": 112,
      "chip": "ym2612"
    },
    {
      "channel": 1,
      "note": 33,
      "start": 123.9453,
      "duration": 3.1776,
      "velocity": 112,
      "chip": "ym2612"
    },
    {
      "channel": 2,
      "note": 53,
      "start": 123.9465,
      "duration": 0.1644,
      "velocity": 1,
      "chip": "ym2612"
    },
    {
      "channel": 4,
      "note": 36,
      "start": 123.9479,
      "duration": 3.1777,
      "velocity": 112,
      "chip": "ym2612"
    },
    {
      "channel": 5,
      "note": 12,
      "start": 123.9485,
      "duration": 0.1641,
      "velocity": 113,
      "chip": "ym2612"
    },
    {
      "channel": 2,
      "note": 72,
      "start": 124.1447,
      "duration": 0.1975,
      "velocity": 113,
      "chip": "ym2612"
    },
    {
      "channel": 5,
      "note": 24,
      "start": 124.1465,
      "duration": 0.1646,
      "velocity": 113,
      "chip": "ym2612"
    },
    {
      "channel": 2,
      "note": 21,
      "start": 124.3434,
      "duration": 0.1975,
      "velocity": 126,
      "chip": "ym2612"
    },
    {
      "channel": 5,
      "note": 12,
      "start": 124.3451,
      "duration": 0.1646,
      "velocity": 113,
      "chip": "ym2612"
    },
    {
      "channel": 2,
      "note": 53,
      "start": 124.542,
      "duration": 0.1649,
      "velocity": 1,
      "chip": "ym2612"
    },
    {
      "channel": 5,
      "note": 12,
      "start": 124.5438,
      "duration": 0.1648,
      "velocity": 113,
      "chip": "ym2612"
    },
    {
      "channel": 2,
      "note": 53,
      "start": 124.7401,
      "duration": 0.1654,
      "velocity": 1,
      "chip": "ym2612"
    },
    {
      "channel": 5,
      "note": 24,
      "start": 124.7419,
      "duration": 0.1653,
      "velocity": 113,
      "chip": "ym2612"
    },
    {
      "channel": 5,
      "note": 12,
      "start": 124.9404,
      "duration": 0.1653,
      "velocity": 113,
      "chip": "ym2612"
    },
    {
      "channel": 2,
      "note": 21,
      "start": 125.1379,
      "duration": 0.3961,
      "velocity": 126,
      "chip": "ym2612"
    },
    {
      "channel": 5,
      "note": 12,
      "start": 125.1397,
      "duration": 0.1646,
      "velocity": 113,
      "chip": "ym2612"
    },
    {
      "channel": 5,
      "note": 24,
      "start": 125.3375,
      "duration": 0.1654,
      "velocity": 113,
      "chip": "ym2612"
    },
    {
      "channel": 2,
      "note": 53,
      "start": 125.5351,
      "duration": 0.1648,
      "velocity": 1,
      "chip": "ym2612"
    },
    {
      "channel": 5,
      "note": 12,
      "start": 125.537,
      "duration": 0.1646,
      "velocity": 113,
      "chip": "ym2612"
    },
    {
      "channel": 2,
      "note": 84,
      "start": 125.7337,
      "duration": 0.1975,
      "velocity": 113,
      "chip": "ym2612"
    },
    {
      "channel": 5,
      "note": 24,
      "start": 125.7355,
      "duration": 0.1646,
      "velocity": 113,
      "chip": "ym2612"
    },
    {
      "channel": 2,
      "note": 21,
      "start": 125.9324,
      "duration": 0.1975,
      "velocity": 126,
      "chip": "ym2612"
    },
    {
      "channel": 5,
      "note": 12,
      "start": 125.9342,
      "duration": 0.1646,
      "velocity": 113,
      "chip": "ym2612"
    },
    {
      "channel": 2,
      "note": 53,
      "start": 126.1311,
      "duration": 0.1648,
      "velocity": 1,
      "chip": "ym2612"
    },
    {
      "channel": 5,
      "note": 12,
      "start": 126.1329,
      "duration": 0.1646,
      "velocity": 113,
      "chip": "ym2612"
    },
    {
      "channel": 2,
      "note": 53,
      "start": 126.3291,
      "duration": 0.1654,
      "velocity": 1,
      "chip": "ym2612"
    },
    {
      "channel": 3,
      "note": 59,
      "start": 126.3299,
      "duration": 0.1978,
      "velocity": 88,
      "chip": "ym2612"
    },
    {
      "channel": 5,
      "note": 26,
      "start": 126.3311,
      "duration": 0.1651,
      "velocity": 113,
      "chip": "ym2612"
    },
    {
      "channel": 3,
      "note": 60,
      "start": 126.5284,
      "duration": 0.1987,
      "velocity": 88,
      "chip": "ym2612"
    },
    {
      "channel": 5,
      "note": 14,
      "start": 126.5295,
      "duration": 0.1652,
      "velocity": 113,
      "chip": "ym2612"
    },
    {
      "channel": 2,
      "note": 21,
      "start": 126.7269,
      "duration": 0.3966,
      "velocity": 126,
      "chip": "ym2612"
    },
    {
      "channel": 3,
      "note": 59,
      "start": 126.7277,
      "duration": 0.1973,
      "velocity": 88,
      "chip": "ym2612"
    },
    {
      "channel": 5,
      "note": 14,
      "start": 126.7288,
      "duration": 0.1644,
      "velocity": 113,
      "chip": "ym2612"
    },
    {
      "channel": 3,
      "note": 57,
      "start": 126.9256,
      "duration": 0.1993,
      "velocity": 88,
      "chip": "ym2612"
    },
    {
      "channel": 5,
      "note": 26,
      "start": 126.9268,
      "duration": 0.1653,
      "velocity": 113,
      "chip": "ym2612"
    },
    {
      "channel": 0,
      "note": 31,
      "start": 127.1226,
      "duration": 3.1775,
      "velocity": 112,
      "chip": "ym2612"
    },
    {
      "channel": 1,
      "note": 35,
      "start": 127.1234,
      "duration": 3.1775,
      "velocity": 112,
      "chip": "ym2612"
    },
    {
      "channel": 2,
      "note": 53,
      "start": 127.1246,
      "duration": 0.1644,
      "velocity": 1,
      "chip": "ym2612"
    },
    {
      "channel": 3,
      "note": 59,
      "start": 127.1255,
      "duration": 2.3819,
      "velocity": 88,
      "chip": "ym2612"
    },
    {
      "channel": 4,
      "note": 38,
      "start": 127.1262,
      "duration": 3.1773,
      "velocity": 112,
      "chip": "ym2612"
    },
    {
      "channel": 5,
      "note": 28,
      "start": 127.1268,
      "duration": 0.1639,
      "velocity": 113,
      "chip": "ym2612"
    },
    {
      "channel": 2,
      "note": 72,
      "start": 127.3228,
      "duration": 0.1975,
      "velocity": 113,
      "chip": "ym2612"
    },
    {
      "channel": 5,
      "note": 40,
      "start": 127.3246,
      "duration": 0.1646,
      "velocity": 113,
      "chip": "ym2612"
    },
    {
      "channel": 2,
      "note": 21,
      "start": 127.5214,
      "duration": 0.1975,
      "velocity": 126,
      "chip": "ym2612"
    },
    {
      "channel": 5,
      "note": 28,
      "start": 127.5233,
      "duration": 0.1646,
      "velocity": 113,
      "chip": "ym2612"
    },
    {
      "channel": 2,
      "note": 53,
      "start": 127.7201,
      "duration": 0.1648,
      "velocity": 1,
      "chip": "ym2612"
    },
    {
      "channel": 5,
      "note": 28,
      "start": 127.7219,
      "duration": 0.1646,
      "velocity": 113,
      "chip": "ym2612"
    },
    {
      "channel": 2,
      "note": 53,
      "start": 127.9182,
      "duration": 0.1654,
      "velocity": 1,
      "chip": "ym2612"
    },
    {
      "channel": 5,
      "note": 40,
      "start": 127.92,
      "duration": 0.1652,
      "velocity": 113,
      "chip": "ym2612"
    },
    {
      "channel": 5,
      "note": 28,
      "start": 128.1184,
      "duration": 0.1654,
      "velocity": 113,
      "chip": "ym2612"
    },
    {
      "channel": 2,
      "note": 21,
      "start": 128.3159,
      "duration": 0.3962,
      "velocity": 126,
      "chip": "ym2612"
    },
    {
      "channel": 5,
      "note": 28,
      "start": 128.3177,
      "duration": 0.1646,
      "velocity": 113,
      "chip": "ym2612"
    },
    {
      "channel": 5,
      "note": 40,
      "start": 128.5156,
      "duration": 0.1653,
      "velocity": 113,
      "chip": "ym2612"
    },
    {
      "channel": 2,
      "note": 53,
      "start": 128.7133,
      "duration": 0.1648,
      "velocity": 1,
      "chip": "ym2612"
    },
    {
      "channel": 5,
      "note": 28,
      "start": 128.7151,
      "duration": 0.1646,
      "velocity": 113,
      "chip": "ym2612"
    },
    {
      "channel": 2,
      "note": 84,
      "start": 128.9119,
      "duration": 0.1975,
      "velocity": 113,
      "chip": "ym2612"
    },
    {
      "channel": 5,
      "note": 40,
      "start": 128.9137,
      "duration": 0.1646,
      "velocity": 113,
      "chip": "ym2612"
    },
    {
      "channel": 2,
      "note": 21,
      "start": 129.1105,
      "duration": 0.1975,
      "velocity": 126,
      "chip": "ym2612"
    },
    {
      "channel": 5,
      "note": 28,
      "start": 129.1122,
      "duration": 0.1646,
      "velocity": 113,
      "chip": "ym2612"
    },
    {
      "channel": 2,
      "note": 53,
      "start": 129.3091,
      "duration": 0.1649,
      "velocity": 1,
      "chip": "ym2612"
    },
    {
      "channel": 5,
      "note": 28,
      "start": 129.3109,
      "duration": 0.1648,
      "velocity": 113,
      "chip": "ym2612"
    },
    {
      "channel": 2,
      "note": 53,
      "start": 129.5072,
      "duration": 0.1654,
      "velocity": 1,
      "chip": "ym2612"
    },
    {
      "channel": 3,
      "note": 59,
      "start": 129.508,
      "duration": 0.1978,
      "velocity": 88,
      "chip": "ym2612"
    },
    {
      "channel": 5,
      "note": 40,
      "start": 129.5092,
      "duration": 0.1651,
      "velocity": 113,
      "chip": "ym2612"
    },
    {
      "channel": 3,
      "note": 60,
      "start": 129.7065,
      "duration": 0.1986,
      "velocity": 88,
      "chip": "ym2612"
    },
    {
      "channel": 5,
      "note": 28,
      "start": 129.7077,
      "duration": 0.1652,
      "velocity": 113,
      "chip": "ym2612"
    },
    {
      "channel": 2,
      "note": 21,
      "start": 129.905,
      "duration": 0.3966,
      "velocity": 126,
      "chip": "ym2612"
    },
    {
      "channel": 3,
      "note": 62,
      "start": 129.9058,
      "duration": 2.5816,
      "velocity": 88,
      "chip": "ym2612"
    },
    {
      "channel": 5,
      "note": 28,
      "start": 129.907,
      "duration": 0.1644,
      "velocity": 113,
      "chip": "ym2612"
    },
    {
      "channel": 5,
      "note": 26,
      "start": 130.1047,
      "duration": 0.1653,
      "velocity": 113,
      "chip": "ym2612"
    },
    {
      "channel": 0,
      "note": 29,
      "start": 130.3007,
      "duration": 3.0951,
      "velocity": 112,
      "chip": "ym2612"
    },
    {
      "channel": 1,
      "note": 33,
      "start": 130.3014,
      "duration": 3.095,
      "velocity": 112,
      "chip": "ym2612"
    },
    {
      "channel": 2,
      "note": 53,
      "start": 130.3027,
      "duration": 0.1644,
      "velocity": 1,
      "chip": "ym2612"
    },
    {
      "channel": 4,
      "note": 36,
      "start": 130.304,
      "duration": 3.1777,
      "velocity": 112,
      "chip": "ym2612"
    },
    {
      "channel": 5,
      "note": 24,
      "start": 130.3047,
      "duration": 0.1641,
      "velocity": 113,
      "chip": "ym2612"
    },
    {
      "channel": 2,
      "note": 72,
      "start": 130.5009,
      "duration": 0.1975,
      "velocity": 113,
      "chip": "ym2612"
    },
    {
      "channel": 5,
      "note": 36,
      "start": 130.5027,
      "duration": 0.1646,
      "velocity": 113,
      "chip": "ym2612"
    },
    {
      "channel": 2,
      "note": 21,
      "start": 130.6995,
      "duration": 0.1975,
      "velocity": 126,
      "chip": "ym2612"
    },
    {
      "channel": 5,
      "note": 24,
      "start": 130.7013,
      "duration": 0.1646,
      "velocity": 113,
      "chip": "ym2612"
    },
    {
      "channel": 2,
      "note": 53,
      "start": 130.8982,
      "duration": 0.1648,
      "velocity": 1,
      "chip": "ym2612"
    },
    {
      "channel": 5,
      "note": 24,
      "start": 130.9,
      "duration": 0.1646,
      "velocity": 113,
      "chip": "ym2612"
    },
    {
      "channel": 2,
      "note": 53,
      "start": 131.0962,
      "duration": 0.1654,
      "velocity": 1,
      "chip": "ym2612"
    },
    {
      "channel": 5,
      "note": 36,
      "start": 131.098,
      "duration": 0.1653,
      "velocity": 113,
      "chip": "ym2612"
    },
    {
      "channel": 5,
      "note": 24,
      "start": 131.2965,
      "duration": 0.1654,
      "velocity": 113,
      "chip": "ym2612"
    },
    {
      "channel": 2,
      "note": 21,
      "start": 131.4941,
      "duration": 0.3962,
      "velocity": 126,
      "chip": "ym2612"
    },
    {
      "channel": 5,
      "note": 24,
      "start": 131.4958,
      "duration": 0.1646,
      "velocity": 113,
      "chip": "ym2612"
    },
    {
      "channel": 5,
      "note": 36,
      "start": 131.6937,
      "duration": 0.1655,
      "velocity": 113,
      "chip": "ym2612"
    },
    {
      "channel": 2,
      "note": 53,
      "start": 131.8914,
      "duration": 0.1648,
      "velocity": 1,
      "chip": "ym2612"
    },
    {
      "channel": 5,
      "note": 24,
      "start": 131.8932,
      "duration": 0.1647,
      "velocity": 113,
      "chip": "ym2612"
    },
    {
      "channel": 2,
      "note": 84,
      "start": 132.0899,
      "duration": 0.1975,
      "velocity": 113,
      "chip": "ym2612"
    },
    {
      "channel": 5,
      "note": 36,
      "start": 132.0918,
      "duration": 0.1646,
      "velocity": 113,
      "chip": "ym2612"
    },
    {
      "channel": 2,
      "note": 21,
      "start": 132.2885,
      "duration": 0.1976,
      "velocity": 126,
      "chip": "ym2612"
    },
    {
      "channel": 5,
      "note": 24,
      "start": 132.2904,
      "duration": 0.1646,
      "velocity": 113,
      "chip": "ym2612"
    },
    {
      "channel": 2,
      "note": 53,
      "start": 132.4873,
      "duration": 0.1648,
      "velocity": 1,
      "chip": "ym2612"
    },
    {
      "channel": 3,
      "note": 57,
      "start": 132.488,
      "duration": 0.1974,
      "velocity": 88,
      "chip": "ym2612"
    },
    {
      "channel": 5,
      "note": 24,
      "start": 132.4892,
      "duration": 0.1646,
      "velocity": 113,
      "chip": "ym2612"
    },
    {
      "channel": 2,
      "note": 53,
      "start": 132.6853,
      "duration": 0.1654,
      "velocity": 1,
      "chip": "ym2612"
    },
    {
      "channel": 3,
      "note": 55,
      "start": 132.686,
      "duration": 0.3972,
      "velocity": 88,
      "chip": "ym2612"
    },
    {
      "channel": 5,
      "note": 36,
      "start": 132.6873,
      "duration": 0.1651,
      "velocity": 113,
      "chip": "ym2612"
    },
    {
      "channel": 5,
      "note": 24,
      "start": 132.8856,
      "duration": 0.1653,
      "velocity": 113,
      "chip": "ym2612"
    },
    {
      "channel": 2,
      "note": 21,
      "start": 133.0831,
      "duration": 0.3966,
      "velocity": 126,
      "chip": "ym2612"
    },
    {
      "channel": 3,
      "note": 53,
      "start": 133.0839,
      "duration": 0.3971,
      "velocity": 88,
      "chip": "ym2612"
    },
    {
      "channel": 5,
      "note": 24,
      "start": 133.085,
      "duration": 0.1644,
      "velocity": 113,
      "chip": "ym2612"
    },
    {
      "channel": 5,
      "note": 26,
      "start": 133.2827,
      "duration": 0.1653,
      "velocity": 113,
      "chip": "ym2612"
    },
    {
      "channel": 0,
      "note": 28,
      "start": 133.4788,
      "duration": 3.1775,
      "velocity": 112,
      "chip": "ym2612"
    },
    {
      "channel": 1,
      "note": 31,
      "start": 133.4795,
      "duration": 3.1776,
      "velocity": 112,
      "chip": "ym2612"
    },
    {
      "channel": 2,
      "note": 53,
      "start": 133.4808,
      "duration": 0.1644,
      "velocity": 1,
      "chip": "ym2612"
    },
    {
      "channel": 3,
      "note": 52,
      "start": 133.4816,
      "duration": 2.3819,
      "velocity": 88,
      "chip": "ym2612"
    },
    {
      "channel": 4,
      "note": 35,
      "start": 133.4823,
      "duration": 3.1776,
      "velocity": 112,
      "chip": "ym2612"
    },
    {
      "channel": 5,
      "note": 16,
      "start": 133.4829,
      "duration": 0.1639,
      "velocity": 113,
      "chip": "ym2612"
    },
    {
      "channel": 2,
      "note": 72,
      "start": 133.679,
      "duration": 0.1975,
      "velocity": 113,
      "chip": "ym2612"
    },
    {
      "channel": 5,
      "note": 28,
      "start": 133.6808,
      "duration": 0.1646,
      "velocity": 113,
      "chip": "ym2612"
    },
    {
      "channel": 2,
      "note": 21,
      "start": 133.8776,
      "duration": 0.1975,
      "velocity": 126,
      "chip": "ym2612"
    },
    {
      "channel": 5,
      "note": 16,
      "start": 133.8794,
      "duration": 0.1646,
      "velocity": 113,
      "chip": "ym2612"
    },
    {
      "channel": 2,
      "note": 53,
      "start": 134.0762,
      "duration": 0.1649,
      "velocity": 1,
      "chip": "ym2612"
    },
    {
      "channel": 5,
      "note": 16,
      "start": 134.0781,
      "duration": 0.1647,
      "velocity": 113,
      "chip": "ym2612"
    },
    {
      "channel": 2,
      "note": 53,
      "start": 134.2744,
      "duration": 0.1653,
      "velocity": 1,
      "chip": "ym2612"
    },
    {
      "channel": 5,
      "note": 28,
      "start": 134.2762,
      "duration": 0.1652,
      "velocity": 113,
      "chip": "ym2612"
    },
    {
      "channel": 5,
      "note": 16,
      "start": 134.4746,
      "duration": 0.1653,
      "velocity": 113,
      "chip": "ym2612"
    },
    {
      "channel": 2,
      "note": 21,
      "start": 134.6721,
      "duration": 0.3962,
      "velocity": 126,
      "chip": "ym2612"
    },
    {
      "channel": 5,
      "note": 16,
      "start": 134.6739,
      "duration": 0.1646,
      "velocity": 113,
      "chip": "ym2612"
    },
    {
      "channel": 5,
      "note": 28,
      "start": 134.8717,
      "duration": 0.1654,
      "velocity": 113,
      "chip": "ym2612"
    },
    {
      "channel": 2,
      "note": 53,
      "start": 135.0694,
      "duration": 0.1648,
      "velocity": 1,
      "chip": "ym2612"
    },
    {
      "channel": 5,
      "note": 16,
      "start": 135.0712,
      "duration": 0.1646,
      "velocity": 113,
      "chip": "ym2612"
    },
    {
      "channel": 2,
      "note": 84,
      "start": 135.268,
      "duration": 0.1975,
      "velocity": 113,
      "chip": "ym2612"
    },
    {
      "channel": 5,
      "note": 28,
      "start": 135.2698,
      "duration": 0.1646,
      "velocity": 113,
      "chip": "ym2612"
    },
    {
      "channel": 2,
      "note": 21,
      "start": 135.4666,
      "duration": 0.1975,
      "velocity": 126,
      "chip": "ym2612"
    },
    {
      "channel": 5,
      "note": 16,
      "start": 135.4684,
      "duration": 0.1646,
      "velocity": 113,
      "chip": "ym2612"
    },
    {
      "channel": 2,
      "note": 53,
      "start": 135.6653,
      "duration": 0.1648,
      "velocity": 1,
      "chip": "ym2612"
    },
    {
      "channel": 5,
      "note": 16,
      "start": 135.6671,
      "duration": 0.1647,
      "velocity": 113,
      "chip": "ym2612"
    },
    {
      "channel": 2,
      "note": 53,
      "start": 135.8633,
      "duration": 0.1655,
      "velocity": 1,
      "chip": "ym2612"
    },
    {
      "channel": 3,
      "note": 55,
      "start": 135.8641,
      "duration": 0.3971,
      "velocity": 88,
      "chip": "ym2612"
    },
    {
      "channel": 5,
      "note": 28,
      "start": 135.8653,
      "duration": 0.1651,
      "velocity": 113,
      "chip": "ym2612"
    },
    {
      "channel": 5,
      "note": 16,
      "start": 136.0637,
      "duration": 0.1653,
      "velocity": 113,
      "chip": "ym2612"
    },
    {
      "channel": 2,
      "note": 21,
      "start": 136.2612,
      "duration": 0.3966,
      "velocity": 126,
      "chip": "ym2612"
    },
    {
      "channel": 3,
      "note": 52,
      "start": 136.2619,
      "duration": 0.3971,
      "velocity": 88,
      "chip": "ym2612"
    },
    {
      "channel": 5,
      "note": 28,
      "start": 136.2631,
      "duration": 0.1645,
      "velocity": 113,
      "chip": "ym2612"
    },
    {
      "channel": 5,
      "note": 16,
      "start": 136.4608,
      "duration": 0.1654,
      "velocity": 113,
      "chip": "ym2612"
    },
    {
      "channel": 0,
      "note": 17,
      "start": 136.6569,
      "duration": 3.1775,
      "velocity": 112,
      "chip": "ym2612"
    },
    {
      "channel": 1,
      "note": 33,
      "start": 136.6576,
      "duration": 3.1775,
      "velocity": 112,
      "chip": "ym2612"
    },
    {
      "channel": 2,
      "note": 53,
      "start": 136.6589,
      "duration": 0.1644,
      "velocity": 1,
      "chip": "ym2612"
    },
    {
      "channel": 3,
      "note": 53,
      "start": 136.6597,
      "duration": 2.3819,
      "velocity": 88,
      "chip": "ym2612"
    },
    {
      "channel": 4,
      "note": 36,
      "start": 136.6604,
      "duration": 3.1775,
      "velocity": 112,
      "chip": "ym2612"
    },
    {
      "channel": 5,
      "note": 12,
      "start": 136.661,
      "duration": 0.1639,
      "velocity": 113,
      "chip": "ym2612"
    },
    {
      "channel": 2,
      "note": 72,
      "start": 136.8571,
      "duration": 0.1975,
      "velocity": 113,
      "chip": "ym2612"
    },
    {
      "channel": 5,
      "note": 24,
      "start": 136.8589,
      "duration": 0.1646,
      "velocity": 113,
      "chip": "ym2612"
    },
    {
      "channel": 2,
      "note": 21,
      "start": 137.0557,
      "duration": 0.1975,
      "velocity": 126,
      "chip": "ym2612"
    },
    {
      "channel": 5,
      "note": 12,
      "start": 137.0575,
      "duration": 0.1646,
      "velocity": 113,
      "chip": "ym2612"
    },
    {
      "channel": 2,
      "note": 53,
      "start": 137.2544,
      "duration": 0.1648,
      "velocity": 1,
      "chip": "ym2612"
    },
    {
      "channel": 5,
      "note": 12,
      "start": 137.2562,
      "duration": 0.1646,
      "velocity": 113,
      "chip": "ym2612"
    },
    {
      "channel": 2,
      "note": 53,
      "start": 137.4524,
      "duration": 0.1654,
      "velocity": 1,
      "chip": "ym2612"
    },
    {
      "channel": 5,
      "note": 24,
      "start": 137.4542,
      "duration": 0.1653,
      "velocity": 113,
      "chip": "ym2612"
    },
    {
      "channel": 5,
      "note": 12,
      "start": 137.6527,
      "duration": 0.1654,
      "velocity": 113,
      "chip": "ym2612"
    },
    {
      "channel": 2,
      "note": 21,
      "start": 137.8502,
      "duration": 0.3962,
      "velocity": 126,
      "chip": "ym2612"
    },
    {
      "channel": 5,
      "note": 12,
      "start": 137.852,
      "duration": 0.1646,
      "velocity": 113,
      "chip": "ym2612"
    },
    {
      "channel": 5,
      "note": 24,
      "start": 138.0498,
      "duration": 0.1654,
      "velocity": 113,
      "chip": "ym2612"
    },
    {
      "channel": 2,
      "note": 53,
      "start": 138.2475,
      "duration": 0.1648,
      "velocity": 1,
      "chip": "ym2612"
    },
    {
      "channel": 5,
      "note": 12,
      "start": 138.2493,
      "duration": 0.1647,
      "velocity": 113,
      "chip": "ym2612"
    },
    {
      "channel": 2,
      "note": 84,
      "start": 138.4461,
      "duration": 0.1975,
      "velocity": 113,
      "chip": "ym2612"
    },
    {
      "channel": 5,
      "note": 24,
      "start": 138.4479,
      "duration": 0.1646,
      "velocity": 113,
      "chip": "ym2612"
    },
    {
      "channel": 2,
      "note": 21,
      "start": 138.6447,
      "duration": 0.1975,
      "velocity": 126,
      "chip": "ym2612"
    },
    {
      "channel": 5,
      "note": 12,
      "start": 138.6465,
      "duration": 0.1646,
      "velocity": 113,
      "chip": "ym2612"
    },
    {
      "channel": 2,
      "note": 53,
      "start": 138.8434,
      "duration": 0.1648,
      "velocity": 1,
      "chip": "ym2612"
    },
    {
      "channel": 5,
      "note": 12,
      "start": 138.8452,
      "duration": 0.1646,
      "velocity": 113,
      "chip": "ym2612"
    },
    {
      "channel": 2,
      "note": 53,
      "start": 139.0415,
      "duration": 0.1655,
      "velocity": 1,
      "chip": "ym2612"
    },
    {
      "channel": 3,
      "note": 59,
      "start": 139.0422,
      "duration": 0.1979,
      "velocity": 88,
      "chip": "ym2612"
    },
    {
      "channel": 5,
      "note": 26,
      "start": 139.0434,
      "duration": 0.1651,
      "velocity": 113,
      "chip": "ym2612"
    },
    {
      "channel": 3,
      "note": 60,
      "start": 139.2407,
      "duration": 0.1987,
      "velocity": 88,
      "chip": "ym2612"
    },
    {
      "channel": 5,
      "note": 14,
      "start": 139.2419,
      "duration": 0.1653,
      "velocity": 113,
      "chip": "ym2612"
    },
    {
      "channel": 2,
      "note": 21,
      "start": 139.4392,
      "duration": 0.3966,
      "velocity": 126,
      "chip": "ym2612"
    },
    {
      "channel": 3,
      "note": 59,
      "start": 139.44,
      "duration": 0.1972,
      "velocity": 88,
      "chip": "ym2612"
    },
    {
      "channel": 5,
      "note": 14,
      "start": 139.4412,
      "duration": 0.1644,
      "velocity": 113,
      "chip": "ym2612"
    },
    {
      "channel": 3,
      "note": 57,
      "start": 139.6379,
      "duration": 0.1992,
      "velocity": 88,
      "chip": "ym2612"
    },
    {
      "channel": 5,
      "note": 26,
      "start": 139.639,
      "duration": 0.1653,
      "velocity": 113,
      "chip": "ym2612"
    },
    {
      "channel": 0,
      "note": 31,
      "start": 139.835,
      "duration": 3.1775,
      "velocity": 112,
      "chip": "ym2612"
    },
    {
      "channel": 1,
      "note": 35,
      "start": 139.8357,
      "duration": 3.1775,
      "velocity": 112,
      "chip": "ym2612"
    },
    {
      "channel": 2,
      "note": 53,
      "start": 139.8369,
      "duration": 0.1644,
      "velocity": 1,
      "chip": "ym2612"
    },
    {
      "channel": 3,
      "note": 59,
      "start": 139.8378,
      "duration": 2.3819,
      "velocity": 88,
      "chip": "ym2612"
    },
    {
      "channel": 4,
      "note": 38,
      "start": 139.8385,
      "duration": 3.1775,
      "velocity": 112,
      "chip": "ym2612"
    },
    {
      "channel": 5,
      "note": 28,
      "start": 139.8391,
      "duration": 0.1639,
      "velocity": 113,
      "chip": "ym2612"
    },
    {
      "channel": 2,
      "note": 72,
      "start": 140.0351,
      "duration": 0.1975,
      "velocity": 113,
      "chip": "ym2612"
    },
    {
      "channel": 5,
      "note": 40,
      "start": 140.0369,
      "duration": 0.1646,
      "velocity": 113,
      "chip": "ym2612"
    },
    {
      "channel": 2,
      "note": 21,
      "start": 140.2337,
      "duration": 0.1975,
      "velocity": 126,
      "chip": "ym2612"
    },
    {
      "channel": 5,
      "note": 28,
      "start": 140.2355,
      "duration": 0.1646,
      "velocity": 113,
      "chip": "ym2612"
    },
    {
      "channel": 2,
      "note": 53,
      "start": 140.4324,
      "duration": 0.1648,
      "velocity": 1,
      "chip": "ym2612"
    },
    {
      "channel": 5,
      "note": 28,
      "start": 140.4342,
      "duration": 0.1647,
      "velocity": 113,
      "chip": "ym2612"
    },
    {
      "channel": 2,
      "note": 53,
      "start": 140.6305,
      "duration": 0.1654,
      "velocity": 1,
      "chip": "ym2612"
    },
    {
      "channel": 5,
      "note": 40,
      "start": 140.6323,
      "duration": 0.1652,
      "velocity": 113,
      "chip": "ym2612"
    },
    {
      "channel": 5,
      "note": 28,
      "start": 140.8307,
      "duration": 0.1654,
      "velocity": 113,
      "chip": "ym2612"
    },
    {
      "channel": 2,
      "note": 21,
      "start": 141.0283,
      "duration": 0.3961,
      "velocity": 126,
      "chip": "ym2612"
    },
    {
      "channel": 5,
      "note": 28,
      "start": 141.0301,
      "duration": 0.1646,
      "velocity": 113,
      "chip": "ym2612"
    },
    {
      "channel": 5,
      "note": 40,
      "start": 141.2279,
      "duration": 0.1654,
      "velocity": 113,
      "chip": "ym2612"
    },
    {
      "channel": 2,
      "note": 53,
      "start": 141.4256,
      "duration": 0.1649,
      "velocity": 1,
      "chip": "ym2612"
    },
    {
      "channel": 5,
      "note": 28,
      "start": 141.4274,
      "duration": 0.1647,
      "velocity": 113,
      "chip": "ym2612"
    },
    {
      "channel": 2,
      "note": 84,
      "start": 141.6242,
      "duration": 0.1974,
      "velocity": 113,
      "chip": "ym2612"
    },
    {
      "channel": 5,
      "note": 40,
      "start": 141.626,
      "duration": 0.1646,
      "velocity": 113,
      "chip": "ym2612"
    },
    {
      "channel": 2,
      "note": 21,
      "start": 141.8228,
      "duration": 0.1975,
      "velocity": 126,
      "chip": "ym2612"
    },
    {
      "channel": 5,
      "note": 28,
      "start": 141.8246,
      "duration": 0.1645,
      "velocity": 113,
      "chip": "ym2612"
    },
    {
      "channel": 2,
      "note": 53,
      "start": 142.0215,
      "duration": 0.1648,
      "velocity": 1,
      "chip": "ym2612"
    },
    {
      "channel": 5,
      "note": 28,
      "start": 142.0233,
      "duration": 0.1646,
      "velocity": 113,
      "chip": "ym2612"
    },
    {
      "channel": 2,
      "note": 53,
      "start": 142.2195,
      "duration": 0.1654,
      "velocity": 1,
      "chip": "ym2612"
    },
    {
      "channel": 3,
      "note": 59,
      "start": 142.2203,
      "duration": 0.1978,
      "velocity": 88,
      "chip": "ym2612"
    },
    {
      "channel": 5,
      "note": 40,
      "start": 142.2215,
      "duration": 0.1651,
      "velocity": 113,
      "chip": "ym2612"
    },
    {
      "channel": 3,
      "note": 60,
      "start": 142.4188,
      "duration": 0.1987,
      "velocity": 88,
      "chip": "ym2612"
    },
    {
      "channel": 5,
      "note": 28,
      "start": 142.42,
      "duration": 0.1652,
      "velocity": 113,
      "chip": "ym2612"
    },
    {
      "channel": 2,
      "note": 21,
      "start": 142.6173,
      "duration": 0.3965,
      "velocity": 126,
      "chip": "ym2612"
    },
    {
      "channel": 3,
      "note": 62,
      "start": 142.6181,
      "duration": 0.3971,
      "velocity": 88,
      "chip": "ym2612"
    },
    {
      "channel": 5,
      "note": 28,
      "start": 142.6193,
      "duration": 0.1645,
      "velocity": 113,
      "chip": "ym2612"
    },
    {
      "channel": 5,
      "note": 26,
      "start": 142.817,
      "duration": 0.1654,
      "velocity": 113,
      "chip": "ym2612"
    },
    {
      "channel": 0,
      "note": 29,
      "start": 143.013,
      "duration": 3.0952,
      "velocity": 112,
      "chip": "ym2612"
    },
    {
      "channel": 1,
      "note": 40,
      "start": 143.0137,
      "duration": 3.1775,
      "velocity": 112,
      "chip": "ym2612"
    },
    {
      "channel": 2,
      "note": 53,
      "start": 143.015,
      "duration": 0.1644,
      "velocity": 1,
      "chip": "ym2612"
    },
    {
      "channel": 3,
      "note": 63,
      "start": 143.0158,
      "duration": 0.0976,
      "velocity": 88,
      "chip": "ym2612"
    },
    {
      "channel": 4,
      "note": 36,
      "start": 143.0165,
      "duration": 3.178,
      "velocity": 112,
      "chip": "ym2612"
    },
    {
      "channel": 5,
      "note": 17,
      "start": 143.0171,
      "duration": 0.1639,
      "velocity": 113,
      "chip": "ym2612"
    },
    {
      "channel": 3,
      "note": 64,
      "start": 143.114,
      "duration": 3.0792,
      "velocity": 88,
      "chip": "ym2612"
    },
    {
      "channel": 2,
      "note": 72,
      "start": 143.2132,
      "duration": 0.1975,
      "velocity": 113,
      "chip": "ym2612"
    },
    {
      "channel": 5,
      "note": 29,
      "start": 143.215,
      "duration": 0.1646,
      "velocity": 113,
      "chip": "ym2612"
    },
    {
      "channel": 2,
      "note": 21,
      "start": 143.4118,
      "duration": 0.1976,
      "velocity": 126,
      "chip": "ym2612"
    },
    {
      "channel": 5,
      "note": 17,
      "start": 143.4136,
      "duration": 0.1646,
      "velocity": 113,
      "chip": "ym2612"
    },
    {
      "channel": 2,
      "note": 53,
      "start": 143.6105,
      "duration": 0.1648,
      "velocity": 1,
      "chip": "ym2612"
    },
    {
      "channel": 5,
      "note": 17,
      "start": 143.6123,
      "duration": 0.1646,
      "velocity": 113,
      "chip": "ym2612"
    },
    {
      "channel": 2,
      "note": 53,
      "start": 143.8086,
      "duration": 0.1654,
      "velocity": 1,
      "chip": "ym2612"
    },
    {
      "channel": 5,
      "note": 29,
      "start": 143.8103,
      "duration": 0.1653,
      "velocity": 113,
      "chip": "ym2612"
    },
    {
      "channel": 5,
      "note": 17,
      "start": 144.0088,
      "duration": 0.1654,
      "velocity": 113,
      "chip": "ym2612"
    },
    {
      "channel": 2,
      "note": 21,
      "start": 144.2064,
      "duration": 0.3961,
      "velocity": 126,
      "chip": "ym2612"
    },
    {
      "channel": 5,
      "note": 17,
      "start": 144.2082,
      "duration": 0.1646,
      "velocity": 113,
      "chip": "ym2612"
    },
    {
      "channel": 5,
      "note": 29,
      "start": 144.406,
      "duration": 0.1653,
      "velocity": 113,
      "chip": "ym2612"
    },
    {
      "channel": 2,
      "note": 53,
      "start": 144.6037,
      "duration": 0.1648,
      "velocity": 1,
      "chip": "ym2612"
    },
    {
      "channel": 5,
      "note": 17,
      "start": 144.6054,
      "duration": 0.1646,
      "velocity": 113,
      "chip": "ym2612"
    },
    {
      "channel": 2,
      "note": 84,
      "start": 144.8023,
      "duration": 0.1975,
      "velocity": 113,
      "chip": "ym2612"
    },
    {
      "channel": 5,
      "note": 29,
      "start": 144.804,
      "duration": 0.1646,
      "velocity": 113,
      "chip": "ym2612"
    },
    {
      "channel": 2,
      "note": 21,
      "start": 145.0009,
      "duration": 0.1975,
      "velocity": 126,
      "chip": "ym2612"
    },
    {
      "channel": 5,
      "note": 17,
      "start": 145.0027,
      "duration": 0.1646,
      "velocity": 113,
      "chip": "ym2612"
    },
    {
      "channel": 2,
      "note": 53,
      "start": 145.1995,
      "duration": 0.1648,
      "velocity": 1,
      "chip": "ym2612"
    },
    {
      "channel": 5,
      "note": 17,
      "start": 145.2014,
      "duration": 0.1646,
      "velocity": 113,
      "chip": "ym2612"
    },
    {
      "channel": 2,
      "note": 53,
      "start": 145.3976,
      "duration": 0.1654,
      "velocity": 1,
      "chip": "ym2612"
    },
    {
      "channel": 5,
      "note": 29,
      "start": 145.3994,
      "duration": 0.1652,
      "velocity": 113,
      "chip": "ym2612"
    },
    {
      "channel": 5,
      "note": 17,
      "start": 145.5979,
      "duration": 0.1654,
      "velocity": 113,
      "chip": "ym2612"
    },
    {
      "channel": 2,
      "note": 21,
      "start": 145.7954,
      "duration": 0.3966,
      "velocity": 126,
      "chip": "ym2612"
    },
    {
      "channel": 5,
      "note": 17,
      "start": 145.7972,
      "duration": 0.1646,
      "velocity": 113,
      "chip": "ym2612"
    },
    {
      "channel": 5,
      "note": 29,
      "start": 145.995,
      "duration": 0.1654,
      "velocity": 113,
      "chip": "ym2612"
    },
    {
      "channel": 0,
      "note": 28,
      "start": 146.1911,
      "duration": 3.1776,
      "velocity": 112,
      "chip": "ym2612"
    },
    {
      "channel": 1,
      "note": 31,
      "start": 146.1918,
      "duration": 3.1775,
      "velocity": 112,
      "chip": "ym2612"
    },
    {
      "channel": 2,
      "note": 53,
      "start": 146.1931,
      "duration": 0.1644,
      "velocity": 1,
      "chip": "ym2612"
    },
    {
      "channel": 3,
      "note": 43,
      "start": 146.1944,
      "duration": 0.1141,
      "velocity": 106,
      "chip": "ym2612"
    },
    {
      "channel": 4,
      "note": 35,
      "start": 146.1951,
      "duration": 3.177,
      "velocity": 112,
      "chip": "ym2612"
    },
    {
      "channel": 5,
      "note": 28,
      "start": 146.1958,
      "duration": 0.1634,
      "velocity": 113,
      "chip": "ym2612"
    },
    {
      "channel": 2,
      "note": 72,
      "start": 146.3913,
      "duration": 0.1975,
      "velocity": 113,
      "chip": "ym2612"
    },
    {
      "channel": 3,
      "note": 57,
      "start": 146.3921,
      "duration": 0.1149,
      "velocity": 105,
      "chip": "ym2612"
    },
    {
      "channel": 5,
      "note": 42,
      "start": 146.3933,
      "duration": 0.1644,
      "velocity": 113,
      "chip": "ym2612"
    },
    {
      "channel": 2,
      "note": 21,
      "start": 146.5899,
      "duration": 0.1975,
      "velocity": 126,
      "chip": "ym2612"
    },
    {
      "channel": 3,
      "note": 45,
      "start": 146.5907,
      "duration": 0.1149,
      "velocity": 104,
      "chip": "ym2612"
    },
    {
      "channel": 5,
      "note": 30,
      "start": 146.5919,
      "duration": 0.1644,
      "velocity": 113,
      "chip": "ym2612"
    },
    {
      "channel": 2,
      "note": 53,
      "start": 146.7886,
      "duration": 0.1648,
      "velocity": 1,
      "chip": "ym2612"
    },
    {
      "channel": 3,
      "note": 45,
      "start": 146.7894,
      "duration": 0.1149,
      "velocity": 103,
      "chip": "ym2612"
    },
    {
      "channel": 5,
      "note": 30,
      "start": 146.7906,
      "duration": 0.1644,
      "velocity": 113,
      "chip": "ym2612"
    },
    {
      "channel": 2,
      "note": 53,
      "start": 146.9866,
      "duration": 0.1654,
      "velocity": 1,
      "chip": "ym2612"
    },
    {
      "channel": 3,
      "note": 57,
      "start": 146.9874,
      "duration": 0.1156,
      "velocity": 102,
      "chip": "ym2612"
    },
    {
      "channel": 5,
      "note": 42,
      "start": 146.9886,
      "duration": 0.1651,
      "velocity": 113,
      "chip": "ym2612"
    },
    {
      "channel": 3,
      "note": 45,
      "start": 147.1859,
      "duration": 0.1158,
      "velocity": 101,
      "chip": "ym2612"
    },
    {
      "channel": 5,
      "note": 30,
      "start": 147.1871,
      "duration": 0.1652,
      "velocity": 113,
      "chip": "ym2612"
    },
    {
      "channel": 2,
      "note": 21,
      "start": 147.3844,
      "duration": 0.3961,
      "velocity": 126,
      "chip": "ym2612"
    },
    {
      "channel": 3,
      "note": 45,
      "start": 147.3852,
      "duration": 0.1149,
      "velocity": 100,
      "chip": "ym2612"
    },
    {
      "channel": 5,
      "note": 30,
      "start": 147.3863,
      "duration": 0.1644,
      "velocity": 113,
      "chip": "ym2612"
    },
    {
      "channel": 3,
      "note": 57,
      "start": 147.5831,
      "duration": 0.1157,
      "velocity": 99,
      "chip": "ym2612"
    },
    {
      "channel": 5,
      "note": 42,
      "start": 147.5843,
      "duration": 0.1652,
      "velocity": 113,
      "chip": "ym2612"
    },
    {
      "channel": 2,
      "note": 53,
      "start": 147.7817,
      "duration": 0.1648,
      "velocity": 1,
      "chip": "ym2612"
    },
    {
      "channel": 3,
      "note": 45,
      "start": 147.7825,
      "duration": 0.1149,
      "velocity": 98,
      "chip": "ym2612"
    },
    {
      "channel": 5,
      "note": 30,
      "start": 147.7837,
      "duration": 0.1645,
      "velocity": 113,
      "chip": "ym2612"
    },
    {
      "channel": 2,
      "note": 84,
      "start": 147.9803,
      "duration": 0.1975,
      "velocity": 113,
      "chip": "ym2612"
    },
    {
      "channel": 3,
      "note": 57,
      "start": 147.9811,
      "duration": 0.1149,
      "velocity": 99,
      "chip": "ym2612"
    },
    {
      "channel": 5,
      "note": 42,
      "start": 147.9823,
      "duration": 0.1644,
      "velocity": 113,
      "chip": "ym2612"
    },
    {
      "channel": 2,
      "note": 21,
      "start": 148.179,
      "duration": 0.1975,
      "velocity": 126,
      "chip": "ym2612"
    },
    {
      "channel": 3,
      "note": 45,
      "start": 148.1798,
      "duration": 0.1149,
      "velocity": 100,
      "chip": "ym2612"
    },
    {
      "channel": 5,
      "note": 30,
      "start": 148.1809,
      "duration": 0.1644,
      "velocity": 113,
      "chip": "ym2612"
    },
    {
      "channel": 2,
      "note": 53,
      "start": 148.3776,
      "duration": 0.1648,
      "velocity": 1,
      "chip": "ym2612"
    },
    {
      "channel": 3,
      "note": 45,
      "start": 148.3784,
      "duration": 0.1149,
      "velocity": 101,
      "chip": "ym2612"
    },
    {
      "channel": 5,
      "note": 30,
      "start": 148.3796,
      "duration": 0.1644,
      "velocity": 113,
      "chip": "ym2612"
    },
    {
      "channel": 2,
      "note": 53,
      "start": 148.5757,
      "duration": 0.1655,
      "velocity": 1,
      "chip": "ym2612"
    },
    {
      "channel": 3,
      "note": 57,
      "start": 148.5764,
      "duration": 0.1156,
      "velocity": 102,
      "chip": "ym2612"
    },
    {
      "channel": 5,
      "note": 42,
      "start": 148.5776,
      "duration": 0.1651,
      "velocity": 113,
      "chip": "ym2612"
    },
    {
      "channel": 3,
      "note": 45,
      "start": 148.775,
      "duration": 0.1157,
      "velocity": 103,
      "chip": "ym2612"
    },
    {
      "channel": 5,
      "note": 30,
      "start": 148.7761,
      "duration": 0.1653,
      "velocity": 113,
      "chip": "ym2612"
    },
    {
      "channel": 2,
      "note": 21,
      "start": 148.9735,
      "duration": 0.3965,
      "velocity": 126,
      "chip": "ym2612"
    },
    {
      "channel": 3,
      "note": 45,
      "start": 148.9743,
      "duration": 0.1149,
      "velocity": 104,
      "chip": "ym2612"
    },
    {
      "channel": 5,
      "note": 30,
      "start": 148.9755,
      "duration": 0.1644,
      "velocity": 113,
      "chip": "ym2612"
    },
    {
      "channel": 3,
      "note": 57,
      "start": 149.1721,
      "duration": 0.1157,
      "velocity": 105,
      "chip": "ym2612"
    },
    {
      "channel": 5,
      "note": 28,
      "start": 149.1734,
      "duration": 0.1651,
      "velocity": 113,
      "chip": "ym2612"
    },
    {
      "channel": 0,
      "note": 19,
      "start": 149.3692,
      "duration": 3.1775,
      "velocity": 112,
      "chip": "ym2612"
    },
    {
      "channel": 1,
      "note": 35,
      "start": 149.3699,
      "duration": 3.1776,
      "velocity": 112,
      "chip": "ym2612"
    },
    {
      "channel": 2,
      "note": 53,
      "start": 149.3712,
      "duration": 0.1644,
      "velocity": 1,
      "chip": "ym2612"
    },
    {
      "channel": 3,
      "note": 47,
      "start": 149.3719,
      "duration": 0.1146,
      "velocity": 106,
      "chip": "ym2612"
    },
    {
      "channel": 4,
      "note": 38,
      "start": 149.3727,
      "duration": 3.1775,
      "velocity": 112,
      "chip": "ym2612"
    },
    {
      "channel": 5,
      "note": 19,
      "start": 149.3733,
      "duration": 0.1639,
      "velocity": 113,
      "chip": "ym2612"
    },
    {
      "channel": 2,
      "note": 72,
      "start": 149.5694,
      "duration": 0.1975,
      "velocity": 113,
      "chip": "ym2612"
    },
    {
      "channel": 3,
      "note": 59,
      "start": 149.5701,
      "duration": 0.1149,
      "velocity": 105,
      "chip": "ym2612"
    },
    {
      "channel": 5,
      "note": 31,
      "start": 149.5713,
      "duration": 0.1645,
      "velocity": 113,
      "chip": "ym2612"
    },
    {
      "channel": 2,
      "note": 21,
      "start": 149.768,
      "duration": 0.1975,
      "velocity": 126,
      "chip": "ym2612"
    },
    {
      "channel": 3,
      "note": 47,
      "start": 149.7687,
      "duration": 0.115,
      "velocity": 104,
      "chip": "ym2612"
    },
    {
      "channel": 5,
      "note": 19,
      "start": 149.77,
      "duration": 0.1644,
      "velocity": 113,
      "chip": "ym2612"
    },
    {
      "channel": 2,
      "note": 53,
      "start": 149.9666,
      "duration": 0.1648,
      "velocity": 1,
      "chip": "ym2612"
    },
    {
      "channel": 3,
      "note": 47,
      "start": 149.9675,
      "duration": 0.115,
      "velocity": 103,
      "chip": "ym2612"
    },
    {
      "channel": 5,
      "note": 19,
      "start": 149.9686,
      "duration": 0.1645,
      "velocity": 113,
      "chip": "ym2612"
    },
    {
      "channel": 2,
      "note": 53,
      "start": 150.1647,
      "duration": 0.1654,
      "velocity": 1,
      "chip": "ym2612"
    },
    {
      "channel": 3,
      "note": 59,
      "start": 150.1655,
      "duration": 0.1156,
      "velocity": 102,
      "chip": "ym2612"
    },
    {
      "channel": 5,
      "note": 31,
      "start": 150.1666,
      "duration": 0.1651,
      "velocity": 113,
      "chip": "ym2612"
    },
    {
      "channel": 3,
      "note": 47,
      "start": 150.364,
      "duration": 0.1157,
      "velocity": 101,
      "chip": "ym2612"
    },
    {
      "channel": 5,
      "note": 19,
      "start": 150.3651,
      "duration": 0.1652,
      "velocity": 113,
      "chip": "ym2612"
    },
    {
      "channel": 2,
      "note": 21,
      "start": 150.5625,
      "duration": 0.3962,
      "velocity": 126,
      "chip": "ym2612"
    },
    {
      "channel": 3,
      "note": 47,
      "start": 150.5633,
      "duration": 0.1149,
      "velocity": 100,
      "chip": "ym2612"
    },
    {
      "channel": 5,
      "note": 19,
      "start": 150.5645,
      "duration": 0.1644,
      "velocity": 113,
      "chip": "ym2612"
    },
    {
      "channel": 3,
      "note": 59,
      "start": 150.7612,
      "duration": 0.1157,
      "velocity": 99,
      "chip": "ym2612"
    },
    {
      "channel": 5,
      "note": 31,
      "start": 150.7623,
      "duration": 0.1652,
      "velocity": 113,
      "chip": "ym2612"
    },
    {
      "channel": 2,
      "note": 53,
      "start": 150.9598,
      "duration": 0.1648,
      "velocity": 1,
      "chip": "ym2612"
    },
    {
      "channel": 3,
      "note": 47,
      "start": 150.9606,
      "duration": 0.115,
      "velocity": 98,
      "chip": "ym2612"
    },
    {
      "channel": 5,
      "note": 19,
      "start": 150.9618,
      "duration": 0.1645,
      "velocity": 113,
      "chip": "ym2612"
    },
    {
      "channel": 2,
      "note": 84,
      "start": 151.1584,
      "duration": 0.1975,
      "velocity": 113,
      "chip": "ym2612"
    },
    {
      "channel": 3,
      "note": 59,
      "start": 151.1592,
      "duration": 0.1149,
      "velocity": 99,
      "chip": "ym2612"
    },
    {
      "channel": 5,
      "note": 31,
      "start": 151.1604,
      "duration": 0.1644,
      "velocity": 113,
      "chip": "ym2612"
    },
    {
      "channel": 2,
      "note": 21,
      "start": 151.3571,
      "duration": 0.1975,
      "velocity": 126,
      "chip": "ym2612"
    },
    {
      "channel": 3,
      "note": 47,
      "start": 151.3579,
      "duration": 0.1149,
      "velocity": 100,
      "chip": "ym2612"
    },
    {
      "channel": 5,
      "note": 19,
      "start": 151.359,
      "duration": 0.1645,
      "velocity": 113,
      "chip": "ym2612"
    },
    {
      "channel": 2,
      "note": 53,
      "start": 151.5557,
      "duration": 0.1648,
      "velocity": 1,
      "chip": "ym2612"
    },
    {
      "channel": 3,
      "note": 47,
      "start": 151.5565,
      "duration": 0.1149,
      "velocity": 101,
      "chip": "ym2612"
    },
    {
      "channel": 5,
      "note": 19,
      "start": 151.5577,
      "duration": 0.1645,
      "velocity": 113,
      "chip": "ym2612"
    },
    {
      "channel": 2,
      "note": 53,
      "start": 151.7538,
      "duration": 0.1654,
      "velocity": 1,
      "chip": "ym2612"
    },
    {
      "channel": 3,
      "note": 59,
      "start": 151.7546,
      "duration": 0.1155,
      "velocity": 102,
      "chip": "ym2612"
    },
    {
      "channel": 5,
      "note": 31,
      "start": 151.7557,
      "duration": 0.1651,
      "velocity": 113,
      "chip": "ym2612"
    },
    {
      "channel": 3,
      "note": 47,
      "start": 151.953,
      "duration": 0.1157,
      "velocity": 103,
      "chip": "ym2612"
    },
    {
      "channel": 5,
      "note": 19,
      "start": 151.9542,
      "duration": 0.1652,
      "velocity": 113,
      "chip": "ym2612"
    },
    {
      "channel": 2,
      "note": 21,
      "start": 152.1516,
      "duration": 0.3966,
      "velocity": 126,
      "chip": "ym2612"
    },
    {
      "channel": 3,
      "note": 47,
      "start": 152.1523,
      "duration": 0.1149,
      "velocity": 104,
      "chip": "ym2612"
    },
    {
      "channel": 5,
      "note": 19,
      "start": 152.1535,
      "duration": 0.1645,
      "velocity": 113,
      "chip": "ym2612"
    },
    {
      "channel": 3,
      "note": 59,
      "start": 152.3502,
      "duration": 0.1157,
      "velocity": 105,
      "chip": "ym2612"
    },
    {
      "channel": 5,
      "note": 31,
      "start": 152.3514,
      "duration": 0.1652,
      "velocity": 113,
      "chip": "ym2612"
    },
    {
      "channel": 0,
      "note": 33,
      "start": 152.5472,
      "duration": 3.1776,
      "velocity": 112,
      "chip": "ym2612"
    },
    {
      "channel": 1,
      "note": 37,
      "start": 152.548,
      "duration": 3.1775,
      "velocity": 112,
      "chip": "ym2612"
    },
    {
      "channel": 2,
      "note": 53,
      "start": 152.5493,
      "duration": 0.1644,
      "velocity": 1,
      "chip": "ym2612"
    },
    {
      "channel": 3,
      "note": 49,
      "start": 152.55,
      "duration": 0.1146,
      "velocity": 106,
      "chip": "ym2612"
    },
    {
      "channel": 4,
      "note": 40,
      "start": 152.5507,
      "duration": 3.1776,
      "velocity": 112,
      "chip": "ym2612"
    },
    {
      "channel": 5,
      "note": 30,
      "start": 152.5514,
      "duration": 0.1639,
      "velocity": 113,
      "chip": "ym2612"
    },
    {
      "channel": 2,
      "note": 72,
      "start": 152.7474,
      "duration": 0.1975,
      "velocity": 113,
      "chip": "ym2612"
    },
    {
      "channel": 3,
      "note": 61,
      "start": 152.7482,
      "duration": 0.115,
      "velocity": 105,
      "chip": "ym2612"
    },
    {
      "channel": 5,
      "note": 42,
      "start": 152.7494,
      "duration": 0.1644,
      "velocity": 113,
      "chip": "ym2612"
    },
    {
      "channel": 2,
      "note": 21,
      "start": 152.9461,
      "duration": 0.1975,
      "velocity": 126,
      "chip": "ym2612"
    },
    {
      "channel": 3,
      "note": 49,
      "start": 152.9468,
      "duration": 0.115,
      "velocity": 104,
      "chip": "ym2612"
    },
    {
      "channel": 5,
      "note": 30,
      "start": 152.948,
      "duration": 0.1644,
      "velocity": 113,
      "chip": "ym2612"
    },
    {
      "channel": 2,
      "note": 53,
      "start": 153.1448,
      "duration": 0.1648,
      "velocity": 1,
      "chip": "ym2612"
    },
    {
      "channel": 3,
      "note": 49,
      "start": 153.1455,
      "duration": 0.115,
      "velocity": 103,
      "chip": "ym2612"
    },
    {
      "channel": 5,
      "note": 30,
      "start": 153.1467,
      "duration": 0.1644,
      "velocity": 113,
      "chip": "ym2612"
    },
    {
      "channel": 2,
      "note": 53,
      "start": 153.3428,
      "duration": 0.1654,
      "velocity": 1,
      "chip": "ym2612"
    },
    {
      "channel": 3,
      "note": 61,
      "start": 153.3435,
      "duration": 0.1156,
      "velocity": 102,
      "chip": "ym2612"
    },
    {
      "channel": 5,
      "note": 42,
      "start": 153.3448,
      "duration": 0.1651,
      "velocity": 113,
      "chip": "ym2612"
    },
    {
      "channel": 3,
      "note": 49,
      "start": 153.5421,
      "duration": 0.1157,
      "velocity": 101,
      "chip": "ym2612"
    },
    {
      "channel": 5,
      "note": 30,
      "start": 153.5432,
      "duration": 0.1653,
      "velocity": 113,
      "chip": "ym2612"
    },
    {
      "channel": 2,
      "note": 21,
      "start": 153.7406,
      "duration": 0.3961,
      "velocity": 126,
      "chip": "ym2612"
    },
    {
      "channel": 3,
      "note": 49,
      "start": 153.7414,
      "duration": 0.115,
      "velocity": 100,
      "chip": "ym2612"
    },
    {
      "channel": 5,
      "note": 30,
      "start": 153.7426,
      "duration": 0.1644,
      "velocity": 113,
      "chip": "ym2612"
    },
    {
      "channel": 3,
      "note": 61,
      "start": 153.9392,
      "duration": 0.1157,
      "velocity": 99,
      "chip": "ym2612"
    },
    {
      "channel": 5,
      "note": 42,
      "start": 153.9404,
      "duration": 0.1652,
      "velocity": 113,
      "chip": "ym2612"
    },
    {
      "channel": 2,
      "note": 53,
      "start": 154.1379,
      "duration": 0.1648,
      "velocity": 1,
      "chip": "ym2612"
    },
    {
      "channel": 3,
      "note": 49,
      "start": 154.1386,
      "duration": 0.115,
      "velocity": 98,
      "chip": "ym2612"
    },
    {
      "channel": 5,
      "note": 30,
      "start": 154.1399,
      "duration": 0.1645,
      "velocity": 113,
      "chip": "ym2612"
    },
    {
      "channel": 2,
      "note": 84,
      "start": 154.3365,
      "duration": 0.1975,
      "velocity": 113,
      "chip": "ym2612"
    },
    {
      "channel": 3,
      "note": 61,
      "start": 154.3373,
      "duration": 0.1149,
      "velocity": 99,
      "chip": "ym2612"
    },
    {
      "channel": 5,
      "note": 42,
      "start": 154.3384,
      "duration": 0.1645,
      "velocity": 113,
      "chip": "ym2612"
    },
    {
      "channel": 2,
      "note": 21,
      "start": 154.5351,
      "duration": 0.1976,
      "velocity": 126,
      "chip": "ym2612"
    },
    {
      "channel": 3,
      "note": 49,
      "start": 154.5359,
      "duration": 0.115,
      "velocity": 100,
      "chip": "ym2612"
    },
    {
      "channel": 5,
      "note": 30,
      "start": 154.5371,
      "duration": 0.1644,
      "velocity": 113,
      "chip": "ym2612"
    },
    {
      "channel": 2,
      "note": 53,
      "start": 154.7338,
      "duration": 0.1648,
      "velocity": 1,
      "chip": "ym2612"
    },
    {
      "channel": 3,
      "note": 49,
      "start": 154.7346,
      "duration": 0.1149,
      "velocity": 101,
      "chip": "ym2612"
    },
    {
      "channel": 5,
      "note": 30,
      "start": 154.7357,
      "duration": 0.1645,
      "velocity": 113,
      "chip": "ym2612"
    },
    {
      "channel": 2,
      "note": 53,
      "start": 154.9318,
      "duration": 0.1654,
      "velocity": 1,
      "chip": "ym2612"
    },
    {
      "channel": 3,
      "note": 61,
      "start": 154.9326,
      "duration": 0.1156,
      "velocity": 102,
      "chip": "ym2612"
    },
    {
      "channel": 5,
      "note": 42,
      "start": 154.9337,
      "duration": 0.1651,
      "velocity": 113,
      "chip": "ym2612"
    },
    {
      "channel": 3,
      "note": 49,
      "start": 155.1311,
      "duration": 0.1157,
      "velocity": 103,
      "chip": "ym2612"
    },
    {
      "channel": 5,
      "note": 30,
      "start": 155.1322,
      "duration": 0.1652,
      "velocity": 113,
      "chip": "ym2612"
    },
    {
      "channel": 2,
      "note": 21,
      "start": 155.3296,
      "duration": 0.3966,
      "velocity": 126,
      "chip": "ym2612"
    },
    {
      "channel": 3,
      "note": 49,
      "start": 155.3304,
      "duration": 0.1149,
      "velocity": 104,
      "chip": "ym2612"
    },
    {
      "channel": 5,
      "note": 30,
      "start": 155.3316,
      "duration": 0.1644,
      "velocity": 113,
      "chip": "ym2612"
    },
    {
      "channel": 3,
      "note": 61,
      "start": 155.5283,
      "duration": 0.1157,
      "velocity": 105,
      "chip": "ym2612"
    },
    {
      "channel": 5,
      "note": 28,
      "start": 155.5294,
      "duration": 0.1652,
      "velocity": 113,
      "chip": "ym2612"
    },
    {
      "channel": 0,
      "note": 31,
      "start": 155.7254,
      "duration": 3.0951,
      "velocity": 112,
      "chip": "ym2612"
    },
    {
      "channel": 1,
      "note": 35,
      "start": 155.7261,
      "duration": 3.095,
      "velocity": 112,
      "chip": "ym2612"
    },
    {
      "channel": 2,
      "note": 53,
      "start": 155.7273,
      "duration": 0.1644,
      "velocity": 1,
      "chip": "ym2612"
    },
    {
      "channel": 3,
      "note": 47,
      "start": 155.7281,
      "duration": 0.1146,
      "velocity": 106,
      "chip": "ym2612"
    },
    {
      "channel": 4,
      "note": 38,
      "start": 155.7288,
      "duration": 3.1776,
      "velocity": 112,
      "chip": "ym2612"
    },
    {
      "channel": 5,
      "note": 26,
      "start": 155.7295,
      "duration": 0.1639,
      "velocity": 113,
      "chip": "ym2612"
    },
    {
      "channel": 2,
      "note": 72,
      "start": 155.9256,
      "duration": 0.1976,
      "velocity": 113,
      "chip": "ym2612"
    },
    {
      "channel": 3,
      "note": 59,
      "start": 155.9263,
      "duration": 0.115,
      "velocity": 105,
      "chip": "ym2612"
    },
    {
      "channel": 5,
      "note": 38,
      "start": 155.9275,
      "duration": 0.1645,
      "velocity": 113,
      "chip": "ym2612"
    },
    {
      "channel": 2,
      "note": 21,
      "start": 156.1242,
      "duration": 0.1974,
      "velocity": 126,
      "chip": "ym2612"
    },
    {
      "channel": 3,
      "note": 47,
      "start": 156.125,
      "duration": 0.115,
      "velocity": 104,
      "chip": "ym2612"
    },
    {
      "channel": 5,
      "note": 26,
      "start": 156.1261,
      "duration": 0.1645,
      "velocity": 113,
      "chip": "ym2612"
    },
    {
      "channel": 2,
      "note": 53,
      "start": 156.3229,
      "duration": 0.1648,
      "velocity": 1,
      "chip": "ym2612"
    },
    {
      "channel": 3,
      "note": 47,
      "start": 156.3236,
      "duration": 0.115,
      "velocity": 103,
      "chip": "ym2612"
    },
    {
      "channel": 5,
      "note": 26,
      "start": 156.3249,
      "duration": 0.1644,
      "velocity": 113,
      "chip": "ym2612"
    },
    {
      "channel": 2,
      "note": 53,
      "start": 156.5209,
      "duration": 0.1654,
      "velocity": 1,
      "chip": "ym2612"
    },
    {
      "channel": 3,
      "note": 59,
      "start": 156.5217,
      "duration": 0.1155,
      "velocity": 102,
      "chip": "ym2612"
    },
    {
      "channel": 5,
      "note": 38,
      "start": 156.5229,
      "duration": 0.165,
      "velocity": 113,
      "chip": "ym2612"
    },
    {
      "channel": 3,
      "note": 47,
      "start": 156.7201,
      "duration": 0.1157,
      "velocity": 101,
      "chip": "ym2612"
    },
    {
      "channel": 5,
      "note": 26,
      "start": 156.7213,
      "duration": 0.1652,
      "velocity": 113,
      "chip": "ym2612"
    },
    {
      "channel": 2,
      "note": 21,
      "start": 156.9187,
      "duration": 0.3962,
      "velocity": 126,
      "chip": "ym2612"
    },
    {
      "channel": 3,
      "note": 47,
      "start": 156.9194,
      "duration": 0.1149,
      "velocity": 100,
      "chip": "ym2612"
    },
    {
      "channel": 5,
      "note": 26,
      "start": 156.9206,
      "duration": 0.1645,
      "velocity": 113,
      "chip": "ym2612"
    },
    {
      "channel": 3,
      "note": 59,
      "start": 157.1173,
      "duration": 0.1158,
      "velocity": 99,
      "chip": "ym2612"
    },
    {
      "channel": 5,
      "note": 38,
      "start": 157.1185,
      "duration": 0.1652,
      "velocity": 113,
      "chip": "ym2612"
    },
    {
      "channel": 2,
      "note": 53,
      "start": 157.316,
      "duration": 0.1648,
      "velocity": 1,
      "chip": "ym2612"
    },
    {
      "channel": 3,
      "note": 47,
      "start": 157.3168,
      "duration": 0.115,
      "velocity": 98,
      "chip": "ym2612"
    },
    {
      "channel": 5,
      "note": 26,
      "start": 157.3179,
      "duration": 0.1645,
      "velocity": 113,
      "chip": "ym2612"
    },
    {
      "channel": 2,
      "note": 84,
      "start": 157.5145,
      "duration": 0.1976,
      "velocity": 113,
      "chip": "ym2612"
    },
    {
      "channel": 3,
      "note": 59,
      "start": 157.5153,
      "duration": 0.1149,
      "velocity": 99,
      "chip": "ym2612"
    },
    {
      "channel": 5,
      "note": 38,
      "start": 157.5165,
      "duration": 0.1644,
      "velocity": 113,
      "chip": "ym2612"
    },
    {
      "channel": 2,
      "note": 21,
      "start": 157.7132,
      "duration": 0.1975,
      "velocity": 126,
      "chip": "ym2612"
    },
    {
      "channel": 3,
      "note": 47,
      "start": 157.714,
      "duration": 0.1149,
      "velocity": 100,
      "chip": "ym2612"
    },
    {
      "channel": 5,
      "note": 26,
      "start": 157.7151,
      "duration": 0.1645,
      "velocity": 113,
      "chip": "ym2612"
    },
    {
      "channel": 2,
      "note": 53,
      "start": 157.9119,
      "duration": 0.1648,
      "velocity": 1,
      "chip": "ym2612"
    },
    {
      "channel": 3,
      "note": 47,
      "start": 157.9126,
      "duration": 0.115,
      "velocity": 101,
      "chip": "ym2612"
    },
    {
      "channel": 5,
      "note": 26,
      "start": 157.9138,
      "duration": 0.1644,
      "velocity": 113,
      "chip": "ym2612"
    },
    {
      "channel": 2,
      "note": 53,
      "start": 158.1099,
      "duration": 0.1654,
      "velocity": 1,
      "chip": "ym2612"
    },
    {
      "channel": 3,
      "note": 59,
      "start": 158.1107,
      "duration": 0.1156,
      "velocity": 102,
      "chip": "ym2612"
    },
    {
      "channel": 5,
      "note": 38,
      "start": 158.1119,
      "duration": 0.1651,
      "velocity": 113,
      "chip": "ym2612"
    },
    {
      "channel": 3,
      "note": 47,
      "start": 158.3091,
      "duration": 0.1158,
      "velocity": 103,
      "chip": "ym2612"
    },
    {
      "channel": 5,
      "note": 26,
      "start": 158.3103,
      "duration": 0.1653,
      "velocity": 113,
      "chip": "ym2612"
    },
    {
      "channel": 2,
      "note": 21,
      "start": 158.5077,
      "duration": 0.3965,
      "velocity": 126,
      "chip": "ym2612"
    },
    {
      "channel": 3,
      "note": 47,
      "start": 158.5085,
      "duration": 0.115,
      "velocity": 104,
      "chip": "ym2612"
    },
    {
      "channel": 5,
      "note": 26,
      "start": 158.5097,
      "duration": 0.1644,
      "velocity": 113,
      "chip": "ym2612"
    },
    {
      "channel": 3,
      "note": 59,
      "start": 158.7064,
      "duration": 0.1157,
      "velocity": 105,
      "chip": "ym2612"
    },
    {
      "channel": 5,
      "note": 28,
      "start": 158.7076,
      "duration": 0.1653,
      "velocity": 113,
      "chip": "ym2612"
    },
    {
      "channel": 0,
      "note": 30,
      "start": 158.9034,
      "duration": 3.1776,
      "velocity": 112,
      "chip": "ym2612"
    },
    {
      "channel": 1,
      "note": 33,
      "start": 158.9041,
      "duration": 3.1776,
      "velocity": 112,
      "chip": "ym2612"
    },
    {
      "channel": 2,
      "note": 53,
      "start": 158.9054,
      "duration": 0.1644,
      "velocity": 1,
      "chip": "ym2612"
    },
    {
      "channel": 3,
      "note": 45,
      "start": 158.9062,
      "duration": 0.1146,
      "velocity": 106,
      "chip": "ym2612"
    },
    {
      "channel": 4,
      "note": 37,
      "start": 158.907,
      "duration": 3.1775,
      "velocity": 112,
      "chip": "ym2612"
    },
    {
      "channel": 5,
      "note": 30,
      "start": 158.9076,
      "duration": 0.1639,
      "velocity": 113,
      "chip": "ym2612"
    },
    {
      "channel": 2,
      "note": 72,
      "start": 159.1036,
      "duration": 0.1975,
      "velocity": 113,
      "chip": "ym2612"
    },
    {
      "channel": 3,
      "note": 57,
      "start": 159.1044,
      "duration": 0.115,
      "velocity": 105,
      "chip": "ym2612"
    },
    {
      "channel": 5,
      "note": 42,
      "start": 159.1056,
      "duration": 0.1644,
      "velocity": 113,
      "chip": "ym2612"
    },
    {
      "channel": 2,
      "note": 21,
      "start": 159.3023,
      "duration": 0.1975,
      "velocity": 126,
      "chip": "ym2612"
    },
    {
      "channel": 3,
      "note": 45,
      "start": 159.303,
      "duration": 0.115,
      "velocity": 104,
      "chip": "ym2612"
    },
    {
      "channel": 5,
      "note": 30,
      "start": 159.3042,
      "duration": 0.1644,
      "velocity": 113,
      "chip": "ym2612"
    },
    {
      "channel": 2,
      "note": 53,
      "start": 159.5009,
      "duration": 0.1648,
      "velocity": 1,
      "chip": "ym2612"
    },
    {
      "channel": 3,
      "note": 45,
      "start": 159.5017,
      "duration": 0.1149,
      "velocity": 103,
      "chip": "ym2612"
    },
    {
      "channel": 5,
      "note": 30,
      "start": 159.5029,
      "duration": 0.1644,
      "velocity": 113,
      "chip": "ym2612"
    },
    {
      "channel": 2,
      "note": 53,
      "start": 159.699,
      "duration": 0.1654,
      "velocity": 1,
      "chip": "ym2612"
    },
    {
      "channel": 3,
      "note": 57,
      "start": 159.6997,
      "duration": 0.1156,
      "velocity": 102,
      "chip": "ym2612"
    },
    {
      "channel": 5,
      "note": 42,
      "start": 159.7009,
      "duration": 0.1651,
      "velocity": 113,
      "chip": "ym2612"
    },
    {
      "channel": 3,
      "note": 45,
      "start": 159.8982,
      "duration": 0.1157,
      "velocity": 101,
      "chip": "ym2612"
    },
    {
      "channel": 5,
      "note": 30,
      "start": 159.8994,
      "duration": 0.1652,
      "velocity": 113,
      "chip": "ym2612"
    },
    {
      "channel": 2,
      "note": 21,
      "start": 160.0967,
      "duration": 0.3962,
      "velocity": 126,
      "chip": "ym2612"
    },
    {
      "channel": 3,
      "note": 45,
      "start": 160.0975,
      "duration": 0.115,
      "velocity": 100,
      "chip": "ym2612"
    },
    {
      "channel": 5,
      "note": 30,
      "start": 160.0987,
      "duration": 0.1644,
      "velocity": 113,
      "chip": "ym2612"
    },
    {
      "channel": 3,
      "note": 57,
      "start": 160.2954,
      "duration": 0.1157,
      "velocity": 99,
      "chip": "ym2612"
    },
    {
      "channel": 5,
      "note": 42,
      "start": 160.2966,
      "duration": 0.1652,
      "velocity": 113,
      "chip": "ym2612"
    },
    {
      "channel": 2,
      "note": 53,
      "start": 160.4941,
      "duration": 0.1648,
      "velocity": 1,
      "chip": "ym2612"
    },
    {
      "channel": 3,
      "note": 45,
      "start": 160.4948,
      "duration": 0.115,
      "velocity": 98,
      "chip": "ym2612"
    },
    {
      "channel": 5,
      "note": 30,
      "start": 160.496,
      "duration": 0.1644,
      "velocity": 113,
      "chip": "ym2612"
    },
    {
      "channel": 2,
      "note": 84,
      "start": 160.6927,
      "duration": 0.1976,
      "velocity": 113,
      "chip": "ym2612"
    },
    {
      "channel": 3,
      "note": 57,
      "start": 160.6934,
      "duration": 0.115,
      "velocity": 99,
      "chip": "ym2612"
    },
    {
      "channel": 5,
      "note": 42,
      "start": 160.6946,
      "duration": 0.1645,
      "velocity": 113,
      "chip": "ym2612"
    },
    {
      "channel": 2,
      "note": 21,
      "start": 160.8913,
      "duration": 0.1975,
      "velocity": 126,
      "chip": "ym2612"
    },
    {
      "channel": 3,
      "note": 45,
      "start": 160.8921,
      "duration": 0.1149,
      "velocity": 100,
      "chip": "ym2612"
    },
    {
      "channel": 5,
      "note": 30,
      "start": 160.8932,
      "duration": 0.1645,
      "velocity": 113,
      "chip": "ym2612"
    },
    {
      "channel": 2,
      "note": 53,
      "start": 161.09,
      "duration": 0.1648,
      "velocity": 1,
      "chip": "ym2612"
    },
    {
      "channel": 3,
      "note": 45,
      "start": 161.0907,
      "duration": 0.1149,
      "velocity": 101,
      "chip": "ym2612"
    },
    {
      "channel": 5,
      "note": 30,
      "start": 161.092,
      "duration": 0.1645,
      "velocity": 113,
      "chip": "ym2612"
    },
    {
      "channel": 2,
      "note": 53,
      "start": 161.288,
      "duration": 0.1654,
      "velocity": 1,
      "chip": "ym2612"
    },
    {
      "channel": 3,
      "note": 57,
      "start": 161.2888,
      "duration": 0.1156,
      "velocity": 102,
      "chip": "ym2612"
    },
    {
      "channel": 5,
      "note": 42,
      "start": 161.29,
      "duration": 0.165,
      "velocity": 113,
      "chip": "ym2612"
    },
    {
      "channel": 3,
      "note": 45,
      "start": 161.4873,
      "duration": 0.1157,
      "velocity": 103,
      "chip": "ym2612"
    },
    {
      "channel": 5,
      "note": 30,
      "start": 161.4884,
      "duration": 0.1652,
      "velocity": 113,
      "chip": "ym2612"
    },
    {
      "channel": 2,
      "note": 21,
      "start": 161.6858,
      "duration": 0.3966,
      "velocity": 126,
      "chip": "ym2612"
    },
    {
      "channel": 3,
      "note": 45,
      "start": 161.6866,
      "duration": 0.1149,
      "velocity": 104,
      "chip": "ym2612"
    },
    {
      "channel": 5,
      "note": 30,
      "start": 161.6878,
      "duration": 0.1644,
      "velocity": 113,
      "chip": "ym2612"
    },
    {
      "channel": 3,
      "note": 57,
      "start": 161.8844,
      "duration": 0.1157,
      "velocity": 105,
      "chip": "ym2612"
    },
    {
      "channel": 5,
      "note": 28,
      "start": 161.8856,
      "duration": 0.1652,
      "velocity": 113,
      "chip": "ym2612"
    },
    {
      "channel": 0,
      "note": 19,
      "start": 162.0815,
      "duration": 3.1775,
      "velocity": 112,
      "chip": "ym2612"
    },
    {
      "channel": 1,
      "note": 35,
      "start": 162.0822,
      "duration": 3.1776,
      "velocity": 112,
      "chip": "ym2612"
    },
    {
      "channel": 2,
      "note": 53,
      "start": 162.0835,
      "duration": 0.1644,
      "velocity": 1,
      "chip": "ym2612"
    },
    {
      "channel": 3,
      "note": 47,
      "start": 162.0843,
      "duration": 0.1146,
      "velocity": 106,
      "chip": "ym2612"
    },
    {
      "channel": 4,
      "note": 38,
      "start": 162.085,
      "duration": 3.1775,
      "velocity": 112,
      "chip": "ym2612"
    },
    {
      "channel": 5,
      "note": 19,
      "start": 162.0857,
      "duration": 0.1639,
      "velocity": 113,
      "chip": "ym2612"
    },
    {
      "channel": 2,
      "note": 72,
      "start": 162.2817,
      "duration": 0.1976,
      "velocity": 113,
      "chip": "ym2612"
    },
    {
      "channel": 3,
      "note": 59,
      "start": 162.2824,
      "duration": 0.115,
      "velocity": 105,
      "chip": "ym2612"
    },
    {
      "channel": 5,
      "note": 31,
      "start": 162.2836,
      "duration": 0.1644,
      "velocity": 113,
      "chip": "ym2612"
    },
    {
      "channel": 2,
      "note": 21,
      "start": 162.4803,
      "duration": 0.1975,
      "velocity": 126,
      "chip": "ym2612"
    },
    {
      "channel": 3,
      "note": 47,
      "start": 162.4811,
      "duration": 0.1149,
      "velocity": 104,
      "chip": "ym2612"
    },
    {
      "channel": 5,
      "note": 19,
      "start": 162.4822,
      "duration": 0.1645,
      "velocity": 113,
      "chip": "ym2612"
    },
    {
      "channel": 2,
      "note": 53,
      "start": 162.679,
      "duration": 0.1648,
      "velocity": 1,
      "chip": "ym2612"
    },
    {
      "channel": 3,
      "note": 47,
      "start": 162.6798,
      "duration": 0.115,
      "velocity": 103,
      "chip": "ym2612"
    },
    {
      "channel": 5,
      "note": 19,
      "start": 162.681,
      "duration": 0.1645,
      "velocity": 113,
      "chip": "ym2612"
    },
    {
      "channel": 2,
      "note": 53,
      "start": 162.8771,
      "duration": 0.1654,
      "velocity": 1,
      "chip": "ym2612"
    },
    {
      "channel": 3,
      "note": 59,
      "start": 162.8778,
      "duration": 0.1155,
      "velocity": 102,
      "chip": "ym2612"
    },
    {
      "channel": 5,
      "note": 31,
      "start": 162.879,
      "duration": 0.1651,
      "velocity": 113,
      "chip": "ym2612"
    },
    {
      "channel": 3,
      "note": 47,
      "start": 163.0763,
      "duration": 0.1157,
      "velocity": 101,
      "chip": "ym2612"
    },
    {
      "channel": 5,
      "note": 19,
      "start": 163.0775,
      "duration": 0.1653,
      "velocity": 113,
      "chip": "ym2612"
    },
    {
      "channel": 2,
      "note": 21,
      "start": 163.2749,
      "duration": 0.3961,
      "velocity": 126,
      "chip": "ym2612"
    },
    {
      "channel": 3,
      "note": 47,
      "start": 163.2757,
      "duration": 0.1149,
      "velocity": 100,
      "chip": "ym2612"
    },
    {
      "channel": 5,
      "note": 19,
      "start": 163.2768,
      "duration": 0.1644,
      "velocity": 113,
      "chip": "ym2612"
    },
    {
      "channel": 3,
      "note": 59,
      "start": 163.4735,
      "duration": 0.1156,
      "velocity": 99,
      "chip": "ym2612"
    },
    {
      "channel": 5,
      "note": 31,
      "start": 163.4747,
      "duration": 0.1652,
      "velocity": 113,
      "chip": "ym2612"
    },
    {
      "channel": 2,
      "note": 53,
      "start": 163.6721,
      "duration": 0.1648,
      "velocity": 1,
      "chip": "ym2612"
    },
    {
      "channel": 3,
      "note": 47,
      "start": 163.6729,
      "duration": 0.1149,
      "velocity": 98,
      "chip": "ym2612"
    },
    {
      "channel": 5,
      "note": 19,
      "start": 163.6741,
      "duration": 0.1644,
      "velocity": 113,
      "chip": "ym2612"
    },
    {
      "channel": 2,
      "note": 84,
      "start": 163.8707,
      "duration": 0.1975,
      "velocity": 113,
      "chip": "ym2612"
    },
    {
      "channel": 3,
      "note": 59,
      "start": 163.8715,
      "duration": 0.1149,
      "velocity": 99,
      "chip": "ym2612"
    },
    {
      "channel": 5,
      "note": 31,
      "start": 163.8727,
      "duration": 0.1644,
      "velocity": 113,
      "chip": "ym2612"
    },
    {
      "channel": 2,
      "note": 21,
      "start": 164.0694,
      "duration": 0.1975,
      "velocity": 126,
      "chip": "ym2612"
    },
    {
      "channel": 3,
      "note": 47,
      "start": 164.0701,
      "duration": 0.1149,
      "velocity": 100,
      "chip": "ym2612"
    },
    {
      "channel": 5,
      "note": 19,
      "start": 164.0713,
      "duration": 0.1644,
      "velocity": 113,
      "chip": "ym2612"
    },
    {
      "channel": 2,
      "note": 53,
      "start": 164.268,
      "duration": 0.1648,
      "velocity": 1,
      "chip": "ym2612"
    },
    {
      "channel": 3,
      "note": 47,
      "start": 164.2688,
      "duration": 0.115,
      "velocity": 101,
      "chip": "ym2612"
    },
    {
      "channel": 5,
      "note": 19,
      "start": 164.27,
      "duration": 0.1644,
      "velocity": 113,
      "chip": "ym2612"
    },
    {
      "channel": 2,
      "note": 53,
      "start": 164.4661,
      "duration": 0.1654,
      "velocity": 1,
      "chip": "ym2612"
    },
    {
      "channel": 3,
      "note": 59,
      "start": 164.4668,
      "duration": 0.1156,
      "velocity": 102,
      "chip": "ym2612"
    },
    {
      "channel": 5,
      "note": 31,
      "start": 164.468,
      "duration": 0.1651,
      "velocity": 113,
      "chip": "ym2612"
    },
    {
      "channel": 3,
      "note": 47,
      "start": 164.6653,
      "duration": 0.1157,
      "velocity": 103,
      "chip": "ym2612"
    },
    {
      "channel": 5,
      "note": 19,
      "start": 164.6665,
      "duration": 0.1652,
      "velocity": 113,
      "chip": "ym2612"
    },
    {
      "channel": 2,
      "note": 21,
      "start": 164.8638,
      "duration": 0.3966,
      "velocity": 126,
      "chip": "ym2612"
    },
    {
      "channel": 3,
      "note": 47,
      "start": 164.8646,
      "duration": 0.115,
      "velocity": 104,
      "chip": "ym2612"
    },
    {
      "channel": 5,
      "note": 19,
      "start": 164.8658,
      "duration": 0.1644,
      "velocity": 113,
      "chip": "ym2612"
    },
    {
      "channel": 3,
      "note": 59,
      "start": 165.0625,
      "duration": 0.1157,
      "velocity": 105,
      "chip": "ym2612"
    },
    {
      "channel": 5,
      "note": 31,
      "start": 165.0637,
      "duration": 0.1652,
      "velocity": 113,
      "chip": "ym2612"
    },
    {
      "channel": 0,
      "note": 33,
      "start": 165.2596,
      "duration": 3.1776,
      "velocity": 112,
      "chip": "ym2612"
    },
    {
      "channel": 1,
      "note": 37,
      "start": 165.2603,
      "duration": 3.1776,
      "velocity": 112,
      "chip": "ym2612"
    },
    {
      "channel": 2,
      "note": 53,
      "start": 165.2615,
      "duration": 0.1644,
      "velocity": 1,
      "chip": "ym2612"
    },
    {
      "channel": 3,
      "note": 49,
      "start": 165.2623,
      "duration": 0.1146,
      "velocity": 106,
      "chip": "ym2612"
    },
    {
      "channel": 4,
      "note": 40,
      "start": 165.2631,
      "duration": 3.1775,
      "velocity": 112,
      "chip": "ym2612"
    },
    {
      "channel": 5,
      "note": 30,
      "start": 165.2637,
      "duration": 0.1639,
      "velocity": 113,
      "chip": "ym2612"
    },
    {
      "channel": 2,
      "note": 72,
      "start": 165.4598,
      "duration": 0.1976,
      "velocity": 113,
      "chip": "ym2612"
    },
    {
      "channel": 3,
      "note": 61,
      "start": 165.4605,
      "duration": 0.115,
      "velocity": 105,
      "chip": "ym2612"
    },
    {
      "channel": 5,
      "note": 42,
      "start": 165.4617,
      "duration": 0.1645,
      "velocity": 113,
      "chip": "ym2612"
    },
    {
      "channel": 2,
      "note": 21,
      "start": 165.6584,
      "duration": 0.1975,
      "velocity": 126,
      "chip": "ym2612"
    },
    {
      "channel": 3,
      "note": 49,
      "start": 165.6592,
      "duration": 0.1149,
      "velocity": 104,
      "chip": "ym2612"
    },
    {
      "channel": 5,
      "note": 30,
      "start": 165.6604,
      "duration": 0.1644,
      "velocity": 113,
      "chip": "ym2612"
    },
    {
      "channel": 2,
      "note": 53,
      "start": 165.8571,
      "duration": 0.1648,
      "velocity": 1,
      "chip": "ym2612"
    },
    {
      "channel": 3,
      "note": 49,
      "start": 165.8579,
      "duration": 0.115,
      "velocity": 103,
      "chip": "ym2612"
    },
    {
      "channel": 5,
      "note": 30,
      "start": 165.8591,
      "duration": 0.1645,
      "velocity": 113,
      "chip": "ym2612"
    },
    {
      "channel": 2,
      "note": 53,
      "start": 166.0551,
      "duration": 0.1654,
      "velocity": 1,
      "chip": "ym2612"
    },
    {
      "channel": 3,
      "note": 61,
      "start": 166.0559,
      "duration": 0.1156,
      "velocity": 102,
      "chip": "ym2612"
    },
    {
      "channel": 5,
      "note": 42,
      "start": 166.0571,
      "duration": 0.165,
      "velocity": 113,
      "chip": "ym2612"
    },
    {
      "channel": 3,
      "note": 49,
      "start": 166.2544,
      "duration": 0.1157,
      "velocity": 101,
      "chip": "ym2612"
    },
    {
      "channel": 5,
      "note": 30,
      "start": 166.2555,
      "duration": 0.1652,
      "velocity": 113,
      "chip": "ym2612"
    },
    {
      "channel": 2,
      "note": 21,
      "start": 166.4529,
      "duration": 0.3962,
      "velocity": 126,
      "chip": "ym2612"
    },
    {
      "channel": 3,
      "note": 49,
      "start": 166.4537,
      "duration": 0.1149,
      "velocity": 100,
      "chip": "ym2612"
    },
    {
      "channel": 5,
      "note": 30,
      "start": 166.4549,
      "duration": 0.1644,
      "velocity": 113,
      "chip": "ym2612"
    },
    {
      "channel": 3,
      "note": 61,
      "start": 166.6516,
      "duration": 0.1157,
      "velocity": 99,
      "chip": "ym2612"
    },
    {
      "channel": 5,
      "note": 42,
      "start": 166.6527,
      "duration": 0.1652,
      "velocity": 113,
      "chip": "ym2612"
    },
    {
      "channel": 2,
      "note": 53,
      "start": 166.8502,
      "duration": 0.1648,
      "velocity": 1,
      "chip": "ym2612"
    },
    {
      "channel": 3,
      "note": 49,
      "start": 166.851,
      "duration": 0.115,
      "velocity": 98,
      "chip": "ym2612"
    },
    {
      "channel": 5,
      "note": 30,
      "start": 166.8522,
      "duration": 0.1644,
      "velocity": 113,
      "chip": "ym2612"
    },
    {
      "channel": 2,
      "note": 84,
      "start": 167.0488,
      "duration": 0.1975,
      "velocity": 113,
      "chip": "ym2612"
    },
    {
      "channel": 3,
      "note": 61,
      "start": 167.0496,
      "duration": 0.1149,
      "velocity": 99,
      "chip": "ym2612"
    },
    {
      "channel": 5,
      "note": 42,
      "start": 167.0507,
      "duration": 0.1644,
      "velocity": 113,
      "chip": "ym2612"
    },
    {
      "channel": 2,
      "note": 21,
      "start": 167.2474,
      "duration": 0.1975,
      "velocity": 126,
      "chip": "ym2612"
    },
    {
      "channel": 3,
      "note": 49,
      "start": 167.2482,
      "duration": 0.115,
      "velocity": 100,
      "chip": "ym2612"
    },
    {
      "channel": 5,
      "note": 30,
      "start": 167.2494,
      "duration": 0.1644,
      "velocity": 113,
      "chip": "ym2612"
    },
    {
      "channel": 2,
      "note": 53,
      "start": 167.4461,
      "duration": 0.1648,
      "velocity": 1,
      "chip": "ym2612"
    },
    {
      "channel": 3,
      "note": 49,
      "start": 167.4469,
      "duration": 0.1149,
      "velocity": 101,
      "chip": "ym2612"
    },
    {
      "channel": 5,
      "note": 30,
      "start": 167.4481,
      "duration": 0.1645,
      "velocity": 113,
      "chip": "ym2612"
    },
    {
      "channel": 2,
      "note": 53,
      "start": 167.6442,
      "duration": 0.1654,
      "velocity": 1,
      "chip": "ym2612"
    },
    {
      "channel": 3,
      "note": 61,
      "start": 167.6449,
      "duration": 0.1155,
      "velocity": 102,
      "chip": "ym2612"
    },
    {
      "channel": 5,
      "note": 42,
      "start": 167.6461,
      "duration": 0.1651,
      "velocity": 113,
      "chip": "ym2612"
    },
    {
      "channel": 3,
      "note": 49,
      "start": 167.8434,
      "duration": 0.1157,
      "velocity": 103,
      "chip": "ym2612"
    },
    {
      "channel": 5,
      "note": 30,
      "start": 167.8446,
      "duration": 0.1652,
      "velocity": 113,
      "chip": "ym2612"
    },
    {
      "channel": 2,
      "note": 21,
      "start": 168.042,
      "duration": 0.3966,
      "velocity": 126,
      "chip": "ym2612"
    },
    {
      "channel": 3,
      "note": 49,
      "start": 168.0427,
      "duration": 0.115,
      "velocity": 104,
      "chip": "ym2612"
    },
    {
      "channel": 5,
      "note": 30,
      "start": 168.0439,
      "duration": 0.1644,
      "velocity": 113,
      "chip": "ym2612"
    },
    {
      "channel": 3,
      "note": 61,
      "start": 168.2406,
      "duration": 0.1157,
      "velocity": 105,
      "chip": "ym2612"
    },
    {
      "channel": 5,
      "note": 28,
      "start": 168.2418,
      "duration": 0.1652,
      "velocity": 113,
      "chip": "ym2612"
    },
    {
      "channel": 0,
      "note": 31,
      "start": 168.4376,
      "duration": 3.0951,
      "velocity": 112,
      "chip": "ym2612"
    },
    {
      "channel": 1,
      "note": 42,
      "start": 168.4384,
      "duration": 3.1775,
      "velocity": 112,
      "chip": "ym2612"
    },
    {
      "channel": 2,
      "note": 53,
      "start": 168.4397,
      "duration": 0.1644,
      "velocity": 1,
      "chip": "ym2612"
    },
    {
      "channel": 3,
      "note": 50,
      "start": 168.4405,
      "duration": 0.1145,
      "velocity": 106,
      "chip": "ym2612"
    },
    {
      "channel": 4,
      "note": 38,
      "start": 168.4412,
      "duration": 3.178,
      "velocity": 112,
      "chip": "ym2612"
    },
    {
      "channel": 5,
      "note": 19,
      "start": 168.4418,
      "duration": 0.1639,
      "velocity": 113,
      "chip": "ym2612"
    },
    {
      "channel": 2,
      "note": 72,
      "start": 168.6378,
      "duration": 0.1975,
      "velocity": 113,
      "chip": "ym2612"
    },
    {
      "channel": 3,
      "note": 62,
      "start": 168.6386,
      "duration": 0.1149,
      "velocity": 105,
      "chip": "ym2612"
    },
    {
      "channel": 5,
      "note": 31,
      "start": 168.6398,
      "duration": 0.1644,
      "velocity": 113,
      "chip": "ym2612"
    },
    {
      "channel": 2,
      "note": 21,
      "start": 168.8365,
      "duration": 0.1975,
      "velocity": 126,
      "chip": "ym2612"
    },
    {
      "channel": 3,
      "note": 50,
      "start": 168.8373,
      "duration": 0.1149,
      "velocity": 104,
      "chip": "ym2612"
    },
    {
      "channel": 5,
      "note": 19,
      "start": 168.8384,
      "duration": 0.1645,
      "velocity": 113,
      "chip": "ym2612"
    },
    {
      "channel": 2,
      "note": 53,
      "start": 169.0351,
      "duration": 0.1648,
      "velocity": 1,
      "chip": "ym2612"
    },
    {
      "channel": 3,
      "note": 50,
      "start": 169.0359,
      "duration": 0.115,
      "velocity": 103,
      "chip": "ym2612"
    },
    {
      "channel": 5,
      "note": 19,
      "start": 169.0371,
      "duration": 0.1644,
      "velocity": 113,
      "chip": "ym2612"
    },
    {
      "channel": 2,
      "note": 53,
      "start": 169.2332,
      "duration": 0.1654,
      "velocity": 1,
      "chip": "ym2612"
    },
    {
      "channel": 3,
      "note": 62,
      "start": 169.2339,
      "duration": 0.1156,
      "velocity": 102,
      "chip": "ym2612"
    },
    {
      "channel": 5,
      "note": 31,
      "start": 169.2351,
      "duration": 0.1651,
      "velocity": 113,
      "chip": "ym2612"
    },
    {
      "channel": 3,
      "note": 50,
      "start": 169.4324,
      "duration": 0.1158,
      "velocity": 101,
      "chip": "ym2612"
    },
    {
      "channel": 5,
      "note": 19,
      "start": 169.4336,
      "duration": 0.1652,
      "velocity": 113,
      "chip": "ym2612"
    },
    {
      "channel": 2,
      "note": 21,
      "start": 169.631,
      "duration": 0.3961,
      "velocity": 126,
      "chip": "ym2612"
    },
    {
      "channel": 3,
      "note": 50,
      "start": 169.6318,
      "duration": 0.115,
      "velocity": 100,
      "chip": "ym2612"
    },
    {
      "channel": 5,
      "note": 19,
      "start": 169.6329,
      "duration": 0.1644,
      "velocity": 113,
      "chip": "ym2612"
    },
    {
      "channel": 3,
      "note": 62,
      "start": 169.8296,
      "duration": 0.1157,
      "velocity": 99,
      "chip": "ym2612"
    },
    {
      "channel": 5,
      "note": 31,
      "start": 169.8308,
      "duration": 0.1652,
      "velocity": 113,
      "chip": "ym2612"
    },
    {
      "channel": 2,
      "note": 53,
      "start": 170.0283,
      "duration": 0.1648,
      "velocity": 1,
      "chip": "ym2612"
    },
    {
      "channel": 3,
      "note": 50,
      "start": 170.0291,
      "duration": 0.1149,
      "velocity": 98,
      "chip": "ym2612"
    },
    {
      "channel": 5,
      "note": 19,
      "start": 170.0302,
      "duration": 0.1645,
      "velocity": 113,
      "chip": "ym2612"
    },
    {
      "channel": 2,
      "note": 84,
      "start": 170.2269,
      "duration": 0.1975,
      "velocity": 113,
      "chip": "ym2612"
    },
    {
      "channel": 3,
      "note": 62,
      "start": 170.2276,
      "duration": 0.1149,
      "velocity": 99,
      "chip": "ym2612"
    },
    {
      "channel": 5,
      "note": 31,
      "start": 170.2288,
      "duration": 0.1644,
      "velocity": 113,
      "chip": "ym2612"
    },
    {
      "channel": 2,
      "note": 21,
      "start": 170.4256,
      "duration": 0.1975,
      "velocity": 126,
      "chip": "ym2612"
    },
    {
      "channel": 3,
      "note": 50,
      "start": 170.4263,
      "duration": 0.115,
      "velocity": 100,
      "chip": "ym2612"
    },
    {
      "channel": 5,
      "note": 19,
      "start": 170.4275,
      "duration": 0.1645,
      "velocity": 113,
      "chip": "ym2612"
    },
    {
      "channel": 2,
      "note": 53,
      "start": 170.6242,
      "duration": 0.1648,
      "velocity": 1,
      "chip": "ym2612"
    },
    {
      "channel": 3,
      "note": 50,
      "start": 170.625,
      "duration": 0.1149,
      "velocity": 101,
      "chip": "ym2612"
    },
    {
      "channel": 5,
      "note": 19,
      "start": 170.6262,
      "duration": 0.1645,
      "velocity": 113,
      "chip": "ym2612"
    },
    {
      "channel": 2,
      "note": 53,
      "start": 170.8222,
      "duration": 0.1654,
      "velocity": 1,
      "chip": "ym2612"
    },
    {
      "channel": 3,
      "note": 62,
      "start": 170.8231,
      "duration": 0.1155,
      "velocity": 102,
      "chip": "ym2612"
    },
    {
      "channel": 5,
      "note": 31,
      "start": 170.8242,
      "duration": 0.1651,
      "velocity": 113,
      "chip": "ym2612"
    },
    {
      "channel": 3,
      "note": 50,
      "start": 171.0215,
      "duration": 0.1157,
      "velocity": 103,
      "chip": "ym2612"
    },
    {
      "channel": 5,
      "note": 19,
      "start": 171.0227,
      "duration": 0.1652,
      "velocity": 113,
      "chip": "ym2612"
    },
    {
      "channel": 2,
      "note": 21,
      "start": 171.22,
      "duration": 0.3966,
      "velocity": 126,
      "chip": "ym2612"
    },
    {
      "channel": 3,
      "note": 50,
      "start": 171.2208,
      "duration": 0.115,
      "velocity": 104,
      "chip": "ym2612"
    },
    {
      "channel": 5,
      "note": 19,
      "start": 171.222,
      "duration": 0.1644,
      "velocity": 113,
      "chip": "ym2612"
    },
    {
      "channel": 3,
      "note": 62,
      "start": 171.4187,
      "duration": 0.1158,
      "velocity": 105,
      "chip": "ym2612"
    },
    {
      "channel": 5,
      "note": 31,
      "start": 171.4199,
      "duration": 0.1652,
      "velocity": 113,
      "chip": "ym2612"
    },
    {
      "channel": 0,
      "note": 33,
      "start": 171.6158,
      "duration": 3.1775,
      "velocity": 112,
      "chip": "ym2612"
    },
    {
      "channel": 1,
      "note": 37,
      "start": 171.6164,
      "duration": 3.1776,
      "velocity": 112,
      "chip": "ym2612"
    },
    {
      "channel": 2,
      "note": 43,
      "start": 171.6178,
      "duration": 0.1148,
      "velocity": 106,
      "chip": "ym2612"
    },
    {
      "channel": 3,
      "note": 35,
      "start": 171.619,
      "duration": 3.1764,
      "velocity": 112,
      "chip": "ym2612"
    },
    {
      "channel": 4,
      "note": 40,
      "start": 171.6198,
      "duration": 3.1764,
      "velocity": 112,
      "chip": "ym2612"
    },
    {
      "channel": 5,
      "note": 30,
      "start": 171.6205,
      "duration": 0.1633,
      "velocity": 113,
      "chip": "ym2612"
    },
    {
      "channel": 2,
      "note": 57,
      "start": 171.8154,
      "duration": 0.1158,
      "velocity": 105,
      "chip": "ym2612"
    },
    {
      "channel": 5,
      "note": 42,
      "start": 171.8171,
      "duration": 0.1652,
      "velocity": 113,
      "chip": "ym2612"
    },
    {
      "channel": 2,
      "note": 45,
      "start": 172.0141,
      "duration": 0.1157,
      "velocity": 104,
      "chip": "ym2612"
    },
    {
      "channel": 5,
      "note": 30,
      "start": 172.0158,
      "duration": 0.1652,
      "velocity": 113,
      "chip": "ym2612"
    },
    {
      "channel": 2,
      "note": 45,
      "start": 172.2127,
      "duration": 0.1157,
      "velocity": 103,
      "chip": "ym2612"
    },
    {
      "channel": 5,
      "note": 30,
      "start": 172.2144,
      "duration": 0.1652,
      "velocity": 113,
      "chip": "ym2612"
    },
    {
      "channel": 2,
      "note": 57,
      "start": 172.4114,
      "duration": 0.1157,
      "velocity": 102,
      "chip": "ym2612"
    },
    {
      "channel": 5,
      "note": 42,
      "start": 172.413,
      "duration": 0.1653,
      "velocity": 113,
      "chip": "ym2612"
    },
    {
      "channel": 2,
      "note": 45,
      "start": 172.61,
      "duration": 0.1157,
      "velocity": 101,
      "chip": "ym2612"
    },
    {
      "channel": 5,
      "note": 30,
      "start": 172.6117,
      "duration": 0.1652,
      "velocity": 113,
      "chip": "ym2612"
    },
    {
      "channel": 2,
      "note": 45,
      "start": 172.8086,
      "duration": 0.1158,
      "velocity": 100,
      "chip": "ym2612"
    },
    {
      "channel": 5,
      "note": 30,
      "start": 172.8103,
      "duration": 0.1653,
      "velocity": 113,
      "chip": "ym2612"
    },
    {
      "channel": 2,
      "note": 57,
      "start": 173.0073,
      "duration": 0.1157,
      "velocity": 99,
      "chip": "ym2612"
    },
    {
      "channel": 5,
      "note": 42,
      "start": 173.009,
      "duration": 0.1652,
      "velocity": 113,
      "chip": "ym2612"
    },
    {
      "channel": 2,
      "note": 45,
      "start": 173.2059,
      "duration": 0.1157,
      "velocity": 98,
      "chip": "ym2612"
    },
    {
      "channel": 5,
      "note": 30,
      "start": 173.2076,
      "duration": 0.1652,
      "velocity": 113,
      "chip": "ym2612"
    },
    {
      "channel": 2,
      "note": 57,
      "start": 173.4045,
      "duration": 0.1157,
      "velocity": 99,
      "chip": "ym2612"
    },
    {
      "channel": 5,
      "note": 42,
      "start": 173.4062,
      "duration": 0.1652,
      "velocity": 113,
      "chip": "ym2612"
    },
    {
      "channel": 2,
      "note": 45,
      "start": 173.6032,
      "duration": 0.1157,
      "velocity": 100,
      "chip": "ym2612"
    },
    {
      "channel": 5,
      "note": 30,
      "start": 173.6048,
      "duration": 0.1653,
      "velocity": 113,
      "chip": "ym2612"
    },
    {
      "channel": 2,
      "note": 45,
      "start": 173.8017,
      "duration": 0.1157,
      "velocity": 101,
      "chip": "ym2612"
    },
    {
      "channel": 5,
      "note": 30,
      "start": 173.8035,
      "duration": 0.1652,
      "velocity": 113,
      "chip": "ym2612"
    },
    {
      "channel": 2,
      "note": 57,
      "start": 174.0004,
      "duration": 0.1157,
      "velocity": 102,
      "chip": "ym2612"
    },
    {
      "channel": 5,
      "note": 42,
      "start": 174.0021,
      "duration": 0.1653,
      "velocity": 113,
      "chip": "ym2612"
    },
    {
      "channel": 2,
      "note": 45,
      "start": 174.199,
      "duration": 0.1157,
      "velocity": 103,
      "chip": "ym2612"
    },
    {
      "channel": 5,
      "note": 30,
      "start": 174.2007,
      "duration": 0.1652,
      "velocity": 113,
      "chip": "ym2612"
    },
    {
      "channel": 2,
      "note": 45,
      "start": 174.3976,
      "duration": 0.1158,
      "velocity": 104,
      "chip": "ym2612"
    },
    {
      "channel": 5,
      "note": 30,
      "start": 174.3993,
      "duration": 0.1652,
      "velocity": 113,
      "chip": "ym2612"
    },
    {
      "channel": 2,
      "note": 57,
      "start": 174.5963,
      "duration": 0.1157,
      "velocity": 105,
      "chip": "ym2612"
    },
    {
      "channel": 5,
      "note": 28,
      "start": 174.598,
      "duration": 0.1652,
      "velocity": 113,
      "chip": "ym2612"
    },
    {
      "channel": 0,
      "note": 31,
      "start": 174.7938,
      "duration": 3.0951,
      "velocity": 112,
      "chip": "ym2612"
    },
    {
      "channel": 1,
      "note": 42,
      "start": 174.7946,
      "duration": 3.1775,
      "velocity": 112,
      "chip": "ym2612"
    },
    {
      "channel": 2,
      "note": 47,
      "start": 174.7953,
      "duration": 0.1153,
      "velocity": 106,
      "chip": "ym2612"
    },
    {
      "channel": 3,
      "note": 35,
      "start": 174.796,
      "duration": 3.178,
      "velocity": 112,
      "chip": "ym2612"
    },
    {
      "channel": 4,
      "note": 38,
      "start": 174.7967,
      "duration": 3.1788,
      "velocity": 112,
      "chip": "ym2612"
    },
    {
      "channel": 5,
      "note": 19,
      "start": 174.7974,
      "duration": 0.1644,
      "velocity": 113,
      "chip": "ym2612"
    },
    {
      "channel": 2,
      "note": 59,
      "start": 174.9935,
      "duration": 0.1157,
      "velocity": 105,
      "chip": "ym2612"
    },
    {
      "channel": 5,
      "note": 31,
      "start": 174.9953,
      "duration": 0.1652,
      "velocity": 113,
      "chip": "ym2612"
    },
    {
      "channel": 2,
      "note": 47,
      "start": 175.1922,
      "duration": 0.1158,
      "velocity": 104,
      "chip": "ym2612"
    },
    {
      "channel": 5,
      "note": 19,
      "start": 175.1939,
      "duration": 0.1653,
      "velocity": 113,
      "chip": "ym2612"
    },
    {
      "channel": 2,
      "note": 47,
      "start": 175.3909,
      "duration": 0.1157,
      "velocity": 103,
      "chip": "ym2612"
    },
    {
      "channel": 5,
      "note": 19,
      "start": 175.3925,
      "duration": 0.1652,
      "velocity": 113,
      "chip": "ym2612"
    },
    {
      "channel": 2,
      "note": 59,
      "start": 175.5895,
      "duration": 0.1156,
      "velocity": 102,
      "chip": "ym2612"
    },
    {
      "channel": 5,
      "note": 31,
      "start": 175.5912,
      "duration": 0.1652,
      "velocity": 113,
      "chip": "ym2612"
    },
    {
      "channel": 2,
      "note": 47,
      "start": 175.7881,
      "duration": 0.1157,
      "velocity": 101,
      "chip": "ym2612"
    },
    {
      "channel": 5,
      "note": 19,
      "start": 175.7898,
      "duration": 0.1652,
      "velocity": 113,
      "chip": "ym2612"
    },
    {
      "channel": 2,
      "note": 47,
      "start": 175.9867,
      "duration": 0.1157,
      "velocity": 100,
      "chip": "ym2612"
    },
    {
      "channel": 5,
      "note": 19,
      "start": 175.9884,
      "duration": 0.1652,
      "velocity": 113,
      "chip": "ym2612"
    },
    {
      "channel": 2,
      "note": 59,
      "start": 176.1854,
      "duration": 0.1157,
      "velocity": 99,
      "chip": "ym2612"
    },
    {
      "channel": 5,
      "note": 31,
      "start": 176.187,
      "duration": 0.1653,
      "velocity": 113,
      "chip": "ym2612"
    },
    {
      "channel": 2,
      "note": 47,
      "start": 176.3839,
      "duration": 0.1157,
      "velocity": 98,
      "chip": "ym2612"
    },
    {
      "channel": 5,
      "note": 19,
      "start": 176.3857,
      "duration": 0.1652,
      "velocity": 113,
      "chip": "ym2612"
    },
    {
      "channel": 2,
      "note": 59,
      "start": 176.5826,
      "duration": 0.1157,
      "velocity": 99,
      "chip": "ym2612"
    },
    {
      "channel": 5,
      "note": 31,
      "start": 176.5843,
      "duration": 0.1653,
      "velocity": 113,
      "chip": "ym2612"
    },
    {
      "channel": 2,
      "note": 47,
      "start": 176.7812,
      "duration": 0.1157,
      "velocity": 100,
      "chip": "ym2612"
    },
    {
      "channel": 5,
      "note": 19,
      "start": 176.7829,
      "duration": 0.1652,
      "velocity": 113,
      "chip": "ym2612"
    },
    {
      "channel": 2,
      "note": 47,
      "start": 176.9799,
      "duration": 0.1157,
      "velocity": 101,
      "chip": "ym2612"
    },
    {
      "channel": 5,
      "note": 19,
      "start": 176.9815,
      "duration": 0.1653,
      "velocity": 113,
      "chip": "ym2612"
    },
    {
      "channel": 2,
      "note": 59,
      "start": 177.1785,
      "duration": 0.1157,
      "velocity": 102,
      "chip": "ym2612"
    },
    {
      "channel": 5,
      "note": 31,
      "start": 177.1802,
      "duration": 0.1652,
      "velocity": 113,
      "chip": "ym2612"
    },
    {
      "channel": 2,
      "note": 47,
      "start": 177.3771,
      "duration": 0.1158,
      "velocity": 103,
      "chip": "ym2612"
    },
    {
      "channel": 5,
      "note": 19,
      "start": 177.3788,
      "duration": 0.1652,
      "velocity": 113,
      "chip": "ym2612"
    },
    {
      "channel": 2,
      "note": 47,
      "start": 177.5757,
      "duration": 0.1157,
      "velocity": 104,
      "chip": "ym2612"
    },
    {
      "channel": 5,
      "note": 19,
      "start": 177.5775,
      "duration": 0.1653,
      "velocity": 113,
      "chip": "ym2612"
    },
    {
      "channel": 2,
      "note": 59,
      "start": 177.7744,
      "duration": 0.1158,
      "velocity": 105,
      "chip": "ym2612"
    },
    {
      "channel": 5,
      "note": 31,
      "start": 177.7761,
      "duration": 0.1652,
      "velocity": 113,
      "chip": "ym2612"
    },
    {
      "channel": 0,
      "note": 33,
      "start": 177.9719,
      "duration": 3.1775,
      "velocity": 112,
      "chip": "ym2612"
    },
    {
      "channel": 1,
      "note": 37,
      "start": 177.9726,
      "duration": 3.1775,
      "velocity": 112,
      "chip": "ym2612"
    },
    {
      "channel": 2,
      "note": 35,
      "start": 177.9739,
      "duration": 3.1769,
      "velocity": 112,
      "chip": "ym2612"
    },
    {
      "channel": 3,
      "note": 49,
      "start": 177.9754,
      "duration": 0.1139,
      "velocity": 106,
      "chip": "ym2612"
    },
    {
      "channel": 4,
      "note": 40,
      "start": 177.9761,
      "duration": 3.1763,
      "velocity": 112,
      "chip": "ym2612"
    },
    {
      "channel": 5,
      "note": 30,
      "start": 177.9767,
      "duration": 0.1632,
      "velocity": 113,
      "chip": "ym2612"
    },
    {
      "channel": 3,
      "note": 59,
      "start": 178.1722,
      "duration": 0.1157,
      "velocity": 105,
      "chip": "ym2612"
    },
    {
      "channel": 5,
      "note": 40,
      "start": 178.1734,
      "duration": 0.1651,
      "velocity": 113,
      "chip": "ym2612"
    },
    {
      "channel": 3,
      "note": 47,
      "start": 178.3708,
      "duration": 0.1157,
      "velocity": 104,
      "chip": "ym2612"
    },
    {
      "channel": 5,
      "note": 28,
      "start": 178.372,
      "duration": 0.1652,
      "velocity": 113,
      "chip": "ym2612"
    },
    {
      "channel": 3,
      "note": 47,
      "start": 178.5694,
      "duration": 0.1157,
      "velocity": 103,
      "chip": "ym2612"
    },
    {
      "channel": 5,
      "note": 28,
      "start": 178.5706,
      "duration": 0.1652,
      "velocity": 113,
      "chip": "ym2612"
    },
    {
      "channel": 3,
      "note": 59,
      "start": 178.768,
      "duration": 0.1157,
      "velocity": 102,
      "chip": "ym2612"
    },
    {
      "channel": 5,
      "note": 40,
      "start": 178.7693,
      "duration": 0.1652,
      "velocity": 113,
      "chip": "ym2612"
    },
    {
      "channel": 3,
      "note": 47,
      "start": 178.9666,
      "duration": 0.1158,
      "velocity": 101,
      "chip": "ym2612"
    },
    {
      "channel": 5,
      "note": 28,
      "start": 178.9678,
      "duration": 0.1652,
      "velocity": 113,
      "chip": "ym2612"
    },
    {
      "channel": 3,
      "note": 47,
      "start": 179.1653,
      "duration": 0.1157,
      "velocity": 100,
      "chip": "ym2612"
    },
    {
      "channel": 5,
      "note": 28,
      "start": 179.1665,
      "duration": 0.1652,
      "velocity": 113,
      "chip": "ym2612"
    },
    {
      "channel": 3,
      "note": 59,
      "start": 179.3639,
      "duration": 0.1157,
      "velocity": 99,
      "chip": "ym2612"
    },
    {
      "channel": 5,
      "note": 40,
      "start": 179.3651,
      "duration": 0.1652,
      "velocity": 113,
      "chip": "ym2612"
    },
    {
      "channel": 3,
      "note": 47,
      "start": 179.5626,
      "duration": 0.1157,
      "velocity": 98,
      "chip": "ym2612"
    },
    {
      "channel": 5,
      "note": 28,
      "start": 179.5638,
      "duration": 0.1652,
      "velocity": 113,
      "chip": "ym2612"
    },
    {
      "channel": 3,
      "note": 59,
      "start": 179.7612,
      "duration": 0.1157,
      "velocity": 99,
      "chip": "ym2612"
    },
    {
      "channel": 5,
      "note": 40,
      "start": 179.7624,
      "duration": 0.1652,
      "velocity": 113,
      "chip": "ym2612"
    },
    {
      "channel": 3,
      "note": 47,
      "start": 179.9598,
      "duration": 0.1157,
      "velocity": 100,
      "chip": "ym2612"
    },
    {
      "channel": 5,
      "note": 28,
      "start": 179.961,
      "duration": 0.1653,
      "velocity": 113,
      "chip": "ym2612"
    },
    {
      "channel": 3,
      "note": 47,
      "start": 180.1585,
      "duration": 0.1157,
      "velocity": 101,
      "chip": "ym2612"
    },
    {
      "channel": 5,
      "note": 28,
      "start": 180.1597,
      "duration": 0.1652,
      "velocity": 113,
      "chip": "ym2612"
    },
    {
      "channel": 3,
      "note": 59,
      "start": 180.3571,
      "duration": 0.1158,
      "velocity": 102,
      "chip": "ym2612"
    },
    {
      "channel": 5,
      "note": 40,
      "start": 180.3583,
      "duration": 0.1652,
      "velocity": 113,
      "chip": "ym2612"
    },
    {
      "channel": 3,
      "note": 47,
      "start": 180.5557,
      "duration": 0.1157,
      "velocity": 103,
      "chip": "ym2612"
    },
    {
      "channel": 5,
      "note": 28,
      "start": 180.5569,
      "duration": 0.1652,
      "velocity": 113,
      "chip": "ym2612"
    },
    {
      "channel": 3,
      "note": 47,
      "start": 180.7544,
      "duration": 0.1157,
      "velocity": 104,
      "chip": "ym2612"
    },
    {
      "channel": 5,
      "note": 28,
      "start": 180.7555,
      "duration": 0.1652,
      "velocity": 113,
      "chip": "ym2612"
    },
    {
      "channel": 3,
      "note": 59,
      "start": 180.953,
      "duration": 0.1157,
      "velocity": 105,
      "chip": "ym2612"
    },
    {
      "channel": 5,
      "note": 26,
      "start": 180.9542,
      "duration": 0.1652,
      "velocity": 113,
      "chip": "ym2612"
    },
    {
      "channel": 0,
      "note": 29,
      "start": 181.15,
      "duration": 3.0952,
      "velocity": 112,
      "chip": "ym2612"
    },
    {
      "channel": 1,
      "note": 33,
      "start": 181.1507,
      "duration": 3.095,
      "velocity": 112,
      "chip": "ym2612"
    },
    {
      "channel": 2,
      "note": 31,
      "start": 181.1514,
      "duration": 3.0948,
      "velocity": 112,
      "chip": "ym2612"
    },
    {
      "channel": 3,
      "note": 45,
      "start": 181.1522,
      "duration": 0.1151,
      "velocity": 106,
      "chip": "ym2612"
    },
    {
      "channel": 4,
      "note": 36,
      "start": 181.1529,
      "duration": 3.1787,
      "velocity": 112,
      "chip": "ym2612"
    },
    {
      "channel": 5,
      "note": 24,
      "start": 181.1535,
      "duration": 0.1644,
      "velocity": 113,
      "chip": "ym2612"
    },
    {
      "channel": 3,
      "note": 57,
      "start": 181.3502,
      "duration": 0.1157,
      "velocity": 105,
      "chip": "ym2612"
    },
    {
      "channel": 5,
      "note": 36,
      "start": 181.3514,
      "duration": 0.1652,
      "velocity": 113,
      "chip": "ym2612"
    },
    {
      "channel": 3,
      "note": 45,
      "start": 181.5489,
      "duration": 0.1157,
      "velocity": 104,
      "chip": "ym2612"
    },
    {
      "channel": 5,
      "note": 24,
      "start": 181.55,
      "duration": 0.1652,
      "velocity": 113,
      "chip": "ym2612"
    },
    {
      "channel": 3,
      "note": 45,
      "start": 181.7475,
      "duration": 0.1157,
      "velocity": 103,
      "chip": "ym2612"
    },
    {
      "channel": 5,
      "note": 24,
      "start": 181.7487,
      "duration": 0.1652,
      "velocity": 113,
      "chip": "ym2612"
    },
    {
      "channel": 3,
      "note": 57,
      "start": 181.9461,
      "duration": 0.1158,
      "velocity": 102,
      "chip": "ym2612"
    },
    {
      "channel": 5,
      "note": 36,
      "start": 181.9473,
      "duration": 0.1652,
      "velocity": 113,
      "chip": "ym2612"
    },
    {
      "channel": 3,
      "note": 45,
      "start": 182.1448,
      "duration": 0.1157,
      "velocity": 101,
      "chip": "ym2612"
    },
    {
      "channel": 5,
      "note": 24,
      "start": 182.146,
      "duration": 0.1652,
      "velocity": 113,
      "chip": "ym2612"
    },
    {
      "channel": 3,
      "note": 45,
      "start": 182.3434,
      "duration": 0.1157,
      "velocity": 100,
      "chip": "ym2612"
    },
    {
      "channel": 5,
      "note": 24,
      "start": 182.3446,
      "duration": 0.1652,
      "velocity": 113,
      "chip": "ym2612"
    },
    {
      "channel": 3,
      "note": 57,
      "start": 182.542,
      "duration": 0.1158,
      "velocity": 99,
      "chip": "ym2612"
    },
    {
      "channel": 5,
      "note": 36,
      "start": 182.5432,
      "duration": 0.1652,
      "velocity": 113,
      "chip": "ym2612"
    },
    {
      "channel": 3,
      "note": 45,
      "start": 182.7407,
      "duration": 0.1157,
      "velocity": 98,
      "chip": "ym2612"
    },
    {
      "channel": 5,
      "note": 24,
      "start": 182.7419,
      "duration": 0.1652,
      "velocity": 113,
      "chip": "ym2612"
    },
    {
      "channel": 3,
      "note": 57,
      "start": 182.9393,
      "duration": 0.1157,
      "velocity": 99,
      "chip": "ym2612"
    },
    {
      "channel": 5,
      "note": 36,
      "start": 182.9405,
      "duration": 0.1652,
      "velocity": 113,
      "chip": "ym2612"
    },
    {
      "channel": 3,
      "note": 45,
      "start": 183.1379,
      "duration": 0.1157,
      "velocity": 100,
      "chip": "ym2612"
    },
    {
      "channel": 5,
      "note": 24,
      "start": 183.1391,
      "duration": 0.1652,
      "velocity": 113,
      "chip": "ym2612"
    },
    {
      "channel": 3,
      "note": 45,
      "start": 183.3366,
      "duration": 0.1157,
      "velocity": 101,
      "chip": "ym2612"
    },
    {
      "channel": 5,
      "note": 24,
      "start": 183.3377,
      "duration": 0.1652,
      "velocity": 113,
      "chip": "ym2612"
    },
    {
      "channel": 3,
      "note": 57,
      "start": 183.5351,
      "duration": 0.1157,
      "velocity": 102,
      "chip": "ym2612"
    },
    {
      "channel": 5,
      "note": 36,
      "start": 183.5363,
      "duration": 0.1652,
      "velocity": 113,
      "chip": "ym2612"
    },
    {
      "channel": 3,
      "note": 45,
      "start": 183.7338,
      "duration": 0.1157,
      "velocity": 103,
      "chip": "ym2612"
    },
    {
      "channel": 5,
      "note": 24,
      "start": 183.735,
      "duration": 0.1652,
      "velocity": 113,
      "chip": "ym2612"
    },
    {
      "channel": 3,
      "note": 45,
      "start": 183.9324,
      "duration": 0.1157,
      "velocity": 104,
      "chip": "ym2612"
    },
    {
      "channel": 5,
      "note": 24,
      "start": 183.9336,
      "duration": 0.1652,
      "velocity": 113,
      "chip": "ym2612"
    },
    {
      "channel": 3,
      "note": 57,
      "start": 184.1311,
      "duration": 0.1158,
      "velocity": 105,
      "chip": "ym2612"
    },
    {
      "channel": 5,
      "note": 26,
      "start": 184.1322,
      "duration": 0.1652,
      "velocity": 113,
      "chip": "ym2612"
    },
    {
      "channel": 0,
      "note": 31,
      "start": 184.328,
      "duration": 3.1776,
      "velocity": 112,
      "chip": "ym2612"
    },
    {
      "channel": 1,
      "note": 35,
      "start": 184.3288,
      "duration": 3.1775,
      "velocity": 112,
      "chip": "ym2612"
    },
    {
      "channel": 2,
      "note": 43,
      "start": 184.3301,
      "duration": 0.1147,
      "velocity": 106,
      "chip": "ym2612"
    },
    {
      "channel": 3,
      "note": 33,
      "start": 184.3314,
      "duration": 3.1764,
      "velocity": 112,
      "chip": "ym2612"
    },
    {
      "channel": 4,
      "note": 38,
      "start": 184.3322,
      "duration": 3.1764,
      "velocity": 112,
      "chip": "ym2612"
    },
    {
      "channel": 5,
      "note": 28,
      "start": 184.3328,
      "duration": 0.1633,
      "velocity": 113,
      "chip": "ym2612"
    },
    {
      "channel": 2,
      "note": 57,
      "start": 184.5278,
      "duration": 0.1157,
      "velocity": 105,
      "chip": "ym2612"
    },
    {
      "channel": 5,
      "note": 42,
      "start": 184.5295,
      "duration": 0.1652,
      "velocity": 113,
      "chip": "ym2612"
    },
    {
      "channel": 2,
      "note": 45,
      "start": 184.7264,
      "duration": 0.1157,
      "velocity": 104,
      "chip": "ym2612"
    },
    {
      "channel": 5,
      "note": 30,
      "start": 184.7281,
      "duration": 0.1653,
      "velocity": 113,
      "chip": "ym2612"
    },
    {
      "channel": 2,
      "note": 45,
      "start": 184.925,
      "duration": 0.1158,
      "velocity": 103,
      "chip": "ym2612"
    },
    {
      "channel": 5,
      "note": 30,
      "start": 184.9268,
      "duration": 0.1653,
      "velocity": 113,
      "chip": "ym2612"
    },
    {
      "channel": 2,
      "note": 57,
      "start": 185.1237,
      "duration": 0.1157,
      "velocity": 102,
      "chip": "ym2612"
    },
    {
      "channel": 5,
      "note": 42,
      "start": 185.1254,
      "duration": 0.1652,
      "velocity": 113,
      "chip": "ym2612"
    },
    {
      "channel": 2,
      "note": 45,
      "start": 185.3223,
      "duration": 0.1157,
      "velocity": 101,
      "chip": "ym2612"
    },
    {
      "channel": 5,
      "note": 30,
      "start": 185.324,
      "duration": 0.1652,
      "velocity": 113,
      "chip": "ym2612"
    },
    {
      "channel": 2,
      "note": 45,
      "start": 185.5209,
      "duration": 0.1158,
      "velocity": 100,
      "chip": "ym2612"
    },
    {
      "channel": 5,
      "note": 30,
      "start": 185.5226,
      "duration": 0.1652,
      "velocity": 113,
      "chip": "ym2612"
    },
    {
      "channel": 2,
      "note": 57,
      "start": 185.7196,
      "duration": 0.1157,
      "velocity": 99,
      "chip": "ym2612"
    },
    {
      "channel": 5,
      "note": 42,
      "start": 185.7213,
      "duration": 0.1652,
      "velocity": 113,
      "chip": "ym2612"
    },
    {
      "channel": 2,
      "note": 45,
      "start": 185.9182,
      "duration": 0.1157,
      "velocity": 98,
      "chip": "ym2612"
    },
    {
      "channel": 5,
      "note": 30,
      "start": 185.9199,
      "duration": 0.1652,
      "velocity": 113,
      "chip": "ym2612"
    },
    {
      "channel": 2,
      "note": 57,
      "start": 186.1168,
      "duration": 0.1157,
      "velocity": 99,
      "chip": "ym2612"
    },
    {
      "channel": 5,
      "note": 42,
      "start": 186.1185,
      "duration": 0.1652,
      "velocity": 113,
      "chip": "ym2612"
    },
    {
      "channel": 2,
      "note": 45,
      "start": 186.3154,
      "duration": 0.1157,
      "velocity": 100,
      "chip": "ym2612"
    },
    {
      "channel": 5,
      "note": 30,
      "start": 186.3171,
      "duration": 0.1652,
      "velocity": 113,
      "chip": "ym2612"
    },
    {
      "channel": 2,
      "note": 45,
      "start": 186.5141,
      "duration": 0.1157,
      "velocity": 101,
      "chip": "ym2612"
    },
    {
      "channel": 5,
      "note": 30,
      "start": 186.5158,
      "duration": 0.1653,
      "velocity": 113,
      "chip": "ym2612"
    },
    {
      "channel": 2,
      "note": 57,
      "start": 186.7127,
      "duration": 0.1157,
      "velocity": 102,
      "chip": "ym2612"
    },
    {
      "channel": 5,
      "note": 42,
      "start": 186.7144,
      "duration": 0.1652,
      "velocity": 113,
      "chip": "ym2612"
    },
    {
      "channel": 2,
      "note": 45,
      "start": 186.9114,
      "duration": 0.1157,
      "velocity": 103,
      "chip": "ym2612"
    },
    {
      "channel": 5,
      "note": 30,
      "start": 186.913,
      "duration": 0.1653,
      "velocity": 113,
      "chip": "ym2612"
    },
    {
      "channel": 2,
      "note": 45,
      "start": 187.11,
      "duration": 0.1157,
      "velocity": 104,
      "chip": "ym2612"
    },
    {
      "channel": 5,
      "note": 30,
      "start": 187.1117,
      "duration": 0.1652,
      "velocity": 113,
      "chip": "ym2612"
    },
    {
      "channel": 2,
      "note": 57,
      "start": 187.3086,
      "duration": 0.1158,
      "velocity": 105,
      "chip": "ym2612"
    },
    {
      "channel": 5,
      "note": 28,
      "start": 187.3103,
      "duration": 0.1653,
      "velocity": 113,
      "chip": "ym2612"
    },
    {
      "channel": 0,
      "note": 31,
      "start": 187.5062,
      "duration": 3.095,
      "velocity": 112,
      "chip": "ym2612"
    },
    {
      "channel": 1,
      "note": 42,
      "start": 187.5069,
      "duration": 3.1775,
      "velocity": 112,
      "chip": "ym2612"
    },
    {
      "channel": 2,
      "note": 47,
      "start": 187.5077,
      "duration": 0.1153,
      "velocity": 106,
      "chip": "ym2612"
    },
    {
      "channel": 3,
      "note": 35,
      "start": 187.5084,
      "duration": 3.1775,
      "velocity": 112,
      "chip": "ym2612"
    },
    {
      "channel": 4,
      "note": 38,
      "start": 187.5091,
      "duration": 3.1775,
      "velocity": 112,
      "chip": "ym2612"
    },
    {
      "channel": 5,
      "note": 19,
      "start": 187.5098,
      "duration": 0.1644,
      "velocity": 113,
      "chip": "ym2612"
    },
    {
      "channel": 2,
      "note": 59,
      "start": 187.7059,
      "duration": 0.1157,
      "velocity": 105,
      "chip": "ym2612"
    },
    {
      "channel": 5,
      "note": 31,
      "start": 187.7076,
      "duration": 0.1652,
      "velocity": 113,
      "chip": "ym2612"
    },
    {
      "channel": 2,
      "note": 47,
      "start": 187.9045,
      "duration": 0.1157,
      "velocity": 104,
      "chip": "ym2612"
    },
    {
      "channel": 5,
      "note": 19,
      "start": 187.9062,
      "duration": 0.1652,
      "velocity": 113,
      "chip": "ym2612"
    },
    {
      "channel": 2,
      "note": 47,
      "start": 188.1031,
      "duration": 0.1158,
      "velocity": 103,
      "chip": "ym2612"
    },
    {
      "channel": 5,
      "note": 19,
      "start": 188.1048,
      "duration": 0.1653,
      "velocity": 113,
      "chip": "ym2612"
    },
    {
      "channel": 2,
      "note": 59,
      "start": 188.3017,
      "duration": 0.1157,
      "velocity": 102,
      "chip": "ym2612"
    },
    {
      "channel": 5,
      "note": 31,
      "start": 188.3035,
      "duration": 0.1652,
      "velocity": 113,
      "chip": "ym2612"
    },
    {
      "channel": 2,
      "note": 47,
      "start": 188.5004,
      "duration": 0.1158,
      "velocity": 101,
      "chip": "ym2612"
    },
    {
      "channel": 5,
      "note": 19,
      "start": 188.5021,
      "duration": 0.1652,
      "velocity": 113,
      "chip": "ym2612"
    },
    {
      "channel": 2,
      "note": 47,
      "start": 188.699,
      "duration": 0.1157,
      "velocity": 100,
      "chip": "ym2612"
    },
    {
      "channel": 5,
      "note": 19,
      "start": 188.7007,
      "duration": 0.1652,
      "velocity": 113,
      "chip": "ym2612"
    },
    {
      "channel": 2,
      "note": 59,
      "start": 188.8976,
      "duration": 0.1157,
      "velocity": 99,
      "chip": "ym2612"
    },
    {
      "channel": 5,
      "note": 31,
      "start": 188.8993,
      "duration": 0.1652,
      "velocity": 113,
      "chip": "ym2612"
    },
    {
      "channel": 2,
      "note": 47,
      "start": 189.0963,
      "duration": 0.1157,
      "velocity": 98,
      "chip": "ym2612"
    },
    {
      "channel": 5,
      "note": 19,
      "start": 189.0979,
      "duration": 0.1653,
      "velocity": 113,
      "chip": "ym2612"
    },
    {
      "channel": 2,
      "note": 59,
      "start": 189.2949,
      "duration": 0.1157,
      "velocity": 99,
      "chip": "ym2612"
    },
    {
      "channel": 5,
      "note": 31,
      "start": 189.2966,
      "duration": 0.1652,
      "velocity": 113,
      "chip": "ym2612"
    },
    {
      "channel": 2,
      "note": 47,
      "start": 189.4935,
      "duration": 0.1157,
      "velocity": 100,
      "chip": "ym2612"
    },
    {
      "channel": 5,
      "note": 19,
      "start": 189.4952,
      "duration": 0.1653,
      "velocity": 113,
      "chip": "ym2612"
    },
    {
      "channel": 2,
      "note": 47,
      "start": 189.6922,
      "duration": 0.1158,
      "velocity": 101,
      "chip": "ym2612"
    },
    {
      "channel": 5,
      "note": 19,
      "start": 189.6939,
      "duration": 0.1653,
      "velocity": 113,
      "chip": "ym2612"
    },
    {
      "channel": 2,
      "note": 59,
      "start": 189.8908,
      "duration": 0.1158,
      "velocity": 102,
      "chip": "ym2612"
    },
    {
      "channel": 5,
      "note": 31,
      "start": 189.8925,
      "duration": 0.1652,
      "velocity": 113,
      "chip": "ym2612"
    },
    {
      "channel": 2,
      "note": 47,
      "start": 190.0895,
      "duration": 0.1156,
      "velocity": 103,
      "chip": "ym2612"
    },
    {
      "channel": 5,
      "note": 19,
      "start": 190.0911,
      "duration": 0.1653,
      "velocity": 113,
      "chip": "ym2612"
    },
    {
      "channel": 2,
      "note": 47,
      "start": 190.2881,
      "duration": 0.1157,
      "velocity": 104,
      "chip": "ym2612"
    },
    {
      "channel": 5,
      "note": 19,
      "start": 190.2898,
      "duration": 0.1652,
      "velocity": 113,
      "chip": "ym2612"
    },
    {
      "channel": 2,
      "note": 59,
      "start": 190.4867,
      "duration": 0.1157,
      "velocity": 105,
      "chip": "ym2612"
    },
    {
      "channel": 5,
      "note": 31,
      "start": 190.4884,
      "duration": 0.1652,
      "velocity": 113,
      "chip": "ym2612"
    },
    {
      "channel": 0,
      "note": 33,
      "start": 190.6842,
      "duration": 3.1776,
      "velocity": 112,
      "chip": "ym2612"
    },
    {
      "channel": 1,
      "note": 37,
      "start": 190.685,
      "duration": 3.1775,
      "velocity": 112,
      "chip": "ym2612"
    },
    {
      "channel": 2,
      "note": 49,
      "start": 190.6857,
      "duration": 0.1153,
      "velocity": 106,
      "chip": "ym2612"
    },
    {
      "channel": 3,
      "note": 35,
      "start": 190.6864,
      "duration": 3.1775,
      "velocity": 112,
      "chip": "ym2612"
    },
    {
      "channel": 4,
      "note": 40,
      "start": 190.6871,
      "duration": 3.1776,
      "velocity": 112,
      "chip": "ym2612"
    },
    {
      "channel": 5,
      "note": 30,
      "start": 190.6878,
      "duration": 0.1645,
      "velocity": 113,
      "chip": "ym2612"
    },
    {
      "channel": 2,
      "note": 61,
      "start": 190.8839,
      "duration": 0.1157,
      "velocity": 105,
      "chip": "ym2612"
    },
    {
      "channel": 5,
      "note": 42,
      "start": 190.8857,
      "duration": 0.1652,
      "velocity": 113,
      "chip": "ym2612"
    },
    {
      "channel": 2,
      "note": 49,
      "start": 191.0825,
      "duration": 0.1158,
      "velocity": 104,
      "chip": "ym2612"
    },
    {
      "channel": 5,
      "note": 30,
      "start": 191.0843,
      "duration": 0.1652,
      "velocity": 113,
      "chip": "ym2612"
    },
    {
      "channel": 2,
      "note": 49,
      "start": 191.2812,
      "duration": 0.1157,
      "velocity": 103,
      "chip": "ym2612"
    },
    {
      "channel": 5,
      "note": 30,
      "start": 191.2829,
      "duration": 0.1652,
      "velocity": 113,
      "chip": "ym2612"
    },
    {
      "channel": 2,
      "note": 61,
      "start": 191.4798,
      "duration": 0.1157,
      "velocity": 102,
      "chip": "ym2612"
    },
    {
      "channel": 5,
      "note": 42,
      "start": 191.4815,
      "duration": 0.1652,
      "velocity": 113,
      "chip": "ym2612"
    },
    {
      "channel": 2,
      "note": 49,
      "start": 191.6785,
      "duration": 0.1157,
      "velocity": 101,
      "chip": "ym2612"
    },
    {
      "channel": 5,
      "note": 30,
      "start": 191.6801,
      "duration": 0.1653,
      "velocity": 113,
      "chip": "ym2612"
    },
    {
      "channel": 2,
      "note": 49,
      "start": 191.8771,
      "duration": 0.1157,
      "velocity": 100,
      "chip": "ym2612"
    },
    {
      "channel": 5,
      "note": 30,
      "start": 191.8788,
      "duration": 0.1652,
      "velocity": 113,
      "chip": "ym2612"
    },
    {
      "channel": 2,
      "note": 61,
      "start": 192.0757,
      "duration": 0.1157,
      "velocity": 99,
      "chip": "ym2612"
    },
    {
      "channel": 5,
      "note": 42,
      "start": 192.0774,
      "duration": 0.1653,
      "velocity": 113,
      "chip": "ym2612"
    },
    {
      "channel": 2,
      "note": 49,
      "start": 192.2744,
      "duration": 0.1157,
      "velocity": 98,
      "chip": "ym2612"
    },
    {
      "channel": 5,
      "note": 30,
      "start": 192.2761,
      "duration": 0.1652,
      "velocity": 113,
      "chip": "ym2612"
    },
    {
      "channel": 2,
      "note": 61,
      "start": 192.473,
      "duration": 0.1157,
      "velocity": 99,
      "chip": "ym2612"
    },
    {
      "channel": 5,
      "note": 42,
      "start": 192.4747,
      "duration": 0.1652,
      "velocity": 113,
      "chip": "ym2612"
    },
    {
      "channel": 2,
      "note": 49,
      "start": 192.6716,
      "duration": 0.1157,
      "velocity": 100,
      "chip": "ym2612"
    },
    {
      "channel": 5,
      "note": 30,
      "start": 192.6734,
      "duration": 0.1651,
      "velocity": 113,
      "chip": "ym2612"
    },
    {
      "channel": 2,
      "note": 49,
      "start": 192.8703,
      "duration": 0.1157,
      "velocity": 101,
      "chip": "ym2612"
    },
    {
      "channel": 5,
      "note": 30,
      "start": 192.8719,
      "duration": 0.1653,
      "velocity": 113,
      "chip": "ym2612"
    },
    {
      "channel": 2,
      "note": 61,
      "start": 193.0689,
      "duration": 0.1157,
      "velocity": 102,
      "chip": "ym2612"
    },
    {
      "channel": 5,
      "note": 42,
      "start": 193.0706,
      "duration": 0.1652,
      "velocity": 113,
      "chip": "ym2612"
    },
    {
      "channel": 2,
      "note": 49,
      "start": 193.2675,
      "duration": 0.1157,
      "velocity": 103,
      "chip": "ym2612"
    },
    {
      "channel": 5,
      "note": 30,
      "start": 193.2692,
      "duration": 0.1653,
      "velocity": 113,
      "chip": "ym2612"
    },
    {
      "channel": 2,
      "note": 49,
      "start": 193.4661,
      "duration": 0.1157,
      "velocity": 104,
      "chip": "ym2612"
    },
    {
      "channel": 5,
      "note": 30,
      "start": 193.4678,
      "duration": 0.1652,
      "velocity": 113,
      "chip": "ym2612"
    },
    {
      "channel": 2,
      "note": 61,
      "start": 193.6648,
      "duration": 0.1157,
      "velocity": 105,
      "chip": "ym2612"
    },
    {
      "channel": 5,
      "note": 28,
      "start": 193.6664,
      "duration": 0.1653,
      "velocity": 113,
      "chip": "ym2612"
    },
    {
      "channel": 0,
      "note": 31,
      "start": 193.8623,
      "duration": 3.0951,
      "velocity": 112,
      "chip": "ym2612"
    },
    {
      "channel": 1,
      "note": 35,
      "start": 193.863,
      "duration": 3.095,
      "velocity": 112,
      "chip": "ym2612"
    },
    {
      "channel": 2,
      "note": 47,
      "start": 193.8638,
      "duration": 0.1153,
      "velocity": 106,
      "chip": "ym2612"
    },
    {
      "channel": 3,
      "note": 33,
      "start": 193.8645,
      "duration": 3.0947,
      "velocity": 112,
      "chip": "ym2612"
    },
    {
      "channel": 4,
      "note": 38,
      "start": 193.8652,
      "duration": 3.1786,
      "velocity": 112,
      "chip": "ym2612"
    },
    {
      "channel": 5,
      "note": 26,
      "start": 193.8659,
      "duration": 0.1644,
      "velocity": 113,
      "chip": "ym2612"
    },
    {
      "channel": 2,
      "note": 59,
      "start": 194.062,
      "duration": 0.1158,
      "velocity": 105,
      "chip": "ym2612"
    },
    {
      "channel": 5,
      "note": 38,
      "start": 194.0637,
      "duration": 0.1652,
      "velocity": 113,
      "chip": "ym2612"
    },
    {
      "channel": 2,
      "note": 47,
      "start": 194.2607,
      "duration": 0.1157,
      "velocity": 104,
      "chip": "ym2612"
    },
    {
      "channel": 5,
      "note": 26,
      "start": 194.2624,
      "duration": 0.1652,
      "velocity": 113,
      "chip": "ym2612"
    },
    {
      "channel": 2,
      "note": 47,
      "start": 194.4593,
      "duration": 0.1157,
      "velocity": 103,
      "chip": "ym2612"
    },
    {
      "channel": 5,
      "note": 26,
      "start": 194.461,
      "duration": 0.1653,
      "velocity": 113,
      "chip": "ym2612"
    },
    {
      "channel": 2,
      "note": 59,
      "start": 194.658,
      "duration": 0.1157,
      "velocity": 102,
      "chip": "ym2612"
    },
    {
      "channel": 5,
      "note": 38,
      "start": 194.6596,
      "duration": 0.1652,
      "velocity": 113,
      "chip": "ym2612"
    },
    {
      "channel": 2,
      "note": 47,
      "start": 194.8566,
      "duration": 0.1156,
      "velocity": 101,
      "chip": "ym2612"
    },
    {
      "channel": 5,
      "note": 26,
      "start": 194.8583,
      "duration": 0.1652,
      "velocity": 113,
      "chip": "ym2612"
    },
    {
      "channel": 2,
      "note": 47,
      "start": 195.0552,
      "duration": 0.1157,
      "velocity": 100,
      "chip": "ym2612"
    },
    {
      "channel": 5,
      "note": 26,
      "start": 195.0569,
      "duration": 0.1652,
      "velocity": 113,
      "chip": "ym2612"
    },
    {
      "channel": 2,
      "note": 59,
      "start": 195.2538,
      "duration": 0.1157,
      "velocity": 99,
      "chip": "ym2612"
    },
    {
      "channel": 5,
      "note": 38,
      "start": 195.2555,
      "duration": 0.1652,
      "velocity": 113,
      "chip": "ym2612"
    },
    {
      "channel": 2,
      "note": 47,
      "start": 195.4524,
      "duration": 0.1157,
      "velocity": 98,
      "chip": "ym2612"
    },
    {
      "channel": 5,
      "note": 26,
      "start": 195.4541,
      "duration": 0.1653,
      "velocity": 113,
      "chip": "ym2612"
    },
    {
      "channel": 2,
      "note": 59,
      "start": 195.651,
      "duration": 0.1157,
      "velocity": 99,
      "chip": "ym2612"
    },
    {
      "channel": 5,
      "note": 38,
      "start": 195.6528,
      "duration": 0.1652,
      "velocity": 113,
      "chip": "ym2612"
    },
    {
      "channel": 2,
      "note": 47,
      "start": 195.8497,
      "duration": 0.1157,
      "velocity": 100,
      "chip": "ym2612"
    },
    {
      "channel": 5,
      "note": 26,
      "start": 195.8514,
      "duration": 0.1653,
      "velocity": 113,
      "chip": "ym2612"
    },
    {
      "channel": 2,
      "note": 47,
      "start": 196.0483,
      "duration": 0.1157,
      "velocity": 101,
      "chip": "ym2612"
    },
    {
      "channel": 5,
      "note": 26,
      "start": 196.05,
      "duration": 0.1652,
      "velocity": 113,
      "chip": "ym2612"
    },
    {
      "channel": 2,
      "note": 59,
      "start": 196.247,
      "duration": 0.1157,
      "velocity": 102,
      "chip": "ym2612"
    },
    {
      "channel": 5,
      "note": 38,
      "start": 196.2486,
      "duration": 0.1653,
      "velocity": 113,
      "chip": "ym2612"
    },
    {
      "channel": 2,
      "note": 47,
      "start": 196.4456,
      "duration": 0.1157,
      "velocity": 103,
      "chip": "ym2612"
    },
    {
      "channel": 5,
      "note": 26,
      "start": 196.4473,
      "duration": 0.1652,
      "velocity": 113,
      "chip": "ym2612"
    },
    {
      "channel": 2,
      "note": 47,
      "start": 196.6442,
      "duration": 0.1158,
      "velocity": 104,
      "chip": "ym2612"
    },
    {
      "channel": 5,
      "note": 26,
      "start": 196.6459,
      "duration": 0.1652,
      "velocity": 113,
      "chip": "ym2612"
    },
    {
      "channel": 2,
      "note": 59,
      "start": 196.8429,
      "duration": 0.1158,
      "velocity": 105,
      "chip": "ym2612"
    },
    {
      "channel": 5,
      "note": 28,
      "start": 196.8446,
      "duration": 0.1652,
      "velocity": 113,
      "chip": "ym2612"
    },
    {
      "channel": 0,
      "note": 30,
      "start": 197.0404,
      "duration": 3.1775,
      "velocity": 112,
      "chip": "ym2612"
    },
    {
      "channel": 1,
      "note": 33,
      "start": 197.0411,
      "duration": 3.1775,
      "velocity": 112,
      "chip": "ym2612"
    },
    {
      "channel": 2,
      "note": 35,
      "start": 197.0424,
      "duration": 0.0155,
      "velocity": 102,
      "chip": "ym2612"
    },
    {
      "channel": 3,
      "note": 23,
      "start": 197.0437,
      "duration": 3.1763,
      "velocity": 124,
      "chip": "ym2612"
    },
    {
      "channel": 4,
      "note": 37,
      "start": 197.0444,
      "duration": 3.1763,
      "velocity": 112,
      "chip": "ym2612"
    },
    {
      "channel": 5,
      "note": 35,
      "start": 197.1429,
      "duration": 0.0159,
      "velocity": 102,
      "chip": "ym2612"
    },
    {
      "channel": 2,
      "note": 36,
      "start": 197.24,
      "duration": 0.0165,
      "velocity": 102,
      "chip": "ym2612"
    },
    {
      "channel": 5,
      "note": 33,
      "start": 197.3409,
      "duration": 0.0164,
      "velocity": 102,
      "chip": "ym2612"
    },
    {
      "channel": 2,
      "note": 40,
      "start": 197.4386,
      "duration": 0.0164,
      "velocity": 102,
      "chip": "ym2612"
    },
    {
      "channel": 5,
      "note": 36,
      "start": 197.5396,
      "duration": 0.0163,
      "velocity": 102,
      "chip": "ym2612"
    },
    {
      "channel": 2,
      "note": 43,
      "start": 197.6373,
      "duration": 0.0164,
      "velocity": 102,
      "chip": "ym2612"
    },
    {
      "channel": 5,
      "note": 40,
      "start": 197.7381,
      "duration": 0.0165,
      "velocity": 102,
      "chip": "ym2612"
    },
    {
      "channel": 2,
      "note": 47,
      "start": 197.8359,
      "duration": 0.0164,
      "velocity": 102,
      "chip": "ym2612"
    },
    {
      "channel": 5,
      "note": 43,
      "start": 197.9368,
      "duration": 0.0164,
      "velocity": 102,
      "chip": "ym2612"
    },
    {
      "channel": 2,
      "note": 48,
      "start": 198.0346,
      "duration": 0.0164,
      "velocity": 102,
      "chip": "ym2612"
    },
    {
      "channel": 5,
      "note": 47,
      "start": 198.1354,
      "duration": 0.0164,
      "velocity": 102,
      "chip": "ym2612"
    },
    {
      "channel": 2,
      "note": 47,
      "start": 198.2332,
      "duration": 0.0164,
      "velocity": 102,
      "chip": "ym2612"
    },
    {
      "channel": 5,
      "note": 48,
      "start": 198.3341,
      "duration": 0.0164,
      "velocity": 102,
      "chip": "ym2612"
    },
    {
      "channel": 2,
      "note": 45,
      "start": 198.4318,
      "duration": 0.0164,
      "velocity": 102,
      "chip": "ym2612"
    },
    {
      "channel": 5,
      "note": 47,
      "start": 198.5327,
      "duration": 0.0164,
      "velocity": 102,
      "chip": "ym2612"
    },
    {
      "channel": 2,
      "note": 43,
      "start": 198.6305,
      "duration": 0.0164,
      "velocity": 102,
      "chip": "ym2612"
    },
    {
      "channel": 5,
      "note": 45,
      "start": 198.7313,
      "duration": 0.0164,
      "velocity": 102,
      "chip": "ym2612"
    },
    {
      "channel": 2,
      "note": 45,
      "start": 198.8291,
      "duration": 0.0164,
      "velocity": 102,
      "chip": "ym2612"
    },
    {
      "channel": 5,
      "note": 43,
      "start": 198.9299,
      "duration": 0.0164,
      "velocity": 102,
      "chip": "ym2612"
    },
    {
      "channel": 2,
      "note": 43,
      "start": 199.0277,
      "duration": 0.0164,
      "velocity": 102,
      "chip": "ym2612"
    },
    {
      "channel": 5,
      "note": 45,
      "start": 199.1286,
      "duration": 0.0164,
      "velocity": 102,
      "chip": "ym2612"
    },
    {
      "channel": 2,
      "note": 40,
      "start": 199.2263,
      "duration": 0.0165,
      "velocity": 102,
      "chip": "ym2612"
    },
    {
      "channel": 5,
      "note": 43,
      "start": 199.3272,
      "duration": 0.0164,
      "velocity": 102,
      "chip": "ym2612"
    },
    {
      "channel": 2,
      "note": 36,
      "start": 199.425,
      "duration": 0.0164,
      "velocity": 102,
      "chip": "ym2612"
    },
    {
      "channel": 5,
      "note": 40,
      "start": 199.5259,
      "duration": 0.0164,
      "velocity": 102,
      "chip": "ym2612"
    },
    {
      "channel": 2,
      "note": 40,
      "start": 199.6236,
      "duration": 0.0164,
      "velocity": 102,
      "chip": "ym2612"
    },
    {
      "channel": 5,
      "note": 36,
      "start": 199.7245,
      "duration": 0.0164,
      "velocity": 102,
      "chip": "ym2612"
    },
    {
      "channel": 2,
      "note": 36,
      "start": 199.8222,
      "duration": 0.0164,
      "velocity": 102,
      "chip": "ym2612"
    },
    {
      "channel": 5,
      "note": 40,
      "start": 199.9231,
      "duration": 0.0164,
      "velocity": 102,
      "chip": "ym2612"
    },
    {
      "channel": 2,
      "note": 35,
      "start": 200.0208,
      "duration": 0.0164,
      "velocity": 102,
      "chip": "ym2612"
    },
    {
      "channel": 5,
      "note": 36,
      "start": 200.1217,
      "duration": 0.0164,
      "velocity": 102,
      "chip": "ym2612"
    },
    {
      "channel": 0,
      "note": 17,
      "start": 200.2185,
      "duration": 0.0032,
      "velocity": 112,
      "chip": "ym2612"
    },
    {
      "channel": 1,
      "note": 33,
      "start": 200.2192,
      "duration": 0.0024,
      "velocity": 112,
      "chip": "ym2612"
    },
    {
      "channel": 2,
      "note": 33,
      "start": 200.2199,
      "duration": 0.0017,
      "velocity": 102,
      "chip": "ym2612"
    },
    {
      "channel": 3,
      "note": 26,
      "start": 200.2205,
      "duration": 0.0011,
      "velocity": 124,
      "chip": "ym2612"
    },
    {
      "channel": 4,
      "note": 36,
      "start": 200.2212,
      "duration": 0.0004,
      "velocity": 112,
      "chip": "ym2612"
    }
  ]
}