{
  "track_name": "02 - The City",
  "duration_sec": 48.594,
  "sample_rate": 44100,
  "note_count": 886,
  "unique_pitches": 32,
  "pitch_range": 50,
  "avg_note_duration": 0.2189,
  "reconstruction_stats": {
    "notes_reconstructed": 886,
    "keyon_events": 886,
    "keyoff_events": 882,
    "orphan_keyons": 4,
    "unique_pitches": 32,
    "pitch_range": 50,
    "avg_duration_sec": 0.2189
  },
  "metadata": {
    "source": "T\\The Incredible Hulk\\02 - The City.vgz"
  },
  "notes": [
    {
      "channel": 0,
      "note": 93,
      "start": 0.0022,
      "duration": 0.1148,
      "velocity": 107,
      "chip": "ym2612"
    },
    {
      "channel": 1,
      "note": 88,
      "start": 0.0044,
      "duration": 0.1132,
      "velocity": 107,
      "chip": "ym2612"
    },
    {
      "channel": 2,
      "note": 57,
      "start": 0.0065,
      "duration": 0.1116,
      "velocity": 117,
      "chip": "ym2612"
    },
    {
      "channel": 0,
      "note": 91,
      "start": 0.1172,
      "duration": 0.2515,
      "velocity": 107,
      "chip": "ym2612"
    },
    {
      "channel": 1,
      "note": 86,
      "start": 0.1178,
      "duration": 0.253,
      "velocity": 107,
      "chip": "ym2612"
    },
    {
      "channel": 2,
      "note": 55,
      "start": 0.1183,
      "duration": 0.2546,
      "velocity": 117,
      "chip": "ym2612"
    },
    {
      "channel": 3,
      "note": 71,
      "start": 0.2573,
      "duration": 0.1161,
      "velocity": 114,
      "chip": "ym2612"
    },
    {
      "channel": 0,
      "note": 88,
      "start": 0.3688,
      "duration": 0.2332,
      "velocity": 107,
      "chip": "ym2612"
    },
    {
      "channel": 1,
      "note": 83,
      "start": 0.371,
      "duration": 0.2331,
      "velocity": 107,
      "chip": "ym2612"
    },
    {
      "channel": 2,
      "note": 52,
      "start": 0.373,
      "duration": 0.2332,
      "velocity": 117,
      "chip": "ym2612"
    },
    {
      "channel": 3,
      "note": 74,
      "start": 0.3736,
      "duration": 0.2347,
      "velocity": 114,
      "chip": "ym2612"
    },
    {
      "channel": 0,
      "note": 86,
      "start": 0.6022,
      "duration": 0.3665,
      "velocity": 107,
      "chip": "ym2612"
    },
    {
      "channel": 1,
      "note": 81,
      "start": 0.6043,
      "duration": 0.3665,
      "velocity": 107,
      "chip": "ym2612"
    },
    {
      "channel": 2,
      "note": 50,
      "start": 0.6064,
      "duration": 0.2475,
      "velocity": 117,
      "chip": "ym2612"
    },
    {
      "channel": 3,
      "note": 74,
      "start": 0.6085,
      "duration": 0.1118,
      "velocity": 114,
      "chip": "ym2612"
    },
    {
      "channel": 3,
      "note": 76,
      "start": 0.7206,
      "duration": 0.2529,
      "velocity": 114,
      "chip": "ym2612"
    },
    {
      "channel": 2,
      "note": 50,
      "start": 0.854,
      "duration": 0.1174,
      "velocity": 117,
      "chip": "ym2612"
    },
    {
      "channel": 0,
      "note": 91,
      "start": 0.9688,
      "duration": 0.1149,
      "velocity": 107,
      "chip": "ym2612"
    },
    {
      "channel": 1,
      "note": 86,
      "start": 0.971,
      "duration": 0.1134,
      "velocity": 107,
      "chip": "ym2612"
    },
    {
      "channel": 2,
      "note": 55,
      "start": 0.9715,
      "duration": 0.1133,
      "velocity": 117,
      "chip": "ym2612"
    },
    {
      "channel": 3,
      "note": 76,
      "start": 0.9736,
      "duration": 0.1118,
      "velocity": 114,
      "chip": "ym2612"
    },
    {
      "channel": 0,
      "note": 88,
      "start": 1.0839,
      "duration": 0.2347,
      "velocity": 107,
      "chip": "ym2612"
    },
    {
      "channel": 1,
      "note": 83,
      "start": 1.0844,
      "duration": 0.2363,
      "velocity": 107,
      "chip": "ym2612"
    },
    {
      "channel": 2,
      "note": 52,
      "start": 1.085,
      "duration": 0.2379,
      "velocity": 117,
      "chip": "ym2612"
    },
    {
      "channel": 3,
      "note": 79,
      "start": 1.0856,
      "duration": 0.2394,
      "velocity": 114,
      "chip": "ym2612"
    },
    {
      "channel": 0,
      "note": 86,
      "start": 1.3188,
      "duration": 0.2498,
      "velocity": 107,
      "chip": "ym2612"
    },
    {
      "channel": 1,
      "note": 81,
      "start": 1.321,
      "duration": 0.2499,
      "velocity": 107,
      "chip": "ym2612"
    },
    {
      "channel": 2,
      "note": 50,
      "start": 1.323,
      "duration": 0.2499,
      "velocity": 117,
      "chip": "ym2612"
    },
    {
      "channel": 3,
      "note": 79,
      "start": 1.3252,
      "duration": 0.1303,
      "velocity": 114,
      "chip": "ym2612"
    },
    {
      "channel": 3,
      "note": 81,
      "start": 1.4557,
      "duration": 0.233,
      "velocity": 114,
      "chip": "ym2612"
    },
    {
      "channel": 0,
      "note": 83,
      "start": 1.5688,
      "duration": 0.3499,
      "velocity": 117,
      "chip": "ym2612"
    },
    {
      "channel": 1,
      "note": 79,
      "start": 1.571,
      "duration": 0.3499,
      "velocity": 114,
      "chip": "ym2612"
    },
    {
      "channel": 2,
      "note": 47,
      "start": 1.5731,
      "duration": 0.2307,
      "velocity": 117,
      "chip": "ym2612"
    },
    {
      "channel": 3,
      "note": 83,
      "start": 1.6888,
      "duration": 0.2363,
      "velocity": 118,
      "chip": "ym2612"
    },
    {
      "channel": 2,
      "note": 47,
      "start": 1.804,
      "duration": 0.119,
      "velocity": 107,
      "chip": "ym2612"
    },
    {
      "channel": 0,
      "note": 50,
      "start": 1.9189,
      "duration": 0.1886,
      "velocity": 117,
      "chip": "ym2612"
    },
    {
      "channel": 1,
      "note": 78,
      "start": 1.921,
      "duration": 0.0464,
      "velocity": 114,
      "chip": "ym2612"
    },
    {
      "channel": 2,
      "note": 91,
      "start": 1.9231,
      "duration": 0.1855,
      "velocity": 107,
      "chip": "ym2612"
    },
    {
      "channel": 3,
      "note": 86,
      "start": 1.9253,
      "duration": 0.0933,
      "velocity": 118,
      "chip": "ym2612"
    },
    {
      "channel": 1,
      "note": 79,
      "start": 1.9676,
      "duration": 0.1405,
      "velocity": 114,
      "chip": "ym2612"
    },
    {
      "channel": 3,
      "note": 86,
      "start": 2.0187,
      "duration": 0.0905,
      "velocity": 118,
      "chip": "ym2612"
    },
    {
      "channel": 0,
      "note": 52,
      "start": 2.1077,
      "duration": 0.1181,
      "velocity": 1,
      "chip": "ym2612"
    },
    {
      "channel": 1,
      "note": 76,
      "start": 2.1082,
      "duration": 0.1197,
      "velocity": 1,
      "chip": "ym2612"
    },
    {
      "channel": 2,
      "note": 88,
      "start": 2.1088,
      "duration": 0.1212,
      "velocity": 1,
      "chip": "ym2612"
    },
    {
      "channel": 3,
      "note": 86,
      "start": 2.1094,
      "duration": 0.1212,
      "velocity": 118,
      "chip": "ym2612"
    },
    {
      "channel": 0,
      "note": 55,
      "start": 2.226,
      "duration": 0.5839,
      "velocity": 117,
      "chip": "ym2612"
    },
    {
      "channel": 1,
      "note": 79,
      "start": 2.2281,
      "duration": 2.7589,
      "velocity": 114,
      "chip": "ym2612"
    },
    {
      "channel": 2,
      "note": 91,
      "start": 2.2302,
      "duration": 2.7589,
      "velocity": 107,
      "chip": "ym2612"
    },
    {
      "channel": 3,
      "note": 86,
      "start": 2.2308,
      "duration": 0.0816,
      "velocity": 118,
      "chip": "ym2612"
    },
    {
      "channel": 3,
      "note": 86,
      "start": 2.3126,
      "duration": 0.0857,
      "velocity": 118,
      "chip": "ym2612"
    },
    {
      "channel": 3,
      "note": 86,
      "start": 2.3985,
      "duration": 0.123,
      "velocity": 118,
      "chip": "ym2612"
    },
    {
      "channel": 3,
      "note": 86,
      "start": 2.5217,
      "duration": 0.1165,
      "velocity": 118,
      "chip": "ym2612"
    },
    {
      "channel": 3,
      "note": 86,
      "start": 2.6384,
      "duration": 0.0859,
      "velocity": 118,
      "chip": "ym2612"
    },
    {
      "channel": 3,
      "note": 86,
      "start": 2.7244,
      "duration": 0.0876,
      "velocity": 118,
      "chip": "ym2612"
    },
    {
      "channel": 0,
      "note": 52,
      "start": 2.8099,
      "duration": 0.1817,
      "velocity": 117,
      "chip": "ym2612"
    },
    {
      "channel": 3,
      "note": 86,
      "start": 2.8122,
      "duration": 0.0832,
      "velocity": 118,
      "chip": "ym2612"
    },
    {
      "channel": 3,
      "note": 86,
      "start": 2.8956,
      "duration": 0.0968,
      "velocity": 118,
      "chip": "ym2612"
    },
    {
      "channel": 0,
      "note": 52,
      "start": 2.9918,
      "duration": 0.179,
      "velocity": 117,
      "chip": "ym2612"
    },
    {
      "channel": 3,
      "note": 86,
      "start": 2.9925,
      "duration": 0.0949,
      "velocity": 118,
      "chip": "ym2612"
    },
    {
      "channel": 3,
      "note": 86,
      "start": 3.0877,
      "duration": 0.0854,
      "velocity": 118,
      "chip": "ym2612"
    },
    {
      "channel": 0,
      "note": 52,
      "start": 3.171,
      "duration": 0.1931,
      "velocity": 117,
      "chip": "ym2612"
    },
    {
      "channel": 3,
      "note": 86,
      "start": 3.1732,
      "duration": 0.1059,
      "velocity": 118,
      "chip": "ym2612"
    },
    {
      "channel": 3,
      "note": 86,
      "start": 3.2793,
      "duration": 0.0854,
      "velocity": 118,
      "chip": "ym2612"
    },
    {
      "channel": 0,
      "note": 52,
      "start": 3.3642,
      "duration": 0.1045,
      "velocity": 117,
      "chip": "ym2612"
    },
    {
      "channel": 3,
      "note": 86,
      "start": 3.3649,
      "duration": 0.106,
      "velocity": 118,
      "chip": "ym2612"
    },
    {
      "channel": 0,
      "note": 50,
      "start": 3.4688,
      "duration": 0.172,
      "velocity": 117,
      "chip": "ym2612"
    },
    {
      "channel": 3,
      "note": 86,
      "start": 3.4711,
      "duration": 0.084,
      "velocity": 118,
      "chip": "ym2612"
    },
    {
      "channel": 3,
      "note": 86,
      "start": 3.5553,
      "duration": 0.0862,
      "velocity": 118,
      "chip": "ym2612"
    },
    {
      "channel": 0,
      "note": 52,
      "start": 3.641,
      "duration": 0.1181,
      "velocity": 1,
      "chip": "ym2612"
    },
    {
      "channel": 3,
      "note": 86,
      "start": 3.6417,
      "duration": 0.1181,
      "velocity": 118,
      "chip": "ym2612"
    },
    {
      "channel": 0,
      "note": 55,
      "start": 3.7592,
      "duration": 0.5825,
      "velocity": 117,
      "chip": "ym2612"
    },
    {
      "channel": 3,
      "note": 86,
      "start": 3.7599,
      "duration": 0.0844,
      "velocity": 118,
      "chip": "ym2612"
    },
    {
      "channel": 3,
      "note": 86,
      "start": 3.8445,
      "duration": 0.0976,
      "velocity": 118,
      "chip": "ym2612"
    },
    {
      "channel": 3,
      "note": 86,
      "start": 3.9423,
      "duration": 0.1113,
      "velocity": 118,
      "chip": "ym2612"
    },
    {
      "channel": 3,
      "note": 86,
      "start": 4.0537,
      "duration": 0.1165,
      "velocity": 118,
      "chip": "ym2612"
    },
    {
      "channel": 3,
      "note": 86,
      "start": 4.1705,
      "duration": 0.0856,
      "velocity": 118,
      "chip": "ym2612"
    },
    {
      "channel": 3,
      "note": 86,
      "start": 4.2563,
      "duration": 0.0877,
      "velocity": 118,
      "chip": "ym2612"
    },
    {
      "channel": 0,
      "note": 52,
      "start": 4.3419,
      "duration": 0.1814,
      "velocity": 117,
      "chip": "ym2612"
    },
    {
      "channel": 3,
      "note": 86,
      "start": 4.3442,
      "duration": 0.0954,
      "velocity": 118,
      "chip": "ym2612"
    },
    {
      "channel": 3,
      "note": 86,
      "start": 4.4398,
      "duration": 0.0843,
      "velocity": 118,
      "chip": "ym2612"
    },
    {
      "channel": 0,
      "note": 52,
      "start": 4.5235,
      "duration": 0.1729,
      "velocity": 117,
      "chip": "ym2612"
    },
    {
      "channel": 3,
      "note": 86,
      "start": 4.5242,
      "duration": 0.0887,
      "velocity": 118,
      "chip": "ym2612"
    },
    {
      "channel": 3,
      "note": 86,
      "start": 4.6131,
      "duration": 0.0855,
      "velocity": 118,
      "chip": "ym2612"
    },
    {
      "channel": 0,
      "note": 52,
      "start": 4.6966,
      "duration": 0.2047,
      "velocity": 117,
      "chip": "ym2612"
    },
    {
      "channel": 3,
      "note": 86,
      "start": 4.6988,
      "duration": 0.1052,
      "velocity": 118,
      "chip": "ym2612"
    },
    {
      "channel": 3,
      "note": 86,
      "start": 4.8042,
      "duration": 0.0976,
      "velocity": 118,
      "chip": "ym2612"
    },
    {
      "channel": 0,
      "note": 52,
      "start": 4.9013,
      "duration": 0.0836,
      "velocity": 117,
      "chip": "ym2612"
    },
    {
      "channel": 3,
      "note": 86,
      "start": 4.902,
      "duration": 0.0892,
      "velocity": 118,
      "chip": "ym2612"
    },
    {
      "channel": 0,
      "note": 50,
      "start": 4.9851,
      "duration": 0.1734,
      "velocity": 117,
      "chip": "ym2612"
    },
    {
      "channel": 1,
      "note": 78,
      "start": 4.9872,
      "duration": 0.0354,
      "velocity": 114,
      "chip": "ym2612"
    },
    {
      "channel": 2,
      "note": 91,
      "start": 4.9893,
      "duration": 0.1703,
      "velocity": 107,
      "chip": "ym2612"
    },
    {
      "channel": 3,
      "note": 86,
      "start": 4.9915,
      "duration": 0.0822,
      "velocity": 118,
      "chip": "ym2612"
    },
    {
      "channel": 1,
      "note": 79,
      "start": 5.0228,
      "duration": 0.1363,
      "velocity": 114,
      "chip": "ym2612"
    },
    {
      "channel": 3,
      "note": 86,
      "start": 5.0738,
      "duration": 0.0864,
      "velocity": 118,
      "chip": "ym2612"
    },
    {
      "channel": 0,
      "note": 52,
      "start": 5.1587,
      "duration": 0.1181,
      "velocity": 1,
      "chip": "ym2612"
    },
    {
      "channel": 1,
      "note": 76,
      "start": 5.1592,
      "duration": 0.1197,
      "velocity": 1,
      "chip": "ym2612"
    },
    {
      "channel": 2,
      "note": 88,
      "start": 5.1598,
      "duration": 0.1212,
      "velocity": 1,
      "chip": "ym2612"
    },
    {
      "channel": 3,
      "note": 86,
      "start": 5.1603,
      "duration": 0.1212,
      "velocity": 118,
      "chip": "ym2612"
    },
    {
      "channel": 0,
      "note": 55,
      "start": 5.2769,
      "duration": 0.5914,
      "velocity": 117,
      "chip": "ym2612"
    },
    {
      "channel": 1,
      "note": 79,
      "start": 5.279,
      "duration": 2.7537,
      "velocity": 114,
      "chip": "ym2612"
    },
    {
      "channel": 2,
      "note": 91,
      "start": 5.2812,
      "duration": 2.7537,
      "velocity": 107,
      "chip": "ym2612"
    },
    {
      "channel": 3,
      "note": 86,
      "start": 5.2817,
      "duration": 0.0941,
      "velocity": 118,
      "chip": "ym2612"
    },
    {
      "channel": 3,
      "note": 86,
      "start": 5.3761,
      "duration": 0.0856,
      "velocity": 118,
      "chip": "ym2612"
    },
    {
      "channel": 3,
      "note": 86,
      "start": 5.4618,
      "duration": 0.1061,
      "velocity": 118,
      "chip": "ym2612"
    },
    {
      "channel": 3,
      "note": 86,
      "start": 5.5681,
      "duration": 0.1165,
      "velocity": 118,
      "chip": "ym2612"
    },
    {
      "channel": 3,
      "note": 86,
      "start": 5.6849,
      "duration": 0.0857,
      "velocity": 118,
      "chip": "ym2612"
    },
    {
      "channel": 3,
      "note": 86,
      "start": 5.7707,
      "duration": 0.0998,
      "velocity": 118,
      "chip": "ym2612"
    },
    {
      "channel": 0,
      "note": 52,
      "start": 5.8684,
      "duration": 0.1683,
      "velocity": 117,
      "chip": "ym2612"
    },
    {
      "channel": 3,
      "note": 86,
      "start": 5.8707,
      "duration": 0.0828,
      "velocity": 118,
      "chip": "ym2612"
    },
    {
      "channel": 3,
      "note": 86,
      "start": 5.9536,
      "duration": 0.0837,
      "velocity": 118,
      "chip": "ym2612"
    },
    {
      "channel": 0,
      "note": 52,
      "start": 6.0368,
      "duration": 0.173,
      "velocity": 117,
      "chip": "ym2612"
    },
    {
      "channel": 3,
      "note": 86,
      "start": 6.0376,
      "duration": 0.0893,
      "velocity": 118,
      "chip": "ym2612"
    },
    {
      "channel": 3,
      "note": 86,
      "start": 6.127,
      "duration": 0.0851,
      "velocity": 118,
      "chip": "ym2612"
    },
    {
      "channel": 0,
      "note": 52,
      "start": 6.21,
      "duration": 0.2096,
      "velocity": 117,
      "chip": "ym2612"
    },
    {
      "channel": 3,
      "note": 86,
      "start": 6.2123,
      "duration": 0.1224,
      "velocity": 118,
      "chip": "ym2612"
    },
    {
      "channel": 3,
      "note": 86,
      "start": 6.3349,
      "duration": 0.0854,
      "velocity": 118,
      "chip": "ym2612"
    },
    {
      "channel": 0,
      "note": 52,
      "start": 6.4198,
      "duration": 0.0878,
      "velocity": 117,
      "chip": "ym2612"
    },
    {
      "channel": 3,
      "note": 86,
      "start": 6.4205,
      "duration": 0.0894,
      "velocity": 118,
      "chip": "ym2612"
    },
    {
      "channel": 0,
      "note": 50,
      "start": 6.5078,
      "duration": 0.1717,
      "velocity": 117,
      "chip": "ym2612"
    },
    {
      "channel": 3,
      "note": 86,
      "start": 6.51,
      "duration": 0.0841,
      "velocity": 118,
      "chip": "ym2612"
    },
    {
      "channel": 3,
      "note": 86,
      "start": 6.5944,
      "duration": 0.0858,
      "velocity": 118,
      "chip": "ym2612"
    },
    {
      "channel": 0,
      "note": 52,
      "start": 6.6797,
      "duration": 0.1347,
      "velocity": 1,
      "chip": "ym2612"
    },
    {
      "channel": 3,
      "note": 86,
      "start": 6.6804,
      "duration": 0.1347,
      "velocity": 118,
      "chip": "ym2612"
    },
    {
      "channel": 0,
      "note": 55,
      "start": 6.8146,
      "duration": 0.5784,
      "velocity": 117,
      "chip": "ym2612"
    },
    {
      "channel": 3,
      "note": 86,
      "start": 6.8153,
      "duration": 0.0843,
      "velocity": 118,
      "chip": "ym2612"
    },
    {
      "channel": 3,
      "note": 86,
      "start": 6.8998,
      "duration": 0.0852,
      "velocity": 118,
      "chip": "ym2612"
    },
    {
      "channel": 3,
      "note": 86,
      "start": 6.9852,
      "duration": 0.1067,
      "velocity": 118,
      "chip": "ym2612"
    },
    {
      "channel": 3,
      "note": 86,
      "start": 7.0921,
      "duration": 0.1165,
      "velocity": 118,
      "chip": "ym2612"
    },
    {
      "channel": 3,
      "note": 86,
      "start": 7.2088,
      "duration": 0.0986,
      "velocity": 118,
      "chip": "ym2612"
    },
    {
      "channel": 3,
      "note": 86,
      "start": 7.3076,
      "duration": 0.0876,
      "velocity": 118,
      "chip": "ym2612"
    },
    {
      "channel": 0,
      "note": 52,
      "start": 7.3931,
      "duration": 0.1696,
      "velocity": 117,
      "chip": "ym2612"
    },
    {
      "channel": 3,
      "note": 86,
      "start": 7.3954,
      "duration": 0.0832,
      "velocity": 118,
      "chip": "ym2612"
    },
    {
      "channel": 3,
      "note": 86,
      "start": 7.4787,
      "duration": 0.0847,
      "velocity": 118,
      "chip": "ym2612"
    },
    {
      "channel": 0,
      "note": 52,
      "start": 7.5629,
      "duration": 0.1861,
      "velocity": 117,
      "chip": "ym2612"
    },
    {
      "channel": 3,
      "note": 86,
      "start": 7.5636,
      "duration": 0.0898,
      "velocity": 118,
      "chip": "ym2612"
    },
    {
      "channel": 3,
      "note": 86,
      "start": 7.6536,
      "duration": 0.0976,
      "velocity": 118,
      "chip": "ym2612"
    },
    {
      "channel": 0,
      "note": 52,
      "start": 7.7491,
      "duration": 0.1977,
      "velocity": 117,
      "chip": "ym2612"
    },
    {
      "channel": 3,
      "note": 86,
      "start": 7.7514,
      "duration": 0.1106,
      "velocity": 118,
      "chip": "ym2612"
    },
    {
      "channel": 3,
      "note": 86,
      "start": 7.8622,
      "duration": 0.0853,
      "velocity": 118,
      "chip": "ym2612"
    },
    {
      "channel": 0,
      "note": 52,
      "start": 7.947,
      "duration": 0.0836,
      "velocity": 117,
      "chip": "ym2612"
    },
    {
      "channel": 3,
      "note": 86,
      "start": 7.9477,
      "duration": 0.0893,
      "velocity": 118,
      "chip": "ym2612"
    },
    {
      "channel": 0,
      "note": 50,
      "start": 8.0307,
      "duration": 0.1973,
      "velocity": 117,
      "chip": "ym2612"
    },
    {
      "channel": 1,
      "note": 78,
      "start": 8.0329,
      "duration": 0.0484,
      "velocity": 114,
      "chip": "ym2612"
    },
    {
      "channel": 2,
      "note": 91,
      "start": 8.035,
      "duration": 0.1941,
      "velocity": 107,
      "chip": "ym2612"
    },
    {
      "channel": 3,
      "note": 86,
      "start": 8.0371,
      "duration": 0.0827,
      "velocity": 118,
      "chip": "ym2612"
    },
    {
      "channel": 1,
      "note": 79,
      "start": 8.0815,
      "duration": 0.1471,
      "velocity": 114,
      "chip": "ym2612"
    },
    {
      "channel": 3,
      "note": 86,
      "start": 8.12,
      "duration": 0.1097,
      "velocity": 118,
      "chip": "ym2612"
    },
    {
      "channel": 0,
      "note": 52,
      "start": 8.2282,
      "duration": 0.1181,
      "velocity": 1,
      "chip": "ym2612"
    },
    {
      "channel": 1,
      "note": 76,
      "start": 8.2287,
      "duration": 0.1197,
      "velocity": 1,
      "chip": "ym2612"
    },
    {
      "channel": 2,
      "note": 88,
      "start": 8.2293,
      "duration": 0.1212,
      "velocity": 1,
      "chip": "ym2612"
    },
    {
      "channel": 3,
      "note": 86,
      "start": 8.2299,
      "duration": 0.1212,
      "velocity": 118,
      "chip": "ym2612"
    },
    {
      "channel": 0,
      "note": 55,
      "start": 8.3465,
      "duration": 0.5783,
      "velocity": 117,
      "chip": "ym2612"
    },
    {
      "channel": 1,
      "note": 79,
      "start": 8.3487,
      "duration": 2.753,
      "velocity": 114,
      "chip": "ym2612"
    },
    {
      "channel": 2,
      "note": 91,
      "start": 8.3507,
      "duration": 2.753,
      "velocity": 107,
      "chip": "ym2612"
    },
    {
      "channel": 3,
      "note": 86,
      "start": 8.3513,
      "duration": 0.0806,
      "velocity": 118,
      "chip": "ym2612"
    },
    {
      "channel": 3,
      "note": 86,
      "start": 8.4321,
      "duration": 0.0862,
      "velocity": 118,
      "chip": "ym2612"
    },
    {
      "channel": 3,
      "note": 86,
      "start": 8.5185,
      "duration": 0.1017,
      "velocity": 118,
      "chip": "ym2612"
    },
    {
      "channel": 3,
      "note": 86,
      "start": 8.6205,
      "duration": 0.1331,
      "velocity": 118,
      "chip": "ym2612"
    },
    {
      "channel": 3,
      "note": 86,
      "start": 8.7538,
      "duration": 0.0858,
      "velocity": 118,
      "chip": "ym2612"
    },
    {
      "channel": 3,
      "note": 86,
      "start": 8.8398,
      "duration": 0.0873,
      "velocity": 118,
      "chip": "ym2612"
    },
    {
      "channel": 0,
      "note": 52,
      "start": 8.925,
      "duration": 0.1695,
      "velocity": 117,
      "chip": "ym2612"
    },
    {
      "channel": 3,
      "note": 86,
      "start": 8.9273,
      "duration": 0.0827,
      "velocity": 118,
      "chip": "ym2612"
    },
    {
      "channel": 3,
      "note": 86,
      "start": 9.0101,
      "duration": 0.0851,
      "velocity": 118,
      "chip": "ym2612"
    },
    {
      "channel": 0,
      "note": 52,
      "start": 9.0947,
      "duration": 0.1902,
      "velocity": 117,
      "chip": "ym2612"
    },
    {
      "channel": 3,
      "note": 86,
      "start": 9.0954,
      "duration": 0.1055,
      "velocity": 118,
      "chip": "ym2612"
    },
    {
      "channel": 3,
      "note": 86,
      "start": 9.201,
      "duration": 0.0861,
      "velocity": 118,
      "chip": "ym2612"
    },
    {
      "channel": 0,
      "note": 52,
      "start": 9.285,
      "duration": 0.1868,
      "velocity": 117,
      "chip": "ym2612"
    },
    {
      "channel": 3,
      "note": 86,
      "start": 9.2873,
      "duration": 0.1006,
      "velocity": 118,
      "chip": "ym2612"
    },
    {
      "channel": 3,
      "note": 86,
      "start": 9.3882,
      "duration": 0.0843,
      "velocity": 118,
      "chip": "ym2612"
    },
    {
      "channel": 0,
      "note": 52,
      "start": 9.472,
      "duration": 0.0878,
      "velocity": 117,
      "chip": "ym2612"
    },
    {
      "channel": 3,
      "note": 86,
      "start": 9.4727,
      "duration": 0.0894,
      "velocity": 118,
      "chip": "ym2612"
    },
    {
      "channel": 0,
      "note": 50,
      "start": 9.5599,
      "duration": 0.1975,
      "velocity": 117,
      "chip": "ym2612"
    },
    {
      "channel": 3,
      "note": 86,
      "start": 9.5622,
      "duration": 0.098,
      "velocity": 118,
      "chip": "ym2612"
    },
    {
      "channel": 3,
      "note": 86,
      "start": 9.6604,
      "duration": 0.0977,
      "velocity": 118,
      "chip": "ym2612"
    },
    {
      "channel": 0,
      "note": 52,
      "start": 9.7576,
      "duration": 0.1181,
      "velocity": 1,
      "chip": "ym2612"
    },
    {
      "channel": 3,
      "note": 86,
      "start": 9.7583,
      "duration": 0.1181,
      "velocity": 118,
      "chip": "ym2612"
    },
    {
      "channel": 0,
      "note": 55,
      "start": 9.8759,
      "duration": 0.5776,
      "velocity": 117,
      "chip": "ym2612"
    },
    {
      "channel": 3,
      "note": 86,
      "start": 9.8766,
      "duration": 0.0845,
      "velocity": 118,
      "chip": "ym2612"
    },
    {
      "channel": 3,
      "note": 86,
      "start": 9.9612,
      "duration": 0.085,
      "velocity": 118,
      "chip": "ym2612"
    },
    {
      "channel": 3,
      "note": 86,
      "start": 10.0464,
      "duration": 0.1188,
      "velocity": 118,
      "chip": "ym2612"
    },
    {
      "channel": 3,
      "note": 86,
      "start": 10.1654,
      "duration": 0.1165,
      "velocity": 118,
      "chip": "ym2612"
    },
    {
      "channel": 3,
      "note": 86,
      "start": 10.2821,
      "duration": 0.0859,
      "velocity": 118,
      "chip": "ym2612"
    },
    {
      "channel": 3,
      "note": 86,
      "start": 10.3682,
      "duration": 0.0875,
      "velocity": 118,
      "chip": "ym2612"
    },
    {
      "channel": 0,
      "note": 52,
      "start": 10.4535,
      "duration": 0.1817,
      "velocity": 117,
      "chip": "ym2612"
    },
    {
      "channel": 3,
      "note": 86,
      "start": 10.4558,
      "duration": 0.0832,
      "velocity": 118,
      "chip": "ym2612"
    },
    {
      "channel": 3,
      "note": 86,
      "start": 10.5392,
      "duration": 0.0968,
      "velocity": 118,
      "chip": "ym2612"
    },
    {
      "channel": 0,
      "note": 52,
      "start": 10.6354,
      "duration": 0.18,
      "velocity": 117,
      "chip": "ym2612"
    },
    {
      "channel": 3,
      "note": 86,
      "start": 10.6361,
      "duration": 0.0949,
      "velocity": 118,
      "chip": "ym2612"
    },
    {
      "channel": 3,
      "note": 86,
      "start": 10.7313,
      "duration": 0.0863,
      "velocity": 118,
      "chip": "ym2612"
    },
    {
      "channel": 0,
      "note": 52,
      "start": 10.8155,
      "duration": 0.1877,
      "velocity": 117,
      "chip": "ym2612"
    },
    {
      "channel": 3,
      "note": 86,
      "start": 10.8178,
      "duration": 0.1014,
      "velocity": 118,
      "chip": "ym2612"
    },
    {
      "channel": 3,
      "note": 86,
      "start": 10.9193,
      "duration": 0.0846,
      "velocity": 118,
      "chip": "ym2612"
    },
    {
      "channel": 0,
      "note": 52,
      "start": 11.0034,
      "duration": 0.0961,
      "velocity": 117,
      "chip": "ym2612"
    },
    {
      "channel": 3,
      "note": 86,
      "start": 11.0041,
      "duration": 0.1017,
      "velocity": 118,
      "chip": "ym2612"
    },
    {
      "channel": 0,
      "note": 50,
      "start": 11.0997,
      "duration": 0.1806,
      "velocity": 117,
      "chip": "ym2612"
    },
    {
      "channel": 1,
      "note": 78,
      "start": 11.1017,
      "duration": 0.0367,
      "velocity": 114,
      "chip": "ym2612"
    },
    {
      "channel": 2,
      "note": 91,
      "start": 11.1039,
      "duration": 0.1774,
      "velocity": 107,
      "chip": "ym2612"
    },
    {
      "channel": 3,
      "note": 86,
      "start": 11.106,
      "duration": 0.0828,
      "velocity": 118,
      "chip": "ym2612"
    },
    {
      "channel": 1,
      "note": 79,
      "start": 11.1386,
      "duration": 0.1422,
      "velocity": 114,
      "chip": "ym2612"
    },
    {
      "channel": 3,
      "note": 86,
      "start": 11.189,
      "duration": 0.0929,
      "velocity": 118,
      "chip": "ym2612"
    },
    {
      "channel": 0,
      "note": 52,
      "start": 11.2805,
      "duration": 0.1181,
      "velocity": 1,
      "chip": "ym2612"
    },
    {
      "channel": 1,
      "note": 76,
      "start": 11.281,
      "duration": 0.1197,
      "velocity": 1,
      "chip": "ym2612"
    },
    {
      "channel": 2,
      "note": 88,
      "start": 11.2815,
      "duration": 0.1212,
      "velocity": 1,
      "chip": "ym2612"
    },
    {
      "channel": 3,
      "note": 86,
      "start": 11.2821,
      "duration": 0.1212,
      "velocity": 118,
      "chip": "ym2612"
    },
    {
      "channel": 0,
      "note": 55,
      "start": 11.3987,
      "duration": 0.5784,
      "velocity": 117,
      "chip": "ym2612"
    },
    {
      "channel": 1,
      "note": 79,
      "start": 11.4009,
      "duration": 3.1442,
      "velocity": 110,
      "chip": "ym2612"
    },
    {
      "channel": 2,
      "note": 91,
      "start": 11.403,
      "duration": 2.7435,
      "velocity": 107,
      "chip": "ym2612"
    },
    {
      "channel": 3,
      "note": 86,
      "start": 11.4035,
      "duration": 0.08,
      "velocity": 118,
      "chip": "ym2612"
    },
    {
      "channel": 3,
      "note": 86,
      "start": 11.4837,
      "duration": 0.0987,
      "velocity": 118,
      "chip": "ym2612"
    },
    {
      "channel": 3,
      "note": 86,
      "start": 11.5827,
      "duration": 0.1068,
      "velocity": 118,
      "chip": "ym2612"
    },
    {
      "channel": 3,
      "note": 86,
      "start": 11.6897,
      "duration": 0.1165,
      "velocity": 118,
      "chip": "ym2612"
    },
    {
      "channel": 3,
      "note": 86,
      "start": 11.8063,
      "duration": 0.0856,
      "velocity": 118,
      "chip": "ym2612"
    },
    {
      "channel": 3,
      "note": 86,
      "start": 11.8921,
      "duration": 0.0873,
      "velocity": 118,
      "chip": "ym2612"
    },
    {
      "channel": 0,
      "note": 52,
      "start": 11.9773,
      "duration": 0.1818,
      "velocity": 117,
      "chip": "ym2612"
    },
    {
      "channel": 3,
      "note": 86,
      "start": 11.9796,
      "duration": 0.095,
      "velocity": 118,
      "chip": "ym2612"
    },
    {
      "channel": 3,
      "note": 86,
      "start": 12.0747,
      "duration": 0.085,
      "velocity": 118,
      "chip": "ym2612"
    },
    {
      "channel": 0,
      "note": 52,
      "start": 12.1592,
      "duration": 0.1746,
      "velocity": 117,
      "chip": "ym2612"
    },
    {
      "channel": 3,
      "note": 86,
      "start": 12.1599,
      "duration": 0.0891,
      "velocity": 118,
      "chip": "ym2612"
    },
    {
      "channel": 3,
      "note": 86,
      "start": 12.2492,
      "duration": 0.0869,
      "velocity": 118,
      "chip": "ym2612"
    },
    {
      "channel": 0,
      "note": 52,
      "start": 12.3339,
      "duration": 0.199,
      "velocity": 117,
      "chip": "ym2612"
    },
    {
      "channel": 3,
      "note": 86,
      "start": 12.3362,
      "duration": 0.1006,
      "velocity": 118,
      "chip": "ym2612"
    },
    {
      "channel": 3,
      "note": 86,
      "start": 12.437,
      "duration": 0.0966,
      "velocity": 118,
      "chip": "ym2612"
    },
    {
      "channel": 0,
      "note": 52,
      "start": 12.533,
      "duration": 0.0923,
      "velocity": 117,
      "chip": "ym2612"
    },
    {
      "channel": 3,
      "note": 86,
      "start": 12.5337,
      "duration": 0.0938,
      "velocity": 118,
      "chip": "ym2612"
    },
    {
      "channel": 0,
      "note": 50,
      "start": 12.6254,
      "duration": 0.1813,
      "velocity": 117,
      "chip": "ym2612"
    },
    {
      "channel": 3,
      "note": 86,
      "start": 12.6277,
      "duration": 0.0859,
      "velocity": 118,
      "chip": "ym2612"
    },
    {
      "channel": 3,
      "note": 86,
      "start": 12.7139,
      "duration": 0.0936,
      "velocity": 118,
      "chip": "ym2612"
    },
    {
      "channel": 0,
      "note": 52,
      "start": 12.8069,
      "duration": 0.1181,
      "velocity": 1,
      "chip": "ym2612"
    },
    {
      "channel": 3,
      "note": 86,
      "start": 12.8076,
      "duration": 0.1181,
      "velocity": 118,
      "chip": "ym2612"
    },
    {
      "channel": 0,
      "note": 55,
      "start": 12.9251,
      "duration": 0.5854,
      "velocity": 117,
      "chip": "ym2612"
    },
    {
      "channel": 3,
      "note": 86,
      "start": 12.9259,
      "duration": 0.0963,
      "velocity": 118,
      "chip": "ym2612"
    },
    {
      "channel": 3,
      "note": 86,
      "start": 13.0224,
      "duration": 0.0854,
      "velocity": 118,
      "chip": "ym2612"
    },
    {
      "channel": 3,
      "note": 86,
      "start": 13.108,
      "duration": 0.1014,
      "velocity": 118,
      "chip": "ym2612"
    },
    {
      "channel": 3,
      "note": 86,
      "start": 13.2096,
      "duration": 0.1165,
      "velocity": 118,
      "chip": "ym2612"
    },
    {
      "channel": 3,
      "note": 86,
      "start": 13.3263,
      "duration": 0.086,
      "velocity": 118,
      "chip": "ym2612"
    },
    {
      "channel": 3,
      "note": 86,
      "start": 13.4125,
      "duration": 0.1002,
      "velocity": 118,
      "chip": "ym2612"
    },
    {
      "channel": 0,
      "note": 52,
      "start": 13.5107,
      "duration": 0.1702,
      "velocity": 117,
      "chip": "ym2612"
    },
    {
      "channel": 3,
      "note": 86,
      "start": 13.5129,
      "duration": 0.084,
      "velocity": 118,
      "chip": "ym2612"
    },
    {
      "channel": 3,
      "note": 86,
      "start": 13.597,
      "duration": 0.0845,
      "velocity": 118,
      "chip": "ym2612"
    },
    {
      "channel": 0,
      "note": 52,
      "start": 13.681,
      "duration": 0.1744,
      "velocity": 117,
      "chip": "ym2612"
    },
    {
      "channel": 3,
      "note": 86,
      "start": 13.6817,
      "duration": 0.0893,
      "velocity": 118,
      "chip": "ym2612"
    },
    {
      "channel": 3,
      "note": 86,
      "start": 13.7712,
      "duration": 0.0865,
      "velocity": 118,
      "chip": "ym2612"
    },
    {
      "channel": 0,
      "note": 52,
      "start": 13.8556,
      "duration": 0.205,
      "velocity": 117,
      "chip": "ym2612"
    },
    {
      "channel": 3,
      "note": 86,
      "start": 13.8578,
      "duration": 0.1175,
      "velocity": 118,
      "chip": "ym2612"
    },
    {
      "channel": 3,
      "note": 86,
      "start": 13.9755,
      "duration": 0.0857,
      "velocity": 118,
      "chip": "ym2612"
    },
    {
      "channel": 0,
      "note": 52,
      "start": 14.0607,
      "duration": 0.0836,
      "velocity": 117,
      "chip": "ym2612"
    },
    {
      "channel": 3,
      "note": 86,
      "start": 14.0614,
      "duration": 0.0872,
      "velocity": 118,
      "chip": "ym2612"
    },
    {
      "channel": 0,
      "note": 52,
      "start": 14.1445,
      "duration": 0.315,
      "velocity": 117,
      "chip": "ym2612"
    },
    {
      "channel": 2,
      "note": 52,
      "start": 14.1467,
      "duration": 6.338,
      "velocity": 107,
      "chip": "ym2612"
    },
    {
      "channel": 3,
      "note": 86,
      "start": 14.1488,
      "duration": 0.0841,
      "velocity": 118,
      "chip": "ym2612"
    },
    {
      "channel": 3,
      "note": 86,
      "start": 14.2331,
      "duration": 0.0933,
      "velocity": 118,
      "chip": "ym2612"
    },
    {
      "channel": 3,
      "note": 86,
      "start": 14.3266,
      "duration": 0.1336,
      "velocity": 118,
      "chip": "ym2612"
    },
    {
      "channel": 0,
      "note": 52,
      "start": 14.4597,
      "duration": 0.0832,
      "velocity": 117,
      "chip": "ym2612"
    },
    {
      "channel": 3,
      "note": 86,
      "start": 14.4604,
      "duration": 0.0868,
      "velocity": 118,
      "chip": "ym2612"
    },
    {
      "channel": 0,
      "note": 64,
      "start": 14.5431,
      "duration": 0.1902,
      "velocity": 117,
      "chip": "ym2612"
    },
    {
      "channel": 1,
      "note": 74,
      "start": 14.5452,
      "duration": 0.0851,
      "velocity": 110,
      "chip": "ym2612"
    },
    {
      "channel": 3,
      "note": 86,
      "start": 14.5474,
      "duration": 0.0852,
      "velocity": 118,
      "chip": "ym2612"
    },
    {
      "channel": 1,
      "note": 76,
      "start": 14.6306,
      "duration": 0.2215,
      "velocity": 110,
      "chip": "ym2612"
    },
    {
      "channel": 3,
      "note": 86,
      "start": 14.6328,
      "duration": 0.1028,
      "velocity": 118,
      "chip": "ym2612"
    },
    {
      "channel": 0,
      "note": 59,
      "start": 14.7334,
      "duration": 0.1166,
      "velocity": 117,
      "chip": "ym2612"
    },
    {
      "channel": 3,
      "note": 86,
      "start": 14.7357,
      "duration": 0.1169,
      "velocity": 118,
      "chip": "ym2612"
    },
    {
      "channel": 0,
      "note": 62,
      "start": 14.8501,
      "duration": 0.1864,
      "velocity": 117,
      "chip": "ym2612"
    },
    {
      "channel": 1,
      "note": 79,
      "start": 14.8522,
      "duration": 0.1864,
      "velocity": 110,
      "chip": "ym2612"
    },
    {
      "channel": 3,
      "note": 86,
      "start": 14.8529,
      "duration": 0.1002,
      "velocity": 118,
      "chip": "ym2612"
    },
    {
      "channel": 3,
      "note": 86,
      "start": 14.9533,
      "duration": 0.0876,
      "velocity": 118,
      "chip": "ym2612"
    },
    {
      "channel": 0,
      "note": 62,
      "start": 15.0367,
      "duration": 0.1715,
      "velocity": 117,
      "chip": "ym2612"
    },
    {
      "channel": 1,
      "note": 81,
      "start": 15.0388,
      "duration": 0.1716,
      "velocity": 110,
      "chip": "ym2612"
    },
    {
      "channel": 3,
      "note": 86,
      "start": 15.0411,
      "duration": 0.0837,
      "velocity": 118,
      "chip": "ym2612"
    },
    {
      "channel": 3,
      "note": 86,
      "start": 15.125,
      "duration": 0.086,
      "velocity": 118,
      "chip": "ym2612"
    },
    {
      "channel": 0,
      "note": 55,
      "start": 15.2084,
      "duration": 0.0869,
      "velocity": 117,
      "chip": "ym2612"
    },
    {
      "channel": 1,
      "note": 79,
      "start": 15.2105,
      "duration": 0.0853,
      "velocity": 110,
      "chip": "ym2612"
    },
    {
      "channel": 3,
      "note": 86,
      "start": 15.2112,
      "duration": 0.0868,
      "velocity": 118,
      "chip": "ym2612"
    },
    {
      "channel": 0,
      "note": 57,
      "start": 15.2955,
      "duration": 0.2064,
      "velocity": 117,
      "chip": "ym2612"
    },
    {
      "channel": 1,
      "note": 82,
      "start": 15.296,
      "duration": 0.0492,
      "velocity": 110,
      "chip": "ym2612"
    },
    {
      "channel": 3,
      "note": 86,
      "start": 15.2982,
      "duration": 0.098,
      "velocity": 118,
      "chip": "ym2612"
    },
    {
      "channel": 1,
      "note": 83,
      "start": 15.3454,
      "duration": 0.1571,
      "velocity": 110,
      "chip": "ym2612"
    },
    {
      "channel": 3,
      "note": 86,
      "start": 15.3965,
      "duration": 0.1066,
      "velocity": 118,
      "chip": "ym2612"
    },
    {
      "channel": 0,
      "note": 50,
      "start": 15.5021,
      "duration": 0.1749,
      "velocity": 117,
      "chip": "ym2612"
    },
    {
      "channel": 1,
      "note": 86,
      "start": 15.5026,
      "duration": 0.0854,
      "velocity": 110,
      "chip": "ym2612"
    },
    {
      "channel": 3,
      "note": 86,
      "start": 15.5032,
      "duration": 0.0854,
      "velocity": 118,
      "chip": "ym2612"
    },
    {
      "channel": 1,
      "note": 82,
      "start": 15.5882,
      "duration": 0.0482,
      "velocity": 110,
      "chip": "ym2612"
    },
    {
      "channel": 3,
      "note": 86,
      "start": 15.5888,
      "duration": 0.0905,
      "velocity": 118,
      "chip": "ym2612"
    },
    {
      "channel": 1,
      "note": 83,
      "start": 15.6365,
      "duration": 0.1266,
      "velocity": 110,
      "chip": "ym2612"
    },
    {
      "channel": 0,
      "note": 52,
      "start": 15.6772,
      "duration": 0.3154,
      "velocity": 117,
      "chip": "ym2612"
    },
    {
      "channel": 3,
      "note": 86,
      "start": 15.6794,
      "duration": 0.086,
      "velocity": 118,
      "chip": "ym2612"
    },
    {
      "channel": 1,
      "note": 86,
      "start": 15.7633,
      "duration": 0.1126,
      "velocity": 110,
      "chip": "ym2612"
    },
    {
      "channel": 3,
      "note": 86,
      "start": 15.7655,
      "duration": 0.1111,
      "velocity": 118,
      "chip": "ym2612"
    },
    {
      "channel": 1,
      "note": 82,
      "start": 15.8761,
      "duration": 0.0482,
      "velocity": 110,
      "chip": "ym2612"
    },
    {
      "channel": 3,
      "note": 86,
      "start": 15.8767,
      "duration": 0.1165,
      "velocity": 118,
      "chip": "ym2612"
    },
    {
      "channel": 1,
      "note": 83,
      "start": 15.9244,
      "duration": 0.1516,
      "velocity": 110,
      "chip": "ym2612"
    },
    {
      "channel": 0,
      "note": 52,
      "start": 15.9927,
      "duration": 0.0828,
      "velocity": 117,
      "chip": "ym2612"
    },
    {
      "channel": 3,
      "note": 86,
      "start": 15.9934,
      "duration": 0.0848,
      "velocity": 118,
      "chip": "ym2612"
    },
    {
      "channel": 0,
      "note": 64,
      "start": 16.0757,
      "duration": 0.1905,
      "velocity": 117,
      "chip": "ym2612"
    },
    {
      "channel": 1,
      "note": 86,
      "start": 16.0762,
      "duration": 0.0865,
      "velocity": 110,
      "chip": "ym2612"
    },
    {
      "channel": 3,
      "note": 86,
      "start": 16.0784,
      "duration": 0.0866,
      "velocity": 118,
      "chip": "ym2612"
    },
    {
      "channel": 1,
      "note": 82,
      "start": 16.1629,
      "duration": 0.0532,
      "velocity": 110,
      "chip": "ym2612"
    },
    {
      "channel": 3,
      "note": 86,
      "start": 16.1651,
      "duration": 0.1017,
      "velocity": 118,
      "chip": "ym2612"
    },
    {
      "channel": 1,
      "note": 83,
      "start": 16.2163,
      "duration": 0.1837,
      "velocity": 110,
      "chip": "ym2612"
    },
    {
      "channel": 0,
      "note": 59,
      "start": 16.2663,
      "duration": 0.1332,
      "velocity": 117,
      "chip": "ym2612"
    },
    {
      "channel": 3,
      "note": 86,
      "start": 16.267,
      "duration": 0.1337,
      "velocity": 118,
      "chip": "ym2612"
    },
    {
      "channel": 0,
      "note": 62,
      "start": 16.3997,
      "duration": 0.1732,
      "velocity": 117,
      "chip": "ym2612"
    },
    {
      "channel": 1,
      "note": 86,
      "start": 16.4002,
      "duration": 0.0854,
      "velocity": 110,
      "chip": "ym2612"
    },
    {
      "channel": 3,
      "note": 86,
      "start": 16.4008,
      "duration": 0.087,
      "velocity": 118,
      "chip": "ym2612"
    },
    {
      "channel": 1,
      "note": 82,
      "start": 16.4858,
      "duration": 0.0363,
      "velocity": 110,
      "chip": "ym2612"
    },
    {
      "channel": 3,
      "note": 86,
      "start": 16.488,
      "duration": 0.0876,
      "velocity": 118,
      "chip": "ym2612"
    },
    {
      "channel": 1,
      "note": 81,
      "start": 16.5222,
      "duration": 0.0512,
      "velocity": 110,
      "chip": "ym2612"
    },
    {
      "channel": 0,
      "note": 62,
      "start": 16.5731,
      "duration": 0.173,
      "velocity": 117,
      "chip": "ym2612"
    },
    {
      "channel": 1,
      "note": 79,
      "start": 16.5736,
      "duration": 0.0858,
      "velocity": 110,
      "chip": "ym2612"
    },
    {
      "channel": 3,
      "note": 86,
      "start": 16.5758,
      "duration": 0.0841,
      "velocity": 118,
      "chip": "ym2612"
    },
    {
      "channel": 1,
      "note": 76,
      "start": 16.6595,
      "duration": 0.0871,
      "velocity": 110,
      "chip": "ym2612"
    },
    {
      "channel": 3,
      "note": 86,
      "start": 16.6602,
      "duration": 0.0871,
      "velocity": 118,
      "chip": "ym2612"
    },
    {
      "channel": 0,
      "note": 55,
      "start": 16.7463,
      "duration": 0.1031,
      "velocity": 117,
      "chip": "ym2612"
    },
    {
      "channel": 1,
      "note": 74,
      "start": 16.7469,
      "duration": 0.1031,
      "velocity": 110,
      "chip": "ym2612"
    },
    {
      "channel": 3,
      "note": 86,
      "start": 16.7475,
      "duration": 0.1047,
      "velocity": 118,
      "chip": "ym2612"
    },
    {
      "channel": 0,
      "note": 57,
      "start": 16.8496,
      "duration": 0.1886,
      "velocity": 117,
      "chip": "ym2612"
    },
    {
      "channel": 1,
      "note": 81,
      "start": 16.8501,
      "duration": 0.0851,
      "velocity": 110,
      "chip": "ym2612"
    },
    {
      "channel": 3,
      "note": 86,
      "start": 16.8524,
      "duration": 0.0851,
      "velocity": 118,
      "chip": "ym2612"
    },
    {
      "channel": 1,
      "note": 79,
      "start": 16.9354,
      "duration": 0.1034,
      "velocity": 110,
      "chip": "ym2612"
    },
    {
      "channel": 3,
      "note": 86,
      "start": 16.9377,
      "duration": 0.1017,
      "velocity": 118,
      "chip": "ym2612"
    },
    {
      "channel": 0,
      "note": 59,
      "start": 17.0384,
      "duration": 0.0856,
      "velocity": 117,
      "chip": "ym2612"
    },
    {
      "channel": 1,
      "note": 74,
      "start": 17.0389,
      "duration": 0.0857,
      "velocity": 110,
      "chip": "ym2612"
    },
    {
      "channel": 3,
      "note": 86,
      "start": 17.0396,
      "duration": 0.0857,
      "velocity": 118,
      "chip": "ym2612"
    },
    {
      "channel": 0,
      "note": 62,
      "start": 17.1242,
      "duration": 0.0856,
      "velocity": 117,
      "chip": "ym2612"
    },
    {
      "channel": 1,
      "note": 76,
      "start": 17.1248,
      "duration": 0.0871,
      "velocity": 1,
      "chip": "ym2612"
    },
    {
      "channel": 3,
      "note": 86,
      "start": 17.1254,
      "duration": 0.0887,
      "velocity": 118,
      "chip": "ym2612"
    },
    {
      "channel": 0,
      "note": 52,
      "start": 17.21,
      "duration": 0.3158,
      "velocity": 117,
      "chip": "ym2612"
    },
    {
      "channel": 1,
      "note": 55,
      "start": 17.2121,
      "duration": 0.3992,
      "velocity": 110,
      "chip": "ym2612"
    },
    {
      "channel": 3,
      "note": 86,
      "start": 17.2144,
      "duration": 0.0964,
      "velocity": 118,
      "chip": "ym2612"
    },
    {
      "channel": 3,
      "note": 86,
      "start": 17.311,
      "duration": 0.0984,
      "velocity": 118,
      "chip": "ym2612"
    },
    {
      "channel": 3,
      "note": 86,
      "start": 17.4095,
      "duration": 0.1169,
      "velocity": 118,
      "chip": "ym2612"
    },
    {
      "channel": 0,
      "note": 52,
      "start": 17.5259,
      "duration": 0.0832,
      "velocity": 117,
      "chip": "ym2612"
    },
    {
      "channel": 3,
      "note": 86,
      "start": 17.5266,
      "duration": 0.0868,
      "velocity": 118,
      "chip": "ym2612"
    },
    {
      "channel": 0,
      "note": 64,
      "start": 17.6093,
      "duration": 0.2066,
      "velocity": 117,
      "chip": "ym2612"
    },
    {
      "channel": 1,
      "note": 76,
      "start": 17.6115,
      "duration": 0.0846,
      "velocity": 110,
      "chip": "ym2612"
    },
    {
      "channel": 3,
      "note": 86,
      "start": 17.6137,
      "duration": 0.0846,
      "velocity": 118,
      "chip": "ym2612"
    },
    {
      "channel": 1,
      "note": 74,
      "start": 17.6962,
      "duration": 0.2385,
      "velocity": 110,
      "chip": "ym2612"
    },
    {
      "channel": 3,
      "note": 86,
      "start": 17.6984,
      "duration": 0.1198,
      "velocity": 118,
      "chip": "ym2612"
    },
    {
      "channel": 0,
      "note": 59,
      "start": 17.816,
      "duration": 0.1166,
      "velocity": 117,
      "chip": "ym2612"
    },
    {
      "channel": 3,
      "note": 86,
      "start": 17.8184,
      "duration": 0.1169,
      "velocity": 118,
      "chip": "ym2612"
    },
    {
      "channel": 0,
      "note": 62,
      "start": 17.9327,
      "duration": 0.1734,
      "velocity": 117,
      "chip": "ym2612"
    },
    {
      "channel": 1,
      "note": 73,
      "start": 17.9349,
      "duration": 0.1734,
      "velocity": 110,
      "chip": "ym2612"
    },
    {
      "channel": 3,
      "note": 86,
      "start": 17.9355,
      "duration": 0.0874,
      "velocity": 118,
      "chip": "ym2612"
    },
    {
      "channel": 3,
      "note": 86,
      "start": 18.023,
      "duration": 0.0873,
      "velocity": 118,
      "chip": "ym2612"
    },
    {
      "channel": 0,
      "note": 62,
      "start": 18.1062,
      "duration": 0.1844,
      "velocity": 117,
      "chip": "ym2612"
    },
    {
      "channel": 1,
      "note": 69,
      "start": 18.1084,
      "duration": 0.1843,
      "velocity": 110,
      "chip": "ym2612"
    },
    {
      "channel": 3,
      "note": 86,
      "start": 18.1106,
      "duration": 0.0838,
      "velocity": 118,
      "chip": "ym2612"
    },
    {
      "channel": 3,
      "note": 86,
      "start": 18.1945,
      "duration": 0.0988,
      "velocity": 118,
      "chip": "ym2612"
    },
    {
      "channel": 0,
      "note": 55,
      "start": 18.2907,
      "duration": 0.091,
      "velocity": 117,
      "chip": "ym2612"
    },
    {
      "channel": 1,
      "note": 64,
      "start": 18.2929,
      "duration": 0.0893,
      "velocity": 110,
      "chip": "ym2612"
    },
    {
      "channel": 3,
      "note": 86,
      "start": 18.2935,
      "duration": 0.0909,
      "velocity": 118,
      "chip": "ym2612"
    },
    {
      "channel": 0,
      "note": 57,
      "start": 18.3819,
      "duration": 0.1904,
      "velocity": 117,
      "chip": "ym2612"
    },
    {
      "channel": 1,
      "note": 78,
      "start": 18.3824,
      "duration": 0.0371,
      "velocity": 110,
      "chip": "ym2612"
    },
    {
      "channel": 3,
      "note": 86,
      "start": 18.3846,
      "duration": 0.0862,
      "velocity": 118,
      "chip": "ym2612"
    },
    {
      "channel": 1,
      "note": 79,
      "start": 18.4198,
      "duration": 0.1531,
      "velocity": 110,
      "chip": "ym2612"
    },
    {
      "channel": 3,
      "note": 86,
      "start": 18.471,
      "duration": 0.1025,
      "velocity": 118,
      "chip": "ym2612"
    },
    {
      "channel": 0,
      "note": 50,
      "start": 18.5725,
      "duration": 0.1906,
      "velocity": 117,
      "chip": "ym2612"
    },
    {
      "channel": 1,
      "note": 81,
      "start": 18.573,
      "duration": 0.0849,
      "velocity": 110,
      "chip": "ym2612"
    },
    {
      "channel": 3,
      "note": 86,
      "start": 18.5736,
      "duration": 0.085,
      "velocity": 118,
      "chip": "ym2612"
    },
    {
      "channel": 1,
      "note": 83,
      "start": 18.6581,
      "duration": 0.1071,
      "velocity": 1,
      "chip": "ym2612"
    },
    {
      "channel": 3,
      "note": 86,
      "start": 18.6588,
      "duration": 0.1086,
      "velocity": 118,
      "chip": "ym2612"
    },
    {
      "channel": 0,
      "note": 52,
      "start": 18.7632,
      "duration": 0.2984,
      "velocity": 117,
      "chip": "ym2612"
    },
    {
      "channel": 1,
      "note": 79,
      "start": 18.7653,
      "duration": 2.1146,
      "velocity": 110,
      "chip": "ym2612"
    },
    {
      "channel": 3,
      "note": 86,
      "start": 18.7676,
      "duration": 0.0841,
      "velocity": 118,
      "chip": "ym2612"
    },
    {
      "channel": 3,
      "note": 86,
      "start": 18.8519,
      "duration": 0.0933,
      "velocity": 118,
      "chip": "ym2612"
    },
    {
      "channel": 3,
      "note": 86,
      "start": 18.9454,
      "duration": 0.1169,
      "velocity": 118,
      "chip": "ym2612"
    },
    {
      "channel": 0,
      "note": 52,
      "start": 19.0618,
      "duration": 0.1149,
      "velocity": 117,
      "chip": "ym2612"
    },
    {
      "channel": 3,
      "note": 86,
      "start": 19.0624,
      "duration": 0.1166,
      "velocity": 118,
      "chip": "ym2612"
    },
    {
      "channel": 0,
      "note": 64,
      "start": 19.1769,
      "duration": 0.2498,
      "velocity": 117,
      "chip": "ym2612"
    },
    {
      "channel": 3,
      "note": 86,
      "start": 19.1791,
      "duration": 0.1327,
      "velocity": 118,
      "chip": "ym2612"
    },
    {
      "channel": 3,
      "note": 86,
      "start": 19.3119,
      "duration": 0.1155,
      "velocity": 118,
      "chip": "ym2612"
    },
    {
      "channel": 0,
      "note": 59,
      "start": 19.4269,
      "duration": 0.1165,
      "velocity": 117,
      "chip": "ym2612"
    },
    {
      "channel": 3,
      "note": 86,
      "start": 19.4276,
      "duration": 0.1165,
      "velocity": 118,
      "chip": "ym2612"
    },
    {
      "channel": 0,
      "note": 62,
      "start": 19.5435,
      "duration": 0.2347,
      "velocity": 117,
      "chip": "ym2612"
    },
    {
      "channel": 3,
      "note": 86,
      "start": 19.5442,
      "duration": 0.1192,
      "velocity": 118,
      "chip": "ym2612"
    },
    {
      "channel": 3,
      "note": 86,
      "start": 19.6636,
      "duration": 0.1169,
      "velocity": 118,
      "chip": "ym2612"
    },
    {
      "channel": 0,
      "note": 62,
      "start": 19.7785,
      "duration": 0.2498,
      "velocity": 117,
      "chip": "ym2612"
    },
    {
      "channel": 3,
      "note": 86,
      "start": 19.7807,
      "duration": 0.1312,
      "velocity": 118,
      "chip": "ym2612"
    },
    {
      "channel": 3,
      "note": 86,
      "start": 19.9121,
      "duration": 0.1169,
      "velocity": 118,
      "chip": "ym2612"
    },
    {
      "channel": 0,
      "note": 55,
      "start": 20.0285,
      "duration": 0.0848,
      "velocity": 117,
      "chip": "ym2612"
    },
    {
      "channel": 3,
      "note": 86,
      "start": 20.0292,
      "duration": 0.0863,
      "velocity": 118,
      "chip": "ym2612"
    },
    {
      "channel": 0,
      "note": 57,
      "start": 20.1135,
      "duration": 0.1729,
      "velocity": 117,
      "chip": "ym2612"
    },
    {
      "channel": 3,
      "note": 86,
      "start": 20.1157,
      "duration": 0.0855,
      "velocity": 118,
      "chip": "ym2612"
    },
    {
      "channel": 3,
      "note": 86,
      "start": 20.2014,
      "duration": 0.0856,
      "velocity": 118,
      "chip": "ym2612"
    },
    {
      "channel": 0,
      "note": 59,
      "start": 20.2865,
      "duration": 0.0977,
      "velocity": 117,
      "chip": "ym2612"
    },
    {
      "channel": 3,
      "note": 86,
      "start": 20.2872,
      "duration": 0.0977,
      "velocity": 118,
      "chip": "ym2612"
    },
    {
      "channel": 0,
      "note": 62,
      "start": 20.3844,
      "duration": 0.0995,
      "velocity": 117,
      "chip": "ym2612"
    },
    {
      "channel": 3,
      "note": 86,
      "start": 20.385,
      "duration": 0.1017,
      "velocity": 118,
      "chip": "ym2612"
    },
    {
      "channel": 0,
      "note": 52,
      "start": 20.4841,
      "duration": 0.2981,
      "velocity": 117,
      "chip": "ym2612"
    },
    {
      "channel": 2,
      "note": 52,
      "start": 20.4848,
      "duration": 6.5093,
      "velocity": 107,
      "chip": "ym2612"
    },
    {
      "channel": 3,
      "note": 86,
      "start": 20.4869,
      "duration": 0.0848,
      "velocity": 118,
      "chip": "ym2612"
    },
    {
      "channel": 3,
      "note": 86,
      "start": 20.5719,
      "duration": 0.0938,
      "velocity": 118,
      "chip": "ym2612"
    },
    {
      "channel": 3,
      "note": 86,
      "start": 20.6659,
      "duration": 0.1169,
      "velocity": 118,
      "chip": "ym2612"
    },
    {
      "channel": 0,
      "note": 52,
      "start": 20.7823,
      "duration": 0.0954,
      "velocity": 117,
      "chip": "ym2612"
    },
    {
      "channel": 3,
      "note": 86,
      "start": 20.783,
      "duration": 0.099,
      "velocity": 118,
      "chip": "ym2612"
    },
    {
      "channel": 0,
      "note": 64,
      "start": 20.878,
      "duration": 0.1902,
      "velocity": 117,
      "chip": "ym2612"
    },
    {
      "channel": 1,
      "note": 74,
      "start": 20.8801,
      "duration": 0.0851,
      "velocity": 110,
      "chip": "ym2612"
    },
    {
      "channel": 3,
      "note": 86,
      "start": 20.8823,
      "duration": 0.0851,
      "velocity": 118,
      "chip": "ym2612"
    },
    {
      "channel": 1,
      "note": 76,
      "start": 20.9654,
      "duration": 0.2216,
      "velocity": 110,
      "chip": "ym2612"
    },
    {
      "channel": 3,
      "note": 86,
      "start": 20.9676,
      "duration": 0.1029,
      "velocity": 118,
      "chip": "ym2612"
    },
    {
      "channel": 0,
      "note": 59,
      "start": 21.0683,
      "duration": 0.1166,
      "velocity": 117,
      "chip": "ym2612"
    },
    {
      "channel": 3,
      "note": 86,
      "start": 21.0707,
      "duration": 0.1169,
      "velocity": 118,
      "chip": "ym2612"
    },
    {
      "channel": 0,
      "note": 62,
      "start": 21.1851,
      "duration": 0.1851,
      "velocity": 117,
      "chip": "ym2612"
    },
    {
      "channel": 1,
      "note": 79,
      "start": 21.1872,
      "duration": 0.1851,
      "velocity": 110,
      "chip": "ym2612"
    },
    {
      "channel": 3,
      "note": 86,
      "start": 21.1878,
      "duration": 0.0872,
      "velocity": 118,
      "chip": "ym2612"
    },
    {
      "channel": 3,
      "note": 86,
      "start": 21.2752,
      "duration": 0.0993,
      "velocity": 118,
      "chip": "ym2612"
    },
    {
      "channel": 0,
      "note": 62,
      "start": 21.3704,
      "duration": 0.1712,
      "velocity": 117,
      "chip": "ym2612"
    },
    {
      "channel": 1,
      "note": 81,
      "start": 21.3725,
      "duration": 0.1713,
      "velocity": 110,
      "chip": "ym2612"
    },
    {
      "channel": 3,
      "note": 86,
      "start": 21.3747,
      "duration": 0.0836,
      "velocity": 118,
      "chip": "ym2612"
    },
    {
      "channel": 3,
      "note": 86,
      "start": 21.4585,
      "duration": 0.0859,
      "velocity": 118,
      "chip": "ym2612"
    },
    {
      "channel": 0,
      "note": 55,
      "start": 21.5418,
      "duration": 0.0864,
      "velocity": 117,
      "chip": "ym2612"
    },
    {
      "channel": 1,
      "note": 79,
      "start": 21.5439,
      "duration": 0.0849,
      "velocity": 110,
      "chip": "ym2612"
    },
    {
      "channel": 3,
      "note": 86,
      "start": 21.5445,
      "duration": 0.0864,
      "velocity": 118,
      "chip": "ym2612"
    },
    {
      "channel": 0,
      "note": 57,
      "start": 21.6283,
      "duration": 0.2059,
      "velocity": 117,
      "chip": "ym2612"
    },
    {
      "channel": 1,
      "note": 82,
      "start": 21.6288,
      "duration": 0.0487,
      "velocity": 110,
      "chip": "ym2612"
    },
    {
      "channel": 3,
      "note": 86,
      "start": 21.6311,
      "duration": 0.0854,
      "velocity": 118,
      "chip": "ym2612"
    },
    {
      "channel": 1,
      "note": 83,
      "start": 21.6777,
      "duration": 0.1572,
      "velocity": 110,
      "chip": "ym2612"
    },
    {
      "channel": 3,
      "note": 86,
      "start": 21.7166,
      "duration": 0.1188,
      "velocity": 118,
      "chip": "ym2612"
    },
    {
      "channel": 0,
      "note": 50,
      "start": 21.8344,
      "duration": 0.1748,
      "velocity": 117,
      "chip": "ym2612"
    },
    {
      "channel": 1,
      "note": 86,
      "start": 21.8349,
      "duration": 0.0857,
      "velocity": 110,
      "chip": "ym2612"
    },
    {
      "channel": 3,
      "note": 86,
      "start": 21.8356,
      "duration": 0.0857,
      "velocity": 118,
      "chip": "ym2612"
    },
    {
      "channel": 1,
      "note": 82,
      "start": 21.9208,
      "duration": 0.0359,
      "velocity": 110,
      "chip": "ym2612"
    },
    {
      "channel": 3,
      "note": 86,
      "start": 21.9215,
      "duration": 0.09,
      "velocity": 118,
      "chip": "ym2612"
    },
    {
      "channel": 1,
      "note": 83,
      "start": 21.9569,
      "duration": 0.1384,
      "velocity": 110,
      "chip": "ym2612"
    },
    {
      "channel": 0,
      "note": 52,
      "start": 22.0094,
      "duration": 0.3153,
      "velocity": 117,
      "chip": "ym2612"
    },
    {
      "channel": 3,
      "note": 86,
      "start": 22.0116,
      "duration": 0.0859,
      "velocity": 118,
      "chip": "ym2612"
    },
    {
      "channel": 1,
      "note": 86,
      "start": 22.0955,
      "duration": 0.0959,
      "velocity": 110,
      "chip": "ym2612"
    },
    {
      "channel": 3,
      "note": 86,
      "start": 22.0977,
      "duration": 0.0944,
      "velocity": 118,
      "chip": "ym2612"
    },
    {
      "channel": 1,
      "note": 82,
      "start": 22.1916,
      "duration": 0.0649,
      "velocity": 110,
      "chip": "ym2612"
    },
    {
      "channel": 3,
      "note": 86,
      "start": 22.1922,
      "duration": 0.1332,
      "velocity": 118,
      "chip": "ym2612"
    },
    {
      "channel": 1,
      "note": 83,
      "start": 22.2566,
      "duration": 0.1518,
      "velocity": 110,
      "chip": "ym2612"
    },
    {
      "channel": 0,
      "note": 52,
      "start": 22.3249,
      "duration": 0.0829,
      "velocity": 117,
      "chip": "ym2612"
    },
    {
      "channel": 3,
      "note": 86,
      "start": 22.3255,
      "duration": 0.085,
      "velocity": 118,
      "chip": "ym2612"
    },
    {
      "channel": 0,
      "note": 64,
      "start": 22.408,
      "duration": 0.189,
      "velocity": 117,
      "chip": "ym2612"
    },
    {
      "channel": 1,
      "note": 86,
      "start": 22.4085,
      "duration": 0.0856,
      "velocity": 110,
      "chip": "ym2612"
    },
    {
      "channel": 3,
      "note": 86,
      "start": 22.4107,
      "duration": 0.0856,
      "velocity": 118,
      "chip": "ym2612"
    },
    {
      "channel": 1,
      "note": 82,
      "start": 22.4942,
      "duration": 0.0528,
      "velocity": 110,
      "chip": "ym2612"
    },
    {
      "channel": 3,
      "note": 86,
      "start": 22.4965,
      "duration": 0.1012,
      "velocity": 118,
      "chip": "ym2612"
    },
    {
      "channel": 1,
      "note": 83,
      "start": 22.5472,
      "duration": 0.1671,
      "velocity": 110,
      "chip": "ym2612"
    },
    {
      "channel": 0,
      "note": 59,
      "start": 22.5972,
      "duration": 0.1166,
      "velocity": 117,
      "chip": "ym2612"
    },
    {
      "channel": 3,
      "note": 86,
      "start": 22.5979,
      "duration": 0.117,
      "velocity": 118,
      "chip": "ym2612"
    },
    {
      "channel": 0,
      "note": 62,
      "start": 22.7139,
      "duration": 0.1856,
      "velocity": 117,
      "chip": "ym2612"
    },
    {
      "channel": 1,
      "note": 86,
      "start": 22.7144,
      "duration": 0.0987,
      "velocity": 110,
      "chip": "ym2612"
    },
    {
      "channel": 3,
      "note": 86,
      "start": 22.7151,
      "duration": 0.1003,
      "velocity": 118,
      "chip": "ym2612"
    },
    {
      "channel": 1,
      "note": 82,
      "start": 22.8133,
      "duration": 0.0363,
      "velocity": 110,
      "chip": "ym2612"
    },
    {
      "channel": 3,
      "note": 86,
      "start": 22.8155,
      "duration": 0.0867,
      "velocity": 118,
      "chip": "ym2612"
    },
    {
      "channel": 1,
      "note": 81,
      "start": 22.8498,
      "duration": 0.0503,
      "velocity": 110,
      "chip": "ym2612"
    },
    {
      "channel": 0,
      "note": 62,
      "start": 22.8997,
      "duration": 0.1729,
      "velocity": 117,
      "chip": "ym2612"
    },
    {
      "channel": 1,
      "note": 79,
      "start": 22.9002,
      "duration": 0.0856,
      "velocity": 110,
      "chip": "ym2612"
    },
    {
      "channel": 3,
      "note": 86,
      "start": 22.9024,
      "duration": 0.0839,
      "velocity": 118,
      "chip": "ym2612"
    },
    {
      "channel": 1,
      "note": 76,
      "start": 22.9859,
      "duration": 0.0872,
      "velocity": 110,
      "chip": "ym2612"
    },
    {
      "channel": 3,
      "note": 86,
      "start": 22.9866,
      "duration": 0.0872,
      "velocity": 118,
      "chip": "ym2612"
    },
    {
      "channel": 0,
      "note": 55,
      "start": 23.0728,
      "duration": 0.0863,
      "velocity": 117,
      "chip": "ym2612"
    },
    {
      "channel": 1,
      "note": 74,
      "start": 23.0734,
      "duration": 0.0863,
      "velocity": 110,
      "chip": "ym2612"
    },
    {
      "channel": 3,
      "note": 86,
      "start": 23.0739,
      "duration": 0.0879,
      "velocity": 118,
      "chip": "ym2612"
    },
    {
      "channel": 0,
      "note": 57,
      "start": 23.1593,
      "duration": 0.2062,
      "velocity": 117,
      "chip": "ym2612"
    },
    {
      "channel": 1,
      "note": 81,
      "start": 23.1598,
      "duration": 0.0978,
      "velocity": 110,
      "chip": "ym2612"
    },
    {
      "channel": 3,
      "note": 86,
      "start": 23.162,
      "duration": 0.0979,
      "velocity": 118,
      "chip": "ym2612"
    },
    {
      "channel": 1,
      "note": 79,
      "start": 23.2578,
      "duration": 0.1082,
      "velocity": 110,
      "chip": "ym2612"
    },
    {
      "channel": 3,
      "note": 86,
      "start": 23.2601,
      "duration": 0.1065,
      "velocity": 118,
      "chip": "ym2612"
    },
    {
      "channel": 0,
      "note": 59,
      "start": 23.3656,
      "duration": 0.0859,
      "velocity": 117,
      "chip": "ym2612"
    },
    {
      "channel": 1,
      "note": 74,
      "start": 23.3661,
      "duration": 0.0859,
      "velocity": 110,
      "chip": "ym2612"
    },
    {
      "channel": 3,
      "note": 86,
      "start": 23.3668,
      "duration": 0.0859,
      "velocity": 118,
      "chip": "ym2612"
    },
    {
      "channel": 0,
      "note": 62,
      "start": 23.4517,
      "duration": 0.0853,
      "velocity": 117,
      "chip": "ym2612"
    },
    {
      "channel": 1,
      "note": 76,
      "start": 23.4522,
      "duration": 0.0853,
      "velocity": 110,
      "chip": "ym2612"
    },
    {
      "channel": 3,
      "note": 86,
      "start": 23.4529,
      "duration": 0.0869,
      "velocity": 118,
      "chip": "ym2612"
    },
    {
      "channel": 0,
      "note": 52,
      "start": 23.5371,
      "duration": 0.3153,
      "velocity": 117,
      "chip": "ym2612"
    },
    {
      "channel": 1,
      "note": 88,
      "start": 23.5378,
      "duration": 0.3153,
      "velocity": 110,
      "chip": "ym2612"
    },
    {
      "channel": 3,
      "note": 86,
      "start": 23.54,
      "duration": 0.0847,
      "velocity": 118,
      "chip": "ym2612"
    },
    {
      "channel": 3,
      "note": 86,
      "start": 23.6249,
      "duration": 0.111,
      "velocity": 118,
      "chip": "ym2612"
    },
    {
      "channel": 3,
      "note": 86,
      "start": 23.7361,
      "duration": 0.1175,
      "velocity": 118,
      "chip": "ym2612"
    },
    {
      "channel": 0,
      "note": 52,
      "start": 23.8526,
      "duration": 0.0839,
      "velocity": 117,
      "chip": "ym2612"
    },
    {
      "channel": 1,
      "note": 86,
      "start": 23.8532,
      "duration": 0.2743,
      "velocity": 110,
      "chip": "ym2612"
    },
    {
      "channel": 3,
      "note": 86,
      "start": 23.8538,
      "duration": 0.0867,
      "velocity": 118,
      "chip": "ym2612"
    },
    {
      "channel": 0,
      "note": 64,
      "start": 23.9367,
      "duration": 0.1887,
      "velocity": 117,
      "chip": "ym2612"
    },
    {
      "channel": 3,
      "note": 86,
      "start": 23.9406,
      "duration": 0.084,
      "velocity": 118,
      "chip": "ym2612"
    },
    {
      "channel": 3,
      "note": 86,
      "start": 24.0247,
      "duration": 0.1034,
      "velocity": 118,
      "chip": "ym2612"
    },
    {
      "channel": 0,
      "note": 59,
      "start": 24.1255,
      "duration": 0.1332,
      "velocity": 117,
      "chip": "ym2612"
    },
    {
      "channel": 1,
      "note": 85,
      "start": 24.1277,
      "duration": 0.3049,
      "velocity": 110,
      "chip": "ym2612"
    },
    {
      "channel": 3,
      "note": 86,
      "start": 24.1283,
      "duration": 0.1311,
      "velocity": 118,
      "chip": "ym2612"
    },
    {
      "channel": 0,
      "note": 62,
      "start": 24.2588,
      "duration": 0.1731,
      "velocity": 117,
      "chip": "ym2612"
    },
    {
      "channel": 3,
      "note": 86,
      "start": 24.2595,
      "duration": 0.0881,
      "velocity": 118,
      "chip": "ym2612"
    },
    {
      "channel": 3,
      "note": 86,
      "start": 24.3478,
      "duration": 0.0868,
      "velocity": 118,
      "chip": "ym2612"
    },
    {
      "channel": 0,
      "note": 62,
      "start": 24.4322,
      "duration": 0.1721,
      "velocity": 117,
      "chip": "ym2612"
    },
    {
      "channel": 1,
      "note": 81,
      "start": 24.4327,
      "duration": 0.1737,
      "velocity": 110,
      "chip": "ym2612"
    },
    {
      "channel": 3,
      "note": 86,
      "start": 24.4349,
      "duration": 0.0861,
      "velocity": 118,
      "chip": "ym2612"
    },
    {
      "channel": 3,
      "note": 86,
      "start": 24.5211,
      "duration": 0.0859,
      "velocity": 118,
      "chip": "ym2612"
    },
    {
      "channel": 0,
      "note": 55,
      "start": 24.6044,
      "duration": 0.1032,
      "velocity": 117,
      "chip": "ym2612"
    },
    {
      "channel": 1,
      "note": 76,
      "start": 24.6066,
      "duration": 0.1016,
      "velocity": 110,
      "chip": "ym2612"
    },
    {
      "channel": 3,
      "note": 86,
      "start": 24.6072,
      "duration": 0.1032,
      "velocity": 118,
      "chip": "ym2612"
    },
    {
      "channel": 0,
      "note": 57,
      "start": 24.7078,
      "duration": 0.191,
      "velocity": 117,
      "chip": "ym2612"
    },
    {
      "channel": 1,
      "note": 86,
      "start": 24.7084,
      "duration": 0.0868,
      "velocity": 110,
      "chip": "ym2612"
    },
    {
      "channel": 3,
      "note": 86,
      "start": 24.7105,
      "duration": 0.0869,
      "velocity": 118,
      "chip": "ym2612"
    },
    {
      "channel": 1,
      "note": 85,
      "start": 24.7954,
      "duration": 0.104,
      "velocity": 110,
      "chip": "ym2612"
    },
    {
      "channel": 3,
      "note": 86,
      "start": 24.7975,
      "duration": 0.1024,
      "velocity": 118,
      "chip": "ym2612"
    },
    {
      "channel": 0,
      "note": 50,
      "start": 24.899,
      "duration": 0.174,
      "velocity": 117,
      "chip": "ym2612"
    },
    {
      "channel": 1,
      "note": 81,
      "start": 24.8995,
      "duration": 0.0854,
      "velocity": 110,
      "chip": "ym2612"
    },
    {
      "channel": 3,
      "note": 86,
      "start": 24.9002,
      "duration": 0.0854,
      "velocity": 118,
      "chip": "ym2612"
    },
    {
      "channel": 1,
      "note": 83,
      "start": 24.9851,
      "duration": 0.0901,
      "velocity": 107,
      "chip": "ym2612"
    },
    {
      "channel": 3,
      "note": 86,
      "start": 24.9857,
      "duration": 0.0916,
      "velocity": 118,
      "chip": "ym2612"
    },
    {
      "channel": 0,
      "note": 52,
      "start": 25.0732,
      "duration": 0.3151,
      "velocity": 117,
      "chip": "ym2612"
    },
    {
      "channel": 1,
      "note": 52,
      "start": 25.0753,
      "duration": 1.7366,
      "velocity": 107,
      "chip": "ym2612"
    },
    {
      "channel": 3,
      "note": 86,
      "start": 25.0775,
      "duration": 0.0959,
      "velocity": 118,
      "chip": "ym2612"
    },
    {
      "channel": 3,
      "note": 86,
      "start": 25.1736,
      "duration": 0.0983,
      "velocity": 118,
      "chip": "ym2612"
    },
    {
      "channel": 3,
      "note": 86,
      "start": 25.2721,
      "duration": 0.1169,
      "velocity": 118,
      "chip": "ym2612"
    },
    {
      "channel": 0,
      "note": 52,
      "start": 25.3885,
      "duration": 0.1149,
      "velocity": 117,
      "chip": "ym2612"
    },
    {
      "channel": 3,
      "note": 86,
      "start": 25.3891,
      "duration": 0.1166,
      "velocity": 118,
      "chip": "ym2612"
    },
    {
      "channel": 0,
      "note": 64,
      "start": 25.5036,
      "duration": 0.2498,
      "velocity": 117,
      "chip": "ym2612"
    },
    {
      "channel": 3,
      "note": 86,
      "start": 25.5058,
      "duration": 0.116,
      "velocity": 118,
      "chip": "ym2612"
    },
    {
      "channel": 3,
      "note": 86,
      "start": 25.622,
      "duration": 0.1321,
      "velocity": 118,
      "chip": "ym2612"
    },
    {
      "channel": 0,
      "note": 59,
      "start": 25.7536,
      "duration": 0.1165,
      "velocity": 117,
      "chip": "ym2612"
    },
    {
      "channel": 3,
      "note": 86,
      "start": 25.7543,
      "duration": 0.1165,
      "velocity": 118,
      "chip": "ym2612"
    },
    {
      "channel": 0,
      "note": 62,
      "start": 25.8702,
      "duration": 0.2347,
      "velocity": 117,
      "chip": "ym2612"
    },
    {
      "channel": 3,
      "note": 86,
      "start": 25.8709,
      "duration": 0.1208,
      "velocity": 118,
      "chip": "ym2612"
    },
    {
      "channel": 3,
      "note": 86,
      "start": 25.9919,
      "duration": 0.1153,
      "velocity": 118,
      "chip": "ym2612"
    },
    {
      "channel": 0,
      "note": 62,
      "start": 26.1051,
      "duration": 0.2498,
      "velocity": 117,
      "chip": "ym2612"
    },
    {
      "channel": 3,
      "note": 86,
      "start": 26.1074,
      "duration": 0.1145,
      "velocity": 118,
      "chip": "ym2612"
    },
    {
      "channel": 3,
      "note": 86,
      "start": 26.2221,
      "duration": 0.1336,
      "velocity": 118,
      "chip": "ym2612"
    },
    {
      "channel": 0,
      "note": 55,
      "start": 26.3551,
      "duration": 0.0848,
      "velocity": 117,
      "chip": "ym2612"
    },
    {
      "channel": 3,
      "note": 86,
      "start": 26.3559,
      "duration": 0.0863,
      "velocity": 118,
      "chip": "ym2612"
    },
    {
      "channel": 0,
      "note": 57,
      "start": 26.4401,
      "duration": 0.1724,
      "velocity": 117,
      "chip": "ym2612"
    },
    {
      "channel": 3,
      "note": 86,
      "start": 26.4423,
      "duration": 0.0859,
      "velocity": 118,
      "chip": "ym2612"
    },
    {
      "channel": 3,
      "note": 86,
      "start": 26.5285,
      "duration": 0.0847,
      "velocity": 118,
      "chip": "ym2612"
    },
    {
      "channel": 0,
      "note": 59,
      "start": 26.6127,
      "duration": 0.085,
      "velocity": 117,
      "chip": "ym2612"
    },
    {
      "channel": 3,
      "note": 86,
      "start": 26.6133,
      "duration": 0.085,
      "velocity": 118,
      "chip": "ym2612"
    },
    {
      "channel": 0,
      "note": 62,
      "start": 26.6978,
      "duration": 0.112,
      "velocity": 117,
      "chip": "ym2612"
    },
    {
      "channel": 3,
      "note": 86,
      "start": 26.6985,
      "duration": 0.1156,
      "velocity": 118,
      "chip": "ym2612"
    },
    {
      "channel": 0,
      "note": 54,
      "start": 26.81,
      "duration": 0.2988,
      "velocity": 117,
      "chip": "ym2612"
    },
    {
      "channel": 1,
      "note": 90,
      "start": 26.812,
      "duration": 0.2988,
      "velocity": 107,
      "chip": "ym2612"
    },
    {
      "channel": 3,
      "note": 86,
      "start": 26.8143,
      "duration": 0.0842,
      "velocity": 118,
      "chip": "ym2612"
    },
    {
      "channel": 3,
      "note": 86,
      "start": 26.8986,
      "duration": 0.0959,
      "velocity": 118,
      "chip": "ym2612"
    },
    {
      "channel": 2,
      "note": 90,
      "start": 26.9942,
      "duration": 0.2998,
      "velocity": 107,
      "chip": "ym2612"
    },
    {
      "channel": 3,
      "note": 86,
      "start": 26.9947,
      "duration": 0.1168,
      "velocity": 118,
      "chip": "ym2612"
    },
    {
      "channel": 0,
      "note": 54,
      "start": 27.109,
      "duration": 0.0838,
      "velocity": 117,
      "chip": "ym2612"
    },
    {
      "channel": 1,
      "note": 90,
      "start": 27.1111,
      "duration": 0.0822,
      "velocity": 107,
      "chip": "ym2612"
    },
    {
      "channel": 3,
      "note": 86,
      "start": 27.1117,
      "duration": 0.0854,
      "velocity": 118,
      "chip": "ym2612"
    },
    {
      "channel": 0,
      "note": 66,
      "start": 27.1929,
      "duration": 0.2063,
      "velocity": 117,
      "chip": "ym2612"
    },
    {
      "channel": 1,
      "note": 93,
      "start": 27.1934,
      "duration": 0.0983,
      "velocity": 107,
      "chip": "ym2612"
    },
    {
      "channel": 3,
      "note": 86,
      "start": 27.1973,
      "duration": 0.0987,
      "velocity": 118,
      "chip": "ym2612"
    },
    {
      "channel": 1,
      "note": 90,
      "start": 27.292,
      "duration": 0.2261,
      "velocity": 107,
      "chip": "ym2612"
    },
    {
      "channel": 2,
      "note": 90,
      "start": 27.2941,
      "duration": 0.1074,
      "velocity": 107,
      "chip": "ym2612"
    },
    {
      "channel": 3,
      "note": 86,
      "start": 27.2962,
      "duration": 0.1058,
      "velocity": 118,
      "chip": "ym2612"
    },
    {
      "channel": 0,
      "note": 61,
      "start": 27.3994,
      "duration": 0.1165,
      "velocity": 117,
      "chip": "ym2612"
    },
    {
      "channel": 2,
      "note": 93,
      "start": 27.4016,
      "duration": 0.117,
      "velocity": 107,
      "chip": "ym2612"
    },
    {
      "channel": 3,
      "note": 86,
      "start": 27.4022,
      "duration": 0.1169,
      "velocity": 118,
      "chip": "ym2612"
    },
    {
      "channel": 0,
      "note": 64,
      "start": 27.5161,
      "duration": 0.1763,
      "velocity": 117,
      "chip": "ym2612"
    },
    {
      "channel": 1,
      "note": 95,
      "start": 27.5182,
      "duration": 0.1763,
      "velocity": 107,
      "chip": "ym2612"
    },
    {
      "channel": 2,
      "note": 90,
      "start": 27.5187,
      "duration": 0.1779,
      "velocity": 107,
      "chip": "ym2612"
    },
    {
      "channel": 3,
      "note": 86,
      "start": 27.5193,
      "duration": 0.0907,
      "velocity": 118,
      "chip": "ym2612"
    },
    {
      "channel": 3,
      "note": 86,
      "start": 27.6101,
      "duration": 0.0886,
      "velocity": 118,
      "chip": "ym2612"
    },
    {
      "channel": 0,
      "note": 64,
      "start": 27.6925,
      "duration": 0.1835,
      "velocity": 117,
      "chip": "ym2612"
    },
    {
      "channel": 1,
      "note": 90,
      "start": 27.6946,
      "duration": 0.1836,
      "velocity": 107,
      "chip": "ym2612"
    },
    {
      "channel": 2,
      "note": 95,
      "start": 27.6968,
      "duration": 0.1836,
      "velocity": 107,
      "chip": "ym2612"
    },
    {
      "channel": 3,
      "note": 86,
      "start": 27.6989,
      "duration": 0.0953,
      "velocity": 118,
      "chip": "ym2612"
    },
    {
      "channel": 3,
      "note": 86,
      "start": 27.7944,
      "duration": 0.0864,
      "velocity": 118,
      "chip": "ym2612"
    },
    {
      "channel": 0,
      "note": 57,
      "start": 27.8762,
      "duration": 0.0858,
      "velocity": 117,
      "chip": "ym2612"
    },
    {
      "channel": 1,
      "note": 97,
      "start": 27.8783,
      "duration": 0.173,
      "velocity": 107,
      "chip": "ym2612"
    },
    {
      "channel": 2,
      "note": 90,
      "start": 27.8805,
      "duration": 0.173,
      "velocity": 107,
      "chip": "ym2612"
    },
    {
      "channel": 3,
      "note": 86,
      "start": 27.881,
      "duration": 0.0865,
      "velocity": 118,
      "chip": "ym2612"
    },
    {
      "channel": 0,
      "note": 59,
      "start": 27.9622,
      "duration": 0.1906,
      "velocity": 117,
      "chip": "ym2612"
    },
    {
      "channel": 3,
      "note": 86,
      "start": 27.9678,
      "duration": 0.0878,
      "velocity": 118,
      "chip": "ym2612"
    },
    {
      "channel": 1,
      "note": 90,
      "start": 28.0515,
      "duration": 0.2019,
      "velocity": 107,
      "chip": "ym2612"
    },
    {
      "channel": 2,
      "note": 97,
      "start": 28.0536,
      "duration": 0.2019,
      "velocity": 107,
      "chip": "ym2612"
    },
    {
      "channel": 3,
      "note": 86,
      "start": 28.0558,
      "duration": 0.1009,
      "velocity": 118,
      "chip": "ym2612"
    },
    {
      "channel": 0,
      "note": 52,
      "start": 28.1529,
      "duration": 0.1917,
      "velocity": 117,
      "chip": "ym2612"
    },
    {
      "channel": 3,
      "note": 86,
      "start": 28.1569,
      "duration": 0.0991,
      "velocity": 118,
      "chip": "ym2612"
    },
    {
      "channel": 1,
      "note": 88,
      "start": 28.2535,
      "duration": 0.0916,
      "velocity": 107,
      "chip": "ym2612"
    },
    {
      "channel": 2,
      "note": 90,
      "start": 28.2557,
      "duration": 0.1778,
      "velocity": 107,
      "chip": "ym2612"
    },
    {
      "channel": 3,
      "note": 86,
      "start": 28.2563,
      "duration": 0.0927,
      "velocity": 118,
      "chip": "ym2612"
    },
    {
      "channel": 0,
      "note": 54,
      "start": 28.3447,
      "duration": 0.3,
      "velocity": 117,
      "chip": "ym2612"
    },
    {
      "channel": 1,
      "note": 90,
      "start": 28.3453,
      "duration": 0.3016,
      "velocity": 107,
      "chip": "ym2612"
    },
    {
      "channel": 3,
      "note": 86,
      "start": 28.3492,
      "duration": 0.0865,
      "velocity": 118,
      "chip": "ym2612"
    },
    {
      "channel": 2,
      "note": 88,
      "start": 28.4337,
      "duration": 0.0963,
      "velocity": 107,
      "chip": "ym2612"
    },
    {
      "channel": 3,
      "note": 86,
      "start": 28.4358,
      "duration": 0.0946,
      "velocity": 118,
      "chip": "ym2612"
    },
    {
      "channel": 2,
      "note": 90,
      "start": 28.5301,
      "duration": 0.3002,
      "velocity": 107,
      "chip": "ym2612"
    },
    {
      "channel": 3,
      "note": 86,
      "start": 28.5306,
      "duration": 0.1168,
      "velocity": 118,
      "chip": "ym2612"
    },
    {
      "channel": 0,
      "note": 54,
      "start": 28.6449,
      "duration": 0.0957,
      "velocity": 117,
      "chip": "ym2612"
    },
    {
      "channel": 1,
      "note": 90,
      "start": 28.6471,
      "duration": 0.0941,
      "velocity": 107,
      "chip": "ym2612"
    },
    {
      "channel": 3,
      "note": 86,
      "start": 28.6477,
      "duration": 0.0973,
      "velocity": 118,
      "chip": "ym2612"
    },
    {
      "channel": 0,
      "note": 66,
      "start": 28.7408,
      "duration": 0.1898,
      "velocity": 117,
      "chip": "ym2612"
    },
    {
      "channel": 1,
      "note": 93,
      "start": 28.7413,
      "duration": 0.0867,
      "velocity": 107,
      "chip": "ym2612"
    },
    {
      "channel": 3,
      "note": 86,
      "start": 28.7452,
      "duration": 0.0871,
      "velocity": 118,
      "chip": "ym2612"
    },
    {
      "channel": 1,
      "note": 90,
      "start": 28.8283,
      "duration": 0.2212,
      "velocity": 107,
      "chip": "ym2612"
    },
    {
      "channel": 2,
      "note": 90,
      "start": 28.8303,
      "duration": 0.1025,
      "velocity": 107,
      "chip": "ym2612"
    },
    {
      "channel": 3,
      "note": 86,
      "start": 28.8325,
      "duration": 0.1009,
      "velocity": 118,
      "chip": "ym2612"
    },
    {
      "channel": 0,
      "note": 61,
      "start": 28.9308,
      "duration": 0.1165,
      "velocity": 117,
      "chip": "ym2612"
    },
    {
      "channel": 2,
      "note": 93,
      "start": 28.933,
      "duration": 0.117,
      "velocity": 107,
      "chip": "ym2612"
    },
    {
      "channel": 3,
      "note": 86,
      "start": 28.9336,
      "duration": 0.1169,
      "velocity": 118,
      "chip": "ym2612"
    },
    {
      "channel": 0,
      "note": 64,
      "start": 29.0474,
      "duration": 0.1882,
      "velocity": 117,
      "chip": "ym2612"
    },
    {
      "channel": 1,
      "note": 95,
      "start": 29.0496,
      "duration": 0.1882,
      "velocity": 107,
      "chip": "ym2612"
    },
    {
      "channel": 2,
      "note": 90,
      "start": 29.0501,
      "duration": 0.1898,
      "velocity": 107,
      "chip": "ym2612"
    },
    {
      "channel": 3,
      "note": 86,
      "start": 29.0507,
      "duration": 0.0906,
      "velocity": 118,
      "chip": "ym2612"
    },
    {
      "channel": 3,
      "note": 86,
      "start": 29.1415,
      "duration": 0.1005,
      "velocity": 118,
      "chip": "ym2612"
    },
    {
      "channel": 0,
      "note": 64,
      "start": 29.2358,
      "duration": 0.1719,
      "velocity": 117,
      "chip": "ym2612"
    },
    {
      "channel": 1,
      "note": 90,
      "start": 29.2379,
      "duration": 0.172,
      "velocity": 107,
      "chip": "ym2612"
    },
    {
      "channel": 2,
      "note": 95,
      "start": 29.2401,
      "duration": 0.172,
      "velocity": 107,
      "chip": "ym2612"
    },
    {
      "channel": 3,
      "note": 86,
      "start": 29.2422,
      "duration": 0.0833,
      "velocity": 118,
      "chip": "ym2612"
    },
    {
      "channel": 3,
      "note": 86,
      "start": 29.3257,
      "duration": 0.0869,
      "velocity": 118,
      "chip": "ym2612"
    },
    {
      "channel": 0,
      "note": 57,
      "start": 29.4079,
      "duration": 0.0858,
      "velocity": 117,
      "chip": "ym2612"
    },
    {
      "channel": 1,
      "note": 97,
      "start": 29.41,
      "duration": 0.173,
      "velocity": 107,
      "chip": "ym2612"
    },
    {
      "channel": 2,
      "note": 90,
      "start": 29.4122,
      "duration": 0.173,
      "velocity": 107,
      "chip": "ym2612"
    },
    {
      "channel": 3,
      "note": 86,
      "start": 29.4127,
      "duration": 0.0865,
      "velocity": 118,
      "chip": "ym2612"
    },
    {
      "channel": 0,
      "note": 59,
      "start": 29.4939,
      "duration": 0.2073,
      "velocity": 117,
      "chip": "ym2612"
    },
    {
      "channel": 3,
      "note": 86,
      "start": 29.4995,
      "duration": 0.0879,
      "velocity": 118,
      "chip": "ym2612"
    },
    {
      "channel": 1,
      "note": 90,
      "start": 29.5832,
      "duration": 0.2072,
      "velocity": 107,
      "chip": "ym2612"
    },
    {
      "channel": 2,
      "note": 97,
      "start": 29.5854,
      "duration": 0.2072,
      "velocity": 107,
      "chip": "ym2612"
    },
    {
      "channel": 3,
      "note": 86,
      "start": 29.5876,
      "duration": 0.1176,
      "velocity": 118,
      "chip": "ym2612"
    },
    {
      "channel": 0,
      "note": 61,
      "start": 29.7013,
      "duration": 0.087,
      "velocity": 117,
      "chip": "ym2612"
    },
    {
      "channel": 3,
      "note": 86,
      "start": 29.7053,
      "duration": 0.0878,
      "velocity": 118,
      "chip": "ym2612"
    },
    {
      "channel": 0,
      "note": 64,
      "start": 29.7885,
      "duration": 0.0863,
      "velocity": 117,
      "chip": "ym2612"
    },
    {
      "channel": 1,
      "note": 88,
      "start": 29.7906,
      "duration": 0.0848,
      "velocity": 107,
      "chip": "ym2612"
    },
    {
      "channel": 2,
      "note": 90,
      "start": 29.7928,
      "duration": 0.0848,
      "velocity": 1,
      "chip": "ym2612"
    },
    {
      "channel": 3,
      "note": 86,
      "start": 29.7933,
      "duration": 0.0864,
      "velocity": 118,
      "chip": "ym2612"
    },
    {
      "channel": 0,
      "note": 54,
      "start": 29.875,
      "duration": 0.315,
      "velocity": 117,
      "chip": "ym2612"
    },
    {
      "channel": 1,
      "note": 90,
      "start": 29.8756,
      "duration": 0.3165,
      "velocity": 107,
      "chip": "ym2612"
    },
    {
      "channel": 2,
      "note": 91,
      "start": 29.8778,
      "duration": 0.0853,
      "velocity": 107,
      "chip": "ym2612"
    },
    {
      "channel": 3,
      "note": 86,
      "start": 29.8799,
      "duration": 0.0852,
      "velocity": 118,
      "chip": "ym2612"
    },
    {
      "channel": 2,
      "note": 88,
      "start": 29.9632,
      "duration": 0.0953,
      "velocity": 107,
      "chip": "ym2612"
    },
    {
      "channel": 3,
      "note": 86,
      "start": 29.9653,
      "duration": 0.0937,
      "velocity": 118,
      "chip": "ym2612"
    },
    {
      "channel": 2,
      "note": 90,
      "start": 30.0586,
      "duration": 0.3046,
      "velocity": 107,
      "chip": "ym2612"
    },
    {
      "channel": 3,
      "note": 86,
      "start": 30.0592,
      "duration": 0.1335,
      "velocity": 118,
      "chip": "ym2612"
    },
    {
      "channel": 0,
      "note": 54,
      "start": 30.1902,
      "duration": 0.0841,
      "velocity": 117,
      "chip": "ym2612"
    },
    {
      "channel": 1,
      "note": 90,
      "start": 30.1923,
      "duration": 0.0826,
      "velocity": 107,
      "chip": "ym2612"
    },
    {
      "channel": 3,
      "note": 86,
      "start": 30.1929,
      "duration": 0.0857,
      "velocity": 118,
      "chip": "ym2612"
    },
    {
      "channel": 0,
      "note": 66,
      "start": 30.2745,
      "duration": 0.1893,
      "velocity": 117,
      "chip": "ym2612"
    },
    {
      "channel": 1,
      "note": 93,
      "start": 30.275,
      "duration": 0.0861,
      "velocity": 107,
      "chip": "ym2612"
    },
    {
      "channel": 3,
      "note": 86,
      "start": 30.2788,
      "duration": 0.0865,
      "velocity": 118,
      "chip": "ym2612"
    },
    {
      "channel": 1,
      "note": 90,
      "start": 30.3612,
      "duration": 0.2213,
      "velocity": 107,
      "chip": "ym2612"
    },
    {
      "channel": 2,
      "note": 90,
      "start": 30.3634,
      "duration": 0.1027,
      "velocity": 107,
      "chip": "ym2612"
    },
    {
      "channel": 3,
      "note": 86,
      "start": 30.3656,
      "duration": 0.101,
      "velocity": 118,
      "chip": "ym2612"
    },
    {
      "channel": 0,
      "note": 61,
      "start": 30.4639,
      "duration": 0.1165,
      "velocity": 117,
      "chip": "ym2612"
    },
    {
      "channel": 2,
      "note": 93,
      "start": 30.4661,
      "duration": 0.117,
      "velocity": 107,
      "chip": "ym2612"
    },
    {
      "channel": 3,
      "note": 86,
      "start": 30.4667,
      "duration": 0.1169,
      "velocity": 118,
      "chip": "ym2612"
    },
    {
      "channel": 0,
      "note": 64,
      "start": 30.5806,
      "duration": 0.188,
      "velocity": 117,
      "chip": "ym2612"
    },
    {
      "channel": 1,
      "note": 95,
      "start": 30.5827,
      "duration": 0.188,
      "velocity": 107,
      "chip": "ym2612"
    },
    {
      "channel": 2,
      "note": 90,
      "start": 30.5833,
      "duration": 0.1896,
      "velocity": 107,
      "chip": "ym2612"
    },
    {
      "channel": 3,
      "note": 86,
      "start": 30.5838,
      "duration": 0.1025,
      "velocity": 118,
      "chip": "ym2612"
    },
    {
      "channel": 3,
      "note": 86,
      "start": 30.6865,
      "duration": 0.0885,
      "velocity": 118,
      "chip": "ym2612"
    },
    {
      "channel": 0,
      "note": 64,
      "start": 30.7688,
      "duration": 0.1718,
      "velocity": 117,
      "chip": "ym2612"
    },
    {
      "channel": 1,
      "note": 90,
      "start": 30.7709,
      "duration": 0.1718,
      "velocity": 107,
      "chip": "ym2612"
    },
    {
      "channel": 2,
      "note": 95,
      "start": 30.773,
      "duration": 0.1718,
      "velocity": 107,
      "chip": "ym2612"
    },
    {
      "channel": 3,
      "note": 86,
      "start": 30.7752,
      "duration": 0.0831,
      "velocity": 118,
      "chip": "ym2612"
    },
    {
      "channel": 3,
      "note": 86,
      "start": 30.8585,
      "duration": 0.0869,
      "velocity": 118,
      "chip": "ym2612"
    },
    {
      "channel": 0,
      "note": 57,
      "start": 30.9407,
      "duration": 0.0859,
      "velocity": 117,
      "chip": "ym2612"
    },
    {
      "channel": 1,
      "note": 97,
      "start": 30.9428,
      "duration": 0.1854,
      "velocity": 107,
      "chip": "ym2612"
    },
    {
      "channel": 2,
      "note": 90,
      "start": 30.945,
      "duration": 0.1854,
      "velocity": 107,
      "chip": "ym2612"
    },
    {
      "channel": 3,
      "note": 86,
      "start": 30.9456,
      "duration": 0.0866,
      "velocity": 118,
      "chip": "ym2612"
    },
    {
      "channel": 0,
      "note": 59,
      "start": 31.0268,
      "duration": 0.2068,
      "velocity": 117,
      "chip": "ym2612"
    },
    {
      "channel": 3,
      "note": 86,
      "start": 31.0324,
      "duration": 0.1002,
      "velocity": 118,
      "chip": "ym2612"
    },
    {
      "channel": 1,
      "note": 90,
      "start": 31.1284,
      "duration": 0.1929,
      "velocity": 107,
      "chip": "ym2612"
    },
    {
      "channel": 2,
      "note": 97,
      "start": 31.1306,
      "duration": 0.1929,
      "velocity": 107,
      "chip": "ym2612"
    },
    {
      "channel": 3,
      "note": 86,
      "start": 31.1327,
      "duration": 0.1049,
      "velocity": 118,
      "chip": "ym2612"
    },
    {
      "channel": 0,
      "note": 52,
      "start": 31.2337,
      "duration": 0.173,
      "velocity": 117,
      "chip": "ym2612"
    },
    {
      "channel": 3,
      "note": 86,
      "start": 31.2378,
      "duration": 0.0862,
      "velocity": 118,
      "chip": "ym2612"
    },
    {
      "channel": 1,
      "note": 88,
      "start": 31.3214,
      "duration": 0.0858,
      "velocity": 107,
      "chip": "ym2612"
    },
    {
      "channel": 2,
      "note": 90,
      "start": 31.3236,
      "duration": 0.1718,
      "velocity": 107,
      "chip": "ym2612"
    },
    {
      "channel": 3,
      "note": 86,
      "start": 31.3242,
      "duration": 0.0869,
      "velocity": 118,
      "chip": "ym2612"
    },
    {
      "channel": 0,
      "note": 54,
      "start": 31.4068,
      "duration": 0.3153,
      "velocity": 117,
      "chip": "ym2612"
    },
    {
      "channel": 1,
      "note": 90,
      "start": 31.4074,
      "duration": 0.3168,
      "velocity": 107,
      "chip": "ym2612"
    },
    {
      "channel": 3,
      "note": 86,
      "start": 31.4113,
      "duration": 0.0862,
      "velocity": 118,
      "chip": "ym2612"
    },
    {
      "channel": 2,
      "note": 88,
      "start": 31.4955,
      "duration": 0.1117,
      "velocity": 107,
      "chip": "ym2612"
    },
    {
      "channel": 3,
      "note": 86,
      "start": 31.4977,
      "duration": 0.1102,
      "velocity": 118,
      "chip": "ym2612"
    },
    {
      "channel": 2,
      "note": 90,
      "start": 31.6075,
      "duration": 0.3487,
      "velocity": 107,
      "chip": "ym2612"
    },
    {
      "channel": 3,
      "note": 86,
      "start": 31.608,
      "duration": 0.1168,
      "velocity": 118,
      "chip": "ym2612"
    },
    {
      "channel": 0,
      "note": 54,
      "start": 31.7223,
      "duration": 0.115,
      "velocity": 117,
      "chip": "ym2612"
    },
    {
      "channel": 1,
      "note": 90,
      "start": 31.7244,
      "duration": 0.1134,
      "velocity": 107,
      "chip": "ym2612"
    },
    {
      "channel": 3,
      "note": 86,
      "start": 31.725,
      "duration": 0.1166,
      "velocity": 118,
      "chip": "ym2612"
    },
    {
      "channel": 0,
      "note": 66,
      "start": 31.8374,
      "duration": 0.2332,
      "velocity": 117,
      "chip": "ym2612"
    },
    {
      "channel": 1,
      "note": 93,
      "start": 31.8379,
      "duration": 0.116,
      "velocity": 107,
      "chip": "ym2612"
    },
    {
      "channel": 3,
      "note": 86,
      "start": 31.8418,
      "duration": 0.1164,
      "velocity": 118,
      "chip": "ym2612"
    },
    {
      "channel": 1,
      "note": 90,
      "start": 31.9541,
      "duration": 0.2519,
      "velocity": 107,
      "chip": "ym2612"
    },
    {
      "channel": 2,
      "note": 90,
      "start": 31.9562,
      "duration": 0.1166,
      "velocity": 107,
      "chip": "ym2612"
    },
    {
      "channel": 3,
      "note": 86,
      "start": 31.9584,
      "duration": 0.1149,
      "velocity": 118,
      "chip": "ym2612"
    },
    {
      "channel": 0,
      "note": 61,
      "start": 32.0707,
      "duration": 0.1332,
      "velocity": 117,
      "chip": "ym2612"
    },
    {
      "channel": 2,
      "note": 93,
      "start": 32.073,
      "duration": 0.1336,
      "velocity": 107,
      "chip": "ym2612"
    },
    {
      "channel": 3,
      "note": 86,
      "start": 32.0735,
      "duration": 0.1336,
      "velocity": 118,
      "chip": "ym2612"
    },
    {
      "channel": 0,
      "note": 64,
      "start": 32.2041,
      "duration": 0.2347,
      "velocity": 117,
      "chip": "ym2612"
    },
    {
      "channel": 1,
      "note": 95,
      "start": 32.2062,
      "duration": 0.2347,
      "velocity": 107,
      "chip": "ym2612"
    },
    {
      "channel": 2,
      "note": 90,
      "start": 32.2068,
      "duration": 0.2363,
      "velocity": 107,
      "chip": "ym2612"
    },
    {
      "channel": 3,
      "note": 86,
      "start": 32.2073,
      "duration": 0.12,
      "velocity": 118,
      "chip": "ym2612"
    },
    {
      "channel": 3,
      "note": 86,
      "start": 32.3275,
      "duration": 0.1178,
      "velocity": 118,
      "chip": "ym2612"
    },
    {
      "channel": 0,
      "note": 64,
      "start": 32.439,
      "duration": 0.2332,
      "velocity": 117,
      "chip": "ym2612"
    },
    {
      "channel": 1,
      "note": 90,
      "start": 32.4411,
      "duration": 0.2332,
      "velocity": 107,
      "chip": "ym2612"
    },
    {
      "channel": 2,
      "note": 95,
      "start": 32.4433,
      "duration": 0.2332,
      "velocity": 107,
      "chip": "ym2612"
    },
    {
      "channel": 3,
      "note": 86,
      "start": 32.4454,
      "duration": 0.1136,
      "velocity": 118,
      "chip": "ym2612"
    },
    {
      "channel": 3,
      "note": 86,
      "start": 32.5592,
      "duration": 0.1178,
      "velocity": 118,
      "chip": "ym2612"
    },
    {
      "channel": 0,
      "note": 57,
      "start": 32.6723,
      "duration": 0.098,
      "velocity": 117,
      "chip": "ym2612"
    },
    {
      "channel": 1,
      "note": 97,
      "start": 32.6744,
      "duration": 0.1852,
      "velocity": 107,
      "chip": "ym2612"
    },
    {
      "channel": 2,
      "note": 90,
      "start": 32.6766,
      "duration": 0.1852,
      "velocity": 107,
      "chip": "ym2612"
    },
    {
      "channel": 3,
      "note": 86,
      "start": 32.6772,
      "duration": 0.0987,
      "velocity": 118,
      "chip": "ym2612"
    },
    {
      "channel": 0,
      "note": 59,
      "start": 32.7704,
      "duration": 0.1745,
      "velocity": 117,
      "chip": "ym2612"
    },
    {
      "channel": 3,
      "note": 86,
      "start": 32.776,
      "duration": 0.0879,
      "velocity": 118,
      "chip": "ym2612"
    },
    {
      "channel": 1,
      "note": 90,
      "start": 32.8598,
      "duration": 0.1732,
      "velocity": 107,
      "chip": "ym2612"
    },
    {
      "channel": 2,
      "note": 97,
      "start": 32.862,
      "duration": 0.1732,
      "velocity": 107,
      "chip": "ym2612"
    },
    {
      "channel": 3,
      "note": 86,
      "start": 32.8642,
      "duration": 0.0848,
      "velocity": 118,
      "chip": "ym2612"
    },
    {
      "channel": 0,
      "note": 61,
      "start": 32.9451,
      "duration": 0.0858,
      "velocity": 117,
      "chip": "ym2612"
    },
    {
      "channel": 3,
      "note": 86,
      "start": 32.9491,
      "duration": 0.0867,
      "velocity": 118,
      "chip": "ym2612"
    },
    {
      "channel": 0,
      "note": 64,
      "start": 33.0311,
      "duration": 0.0935,
      "velocity": 117,
      "chip": "ym2612"
    },
    {
      "channel": 1,
      "note": 88,
      "start": 33.0332,
      "duration": 0.092,
      "velocity": 107,
      "chip": "ym2612"
    },
    {
      "channel": 2,
      "note": 90,
      "start": 33.0353,
      "duration": 0.29,
      "velocity": 107,
      "chip": "ym2612"
    },
    {
      "channel": 3,
      "note": 86,
      "start": 33.0359,
      "duration": 0.0915,
      "velocity": 118,
      "chip": "ym2612"
    },
    {
      "channel": 0,
      "note": 54,
      "start": 33.1247,
      "duration": 0.3153,
      "velocity": 117,
      "chip": "ym2612"
    },
    {
      "channel": 1,
      "note": 90,
      "start": 33.1253,
      "duration": 0.3168,
      "velocity": 107,
      "chip": "ym2612"
    },
    {
      "channel": 3,
      "note": 86,
      "start": 33.1275,
      "duration": 0.0976,
      "velocity": 118,
      "chip": "ym2612"
    },
    {
      "channel": 3,
      "note": 86,
      "start": 33.2253,
      "duration": 0.1005,
      "velocity": 118,
      "chip": "ym2612"
    },
    {
      "channel": 2,
      "note": 90,
      "start": 33.3254,
      "duration": 0.2872,
      "velocity": 107,
      "chip": "ym2612"
    },
    {
      "channel": 3,
      "note": 86,
      "start": 33.326,
      "duration": 0.1168,
      "velocity": 118,
      "chip": "ym2612"
    },
    {
      "channel": 0,
      "note": 54,
      "start": 33.4402,
      "duration": 0.0838,
      "velocity": 117,
      "chip": "ym2612"
    },
    {
      "channel": 1,
      "note": 90,
      "start": 33.4424,
      "duration": 0.0822,
      "velocity": 107,
      "chip": "ym2612"
    },
    {
      "channel": 3,
      "note": 86,
      "start": 33.443,
      "duration": 0.0854,
      "velocity": 118,
      "chip": "ym2612"
    },
    {
      "channel": 0,
      "note": 66,
      "start": 33.5242,
      "duration": 0.206,
      "velocity": 117,
      "chip": "ym2612"
    },
    {
      "channel": 1,
      "note": 93,
      "start": 33.5247,
      "duration": 0.0858,
      "velocity": 107,
      "chip": "ym2612"
    },
    {
      "channel": 3,
      "note": 86,
      "start": 33.5286,
      "duration": 0.0862,
      "velocity": 118,
      "chip": "ym2612"
    },
    {
      "channel": 1,
      "note": 90,
      "start": 33.6107,
      "duration": 0.2383,
      "velocity": 107,
      "chip": "ym2612"
    },
    {
      "channel": 2,
      "note": 90,
      "start": 33.6129,
      "duration": 0.1196,
      "velocity": 107,
      "chip": "ym2612"
    },
    {
      "channel": 3,
      "note": 86,
      "start": 33.615,
      "duration": 0.1179,
      "velocity": 118,
      "chip": "ym2612"
    },
    {
      "channel": 0,
      "note": 61,
      "start": 33.7304,
      "duration": 0.1165,
      "velocity": 117,
      "chip": "ym2612"
    },
    {
      "channel": 2,
      "note": 93,
      "start": 33.7326,
      "duration": 0.117,
      "velocity": 107,
      "chip": "ym2612"
    },
    {
      "channel": 3,
      "note": 86,
      "start": 33.7332,
      "duration": 0.1169,
      "velocity": 118,
      "chip": "ym2612"
    },
    {
      "channel": 0,
      "note": 64,
      "start": 33.847,
      "duration": 0.1756,
      "velocity": 117,
      "chip": "ym2612"
    },
    {
      "channel": 1,
      "note": 95,
      "start": 33.8492,
      "duration": 0.1756,
      "velocity": 107,
      "chip": "ym2612"
    },
    {
      "channel": 2,
      "note": 90,
      "start": 33.8497,
      "duration": 0.1772,
      "velocity": 107,
      "chip": "ym2612"
    },
    {
      "channel": 3,
      "note": 86,
      "start": 33.8503,
      "duration": 0.0903,
      "velocity": 118,
      "chip": "ym2612"
    },
    {
      "channel": 3,
      "note": 86,
      "start": 33.9408,
      "duration": 0.0883,
      "velocity": 118,
      "chip": "ym2612"
    },
    {
      "channel": 0,
      "note": 64,
      "start": 34.0228,
      "duration": 0.184,
      "velocity": 117,
      "chip": "ym2612"
    },
    {
      "channel": 1,
      "note": 90,
      "start": 34.0249,
      "duration": 0.1841,
      "velocity": 107,
      "chip": "ym2612"
    },
    {
      "channel": 2,
      "note": 95,
      "start": 34.0271,
      "duration": 0.1841,
      "velocity": 107,
      "chip": "ym2612"
    },
    {
      "channel": 3,
      "note": 86,
      "start": 34.0292,
      "duration": 0.0833,
      "velocity": 118,
      "chip": "ym2612"
    },
    {
      "channel": 3,
      "note": 86,
      "start": 34.1127,
      "duration": 0.099,
      "velocity": 118,
      "chip": "ym2612"
    },
    {
      "channel": 0,
      "note": 57,
      "start": 34.207,
      "duration": 0.0905,
      "velocity": 117,
      "chip": "ym2612"
    },
    {
      "channel": 1,
      "note": 97,
      "start": 34.2091,
      "duration": 0.1772,
      "velocity": 107,
      "chip": "ym2612"
    },
    {
      "channel": 2,
      "note": 90,
      "start": 34.2113,
      "duration": 0.1772,
      "velocity": 107,
      "chip": "ym2612"
    },
    {
      "channel": 3,
      "note": 86,
      "start": 34.2118,
      "duration": 0.0912,
      "velocity": 118,
      "chip": "ym2612"
    },
    {
      "channel": 0,
      "note": 59,
      "start": 34.2976,
      "duration": 0.1895,
      "velocity": 117,
      "chip": "ym2612"
    },
    {
      "channel": 3,
      "note": 86,
      "start": 34.3032,
      "duration": 0.0874,
      "velocity": 118,
      "chip": "ym2612"
    },
    {
      "channel": 1,
      "note": 90,
      "start": 34.3865,
      "duration": 0.1892,
      "velocity": 107,
      "chip": "ym2612"
    },
    {
      "channel": 2,
      "note": 97,
      "start": 34.3886,
      "duration": 0.1892,
      "velocity": 107,
      "chip": "ym2612"
    },
    {
      "channel": 3,
      "note": 86,
      "start": 34.3908,
      "duration": 0.1003,
      "velocity": 118,
      "chip": "ym2612"
    },
    {
      "channel": 0,
      "note": 52,
      "start": 34.4873,
      "duration": 0.1905,
      "velocity": 117,
      "chip": "ym2612"
    },
    {
      "channel": 3,
      "note": 86,
      "start": 34.4913,
      "duration": 0.0871,
      "velocity": 118,
      "chip": "ym2612"
    },
    {
      "channel": 1,
      "note": 88,
      "start": 34.5758,
      "duration": 0.1024,
      "velocity": 107,
      "chip": "ym2612"
    },
    {
      "channel": 2,
      "note": 90,
      "start": 34.578,
      "duration": 0.1885,
      "velocity": 107,
      "chip": "ym2612"
    },
    {
      "channel": 3,
      "note": 86,
      "start": 34.5786,
      "duration": 0.1036,
      "velocity": 118,
      "chip": "ym2612"
    },
    {
      "channel": 0,
      "note": 54,
      "start": 34.6779,
      "duration": 0.2991,
      "velocity": 117,
      "chip": "ym2612"
    },
    {
      "channel": 1,
      "note": 90,
      "start": 34.6784,
      "duration": 0.3006,
      "velocity": 107,
      "chip": "ym2612"
    },
    {
      "channel": 3,
      "note": 86,
      "start": 34.6823,
      "duration": 0.0863,
      "velocity": 118,
      "chip": "ym2612"
    },
    {
      "channel": 2,
      "note": 88,
      "start": 34.7666,
      "duration": 0.0956,
      "velocity": 107,
      "chip": "ym2612"
    },
    {
      "channel": 3,
      "note": 86,
      "start": 34.7688,
      "duration": 0.0939,
      "velocity": 118,
      "chip": "ym2612"
    },
    {
      "channel": 2,
      "note": 90,
      "start": 34.8623,
      "duration": 0.2998,
      "velocity": 107,
      "chip": "ym2612"
    },
    {
      "channel": 3,
      "note": 86,
      "start": 34.8629,
      "duration": 0.1168,
      "velocity": 118,
      "chip": "ym2612"
    },
    {
      "channel": 0,
      "note": 54,
      "start": 34.9772,
      "duration": 0.0838,
      "velocity": 117,
      "chip": "ym2612"
    },
    {
      "channel": 1,
      "note": 90,
      "start": 34.9793,
      "duration": 0.0822,
      "velocity": 107,
      "chip": "ym2612"
    },
    {
      "channel": 3,
      "note": 86,
      "start": 34.9799,
      "duration": 0.0854,
      "velocity": 118,
      "chip": "ym2612"
    },
    {
      "channel": 0,
      "note": 66,
      "start": 35.0611,
      "duration": 0.2063,
      "velocity": 117,
      "chip": "ym2612"
    },
    {
      "channel": 1,
      "note": 93,
      "start": 35.0616,
      "duration": 0.0983,
      "velocity": 107,
      "chip": "ym2612"
    },
    {
      "channel": 3,
      "note": 86,
      "start": 35.0655,
      "duration": 0.0987,
      "velocity": 118,
      "chip": "ym2612"
    },
    {
      "channel": 1,
      "note": 90,
      "start": 35.1602,
      "duration": 0.2261,
      "velocity": 107,
      "chip": "ym2612"
    },
    {
      "channel": 2,
      "note": 90,
      "start": 35.1622,
      "duration": 0.1074,
      "velocity": 107,
      "chip": "ym2612"
    },
    {
      "channel": 3,
      "note": 86,
      "start": 35.1644,
      "duration": 0.1058,
      "velocity": 118,
      "chip": "ym2612"
    },
    {
      "channel": 0,
      "note": 61,
      "start": 35.2676,
      "duration": 0.1165,
      "velocity": 117,
      "chip": "ym2612"
    },
    {
      "channel": 2,
      "note": 93,
      "start": 35.2698,
      "duration": 0.117,
      "velocity": 107,
      "chip": "ym2612"
    },
    {
      "channel": 3,
      "note": 86,
      "start": 35.2704,
      "duration": 0.1169,
      "velocity": 118,
      "chip": "ym2612"
    },
    {
      "channel": 0,
      "note": 64,
      "start": 35.3842,
      "duration": 0.1763,
      "velocity": 117,
      "chip": "ym2612"
    },
    {
      "channel": 1,
      "note": 95,
      "start": 35.3864,
      "duration": 0.1763,
      "velocity": 107,
      "chip": "ym2612"
    },
    {
      "channel": 2,
      "note": 90,
      "start": 35.3869,
      "duration": 0.1779,
      "velocity": 107,
      "chip": "ym2612"
    },
    {
      "channel": 3,
      "note": 86,
      "start": 35.3875,
      "duration": 0.0907,
      "velocity": 118,
      "chip": "ym2612"
    },
    {
      "channel": 3,
      "note": 86,
      "start": 35.4783,
      "duration": 0.0886,
      "velocity": 118,
      "chip": "ym2612"
    },
    {
      "channel": 0,
      "note": 64,
      "start": 35.5607,
      "duration": 0.1835,
      "velocity": 117,
      "chip": "ym2612"
    },
    {
      "channel": 1,
      "note": 90,
      "start": 35.5628,
      "duration": 0.1836,
      "velocity": 107,
      "chip": "ym2612"
    },
    {
      "channel": 2,
      "note": 95,
      "start": 35.5649,
      "duration": 0.1836,
      "velocity": 107,
      "chip": "ym2612"
    },
    {
      "channel": 3,
      "note": 86,
      "start": 35.5671,
      "duration": 0.0953,
      "velocity": 118,
      "chip": "ym2612"
    },
    {
      "channel": 3,
      "note": 86,
      "start": 35.6626,
      "duration": 0.0864,
      "velocity": 118,
      "chip": "ym2612"
    },
    {
      "channel": 0,
      "note": 57,
      "start": 35.7444,
      "duration": 0.0858,
      "velocity": 117,
      "chip": "ym2612"
    },
    {
      "channel": 1,
      "note": 97,
      "start": 35.7465,
      "duration": 0.173,
      "velocity": 107,
      "chip": "ym2612"
    },
    {
      "channel": 2,
      "note": 90,
      "start": 35.7486,
      "duration": 0.173,
      "velocity": 107,
      "chip": "ym2612"
    },
    {
      "channel": 3,
      "note": 86,
      "start": 35.7492,
      "duration": 0.0865,
      "velocity": 118,
      "chip": "ym2612"
    },
    {
      "channel": 0,
      "note": 59,
      "start": 35.8303,
      "duration": 0.1906,
      "velocity": 117,
      "chip": "ym2612"
    },
    {
      "channel": 3,
      "note": 86,
      "start": 35.8359,
      "duration": 0.0878,
      "velocity": 118,
      "chip": "ym2612"
    },
    {
      "channel": 1,
      "note": 90,
      "start": 35.9197,
      "duration": 0.2025,
      "velocity": 107,
      "chip": "ym2612"
    },
    {
      "channel": 2,
      "note": 97,
      "start": 35.9218,
      "duration": 0.2025,
      "velocity": 107,
      "chip": "ym2612"
    },
    {
      "channel": 3,
      "note": 86,
      "start": 35.924,
      "duration": 0.1009,
      "velocity": 118,
      "chip": "ym2612"
    },
    {
      "channel": 0,
      "note": 61,
      "start": 36.0211,
      "duration": 0.0989,
      "velocity": 117,
      "chip": "ym2612"
    },
    {
      "channel": 3,
      "note": 86,
      "start": 36.0251,
      "duration": 0.0998,
      "velocity": 118,
      "chip": "ym2612"
    },
    {
      "channel": 0,
      "note": 64,
      "start": 36.1202,
      "duration": 0.0867,
      "velocity": 117,
      "chip": "ym2612"
    },
    {
      "channel": 1,
      "note": 88,
      "start": 36.1223,
      "duration": 0.0852,
      "velocity": 107,
      "chip": "ym2612"
    },
    {
      "channel": 2,
      "note": 90,
      "start": 36.1245,
      "duration": 0.0852,
      "velocity": 1,
      "chip": "ym2612"
    },
    {
      "channel": 3,
      "note": 86,
      "start": 36.1251,
      "duration": 0.0868,
      "velocity": 118,
      "chip": "ym2612"
    },
    {
      "channel": 0,
      "note": 54,
      "start": 36.2071,
      "duration": 0.2988,
      "velocity": 117,
      "chip": "ym2612"
    },
    {
      "channel": 1,
      "note": 90,
      "start": 36.2077,
      "duration": 0.3002,
      "velocity": 107,
      "chip": "ym2612"
    },
    {
      "channel": 2,
      "note": 91,
      "start": 36.2099,
      "duration": 0.0854,
      "velocity": 107,
      "chip": "ym2612"
    },
    {
      "channel": 3,
      "note": 86,
      "start": 36.212,
      "duration": 0.0854,
      "velocity": 118,
      "chip": "ym2612"
    },
    {
      "channel": 2,
      "note": 88,
      "start": 36.2954,
      "duration": 0.0956,
      "velocity": 107,
      "chip": "ym2612"
    },
    {
      "channel": 3,
      "note": 86,
      "start": 36.2976,
      "duration": 0.094,
      "velocity": 118,
      "chip": "ym2612"
    },
    {
      "channel": 2,
      "note": 90,
      "start": 36.3912,
      "duration": 0.3002,
      "velocity": 107,
      "chip": "ym2612"
    },
    {
      "channel": 3,
      "note": 86,
      "start": 36.3917,
      "duration": 0.1168,
      "velocity": 118,
      "chip": "ym2612"
    },
    {
      "channel": 0,
      "note": 54,
      "start": 36.5061,
      "duration": 0.0957,
      "velocity": 117,
      "chip": "ym2612"
    },
    {
      "channel": 1,
      "note": 90,
      "start": 36.5082,
      "duration": 0.0941,
      "velocity": 107,
      "chip": "ym2612"
    },
    {
      "channel": 3,
      "note": 86,
      "start": 36.5088,
      "duration": 0.0973,
      "velocity": 118,
      "chip": "ym2612"
    },
    {
      "channel": 0,
      "note": 66,
      "start": 36.6019,
      "duration": 0.1898,
      "velocity": 117,
      "chip": "ym2612"
    },
    {
      "channel": 1,
      "note": 93,
      "start": 36.6024,
      "duration": 0.0867,
      "velocity": 107,
      "chip": "ym2612"
    },
    {
      "channel": 3,
      "note": 86,
      "start": 36.6063,
      "duration": 0.0871,
      "velocity": 118,
      "chip": "ym2612"
    },
    {
      "channel": 1,
      "note": 90,
      "start": 36.6894,
      "duration": 0.2212,
      "velocity": 107,
      "chip": "ym2612"
    },
    {
      "channel": 2,
      "note": 90,
      "start": 36.6915,
      "duration": 0.1025,
      "velocity": 107,
      "chip": "ym2612"
    },
    {
      "channel": 3,
      "note": 86,
      "start": 36.6936,
      "duration": 0.1009,
      "velocity": 118,
      "chip": "ym2612"
    },
    {
      "channel": 0,
      "note": 61,
      "start": 36.7919,
      "duration": 0.1165,
      "velocity": 117,
      "chip": "ym2612"
    },
    {
      "channel": 2,
      "note": 93,
      "start": 36.7941,
      "duration": 0.117,
      "velocity": 107,
      "chip": "ym2612"
    },
    {
      "channel": 3,
      "note": 86,
      "start": 36.7947,
      "duration": 0.1169,
      "velocity": 118,
      "chip": "ym2612"
    },
    {
      "channel": 0,
      "note": 64,
      "start": 36.9085,
      "duration": 0.1882,
      "velocity": 117,
      "chip": "ym2612"
    },
    {
      "channel": 1,
      "note": 95,
      "start": 36.9107,
      "duration": 0.1882,
      "velocity": 107,
      "chip": "ym2612"
    },
    {
      "channel": 2,
      "note": 90,
      "start": 36.9112,
      "duration": 0.1898,
      "velocity": 107,
      "chip": "ym2612"
    },
    {
      "channel": 3,
      "note": 86,
      "start": 36.9118,
      "duration": 0.0906,
      "velocity": 118,
      "chip": "ym2612"
    },
    {
      "channel": 3,
      "note": 86,
      "start": 37.0026,
      "duration": 0.1005,
      "velocity": 118,
      "chip": "ym2612"
    },
    {
      "channel": 0,
      "note": 64,
      "start": 37.0969,
      "duration": 0.1719,
      "velocity": 117,
      "chip": "ym2612"
    },
    {
      "channel": 1,
      "note": 90,
      "start": 37.099,
      "duration": 0.172,
      "velocity": 107,
      "chip": "ym2612"
    },
    {
      "channel": 2,
      "note": 95,
      "start": 37.1012,
      "duration": 0.172,
      "velocity": 107,
      "chip": "ym2612"
    },
    {
      "channel": 3,
      "note": 86,
      "start": 37.1033,
      "duration": 0.0833,
      "velocity": 118,
      "chip": "ym2612"
    },
    {
      "channel": 3,
      "note": 86,
      "start": 37.1868,
      "duration": 0.0869,
      "velocity": 118,
      "chip": "ym2612"
    },
    {
      "channel": 0,
      "note": 57,
      "start": 37.269,
      "duration": 0.0858,
      "velocity": 117,
      "chip": "ym2612"
    },
    {
      "channel": 1,
      "note": 97,
      "start": 37.2711,
      "duration": 0.173,
      "velocity": 107,
      "chip": "ym2612"
    },
    {
      "channel": 2,
      "note": 90,
      "start": 37.2733,
      "duration": 0.173,
      "velocity": 107,
      "chip": "ym2612"
    },
    {
      "channel": 3,
      "note": 86,
      "start": 37.2739,
      "duration": 0.0865,
      "velocity": 118,
      "chip": "ym2612"
    },
    {
      "channel": 0,
      "note": 59,
      "start": 37.355,
      "duration": 0.2073,
      "velocity": 117,
      "chip": "ym2612"
    },
    {
      "channel": 3,
      "note": 86,
      "start": 37.3606,
      "duration": 0.0879,
      "velocity": 118,
      "chip": "ym2612"
    },
    {
      "channel": 1,
      "note": 90,
      "start": 37.4444,
      "duration": 0.2068,
      "velocity": 107,
      "chip": "ym2612"
    },
    {
      "channel": 2,
      "note": 97,
      "start": 37.4465,
      "duration": 0.2068,
      "velocity": 107,
      "chip": "ym2612"
    },
    {
      "channel": 3,
      "note": 86,
      "start": 37.4487,
      "duration": 0.1176,
      "velocity": 118,
      "chip": "ym2612"
    },
    {
      "channel": 0,
      "note": 52,
      "start": 37.5624,
      "duration": 0.1741,
      "velocity": 117,
      "chip": "ym2612"
    },
    {
      "channel": 3,
      "note": 86,
      "start": 37.5664,
      "duration": 0.0874,
      "velocity": 118,
      "chip": "ym2612"
    },
    {
      "channel": 1,
      "note": 88,
      "start": 37.6513,
      "duration": 0.0858,
      "velocity": 107,
      "chip": "ym2612"
    },
    {
      "channel": 2,
      "note": 90,
      "start": 37.6534,
      "duration": 0.1718,
      "velocity": 107,
      "chip": "ym2612"
    },
    {
      "channel": 3,
      "note": 86,
      "start": 37.654,
      "duration": 0.0869,
      "velocity": 118,
      "chip": "ym2612"
    },
    {
      "channel": 0,
      "note": 66,
      "start": 37.7367,
      "duration": 0.0863,
      "velocity": 117,
      "chip": "ym2612"
    },
    {
      "channel": 1,
      "note": 90,
      "start": 37.7373,
      "duration": 0.3159,
      "velocity": 107,
      "chip": "ym2612"
    },
    {
      "channel": 3,
      "note": 86,
      "start": 37.7411,
      "duration": 0.0862,
      "velocity": 118,
      "chip": "ym2612"
    },
    {
      "channel": 0,
      "note": 64,
      "start": 37.8232,
      "duration": 0.2278,
      "velocity": 117,
      "chip": "ym2612"
    },
    {
      "channel": 2,
      "note": 88,
      "start": 37.8254,
      "duration": 0.0941,
      "velocity": 107,
      "chip": "ym2612"
    },
    {
      "channel": 3,
      "note": 86,
      "start": 37.8276,
      "duration": 0.0925,
      "velocity": 118,
      "chip": "ym2612"
    },
    {
      "channel": 2,
      "note": 90,
      "start": 37.9197,
      "duration": 0.367,
      "velocity": 107,
      "chip": "ym2612"
    },
    {
      "channel": 3,
      "note": 86,
      "start": 37.9202,
      "duration": 0.1335,
      "velocity": 118,
      "chip": "ym2612"
    },
    {
      "channel": 0,
      "note": 61,
      "start": 38.0511,
      "duration": 0.115,
      "velocity": 117,
      "chip": "ym2612"
    },
    {
      "channel": 1,
      "note": 90,
      "start": 38.0532,
      "duration": 0.1134,
      "velocity": 107,
      "chip": "ym2612"
    },
    {
      "channel": 3,
      "note": 86,
      "start": 38.0539,
      "duration": 0.1167,
      "velocity": 118,
      "chip": "ym2612"
    },
    {
      "channel": 0,
      "note": 60,
      "start": 38.1663,
      "duration": 0.2347,
      "velocity": 117,
      "chip": "ym2612"
    },
    {
      "channel": 1,
      "note": 93,
      "start": 38.1668,
      "duration": 0.1177,
      "velocity": 107,
      "chip": "ym2612"
    },
    {
      "channel": 3,
      "note": 86,
      "start": 38.1707,
      "duration": 0.118,
      "velocity": 118,
      "chip": "ym2612"
    },
    {
      "channel": 1,
      "note": 90,
      "start": 38.2847,
      "duration": 0.2336,
      "velocity": 107,
      "chip": "ym2612"
    },
    {
      "channel": 2,
      "note": 90,
      "start": 38.2868,
      "duration": 0.1165,
      "velocity": 107,
      "chip": "ym2612"
    },
    {
      "channel": 3,
      "note": 86,
      "start": 38.2889,
      "duration": 0.1149,
      "velocity": 118,
      "chip": "ym2612"
    },
    {
      "channel": 0,
      "note": 59,
      "start": 38.4012,
      "duration": 0.1149,
      "velocity": 117,
      "chip": "ym2612"
    },
    {
      "channel": 2,
      "note": 93,
      "start": 38.4034,
      "duration": 0.1153,
      "velocity": 107,
      "chip": "ym2612"
    },
    {
      "channel": 3,
      "note": 86,
      "start": 38.404,
      "duration": 0.1153,
      "velocity": 118,
      "chip": "ym2612"
    },
    {
      "channel": 0,
      "note": 57,
      "start": 38.5163,
      "duration": 0.2514,
      "velocity": 117,
      "chip": "ym2612"
    },
    {
      "channel": 1,
      "note": 95,
      "start": 38.5184,
      "duration": 0.2515,
      "velocity": 107,
      "chip": "ym2612"
    },
    {
      "channel": 2,
      "note": 90,
      "start": 38.519,
      "duration": 0.2531,
      "velocity": 107,
      "chip": "ym2612"
    },
    {
      "channel": 3,
      "note": 86,
      "start": 38.5195,
      "duration": 0.1366,
      "velocity": 118,
      "chip": "ym2612"
    },
    {
      "channel": 3,
      "note": 86,
      "start": 38.6563,
      "duration": 0.1178,
      "velocity": 118,
      "chip": "ym2612"
    },
    {
      "channel": 0,
      "note": 54,
      "start": 38.7679,
      "duration": 0.1149,
      "velocity": 117,
      "chip": "ym2612"
    },
    {
      "channel": 1,
      "note": 90,
      "start": 38.77,
      "duration": 0.2327,
      "velocity": 107,
      "chip": "ym2612"
    },
    {
      "channel": 2,
      "note": 95,
      "start": 38.7721,
      "duration": 0.2328,
      "velocity": 107,
      "chip": "ym2612"
    },
    {
      "channel": 3,
      "note": 86,
      "start": 38.7743,
      "duration": 0.1125,
      "velocity": 118,
      "chip": "ym2612"
    },
    {
      "channel": 0,
      "note": 52,
      "start": 38.8829,
      "duration": 0.2054,
      "velocity": 117,
      "chip": "ym2612"
    },
    {
      "channel": 3,
      "note": 86,
      "start": 38.887,
      "duration": 0.1185,
      "velocity": 118,
      "chip": "ym2612"
    },
    {
      "channel": 1,
      "note": 97,
      "start": 39.0029,
      "duration": 0.1853,
      "velocity": 107,
      "chip": "ym2612"
    },
    {
      "channel": 2,
      "note": 90,
      "start": 39.005,
      "duration": 0.1854,
      "velocity": 107,
      "chip": "ym2612"
    },
    {
      "channel": 3,
      "note": 86,
      "start": 39.0056,
      "duration": 0.0882,
      "velocity": 118,
      "chip": "ym2612"
    },
    {
      "channel": 0,
      "note": 49,
      "start": 39.0884,
      "duration": 0.0977,
      "velocity": 117,
      "chip": "ym2612"
    },
    {
      "channel": 3,
      "note": 86,
      "start": 39.094,
      "duration": 0.0985,
      "velocity": 118,
      "chip": "ym2612"
    },
    {
      "channel": 0,
      "note": 48,
      "start": 39.1863,
      "duration": 0.1765,
      "velocity": 117,
      "chip": "ym2612"
    },
    {
      "channel": 1,
      "note": 90,
      "start": 39.1884,
      "duration": 0.1765,
      "velocity": 107,
      "chip": "ym2612"
    },
    {
      "channel": 2,
      "note": 97,
      "start": 39.1905,
      "duration": 0.1765,
      "velocity": 107,
      "chip": "ym2612"
    },
    {
      "channel": 3,
      "note": 86,
      "start": 39.1927,
      "duration": 0.0864,
      "velocity": 118,
      "chip": "ym2612"
    },
    {
      "channel": 3,
      "note": 86,
      "start": 39.2793,
      "duration": 0.0884,
      "velocity": 118,
      "chip": "ym2612"
    },
    {
      "channel": 0,
      "note": 47,
      "start": 39.363,
      "duration": 0.094,
      "velocity": 107,
      "chip": "ym2612"
    },
    {
      "channel": 1,
      "note": 88,
      "start": 39.3651,
      "duration": 0.0925,
      "velocity": 107,
      "chip": "ym2612"
    },
    {
      "channel": 2,
      "note": 90,
      "start": 39.3672,
      "duration": 0.0925,
      "velocity": 117,
      "chip": "ym2612"
    },
    {
      "channel": 3,
      "note": 86,
      "start": 39.3678,
      "duration": 0.3442,
      "velocity": 114,
      "chip": "ym2612"
    },
    {
      "channel": 0,
      "note": 93,
      "start": 39.4571,
      "duration": 0.1148,
      "velocity": 107,
      "chip": "ym2612"
    },
    {
      "channel": 1,
      "note": 88,
      "start": 39.4578,
      "duration": 0.1147,
      "velocity": 107,
      "chip": "ym2612"
    },
    {
      "channel": 2,
      "note": 57,
      "start": 39.4599,
      "duration": 0.1131,
      "velocity": 117,
      "chip": "ym2612"
    },
    {
      "channel": 0,
      "note": 91,
      "start": 39.5721,
      "duration": 0.2515,
      "velocity": 107,
      "chip": "ym2612"
    },
    {
      "channel": 1,
      "note": 86,
      "start": 39.5727,
      "duration": 0.253,
      "velocity": 107,
      "chip": "ym2612"
    },
    {
      "channel": 2,
      "note": 55,
      "start": 39.5732,
      "duration": 0.2546,
      "velocity": 117,
      "chip": "ym2612"
    },
    {
      "channel": 3,
      "note": 71,
      "start": 39.7122,
      "duration": 0.1161,
      "velocity": 114,
      "chip": "ym2612"
    },
    {
      "channel": 0,
      "note": 88,
      "start": 39.8237,
      "duration": 8.7702,
      "velocity": 1,
      "chip": "ym2612"
    },
    {
      "channel": 1,
      "note": 83,
      "start": 39.8259,
      "duration": 8.768,
      "velocity": 1,
      "chip": "ym2612"
    },
    {
      "channel": 2,
      "note": 52,
      "start": 39.8279,
      "duration": 8.766,
      "velocity": 1,
      "chip": "ym2612"
    },
    {
      "channel": 3,
      "note": 74,
      "start": 39.8285,
      "duration": 8.7654,
      "velocity": 1,
      "chip": "ym2612"
    }
  ]
}