{
  "track_name": "02 - Emerald Forest",
  "duration_sec": 35.595,
  "sample_rate": 44100,
  "note_count": 418,
  "unique_pitches": 30,
  "pitch_range": 51,
  "avg_note_duration": 0.2669,
  "reconstruction_stats": {
    "notes_reconstructed": 418,
    "keyon_events": 418,
    "keyoff_events": 389,
    "orphan_keyons": 3,
    "unique_pitches": 30,
    "pitch_range": 51,
    "avg_duration_sec": 0.2669
  },
  "metadata": {
    "source": "S\\Socket\\02 - Emerald Forest.vgz"
  },
  "notes": [
    {
      "channel": 1,
      "note": 73,
      "start": 0.0,
      "duration": 0.0,
      "velocity": 1,
      "chip": "ym2612"
    },
    {
      "channel": 4,
      "note": 55,
      "start": 0.0,
      "duration": 0.0,
      "velocity": 1,
      "chip": "ym2612"
    },
    {
      "channel": 4,
      "note": 56,
      "start": 0.0001,
      "duration": 0.0108,
      "velocity": 97,
      "chip": "ym2612"
    },
    {
      "channel": 4,
      "note": 57,
      "start": 0.0111,
      "duration": 0.0099,
      "velocity": 97,
      "chip": "ym2612"
    },
    {
      "channel": 2,
      "note": 73,
      "start": 0.0206,
      "duration": 0.0496,
      "velocity": 89,
      "chip": "ym2612"
    },
    {
      "channel": 4,
      "note": 57,
      "start": 0.0211,
      "duration": 0.0122,
      "velocity": 97,
      "chip": "ym2612"
    },
    {
      "channel": 0,
      "note": 76,
      "start": 0.0456,
      "duration": 0.0492,
      "velocity": 96,
      "chip": "ym2612"
    },
    {
      "channel": 4,
      "note": 57,
      "start": 0.0463,
      "duration": 0.0134,
      "velocity": 97,
      "chip": "ym2612"
    },
    {
      "channel": 2,
      "note": 45,
      "start": 0.0705,
      "duration": 0.0249,
      "velocity": 89,
      "chip": "ym2612"
    },
    {
      "channel": 4,
      "note": 57,
      "start": 0.071,
      "duration": 0.0125,
      "velocity": 97,
      "chip": "ym2612"
    },
    {
      "channel": 1,
      "note": 76,
      "start": 0.083,
      "duration": 0.0523,
      "velocity": 96,
      "chip": "ym2612"
    },
    {
      "channel": 0,
      "note": 81,
      "start": 0.095,
      "duration": 0.0521,
      "velocity": 96,
      "chip": "ym2612"
    },
    {
      "channel": 2,
      "note": 45,
      "start": 0.0956,
      "duration": 0.0521,
      "velocity": 89,
      "chip": "ym2612"
    },
    {
      "channel": 4,
      "note": 57,
      "start": 0.0961,
      "duration": 0.0128,
      "velocity": 97,
      "chip": "ym2612"
    },
    {
      "channel": 4,
      "note": 57,
      "start": 0.1227,
      "duration": 0.0133,
      "velocity": 97,
      "chip": "ym2612"
    },
    {
      "channel": 1,
      "note": 81,
      "start": 0.1356,
      "duration": 0.05,
      "velocity": 96,
      "chip": "ym2612"
    },
    {
      "channel": 0,
      "note": 80,
      "start": 0.1473,
      "duration": 0.0514,
      "velocity": 96,
      "chip": "ym2612"
    },
    {
      "channel": 2,
      "note": 42,
      "start": 0.148,
      "duration": 0.0246,
      "velocity": 89,
      "chip": "ym2612"
    },
    {
      "channel": 4,
      "note": 69,
      "start": 0.1485,
      "duration": 0.0129,
      "velocity": 97,
      "chip": "ym2612"
    },
    {
      "channel": 2,
      "note": 37,
      "start": 0.1728,
      "duration": 0.0266,
      "velocity": 89,
      "chip": "ym2612"
    },
    {
      "channel": 4,
      "note": 57,
      "start": 0.1733,
      "duration": 0.0129,
      "velocity": 97,
      "chip": "ym2612"
    },
    {
      "channel": 1,
      "note": 80,
      "start": 0.1858,
      "duration": 0.0513,
      "velocity": 96,
      "chip": "ym2612"
    },
    {
      "channel": 0,
      "note": 76,
      "start": 0.199,
      "duration": 0.0763,
      "velocity": 96,
      "chip": "ym2612"
    },
    {
      "channel": 4,
      "note": 57,
      "start": 0.1999,
      "duration": 0.0129,
      "velocity": 97,
      "chip": "ym2612"
    },
    {
      "channel": 4,
      "note": 57,
      "start": 0.213,
      "duration": 0.0117,
      "velocity": 97,
      "chip": "ym2612"
    },
    {
      "channel": 2,
      "note": 37,
      "start": 0.2245,
      "duration": 0.0515,
      "velocity": 89,
      "chip": "ym2612"
    },
    {
      "channel": 4,
      "note": 57,
      "start": 0.225,
      "duration": 0.0127,
      "velocity": 97,
      "chip": "ym2612"
    },
    {
      "channel": 1,
      "note": 76,
      "start": 0.2373,
      "duration": 0.079,
      "velocity": 96,
      "chip": "ym2612"
    },
    {
      "channel": 4,
      "note": 57,
      "start": 0.2503,
      "duration": 0.014,
      "velocity": 97,
      "chip": "ym2612"
    },
    {
      "channel": 0,
      "note": 74,
      "start": 0.2755,
      "duration": 0.0524,
      "velocity": 96,
      "chip": "ym2612"
    },
    {
      "channel": 2,
      "note": 45,
      "start": 0.2762,
      "duration": 0.0266,
      "velocity": 89,
      "chip": "ym2612"
    },
    {
      "channel": 4,
      "note": 57,
      "start": 0.2766,
      "duration": 0.0127,
      "velocity": 97,
      "chip": "ym2612"
    },
    {
      "channel": 2,
      "note": 45,
      "start": 0.303,
      "duration": 0.0486,
      "velocity": 89,
      "chip": "ym2612"
    },
    {
      "channel": 4,
      "note": 57,
      "start": 0.3036,
      "duration": 0.0134,
      "velocity": 97,
      "chip": "ym2612"
    },
    {
      "channel": 1,
      "note": 74,
      "start": 0.3165,
      "duration": 0.0481,
      "velocity": 96,
      "chip": "ym2612"
    },
    {
      "channel": 4,
      "note": 57,
      "start": 0.3288,
      "duration": 0.0122,
      "velocity": 97,
      "chip": "ym2612"
    },
    {
      "channel": 2,
      "note": 42,
      "start": 0.3519,
      "duration": 0.0237,
      "velocity": 89,
      "chip": "ym2612"
    },
    {
      "channel": 4,
      "note": 69,
      "start": 0.3524,
      "duration": 0.0125,
      "velocity": 97,
      "chip": "ym2612"
    },
    {
      "channel": 0,
      "note": 73,
      "start": 0.3753,
      "duration": 0.0158,
      "velocity": 96,
      "chip": "ym2612"
    },
    {
      "channel": 2,
      "note": 37,
      "start": 0.3759,
      "duration": 0.0276,
      "velocity": 89,
      "chip": "ym2612"
    },
    {
      "channel": 4,
      "note": 57,
      "start": 0.3763,
      "duration": 0.0154,
      "velocity": 97,
      "chip": "ym2612"
    },
    {
      "channel": 0,
      "note": 71,
      "start": 0.3913,
      "duration": 0.0116,
      "velocity": 96,
      "chip": "ym2612"
    },
    {
      "channel": 0,
      "note": 72,
      "start": 0.4032,
      "duration": 0.0764,
      "velocity": 96,
      "chip": "ym2612"
    },
    {
      "channel": 4,
      "note": 57,
      "start": 0.4041,
      "duration": 0.0124,
      "velocity": 97,
      "chip": "ym2612"
    },
    {
      "channel": 1,
      "note": 73,
      "start": 0.4162,
      "duration": 0.0118,
      "velocity": 96,
      "chip": "ym2612"
    },
    {
      "channel": 4,
      "note": 50,
      "start": 0.4167,
      "duration": 0.0122,
      "velocity": 97,
      "chip": "ym2612"
    },
    {
      "channel": 1,
      "note": 71,
      "start": 0.4282,
      "duration": 0.0132,
      "velocity": 96,
      "chip": "ym2612"
    },
    {
      "channel": 2,
      "note": 37,
      "start": 0.4287,
      "duration": 0.0515,
      "velocity": 89,
      "chip": "ym2612"
    },
    {
      "channel": 4,
      "note": 50,
      "start": 0.4292,
      "duration": 0.0128,
      "velocity": 97,
      "chip": "ym2612"
    },
    {
      "channel": 1,
      "note": 72,
      "start": 0.4416,
      "duration": 0.0791,
      "velocity": 96,
      "chip": "ym2612"
    },
    {
      "channel": 4,
      "note": 50,
      "start": 0.4546,
      "duration": 0.014,
      "velocity": 97,
      "chip": "ym2612"
    },
    {
      "channel": 0,
      "note": 73,
      "start": 0.4798,
      "duration": 0.0271,
      "velocity": 96,
      "chip": "ym2612"
    },
    {
      "channel": 2,
      "note": 45,
      "start": 0.4805,
      "duration": 0.0268,
      "velocity": 89,
      "chip": "ym2612"
    },
    {
      "channel": 4,
      "note": 50,
      "start": 0.481,
      "duration": 0.0126,
      "velocity": 97,
      "chip": "ym2612"
    },
    {
      "channel": 0,
      "note": 76,
      "start": 0.5069,
      "duration": 0.1038,
      "velocity": 96,
      "chip": "ym2612"
    },
    {
      "channel": 2,
      "note": 45,
      "start": 0.5075,
      "duration": 0.0516,
      "velocity": 89,
      "chip": "ym2612"
    },
    {
      "channel": 4,
      "note": 50,
      "start": 0.508,
      "duration": 0.0133,
      "velocity": 97,
      "chip": "ym2612"
    },
    {
      "channel": 1,
      "note": 73,
      "start": 0.5209,
      "duration": 0.0264,
      "velocity": 96,
      "chip": "ym2612"
    },
    {
      "channel": 4,
      "note": 50,
      "start": 0.5346,
      "duration": 0.0131,
      "velocity": 97,
      "chip": "ym2612"
    },
    {
      "channel": 1,
      "note": 76,
      "start": 0.5473,
      "duration": 0.105,
      "velocity": 96,
      "chip": "ym2612"
    },
    {
      "channel": 2,
      "note": 42,
      "start": 0.5593,
      "duration": 0.0249,
      "velocity": 89,
      "chip": "ym2612"
    },
    {
      "channel": 4,
      "note": 62,
      "start": 0.5599,
      "duration": 0.0132,
      "velocity": 97,
      "chip": "ym2612"
    },
    {
      "channel": 2,
      "note": 37,
      "start": 0.5845,
      "duration": 0.0265,
      "velocity": 89,
      "chip": "ym2612"
    },
    {
      "channel": 4,
      "note": 50,
      "start": 0.5851,
      "duration": 0.0126,
      "velocity": 97,
      "chip": "ym2612"
    },
    {
      "channel": 0,
      "note": 76,
      "start": 0.6107,
      "duration": 0.2175,
      "velocity": 96,
      "chip": "ym2612"
    },
    {
      "channel": 2,
      "note": 37,
      "start": 0.6124,
      "duration": 0.0527,
      "velocity": 104,
      "chip": "ym2612"
    },
    {
      "channel": 4,
      "note": 50,
      "start": 0.613,
      "duration": 0.0132,
      "velocity": 97,
      "chip": "ym2612"
    },
    {
      "channel": 4,
      "note": 52,
      "start": 0.6264,
      "duration": 0.0126,
      "velocity": 97,
      "chip": "ym2612"
    },
    {
      "channel": 3,
      "note": 69,
      "start": 0.6388,
      "duration": 0.054,
      "velocity": 104,
      "chip": "ym2612"
    },
    {
      "channel": 4,
      "note": 52,
      "start": 0.6393,
      "duration": 0.0135,
      "velocity": 97,
      "chip": "ym2612"
    },
    {
      "channel": 1,
      "note": 76,
      "start": 0.6523,
      "duration": 0.2155,
      "velocity": 96,
      "chip": "ym2612"
    },
    {
      "channel": 2,
      "note": 81,
      "start": 0.6654,
      "duration": 0.0535,
      "velocity": 104,
      "chip": "ym2612"
    },
    {
      "channel": 4,
      "note": 52,
      "start": 0.666,
      "duration": 0.0146,
      "velocity": 97,
      "chip": "ym2612"
    },
    {
      "channel": 3,
      "note": 81,
      "start": 0.6931,
      "duration": 0.0526,
      "velocity": 104,
      "chip": "ym2612"
    },
    {
      "channel": 4,
      "note": 52,
      "start": 0.6936,
      "duration": 0.0133,
      "velocity": 97,
      "chip": "ym2612"
    },
    {
      "channel": 2,
      "note": 76,
      "start": 0.7191,
      "duration": 0.0528,
      "velocity": 104,
      "chip": "ym2612"
    },
    {
      "channel": 4,
      "note": 52,
      "start": 0.7198,
      "duration": 0.0137,
      "velocity": 97,
      "chip": "ym2612"
    },
    {
      "channel": 3,
      "note": 76,
      "start": 0.7461,
      "duration": 0.0536,
      "velocity": 104,
      "chip": "ym2612"
    },
    {
      "channel": 4,
      "note": 52,
      "start": 0.7465,
      "duration": 0.0136,
      "velocity": 97,
      "chip": "ym2612"
    },
    {
      "channel": 2,
      "note": 88,
      "start": 0.7722,
      "duration": 0.0573,
      "velocity": 104,
      "chip": "ym2612"
    },
    {
      "channel": 4,
      "note": 64,
      "start": 0.7728,
      "duration": 0.0152,
      "velocity": 97,
      "chip": "ym2612"
    },
    {
      "channel": 3,
      "note": 88,
      "start": 0.7999,
      "duration": 0.0561,
      "velocity": 104,
      "chip": "ym2612"
    },
    {
      "channel": 4,
      "note": 52,
      "start": 0.8004,
      "duration": 0.014,
      "velocity": 97,
      "chip": "ym2612"
    },
    {
      "channel": 4,
      "note": 52,
      "start": 0.8311,
      "duration": 0.0129,
      "velocity": 97,
      "chip": "ym2612"
    },
    {
      "channel": 4,
      "note": 57,
      "start": 0.8443,
      "duration": 0.0119,
      "velocity": 97,
      "chip": "ym2612"
    },
    {
      "channel": 2,
      "note": 83,
      "start": 0.8558,
      "duration": 0.048,
      "velocity": 89,
      "chip": "ym2612"
    },
    {
      "channel": 4,
      "note": 57,
      "start": 0.8564,
      "duration": 0.0126,
      "velocity": 97,
      "chip": "ym2612"
    },
    {
      "channel": 0,
      "note": 76,
      "start": 0.8792,
      "duration": 0.0493,
      "velocity": 96,
      "chip": "ym2612"
    },
    {
      "channel": 4,
      "note": 57,
      "start": 0.8799,
      "duration": 0.0134,
      "velocity": 97,
      "chip": "ym2612"
    },
    {
      "channel": 2,
      "note": 45,
      "start": 0.9041,
      "duration": 0.025,
      "velocity": 89,
      "chip": "ym2612"
    },
    {
      "channel": 4,
      "note": 57,
      "start": 0.9046,
      "duration": 0.0124,
      "velocity": 97,
      "chip": "ym2612"
    },
    {
      "channel": 1,
      "note": 76,
      "start": 0.9166,
      "duration": 0.0523,
      "velocity": 96,
      "chip": "ym2612"
    },
    {
      "channel": 0,
      "note": 81,
      "start": 0.9287,
      "duration": 0.052,
      "velocity": 96,
      "chip": "ym2612"
    },
    {
      "channel": 2,
      "note": 45,
      "start": 0.9294,
      "duration": 0.052,
      "velocity": 89,
      "chip": "ym2612"
    },
    {
      "channel": 4,
      "note": 57,
      "start": 0.9299,
      "duration": 0.0128,
      "velocity": 97,
      "chip": "ym2612"
    },
    {
      "channel": 4,
      "note": 57,
      "start": 0.9563,
      "duration": 0.0133,
      "velocity": 97,
      "chip": "ym2612"
    },
    {
      "channel": 1,
      "note": 81,
      "start": 0.9692,
      "duration": 0.0501,
      "velocity": 96,
      "chip": "ym2612"
    },
    {
      "channel": 0,
      "note": 80,
      "start": 0.981,
      "duration": 0.0515,
      "velocity": 96,
      "chip": "ym2612"
    },
    {
      "channel": 2,
      "note": 42,
      "start": 0.9816,
      "duration": 0.0247,
      "velocity": 89,
      "chip": "ym2612"
    },
    {
      "channel": 4,
      "note": 69,
      "start": 0.9822,
      "duration": 0.013,
      "velocity": 97,
      "chip": "ym2612"
    },
    {
      "channel": 2,
      "note": 37,
      "start": 1.0066,
      "duration": 0.0266,
      "velocity": 89,
      "chip": "ym2612"
    },
    {
      "channel": 4,
      "note": 57,
      "start": 1.0071,
      "duration": 0.0129,
      "velocity": 97,
      "chip": "ym2612"
    },
    {
      "channel": 1,
      "note": 80,
      "start": 1.0196,
      "duration": 0.0514,
      "velocity": 96,
      "chip": "ym2612"
    },
    {
      "channel": 0,
      "note": 76,
      "start": 1.0328,
      "duration": 0.0764,
      "velocity": 96,
      "chip": "ym2612"
    },
    {
      "channel": 4,
      "note": 57,
      "start": 1.0337,
      "duration": 0.0129,
      "velocity": 97,
      "chip": "ym2612"
    },
    {
      "channel": 4,
      "note": 57,
      "start": 1.0468,
      "duration": 0.0117,
      "velocity": 97,
      "chip": "ym2612"
    },
    {
      "channel": 2,
      "note": 37,
      "start": 1.0583,
      "duration": 0.0516,
      "velocity": 89,
      "chip": "ym2612"
    },
    {
      "channel": 4,
      "note": 57,
      "start": 1.0588,
      "duration": 0.0128,
      "velocity": 97,
      "chip": "ym2612"
    },
    {
      "channel": 1,
      "note": 76,
      "start": 1.0712,
      "duration": 0.0788,
      "velocity": 96,
      "chip": "ym2612"
    },
    {
      "channel": 4,
      "note": 57,
      "start": 1.0841,
      "duration": 0.0141,
      "velocity": 97,
      "chip": "ym2612"
    },
    {
      "channel": 0,
      "note": 74,
      "start": 1.1095,
      "duration": 0.0525,
      "velocity": 96,
      "chip": "ym2612"
    },
    {
      "channel": 2,
      "note": 45,
      "start": 1.1101,
      "duration": 0.0266,
      "velocity": 89,
      "chip": "ym2612"
    },
    {
      "channel": 4,
      "note": 57,
      "start": 1.1106,
      "duration": 0.0127,
      "velocity": 97,
      "chip": "ym2612"
    },
    {
      "channel": 2,
      "note": 45,
      "start": 1.137,
      "duration": 0.0487,
      "velocity": 89,
      "chip": "ym2612"
    },
    {
      "channel": 4,
      "note": 57,
      "start": 1.1375,
      "duration": 0.0132,
      "velocity": 97,
      "chip": "ym2612"
    },
    {
      "channel": 1,
      "note": 74,
      "start": 1.1502,
      "duration": 0.0484,
      "velocity": 96,
      "chip": "ym2612"
    },
    {
      "channel": 4,
      "note": 57,
      "start": 1.1627,
      "duration": 0.0124,
      "velocity": 97,
      "chip": "ym2612"
    },
    {
      "channel": 2,
      "note": 42,
      "start": 1.1859,
      "duration": 0.0236,
      "velocity": 89,
      "chip": "ym2612"
    },
    {
      "channel": 4,
      "note": 69,
      "start": 1.1864,
      "duration": 0.0126,
      "velocity": 97,
      "chip": "ym2612"
    },
    {
      "channel": 0,
      "note": 73,
      "start": 1.2092,
      "duration": 0.0156,
      "velocity": 96,
      "chip": "ym2612"
    },
    {
      "channel": 2,
      "note": 37,
      "start": 1.2098,
      "duration": 0.0278,
      "velocity": 89,
      "chip": "ym2612"
    },
    {
      "channel": 4,
      "note": 57,
      "start": 1.2102,
      "duration": 0.0153,
      "velocity": 97,
      "chip": "ym2612"
    },
    {
      "channel": 0,
      "note": 71,
      "start": 1.2251,
      "duration": 0.012,
      "velocity": 96,
      "chip": "ym2612"
    },
    {
      "channel": 0,
      "note": 72,
      "start": 1.2373,
      "duration": 0.0765,
      "velocity": 96,
      "chip": "ym2612"
    },
    {
      "channel": 4,
      "note": 57,
      "start": 1.2381,
      "duration": 0.0126,
      "velocity": 97,
      "chip": "ym2612"
    },
    {
      "channel": 1,
      "note": 73,
      "start": 1.2503,
      "duration": 0.0119,
      "velocity": 96,
      "chip": "ym2612"
    },
    {
      "channel": 4,
      "note": 50,
      "start": 1.2509,
      "duration": 0.0124,
      "velocity": 97,
      "chip": "ym2612"
    },
    {
      "channel": 1,
      "note": 71,
      "start": 1.2624,
      "duration": 0.0131,
      "velocity": 96,
      "chip": "ym2612"
    },
    {
      "channel": 2,
      "note": 37,
      "start": 1.2629,
      "duration": 0.0515,
      "velocity": 89,
      "chip": "ym2612"
    },
    {
      "channel": 4,
      "note": 50,
      "start": 1.2635,
      "duration": 0.0127,
      "velocity": 97,
      "chip": "ym2612"
    },
    {
      "channel": 1,
      "note": 72,
      "start": 1.2757,
      "duration": 0.079,
      "velocity": 96,
      "chip": "ym2612"
    },
    {
      "channel": 4,
      "note": 50,
      "start": 1.2887,
      "duration": 0.0141,
      "velocity": 97,
      "chip": "ym2612"
    },
    {
      "channel": 0,
      "note": 73,
      "start": 1.3141,
      "duration": 0.0271,
      "velocity": 96,
      "chip": "ym2612"
    },
    {
      "channel": 2,
      "note": 45,
      "start": 1.3147,
      "duration": 0.0268,
      "velocity": 89,
      "chip": "ym2612"
    },
    {
      "channel": 4,
      "note": 50,
      "start": 1.3152,
      "duration": 0.0126,
      "velocity": 97,
      "chip": "ym2612"
    },
    {
      "channel": 0,
      "note": 76,
      "start": 1.3411,
      "duration": 0.1038,
      "velocity": 96,
      "chip": "ym2612"
    },
    {
      "channel": 2,
      "note": 45,
      "start": 1.3418,
      "duration": 0.0515,
      "velocity": 89,
      "chip": "ym2612"
    },
    {
      "channel": 4,
      "note": 50,
      "start": 1.3423,
      "duration": 0.0132,
      "velocity": 97,
      "chip": "ym2612"
    },
    {
      "channel": 1,
      "note": 73,
      "start": 1.355,
      "duration": 0.0263,
      "velocity": 96,
      "chip": "ym2612"
    },
    {
      "channel": 4,
      "note": 50,
      "start": 1.3686,
      "duration": 0.0131,
      "velocity": 97,
      "chip": "ym2612"
    },
    {
      "channel": 1,
      "note": 76,
      "start": 1.3813,
      "duration": 0.1052,
      "velocity": 96,
      "chip": "ym2612"
    },
    {
      "channel": 2,
      "note": 42,
      "start": 1.3935,
      "duration": 0.0249,
      "velocity": 89,
      "chip": "ym2612"
    },
    {
      "channel": 4,
      "note": 62,
      "start": 1.394,
      "duration": 0.0133,
      "velocity": 97,
      "chip": "ym2612"
    },
    {
      "channel": 2,
      "note": 37,
      "start": 1.4186,
      "duration": 0.0266,
      "velocity": 89,
      "chip": "ym2612"
    },
    {
      "channel": 4,
      "note": 50,
      "start": 1.4191,
      "duration": 0.0127,
      "velocity": 97,
      "chip": "ym2612"
    },
    {
      "channel": 0,
      "note": 76,
      "start": 1.4449,
      "duration": 0.2268,
      "velocity": 96,
      "chip": "ym2612"
    },
    {
      "channel": 2,
      "note": 37,
      "start": 1.4466,
      "duration": 0.0527,
      "velocity": 104,
      "chip": "ym2612"
    },
    {
      "channel": 4,
      "note": 50,
      "start": 1.4472,
      "duration": 0.0132,
      "velocity": 97,
      "chip": "ym2612"
    },
    {
      "channel": 4,
      "note": 52,
      "start": 1.4606,
      "duration": 0.0127,
      "velocity": 97,
      "chip": "ym2612"
    },
    {
      "channel": 3,
      "note": 83,
      "start": 1.473,
      "duration": 0.0558,
      "velocity": 104,
      "chip": "ym2612"
    },
    {
      "channel": 4,
      "note": 52,
      "start": 1.4735,
      "duration": 0.0135,
      "velocity": 97,
      "chip": "ym2612"
    },
    {
      "channel": 1,
      "note": 76,
      "start": 1.4865,
      "duration": 0.2265,
      "velocity": 96,
      "chip": "ym2612"
    },
    {
      "channel": 2,
      "note": 81,
      "start": 1.4996,
      "duration": 0.0568,
      "velocity": 104,
      "chip": "ym2612"
    },
    {
      "channel": 4,
      "note": 52,
      "start": 1.5002,
      "duration": 0.0147,
      "velocity": 97,
      "chip": "ym2612"
    },
    {
      "channel": 3,
      "note": 81,
      "start": 1.5291,
      "duration": 0.0566,
      "velocity": 104,
      "chip": "ym2612"
    },
    {
      "channel": 4,
      "note": 52,
      "start": 1.5295,
      "duration": 0.014,
      "velocity": 97,
      "chip": "ym2612"
    },
    {
      "channel": 2,
      "note": 76,
      "start": 1.5567,
      "duration": 0.058,
      "velocity": 104,
      "chip": "ym2612"
    },
    {
      "channel": 4,
      "note": 52,
      "start": 1.5573,
      "duration": 0.0148,
      "velocity": 97,
      "chip": "ym2612"
    },
    {
      "channel": 3,
      "note": 76,
      "start": 1.586,
      "duration": 0.058,
      "velocity": 104,
      "chip": "ym2612"
    },
    {
      "channel": 4,
      "note": 52,
      "start": 1.5865,
      "duration": 0.0149,
      "velocity": 97,
      "chip": "ym2612"
    },
    {
      "channel": 2,
      "note": 88,
      "start": 1.6149,
      "duration": 0.059,
      "velocity": 104,
      "chip": "ym2612"
    },
    {
      "channel": 4,
      "note": 64,
      "start": 1.6155,
      "duration": 0.0152,
      "velocity": 97,
      "chip": "ym2612"
    },
    {
      "channel": 3,
      "note": 88,
      "start": 1.6442,
      "duration": 0.0559,
      "velocity": 104,
      "chip": "ym2612"
    },
    {
      "channel": 4,
      "note": 52,
      "start": 1.6447,
      "duration": 0.0156,
      "velocity": 97,
      "chip": "ym2612"
    },
    {
      "channel": 2,
      "note": 83,
      "start": 1.6752,
      "duration": 0.193,
      "velocity": 89,
      "chip": "ym2612"
    },
    {
      "channel": 4,
      "note": 52,
      "start": 1.6759,
      "duration": 0.0128,
      "velocity": 97,
      "chip": "ym2612"
    },
    {
      "channel": 4,
      "note": 50,
      "start": 1.6889,
      "duration": 0.0128,
      "velocity": 97,
      "chip": "ym2612"
    },
    {
      "channel": 3,
      "note": 83,
      "start": 1.7015,
      "duration": 0.1922,
      "velocity": 89,
      "chip": "ym2612"
    },
    {
      "channel": 4,
      "note": 50,
      "start": 1.7019,
      "duration": 0.0124,
      "velocity": 97,
      "chip": "ym2612"
    },
    {
      "channel": 0,
      "note": 76,
      "start": 1.7236,
      "duration": 0.0459,
      "velocity": 103,
      "chip": "ym2612"
    },
    {
      "channel": 4,
      "note": 50,
      "start": 1.7244,
      "duration": 0.0129,
      "velocity": 97,
      "chip": "ym2612"
    },
    {
      "channel": 4,
      "note": 50,
      "start": 1.7476,
      "duration": 0.0115,
      "velocity": 97,
      "chip": "ym2612"
    },
    {
      "channel": 1,
      "note": 76,
      "start": 1.7585,
      "duration": 0.048,
      "velocity": 103,
      "chip": "ym2612"
    },
    {
      "channel": 0,
      "note": 86,
      "start": 1.7698,
      "duration": 0.0483,
      "velocity": 103,
      "chip": "ym2612"
    },
    {
      "channel": 4,
      "note": 50,
      "start": 1.7707,
      "duration": 0.0125,
      "velocity": 97,
      "chip": "ym2612"
    },
    {
      "channel": 4,
      "note": 50,
      "start": 1.7947,
      "duration": 0.0126,
      "velocity": 97,
      "chip": "ym2612"
    },
    {
      "channel": 1,
      "note": 86,
      "start": 1.8068,
      "duration": 0.049,
      "velocity": 103,
      "chip": "ym2612"
    },
    {
      "channel": 0,
      "note": 85,
      "start": 1.8183,
      "duration": 0.0493,
      "velocity": 103,
      "chip": "ym2612"
    },
    {
      "channel": 4,
      "note": 62,
      "start": 1.8192,
      "duration": 0.0136,
      "velocity": 97,
      "chip": "ym2612"
    },
    {
      "channel": 4,
      "note": 50,
      "start": 1.8441,
      "duration": 0.0124,
      "velocity": 97,
      "chip": "ym2612"
    },
    {
      "channel": 1,
      "note": 85,
      "start": 1.856,
      "duration": 0.0497,
      "velocity": 103,
      "chip": "ym2612"
    },
    {
      "channel": 0,
      "note": 83,
      "start": 1.8679,
      "duration": 0.0756,
      "velocity": 103,
      "chip": "ym2612"
    },
    {
      "channel": 2,
      "note": 78,
      "start": 1.8685,
      "duration": 0.1977,
      "velocity": 89,
      "chip": "ym2612"
    },
    {
      "channel": 4,
      "note": 50,
      "start": 1.8692,
      "duration": 0.0127,
      "velocity": 97,
      "chip": "ym2612"
    },
    {
      "channel": 4,
      "note": 52,
      "start": 1.8821,
      "duration": 0.0121,
      "velocity": 97,
      "chip": "ym2612"
    },
    {
      "channel": 3,
      "note": 78,
      "start": 1.894,
      "duration": 0.1966,
      "velocity": 89,
      "chip": "ym2612"
    },
    {
      "channel": 4,
      "note": 52,
      "start": 1.8945,
      "duration": 0.012,
      "velocity": 97,
      "chip": "ym2612"
    },
    {
      "channel": 1,
      "note": 83,
      "start": 1.9059,
      "duration": 0.0749,
      "velocity": 103,
      "chip": "ym2612"
    },
    {
      "channel": 4,
      "note": 52,
      "start": 1.9193,
      "duration": 0.0137,
      "velocity": 97,
      "chip": "ym2612"
    },
    {
      "channel": 0,
      "note": 81,
      "start": 1.9437,
      "duration": 0.0729,
      "velocity": 103,
      "chip": "ym2612"
    },
    {
      "channel": 4,
      "note": 52,
      "start": 1.9446,
      "duration": 0.0118,
      "velocity": 97,
      "chip": "ym2612"
    },
    {
      "channel": 4,
      "note": 52,
      "start": 1.9688,
      "duration": 0.0129,
      "velocity": 97,
      "chip": "ym2612"
    },
    {
      "channel": 1,
      "note": 81,
      "start": 1.9811,
      "duration": 0.0731,
      "velocity": 103,
      "chip": "ym2612"
    },
    {
      "channel": 4,
      "note": 52,
      "start": 1.9932,
      "duration": 0.0125,
      "velocity": 97,
      "chip": "ym2612"
    },
    {
      "channel": 0,
      "note": 80,
      "start": 2.0168,
      "duration": 0.0249,
      "velocity": 103,
      "chip": "ym2612"
    },
    {
      "channel": 4,
      "note": 64,
      "start": 2.0178,
      "duration": 0.0135,
      "velocity": 97,
      "chip": "ym2612"
    },
    {
      "channel": 0,
      "note": 81,
      "start": 2.042,
      "duration": 0.024,
      "velocity": 103,
      "chip": "ym2612"
    },
    {
      "channel": 4,
      "note": 52,
      "start": 2.0428,
      "duration": 0.0122,
      "velocity": 97,
      "chip": "ym2612"
    },
    {
      "channel": 1,
      "note": 80,
      "start": 2.0545,
      "duration": 0.0244,
      "velocity": 103,
      "chip": "ym2612"
    },
    {
      "channel": 2,
      "note": 76,
      "start": 2.0665,
      "duration": 0.1919,
      "velocity": 89,
      "chip": "ym2612"
    },
    {
      "channel": 4,
      "note": 52,
      "start": 2.0672,
      "duration": 0.0125,
      "velocity": 97,
      "chip": "ym2612"
    },
    {
      "channel": 1,
      "note": 81,
      "start": 2.0791,
      "duration": 0.0231,
      "velocity": 103,
      "chip": "ym2612"
    },
    {
      "channel": 4,
      "note": 49,
      "start": 2.0799,
      "duration": 0.0112,
      "velocity": 97,
      "chip": "ym2612"
    },
    {
      "channel": 3,
      "note": 76,
      "start": 2.0909,
      "duration": 0.1926,
      "velocity": 89,
      "chip": "ym2612"
    },
    {
      "channel": 4,
      "note": 49,
      "start": 2.0914,
      "duration": 0.0112,
      "velocity": 97,
      "chip": "ym2612"
    },
    {
      "channel": 0,
      "note": 83,
      "start": 2.1132,
      "duration": 0.0462,
      "velocity": 103,
      "chip": "ym2612"
    },
    {
      "channel": 4,
      "note": 49,
      "start": 2.114,
      "duration": 0.013,
      "velocity": 97,
      "chip": "ym2612"
    },
    {
      "channel": 4,
      "note": 49,
      "start": 2.1375,
      "duration": 0.0115,
      "velocity": 97,
      "chip": "ym2612"
    },
    {
      "channel": 1,
      "note": 83,
      "start": 2.1485,
      "duration": 0.0483,
      "velocity": 103,
      "chip": "ym2612"
    },
    {
      "channel": 0,
      "note": 88,
      "start": 2.1597,
      "duration": 0.0484,
      "velocity": 103,
      "chip": "ym2612"
    },
    {
      "channel": 4,
      "note": 49,
      "start": 2.1606,
      "duration": 0.0128,
      "velocity": 97,
      "chip": "ym2612"
    },
    {
      "channel": 4,
      "note": 49,
      "start": 2.1847,
      "duration": 0.0129,
      "velocity": 97,
      "chip": "ym2612"
    },
    {
      "channel": 1,
      "note": 88,
      "start": 2.197,
      "duration": 0.0488,
      "velocity": 103,
      "chip": "ym2612"
    },
    {
      "channel": 0,
      "note": 86,
      "start": 2.2083,
      "duration": 0.0494,
      "velocity": 103,
      "chip": "ym2612"
    },
    {
      "channel": 4,
      "note": 61,
      "start": 2.2092,
      "duration": 0.0136,
      "velocity": 97,
      "chip": "ym2612"
    },
    {
      "channel": 4,
      "note": 49,
      "start": 2.2341,
      "duration": 0.0125,
      "velocity": 97,
      "chip": "ym2612"
    },
    {
      "channel": 1,
      "note": 86,
      "start": 2.2461,
      "duration": 0.0494,
      "velocity": 103,
      "chip": "ym2612"
    },
    {
      "channel": 0,
      "note": 85,
      "start": 2.258,
      "duration": 0.0752,
      "velocity": 103,
      "chip": "ym2612"
    },
    {
      "channel": 2,
      "note": 80,
      "start": 2.2587,
      "duration": 0.1978,
      "velocity": 89,
      "chip": "ym2612"
    },
    {
      "channel": 4,
      "note": 49,
      "start": 2.2594,
      "duration": 0.0124,
      "velocity": 97,
      "chip": "ym2612"
    },
    {
      "channel": 4,
      "note": 54,
      "start": 2.272,
      "duration": 0.0121,
      "velocity": 97,
      "chip": "ym2612"
    },
    {
      "channel": 3,
      "note": 80,
      "start": 2.2838,
      "duration": 0.1983,
      "velocity": 89,
      "chip": "ym2612"
    },
    {
      "channel": 4,
      "note": 54,
      "start": 2.2843,
      "duration": 0.012,
      "velocity": 97,
      "chip": "ym2612"
    },
    {
      "channel": 1,
      "note": 85,
      "start": 2.2958,
      "duration": 0.0752,
      "velocity": 103,
      "chip": "ym2612"
    },
    {
      "channel": 4,
      "note": 54,
      "start": 2.3091,
      "duration": 0.0137,
      "velocity": 97,
      "chip": "ym2612"
    },
    {
      "channel": 0,
      "note": 83,
      "start": 2.3335,
      "duration": 0.073,
      "velocity": 103,
      "chip": "ym2612"
    },
    {
      "channel": 4,
      "note": 54,
      "start": 2.3344,
      "duration": 0.0117,
      "velocity": 97,
      "chip": "ym2612"
    },
    {
      "channel": 4,
      "note": 54,
      "start": 2.3587,
      "duration": 0.013,
      "velocity": 97,
      "chip": "ym2612"
    },
    {
      "channel": 1,
      "note": 83,
      "start": 2.3712,
      "duration": 0.0732,
      "velocity": 103,
      "chip": "ym2612"
    },
    {
      "channel": 4,
      "note": 54,
      "start": 2.3831,
      "duration": 0.0126,
      "velocity": 97,
      "chip": "ym2612"
    },
    {
      "channel": 0,
      "note": 82,
      "start": 2.4068,
      "duration": 0.0249,
      "velocity": 103,
      "chip": "ym2612"
    },
    {
      "channel": 4,
      "note": 66,
      "start": 2.4077,
      "duration": 0.0137,
      "velocity": 97,
      "chip": "ym2612"
    },
    {
      "channel": 0,
      "note": 83,
      "start": 2.432,
      "duration": 0.0239,
      "velocity": 103,
      "chip": "ym2612"
    },
    {
      "channel": 4,
      "note": 54,
      "start": 2.4328,
      "duration": 0.0124,
      "velocity": 97,
      "chip": "ym2612"
    },
    {
      "channel": 1,
      "note": 82,
      "start": 2.4446,
      "duration": 0.025,
      "velocity": 103,
      "chip": "ym2612"
    },
    {
      "channel": 0,
      "note": 85,
      "start": 2.4561,
      "duration": 0.0755,
      "velocity": 103,
      "chip": "ym2612"
    },
    {
      "channel": 2,
      "note": 78,
      "start": 2.4568,
      "duration": 0.0998,
      "velocity": 89,
      "chip": "ym2612"
    },
    {
      "channel": 4,
      "note": 54,
      "start": 2.4575,
      "duration": 0.0129,
      "velocity": 97,
      "chip": "ym2612"
    },
    {
      "channel": 1,
      "note": 83,
      "start": 2.4699,
      "duration": 0.0243,
      "velocity": 103,
      "chip": "ym2612"
    },
    {
      "channel": 4,
      "note": 50,
      "start": 2.4706,
      "duration": 0.012,
      "velocity": 97,
      "chip": "ym2612"
    },
    {
      "channel": 3,
      "note": 78,
      "start": 2.4824,
      "duration": 0.1013,
      "velocity": 89,
      "chip": "ym2612"
    },
    {
      "channel": 4,
      "note": 50,
      "start": 2.4828,
      "duration": 0.0122,
      "velocity": 97,
      "chip": "ym2612"
    },
    {
      "channel": 1,
      "note": 85,
      "start": 2.4945,
      "duration": 0.075,
      "velocity": 103,
      "chip": "ym2612"
    },
    {
      "channel": 4,
      "note": 50,
      "start": 2.5075,
      "duration": 0.0137,
      "velocity": 97,
      "chip": "ym2612"
    },
    {
      "channel": 0,
      "note": 86,
      "start": 2.5319,
      "duration": 0.0243,
      "velocity": 103,
      "chip": "ym2612"
    },
    {
      "channel": 4,
      "note": 50,
      "start": 2.5327,
      "duration": 0.0117,
      "velocity": 97,
      "chip": "ym2612"
    },
    {
      "channel": 0,
      "note": 81,
      "start": 2.5562,
      "duration": 0.1008,
      "velocity": 103,
      "chip": "ym2612"
    },
    {
      "channel": 2,
      "note": 81,
      "start": 2.5568,
      "duration": 0.1008,
      "velocity": 89,
      "chip": "ym2612"
    },
    {
      "channel": 4,
      "note": 50,
      "start": 2.5574,
      "duration": 0.0128,
      "velocity": 97,
      "chip": "ym2612"
    },
    {
      "channel": 1,
      "note": 86,
      "start": 2.5697,
      "duration": 0.0268,
      "velocity": 103,
      "chip": "ym2612"
    },
    {
      "channel": 3,
      "note": 81,
      "start": 2.584,
      "duration": 0.0986,
      "velocity": 89,
      "chip": "ym2612"
    },
    {
      "channel": 4,
      "note": 50,
      "start": 2.5844,
      "duration": 0.0126,
      "velocity": 97,
      "chip": "ym2612"
    },
    {
      "channel": 1,
      "note": 81,
      "start": 2.5965,
      "duration": 0.0976,
      "velocity": 103,
      "chip": "ym2612"
    },
    {
      "channel": 4,
      "note": 62,
      "start": 2.6085,
      "duration": 0.0135,
      "velocity": 97,
      "chip": "ym2612"
    },
    {
      "channel": 4,
      "note": 50,
      "start": 2.6332,
      "duration": 0.0121,
      "velocity": 97,
      "chip": "ym2612"
    },
    {
      "channel": 0,
      "note": 81,
      "start": 2.6573,
      "duration": 0.0249,
      "velocity": 103,
      "chip": "ym2612"
    },
    {
      "channel": 2,
      "note": 78,
      "start": 2.6579,
      "duration": 0.0932,
      "velocity": 89,
      "chip": "ym2612"
    },
    {
      "channel": 4,
      "note": 50,
      "start": 2.6586,
      "duration": 0.0124,
      "velocity": 97,
      "chip": "ym2612"
    },
    {
      "channel": 4,
      "note": 52,
      "start": 2.6712,
      "duration": 0.0119,
      "velocity": 97,
      "chip": "ym2612"
    },
    {
      "channel": 3,
      "note": 78,
      "start": 2.6828,
      "duration": 0.0922,
      "velocity": 89,
      "chip": "ym2612"
    },
    {
      "channel": 4,
      "note": 52,
      "start": 2.6833,
      "duration": 0.0116,
      "velocity": 97,
      "chip": "ym2612"
    },
    {
      "channel": 1,
      "note": 81,
      "start": 2.6944,
      "duration": 0.0237,
      "velocity": 103,
      "chip": "ym2612"
    },
    {
      "channel": 0,
      "note": 80,
      "start": 2.7051,
      "duration": 0.0237,
      "velocity": 103,
      "chip": "ym2612"
    },
    {
      "channel": 4,
      "note": 52,
      "start": 2.706,
      "duration": 0.0125,
      "velocity": 97,
      "chip": "ym2612"
    },
    {
      "channel": 4,
      "note": 52,
      "start": 2.7295,
      "duration": 0.0112,
      "velocity": 97,
      "chip": "ym2612"
    },
    {
      "channel": 1,
      "note": 80,
      "start": 2.7401,
      "duration": 0.024,
      "velocity": 103,
      "chip": "ym2612"
    },
    {
      "channel": 0,
      "note": 78,
      "start": 2.7507,
      "duration": 0.0237,
      "velocity": 103,
      "chip": "ym2612"
    },
    {
      "channel": 2,
      "note": 76,
      "start": 2.7513,
      "duration": 0.1019,
      "velocity": 89,
      "chip": "ym2612"
    },
    {
      "channel": 4,
      "note": 52,
      "start": 2.7519,
      "duration": 0.0127,
      "velocity": 97,
      "chip": "ym2612"
    },
    {
      "channel": 0,
      "note": 80,
      "start": 2.7746,
      "duration": 0.0779,
      "velocity": 103,
      "chip": "ym2612"
    },
    {
      "channel": 3,
      "note": 76,
      "start": 2.7753,
      "duration": 0.1033,
      "velocity": 89,
      "chip": "ym2612"
    },
    {
      "channel": 4,
      "note": 52,
      "start": 2.7758,
      "duration": 0.0134,
      "velocity": 97,
      "chip": "ym2612"
    },
    {
      "channel": 1,
      "note": 78,
      "start": 2.7886,
      "duration": 0.0245,
      "velocity": 103,
      "chip": "ym2612"
    },
    {
      "channel": 4,
      "note": 64,
      "start": 2.8005,
      "duration": 0.0135,
      "velocity": 97,
      "chip": "ym2612"
    },
    {
      "channel": 1,
      "note": 80,
      "start": 2.8134,
      "duration": 0.0776,
      "velocity": 103,
      "chip": "ym2612"
    },
    {
      "channel": 4,
      "note": 52,
      "start": 2.825,
      "duration": 0.0143,
      "velocity": 97,
      "chip": "ym2612"
    },
    {
      "channel": 0,
      "note": 83,
      "start": 2.8528,
      "duration": 0.2048,
      "velocity": 103,
      "chip": "ym2612"
    },
    {
      "channel": 2,
      "note": 74,
      "start": 2.8535,
      "duration": 0.2046,
      "velocity": 89,
      "chip": "ym2612"
    },
    {
      "channel": 4,
      "note": 52,
      "start": 2.8542,
      "duration": 0.0128,
      "velocity": 97,
      "chip": "ym2612"
    },
    {
      "channel": 4,
      "note": 57,
      "start": 2.8672,
      "duration": 0.012,
      "velocity": 97,
      "chip": "ym2612"
    },
    {
      "channel": 3,
      "note": 74,
      "start": 2.879,
      "duration": 0.2046,
      "velocity": 89,
      "chip": "ym2612"
    },
    {
      "channel": 4,
      "note": 57,
      "start": 2.8795,
      "duration": 0.0124,
      "velocity": 97,
      "chip": "ym2612"
    },
    {
      "channel": 1,
      "note": 83,
      "start": 2.8913,
      "duration": 0.2051,
      "velocity": 103,
      "chip": "ym2612"
    },
    {
      "channel": 4,
      "note": 57,
      "start": 2.9048,
      "duration": 0.0137,
      "velocity": 97,
      "chip": "ym2612"
    },
    {
      "channel": 4,
      "note": 57,
      "start": 2.9299,
      "duration": 0.0157,
      "velocity": 97,
      "chip": "ym2612"
    },
    {
      "channel": 4,
      "note": 57,
      "start": 2.9595,
      "duration": 0.0124,
      "velocity": 97,
      "chip": "ym2612"
    },
    {
      "channel": 4,
      "note": 57,
      "start": 2.9837,
      "duration": 0.0136,
      "velocity": 97,
      "chip": "ym2612"
    },
    {
      "channel": 4,
      "note": 69,
      "start": 3.0086,
      "duration": 0.012,
      "velocity": 97,
      "chip": "ym2612"
    },
    {
      "channel": 4,
      "note": 57,
      "start": 3.0318,
      "duration": 0.0125,
      "velocity": 97,
      "chip": "ym2612"
    },
    {
      "channel": 0,
      "note": 81,
      "start": 3.0576,
      "duration": 0.1059,
      "velocity": 103,
      "chip": "ym2612"
    },
    {
      "channel": 2,
      "note": 73,
      "start": 3.0582,
      "duration": 0.1056,
      "velocity": 89,
      "chip": "ym2612"
    },
    {
      "channel": 4,
      "note": 57,
      "start": 3.0589,
      "duration": 0.0129,
      "velocity": 97,
      "chip": "ym2612"
    },
    {
      "channel": 4,
      "note": 57,
      "start": 3.0719,
      "duration": 0.0118,
      "velocity": 97,
      "chip": "ym2612"
    },
    {
      "channel": 3,
      "note": 73,
      "start": 3.0836,
      "duration": 0.1025,
      "velocity": 89,
      "chip": "ym2612"
    },
    {
      "channel": 4,
      "note": 57,
      "start": 3.084,
      "duration": 0.0129,
      "velocity": 97,
      "chip": "ym2612"
    },
    {
      "channel": 1,
      "note": 81,
      "start": 3.0964,
      "duration": 0.1025,
      "velocity": 103,
      "chip": "ym2612"
    },
    {
      "channel": 4,
      "note": 57,
      "start": 3.1099,
      "duration": 0.0137,
      "velocity": 97,
      "chip": "ym2612"
    },
    {
      "channel": 4,
      "note": 57,
      "start": 3.1348,
      "duration": 0.0156,
      "velocity": 97,
      "chip": "ym2612"
    },
    {
      "channel": 4,
      "note": 57,
      "start": 3.1644,
      "duration": 0.0111,
      "velocity": 97,
      "chip": "ym2612"
    },
    {
      "channel": 0,
      "note": 81,
      "start": 3.1852,
      "duration": 0.0239,
      "velocity": 103,
      "chip": "ym2612"
    },
    {
      "channel": 2,
      "note": 73,
      "start": 3.1859,
      "duration": 0.0235,
      "velocity": 89,
      "chip": "ym2612"
    },
    {
      "channel": 3,
      "note": 73,
      "start": 3.1864,
      "duration": 0.0231,
      "velocity": 89,
      "chip": "ym2612"
    },
    {
      "channel": 4,
      "note": 57,
      "start": 3.1869,
      "duration": 0.0125,
      "velocity": 97,
      "chip": "ym2612"
    },
    {
      "channel": 4,
      "note": 69,
      "start": 3.2099,
      "duration": 0.0095,
      "velocity": 97,
      "chip": "ym2612"
    },
    {
      "channel": 1,
      "note": 81,
      "start": 3.219,
      "duration": 0.0232,
      "velocity": 103,
      "chip": "ym2612"
    },
    {
      "channel": 0,
      "note": 81,
      "start": 3.2287,
      "duration": 0.0262,
      "velocity": 103,
      "chip": "ym2612"
    },
    {
      "channel": 2,
      "note": 81,
      "start": 3.2294,
      "duration": 0.0261,
      "velocity": 89,
      "chip": "ym2612"
    },
    {
      "channel": 3,
      "note": 76,
      "start": 3.2299,
      "duration": 0.0261,
      "velocity": 89,
      "chip": "ym2612"
    },
    {
      "channel": 4,
      "note": 57,
      "start": 3.2303,
      "duration": 0.0124,
      "velocity": 97,
      "chip": "ym2612"
    },
    {
      "channel": 0,
      "note": 81,
      "start": 3.2553,
      "duration": 0.2195,
      "velocity": 103,
      "chip": "ym2612"
    },
    {
      "channel": 2,
      "note": 79,
      "start": 3.2558,
      "duration": 0.2196,
      "velocity": 89,
      "chip": "ym2612"
    },
    {
      "channel": 3,
      "note": 76,
      "start": 3.2563,
      "duration": 0.2194,
      "velocity": 89,
      "chip": "ym2612"
    },
    {
      "channel": 4,
      "note": 57,
      "start": 3.2568,
      "duration": 0.0132,
      "velocity": 97,
      "chip": "ym2612"
    },
    {
      "channel": 1,
      "note": 81,
      "start": 3.2696,
      "duration": 0.0297,
      "velocity": 103,
      "chip": "ym2612"
    },
    {
      "channel": 4,
      "note": 57,
      "start": 3.2703,
      "duration": 0.013,
      "velocity": 97,
      "chip": "ym2612"
    },
    {
      "channel": 4,
      "note": 57,
      "start": 3.2836,
      "duration": 0.0166,
      "velocity": 97,
      "chip": "ym2612"
    },
    {
      "channel": 1,
      "note": 81,
      "start": 3.2996,
      "duration": 0.2183,
      "velocity": 103,
      "chip": "ym2612"
    },
    {
      "channel": 4,
      "note": 57,
      "start": 3.3127,
      "duration": 0.0143,
      "velocity": 97,
      "chip": "ym2612"
    },
    {
      "channel": 4,
      "note": 69,
      "start": 3.3394,
      "duration": 0.0138,
      "velocity": 97,
      "chip": "ym2612"
    },
    {
      "channel": 4,
      "note": 57,
      "start": 3.366,
      "duration": 0.0139,
      "velocity": 97,
      "chip": "ym2612"
    },
    {
      "channel": 4,
      "note": 57,
      "start": 3.3938,
      "duration": 0.0149,
      "velocity": 97,
      "chip": "ym2612"
    },
    {
      "channel": 4,
      "note": 69,
      "start": 3.421,
      "duration": 0.0134,
      "velocity": 97,
      "chip": "ym2612"
    },
    {
      "channel": 4,
      "note": 57,
      "start": 3.4473,
      "duration": 0.0156,
      "velocity": 97,
      "chip": "ym2612"
    },
    {
      "channel": 0,
      "note": 81,
      "start": 3.4748,
      "duration": 0.109,
      "velocity": 103,
      "chip": "ym2612"
    },
    {
      "channel": 2,
      "note": 79,
      "start": 3.4754,
      "duration": 0.1086,
      "velocity": 89,
      "chip": "ym2612"
    },
    {
      "channel": 3,
      "note": 76,
      "start": 3.4757,
      "duration": 0.1085,
      "velocity": 89,
      "chip": "ym2612"
    },
    {
      "channel": 4,
      "note": 69,
      "start": 3.4763,
      "duration": 0.0143,
      "velocity": 97,
      "chip": "ym2612"
    },
    {
      "channel": 4,
      "note": 57,
      "start": 3.4908,
      "duration": 0.0134,
      "velocity": 97,
      "chip": "ym2612"
    },
    {
      "channel": 4,
      "note": 57,
      "start": 3.5043,
      "duration": 0.0141,
      "velocity": 97,
      "chip": "ym2612"
    },
    {
      "channel": 1,
      "note": 81,
      "start": 3.5179,
      "duration": 0.1062,
      "velocity": 103,
      "chip": "ym2612"
    },
    {
      "channel": 4,
      "note": 57,
      "start": 3.531,
      "duration": 0.0147,
      "velocity": 97,
      "chip": "ym2612"
    },
    {
      "channel": 4,
      "note": 69,
      "start": 3.5581,
      "duration": 0.0138,
      "velocity": 97,
      "chip": "ym2612"
    },
    {
      "channel": 4,
      "note": 57,
      "start": 3.5845,
      "duration": 0.0119,
      "velocity": 97,
      "chip": "ym2612"
    },
    {
      "channel": 0,
      "note": 81,
      "start": 3.6081,
      "duration": 0.0274,
      "velocity": 103,
      "chip": "ym2612"
    },
    {
      "channel": 2,
      "note": 79,
      "start": 3.6088,
      "duration": 0.027,
      "velocity": 89,
      "chip": "ym2612"
    },
    {
      "channel": 3,
      "note": 76,
      "start": 3.6092,
      "duration": 0.0267,
      "velocity": 89,
      "chip": "ym2612"
    },
    {
      "channel": 4,
      "note": 57,
      "start": 3.6097,
      "duration": 0.0148,
      "velocity": 97,
      "chip": "ym2612"
    },
    {
      "channel": 4,
      "note": 69,
      "start": 3.6363,
      "duration": 0.0109,
      "velocity": 97,
      "chip": "ym2612"
    },
    {
      "channel": 1,
      "note": 81,
      "start": 3.6468,
      "duration": 0.0276,
      "velocity": 103,
      "chip": "ym2612"
    },
    {
      "channel": 0,
      "note": 81,
      "start": 3.6578,
      "duration": 0.0283,
      "velocity": 103,
      "chip": "ym2612"
    },
    {
      "channel": 2,
      "note": 79,
      "start": 3.6584,
      "duration": 0.0282,
      "velocity": 89,
      "chip": "ym2612"
    },
    {
      "channel": 3,
      "note": 76,
      "start": 3.6589,
      "duration": 0.0283,
      "velocity": 89,
      "chip": "ym2612"
    },
    {
      "channel": 4,
      "note": 57,
      "start": 3.6594,
      "duration": 0.0156,
      "velocity": 97,
      "chip": "ym2612"
    },
    {
      "channel": 0,
      "note": 81,
      "start": 3.6864,
      "duration": 0.2201,
      "velocity": 103,
      "chip": "ym2612"
    },
    {
      "channel": 2,
      "note": 78,
      "start": 3.6869,
      "duration": 0.2202,
      "velocity": 89,
      "chip": "ym2612"
    },
    {
      "channel": 3,
      "note": 74,
      "start": 3.6874,
      "duration": 0.2201,
      "velocity": 89,
      "chip": "ym2612"
    },
    {
      "channel": 4,
      "note": 69,
      "start": 3.688,
      "duration": 0.0136,
      "velocity": 97,
      "chip": "ym2612"
    },
    {
      "channel": 1,
      "note": 81,
      "start": 3.7011,
      "duration": 0.0297,
      "velocity": 103,
      "chip": "ym2612"
    },
    {
      "channel": 4,
      "note": 57,
      "start": 3.7018,
      "duration": 0.0128,
      "velocity": 97,
      "chip": "ym2612"
    },
    {
      "channel": 4,
      "note": 57,
      "start": 3.7148,
      "duration": 0.0168,
      "velocity": 97,
      "chip": "ym2612"
    },
    {
      "channel": 1,
      "note": 81,
      "start": 3.7311,
      "duration": 0.2186,
      "velocity": 103,
      "chip": "ym2612"
    },
    {
      "channel": 4,
      "note": 57,
      "start": 3.744,
      "duration": 0.0147,
      "velocity": 97,
      "chip": "ym2612"
    },
    {
      "channel": 4,
      "note": 69,
      "start": 3.771,
      "duration": 0.0137,
      "velocity": 97,
      "chip": "ym2612"
    },
    {
      "channel": 4,
      "note": 57,
      "start": 3.7978,
      "duration": 0.014,
      "velocity": 97,
      "chip": "ym2612"
    },
    {
      "channel": 4,
      "note": 57,
      "start": 3.8255,
      "duration": 0.015,
      "velocity": 97,
      "chip": "ym2612"
    },
    {
      "channel": 4,
      "note": 69,
      "start": 3.8528,
      "duration": 0.0134,
      "velocity": 97,
      "chip": "ym2612"
    },
    {
      "channel": 4,
      "note": 57,
      "start": 3.879,
      "duration": 0.0157,
      "velocity": 97,
      "chip": "ym2612"
    },
    {
      "channel": 0,
      "note": 81,
      "start": 3.9065,
      "duration": 0.1092,
      "velocity": 103,
      "chip": "ym2612"
    },
    {
      "channel": 2,
      "note": 78,
      "start": 3.9071,
      "duration": 0.1089,
      "velocity": 89,
      "chip": "ym2612"
    },
    {
      "channel": 3,
      "note": 74,
      "start": 3.9075,
      "duration": 0.1087,
      "velocity": 89,
      "chip": "ym2612"
    },
    {
      "channel": 4,
      "note": 69,
      "start": 3.908,
      "duration": 0.0141,
      "velocity": 97,
      "chip": "ym2612"
    },
    {
      "channel": 4,
      "note": 57,
      "start": 3.9223,
      "duration": 0.0136,
      "velocity": 97,
      "chip": "ym2612"
    },
    {
      "channel": 4,
      "note": 57,
      "start": 3.9361,
      "duration": 0.0141,
      "velocity": 97,
      "chip": "ym2612"
    },
    {
      "channel": 1,
      "note": 81,
      "start": 3.9497,
      "duration": 0.1065,
      "velocity": 103,
      "chip": "ym2612"
    },
    {
      "channel": 4,
      "note": 57,
      "start": 3.9628,
      "duration": 0.0147,
      "velocity": 97,
      "chip": "ym2612"
    },
    {
      "channel": 4,
      "note": 69,
      "start": 3.99,
      "duration": 0.0137,
      "velocity": 97,
      "chip": "ym2612"
    },
    {
      "channel": 4,
      "note": 57,
      "start": 4.0165,
      "duration": 0.0117,
      "velocity": 97,
      "chip": "ym2612"
    },
    {
      "channel": 0,
      "note": 81,
      "start": 4.0401,
      "duration": 0.0276,
      "velocity": 103,
      "chip": "ym2612"
    },
    {
      "channel": 2,
      "note": 78,
      "start": 4.0407,
      "duration": 0.0271,
      "velocity": 89,
      "chip": "ym2612"
    },
    {
      "channel": 3,
      "note": 74,
      "start": 4.0412,
      "duration": 0.0268,
      "velocity": 89,
      "chip": "ym2612"
    },
    {
      "channel": 4,
      "note": 57,
      "start": 4.0417,
      "duration": 0.0149,
      "velocity": 97,
      "chip": "ym2612"
    },
    {
      "channel": 4,
      "note": 69,
      "start": 4.0683,
      "duration": 0.0109,
      "velocity": 97,
      "chip": "ym2612"
    },
    {
      "channel": 1,
      "note": 81,
      "start": 4.0789,
      "duration": 0.0281,
      "velocity": 103,
      "chip": "ym2612"
    },
    {
      "channel": 0,
      "note": 81,
      "start": 4.09,
      "duration": 0.0285,
      "velocity": 103,
      "chip": "ym2612"
    },
    {
      "channel": 2,
      "note": 78,
      "start": 4.0907,
      "duration": 0.0285,
      "velocity": 89,
      "chip": "ym2612"
    },
    {
      "channel": 3,
      "note": 74,
      "start": 4.0911,
      "duration": 0.0285,
      "velocity": 89,
      "chip": "ym2612"
    },
    {
      "channel": 4,
      "note": 57,
      "start": 4.0916,
      "duration": 0.0158,
      "velocity": 97,
      "chip": "ym2612"
    },
    {
      "channel": 0,
      "note": 81,
      "start": 4.1189,
      "duration": 0.2203,
      "velocity": 103,
      "chip": "ym2612"
    },
    {
      "channel": 2,
      "note": 77,
      "start": 4.1194,
      "duration": 0.2204,
      "velocity": 89,
      "chip": "ym2612"
    },
    {
      "channel": 3,
      "note": 74,
      "start": 4.1199,
      "duration": 0.2202,
      "velocity": 89,
      "chip": "ym2612"
    },
    {
      "channel": 4,
      "note": 69,
      "start": 4.1205,
      "duration": 0.0138,
      "velocity": 97,
      "chip": "ym2612"
    },
    {
      "channel": 1,
      "note": 81,
      "start": 4.1337,
      "duration": 0.0296,
      "velocity": 103,
      "chip": "ym2612"
    },
    {
      "channel": 4,
      "note": 57,
      "start": 4.1344,
      "duration": 0.0129,
      "velocity": 97,
      "chip": "ym2612"
    },
    {
      "channel": 4,
      "note": 57,
      "start": 4.1476,
      "duration": 0.0165,
      "velocity": 97,
      "chip": "ym2612"
    },
    {
      "channel": 1,
      "note": 81,
      "start": 4.1636,
      "duration": 0.2202,
      "velocity": 103,
      "chip": "ym2612"
    },
    {
      "channel": 4,
      "note": 57,
      "start": 4.1766,
      "duration": 0.0145,
      "velocity": 97,
      "chip": "ym2612"
    },
    {
      "channel": 4,
      "note": 69,
      "start": 4.2037,
      "duration": 0.0139,
      "velocity": 97,
      "chip": "ym2612"
    },
    {
      "channel": 4,
      "note": 57,
      "start": 4.2304,
      "duration": 0.0139,
      "velocity": 97,
      "chip": "ym2612"
    },
    {
      "channel": 4,
      "note": 57,
      "start": 4.2582,
      "duration": 0.015,
      "velocity": 97,
      "chip": "ym2612"
    },
    {
      "channel": 4,
      "note": 69,
      "start": 4.2855,
      "duration": 0.0134,
      "velocity": 97,
      "chip": "ym2612"
    },
    {
      "channel": 4,
      "note": 57,
      "start": 4.3117,
      "duration": 0.0157,
      "velocity": 97,
      "chip": "ym2612"
    },
    {
      "channel": 0,
      "note": 81,
      "start": 4.3392,
      "duration": 0.1167,
      "velocity": 103,
      "chip": "ym2612"
    },
    {
      "channel": 2,
      "note": 77,
      "start": 4.3398,
      "duration": 0.1164,
      "velocity": 89,
      "chip": "ym2612"
    },
    {
      "channel": 3,
      "note": 74,
      "start": 4.3401,
      "duration": 0.1162,
      "velocity": 89,
      "chip": "ym2612"
    },
    {
      "channel": 4,
      "note": 69,
      "start": 4.3407,
      "duration": 0.0151,
      "velocity": 97,
      "chip": "ym2612"
    },
    {
      "channel": 4,
      "note": 57,
      "start": 4.356,
      "duration": 0.0129,
      "velocity": 97,
      "chip": "ym2612"
    },
    {
      "channel": 4,
      "note": 57,
      "start": 4.3692,
      "duration": 0.0152,
      "velocity": 97,
      "chip": "ym2612"
    },
    {
      "channel": 1,
      "note": 81,
      "start": 4.3839,
      "duration": 0.1144,
      "velocity": 103,
      "chip": "ym2612"
    },
    {
      "channel": 4,
      "note": 57,
      "start": 4.3984,
      "duration": 0.0149,
      "velocity": 97,
      "chip": "ym2612"
    },
    {
      "channel": 4,
      "note": 69,
      "start": 4.4276,
      "duration": 0.0149,
      "velocity": 97,
      "chip": "ym2612"
    },
    {
      "channel": 4,
      "note": 57,
      "start": 4.4566,
      "duration": 0.0127,
      "velocity": 97,
      "chip": "ym2612"
    },
    {
      "channel": 0,
      "note": 81,
      "start": 4.4824,
      "duration": 0.029,
      "velocity": 103,
      "chip": "ym2612"
    },
    {
      "channel": 2,
      "note": 77,
      "start": 4.483,
      "duration": 0.0285,
      "velocity": 89,
      "chip": "ym2612"
    },
    {
      "channel": 3,
      "note": 74,
      "start": 4.4835,
      "duration": 0.0282,
      "velocity": 89,
      "chip": "ym2612"
    },
    {
      "channel": 4,
      "note": 57,
      "start": 4.484,
      "duration": 0.0148,
      "velocity": 97,
      "chip": "ym2612"
    },
    {
      "channel": 4,
      "note": 69,
      "start": 4.5121,
      "duration": 0.0122,
      "velocity": 97,
      "chip": "ym2612"
    },
    {
      "channel": 1,
      "note": 81,
      "start": 4.5239,
      "duration": 0.0281,
      "velocity": 103,
      "chip": "ym2612"
    },
    {
      "channel": 0,
      "note": 83,
      "start": 4.5361,
      "duration": 0.0289,
      "velocity": 103,
      "chip": "ym2612"
    },
    {
      "channel": 2,
      "note": 77,
      "start": 4.5367,
      "duration": 0.0304,
      "velocity": 89,
      "chip": "ym2612"
    },
    {
      "channel": 3,
      "note": 74,
      "start": 4.5371,
      "duration": 0.0311,
      "velocity": 89,
      "chip": "ym2612"
    },
    {
      "channel": 4,
      "note": 57,
      "start": 4.5376,
      "duration": 0.0148,
      "velocity": 97,
      "chip": "ym2612"
    },
    {
      "channel": 4,
      "note": 69,
      "start": 4.5698,
      "duration": 0.0118,
      "velocity": 97,
      "chip": "ym2612"
    },
    {
      "channel": 1,
      "note": 83,
      "start": 4.5812,
      "duration": 0.0235,
      "velocity": 103,
      "chip": "ym2612"
    },
    {
      "channel": 4,
      "note": 57,
      "start": 4.5818,
      "duration": 0.0112,
      "velocity": 97,
      "chip": "ym2612"
    },
    {
      "channel": 2,
      "note": 77,
      "start": 4.5927,
      "duration": 31.0026,
      "velocity": 89,
      "chip": "ym2612"
    },
    {
      "channel": 4,
      "note": 57,
      "start": 4.5932,
      "duration": 0.0129,
      "velocity": 97,
      "chip": "ym2612"
    },
    {
      "channel": 0,
      "note": 85,
      "start": 4.6164,
      "duration": 30.979,
      "velocity": 96,
      "chip": "ym2612"
    },
    {
      "channel": 4,
      "note": 57,
      "start": 4.6171,
      "duration": 30.9783,
      "velocity": 97,
      "chip": "ym2612"
    }
  ]
}