{
  "track_name": "02 - Scrolling Stage",
  "duration_sec": 30.024,
  "sample_rate": 44100,
  "note_count": 573,
  "unique_pitches": 34,
  "pitch_range": 50,
  "avg_note_duration": 0.2005,
  "reconstruction_stats": {
    "notes_reconstructed": 573,
    "keyon_events": 573,
    "keyoff_events": 570,
    "orphan_keyons": 3,
    "unique_pitches": 34,
    "pitch_range": 50,
    "avg_duration_sec": 0.2005
  },
  "metadata": {
    "source": "W\\Wani Wani World\\02 - Scrolling Stage.vgz"
  },
  "notes": [
    {
      "channel": 0,
      "note": 61,
      "start": 0.0017,
      "duration": 0.1741,
      "velocity": 51,
      "chip": "ym2612"
    },
    {
      "channel": 1,
      "note": 58,
      "start": 0.0049,
      "duration": 0.1716,
      "velocity": 105,
      "chip": "ym2612"
    },
    {
      "channel": 5,
      "note": 73,
      "start": 0.0337,
      "duration": 0.1723,
      "velocity": 51,
      "chip": "ym2612"
    },
    {
      "channel": 0,
      "note": 61,
      "start": 0.1763,
      "duration": 0.1751,
      "velocity": 51,
      "chip": "ym2612"
    },
    {
      "channel": 1,
      "note": 58,
      "start": 0.1771,
      "duration": 0.1751,
      "velocity": 105,
      "chip": "ym2612"
    },
    {
      "channel": 5,
      "note": 73,
      "start": 0.2065,
      "duration": 0.1751,
      "velocity": 51,
      "chip": "ym2612"
    },
    {
      "channel": 0,
      "note": 62,
      "start": 0.352,
      "duration": 0.175,
      "velocity": 51,
      "chip": "ym2612"
    },
    {
      "channel": 1,
      "note": 59,
      "start": 0.3527,
      "duration": 0.1751,
      "velocity": 105,
      "chip": "ym2612"
    },
    {
      "channel": 5,
      "note": 74,
      "start": 0.3822,
      "duration": 0.175,
      "velocity": 51,
      "chip": "ym2612"
    },
    {
      "channel": 0,
      "note": 62,
      "start": 0.5276,
      "duration": 0.175,
      "velocity": 51,
      "chip": "ym2612"
    },
    {
      "channel": 1,
      "note": 59,
      "start": 0.5283,
      "duration": 0.175,
      "velocity": 105,
      "chip": "ym2612"
    },
    {
      "channel": 5,
      "note": 74,
      "start": 0.5577,
      "duration": 0.175,
      "velocity": 51,
      "chip": "ym2612"
    },
    {
      "channel": 0,
      "note": 63,
      "start": 0.7032,
      "duration": 0.1751,
      "velocity": 51,
      "chip": "ym2612"
    },
    {
      "channel": 1,
      "note": 60,
      "start": 0.7039,
      "duration": 0.1751,
      "velocity": 105,
      "chip": "ym2612"
    },
    {
      "channel": 5,
      "note": 75,
      "start": 0.7334,
      "duration": 0.1754,
      "velocity": 51,
      "chip": "ym2612"
    },
    {
      "channel": 0,
      "note": 63,
      "start": 0.8788,
      "duration": 0.1749,
      "velocity": 51,
      "chip": "ym2612"
    },
    {
      "channel": 1,
      "note": 60,
      "start": 0.8795,
      "duration": 0.1749,
      "velocity": 105,
      "chip": "ym2612"
    },
    {
      "channel": 5,
      "note": 75,
      "start": 0.9094,
      "duration": 0.1746,
      "velocity": 51,
      "chip": "ym2612"
    },
    {
      "channel": 0,
      "note": 65,
      "start": 1.0544,
      "duration": 0.1751,
      "velocity": 51,
      "chip": "ym2612"
    },
    {
      "channel": 1,
      "note": 61,
      "start": 1.0551,
      "duration": 0.1752,
      "velocity": 105,
      "chip": "ym2612"
    },
    {
      "channel": 5,
      "note": 77,
      "start": 1.0846,
      "duration": 0.175,
      "velocity": 51,
      "chip": "ym2612"
    },
    {
      "channel": 0,
      "note": 65,
      "start": 1.23,
      "duration": 0.1776,
      "velocity": 51,
      "chip": "ym2612"
    },
    {
      "channel": 1,
      "note": 61,
      "start": 1.2308,
      "duration": 0.1776,
      "velocity": 105,
      "chip": "ym2612"
    },
    {
      "channel": 5,
      "note": 77,
      "start": 1.2601,
      "duration": 0.1777,
      "velocity": 51,
      "chip": "ym2612"
    },
    {
      "channel": 0,
      "note": 66,
      "start": 1.4082,
      "duration": 0.3481,
      "velocity": 51,
      "chip": "ym2612"
    },
    {
      "channel": 1,
      "note": 54,
      "start": 1.4091,
      "duration": 0.3479,
      "velocity": 105,
      "chip": "ym2612"
    },
    {
      "channel": 5,
      "note": 78,
      "start": 1.4385,
      "duration": 0.3481,
      "velocity": 51,
      "chip": "ym2612"
    },
    {
      "channel": 3,
      "note": 66,
      "start": 1.6258,
      "duration": 0.0433,
      "velocity": 95,
      "chip": "ym2612"
    },
    {
      "channel": 3,
      "note": 70,
      "start": 1.6697,
      "duration": 0.0434,
      "velocity": 95,
      "chip": "ym2612"
    },
    {
      "channel": 3,
      "note": 73,
      "start": 1.7137,
      "duration": 0.044,
      "velocity": 95,
      "chip": "ym2612"
    },
    {
      "channel": 0,
      "note": 61,
      "start": 1.7568,
      "duration": 0.1751,
      "velocity": 51,
      "chip": "ym2612"
    },
    {
      "channel": 1,
      "note": 61,
      "start": 1.7576,
      "duration": 0.175,
      "velocity": 105,
      "chip": "ym2612"
    },
    {
      "channel": 3,
      "note": 78,
      "start": 1.7584,
      "duration": 0.0863,
      "velocity": 95,
      "chip": "ym2612"
    },
    {
      "channel": 5,
      "note": 73,
      "start": 1.7872,
      "duration": 0.1751,
      "velocity": 51,
      "chip": "ym2612"
    },
    {
      "channel": 0,
      "note": 58,
      "start": 1.9325,
      "duration": 0.3506,
      "velocity": 51,
      "chip": "ym2612"
    },
    {
      "channel": 1,
      "note": 66,
      "start": 1.9332,
      "duration": 0.1745,
      "velocity": 105,
      "chip": "ym2612"
    },
    {
      "channel": 3,
      "note": 73,
      "start": 1.9339,
      "duration": 0.0865,
      "velocity": 95,
      "chip": "ym2612"
    },
    {
      "channel": 5,
      "note": 70,
      "start": 1.9629,
      "duration": 0.3507,
      "velocity": 51,
      "chip": "ym2612"
    },
    {
      "channel": 1,
      "note": 54,
      "start": 2.1084,
      "duration": 0.1755,
      "velocity": 105,
      "chip": "ym2612"
    },
    {
      "channel": 0,
      "note": 66,
      "start": 2.2837,
      "duration": 0.1749,
      "velocity": 51,
      "chip": "ym2612"
    },
    {
      "channel": 1,
      "note": 61,
      "start": 2.2844,
      "duration": 0.175,
      "velocity": 105,
      "chip": "ym2612"
    },
    {
      "channel": 3,
      "note": 78,
      "start": 2.2852,
      "duration": 0.1749,
      "velocity": 95,
      "chip": "ym2612"
    },
    {
      "channel": 5,
      "note": 78,
      "start": 2.3141,
      "duration": 0.1747,
      "velocity": 51,
      "chip": "ym2612"
    },
    {
      "channel": 0,
      "note": 61,
      "start": 2.4593,
      "duration": 0.1751,
      "velocity": 51,
      "chip": "ym2612"
    },
    {
      "channel": 1,
      "note": 66,
      "start": 2.46,
      "duration": 0.3506,
      "velocity": 105,
      "chip": "ym2612"
    },
    {
      "channel": 5,
      "note": 73,
      "start": 2.4894,
      "duration": 0.1754,
      "velocity": 51,
      "chip": "ym2612"
    },
    {
      "channel": 0,
      "note": 58,
      "start": 2.6349,
      "duration": 0.175,
      "velocity": 51,
      "chip": "ym2612"
    },
    {
      "channel": 3,
      "note": 72,
      "start": 2.636,
      "duration": 0.0868,
      "velocity": 95,
      "chip": "ym2612"
    },
    {
      "channel": 5,
      "note": 70,
      "start": 2.6654,
      "duration": 0.1746,
      "velocity": 51,
      "chip": "ym2612"
    },
    {
      "channel": 3,
      "note": 73,
      "start": 2.7233,
      "duration": 0.088,
      "velocity": 95,
      "chip": "ym2612"
    },
    {
      "channel": 0,
      "note": 68,
      "start": 2.8105,
      "duration": 0.1751,
      "velocity": 51,
      "chip": "ym2612"
    },
    {
      "channel": 1,
      "note": 49,
      "start": 2.8112,
      "duration": 0.3509,
      "velocity": 105,
      "chip": "ym2612"
    },
    {
      "channel": 5,
      "note": 80,
      "start": 2.8406,
      "duration": 0.175,
      "velocity": 51,
      "chip": "ym2612"
    },
    {
      "channel": 0,
      "note": 68,
      "start": 2.9861,
      "duration": 0.1753,
      "velocity": 51,
      "chip": "ym2612"
    },
    {
      "channel": 5,
      "note": 80,
      "start": 3.0162,
      "duration": 0.1754,
      "velocity": 51,
      "chip": "ym2612"
    },
    {
      "channel": 3,
      "note": 61,
      "start": 3.0307,
      "duration": 0.0433,
      "velocity": 95,
      "chip": "ym2612"
    },
    {
      "channel": 3,
      "note": 65,
      "start": 3.0746,
      "duration": 0.0433,
      "velocity": 95,
      "chip": "ym2612"
    },
    {
      "channel": 3,
      "note": 68,
      "start": 3.1185,
      "duration": 0.0443,
      "velocity": 95,
      "chip": "ym2612"
    },
    {
      "channel": 0,
      "note": 67,
      "start": 3.1619,
      "duration": 0.1748,
      "velocity": 51,
      "chip": "ym2612"
    },
    {
      "channel": 1,
      "note": 61,
      "start": 3.1627,
      "duration": 0.1748,
      "velocity": 105,
      "chip": "ym2612"
    },
    {
      "channel": 3,
      "note": 71,
      "start": 3.1635,
      "duration": 0.0861,
      "velocity": 95,
      "chip": "ym2612"
    },
    {
      "channel": 5,
      "note": 79,
      "start": 3.1921,
      "duration": 0.175,
      "velocity": 51,
      "chip": "ym2612"
    },
    {
      "channel": 0,
      "note": 68,
      "start": 3.3373,
      "duration": 0.175,
      "velocity": 51,
      "chip": "ym2612"
    },
    {
      "channel": 1,
      "note": 49,
      "start": 3.338,
      "duration": 0.1751,
      "velocity": 105,
      "chip": "ym2612"
    },
    {
      "channel": 3,
      "note": 68,
      "start": 3.3388,
      "duration": 0.0864,
      "velocity": 95,
      "chip": "ym2612"
    },
    {
      "channel": 5,
      "note": 80,
      "start": 3.3677,
      "duration": 0.1747,
      "velocity": 51,
      "chip": "ym2612"
    },
    {
      "channel": 0,
      "note": 65,
      "start": 3.5129,
      "duration": 0.1751,
      "velocity": 51,
      "chip": "ym2612"
    },
    {
      "channel": 1,
      "note": 49,
      "start": 3.5137,
      "duration": 0.1746,
      "velocity": 105,
      "chip": "ym2612"
    },
    {
      "channel": 5,
      "note": 77,
      "start": 3.5431,
      "duration": 0.1749,
      "velocity": 51,
      "chip": "ym2612"
    },
    {
      "channel": 1,
      "note": 56,
      "start": 3.6888,
      "duration": 0.1755,
      "velocity": 105,
      "chip": "ym2612"
    },
    {
      "channel": 3,
      "note": 73,
      "start": 3.6896,
      "duration": 0.1755,
      "velocity": 95,
      "chip": "ym2612"
    },
    {
      "channel": 0,
      "note": 61,
      "start": 3.8642,
      "duration": 0.3505,
      "velocity": 51,
      "chip": "ym2612"
    },
    {
      "channel": 1,
      "note": 61,
      "start": 3.865,
      "duration": 0.3505,
      "velocity": 105,
      "chip": "ym2612"
    },
    {
      "channel": 5,
      "note": 73,
      "start": 3.8942,
      "duration": 0.3506,
      "velocity": 51,
      "chip": "ym2612"
    },
    {
      "channel": 3,
      "note": 72,
      "start": 4.0405,
      "duration": 0.0872,
      "velocity": 95,
      "chip": "ym2612"
    },
    {
      "channel": 3,
      "note": 73,
      "start": 4.1283,
      "duration": 0.0879,
      "velocity": 95,
      "chip": "ym2612"
    },
    {
      "channel": 0,
      "note": 59,
      "start": 4.2153,
      "duration": 0.3507,
      "velocity": 51,
      "chip": "ym2612"
    },
    {
      "channel": 1,
      "note": 47,
      "start": 4.216,
      "duration": 0.3507,
      "velocity": 105,
      "chip": "ym2612"
    },
    {
      "channel": 5,
      "note": 71,
      "start": 4.2455,
      "duration": 0.3508,
      "velocity": 51,
      "chip": "ym2612"
    },
    {
      "channel": 3,
      "note": 59,
      "start": 4.4356,
      "duration": 0.0433,
      "velocity": 95,
      "chip": "ym2612"
    },
    {
      "channel": 3,
      "note": 63,
      "start": 4.4795,
      "duration": 0.0433,
      "velocity": 95,
      "chip": "ym2612"
    },
    {
      "channel": 3,
      "note": 66,
      "start": 4.5234,
      "duration": 0.0441,
      "velocity": 95,
      "chip": "ym2612"
    },
    {
      "channel": 0,
      "note": 58,
      "start": 4.5666,
      "duration": 0.175,
      "velocity": 51,
      "chip": "ym2612"
    },
    {
      "channel": 1,
      "note": 54,
      "start": 4.5673,
      "duration": 0.1751,
      "velocity": 105,
      "chip": "ym2612"
    },
    {
      "channel": 3,
      "note": 65,
      "start": 4.568,
      "duration": 0.0865,
      "velocity": 95,
      "chip": "ym2612"
    },
    {
      "channel": 5,
      "note": 70,
      "start": 4.597,
      "duration": 0.1749,
      "velocity": 51,
      "chip": "ym2612"
    },
    {
      "channel": 0,
      "note": 59,
      "start": 4.7421,
      "duration": 0.1751,
      "velocity": 51,
      "chip": "ym2612"
    },
    {
      "channel": 1,
      "note": 59,
      "start": 4.7429,
      "duration": 0.1751,
      "velocity": 105,
      "chip": "ym2612"
    },
    {
      "channel": 3,
      "note": 66,
      "start": 4.7436,
      "duration": 0.0866,
      "velocity": 95,
      "chip": "ym2612"
    },
    {
      "channel": 5,
      "note": 71,
      "start": 4.7725,
      "duration": 0.1749,
      "velocity": 51,
      "chip": "ym2612"
    },
    {
      "channel": 0,
      "note": 63,
      "start": 4.9178,
      "duration": 0.3505,
      "velocity": 51,
      "chip": "ym2612"
    },
    {
      "channel": 1,
      "note": 47,
      "start": 4.9185,
      "duration": 0.1745,
      "velocity": 105,
      "chip": "ym2612"
    },
    {
      "channel": 5,
      "note": 75,
      "start": 4.948,
      "duration": 0.3506,
      "velocity": 51,
      "chip": "ym2612"
    },
    {
      "channel": 1,
      "note": 54,
      "start": 5.0937,
      "duration": 0.1754,
      "velocity": 105,
      "chip": "ym2612"
    },
    {
      "channel": 3,
      "note": 71,
      "start": 5.0944,
      "duration": 0.1754,
      "velocity": 95,
      "chip": "ym2612"
    },
    {
      "channel": 0,
      "note": 66,
      "start": 5.2689,
      "duration": 0.3508,
      "velocity": 51,
      "chip": "ym2612"
    },
    {
      "channel": 1,
      "note": 59,
      "start": 5.2697,
      "duration": 0.3508,
      "velocity": 105,
      "chip": "ym2612"
    },
    {
      "channel": 5,
      "note": 78,
      "start": 5.2991,
      "duration": 0.351,
      "velocity": 51,
      "chip": "ym2612"
    },
    {
      "channel": 3,
      "note": 65,
      "start": 5.4453,
      "duration": 0.0872,
      "velocity": 95,
      "chip": "ym2612"
    },
    {
      "channel": 3,
      "note": 66,
      "start": 5.5331,
      "duration": 0.0882,
      "velocity": 95,
      "chip": "ym2612"
    },
    {
      "channel": 0,
      "note": 68,
      "start": 5.6202,
      "duration": 0.1749,
      "velocity": 51,
      "chip": "ym2612"
    },
    {
      "channel": 1,
      "note": 49,
      "start": 5.6211,
      "duration": 0.3505,
      "velocity": 105,
      "chip": "ym2612"
    },
    {
      "channel": 4,
      "note": 73,
      "start": 5.6222,
      "duration": 0.702,
      "velocity": 51,
      "chip": "ym2612"
    },
    {
      "channel": 5,
      "note": 80,
      "start": 5.6507,
      "duration": 0.1749,
      "velocity": 51,
      "chip": "ym2612"
    },
    {
      "channel": 0,
      "note": 68,
      "start": 5.7958,
      "duration": 0.1751,
      "velocity": 51,
      "chip": "ym2612"
    },
    {
      "channel": 5,
      "note": 80,
      "start": 5.8262,
      "duration": 0.1754,
      "velocity": 51,
      "chip": "ym2612"
    },
    {
      "channel": 3,
      "note": 61,
      "start": 5.8404,
      "duration": 0.0433,
      "velocity": 95,
      "chip": "ym2612"
    },
    {
      "channel": 3,
      "note": 65,
      "start": 5.8842,
      "duration": 0.0433,
      "velocity": 95,
      "chip": "ym2612"
    },
    {
      "channel": 3,
      "note": 68,
      "start": 5.9281,
      "duration": 0.0442,
      "velocity": 95,
      "chip": "ym2612"
    },
    {
      "channel": 0,
      "note": 67,
      "start": 5.9715,
      "duration": 0.175,
      "velocity": 51,
      "chip": "ym2612"
    },
    {
      "channel": 1,
      "note": 61,
      "start": 5.9722,
      "duration": 0.1751,
      "velocity": 105,
      "chip": "ym2612"
    },
    {
      "channel": 3,
      "note": 73,
      "start": 5.9729,
      "duration": 0.0865,
      "velocity": 95,
      "chip": "ym2612"
    },
    {
      "channel": 5,
      "note": 79,
      "start": 6.0021,
      "duration": 0.1749,
      "velocity": 51,
      "chip": "ym2612"
    },
    {
      "channel": 0,
      "note": 68,
      "start": 6.1471,
      "duration": 0.1749,
      "velocity": 51,
      "chip": "ym2612"
    },
    {
      "channel": 1,
      "note": 49,
      "start": 6.1478,
      "duration": 0.175,
      "velocity": 105,
      "chip": "ym2612"
    },
    {
      "channel": 3,
      "note": 68,
      "start": 6.1486,
      "duration": 0.0863,
      "velocity": 95,
      "chip": "ym2612"
    },
    {
      "channel": 5,
      "note": 80,
      "start": 6.1777,
      "duration": 0.1749,
      "velocity": 51,
      "chip": "ym2612"
    },
    {
      "channel": 0,
      "note": 73,
      "start": 6.3227,
      "duration": 0.7019,
      "velocity": 51,
      "chip": "ym2612"
    },
    {
      "channel": 1,
      "note": 49,
      "start": 6.3234,
      "duration": 0.1746,
      "velocity": 105,
      "chip": "ym2612"
    },
    {
      "channel": 3,
      "note": 68,
      "start": 6.3241,
      "duration": 0.1745,
      "velocity": 95,
      "chip": "ym2612"
    },
    {
      "channel": 4,
      "note": 85,
      "start": 6.3249,
      "duration": 0.1745,
      "velocity": 51,
      "chip": "ym2612"
    },
    {
      "channel": 5,
      "note": 85,
      "start": 6.3533,
      "duration": 0.7014,
      "velocity": 51,
      "chip": "ym2612"
    },
    {
      "channel": 1,
      "note": 56,
      "start": 6.4985,
      "duration": 0.1751,
      "velocity": 105,
      "chip": "ym2612"
    },
    {
      "channel": 3,
      "note": 68,
      "start": 6.4993,
      "duration": 0.1751,
      "velocity": 95,
      "chip": "ym2612"
    },
    {
      "channel": 4,
      "note": 83,
      "start": 6.5,
      "duration": 0.1751,
      "velocity": 51,
      "chip": "ym2612"
    },
    {
      "channel": 1,
      "note": 61,
      "start": 6.6742,
      "duration": 0.3512,
      "velocity": 105,
      "chip": "ym2612"
    },
    {
      "channel": 3,
      "note": 66,
      "start": 6.675,
      "duration": 0.1746,
      "velocity": 95,
      "chip": "ym2612"
    },
    {
      "channel": 4,
      "note": 82,
      "start": 6.6757,
      "duration": 0.1745,
      "velocity": 51,
      "chip": "ym2612"
    },
    {
      "channel": 3,
      "note": 65,
      "start": 6.8501,
      "duration": 0.1761,
      "velocity": 95,
      "chip": "ym2612"
    },
    {
      "channel": 4,
      "note": 80,
      "start": 6.8509,
      "duration": 0.1757,
      "velocity": 51,
      "chip": "ym2612"
    },
    {
      "channel": 0,
      "note": 66,
      "start": 7.0251,
      "duration": 0.3506,
      "velocity": 51,
      "chip": "ym2612"
    },
    {
      "channel": 1,
      "note": 54,
      "start": 7.026,
      "duration": 0.3504,
      "velocity": 105,
      "chip": "ym2612"
    },
    {
      "channel": 5,
      "note": 78,
      "start": 7.0553,
      "duration": 0.3508,
      "velocity": 51,
      "chip": "ym2612"
    },
    {
      "channel": 3,
      "note": 66,
      "start": 7.2453,
      "duration": 0.0432,
      "velocity": 95,
      "chip": "ym2612"
    },
    {
      "channel": 3,
      "note": 70,
      "start": 7.2891,
      "duration": 0.0435,
      "velocity": 95,
      "chip": "ym2612"
    },
    {
      "channel": 3,
      "note": 73,
      "start": 7.3332,
      "duration": 0.0439,
      "velocity": 95,
      "chip": "ym2612"
    },
    {
      "channel": 0,
      "note": 61,
      "start": 7.3763,
      "duration": 0.175,
      "velocity": 51,
      "chip": "ym2612"
    },
    {
      "channel": 1,
      "note": 61,
      "start": 7.3771,
      "duration": 0.1749,
      "velocity": 105,
      "chip": "ym2612"
    },
    {
      "channel": 3,
      "note": 78,
      "start": 7.3778,
      "duration": 0.0865,
      "velocity": 95,
      "chip": "ym2612"
    },
    {
      "channel": 5,
      "note": 73,
      "start": 7.4066,
      "duration": 0.1751,
      "velocity": 51,
      "chip": "ym2612"
    },
    {
      "channel": 0,
      "note": 58,
      "start": 7.5519,
      "duration": 0.3506,
      "velocity": 51,
      "chip": "ym2612"
    },
    {
      "channel": 1,
      "note": 66,
      "start": 7.5526,
      "duration": 0.1746,
      "velocity": 105,
      "chip": "ym2612"
    },
    {
      "channel": 3,
      "note": 73,
      "start": 7.5533,
      "duration": 0.0865,
      "velocity": 95,
      "chip": "ym2612"
    },
    {
      "channel": 5,
      "note": 70,
      "start": 7.5823,
      "duration": 0.3506,
      "velocity": 51,
      "chip": "ym2612"
    },
    {
      "channel": 1,
      "note": 54,
      "start": 7.7278,
      "duration": 0.1754,
      "velocity": 105,
      "chip": "ym2612"
    },
    {
      "channel": 0,
      "note": 66,
      "start": 7.903,
      "duration": 0.1751,
      "velocity": 51,
      "chip": "ym2612"
    },
    {
      "channel": 1,
      "note": 61,
      "start": 7.9038,
      "duration": 0.175,
      "velocity": 105,
      "chip": "ym2612"
    },
    {
      "channel": 3,
      "note": 78,
      "start": 7.9045,
      "duration": 0.175,
      "velocity": 95,
      "chip": "ym2612"
    },
    {
      "channel": 5,
      "note": 78,
      "start": 7.9335,
      "duration": 0.1747,
      "velocity": 51,
      "chip": "ym2612"
    },
    {
      "channel": 0,
      "note": 61,
      "start": 8.0787,
      "duration": 0.1751,
      "velocity": 51,
      "chip": "ym2612"
    },
    {
      "channel": 1,
      "note": 66,
      "start": 8.0794,
      "duration": 0.3508,
      "velocity": 105,
      "chip": "ym2612"
    },
    {
      "channel": 5,
      "note": 73,
      "start": 8.1088,
      "duration": 0.1754,
      "velocity": 51,
      "chip": "ym2612"
    },
    {
      "channel": 0,
      "note": 58,
      "start": 8.2543,
      "duration": 0.1751,
      "velocity": 51,
      "chip": "ym2612"
    },
    {
      "channel": 3,
      "note": 72,
      "start": 8.2554,
      "duration": 0.0869,
      "velocity": 95,
      "chip": "ym2612"
    },
    {
      "channel": 5,
      "note": 70,
      "start": 8.2848,
      "duration": 0.1749,
      "velocity": 51,
      "chip": "ym2612"
    },
    {
      "channel": 3,
      "note": 73,
      "start": 8.3428,
      "duration": 0.088,
      "velocity": 95,
      "chip": "ym2612"
    },
    {
      "channel": 0,
      "note": 68,
      "start": 8.4299,
      "duration": 0.175,
      "velocity": 51,
      "chip": "ym2612"
    },
    {
      "channel": 1,
      "note": 49,
      "start": 8.4307,
      "duration": 0.3506,
      "velocity": 105,
      "chip": "ym2612"
    },
    {
      "channel": 5,
      "note": 80,
      "start": 8.4603,
      "duration": 0.1747,
      "velocity": 51,
      "chip": "ym2612"
    },
    {
      "channel": 0,
      "note": 68,
      "start": 8.6055,
      "duration": 0.1751,
      "velocity": 51,
      "chip": "ym2612"
    },
    {
      "channel": 5,
      "note": 80,
      "start": 8.6356,
      "duration": 0.1754,
      "velocity": 51,
      "chip": "ym2612"
    },
    {
      "channel": 3,
      "note": 61,
      "start": 8.6501,
      "duration": 0.0433,
      "velocity": 95,
      "chip": "ym2612"
    },
    {
      "channel": 3,
      "note": 65,
      "start": 8.6941,
      "duration": 0.0432,
      "velocity": 95,
      "chip": "ym2612"
    },
    {
      "channel": 3,
      "note": 68,
      "start": 8.7379,
      "duration": 0.0442,
      "velocity": 95,
      "chip": "ym2612"
    },
    {
      "channel": 0,
      "note": 67,
      "start": 8.7812,
      "duration": 0.1749,
      "velocity": 51,
      "chip": "ym2612"
    },
    {
      "channel": 1,
      "note": 61,
      "start": 8.7819,
      "duration": 0.1749,
      "velocity": 105,
      "chip": "ym2612"
    },
    {
      "channel": 3,
      "note": 71,
      "start": 8.7827,
      "duration": 0.0864,
      "velocity": 95,
      "chip": "ym2612"
    },
    {
      "channel": 5,
      "note": 79,
      "start": 8.8115,
      "duration": 0.1749,
      "velocity": 51,
      "chip": "ym2612"
    },
    {
      "channel": 0,
      "note": 68,
      "start": 8.9567,
      "duration": 0.175,
      "velocity": 51,
      "chip": "ym2612"
    },
    {
      "channel": 1,
      "note": 49,
      "start": 8.9574,
      "duration": 0.1751,
      "velocity": 105,
      "chip": "ym2612"
    },
    {
      "channel": 3,
      "note": 68,
      "start": 8.9582,
      "duration": 0.0865,
      "velocity": 95,
      "chip": "ym2612"
    },
    {
      "channel": 5,
      "note": 80,
      "start": 8.9871,
      "duration": 0.1748,
      "velocity": 51,
      "chip": "ym2612"
    },
    {
      "channel": 0,
      "note": 65,
      "start": 9.1323,
      "duration": 0.175,
      "velocity": 51,
      "chip": "ym2612"
    },
    {
      "channel": 1,
      "note": 49,
      "start": 9.133,
      "duration": 0.1746,
      "velocity": 105,
      "chip": "ym2612"
    },
    {
      "channel": 5,
      "note": 77,
      "start": 9.1625,
      "duration": 0.175,
      "velocity": 51,
      "chip": "ym2612"
    },
    {
      "channel": 1,
      "note": 56,
      "start": 9.3082,
      "duration": 0.1754,
      "velocity": 105,
      "chip": "ym2612"
    },
    {
      "channel": 3,
      "note": 73,
      "start": 9.3089,
      "duration": 0.1755,
      "velocity": 95,
      "chip": "ym2612"
    },
    {
      "channel": 0,
      "note": 61,
      "start": 9.4836,
      "duration": 0.3506,
      "velocity": 51,
      "chip": "ym2612"
    },
    {
      "channel": 1,
      "note": 61,
      "start": 9.4843,
      "duration": 0.3506,
      "velocity": 105,
      "chip": "ym2612"
    },
    {
      "channel": 5,
      "note": 73,
      "start": 9.5138,
      "duration": 0.3506,
      "velocity": 51,
      "chip": "ym2612"
    },
    {
      "channel": 3,
      "note": 72,
      "start": 9.6598,
      "duration": 0.0873,
      "velocity": 95,
      "chip": "ym2612"
    },
    {
      "channel": 3,
      "note": 73,
      "start": 9.7477,
      "duration": 0.0879,
      "velocity": 95,
      "chip": "ym2612"
    },
    {
      "channel": 0,
      "note": 59,
      "start": 9.8348,
      "duration": 0.3506,
      "velocity": 51,
      "chip": "ym2612"
    },
    {
      "channel": 1,
      "note": 47,
      "start": 9.8355,
      "duration": 0.3506,
      "velocity": 105,
      "chip": "ym2612"
    },
    {
      "channel": 5,
      "note": 71,
      "start": 9.865,
      "duration": 0.3508,
      "velocity": 51,
      "chip": "ym2612"
    },
    {
      "channel": 3,
      "note": 59,
      "start": 10.055,
      "duration": 0.0433,
      "velocity": 95,
      "chip": "ym2612"
    },
    {
      "channel": 3,
      "note": 63,
      "start": 10.0989,
      "duration": 0.0432,
      "velocity": 95,
      "chip": "ym2612"
    },
    {
      "channel": 3,
      "note": 66,
      "start": 10.1427,
      "duration": 0.0441,
      "velocity": 95,
      "chip": "ym2612"
    },
    {
      "channel": 0,
      "note": 58,
      "start": 10.186,
      "duration": 0.175,
      "velocity": 51,
      "chip": "ym2612"
    },
    {
      "channel": 1,
      "note": 54,
      "start": 10.1867,
      "duration": 0.1749,
      "velocity": 105,
      "chip": "ym2612"
    },
    {
      "channel": 3,
      "note": 65,
      "start": 10.1874,
      "duration": 0.0865,
      "velocity": 95,
      "chip": "ym2612"
    },
    {
      "channel": 5,
      "note": 70,
      "start": 10.2164,
      "duration": 0.175,
      "velocity": 51,
      "chip": "ym2612"
    },
    {
      "channel": 0,
      "note": 59,
      "start": 10.3615,
      "duration": 0.1751,
      "velocity": 51,
      "chip": "ym2612"
    },
    {
      "channel": 1,
      "note": 59,
      "start": 10.3622,
      "duration": 0.1751,
      "velocity": 105,
      "chip": "ym2612"
    },
    {
      "channel": 3,
      "note": 66,
      "start": 10.363,
      "duration": 0.0865,
      "velocity": 95,
      "chip": "ym2612"
    },
    {
      "channel": 5,
      "note": 71,
      "start": 10.392,
      "duration": 0.1747,
      "velocity": 51,
      "chip": "ym2612"
    },
    {
      "channel": 0,
      "note": 63,
      "start": 10.5372,
      "duration": 0.3506,
      "velocity": 51,
      "chip": "ym2612"
    },
    {
      "channel": 1,
      "note": 47,
      "start": 10.5379,
      "duration": 0.1747,
      "velocity": 105,
      "chip": "ym2612"
    },
    {
      "channel": 5,
      "note": 75,
      "start": 10.5674,
      "duration": 0.3505,
      "velocity": 51,
      "chip": "ym2612"
    },
    {
      "channel": 1,
      "note": 54,
      "start": 10.7133,
      "duration": 0.1752,
      "velocity": 105,
      "chip": "ym2612"
    },
    {
      "channel": 3,
      "note": 71,
      "start": 10.714,
      "duration": 0.1753,
      "velocity": 95,
      "chip": "ym2612"
    },
    {
      "channel": 0,
      "note": 66,
      "start": 10.8884,
      "duration": 0.3507,
      "velocity": 51,
      "chip": "ym2612"
    },
    {
      "channel": 1,
      "note": 59,
      "start": 10.8891,
      "duration": 0.3509,
      "velocity": 105,
      "chip": "ym2612"
    },
    {
      "channel": 5,
      "note": 78,
      "start": 10.9185,
      "duration": 0.3507,
      "velocity": 51,
      "chip": "ym2612"
    },
    {
      "channel": 3,
      "note": 65,
      "start": 11.0649,
      "duration": 0.0871,
      "velocity": 95,
      "chip": "ym2612"
    },
    {
      "channel": 3,
      "note": 66,
      "start": 11.1525,
      "duration": 0.0883,
      "velocity": 95,
      "chip": "ym2612"
    },
    {
      "channel": 0,
      "note": 65,
      "start": 11.2397,
      "duration": 0.3506,
      "velocity": 51,
      "chip": "ym2612"
    },
    {
      "channel": 1,
      "note": 49,
      "start": 11.2405,
      "duration": 0.3505,
      "velocity": 105,
      "chip": "ym2612"
    },
    {
      "channel": 5,
      "note": 77,
      "start": 11.2699,
      "duration": 0.3507,
      "velocity": 51,
      "chip": "ym2612"
    },
    {
      "channel": 3,
      "note": 61,
      "start": 11.4598,
      "duration": 0.0435,
      "velocity": 95,
      "chip": "ym2612"
    },
    {
      "channel": 3,
      "note": 65,
      "start": 11.5039,
      "duration": 0.0433,
      "velocity": 95,
      "chip": "ym2612"
    },
    {
      "channel": 3,
      "note": 68,
      "start": 11.5477,
      "duration": 0.044,
      "velocity": 95,
      "chip": "ym2612"
    },
    {
      "channel": 0,
      "note": 61,
      "start": 11.5909,
      "duration": 0.175,
      "velocity": 51,
      "chip": "ym2612"
    },
    {
      "channel": 1,
      "note": 61,
      "start": 11.5916,
      "duration": 0.1749,
      "velocity": 105,
      "chip": "ym2612"
    },
    {
      "channel": 3,
      "note": 73,
      "start": 11.5924,
      "duration": 0.0864,
      "velocity": 95,
      "chip": "ym2612"
    },
    {
      "channel": 5,
      "note": 73,
      "start": 11.6212,
      "duration": 0.1751,
      "velocity": 51,
      "chip": "ym2612"
    },
    {
      "channel": 0,
      "note": 61,
      "start": 11.7664,
      "duration": 0.1751,
      "velocity": 51,
      "chip": "ym2612"
    },
    {
      "channel": 1,
      "note": 49,
      "start": 11.7671,
      "duration": 0.1751,
      "velocity": 105,
      "chip": "ym2612"
    },
    {
      "channel": 3,
      "note": 68,
      "start": 11.7679,
      "duration": 0.0864,
      "velocity": 95,
      "chip": "ym2612"
    },
    {
      "channel": 5,
      "note": 73,
      "start": 11.7969,
      "duration": 0.1749,
      "velocity": 51,
      "chip": "ym2612"
    },
    {
      "channel": 0,
      "note": 65,
      "start": 11.9421,
      "duration": 0.175,
      "velocity": 51,
      "chip": "ym2612"
    },
    {
      "channel": 1,
      "note": 49,
      "start": 11.9428,
      "duration": 0.175,
      "velocity": 105,
      "chip": "ym2612"
    },
    {
      "channel": 3,
      "note": 73,
      "start": 11.9435,
      "duration": 0.7047,
      "velocity": 95,
      "chip": "ym2612"
    },
    {
      "channel": 5,
      "note": 77,
      "start": 11.9725,
      "duration": 0.1751,
      "velocity": 51,
      "chip": "ym2612"
    },
    {
      "channel": 0,
      "note": 66,
      "start": 12.1176,
      "duration": 0.1753,
      "velocity": 51,
      "chip": "ym2612"
    },
    {
      "channel": 1,
      "note": 56,
      "start": 12.1183,
      "duration": 0.1753,
      "velocity": 105,
      "chip": "ym2612"
    },
    {
      "channel": 5,
      "note": 78,
      "start": 12.1482,
      "duration": 0.1748,
      "velocity": 51,
      "chip": "ym2612"
    },
    {
      "channel": 0,
      "note": 68,
      "start": 12.2935,
      "duration": 0.1747,
      "velocity": 51,
      "chip": "ym2612"
    },
    {
      "channel": 1,
      "note": 61,
      "start": 12.2942,
      "duration": 0.3533,
      "velocity": 105,
      "chip": "ym2612"
    },
    {
      "channel": 5,
      "note": 80,
      "start": 12.3236,
      "duration": 0.1751,
      "velocity": 51,
      "chip": "ym2612"
    },
    {
      "channel": 0,
      "note": 65,
      "start": 12.4689,
      "duration": 0.1779,
      "velocity": 103,
      "chip": "ym2612"
    },
    {
      "channel": 5,
      "note": 77,
      "start": 12.4993,
      "duration": 0.178,
      "velocity": 103,
      "chip": "ym2612"
    },
    {
      "channel": 0,
      "note": 66,
      "start": 12.6473,
      "duration": 0.3477,
      "velocity": 103,
      "chip": "ym2612"
    },
    {
      "channel": 1,
      "note": 59,
      "start": 12.6481,
      "duration": 0.3476,
      "velocity": 105,
      "chip": "ym2612"
    },
    {
      "channel": 4,
      "note": 75,
      "start": 12.6492,
      "duration": 1.4013,
      "velocity": 51,
      "chip": "ym2612"
    },
    {
      "channel": 5,
      "note": 78,
      "start": 12.678,
      "duration": 0.3473,
      "velocity": 103,
      "chip": "ym2612"
    },
    {
      "channel": 0,
      "note": 59,
      "start": 12.9956,
      "duration": 0.1751,
      "velocity": 103,
      "chip": "ym2612"
    },
    {
      "channel": 5,
      "note": 71,
      "start": 13.0258,
      "duration": 0.1753,
      "velocity": 103,
      "chip": "ym2612"
    },
    {
      "channel": 0,
      "note": 59,
      "start": 13.1713,
      "duration": 0.1749,
      "velocity": 103,
      "chip": "ym2612"
    },
    {
      "channel": 1,
      "note": 59,
      "start": 13.172,
      "duration": 0.175,
      "velocity": 105,
      "chip": "ym2612"
    },
    {
      "channel": 5,
      "note": 71,
      "start": 13.2017,
      "duration": 0.175,
      "velocity": 103,
      "chip": "ym2612"
    },
    {
      "channel": 0,
      "note": 59,
      "start": 13.3469,
      "duration": 0.175,
      "velocity": 103,
      "chip": "ym2612"
    },
    {
      "channel": 1,
      "note": 59,
      "start": 13.3477,
      "duration": 0.3506,
      "velocity": 105,
      "chip": "ym2612"
    },
    {
      "channel": 5,
      "note": 71,
      "start": 13.3773,
      "duration": 0.1748,
      "velocity": 103,
      "chip": "ym2612"
    },
    {
      "channel": 3,
      "note": 59,
      "start": 13.5669,
      "duration": 0.0432,
      "velocity": 95,
      "chip": "ym2612"
    },
    {
      "channel": 3,
      "note": 63,
      "start": 13.6108,
      "duration": 0.0432,
      "velocity": 95,
      "chip": "ym2612"
    },
    {
      "channel": 3,
      "note": 66,
      "start": 13.6546,
      "duration": 0.044,
      "velocity": 95,
      "chip": "ym2612"
    },
    {
      "channel": 0,
      "note": 59,
      "start": 13.6981,
      "duration": 0.175,
      "velocity": 103,
      "chip": "ym2612"
    },
    {
      "channel": 3,
      "note": 71,
      "start": 13.6992,
      "duration": 0.0866,
      "velocity": 95,
      "chip": "ym2612"
    },
    {
      "channel": 5,
      "note": 71,
      "start": 13.7285,
      "duration": 0.1749,
      "velocity": 103,
      "chip": "ym2612"
    },
    {
      "channel": 1,
      "note": 59,
      "start": 13.874,
      "duration": 0.1754,
      "velocity": 105,
      "chip": "ym2612"
    },
    {
      "channel": 0,
      "note": 65,
      "start": 14.0493,
      "duration": 0.3506,
      "velocity": 103,
      "chip": "ym2612"
    },
    {
      "channel": 1,
      "note": 61,
      "start": 14.0501,
      "duration": 0.3506,
      "velocity": 105,
      "chip": "ym2612"
    },
    {
      "channel": 4,
      "note": 77,
      "start": 14.0512,
      "duration": 1.4043,
      "velocity": 51,
      "chip": "ym2612"
    },
    {
      "channel": 5,
      "note": 77,
      "start": 14.0797,
      "duration": 0.3505,
      "velocity": 103,
      "chip": "ym2612"
    },
    {
      "channel": 0,
      "note": 61,
      "start": 14.4005,
      "duration": 0.175,
      "velocity": 103,
      "chip": "ym2612"
    },
    {
      "channel": 5,
      "note": 73,
      "start": 14.4308,
      "duration": 0.1751,
      "velocity": 103,
      "chip": "ym2612"
    },
    {
      "channel": 0,
      "note": 61,
      "start": 14.5761,
      "duration": 0.1751,
      "velocity": 103,
      "chip": "ym2612"
    },
    {
      "channel": 1,
      "note": 61,
      "start": 14.5768,
      "duration": 0.1751,
      "velocity": 105,
      "chip": "ym2612"
    },
    {
      "channel": 5,
      "note": 73,
      "start": 14.6066,
      "duration": 0.175,
      "velocity": 103,
      "chip": "ym2612"
    },
    {
      "channel": 0,
      "note": 61,
      "start": 14.7517,
      "duration": 0.175,
      "velocity": 103,
      "chip": "ym2612"
    },
    {
      "channel": 1,
      "note": 61,
      "start": 14.7524,
      "duration": 0.3506,
      "velocity": 105,
      "chip": "ym2612"
    },
    {
      "channel": 5,
      "note": 73,
      "start": 14.7822,
      "duration": 0.1747,
      "velocity": 103,
      "chip": "ym2612"
    },
    {
      "channel": 0,
      "note": 68,
      "start": 15.1029,
      "duration": 0.3507,
      "velocity": 103,
      "chip": "ym2612"
    },
    {
      "channel": 5,
      "note": 80,
      "start": 15.1331,
      "duration": 0.3509,
      "velocity": 103,
      "chip": "ym2612"
    },
    {
      "channel": 1,
      "note": 61,
      "start": 15.2789,
      "duration": 0.1754,
      "velocity": 105,
      "chip": "ym2612"
    },
    {
      "channel": 0,
      "note": 66,
      "start": 15.4542,
      "duration": 0.3506,
      "velocity": 103,
      "chip": "ym2612"
    },
    {
      "channel": 1,
      "note": 59,
      "start": 15.455,
      "duration": 0.3506,
      "velocity": 105,
      "chip": "ym2612"
    },
    {
      "channel": 4,
      "note": 75,
      "start": 15.4561,
      "duration": 1.4042,
      "velocity": 51,
      "chip": "ym2612"
    },
    {
      "channel": 5,
      "note": 78,
      "start": 15.4846,
      "duration": 0.3503,
      "velocity": 103,
      "chip": "ym2612"
    },
    {
      "channel": 0,
      "note": 59,
      "start": 15.8054,
      "duration": 0.1751,
      "velocity": 103,
      "chip": "ym2612"
    },
    {
      "channel": 5,
      "note": 71,
      "start": 15.8356,
      "duration": 0.1753,
      "velocity": 103,
      "chip": "ym2612"
    },
    {
      "channel": 0,
      "note": 59,
      "start": 15.9811,
      "duration": 0.1749,
      "velocity": 103,
      "chip": "ym2612"
    },
    {
      "channel": 1,
      "note": 59,
      "start": 15.9818,
      "duration": 0.1749,
      "velocity": 105,
      "chip": "ym2612"
    },
    {
      "channel": 5,
      "note": 71,
      "start": 16.0115,
      "duration": 0.1749,
      "velocity": 103,
      "chip": "ym2612"
    },
    {
      "channel": 0,
      "note": 59,
      "start": 16.1566,
      "duration": 0.1751,
      "velocity": 103,
      "chip": "ym2612"
    },
    {
      "channel": 1,
      "note": 59,
      "start": 16.1573,
      "duration": 0.3506,
      "velocity": 105,
      "chip": "ym2612"
    },
    {
      "channel": 5,
      "note": 71,
      "start": 16.187,
      "duration": 0.1748,
      "velocity": 103,
      "chip": "ym2612"
    },
    {
      "channel": 3,
      "note": 59,
      "start": 16.3766,
      "duration": 0.0432,
      "velocity": 95,
      "chip": "ym2612"
    },
    {
      "channel": 3,
      "note": 63,
      "start": 16.4205,
      "duration": 0.0436,
      "velocity": 95,
      "chip": "ym2612"
    },
    {
      "channel": 3,
      "note": 66,
      "start": 16.4646,
      "duration": 0.0436,
      "velocity": 95,
      "chip": "ym2612"
    },
    {
      "channel": 0,
      "note": 59,
      "start": 16.5078,
      "duration": 0.1751,
      "velocity": 103,
      "chip": "ym2612"
    },
    {
      "channel": 3,
      "note": 71,
      "start": 16.5089,
      "duration": 0.0866,
      "velocity": 95,
      "chip": "ym2612"
    },
    {
      "channel": 5,
      "note": 71,
      "start": 16.5382,
      "duration": 0.1748,
      "velocity": 103,
      "chip": "ym2612"
    },
    {
      "channel": 1,
      "note": 59,
      "start": 16.6837,
      "duration": 0.1754,
      "velocity": 105,
      "chip": "ym2612"
    },
    {
      "channel": 0,
      "note": 65,
      "start": 16.859,
      "duration": 0.3507,
      "velocity": 103,
      "chip": "ym2612"
    },
    {
      "channel": 1,
      "note": 61,
      "start": 16.8598,
      "duration": 0.3506,
      "velocity": 105,
      "chip": "ym2612"
    },
    {
      "channel": 4,
      "note": 77,
      "start": 16.8608,
      "duration": 0.7023,
      "velocity": 51,
      "chip": "ym2612"
    },
    {
      "channel": 5,
      "note": 77,
      "start": 16.8894,
      "duration": 0.3504,
      "velocity": 103,
      "chip": "ym2612"
    },
    {
      "channel": 0,
      "note": 61,
      "start": 17.2103,
      "duration": 0.175,
      "velocity": 103,
      "chip": "ym2612"
    },
    {
      "channel": 5,
      "note": 73,
      "start": 17.2404,
      "duration": 0.1752,
      "velocity": 103,
      "chip": "ym2612"
    },
    {
      "channel": 0,
      "note": 61,
      "start": 17.3859,
      "duration": 0.1751,
      "velocity": 103,
      "chip": "ym2612"
    },
    {
      "channel": 1,
      "note": 61,
      "start": 17.3865,
      "duration": 0.1751,
      "velocity": 105,
      "chip": "ym2612"
    },
    {
      "channel": 5,
      "note": 73,
      "start": 17.4163,
      "duration": 0.1755,
      "velocity": 103,
      "chip": "ym2612"
    },
    {
      "channel": 0,
      "note": 61,
      "start": 17.5615,
      "duration": 0.175,
      "velocity": 103,
      "chip": "ym2612"
    },
    {
      "channel": 1,
      "note": 61,
      "start": 17.5622,
      "duration": 0.1746,
      "velocity": 105,
      "chip": "ym2612"
    },
    {
      "channel": 3,
      "note": 73,
      "start": 17.5629,
      "duration": 0.0864,
      "velocity": 95,
      "chip": "ym2612"
    },
    {
      "channel": 4,
      "note": 73,
      "start": 17.5638,
      "duration": 0.0863,
      "velocity": 51,
      "chip": "ym2612"
    },
    {
      "channel": 5,
      "note": 73,
      "start": 17.5923,
      "duration": 0.1746,
      "velocity": 103,
      "chip": "ym2612"
    },
    {
      "channel": 3,
      "note": 71,
      "start": 17.65,
      "duration": 0.0876,
      "velocity": 95,
      "chip": "ym2612"
    },
    {
      "channel": 4,
      "note": 72,
      "start": 17.6507,
      "duration": 0.0875,
      "velocity": 51,
      "chip": "ym2612"
    },
    {
      "channel": 1,
      "note": 61,
      "start": 17.7374,
      "duration": 0.1754,
      "velocity": 105,
      "chip": "ym2612"
    },
    {
      "channel": 3,
      "note": 73,
      "start": 17.7381,
      "duration": 0.0866,
      "velocity": 95,
      "chip": "ym2612"
    },
    {
      "channel": 4,
      "note": 73,
      "start": 17.7389,
      "duration": 0.0861,
      "velocity": 51,
      "chip": "ym2612"
    },
    {
      "channel": 4,
      "note": 72,
      "start": 17.8257,
      "duration": 0.0887,
      "velocity": 51,
      "chip": "ym2612"
    },
    {
      "channel": 0,
      "note": 61,
      "start": 17.9127,
      "duration": 0.3538,
      "velocity": 101,
      "chip": "ym2612"
    },
    {
      "channel": 1,
      "note": 63,
      "start": 17.9134,
      "duration": 0.1746,
      "velocity": 105,
      "chip": "ym2612"
    },
    {
      "channel": 3,
      "note": 73,
      "start": 17.9142,
      "duration": 0.0864,
      "velocity": 95,
      "chip": "ym2612"
    },
    {
      "channel": 4,
      "note": 73,
      "start": 17.915,
      "duration": 0.0859,
      "velocity": 51,
      "chip": "ym2612"
    },
    {
      "channel": 5,
      "note": 73,
      "start": 17.9434,
      "duration": 0.3538,
      "velocity": 101,
      "chip": "ym2612"
    },
    {
      "channel": 4,
      "note": 75,
      "start": 18.0015,
      "duration": 0.088,
      "velocity": 51,
      "chip": "ym2612"
    },
    {
      "channel": 1,
      "note": 65,
      "start": 18.0886,
      "duration": 0.1786,
      "velocity": 105,
      "chip": "ym2612"
    },
    {
      "channel": 3,
      "note": 73,
      "start": 18.0894,
      "duration": 0.0868,
      "velocity": 95,
      "chip": "ym2612"
    },
    {
      "channel": 4,
      "note": 77,
      "start": 18.0902,
      "duration": 0.0864,
      "velocity": 51,
      "chip": "ym2612"
    },
    {
      "channel": 4,
      "note": 80,
      "start": 18.1771,
      "duration": 0.0921,
      "velocity": 51,
      "chip": "ym2612"
    },
    {
      "channel": 0,
      "note": 82,
      "start": 18.2671,
      "duration": 0.1718,
      "velocity": 101,
      "chip": "ym2612"
    },
    {
      "channel": 1,
      "note": 54,
      "start": 18.2678,
      "duration": 0.3475,
      "velocity": 105,
      "chip": "ym2612"
    },
    {
      "channel": 3,
      "note": 66,
      "start": 18.2685,
      "duration": 0.0833,
      "velocity": 95,
      "chip": "ym2612"
    },
    {
      "channel": 4,
      "note": 78,
      "start": 18.2698,
      "duration": 0.3471,
      "velocity": 51,
      "chip": "ym2612"
    },
    {
      "channel": 5,
      "note": 94,
      "start": 18.2979,
      "duration": 0.1717,
      "velocity": 101,
      "chip": "ym2612"
    },
    {
      "channel": 0,
      "note": 80,
      "start": 18.4395,
      "duration": 0.1751,
      "velocity": 101,
      "chip": "ym2612"
    },
    {
      "channel": 3,
      "note": 78,
      "start": 18.4405,
      "duration": 0.0868,
      "velocity": 95,
      "chip": "ym2612"
    },
    {
      "channel": 5,
      "note": 92,
      "start": 18.4702,
      "duration": 0.1751,
      "velocity": 101,
      "chip": "ym2612"
    },
    {
      "channel": 0,
      "note": 78,
      "start": 18.6151,
      "duration": 0.3506,
      "velocity": 101,
      "chip": "ym2612"
    },
    {
      "channel": 1,
      "note": 61,
      "start": 18.6159,
      "duration": 0.1746,
      "velocity": 105,
      "chip": "ym2612"
    },
    {
      "channel": 3,
      "note": 66,
      "start": 18.6167,
      "duration": 0.0863,
      "velocity": 95,
      "chip": "ym2612"
    },
    {
      "channel": 4,
      "note": 73,
      "start": 18.6175,
      "duration": 0.1745,
      "velocity": 51,
      "chip": "ym2612"
    },
    {
      "channel": 5,
      "note": 90,
      "start": 18.6458,
      "duration": 0.3506,
      "velocity": 101,
      "chip": "ym2612"
    },
    {
      "channel": 1,
      "note": 58,
      "start": 18.7911,
      "duration": 0.1754,
      "velocity": 105,
      "chip": "ym2612"
    },
    {
      "channel": 3,
      "note": 78,
      "start": 18.7918,
      "duration": 0.0868,
      "velocity": 95,
      "chip": "ym2612"
    },
    {
      "channel": 4,
      "note": 70,
      "start": 18.7926,
      "duration": 0.3506,
      "velocity": 51,
      "chip": "ym2612"
    },
    {
      "channel": 0,
      "note": 73,
      "start": 18.9663,
      "duration": 0.3506,
      "velocity": 101,
      "chip": "ym2612"
    },
    {
      "channel": 1,
      "note": 54,
      "start": 18.967,
      "duration": 0.1747,
      "velocity": 105,
      "chip": "ym2612"
    },
    {
      "channel": 3,
      "note": 66,
      "start": 18.9679,
      "duration": 0.0864,
      "velocity": 95,
      "chip": "ym2612"
    },
    {
      "channel": 5,
      "note": 85,
      "start": 18.9972,
      "duration": 0.3506,
      "velocity": 101,
      "chip": "ym2612"
    },
    {
      "channel": 1,
      "note": 66,
      "start": 19.1423,
      "duration": 0.3511,
      "velocity": 105,
      "chip": "ym2612"
    },
    {
      "channel": 3,
      "note": 78,
      "start": 19.143,
      "duration": 0.0868,
      "velocity": 95,
      "chip": "ym2612"
    },
    {
      "channel": 4,
      "note": 78,
      "start": 19.1438,
      "duration": 0.1751,
      "velocity": 51,
      "chip": "ym2612"
    },
    {
      "channel": 0,
      "note": 78,
      "start": 19.3175,
      "duration": 0.1751,
      "velocity": 101,
      "chip": "ym2612"
    },
    {
      "channel": 3,
      "note": 66,
      "start": 19.3187,
      "duration": 0.0868,
      "velocity": 95,
      "chip": "ym2612"
    },
    {
      "channel": 4,
      "note": 73,
      "start": 19.3194,
      "duration": 0.1754,
      "velocity": 51,
      "chip": "ym2612"
    },
    {
      "channel": 5,
      "note": 90,
      "start": 19.3484,
      "duration": 0.1748,
      "velocity": 101,
      "chip": "ym2612"
    },
    {
      "channel": 0,
      "note": 82,
      "start": 19.4932,
      "duration": 0.1749,
      "velocity": 101,
      "chip": "ym2612"
    },
    {
      "channel": 1,
      "note": 54,
      "start": 19.4939,
      "duration": 0.1749,
      "velocity": 105,
      "chip": "ym2612"
    },
    {
      "channel": 3,
      "note": 78,
      "start": 19.4947,
      "duration": 0.0864,
      "velocity": 95,
      "chip": "ym2612"
    },
    {
      "channel": 4,
      "note": 70,
      "start": 19.4954,
      "duration": 0.175,
      "velocity": 51,
      "chip": "ym2612"
    },
    {
      "channel": 5,
      "note": 94,
      "start": 19.5238,
      "duration": 0.175,
      "velocity": 101,
      "chip": "ym2612"
    },
    {
      "channel": 0,
      "note": 83,
      "start": 19.6687,
      "duration": 0.3507,
      "velocity": 101,
      "chip": "ym2612"
    },
    {
      "channel": 1,
      "note": 59,
      "start": 19.6695,
      "duration": 0.5262,
      "velocity": 105,
      "chip": "ym2612"
    },
    {
      "channel": 3,
      "note": 66,
      "start": 19.6703,
      "duration": 0.0863,
      "velocity": 95,
      "chip": "ym2612"
    },
    {
      "channel": 4,
      "note": 71,
      "start": 19.6711,
      "duration": 0.1742,
      "velocity": 51,
      "chip": "ym2612"
    },
    {
      "channel": 5,
      "note": 95,
      "start": 19.6995,
      "duration": 0.3506,
      "velocity": 101,
      "chip": "ym2612"
    },
    {
      "channel": 3,
      "note": 78,
      "start": 19.8452,
      "duration": 0.0871,
      "velocity": 95,
      "chip": "ym2612"
    },
    {
      "channel": 0,
      "note": 82,
      "start": 20.0201,
      "duration": 0.1749,
      "velocity": 101,
      "chip": "ym2612"
    },
    {
      "channel": 3,
      "note": 66,
      "start": 20.0212,
      "duration": 0.0867,
      "velocity": 95,
      "chip": "ym2612"
    },
    {
      "channel": 4,
      "note": 75,
      "start": 20.022,
      "duration": 0.1753,
      "velocity": 51,
      "chip": "ym2612"
    },
    {
      "channel": 5,
      "note": 94,
      "start": 20.0507,
      "duration": 0.1749,
      "velocity": 101,
      "chip": "ym2612"
    },
    {
      "channel": 0,
      "note": 83,
      "start": 20.1956,
      "duration": 0.1751,
      "velocity": 101,
      "chip": "ym2612"
    },
    {
      "channel": 1,
      "note": 59,
      "start": 20.1963,
      "duration": 0.175,
      "velocity": 105,
      "chip": "ym2612"
    },
    {
      "channel": 3,
      "note": 78,
      "start": 20.1972,
      "duration": 0.0864,
      "velocity": 95,
      "chip": "ym2612"
    },
    {
      "channel": 4,
      "note": 77,
      "start": 20.1979,
      "duration": 0.1751,
      "velocity": 51,
      "chip": "ym2612"
    },
    {
      "channel": 5,
      "note": 95,
      "start": 20.2263,
      "duration": 0.175,
      "velocity": 101,
      "chip": "ym2612"
    },
    {
      "channel": 0,
      "note": 80,
      "start": 20.3712,
      "duration": 0.175,
      "velocity": 101,
      "chip": "ym2612"
    },
    {
      "channel": 1,
      "note": 59,
      "start": 20.3719,
      "duration": 0.1746,
      "velocity": 105,
      "chip": "ym2612"
    },
    {
      "channel": 3,
      "note": 66,
      "start": 20.3728,
      "duration": 0.0863,
      "velocity": 95,
      "chip": "ym2612"
    },
    {
      "channel": 4,
      "note": 83,
      "start": 20.3736,
      "duration": 0.702,
      "velocity": 51,
      "chip": "ym2612"
    },
    {
      "channel": 5,
      "note": 92,
      "start": 20.4019,
      "duration": 0.1748,
      "velocity": 101,
      "chip": "ym2612"
    },
    {
      "channel": 1,
      "note": 61,
      "start": 20.5472,
      "duration": 0.1754,
      "velocity": 105,
      "chip": "ym2612"
    },
    {
      "channel": 3,
      "note": 78,
      "start": 20.5479,
      "duration": 0.0868,
      "velocity": 95,
      "chip": "ym2612"
    },
    {
      "channel": 0,
      "note": 78,
      "start": 20.7224,
      "duration": 0.3507,
      "velocity": 101,
      "chip": "ym2612"
    },
    {
      "channel": 1,
      "note": 63,
      "start": 20.7231,
      "duration": 0.1745,
      "velocity": 105,
      "chip": "ym2612"
    },
    {
      "channel": 3,
      "note": 66,
      "start": 20.724,
      "duration": 0.0863,
      "velocity": 95,
      "chip": "ym2612"
    },
    {
      "channel": 5,
      "note": 90,
      "start": 20.7531,
      "duration": 0.3507,
      "velocity": 101,
      "chip": "ym2612"
    },
    {
      "channel": 1,
      "note": 66,
      "start": 20.8983,
      "duration": 0.1756,
      "velocity": 105,
      "chip": "ym2612"
    },
    {
      "channel": 3,
      "note": 78,
      "start": 20.899,
      "duration": 0.0869,
      "velocity": 95,
      "chip": "ym2612"
    },
    {
      "channel": 0,
      "note": 77,
      "start": 21.0738,
      "duration": 0.1748,
      "velocity": 101,
      "chip": "ym2612"
    },
    {
      "channel": 1,
      "note": 61,
      "start": 21.0744,
      "duration": 0.3508,
      "velocity": 105,
      "chip": "ym2612"
    },
    {
      "channel": 3,
      "note": 68,
      "start": 21.0753,
      "duration": 0.0863,
      "velocity": 95,
      "chip": "ym2612"
    },
    {
      "channel": 4,
      "note": 85,
      "start": 21.0762,
      "duration": 0.8767,
      "velocity": 51,
      "chip": "ym2612"
    },
    {
      "channel": 5,
      "note": 89,
      "start": 21.1044,
      "duration": 0.175,
      "velocity": 101,
      "chip": "ym2612"
    },
    {
      "channel": 0,
      "note": 78,
      "start": 21.2492,
      "duration": 0.1754,
      "velocity": 101,
      "chip": "ym2612"
    },
    {
      "channel": 3,
      "note": 80,
      "start": 21.2503,
      "duration": 0.0868,
      "velocity": 95,
      "chip": "ym2612"
    },
    {
      "channel": 5,
      "note": 90,
      "start": 21.2799,
      "duration": 0.1749,
      "velocity": 101,
      "chip": "ym2612"
    },
    {
      "channel": 0,
      "note": 80,
      "start": 21.4251,
      "duration": 0.1747,
      "velocity": 101,
      "chip": "ym2612"
    },
    {
      "channel": 1,
      "note": 60,
      "start": 21.4259,
      "duration": 0.1747,
      "velocity": 105,
      "chip": "ym2612"
    },
    {
      "channel": 3,
      "note": 68,
      "start": 21.4267,
      "duration": 0.086,
      "velocity": 95,
      "chip": "ym2612"
    },
    {
      "channel": 5,
      "note": 92,
      "start": 21.4555,
      "duration": 0.1751,
      "velocity": 101,
      "chip": "ym2612"
    },
    {
      "channel": 0,
      "note": 78,
      "start": 21.6005,
      "duration": 0.175,
      "velocity": 101,
      "chip": "ym2612"
    },
    {
      "channel": 1,
      "note": 61,
      "start": 21.6012,
      "duration": 0.1751,
      "velocity": 105,
      "chip": "ym2612"
    },
    {
      "channel": 3,
      "note": 80,
      "start": 21.6019,
      "duration": 0.0865,
      "velocity": 95,
      "chip": "ym2612"
    },
    {
      "channel": 5,
      "note": 90,
      "start": 21.6312,
      "duration": 0.1749,
      "velocity": 101,
      "chip": "ym2612"
    },
    {
      "channel": 0,
      "note": 77,
      "start": 21.7761,
      "duration": 0.3506,
      "velocity": 101,
      "chip": "ym2612"
    },
    {
      "channel": 1,
      "note": 49,
      "start": 21.7768,
      "duration": 0.1746,
      "velocity": 105,
      "chip": "ym2612"
    },
    {
      "channel": 3,
      "note": 68,
      "start": 21.7776,
      "duration": 0.0864,
      "velocity": 95,
      "chip": "ym2612"
    },
    {
      "channel": 5,
      "note": 89,
      "start": 21.8068,
      "duration": 0.3505,
      "velocity": 101,
      "chip": "ym2612"
    },
    {
      "channel": 1,
      "note": 61,
      "start": 21.9519,
      "duration": 0.351,
      "velocity": 105,
      "chip": "ym2612"
    },
    {
      "channel": 3,
      "note": 80,
      "start": 21.9527,
      "duration": 0.0869,
      "velocity": 95,
      "chip": "ym2612"
    },
    {
      "channel": 4,
      "note": 73,
      "start": 21.9535,
      "duration": 0.1751,
      "velocity": 51,
      "chip": "ym2612"
    },
    {
      "channel": 0,
      "note": 73,
      "start": 22.1273,
      "duration": 0.175,
      "velocity": 101,
      "chip": "ym2612"
    },
    {
      "channel": 3,
      "note": 68,
      "start": 22.1285,
      "duration": 0.087,
      "velocity": 95,
      "chip": "ym2612"
    },
    {
      "channel": 4,
      "note": 77,
      "start": 22.1292,
      "duration": 0.1752,
      "velocity": 51,
      "chip": "ym2612"
    },
    {
      "channel": 5,
      "note": 85,
      "start": 22.1579,
      "duration": 0.175,
      "velocity": 101,
      "chip": "ym2612"
    },
    {
      "channel": 0,
      "note": 73,
      "start": 22.3028,
      "duration": 0.1751,
      "velocity": 101,
      "chip": "ym2612"
    },
    {
      "channel": 1,
      "note": 49,
      "start": 22.3035,
      "duration": 0.1751,
      "velocity": 105,
      "chip": "ym2612"
    },
    {
      "channel": 3,
      "note": 80,
      "start": 22.3043,
      "duration": 0.0865,
      "velocity": 95,
      "chip": "ym2612"
    },
    {
      "channel": 4,
      "note": 80,
      "start": 22.3051,
      "duration": 0.1753,
      "velocity": 51,
      "chip": "ym2612"
    },
    {
      "channel": 5,
      "note": 85,
      "start": 22.3336,
      "duration": 0.175,
      "velocity": 101,
      "chip": "ym2612"
    },
    {
      "channel": 0,
      "note": 78,
      "start": 22.4785,
      "duration": 0.1749,
      "velocity": 101,
      "chip": "ym2612"
    },
    {
      "channel": 1,
      "note": 54,
      "start": 22.4792,
      "duration": 0.5261,
      "velocity": 105,
      "chip": "ym2612"
    },
    {
      "channel": 3,
      "note": 70,
      "start": 22.4801,
      "duration": 0.0863,
      "velocity": 95,
      "chip": "ym2612"
    },
    {
      "channel": 4,
      "note": 82,
      "start": 22.481,
      "duration": 0.1744,
      "velocity": 51,
      "chip": "ym2612"
    },
    {
      "channel": 5,
      "note": 90,
      "start": 22.5092,
      "duration": 0.175,
      "velocity": 101,
      "chip": "ym2612"
    },
    {
      "channel": 0,
      "note": 77,
      "start": 22.654,
      "duration": 0.1751,
      "velocity": 101,
      "chip": "ym2612"
    },
    {
      "channel": 3,
      "note": 82,
      "start": 22.6551,
      "duration": 0.0869,
      "velocity": 95,
      "chip": "ym2612"
    },
    {
      "channel": 4,
      "note": 80,
      "start": 22.6559,
      "duration": 0.1751,
      "velocity": 51,
      "chip": "ym2612"
    },
    {
      "channel": 5,
      "note": 89,
      "start": 22.6848,
      "duration": 0.175,
      "velocity": 101,
      "chip": "ym2612"
    },
    {
      "channel": 0,
      "note": 78,
      "start": 22.8297,
      "duration": 0.175,
      "velocity": 101,
      "chip": "ym2612"
    },
    {
      "channel": 3,
      "note": 66,
      "start": 22.8308,
      "duration": 0.0868,
      "velocity": 95,
      "chip": "ym2612"
    },
    {
      "channel": 4,
      "note": 82,
      "start": 22.8316,
      "duration": 0.1752,
      "velocity": 51,
      "chip": "ym2612"
    },
    {
      "channel": 5,
      "note": 90,
      "start": 22.8603,
      "duration": 0.175,
      "velocity": 101,
      "chip": "ym2612"
    },
    {
      "channel": 0,
      "note": 80,
      "start": 23.0052,
      "duration": 0.1751,
      "velocity": 101,
      "chip": "ym2612"
    },
    {
      "channel": 1,
      "note": 54,
      "start": 23.0058,
      "duration": 0.1753,
      "velocity": 105,
      "chip": "ym2612"
    },
    {
      "channel": 3,
      "note": 82,
      "start": 23.0066,
      "duration": 0.0866,
      "velocity": 95,
      "chip": "ym2612"
    },
    {
      "channel": 4,
      "note": 83,
      "start": 23.0073,
      "duration": 0.1751,
      "velocity": 51,
      "chip": "ym2612"
    },
    {
      "channel": 5,
      "note": 92,
      "start": 23.0359,
      "duration": 0.1751,
      "velocity": 101,
      "chip": "ym2612"
    },
    {
      "channel": 0,
      "note": 82,
      "start": 23.181,
      "duration": 0.1749,
      "velocity": 101,
      "chip": "ym2612"
    },
    {
      "channel": 1,
      "note": 54,
      "start": 23.1816,
      "duration": 0.1746,
      "velocity": 105,
      "chip": "ym2612"
    },
    {
      "channel": 3,
      "note": 70,
      "start": 23.1823,
      "duration": 0.0865,
      "velocity": 95,
      "chip": "ym2612"
    },
    {
      "channel": 4,
      "note": 85,
      "start": 23.1831,
      "duration": 0.1735,
      "velocity": 51,
      "chip": "ym2612"
    },
    {
      "channel": 5,
      "note": 94,
      "start": 23.2117,
      "duration": 0.1739,
      "velocity": 101,
      "chip": "ym2612"
    },
    {
      "channel": 0,
      "note": 85,
      "start": 23.5322,
      "duration": 0.3507,
      "velocity": 101,
      "chip": "ym2612"
    },
    {
      "channel": 1,
      "note": 49,
      "start": 23.5329,
      "duration": 0.3508,
      "velocity": 105,
      "chip": "ym2612"
    },
    {
      "channel": 3,
      "note": 73,
      "start": 23.5337,
      "duration": 0.3508,
      "velocity": 95,
      "chip": "ym2612"
    },
    {
      "channel": 4,
      "note": 77,
      "start": 23.5344,
      "duration": 0.3509,
      "velocity": 51,
      "chip": "ym2612"
    },
    {
      "channel": 5,
      "note": 97,
      "start": 23.5628,
      "duration": 0.3508,
      "velocity": 101,
      "chip": "ym2612"
    },
    {
      "channel": 0,
      "note": 82,
      "start": 23.8835,
      "duration": 0.1749,
      "velocity": 101,
      "chip": "ym2612"
    },
    {
      "channel": 1,
      "note": 54,
      "start": 23.8843,
      "duration": 0.3504,
      "velocity": 105,
      "chip": "ym2612"
    },
    {
      "channel": 3,
      "note": 66,
      "start": 23.8851,
      "duration": 0.0861,
      "velocity": 95,
      "chip": "ym2612"
    },
    {
      "channel": 4,
      "note": 78,
      "start": 23.8859,
      "duration": 0.3504,
      "velocity": 51,
      "chip": "ym2612"
    },
    {
      "channel": 5,
      "note": 94,
      "start": 23.9142,
      "duration": 0.1748,
      "velocity": 101,
      "chip": "ym2612"
    },
    {
      "channel": 0,
      "note": 80,
      "start": 24.0589,
      "duration": 0.175,
      "velocity": 101,
      "chip": "ym2612"
    },
    {
      "channel": 3,
      "note": 78,
      "start": 24.06,
      "duration": 0.0868,
      "velocity": 95,
      "chip": "ym2612"
    },
    {
      "channel": 5,
      "note": 92,
      "start": 24.0896,
      "duration": 0.1751,
      "velocity": 101,
      "chip": "ym2612"
    },
    {
      "channel": 0,
      "note": 78,
      "start": 24.2345,
      "duration": 0.3507,
      "velocity": 101,
      "chip": "ym2612"
    },
    {
      "channel": 1,
      "note": 61,
      "start": 24.2353,
      "duration": 0.1747,
      "velocity": 105,
      "chip": "ym2612"
    },
    {
      "channel": 3,
      "note": 66,
      "start": 24.2361,
      "duration": 0.0863,
      "velocity": 95,
      "chip": "ym2612"
    },
    {
      "channel": 4,
      "note": 73,
      "start": 24.2369,
      "duration": 0.1745,
      "velocity": 51,
      "chip": "ym2612"
    },
    {
      "channel": 5,
      "note": 90,
      "start": 24.2653,
      "duration": 0.3505,
      "velocity": 101,
      "chip": "ym2612"
    },
    {
      "channel": 1,
      "note": 58,
      "start": 24.4105,
      "duration": 0.1754,
      "velocity": 105,
      "chip": "ym2612"
    },
    {
      "channel": 3,
      "note": 78,
      "start": 24.4113,
      "duration": 0.0868,
      "velocity": 95,
      "chip": "ym2612"
    },
    {
      "channel": 4,
      "note": 70,
      "start": 24.412,
      "duration": 0.3506,
      "velocity": 51,
      "chip": "ym2612"
    },
    {
      "channel": 0,
      "note": 73,
      "start": 24.5858,
      "duration": 0.3506,
      "velocity": 101,
      "chip": "ym2612"
    },
    {
      "channel": 1,
      "note": 54,
      "start": 24.5865,
      "duration": 0.1747,
      "velocity": 105,
      "chip": "ym2612"
    },
    {
      "channel": 3,
      "note": 66,
      "start": 24.5874,
      "duration": 0.0863,
      "velocity": 95,
      "chip": "ym2612"
    },
    {
      "channel": 5,
      "note": 85,
      "start": 24.6164,
      "duration": 0.3506,
      "velocity": 101,
      "chip": "ym2612"
    },
    {
      "channel": 1,
      "note": 66,
      "start": 24.7617,
      "duration": 0.351,
      "velocity": 105,
      "chip": "ym2612"
    },
    {
      "channel": 3,
      "note": 78,
      "start": 24.7625,
      "duration": 0.0868,
      "velocity": 95,
      "chip": "ym2612"
    },
    {
      "channel": 4,
      "note": 78,
      "start": 24.7633,
      "duration": 0.1751,
      "velocity": 51,
      "chip": "ym2612"
    },
    {
      "channel": 0,
      "note": 78,
      "start": 24.937,
      "duration": 0.175,
      "velocity": 101,
      "chip": "ym2612"
    },
    {
      "channel": 3,
      "note": 66,
      "start": 24.9382,
      "duration": 0.0867,
      "velocity": 95,
      "chip": "ym2612"
    },
    {
      "channel": 4,
      "note": 73,
      "start": 24.9389,
      "duration": 0.1754,
      "velocity": 51,
      "chip": "ym2612"
    },
    {
      "channel": 5,
      "note": 90,
      "start": 24.9676,
      "duration": 0.1751,
      "velocity": 101,
      "chip": "ym2612"
    },
    {
      "channel": 0,
      "note": 82,
      "start": 25.1126,
      "duration": 0.175,
      "velocity": 101,
      "chip": "ym2612"
    },
    {
      "channel": 1,
      "note": 54,
      "start": 25.1134,
      "duration": 0.175,
      "velocity": 105,
      "chip": "ym2612"
    },
    {
      "channel": 3,
      "note": 78,
      "start": 25.1141,
      "duration": 0.0864,
      "velocity": 95,
      "chip": "ym2612"
    },
    {
      "channel": 4,
      "note": 70,
      "start": 25.1149,
      "duration": 0.1751,
      "velocity": 51,
      "chip": "ym2612"
    },
    {
      "channel": 5,
      "note": 94,
      "start": 25.1434,
      "duration": 0.1749,
      "velocity": 101,
      "chip": "ym2612"
    },
    {
      "channel": 0,
      "note": 83,
      "start": 25.2882,
      "duration": 0.3506,
      "velocity": 101,
      "chip": "ym2612"
    },
    {
      "channel": 1,
      "note": 59,
      "start": 25.289,
      "duration": 0.5262,
      "velocity": 105,
      "chip": "ym2612"
    },
    {
      "channel": 3,
      "note": 66,
      "start": 25.2898,
      "duration": 0.0863,
      "velocity": 95,
      "chip": "ym2612"
    },
    {
      "channel": 4,
      "note": 71,
      "start": 25.2905,
      "duration": 0.1742,
      "velocity": 51,
      "chip": "ym2612"
    },
    {
      "channel": 5,
      "note": 95,
      "start": 25.3189,
      "duration": 0.3506,
      "velocity": 101,
      "chip": "ym2612"
    },
    {
      "channel": 3,
      "note": 78,
      "start": 25.4646,
      "duration": 0.0871,
      "velocity": 95,
      "chip": "ym2612"
    },
    {
      "channel": 0,
      "note": 82,
      "start": 25.6394,
      "duration": 0.175,
      "velocity": 101,
      "chip": "ym2612"
    },
    {
      "channel": 3,
      "note": 66,
      "start": 25.6406,
      "duration": 0.0867,
      "velocity": 95,
      "chip": "ym2612"
    },
    {
      "channel": 4,
      "note": 75,
      "start": 25.6414,
      "duration": 0.1752,
      "velocity": 51,
      "chip": "ym2612"
    },
    {
      "channel": 5,
      "note": 94,
      "start": 25.6701,
      "duration": 0.1751,
      "velocity": 101,
      "chip": "ym2612"
    },
    {
      "channel": 0,
      "note": 83,
      "start": 25.815,
      "duration": 0.175,
      "velocity": 101,
      "chip": "ym2612"
    },
    {
      "channel": 1,
      "note": 59,
      "start": 25.8157,
      "duration": 0.175,
      "velocity": 105,
      "chip": "ym2612"
    },
    {
      "channel": 3,
      "note": 78,
      "start": 25.8165,
      "duration": 0.0864,
      "velocity": 95,
      "chip": "ym2612"
    },
    {
      "channel": 4,
      "note": 77,
      "start": 25.8173,
      "duration": 0.1751,
      "velocity": 51,
      "chip": "ym2612"
    },
    {
      "channel": 5,
      "note": 95,
      "start": 25.8458,
      "duration": 0.1749,
      "velocity": 101,
      "chip": "ym2612"
    },
    {
      "channel": 0,
      "note": 80,
      "start": 25.9906,
      "duration": 0.175,
      "velocity": 101,
      "chip": "ym2612"
    },
    {
      "channel": 1,
      "note": 59,
      "start": 25.9913,
      "duration": 0.1746,
      "velocity": 105,
      "chip": "ym2612"
    },
    {
      "channel": 3,
      "note": 66,
      "start": 25.9922,
      "duration": 0.0863,
      "velocity": 95,
      "chip": "ym2612"
    },
    {
      "channel": 4,
      "note": 83,
      "start": 25.993,
      "duration": 0.702,
      "velocity": 51,
      "chip": "ym2612"
    },
    {
      "channel": 5,
      "note": 92,
      "start": 26.0213,
      "duration": 0.1747,
      "velocity": 101,
      "chip": "ym2612"
    },
    {
      "channel": 1,
      "note": 61,
      "start": 26.1665,
      "duration": 0.1754,
      "velocity": 105,
      "chip": "ym2612"
    },
    {
      "channel": 3,
      "note": 78,
      "start": 26.1672,
      "duration": 0.0866,
      "velocity": 95,
      "chip": "ym2612"
    },
    {
      "channel": 0,
      "note": 78,
      "start": 26.3418,
      "duration": 0.3507,
      "velocity": 101,
      "chip": "ym2612"
    },
    {
      "channel": 1,
      "note": 63,
      "start": 26.3426,
      "duration": 0.1746,
      "velocity": 105,
      "chip": "ym2612"
    },
    {
      "channel": 3,
      "note": 66,
      "start": 26.3434,
      "duration": 0.0863,
      "velocity": 95,
      "chip": "ym2612"
    },
    {
      "channel": 5,
      "note": 90,
      "start": 26.3725,
      "duration": 0.3509,
      "velocity": 101,
      "chip": "ym2612"
    },
    {
      "channel": 1,
      "note": 66,
      "start": 26.5177,
      "duration": 0.1756,
      "velocity": 105,
      "chip": "ym2612"
    },
    {
      "channel": 3,
      "note": 78,
      "start": 26.5185,
      "duration": 0.0868,
      "velocity": 95,
      "chip": "ym2612"
    },
    {
      "channel": 0,
      "note": 77,
      "start": 26.6932,
      "duration": 0.1749,
      "velocity": 101,
      "chip": "ym2612"
    },
    {
      "channel": 1,
      "note": 61,
      "start": 26.6939,
      "duration": 0.3505,
      "velocity": 105,
      "chip": "ym2612"
    },
    {
      "channel": 3,
      "note": 68,
      "start": 26.6947,
      "duration": 0.0863,
      "velocity": 95,
      "chip": "ym2612"
    },
    {
      "channel": 4,
      "note": 85,
      "start": 26.6956,
      "duration": 0.7017,
      "velocity": 51,
      "chip": "ym2612"
    },
    {
      "channel": 5,
      "note": 89,
      "start": 26.7241,
      "duration": 0.1746,
      "velocity": 101,
      "chip": "ym2612"
    },
    {
      "channel": 0,
      "note": 78,
      "start": 26.8687,
      "duration": 0.1749,
      "velocity": 101,
      "chip": "ym2612"
    },
    {
      "channel": 3,
      "note": 80,
      "start": 26.8698,
      "duration": 0.0868,
      "velocity": 95,
      "chip": "ym2612"
    },
    {
      "channel": 5,
      "note": 90,
      "start": 26.8993,
      "duration": 0.1751,
      "velocity": 101,
      "chip": "ym2612"
    },
    {
      "channel": 0,
      "note": 80,
      "start": 27.0442,
      "duration": 0.1751,
      "velocity": 101,
      "chip": "ym2612"
    },
    {
      "channel": 1,
      "note": 60,
      "start": 27.0449,
      "duration": 0.175,
      "velocity": 105,
      "chip": "ym2612"
    },
    {
      "channel": 3,
      "note": 68,
      "start": 27.0458,
      "duration": 0.0865,
      "velocity": 95,
      "chip": "ym2612"
    },
    {
      "channel": 5,
      "note": 92,
      "start": 27.075,
      "duration": 0.175,
      "velocity": 101,
      "chip": "ym2612"
    },
    {
      "channel": 0,
      "note": 78,
      "start": 27.2198,
      "duration": 0.175,
      "velocity": 101,
      "chip": "ym2612"
    },
    {
      "channel": 1,
      "note": 61,
      "start": 27.2205,
      "duration": 0.1751,
      "velocity": 105,
      "chip": "ym2612"
    },
    {
      "channel": 3,
      "note": 80,
      "start": 27.2213,
      "duration": 0.0865,
      "velocity": 95,
      "chip": "ym2612"
    },
    {
      "channel": 5,
      "note": 90,
      "start": 27.2505,
      "duration": 0.175,
      "velocity": 101,
      "chip": "ym2612"
    },
    {
      "channel": 0,
      "note": 77,
      "start": 27.3954,
      "duration": 0.1751,
      "velocity": 101,
      "chip": "ym2612"
    },
    {
      "channel": 1,
      "note": 49,
      "start": 27.3961,
      "duration": 0.1751,
      "velocity": 105,
      "chip": "ym2612"
    },
    {
      "channel": 3,
      "note": 68,
      "start": 27.397,
      "duration": 0.0863,
      "velocity": 95,
      "chip": "ym2612"
    },
    {
      "channel": 4,
      "note": 80,
      "start": 27.3978,
      "duration": 0.1749,
      "velocity": 51,
      "chip": "ym2612"
    },
    {
      "channel": 5,
      "note": 89,
      "start": 27.4261,
      "duration": 0.1751,
      "velocity": 101,
      "chip": "ym2612"
    },
    {
      "channel": 0,
      "note": 73,
      "start": 27.5711,
      "duration": 0.1751,
      "velocity": 101,
      "chip": "ym2612"
    },
    {
      "channel": 1,
      "note": 61,
      "start": 27.5718,
      "duration": 0.3505,
      "velocity": 105,
      "chip": "ym2612"
    },
    {
      "channel": 3,
      "note": 80,
      "start": 27.5726,
      "duration": 0.0864,
      "velocity": 95,
      "chip": "ym2612"
    },
    {
      "channel": 4,
      "note": 77,
      "start": 27.5734,
      "duration": 0.1747,
      "velocity": 51,
      "chip": "ym2612"
    },
    {
      "channel": 5,
      "note": 85,
      "start": 27.6017,
      "duration": 0.1751,
      "velocity": 101,
      "chip": "ym2612"
    },
    {
      "channel": 0,
      "note": 75,
      "start": 27.7468,
      "duration": 0.1749,
      "velocity": 101,
      "chip": "ym2612"
    },
    {
      "channel": 3,
      "note": 68,
      "start": 27.748,
      "duration": 0.0866,
      "velocity": 95,
      "chip": "ym2612"
    },
    {
      "channel": 4,
      "note": 78,
      "start": 27.7487,
      "duration": 0.1752,
      "velocity": 51,
      "chip": "ym2612"
    },
    {
      "channel": 5,
      "note": 87,
      "start": 27.7774,
      "duration": 0.175,
      "velocity": 101,
      "chip": "ym2612"
    },
    {
      "channel": 0,
      "note": 77,
      "start": 27.9222,
      "duration": 0.1751,
      "velocity": 101,
      "chip": "ym2612"
    },
    {
      "channel": 1,
      "note": 49,
      "start": 27.923,
      "duration": 0.1751,
      "velocity": 105,
      "chip": "ym2612"
    },
    {
      "channel": 3,
      "note": 80,
      "start": 27.9237,
      "duration": 0.0864,
      "velocity": 95,
      "chip": "ym2612"
    },
    {
      "channel": 4,
      "note": 80,
      "start": 27.9244,
      "duration": 0.1753,
      "velocity": 51,
      "chip": "ym2612"
    },
    {
      "channel": 5,
      "note": 89,
      "start": 27.9529,
      "duration": 0.1751,
      "velocity": 101,
      "chip": "ym2612"
    },
    {
      "channel": 0,
      "note": 78,
      "start": 28.0979,
      "duration": 0.175,
      "velocity": 101,
      "chip": "ym2612"
    },
    {
      "channel": 1,
      "note": 54,
      "start": 28.0987,
      "duration": 0.5261,
      "velocity": 105,
      "chip": "ym2612"
    },
    {
      "channel": 3,
      "note": 66,
      "start": 28.0995,
      "duration": 0.0864,
      "velocity": 95,
      "chip": "ym2612"
    },
    {
      "channel": 4,
      "note": 82,
      "start": 28.1003,
      "duration": 0.3501,
      "velocity": 51,
      "chip": "ym2612"
    },
    {
      "channel": 5,
      "note": 90,
      "start": 28.1287,
      "duration": 0.1753,
      "velocity": 101,
      "chip": "ym2612"
    },
    {
      "channel": 0,
      "note": 73,
      "start": 28.2735,
      "duration": 0.1751,
      "velocity": 101,
      "chip": "ym2612"
    },
    {
      "channel": 3,
      "note": 78,
      "start": 28.2746,
      "duration": 0.0868,
      "velocity": 95,
      "chip": "ym2612"
    },
    {
      "channel": 5,
      "note": 85,
      "start": 28.3045,
      "duration": 0.1746,
      "velocity": 101,
      "chip": "ym2612"
    },
    {
      "channel": 0,
      "note": 71,
      "start": 28.4491,
      "duration": 0.1749,
      "velocity": 101,
      "chip": "ym2612"
    },
    {
      "channel": 3,
      "note": 66,
      "start": 28.4502,
      "duration": 0.0868,
      "velocity": 95,
      "chip": "ym2612"
    },
    {
      "channel": 4,
      "note": 78,
      "start": 28.451,
      "duration": 0.1752,
      "velocity": 51,
      "chip": "ym2612"
    },
    {
      "channel": 5,
      "note": 83,
      "start": 28.4798,
      "duration": 0.1749,
      "velocity": 101,
      "chip": "ym2612"
    },
    {
      "channel": 0,
      "note": 73,
      "start": 28.6247,
      "duration": 0.175,
      "velocity": 101,
      "chip": "ym2612"
    },
    {
      "channel": 1,
      "note": 54,
      "start": 28.6253,
      "duration": 0.1751,
      "velocity": 105,
      "chip": "ym2612"
    },
    {
      "channel": 3,
      "note": 78,
      "start": 28.6261,
      "duration": 0.0866,
      "velocity": 95,
      "chip": "ym2612"
    },
    {
      "channel": 4,
      "note": 73,
      "start": 28.6267,
      "duration": 0.175,
      "velocity": 51,
      "chip": "ym2612"
    },
    {
      "channel": 5,
      "note": 85,
      "start": 28.6554,
      "duration": 0.1751,
      "velocity": 101,
      "chip": "ym2612"
    },
    {
      "channel": 0,
      "note": 70,
      "start": 28.8003,
      "duration": 0.1751,
      "velocity": 101,
      "chip": "ym2612"
    },
    {
      "channel": 1,
      "note": 54,
      "start": 28.8009,
      "duration": 0.1753,
      "velocity": 105,
      "chip": "ym2612"
    },
    {
      "channel": 3,
      "note": 66,
      "start": 28.8016,
      "duration": 0.1749,
      "velocity": 95,
      "chip": "ym2612"
    },
    {
      "channel": 4,
      "note": 70,
      "start": 28.8024,
      "duration": 0.1744,
      "velocity": 51,
      "chip": "ym2612"
    },
    {
      "channel": 5,
      "note": 82,
      "start": 28.8311,
      "duration": 0.1744,
      "velocity": 101,
      "chip": "ym2612"
    },
    {
      "channel": 0,
      "note": 73,
      "start": 28.976,
      "duration": 0.1749,
      "velocity": 101,
      "chip": "ym2612"
    },
    {
      "channel": 4,
      "note": 73,
      "start": 28.9774,
      "duration": 0.1758,
      "velocity": 51,
      "chip": "ym2612"
    },
    {
      "channel": 5,
      "note": 85,
      "start": 29.0061,
      "duration": 0.1756,
      "velocity": 101,
      "chip": "ym2612"
    },
    {
      "channel": 0,
      "note": 75,
      "start": 29.1515,
      "duration": 0.1751,
      "velocity": 101,
      "chip": "ym2612"
    },
    {
      "channel": 1,
      "note": 49,
      "start": 29.1522,
      "duration": 0.3541,
      "velocity": 105,
      "chip": "ym2612"
    },
    {
      "channel": 3,
      "note": 61,
      "start": 29.1529,
      "duration": 0.3568,
      "velocity": 95,
      "chip": "ym2612"
    },
    {
      "channel": 4,
      "note": 75,
      "start": 29.1537,
      "duration": 0.1743,
      "velocity": 51,
      "chip": "ym2612"
    },
    {
      "channel": 5,
      "note": 87,
      "start": 29.1823,
      "duration": 0.1749,
      "velocity": 101,
      "chip": "ym2612"
    },
    {
      "channel": 0,
      "note": 77,
      "start": 29.3272,
      "duration": 0.178,
      "velocity": 51,
      "chip": "ym2612"
    },
    {
      "channel": 4,
      "note": 77,
      "start": 29.3287,
      "duration": 0.1845,
      "velocity": 51,
      "chip": "ym2612"
    },
    {
      "channel": 5,
      "note": 89,
      "start": 29.3578,
      "duration": 0.1778,
      "velocity": 51,
      "chip": "ym2612"
    },
    {
      "channel": 0,
      "note": 66,
      "start": 29.5058,
      "duration": 0.3475,
      "velocity": 51,
      "chip": "ym2612"
    },
    {
      "channel": 1,
      "note": 54,
      "start": 29.5068,
      "duration": 0.3472,
      "velocity": 105,
      "chip": "ym2612"
    },
    {
      "channel": 5,
      "note": 78,
      "start": 29.5361,
      "duration": 0.3477,
      "velocity": 51,
      "chip": "ym2612"
    },
    {
      "channel": 3,
      "note": 66,
      "start": 29.723,
      "duration": 0.0434,
      "velocity": 95,
      "chip": "ym2612"
    },
    {
      "channel": 3,
      "note": 70,
      "start": 29.767,
      "duration": 0.0432,
      "velocity": 95,
      "chip": "ym2612"
    },
    {
      "channel": 3,
      "note": 73,
      "start": 29.8108,
      "duration": 0.044,
      "velocity": 95,
      "chip": "ym2612"
    },
    {
      "channel": 0,
      "note": 61,
      "start": 29.8539,
      "duration": 0.1696,
      "velocity": 51,
      "chip": "ym2612"
    },
    {
      "channel": 1,
      "note": 61,
      "start": 29.8547,
      "duration": 0.1688,
      "velocity": 105,
      "chip": "ym2612"
    },
    {
      "channel": 3,
      "note": 78,
      "start": 29.8554,
      "duration": 0.0864,
      "velocity": 95,
      "chip": "ym2612"
    },
    {
      "channel": 5,
      "note": 73,
      "start": 29.8844,
      "duration": 0.1391,
      "velocity": 51,
      "chip": "ym2612"
    }
  ]
}