{
  "track_name": "02 - Integrated City",
  "duration_sec": 102.794,
  "sample_rate": 44100,
  "note_count": 1833,
  "unique_pitches": 36,
  "pitch_range": 45,
  "avg_note_duration": 0.2694,
  "reconstruction_stats": {
    "notes_reconstructed": 1833,
    "keyon_events": 1833,
    "keyoff_events": 1827,
    "orphan_keyons": 5,
    "unique_pitches": 36,
    "pitch_range": 45,
    "avg_duration_sec": 0.2694
  },
  "metadata": {
    "source": "P\\Pulseman\\02 - Integrated City.vgz"
  },
  "notes": [
    {
      "channel": 0,
      "note": 84,
      "start": 0.0,
      "duration": 1.593,
      "velocity": 113,
      "chip": "ym2612"
    },
    {
      "channel": 1,
      "note": 84,
      "start": 0.0,
      "duration": 1.5939,
      "velocity": 113,
      "chip": "ym2612"
    },
    {
      "channel": 3,
      "note": 84,
      "start": 0.0,
      "duration": 1.5951,
      "velocity": 113,
      "chip": "ym2612"
    },
    {
      "channel": 0,
      "note": 79,
      "start": 1.5932,
      "duration": 1.5998,
      "velocity": 114,
      "chip": "ym2612"
    },
    {
      "channel": 1,
      "note": 79,
      "start": 1.5941,
      "duration": 1.5998,
      "velocity": 114,
      "chip": "ym2612"
    },
    {
      "channel": 3,
      "note": 79,
      "start": 1.5953,
      "duration": 1.5998,
      "velocity": 114,
      "chip": "ym2612"
    },
    {
      "channel": 0,
      "note": 85,
      "start": 3.1932,
      "duration": 1.5998,
      "velocity": 113,
      "chip": "ym2612"
    },
    {
      "channel": 1,
      "note": 85,
      "start": 3.1941,
      "duration": 1.5998,
      "velocity": 113,
      "chip": "ym2612"
    },
    {
      "channel": 3,
      "note": 85,
      "start": 3.1953,
      "duration": 1.5998,
      "velocity": 113,
      "chip": "ym2612"
    },
    {
      "channel": 0,
      "note": 81,
      "start": 4.7932,
      "duration": 1.5998,
      "velocity": 114,
      "chip": "ym2612"
    },
    {
      "channel": 1,
      "note": 81,
      "start": 4.7941,
      "duration": 1.5999,
      "velocity": 114,
      "chip": "ym2612"
    },
    {
      "channel": 3,
      "note": 81,
      "start": 4.7953,
      "duration": 1.6007,
      "velocity": 114,
      "chip": "ym2612"
    },
    {
      "channel": 0,
      "note": 84,
      "start": 6.3932,
      "duration": 1.5998,
      "velocity": 113,
      "chip": "ym2612"
    },
    {
      "channel": 1,
      "note": 84,
      "start": 6.3942,
      "duration": 1.5997,
      "velocity": 113,
      "chip": "ym2612"
    },
    {
      "channel": 2,
      "note": 75,
      "start": 6.3952,
      "duration": 0.0971,
      "velocity": 111,
      "chip": "ym2612"
    },
    {
      "channel": 3,
      "note": 84,
      "start": 6.3962,
      "duration": 1.5997,
      "velocity": 113,
      "chip": "ym2612"
    },
    {
      "channel": 2,
      "note": 71,
      "start": 6.4925,
      "duration": 0.0998,
      "velocity": 111,
      "chip": "ym2612"
    },
    {
      "channel": 2,
      "note": 72,
      "start": 6.5925,
      "duration": 0.0998,
      "velocity": 111,
      "chip": "ym2612"
    },
    {
      "channel": 2,
      "note": 73,
      "start": 6.6925,
      "duration": 0.0998,
      "velocity": 111,
      "chip": "ym2612"
    },
    {
      "channel": 2,
      "note": 75,
      "start": 6.7925,
      "duration": 0.0998,
      "velocity": 111,
      "chip": "ym2612"
    },
    {
      "channel": 2,
      "note": 70,
      "start": 6.8925,
      "duration": 0.0998,
      "velocity": 111,
      "chip": "ym2612"
    },
    {
      "channel": 2,
      "note": 74,
      "start": 6.9925,
      "duration": 0.0998,
      "velocity": 111,
      "chip": "ym2612"
    },
    {
      "channel": 2,
      "note": 72,
      "start": 7.0925,
      "duration": 0.0998,
      "velocity": 111,
      "chip": "ym2612"
    },
    {
      "channel": 2,
      "note": 78,
      "start": 7.1925,
      "duration": 0.0998,
      "velocity": 111,
      "chip": "ym2612"
    },
    {
      "channel": 2,
      "note": 71,
      "start": 7.2925,
      "duration": 0.0998,
      "velocity": 111,
      "chip": "ym2612"
    },
    {
      "channel": 2,
      "note": 74,
      "start": 7.3925,
      "duration": 0.0998,
      "velocity": 111,
      "chip": "ym2612"
    },
    {
      "channel": 2,
      "note": 73,
      "start": 7.4925,
      "duration": 0.0998,
      "velocity": 111,
      "chip": "ym2612"
    },
    {
      "channel": 2,
      "note": 76,
      "start": 7.5925,
      "duration": 0.0998,
      "velocity": 111,
      "chip": "ym2612"
    },
    {
      "channel": 2,
      "note": 73,
      "start": 7.6925,
      "duration": 0.0998,
      "velocity": 111,
      "chip": "ym2612"
    },
    {
      "channel": 2,
      "note": 75,
      "start": 7.7925,
      "duration": 0.0998,
      "velocity": 111,
      "chip": "ym2612"
    },
    {
      "channel": 2,
      "note": 72,
      "start": 7.8925,
      "duration": 0.1024,
      "velocity": 109,
      "chip": "ym2612"
    },
    {
      "channel": 0,
      "note": 79,
      "start": 7.9932,
      "duration": 1.5998,
      "velocity": 114,
      "chip": "ym2612"
    },
    {
      "channel": 1,
      "note": 79,
      "start": 7.9941,
      "duration": 1.5998,
      "velocity": 114,
      "chip": "ym2612"
    },
    {
      "channel": 2,
      "note": 68,
      "start": 7.9951,
      "duration": 0.0973,
      "velocity": 109,
      "chip": "ym2612"
    },
    {
      "channel": 3,
      "note": 79,
      "start": 7.9961,
      "duration": 1.5998,
      "velocity": 114,
      "chip": "ym2612"
    },
    {
      "channel": 2,
      "note": 64,
      "start": 8.0925,
      "duration": 0.0998,
      "velocity": 109,
      "chip": "ym2612"
    },
    {
      "channel": 2,
      "note": 61,
      "start": 8.1925,
      "duration": 0.0998,
      "velocity": 109,
      "chip": "ym2612"
    },
    {
      "channel": 2,
      "note": 66,
      "start": 8.2925,
      "duration": 0.0998,
      "velocity": 109,
      "chip": "ym2612"
    },
    {
      "channel": 2,
      "note": 62,
      "start": 8.3925,
      "duration": 0.0998,
      "velocity": 109,
      "chip": "ym2612"
    },
    {
      "channel": 2,
      "note": 64,
      "start": 8.4925,
      "duration": 0.0998,
      "velocity": 109,
      "chip": "ym2612"
    },
    {
      "channel": 2,
      "note": 66,
      "start": 8.5925,
      "duration": 0.0998,
      "velocity": 109,
      "chip": "ym2612"
    },
    {
      "channel": 2,
      "note": 63,
      "start": 8.6925,
      "duration": 0.0998,
      "velocity": 109,
      "chip": "ym2612"
    },
    {
      "channel": 2,
      "note": 67,
      "start": 8.7925,
      "duration": 0.0998,
      "velocity": 109,
      "chip": "ym2612"
    },
    {
      "channel": 2,
      "note": 65,
      "start": 8.8925,
      "duration": 0.0998,
      "velocity": 109,
      "chip": "ym2612"
    },
    {
      "channel": 2,
      "note": 66,
      "start": 8.9925,
      "duration": 0.0998,
      "velocity": 109,
      "chip": "ym2612"
    },
    {
      "channel": 2,
      "note": 67,
      "start": 9.0925,
      "duration": 0.0998,
      "velocity": 109,
      "chip": "ym2612"
    },
    {
      "channel": 2,
      "note": 65,
      "start": 9.1925,
      "duration": 0.0998,
      "velocity": 109,
      "chip": "ym2612"
    },
    {
      "channel": 2,
      "note": 64,
      "start": 9.2925,
      "duration": 0.0998,
      "velocity": 109,
      "chip": "ym2612"
    },
    {
      "channel": 2,
      "note": 66,
      "start": 9.3925,
      "duration": 0.0998,
      "velocity": 109,
      "chip": "ym2612"
    },
    {
      "channel": 2,
      "note": 67,
      "start": 9.4925,
      "duration": 0.1024,
      "velocity": 111,
      "chip": "ym2612"
    },
    {
      "channel": 0,
      "note": 85,
      "start": 9.5932,
      "duration": 1.5998,
      "velocity": 113,
      "chip": "ym2612"
    },
    {
      "channel": 1,
      "note": 85,
      "start": 9.5941,
      "duration": 1.5998,
      "velocity": 113,
      "chip": "ym2612"
    },
    {
      "channel": 2,
      "note": 76,
      "start": 9.5951,
      "duration": 0.0973,
      "velocity": 111,
      "chip": "ym2612"
    },
    {
      "channel": 3,
      "note": 85,
      "start": 9.5961,
      "duration": 1.5998,
      "velocity": 113,
      "chip": "ym2612"
    },
    {
      "channel": 2,
      "note": 74,
      "start": 9.6925,
      "duration": 0.0998,
      "velocity": 111,
      "chip": "ym2612"
    },
    {
      "channel": 2,
      "note": 72,
      "start": 9.7925,
      "duration": 0.0998,
      "velocity": 111,
      "chip": "ym2612"
    },
    {
      "channel": 2,
      "note": 73,
      "start": 9.8925,
      "duration": 0.0998,
      "velocity": 111,
      "chip": "ym2612"
    },
    {
      "channel": 2,
      "note": 77,
      "start": 9.9925,
      "duration": 0.0998,
      "velocity": 111,
      "chip": "ym2612"
    },
    {
      "channel": 2,
      "note": 71,
      "start": 10.0925,
      "duration": 0.0998,
      "velocity": 111,
      "chip": "ym2612"
    },
    {
      "channel": 2,
      "note": 74,
      "start": 10.1925,
      "duration": 0.0998,
      "velocity": 111,
      "chip": "ym2612"
    },
    {
      "channel": 2,
      "note": 72,
      "start": 10.2925,
      "duration": 0.0998,
      "velocity": 111,
      "chip": "ym2612"
    },
    {
      "channel": 2,
      "note": 78,
      "start": 10.3925,
      "duration": 0.0998,
      "velocity": 111,
      "chip": "ym2612"
    },
    {
      "channel": 2,
      "note": 71,
      "start": 10.4925,
      "duration": 0.0998,
      "velocity": 111,
      "chip": "ym2612"
    },
    {
      "channel": 2,
      "note": 74,
      "start": 10.5925,
      "duration": 0.0998,
      "velocity": 111,
      "chip": "ym2612"
    },
    {
      "channel": 2,
      "note": 73,
      "start": 10.6925,
      "duration": 0.0998,
      "velocity": 111,
      "chip": "ym2612"
    },
    {
      "channel": 2,
      "note": 76,
      "start": 10.7925,
      "duration": 0.0998,
      "velocity": 111,
      "chip": "ym2612"
    },
    {
      "channel": 2,
      "note": 77,
      "start": 10.8925,
      "duration": 0.0998,
      "velocity": 111,
      "chip": "ym2612"
    },
    {
      "channel": 2,
      "note": 75,
      "start": 10.9925,
      "duration": 0.0998,
      "velocity": 111,
      "chip": "ym2612"
    },
    {
      "channel": 2,
      "note": 73,
      "start": 11.0925,
      "duration": 0.1024,
      "velocity": 109,
      "chip": "ym2612"
    },
    {
      "channel": 0,
      "note": 81,
      "start": 11.1932,
      "duration": 1.3999,
      "velocity": 115,
      "chip": "ym2612"
    },
    {
      "channel": 1,
      "note": 81,
      "start": 11.1941,
      "duration": 1.4019,
      "velocity": 113,
      "chip": "ym2612"
    },
    {
      "channel": 2,
      "note": 63,
      "start": 11.1951,
      "duration": 0.0972,
      "velocity": 109,
      "chip": "ym2612"
    },
    {
      "channel": 3,
      "note": 81,
      "start": 11.1961,
      "duration": 1.4017,
      "velocity": 104,
      "chip": "ym2612"
    },
    {
      "channel": 2,
      "note": 64,
      "start": 11.2925,
      "duration": 0.0998,
      "velocity": 109,
      "chip": "ym2612"
    },
    {
      "channel": 2,
      "note": 66,
      "start": 11.3925,
      "duration": 0.0998,
      "velocity": 109,
      "chip": "ym2612"
    },
    {
      "channel": 2,
      "note": 64,
      "start": 11.4925,
      "duration": 0.0998,
      "velocity": 109,
      "chip": "ym2612"
    },
    {
      "channel": 2,
      "note": 66,
      "start": 11.5925,
      "duration": 0.0998,
      "velocity": 109,
      "chip": "ym2612"
    },
    {
      "channel": 2,
      "note": 64,
      "start": 11.6925,
      "duration": 0.0998,
      "velocity": 109,
      "chip": "ym2612"
    },
    {
      "channel": 2,
      "note": 61,
      "start": 11.7925,
      "duration": 0.0998,
      "velocity": 109,
      "chip": "ym2612"
    },
    {
      "channel": 2,
      "note": 63,
      "start": 11.8925,
      "duration": 0.0998,
      "velocity": 109,
      "chip": "ym2612"
    },
    {
      "channel": 2,
      "note": 62,
      "start": 11.9925,
      "duration": 0.0998,
      "velocity": 109,
      "chip": "ym2612"
    },
    {
      "channel": 2,
      "note": 65,
      "start": 12.0925,
      "duration": 0.0998,
      "velocity": 109,
      "chip": "ym2612"
    },
    {
      "channel": 2,
      "note": 66,
      "start": 12.1925,
      "duration": 0.0998,
      "velocity": 109,
      "chip": "ym2612"
    },
    {
      "channel": 2,
      "note": 67,
      "start": 12.2925,
      "duration": 0.0999,
      "velocity": 109,
      "chip": "ym2612"
    },
    {
      "channel": 2,
      "note": 65,
      "start": 12.3926,
      "duration": 0.0998,
      "velocity": 109,
      "chip": "ym2612"
    },
    {
      "channel": 2,
      "note": 67,
      "start": 12.4925,
      "duration": 0.1008,
      "velocity": 109,
      "chip": "ym2612"
    },
    {
      "channel": 0,
      "note": 47,
      "start": 12.5932,
      "duration": 0.0025,
      "velocity": 115,
      "chip": "ym2612"
    },
    {
      "channel": 2,
      "note": 66,
      "start": 12.5935,
      "duration": 0.0017,
      "velocity": 109,
      "chip": "ym2612"
    },
    {
      "channel": 4,
      "note": 47,
      "start": 12.5939,
      "duration": 0.0039,
      "velocity": 111,
      "chip": "ym2612"
    },
    {
      "channel": 2,
      "note": 67,
      "start": 12.5954,
      "duration": 0.0015,
      "velocity": 111,
      "chip": "ym2612"
    },
    {
      "channel": 0,
      "note": 43,
      "start": 12.596,
      "duration": 0.0043,
      "velocity": 115,
      "chip": "ym2612"
    },
    {
      "channel": 2,
      "note": 75,
      "start": 12.5969,
      "duration": 0.0026,
      "velocity": 111,
      "chip": "ym2612"
    },
    {
      "channel": 4,
      "note": 43,
      "start": 12.5979,
      "duration": 0.003,
      "velocity": 111,
      "chip": "ym2612"
    },
    {
      "channel": 2,
      "note": 71,
      "start": 12.5997,
      "duration": 0.0008,
      "velocity": 111,
      "chip": "ym2612"
    },
    {
      "channel": 0,
      "note": 47,
      "start": 12.6005,
      "duration": 0.0019,
      "velocity": 115,
      "chip": "ym2612"
    },
    {
      "channel": 2,
      "note": 72,
      "start": 12.6008,
      "duration": 0.0008,
      "velocity": 111,
      "chip": "ym2612"
    },
    {
      "channel": 4,
      "note": 47,
      "start": 12.6011,
      "duration": 0.0018,
      "velocity": 111,
      "chip": "ym2612"
    },
    {
      "channel": 2,
      "note": 73,
      "start": 12.6017,
      "duration": 0.0008,
      "velocity": 111,
      "chip": "ym2612"
    },
    {
      "channel": 0,
      "note": 48,
      "start": 12.6025,
      "duration": 0.0032,
      "velocity": 115,
      "chip": "ym2612"
    },
    {
      "channel": 2,
      "note": 75,
      "start": 12.6028,
      "duration": 0.0021,
      "velocity": 111,
      "chip": "ym2612"
    },
    {
      "channel": 4,
      "note": 48,
      "start": 12.6031,
      "duration": 0.0029,
      "velocity": 111,
      "chip": "ym2612"
    },
    {
      "channel": 2,
      "note": 70,
      "start": 12.6051,
      "duration": 0.0007,
      "velocity": 111,
      "chip": "ym2612"
    },
    {
      "channel": 0,
      "note": 49,
      "start": 12.6058,
      "duration": 0.0017,
      "velocity": 115,
      "chip": "ym2612"
    },
    {
      "channel": 2,
      "note": 74,
      "start": 12.606,
      "duration": 0.0007,
      "velocity": 111,
      "chip": "ym2612"
    },
    {
      "channel": 4,
      "note": 49,
      "start": 12.6062,
      "duration": 0.0019,
      "velocity": 111,
      "chip": "ym2612"
    },
    {
      "channel": 2,
      "note": 72,
      "start": 12.6069,
      "duration": 0.0008,
      "velocity": 111,
      "chip": "ym2612"
    },
    {
      "channel": 0,
      "note": 47,
      "start": 12.6077,
      "duration": 0.0028,
      "velocity": 115,
      "chip": "ym2612"
    },
    {
      "channel": 2,
      "note": 78,
      "start": 12.608,
      "duration": 0.0018,
      "velocity": 111,
      "chip": "ym2612"
    },
    {
      "channel": 4,
      "note": 47,
      "start": 12.6083,
      "duration": 0.0028,
      "velocity": 111,
      "chip": "ym2612"
    },
    {
      "channel": 2,
      "note": 71,
      "start": 12.61,
      "duration": 0.0008,
      "velocity": 111,
      "chip": "ym2612"
    },
    {
      "channel": 0,
      "note": 46,
      "start": 12.6107,
      "duration": 0.0018,
      "velocity": 115,
      "chip": "ym2612"
    },
    {
      "channel": 2,
      "note": 74,
      "start": 12.611,
      "duration": 0.0008,
      "velocity": 111,
      "chip": "ym2612"
    },
    {
      "channel": 4,
      "note": 46,
      "start": 12.6113,
      "duration": 0.0018,
      "velocity": 111,
      "chip": "ym2612"
    },
    {
      "channel": 2,
      "note": 73,
      "start": 12.612,
      "duration": 0.0008,
      "velocity": 111,
      "chip": "ym2612"
    },
    {
      "channel": 0,
      "note": 44,
      "start": 12.6126,
      "duration": 0.003,
      "velocity": 115,
      "chip": "ym2612"
    },
    {
      "channel": 2,
      "note": 76,
      "start": 12.6129,
      "duration": 0.0019,
      "velocity": 111,
      "chip": "ym2612"
    },
    {
      "channel": 4,
      "note": 44,
      "start": 12.6133,
      "duration": 0.0028,
      "velocity": 111,
      "chip": "ym2612"
    },
    {
      "channel": 2,
      "note": 73,
      "start": 12.615,
      "duration": 0.0009,
      "velocity": 111,
      "chip": "ym2612"
    },
    {
      "channel": 0,
      "note": 48,
      "start": 12.6158,
      "duration": 0.0018,
      "velocity": 115,
      "chip": "ym2612"
    },
    {
      "channel": 2,
      "note": 75,
      "start": 12.6161,
      "duration": 0.0008,
      "velocity": 111,
      "chip": "ym2612"
    },
    {
      "channel": 4,
      "note": 48,
      "start": 12.6162,
      "duration": 0.0029,
      "velocity": 111,
      "chip": "ym2612"
    },
    {
      "channel": 2,
      "note": 72,
      "start": 12.617,
      "duration": 0.0017,
      "velocity": 109,
      "chip": "ym2612"
    },
    {
      "channel": 0,
      "note": 43,
      "start": 12.6178,
      "duration": 0.0037,
      "velocity": 115,
      "chip": "ym2612"
    },
    {
      "channel": 2,
      "note": 68,
      "start": 12.6189,
      "duration": 0.002,
      "velocity": 109,
      "chip": "ym2612"
    },
    {
      "channel": 4,
      "note": 43,
      "start": 12.6194,
      "duration": 0.0026,
      "velocity": 111,
      "chip": "ym2612"
    },
    {
      "channel": 2,
      "note": 64,
      "start": 12.6211,
      "duration": 0.0006,
      "velocity": 109,
      "chip": "ym2612"
    },
    {
      "channel": 0,
      "note": 47,
      "start": 12.6216,
      "duration": 0.0015,
      "velocity": 115,
      "chip": "ym2612"
    },
    {
      "channel": 2,
      "note": 61,
      "start": 12.6219,
      "duration": 0.0007,
      "velocity": 109,
      "chip": "ym2612"
    },
    {
      "channel": 4,
      "note": 47,
      "start": 12.6222,
      "duration": 0.0014,
      "velocity": 111,
      "chip": "ym2612"
    },
    {
      "channel": 2,
      "note": 66,
      "start": 12.6227,
      "duration": 0.0006,
      "velocity": 109,
      "chip": "ym2612"
    },
    {
      "channel": 0,
      "note": 48,
      "start": 12.6233,
      "duration": 0.002,
      "velocity": 115,
      "chip": "ym2612"
    },
    {
      "channel": 2,
      "note": 62,
      "start": 12.6235,
      "duration": 0.0012,
      "velocity": 109,
      "chip": "ym2612"
    },
    {
      "channel": 4,
      "note": 48,
      "start": 12.6237,
      "duration": 0.002,
      "velocity": 111,
      "chip": "ym2612"
    },
    {
      "channel": 2,
      "note": 64,
      "start": 12.6249,
      "duration": 0.0006,
      "velocity": 109,
      "chip": "ym2612"
    },
    {
      "channel": 0,
      "note": 49,
      "start": 12.6254,
      "duration": 0.0015,
      "velocity": 115,
      "chip": "ym2612"
    },
    {
      "channel": 2,
      "note": 66,
      "start": 12.6256,
      "duration": 0.0005,
      "velocity": 109,
      "chip": "ym2612"
    },
    {
      "channel": 4,
      "note": 49,
      "start": 12.6259,
      "duration": 0.0016,
      "velocity": 111,
      "chip": "ym2612"
    },
    {
      "channel": 2,
      "note": 63,
      "start": 12.6263,
      "duration": 0.0008,
      "velocity": 109,
      "chip": "ym2612"
    },
    {
      "channel": 0,
      "note": 47,
      "start": 12.6271,
      "duration": 0.0025,
      "velocity": 115,
      "chip": "ym2612"
    },
    {
      "channel": 2,
      "note": 67,
      "start": 12.6274,
      "duration": 0.0016,
      "velocity": 109,
      "chip": "ym2612"
    },
    {
      "channel": 4,
      "note": 47,
      "start": 12.6277,
      "duration": 0.0023,
      "velocity": 111,
      "chip": "ym2612"
    },
    {
      "channel": 2,
      "note": 65,
      "start": 12.6292,
      "duration": 0.0006,
      "velocity": 109,
      "chip": "ym2612"
    },
    {
      "channel": 0,
      "note": 49,
      "start": 12.6297,
      "duration": 0.0015,
      "velocity": 115,
      "chip": "ym2612"
    },
    {
      "channel": 2,
      "note": 66,
      "start": 12.63,
      "duration": 0.0007,
      "velocity": 109,
      "chip": "ym2612"
    },
    {
      "channel": 4,
      "note": 49,
      "start": 12.6303,
      "duration": 0.0016,
      "velocity": 111,
      "chip": "ym2612"
    },
    {
      "channel": 2,
      "note": 67,
      "start": 12.6308,
      "duration": 0.0007,
      "velocity": 109,
      "chip": "ym2612"
    },
    {
      "channel": 0,
      "note": 44,
      "start": 12.6314,
      "duration": 0.0025,
      "velocity": 115,
      "chip": "ym2612"
    },
    {
      "channel": 2,
      "note": 65,
      "start": 12.6317,
      "duration": 0.0017,
      "velocity": 109,
      "chip": "ym2612"
    },
    {
      "channel": 4,
      "note": 44,
      "start": 12.6321,
      "duration": 0.0022,
      "velocity": 111,
      "chip": "ym2612"
    },
    {
      "channel": 2,
      "note": 64,
      "start": 12.6336,
      "duration": 0.0006,
      "velocity": 109,
      "chip": "ym2612"
    },
    {
      "channel": 0,
      "note": 48,
      "start": 12.634,
      "duration": 0.0013,
      "velocity": 115,
      "chip": "ym2612"
    },
    {
      "channel": 2,
      "note": 66,
      "start": 12.6343,
      "duration": 0.0005,
      "velocity": 109,
      "chip": "ym2612"
    },
    {
      "channel": 4,
      "note": 48,
      "start": 12.6346,
      "duration": 0.0023,
      "velocity": 111,
      "chip": "ym2612"
    },
    {
      "channel": 2,
      "note": 67,
      "start": 12.635,
      "duration": 0.0014,
      "velocity": 111,
      "chip": "ym2612"
    },
    {
      "channel": 0,
      "note": 43,
      "start": 12.6356,
      "duration": 0.004,
      "velocity": 115,
      "chip": "ym2612"
    },
    {
      "channel": 2,
      "note": 76,
      "start": 12.6367,
      "duration": 0.0021,
      "velocity": 111,
      "chip": "ym2612"
    },
    {
      "channel": 4,
      "note": 43,
      "start": 12.6371,
      "duration": 0.0028,
      "velocity": 111,
      "chip": "ym2612"
    },
    {
      "channel": 2,
      "note": 74,
      "start": 12.6389,
      "duration": 0.0008,
      "velocity": 111,
      "chip": "ym2612"
    },
    {
      "channel": 0,
      "note": 47,
      "start": 12.6397,
      "duration": 0.0017,
      "velocity": 115,
      "chip": "ym2612"
    },
    {
      "channel": 2,
      "note": 72,
      "start": 12.6399,
      "duration": 0.0008,
      "velocity": 111,
      "chip": "ym2612"
    },
    {
      "channel": 4,
      "note": 47,
      "start": 12.6401,
      "duration": 0.0018,
      "velocity": 111,
      "chip": "ym2612"
    },
    {
      "channel": 2,
      "note": 73,
      "start": 12.6409,
      "duration": 0.0008,
      "velocity": 111,
      "chip": "ym2612"
    },
    {
      "channel": 0,
      "note": 48,
      "start": 12.6416,
      "duration": 0.0025,
      "velocity": 115,
      "chip": "ym2612"
    },
    {
      "channel": 2,
      "note": 77,
      "start": 12.6417,
      "duration": 0.0015,
      "velocity": 111,
      "chip": "ym2612"
    },
    {
      "channel": 4,
      "note": 48,
      "start": 12.642,
      "duration": 0.0026,
      "velocity": 111,
      "chip": "ym2612"
    },
    {
      "channel": 2,
      "note": 71,
      "start": 12.6434,
      "duration": 0.0009,
      "velocity": 111,
      "chip": "ym2612"
    },
    {
      "channel": 0,
      "note": 49,
      "start": 12.6442,
      "duration": 0.002,
      "velocity": 115,
      "chip": "ym2612"
    },
    {
      "channel": 2,
      "note": 74,
      "start": 12.6445,
      "duration": 0.0009,
      "velocity": 111,
      "chip": "ym2612"
    },
    {
      "channel": 4,
      "note": 49,
      "start": 12.6448,
      "duration": 0.002,
      "velocity": 111,
      "chip": "ym2612"
    },
    {
      "channel": 2,
      "note": 72,
      "start": 12.6456,
      "duration": 0.0009,
      "velocity": 111,
      "chip": "ym2612"
    },
    {
      "channel": 0,
      "note": 47,
      "start": 12.6463,
      "duration": 0.0031,
      "velocity": 115,
      "chip": "ym2612"
    },
    {
      "channel": 2,
      "note": 78,
      "start": 12.6466,
      "duration": 0.0019,
      "velocity": 111,
      "chip": "ym2612"
    },
    {
      "channel": 4,
      "note": 47,
      "start": 12.647,
      "duration": 0.0029,
      "velocity": 111,
      "chip": "ym2612"
    },
    {
      "channel": 2,
      "note": 71,
      "start": 12.6487,
      "duration": 0.0009,
      "velocity": 111,
      "chip": "ym2612"
    },
    {
      "channel": 0,
      "note": 46,
      "start": 12.6496,
      "duration": 0.0018,
      "velocity": 115,
      "chip": "ym2612"
    },
    {
      "channel": 2,
      "note": 74,
      "start": 12.6498,
      "duration": 0.0008,
      "velocity": 111,
      "chip": "ym2612"
    },
    {
      "channel": 4,
      "note": 46,
      "start": 12.65,
      "duration": 0.002,
      "velocity": 111,
      "chip": "ym2612"
    },
    {
      "channel": 2,
      "note": 73,
      "start": 12.6508,
      "duration": 0.0008,
      "velocity": 111,
      "chip": "ym2612"
    },
    {
      "channel": 0,
      "note": 44,
      "start": 12.6515,
      "duration": 0.0031,
      "velocity": 115,
      "chip": "ym2612"
    },
    {
      "channel": 2,
      "note": 76,
      "start": 12.6519,
      "duration": 0.0019,
      "velocity": 111,
      "chip": "ym2612"
    },
    {
      "channel": 4,
      "note": 44,
      "start": 12.6522,
      "duration": 0.0029,
      "velocity": 111,
      "chip": "ym2612"
    },
    {
      "channel": 2,
      "note": 77,
      "start": 12.6539,
      "duration": 0.0009,
      "velocity": 111,
      "chip": "ym2612"
    },
    {
      "channel": 0,
      "note": 48,
      "start": 12.6548,
      "duration": 0.0018,
      "velocity": 115,
      "chip": "ym2612"
    },
    {
      "channel": 2,
      "note": 75,
      "start": 12.655,
      "duration": 0.0008,
      "velocity": 111,
      "chip": "ym2612"
    },
    {
      "channel": 4,
      "note": 48,
      "start": 12.6552,
      "duration": 0.0029,
      "velocity": 111,
      "chip": "ym2612"
    },
    {
      "channel": 2,
      "note": 73,
      "start": 12.656,
      "duration": 0.0017,
      "velocity": 109,
      "chip": "ym2612"
    },
    {
      "channel": 0,
      "note": 43,
      "start": 12.6568,
      "duration": 0.0037,
      "velocity": 115,
      "chip": "ym2612"
    },
    {
      "channel": 2,
      "note": 63,
      "start": 12.6579,
      "duration": 0.002,
      "velocity": 109,
      "chip": "ym2612"
    },
    {
      "channel": 4,
      "note": 43,
      "start": 12.6584,
      "duration": 0.0025,
      "velocity": 111,
      "chip": "ym2612"
    },
    {
      "channel": 2,
      "note": 64,
      "start": 12.6601,
      "duration": 0.0005,
      "velocity": 109,
      "chip": "ym2612"
    },
    {
      "channel": 0,
      "note": 47,
      "start": 12.6606,
      "duration": 0.0015,
      "velocity": 115,
      "chip": "ym2612"
    },
    {
      "channel": 2,
      "note": 66,
      "start": 12.6608,
      "duration": 0.0007,
      "velocity": 109,
      "chip": "ym2612"
    },
    {
      "channel": 4,
      "note": 47,
      "start": 12.6612,
      "duration": 0.0013,
      "velocity": 111,
      "chip": "ym2612"
    },
    {
      "channel": 2,
      "note": 64,
      "start": 12.6617,
      "duration": 0.0006,
      "velocity": 109,
      "chip": "ym2612"
    },
    {
      "channel": 0,
      "note": 48,
      "start": 12.6622,
      "duration": 0.002,
      "velocity": 115,
      "chip": "ym2612"
    },
    {
      "channel": 2,
      "note": 66,
      "start": 12.6624,
      "duration": 0.0012,
      "velocity": 109,
      "chip": "ym2612"
    },
    {
      "channel": 4,
      "note": 48,
      "start": 12.6626,
      "duration": 0.002,
      "velocity": 111,
      "chip": "ym2612"
    },
    {
      "channel": 2,
      "note": 64,
      "start": 12.6638,
      "duration": 0.0006,
      "velocity": 109,
      "chip": "ym2612"
    },
    {
      "channel": 0,
      "note": 49,
      "start": 12.6644,
      "duration": 0.0013,
      "velocity": 115,
      "chip": "ym2612"
    },
    {
      "channel": 2,
      "note": 61,
      "start": 12.6646,
      "duration": 0.0006,
      "velocity": 109,
      "chip": "ym2612"
    },
    {
      "channel": 4,
      "note": 49,
      "start": 12.6648,
      "duration": 0.0015,
      "velocity": 111,
      "chip": "ym2612"
    },
    {
      "channel": 2,
      "note": 63,
      "start": 12.6653,
      "duration": 0.0007,
      "velocity": 109,
      "chip": "ym2612"
    },
    {
      "channel": 0,
      "note": 47,
      "start": 12.6658,
      "duration": 0.0026,
      "velocity": 115,
      "chip": "ym2612"
    },
    {
      "channel": 2,
      "note": 62,
      "start": 12.6662,
      "duration": 0.0017,
      "velocity": 109,
      "chip": "ym2612"
    },
    {
      "channel": 4,
      "note": 47,
      "start": 12.6665,
      "duration": 0.0024,
      "velocity": 111,
      "chip": "ym2612"
    },
    {
      "channel": 2,
      "note": 65,
      "start": 12.668,
      "duration": 0.0006,
      "velocity": 109,
      "chip": "ym2612"
    },
    {
      "channel": 0,
      "note": 51,
      "start": 12.6686,
      "duration": 0.0013,
      "velocity": 115,
      "chip": "ym2612"
    },
    {
      "channel": 2,
      "note": 66,
      "start": 12.6688,
      "duration": 0.0006,
      "velocity": 109,
      "chip": "ym2612"
    },
    {
      "channel": 4,
      "note": 51,
      "start": 12.6691,
      "duration": 0.0015,
      "velocity": 111,
      "chip": "ym2612"
    },
    {
      "channel": 2,
      "note": 67,
      "start": 12.6696,
      "duration": 0.0007,
      "velocity": 109,
      "chip": "ym2612"
    },
    {
      "channel": 0,
      "note": 49,
      "start": 12.6701,
      "duration": 0.0026,
      "velocity": 115,
      "chip": "ym2612"
    },
    {
      "channel": 2,
      "note": 65,
      "start": 12.6705,
      "duration": 0.0017,
      "velocity": 109,
      "chip": "ym2612"
    },
    {
      "channel": 4,
      "note": 49,
      "start": 12.6708,
      "duration": 0.0022,
      "velocity": 111,
      "chip": "ym2612"
    },
    {
      "channel": 2,
      "note": 67,
      "start": 12.6723,
      "duration": 0.0006,
      "velocity": 109,
      "chip": "ym2612"
    },
    {
      "channel": 0,
      "note": 47,
      "start": 12.6728,
      "duration": 0.0022,
      "velocity": 115,
      "chip": "ym2612"
    },
    {
      "channel": 2,
      "note": 66,
      "start": 12.6729,
      "duration": 0.0015,
      "velocity": 109,
      "chip": "ym2612"
    },
    {
      "channel": 4,
      "note": 47,
      "start": 12.6731,
      "duration": 0.0042,
      "velocity": 111,
      "chip": "ym2612"
    },
    {
      "channel": 2,
      "note": 67,
      "start": 12.6746,
      "duration": 0.0023,
      "velocity": 111,
      "chip": "ym2612"
    },
    {
      "channel": 0,
      "note": 43,
      "start": 12.6751,
      "duration": 0.0051,
      "velocity": 115,
      "chip": "ym2612"
    },
    {
      "channel": 1,
      "note": 84,
      "start": 12.6762,
      "duration": 0.0239,
      "velocity": 113,
      "chip": "ym2612"
    },
    {
      "channel": 2,
      "note": 75,
      "start": 12.6771,
      "duration": 0.0023,
      "velocity": 111,
      "chip": "ym2612"
    },
    {
      "channel": 4,
      "note": 43,
      "start": 12.6776,
      "duration": 0.0032,
      "velocity": 111,
      "chip": "ym2612"
    },
    {
      "channel": 2,
      "note": 71,
      "start": 12.6795,
      "duration": 0.0009,
      "velocity": 111,
      "chip": "ym2612"
    },
    {
      "channel": 0,
      "note": 47,
      "start": 12.6804,
      "duration": 0.0019,
      "velocity": 115,
      "chip": "ym2612"
    },
    {
      "channel": 2,
      "note": 72,
      "start": 12.6806,
      "duration": 0.0009,
      "velocity": 111,
      "chip": "ym2612"
    },
    {
      "channel": 4,
      "note": 47,
      "start": 12.6809,
      "duration": 0.0031,
      "velocity": 111,
      "chip": "ym2612"
    },
    {
      "channel": 2,
      "note": 73,
      "start": 12.6817,
      "duration": 0.0009,
      "velocity": 111,
      "chip": "ym2612"
    },
    {
      "channel": 0,
      "note": 48,
      "start": 12.6824,
      "duration": 0.0041,
      "velocity": 115,
      "chip": "ym2612"
    },
    {
      "channel": 2,
      "note": 75,
      "start": 12.6827,
      "duration": 0.0031,
      "velocity": 111,
      "chip": "ym2612"
    },
    {
      "channel": 3,
      "note": 84,
      "start": 12.6839,
      "duration": 0.0231,
      "velocity": 113,
      "chip": "ym2612"
    },
    {
      "channel": 4,
      "note": 48,
      "start": 12.6843,
      "duration": 0.0028,
      "velocity": 111,
      "chip": "ym2612"
    },
    {
      "channel": 2,
      "note": 70,
      "start": 12.6859,
      "duration": 0.001,
      "velocity": 111,
      "chip": "ym2612"
    },
    {
      "channel": 0,
      "note": 49,
      "start": 12.6868,
      "duration": 0.0023,
      "velocity": 115,
      "chip": "ym2612"
    },
    {
      "channel": 2,
      "note": 74,
      "start": 12.6871,
      "duration": 0.0006,
      "velocity": 111,
      "chip": "ym2612"
    },
    {
      "channel": 4,
      "note": 49,
      "start": 12.6873,
      "duration": 0.0025,
      "velocity": 111,
      "chip": "ym2612"
    },
    {
      "channel": 2,
      "note": 72,
      "start": 12.6879,
      "duration": 0.0015,
      "velocity": 111,
      "chip": "ym2612"
    },
    {
      "channel": 0,
      "note": 47,
      "start": 12.6893,
      "duration": 0.0029,
      "velocity": 115,
      "chip": "ym2612"
    },
    {
      "channel": 2,
      "note": 78,
      "start": 12.6896,
      "duration": 0.0019,
      "velocity": 111,
      "chip": "ym2612"
    },
    {
      "channel": 4,
      "note": 47,
      "start": 12.69,
      "duration": 0.0026,
      "velocity": 111,
      "chip": "ym2612"
    },
    {
      "channel": 2,
      "note": 71,
      "start": 12.6917,
      "duration": 0.0007,
      "velocity": 111,
      "chip": "ym2612"
    },
    {
      "channel": 0,
      "note": 46,
      "start": 12.6923,
      "duration": 0.0017,
      "velocity": 115,
      "chip": "ym2612"
    },
    {
      "channel": 2,
      "note": 74,
      "start": 12.6925,
      "duration": 0.0006,
      "velocity": 111,
      "chip": "ym2612"
    },
    {
      "channel": 4,
      "note": 46,
      "start": 12.6927,
      "duration": 0.0019,
      "velocity": 111,
      "chip": "ym2612"
    },
    {
      "channel": 2,
      "note": 73,
      "start": 12.6934,
      "duration": 0.0009,
      "velocity": 111,
      "chip": "ym2612"
    },
    {
      "channel": 0,
      "note": 44,
      "start": 12.6941,
      "duration": 0.0031,
      "velocity": 115,
      "chip": "ym2612"
    },
    {
      "channel": 2,
      "note": 76,
      "start": 12.6945,
      "duration": 0.0019,
      "velocity": 111,
      "chip": "ym2612"
    },
    {
      "channel": 4,
      "note": 44,
      "start": 12.6949,
      "duration": 0.0028,
      "velocity": 111,
      "chip": "ym2612"
    },
    {
      "channel": 2,
      "note": 73,
      "start": 12.6965,
      "duration": 0.001,
      "velocity": 111,
      "chip": "ym2612"
    },
    {
      "channel": 0,
      "note": 48,
      "start": 12.6973,
      "duration": 0.0018,
      "velocity": 115,
      "chip": "ym2612"
    },
    {
      "channel": 2,
      "note": 75,
      "start": 12.6977,
      "duration": 0.0006,
      "velocity": 111,
      "chip": "ym2612"
    },
    {
      "channel": 4,
      "note": 48,
      "start": 12.6978,
      "duration": 0.0036,
      "velocity": 111,
      "chip": "ym2612"
    },
    {
      "channel": 2,
      "note": 72,
      "start": 12.6985,
      "duration": 0.0025,
      "velocity": 109,
      "chip": "ym2612"
    },
    {
      "channel": 0,
      "note": 43,
      "start": 12.6994,
      "duration": 0.0044,
      "velocity": 115,
      "chip": "ym2612"
    },
    {
      "channel": 1,
      "note": 79,
      "start": 12.7003,
      "duration": 0.0197,
      "velocity": 114,
      "chip": "ym2612"
    },
    {
      "channel": 2,
      "note": 68,
      "start": 12.7013,
      "duration": 0.0019,
      "velocity": 109,
      "chip": "ym2612"
    },
    {
      "channel": 4,
      "note": 43,
      "start": 12.7016,
      "duration": 0.0025,
      "velocity": 111,
      "chip": "ym2612"
    },
    {
      "channel": 2,
      "note": 64,
      "start": 12.7033,
      "duration": 0.0006,
      "velocity": 109,
      "chip": "ym2612"
    },
    {
      "channel": 0,
      "note": 47,
      "start": 12.7039,
      "duration": 0.0017,
      "velocity": 115,
      "chip": "ym2612"
    },
    {
      "channel": 2,
      "note": 61,
      "start": 12.7041,
      "duration": 0.0007,
      "velocity": 109,
      "chip": "ym2612"
    },
    {
      "channel": 4,
      "note": 47,
      "start": 12.7044,
      "duration": 0.0029,
      "velocity": 111,
      "chip": "ym2612"
    },
    {
      "channel": 2,
      "note": 66,
      "start": 12.7049,
      "duration": 0.001,
      "velocity": 109,
      "chip": "ym2612"
    },
    {
      "channel": 0,
      "note": 48,
      "start": 12.7058,
      "duration": 0.0037,
      "velocity": 115,
      "chip": "ym2612"
    },
    {
      "channel": 2,
      "note": 62,
      "start": 12.7061,
      "duration": 0.0029,
      "velocity": 109,
      "chip": "ym2612"
    },
    {
      "channel": 3,
      "note": 79,
      "start": 12.7072,
      "duration": 0.0204,
      "velocity": 114,
      "chip": "ym2612"
    },
    {
      "channel": 4,
      "note": 48,
      "start": 12.7076,
      "duration": 0.0023,
      "velocity": 111,
      "chip": "ym2612"
    },
    {
      "channel": 2,
      "note": 64,
      "start": 12.7091,
      "duration": 0.0006,
      "velocity": 109,
      "chip": "ym2612"
    },
    {
      "channel": 0,
      "note": 49,
      "start": 12.7096,
      "duration": 0.0012,
      "velocity": 115,
      "chip": "ym2612"
    },
    {
      "channel": 2,
      "note": 66,
      "start": 12.7098,
      "duration": 0.0005,
      "velocity": 109,
      "chip": "ym2612"
    },
    {
      "channel": 4,
      "note": 49,
      "start": 12.7101,
      "duration": 0.0012,
      "velocity": 111,
      "chip": "ym2612"
    },
    {
      "channel": 2,
      "note": 63,
      "start": 12.7105,
      "duration": 0.0006,
      "velocity": 109,
      "chip": "ym2612"
    },
    {
      "channel": 0,
      "note": 47,
      "start": 12.711,
      "duration": 0.002,
      "velocity": 115,
      "chip": "ym2612"
    },
    {
      "channel": 2,
      "note": 67,
      "start": 12.7112,
      "duration": 0.0012,
      "velocity": 109,
      "chip": "ym2612"
    },
    {
      "channel": 4,
      "note": 47,
      "start": 12.7116,
      "duration": 0.002,
      "velocity": 111,
      "chip": "ym2612"
    },
    {
      "channel": 2,
      "note": 65,
      "start": 12.7126,
      "duration": 0.0007,
      "velocity": 109,
      "chip": "ym2612"
    },
    {
      "channel": 0,
      "note": 49,
      "start": 12.7133,
      "duration": 0.0014,
      "velocity": 115,
      "chip": "ym2612"
    },
    {
      "channel": 2,
      "note": 66,
      "start": 12.7134,
      "duration": 0.0006,
      "velocity": 109,
      "chip": "ym2612"
    },
    {
      "channel": 4,
      "note": 49,
      "start": 12.7137,
      "duration": 0.0017,
      "velocity": 111,
      "chip": "ym2612"
    },
    {
      "channel": 2,
      "note": 67,
      "start": 12.7142,
      "duration": 0.0008,
      "velocity": 109,
      "chip": "ym2612"
    },
    {
      "channel": 0,
      "note": 44,
      "start": 12.7149,
      "duration": 0.0027,
      "velocity": 115,
      "chip": "ym2612"
    },
    {
      "channel": 2,
      "note": 65,
      "start": 12.7152,
      "duration": 0.0017,
      "velocity": 109,
      "chip": "ym2612"
    },
    {
      "channel": 4,
      "note": 44,
      "start": 12.7156,
      "duration": 0.0025,
      "velocity": 111,
      "chip": "ym2612"
    },
    {
      "channel": 2,
      "note": 64,
      "start": 12.7171,
      "duration": 0.0007,
      "velocity": 109,
      "chip": "ym2612"
    },
    {
      "channel": 0,
      "note": 48,
      "start": 12.7178,
      "duration": 0.0013,
      "velocity": 115,
      "chip": "ym2612"
    },
    {
      "channel": 2,
      "note": 66,
      "start": 12.718,
      "duration": 0.0006,
      "velocity": 109,
      "chip": "ym2612"
    },
    {
      "channel": 4,
      "note": 48,
      "start": 12.7183,
      "duration": 0.0032,
      "velocity": 111,
      "chip": "ym2612"
    },
    {
      "channel": 2,
      "note": 67,
      "start": 12.7188,
      "duration": 0.0022,
      "velocity": 111,
      "chip": "ym2612"
    },
    {
      "channel": 0,
      "note": 43,
      "start": 12.7193,
      "duration": 0.0048,
      "velocity": 115,
      "chip": "ym2612"
    },
    {
      "channel": 1,
      "note": 85,
      "start": 12.7203,
      "duration": 0.0237,
      "velocity": 113,
      "chip": "ym2612"
    },
    {
      "channel": 2,
      "note": 76,
      "start": 12.7213,
      "duration": 0.0019,
      "velocity": 111,
      "chip": "ym2612"
    },
    {
      "channel": 4,
      "note": 43,
      "start": 12.7217,
      "duration": 0.0028,
      "velocity": 111,
      "chip": "ym2612"
    },
    {
      "channel": 2,
      "note": 74,
      "start": 12.7234,
      "duration": 0.0009,
      "velocity": 111,
      "chip": "ym2612"
    },
    {
      "channel": 0,
      "note": 47,
      "start": 12.7242,
      "duration": 0.0019,
      "velocity": 115,
      "chip": "ym2612"
    },
    {
      "channel": 2,
      "note": 72,
      "start": 12.7244,
      "duration": 0.0008,
      "velocity": 111,
      "chip": "ym2612"
    },
    {
      "channel": 4,
      "note": 47,
      "start": 12.7246,
      "duration": 0.0032,
      "velocity": 111,
      "chip": "ym2612"
    },
    {
      "channel": 2,
      "note": 73,
      "start": 12.7254,
      "duration": 0.0011,
      "velocity": 111,
      "chip": "ym2612"
    },
    {
      "channel": 0,
      "note": 48,
      "start": 12.7263,
      "duration": 0.0042,
      "velocity": 115,
      "chip": "ym2612"
    },
    {
      "channel": 2,
      "note": 77,
      "start": 12.7267,
      "duration": 0.0029,
      "velocity": 111,
      "chip": "ym2612"
    },
    {
      "channel": 3,
      "note": 85,
      "start": 12.7278,
      "duration": 0.0232,
      "velocity": 113,
      "chip": "ym2612"
    },
    {
      "channel": 4,
      "note": 48,
      "start": 12.7281,
      "duration": 0.0029,
      "velocity": 111,
      "chip": "ym2612"
    },
    {
      "channel": 2,
      "note": 71,
      "start": 12.7298,
      "duration": 0.0009,
      "velocity": 111,
      "chip": "ym2612"
    },
    {
      "channel": 0,
      "note": 49,
      "start": 12.7307,
      "duration": 0.0019,
      "velocity": 115,
      "chip": "ym2612"
    },
    {
      "channel": 2,
      "note": 74,
      "start": 12.731,
      "duration": 0.0009,
      "velocity": 111,
      "chip": "ym2612"
    },
    {
      "channel": 4,
      "note": 49,
      "start": 12.7312,
      "duration": 0.0018,
      "velocity": 111,
      "chip": "ym2612"
    },
    {
      "channel": 2,
      "note": 72,
      "start": 12.732,
      "duration": 0.0009,
      "velocity": 111,
      "chip": "ym2612"
    },
    {
      "channel": 0,
      "note": 47,
      "start": 12.7328,
      "duration": 0.0025,
      "velocity": 115,
      "chip": "ym2612"
    },
    {
      "channel": 2,
      "note": 78,
      "start": 12.733,
      "duration": 0.0014,
      "velocity": 111,
      "chip": "ym2612"
    },
    {
      "channel": 4,
      "note": 47,
      "start": 12.7332,
      "duration": 0.0025,
      "velocity": 111,
      "chip": "ym2612"
    },
    {
      "channel": 2,
      "note": 71,
      "start": 12.7346,
      "duration": 0.0009,
      "velocity": 111,
      "chip": "ym2612"
    },
    {
      "channel": 0,
      "note": 46,
      "start": 12.7355,
      "duration": 0.0019,
      "velocity": 115,
      "chip": "ym2612"
    },
    {
      "channel": 2,
      "note": 74,
      "start": 12.7357,
      "duration": 0.0009,
      "velocity": 111,
      "chip": "ym2612"
    },
    {
      "channel": 4,
      "note": 46,
      "start": 12.736,
      "duration": 0.0021,
      "velocity": 111,
      "chip": "ym2612"
    },
    {
      "channel": 2,
      "note": 73,
      "start": 12.7367,
      "duration": 0.001,
      "velocity": 111,
      "chip": "ym2612"
    },
    {
      "channel": 0,
      "note": 44,
      "start": 12.7376,
      "duration": 0.0033,
      "velocity": 115,
      "chip": "ym2612"
    },
    {
      "channel": 2,
      "note": 76,
      "start": 12.7379,
      "duration": 0.0021,
      "velocity": 111,
      "chip": "ym2612"
    },
    {
      "channel": 4,
      "note": 44,
      "start": 12.7383,
      "duration": 0.0032,
      "velocity": 111,
      "chip": "ym2612"
    },
    {
      "channel": 2,
      "note": 77,
      "start": 12.7402,
      "duration": 0.001,
      "velocity": 111,
      "chip": "ym2612"
    },
    {
      "channel": 0,
      "note": 48,
      "start": 12.7411,
      "duration": 0.0019,
      "velocity": 115,
      "chip": "ym2612"
    },
    {
      "channel": 2,
      "note": 75,
      "start": 12.7413,
      "duration": 0.0008,
      "velocity": 111,
      "chip": "ym2612"
    },
    {
      "channel": 4,
      "note": 48,
      "start": 12.7415,
      "duration": 0.0038,
      "velocity": 111,
      "chip": "ym2612"
    },
    {
      "channel": 2,
      "note": 73,
      "start": 12.7423,
      "duration": 0.0026,
      "velocity": 109,
      "chip": "ym2612"
    },
    {
      "channel": 0,
      "note": 43,
      "start": 12.7432,
      "duration": 0.0047,
      "velocity": 115,
      "chip": "ym2612"
    },
    {
      "channel": 1,
      "note": 81,
      "start": 12.7441,
      "duration": 0.2178,
      "velocity": 114,
      "chip": "ym2612"
    },
    {
      "channel": 2,
      "note": 63,
      "start": 12.7452,
      "duration": 0.0019,
      "velocity": 109,
      "chip": "ym2612"
    },
    {
      "channel": 4,
      "note": 43,
      "start": 12.7456,
      "duration": 0.0027,
      "velocity": 111,
      "chip": "ym2612"
    },
    {
      "channel": 2,
      "note": 64,
      "start": 12.7473,
      "duration": 0.0007,
      "velocity": 109,
      "chip": "ym2612"
    },
    {
      "channel": 0,
      "note": 47,
      "start": 12.748,
      "duration": 0.0016,
      "velocity": 115,
      "chip": "ym2612"
    },
    {
      "channel": 2,
      "note": 66,
      "start": 12.7482,
      "duration": 0.0007,
      "velocity": 109,
      "chip": "ym2612"
    },
    {
      "channel": 4,
      "note": 47,
      "start": 12.7484,
      "duration": 0.0028,
      "velocity": 111,
      "chip": "ym2612"
    },
    {
      "channel": 2,
      "note": 64,
      "start": 12.749,
      "duration": 0.0009,
      "velocity": 109,
      "chip": "ym2612"
    },
    {
      "channel": 0,
      "note": 48,
      "start": 12.7498,
      "duration": 0.004,
      "velocity": 115,
      "chip": "ym2612"
    },
    {
      "channel": 2,
      "note": 66,
      "start": 12.7501,
      "duration": 0.0029,
      "velocity": 109,
      "chip": "ym2612"
    },
    {
      "channel": 3,
      "note": 81,
      "start": 12.7512,
      "duration": 0.2181,
      "velocity": 114,
      "chip": "ym2612"
    },
    {
      "channel": 4,
      "note": 48,
      "start": 12.7515,
      "duration": 0.0027,
      "velocity": 111,
      "chip": "ym2612"
    },
    {
      "channel": 2,
      "note": 64,
      "start": 12.7532,
      "duration": 0.0008,
      "velocity": 109,
      "chip": "ym2612"
    },
    {
      "channel": 0,
      "note": 49,
      "start": 12.7539,
      "duration": 0.0016,
      "velocity": 115,
      "chip": "ym2612"
    },
    {
      "channel": 2,
      "note": 61,
      "start": 12.7541,
      "duration": 0.0006,
      "velocity": 109,
      "chip": "ym2612"
    },
    {
      "channel": 4,
      "note": 49,
      "start": 12.7543,
      "duration": 0.0016,
      "velocity": 111,
      "chip": "ym2612"
    },
    {
      "channel": 2,
      "note": 63,
      "start": 12.7549,
      "duration": 0.0008,
      "velocity": 109,
      "chip": "ym2612"
    },
    {
      "channel": 0,
      "note": 47,
      "start": 12.7556,
      "duration": 0.0022,
      "velocity": 115,
      "chip": "ym2612"
    },
    {
      "channel": 2,
      "note": 62,
      "start": 12.7559,
      "duration": 0.0012,
      "velocity": 109,
      "chip": "ym2612"
    },
    {
      "channel": 4,
      "note": 47,
      "start": 12.7561,
      "duration": 0.0022,
      "velocity": 111,
      "chip": "ym2612"
    },
    {
      "channel": 2,
      "note": 65,
      "start": 12.7572,
      "duration": 0.0009,
      "velocity": 109,
      "chip": "ym2612"
    },
    {
      "channel": 0,
      "note": 51,
      "start": 12.758,
      "duration": 0.0017,
      "velocity": 115,
      "chip": "ym2612"
    },
    {
      "channel": 2,
      "note": 66,
      "start": 12.7583,
      "duration": 0.0006,
      "velocity": 109,
      "chip": "ym2612"
    },
    {
      "channel": 4,
      "note": 51,
      "start": 12.7585,
      "duration": 0.0018,
      "velocity": 111,
      "chip": "ym2612"
    },
    {
      "channel": 2,
      "note": 67,
      "start": 12.759,
      "duration": 0.001,
      "velocity": 109,
      "chip": "ym2612"
    },
    {
      "channel": 0,
      "note": 49,
      "start": 12.7599,
      "duration": 0.198,
      "velocity": 115,
      "chip": "ym2612"
    },
    {
      "channel": 2,
      "note": 65,
      "start": 12.7602,
      "duration": 0.0978,
      "velocity": 109,
      "chip": "ym2612"
    },
    {
      "channel": 4,
      "note": 49,
      "start": 12.7605,
      "duration": 0.1981,
      "velocity": 111,
      "chip": "ym2612"
    },
    {
      "channel": 2,
      "note": 67,
      "start": 12.8582,
      "duration": 0.1001,
      "velocity": 109,
      "chip": "ym2612"
    },
    {
      "channel": 0,
      "note": 47,
      "start": 12.9582,
      "duration": 0.0027,
      "velocity": 115,
      "chip": "ym2612"
    },
    {
      "channel": 2,
      "note": 66,
      "start": 12.9585,
      "duration": 0.0017,
      "velocity": 109,
      "chip": "ym2612"
    },
    {
      "channel": 4,
      "note": 47,
      "start": 12.9588,
      "duration": 0.0042,
      "velocity": 111,
      "chip": "ym2612"
    },
    {
      "channel": 2,
      "note": 67,
      "start": 12.9604,
      "duration": 0.0025,
      "velocity": 111,
      "chip": "ym2612"
    },
    {
      "channel": 0,
      "note": 43,
      "start": 12.9612,
      "duration": 0.0039,
      "velocity": 115,
      "chip": "ym2612"
    },
    {
      "channel": 1,
      "note": 84,
      "start": 12.9621,
      "duration": 0.0252,
      "velocity": 113,
      "chip": "ym2612"
    },
    {
      "channel": 2,
      "note": 75,
      "start": 12.963,
      "duration": 0.0011,
      "velocity": 111,
      "chip": "ym2612"
    },
    {
      "channel": 4,
      "note": 43,
      "start": 12.9633,
      "duration": 0.0022,
      "velocity": 111,
      "chip": "ym2612"
    },
    {
      "channel": 2,
      "note": 71,
      "start": 12.9642,
      "duration": 0.0011,
      "velocity": 111,
      "chip": "ym2612"
    },
    {
      "channel": 0,
      "note": 47,
      "start": 12.9652,
      "duration": 0.0027,
      "velocity": 115,
      "chip": "ym2612"
    },
    {
      "channel": 2,
      "note": 72,
      "start": 12.9654,
      "duration": 0.0016,
      "velocity": 111,
      "chip": "ym2612"
    },
    {
      "channel": 4,
      "note": 47,
      "start": 12.9658,
      "duration": 0.0039,
      "velocity": 111,
      "chip": "ym2612"
    },
    {
      "channel": 2,
      "note": 73,
      "start": 12.9672,
      "duration": 0.0011,
      "velocity": 111,
      "chip": "ym2612"
    },
    {
      "channel": 0,
      "note": 48,
      "start": 12.9682,
      "duration": 0.0044,
      "velocity": 115,
      "chip": "ym2612"
    },
    {
      "channel": 2,
      "note": 75,
      "start": 12.9686,
      "duration": 0.003,
      "velocity": 111,
      "chip": "ym2612"
    },
    {
      "channel": 3,
      "note": 84,
      "start": 12.9695,
      "duration": 0.025,
      "velocity": 113,
      "chip": "ym2612"
    },
    {
      "channel": 4,
      "note": 48,
      "start": 12.9699,
      "duration": 0.0032,
      "velocity": 111,
      "chip": "ym2612"
    },
    {
      "channel": 2,
      "note": 70,
      "start": 12.9717,
      "duration": 0.0011,
      "velocity": 111,
      "chip": "ym2612"
    },
    {
      "channel": 0,
      "note": 49,
      "start": 12.9728,
      "duration": 0.0022,
      "velocity": 115,
      "chip": "ym2612"
    },
    {
      "channel": 2,
      "note": 74,
      "start": 12.973,
      "duration": 0.001,
      "velocity": 111,
      "chip": "ym2612"
    },
    {
      "channel": 4,
      "note": 49,
      "start": 12.9732,
      "duration": 0.0022,
      "velocity": 111,
      "chip": "ym2612"
    },
    {
      "channel": 2,
      "note": 72,
      "start": 12.9742,
      "duration": 0.001,
      "velocity": 111,
      "chip": "ym2612"
    },
    {
      "channel": 0,
      "note": 47,
      "start": 12.9751,
      "duration": 0.0028,
      "velocity": 115,
      "chip": "ym2612"
    },
    {
      "channel": 2,
      "note": 78,
      "start": 12.9753,
      "duration": 0.0015,
      "velocity": 111,
      "chip": "ym2612"
    },
    {
      "channel": 4,
      "note": 47,
      "start": 12.9756,
      "duration": 0.0028,
      "velocity": 111,
      "chip": "ym2612"
    },
    {
      "channel": 2,
      "note": 71,
      "start": 12.9771,
      "duration": 0.0011,
      "velocity": 111,
      "chip": "ym2612"
    },
    {
      "channel": 0,
      "note": 46,
      "start": 12.978,
      "duration": 0.002,
      "velocity": 115,
      "chip": "ym2612"
    },
    {
      "channel": 2,
      "note": 74,
      "start": 12.9782,
      "duration": 0.0008,
      "velocity": 111,
      "chip": "ym2612"
    },
    {
      "channel": 4,
      "note": 46,
      "start": 12.9784,
      "duration": 0.0023,
      "velocity": 111,
      "chip": "ym2612"
    },
    {
      "channel": 2,
      "note": 73,
      "start": 12.9792,
      "duration": 0.0012,
      "velocity": 111,
      "chip": "ym2612"
    },
    {
      "channel": 0,
      "note": 44,
      "start": 12.9803,
      "duration": 0.0035,
      "velocity": 115,
      "chip": "ym2612"
    },
    {
      "channel": 2,
      "note": 76,
      "start": 12.9806,
      "duration": 0.0022,
      "velocity": 111,
      "chip": "ym2612"
    },
    {
      "channel": 4,
      "note": 44,
      "start": 12.981,
      "duration": 0.0033,
      "velocity": 111,
      "chip": "ym2612"
    },
    {
      "channel": 2,
      "note": 73,
      "start": 12.983,
      "duration": 0.001,
      "velocity": 111,
      "chip": "ym2612"
    },
    {
      "channel": 0,
      "note": 48,
      "start": 12.984,
      "duration": 0.0024,
      "velocity": 115,
      "chip": "ym2612"
    },
    {
      "channel": 2,
      "note": 75,
      "start": 12.9842,
      "duration": 0.001,
      "velocity": 111,
      "chip": "ym2612"
    },
    {
      "channel": 4,
      "note": 48,
      "start": 12.9843,
      "duration": 0.0043,
      "velocity": 111,
      "chip": "ym2612"
    },
    {
      "channel": 2,
      "note": 72,
      "start": 12.9854,
      "duration": 0.0029,
      "velocity": 109,
      "chip": "ym2612"
    },
    {
      "channel": 0,
      "note": 43,
      "start": 12.9866,
      "duration": 0.0046,
      "velocity": 115,
      "chip": "ym2612"
    },
    {
      "channel": 1,
      "note": 79,
      "start": 12.9876,
      "duration": 0.0225,
      "velocity": 114,
      "chip": "ym2612"
    },
    {
      "channel": 2,
      "note": 68,
      "start": 12.9885,
      "duration": 0.0021,
      "velocity": 109,
      "chip": "ym2612"
    },
    {
      "channel": 4,
      "note": 43,
      "start": 12.9889,
      "duration": 0.0028,
      "velocity": 111,
      "chip": "ym2612"
    },
    {
      "channel": 2,
      "note": 64,
      "start": 12.9907,
      "duration": 0.0008,
      "velocity": 109,
      "chip": "ym2612"
    },
    {
      "channel": 0,
      "note": 47,
      "start": 12.9914,
      "duration": 0.0018,
      "velocity": 115,
      "chip": "ym2612"
    },
    {
      "channel": 2,
      "note": 61,
      "start": 12.9916,
      "duration": 0.0008,
      "velocity": 109,
      "chip": "ym2612"
    },
    {
      "channel": 4,
      "note": 47,
      "start": 12.9918,
      "duration": 0.0031,
      "velocity": 111,
      "chip": "ym2612"
    },
    {
      "channel": 2,
      "note": 66,
      "start": 12.9926,
      "duration": 0.001,
      "velocity": 109,
      "chip": "ym2612"
    },
    {
      "channel": 0,
      "note": 48,
      "start": 12.9934,
      "duration": 0.0041,
      "velocity": 115,
      "chip": "ym2612"
    },
    {
      "channel": 2,
      "note": 62,
      "start": 12.9937,
      "duration": 0.0031,
      "velocity": 109,
      "chip": "ym2612"
    },
    {
      "channel": 3,
      "note": 79,
      "start": 12.9948,
      "duration": 0.0236,
      "velocity": 114,
      "chip": "ym2612"
    },
    {
      "channel": 4,
      "note": 48,
      "start": 12.9951,
      "duration": 0.0029,
      "velocity": 111,
      "chip": "ym2612"
    },
    {
      "channel": 2,
      "note": 64,
      "start": 12.997,
      "duration": 0.0008,
      "velocity": 109,
      "chip": "ym2612"
    },
    {
      "channel": 0,
      "note": 49,
      "start": 12.9977,
      "duration": 0.0018,
      "velocity": 115,
      "chip": "ym2612"
    },
    {
      "channel": 2,
      "note": 66,
      "start": 12.9979,
      "duration": 0.0009,
      "velocity": 109,
      "chip": "ym2612"
    },
    {
      "channel": 4,
      "note": 49,
      "start": 12.9982,
      "duration": 0.0019,
      "velocity": 111,
      "chip": "ym2612"
    },
    {
      "channel": 2,
      "note": 63,
      "start": 12.9989,
      "duration": 0.0009,
      "velocity": 109,
      "chip": "ym2612"
    },
    {
      "channel": 0,
      "note": 47,
      "start": 12.9997,
      "duration": 0.0024,
      "velocity": 115,
      "chip": "ym2612"
    },
    {
      "channel": 2,
      "note": 67,
      "start": 13.0,
      "duration": 0.0015,
      "velocity": 109,
      "chip": "ym2612"
    },
    {
      "channel": 4,
      "note": 47,
      "start": 13.0003,
      "duration": 0.0024,
      "velocity": 111,
      "chip": "ym2612"
    },
    {
      "channel": 2,
      "note": 65,
      "start": 13.0017,
      "duration": 0.0008,
      "velocity": 109,
      "chip": "ym2612"
    },
    {
      "channel": 0,
      "note": 49,
      "start": 13.0024,
      "duration": 0.0017,
      "velocity": 115,
      "chip": "ym2612"
    },
    {
      "channel": 2,
      "note": 66,
      "start": 13.0026,
      "duration": 0.0007,
      "velocity": 109,
      "chip": "ym2612"
    },
    {
      "channel": 4,
      "note": 49,
      "start": 13.0028,
      "duration": 0.0019,
      "velocity": 111,
      "chip": "ym2612"
    },
    {
      "channel": 2,
      "note": 67,
      "start": 13.0035,
      "duration": 0.001,
      "velocity": 109,
      "chip": "ym2612"
    },
    {
      "channel": 0,
      "note": 44,
      "start": 13.0043,
      "duration": 0.0029,
      "velocity": 115,
      "chip": "ym2612"
    },
    {
      "channel": 2,
      "note": 65,
      "start": 13.0046,
      "duration": 0.0019,
      "velocity": 109,
      "chip": "ym2612"
    },
    {
      "channel": 4,
      "note": 44,
      "start": 13.0049,
      "duration": 0.0028,
      "velocity": 111,
      "chip": "ym2612"
    },
    {
      "channel": 2,
      "note": 64,
      "start": 13.0066,
      "duration": 0.0007,
      "velocity": 109,
      "chip": "ym2612"
    },
    {
      "channel": 0,
      "note": 48,
      "start": 13.0073,
      "duration": 0.0017,
      "velocity": 115,
      "chip": "ym2612"
    },
    {
      "channel": 2,
      "note": 66,
      "start": 13.0077,
      "duration": 0.0007,
      "velocity": 109,
      "chip": "ym2612"
    },
    {
      "channel": 4,
      "note": 48,
      "start": 13.0079,
      "duration": 0.0034,
      "velocity": 111,
      "chip": "ym2612"
    },
    {
      "channel": 2,
      "note": 67,
      "start": 13.0086,
      "duration": 0.0024,
      "velocity": 111,
      "chip": "ym2612"
    },
    {
      "channel": 0,
      "note": 43,
      "start": 13.0093,
      "duration": 0.0052,
      "velocity": 115,
      "chip": "ym2612"
    },
    {
      "channel": 1,
      "note": 85,
      "start": 13.0102,
      "duration": 0.0262,
      "velocity": 113,
      "chip": "ym2612"
    },
    {
      "channel": 2,
      "note": 76,
      "start": 13.0112,
      "duration": 0.0023,
      "velocity": 111,
      "chip": "ym2612"
    },
    {
      "channel": 4,
      "note": 43,
      "start": 13.0116,
      "duration": 0.0036,
      "velocity": 111,
      "chip": "ym2612"
    },
    {
      "channel": 2,
      "note": 74,
      "start": 13.0137,
      "duration": 0.001,
      "velocity": 111,
      "chip": "ym2612"
    },
    {
      "channel": 0,
      "note": 47,
      "start": 13.0147,
      "duration": 0.0023,
      "velocity": 115,
      "chip": "ym2612"
    },
    {
      "channel": 2,
      "note": 72,
      "start": 13.015,
      "duration": 0.001,
      "velocity": 111,
      "chip": "ym2612"
    },
    {
      "channel": 4,
      "note": 47,
      "start": 13.0153,
      "duration": 0.0034,
      "velocity": 111,
      "chip": "ym2612"
    },
    {
      "channel": 2,
      "note": 73,
      "start": 13.0161,
      "duration": 0.0011,
      "velocity": 111,
      "chip": "ym2612"
    },
    {
      "channel": 0,
      "note": 48,
      "start": 13.0171,
      "duration": 0.0044,
      "velocity": 115,
      "chip": "ym2612"
    },
    {
      "channel": 2,
      "note": 77,
      "start": 13.0175,
      "duration": 0.0032,
      "velocity": 111,
      "chip": "ym2612"
    },
    {
      "channel": 3,
      "note": 85,
      "start": 13.0186,
      "duration": 0.0251,
      "velocity": 113,
      "chip": "ym2612"
    },
    {
      "channel": 4,
      "note": 48,
      "start": 13.0189,
      "duration": 0.0031,
      "velocity": 111,
      "chip": "ym2612"
    },
    {
      "channel": 2,
      "note": 71,
      "start": 13.0208,
      "duration": 0.001,
      "velocity": 111,
      "chip": "ym2612"
    },
    {
      "channel": 0,
      "note": 49,
      "start": 13.0218,
      "duration": 0.0024,
      "velocity": 115,
      "chip": "ym2612"
    },
    {
      "channel": 2,
      "note": 74,
      "start": 13.022,
      "duration": 0.0011,
      "velocity": 111,
      "chip": "ym2612"
    },
    {
      "channel": 4,
      "note": 49,
      "start": 13.0222,
      "duration": 0.0026,
      "velocity": 111,
      "chip": "ym2612"
    },
    {
      "channel": 2,
      "note": 72,
      "start": 13.0233,
      "duration": 0.0013,
      "velocity": 111,
      "chip": "ym2612"
    },
    {
      "channel": 0,
      "note": 47,
      "start": 13.0245,
      "duration": 0.0026,
      "velocity": 115,
      "chip": "ym2612"
    },
    {
      "channel": 2,
      "note": 78,
      "start": 13.0247,
      "duration": 0.0015,
      "velocity": 111,
      "chip": "ym2612"
    },
    {
      "channel": 4,
      "note": 47,
      "start": 13.025,
      "duration": 0.0027,
      "velocity": 111,
      "chip": "ym2612"
    },
    {
      "channel": 2,
      "note": 71,
      "start": 13.0264,
      "duration": 0.0008,
      "velocity": 111,
      "chip": "ym2612"
    },
    {
      "channel": 0,
      "note": 46,
      "start": 13.0272,
      "duration": 0.0022,
      "velocity": 115,
      "chip": "ym2612"
    },
    {
      "channel": 2,
      "note": 74,
      "start": 13.0275,
      "duration": 0.001,
      "velocity": 111,
      "chip": "ym2612"
    },
    {
      "channel": 4,
      "note": 46,
      "start": 13.0279,
      "duration": 0.0021,
      "velocity": 111,
      "chip": "ym2612"
    },
    {
      "channel": 2,
      "note": 73,
      "start": 13.0288,
      "duration": 0.0009,
      "velocity": 111,
      "chip": "ym2612"
    },
    {
      "channel": 0,
      "note": 44,
      "start": 13.0296,
      "duration": 0.0035,
      "velocity": 115,
      "chip": "ym2612"
    },
    {
      "channel": 2,
      "note": 76,
      "start": 13.0299,
      "duration": 0.0022,
      "velocity": 111,
      "chip": "ym2612"
    },
    {
      "channel": 4,
      "note": 44,
      "start": 13.0302,
      "duration": 0.0033,
      "velocity": 111,
      "chip": "ym2612"
    },
    {
      "channel": 2,
      "note": 77,
      "start": 13.0322,
      "duration": 0.0011,
      "velocity": 111,
      "chip": "ym2612"
    },
    {
      "channel": 0,
      "note": 48,
      "start": 13.0333,
      "duration": 0.0023,
      "velocity": 115,
      "chip": "ym2612"
    },
    {
      "channel": 2,
      "note": 75,
      "start": 13.0335,
      "duration": 0.001,
      "velocity": 111,
      "chip": "ym2612"
    },
    {
      "channel": 4,
      "note": 48,
      "start": 13.0337,
      "duration": 0.004,
      "velocity": 111,
      "chip": "ym2612"
    },
    {
      "channel": 2,
      "note": 73,
      "start": 13.0346,
      "duration": 0.0027,
      "velocity": 109,
      "chip": "ym2612"
    },
    {
      "channel": 0,
      "note": 43,
      "start": 13.0357,
      "duration": 0.0047,
      "velocity": 115,
      "chip": "ym2612"
    },
    {
      "channel": 1,
      "note": 81,
      "start": 13.0366,
      "duration": 0.0227,
      "velocity": 114,
      "chip": "ym2612"
    },
    {
      "channel": 2,
      "note": 63,
      "start": 13.0377,
      "duration": 0.002,
      "velocity": 109,
      "chip": "ym2612"
    },
    {
      "channel": 4,
      "note": 43,
      "start": 13.038,
      "duration": 0.0028,
      "velocity": 111,
      "chip": "ym2612"
    },
    {
      "channel": 2,
      "note": 64,
      "start": 13.0399,
      "duration": 0.0008,
      "velocity": 109,
      "chip": "ym2612"
    },
    {
      "channel": 0,
      "note": 47,
      "start": 13.0406,
      "duration": 0.0017,
      "velocity": 115,
      "chip": "ym2612"
    },
    {
      "channel": 2,
      "note": 66,
      "start": 13.0408,
      "duration": 0.0009,
      "velocity": 109,
      "chip": "ym2612"
    },
    {
      "channel": 4,
      "note": 47,
      "start": 13.0411,
      "duration": 0.003,
      "velocity": 111,
      "chip": "ym2612"
    },
    {
      "channel": 2,
      "note": 64,
      "start": 13.0418,
      "duration": 0.0008,
      "velocity": 109,
      "chip": "ym2612"
    },
    {
      "channel": 0,
      "note": 48,
      "start": 13.0425,
      "duration": 0.0041,
      "velocity": 115,
      "chip": "ym2612"
    },
    {
      "channel": 2,
      "note": 66,
      "start": 13.0429,
      "duration": 0.0031,
      "velocity": 109,
      "chip": "ym2612"
    },
    {
      "channel": 3,
      "note": 81,
      "start": 13.044,
      "duration": 0.0241,
      "velocity": 114,
      "chip": "ym2612"
    },
    {
      "channel": 4,
      "note": 48,
      "start": 13.0443,
      "duration": 0.0028,
      "velocity": 111,
      "chip": "ym2612"
    },
    {
      "channel": 2,
      "note": 64,
      "start": 13.0461,
      "duration": 0.0007,
      "velocity": 109,
      "chip": "ym2612"
    },
    {
      "channel": 0,
      "note": 49,
      "start": 13.0468,
      "duration": 0.0018,
      "velocity": 115,
      "chip": "ym2612"
    },
    {
      "channel": 2,
      "note": 61,
      "start": 13.047,
      "duration": 0.0008,
      "velocity": 109,
      "chip": "ym2612"
    },
    {
      "channel": 4,
      "note": 49,
      "start": 13.0472,
      "duration": 0.0017,
      "velocity": 111,
      "chip": "ym2612"
    },
    {
      "channel": 2,
      "note": 63,
      "start": 13.0479,
      "duration": 0.0009,
      "velocity": 109,
      "chip": "ym2612"
    },
    {
      "channel": 0,
      "note": 47,
      "start": 13.0487,
      "duration": 0.002,
      "velocity": 115,
      "chip": "ym2612"
    },
    {
      "channel": 2,
      "note": 62,
      "start": 13.0489,
      "duration": 0.001,
      "velocity": 109,
      "chip": "ym2612"
    },
    {
      "channel": 4,
      "note": 47,
      "start": 13.0492,
      "duration": 0.002,
      "velocity": 111,
      "chip": "ym2612"
    },
    {
      "channel": 2,
      "note": 65,
      "start": 13.0501,
      "duration": 0.0008,
      "velocity": 109,
      "chip": "ym2612"
    },
    {
      "channel": 0,
      "note": 51,
      "start": 13.0509,
      "duration": 0.0016,
      "velocity": 115,
      "chip": "ym2612"
    },
    {
      "channel": 2,
      "note": 66,
      "start": 13.0511,
      "duration": 0.0007,
      "velocity": 109,
      "chip": "ym2612"
    },
    {
      "channel": 4,
      "note": 51,
      "start": 13.0514,
      "duration": 0.0017,
      "velocity": 111,
      "chip": "ym2612"
    },
    {
      "channel": 2,
      "note": 67,
      "start": 13.052,
      "duration": 0.0008,
      "velocity": 109,
      "chip": "ym2612"
    },
    {
      "channel": 0,
      "note": 49,
      "start": 13.0527,
      "duration": 0.0031,
      "velocity": 115,
      "chip": "ym2612"
    },
    {
      "channel": 2,
      "note": 65,
      "start": 13.053,
      "duration": 0.002,
      "velocity": 109,
      "chip": "ym2612"
    },
    {
      "channel": 4,
      "note": 49,
      "start": 13.0534,
      "duration": 0.0029,
      "velocity": 111,
      "chip": "ym2612"
    },
    {
      "channel": 2,
      "note": 67,
      "start": 13.0552,
      "duration": 0.0007,
      "velocity": 109,
      "chip": "ym2612"
    },
    {
      "channel": 0,
      "note": 47,
      "start": 13.0559,
      "duration": 0.0025,
      "velocity": 115,
      "chip": "ym2612"
    },
    {
      "channel": 2,
      "note": 66,
      "start": 13.0562,
      "duration": 0.0015,
      "velocity": 109,
      "chip": "ym2612"
    },
    {
      "channel": 4,
      "note": 47,
      "start": 13.0564,
      "duration": 0.004,
      "velocity": 111,
      "chip": "ym2612"
    },
    {
      "channel": 2,
      "note": 67,
      "start": 13.0578,
      "duration": 0.0024,
      "velocity": 111,
      "chip": "ym2612"
    },
    {
      "channel": 0,
      "note": 43,
      "start": 13.0586,
      "duration": 0.0042,
      "velocity": 115,
      "chip": "ym2612"
    },
    {
      "channel": 1,
      "note": 84,
      "start": 13.0595,
      "duration": 0.0257,
      "velocity": 113,
      "chip": "ym2612"
    },
    {
      "channel": 2,
      "note": 75,
      "start": 13.0603,
      "duration": 0.001,
      "velocity": 111,
      "chip": "ym2612"
    },
    {
      "channel": 4,
      "note": 43,
      "start": 13.0606,
      "duration": 0.0029,
      "velocity": 111,
      "chip": "ym2612"
    },
    {
      "channel": 2,
      "note": 71,
      "start": 13.0615,
      "duration": 0.0017,
      "velocity": 111,
      "chip": "ym2612"
    },
    {
      "channel": 0,
      "note": 47,
      "start": 13.0631,
      "duration": 0.0036,
      "velocity": 115,
      "chip": "ym2612"
    },
    {
      "channel": 2,
      "note": 72,
      "start": 13.0634,
      "duration": 0.0023,
      "velocity": 111,
      "chip": "ym2612"
    },
    {
      "channel": 4,
      "note": 47,
      "start": 13.0638,
      "duration": 0.0045,
      "velocity": 111,
      "chip": "ym2612"
    },
    {
      "channel": 2,
      "note": 73,
      "start": 13.0659,
      "duration": 0.0011,
      "velocity": 111,
      "chip": "ym2612"
    },
    {
      "channel": 0,
      "note": 48,
      "start": 13.0669,
      "duration": 0.0043,
      "velocity": 115,
      "chip": "ym2612"
    },
    {
      "channel": 2,
      "note": 75,
      "start": 13.0672,
      "duration": 0.0029,
      "velocity": 111,
      "chip": "ym2612"
    },
    {
      "channel": 3,
      "note": 84,
      "start": 13.0682,
      "duration": 0.0243,
      "velocity": 113,
      "chip": "ym2612"
    },
    {
      "channel": 4,
      "note": 48,
      "start": 13.0684,
      "duration": 0.0031,
      "velocity": 111,
      "chip": "ym2612"
    },
    {
      "channel": 2,
      "note": 70,
      "start": 13.0703,
      "duration": 0.001,
      "velocity": 111,
      "chip": "ym2612"
    },
    {
      "channel": 0,
      "note": 49,
      "start": 13.0712,
      "duration": 0.0024,
      "velocity": 115,
      "chip": "ym2612"
    },
    {
      "channel": 2,
      "note": 74,
      "start": 13.0715,
      "duration": 0.001,
      "velocity": 111,
      "chip": "ym2612"
    },
    {
      "channel": 4,
      "note": 49,
      "start": 13.0717,
      "duration": 0.0024,
      "velocity": 111,
      "chip": "ym2612"
    },
    {
      "channel": 2,
      "note": 72,
      "start": 13.0727,
      "duration": 0.0012,
      "velocity": 111,
      "chip": "ym2612"
    },
    {
      "channel": 0,
      "note": 47,
      "start": 13.0738,
      "duration": 0.0023,
      "velocity": 115,
      "chip": "ym2612"
    },
    {
      "channel": 2,
      "note": 78,
      "start": 13.074,
      "duration": 0.0013,
      "velocity": 111,
      "chip": "ym2612"
    },
    {
      "channel": 4,
      "note": 47,
      "start": 13.0743,
      "duration": 0.0023,
      "velocity": 111,
      "chip": "ym2612"
    },
    {
      "channel": 2,
      "note": 71,
      "start": 13.0754,
      "duration": 0.001,
      "velocity": 111,
      "chip": "ym2612"
    },
    {
      "channel": 0,
      "note": 46,
      "start": 13.0763,
      "duration": 0.002,
      "velocity": 115,
      "chip": "ym2612"
    },
    {
      "channel": 2,
      "note": 74,
      "start": 13.0765,
      "duration": 0.0007,
      "velocity": 111,
      "chip": "ym2612"
    },
    {
      "channel": 4,
      "note": 46,
      "start": 13.0768,
      "duration": 0.002,
      "velocity": 111,
      "chip": "ym2612"
    },
    {
      "channel": 2,
      "note": 73,
      "start": 13.0774,
      "duration": 0.0011,
      "velocity": 111,
      "chip": "ym2612"
    },
    {
      "channel": 0,
      "note": 44,
      "start": 13.0784,
      "duration": 0.0033,
      "velocity": 115,
      "chip": "ym2612"
    },
    {
      "channel": 2,
      "note": 76,
      "start": 13.0787,
      "duration": 0.0022,
      "velocity": 111,
      "chip": "ym2612"
    },
    {
      "channel": 4,
      "note": 44,
      "start": 13.079,
      "duration": 0.0032,
      "velocity": 111,
      "chip": "ym2612"
    },
    {
      "channel": 2,
      "note": 73,
      "start": 13.081,
      "duration": 0.001,
      "velocity": 111,
      "chip": "ym2612"
    },
    {
      "channel": 0,
      "note": 48,
      "start": 13.0819,
      "duration": 0.0025,
      "velocity": 115,
      "chip": "ym2612"
    },
    {
      "channel": 2,
      "note": 75,
      "start": 13.0821,
      "duration": 0.0012,
      "velocity": 111,
      "chip": "ym2612"
    },
    {
      "channel": 4,
      "note": 48,
      "start": 13.0824,
      "duration": 0.0041,
      "velocity": 111,
      "chip": "ym2612"
    },
    {
      "channel": 2,
      "note": 72,
      "start": 13.0834,
      "duration": 0.0027,
      "velocity": 109,
      "chip": "ym2612"
    },
    {
      "channel": 0,
      "note": 43,
      "start": 13.0845,
      "duration": 0.0046,
      "velocity": 115,
      "chip": "ym2612"
    },
    {
      "channel": 1,
      "note": 79,
      "start": 13.0854,
      "duration": 0.0218,
      "velocity": 114,
      "chip": "ym2612"
    },
    {
      "channel": 2,
      "note": 68,
      "start": 13.0865,
      "duration": 0.0021,
      "velocity": 109,
      "chip": "ym2612"
    },
    {
      "channel": 4,
      "note": 43,
      "start": 13.0868,
      "duration": 0.0027,
      "velocity": 111,
      "chip": "ym2612"
    },
    {
      "channel": 2,
      "note": 64,
      "start": 13.0887,
      "duration": 0.0007,
      "velocity": 109,
      "chip": "ym2612"
    },
    {
      "channel": 0,
      "note": 47,
      "start": 13.0893,
      "duration": 0.0017,
      "velocity": 115,
      "chip": "ym2612"
    },
    {
      "channel": 2,
      "note": 61,
      "start": 13.0894,
      "duration": 0.0008,
      "velocity": 109,
      "chip": "ym2612"
    },
    {
      "channel": 4,
      "note": 47,
      "start": 13.0897,
      "duration": 0.003,
      "velocity": 111,
      "chip": "ym2612"
    },
    {
      "channel": 2,
      "note": 66,
      "start": 13.0904,
      "duration": 0.001,
      "velocity": 109,
      "chip": "ym2612"
    },
    {
      "channel": 0,
      "note": 48,
      "start": 13.0912,
      "duration": 0.0041,
      "velocity": 115,
      "chip": "ym2612"
    },
    {
      "channel": 2,
      "note": 62,
      "start": 13.0916,
      "duration": 0.003,
      "velocity": 109,
      "chip": "ym2612"
    },
    {
      "channel": 3,
      "note": 79,
      "start": 13.0927,
      "duration": 0.0227,
      "velocity": 114,
      "chip": "ym2612"
    },
    {
      "channel": 4,
      "note": 48,
      "start": 13.0929,
      "duration": 0.0028,
      "velocity": 111,
      "chip": "ym2612"
    },
    {
      "channel": 2,
      "note": 64,
      "start": 13.0947,
      "duration": 0.0007,
      "velocity": 109,
      "chip": "ym2612"
    },
    {
      "channel": 0,
      "note": 49,
      "start": 13.0954,
      "duration": 0.0019,
      "velocity": 115,
      "chip": "ym2612"
    },
    {
      "channel": 2,
      "note": 66,
      "start": 13.0956,
      "duration": 0.0008,
      "velocity": 109,
      "chip": "ym2612"
    },
    {
      "channel": 4,
      "note": 49,
      "start": 13.096,
      "duration": 0.0018,
      "velocity": 111,
      "chip": "ym2612"
    },
    {
      "channel": 2,
      "note": 63,
      "start": 13.0966,
      "duration": 0.001,
      "velocity": 109,
      "chip": "ym2612"
    },
    {
      "channel": 0,
      "note": 47,
      "start": 13.0975,
      "duration": 0.0022,
      "velocity": 115,
      "chip": "ym2612"
    },
    {
      "channel": 2,
      "note": 67,
      "start": 13.0977,
      "duration": 0.0014,
      "velocity": 109,
      "chip": "ym2612"
    },
    {
      "channel": 4,
      "note": 47,
      "start": 13.098,
      "duration": 0.0022,
      "velocity": 111,
      "chip": "ym2612"
    },
    {
      "channel": 2,
      "note": 65,
      "start": 13.0992,
      "duration": 0.0007,
      "velocity": 109,
      "chip": "ym2612"
    },
    {
      "channel": 0,
      "note": 49,
      "start": 13.0998,
      "duration": 0.0015,
      "velocity": 115,
      "chip": "ym2612"
    },
    {
      "channel": 2,
      "note": 66,
      "start": 13.1001,
      "duration": 0.0006,
      "velocity": 109,
      "chip": "ym2612"
    },
    {
      "channel": 4,
      "note": 49,
      "start": 13.1003,
      "duration": 0.0014,
      "velocity": 111,
      "chip": "ym2612"
    },
    {
      "channel": 2,
      "note": 67,
      "start": 13.1009,
      "duration": 0.0007,
      "velocity": 109,
      "chip": "ym2612"
    },
    {
      "channel": 0,
      "note": 44,
      "start": 13.1015,
      "duration": 0.0029,
      "velocity": 115,
      "chip": "ym2612"
    },
    {
      "channel": 2,
      "note": 65,
      "start": 13.1017,
      "duration": 0.0021,
      "velocity": 109,
      "chip": "ym2612"
    },
    {
      "channel": 4,
      "note": 44,
      "start": 13.102,
      "duration": 0.0028,
      "velocity": 111,
      "chip": "ym2612"
    },
    {
      "channel": 2,
      "note": 64,
      "start": 13.1039,
      "duration": 0.0007,
      "velocity": 109,
      "chip": "ym2612"
    },
    {
      "channel": 0,
      "note": 48,
      "start": 13.1045,
      "duration": 0.0018,
      "velocity": 115,
      "chip": "ym2612"
    },
    {
      "channel": 2,
      "note": 66,
      "start": 13.1047,
      "duration": 0.0009,
      "velocity": 109,
      "chip": "ym2612"
    },
    {
      "channel": 4,
      "note": 48,
      "start": 13.105,
      "duration": 0.0035,
      "velocity": 111,
      "chip": "ym2612"
    },
    {
      "channel": 2,
      "note": 67,
      "start": 13.1057,
      "duration": 0.0025,
      "velocity": 111,
      "chip": "ym2612"
    },
    {
      "channel": 0,
      "note": 43,
      "start": 13.1065,
      "duration": 0.0054,
      "velocity": 115,
      "chip": "ym2612"
    },
    {
      "channel": 1,
      "note": 85,
      "start": 13.1074,
      "duration": 0.0259,
      "velocity": 113,
      "chip": "ym2612"
    },
    {
      "channel": 2,
      "note": 76,
      "start": 13.1084,
      "duration": 0.0023,
      "velocity": 111,
      "chip": "ym2612"
    },
    {
      "channel": 4,
      "note": 43,
      "start": 13.1088,
      "duration": 0.0035,
      "velocity": 111,
      "chip": "ym2612"
    },
    {
      "channel": 2,
      "note": 74,
      "start": 13.111,
      "duration": 0.0012,
      "velocity": 111,
      "chip": "ym2612"
    },
    {
      "channel": 0,
      "note": 47,
      "start": 13.1121,
      "duration": 0.0019,
      "velocity": 115,
      "chip": "ym2612"
    },
    {
      "channel": 2,
      "note": 72,
      "start": 13.1122,
      "duration": 0.001,
      "velocity": 111,
      "chip": "ym2612"
    },
    {
      "channel": 4,
      "note": 47,
      "start": 13.1125,
      "duration": 0.0033,
      "velocity": 111,
      "chip": "ym2612"
    },
    {
      "channel": 2,
      "note": 73,
      "start": 13.1134,
      "duration": 0.0009,
      "velocity": 111,
      "chip": "ym2612"
    },
    {
      "channel": 0,
      "note": 48,
      "start": 13.1142,
      "duration": 0.0043,
      "velocity": 115,
      "chip": "ym2612"
    },
    {
      "channel": 2,
      "note": 77,
      "start": 13.1146,
      "duration": 0.0032,
      "velocity": 111,
      "chip": "ym2612"
    },
    {
      "channel": 3,
      "note": 85,
      "start": 13.1156,
      "duration": 0.025,
      "velocity": 113,
      "chip": "ym2612"
    },
    {
      "channel": 4,
      "note": 48,
      "start": 13.1159,
      "duration": 0.003,
      "velocity": 111,
      "chip": "ym2612"
    },
    {
      "channel": 2,
      "note": 71,
      "start": 13.1179,
      "duration": 0.0008,
      "velocity": 111,
      "chip": "ym2612"
    },
    {
      "channel": 0,
      "note": 49,
      "start": 13.1187,
      "duration": 0.0019,
      "velocity": 115,
      "chip": "ym2612"
    },
    {
      "channel": 2,
      "note": 74,
      "start": 13.1188,
      "duration": 0.001,
      "velocity": 111,
      "chip": "ym2612"
    },
    {
      "channel": 4,
      "note": 49,
      "start": 13.1191,
      "duration": 0.002,
      "velocity": 111,
      "chip": "ym2612"
    },
    {
      "channel": 2,
      "note": 72,
      "start": 13.12,
      "duration": 0.0009,
      "velocity": 111,
      "chip": "ym2612"
    },
    {
      "channel": 0,
      "note": 47,
      "start": 13.1207,
      "duration": 0.0031,
      "velocity": 115,
      "chip": "ym2612"
    },
    {
      "channel": 2,
      "note": 78,
      "start": 13.121,
      "duration": 0.0018,
      "velocity": 111,
      "chip": "ym2612"
    },
    {
      "channel": 4,
      "note": 47,
      "start": 13.1213,
      "duration": 0.003,
      "velocity": 111,
      "chip": "ym2612"
    },
    {
      "channel": 2,
      "note": 71,
      "start": 13.123,
      "duration": 0.0011,
      "velocity": 111,
      "chip": "ym2612"
    },
    {
      "channel": 0,
      "note": 46,
      "start": 13.1241,
      "duration": 0.0021,
      "velocity": 115,
      "chip": "ym2612"
    },
    {
      "channel": 2,
      "note": 74,
      "start": 13.1242,
      "duration": 0.001,
      "velocity": 111,
      "chip": "ym2612"
    },
    {
      "channel": 4,
      "note": 46,
      "start": 13.1245,
      "duration": 0.0024,
      "velocity": 111,
      "chip": "ym2612"
    },
    {
      "channel": 2,
      "note": 73,
      "start": 13.1254,
      "duration": 0.0012,
      "velocity": 111,
      "chip": "ym2612"
    },
    {
      "channel": 0,
      "note": 44,
      "start": 13.1264,
      "duration": 0.0034,
      "velocity": 115,
      "chip": "ym2612"
    },
    {
      "channel": 2,
      "note": 76,
      "start": 13.1267,
      "duration": 0.0022,
      "velocity": 111,
      "chip": "ym2612"
    },
    {
      "channel": 4,
      "note": 44,
      "start": 13.1271,
      "duration": 0.0034,
      "velocity": 111,
      "chip": "ym2612"
    },
    {
      "channel": 2,
      "note": 77,
      "start": 13.1291,
      "duration": 0.001,
      "velocity": 111,
      "chip": "ym2612"
    },
    {
      "channel": 0,
      "note": 48,
      "start": 13.1301,
      "duration": 0.0024,
      "velocity": 115,
      "chip": "ym2612"
    },
    {
      "channel": 2,
      "note": 75,
      "start": 13.1304,
      "duration": 0.0012,
      "velocity": 111,
      "chip": "ym2612"
    },
    {
      "channel": 4,
      "note": 48,
      "start": 13.1307,
      "duration": 0.0039,
      "velocity": 111,
      "chip": "ym2612"
    },
    {
      "channel": 2,
      "note": 73,
      "start": 13.1318,
      "duration": 0.0026,
      "velocity": 109,
      "chip": "ym2612"
    },
    {
      "channel": 0,
      "note": 43,
      "start": 13.1327,
      "duration": 0.0047,
      "velocity": 115,
      "chip": "ym2612"
    },
    {
      "channel": 1,
      "note": 81,
      "start": 13.1336,
      "duration": 0.0226,
      "velocity": 114,
      "chip": "ym2612"
    },
    {
      "channel": 2,
      "note": 63,
      "start": 13.1346,
      "duration": 0.002,
      "velocity": 109,
      "chip": "ym2612"
    },
    {
      "channel": 4,
      "note": 43,
      "start": 13.1349,
      "duration": 0.0028,
      "velocity": 111,
      "chip": "ym2612"
    },
    {
      "channel": 2,
      "note": 64,
      "start": 13.1367,
      "duration": 0.0008,
      "velocity": 109,
      "chip": "ym2612"
    },
    {
      "channel": 0,
      "note": 47,
      "start": 13.1375,
      "duration": 0.0017,
      "velocity": 115,
      "chip": "ym2612"
    },
    {
      "channel": 2,
      "note": 66,
      "start": 13.1377,
      "duration": 0.0007,
      "velocity": 109,
      "chip": "ym2612"
    },
    {
      "channel": 4,
      "note": 47,
      "start": 13.1379,
      "duration": 0.0029,
      "velocity": 111,
      "chip": "ym2612"
    },
    {
      "channel": 2,
      "note": 64,
      "start": 13.1386,
      "duration": 0.0009,
      "velocity": 109,
      "chip": "ym2612"
    },
    {
      "channel": 0,
      "note": 48,
      "start": 13.1394,
      "duration": 0.0041,
      "velocity": 115,
      "chip": "ym2612"
    },
    {
      "channel": 2,
      "note": 66,
      "start": 13.1397,
      "duration": 0.003,
      "velocity": 109,
      "chip": "ym2612"
    },
    {
      "channel": 3,
      "note": 81,
      "start": 13.1408,
      "duration": 0.0236,
      "velocity": 114,
      "chip": "ym2612"
    },
    {
      "channel": 4,
      "note": 48,
      "start": 13.1411,
      "duration": 0.0028,
      "velocity": 111,
      "chip": "ym2612"
    },
    {
      "channel": 2,
      "note": 64,
      "start": 13.1429,
      "duration": 0.0008,
      "velocity": 109,
      "chip": "ym2612"
    },
    {
      "channel": 0,
      "note": 49,
      "start": 13.1436,
      "duration": 0.0018,
      "velocity": 115,
      "chip": "ym2612"
    },
    {
      "channel": 2,
      "note": 61,
      "start": 13.1439,
      "duration": 0.0007,
      "velocity": 109,
      "chip": "ym2612"
    },
    {
      "channel": 4,
      "note": 49,
      "start": 13.1441,
      "duration": 0.0018,
      "velocity": 111,
      "chip": "ym2612"
    },
    {
      "channel": 2,
      "note": 63,
      "start": 13.1448,
      "duration": 0.0009,
      "velocity": 109,
      "chip": "ym2612"
    },
    {
      "channel": 0,
      "note": 47,
      "start": 13.1456,
      "duration": 0.0023,
      "velocity": 115,
      "chip": "ym2612"
    },
    {
      "channel": 2,
      "note": 62,
      "start": 13.1458,
      "duration": 0.0015,
      "velocity": 109,
      "chip": "ym2612"
    },
    {
      "channel": 4,
      "note": 47,
      "start": 13.1461,
      "duration": 0.0023,
      "velocity": 111,
      "chip": "ym2612"
    },
    {
      "channel": 2,
      "note": 65,
      "start": 13.1475,
      "duration": 0.0006,
      "velocity": 109,
      "chip": "ym2612"
    },
    {
      "channel": 0,
      "note": 51,
      "start": 13.1481,
      "duration": 0.0016,
      "velocity": 115,
      "chip": "ym2612"
    },
    {
      "channel": 2,
      "note": 66,
      "start": 13.1483,
      "duration": 0.0008,
      "velocity": 109,
      "chip": "ym2612"
    },
    {
      "channel": 4,
      "note": 51,
      "start": 13.1485,
      "duration": 0.0016,
      "velocity": 111,
      "chip": "ym2612"
    },
    {
      "channel": 2,
      "note": 67,
      "start": 13.1491,
      "duration": 0.0008,
      "velocity": 109,
      "chip": "ym2612"
    },
    {
      "channel": 0,
      "note": 49,
      "start": 13.1499,
      "duration": 0.0028,
      "velocity": 115,
      "chip": "ym2612"
    },
    {
      "channel": 2,
      "note": 65,
      "start": 13.15,
      "duration": 0.002,
      "velocity": 109,
      "chip": "ym2612"
    },
    {
      "channel": 4,
      "note": 49,
      "start": 13.1504,
      "duration": 0.0027,
      "velocity": 111,
      "chip": "ym2612"
    },
    {
      "channel": 2,
      "note": 67,
      "start": 13.1522,
      "duration": 0.0008,
      "velocity": 109,
      "chip": "ym2612"
    },
    {
      "channel": 0,
      "note": 47,
      "start": 13.1529,
      "duration": 0.0023,
      "velocity": 115,
      "chip": "ym2612"
    },
    {
      "channel": 2,
      "note": 66,
      "start": 13.1531,
      "duration": 0.0014,
      "velocity": 109,
      "chip": "ym2612"
    },
    {
      "channel": 4,
      "note": 47,
      "start": 13.1533,
      "duration": 0.0039,
      "velocity": 111,
      "chip": "ym2612"
    },
    {
      "channel": 2,
      "note": 67,
      "start": 13.1546,
      "duration": 0.0024,
      "velocity": 111,
      "chip": "ym2612"
    },
    {
      "channel": 0,
      "note": 43,
      "start": 13.1554,
      "duration": 0.0052,
      "velocity": 115,
      "chip": "ym2612"
    },
    {
      "channel": 1,
      "note": 84,
      "start": 13.1563,
      "duration": 0.0255,
      "velocity": 113,
      "chip": "ym2612"
    },
    {
      "channel": 2,
      "note": 75,
      "start": 13.1571,
      "duration": 0.0024,
      "velocity": 111,
      "chip": "ym2612"
    },
    {
      "channel": 4,
      "note": 43,
      "start": 13.1575,
      "duration": 0.0036,
      "velocity": 111,
      "chip": "ym2612"
    },
    {
      "channel": 2,
      "note": 71,
      "start": 13.1597,
      "duration": 0.0012,
      "velocity": 111,
      "chip": "ym2612"
    },
    {
      "channel": 0,
      "note": 47,
      "start": 13.1608,
      "duration": 0.0021,
      "velocity": 115,
      "chip": "ym2612"
    },
    {
      "channel": 2,
      "note": 72,
      "start": 13.161,
      "duration": 0.001,
      "velocity": 111,
      "chip": "ym2612"
    },
    {
      "channel": 4,
      "note": 47,
      "start": 13.1613,
      "duration": 0.0034,
      "velocity": 111,
      "chip": "ym2612"
    },
    {
      "channel": 2,
      "note": 73,
      "start": 13.1621,
      "duration": 0.0011,
      "velocity": 111,
      "chip": "ym2612"
    },
    {
      "channel": 0,
      "note": 48,
      "start": 13.1632,
      "duration": 0.0043,
      "velocity": 115,
      "chip": "ym2612"
    },
    {
      "channel": 2,
      "note": 75,
      "start": 13.1634,
      "duration": 0.0033,
      "velocity": 111,
      "chip": "ym2612"
    },
    {
      "channel": 3,
      "note": 84,
      "start": 13.1646,
      "duration": 0.0244,
      "velocity": 113,
      "chip": "ym2612"
    },
    {
      "channel": 4,
      "note": 48,
      "start": 13.1649,
      "duration": 0.003,
      "velocity": 111,
      "chip": "ym2612"
    },
    {
      "channel": 2,
      "note": 70,
      "start": 13.1668,
      "duration": 0.001,
      "velocity": 111,
      "chip": "ym2612"
    },
    {
      "channel": 0,
      "note": 49,
      "start": 13.1676,
      "duration": 0.002,
      "velocity": 115,
      "chip": "ym2612"
    },
    {
      "channel": 2,
      "note": 74,
      "start": 13.1679,
      "duration": 0.0008,
      "velocity": 111,
      "chip": "ym2612"
    },
    {
      "channel": 4,
      "note": 49,
      "start": 13.1681,
      "duration": 0.0018,
      "velocity": 111,
      "chip": "ym2612"
    },
    {
      "channel": 2,
      "note": 72,
      "start": 13.169,
      "duration": 0.0008,
      "velocity": 111,
      "chip": "ym2612"
    },
    {
      "channel": 0,
      "note": 47,
      "start": 13.1697,
      "duration": 0.0026,
      "velocity": 115,
      "chip": "ym2612"
    },
    {
      "channel": 2,
      "note": 78,
      "start": 13.1699,
      "duration": 0.0016,
      "velocity": 111,
      "chip": "ym2612"
    },
    {
      "channel": 4,
      "note": 47,
      "start": 13.1701,
      "duration": 0.0027,
      "velocity": 111,
      "chip": "ym2612"
    },
    {
      "channel": 2,
      "note": 71,
      "start": 13.1716,
      "duration": 0.001,
      "velocity": 111,
      "chip": "ym2612"
    },
    {
      "channel": 0,
      "note": 46,
      "start": 13.1725,
      "duration": 0.0021,
      "velocity": 115,
      "chip": "ym2612"
    },
    {
      "channel": 2,
      "note": 74,
      "start": 13.1727,
      "duration": 0.0009,
      "velocity": 111,
      "chip": "ym2612"
    },
    {
      "channel": 4,
      "note": 46,
      "start": 13.1729,
      "duration": 0.0024,
      "velocity": 111,
      "chip": "ym2612"
    },
    {
      "channel": 2,
      "note": 73,
      "start": 13.1738,
      "duration": 0.0012,
      "velocity": 111,
      "chip": "ym2612"
    },
    {
      "channel": 0,
      "note": 44,
      "start": 13.1749,
      "duration": 0.0035,
      "velocity": 115,
      "chip": "ym2612"
    },
    {
      "channel": 2,
      "note": 76,
      "start": 13.1751,
      "duration": 0.0022,
      "velocity": 111,
      "chip": "ym2612"
    },
    {
      "channel": 4,
      "note": 44,
      "start": 13.1755,
      "duration": 0.0035,
      "velocity": 111,
      "chip": "ym2612"
    },
    {
      "channel": 2,
      "note": 73,
      "start": 13.1775,
      "duration": 0.0011,
      "velocity": 111,
      "chip": "ym2612"
    },
    {
      "channel": 0,
      "note": 48,
      "start": 13.1785,
      "duration": 0.0024,
      "velocity": 115,
      "chip": "ym2612"
    },
    {
      "channel": 2,
      "note": 75,
      "start": 13.1788,
      "duration": 0.0012,
      "velocity": 111,
      "chip": "ym2612"
    },
    {
      "channel": 4,
      "note": 48,
      "start": 13.1792,
      "duration": 0.0039,
      "velocity": 111,
      "chip": "ym2612"
    },
    {
      "channel": 2,
      "note": 72,
      "start": 13.1802,
      "duration": 0.0026,
      "velocity": 109,
      "chip": "ym2612"
    },
    {
      "channel": 0,
      "note": 43,
      "start": 13.1811,
      "duration": 0.0047,
      "velocity": 115,
      "chip": "ym2612"
    },
    {
      "channel": 1,
      "note": 79,
      "start": 13.1821,
      "duration": 0.022,
      "velocity": 114,
      "chip": "ym2612"
    },
    {
      "channel": 2,
      "note": 68,
      "start": 13.1831,
      "duration": 0.002,
      "velocity": 109,
      "chip": "ym2612"
    },
    {
      "channel": 4,
      "note": 43,
      "start": 13.1834,
      "duration": 0.0028,
      "velocity": 111,
      "chip": "ym2612"
    },
    {
      "channel": 2,
      "note": 64,
      "start": 13.1852,
      "duration": 0.0008,
      "velocity": 109,
      "chip": "ym2612"
    },
    {
      "channel": 0,
      "note": 47,
      "start": 13.1859,
      "duration": 0.0017,
      "velocity": 115,
      "chip": "ym2612"
    },
    {
      "channel": 2,
      "note": 61,
      "start": 13.1861,
      "duration": 0.0007,
      "velocity": 109,
      "chip": "ym2612"
    },
    {
      "channel": 4,
      "note": 47,
      "start": 13.1863,
      "duration": 0.0029,
      "velocity": 111,
      "chip": "ym2612"
    },
    {
      "channel": 2,
      "note": 66,
      "start": 13.1871,
      "duration": 0.0009,
      "velocity": 109,
      "chip": "ym2612"
    },
    {
      "channel": 0,
      "note": 48,
      "start": 13.1878,
      "duration": 0.0041,
      "velocity": 115,
      "chip": "ym2612"
    },
    {
      "channel": 2,
      "note": 62,
      "start": 13.1881,
      "duration": 0.003,
      "velocity": 109,
      "chip": "ym2612"
    },
    {
      "channel": 3,
      "note": 79,
      "start": 13.1892,
      "duration": 0.0233,
      "velocity": 114,
      "chip": "ym2612"
    },
    {
      "channel": 4,
      "note": 48,
      "start": 13.1895,
      "duration": 0.0028,
      "velocity": 111,
      "chip": "ym2612"
    },
    {
      "channel": 2,
      "note": 64,
      "start": 13.1913,
      "duration": 0.0008,
      "velocity": 109,
      "chip": "ym2612"
    },
    {
      "channel": 0,
      "note": 49,
      "start": 13.1921,
      "duration": 0.0018,
      "velocity": 115,
      "chip": "ym2612"
    },
    {
      "channel": 2,
      "note": 66,
      "start": 13.1923,
      "duration": 0.0007,
      "velocity": 109,
      "chip": "ym2612"
    },
    {
      "channel": 4,
      "note": 49,
      "start": 13.1925,
      "duration": 0.0018,
      "velocity": 111,
      "chip": "ym2612"
    },
    {
      "channel": 2,
      "note": 63,
      "start": 13.1932,
      "duration": 0.0009,
      "velocity": 109,
      "chip": "ym2612"
    },
    {
      "channel": 0,
      "note": 47,
      "start": 13.1941,
      "duration": 0.0023,
      "velocity": 115,
      "chip": "ym2612"
    },
    {
      "channel": 2,
      "note": 67,
      "start": 13.1943,
      "duration": 0.0015,
      "velocity": 109,
      "chip": "ym2612"
    },
    {
      "channel": 4,
      "note": 47,
      "start": 13.1945,
      "duration": 0.0023,
      "velocity": 111,
      "chip": "ym2612"
    },
    {
      "channel": 2,
      "note": 65,
      "start": 13.196,
      "duration": 0.0006,
      "velocity": 109,
      "chip": "ym2612"
    },
    {
      "channel": 0,
      "note": 49,
      "start": 13.1966,
      "duration": 0.0016,
      "velocity": 115,
      "chip": "ym2612"
    },
    {
      "channel": 2,
      "note": 66,
      "start": 13.1967,
      "duration": 0.0008,
      "velocity": 109,
      "chip": "ym2612"
    },
    {
      "channel": 4,
      "note": 49,
      "start": 13.197,
      "duration": 0.0017,
      "velocity": 111,
      "chip": "ym2612"
    },
    {
      "channel": 2,
      "note": 67,
      "start": 13.1976,
      "duration": 0.0008,
      "velocity": 109,
      "chip": "ym2612"
    },
    {
      "channel": 0,
      "note": 44,
      "start": 13.1983,
      "duration": 0.003,
      "velocity": 115,
      "chip": "ym2612"
    },
    {
      "channel": 2,
      "note": 65,
      "start": 13.1985,
      "duration": 0.002,
      "velocity": 109,
      "chip": "ym2612"
    },
    {
      "channel": 4,
      "note": 44,
      "start": 13.1989,
      "duration": 0.0029,
      "velocity": 111,
      "chip": "ym2612"
    },
    {
      "channel": 2,
      "note": 64,
      "start": 13.2007,
      "duration": 0.0008,
      "velocity": 109,
      "chip": "ym2612"
    },
    {
      "channel": 0,
      "note": 48,
      "start": 13.2015,
      "duration": 0.0017,
      "velocity": 115,
      "chip": "ym2612"
    },
    {
      "channel": 2,
      "note": 66,
      "start": 13.2017,
      "duration": 0.0009,
      "velocity": 109,
      "chip": "ym2612"
    },
    {
      "channel": 4,
      "note": 48,
      "start": 13.202,
      "duration": 0.0034,
      "velocity": 111,
      "chip": "ym2612"
    },
    {
      "channel": 2,
      "note": 67,
      "start": 13.2028,
      "duration": 0.0023,
      "velocity": 111,
      "chip": "ym2612"
    },
    {
      "channel": 0,
      "note": 43,
      "start": 13.2034,
      "duration": 0.0053,
      "velocity": 115,
      "chip": "ym2612"
    },
    {
      "channel": 1,
      "note": 85,
      "start": 13.2043,
      "duration": 0.0257,
      "velocity": 113,
      "chip": "ym2612"
    },
    {
      "channel": 2,
      "note": 76,
      "start": 13.2053,
      "duration": 0.0024,
      "velocity": 111,
      "chip": "ym2612"
    },
    {
      "channel": 4,
      "note": 43,
      "start": 13.2057,
      "duration": 0.0036,
      "velocity": 111,
      "chip": "ym2612"
    },
    {
      "channel": 2,
      "note": 74,
      "start": 13.2079,
      "duration": 0.001,
      "velocity": 111,
      "chip": "ym2612"
    },
    {
      "channel": 0,
      "note": 47,
      "start": 13.2089,
      "duration": 0.0022,
      "velocity": 115,
      "chip": "ym2612"
    },
    {
      "channel": 2,
      "note": 72,
      "start": 13.2092,
      "duration": 0.001,
      "velocity": 111,
      "chip": "ym2612"
    },
    {
      "channel": 4,
      "note": 47,
      "start": 13.2095,
      "duration": 0.0033,
      "velocity": 111,
      "chip": "ym2612"
    },
    {
      "channel": 2,
      "note": 73,
      "start": 13.2104,
      "duration": 0.001,
      "velocity": 111,
      "chip": "ym2612"
    },
    {
      "channel": 0,
      "note": 48,
      "start": 13.2112,
      "duration": 0.0044,
      "velocity": 115,
      "chip": "ym2612"
    },
    {
      "channel": 2,
      "note": 77,
      "start": 13.2116,
      "duration": 0.0031,
      "velocity": 111,
      "chip": "ym2612"
    },
    {
      "channel": 3,
      "note": 85,
      "start": 13.2127,
      "duration": 0.0246,
      "velocity": 113,
      "chip": "ym2612"
    },
    {
      "channel": 4,
      "note": 48,
      "start": 13.2129,
      "duration": 0.0032,
      "velocity": 111,
      "chip": "ym2612"
    },
    {
      "channel": 2,
      "note": 71,
      "start": 13.2149,
      "duration": 0.001,
      "velocity": 111,
      "chip": "ym2612"
    },
    {
      "channel": 0,
      "note": 49,
      "start": 13.2158,
      "duration": 0.0023,
      "velocity": 115,
      "chip": "ym2612"
    },
    {
      "channel": 2,
      "note": 74,
      "start": 13.216,
      "duration": 0.001,
      "velocity": 111,
      "chip": "ym2612"
    },
    {
      "channel": 4,
      "note": 49,
      "start": 13.2162,
      "duration": 0.0024,
      "velocity": 111,
      "chip": "ym2612"
    },
    {
      "channel": 2,
      "note": 72,
      "start": 13.2172,
      "duration": 0.0013,
      "velocity": 111,
      "chip": "ym2612"
    },
    {
      "channel": 0,
      "note": 47,
      "start": 13.2183,
      "duration": 0.0027,
      "velocity": 115,
      "chip": "ym2612"
    },
    {
      "channel": 2,
      "note": 78,
      "start": 13.2186,
      "duration": 0.0015,
      "velocity": 111,
      "chip": "ym2612"
    },
    {
      "channel": 4,
      "note": 47,
      "start": 13.2189,
      "duration": 0.0028,
      "velocity": 111,
      "chip": "ym2612"
    },
    {
      "channel": 2,
      "note": 71,
      "start": 13.2203,
      "duration": 0.001,
      "velocity": 111,
      "chip": "ym2612"
    },
    {
      "channel": 0,
      "note": 46,
      "start": 13.2212,
      "duration": 0.0021,
      "velocity": 115,
      "chip": "ym2612"
    },
    {
      "channel": 2,
      "note": 74,
      "start": 13.2216,
      "duration": 0.0008,
      "velocity": 111,
      "chip": "ym2612"
    },
    {
      "channel": 4,
      "note": 46,
      "start": 13.2218,
      "duration": 0.0021,
      "velocity": 111,
      "chip": "ym2612"
    },
    {
      "channel": 2,
      "note": 73,
      "start": 13.2226,
      "duration": 0.001,
      "velocity": 111,
      "chip": "ym2612"
    },
    {
      "channel": 0,
      "note": 44,
      "start": 13.2235,
      "duration": 0.0034,
      "velocity": 115,
      "chip": "ym2612"
    },
    {
      "channel": 2,
      "note": 76,
      "start": 13.2237,
      "duration": 0.0021,
      "velocity": 111,
      "chip": "ym2612"
    },
    {
      "channel": 4,
      "note": 44,
      "start": 13.2241,
      "duration": 0.0032,
      "velocity": 111,
      "chip": "ym2612"
    },
    {
      "channel": 2,
      "note": 77,
      "start": 13.226,
      "duration": 0.001,
      "velocity": 111,
      "chip": "ym2612"
    },
    {
      "channel": 0,
      "note": 48,
      "start": 13.227,
      "duration": 0.0022,
      "velocity": 115,
      "chip": "ym2612"
    },
    {
      "channel": 2,
      "note": 75,
      "start": 13.2272,
      "duration": 0.001,
      "velocity": 111,
      "chip": "ym2612"
    },
    {
      "channel": 4,
      "note": 48,
      "start": 13.2274,
      "duration": 0.0039,
      "velocity": 111,
      "chip": "ym2612"
    },
    {
      "channel": 2,
      "note": 73,
      "start": 13.2285,
      "duration": 0.0025,
      "velocity": 109,
      "chip": "ym2612"
    },
    {
      "channel": 0,
      "note": 43,
      "start": 13.2294,
      "duration": 0.0048,
      "velocity": 115,
      "chip": "ym2612"
    },
    {
      "channel": 1,
      "note": 81,
      "start": 13.2302,
      "duration": 0.2186,
      "velocity": 114,
      "chip": "ym2612"
    },
    {
      "channel": 2,
      "note": 63,
      "start": 13.2313,
      "duration": 0.0021,
      "velocity": 109,
      "chip": "ym2612"
    },
    {
      "channel": 4,
      "note": 43,
      "start": 13.2316,
      "duration": 0.0029,
      "velocity": 111,
      "chip": "ym2612"
    },
    {
      "channel": 2,
      "note": 64,
      "start": 13.2335,
      "duration": 0.0009,
      "velocity": 109,
      "chip": "ym2612"
    },
    {
      "channel": 0,
      "note": 47,
      "start": 13.2344,
      "duration": 0.0016,
      "velocity": 115,
      "chip": "ym2612"
    },
    {
      "channel": 2,
      "note": 66,
      "start": 13.2345,
      "duration": 0.0006,
      "velocity": 109,
      "chip": "ym2612"
    },
    {
      "channel": 4,
      "note": 47,
      "start": 13.2347,
      "duration": 0.0029,
      "velocity": 111,
      "chip": "ym2612"
    },
    {
      "channel": 2,
      "note": 64,
      "start": 13.2353,
      "duration": 0.001,
      "velocity": 109,
      "chip": "ym2612"
    },
    {
      "channel": 0,
      "note": 48,
      "start": 13.2362,
      "duration": 0.0041,
      "velocity": 115,
      "chip": "ym2612"
    },
    {
      "channel": 2,
      "note": 66,
      "start": 13.2365,
      "duration": 0.0032,
      "velocity": 109,
      "chip": "ym2612"
    },
    {
      "channel": 3,
      "note": 81,
      "start": 13.2376,
      "duration": 0.2134,
      "velocity": 104,
      "chip": "ym2612"
    },
    {
      "channel": 4,
      "note": 48,
      "start": 13.238,
      "duration": 0.0029,
      "velocity": 111,
      "chip": "ym2612"
    },
    {
      "channel": 2,
      "note": 64,
      "start": 13.2399,
      "duration": 0.0006,
      "velocity": 109,
      "chip": "ym2612"
    },
    {
      "channel": 0,
      "note": 49,
      "start": 13.2404,
      "duration": 0.002,
      "velocity": 115,
      "chip": "ym2612"
    },
    {
      "channel": 2,
      "note": 61,
      "start": 13.2407,
      "duration": 0.001,
      "velocity": 109,
      "chip": "ym2612"
    },
    {
      "channel": 4,
      "note": 49,
      "start": 13.2411,
      "duration": 0.0019,
      "velocity": 111,
      "chip": "ym2612"
    },
    {
      "channel": 2,
      "note": 63,
      "start": 13.2419,
      "duration": 0.0007,
      "velocity": 109,
      "chip": "ym2612"
    },
    {
      "channel": 0,
      "note": 47,
      "start": 13.2426,
      "duration": 0.002,
      "velocity": 115,
      "chip": "ym2612"
    },
    {
      "channel": 2,
      "note": 62,
      "start": 13.2429,
      "duration": 0.001,
      "velocity": 109,
      "chip": "ym2612"
    },
    {
      "channel": 4,
      "note": 47,
      "start": 13.2431,
      "duration": 0.002,
      "velocity": 111,
      "chip": "ym2612"
    },
    {
      "channel": 2,
      "note": 65,
      "start": 13.244,
      "duration": 0.0007,
      "velocity": 109,
      "chip": "ym2612"
    },
    {
      "channel": 0,
      "note": 51,
      "start": 13.2447,
      "duration": 0.0016,
      "velocity": 115,
      "chip": "ym2612"
    },
    {
      "channel": 2,
      "note": 66,
      "start": 13.245,
      "duration": 0.0007,
      "velocity": 109,
      "chip": "ym2612"
    },
    {
      "channel": 4,
      "note": 51,
      "start": 13.2453,
      "duration": 0.0016,
      "velocity": 111,
      "chip": "ym2612"
    },
    {
      "channel": 2,
      "note": 67,
      "start": 13.2459,
      "duration": 0.0008,
      "velocity": 109,
      "chip": "ym2612"
    },
    {
      "channel": 0,
      "note": 49,
      "start": 13.2465,
      "duration": 0.1981,
      "velocity": 115,
      "chip": "ym2612"
    },
    {
      "channel": 2,
      "note": 65,
      "start": 13.2469,
      "duration": 0.0978,
      "velocity": 109,
      "chip": "ym2612"
    },
    {
      "channel": 4,
      "note": 49,
      "start": 13.2471,
      "duration": 0.1982,
      "velocity": 111,
      "chip": "ym2612"
    },
    {
      "channel": 2,
      "note": 67,
      "start": 13.3449,
      "duration": 0.1001,
      "velocity": 109,
      "chip": "ym2612"
    },
    {
      "channel": 0,
      "note": 47,
      "start": 13.4449,
      "duration": 0.003,
      "velocity": 115,
      "chip": "ym2612"
    },
    {
      "channel": 2,
      "note": 66,
      "start": 13.4452,
      "duration": 0.0019,
      "velocity": 109,
      "chip": "ym2612"
    },
    {
      "channel": 4,
      "note": 47,
      "start": 13.4455,
      "duration": 0.0059,
      "velocity": 111,
      "chip": "ym2612"
    },
    {
      "channel": 2,
      "note": 67,
      "start": 13.4472,
      "duration": 0.0026,
      "velocity": 111,
      "chip": "ym2612"
    },
    {
      "channel": 0,
      "note": 43,
      "start": 13.448,
      "duration": 0.0065,
      "velocity": 115,
      "chip": "ym2612"
    },
    {
      "channel": 1,
      "note": 84,
      "start": 13.449,
      "duration": 0.027,
      "velocity": 113,
      "chip": "ym2612"
    },
    {
      "channel": 2,
      "note": 75,
      "start": 13.45,
      "duration": 0.0035,
      "velocity": 111,
      "chip": "ym2612"
    },
    {
      "channel": 3,
      "note": 60,
      "start": 13.4512,
      "duration": 0.0116,
      "velocity": 104,
      "chip": "ym2612"
    },
    {
      "channel": 4,
      "note": 43,
      "start": 13.4516,
      "duration": 0.0034,
      "velocity": 111,
      "chip": "ym2612"
    },
    {
      "channel": 2,
      "note": 71,
      "start": 13.4537,
      "duration": 0.001,
      "velocity": 111,
      "chip": "ym2612"
    },
    {
      "channel": 0,
      "note": 47,
      "start": 13.4546,
      "duration": 0.0024,
      "velocity": 115,
      "chip": "ym2612"
    },
    {
      "channel": 2,
      "note": 72,
      "start": 13.4549,
      "duration": 0.0011,
      "velocity": 111,
      "chip": "ym2612"
    },
    {
      "channel": 4,
      "note": 47,
      "start": 13.4551,
      "duration": 0.0024,
      "velocity": 111,
      "chip": "ym2612"
    },
    {
      "channel": 2,
      "note": 73,
      "start": 13.4562,
      "duration": 0.0011,
      "velocity": 111,
      "chip": "ym2612"
    },
    {
      "channel": 0,
      "note": 48,
      "start": 13.4572,
      "duration": 0.0026,
      "velocity": 115,
      "chip": "ym2612"
    },
    {
      "channel": 2,
      "note": 75,
      "start": 13.4574,
      "duration": 0.0015,
      "velocity": 111,
      "chip": "ym2612"
    },
    {
      "channel": 4,
      "note": 48,
      "start": 13.4577,
      "duration": 0.0026,
      "velocity": 111,
      "chip": "ym2612"
    },
    {
      "channel": 2,
      "note": 70,
      "start": 13.4591,
      "duration": 0.001,
      "velocity": 111,
      "chip": "ym2612"
    },
    {
      "channel": 0,
      "note": 49,
      "start": 13.46,
      "duration": 0.0024,
      "velocity": 115,
      "chip": "ym2612"
    },
    {
      "channel": 2,
      "note": 74,
      "start": 13.4602,
      "duration": 0.0014,
      "velocity": 111,
      "chip": "ym2612"
    },
    {
      "channel": 4,
      "note": 49,
      "start": 13.4605,
      "duration": 0.0024,
      "velocity": 111,
      "chip": "ym2612"
    },
    {
      "channel": 2,
      "note": 72,
      "start": 13.4617,
      "duration": 0.0009,
      "velocity": 111,
      "chip": "ym2612"
    },
    {
      "channel": 0,
      "note": 47,
      "start": 13.4625,
      "duration": 0.0028,
      "velocity": 115,
      "chip": "ym2612"
    },
    {
      "channel": 2,
      "note": 78,
      "start": 13.4628,
      "duration": 0.0016,
      "velocity": 111,
      "chip": "ym2612"
    },
    {
      "channel": 4,
      "note": 47,
      "start": 13.4631,
      "duration": 0.0027,
      "velocity": 111,
      "chip": "ym2612"
    },
    {
      "channel": 2,
      "note": 71,
      "start": 13.4646,
      "duration": 0.001,
      "velocity": 111,
      "chip": "ym2612"
    },
    {
      "channel": 0,
      "note": 46,
      "start": 13.4655,
      "duration": 0.0024,
      "velocity": 115,
      "chip": "ym2612"
    },
    {
      "channel": 2,
      "note": 74,
      "start": 13.4657,
      "duration": 0.0014,
      "velocity": 111,
      "chip": "ym2612"
    },
    {
      "channel": 4,
      "note": 46,
      "start": 13.4659,
      "duration": 0.0024,
      "velocity": 111,
      "chip": "ym2612"
    },
    {
      "channel": 2,
      "note": 73,
      "start": 13.4671,
      "duration": 0.001,
      "velocity": 111,
      "chip": "ym2612"
    },
    {
      "channel": 0,
      "note": 44,
      "start": 13.468,
      "duration": 0.0027,
      "velocity": 115,
      "chip": "ym2612"
    },
    {
      "channel": 2,
      "note": 76,
      "start": 13.4683,
      "duration": 0.0016,
      "velocity": 111,
      "chip": "ym2612"
    },
    {
      "channel": 4,
      "note": 44,
      "start": 13.4685,
      "duration": 0.003,
      "velocity": 111,
      "chip": "ym2612"
    },
    {
      "channel": 2,
      "note": 73,
      "start": 13.47,
      "duration": 0.0011,
      "velocity": 111,
      "chip": "ym2612"
    },
    {
      "channel": 0,
      "note": 48,
      "start": 13.471,
      "duration": 0.0041,
      "velocity": 115,
      "chip": "ym2612"
    },
    {
      "channel": 2,
      "note": 75,
      "start": 13.4713,
      "duration": 0.0016,
      "velocity": 111,
      "chip": "ym2612"
    },
    {
      "channel": 4,
      "note": 48,
      "start": 13.4716,
      "duration": 0.0059,
      "velocity": 111,
      "chip": "ym2612"
    },
    {
      "channel": 2,
      "note": 72,
      "start": 13.473,
      "duration": 0.0039,
      "velocity": 109,
      "chip": "ym2612"
    },
    {
      "channel": 0,
      "note": 43,
      "start": 13.4753,
      "duration": 0.0048,
      "velocity": 115,
      "chip": "ym2612"
    },
    {
      "channel": 1,
      "note": 79,
      "start": 13.4762,
      "duration": 0.0209,
      "velocity": 114,
      "chip": "ym2612"
    },
    {
      "channel": 2,
      "note": 68,
      "start": 13.4771,
      "duration": 0.0022,
      "velocity": 109,
      "chip": "ym2612"
    },
    {
      "channel": 3,
      "note": 60,
      "start": 13.4774,
      "duration": 0.0107,
      "velocity": 104,
      "chip": "ym2612"
    },
    {
      "channel": 4,
      "note": 43,
      "start": 13.4777,
      "duration": 0.0028,
      "velocity": 111,
      "chip": "ym2612"
    },
    {
      "channel": 2,
      "note": 64,
      "start": 13.4795,
      "duration": 0.0009,
      "velocity": 109,
      "chip": "ym2612"
    },
    {
      "channel": 0,
      "note": 47,
      "start": 13.4802,
      "duration": 0.0017,
      "velocity": 115,
      "chip": "ym2612"
    },
    {
      "channel": 2,
      "note": 61,
      "start": 13.4805,
      "duration": 0.0007,
      "velocity": 109,
      "chip": "ym2612"
    },
    {
      "channel": 4,
      "note": 47,
      "start": 13.4807,
      "duration": 0.002,
      "velocity": 111,
      "chip": "ym2612"
    },
    {
      "channel": 2,
      "note": 66,
      "start": 13.4813,
      "duration": 0.0009,
      "velocity": 109,
      "chip": "ym2612"
    },
    {
      "channel": 0,
      "note": 48,
      "start": 13.4821,
      "duration": 0.0031,
      "velocity": 115,
      "chip": "ym2612"
    },
    {
      "channel": 2,
      "note": 62,
      "start": 13.4825,
      "duration": 0.002,
      "velocity": 109,
      "chip": "ym2612"
    },
    {
      "channel": 4,
      "note": 48,
      "start": 13.4828,
      "duration": 0.0029,
      "velocity": 111,
      "chip": "ym2612"
    },
    {
      "channel": 2,
      "note": 64,
      "start": 13.4846,
      "duration": 0.0008,
      "velocity": 109,
      "chip": "ym2612"
    },
    {
      "channel": 0,
      "note": 49,
      "start": 13.4853,
      "duration": 0.0023,
      "velocity": 115,
      "chip": "ym2612"
    },
    {
      "channel": 2,
      "note": 66,
      "start": 13.4856,
      "duration": 0.0014,
      "velocity": 109,
      "chip": "ym2612"
    },
    {
      "channel": 4,
      "note": 49,
      "start": 13.4859,
      "duration": 0.0022,
      "velocity": 111,
      "chip": "ym2612"
    },
    {
      "channel": 2,
      "note": 63,
      "start": 13.4872,
      "duration": 0.0006,
      "velocity": 109,
      "chip": "ym2612"
    },
    {
      "channel": 0,
      "note": 47,
      "start": 13.4878,
      "duration": 0.0024,
      "velocity": 115,
      "chip": "ym2612"
    },
    {
      "channel": 2,
      "note": 67,
      "start": 13.488,
      "duration": 0.0015,
      "velocity": 109,
      "chip": "ym2612"
    },
    {
      "channel": 4,
      "note": 47,
      "start": 13.4883,
      "duration": 0.0023,
      "velocity": 111,
      "chip": "ym2612"
    },
    {
      "channel": 2,
      "note": 65,
      "start": 13.4897,
      "duration": 0.0007,
      "velocity": 109,
      "chip": "ym2612"
    },
    {
      "channel": 0,
      "note": 49,
      "start": 13.4903,
      "duration": 0.0017,
      "velocity": 115,
      "chip": "ym2612"
    },
    {
      "channel": 2,
      "note": 66,
      "start": 13.4906,
      "duration": 0.0008,
      "velocity": 109,
      "chip": "ym2612"
    },
    {
      "channel": 4,
      "note": 49,
      "start": 13.4909,
      "duration": 0.0016,
      "velocity": 111,
      "chip": "ym2612"
    },
    {
      "channel": 2,
      "note": 67,
      "start": 13.4915,
      "duration": 0.0007,
      "velocity": 109,
      "chip": "ym2612"
    },
    {
      "channel": 0,
      "note": 44,
      "start": 13.4922,
      "duration": 0.0019,
      "velocity": 115,
      "chip": "ym2612"
    },
    {
      "channel": 2,
      "note": 65,
      "start": 13.4924,
      "duration": 0.0009,
      "velocity": 109,
      "chip": "ym2612"
    },
    {
      "channel": 4,
      "note": 44,
      "start": 13.4927,
      "duration": 0.0018,
      "velocity": 111,
      "chip": "ym2612"
    },
    {
      "channel": 2,
      "note": 64,
      "start": 13.4934,
      "duration": 0.0009,
      "velocity": 109,
      "chip": "ym2612"
    },
    {
      "channel": 0,
      "note": 48,
      "start": 13.4942,
      "duration": 0.0021,
      "velocity": 115,
      "chip": "ym2612"
    },
    {
      "channel": 2,
      "note": 66,
      "start": 13.4945,
      "duration": 0.0012,
      "velocity": 109,
      "chip": "ym2612"
    },
    {
      "channel": 4,
      "note": 48,
      "start": 13.4946,
      "duration": 0.0039,
      "velocity": 111,
      "chip": "ym2612"
    },
    {
      "channel": 2,
      "note": 67,
      "start": 13.4959,
      "duration": 0.0022,
      "velocity": 111,
      "chip": "ym2612"
    },
    {
      "channel": 0,
      "note": 43,
      "start": 13.4965,
      "duration": 0.005,
      "velocity": 115,
      "chip": "ym2612"
    },
    {
      "channel": 1,
      "note": 85,
      "start": 13.4973,
      "duration": 0.0263,
      "velocity": 113,
      "chip": "ym2612"
    },
    {
      "channel": 2,
      "note": 76,
      "start": 13.4982,
      "duration": 0.0021,
      "velocity": 111,
      "chip": "ym2612"
    },
    {
      "channel": 3,
      "note": 62,
      "start": 13.4984,
      "duration": 0.0121,
      "velocity": 104,
      "chip": "ym2612"
    },
    {
      "channel": 4,
      "note": 43,
      "start": 13.4986,
      "duration": 0.0033,
      "velocity": 111,
      "chip": "ym2612"
    },
    {
      "channel": 2,
      "note": 74,
      "start": 13.5005,
      "duration": 0.0012,
      "velocity": 111,
      "chip": "ym2612"
    },
    {
      "channel": 0,
      "note": 47,
      "start": 13.5016,
      "duration": 0.0022,
      "velocity": 115,
      "chip": "ym2612"
    },
    {
      "channel": 2,
      "note": 72,
      "start": 13.5018,
      "duration": 0.001,
      "velocity": 111,
      "chip": "ym2612"
    },
    {
      "channel": 4,
      "note": 47,
      "start": 13.502,
      "duration": 0.0023,
      "velocity": 111,
      "chip": "ym2612"
    },
    {
      "channel": 2,
      "note": 73,
      "start": 13.503,
      "duration": 0.001,
      "velocity": 111,
      "chip": "ym2612"
    },
    {
      "channel": 0,
      "note": 48,
      "start": 13.504,
      "duration": 0.0032,
      "velocity": 115,
      "chip": "ym2612"
    },
    {
      "channel": 2,
      "note": 77,
      "start": 13.5042,
      "duration": 0.002,
      "velocity": 111,
      "chip": "ym2612"
    },
    {
      "channel": 4,
      "note": 48,
      "start": 13.5046,
      "duration": 0.0031,
      "velocity": 111,
      "chip": "ym2612"
    },
    {
      "channel": 2,
      "note": 71,
      "start": 13.5064,
      "duration": 0.001,
      "velocity": 111,
      "chip": "ym2612"
    },
    {
      "channel": 0,
      "note": 49,
      "start": 13.5074,
      "duration": 0.0026,
      "velocity": 115,
      "chip": "ym2612"
    },
    {
      "channel": 2,
      "note": 74,
      "start": 13.5076,
      "duration": 0.0015,
      "velocity": 111,
      "chip": "ym2612"
    },
    {
      "channel": 4,
      "note": 49,
      "start": 13.5079,
      "duration": 0.0027,
      "velocity": 111,
      "chip": "ym2612"
    },
    {
      "channel": 2,
      "note": 72,
      "start": 13.5093,
      "duration": 0.001,
      "velocity": 111,
      "chip": "ym2612"
    },
    {
      "channel": 0,
      "note": 47,
      "start": 13.5102,
      "duration": 0.0029,
      "velocity": 115,
      "chip": "ym2612"
    },
    {
      "channel": 2,
      "note": 78,
      "start": 13.5104,
      "duration": 0.0017,
      "velocity": 111,
      "chip": "ym2612"
    },
    {
      "channel": 4,
      "note": 47,
      "start": 13.5107,
      "duration": 0.0028,
      "velocity": 111,
      "chip": "ym2612"
    },
    {
      "channel": 2,
      "note": 71,
      "start": 13.5124,
      "duration": 0.0009,
      "velocity": 111,
      "chip": "ym2612"
    },
    {
      "channel": 0,
      "note": 46,
      "start": 13.5132,
      "duration": 0.002,
      "velocity": 115,
      "chip": "ym2612"
    },
    {
      "channel": 2,
      "note": 74,
      "start": 13.5135,
      "duration": 0.0009,
      "velocity": 111,
      "chip": "ym2612"
    },
    {
      "channel": 4,
      "note": 46,
      "start": 13.5137,
      "duration": 0.002,
      "velocity": 111,
      "chip": "ym2612"
    },
    {
      "channel": 2,
      "note": 73,
      "start": 13.5145,
      "duration": 0.001,
      "velocity": 111,
      "chip": "ym2612"
    },
    {
      "channel": 0,
      "note": 44,
      "start": 13.5154,
      "duration": 0.0023,
      "velocity": 115,
      "chip": "ym2612"
    },
    {
      "channel": 2,
      "note": 76,
      "start": 13.5156,
      "duration": 0.0011,
      "velocity": 111,
      "chip": "ym2612"
    },
    {
      "channel": 4,
      "note": 44,
      "start": 13.5159,
      "duration": 0.0024,
      "velocity": 111,
      "chip": "ym2612"
    },
    {
      "channel": 2,
      "note": 77,
      "start": 13.5169,
      "duration": 0.0012,
      "velocity": 111,
      "chip": "ym2612"
    },
    {
      "channel": 0,
      "note": 48,
      "start": 13.5179,
      "duration": 0.0047,
      "velocity": 115,
      "chip": "ym2612"
    },
    {
      "channel": 2,
      "note": 75,
      "start": 13.5182,
      "duration": 0.0019,
      "velocity": 111,
      "chip": "ym2612"
    },
    {
      "channel": 4,
      "note": 48,
      "start": 13.5185,
      "duration": 0.0065,
      "velocity": 111,
      "chip": "ym2612"
    },
    {
      "channel": 2,
      "note": 73,
      "start": 13.5203,
      "duration": 0.0042,
      "velocity": 109,
      "chip": "ym2612"
    },
    {
      "channel": 0,
      "note": 43,
      "start": 13.5229,
      "duration": 0.0048,
      "velocity": 115,
      "chip": "ym2612"
    },
    {
      "channel": 1,
      "note": 81,
      "start": 13.5237,
      "duration": 0.022,
      "velocity": 114,
      "chip": "ym2612"
    },
    {
      "channel": 2,
      "note": 63,
      "start": 13.5247,
      "duration": 0.0023,
      "velocity": 109,
      "chip": "ym2612"
    },
    {
      "channel": 3,
      "note": 62,
      "start": 13.525,
      "duration": 0.0104,
      "velocity": 104,
      "chip": "ym2612"
    },
    {
      "channel": 4,
      "note": 43,
      "start": 13.5253,
      "duration": 0.0029,
      "velocity": 111,
      "chip": "ym2612"
    },
    {
      "channel": 2,
      "note": 64,
      "start": 13.5272,
      "duration": 0.0007,
      "velocity": 109,
      "chip": "ym2612"
    },
    {
      "channel": 0,
      "note": 47,
      "start": 13.5278,
      "duration": 0.0016,
      "velocity": 115,
      "chip": "ym2612"
    },
    {
      "channel": 2,
      "note": 66,
      "start": 13.5281,
      "duration": 0.0006,
      "velocity": 109,
      "chip": "ym2612"
    },
    {
      "channel": 4,
      "note": 47,
      "start": 13.5283,
      "duration": 0.0016,
      "velocity": 111,
      "chip": "ym2612"
    },
    {
      "channel": 2,
      "note": 64,
      "start": 13.5289,
      "duration": 0.0007,
      "velocity": 109,
      "chip": "ym2612"
    },
    {
      "channel": 0,
      "note": 48,
      "start": 13.5296,
      "duration": 0.003,
      "velocity": 115,
      "chip": "ym2612"
    },
    {
      "channel": 2,
      "note": 66,
      "start": 13.5299,
      "duration": 0.002,
      "velocity": 109,
      "chip": "ym2612"
    },
    {
      "channel": 4,
      "note": 48,
      "start": 13.5303,
      "duration": 0.0029,
      "velocity": 111,
      "chip": "ym2612"
    },
    {
      "channel": 2,
      "note": 64,
      "start": 13.532,
      "duration": 0.0009,
      "velocity": 109,
      "chip": "ym2612"
    },
    {
      "channel": 0,
      "note": 49,
      "start": 13.5327,
      "duration": 0.0022,
      "velocity": 115,
      "chip": "ym2612"
    },
    {
      "channel": 2,
      "note": 61,
      "start": 13.533,
      "duration": 0.0012,
      "velocity": 109,
      "chip": "ym2612"
    },
    {
      "channel": 4,
      "note": 49,
      "start": 13.5333,
      "duration": 0.0022,
      "velocity": 111,
      "chip": "ym2612"
    },
    {
      "channel": 2,
      "note": 63,
      "start": 13.5344,
      "duration": 0.0008,
      "velocity": 109,
      "chip": "ym2612"
    },
    {
      "channel": 0,
      "note": 47,
      "start": 13.5351,
      "duration": 0.0023,
      "velocity": 115,
      "chip": "ym2612"
    },
    {
      "channel": 2,
      "note": 62,
      "start": 13.5353,
      "duration": 0.0015,
      "velocity": 109,
      "chip": "ym2612"
    },
    {
      "channel": 4,
      "note": 47,
      "start": 13.5356,
      "duration": 0.0023,
      "velocity": 111,
      "chip": "ym2612"
    },
    {
      "channel": 2,
      "note": 65,
      "start": 13.537,
      "duration": 0.0006,
      "velocity": 109,
      "chip": "ym2612"
    },
    {
      "channel": 0,
      "note": 51,
      "start": 13.5376,
      "duration": 0.0022,
      "velocity": 115,
      "chip": "ym2612"
    },
    {
      "channel": 2,
      "note": 66,
      "start": 13.5377,
      "duration": 0.0014,
      "velocity": 109,
      "chip": "ym2612"
    },
    {
      "channel": 4,
      "note": 51,
      "start": 13.5381,
      "duration": 0.0021,
      "velocity": 111,
      "chip": "ym2612"
    },
    {
      "channel": 2,
      "note": 67,
      "start": 13.5392,
      "duration": 0.0007,
      "velocity": 109,
      "chip": "ym2612"
    },
    {
      "channel": 0,
      "note": 49,
      "start": 13.5399,
      "duration": 0.0022,
      "velocity": 115,
      "chip": "ym2612"
    },
    {
      "channel": 2,
      "note": 65,
      "start": 13.5402,
      "duration": 0.0013,
      "velocity": 109,
      "chip": "ym2612"
    },
    {
      "channel": 4,
      "note": 49,
      "start": 13.5404,
      "duration": 0.0023,
      "velocity": 111,
      "chip": "ym2612"
    },
    {
      "channel": 2,
      "note": 67,
      "start": 13.5416,
      "duration": 0.0008,
      "velocity": 109,
      "chip": "ym2612"
    },
    {
      "channel": 0,
      "note": 47,
      "start": 13.5423,
      "duration": 0.0024,
      "velocity": 115,
      "chip": "ym2612"
    },
    {
      "channel": 2,
      "note": 66,
      "start": 13.5426,
      "duration": 0.0016,
      "velocity": 109,
      "chip": "ym2612"
    },
    {
      "channel": 4,
      "note": 47,
      "start": 13.5427,
      "duration": 0.0044,
      "velocity": 111,
      "chip": "ym2612"
    },
    {
      "channel": 2,
      "note": 67,
      "start": 13.5443,
      "duration": 0.0022,
      "velocity": 111,
      "chip": "ym2612"
    },
    {
      "channel": 0,
      "note": 43,
      "start": 13.5449,
      "duration": 0.0055,
      "velocity": 115,
      "chip": "ym2612"
    },
    {
      "channel": 1,
      "note": 84,
      "start": 13.5458,
      "duration": 0.0259,
      "velocity": 113,
      "chip": "ym2612"
    },
    {
      "channel": 2,
      "note": 75,
      "start": 13.5467,
      "duration": 0.0027,
      "velocity": 111,
      "chip": "ym2612"
    },
    {
      "channel": 3,
      "note": 60,
      "start": 13.5471,
      "duration": 0.0123,
      "velocity": 104,
      "chip": "ym2612"
    },
    {
      "channel": 4,
      "note": 43,
      "start": 13.5473,
      "duration": 0.0037,
      "velocity": 111,
      "chip": "ym2612"
    },
    {
      "channel": 2,
      "note": 71,
      "start": 13.5495,
      "duration": 0.0012,
      "velocity": 111,
      "chip": "ym2612"
    },
    {
      "channel": 0,
      "note": 47,
      "start": 13.5506,
      "duration": 0.0024,
      "velocity": 115,
      "chip": "ym2612"
    },
    {
      "channel": 2,
      "note": 72,
      "start": 13.5509,
      "duration": 0.0011,
      "velocity": 111,
      "chip": "ym2612"
    },
    {
      "channel": 4,
      "note": 47,
      "start": 13.5512,
      "duration": 0.0022,
      "velocity": 111,
      "chip": "ym2612"
    },
    {
      "channel": 2,
      "note": 73,
      "start": 13.5522,
      "duration": 0.001,
      "velocity": 111,
      "chip": "ym2612"
    },
    {
      "channel": 0,
      "note": 48,
      "start": 13.5531,
      "duration": 0.0031,
      "velocity": 115,
      "chip": "ym2612"
    },
    {
      "channel": 2,
      "note": 75,
      "start": 13.5533,
      "duration": 0.0019,
      "velocity": 111,
      "chip": "ym2612"
    },
    {
      "channel": 4,
      "note": 48,
      "start": 13.5537,
      "duration": 0.0029,
      "velocity": 111,
      "chip": "ym2612"
    },
    {
      "channel": 2,
      "note": 70,
      "start": 13.5554,
      "duration": 0.001,
      "velocity": 111,
      "chip": "ym2612"
    },
    {
      "channel": 0,
      "note": 49,
      "start": 13.5563,
      "duration": 0.0027,
      "velocity": 115,
      "chip": "ym2612"
    },
    {
      "channel": 2,
      "note": 74,
      "start": 13.5565,
      "duration": 0.0014,
      "velocity": 111,
      "chip": "ym2612"
    },
    {
      "channel": 4,
      "note": 49,
      "start": 13.5568,
      "duration": 0.0027,
      "velocity": 111,
      "chip": "ym2612"
    },
    {
      "channel": 2,
      "note": 72,
      "start": 13.558,
      "duration": 0.0011,
      "velocity": 111,
      "chip": "ym2612"
    },
    {
      "channel": 0,
      "note": 47,
      "start": 13.5591,
      "duration": 0.0027,
      "velocity": 115,
      "chip": "ym2612"
    },
    {
      "channel": 2,
      "note": 78,
      "start": 13.5594,
      "duration": 0.0015,
      "velocity": 111,
      "chip": "ym2612"
    },
    {
      "channel": 4,
      "note": 47,
      "start": 13.5596,
      "duration": 0.0027,
      "velocity": 111,
      "chip": "ym2612"
    },
    {
      "channel": 2,
      "note": 71,
      "start": 13.561,
      "duration": 0.001,
      "velocity": 111,
      "chip": "ym2612"
    },
    {
      "channel": 0,
      "note": 46,
      "start": 13.5619,
      "duration": 0.002,
      "velocity": 115,
      "chip": "ym2612"
    },
    {
      "channel": 2,
      "note": 74,
      "start": 13.5622,
      "duration": 0.0009,
      "velocity": 111,
      "chip": "ym2612"
    },
    {
      "channel": 4,
      "note": 46,
      "start": 13.5625,
      "duration": 0.002,
      "velocity": 111,
      "chip": "ym2612"
    },
    {
      "channel": 2,
      "note": 73,
      "start": 13.5632,
      "duration": 0.001,
      "velocity": 111,
      "chip": "ym2612"
    },
    {
      "channel": 0,
      "note": 44,
      "start": 13.5642,
      "duration": 0.0022,
      "velocity": 115,
      "chip": "ym2612"
    },
    {
      "channel": 2,
      "note": 76,
      "start": 13.5644,
      "duration": 0.0012,
      "velocity": 111,
      "chip": "ym2612"
    },
    {
      "channel": 4,
      "note": 44,
      "start": 13.5646,
      "duration": 0.0022,
      "velocity": 111,
      "chip": "ym2612"
    },
    {
      "channel": 2,
      "note": 73,
      "start": 13.5658,
      "duration": 0.0008,
      "velocity": 111,
      "chip": "ym2612"
    },
    {
      "channel": 0,
      "note": 48,
      "start": 13.5665,
      "duration": 0.0044,
      "velocity": 115,
      "chip": "ym2612"
    },
    {
      "channel": 2,
      "note": 75,
      "start": 13.5668,
      "duration": 0.0019,
      "velocity": 111,
      "chip": "ym2612"
    },
    {
      "channel": 4,
      "note": 48,
      "start": 13.567,
      "duration": 0.0059,
      "velocity": 111,
      "chip": "ym2612"
    },
    {
      "channel": 2,
      "note": 72,
      "start": 13.5688,
      "duration": 0.0037,
      "velocity": 109,
      "chip": "ym2612"
    },
    {
      "channel": 0,
      "note": 43,
      "start": 13.571,
      "duration": 0.0045,
      "velocity": 115,
      "chip": "ym2612"
    },
    {
      "channel": 1,
      "note": 79,
      "start": 13.5719,
      "duration": 0.0218,
      "velocity": 114,
      "chip": "ym2612"
    },
    {
      "channel": 2,
      "note": 68,
      "start": 13.5727,
      "duration": 0.0021,
      "velocity": 109,
      "chip": "ym2612"
    },
    {
      "channel": 3,
      "note": 60,
      "start": 13.5729,
      "duration": 0.0106,
      "velocity": 104,
      "chip": "ym2612"
    },
    {
      "channel": 4,
      "note": 43,
      "start": 13.5732,
      "duration": 0.0028,
      "velocity": 111,
      "chip": "ym2612"
    },
    {
      "channel": 2,
      "note": 64,
      "start": 13.5749,
      "duration": 0.0007,
      "velocity": 109,
      "chip": "ym2612"
    },
    {
      "channel": 0,
      "note": 47,
      "start": 13.5756,
      "duration": 0.0018,
      "velocity": 115,
      "chip": "ym2612"
    },
    {
      "channel": 2,
      "note": 61,
      "start": 13.5758,
      "duration": 0.0008,
      "velocity": 109,
      "chip": "ym2612"
    },
    {
      "channel": 4,
      "note": 47,
      "start": 13.5761,
      "duration": 0.0019,
      "velocity": 111,
      "chip": "ym2612"
    },
    {
      "channel": 2,
      "note": 66,
      "start": 13.5768,
      "duration": 0.0008,
      "velocity": 109,
      "chip": "ym2612"
    },
    {
      "channel": 0,
      "note": 48,
      "start": 13.5775,
      "duration": 0.0032,
      "velocity": 115,
      "chip": "ym2612"
    },
    {
      "channel": 2,
      "note": 62,
      "start": 13.5778,
      "duration": 0.0021,
      "velocity": 109,
      "chip": "ym2612"
    },
    {
      "channel": 4,
      "note": 48,
      "start": 13.5782,
      "duration": 0.0029,
      "velocity": 111,
      "chip": "ym2612"
    },
    {
      "channel": 2,
      "note": 64,
      "start": 13.5801,
      "duration": 0.0009,
      "velocity": 109,
      "chip": "ym2612"
    },
    {
      "channel": 0,
      "note": 49,
      "start": 13.5808,
      "duration": 0.0022,
      "velocity": 115,
      "chip": "ym2612"
    },
    {
      "channel": 2,
      "note": 66,
      "start": 13.5811,
      "duration": 0.0013,
      "velocity": 109,
      "chip": "ym2612"
    },
    {
      "channel": 4,
      "note": 49,
      "start": 13.5814,
      "duration": 0.0022,
      "velocity": 111,
      "chip": "ym2612"
    },
    {
      "channel": 2,
      "note": 63,
      "start": 13.5826,
      "duration": 0.0007,
      "velocity": 109,
      "chip": "ym2612"
    },
    {
      "channel": 0,
      "note": 47,
      "start": 13.5832,
      "duration": 0.0024,
      "velocity": 115,
      "chip": "ym2612"
    },
    {
      "channel": 2,
      "note": 67,
      "start": 13.5834,
      "duration": 0.0015,
      "velocity": 109,
      "chip": "ym2612"
    },
    {
      "channel": 4,
      "note": 47,
      "start": 13.5837,
      "duration": 0.0023,
      "velocity": 111,
      "chip": "ym2612"
    },
    {
      "channel": 2,
      "note": 65,
      "start": 13.5851,
      "duration": 0.0007,
      "velocity": 109,
      "chip": "ym2612"
    },
    {
      "channel": 0,
      "note": 49,
      "start": 13.5857,
      "duration": 0.0023,
      "velocity": 115,
      "chip": "ym2612"
    },
    {
      "channel": 2,
      "note": 66,
      "start": 13.5859,
      "duration": 0.0014,
      "velocity": 109,
      "chip": "ym2612"
    },
    {
      "channel": 4,
      "note": 49,
      "start": 13.5863,
      "duration": 0.0022,
      "velocity": 111,
      "chip": "ym2612"
    },
    {
      "channel": 2,
      "note": 67,
      "start": 13.5874,
      "duration": 0.0008,
      "velocity": 109,
      "chip": "ym2612"
    },
    {
      "channel": 0,
      "note": 44,
      "start": 13.5882,
      "duration": 0.0023,
      "velocity": 115,
      "chip": "ym2612"
    },
    {
      "channel": 2,
      "note": 65,
      "start": 13.5884,
      "duration": 0.0014,
      "velocity": 109,
      "chip": "ym2612"
    },
    {
      "channel": 4,
      "note": 44,
      "start": 13.5886,
      "duration": 0.0024,
      "velocity": 111,
      "chip": "ym2612"
    },
    {
      "channel": 2,
      "note": 64,
      "start": 13.5899,
      "duration": 0.0009,
      "velocity": 109,
      "chip": "ym2612"
    },
    {
      "channel": 0,
      "note": 48,
      "start": 13.5907,
      "duration": 0.0021,
      "velocity": 115,
      "chip": "ym2612"
    },
    {
      "channel": 2,
      "note": 66,
      "start": 13.591,
      "duration": 0.0012,
      "velocity": 109,
      "chip": "ym2612"
    },
    {
      "channel": 4,
      "note": 48,
      "start": 13.5913,
      "duration": 0.0036,
      "velocity": 111,
      "chip": "ym2612"
    },
    {
      "channel": 2,
      "note": 67,
      "start": 13.5924,
      "duration": 0.0021,
      "velocity": 111,
      "chip": "ym2612"
    },
    {
      "channel": 0,
      "note": 43,
      "start": 13.593,
      "duration": 0.0047,
      "velocity": 115,
      "chip": "ym2612"
    },
    {
      "channel": 1,
      "note": 85,
      "start": 13.5938,
      "duration": 0.0254,
      "velocity": 113,
      "chip": "ym2612"
    },
    {
      "channel": 2,
      "note": 76,
      "start": 13.5946,
      "duration": 0.0021,
      "velocity": 111,
      "chip": "ym2612"
    },
    {
      "channel": 3,
      "note": 62,
      "start": 13.5948,
      "duration": 0.0118,
      "velocity": 104,
      "chip": "ym2612"
    },
    {
      "channel": 4,
      "note": 43,
      "start": 13.595,
      "duration": 0.0032,
      "velocity": 111,
      "chip": "ym2612"
    },
    {
      "channel": 2,
      "note": 74,
      "start": 13.5968,
      "duration": 0.0012,
      "velocity": 111,
      "chip": "ym2612"
    },
    {
      "channel": 0,
      "note": 47,
      "start": 13.5979,
      "duration": 0.0021,
      "velocity": 115,
      "chip": "ym2612"
    },
    {
      "channel": 2,
      "note": 72,
      "start": 13.5981,
      "duration": 0.001,
      "velocity": 111,
      "chip": "ym2612"
    },
    {
      "channel": 4,
      "note": 47,
      "start": 13.5984,
      "duration": 0.0022,
      "velocity": 111,
      "chip": "ym2612"
    },
    {
      "channel": 2,
      "note": 73,
      "start": 13.5993,
      "duration": 0.001,
      "velocity": 111,
      "chip": "ym2612"
    },
    {
      "channel": 0,
      "note": 48,
      "start": 13.6001,
      "duration": 0.0034,
      "velocity": 115,
      "chip": "ym2612"
    },
    {
      "channel": 2,
      "note": 77,
      "start": 13.6005,
      "duration": 0.0022,
      "velocity": 111,
      "chip": "ym2612"
    },
    {
      "channel": 4,
      "note": 48,
      "start": 13.6009,
      "duration": 0.0031,
      "velocity": 111,
      "chip": "ym2612"
    },
    {
      "channel": 2,
      "note": 71,
      "start": 13.6029,
      "duration": 0.001,
      "velocity": 111,
      "chip": "ym2612"
    },
    {
      "channel": 0,
      "note": 49,
      "start": 13.6037,
      "duration": 0.0024,
      "velocity": 115,
      "chip": "ym2612"
    },
    {
      "channel": 2,
      "note": 74,
      "start": 13.6039,
      "duration": 0.0014,
      "velocity": 111,
      "chip": "ym2612"
    },
    {
      "channel": 4,
      "note": 49,
      "start": 13.6043,
      "duration": 0.0024,
      "velocity": 111,
      "chip": "ym2612"
    },
    {
      "channel": 2,
      "note": 72,
      "start": 13.6055,
      "duration": 0.0008,
      "velocity": 111,
      "chip": "ym2612"
    },
    {
      "channel": 0,
      "note": 47,
      "start": 13.6063,
      "duration": 0.0027,
      "velocity": 115,
      "chip": "ym2612"
    },
    {
      "channel": 2,
      "note": 78,
      "start": 13.6065,
      "duration": 0.0016,
      "velocity": 111,
      "chip": "ym2612"
    },
    {
      "channel": 4,
      "note": 47,
      "start": 13.6068,
      "duration": 0.0026,
      "velocity": 111,
      "chip": "ym2612"
    },
    {
      "channel": 2,
      "note": 71,
      "start": 13.6084,
      "duration": 0.0009,
      "velocity": 111,
      "chip": "ym2612"
    },
    {
      "channel": 0,
      "note": 46,
      "start": 13.6092,
      "duration": 0.0021,
      "velocity": 115,
      "chip": "ym2612"
    },
    {
      "channel": 2,
      "note": 74,
      "start": 13.6094,
      "duration": 0.001,
      "velocity": 111,
      "chip": "ym2612"
    },
    {
      "channel": 4,
      "note": 46,
      "start": 13.6097,
      "duration": 0.002,
      "velocity": 111,
      "chip": "ym2612"
    },
    {
      "channel": 2,
      "note": 73,
      "start": 13.6105,
      "duration": 0.001,
      "velocity": 111,
      "chip": "ym2612"
    },
    {
      "channel": 0,
      "note": 44,
      "start": 13.6114,
      "duration": 0.0023,
      "velocity": 115,
      "chip": "ym2612"
    },
    {
      "channel": 2,
      "note": 76,
      "start": 13.6116,
      "duration": 0.0011,
      "velocity": 111,
      "chip": "ym2612"
    },
    {
      "channel": 4,
      "note": 44,
      "start": 13.6119,
      "duration": 0.0024,
      "velocity": 111,
      "chip": "ym2612"
    },
    {
      "channel": 2,
      "note": 77,
      "start": 13.6129,
      "duration": 0.0012,
      "velocity": 111,
      "chip": "ym2612"
    },
    {
      "channel": 0,
      "note": 48,
      "start": 13.6139,
      "duration": 0.0045,
      "velocity": 115,
      "chip": "ym2612"
    },
    {
      "channel": 2,
      "note": 75,
      "start": 13.6142,
      "duration": 0.002,
      "velocity": 111,
      "chip": "ym2612"
    },
    {
      "channel": 4,
      "note": 48,
      "start": 13.6145,
      "duration": 0.006,
      "velocity": 111,
      "chip": "ym2612"
    },
    {
      "channel": 2,
      "note": 73,
      "start": 13.6164,
      "duration": 0.0037,
      "velocity": 109,
      "chip": "ym2612"
    },
    {
      "channel": 0,
      "note": 43,
      "start": 13.6186,
      "duration": 0.0045,
      "velocity": 115,
      "chip": "ym2612"
    },
    {
      "channel": 1,
      "note": 81,
      "start": 13.6194,
      "duration": 0.0209,
      "velocity": 114,
      "chip": "ym2612"
    },
    {
      "channel": 2,
      "note": 63,
      "start": 13.6202,
      "duration": 0.0021,
      "velocity": 109,
      "chip": "ym2612"
    },
    {
      "channel": 3,
      "note": 62,
      "start": 13.6205,
      "duration": 0.0104,
      "velocity": 104,
      "chip": "ym2612"
    },
    {
      "channel": 4,
      "note": 43,
      "start": 13.6207,
      "duration": 0.0028,
      "velocity": 111,
      "chip": "ym2612"
    },
    {
      "channel": 2,
      "note": 64,
      "start": 13.6224,
      "duration": 0.0008,
      "velocity": 109,
      "chip": "ym2612"
    },
    {
      "channel": 0,
      "note": 47,
      "start": 13.6232,
      "duration": 0.0017,
      "velocity": 115,
      "chip": "ym2612"
    },
    {
      "channel": 2,
      "note": 66,
      "start": 13.6234,
      "duration": 0.0007,
      "velocity": 109,
      "chip": "ym2612"
    },
    {
      "channel": 4,
      "note": 47,
      "start": 13.6236,
      "duration": 0.002,
      "velocity": 111,
      "chip": "ym2612"
    },
    {
      "channel": 2,
      "note": 64,
      "start": 13.6243,
      "duration": 0.0009,
      "velocity": 109,
      "chip": "ym2612"
    },
    {
      "channel": 0,
      "note": 48,
      "start": 13.6251,
      "duration": 0.0031,
      "velocity": 115,
      "chip": "ym2612"
    },
    {
      "channel": 2,
      "note": 66,
      "start": 13.6254,
      "duration": 0.002,
      "velocity": 109,
      "chip": "ym2612"
    },
    {
      "channel": 4,
      "note": 48,
      "start": 13.6258,
      "duration": 0.0027,
      "velocity": 111,
      "chip": "ym2612"
    },
    {
      "channel": 2,
      "note": 64,
      "start": 13.6275,
      "duration": 0.0008,
      "velocity": 109,
      "chip": "ym2612"
    },
    {
      "channel": 0,
      "note": 49,
      "start": 13.6282,
      "duration": 0.0022,
      "velocity": 115,
      "chip": "ym2612"
    },
    {
      "channel": 2,
      "note": 61,
      "start": 13.6284,
      "duration": 0.0014,
      "velocity": 109,
      "chip": "ym2612"
    },
    {
      "channel": 4,
      "note": 49,
      "start": 13.6287,
      "duration": 0.0022,
      "velocity": 111,
      "chip": "ym2612"
    },
    {
      "channel": 2,
      "note": 63,
      "start": 13.63,
      "duration": 0.0007,
      "velocity": 109,
      "chip": "ym2612"
    },
    {
      "channel": 0,
      "note": 47,
      "start": 13.6306,
      "duration": 0.0023,
      "velocity": 115,
      "chip": "ym2612"
    },
    {
      "channel": 2,
      "note": 62,
      "start": 13.6308,
      "duration": 0.0015,
      "velocity": 109,
      "chip": "ym2612"
    },
    {
      "channel": 4,
      "note": 47,
      "start": 13.6311,
      "duration": 0.0023,
      "velocity": 111,
      "chip": "ym2612"
    },
    {
      "channel": 2,
      "note": 65,
      "start": 13.6324,
      "duration": 0.0007,
      "velocity": 109,
      "chip": "ym2612"
    },
    {
      "channel": 0,
      "note": 51,
      "start": 13.6331,
      "duration": 0.0019,
      "velocity": 115,
      "chip": "ym2612"
    },
    {
      "channel": 2,
      "note": 66,
      "start": 13.6333,
      "duration": 0.0011,
      "velocity": 109,
      "chip": "ym2612"
    },
    {
      "channel": 4,
      "note": 51,
      "start": 13.6335,
      "duration": 0.0019,
      "velocity": 111,
      "chip": "ym2612"
    },
    {
      "channel": 2,
      "note": 67,
      "start": 13.6345,
      "duration": 0.0007,
      "velocity": 109,
      "chip": "ym2612"
    },
    {
      "channel": 0,
      "note": 49,
      "start": 13.6351,
      "duration": 0.0021,
      "velocity": 115,
      "chip": "ym2612"
    },
    {
      "channel": 2,
      "note": 65,
      "start": 13.6354,
      "duration": 0.0012,
      "velocity": 109,
      "chip": "ym2612"
    },
    {
      "channel": 4,
      "note": 49,
      "start": 13.6356,
      "duration": 0.0022,
      "velocity": 111,
      "chip": "ym2612"
    },
    {
      "channel": 2,
      "note": 67,
      "start": 13.6367,
      "duration": 0.0007,
      "velocity": 109,
      "chip": "ym2612"
    },
    {
      "channel": 0,
      "note": 47,
      "start": 13.6374,
      "duration": 0.002,
      "velocity": 115,
      "chip": "ym2612"
    },
    {
      "channel": 2,
      "note": 66,
      "start": 13.6376,
      "duration": 0.0012,
      "velocity": 109,
      "chip": "ym2612"
    },
    {
      "channel": 4,
      "note": 47,
      "start": 13.638,
      "duration": 0.0038,
      "velocity": 111,
      "chip": "ym2612"
    },
    {
      "channel": 2,
      "note": 67,
      "start": 13.639,
      "duration": 0.0023,
      "velocity": 115,
      "chip": "ym2612"
    },
    {
      "channel": 0,
      "note": 43,
      "start": 13.6396,
      "duration": 0.0043,
      "velocity": 115,
      "chip": "ym2612"
    },
    {
      "channel": 1,
      "note": 84,
      "start": 13.6405,
      "duration": 0.0188,
      "velocity": 113,
      "chip": "ym2612"
    },
    {
      "channel": 2,
      "note": 77,
      "start": 13.6415,
      "duration": 0.0033,
      "velocity": 115,
      "chip": "ym2612"
    },
    {
      "channel": 3,
      "note": 60,
      "start": 13.6417,
      "duration": 0.0073,
      "velocity": 104,
      "chip": "ym2612"
    },
    {
      "channel": 4,
      "note": 43,
      "start": 13.642,
      "duration": 0.0022,
      "velocity": 111,
      "chip": "ym2612"
    },
    {
      "channel": 0,
      "note": 47,
      "start": 13.6441,
      "duration": 0.0012,
      "velocity": 115,
      "chip": "ym2612"
    },
    {
      "channel": 4,
      "note": 47,
      "start": 13.6444,
      "duration": 0.0012,
      "velocity": 111,
      "chip": "ym2612"
    },
    {
      "channel": 2,
      "note": 76,
      "start": 13.645,
      "duration": 0.0026,
      "velocity": 115,
      "chip": "ym2612"
    },
    {
      "channel": 0,
      "note": 48,
      "start": 13.6454,
      "duration": 0.0019,
      "velocity": 115,
      "chip": "ym2612"
    },
    {
      "channel": 4,
      "note": 48,
      "start": 13.6457,
      "duration": 0.0022,
      "velocity": 111,
      "chip": "ym2612"
    },
    {
      "channel": 0,
      "note": 49,
      "start": 13.6474,
      "duration": 0.0013,
      "velocity": 115,
      "chip": "ym2612"
    },
    {
      "channel": 2,
      "note": 75,
      "start": 13.6478,
      "duration": 0.0024,
      "velocity": 115,
      "chip": "ym2612"
    },
    {
      "channel": 4,
      "note": 49,
      "start": 13.648,
      "duration": 0.001,
      "velocity": 111,
      "chip": "ym2612"
    },
    {
      "channel": 0,
      "note": 47,
      "start": 13.6489,
      "duration": 0.0017,
      "velocity": 115,
      "chip": "ym2612"
    },
    {
      "channel": 4,
      "note": 47,
      "start": 13.6492,
      "duration": 0.0018,
      "velocity": 111,
      "chip": "ym2612"
    },
    {
      "channel": 2,
      "note": 74,
      "start": 13.6504,
      "duration": 0.0023,
      "velocity": 115,
      "chip": "ym2612"
    },
    {
      "channel": 0,
      "note": 46,
      "start": 13.6509,
      "duration": 0.0014,
      "velocity": 115,
      "chip": "ym2612"
    },
    {
      "channel": 4,
      "note": 46,
      "start": 13.6512,
      "duration": 0.0017,
      "velocity": 111,
      "chip": "ym2612"
    },
    {
      "channel": 0,
      "note": 44,
      "start": 13.6525,
      "duration": 0.0022,
      "velocity": 115,
      "chip": "ym2612"
    },
    {
      "channel": 2,
      "note": 73,
      "start": 13.6528,
      "duration": 0.0041,
      "velocity": 115,
      "chip": "ym2612"
    },
    {
      "channel": 4,
      "note": 44,
      "start": 13.6532,
      "duration": 0.0017,
      "velocity": 111,
      "chip": "ym2612"
    },
    {
      "channel": 0,
      "note": 48,
      "start": 13.6549,
      "duration": 0.0034,
      "velocity": 115,
      "chip": "ym2612"
    },
    {
      "channel": 4,
      "note": 48,
      "start": 13.6551,
      "duration": 0.0048,
      "velocity": 111,
      "chip": "ym2612"
    },
    {
      "channel": 2,
      "note": 72,
      "start": 13.657,
      "duration": 0.0052,
      "velocity": 115,
      "chip": "ym2612"
    },
    {
      "channel": 0,
      "note": 43,
      "start": 13.6585,
      "duration": 0.0032,
      "velocity": 115,
      "chip": "ym2612"
    },
    {
      "channel": 1,
      "note": 79,
      "start": 13.6595,
      "duration": 0.0145,
      "velocity": 114,
      "chip": "ym2612"
    },
    {
      "channel": 3,
      "note": 60,
      "start": 13.6598,
      "duration": 0.007,
      "velocity": 104,
      "chip": "ym2612"
    },
    {
      "channel": 4,
      "note": 43,
      "start": 13.6601,
      "duration": 0.0024,
      "velocity": 111,
      "chip": "ym2612"
    },
    {
      "channel": 0,
      "note": 47,
      "start": 13.662,
      "duration": 0.0013,
      "velocity": 115,
      "chip": "ym2612"
    },
    {
      "channel": 2,
      "note": 71,
      "start": 13.6624,
      "duration": 0.0022,
      "velocity": 115,
      "chip": "ym2612"
    },
    {
      "channel": 4,
      "note": 47,
      "start": 13.6626,
      "duration": 0.001,
      "velocity": 111,
      "chip": "ym2612"
    },
    {
      "channel": 0,
      "note": 48,
      "start": 13.6634,
      "duration": 0.0016,
      "velocity": 115,
      "chip": "ym2612"
    },
    {
      "channel": 4,
      "note": 48,
      "start": 13.6637,
      "duration": 0.0016,
      "velocity": 111,
      "chip": "ym2612"
    },
    {
      "channel": 2,
      "note": 70,
      "start": 13.6648,
      "duration": 0.0018,
      "velocity": 115,
      "chip": "ym2612"
    },
    {
      "channel": 0,
      "note": 49,
      "start": 13.6652,
      "duration": 0.0011,
      "velocity": 115,
      "chip": "ym2612"
    },
    {
      "channel": 4,
      "note": 49,
      "start": 13.6655,
      "duration": 0.0014,
      "velocity": 111,
      "chip": "ym2612"
    },
    {
      "channel": 0,
      "note": 47,
      "start": 13.6665,
      "duration": 0.002,
      "velocity": 115,
      "chip": "ym2612"
    },
    {
      "channel": 2,
      "note": 69,
      "start": 13.6667,
      "duration": 0.0027,
      "velocity": 115,
      "chip": "ym2612"
    },
    {
      "channel": 4,
      "note": 47,
      "start": 13.667,
      "duration": 0.0017,
      "velocity": 111,
      "chip": "ym2612"
    },
    {
      "channel": 0,
      "note": 49,
      "start": 13.6686,
      "duration": 0.0013,
      "velocity": 115,
      "chip": "ym2612"
    },
    {
      "channel": 4,
      "note": 49,
      "start": 13.6689,
      "duration": 0.0012,
      "velocity": 111,
      "chip": "ym2612"
    },
    {
      "channel": 2,
      "note": 68,
      "start": 13.6696,
      "duration": 0.0019,
      "velocity": 115,
      "chip": "ym2612"
    },
    {
      "channel": 0,
      "note": 44,
      "start": 13.6701,
      "duration": 0.0011,
      "velocity": 115,
      "chip": "ym2612"
    },
    {
      "channel": 4,
      "note": 44,
      "start": 13.6703,
      "duration": 0.0015,
      "velocity": 111,
      "chip": "ym2612"
    },
    {
      "channel": 0,
      "note": 48,
      "start": 13.6714,
      "duration": 0.0018,
      "velocity": 115,
      "chip": "ym2612"
    },
    {
      "channel": 2,
      "note": 67,
      "start": 13.6717,
      "duration": 0.0027,
      "velocity": 115,
      "chip": "ym2612"
    },
    {
      "channel": 4,
      "note": 48,
      "start": 13.672,
      "duration": 0.0028,
      "velocity": 111,
      "chip": "ym2612"
    },
    {
      "channel": 0,
      "note": 43,
      "start": 13.6733,
      "duration": 0.0037,
      "velocity": 115,
      "chip": "ym2612"
    },
    {
      "channel": 1,
      "note": 85,
      "start": 13.6742,
      "duration": 0.0191,
      "velocity": 113,
      "chip": "ym2612"
    },
    {
      "channel": 2,
      "note": 67,
      "start": 13.6746,
      "duration": 0.0034,
      "velocity": 115,
      "chip": "ym2612"
    },
    {
      "channel": 3,
      "note": 62,
      "start": 13.6748,
      "duration": 0.0083,
      "velocity": 104,
      "chip": "ym2612"
    },
    {
      "channel": 4,
      "note": 43,
      "start": 13.675,
      "duration": 0.0024,
      "velocity": 111,
      "chip": "ym2612"
    },
    {
      "channel": 0,
      "note": 47,
      "start": 13.6773,
      "duration": 0.0016,
      "velocity": 115,
      "chip": "ym2612"
    },
    {
      "channel": 4,
      "note": 47,
      "start": 13.6776,
      "duration": 0.0018,
      "velocity": 111,
      "chip": "ym2612"
    },
    {
      "channel": 2,
      "note": 68,
      "start": 13.6781,
      "duration": 0.0034,
      "velocity": 115,
      "chip": "ym2612"
    },
    {
      "channel": 0,
      "note": 48,
      "start": 13.6791,
      "duration": 0.002,
      "velocity": 115,
      "chip": "ym2612"
    },
    {
      "channel": 4,
      "note": 48,
      "start": 13.6795,
      "duration": 0.0022,
      "velocity": 111,
      "chip": "ym2612"
    },
    {
      "channel": 0,
      "note": 49,
      "start": 13.6814,
      "duration": 0.0015,
      "velocity": 115,
      "chip": "ym2612"
    },
    {
      "channel": 2,
      "note": 69,
      "start": 13.6817,
      "duration": 0.0028,
      "velocity": 115,
      "chip": "ym2612"
    },
    {
      "channel": 4,
      "note": 49,
      "start": 13.682,
      "duration": 0.0013,
      "velocity": 111,
      "chip": "ym2612"
    },
    {
      "channel": 0,
      "note": 47,
      "start": 13.683,
      "duration": 0.0018,
      "velocity": 115,
      "chip": "ym2612"
    },
    {
      "channel": 4,
      "note": 47,
      "start": 13.6835,
      "duration": 0.0016,
      "velocity": 111,
      "chip": "ym2612"
    },
    {
      "channel": 2,
      "note": 70,
      "start": 13.6846,
      "duration": 0.0019,
      "velocity": 115,
      "chip": "ym2612"
    },
    {
      "channel": 0,
      "note": 46,
      "start": 13.685,
      "duration": 0.0012,
      "velocity": 115,
      "chip": "ym2612"
    },
    {
      "channel": 4,
      "note": 46,
      "start": 13.6852,
      "duration": 0.0015,
      "velocity": 111,
      "chip": "ym2612"
    },
    {
      "channel": 0,
      "note": 44,
      "start": 13.6864,
      "duration": 0.002,
      "velocity": 115,
      "chip": "ym2612"
    },
    {
      "channel": 2,
      "note": 71,
      "start": 13.6866,
      "duration": 0.0033,
      "velocity": 115,
      "chip": "ym2612"
    },
    {
      "channel": 4,
      "note": 44,
      "start": 13.6868,
      "duration": 0.0018,
      "velocity": 111,
      "chip": "ym2612"
    },
    {
      "channel": 0,
      "note": 48,
      "start": 13.6886,
      "duration": 0.0038,
      "velocity": 115,
      "chip": "ym2612"
    },
    {
      "channel": 4,
      "note": 48,
      "start": 13.6887,
      "duration": 0.0051,
      "velocity": 111,
      "chip": "ym2612"
    },
    {
      "channel": 2,
      "note": 72,
      "start": 13.6901,
      "duration": 0.006,
      "velocity": 115,
      "chip": "ym2612"
    },
    {
      "channel": 0,
      "note": 43,
      "start": 13.6926,
      "duration": 0.003,
      "velocity": 115,
      "chip": "ym2612"
    },
    {
      "channel": 1,
      "note": 81,
      "start": 13.6935,
      "duration": 0.0158,
      "velocity": 114,
      "chip": "ym2612"
    },
    {
      "channel": 3,
      "note": 62,
      "start": 13.6937,
      "duration": 0.0076,
      "velocity": 104,
      "chip": "ym2612"
    },
    {
      "channel": 4,
      "note": 43,
      "start": 13.6941,
      "duration": 0.0022,
      "velocity": 111,
      "chip": "ym2612"
    },
    {
      "channel": 0,
      "note": 47,
      "start": 13.6958,
      "duration": 0.0014,
      "velocity": 115,
      "chip": "ym2612"
    },
    {
      "channel": 2,
      "note": 73,
      "start": 13.6962,
      "duration": 0.0027,
      "velocity": 115,
      "chip": "ym2612"
    },
    {
      "channel": 4,
      "note": 47,
      "start": 13.6965,
      "duration": 0.001,
      "velocity": 111,
      "chip": "ym2612"
    },
    {
      "channel": 0,
      "note": 48,
      "start": 13.6974,
      "duration": 0.0019,
      "velocity": 115,
      "chip": "ym2612"
    },
    {
      "channel": 4,
      "note": 48,
      "start": 13.6976,
      "duration": 0.002,
      "velocity": 111,
      "chip": "ym2612"
    },
    {
      "channel": 2,
      "note": 75,
      "start": 13.6991,
      "duration": 0.002,
      "velocity": 115,
      "chip": "ym2612"
    },
    {
      "channel": 0,
      "note": 49,
      "start": 13.6995,
      "duration": 0.0012,
      "velocity": 115,
      "chip": "ym2612"
    },
    {
      "channel": 4,
      "note": 49,
      "start": 13.6998,
      "duration": 0.0017,
      "velocity": 111,
      "chip": "ym2612"
    },
    {
      "channel": 0,
      "note": 47,
      "start": 13.7009,
      "duration": 0.0022,
      "velocity": 115,
      "chip": "ym2612"
    },
    {
      "channel": 2,
      "note": 76,
      "start": 13.7012,
      "duration": 0.0032,
      "velocity": 115,
      "chip": "ym2612"
    },
    {
      "channel": 4,
      "note": 47,
      "start": 13.7016,
      "duration": 0.0018,
      "velocity": 111,
      "chip": "ym2612"
    },
    {
      "channel": 0,
      "note": 51,
      "start": 13.7033,
      "duration": 0.0015,
      "velocity": 115,
      "chip": "ym2612"
    },
    {
      "channel": 4,
      "note": 51,
      "start": 13.7035,
      "duration": 0.0016,
      "velocity": 111,
      "chip": "ym2612"
    },
    {
      "channel": 2,
      "note": 77,
      "start": 13.7046,
      "duration": 0.0023,
      "velocity": 115,
      "chip": "ym2612"
    },
    {
      "channel": 0,
      "note": 49,
      "start": 13.705,
      "duration": 0.0015,
      "velocity": 115,
      "chip": "ym2612"
    },
    {
      "channel": 4,
      "note": 49,
      "start": 13.7053,
      "duration": 0.0018,
      "velocity": 111,
      "chip": "ym2612"
    },
    {
      "channel": 0,
      "note": 47,
      "start": 13.7067,
      "duration": 0.0017,
      "velocity": 115,
      "chip": "ym2612"
    },
    {
      "channel": 2,
      "note": 78,
      "start": 13.7071,
      "duration": 0.0026,
      "velocity": 115,
      "chip": "ym2612"
    },
    {
      "channel": 4,
      "note": 47,
      "start": 13.7074,
      "duration": 0.0027,
      "velocity": 111,
      "chip": "ym2612"
    },
    {
      "channel": 0,
      "note": 43,
      "start": 13.7086,
      "duration": 0.0037,
      "velocity": 115,
      "chip": "ym2612"
    },
    {
      "channel": 1,
      "note": 84,
      "start": 13.7094,
      "duration": 0.0188,
      "velocity": 113,
      "chip": "ym2612"
    },
    {
      "channel": 2,
      "note": 77,
      "start": 13.7098,
      "duration": 0.0033,
      "velocity": 115,
      "chip": "ym2612"
    },
    {
      "channel": 3,
      "note": 60,
      "start": 13.71,
      "duration": 0.0079,
      "velocity": 104,
      "chip": "ym2612"
    },
    {
      "channel": 4,
      "note": 43,
      "start": 13.7102,
      "duration": 0.0023,
      "velocity": 111,
      "chip": "ym2612"
    },
    {
      "channel": 0,
      "note": 47,
      "start": 13.7125,
      "duration": 0.0014,
      "velocity": 115,
      "chip": "ym2612"
    },
    {
      "channel": 4,
      "note": 47,
      "start": 13.7126,
      "duration": 0.0017,
      "velocity": 111,
      "chip": "ym2612"
    },
    {
      "channel": 2,
      "note": 76,
      "start": 13.7132,
      "duration": 0.0032,
      "velocity": 115,
      "chip": "ym2612"
    },
    {
      "channel": 0,
      "note": 48,
      "start": 13.7141,
      "duration": 0.002,
      "velocity": 115,
      "chip": "ym2612"
    },
    {
      "channel": 4,
      "note": 48,
      "start": 13.7145,
      "duration": 0.0022,
      "velocity": 111,
      "chip": "ym2612"
    },
    {
      "channel": 0,
      "note": 49,
      "start": 13.7163,
      "duration": 0.0013,
      "velocity": 115,
      "chip": "ym2612"
    },
    {
      "channel": 2,
      "note": 75,
      "start": 13.7166,
      "duration": 0.0026,
      "velocity": 115,
      "chip": "ym2612"
    },
    {
      "channel": 4,
      "note": 49,
      "start": 13.7168,
      "duration": 0.0011,
      "velocity": 111,
      "chip": "ym2612"
    },
    {
      "channel": 0,
      "note": 47,
      "start": 13.7178,
      "duration": 0.0018,
      "velocity": 115,
      "chip": "ym2612"
    },
    {
      "channel": 4,
      "note": 47,
      "start": 13.7181,
      "duration": 0.0018,
      "velocity": 111,
      "chip": "ym2612"
    },
    {
      "channel": 2,
      "note": 74,
      "start": 13.7193,
      "duration": 0.0021,
      "velocity": 115,
      "chip": "ym2612"
    },
    {
      "channel": 0,
      "note": 46,
      "start": 13.7198,
      "duration": 0.0015,
      "velocity": 115,
      "chip": "ym2612"
    },
    {
      "channel": 4,
      "note": 46,
      "start": 13.7201,
      "duration": 0.0017,
      "velocity": 111,
      "chip": "ym2612"
    },
    {
      "channel": 0,
      "note": 44,
      "start": 13.7214,
      "duration": 0.002,
      "velocity": 115,
      "chip": "ym2612"
    },
    {
      "channel": 2,
      "note": 73,
      "start": 13.7217,
      "duration": 0.0042,
      "velocity": 115,
      "chip": "ym2612"
    },
    {
      "channel": 4,
      "note": 44,
      "start": 13.7218,
      "duration": 0.0019,
      "velocity": 111,
      "chip": "ym2612"
    },
    {
      "channel": 0,
      "note": 48,
      "start": 13.7236,
      "duration": 0.0037,
      "velocity": 115,
      "chip": "ym2612"
    },
    {
      "channel": 4,
      "note": 48,
      "start": 13.7239,
      "duration": 0.0048,
      "velocity": 111,
      "chip": "ym2612"
    },
    {
      "channel": 2,
      "note": 72,
      "start": 13.726,
      "duration": 0.0049,
      "velocity": 115,
      "chip": "ym2612"
    },
    {
      "channel": 0,
      "note": 43,
      "start": 13.7274,
      "duration": 0.0032,
      "velocity": 115,
      "chip": "ym2612"
    },
    {
      "channel": 1,
      "note": 79,
      "start": 13.7284,
      "duration": 0.0148,
      "velocity": 114,
      "chip": "ym2612"
    },
    {
      "channel": 3,
      "note": 60,
      "start": 13.7286,
      "duration": 0.0071,
      "velocity": 104,
      "chip": "ym2612"
    },
    {
      "channel": 4,
      "note": 43,
      "start": 13.729,
      "duration": 0.0022,
      "velocity": 111,
      "chip": "ym2612"
    },
    {
      "channel": 0,
      "note": 47,
      "start": 13.7308,
      "duration": 0.0012,
      "velocity": 115,
      "chip": "ym2612"
    },
    {
      "channel": 2,
      "note": 71,
      "start": 13.731,
      "duration": 0.0023,
      "velocity": 115,
      "chip": "ym2612"
    },
    {
      "channel": 4,
      "note": 47,
      "start": 13.7313,
      "duration": 0.001,
      "velocity": 111,
      "chip": "ym2612"
    },
    {
      "channel": 0,
      "note": 48,
      "start": 13.7322,
      "duration": 0.0015,
      "velocity": 115,
      "chip": "ym2612"
    },
    {
      "channel": 4,
      "note": 48,
      "start": 13.7324,
      "duration": 0.0017,
      "velocity": 111,
      "chip": "ym2612"
    },
    {
      "channel": 2,
      "note": 70,
      "start": 13.7335,
      "duration": 0.002,
      "velocity": 115,
      "chip": "ym2612"
    },
    {
      "channel": 0,
      "note": 49,
      "start": 13.7339,
      "duration": 0.0013,
      "velocity": 115,
      "chip": "ym2612"
    },
    {
      "channel": 4,
      "note": 49,
      "start": 13.7342,
      "duration": 0.0016,
      "velocity": 111,
      "chip": "ym2612"
    },
    {
      "channel": 0,
      "note": 47,
      "start": 13.7354,
      "duration": 0.0022,
      "velocity": 115,
      "chip": "ym2612"
    },
    {
      "channel": 2,
      "note": 69,
      "start": 13.7357,
      "duration": 0.0033,
      "velocity": 115,
      "chip": "ym2612"
    },
    {
      "channel": 4,
      "note": 47,
      "start": 13.736,
      "duration": 0.0019,
      "velocity": 111,
      "chip": "ym2612"
    },
    {
      "channel": 0,
      "note": 49,
      "start": 13.7379,
      "duration": 0.0015,
      "velocity": 115,
      "chip": "ym2612"
    },
    {
      "channel": 4,
      "note": 49,
      "start": 13.7381,
      "duration": 0.0015,
      "velocity": 111,
      "chip": "ym2612"
    },
    {
      "channel": 2,
      "note": 68,
      "start": 13.7391,
      "duration": 0.002,
      "velocity": 115,
      "chip": "ym2612"
    },
    {
      "channel": 0,
      "note": 44,
      "start": 13.7395,
      "duration": 0.0011,
      "velocity": 115,
      "chip": "ym2612"
    },
    {
      "channel": 4,
      "note": 44,
      "start": 13.7398,
      "duration": 0.0015,
      "velocity": 111,
      "chip": "ym2612"
    },
    {
      "channel": 0,
      "note": 48,
      "start": 13.7409,
      "duration": 0.0015,
      "velocity": 115,
      "chip": "ym2612"
    },
    {
      "channel": 2,
      "note": 67,
      "start": 13.7412,
      "duration": 0.0024,
      "velocity": 115,
      "chip": "ym2612"
    },
    {
      "channel": 4,
      "note": 48,
      "start": 13.7415,
      "duration": 0.0024,
      "velocity": 111,
      "chip": "ym2612"
    },
    {
      "channel": 0,
      "note": 43,
      "start": 13.7425,
      "duration": 0.0035,
      "velocity": 115,
      "chip": "ym2612"
    },
    {
      "channel": 1,
      "note": 85,
      "start": 13.7434,
      "duration": 0.0189,
      "velocity": 113,
      "chip": "ym2612"
    },
    {
      "channel": 2,
      "note": 67,
      "start": 13.7437,
      "duration": 0.0029,
      "velocity": 115,
      "chip": "ym2612"
    },
    {
      "channel": 3,
      "note": 62,
      "start": 13.7439,
      "duration": 0.008,
      "velocity": 104,
      "chip": "ym2612"
    },
    {
      "channel": 4,
      "note": 43,
      "start": 13.7441,
      "duration": 0.0021,
      "velocity": 111,
      "chip": "ym2612"
    },
    {
      "channel": 0,
      "note": 47,
      "start": 13.7461,
      "duration": 0.0014,
      "velocity": 115,
      "chip": "ym2612"
    },
    {
      "channel": 4,
      "note": 47,
      "start": 13.7463,
      "duration": 0.0017,
      "velocity": 111,
      "chip": "ym2612"
    },
    {
      "channel": 2,
      "note": 68,
      "start": 13.7469,
      "duration": 0.0033,
      "velocity": 115,
      "chip": "ym2612"
    },
    {
      "channel": 0,
      "note": 48,
      "start": 13.7477,
      "duration": 0.002,
      "velocity": 115,
      "chip": "ym2612"
    },
    {
      "channel": 4,
      "note": 48,
      "start": 13.7482,
      "duration": 0.0022,
      "velocity": 111,
      "chip": "ym2612"
    },
    {
      "channel": 0,
      "note": 49,
      "start": 13.75,
      "duration": 0.0017,
      "velocity": 115,
      "chip": "ym2612"
    },
    {
      "channel": 2,
      "note": 69,
      "start": 13.7503,
      "duration": 0.0029,
      "velocity": 115,
      "chip": "ym2612"
    },
    {
      "channel": 4,
      "note": 49,
      "start": 13.7506,
      "duration": 0.0013,
      "velocity": 111,
      "chip": "ym2612"
    },
    {
      "channel": 0,
      "note": 47,
      "start": 13.7518,
      "duration": 0.0018,
      "velocity": 115,
      "chip": "ym2612"
    },
    {
      "channel": 4,
      "note": 47,
      "start": 13.7521,
      "duration": 0.0019,
      "velocity": 111,
      "chip": "ym2612"
    },
    {
      "channel": 2,
      "note": 70,
      "start": 13.7534,
      "duration": 0.0022,
      "velocity": 115,
      "chip": "ym2612"
    },
    {
      "channel": 0,
      "note": 46,
      "start": 13.7539,
      "duration": 0.0014,
      "velocity": 115,
      "chip": "ym2612"
    },
    {
      "channel": 4,
      "note": 46,
      "start": 13.7542,
      "duration": 0.0016,
      "velocity": 111,
      "chip": "ym2612"
    },
    {
      "channel": 0,
      "note": 44,
      "start": 13.7554,
      "duration": 0.0021,
      "velocity": 115,
      "chip": "ym2612"
    },
    {
      "channel": 2,
      "note": 71,
      "start": 13.7557,
      "duration": 0.0033,
      "velocity": 115,
      "chip": "ym2612"
    },
    {
      "channel": 4,
      "note": 44,
      "start": 13.756,
      "duration": 0.0019,
      "velocity": 111,
      "chip": "ym2612"
    },
    {
      "channel": 0,
      "note": 48,
      "start": 13.7578,
      "duration": 0.0036,
      "velocity": 115,
      "chip": "ym2612"
    },
    {
      "channel": 4,
      "note": 48,
      "start": 13.758,
      "duration": 0.0048,
      "velocity": 111,
      "chip": "ym2612"
    },
    {
      "channel": 2,
      "note": 72,
      "start": 13.7592,
      "duration": 0.0059,
      "velocity": 115,
      "chip": "ym2612"
    },
    {
      "channel": 0,
      "note": 43,
      "start": 13.7616,
      "duration": 0.0031,
      "velocity": 115,
      "chip": "ym2612"
    },
    {
      "channel": 1,
      "note": 81,
      "start": 13.7625,
      "duration": 0.0282,
      "velocity": 114,
      "chip": "ym2612"
    },
    {
      "channel": 3,
      "note": 62,
      "start": 13.7627,
      "duration": 0.0074,
      "velocity": 104,
      "chip": "ym2612"
    },
    {
      "channel": 4,
      "note": 43,
      "start": 13.763,
      "duration": 0.0023,
      "velocity": 111,
      "chip": "ym2612"
    },
    {
      "channel": 0,
      "note": 47,
      "start": 13.7649,
      "duration": 0.0015,
      "velocity": 115,
      "chip": "ym2612"
    },
    {
      "channel": 2,
      "note": 73,
      "start": 13.7652,
      "duration": 0.0022,
      "velocity": 115,
      "chip": "ym2612"
    },
    {
      "channel": 4,
      "note": 47,
      "start": 13.7656,
      "duration": 0.0011,
      "velocity": 111,
      "chip": "ym2612"
    },
    {
      "channel": 0,
      "note": 48,
      "start": 13.7665,
      "duration": 0.0013,
      "velocity": 115,
      "chip": "ym2612"
    },
    {
      "channel": 4,
      "note": 48,
      "start": 13.7668,
      "duration": 0.0013,
      "velocity": 111,
      "chip": "ym2612"
    },
    {
      "channel": 2,
      "note": 75,
      "start": 13.7675,
      "duration": 0.0024,
      "velocity": 115,
      "chip": "ym2612"
    },
    {
      "channel": 0,
      "note": 49,
      "start": 13.768,
      "duration": 0.0015,
      "velocity": 115,
      "chip": "ym2612"
    },
    {
      "channel": 4,
      "note": 49,
      "start": 13.7683,
      "duration": 0.0018,
      "velocity": 111,
      "chip": "ym2612"
    },
    {
      "channel": 0,
      "note": 47,
      "start": 13.7697,
      "duration": 0.0023,
      "velocity": 115,
      "chip": "ym2612"
    },
    {
      "channel": 2,
      "note": 76,
      "start": 13.77,
      "duration": 0.0029,
      "velocity": 115,
      "chip": "ym2612"
    },
    {
      "channel": 4,
      "note": 47,
      "start": 13.7702,
      "duration": 0.0019,
      "velocity": 111,
      "chip": "ym2612"
    },
    {
      "channel": 0,
      "note": 51,
      "start": 13.7721,
      "duration": 0.0012,
      "velocity": 115,
      "chip": "ym2612"
    },
    {
      "channel": 4,
      "note": 51,
      "start": 13.7723,
      "duration": 0.0012,
      "velocity": 111,
      "chip": "ym2612"
    },
    {
      "channel": 2,
      "note": 77,
      "start": 13.773,
      "duration": 0.0016,
      "velocity": 115,
      "chip": "ym2612"
    },
    {
      "channel": 0,
      "note": 49,
      "start": 13.7734,
      "duration": 0.0008,
      "velocity": 115,
      "chip": "ym2612"
    },
    {
      "channel": 4,
      "note": 49,
      "start": 13.7736,
      "duration": 0.0011,
      "velocity": 111,
      "chip": "ym2612"
    },
    {
      "channel": 0,
      "note": 47,
      "start": 13.7744,
      "duration": 0.0153,
      "velocity": 115,
      "chip": "ym2612"
    },
    {
      "channel": 2,
      "note": 78,
      "start": 13.7746,
      "duration": 0.0171,
      "velocity": 111,
      "chip": "ym2612"
    },
    {
      "channel": 4,
      "note": 47,
      "start": 13.7749,
      "duration": 0.0174,
      "velocity": 111,
      "chip": "ym2612"
    },
    {
      "channel": 0,
      "note": 44,
      "start": 13.7899,
      "duration": 0.0056,
      "velocity": 115,
      "chip": "ym2612"
    },
    {
      "channel": 1,
      "note": 85,
      "start": 13.7909,
      "duration": 0.0268,
      "velocity": 113,
      "chip": "ym2612"
    },
    {
      "channel": 2,
      "note": 75,
      "start": 13.7919,
      "duration": 0.0025,
      "velocity": 111,
      "chip": "ym2612"
    },
    {
      "channel": 3,
      "note": 61,
      "start": 13.7922,
      "duration": 0.0123,
      "velocity": 104,
      "chip": "ym2612"
    },
    {
      "channel": 4,
      "note": 44,
      "start": 13.7925,
      "duration": 0.0034,
      "velocity": 111,
      "chip": "ym2612"
    },
    {
      "channel": 2,
      "note": 71,
      "start": 13.7946,
      "duration": 0.0012,
      "velocity": 111,
      "chip": "ym2612"
    },
    {
      "channel": 0,
      "note": 48,
      "start": 13.7957,
      "duration": 0.0024,
      "velocity": 115,
      "chip": "ym2612"
    },
    {
      "channel": 2,
      "note": 72,
      "start": 13.7959,
      "duration": 0.0011,
      "velocity": 111,
      "chip": "ym2612"
    },
    {
      "channel": 4,
      "note": 48,
      "start": 13.7961,
      "duration": 0.0025,
      "velocity": 111,
      "chip": "ym2612"
    },
    {
      "channel": 2,
      "note": 73,
      "start": 13.7972,
      "duration": 0.0011,
      "velocity": 111,
      "chip": "ym2612"
    },
    {
      "channel": 0,
      "note": 49,
      "start": 13.7983,
      "duration": 0.003,
      "velocity": 115,
      "chip": "ym2612"
    },
    {
      "channel": 2,
      "note": 75,
      "start": 13.7985,
      "duration": 0.002,
      "velocity": 111,
      "chip": "ym2612"
    },
    {
      "channel": 4,
      "note": 49,
      "start": 13.7988,
      "duration": 0.003,
      "velocity": 111,
      "chip": "ym2612"
    },
    {
      "channel": 2,
      "note": 70,
      "start": 13.8006,
      "duration": 0.0008,
      "velocity": 111,
      "chip": "ym2612"
    },
    {
      "channel": 0,
      "note": 50,
      "start": 13.8014,
      "duration": 0.0027,
      "velocity": 115,
      "chip": "ym2612"
    },
    {
      "channel": 2,
      "note": 74,
      "start": 13.8017,
      "duration": 0.0015,
      "velocity": 111,
      "chip": "ym2612"
    },
    {
      "channel": 4,
      "note": 50,
      "start": 13.8019,
      "duration": 0.0027,
      "velocity": 111,
      "chip": "ym2612"
    },
    {
      "channel": 2,
      "note": 72,
      "start": 13.8033,
      "duration": 0.001,
      "velocity": 111,
      "chip": "ym2612"
    },
    {
      "channel": 0,
      "note": 48,
      "start": 13.8042,
      "duration": 0.0029,
      "velocity": 115,
      "chip": "ym2612"
    },
    {
      "channel": 2,
      "note": 78,
      "start": 13.8044,
      "duration": 0.0017,
      "velocity": 111,
      "chip": "ym2612"
    },
    {
      "channel": 4,
      "note": 48,
      "start": 13.8047,
      "duration": 0.0028,
      "velocity": 111,
      "chip": "ym2612"
    },
    {
      "channel": 2,
      "note": 71,
      "start": 13.8063,
      "duration": 0.0009,
      "velocity": 111,
      "chip": "ym2612"
    },
    {
      "channel": 0,
      "note": 47,
      "start": 13.8072,
      "duration": 0.0024,
      "velocity": 115,
      "chip": "ym2612"
    },
    {
      "channel": 2,
      "note": 74,
      "start": 13.8074,
      "duration": 0.0013,
      "velocity": 111,
      "chip": "ym2612"
    },
    {
      "channel": 4,
      "note": 47,
      "start": 13.8076,
      "duration": 0.0024,
      "velocity": 111,
      "chip": "ym2612"
    },
    {
      "channel": 2,
      "note": 73,
      "start": 13.8089,
      "duration": 0.001,
      "velocity": 111,
      "chip": "ym2612"
    },
    {
      "channel": 0,
      "note": 45,
      "start": 13.8098,
      "duration": 0.0027,
      "velocity": 115,
      "chip": "ym2612"
    },
    {
      "channel": 2,
      "note": 76,
      "start": 13.81,
      "duration": 0.0016,
      "velocity": 111,
      "chip": "ym2612"
    },
    {
      "channel": 4,
      "note": 45,
      "start": 13.8102,
      "duration": 0.003,
      "velocity": 111,
      "chip": "ym2612"
    },
    {
      "channel": 2,
      "note": 73,
      "start": 13.8117,
      "duration": 0.0011,
      "velocity": 111,
      "chip": "ym2612"
    },
    {
      "channel": 0,
      "note": 49,
      "start": 13.8128,
      "duration": 0.0041,
      "velocity": 115,
      "chip": "ym2612"
    },
    {
      "channel": 2,
      "note": 75,
      "start": 13.8131,
      "duration": 0.0016,
      "velocity": 111,
      "chip": "ym2612"
    },
    {
      "channel": 4,
      "note": 49,
      "start": 13.8134,
      "duration": 0.0057,
      "velocity": 111,
      "chip": "ym2612"
    },
    {
      "channel": 2,
      "note": 72,
      "start": 13.8148,
      "duration": 0.0038,
      "velocity": 109,
      "chip": "ym2612"
    },
    {
      "channel": 0,
      "note": 44,
      "start": 13.817,
      "duration": 0.0046,
      "velocity": 115,
      "chip": "ym2612"
    },
    {
      "channel": 1,
      "note": 80,
      "start": 13.8178,
      "duration": 0.0205,
      "velocity": 114,
      "chip": "ym2612"
    },
    {
      "channel": 2,
      "note": 68,
      "start": 13.8187,
      "duration": 0.0021,
      "velocity": 109,
      "chip": "ym2612"
    },
    {
      "channel": 3,
      "note": 61,
      "start": 13.819,
      "duration": 0.0104,
      "velocity": 104,
      "chip": "ym2612"
    },
    {
      "channel": 4,
      "note": 44,
      "start": 13.8193,
      "duration": 0.0028,
      "velocity": 111,
      "chip": "ym2612"
    },
    {
      "channel": 2,
      "note": 64,
      "start": 13.8211,
      "duration": 0.0008,
      "velocity": 109,
      "chip": "ym2612"
    },
    {
      "channel": 0,
      "note": 48,
      "start": 13.8218,
      "duration": 0.0017,
      "velocity": 115,
      "chip": "ym2612"
    },
    {
      "channel": 2,
      "note": 61,
      "start": 13.822,
      "duration": 0.0007,
      "velocity": 109,
      "chip": "ym2612"
    },
    {
      "channel": 4,
      "note": 48,
      "start": 13.8222,
      "duration": 0.0019,
      "velocity": 111,
      "chip": "ym2612"
    },
    {
      "channel": 2,
      "note": 66,
      "start": 13.8229,
      "duration": 0.0009,
      "velocity": 109,
      "chip": "ym2612"
    },
    {
      "channel": 0,
      "note": 49,
      "start": 13.8236,
      "duration": 0.003,
      "velocity": 115,
      "chip": "ym2612"
    },
    {
      "channel": 2,
      "note": 62,
      "start": 13.824,
      "duration": 0.0021,
      "velocity": 109,
      "chip": "ym2612"
    },
    {
      "channel": 4,
      "note": 49,
      "start": 13.8244,
      "duration": 0.0027,
      "velocity": 111,
      "chip": "ym2612"
    },
    {
      "channel": 2,
      "note": 64,
      "start": 13.8262,
      "duration": 0.0007,
      "velocity": 109,
      "chip": "ym2612"
    },
    {
      "channel": 0,
      "note": 50,
      "start": 13.8268,
      "duration": 0.0022,
      "velocity": 115,
      "chip": "ym2612"
    },
    {
      "channel": 2,
      "note": 66,
      "start": 13.827,
      "duration": 0.0013,
      "velocity": 109,
      "chip": "ym2612"
    },
    {
      "channel": 4,
      "note": 50,
      "start": 13.8273,
      "duration": 0.0022,
      "velocity": 111,
      "chip": "ym2612"
    },
    {
      "channel": 2,
      "note": 63,
      "start": 13.8285,
      "duration": 0.0007,
      "velocity": 109,
      "chip": "ym2612"
    },
    {
      "channel": 0,
      "note": 48,
      "start": 13.8291,
      "duration": 0.0023,
      "velocity": 115,
      "chip": "ym2612"
    },
    {
      "channel": 2,
      "note": 67,
      "start": 13.8294,
      "duration": 0.0015,
      "velocity": 109,
      "chip": "ym2612"
    },
    {
      "channel": 4,
      "note": 48,
      "start": 13.8297,
      "duration": 0.0022,
      "velocity": 111,
      "chip": "ym2612"
    },
    {
      "channel": 2,
      "note": 65,
      "start": 13.8311,
      "duration": 0.0006,
      "velocity": 109,
      "chip": "ym2612"
    },
    {
      "channel": 0,
      "note": 50,
      "start": 13.8316,
      "duration": 0.0017,
      "velocity": 115,
      "chip": "ym2612"
    },
    {
      "channel": 2,
      "note": 66,
      "start": 13.8318,
      "duration": 0.0008,
      "velocity": 109,
      "chip": "ym2612"
    },
    {
      "channel": 4,
      "note": 50,
      "start": 13.8322,
      "duration": 0.0016,
      "velocity": 111,
      "chip": "ym2612"
    },
    {
      "channel": 2,
      "note": 67,
      "start": 13.8328,
      "duration": 0.0007,
      "velocity": 109,
      "chip": "ym2612"
    },
    {
      "channel": 0,
      "note": 45,
      "start": 13.8334,
      "duration": 0.0019,
      "velocity": 115,
      "chip": "ym2612"
    },
    {
      "channel": 2,
      "note": 65,
      "start": 13.8337,
      "duration": 0.0009,
      "velocity": 109,
      "chip": "ym2612"
    },
    {
      "channel": 4,
      "note": 45,
      "start": 13.834,
      "duration": 0.0018,
      "velocity": 111,
      "chip": "ym2612"
    },
    {
      "channel": 2,
      "note": 64,
      "start": 13.8347,
      "duration": 0.0009,
      "velocity": 109,
      "chip": "ym2612"
    },
    {
      "channel": 0,
      "note": 49,
      "start": 13.8355,
      "duration": 0.0021,
      "velocity": 115,
      "chip": "ym2612"
    },
    {
      "channel": 2,
      "note": 66,
      "start": 13.8357,
      "duration": 0.0012,
      "velocity": 109,
      "chip": "ym2612"
    },
    {
      "channel": 4,
      "note": 49,
      "start": 13.8359,
      "duration": 0.0038,
      "velocity": 111,
      "chip": "ym2612"
    },
    {
      "channel": 2,
      "note": 67,
      "start": 13.8371,
      "duration": 0.0021,
      "velocity": 111,
      "chip": "ym2612"
    },
    {
      "channel": 0,
      "note": 44,
      "start": 13.8377,
      "duration": 0.0045,
      "velocity": 115,
      "chip": "ym2612"
    },
    {
      "channel": 1,
      "note": 87,
      "start": 13.8385,
      "duration": 0.0264,
      "velocity": 113,
      "chip": "ym2612"
    },
    {
      "channel": 2,
      "note": 76,
      "start": 13.8394,
      "duration": 0.0021,
      "velocity": 111,
      "chip": "ym2612"
    },
    {
      "channel": 3,
      "note": 63,
      "start": 13.8396,
      "duration": 0.0114,
      "velocity": 104,
      "chip": "ym2612"
    },
    {
      "channel": 4,
      "note": 44,
      "start": 13.8398,
      "duration": 0.003,
      "velocity": 111,
      "chip": "ym2612"
    },
    {
      "channel": 2,
      "note": 74,
      "start": 13.8416,
      "duration": 0.0009,
      "velocity": 111,
      "chip": "ym2612"
    },
    {
      "channel": 0,
      "note": 48,
      "start": 13.8424,
      "duration": 0.0022,
      "velocity": 115,
      "chip": "ym2612"
    },
    {
      "channel": 2,
      "note": 72,
      "start": 13.8427,
      "duration": 0.0009,
      "velocity": 111,
      "chip": "ym2612"
    },
    {
      "channel": 4,
      "note": 48,
      "start": 13.8429,
      "duration": 0.0021,
      "velocity": 111,
      "chip": "ym2612"
    },
    {
      "channel": 2,
      "note": 73,
      "start": 13.8438,
      "duration": 0.001,
      "velocity": 111,
      "chip": "ym2612"
    },
    {
      "channel": 0,
      "note": 49,
      "start": 13.8447,
      "duration": 0.0032,
      "velocity": 115,
      "chip": "ym2612"
    },
    {
      "channel": 2,
      "note": 77,
      "start": 13.8449,
      "duration": 0.0022,
      "velocity": 111,
      "chip": "ym2612"
    },
    {
      "channel": 4,
      "note": 49,
      "start": 13.8453,
      "duration": 0.0031,
      "velocity": 111,
      "chip": "ym2612"
    },
    {
      "channel": 2,
      "note": 71,
      "start": 13.8473,
      "duration": 0.0009,
      "velocity": 111,
      "chip": "ym2612"
    },
    {
      "channel": 0,
      "note": 50,
      "start": 13.8481,
      "duration": 0.0024,
      "velocity": 115,
      "chip": "ym2612"
    },
    {
      "channel": 2,
      "note": 74,
      "start": 13.8483,
      "duration": 0.0014,
      "velocity": 111,
      "chip": "ym2612"
    },
    {
      "channel": 4,
      "note": 50,
      "start": 13.8486,
      "duration": 0.0024,
      "velocity": 111,
      "chip": "ym2612"
    },
    {
      "channel": 2,
      "note": 72,
      "start": 13.8499,
      "duration": 0.0008,
      "velocity": 111,
      "chip": "ym2612"
    },
    {
      "channel": 0,
      "note": 48,
      "start": 13.8507,
      "duration": 0.0028,
      "velocity": 115,
      "chip": "ym2612"
    },
    {
      "channel": 2,
      "note": 78,
      "start": 13.8509,
      "duration": 0.0016,
      "velocity": 111,
      "chip": "ym2612"
    },
    {
      "channel": 4,
      "note": 48,
      "start": 13.8512,
      "duration": 0.0027,
      "velocity": 111,
      "chip": "ym2612"
    },
    {
      "channel": 2,
      "note": 71,
      "start": 13.8527,
      "duration": 0.001,
      "velocity": 111,
      "chip": "ym2612"
    },
    {
      "channel": 0,
      "note": 47,
      "start": 13.8536,
      "duration": 0.0026,
      "velocity": 115,
      "chip": "ym2612"
    },
    {
      "channel": 2,
      "note": 74,
      "start": 13.8538,
      "duration": 0.0015,
      "velocity": 111,
      "chip": "ym2612"
    },
    {
      "channel": 4,
      "note": 47,
      "start": 13.8541,
      "duration": 0.0025,
      "velocity": 111,
      "chip": "ym2612"
    },
    {
      "channel": 2,
      "note": 73,
      "start": 13.8554,
      "duration": 0.001,
      "velocity": 111,
      "chip": "ym2612"
    },
    {
      "channel": 0,
      "note": 45,
      "start": 13.8564,
      "duration": 0.0029,
      "velocity": 115,
      "chip": "ym2612"
    },
    {
      "channel": 2,
      "note": 76,
      "start": 13.8566,
      "duration": 0.0017,
      "velocity": 111,
      "chip": "ym2612"
    },
    {
      "channel": 4,
      "note": 45,
      "start": 13.8568,
      "duration": 0.003,
      "velocity": 111,
      "chip": "ym2612"
    },
    {
      "channel": 2,
      "note": 77,
      "start": 13.8585,
      "duration": 0.0012,
      "velocity": 111,
      "chip": "ym2612"
    },
    {
      "channel": 0,
      "note": 49,
      "start": 13.8595,
      "duration": 0.0046,
      "velocity": 115,
      "chip": "ym2612"
    },
    {
      "channel": 2,
      "note": 75,
      "start": 13.8598,
      "duration": 0.0017,
      "velocity": 111,
      "chip": "ym2612"
    },
    {
      "channel": 4,
      "note": 49,
      "start": 13.8599,
      "duration": 0.0063,
      "velocity": 111,
      "chip": "ym2612"
    },
    {
      "channel": 2,
      "note": 73,
      "start": 13.8616,
      "duration": 0.0041,
      "velocity": 109,
      "chip": "ym2612"
    },
    {
      "channel": 0,
      "note": 44,
      "start": 13.8642,
      "duration": 0.0045,
      "velocity": 115,
      "chip": "ym2612"
    },
    {
      "channel": 1,
      "note": 80,
      "start": 13.865,
      "duration": 0.0216,
      "velocity": 114,
      "chip": "ym2612"
    },
    {
      "channel": 2,
      "note": 63,
      "start": 13.8659,
      "duration": 0.0022,
      "velocity": 109,
      "chip": "ym2612"
    },
    {
      "channel": 3,
      "note": 63,
      "start": 13.8661,
      "duration": 0.0105,
      "velocity": 104,
      "chip": "ym2612"
    },
    {
      "channel": 4,
      "note": 44,
      "start": 13.8664,
      "duration": 0.0028,
      "velocity": 111,
      "chip": "ym2612"
    },
    {
      "channel": 2,
      "note": 64,
      "start": 13.8683,
      "duration": 0.0007,
      "velocity": 109,
      "chip": "ym2612"
    },
    {
      "channel": 0,
      "note": 48,
      "start": 13.8689,
      "duration": 0.0017,
      "velocity": 115,
      "chip": "ym2612"
    },
    {
      "channel": 2,
      "note": 66,
      "start": 13.8691,
      "duration": 0.0008,
      "velocity": 109,
      "chip": "ym2612"
    },
    {
      "channel": 4,
      "note": 48,
      "start": 13.8694,
      "duration": 0.0018,
      "velocity": 111,
      "chip": "ym2612"
    },
    {
      "channel": 2,
      "note": 64,
      "start": 13.87,
      "duration": 0.0008,
      "velocity": 109,
      "chip": "ym2612"
    },
    {
      "channel": 0,
      "note": 49,
      "start": 13.8707,
      "duration": 0.0031,
      "velocity": 115,
      "chip": "ym2612"
    },
    {
      "channel": 2,
      "note": 66,
      "start": 13.8711,
      "duration": 0.002,
      "velocity": 109,
      "chip": "ym2612"
    },
    {
      "channel": 4,
      "note": 49,
      "start": 13.8715,
      "duration": 0.0029,
      "velocity": 111,
      "chip": "ym2612"
    },
    {
      "channel": 2,
      "note": 64,
      "start": 13.8733,
      "duration": 0.0009,
      "velocity": 109,
      "chip": "ym2612"
    },
    {
      "channel": 0,
      "note": 50,
      "start": 13.8741,
      "duration": 0.0021,
      "velocity": 115,
      "chip": "ym2612"
    },
    {
      "channel": 2,
      "note": 61,
      "start": 13.8743,
      "duration": 0.0012,
      "velocity": 109,
      "chip": "ym2612"
    },
    {
      "channel": 4,
      "note": 50,
      "start": 13.8746,
      "duration": 0.0021,
      "velocity": 111,
      "chip": "ym2612"
    },
    {
      "channel": 2,
      "note": 63,
      "start": 13.8757,
      "duration": 0.0007,
      "velocity": 109,
      "chip": "ym2612"
    },
    {
      "channel": 0,
      "note": 48,
      "start": 13.8763,
      "duration": 0.0024,
      "velocity": 115,
      "chip": "ym2612"
    },
    {
      "channel": 2,
      "note": 62,
      "start": 13.8766,
      "duration": 0.0015,
      "velocity": 109,
      "chip": "ym2612"
    },
    {
      "channel": 4,
      "note": 48,
      "start": 13.8769,
      "duration": 0.0024,
      "velocity": 111,
      "chip": "ym2612"
    },
    {
      "channel": 2,
      "note": 65,
      "start": 13.8782,
      "duration": 0.0009,
      "velocity": 109,
      "chip": "ym2612"
    },
    {
      "channel": 0,
      "note": 52,
      "start": 13.879,
      "duration": 0.002,
      "velocity": 115,
      "chip": "ym2612"
    },
    {
      "channel": 2,
      "note": 66,
      "start": 13.8793,
      "duration": 0.0012,
      "velocity": 109,
      "chip": "ym2612"
    },
    {
      "channel": 4,
      "note": 52,
      "start": 13.8795,
      "duration": 0.0019,
      "velocity": 111,
      "chip": "ym2612"
    },
    {
      "channel": 2,
      "note": 67,
      "start": 13.8805,
      "duration": 0.0006,
      "velocity": 109,
      "chip": "ym2612"
    },
    {
      "channel": 0,
      "note": 50,
      "start": 13.8811,
      "duration": 0.0023,
      "velocity": 115,
      "chip": "ym2612"
    },
    {
      "channel": 2,
      "note": 65,
      "start": 13.8813,
      "duration": 0.0013,
      "velocity": 109,
      "chip": "ym2612"
    },
    {
      "channel": 4,
      "note": 50,
      "start": 13.8816,
      "duration": 0.0023,
      "velocity": 111,
      "chip": "ym2612"
    },
    {
      "channel": 2,
      "note": 67,
      "start": 13.8828,
      "duration": 0.0008,
      "velocity": 109,
      "chip": "ym2612"
    },
    {
      "channel": 0,
      "note": 48,
      "start": 13.8836,
      "duration": 0.0022,
      "velocity": 115,
      "chip": "ym2612"
    },
    {
      "channel": 2,
      "note": 66,
      "start": 13.8838,
      "duration": 0.0013,
      "velocity": 109,
      "chip": "ym2612"
    },
    {
      "channel": 4,
      "note": 48,
      "start": 13.8842,
      "duration": 0.0038,
      "velocity": 111,
      "chip": "ym2612"
    },
    {
      "channel": 2,
      "note": 67,
      "start": 13.8854,
      "duration": 0.0021,
      "velocity": 111,
      "chip": "ym2612"
    },
    {
      "channel": 0,
      "note": 44,
      "start": 13.8859,
      "duration": 0.0052,
      "velocity": 115,
      "chip": "ym2612"
    },
    {
      "channel": 1,
      "note": 88,
      "start": 13.8868,
      "duration": 0.0271,
      "velocity": 113,
      "chip": "ym2612"
    },
    {
      "channel": 2,
      "note": 75,
      "start": 13.8876,
      "duration": 0.0023,
      "velocity": 111,
      "chip": "ym2612"
    },
    {
      "channel": 3,
      "note": 61,
      "start": 13.8879,
      "duration": 0.0124,
      "velocity": 104,
      "chip": "ym2612"
    },
    {
      "channel": 4,
      "note": 44,
      "start": 13.8881,
      "duration": 0.0035,
      "velocity": 111,
      "chip": "ym2612"
    },
    {
      "channel": 2,
      "note": 71,
      "start": 13.8902,
      "duration": 0.0012,
      "velocity": 111,
      "chip": "ym2612"
    },
    {
      "channel": 0,
      "note": 48,
      "start": 13.8913,
      "duration": 0.0023,
      "velocity": 115,
      "chip": "ym2612"
    },
    {
      "channel": 2,
      "note": 72,
      "start": 13.8915,
      "duration": 0.0011,
      "velocity": 111,
      "chip": "ym2612"
    },
    {
      "channel": 4,
      "note": 48,
      "start": 13.8917,
      "duration": 0.0023,
      "velocity": 111,
      "chip": "ym2612"
    },
    {
      "channel": 2,
      "note": 73,
      "start": 13.8927,
      "duration": 0.0011,
      "velocity": 111,
      "chip": "ym2612"
    },
    {
      "channel": 0,
      "note": 49,
      "start": 13.8937,
      "duration": 0.0033,
      "velocity": 115,
      "chip": "ym2612"
    },
    {
      "channel": 2,
      "note": 75,
      "start": 13.894,
      "duration": 0.0021,
      "velocity": 111,
      "chip": "ym2612"
    },
    {
      "channel": 4,
      "note": 49,
      "start": 13.8944,
      "duration": 0.0032,
      "velocity": 111,
      "chip": "ym2612"
    },
    {
      "channel": 2,
      "note": 70,
      "start": 13.8962,
      "duration": 0.0011,
      "velocity": 111,
      "chip": "ym2612"
    },
    {
      "channel": 0,
      "note": 50,
      "start": 13.8972,
      "duration": 0.0026,
      "velocity": 115,
      "chip": "ym2612"
    },
    {
      "channel": 2,
      "note": 74,
      "start": 13.8975,
      "duration": 0.0014,
      "velocity": 111,
      "chip": "ym2612"
    },
    {
      "channel": 4,
      "note": 50,
      "start": 13.8978,
      "duration": 0.0025,
      "velocity": 111,
      "chip": "ym2612"
    },
    {
      "channel": 2,
      "note": 72,
      "start": 13.899,
      "duration": 0.001,
      "velocity": 111,
      "chip": "ym2612"
    },
    {
      "channel": 0,
      "note": 48,
      "start": 13.9,
      "duration": 0.0028,
      "velocity": 115,
      "chip": "ym2612"
    },
    {
      "channel": 2,
      "note": 78,
      "start": 13.9002,
      "duration": 0.0016,
      "velocity": 111,
      "chip": "ym2612"
    },
    {
      "channel": 4,
      "note": 48,
      "start": 13.9005,
      "duration": 0.0028,
      "velocity": 111,
      "chip": "ym2612"
    },
    {
      "channel": 2,
      "note": 71,
      "start": 13.902,
      "duration": 0.001,
      "velocity": 111,
      "chip": "ym2612"
    },
    {
      "channel": 0,
      "note": 47,
      "start": 13.903,
      "duration": 0.0024,
      "velocity": 115,
      "chip": "ym2612"
    },
    {
      "channel": 2,
      "note": 74,
      "start": 13.9032,
      "duration": 0.0013,
      "velocity": 111,
      "chip": "ym2612"
    },
    {
      "channel": 4,
      "note": 47,
      "start": 13.9035,
      "duration": 0.0024,
      "velocity": 111,
      "chip": "ym2612"
    },
    {
      "channel": 2,
      "note": 73,
      "start": 13.9047,
      "duration": 0.0009,
      "velocity": 111,
      "chip": "ym2612"
    },
    {
      "channel": 0,
      "note": 45,
      "start": 13.9055,
      "duration": 0.0027,
      "velocity": 115,
      "chip": "ym2612"
    },
    {
      "channel": 2,
      "note": 76,
      "start": 13.9058,
      "duration": 0.0015,
      "velocity": 111,
      "chip": "ym2612"
    },
    {
      "channel": 4,
      "note": 45,
      "start": 13.9061,
      "duration": 0.0029,
      "velocity": 111,
      "chip": "ym2612"
    },
    {
      "channel": 2,
      "note": 73,
      "start": 13.9074,
      "duration": 0.0012,
      "velocity": 111,
      "chip": "ym2612"
    },
    {
      "channel": 0,
      "note": 49,
      "start": 13.9085,
      "duration": 0.0045,
      "velocity": 115,
      "chip": "ym2612"
    },
    {
      "channel": 2,
      "note": 75,
      "start": 13.9088,
      "duration": 0.002,
      "velocity": 111,
      "chip": "ym2612"
    },
    {
      "channel": 4,
      "note": 49,
      "start": 13.9091,
      "duration": 0.0061,
      "velocity": 111,
      "chip": "ym2612"
    },
    {
      "channel": 2,
      "note": 72,
      "start": 13.9109,
      "duration": 0.0038,
      "velocity": 109,
      "chip": "ym2612"
    },
    {
      "channel": 0,
      "note": 44,
      "start": 13.9131,
      "duration": 0.0046,
      "velocity": 115,
      "chip": "ym2612"
    },
    {
      "channel": 1,
      "note": 81,
      "start": 13.9139,
      "duration": 0.0203,
      "velocity": 114,
      "chip": "ym2612"
    },
    {
      "channel": 2,
      "note": 68,
      "start": 13.9148,
      "duration": 0.0021,
      "velocity": 109,
      "chip": "ym2612"
    },
    {
      "channel": 3,
      "note": 61,
      "start": 13.9151,
      "duration": 0.01,
      "velocity": 104,
      "chip": "ym2612"
    },
    {
      "channel": 4,
      "note": 44,
      "start": 13.9154,
      "duration": 0.0027,
      "velocity": 111,
      "chip": "ym2612"
    },
    {
      "channel": 2,
      "note": 64,
      "start": 13.9171,
      "duration": 0.0007,
      "velocity": 109,
      "chip": "ym2612"
    },
    {
      "channel": 0,
      "note": 48,
      "start": 13.9178,
      "duration": 0.0017,
      "velocity": 115,
      "chip": "ym2612"
    },
    {
      "channel": 2,
      "note": 61,
      "start": 13.918,
      "duration": 0.0007,
      "velocity": 109,
      "chip": "ym2612"
    },
    {
      "channel": 4,
      "note": 48,
      "start": 13.9182,
      "duration": 0.0019,
      "velocity": 111,
      "chip": "ym2612"
    },
    {
      "channel": 2,
      "note": 66,
      "start": 13.9189,
      "duration": 0.0009,
      "velocity": 109,
      "chip": "ym2612"
    },
    {
      "channel": 0,
      "note": 49,
      "start": 13.9196,
      "duration": 0.003,
      "velocity": 115,
      "chip": "ym2612"
    },
    {
      "channel": 2,
      "note": 62,
      "start": 13.92,
      "duration": 0.002,
      "velocity": 109,
      "chip": "ym2612"
    },
    {
      "channel": 4,
      "note": 49,
      "start": 13.9204,
      "duration": 0.0028,
      "velocity": 111,
      "chip": "ym2612"
    },
    {
      "channel": 2,
      "note": 64,
      "start": 13.9222,
      "duration": 0.0007,
      "velocity": 109,
      "chip": "ym2612"
    },
    {
      "channel": 0,
      "note": 50,
      "start": 13.9228,
      "duration": 0.0019,
      "velocity": 115,
      "chip": "ym2612"
    },
    {
      "channel": 2,
      "note": 66,
      "start": 13.9231,
      "duration": 0.0009,
      "velocity": 109,
      "chip": "ym2612"
    },
    {
      "channel": 4,
      "note": 50,
      "start": 13.9234,
      "duration": 0.0018,
      "velocity": 111,
      "chip": "ym2612"
    },
    {
      "channel": 2,
      "note": 63,
      "start": 13.9242,
      "duration": 0.0007,
      "velocity": 109,
      "chip": "ym2612"
    },
    {
      "channel": 0,
      "note": 48,
      "start": 13.9249,
      "duration": 0.0024,
      "velocity": 115,
      "chip": "ym2612"
    },
    {
      "channel": 2,
      "note": 67,
      "start": 13.9251,
      "duration": 0.0015,
      "velocity": 109,
      "chip": "ym2612"
    },
    {
      "channel": 4,
      "note": 48,
      "start": 13.9254,
      "duration": 0.0023,
      "velocity": 111,
      "chip": "ym2612"
    },
    {
      "channel": 2,
      "note": 65,
      "start": 13.9269,
      "duration": 0.0006,
      "velocity": 109,
      "chip": "ym2612"
    },
    {
      "channel": 0,
      "note": 50,
      "start": 13.9274,
      "duration": 0.0017,
      "velocity": 115,
      "chip": "ym2612"
    },
    {
      "channel": 2,
      "note": 66,
      "start": 13.9277,
      "duration": 0.0007,
      "velocity": 109,
      "chip": "ym2612"
    },
    {
      "channel": 4,
      "note": 50,
      "start": 13.9279,
      "duration": 0.0016,
      "velocity": 111,
      "chip": "ym2612"
    },
    {
      "channel": 2,
      "note": 67,
      "start": 13.9285,
      "duration": 0.0007,
      "velocity": 109,
      "chip": "ym2612"
    },
    {
      "channel": 0,
      "note": 45,
      "start": 13.9292,
      "duration": 0.0018,
      "velocity": 115,
      "chip": "ym2612"
    },
    {
      "channel": 2,
      "note": 65,
      "start": 13.9295,
      "duration": 0.0009,
      "velocity": 109,
      "chip": "ym2612"
    },
    {
      "channel": 4,
      "note": 45,
      "start": 13.9298,
      "duration": 0.0018,
      "velocity": 111,
      "chip": "ym2612"
    },
    {
      "channel": 2,
      "note": 64,
      "start": 13.9305,
      "duration": 0.0008,
      "velocity": 109,
      "chip": "ym2612"
    },
    {
      "channel": 0,
      "note": 49,
      "start": 13.9312,
      "duration": 0.0022,
      "velocity": 115,
      "chip": "ym2612"
    },
    {
      "channel": 2,
      "note": 66,
      "start": 13.9315,
      "duration": 0.0013,
      "velocity": 109,
      "chip": "ym2612"
    },
    {
      "channel": 4,
      "note": 49,
      "start": 13.9317,
      "duration": 0.0039,
      "velocity": 111,
      "chip": "ym2612"
    },
    {
      "channel": 2,
      "note": 67,
      "start": 13.9329,
      "duration": 0.0022,
      "velocity": 111,
      "chip": "ym2612"
    },
    {
      "channel": 0,
      "note": 44,
      "start": 13.9336,
      "duration": 0.0048,
      "velocity": 115,
      "chip": "ym2612"
    },
    {
      "channel": 1,
      "note": 87,
      "start": 13.9344,
      "duration": 0.0266,
      "velocity": 113,
      "chip": "ym2612"
    },
    {
      "channel": 2,
      "note": 76,
      "start": 13.9353,
      "duration": 0.002,
      "velocity": 111,
      "chip": "ym2612"
    },
    {
      "channel": 3,
      "note": 63,
      "start": 13.9355,
      "duration": 0.0116,
      "velocity": 104,
      "chip": "ym2612"
    },
    {
      "channel": 4,
      "note": 44,
      "start": 13.9358,
      "duration": 0.0032,
      "velocity": 111,
      "chip": "ym2612"
    },
    {
      "channel": 2,
      "note": 74,
      "start": 13.9376,
      "duration": 0.0011,
      "velocity": 111,
      "chip": "ym2612"
    },
    {
      "channel": 0,
      "note": 48,
      "start": 13.9386,
      "duration": 0.0021,
      "velocity": 115,
      "chip": "ym2612"
    },
    {
      "channel": 2,
      "note": 72,
      "start": 13.9388,
      "duration": 0.001,
      "velocity": 111,
      "chip": "ym2612"
    },
    {
      "channel": 4,
      "note": 48,
      "start": 13.9391,
      "duration": 0.0023,
      "velocity": 111,
      "chip": "ym2612"
    },
    {
      "channel": 2,
      "note": 73,
      "start": 13.94,
      "duration": 0.001,
      "velocity": 111,
      "chip": "ym2612"
    },
    {
      "channel": 0,
      "note": 49,
      "start": 13.941,
      "duration": 0.0034,
      "velocity": 115,
      "chip": "ym2612"
    },
    {
      "channel": 2,
      "note": 77,
      "start": 13.9413,
      "duration": 0.0021,
      "velocity": 111,
      "chip": "ym2612"
    },
    {
      "channel": 4,
      "note": 49,
      "start": 13.9417,
      "duration": 0.0032,
      "velocity": 111,
      "chip": "ym2612"
    },
    {
      "channel": 2,
      "note": 71,
      "start": 13.9436,
      "duration": 0.001,
      "velocity": 111,
      "chip": "ym2612"
    },
    {
      "channel": 0,
      "note": 50,
      "start": 13.9445,
      "duration": 0.0021,
      "velocity": 115,
      "chip": "ym2612"
    },
    {
      "channel": 2,
      "note": 74,
      "start": 13.9448,
      "duration": 0.001,
      "velocity": 111,
      "chip": "ym2612"
    },
    {
      "channel": 4,
      "note": 50,
      "start": 13.945,
      "duration": 0.0021,
      "velocity": 111,
      "chip": "ym2612"
    },
    {
      "channel": 2,
      "note": 72,
      "start": 13.9459,
      "duration": 0.001,
      "velocity": 111,
      "chip": "ym2612"
    },
    {
      "channel": 0,
      "note": 48,
      "start": 13.9468,
      "duration": 0.0027,
      "velocity": 115,
      "chip": "ym2612"
    },
    {
      "channel": 2,
      "note": 78,
      "start": 13.947,
      "duration": 0.0016,
      "velocity": 111,
      "chip": "ym2612"
    },
    {
      "channel": 4,
      "note": 48,
      "start": 13.9473,
      "duration": 0.0026,
      "velocity": 111,
      "chip": "ym2612"
    },
    {
      "channel": 2,
      "note": 71,
      "start": 13.9488,
      "duration": 0.0009,
      "velocity": 111,
      "chip": "ym2612"
    },
    {
      "channel": 0,
      "note": 47,
      "start": 13.9496,
      "duration": 0.0024,
      "velocity": 115,
      "chip": "ym2612"
    },
    {
      "channel": 2,
      "note": 74,
      "start": 13.9499,
      "duration": 0.0013,
      "velocity": 111,
      "chip": "ym2612"
    },
    {
      "channel": 4,
      "note": 47,
      "start": 13.9501,
      "duration": 0.0024,
      "velocity": 111,
      "chip": "ym2612"
    },
    {
      "channel": 2,
      "note": 73,
      "start": 13.9513,
      "duration": 0.001,
      "velocity": 111,
      "chip": "ym2612"
    },
    {
      "channel": 0,
      "note": 45,
      "start": 13.9522,
      "duration": 0.0027,
      "velocity": 115,
      "chip": "ym2612"
    },
    {
      "channel": 2,
      "note": 76,
      "start": 13.9524,
      "duration": 0.0016,
      "velocity": 111,
      "chip": "ym2612"
    },
    {
      "channel": 4,
      "note": 45,
      "start": 13.9527,
      "duration": 0.003,
      "velocity": 111,
      "chip": "ym2612"
    },
    {
      "channel": 2,
      "note": 77,
      "start": 13.9542,
      "duration": 0.0011,
      "velocity": 111,
      "chip": "ym2612"
    },
    {
      "channel": 0,
      "note": 49,
      "start": 13.9552,
      "duration": 0.0048,
      "velocity": 115,
      "chip": "ym2612"
    },
    {
      "channel": 2,
      "note": 75,
      "start": 13.9555,
      "duration": 0.002,
      "velocity": 111,
      "chip": "ym2612"
    },
    {
      "channel": 4,
      "note": 49,
      "start": 13.9558,
      "duration": 0.0065,
      "velocity": 111,
      "chip": "ym2612"
    },
    {
      "channel": 2,
      "note": 73,
      "start": 13.9577,
      "duration": 0.0042,
      "velocity": 109,
      "chip": "ym2612"
    },
    {
      "channel": 0,
      "note": 44,
      "start": 13.9602,
      "duration": 0.0047,
      "velocity": 115,
      "chip": "ym2612"
    },
    {
      "channel": 1,
      "note": 80,
      "start": 13.9611,
      "duration": 0.0211,
      "velocity": 119,
      "chip": "ym2612"
    },
    {
      "channel": 2,
      "note": 63,
      "start": 13.962,
      "duration": 0.0023,
      "velocity": 109,
      "chip": "ym2612"
    },
    {
      "channel": 3,
      "note": 63,
      "start": 13.9622,
      "duration": 0.0105,
      "velocity": 104,
      "chip": "ym2612"
    },
    {
      "channel": 4,
      "note": 44,
      "start": 13.9625,
      "duration": 0.003,
      "velocity": 111,
      "chip": "ym2612"
    },
    {
      "channel": 2,
      "note": 64,
      "start": 13.9645,
      "duration": 0.0007,
      "velocity": 109,
      "chip": "ym2612"
    },
    {
      "channel": 0,
      "note": 48,
      "start": 13.9651,
      "duration": 0.0016,
      "velocity": 115,
      "chip": "ym2612"
    },
    {
      "channel": 2,
      "note": 66,
      "start": 13.9654,
      "duration": 0.0006,
      "velocity": 109,
      "chip": "ym2612"
    },
    {
      "channel": 4,
      "note": 48,
      "start": 13.9656,
      "duration": 0.0016,
      "velocity": 111,
      "chip": "ym2612"
    },
    {
      "channel": 2,
      "note": 64,
      "start": 13.9662,
      "duration": 0.0007,
      "velocity": 109,
      "chip": "ym2612"
    },
    {
      "channel": 0,
      "note": 49,
      "start": 13.9669,
      "duration": 0.003,
      "velocity": 115,
      "chip": "ym2612"
    },
    {
      "channel": 2,
      "note": 66,
      "start": 13.9672,
      "duration": 0.002,
      "velocity": 109,
      "chip": "ym2612"
    },
    {
      "channel": 4,
      "note": 49,
      "start": 13.9676,
      "duration": 0.0029,
      "velocity": 111,
      "chip": "ym2612"
    },
    {
      "channel": 2,
      "note": 64,
      "start": 13.9693,
      "duration": 0.0009,
      "velocity": 109,
      "chip": "ym2612"
    },
    {
      "channel": 0,
      "note": 50,
      "start": 13.9701,
      "duration": 0.0022,
      "velocity": 115,
      "chip": "ym2612"
    },
    {
      "channel": 2,
      "note": 61,
      "start": 13.9703,
      "duration": 0.0012,
      "velocity": 109,
      "chip": "ym2612"
    },
    {
      "channel": 4,
      "note": 50,
      "start": 13.9706,
      "duration": 0.0022,
      "velocity": 111,
      "chip": "ym2612"
    },
    {
      "channel": 2,
      "note": 63,
      "start": 13.9717,
      "duration": 0.0008,
      "velocity": 109,
      "chip": "ym2612"
    },
    {
      "channel": 0,
      "note": 48,
      "start": 13.9724,
      "duration": 0.0023,
      "velocity": 115,
      "chip": "ym2612"
    },
    {
      "channel": 2,
      "note": 62,
      "start": 13.9727,
      "duration": 0.0015,
      "velocity": 109,
      "chip": "ym2612"
    },
    {
      "channel": 4,
      "note": 48,
      "start": 13.9729,
      "duration": 0.0023,
      "velocity": 111,
      "chip": "ym2612"
    },
    {
      "channel": 2,
      "note": 65,
      "start": 13.9744,
      "duration": 0.0006,
      "velocity": 109,
      "chip": "ym2612"
    },
    {
      "channel": 0,
      "note": 52,
      "start": 13.9749,
      "duration": 0.0022,
      "velocity": 115,
      "chip": "ym2612"
    },
    {
      "channel": 2,
      "note": 66,
      "start": 13.9751,
      "duration": 0.0014,
      "velocity": 109,
      "chip": "ym2612"
    },
    {
      "channel": 4,
      "note": 52,
      "start": 13.9754,
      "duration": 0.0021,
      "velocity": 111,
      "chip": "ym2612"
    },
    {
      "channel": 2,
      "note": 67,
      "start": 13.9766,
      "duration": 0.0007,
      "velocity": 109,
      "chip": "ym2612"
    },
    {
      "channel": 0,
      "note": 50,
      "start": 13.9773,
      "duration": 0.0022,
      "velocity": 115,
      "chip": "ym2612"
    },
    {
      "channel": 2,
      "note": 65,
      "start": 13.9775,
      "duration": 0.0013,
      "velocity": 109,
      "chip": "ym2612"
    },
    {
      "channel": 4,
      "note": 50,
      "start": 13.9777,
      "duration": 0.0023,
      "velocity": 111,
      "chip": "ym2612"
    },
    {
      "channel": 2,
      "note": 67,
      "start": 13.979,
      "duration": 0.0008,
      "velocity": 109,
      "chip": "ym2612"
    },
    {
      "channel": 0,
      "note": 48,
      "start": 13.9797,
      "duration": 0.0017,
      "velocity": 115,
      "chip": "ym2612"
    },
    {
      "channel": 2,
      "note": 66,
      "start": 13.9799,
      "duration": 0.0008,
      "velocity": 109,
      "chip": "ym2612"
    },
    {
      "channel": 4,
      "note": 48,
      "start": 13.98,
      "duration": 0.0025,
      "velocity": 111,
      "chip": "ym2612"
    },
    {
      "channel": 2,
      "note": 67,
      "start": 13.9809,
      "duration": 0.0015,
      "velocity": 109,
      "chip": "ym2612"
    },
    {
      "channel": 0,
      "note": 43,
      "start": 13.9815,
      "duration": 0.0028,
      "velocity": 115,
      "chip": "ym2612"
    },
    {
      "channel": 1,
      "note": 84,
      "start": 13.9823,
      "duration": 0.0135,
      "velocity": 119,
      "chip": "ym2612"
    },
    {
      "channel": 4,
      "note": 43,
      "start": 13.9828,
      "duration": 0.0019,
      "velocity": 111,
      "chip": "ym2612"
    },
    {
      "channel": 0,
      "note": 47,
      "start": 13.9845,
      "duration": 0.0006,
      "velocity": 115,
      "chip": "ym2612"
    },
    {
      "channel": 4,
      "note": 47,
      "start": 13.9848,
      "duration": 0.0005,
      "velocity": 111,
      "chip": "ym2612"
    },
    {
      "channel": 0,
      "note": 48,
      "start": 13.9852,
      "duration": 0.0012,
      "velocity": 115,
      "chip": "ym2612"
    },
    {
      "channel": 4,
      "note": 48,
      "start": 13.9855,
      "duration": 0.0011,
      "velocity": 111,
      "chip": "ym2612"
    },
    {
      "channel": 0,
      "note": 49,
      "start": 13.9866,
      "duration": 0.0012,
      "velocity": 115,
      "chip": "ym2612"
    },
    {
      "channel": 4,
      "note": 49,
      "start": 13.9868,
      "duration": 0.0011,
      "velocity": 111,
      "chip": "ym2612"
    },
    {
      "channel": 0,
      "note": 47,
      "start": 13.9879,
      "duration": 0.0015,
      "velocity": 115,
      "chip": "ym2612"
    },
    {
      "channel": 4,
      "note": 47,
      "start": 13.9881,
      "duration": 0.0016,
      "velocity": 111,
      "chip": "ym2612"
    },
    {
      "channel": 0,
      "note": 46,
      "start": 13.9896,
      "duration": 0.0008,
      "velocity": 115,
      "chip": "ym2612"
    },
    {
      "channel": 4,
      "note": 46,
      "start": 13.99,
      "duration": 0.0006,
      "velocity": 111,
      "chip": "ym2612"
    },
    {
      "channel": 0,
      "note": 44,
      "start": 13.9905,
      "duration": 0.001,
      "velocity": 115,
      "chip": "ym2612"
    },
    {
      "channel": 4,
      "note": 44,
      "start": 13.9907,
      "duration": 0.0011,
      "velocity": 111,
      "chip": "ym2612"
    },
    {
      "channel": 0,
      "note": 48,
      "start": 13.9917,
      "duration": 0.0039,
      "velocity": 115,
      "chip": "ym2612"
    },
    {
      "channel": 4,
      "note": 48,
      "start": 13.992,
      "duration": 0.0041,
      "velocity": 111,
      "chip": "ym2612"
    },
    {
      "channel": 0,
      "note": 43,
      "start": 13.9957,
      "duration": 0.002,
      "velocity": 115,
      "chip": "ym2612"
    },
    {
      "channel": 1,
      "note": 84,
      "start": 13.9959,
      "duration": 0.0116,
      "velocity": 119,
      "chip": "ym2612"
    },
    {
      "channel": 4,
      "note": 43,
      "start": 13.9963,
      "duration": 0.0018,
      "velocity": 111,
      "chip": "ym2612"
    },
    {
      "channel": 0,
      "note": 47,
      "start": 13.998,
      "duration": 0.0007,
      "velocity": 115,
      "chip": "ym2612"
    },
    {
      "channel": 4,
      "note": 47,
      "start": 13.9983,
      "duration": 0.0007,
      "velocity": 111,
      "chip": "ym2612"
    },
    {
      "channel": 0,
      "note": 48,
      "start": 13.9989,
      "duration": 0.002,
      "velocity": 115,
      "chip": "ym2612"
    },
    {
      "channel": 4,
      "note": 48,
      "start": 13.9993,
      "duration": 0.0019,
      "velocity": 111,
      "chip": "ym2612"
    },
    {
      "channel": 0,
      "note": 49,
      "start": 14.0011,
      "duration": 0.0009,
      "velocity": 115,
      "chip": "ym2612"
    },
    {
      "channel": 4,
      "note": 49,
      "start": 14.0013,
      "duration": 0.0009,
      "velocity": 111,
      "chip": "ym2612"
    },
    {
      "channel": 0,
      "note": 47,
      "start": 14.0022,
      "duration": 0.0015,
      "velocity": 115,
      "chip": "ym2612"
    },
    {
      "channel": 4,
      "note": 47,
      "start": 14.0024,
      "duration": 0.0016,
      "velocity": 111,
      "chip": "ym2612"
    },
    {
      "channel": 0,
      "note": 49,
      "start": 14.0039,
      "duration": 0.0009,
      "velocity": 115,
      "chip": "ym2612"
    },
    {
      "channel": 4,
      "note": 49,
      "start": 14.0041,
      "duration": 0.0008,
      "velocity": 111,
      "chip": "ym2612"
    },
    {
      "channel": 0,
      "note": 44,
      "start": 14.0049,
      "duration": 0.0013,
      "velocity": 115,
      "chip": "ym2612"
    },
    {
      "channel": 4,
      "note": 44,
      "start": 14.0051,
      "duration": 0.0014,
      "velocity": 111,
      "chip": "ym2612"
    },
    {
      "channel": 0,
      "note": 48,
      "start": 14.0063,
      "duration": 0.0009,
      "velocity": 115,
      "chip": "ym2612"
    },
    {
      "channel": 4,
      "note": 48,
      "start": 14.0067,
      "duration": 0.0009,
      "velocity": 111,
      "chip": "ym2612"
    },
    {
      "channel": 0,
      "note": 43,
      "start": 14.0073,
      "duration": 0.0022,
      "velocity": 115,
      "chip": "ym2612"
    },
    {
      "channel": 4,
      "note": 43,
      "start": 14.0078,
      "duration": 0.002,
      "velocity": 111,
      "chip": "ym2612"
    },
    {
      "channel": 0,
      "note": 47,
      "start": 14.0097,
      "duration": 0.0009,
      "velocity": 115,
      "chip": "ym2612"
    },
    {
      "channel": 4,
      "note": 47,
      "start": 14.01,
      "duration": 0.001,
      "velocity": 111,
      "chip": "ym2612"
    },
    {
      "channel": 0,
      "note": 48,
      "start": 14.0108,
      "duration": 0.0019,
      "velocity": 115,
      "chip": "ym2612"
    },
    {
      "channel": 4,
      "note": 48,
      "start": 14.0112,
      "duration": 0.0018,
      "velocity": 111,
      "chip": "ym2612"
    },
    {
      "channel": 0,
      "note": 49,
      "start": 14.0129,
      "duration": 0.0013,
      "velocity": 115,
      "chip": "ym2612"
    },
    {
      "channel": 4,
      "note": 49,
      "start": 14.0132,
      "duration": 0.0012,
      "velocity": 111,
      "chip": "ym2612"
    },
    {
      "channel": 0,
      "note": 47,
      "start": 14.0144,
      "duration": 0.0013,
      "velocity": 115,
      "chip": "ym2612"
    },
    {
      "channel": 4,
      "note": 47,
      "start": 14.0146,
      "duration": 0.0013,
      "velocity": 111,
      "chip": "ym2612"
    },
    {
      "channel": 0,
      "note": 46,
      "start": 14.0158,
      "duration": 0.0007,
      "velocity": 115,
      "chip": "ym2612"
    },
    {
      "channel": 4,
      "note": 46,
      "start": 14.0161,
      "duration": 0.0006,
      "velocity": 111,
      "chip": "ym2612"
    },
    {
      "channel": 0,
      "note": 44,
      "start": 14.0166,
      "duration": 0.0015,
      "velocity": 115,
      "chip": "ym2612"
    },
    {
      "channel": 4,
      "note": 44,
      "start": 14.0168,
      "duration": 0.0015,
      "velocity": 111,
      "chip": "ym2612"
    },
    {
      "channel": 0,
      "note": 48,
      "start": 14.0183,
      "duration": 0.0027,
      "velocity": 115,
      "chip": "ym2612"
    },
    {
      "channel": 4,
      "note": 48,
      "start": 14.0185,
      "duration": 0.003,
      "velocity": 111,
      "chip": "ym2612"
    },
    {
      "channel": 0,
      "note": 43,
      "start": 14.0213,
      "duration": 0.0019,
      "velocity": 115,
      "chip": "ym2612"
    },
    {
      "channel": 4,
      "note": 43,
      "start": 14.0218,
      "duration": 0.0015,
      "velocity": 111,
      "chip": "ym2612"
    },
    {
      "channel": 0,
      "note": 47,
      "start": 14.0233,
      "duration": 0.0008,
      "velocity": 115,
      "chip": "ym2612"
    },
    {
      "channel": 4,
      "note": 47,
      "start": 14.0234,
      "duration": 0.001,
      "velocity": 111,
      "chip": "ym2612"
    },
    {
      "channel": 0,
      "note": 48,
      "start": 14.0243,
      "duration": 0.0021,
      "velocity": 115,
      "chip": "ym2612"
    },
    {
      "channel": 4,
      "note": 48,
      "start": 14.0247,
      "duration": 0.0019,
      "velocity": 111,
      "chip": "ym2612"
    },
    {
      "channel": 0,
      "note": 49,
      "start": 14.0266,
      "duration": 0.0009,
      "velocity": 115,
      "chip": "ym2612"
    },
    {
      "channel": 4,
      "note": 49,
      "start": 14.0268,
      "duration": 0.0008,
      "velocity": 111,
      "chip": "ym2612"
    },
    {
      "channel": 0,
      "note": 47,
      "start": 14.0276,
      "duration": 0.0008,
      "velocity": 115,
      "chip": "ym2612"
    },
    {
      "channel": 4,
      "note": 47,
      "start": 14.0278,
      "duration": 0.0009,
      "velocity": 111,
      "chip": "ym2612"
    },
    {
      "channel": 0,
      "note": 51,
      "start": 14.0286,
      "duration": 0.0008,
      "velocity": 115,
      "chip": "ym2612"
    },
    {
      "channel": 4,
      "note": 51,
      "start": 14.0289,
      "duration": 0.0007,
      "velocity": 111,
      "chip": "ym2612"
    },
    {
      "channel": 0,
      "note": 49,
      "start": 14.0295,
      "duration": 0.0013,
      "velocity": 115,
      "chip": "ym2612"
    },
    {
      "channel": 4,
      "note": 49,
      "start": 14.0298,
      "duration": 0.0013,
      "velocity": 111,
      "chip": "ym2612"
    },
    {
      "channel": 0,
      "note": 47,
      "start": 14.031,
      "duration": 0.0012,
      "velocity": 115,
      "chip": "ym2612"
    },
    {
      "channel": 4,
      "note": 47,
      "start": 14.0312,
      "duration": 0.0024,
      "velocity": 111,
      "chip": "ym2612"
    },
    {
      "channel": 0,
      "note": 43,
      "start": 14.0323,
      "duration": 0.0046,
      "velocity": 115,
      "chip": "ym2612"
    },
    {
      "channel": 2,
      "note": 75,
      "start": 14.0334,
      "duration": 0.0024,
      "velocity": 111,
      "chip": "ym2612"
    },
    {
      "channel": 4,
      "note": 43,
      "start": 14.034,
      "duration": 0.0034,
      "velocity": 111,
      "chip": "ym2612"
    },
    {
      "channel": 2,
      "note": 71,
      "start": 14.036,
      "duration": 0.0012,
      "velocity": 111,
      "chip": "ym2612"
    },
    {
      "channel": 0,
      "note": 47,
      "start": 14.0371,
      "duration": 0.0025,
      "velocity": 115,
      "chip": "ym2612"
    },
    {
      "channel": 2,
      "note": 72,
      "start": 14.0373,
      "duration": 0.001,
      "velocity": 111,
      "chip": "ym2612"
    },
    {
      "channel": 4,
      "note": 47,
      "start": 14.0375,
      "duration": 0.0029,
      "velocity": 111,
      "chip": "ym2612"
    },
    {
      "channel": 2,
      "note": 73,
      "start": 14.0384,
      "duration": 0.0016,
      "velocity": 111,
      "chip": "ym2612"
    },
    {
      "channel": 0,
      "note": 48,
      "start": 14.0398,
      "duration": 0.0032,
      "velocity": 115,
      "chip": "ym2612"
    },
    {
      "channel": 2,
      "note": 75,
      "start": 14.0401,
      "duration": 0.0021,
      "velocity": 111,
      "chip": "ym2612"
    },
    {
      "channel": 4,
      "note": 48,
      "start": 14.0405,
      "duration": 0.0031,
      "velocity": 111,
      "chip": "ym2612"
    },
    {
      "channel": 2,
      "note": 70,
      "start": 14.0424,
      "duration": 0.0009,
      "velocity": 111,
      "chip": "ym2612"
    },
    {
      "channel": 0,
      "note": 49,
      "start": 14.0432,
      "duration": 0.0026,
      "velocity": 115,
      "chip": "ym2612"
    },
    {
      "channel": 2,
      "note": 74,
      "start": 14.0435,
      "duration": 0.0013,
      "velocity": 111,
      "chip": "ym2612"
    },
    {
      "channel": 4,
      "note": 49,
      "start": 14.0437,
      "duration": 0.0025,
      "velocity": 111,
      "chip": "ym2612"
    },
    {
      "channel": 2,
      "note": 72,
      "start": 14.045,
      "duration": 0.001,
      "velocity": 111,
      "chip": "ym2612"
    },
    {
      "channel": 0,
      "note": 47,
      "start": 14.0459,
      "duration": 0.0024,
      "velocity": 115,
      "chip": "ym2612"
    },
    {
      "channel": 2,
      "note": 78,
      "start": 14.0461,
      "duration": 0.0012,
      "velocity": 111,
      "chip": "ym2612"
    },
    {
      "channel": 4,
      "note": 47,
      "start": 14.0464,
      "duration": 0.0025,
      "velocity": 111,
      "chip": "ym2612"
    },
    {
      "channel": 2,
      "note": 71,
      "start": 14.0475,
      "duration": 0.0012,
      "velocity": 111,
      "chip": "ym2612"
    },
    {
      "channel": 0,
      "note": 46,
      "start": 14.0486,
      "duration": 0.002,
      "velocity": 115,
      "chip": "ym2612"
    },
    {
      "channel": 2,
      "note": 74,
      "start": 14.0488,
      "duration": 0.001,
      "velocity": 111,
      "chip": "ym2612"
    },
    {
      "channel": 4,
      "note": 46,
      "start": 14.0489,
      "duration": 0.0021,
      "velocity": 111,
      "chip": "ym2612"
    },
    {
      "channel": 2,
      "note": 73,
      "start": 14.0499,
      "duration": 0.001,
      "velocity": 111,
      "chip": "ym2612"
    },
    {
      "channel": 0,
      "note": 44,
      "start": 14.0507,
      "duration": 0.0028,
      "velocity": 115,
      "chip": "ym2612"
    },
    {
      "channel": 2,
      "note": 76,
      "start": 14.051,
      "duration": 0.0017,
      "velocity": 111,
      "chip": "ym2612"
    },
    {
      "channel": 4,
      "note": 44,
      "start": 14.0512,
      "duration": 0.0028,
      "velocity": 111,
      "chip": "ym2612"
    },
    {
      "channel": 2,
      "note": 73,
      "start": 14.0528,
      "duration": 0.0009,
      "velocity": 111,
      "chip": "ym2612"
    },
    {
      "channel": 0,
      "note": 48,
      "start": 14.0537,
      "duration": 0.0046,
      "velocity": 115,
      "chip": "ym2612"
    },
    {
      "channel": 2,
      "note": 75,
      "start": 14.0539,
      "duration": 0.002,
      "velocity": 111,
      "chip": "ym2612"
    },
    {
      "channel": 4,
      "note": 48,
      "start": 14.0541,
      "duration": 0.0056,
      "velocity": 111,
      "chip": "ym2612"
    },
    {
      "channel": 2,
      "note": 72,
      "start": 14.056,
      "duration": 0.0033,
      "velocity": 109,
      "chip": "ym2612"
    },
    {
      "channel": 0,
      "note": 43,
      "start": 14.0584,
      "duration": 0.0038,
      "velocity": 115,
      "chip": "ym2612"
    },
    {
      "channel": 2,
      "note": 68,
      "start": 14.0595,
      "duration": 0.0021,
      "velocity": 109,
      "chip": "ym2612"
    },
    {
      "channel": 4,
      "note": 43,
      "start": 14.0599,
      "duration": 0.0028,
      "velocity": 111,
      "chip": "ym2612"
    },
    {
      "channel": 2,
      "note": 64,
      "start": 14.0618,
      "duration": 0.0007,
      "velocity": 109,
      "chip": "ym2612"
    },
    {
      "channel": 0,
      "note": 47,
      "start": 14.0624,
      "duration": 0.002,
      "velocity": 115,
      "chip": "ym2612"
    },
    {
      "channel": 2,
      "note": 61,
      "start": 14.0626,
      "duration": 0.0007,
      "velocity": 109,
      "chip": "ym2612"
    },
    {
      "channel": 4,
      "note": 47,
      "start": 14.0628,
      "duration": 0.0024,
      "velocity": 111,
      "chip": "ym2612"
    },
    {
      "channel": 2,
      "note": 66,
      "start": 14.0635,
      "duration": 0.0013,
      "velocity": 109,
      "chip": "ym2612"
    },
    {
      "channel": 0,
      "note": 48,
      "start": 14.0646,
      "duration": 0.0028,
      "velocity": 115,
      "chip": "ym2612"
    },
    {
      "channel": 2,
      "note": 62,
      "start": 14.065,
      "duration": 0.002,
      "velocity": 109,
      "chip": "ym2612"
    },
    {
      "channel": 4,
      "note": 48,
      "start": 14.0654,
      "duration": 0.0027,
      "velocity": 111,
      "chip": "ym2612"
    },
    {
      "channel": 2,
      "note": 64,
      "start": 14.0671,
      "duration": 0.0006,
      "velocity": 109,
      "chip": "ym2612"
    },
    {
      "channel": 0,
      "note": 49,
      "start": 14.0676,
      "duration": 0.0021,
      "velocity": 115,
      "chip": "ym2612"
    },
    {
      "channel": 2,
      "note": 66,
      "start": 14.068,
      "duration": 0.001,
      "velocity": 109,
      "chip": "ym2612"
    },
    {
      "channel": 4,
      "note": 49,
      "start": 14.0682,
      "duration": 0.002,
      "velocity": 111,
      "chip": "ym2612"
    },
    {
      "channel": 2,
      "note": 63,
      "start": 14.0691,
      "duration": 0.0009,
      "velocity": 109,
      "chip": "ym2612"
    },
    {
      "channel": 0,
      "note": 47,
      "start": 14.0699,
      "duration": 0.002,
      "velocity": 115,
      "chip": "ym2612"
    },
    {
      "channel": 2,
      "note": 67,
      "start": 14.0702,
      "duration": 0.0011,
      "velocity": 109,
      "chip": "ym2612"
    },
    {
      "channel": 4,
      "note": 47,
      "start": 14.0704,
      "duration": 0.002,
      "velocity": 111,
      "chip": "ym2612"
    },
    {
      "channel": 2,
      "note": 65,
      "start": 14.0714,
      "duration": 0.0007,
      "velocity": 109,
      "chip": "ym2612"
    },
    {
      "channel": 0,
      "note": 49,
      "start": 14.072,
      "duration": 0.0018,
      "velocity": 115,
      "chip": "ym2612"
    },
    {
      "channel": 2,
      "note": 66,
      "start": 14.0722,
      "duration": 0.001,
      "velocity": 109,
      "chip": "ym2612"
    },
    {
      "channel": 4,
      "note": 49,
      "start": 14.0725,
      "duration": 0.0019,
      "velocity": 111,
      "chip": "ym2612"
    },
    {
      "channel": 2,
      "note": 67,
      "start": 14.0734,
      "duration": 0.0008,
      "velocity": 109,
      "chip": "ym2612"
    },
    {
      "channel": 0,
      "note": 44,
      "start": 14.074,
      "duration": 0.0019,
      "velocity": 115,
      "chip": "ym2612"
    },
    {
      "channel": 2,
      "note": 65,
      "start": 14.0743,
      "duration": 0.001,
      "velocity": 109,
      "chip": "ym2612"
    },
    {
      "channel": 4,
      "note": 44,
      "start": 14.0746,
      "duration": 0.0018,
      "velocity": 111,
      "chip": "ym2612"
    },
    {
      "channel": 2,
      "note": 64,
      "start": 14.0755,
      "duration": 0.0007,
      "velocity": 109,
      "chip": "ym2612"
    },
    {
      "channel": 0,
      "note": 48,
      "start": 14.0761,
      "duration": 0.0016,
      "velocity": 115,
      "chip": "ym2612"
    },
    {
      "channel": 2,
      "note": 66,
      "start": 14.0763,
      "duration": 0.0008,
      "velocity": 109,
      "chip": "ym2612"
    },
    {
      "channel": 4,
      "note": 48,
      "start": 14.0765,
      "duration": 0.0026,
      "velocity": 111,
      "chip": "ym2612"
    },
    {
      "channel": 2,
      "note": 67,
      "start": 14.0772,
      "duration": 0.0015,
      "velocity": 111,
      "chip": "ym2612"
    },
    {
      "channel": 0,
      "note": 43,
      "start": 14.0778,
      "duration": 0.004,
      "velocity": 115,
      "chip": "ym2612"
    },
    {
      "channel": 2,
      "note": 76,
      "start": 14.0789,
      "duration": 0.0019,
      "velocity": 111,
      "chip": "ym2612"
    },
    {
      "channel": 4,
      "note": 43,
      "start": 14.0792,
      "duration": 0.0032,
      "velocity": 111,
      "chip": "ym2612"
    },
    {
      "channel": 2,
      "note": 74,
      "start": 14.081,
      "duration": 0.0011,
      "velocity": 111,
      "chip": "ym2612"
    },
    {
      "channel": 0,
      "note": 47,
      "start": 14.082,
      "duration": 0.0021,
      "velocity": 115,
      "chip": "ym2612"
    },
    {
      "channel": 2,
      "note": 72,
      "start": 14.0822,
      "duration": 0.001,
      "velocity": 111,
      "chip": "ym2612"
    },
    {
      "channel": 4,
      "note": 47,
      "start": 14.0825,
      "duration": 0.002,
      "velocity": 111,
      "chip": "ym2612"
    },
    {
      "channel": 2,
      "note": 73,
      "start": 14.0834,
      "duration": 0.001,
      "velocity": 111,
      "chip": "ym2612"
    },
    {
      "channel": 0,
      "note": 48,
      "start": 14.0842,
      "duration": 0.0022,
      "velocity": 115,
      "chip": "ym2612"
    },
    {
      "channel": 2,
      "note": 77,
      "start": 14.0845,
      "duration": 0.001,
      "velocity": 111,
      "chip": "ym2612"
    },
    {
      "channel": 4,
      "note": 48,
      "start": 14.0846,
      "duration": 0.0022,
      "velocity": 111,
      "chip": "ym2612"
    },
    {
      "channel": 2,
      "note": 71,
      "start": 14.0857,
      "duration": 0.0009,
      "velocity": 111,
      "chip": "ym2612"
    },
    {
      "channel": 0,
      "note": 49,
      "start": 14.0865,
      "duration": 0.0027,
      "velocity": 115,
      "chip": "ym2612"
    },
    {
      "channel": 2,
      "note": 74,
      "start": 14.0868,
      "duration": 0.0015,
      "velocity": 111,
      "chip": "ym2612"
    },
    {
      "channel": 4,
      "note": 49,
      "start": 14.087,
      "duration": 0.0027,
      "velocity": 111,
      "chip": "ym2612"
    },
    {
      "channel": 2,
      "note": 72,
      "start": 14.0884,
      "duration": 0.0011,
      "velocity": 111,
      "chip": "ym2612"
    },
    {
      "channel": 0,
      "note": 47,
      "start": 14.0894,
      "duration": 0.0027,
      "velocity": 115,
      "chip": "ym2612"
    },
    {
      "channel": 2,
      "note": 78,
      "start": 14.0896,
      "duration": 0.0016,
      "velocity": 111,
      "chip": "ym2612"
    },
    {
      "channel": 4,
      "note": 47,
      "start": 14.0899,
      "duration": 0.0029,
      "velocity": 111,
      "chip": "ym2612"
    },
    {
      "channel": 2,
      "note": 71,
      "start": 14.0914,
      "duration": 0.001,
      "velocity": 111,
      "chip": "ym2612"
    },
    {
      "channel": 0,
      "note": 46,
      "start": 14.0923,
      "duration": 0.0023,
      "velocity": 115,
      "chip": "ym2612"
    },
    {
      "channel": 2,
      "note": 74,
      "start": 14.0927,
      "duration": 0.0012,
      "velocity": 111,
      "chip": "ym2612"
    },
    {
      "channel": 4,
      "note": 46,
      "start": 14.0929,
      "duration": 0.0022,
      "velocity": 111,
      "chip": "ym2612"
    },
    {
      "channel": 2,
      "note": 73,
      "start": 14.094,
      "duration": 0.0009,
      "velocity": 111,
      "chip": "ym2612"
    },
    {
      "channel": 0,
      "note": 44,
      "start": 14.0948,
      "duration": 0.0026,
      "velocity": 115,
      "chip": "ym2612"
    },
    {
      "channel": 2,
      "note": 76,
      "start": 14.0951,
      "duration": 0.0013,
      "velocity": 111,
      "chip": "ym2612"
    },
    {
      "channel": 4,
      "note": 44,
      "start": 14.0953,
      "duration": 0.0027,
      "velocity": 111,
      "chip": "ym2612"
    },
    {
      "channel": 2,
      "note": 77,
      "start": 14.0966,
      "duration": 0.0011,
      "velocity": 111,
      "chip": "ym2612"
    },
    {
      "channel": 0,
      "note": 48,
      "start": 14.0975,
      "duration": 0.0044,
      "velocity": 115,
      "chip": "ym2612"
    },
    {
      "channel": 2,
      "note": 75,
      "start": 14.0978,
      "duration": 0.002,
      "velocity": 111,
      "chip": "ym2612"
    },
    {
      "channel": 4,
      "note": 48,
      "start": 14.0981,
      "duration": 0.0051,
      "velocity": 111,
      "chip": "ym2612"
    },
    {
      "channel": 2,
      "note": 73,
      "start": 14.1,
      "duration": 0.0028,
      "velocity": 109,
      "chip": "ym2612"
    },
    {
      "channel": 0,
      "note": 43,
      "start": 14.1021,
      "duration": 0.0038,
      "velocity": 115,
      "chip": "ym2612"
    },
    {
      "channel": 2,
      "note": 63,
      "start": 14.103,
      "duration": 0.0022,
      "velocity": 109,
      "chip": "ym2612"
    },
    {
      "channel": 4,
      "note": 43,
      "start": 14.1034,
      "duration": 0.0029,
      "velocity": 111,
      "chip": "ym2612"
    },
    {
      "channel": 2,
      "note": 64,
      "start": 14.1054,
      "duration": 0.0007,
      "velocity": 109,
      "chip": "ym2612"
    },
    {
      "channel": 0,
      "note": 47,
      "start": 14.1061,
      "duration": 0.0016,
      "velocity": 115,
      "chip": "ym2612"
    },
    {
      "channel": 2,
      "note": 66,
      "start": 14.1063,
      "duration": 0.0007,
      "velocity": 109,
      "chip": "ym2612"
    },
    {
      "channel": 4,
      "note": 47,
      "start": 14.1065,
      "duration": 0.0018,
      "velocity": 111,
      "chip": "ym2612"
    },
    {
      "channel": 2,
      "note": 64,
      "start": 14.1072,
      "duration": 0.0009,
      "velocity": 109,
      "chip": "ym2612"
    },
    {
      "channel": 0,
      "note": 48,
      "start": 14.1079,
      "duration": 0.0023,
      "velocity": 115,
      "chip": "ym2612"
    },
    {
      "channel": 2,
      "note": 66,
      "start": 14.1082,
      "duration": 0.0014,
      "velocity": 109,
      "chip": "ym2612"
    },
    {
      "channel": 4,
      "note": 48,
      "start": 14.1085,
      "duration": 0.0023,
      "velocity": 111,
      "chip": "ym2612"
    },
    {
      "channel": 2,
      "note": 64,
      "start": 14.1098,
      "duration": 0.0007,
      "velocity": 109,
      "chip": "ym2612"
    },
    {
      "channel": 0,
      "note": 49,
      "start": 14.1104,
      "duration": 0.002,
      "velocity": 115,
      "chip": "ym2612"
    },
    {
      "channel": 2,
      "note": 61,
      "start": 14.1107,
      "duration": 0.001,
      "velocity": 109,
      "chip": "ym2612"
    },
    {
      "channel": 4,
      "note": 49,
      "start": 14.1109,
      "duration": 0.0019,
      "velocity": 111,
      "chip": "ym2612"
    },
    {
      "channel": 2,
      "note": 63,
      "start": 14.1118,
      "duration": 0.0008,
      "velocity": 109,
      "chip": "ym2612"
    },
    {
      "channel": 0,
      "note": 47,
      "start": 14.1126,
      "duration": 0.0018,
      "velocity": 115,
      "chip": "ym2612"
    },
    {
      "channel": 2,
      "note": 62,
      "start": 14.1128,
      "duration": 0.0009,
      "velocity": 109,
      "chip": "ym2612"
    },
    {
      "channel": 4,
      "note": 47,
      "start": 14.113,
      "duration": 0.002,
      "velocity": 111,
      "chip": "ym2612"
    },
    {
      "channel": 2,
      "note": 65,
      "start": 14.1138,
      "duration": 0.0009,
      "velocity": 109,
      "chip": "ym2612"
    },
    {
      "channel": 0,
      "note": 51,
      "start": 14.1146,
      "duration": 0.0017,
      "velocity": 115,
      "chip": "ym2612"
    },
    {
      "channel": 2,
      "note": 66,
      "start": 14.1149,
      "duration": 0.001,
      "velocity": 109,
      "chip": "ym2612"
    },
    {
      "channel": 4,
      "note": 51,
      "start": 14.1151,
      "duration": 0.0018,
      "velocity": 111,
      "chip": "ym2612"
    },
    {
      "channel": 2,
      "note": 67,
      "start": 14.116,
      "duration": 0.0007,
      "velocity": 109,
      "chip": "ym2612"
    },
    {
      "channel": 0,
      "note": 49,
      "start": 14.1165,
      "duration": 0.0019,
      "velocity": 115,
      "chip": "ym2612"
    },
    {
      "channel": 2,
      "note": 65,
      "start": 14.1168,
      "duration": 0.001,
      "velocity": 109,
      "chip": "ym2612"
    },
    {
      "channel": 4,
      "note": 49,
      "start": 14.1171,
      "duration": 0.0018,
      "velocity": 111,
      "chip": "ym2612"
    },
    {
      "channel": 2,
      "note": 67,
      "start": 14.118,
      "duration": 0.0007,
      "velocity": 109,
      "chip": "ym2612"
    },
    {
      "channel": 0,
      "note": 47,
      "start": 14.1186,
      "duration": 0.0019,
      "velocity": 115,
      "chip": "ym2612"
    },
    {
      "channel": 2,
      "note": 66,
      "start": 14.1188,
      "duration": 0.001,
      "velocity": 109,
      "chip": "ym2612"
    },
    {
      "channel": 4,
      "note": 47,
      "start": 14.1191,
      "duration": 0.0029,
      "velocity": 111,
      "chip": "ym2612"
    },
    {
      "channel": 2,
      "note": 67,
      "start": 14.12,
      "duration": 0.0016,
      "velocity": 111,
      "chip": "ym2612"
    },
    {
      "channel": 0,
      "note": 43,
      "start": 14.1207,
      "duration": 0.0042,
      "velocity": 115,
      "chip": "ym2612"
    },
    {
      "channel": 2,
      "note": 75,
      "start": 14.1217,
      "duration": 0.0022,
      "velocity": 111,
      "chip": "ym2612"
    },
    {
      "channel": 3,
      "note": 60,
      "start": 14.1219,
      "duration": 0.0121,
      "velocity": 104,
      "chip": "ym2612"
    },
    {
      "channel": 4,
      "note": 43,
      "start": 14.1221,
      "duration": 0.0033,
      "velocity": 111,
      "chip": "ym2612"
    },
    {
      "channel": 2,
      "note": 71,
      "start": 14.1241,
      "duration": 0.001,
      "velocity": 111,
      "chip": "ym2612"
    },
    {
      "channel": 0,
      "note": 47,
      "start": 14.1251,
      "duration": 0.0024,
      "velocity": 115,
      "chip": "ym2612"
    },
    {
      "channel": 2,
      "note": 72,
      "start": 14.1253,
      "duration": 0.001,
      "velocity": 111,
      "chip": "ym2612"
    },
    {
      "channel": 4,
      "note": 47,
      "start": 14.1256,
      "duration": 0.0026,
      "velocity": 111,
      "chip": "ym2612"
    },
    {
      "channel": 2,
      "note": 73,
      "start": 14.1265,
      "duration": 0.0014,
      "velocity": 111,
      "chip": "ym2612"
    },
    {
      "channel": 0,
      "note": 48,
      "start": 14.1276,
      "duration": 0.0035,
      "velocity": 115,
      "chip": "ym2612"
    },
    {
      "channel": 2,
      "note": 75,
      "start": 14.128,
      "duration": 0.0022,
      "velocity": 111,
      "chip": "ym2612"
    },
    {
      "channel": 4,
      "note": 48,
      "start": 14.1284,
      "duration": 0.0033,
      "velocity": 111,
      "chip": "ym2612"
    },
    {
      "channel": 2,
      "note": 70,
      "start": 14.1304,
      "duration": 0.0011,
      "velocity": 111,
      "chip": "ym2612"
    },
    {
      "channel": 0,
      "note": 49,
      "start": 14.1314,
      "duration": 0.0023,
      "velocity": 115,
      "chip": "ym2612"
    },
    {
      "channel": 2,
      "note": 74,
      "start": 14.1316,
      "duration": 0.001,
      "velocity": 111,
      "chip": "ym2612"
    },
    {
      "channel": 4,
      "note": 49,
      "start": 14.1319,
      "duration": 0.0022,
      "velocity": 111,
      "chip": "ym2612"
    },
    {
      "channel": 2,
      "note": 72,
      "start": 14.1328,
      "duration": 0.001,
      "velocity": 111,
      "chip": "ym2612"
    },
    {
      "channel": 0,
      "note": 47,
      "start": 14.1338,
      "duration": 0.0028,
      "velocity": 115,
      "chip": "ym2612"
    },
    {
      "channel": 2,
      "note": 78,
      "start": 14.134,
      "duration": 0.0017,
      "velocity": 111,
      "chip": "ym2612"
    },
    {
      "channel": 4,
      "note": 47,
      "start": 14.1343,
      "duration": 0.0029,
      "velocity": 111,
      "chip": "ym2612"
    },
    {
      "channel": 2,
      "note": 71,
      "start": 14.1358,
      "duration": 0.001,
      "velocity": 111,
      "chip": "ym2612"
    },
    {
      "channel": 0,
      "note": 46,
      "start": 14.1368,
      "duration": 0.0026,
      "velocity": 115,
      "chip": "ym2612"
    },
    {
      "channel": 2,
      "note": 74,
      "start": 14.1371,
      "duration": 0.0014,
      "velocity": 111,
      "chip": "ym2612"
    },
    {
      "channel": 4,
      "note": 46,
      "start": 14.1374,
      "duration": 0.0024,
      "velocity": 111,
      "chip": "ym2612"
    },
    {
      "channel": 2,
      "note": 73,
      "start": 14.1386,
      "duration": 0.0011,
      "velocity": 111,
      "chip": "ym2612"
    },
    {
      "channel": 0,
      "note": 44,
      "start": 14.1395,
      "duration": 0.0027,
      "velocity": 115,
      "chip": "ym2612"
    },
    {
      "channel": 2,
      "note": 76,
      "start": 14.1398,
      "duration": 0.0015,
      "velocity": 111,
      "chip": "ym2612"
    },
    {
      "channel": 4,
      "note": 44,
      "start": 14.14,
      "duration": 0.0027,
      "velocity": 111,
      "chip": "ym2612"
    },
    {
      "channel": 2,
      "note": 73,
      "start": 14.1415,
      "duration": 0.001,
      "velocity": 111,
      "chip": "ym2612"
    },
    {
      "channel": 0,
      "note": 48,
      "start": 14.1424,
      "duration": 0.0047,
      "velocity": 115,
      "chip": "ym2612"
    },
    {
      "channel": 2,
      "note": 75,
      "start": 14.1426,
      "duration": 0.0023,
      "velocity": 111,
      "chip": "ym2612"
    },
    {
      "channel": 4,
      "note": 48,
      "start": 14.1428,
      "duration": 0.0059,
      "velocity": 111,
      "chip": "ym2612"
    },
    {
      "channel": 2,
      "note": 72,
      "start": 14.1451,
      "duration": 0.0031,
      "velocity": 109,
      "chip": "ym2612"
    },
    {
      "channel": 0,
      "note": 43,
      "start": 14.1473,
      "duration": 0.004,
      "velocity": 115,
      "chip": "ym2612"
    },
    {
      "channel": 2,
      "note": 68,
      "start": 14.1484,
      "duration": 0.0023,
      "velocity": 109,
      "chip": "ym2612"
    },
    {
      "channel": 3,
      "note": 60,
      "start": 14.1487,
      "duration": 0.0107,
      "velocity": 104,
      "chip": "ym2612"
    },
    {
      "channel": 4,
      "note": 43,
      "start": 14.149,
      "duration": 0.0029,
      "velocity": 111,
      "chip": "ym2612"
    },
    {
      "channel": 2,
      "note": 64,
      "start": 14.1508,
      "duration": 0.0007,
      "velocity": 109,
      "chip": "ym2612"
    },
    {
      "channel": 0,
      "note": 47,
      "start": 14.1515,
      "duration": 0.0023,
      "velocity": 115,
      "chip": "ym2612"
    },
    {
      "channel": 2,
      "note": 61,
      "start": 14.1518,
      "duration": 0.0009,
      "velocity": 109,
      "chip": "ym2612"
    },
    {
      "channel": 4,
      "note": 47,
      "start": 14.152,
      "duration": 0.0024,
      "velocity": 111,
      "chip": "ym2612"
    },
    {
      "channel": 2,
      "note": 66,
      "start": 14.1529,
      "duration": 0.0012,
      "velocity": 109,
      "chip": "ym2612"
    },
    {
      "channel": 0,
      "note": 48,
      "start": 14.154,
      "duration": 0.003,
      "velocity": 115,
      "chip": "ym2612"
    },
    {
      "channel": 2,
      "note": 62,
      "start": 14.1543,
      "duration": 0.002,
      "velocity": 109,
      "chip": "ym2612"
    },
    {
      "channel": 4,
      "note": 48,
      "start": 14.1546,
      "duration": 0.0027,
      "velocity": 111,
      "chip": "ym2612"
    },
    {
      "channel": 2,
      "note": 64,
      "start": 14.1565,
      "duration": 0.0007,
      "velocity": 109,
      "chip": "ym2612"
    },
    {
      "channel": 0,
      "note": 49,
      "start": 14.1571,
      "duration": 0.0018,
      "velocity": 115,
      "chip": "ym2612"
    },
    {
      "channel": 2,
      "note": 66,
      "start": 14.1573,
      "duration": 0.0009,
      "velocity": 109,
      "chip": "ym2612"
    },
    {
      "channel": 4,
      "note": 49,
      "start": 14.1575,
      "duration": 0.0019,
      "velocity": 111,
      "chip": "ym2612"
    },
    {
      "channel": 2,
      "note": 63,
      "start": 14.1583,
      "duration": 0.0008,
      "velocity": 109,
      "chip": "ym2612"
    },
    {
      "channel": 0,
      "note": 47,
      "start": 14.1591,
      "duration": 0.0023,
      "velocity": 115,
      "chip": "ym2612"
    },
    {
      "channel": 2,
      "note": 67,
      "start": 14.1593,
      "duration": 0.0013,
      "velocity": 109,
      "chip": "ym2612"
    },
    {
      "channel": 4,
      "note": 47,
      "start": 14.1596,
      "duration": 0.0023,
      "velocity": 111,
      "chip": "ym2612"
    },
    {
      "channel": 2,
      "note": 65,
      "start": 14.1608,
      "duration": 0.0009,
      "velocity": 109,
      "chip": "ym2612"
    },
    {
      "channel": 0,
      "note": 49,
      "start": 14.1616,
      "duration": 0.0015,
      "velocity": 115,
      "chip": "ym2612"
    },
    {
      "channel": 2,
      "note": 66,
      "start": 14.1618,
      "duration": 0.0008,
      "velocity": 109,
      "chip": "ym2612"
    },
    {
      "channel": 4,
      "note": 49,
      "start": 14.162,
      "duration": 0.0016,
      "velocity": 111,
      "chip": "ym2612"
    },
    {
      "channel": 2,
      "note": 67,
      "start": 14.1628,
      "duration": 0.0006,
      "velocity": 109,
      "chip": "ym2612"
    },
    {
      "channel": 0,
      "note": 44,
      "start": 14.1633,
      "duration": 0.0024,
      "velocity": 115,
      "chip": "ym2612"
    },
    {
      "channel": 2,
      "note": 65,
      "start": 14.1635,
      "duration": 0.0015,
      "velocity": 109,
      "chip": "ym2612"
    },
    {
      "channel": 4,
      "note": 44,
      "start": 14.1638,
      "duration": 0.0023,
      "velocity": 111,
      "chip": "ym2612"
    },
    {
      "channel": 2,
      "note": 64,
      "start": 14.1652,
      "duration": 0.0007,
      "velocity": 109,
      "chip": "ym2612"
    },
    {
      "channel": 0,
      "note": 48,
      "start": 14.1659,
      "duration": 0.0016,
      "velocity": 115,
      "chip": "ym2612"
    },
    {
      "channel": 2,
      "note": 66,
      "start": 14.1661,
      "duration": 0.0009,
      "velocity": 109,
      "chip": "ym2612"
    },
    {
      "channel": 4,
      "note": 48,
      "start": 14.1662,
      "duration": 0.0027,
      "velocity": 111,
      "chip": "ym2612"
    },
    {
      "channel": 2,
      "note": 67,
      "start": 14.167,
      "duration": 0.0015,
      "velocity": 111,
      "chip": "ym2612"
    },
    {
      "channel": 0,
      "note": 43,
      "start": 14.1676,
      "duration": 0.0041,
      "velocity": 115,
      "chip": "ym2612"
    },
    {
      "channel": 2,
      "note": 76,
      "start": 14.1688,
      "duration": 0.0021,
      "velocity": 111,
      "chip": "ym2612"
    },
    {
      "channel": 3,
      "note": 62,
      "start": 14.1689,
      "duration": 0.012,
      "velocity": 104,
      "chip": "ym2612"
    },
    {
      "channel": 4,
      "note": 43,
      "start": 14.1692,
      "duration": 0.0032,
      "velocity": 111,
      "chip": "ym2612"
    },
    {
      "channel": 2,
      "note": 74,
      "start": 14.171,
      "duration": 0.0011,
      "velocity": 111,
      "chip": "ym2612"
    },
    {
      "channel": 0,
      "note": 47,
      "start": 14.1719,
      "duration": 0.0026,
      "velocity": 115,
      "chip": "ym2612"
    },
    {
      "channel": 2,
      "note": 72,
      "start": 14.1723,
      "duration": 0.001,
      "velocity": 111,
      "chip": "ym2612"
    },
    {
      "channel": 4,
      "note": 47,
      "start": 14.1725,
      "duration": 0.0027,
      "velocity": 111,
      "chip": "ym2612"
    },
    {
      "channel": 2,
      "note": 73,
      "start": 14.1735,
      "duration": 0.0014,
      "velocity": 111,
      "chip": "ym2612"
    },
    {
      "channel": 0,
      "note": 48,
      "start": 14.1747,
      "duration": 0.0034,
      "velocity": 115,
      "chip": "ym2612"
    },
    {
      "channel": 2,
      "note": 77,
      "start": 14.175,
      "duration": 0.0022,
      "velocity": 111,
      "chip": "ym2612"
    },
    {
      "channel": 4,
      "note": 48,
      "start": 14.1754,
      "duration": 0.0034,
      "velocity": 111,
      "chip": "ym2612"
    },
    {
      "channel": 2,
      "note": 71,
      "start": 14.1774,
      "duration": 0.0011,
      "velocity": 111,
      "chip": "ym2612"
    },
    {
      "channel": 0,
      "note": 49,
      "start": 14.1784,
      "duration": 0.0021,
      "velocity": 115,
      "chip": "ym2612"
    },
    {
      "channel": 2,
      "note": 74,
      "start": 14.1787,
      "duration": 0.001,
      "velocity": 111,
      "chip": "ym2612"
    },
    {
      "channel": 4,
      "note": 49,
      "start": 14.1789,
      "duration": 0.0021,
      "velocity": 111,
      "chip": "ym2612"
    },
    {
      "channel": 2,
      "note": 72,
      "start": 14.1798,
      "duration": 0.0008,
      "velocity": 111,
      "chip": "ym2612"
    },
    {
      "channel": 0,
      "note": 47,
      "start": 14.1806,
      "duration": 0.0026,
      "velocity": 115,
      "chip": "ym2612"
    },
    {
      "channel": 2,
      "note": 78,
      "start": 14.1809,
      "duration": 0.0014,
      "velocity": 111,
      "chip": "ym2612"
    },
    {
      "channel": 4,
      "note": 47,
      "start": 14.1811,
      "duration": 0.0025,
      "velocity": 111,
      "chip": "ym2612"
    },
    {
      "channel": 2,
      "note": 71,
      "start": 14.1825,
      "duration": 0.001,
      "velocity": 111,
      "chip": "ym2612"
    },
    {
      "channel": 0,
      "note": 46,
      "start": 14.1834,
      "duration": 0.002,
      "velocity": 115,
      "chip": "ym2612"
    },
    {
      "channel": 2,
      "note": 74,
      "start": 14.1836,
      "duration": 0.0009,
      "velocity": 111,
      "chip": "ym2612"
    },
    {
      "channel": 4,
      "note": 46,
      "start": 14.1838,
      "duration": 0.002,
      "velocity": 111,
      "chip": "ym2612"
    },
    {
      "channel": 2,
      "note": 73,
      "start": 14.1846,
      "duration": 0.0009,
      "velocity": 111,
      "chip": "ym2612"
    },
    {
      "channel": 0,
      "note": 44,
      "start": 14.1855,
      "duration": 0.0028,
      "velocity": 115,
      "chip": "ym2612"
    },
    {
      "channel": 2,
      "note": 76,
      "start": 14.1857,
      "duration": 0.0017,
      "velocity": 111,
      "chip": "ym2612"
    },
    {
      "channel": 4,
      "note": 44,
      "start": 14.1859,
      "duration": 0.003,
      "velocity": 111,
      "chip": "ym2612"
    },
    {
      "channel": 2,
      "note": 77,
      "start": 14.1876,
      "duration": 0.0011,
      "velocity": 111,
      "chip": "ym2612"
    },
    {
      "channel": 0,
      "note": 48,
      "start": 14.1885,
      "duration": 0.0045,
      "velocity": 115,
      "chip": "ym2612"
    },
    {
      "channel": 2,
      "note": 75,
      "start": 14.1888,
      "duration": 0.0019,
      "velocity": 111,
      "chip": "ym2612"
    },
    {
      "channel": 4,
      "note": 48,
      "start": 14.1891,
      "duration": 0.0055,
      "velocity": 111,
      "chip": "ym2612"
    },
    {
      "channel": 2,
      "note": 73,
      "start": 14.1909,
      "duration": 0.0032,
      "velocity": 109,
      "chip": "ym2612"
    },
    {
      "channel": 0,
      "note": 43,
      "start": 14.1933,
      "duration": 0.004,
      "velocity": 115,
      "chip": "ym2612"
    },
    {
      "channel": 2,
      "note": 63,
      "start": 14.1943,
      "duration": 0.0024,
      "velocity": 109,
      "chip": "ym2612"
    },
    {
      "channel": 3,
      "note": 62,
      "start": 14.1946,
      "duration": 0.0113,
      "velocity": 104,
      "chip": "ym2612"
    },
    {
      "channel": 4,
      "note": 43,
      "start": 14.1949,
      "duration": 0.0028,
      "velocity": 111,
      "chip": "ym2612"
    },
    {
      "channel": 2,
      "note": 64,
      "start": 14.1968,
      "duration": 0.0007,
      "velocity": 109,
      "chip": "ym2612"
    },
    {
      "channel": 0,
      "note": 47,
      "start": 14.1974,
      "duration": 0.0021,
      "velocity": 115,
      "chip": "ym2612"
    },
    {
      "channel": 2,
      "note": 66,
      "start": 14.1976,
      "duration": 0.0008,
      "velocity": 109,
      "chip": "ym2612"
    },
    {
      "channel": 4,
      "note": 47,
      "start": 14.1978,
      "duration": 0.0023,
      "velocity": 111,
      "chip": "ym2612"
    },
    {
      "channel": 2,
      "note": 64,
      "start": 14.1986,
      "duration": 0.0012,
      "velocity": 109,
      "chip": "ym2612"
    },
    {
      "channel": 0,
      "note": 48,
      "start": 14.1997,
      "duration": 0.0032,
      "velocity": 115,
      "chip": "ym2612"
    },
    {
      "channel": 2,
      "note": 66,
      "start": 14.2,
      "duration": 0.0022,
      "velocity": 109,
      "chip": "ym2612"
    },
    {
      "channel": 4,
      "note": 48,
      "start": 14.2003,
      "duration": 0.003,
      "velocity": 111,
      "chip": "ym2612"
    },
    {
      "channel": 2,
      "note": 64,
      "start": 14.2023,
      "duration": 0.0008,
      "velocity": 109,
      "chip": "ym2612"
    },
    {
      "channel": 0,
      "note": 49,
      "start": 14.203,
      "duration": 0.0024,
      "velocity": 115,
      "chip": "ym2612"
    },
    {
      "channel": 2,
      "note": 61,
      "start": 14.2033,
      "duration": 0.0013,
      "velocity": 109,
      "chip": "ym2612"
    },
    {
      "channel": 4,
      "note": 49,
      "start": 14.2036,
      "duration": 0.0023,
      "velocity": 111,
      "chip": "ym2612"
    },
    {
      "channel": 2,
      "note": 63,
      "start": 14.2048,
      "duration": 0.0009,
      "velocity": 109,
      "chip": "ym2612"
    },
    {
      "channel": 0,
      "note": 47,
      "start": 14.2056,
      "duration": 0.0024,
      "velocity": 115,
      "chip": "ym2612"
    },
    {
      "channel": 2,
      "note": 62,
      "start": 14.2058,
      "duration": 0.0014,
      "velocity": 109,
      "chip": "ym2612"
    },
    {
      "channel": 4,
      "note": 47,
      "start": 14.2061,
      "duration": 0.0025,
      "velocity": 111,
      "chip": "ym2612"
    },
    {
      "channel": 2,
      "note": 65,
      "start": 14.2073,
      "duration": 0.001,
      "velocity": 109,
      "chip": "ym2612"
    },
    {
      "channel": 0,
      "note": 51,
      "start": 14.2082,
      "duration": 0.0017,
      "velocity": 115,
      "chip": "ym2612"
    },
    {
      "channel": 2,
      "note": 66,
      "start": 14.2085,
      "duration": 0.0009,
      "velocity": 109,
      "chip": "ym2612"
    },
    {
      "channel": 4,
      "note": 51,
      "start": 14.2087,
      "duration": 0.0018,
      "velocity": 111,
      "chip": "ym2612"
    },
    {
      "channel": 2,
      "note": 67,
      "start": 14.2095,
      "duration": 0.0007,
      "velocity": 109,
      "chip": "ym2612"
    },
    {
      "channel": 0,
      "note": 49,
      "start": 14.2101,
      "duration": 0.0023,
      "velocity": 115,
      "chip": "ym2612"
    },
    {
      "channel": 2,
      "note": 65,
      "start": 14.2104,
      "duration": 0.0014,
      "velocity": 109,
      "chip": "ym2612"
    },
    {
      "channel": 4,
      "note": 49,
      "start": 14.2106,
      "duration": 0.0023,
      "velocity": 111,
      "chip": "ym2612"
    },
    {
      "channel": 2,
      "note": 67,
      "start": 14.212,
      "duration": 0.0008,
      "velocity": 109,
      "chip": "ym2612"
    },
    {
      "channel": 0,
      "note": 47,
      "start": 14.2126,
      "duration": 0.002,
      "velocity": 115,
      "chip": "ym2612"
    },
    {
      "channel": 2,
      "note": 66,
      "start": 14.2128,
      "duration": 0.0012,
      "velocity": 109,
      "chip": "ym2612"
    },
    {
      "channel": 4,
      "note": 47,
      "start": 14.213,
      "duration": 0.0037,
      "velocity": 111,
      "chip": "ym2612"
    },
    {
      "channel": 2,
      "note": 67,
      "start": 14.2141,
      "duration": 0.0022,
      "velocity": 111,
      "chip": "ym2612"
    },
    {
      "channel": 0,
      "note": 43,
      "start": 14.2147,
      "duration": 0.005,
      "velocity": 115,
      "chip": "ym2612"
    },
    {
      "channel": 1,
      "note": 84,
      "start": 14.2156,
      "duration": 88.5786,
      "velocity": 114,
      "chip": "ym2612"
    },
    {
      "channel": 2,
      "note": 75,
      "start": 14.2165,
      "duration": 0.0022,
      "velocity": 111,
      "chip": "ym2612"
    },
    {
      "channel": 3,
      "note": 60,
      "start": 14.2167,
      "duration": 88.5775,
      "velocity": 104,
      "chip": "ym2612"
    },
    {
      "channel": 4,
      "note": 43,
      "start": 14.217,
      "duration": 0.0033,
      "velocity": 111,
      "chip": "ym2612"
    },
    {
      "channel": 2,
      "note": 71,
      "start": 14.219,
      "duration": 0.001,
      "velocity": 111,
      "chip": "ym2612"
    },
    {
      "channel": 0,
      "note": 47,
      "start": 14.2199,
      "duration": 0.0024,
      "velocity": 115,
      "chip": "ym2612"
    },
    {
      "channel": 2,
      "note": 72,
      "start": 14.2202,
      "duration": 0.0011,
      "velocity": 111,
      "chip": "ym2612"
    },
    {
      "channel": 4,
      "note": 47,
      "start": 14.2204,
      "duration": 0.0024,
      "velocity": 111,
      "chip": "ym2612"
    },
    {
      "channel": 2,
      "note": 73,
      "start": 14.2214,
      "duration": 0.0012,
      "velocity": 111,
      "chip": "ym2612"
    },
    {
      "channel": 0,
      "note": 48,
      "start": 14.2224,
      "duration": 88.5718,
      "velocity": 115,
      "chip": "ym2612"
    },
    {
      "channel": 2,
      "note": 75,
      "start": 14.2227,
      "duration": 88.5715,
      "velocity": 111,
      "chip": "ym2612"
    },
    {
      "channel": 4,
      "note": 48,
      "start": 14.223,
      "duration": 88.5712,
      "velocity": 111,
      "chip": "ym2612"
    }
  ]
}