{
  "track_name": "02 - Running Knot",
  "duration_sec": 48.161,
  "sample_rate": 44100,
  "note_count": 1242,
  "unique_pitches": 50,
  "pitch_range": 65,
  "avg_note_duration": 0.2024,
  "reconstruction_stats": {
    "notes_reconstructed": 1242,
    "keyon_events": 1242,
    "keyoff_events": 1234,
    "orphan_keyons": 6,
    "unique_pitches": 50,
    "pitch_range": 65,
    "avg_duration_sec": 0.2024
  },
  "metadata": {
    "source": "V\\Viper-GTS\\02 - Running Knot.vgz"
  },
  "notes": [
    {
      "channel": 0,
      "note": 32,
      "start": 0.0021,
      "duration": 0.2377,
      "velocity": 127,
      "chip": "ym2612"
    },
    {
      "channel": 1,
      "note": 56,
      "start": 0.0042,
      "duration": 0.7334,
      "velocity": 104,
      "chip": "ym2612"
    },
    {
      "channel": 2,
      "note": 67,
      "start": 0.0066,
      "duration": 0.0882,
      "velocity": 120,
      "chip": "ym2612"
    },
    {
      "channel": 4,
      "note": 87,
      "start": 0.0088,
      "duration": 0.0492,
      "velocity": 97,
      "chip": "ym2612"
    },
    {
      "channel": 5,
      "note": 56,
      "start": 0.0109,
      "duration": 1.9737,
      "velocity": 99,
      "chip": "ym2612"
    },
    {
      "channel": 4,
      "note": 87,
      "start": 0.0743,
      "duration": 0.0205,
      "velocity": 97,
      "chip": "ym2612"
    },
    {
      "channel": 2,
      "note": 67,
      "start": 0.1157,
      "duration": 0.1034,
      "velocity": 120,
      "chip": "ym2612"
    },
    {
      "channel": 4,
      "note": 80,
      "start": 0.1163,
      "duration": 0.0614,
      "velocity": 97,
      "chip": "ym2612"
    },
    {
      "channel": 4,
      "note": 80,
      "start": 0.1987,
      "duration": 0.0205,
      "velocity": 97,
      "chip": "ym2612"
    },
    {
      "channel": 0,
      "note": 72,
      "start": 0.2417,
      "duration": 0.2469,
      "velocity": 127,
      "chip": "ym2612"
    },
    {
      "channel": 2,
      "note": 65,
      "start": 0.242,
      "duration": 0.1015,
      "velocity": 120,
      "chip": "ym2612"
    },
    {
      "channel": 4,
      "note": 83,
      "start": 0.2424,
      "duration": 0.0597,
      "velocity": 97,
      "chip": "ym2612"
    },
    {
      "channel": 4,
      "note": 83,
      "start": 0.323,
      "duration": 0.0205,
      "velocity": 97,
      "chip": "ym2612"
    },
    {
      "channel": 2,
      "note": 67,
      "start": 0.3644,
      "duration": 0.0207,
      "velocity": 120,
      "chip": "ym2612"
    },
    {
      "channel": 3,
      "note": 67,
      "start": 0.3667,
      "duration": 0.0187,
      "velocity": 120,
      "chip": "ym2612"
    },
    {
      "channel": 4,
      "note": 78,
      "start": 0.367,
      "duration": 0.0594,
      "velocity": 97,
      "chip": "ym2612"
    },
    {
      "channel": 2,
      "note": 68,
      "start": 0.3851,
      "duration": 0.0828,
      "velocity": 120,
      "chip": "ym2612"
    },
    {
      "channel": 3,
      "note": 68,
      "start": 0.3854,
      "duration": 0.0826,
      "velocity": 120,
      "chip": "ym2612"
    },
    {
      "channel": 4,
      "note": 78,
      "start": 0.4475,
      "duration": 0.0206,
      "velocity": 97,
      "chip": "ym2612"
    },
    {
      "channel": 0,
      "note": 44,
      "start": 0.4906,
      "duration": 0.3298,
      "velocity": 127,
      "chip": "ym2612"
    },
    {
      "channel": 2,
      "note": 67,
      "start": 0.4909,
      "duration": 0.1015,
      "velocity": 120,
      "chip": "ym2612"
    },
    {
      "channel": 3,
      "note": 67,
      "start": 0.4912,
      "duration": 0.1013,
      "velocity": 120,
      "chip": "ym2612"
    },
    {
      "channel": 4,
      "note": 82,
      "start": 0.4916,
      "duration": 0.0594,
      "velocity": 97,
      "chip": "ym2612"
    },
    {
      "channel": 4,
      "note": 82,
      "start": 0.572,
      "duration": 0.0205,
      "velocity": 97,
      "chip": "ym2612"
    },
    {
      "channel": 3,
      "note": 65,
      "start": 0.6135,
      "duration": 0.1034,
      "velocity": 120,
      "chip": "ym2612"
    },
    {
      "channel": 4,
      "note": 75,
      "start": 0.6138,
      "duration": 0.0616,
      "velocity": 97,
      "chip": "ym2612"
    },
    {
      "channel": 4,
      "note": 75,
      "start": 0.6966,
      "duration": 0.0204,
      "velocity": 97,
      "chip": "ym2612"
    },
    {
      "channel": 1,
      "note": 58,
      "start": 0.7378,
      "duration": 0.7485,
      "velocity": 104,
      "chip": "ym2612"
    },
    {
      "channel": 2,
      "note": 60,
      "start": 0.738,
      "duration": 0.1033,
      "velocity": 120,
      "chip": "ym2612"
    },
    {
      "channel": 3,
      "note": 67,
      "start": 0.7383,
      "duration": 0.103,
      "velocity": 120,
      "chip": "ym2612"
    },
    {
      "channel": 4,
      "note": 80,
      "start": 0.7387,
      "duration": 0.0611,
      "velocity": 97,
      "chip": "ym2612"
    },
    {
      "channel": 4,
      "note": 80,
      "start": 0.8209,
      "duration": 0.0206,
      "velocity": 97,
      "chip": "ym2612"
    },
    {
      "channel": 0,
      "note": 44,
      "start": 0.8622,
      "duration": 0.0827,
      "velocity": 127,
      "chip": "ym2612"
    },
    {
      "channel": 3,
      "note": 67,
      "start": 0.8625,
      "duration": 0.1032,
      "velocity": 120,
      "chip": "ym2612"
    },
    {
      "channel": 4,
      "note": 73,
      "start": 0.8629,
      "duration": 0.0614,
      "velocity": 97,
      "chip": "ym2612"
    },
    {
      "channel": 4,
      "note": 73,
      "start": 0.9453,
      "duration": 0.0208,
      "velocity": 97,
      "chip": "ym2612"
    },
    {
      "channel": 0,
      "note": 53,
      "start": 0.9883,
      "duration": 0.1224,
      "velocity": 121,
      "chip": "ym2612"
    },
    {
      "channel": 2,
      "note": 62,
      "start": 0.9885,
      "duration": 0.2259,
      "velocity": 120,
      "chip": "ym2612"
    },
    {
      "channel": 4,
      "note": 75,
      "start": 0.989,
      "duration": 0.0595,
      "velocity": 97,
      "chip": "ym2612"
    },
    {
      "channel": 4,
      "note": 75,
      "start": 1.0695,
      "duration": 0.0205,
      "velocity": 97,
      "chip": "ym2612"
    },
    {
      "channel": 0,
      "note": 53,
      "start": 1.111,
      "duration": 0.1241,
      "velocity": 121,
      "chip": "ym2612"
    },
    {
      "channel": 3,
      "note": 60,
      "start": 1.1112,
      "duration": 0.1032,
      "velocity": 120,
      "chip": "ym2612"
    },
    {
      "channel": 4,
      "note": 68,
      "start": 1.1116,
      "duration": 0.0614,
      "velocity": 97,
      "chip": "ym2612"
    },
    {
      "channel": 4,
      "note": 68,
      "start": 1.194,
      "duration": 0.0205,
      "velocity": 97,
      "chip": "ym2612"
    },
    {
      "channel": 0,
      "note": 39,
      "start": 1.2373,
      "duration": 0.2466,
      "velocity": 127,
      "chip": "ym2612"
    },
    {
      "channel": 2,
      "note": 60,
      "start": 1.2376,
      "duration": 0.2257,
      "velocity": 120,
      "chip": "ym2612"
    },
    {
      "channel": 4,
      "note": 71,
      "start": 1.238,
      "duration": 0.0595,
      "velocity": 97,
      "chip": "ym2612"
    },
    {
      "channel": 4,
      "note": 71,
      "start": 1.3185,
      "duration": 0.0205,
      "velocity": 97,
      "chip": "ym2612"
    },
    {
      "channel": 3,
      "note": 62,
      "start": 1.3598,
      "duration": 0.2279,
      "velocity": 120,
      "chip": "ym2612"
    },
    {
      "channel": 4,
      "note": 66,
      "start": 1.3602,
      "duration": 0.0617,
      "velocity": 97,
      "chip": "ym2612"
    },
    {
      "channel": 4,
      "note": 66,
      "start": 1.4429,
      "duration": 0.0205,
      "velocity": 97,
      "chip": "ym2612"
    },
    {
      "channel": 0,
      "note": 44,
      "start": 1.4863,
      "duration": 0.2051,
      "velocity": 127,
      "chip": "ym2612"
    },
    {
      "channel": 1,
      "note": 59,
      "start": 1.4866,
      "duration": 0.4971,
      "velocity": 104,
      "chip": "ym2612"
    },
    {
      "channel": 2,
      "note": 62,
      "start": 1.4868,
      "duration": 0.2254,
      "velocity": 120,
      "chip": "ym2612"
    },
    {
      "channel": 4,
      "note": 70,
      "start": 1.4873,
      "duration": 0.059,
      "velocity": 97,
      "chip": "ym2612"
    },
    {
      "channel": 4,
      "note": 70,
      "start": 1.5673,
      "duration": 0.0205,
      "velocity": 97,
      "chip": "ym2612"
    },
    {
      "channel": 3,
      "note": 60,
      "start": 1.6087,
      "duration": 0.2278,
      "velocity": 120,
      "chip": "ym2612"
    },
    {
      "channel": 4,
      "note": 63,
      "start": 1.6091,
      "duration": 0.0617,
      "velocity": 97,
      "chip": "ym2612"
    },
    {
      "channel": 4,
      "note": 63,
      "start": 1.6918,
      "duration": 0.0205,
      "velocity": 97,
      "chip": "ym2612"
    },
    {
      "channel": 0,
      "note": 72,
      "start": 1.7347,
      "duration": 0.2469,
      "velocity": 127,
      "chip": "ym2612"
    },
    {
      "channel": 2,
      "note": 65,
      "start": 1.735,
      "duration": 0.2259,
      "velocity": 120,
      "chip": "ym2612"
    },
    {
      "channel": 4,
      "note": 68,
      "start": 1.7354,
      "duration": 0.0597,
      "velocity": 97,
      "chip": "ym2612"
    },
    {
      "channel": 4,
      "note": 68,
      "start": 1.8163,
      "duration": 0.0203,
      "velocity": 97,
      "chip": "ym2612"
    },
    {
      "channel": 3,
      "note": 62,
      "start": 1.8575,
      "duration": 0.228,
      "velocity": 120,
      "chip": "ym2612"
    },
    {
      "channel": 4,
      "note": 61,
      "start": 1.8578,
      "duration": 0.0617,
      "velocity": 97,
      "chip": "ym2612"
    },
    {
      "channel": 4,
      "note": 61,
      "start": 1.9405,
      "duration": 0.0205,
      "velocity": 97,
      "chip": "ym2612"
    },
    {
      "channel": 0,
      "note": 39,
      "start": 1.9836,
      "duration": 0.1226,
      "velocity": 127,
      "chip": "ym2612"
    },
    {
      "channel": 1,
      "note": 54,
      "start": 1.9839,
      "duration": 0.7444,
      "velocity": 104,
      "chip": "ym2612"
    },
    {
      "channel": 2,
      "note": 67,
      "start": 1.9841,
      "duration": 0.1013,
      "velocity": 120,
      "chip": "ym2612"
    },
    {
      "channel": 4,
      "note": 87,
      "start": 1.9845,
      "duration": 0.0594,
      "velocity": 97,
      "chip": "ym2612"
    },
    {
      "channel": 5,
      "note": 58,
      "start": 1.9848,
      "duration": 1.9904,
      "velocity": 99,
      "chip": "ym2612"
    },
    {
      "channel": 4,
      "note": 87,
      "start": 2.065,
      "duration": 0.0205,
      "velocity": 97,
      "chip": "ym2612"
    },
    {
      "channel": 0,
      "note": 53,
      "start": 2.1081,
      "duration": 0.1224,
      "velocity": 121,
      "chip": "ym2612"
    },
    {
      "channel": 2,
      "note": 67,
      "start": 2.1084,
      "duration": 0.1013,
      "velocity": 120,
      "chip": "ym2612"
    },
    {
      "channel": 3,
      "note": 65,
      "start": 2.1087,
      "duration": 0.2255,
      "velocity": 120,
      "chip": "ym2612"
    },
    {
      "channel": 4,
      "note": 80,
      "start": 2.109,
      "duration": 0.0593,
      "velocity": 97,
      "chip": "ym2612"
    },
    {
      "channel": 4,
      "note": 80,
      "start": 2.1893,
      "duration": 0.0205,
      "velocity": 97,
      "chip": "ym2612"
    },
    {
      "channel": 0,
      "note": 72,
      "start": 2.2324,
      "duration": 0.2469,
      "velocity": 127,
      "chip": "ym2612"
    },
    {
      "channel": 2,
      "note": 65,
      "start": 2.2327,
      "duration": 0.1015,
      "velocity": 120,
      "chip": "ym2612"
    },
    {
      "channel": 4,
      "note": 83,
      "start": 2.233,
      "duration": 0.0596,
      "velocity": 97,
      "chip": "ym2612"
    },
    {
      "channel": 4,
      "note": 83,
      "start": 2.3137,
      "duration": 0.0206,
      "velocity": 97,
      "chip": "ym2612"
    },
    {
      "channel": 2,
      "note": 67,
      "start": 2.3551,
      "duration": 0.1035,
      "velocity": 120,
      "chip": "ym2612"
    },
    {
      "channel": 3,
      "note": 67,
      "start": 2.3554,
      "duration": 0.1032,
      "velocity": 120,
      "chip": "ym2612"
    },
    {
      "channel": 4,
      "note": 78,
      "start": 2.3557,
      "duration": 0.0614,
      "velocity": 97,
      "chip": "ym2612"
    },
    {
      "channel": 4,
      "note": 78,
      "start": 2.4381,
      "duration": 0.0206,
      "velocity": 97,
      "chip": "ym2612"
    },
    {
      "channel": 0,
      "note": 44,
      "start": 2.4812,
      "duration": 0.3298,
      "velocity": 127,
      "chip": "ym2612"
    },
    {
      "channel": 2,
      "note": 67,
      "start": 2.4815,
      "duration": 0.1015,
      "velocity": 120,
      "chip": "ym2612"
    },
    {
      "channel": 3,
      "note": 67,
      "start": 2.4818,
      "duration": 0.1013,
      "velocity": 120,
      "chip": "ym2612"
    },
    {
      "channel": 4,
      "note": 82,
      "start": 2.4822,
      "duration": 0.0594,
      "velocity": 97,
      "chip": "ym2612"
    },
    {
      "channel": 4,
      "note": 82,
      "start": 2.5627,
      "duration": 0.0205,
      "velocity": 97,
      "chip": "ym2612"
    },
    {
      "channel": 3,
      "note": 65,
      "start": 2.6041,
      "duration": 0.1034,
      "velocity": 120,
      "chip": "ym2612"
    },
    {
      "channel": 4,
      "note": 75,
      "start": 2.6045,
      "duration": 0.0618,
      "velocity": 97,
      "chip": "ym2612"
    },
    {
      "channel": 4,
      "note": 75,
      "start": 2.6871,
      "duration": 0.0205,
      "velocity": 97,
      "chip": "ym2612"
    },
    {
      "channel": 1,
      "note": 56,
      "start": 2.7285,
      "duration": 0.7484,
      "velocity": 104,
      "chip": "ym2612"
    },
    {
      "channel": 2,
      "note": 60,
      "start": 2.7287,
      "duration": 0.1033,
      "velocity": 120,
      "chip": "ym2612"
    },
    {
      "channel": 3,
      "note": 67,
      "start": 2.729,
      "duration": 0.103,
      "velocity": 120,
      "chip": "ym2612"
    },
    {
      "channel": 4,
      "note": 80,
      "start": 2.7293,
      "duration": 0.0611,
      "velocity": 97,
      "chip": "ym2612"
    },
    {
      "channel": 4,
      "note": 80,
      "start": 2.8115,
      "duration": 0.0206,
      "velocity": 97,
      "chip": "ym2612"
    },
    {
      "channel": 0,
      "note": 44,
      "start": 2.8528,
      "duration": 0.0827,
      "velocity": 127,
      "chip": "ym2612"
    },
    {
      "channel": 3,
      "note": 67,
      "start": 2.8532,
      "duration": 0.1032,
      "velocity": 120,
      "chip": "ym2612"
    },
    {
      "channel": 4,
      "note": 73,
      "start": 2.8535,
      "duration": 0.0613,
      "velocity": 97,
      "chip": "ym2612"
    },
    {
      "channel": 4,
      "note": 73,
      "start": 2.9362,
      "duration": 0.0203,
      "velocity": 97,
      "chip": "ym2612"
    },
    {
      "channel": 0,
      "note": 53,
      "start": 2.9789,
      "duration": 0.1224,
      "velocity": 121,
      "chip": "ym2612"
    },
    {
      "channel": 2,
      "note": 62,
      "start": 2.9791,
      "duration": 0.2261,
      "velocity": 120,
      "chip": "ym2612"
    },
    {
      "channel": 4,
      "note": 75,
      "start": 2.9796,
      "duration": 0.0596,
      "velocity": 97,
      "chip": "ym2612"
    },
    {
      "channel": 4,
      "note": 75,
      "start": 3.0602,
      "duration": 0.0205,
      "velocity": 97,
      "chip": "ym2612"
    },
    {
      "channel": 0,
      "note": 44,
      "start": 3.1034,
      "duration": 0.081,
      "velocity": 127,
      "chip": "ym2612"
    },
    {
      "channel": 3,
      "note": 60,
      "start": 3.1036,
      "duration": 0.1017,
      "velocity": 120,
      "chip": "ym2612"
    },
    {
      "channel": 4,
      "note": 68,
      "start": 3.1039,
      "duration": 0.0598,
      "velocity": 97,
      "chip": "ym2612"
    },
    {
      "channel": 4,
      "note": 68,
      "start": 3.1848,
      "duration": 0.0205,
      "velocity": 97,
      "chip": "ym2612"
    },
    {
      "channel": 0,
      "note": 39,
      "start": 3.228,
      "duration": 0.2051,
      "velocity": 127,
      "chip": "ym2612"
    },
    {
      "channel": 2,
      "note": 60,
      "start": 3.2283,
      "duration": 0.2258,
      "velocity": 120,
      "chip": "ym2612"
    },
    {
      "channel": 4,
      "note": 71,
      "start": 3.2287,
      "duration": 0.0595,
      "velocity": 97,
      "chip": "ym2612"
    },
    {
      "channel": 4,
      "note": 71,
      "start": 3.3091,
      "duration": 0.0205,
      "velocity": 97,
      "chip": "ym2612"
    },
    {
      "channel": 3,
      "note": 62,
      "start": 3.3505,
      "duration": 0.2279,
      "velocity": 120,
      "chip": "ym2612"
    },
    {
      "channel": 4,
      "note": 66,
      "start": 3.3508,
      "duration": 0.0617,
      "velocity": 97,
      "chip": "ym2612"
    },
    {
      "channel": 4,
      "note": 66,
      "start": 3.4336,
      "duration": 0.0205,
      "velocity": 97,
      "chip": "ym2612"
    },
    {
      "channel": 0,
      "note": 44,
      "start": 3.4768,
      "duration": 0.2051,
      "velocity": 127,
      "chip": "ym2612"
    },
    {
      "channel": 1,
      "note": 58,
      "start": 3.4771,
      "duration": 0.4972,
      "velocity": 104,
      "chip": "ym2612"
    },
    {
      "channel": 2,
      "note": 62,
      "start": 3.4774,
      "duration": 0.2255,
      "velocity": 120,
      "chip": "ym2612"
    },
    {
      "channel": 4,
      "note": 70,
      "start": 3.4778,
      "duration": 0.0592,
      "velocity": 97,
      "chip": "ym2612"
    },
    {
      "channel": 4,
      "note": 70,
      "start": 3.558,
      "duration": 0.0205,
      "velocity": 97,
      "chip": "ym2612"
    },
    {
      "channel": 3,
      "note": 60,
      "start": 3.5994,
      "duration": 0.2278,
      "velocity": 120,
      "chip": "ym2612"
    },
    {
      "channel": 4,
      "note": 63,
      "start": 3.5997,
      "duration": 0.0616,
      "velocity": 97,
      "chip": "ym2612"
    },
    {
      "channel": 4,
      "note": 63,
      "start": 3.6824,
      "duration": 0.0205,
      "velocity": 97,
      "chip": "ym2612"
    },
    {
      "channel": 0,
      "note": 72,
      "start": 3.7254,
      "duration": 0.2469,
      "velocity": 127,
      "chip": "ym2612"
    },
    {
      "channel": 2,
      "note": 65,
      "start": 3.7257,
      "duration": 0.2259,
      "velocity": 120,
      "chip": "ym2612"
    },
    {
      "channel": 4,
      "note": 68,
      "start": 3.7263,
      "duration": 0.0594,
      "velocity": 97,
      "chip": "ym2612"
    },
    {
      "channel": 4,
      "note": 68,
      "start": 3.8067,
      "duration": 0.0205,
      "velocity": 97,
      "chip": "ym2612"
    },
    {
      "channel": 3,
      "note": 62,
      "start": 3.8481,
      "duration": 0.2282,
      "velocity": 120,
      "chip": "ym2612"
    },
    {
      "channel": 4,
      "note": 61,
      "start": 3.8484,
      "duration": 0.0617,
      "velocity": 97,
      "chip": "ym2612"
    },
    {
      "channel": 4,
      "note": 61,
      "start": 3.9311,
      "duration": 0.0205,
      "velocity": 97,
      "chip": "ym2612"
    },
    {
      "channel": 0,
      "note": 39,
      "start": 3.9742,
      "duration": 0.1224,
      "velocity": 127,
      "chip": "ym2612"
    },
    {
      "channel": 1,
      "note": 52,
      "start": 3.9745,
      "duration": 0.7444,
      "velocity": 104,
      "chip": "ym2612"
    },
    {
      "channel": 2,
      "note": 67,
      "start": 3.9748,
      "duration": 0.1015,
      "velocity": 120,
      "chip": "ym2612"
    },
    {
      "channel": 4,
      "note": 87,
      "start": 3.9752,
      "duration": 0.0594,
      "velocity": 97,
      "chip": "ym2612"
    },
    {
      "channel": 5,
      "note": 59,
      "start": 3.9755,
      "duration": 1.9907,
      "velocity": 99,
      "chip": "ym2612"
    },
    {
      "channel": 4,
      "note": 87,
      "start": 4.0556,
      "duration": 0.0207,
      "velocity": 97,
      "chip": "ym2612"
    },
    {
      "channel": 0,
      "note": 53,
      "start": 4.0986,
      "duration": 0.1225,
      "velocity": 121,
      "chip": "ym2612"
    },
    {
      "channel": 2,
      "note": 67,
      "start": 4.0989,
      "duration": 0.1015,
      "velocity": 120,
      "chip": "ym2612"
    },
    {
      "channel": 3,
      "note": 65,
      "start": 4.0992,
      "duration": 0.2256,
      "velocity": 120,
      "chip": "ym2612"
    },
    {
      "channel": 4,
      "note": 80,
      "start": 4.0995,
      "duration": 0.0594,
      "velocity": 97,
      "chip": "ym2612"
    },
    {
      "channel": 4,
      "note": 80,
      "start": 4.18,
      "duration": 0.0205,
      "velocity": 97,
      "chip": "ym2612"
    },
    {
      "channel": 0,
      "note": 72,
      "start": 4.2231,
      "duration": 0.2469,
      "velocity": 127,
      "chip": "ym2612"
    },
    {
      "channel": 2,
      "note": 65,
      "start": 4.2234,
      "duration": 0.1015,
      "velocity": 120,
      "chip": "ym2612"
    },
    {
      "channel": 4,
      "note": 83,
      "start": 4.2237,
      "duration": 0.0596,
      "velocity": 97,
      "chip": "ym2612"
    },
    {
      "channel": 4,
      "note": 83,
      "start": 4.3044,
      "duration": 0.0206,
      "velocity": 97,
      "chip": "ym2612"
    },
    {
      "channel": 2,
      "note": 67,
      "start": 4.3458,
      "duration": 0.1034,
      "velocity": 120,
      "chip": "ym2612"
    },
    {
      "channel": 3,
      "note": 67,
      "start": 4.3463,
      "duration": 0.103,
      "velocity": 120,
      "chip": "ym2612"
    },
    {
      "channel": 4,
      "note": 78,
      "start": 4.3466,
      "duration": 0.0611,
      "velocity": 97,
      "chip": "ym2612"
    },
    {
      "channel": 4,
      "note": 78,
      "start": 4.4288,
      "duration": 0.0206,
      "velocity": 97,
      "chip": "ym2612"
    },
    {
      "channel": 0,
      "note": 44,
      "start": 4.4719,
      "duration": 0.3298,
      "velocity": 127,
      "chip": "ym2612"
    },
    {
      "channel": 2,
      "note": 67,
      "start": 4.4722,
      "duration": 0.1015,
      "velocity": 120,
      "chip": "ym2612"
    },
    {
      "channel": 3,
      "note": 67,
      "start": 4.4725,
      "duration": 0.1013,
      "velocity": 120,
      "chip": "ym2612"
    },
    {
      "channel": 4,
      "note": 82,
      "start": 4.4729,
      "duration": 0.0594,
      "velocity": 97,
      "chip": "ym2612"
    },
    {
      "channel": 4,
      "note": 82,
      "start": 4.5533,
      "duration": 0.0205,
      "velocity": 97,
      "chip": "ym2612"
    },
    {
      "channel": 3,
      "note": 65,
      "start": 4.5948,
      "duration": 0.1034,
      "velocity": 120,
      "chip": "ym2612"
    },
    {
      "channel": 4,
      "note": 75,
      "start": 4.5951,
      "duration": 0.0616,
      "velocity": 97,
      "chip": "ym2612"
    },
    {
      "channel": 4,
      "note": 75,
      "start": 4.6777,
      "duration": 0.0205,
      "velocity": 97,
      "chip": "ym2612"
    },
    {
      "channel": 1,
      "note": 54,
      "start": 4.7191,
      "duration": 0.7484,
      "velocity": 104,
      "chip": "ym2612"
    },
    {
      "channel": 2,
      "note": 60,
      "start": 4.7193,
      "duration": 0.1033,
      "velocity": 120,
      "chip": "ym2612"
    },
    {
      "channel": 3,
      "note": 67,
      "start": 4.7196,
      "duration": 0.103,
      "velocity": 120,
      "chip": "ym2612"
    },
    {
      "channel": 4,
      "note": 80,
      "start": 4.72,
      "duration": 0.0611,
      "velocity": 97,
      "chip": "ym2612"
    },
    {
      "channel": 4,
      "note": 80,
      "start": 4.8022,
      "duration": 0.0206,
      "velocity": 97,
      "chip": "ym2612"
    },
    {
      "channel": 0,
      "note": 44,
      "start": 4.8435,
      "duration": 0.0827,
      "velocity": 127,
      "chip": "ym2612"
    },
    {
      "channel": 3,
      "note": 67,
      "start": 4.8438,
      "duration": 0.1032,
      "velocity": 120,
      "chip": "ym2612"
    },
    {
      "channel": 4,
      "note": 73,
      "start": 4.8442,
      "duration": 0.0614,
      "velocity": 97,
      "chip": "ym2612"
    },
    {
      "channel": 4,
      "note": 73,
      "start": 4.9266,
      "duration": 0.0205,
      "velocity": 97,
      "chip": "ym2612"
    },
    {
      "channel": 0,
      "note": 53,
      "start": 4.9695,
      "duration": 0.1225,
      "velocity": 121,
      "chip": "ym2612"
    },
    {
      "channel": 2,
      "note": 62,
      "start": 4.9698,
      "duration": 0.2263,
      "velocity": 120,
      "chip": "ym2612"
    },
    {
      "channel": 4,
      "note": 75,
      "start": 4.9703,
      "duration": 0.0595,
      "velocity": 97,
      "chip": "ym2612"
    },
    {
      "channel": 4,
      "note": 75,
      "start": 5.0509,
      "duration": 0.0205,
      "velocity": 97,
      "chip": "ym2612"
    },
    {
      "channel": 0,
      "note": 44,
      "start": 5.094,
      "duration": 0.081,
      "velocity": 127,
      "chip": "ym2612"
    },
    {
      "channel": 3,
      "note": 60,
      "start": 5.0942,
      "duration": 0.102,
      "velocity": 120,
      "chip": "ym2612"
    },
    {
      "channel": 4,
      "note": 68,
      "start": 5.0946,
      "duration": 0.0598,
      "velocity": 97,
      "chip": "ym2612"
    },
    {
      "channel": 4,
      "note": 68,
      "start": 5.1754,
      "duration": 0.0208,
      "velocity": 97,
      "chip": "ym2612"
    },
    {
      "channel": 0,
      "note": 39,
      "start": 5.2184,
      "duration": 0.2054,
      "velocity": 127,
      "chip": "ym2612"
    },
    {
      "channel": 2,
      "note": 60,
      "start": 5.2187,
      "duration": 0.226,
      "velocity": 120,
      "chip": "ym2612"
    },
    {
      "channel": 4,
      "note": 71,
      "start": 5.2191,
      "duration": 0.0597,
      "velocity": 97,
      "chip": "ym2612"
    },
    {
      "channel": 4,
      "note": 71,
      "start": 5.2998,
      "duration": 0.0205,
      "velocity": 97,
      "chip": "ym2612"
    },
    {
      "channel": 3,
      "note": 62,
      "start": 5.3412,
      "duration": 0.2279,
      "velocity": 120,
      "chip": "ym2612"
    },
    {
      "channel": 4,
      "note": 66,
      "start": 5.3415,
      "duration": 0.0617,
      "velocity": 97,
      "chip": "ym2612"
    },
    {
      "channel": 4,
      "note": 66,
      "start": 5.4243,
      "duration": 0.0205,
      "velocity": 97,
      "chip": "ym2612"
    },
    {
      "channel": 0,
      "note": 44,
      "start": 5.4675,
      "duration": 0.2051,
      "velocity": 127,
      "chip": "ym2612"
    },
    {
      "channel": 1,
      "note": 56,
      "start": 5.4678,
      "duration": 0.4972,
      "velocity": 104,
      "chip": "ym2612"
    },
    {
      "channel": 2,
      "note": 62,
      "start": 5.468,
      "duration": 0.2255,
      "velocity": 120,
      "chip": "ym2612"
    },
    {
      "channel": 4,
      "note": 70,
      "start": 5.4684,
      "duration": 0.0592,
      "velocity": 97,
      "chip": "ym2612"
    },
    {
      "channel": 4,
      "note": 70,
      "start": 5.5486,
      "duration": 0.0205,
      "velocity": 97,
      "chip": "ym2612"
    },
    {
      "channel": 3,
      "note": 60,
      "start": 5.59,
      "duration": 0.2278,
      "velocity": 120,
      "chip": "ym2612"
    },
    {
      "channel": 4,
      "note": 63,
      "start": 5.5904,
      "duration": 0.0617,
      "velocity": 97,
      "chip": "ym2612"
    },
    {
      "channel": 4,
      "note": 63,
      "start": 5.6731,
      "duration": 0.0205,
      "velocity": 97,
      "chip": "ym2612"
    },
    {
      "channel": 0,
      "note": 72,
      "start": 5.7163,
      "duration": 0.2466,
      "velocity": 127,
      "chip": "ym2612"
    },
    {
      "channel": 2,
      "note": 65,
      "start": 5.7166,
      "duration": 0.2256,
      "velocity": 120,
      "chip": "ym2612"
    },
    {
      "channel": 4,
      "note": 68,
      "start": 5.7169,
      "duration": 0.0594,
      "velocity": 97,
      "chip": "ym2612"
    },
    {
      "channel": 4,
      "note": 68,
      "start": 5.7973,
      "duration": 0.0205,
      "velocity": 97,
      "chip": "ym2612"
    },
    {
      "channel": 3,
      "note": 62,
      "start": 5.8388,
      "duration": 0.228,
      "velocity": 120,
      "chip": "ym2612"
    },
    {
      "channel": 4,
      "note": 61,
      "start": 5.8391,
      "duration": 0.0617,
      "velocity": 97,
      "chip": "ym2612"
    },
    {
      "channel": 4,
      "note": 61,
      "start": 5.9218,
      "duration": 0.0205,
      "velocity": 97,
      "chip": "ym2612"
    },
    {
      "channel": 0,
      "note": 39,
      "start": 5.9649,
      "duration": 0.1225,
      "velocity": 127,
      "chip": "ym2612"
    },
    {
      "channel": 1,
      "note": 51,
      "start": 5.9652,
      "duration": 0.7444,
      "velocity": 104,
      "chip": "ym2612"
    },
    {
      "channel": 2,
      "note": 67,
      "start": 5.9655,
      "duration": 0.1013,
      "velocity": 120,
      "chip": "ym2612"
    },
    {
      "channel": 4,
      "note": 87,
      "start": 5.9661,
      "duration": 0.0592,
      "velocity": 97,
      "chip": "ym2612"
    },
    {
      "channel": 5,
      "note": 61,
      "start": 5.9664,
      "duration": 1.9956,
      "velocity": 99,
      "chip": "ym2612"
    },
    {
      "channel": 4,
      "note": 87,
      "start": 6.0466,
      "duration": 0.0203,
      "velocity": 97,
      "chip": "ym2612"
    },
    {
      "channel": 0,
      "note": 53,
      "start": 6.0893,
      "duration": 0.1224,
      "velocity": 121,
      "chip": "ym2612"
    },
    {
      "channel": 2,
      "note": 67,
      "start": 6.0896,
      "duration": 0.1014,
      "velocity": 120,
      "chip": "ym2612"
    },
    {
      "channel": 3,
      "note": 65,
      "start": 6.0899,
      "duration": 0.2256,
      "velocity": 120,
      "chip": "ym2612"
    },
    {
      "channel": 4,
      "note": 80,
      "start": 6.0902,
      "duration": 0.0593,
      "velocity": 97,
      "chip": "ym2612"
    },
    {
      "channel": 4,
      "note": 80,
      "start": 6.1706,
      "duration": 0.0205,
      "velocity": 97,
      "chip": "ym2612"
    },
    {
      "channel": 0,
      "note": 72,
      "start": 6.2137,
      "duration": 0.2469,
      "velocity": 127,
      "chip": "ym2612"
    },
    {
      "channel": 2,
      "note": 65,
      "start": 6.214,
      "duration": 0.1015,
      "velocity": 120,
      "chip": "ym2612"
    },
    {
      "channel": 4,
      "note": 83,
      "start": 6.2144,
      "duration": 0.0596,
      "velocity": 97,
      "chip": "ym2612"
    },
    {
      "channel": 4,
      "note": 83,
      "start": 6.295,
      "duration": 0.0206,
      "velocity": 97,
      "chip": "ym2612"
    },
    {
      "channel": 2,
      "note": 67,
      "start": 6.3365,
      "duration": 0.1034,
      "velocity": 120,
      "chip": "ym2612"
    },
    {
      "channel": 3,
      "note": 67,
      "start": 6.3368,
      "duration": 0.1032,
      "velocity": 120,
      "chip": "ym2612"
    },
    {
      "channel": 4,
      "note": 78,
      "start": 6.3371,
      "duration": 0.0613,
      "velocity": 97,
      "chip": "ym2612"
    },
    {
      "channel": 4,
      "note": 78,
      "start": 6.4194,
      "duration": 0.0206,
      "velocity": 97,
      "chip": "ym2612"
    },
    {
      "channel": 0,
      "note": 44,
      "start": 6.4625,
      "duration": 0.3298,
      "velocity": 127,
      "chip": "ym2612"
    },
    {
      "channel": 2,
      "note": 67,
      "start": 6.4629,
      "duration": 0.1015,
      "velocity": 120,
      "chip": "ym2612"
    },
    {
      "channel": 3,
      "note": 67,
      "start": 6.4632,
      "duration": 0.1013,
      "velocity": 120,
      "chip": "ym2612"
    },
    {
      "channel": 4,
      "note": 82,
      "start": 6.4635,
      "duration": 0.0594,
      "velocity": 97,
      "chip": "ym2612"
    },
    {
      "channel": 4,
      "note": 82,
      "start": 6.544,
      "duration": 0.0205,
      "velocity": 97,
      "chip": "ym2612"
    },
    {
      "channel": 3,
      "note": 65,
      "start": 6.5854,
      "duration": 0.1034,
      "velocity": 120,
      "chip": "ym2612"
    },
    {
      "channel": 4,
      "note": 75,
      "start": 6.5858,
      "duration": 0.0616,
      "velocity": 97,
      "chip": "ym2612"
    },
    {
      "channel": 4,
      "note": 75,
      "start": 6.6684,
      "duration": 0.0205,
      "velocity": 97,
      "chip": "ym2612"
    },
    {
      "channel": 1,
      "note": 53,
      "start": 6.7098,
      "duration": 0.7484,
      "velocity": 104,
      "chip": "ym2612"
    },
    {
      "channel": 2,
      "note": 67,
      "start": 6.71,
      "duration": 0.1033,
      "velocity": 120,
      "chip": "ym2612"
    },
    {
      "channel": 3,
      "note": 67,
      "start": 6.7103,
      "duration": 0.103,
      "velocity": 120,
      "chip": "ym2612"
    },
    {
      "channel": 4,
      "note": 80,
      "start": 6.7106,
      "duration": 0.0611,
      "velocity": 97,
      "chip": "ym2612"
    },
    {
      "channel": 4,
      "note": 80,
      "start": 6.7928,
      "duration": 0.0206,
      "velocity": 97,
      "chip": "ym2612"
    },
    {
      "channel": 0,
      "note": 44,
      "start": 6.8341,
      "duration": 0.0827,
      "velocity": 127,
      "chip": "ym2612"
    },
    {
      "channel": 3,
      "note": 67,
      "start": 6.8345,
      "duration": 0.1032,
      "velocity": 120,
      "chip": "ym2612"
    },
    {
      "channel": 4,
      "note": 73,
      "start": 6.8348,
      "duration": 0.0615,
      "velocity": 97,
      "chip": "ym2612"
    },
    {
      "channel": 4,
      "note": 73,
      "start": 6.9173,
      "duration": 0.0205,
      "velocity": 97,
      "chip": "ym2612"
    },
    {
      "channel": 0,
      "note": 53,
      "start": 6.9602,
      "duration": 0.1225,
      "velocity": 121,
      "chip": "ym2612"
    },
    {
      "channel": 2,
      "note": 70,
      "start": 6.9605,
      "duration": 0.2261,
      "velocity": 120,
      "chip": "ym2612"
    },
    {
      "channel": 4,
      "note": 75,
      "start": 6.9609,
      "duration": 0.0596,
      "velocity": 97,
      "chip": "ym2612"
    },
    {
      "channel": 4,
      "note": 75,
      "start": 7.0415,
      "duration": 0.0205,
      "velocity": 97,
      "chip": "ym2612"
    },
    {
      "channel": 0,
      "note": 44,
      "start": 7.0846,
      "duration": 0.081,
      "velocity": 127,
      "chip": "ym2612"
    },
    {
      "channel": 3,
      "note": 67,
      "start": 7.0849,
      "duration": 0.1017,
      "velocity": 120,
      "chip": "ym2612"
    },
    {
      "channel": 4,
      "note": 68,
      "start": 7.0852,
      "duration": 0.0598,
      "velocity": 97,
      "chip": "ym2612"
    },
    {
      "channel": 4,
      "note": 68,
      "start": 7.1663,
      "duration": 0.0203,
      "velocity": 97,
      "chip": "ym2612"
    },
    {
      "channel": 0,
      "note": 39,
      "start": 7.209,
      "duration": 0.2054,
      "velocity": 127,
      "chip": "ym2612"
    },
    {
      "channel": 2,
      "note": 69,
      "start": 7.2093,
      "duration": 0.226,
      "velocity": 120,
      "chip": "ym2612"
    },
    {
      "channel": 4,
      "note": 71,
      "start": 7.2097,
      "duration": 0.0597,
      "velocity": 97,
      "chip": "ym2612"
    },
    {
      "channel": 4,
      "note": 71,
      "start": 7.2905,
      "duration": 0.0205,
      "velocity": 97,
      "chip": "ym2612"
    },
    {
      "channel": 3,
      "note": 70,
      "start": 7.3318,
      "duration": 0.228,
      "velocity": 120,
      "chip": "ym2612"
    },
    {
      "channel": 4,
      "note": 66,
      "start": 7.3322,
      "duration": 0.0617,
      "velocity": 97,
      "chip": "ym2612"
    },
    {
      "channel": 4,
      "note": 66,
      "start": 7.4149,
      "duration": 0.0205,
      "velocity": 97,
      "chip": "ym2612"
    },
    {
      "channel": 0,
      "note": 44,
      "start": 7.4581,
      "duration": 0.0808,
      "velocity": 127,
      "chip": "ym2612"
    },
    {
      "channel": 1,
      "note": 55,
      "start": 7.4584,
      "duration": 0.4972,
      "velocity": 104,
      "chip": "ym2612"
    },
    {
      "channel": 2,
      "note": 60,
      "start": 7.4587,
      "duration": 0.2255,
      "velocity": 120,
      "chip": "ym2612"
    },
    {
      "channel": 4,
      "note": 70,
      "start": 7.459,
      "duration": 0.0592,
      "velocity": 97,
      "chip": "ym2612"
    },
    {
      "channel": 4,
      "note": 70,
      "start": 7.5393,
      "duration": 0.0205,
      "velocity": 97,
      "chip": "ym2612"
    },
    {
      "channel": 0,
      "note": 44,
      "start": 7.5806,
      "duration": 0.0827,
      "velocity": 127,
      "chip": "ym2612"
    },
    {
      "channel": 3,
      "note": 69,
      "start": 7.5809,
      "duration": 0.2277,
      "velocity": 120,
      "chip": "ym2612"
    },
    {
      "channel": 4,
      "note": 63,
      "start": 7.5812,
      "duration": 0.0614,
      "velocity": 97,
      "chip": "ym2612"
    },
    {
      "channel": 4,
      "note": 63,
      "start": 7.6637,
      "duration": 0.0205,
      "velocity": 97,
      "chip": "ym2612"
    },
    {
      "channel": 0,
      "note": 40,
      "start": 7.707,
      "duration": 0.2259,
      "velocity": 91,
      "chip": "ym2612"
    },
    {
      "channel": 2,
      "note": 62,
      "start": 7.7073,
      "duration": 0.2258,
      "velocity": 120,
      "chip": "ym2612"
    },
    {
      "channel": 4,
      "note": 68,
      "start": 7.7076,
      "duration": 0.0595,
      "velocity": 97,
      "chip": "ym2612"
    },
    {
      "channel": 4,
      "note": 68,
      "start": 7.7881,
      "duration": 0.0205,
      "velocity": 97,
      "chip": "ym2612"
    },
    {
      "channel": 3,
      "note": 60,
      "start": 7.8295,
      "duration": 0.2279,
      "velocity": 120,
      "chip": "ym2612"
    },
    {
      "channel": 4,
      "note": 61,
      "start": 7.8299,
      "duration": 0.0617,
      "velocity": 97,
      "chip": "ym2612"
    },
    {
      "channel": 4,
      "note": 61,
      "start": 7.9125,
      "duration": 0.0205,
      "velocity": 97,
      "chip": "ym2612"
    },
    {
      "channel": 0,
      "note": 32,
      "start": 7.9555,
      "duration": 0.2469,
      "velocity": 127,
      "chip": "ym2612"
    },
    {
      "channel": 1,
      "note": 56,
      "start": 7.9578,
      "duration": 0.7424,
      "velocity": 104,
      "chip": "ym2612"
    },
    {
      "channel": 2,
      "note": 67,
      "start": 7.9598,
      "duration": 0.0976,
      "velocity": 120,
      "chip": "ym2612"
    },
    {
      "channel": 4,
      "note": 87,
      "start": 7.9619,
      "duration": 0.0543,
      "velocity": 97,
      "chip": "ym2612"
    },
    {
      "channel": 5,
      "note": 56,
      "start": 7.9639,
      "duration": 1.9835,
      "velocity": 99,
      "chip": "ym2612"
    },
    {
      "channel": 4,
      "note": 87,
      "start": 8.0369,
      "duration": 0.0206,
      "velocity": 97,
      "chip": "ym2612"
    },
    {
      "channel": 2,
      "note": 67,
      "start": 8.0784,
      "duration": 0.1034,
      "velocity": 120,
      "chip": "ym2612"
    },
    {
      "channel": 3,
      "note": 62,
      "start": 8.0786,
      "duration": 0.2276,
      "velocity": 120,
      "chip": "ym2612"
    },
    {
      "channel": 4,
      "note": 80,
      "start": 8.079,
      "duration": 0.0614,
      "velocity": 97,
      "chip": "ym2612"
    },
    {
      "channel": 4,
      "note": 80,
      "start": 8.1614,
      "duration": 0.0205,
      "velocity": 97,
      "chip": "ym2612"
    },
    {
      "channel": 0,
      "note": 72,
      "start": 8.2044,
      "duration": 0.2468,
      "velocity": 127,
      "chip": "ym2612"
    },
    {
      "channel": 2,
      "note": 65,
      "start": 8.2047,
      "duration": 0.1015,
      "velocity": 120,
      "chip": "ym2612"
    },
    {
      "channel": 4,
      "note": 83,
      "start": 8.205,
      "duration": 0.0596,
      "velocity": 97,
      "chip": "ym2612"
    },
    {
      "channel": 4,
      "note": 83,
      "start": 8.2857,
      "duration": 0.0206,
      "velocity": 97,
      "chip": "ym2612"
    },
    {
      "channel": 2,
      "note": 67,
      "start": 8.3271,
      "duration": 0.1034,
      "velocity": 120,
      "chip": "ym2612"
    },
    {
      "channel": 3,
      "note": 67,
      "start": 8.3291,
      "duration": 0.1015,
      "velocity": 120,
      "chip": "ym2612"
    },
    {
      "channel": 4,
      "note": 78,
      "start": 8.3294,
      "duration": 0.0596,
      "velocity": 97,
      "chip": "ym2612"
    },
    {
      "channel": 4,
      "note": 78,
      "start": 8.4101,
      "duration": 0.0205,
      "velocity": 97,
      "chip": "ym2612"
    },
    {
      "channel": 0,
      "note": 44,
      "start": 8.4532,
      "duration": 0.3298,
      "velocity": 127,
      "chip": "ym2612"
    },
    {
      "channel": 2,
      "note": 67,
      "start": 8.4535,
      "duration": 0.1015,
      "velocity": 120,
      "chip": "ym2612"
    },
    {
      "channel": 3,
      "note": 67,
      "start": 8.4538,
      "duration": 0.1013,
      "velocity": 120,
      "chip": "ym2612"
    },
    {
      "channel": 4,
      "note": 82,
      "start": 8.4542,
      "duration": 0.0594,
      "velocity": 97,
      "chip": "ym2612"
    },
    {
      "channel": 4,
      "note": 82,
      "start": 8.5346,
      "duration": 0.0206,
      "velocity": 97,
      "chip": "ym2612"
    },
    {
      "channel": 3,
      "note": 65,
      "start": 8.5763,
      "duration": 0.1031,
      "velocity": 120,
      "chip": "ym2612"
    },
    {
      "channel": 4,
      "note": 75,
      "start": 8.5767,
      "duration": 0.0613,
      "velocity": 97,
      "chip": "ym2612"
    },
    {
      "channel": 4,
      "note": 75,
      "start": 8.659,
      "duration": 0.0205,
      "velocity": 97,
      "chip": "ym2612"
    },
    {
      "channel": 1,
      "note": 58,
      "start": 8.7004,
      "duration": 0.7482,
      "velocity": 104,
      "chip": "ym2612"
    },
    {
      "channel": 2,
      "note": 60,
      "start": 8.7007,
      "duration": 0.1033,
      "velocity": 120,
      "chip": "ym2612"
    },
    {
      "channel": 3,
      "note": 67,
      "start": 8.701,
      "duration": 0.103,
      "velocity": 120,
      "chip": "ym2612"
    },
    {
      "channel": 4,
      "note": 80,
      "start": 8.7013,
      "duration": 0.0612,
      "velocity": 97,
      "chip": "ym2612"
    },
    {
      "channel": 4,
      "note": 80,
      "start": 8.7835,
      "duration": 0.0206,
      "velocity": 97,
      "chip": "ym2612"
    },
    {
      "channel": 0,
      "note": 44,
      "start": 8.8248,
      "duration": 0.0827,
      "velocity": 127,
      "chip": "ym2612"
    },
    {
      "channel": 3,
      "note": 67,
      "start": 8.8251,
      "duration": 0.1032,
      "velocity": 120,
      "chip": "ym2612"
    },
    {
      "channel": 4,
      "note": 73,
      "start": 8.8255,
      "duration": 0.0614,
      "velocity": 97,
      "chip": "ym2612"
    },
    {
      "channel": 4,
      "note": 73,
      "start": 8.9079,
      "duration": 0.0205,
      "velocity": 97,
      "chip": "ym2612"
    },
    {
      "channel": 0,
      "note": 53,
      "start": 8.9509,
      "duration": 0.1225,
      "velocity": 121,
      "chip": "ym2612"
    },
    {
      "channel": 2,
      "note": 62,
      "start": 8.9511,
      "duration": 0.2259,
      "velocity": 120,
      "chip": "ym2612"
    },
    {
      "channel": 4,
      "note": 75,
      "start": 8.9516,
      "duration": 0.0596,
      "velocity": 97,
      "chip": "ym2612"
    },
    {
      "channel": 4,
      "note": 75,
      "start": 9.0322,
      "duration": 0.0205,
      "velocity": 97,
      "chip": "ym2612"
    },
    {
      "channel": 0,
      "note": 53,
      "start": 9.0736,
      "duration": 0.1241,
      "velocity": 121,
      "chip": "ym2612"
    },
    {
      "channel": 3,
      "note": 60,
      "start": 9.0739,
      "duration": 0.1032,
      "velocity": 120,
      "chip": "ym2612"
    },
    {
      "channel": 4,
      "note": 68,
      "start": 9.0742,
      "duration": 0.0614,
      "velocity": 97,
      "chip": "ym2612"
    },
    {
      "channel": 4,
      "note": 68,
      "start": 9.1566,
      "duration": 0.0206,
      "velocity": 97,
      "chip": "ym2612"
    },
    {
      "channel": 0,
      "note": 39,
      "start": 9.1997,
      "duration": 0.2469,
      "velocity": 127,
      "chip": "ym2612"
    },
    {
      "channel": 2,
      "note": 60,
      "start": 9.2,
      "duration": 0.2262,
      "velocity": 120,
      "chip": "ym2612"
    },
    {
      "channel": 4,
      "note": 71,
      "start": 9.2004,
      "duration": 0.0597,
      "velocity": 97,
      "chip": "ym2612"
    },
    {
      "channel": 4,
      "note": 71,
      "start": 9.2811,
      "duration": 0.0205,
      "velocity": 97,
      "chip": "ym2612"
    },
    {
      "channel": 3,
      "note": 62,
      "start": 9.3225,
      "duration": 0.2279,
      "velocity": 120,
      "chip": "ym2612"
    },
    {
      "channel": 4,
      "note": 66,
      "start": 9.3229,
      "duration": 0.0617,
      "velocity": 97,
      "chip": "ym2612"
    },
    {
      "channel": 4,
      "note": 66,
      "start": 9.4055,
      "duration": 0.0207,
      "velocity": 97,
      "chip": "ym2612"
    },
    {
      "channel": 0,
      "note": 44,
      "start": 9.4485,
      "duration": 0.2054,
      "velocity": 127,
      "chip": "ym2612"
    },
    {
      "channel": 1,
      "note": 59,
      "start": 9.4488,
      "duration": 0.4977,
      "velocity": 104,
      "chip": "ym2612"
    },
    {
      "channel": 2,
      "note": 62,
      "start": 9.4491,
      "duration": 0.2258,
      "velocity": 120,
      "chip": "ym2612"
    },
    {
      "channel": 4,
      "note": 70,
      "start": 9.4495,
      "duration": 0.0595,
      "velocity": 97,
      "chip": "ym2612"
    },
    {
      "channel": 4,
      "note": 70,
      "start": 9.5299,
      "duration": 0.0205,
      "velocity": 97,
      "chip": "ym2612"
    },
    {
      "channel": 3,
      "note": 60,
      "start": 9.5714,
      "duration": 0.2278,
      "velocity": 120,
      "chip": "ym2612"
    },
    {
      "channel": 4,
      "note": 63,
      "start": 9.5717,
      "duration": 0.0617,
      "velocity": 97,
      "chip": "ym2612"
    },
    {
      "channel": 4,
      "note": 63,
      "start": 9.6544,
      "duration": 0.0205,
      "velocity": 97,
      "chip": "ym2612"
    },
    {
      "channel": 0,
      "note": 72,
      "start": 9.6976,
      "duration": 0.2466,
      "velocity": 127,
      "chip": "ym2612"
    },
    {
      "channel": 2,
      "note": 65,
      "start": 9.6979,
      "duration": 0.2256,
      "velocity": 120,
      "chip": "ym2612"
    },
    {
      "channel": 4,
      "note": 68,
      "start": 9.6982,
      "duration": 0.0594,
      "velocity": 97,
      "chip": "ym2612"
    },
    {
      "channel": 4,
      "note": 68,
      "start": 9.7787,
      "duration": 0.0205,
      "velocity": 97,
      "chip": "ym2612"
    },
    {
      "channel": 3,
      "note": 62,
      "start": 9.8201,
      "duration": 0.228,
      "velocity": 120,
      "chip": "ym2612"
    },
    {
      "channel": 4,
      "note": 61,
      "start": 9.8204,
      "duration": 0.0616,
      "velocity": 97,
      "chip": "ym2612"
    },
    {
      "channel": 4,
      "note": 61,
      "start": 9.9031,
      "duration": 0.0205,
      "velocity": 97,
      "chip": "ym2612"
    },
    {
      "channel": 0,
      "note": 39,
      "start": 9.9464,
      "duration": 0.1222,
      "velocity": 127,
      "chip": "ym2612"
    },
    {
      "channel": 1,
      "note": 54,
      "start": 9.9467,
      "duration": 0.7441,
      "velocity": 104,
      "chip": "ym2612"
    },
    {
      "channel": 2,
      "note": 67,
      "start": 9.947,
      "duration": 0.101,
      "velocity": 120,
      "chip": "ym2612"
    },
    {
      "channel": 4,
      "note": 87,
      "start": 9.9474,
      "duration": 0.0592,
      "velocity": 97,
      "chip": "ym2612"
    },
    {
      "channel": 5,
      "note": 58,
      "start": 9.9477,
      "duration": 1.9905,
      "velocity": 99,
      "chip": "ym2612"
    },
    {
      "channel": 4,
      "note": 87,
      "start": 10.0276,
      "duration": 0.0205,
      "velocity": 97,
      "chip": "ym2612"
    },
    {
      "channel": 0,
      "note": 53,
      "start": 10.0706,
      "duration": 0.1225,
      "velocity": 121,
      "chip": "ym2612"
    },
    {
      "channel": 2,
      "note": 67,
      "start": 10.0709,
      "duration": 0.1015,
      "velocity": 120,
      "chip": "ym2612"
    },
    {
      "channel": 3,
      "note": 65,
      "start": 10.0712,
      "duration": 0.2256,
      "velocity": 120,
      "chip": "ym2612"
    },
    {
      "channel": 4,
      "note": 80,
      "start": 10.0715,
      "duration": 0.0594,
      "velocity": 97,
      "chip": "ym2612"
    },
    {
      "channel": 4,
      "note": 80,
      "start": 10.1519,
      "duration": 0.0205,
      "velocity": 97,
      "chip": "ym2612"
    },
    {
      "channel": 0,
      "note": 72,
      "start": 10.195,
      "duration": 0.2469,
      "velocity": 127,
      "chip": "ym2612"
    },
    {
      "channel": 2,
      "note": 65,
      "start": 10.1953,
      "duration": 0.1015,
      "velocity": 120,
      "chip": "ym2612"
    },
    {
      "channel": 4,
      "note": 83,
      "start": 10.1957,
      "duration": 0.0596,
      "velocity": 97,
      "chip": "ym2612"
    },
    {
      "channel": 4,
      "note": 83,
      "start": 10.2764,
      "duration": 0.0205,
      "velocity": 97,
      "chip": "ym2612"
    },
    {
      "channel": 2,
      "note": 67,
      "start": 10.3177,
      "duration": 0.1034,
      "velocity": 120,
      "chip": "ym2612"
    },
    {
      "channel": 3,
      "note": 67,
      "start": 10.318,
      "duration": 0.1032,
      "velocity": 120,
      "chip": "ym2612"
    },
    {
      "channel": 4,
      "note": 78,
      "start": 10.3183,
      "duration": 0.0614,
      "velocity": 97,
      "chip": "ym2612"
    },
    {
      "channel": 4,
      "note": 78,
      "start": 10.4007,
      "duration": 0.0205,
      "velocity": 97,
      "chip": "ym2612"
    },
    {
      "channel": 0,
      "note": 44,
      "start": 10.4439,
      "duration": 0.3298,
      "velocity": 127,
      "chip": "ym2612"
    },
    {
      "channel": 2,
      "note": 67,
      "start": 10.4441,
      "duration": 0.1016,
      "velocity": 120,
      "chip": "ym2612"
    },
    {
      "channel": 3,
      "note": 67,
      "start": 10.4445,
      "duration": 0.1013,
      "velocity": 120,
      "chip": "ym2612"
    },
    {
      "channel": 4,
      "note": 82,
      "start": 10.4449,
      "duration": 0.0594,
      "velocity": 97,
      "chip": "ym2612"
    },
    {
      "channel": 4,
      "note": 82,
      "start": 10.5253,
      "duration": 0.0208,
      "velocity": 97,
      "chip": "ym2612"
    },
    {
      "channel": 3,
      "note": 65,
      "start": 10.5668,
      "duration": 0.1034,
      "velocity": 120,
      "chip": "ym2612"
    },
    {
      "channel": 4,
      "note": 75,
      "start": 10.5671,
      "duration": 0.0616,
      "velocity": 97,
      "chip": "ym2612"
    },
    {
      "channel": 4,
      "note": 75,
      "start": 10.6497,
      "duration": 0.0205,
      "velocity": 97,
      "chip": "ym2612"
    },
    {
      "channel": 1,
      "note": 56,
      "start": 10.6911,
      "duration": 0.7482,
      "velocity": 104,
      "chip": "ym2612"
    },
    {
      "channel": 2,
      "note": 60,
      "start": 10.6913,
      "duration": 0.1033,
      "velocity": 120,
      "chip": "ym2612"
    },
    {
      "channel": 3,
      "note": 67,
      "start": 10.6916,
      "duration": 0.103,
      "velocity": 120,
      "chip": "ym2612"
    },
    {
      "channel": 4,
      "note": 80,
      "start": 10.6919,
      "duration": 0.0612,
      "velocity": 97,
      "chip": "ym2612"
    },
    {
      "channel": 4,
      "note": 80,
      "start": 10.7741,
      "duration": 0.0206,
      "velocity": 97,
      "chip": "ym2612"
    },
    {
      "channel": 0,
      "note": 44,
      "start": 10.8154,
      "duration": 0.0827,
      "velocity": 127,
      "chip": "ym2612"
    },
    {
      "channel": 3,
      "note": 67,
      "start": 10.8161,
      "duration": 0.103,
      "velocity": 120,
      "chip": "ym2612"
    },
    {
      "channel": 4,
      "note": 73,
      "start": 10.8164,
      "duration": 0.0611,
      "velocity": 97,
      "chip": "ym2612"
    },
    {
      "channel": 4,
      "note": 73,
      "start": 10.8986,
      "duration": 0.0205,
      "velocity": 97,
      "chip": "ym2612"
    },
    {
      "channel": 0,
      "note": 53,
      "start": 10.9415,
      "duration": 0.1225,
      "velocity": 121,
      "chip": "ym2612"
    },
    {
      "channel": 2,
      "note": 62,
      "start": 10.9418,
      "duration": 0.2261,
      "velocity": 120,
      "chip": "ym2612"
    },
    {
      "channel": 4,
      "note": 75,
      "start": 10.9422,
      "duration": 0.0596,
      "velocity": 97,
      "chip": "ym2612"
    },
    {
      "channel": 4,
      "note": 75,
      "start": 11.0228,
      "duration": 0.0205,
      "velocity": 97,
      "chip": "ym2612"
    },
    {
      "channel": 0,
      "note": 44,
      "start": 11.0662,
      "duration": 0.0807,
      "velocity": 127,
      "chip": "ym2612"
    },
    {
      "channel": 3,
      "note": 60,
      "start": 11.0664,
      "duration": 0.1015,
      "velocity": 120,
      "chip": "ym2612"
    },
    {
      "channel": 4,
      "note": 68,
      "start": 11.0668,
      "duration": 0.0595,
      "velocity": 97,
      "chip": "ym2612"
    },
    {
      "channel": 4,
      "note": 68,
      "start": 11.1474,
      "duration": 0.0206,
      "velocity": 97,
      "chip": "ym2612"
    },
    {
      "channel": 0,
      "note": 39,
      "start": 11.1904,
      "duration": 0.2054,
      "velocity": 127,
      "chip": "ym2612"
    },
    {
      "channel": 2,
      "note": 60,
      "start": 11.1907,
      "duration": 0.226,
      "velocity": 120,
      "chip": "ym2612"
    },
    {
      "channel": 4,
      "note": 71,
      "start": 11.191,
      "duration": 0.0597,
      "velocity": 97,
      "chip": "ym2612"
    },
    {
      "channel": 4,
      "note": 71,
      "start": 11.2718,
      "duration": 0.0205,
      "velocity": 97,
      "chip": "ym2612"
    },
    {
      "channel": 3,
      "note": 62,
      "start": 11.3131,
      "duration": 0.2279,
      "velocity": 120,
      "chip": "ym2612"
    },
    {
      "channel": 4,
      "note": 66,
      "start": 11.3135,
      "duration": 0.0617,
      "velocity": 97,
      "chip": "ym2612"
    },
    {
      "channel": 4,
      "note": 66,
      "start": 11.3965,
      "duration": 0.0202,
      "velocity": 97,
      "chip": "ym2612"
    },
    {
      "channel": 0,
      "note": 44,
      "start": 11.4392,
      "duration": 0.2054,
      "velocity": 127,
      "chip": "ym2612"
    },
    {
      "channel": 1,
      "note": 58,
      "start": 11.4395,
      "duration": 0.4977,
      "velocity": 104,
      "chip": "ym2612"
    },
    {
      "channel": 2,
      "note": 62,
      "start": 11.4398,
      "duration": 0.2258,
      "velocity": 120,
      "chip": "ym2612"
    },
    {
      "channel": 4,
      "note": 70,
      "start": 11.4401,
      "duration": 0.0594,
      "velocity": 97,
      "chip": "ym2612"
    },
    {
      "channel": 4,
      "note": 70,
      "start": 11.5206,
      "duration": 0.0205,
      "velocity": 97,
      "chip": "ym2612"
    },
    {
      "channel": 3,
      "note": 60,
      "start": 11.562,
      "duration": 0.2278,
      "velocity": 120,
      "chip": "ym2612"
    },
    {
      "channel": 4,
      "note": 63,
      "start": 11.5623,
      "duration": 0.0617,
      "velocity": 97,
      "chip": "ym2612"
    },
    {
      "channel": 4,
      "note": 63,
      "start": 11.6451,
      "duration": 0.0205,
      "velocity": 97,
      "chip": "ym2612"
    },
    {
      "channel": 0,
      "note": 72,
      "start": 11.6881,
      "duration": 0.2468,
      "velocity": 127,
      "chip": "ym2612"
    },
    {
      "channel": 2,
      "note": 65,
      "start": 11.6884,
      "duration": 0.2258,
      "velocity": 120,
      "chip": "ym2612"
    },
    {
      "channel": 4,
      "note": 68,
      "start": 11.6888,
      "duration": 0.0595,
      "velocity": 97,
      "chip": "ym2612"
    },
    {
      "channel": 4,
      "note": 68,
      "start": 11.7693,
      "duration": 0.0205,
      "velocity": 97,
      "chip": "ym2612"
    },
    {
      "channel": 3,
      "note": 62,
      "start": 11.8107,
      "duration": 0.228,
      "velocity": 120,
      "chip": "ym2612"
    },
    {
      "channel": 4,
      "note": 61,
      "start": 11.8111,
      "duration": 0.0617,
      "velocity": 97,
      "chip": "ym2612"
    },
    {
      "channel": 4,
      "note": 61,
      "start": 11.8937,
      "duration": 0.0205,
      "velocity": 97,
      "chip": "ym2612"
    },
    {
      "channel": 0,
      "note": 39,
      "start": 11.9371,
      "duration": 0.1222,
      "velocity": 127,
      "chip": "ym2612"
    },
    {
      "channel": 1,
      "note": 52,
      "start": 11.9374,
      "duration": 0.7441,
      "velocity": 104,
      "chip": "ym2612"
    },
    {
      "channel": 2,
      "note": 67,
      "start": 11.9377,
      "duration": 0.101,
      "velocity": 120,
      "chip": "ym2612"
    },
    {
      "channel": 4,
      "note": 87,
      "start": 11.9381,
      "duration": 0.0591,
      "velocity": 97,
      "chip": "ym2612"
    },
    {
      "channel": 5,
      "note": 59,
      "start": 11.9384,
      "duration": 1.9904,
      "velocity": 99,
      "chip": "ym2612"
    },
    {
      "channel": 4,
      "note": 87,
      "start": 12.0183,
      "duration": 0.0206,
      "velocity": 97,
      "chip": "ym2612"
    },
    {
      "channel": 0,
      "note": 53,
      "start": 12.0613,
      "duration": 0.1225,
      "velocity": 121,
      "chip": "ym2612"
    },
    {
      "channel": 2,
      "note": 67,
      "start": 12.0616,
      "duration": 0.1015,
      "velocity": 120,
      "chip": "ym2612"
    },
    {
      "channel": 3,
      "note": 65,
      "start": 12.0618,
      "duration": 0.2256,
      "velocity": 120,
      "chip": "ym2612"
    },
    {
      "channel": 4,
      "note": 80,
      "start": 12.0622,
      "duration": 0.0594,
      "velocity": 97,
      "chip": "ym2612"
    },
    {
      "channel": 4,
      "note": 80,
      "start": 12.1426,
      "duration": 0.0205,
      "velocity": 97,
      "chip": "ym2612"
    },
    {
      "channel": 0,
      "note": 72,
      "start": 12.1857,
      "duration": 0.2469,
      "velocity": 127,
      "chip": "ym2612"
    },
    {
      "channel": 2,
      "note": 65,
      "start": 12.1862,
      "duration": 0.1012,
      "velocity": 120,
      "chip": "ym2612"
    },
    {
      "channel": 4,
      "note": 83,
      "start": 12.1866,
      "duration": 0.0596,
      "velocity": 97,
      "chip": "ym2612"
    },
    {
      "channel": 4,
      "note": 83,
      "start": 12.267,
      "duration": 0.0206,
      "velocity": 97,
      "chip": "ym2612"
    },
    {
      "channel": 2,
      "note": 67,
      "start": 12.3084,
      "duration": 0.1034,
      "velocity": 120,
      "chip": "ym2612"
    },
    {
      "channel": 3,
      "note": 67,
      "start": 12.3087,
      "duration": 0.1032,
      "velocity": 120,
      "chip": "ym2612"
    },
    {
      "channel": 4,
      "note": 78,
      "start": 12.309,
      "duration": 0.0614,
      "velocity": 97,
      "chip": "ym2612"
    },
    {
      "channel": 4,
      "note": 78,
      "start": 12.3914,
      "duration": 0.0205,
      "velocity": 97,
      "chip": "ym2612"
    },
    {
      "channel": 0,
      "note": 44,
      "start": 12.4345,
      "duration": 0.3298,
      "velocity": 127,
      "chip": "ym2612"
    },
    {
      "channel": 2,
      "note": 67,
      "start": 12.4348,
      "duration": 0.1016,
      "velocity": 120,
      "chip": "ym2612"
    },
    {
      "channel": 3,
      "note": 67,
      "start": 12.4351,
      "duration": 0.1014,
      "velocity": 120,
      "chip": "ym2612"
    },
    {
      "channel": 4,
      "note": 82,
      "start": 12.4355,
      "duration": 0.0594,
      "velocity": 97,
      "chip": "ym2612"
    },
    {
      "channel": 4,
      "note": 82,
      "start": 12.5162,
      "duration": 0.0204,
      "velocity": 97,
      "chip": "ym2612"
    },
    {
      "channel": 3,
      "note": 65,
      "start": 12.5574,
      "duration": 0.1034,
      "velocity": 120,
      "chip": "ym2612"
    },
    {
      "channel": 4,
      "note": 75,
      "start": 12.5578,
      "duration": 0.0616,
      "velocity": 97,
      "chip": "ym2612"
    },
    {
      "channel": 4,
      "note": 75,
      "start": 12.6403,
      "duration": 0.0205,
      "velocity": 97,
      "chip": "ym2612"
    },
    {
      "channel": 1,
      "note": 54,
      "start": 12.6817,
      "duration": 0.7482,
      "velocity": 104,
      "chip": "ym2612"
    },
    {
      "channel": 2,
      "note": 60,
      "start": 12.682,
      "duration": 0.1033,
      "velocity": 120,
      "chip": "ym2612"
    },
    {
      "channel": 3,
      "note": 67,
      "start": 12.6823,
      "duration": 0.103,
      "velocity": 120,
      "chip": "ym2612"
    },
    {
      "channel": 4,
      "note": 80,
      "start": 12.6826,
      "duration": 0.0612,
      "velocity": 97,
      "chip": "ym2612"
    },
    {
      "channel": 4,
      "note": 80,
      "start": 12.7648,
      "duration": 0.0206,
      "velocity": 97,
      "chip": "ym2612"
    },
    {
      "channel": 0,
      "note": 44,
      "start": 12.8063,
      "duration": 0.0824,
      "velocity": 127,
      "chip": "ym2612"
    },
    {
      "channel": 3,
      "note": 67,
      "start": 12.8067,
      "duration": 0.103,
      "velocity": 120,
      "chip": "ym2612"
    },
    {
      "channel": 4,
      "note": 73,
      "start": 12.807,
      "duration": 0.0611,
      "velocity": 97,
      "chip": "ym2612"
    },
    {
      "channel": 4,
      "note": 73,
      "start": 12.8892,
      "duration": 0.0205,
      "velocity": 97,
      "chip": "ym2612"
    },
    {
      "channel": 0,
      "note": 53,
      "start": 12.9322,
      "duration": 0.1225,
      "velocity": 121,
      "chip": "ym2612"
    },
    {
      "channel": 2,
      "note": 62,
      "start": 12.9324,
      "duration": 0.2261,
      "velocity": 120,
      "chip": "ym2612"
    },
    {
      "channel": 4,
      "note": 75,
      "start": 12.9329,
      "duration": 0.0596,
      "velocity": 97,
      "chip": "ym2612"
    },
    {
      "channel": 4,
      "note": 75,
      "start": 13.0135,
      "duration": 0.0205,
      "velocity": 97,
      "chip": "ym2612"
    },
    {
      "channel": 0,
      "note": 44,
      "start": 13.0568,
      "duration": 0.0807,
      "velocity": 127,
      "chip": "ym2612"
    },
    {
      "channel": 3,
      "note": 60,
      "start": 13.0571,
      "duration": 0.1015,
      "velocity": 120,
      "chip": "ym2612"
    },
    {
      "channel": 4,
      "note": 68,
      "start": 13.0574,
      "duration": 0.0595,
      "velocity": 97,
      "chip": "ym2612"
    },
    {
      "channel": 4,
      "note": 68,
      "start": 13.138,
      "duration": 0.0206,
      "velocity": 97,
      "chip": "ym2612"
    },
    {
      "channel": 0,
      "note": 39,
      "start": 13.181,
      "duration": 0.2054,
      "velocity": 127,
      "chip": "ym2612"
    },
    {
      "channel": 2,
      "note": 60,
      "start": 13.1813,
      "duration": 0.226,
      "velocity": 120,
      "chip": "ym2612"
    },
    {
      "channel": 4,
      "note": 71,
      "start": 13.1817,
      "duration": 0.0597,
      "velocity": 97,
      "chip": "ym2612"
    },
    {
      "channel": 4,
      "note": 71,
      "start": 13.2624,
      "duration": 0.0205,
      "velocity": 97,
      "chip": "ym2612"
    },
    {
      "channel": 3,
      "note": 62,
      "start": 13.3038,
      "duration": 0.2279,
      "velocity": 120,
      "chip": "ym2612"
    },
    {
      "channel": 4,
      "note": 66,
      "start": 13.3041,
      "duration": 0.062,
      "velocity": 97,
      "chip": "ym2612"
    },
    {
      "channel": 4,
      "note": 66,
      "start": 13.3869,
      "duration": 0.0205,
      "velocity": 97,
      "chip": "ym2612"
    },
    {
      "channel": 0,
      "note": 44,
      "start": 13.4298,
      "duration": 0.2054,
      "velocity": 127,
      "chip": "ym2612"
    },
    {
      "channel": 1,
      "note": 56,
      "start": 13.4301,
      "duration": 0.4977,
      "velocity": 104,
      "chip": "ym2612"
    },
    {
      "channel": 2,
      "note": 62,
      "start": 13.4304,
      "duration": 0.2259,
      "velocity": 120,
      "chip": "ym2612"
    },
    {
      "channel": 4,
      "note": 70,
      "start": 13.4308,
      "duration": 0.0594,
      "velocity": 97,
      "chip": "ym2612"
    },
    {
      "channel": 4,
      "note": 70,
      "start": 13.5112,
      "duration": 0.0205,
      "velocity": 97,
      "chip": "ym2612"
    },
    {
      "channel": 3,
      "note": 60,
      "start": 13.5527,
      "duration": 0.2278,
      "velocity": 120,
      "chip": "ym2612"
    },
    {
      "channel": 4,
      "note": 63,
      "start": 13.553,
      "duration": 0.0617,
      "velocity": 97,
      "chip": "ym2612"
    },
    {
      "channel": 4,
      "note": 63,
      "start": 13.6357,
      "duration": 0.0207,
      "velocity": 97,
      "chip": "ym2612"
    },
    {
      "channel": 0,
      "note": 72,
      "start": 13.6787,
      "duration": 0.2469,
      "velocity": 127,
      "chip": "ym2612"
    },
    {
      "channel": 2,
      "note": 65,
      "start": 13.679,
      "duration": 0.2259,
      "velocity": 120,
      "chip": "ym2612"
    },
    {
      "channel": 4,
      "note": 68,
      "start": 13.6793,
      "duration": 0.0597,
      "velocity": 97,
      "chip": "ym2612"
    },
    {
      "channel": 4,
      "note": 68,
      "start": 13.76,
      "duration": 0.0205,
      "velocity": 97,
      "chip": "ym2612"
    },
    {
      "channel": 3,
      "note": 62,
      "start": 13.8014,
      "duration": 0.228,
      "velocity": 120,
      "chip": "ym2612"
    },
    {
      "channel": 4,
      "note": 61,
      "start": 13.8017,
      "duration": 0.0617,
      "velocity": 97,
      "chip": "ym2612"
    },
    {
      "channel": 4,
      "note": 61,
      "start": 13.8844,
      "duration": 0.0205,
      "velocity": 97,
      "chip": "ym2612"
    },
    {
      "channel": 0,
      "note": 39,
      "start": 13.9278,
      "duration": 0.1222,
      "velocity": 127,
      "chip": "ym2612"
    },
    {
      "channel": 1,
      "note": 51,
      "start": 13.928,
      "duration": 0.7441,
      "velocity": 104,
      "chip": "ym2612"
    },
    {
      "channel": 2,
      "note": 67,
      "start": 13.9283,
      "duration": 0.101,
      "velocity": 120,
      "chip": "ym2612"
    },
    {
      "channel": 4,
      "note": 87,
      "start": 13.9287,
      "duration": 0.0592,
      "velocity": 97,
      "chip": "ym2612"
    },
    {
      "channel": 5,
      "note": 61,
      "start": 13.929,
      "duration": 1.9951,
      "velocity": 99,
      "chip": "ym2612"
    },
    {
      "channel": 4,
      "note": 87,
      "start": 14.0089,
      "duration": 0.0206,
      "velocity": 97,
      "chip": "ym2612"
    },
    {
      "channel": 0,
      "note": 53,
      "start": 14.0519,
      "duration": 0.1225,
      "velocity": 121,
      "chip": "ym2612"
    },
    {
      "channel": 2,
      "note": 67,
      "start": 14.0522,
      "duration": 0.1015,
      "velocity": 120,
      "chip": "ym2612"
    },
    {
      "channel": 3,
      "note": 65,
      "start": 14.0525,
      "duration": 0.2258,
      "velocity": 120,
      "chip": "ym2612"
    },
    {
      "channel": 4,
      "note": 80,
      "start": 14.0528,
      "duration": 0.0594,
      "velocity": 97,
      "chip": "ym2612"
    },
    {
      "channel": 4,
      "note": 80,
      "start": 14.1332,
      "duration": 0.0205,
      "velocity": 97,
      "chip": "ym2612"
    },
    {
      "channel": 0,
      "note": 61,
      "start": 14.1766,
      "duration": 0.1222,
      "velocity": 127,
      "chip": "ym2612"
    },
    {
      "channel": 2,
      "note": 65,
      "start": 14.1769,
      "duration": 0.1013,
      "velocity": 120,
      "chip": "ym2612"
    },
    {
      "channel": 4,
      "note": 83,
      "start": 14.1772,
      "duration": 0.0595,
      "velocity": 97,
      "chip": "ym2612"
    },
    {
      "channel": 4,
      "note": 83,
      "start": 14.2578,
      "duration": 0.0205,
      "velocity": 97,
      "chip": "ym2612"
    },
    {
      "channel": 0,
      "note": 61,
      "start": 14.2991,
      "duration": 0.1241,
      "velocity": 127,
      "chip": "ym2612"
    },
    {
      "channel": 2,
      "note": 67,
      "start": 14.2994,
      "duration": 0.1032,
      "velocity": 120,
      "chip": "ym2612"
    },
    {
      "channel": 3,
      "note": 67,
      "start": 14.2997,
      "duration": 0.103,
      "velocity": 120,
      "chip": "ym2612"
    },
    {
      "channel": 4,
      "note": 78,
      "start": 14.3,
      "duration": 0.0612,
      "velocity": 97,
      "chip": "ym2612"
    },
    {
      "channel": 4,
      "note": 78,
      "start": 14.3822,
      "duration": 0.0206,
      "velocity": 97,
      "chip": "ym2612"
    },
    {
      "channel": 0,
      "note": 61,
      "start": 14.4235,
      "duration": 0.1241,
      "velocity": 127,
      "chip": "ym2612"
    },
    {
      "channel": 2,
      "note": 67,
      "start": 14.4238,
      "duration": 0.1033,
      "velocity": 120,
      "chip": "ym2612"
    },
    {
      "channel": 3,
      "note": 67,
      "start": 14.4241,
      "duration": 0.103,
      "velocity": 120,
      "chip": "ym2612"
    },
    {
      "channel": 4,
      "note": 82,
      "start": 14.4245,
      "duration": 0.0611,
      "velocity": 97,
      "chip": "ym2612"
    },
    {
      "channel": 4,
      "note": 82,
      "start": 14.5066,
      "duration": 0.0206,
      "velocity": 97,
      "chip": "ym2612"
    },
    {
      "channel": 0,
      "note": 61,
      "start": 14.5479,
      "duration": 0.373,
      "velocity": 127,
      "chip": "ym2612"
    },
    {
      "channel": 3,
      "note": 65,
      "start": 14.5483,
      "duration": 0.1032,
      "velocity": 120,
      "chip": "ym2612"
    },
    {
      "channel": 4,
      "note": 75,
      "start": 14.5486,
      "duration": 0.0614,
      "velocity": 97,
      "chip": "ym2612"
    },
    {
      "channel": 4,
      "note": 75,
      "start": 14.631,
      "duration": 0.0205,
      "velocity": 97,
      "chip": "ym2612"
    },
    {
      "channel": 1,
      "note": 53,
      "start": 14.6724,
      "duration": 0.7463,
      "velocity": 104,
      "chip": "ym2612"
    },
    {
      "channel": 2,
      "note": 67,
      "start": 14.6726,
      "duration": 0.1035,
      "velocity": 120,
      "chip": "ym2612"
    },
    {
      "channel": 3,
      "note": 67,
      "start": 14.6729,
      "duration": 0.1032,
      "velocity": 120,
      "chip": "ym2612"
    },
    {
      "channel": 4,
      "note": 80,
      "start": 14.6732,
      "duration": 0.0612,
      "velocity": 97,
      "chip": "ym2612"
    },
    {
      "channel": 4,
      "note": 80,
      "start": 14.7554,
      "duration": 0.0208,
      "velocity": 97,
      "chip": "ym2612"
    },
    {
      "channel": 3,
      "note": 67,
      "start": 14.7969,
      "duration": 0.1034,
      "velocity": 120,
      "chip": "ym2612"
    },
    {
      "channel": 4,
      "note": 73,
      "start": 14.7972,
      "duration": 0.0616,
      "velocity": 97,
      "chip": "ym2612"
    },
    {
      "channel": 4,
      "note": 73,
      "start": 14.8798,
      "duration": 0.0205,
      "velocity": 97,
      "chip": "ym2612"
    },
    {
      "channel": 0,
      "note": 58,
      "start": 14.9212,
      "duration": 0.373,
      "velocity": 127,
      "chip": "ym2612"
    },
    {
      "channel": 2,
      "note": 70,
      "start": 14.9214,
      "duration": 0.2277,
      "velocity": 120,
      "chip": "ym2612"
    },
    {
      "channel": 4,
      "note": 75,
      "start": 14.9219,
      "duration": 0.0614,
      "velocity": 97,
      "chip": "ym2612"
    },
    {
      "channel": 4,
      "note": 75,
      "start": 15.0042,
      "duration": 0.0205,
      "velocity": 97,
      "chip": "ym2612"
    },
    {
      "channel": 3,
      "note": 67,
      "start": 15.0456,
      "duration": 0.1036,
      "velocity": 120,
      "chip": "ym2612"
    },
    {
      "channel": 4,
      "note": 68,
      "start": 15.0462,
      "duration": 0.0615,
      "velocity": 97,
      "chip": "ym2612"
    },
    {
      "channel": 4,
      "note": 68,
      "start": 15.1287,
      "duration": 0.0206,
      "velocity": 97,
      "chip": "ym2612"
    },
    {
      "channel": 2,
      "note": 69,
      "start": 15.1701,
      "duration": 0.2278,
      "velocity": 120,
      "chip": "ym2612"
    },
    {
      "channel": 4,
      "note": 71,
      "start": 15.1705,
      "duration": 0.0616,
      "velocity": 97,
      "chip": "ym2612"
    },
    {
      "channel": 4,
      "note": 71,
      "start": 15.2531,
      "duration": 0.0204,
      "velocity": 97,
      "chip": "ym2612"
    },
    {
      "channel": 0,
      "note": 58,
      "start": 15.2944,
      "duration": 0.373,
      "velocity": 127,
      "chip": "ym2612"
    },
    {
      "channel": 3,
      "note": 70,
      "start": 15.2946,
      "duration": 0.2277,
      "velocity": 120,
      "chip": "ym2612"
    },
    {
      "channel": 4,
      "note": 66,
      "start": 15.295,
      "duration": 0.0615,
      "velocity": 97,
      "chip": "ym2612"
    },
    {
      "channel": 4,
      "note": 66,
      "start": 15.3775,
      "duration": 0.0205,
      "velocity": 97,
      "chip": "ym2612"
    },
    {
      "channel": 1,
      "note": 55,
      "start": 15.4189,
      "duration": 0.4993,
      "velocity": 104,
      "chip": "ym2612"
    },
    {
      "channel": 2,
      "note": 60,
      "start": 15.4192,
      "duration": 0.2276,
      "velocity": 120,
      "chip": "ym2612"
    },
    {
      "channel": 4,
      "note": 70,
      "start": 15.4196,
      "duration": 0.0613,
      "velocity": 97,
      "chip": "ym2612"
    },
    {
      "channel": 4,
      "note": 70,
      "start": 15.5019,
      "duration": 0.0205,
      "velocity": 97,
      "chip": "ym2612"
    },
    {
      "channel": 3,
      "note": 69,
      "start": 15.5433,
      "duration": 0.2279,
      "velocity": 120,
      "chip": "ym2612"
    },
    {
      "channel": 4,
      "note": 63,
      "start": 15.5437,
      "duration": 0.0617,
      "velocity": 97,
      "chip": "ym2612"
    },
    {
      "channel": 4,
      "note": 63,
      "start": 15.6266,
      "duration": 0.0203,
      "velocity": 97,
      "chip": "ym2612"
    },
    {
      "channel": 0,
      "note": 54,
      "start": 15.6677,
      "duration": 0.1241,
      "velocity": 127,
      "chip": "ym2612"
    },
    {
      "channel": 2,
      "note": 62,
      "start": 15.6679,
      "duration": 0.2277,
      "velocity": 120,
      "chip": "ym2612"
    },
    {
      "channel": 4,
      "note": 68,
      "start": 15.6683,
      "duration": 0.0615,
      "velocity": 97,
      "chip": "ym2612"
    },
    {
      "channel": 4,
      "note": 68,
      "start": 15.7507,
      "duration": 0.0205,
      "velocity": 97,
      "chip": "ym2612"
    },
    {
      "channel": 0,
      "note": 54,
      "start": 15.7921,
      "duration": 0.1241,
      "velocity": 127,
      "chip": "ym2612"
    },
    {
      "channel": 3,
      "note": 60,
      "start": 15.7924,
      "duration": 0.2278,
      "velocity": 120,
      "chip": "ym2612"
    },
    {
      "channel": 4,
      "note": 61,
      "start": 15.7927,
      "duration": 0.0615,
      "velocity": 97,
      "chip": "ym2612"
    },
    {
      "channel": 4,
      "note": 61,
      "start": 15.8751,
      "duration": 0.0205,
      "velocity": 97,
      "chip": "ym2612"
    },
    {
      "channel": 0,
      "note": 32,
      "start": 15.9182,
      "duration": 0.2469,
      "velocity": 127,
      "chip": "ym2612"
    },
    {
      "channel": 1,
      "note": 56,
      "start": 15.9202,
      "duration": 0.7426,
      "velocity": 104,
      "chip": "ym2612"
    },
    {
      "channel": 4,
      "note": 87,
      "start": 15.9241,
      "duration": 0.0545,
      "velocity": 97,
      "chip": "ym2612"
    },
    {
      "channel": 5,
      "note": 67,
      "start": 15.9264,
      "duration": 0.0939,
      "velocity": 120,
      "chip": "ym2612"
    },
    {
      "channel": 4,
      "note": 87,
      "start": 15.9997,
      "duration": 0.0205,
      "velocity": 97,
      "chip": "ym2612"
    },
    {
      "channel": 3,
      "note": 62,
      "start": 16.0411,
      "duration": 0.2278,
      "velocity": 120,
      "chip": "ym2612"
    },
    {
      "channel": 4,
      "note": 80,
      "start": 16.0414,
      "duration": 0.0617,
      "velocity": 97,
      "chip": "ym2612"
    },
    {
      "channel": 5,
      "note": 67,
      "start": 16.0417,
      "duration": 0.1029,
      "velocity": 120,
      "chip": "ym2612"
    },
    {
      "channel": 4,
      "note": 80,
      "start": 16.1241,
      "duration": 0.0205,
      "velocity": 97,
      "chip": "ym2612"
    },
    {
      "channel": 0,
      "note": 72,
      "start": 16.1672,
      "duration": 0.2466,
      "velocity": 127,
      "chip": "ym2612"
    },
    {
      "channel": 4,
      "note": 83,
      "start": 16.1677,
      "duration": 0.0597,
      "velocity": 97,
      "chip": "ym2612"
    },
    {
      "channel": 5,
      "note": 65,
      "start": 16.168,
      "duration": 0.101,
      "velocity": 120,
      "chip": "ym2612"
    },
    {
      "channel": 4,
      "note": 83,
      "start": 16.2484,
      "duration": 0.0205,
      "velocity": 97,
      "chip": "ym2612"
    },
    {
      "channel": 4,
      "note": 78,
      "start": 16.2917,
      "duration": 0.0602,
      "velocity": 97,
      "chip": "ym2612"
    },
    {
      "channel": 5,
      "note": 67,
      "start": 16.292,
      "duration": 0.1015,
      "velocity": 120,
      "chip": "ym2612"
    },
    {
      "channel": 4,
      "note": 78,
      "start": 16.3729,
      "duration": 0.0205,
      "velocity": 97,
      "chip": "ym2612"
    },
    {
      "channel": 0,
      "note": 44,
      "start": 16.4161,
      "duration": 0.3296,
      "velocity": 127,
      "chip": "ym2612"
    },
    {
      "channel": 4,
      "note": 82,
      "start": 16.4167,
      "duration": 0.0598,
      "velocity": 97,
      "chip": "ym2612"
    },
    {
      "channel": 5,
      "note": 67,
      "start": 16.417,
      "duration": 0.101,
      "velocity": 120,
      "chip": "ym2612"
    },
    {
      "channel": 4,
      "note": 82,
      "start": 16.4975,
      "duration": 0.0204,
      "velocity": 97,
      "chip": "ym2612"
    },
    {
      "channel": 4,
      "note": 75,
      "start": 16.5389,
      "duration": 0.0619,
      "velocity": 97,
      "chip": "ym2612"
    },
    {
      "channel": 4,
      "note": 75,
      "start": 16.6219,
      "duration": 0.0205,
      "velocity": 97,
      "chip": "ym2612"
    },
    {
      "channel": 1,
      "note": 58,
      "start": 16.663,
      "duration": 0.7482,
      "velocity": 104,
      "chip": "ym2612"
    },
    {
      "channel": 4,
      "note": 80,
      "start": 16.6636,
      "duration": 0.0617,
      "velocity": 97,
      "chip": "ym2612"
    },
    {
      "channel": 5,
      "note": 60,
      "start": 16.6639,
      "duration": 0.103,
      "velocity": 120,
      "chip": "ym2612"
    },
    {
      "channel": 4,
      "note": 80,
      "start": 16.7466,
      "duration": 0.0202,
      "velocity": 97,
      "chip": "ym2612"
    },
    {
      "channel": 0,
      "note": 44,
      "start": 16.7874,
      "duration": 0.0827,
      "velocity": 127,
      "chip": "ym2612"
    },
    {
      "channel": 4,
      "note": 73,
      "start": 16.788,
      "duration": 0.0617,
      "velocity": 97,
      "chip": "ym2612"
    },
    {
      "channel": 4,
      "note": 73,
      "start": 16.8707,
      "duration": 0.0205,
      "velocity": 97,
      "chip": "ym2612"
    },
    {
      "channel": 0,
      "note": 53,
      "start": 16.9135,
      "duration": 0.1227,
      "velocity": 121,
      "chip": "ym2612"
    },
    {
      "channel": 2,
      "note": 90,
      "start": 16.9137,
      "duration": 0.3504,
      "velocity": 90,
      "chip": "ym2612"
    },
    {
      "channel": 4,
      "note": 75,
      "start": 16.9142,
      "duration": 0.0598,
      "velocity": 97,
      "chip": "ym2612"
    },
    {
      "channel": 5,
      "note": 62,
      "start": 16.9145,
      "duration": 0.2254,
      "velocity": 120,
      "chip": "ym2612"
    },
    {
      "channel": 4,
      "note": 75,
      "start": 16.995,
      "duration": 0.0205,
      "velocity": 97,
      "chip": "ym2612"
    },
    {
      "channel": 0,
      "note": 53,
      "start": 17.0365,
      "duration": 0.1239,
      "velocity": 121,
      "chip": "ym2612"
    },
    {
      "channel": 4,
      "note": 68,
      "start": 17.0371,
      "duration": 0.0613,
      "velocity": 97,
      "chip": "ym2612"
    },
    {
      "channel": 4,
      "note": 68,
      "start": 17.1194,
      "duration": 0.0204,
      "velocity": 97,
      "chip": "ym2612"
    },
    {
      "channel": 0,
      "note": 39,
      "start": 17.1623,
      "duration": 0.2469,
      "velocity": 127,
      "chip": "ym2612"
    },
    {
      "channel": 4,
      "note": 71,
      "start": 17.1629,
      "duration": 0.06,
      "velocity": 97,
      "chip": "ym2612"
    },
    {
      "channel": 5,
      "note": 60,
      "start": 17.1632,
      "duration": 0.2257,
      "velocity": 120,
      "chip": "ym2612"
    },
    {
      "channel": 4,
      "note": 71,
      "start": 17.2439,
      "duration": 0.0205,
      "velocity": 97,
      "chip": "ym2612"
    },
    {
      "channel": 2,
      "note": 93,
      "start": 17.2851,
      "duration": 0.3523,
      "velocity": 90,
      "chip": "ym2612"
    },
    {
      "channel": 3,
      "note": 90,
      "start": 17.2854,
      "duration": 0.3523,
      "velocity": 90,
      "chip": "ym2612"
    },
    {
      "channel": 4,
      "note": 66,
      "start": 17.2857,
      "duration": 0.0616,
      "velocity": 97,
      "chip": "ym2612"
    },
    {
      "channel": 4,
      "note": 66,
      "start": 17.3684,
      "duration": 0.0205,
      "velocity": 97,
      "chip": "ym2612"
    },
    {
      "channel": 0,
      "note": 44,
      "start": 17.4112,
      "duration": 0.2054,
      "velocity": 127,
      "chip": "ym2612"
    },
    {
      "channel": 1,
      "note": 59,
      "start": 17.4114,
      "duration": 0.4974,
      "velocity": 104,
      "chip": "ym2612"
    },
    {
      "channel": 4,
      "note": 70,
      "start": 17.4122,
      "duration": 0.0596,
      "velocity": 97,
      "chip": "ym2612"
    },
    {
      "channel": 5,
      "note": 62,
      "start": 17.4124,
      "duration": 0.2254,
      "velocity": 120,
      "chip": "ym2612"
    },
    {
      "channel": 4,
      "note": 70,
      "start": 17.4928,
      "duration": 0.0205,
      "velocity": 97,
      "chip": "ym2612"
    },
    {
      "channel": 4,
      "note": 63,
      "start": 17.5342,
      "duration": 0.0622,
      "velocity": 97,
      "chip": "ym2612"
    },
    {
      "channel": 4,
      "note": 63,
      "start": 17.6172,
      "duration": 0.0206,
      "velocity": 97,
      "chip": "ym2612"
    },
    {
      "channel": 0,
      "note": 72,
      "start": 17.66,
      "duration": 0.2469,
      "velocity": 127,
      "chip": "ym2612"
    },
    {
      "channel": 2,
      "note": 94,
      "start": 17.6603,
      "duration": 0.2259,
      "velocity": 90,
      "chip": "ym2612"
    },
    {
      "channel": 3,
      "note": 93,
      "start": 17.6605,
      "duration": 0.3502,
      "velocity": 90,
      "chip": "ym2612"
    },
    {
      "channel": 4,
      "note": 68,
      "start": 17.6609,
      "duration": 0.0596,
      "velocity": 97,
      "chip": "ym2612"
    },
    {
      "channel": 5,
      "note": 65,
      "start": 17.6612,
      "duration": 0.2253,
      "velocity": 120,
      "chip": "ym2612"
    },
    {
      "channel": 4,
      "note": 68,
      "start": 17.7415,
      "duration": 0.0205,
      "velocity": 97,
      "chip": "ym2612"
    },
    {
      "channel": 4,
      "note": 61,
      "start": 17.783,
      "duration": 0.0619,
      "velocity": 97,
      "chip": "ym2612"
    },
    {
      "channel": 4,
      "note": 61,
      "start": 17.8662,
      "duration": 0.0203,
      "velocity": 97,
      "chip": "ym2612"
    },
    {
      "channel": 0,
      "note": 39,
      "start": 17.9088,
      "duration": 0.1225,
      "velocity": 127,
      "chip": "ym2612"
    },
    {
      "channel": 1,
      "note": 54,
      "start": 17.9091,
      "duration": 0.7444,
      "velocity": 104,
      "chip": "ym2612"
    },
    {
      "channel": 2,
      "note": 93,
      "start": 17.9094,
      "duration": 0.7234,
      "velocity": 90,
      "chip": "ym2612"
    },
    {
      "channel": 4,
      "note": 87,
      "start": 17.9099,
      "duration": 0.0595,
      "velocity": 97,
      "chip": "ym2612"
    },
    {
      "channel": 5,
      "note": 67,
      "start": 17.9102,
      "duration": 0.1008,
      "velocity": 120,
      "chip": "ym2612"
    },
    {
      "channel": 4,
      "note": 87,
      "start": 17.9904,
      "duration": 0.0205,
      "velocity": 97,
      "chip": "ym2612"
    },
    {
      "channel": 0,
      "note": 53,
      "start": 18.0332,
      "duration": 0.1225,
      "velocity": 121,
      "chip": "ym2612"
    },
    {
      "channel": 3,
      "note": 94,
      "start": 18.0336,
      "duration": 0.2259,
      "velocity": 90,
      "chip": "ym2612"
    },
    {
      "channel": 4,
      "note": 80,
      "start": 18.034,
      "duration": 0.0598,
      "velocity": 97,
      "chip": "ym2612"
    },
    {
      "channel": 5,
      "note": 67,
      "start": 18.0343,
      "duration": 0.101,
      "velocity": 120,
      "chip": "ym2612"
    },
    {
      "channel": 4,
      "note": 80,
      "start": 18.1147,
      "duration": 0.0205,
      "velocity": 97,
      "chip": "ym2612"
    },
    {
      "channel": 0,
      "note": 72,
      "start": 18.1579,
      "duration": 0.2466,
      "velocity": 127,
      "chip": "ym2612"
    },
    {
      "channel": 4,
      "note": 83,
      "start": 18.1585,
      "duration": 0.0597,
      "velocity": 97,
      "chip": "ym2612"
    },
    {
      "channel": 5,
      "note": 65,
      "start": 18.1588,
      "duration": 0.101,
      "velocity": 120,
      "chip": "ym2612"
    },
    {
      "channel": 4,
      "note": 83,
      "start": 18.2392,
      "duration": 0.0205,
      "velocity": 97,
      "chip": "ym2612"
    },
    {
      "channel": 3,
      "note": 93,
      "start": 18.2805,
      "duration": 0.7258,
      "velocity": 90,
      "chip": "ym2612"
    },
    {
      "channel": 4,
      "note": 78,
      "start": 18.2808,
      "duration": 0.0618,
      "velocity": 97,
      "chip": "ym2612"
    },
    {
      "channel": 5,
      "note": 67,
      "start": 18.2811,
      "duration": 0.103,
      "velocity": 120,
      "chip": "ym2612"
    },
    {
      "channel": 4,
      "note": 78,
      "start": 18.3636,
      "duration": 0.0205,
      "velocity": 97,
      "chip": "ym2612"
    },
    {
      "channel": 0,
      "note": 44,
      "start": 18.4067,
      "duration": 0.3296,
      "velocity": 127,
      "chip": "ym2612"
    },
    {
      "channel": 4,
      "note": 82,
      "start": 18.4073,
      "duration": 0.0598,
      "velocity": 97,
      "chip": "ym2612"
    },
    {
      "channel": 5,
      "note": 67,
      "start": 18.4076,
      "duration": 0.101,
      "velocity": 120,
      "chip": "ym2612"
    },
    {
      "channel": 4,
      "note": 82,
      "start": 18.4881,
      "duration": 0.0205,
      "velocity": 97,
      "chip": "ym2612"
    },
    {
      "channel": 4,
      "note": 75,
      "start": 18.5296,
      "duration": 0.0619,
      "velocity": 97,
      "chip": "ym2612"
    },
    {
      "channel": 4,
      "note": 75,
      "start": 18.6125,
      "duration": 0.0205,
      "velocity": 97,
      "chip": "ym2612"
    },
    {
      "channel": 1,
      "note": 56,
      "start": 18.6537,
      "duration": 0.7482,
      "velocity": 104,
      "chip": "ym2612"
    },
    {
      "channel": 2,
      "note": 89,
      "start": 18.654,
      "duration": 1.4716,
      "velocity": 90,
      "chip": "ym2612"
    },
    {
      "channel": 4,
      "note": 80,
      "start": 18.6544,
      "duration": 0.0617,
      "velocity": 97,
      "chip": "ym2612"
    },
    {
      "channel": 5,
      "note": 60,
      "start": 18.6547,
      "duration": 0.1028,
      "velocity": 120,
      "chip": "ym2612"
    },
    {
      "channel": 4,
      "note": 80,
      "start": 18.737,
      "duration": 0.0205,
      "velocity": 97,
      "chip": "ym2612"
    },
    {
      "channel": 0,
      "note": 44,
      "start": 18.7781,
      "duration": 0.0827,
      "velocity": 127,
      "chip": "ym2612"
    },
    {
      "channel": 4,
      "note": 73,
      "start": 18.7786,
      "duration": 0.0617,
      "velocity": 97,
      "chip": "ym2612"
    },
    {
      "channel": 4,
      "note": 73,
      "start": 18.8614,
      "duration": 0.0205,
      "velocity": 97,
      "chip": "ym2612"
    },
    {
      "channel": 0,
      "note": 53,
      "start": 18.9042,
      "duration": 0.1224,
      "velocity": 121,
      "chip": "ym2612"
    },
    {
      "channel": 4,
      "note": 75,
      "start": 18.9048,
      "duration": 0.0598,
      "velocity": 97,
      "chip": "ym2612"
    },
    {
      "channel": 5,
      "note": 62,
      "start": 18.905,
      "duration": 0.2257,
      "velocity": 120,
      "chip": "ym2612"
    },
    {
      "channel": 4,
      "note": 75,
      "start": 18.9857,
      "duration": 0.0207,
      "velocity": 97,
      "chip": "ym2612"
    },
    {
      "channel": 0,
      "note": 44,
      "start": 19.0286,
      "duration": 0.081,
      "velocity": 127,
      "chip": "ym2612"
    },
    {
      "channel": 3,
      "note": 89,
      "start": 19.029,
      "duration": 1.4701,
      "velocity": 90,
      "chip": "ym2612"
    },
    {
      "channel": 4,
      "note": 68,
      "start": 19.0293,
      "duration": 0.0598,
      "velocity": 97,
      "chip": "ym2612"
    },
    {
      "channel": 4,
      "note": 68,
      "start": 19.1102,
      "duration": 0.0205,
      "velocity": 97,
      "chip": "ym2612"
    },
    {
      "channel": 0,
      "note": 39,
      "start": 19.153,
      "duration": 0.2054,
      "velocity": 127,
      "chip": "ym2612"
    },
    {
      "channel": 4,
      "note": 71,
      "start": 19.1536,
      "duration": 0.06,
      "velocity": 97,
      "chip": "ym2612"
    },
    {
      "channel": 5,
      "note": 60,
      "start": 19.1539,
      "duration": 0.2257,
      "velocity": 120,
      "chip": "ym2612"
    },
    {
      "channel": 4,
      "note": 71,
      "start": 19.2346,
      "duration": 0.0205,
      "velocity": 97,
      "chip": "ym2612"
    },
    {
      "channel": 4,
      "note": 66,
      "start": 19.2763,
      "duration": 0.0617,
      "velocity": 97,
      "chip": "ym2612"
    },
    {
      "channel": 4,
      "note": 66,
      "start": 19.3591,
      "duration": 0.0205,
      "velocity": 97,
      "chip": "ym2612"
    },
    {
      "channel": 0,
      "note": 44,
      "start": 19.4018,
      "duration": 0.2054,
      "velocity": 127,
      "chip": "ym2612"
    },
    {
      "channel": 1,
      "note": 58,
      "start": 19.4021,
      "duration": 0.4974,
      "velocity": 104,
      "chip": "ym2612"
    },
    {
      "channel": 4,
      "note": 70,
      "start": 19.4027,
      "duration": 0.0597,
      "velocity": 97,
      "chip": "ym2612"
    },
    {
      "channel": 5,
      "note": 62,
      "start": 19.403,
      "duration": 0.2254,
      "velocity": 120,
      "chip": "ym2612"
    },
    {
      "channel": 4,
      "note": 70,
      "start": 19.4834,
      "duration": 0.0205,
      "velocity": 97,
      "chip": "ym2612"
    },
    {
      "channel": 4,
      "note": 63,
      "start": 19.5249,
      "duration": 0.062,
      "velocity": 97,
      "chip": "ym2612"
    },
    {
      "channel": 4,
      "note": 63,
      "start": 19.6079,
      "duration": 0.0205,
      "velocity": 97,
      "chip": "ym2612"
    },
    {
      "channel": 0,
      "note": 72,
      "start": 19.6506,
      "duration": 0.2469,
      "velocity": 127,
      "chip": "ym2612"
    },
    {
      "channel": 4,
      "note": 68,
      "start": 19.6512,
      "duration": 0.06,
      "velocity": 97,
      "chip": "ym2612"
    },
    {
      "channel": 5,
      "note": 65,
      "start": 19.6515,
      "duration": 0.2256,
      "velocity": 120,
      "chip": "ym2612"
    },
    {
      "channel": 4,
      "note": 68,
      "start": 19.7322,
      "duration": 0.0204,
      "velocity": 97,
      "chip": "ym2612"
    },
    {
      "channel": 4,
      "note": 61,
      "start": 19.7736,
      "duration": 0.0619,
      "velocity": 97,
      "chip": "ym2612"
    },
    {
      "channel": 4,
      "note": 61,
      "start": 19.8567,
      "duration": 0.0204,
      "velocity": 97,
      "chip": "ym2612"
    },
    {
      "channel": 0,
      "note": 39,
      "start": 19.8995,
      "duration": 0.1225,
      "velocity": 127,
      "chip": "ym2612"
    },
    {
      "channel": 1,
      "note": 52,
      "start": 19.8998,
      "duration": 0.7444,
      "velocity": 104,
      "chip": "ym2612"
    },
    {
      "channel": 4,
      "note": 87,
      "start": 19.9004,
      "duration": 0.0597,
      "velocity": 97,
      "chip": "ym2612"
    },
    {
      "channel": 5,
      "note": 67,
      "start": 19.9007,
      "duration": 0.1009,
      "velocity": 120,
      "chip": "ym2612"
    },
    {
      "channel": 4,
      "note": 87,
      "start": 19.9811,
      "duration": 0.0205,
      "velocity": 97,
      "chip": "ym2612"
    },
    {
      "channel": 0,
      "note": 53,
      "start": 20.0239,
      "duration": 0.1225,
      "velocity": 121,
      "chip": "ym2612"
    },
    {
      "channel": 4,
      "note": 80,
      "start": 20.0244,
      "duration": 0.06,
      "velocity": 97,
      "chip": "ym2612"
    },
    {
      "channel": 5,
      "note": 67,
      "start": 20.0247,
      "duration": 0.1015,
      "velocity": 120,
      "chip": "ym2612"
    },
    {
      "channel": 4,
      "note": 80,
      "start": 20.1054,
      "duration": 0.0208,
      "velocity": 97,
      "chip": "ym2612"
    },
    {
      "channel": 0,
      "note": 72,
      "start": 20.1483,
      "duration": 0.2469,
      "velocity": 127,
      "chip": "ym2612"
    },
    {
      "channel": 4,
      "note": 83,
      "start": 20.1488,
      "duration": 0.06,
      "velocity": 97,
      "chip": "ym2612"
    },
    {
      "channel": 5,
      "note": 65,
      "start": 20.1491,
      "duration": 0.1012,
      "velocity": 120,
      "chip": "ym2612"
    },
    {
      "channel": 4,
      "note": 83,
      "start": 20.2298,
      "duration": 0.0205,
      "velocity": 97,
      "chip": "ym2612"
    },
    {
      "channel": 4,
      "note": 78,
      "start": 20.2713,
      "duration": 0.0619,
      "velocity": 97,
      "chip": "ym2612"
    },
    {
      "channel": 5,
      "note": 67,
      "start": 20.2716,
      "duration": 0.1032,
      "velocity": 120,
      "chip": "ym2612"
    },
    {
      "channel": 4,
      "note": 78,
      "start": 20.3542,
      "duration": 0.0205,
      "velocity": 97,
      "chip": "ym2612"
    },
    {
      "channel": 0,
      "note": 44,
      "start": 20.3974,
      "duration": 0.3296,
      "velocity": 127,
      "chip": "ym2612"
    },
    {
      "channel": 4,
      "note": 82,
      "start": 20.398,
      "duration": 0.0598,
      "velocity": 97,
      "chip": "ym2612"
    },
    {
      "channel": 5,
      "note": 67,
      "start": 20.3983,
      "duration": 0.101,
      "velocity": 120,
      "chip": "ym2612"
    },
    {
      "channel": 4,
      "note": 82,
      "start": 20.4788,
      "duration": 0.0205,
      "velocity": 97,
      "chip": "ym2612"
    },
    {
      "channel": 4,
      "note": 75,
      "start": 20.5202,
      "duration": 0.0619,
      "velocity": 97,
      "chip": "ym2612"
    },
    {
      "channel": 4,
      "note": 75,
      "start": 20.6032,
      "duration": 0.0204,
      "velocity": 97,
      "chip": "ym2612"
    },
    {
      "channel": 1,
      "note": 54,
      "start": 20.6444,
      "duration": 0.7482,
      "velocity": 104,
      "chip": "ym2612"
    },
    {
      "channel": 4,
      "note": 80,
      "start": 20.6449,
      "duration": 0.0617,
      "velocity": 97,
      "chip": "ym2612"
    },
    {
      "channel": 5,
      "note": 60,
      "start": 20.6452,
      "duration": 0.103,
      "velocity": 120,
      "chip": "ym2612"
    },
    {
      "channel": 4,
      "note": 80,
      "start": 20.7276,
      "duration": 0.0205,
      "velocity": 97,
      "chip": "ym2612"
    },
    {
      "channel": 0,
      "note": 44,
      "start": 20.7687,
      "duration": 0.0827,
      "velocity": 127,
      "chip": "ym2612"
    },
    {
      "channel": 4,
      "note": 73,
      "start": 20.7693,
      "duration": 0.0617,
      "velocity": 97,
      "chip": "ym2612"
    },
    {
      "channel": 4,
      "note": 73,
      "start": 20.8521,
      "duration": 0.0205,
      "velocity": 97,
      "chip": "ym2612"
    },
    {
      "channel": 0,
      "note": 53,
      "start": 20.8948,
      "duration": 0.1225,
      "velocity": 121,
      "chip": "ym2612"
    },
    {
      "channel": 2,
      "note": 90,
      "start": 20.8951,
      "duration": 0.3504,
      "velocity": 90,
      "chip": "ym2612"
    },
    {
      "channel": 4,
      "note": 75,
      "start": 20.8956,
      "duration": 0.0598,
      "velocity": 97,
      "chip": "ym2612"
    },
    {
      "channel": 5,
      "note": 62,
      "start": 20.8961,
      "duration": 0.2254,
      "velocity": 120,
      "chip": "ym2612"
    },
    {
      "channel": 4,
      "note": 75,
      "start": 20.9766,
      "duration": 0.0202,
      "velocity": 97,
      "chip": "ym2612"
    },
    {
      "channel": 0,
      "note": 44,
      "start": 21.0192,
      "duration": 0.081,
      "velocity": 127,
      "chip": "ym2612"
    },
    {
      "channel": 4,
      "note": 68,
      "start": 21.02,
      "duration": 0.0599,
      "velocity": 97,
      "chip": "ym2612"
    },
    {
      "channel": 4,
      "note": 68,
      "start": 21.1009,
      "duration": 0.0205,
      "velocity": 97,
      "chip": "ym2612"
    },
    {
      "channel": 0,
      "note": 39,
      "start": 21.1437,
      "duration": 0.2054,
      "velocity": 127,
      "chip": "ym2612"
    },
    {
      "channel": 4,
      "note": 71,
      "start": 21.1442,
      "duration": 0.06,
      "velocity": 97,
      "chip": "ym2612"
    },
    {
      "channel": 5,
      "note": 60,
      "start": 21.1445,
      "duration": 0.2258,
      "velocity": 120,
      "chip": "ym2612"
    },
    {
      "channel": 4,
      "note": 71,
      "start": 21.2253,
      "duration": 0.0205,
      "velocity": 97,
      "chip": "ym2612"
    },
    {
      "channel": 2,
      "note": 93,
      "start": 21.2665,
      "duration": 0.3523,
      "velocity": 90,
      "chip": "ym2612"
    },
    {
      "channel": 3,
      "note": 90,
      "start": 21.2667,
      "duration": 0.3522,
      "velocity": 90,
      "chip": "ym2612"
    },
    {
      "channel": 4,
      "note": 66,
      "start": 21.2671,
      "duration": 0.0616,
      "velocity": 97,
      "chip": "ym2612"
    },
    {
      "channel": 4,
      "note": 66,
      "start": 21.3497,
      "duration": 0.0205,
      "velocity": 97,
      "chip": "ym2612"
    },
    {
      "channel": 0,
      "note": 44,
      "start": 21.3925,
      "duration": 0.2054,
      "velocity": 127,
      "chip": "ym2612"
    },
    {
      "channel": 1,
      "note": 56,
      "start": 21.3927,
      "duration": 0.4974,
      "velocity": 104,
      "chip": "ym2612"
    },
    {
      "channel": 4,
      "note": 70,
      "start": 21.3935,
      "duration": 0.0596,
      "velocity": 97,
      "chip": "ym2612"
    },
    {
      "channel": 5,
      "note": 62,
      "start": 21.3938,
      "duration": 0.2254,
      "velocity": 120,
      "chip": "ym2612"
    },
    {
      "channel": 4,
      "note": 70,
      "start": 21.4741,
      "duration": 0.0205,
      "velocity": 97,
      "chip": "ym2612"
    },
    {
      "channel": 4,
      "note": 63,
      "start": 21.5156,
      "duration": 0.0619,
      "velocity": 97,
      "chip": "ym2612"
    },
    {
      "channel": 4,
      "note": 63,
      "start": 21.5985,
      "duration": 0.0206,
      "velocity": 97,
      "chip": "ym2612"
    },
    {
      "channel": 0,
      "note": 72,
      "start": 21.6413,
      "duration": 0.2469,
      "velocity": 127,
      "chip": "ym2612"
    },
    {
      "channel": 2,
      "note": 94,
      "start": 21.6416,
      "duration": 0.2259,
      "velocity": 90,
      "chip": "ym2612"
    },
    {
      "channel": 3,
      "note": 93,
      "start": 21.6419,
      "duration": 0.3502,
      "velocity": 90,
      "chip": "ym2612"
    },
    {
      "channel": 4,
      "note": 68,
      "start": 21.6422,
      "duration": 0.0596,
      "velocity": 97,
      "chip": "ym2612"
    },
    {
      "channel": 5,
      "note": 65,
      "start": 21.6425,
      "duration": 0.2253,
      "velocity": 120,
      "chip": "ym2612"
    },
    {
      "channel": 4,
      "note": 68,
      "start": 21.7228,
      "duration": 0.0205,
      "velocity": 97,
      "chip": "ym2612"
    },
    {
      "channel": 4,
      "note": 61,
      "start": 21.7643,
      "duration": 0.0621,
      "velocity": 97,
      "chip": "ym2612"
    },
    {
      "channel": 4,
      "note": 61,
      "start": 21.8472,
      "duration": 0.0205,
      "velocity": 97,
      "chip": "ym2612"
    },
    {
      "channel": 0,
      "note": 39,
      "start": 21.8901,
      "duration": 0.1224,
      "velocity": 127,
      "chip": "ym2612"
    },
    {
      "channel": 1,
      "note": 51,
      "start": 21.8904,
      "duration": 0.7444,
      "velocity": 104,
      "chip": "ym2612"
    },
    {
      "channel": 2,
      "note": 95,
      "start": 21.8907,
      "duration": 0.7234,
      "velocity": 90,
      "chip": "ym2612"
    },
    {
      "channel": 4,
      "note": 87,
      "start": 21.8912,
      "duration": 0.0595,
      "velocity": 97,
      "chip": "ym2612"
    },
    {
      "channel": 5,
      "note": 67,
      "start": 21.8915,
      "duration": 0.1008,
      "velocity": 120,
      "chip": "ym2612"
    },
    {
      "channel": 4,
      "note": 87,
      "start": 21.9717,
      "duration": 0.0205,
      "velocity": 97,
      "chip": "ym2612"
    },
    {
      "channel": 0,
      "note": 53,
      "start": 22.0145,
      "duration": 0.1225,
      "velocity": 121,
      "chip": "ym2612"
    },
    {
      "channel": 3,
      "note": 94,
      "start": 22.0151,
      "duration": 0.2258,
      "velocity": 90,
      "chip": "ym2612"
    },
    {
      "channel": 4,
      "note": 80,
      "start": 22.0154,
      "duration": 0.0596,
      "velocity": 97,
      "chip": "ym2612"
    },
    {
      "channel": 5,
      "note": 67,
      "start": 22.0157,
      "duration": 0.1009,
      "velocity": 120,
      "chip": "ym2612"
    },
    {
      "channel": 4,
      "note": 80,
      "start": 22.0963,
      "duration": 0.0202,
      "velocity": 97,
      "chip": "ym2612"
    },
    {
      "channel": 0,
      "note": 72,
      "start": 22.139,
      "duration": 0.2471,
      "velocity": 127,
      "chip": "ym2612"
    },
    {
      "channel": 4,
      "note": 83,
      "start": 22.1395,
      "duration": 0.0599,
      "velocity": 97,
      "chip": "ym2612"
    },
    {
      "channel": 5,
      "note": 65,
      "start": 22.1398,
      "duration": 0.1012,
      "velocity": 120,
      "chip": "ym2612"
    },
    {
      "channel": 4,
      "note": 83,
      "start": 22.2205,
      "duration": 0.0205,
      "velocity": 97,
      "chip": "ym2612"
    },
    {
      "channel": 3,
      "note": 95,
      "start": 22.2618,
      "duration": 0.7255,
      "velocity": 90,
      "chip": "ym2612"
    },
    {
      "channel": 4,
      "note": 78,
      "start": 22.2621,
      "duration": 0.0617,
      "velocity": 97,
      "chip": "ym2612"
    },
    {
      "channel": 5,
      "note": 67,
      "start": 22.2624,
      "duration": 0.103,
      "velocity": 120,
      "chip": "ym2612"
    },
    {
      "channel": 4,
      "note": 78,
      "start": 22.3449,
      "duration": 0.0205,
      "velocity": 97,
      "chip": "ym2612"
    },
    {
      "channel": 0,
      "note": 44,
      "start": 22.3881,
      "duration": 0.3295,
      "velocity": 127,
      "chip": "ym2612"
    },
    {
      "channel": 4,
      "note": 82,
      "start": 22.3888,
      "duration": 0.0596,
      "velocity": 97,
      "chip": "ym2612"
    },
    {
      "channel": 5,
      "note": 67,
      "start": 22.3891,
      "duration": 0.1008,
      "velocity": 120,
      "chip": "ym2612"
    },
    {
      "channel": 4,
      "note": 82,
      "start": 22.4694,
      "duration": 0.0205,
      "velocity": 97,
      "chip": "ym2612"
    },
    {
      "channel": 4,
      "note": 75,
      "start": 22.5109,
      "duration": 0.0619,
      "velocity": 97,
      "chip": "ym2612"
    },
    {
      "channel": 4,
      "note": 75,
      "start": 22.5938,
      "duration": 0.0205,
      "velocity": 97,
      "chip": "ym2612"
    },
    {
      "channel": 1,
      "note": 53,
      "start": 22.635,
      "duration": 0.7482,
      "velocity": 104,
      "chip": "ym2612"
    },
    {
      "channel": 2,
      "note": 93,
      "start": 22.6353,
      "duration": 0.1032,
      "velocity": 90,
      "chip": "ym2612"
    },
    {
      "channel": 4,
      "note": 80,
      "start": 22.6357,
      "duration": 0.0615,
      "velocity": 97,
      "chip": "ym2612"
    },
    {
      "channel": 5,
      "note": 67,
      "start": 22.6362,
      "duration": 0.1026,
      "velocity": 120,
      "chip": "ym2612"
    },
    {
      "channel": 4,
      "note": 80,
      "start": 22.7183,
      "duration": 0.0205,
      "velocity": 97,
      "chip": "ym2612"
    },
    {
      "channel": 0,
      "note": 44,
      "start": 22.7594,
      "duration": 0.0827,
      "velocity": 127,
      "chip": "ym2612"
    },
    {
      "channel": 2,
      "note": 91,
      "start": 22.7597,
      "duration": 0.1033,
      "velocity": 90,
      "chip": "ym2612"
    },
    {
      "channel": 4,
      "note": 73,
      "start": 22.7601,
      "duration": 0.0615,
      "velocity": 97,
      "chip": "ym2612"
    },
    {
      "channel": 4,
      "note": 73,
      "start": 22.8427,
      "duration": 0.0205,
      "velocity": 97,
      "chip": "ym2612"
    },
    {
      "channel": 0,
      "note": 53,
      "start": 22.8855,
      "duration": 0.1224,
      "velocity": 121,
      "chip": "ym2612"
    },
    {
      "channel": 2,
      "note": 89,
      "start": 22.8858,
      "duration": 0.4749,
      "velocity": 90,
      "chip": "ym2612"
    },
    {
      "channel": 4,
      "note": 75,
      "start": 22.8865,
      "duration": 0.0597,
      "velocity": 97,
      "chip": "ym2612"
    },
    {
      "channel": 5,
      "note": 70,
      "start": 22.8868,
      "duration": 0.2253,
      "velocity": 120,
      "chip": "ym2612"
    },
    {
      "channel": 4,
      "note": 75,
      "start": 22.967,
      "duration": 0.0205,
      "velocity": 97,
      "chip": "ym2612"
    },
    {
      "channel": 0,
      "note": 44,
      "start": 23.0099,
      "duration": 0.081,
      "velocity": 127,
      "chip": "ym2612"
    },
    {
      "channel": 3,
      "note": 93,
      "start": 23.0103,
      "duration": 0.1016,
      "velocity": 90,
      "chip": "ym2612"
    },
    {
      "channel": 4,
      "note": 68,
      "start": 23.0106,
      "duration": 0.0599,
      "velocity": 97,
      "chip": "ym2612"
    },
    {
      "channel": 4,
      "note": 68,
      "start": 23.0915,
      "duration": 0.0205,
      "velocity": 97,
      "chip": "ym2612"
    },
    {
      "channel": 0,
      "note": 39,
      "start": 23.1343,
      "duration": 0.2054,
      "velocity": 127,
      "chip": "ym2612"
    },
    {
      "channel": 3,
      "note": 91,
      "start": 23.1347,
      "duration": 0.1017,
      "velocity": 90,
      "chip": "ym2612"
    },
    {
      "channel": 4,
      "note": 71,
      "start": 23.135,
      "duration": 0.0599,
      "velocity": 97,
      "chip": "ym2612"
    },
    {
      "channel": 5,
      "note": 69,
      "start": 23.1353,
      "duration": 0.2256,
      "velocity": 120,
      "chip": "ym2612"
    },
    {
      "channel": 4,
      "note": 71,
      "start": 23.2162,
      "duration": 0.0204,
      "velocity": 97,
      "chip": "ym2612"
    },
    {
      "channel": 3,
      "note": 89,
      "start": 23.2572,
      "duration": 0.4767,
      "velocity": 90,
      "chip": "ym2612"
    },
    {
      "channel": 4,
      "note": 66,
      "start": 23.2576,
      "duration": 0.0618,
      "velocity": 97,
      "chip": "ym2612"
    },
    {
      "channel": 4,
      "note": 66,
      "start": 23.3404,
      "duration": 0.0205,
      "velocity": 97,
      "chip": "ym2612"
    },
    {
      "channel": 0,
      "note": 44,
      "start": 23.3831,
      "duration": 0.081,
      "velocity": 127,
      "chip": "ym2612"
    },
    {
      "channel": 1,
      "note": 55,
      "start": 23.3834,
      "duration": 0.4974,
      "velocity": 104,
      "chip": "ym2612"
    },
    {
      "channel": 2,
      "note": 92,
      "start": 23.3837,
      "duration": 0.7234,
      "velocity": 90,
      "chip": "ym2612"
    },
    {
      "channel": 4,
      "note": 70,
      "start": 23.3842,
      "duration": 0.0595,
      "velocity": 97,
      "chip": "ym2612"
    },
    {
      "channel": 5,
      "note": 60,
      "start": 23.3845,
      "duration": 0.2252,
      "velocity": 120,
      "chip": "ym2612"
    },
    {
      "channel": 4,
      "note": 70,
      "start": 23.4648,
      "duration": 0.0205,
      "velocity": 97,
      "chip": "ym2612"
    },
    {
      "channel": 0,
      "note": 44,
      "start": 23.5061,
      "duration": 0.0824,
      "velocity": 127,
      "chip": "ym2612"
    },
    {
      "channel": 4,
      "note": 63,
      "start": 23.5068,
      "duration": 0.0613,
      "velocity": 97,
      "chip": "ym2612"
    },
    {
      "channel": 4,
      "note": 63,
      "start": 23.5892,
      "duration": 0.0205,
      "velocity": 97,
      "chip": "ym2612"
    },
    {
      "channel": 0,
      "note": 40,
      "start": 23.632,
      "duration": 0.2261,
      "velocity": 91,
      "chip": "ym2612"
    },
    {
      "channel": 4,
      "note": 68,
      "start": 23.6325,
      "duration": 0.06,
      "velocity": 97,
      "chip": "ym2612"
    },
    {
      "channel": 5,
      "note": 62,
      "start": 23.6328,
      "duration": 0.2258,
      "velocity": 120,
      "chip": "ym2612"
    },
    {
      "channel": 4,
      "note": 68,
      "start": 23.7136,
      "duration": 0.0205,
      "velocity": 97,
      "chip": "ym2612"
    },
    {
      "channel": 3,
      "note": 92,
      "start": 23.7549,
      "duration": 0.7255,
      "velocity": 90,
      "chip": "ym2612"
    },
    {
      "channel": 4,
      "note": 61,
      "start": 23.7552,
      "duration": 0.0618,
      "velocity": 97,
      "chip": "ym2612"
    },
    {
      "channel": 4,
      "note": 61,
      "start": 23.838,
      "duration": 0.0205,
      "velocity": 97,
      "chip": "ym2612"
    },
    {
      "channel": 0,
      "note": 32,
      "start": 23.8808,
      "duration": 0.2469,
      "velocity": 127,
      "chip": "ym2612"
    },
    {
      "channel": 1,
      "note": 56,
      "start": 23.8828,
      "duration": 0.7427,
      "velocity": 104,
      "chip": "ym2612"
    },
    {
      "channel": 4,
      "note": 87,
      "start": 23.8853,
      "duration": 0.0561,
      "velocity": 97,
      "chip": "ym2612"
    },
    {
      "channel": 5,
      "note": 67,
      "start": 23.8876,
      "duration": 0.0954,
      "velocity": 120,
      "chip": "ym2612"
    },
    {
      "channel": 4,
      "note": 87,
      "start": 23.9624,
      "duration": 0.0205,
      "velocity": 97,
      "chip": "ym2612"
    },
    {
      "channel": 4,
      "note": 80,
      "start": 24.0039,
      "duration": 0.0622,
      "velocity": 97,
      "chip": "ym2612"
    },
    {
      "channel": 5,
      "note": 67,
      "start": 24.0042,
      "duration": 0.1032,
      "velocity": 120,
      "chip": "ym2612"
    },
    {
      "channel": 4,
      "note": 80,
      "start": 24.0869,
      "duration": 0.0205,
      "velocity": 97,
      "chip": "ym2612"
    },
    {
      "channel": 0,
      "note": 72,
      "start": 24.1296,
      "duration": 0.2469,
      "velocity": 127,
      "chip": "ym2612"
    },
    {
      "channel": 4,
      "note": 83,
      "start": 24.1301,
      "duration": 0.06,
      "velocity": 97,
      "chip": "ym2612"
    },
    {
      "channel": 5,
      "note": 65,
      "start": 24.1304,
      "duration": 0.1012,
      "velocity": 120,
      "chip": "ym2612"
    },
    {
      "channel": 4,
      "note": 83,
      "start": 24.2111,
      "duration": 0.0205,
      "velocity": 97,
      "chip": "ym2612"
    },
    {
      "channel": 4,
      "note": 78,
      "start": 24.2526,
      "duration": 0.0619,
      "velocity": 97,
      "chip": "ym2612"
    },
    {
      "channel": 5,
      "note": 67,
      "start": 24.2529,
      "duration": 0.1034,
      "velocity": 120,
      "chip": "ym2612"
    },
    {
      "channel": 4,
      "note": 78,
      "start": 24.3356,
      "duration": 0.0207,
      "velocity": 97,
      "chip": "ym2612"
    },
    {
      "channel": 0,
      "note": 44,
      "start": 24.3785,
      "duration": 0.3298,
      "velocity": 127,
      "chip": "ym2612"
    },
    {
      "channel": 4,
      "note": 82,
      "start": 24.3791,
      "duration": 0.06,
      "velocity": 97,
      "chip": "ym2612"
    },
    {
      "channel": 5,
      "note": 67,
      "start": 24.3794,
      "duration": 0.1013,
      "velocity": 120,
      "chip": "ym2612"
    },
    {
      "channel": 4,
      "note": 82,
      "start": 24.4601,
      "duration": 0.0205,
      "velocity": 97,
      "chip": "ym2612"
    },
    {
      "channel": 4,
      "note": 75,
      "start": 24.5015,
      "duration": 0.062,
      "velocity": 97,
      "chip": "ym2612"
    },
    {
      "channel": 4,
      "note": 75,
      "start": 24.5845,
      "duration": 0.0205,
      "velocity": 97,
      "chip": "ym2612"
    },
    {
      "channel": 1,
      "note": 58,
      "start": 24.6257,
      "duration": 0.7482,
      "velocity": 104,
      "chip": "ym2612"
    },
    {
      "channel": 4,
      "note": 80,
      "start": 24.6265,
      "duration": 0.0614,
      "velocity": 97,
      "chip": "ym2612"
    },
    {
      "channel": 5,
      "note": 60,
      "start": 24.6267,
      "duration": 0.1027,
      "velocity": 120,
      "chip": "ym2612"
    },
    {
      "channel": 4,
      "note": 80,
      "start": 24.709,
      "duration": 0.0205,
      "velocity": 97,
      "chip": "ym2612"
    },
    {
      "channel": 0,
      "note": 44,
      "start": 24.75,
      "duration": 0.0827,
      "velocity": 127,
      "chip": "ym2612"
    },
    {
      "channel": 4,
      "note": 73,
      "start": 24.7506,
      "duration": 0.0617,
      "velocity": 97,
      "chip": "ym2612"
    },
    {
      "channel": 4,
      "note": 73,
      "start": 24.8334,
      "duration": 0.0205,
      "velocity": 97,
      "chip": "ym2612"
    },
    {
      "channel": 0,
      "note": 53,
      "start": 24.8764,
      "duration": 0.1222,
      "velocity": 121,
      "chip": "ym2612"
    },
    {
      "channel": 2,
      "note": 90,
      "start": 24.8766,
      "duration": 0.3502,
      "velocity": 90,
      "chip": "ym2612"
    },
    {
      "channel": 4,
      "note": 75,
      "start": 24.8771,
      "duration": 0.0595,
      "velocity": 97,
      "chip": "ym2612"
    },
    {
      "channel": 5,
      "note": 62,
      "start": 24.8773,
      "duration": 0.2252,
      "velocity": 120,
      "chip": "ym2612"
    },
    {
      "channel": 4,
      "note": 75,
      "start": 24.9576,
      "duration": 0.0205,
      "velocity": 97,
      "chip": "ym2612"
    },
    {
      "channel": 0,
      "note": 53,
      "start": 24.9988,
      "duration": 0.1241,
      "velocity": 121,
      "chip": "ym2612"
    },
    {
      "channel": 4,
      "note": 68,
      "start": 24.9995,
      "duration": 0.0615,
      "velocity": 97,
      "chip": "ym2612"
    },
    {
      "channel": 4,
      "note": 68,
      "start": 25.082,
      "duration": 0.0205,
      "velocity": 97,
      "chip": "ym2612"
    },
    {
      "channel": 0,
      "note": 39,
      "start": 25.1249,
      "duration": 0.2469,
      "velocity": 127,
      "chip": "ym2612"
    },
    {
      "channel": 4,
      "note": 71,
      "start": 25.1255,
      "duration": 0.06,
      "velocity": 97,
      "chip": "ym2612"
    },
    {
      "channel": 5,
      "note": 60,
      "start": 25.1261,
      "duration": 0.2254,
      "velocity": 120,
      "chip": "ym2612"
    },
    {
      "channel": 4,
      "note": 71,
      "start": 25.2068,
      "duration": 0.0203,
      "velocity": 97,
      "chip": "ym2612"
    },
    {
      "channel": 2,
      "note": 93,
      "start": 25.2478,
      "duration": 0.3523,
      "velocity": 90,
      "chip": "ym2612"
    },
    {
      "channel": 3,
      "note": 90,
      "start": 25.248,
      "duration": 0.3523,
      "velocity": 90,
      "chip": "ym2612"
    },
    {
      "channel": 4,
      "note": 66,
      "start": 25.2483,
      "duration": 0.0616,
      "velocity": 97,
      "chip": "ym2612"
    },
    {
      "channel": 4,
      "note": 66,
      "start": 25.331,
      "duration": 0.0205,
      "velocity": 97,
      "chip": "ym2612"
    },
    {
      "channel": 0,
      "note": 44,
      "start": 25.3738,
      "duration": 0.2054,
      "velocity": 127,
      "chip": "ym2612"
    },
    {
      "channel": 1,
      "note": 59,
      "start": 25.3741,
      "duration": 0.4975,
      "velocity": 104,
      "chip": "ym2612"
    },
    {
      "channel": 4,
      "note": 70,
      "start": 25.3748,
      "duration": 0.0596,
      "velocity": 97,
      "chip": "ym2612"
    },
    {
      "channel": 5,
      "note": 62,
      "start": 25.3751,
      "duration": 0.2254,
      "velocity": 120,
      "chip": "ym2612"
    },
    {
      "channel": 4,
      "note": 70,
      "start": 25.4554,
      "duration": 0.0207,
      "velocity": 97,
      "chip": "ym2612"
    },
    {
      "channel": 4,
      "note": 63,
      "start": 25.4969,
      "duration": 0.0619,
      "velocity": 97,
      "chip": "ym2612"
    },
    {
      "channel": 4,
      "note": 63,
      "start": 25.5799,
      "duration": 0.0206,
      "velocity": 97,
      "chip": "ym2612"
    },
    {
      "channel": 0,
      "note": 72,
      "start": 25.6226,
      "duration": 0.2469,
      "velocity": 127,
      "chip": "ym2612"
    },
    {
      "channel": 2,
      "note": 94,
      "start": 25.6229,
      "duration": 0.2259,
      "velocity": 90,
      "chip": "ym2612"
    },
    {
      "channel": 3,
      "note": 93,
      "start": 25.6232,
      "duration": 0.3502,
      "velocity": 90,
      "chip": "ym2612"
    },
    {
      "channel": 4,
      "note": 68,
      "start": 25.6235,
      "duration": 0.0596,
      "velocity": 97,
      "chip": "ym2612"
    },
    {
      "channel": 5,
      "note": 65,
      "start": 25.6238,
      "duration": 0.2253,
      "velocity": 120,
      "chip": "ym2612"
    },
    {
      "channel": 4,
      "note": 68,
      "start": 25.7041,
      "duration": 0.0205,
      "velocity": 97,
      "chip": "ym2612"
    },
    {
      "channel": 4,
      "note": 61,
      "start": 25.7456,
      "duration": 0.0619,
      "velocity": 97,
      "chip": "ym2612"
    },
    {
      "channel": 4,
      "note": 61,
      "start": 25.8285,
      "duration": 0.0205,
      "velocity": 97,
      "chip": "ym2612"
    },
    {
      "channel": 0,
      "note": 39,
      "start": 25.8715,
      "duration": 0.1224,
      "velocity": 127,
      "chip": "ym2612"
    },
    {
      "channel": 1,
      "note": 54,
      "start": 25.8718,
      "duration": 0.7445,
      "velocity": 104,
      "chip": "ym2612"
    },
    {
      "channel": 2,
      "note": 93,
      "start": 25.872,
      "duration": 0.7233,
      "velocity": 90,
      "chip": "ym2612"
    },
    {
      "channel": 4,
      "note": 87,
      "start": 25.8726,
      "duration": 0.0595,
      "velocity": 97,
      "chip": "ym2612"
    },
    {
      "channel": 5,
      "note": 67,
      "start": 25.8728,
      "duration": 0.1008,
      "velocity": 120,
      "chip": "ym2612"
    },
    {
      "channel": 4,
      "note": 87,
      "start": 25.9531,
      "duration": 0.0205,
      "velocity": 97,
      "chip": "ym2612"
    },
    {
      "channel": 0,
      "note": 53,
      "start": 25.9961,
      "duration": 0.1222,
      "velocity": 121,
      "chip": "ym2612"
    },
    {
      "channel": 3,
      "note": 94,
      "start": 25.9965,
      "duration": 0.2256,
      "velocity": 90,
      "chip": "ym2612"
    },
    {
      "channel": 4,
      "note": 80,
      "start": 25.9968,
      "duration": 0.0595,
      "velocity": 97,
      "chip": "ym2612"
    },
    {
      "channel": 5,
      "note": 67,
      "start": 25.9971,
      "duration": 0.1007,
      "velocity": 120,
      "chip": "ym2612"
    },
    {
      "channel": 4,
      "note": 80,
      "start": 26.0774,
      "duration": 0.0205,
      "velocity": 97,
      "chip": "ym2612"
    },
    {
      "channel": 0,
      "note": 72,
      "start": 26.1203,
      "duration": 0.2468,
      "velocity": 127,
      "chip": "ym2612"
    },
    {
      "channel": 4,
      "note": 83,
      "start": 26.1209,
      "duration": 0.0599,
      "velocity": 97,
      "chip": "ym2612"
    },
    {
      "channel": 5,
      "note": 65,
      "start": 26.1212,
      "duration": 0.1012,
      "velocity": 120,
      "chip": "ym2612"
    },
    {
      "channel": 4,
      "note": 83,
      "start": 26.2018,
      "duration": 0.0205,
      "velocity": 97,
      "chip": "ym2612"
    },
    {
      "channel": 3,
      "note": 93,
      "start": 26.2431,
      "duration": 0.7255,
      "velocity": 90,
      "chip": "ym2612"
    },
    {
      "channel": 4,
      "note": 78,
      "start": 26.2434,
      "duration": 0.0618,
      "velocity": 97,
      "chip": "ym2612"
    },
    {
      "channel": 5,
      "note": 67,
      "start": 26.2437,
      "duration": 0.1031,
      "velocity": 120,
      "chip": "ym2612"
    },
    {
      "channel": 4,
      "note": 78,
      "start": 26.3265,
      "duration": 0.0202,
      "velocity": 97,
      "chip": "ym2612"
    },
    {
      "channel": 0,
      "note": 44,
      "start": 26.3691,
      "duration": 0.3298,
      "velocity": 127,
      "chip": "ym2612"
    },
    {
      "channel": 4,
      "note": 82,
      "start": 26.3698,
      "duration": 0.0599,
      "velocity": 97,
      "chip": "ym2612"
    },
    {
      "channel": 5,
      "note": 67,
      "start": 26.3701,
      "duration": 0.1012,
      "velocity": 120,
      "chip": "ym2612"
    },
    {
      "channel": 4,
      "note": 82,
      "start": 26.4507,
      "duration": 0.0205,
      "velocity": 97,
      "chip": "ym2612"
    },
    {
      "channel": 4,
      "note": 75,
      "start": 26.4922,
      "duration": 0.0619,
      "velocity": 97,
      "chip": "ym2612"
    },
    {
      "channel": 4,
      "note": 75,
      "start": 26.5751,
      "duration": 0.0205,
      "velocity": 97,
      "chip": "ym2612"
    },
    {
      "channel": 1,
      "note": 56,
      "start": 26.6165,
      "duration": 0.748,
      "velocity": 104,
      "chip": "ym2612"
    },
    {
      "channel": 2,
      "note": 89,
      "start": 26.6168,
      "duration": 1.7203,
      "velocity": 90,
      "chip": "ym2612"
    },
    {
      "channel": 4,
      "note": 80,
      "start": 26.6172,
      "duration": 0.0613,
      "velocity": 97,
      "chip": "ym2612"
    },
    {
      "channel": 5,
      "note": 60,
      "start": 26.6175,
      "duration": 0.1027,
      "velocity": 120,
      "chip": "ym2612"
    },
    {
      "channel": 4,
      "note": 80,
      "start": 26.6996,
      "duration": 0.0205,
      "velocity": 97,
      "chip": "ym2612"
    },
    {
      "channel": 0,
      "note": 44,
      "start": 26.7407,
      "duration": 0.0827,
      "velocity": 127,
      "chip": "ym2612"
    },
    {
      "channel": 4,
      "note": 73,
      "start": 26.7412,
      "duration": 0.0617,
      "velocity": 97,
      "chip": "ym2612"
    },
    {
      "channel": 4,
      "note": 73,
      "start": 26.824,
      "duration": 0.0205,
      "velocity": 97,
      "chip": "ym2612"
    },
    {
      "channel": 0,
      "note": 53,
      "start": 26.867,
      "duration": 0.1222,
      "velocity": 121,
      "chip": "ym2612"
    },
    {
      "channel": 4,
      "note": 75,
      "start": 26.8676,
      "duration": 0.0596,
      "velocity": 97,
      "chip": "ym2612"
    },
    {
      "channel": 5,
      "note": 62,
      "start": 26.8679,
      "duration": 0.2255,
      "velocity": 120,
      "chip": "ym2612"
    },
    {
      "channel": 4,
      "note": 75,
      "start": 26.9483,
      "duration": 0.0205,
      "velocity": 97,
      "chip": "ym2612"
    },
    {
      "channel": 0,
      "note": 44,
      "start": 26.9912,
      "duration": 0.081,
      "velocity": 127,
      "chip": "ym2612"
    },
    {
      "channel": 3,
      "note": 89,
      "start": 26.9916,
      "duration": 1.719,
      "velocity": 90,
      "chip": "ym2612"
    },
    {
      "channel": 4,
      "note": 68,
      "start": 26.9919,
      "duration": 0.0599,
      "velocity": 97,
      "chip": "ym2612"
    },
    {
      "channel": 4,
      "note": 68,
      "start": 27.0729,
      "duration": 0.0205,
      "velocity": 97,
      "chip": "ym2612"
    },
    {
      "channel": 0,
      "note": 39,
      "start": 27.1156,
      "duration": 0.2054,
      "velocity": 127,
      "chip": "ym2612"
    },
    {
      "channel": 4,
      "note": 71,
      "start": 27.1164,
      "duration": 0.06,
      "velocity": 97,
      "chip": "ym2612"
    },
    {
      "channel": 5,
      "note": 60,
      "start": 27.1167,
      "duration": 0.2255,
      "velocity": 120,
      "chip": "ym2612"
    },
    {
      "channel": 4,
      "note": 71,
      "start": 27.1972,
      "duration": 0.0205,
      "velocity": 97,
      "chip": "ym2612"
    },
    {
      "channel": 4,
      "note": 66,
      "start": 27.2387,
      "duration": 0.062,
      "velocity": 97,
      "chip": "ym2612"
    },
    {
      "channel": 4,
      "note": 66,
      "start": 27.3217,
      "duration": 0.0205,
      "velocity": 97,
      "chip": "ym2612"
    },
    {
      "channel": 0,
      "note": 44,
      "start": 27.3644,
      "duration": 0.2054,
      "velocity": 127,
      "chip": "ym2612"
    },
    {
      "channel": 1,
      "note": 58,
      "start": 27.3647,
      "duration": 0.4974,
      "velocity": 104,
      "chip": "ym2612"
    },
    {
      "channel": 4,
      "note": 70,
      "start": 27.3653,
      "duration": 0.0597,
      "velocity": 97,
      "chip": "ym2612"
    },
    {
      "channel": 5,
      "note": 62,
      "start": 27.3656,
      "duration": 0.2254,
      "velocity": 120,
      "chip": "ym2612"
    },
    {
      "channel": 4,
      "note": 70,
      "start": 27.4463,
      "duration": 0.0202,
      "velocity": 97,
      "chip": "ym2612"
    },
    {
      "channel": 4,
      "note": 63,
      "start": 27.4875,
      "duration": 0.0619,
      "velocity": 97,
      "chip": "ym2612"
    },
    {
      "channel": 4,
      "note": 63,
      "start": 27.5705,
      "duration": 0.0205,
      "velocity": 97,
      "chip": "ym2612"
    },
    {
      "channel": 0,
      "note": 72,
      "start": 27.6133,
      "duration": 0.2469,
      "velocity": 127,
      "chip": "ym2612"
    },
    {
      "channel": 4,
      "note": 68,
      "start": 27.6138,
      "duration": 0.0599,
      "velocity": 97,
      "chip": "ym2612"
    },
    {
      "channel": 5,
      "note": 65,
      "start": 27.6141,
      "duration": 0.2256,
      "velocity": 120,
      "chip": "ym2612"
    },
    {
      "channel": 4,
      "note": 68,
      "start": 27.6948,
      "duration": 0.0205,
      "velocity": 97,
      "chip": "ym2612"
    },
    {
      "channel": 4,
      "note": 61,
      "start": 27.7365,
      "duration": 0.0617,
      "velocity": 97,
      "chip": "ym2612"
    },
    {
      "channel": 4,
      "note": 61,
      "start": 27.8192,
      "duration": 0.0205,
      "velocity": 97,
      "chip": "ym2612"
    },
    {
      "channel": 0,
      "note": 39,
      "start": 27.8621,
      "duration": 0.1224,
      "velocity": 127,
      "chip": "ym2612"
    },
    {
      "channel": 1,
      "note": 52,
      "start": 27.8624,
      "duration": 0.7444,
      "velocity": 104,
      "chip": "ym2612"
    },
    {
      "channel": 4,
      "note": 87,
      "start": 27.863,
      "duration": 0.0597,
      "velocity": 97,
      "chip": "ym2612"
    },
    {
      "channel": 5,
      "note": 67,
      "start": 27.8633,
      "duration": 0.101,
      "velocity": 120,
      "chip": "ym2612"
    },
    {
      "channel": 4,
      "note": 87,
      "start": 27.9437,
      "duration": 0.0205,
      "velocity": 97,
      "chip": "ym2612"
    },
    {
      "channel": 0,
      "note": 53,
      "start": 27.9868,
      "duration": 0.1222,
      "velocity": 121,
      "chip": "ym2612"
    },
    {
      "channel": 4,
      "note": 80,
      "start": 27.9874,
      "duration": 0.0597,
      "velocity": 97,
      "chip": "ym2612"
    },
    {
      "channel": 5,
      "note": 67,
      "start": 27.9877,
      "duration": 0.1009,
      "velocity": 120,
      "chip": "ym2612"
    },
    {
      "channel": 4,
      "note": 80,
      "start": 28.068,
      "duration": 0.0205,
      "velocity": 97,
      "chip": "ym2612"
    },
    {
      "channel": 0,
      "note": 72,
      "start": 28.1109,
      "duration": 0.2469,
      "velocity": 127,
      "chip": "ym2612"
    },
    {
      "channel": 4,
      "note": 83,
      "start": 28.1115,
      "duration": 0.0599,
      "velocity": 97,
      "chip": "ym2612"
    },
    {
      "channel": 5,
      "note": 65,
      "start": 28.1118,
      "duration": 0.1012,
      "velocity": 120,
      "chip": "ym2612"
    },
    {
      "channel": 4,
      "note": 83,
      "start": 28.1924,
      "duration": 0.0205,
      "velocity": 97,
      "chip": "ym2612"
    },
    {
      "channel": 4,
      "note": 78,
      "start": 28.2339,
      "duration": 0.0622,
      "velocity": 97,
      "chip": "ym2612"
    },
    {
      "channel": 5,
      "note": 67,
      "start": 28.2342,
      "duration": 0.1032,
      "velocity": 120,
      "chip": "ym2612"
    },
    {
      "channel": 4,
      "note": 78,
      "start": 28.3169,
      "duration": 0.0204,
      "velocity": 97,
      "chip": "ym2612"
    },
    {
      "channel": 0,
      "note": 44,
      "start": 28.3598,
      "duration": 0.3298,
      "velocity": 127,
      "chip": "ym2612"
    },
    {
      "channel": 4,
      "note": 82,
      "start": 28.3603,
      "duration": 0.06,
      "velocity": 97,
      "chip": "ym2612"
    },
    {
      "channel": 5,
      "note": 67,
      "start": 28.3606,
      "duration": 0.1013,
      "velocity": 120,
      "chip": "ym2612"
    },
    {
      "channel": 4,
      "note": 82,
      "start": 28.4414,
      "duration": 0.0205,
      "velocity": 97,
      "chip": "ym2612"
    },
    {
      "channel": 4,
      "note": 75,
      "start": 28.4829,
      "duration": 0.0619,
      "velocity": 97,
      "chip": "ym2612"
    },
    {
      "channel": 4,
      "note": 75,
      "start": 28.5661,
      "duration": 0.0205,
      "velocity": 97,
      "chip": "ym2612"
    },
    {
      "channel": 1,
      "note": 54,
      "start": 28.607,
      "duration": 0.7482,
      "velocity": 104,
      "chip": "ym2612"
    },
    {
      "channel": 4,
      "note": 80,
      "start": 28.6076,
      "duration": 0.0617,
      "velocity": 97,
      "chip": "ym2612"
    },
    {
      "channel": 5,
      "note": 60,
      "start": 28.6078,
      "duration": 0.1031,
      "velocity": 120,
      "chip": "ym2612"
    },
    {
      "channel": 4,
      "note": 80,
      "start": 28.6903,
      "duration": 0.0205,
      "velocity": 97,
      "chip": "ym2612"
    },
    {
      "channel": 0,
      "note": 44,
      "start": 28.7313,
      "duration": 0.0827,
      "velocity": 127,
      "chip": "ym2612"
    },
    {
      "channel": 4,
      "note": 73,
      "start": 28.7319,
      "duration": 0.0618,
      "velocity": 97,
      "chip": "ym2612"
    },
    {
      "channel": 4,
      "note": 73,
      "start": 28.8147,
      "duration": 0.0205,
      "velocity": 97,
      "chip": "ym2612"
    },
    {
      "channel": 0,
      "note": 53,
      "start": 28.8577,
      "duration": 0.1222,
      "velocity": 121,
      "chip": "ym2612"
    },
    {
      "channel": 2,
      "note": 90,
      "start": 28.8579,
      "duration": 0.3502,
      "velocity": 90,
      "chip": "ym2612"
    },
    {
      "channel": 4,
      "note": 75,
      "start": 28.8584,
      "duration": 0.0595,
      "velocity": 97,
      "chip": "ym2612"
    },
    {
      "channel": 5,
      "note": 62,
      "start": 28.8587,
      "duration": 0.2254,
      "velocity": 120,
      "chip": "ym2612"
    },
    {
      "channel": 4,
      "note": 75,
      "start": 28.939,
      "duration": 0.0204,
      "velocity": 97,
      "chip": "ym2612"
    },
    {
      "channel": 0,
      "note": 44,
      "start": 28.9819,
      "duration": 0.081,
      "velocity": 127,
      "chip": "ym2612"
    },
    {
      "channel": 4,
      "note": 68,
      "start": 28.9825,
      "duration": 0.0599,
      "velocity": 97,
      "chip": "ym2612"
    },
    {
      "channel": 4,
      "note": 68,
      "start": 29.0635,
      "duration": 0.0205,
      "velocity": 97,
      "chip": "ym2612"
    },
    {
      "channel": 0,
      "note": 39,
      "start": 29.1065,
      "duration": 0.2052,
      "velocity": 127,
      "chip": "ym2612"
    },
    {
      "channel": 4,
      "note": 71,
      "start": 29.1071,
      "duration": 0.0598,
      "velocity": 97,
      "chip": "ym2612"
    },
    {
      "channel": 5,
      "note": 60,
      "start": 29.1074,
      "duration": 0.2255,
      "velocity": 120,
      "chip": "ym2612"
    },
    {
      "channel": 4,
      "note": 71,
      "start": 29.1879,
      "duration": 0.0205,
      "velocity": 97,
      "chip": "ym2612"
    },
    {
      "channel": 2,
      "note": 93,
      "start": 29.2291,
      "duration": 0.3523,
      "velocity": 90,
      "chip": "ym2612"
    },
    {
      "channel": 3,
      "note": 90,
      "start": 29.2293,
      "duration": 0.3522,
      "velocity": 90,
      "chip": "ym2612"
    },
    {
      "channel": 4,
      "note": 66,
      "start": 29.2297,
      "duration": 0.0616,
      "velocity": 97,
      "chip": "ym2612"
    },
    {
      "channel": 4,
      "note": 66,
      "start": 29.3124,
      "duration": 0.0205,
      "velocity": 97,
      "chip": "ym2612"
    },
    {
      "channel": 0,
      "note": 44,
      "start": 29.3551,
      "duration": 0.2054,
      "velocity": 127,
      "chip": "ym2612"
    },
    {
      "channel": 1,
      "note": 56,
      "start": 29.3554,
      "duration": 0.4974,
      "velocity": 104,
      "chip": "ym2612"
    },
    {
      "channel": 4,
      "note": 70,
      "start": 29.3564,
      "duration": 0.0593,
      "velocity": 97,
      "chip": "ym2612"
    },
    {
      "channel": 5,
      "note": 62,
      "start": 29.3567,
      "duration": 0.2251,
      "velocity": 120,
      "chip": "ym2612"
    },
    {
      "channel": 4,
      "note": 70,
      "start": 29.4368,
      "duration": 0.0204,
      "velocity": 97,
      "chip": "ym2612"
    },
    {
      "channel": 4,
      "note": 63,
      "start": 29.4782,
      "duration": 0.0619,
      "velocity": 97,
      "chip": "ym2612"
    },
    {
      "channel": 4,
      "note": 63,
      "start": 29.5612,
      "duration": 0.0206,
      "velocity": 97,
      "chip": "ym2612"
    },
    {
      "channel": 0,
      "note": 72,
      "start": 29.6039,
      "duration": 0.2468,
      "velocity": 127,
      "chip": "ym2612"
    },
    {
      "channel": 2,
      "note": 94,
      "start": 29.6042,
      "duration": 0.2259,
      "velocity": 90,
      "chip": "ym2612"
    },
    {
      "channel": 3,
      "note": 93,
      "start": 29.6045,
      "duration": 0.3502,
      "velocity": 90,
      "chip": "ym2612"
    },
    {
      "channel": 4,
      "note": 68,
      "start": 29.6049,
      "duration": 0.0596,
      "velocity": 97,
      "chip": "ym2612"
    },
    {
      "channel": 5,
      "note": 65,
      "start": 29.6051,
      "duration": 0.2253,
      "velocity": 120,
      "chip": "ym2612"
    },
    {
      "channel": 4,
      "note": 68,
      "start": 29.6854,
      "duration": 0.0207,
      "velocity": 97,
      "chip": "ym2612"
    },
    {
      "channel": 4,
      "note": 61,
      "start": 29.7269,
      "duration": 0.062,
      "velocity": 97,
      "chip": "ym2612"
    },
    {
      "channel": 4,
      "note": 61,
      "start": 29.8098,
      "duration": 0.0205,
      "velocity": 97,
      "chip": "ym2612"
    },
    {
      "channel": 0,
      "note": 39,
      "start": 29.8528,
      "duration": 0.1224,
      "velocity": 127,
      "chip": "ym2612"
    },
    {
      "channel": 1,
      "note": 51,
      "start": 29.853,
      "duration": 0.7444,
      "velocity": 104,
      "chip": "ym2612"
    },
    {
      "channel": 2,
      "note": 95,
      "start": 29.8533,
      "duration": 0.7234,
      "velocity": 90,
      "chip": "ym2612"
    },
    {
      "channel": 4,
      "note": 87,
      "start": 29.8538,
      "duration": 0.0595,
      "velocity": 97,
      "chip": "ym2612"
    },
    {
      "channel": 5,
      "note": 67,
      "start": 29.8541,
      "duration": 0.1008,
      "velocity": 120,
      "chip": "ym2612"
    },
    {
      "channel": 4,
      "note": 87,
      "start": 29.9344,
      "duration": 0.0205,
      "velocity": 97,
      "chip": "ym2612"
    },
    {
      "channel": 0,
      "note": 53,
      "start": 29.9774,
      "duration": 0.1222,
      "velocity": 121,
      "chip": "ym2612"
    },
    {
      "channel": 3,
      "note": 94,
      "start": 29.9779,
      "duration": 0.2255,
      "velocity": 90,
      "chip": "ym2612"
    },
    {
      "channel": 4,
      "note": 80,
      "start": 29.9783,
      "duration": 0.0594,
      "velocity": 97,
      "chip": "ym2612"
    },
    {
      "channel": 5,
      "note": 67,
      "start": 29.9786,
      "duration": 0.1006,
      "velocity": 120,
      "chip": "ym2612"
    },
    {
      "channel": 4,
      "note": 80,
      "start": 30.0587,
      "duration": 0.0205,
      "velocity": 97,
      "chip": "ym2612"
    },
    {
      "channel": 0,
      "note": 72,
      "start": 30.1016,
      "duration": 0.2469,
      "velocity": 127,
      "chip": "ym2612"
    },
    {
      "channel": 4,
      "note": 83,
      "start": 30.1022,
      "duration": 0.0599,
      "velocity": 97,
      "chip": "ym2612"
    },
    {
      "channel": 5,
      "note": 65,
      "start": 30.1024,
      "duration": 0.1012,
      "velocity": 120,
      "chip": "ym2612"
    },
    {
      "channel": 4,
      "note": 83,
      "start": 30.1831,
      "duration": 0.0205,
      "velocity": 97,
      "chip": "ym2612"
    },
    {
      "channel": 3,
      "note": 95,
      "start": 30.2244,
      "duration": 0.7255,
      "velocity": 90,
      "chip": "ym2612"
    },
    {
      "channel": 4,
      "note": 78,
      "start": 30.2247,
      "duration": 0.0618,
      "velocity": 97,
      "chip": "ym2612"
    },
    {
      "channel": 5,
      "note": 67,
      "start": 30.225,
      "duration": 0.103,
      "velocity": 120,
      "chip": "ym2612"
    },
    {
      "channel": 4,
      "note": 78,
      "start": 30.3075,
      "duration": 0.0205,
      "velocity": 97,
      "chip": "ym2612"
    },
    {
      "channel": 0,
      "note": 44,
      "start": 30.3504,
      "duration": 0.3298,
      "velocity": 127,
      "chip": "ym2612"
    },
    {
      "channel": 4,
      "note": 82,
      "start": 30.3512,
      "duration": 0.0599,
      "velocity": 97,
      "chip": "ym2612"
    },
    {
      "channel": 5,
      "note": 67,
      "start": 30.3515,
      "duration": 0.1011,
      "velocity": 120,
      "chip": "ym2612"
    },
    {
      "channel": 4,
      "note": 82,
      "start": 30.432,
      "duration": 0.0205,
      "velocity": 97,
      "chip": "ym2612"
    },
    {
      "channel": 4,
      "note": 75,
      "start": 30.4735,
      "duration": 0.0619,
      "velocity": 97,
      "chip": "ym2612"
    },
    {
      "channel": 4,
      "note": 75,
      "start": 30.5567,
      "duration": 0.0202,
      "velocity": 97,
      "chip": "ym2612"
    },
    {
      "channel": 1,
      "note": 53,
      "start": 30.5976,
      "duration": 0.7484,
      "velocity": 104,
      "chip": "ym2612"
    },
    {
      "channel": 2,
      "note": 97,
      "start": 30.5979,
      "duration": 1.223,
      "velocity": 90,
      "chip": "ym2612"
    },
    {
      "channel": 4,
      "note": 80,
      "start": 30.5984,
      "duration": 0.0615,
      "velocity": 97,
      "chip": "ym2612"
    },
    {
      "channel": 5,
      "note": 67,
      "start": 30.5986,
      "duration": 0.1028,
      "velocity": 120,
      "chip": "ym2612"
    },
    {
      "channel": 4,
      "note": 80,
      "start": 30.6809,
      "duration": 0.0205,
      "velocity": 97,
      "chip": "ym2612"
    },
    {
      "channel": 0,
      "note": 44,
      "start": 30.722,
      "duration": 0.0827,
      "velocity": 127,
      "chip": "ym2612"
    },
    {
      "channel": 4,
      "note": 73,
      "start": 30.7226,
      "duration": 0.0617,
      "velocity": 97,
      "chip": "ym2612"
    },
    {
      "channel": 4,
      "note": 73,
      "start": 30.8054,
      "duration": 0.0207,
      "velocity": 97,
      "chip": "ym2612"
    },
    {
      "channel": 0,
      "note": 53,
      "start": 30.8481,
      "duration": 0.1224,
      "velocity": 121,
      "chip": "ym2612"
    },
    {
      "channel": 4,
      "note": 75,
      "start": 30.8489,
      "duration": 0.0597,
      "velocity": 97,
      "chip": "ym2612"
    },
    {
      "channel": 5,
      "note": 70,
      "start": 30.8491,
      "duration": 0.2256,
      "velocity": 120,
      "chip": "ym2612"
    },
    {
      "channel": 4,
      "note": 75,
      "start": 30.9296,
      "duration": 0.0205,
      "velocity": 97,
      "chip": "ym2612"
    },
    {
      "channel": 0,
      "note": 44,
      "start": 30.9725,
      "duration": 0.081,
      "velocity": 127,
      "chip": "ym2612"
    },
    {
      "channel": 3,
      "note": 97,
      "start": 30.9729,
      "duration": 1.2212,
      "velocity": 90,
      "chip": "ym2612"
    },
    {
      "channel": 4,
      "note": 68,
      "start": 30.9733,
      "duration": 0.0598,
      "velocity": 97,
      "chip": "ym2612"
    },
    {
      "channel": 4,
      "note": 68,
      "start": 31.0542,
      "duration": 0.0205,
      "velocity": 97,
      "chip": "ym2612"
    },
    {
      "channel": 0,
      "note": 39,
      "start": 31.0972,
      "duration": 0.2051,
      "velocity": 127,
      "chip": "ym2612"
    },
    {
      "channel": 4,
      "note": 71,
      "start": 31.0977,
      "duration": 0.0598,
      "velocity": 97,
      "chip": "ym2612"
    },
    {
      "channel": 5,
      "note": 69,
      "start": 31.098,
      "duration": 0.2255,
      "velocity": 120,
      "chip": "ym2612"
    },
    {
      "channel": 4,
      "note": 71,
      "start": 31.1785,
      "duration": 0.0205,
      "velocity": 97,
      "chip": "ym2612"
    },
    {
      "channel": 4,
      "note": 66,
      "start": 31.2202,
      "duration": 0.0618,
      "velocity": 97,
      "chip": "ym2612"
    },
    {
      "channel": 4,
      "note": 66,
      "start": 31.303,
      "duration": 0.0205,
      "velocity": 97,
      "chip": "ym2612"
    },
    {
      "channel": 0,
      "note": 44,
      "start": 31.3458,
      "duration": 0.081,
      "velocity": 127,
      "chip": "ym2612"
    },
    {
      "channel": 1,
      "note": 55,
      "start": 31.3463,
      "duration": 0.4972,
      "velocity": 104,
      "chip": "ym2612"
    },
    {
      "channel": 4,
      "note": 70,
      "start": 31.3469,
      "duration": 0.0597,
      "velocity": 97,
      "chip": "ym2612"
    },
    {
      "channel": 5,
      "note": 60,
      "start": 31.3472,
      "duration": 0.2252,
      "velocity": 120,
      "chip": "ym2612"
    },
    {
      "channel": 4,
      "note": 70,
      "start": 31.4274,
      "duration": 0.0205,
      "velocity": 97,
      "chip": "ym2612"
    },
    {
      "channel": 0,
      "note": 44,
      "start": 31.4685,
      "duration": 0.0827,
      "velocity": 127,
      "chip": "ym2612"
    },
    {
      "channel": 4,
      "note": 63,
      "start": 31.469,
      "duration": 0.0617,
      "velocity": 97,
      "chip": "ym2612"
    },
    {
      "channel": 4,
      "note": 63,
      "start": 31.5518,
      "duration": 0.0205,
      "velocity": 97,
      "chip": "ym2612"
    },
    {
      "channel": 0,
      "note": 40,
      "start": 31.5946,
      "duration": 0.2261,
      "velocity": 91,
      "chip": "ym2612"
    },
    {
      "channel": 4,
      "note": 68,
      "start": 31.5951,
      "duration": 0.06,
      "velocity": 97,
      "chip": "ym2612"
    },
    {
      "channel": 5,
      "note": 62,
      "start": 31.5954,
      "duration": 0.2258,
      "velocity": 120,
      "chip": "ym2612"
    },
    {
      "channel": 4,
      "note": 68,
      "start": 31.6765,
      "duration": 0.0202,
      "velocity": 97,
      "chip": "ym2612"
    },
    {
      "channel": 4,
      "note": 61,
      "start": 31.7177,
      "duration": 0.062,
      "velocity": 97,
      "chip": "ym2612"
    },
    {
      "channel": 4,
      "note": 61,
      "start": 31.8006,
      "duration": 0.0206,
      "velocity": 97,
      "chip": "ym2612"
    },
    {
      "channel": 0,
      "note": 32,
      "start": 31.8434,
      "duration": 0.2469,
      "velocity": 127,
      "chip": "ym2612"
    },
    {
      "channel": 1,
      "note": 49,
      "start": 31.8437,
      "duration": 0.7444,
      "velocity": 104,
      "chip": "ym2612"
    },
    {
      "channel": 2,
      "note": 88,
      "start": 31.8457,
      "duration": 0.7216,
      "velocity": 101,
      "chip": "ym2612"
    },
    {
      "channel": 4,
      "note": 40,
      "start": 31.8481,
      "duration": 1.9635,
      "velocity": 92,
      "chip": "ym2612"
    },
    {
      "channel": 5,
      "note": 35,
      "start": 31.8502,
      "duration": 1.9617,
      "velocity": 92,
      "chip": "ym2612"
    },
    {
      "channel": 0,
      "note": 72,
      "start": 32.0922,
      "duration": 0.2469,
      "velocity": 127,
      "chip": "ym2612"
    },
    {
      "channel": 3,
      "note": 88,
      "start": 32.217,
      "duration": 0.7236,
      "velocity": 101,
      "chip": "ym2612"
    },
    {
      "channel": 0,
      "note": 44,
      "start": 32.3411,
      "duration": 0.3298,
      "velocity": 127,
      "chip": "ym2612"
    },
    {
      "channel": 1,
      "note": 49,
      "start": 32.5883,
      "duration": 0.7485,
      "velocity": 104,
      "chip": "ym2612"
    },
    {
      "channel": 2,
      "note": 88,
      "start": 32.5887,
      "duration": 0.7251,
      "velocity": 101,
      "chip": "ym2612"
    },
    {
      "channel": 0,
      "note": 44,
      "start": 32.7127,
      "duration": 0.0827,
      "velocity": 127,
      "chip": "ym2612"
    },
    {
      "channel": 0,
      "note": 53,
      "start": 32.8388,
      "duration": 0.1224,
      "velocity": 121,
      "chip": "ym2612"
    },
    {
      "channel": 0,
      "note": 53,
      "start": 32.9615,
      "duration": 0.1241,
      "velocity": 121,
      "chip": "ym2612"
    },
    {
      "channel": 3,
      "note": 88,
      "start": 32.962,
      "duration": 0.7251,
      "velocity": 101,
      "chip": "ym2612"
    },
    {
      "channel": 0,
      "note": 39,
      "start": 33.0879,
      "duration": 0.2466,
      "velocity": 127,
      "chip": "ym2612"
    },
    {
      "channel": 0,
      "note": 44,
      "start": 33.3367,
      "duration": 0.2051,
      "velocity": 127,
      "chip": "ym2612"
    },
    {
      "channel": 1,
      "note": 52,
      "start": 33.337,
      "duration": 0.4971,
      "velocity": 104,
      "chip": "ym2612"
    },
    {
      "channel": 2,
      "note": 87,
      "start": 33.3373,
      "duration": 0.474,
      "velocity": 101,
      "chip": "ym2612"
    },
    {
      "channel": 0,
      "note": 72,
      "start": 33.5852,
      "duration": 0.2469,
      "velocity": 127,
      "chip": "ym2612"
    },
    {
      "channel": 3,
      "note": 87,
      "start": 33.7081,
      "duration": 0.4766,
      "velocity": 101,
      "chip": "ym2612"
    },
    {
      "channel": 0,
      "note": 39,
      "start": 33.8341,
      "duration": 0.1225,
      "velocity": 127,
      "chip": "ym2612"
    },
    {
      "channel": 1,
      "note": 54,
      "start": 33.8344,
      "duration": 0.7444,
      "velocity": 104,
      "chip": "ym2612"
    },
    {
      "channel": 2,
      "note": 85,
      "start": 33.8347,
      "duration": 0.7233,
      "velocity": 101,
      "chip": "ym2612"
    },
    {
      "channel": 4,
      "note": 42,
      "start": 33.8352,
      "duration": 1.4697,
      "velocity": 92,
      "chip": "ym2612"
    },
    {
      "channel": 5,
      "note": 37,
      "start": 33.8355,
      "duration": 1.4695,
      "velocity": 92,
      "chip": "ym2612"
    },
    {
      "channel": 0,
      "note": 53,
      "start": 33.9585,
      "duration": 0.1225,
      "velocity": 121,
      "chip": "ym2612"
    },
    {
      "channel": 0,
      "note": 72,
      "start": 34.0829,
      "duration": 0.2469,
      "velocity": 127,
      "chip": "ym2612"
    },
    {
      "channel": 3,
      "note": 85,
      "start": 34.2061,
      "duration": 0.7252,
      "velocity": 101,
      "chip": "ym2612"
    },
    {
      "channel": 0,
      "note": 44,
      "start": 34.3317,
      "duration": 0.3298,
      "velocity": 127,
      "chip": "ym2612"
    },
    {
      "channel": 1,
      "note": 54,
      "start": 34.579,
      "duration": 0.7484,
      "velocity": 104,
      "chip": "ym2612"
    },
    {
      "channel": 2,
      "note": 82,
      "start": 34.5793,
      "duration": 0.4764,
      "velocity": 101,
      "chip": "ym2612"
    },
    {
      "channel": 0,
      "note": 44,
      "start": 34.7034,
      "duration": 0.0828,
      "velocity": 127,
      "chip": "ym2612"
    },
    {
      "channel": 0,
      "note": 53,
      "start": 34.8294,
      "duration": 0.1225,
      "velocity": 121,
      "chip": "ym2612"
    },
    {
      "channel": 0,
      "note": 44,
      "start": 34.9539,
      "duration": 0.081,
      "velocity": 127,
      "chip": "ym2612"
    },
    {
      "channel": 3,
      "note": 82,
      "start": 34.9544,
      "duration": 0.4747,
      "velocity": 101,
      "chip": "ym2612"
    },
    {
      "channel": 0,
      "note": 39,
      "start": 35.0782,
      "duration": 0.2054,
      "velocity": 127,
      "chip": "ym2612"
    },
    {
      "channel": 2,
      "note": 83,
      "start": 35.0786,
      "duration": 0.2259,
      "velocity": 101,
      "chip": "ym2612"
    },
    {
      "channel": 0,
      "note": 44,
      "start": 35.3273,
      "duration": 0.2052,
      "velocity": 127,
      "chip": "ym2612"
    },
    {
      "channel": 1,
      "note": 52,
      "start": 35.3276,
      "duration": 0.4972,
      "velocity": 104,
      "chip": "ym2612"
    },
    {
      "channel": 2,
      "note": 85,
      "start": 35.328,
      "duration": 1.2207,
      "velocity": 101,
      "chip": "ym2612"
    },
    {
      "channel": 4,
      "note": 40,
      "start": 35.3284,
      "duration": 0.4739,
      "velocity": 92,
      "chip": "ym2612"
    },
    {
      "channel": 5,
      "note": 35,
      "start": 35.3288,
      "duration": 0.4737,
      "velocity": 92,
      "chip": "ym2612"
    },
    {
      "channel": 3,
      "note": 83,
      "start": 35.4501,
      "duration": 0.2277,
      "velocity": 101,
      "chip": "ym2612"
    },
    {
      "channel": 0,
      "note": 72,
      "start": 35.5761,
      "duration": 0.2466,
      "velocity": 127,
      "chip": "ym2612"
    },
    {
      "channel": 3,
      "note": 85,
      "start": 35.6988,
      "duration": 1.2231,
      "velocity": 101,
      "chip": "ym2612"
    },
    {
      "channel": 0,
      "note": 39,
      "start": 35.8247,
      "duration": 0.1225,
      "velocity": 127,
      "chip": "ym2612"
    },
    {
      "channel": 1,
      "note": 51,
      "start": 35.825,
      "duration": 0.7444,
      "velocity": 104,
      "chip": "ym2612"
    },
    {
      "channel": 4,
      "note": 39,
      "start": 35.8256,
      "duration": 0.9722,
      "velocity": 92,
      "chip": "ym2612"
    },
    {
      "channel": 5,
      "note": 34,
      "start": 35.8261,
      "duration": 0.9718,
      "velocity": 92,
      "chip": "ym2612"
    },
    {
      "channel": 0,
      "note": 53,
      "start": 35.9491,
      "duration": 0.1225,
      "velocity": 121,
      "chip": "ym2612"
    },
    {
      "channel": 0,
      "note": 72,
      "start": 36.0736,
      "duration": 0.2469,
      "velocity": 127,
      "chip": "ym2612"
    },
    {
      "channel": 0,
      "note": 44,
      "start": 36.3224,
      "duration": 0.3298,
      "velocity": 127,
      "chip": "ym2612"
    },
    {
      "channel": 1,
      "note": 51,
      "start": 36.5696,
      "duration": 0.7485,
      "velocity": 104,
      "chip": "ym2612"
    },
    {
      "channel": 2,
      "note": 82,
      "start": 36.57,
      "duration": 0.1031,
      "velocity": 101,
      "chip": "ym2612"
    },
    {
      "channel": 0,
      "note": 44,
      "start": 36.694,
      "duration": 0.0827,
      "velocity": 127,
      "chip": "ym2612"
    },
    {
      "channel": 2,
      "note": 83,
      "start": 36.6944,
      "duration": 0.1032,
      "velocity": 101,
      "chip": "ym2612"
    },
    {
      "channel": 0,
      "note": 53,
      "start": 36.8201,
      "duration": 0.1224,
      "velocity": 121,
      "chip": "ym2612"
    },
    {
      "channel": 2,
      "note": 87,
      "start": 36.8205,
      "duration": 0.2259,
      "velocity": 101,
      "chip": "ym2612"
    },
    {
      "channel": 4,
      "note": 39,
      "start": 36.8209,
      "duration": 0.2258,
      "velocity": 92,
      "chip": "ym2612"
    },
    {
      "channel": 5,
      "note": 34,
      "start": 36.8213,
      "duration": 0.2256,
      "velocity": 92,
      "chip": "ym2612"
    },
    {
      "channel": 0,
      "note": 44,
      "start": 36.9445,
      "duration": 0.081,
      "velocity": 127,
      "chip": "ym2612"
    },
    {
      "channel": 3,
      "note": 82,
      "start": 36.945,
      "duration": 0.1015,
      "velocity": 101,
      "chip": "ym2612"
    },
    {
      "channel": 0,
      "note": 39,
      "start": 37.0689,
      "duration": 0.2054,
      "velocity": 127,
      "chip": "ym2612"
    },
    {
      "channel": 2,
      "note": 85,
      "start": 37.0693,
      "duration": 0.2259,
      "velocity": 101,
      "chip": "ym2612"
    },
    {
      "channel": 3,
      "note": 83,
      "start": 37.0697,
      "duration": 0.1012,
      "velocity": 101,
      "chip": "ym2612"
    },
    {
      "channel": 4,
      "note": 43,
      "start": 37.07,
      "duration": 0.2255,
      "velocity": 92,
      "chip": "ym2612"
    },
    {
      "channel": 5,
      "note": 39,
      "start": 37.0703,
      "duration": 0.2253,
      "velocity": 92,
      "chip": "ym2612"
    },
    {
      "channel": 3,
      "note": 87,
      "start": 37.1919,
      "duration": 0.2278,
      "velocity": 101,
      "chip": "ym2612"
    },
    {
      "channel": 0,
      "note": 44,
      "start": 37.318,
      "duration": 0.2051,
      "velocity": 127,
      "chip": "ym2612"
    },
    {
      "channel": 1,
      "note": 55,
      "start": 37.3183,
      "duration": 0.4971,
      "velocity": 104,
      "chip": "ym2612"
    },
    {
      "channel": 2,
      "note": 83,
      "start": 37.3187,
      "duration": 0.2254,
      "velocity": 101,
      "chip": "ym2612"
    },
    {
      "channel": 4,
      "note": 46,
      "start": 37.3191,
      "duration": 0.2252,
      "velocity": 92,
      "chip": "ym2612"
    },
    {
      "channel": 5,
      "note": 43,
      "start": 37.3195,
      "duration": 0.225,
      "velocity": 92,
      "chip": "ym2612"
    },
    {
      "channel": 3,
      "note": 85,
      "start": 37.4407,
      "duration": 0.2277,
      "velocity": 101,
      "chip": "ym2612"
    },
    {
      "channel": 0,
      "note": 72,
      "start": 37.5668,
      "duration": 0.2466,
      "velocity": 127,
      "chip": "ym2612"
    },
    {
      "channel": 2,
      "note": 82,
      "start": 37.5672,
      "duration": 0.2255,
      "velocity": 101,
      "chip": "ym2612"
    },
    {
      "channel": 4,
      "note": 49,
      "start": 37.5676,
      "duration": 0.2254,
      "velocity": 92,
      "chip": "ym2612"
    },
    {
      "channel": 5,
      "note": 46,
      "start": 37.568,
      "duration": 0.2252,
      "velocity": 92,
      "chip": "ym2612"
    },
    {
      "channel": 3,
      "note": 83,
      "start": 37.6895,
      "duration": 0.2279,
      "velocity": 101,
      "chip": "ym2612"
    },
    {
      "channel": 0,
      "note": 39,
      "start": 37.8154,
      "duration": 0.1225,
      "velocity": 127,
      "chip": "ym2612"
    },
    {
      "channel": 1,
      "note": 56,
      "start": 37.8157,
      "duration": 0.7444,
      "velocity": 104,
      "chip": "ym2612"
    },
    {
      "channel": 2,
      "note": 83,
      "start": 37.8163,
      "duration": 1.9672,
      "velocity": 101,
      "chip": "ym2612"
    },
    {
      "channel": 4,
      "note": 51,
      "start": 37.8167,
      "duration": 0.3497,
      "velocity": 92,
      "chip": "ym2612"
    },
    {
      "channel": 5,
      "note": 47,
      "start": 37.8171,
      "duration": 0.3495,
      "velocity": 92,
      "chip": "ym2612"
    },
    {
      "channel": 0,
      "note": 53,
      "start": 37.9398,
      "duration": 0.1225,
      "velocity": 121,
      "chip": "ym2612"
    },
    {
      "channel": 3,
      "note": 82,
      "start": 37.9403,
      "duration": 0.226,
      "velocity": 101,
      "chip": "ym2612"
    },
    {
      "channel": 0,
      "note": 72,
      "start": 38.0642,
      "duration": 0.2469,
      "velocity": 127,
      "chip": "ym2612"
    },
    {
      "channel": 3,
      "note": 83,
      "start": 38.1871,
      "duration": 1.9697,
      "velocity": 101,
      "chip": "ym2612"
    },
    {
      "channel": 4,
      "note": 49,
      "start": 38.1875,
      "duration": 0.3521,
      "velocity": 92,
      "chip": "ym2612"
    },
    {
      "channel": 5,
      "note": 46,
      "start": 38.1878,
      "duration": 0.3519,
      "velocity": 92,
      "chip": "ym2612"
    },
    {
      "channel": 0,
      "note": 44,
      "start": 38.313,
      "duration": 0.3298,
      "velocity": 127,
      "chip": "ym2612"
    },
    {
      "channel": 1,
      "note": 56,
      "start": 38.5603,
      "duration": 0.7482,
      "velocity": 104,
      "chip": "ym2612"
    },
    {
      "channel": 4,
      "note": 47,
      "start": 38.5608,
      "duration": 0.2276,
      "velocity": 92,
      "chip": "ym2612"
    },
    {
      "channel": 5,
      "note": 44,
      "start": 38.5612,
      "duration": 0.2274,
      "velocity": 92,
      "chip": "ym2612"
    },
    {
      "channel": 0,
      "note": 44,
      "start": 38.6846,
      "duration": 0.0827,
      "velocity": 127,
      "chip": "ym2612"
    },
    {
      "channel": 0,
      "note": 53,
      "start": 38.8107,
      "duration": 0.1225,
      "velocity": 121,
      "chip": "ym2612"
    },
    {
      "channel": 4,
      "note": 44,
      "start": 38.8113,
      "duration": 0.3503,
      "velocity": 92,
      "chip": "ym2612"
    },
    {
      "channel": 5,
      "note": 39,
      "start": 38.8116,
      "duration": 0.3502,
      "velocity": 92,
      "chip": "ym2612"
    },
    {
      "channel": 0,
      "note": 44,
      "start": 38.9351,
      "duration": 0.081,
      "velocity": 127,
      "chip": "ym2612"
    },
    {
      "channel": 0,
      "note": 39,
      "start": 39.0595,
      "duration": 0.2054,
      "velocity": 127,
      "chip": "ym2612"
    },
    {
      "channel": 4,
      "note": 46,
      "start": 39.1826,
      "duration": 0.3523,
      "velocity": 92,
      "chip": "ym2612"
    },
    {
      "channel": 5,
      "note": 42,
      "start": 39.183,
      "duration": 0.3521,
      "velocity": 92,
      "chip": "ym2612"
    },
    {
      "channel": 0,
      "note": 44,
      "start": 39.3084,
      "duration": 0.081,
      "velocity": 127,
      "chip": "ym2612"
    },
    {
      "channel": 1,
      "note": 54,
      "start": 39.3087,
      "duration": 0.4977,
      "velocity": 104,
      "chip": "ym2612"
    },
    {
      "channel": 0,
      "note": 44,
      "start": 39.4311,
      "duration": 0.0827,
      "velocity": 127,
      "chip": "ym2612"
    },
    {
      "channel": 0,
      "note": 40,
      "start": 39.5575,
      "duration": 0.2259,
      "velocity": 91,
      "chip": "ym2612"
    },
    {
      "channel": 4,
      "note": 47,
      "start": 39.558,
      "duration": 0.2258,
      "velocity": 92,
      "chip": "ym2612"
    },
    {
      "channel": 5,
      "note": 44,
      "start": 39.5584,
      "duration": 0.2256,
      "velocity": 92,
      "chip": "ym2612"
    },
    {
      "channel": 0,
      "note": 32,
      "start": 39.8063,
      "duration": 0.2466,
      "velocity": 127,
      "chip": "ym2612"
    },
    {
      "channel": 1,
      "note": 53,
      "start": 39.8066,
      "duration": 0.7442,
      "velocity": 104,
      "chip": "ym2612"
    },
    {
      "channel": 2,
      "note": 80,
      "start": 39.8069,
      "duration": 0.3497,
      "velocity": 101,
      "chip": "ym2612"
    },
    {
      "channel": 4,
      "note": 51,
      "start": 39.8074,
      "duration": 1.9669,
      "velocity": 92,
      "chip": "ym2612"
    },
    {
      "channel": 5,
      "note": 47,
      "start": 39.8077,
      "duration": 1.9667,
      "velocity": 92,
      "chip": "ym2612"
    },
    {
      "channel": 0,
      "note": 72,
      "start": 40.0549,
      "duration": 0.2468,
      "velocity": 127,
      "chip": "ym2612"
    },
    {
      "channel": 2,
      "note": 82,
      "start": 40.1777,
      "duration": 0.3523,
      "velocity": 101,
      "chip": "ym2612"
    },
    {
      "channel": 3,
      "note": 80,
      "start": 40.178,
      "duration": 0.3521,
      "velocity": 101,
      "chip": "ym2612"
    },
    {
      "channel": 0,
      "note": 44,
      "start": 40.3037,
      "duration": 0.3298,
      "velocity": 127,
      "chip": "ym2612"
    },
    {
      "channel": 1,
      "note": 53,
      "start": 40.551,
      "duration": 0.7481,
      "velocity": 104,
      "chip": "ym2612"
    },
    {
      "channel": 2,
      "note": 83,
      "start": 40.5514,
      "duration": 0.2275,
      "velocity": 101,
      "chip": "ym2612"
    },
    {
      "channel": 3,
      "note": 82,
      "start": 40.5517,
      "duration": 0.3515,
      "velocity": 101,
      "chip": "ym2612"
    },
    {
      "channel": 0,
      "note": 44,
      "start": 40.6753,
      "duration": 0.0827,
      "velocity": 127,
      "chip": "ym2612"
    },
    {
      "channel": 0,
      "note": 53,
      "start": 40.8014,
      "duration": 0.1225,
      "velocity": 121,
      "chip": "ym2612"
    },
    {
      "channel": 2,
      "note": 83,
      "start": 40.8017,
      "duration": 0.3503,
      "velocity": 101,
      "chip": "ym2612"
    },
    {
      "channel": 0,
      "note": 53,
      "start": 40.9241,
      "duration": 0.1241,
      "velocity": 121,
      "chip": "ym2612"
    },
    {
      "channel": 3,
      "note": 83,
      "start": 40.9246,
      "duration": 0.2276,
      "velocity": 101,
      "chip": "ym2612"
    },
    {
      "channel": 0,
      "note": 39,
      "start": 41.0502,
      "duration": 0.2469,
      "velocity": 127,
      "chip": "ym2612"
    },
    {
      "channel": 2,
      "note": 82,
      "start": 41.1731,
      "duration": 0.3522,
      "velocity": 101,
      "chip": "ym2612"
    },
    {
      "channel": 3,
      "note": 83,
      "start": 41.1735,
      "duration": 0.352,
      "velocity": 101,
      "chip": "ym2612"
    },
    {
      "channel": 0,
      "note": 44,
      "start": 41.299,
      "duration": 0.2054,
      "velocity": 127,
      "chip": "ym2612"
    },
    {
      "channel": 1,
      "note": 53,
      "start": 41.2993,
      "duration": 0.4977,
      "velocity": 104,
      "chip": "ym2612"
    },
    {
      "channel": 0,
      "note": 72,
      "start": 41.5481,
      "duration": 0.2466,
      "velocity": 127,
      "chip": "ym2612"
    },
    {
      "channel": 2,
      "note": 80,
      "start": 41.5485,
      "duration": 0.2255,
      "velocity": 101,
      "chip": "ym2612"
    },
    {
      "channel": 3,
      "note": 82,
      "start": 41.5488,
      "duration": 0.3498,
      "velocity": 101,
      "chip": "ym2612"
    },
    {
      "channel": 0,
      "note": 39,
      "start": 41.7969,
      "duration": 0.1222,
      "velocity": 127,
      "chip": "ym2612"
    },
    {
      "channel": 1,
      "note": 52,
      "start": 41.7972,
      "duration": 0.7441,
      "velocity": 104,
      "chip": "ym2612"
    },
    {
      "channel": 2,
      "note": 80,
      "start": 41.7976,
      "duration": 0.3497,
      "velocity": 101,
      "chip": "ym2612"
    },
    {
      "channel": 4,
      "note": 51,
      "start": 41.798,
      "duration": 1.9669,
      "velocity": 92,
      "chip": "ym2612"
    },
    {
      "channel": 5,
      "note": 47,
      "start": 41.7984,
      "duration": 1.9667,
      "velocity": 92,
      "chip": "ym2612"
    },
    {
      "channel": 0,
      "note": 53,
      "start": 41.9211,
      "duration": 0.1224,
      "velocity": 121,
      "chip": "ym2612"
    },
    {
      "channel": 3,
      "note": 80,
      "start": 41.9216,
      "duration": 0.2258,
      "velocity": 101,
      "chip": "ym2612"
    },
    {
      "channel": 0,
      "note": 72,
      "start": 42.0455,
      "duration": 0.2469,
      "velocity": 127,
      "chip": "ym2612"
    },
    {
      "channel": 2,
      "note": 82,
      "start": 42.1683,
      "duration": 0.3524,
      "velocity": 101,
      "chip": "ym2612"
    },
    {
      "channel": 3,
      "note": 80,
      "start": 42.1687,
      "duration": 0.3521,
      "velocity": 101,
      "chip": "ym2612"
    },
    {
      "channel": 0,
      "note": 44,
      "start": 42.2944,
      "duration": 0.3298,
      "velocity": 127,
      "chip": "ym2612"
    },
    {
      "channel": 1,
      "note": 52,
      "start": 42.5416,
      "duration": 0.7482,
      "velocity": 104,
      "chip": "ym2612"
    },
    {
      "channel": 2,
      "note": 83,
      "start": 42.542,
      "duration": 0.2276,
      "velocity": 101,
      "chip": "ym2612"
    },
    {
      "channel": 3,
      "note": 82,
      "start": 42.5423,
      "duration": 0.3515,
      "velocity": 101,
      "chip": "ym2612"
    },
    {
      "channel": 0,
      "note": 44,
      "start": 42.6662,
      "duration": 0.0824,
      "velocity": 127,
      "chip": "ym2612"
    },
    {
      "channel": 0,
      "note": 53,
      "start": 42.792,
      "duration": 0.1225,
      "velocity": 121,
      "chip": "ym2612"
    },
    {
      "channel": 2,
      "note": 83,
      "start": 42.7924,
      "duration": 0.3503,
      "velocity": 101,
      "chip": "ym2612"
    },
    {
      "channel": 0,
      "note": 44,
      "start": 42.9167,
      "duration": 0.0807,
      "velocity": 127,
      "chip": "ym2612"
    },
    {
      "channel": 3,
      "note": 83,
      "start": 42.9172,
      "duration": 0.2257,
      "velocity": 101,
      "chip": "ym2612"
    },
    {
      "channel": 0,
      "note": 39,
      "start": 43.0409,
      "duration": 0.2054,
      "velocity": 127,
      "chip": "ym2612"
    },
    {
      "channel": 2,
      "note": 85,
      "start": 43.1638,
      "duration": 0.3525,
      "velocity": 101,
      "chip": "ym2612"
    },
    {
      "channel": 3,
      "note": 83,
      "start": 43.1641,
      "duration": 0.3523,
      "velocity": 101,
      "chip": "ym2612"
    },
    {
      "channel": 0,
      "note": 44,
      "start": 43.2897,
      "duration": 0.2054,
      "velocity": 127,
      "chip": "ym2612"
    },
    {
      "channel": 1,
      "note": 52,
      "start": 43.29,
      "duration": 0.4977,
      "velocity": 104,
      "chip": "ym2612"
    },
    {
      "channel": 0,
      "note": 72,
      "start": 43.5385,
      "duration": 0.2469,
      "velocity": 127,
      "chip": "ym2612"
    },
    {
      "channel": 2,
      "note": 83,
      "start": 43.5389,
      "duration": 0.2258,
      "velocity": 101,
      "chip": "ym2612"
    },
    {
      "channel": 3,
      "note": 85,
      "start": 43.5393,
      "duration": 0.35,
      "velocity": 101,
      "chip": "ym2612"
    },
    {
      "channel": 0,
      "note": 39,
      "start": 43.7876,
      "duration": 0.1222,
      "velocity": 127,
      "chip": "ym2612"
    },
    {
      "channel": 1,
      "note": 51,
      "start": 43.7879,
      "duration": 0.7441,
      "velocity": 104,
      "chip": "ym2612"
    },
    {
      "channel": 2,
      "note": 87,
      "start": 43.7883,
      "duration": 0.723,
      "velocity": 101,
      "chip": "ym2612"
    },
    {
      "channel": 4,
      "note": 51,
      "start": 43.7888,
      "duration": 1.9669,
      "velocity": 92,
      "chip": "ym2612"
    },
    {
      "channel": 5,
      "note": 46,
      "start": 43.7891,
      "duration": 1.967,
      "velocity": 92,
      "chip": "ym2612"
    },
    {
      "channel": 0,
      "note": 53,
      "start": 43.9118,
      "duration": 0.1224,
      "velocity": 121,
      "chip": "ym2612"
    },
    {
      "channel": 3,
      "note": 83,
      "start": 43.9123,
      "duration": 0.2258,
      "velocity": 101,
      "chip": "ym2612"
    },
    {
      "channel": 0,
      "note": 72,
      "start": 44.0365,
      "duration": 0.2466,
      "velocity": 127,
      "chip": "ym2612"
    },
    {
      "channel": 3,
      "note": 87,
      "start": 44.1591,
      "duration": 0.7254,
      "velocity": 101,
      "chip": "ym2612"
    },
    {
      "channel": 0,
      "note": 44,
      "start": 44.285,
      "duration": 0.3298,
      "velocity": 127,
      "chip": "ym2612"
    },
    {
      "channel": 1,
      "note": 51,
      "start": 44.5322,
      "duration": 0.7482,
      "velocity": 104,
      "chip": "ym2612"
    },
    {
      "channel": 2,
      "note": 80,
      "start": 44.5326,
      "duration": 0.4764,
      "velocity": 101,
      "chip": "ym2612"
    },
    {
      "channel": 0,
      "note": 44,
      "start": 44.6566,
      "duration": 0.0827,
      "velocity": 127,
      "chip": "ym2612"
    },
    {
      "channel": 0,
      "note": 53,
      "start": 44.7827,
      "duration": 0.1225,
      "velocity": 121,
      "chip": "ym2612"
    },
    {
      "channel": 0,
      "note": 44,
      "start": 44.9073,
      "duration": 0.0807,
      "velocity": 127,
      "chip": "ym2612"
    },
    {
      "channel": 3,
      "note": 80,
      "start": 44.9078,
      "duration": 0.4745,
      "velocity": 101,
      "chip": "ym2612"
    },
    {
      "channel": 0,
      "note": 39,
      "start": 45.0315,
      "duration": 0.2054,
      "velocity": 127,
      "chip": "ym2612"
    },
    {
      "channel": 2,
      "note": 82,
      "start": 45.0319,
      "duration": 0.2259,
      "velocity": 101,
      "chip": "ym2612"
    },
    {
      "channel": 0,
      "note": 44,
      "start": 45.2803,
      "duration": 0.2054,
      "velocity": 127,
      "chip": "ym2612"
    },
    {
      "channel": 1,
      "note": 51,
      "start": 45.2806,
      "duration": 0.4976,
      "velocity": 104,
      "chip": "ym2612"
    },
    {
      "channel": 2,
      "note": 80,
      "start": 45.281,
      "duration": 0.2257,
      "velocity": 101,
      "chip": "ym2612"
    },
    {
      "channel": 3,
      "note": 82,
      "start": 45.4034,
      "duration": 0.2276,
      "velocity": 101,
      "chip": "ym2612"
    },
    {
      "channel": 0,
      "note": 72,
      "start": 45.5292,
      "duration": 0.247,
      "velocity": 127,
      "chip": "ym2612"
    },
    {
      "channel": 2,
      "note": 82,
      "start": 45.5295,
      "duration": 0.2258,
      "velocity": 101,
      "chip": "ym2612"
    },
    {
      "channel": 3,
      "note": 80,
      "start": 45.6521,
      "duration": 0.2279,
      "velocity": 101,
      "chip": "ym2612"
    },
    {
      "channel": 0,
      "note": 39,
      "start": 45.7781,
      "duration": 0.1224,
      "velocity": 127,
      "chip": "ym2612"
    },
    {
      "channel": 1,
      "note": 51,
      "start": 45.7784,
      "duration": 0.7443,
      "velocity": 104,
      "chip": "ym2612"
    },
    {
      "channel": 2,
      "note": 79,
      "start": 45.7788,
      "duration": 1.9676,
      "velocity": 101,
      "chip": "ym2612"
    },
    {
      "channel": 4,
      "note": 55,
      "start": 45.7792,
      "duration": 0.3496,
      "velocity": 92,
      "chip": "ym2612"
    },
    {
      "channel": 5,
      "note": 51,
      "start": 45.7795,
      "duration": 0.3495,
      "velocity": 92,
      "chip": "ym2612"
    },
    {
      "channel": 0,
      "note": 53,
      "start": 45.9024,
      "duration": 0.1225,
      "velocity": 121,
      "chip": "ym2612"
    },
    {
      "channel": 3,
      "note": 82,
      "start": 45.9029,
      "duration": 0.2258,
      "velocity": 101,
      "chip": "ym2612"
    },
    {
      "channel": 0,
      "note": 72,
      "start": 46.0271,
      "duration": 0.2466,
      "velocity": 127,
      "chip": "ym2612"
    },
    {
      "channel": 3,
      "note": 79,
      "start": 46.1498,
      "duration": 1.9695,
      "velocity": 101,
      "chip": "ym2612"
    },
    {
      "channel": 4,
      "note": 56,
      "start": 46.1501,
      "duration": 0.3521,
      "velocity": 92,
      "chip": "ym2612"
    },
    {
      "channel": 5,
      "note": 53,
      "start": 46.1504,
      "duration": 0.3519,
      "velocity": 92,
      "chip": "ym2612"
    },
    {
      "channel": 0,
      "note": 44,
      "start": 46.2757,
      "duration": 0.3298,
      "velocity": 127,
      "chip": "ym2612"
    },
    {
      "channel": 1,
      "note": 51,
      "start": 46.5229,
      "duration": 0.7465,
      "velocity": 104,
      "chip": "ym2612"
    },
    {
      "channel": 4,
      "note": 58,
      "start": 46.5234,
      "duration": 0.2276,
      "velocity": 92,
      "chip": "ym2612"
    },
    {
      "channel": 5,
      "note": 55,
      "start": 46.5238,
      "duration": 0.2274,
      "velocity": 92,
      "chip": "ym2612"
    },
    {
      "channel": 0,
      "note": 44,
      "start": 46.6473,
      "duration": 0.0827,
      "velocity": 127,
      "chip": "ym2612"
    },
    {
      "channel": 0,
      "note": 39,
      "start": 46.7733,
      "duration": 0.081,
      "velocity": 127,
      "chip": "ym2612"
    },
    {
      "channel": 4,
      "note": 58,
      "start": 46.7739,
      "duration": 0.9727,
      "velocity": 92,
      "chip": "ym2612"
    },
    {
      "channel": 5,
      "note": 55,
      "start": 46.7742,
      "duration": 0.9725,
      "velocity": 92,
      "chip": "ym2612"
    },
    {
      "channel": 0,
      "note": 44,
      "start": 46.898,
      "duration": 0.0807,
      "velocity": 127,
      "chip": "ym2612"
    },
    {
      "channel": 0,
      "note": 44,
      "start": 47.0205,
      "duration": 0.0827,
      "velocity": 127,
      "chip": "ym2612"
    },
    {
      "channel": 0,
      "note": 44,
      "start": 47.1449,
      "duration": 0.0827,
      "velocity": 127,
      "chip": "ym2612"
    },
    {
      "channel": 0,
      "note": 44,
      "start": 47.2693,
      "duration": 0.2071,
      "velocity": 127,
      "chip": "ym2612"
    },
    {
      "channel": 1,
      "note": 51,
      "start": 47.2696,
      "duration": 0.4991,
      "velocity": 104,
      "chip": "ym2612"
    },
    {
      "channel": 0,
      "note": 44,
      "start": 47.5181,
      "duration": 0.0827,
      "velocity": 127,
      "chip": "ym2612"
    },
    {
      "channel": 0,
      "note": 44,
      "start": 47.6426,
      "duration": 0.0827,
      "velocity": 127,
      "chip": "ym2612"
    },
    {
      "channel": 0,
      "note": 32,
      "start": 47.7687,
      "duration": 0.2468,
      "velocity": 127,
      "chip": "ym2612"
    },
    {
      "channel": 1,
      "note": 56,
      "start": 47.7707,
      "duration": 0.39,
      "velocity": 104,
      "chip": "ym2612"
    },
    {
      "channel": 2,
      "note": 67,
      "start": 47.7728,
      "duration": 0.0978,
      "velocity": 120,
      "chip": "ym2612"
    },
    {
      "channel": 4,
      "note": 87,
      "start": 47.775,
      "duration": 0.0542,
      "velocity": 97,
      "chip": "ym2612"
    },
    {
      "channel": 5,
      "note": 56,
      "start": 47.7773,
      "duration": 0.3835,
      "velocity": 99,
      "chip": "ym2612"
    },
    {
      "channel": 4,
      "note": 87,
      "start": 47.8502,
      "duration": 0.0205,
      "velocity": 97,
      "chip": "ym2612"
    },
    {
      "channel": 2,
      "note": 67,
      "start": 47.8915,
      "duration": 0.1034,
      "velocity": 120,
      "chip": "ym2612"
    },
    {
      "channel": 4,
      "note": 80,
      "start": 47.8919,
      "duration": 0.0617,
      "velocity": 97,
      "chip": "ym2612"
    },
    {
      "channel": 4,
      "note": 80,
      "start": 47.9746,
      "duration": 0.0205,
      "velocity": 97,
      "chip": "ym2612"
    },
    {
      "channel": 0,
      "note": 72,
      "start": 48.0177,
      "duration": 0.143,
      "velocity": 127,
      "chip": "ym2612"
    },
    {
      "channel": 2,
      "note": 65,
      "start": 48.018,
      "duration": 0.1012,
      "velocity": 120,
      "chip": "ym2612"
    },
    {
      "channel": 4,
      "note": 83,
      "start": 48.0185,
      "duration": 0.0594,
      "velocity": 97,
      "chip": "ym2612"
    },
    {
      "channel": 4,
      "note": 83,
      "start": 48.0989,
      "duration": 0.0205,
      "velocity": 97,
      "chip": "ym2612"
    },
    {
      "channel": 2,
      "note": 67,
      "start": 48.1402,
      "duration": 0.0205,
      "velocity": 120,
      "chip": "ym2612"
    },
    {
      "channel": 3,
      "note": 67,
      "start": 48.1422,
      "duration": 0.0185,
      "velocity": 120,
      "chip": "ym2612"
    },
    {
      "channel": 4,
      "note": 78,
      "start": 48.1426,
      "duration": 0.0182,
      "velocity": 97,
      "chip": "ym2612"
    }
  ]
}