{
  "track_name": "02 - Legend of the Gunstars",
  "duration_sec": 104.672,
  "sample_rate": 44100,
  "note_count": 1503,
  "unique_pitches": 47,
  "pitch_range": 64,
  "avg_note_duration": 0.1112,
  "reconstruction_stats": {
    "notes_reconstructed": 1503,
    "keyon_events": 1503,
    "keyoff_events": 1493,
    "orphan_keyons": 0,
    "unique_pitches": 47,
    "pitch_range": 64,
    "avg_duration_sec": 0.1112
  },
  "metadata": {
    "source": "G\\Gunstar Heroes\\02 - Legend of the Gunstars.vgz"
  },
  "notes": [
    {
      "channel": 0,
      "note": 71,
      "start": 0.0,
      "duration": 0.0,
      "velocity": 121,
      "chip": "ym2612"
    },
    {
      "channel": 0,
      "note": 71,
      "start": 0.0,
      "duration": 0.0,
      "velocity": 121,
      "chip": "ym2612"
    },
    {
      "channel": 0,
      "note": 71,
      "start": 0.0,
      "duration": 0.0,
      "velocity": 121,
      "chip": "ym2612"
    },
    {
      "channel": 0,
      "note": 71,
      "start": 0.0,
      "duration": 0.0,
      "velocity": 121,
      "chip": "ym2612"
    },
    {
      "channel": 0,
      "note": 71,
      "start": 0.0,
      "duration": 0.0,
      "velocity": 121,
      "chip": "ym2612"
    },
    {
      "channel": 0,
      "note": 71,
      "start": 0.0,
      "duration": 0.0,
      "velocity": 121,
      "chip": "ym2612"
    },
    {
      "channel": 0,
      "note": 71,
      "start": 0.0,
      "duration": 0.0,
      "velocity": 121,
      "chip": "ym2612"
    },
    {
      "channel": 0,
      "note": 71,
      "start": 0.0,
      "duration": 0.0,
      "velocity": 121,
      "chip": "ym2612"
    },
    {
      "channel": 0,
      "note": 71,
      "start": 0.0,
      "duration": 0.0,
      "velocity": 121,
      "chip": "ym2612"
    },
    {
      "channel": 0,
      "note": 71,
      "start": 0.0,
      "duration": 0.0,
      "velocity": 121,
      "chip": "ym2612"
    },
    {
      "channel": 0,
      "note": 71,
      "start": 0.0,
      "duration": 0.0,
      "velocity": 121,
      "chip": "ym2612"
    },
    {
      "channel": 0,
      "note": 71,
      "start": 0.0,
      "duration": 0.0,
      "velocity": 121,
      "chip": "ym2612"
    },
    {
      "channel": 0,
      "note": 71,
      "start": 0.0,
      "duration": 0.0,
      "velocity": 121,
      "chip": "ym2612"
    },
    {
      "channel": 0,
      "note": 71,
      "start": 0.0,
      "duration": 0.0479,
      "velocity": 121,
      "chip": "ym2612"
    },
    {
      "channel": 1,
      "note": 71,
      "start": 0.0,
      "duration": 0.0,
      "velocity": 121,
      "chip": "ym2612"
    },
    {
      "channel": 1,
      "note": 71,
      "start": 0.0,
      "duration": 0.0,
      "velocity": 121,
      "chip": "ym2612"
    },
    {
      "channel": 1,
      "note": 71,
      "start": 0.0,
      "duration": 0.0,
      "velocity": 121,
      "chip": "ym2612"
    },
    {
      "channel": 1,
      "note": 71,
      "start": 0.0,
      "duration": 0.0,
      "velocity": 121,
      "chip": "ym2612"
    },
    {
      "channel": 1,
      "note": 71,
      "start": 0.0,
      "duration": 0.0,
      "velocity": 121,
      "chip": "ym2612"
    },
    {
      "channel": 1,
      "note": 71,
      "start": 0.0,
      "duration": 0.0,
      "velocity": 121,
      "chip": "ym2612"
    },
    {
      "channel": 1,
      "note": 71,
      "start": 0.0,
      "duration": 0.0,
      "velocity": 121,
      "chip": "ym2612"
    },
    {
      "channel": 1,
      "note": 71,
      "start": 0.0,
      "duration": 0.0,
      "velocity": 121,
      "chip": "ym2612"
    },
    {
      "channel": 1,
      "note": 71,
      "start": 0.0,
      "duration": 0.0,
      "velocity": 121,
      "chip": "ym2612"
    },
    {
      "channel": 1,
      "note": 71,
      "start": 0.0,
      "duration": 0.0,
      "velocity": 121,
      "chip": "ym2612"
    },
    {
      "channel": 1,
      "note": 71,
      "start": 0.0,
      "duration": 0.0,
      "velocity": 121,
      "chip": "ym2612"
    },
    {
      "channel": 1,
      "note": 71,
      "start": 0.0,
      "duration": 0.0,
      "velocity": 121,
      "chip": "ym2612"
    },
    {
      "channel": 1,
      "note": 71,
      "start": 0.0,
      "duration": 0.0,
      "velocity": 121,
      "chip": "ym2612"
    },
    {
      "channel": 1,
      "note": 71,
      "start": 0.0,
      "duration": 0.0483,
      "velocity": 121,
      "chip": "ym2612"
    },
    {
      "channel": 2,
      "note": 71,
      "start": 0.0,
      "duration": 0.0,
      "velocity": 121,
      "chip": "ym2612"
    },
    {
      "channel": 2,
      "note": 71,
      "start": 0.0,
      "duration": 0.0,
      "velocity": 121,
      "chip": "ym2612"
    },
    {
      "channel": 2,
      "note": 71,
      "start": 0.0,
      "duration": 0.0,
      "velocity": 121,
      "chip": "ym2612"
    },
    {
      "channel": 2,
      "note": 71,
      "start": 0.0,
      "duration": 0.0,
      "velocity": 121,
      "chip": "ym2612"
    },
    {
      "channel": 2,
      "note": 71,
      "start": 0.0,
      "duration": 0.0,
      "velocity": 121,
      "chip": "ym2612"
    },
    {
      "channel": 2,
      "note": 71,
      "start": 0.0,
      "duration": 0.0,
      "velocity": 121,
      "chip": "ym2612"
    },
    {
      "channel": 2,
      "note": 71,
      "start": 0.0,
      "duration": 0.0,
      "velocity": 121,
      "chip": "ym2612"
    },
    {
      "channel": 2,
      "note": 71,
      "start": 0.0,
      "duration": 0.0,
      "velocity": 121,
      "chip": "ym2612"
    },
    {
      "channel": 2,
      "note": 71,
      "start": 0.0,
      "duration": 0.0,
      "velocity": 121,
      "chip": "ym2612"
    },
    {
      "channel": 2,
      "note": 71,
      "start": 0.0,
      "duration": 0.0,
      "velocity": 121,
      "chip": "ym2612"
    },
    {
      "channel": 2,
      "note": 71,
      "start": 0.0,
      "duration": 0.0,
      "velocity": 121,
      "chip": "ym2612"
    },
    {
      "channel": 2,
      "note": 71,
      "start": 0.0,
      "duration": 0.0,
      "velocity": 121,
      "chip": "ym2612"
    },
    {
      "channel": 2,
      "note": 71,
      "start": 0.0,
      "duration": 0.0,
      "velocity": 121,
      "chip": "ym2612"
    },
    {
      "channel": 2,
      "note": 71,
      "start": 0.0,
      "duration": 0.0488,
      "velocity": 121,
      "chip": "ym2612"
    },
    {
      "channel": 3,
      "note": 59,
      "start": 0.0,
      "duration": 0.0,
      "velocity": 121,
      "chip": "ym2612"
    },
    {
      "channel": 3,
      "note": 59,
      "start": 0.0,
      "duration": 0.0,
      "velocity": 121,
      "chip": "ym2612"
    },
    {
      "channel": 3,
      "note": 59,
      "start": 0.0,
      "duration": 0.0,
      "velocity": 121,
      "chip": "ym2612"
    },
    {
      "channel": 3,
      "note": 59,
      "start": 0.0,
      "duration": 0.0,
      "velocity": 121,
      "chip": "ym2612"
    },
    {
      "channel": 3,
      "note": 59,
      "start": 0.0,
      "duration": 0.0,
      "velocity": 121,
      "chip": "ym2612"
    },
    {
      "channel": 3,
      "note": 59,
      "start": 0.0,
      "duration": 0.0,
      "velocity": 121,
      "chip": "ym2612"
    },
    {
      "channel": 3,
      "note": 59,
      "start": 0.0,
      "duration": 0.0,
      "velocity": 121,
      "chip": "ym2612"
    },
    {
      "channel": 3,
      "note": 59,
      "start": 0.0,
      "duration": 0.0,
      "velocity": 121,
      "chip": "ym2612"
    },
    {
      "channel": 3,
      "note": 59,
      "start": 0.0,
      "duration": 0.0,
      "velocity": 121,
      "chip": "ym2612"
    },
    {
      "channel": 3,
      "note": 59,
      "start": 0.0,
      "duration": 0.0,
      "velocity": 121,
      "chip": "ym2612"
    },
    {
      "channel": 3,
      "note": 59,
      "start": 0.0,
      "duration": 0.0,
      "velocity": 121,
      "chip": "ym2612"
    },
    {
      "channel": 3,
      "note": 59,
      "start": 0.0,
      "duration": 0.0,
      "velocity": 121,
      "chip": "ym2612"
    },
    {
      "channel": 3,
      "note": 59,
      "start": 0.0,
      "duration": 0.0,
      "velocity": 121,
      "chip": "ym2612"
    },
    {
      "channel": 3,
      "note": 59,
      "start": 0.0,
      "duration": 0.0493,
      "velocity": 121,
      "chip": "ym2612"
    },
    {
      "channel": 4,
      "note": 59,
      "start": 0.0,
      "duration": 0.0,
      "velocity": 121,
      "chip": "ym2612"
    },
    {
      "channel": 4,
      "note": 59,
      "start": 0.0,
      "duration": 0.0,
      "velocity": 121,
      "chip": "ym2612"
    },
    {
      "channel": 4,
      "note": 59,
      "start": 0.0,
      "duration": 0.0,
      "velocity": 121,
      "chip": "ym2612"
    },
    {
      "channel": 4,
      "note": 59,
      "start": 0.0,
      "duration": 0.0,
      "velocity": 121,
      "chip": "ym2612"
    },
    {
      "channel": 4,
      "note": 59,
      "start": 0.0,
      "duration": 0.0,
      "velocity": 121,
      "chip": "ym2612"
    },
    {
      "channel": 4,
      "note": 59,
      "start": 0.0,
      "duration": 0.0,
      "velocity": 121,
      "chip": "ym2612"
    },
    {
      "channel": 4,
      "note": 59,
      "start": 0.0,
      "duration": 0.0,
      "velocity": 121,
      "chip": "ym2612"
    },
    {
      "channel": 4,
      "note": 59,
      "start": 0.0,
      "duration": 0.0,
      "velocity": 121,
      "chip": "ym2612"
    },
    {
      "channel": 4,
      "note": 59,
      "start": 0.0,
      "duration": 0.0,
      "velocity": 121,
      "chip": "ym2612"
    },
    {
      "channel": 4,
      "note": 59,
      "start": 0.0,
      "duration": 0.0,
      "velocity": 121,
      "chip": "ym2612"
    },
    {
      "channel": 4,
      "note": 59,
      "start": 0.0,
      "duration": 0.0,
      "velocity": 121,
      "chip": "ym2612"
    },
    {
      "channel": 4,
      "note": 59,
      "start": 0.0,
      "duration": 0.0,
      "velocity": 121,
      "chip": "ym2612"
    },
    {
      "channel": 4,
      "note": 59,
      "start": 0.0,
      "duration": 0.0,
      "velocity": 121,
      "chip": "ym2612"
    },
    {
      "channel": 4,
      "note": 59,
      "start": 0.0,
      "duration": 0.0498,
      "velocity": 121,
      "chip": "ym2612"
    },
    {
      "channel": 0,
      "note": 71,
      "start": 0.048,
      "duration": 0.0498,
      "velocity": 121,
      "chip": "ym2612"
    },
    {
      "channel": 1,
      "note": 71,
      "start": 0.0485,
      "duration": 0.0498,
      "velocity": 121,
      "chip": "ym2612"
    },
    {
      "channel": 2,
      "note": 71,
      "start": 0.0491,
      "duration": 0.0497,
      "velocity": 121,
      "chip": "ym2612"
    },
    {
      "channel": 3,
      "note": 59,
      "start": 0.0495,
      "duration": 0.0497,
      "velocity": 121,
      "chip": "ym2612"
    },
    {
      "channel": 4,
      "note": 59,
      "start": 0.05,
      "duration": 0.0498,
      "velocity": 121,
      "chip": "ym2612"
    },
    {
      "channel": 0,
      "note": 71,
      "start": 0.098,
      "duration": 0.0498,
      "velocity": 121,
      "chip": "ym2612"
    },
    {
      "channel": 1,
      "note": 71,
      "start": 0.0985,
      "duration": 0.0498,
      "velocity": 121,
      "chip": "ym2612"
    },
    {
      "channel": 2,
      "note": 71,
      "start": 0.0991,
      "duration": 0.0497,
      "velocity": 121,
      "chip": "ym2612"
    },
    {
      "channel": 3,
      "note": 59,
      "start": 0.0995,
      "duration": 0.0497,
      "velocity": 121,
      "chip": "ym2612"
    },
    {
      "channel": 4,
      "note": 59,
      "start": 0.1,
      "duration": 0.0498,
      "velocity": 121,
      "chip": "ym2612"
    },
    {
      "channel": 0,
      "note": 71,
      "start": 0.148,
      "duration": 0.0498,
      "velocity": 121,
      "chip": "ym2612"
    },
    {
      "channel": 1,
      "note": 71,
      "start": 0.1485,
      "duration": 0.0498,
      "velocity": 121,
      "chip": "ym2612"
    },
    {
      "channel": 2,
      "note": 71,
      "start": 0.1491,
      "duration": 0.0497,
      "velocity": 121,
      "chip": "ym2612"
    },
    {
      "channel": 3,
      "note": 59,
      "start": 0.1495,
      "duration": 0.0497,
      "velocity": 121,
      "chip": "ym2612"
    },
    {
      "channel": 4,
      "note": 59,
      "start": 0.15,
      "duration": 0.0498,
      "velocity": 121,
      "chip": "ym2612"
    },
    {
      "channel": 0,
      "note": 71,
      "start": 0.198,
      "duration": 0.0498,
      "velocity": 121,
      "chip": "ym2612"
    },
    {
      "channel": 1,
      "note": 71,
      "start": 0.1985,
      "duration": 0.0498,
      "velocity": 121,
      "chip": "ym2612"
    },
    {
      "channel": 2,
      "note": 71,
      "start": 0.1991,
      "duration": 0.0497,
      "velocity": 121,
      "chip": "ym2612"
    },
    {
      "channel": 3,
      "note": 59,
      "start": 0.1995,
      "duration": 0.0497,
      "velocity": 121,
      "chip": "ym2612"
    },
    {
      "channel": 4,
      "note": 59,
      "start": 0.2,
      "duration": 0.0498,
      "velocity": 121,
      "chip": "ym2612"
    },
    {
      "channel": 0,
      "note": 71,
      "start": 0.248,
      "duration": 0.0498,
      "velocity": 121,
      "chip": "ym2612"
    },
    {
      "channel": 1,
      "note": 71,
      "start": 0.2485,
      "duration": 0.0498,
      "velocity": 121,
      "chip": "ym2612"
    },
    {
      "channel": 2,
      "note": 71,
      "start": 0.2491,
      "duration": 0.0497,
      "velocity": 121,
      "chip": "ym2612"
    },
    {
      "channel": 3,
      "note": 59,
      "start": 0.2495,
      "duration": 0.0497,
      "velocity": 121,
      "chip": "ym2612"
    },
    {
      "channel": 4,
      "note": 59,
      "start": 0.25,
      "duration": 0.0498,
      "velocity": 121,
      "chip": "ym2612"
    },
    {
      "channel": 0,
      "note": 71,
      "start": 0.298,
      "duration": 0.0498,
      "velocity": 121,
      "chip": "ym2612"
    },
    {
      "channel": 1,
      "note": 71,
      "start": 0.2985,
      "duration": 0.0498,
      "velocity": 121,
      "chip": "ym2612"
    },
    {
      "channel": 2,
      "note": 71,
      "start": 0.2991,
      "duration": 0.0497,
      "velocity": 121,
      "chip": "ym2612"
    },
    {
      "channel": 3,
      "note": 59,
      "start": 0.2995,
      "duration": 0.0497,
      "velocity": 121,
      "chip": "ym2612"
    },
    {
      "channel": 4,
      "note": 59,
      "start": 0.3,
      "duration": 0.0498,
      "velocity": 121,
      "chip": "ym2612"
    },
    {
      "channel": 0,
      "note": 71,
      "start": 0.348,
      "duration": 0.0498,
      "velocity": 121,
      "chip": "ym2612"
    },
    {
      "channel": 1,
      "note": 71,
      "start": 0.3485,
      "duration": 0.0498,
      "velocity": 121,
      "chip": "ym2612"
    },
    {
      "channel": 2,
      "note": 71,
      "start": 0.3491,
      "duration": 0.0497,
      "velocity": 121,
      "chip": "ym2612"
    },
    {
      "channel": 3,
      "note": 59,
      "start": 0.3495,
      "duration": 0.0497,
      "velocity": 121,
      "chip": "ym2612"
    },
    {
      "channel": 4,
      "note": 59,
      "start": 0.35,
      "duration": 0.0498,
      "velocity": 121,
      "chip": "ym2612"
    },
    {
      "channel": 0,
      "note": 71,
      "start": 0.398,
      "duration": 0.0498,
      "velocity": 121,
      "chip": "ym2612"
    },
    {
      "channel": 1,
      "note": 71,
      "start": 0.3985,
      "duration": 0.0498,
      "velocity": 121,
      "chip": "ym2612"
    },
    {
      "channel": 2,
      "note": 71,
      "start": 0.3991,
      "duration": 0.0497,
      "velocity": 121,
      "chip": "ym2612"
    },
    {
      "channel": 3,
      "note": 59,
      "start": 0.3995,
      "duration": 0.0497,
      "velocity": 121,
      "chip": "ym2612"
    },
    {
      "channel": 4,
      "note": 59,
      "start": 0.4,
      "duration": 0.0498,
      "velocity": 121,
      "chip": "ym2612"
    },
    {
      "channel": 0,
      "note": 71,
      "start": 0.448,
      "duration": 0.0498,
      "velocity": 121,
      "chip": "ym2612"
    },
    {
      "channel": 1,
      "note": 71,
      "start": 0.4485,
      "duration": 0.0498,
      "velocity": 121,
      "chip": "ym2612"
    },
    {
      "channel": 2,
      "note": 71,
      "start": 0.4491,
      "duration": 0.0497,
      "velocity": 121,
      "chip": "ym2612"
    },
    {
      "channel": 3,
      "note": 59,
      "start": 0.4495,
      "duration": 0.0497,
      "velocity": 121,
      "chip": "ym2612"
    },
    {
      "channel": 4,
      "note": 59,
      "start": 0.45,
      "duration": 0.0498,
      "velocity": 121,
      "chip": "ym2612"
    },
    {
      "channel": 0,
      "note": 71,
      "start": 0.498,
      "duration": 0.0507,
      "velocity": 127,
      "chip": "ym2612"
    },
    {
      "channel": 1,
      "note": 71,
      "start": 0.4985,
      "duration": 0.0515,
      "velocity": 121,
      "chip": "ym2612"
    },
    {
      "channel": 2,
      "note": 71,
      "start": 0.4991,
      "duration": 0.0519,
      "velocity": 125,
      "chip": "ym2612"
    },
    {
      "channel": 3,
      "note": 59,
      "start": 0.4995,
      "duration": 0.0525,
      "velocity": 121,
      "chip": "ym2612"
    },
    {
      "channel": 4,
      "note": 59,
      "start": 0.5,
      "duration": 0.0533,
      "velocity": 121,
      "chip": "ym2612"
    },
    {
      "channel": 0,
      "note": 59,
      "start": 0.549,
      "duration": 2.0283,
      "velocity": 127,
      "chip": "ym2612"
    },
    {
      "channel": 1,
      "note": 95,
      "start": 0.5501,
      "duration": 0.0273,
      "velocity": 121,
      "chip": "ym2612"
    },
    {
      "channel": 3,
      "note": 63,
      "start": 0.5522,
      "duration": 3.5259,
      "velocity": 121,
      "chip": "ym2612"
    },
    {
      "channel": 4,
      "note": 66,
      "start": 0.5534,
      "duration": 3.5249,
      "velocity": 121,
      "chip": "ym2612"
    },
    {
      "channel": 2,
      "note": 99,
      "start": 0.557,
      "duration": 0.1207,
      "velocity": 125,
      "chip": "ym2612"
    },
    {
      "channel": 1,
      "note": 95,
      "start": 0.5777,
      "duration": 0.0998,
      "velocity": 121,
      "chip": "ym2612"
    },
    {
      "channel": 1,
      "note": 95,
      "start": 0.6776,
      "duration": 0.0998,
      "velocity": 121,
      "chip": "ym2612"
    },
    {
      "channel": 2,
      "note": 95,
      "start": 0.678,
      "duration": 0.1495,
      "velocity": 125,
      "chip": "ym2612"
    },
    {
      "channel": 1,
      "note": 95,
      "start": 0.7777,
      "duration": 0.0998,
      "velocity": 121,
      "chip": "ym2612"
    },
    {
      "channel": 2,
      "note": 97,
      "start": 0.8278,
      "duration": 0.1499,
      "velocity": 125,
      "chip": "ym2612"
    },
    {
      "channel": 1,
      "note": 95,
      "start": 0.8776,
      "duration": 0.0998,
      "velocity": 121,
      "chip": "ym2612"
    },
    {
      "channel": 1,
      "note": 95,
      "start": 0.9776,
      "duration": 0.0998,
      "velocity": 121,
      "chip": "ym2612"
    },
    {
      "channel": 2,
      "note": 93,
      "start": 0.978,
      "duration": 0.1495,
      "velocity": 125,
      "chip": "ym2612"
    },
    {
      "channel": 1,
      "note": 95,
      "start": 1.0777,
      "duration": 0.0998,
      "velocity": 121,
      "chip": "ym2612"
    },
    {
      "channel": 2,
      "note": 88,
      "start": 1.1278,
      "duration": 0.1498,
      "velocity": 125,
      "chip": "ym2612"
    },
    {
      "channel": 1,
      "note": 95,
      "start": 1.1776,
      "duration": 0.0998,
      "velocity": 121,
      "chip": "ym2612"
    },
    {
      "channel": 1,
      "note": 95,
      "start": 1.2776,
      "duration": 0.1,
      "velocity": 121,
      "chip": "ym2612"
    },
    {
      "channel": 2,
      "note": 100,
      "start": 1.278,
      "duration": 0.1498,
      "velocity": 125,
      "chip": "ym2612"
    },
    {
      "channel": 1,
      "note": 95,
      "start": 1.3778,
      "duration": 0.0996,
      "velocity": 121,
      "chip": "ym2612"
    },
    {
      "channel": 2,
      "note": 99,
      "start": 1.428,
      "duration": 0.1497,
      "velocity": 125,
      "chip": "ym2612"
    },
    {
      "channel": 1,
      "note": 95,
      "start": 1.4776,
      "duration": 0.0998,
      "velocity": 121,
      "chip": "ym2612"
    },
    {
      "channel": 1,
      "note": 95,
      "start": 1.5776,
      "duration": 0.0998,
      "velocity": 121,
      "chip": "ym2612"
    },
    {
      "channel": 2,
      "note": 95,
      "start": 1.578,
      "duration": 0.1495,
      "velocity": 125,
      "chip": "ym2612"
    },
    {
      "channel": 1,
      "note": 95,
      "start": 1.6777,
      "duration": 0.0998,
      "velocity": 121,
      "chip": "ym2612"
    },
    {
      "channel": 2,
      "note": 97,
      "start": 1.7278,
      "duration": 0.1498,
      "velocity": 125,
      "chip": "ym2612"
    },
    {
      "channel": 1,
      "note": 95,
      "start": 1.7776,
      "duration": 0.0998,
      "velocity": 121,
      "chip": "ym2612"
    },
    {
      "channel": 1,
      "note": 95,
      "start": 1.8776,
      "duration": 0.0998,
      "velocity": 121,
      "chip": "ym2612"
    },
    {
      "channel": 2,
      "note": 93,
      "start": 1.878,
      "duration": 0.1495,
      "velocity": 125,
      "chip": "ym2612"
    },
    {
      "channel": 1,
      "note": 95,
      "start": 1.9777,
      "duration": 0.0998,
      "velocity": 121,
      "chip": "ym2612"
    },
    {
      "channel": 2,
      "note": 88,
      "start": 2.0278,
      "duration": 0.1498,
      "velocity": 125,
      "chip": "ym2612"
    },
    {
      "channel": 1,
      "note": 95,
      "start": 2.0776,
      "duration": 0.0998,
      "velocity": 121,
      "chip": "ym2612"
    },
    {
      "channel": 1,
      "note": 95,
      "start": 2.1776,
      "duration": 0.1,
      "velocity": 121,
      "chip": "ym2612"
    },
    {
      "channel": 2,
      "note": 100,
      "start": 2.178,
      "duration": 0.1497,
      "velocity": 125,
      "chip": "ym2612"
    },
    {
      "channel": 1,
      "note": 95,
      "start": 2.2778,
      "duration": 0.0996,
      "velocity": 121,
      "chip": "ym2612"
    },
    {
      "channel": 2,
      "note": 99,
      "start": 2.328,
      "duration": 0.1497,
      "velocity": 125,
      "chip": "ym2612"
    },
    {
      "channel": 1,
      "note": 95,
      "start": 2.3776,
      "duration": 0.0998,
      "velocity": 121,
      "chip": "ym2612"
    },
    {
      "channel": 1,
      "note": 95,
      "start": 2.4776,
      "duration": 0.1,
      "velocity": 121,
      "chip": "ym2612"
    },
    {
      "channel": 2,
      "note": 95,
      "start": 2.478,
      "duration": 0.1496,
      "velocity": 125,
      "chip": "ym2612"
    },
    {
      "channel": 0,
      "note": 47,
      "start": 2.5775,
      "duration": 1.4998,
      "velocity": 127,
      "chip": "ym2612"
    },
    {
      "channel": 1,
      "note": 95,
      "start": 2.5778,
      "duration": 0.0996,
      "velocity": 121,
      "chip": "ym2612"
    },
    {
      "channel": 2,
      "note": 97,
      "start": 2.6278,
      "duration": 0.1498,
      "velocity": 125,
      "chip": "ym2612"
    },
    {
      "channel": 1,
      "note": 95,
      "start": 2.6777,
      "duration": 0.0998,
      "velocity": 121,
      "chip": "ym2612"
    },
    {
      "channel": 1,
      "note": 95,
      "start": 2.7776,
      "duration": 0.0998,
      "velocity": 121,
      "chip": "ym2612"
    },
    {
      "channel": 2,
      "note": 93,
      "start": 2.778,
      "duration": 0.1495,
      "velocity": 125,
      "chip": "ym2612"
    },
    {
      "channel": 1,
      "note": 95,
      "start": 2.8776,
      "duration": 0.0998,
      "velocity": 121,
      "chip": "ym2612"
    },
    {
      "channel": 2,
      "note": 88,
      "start": 2.9278,
      "duration": 0.1498,
      "velocity": 125,
      "chip": "ym2612"
    },
    {
      "channel": 1,
      "note": 95,
      "start": 2.9776,
      "duration": 0.0998,
      "velocity": 121,
      "chip": "ym2612"
    },
    {
      "channel": 1,
      "note": 95,
      "start": 3.0776,
      "duration": 0.0999,
      "velocity": 121,
      "chip": "ym2612"
    },
    {
      "channel": 2,
      "note": 100,
      "start": 3.078,
      "duration": 0.1497,
      "velocity": 125,
      "chip": "ym2612"
    },
    {
      "channel": 1,
      "note": 95,
      "start": 3.1778,
      "duration": 0.0996,
      "velocity": 121,
      "chip": "ym2612"
    },
    {
      "channel": 2,
      "note": 99,
      "start": 3.228,
      "duration": 0.1497,
      "velocity": 125,
      "chip": "ym2612"
    },
    {
      "channel": 1,
      "note": 95,
      "start": 3.2776,
      "duration": 0.0998,
      "velocity": 121,
      "chip": "ym2612"
    },
    {
      "channel": 1,
      "note": 95,
      "start": 3.3776,
      "duration": 0.0998,
      "velocity": 121,
      "chip": "ym2612"
    },
    {
      "channel": 2,
      "note": 95,
      "start": 3.378,
      "duration": 0.1495,
      "velocity": 125,
      "chip": "ym2612"
    },
    {
      "channel": 1,
      "note": 95,
      "start": 3.4776,
      "duration": 0.0998,
      "velocity": 121,
      "chip": "ym2612"
    },
    {
      "channel": 2,
      "note": 97,
      "start": 3.5278,
      "duration": 0.1498,
      "velocity": 125,
      "chip": "ym2612"
    },
    {
      "channel": 1,
      "note": 95,
      "start": 3.5776,
      "duration": 0.0998,
      "velocity": 121,
      "chip": "ym2612"
    },
    {
      "channel": 1,
      "note": 95,
      "start": 3.6776,
      "duration": 0.0998,
      "velocity": 121,
      "chip": "ym2612"
    },
    {
      "channel": 2,
      "note": 93,
      "start": 3.678,
      "duration": 0.1495,
      "velocity": 125,
      "chip": "ym2612"
    },
    {
      "channel": 1,
      "note": 95,
      "start": 3.7776,
      "duration": 0.0998,
      "velocity": 121,
      "chip": "ym2612"
    },
    {
      "channel": 2,
      "note": 88,
      "start": 3.8278,
      "duration": 0.1498,
      "velocity": 125,
      "chip": "ym2612"
    },
    {
      "channel": 1,
      "note": 95,
      "start": 3.8776,
      "duration": 0.0998,
      "velocity": 121,
      "chip": "ym2612"
    },
    {
      "channel": 1,
      "note": 95,
      "start": 3.9776,
      "duration": 0.1002,
      "velocity": 121,
      "chip": "ym2612"
    },
    {
      "channel": 2,
      "note": 100,
      "start": 3.978,
      "duration": 0.1038,
      "velocity": 125,
      "chip": "ym2612"
    },
    {
      "channel": 0,
      "note": 55,
      "start": 4.0776,
      "duration": 1.9418,
      "velocity": 127,
      "chip": "ym2612"
    },
    {
      "channel": 1,
      "note": 95,
      "start": 4.0779,
      "duration": 0.0286,
      "velocity": 121,
      "chip": "ym2612"
    },
    {
      "channel": 3,
      "note": 59,
      "start": 4.0783,
      "duration": 1.9419,
      "velocity": 121,
      "chip": "ym2612"
    },
    {
      "channel": 4,
      "note": 62,
      "start": 4.0786,
      "duration": 1.9419,
      "velocity": 121,
      "chip": "ym2612"
    },
    {
      "channel": 2,
      "note": 99,
      "start": 4.082,
      "duration": 0.1247,
      "velocity": 125,
      "chip": "ym2612"
    },
    {
      "channel": 1,
      "note": 95,
      "start": 4.1067,
      "duration": 0.0998,
      "velocity": 121,
      "chip": "ym2612"
    },
    {
      "channel": 1,
      "note": 95,
      "start": 4.2066,
      "duration": 0.0998,
      "velocity": 121,
      "chip": "ym2612"
    },
    {
      "channel": 2,
      "note": 95,
      "start": 4.207,
      "duration": 0.1495,
      "velocity": 125,
      "chip": "ym2612"
    },
    {
      "channel": 1,
      "note": 95,
      "start": 4.3067,
      "duration": 0.0998,
      "velocity": 121,
      "chip": "ym2612"
    },
    {
      "channel": 2,
      "note": 97,
      "start": 4.3568,
      "duration": 0.1499,
      "velocity": 125,
      "chip": "ym2612"
    },
    {
      "channel": 1,
      "note": 95,
      "start": 4.4066,
      "duration": 0.0998,
      "velocity": 121,
      "chip": "ym2612"
    },
    {
      "channel": 1,
      "note": 95,
      "start": 4.5066,
      "duration": 0.0998,
      "velocity": 121,
      "chip": "ym2612"
    },
    {
      "channel": 2,
      "note": 93,
      "start": 4.507,
      "duration": 0.1495,
      "velocity": 125,
      "chip": "ym2612"
    },
    {
      "channel": 1,
      "note": 95,
      "start": 4.6067,
      "duration": 0.0998,
      "velocity": 121,
      "chip": "ym2612"
    },
    {
      "channel": 2,
      "note": 88,
      "start": 4.6569,
      "duration": 0.1498,
      "velocity": 125,
      "chip": "ym2612"
    },
    {
      "channel": 1,
      "note": 95,
      "start": 4.7066,
      "duration": 0.0998,
      "velocity": 121,
      "chip": "ym2612"
    },
    {
      "channel": 1,
      "note": 95,
      "start": 4.8066,
      "duration": 0.1,
      "velocity": 121,
      "chip": "ym2612"
    },
    {
      "channel": 2,
      "note": 100,
      "start": 4.807,
      "duration": 0.1498,
      "velocity": 125,
      "chip": "ym2612"
    },
    {
      "channel": 1,
      "note": 95,
      "start": 4.9069,
      "duration": 0.0996,
      "velocity": 121,
      "chip": "ym2612"
    },
    {
      "channel": 2,
      "note": 99,
      "start": 4.957,
      "duration": 0.1497,
      "velocity": 125,
      "chip": "ym2612"
    },
    {
      "channel": 1,
      "note": 95,
      "start": 5.0066,
      "duration": 0.0998,
      "velocity": 121,
      "chip": "ym2612"
    },
    {
      "channel": 1,
      "note": 95,
      "start": 5.1066,
      "duration": 0.0998,
      "velocity": 121,
      "chip": "ym2612"
    },
    {
      "channel": 2,
      "note": 95,
      "start": 5.107,
      "duration": 0.1495,
      "velocity": 125,
      "chip": "ym2612"
    },
    {
      "channel": 1,
      "note": 95,
      "start": 5.2067,
      "duration": 0.0998,
      "velocity": 121,
      "chip": "ym2612"
    },
    {
      "channel": 2,
      "note": 97,
      "start": 5.2569,
      "duration": 0.1498,
      "velocity": 125,
      "chip": "ym2612"
    },
    {
      "channel": 1,
      "note": 95,
      "start": 5.3066,
      "duration": 0.0998,
      "velocity": 121,
      "chip": "ym2612"
    },
    {
      "channel": 1,
      "note": 95,
      "start": 5.4066,
      "duration": 0.0998,
      "velocity": 121,
      "chip": "ym2612"
    },
    {
      "channel": 2,
      "note": 93,
      "start": 5.407,
      "duration": 0.1495,
      "velocity": 125,
      "chip": "ym2612"
    },
    {
      "channel": 1,
      "note": 95,
      "start": 5.5067,
      "duration": 0.0998,
      "velocity": 121,
      "chip": "ym2612"
    },
    {
      "channel": 2,
      "note": 88,
      "start": 5.5569,
      "duration": 0.1498,
      "velocity": 125,
      "chip": "ym2612"
    },
    {
      "channel": 1,
      "note": 95,
      "start": 5.6066,
      "duration": 0.0998,
      "velocity": 121,
      "chip": "ym2612"
    },
    {
      "channel": 1,
      "note": 95,
      "start": 5.7066,
      "duration": 0.1,
      "velocity": 121,
      "chip": "ym2612"
    },
    {
      "channel": 2,
      "note": 100,
      "start": 5.707,
      "duration": 0.1046,
      "velocity": 125,
      "chip": "ym2612"
    },
    {
      "channel": 1,
      "note": 95,
      "start": 5.8069,
      "duration": 0.0126,
      "velocity": 121,
      "chip": "ym2612"
    },
    {
      "channel": 2,
      "note": 99,
      "start": 5.8119,
      "duration": 0.1079,
      "velocity": 125,
      "chip": "ym2612"
    },
    {
      "channel": 1,
      "note": 95,
      "start": 5.8197,
      "duration": 0.0998,
      "velocity": 121,
      "chip": "ym2612"
    },
    {
      "channel": 1,
      "note": 95,
      "start": 5.9197,
      "duration": 0.1001,
      "velocity": 121,
      "chip": "ym2612"
    },
    {
      "channel": 2,
      "note": 95,
      "start": 5.92,
      "duration": 0.1045,
      "velocity": 125,
      "chip": "ym2612"
    },
    {
      "channel": 0,
      "note": 57,
      "start": 6.0197,
      "duration": 0.8888,
      "velocity": 127,
      "chip": "ym2612"
    },
    {
      "channel": 1,
      "note": 95,
      "start": 6.02,
      "duration": 0.009,
      "velocity": 121,
      "chip": "ym2612"
    },
    {
      "channel": 3,
      "note": 61,
      "start": 6.0204,
      "duration": 0.8904,
      "velocity": 114,
      "chip": "ym2612"
    },
    {
      "channel": 4,
      "note": 64,
      "start": 6.0207,
      "duration": 0.8912,
      "velocity": 114,
      "chip": "ym2612"
    },
    {
      "channel": 2,
      "note": 97,
      "start": 6.0248,
      "duration": 0.0987,
      "velocity": 125,
      "chip": "ym2612"
    },
    {
      "channel": 1,
      "note": 95,
      "start": 6.0291,
      "duration": 0.0941,
      "velocity": 121,
      "chip": "ym2612"
    },
    {
      "channel": 1,
      "note": 95,
      "start": 6.1234,
      "duration": 0.0999,
      "velocity": 121,
      "chip": "ym2612"
    },
    {
      "channel": 2,
      "note": 93,
      "start": 6.1238,
      "duration": 0.1038,
      "velocity": 125,
      "chip": "ym2612"
    },
    {
      "channel": 1,
      "note": 95,
      "start": 6.2235,
      "duration": 0.0082,
      "velocity": 121,
      "chip": "ym2612"
    },
    {
      "channel": 2,
      "note": 88,
      "start": 6.2278,
      "duration": 0.0988,
      "velocity": 125,
      "chip": "ym2612"
    },
    {
      "channel": 1,
      "note": 95,
      "start": 6.2317,
      "duration": 0.0946,
      "velocity": 121,
      "chip": "ym2612"
    },
    {
      "channel": 1,
      "note": 95,
      "start": 6.3266,
      "duration": 0.1001,
      "velocity": 121,
      "chip": "ym2612"
    },
    {
      "channel": 2,
      "note": 100,
      "start": 6.3269,
      "duration": 0.1032,
      "velocity": 125,
      "chip": "ym2612"
    },
    {
      "channel": 1,
      "note": 95,
      "start": 6.4268,
      "duration": 0.0283,
      "velocity": 121,
      "chip": "ym2612"
    },
    {
      "channel": 2,
      "note": 99,
      "start": 6.4304,
      "duration": 0.125,
      "velocity": 125,
      "chip": "ym2612"
    },
    {
      "channel": 1,
      "note": 95,
      "start": 6.4553,
      "duration": 0.0998,
      "velocity": 121,
      "chip": "ym2612"
    },
    {
      "channel": 1,
      "note": 95,
      "start": 6.5553,
      "duration": 0.0999,
      "velocity": 121,
      "chip": "ym2612"
    },
    {
      "channel": 2,
      "note": 95,
      "start": 6.5557,
      "duration": 0.103,
      "velocity": 125,
      "chip": "ym2612"
    },
    {
      "channel": 1,
      "note": 95,
      "start": 6.6554,
      "duration": 0.0066,
      "velocity": 121,
      "chip": "ym2612"
    },
    {
      "channel": 2,
      "note": 97,
      "start": 6.659,
      "duration": 0.0098,
      "velocity": 125,
      "chip": "ym2612"
    },
    {
      "channel": 1,
      "note": 95,
      "start": 6.662,
      "duration": 0.0065,
      "velocity": 121,
      "chip": "ym2612"
    },
    {
      "channel": 1,
      "note": 95,
      "start": 6.6687,
      "duration": 0.0563,
      "velocity": 121,
      "chip": "ym2612"
    },
    {
      "channel": 2,
      "note": 93,
      "start": 6.669,
      "duration": 0.0606,
      "velocity": 125,
      "chip": "ym2612"
    },
    {
      "channel": 1,
      "note": 95,
      "start": 6.7253,
      "duration": 0.0087,
      "velocity": 121,
      "chip": "ym2612"
    },
    {
      "channel": 2,
      "note": 88,
      "start": 6.7299,
      "duration": 0.0787,
      "velocity": 125,
      "chip": "ym2612"
    },
    {
      "channel": 1,
      "note": 95,
      "start": 6.7342,
      "duration": 0.0741,
      "velocity": 121,
      "chip": "ym2612"
    },
    {
      "channel": 1,
      "note": 95,
      "start": 6.8085,
      "duration": 0.101,
      "velocity": 125,
      "chip": "ym2612"
    },
    {
      "channel": 2,
      "note": 100,
      "start": 6.8089,
      "duration": 0.1064,
      "velocity": 125,
      "chip": "ym2612"
    },
    {
      "channel": 1,
      "note": 87,
      "start": 6.9098,
      "duration": 0.0089,
      "velocity": 125,
      "chip": "ym2612"
    },
    {
      "channel": 3,
      "note": 51,
      "start": 6.911,
      "duration": 0.0079,
      "velocity": 114,
      "chip": "ym2612"
    },
    {
      "channel": 4,
      "note": 51,
      "start": 6.9122,
      "duration": 0.007,
      "velocity": 114,
      "chip": "ym2612"
    },
    {
      "channel": 2,
      "note": 87,
      "start": 6.9155,
      "duration": 0.0068,
      "velocity": 125,
      "chip": "ym2612"
    },
    {
      "channel": 1,
      "note": 88,
      "start": 6.9188,
      "duration": 0.0064,
      "velocity": 125,
      "chip": "ym2612"
    },
    {
      "channel": 3,
      "note": 52,
      "start": 6.9191,
      "duration": 0.0065,
      "velocity": 114,
      "chip": "ym2612"
    },
    {
      "channel": 4,
      "note": 52,
      "start": 6.9193,
      "duration": 0.0065,
      "velocity": 114,
      "chip": "ym2612"
    },
    {
      "channel": 2,
      "note": 88,
      "start": 6.9225,
      "duration": 0.0063,
      "velocity": 125,
      "chip": "ym2612"
    },
    {
      "channel": 1,
      "note": 89,
      "start": 6.9254,
      "duration": 0.0065,
      "velocity": 125,
      "chip": "ym2612"
    },
    {
      "channel": 3,
      "note": 53,
      "start": 6.9257,
      "duration": 0.0065,
      "velocity": 114,
      "chip": "ym2612"
    },
    {
      "channel": 4,
      "note": 53,
      "start": 6.9259,
      "duration": 0.0065,
      "velocity": 114,
      "chip": "ym2612"
    },
    {
      "channel": 2,
      "note": 89,
      "start": 6.9291,
      "duration": 0.0063,
      "velocity": 125,
      "chip": "ym2612"
    },
    {
      "channel": 1,
      "note": 90,
      "start": 6.932,
      "duration": 0.0064,
      "velocity": 125,
      "chip": "ym2612"
    },
    {
      "channel": 3,
      "note": 54,
      "start": 6.9324,
      "duration": 0.0064,
      "velocity": 114,
      "chip": "ym2612"
    },
    {
      "channel": 4,
      "note": 54,
      "start": 6.9326,
      "duration": 0.0065,
      "velocity": 114,
      "chip": "ym2612"
    },
    {
      "channel": 2,
      "note": 90,
      "start": 6.9357,
      "duration": 0.0063,
      "velocity": 125,
      "chip": "ym2612"
    },
    {
      "channel": 1,
      "note": 91,
      "start": 6.9386,
      "duration": 0.0063,
      "velocity": 125,
      "chip": "ym2612"
    },
    {
      "channel": 3,
      "note": 55,
      "start": 6.939,
      "duration": 0.0062,
      "velocity": 114,
      "chip": "ym2612"
    },
    {
      "channel": 4,
      "note": 55,
      "start": 6.9392,
      "duration": 0.0062,
      "velocity": 114,
      "chip": "ym2612"
    },
    {
      "channel": 2,
      "note": 91,
      "start": 6.9421,
      "duration": 0.0348,
      "velocity": 125,
      "chip": "ym2612"
    },
    {
      "channel": 1,
      "note": 92,
      "start": 6.945,
      "duration": 0.0819,
      "velocity": 125,
      "chip": "ym2612"
    },
    {
      "channel": 3,
      "note": 56,
      "start": 6.9454,
      "duration": 0.0819,
      "velocity": 114,
      "chip": "ym2612"
    },
    {
      "channel": 4,
      "note": 56,
      "start": 6.9456,
      "duration": 0.0818,
      "velocity": 114,
      "chip": "ym2612"
    },
    {
      "channel": 2,
      "note": 92,
      "start": 6.9772,
      "duration": 0.0536,
      "velocity": 125,
      "chip": "ym2612"
    },
    {
      "channel": 1,
      "note": 93,
      "start": 7.0271,
      "duration": 0.0071,
      "velocity": 125,
      "chip": "ym2612"
    },
    {
      "channel": 3,
      "note": 57,
      "start": 7.0274,
      "duration": 0.0071,
      "velocity": 114,
      "chip": "ym2612"
    },
    {
      "channel": 4,
      "note": 57,
      "start": 7.0276,
      "duration": 0.0071,
      "velocity": 114,
      "chip": "ym2612"
    },
    {
      "channel": 2,
      "note": 93,
      "start": 7.031,
      "duration": 0.0069,
      "velocity": 125,
      "chip": "ym2612"
    },
    {
      "channel": 1,
      "note": 94,
      "start": 7.0344,
      "duration": 0.0068,
      "velocity": 125,
      "chip": "ym2612"
    },
    {
      "channel": 3,
      "note": 58,
      "start": 7.0347,
      "duration": 0.0069,
      "velocity": 114,
      "chip": "ym2612"
    },
    {
      "channel": 4,
      "note": 58,
      "start": 7.035,
      "duration": 0.0068,
      "velocity": 114,
      "chip": "ym2612"
    },
    {
      "channel": 2,
      "note": 94,
      "start": 7.0381,
      "duration": 0.0067,
      "velocity": 125,
      "chip": "ym2612"
    },
    {
      "channel": 1,
      "note": 95,
      "start": 7.0414,
      "duration": 0.0066,
      "velocity": 125,
      "chip": "ym2612"
    },
    {
      "channel": 3,
      "note": 59,
      "start": 7.0417,
      "duration": 0.0067,
      "velocity": 114,
      "chip": "ym2612"
    },
    {
      "channel": 4,
      "note": 59,
      "start": 7.042,
      "duration": 0.0067,
      "velocity": 114,
      "chip": "ym2612"
    },
    {
      "channel": 2,
      "note": 95,
      "start": 7.0451,
      "duration": 0.0067,
      "velocity": 125,
      "chip": "ym2612"
    },
    {
      "channel": 1,
      "note": 96,
      "start": 7.0482,
      "duration": 0.0069,
      "velocity": 125,
      "chip": "ym2612"
    },
    {
      "channel": 3,
      "note": 60,
      "start": 7.0486,
      "duration": 0.007,
      "velocity": 114,
      "chip": "ym2612"
    },
    {
      "channel": 4,
      "note": 60,
      "start": 7.0488,
      "duration": 0.0069,
      "velocity": 114,
      "chip": "ym2612"
    },
    {
      "channel": 2,
      "note": 96,
      "start": 7.052,
      "duration": 0.0068,
      "velocity": 125,
      "chip": "ym2612"
    },
    {
      "channel": 1,
      "note": 97,
      "start": 7.0554,
      "duration": 0.0067,
      "velocity": 125,
      "chip": "ym2612"
    },
    {
      "channel": 3,
      "note": 61,
      "start": 7.0557,
      "duration": 0.0067,
      "velocity": 114,
      "chip": "ym2612"
    },
    {
      "channel": 4,
      "note": 61,
      "start": 7.0559,
      "duration": 0.0067,
      "velocity": 114,
      "chip": "ym2612"
    },
    {
      "channel": 2,
      "note": 97,
      "start": 7.059,
      "duration": 0.0065,
      "velocity": 125,
      "chip": "ym2612"
    },
    {
      "channel": 1,
      "note": 98,
      "start": 7.0622,
      "duration": 0.0085,
      "velocity": 111,
      "chip": "ym2612"
    },
    {
      "channel": 3,
      "note": 62,
      "start": 7.0626,
      "duration": 0.0095,
      "velocity": 113,
      "chip": "ym2612"
    },
    {
      "channel": 4,
      "note": 62,
      "start": 7.0628,
      "duration": 0.0106,
      "velocity": 101,
      "chip": "ym2612"
    },
    {
      "channel": 2,
      "note": 98,
      "start": 7.0658,
      "duration": 0.011,
      "velocity": 125,
      "chip": "ym2612"
    },
    {
      "channel": 0,
      "note": 59,
      "start": 7.0698,
      "duration": 0.3885,
      "velocity": 121,
      "chip": "ym2612"
    },
    {
      "channel": 1,
      "note": 75,
      "start": 7.0709,
      "duration": 0.9604,
      "velocity": 111,
      "chip": "ym2612"
    },
    {
      "channel": 3,
      "note": 95,
      "start": 7.0723,
      "duration": 0.0764,
      "velocity": 113,
      "chip": "ym2612"
    },
    {
      "channel": 4,
      "note": 59,
      "start": 7.0736,
      "duration": 0.9582,
      "velocity": 101,
      "chip": "ym2612"
    },
    {
      "channel": 2,
      "note": 99,
      "start": 7.0771,
      "duration": 0.1215,
      "velocity": 125,
      "chip": "ym2612"
    },
    {
      "channel": 3,
      "note": 95,
      "start": 7.1489,
      "duration": 0.1498,
      "velocity": 113,
      "chip": "ym2612"
    },
    {
      "channel": 2,
      "note": 95,
      "start": 7.1988,
      "duration": 0.1028,
      "velocity": 125,
      "chip": "ym2612"
    },
    {
      "channel": 2,
      "note": 97,
      "start": 7.3017,
      "duration": 0.0101,
      "velocity": 125,
      "chip": "ym2612"
    },
    {
      "channel": 3,
      "note": 95,
      "start": 7.3089,
      "duration": 0.0102,
      "velocity": 113,
      "chip": "ym2612"
    },
    {
      "channel": 2,
      "note": 93,
      "start": 7.3122,
      "duration": 0.01,
      "velocity": 125,
      "chip": "ym2612"
    },
    {
      "channel": 3,
      "note": 95,
      "start": 7.3192,
      "duration": 0.0099,
      "velocity": 113,
      "chip": "ym2612"
    },
    {
      "channel": 2,
      "note": 88,
      "start": 7.3223,
      "duration": 0.0098,
      "velocity": 125,
      "chip": "ym2612"
    },
    {
      "channel": 2,
      "note": 100,
      "start": 7.3323,
      "duration": 0.0599,
      "velocity": 125,
      "chip": "ym2612"
    },
    {
      "channel": 3,
      "note": 95,
      "start": 7.3889,
      "duration": 0.0101,
      "velocity": 113,
      "chip": "ym2612"
    },
    {
      "channel": 2,
      "note": 99,
      "start": 7.3924,
      "duration": 0.01,
      "velocity": 125,
      "chip": "ym2612"
    },
    {
      "channel": 3,
      "note": 95,
      "start": 7.3992,
      "duration": 0.0598,
      "velocity": 113,
      "chip": "ym2612"
    },
    {
      "channel": 2,
      "note": 95,
      "start": 7.4025,
      "duration": 0.0596,
      "velocity": 125,
      "chip": "ym2612"
    },
    {
      "channel": 0,
      "note": 47,
      "start": 7.4587,
      "duration": 0.4804,
      "velocity": 121,
      "chip": "ym2612"
    },
    {
      "channel": 2,
      "note": 97,
      "start": 7.4623,
      "duration": 0.0102,
      "velocity": 125,
      "chip": "ym2612"
    },
    {
      "channel": 3,
      "note": 95,
      "start": 7.4695,
      "duration": 0.0101,
      "velocity": 113,
      "chip": "ym2612"
    },
    {
      "channel": 2,
      "note": 93,
      "start": 7.4727,
      "duration": 0.0104,
      "velocity": 125,
      "chip": "ym2612"
    },
    {
      "channel": 3,
      "note": 95,
      "start": 7.4798,
      "duration": 0.01,
      "velocity": 113,
      "chip": "ym2612"
    },
    {
      "channel": 2,
      "note": 88,
      "start": 7.4833,
      "duration": 0.0094,
      "velocity": 125,
      "chip": "ym2612"
    },
    {
      "channel": 2,
      "note": 100,
      "start": 7.4929,
      "duration": 0.0602,
      "velocity": 125,
      "chip": "ym2612"
    },
    {
      "channel": 3,
      "note": 95,
      "start": 7.5496,
      "duration": 0.0793,
      "velocity": 113,
      "chip": "ym2612"
    },
    {
      "channel": 2,
      "note": 99,
      "start": 7.5534,
      "duration": 0.1253,
      "velocity": 125,
      "chip": "ym2612"
    },
    {
      "channel": 3,
      "note": 95,
      "start": 7.6291,
      "duration": 0.1497,
      "velocity": 113,
      "chip": "ym2612"
    },
    {
      "channel": 2,
      "note": 95,
      "start": 7.679,
      "duration": 0.1029,
      "velocity": 125,
      "chip": "ym2612"
    },
    {
      "channel": 2,
      "note": 97,
      "start": 7.7821,
      "duration": 0.0106,
      "velocity": 125,
      "chip": "ym2612"
    },
    {
      "channel": 3,
      "note": 95,
      "start": 7.7896,
      "duration": 0.0102,
      "velocity": 113,
      "chip": "ym2612"
    },
    {
      "channel": 2,
      "note": 93,
      "start": 7.7929,
      "duration": 0.0102,
      "velocity": 125,
      "chip": "ym2612"
    },
    {
      "channel": 3,
      "note": 95,
      "start": 7.8,
      "duration": 0.01,
      "velocity": 113,
      "chip": "ym2612"
    },
    {
      "channel": 2,
      "note": 88,
      "start": 7.8034,
      "duration": 0.0094,
      "velocity": 125,
      "chip": "ym2612"
    },
    {
      "channel": 2,
      "note": 100,
      "start": 7.8131,
      "duration": 0.0599,
      "velocity": 125,
      "chip": "ym2612"
    },
    {
      "channel": 3,
      "note": 95,
      "start": 7.8695,
      "duration": 0.0108,
      "velocity": 113,
      "chip": "ym2612"
    },
    {
      "channel": 2,
      "note": 99,
      "start": 7.8732,
      "duration": 0.0099,
      "velocity": 125,
      "chip": "ym2612"
    },
    {
      "channel": 2,
      "note": 95,
      "start": 7.8833,
      "duration": 0.06,
      "velocity": 125,
      "chip": "ym2612"
    },
    {
      "channel": 0,
      "note": 59,
      "start": 7.9394,
      "duration": 0.0915,
      "velocity": 121,
      "chip": "ym2612"
    },
    {
      "channel": 3,
      "note": 95,
      "start": 7.9398,
      "duration": 0.0109,
      "velocity": 113,
      "chip": "ym2612"
    },
    {
      "channel": 2,
      "note": 97,
      "start": 7.9435,
      "duration": 0.0104,
      "velocity": 125,
      "chip": "ym2612"
    },
    {
      "channel": 3,
      "note": 95,
      "start": 7.9508,
      "duration": 0.0103,
      "velocity": 113,
      "chip": "ym2612"
    },
    {
      "channel": 2,
      "note": 93,
      "start": 7.9542,
      "duration": 0.0101,
      "velocity": 125,
      "chip": "ym2612"
    },
    {
      "channel": 2,
      "note": 88,
      "start": 7.9646,
      "duration": 0.0094,
      "velocity": 125,
      "chip": "ym2612"
    },
    {
      "channel": 3,
      "note": 95,
      "start": 7.9708,
      "duration": 0.0607,
      "velocity": 113,
      "chip": "ym2612"
    },
    {
      "channel": 2,
      "note": 100,
      "start": 7.9742,
      "duration": 0.0611,
      "velocity": 125,
      "chip": "ym2612"
    },
    {
      "channel": 0,
      "note": 59,
      "start": 8.0312,
      "duration": 0.3894,
      "velocity": 121,
      "chip": "ym2612"
    },
    {
      "channel": 1,
      "note": 75,
      "start": 8.0314,
      "duration": 0.9625,
      "velocity": 111,
      "chip": "ym2612"
    },
    {
      "channel": 3,
      "note": 95,
      "start": 8.0317,
      "duration": 0.0788,
      "velocity": 113,
      "chip": "ym2612"
    },
    {
      "channel": 4,
      "note": 57,
      "start": 8.0319,
      "duration": 0.9626,
      "velocity": 101,
      "chip": "ym2612"
    },
    {
      "channel": 2,
      "note": 99,
      "start": 8.0355,
      "duration": 0.1249,
      "velocity": 125,
      "chip": "ym2612"
    },
    {
      "channel": 3,
      "note": 95,
      "start": 8.1108,
      "duration": 0.1498,
      "velocity": 113,
      "chip": "ym2612"
    },
    {
      "channel": 2,
      "note": 95,
      "start": 8.1606,
      "duration": 0.1029,
      "velocity": 125,
      "chip": "ym2612"
    },
    {
      "channel": 2,
      "note": 97,
      "start": 8.2636,
      "duration": 0.0102,
      "velocity": 125,
      "chip": "ym2612"
    },
    {
      "channel": 3,
      "note": 95,
      "start": 8.2707,
      "duration": 0.0101,
      "velocity": 113,
      "chip": "ym2612"
    },
    {
      "channel": 2,
      "note": 93,
      "start": 8.274,
      "duration": 0.0099,
      "velocity": 125,
      "chip": "ym2612"
    },
    {
      "channel": 3,
      "note": 95,
      "start": 8.281,
      "duration": 0.01,
      "velocity": 113,
      "chip": "ym2612"
    },
    {
      "channel": 2,
      "note": 88,
      "start": 8.2841,
      "duration": 0.0098,
      "velocity": 125,
      "chip": "ym2612"
    },
    {
      "channel": 2,
      "note": 100,
      "start": 8.2942,
      "duration": 0.0599,
      "velocity": 125,
      "chip": "ym2612"
    },
    {
      "channel": 3,
      "note": 95,
      "start": 8.3508,
      "duration": 0.0105,
      "velocity": 113,
      "chip": "ym2612"
    },
    {
      "channel": 2,
      "note": 99,
      "start": 8.3542,
      "duration": 0.0102,
      "velocity": 125,
      "chip": "ym2612"
    },
    {
      "channel": 3,
      "note": 95,
      "start": 8.3615,
      "duration": 0.0596,
      "velocity": 113,
      "chip": "ym2612"
    },
    {
      "channel": 2,
      "note": 95,
      "start": 8.3647,
      "duration": 0.0595,
      "velocity": 125,
      "chip": "ym2612"
    },
    {
      "channel": 0,
      "note": 47,
      "start": 8.4208,
      "duration": 0.3196,
      "velocity": 121,
      "chip": "ym2612"
    },
    {
      "channel": 2,
      "note": 97,
      "start": 8.4244,
      "duration": 0.0102,
      "velocity": 125,
      "chip": "ym2612"
    },
    {
      "channel": 3,
      "note": 95,
      "start": 8.4317,
      "duration": 0.0101,
      "velocity": 113,
      "chip": "ym2612"
    },
    {
      "channel": 2,
      "note": 93,
      "start": 8.4349,
      "duration": 0.0104,
      "velocity": 125,
      "chip": "ym2612"
    },
    {
      "channel": 3,
      "note": 95,
      "start": 8.442,
      "duration": 0.0101,
      "velocity": 113,
      "chip": "ym2612"
    },
    {
      "channel": 2,
      "note": 88,
      "start": 8.4455,
      "duration": 0.0094,
      "velocity": 125,
      "chip": "ym2612"
    },
    {
      "channel": 2,
      "note": 100,
      "start": 8.4551,
      "duration": 0.06,
      "velocity": 125,
      "chip": "ym2612"
    },
    {
      "channel": 3,
      "note": 95,
      "start": 8.5115,
      "duration": 0.0793,
      "velocity": 113,
      "chip": "ym2612"
    },
    {
      "channel": 2,
      "note": 99,
      "start": 8.5154,
      "duration": 0.1253,
      "velocity": 125,
      "chip": "ym2612"
    },
    {
      "channel": 2,
      "note": 95,
      "start": 8.641,
      "duration": 0.1036,
      "velocity": 125,
      "chip": "ym2612"
    },
    {
      "channel": 0,
      "note": 59,
      "start": 8.7407,
      "duration": 0.1617,
      "velocity": 121,
      "chip": "ym2612"
    },
    {
      "channel": 3,
      "note": 95,
      "start": 8.7411,
      "duration": 0.0109,
      "velocity": 113,
      "chip": "ym2612"
    },
    {
      "channel": 2,
      "note": 97,
      "start": 8.7448,
      "duration": 0.0102,
      "velocity": 125,
      "chip": "ym2612"
    },
    {
      "channel": 2,
      "note": 93,
      "start": 8.7553,
      "duration": 0.011,
      "velocity": 125,
      "chip": "ym2612"
    },
    {
      "channel": 3,
      "note": 95,
      "start": 8.7629,
      "duration": 0.01,
      "velocity": 113,
      "chip": "ym2612"
    },
    {
      "channel": 2,
      "note": 88,
      "start": 8.7664,
      "duration": 0.0093,
      "velocity": 125,
      "chip": "ym2612"
    },
    {
      "channel": 2,
      "note": 100,
      "start": 8.776,
      "duration": 0.0601,
      "velocity": 125,
      "chip": "ym2612"
    },
    {
      "channel": 3,
      "note": 95,
      "start": 8.8328,
      "duration": 0.0102,
      "velocity": 113,
      "chip": "ym2612"
    },
    {
      "channel": 2,
      "note": 99,
      "start": 8.8362,
      "duration": 0.0099,
      "velocity": 125,
      "chip": "ym2612"
    },
    {
      "channel": 3,
      "note": 95,
      "start": 8.8432,
      "duration": 0.0599,
      "velocity": 113,
      "chip": "ym2612"
    },
    {
      "channel": 2,
      "note": 95,
      "start": 8.8463,
      "duration": 0.0598,
      "velocity": 125,
      "chip": "ym2612"
    },
    {
      "channel": 0,
      "note": 52,
      "start": 8.9027,
      "duration": 0.0102,
      "velocity": 121,
      "chip": "ym2612"
    },
    {
      "channel": 2,
      "note": 97,
      "start": 8.9063,
      "duration": 0.0105,
      "velocity": 125,
      "chip": "ym2612"
    },
    {
      "channel": 0,
      "note": 54,
      "start": 8.9133,
      "duration": 0.0105,
      "velocity": 121,
      "chip": "ym2612"
    },
    {
      "channel": 3,
      "note": 95,
      "start": 8.9137,
      "duration": 0.0108,
      "velocity": 113,
      "chip": "ym2612"
    },
    {
      "channel": 2,
      "note": 93,
      "start": 8.917,
      "duration": 0.0105,
      "velocity": 125,
      "chip": "ym2612"
    },
    {
      "channel": 0,
      "note": 59,
      "start": 8.9241,
      "duration": 0.0693,
      "velocity": 121,
      "chip": "ym2612"
    },
    {
      "channel": 2,
      "note": 88,
      "start": 8.9278,
      "duration": 0.0093,
      "velocity": 125,
      "chip": "ym2612"
    },
    {
      "channel": 3,
      "note": 95,
      "start": 8.934,
      "duration": 0.0602,
      "velocity": 113,
      "chip": "ym2612"
    },
    {
      "channel": 2,
      "note": 100,
      "start": 8.9372,
      "duration": 0.0605,
      "velocity": 125,
      "chip": "ym2612"
    },
    {
      "channel": 0,
      "note": 59,
      "start": 8.9938,
      "duration": 0.39,
      "velocity": 121,
      "chip": "ym2612"
    },
    {
      "channel": 1,
      "note": 75,
      "start": 8.994,
      "duration": 0.9615,
      "velocity": 111,
      "chip": "ym2612"
    },
    {
      "channel": 3,
      "note": 95,
      "start": 8.9944,
      "duration": 0.0785,
      "velocity": 113,
      "chip": "ym2612"
    },
    {
      "channel": 4,
      "note": 59,
      "start": 8.9946,
      "duration": 0.9614,
      "velocity": 101,
      "chip": "ym2612"
    },
    {
      "channel": 2,
      "note": 99,
      "start": 8.9979,
      "duration": 0.1248,
      "velocity": 125,
      "chip": "ym2612"
    },
    {
      "channel": 2,
      "note": 95,
      "start": 9.123,
      "duration": 0.1035,
      "velocity": 125,
      "chip": "ym2612"
    },
    {
      "channel": 3,
      "note": 95,
      "start": 9.2231,
      "duration": 0.0108,
      "velocity": 113,
      "chip": "ym2612"
    },
    {
      "channel": 2,
      "note": 97,
      "start": 9.2268,
      "duration": 0.0104,
      "velocity": 125,
      "chip": "ym2612"
    },
    {
      "channel": 3,
      "note": 95,
      "start": 9.2341,
      "duration": 0.0101,
      "velocity": 113,
      "chip": "ym2612"
    },
    {
      "channel": 2,
      "note": 93,
      "start": 9.2375,
      "duration": 0.0099,
      "velocity": 125,
      "chip": "ym2612"
    },
    {
      "channel": 3,
      "note": 95,
      "start": 9.2444,
      "duration": 0.01,
      "velocity": 113,
      "chip": "ym2612"
    },
    {
      "channel": 2,
      "note": 88,
      "start": 9.2476,
      "duration": 0.0098,
      "velocity": 125,
      "chip": "ym2612"
    },
    {
      "channel": 2,
      "note": 100,
      "start": 9.2576,
      "duration": 0.0599,
      "velocity": 125,
      "chip": "ym2612"
    },
    {
      "channel": 3,
      "note": 95,
      "start": 9.3142,
      "duration": 0.0101,
      "velocity": 113,
      "chip": "ym2612"
    },
    {
      "channel": 2,
      "note": 99,
      "start": 9.3178,
      "duration": 0.0097,
      "velocity": 125,
      "chip": "ym2612"
    },
    {
      "channel": 3,
      "note": 95,
      "start": 9.3245,
      "duration": 0.0598,
      "velocity": 113,
      "chip": "ym2612"
    },
    {
      "channel": 2,
      "note": 95,
      "start": 9.3276,
      "duration": 0.0596,
      "velocity": 125,
      "chip": "ym2612"
    },
    {
      "channel": 0,
      "note": 47,
      "start": 9.3841,
      "duration": 0.4804,
      "velocity": 121,
      "chip": "ym2612"
    },
    {
      "channel": 2,
      "note": 97,
      "start": 9.3874,
      "duration": 0.0105,
      "velocity": 125,
      "chip": "ym2612"
    },
    {
      "channel": 3,
      "note": 95,
      "start": 9.3946,
      "duration": 0.0106,
      "velocity": 113,
      "chip": "ym2612"
    },
    {
      "channel": 2,
      "note": 93,
      "start": 9.3981,
      "duration": 0.0105,
      "velocity": 125,
      "chip": "ym2612"
    },
    {
      "channel": 3,
      "note": 95,
      "start": 9.4054,
      "duration": 0.01,
      "velocity": 113,
      "chip": "ym2612"
    },
    {
      "channel": 2,
      "note": 88,
      "start": 9.4088,
      "duration": 0.0097,
      "velocity": 125,
      "chip": "ym2612"
    },
    {
      "channel": 2,
      "note": 100,
      "start": 9.4187,
      "duration": 0.06,
      "velocity": 125,
      "chip": "ym2612"
    },
    {
      "channel": 3,
      "note": 95,
      "start": 9.4752,
      "duration": 0.0791,
      "velocity": 113,
      "chip": "ym2612"
    },
    {
      "channel": 2,
      "note": 99,
      "start": 9.479,
      "duration": 0.1252,
      "velocity": 125,
      "chip": "ym2612"
    },
    {
      "channel": 3,
      "note": 95,
      "start": 9.5546,
      "duration": 0.1497,
      "velocity": 113,
      "chip": "ym2612"
    },
    {
      "channel": 2,
      "note": 95,
      "start": 9.6045,
      "duration": 0.1028,
      "velocity": 125,
      "chip": "ym2612"
    },
    {
      "channel": 2,
      "note": 97,
      "start": 9.7074,
      "duration": 0.0105,
      "velocity": 125,
      "chip": "ym2612"
    },
    {
      "channel": 3,
      "note": 95,
      "start": 9.7147,
      "duration": 0.0105,
      "velocity": 113,
      "chip": "ym2612"
    },
    {
      "channel": 2,
      "note": 93,
      "start": 9.718,
      "duration": 0.0103,
      "velocity": 125,
      "chip": "ym2612"
    },
    {
      "channel": 2,
      "note": 88,
      "start": 9.7285,
      "duration": 0.0091,
      "velocity": 125,
      "chip": "ym2612"
    },
    {
      "channel": 3,
      "note": 95,
      "start": 9.7347,
      "duration": 0.06,
      "velocity": 113,
      "chip": "ym2612"
    },
    {
      "channel": 2,
      "note": 100,
      "start": 9.7378,
      "duration": 0.0603,
      "velocity": 125,
      "chip": "ym2612"
    },
    {
      "channel": 3,
      "note": 95,
      "start": 9.7948,
      "duration": 0.0102,
      "velocity": 113,
      "chip": "ym2612"
    },
    {
      "channel": 2,
      "note": 99,
      "start": 9.7984,
      "duration": 0.0097,
      "velocity": 125,
      "chip": "ym2612"
    },
    {
      "channel": 3,
      "note": 95,
      "start": 9.8052,
      "duration": 0.0598,
      "velocity": 113,
      "chip": "ym2612"
    },
    {
      "channel": 2,
      "note": 95,
      "start": 9.8083,
      "duration": 0.0596,
      "velocity": 125,
      "chip": "ym2612"
    },
    {
      "channel": 0,
      "note": 59,
      "start": 9.8647,
      "duration": 0.0904,
      "velocity": 121,
      "chip": "ym2612"
    },
    {
      "channel": 2,
      "note": 97,
      "start": 9.8681,
      "duration": 0.0102,
      "velocity": 125,
      "chip": "ym2612"
    },
    {
      "channel": 3,
      "note": 95,
      "start": 9.8754,
      "duration": 0.0104,
      "velocity": 113,
      "chip": "ym2612"
    },
    {
      "channel": 2,
      "note": 93,
      "start": 9.8785,
      "duration": 0.0106,
      "velocity": 125,
      "chip": "ym2612"
    },
    {
      "channel": 3,
      "note": 95,
      "start": 9.886,
      "duration": 0.0099,
      "velocity": 113,
      "chip": "ym2612"
    },
    {
      "channel": 2,
      "note": 88,
      "start": 9.8895,
      "duration": 0.0094,
      "velocity": 125,
      "chip": "ym2612"
    },
    {
      "channel": 2,
      "note": 100,
      "start": 9.899,
      "duration": 0.0605,
      "velocity": 125,
      "chip": "ym2612"
    },
    {
      "channel": 0,
      "note": 59,
      "start": 9.9554,
      "duration": 0.3897,
      "velocity": 121,
      "chip": "ym2612"
    },
    {
      "channel": 1,
      "note": 74,
      "start": 9.9556,
      "duration": 0.4807,
      "velocity": 111,
      "chip": "ym2612"
    },
    {
      "channel": 3,
      "note": 95,
      "start": 9.956,
      "duration": 0.0787,
      "velocity": 113,
      "chip": "ym2612"
    },
    {
      "channel": 4,
      "note": 55,
      "start": 9.9561,
      "duration": 0.4807,
      "velocity": 101,
      "chip": "ym2612"
    },
    {
      "channel": 2,
      "note": 99,
      "start": 9.9597,
      "duration": 0.1249,
      "velocity": 125,
      "chip": "ym2612"
    },
    {
      "channel": 2,
      "note": 95,
      "start": 10.0848,
      "duration": 0.1033,
      "velocity": 125,
      "chip": "ym2612"
    },
    {
      "channel": 3,
      "note": 95,
      "start": 10.1849,
      "duration": 0.0108,
      "velocity": 113,
      "chip": "ym2612"
    },
    {
      "channel": 2,
      "note": 97,
      "start": 10.1884,
      "duration": 0.0102,
      "velocity": 125,
      "chip": "ym2612"
    },
    {
      "channel": 3,
      "note": 95,
      "start": 10.1959,
      "duration": 0.0098,
      "velocity": 113,
      "chip": "ym2612"
    },
    {
      "channel": 2,
      "note": 93,
      "start": 10.1988,
      "duration": 0.0098,
      "velocity": 125,
      "chip": "ym2612"
    },
    {
      "channel": 3,
      "note": 95,
      "start": 10.2058,
      "duration": 0.0097,
      "velocity": 113,
      "chip": "ym2612"
    },
    {
      "channel": 2,
      "note": 88,
      "start": 10.2088,
      "duration": 0.0097,
      "velocity": 125,
      "chip": "ym2612"
    },
    {
      "channel": 2,
      "note": 100,
      "start": 10.2187,
      "duration": 0.0599,
      "velocity": 125,
      "chip": "ym2612"
    },
    {
      "channel": 3,
      "note": 95,
      "start": 10.2753,
      "duration": 0.0106,
      "velocity": 113,
      "chip": "ym2612"
    },
    {
      "channel": 2,
      "note": 99,
      "start": 10.2788,
      "duration": 0.01,
      "velocity": 125,
      "chip": "ym2612"
    },
    {
      "channel": 3,
      "note": 95,
      "start": 10.286,
      "duration": 0.0597,
      "velocity": 113,
      "chip": "ym2612"
    },
    {
      "channel": 2,
      "note": 95,
      "start": 10.2891,
      "duration": 0.0595,
      "velocity": 125,
      "chip": "ym2612"
    },
    {
      "channel": 0,
      "note": 47,
      "start": 10.3454,
      "duration": 0.3194,
      "velocity": 121,
      "chip": "ym2612"
    },
    {
      "channel": 2,
      "note": 97,
      "start": 10.3488,
      "duration": 0.0104,
      "velocity": 125,
      "chip": "ym2612"
    },
    {
      "channel": 3,
      "note": 95,
      "start": 10.356,
      "duration": 0.0107,
      "velocity": 113,
      "chip": "ym2612"
    },
    {
      "channel": 2,
      "note": 93,
      "start": 10.3593,
      "duration": 0.0105,
      "velocity": 125,
      "chip": "ym2612"
    },
    {
      "channel": 2,
      "note": 88,
      "start": 10.3699,
      "duration": 0.0093,
      "velocity": 125,
      "chip": "ym2612"
    },
    {
      "channel": 3,
      "note": 95,
      "start": 10.3763,
      "duration": 0.0603,
      "velocity": 113,
      "chip": "ym2612"
    },
    {
      "channel": 2,
      "note": 100,
      "start": 10.3794,
      "duration": 0.0603,
      "velocity": 125,
      "chip": "ym2612"
    },
    {
      "channel": 1,
      "note": 76,
      "start": 10.4365,
      "duration": 0.5916,
      "velocity": 107,
      "chip": "ym2612"
    },
    {
      "channel": 3,
      "note": 95,
      "start": 10.4368,
      "duration": 0.0784,
      "velocity": 113,
      "chip": "ym2612"
    },
    {
      "channel": 4,
      "note": 57,
      "start": 10.437,
      "duration": 0.5937,
      "velocity": 113,
      "chip": "ym2612"
    },
    {
      "channel": 2,
      "note": 99,
      "start": 10.4401,
      "duration": 0.1249,
      "velocity": 125,
      "chip": "ym2612"
    },
    {
      "channel": 3,
      "note": 95,
      "start": 10.5154,
      "duration": 0.1499,
      "velocity": 113,
      "chip": "ym2612"
    },
    {
      "channel": 2,
      "note": 95,
      "start": 10.5654,
      "duration": 0.1033,
      "velocity": 125,
      "chip": "ym2612"
    },
    {
      "channel": 0,
      "note": 59,
      "start": 10.6651,
      "duration": 0.1598,
      "velocity": 121,
      "chip": "ym2612"
    },
    {
      "channel": 3,
      "note": 95,
      "start": 10.6655,
      "duration": 0.0101,
      "velocity": 113,
      "chip": "ym2612"
    },
    {
      "channel": 2,
      "note": 97,
      "start": 10.6688,
      "duration": 0.0096,
      "velocity": 125,
      "chip": "ym2612"
    },
    {
      "channel": 2,
      "note": 93,
      "start": 10.6786,
      "duration": 0.0105,
      "velocity": 125,
      "chip": "ym2612"
    },
    {
      "channel": 3,
      "note": 95,
      "start": 10.6859,
      "duration": 0.0099,
      "velocity": 113,
      "chip": "ym2612"
    },
    {
      "channel": 2,
      "note": 88,
      "start": 10.6893,
      "duration": 0.0093,
      "velocity": 125,
      "chip": "ym2612"
    },
    {
      "channel": 2,
      "note": 100,
      "start": 10.6989,
      "duration": 0.0598,
      "velocity": 125,
      "chip": "ym2612"
    },
    {
      "channel": 3,
      "note": 95,
      "start": 10.7555,
      "duration": 0.0102,
      "velocity": 113,
      "chip": "ym2612"
    },
    {
      "channel": 2,
      "note": 99,
      "start": 10.7589,
      "duration": 0.0097,
      "velocity": 125,
      "chip": "ym2612"
    },
    {
      "channel": 3,
      "note": 95,
      "start": 10.7658,
      "duration": 0.0598,
      "velocity": 113,
      "chip": "ym2612"
    },
    {
      "channel": 2,
      "note": 95,
      "start": 10.7689,
      "duration": 0.0607,
      "velocity": 125,
      "chip": "ym2612"
    },
    {
      "channel": 0,
      "note": 52,
      "start": 10.8253,
      "duration": 0.0617,
      "velocity": 121,
      "chip": "ym2612"
    },
    {
      "channel": 2,
      "note": 97,
      "start": 10.8299,
      "duration": 0.0619,
      "velocity": 125,
      "chip": "ym2612"
    },
    {
      "channel": 0,
      "note": 54,
      "start": 10.8873,
      "duration": 0.0528,
      "velocity": 121,
      "chip": "ym2612"
    },
    {
      "channel": 3,
      "note": 95,
      "start": 10.8878,
      "duration": 0.053,
      "velocity": 113,
      "chip": "ym2612"
    },
    {
      "channel": 2,
      "note": 93,
      "start": 10.892,
      "duration": 0.0524,
      "velocity": 125,
      "chip": "ym2612"
    },
    {
      "channel": 0,
      "note": 59,
      "start": 10.9404,
      "duration": 0.0864,
      "velocity": 121,
      "chip": "ym2612"
    },
    {
      "channel": 2,
      "note": 88,
      "start": 10.9448,
      "duration": 0.0535,
      "velocity": 125,
      "chip": "ym2612"
    },
    {
      "channel": 3,
      "note": 95,
      "start": 10.9939,
      "duration": 0.0356,
      "velocity": 101,
      "chip": "ym2612"
    },
    {
      "channel": 2,
      "note": 100,
      "start": 10.9986,
      "duration": 0.0355,
      "velocity": 125,
      "chip": "ym2612"
    },
    {
      "channel": 0,
      "note": 59,
      "start": 11.0271,
      "duration": 0.366,
      "velocity": 121,
      "chip": "ym2612"
    },
    {
      "channel": 1,
      "note": 63,
      "start": 11.0282,
      "duration": 0.6854,
      "velocity": 107,
      "chip": "ym2612"
    },
    {
      "channel": 3,
      "note": 59,
      "start": 11.0297,
      "duration": 0.7952,
      "velocity": 101,
      "chip": "ym2612"
    },
    {
      "channel": 4,
      "note": 87,
      "start": 11.0308,
      "duration": 0.7943,
      "velocity": 113,
      "chip": "ym2612"
    },
    {
      "channel": 2,
      "note": 99,
      "start": 11.0342,
      "duration": 0.1221,
      "velocity": 125,
      "chip": "ym2612"
    },
    {
      "channel": 2,
      "note": 95,
      "start": 11.1566,
      "duration": 0.1025,
      "velocity": 125,
      "chip": "ym2612"
    },
    {
      "channel": 2,
      "note": 97,
      "start": 11.2594,
      "duration": 0.0085,
      "velocity": 125,
      "chip": "ym2612"
    },
    {
      "channel": 2,
      "note": 93,
      "start": 11.2681,
      "duration": 0.0591,
      "velocity": 125,
      "chip": "ym2612"
    },
    {
      "channel": 2,
      "note": 88,
      "start": 11.3274,
      "duration": 0.0098,
      "velocity": 125,
      "chip": "ym2612"
    },
    {
      "channel": 2,
      "note": 100,
      "start": 11.3373,
      "duration": 0.0595,
      "velocity": 125,
      "chip": "ym2612"
    },
    {
      "channel": 0,
      "note": 47,
      "start": 11.3934,
      "duration": 0.229,
      "velocity": 121,
      "chip": "ym2612"
    },
    {
      "channel": 2,
      "note": 99,
      "start": 11.3969,
      "duration": 0.01,
      "velocity": 125,
      "chip": "ym2612"
    },
    {
      "channel": 2,
      "note": 95,
      "start": 11.4071,
      "duration": 0.0592,
      "velocity": 125,
      "chip": "ym2612"
    },
    {
      "channel": 2,
      "note": 97,
      "start": 11.4665,
      "duration": 0.0106,
      "velocity": 125,
      "chip": "ym2612"
    },
    {
      "channel": 2,
      "note": 93,
      "start": 11.4773,
      "duration": 0.0102,
      "velocity": 125,
      "chip": "ym2612"
    },
    {
      "channel": 2,
      "note": 88,
      "start": 11.4878,
      "duration": 0.0098,
      "velocity": 125,
      "chip": "ym2612"
    },
    {
      "channel": 2,
      "note": 100,
      "start": 11.4978,
      "duration": 0.0588,
      "velocity": 125,
      "chip": "ym2612"
    },
    {
      "channel": 2,
      "note": 99,
      "start": 11.5568,
      "duration": 0.0094,
      "velocity": 125,
      "chip": "ym2612"
    },
    {
      "channel": 2,
      "note": 95,
      "start": 11.5664,
      "duration": 0.06,
      "velocity": 125,
      "chip": "ym2612"
    },
    {
      "channel": 0,
      "note": 59,
      "start": 11.6227,
      "duration": 0.1599,
      "velocity": 121,
      "chip": "ym2612"
    },
    {
      "channel": 2,
      "note": 97,
      "start": 11.6266,
      "duration": 0.0102,
      "velocity": 125,
      "chip": "ym2612"
    },
    {
      "channel": 2,
      "note": 93,
      "start": 11.6371,
      "duration": 0.0103,
      "velocity": 125,
      "chip": "ym2612"
    },
    {
      "channel": 2,
      "note": 88,
      "start": 11.6476,
      "duration": 0.0096,
      "velocity": 125,
      "chip": "ym2612"
    },
    {
      "channel": 2,
      "note": 100,
      "start": 11.6573,
      "duration": 0.06,
      "velocity": 125,
      "chip": "ym2612"
    },
    {
      "channel": 1,
      "note": 63,
      "start": 11.7138,
      "duration": 0.0692,
      "velocity": 107,
      "chip": "ym2612"
    },
    {
      "channel": 2,
      "note": 99,
      "start": 11.7175,
      "duration": 0.0091,
      "velocity": 125,
      "chip": "ym2612"
    },
    {
      "channel": 2,
      "note": 95,
      "start": 11.7269,
      "duration": 0.0597,
      "velocity": 125,
      "chip": "ym2612"
    },
    {
      "channel": 0,
      "note": 52,
      "start": 11.7829,
      "duration": 0.0103,
      "velocity": 121,
      "chip": "ym2612"
    },
    {
      "channel": 1,
      "note": 64,
      "start": 11.7831,
      "duration": 0.031,
      "velocity": 107,
      "chip": "ym2612"
    },
    {
      "channel": 2,
      "note": 97,
      "start": 11.7868,
      "duration": 0.01,
      "velocity": 125,
      "chip": "ym2612"
    },
    {
      "channel": 0,
      "note": 54,
      "start": 11.7935,
      "duration": 0.01,
      "velocity": 121,
      "chip": "ym2612"
    },
    {
      "channel": 2,
      "note": 93,
      "start": 11.797,
      "duration": 0.0105,
      "velocity": 125,
      "chip": "ym2612"
    },
    {
      "channel": 0,
      "note": 59,
      "start": 11.8038,
      "duration": 0.0203,
      "velocity": 121,
      "chip": "ym2612"
    },
    {
      "channel": 2,
      "note": 88,
      "start": 11.8076,
      "duration": 0.0098,
      "velocity": 125,
      "chip": "ym2612"
    },
    {
      "channel": 1,
      "note": 66,
      "start": 11.8143,
      "duration": 0.0102,
      "velocity": 107,
      "chip": "ym2612"
    },
    {
      "channel": 2,
      "note": 100,
      "start": 11.8176,
      "duration": 0.0105,
      "velocity": 125,
      "chip": "ym2612"
    },
    {
      "channel": 0,
      "note": 59,
      "start": 11.8245,
      "duration": 0.2265,
      "velocity": 121,
      "chip": "ym2612"
    },
    {
      "channel": 1,
      "note": 66,
      "start": 11.8248,
      "duration": 0.4568,
      "velocity": 107,
      "chip": "ym2612"
    },
    {
      "channel": 3,
      "note": 57,
      "start": 11.825,
      "duration": 0.6367,
      "velocity": 101,
      "chip": "ym2612"
    },
    {
      "channel": 4,
      "note": 87,
      "start": 11.8252,
      "duration": 0.6367,
      "velocity": 113,
      "chip": "ym2612"
    },
    {
      "channel": 2,
      "note": 99,
      "start": 11.8283,
      "duration": 0.0096,
      "velocity": 125,
      "chip": "ym2612"
    },
    {
      "channel": 2,
      "note": 95,
      "start": 11.838,
      "duration": 0.0093,
      "velocity": 125,
      "chip": "ym2612"
    },
    {
      "channel": 2,
      "note": 97,
      "start": 11.8474,
      "duration": 0.0085,
      "velocity": 125,
      "chip": "ym2612"
    },
    {
      "channel": 2,
      "note": 93,
      "start": 11.8561,
      "duration": 0.0593,
      "velocity": 125,
      "chip": "ym2612"
    },
    {
      "channel": 2,
      "note": 88,
      "start": 11.9155,
      "duration": 0.0098,
      "velocity": 125,
      "chip": "ym2612"
    },
    {
      "channel": 2,
      "note": 100,
      "start": 11.9254,
      "duration": 0.0591,
      "velocity": 125,
      "chip": "ym2612"
    },
    {
      "channel": 2,
      "note": 99,
      "start": 11.9846,
      "duration": 0.01,
      "velocity": 125,
      "chip": "ym2612"
    },
    {
      "channel": 2,
      "note": 95,
      "start": 11.9949,
      "duration": 0.0598,
      "velocity": 125,
      "chip": "ym2612"
    },
    {
      "channel": 0,
      "note": 47,
      "start": 12.0512,
      "duration": 0.2094,
      "velocity": 121,
      "chip": "ym2612"
    },
    {
      "channel": 2,
      "note": 97,
      "start": 12.0549,
      "duration": 0.0101,
      "velocity": 125,
      "chip": "ym2612"
    },
    {
      "channel": 2,
      "note": 93,
      "start": 12.0652,
      "duration": 0.0592,
      "velocity": 125,
      "chip": "ym2612"
    },
    {
      "channel": 2,
      "note": 88,
      "start": 12.1246,
      "duration": 0.0099,
      "velocity": 125,
      "chip": "ym2612"
    },
    {
      "channel": 2,
      "note": 100,
      "start": 12.1347,
      "duration": 0.0593,
      "velocity": 125,
      "chip": "ym2612"
    },
    {
      "channel": 2,
      "note": 99,
      "start": 12.1942,
      "duration": 0.0101,
      "velocity": 125,
      "chip": "ym2612"
    },
    {
      "channel": 2,
      "note": 95,
      "start": 12.2045,
      "duration": 0.0601,
      "velocity": 125,
      "chip": "ym2612"
    },
    {
      "channel": 0,
      "note": 59,
      "start": 12.261,
      "duration": 0.1096,
      "velocity": 121,
      "chip": "ym2612"
    },
    {
      "channel": 2,
      "note": 97,
      "start": 12.2649,
      "duration": 0.0102,
      "velocity": 125,
      "chip": "ym2612"
    },
    {
      "channel": 2,
      "note": 93,
      "start": 12.2754,
      "duration": 0.0098,
      "velocity": 125,
      "chip": "ym2612"
    },
    {
      "channel": 1,
      "note": 61,
      "start": 12.2817,
      "duration": 0.0695,
      "velocity": 107,
      "chip": "ym2612"
    },
    {
      "channel": 2,
      "note": 88,
      "start": 12.2854,
      "duration": 0.0591,
      "velocity": 125,
      "chip": "ym2612"
    },
    {
      "channel": 2,
      "note": 100,
      "start": 12.3448,
      "duration": 0.0098,
      "velocity": 125,
      "chip": "ym2612"
    },
    {
      "channel": 1,
      "note": 66,
      "start": 12.3514,
      "duration": 0.0197,
      "velocity": 107,
      "chip": "ym2612"
    },
    {
      "channel": 2,
      "note": 99,
      "start": 12.3547,
      "duration": 0.0095,
      "velocity": 125,
      "chip": "ym2612"
    },
    {
      "channel": 2,
      "note": 95,
      "start": 12.3644,
      "duration": 0.0103,
      "velocity": 125,
      "chip": "ym2612"
    },
    {
      "channel": 0,
      "note": 57,
      "start": 12.371,
      "duration": 0.0688,
      "velocity": 121,
      "chip": "ym2612"
    },
    {
      "channel": 1,
      "note": 64,
      "start": 12.3712,
      "duration": 0.0798,
      "velocity": 107,
      "chip": "ym2612"
    },
    {
      "channel": 2,
      "note": 97,
      "start": 12.3748,
      "duration": 0.0094,
      "velocity": 125,
      "chip": "ym2612"
    },
    {
      "channel": 2,
      "note": 93,
      "start": 12.3844,
      "duration": 0.0591,
      "velocity": 125,
      "chip": "ym2612"
    },
    {
      "channel": 0,
      "note": 52,
      "start": 12.4401,
      "duration": 0.0105,
      "velocity": 121,
      "chip": "ym2612"
    },
    {
      "channel": 2,
      "note": 88,
      "start": 12.4439,
      "duration": 0.0106,
      "velocity": 125,
      "chip": "ym2612"
    },
    {
      "channel": 0,
      "note": 54,
      "start": 12.4508,
      "duration": 0.0102,
      "velocity": 121,
      "chip": "ym2612"
    },
    {
      "channel": 1,
      "note": 63,
      "start": 12.4511,
      "duration": 0.0104,
      "velocity": 107,
      "chip": "ym2612"
    },
    {
      "channel": 2,
      "note": 100,
      "start": 12.4546,
      "duration": 0.0105,
      "velocity": 125,
      "chip": "ym2612"
    },
    {
      "channel": 0,
      "note": 59,
      "start": 12.4613,
      "duration": 0.3655,
      "velocity": 121,
      "chip": "ym2612"
    },
    {
      "channel": 1,
      "note": 64,
      "start": 12.4616,
      "duration": 0.3657,
      "velocity": 107,
      "chip": "ym2612"
    },
    {
      "channel": 3,
      "note": 55,
      "start": 12.4619,
      "duration": 0.7951,
      "velocity": 101,
      "chip": "ym2612"
    },
    {
      "channel": 4,
      "note": 86,
      "start": 12.4621,
      "duration": 0.7951,
      "velocity": 113,
      "chip": "ym2612"
    },
    {
      "channel": 2,
      "note": 99,
      "start": 12.4653,
      "duration": 0.1245,
      "velocity": 125,
      "chip": "ym2612"
    },
    {
      "channel": 2,
      "note": 95,
      "start": 12.59,
      "duration": 0.1025,
      "velocity": 125,
      "chip": "ym2612"
    },
    {
      "channel": 2,
      "note": 97,
      "start": 12.6927,
      "duration": 0.0092,
      "velocity": 125,
      "chip": "ym2612"
    },
    {
      "channel": 2,
      "note": 93,
      "start": 12.702,
      "duration": 0.059,
      "velocity": 125,
      "chip": "ym2612"
    },
    {
      "channel": 2,
      "note": 88,
      "start": 12.7612,
      "duration": 0.0098,
      "velocity": 125,
      "chip": "ym2612"
    },
    {
      "channel": 2,
      "note": 100,
      "start": 12.7711,
      "duration": 0.0596,
      "velocity": 125,
      "chip": "ym2612"
    },
    {
      "channel": 0,
      "note": 47,
      "start": 12.8272,
      "duration": 0.1777,
      "velocity": 121,
      "chip": "ym2612"
    },
    {
      "channel": 1,
      "note": 59,
      "start": 12.8273,
      "duration": 0.1779,
      "velocity": 107,
      "chip": "ym2612"
    },
    {
      "channel": 2,
      "note": 99,
      "start": 12.8309,
      "duration": 0.0095,
      "velocity": 125,
      "chip": "ym2612"
    },
    {
      "channel": 2,
      "note": 95,
      "start": 12.8405,
      "duration": 0.0592,
      "velocity": 125,
      "chip": "ym2612"
    },
    {
      "channel": 2,
      "note": 97,
      "start": 12.8998,
      "duration": 0.01,
      "velocity": 125,
      "chip": "ym2612"
    },
    {
      "channel": 2,
      "note": 93,
      "start": 12.9101,
      "duration": 0.0091,
      "velocity": 125,
      "chip": "ym2612"
    },
    {
      "channel": 2,
      "note": 88,
      "start": 12.9194,
      "duration": 0.0093,
      "velocity": 125,
      "chip": "ym2612"
    },
    {
      "channel": 2,
      "note": 100,
      "start": 12.9289,
      "duration": 0.0591,
      "velocity": 125,
      "chip": "ym2612"
    },
    {
      "channel": 2,
      "note": 99,
      "start": 12.9882,
      "duration": 0.0099,
      "velocity": 125,
      "chip": "ym2612"
    },
    {
      "channel": 2,
      "note": 95,
      "start": 12.9983,
      "duration": 0.0109,
      "velocity": 125,
      "chip": "ym2612"
    },
    {
      "channel": 0,
      "note": 59,
      "start": 13.0052,
      "duration": 0.2086,
      "velocity": 121,
      "chip": "ym2612"
    },
    {
      "channel": 1,
      "note": 55,
      "start": 13.0054,
      "duration": 0.0697,
      "velocity": 107,
      "chip": "ym2612"
    },
    {
      "channel": 2,
      "note": 97,
      "start": 13.0093,
      "duration": 0.0098,
      "velocity": 125,
      "chip": "ym2612"
    },
    {
      "channel": 2,
      "note": 93,
      "start": 13.0192,
      "duration": 0.0595,
      "velocity": 125,
      "chip": "ym2612"
    },
    {
      "channel": 1,
      "note": 59,
      "start": 13.0753,
      "duration": 0.0695,
      "velocity": 107,
      "chip": "ym2612"
    },
    {
      "channel": 2,
      "note": 88,
      "start": 13.079,
      "duration": 0.0095,
      "velocity": 125,
      "chip": "ym2612"
    },
    {
      "channel": 2,
      "note": 100,
      "start": 13.0887,
      "duration": 0.0595,
      "velocity": 125,
      "chip": "ym2612"
    },
    {
      "channel": 1,
      "note": 66,
      "start": 13.145,
      "duration": 0.0693,
      "velocity": 107,
      "chip": "ym2612"
    },
    {
      "channel": 2,
      "note": 99,
      "start": 13.1484,
      "duration": 0.0093,
      "velocity": 125,
      "chip": "ym2612"
    },
    {
      "channel": 2,
      "note": 95,
      "start": 13.1579,
      "duration": 0.0602,
      "velocity": 125,
      "chip": "ym2612"
    },
    {
      "channel": 0,
      "note": 52,
      "start": 13.2141,
      "duration": 0.0105,
      "velocity": 121,
      "chip": "ym2612"
    },
    {
      "channel": 1,
      "note": 64,
      "start": 13.2144,
      "duration": 0.0209,
      "velocity": 107,
      "chip": "ym2612"
    },
    {
      "channel": 2,
      "note": 97,
      "start": 13.2183,
      "duration": 0.01,
      "velocity": 125,
      "chip": "ym2612"
    },
    {
      "channel": 0,
      "note": 54,
      "start": 13.2249,
      "duration": 0.0101,
      "velocity": 121,
      "chip": "ym2612"
    },
    {
      "channel": 2,
      "note": 93,
      "start": 13.2285,
      "duration": 0.0107,
      "velocity": 125,
      "chip": "ym2612"
    },
    {
      "channel": 0,
      "note": 59,
      "start": 13.2352,
      "duration": 0.021,
      "velocity": 121,
      "chip": "ym2612"
    },
    {
      "channel": 1,
      "note": 62,
      "start": 13.2354,
      "duration": 0.0212,
      "velocity": 107,
      "chip": "ym2612"
    },
    {
      "channel": 2,
      "note": 88,
      "start": 13.2393,
      "duration": 0.0101,
      "velocity": 125,
      "chip": "ym2612"
    },
    {
      "channel": 2,
      "note": 100,
      "start": 13.2497,
      "duration": 0.0107,
      "velocity": 125,
      "chip": "ym2612"
    },
    {
      "channel": 0,
      "note": 59,
      "start": 13.2566,
      "duration": 0.1362,
      "velocity": 121,
      "chip": "ym2612"
    },
    {
      "channel": 1,
      "note": 66,
      "start": 13.2567,
      "duration": 0.4145,
      "velocity": 107,
      "chip": "ym2612"
    },
    {
      "channel": 3,
      "note": 55,
      "start": 13.2571,
      "duration": 0.4145,
      "velocity": 101,
      "chip": "ym2612"
    },
    {
      "channel": 4,
      "note": 86,
      "start": 13.2573,
      "duration": 0.4145,
      "velocity": 113,
      "chip": "ym2612"
    },
    {
      "channel": 2,
      "note": 99,
      "start": 13.2606,
      "duration": 0.0089,
      "velocity": 125,
      "chip": "ym2612"
    },
    {
      "channel": 2,
      "note": 95,
      "start": 13.2696,
      "duration": 0.058,
      "velocity": 125,
      "chip": "ym2612"
    },
    {
      "channel": 2,
      "note": 97,
      "start": 13.3278,
      "duration": 0.0091,
      "velocity": 125,
      "chip": "ym2612"
    },
    {
      "channel": 2,
      "note": 93,
      "start": 13.3371,
      "duration": 0.0593,
      "velocity": 125,
      "chip": "ym2612"
    },
    {
      "channel": 0,
      "note": 47,
      "start": 13.393,
      "duration": 0.1382,
      "velocity": 121,
      "chip": "ym2612"
    },
    {
      "channel": 2,
      "note": 88,
      "start": 13.3967,
      "duration": 0.0097,
      "velocity": 125,
      "chip": "ym2612"
    },
    {
      "channel": 2,
      "note": 100,
      "start": 13.4066,
      "duration": 0.0587,
      "velocity": 125,
      "chip": "ym2612"
    },
    {
      "channel": 2,
      "note": 99,
      "start": 13.4656,
      "duration": 0.0094,
      "velocity": 125,
      "chip": "ym2612"
    },
    {
      "channel": 2,
      "note": 95,
      "start": 13.4752,
      "duration": 0.0599,
      "velocity": 125,
      "chip": "ym2612"
    },
    {
      "channel": 0,
      "note": 59,
      "start": 13.5315,
      "duration": 0.2083,
      "velocity": 121,
      "chip": "ym2612"
    },
    {
      "channel": 2,
      "note": 97,
      "start": 13.5354,
      "duration": 0.0105,
      "velocity": 125,
      "chip": "ym2612"
    },
    {
      "channel": 2,
      "note": 93,
      "start": 13.5462,
      "duration": 0.0591,
      "velocity": 125,
      "chip": "ym2612"
    },
    {
      "channel": 2,
      "note": 88,
      "start": 13.6054,
      "duration": 0.0095,
      "velocity": 125,
      "chip": "ym2612"
    },
    {
      "channel": 2,
      "note": 100,
      "start": 13.6151,
      "duration": 0.0596,
      "velocity": 125,
      "chip": "ym2612"
    },
    {
      "channel": 1,
      "note": 64,
      "start": 13.6714,
      "duration": 0.2766,
      "velocity": 107,
      "chip": "ym2612"
    },
    {
      "channel": 3,
      "note": 57,
      "start": 13.6718,
      "duration": 0.3681,
      "velocity": 101,
      "chip": "ym2612"
    },
    {
      "channel": 4,
      "note": 88,
      "start": 13.6719,
      "duration": 0.3682,
      "velocity": 113,
      "chip": "ym2612"
    },
    {
      "channel": 2,
      "note": 99,
      "start": 13.675,
      "duration": 0.0088,
      "velocity": 125,
      "chip": "ym2612"
    },
    {
      "channel": 2,
      "note": 95,
      "start": 13.6841,
      "duration": 0.0593,
      "velocity": 125,
      "chip": "ym2612"
    },
    {
      "channel": 0,
      "note": 47,
      "start": 13.7401,
      "duration": 0.1379,
      "velocity": 121,
      "chip": "ym2612"
    },
    {
      "channel": 2,
      "note": 97,
      "start": 13.7436,
      "duration": 0.0097,
      "velocity": 125,
      "chip": "ym2612"
    },
    {
      "channel": 2,
      "note": 93,
      "start": 13.7535,
      "duration": 0.059,
      "velocity": 125,
      "chip": "ym2612"
    },
    {
      "channel": 2,
      "note": 88,
      "start": 13.8126,
      "duration": 0.0092,
      "velocity": 125,
      "chip": "ym2612"
    },
    {
      "channel": 2,
      "note": 100,
      "start": 13.8221,
      "duration": 0.0596,
      "velocity": 125,
      "chip": "ym2612"
    },
    {
      "channel": 0,
      "note": 59,
      "start": 13.8783,
      "duration": 0.0694,
      "velocity": 121,
      "chip": "ym2612"
    },
    {
      "channel": 2,
      "note": 99,
      "start": 13.8818,
      "duration": 0.01,
      "velocity": 125,
      "chip": "ym2612"
    },
    {
      "channel": 2,
      "note": 95,
      "start": 13.8921,
      "duration": 0.0598,
      "velocity": 125,
      "chip": "ym2612"
    },
    {
      "channel": 0,
      "note": 57,
      "start": 13.948,
      "duration": 0.0214,
      "velocity": 121,
      "chip": "ym2612"
    },
    {
      "channel": 1,
      "note": 61,
      "start": 13.9482,
      "duration": 0.0216,
      "velocity": 107,
      "chip": "ym2612"
    },
    {
      "channel": 2,
      "note": 97,
      "start": 13.9521,
      "duration": 0.01,
      "velocity": 125,
      "chip": "ym2612"
    },
    {
      "channel": 2,
      "note": 93,
      "start": 13.9623,
      "duration": 0.0111,
      "velocity": 125,
      "chip": "ym2612"
    },
    {
      "channel": 0,
      "note": 52,
      "start": 13.9697,
      "duration": 0.0695,
      "velocity": 121,
      "chip": "ym2612"
    },
    {
      "channel": 1,
      "note": 69,
      "start": 13.9699,
      "duration": 0.0697,
      "velocity": 107,
      "chip": "ym2612"
    },
    {
      "channel": 2,
      "note": 88,
      "start": 13.9736,
      "duration": 0.0097,
      "velocity": 125,
      "chip": "ym2612"
    },
    {
      "channel": 2,
      "note": 100,
      "start": 13.9835,
      "duration": 0.0599,
      "velocity": 125,
      "chip": "ym2612"
    },
    {
      "channel": 0,
      "note": 59,
      "start": 14.0395,
      "duration": 0.3661,
      "velocity": 121,
      "chip": "ym2612"
    },
    {
      "channel": 1,
      "note": 66,
      "start": 14.0397,
      "duration": 0.596,
      "velocity": 107,
      "chip": "ym2612"
    },
    {
      "channel": 3,
      "note": 59,
      "start": 14.0401,
      "duration": 0.797,
      "velocity": 101,
      "chip": "ym2612"
    },
    {
      "channel": 4,
      "note": 87,
      "start": 14.0403,
      "duration": 0.7971,
      "velocity": 113,
      "chip": "ym2612"
    },
    {
      "channel": 2,
      "note": 99,
      "start": 14.0436,
      "duration": 0.1246,
      "velocity": 125,
      "chip": "ym2612"
    },
    {
      "channel": 2,
      "note": 95,
      "start": 14.1684,
      "duration": 0.1025,
      "velocity": 125,
      "chip": "ym2612"
    },
    {
      "channel": 2,
      "note": 97,
      "start": 14.2711,
      "duration": 0.0094,
      "velocity": 125,
      "chip": "ym2612"
    },
    {
      "channel": 2,
      "note": 93,
      "start": 14.2806,
      "duration": 0.0591,
      "velocity": 125,
      "chip": "ym2612"
    },
    {
      "channel": 2,
      "note": 88,
      "start": 14.3399,
      "duration": 0.0098,
      "velocity": 125,
      "chip": "ym2612"
    },
    {
      "channel": 2,
      "note": 100,
      "start": 14.3498,
      "duration": 0.0595,
      "velocity": 125,
      "chip": "ym2612"
    },
    {
      "channel": 0,
      "note": 47,
      "start": 14.4059,
      "duration": 0.2295,
      "velocity": 121,
      "chip": "ym2612"
    },
    {
      "channel": 2,
      "note": 99,
      "start": 14.4095,
      "duration": 0.0099,
      "velocity": 125,
      "chip": "ym2612"
    },
    {
      "channel": 2,
      "note": 95,
      "start": 14.4197,
      "duration": 0.0594,
      "velocity": 125,
      "chip": "ym2612"
    },
    {
      "channel": 2,
      "note": 97,
      "start": 14.4794,
      "duration": 0.0106,
      "velocity": 125,
      "chip": "ym2612"
    },
    {
      "channel": 2,
      "note": 93,
      "start": 14.4901,
      "duration": 0.0102,
      "velocity": 125,
      "chip": "ym2612"
    },
    {
      "channel": 2,
      "note": 88,
      "start": 14.5006,
      "duration": 0.0098,
      "velocity": 125,
      "chip": "ym2612"
    },
    {
      "channel": 2,
      "note": 100,
      "start": 14.5106,
      "duration": 0.0589,
      "velocity": 125,
      "chip": "ym2612"
    },
    {
      "channel": 2,
      "note": 99,
      "start": 14.5698,
      "duration": 0.0093,
      "velocity": 125,
      "chip": "ym2612"
    },
    {
      "channel": 2,
      "note": 95,
      "start": 14.5793,
      "duration": 0.0602,
      "velocity": 125,
      "chip": "ym2612"
    },
    {
      "channel": 0,
      "note": 59,
      "start": 14.6356,
      "duration": 0.1594,
      "velocity": 121,
      "chip": "ym2612"
    },
    {
      "channel": 1,
      "note": 54,
      "start": 14.6359,
      "duration": 0.0216,
      "velocity": 107,
      "chip": "ym2612"
    },
    {
      "channel": 2,
      "note": 97,
      "start": 14.6398,
      "duration": 0.0105,
      "velocity": 125,
      "chip": "ym2612"
    },
    {
      "channel": 2,
      "note": 93,
      "start": 14.6506,
      "duration": 0.0105,
      "velocity": 125,
      "chip": "ym2612"
    },
    {
      "channel": 1,
      "note": 64,
      "start": 14.6578,
      "duration": 0.148,
      "velocity": 107,
      "chip": "ym2612"
    },
    {
      "channel": 2,
      "note": 88,
      "start": 14.6614,
      "duration": 0.0093,
      "velocity": 125,
      "chip": "ym2612"
    },
    {
      "channel": 2,
      "note": 100,
      "start": 14.6709,
      "duration": 0.0589,
      "velocity": 125,
      "chip": "ym2612"
    },
    {
      "channel": 2,
      "note": 99,
      "start": 14.7301,
      "duration": 0.0091,
      "velocity": 125,
      "chip": "ym2612"
    },
    {
      "channel": 2,
      "note": 95,
      "start": 14.7395,
      "duration": 0.0592,
      "velocity": 125,
      "chip": "ym2612"
    },
    {
      "channel": 0,
      "note": 52,
      "start": 14.7954,
      "duration": 0.01,
      "velocity": 121,
      "chip": "ym2612"
    },
    {
      "channel": 2,
      "note": 97,
      "start": 14.7988,
      "duration": 0.0103,
      "velocity": 125,
      "chip": "ym2612"
    },
    {
      "channel": 0,
      "note": 54,
      "start": 14.8056,
      "duration": 0.0102,
      "velocity": 121,
      "chip": "ym2612"
    },
    {
      "channel": 1,
      "note": 63,
      "start": 14.8059,
      "duration": 0.0102,
      "velocity": 107,
      "chip": "ym2612"
    },
    {
      "channel": 2,
      "note": 93,
      "start": 14.8094,
      "duration": 0.0105,
      "velocity": 125,
      "chip": "ym2612"
    },
    {
      "channel": 0,
      "note": 59,
      "start": 14.8161,
      "duration": 0.0204,
      "velocity": 121,
      "chip": "ym2612"
    },
    {
      "channel": 1,
      "note": 64,
      "start": 14.8163,
      "duration": 0.0104,
      "velocity": 107,
      "chip": "ym2612"
    },
    {
      "channel": 2,
      "note": 88,
      "start": 14.8201,
      "duration": 0.0101,
      "velocity": 125,
      "chip": "ym2612"
    },
    {
      "channel": 1,
      "note": 66,
      "start": 14.8268,
      "duration": 0.01,
      "velocity": 107,
      "chip": "ym2612"
    },
    {
      "channel": 2,
      "note": 100,
      "start": 14.8305,
      "duration": 0.01,
      "velocity": 125,
      "chip": "ym2612"
    },
    {
      "channel": 0,
      "note": 59,
      "start": 14.8367,
      "duration": 0.2263,
      "velocity": 121,
      "chip": "ym2612"
    },
    {
      "channel": 1,
      "note": 66,
      "start": 14.837,
      "duration": 0.4568,
      "velocity": 107,
      "chip": "ym2612"
    },
    {
      "channel": 3,
      "note": 57,
      "start": 14.8373,
      "duration": 0.6363,
      "velocity": 101,
      "chip": "ym2612"
    },
    {
      "channel": 4,
      "note": 87,
      "start": 14.8375,
      "duration": 0.6363,
      "velocity": 113,
      "chip": "ym2612"
    },
    {
      "channel": 2,
      "note": 99,
      "start": 14.8407,
      "duration": 0.0094,
      "velocity": 125,
      "chip": "ym2612"
    },
    {
      "channel": 2,
      "note": 95,
      "start": 14.8502,
      "duration": 0.0092,
      "velocity": 125,
      "chip": "ym2612"
    },
    {
      "channel": 2,
      "note": 97,
      "start": 14.8598,
      "duration": 0.0085,
      "velocity": 125,
      "chip": "ym2612"
    },
    {
      "channel": 2,
      "note": 93,
      "start": 14.8685,
      "duration": 0.059,
      "velocity": 125,
      "chip": "ym2612"
    },
    {
      "channel": 2,
      "note": 88,
      "start": 14.9277,
      "duration": 0.0098,
      "velocity": 125,
      "chip": "ym2612"
    },
    {
      "channel": 2,
      "note": 100,
      "start": 14.9376,
      "duration": 0.0591,
      "velocity": 125,
      "chip": "ym2612"
    },
    {
      "channel": 2,
      "note": 99,
      "start": 14.9968,
      "duration": 0.01,
      "velocity": 125,
      "chip": "ym2612"
    },
    {
      "channel": 2,
      "note": 95,
      "start": 15.007,
      "duration": 0.0599,
      "velocity": 125,
      "chip": "ym2612"
    },
    {
      "channel": 0,
      "note": 47,
      "start": 15.0633,
      "duration": 0.2096,
      "velocity": 121,
      "chip": "ym2612"
    },
    {
      "channel": 2,
      "note": 97,
      "start": 15.0672,
      "duration": 0.0102,
      "velocity": 125,
      "chip": "ym2612"
    },
    {
      "channel": 2,
      "note": 93,
      "start": 15.0776,
      "duration": 0.0588,
      "velocity": 125,
      "chip": "ym2612"
    },
    {
      "channel": 2,
      "note": 88,
      "start": 15.1367,
      "duration": 0.0102,
      "velocity": 125,
      "chip": "ym2612"
    },
    {
      "channel": 2,
      "note": 100,
      "start": 15.1471,
      "duration": 0.0593,
      "velocity": 125,
      "chip": "ym2612"
    },
    {
      "channel": 2,
      "note": 99,
      "start": 15.2066,
      "duration": 0.0103,
      "velocity": 125,
      "chip": "ym2612"
    },
    {
      "channel": 2,
      "note": 95,
      "start": 15.2171,
      "duration": 0.0599,
      "velocity": 125,
      "chip": "ym2612"
    },
    {
      "channel": 0,
      "note": 59,
      "start": 15.2733,
      "duration": 0.1095,
      "velocity": 121,
      "chip": "ym2612"
    },
    {
      "channel": 2,
      "note": 97,
      "start": 15.2772,
      "duration": 0.0102,
      "velocity": 125,
      "chip": "ym2612"
    },
    {
      "channel": 2,
      "note": 93,
      "start": 15.2876,
      "duration": 0.0098,
      "velocity": 125,
      "chip": "ym2612"
    },
    {
      "channel": 1,
      "note": 61,
      "start": 15.294,
      "duration": 0.0693,
      "velocity": 107,
      "chip": "ym2612"
    },
    {
      "channel": 2,
      "note": 88,
      "start": 15.2977,
      "duration": 0.059,
      "velocity": 125,
      "chip": "ym2612"
    },
    {
      "channel": 2,
      "note": 100,
      "start": 15.357,
      "duration": 0.0096,
      "velocity": 125,
      "chip": "ym2612"
    },
    {
      "channel": 1,
      "note": 66,
      "start": 15.3635,
      "duration": 0.0197,
      "velocity": 107,
      "chip": "ym2612"
    },
    {
      "channel": 2,
      "note": 99,
      "start": 15.3669,
      "duration": 0.0095,
      "velocity": 125,
      "chip": "ym2612"
    },
    {
      "channel": 2,
      "note": 95,
      "start": 15.3766,
      "duration": 0.0103,
      "velocity": 125,
      "chip": "ym2612"
    },
    {
      "channel": 0,
      "note": 57,
      "start": 15.3832,
      "duration": 0.0686,
      "velocity": 121,
      "chip": "ym2612"
    },
    {
      "channel": 1,
      "note": 64,
      "start": 15.3834,
      "duration": 0.0795,
      "velocity": 107,
      "chip": "ym2612"
    },
    {
      "channel": 2,
      "note": 97,
      "start": 15.387,
      "duration": 0.0094,
      "velocity": 125,
      "chip": "ym2612"
    },
    {
      "channel": 2,
      "note": 93,
      "start": 15.3966,
      "duration": 0.059,
      "velocity": 125,
      "chip": "ym2612"
    },
    {
      "channel": 0,
      "note": 52,
      "start": 15.4521,
      "duration": 0.0104,
      "velocity": 121,
      "chip": "ym2612"
    },
    {
      "channel": 2,
      "note": 88,
      "start": 15.4558,
      "duration": 0.0106,
      "velocity": 125,
      "chip": "ym2612"
    },
    {
      "channel": 0,
      "note": 54,
      "start": 15.4628,
      "duration": 0.0101,
      "velocity": 121,
      "chip": "ym2612"
    },
    {
      "channel": 1,
      "note": 63,
      "start": 15.463,
      "duration": 0.0103,
      "velocity": 107,
      "chip": "ym2612"
    },
    {
      "channel": 2,
      "note": 100,
      "start": 15.4666,
      "duration": 0.0105,
      "velocity": 125,
      "chip": "ym2612"
    },
    {
      "channel": 0,
      "note": 59,
      "start": 15.4732,
      "duration": 0.3658,
      "velocity": 121,
      "chip": "ym2612"
    },
    {
      "channel": 1,
      "note": 64,
      "start": 15.4734,
      "duration": 0.3659,
      "velocity": 107,
      "chip": "ym2612"
    },
    {
      "channel": 3,
      "note": 55,
      "start": 15.4738,
      "duration": 0.7955,
      "velocity": 101,
      "chip": "ym2612"
    },
    {
      "channel": 4,
      "note": 86,
      "start": 15.474,
      "duration": 0.7955,
      "velocity": 113,
      "chip": "ym2612"
    },
    {
      "channel": 2,
      "note": 99,
      "start": 15.4772,
      "duration": 0.1245,
      "velocity": 125,
      "chip": "ym2612"
    },
    {
      "channel": 2,
      "note": 95,
      "start": 15.6019,
      "duration": 0.1025,
      "velocity": 125,
      "chip": "ym2612"
    },
    {
      "channel": 2,
      "note": 97,
      "start": 15.7046,
      "duration": 0.0093,
      "velocity": 125,
      "chip": "ym2612"
    },
    {
      "channel": 2,
      "note": 93,
      "start": 15.7141,
      "duration": 0.0591,
      "velocity": 125,
      "chip": "ym2612"
    },
    {
      "channel": 2,
      "note": 88,
      "start": 15.7733,
      "duration": 0.0098,
      "velocity": 125,
      "chip": "ym2612"
    },
    {
      "channel": 2,
      "note": 100,
      "start": 15.7832,
      "duration": 0.0596,
      "velocity": 125,
      "chip": "ym2612"
    },
    {
      "channel": 0,
      "note": 47,
      "start": 15.8393,
      "duration": 0.1782,
      "velocity": 121,
      "chip": "ym2612"
    },
    {
      "channel": 1,
      "note": 59,
      "start": 15.8395,
      "duration": 0.1784,
      "velocity": 107,
      "chip": "ym2612"
    },
    {
      "channel": 2,
      "note": 99,
      "start": 15.843,
      "duration": 0.0095,
      "velocity": 125,
      "chip": "ym2612"
    },
    {
      "channel": 2,
      "note": 95,
      "start": 15.8527,
      "duration": 0.0592,
      "velocity": 125,
      "chip": "ym2612"
    },
    {
      "channel": 2,
      "note": 97,
      "start": 15.912,
      "duration": 0.01,
      "velocity": 125,
      "chip": "ym2612"
    },
    {
      "channel": 2,
      "note": 93,
      "start": 15.9221,
      "duration": 0.0098,
      "velocity": 125,
      "chip": "ym2612"
    },
    {
      "channel": 2,
      "note": 88,
      "start": 15.932,
      "duration": 0.0093,
      "velocity": 125,
      "chip": "ym2612"
    },
    {
      "channel": 2,
      "note": 100,
      "start": 15.9415,
      "duration": 0.0591,
      "velocity": 125,
      "chip": "ym2612"
    },
    {
      "channel": 2,
      "note": 99,
      "start": 16.0008,
      "duration": 0.0099,
      "velocity": 125,
      "chip": "ym2612"
    },
    {
      "channel": 2,
      "note": 95,
      "start": 16.0109,
      "duration": 0.011,
      "velocity": 125,
      "chip": "ym2612"
    },
    {
      "channel": 0,
      "note": 59,
      "start": 16.0178,
      "duration": 0.2083,
      "velocity": 121,
      "chip": "ym2612"
    },
    {
      "channel": 1,
      "note": 55,
      "start": 16.018,
      "duration": 0.0698,
      "velocity": 107,
      "chip": "ym2612"
    },
    {
      "channel": 2,
      "note": 97,
      "start": 16.022,
      "duration": 0.01,
      "velocity": 125,
      "chip": "ym2612"
    },
    {
      "channel": 2,
      "note": 93,
      "start": 16.0323,
      "duration": 0.0592,
      "velocity": 125,
      "chip": "ym2612"
    },
    {
      "channel": 1,
      "note": 59,
      "start": 16.088,
      "duration": 0.0692,
      "velocity": 107,
      "chip": "ym2612"
    },
    {
      "channel": 2,
      "note": 88,
      "start": 16.0918,
      "duration": 0.0093,
      "velocity": 125,
      "chip": "ym2612"
    },
    {
      "channel": 2,
      "note": 100,
      "start": 16.1013,
      "duration": 0.0594,
      "velocity": 125,
      "chip": "ym2612"
    },
    {
      "channel": 1,
      "note": 66,
      "start": 16.1575,
      "duration": 0.069,
      "velocity": 107,
      "chip": "ym2612"
    },
    {
      "channel": 2,
      "note": 99,
      "start": 16.1609,
      "duration": 0.0093,
      "velocity": 125,
      "chip": "ym2612"
    },
    {
      "channel": 2,
      "note": 95,
      "start": 16.1704,
      "duration": 0.06,
      "velocity": 125,
      "chip": "ym2612"
    },
    {
      "channel": 0,
      "note": 52,
      "start": 16.2264,
      "duration": 0.0105,
      "velocity": 121,
      "chip": "ym2612"
    },
    {
      "channel": 1,
      "note": 64,
      "start": 16.2267,
      "duration": 0.0209,
      "velocity": 107,
      "chip": "ym2612"
    },
    {
      "channel": 2,
      "note": 97,
      "start": 16.2306,
      "duration": 0.0099,
      "velocity": 125,
      "chip": "ym2612"
    },
    {
      "channel": 0,
      "note": 54,
      "start": 16.2371,
      "duration": 0.0101,
      "velocity": 121,
      "chip": "ym2612"
    },
    {
      "channel": 2,
      "note": 93,
      "start": 16.2408,
      "duration": 0.0107,
      "velocity": 125,
      "chip": "ym2612"
    },
    {
      "channel": 0,
      "note": 59,
      "start": 16.2475,
      "duration": 0.021,
      "velocity": 121,
      "chip": "ym2612"
    },
    {
      "channel": 1,
      "note": 62,
      "start": 16.2477,
      "duration": 0.0212,
      "velocity": 107,
      "chip": "ym2612"
    },
    {
      "channel": 2,
      "note": 88,
      "start": 16.2515,
      "duration": 0.0102,
      "velocity": 125,
      "chip": "ym2612"
    },
    {
      "channel": 2,
      "note": 100,
      "start": 16.262,
      "duration": 0.0107,
      "velocity": 125,
      "chip": "ym2612"
    },
    {
      "channel": 0,
      "note": 59,
      "start": 16.2688,
      "duration": 0.1363,
      "velocity": 121,
      "chip": "ym2612"
    },
    {
      "channel": 1,
      "note": 66,
      "start": 16.269,
      "duration": 0.4155,
      "velocity": 107,
      "chip": "ym2612"
    },
    {
      "channel": 3,
      "note": 55,
      "start": 16.2694,
      "duration": 0.4154,
      "velocity": 101,
      "chip": "ym2612"
    },
    {
      "channel": 4,
      "note": 86,
      "start": 16.2696,
      "duration": 0.4155,
      "velocity": 113,
      "chip": "ym2612"
    },
    {
      "channel": 2,
      "note": 99,
      "start": 16.2729,
      "duration": 0.0093,
      "velocity": 125,
      "chip": "ym2612"
    },
    {
      "channel": 2,
      "note": 95,
      "start": 16.2823,
      "duration": 0.0581,
      "velocity": 125,
      "chip": "ym2612"
    },
    {
      "channel": 2,
      "note": 97,
      "start": 16.3407,
      "duration": 0.0085,
      "velocity": 125,
      "chip": "ym2612"
    },
    {
      "channel": 2,
      "note": 93,
      "start": 16.3493,
      "duration": 0.0595,
      "velocity": 125,
      "chip": "ym2612"
    },
    {
      "channel": 0,
      "note": 47,
      "start": 16.4055,
      "duration": 0.1385,
      "velocity": 121,
      "chip": "ym2612"
    },
    {
      "channel": 2,
      "note": 88,
      "start": 16.4092,
      "duration": 0.01,
      "velocity": 125,
      "chip": "ym2612"
    },
    {
      "channel": 2,
      "note": 100,
      "start": 16.4194,
      "duration": 0.0587,
      "velocity": 125,
      "chip": "ym2612"
    },
    {
      "channel": 2,
      "note": 99,
      "start": 16.4783,
      "duration": 0.0094,
      "velocity": 125,
      "chip": "ym2612"
    },
    {
      "channel": 2,
      "note": 95,
      "start": 16.488,
      "duration": 0.0599,
      "velocity": 125,
      "chip": "ym2612"
    },
    {
      "channel": 0,
      "note": 59,
      "start": 16.5443,
      "duration": 0.2096,
      "velocity": 121,
      "chip": "ym2612"
    },
    {
      "channel": 2,
      "note": 97,
      "start": 16.5482,
      "duration": 0.0105,
      "velocity": 125,
      "chip": "ym2612"
    },
    {
      "channel": 2,
      "note": 93,
      "start": 16.559,
      "duration": 0.0591,
      "velocity": 125,
      "chip": "ym2612"
    },
    {
      "channel": 2,
      "note": 88,
      "start": 16.6182,
      "duration": 0.0099,
      "velocity": 125,
      "chip": "ym2612"
    },
    {
      "channel": 2,
      "note": 100,
      "start": 16.6283,
      "duration": 0.06,
      "velocity": 125,
      "chip": "ym2612"
    },
    {
      "channel": 1,
      "note": 69,
      "start": 16.6847,
      "duration": 0.2289,
      "velocity": 107,
      "chip": "ym2612"
    },
    {
      "channel": 3,
      "note": 57,
      "start": 16.685,
      "duration": 0.1585,
      "velocity": 101,
      "chip": "ym2612"
    },
    {
      "channel": 4,
      "note": 88,
      "start": 16.6852,
      "duration": 0.1585,
      "velocity": 113,
      "chip": "ym2612"
    },
    {
      "channel": 2,
      "note": 99,
      "start": 16.6886,
      "duration": 0.0094,
      "velocity": 125,
      "chip": "ym2612"
    },
    {
      "channel": 2,
      "note": 95,
      "start": 16.6982,
      "duration": 0.0593,
      "velocity": 125,
      "chip": "ym2612"
    },
    {
      "channel": 0,
      "note": 47,
      "start": 16.7541,
      "duration": 0.0888,
      "velocity": 121,
      "chip": "ym2612"
    },
    {
      "channel": 2,
      "note": 97,
      "start": 16.7577,
      "duration": 0.0098,
      "velocity": 125,
      "chip": "ym2612"
    },
    {
      "channel": 2,
      "note": 93,
      "start": 16.7678,
      "duration": 0.0098,
      "velocity": 125,
      "chip": "ym2612"
    },
    {
      "channel": 2,
      "note": 88,
      "start": 16.7777,
      "duration": 0.0093,
      "velocity": 125,
      "chip": "ym2612"
    },
    {
      "channel": 2,
      "note": 100,
      "start": 16.7872,
      "duration": 0.0599,
      "velocity": 125,
      "chip": "ym2612"
    },
    {
      "channel": 0,
      "note": 59,
      "start": 16.8433,
      "duration": 0.0698,
      "velocity": 121,
      "chip": "ym2612"
    },
    {
      "channel": 3,
      "note": 69,
      "start": 16.8437,
      "duration": 0.2729,
      "velocity": 113,
      "chip": "ym2612"
    },
    {
      "channel": 4,
      "note": 85,
      "start": 16.844,
      "duration": 0.274,
      "velocity": 113,
      "chip": "ym2612"
    },
    {
      "channel": 2,
      "note": 99,
      "start": 16.8473,
      "duration": 0.01,
      "velocity": 125,
      "chip": "ym2612"
    },
    {
      "channel": 2,
      "note": 95,
      "start": 16.8576,
      "duration": 0.0605,
      "velocity": 125,
      "chip": "ym2612"
    },
    {
      "channel": 0,
      "note": 57,
      "start": 16.9135,
      "duration": 0.1149,
      "velocity": 121,
      "chip": "ym2612"
    },
    {
      "channel": 1,
      "note": 61,
      "start": 16.9138,
      "duration": 0.1151,
      "velocity": 107,
      "chip": "ym2612"
    },
    {
      "channel": 2,
      "note": 97,
      "start": 16.9181,
      "duration": 0.0613,
      "velocity": 125,
      "chip": "ym2612"
    },
    {
      "channel": 2,
      "note": 93,
      "start": 16.9797,
      "duration": 0.0535,
      "velocity": 125,
      "chip": "ym2612"
    },
    {
      "channel": 0,
      "note": 52,
      "start": 17.0288,
      "duration": 0.0853,
      "velocity": 121,
      "chip": "ym2612"
    },
    {
      "channel": 1,
      "note": 69,
      "start": 17.0291,
      "duration": 0.0862,
      "velocity": 122,
      "chip": "ym2612"
    },
    {
      "channel": 2,
      "note": 88,
      "start": 17.0334,
      "duration": 0.0523,
      "velocity": 125,
      "chip": "ym2612"
    },
    {
      "channel": 2,
      "note": 100,
      "start": 17.086,
      "duration": 0.036,
      "velocity": 113,
      "chip": "ym2612"
    },
    {
      "channel": 0,
      "note": 51,
      "start": 17.1143,
      "duration": 0.3659,
      "velocity": 121,
      "chip": "ym2612"
    },
    {
      "channel": 1,
      "note": 71,
      "start": 17.1155,
      "duration": 0.521,
      "velocity": 122,
      "chip": "ym2612"
    },
    {
      "channel": 3,
      "note": 75,
      "start": 17.1168,
      "duration": 0.0766,
      "velocity": 113,
      "chip": "ym2612"
    },
    {
      "channel": 4,
      "note": 78,
      "start": 17.1182,
      "duration": 0.0754,
      "velocity": 113,
      "chip": "ym2612"
    },
    {
      "channel": 2,
      "note": 83,
      "start": 17.1221,
      "duration": 0.1212,
      "velocity": 113,
      "chip": "ym2612"
    },
    {
      "channel": 3,
      "note": 75,
      "start": 17.3503,
      "duration": 0.0612,
      "velocity": 113,
      "chip": "ym2612"
    },
    {
      "channel": 4,
      "note": 78,
      "start": 17.3505,
      "duration": 0.0612,
      "velocity": 113,
      "chip": "ym2612"
    },
    {
      "channel": 2,
      "note": 83,
      "start": 17.3535,
      "duration": 0.0612,
      "velocity": 113,
      "chip": "ym2612"
    },
    {
      "channel": 3,
      "note": 75,
      "start": 17.4116,
      "duration": 0.0098,
      "velocity": 113,
      "chip": "ym2612"
    },
    {
      "channel": 4,
      "note": 78,
      "start": 17.4118,
      "duration": 0.0097,
      "velocity": 113,
      "chip": "ym2612"
    },
    {
      "channel": 2,
      "note": 83,
      "start": 17.4149,
      "duration": 0.0093,
      "velocity": 113,
      "chip": "ym2612"
    },
    {
      "channel": 0,
      "note": 63,
      "start": 17.4805,
      "duration": 0.0685,
      "velocity": 121,
      "chip": "ym2612"
    },
    {
      "channel": 3,
      "note": 75,
      "start": 17.4807,
      "duration": 0.01,
      "velocity": 113,
      "chip": "ym2612"
    },
    {
      "channel": 4,
      "note": 78,
      "start": 17.481,
      "duration": 0.0098,
      "velocity": 113,
      "chip": "ym2612"
    },
    {
      "channel": 2,
      "note": 83,
      "start": 17.4841,
      "duration": 0.0091,
      "velocity": 113,
      "chip": "ym2612"
    },
    {
      "channel": 0,
      "note": 61,
      "start": 17.5493,
      "duration": 0.0076,
      "velocity": 121,
      "chip": "ym2612"
    },
    {
      "channel": 0,
      "note": 63,
      "start": 17.5569,
      "duration": 0.0101,
      "velocity": 121,
      "chip": "ym2612"
    },
    {
      "channel": 3,
      "note": 75,
      "start": 17.5571,
      "duration": 0.0104,
      "velocity": 113,
      "chip": "ym2612"
    },
    {
      "channel": 4,
      "note": 78,
      "start": 17.5574,
      "duration": 0.0103,
      "velocity": 113,
      "chip": "ym2612"
    },
    {
      "channel": 2,
      "note": 83,
      "start": 17.5605,
      "duration": 0.0104,
      "velocity": 113,
      "chip": "ym2612"
    },
    {
      "channel": 0,
      "note": 51,
      "start": 17.5673,
      "duration": 0.0688,
      "velocity": 121,
      "chip": "ym2612"
    },
    {
      "channel": 3,
      "note": 75,
      "start": 17.5676,
      "duration": 0.0103,
      "velocity": 113,
      "chip": "ym2612"
    },
    {
      "channel": 4,
      "note": 78,
      "start": 17.5679,
      "duration": 0.0102,
      "velocity": 113,
      "chip": "ym2612"
    },
    {
      "channel": 2,
      "note": 83,
      "start": 17.5711,
      "duration": 0.0093,
      "velocity": 113,
      "chip": "ym2612"
    },
    {
      "channel": 0,
      "note": 52,
      "start": 17.6364,
      "duration": 0.2494,
      "velocity": 121,
      "chip": "ym2612"
    },
    {
      "channel": 1,
      "note": 69,
      "start": 17.6366,
      "duration": 0.3196,
      "velocity": 122,
      "chip": "ym2612"
    },
    {
      "channel": 3,
      "note": 74,
      "start": 17.6368,
      "duration": 0.4314,
      "velocity": 113,
      "chip": "ym2612"
    },
    {
      "channel": 4,
      "note": 78,
      "start": 17.637,
      "duration": 0.4314,
      "velocity": 113,
      "chip": "ym2612"
    },
    {
      "channel": 2,
      "note": 81,
      "start": 17.6402,
      "duration": 0.4314,
      "velocity": 113,
      "chip": "ym2612"
    },
    {
      "channel": 0,
      "note": 52,
      "start": 17.8862,
      "duration": 0.0698,
      "velocity": 121,
      "chip": "ym2612"
    },
    {
      "channel": 0,
      "note": 64,
      "start": 17.9562,
      "duration": 0.0697,
      "velocity": 121,
      "chip": "ym2612"
    },
    {
      "channel": 1,
      "note": 68,
      "start": 17.9564,
      "duration": 0.0805,
      "velocity": 122,
      "chip": "ym2612"
    },
    {
      "channel": 0,
      "note": 62,
      "start": 18.0261,
      "duration": 0.0107,
      "velocity": 121,
      "chip": "ym2612"
    },
    {
      "channel": 0,
      "note": 64,
      "start": 18.0368,
      "duration": 0.0104,
      "velocity": 121,
      "chip": "ym2612"
    },
    {
      "channel": 1,
      "note": 66,
      "start": 18.037,
      "duration": 0.0105,
      "velocity": 122,
      "chip": "ym2612"
    },
    {
      "channel": 0,
      "note": 59,
      "start": 18.0475,
      "duration": 0.0199,
      "velocity": 121,
      "chip": "ym2612"
    },
    {
      "channel": 1,
      "note": 64,
      "start": 18.0477,
      "duration": 0.0101,
      "velocity": 122,
      "chip": "ym2612"
    },
    {
      "channel": 1,
      "note": 66,
      "start": 18.058,
      "duration": 0.0098,
      "velocity": 122,
      "chip": "ym2612"
    },
    {
      "channel": 0,
      "note": 55,
      "start": 18.0677,
      "duration": 0.2221,
      "velocity": 121,
      "chip": "ym2612"
    },
    {
      "channel": 1,
      "note": 67,
      "start": 18.068,
      "duration": 0.2222,
      "velocity": 122,
      "chip": "ym2612"
    },
    {
      "channel": 3,
      "note": 74,
      "start": 18.0684,
      "duration": 0.0781,
      "velocity": 113,
      "chip": "ym2612"
    },
    {
      "channel": 4,
      "note": 83,
      "start": 18.0686,
      "duration": 0.0779,
      "velocity": 113,
      "chip": "ym2612"
    },
    {
      "channel": 2,
      "note": 79,
      "start": 18.0719,
      "duration": 0.0771,
      "velocity": 113,
      "chip": "ym2612"
    },
    {
      "channel": 3,
      "note": 74,
      "start": 18.1601,
      "duration": 0.0612,
      "velocity": 113,
      "chip": "ym2612"
    },
    {
      "channel": 4,
      "note": 83,
      "start": 18.1603,
      "duration": 0.0612,
      "velocity": 113,
      "chip": "ym2612"
    },
    {
      "channel": 2,
      "note": 79,
      "start": 18.1633,
      "duration": 0.0612,
      "velocity": 113,
      "chip": "ym2612"
    },
    {
      "channel": 3,
      "note": 74,
      "start": 18.2214,
      "duration": 0.0098,
      "velocity": 113,
      "chip": "ym2612"
    },
    {
      "channel": 4,
      "note": 83,
      "start": 18.2217,
      "duration": 0.0096,
      "velocity": 113,
      "chip": "ym2612"
    },
    {
      "channel": 2,
      "note": 79,
      "start": 18.2248,
      "duration": 0.009,
      "velocity": 113,
      "chip": "ym2612"
    },
    {
      "channel": 0,
      "note": 67,
      "start": 18.2901,
      "duration": 0.0693,
      "velocity": 121,
      "chip": "ym2612"
    },
    {
      "channel": 1,
      "note": 62,
      "start": 18.2904,
      "duration": 0.1387,
      "velocity": 122,
      "chip": "ym2612"
    },
    {
      "channel": 3,
      "note": 74,
      "start": 18.2906,
      "duration": 0.0105,
      "velocity": 113,
      "chip": "ym2612"
    },
    {
      "channel": 4,
      "note": 83,
      "start": 18.2909,
      "duration": 0.0103,
      "velocity": 113,
      "chip": "ym2612"
    },
    {
      "channel": 2,
      "note": 79,
      "start": 18.2945,
      "duration": 0.0092,
      "velocity": 113,
      "chip": "ym2612"
    },
    {
      "channel": 0,
      "note": 66,
      "start": 18.3597,
      "duration": 0.0076,
      "velocity": 121,
      "chip": "ym2612"
    },
    {
      "channel": 0,
      "note": 67,
      "start": 18.3673,
      "duration": 0.0614,
      "velocity": 121,
      "chip": "ym2612"
    },
    {
      "channel": 3,
      "note": 74,
      "start": 18.3677,
      "duration": 0.0617,
      "velocity": 113,
      "chip": "ym2612"
    },
    {
      "channel": 4,
      "note": 83,
      "start": 18.3679,
      "duration": 0.0617,
      "velocity": 113,
      "chip": "ym2612"
    },
    {
      "channel": 2,
      "note": 79,
      "start": 18.3715,
      "duration": 0.0612,
      "velocity": 113,
      "chip": "ym2612"
    },
    {
      "channel": 0,
      "note": 55,
      "start": 18.429,
      "duration": 0.0686,
      "velocity": 121,
      "chip": "ym2612"
    },
    {
      "channel": 1,
      "note": 62,
      "start": 18.4293,
      "duration": 0.01,
      "velocity": 122,
      "chip": "ym2612"
    },
    {
      "channel": 3,
      "note": 74,
      "start": 18.4296,
      "duration": 0.01,
      "velocity": 113,
      "chip": "ym2612"
    },
    {
      "channel": 4,
      "note": 83,
      "start": 18.4298,
      "duration": 0.0099,
      "velocity": 113,
      "chip": "ym2612"
    },
    {
      "channel": 2,
      "note": 79,
      "start": 18.4329,
      "duration": 0.0092,
      "velocity": 113,
      "chip": "ym2612"
    },
    {
      "channel": 1,
      "note": 64,
      "start": 18.4394,
      "duration": 0.0585,
      "velocity": 122,
      "chip": "ym2612"
    },
    {
      "channel": 0,
      "note": 57,
      "start": 18.4979,
      "duration": 0.249,
      "velocity": 121,
      "chip": "ym2612"
    },
    {
      "channel": 1,
      "note": 66,
      "start": 18.4982,
      "duration": 0.3192,
      "velocity": 122,
      "chip": "ym2612"
    },
    {
      "channel": 3,
      "note": 74,
      "start": 18.4984,
      "duration": 0.3194,
      "velocity": 113,
      "chip": "ym2612"
    },
    {
      "channel": 4,
      "note": 83,
      "start": 18.4986,
      "duration": 0.3194,
      "velocity": 113,
      "chip": "ym2612"
    },
    {
      "channel": 2,
      "note": 78,
      "start": 18.5021,
      "duration": 0.3191,
      "velocity": 113,
      "chip": "ym2612"
    },
    {
      "channel": 0,
      "note": 57,
      "start": 18.747,
      "duration": 0.07,
      "velocity": 121,
      "chip": "ym2612"
    },
    {
      "channel": 0,
      "note": 69,
      "start": 18.8173,
      "duration": 0.0207,
      "velocity": 121,
      "chip": "ym2612"
    },
    {
      "channel": 1,
      "note": 64,
      "start": 18.8176,
      "duration": 0.021,
      "velocity": 122,
      "chip": "ym2612"
    },
    {
      "channel": 3,
      "note": 73,
      "start": 18.8179,
      "duration": 0.1099,
      "velocity": 113,
      "chip": "ym2612"
    },
    {
      "channel": 4,
      "note": 81,
      "start": 18.8182,
      "duration": 0.1099,
      "velocity": 113,
      "chip": "ym2612"
    },
    {
      "channel": 2,
      "note": 76,
      "start": 18.8215,
      "duration": 0.11,
      "velocity": 113,
      "chip": "ym2612"
    },
    {
      "channel": 0,
      "note": 64,
      "start": 18.8385,
      "duration": 0.0686,
      "velocity": 121,
      "chip": "ym2612"
    },
    {
      "channel": 1,
      "note": 61,
      "start": 18.8387,
      "duration": 0.0688,
      "velocity": 122,
      "chip": "ym2612"
    },
    {
      "channel": 0,
      "note": 57,
      "start": 18.9074,
      "duration": 0.0198,
      "velocity": 121,
      "chip": "ym2612"
    },
    {
      "channel": 1,
      "note": 69,
      "start": 18.9076,
      "duration": 0.0199,
      "velocity": 122,
      "chip": "ym2612"
    },
    {
      "channel": 0,
      "note": 56,
      "start": 18.9275,
      "duration": 0.2965,
      "velocity": 121,
      "chip": "ym2612"
    },
    {
      "channel": 1,
      "note": 71,
      "start": 18.9277,
      "duration": 0.4352,
      "velocity": 122,
      "chip": "ym2612"
    },
    {
      "channel": 3,
      "note": 75,
      "start": 18.928,
      "duration": 0.0783,
      "velocity": 113,
      "chip": "ym2612"
    },
    {
      "channel": 4,
      "note": 78,
      "start": 18.9283,
      "duration": 0.0783,
      "velocity": 113,
      "chip": "ym2612"
    },
    {
      "channel": 2,
      "note": 78,
      "start": 18.9317,
      "duration": 0.1245,
      "velocity": 113,
      "chip": "ym2612"
    },
    {
      "channel": 3,
      "note": 75,
      "start": 19.1632,
      "duration": 0.0613,
      "velocity": 113,
      "chip": "ym2612"
    },
    {
      "channel": 4,
      "note": 78,
      "start": 19.1634,
      "duration": 0.0613,
      "velocity": 113,
      "chip": "ym2612"
    },
    {
      "channel": 2,
      "note": 78,
      "start": 19.1663,
      "duration": 0.0616,
      "velocity": 113,
      "chip": "ym2612"
    },
    {
      "channel": 0,
      "note": 56,
      "start": 19.2243,
      "duration": 0.0691,
      "velocity": 121,
      "chip": "ym2612"
    },
    {
      "channel": 3,
      "note": 75,
      "start": 19.2246,
      "duration": 0.0101,
      "velocity": 113,
      "chip": "ym2612"
    },
    {
      "channel": 4,
      "note": 78,
      "start": 19.2249,
      "duration": 0.0099,
      "velocity": 113,
      "chip": "ym2612"
    },
    {
      "channel": 2,
      "note": 78,
      "start": 19.2281,
      "duration": 0.0095,
      "velocity": 113,
      "chip": "ym2612"
    },
    {
      "channel": 0,
      "note": 68,
      "start": 19.2937,
      "duration": 0.0689,
      "velocity": 121,
      "chip": "ym2612"
    },
    {
      "channel": 3,
      "note": 75,
      "start": 19.2939,
      "duration": 0.0102,
      "velocity": 113,
      "chip": "ym2612"
    },
    {
      "channel": 4,
      "note": 78,
      "start": 19.2941,
      "duration": 0.0101,
      "velocity": 113,
      "chip": "ym2612"
    },
    {
      "channel": 2,
      "note": 78,
      "start": 19.2974,
      "duration": 0.0092,
      "velocity": 113,
      "chip": "ym2612"
    },
    {
      "channel": 0,
      "note": 66,
      "start": 19.3628,
      "duration": 0.0077,
      "velocity": 121,
      "chip": "ym2612"
    },
    {
      "channel": 1,
      "note": 59,
      "start": 19.363,
      "duration": 0.0186,
      "velocity": 122,
      "chip": "ym2612"
    },
    {
      "channel": 0,
      "note": 68,
      "start": 19.3705,
      "duration": 0.0107,
      "velocity": 121,
      "chip": "ym2612"
    },
    {
      "channel": 3,
      "note": 75,
      "start": 19.3708,
      "duration": 0.0111,
      "velocity": 113,
      "chip": "ym2612"
    },
    {
      "channel": 4,
      "note": 78,
      "start": 19.3711,
      "duration": 0.0111,
      "velocity": 113,
      "chip": "ym2612"
    },
    {
      "channel": 2,
      "note": 78,
      "start": 19.3746,
      "duration": 0.0109,
      "velocity": 113,
      "chip": "ym2612"
    },
    {
      "channel": 0,
      "note": 56,
      "start": 19.3816,
      "duration": 0.0692,
      "velocity": 121,
      "chip": "ym2612"
    },
    {
      "channel": 1,
      "note": 66,
      "start": 19.3818,
      "duration": 0.0693,
      "velocity": 122,
      "chip": "ym2612"
    },
    {
      "channel": 3,
      "note": 75,
      "start": 19.3822,
      "duration": 0.0104,
      "velocity": 113,
      "chip": "ym2612"
    },
    {
      "channel": 4,
      "note": 78,
      "start": 19.3823,
      "duration": 0.0103,
      "velocity": 113,
      "chip": "ym2612"
    },
    {
      "channel": 2,
      "note": 78,
      "start": 19.3858,
      "duration": 0.0094,
      "velocity": 113,
      "chip": "ym2612"
    },
    {
      "channel": 0,
      "note": 55,
      "start": 19.4511,
      "duration": 0.1568,
      "velocity": 121,
      "chip": "ym2612"
    },
    {
      "channel": 1,
      "note": 69,
      "start": 19.4513,
      "duration": 0.2262,
      "velocity": 122,
      "chip": "ym2612"
    },
    {
      "channel": 3,
      "note": 74,
      "start": 19.4515,
      "duration": 0.3378,
      "velocity": 113,
      "chip": "ym2612"
    },
    {
      "channel": 4,
      "note": 78,
      "start": 19.4517,
      "duration": 0.3378,
      "velocity": 113,
      "chip": "ym2612"
    },
    {
      "channel": 2,
      "note": 81,
      "start": 19.4554,
      "duration": 0.3374,
      "velocity": 113,
      "chip": "ym2612"
    },
    {
      "channel": 0,
      "note": 55,
      "start": 19.6082,
      "duration": 0.069,
      "velocity": 121,
      "chip": "ym2612"
    },
    {
      "channel": 0,
      "note": 67,
      "start": 19.6774,
      "duration": 0.0693,
      "velocity": 121,
      "chip": "ym2612"
    },
    {
      "channel": 1,
      "note": 67,
      "start": 19.6776,
      "duration": 0.0802,
      "velocity": 122,
      "chip": "ym2612"
    },
    {
      "channel": 0,
      "note": 66,
      "start": 19.7471,
      "duration": 0.0107,
      "velocity": 121,
      "chip": "ym2612"
    },
    {
      "channel": 0,
      "note": 67,
      "start": 19.7577,
      "duration": 0.0104,
      "velocity": 121,
      "chip": "ym2612"
    },
    {
      "channel": 1,
      "note": 66,
      "start": 19.7579,
      "duration": 0.0106,
      "velocity": 122,
      "chip": "ym2612"
    },
    {
      "channel": 0,
      "note": 62,
      "start": 19.7684,
      "duration": 0.0102,
      "velocity": 121,
      "chip": "ym2612"
    },
    {
      "channel": 1,
      "note": 64,
      "start": 19.7687,
      "duration": 0.0104,
      "velocity": 122,
      "chip": "ym2612"
    },
    {
      "channel": 0,
      "note": 59,
      "start": 19.779,
      "duration": 0.0096,
      "velocity": 121,
      "chip": "ym2612"
    },
    {
      "channel": 1,
      "note": 66,
      "start": 19.7792,
      "duration": 0.0098,
      "velocity": 122,
      "chip": "ym2612"
    },
    {
      "channel": 0,
      "note": 52,
      "start": 19.7889,
      "duration": 0.3649,
      "velocity": 121,
      "chip": "ym2612"
    },
    {
      "channel": 1,
      "note": 67,
      "start": 19.7892,
      "duration": 0.2284,
      "velocity": 122,
      "chip": "ym2612"
    },
    {
      "channel": 3,
      "note": 74,
      "start": 19.7895,
      "duration": 0.0783,
      "velocity": 113,
      "chip": "ym2612"
    },
    {
      "channel": 4,
      "note": 83,
      "start": 19.7897,
      "duration": 0.0783,
      "velocity": 113,
      "chip": "ym2612"
    },
    {
      "channel": 2,
      "note": 83,
      "start": 19.793,
      "duration": 0.1247,
      "velocity": 113,
      "chip": "ym2612"
    },
    {
      "channel": 1,
      "note": 62,
      "start": 20.0178,
      "duration": 0.0685,
      "velocity": 122,
      "chip": "ym2612"
    },
    {
      "channel": 3,
      "note": 74,
      "start": 20.0253,
      "duration": 0.0613,
      "velocity": 113,
      "chip": "ym2612"
    },
    {
      "channel": 4,
      "note": 83,
      "start": 20.0255,
      "duration": 0.0614,
      "velocity": 113,
      "chip": "ym2612"
    },
    {
      "channel": 2,
      "note": 83,
      "start": 20.0285,
      "duration": 0.0612,
      "velocity": 113,
      "chip": "ym2612"
    },
    {
      "channel": 1,
      "note": 59,
      "start": 20.0865,
      "duration": 0.1441,
      "velocity": 122,
      "chip": "ym2612"
    },
    {
      "channel": 3,
      "note": 74,
      "start": 20.0869,
      "duration": 0.0088,
      "velocity": 113,
      "chip": "ym2612"
    },
    {
      "channel": 4,
      "note": 83,
      "start": 20.087,
      "duration": 0.0087,
      "velocity": 113,
      "chip": "ym2612"
    },
    {
      "channel": 2,
      "note": 83,
      "start": 20.0899,
      "duration": 0.0081,
      "velocity": 113,
      "chip": "ym2612"
    },
    {
      "channel": 0,
      "note": 64,
      "start": 20.1541,
      "duration": 0.0681,
      "velocity": 121,
      "chip": "ym2612"
    },
    {
      "channel": 3,
      "note": 74,
      "start": 20.1544,
      "duration": 0.0095,
      "velocity": 113,
      "chip": "ym2612"
    },
    {
      "channel": 4,
      "note": 83,
      "start": 20.1546,
      "duration": 0.0093,
      "velocity": 113,
      "chip": "ym2612"
    },
    {
      "channel": 2,
      "note": 83,
      "start": 20.1576,
      "duration": 0.0089,
      "velocity": 113,
      "chip": "ym2612"
    },
    {
      "channel": 0,
      "note": 59,
      "start": 20.2226,
      "duration": 0.0686,
      "velocity": 121,
      "chip": "ym2612"
    },
    {
      "channel": 1,
      "note": 61,
      "start": 20.2308,
      "duration": 0.0607,
      "velocity": 122,
      "chip": "ym2612"
    },
    {
      "channel": 3,
      "note": 74,
      "start": 20.231,
      "duration": 0.0609,
      "velocity": 113,
      "chip": "ym2612"
    },
    {
      "channel": 4,
      "note": 83,
      "start": 20.2312,
      "duration": 0.0609,
      "velocity": 113,
      "chip": "ym2612"
    },
    {
      "channel": 2,
      "note": 83,
      "start": 20.234,
      "duration": 0.0611,
      "velocity": 113,
      "chip": "ym2612"
    },
    {
      "channel": 0,
      "note": 52,
      "start": 20.2915,
      "duration": 0.0687,
      "velocity": 121,
      "chip": "ym2612"
    },
    {
      "channel": 1,
      "note": 62,
      "start": 20.2917,
      "duration": 0.01,
      "velocity": 122,
      "chip": "ym2612"
    },
    {
      "channel": 3,
      "note": 74,
      "start": 20.2921,
      "duration": 0.0099,
      "velocity": 113,
      "chip": "ym2612"
    },
    {
      "channel": 4,
      "note": 83,
      "start": 20.2923,
      "duration": 0.0098,
      "velocity": 113,
      "chip": "ym2612"
    },
    {
      "channel": 2,
      "note": 83,
      "start": 20.2953,
      "duration": 0.0095,
      "velocity": 113,
      "chip": "ym2612"
    },
    {
      "channel": 1,
      "note": 64,
      "start": 20.3019,
      "duration": 0.0587,
      "velocity": 122,
      "chip": "ym2612"
    },
    {
      "channel": 0,
      "note": 57,
      "start": 20.3605,
      "duration": 0.2457,
      "velocity": 121,
      "chip": "ym2612"
    },
    {
      "channel": 1,
      "note": 66,
      "start": 20.3606,
      "duration": 0.3152,
      "velocity": 122,
      "chip": "ym2612"
    },
    {
      "channel": 3,
      "note": 74,
      "start": 20.3608,
      "duration": 0.0784,
      "velocity": 113,
      "chip": "ym2612"
    },
    {
      "channel": 4,
      "note": 83,
      "start": 20.361,
      "duration": 0.0784,
      "velocity": 113,
      "chip": "ym2612"
    },
    {
      "channel": 2,
      "note": 83,
      "start": 20.3642,
      "duration": 0.1249,
      "velocity": 113,
      "chip": "ym2612"
    },
    {
      "channel": 3,
      "note": 74,
      "start": 20.5967,
      "duration": 0.0101,
      "velocity": 113,
      "chip": "ym2612"
    },
    {
      "channel": 4,
      "note": 83,
      "start": 20.5969,
      "duration": 0.0101,
      "velocity": 113,
      "chip": "ym2612"
    },
    {
      "channel": 2,
      "note": 83,
      "start": 20.5997,
      "duration": 0.0105,
      "velocity": 113,
      "chip": "ym2612"
    },
    {
      "channel": 0,
      "note": 64,
      "start": 20.6064,
      "duration": 0.069,
      "velocity": 121,
      "chip": "ym2612"
    },
    {
      "channel": 3,
      "note": 74,
      "start": 20.6069,
      "duration": 0.0103,
      "velocity": 113,
      "chip": "ym2612"
    },
    {
      "channel": 4,
      "note": 83,
      "start": 20.6071,
      "duration": 0.0102,
      "velocity": 113,
      "chip": "ym2612"
    },
    {
      "channel": 2,
      "note": 83,
      "start": 20.6104,
      "duration": 0.0096,
      "velocity": 113,
      "chip": "ym2612"
    },
    {
      "channel": 0,
      "note": 69,
      "start": 20.6758,
      "duration": 0.0103,
      "velocity": 121,
      "chip": "ym2612"
    },
    {
      "channel": 1,
      "note": 69,
      "start": 20.676,
      "duration": 0.3282,
      "velocity": 111,
      "chip": "ym2612"
    },
    {
      "channel": 3,
      "note": 76,
      "start": 20.6762,
      "duration": 0.0103,
      "velocity": 113,
      "chip": "ym2612"
    },
    {
      "channel": 4,
      "note": 85,
      "start": 20.6764,
      "duration": 0.0102,
      "velocity": 113,
      "chip": "ym2612"
    },
    {
      "channel": 2,
      "note": 85,
      "start": 20.6796,
      "duration": 0.0097,
      "velocity": 113,
      "chip": "ym2612"
    },
    {
      "channel": 0,
      "note": 67,
      "start": 20.6863,
      "duration": 0.0587,
      "velocity": 121,
      "chip": "ym2612"
    },
    {
      "channel": 0,
      "note": 69,
      "start": 20.7454,
      "duration": 0.0761,
      "velocity": 121,
      "chip": "ym2612"
    },
    {
      "channel": 0,
      "note": 64,
      "start": 20.8215,
      "duration": 0.0523,
      "velocity": 121,
      "chip": "ym2612"
    },
    {
      "channel": 3,
      "note": 76,
      "start": 20.8219,
      "duration": 0.0522,
      "velocity": 113,
      "chip": "ym2612"
    },
    {
      "channel": 4,
      "note": 85,
      "start": 20.8222,
      "duration": 0.0522,
      "velocity": 113,
      "chip": "ym2612"
    },
    {
      "channel": 2,
      "note": 85,
      "start": 20.8257,
      "duration": 0.0529,
      "velocity": 113,
      "chip": "ym2612"
    },
    {
      "channel": 0,
      "note": 57,
      "start": 20.8738,
      "duration": 0.0531,
      "velocity": 121,
      "chip": "ym2612"
    },
    {
      "channel": 3,
      "note": 76,
      "start": 20.8742,
      "duration": 0.0529,
      "velocity": 113,
      "chip": "ym2612"
    },
    {
      "channel": 4,
      "note": 85,
      "start": 20.8745,
      "duration": 0.0527,
      "velocity": 113,
      "chip": "ym2612"
    },
    {
      "channel": 2,
      "note": 85,
      "start": 20.8789,
      "duration": 0.0515,
      "velocity": 113,
      "chip": "ym2612"
    },
    {
      "channel": 0,
      "note": 61,
      "start": 20.9269,
      "duration": 0.0761,
      "velocity": 121,
      "chip": "ym2612"
    },
    {
      "channel": 0,
      "note": 59,
      "start": 21.0032,
      "duration": 0.2498,
      "velocity": 121,
      "chip": "ym2612"
    },
    {
      "channel": 1,
      "note": 76,
      "start": 21.0044,
      "duration": 0.3179,
      "velocity": 111,
      "chip": "ym2612"
    },
    {
      "channel": 3,
      "note": 95,
      "start": 21.0056,
      "duration": 0.0772,
      "velocity": 113,
      "chip": "ym2612"
    },
    {
      "channel": 4,
      "note": 85,
      "start": 21.007,
      "duration": 0.3158,
      "velocity": 122,
      "chip": "ym2612"
    },
    {
      "channel": 2,
      "note": 59,
      "start": 21.0112,
      "duration": 0.1215,
      "velocity": 114,
      "chip": "ym2612"
    },
    {
      "channel": 2,
      "note": 59,
      "start": 21.1329,
      "duration": 0.1033,
      "velocity": 114,
      "chip": "ym2612"
    },
    {
      "channel": 3,
      "note": 93,
      "start": 21.233,
      "duration": 0.01,
      "velocity": 113,
      "chip": "ym2612"
    },
    {
      "channel": 3,
      "note": 95,
      "start": 21.2432,
      "duration": 0.0105,
      "velocity": 113,
      "chip": "ym2612"
    },
    {
      "channel": 2,
      "note": 59,
      "start": 21.2463,
      "duration": 0.0105,
      "velocity": 114,
      "chip": "ym2612"
    },
    {
      "channel": 0,
      "note": 47,
      "start": 21.2534,
      "duration": 0.2974,
      "velocity": 121,
      "chip": "ym2612"
    },
    {
      "channel": 3,
      "note": 90,
      "start": 21.2538,
      "duration": 0.0101,
      "velocity": 113,
      "chip": "ym2612"
    },
    {
      "channel": 2,
      "note": 59,
      "start": 21.257,
      "duration": 0.0096,
      "velocity": 114,
      "chip": "ym2612"
    },
    {
      "channel": 1,
      "note": 75,
      "start": 21.3225,
      "duration": 0.3178,
      "velocity": 111,
      "chip": "ym2612"
    },
    {
      "channel": 3,
      "note": 95,
      "start": 21.3227,
      "duration": 0.0784,
      "velocity": 113,
      "chip": "ym2612"
    },
    {
      "channel": 4,
      "note": 83,
      "start": 21.3229,
      "duration": 0.318,
      "velocity": 122,
      "chip": "ym2612"
    },
    {
      "channel": 2,
      "note": 59,
      "start": 21.3258,
      "duration": 0.1252,
      "velocity": 114,
      "chip": "ym2612"
    },
    {
      "channel": 0,
      "note": 47,
      "start": 21.551,
      "duration": 0.3181,
      "velocity": 121,
      "chip": "ym2612"
    },
    {
      "channel": 3,
      "note": 93,
      "start": 21.5513,
      "duration": 0.0101,
      "velocity": 113,
      "chip": "ym2612"
    },
    {
      "channel": 2,
      "note": 59,
      "start": 21.5546,
      "duration": 0.0102,
      "velocity": 114,
      "chip": "ym2612"
    },
    {
      "channel": 3,
      "note": 95,
      "start": 21.5616,
      "duration": 0.0102,
      "velocity": 113,
      "chip": "ym2612"
    },
    {
      "channel": 2,
      "note": 59,
      "start": 21.565,
      "duration": 0.0102,
      "velocity": 114,
      "chip": "ym2612"
    },
    {
      "channel": 3,
      "note": 90,
      "start": 21.572,
      "duration": 0.0089,
      "velocity": 113,
      "chip": "ym2612"
    },
    {
      "channel": 2,
      "note": 59,
      "start": 21.5836,
      "duration": 0.0607,
      "velocity": 114,
      "chip": "ym2612"
    },
    {
      "channel": 1,
      "note": 73,
      "start": 21.6405,
      "duration": 0.3187,
      "velocity": 111,
      "chip": "ym2612"
    },
    {
      "channel": 3,
      "note": 95,
      "start": 21.6408,
      "duration": 0.0787,
      "velocity": 113,
      "chip": "ym2612"
    },
    {
      "channel": 4,
      "note": 81,
      "start": 21.641,
      "duration": 0.3187,
      "velocity": 122,
      "chip": "ym2612"
    },
    {
      "channel": 2,
      "note": 59,
      "start": 21.6444,
      "duration": 0.1249,
      "velocity": 114,
      "chip": "ym2612"
    },
    {
      "channel": 0,
      "note": 59,
      "start": 21.8694,
      "duration": 0.0205,
      "velocity": 121,
      "chip": "ym2612"
    },
    {
      "channel": 3,
      "note": 93,
      "start": 21.8697,
      "duration": 0.0102,
      "velocity": 113,
      "chip": "ym2612"
    },
    {
      "channel": 2,
      "note": 59,
      "start": 21.873,
      "duration": 0.0102,
      "velocity": 114,
      "chip": "ym2612"
    },
    {
      "channel": 3,
      "note": 95,
      "start": 21.8801,
      "duration": 0.0104,
      "velocity": 113,
      "chip": "ym2612"
    },
    {
      "channel": 2,
      "note": 59,
      "start": 21.8835,
      "duration": 0.0104,
      "velocity": 114,
      "chip": "ym2612"
    },
    {
      "channel": 0,
      "note": 57,
      "start": 21.8902,
      "duration": 0.0686,
      "velocity": 121,
      "chip": "ym2612"
    },
    {
      "channel": 3,
      "note": 90,
      "start": 21.8906,
      "duration": 0.0092,
      "velocity": 113,
      "chip": "ym2612"
    },
    {
      "channel": 2,
      "note": 59,
      "start": 21.9026,
      "duration": 0.0601,
      "velocity": 114,
      "chip": "ym2612"
    },
    {
      "channel": 0,
      "note": 59,
      "start": 21.9591,
      "duration": 0.2285,
      "velocity": 121,
      "chip": "ym2612"
    },
    {
      "channel": 1,
      "note": 69,
      "start": 21.9593,
      "duration": 0.2287,
      "velocity": 111,
      "chip": "ym2612"
    },
    {
      "channel": 3,
      "note": 95,
      "start": 21.9596,
      "duration": 0.0783,
      "velocity": 113,
      "chip": "ym2612"
    },
    {
      "channel": 4,
      "note": 76,
      "start": 21.9598,
      "duration": 0.2287,
      "velocity": 122,
      "chip": "ym2612"
    },
    {
      "channel": 2,
      "note": 59,
      "start": 21.9629,
      "duration": 0.1249,
      "velocity": 114,
      "chip": "ym2612"
    },
    {
      "channel": 2,
      "note": 59,
      "start": 22.088,
      "duration": 0.1037,
      "velocity": 114,
      "chip": "ym2612"
    },
    {
      "channel": 0,
      "note": 52,
      "start": 22.1879,
      "duration": 0.02,
      "velocity": 121,
      "chip": "ym2612"
    },
    {
      "channel": 1,
      "note": 64,
      "start": 22.1881,
      "duration": 0.0202,
      "velocity": 111,
      "chip": "ym2612"
    },
    {
      "channel": 3,
      "note": 93,
      "start": 22.1884,
      "duration": 0.0095,
      "velocity": 113,
      "chip": "ym2612"
    },
    {
      "channel": 4,
      "note": 73,
      "start": 22.1886,
      "duration": 0.0201,
      "velocity": 122,
      "chip": "ym2612"
    },
    {
      "channel": 3,
      "note": 95,
      "start": 22.1981,
      "duration": 0.0104,
      "velocity": 113,
      "chip": "ym2612"
    },
    {
      "channel": 2,
      "note": 59,
      "start": 22.2012,
      "duration": 0.0107,
      "velocity": 114,
      "chip": "ym2612"
    },
    {
      "channel": 0,
      "note": 54,
      "start": 22.2082,
      "duration": 0.0198,
      "velocity": 121,
      "chip": "ym2612"
    },
    {
      "channel": 1,
      "note": 73,
      "start": 22.2084,
      "duration": 0.0201,
      "velocity": 111,
      "chip": "ym2612"
    },
    {
      "channel": 3,
      "note": 90,
      "start": 22.2087,
      "duration": 0.0093,
      "velocity": 113,
      "chip": "ym2612"
    },
    {
      "channel": 4,
      "note": 81,
      "start": 22.2089,
      "duration": 0.02,
      "velocity": 122,
      "chip": "ym2612"
    },
    {
      "channel": 3,
      "note": 95,
      "start": 22.2182,
      "duration": 0.0106,
      "velocity": 113,
      "chip": "ym2612"
    },
    {
      "channel": 2,
      "note": 59,
      "start": 22.2212,
      "duration": 0.0111,
      "velocity": 114,
      "chip": "ym2612"
    },
    {
      "channel": 0,
      "note": 55,
      "start": 22.2284,
      "duration": 0.2488,
      "velocity": 121,
      "chip": "ym2612"
    },
    {
      "channel": 1,
      "note": 76,
      "start": 22.2286,
      "duration": 0.3178,
      "velocity": 111,
      "chip": "ym2612"
    },
    {
      "channel": 3,
      "note": 95,
      "start": 22.2289,
      "duration": 0.078,
      "velocity": 113,
      "chip": "ym2612"
    },
    {
      "channel": 4,
      "note": 85,
      "start": 22.2291,
      "duration": 0.3177,
      "velocity": 122,
      "chip": "ym2612"
    },
    {
      "channel": 2,
      "note": 59,
      "start": 22.2325,
      "duration": 0.1243,
      "velocity": 114,
      "chip": "ym2612"
    },
    {
      "channel": 3,
      "note": 93,
      "start": 22.457,
      "duration": 0.0101,
      "velocity": 113,
      "chip": "ym2612"
    },
    {
      "channel": 2,
      "note": 59,
      "start": 22.4599,
      "duration": 0.0105,
      "velocity": 114,
      "chip": "ym2612"
    },
    {
      "channel": 3,
      "note": 95,
      "start": 22.4673,
      "duration": 0.0104,
      "velocity": 113,
      "chip": "ym2612"
    },
    {
      "channel": 2,
      "note": 59,
      "start": 22.4706,
      "duration": 0.0102,
      "velocity": 114,
      "chip": "ym2612"
    },
    {
      "channel": 0,
      "note": 67,
      "start": 22.4774,
      "duration": 0.2974,
      "velocity": 121,
      "chip": "ym2612"
    },
    {
      "channel": 3,
      "note": 90,
      "start": 22.4779,
      "duration": 0.0101,
      "velocity": 113,
      "chip": "ym2612"
    },
    {
      "channel": 2,
      "note": 59,
      "start": 22.4811,
      "duration": 0.0096,
      "velocity": 114,
      "chip": "ym2612"
    },
    {
      "channel": 1,
      "note": 74,
      "start": 22.5466,
      "duration": 0.318,
      "velocity": 111,
      "chip": "ym2612"
    },
    {
      "channel": 3,
      "note": 95,
      "start": 22.5468,
      "duration": 0.0784,
      "velocity": 113,
      "chip": "ym2612"
    },
    {
      "channel": 4,
      "note": 83,
      "start": 22.547,
      "duration": 0.3182,
      "velocity": 122,
      "chip": "ym2612"
    },
    {
      "channel": 2,
      "note": 59,
      "start": 22.5499,
      "duration": 0.1252,
      "velocity": 114,
      "chip": "ym2612"
    },
    {
      "channel": 2,
      "note": 59,
      "start": 22.6754,
      "duration": 0.1033,
      "velocity": 114,
      "chip": "ym2612"
    },
    {
      "channel": 0,
      "note": 62,
      "start": 22.7751,
      "duration": 0.02,
      "velocity": 121,
      "chip": "ym2612"
    },
    {
      "channel": 3,
      "note": 93,
      "start": 22.7755,
      "duration": 0.0097,
      "velocity": 113,
      "chip": "ym2612"
    },
    {
      "channel": 3,
      "note": 95,
      "start": 22.7854,
      "duration": 0.0102,
      "velocity": 113,
      "chip": "ym2612"
    },
    {
      "channel": 2,
      "note": 59,
      "start": 22.7885,
      "duration": 0.0105,
      "velocity": 114,
      "chip": "ym2612"
    },
    {
      "channel": 0,
      "note": 55,
      "start": 22.7954,
      "duration": 0.0688,
      "velocity": 121,
      "chip": "ym2612"
    },
    {
      "channel": 3,
      "note": 90,
      "start": 22.7958,
      "duration": 0.0093,
      "velocity": 113,
      "chip": "ym2612"
    },
    {
      "channel": 2,
      "note": 59,
      "start": 22.808,
      "duration": 0.0603,
      "velocity": 114,
      "chip": "ym2612"
    },
    {
      "channel": 0,
      "note": 57,
      "start": 22.8645,
      "duration": 0.2485,
      "velocity": 121,
      "chip": "ym2612"
    },
    {
      "channel": 1,
      "note": 78,
      "start": 22.8647,
      "duration": 0.3172,
      "velocity": 111,
      "chip": "ym2612"
    },
    {
      "channel": 3,
      "note": 95,
      "start": 22.8651,
      "duration": 0.0782,
      "velocity": 113,
      "chip": "ym2612"
    },
    {
      "channel": 4,
      "note": 86,
      "start": 22.8653,
      "duration": 0.3171,
      "velocity": 122,
      "chip": "ym2612"
    },
    {
      "channel": 3,
      "note": 93,
      "start": 23.0934,
      "duration": 0.0095,
      "velocity": 113,
      "chip": "ym2612"
    },
    {
      "channel": 2,
      "note": 59,
      "start": 23.0963,
      "duration": 0.01,
      "velocity": 114,
      "chip": "ym2612"
    },
    {
      "channel": 3,
      "note": 95,
      "start": 23.1032,
      "duration": 0.0104,
      "velocity": 113,
      "chip": "ym2612"
    },
    {
      "channel": 2,
      "note": 59,
      "start": 23.1066,
      "duration": 0.0101,
      "velocity": 114,
      "chip": "ym2612"
    },
    {
      "channel": 0,
      "note": 69,
      "start": 23.1133,
      "duration": 0.297,
      "velocity": 121,
      "chip": "ym2612"
    },
    {
      "channel": 3,
      "note": 90,
      "start": 23.1137,
      "duration": 0.0099,
      "velocity": 113,
      "chip": "ym2612"
    },
    {
      "channel": 2,
      "note": 59,
      "start": 23.1169,
      "duration": 0.0095,
      "velocity": 114,
      "chip": "ym2612"
    },
    {
      "channel": 1,
      "note": 76,
      "start": 23.1821,
      "duration": 0.2285,
      "velocity": 111,
      "chip": "ym2612"
    },
    {
      "channel": 3,
      "note": 95,
      "start": 23.1823,
      "duration": 0.0783,
      "velocity": 113,
      "chip": "ym2612"
    },
    {
      "channel": 4,
      "note": 85,
      "start": 23.1826,
      "duration": 0.2286,
      "velocity": 122,
      "chip": "ym2612"
    },
    {
      "channel": 2,
      "note": 59,
      "start": 23.1853,
      "duration": 0.1252,
      "velocity": 114,
      "chip": "ym2612"
    },
    {
      "channel": 2,
      "note": 59,
      "start": 23.3108,
      "duration": 0.1033,
      "velocity": 114,
      "chip": "ym2612"
    },
    {
      "channel": 0,
      "note": 64,
      "start": 23.4105,
      "duration": 0.0202,
      "velocity": 121,
      "chip": "ym2612"
    },
    {
      "channel": 1,
      "note": 73,
      "start": 23.4108,
      "duration": 0.0203,
      "velocity": 111,
      "chip": "ym2612"
    },
    {
      "channel": 3,
      "note": 93,
      "start": 23.4112,
      "duration": 0.0098,
      "velocity": 113,
      "chip": "ym2612"
    },
    {
      "channel": 4,
      "note": 81,
      "start": 23.4113,
      "duration": 0.0202,
      "velocity": 122,
      "chip": "ym2612"
    },
    {
      "channel": 3,
      "note": 95,
      "start": 23.421,
      "duration": 0.0104,
      "velocity": 113,
      "chip": "ym2612"
    },
    {
      "channel": 2,
      "note": 59,
      "start": 23.4241,
      "duration": 0.0107,
      "velocity": 114,
      "chip": "ym2612"
    },
    {
      "channel": 0,
      "note": 57,
      "start": 23.431,
      "duration": 0.0199,
      "velocity": 121,
      "chip": "ym2612"
    },
    {
      "channel": 1,
      "note": 81,
      "start": 23.4313,
      "duration": 0.02,
      "velocity": 111,
      "chip": "ym2612"
    },
    {
      "channel": 3,
      "note": 90,
      "start": 23.4315,
      "duration": 0.0095,
      "velocity": 113,
      "chip": "ym2612"
    },
    {
      "channel": 4,
      "note": 88,
      "start": 23.4317,
      "duration": 0.0201,
      "velocity": 122,
      "chip": "ym2612"
    },
    {
      "channel": 3,
      "note": 95,
      "start": 23.4412,
      "duration": 0.0105,
      "velocity": 113,
      "chip": "ym2612"
    },
    {
      "channel": 2,
      "note": 59,
      "start": 23.4443,
      "duration": 0.0109,
      "velocity": 114,
      "chip": "ym2612"
    },
    {
      "channel": 0,
      "note": 59,
      "start": 23.4512,
      "duration": 0.249,
      "velocity": 121,
      "chip": "ym2612"
    },
    {
      "channel": 1,
      "note": 76,
      "start": 23.4515,
      "duration": 0.3182,
      "velocity": 111,
      "chip": "ym2612"
    },
    {
      "channel": 3,
      "note": 95,
      "start": 23.4518,
      "duration": 0.0781,
      "velocity": 113,
      "chip": "ym2612"
    },
    {
      "channel": 4,
      "note": 85,
      "start": 23.452,
      "duration": 0.318,
      "velocity": 122,
      "chip": "ym2612"
    },
    {
      "channel": 2,
      "note": 59,
      "start": 23.4554,
      "duration": 0.1244,
      "velocity": 114,
      "chip": "ym2612"
    },
    {
      "channel": 2,
      "note": 59,
      "start": 23.5801,
      "duration": 0.1033,
      "velocity": 114,
      "chip": "ym2612"
    },
    {
      "channel": 3,
      "note": 93,
      "start": 23.6801,
      "duration": 0.0103,
      "velocity": 113,
      "chip": "ym2612"
    },
    {
      "channel": 3,
      "note": 95,
      "start": 23.6906,
      "duration": 0.0102,
      "velocity": 113,
      "chip": "ym2612"
    },
    {
      "channel": 2,
      "note": 59,
      "start": 23.6936,
      "duration": 0.0106,
      "velocity": 114,
      "chip": "ym2612"
    },
    {
      "channel": 0,
      "note": 47,
      "start": 23.7005,
      "duration": 0.2976,
      "velocity": 121,
      "chip": "ym2612"
    },
    {
      "channel": 3,
      "note": 90,
      "start": 23.701,
      "duration": 0.0104,
      "velocity": 113,
      "chip": "ym2612"
    },
    {
      "channel": 2,
      "note": 59,
      "start": 23.7046,
      "duration": 0.0095,
      "velocity": 114,
      "chip": "ym2612"
    },
    {
      "channel": 1,
      "note": 75,
      "start": 23.7699,
      "duration": 0.3189,
      "velocity": 111,
      "chip": "ym2612"
    },
    {
      "channel": 3,
      "note": 95,
      "start": 23.7701,
      "duration": 0.0784,
      "velocity": 113,
      "chip": "ym2612"
    },
    {
      "channel": 4,
      "note": 83,
      "start": 23.7702,
      "duration": 0.3191,
      "velocity": 122,
      "chip": "ym2612"
    },
    {
      "channel": 2,
      "note": 59,
      "start": 23.7732,
      "duration": 0.1252,
      "velocity": 114,
      "chip": "ym2612"
    },
    {
      "channel": 0,
      "note": 47,
      "start": 23.9984,
      "duration": 0.3192,
      "velocity": 121,
      "chip": "ym2612"
    },
    {
      "channel": 3,
      "note": 93,
      "start": 23.9987,
      "duration": 0.0103,
      "velocity": 113,
      "chip": "ym2612"
    },
    {
      "channel": 2,
      "note": 59,
      "start": 24.002,
      "duration": 0.0104,
      "velocity": 114,
      "chip": "ym2612"
    },
    {
      "channel": 3,
      "note": 95,
      "start": 24.0092,
      "duration": 0.0102,
      "velocity": 113,
      "chip": "ym2612"
    },
    {
      "channel": 2,
      "note": 59,
      "start": 24.0126,
      "duration": 0.0102,
      "velocity": 114,
      "chip": "ym2612"
    },
    {
      "channel": 3,
      "note": 90,
      "start": 24.0196,
      "duration": 0.0092,
      "velocity": 113,
      "chip": "ym2612"
    },
    {
      "channel": 2,
      "note": 59,
      "start": 24.0317,
      "duration": 0.061,
      "velocity": 114,
      "chip": "ym2612"
    },
    {
      "channel": 1,
      "note": 73,
      "start": 24.089,
      "duration": 0.3198,
      "velocity": 111,
      "chip": "ym2612"
    },
    {
      "channel": 3,
      "note": 95,
      "start": 24.0893,
      "duration": 0.0787,
      "velocity": 113,
      "chip": "ym2612"
    },
    {
      "channel": 4,
      "note": 81,
      "start": 24.0895,
      "duration": 0.3198,
      "velocity": 122,
      "chip": "ym2612"
    },
    {
      "channel": 2,
      "note": 59,
      "start": 24.0929,
      "duration": 0.1249,
      "velocity": 114,
      "chip": "ym2612"
    },
    {
      "channel": 0,
      "note": 59,
      "start": 24.3179,
      "duration": 0.021,
      "velocity": 121,
      "chip": "ym2612"
    },
    {
      "channel": 3,
      "note": 93,
      "start": 24.3182,
      "duration": 0.0104,
      "velocity": 113,
      "chip": "ym2612"
    },
    {
      "channel": 2,
      "note": 59,
      "start": 24.3215,
      "duration": 0.0105,
      "velocity": 114,
      "chip": "ym2612"
    },
    {
      "channel": 3,
      "note": 95,
      "start": 24.3288,
      "duration": 0.0108,
      "velocity": 113,
      "chip": "ym2612"
    },
    {
      "channel": 2,
      "note": 59,
      "start": 24.3323,
      "duration": 0.011,
      "velocity": 114,
      "chip": "ym2612"
    },
    {
      "channel": 0,
      "note": 57,
      "start": 24.3392,
      "duration": 0.0693,
      "velocity": 121,
      "chip": "ym2612"
    },
    {
      "channel": 3,
      "note": 90,
      "start": 24.3397,
      "duration": 0.0095,
      "velocity": 113,
      "chip": "ym2612"
    },
    {
      "channel": 2,
      "note": 59,
      "start": 24.3522,
      "duration": 0.0604,
      "velocity": 114,
      "chip": "ym2612"
    },
    {
      "channel": 0,
      "note": 59,
      "start": 24.4087,
      "duration": 0.2285,
      "velocity": 121,
      "chip": "ym2612"
    },
    {
      "channel": 1,
      "note": 69,
      "start": 24.4089,
      "duration": 0.2287,
      "velocity": 111,
      "chip": "ym2612"
    },
    {
      "channel": 3,
      "note": 95,
      "start": 24.4092,
      "duration": 0.0783,
      "velocity": 113,
      "chip": "ym2612"
    },
    {
      "channel": 4,
      "note": 76,
      "start": 24.4095,
      "duration": 0.2286,
      "velocity": 122,
      "chip": "ym2612"
    },
    {
      "channel": 2,
      "note": 59,
      "start": 24.4127,
      "duration": 0.1247,
      "velocity": 114,
      "chip": "ym2612"
    },
    {
      "channel": 2,
      "note": 59,
      "start": 24.5377,
      "duration": 0.1037,
      "velocity": 114,
      "chip": "ym2612"
    },
    {
      "channel": 0,
      "note": 52,
      "start": 24.6375,
      "duration": 0.0199,
      "velocity": 121,
      "chip": "ym2612"
    },
    {
      "channel": 1,
      "note": 64,
      "start": 24.6377,
      "duration": 0.0201,
      "velocity": 111,
      "chip": "ym2612"
    },
    {
      "channel": 3,
      "note": 93,
      "start": 24.638,
      "duration": 0.0095,
      "velocity": 113,
      "chip": "ym2612"
    },
    {
      "channel": 4,
      "note": 73,
      "start": 24.6383,
      "duration": 0.02,
      "velocity": 122,
      "chip": "ym2612"
    },
    {
      "channel": 3,
      "note": 95,
      "start": 24.6478,
      "duration": 0.0104,
      "velocity": 113,
      "chip": "ym2612"
    },
    {
      "channel": 2,
      "note": 59,
      "start": 24.6508,
      "duration": 0.0107,
      "velocity": 114,
      "chip": "ym2612"
    },
    {
      "channel": 0,
      "note": 54,
      "start": 24.6578,
      "duration": 0.0199,
      "velocity": 121,
      "chip": "ym2612"
    },
    {
      "channel": 1,
      "note": 73,
      "start": 24.658,
      "duration": 0.02,
      "velocity": 111,
      "chip": "ym2612"
    },
    {
      "channel": 3,
      "note": 90,
      "start": 24.6583,
      "duration": 0.0094,
      "velocity": 113,
      "chip": "ym2612"
    },
    {
      "channel": 4,
      "note": 81,
      "start": 24.6585,
      "duration": 0.0203,
      "velocity": 122,
      "chip": "ym2612"
    },
    {
      "channel": 3,
      "note": 95,
      "start": 24.6678,
      "duration": 0.0107,
      "velocity": 113,
      "chip": "ym2612"
    },
    {
      "channel": 2,
      "note": 59,
      "start": 24.6709,
      "duration": 0.0122,
      "velocity": 114,
      "chip": "ym2612"
    },
    {
      "channel": 0,
      "note": 55,
      "start": 24.6779,
      "duration": 0.2473,
      "velocity": 121,
      "chip": "ym2612"
    },
    {
      "channel": 1,
      "note": 74,
      "start": 24.6783,
      "duration": 0.5449,
      "velocity": 111,
      "chip": "ym2612"
    },
    {
      "channel": 3,
      "note": 95,
      "start": 24.6787,
      "duration": 0.0768,
      "velocity": 113,
      "chip": "ym2612"
    },
    {
      "channel": 4,
      "note": 83,
      "start": 24.679,
      "duration": 0.5446,
      "velocity": 122,
      "chip": "ym2612"
    },
    {
      "channel": 2,
      "note": 59,
      "start": 24.6833,
      "duration": 0.1222,
      "velocity": 114,
      "chip": "ym2612"
    },
    {
      "channel": 3,
      "note": 93,
      "start": 24.9056,
      "duration": 0.0093,
      "velocity": 113,
      "chip": "ym2612"
    },
    {
      "channel": 2,
      "note": 59,
      "start": 24.9085,
      "duration": 0.0098,
      "velocity": 114,
      "chip": "ym2612"
    },
    {
      "channel": 3,
      "note": 95,
      "start": 24.9152,
      "duration": 0.0106,
      "velocity": 113,
      "chip": "ym2612"
    },
    {
      "channel": 2,
      "note": 59,
      "start": 24.9185,
      "duration": 0.0104,
      "velocity": 114,
      "chip": "ym2612"
    },
    {
      "channel": 0,
      "note": 67,
      "start": 24.9255,
      "duration": 0.2972,
      "velocity": 121,
      "chip": "ym2612"
    },
    {
      "channel": 3,
      "note": 90,
      "start": 24.926,
      "duration": 0.0099,
      "velocity": 113,
      "chip": "ym2612"
    },
    {
      "channel": 2,
      "note": 59,
      "start": 24.9292,
      "duration": 0.0095,
      "velocity": 114,
      "chip": "ym2612"
    },
    {
      "channel": 3,
      "note": 95,
      "start": 24.9945,
      "duration": 0.0786,
      "velocity": 113,
      "chip": "ym2612"
    },
    {
      "channel": 2,
      "note": 59,
      "start": 24.9975,
      "duration": 0.1255,
      "velocity": 114,
      "chip": "ym2612"
    },
    {
      "channel": 2,
      "note": 59,
      "start": 25.1233,
      "duration": 0.1038,
      "velocity": 114,
      "chip": "ym2612"
    },
    {
      "channel": 0,
      "note": 62,
      "start": 25.223,
      "duration": 0.0209,
      "velocity": 121,
      "chip": "ym2612"
    },
    {
      "channel": 1,
      "note": 71,
      "start": 25.2232,
      "duration": 0.0211,
      "velocity": 111,
      "chip": "ym2612"
    },
    {
      "channel": 3,
      "note": 93,
      "start": 25.2236,
      "duration": 0.0101,
      "velocity": 113,
      "chip": "ym2612"
    },
    {
      "channel": 4,
      "note": 79,
      "start": 25.2238,
      "duration": 0.0211,
      "velocity": 122,
      "chip": "ym2612"
    },
    {
      "channel": 3,
      "note": 95,
      "start": 25.2338,
      "duration": 0.0108,
      "velocity": 113,
      "chip": "ym2612"
    },
    {
      "channel": 2,
      "note": 59,
      "start": 25.237,
      "duration": 0.0112,
      "velocity": 114,
      "chip": "ym2612"
    },
    {
      "channel": 0,
      "note": 55,
      "start": 25.2442,
      "duration": 0.0689,
      "velocity": 121,
      "chip": "ym2612"
    },
    {
      "channel": 1,
      "note": 78,
      "start": 25.2445,
      "duration": 0.3877,
      "velocity": 111,
      "chip": "ym2612"
    },
    {
      "channel": 3,
      "note": 90,
      "start": 25.2448,
      "duration": 0.0098,
      "velocity": 113,
      "chip": "ym2612"
    },
    {
      "channel": 4,
      "note": 86,
      "start": 25.245,
      "duration": 0.3876,
      "velocity": 122,
      "chip": "ym2612"
    },
    {
      "channel": 2,
      "note": 59,
      "start": 25.2574,
      "duration": 0.0594,
      "velocity": 114,
      "chip": "ym2612"
    },
    {
      "channel": 0,
      "note": 57,
      "start": 25.3135,
      "duration": 0.2488,
      "velocity": 121,
      "chip": "ym2612"
    },
    {
      "channel": 3,
      "note": 95,
      "start": 25.3139,
      "duration": 0.0778,
      "velocity": 113,
      "chip": "ym2612"
    },
    {
      "channel": 3,
      "note": 93,
      "start": 25.5418,
      "duration": 0.0102,
      "velocity": 113,
      "chip": "ym2612"
    },
    {
      "channel": 2,
      "note": 59,
      "start": 25.5448,
      "duration": 0.0104,
      "velocity": 114,
      "chip": "ym2612"
    },
    {
      "channel": 3,
      "note": 95,
      "start": 25.5522,
      "duration": 0.0107,
      "velocity": 113,
      "chip": "ym2612"
    },
    {
      "channel": 2,
      "note": 59,
      "start": 25.5554,
      "duration": 0.011,
      "velocity": 114,
      "chip": "ym2612"
    },
    {
      "channel": 0,
      "note": 69,
      "start": 25.5626,
      "duration": 0.298,
      "velocity": 121,
      "chip": "ym2612"
    },
    {
      "channel": 3,
      "note": 90,
      "start": 25.563,
      "duration": 0.0104,
      "velocity": 113,
      "chip": "ym2612"
    },
    {
      "channel": 2,
      "note": 59,
      "start": 25.5666,
      "duration": 0.0097,
      "velocity": 114,
      "chip": "ym2612"
    },
    {
      "channel": 1,
      "note": 76,
      "start": 25.6323,
      "duration": 0.2286,
      "velocity": 111,
      "chip": "ym2612"
    },
    {
      "channel": 3,
      "note": 95,
      "start": 25.6325,
      "duration": 0.0784,
      "velocity": 113,
      "chip": "ym2612"
    },
    {
      "channel": 4,
      "note": 85,
      "start": 25.6328,
      "duration": 0.2287,
      "velocity": 122,
      "chip": "ym2612"
    },
    {
      "channel": 2,
      "note": 59,
      "start": 25.6357,
      "duration": 0.1251,
      "velocity": 114,
      "chip": "ym2612"
    },
    {
      "channel": 2,
      "note": 59,
      "start": 25.7611,
      "duration": 0.1035,
      "velocity": 114,
      "chip": "ym2612"
    },
    {
      "channel": 0,
      "note": 61,
      "start": 25.8609,
      "duration": 0.0709,
      "velocity": 121,
      "chip": "ym2612"
    },
    {
      "channel": 1,
      "note": 78,
      "start": 25.8611,
      "duration": 0.071,
      "velocity": 111,
      "chip": "ym2612"
    },
    {
      "channel": 3,
      "note": 93,
      "start": 25.8615,
      "duration": 0.0094,
      "velocity": 113,
      "chip": "ym2612"
    },
    {
      "channel": 4,
      "note": 86,
      "start": 25.8616,
      "duration": 0.0712,
      "velocity": 122,
      "chip": "ym2612"
    },
    {
      "channel": 3,
      "note": 95,
      "start": 25.871,
      "duration": 0.0616,
      "velocity": 113,
      "chip": "ym2612"
    },
    {
      "channel": 2,
      "note": 59,
      "start": 25.8746,
      "duration": 0.0623,
      "velocity": 114,
      "chip": "ym2612"
    },
    {
      "channel": 0,
      "note": 64,
      "start": 25.932,
      "duration": 0.0852,
      "velocity": 121,
      "chip": "ym2612"
    },
    {
      "channel": 1,
      "note": 81,
      "start": 25.9324,
      "duration": 0.0861,
      "velocity": 113,
      "chip": "ym2612"
    },
    {
      "channel": 3,
      "note": 90,
      "start": 25.9328,
      "duration": 0.0524,
      "velocity": 113,
      "chip": "ym2612"
    },
    {
      "channel": 4,
      "note": 88,
      "start": 25.9331,
      "duration": 0.0879,
      "velocity": 113,
      "chip": "ym2612"
    },
    {
      "channel": 3,
      "note": 95,
      "start": 25.9853,
      "duration": 0.0345,
      "velocity": 113,
      "chip": "ym2612"
    },
    {
      "channel": 2,
      "note": 59,
      "start": 25.9891,
      "duration": 0.0362,
      "velocity": 125,
      "chip": "ym2612"
    },
    {
      "channel": 0,
      "note": 59,
      "start": 26.0176,
      "duration": 0.3155,
      "velocity": 121,
      "chip": "ym2612"
    },
    {
      "channel": 1,
      "note": 90,
      "start": 26.0187,
      "duration": 0.078,
      "velocity": 113,
      "chip": "ym2612"
    },
    {
      "channel": 3,
      "note": 75,
      "start": 26.0201,
      "duration": 0.077,
      "velocity": 113,
      "chip": "ym2612"
    },
    {
      "channel": 4,
      "note": 71,
      "start": 26.0212,
      "duration": 0.0762,
      "velocity": 113,
      "chip": "ym2612"
    },
    {
      "channel": 2,
      "note": 83,
      "start": 26.0256,
      "duration": 0.1212,
      "velocity": 125,
      "chip": "ym2612"
    },
    {
      "channel": 1,
      "note": 90,
      "start": 26.0969,
      "duration": 0.1499,
      "velocity": 113,
      "chip": "ym2612"
    },
    {
      "channel": 3,
      "note": 75,
      "start": 26.0974,
      "duration": 0.1495,
      "velocity": 113,
      "chip": "ym2612"
    },
    {
      "channel": 4,
      "note": 71,
      "start": 26.0977,
      "duration": 0.1493,
      "velocity": 113,
      "chip": "ym2612"
    },
    {
      "channel": 2,
      "note": 83,
      "start": 26.249,
      "duration": 0.0085,
      "velocity": 125,
      "chip": "ym2612"
    },
    {
      "channel": 1,
      "note": 90,
      "start": 26.2541,
      "duration": 0.0102,
      "velocity": 113,
      "chip": "ym2612"
    },
    {
      "channel": 3,
      "note": 75,
      "start": 26.2543,
      "duration": 0.0103,
      "velocity": 113,
      "chip": "ym2612"
    },
    {
      "channel": 4,
      "note": 71,
      "start": 26.2545,
      "duration": 0.0103,
      "velocity": 113,
      "chip": "ym2612"
    },
    {
      "channel": 2,
      "note": 83,
      "start": 26.2578,
      "duration": 0.0103,
      "velocity": 125,
      "chip": "ym2612"
    },
    {
      "channel": 1,
      "note": 90,
      "start": 26.2644,
      "duration": 0.0095,
      "velocity": 113,
      "chip": "ym2612"
    },
    {
      "channel": 3,
      "note": 75,
      "start": 26.2647,
      "duration": 0.0093,
      "velocity": 113,
      "chip": "ym2612"
    },
    {
      "channel": 4,
      "note": 71,
      "start": 26.2649,
      "duration": 0.0092,
      "velocity": 113,
      "chip": "ym2612"
    },
    {
      "channel": 2,
      "note": 83,
      "start": 26.2763,
      "duration": 0.0612,
      "velocity": 125,
      "chip": "ym2612"
    },
    {
      "channel": 0,
      "note": 47,
      "start": 26.3333,
      "duration": 0.333,
      "velocity": 121,
      "chip": "ym2612"
    },
    {
      "channel": 1,
      "note": 93,
      "start": 26.3335,
      "duration": 0.0787,
      "velocity": 113,
      "chip": "ym2612"
    },
    {
      "channel": 3,
      "note": 78,
      "start": 26.3339,
      "duration": 0.0786,
      "velocity": 113,
      "chip": "ym2612"
    },
    {
      "channel": 4,
      "note": 74,
      "start": 26.3341,
      "duration": 0.0787,
      "velocity": 113,
      "chip": "ym2612"
    },
    {
      "channel": 1,
      "note": 93,
      "start": 26.4124,
      "duration": 0.1499,
      "velocity": 113,
      "chip": "ym2612"
    },
    {
      "channel": 3,
      "note": 78,
      "start": 26.4127,
      "duration": 0.1497,
      "velocity": 113,
      "chip": "ym2612"
    },
    {
      "channel": 4,
      "note": 74,
      "start": 26.413,
      "duration": 0.1494,
      "velocity": 113,
      "chip": "ym2612"
    },
    {
      "channel": 2,
      "note": 83,
      "start": 26.5654,
      "duration": 0.0765,
      "velocity": 125,
      "chip": "ym2612"
    },
    {
      "channel": 1,
      "note": 93,
      "start": 26.6386,
      "duration": 0.01,
      "velocity": 113,
      "chip": "ym2612"
    },
    {
      "channel": 3,
      "note": 78,
      "start": 26.6389,
      "duration": 0.01,
      "velocity": 113,
      "chip": "ym2612"
    },
    {
      "channel": 4,
      "note": 74,
      "start": 26.6392,
      "duration": 0.01,
      "velocity": 113,
      "chip": "ym2612"
    },
    {
      "channel": 2,
      "note": 83,
      "start": 26.6421,
      "duration": 0.01,
      "velocity": 125,
      "chip": "ym2612"
    },
    {
      "channel": 1,
      "note": 93,
      "start": 26.6488,
      "duration": 0.0101,
      "velocity": 113,
      "chip": "ym2612"
    },
    {
      "channel": 3,
      "note": 78,
      "start": 26.6491,
      "duration": 0.0099,
      "velocity": 113,
      "chip": "ym2612"
    },
    {
      "channel": 4,
      "note": 74,
      "start": 26.6493,
      "duration": 0.0097,
      "velocity": 113,
      "chip": "ym2612"
    },
    {
      "channel": 2,
      "note": 83,
      "start": 26.6614,
      "duration": 0.0102,
      "velocity": 125,
      "chip": "ym2612"
    },
    {
      "channel": 0,
      "note": 59,
      "start": 26.6666,
      "duration": 0.2699,
      "velocity": 121,
      "chip": "ym2612"
    },
    {
      "channel": 1,
      "note": 92,
      "start": 26.6669,
      "duration": 0.0329,
      "velocity": 113,
      "chip": "ym2612"
    },
    {
      "channel": 3,
      "note": 77,
      "start": 26.6674,
      "duration": 0.0328,
      "velocity": 113,
      "chip": "ym2612"
    },
    {
      "channel": 4,
      "note": 73,
      "start": 26.6676,
      "duration": 0.0329,
      "velocity": 113,
      "chip": "ym2612"
    },
    {
      "channel": 2,
      "note": 83,
      "start": 26.6718,
      "duration": 0.0781,
      "velocity": 125,
      "chip": "ym2612"
    },
    {
      "channel": 1,
      "note": 92,
      "start": 26.7,
      "duration": 0.1499,
      "velocity": 113,
      "chip": "ym2612"
    },
    {
      "channel": 3,
      "note": 77,
      "start": 26.7004,
      "duration": 0.1495,
      "velocity": 113,
      "chip": "ym2612"
    },
    {
      "channel": 4,
      "note": 73,
      "start": 26.7007,
      "duration": 0.1493,
      "velocity": 113,
      "chip": "ym2612"
    },
    {
      "channel": 2,
      "note": 83,
      "start": 26.8524,
      "duration": 0.009,
      "velocity": 125,
      "chip": "ym2612"
    },
    {
      "channel": 1,
      "note": 92,
      "start": 26.8579,
      "duration": 0.0102,
      "velocity": 113,
      "chip": "ym2612"
    },
    {
      "channel": 3,
      "note": 77,
      "start": 26.8583,
      "duration": 0.0103,
      "velocity": 113,
      "chip": "ym2612"
    },
    {
      "channel": 4,
      "note": 73,
      "start": 26.8585,
      "duration": 0.0104,
      "velocity": 113,
      "chip": "ym2612"
    },
    {
      "channel": 2,
      "note": 83,
      "start": 26.8617,
      "duration": 0.0101,
      "velocity": 125,
      "chip": "ym2612"
    },
    {
      "channel": 1,
      "note": 92,
      "start": 26.8685,
      "duration": 0.0091,
      "velocity": 113,
      "chip": "ym2612"
    },
    {
      "channel": 3,
      "note": 77,
      "start": 26.8688,
      "duration": 0.0088,
      "velocity": 113,
      "chip": "ym2612"
    },
    {
      "channel": 4,
      "note": 73,
      "start": 26.869,
      "duration": 0.0088,
      "velocity": 113,
      "chip": "ym2612"
    },
    {
      "channel": 2,
      "note": 83,
      "start": 26.8802,
      "duration": 0.0603,
      "velocity": 125,
      "chip": "ym2612"
    },
    {
      "channel": 0,
      "note": 47,
      "start": 26.9368,
      "duration": 0.0883,
      "velocity": 121,
      "chip": "ym2612"
    },
    {
      "channel": 1,
      "note": 91,
      "start": 26.9371,
      "duration": 0.0783,
      "velocity": 113,
      "chip": "ym2612"
    },
    {
      "channel": 3,
      "note": 76,
      "start": 26.9375,
      "duration": 0.0782,
      "velocity": 113,
      "chip": "ym2612"
    },
    {
      "channel": 4,
      "note": 72,
      "start": 26.9376,
      "duration": 0.0783,
      "velocity": 113,
      "chip": "ym2612"
    },
    {
      "channel": 2,
      "note": 83,
      "start": 26.9407,
      "duration": 0.078,
      "velocity": 125,
      "chip": "ym2612"
    },
    {
      "channel": 1,
      "note": 91,
      "start": 27.0156,
      "duration": 0.01,
      "velocity": 113,
      "chip": "ym2612"
    },
    {
      "channel": 3,
      "note": 76,
      "start": 27.0159,
      "duration": 0.0098,
      "velocity": 113,
      "chip": "ym2612"
    },
    {
      "channel": 4,
      "note": 72,
      "start": 27.0161,
      "duration": 0.0098,
      "velocity": 113,
      "chip": "ym2612"
    },
    {
      "channel": 0,
      "note": 52,
      "start": 27.0255,
      "duration": 0.0417,
      "velocity": 121,
      "chip": "ym2612"
    },
    {
      "channel": 2,
      "note": 83,
      "start": 27.0291,
      "duration": 0.0315,
      "velocity": 125,
      "chip": "ym2612"
    },
    {
      "channel": 1,
      "note": 91,
      "start": 27.0574,
      "duration": 0.0102,
      "velocity": 113,
      "chip": "ym2612"
    },
    {
      "channel": 3,
      "note": 76,
      "start": 27.0578,
      "duration": 0.0102,
      "velocity": 113,
      "chip": "ym2612"
    },
    {
      "channel": 4,
      "note": 72,
      "start": 27.0579,
      "duration": 0.0103,
      "velocity": 113,
      "chip": "ym2612"
    },
    {
      "channel": 2,
      "note": 83,
      "start": 27.0607,
      "duration": 0.0109,
      "velocity": 125,
      "chip": "ym2612"
    },
    {
      "channel": 0,
      "note": 54,
      "start": 27.0675,
      "duration": 0.0864,
      "velocity": 121,
      "chip": "ym2612"
    },
    {
      "channel": 1,
      "note": 91,
      "start": 27.0678,
      "duration": 0.0786,
      "velocity": 113,
      "chip": "ym2612"
    },
    {
      "channel": 3,
      "note": 76,
      "start": 27.0681,
      "duration": 0.0783,
      "velocity": 113,
      "chip": "ym2612"
    },
    {
      "channel": 4,
      "note": 72,
      "start": 27.0683,
      "duration": 0.0782,
      "velocity": 113,
      "chip": "ym2612"
    },
    {
      "channel": 2,
      "note": 83,
      "start": 27.1492,
      "duration": 0.009,
      "velocity": 125,
      "chip": "ym2612"
    },
    {
      "channel": 0,
      "note": 59,
      "start": 27.1543,
      "duration": 0.3144,
      "velocity": 121,
      "chip": "ym2612"
    },
    {
      "channel": 1,
      "note": 90,
      "start": 27.1545,
      "duration": 0.0786,
      "velocity": 113,
      "chip": "ym2612"
    },
    {
      "channel": 3,
      "note": 75,
      "start": 27.1549,
      "duration": 0.0785,
      "velocity": 113,
      "chip": "ym2612"
    },
    {
      "channel": 4,
      "note": 71,
      "start": 27.1551,
      "duration": 0.0786,
      "velocity": 113,
      "chip": "ym2612"
    },
    {
      "channel": 2,
      "note": 83,
      "start": 27.1584,
      "duration": 0.1247,
      "velocity": 125,
      "chip": "ym2612"
    },
    {
      "channel": 1,
      "note": 90,
      "start": 27.2332,
      "duration": 0.1499,
      "velocity": 113,
      "chip": "ym2612"
    },
    {
      "channel": 3,
      "note": 75,
      "start": 27.2337,
      "duration": 0.1495,
      "velocity": 113,
      "chip": "ym2612"
    },
    {
      "channel": 4,
      "note": 71,
      "start": 27.234,
      "duration": 0.1493,
      "velocity": 113,
      "chip": "ym2612"
    },
    {
      "channel": 2,
      "note": 83,
      "start": 27.3855,
      "duration": 0.0086,
      "velocity": 125,
      "chip": "ym2612"
    },
    {
      "channel": 1,
      "note": 90,
      "start": 27.3907,
      "duration": 0.0099,
      "velocity": 113,
      "chip": "ym2612"
    },
    {
      "channel": 3,
      "note": 75,
      "start": 27.391,
      "duration": 0.01,
      "velocity": 113,
      "chip": "ym2612"
    },
    {
      "channel": 4,
      "note": 71,
      "start": 27.3912,
      "duration": 0.01,
      "velocity": 113,
      "chip": "ym2612"
    },
    {
      "channel": 2,
      "note": 83,
      "start": 27.3943,
      "duration": 0.0097,
      "velocity": 125,
      "chip": "ym2612"
    },
    {
      "channel": 1,
      "note": 90,
      "start": 27.4009,
      "duration": 0.0089,
      "velocity": 113,
      "chip": "ym2612"
    },
    {
      "channel": 3,
      "note": 75,
      "start": 27.4012,
      "duration": 0.0086,
      "velocity": 113,
      "chip": "ym2612"
    },
    {
      "channel": 4,
      "note": 71,
      "start": 27.4014,
      "duration": 0.0085,
      "velocity": 113,
      "chip": "ym2612"
    },
    {
      "channel": 2,
      "note": 83,
      "start": 27.4123,
      "duration": 0.0604,
      "velocity": 125,
      "chip": "ym2612"
    },
    {
      "channel": 0,
      "note": 47,
      "start": 27.469,
      "duration": 0.3154,
      "velocity": 121,
      "chip": "ym2612"
    },
    {
      "channel": 1,
      "note": 93,
      "start": 27.4693,
      "duration": 0.0782,
      "velocity": 113,
      "chip": "ym2612"
    },
    {
      "channel": 3,
      "note": 78,
      "start": 27.4697,
      "duration": 0.0782,
      "velocity": 113,
      "chip": "ym2612"
    },
    {
      "channel": 4,
      "note": 74,
      "start": 27.4699,
      "duration": 0.0783,
      "velocity": 113,
      "chip": "ym2612"
    },
    {
      "channel": 1,
      "note": 93,
      "start": 27.5477,
      "duration": 0.1499,
      "velocity": 113,
      "chip": "ym2612"
    },
    {
      "channel": 3,
      "note": 78,
      "start": 27.548,
      "duration": 0.1496,
      "velocity": 113,
      "chip": "ym2612"
    },
    {
      "channel": 4,
      "note": 74,
      "start": 27.5483,
      "duration": 0.1494,
      "velocity": 113,
      "chip": "ym2612"
    },
    {
      "channel": 2,
      "note": 83,
      "start": 27.7001,
      "duration": 0.0089,
      "velocity": 125,
      "chip": "ym2612"
    },
    {
      "channel": 1,
      "note": 93,
      "start": 27.7056,
      "duration": 0.0107,
      "velocity": 113,
      "chip": "ym2612"
    },
    {
      "channel": 3,
      "note": 78,
      "start": 27.7059,
      "duration": 0.0107,
      "velocity": 113,
      "chip": "ym2612"
    },
    {
      "channel": 4,
      "note": 74,
      "start": 27.7061,
      "duration": 0.0107,
      "velocity": 113,
      "chip": "ym2612"
    },
    {
      "channel": 2,
      "note": 83,
      "start": 27.7093,
      "duration": 0.0105,
      "velocity": 125,
      "chip": "ym2612"
    },
    {
      "channel": 1,
      "note": 93,
      "start": 27.7165,
      "duration": 0.0089,
      "velocity": 113,
      "chip": "ym2612"
    },
    {
      "channel": 3,
      "note": 78,
      "start": 27.7168,
      "duration": 0.0087,
      "velocity": 113,
      "chip": "ym2612"
    },
    {
      "channel": 4,
      "note": 74,
      "start": 27.717,
      "duration": 0.0085,
      "velocity": 113,
      "chip": "ym2612"
    },
    {
      "channel": 2,
      "note": 83,
      "start": 27.7278,
      "duration": 0.0611,
      "velocity": 125,
      "chip": "ym2612"
    },
    {
      "channel": 0,
      "note": 59,
      "start": 27.7847,
      "duration": 0.3159,
      "velocity": 121,
      "chip": "ym2612"
    },
    {
      "channel": 1,
      "note": 92,
      "start": 27.7849,
      "duration": 0.079,
      "velocity": 113,
      "chip": "ym2612"
    },
    {
      "channel": 3,
      "note": 77,
      "start": 27.7853,
      "duration": 0.079,
      "velocity": 113,
      "chip": "ym2612"
    },
    {
      "channel": 4,
      "note": 73,
      "start": 27.7855,
      "duration": 0.0791,
      "velocity": 113,
      "chip": "ym2612"
    },
    {
      "channel": 2,
      "note": 83,
      "start": 27.7891,
      "duration": 0.1249,
      "velocity": 125,
      "chip": "ym2612"
    },
    {
      "channel": 1,
      "note": 92,
      "start": 27.8641,
      "duration": 0.1499,
      "velocity": 113,
      "chip": "ym2612"
    },
    {
      "channel": 3,
      "note": 77,
      "start": 27.8645,
      "duration": 0.1495,
      "velocity": 113,
      "chip": "ym2612"
    },
    {
      "channel": 4,
      "note": 73,
      "start": 27.8649,
      "duration": 0.1493,
      "velocity": 113,
      "chip": "ym2612"
    },
    {
      "channel": 2,
      "note": 83,
      "start": 28.0165,
      "duration": 0.0089,
      "velocity": 125,
      "chip": "ym2612"
    },
    {
      "channel": 1,
      "note": 92,
      "start": 28.0219,
      "duration": 0.0105,
      "velocity": 113,
      "chip": "ym2612"
    },
    {
      "channel": 3,
      "note": 77,
      "start": 28.0222,
      "duration": 0.0105,
      "velocity": 113,
      "chip": "ym2612"
    },
    {
      "channel": 4,
      "note": 73,
      "start": 28.0225,
      "duration": 0.0105,
      "velocity": 113,
      "chip": "ym2612"
    },
    {
      "channel": 2,
      "note": 83,
      "start": 28.0256,
      "duration": 0.0105,
      "velocity": 125,
      "chip": "ym2612"
    },
    {
      "channel": 1,
      "note": 92,
      "start": 28.0326,
      "duration": 0.0092,
      "velocity": 113,
      "chip": "ym2612"
    },
    {
      "channel": 3,
      "note": 77,
      "start": 28.0329,
      "duration": 0.0089,
      "velocity": 113,
      "chip": "ym2612"
    },
    {
      "channel": 4,
      "note": 73,
      "start": 28.0331,
      "duration": 0.0088,
      "velocity": 113,
      "chip": "ym2612"
    },
    {
      "channel": 2,
      "note": 83,
      "start": 28.044,
      "duration": 0.0605,
      "velocity": 125,
      "chip": "ym2612"
    },
    {
      "channel": 0,
      "note": 59,
      "start": 28.1009,
      "duration": 0.2285,
      "velocity": 121,
      "chip": "ym2612"
    },
    {
      "channel": 1,
      "note": 91,
      "start": 28.1011,
      "duration": 0.0783,
      "velocity": 113,
      "chip": "ym2612"
    },
    {
      "channel": 3,
      "note": 76,
      "start": 28.1015,
      "duration": 0.0783,
      "velocity": 113,
      "chip": "ym2612"
    },
    {
      "channel": 4,
      "note": 72,
      "start": 28.1017,
      "duration": 0.0785,
      "velocity": 113,
      "chip": "ym2612"
    },
    {
      "channel": 2,
      "note": 83,
      "start": 28.1047,
      "duration": 0.1249,
      "velocity": 125,
      "chip": "ym2612"
    },
    {
      "channel": 1,
      "note": 91,
      "start": 28.1797,
      "duration": 0.1501,
      "velocity": 113,
      "chip": "ym2612"
    },
    {
      "channel": 3,
      "note": 76,
      "start": 28.1801,
      "duration": 0.1497,
      "velocity": 113,
      "chip": "ym2612"
    },
    {
      "channel": 4,
      "note": 72,
      "start": 28.1804,
      "duration": 0.1494,
      "velocity": 113,
      "chip": "ym2612"
    },
    {
      "channel": 0,
      "note": 52,
      "start": 28.3297,
      "duration": 0.0075,
      "velocity": 121,
      "chip": "ym2612"
    },
    {
      "channel": 2,
      "note": 83,
      "start": 28.3323,
      "duration": 0.0087,
      "velocity": 125,
      "chip": "ym2612"
    },
    {
      "channel": 0,
      "note": 54,
      "start": 28.3371,
      "duration": 0.0103,
      "velocity": 121,
      "chip": "ym2612"
    },
    {
      "channel": 1,
      "note": 91,
      "start": 28.3373,
      "duration": 0.0105,
      "velocity": 113,
      "chip": "ym2612"
    },
    {
      "channel": 3,
      "note": 76,
      "start": 28.3377,
      "duration": 0.0105,
      "velocity": 113,
      "chip": "ym2612"
    },
    {
      "channel": 4,
      "note": 72,
      "start": 28.3379,
      "duration": 0.0104,
      "velocity": 113,
      "chip": "ym2612"
    },
    {
      "channel": 2,
      "note": 83,
      "start": 28.3413,
      "duration": 0.0104,
      "velocity": 125,
      "chip": "ym2612"
    },
    {
      "channel": 0,
      "note": 59,
      "start": 28.3477,
      "duration": 0.0103,
      "velocity": 121,
      "chip": "ym2612"
    },
    {
      "channel": 1,
      "note": 91,
      "start": 28.3479,
      "duration": 0.0105,
      "velocity": 113,
      "chip": "ym2612"
    },
    {
      "channel": 3,
      "note": 76,
      "start": 28.3483,
      "duration": 0.0102,
      "velocity": 113,
      "chip": "ym2612"
    },
    {
      "channel": 4,
      "note": 72,
      "start": 28.3485,
      "duration": 0.01,
      "velocity": 113,
      "chip": "ym2612"
    },
    {
      "channel": 0,
      "note": 47,
      "start": 28.3583,
      "duration": 0.0071,
      "velocity": 121,
      "chip": "ym2612"
    },
    {
      "channel": 2,
      "note": 83,
      "start": 28.3608,
      "duration": 0.0088,
      "velocity": 125,
      "chip": "ym2612"
    },
    {
      "channel": 0,
      "note": 59,
      "start": 28.3657,
      "duration": 0.3143,
      "velocity": 121,
      "chip": "ym2612"
    },
    {
      "channel": 1,
      "note": 90,
      "start": 28.3659,
      "duration": 0.0783,
      "velocity": 113,
      "chip": "ym2612"
    },
    {
      "channel": 3,
      "note": 75,
      "start": 28.3662,
      "duration": 0.0783,
      "velocity": 113,
      "chip": "ym2612"
    },
    {
      "channel": 4,
      "note": 71,
      "start": 28.3665,
      "duration": 0.0784,
      "velocity": 113,
      "chip": "ym2612"
    },
    {
      "channel": 2,
      "note": 83,
      "start": 28.3699,
      "duration": 0.1244,
      "velocity": 125,
      "chip": "ym2612"
    },
    {
      "channel": 1,
      "note": 90,
      "start": 28.4444,
      "duration": 0.1499,
      "velocity": 113,
      "chip": "ym2612"
    },
    {
      "channel": 3,
      "note": 75,
      "start": 28.4448,
      "duration": 0.1495,
      "velocity": 113,
      "chip": "ym2612"
    },
    {
      "channel": 4,
      "note": 71,
      "start": 28.4451,
      "duration": 0.1493,
      "velocity": 113,
      "chip": "ym2612"
    },
    {
      "channel": 2,
      "note": 83,
      "start": 28.5964,
      "duration": 0.0081,
      "velocity": 125,
      "chip": "ym2612"
    },
    {
      "channel": 1,
      "note": 90,
      "start": 28.6015,
      "duration": 0.01,
      "velocity": 113,
      "chip": "ym2612"
    },
    {
      "channel": 3,
      "note": 75,
      "start": 28.6017,
      "duration": 0.0101,
      "velocity": 113,
      "chip": "ym2612"
    },
    {
      "channel": 4,
      "note": 71,
      "start": 28.6019,
      "duration": 0.0101,
      "velocity": 113,
      "chip": "ym2612"
    },
    {
      "channel": 2,
      "note": 83,
      "start": 28.6047,
      "duration": 0.0106,
      "velocity": 125,
      "chip": "ym2612"
    },
    {
      "channel": 1,
      "note": 90,
      "start": 28.6116,
      "duration": 0.0096,
      "velocity": 113,
      "chip": "ym2612"
    },
    {
      "channel": 3,
      "note": 75,
      "start": 28.612,
      "duration": 0.0093,
      "velocity": 113,
      "chip": "ym2612"
    },
    {
      "channel": 4,
      "note": 71,
      "start": 28.6122,
      "duration": 0.0092,
      "velocity": 113,
      "chip": "ym2612"
    },
    {
      "channel": 2,
      "note": 83,
      "start": 28.6234,
      "duration": 0.0606,
      "velocity": 125,
      "chip": "ym2612"
    },
    {
      "channel": 0,
      "note": 47,
      "start": 28.6803,
      "duration": 0.3326,
      "velocity": 121,
      "chip": "ym2612"
    },
    {
      "channel": 1,
      "note": 93,
      "start": 28.6806,
      "duration": 0.0782,
      "velocity": 113,
      "chip": "ym2612"
    },
    {
      "channel": 3,
      "note": 78,
      "start": 28.681,
      "duration": 0.0782,
      "velocity": 113,
      "chip": "ym2612"
    },
    {
      "channel": 4,
      "note": 74,
      "start": 28.6812,
      "duration": 0.0783,
      "velocity": 113,
      "chip": "ym2612"
    },
    {
      "channel": 1,
      "note": 93,
      "start": 28.759,
      "duration": 0.1499,
      "velocity": 113,
      "chip": "ym2612"
    },
    {
      "channel": 3,
      "note": 78,
      "start": 28.7593,
      "duration": 0.1497,
      "velocity": 113,
      "chip": "ym2612"
    },
    {
      "channel": 4,
      "note": 74,
      "start": 28.7596,
      "duration": 0.1494,
      "velocity": 113,
      "chip": "ym2612"
    },
    {
      "channel": 2,
      "note": 83,
      "start": 28.912,
      "duration": 0.0765,
      "velocity": 125,
      "chip": "ym2612"
    },
    {
      "channel": 1,
      "note": 93,
      "start": 28.9852,
      "duration": 0.01,
      "velocity": 113,
      "chip": "ym2612"
    },
    {
      "channel": 3,
      "note": 78,
      "start": 28.9855,
      "duration": 0.01,
      "velocity": 113,
      "chip": "ym2612"
    },
    {
      "channel": 4,
      "note": 74,
      "start": 28.9858,
      "duration": 0.01,
      "velocity": 113,
      "chip": "ym2612"
    },
    {
      "channel": 2,
      "note": 83,
      "start": 28.9887,
      "duration": 0.01,
      "velocity": 125,
      "chip": "ym2612"
    },
    {
      "channel": 1,
      "note": 93,
      "start": 28.9954,
      "duration": 0.0101,
      "velocity": 113,
      "chip": "ym2612"
    },
    {
      "channel": 3,
      "note": 78,
      "start": 28.9957,
      "duration": 0.0099,
      "velocity": 113,
      "chip": "ym2612"
    },
    {
      "channel": 4,
      "note": 74,
      "start": 28.9959,
      "duration": 0.0097,
      "velocity": 113,
      "chip": "ym2612"
    },
    {
      "channel": 2,
      "note": 83,
      "start": 29.008,
      "duration": 0.0102,
      "velocity": 125,
      "chip": "ym2612"
    },
    {
      "channel": 0,
      "note": 59,
      "start": 29.0132,
      "duration": 0.2699,
      "velocity": 121,
      "chip": "ym2612"
    },
    {
      "channel": 1,
      "note": 92,
      "start": 29.0135,
      "duration": 0.0329,
      "velocity": 113,
      "chip": "ym2612"
    },
    {
      "channel": 3,
      "note": 77,
      "start": 29.014,
      "duration": 0.0328,
      "velocity": 113,
      "chip": "ym2612"
    },
    {
      "channel": 4,
      "note": 73,
      "start": 29.0142,
      "duration": 0.0329,
      "velocity": 113,
      "chip": "ym2612"
    },
    {
      "channel": 2,
      "note": 83,
      "start": 29.0184,
      "duration": 0.0781,
      "velocity": 125,
      "chip": "ym2612"
    },
    {
      "channel": 1,
      "note": 92,
      "start": 29.0466,
      "duration": 0.1499,
      "velocity": 113,
      "chip": "ym2612"
    },
    {
      "channel": 3,
      "note": 77,
      "start": 29.0471,
      "duration": 0.1495,
      "velocity": 113,
      "chip": "ym2612"
    },
    {
      "channel": 4,
      "note": 73,
      "start": 29.0474,
      "duration": 0.1493,
      "velocity": 113,
      "chip": "ym2612"
    },
    {
      "channel": 2,
      "note": 83,
      "start": 29.199,
      "duration": 0.009,
      "velocity": 125,
      "chip": "ym2612"
    },
    {
      "channel": 1,
      "note": 92,
      "start": 29.2046,
      "duration": 0.0102,
      "velocity": 113,
      "chip": "ym2612"
    },
    {
      "channel": 3,
      "note": 77,
      "start": 29.2049,
      "duration": 0.0103,
      "velocity": 113,
      "chip": "ym2612"
    },
    {
      "channel": 4,
      "note": 73,
      "start": 29.2051,
      "duration": 0.0103,
      "velocity": 113,
      "chip": "ym2612"
    },
    {
      "channel": 2,
      "note": 83,
      "start": 29.2083,
      "duration": 0.01,
      "velocity": 125,
      "chip": "ym2612"
    },
    {
      "channel": 1,
      "note": 92,
      "start": 29.215,
      "duration": 0.0091,
      "velocity": 113,
      "chip": "ym2612"
    },
    {
      "channel": 3,
      "note": 77,
      "start": 29.2154,
      "duration": 0.0088,
      "velocity": 113,
      "chip": "ym2612"
    },
    {
      "channel": 4,
      "note": 73,
      "start": 29.2155,
      "duration": 0.0088,
      "velocity": 113,
      "chip": "ym2612"
    },
    {
      "channel": 2,
      "note": 83,
      "start": 29.2267,
      "duration": 0.0607,
      "velocity": 125,
      "chip": "ym2612"
    },
    {
      "channel": 0,
      "note": 47,
      "start": 29.2834,
      "duration": 0.0886,
      "velocity": 121,
      "chip": "ym2612"
    },
    {
      "channel": 1,
      "note": 91,
      "start": 29.2837,
      "duration": 0.0786,
      "velocity": 113,
      "chip": "ym2612"
    },
    {
      "channel": 3,
      "note": 76,
      "start": 29.284,
      "duration": 0.0786,
      "velocity": 113,
      "chip": "ym2612"
    },
    {
      "channel": 4,
      "note": 72,
      "start": 29.2842,
      "duration": 0.0787,
      "velocity": 113,
      "chip": "ym2612"
    },
    {
      "channel": 2,
      "note": 83,
      "start": 29.2876,
      "duration": 0.078,
      "velocity": 125,
      "chip": "ym2612"
    },
    {
      "channel": 1,
      "note": 91,
      "start": 29.3625,
      "duration": 0.0099,
      "velocity": 113,
      "chip": "ym2612"
    },
    {
      "channel": 3,
      "note": 76,
      "start": 29.3628,
      "duration": 0.0097,
      "velocity": 113,
      "chip": "ym2612"
    },
    {
      "channel": 4,
      "note": 72,
      "start": 29.363,
      "duration": 0.0096,
      "velocity": 113,
      "chip": "ym2612"
    },
    {
      "channel": 0,
      "note": 52,
      "start": 29.3724,
      "duration": 0.0419,
      "velocity": 121,
      "chip": "ym2612"
    },
    {
      "channel": 2,
      "note": 83,
      "start": 29.3762,
      "duration": 0.0314,
      "velocity": 125,
      "chip": "ym2612"
    },
    {
      "channel": 1,
      "note": 91,
      "start": 29.4045,
      "duration": 0.0102,
      "velocity": 113,
      "chip": "ym2612"
    },
    {
      "channel": 3,
      "note": 76,
      "start": 29.4048,
      "duration": 0.0101,
      "velocity": 113,
      "chip": "ym2612"
    },
    {
      "channel": 4,
      "note": 72,
      "start": 29.405,
      "duration": 0.0101,
      "velocity": 113,
      "chip": "ym2612"
    },
    {
      "channel": 2,
      "note": 83,
      "start": 29.4077,
      "duration": 0.0108,
      "velocity": 125,
      "chip": "ym2612"
    },
    {
      "channel": 0,
      "note": 54,
      "start": 29.4146,
      "duration": 0.0865,
      "velocity": 121,
      "chip": "ym2612"
    },
    {
      "channel": 1,
      "note": 91,
      "start": 29.4148,
      "duration": 0.0785,
      "velocity": 113,
      "chip": "ym2612"
    },
    {
      "channel": 3,
      "note": 76,
      "start": 29.415,
      "duration": 0.0783,
      "velocity": 113,
      "chip": "ym2612"
    },
    {
      "channel": 4,
      "note": 72,
      "start": 29.4152,
      "duration": 0.0783,
      "velocity": 113,
      "chip": "ym2612"
    },
    {
      "channel": 2,
      "note": 83,
      "start": 29.4959,
      "duration": 0.0107,
      "velocity": 125,
      "chip": "ym2612"
    },
    {
      "channel": 0,
      "note": 59,
      "start": 29.5015,
      "duration": 0.3131,
      "velocity": 121,
      "chip": "ym2612"
    },
    {
      "channel": 1,
      "note": 90,
      "start": 29.5018,
      "duration": 0.0772,
      "velocity": 113,
      "chip": "ym2612"
    },
    {
      "channel": 3,
      "note": 75,
      "start": 29.5021,
      "duration": 0.0773,
      "velocity": 113,
      "chip": "ym2612"
    },
    {
      "channel": 4,
      "note": 71,
      "start": 29.5025,
      "duration": 0.0772,
      "velocity": 113,
      "chip": "ym2612"
    },
    {
      "channel": 2,
      "note": 83,
      "start": 29.5068,
      "duration": 0.1223,
      "velocity": 125,
      "chip": "ym2612"
    },
    {
      "channel": 1,
      "note": 90,
      "start": 29.5792,
      "duration": 0.1499,
      "velocity": 113,
      "chip": "ym2612"
    },
    {
      "channel": 3,
      "note": 75,
      "start": 29.5796,
      "duration": 0.1495,
      "velocity": 113,
      "chip": "ym2612"
    },
    {
      "channel": 4,
      "note": 71,
      "start": 29.58,
      "duration": 0.1493,
      "velocity": 113,
      "chip": "ym2612"
    },
    {
      "channel": 2,
      "note": 83,
      "start": 29.7314,
      "duration": 0.0085,
      "velocity": 125,
      "chip": "ym2612"
    },
    {
      "channel": 1,
      "note": 90,
      "start": 29.7366,
      "duration": 0.0098,
      "velocity": 113,
      "chip": "ym2612"
    },
    {
      "channel": 3,
      "note": 75,
      "start": 29.7369,
      "duration": 0.0099,
      "velocity": 113,
      "chip": "ym2612"
    },
    {
      "channel": 4,
      "note": 71,
      "start": 29.7372,
      "duration": 0.01,
      "velocity": 113,
      "chip": "ym2612"
    },
    {
      "channel": 2,
      "note": 83,
      "start": 29.7402,
      "duration": 0.0097,
      "velocity": 125,
      "chip": "ym2612"
    },
    {
      "channel": 1,
      "note": 90,
      "start": 29.7467,
      "duration": 0.0089,
      "velocity": 113,
      "chip": "ym2612"
    },
    {
      "channel": 3,
      "note": 75,
      "start": 29.7471,
      "duration": 0.0086,
      "velocity": 113,
      "chip": "ym2612"
    },
    {
      "channel": 4,
      "note": 71,
      "start": 29.7472,
      "duration": 0.0085,
      "velocity": 113,
      "chip": "ym2612"
    },
    {
      "channel": 2,
      "note": 83,
      "start": 29.7582,
      "duration": 0.0604,
      "velocity": 125,
      "chip": "ym2612"
    },
    {
      "channel": 0,
      "note": 47,
      "start": 29.8149,
      "duration": 0.3152,
      "velocity": 121,
      "chip": "ym2612"
    },
    {
      "channel": 1,
      "note": 93,
      "start": 29.8152,
      "duration": 0.0781,
      "velocity": 113,
      "chip": "ym2612"
    },
    {
      "channel": 3,
      "note": 78,
      "start": 29.8155,
      "duration": 0.0781,
      "velocity": 113,
      "chip": "ym2612"
    },
    {
      "channel": 4,
      "note": 74,
      "start": 29.8157,
      "duration": 0.0782,
      "velocity": 113,
      "chip": "ym2612"
    },
    {
      "channel": 1,
      "note": 93,
      "start": 29.8935,
      "duration": 0.1499,
      "velocity": 113,
      "chip": "ym2612"
    },
    {
      "channel": 3,
      "note": 78,
      "start": 29.8938,
      "duration": 0.1496,
      "velocity": 113,
      "chip": "ym2612"
    },
    {
      "channel": 4,
      "note": 74,
      "start": 29.8941,
      "duration": 0.1494,
      "velocity": 113,
      "chip": "ym2612"
    },
    {
      "channel": 2,
      "note": 83,
      "start": 30.0459,
      "duration": 0.0089,
      "velocity": 125,
      "chip": "ym2612"
    },
    {
      "channel": 1,
      "note": 93,
      "start": 30.0514,
      "duration": 0.0107,
      "velocity": 113,
      "chip": "ym2612"
    },
    {
      "channel": 3,
      "note": 78,
      "start": 30.0517,
      "duration": 0.0107,
      "velocity": 113,
      "chip": "ym2612"
    },
    {
      "channel": 4,
      "note": 74,
      "start": 30.0519,
      "duration": 0.0107,
      "velocity": 113,
      "chip": "ym2612"
    },
    {
      "channel": 2,
      "note": 83,
      "start": 30.055,
      "duration": 0.0105,
      "velocity": 125,
      "chip": "ym2612"
    },
    {
      "channel": 1,
      "note": 93,
      "start": 30.0622,
      "duration": 0.009,
      "velocity": 113,
      "chip": "ym2612"
    },
    {
      "channel": 3,
      "note": 78,
      "start": 30.0625,
      "duration": 0.0088,
      "velocity": 113,
      "chip": "ym2612"
    },
    {
      "channel": 4,
      "note": 74,
      "start": 30.0628,
      "duration": 0.0086,
      "velocity": 113,
      "chip": "ym2612"
    },
    {
      "channel": 2,
      "note": 83,
      "start": 30.0736,
      "duration": 0.061,
      "velocity": 125,
      "chip": "ym2612"
    },
    {
      "channel": 0,
      "note": 59,
      "start": 30.1304,
      "duration": 0.3166,
      "velocity": 121,
      "chip": "ym2612"
    },
    {
      "channel": 1,
      "note": 92,
      "start": 30.1306,
      "duration": 0.079,
      "velocity": 113,
      "chip": "ym2612"
    },
    {
      "channel": 3,
      "note": 77,
      "start": 30.1309,
      "duration": 0.079,
      "velocity": 113,
      "chip": "ym2612"
    },
    {
      "channel": 4,
      "note": 73,
      "start": 30.1312,
      "duration": 0.0791,
      "velocity": 113,
      "chip": "ym2612"
    },
    {
      "channel": 2,
      "note": 83,
      "start": 30.1347,
      "duration": 0.1249,
      "velocity": 125,
      "chip": "ym2612"
    },
    {
      "channel": 1,
      "note": 92,
      "start": 30.2097,
      "duration": 0.1499,
      "velocity": 113,
      "chip": "ym2612"
    },
    {
      "channel": 3,
      "note": 77,
      "start": 30.2102,
      "duration": 0.1495,
      "velocity": 113,
      "chip": "ym2612"
    },
    {
      "channel": 4,
      "note": 73,
      "start": 30.2105,
      "duration": 0.1493,
      "velocity": 113,
      "chip": "ym2612"
    },
    {
      "channel": 2,
      "note": 83,
      "start": 30.3621,
      "duration": 0.0089,
      "velocity": 125,
      "chip": "ym2612"
    },
    {
      "channel": 1,
      "note": 92,
      "start": 30.3676,
      "duration": 0.0105,
      "velocity": 113,
      "chip": "ym2612"
    },
    {
      "channel": 3,
      "note": 77,
      "start": 30.3679,
      "duration": 0.0105,
      "velocity": 113,
      "chip": "ym2612"
    },
    {
      "channel": 4,
      "note": 73,
      "start": 30.3681,
      "duration": 0.0105,
      "velocity": 113,
      "chip": "ym2612"
    },
    {
      "channel": 2,
      "note": 83,
      "start": 30.3712,
      "duration": 0.0108,
      "velocity": 125,
      "chip": "ym2612"
    },
    {
      "channel": 1,
      "note": 92,
      "start": 30.3782,
      "duration": 0.0097,
      "velocity": 113,
      "chip": "ym2612"
    },
    {
      "channel": 3,
      "note": 77,
      "start": 30.3785,
      "duration": 0.0095,
      "velocity": 113,
      "chip": "ym2612"
    },
    {
      "channel": 4,
      "note": 73,
      "start": 30.3787,
      "duration": 0.0093,
      "velocity": 113,
      "chip": "ym2612"
    },
    {
      "channel": 2,
      "note": 83,
      "start": 30.3902,
      "duration": 0.0609,
      "velocity": 125,
      "chip": "ym2612"
    },
    {
      "channel": 0,
      "note": 59,
      "start": 30.4473,
      "duration": 0.2286,
      "velocity": 121,
      "chip": "ym2612"
    },
    {
      "channel": 1,
      "note": 91,
      "start": 30.4476,
      "duration": 0.0785,
      "velocity": 113,
      "chip": "ym2612"
    },
    {
      "channel": 3,
      "note": 76,
      "start": 30.4479,
      "duration": 0.0785,
      "velocity": 113,
      "chip": "ym2612"
    },
    {
      "channel": 4,
      "note": 72,
      "start": 30.4481,
      "duration": 0.0786,
      "velocity": 113,
      "chip": "ym2612"
    },
    {
      "channel": 2,
      "note": 83,
      "start": 30.4513,
      "duration": 0.1249,
      "velocity": 125,
      "chip": "ym2612"
    },
    {
      "channel": 1,
      "note": 91,
      "start": 30.5263,
      "duration": 0.1501,
      "velocity": 113,
      "chip": "ym2612"
    },
    {
      "channel": 3,
      "note": 76,
      "start": 30.5267,
      "duration": 0.1498,
      "velocity": 113,
      "chip": "ym2612"
    },
    {
      "channel": 4,
      "note": 72,
      "start": 30.527,
      "duration": 0.1496,
      "velocity": 113,
      "chip": "ym2612"
    },
    {
      "channel": 0,
      "note": 52,
      "start": 30.6763,
      "duration": 0.0608,
      "velocity": 121,
      "chip": "ym2612"
    },
    {
      "channel": 2,
      "note": 83,
      "start": 30.6794,
      "duration": 0.0624,
      "velocity": 125,
      "chip": "ym2612"
    },
    {
      "channel": 0,
      "note": 54,
      "start": 30.7371,
      "duration": 0.053,
      "velocity": 121,
      "chip": "ym2612"
    },
    {
      "channel": 1,
      "note": 91,
      "start": 30.7374,
      "duration": 0.0532,
      "velocity": 113,
      "chip": "ym2612"
    },
    {
      "channel": 3,
      "note": 76,
      "start": 30.7378,
      "duration": 0.0532,
      "velocity": 113,
      "chip": "ym2612"
    },
    {
      "channel": 4,
      "note": 72,
      "start": 30.7382,
      "duration": 0.0532,
      "velocity": 113,
      "chip": "ym2612"
    },
    {
      "channel": 2,
      "note": 83,
      "start": 30.7422,
      "duration": 0.0531,
      "velocity": 125,
      "chip": "ym2612"
    },
    {
      "channel": 0,
      "note": 59,
      "start": 30.7905,
      "duration": 0.0528,
      "velocity": 121,
      "chip": "ym2612"
    },
    {
      "channel": 1,
      "note": 91,
      "start": 30.7909,
      "duration": 0.0529,
      "velocity": 113,
      "chip": "ym2612"
    },
    {
      "channel": 3,
      "note": 76,
      "start": 30.7912,
      "duration": 0.0527,
      "velocity": 113,
      "chip": "ym2612"
    },
    {
      "channel": 4,
      "note": 72,
      "start": 30.7916,
      "duration": 0.0525,
      "velocity": 113,
      "chip": "ym2612"
    },
    {
      "channel": 0,
      "note": 47,
      "start": 30.8436,
      "duration": 0.0309,
      "velocity": 121,
      "chip": "ym2612"
    },
    {
      "channel": 2,
      "note": 83,
      "start": 30.8471,
      "duration": 0.0334,
      "velocity": 125,
      "chip": "ym2612"
    },
    {
      "channel": 3,
      "note": 36,
      "start": 30.8776,
      "duration": 0.0032,
      "velocity": 114,
      "chip": "ym2612"
    },
    {
      "channel": 4,
      "note": 36,
      "start": 30.8786,
      "duration": 0.0022,
      "velocity": 114,
      "chip": "ym2612"
    },
    {
      "channel": 3,
      "note": 51,
      "start": 30.8825,
      "duration": 1.1732,
      "velocity": 127,
      "chip": "ym2612"
    },
    {
      "channel": 4,
      "note": 51,
      "start": 30.8835,
      "duration": 1.1731,
      "velocity": 127,
      "chip": "ym2612"
    },
    {
      "channel": 0,
      "note": 59,
      "start": 31.957,
      "duration": 0.0439,
      "velocity": 121,
      "chip": "ym2612"
    },
    {
      "channel": 1,
      "note": 78,
      "start": 31.9574,
      "duration": 0.0438,
      "velocity": 113,
      "chip": "ym2612"
    },
    {
      "channel": 2,
      "note": 71,
      "start": 31.962,
      "duration": 0.0432,
      "velocity": 121,
      "chip": "ym2612"
    },
    {
      "channel": 0,
      "note": 59,
      "start": 32.0012,
      "duration": 0.0431,
      "velocity": 121,
      "chip": "ym2612"
    },
    {
      "channel": 1,
      "note": 78,
      "start": 32.0014,
      "duration": 0.0431,
      "velocity": 113,
      "chip": "ym2612"
    },
    {
      "channel": 2,
      "note": 71,
      "start": 32.0056,
      "duration": 0.0412,
      "velocity": 121,
      "chip": "ym2612"
    },
    {
      "channel": 0,
      "note": 47,
      "start": 32.1722,
      "duration": 0.0146,
      "velocity": 121,
      "chip": "ym2612"
    },
    {
      "channel": 1,
      "note": 78,
      "start": 32.1724,
      "duration": 0.0148,
      "velocity": 113,
      "chip": "ym2612"
    },
    {
      "channel": 3,
      "note": 78,
      "start": 32.1728,
      "duration": 0.0148,
      "velocity": 113,
      "chip": "ym2612"
    },
    {
      "channel": 4,
      "note": 75,
      "start": 32.173,
      "duration": 0.0149,
      "velocity": 113,
      "chip": "ym2612"
    },
    {
      "channel": 2,
      "note": 71,
      "start": 32.1765,
      "duration": 0.015,
      "velocity": 121,
      "chip": "ym2612"
    },
    {
      "channel": 0,
      "note": 59,
      "start": 32.1872,
      "duration": 0.0146,
      "velocity": 121,
      "chip": "ym2612"
    },
    {
      "channel": 1,
      "note": 78,
      "start": 32.1874,
      "duration": 0.0147,
      "velocity": 113,
      "chip": "ym2612"
    },
    {
      "channel": 3,
      "note": 78,
      "start": 32.1878,
      "duration": 0.0147,
      "velocity": 113,
      "chip": "ym2612"
    },
    {
      "channel": 4,
      "note": 75,
      "start": 32.1881,
      "duration": 0.0147,
      "velocity": 113,
      "chip": "ym2612"
    },
    {
      "channel": 2,
      "note": 71,
      "start": 32.1918,
      "duration": 0.0146,
      "velocity": 121,
      "chip": "ym2612"
    },
    {
      "channel": 0,
      "note": 59,
      "start": 32.2021,
      "duration": 0.0147,
      "velocity": 121,
      "chip": "ym2612"
    },
    {
      "channel": 1,
      "note": 78,
      "start": 32.2024,
      "duration": 0.0145,
      "velocity": 113,
      "chip": "ym2612"
    },
    {
      "channel": 3,
      "note": 78,
      "start": 32.2027,
      "duration": 0.0143,
      "velocity": 113,
      "chip": "ym2612"
    },
    {
      "channel": 4,
      "note": 75,
      "start": 32.203,
      "duration": 0.0142,
      "velocity": 113,
      "chip": "ym2612"
    },
    {
      "channel": 2,
      "note": 71,
      "start": 32.2066,
      "duration": 0.0125,
      "velocity": 121,
      "chip": "ym2612"
    },
    {
      "channel": 0,
      "note": 47,
      "start": 32.3442,
      "duration": 0.0145,
      "velocity": 121,
      "chip": "ym2612"
    },
    {
      "channel": 1,
      "note": 78,
      "start": 32.3444,
      "duration": 0.0145,
      "velocity": 113,
      "chip": "ym2612"
    },
    {
      "channel": 3,
      "note": 78,
      "start": 32.3448,
      "duration": 0.0143,
      "velocity": 113,
      "chip": "ym2612"
    },
    {
      "channel": 4,
      "note": 75,
      "start": 32.3449,
      "duration": 0.0141,
      "velocity": 113,
      "chip": "ym2612"
    },
    {
      "channel": 2,
      "note": 71,
      "start": 32.3484,
      "duration": 0.0125,
      "velocity": 121,
      "chip": "ym2612"
    },
    {
      "channel": 0,
      "note": 47,
      "start": 32.4865,
      "duration": 0.0147,
      "velocity": 121,
      "chip": "ym2612"
    },
    {
      "channel": 1,
      "note": 78,
      "start": 32.4867,
      "duration": 0.0148,
      "velocity": 113,
      "chip": "ym2612"
    },
    {
      "channel": 3,
      "note": 78,
      "start": 32.4871,
      "duration": 0.0149,
      "velocity": 113,
      "chip": "ym2612"
    },
    {
      "channel": 4,
      "note": 75,
      "start": 32.4872,
      "duration": 0.0149,
      "velocity": 113,
      "chip": "ym2612"
    },
    {
      "channel": 2,
      "note": 71,
      "start": 32.4907,
      "duration": 0.015,
      "velocity": 121,
      "chip": "ym2612"
    },
    {
      "channel": 0,
      "note": 59,
      "start": 32.5015,
      "duration": 0.0149,
      "velocity": 121,
      "chip": "ym2612"
    },
    {
      "channel": 1,
      "note": 78,
      "start": 32.5017,
      "duration": 0.0159,
      "velocity": 127,
      "chip": "ym2612"
    },
    {
      "channel": 3,
      "note": 78,
      "start": 32.5021,
      "duration": 0.0168,
      "velocity": 121,
      "chip": "ym2612"
    },
    {
      "channel": 4,
      "note": 75,
      "start": 32.5024,
      "duration": 0.0166,
      "velocity": 113,
      "chip": "ym2612"
    },
    {
      "channel": 2,
      "note": 71,
      "start": 32.506,
      "duration": 0.0162,
      "velocity": 121,
      "chip": "ym2612"
    },
    {
      "channel": 0,
      "note": 47,
      "start": 32.6263,
      "duration": 4.7441,
      "velocity": 121,
      "chip": "ym2612"
    },
    {
      "channel": 1,
      "note": 47,
      "start": 32.6542,
      "duration": 4.8163,
      "velocity": 127,
      "chip": "ym2612"
    },
    {
      "channel": 3,
      "note": 47,
      "start": 32.7043,
      "duration": 4.8163,
      "velocity": 121,
      "chip": "ym2612"
    },
    {
      "channel": 2,
      "note": 47,
      "start": 32.7544,
      "duration": 4.8162,
      "velocity": 121,
      "chip": "ym2612"
    }
  ]
}