{
  "track_name": "02 - Boss 1 - Cerberus (Act 2)",
  "duration_sec": 32.197,
  "sample_rate": 44100,
  "note_count": 93,
  "unique_pitches": 25,
  "pitch_range": 37,
  "avg_note_duration": 0.4938,
  "reconstruction_stats": {
    "notes_reconstructed": 93,
    "keyon_events": 93,
    "keyoff_events": 91,
    "orphan_keyons": 2,
    "unique_pitches": 25,
    "pitch_range": 37,
    "avg_duration_sec": 0.4938
  },
  "metadata": {
    "source": "M\\Master of Weapon\\02 - Boss 1 - Cerberus (Act 2).vgz"
  },
  "notes": [
    {
      "channel": 0,
      "note": 64,
      "start": 0.0618,
      "duration": 0.5704,
      "velocity": 97,
      "chip": "ym2612"
    },
    {
      "channel": 1,
      "note": 45,
      "start": 0.0794,
      "duration": 0.8262,
      "velocity": 103,
      "chip": "ym2612"
    },
    {
      "channel": 0,
      "note": 63,
      "start": 0.684,
      "duration": 0.2729,
      "velocity": 97,
      "chip": "ym2612"
    },
    {
      "channel": 0,
      "note": 64,
      "start": 0.9926,
      "duration": 0.2729,
      "velocity": 97,
      "chip": "ym2612"
    },
    {
      "channel": 0,
      "note": 59,
      "start": 1.3013,
      "duration": 0.2729,
      "velocity": 97,
      "chip": "ym2612"
    },
    {
      "channel": 1,
      "note": 41,
      "start": 1.3049,
      "duration": 0.8351,
      "velocity": 103,
      "chip": "ym2612"
    },
    {
      "channel": 0,
      "note": 60,
      "start": 1.6098,
      "duration": 0.2729,
      "velocity": 97,
      "chip": "ym2612"
    },
    {
      "channel": 0,
      "note": 63,
      "start": 1.9185,
      "duration": 0.5655,
      "velocity": 97,
      "chip": "ym2612"
    },
    {
      "channel": 0,
      "note": 64,
      "start": 2.5358,
      "duration": 0.2728,
      "velocity": 97,
      "chip": "ym2612"
    },
    {
      "channel": 1,
      "note": 44,
      "start": 2.5394,
      "duration": 0.8352,
      "velocity": 103,
      "chip": "ym2612"
    },
    {
      "channel": 0,
      "note": 65,
      "start": 2.8444,
      "duration": 0.2729,
      "velocity": 97,
      "chip": "ym2612"
    },
    {
      "channel": 0,
      "note": 69,
      "start": 3.153,
      "duration": 0.2729,
      "velocity": 97,
      "chip": "ym2612"
    },
    {
      "channel": 0,
      "note": 68,
      "start": 3.4616,
      "duration": 0.1186,
      "velocity": 97,
      "chip": "ym2612"
    },
    {
      "channel": 1,
      "note": 45,
      "start": 3.7727,
      "duration": 0.8363,
      "velocity": 103,
      "chip": "ym2612"
    },
    {
      "channel": 0,
      "note": 64,
      "start": 5.0048,
      "duration": 0.2729,
      "velocity": 97,
      "chip": "ym2612"
    },
    {
      "channel": 1,
      "note": 48,
      "start": 5.0085,
      "duration": 0.8352,
      "velocity": 103,
      "chip": "ym2612"
    },
    {
      "channel": 0,
      "note": 65,
      "start": 5.3134,
      "duration": 0.273,
      "velocity": 97,
      "chip": "ym2612"
    },
    {
      "channel": 0,
      "note": 72,
      "start": 5.6221,
      "duration": 0.2728,
      "velocity": 97,
      "chip": "ym2612"
    },
    {
      "channel": 0,
      "note": 71,
      "start": 5.9307,
      "duration": 0.273,
      "velocity": 97,
      "chip": "ym2612"
    },
    {
      "channel": 0,
      "note": 69,
      "start": 6.2394,
      "duration": 0.2729,
      "velocity": 97,
      "chip": "ym2612"
    },
    {
      "channel": 1,
      "note": 39,
      "start": 6.2431,
      "duration": 0.8351,
      "velocity": 103,
      "chip": "ym2612"
    },
    {
      "channel": 0,
      "note": 59,
      "start": 6.548,
      "duration": 0.2729,
      "velocity": 97,
      "chip": "ym2612"
    },
    {
      "channel": 0,
      "note": 60,
      "start": 6.8566,
      "duration": 0.2729,
      "velocity": 97,
      "chip": "ym2612"
    },
    {
      "channel": 0,
      "note": 63,
      "start": 7.1652,
      "duration": 0.273,
      "velocity": 97,
      "chip": "ym2612"
    },
    {
      "channel": 0,
      "note": 64,
      "start": 7.474,
      "duration": 2.2962,
      "velocity": 97,
      "chip": "ym2612"
    },
    {
      "channel": 1,
      "note": 40,
      "start": 7.4776,
      "duration": 0.4076,
      "velocity": 103,
      "chip": "ym2612"
    },
    {
      "channel": 1,
      "note": 42,
      "start": 8.0932,
      "duration": 0.4092,
      "velocity": 103,
      "chip": "ym2612"
    },
    {
      "channel": 1,
      "note": 44,
      "start": 8.7105,
      "duration": 0.4092,
      "velocity": 103,
      "chip": "ym2612"
    },
    {
      "channel": 1,
      "note": 40,
      "start": 9.3278,
      "duration": 0.4092,
      "velocity": 103,
      "chip": "ym2612"
    },
    {
      "channel": 0,
      "note": 64,
      "start": 9.9431,
      "duration": 0.5654,
      "velocity": 97,
      "chip": "ym2612"
    },
    {
      "channel": 1,
      "note": 45,
      "start": 9.9467,
      "duration": 0.8352,
      "velocity": 103,
      "chip": "ym2612"
    },
    {
      "channel": 0,
      "note": 63,
      "start": 10.5603,
      "duration": 0.2729,
      "velocity": 97,
      "chip": "ym2612"
    },
    {
      "channel": 0,
      "note": 64,
      "start": 10.8689,
      "duration": 0.2729,
      "velocity": 97,
      "chip": "ym2612"
    },
    {
      "channel": 0,
      "note": 59,
      "start": 11.1775,
      "duration": 0.273,
      "velocity": 97,
      "chip": "ym2612"
    },
    {
      "channel": 1,
      "note": 41,
      "start": 11.1812,
      "duration": 0.8352,
      "velocity": 103,
      "chip": "ym2612"
    },
    {
      "channel": 0,
      "note": 60,
      "start": 11.4862,
      "duration": 0.2729,
      "velocity": 97,
      "chip": "ym2612"
    },
    {
      "channel": 0,
      "note": 63,
      "start": 11.7948,
      "duration": 0.5655,
      "velocity": 97,
      "chip": "ym2612"
    },
    {
      "channel": 0,
      "note": 64,
      "start": 12.4121,
      "duration": 0.273,
      "velocity": 97,
      "chip": "ym2612"
    },
    {
      "channel": 1,
      "note": 44,
      "start": 12.4158,
      "duration": 0.8352,
      "velocity": 103,
      "chip": "ym2612"
    },
    {
      "channel": 0,
      "note": 65,
      "start": 12.7208,
      "duration": 0.2729,
      "velocity": 97,
      "chip": "ym2612"
    },
    {
      "channel": 0,
      "note": 69,
      "start": 13.0294,
      "duration": 0.2729,
      "velocity": 97,
      "chip": "ym2612"
    },
    {
      "channel": 0,
      "note": 68,
      "start": 13.3381,
      "duration": 0.1186,
      "velocity": 97,
      "chip": "ym2612"
    },
    {
      "channel": 1,
      "note": 47,
      "start": 13.649,
      "duration": 0.8365,
      "velocity": 103,
      "chip": "ym2612"
    },
    {
      "channel": 0,
      "note": 64,
      "start": 14.8812,
      "duration": 0.273,
      "velocity": 97,
      "chip": "ym2612"
    },
    {
      "channel": 1,
      "note": 48,
      "start": 14.885,
      "duration": 0.8352,
      "velocity": 103,
      "chip": "ym2612"
    },
    {
      "channel": 0,
      "note": 65,
      "start": 15.1899,
      "duration": 0.2728,
      "velocity": 97,
      "chip": "ym2612"
    },
    {
      "channel": 0,
      "note": 68,
      "start": 15.4985,
      "duration": 0.2729,
      "velocity": 97,
      "chip": "ym2612"
    },
    {
      "channel": 0,
      "note": 71,
      "start": 15.8072,
      "duration": 0.2729,
      "velocity": 97,
      "chip": "ym2612"
    },
    {
      "channel": 0,
      "note": 76,
      "start": 16.1158,
      "duration": 0.273,
      "velocity": 97,
      "chip": "ym2612"
    },
    {
      "channel": 1,
      "note": 44,
      "start": 16.1195,
      "duration": 0.8352,
      "velocity": 103,
      "chip": "ym2612"
    },
    {
      "channel": 0,
      "note": 75,
      "start": 16.4245,
      "duration": 0.2729,
      "velocity": 97,
      "chip": "ym2612"
    },
    {
      "channel": 0,
      "note": 72,
      "start": 16.7331,
      "duration": 0.273,
      "velocity": 97,
      "chip": "ym2612"
    },
    {
      "channel": 0,
      "note": 71,
      "start": 17.0417,
      "duration": 0.2729,
      "velocity": 97,
      "chip": "ym2612"
    },
    {
      "channel": 0,
      "note": 69,
      "start": 17.3504,
      "duration": 2.2962,
      "velocity": 97,
      "chip": "ym2612"
    },
    {
      "channel": 1,
      "note": 45,
      "start": 17.3541,
      "duration": 0.4075,
      "velocity": 103,
      "chip": "ym2612"
    },
    {
      "channel": 1,
      "note": 47,
      "start": 17.9696,
      "duration": 0.4092,
      "velocity": 103,
      "chip": "ym2612"
    },
    {
      "channel": 1,
      "note": 48,
      "start": 18.5869,
      "duration": 0.4092,
      "velocity": 103,
      "chip": "ym2612"
    },
    {
      "channel": 1,
      "note": 52,
      "start": 19.2042,
      "duration": 0.4092,
      "velocity": 103,
      "chip": "ym2612"
    },
    {
      "channel": 0,
      "note": 69,
      "start": 19.8195,
      "duration": 0.5654,
      "velocity": 97,
      "chip": "ym2612"
    },
    {
      "channel": 1,
      "note": 53,
      "start": 19.8232,
      "duration": 0.8352,
      "velocity": 103,
      "chip": "ym2612"
    },
    {
      "channel": 0,
      "note": 68,
      "start": 20.4368,
      "duration": 0.2729,
      "velocity": 97,
      "chip": "ym2612"
    },
    {
      "channel": 0,
      "note": 69,
      "start": 20.7454,
      "duration": 0.2729,
      "velocity": 97,
      "chip": "ym2612"
    },
    {
      "channel": 0,
      "note": 68,
      "start": 21.054,
      "duration": 0.2729,
      "velocity": 97,
      "chip": "ym2612"
    },
    {
      "channel": 1,
      "note": 52,
      "start": 21.0577,
      "duration": 0.8351,
      "velocity": 103,
      "chip": "ym2612"
    },
    {
      "channel": 0,
      "note": 69,
      "start": 21.3626,
      "duration": 0.273,
      "velocity": 97,
      "chip": "ym2612"
    },
    {
      "channel": 0,
      "note": 71,
      "start": 21.6712,
      "duration": 0.5655,
      "velocity": 97,
      "chip": "ym2612"
    },
    {
      "channel": 0,
      "note": 71,
      "start": 22.2885,
      "duration": 0.0158,
      "velocity": 97,
      "chip": "ym2612"
    },
    {
      "channel": 1,
      "note": 51,
      "start": 22.2922,
      "duration": 0.8351,
      "velocity": 103,
      "chip": "ym2612"
    },
    {
      "channel": 0,
      "note": 71,
      "start": 22.9056,
      "duration": 0.2729,
      "velocity": 97,
      "chip": "ym2612"
    },
    {
      "channel": 0,
      "note": 69,
      "start": 23.2143,
      "duration": 0.2729,
      "velocity": 97,
      "chip": "ym2612"
    },
    {
      "channel": 0,
      "note": 71,
      "start": 23.5229,
      "duration": 0.5655,
      "velocity": 97,
      "chip": "ym2612"
    },
    {
      "channel": 1,
      "note": 52,
      "start": 23.5266,
      "duration": 0.4076,
      "velocity": 103,
      "chip": "ym2612"
    },
    {
      "channel": 1,
      "note": 40,
      "start": 24.1425,
      "duration": 0.4092,
      "velocity": 103,
      "chip": "ym2612"
    },
    {
      "channel": 1,
      "note": 53,
      "start": 24.7598,
      "duration": 0.8364,
      "velocity": 103,
      "chip": "ym2612"
    },
    {
      "channel": 0,
      "note": 72,
      "start": 24.7917,
      "duration": 0.5655,
      "velocity": 97,
      "chip": "ym2612"
    },
    {
      "channel": 0,
      "note": 75,
      "start": 25.409,
      "duration": 0.2729,
      "velocity": 97,
      "chip": "ym2612"
    },
    {
      "channel": 0,
      "note": 72,
      "start": 25.7176,
      "duration": 0.2765,
      "velocity": 97,
      "chip": "ym2612"
    },
    {
      "channel": 1,
      "note": 54,
      "start": 25.9929,
      "duration": 0.8379,
      "velocity": 103,
      "chip": "ym2612"
    },
    {
      "channel": 0,
      "note": 71,
      "start": 26.0262,
      "duration": 0.2729,
      "velocity": 97,
      "chip": "ym2612"
    },
    {
      "channel": 0,
      "note": 69,
      "start": 26.3349,
      "duration": 0.273,
      "velocity": 97,
      "chip": "ym2612"
    },
    {
      "channel": 0,
      "note": 68,
      "start": 26.6435,
      "duration": 0.2729,
      "velocity": 97,
      "chip": "ym2612"
    },
    {
      "channel": 0,
      "note": 69,
      "start": 26.9522,
      "duration": 0.2765,
      "velocity": 97,
      "chip": "ym2612"
    },
    {
      "channel": 1,
      "note": 52,
      "start": 27.2274,
      "duration": 0.4093,
      "velocity": 103,
      "chip": "ym2612"
    },
    {
      "channel": 0,
      "note": 71,
      "start": 27.2611,
      "duration": 3.4619,
      "velocity": 97,
      "chip": "ym2612"
    },
    {
      "channel": 1,
      "note": 56,
      "start": 27.8447,
      "duration": 0.2034,
      "velocity": 103,
      "chip": "ym2612"
    },
    {
      "channel": 1,
      "note": 52,
      "start": 28.1534,
      "duration": 0.2034,
      "velocity": 103,
      "chip": "ym2612"
    },
    {
      "channel": 1,
      "note": 50,
      "start": 28.462,
      "duration": 0.2035,
      "velocity": 103,
      "chip": "ym2612"
    },
    {
      "channel": 1,
      "note": 48,
      "start": 28.7707,
      "duration": 0.2035,
      "velocity": 103,
      "chip": "ym2612"
    },
    {
      "channel": 1,
      "note": 47,
      "start": 29.0793,
      "duration": 0.2035,
      "velocity": 103,
      "chip": "ym2612"
    },
    {
      "channel": 1,
      "note": 51,
      "start": 29.388,
      "duration": 0.2034,
      "velocity": 103,
      "chip": "ym2612"
    },
    {
      "channel": 1,
      "note": 52,
      "start": 29.6966,
      "duration": 1.6795,
      "velocity": 103,
      "chip": "ym2612"
    },
    {
      "channel": 0,
      "note": 64,
      "start": 32.1778,
      "duration": 0.0195,
      "velocity": 97,
      "chip": "ym2612"
    },
    {
      "channel": 1,
      "note": 45,
      "start": 32.1955,
      "duration": 0.0018,
      "velocity": 103,
      "chip": "ym2612"
    }
  ]
}